tick,type,time,meta,track,numerator,denominator,clocks_per_click,notated_32nd_notes_per_beat,key,tempo,program,channel,control,value,note,velocity
0,track_name,0,1,0,,,,,,,,,,,,
0,control_change,0,0,5,,,,,,,,4,7,80,,
0,program_change,0,0,5,,,,,,,40,4,,,,
0,track_name,0,1,5,,,,,,,,,,,,
0,end_of_track,0,1,14,,,,,,,,,,,,
0,note_on,0,0,4,,,,,,,,3,,,45,105
0,control_change,0,0,4,,,,,,,,3,10,83,,
0,control_change,0,0,4,,,,,,,,3,7,77,,
0,program_change,0,0,4,,,,,,,40,3,,,,
0,track_name,0,1,4,,,,,,,,,,,,
0,note_on,0,0,3,,,,,,,,2,,,61,105
0,control_change,0,0,3,,,,,,,,2,10,43,,
0,control_change,0,0,3,,,,,,,,2,7,82,,
0,program_change,0,0,3,,,,,,,41,2,,,,
0,track_name,0,1,3,,,,,,,,,,,,
0,control_change,0,0,2,,,,,,,,1,91,69,,
0,control_change,0,0,2,,,,,,,,1,10,111,,
0,control_change,0,0,2,,,,,,,,1,7,79,,
0,note_on,0,0,5,,,,,,,,4,,,33,105
0,track_name,0,1,6,,,,,,,,,,,,
0,program_change,0,0,6,,,,,,,6,5,,,,
0,control_change,0,0,6,,,,,,,,5,7,53,,
0,track_name,0,1,14,,,,,,,,,,,,
0,end_of_track,0,1,13,,,,,,,,,,,,
0,track_name,0,1,13,,,,,,,,,,,,
0,end_of_track,0,1,12,,,,,,,,,,,,
0,track_name,0,1,12,,,,,,,,,,,,
0,end_of_track,0,1,11,,,,,,,,,,,,
0,track_name,0,1,11,,,,,,,,,,,,
0,end_of_track,0,1,10,,,,,,,,,,,,
0,program_change,0,0,2,,,,,,,40,1,,,,
0,track_name,0,1,10,,,,,,,,,,,,
0,track_name,0,1,9,,,,,,,,,,,,
0,end_of_track,0,1,8,,,,,,,,,,,,
0,track_name,0,1,8,,,,,,,,,,,,
0,end_of_track,0,1,7,,,,,,,,,,,,
0,track_name,0,1,7,,,,,,,,,,,,
0,note_on,0,0,6,,,,,,,,5,,,69,105
0,note_on,0,0,6,,,,,,,,5,,,61,105
0,note_on,0,0,6,,,,,,,,5,,,45,105
0,end_of_track,0,1,9,,,,,,,,,,,,
0,track_name,0,1,2,,,,,,,,,,,,
0,end_of_track,0,1,15,,,,,,,,,,,,
0,time_signature,0,1,0,4,4,24,8,,,,,,,,
0,set_tempo,0,1,0,,,,,,600000,,,,,,
0,marker,0,1,0,,,,,,,,,,,,
0,key_signature,0,1,0,,,,,C,,,,,,,
0,track_name,0,1,1,,,,,,,,,,,,
0,program_change,0,0,1,,,,,,,40,0,,,,
0,control_change,0,0,1,,,,,,,,0,7,80,,
0,control_change,0,0,1,,,,,,,,0,10,17,,
0,note_on,0,0,1,,,,,,,,0,,,69,105
96,note_on,96,0,6,,,,,,,,5,,,61,0
96,note_on,96,0,1,,,,,,,,0,,,69,0
120,note_on,24,0,6,,,,,,,,5,,,57,105
120,note_on,24,0,1,,,,,,,,0,,,81,105
192,note_on,0,0,6,,,,,,,,5,,,45,0
192,note_on,72,0,6,,,,,,,,5,,,69,0
192,note_on,192,0,4,,,,,,,,3,,,45,0
192,note_on,192,0,5,,,,,,,,4,,,33,0
192,note_on,192,0,3,,,,,,,,2,,,61,0
216,note_on,96,0,1,,,,,,,,0,,,81,0
216,note_on,24,0,6,,,,,,,,5,,,57,0
240,note_on,24,0,1,,,,,,,,0,,,81,105
240,note_on,24,0,6,,,,,,,,5,,,57,105
243,control_change,243,0,2,,,,,,,,1,0,0,,
244,program_change,1,0,2,,,,,,,40,1,,,,
244,control_change,0,0,2,,,,,,,,1,32,0,,
245,control_change,1,0,2,,,,,,,,1,7,127,,
300,note_on,60,0,6,,,,,,,,5,,,57,105
300,note_on,108,0,4,,,,,,,,3,,,57,105
300,note_on,108,0,5,,,,,,,,4,,,45,105
336,note_on,36,0,6,,,,,,,,5,,,57,0
348,note_on,12,0,6,,,,,,,,5,,,57,0
348,note_on,48,0,4,,,,,,,,3,,,57,0
348,note_on,48,0,5,,,,,,,,4,,,45,0
360,note_on,12,0,4,,,,,,,,3,,,56,105
360,note_on,12,0,5,,,,,,,,4,,,44,105
360,note_on,168,0,3,,,,,,,,2,,,61,105
360,note_on,12,0,6,,,,,,,,5,,,56,105
408,note_on,48,0,6,,,,,,,,5,,,56,0
408,note_on,48,0,4,,,,,,,,3,,,56,0
408,note_on,48,0,5,,,,,,,,4,,,44,0
420,note_on,12,0,6,,,,,,,,5,,,57,105
420,note_on,12,0,5,,,,,,,,4,,,45,105
420,note_on,12,0,4,,,,,,,,3,,,57,105
456,note_on,96,0,3,,,,,,,,2,,,61,0
468,note_on,48,0,5,,,,,,,,4,,,45,0
468,note_on,48,0,4,,,,,,,,3,,,57,0
468,note_on,48,0,6,,,,,,,,5,,,57,0
480,note_on,12,0,6,,,,,,,,5,,,45,105
480,note_on,12,0,5,,,,,,,,4,,,33,105
480,note_on,24,0,3,,,,,,,,2,,,61,105
480,note_on,12,0,4,,,,,,,,3,,,45,105
576,note_on,336,0,1,,,,,,,,0,,,81,0
600,note_on,120,0,6,,,,,,,,5,,,64,105
600,note_on,24,0,1,,,,,,,,0,,,80,105
648,note_on,48,0,1,,,,,,,,0,,,80,0
660,note_on,12,0,1,,,,,,,,0,,,78,105
672,note_on,72,0,6,,,,,,,,5,,,45,0
672,note_on,192,0,5,,,,,,,,4,,,33,0
672,note_on,192,0,4,,,,,,,,3,,,45,0
672,note_on,192,0,3,,,,,,,,2,,,61,0
696,note_on,24,0,6,,,,,,,,5,,,64,0
708,note_on,48,0,1,,,,,,,,0,,,78,0
720,note_on,12,0,1,,,,,,,,0,,,76,105
720,note_on,24,0,6,,,,,,,,5,,,68,105
816,note_on,96,0,6,,,,,,,,5,,,68,0
816,note_on,96,0,1,,,,,,,,0,,,76,0
840,note_on,168,0,4,,,,,,,,3,,,56,105
840,note_on,0,0,6,,,,,,,,5,,,71,105
840,note_on,0,0,6,,,,,,,,5,,,64,105
840,note_on,24,0,6,,,,,,,,5,,,56,105
840,note_on,24,0,1,,,,,,,,0,,,74,105
840,note_on,168,0,3,,,,,,,,2,,,71,105
840,note_on,168,0,5,,,,,,,,4,,,44,105
936,note_on,96,0,6,,,,,,,,5,,,71,0
936,note_on,96,0,5,,,,,,,,4,,,44,0
936,note_on,0,0,6,,,,,,,,5,,,56,0
936,note_on,0,0,6,,,,,,,,5,,,64,0
936,note_on,96,0,1,,,,,,,,0,,,74,0
936,note_on,96,0,3,,,,,,,,2,,,71,0
936,note_on,96,0,4,,,,,,,,3,,,56,0
960,note_on,0,0,6,,,,,,,,5,,,73,105
960,note_on,715,0,2,,,,,,,,1,,,69,80
960,note_on,0,0,6,,,,,,,,5,,,69,105
960,note_on,24,0,6,,,,,,,,5,,,45,105
960,note_on,24,0,5,,,,,,,,4,,,33,105
960,note_on,24,0,1,,,,,,,,0,,,73,105
960,note_on,24,0,4,,,,,,,,3,,,45,105
960,note_on,24,0,3,,,,,,,,2,,,61,105
1056,note_on,96,0,1,,,,,,,,0,,,73,0
1056,note_on,96,0,6,,,,,,,,5,,,69,0
1056,note_on,96,0,2,,,,,,,,1,,,69,0
1080,note_on,24,0,2,,,,,,,,1,,,81,80
1080,note_on,24,0,6,,,,,,,,5,,,61,105
1080,note_on,24,0,1,,,,,,,,0,,,78,105
1152,note_on,192,0,4,,,,,,,,3,,,45,0
1152,note_on,72,0,6,,,,,,,,5,,,73,0
1152,note_on,0,0,6,,,,,,,,5,,,45,0
1152,note_on,192,0,5,,,,,,,,4,,,33,0
1152,note_on,192,0,3,,,,,,,,2,,,61,0
1176,note_on,96,0,2,,,,,,,,1,,,81,0
1176,note_on,24,0,6,,,,,,,,5,,,61,0
1176,note_on,96,0,1,,,,,,,,0,,,78,0
1200,note_on,24,0,6,,,,,,,,5,,,66,105
1200,note_on,24,0,2,,,,,,,,1,,,81,80
1200,note_on,24,0,1,,,,,,,,0,,,78,105
1260,note_on,108,0,5,,,,,,,,4,,,45,105
1260,note_on,60,0,6,,,,,,,,5,,,57,105
1260,note_on,108,0,4,,,,,,,,3,,,57,105
1308,note_on,48,0,6,,,,,,,,5,,,57,0
1308,note_on,48,0,5,,,,,,,,4,,,45,0
1308,note_on,48,0,4,,,,,,,,3,,,57,0
1320,note_on,12,0,6,,,,,,,,5,,,56,105
1320,note_on,168,0,3,,,,,,,,2,,,73,105
1320,note_on,12,0,5,,,,,,,,4,,,44,105
1320,note_on,12,0,4,,,,,,,,3,,,56,105
1368,note_on,48,0,4,,,,,,,,3,,,56,0
1368,note_on,48,0,5,,,,,,,,4,,,44,0
1368,note_on,48,0,6,,,,,,,,5,,,56,0
1380,note_on,12,0,6,,,,,,,,5,,,57,105
1380,note_on,12,0,4,,,,,,,,3,,,57,105
1380,note_on,12,0,5,,,,,,,,4,,,45,105
1392,note_on,12,0,6,,,,,,,,5,,,66,0
1416,note_on,96,0,3,,,,,,,,2,,,73,0
1428,note_on,48,0,4,,,,,,,,3,,,57,0
1428,note_on,48,0,5,,,,,,,,4,,,45,0
1428,note_on,36,0,6,,,,,,,,5,,,57,0
1440,note_on,12,0,5,,,,,,,,4,,,38,105
1440,note_on,12,0,6,,,,,,,,5,,,50,105
1440,note_on,24,0,3,,,,,,,,2,,,69,105
1440,note_on,12,0,4,,,,,,,,3,,,50,105
1536,note_on,336,0,2,,,,,,,,1,,,81,0
1536,note_on,336,0,1,,,,,,,,0,,,78,0
1560,note_on,120,0,6,,,,,,,,5,,,74,105
1560,note_on,24,0,2,,,,,,,,1,,,80,80
1560,note_on,24,0,1,,,,,,,,0,,,76,105
1608,note_on,48,0,2,,,,,,,,1,,,80,0
1608,note_on,48,0,1,,,,,,,,0,,,76,0
1620,note_on,12,0,1,,,,,,,,0,,,74,105
1620,note_on,12,0,2,,,,,,,,1,,,78,80
1632,note_on,72,0,6,,,,,,,,5,,,50,0
1632,note_on,192,0,5,,,,,,,,4,,,38,0
1632,note_on,192,0,3,,,,,,,,2,,,69,0
1632,note_on,192,0,4,,,,,,,,3,,,50,0
1656,note_on,24,0,6,,,,,,,,5,,,74,0
1668,note_on,48,0,2,,,,,,,,1,,,78,0
1668,note_on,48,0,1,,,,,,,,0,,,74,0
1680,note_on,12,0,1,,,,,,,,0,,,73,105
1680,note_on,24,0,6,,,,,,,,5,,,64,105
1680,note_on,12,0,2,,,,,,,,1,,,76,80
1776,note_on,96,0,2,,,,,,,,1,,,76,0
1776,note_on,96,0,6,,,,,,,,5,,,64,0
1776,note_on,96,0,1,,,,,,,,0,,,73,0
1800,note_on,168,0,5,,,,,,,,4,,,40,105
1800,note_on,168,0,4,,,,,,,,3,,,52,105
1800,note_on,168,0,3,,,,,,,,2,,,68,105
1800,note_on,24,0,6,,,,,,,,5,,,52,105
1800,note_on,0,0,6,,,,,,,,5,,,68,105
1800,note_on,24,0,2,,,,,,,,1,,,74,80
1800,note_on,24,0,1,,,,,,,,0,,,71,105
1800,note_on,0,0,6,,,,,,,,5,,,59,105
1896,note_on,96,0,5,,,,,,,,4,,,40,0
1896,note_on,96,0,2,,,,,,,,1,,,74,0
1896,note_on,96,0,4,,,,,,,,3,,,52,0
1896,note_on,96,0,1,,,,,,,,0,,,71,0
1896,note_on,96,0,3,,,,,,,,2,,,68,0
1896,note_on,0,0,6,,,,,,,,5,,,52,0
1896,note_on,0,0,6,,,,,,,,5,,,68,0
1896,note_on,96,0,6,,,,,,,,5,,,59,0
1920,note_on,24,0,4,,,,,,,,3,,,45,105
1920,note_on,24,0,1,,,,,,,,0,,,69,105
1920,note_on,24,0,3,,,,,,,,2,,,64,105
1920,note_on,0,0,6,,,,,,,,5,,,61,105
1920,note_on,24,0,2,,,,,,,,1,,,73,80
1920,note_on,24,0,5,,,,,,,,4,,,33,105
1920,note_on,24,0,6,,,,,,,,5,,,45,105
1920,note_on,0,0,6,,,,,,,,5,,,69,105
2016,note_on,96,0,2,,,,,,,,1,,,73,0
2016,note_on,96,0,1,,,,,,,,0,,,69,0
2016,note_on,96,0,6,,,,,,,,5,,,69,0
2040,note_on,24,0,6,,,,,,,,5,,,78,105
2040,note_on,24,0,1,,,,,,,,0,,,81,105
2040,note_on,24,0,2,,,,,,,,1,,,78,80
2112,note_on,192,0,5,,,,,,,,4,,,33,0
2112,note_on,72,0,6,,,,,,,,5,,,61,0
2112,note_on,0,0,6,,,,,,,,5,,,45,0
2112,note_on,192,0,4,,,,,,,,3,,,45,0
2112,note_on,192,0,3,,,,,,,,2,,,64,0
2136,note_on,24,0,6,,,,,,,,5,,,78,0
2136,note_on,96,0,1,,,,,,,,0,,,81,0
2136,note_on,96,0,2,,,,,,,,1,,,78,0
2160,note_on,24,0,2,,,,,,,,1,,,78,80
2160,note_on,24,0,1,,,,,,,,0,,,74,105
2160,note_on,24,0,6,,,,,,,,5,,,74,105
2220,note_on,60,0,6,,,,,,,,5,,,62,105
2220,note_on,108,0,5,,,,,,,,4,,,50,105
2220,note_on,108,0,4,,,,,,,,3,,,62,105
2268,note_on,48,0,5,,,,,,,,4,,,50,0
2268,note_on,48,0,6,,,,,,,,5,,,62,0
2268,note_on,48,0,4,,,,,,,,3,,,62,0
2280,note_on,12,0,6,,,,,,,,5,,,64,105
2280,note_on,12,0,4,,,,,,,,3,,,61,105
2280,note_on,12,0,5,,,,,,,,4,,,49,105
2280,note_on,0,0,6,,,,,,,,5,,,69,105
2280,note_on,168,0,3,,,,,,,,2,,,69,105
2328,note_on,48,0,4,,,,,,,,3,,,61,0
2328,note_on,48,0,5,,,,,,,,4,,,49,0
2328,note_on,48,0,6,,,,,,,,5,,,64,0
2340,note_on,12,0,4,,,,,,,,3,,,62,105
2340,note_on,12,0,5,,,,,,,,4,,,50,105
2340,note_on,12,0,6,,,,,,,,5,,,62,105
2352,note_on,12,0,6,,,,,,,,5,,,74,0
2376,note_on,24,0,6,,,,,,,,5,,,69,0
2376,note_on,96,0,3,,,,,,,,2,,,69,0
2388,note_on,12,0,6,,,,,,,,5,,,62,0
2388,note_on,48,0,5,,,,,,,,4,,,50,0
2388,note_on,48,0,4,,,,,,,,3,,,62,0
2400,note_on,24,0,3,,,,,,,,2,,,71,105
2400,note_on,12,0,5,,,,,,,,4,,,44,105
2400,note_on,12,0,4,,,,,,,,3,,,56,105
2400,note_on,12,0,6,,,,,,,,5,,,71,105
2400,note_on,0,0,6,,,,,,,,5,,,56,105
2496,note_on,336,0,1,,,,,,,,0,,,74,0
2496,note_on,336,0,2,,,,,,,,1,,,78,0
2496,note_on,96,0,6,,,,,,,,5,,,71,0
2520,note_on,24,0,6,,,,,,,,5,,,76,105
2520,note_on,24,0,1,,,,,,,,0,,,83,105
2520,note_on,24,0,2,,,,,,,,1,,,76,80
2568,note_on,48,0,2,,,,,,,,1,,,76,0
2580,note_on,12,0,2,,,,,,,,1,,,74,80
2592,note_on,192,0,3,,,,,,,,2,,,71,0
2592,note_on,192,0,4,,,,,,,,3,,,56,0
2592,note_on,72,0,6,,,,,,,,5,,,56,0
2592,note_on,192,0,5,,,,,,,,4,,,44,0
2616,note_on,96,0,1,,,,,,,,0,,,83,0
2628,note_on,48,0,2,,,,,,,,1,,,74,0
2640,note_on,12,0,2,,,,,,,,1,,,73,80
2640,note_on,24,0,1,,,,,,,,0,,,76,105
2712,note_on,120,0,6,,,,,,,,5,,,76,0
2736,note_on,96,0,2,,,,,,,,1,,,73,0
2736,note_on,96,0,1,,,,,,,,0,,,76,0
2760,note_on,168,0,5,,,,,,,,4,,,40,105
2760,note_on,168,0,3,,,,,,,,2,,,68,105
2760,note_on,24,0,2,,,,,,,,1,,,71,80
2760,note_on,48,0,6,,,,,,,,5,,,52,105
2760,note_on,24,0,1,,,,,,,,0,,,74,105
2760,note_on,168,0,4,,,,,,,,3,,,52,105
2760,note_on,0,0,6,,,,,,,,5,,,74,105
2856,note_on,96,0,4,,,,,,,,3,,,52,0
2856,note_on,96,0,5,,,,,,,,4,,,40,0
2856,note_on,96,0,3,,,,,,,,2,,,68,0
2856,note_on,96,0,2,,,,,,,,1,,,71,0
2856,note_on,96,0,6,,,,,,,,5,,,74,0
2856,note_on,96,0,1,,,,,,,,0,,,74,0
2856,note_on,0,0,6,,,,,,,,5,,,52,0
2880,note_on,24,0,4,,,,,,,,3,,,57,105
2880,note_on,0,0,6,,,,,,,,5,,,57,105
2880,note_on,24,0,3,,,,,,,,2,,,64,105
2880,note_on,0,0,6,,,,,,,,5,,,73,105
2880,note_on,24,0,1,,,,,,,,0,,,73,105
2880,note_on,24,0,5,,,,,,,,4,,,45,105
2880,note_on,24,0,2,,,,,,,,1,,,69,80
2880,note_on,24,0,6,,,,,,,,5,,,69,105
2928,note_on,48,0,1,,,,,,,,0,,,73,0
2940,note_on,12,0,1,,,,,,,,0,,,69,105
2976,note_on,96,0,6,,,,,,,,5,,,57,0
2976,note_on,96,0,3,,,,,,,,2,,,64,0
2976,note_on,96,0,5,,,,,,,,4,,,45,0
2976,note_on,96,0,4,,,,,,,,3,,,57,0
2988,note_on,48,0,1,,,,,,,,0,,,69,0
3000,note_on,24,0,3,,,,,,,,2,,,61,105
3000,note_on,24,0,6,,,,,,,,5,,,45,105
3000,note_on,24,0,4,,,,,,,,3,,,45,105
3000,note_on,12,0,1,,,,,,,,0,,,71,105
3000,note_on,24,0,5,,,,,,,,4,,,33,105
3048,note_on,48,0,1,,,,,,,,0,,,71,0
3060,note_on,12,0,1,,,,,,,,0,,,73,105
3072,note_on,72,0,6,,,,,,,,5,,,73,0
3072,note_on,0,0,6,,,,,,,,5,,,69,0
3072,note_on,0,0,6,,,,,,,,5,,,64,64
3072,note_on,192,0,2,,,,,,,,1,,,69,0
3072,note_on,0,0,6,,,,,,,,5,,,64,0
3096,note_on,24,0,6,,,,,,,,5,,,45,0
3096,note_on,96,0,3,,,,,,,,2,,,61,0
3096,note_on,96,0,5,,,,,,,,4,,,33,0
3096,note_on,96,0,4,,,,,,,,3,,,45,0
3108,note_on,48,0,1,,,,,,,,0,,,73,0
3120,note_on,24,0,6,,,,,,,,5,,,64,105
3120,note_on,12,0,1,,,,,,,,0,,,74,105
3168,note_on,48,0,1,,,,,,,,0,,,74,0
3180,note_on,12,0,1,,,,,,,,0,,,76,105
3216,note_on,96,0,6,,,,,,,,5,,,64,0
3228,note_on,48,0,1,,,,,,,,0,,,76,0
3240,note_on,144,0,3,,,,,,,,2,,,68,105
3240,note_on,0,0,6,,,,,,,,5,,,52,105
3240,note_on,0,0,6,,,,,,,,5,,,64,105
3240,note_on,0,0,6,,,,,,,,5,,,68,105
3240,note_on,24,0,6,,,,,,,,5,,,71,105
3240,note_on,144,0,4,,,,,,,,3,,,52,105
3240,note_on,12,0,1,,,,,,,,0,,,78,105
3240,note_on,144,0,5,,,,,,,,4,,,40,105
3288,note_on,48,0,1,,,,,,,,0,,,78,0
3300,note_on,12,0,1,,,,,,,,0,,,80,105
3336,note_on,0,0,6,,,,,,,,5,,,68,0
3336,note_on,0,0,6,,,,,,,,5,,,71,0
3336,note_on,96,0,6,,,,,,,,5,,,52,0
3336,note_on,96,0,4,,,,,,,,3,,,52,0
3336,note_on,96,0,3,,,,,,,,2,,,68,0
3336,note_on,96,0,5,,,,,,,,4,,,40,0
3348,note_on,48,0,1,,,,,,,,0,,,80,0
3360,note_on,0,0,6,,,,,,,,5,,,73,105
3360,note_on,0,0,6,,,,,,,,5,,,69,105
3360,note_on,24,0,4,,,,,,,,3,,,57,105
3360,note_on,12,0,1,,,,,,,,0,,,81,105
3360,note_on,24,0,6,,,,,,,,5,,,57,105
3360,note_on,24,0,5,,,,,,,,4,,,45,105
3360,note_on,24,0,3,,,,,,,,2,,,64,105
3420,note_on,348,0,2,,,,,,,,1,,,69,80
3432,note_on,72,0,6,,,,,,,,5,,,64,0
3456,note_on,24,0,6,,,,,,,,5,,,57,0
3456,note_on,96,0,3,,,,,,,,2,,,64,0
3456,note_on,96,0,4,,,,,,,,3,,,57,0
3456,note_on,96,0,5,,,,,,,,4,,,45,0
3468,note_on,48,0,2,,,,,,,,1,,,69,0
3480,note_on,0,0,6,,,,,,,,5,,,45,105
3480,note_on,24,0,6,,,,,,,,5,,,64,105
3480,note_on,24,0,4,,,,,,,,3,,,45,105
3480,note_on,12,0,2,,,,,,,,1,,,71,80
3480,note_on,24,0,5,,,,,,,,4,,,33,105
3480,note_on,24,0,3,,,,,,,,2,,,61,105
3528,note_on,48,0,2,,,,,,,,1,,,71,0
3540,note_on,12,0,2,,,,,,,,1,,,73,80
3552,note_on,0,0,6,,,,,,,,5,,,69,0
3552,note_on,72,0,6,,,,,,,,5,,,73,0
3552,note_on,192,0,1,,,,,,,,0,,,81,0
3576,note_on,96,0,4,,,,,,,,3,,,45,0
3576,note_on,96,0,3,,,,,,,,2,,,61,0
3576,note_on,96,0,5,,,,,,,,4,,,33,0
3576,note_on,24,0,6,,,,,,,,5,,,64,0
3576,note_on,0,0,6,,,,,,,,5,,,45,0
3588,note_on,48,0,2,,,,,,,,1,,,73,0
3600,note_on,12,0,2,,,,,,,,1,,,74,80
3600,note_on,48,0,1,,,,,,,,0,,,74,105
3648,note_on,48,0,2,,,,,,,,1,,,74,0
3660,note_on,12,0,2,,,,,,,,1,,,76,80
3708,note_on,48,0,2,,,,,,,,1,,,76,0
3720,note_on,144,0,6,,,,,,,,5,,,74,105
3720,note_on,0,0,6,,,,,,,,5,,,52,105
3720,note_on,0,0,6,,,,,,,,5,,,71,105
3720,note_on,12,0,2,,,,,,,,1,,,78,80
3720,note_on,144,0,5,,,,,,,,4,,,40,105
3720,note_on,144,0,4,,,,,,,,3,,,52,105
3720,note_on,144,0,3,,,,,,,,2,,,68,105
3768,note_on,48,0,2,,,,,,,,1,,,78,0
3780,note_on,12,0,2,,,,,,,,1,,,80,80
3792,note_on,192,0,1,,,,,,,,0,,,74,0
3816,note_on,96,0,4,,,,,,,,3,,,52,0
3816,note_on,96,0,3,,,,,,,,2,,,68,0
3816,note_on,96,0,6,,,,,,,,5,,,52,0
3816,note_on,0,0,6,,,,,,,,5,,,71,0
3816,note_on,0,0,6,,,,,,,,5,,,74,0
3816,note_on,96,0,5,,,,,,,,4,,,40,0
3828,note_on,48,0,2,,,,,,,,1,,,80,0
3840,note_on,48,0,1,,,,,,,,0,,,73,105
3840,note_on,24,0,5,,,,,,,,4,,,45,105
3840,note_on,12,0,2,,,,,,,,1,,,81,80
3840,note_on,0,0,6,,,,,,,,5,,,73,105
3840,note_on,0,0,6,,,,,,,,5,,,64,105
3840,note_on,0,0,6,,,,,,,,5,,,69,105
3840,note_on,24,0,6,,,,,,,,5,,,57,105
3840,note_on,24,0,3,,,,,,,,2,,,64,105
3840,note_on,24,0,4,,,,,,,,3,,,57,105
3888,note_on,48,0,1,,,,,,,,0,,,73,0
3900,note_on,12,0,1,,,,,,,,0,,,69,105
3936,note_on,96,0,4,,,,,,,,3,,,57,0
3936,note_on,96,0,5,,,,,,,,4,,,45,0
3936,note_on,96,0,3,,,,,,,,2,,,64,0
3936,note_on,96,0,6,,,,,,,,5,,,57,0
3948,note_on,48,0,1,,,,,,,,0,,,69,0
3960,note_on,24,0,6,,,,,,,,5,,,45,105
3960,note_on,24,0,5,,,,,,,,4,,,33,105
3960,note_on,24,0,4,,,,,,,,3,,,45,105
3960,note_on,12,0,1,,,,,,,,0,,,71,105
3960,note_on,24,0,3,,,,,,,,2,,,61,105
4008,note_on,48,0,1,,,,,,,,0,,,71,0
4020,note_on,12,0,1,,,,,,,,0,,,73,105
4032,note_on,192,0,2,,,,,,,,1,,,81,0
4032,note_on,0,0,6,,,,,,,,5,,,69,0
4032,note_on,72,0,6,,,,,,,,5,,,73,0
4032,note_on,0,0,6,,,,,,,,5,,,64,0
4056,note_on,24,0,6,,,,,,,,5,,,45,0
4056,note_on,96,0,4,,,,,,,,3,,,45,0
4056,note_on,96,0,5,,,,,,,,4,,,33,0
4056,note_on,96,0,3,,,,,,,,2,,,61,0
4068,note_on,48,0,1,,,,,,,,0,,,73,0
4080,note_on,48,0,2,,,,,,,,1,,,74,80
4080,note_on,24,0,6,,,,,,,,5,,,64,105
4080,note_on,12,0,1,,,,,,,,0,,,74,105
4128,note_on,48,0,1,,,,,,,,0,,,74,0
4140,note_on,12,0,1,,,,,,,,0,,,76,105
4176,note_on,96,0,6,,,,,,,,5,,,64,0
4188,note_on,48,0,1,,,,,,,,0,,,76,0
4200,note_on,144,0,5,,,,,,,,4,,,40,105
4200,note_on,12,0,1,,,,,,,,0,,,78,105
4200,note_on,0,0,6,,,,,,,,5,,,71,105
4200,note_on,0,0,6,,,,,,,,5,,,52,105
4200,note_on,0,0,6,,,,,,,,5,,,68,105
4200,note_on,24,0,6,,,,,,,,5,,,64,105
4200,note_on,144,0,3,,,,,,,,2,,,68,105
4200,note_on,144,0,4,,,,,,,,3,,,52,105
4248,note_on,48,0,1,,,,,,,,0,,,78,0
4260,note_on,12,0,1,,,,,,,,0,,,80,105
4272,note_on,192,0,2,,,,,,,,1,,,74,0
4296,note_on,96,0,5,,,,,,,,4,,,40,0
4296,note_on,96,0,3,,,,,,,,2,,,68,0
4296,note_on,0,0,6,,,,,,,,5,,,68,0
4296,note_on,96,0,4,,,,,,,,3,,,52,0
4296,note_on,96,0,6,,,,,,,,5,,,71,0
4296,note_on,0,0,6,,,,,,,,5,,,52,0
4308,note_on,48,0,1,,,,,,,,0,,,80,0
4320,note_on,24,0,4,,,,,,,,3,,,57,105
4320,note_on,48,0,2,,,,,,,,1,,,73,80
4320,note_on,24,0,5,,,,,,,,4,,,45,105
4320,note_on,12,0,1,,,,,,,,0,,,81,105
4320,note_on,24,0,3,,,,,,,,2,,,64,105
4320,note_on,0,0,6,,,,,,,,5,,,69,105
4320,note_on,0,0,6,,,,,,,,5,,,73,105
4320,note_on,24,0,6,,,,,,,,5,,,57,105
4368,note_on,48,0,2,,,,,,,,1,,,73,0
4380,note_on,12,0,2,,,,,,,,1,,,69,80
4392,note_on,72,0,6,,,,,,,,5,,,64,0
4416,note_on,96,0,4,,,,,,,,3,,,57,0
4416,note_on,96,0,3,,,,,,,,2,,,64,0
4416,note_on,24,0,6,,,,,,,,5,,,57,0
4416,note_on,96,0,5,,,,,,,,4,,,45,0
4428,note_on,48,0,2,,,,,,,,1,,,69,0
4440,note_on,24,0,4,,,,,,,,3,,,45,105
4440,note_on,24,0,3,,,,,,,,2,,,61,105
4440,note_on,12,0,2,,,,,,,,1,,,71,80
4440,note_on,0,0,6,,,,,,,,5,,,64,105
4440,note_on,24,0,6,,,,,,,,5,,,45,105
4440,note_on,24,0,5,,,,,,,,4,,,33,105
4488,note_on,48,0,2,,,,,,,,1,,,71,0
4500,note_on,12,0,2,,,,,,,,1,,,73,80
4512,note_on,192,0,1,,,,,,,,0,,,81,0
4512,note_on,72,0,6,,,,,,,,5,,,73,0
4512,note_on,0,0,6,,,,,,,,5,,,69,0
4536,note_on,24,0,6,,,,,,,,5,,,45,0
4536,note_on,0,0,6,,,,,,,,5,,,64,0
4536,note_on,96,0,3,,,,,,,,2,,,61,0
4536,note_on,96,0,4,,,,,,,,3,,,45,0
4536,note_on,96,0,5,,,,,,,,4,,,33,0
4548,note_on,48,0,2,,,,,,,,1,,,73,0
4560,note_on,48,0,1,,,,,,,,0,,,74,105
4560,note_on,12,0,2,,,,,,,,1,,,74,80
4608,note_on,48,0,2,,,,,,,,1,,,74,0
4620,note_on,12,0,2,,,,,,,,1,,,76,80
4668,note_on,48,0,2,,,,,,,,1,,,76,0
4680,note_on,0,0,6,,,,,,,,5,,,71,105
4680,note_on,144,0,3,,,,,,,,2,,,68,105
4680,note_on,144,0,5,,,,,,,,4,,,40,105
4680,note_on,144,0,4,,,,,,,,3,,,52,105
4680,note_on,12,0,2,,,,,,,,1,,,78,80
4680,note_on,0,0,6,,,,,,,,5,,,52,105
4680,note_on,144,0,6,,,,,,,,5,,,74,105
4728,note_on,48,0,2,,,,,,,,1,,,78,0
4740,note_on,12,0,2,,,,,,,,1,,,80,80
4752,note_on,192,0,1,,,,,,,,0,,,74,0
4776,note_on,96,0,5,,,,,,,,4,,,40,0
4776,note_on,0,0,6,,,,,,,,5,,,74,0
4776,note_on,0,0,6,,,,,,,,5,,,52,0
4776,note_on,96,0,6,,,,,,,,5,,,71,0
4776,note_on,96,0,4,,,,,,,,3,,,52,0
4776,note_on,96,0,3,,,,,,,,2,,,68,0
4788,note_on,48,0,2,,,,,,,,1,,,80,0
4800,note_on,0,0,6,,,,,,,,5,,,69,105
4800,note_on,0,0,6,,,,,,,,5,,,64,105
4800,note_on,24,0,3,,,,,,,,2,,,64,105
4800,note_on,0,0,6,,,,,,,,5,,,73,105
4800,note_on,24,0,6,,,,,,,,5,,,45,105
4800,note_on,12,0,2,,,,,,,,1,,,81,80
4800,note_on,24,0,5,,,,,,,,4,,,33,105
4800,note_on,24,0,4,,,,,,,,3,,,45,105
4800,note_on,48,0,1,,,,,,,,0,,,73,105
4848,note_on,48,0,1,,,,,,,,0,,,73,0
4860,note_on,12,0,1,,,,,,,,0,,,81,105
4896,note_on,96,0,4,,,,,,,,3,,,45,0
4896,note_on,96,0,3,,,,,,,,2,,,64,0
4896,note_on,96,0,6,,,,,,,,5,,,45,0
4896,note_on,96,0,5,,,,,,,,4,,,33,0
4908,note_on,48,0,1,,,,,,,,0,,,81,0
4920,note_on,24,0,6,,,,,,,,5,,,57,105
4920,note_on,24,0,5,,,,,,,,4,,,45,105
4920,note_on,12,0,1,,,,,,,,0,,,81,105
4920,note_on,24,0,3,,,,,,,,2,,,64,105
4920,note_on,24,0,4,,,,,,,,3,,,57,105
4968,note_on,48,0,1,,,,,,,,0,,,81,0
4980,note_on,12,0,1,,,,,,,,0,,,81,105
4992,note_on,192,0,2,,,,,,,,1,,,81,0
5016,note_on,96,0,3,,,,,,,,2,,,64,0
5016,note_on,96,0,6,,,,,,,,5,,,57,0
5016,note_on,96,0,5,,,,,,,,4,,,45,0
5016,note_on,96,0,4,,,,,,,,3,,,57,0
5028,note_on,48,0,1,,,,,,,,0,,,81,0
5040,note_on,24,0,5,,,,,,,,4,,,45,105
5040,note_on,24,0,6,,,,,,,,5,,,57,105
5040,note_on,0,0,6,,,,,,,,5,,,57,105
5040,note_on,12,0,1,,,,,,,,0,,,85,105
5040,note_on,24,0,3,,,,,,,,2,,,64,105
5040,note_on,24,0,4,,,,,,,,3,,,57,105
5088,note_on,48,0,1,,,,,,,,0,,,85,0
5100,note_on,12,0,1,,,,,,,,0,,,81,105
5136,note_on,96,0,4,,,,,,,,3,,,57,0
5136,note_on,96,0,6,,,,,,,,5,,,57,0
5136,note_on,0,0,6,,,,,,,,5,,,57,0
5136,note_on,96,0,3,,,,,,,,2,,,64,0
5136,note_on,96,0,5,,,,,,,,4,,,45,0
5148,note_on,48,0,1,,,,,,,,0,,,81,0
5160,note_on,24,0,3,,,,,,,,2,,,64,105
5160,note_on,24,0,5,,,,,,,,4,,,45,105
5160,note_on,24,0,4,,,,,,,,3,,,57,105
5160,note_on,12,0,1,,,,,,,,0,,,85,105
5160,note_on,24,0,6,,,,,,,,5,,,56,105
5184,note_on,0,0,6,,,,,,,,5,,,64,0
5184,note_on,0,0,6,,,,,,,,5,,,69,0
5184,note_on,24,0,6,,,,,,,,5,,,73,0
5208,note_on,48,0,1,,,,,,,,0,,,85,0
5220,note_on,12,0,1,,,,,,,,0,,,81,105
5256,note_on,96,0,4,,,,,,,,3,,,57,0
5256,note_on,96,0,5,,,,,,,,4,,,45,0
5256,note_on,72,0,6,,,,,,,,5,,,56,0
5256,note_on,96,0,3,,,,,,,,2,,,64,0
5268,note_on,48,0,1,,,,,,,,0,,,81,0
5280,note_on,24,0,5,,,,,,,,4,,,44,105
5280,note_on,24,0,3,,,,,,,,2,,,71,105
5280,note_on,24,0,4,,,,,,,,3,,,56,105
5280,note_on,24,0,6,,,,,,,,5,,,76,105
5280,note_on,0,0,6,,,,,,,,5,,,56,105
5280,note_on,0,0,6,,,,,,,,5,,,71,105
5280,note_on,12,0,1,,,,,,,,0,,,83,105
5328,note_on,48,0,6,,,,,,,,5,,,56,0
5340,note_on,12,0,6,,,,,,,,5,,,56,105
5340,note_on,348,0,2,,,,,,,,1,,,76,80
5376,note_on,96,0,3,,,,,,,,2,,,71,0
5376,note_on,96,0,5,,,,,,,,4,,,44,0
5376,note_on,96,0,4,,,,,,,,3,,,56,0
5388,note_on,48,0,2,,,,,,,,1,,,76,0
5388,note_on,48,0,6,,,,,,,,5,,,56,0
5400,note_on,12,0,6,,,,,,,,5,,,54,105
5400,note_on,24,0,4,,,,,,,,3,,,56,105
5400,note_on,24,0,3,,,,,,,,2,,,71,105
5400,note_on,12,0,2,,,,,,,,1,,,76,80
5400,note_on,24,0,5,,,,,,,,4,,,44,105
5448,note_on,48,0,4,,,,,,,,3,,,56,0
5448,note_on,48,0,5,,,,,,,,4,,,44,0
5448,note_on,48,0,2,,,,,,,,1,,,76,0
5460,note_on,12,0,2,,,,,,,,1,,,76,80
5460,note_on,12,0,5,,,,,,,,4,,,42,105
5460,note_on,12,0,4,,,,,,,,3,,,54,105
5472,note_on,192,0,1,,,,,,,,0,,,83,0
5496,note_on,96,0,6,,,,,,,,5,,,54,0
5496,note_on,96,0,3,,,,,,,,2,,,71,0
5508,note_on,48,0,5,,,,,,,,4,,,42,0
5508,note_on,48,0,4,,,,,,,,3,,,54,0
5508,note_on,48,0,2,,,,,,,,1,,,76,0
5520,note_on,12,0,2,,,,,,,,1,,,80,80
5520,note_on,12,0,4,,,,,,,,3,,,56,105
5520,note_on,12,0,5,,,,,,,,4,,,44,105
5520,note_on,48,0,1,,,,,,,,0,,,76,105
5520,note_on,24,0,3,,,,,,,,2,,,71,105
5520,note_on,24,0,6,,,,,,,,5,,,56,105
5568,note_on,48,0,2,,,,,,,,1,,,80,0
5580,note_on,12,0,2,,,,,,,,1,,,76,80
5616,note_on,96,0,5,,,,,,,,4,,,44,0
5616,note_on,96,0,4,,,,,,,,3,,,56,0
5616,note_on,96,0,6,,,,,,,,5,,,56,0
5616,note_on,96,0,3,,,,,,,,2,,,71,0
5628,note_on,48,0,2,,,,,,,,1,,,76,0
5640,note_on,12,0,2,,,,,,,,1,,,80,80
5640,note_on,24,0,6,,,,,,,,5,,,56,105
5640,note_on,24,0,5,,,,,,,,4,,,44,105
5640,note_on,24,0,3,,,,,,,,2,,,71,105
5640,note_on,24,0,4,,,,,,,,3,,,56,105
5664,note_on,24,0,6,,,,,,,,5,,,71,0
5664,note_on,0,0,6,,,,,,,,5,,,76,0
5688,note_on,48,0,2,,,,,,,,1,,,80,0
5700,note_on,12,0,2,,,,,,,,1,,,76,80
5712,note_on,192,0,1,,,,,,,,0,,,76,0
5736,note_on,72,0,6,,,,,,,,5,,,56,0
5736,note_on,96,0,5,,,,,,,,4,,,44,0
5736,note_on,96,0,4,,,,,,,,3,,,56,0
5736,note_on,96,0,3,,,,,,,,2,,,71,0
5748,note_on,48,0,2,,,,,,,,1,,,76,0
5760,note_on,24,0,5,,,,,,,,4,,,42,105
5760,note_on,24,0,3,,,,,,,,2,,,69,105
5760,note_on,0,0,6,,,,,,,,5,,,74,105
5760,note_on,0,0,6,,,,,,,,5,,,69,105
5760,note_on,24,0,6,,,,,,,,5,,,54,105
5760,note_on,12,0,2,,,,,,,,1,,,74,80
5760,note_on,24,0,4,,,,,,,,3,,,54,105
5820,note_on,108,0,1,,,,,,,,0,,,78,105
5856,note_on,96,0,5,,,,,,,,4,,,42,0
5856,note_on,96,0,6,,,,,,,,5,,,54,0
5856,note_on,96,0,3,,,,,,,,2,,,69,0
5856,note_on,96,0,4,,,,,,,,3,,,54,0
5868,note_on,48,0,1,,,,,,,,0,,,78,0
5880,note_on,24,0,4,,,,,,,,3,,,54,105
5880,note_on,24,0,5,,,,,,,,4,,,42,105
5880,note_on,12,0,1,,,,,,,,0,,,78,105
5880,note_on,24,0,3,,,,,,,,2,,,69,105
5880,note_on,24,0,6,,,,,,,,5,,,54,105
5928,note_on,48,0,1,,,,,,,,0,,,78,0
5940,note_on,12,0,1,,,,,,,,0,,,78,105
5952,note_on,0,0,6,,,,,,,,5,,,69,0
5952,note_on,72,0,6,,,,,,,,5,,,74,0
5952,note_on,192,0,2,,,,,,,,1,,,74,0
5976,note_on,96,0,3,,,,,,,,2,,,69,0
5976,note_on,96,0,5,,,,,,,,4,,,42,0
5976,note_on,24,0,6,,,,,,,,5,,,54,0
5976,note_on,96,0,4,,,,,,,,3,,,54,0
5988,note_on,48,0,1,,,,,,,,0,,,78,0
6000,note_on,24,0,4,,,,,,,,3,,,54,105
6000,note_on,12,0,1,,,,,,,,0,,,81,105
6000,note_on,24,0,3,,,,,,,,2,,,62,105
6000,note_on,24,0,5,,,,,,,,4,,,42,105
6000,note_on,24,0,6,,,,,,,,5,,,54,105
6000,note_on,48,0,2,,,,,,,,1,,,81,80
6000,note_on,0,0,6,,,,,,,,5,,,62,105
6048,note_on,48,0,1,,,,,,,,0,,,81,0
6060,note_on,12,0,1,,,,,,,,0,,,78,105
6096,note_on,96,0,6,,,,,,,,5,,,54,0
6096,note_on,96,0,3,,,,,,,,2,,,62,0
6096,note_on,96,0,4,,,,,,,,3,,,54,0
6096,note_on,96,0,5,,,,,,,,4,,,42,0
6108,note_on,48,0,1,,,,,,,,0,,,78,0
6120,note_on,12,0,1,,,,,,,,0,,,81,105
6120,note_on,24,0,5,,,,,,,,4,,,42,105
6120,note_on,24,0,3,,,,,,,,2,,,62,105
6120,note_on,24,0,6,,,,,,,,5,,,54,105
6120,note_on,24,0,4,,,,,,,,3,,,54,105
6168,note_on,48,0,1,,,,,,,,0,,,81,0
6180,note_on,12,0,1,,,,,,,,0,,,78,105
6192,note_on,192,0,2,,,,,,,,1,,,81,0
6192,note_on,72,0,6,,,,,,,,5,,,62,0
6216,note_on,96,0,5,,,,,,,,4,,,42,0
6216,note_on,96,0,3,,,,,,,,2,,,62,0
6216,note_on,96,0,4,,,,,,,,3,,,54,0
6216,note_on,24,0,6,,,,,,,,5,,,54,0
6228,note_on,48,0,1,,,,,,,,0,,,78,0
6240,note_on,24,0,4,,,,,,,,3,,,52,105
6240,note_on,0,0,6,,,,,,,,5,,,68,105
6240,note_on,0,0,6,,,,,,,,5,,,73,105
6240,note_on,24,0,5,,,,,,,,4,,,40,105
6240,note_on,24,0,6,,,,,,,,5,,,52,105
6240,note_on,24,0,3,,,,,,,,2,,,68,105
6240,note_on,12,0,1,,,,,,,,0,,,80,105
6300,note_on,108,0,2,,,,,,,,1,,,73,80
6336,note_on,96,0,3,,,,,,,,2,,,68,0
6336,note_on,96,0,4,,,,,,,,3,,,52,0
6336,note_on,96,0,6,,,,,,,,5,,,52,0
6336,note_on,96,0,5,,,,,,,,4,,,40,0
6348,note_on,48,0,2,,,,,,,,1,,,73,0
6360,note_on,24,0,3,,,,,,,,2,,,68,105
6360,note_on,24,0,4,,,,,,,,3,,,52,105
6360,note_on,24,0,6,,,,,,,,5,,,52,105
6360,note_on,24,0,5,,,,,,,,4,,,40,105
6360,note_on,12,0,2,,,,,,,,1,,,73,80
6408,note_on,48,0,5,,,,,,,,4,,,40,0
6408,note_on,48,0,2,,,,,,,,1,,,73,0
6408,note_on,48,0,6,,,,,,,,5,,,52,0
6408,note_on,48,0,4,,,,,,,,3,,,52,0
6420,note_on,12,0,5,,,,,,,,4,,,38,105
6420,note_on,12,0,6,,,,,,,,5,,,50,105
6420,note_on,12,0,4,,,,,,,,3,,,50,105
6420,note_on,12,0,2,,,,,,,,1,,,73,80
6432,note_on,192,0,1,,,,,,,,0,,,80,0
6456,note_on,96,0,3,,,,,,,,2,,,68,0
6468,note_on,48,0,2,,,,,,,,1,,,73,0
6468,note_on,48,0,6,,,,,,,,5,,,50,0
6468,note_on,48,0,4,,,,,,,,3,,,50,0
6468,note_on,48,0,5,,,,,,,,4,,,38,0
6480,note_on,12,0,5,,,,,,,,4,,,40,105
6480,note_on,24,0,3,,,,,,,,2,,,68,105
6480,note_on,12,0,6,,,,,,,,5,,,52,105
6480,note_on,12,0,4,,,,,,,,3,,,52,105
6480,note_on,48,0,1,,,,,,,,0,,,73,105
6480,note_on,12,0,2,,,,,,,,1,,,76,80
6528,note_on,48,0,2,,,,,,,,1,,,76,0
6540,note_on,12,0,2,,,,,,,,1,,,73,80
6576,note_on,96,0,4,,,,,,,,3,,,52,0
6576,note_on,96,0,5,,,,,,,,4,,,40,0
6576,note_on,96,0,6,,,,,,,,5,,,52,0
6576,note_on,96,0,3,,,,,,,,2,,,68,0
6588,note_on,48,0,2,,,,,,,,1,,,73,0
6600,note_on,24,0,6,,,,,,,,5,,,52,105
6600,note_on,24,0,4,,,,,,,,3,,,52,105
6600,note_on,24,0,5,,,,,,,,4,,,40,105
6600,note_on,12,0,2,,,,,,,,1,,,76,80
6600,note_on,24,0,3,,,,,,,,2,,,68,105
6624,note_on,24,0,6,,,,,,,,5,,,73,0
6624,note_on,0,0,6,,,,,,,,5,,,68,0
6648,note_on,48,0,2,,,,,,,,1,,,76,0
6660,note_on,12,0,2,,,,,,,,1,,,73,80
6672,note_on,192,0,1,,,,,,,,0,,,73,0
6696,note_on,96,0,3,,,,,,,,2,,,68,0
6696,note_on,96,0,5,,,,,,,,4,,,40,0
6696,note_on,72,0,6,,,,,,,,5,,,52,0
6696,note_on,96,0,4,,,,,,,,3,,,52,0
6708,note_on,48,0,2,,,,,,,,1,,,73,0
6720,note_on,0,0,6,,,,,,,,5,,,66,105
6720,note_on,0,0,6,,,,,,,,5,,,71,105
6720,note_on,24,0,4,,,,,,,,3,,,50,105
6720,note_on,24,0,3,,,,,,,,2,,,66,105
6720,note_on,24,0,5,,,,,,,,4,,,38,105
6720,note_on,24,0,6,,,,,,,,5,,,50,105
6720,note_on,12,0,2,,,,,,,,1,,,71,80
6780,note_on,108,0,1,,,,,,,,0,,,74,105
6816,note_on,96,0,3,,,,,,,,2,,,66,0
6816,note_on,96,0,5,,,,,,,,4,,,38,0
6816,note_on,96,0,4,,,,,,,,3,,,50,0
6816,note_on,96,0,6,,,,,,,,5,,,50,0
6828,note_on,48,0,1,,,,,,,,0,,,74,0
6840,note_on,24,0,4,,,,,,,,3,,,50,105
6840,note_on,24,0,3,,,,,,,,2,,,66,105
6840,note_on,24,0,6,,,,,,,,5,,,50,105
6840,note_on,12,0,1,,,,,,,,0,,,74,105
6840,note_on,24,0,5,,,,,,,,4,,,38,105
6888,note_on,48,0,1,,,,,,,,0,,,74,0
6900,note_on,12,0,1,,,,,,,,0,,,74,105
6912,note_on,192,0,2,,,,,,,,1,,,71,0
6912,note_on,72,0,6,,,,,,,,5,,,71,0
6912,note_on,0,0,6,,,,,,,,5,,,66,0
6936,note_on,96,0,5,,,,,,,,4,,,38,0
6936,note_on,96,0,4,,,,,,,,3,,,50,0
6936,note_on,24,0,6,,,,,,,,5,,,50,0
6936,note_on,96,0,3,,,,,,,,2,,,66,0
6948,note_on,48,0,1,,,,,,,,0,,,74,0
6960,note_on,0,0,6,,,,,,,,5,,,59,105
6960,note_on,12,0,1,,,,,,,,0,,,78,105
6960,note_on,24,0,6,,,,,,,,5,,,50,105
6960,note_on,24,0,5,,,,,,,,4,,,38,105
6960,note_on,24,0,4,,,,,,,,3,,,50,105
6960,note_on,24,0,3,,,,,,,,2,,,59,105
6960,note_on,48,0,2,,,,,,,,1,,,78,80
7008,note_on,48,0,1,,,,,,,,0,,,78,0
7020,note_on,12,0,1,,,,,,,,0,,,74,105
7056,note_on,96,0,3,,,,,,,,2,,,59,0
7056,note_on,96,0,5,,,,,,,,4,,,38,0
7056,note_on,96,0,6,,,,,,,,5,,,50,0
7056,note_on,96,0,4,,,,,,,,3,,,50,0
7068,note_on,48,0,1,,,,,,,,0,,,74,0
7080,note_on,24,0,4,,,,,,,,3,,,50,105
7080,note_on,24,0,3,,,,,,,,2,,,59,105
7080,note_on,24,0,6,,,,,,,,5,,,50,105
7080,note_on,12,0,1,,,,,,,,0,,,78,105
7080,note_on,24,0,5,,,,,,,,4,,,38,105
7128,note_on,48,0,1,,,,,,,,0,,,78,0
7140,note_on,12,0,1,,,,,,,,0,,,74,105
7152,note_on,72,0,6,,,,,,,,5,,,59,0
7152,note_on,192,0,2,,,,,,,,1,,,78,0
7176,note_on,96,0,4,,,,,,,,3,,,50,0
7176,note_on,96,0,3,,,,,,,,2,,,59,0
7176,note_on,24,0,6,,,,,,,,5,,,50,0
7176,note_on,96,0,5,,,,,,,,4,,,38,0
7188,note_on,48,0,1,,,,,,,,0,,,74,0
7200,note_on,24,0,3,,,,,,,,2,,,64,105
7200,note_on,24,0,4,,,,,,,,3,,,49,105
7200,note_on,12,0,1,,,,,,,,0,,,76,105
7200,note_on,24,0,5,,,,,,,,4,,,37,105
7200,note_on,24,0,6,,,,,,,,5,,,49,105
7200,note_on,0,0,6,,,,,,,,5,,,64,105
7200,note_on,0,0,6,,,,,,,,5,,,69,105
7260,note_on,108,0,2,,,,,,,,1,,,69,80
7296,note_on,96,0,4,,,,,,,,3,,,49,0
7296,note_on,96,0,5,,,,,,,,4,,,37,0
7296,note_on,96,0,6,,,,,,,,5,,,49,0
7296,note_on,96,0,3,,,,,,,,2,,,64,0
7308,note_on,48,0,2,,,,,,,,1,,,69,0
7320,note_on,12,0,2,,,,,,,,1,,,69,80
7320,note_on,24,0,6,,,,,,,,5,,,49,105
7320,note_on,24,0,3,,,,,,,,2,,,64,105
7320,note_on,24,0,4,,,,,,,,3,,,49,105
7320,note_on,24,0,5,,,,,,,,4,,,37,105
7368,note_on,48,0,2,,,,,,,,1,,,69,0
7380,note_on,12,0,2,,,,,,,,1,,,69,80
7392,note_on,192,0,1,,,,,,,,0,,,76,0
7416,note_on,96,0,6,,,,,,,,5,,,49,0
7416,note_on,96,0,5,,,,,,,,4,,,37,0
7416,note_on,96,0,3,,,,,,,,2,,,64,0
7416,note_on,96,0,4,,,,,,,,3,,,49,0
7428,note_on,48,0,2,,,,,,,,1,,,69,0
7440,note_on,12,0,2,,,,,,,,1,,,73,80
7440,note_on,48,0,1,,,,,,,,0,,,69,105
7440,note_on,24,0,4,,,,,,,,3,,,49,105
7440,note_on,24,0,6,,,,,,,,5,,,49,105
7440,note_on,24,0,3,,,,,,,,2,,,64,105
7440,note_on,24,0,5,,,,,,,,4,,,37,105
7488,note_on,48,0,2,,,,,,,,1,,,73,0
7488,note_on,48,0,6,,,,,,,,5,,,64,0
7500,note_on,12,0,2,,,,,,,,1,,,69,80
7536,note_on,48,0,6,,,,,,,,5,,,49,0
7536,note_on,96,0,5,,,,,,,,4,,,37,0
7536,note_on,96,0,3,,,,,,,,2,,,64,0
7536,note_on,96,0,1,,,,,,,,0,,,69,0
7536,note_on,96,0,4,,,,,,,,3,,,49,0
7548,note_on,48,0,2,,,,,,,,1,,,69,0
7560,note_on,24,0,5,,,,,,,,4,,,39,105
7560,note_on,24,0,1,,,,,,,,0,,,78,105
7560,note_on,24,0,4,,,,,,,,3,,,51,105
7560,note_on,24,0,3,,,,,,,,2,,,69,105
7560,note_on,0,0,6,,,,,,,,5,,,51,105
7560,note_on,24,0,6,,,,,,,,5,,,61,105
7560,note_on,12,0,2,,,,,,,,1,,,73,80
7584,note_on,24,0,6,,,,,,,,5,,,69,0
7608,note_on,48,0,2,,,,,,,,1,,,73,0
7620,note_on,12,0,2,,,,,,,,1,,,69,80
7656,note_on,72,0,6,,,,,,,,5,,,51,0
7656,note_on,96,0,5,,,,,,,,4,,,39,0
7656,note_on,0,0,6,,,,,,,,5,,,61,0
7656,note_on,96,0,1,,,,,,,,0,,,78,0
7656,note_on,96,0,3,,,,,,,,2,,,69,0
7656,note_on,96,0,4,,,,,,,,3,,,51,0
7668,note_on,48,0,2,,,,,,,,1,,,69,0
7680,note_on,12,0,2,,,,,,,,1,,,68,72
7680,note_on,0,0,6,,,,,,,,5,,,68,72
7680,note_on,0,0,6,,,,,,,,5,,,59,72
7680,note_on,24,0,3,,,,,,,,2,,,64,72
7680,note_on,24,0,1,,,,,,,,0,,,71,105
7680,note_on,24,0,6,,,,,,,,5,,,52,72
7680,note_on,24,0,5,,,,,,,,4,,,40,72
7680,note_on,24,0,4,,,,,,,,3,,,52,72
7776,note_on,96,0,1,,,,,,,,0,,,71,0
7776,note_on,96,0,2,,,,,,,,1,,,68,0
7800,note_on,24,0,1,,,,,,,,0,,,72,105
7800,note_on,24,0,2,,,,,,,,1,,,69,72
7848,note_on,48,0,2,,,,,,,,1,,,69,0
7848,note_on,48,0,1,,,,,,,,0,,,72,0
7860,note_on,12,0,2,,,,,,,,1,,,71,72
7860,note_on,12,0,1,,,,,,,,0,,,74,105
7872,note_on,0,0,6,,,,,,,,5,,,59,0
7872,note_on,192,0,6,,,,,,,,5,,,68,0
7908,note_on,48,0,1,,,,,,,,0,,,74,0
7908,note_on,48,0,2,,,,,,,,1,,,71,0
7920,note_on,12,0,2,,,,,,,,1,,,69,72
7920,note_on,48,0,6,,,,,,,,5,,,64,72
7920,note_on,12,0,1,,,,,,,,0,,,72,105
8016,note_on,96,0,2,,,,,,,,1,,,69,0
8016,note_on,96,0,1,,,,,,,,0,,,72,0
8040,note_on,24,0,2,,,,,,,,1,,,68,72
8040,note_on,24,0,1,,,,,,,,0,,,71,105
8064,note_on,144,0,6,,,,,,,,5,,,52,0
8064,note_on,384,0,5,,,,,,,,4,,,40,0
8064,note_on,384,0,4,,,,,,,,3,,,52,0
8112,note_on,48,0,6,,,,,,,,5,,,64,0
8136,note_on,96,0,2,,,,,,,,1,,,68,0
8136,note_on,96,0,1,,,,,,,,0,,,71,0
8160,note_on,0,0,6,,,,,,,,5,,,69,72
8160,note_on,96,0,4,,,,,,,,3,,,45,72
8160,note_on,0,0,6,,,,,,,,5,,,45,72
8160,note_on,48,0,6,,,,,,,,5,,,60,72
8160,note_on,24,0,1,,,,,,,,0,,,72,105
8160,note_on,96,0,5,,,,,,,,4,,,33,72
8160,note_on,24,0,2,,,,,,,,1,,,69,72
8256,note_on,96,0,6,,,,,,,,5,,,45,0
8256,note_on,96,0,1,,,,,,,,0,,,72,0
8256,note_on,576,0,3,,,,,,,,2,,,64,0
8256,note_on,96,0,5,,,,,,,,4,,,33,0
8256,note_on,0,0,6,,,,,,,,5,,,60,0
8256,note_on,96,0,4,,,,,,,,3,,,45,0
8256,note_on,96,0,2,,,,,,,,1,,,69,0
8280,note_on,24,0,6,,,,,,,,5,,,60,72
8280,note_on,24,0,1,,,,,,,,0,,,69,105
8280,note_on,0,0,6,,,,,,,,5,,,57,72
8280,note_on,24,0,4,,,,,,,,3,,,57,72
8280,note_on,24,0,2,,,,,,,,1,,,64,72
8280,note_on,24,0,3,,,,,,,,2,,,60,72
8280,note_on,24,0,5,,,,,,,,4,,,45,72
8328,note_on,48,0,4,,,,,,,,3,,,57,0
8328,note_on,48,0,6,,,,,,,,5,,,57,0
8328,note_on,0,0,6,,,,,,,,5,,,60,0
8328,note_on,48,0,5,,,,,,,,4,,,45,0
8340,note_on,12,0,6,,,,,,,,5,,,59,72
8340,note_on,12,0,4,,,,,,,,3,,,59,72
8340,note_on,12,0,5,,,,,,,,4,,,47,72
8340,note_on,0,0,6,,,,,,,,5,,,62,72
8376,note_on,96,0,3,,,,,,,,2,,,60,0
8388,note_on,48,0,4,,,,,,,,3,,,59,0
8388,note_on,48,0,6,,,,,,,,5,,,62,0
8388,note_on,48,0,5,,,,,,,,4,,,47,0
8388,note_on,0,0,6,,,,,,,,5,,,59,0
8400,note_on,24,0,3,,,,,,,,2,,,64,72
8400,note_on,12,0,6,,,,,,,,5,,,64,72
8400,note_on,12,0,4,,,,,,,,3,,,60,72
8400,note_on,0,0,6,,,,,,,,5,,,60,72
8400,note_on,12,0,5,,,,,,,,4,,,48,72
8472,note_on,192,0,2,,,,,,,,1,,,64,0
8472,note_on,192,0,1,,,,,,,,0,,,69,0
8496,note_on,0,0,6,,,,,,,,5,,,64,0
8496,note_on,96,0,6,,,,,,,,5,,,60,0
8496,note_on,96,0,4,,,,,,,,3,,,60,0
8496,note_on,96,0,5,,,,,,,,4,,,48,0
8496,note_on,96,0,3,,,,,,,,2,,,64,0
8520,note_on,48,0,1,,,,,,,,0,,,81,105
8520,note_on,48,0,2,,,,,,,,1,,,72,72
8520,note_on,24,0,3,,,,,,,,2,,,60,72
8520,note_on,24,0,6,,,,,,,,5,,,60,72
8520,note_on,0,0,6,,,,,,,,5,,,57,72
8520,note_on,24,0,4,,,,,,,,3,,,57,72
8520,note_on,24,0,5,,,,,,,,4,,,45,72
8544,note_on,24,0,6,,,,,,,,5,,,69,0
8616,note_on,96,0,4,,,,,,,,3,,,57,0
8616,note_on,96,0,3,,,,,,,,2,,,60,0
8616,note_on,96,0,1,,,,,,,,0,,,81,0
8616,note_on,96,0,5,,,,,,,,4,,,45,0
8616,note_on,72,0,6,,,,,,,,5,,,57,0
8616,note_on,96,0,2,,,,,,,,1,,,72,0
8616,note_on,0,0,6,,,,,,,,5,,,60,0
8640,note_on,24,0,5,,,,,,,,4,,,40,72
8640,note_on,24,0,6,,,,,,,,5,,,52,72
8640,note_on,24,0,4,,,,,,,,3,,,52,72
8640,note_on,24,0,3,,,,,,,,2,,,64,72
8640,note_on,24,0,1,,,,,,,,0,,,71,105
8640,note_on,24,0,2,,,,,,,,1,,,68,72
8640,note_on,0,0,6,,,,,,,,5,,,68,72
8640,note_on,0,0,6,,,,,,,,5,,,59,72
8736,note_on,96,0,1,,,,,,,,0,,,71,0
8736,note_on,96,0,2,,,,,,,,1,,,68,0
8760,note_on,24,0,1,,,,,,,,0,,,72,105
8760,note_on,24,0,2,,,,,,,,1,,,69,72
8808,note_on,48,0,1,,,,,,,,0,,,72,0
8808,note_on,48,0,2,,,,,,,,1,,,69,0
8820,note_on,12,0,1,,,,,,,,0,,,74,105
8820,note_on,12,0,2,,,,,,,,1,,,71,72
8832,note_on,0,0,6,,,,,,,,5,,,68,0
8832,note_on,192,0,6,,,,,,,,5,,,59,0
8868,note_on,48,0,2,,,,,,,,1,,,71,0
8868,note_on,48,0,1,,,,,,,,0,,,74,0
8880,note_on,12,0,2,,,,,,,,1,,,69,72
8880,note_on,12,0,1,,,,,,,,0,,,72,105
8880,note_on,48,0,6,,,,,,,,5,,,64,72
8976,note_on,96,0,1,,,,,,,,0,,,72,0
8976,note_on,96,0,2,,,,,,,,1,,,69,0
9000,note_on,24,0,1,,,,,,,,0,,,71,105
9000,note_on,24,0,2,,,,,,,,1,,,68,72
9024,note_on,144,0,6,,,,,,,,5,,,52,0
9024,note_on,384,0,5,,,,,,,,4,,,40,0
9024,note_on,384,0,4,,,,,,,,3,,,52,0
9072,note_on,48,0,6,,,,,,,,5,,,64,0
9096,note_on,96,0,2,,,,,,,,1,,,68,0
9096,note_on,96,0,1,,,,,,,,0,,,71,0
9120,note_on,96,0,4,,,,,,,,3,,,45,72
9120,note_on,48,0,6,,,,,,,,5,,,69,72
9120,note_on,0,0,6,,,,,,,,5,,,60,72
9120,note_on,0,0,6,,,,,,,,5,,,45,72
9120,note_on,96,0,5,,,,,,,,4,,,33,72
9120,note_on,24,0,2,,,,,,,,1,,,69,72
9120,note_on,24,0,1,,,,,,,,0,,,72,105
9216,note_on,96,0,2,,,,,,,,1,,,69,0
9216,note_on,96,0,5,,,,,,,,4,,,33,0
9216,note_on,96,0,4,,,,,,,,3,,,45,0
9216,note_on,96,0,1,,,,,,,,0,,,72,0
9216,note_on,96,0,6,,,,,,,,5,,,45,0
9216,note_on,0,0,6,,,,,,,,5,,,60,0
9216,note_on,576,0,3,,,,,,,,2,,,64,0
9240,note_on,24,0,2,,,,,,,,1,,,64,72
9240,note_on,24,0,3,,,,,,,,2,,,60,72
9240,note_on,24,0,1,,,,,,,,0,,,69,105
9240,note_on,24,0,5,,,,,,,,4,,,45,72
9240,note_on,24,0,4,,,,,,,,3,,,57,72
9240,note_on,0,0,6,,,,,,,,5,,,60,72
9240,note_on,24,0,6,,,,,,,,5,,,57,72
9288,note_on,48,0,5,,,,,,,,4,,,45,0
9288,note_on,0,0,6,,,,,,,,5,,,57,0
9288,note_on,48,0,6,,,,,,,,5,,,60,0
9288,note_on,48,0,4,,,,,,,,3,,,57,0
9300,note_on,0,0,6,,,,,,,,5,,,59,72
9300,note_on,12,0,5,,,,,,,,4,,,47,72
9300,note_on,12,0,6,,,,,,,,5,,,62,72
9300,note_on,12,0,4,,,,,,,,3,,,59,72
9336,note_on,96,0,3,,,,,,,,2,,,60,0
9348,note_on,48,0,6,,,,,,,,5,,,59,0
9348,note_on,0,0,6,,,,,,,,5,,,62,0
9348,note_on,48,0,4,,,,,,,,3,,,59,0
9348,note_on,48,0,5,,,,,,,,4,,,47,0
9360,note_on,24,0,3,,,,,,,,2,,,64,72
9360,note_on,12,0,4,,,,,,,,3,,,60,72
9360,note_on,12,0,6,,,,,,,,5,,,64,72
9360,note_on,12,0,5,,,,,,,,4,,,48,72
9360,note_on,0,0,6,,,,,,,,5,,,60,72
9432,note_on,192,0,1,,,,,,,,0,,,69,0
9432,note_on,192,0,2,,,,,,,,1,,,64,0
9456,note_on,96,0,3,,,,,,,,2,,,64,0
9456,note_on,96,0,5,,,,,,,,4,,,48,0
9456,note_on,0,0,6,,,,,,,,5,,,64,0
9456,note_on,96,0,4,,,,,,,,3,,,60,0
9456,note_on,96,0,6,,,,,,,,5,,,60,0
9480,note_on,48,0,2,,,,,,,,1,,,81,72
9480,note_on,48,0,1,,,,,,,,0,,,81,105
9480,note_on,0,0,6,,,,,,,,5,,,57,72
9480,note_on,24,0,5,,,,,,,,4,,,45,72
9480,note_on,24,0,4,,,,,,,,3,,,57,72
9480,note_on,24,0,3,,,,,,,,2,,,60,72
9480,note_on,24,0,6,,,,,,,,5,,,60,72
9504,note_on,24,0,6,,,,,,,,5,,,69,0
9576,note_on,96,0,4,,,,,,,,3,,,57,0
9576,note_on,96,0,3,,,,,,,,2,,,60,0
9576,note_on,96,0,5,,,,,,,,4,,,45,0
9576,note_on,0,0,6,,,,,,,,5,,,60,0
9576,note_on,72,0,6,,,,,,,,5,,,57,0
9576,note_on,96,0,1,,,,,,,,0,,,81,0
9576,note_on,96,0,2,,,,,,,,1,,,81,0
9600,note_on,0,0,6,,,,,,,,5,,,59,72
9600,note_on,0,0,6,,,,,,,,5,,,52,72
9600,note_on,24,0,4,,,,,,,,3,,,52,72
9600,note_on,24,0,6,,,,,,,,5,,,68,72
9600,note_on,24,0,5,,,,,,,,4,,,40,72
9600,note_on,24,0,1,,,,,,,,0,,,80,105
9600,note_on,24,0,3,,,,,,,,2,,,68,72
9600,note_on,24,0,2,,,,,,,,1,,,80,72
9624,note_on,24,0,2,,,,,,,,1,,,80,0
9624,note_on,24,0,1,,,,,,,,0,,,80,0
9630,note_on,6,0,2,,,,,,,,1,,,81,72
9630,note_on,6,0,1,,,,,,,,0,,,81,105
9654,note_on,24,0,2,,,,,,,,1,,,81,0
9654,note_on,24,0,1,,,,,,,,0,,,81,0
9660,note_on,6,0,1,,,,,,,,0,,,83,105
9660,note_on,6,0,2,,,,,,,,1,,,83,72
9696,note_on,0,0,6,,,,,,,,5,,,52,0
9696,note_on,96,0,6,,,,,,,,5,,,59,0
9696,note_on,96,0,4,,,,,,,,3,,,52,0
9696,note_on,96,0,3,,,,,,,,2,,,68,0
9696,note_on,96,0,5,,,,,,,,4,,,40,0
9696,note_on,0,0,6,,,,,,,,5,,,68,0
9720,note_on,0,0,6,,,,,,,,5,,,69,72
9720,note_on,0,0,6,,,,,,,,5,,,60,72
9720,note_on,24,0,5,,,,,,,,4,,,45,72
9720,note_on,24,0,4,,,,,,,,3,,,57,72
9720,note_on,24,0,6,,,,,,,,5,,,57,72
9720,note_on,24,0,3,,,,,,,,2,,,64,72
9732,note_on,72,0,2,,,,,,,,1,,,83,0
9732,note_on,72,0,1,,,,,,,,0,,,83,0
9750,note_on,18,0,1,,,,,,,,0,,,81,105
9750,note_on,18,0,2,,,,,,,,1,,,81,72
9816,note_on,96,0,6,,,,,,,,5,,,60,0
9816,note_on,0,0,6,,,,,,,,5,,,69,0
9816,note_on,0,0,6,,,,,,,,5,,,57,0
9816,note_on,96,0,5,,,,,,,,4,,,45,0
9816,note_on,96,0,3,,,,,,,,2,,,64,0
9816,note_on,96,0,4,,,,,,,,3,,,57,0
9822,note_on,72,0,1,,,,,,,,0,,,81,0
9822,note_on,72,0,2,,,,,,,,1,,,81,0
9840,note_on,24,0,6,,,,,,,,5,,,52,72
9840,note_on,18,0,2,,,,,,,,1,,,80,72
9840,note_on,24,0,5,,,,,,,,4,,,40,72
9840,note_on,0,0,6,,,,,,,,5,,,68,72
9840,note_on,24,0,4,,,,,,,,3,,,52,72
9840,note_on,24,0,3,,,,,,,,2,,,68,72
9840,note_on,18,0,1,,,,,,,,0,,,80,105
9840,note_on,0,0,6,,,,,,,,5,,,59,72
9864,note_on,24,0,2,,,,,,,,1,,,80,0
9864,note_on,24,0,1,,,,,,,,0,,,80,0
9870,note_on,6,0,2,,,,,,,,1,,,81,72
9870,note_on,6,0,1,,,,,,,,0,,,81,105
9894,note_on,24,0,2,,,,,,,,1,,,81,0
9894,note_on,24,0,1,,,,,,,,0,,,81,0
9900,note_on,6,0,2,,,,,,,,1,,,83,72
9900,note_on,6,0,1,,,,,,,,0,,,83,105
9936,note_on,96,0,3,,,,,,,,2,,,68,0
9936,note_on,96,0,4,,,,,,,,3,,,52,0
9936,note_on,96,0,5,,,,,,,,4,,,40,0
9936,note_on,96,0,6,,,,,,,,5,,,59,0
9936,note_on,0,0,6,,,,,,,,5,,,68,0
9936,note_on,0,0,6,,,,,,,,5,,,52,0
9960,note_on,24,0,5,,,,,,,,4,,,45,72
9960,note_on,24,0,6,,,,,,,,5,,,57,72
9960,note_on,0,0,6,,,,,,,,5,,,69,72
9960,note_on,24,0,4,,,,,,,,3,,,57,72
9960,note_on,24,0,3,,,,,,,,2,,,64,72
9960,note_on,0,0,6,,,,,,,,5,,,60,72
9972,note_on,72,0,1,,,,,,,,0,,,83,0
9972,note_on,72,0,2,,,,,,,,1,,,83,0
9990,note_on,18,0,1,,,,,,,,0,,,81,105
9990,note_on,18,0,2,,,,,,,,1,,,81,72
10056,note_on,96,0,5,,,,,,,,4,,,45,0
10056,note_on,96,0,3,,,,,,,,2,,,64,0
10056,note_on,0,0,6,,,,,,,,5,,,69,0
10056,note_on,0,0,6,,,,,,,,5,,,57,0
10056,note_on,96,0,6,,,,,,,,5,,,60,0
10056,note_on,96,0,4,,,,,,,,3,,,57,0
10062,note_on,72,0,1,,,,,,,,0,,,81,0
10062,note_on,72,0,2,,,,,,,,1,,,81,0
10080,note_on,24,0,5,,,,,,,,4,,,40,72
10080,note_on,0,0,6,,,,,,,,5,,,62,72
10080,note_on,0,0,6,,,,,,,,5,,,52,72
10080,note_on,24,0,6,,,,,,,,5,,,71,72
10080,note_on,24,0,4,,,,,,,,3,,,52,72
10080,note_on,18,0,2,,,,,,,,1,,,74,72
10080,note_on,18,0,1,,,,,,,,0,,,74,105
10080,note_on,24,0,3,,,,,,,,2,,,68,72
10128,note_on,48,0,2,,,,,,,,1,,,74,0
10128,note_on,48,0,1,,,,,,,,0,,,74,0
10140,note_on,12,0,2,,,,,,,,1,,,73,72
10140,note_on,12,0,1,,,,,,,,0,,,73,105
10188,note_on,48,0,2,,,,,,,,1,,,73,0
10188,note_on,48,0,1,,,,,,,,0,,,73,0
10200,note_on,12,0,2,,,,,,,,1,,,74,72
10200,note_on,12,0,1,,,,,,,,0,,,74,105
10248,note_on,48,0,2,,,,,,,,1,,,74,0
10248,note_on,48,0,1,,,,,,,,0,,,74,0
10260,note_on,12,0,2,,,,,,,,1,,,73,72
10260,note_on,12,0,1,,,,,,,,0,,,73,105
10308,note_on,48,0,1,,,,,,,,0,,,73,0
10308,note_on,48,0,2,,,,,,,,1,,,73,0
10320,note_on,12,0,1,,,,,,,,0,,,74,105
10320,note_on,12,0,2,,,,,,,,1,,,74,72
10368,note_on,288,0,4,,,,,,,,3,,,52,0
10368,note_on,288,0,5,,,,,,,,4,,,40,0
10368,note_on,288,0,3,,,,,,,,2,,,68,0
10368,note_on,0,0,6,,,,,,,,5,,,52,0
10368,note_on,288,0,6,,,,,,,,5,,,62,0
10368,note_on,0,0,6,,,,,,,,5,,,71,0
10380,note_on,12,0,6,,,,,,,,5,,,60,72
10380,note_on,0,0,6,,,,,,,,5,,,64,72
10380,note_on,12,0,5,,,,,,,,4,,,48,72
10380,note_on,12,0,4,,,,,,,,3,,,60,72
10416,note_on,96,0,1,,,,,,,,0,,,74,0
10416,note_on,96,0,2,,,,,,,,1,,,74,0
10428,note_on,48,0,5,,,,,,,,4,,,48,0
10428,note_on,48,0,6,,,,,,,,5,,,64,0
10428,note_on,0,0,6,,,,,,,,5,,,60,0
10428,note_on,48,0,4,,,,,,,,3,,,60,0
10440,note_on,12,0,4,,,,,,,,3,,,59,72
10440,note_on,12,0,6,,,,,,,,5,,,62,72
10440,note_on,0,0,6,,,,,,,,5,,,59,72
10440,note_on,24,0,1,,,,,,,,0,,,81,105
10440,note_on,24,0,2,,,,,,,,1,,,81,72
10440,note_on,72,0,3,,,,,,,,2,,,72,72
10440,note_on,12,0,5,,,,,,,,4,,,47,72
10488,note_on,0,0,6,,,,,,,,5,,,62,0
10488,note_on,48,0,5,,,,,,,,4,,,47,0
10488,note_on,48,0,6,,,,,,,,5,,,59,0
10488,note_on,48,0,4,,,,,,,,3,,,59,0
10500,note_on,12,0,6,,,,,,,,5,,,57,72
10500,note_on,0,0,6,,,,,,,,5,,,60,72
10500,note_on,12,0,5,,,,,,,,4,,,45,72
10500,note_on,12,0,4,,,,,,,,3,,,57,72
10536,note_on,96,0,2,,,,,,,,1,,,81,0
10536,note_on,96,0,3,,,,,,,,2,,,72,0
10536,note_on,96,0,1,,,,,,,,0,,,81,0
10548,note_on,48,0,5,,,,,,,,4,,,45,0
10548,note_on,48,0,4,,,,,,,,3,,,57,0
10548,note_on,48,0,6,,,,,,,,5,,,60,0
10548,note_on,0,0,6,,,,,,,,5,,,57,0
10560,note_on,12,0,5,,,,,,,,4,,,40,72
10560,note_on,24,0,1,,,,,,,,0,,,80,105
10560,note_on,24,0,2,,,,,,,,1,,,80,72
10560,note_on,12,0,4,,,,,,,,3,,,52,72
10560,note_on,12,0,6,,,,,,,,5,,,52,72
10560,note_on,0,0,6,,,,,,,,5,,,59,72
10560,note_on,24,0,3,,,,,,,,2,,,68,72
10560,note_on,0,0,6,,,,,,,,5,,,68,72
10584,note_on,24,0,2,,,,,,,,1,,,80,0
10584,note_on,24,0,1,,,,,,,,0,,,80,0
10590,note_on,6,0,2,,,,,,,,1,,,81,72
10590,note_on,6,0,1,,,,,,,,0,,,81,105
10614,note_on,24,0,2,,,,,,,,1,,,81,0
10614,note_on,24,0,1,,,,,,,,0,,,81,0
10620,note_on,6,0,2,,,,,,,,1,,,83,72
10620,note_on,6,0,1,,,,,,,,0,,,83,105
10656,note_on,96,0,3,,,,,,,,2,,,68,0
10656,note_on,96,0,4,,,,,,,,3,,,52,0
10656,note_on,96,0,6,,,,,,,,5,,,68,0
10656,note_on,0,0,6,,,,,,,,5,,,59,0
10656,note_on,0,0,6,,,,,,,,5,,,52,0
10656,note_on,96,0,5,,,,,,,,4,,,40,0
10680,note_on,24,0,3,,,,,,,,2,,,64,72
10680,note_on,24,0,6,,,,,,,,5,,,61,72
10680,note_on,0,0,6,,,,,,,,5,,,57,72
10680,note_on,24,0,4,,,,,,,,3,,,57,72
10680,note_on,24,0,5,,,,,,,,4,,,45,72
10680,note_on,0,0,6,,,,,,,,5,,,69,72
10692,note_on,72,0,2,,,,,,,,1,,,83,0
10692,note_on,72,0,1,,,,,,,,0,,,83,0
10710,note_on,18,0,1,,,,,,,,0,,,81,105
10710,note_on,18,0,2,,,,,,,,1,,,81,72
10776,note_on,96,0,4,,,,,,,,3,,,57,0
10776,note_on,96,0,5,,,,,,,,4,,,45,0
10776,note_on,0,0,6,,,,,,,,5,,,61,0
10776,note_on,0,0,6,,,,,,,,5,,,57,0
10776,note_on,96,0,6,,,,,,,,5,,,69,0
10776,note_on,96,0,3,,,,,,,,2,,,64,0
10782,note_on,72,0,2,,,,,,,,1,,,81,0
10782,note_on,72,0,1,,,,,,,,0,,,81,0
10800,note_on,24,0,5,,,,,,,,4,,,40,72
10800,note_on,24,0,3,,,,,,,,2,,,68,72
10800,note_on,0,0,6,,,,,,,,5,,,68,72
10800,note_on,0,0,6,,,,,,,,5,,,52,72
10800,note_on,24,0,6,,,,,,,,5,,,59,72
10800,note_on,18,0,2,,,,,,,,1,,,80,72
10800,note_on,24,0,4,,,,,,,,3,,,52,72
10800,note_on,18,0,1,,,,,,,,0,,,80,105
10824,note_on,24,0,2,,,,,,,,1,,,80,0
10824,note_on,24,0,1,,,,,,,,0,,,80,0
10830,note_on,6,0,2,,,,,,,,1,,,81,72
10830,note_on,6,0,1,,,,,,,,0,,,81,105
10854,note_on,24,0,2,,,,,,,,1,,,81,0
10854,note_on,24,0,1,,,,,,,,0,,,81,0
10860,note_on,6,0,2,,,,,,,,1,,,83,72
10860,note_on,6,0,1,,,,,,,,0,,,83,105
10896,note_on,0,0,6,,,,,,,,5,,,52,0
10896,note_on,0,0,6,,,,,,,,5,,,59,0
10896,note_on,96,0,4,,,,,,,,3,,,52,0
10896,note_on,96,0,5,,,,,,,,4,,,40,0
10896,note_on,96,0,6,,,,,,,,5,,,68,0
10896,note_on,96,0,3,,,,,,,,2,,,68,0
10920,note_on,0,0,6,,,,,,,,5,,,61,72
10920,note_on,24,0,6,,,,,,,,5,,,57,72
10920,note_on,24,0,5,,,,,,,,4,,,45,72
10920,note_on,24,0,3,,,,,,,,2,,,64,72
10920,note_on,24,0,4,,,,,,,,3,,,57,72
10920,note_on,0,0,6,,,,,,,,5,,,69,72
10932,note_on,72,0,1,,,,,,,,0,,,83,0
10932,note_on,72,0,2,,,,,,,,1,,,83,0
10950,note_on,18,0,1,,,,,,,,0,,,81,105
10950,note_on,18,0,2,,,,,,,,1,,,81,72
11016,note_on,0,0,6,,,,,,,,5,,,61,0
11016,note_on,96,0,3,,,,,,,,2,,,64,0
11016,note_on,96,0,5,,,,,,,,4,,,45,0
11016,note_on,0,0,6,,,,,,,,5,,,57,0
11016,note_on,96,0,4,,,,,,,,3,,,57,0
11016,note_on,96,0,6,,,,,,,,5,,,69,0
11022,note_on,72,0,2,,,,,,,,1,,,81,0
11022,note_on,72,0,1,,,,,,,,0,,,81,0
11040,note_on,24,0,6,,,,,,,,5,,,45,72
11040,note_on,24,0,5,,,,,,,,4,,,33,72
11040,note_on,18,0,1,,,,,,,,0,,,74,105
11040,note_on,24,0,3,,,,,,,,2,,,64,72
11040,note_on,24,0,4,,,,,,,,3,,,45,72
11040,note_on,18,0,2,,,,,,,,1,,,74,72
11088,note_on,48,0,1,,,,,,,,0,,,74,0
11088,note_on,48,0,2,,,,,,,,1,,,74,0
11100,note_on,60,0,6,,,,,,,,5,,,64,72
11100,note_on,12,0,1,,,,,,,,0,,,73,105
11100,note_on,12,0,2,,,,,,,,1,,,73,72
11148,note_on,48,0,1,,,,,,,,0,,,73,0
11148,note_on,48,0,2,,,,,,,,1,,,73,0
11148,note_on,48,0,6,,,,,,,,5,,,64,0
11160,note_on,12,0,1,,,,,,,,0,,,74,105
11160,note_on,12,0,2,,,,,,,,1,,,74,72
11160,note_on,12,0,6,,,,,,,,5,,,66,72
11208,note_on,48,0,1,,,,,,,,0,,,74,0
11208,note_on,48,0,2,,,,,,,,1,,,74,0
11208,note_on,48,0,6,,,,,,,,5,,,66,0
11220,note_on,12,0,1,,,,,,,,0,,,73,105
11220,note_on,12,0,2,,,,,,,,1,,,73,72
11220,note_on,12,0,6,,,,,,,,5,,,68,105
11268,note_on,48,0,6,,,,,,,,5,,,68,0
11268,note_on,48,0,1,,,,,,,,0,,,73,0
11268,note_on,48,0,2,,,,,,,,1,,,73,0
11280,note_on,12,0,1,,,,,,,,0,,,74,105
11280,note_on,0,0,6,,,,,,,,5,,,69,105
11280,note_on,12,0,2,,,,,,,,1,,,74,72
11280,note_on,12,0,6,,,,,,,,5,,,64,105
11328,note_on,288,0,4,,,,,,,,3,,,45,0
11328,note_on,288,0,5,,,,,,,,4,,,33,0
11328,note_on,48,0,6,,,,,,,,5,,,45,0
11328,note_on,288,0,3,,,,,,,,2,,,64,0
11376,note_on,96,0,2,,,,,,,,1,,,74,0
11376,note_on,96,0,1,,,,,,,,0,,,74,0
11400,note_on,72,0,5,,,,,,,,4,,,49,105
11400,note_on,24,0,2,,,,,,,,1,,,81,105
11400,note_on,24,0,1,,,,,,,,0,,,81,105
11400,note_on,72,0,3,,,,,,,,2,,,64,105
11400,note_on,72,0,4,,,,,,,,3,,,61,105
11400,note_on,72,0,6,,,,,,,,5,,,61,105
11448,note_on,48,0,5,,,,,,,,4,,,49,0
11448,note_on,48,0,6,,,,,,,,5,,,61,0
11448,note_on,48,0,4,,,,,,,,3,,,61,0
11460,note_on,12,0,4,,,,,,,,3,,,62,105
11460,note_on,12,0,6,,,,,,,,5,,,62,105
11460,note_on,12,0,5,,,,,,,,4,,,50,105
11472,note_on,12,0,6,,,,,,,,5,,,69,0
11496,note_on,96,0,1,,,,,,,,0,,,81,0
11496,note_on,96,0,3,,,,,,,,2,,,64,0
11496,note_on,96,0,2,,,,,,,,1,,,81,0
11508,note_on,36,0,6,,,,,,,,5,,,62,0
11508,note_on,48,0,5,,,,,,,,4,,,50,0
11508,note_on,48,0,4,,,,,,,,3,,,62,0
11520,note_on,24,0,2,,,,,,,,1,,,80,105
11520,note_on,12,0,5,,,,,,,,4,,,52,105
11520,note_on,24,0,3,,,,,,,,2,,,71,105
11520,note_on,12,0,6,,,,,,,,5,,,64,105
11520,note_on,0,0,6,,,,,,,,5,,,68,105
11520,note_on,24,0,1,,,,,,,,0,,,80,105
11520,note_on,12,0,4,,,,,,,,3,,,64,105
11568,note_on,48,0,1,,,,,,,,0,,,80,0
11568,note_on,48,0,2,,,,,,,,1,,,80,0
11580,note_on,12,0,2,,,,,,,,1,,,78,105
11580,note_on,12,0,1,,,,,,,,0,,,78,105
11616,note_on,96,0,6,,,,,,,,5,,,68,0
11616,note_on,0,0,6,,,,,,,,5,,,64,0
11616,note_on,96,0,4,,,,,,,,3,,,64,0
11616,note_on,96,0,5,,,,,,,,4,,,52,0
11616,note_on,96,0,3,,,,,,,,2,,,71,0
11616,note_on,0,0,6,,,,,,,,5,,,64,0
11628,note_on,48,0,2,,,,,,,,1,,,78,0
11628,note_on,48,0,1,,,,,,,,0,,,78,0
11640,note_on,12,0,2,,,,,,,,1,,,76,105
11640,note_on,24,0,3,,,,,,,,2,,,68,105
11640,note_on,24,0,5,,,,,,,,4,,,40,105
11640,note_on,24,0,6,,,,,,,,5,,,68,105
11640,note_on,0,0,6,,,,,,,,5,,,52,105
11640,note_on,24,0,4,,,,,,,,3,,,52,105
11640,note_on,12,0,1,,,,,,,,0,,,76,105
11640,note_on,0,0,6,,,,,,,,5,,,71,105
11688,note_on,48,0,2,,,,,,,,1,,,76,0
11688,note_on,48,0,1,,,,,,,,0,,,76,0
11700,note_on,12,0,2,,,,,,,,1,,,78,105
11700,note_on,12,0,1,,,,,,,,0,,,78,105
11736,note_on,96,0,4,,,,,,,,3,,,52,0
11736,note_on,96,0,5,,,,,,,,4,,,40,0
11736,note_on,0,0,6,,,,,,,,5,,,52,0
11736,note_on,96,0,6,,,,,,,,5,,,71,0
11736,note_on,0,0,6,,,,,,,,5,,,68,0
11736,note_on,96,0,3,,,,,,,,2,,,68,0
11748,note_on,48,0,2,,,,,,,,1,,,78,0
11748,note_on,48,0,1,,,,,,,,0,,,78,0
11760,note_on,24,0,4,,,,,,,,3,,,52,105
11760,note_on,12,0,2,,,,,,,,1,,,76,105
11760,note_on,12,0,1,,,,,,,,0,,,76,105
11760,note_on,0,0,6,,,,,,,,5,,,71,116
11760,note_on,24,0,3,,,,,,,,2,,,68,105
11760,note_on,24,0,6,,,,,,,,5,,,52,105
11760,note_on,0,0,6,,,,,,,,5,,,68,105
11760,note_on,24,0,5,,,,,,,,4,,,40,105
11808,note_on,48,0,2,,,,,,,,1,,,76,0
11808,note_on,48,0,1,,,,,,,,0,,,76,0
11820,note_on,12,0,1,,,,,,,,0,,,74,105
11820,note_on,12,0,2,,,,,,,,1,,,74,105
11856,note_on,96,0,6,,,,,,,,5,,,71,0
11856,note_on,96,0,3,,,,,,,,2,,,68,0
11856,note_on,0,0,6,,,,,,,,5,,,68,0
11856,note_on,96,0,4,,,,,,,,3,,,52,0
11856,note_on,0,0,6,,,,,,,,5,,,52,0
11856,note_on,96,0,5,,,,,,,,4,,,40,0
11868,note_on,48,0,1,,,,,,,,0,,,74,0
11868,note_on,48,0,2,,,,,,,,1,,,74,0
11880,note_on,24,0,6,,,,,,,,5,,,64,116
11880,note_on,24,0,3,,,,,,,,2,,,64,105
11880,note_on,24,0,4,,,,,,,,3,,,56,105
11880,note_on,0,0,6,,,,,,,,5,,,56,116
11880,note_on,0,0,6,,,,,,,,5,,,71,116
11880,note_on,12,0,1,,,,,,,,0,,,73,105
11880,note_on,24,0,5,,,,,,,,4,,,44,105
11880,note_on,12,0,2,,,,,,,,1,,,73,105
11928,note_on,48,0,1,,,,,,,,0,,,73,0
11928,note_on,48,0,2,,,,,,,,1,,,73,0
11940,note_on,12,0,1,,,,,,,,0,,,74,105
11940,note_on,12,0,2,,,,,,,,1,,,74,105
11976,note_on,96,0,6,,,,,,,,5,,,71,0
11976,note_on,96,0,3,,,,,,,,2,,,64,0
11976,note_on,0,0,6,,,,,,,,5,,,56,0
11976,note_on,0,0,6,,,,,,,,5,,,64,0
11976,note_on,96,0,4,,,,,,,,3,,,56,0
11976,note_on,96,0,5,,,,,,,,4,,,44,0
11988,note_on,48,0,1,,,,,,,,0,,,74,0
11988,note_on,48,0,2,,,,,,,,1,,,74,0
12000,note_on,12,0,2,,,,,,,,1,,,73,105
12000,note_on,24,0,6,,,,,,,,5,,,57,116
12000,note_on,24,0,3,,,,,,,,2,,,64,105
12000,note_on,0,0,6,,,,,,,,5,,,73,116
12000,note_on,24,0,4,,,,,,,,3,,,57,105
12000,note_on,12,0,1,,,,,,,,0,,,73,105
12000,note_on,24,0,5,,,,,,,,4,,,45,105
12000,note_on,0,0,6,,,,,,,,5,,,64,116
12048,note_on,48,0,2,,,,,,,,1,,,73,0
12048,note_on,48,0,4,,,,,,,,3,,,57,0
12048,note_on,48,0,5,,,,,,,,4,,,45,0
12048,note_on,48,0,6,,,,,,,,5,,,73,0
12048,note_on,0,0,6,,,,,,,,5,,,57,0
12048,note_on,48,0,1,,,,,,,,0,,,73,0
12060,note_on,12,0,6,,,,,,,,5,,,56,116
12060,note_on,12,0,2,,,,,,,,1,,,71,105
12060,note_on,0,0,6,,,,,,,,5,,,71,116
12060,note_on,12,0,4,,,,,,,,3,,,56,116
12060,note_on,12,0,1,,,,,,,,0,,,71,105
12060,note_on,12,0,5,,,,,,,,4,,,44,116
12108,note_on,48,0,2,,,,,,,,1,,,71,0
12108,note_on,48,0,4,,,,,,,,3,,,56,0
12108,note_on,0,0,6,,,,,,,,5,,,56,0
12108,note_on,48,0,5,,,,,,,,4,,,44,0
12108,note_on,48,0,6,,,,,,,,5,,,71,0
12108,note_on,48,0,1,,,,,,,,0,,,71,0
12120,note_on,12,0,5,,,,,,,,4,,,45,116
12120,note_on,12,0,1,,,,,,,,0,,,69,105
12120,note_on,0,0,6,,,,,,,,5,,,57,116
12120,note_on,12,0,2,,,,,,,,1,,,69,105
12120,note_on,12,0,4,,,,,,,,3,,,57,116
12120,note_on,12,0,6,,,,,,,,5,,,73,116
12168,note_on,48,0,5,,,,,,,,4,,,45,0
12168,note_on,0,0,6,,,,,,,,5,,,73,0
12168,note_on,48,0,6,,,,,,,,5,,,57,0
12168,note_on,48,0,4,,,,,,,,3,,,57,0
12180,note_on,12,0,6,,,,,,,,5,,,59,116
12180,note_on,12,0,4,,,,,,,,3,,,59,116
12180,note_on,0,0,6,,,,,,,,5,,,74,116
12180,note_on,12,0,5,,,,,,,,4,,,47,116
12192,note_on,12,0,6,,,,,,,,5,,,64,0
12228,note_on,48,0,4,,,,,,,,3,,,59,0
12228,note_on,48,0,5,,,,,,,,4,,,47,0
12228,note_on,0,0,6,,,,,,,,5,,,59,0
12228,note_on,36,0,6,,,,,,,,5,,,74,0
12240,note_on,12,0,4,,,,,,,,3,,,61,116
12240,note_on,12,0,5,,,,,,,,4,,,49,116
12240,note_on,12,0,6,,,,,,,,5,,,76,116
12240,note_on,0,0,6,,,,,,,,5,,,61,116
12288,note_on,0,0,6,,,,,,,,5,,,76,0
12288,note_on,48,0,6,,,,,,,,5,,,61,0
12288,note_on,48,0,4,,,,,,,,3,,,61,0
12288,note_on,288,0,3,,,,,,,,2,,,64,0
12288,note_on,48,0,5,,,,,,,,4,,,49,0
12300,note_on,12,0,4,,,,,,,,3,,,59,116
12300,note_on,12,0,5,,,,,,,,4,,,47,116
12300,note_on,12,0,6,,,,,,,,5,,,59,116
12300,note_on,0,0,6,,,,,,,,5,,,74,116
12312,note_on,192,0,1,,,,,,,,0,,,69,0
12312,note_on,192,0,2,,,,,,,,1,,,69,0
12348,note_on,48,0,5,,,,,,,,4,,,47,0
12348,note_on,48,0,4,,,,,,,,3,,,59,0
12348,note_on,0,0,6,,,,,,,,5,,,59,0
12348,note_on,48,0,6,,,,,,,,5,,,74,0
12360,note_on,48,0,1,,,,,,,,0,,,69,105
12360,note_on,48,0,2,,,,,,,,1,,,69,116
12360,note_on,12,0,5,,,,,,,,4,,,49,116
12360,note_on,12,0,6,,,,,,,,5,,,76,116
12360,note_on,0,0,6,,,,,,,,5,,,61,116
12360,note_on,12,0,4,,,,,,,,3,,,61,116
12360,note_on,72,0,3,,,,,,,,2,,,61,105
12408,note_on,0,0,6,,,,,,,,5,,,76,0
12408,note_on,48,0,5,,,,,,,,4,,,49,0
12408,note_on,48,0,6,,,,,,,,5,,,61,0
12408,note_on,48,0,4,,,,,,,,3,,,61,0
12420,note_on,12,0,5,,,,,,,,4,,,45,116
12420,note_on,12,0,4,,,,,,,,3,,,57,116
12420,note_on,0,0,6,,,,,,,,5,,,73,116
12420,note_on,12,0,6,,,,,,,,5,,,57,116
12456,note_on,96,0,3,,,,,,,,2,,,61,0
12456,note_on,96,0,1,,,,,,,,0,,,69,0
12456,note_on,96,0,2,,,,,,,,1,,,69,0
12468,note_on,48,0,4,,,,,,,,3,,,57,0
12468,note_on,48,0,5,,,,,,,,4,,,45,0
12468,note_on,48,0,6,,,,,,,,5,,,73,0
12468,note_on,0,0,6,,,,,,,,5,,,57,0
12480,note_on,24,0,3,,,,,,,,2,,,59,105
12480,note_on,12,0,5,,,,,,,,4,,,40,116
12480,note_on,12,0,6,,,,,,,,5,,,68,116
12480,note_on,12,0,4,,,,,,,,3,,,52,116
12480,note_on,24,0,1,,,,,,,,0,,,68,116
12480,note_on,0,0,6,,,,,,,,5,,,71,116
12480,note_on,0,0,6,,,,,,,,5,,,52,116
12480,note_on,24,0,2,,,,,,,,1,,,68,116
12528,note_on,48,0,2,,,,,,,,1,,,68,0
12528,note_on,48,0,1,,,,,,,,0,,,68,0
12540,note_on,12,0,2,,,,,,,,1,,,66,116
12540,note_on,12,0,1,,,,,,,,0,,,66,116
12576,note_on,96,0,3,,,,,,,,2,,,59,0
12576,note_on,96,0,5,,,,,,,,4,,,40,0
12576,note_on,0,0,6,,,,,,,,5,,,68,0
12576,note_on,96,0,6,,,,,,,,5,,,52,0
12576,note_on,0,0,6,,,,,,,,5,,,71,0
12576,note_on,96,0,4,,,,,,,,3,,,52,0
12588,note_on,48,0,1,,,,,,,,0,,,66,0
12588,note_on,48,0,2,,,,,,,,1,,,66,0
12600,note_on,0,0,6,,,,,,,,5,,,40,116
12600,note_on,24,0,4,,,,,,,,3,,,40,116
12600,note_on,24,0,5,,,,,,,,4,,,28,116
12600,note_on,24,0,6,,,,,,,,5,,,59,116
12600,note_on,12,0,2,,,,,,,,1,,,64,116
12600,note_on,24,0,3,,,,,,,,2,,,56,105
12600,note_on,0,0,6,,,,,,,,5,,,56,116
12600,note_on,12,0,1,,,,,,,,0,,,64,116
12648,note_on,48,0,1,,,,,,,,0,,,64,0
12648,note_on,48,0,2,,,,,,,,1,,,64,0
12660,note_on,12,0,1,,,,,,,,0,,,66,116
12660,note_on,12,0,2,,,,,,,,1,,,66,116
12696,note_on,96,0,4,,,,,,,,3,,,40,0
12696,note_on,0,0,6,,,,,,,,5,,,56,0
12696,note_on,0,0,6,,,,,,,,5,,,59,0
12696,note_on,96,0,3,,,,,,,,2,,,56,0
12696,note_on,96,0,5,,,,,,,,4,,,28,0
12696,note_on,96,0,6,,,,,,,,5,,,40,0
12708,note_on,48,0,1,,,,,,,,0,,,66,0
12708,note_on,48,0,2,,,,,,,,1,,,66,0
12720,note_on,24,0,4,,,,,,,,3,,,40,116
12720,note_on,24,0,6,,,,,,,,5,,,56,116
12720,note_on,0,0,6,,,,,,,,5,,,40,116
12720,note_on,0,0,6,,,,,,,,5,,,59,116
12720,note_on,24,0,5,,,,,,,,4,,,28,116
12720,note_on,24,0,3,,,,,,,,2,,,56,105
12720,note_on,12,0,2,,,,,,,,1,,,64,116
12720,note_on,12,0,1,,,,,,,,0,,,64,116
12768,note_on,48,0,2,,,,,,,,1,,,64,0
12768,note_on,48,0,1,,,,,,,,0,,,64,0
12780,note_on,12,0,2,,,,,,,,1,,,62,116
12780,note_on,12,0,1,,,,,,,,0,,,62,116
12816,note_on,96,0,3,,,,,,,,2,,,56,0
12816,note_on,96,0,4,,,,,,,,3,,,40,0
12816,note_on,96,0,5,,,,,,,,4,,,28,0
12816,note_on,0,0,6,,,,,,,,5,,,56,0
12816,note_on,0,0,6,,,,,,,,5,,,40,0
12816,note_on,96,0,6,,,,,,,,5,,,59,0
12828,note_on,48,0,2,,,,,,,,1,,,62,0
12828,note_on,48,0,1,,,,,,,,0,,,62,0
12840,note_on,12,0,1,,,,,,,,0,,,61,116
12840,note_on,24,0,5,,,,,,,,4,,,32,116
12840,note_on,24,0,6,,,,,,,,5,,,52,116
12840,note_on,24,0,4,,,,,,,,3,,,44,116
12840,note_on,0,0,6,,,,,,,,5,,,44,116
12840,note_on,0,0,6,,,,,,,,5,,,59,116
12840,note_on,12,0,2,,,,,,,,1,,,61,116
12840,note_on,24,0,3,,,,,,,,2,,,52,105
12888,note_on,48,0,1,,,,,,,,0,,,61,0
12888,note_on,48,0,2,,,,,,,,1,,,61,0
12900,note_on,12,0,1,,,,,,,,0,,,62,116
12900,note_on,12,0,2,,,,,,,,1,,,62,116
12936,note_on,96,0,5,,,,,,,,4,,,32,0
12936,note_on,0,0,6,,,,,,,,5,,,44,0
12936,note_on,96,0,3,,,,,,,,2,,,52,0
12936,note_on,96,0,6,,,,,,,,5,,,59,0
12936,note_on,0,0,6,,,,,,,,5,,,52,0
12936,note_on,96,0,4,,,,,,,,3,,,44,0
12948,note_on,48,0,1,,,,,,,,0,,,62,0
12948,note_on,48,0,2,,,,,,,,1,,,62,0
12960,note_on,12,0,1,,,,,,,,0,,,61,116
12960,note_on,12,0,2,,,,,,,,1,,,61,116
12960,note_on,24,0,4,,,,,,,,3,,,45,116
12960,note_on,0,0,6,,,,,,,,5,,,45,116
12960,note_on,0,0,6,,,,,,,,5,,,52,116
12960,note_on,24,0,6,,,,,,,,5,,,61,116
12960,note_on,24,0,3,,,,,,,,2,,,52,105
12960,note_on,24,0,5,,,,,,,,4,,,33,116
13008,note_on,48,0,5,,,,,,,,4,,,33,0
13008,note_on,48,0,6,,,,,,,,5,,,45,0
13008,note_on,48,0,2,,,,,,,,1,,,61,0
13008,note_on,0,0,6,,,,,,,,5,,,61,0
13008,note_on,48,0,4,,,,,,,,3,,,45,0
13008,note_on,48,0,1,,,,,,,,0,,,61,0
13020,note_on,12,0,4,,,,,,,,3,,,44,116
13020,note_on,0,0,6,,,,,,,,5,,,59,116
13020,note_on,12,0,6,,,,,,,,5,,,44,116
13020,note_on,12,0,1,,,,,,,,0,,,59,116
13020,note_on,12,0,5,,,,,,,,4,,,32,116
13020,note_on,12,0,2,,,,,,,,1,,,59,116
13068,note_on,48,0,4,,,,,,,,3,,,44,0
13068,note_on,0,0,6,,,,,,,,5,,,44,0
13068,note_on,48,0,6,,,,,,,,5,,,59,0
13068,note_on,48,0,2,,,,,,,,1,,,59,0
13068,note_on,48,0,1,,,,,,,,0,,,59,0
13068,note_on,48,0,5,,,,,,,,4,,,32,0
13080,note_on,12,0,2,,,,,,,,1,,,57,116
13080,note_on,0,0,6,,,,,,,,5,,,61,116
13080,note_on,12,0,6,,,,,,,,5,,,45,116
13080,note_on,12,0,5,,,,,,,,4,,,33,116
13080,note_on,12,0,1,,,,,,,,0,,,57,116
13080,note_on,12,0,4,,,,,,,,3,,,45,116
13128,note_on,48,0,5,,,,,,,,4,,,33,0
13128,note_on,48,0,4,,,,,,,,3,,,45,0
13128,note_on,48,0,6,,,,,,,,5,,,61,0
13128,note_on,0,0,6,,,,,,,,5,,,45,0
13140,note_on,12,0,5,,,,,,,,4,,,35,116
13140,note_on,12,0,4,,,,,,,,3,,,47,116
13140,note_on,12,0,6,,,,,,,,5,,,47,116
13140,note_on,0,0,6,,,,,,,,5,,,62,116
13188,note_on,48,0,4,,,,,,,,3,,,47,0
13188,note_on,48,0,6,,,,,,,,5,,,62,0
13188,note_on,48,0,5,,,,,,,,4,,,35,0
13188,note_on,0,0,6,,,,,,,,5,,,47,0
13200,note_on,0,0,6,,,,,,,,5,,,64,116
13200,note_on,12,0,4,,,,,,,,3,,,49,116
13200,note_on,12,0,6,,,,,,,,5,,,49,116
13200,note_on,12,0,5,,,,,,,,4,,,37,116
13248,note_on,48,0,4,,,,,,,,3,,,49,0
13248,note_on,48,0,5,,,,,,,,4,,,37,0
13248,note_on,288,0,3,,,,,,,,2,,,52,0
13248,note_on,0,0,6,,,,,,,,5,,,49,0
13248,note_on,48,0,6,,,,,,,,5,,,64,0
13260,note_on,12,0,6,,,,,,,,5,,,47,116
13260,note_on,0,0,6,,,,,,,,5,,,62,116
13260,note_on,12,0,5,,,,,,,,4,,,35,116
13260,note_on,12,0,4,,,,,,,,3,,,47,116
13272,note_on,192,0,1,,,,,,,,0,,,57,0
13272,note_on,192,0,2,,,,,,,,1,,,57,0
13296,note_on,36,0,6,,,,,,,,5,,,52,0
13308,note_on,12,0,6,,,,,,,,5,,,62,0
13308,note_on,48,0,4,,,,,,,,3,,,47,0
13308,note_on,48,0,5,,,,,,,,4,,,35,0
13308,note_on,0,0,6,,,,,,,,5,,,47,0
13320,note_on,72,0,3,,,,,,,,2,,,69,105
13320,note_on,12,0,6,,,,,,,,5,,,64,116
13320,note_on,12,0,4,,,,,,,,3,,,49,116
13320,note_on,48,0,1,,,,,,,,0,,,76,116
13320,note_on,12,0,5,,,,,,,,4,,,37,116
13320,note_on,0,0,6,,,,,,,,5,,,49,116
13368,note_on,48,0,4,,,,,,,,3,,,49,0
13368,note_on,48,0,6,,,,,,,,5,,,49,0
13368,note_on,48,0,5,,,,,,,,4,,,37,0
13368,note_on,0,0,6,,,,,,,,5,,,64,0
13380,note_on,0,0,6,,,,,,,,5,,,57,116
13380,note_on,12,0,4,,,,,,,,3,,,45,116
13380,note_on,12,0,5,,,,,,,,4,,,35,116
13380,note_on,0,0,6,,,,,,,,5,,,45,116
13380,note_on,12,0,6,,,,,,,,5,,,61,116
13416,note_on,96,0,1,,,,,,,,0,,,76,0
13416,note_on,96,0,3,,,,,,,,2,,,69,0
13428,note_on,48,0,5,,,,,,,,4,,,35,0
13428,note_on,0,0,6,,,,,,,,5,,,45,0
13428,note_on,0,0,6,,,,,,,,5,,,61,0
13428,note_on,48,0,6,,,,,,,,5,,,57,0
13428,note_on,48,0,4,,,,,,,,3,,,45,0
13440,note_on,0,0,6,,,,,,,,5,,,63,72
13440,note_on,0,0,6,,,,,,,,5,,,47,72
13440,note_on,12,0,5,,,,,,,,4,,,35,116
13440,note_on,12,0,6,,,,,,,,5,,,54,72
13440,note_on,24,0,3,,,,,,,,2,,,66,72
13440,note_on,12,0,4,,,,,,,,3,,,47,116
13440,note_on,24,0,1,,,,,,,,0,,,75,116
13488,note_on,48,0,1,,,,,,,,0,,,75,0
13500,note_on,12,0,1,,,,,,,,0,,,71,116
13536,note_on,96,0,6,,,,,,,,5,,,54,0
13536,note_on,96,0,3,,,,,,,,2,,,66,0
13548,note_on,48,0,1,,,,,,,,0,,,71,0
13560,note_on,24,0,3,,,,,,,,2,,,66,72
13560,note_on,24,0,6,,,,,,,,5,,,59,72
13560,note_on,12,0,1,,,,,,,,0,,,69,116
13608,note_on,48,0,1,,,,,,,,0,,,69,0
13620,note_on,12,0,1,,,,,,,,0,,,71,116
13656,note_on,96,0,3,,,,,,,,2,,,66,0
13656,note_on,96,0,6,,,,,,,,5,,,59,0
13668,note_on,48,0,1,,,,,,,,0,,,71,0
13680,note_on,12,0,1,,,,,,,,0,,,71,116
13680,note_on,24,0,3,,,,,,,,2,,,66,72
13680,note_on,24,0,6,,,,,,,,5,,,59,72
13704,note_on,24,0,1,,,,,,,,0,,,71,0
13710,note_on,6,0,1,,,,,,,,0,,,73,116
13728,note_on,48,0,6,,,,,,,,5,,,47,0
13728,note_on,288,0,5,,,,,,,,4,,,35,0
13728,note_on,288,0,4,,,,,,,,3,,,47,0
13734,note_on,24,0,1,,,,,,,,0,,,73,0
13740,note_on,12,0,4,,,,,,,,3,,,59,72
13740,note_on,12,0,6,,,,,,,,5,,,59,72
13740,note_on,6,0,1,,,,,,,,0,,,71,116
13740,note_on,12,0,5,,,,,,,,4,,,47,72
13764,note_on,24,0,1,,,,,,,,0,,,71,0
13770,note_on,6,0,1,,,,,,,,0,,,73,116
13776,note_on,36,0,6,,,,,,,,5,,,59,0
13776,note_on,96,0,3,,,,,,,,2,,,66,0
13788,note_on,48,0,5,,,,,,,,4,,,47,0
13788,note_on,48,0,4,,,,,,,,3,,,59,0
13788,note_on,12,0,6,,,,,,,,5,,,59,0
13794,note_on,24,0,1,,,,,,,,0,,,73,0
13800,note_on,6,0,1,,,,,,,,0,,,71,116
13800,note_on,12,0,6,,,,,,,,5,,,57,72
13800,note_on,12,0,5,,,,,,,,4,,,45,72
13800,note_on,12,0,4,,,,,,,,3,,,57,72
13800,note_on,24,0,3,,,,,,,,2,,,66,72
13824,note_on,24,0,6,,,,,,,,5,,,63,0
13824,note_on,24,0,1,,,,,,,,0,,,71,0
13830,note_on,6,0,1,,,,,,,,0,,,73,116
13848,note_on,24,0,6,,,,,,,,5,,,57,0
13848,note_on,48,0,5,,,,,,,,4,,,45,0
13848,note_on,48,0,4,,,,,,,,3,,,57,0
13854,note_on,24,0,1,,,,,,,,0,,,73,0
13860,note_on,12,0,6,,,,,,,,5,,,59,72
13860,note_on,12,0,4,,,,,,,,3,,,59,72
13860,note_on,6,0,1,,,,,,,,0,,,71,116
13860,note_on,12,0,5,,,,,,,,4,,,47,72
13884,note_on,24,0,1,,,,,,,,0,,,71,0
13890,note_on,6,0,1,,,,,,,,0,,,73,116
13896,note_on,96,0,3,,,,,,,,2,,,66,0
13908,note_on,48,0,6,,,,,,,,5,,,59,0
13908,note_on,48,0,5,,,,,,,,4,,,47,0
13908,note_on,48,0,4,,,,,,,,3,,,59,0
13914,note_on,24,0,1,,,,,,,,0,,,73,0
13920,note_on,0,0,6,,,,,,,,5,,,56,72
13920,note_on,0,0,6,,,,,,,,5,,,47,72
13920,note_on,12,0,6,,,,,,,,5,,,64,72
13920,note_on,12,0,5,,,,,,,,4,,,35,72
13920,note_on,6,0,1,,,,,,,,0,,,76,116
13920,note_on,12,0,4,,,,,,,,3,,,47,72
13968,note_on,48,0,1,,,,,,,,0,,,76,0
13980,note_on,12,0,1,,,,,,,,0,,,71,116
14016,note_on,96,0,6,,,,,,,,5,,,56,0
14028,note_on,48,0,1,,,,,,,,0,,,71,0
14040,note_on,24,0,6,,,,,,,,5,,,59,72
14040,note_on,12,0,1,,,,,,,,0,,,69,116
14040,note_on,144,0,3,,,,,,,,2,,,68,72
14088,note_on,48,0,1,,,,,,,,0,,,69,0
14100,note_on,12,0,1,,,,,,,,0,,,71,116
14136,note_on,96,0,6,,,,,,,,5,,,59,0
14136,note_on,96,0,3,,,,,,,,2,,,68,0
14148,note_on,48,0,1,,,,,,,,0,,,71,0
14160,note_on,12,0,1,,,,,,,,0,,,71,116
14160,note_on,24,0,3,,,,,,,,2,,,68,72
14160,note_on,24,0,6,,,,,,,,5,,,59,72
14184,note_on,24,0,1,,,,,,,,0,,,71,0
14190,note_on,6,0,1,,,,,,,,0,,,73,116
14208,note_on,48,0,6,,,,,,,,5,,,47,0
14208,note_on,288,0,4,,,,,,,,3,,,47,0
14208,note_on,288,0,5,,,,,,,,4,,,35,0
14214,note_on,24,0,1,,,,,,,,0,,,73,0
14220,note_on,12,0,4,,,,,,,,3,,,59,72
14220,note_on,12,0,5,,,,,,,,4,,,47,72
14220,note_on,6,0,1,,,,,,,,0,,,71,116
14220,note_on,12,0,6,,,,,,,,5,,,59,72
14244,note_on,24,0,1,,,,,,,,0,,,71,0
14250,note_on,6,0,1,,,,,,,,0,,,73,116
14256,note_on,96,0,3,,,,,,,,2,,,68,0
14256,note_on,36,0,6,,,,,,,,5,,,59,0
14268,note_on,48,0,4,,,,,,,,3,,,59,0
14268,note_on,12,0,6,,,,,,,,5,,,59,0
14268,note_on,48,0,5,,,,,,,,4,,,47,0
14274,note_on,24,0,1,,,,,,,,0,,,73,0
14280,note_on,12,0,5,,,,,,,,4,,,45,72
14280,note_on,12,0,6,,,,,,,,5,,,57,72
14280,note_on,24,0,3,,,,,,,,2,,,68,72
14280,note_on,6,0,1,,,,,,,,0,,,71,116
14280,note_on,12,0,4,,,,,,,,3,,,57,72
14304,note_on,24,0,6,,,,,,,,5,,,64,0
14304,note_on,24,0,1,,,,,,,,0,,,71,0
14310,note_on,6,0,1,,,,,,,,0,,,73,116
14328,note_on,24,0,6,,,,,,,,5,,,57,0
14328,note_on,48,0,5,,,,,,,,4,,,45,0
14328,note_on,48,0,4,,,,,,,,3,,,57,0
14334,note_on,24,0,1,,,,,,,,0,,,73,0
14340,note_on,12,0,6,,,,,,,,5,,,59,72
14340,note_on,12,0,4,,,,,,,,3,,,59,72
14340,note_on,12,0,5,,,,,,,,4,,,47,72
14340,note_on,6,0,1,,,,,,,,0,,,71,116
14364,note_on,24,0,1,,,,,,,,0,,,71,0
14370,note_on,6,0,1,,,,,,,,0,,,73,116
14376,note_on,96,0,3,,,,,,,,2,,,68,0
14388,note_on,48,0,4,,,,,,,,3,,,59,0
14388,note_on,48,0,6,,,,,,,,5,,,59,0
14388,note_on,48,0,5,,,,,,,,4,,,47,0
14394,note_on,24,0,1,,,,,,,,0,,,73,0
14400,note_on,6,0,1,,,,,,,,0,,,78,116
14400,note_on,1128,0,2,,,,,,,,1,,,75,116
14400,note_on,12,0,5,,,,,,,,4,,,35,72
14400,note_on,12,0,6,,,,,,,,5,,,63,72
14400,note_on,0,0,6,,,,,,,,5,,,54,72
14400,note_on,0,0,6,,,,,,,,5,,,47,72
14400,note_on,12,0,4,,,,,,,,3,,,47,72
14448,note_on,48,0,1,,,,,,,,0,,,78,0
14448,note_on,48,0,2,,,,,,,,1,,,75,0
14460,note_on,12,0,1,,,,,,,,0,,,71,116
14460,note_on,12,0,2,,,,,,,,1,,,71,116
14496,note_on,96,0,6,,,,,,,,5,,,54,0
14508,note_on,48,0,1,,,,,,,,0,,,71,0
14508,note_on,48,0,2,,,,,,,,1,,,71,0
14520,note_on,12,0,2,,,,,,,,1,,,69,116
14520,note_on,12,0,1,,,,,,,,0,,,69,116
14520,note_on,24,0,6,,,,,,,,5,,,59,72
14520,note_on,144,0,3,,,,,,,,2,,,63,72
14568,note_on,48,0,2,,,,,,,,1,,,69,0
14568,note_on,48,0,1,,,,,,,,0,,,69,0
14580,note_on,12,0,2,,,,,,,,1,,,71,116
14580,note_on,12,0,1,,,,,,,,0,,,71,116
14616,note_on,96,0,6,,,,,,,,5,,,59,0
14616,note_on,96,0,3,,,,,,,,2,,,63,0
14628,note_on,48,0,1,,,,,,,,0,,,71,0
14628,note_on,48,0,2,,,,,,,,1,,,71,0
14640,note_on,24,0,3,,,,,,,,2,,,63,72
14640,note_on,12,0,1,,,,,,,,0,,,71,116
14640,note_on,24,0,6,,,,,,,,5,,,59,72
14640,note_on,12,0,2,,,,,,,,1,,,71,116
14664,note_on,24,0,1,,,,,,,,0,,,71,0
14664,note_on,24,0,2,,,,,,,,1,,,71,0
14670,note_on,6,0,1,,,,,,,,0,,,73,116
14670,note_on,6,0,2,,,,,,,,1,,,73,116
14688,note_on,48,0,6,,,,,,,,5,,,47,0
14688,note_on,288,0,4,,,,,,,,3,,,47,0
14688,note_on,288,0,5,,,,,,,,4,,,35,0
14694,note_on,24,0,2,,,,,,,,1,,,73,0
14694,note_on,24,0,1,,,,,,,,0,,,73,0
14700,note_on,6,0,1,,,,,,,,0,,,71,116
14700,note_on,12,0,4,,,,,,,,3,,,59,72
14700,note_on,12,0,6,,,,,,,,5,,,59,72
14700,note_on,6,0,2,,,,,,,,1,,,71,116
14700,note_on,12,0,5,,,,,,,,4,,,47,72
14724,note_on,24,0,2,,,,,,,,1,,,71,0
14724,note_on,24,0,1,,,,,,,,0,,,71,0
14730,note_on,6,0,2,,,,,,,,1,,,73,116
14730,note_on,6,0,1,,,,,,,,0,,,73,116
14736,note_on,96,0,3,,,,,,,,2,,,63,0
14736,note_on,36,0,6,,,,,,,,5,,,59,0
14748,note_on,48,0,5,,,,,,,,4,,,47,0
14748,note_on,48,0,4,,,,,,,,3,,,59,0
14748,note_on,12,0,6,,,,,,,,5,,,59,0
14754,note_on,24,0,1,,,,,,,,0,,,73,0
14754,note_on,24,0,2,,,,,,,,1,,,73,0
14760,note_on,6,0,2,,,,,,,,1,,,71,116
14760,note_on,6,0,1,,,,,,,,0,,,71,116
14760,note_on,12,0,4,,,,,,,,3,,,57,72
14760,note_on,24,0,3,,,,,,,,2,,,63,72
14760,note_on,12,0,6,,,,,,,,5,,,57,72
14760,note_on,12,0,5,,,,,,,,4,,,45,72
14784,note_on,24,0,1,,,,,,,,0,,,71,0
14784,note_on,24,0,2,,,,,,,,1,,,71,0
14784,note_on,24,0,6,,,,,,,,5,,,63,0
14790,note_on,6,0,2,,,,,,,,1,,,73,116
14790,note_on,6,0,1,,,,,,,,0,,,73,116
14808,note_on,48,0,5,,,,,,,,4,,,45,0
14808,note_on,48,0,4,,,,,,,,3,,,57,0
14808,note_on,24,0,6,,,,,,,,5,,,57,0
14814,note_on,24,0,2,,,,,,,,1,,,73,0
14814,note_on,24,0,1,,,,,,,,0,,,73,0
14820,note_on,12,0,4,,,,,,,,3,,,59,72
14820,note_on,12,0,5,,,,,,,,4,,,47,72
14820,note_on,6,0,1,,,,,,,,0,,,71,116
14820,note_on,12,0,6,,,,,,,,5,,,59,72
14820,note_on,6,0,2,,,,,,,,1,,,71,116
14844,note_on,24,0,2,,,,,,,,1,,,71,0
14844,note_on,24,0,1,,,,,,,,0,,,71,0
14850,note_on,6,0,2,,,,,,,,1,,,73,116
14850,note_on,6,0,1,,,,,,,,0,,,73,116
14856,note_on,96,0,3,,,,,,,,2,,,63,0
14868,note_on,48,0,4,,,,,,,,3,,,59,0
14868,note_on,48,0,6,,,,,,,,5,,,59,0
14868,note_on,48,0,5,,,,,,,,4,,,47,0
14874,note_on,24,0,2,,,,,,,,1,,,73,0
14874,note_on,24,0,1,,,,,,,,0,,,73,0
14880,note_on,12,0,4,,,,,,,,3,,,47,72
14880,note_on,12,0,6,,,,,,,,5,,,56,72
14880,note_on,0,0,6,,,,,,,,5,,,64,72
14880,note_on,12,0,5,,,,,,,,4,,,35,72
14880,note_on,0,0,6,,,,,,,,5,,,47,72
14880,note_on,6,0,2,,,,,,,,1,,,78,116
14880,note_on,6,0,1,,,,,,,,0,,,81,116
14928,note_on,48,0,1,,,,,,,,0,,,81,0
14928,note_on,48,0,2,,,,,,,,1,,,78,0
14940,note_on,12,0,2,,,,,,,,1,,,71,116
14940,note_on,12,0,1,,,,,,,,0,,,71,116
14976,note_on,96,0,6,,,,,,,,5,,,56,0
14988,note_on,48,0,2,,,,,,,,1,,,71,0
14988,note_on,48,0,1,,,,,,,,0,,,71,0
15000,note_on,24,0,6,,,,,,,,5,,,59,72
15000,note_on,12,0,1,,,,,,,,0,,,69,116
15000,note_on,12,0,2,,,,,,,,1,,,69,116
15000,note_on,144,0,3,,,,,,,,2,,,63,72
15048,note_on,48,0,2,,,,,,,,1,,,69,0
15048,note_on,48,0,1,,,,,,,,0,,,69,0
15060,note_on,12,0,1,,,,,,,,0,,,71,116
15060,note_on,12,0,2,,,,,,,,1,,,71,116
15096,note_on,96,0,3,,,,,,,,2,,,63,0
15096,note_on,96,0,6,,,,,,,,5,,,59,0
15108,note_on,48,0,1,,,,,,,,0,,,71,0
15108,note_on,48,0,2,,,,,,,,1,,,71,0
15120,note_on,12,0,1,,,,,,,,0,,,71,116
15120,note_on,24,0,6,,,,,,,,5,,,59,72
15120,note_on,12,0,2,,,,,,,,1,,,71,116
15120,note_on,24,0,3,,,,,,,,2,,,63,72
15144,note_on,24,0,2,,,,,,,,1,,,71,0
15144,note_on,24,0,1,,,,,,,,0,,,71,0
15150,note_on,6,0,2,,,,,,,,1,,,73,116
15150,note_on,6,0,1,,,,,,,,0,,,73,116
15168,note_on,288,0,5,,,,,,,,4,,,35,0
15168,note_on,288,0,4,,,,,,,,3,,,47,0
15168,note_on,48,0,6,,,,,,,,5,,,47,0
15174,note_on,24,0,2,,,,,,,,1,,,73,0
15174,note_on,24,0,1,,,,,,,,0,,,73,0
15180,note_on,6,0,2,,,,,,,,1,,,71,116
15180,note_on,12,0,4,,,,,,,,3,,,59,72
15180,note_on,12,0,6,,,,,,,,5,,,59,72
15180,note_on,12,0,5,,,,,,,,4,,,47,72
15180,note_on,6,0,1,,,,,,,,0,,,71,116
15204,note_on,24,0,1,,,,,,,,0,,,71,0
15204,note_on,24,0,2,,,,,,,,1,,,71,0
15210,note_on,6,0,2,,,,,,,,1,,,73,116
15210,note_on,6,0,1,,,,,,,,0,,,73,116
15216,note_on,36,0,6,,,,,,,,5,,,59,0
15216,note_on,96,0,3,,,,,,,,2,,,63,0
15228,note_on,48,0,5,,,,,,,,4,,,47,0
15228,note_on,48,0,4,,,,,,,,3,,,59,0
15228,note_on,12,0,6,,,,,,,,5,,,59,0
15234,note_on,24,0,1,,,,,,,,0,,,73,0
15234,note_on,24,0,2,,,,,,,,1,,,73,0
15240,note_on,12,0,5,,,,,,,,4,,,45,72
15240,note_on,6,0,1,,,,,,,,0,,,71,116
15240,note_on,6,0,2,,,,,,,,1,,,71,116
15240,note_on,12,0,6,,,,,,,,5,,,57,72
15240,note_on,24,0,3,,,,,,,,2,,,63,72
15240,note_on,12,0,4,,,,,,,,3,,,57,72
15264,note_on,24,0,1,,,,,,,,0,,,71,0
15264,note_on,24,0,2,,,,,,,,1,,,71,0
15264,note_on,24,0,6,,,,,,,,5,,,64,0
15270,note_on,6,0,2,,,,,,,,1,,,73,116
15270,note_on,6,0,1,,,,,,,,0,,,73,116
15288,note_on,48,0,4,,,,,,,,3,,,57,0
15288,note_on,48,0,5,,,,,,,,4,,,45,0
15288,note_on,24,0,6,,,,,,,,5,,,57,0
15294,note_on,24,0,1,,,,,,,,0,,,73,0
15294,note_on,24,0,2,,,,,,,,1,,,73,0
15300,note_on,12,0,6,,,,,,,,5,,,59,72
15300,note_on,6,0,2,,,,,,,,1,,,71,116
15300,note_on,6,0,1,,,,,,,,0,,,71,116
15300,note_on,12,0,4,,,,,,,,3,,,59,72
15300,note_on,12,0,5,,,,,,,,4,,,47,72
15324,note_on,24,0,2,,,,,,,,1,,,71,0
15324,note_on,24,0,1,,,,,,,,0,,,71,0
15330,note_on,6,0,1,,,,,,,,0,,,73,116
15330,note_on,6,0,2,,,,,,,,1,,,73,116
15336,note_on,96,0,3,,,,,,,,2,,,63,0
15348,note_on,48,0,5,,,,,,,,4,,,47,0
15348,note_on,48,0,6,,,,,,,,5,,,59,0
15348,note_on,48,0,4,,,,,,,,3,,,59,0
15354,note_on,24,0,2,,,,,,,,1,,,73,0
15354,note_on,24,0,1,,,,,,,,0,,,73,0
15360,note_on,24,0,3,,,,,,,,2,,,59,72
15360,note_on,6,0,2,,,,,,,,1,,,80,116
15360,note_on,12,0,5,,,,,,,,4,,,40,105
15360,note_on,0,0,6,,,,,,,,5,,,64,105
15360,note_on,12,0,6,,,,,,,,5,,,68,105
15360,note_on,0,0,6,,,,,,,,5,,,52,105
15360,note_on,6,0,1,,,,,,,,0,,,80,116
15360,note_on,12,0,4,,,,,,,,3,,,52,72
15392,note_on,32,0,2,,,,,,,,1,,,80,0
15392,note_on,32,0,1,,,,,,,,0,,,80,0
15400,note_on,8,0,1,,,,,,,,0,,,83,105
15400,note_on,8,0,2,,,,,,,,1,,,83,105
15408,note_on,48,0,4,,,,,,,,3,,,52,0
15408,note_on,48,0,6,,,,,,,,5,,,52,0
15408,note_on,0,0,6,,,,,,,,5,,,68,0
15408,note_on,48,0,5,,,,,,,,4,,,40,0
15420,note_on,0,0,6,,,,,,,,5,,,69,105
15420,note_on,12,0,4,,,,,,,,3,,,54,105
15420,note_on,12,0,5,,,,,,,,4,,,42,105
15420,note_on,12,0,6,,,,,,,,5,,,54,105
15432,note_on,32,0,1,,,,,,,,0,,,83,0
15432,note_on,32,0,2,,,,,,,,1,,,83,0
15440,note_on,8,0,2,,,,,,,,1,,,81,105
15440,note_on,8,0,1,,,,,,,,0,,,81,105
15456,note_on,96,0,3,,,,,,,,2,,,59,0
15468,note_on,48,0,4,,,,,,,,3,,,54,0
15468,note_on,48,0,6,,,,,,,,5,,,69,0
15468,note_on,0,0,6,,,,,,,,5,,,54,0
15468,note_on,48,0,5,,,,,,,,4,,,42,0
15472,note_on,32,0,1,,,,,,,,0,,,81,0
15472,note_on,32,0,2,,,,,,,,1,,,81,0
15480,note_on,24,0,3,,,,,,,,2,,,64,72
15480,note_on,12,0,4,,,,,,,,3,,,56,105
15480,note_on,8,0,2,,,,,,,,1,,,80,105
15480,note_on,12,0,5,,,,,,,,4,,,44,105
15480,note_on,8,0,1,,,,,,,,0,,,80,105
15480,note_on,0,0,6,,,,,,,,5,,,71,105
15480,note_on,12,0,6,,,,,,,,5,,,56,105
15512,note_on,32,0,1,,,,,,,,0,,,80,0
15512,note_on,32,0,2,,,,,,,,1,,,80,0
15520,note_on,8,0,2,,,,,,,,1,,,78,105
15520,note_on,8,0,1,,,,,,,,0,,,78,105
15528,note_on,48,0,4,,,,,,,,3,,,56,0
15528,note_on,48,0,5,,,,,,,,4,,,44,0
15528,note_on,0,0,6,,,,,,,,5,,,56,0
15528,note_on,48,0,6,,,,,,,,5,,,71,0
15540,note_on,0,0,6,,,,,,,,5,,,73,105
15540,note_on,12,0,6,,,,,,,,5,,,57,105
15540,note_on,12,0,4,,,,,,,,3,,,57,105
15540,note_on,12,0,5,,,,,,,,4,,,45,105
15552,note_on,12,0,6,,,,,,,,5,,,64,0
15552,note_on,32,0,2,,,,,,,,1,,,78,0
15552,note_on,32,0,1,,,,,,,,0,,,78,0
15560,note_on,8,0,2,,,,,,,,1,,,76,105
15560,note_on,8,0,1,,,,,,,,0,,,76,105
15576,note_on,96,0,3,,,,,,,,2,,,64,0
15588,note_on,36,0,6,,,,,,,,5,,,73,0
15588,note_on,48,0,4,,,,,,,,3,,,57,0
15588,note_on,48,0,5,,,,,,,,4,,,45,0
15588,note_on,0,0,6,,,,,,,,5,,,57,0
15592,note_on,32,0,2,,,,,,,,1,,,76,0
15592,note_on,32,0,1,,,,,,,,0,,,76,0
15600,note_on,12,0,5,,,,,,,,4,,,47,105
15600,note_on,24,0,3,,,,,,,,2,,,63,72
15600,note_on,0,0,6,,,,,,,,5,,,63,105
15600,note_on,8,0,2,,,,,,,,1,,,71,105
15600,note_on,12,0,6,,,,,,,,5,,,59,105
15600,note_on,8,0,1,,,,,,,,0,,,71,105
15600,note_on,0,0,6,,,,,,,,5,,,71,105
15600,note_on,12,0,4,,,,,,,,3,,,59,105
15696,note_on,96,0,4,,,,,,,,3,,,59,0
15696,note_on,0,0,6,,,,,,,,5,,,59,0
15696,note_on,96,0,6,,,,,,,,5,,,63,0
15696,note_on,96,0,5,,,,,,,,4,,,47,0
15696,note_on,96,0,2,,,,,,,,1,,,71,0
15696,note_on,96,0,1,,,,,,,,0,,,71,0
15720,note_on,24,0,2,,,,,,,,1,,,81,105
15720,note_on,24,0,5,,,,,,,,4,,,35,105
15720,note_on,24,0,1,,,,,,,,0,,,81,105
15720,note_on,24,0,4,,,,,,,,3,,,47,105
15720,note_on,24,0,6,,,,,,,,5,,,47,105
15720,note_on,0,0,6,,,,,,,,5,,,66,105
15792,note_on,192,0,3,,,,,,,,2,,,63,0
15792,note_on,72,0,6,,,,,,,,5,,,71,0
15816,note_on,96,0,2,,,,,,,,1,,,81,0
15816,note_on,96,0,4,,,,,,,,3,,,47,0
15816,note_on,0,0,6,,,,,,,,5,,,47,0
15816,note_on,96,0,5,,,,,,,,4,,,35,0
15816,note_on,96,0,1,,,,,,,,0,,,81,0
15816,note_on,24,0,6,,,,,,,,5,,,66,0
15840,note_on,24,0,4,,,,,,,,3,,,52,105
15840,note_on,24,0,2,,,,,,,,1,,,80,105
15840,note_on,48,0,3,,,,,,,,2,,,59,72
15840,note_on,24,0,5,,,,,,,,4,,,40,105
15840,note_on,24,0,1,,,,,,,,0,,,80,105
15840,note_on,24,0,6,,,,,,,,5,,,68,105
15840,note_on,0,0,6,,,,,,,,5,,,52,105
15840,note_on,0,0,6,,,,,,,,5,,,64,105
15872,note_on,32,0,2,,,,,,,,1,,,80,0
15872,note_on,32,0,1,,,,,,,,0,,,80,0
15880,note_on,8,0,1,,,,,,,,0,,,83,105
15880,note_on,8,0,2,,,,,,,,1,,,83,105
15888,note_on,48,0,6,,,,,,,,5,,,52,0
15888,note_on,48,0,5,,,,,,,,4,,,40,0
15888,note_on,48,0,4,,,,,,,,3,,,52,0
15888,note_on,0,0,6,,,,,,,,5,,,68,0
15900,note_on,12,0,4,,,,,,,,3,,,54,105
15900,note_on,12,0,6,,,,,,,,5,,,69,105
15900,note_on,12,0,5,,,,,,,,4,,,42,105
15900,note_on,0,0,6,,,,,,,,5,,,54,105
15912,note_on,32,0,2,,,,,,,,1,,,83,0
15912,note_on,32,0,1,,,,,,,,0,,,83,0
15920,note_on,8,0,2,,,,,,,,1,,,81,105
15920,note_on,8,0,1,,,,,,,,0,,,81,105
15936,note_on,96,0,3,,,,,,,,2,,,59,0
15948,note_on,48,0,4,,,,,,,,3,,,54,0
15948,note_on,48,0,5,,,,,,,,4,,,42,0
15948,note_on,0,0,6,,,,,,,,5,,,69,0
15948,note_on,48,0,6,,,,,,,,5,,,54,0
15952,note_on,32,0,1,,,,,,,,0,,,81,0
15952,note_on,32,0,2,,,,,,,,1,,,81,0
15960,note_on,12,0,5,,,,,,,,4,,,44,105
15960,note_on,12,0,4,,,,,,,,3,,,56,105
15960,note_on,8,0,1,,,,,,,,0,,,80,105
15960,note_on,0,0,6,,,,,,,,5,,,56,105
15960,note_on,8,0,2,,,,,,,,1,,,80,105
15960,note_on,12,0,6,,,,,,,,5,,,71,105
15960,note_on,24,0,3,,,,,,,,2,,,64,72
15992,note_on,32,0,2,,,,,,,,1,,,80,0
15992,note_on,32,0,1,,,,,,,,0,,,80,0
16000,note_on,8,0,2,,,,,,,,1,,,78,105
16000,note_on,8,0,1,,,,,,,,0,,,78,105
16008,note_on,48,0,5,,,,,,,,4,,,44,0
16008,note_on,48,0,6,,,,,,,,5,,,56,0
16008,note_on,0,0,6,,,,,,,,5,,,71,0
16008,note_on,48,0,4,,,,,,,,3,,,56,0
16020,note_on,12,0,4,,,,,,,,3,,,57,105
16020,note_on,12,0,6,,,,,,,,5,,,57,105
16020,note_on,0,0,6,,,,,,,,5,,,73,105
16020,note_on,12,0,5,,,,,,,,4,,,45,105
16032,note_on,32,0,1,,,,,,,,0,,,78,0
16032,note_on,32,0,2,,,,,,,,1,,,78,0
16032,note_on,12,0,6,,,,,,,,5,,,64,0
16040,note_on,8,0,1,,,,,,,,0,,,76,105
16040,note_on,8,0,2,,,,,,,,1,,,76,105
16056,note_on,96,0,3,,,,,,,,2,,,64,0
16068,note_on,48,0,5,,,,,,,,4,,,45,0
16068,note_on,48,0,4,,,,,,,,3,,,57,0
16068,note_on,0,0,6,,,,,,,,5,,,57,0
16068,note_on,36,0,6,,,,,,,,5,,,73,0
16072,note_on,32,0,1,,,,,,,,0,,,76,0
16072,note_on,32,0,2,,,,,,,,1,,,76,0
16080,note_on,12,0,5,,,,,,,,4,,,47,105
16080,note_on,24,0,3,,,,,,,,2,,,63,72
16080,note_on,8,0,1,,,,,,,,0,,,71,105
16080,note_on,0,0,6,,,,,,,,5,,,63,105
16080,note_on,0,0,6,,,,,,,,5,,,59,105
16080,note_on,8,0,2,,,,,,,,1,,,71,105
16080,note_on,12,0,4,,,,,,,,3,,,59,105
16080,note_on,12,0,6,,,,,,,,5,,,71,105
16176,note_on,96,0,4,,,,,,,,3,,,59,0
16176,note_on,96,0,2,,,,,,,,1,,,71,0
16176,note_on,96,0,1,,,,,,,,0,,,71,0
16176,note_on,0,0,6,,,,,,,,5,,,59,0
16176,note_on,96,0,6,,,,,,,,5,,,63,0
16176,note_on,96,0,5,,,,,,,,4,,,47,0
16200,note_on,24,0,6,,,,,,,,5,,,47,105
16200,note_on,24,0,2,,,,,,,,1,,,81,105
16200,note_on,24,0,5,,,,,,,,4,,,35,105
16200,note_on,24,0,4,,,,,,,,3,,,47,105
16200,note_on,0,0,6,,,,,,,,5,,,66,105
16200,note_on,24,0,1,,,,,,,,0,,,81,105
16272,note_on,192,0,3,,,,,,,,2,,,63,0
16272,note_on,72,0,6,,,,,,,,5,,,71,0
16296,note_on,96,0,1,,,,,,,,0,,,81,0
16296,note_on,0,0,6,,,,,,,,5,,,47,0
16296,note_on,24,0,6,,,,,,,,5,,,66,0
16296,note_on,96,0,4,,,,,,,,3,,,47,0
16296,note_on,96,0,2,,,,,,,,1,,,81,0
16296,note_on,96,0,5,,,,,,,,4,,,35,0
16320,note_on,0,0,6,,,,,,,,5,,,64,105
16320,note_on,0,0,6,,,,,,,,5,,,52,105
16320,note_on,24,0,6,,,,,,,,5,,,68,105
16320,note_on,24,0,2,,,,,,,,1,,,80,105
16320,note_on,48,0,3,,,,,,,,2,,,59,72
16320,note_on,24,0,4,,,,,,,,3,,,52,105
16320,note_on,24,0,5,,,,,,,,4,,,40,105
16320,note_on,24,0,1,,,,,,,,0,,,80,105
16352,note_on,32,0,1,,,,,,,,0,,,80,0
16352,note_on,32,0,2,,,,,,,,1,,,80,0
16360,note_on,8,0,2,,,,,,,,1,,,83,105
16360,note_on,8,0,1,,,,,,,,0,,,83,105
16368,note_on,48,0,6,,,,,,,,5,,,52,0
16368,note_on,0,0,6,,,,,,,,5,,,68,0
16368,note_on,48,0,4,,,,,,,,3,,,52,0
16368,note_on,48,0,5,,,,,,,,4,,,40,0
16380,note_on,12,0,6,,,,,,,,5,,,69,105
16380,note_on,12,0,4,,,,,,,,3,,,54,105
16380,note_on,0,0,6,,,,,,,,5,,,54,105
16380,note_on,12,0,5,,,,,,,,4,,,42,105
16392,note_on,32,0,2,,,,,,,,1,,,83,0
16392,note_on,32,0,1,,,,,,,,0,,,83,0
16400,note_on,8,0,2,,,,,,,,1,,,81,105
16400,note_on,8,0,1,,,,,,,,0,,,81,105
16416,note_on,96,0,3,,,,,,,,2,,,59,0
16428,note_on,48,0,5,,,,,,,,4,,,42,0
16428,note_on,48,0,4,,,,,,,,3,,,54,0
16428,note_on,0,0,6,,,,,,,,5,,,69,0
16428,note_on,48,0,6,,,,,,,,5,,,54,0
16432,note_on,32,0,1,,,,,,,,0,,,81,0
16432,note_on,32,0,2,,,,,,,,1,,,81,0
16440,note_on,8,0,1,,,,,,,,0,,,80,105
16440,note_on,12,0,6,,,,,,,,5,,,56,105
16440,note_on,12,0,5,,,,,,,,4,,,44,105
16440,note_on,0,0,6,,,,,,,,5,,,71,105
16440,note_on,24,0,3,,,,,,,,2,,,64,72
16440,note_on,12,0,4,,,,,,,,3,,,56,105
16440,note_on,8,0,2,,,,,,,,1,,,80,105
16472,note_on,32,0,2,,,,,,,,1,,,80,0
16472,note_on,32,0,1,,,,,,,,0,,,80,0
16480,note_on,8,0,2,,,,,,,,1,,,78,105
16480,note_on,8,0,1,,,,,,,,0,,,78,105
16488,note_on,48,0,5,,,,,,,,4,,,44,0
16488,note_on,0,0,6,,,,,,,,5,,,56,0
16488,note_on,48,0,6,,,,,,,,5,,,71,0
16488,note_on,48,0,4,,,,,,,,3,,,56,0
16500,note_on,12,0,5,,,,,,,,4,,,45,105
16500,note_on,0,0,6,,,,,,,,5,,,73,105
16500,note_on,12,0,6,,,,,,,,5,,,57,105
16500,note_on,12,0,4,,,,,,,,3,,,57,105
16512,note_on,32,0,1,,,,,,,,0,,,78,0
16512,note_on,32,0,2,,,,,,,,1,,,78,0
16512,note_on,12,0,6,,,,,,,,5,,,64,0
16520,note_on,8,0,1,,,,,,,,0,,,76,105
16520,note_on,8,0,2,,,,,,,,1,,,76,105
16536,note_on,96,0,3,,,,,,,,2,,,64,0
16548,note_on,48,0,5,,,,,,,,4,,,45,0
16548,note_on,36,0,6,,,,,,,,5,,,73,0
16548,note_on,0,0,6,,,,,,,,5,,,57,0
16548,note_on,48,0,4,,,,,,,,3,,,57,0
16552,note_on,32,0,1,,,,,,,,0,,,76,0
16552,note_on,32,0,2,,,,,,,,1,,,76,0
16560,note_on,12,0,6,,,,,,,,5,,,59,105
16560,note_on,8,0,2,,,,,,,,1,,,71,105
16560,note_on,0,0,6,,,,,,,,5,,,63,105
16560,note_on,12,0,4,,,,,,,,3,,,59,105
16560,note_on,8,0,1,,,,,,,,0,,,71,105
16560,note_on,24,0,3,,,,,,,,2,,,63,72
16560,note_on,0,0,6,,,,,,,,5,,,71,105
16560,note_on,12,0,5,,,,,,,,4,,,47,105
16656,note_on,96,0,6,,,,,,,,5,,,63,0
16656,note_on,96,0,2,,,,,,,,1,,,71,0
16656,note_on,96,0,1,,,,,,,,0,,,71,0
16656,note_on,96,0,4,,,,,,,,3,,,59,0
16656,note_on,96,0,5,,,,,,,,4,,,47,0
16656,note_on,96,0,3,,,,,,,,2,,,63,0
16656,note_on,0,0,6,,,,,,,,5,,,59,0
16680,note_on,24,0,6,,,,,,,,5,,,47,105
16680,note_on,24,0,2,,,,,,,,1,,,75,105
16680,note_on,24,0,4,,,,,,,,3,,,47,105
16680,note_on,24,0,3,,,,,,,,2,,,66,72
16680,note_on,24,0,1,,,,,,,,0,,,75,105
16680,note_on,0,0,6,,,,,,,,5,,,66,105
16680,note_on,24,0,5,,,,,,,,4,,,35,105
16752,note_on,72,0,6,,,,,,,,5,,,71,0
16776,note_on,24,0,6,,,,,,,,5,,,66,0
16776,note_on,0,0,6,,,,,,,,5,,,47,0
16776,note_on,96,0,2,,,,,,,,1,,,75,0
16776,note_on,96,0,4,,,,,,,,3,,,47,0
16776,note_on,96,0,1,,,,,,,,0,,,75,0
16776,note_on,96,0,3,,,,,,,,2,,,66,0
16776,note_on,96,0,5,,,,,,,,4,,,35,0
16800,note_on,24,0,3,,,,,,,,2,,,68,72
16800,note_on,24,0,4,,,,,,,,3,,,52,105
16800,note_on,24,0,2,,,,,,,,1,,,76,105
16800,note_on,0,0,6,,,,,,,,5,,,64,105
16800,note_on,0,0,6,,,,,,,,5,,,68,105
16800,note_on,24,0,6,,,,,,,,5,,,52,105
16800,note_on,24,0,1,,,,,,,,0,,,76,105
16800,note_on,24,0,5,,,,,,,,4,,,40,105
16896,note_on,96,0,2,,,,,,,,1,,,76,0
16896,note_on,96,0,1,,,,,,,,0,,,76,0
16920,note_on,24,0,1,,,,,,,,0,,,75,105
16920,note_on,24,0,2,,,,,,,,1,,,75,105
16968,note_on,48,0,2,,,,,,,,1,,,75,0
16968,note_on,48,0,1,,,,,,,,0,,,75,0
16980,note_on,12,0,1,,,,,,,,0,,,73,105
16980,note_on,12,0,2,,,,,,,,1,,,73,105
16992,note_on,0,0,6,,,,,,,,5,,,52,0
16992,note_on,0,0,6,,,,,,,,5,,,68,0
16992,note_on,192,0,6,,,,,,,,5,,,64,0
16992,note_on,192,0,5,,,,,,,,4,,,40,0
16992,note_on,192,0,3,,,,,,,,2,,,68,0
16992,note_on,192,0,4,,,,,,,,3,,,52,0
17028,note_on,48,0,2,,,,,,,,1,,,73,0
17028,note_on,48,0,1,,,,,,,,0,,,73,0
17040,note_on,12,0,1,,,,,,,,0,,,71,105
17040,note_on,12,0,2,,,,,,,,1,,,71,105
17088,note_on,48,0,1,,,,,,,,0,,,71,0
17088,note_on,48,0,2,,,,,,,,1,,,71,0
17100,note_on,12,0,1,,,,,,,,0,,,69,105
17100,note_on,12,0,2,,,,,,,,1,,,69,105
17148,note_on,48,0,2,,,,,,,,1,,,69,0
17148,note_on,48,0,1,,,,,,,,0,,,69,0
17160,note_on,12,0,2,,,,,,,,1,,,68,105
17160,note_on,12,0,1,,,,,,,,0,,,68,105
17208,note_on,48,0,2,,,,,,,,1,,,68,0
17208,note_on,48,0,1,,,,,,,,0,,,68,0
17220,note_on,12,0,1,,,,,,,,0,,,66,105
17220,note_on,12,0,2,,,,,,,,1,,,66,105
17268,note_on,48,0,1,,,,,,,,0,,,66,0
17268,note_on,48,0,2,,,,,,,,1,,,66,0
17280,note_on,0,0,6,,,,,,,,5,,,68,105
17280,note_on,0,0,6,,,,,,,,5,,,52,105
17280,note_on,288,0,6,,,,,,,,5,,,76,105
17280,note_on,288,0,5,,,,,,,,4,,,40,105
17280,note_on,12,0,1,,,,,,,,0,,,64,105
17280,note_on,12,0,2,,,,,,,,1,,,64,105
17280,note_on,288,0,3,,,,,,,,2,,,59,72
17280,note_on,288,0,4,,,,,,,,3,,,52,105
17376,note_on,96,0,1,,,,,,,,0,,,64,0
17376,note_on,96,0,6,,,,,,,,5,,,68,0
17400,note_on,24,0,1,,,,,,,,0,,,76,105
17400,note_on,24,0,6,,,,,,,,5,,,64,105
17472,note_on,192,0,4,,,,,,,,3,,,52,0
17472,note_on,192,0,2,,,,,,,,1,,,64,0
17472,note_on,192,0,3,,,,,,,,2,,,59,0
17472,note_on,0,0,6,,,,,,,,5,,,76,0
17472,note_on,72,0,6,,,,,,,,5,,,52,0
17472,note_on,192,0,5,,,,,,,,4,,,40,0
17496,note_on,24,0,6,,,,,,,,5,,,64,0
17496,note_on,96,0,1,,,,,,,,0,,,76,0
17520,note_on,24,0,1,,,,,,,,0,,,76,105
17520,note_on,24,0,6,,,,,,,,5,,,64,105
17580,note_on,60,0,6,,,,,,,,5,,,64,105
17580,note_on,108,0,5,,,,,,,,4,,,52,105
17580,note_on,108,0,4,,,,,,,,3,,,64,105
17616,note_on,36,0,6,,,,,,,,5,,,64,0
17628,note_on,48,0,4,,,,,,,,3,,,64,0
17628,note_on,48,0,5,,,,,,,,4,,,52,0
17628,note_on,12,0,6,,,,,,,,5,,,64,0
17640,note_on,12,0,4,,,,,,,,3,,,63,105
17640,note_on,12,0,6,,,,,,,,5,,,63,105
17640,note_on,168,0,3,,,,,,,,2,,,68,72
17640,note_on,12,0,5,,,,,,,,4,,,51,105
17688,note_on,48,0,5,,,,,,,,4,,,51,0
17688,note_on,48,0,6,,,,,,,,5,,,63,0
17688,note_on,48,0,4,,,,,,,,3,,,63,0
17700,note_on,12,0,6,,,,,,,,5,,,64,105
17700,note_on,12,0,4,,,,,,,,3,,,64,105
17700,note_on,12,0,5,,,,,,,,4,,,52,105
17736,note_on,96,0,3,,,,,,,,2,,,68,0
17748,note_on,48,0,6,,,,,,,,5,,,64,0
17748,note_on,48,0,4,,,,,,,,3,,,64,0
17748,note_on,48,0,5,,,,,,,,4,,,52,0
17760,note_on,24,0,3,,,,,,,,2,,,68,72
17760,note_on,12,0,6,,,,,,,,5,,,52,105
17760,note_on,12,0,5,,,,,,,,4,,,40,105
17760,note_on,12,0,4,,,,,,,,3,,,52,105
17856,note_on,336,0,1,,,,,,,,0,,,76,0
17880,note_on,120,0,6,,,,,,,,5,,,71,105
17880,note_on,24,0,1,,,,,,,,0,,,75,105
17928,note_on,48,0,1,,,,,,,,0,,,75,0
17940,note_on,12,0,1,,,,,,,,0,,,73,105
17952,note_on,72,0,6,,,,,,,,5,,,52,0
17952,note_on,192,0,5,,,,,,,,4,,,40,0
17952,note_on,192,0,4,,,,,,,,3,,,52,0
17952,note_on,192,0,3,,,,,,,,2,,,68,0
17976,note_on,24,0,6,,,,,,,,5,,,71,0
17988,note_on,48,0,1,,,,,,,,0,,,73,0
18000,note_on,12,0,1,,,,,,,,0,,,71,105
18000,note_on,24,0,6,,,,,,,,5,,,75,105
18096,note_on,96,0,6,,,,,,,,5,,,75,0
18096,note_on,96,0,1,,,,,,,,0,,,71,0
18120,note_on,168,0,3,,,,,,,,2,,,63,72
18120,note_on,168,0,4,,,,,,,,3,,,59,105
18120,note_on,24,0,1,,,,,,,,0,,,69,105
18120,note_on,24,0,6,,,,,,,,5,,,59,105
18120,note_on,0,0,6,,,,,,,,5,,,78,105
18120,note_on,0,0,6,,,,,,,,5,,,63,105
18120,note_on,168,0,5,,,,,,,,4,,,47,105
18216,note_on,96,0,5,,,,,,,,4,,,47,0
18216,note_on,96,0,1,,,,,,,,0,,,69,0
18216,note_on,96,0,3,,,,,,,,2,,,63,0
18216,note_on,96,0,4,,,,,,,,3,,,59,0
18216,note_on,96,0,6,,,,,,,,5,,,63,0
18216,note_on,0,0,6,,,,,,,,5,,,59,0
18216,note_on,0,0,6,,,,,,,,5,,,78,0
18240,note_on,24,0,4,,,,,,,,3,,,52,105
18240,note_on,0,0,6,,,,,,,,5,,,64,105
18240,note_on,0,0,6,,,,,,,,5,,,52,105
18240,note_on,24,0,6,,,,,,,,5,,,80,105
18240,note_on,24,0,5,,,,,,,,4,,,40,105
18240,note_on,24,0,3,,,,,,,,2,,,59,72
18240,note_on,24,0,1,,,,,,,,0,,,68,105
18336,note_on,96,0,6,,,,,,,,5,,,64,0
18336,note_on,96,0,1,,,,,,,,0,,,68,0
18336,note_on,0,0,6,,,,,,,,5,,,80,0
18360,note_on,24,0,6,,,,,,,,5,,,68,105
18360,note_on,24,0,1,,,,,,,,0,,,85,105
18360,note_on,888,0,2,,,,,,,,1,,,76,105
18432,note_on,72,0,6,,,,,,,,5,,,52,0
18432,note_on,192,0,4,,,,,,,,3,,,52,0
18432,note_on,192,0,3,,,,,,,,2,,,59,0
18432,note_on,192,0,5,,,,,,,,4,,,40,0
18456,note_on,24,0,6,,,,,,,,5,,,68,0
18456,note_on,96,0,1,,,,,,,,0,,,85,0
18456,note_on,96,0,2,,,,,,,,1,,,76,0
18480,note_on,24,0,6,,,,,,,,5,,,73,105
18480,note_on,24,0,2,,,,,,,,1,,,76,105
18480,note_on,24,0,1,,,,,,,,0,,,85,105
18540,note_on,60,0,6,,,,,,,,5,,,64,105
18540,note_on,108,0,4,,,,,,,,3,,,64,105
18540,note_on,108,0,5,,,,,,,,4,,,52,105
18588,note_on,48,0,6,,,,,,,,5,,,64,0
18588,note_on,48,0,5,,,,,,,,4,,,52,0
18588,note_on,48,0,4,,,,,,,,3,,,64,0
18600,note_on,12,0,6,,,,,,,,5,,,63,105
18600,note_on,12,0,4,,,,,,,,3,,,63,105
18600,note_on,168,0,3,,,,,,,,2,,,64,72
18600,note_on,12,0,5,,,,,,,,4,,,51,105
18648,note_on,48,0,4,,,,,,,,3,,,63,0
18648,note_on,48,0,5,,,,,,,,4,,,51,0
18648,note_on,48,0,6,,,,,,,,5,,,63,0
18660,note_on,12,0,4,,,,,,,,3,,,64,105
18660,note_on,12,0,5,,,,,,,,4,,,52,105
18660,note_on,12,0,6,,,,,,,,5,,,64,105
18696,note_on,96,0,3,,,,,,,,2,,,64,0
18708,note_on,48,0,6,,,,,,,,5,,,64,0
18708,note_on,48,0,4,,,,,,,,3,,,64,0
18708,note_on,48,0,5,,,,,,,,4,,,52,0
18720,note_on,12,0,4,,,,,,,,3,,,57,105
18720,note_on,12,0,5,,,,,,,,4,,,45,105
18720,note_on,12,0,6,,,,,,,,5,,,57,105
18720,note_on,24,0,3,,,,,,,,2,,,61,72
18768,note_on,48,0,6,,,,,,,,5,,,73,0
18816,note_on,336,0,1,,,,,,,,0,,,85,0
18816,note_on,336,0,2,,,,,,,,1,,,76,0
18840,note_on,72,0,6,,,,,,,,5,,,78,105
18840,note_on,24,0,1,,,,,,,,0,,,83,105
18840,note_on,24,0,2,,,,,,,,1,,,75,105
18888,note_on,48,0,1,,,,,,,,0,,,83,0
18888,note_on,48,0,2,,,,,,,,1,,,75,0
18900,note_on,12,0,2,,,,,,,,1,,,73,105
18900,note_on,12,0,1,,,,,,,,0,,,81,105
18912,note_on,192,0,5,,,,,,,,4,,,45,0
18912,note_on,72,0,6,,,,,,,,5,,,57,0
18912,note_on,192,0,3,,,,,,,,2,,,61,0
18912,note_on,192,0,4,,,,,,,,3,,,57,0
18936,note_on,24,0,6,,,,,,,,5,,,78,0
18948,note_on,48,0,1,,,,,,,,0,,,81,0
18948,note_on,48,0,2,,,,,,,,1,,,73,0
18960,note_on,24,0,6,,,,,,,,5,,,71,105
18960,note_on,12,0,2,,,,,,,,1,,,71,105
18960,note_on,12,0,1,,,,,,,,0,,,80,105
19056,note_on,96,0,1,,,,,,,,0,,,80,0
19056,note_on,96,0,2,,,,,,,,1,,,71,0
19056,note_on,96,0,6,,,,,,,,5,,,71,0
19080,note_on,24,0,6,,,,,,,,5,,,75,105
19080,note_on,0,0,6,,,,,,,,5,,,66,105
19080,note_on,24,0,2,,,,,,,,1,,,69,105
19080,note_on,24,0,1,,,,,,,,0,,,78,105
19080,note_on,0,0,6,,,,,,,,5,,,59,105
19080,note_on,168,0,3,,,,,,,,2,,,63,72
19080,note_on,168,0,5,,,,,,,,4,,,47,105
19080,note_on,168,0,4,,,,,,,,3,,,59,105
19176,note_on,96,0,6,,,,,,,,5,,,66,0
19176,note_on,96,0,3,,,,,,,,2,,,63,0
19176,note_on,0,0,6,,,,,,,,5,,,59,0
19176,note_on,96,0,1,,,,,,,,0,,,78,0
19176,note_on,96,0,2,,,,,,,,1,,,69,0
19176,note_on,96,0,5,,,,,,,,4,,,47,0
19176,note_on,96,0,4,,,,,,,,3,,,59,0
19176,note_on,0,0,6,,,,,,,,5,,,75,0
19200,note_on,0,0,6,,,,,,,,5,,,68,105
19200,note_on,0,0,6,,,,,,,,5,,,52,105
19200,note_on,24,0,2,,,,,,,,1,,,68,105
19200,note_on,24,0,4,,,,,,,,3,,,52,105
19200,note_on,24,0,1,,,,,,,,0,,,76,105
19200,note_on,24,0,3,,,,,,,,2,,,59,72
19200,note_on,24,0,5,,,,,,,,4,,,40,105
19200,note_on,24,0,6,,,,,,,,5,,,76,105
19296,note_on,96,0,6,,,,,,,,5,,,68,0
19296,note_on,0,0,6,,,,,,,,5,,,76,0
19296,note_on,96,0,1,,,,,,,,0,,,76,0
19296,note_on,96,0,2,,,,,,,,1,,,68,0
19320,note_on,24,0,6,,,,,,,,5,,,73,105
19320,note_on,24,0,1,,,,,,,,0,,,76,105
19320,note_on,24,0,2,,,,,,,,1,,,85,105
19392,note_on,192,0,5,,,,,,,,4,,,40,0
19392,note_on,192,0,3,,,,,,,,2,,,59,0
19392,note_on,192,0,4,,,,,,,,3,,,52,0
19392,note_on,72,0,6,,,,,,,,5,,,52,0
19416,note_on,96,0,2,,,,,,,,1,,,85,0
19416,note_on,24,0,6,,,,,,,,5,,,73,0
19416,note_on,96,0,1,,,,,,,,0,,,76,0
19440,note_on,24,0,6,,,,,,,,5,,,78,105
19440,note_on,24,0,2,,,,,,,,1,,,85,105
19440,note_on,24,0,1,,,,,,,,0,,,81,105
19500,note_on,60,0,6,,,,,,,,5,,,57,105
19500,note_on,108,0,5,,,,,,,,4,,,45,105
19500,note_on,108,0,4,,,,,,,,3,,,57,105
19548,note_on,48,0,6,,,,,,,,5,,,57,0
19548,note_on,48,0,5,,,,,,,,4,,,45,0
19548,note_on,48,0,4,,,,,,,,3,,,57,0
19560,note_on,168,0,3,,,,,,,,2,,,73,72
19560,note_on,0,0,6,,,,,,,,5,,,73,105
19560,note_on,12,0,6,,,,,,,,5,,,56,105
19560,note_on,12,0,4,,,,,,,,3,,,56,105
19560,note_on,12,0,5,,,,,,,,4,,,44,105
19608,note_on,48,0,6,,,,,,,,5,,,56,0
19608,note_on,48,0,4,,,,,,,,3,,,56,0
19608,note_on,48,0,5,,,,,,,,4,,,44,0
19620,note_on,12,0,6,,,,,,,,5,,,57,105
19620,note_on,12,0,4,,,,,,,,3,,,57,105
19620,note_on,12,0,5,,,,,,,,4,,,45,105
19656,note_on,36,0,6,,,,,,,,5,,,73,0
19656,note_on,96,0,3,,,,,,,,2,,,73,0
19668,note_on,48,0,5,,,,,,,,4,,,45,0
19668,note_on,48,0,4,,,,,,,,3,,,57,0
19668,note_on,12,0,6,,,,,,,,5,,,57,0
19680,note_on,0,0,6,,,,,,,,5,,,66,105
19680,note_on,12,0,6,,,,,,,,5,,,51,105
19680,note_on,24,0,3,,,,,,,,2,,,66,72
19680,note_on,12,0,4,,,,,,,,3,,,51,105
19680,note_on,12,0,5,,,,,,,,4,,,39,105
19728,note_on,48,0,6,,,,,,,,5,,,78,0
19776,note_on,336,0,1,,,,,,,,0,,,81,0
19776,note_on,336,0,2,,,,,,,,1,,,85,0
19800,note_on,24,0,1,,,,,,,,0,,,78,105
19800,note_on,72,0,6,,,,,,,,5,,,71,105
19800,note_on,24,0,2,,,,,,,,1,,,83,105
19848,note_on,48,0,2,,,,,,,,1,,,83,0
19860,note_on,12,0,2,,,,,,,,1,,,81,105
19872,note_on,0,0,6,,,,,,,,5,,,51,0
19872,note_on,72,0,6,,,,,,,,5,,,66,0
19872,note_on,192,0,5,,,,,,,,4,,,39,0
19872,note_on,192,0,4,,,,,,,,3,,,51,0
19872,note_on,192,0,3,,,,,,,,2,,,66,0
19896,note_on,96,0,1,,,,,,,,0,,,78,0
19908,note_on,48,0,2,,,,,,,,1,,,81,0
19920,note_on,12,0,2,,,,,,,,1,,,80,105
19920,note_on,24,0,1,,,,,,,,0,,,71,105
19920,note_on,48,0,6,,,,,,,,5,,,63,105
20016,note_on,96,0,1,,,,,,,,0,,,71,0
20016,note_on,96,0,6,,,,,,,,5,,,71,0
20016,note_on,96,0,2,,,,,,,,1,,,80,0
20040,note_on,0,0,6,,,,,,,,5,,,59,105
20040,note_on,24,0,6,,,,,,,,5,,,66,105
20040,note_on,168,0,4,,,,,,,,3,,,59,105
20040,note_on,168,0,5,,,,,,,,4,,,47,105
20040,note_on,24,0,1,,,,,,,,0,,,69,105
20040,note_on,24,0,2,,,,,,,,1,,,78,105
20040,note_on,168,0,3,,,,,,,,2,,,63,72
20112,note_on,72,0,6,,,,,,,,5,,,63,0
20136,note_on,24,0,6,,,,,,,,5,,,59,0
20136,note_on,0,0,6,,,,,,,,5,,,66,0
20136,note_on,96,0,4,,,,,,,,3,,,59,0
20136,note_on,96,0,5,,,,,,,,4,,,47,0
20136,note_on,96,0,1,,,,,,,,0,,,69,0
20136,note_on,96,0,3,,,,,,,,2,,,63,0
20136,note_on,96,0,2,,,,,,,,1,,,78,0
20160,note_on,24,0,1,,,,,,,,0,,,68,105
20160,note_on,0,0,6,,,,,,,,5,,,64,105
20160,note_on,24,0,4,,,,,,,,3,,,52,105
20160,note_on,24,0,3,,,,,,,,2,,,59,72
20160,note_on,24,0,2,,,,,,,,1,,,76,105
20160,note_on,0,0,6,,,,,,,,5,,,68,105
20160,note_on,24,0,6,,,,,,,,5,,,52,105
20160,note_on,24,0,5,,,,,,,,4,,,40,105
20208,note_on,48,0,1,,,,,,,,0,,,68,0
20220,note_on,12,0,1,,,,,,,,0,,,64,105
20268,note_on,48,0,1,,,,,,,,0,,,64,0
20280,note_on,12,0,1,,,,,,,,0,,,66,105
20328,note_on,48,0,1,,,,,,,,0,,,66,0
20340,note_on,12,0,1,,,,,,,,0,,,68,105
20352,note_on,192,0,6,,,,,,,,5,,,64,0
20352,note_on,192,0,3,,,,,,,,2,,,59,0
20352,note_on,192,0,4,,,,,,,,3,,,52,0
20352,note_on,0,0,6,,,,,,,,5,,,68,0
20352,note_on,192,0,5,,,,,,,,4,,,40,0
20352,note_on,192,0,2,,,,,,,,1,,,76,0
20352,note_on,0,0,6,,,,,,,,5,,,52,0
20388,note_on,48,0,1,,,,,,,,0,,,68,0
20400,note_on,12,0,1,,,,,,,,0,,,69,105
20448,note_on,48,0,1,,,,,,,,0,,,69,0
20460,note_on,12,0,1,,,,,,,,0,,,71,105
20508,note_on,48,0,1,,,,,,,,0,,,71,0
20520,note_on,168,0,6,,,,,,,,5,,,47,105
20520,note_on,0,0,6,,,,,,,,5,,,63,105
20520,note_on,0,0,6,,,,,,,,5,,,59,105
20520,note_on,168,0,4,,,,,,,,3,,,47,105
20520,note_on,168,0,3,,,,,,,,2,,,66,72
20520,note_on,168,0,5,,,,,,,,4,,,35,105
20520,note_on,12,0,1,,,,,,,,0,,,73,105
20568,note_on,48,0,1,,,,,,,,0,,,73,0
20580,note_on,12,0,1,,,,,,,,0,,,75,105
20616,note_on,96,0,3,,,,,,,,2,,,66,0
20616,note_on,96,0,6,,,,,,,,5,,,59,0
20616,note_on,0,0,6,,,,,,,,5,,,47,0
20616,note_on,96,0,5,,,,,,,,4,,,35,0
20616,note_on,0,0,6,,,,,,,,5,,,63,0
20616,note_on,96,0,4,,,,,,,,3,,,47,0
20628,note_on,48,0,1,,,,,,,,0,,,75,0
20640,note_on,288,0,2,,,,,,,,1,,,68,105
20640,note_on,0,0,6,,,,,,,,5,,,44,105
20640,note_on,24,0,3,,,,,,,,2,,,59,72
20640,note_on,12,0,1,,,,,,,,0,,,76,105
20640,note_on,24,0,5,,,,,,,,4,,,32,105
20640,note_on,24,0,6,,,,,,,,5,,,64,105
20640,note_on,0,0,6,,,,,,,,5,,,59,105
20640,note_on,24,0,4,,,,,,,,3,,,44,105
20688,note_on,48,0,2,,,,,,,,1,,,68,0
20700,note_on,12,0,2,,,,,,,,1,,,64,105
20736,note_on,96,0,5,,,,,,,,4,,,32,0
20736,note_on,96,0,3,,,,,,,,2,,,59,0
20736,note_on,96,0,4,,,,,,,,3,,,44,0
20736,note_on,0,0,6,,,,,,,,5,,,64,0
20736,note_on,0,0,6,,,,,,,,5,,,44,0
20736,note_on,96,0,6,,,,,,,,5,,,59,0
20748,note_on,48,0,2,,,,,,,,1,,,64,0
20760,note_on,24,0,4,,,,,,,,3,,,40,105
20760,note_on,12,0,2,,,,,,,,1,,,66,105
20760,note_on,24,0,6,,,,,,,,5,,,40,105
20760,note_on,24,0,5,,,,,,,,4,,,28,105
20760,note_on,24,0,3,,,,,,,,2,,,56,72
20808,note_on,48,0,2,,,,,,,,1,,,66,0
20820,note_on,12,0,2,,,,,,,,1,,,68,105
20832,note_on,192,0,1,,,,,,,,0,,,76,0
20856,note_on,96,0,5,,,,,,,,4,,,28,0
20856,note_on,96,0,3,,,,,,,,2,,,56,0
20856,note_on,96,0,4,,,,,,,,3,,,40,0
20856,note_on,96,0,6,,,,,,,,5,,,40,0
20868,note_on,48,0,2,,,,,,,,1,,,68,0
20880,note_on,12,0,2,,,,,,,,1,,,69,105
20880,note_on,48,0,1,,,,,,,,0,,,69,92
20928,note_on,48,0,2,,,,,,,,1,,,69,0
20940,note_on,12,0,2,,,,,,,,1,,,71,105
20988,note_on,48,0,2,,,,,,,,1,,,71,0
21000,note_on,144,0,3,,,,,,,,2,,,66,72
21000,note_on,144,0,5,,,,,,,,4,,,35,105
21000,note_on,144,0,6,,,,,,,,5,,,59,105
21000,note_on,0,0,6,,,,,,,,5,,,63,105
21000,note_on,0,0,6,,,,,,,,5,,,66,105
21000,note_on,0,0,6,,,,,,,,5,,,47,105
21000,note_on,144,0,4,,,,,,,,3,,,47,105
21000,note_on,12,0,2,,,,,,,,1,,,73,105
21048,note_on,48,0,2,,,,,,,,1,,,73,0
21060,note_on,12,0,2,,,,,,,,1,,,75,105
21072,note_on,192,0,1,,,,,,,,0,,,69,0
21096,note_on,0,0,6,,,,,,,,5,,,63,0
21096,note_on,0,0,6,,,,,,,,5,,,59,0
21096,note_on,96,0,4,,,,,,,,3,,,47,0
21096,note_on,96,0,3,,,,,,,,2,,,66,0
21096,note_on,96,0,5,,,,,,,,4,,,35,0
21096,note_on,0,0,6,,,,,,,,5,,,66,0
21096,note_on,96,0,6,,,,,,,,5,,,47,0
21108,note_on,48,0,2,,,,,,,,1,,,75,0
21120,note_on,48,0,1,,,,,,,,0,,,68,105
21120,note_on,24,0,3,,,,,,,,2,,,59,72
21120,note_on,0,0,6,,,,,,,,5,,,52,105
21120,note_on,0,0,6,,,,,,,,5,,,59,105
21120,note_on,24,0,6,,,,,,,,5,,,68,105
21120,note_on,12,0,2,,,,,,,,1,,,76,105
21120,note_on,24,0,5,,,,,,,,4,,,40,105
21120,note_on,0,0,6,,,,,,,,5,,,64,105
21120,note_on,24,0,4,,,,,,,,3,,,52,105
21168,note_on,48,0,1,,,,,,,,0,,,68,0
21180,note_on,12,0,1,,,,,,,,0,,,64,105
21216,note_on,96,0,4,,,,,,,,3,,,52,0
21216,note_on,96,0,6,,,,,,,,5,,,52,0
21216,note_on,96,0,3,,,,,,,,2,,,59,0
21216,note_on,96,0,5,,,,,,,,4,,,40,0
21228,note_on,48,0,1,,,,,,,,0,,,64,0
21240,note_on,24,0,6,,,,,,,,5,,,40,105
21240,note_on,24,0,3,,,,,,,,2,,,56,72
21240,note_on,24,0,4,,,,,,,,3,,,40,105
21240,note_on,12,0,1,,,,,,,,0,,,66,105
21240,note_on,24,0,5,,,,,,,,4,,,28,105
21288,note_on,48,0,1,,,,,,,,0,,,66,0
21300,note_on,12,0,1,,,,,,,,0,,,68,105
21312,note_on,192,0,2,,,,,,,,1,,,76,0
21312,note_on,0,0,6,,,,,,,,5,,,64,0
21312,note_on,0,0,6,,,,,,,,5,,,59,0
21312,note_on,72,0,6,,,,,,,,5,,,68,0
21336,note_on,96,0,4,,,,,,,,3,,,40,0
21336,note_on,96,0,5,,,,,,,,4,,,28,0
21336,note_on,24,0,6,,,,,,,,5,,,40,0
21336,note_on,96,0,3,,,,,,,,2,,,56,0
21348,note_on,48,0,1,,,,,,,,0,,,68,0
21360,note_on,48,0,2,,,,,,,,1,,,69,92
21360,note_on,12,0,1,,,,,,,,0,,,69,105
21408,note_on,48,0,1,,,,,,,,0,,,69,0
21420,note_on,12,0,1,,,,,,,,0,,,71,105
21468,note_on,48,0,1,,,,,,,,0,,,71,0
21480,note_on,144,0,5,,,,,,,,4,,,35,105
21480,note_on,0,0,6,,,,,,,,5,,,66,105
21480,note_on,0,0,6,,,,,,,,5,,,59,105
21480,note_on,0,0,6,,,,,,,,5,,,63,105
21480,note_on,12,0,1,,,,,,,,0,,,73,105
21480,note_on,144,0,3,,,,,,,,2,,,63,72
21480,note_on,144,0,4,,,,,,,,3,,,47,105
21480,note_on,144,0,6,,,,,,,,5,,,47,105
21528,note_on,48,0,1,,,,,,,,0,,,73,0
21540,note_on,12,0,1,,,,,,,,0,,,75,105
21552,note_on,192,0,2,,,,,,,,1,,,69,0
21576,note_on,96,0,6,,,,,,,,5,,,63,0
21576,note_on,0,0,6,,,,,,,,5,,,47,0
21576,note_on,0,0,6,,,,,,,,5,,,66,0
21576,note_on,0,0,6,,,,,,,,5,,,59,0
21576,note_on,96,0,3,,,,,,,,2,,,63,0
21576,note_on,96,0,4,,,,,,,,3,,,47,0
21576,note_on,96,0,5,,,,,,,,4,,,35,0
21588,note_on,48,0,1,,,,,,,,0,,,75,0
21600,note_on,24,0,5,,,,,,,,4,,,40,105
21600,note_on,12,0,1,,,,,,,,0,,,76,105
21600,note_on,24,0,6,,,,,,,,5,,,68,105
21600,note_on,0,0,6,,,,,,,,5,,,52,105
21600,note_on,48,0,2,,,,,,,,1,,,68,105
21600,note_on,0,0,6,,,,,,,,5,,,64,105
21600,note_on,0,0,6,,,,,,,,5,,,59,105
21600,note_on,24,0,4,,,,,,,,3,,,52,105
21600,note_on,24,0,3,,,,,,,,2,,,59,72
21648,note_on,48,0,2,,,,,,,,1,,,68,0
21660,note_on,12,0,2,,,,,,,,1,,,64,105
21696,note_on,96,0,4,,,,,,,,3,,,52,0
21696,note_on,96,0,5,,,,,,,,4,,,40,0
21696,note_on,96,0,3,,,,,,,,2,,,59,0
21696,note_on,96,0,6,,,,,,,,5,,,52,0
21708,note_on,48,0,2,,,,,,,,1,,,64,0
21720,note_on,24,0,5,,,,,,,,4,,,28,105
21720,note_on,24,0,4,,,,,,,,3,,,40,105
21720,note_on,24,0,6,,,,,,,,5,,,40,105
21720,note_on,12,0,2,,,,,,,,1,,,66,105
21720,note_on,24,0,3,,,,,,,,2,,,56,72
21768,note_on,48,0,2,,,,,,,,1,,,66,0
21780,note_on,12,0,2,,,,,,,,1,,,68,105
21792,note_on,192,0,1,,,,,,,,0,,,76,0
21792,note_on,72,0,6,,,,,,,,5,,,68,0
21792,note_on,0,0,6,,,,,,,,5,,,59,0
21792,note_on,0,0,6,,,,,,,,5,,,64,0
21816,note_on,96,0,5,,,,,,,,4,,,28,0
21816,note_on,96,0,4,,,,,,,,3,,,40,0
21816,note_on,96,0,3,,,,,,,,2,,,56,0
21816,note_on,24,0,6,,,,,,,,5,,,40,0
21828,note_on,48,0,2,,,,,,,,1,,,68,0
21840,note_on,48,0,1,,,,,,,,0,,,69,92
21840,note_on,12,0,2,,,,,,,,1,,,69,105
21888,note_on,48,0,2,,,,,,,,1,,,69,0
21900,note_on,12,0,2,,,,,,,,1,,,71,105
21948,note_on,48,0,2,,,,,,,,1,,,71,0
21960,note_on,12,0,2,,,,,,,,1,,,73,105
21960,note_on,0,0,6,,,,,,,,5,,,59,105
21960,note_on,144,0,5,,,,,,,,4,,,35,105
21960,note_on,0,0,6,,,,,,,,5,,,66,105
21960,note_on,144,0,4,,,,,,,,3,,,47,105
21960,note_on,144,0,6,,,,,,,,5,,,63,105
21960,note_on,144,0,3,,,,,,,,2,,,63,72
21960,note_on,0,0,6,,,,,,,,5,,,47,105
22008,note_on,48,0,2,,,,,,,,1,,,73,0
22020,note_on,12,0,2,,,,,,,,1,,,75,105
22032,note_on,192,0,1,,,,,,,,0,,,69,0
22056,note_on,96,0,3,,,,,,,,2,,,63,0
22056,note_on,96,0,4,,,,,,,,3,,,47,0
22056,note_on,96,0,5,,,,,,,,4,,,35,0
22056,note_on,0,0,6,,,,,,,,5,,,66,0
22056,note_on,0,0,6,,,,,,,,5,,,47,0
22056,note_on,0,0,6,,,,,,,,5,,,63,0
22056,note_on,96,0,6,,,,,,,,5,,,59,0
22068,note_on,48,0,2,,,,,,,,1,,,75,0
22080,note_on,24,0,6,,,,,,,,5,,,68,105
22080,note_on,0,0,6,,,,,,,,5,,,64,105
22080,note_on,0,0,6,,,,,,,,5,,,52,105
22080,note_on,24,0,4,,,,,,,,3,,,52,105
22080,note_on,0,0,6,,,,,,,,5,,,59,105
22080,note_on,24,0,3,,,,,,,,2,,,59,72
22080,note_on,48,0,1,,,,,,,,0,,,68,92
22080,note_on,12,0,2,,,,,,,,1,,,76,105
22080,note_on,24,0,5,,,,,,,,4,,,37,105
22128,note_on,48,0,2,,,,,,,,1,,,76,0
22140,note_on,12,0,2,,,,,,,,1,,,76,105
22176,note_on,96,0,5,,,,,,,,4,,,37,0
22176,note_on,96,0,3,,,,,,,,2,,,59,0
22176,note_on,96,0,4,,,,,,,,3,,,52,0
22176,note_on,96,0,6,,,,,,,,5,,,59,0
22176,note_on,0,0,6,,,,,,,,5,,,68,0
22176,note_on,0,0,6,,,,,,,,5,,,64,0
22176,note_on,0,0,6,,,,,,,,5,,,52,0
22188,note_on,48,0,2,,,,,,,,1,,,76,0
22200,note_on,24,0,4,,,,,,,,3,,,64,105
22200,note_on,12,0,2,,,,,,,,1,,,76,105
22200,note_on,24,0,3,,,,,,,,2,,,71,72
22200,note_on,24,0,6,,,,,,,,5,,,64,105
22200,note_on,24,0,5,,,,,,,,4,,,52,105
22248,note_on,48,0,2,,,,,,,,1,,,76,0
22260,note_on,12,0,2,,,,,,,,1,,,76,105
22272,note_on,192,0,1,,,,,,,,0,,,68,0
22296,note_on,96,0,5,,,,,,,,4,,,52,0
22296,note_on,96,0,4,,,,,,,,3,,,64,0
22296,note_on,96,0,3,,,,,,,,2,,,71,0
22296,note_on,96,0,6,,,,,,,,5,,,64,0
22308,note_on,48,0,2,,,,,,,,1,,,76,0
22320,note_on,24,0,6,,,,,,,,5,,,80,105
22320,note_on,0,0,6,,,,,,,,5,,,64,105
22320,note_on,0,0,6,,,,,,,,5,,,76,105
22320,note_on,24,0,3,,,,,,,,2,,,71,72
22320,note_on,12,0,2,,,,,,,,1,,,80,105
22320,note_on,24,0,4,,,,,,,,3,,,64,105
22320,note_on,24,0,5,,,,,,,,4,,,52,105
22368,note_on,48,0,2,,,,,,,,1,,,80,0
22380,note_on,12,0,2,,,,,,,,1,,,76,105
22416,note_on,96,0,6,,,,,,,,5,,,64,0
22416,note_on,96,0,3,,,,,,,,2,,,71,0
22416,note_on,96,0,4,,,,,,,,3,,,64,0
22416,note_on,96,0,5,,,,,,,,4,,,52,0
22428,note_on,48,0,2,,,,,,,,1,,,76,0
22440,note_on,24,0,5,,,,,,,,4,,,52,105
22440,note_on,12,0,2,,,,,,,,1,,,80,105
22440,note_on,24,0,6,,,,,,,,5,,,64,105
22440,note_on,24,0,3,,,,,,,,2,,,71,72
22440,note_on,24,0,4,,,,,,,,3,,,64,105
22488,note_on,48,0,2,,,,,,,,1,,,80,0
22500,note_on,12,0,2,,,,,,,,1,,,76,105
22512,note_on,72,0,6,,,,,,,,5,,,76,0
22512,note_on,0,0,6,,,,,,,,5,,,80,0
22536,note_on,24,0,6,,,,,,,,5,,,64,0
22536,note_on,96,0,3,,,,,,,,2,,,71,0
22536,note_on,96,0,5,,,,,,,,4,,,52,0
22536,note_on,96,0,4,,,,,,,,3,,,64,0
22548,note_on,48,0,2,,,,,,,,1,,,76,0
22560,note_on,24,0,3,,,,,,,,2,,,66,72
22560,note_on,24,0,6,,,,,,,,5,,,83,105
22560,note_on,24,0,4,,,,,,,,3,,,63,105
22560,note_on,0,0,6,,,,,,,,5,,,78,105
22560,note_on,0,0,6,,,,,,,,5,,,63,105
22560,note_on,12,0,2,,,,,,,,1,,,78,105
22560,note_on,24,0,5,,,,,,,,4,,,51,105
22620,note_on,348,0,1,,,,,,,,0,,,83,105
22656,note_on,96,0,4,,,,,,,,3,,,63,0
22656,note_on,96,0,6,,,,,,,,5,,,63,0
22656,note_on,96,0,5,,,,,,,,4,,,51,0
22656,note_on,96,0,3,,,,,,,,2,,,66,0
22668,note_on,48,0,1,,,,,,,,0,,,83,0
22680,note_on,24,0,5,,,,,,,,4,,,51,105
22680,note_on,12,0,1,,,,,,,,0,,,83,105
22680,note_on,24,0,4,,,,,,,,3,,,63,105
22680,note_on,24,0,6,,,,,,,,5,,,63,105
22680,note_on,24,0,3,,,,,,,,2,,,66,72
22728,note_on,48,0,6,,,,,,,,5,,,63,0
22728,note_on,48,0,1,,,,,,,,0,,,83,0
22728,note_on,48,0,4,,,,,,,,3,,,63,0
22728,note_on,48,0,5,,,,,,,,4,,,51,0
22740,note_on,12,0,6,,,,,,,,5,,,61,105
22740,note_on,12,0,5,,,,,,,,4,,,49,105
22740,note_on,12,0,1,,,,,,,,0,,,83,105
22740,note_on,12,0,4,,,,,,,,3,,,61,105
22752,note_on,192,0,2,,,,,,,,1,,,78,0
22776,note_on,96,0,3,,,,,,,,2,,,66,0
22788,note_on,48,0,6,,,,,,,,5,,,61,0
22788,note_on,48,0,5,,,,,,,,4,,,49,0
22788,note_on,48,0,1,,,,,,,,0,,,83,0
22788,note_on,48,0,4,,,,,,,,3,,,61,0
22800,note_on,24,0,3,,,,,,,,2,,,66,72
22800,note_on,12,0,5,,,,,,,,4,,,51,105
22800,note_on,12,0,6,,,,,,,,5,,,63,105
22800,note_on,12,0,4,,,,,,,,3,,,63,105
22800,note_on,48,0,2,,,,,,,,1,,,71,105
22800,note_on,12,0,1,,,,,,,,0,,,87,105
22848,note_on,48,0,1,,,,,,,,0,,,87,0
22860,note_on,12,0,1,,,,,,,,0,,,83,105
22896,note_on,96,0,4,,,,,,,,3,,,63,0
22896,note_on,96,0,3,,,,,,,,2,,,66,0
22896,note_on,96,0,6,,,,,,,,5,,,63,0
22896,note_on,96,0,5,,,,,,,,4,,,51,0
22908,note_on,48,0,1,,,,,,,,0,,,83,0
22920,note_on,24,0,3,,,,,,,,2,,,66,72
22920,note_on,24,0,4,,,,,,,,3,,,63,105
22920,note_on,24,0,6,,,,,,,,5,,,63,105
22920,note_on,12,0,1,,,,,,,,0,,,87,105
22920,note_on,24,0,5,,,,,,,,4,,,51,105
22944,note_on,24,0,6,,,,,,,,5,,,78,0
22944,note_on,0,0,6,,,,,,,,5,,,83,0
22968,note_on,48,0,1,,,,,,,,0,,,87,0
22980,note_on,12,0,1,,,,,,,,0,,,83,105
22992,note_on,192,0,2,,,,,,,,1,,,71,0
23016,note_on,96,0,3,,,,,,,,2,,,66,0
23016,note_on,72,0,6,,,,,,,,5,,,63,0
23016,note_on,96,0,4,,,,,,,,3,,,63,0
23016,note_on,96,0,5,,,,,,,,4,,,51,0
23028,note_on,48,0,1,,,,,,,,0,,,83,0
23040,note_on,24,0,4,,,,,,,,3,,,61,105
23040,note_on,12,0,1,,,,,,,,0,,,81,105
23040,note_on,24,0,5,,,,,,,,4,,,49,105
23040,note_on,24,0,3,,,,,,,,2,,,64,72
23040,note_on,0,0,6,,,,,,,,5,,,81,105
23040,note_on,0,0,6,,,,,,,,5,,,61,105
23040,note_on,24,0,6,,,,,,,,5,,,76,105
23100,note_on,108,0,2,,,,,,,,1,,,73,105
23136,note_on,96,0,4,,,,,,,,3,,,61,0
23136,note_on,96,0,6,,,,,,,,5,,,61,0
23136,note_on,96,0,3,,,,,,,,2,,,64,0
23136,note_on,96,0,5,,,,,,,,4,,,49,0
23148,note_on,48,0,2,,,,,,,,1,,,73,0
23160,note_on,24,0,6,,,,,,,,5,,,61,105
23160,note_on,24,0,5,,,,,,,,4,,,49,105
23160,note_on,24,0,4,,,,,,,,3,,,61,105
23160,note_on,24,0,3,,,,,,,,2,,,64,72
23160,note_on,12,0,2,,,,,,,,1,,,73,105
23208,note_on,48,0,2,,,,,,,,1,,,73,0
23220,note_on,12,0,2,,,,,,,,1,,,73,105
23232,note_on,192,0,1,,,,,,,,0,,,81,0
23232,note_on,72,0,6,,,,,,,,5,,,76,0
23256,note_on,96,0,3,,,,,,,,2,,,64,0
23256,note_on,96,0,4,,,,,,,,3,,,61,0
23256,note_on,24,0,6,,,,,,,,5,,,61,0
23256,note_on,96,0,5,,,,,,,,4,,,49,0
23268,note_on,48,0,2,,,,,,,,1,,,73,0
23280,note_on,0,0,6,,,,,,,,5,,,69,105
23280,note_on,24,0,6,,,,,,,,5,,,61,105
23280,note_on,48,0,1,,,,,,,,0,,,88,105
23280,note_on,12,0,2,,,,,,,,1,,,76,105
23280,note_on,24,0,4,,,,,,,,3,,,61,105
23280,note_on,24,0,3,,,,,,,,2,,,64,72
23280,note_on,24,0,5,,,,,,,,4,,,49,105
23328,note_on,48,0,2,,,,,,,,1,,,76,0
23340,note_on,12,0,2,,,,,,,,1,,,73,105
23376,note_on,96,0,6,,,,,,,,5,,,61,0
23376,note_on,96,0,5,,,,,,,,4,,,49,0
23376,note_on,96,0,3,,,,,,,,2,,,64,0
23376,note_on,96,0,4,,,,,,,,3,,,61,0
23388,note_on,48,0,2,,,,,,,,1,,,73,0
23400,note_on,24,0,3,,,,,,,,2,,,64,72
23400,note_on,24,0,6,,,,,,,,5,,,61,105
23400,note_on,24,0,5,,,,,,,,4,,,49,105
23400,note_on,12,0,2,,,,,,,,1,,,76,105
23400,note_on,24,0,4,,,,,,,,3,,,61,105
23424,note_on,24,0,6,,,,,,,,5,,,81,0
23448,note_on,48,0,2,,,,,,,,1,,,76,0
23460,note_on,12,0,2,,,,,,,,1,,,73,105
23472,note_on,192,0,1,,,,,,,,0,,,88,0
23472,note_on,48,0,6,,,,,,,,5,,,69,0
23496,note_on,96,0,4,,,,,,,,3,,,61,0
23496,note_on,96,0,5,,,,,,,,4,,,49,0
23496,note_on,24,0,6,,,,,,,,5,,,61,0
23496,note_on,96,0,3,,,,,,,,2,,,64,0
23508,note_on,48,0,2,,,,,,,,1,,,73,0
23520,note_on,24,0,6,,,,,,,,5,,,75,105
23520,note_on,12,0,2,,,,,,,,1,,,75,105
23520,note_on,0,0,6,,,,,,,,5,,,80,105
23520,note_on,24,0,4,,,,,,,,3,,,59,105
23520,note_on,0,0,6,,,,,,,,5,,,59,105
23520,note_on,24,0,5,,,,,,,,4,,,47,105
23520,note_on,24,0,3,,,,,,,,2,,,68,72
23580,note_on,108,0,1,,,,,,,,0,,,80,105
23616,note_on,96,0,5,,,,,,,,4,,,47,0
23616,note_on,96,0,3,,,,,,,,2,,,68,0
23616,note_on,96,0,6,,,,,,,,5,,,59,0
23616,note_on,96,0,4,,,,,,,,3,,,59,0
23628,note_on,48,0,1,,,,,,,,0,,,80,0
23640,note_on,24,0,5,,,,,,,,4,,,47,105
23640,note_on,24,0,6,,,,,,,,5,,,59,105
23640,note_on,24,0,3,,,,,,,,2,,,63,72
23640,note_on,24,0,4,,,,,,,,3,,,59,105
23640,note_on,12,0,1,,,,,,,,0,,,80,105
23688,note_on,48,0,4,,,,,,,,3,,,59,0
23688,note_on,48,0,5,,,,,,,,4,,,47,0
23688,note_on,48,0,6,,,,,,,,5,,,59,0
23688,note_on,48,0,1,,,,,,,,0,,,80,0
23700,note_on,12,0,6,,,,,,,,5,,,57,105
23700,note_on,12,0,4,,,,,,,,3,,,57,105
23700,note_on,12,0,1,,,,,,,,0,,,80,105
23700,note_on,12,0,5,,,,,,,,4,,,45,105
23712,note_on,12,0,6,,,,,,,,5,,,75,0
23712,note_on,192,0,2,,,,,,,,1,,,75,0
23736,note_on,96,0,3,,,,,,,,2,,,63,0
23748,note_on,48,0,4,,,,,,,,3,,,57,0
23748,note_on,48,0,5,,,,,,,,4,,,45,0
23748,note_on,36,0,6,,,,,,,,5,,,57,0
23748,note_on,48,0,1,,,,,,,,0,,,80,0
23760,note_on,12,0,6,,,,,,,,5,,,59,105
23760,note_on,12,0,4,,,,,,,,3,,,59,105
23760,note_on,48,0,2,,,,,,,,1,,,68,105
23760,note_on,24,0,3,,,,,,,,2,,,63,72
23760,note_on,12,0,5,,,,,,,,4,,,47,105
23760,note_on,12,0,1,,,,,,,,0,,,83,105
23808,note_on,48,0,1,,,,,,,,0,,,83,0
23820,note_on,12,0,1,,,,,,,,0,,,80,105
23856,note_on,96,0,4,,,,,,,,3,,,59,0
23856,note_on,96,0,6,,,,,,,,5,,,59,0
23856,note_on,96,0,5,,,,,,,,4,,,47,0
23856,note_on,96,0,3,,,,,,,,2,,,63,0
23868,note_on,48,0,1,,,,,,,,0,,,80,0
23880,note_on,24,0,4,,,,,,,,3,,,59,105
23880,note_on,24,0,3,,,,,,,,2,,,63,72
23880,note_on,24,0,5,,,,,,,,4,,,47,105
23880,note_on,24,0,6,,,,,,,,5,,,59,105
23880,note_on,12,0,1,,,,,,,,0,,,83,105
23904,note_on,24,0,6,,,,,,,,5,,,80,0
23928,note_on,48,0,1,,,,,,,,0,,,83,0
23940,note_on,12,0,1,,,,,,,,0,,,80,105
23952,note_on,192,0,2,,,,,,,,1,,,68,0
23976,note_on,96,0,3,,,,,,,,2,,,63,0
23976,note_on,72,0,6,,,,,,,,5,,,59,0
23976,note_on,96,0,4,,,,,,,,3,,,59,0
23976,note_on,96,0,5,,,,,,,,4,,,47,0
23988,note_on,48,0,1,,,,,,,,0,,,80,0
24000,note_on,24,0,3,,,,,,,,2,,,61,72
24000,note_on,0,0,6,,,,,,,,5,,,78,105
24000,note_on,24,0,5,,,,,,,,4,,,45,105
24000,note_on,24,0,6,,,,,,,,5,,,73,105
24000,note_on,12,0,1,,,,,,,,0,,,78,105
24000,note_on,24,0,4,,,,,,,,3,,,57,105
24000,note_on,0,0,6,,,,,,,,5,,,57,105
24060,note_on,108,0,2,,,,,,,,1,,,69,105
24096,note_on,96,0,6,,,,,,,,5,,,57,0
24096,note_on,96,0,5,,,,,,,,4,,,45,0
24096,note_on,96,0,4,,,,,,,,3,,,57,0
24096,note_on,96,0,3,,,,,,,,2,,,61,0
24108,note_on,48,0,2,,,,,,,,1,,,69,0
24120,note_on,24,0,5,,,,,,,,4,,,45,105
24120,note_on,24,0,4,,,,,,,,3,,,57,105
24120,note_on,24,0,6,,,,,,,,5,,,57,105
24120,note_on,24,0,3,,,,,,,,2,,,61,72
24120,note_on,12,0,2,,,,,,,,1,,,69,105
24168,note_on,48,0,2,,,,,,,,1,,,69,0
24180,note_on,12,0,2,,,,,,,,1,,,69,105
24192,note_on,72,0,6,,,,,,,,5,,,73,0
24192,note_on,192,0,1,,,,,,,,0,,,78,0
24216,note_on,96,0,3,,,,,,,,2,,,61,0
24216,note_on,24,0,6,,,,,,,,5,,,57,0
24216,note_on,96,0,5,,,,,,,,4,,,45,0
24216,note_on,96,0,4,,,,,,,,3,,,57,0
24228,note_on,48,0,2,,,,,,,,1,,,69,0
24240,note_on,24,0,6,,,,,,,,5,,,57,105
24240,note_on,12,0,2,,,,,,,,1,,,73,105
24240,note_on,24,0,5,,,,,,,,4,,,45,105
24240,note_on,0,0,6,,,,,,,,5,,,66,105
24240,note_on,48,0,1,,,,,,,,0,,,85,105
24240,note_on,24,0,3,,,,,,,,2,,,66,72
24240,note_on,24,0,4,,,,,,,,3,,,57,105
24288,note_on,48,0,2,,,,,,,,1,,,73,0
24300,note_on,12,0,2,,,,,,,,1,,,69,105
24336,note_on,96,0,4,,,,,,,,3,,,57,0
24336,note_on,96,0,3,,,,,,,,2,,,66,0
24336,note_on,96,0,5,,,,,,,,4,,,45,0
24336,note_on,96,0,6,,,,,,,,5,,,57,0
24348,note_on,48,0,2,,,,,,,,1,,,69,0
24360,note_on,24,0,6,,,,,,,,5,,,57,105
24360,note_on,24,0,5,,,,,,,,4,,,45,105
24360,note_on,24,0,3,,,,,,,,2,,,66,72
24360,note_on,12,0,2,,,,,,,,1,,,73,105
24360,note_on,24,0,4,,,,,,,,3,,,57,105
24384,note_on,24,0,6,,,,,,,,5,,,78,0
24408,note_on,48,0,2,,,,,,,,1,,,73,0
24420,note_on,12,0,2,,,,,,,,1,,,69,105
24432,note_on,192,0,1,,,,,,,,0,,,85,0
24432,note_on,48,0,6,,,,,,,,5,,,66,0
24456,note_on,96,0,4,,,,,,,,3,,,57,0
24456,note_on,96,0,5,,,,,,,,4,,,45,0
24456,note_on,24,0,6,,,,,,,,5,,,57,0
24456,note_on,96,0,3,,,,,,,,2,,,66,0
24468,note_on,48,0,2,,,,,,,,1,,,69,0
24480,note_on,24,0,3,,,,,,,,2,,,59,72
24480,note_on,24,0,4,,,,,,,,3,,,52,105
24480,note_on,24,0,6,,,,,,,,5,,,71,105
24480,note_on,0,0,6,,,,,,,,5,,,52,105
24480,note_on,0,0,6,,,,,,,,5,,,80,105
24480,note_on,24,0,5,,,,,,,,4,,,40,105
24480,note_on,12,0,2,,,,,,,,1,,,68,105
24528,note_on,48,0,2,,,,,,,,1,,,68,0
24540,note_on,108,0,1,,,,,,,,0,,,76,105
24540,note_on,12,0,2,,,,,,,,1,,,71,105
24576,note_on,0,0,6,,,,,,,,5,,,71,0
24576,note_on,0,0,6,,,,,,,,5,,,52,0
24576,note_on,96,0,6,,,,,,,,5,,,80,0
24576,note_on,96,0,3,,,,,,,,2,,,59,0
24576,note_on,96,0,5,,,,,,,,4,,,40,0
24576,note_on,96,0,4,,,,,,,,3,,,52,0
24588,note_on,48,0,1,,,,,,,,0,,,76,0
24588,note_on,48,0,2,,,,,,,,1,,,71,0
24600,note_on,24,0,5,,,,,,,,4,,,42,105
24600,note_on,12,0,1,,,,,,,,0,,,76,105
24600,note_on,24,0,3,,,,,,,,2,,,59,72
24600,note_on,24,0,6,,,,,,,,5,,,69,105
24600,note_on,0,0,6,,,,,,,,5,,,54,105
24600,note_on,12,0,2,,,,,,,,1,,,71,105
24600,note_on,24,0,4,,,,,,,,3,,,54,105
24648,note_on,48,0,1,,,,,,,,0,,,76,0
24648,note_on,48,0,2,,,,,,,,1,,,71,0
24660,note_on,12,0,1,,,,,,,,0,,,76,105
24660,note_on,12,0,2,,,,,,,,1,,,71,105
24696,note_on,96,0,4,,,,,,,,3,,,54,0
24696,note_on,96,0,3,,,,,,,,2,,,59,0
24696,note_on,96,0,6,,,,,,,,5,,,54,0
24696,note_on,0,0,6,,,,,,,,5,,,69,0
24696,note_on,96,0,5,,,,,,,,4,,,42,0
24708,note_on,48,0,1,,,,,,,,0,,,76,0
24708,note_on,48,0,2,,,,,,,,1,,,71,0
24720,note_on,12,0,2,,,,,,,,1,,,76,105
24720,note_on,24,0,5,,,,,,,,4,,,44,105
24720,note_on,12,0,1,,,,,,,,0,,,80,105
24720,note_on,24,0,4,,,,,,,,3,,,56,105
24720,note_on,24,0,3,,,,,,,,2,,,59,72
24720,note_on,0,0,6,,,,,,,,5,,,56,105
24720,note_on,24,0,6,,,,,,,,5,,,71,105
24768,note_on,48,0,1,,,,,,,,0,,,80,0
24768,note_on,48,0,2,,,,,,,,1,,,76,0
24780,note_on,12,0,1,,,,,,,,0,,,76,105
24780,note_on,12,0,2,,,,,,,,1,,,71,105
24816,note_on,96,0,3,,,,,,,,2,,,59,0
24816,note_on,96,0,5,,,,,,,,4,,,44,0
24816,note_on,96,0,6,,,,,,,,5,,,56,0
24816,note_on,96,0,4,,,,,,,,3,,,56,0
24816,note_on,0,0,6,,,,,,,,5,,,71,0
24828,note_on,48,0,1,,,,,,,,0,,,76,0
24828,note_on,48,0,2,,,,,,,,1,,,71,0
24840,note_on,24,0,4,,,,,,,,3,,,52,105
24840,note_on,24,0,5,,,,,,,,4,,,40,105
24840,note_on,24,0,3,,,,,,,,2,,,59,72
24840,note_on,12,0,2,,,,,,,,1,,,76,105
24840,note_on,12,0,1,,,,,,,,0,,,80,105
24840,note_on,0,0,6,,,,,,,,5,,,68,105
24840,note_on,24,0,6,,,,,,,,5,,,52,105
24888,note_on,48,0,2,,,,,,,,1,,,76,0
24888,note_on,48,0,1,,,,,,,,0,,,80,0
24900,note_on,12,0,2,,,,,,,,1,,,71,105
24900,note_on,12,0,1,,,,,,,,0,,,76,105
24936,note_on,96,0,4,,,,,,,,3,,,52,0
24936,note_on,96,0,5,,,,,,,,4,,,40,0
24936,note_on,96,0,3,,,,,,,,2,,,59,0
24936,note_on,0,0,6,,,,,,,,5,,,52,0
24936,note_on,96,0,6,,,,,,,,5,,,68,0
24948,note_on,48,0,1,,,,,,,,0,,,76,0
24948,note_on,48,0,2,,,,,,,,1,,,71,0
24960,note_on,24,0,3,,,,,,,,2,,,59,72
24960,note_on,12,0,2,,,,,,,,1,,,75,105
24960,note_on,24,0,5,,,,,,,,4,,,35,105
24960,note_on,12,0,1,,,,,,,,0,,,78,105
24960,note_on,24,0,6,,,,,,,,5,,,66,105
24960,note_on,0,0,6,,,,,,,,5,,,47,105
24960,note_on,24,0,4,,,,,,,,3,,,47,105
25008,note_on,48,0,1,,,,,,,,0,,,78,0
25008,note_on,48,0,2,,,,,,,,1,,,75,0
25020,note_on,12,0,1,,,,,,,,0,,,71,105
25020,note_on,12,0,2,,,,,,,,1,,,75,105
25056,note_on,96,0,6,,,,,,,,5,,,47,0
25056,note_on,96,0,3,,,,,,,,2,,,59,0
25056,note_on,96,0,5,,,,,,,,4,,,35,0
25056,note_on,96,0,4,,,,,,,,3,,,47,0
25068,note_on,48,0,1,,,,,,,,0,,,71,0
25068,note_on,48,0,2,,,,,,,,1,,,75,0
25080,note_on,12,0,2,,,,,,,,1,,,75,105
25080,note_on,24,0,6,,,,,,,,5,,,49,105
25080,note_on,24,0,3,,,,,,,,2,,,59,72
25080,note_on,12,0,1,,,,,,,,0,,,71,105
25080,note_on,24,0,5,,,,,,,,4,,,37,105
25080,note_on,24,0,4,,,,,,,,3,,,49,105
25128,note_on,48,0,1,,,,,,,,0,,,71,0
25128,note_on,48,0,2,,,,,,,,1,,,75,0
25140,note_on,12,0,1,,,,,,,,0,,,71,105
25140,note_on,12,0,2,,,,,,,,1,,,75,105
25152,note_on,72,0,6,,,,,,,,5,,,66,0
25176,note_on,96,0,4,,,,,,,,3,,,49,0
25176,note_on,96,0,5,,,,,,,,4,,,37,0
25176,note_on,96,0,3,,,,,,,,2,,,59,0
25176,note_on,24,0,6,,,,,,,,5,,,49,0
25188,note_on,48,0,1,,,,,,,,0,,,71,0
25188,note_on,48,0,2,,,,,,,,1,,,75,0
25200,note_on,12,0,1,,,,,,,,0,,,81,105
25200,note_on,24,0,5,,,,,,,,4,,,39,105
25200,note_on,24,0,4,,,,,,,,3,,,51,105
25200,note_on,24,0,6,,,,,,,,5,,,51,105
25200,note_on,0,0,6,,,,,,,,5,,,59,105
25200,note_on,12,0,2,,,,,,,,1,,,78,105
25200,note_on,24,0,3,,,,,,,,2,,,59,72
25248,note_on,48,0,2,,,,,,,,1,,,78,0
25248,note_on,48,0,1,,,,,,,,0,,,81,0
25260,note_on,12,0,1,,,,,,,,0,,,78,105
25260,note_on,12,0,2,,,,,,,,1,,,75,105
25296,note_on,96,0,5,,,,,,,,4,,,39,0
25296,note_on,96,0,6,,,,,,,,5,,,51,0
25296,note_on,96,0,3,,,,,,,,2,,,59,0
25296,note_on,96,0,4,,,,,,,,3,,,51,0
25308,note_on,48,0,2,,,,,,,,1,,,75,0
25308,note_on,48,0,1,,,,,,,,0,,,78,0
25320,note_on,12,0,2,,,,,,,,1,,,78,105
25320,note_on,24,0,5,,,,,,,,4,,,35,105
25320,note_on,24,0,6,,,,,,,,5,,,47,105
25320,note_on,24,0,4,,,,,,,,3,,,47,105
25320,note_on,12,0,1,,,,,,,,0,,,81,105
25320,note_on,24,0,3,,,,,,,,2,,,59,72
25368,note_on,48,0,2,,,,,,,,1,,,78,0
25368,note_on,48,0,1,,,,,,,,0,,,81,0
25380,note_on,12,0,2,,,,,,,,1,,,75,105
25380,note_on,12,0,1,,,,,,,,0,,,78,105
25392,note_on,72,0,6,,,,,,,,5,,,59,0
25416,note_on,96,0,5,,,,,,,,4,,,35,0
25416,note_on,96,0,4,,,,,,,,3,,,47,0
25416,note_on,24,0,6,,,,,,,,5,,,47,0
25416,note_on,96,0,3,,,,,,,,2,,,59,0
25428,note_on,48,0,2,,,,,,,,1,,,75,0
25428,note_on,48,0,1,,,,,,,,0,,,78,0
25440,note_on,12,0,1,,,,,,,,0,,,80,105
25440,note_on,12,0,2,,,,,,,,1,,,76,105
25440,note_on,24,0,6,,,,,,,,5,,,68,105
25440,note_on,0,0,6,,,,,,,,5,,,52,105
25440,note_on,24,0,3,,,,,,,,2,,,59,72
25440,note_on,24,0,4,,,,,,,,3,,,52,105
25440,note_on,24,0,5,,,,,,,,4,,,40,105
25488,note_on,48,0,2,,,,,,,,1,,,76,0
25488,note_on,48,0,1,,,,,,,,0,,,80,0
25500,note_on,12,0,1,,,,,,,,0,,,76,105
25500,note_on,12,0,2,,,,,,,,1,,,71,105
25536,note_on,0,0,6,,,,,,,,5,,,68,0
25536,note_on,96,0,6,,,,,,,,5,,,52,0
25536,note_on,96,0,3,,,,,,,,2,,,59,0
25536,note_on,96,0,5,,,,,,,,4,,,40,0
25536,note_on,96,0,4,,,,,,,,3,,,52,0
25548,note_on,48,0,1,,,,,,,,0,,,76,0
25548,note_on,48,0,2,,,,,,,,1,,,71,0
25560,note_on,12,0,1,,,,,,,,0,,,76,105
25560,note_on,24,0,4,,,,,,,,3,,,54,105
25560,note_on,12,0,2,,,,,,,,1,,,71,105
25560,note_on,24,0,5,,,,,,,,4,,,42,105
25560,note_on,24,0,3,,,,,,,,2,,,59,72
25560,note_on,0,0,6,,,,,,,,5,,,54,105
25560,note_on,24,0,6,,,,,,,,5,,,69,105
25608,note_on,48,0,1,,,,,,,,0,,,76,0
25608,note_on,48,0,2,,,,,,,,1,,,71,0
25620,note_on,12,0,1,,,,,,,,0,,,76,105
25620,note_on,12,0,2,,,,,,,,1,,,71,105
25656,note_on,96,0,5,,,,,,,,4,,,42,0
25656,note_on,0,0,6,,,,,,,,5,,,69,0
25656,note_on,96,0,6,,,,,,,,5,,,54,0
25656,note_on,96,0,3,,,,,,,,2,,,59,0
25656,note_on,96,0,4,,,,,,,,3,,,54,0
25668,note_on,48,0,2,,,,,,,,1,,,71,0
25668,note_on,48,0,1,,,,,,,,0,,,76,0
25680,note_on,24,0,6,,,,,,,,5,,,71,105
25680,note_on,0,0,6,,,,,,,,5,,,56,105
25680,note_on,24,0,3,,,,,,,,2,,,59,72
25680,note_on,24,0,5,,,,,,,,4,,,44,105
25680,note_on,12,0,2,,,,,,,,1,,,80,105
25680,note_on,24,0,4,,,,,,,,3,,,56,105
25680,note_on,12,0,1,,,,,,,,0,,,83,105
25728,note_on,48,0,2,,,,,,,,1,,,80,0
25728,note_on,48,0,1,,,,,,,,0,,,83,0
25740,note_on,12,0,1,,,,,,,,0,,,80,105
25740,note_on,12,0,2,,,,,,,,1,,,76,105
25776,note_on,96,0,5,,,,,,,,4,,,44,0
25776,note_on,96,0,6,,,,,,,,5,,,56,0
25776,note_on,0,0,6,,,,,,,,5,,,71,0
25776,note_on,96,0,4,,,,,,,,3,,,56,0
25776,note_on,96,0,3,,,,,,,,2,,,59,0
25788,note_on,48,0,2,,,,,,,,1,,,76,0
25788,note_on,48,0,1,,,,,,,,0,,,80,0
25800,note_on,12,0,1,,,,,,,,0,,,83,105
25800,note_on,24,0,5,,,,,,,,4,,,40,105
25800,note_on,0,0,6,,,,,,,,5,,,68,105
25800,note_on,24,0,6,,,,,,,,5,,,52,105
25800,note_on,24,0,3,,,,,,,,2,,,59,72
25800,note_on,12,0,2,,,,,,,,1,,,80,105
25800,note_on,24,0,4,,,,,,,,3,,,52,105
25848,note_on,48,0,1,,,,,,,,0,,,83,0
25848,note_on,48,0,2,,,,,,,,1,,,80,0
25860,note_on,12,0,1,,,,,,,,0,,,80,105
25860,note_on,12,0,2,,,,,,,,1,,,76,105
25896,note_on,96,0,5,,,,,,,,4,,,40,0
25896,note_on,96,0,3,,,,,,,,2,,,59,0
25896,note_on,96,0,4,,,,,,,,3,,,52,0
25896,note_on,96,0,6,,,,,,,,5,,,68,0
25896,note_on,0,0,6,,,,,,,,5,,,52,0
25908,note_on,48,0,2,,,,,,,,1,,,76,0
25908,note_on,48,0,1,,,,,,,,0,,,80,0
25920,note_on,0,0,6,,,,,,,,5,,,47,105
25920,note_on,12,0,1,,,,,,,,0,,,78,105
25920,note_on,0,0,6,,,,,,,,5,,,66,105
25920,note_on,24,0,4,,,,,,,,3,,,47,105
25920,note_on,12,0,2,,,,,,,,1,,,75,105
25920,note_on,24,0,3,,,,,,,,2,,,59,72
25920,note_on,24,0,5,,,,,,,,4,,,35,105
25920,note_on,24,0,6,,,,,,,,5,,,63,105
25968,note_on,48,0,6,,,,,,,,5,,,47,0
25968,note_on,48,0,4,,,,,,,,3,,,47,0
25968,note_on,48,0,5,,,,,,,,4,,,35,0
25980,note_on,12,0,4,,,,,,,,3,,,59,105
25980,note_on,12,0,6,,,,,,,,5,,,59,105
25980,note_on,12,0,5,,,,,,,,4,,,47,105
26016,note_on,96,0,1,,,,,,,,0,,,78,0
26016,note_on,96,0,3,,,,,,,,2,,,59,0
26016,note_on,96,0,2,,,,,,,,1,,,75,0
26028,note_on,48,0,6,,,,,,,,5,,,59,0
26028,note_on,48,0,4,,,,,,,,3,,,59,0
26028,note_on,48,0,5,,,,,,,,4,,,47,0
26040,note_on,24,0,2,,,,,,,,1,,,71,105
26040,note_on,12,0,5,,,,,,,,4,,,47,105
26040,note_on,12,0,6,,,,,,,,5,,,59,105
26040,note_on,24,0,1,,,,,,,,0,,,71,105
26040,note_on,12,0,4,,,,,,,,3,,,59,105
26040,note_on,24,0,3,,,,,,,,2,,,59,72
26088,note_on,48,0,5,,,,,,,,4,,,47,0
26088,note_on,48,0,6,,,,,,,,5,,,59,0
26088,note_on,48,0,4,,,,,,,,3,,,59,0
26100,note_on,12,0,6,,,,,,,,5,,,59,105
26100,note_on,12,0,4,,,,,,,,3,,,59,105
26100,note_on,12,0,5,,,,,,,,4,,,47,105
26112,note_on,12,0,6,,,,,,,,5,,,63,0
26136,note_on,96,0,3,,,,,,,,2,,,59,0
26136,note_on,96,0,2,,,,,,,,1,,,71,0
26136,note_on,96,0,1,,,,,,,,0,,,71,0
26148,note_on,48,0,5,,,,,,,,4,,,47,0
26148,note_on,36,0,6,,,,,,,,5,,,59,0
26148,note_on,48,0,4,,,,,,,,3,,,59,0
26160,note_on,12,0,4,,,,,,,,3,,,63,105
26160,note_on,12,0,5,,,,,,,,4,,,51,105
26160,note_on,0,0,6,,,,,,,,5,,,71,105
26160,note_on,12,0,6,,,,,,,,5,,,63,105
26160,note_on,24,0,3,,,,,,,,2,,,59,72
26208,note_on,48,0,4,,,,,,,,3,,,63,0
26208,note_on,48,0,5,,,,,,,,4,,,51,0
26208,note_on,48,0,6,,,,,,,,5,,,63,0
26220,note_on,12,0,5,,,,,,,,4,,,47,105
26220,note_on,12,0,6,,,,,,,,5,,,59,105
26220,note_on,12,0,4,,,,,,,,3,,,59,105
26256,note_on,96,0,3,,,,,,,,2,,,59,0
26268,note_on,48,0,6,,,,,,,,5,,,59,0
26268,note_on,48,0,5,,,,,,,,4,,,47,0
26268,note_on,48,0,4,,,,,,,,3,,,59,0
26280,note_on,24,0,3,,,,,,,,2,,,59,72
26280,note_on,12,0,5,,,,,,,,4,,,51,105
26280,note_on,144,0,1,,,,,,,,0,,,83,72
26280,note_on,144,0,2,,,,,,,,1,,,78,105
26280,note_on,12,0,4,,,,,,,,3,,,63,105
26280,note_on,12,0,6,,,,,,,,5,,,63,105
26304,note_on,24,0,6,,,,,,,,5,,,66,0
26328,note_on,48,0,5,,,,,,,,4,,,51,0
26328,note_on,48,0,4,,,,,,,,3,,,63,0
26328,note_on,24,0,6,,,,,,,,5,,,63,0
26340,note_on,12,0,6,,,,,,,,5,,,59,105
26340,note_on,12,0,5,,,,,,,,4,,,47,105
26340,note_on,12,0,4,,,,,,,,3,,,59,105
26352,note_on,12,0,6,,,,,,,,5,,,71,0
26376,note_on,96,0,2,,,,,,,,1,,,78,0
26376,note_on,96,0,1,,,,,,,,0,,,83,0
26376,note_on,96,0,3,,,,,,,,2,,,59,0
26388,note_on,36,0,6,,,,,,,,5,,,59,0
26388,note_on,48,0,5,,,,,,,,4,,,47,0
26388,note_on,48,0,4,,,,,,,,3,,,59,0
26400,note_on,24,0,1,,,,,,,,0,,,78,72
26400,note_on,24,0,2,,,,,,,,1,,,75,72
26400,note_on,24,0,3,,,,,,,,2,,,59,72
26400,note_on,12,0,4,,,,,,,,3,,,47,105
26400,note_on,12,0,6,,,,,,,,5,,,66,72
26400,note_on,0,0,6,,,,,,,,5,,,47,72
26400,note_on,0,0,6,,,,,,,,5,,,75,72
26496,note_on,96,0,1,,,,,,,,0,,,78,0
26496,note_on,96,0,2,,,,,,,,1,,,75,0
26520,note_on,24,0,1,,,,,,,,0,,,79,72
26520,note_on,24,0,2,,,,,,,,1,,,76,72
26568,note_on,48,0,1,,,,,,,,0,,,79,0
26568,note_on,48,0,2,,,,,,,,1,,,76,0
26580,note_on,12,0,2,,,,,,,,1,,,78,72
26580,note_on,12,0,1,,,,,,,,0,,,81,72
26592,note_on,192,0,6,,,,,,,,5,,,75,0
26592,note_on,0,0,6,,,,,,,,5,,,66,0
26628,note_on,48,0,2,,,,,,,,1,,,78,0
26628,note_on,48,0,1,,,,,,,,0,,,81,0
26640,note_on,48,0,6,,,,,,,,5,,,71,72
26640,note_on,12,0,1,,,,,,,,0,,,79,72
26640,note_on,12,0,2,,,,,,,,1,,,76,72
26736,note_on,96,0,2,,,,,,,,1,,,76,0
26736,note_on,96,0,1,,,,,,,,0,,,79,0
26760,note_on,24,0,2,,,,,,,,1,,,75,72
26760,note_on,24,0,1,,,,,,,,0,,,78,72
26784,note_on,384,0,3,,,,,,,,2,,,59,0
26784,note_on,384,0,4,,,,,,,,3,,,47,0
26784,note_on,144,0,6,,,,,,,,5,,,47,0
26832,note_on,48,0,6,,,,,,,,5,,,71,0
26856,note_on,96,0,1,,,,,,,,0,,,78,0
26856,note_on,96,0,2,,,,,,,,1,,,75,0
26880,note_on,24,0,1,,,,,,,,0,,,79,72
26880,note_on,492,0,5,,,,,,,,4,,,28,105
26880,note_on,0,0,6,,,,,,,,5,,,40,72
26880,note_on,24,0,2,,,,,,,,1,,,76,72
26880,note_on,96,0,3,,,,,,,,2,,,59,72
26880,note_on,96,0,4,,,,,,,,3,,,40,72
26880,note_on,0,0,6,,,,,,,,5,,,76,72
26880,note_on,48,0,6,,,,,,,,5,,,67,72
26976,note_on,96,0,4,,,,,,,,3,,,40,0
26976,note_on,96,0,1,,,,,,,,0,,,79,0
26976,note_on,96,0,5,,,,,,,,4,,,28,0
26976,note_on,96,0,2,,,,,,,,1,,,76,0
26976,note_on,0,0,6,,,,,,,,5,,,67,0
26976,note_on,96,0,6,,,,,,,,5,,,40,0
26976,note_on,96,0,3,,,,,,,,2,,,59,0
27000,note_on,24,0,2,,,,,,,,1,,,71,72
27000,note_on,24,0,4,,,,,,,,3,,,52,72
27000,note_on,24,0,1,,,,,,,,0,,,76,72
27000,note_on,24,0,3,,,,,,,,2,,,55,72
27000,note_on,24,0,5,,,,,,,,4,,,40,105
27000,note_on,24,0,6,,,,,,,,5,,,52,72
27000,note_on,0,0,6,,,,,,,,5,,,67,72
27048,note_on,0,0,6,,,,,,,,5,,,52,0
27048,note_on,48,0,6,,,,,,,,5,,,67,0
27048,note_on,48,0,4,,,,,,,,3,,,52,0
27048,note_on,48,0,5,,,,,,,,4,,,40,0
27048,note_on,48,0,3,,,,,,,,2,,,55,0
27060,note_on,12,0,3,,,,,,,,2,,,57,72
27060,note_on,12,0,4,,,,,,,,3,,,54,72
27060,note_on,12,0,5,,,,,,,,4,,,42,105
27060,note_on,12,0,6,,,,,,,,5,,,69,72
27060,note_on,0,0,6,,,,,,,,5,,,54,72
27108,note_on,0,0,6,,,,,,,,5,,,69,0
27108,note_on,48,0,4,,,,,,,,3,,,54,0
27108,note_on,48,0,5,,,,,,,,4,,,42,0
27108,note_on,48,0,3,,,,,,,,2,,,57,0
27108,note_on,48,0,6,,,,,,,,5,,,54,0
27120,note_on,12,0,5,,,,,,,,4,,,44,105
27120,note_on,12,0,3,,,,,,,,2,,,59,72
27120,note_on,12,0,6,,,,,,,,5,,,71,72
27120,note_on,12,0,4,,,,,,,,3,,,55,72
27120,note_on,0,0,6,,,,,,,,5,,,55,72
27192,note_on,192,0,2,,,,,,,,1,,,71,0
27192,note_on,192,0,1,,,,,,,,0,,,76,0
27216,note_on,96,0,6,,,,,,,,5,,,55,0
27216,note_on,0,0,6,,,,,,,,5,,,71,0
27216,note_on,96,0,3,,,,,,,,2,,,59,0
27216,note_on,96,0,4,,,,,,,,3,,,55,0
27216,note_on,96,0,5,,,,,,,,4,,,44,0
27240,note_on,24,0,4,,,,,,,,3,,,52,72
27240,note_on,24,0,6,,,,,,,,5,,,67,72
27240,note_on,24,0,5,,,,,,,,4,,,40,105
27240,note_on,24,0,3,,,,,,,,2,,,55,72
27240,note_on,0,0,6,,,,,,,,5,,,52,72
27240,note_on,48,0,1,,,,,,,,0,,,79,72
27240,note_on,48,0,2,,,,,,,,1,,,83,72
27264,note_on,24,0,6,,,,,,,,5,,,76,0
27336,note_on,96,0,4,,,,,,,,3,,,52,0
27336,note_on,96,0,3,,,,,,,,2,,,55,0
27336,note_on,96,0,2,,,,,,,,1,,,83,0
27336,note_on,96,0,1,,,,,,,,0,,,79,0
27336,note_on,0,0,6,,,,,,,,5,,,67,0
27336,note_on,96,0,5,,,,,,,,4,,,40,0
27336,note_on,72,0,6,,,,,,,,5,,,52,0
27360,note_on,0,0,6,,,,,,,,5,,,47,72
27360,note_on,0,0,6,,,,,,,,5,,,66,72
27360,note_on,24,0,5,,,,,,,,4,,,35,105
27360,note_on,24,0,2,,,,,,,,1,,,75,72
27360,note_on,24,0,1,,,,,,,,0,,,78,72
27360,note_on,24,0,6,,,,,,,,5,,,75,72
27360,note_on,24,0,3,,,,,,,,2,,,59,72
27360,note_on,24,0,4,,,,,,,,3,,,47,72
27456,note_on,96,0,1,,,,,,,,0,,,78,0
27456,note_on,96,0,2,,,,,,,,1,,,75,0
27480,note_on,24,0,1,,,,,,,,0,,,79,72
27480,note_on,24,0,2,,,,,,,,1,,,76,72
27528,note_on,48,0,2,,,,,,,,1,,,76,0
27528,note_on,48,0,1,,,,,,,,0,,,79,0
27540,note_on,12,0,2,,,,,,,,1,,,78,72
27540,note_on,12,0,1,,,,,,,,0,,,81,72
27552,note_on,192,0,6,,,,,,,,5,,,66,0
27552,note_on,0,0,6,,,,,,,,5,,,75,0
27588,note_on,48,0,1,,,,,,,,0,,,81,0
27588,note_on,48,0,2,,,,,,,,1,,,78,0
27600,note_on,48,0,6,,,,,,,,5,,,71,72
27600,note_on,12,0,2,,,,,,,,1,,,76,72
27600,note_on,12,0,1,,,,,,,,0,,,79,72
27696,note_on,96,0,2,,,,,,,,1,,,76,0
27696,note_on,96,0,1,,,,,,,,0,,,79,0
27720,note_on,24,0,2,,,,,,,,1,,,75,72
27720,note_on,24,0,1,,,,,,,,0,,,78,72
27744,note_on,384,0,5,,,,,,,,4,,,35,0
27744,note_on,384,0,3,,,,,,,,2,,,59,0
27744,note_on,144,0,6,,,,,,,,5,,,47,0
27744,note_on,384,0,4,,,,,,,,3,,,47,0
27792,note_on,48,0,6,,,,,,,,5,,,71,0
27816,note_on,96,0,1,,,,,,,,0,,,78,0
27816,note_on,96,0,2,,,,,,,,1,,,75,0
27840,note_on,96,0,4,,,,,,,,3,,,40,72
27840,note_on,48,0,6,,,,,,,,5,,,67,72
27840,note_on,0,0,6,,,,,,,,5,,,40,72
27840,note_on,0,0,6,,,,,,,,5,,,76,72
27840,note_on,96,0,5,,,,,,,,4,,,28,105
27840,note_on,96,0,3,,,,,,,,2,,,59,72
27840,note_on,24,0,2,,,,,,,,1,,,76,72
27840,note_on,24,0,1,,,,,,,,0,,,79,72
27936,note_on,96,0,4,,,,,,,,3,,,40,0
27936,note_on,96,0,3,,,,,,,,2,,,59,0
27936,note_on,96,0,5,,,,,,,,4,,,28,0
27936,note_on,96,0,2,,,,,,,,1,,,76,0
27936,note_on,96,0,6,,,,,,,,5,,,40,0
27936,note_on,0,0,6,,,,,,,,5,,,67,0
27936,note_on,96,0,1,,,,,,,,0,,,79,0
27960,note_on,24,0,5,,,,,,,,4,,,40,105
27960,note_on,24,0,6,,,,,,,,5,,,67,72
27960,note_on,24,0,2,,,,,,,,1,,,71,72
27960,note_on,0,0,6,,,,,,,,5,,,52,72
27960,note_on,24,0,4,,,,,,,,3,,,52,72
27960,note_on,24,0,1,,,,,,,,0,,,76,72
27960,note_on,24,0,3,,,,,,,,2,,,55,72
28008,note_on,48,0,6,,,,,,,,5,,,52,0
28008,note_on,48,0,5,,,,,,,,4,,,40,0
28008,note_on,48,0,4,,,,,,,,3,,,52,0
28008,note_on,0,0,6,,,,,,,,5,,,67,0
28008,note_on,48,0,3,,,,,,,,2,,,55,0
28020,note_on,12,0,4,,,,,,,,3,,,54,72
28020,note_on,12,0,5,,,,,,,,4,,,42,105
28020,note_on,0,0,6,,,,,,,,5,,,54,72
28020,note_on,12,0,6,,,,,,,,5,,,69,72
28020,note_on,12,0,3,,,,,,,,2,,,57,72
28068,note_on,48,0,3,,,,,,,,2,,,57,0
28068,note_on,48,0,5,,,,,,,,4,,,42,0
28068,note_on,48,0,6,,,,,,,,5,,,54,0
28068,note_on,48,0,4,,,,,,,,3,,,54,0
28068,note_on,0,0,6,,,,,,,,5,,,69,0
28080,note_on,12,0,5,,,,,,,,4,,,44,105
28080,note_on,12,0,3,,,,,,,,2,,,59,72
28080,note_on,12,0,4,,,,,,,,3,,,55,72
28080,note_on,12,0,6,,,,,,,,5,,,55,72
28080,note_on,0,0,6,,,,,,,,5,,,71,72
28152,note_on,192,0,2,,,,,,,,1,,,71,0
28152,note_on,192,0,1,,,,,,,,0,,,76,0
28176,note_on,96,0,5,,,,,,,,4,,,44,0
28176,note_on,96,0,3,,,,,,,,2,,,59,0
28176,note_on,96,0,6,,,,,,,,5,,,71,0
28176,note_on,0,0,6,,,,,,,,5,,,55,0
28176,note_on,96,0,4,,,,,,,,3,,,55,0
28200,note_on,24,0,3,,,,,,,,2,,,55,72
28200,note_on,24,0,6,,,,,,,,5,,,67,72
28200,note_on,0,0,6,,,,,,,,5,,,52,72
28200,note_on,24,0,4,,,,,,,,3,,,52,72
28200,note_on,24,0,5,,,,,,,,4,,,40,105
28200,note_on,48,0,2,,,,,,,,1,,,76,72
28200,note_on,48,0,1,,,,,,,,0,,,76,72
28224,note_on,24,0,6,,,,,,,,5,,,76,0
28296,note_on,96,0,3,,,,,,,,2,,,55,0
28296,note_on,96,0,5,,,,,,,,4,,,40,0
28296,note_on,96,0,2,,,,,,,,1,,,76,0
28296,note_on,72,0,6,,,,,,,,5,,,52,0
28296,note_on,96,0,1,,,,,,,,0,,,76,0
28296,note_on,96,0,4,,,,,,,,3,,,52,0
28296,note_on,0,0,6,,,,,,,,5,,,67,0
28320,note_on,0,0,6,,,,,,,,5,,,75,72
28320,note_on,24,0,1,,,,,,,,0,,,75,72
28320,note_on,24,0,2,,,,,,,,1,,,75,72
28320,note_on,24,0,5,,,,,,,,4,,,35,105
28320,note_on,24,0,6,,,,,,,,5,,,66,72
28320,note_on,24,0,3,,,,,,,,2,,,63,72
28320,note_on,24,0,4,,,,,,,,3,,,47,72
28320,note_on,0,0,6,,,,,,,,5,,,47,72
28344,note_on,24,0,1,,,,,,,,0,,,75,0
28344,note_on,24,0,2,,,,,,,,1,,,75,0
28350,note_on,6,0,2,,,,,,,,1,,,78,72
28350,note_on,6,0,1,,,,,,,,0,,,78,72
28374,note_on,24,0,2,,,,,,,,1,,,78,0
28374,note_on,24,0,1,,,,,,,,0,,,78,0
28380,note_on,6,0,1,,,,,,,,0,,,78,72
28380,note_on,6,0,2,,,,,,,,1,,,78,72
28416,note_on,96,0,3,,,,,,,,2,,,63,0
28416,note_on,96,0,4,,,,,,,,3,,,47,0
28416,note_on,96,0,5,,,,,,,,4,,,35,0
28416,note_on,96,0,6,,,,,,,,5,,,75,0
28416,note_on,0,0,6,,,,,,,,5,,,66,0
28416,note_on,0,0,6,,,,,,,,5,,,47,0
28440,note_on,24,0,4,,,,,,,,3,,,52,72
28440,note_on,24,0,5,,,,,,,,4,,,40,105
28440,note_on,24,0,6,,,,,,,,5,,,67,72
28440,note_on,0,0,6,,,,,,,,5,,,76,72
28440,note_on,24,0,3,,,,,,,,2,,,59,72
28440,note_on,0,0,6,,,,,,,,5,,,52,72
28452,note_on,72,0,1,,,,,,,,0,,,78,0
28452,note_on,72,0,2,,,,,,,,1,,,78,0
28470,note_on,18,0,1,,,,,,,,0,,,76,72
28470,note_on,18,0,2,,,,,,,,1,,,76,72
28536,note_on,0,0,6,,,,,,,,5,,,52,0
28536,note_on,96,0,5,,,,,,,,4,,,40,0
28536,note_on,96,0,6,,,,,,,,5,,,76,0
28536,note_on,96,0,3,,,,,,,,2,,,59,0
28536,note_on,96,0,4,,,,,,,,3,,,52,0
28536,note_on,0,0,6,,,,,,,,5,,,67,0
28542,note_on,72,0,2,,,,,,,,1,,,76,0
28542,note_on,72,0,1,,,,,,,,0,,,76,0
28560,note_on,24,0,3,,,,,,,,2,,,63,72
28560,note_on,0,0,6,,,,,,,,5,,,75,72
28560,note_on,24,0,4,,,,,,,,3,,,47,72
28560,note_on,24,0,5,,,,,,,,4,,,35,105
28560,note_on,0,0,6,,,,,,,,5,,,66,72
28560,note_on,18,0,2,,,,,,,,1,,,75,72
28560,note_on,18,0,1,,,,,,,,0,,,75,72
28560,note_on,24,0,6,,,,,,,,5,,,47,72
28584,note_on,24,0,1,,,,,,,,0,,,75,0
28584,note_on,24,0,2,,,,,,,,1,,,75,0
28590,note_on,6,0,1,,,,,,,,0,,,78,72
28590,note_on,6,0,2,,,,,,,,1,,,78,72
28614,note_on,24,0,1,,,,,,,,0,,,78,0
28614,note_on,24,0,2,,,,,,,,1,,,78,0
28620,note_on,6,0,1,,,,,,,,0,,,78,72
28620,note_on,6,0,2,,,,,,,,1,,,78,72
28656,note_on,96,0,4,,,,,,,,3,,,47,0
28656,note_on,96,0,3,,,,,,,,2,,,63,0
28656,note_on,0,0,6,,,,,,,,5,,,66,0
28656,note_on,0,0,6,,,,,,,,5,,,47,0
28656,note_on,96,0,5,,,,,,,,4,,,35,0
28656,note_on,96,0,6,,,,,,,,5,,,75,0
28680,note_on,24,0,4,,,,,,,,3,,,52,72
28680,note_on,24,0,5,,,,,,,,4,,,40,105
28680,note_on,24,0,3,,,,,,,,2,,,59,72
28680,note_on,24,0,6,,,,,,,,5,,,67,72
28680,note_on,0,0,6,,,,,,,,5,,,52,72
28680,note_on,0,0,6,,,,,,,,5,,,76,72
28692,note_on,72,0,1,,,,,,,,0,,,78,0
28692,note_on,72,0,2,,,,,,,,1,,,78,0
28710,note_on,18,0,2,,,,,,,,1,,,76,72
28710,note_on,18,0,1,,,,,,,,0,,,76,72
28776,note_on,96,0,3,,,,,,,,2,,,59,0
28776,note_on,96,0,5,,,,,,,,4,,,40,0
28776,note_on,96,0,6,,,,,,,,5,,,76,0
28776,note_on,96,0,4,,,,,,,,3,,,52,0
28776,note_on,0,0,6,,,,,,,,5,,,52,0
28776,note_on,0,0,6,,,,,,,,5,,,67,0
28782,note_on,72,0,2,,,,,,,,1,,,76,0
28782,note_on,72,0,1,,,,,,,,0,,,76,0
28800,note_on,24,0,3,,,,,,,,2,,,66,72
28800,note_on,24,0,5,,,,,,,,4,,,39,105
28800,note_on,24,0,6,,,,,,,,5,,,69,72
28800,note_on,0,0,6,,,,,,,,5,,,51,72
28800,note_on,0,0,6,,,,,,,,5,,,78,72
28800,note_on,18,0,2,,,,,,,,1,,,81,72
28800,note_on,18,0,1,,,,,,,,0,,,84,72
28800,note_on,24,0,4,,,,,,,,3,,,51,72
28896,note_on,0,0,6,,,,,,,,5,,,69,0
28896,note_on,96,0,3,,,,,,,,2,,,66,0
28896,note_on,96,0,5,,,,,,,,4,,,39,0
28896,note_on,96,0,6,,,,,,,,5,,,78,0
28896,note_on,0,0,6,,,,,,,,5,,,51,0
28896,note_on,96,0,4,,,,,,,,3,,,51,0
28896,note_on,96,0,2,,,,,,,,1,,,81,0
28896,note_on,96,0,1,,,,,,,,0,,,84,0
28920,note_on,0,0,6,,,,,,,,5,,,67,72
28920,note_on,0,0,6,,,,,,,,5,,,52,72
28920,note_on,24,0,2,,,,,,,,1,,,79,72
28920,note_on,24,0,6,,,,,,,,5,,,79,72
28920,note_on,24,0,4,,,,,,,,3,,,52,72
28920,note_on,24,0,1,,,,,,,,0,,,83,72
28920,note_on,24,0,5,,,,,,,,4,,,40,105
28920,note_on,24,0,3,,,,,,,,2,,,59,72
28968,note_on,48,0,5,,,,,,,,4,,,40,0
28968,note_on,48,0,4,,,,,,,,3,,,52,0
28968,note_on,0,0,6,,,,,,,,5,,,79,0
28968,note_on,48,0,6,,,,,,,,5,,,52,0
28968,note_on,0,0,6,,,,,,,,5,,,67,0
28980,note_on,12,0,5,,,,,,,,4,,,42,105
28980,note_on,12,0,4,,,,,,,,3,,,54,72
28980,note_on,0,0,6,,,,,,,,5,,,78,72
28980,note_on,12,0,6,,,,,,,,5,,,54,72
28980,note_on,0,0,6,,,,,,,,5,,,69,72
29016,note_on,96,0,3,,,,,,,,2,,,59,0
29028,note_on,48,0,6,,,,,,,,5,,,69,0
29028,note_on,0,0,6,,,,,,,,5,,,78,0
29028,note_on,0,0,6,,,,,,,,5,,,54,0
29028,note_on,48,0,5,,,,,,,,4,,,42,0
29028,note_on,48,0,4,,,,,,,,3,,,54,0
29040,note_on,12,0,5,,,,,,,,4,,,43,105
29040,note_on,0,0,6,,,,,,,,5,,,71,72
29040,note_on,0,0,6,,,,,,,,5,,,55,72
29040,note_on,12,0,4,,,,,,,,3,,,55,72
29040,note_on,24,0,3,,,,,,,,2,,,59,72
29040,note_on,12,0,6,,,,,,,,5,,,76,72
29112,note_on,192,0,1,,,,,,,,0,,,83,0
29112,note_on,192,0,2,,,,,,,,1,,,79,0
29136,note_on,96,0,6,,,,,,,,5,,,71,0
29136,note_on,0,0,6,,,,,,,,5,,,55,0
29136,note_on,96,0,5,,,,,,,,4,,,43,0
29136,note_on,96,0,3,,,,,,,,2,,,59,0
29136,note_on,96,0,4,,,,,,,,3,,,55,0
29160,note_on,48,0,2,,,,,,,,1,,,76,72
29160,note_on,24,0,6,,,,,,,,5,,,67,72
29160,note_on,0,0,6,,,,,,,,5,,,52,72
29160,note_on,24,0,3,,,,,,,,2,,,59,72
29160,note_on,24,0,5,,,,,,,,4,,,40,105
29160,note_on,48,0,1,,,,,,,,0,,,76,72
29160,note_on,24,0,4,,,,,,,,3,,,52,72
29232,note_on,72,0,6,,,,,,,,5,,,76,0
29256,note_on,96,0,1,,,,,,,,0,,,76,0
29256,note_on,96,0,5,,,,,,,,4,,,40,0
29256,note_on,96,0,4,,,,,,,,3,,,52,0
29256,note_on,0,0,6,,,,,,,,5,,,67,0
29256,note_on,24,0,6,,,,,,,,5,,,52,0
29256,note_on,96,0,3,,,,,,,,2,,,59,0
29256,note_on,96,0,2,,,,,,,,1,,,76,0
29280,note_on,24,0,2,,,,,,,,1,,,75,72
29280,note_on,24,0,1,,,,,,,,0,,,75,72
29280,note_on,24,0,4,,,,,,,,3,,,47,72
29280,note_on,0,0,6,,,,,,,,5,,,66,72
29280,note_on,24,0,3,,,,,,,,2,,,63,72
29280,note_on,24,0,6,,,,,,,,5,,,75,72
29280,note_on,0,0,6,,,,,,,,5,,,47,72
29280,note_on,24,0,5,,,,,,,,4,,,35,105
29304,note_on,24,0,1,,,,,,,,0,,,75,0
29304,note_on,24,0,2,,,,,,,,1,,,75,0
29310,note_on,6,0,2,,,,,,,,1,,,78,72
29310,note_on,6,0,1,,,,,,,,0,,,78,72
29334,note_on,24,0,1,,,,,,,,0,,,78,0
29334,note_on,24,0,2,,,,,,,,1,,,78,0
29340,note_on,6,0,2,,,,,,,,1,,,78,72
29340,note_on,6,0,1,,,,,,,,0,,,78,72
29376,note_on,0,0,6,,,,,,,,5,,,47,0
29376,note_on,96,0,4,,,,,,,,3,,,47,0
29376,note_on,96,0,5,,,,,,,,4,,,35,0
29376,note_on,96,0,3,,,,,,,,2,,,63,0
29376,note_on,96,0,6,,,,,,,,5,,,66,0
29376,note_on,0,0,6,,,,,,,,5,,,75,0
29400,note_on,24,0,4,,,,,,,,3,,,52,72
29400,note_on,24,0,5,,,,,,,,4,,,40,105
29400,note_on,0,0,6,,,,,,,,5,,,76,72
29400,note_on,0,0,6,,,,,,,,5,,,52,72
29400,note_on,24,0,6,,,,,,,,5,,,67,72
29400,note_on,24,0,3,,,,,,,,2,,,59,72
29412,note_on,72,0,2,,,,,,,,1,,,78,0
29412,note_on,72,0,1,,,,,,,,0,,,78,0
29430,note_on,18,0,2,,,,,,,,1,,,76,72
29430,note_on,18,0,1,,,,,,,,0,,,76,72
29496,note_on,96,0,5,,,,,,,,4,,,40,0
29496,note_on,0,0,6,,,,,,,,5,,,67,0
29496,note_on,0,0,6,,,,,,,,5,,,52,0
29496,note_on,96,0,4,,,,,,,,3,,,52,0
29496,note_on,96,0,6,,,,,,,,5,,,76,0
29496,note_on,96,0,3,,,,,,,,2,,,59,0
29502,note_on,72,0,1,,,,,,,,0,,,76,0
29502,note_on,72,0,2,,,,,,,,1,,,76,0
29520,note_on,24,0,4,,,,,,,,3,,,47,72
29520,note_on,18,0,2,,,,,,,,1,,,75,72
29520,note_on,18,0,1,,,,,,,,0,,,75,72
29520,note_on,24,0,5,,,,,,,,4,,,35,105
29520,note_on,0,0,6,,,,,,,,5,,,66,72
29520,note_on,0,0,6,,,,,,,,5,,,75,72
29520,note_on,24,0,6,,,,,,,,5,,,47,72
29520,note_on,24,0,3,,,,,,,,2,,,63,72
29544,note_on,24,0,2,,,,,,,,1,,,75,0
29544,note_on,24,0,1,,,,,,,,0,,,75,0
29550,note_on,6,0,2,,,,,,,,1,,,78,72
29550,note_on,6,0,1,,,,,,,,0,,,78,72
29574,note_on,24,0,1,,,,,,,,0,,,78,0
29574,note_on,24,0,2,,,,,,,,1,,,78,0
29580,note_on,6,0,1,,,,,,,,0,,,78,72
29580,note_on,6,0,2,,,,,,,,1,,,78,72
29616,note_on,0,0,6,,,,,,,,5,,,47,0
29616,note_on,0,0,6,,,,,,,,5,,,75,0
29616,note_on,96,0,6,,,,,,,,5,,,66,0
29616,note_on,96,0,4,,,,,,,,3,,,47,0
29616,note_on,96,0,5,,,,,,,,4,,,35,0
29616,note_on,96,0,3,,,,,,,,2,,,63,0
29640,note_on,24,0,4,,,,,,,,3,,,52,72
29640,note_on,0,0,6,,,,,,,,5,,,67,72
29640,note_on,0,0,6,,,,,,,,5,,,52,72
29640,note_on,24,0,6,,,,,,,,5,,,76,72
29640,note_on,24,0,5,,,,,,,,4,,,40,105
29640,note_on,24,0,3,,,,,,,,2,,,59,72
29652,note_on,72,0,2,,,,,,,,1,,,78,0
29652,note_on,72,0,1,,,,,,,,0,,,78,0
29670,note_on,18,0,2,,,,,,,,1,,,76,72
29670,note_on,18,0,1,,,,,,,,0,,,76,72
29736,note_on,0,0,6,,,,,,,,5,,,76,0
29736,note_on,0,0,6,,,,,,,,5,,,52,0
29736,note_on,96,0,6,,,,,,,,5,,,67,0
29736,note_on,96,0,5,,,,,,,,4,,,40,0
29736,note_on,96,0,4,,,,,,,,3,,,52,0
29736,note_on,96,0,3,,,,,,,,2,,,59,0
29742,note_on,72,0,1,,,,,,,,0,,,76,0
29742,note_on,72,0,2,,,,,,,,1,,,76,0
29760,note_on,24,0,3,,,,,,,,2,,,63,72
29760,note_on,24,0,4,,,,,,,,3,,,47,72
29760,note_on,24,0,5,,,,,,,,4,,,35,105
29760,note_on,0,0,6,,,,,,,,5,,,78,72
29760,note_on,0,0,6,,,,,,,,5,,,47,72
29760,note_on,24,0,6,,,,,,,,5,,,69,72
29760,note_on,18,0,1,,,,,,,,0,,,81,72
29760,note_on,18,0,2,,,,,,,,1,,,78,72
29856,note_on,96,0,5,,,,,,,,4,,,35,0
29856,note_on,0,0,6,,,,,,,,5,,,69,0
29856,note_on,0,0,6,,,,,,,,5,,,47,0
29856,note_on,96,0,6,,,,,,,,5,,,78,0
29856,note_on,96,0,2,,,,,,,,1,,,78,0
29856,note_on,96,0,4,,,,,,,,3,,,47,0
29856,note_on,96,0,1,,,,,,,,0,,,81,0
29856,note_on,96,0,3,,,,,,,,2,,,63,0
29880,note_on,24,0,3,,,,,,,,2,,,71,72
29880,note_on,24,0,2,,,,,,,,1,,,76,72
29880,note_on,24,0,5,,,,,,,,4,,,52,105
29880,note_on,24,0,1,,,,,,,,0,,,79,72
29880,note_on,24,0,6,,,,,,,,5,,,67,72
29880,note_on,0,0,6,,,,,,,,5,,,64,72
29880,note_on,0,0,6,,,,,,,,5,,,71,72
29880,note_on,24,0,4,,,,,,,,3,,,64,72
29928,note_on,0,0,6,,,,,,,,5,,,67,0
29928,note_on,48,0,5,,,,,,,,4,,,52,0
29928,note_on,48,0,6,,,,,,,,5,,,64,0
29928,note_on,48,0,4,,,,,,,,3,,,64,0
29940,note_on,12,0,6,,,,,,,,5,,,66,72
29940,note_on,12,0,5,,,,,,,,4,,,51,105
29940,note_on,12,0,4,,,,,,,,3,,,63,72
29940,note_on,0,0,6,,,,,,,,5,,,63,72
29976,note_on,96,0,3,,,,,,,,2,,,71,0
29988,note_on,48,0,6,,,,,,,,5,,,63,0
29988,note_on,48,0,5,,,,,,,,4,,,51,0
29988,note_on,0,0,6,,,,,,,,5,,,66,0
29988,note_on,48,0,4,,,,,,,,3,,,63,0
30000,note_on,12,0,4,,,,,,,,3,,,64,72
30000,note_on,0,0,6,,,,,,,,5,,,67,72
30000,note_on,12,0,6,,,,,,,,5,,,64,72
30000,note_on,24,0,3,,,,,,,,2,,,71,72
30000,note_on,12,0,5,,,,,,,,4,,,52,105
30072,note_on,192,0,2,,,,,,,,1,,,76,0
30072,note_on,192,0,1,,,,,,,,0,,,79,0
30072,note_on,72,0,6,,,,,,,,5,,,71,0
30096,note_on,96,0,5,,,,,,,,4,,,52,0
30096,note_on,96,0,4,,,,,,,,3,,,64,0
30096,note_on,0,0,6,,,,,,,,5,,,64,0
30096,note_on,24,0,6,,,,,,,,5,,,67,0
30096,note_on,96,0,3,,,,,,,,2,,,71,0
30120,note_on,48,0,1,,,,,,,,0,,,76,72
30120,note_on,0,0,6,,,,,,,,5,,,71,72
30120,note_on,24,0,6,,,,,,,,5,,,67,72
30120,note_on,24,0,4,,,,,,,,3,,,64,105
30120,note_on,0,0,6,,,,,,,,5,,,64,72
30120,note_on,24,0,5,,,,,,,,4,,,52,105
30120,note_on,24,0,3,,,,,,,,2,,,71,105
30216,note_on,96,0,6,,,,,,,,5,,,71,0
30216,note_on,0,0,6,,,,,,,,5,,,64,0
30216,note_on,96,0,4,,,,,,,,3,,,64,0
30216,note_on,96,0,3,,,,,,,,2,,,71,0
30216,note_on,96,0,1,,,,,,,,0,,,76,0
30216,note_on,96,0,5,,,,,,,,4,,,52,0
30216,note_on,0,0,6,,,,,,,,5,,,67,0
30240,note_on,0,0,6,,,,,,,,5,,,64,72
30240,note_on,24,0,1,,,,,,,,0,,,83,105
30240,note_on,0,0,6,,,,,,,,5,,,76,72
30240,note_on,24,0,3,,,,,,,,2,,,64,105
30240,note_on,24,0,4,,,,,,,,3,,,56,105
30240,note_on,24,0,5,,,,,,,,4,,,44,105
30240,note_on,24,0,6,,,,,,,,5,,,56,72
30288,note_on,48,0,1,,,,,,,,0,,,83,0
30300,note_on,12,0,1,,,,,,,,0,,,81,105
30336,note_on,96,0,6,,,,,,,,5,,,76,0
30336,note_on,0,0,6,,,,,,,,5,,,64,0
30336,note_on,0,0,6,,,,,,,,5,,,56,0
30336,note_on,96,0,4,,,,,,,,3,,,56,0
30336,note_on,96,0,5,,,,,,,,4,,,44,0
30336,note_on,96,0,3,,,,,,,,2,,,64,0
30348,note_on,48,0,1,,,,,,,,0,,,81,0
30360,note_on,24,0,3,,,,,,,,2,,,68,105
30360,note_on,24,0,6,,,,,,,,5,,,52,72
30360,note_on,0,0,6,,,,,,,,5,,,68,105
30360,note_on,12,0,1,,,,,,,,0,,,80,105
30360,note_on,24,0,4,,,,,,,,3,,,52,105
30360,note_on,24,0,5,,,,,,,,4,,,40,105
30408,note_on,48,0,1,,,,,,,,0,,,80,0
30420,note_on,12,0,1,,,,,,,,0,,,78,105
30456,note_on,0,0,6,,,,,,,,5,,,52,0
30456,note_on,96,0,6,,,,,,,,5,,,68,0
30456,note_on,96,0,3,,,,,,,,2,,,68,0
30456,note_on,96,0,4,,,,,,,,3,,,52,0
30456,note_on,96,0,5,,,,,,,,4,,,40,0
30468,note_on,48,0,1,,,,,,,,0,,,78,0
30480,note_on,24,0,5,,,,,,,,4,,,42,105
30480,note_on,24,0,4,,,,,,,,3,,,54,105
30480,note_on,24,0,3,,,,,,,,2,,,69,105
30480,note_on,12,0,1,,,,,,,,0,,,76,105
30480,note_on,24,0,6,,,,,,,,5,,,69,105
30480,note_on,0,0,6,,,,,,,,5,,,54,105
30528,note_on,48,0,1,,,,,,,,0,,,76,0
30540,note_on,12,0,1,,,,,,,,0,,,75,105
30576,note_on,96,0,5,,,,,,,,4,,,42,0
30576,note_on,96,0,4,,,,,,,,3,,,54,0
30576,note_on,96,0,3,,,,,,,,2,,,69,0
30576,note_on,0,0,6,,,,,,,,5,,,69,0
30576,note_on,96,0,6,,,,,,,,5,,,54,0
30588,note_on,48,0,1,,,,,,,,0,,,75,0
30600,note_on,24,0,3,,,,,,,,2,,,71,105
30600,note_on,24,0,4,,,,,,,,3,,,56,105
30600,note_on,528,0,2,,,,,,,,1,,,71,72
30600,note_on,24,0,5,,,,,,,,4,,,44,105
30600,note_on,12,0,1,,,,,,,,0,,,73,105
30600,note_on,0,0,6,,,,,,,,5,,,71,105
30600,note_on,24,0,6,,,,,,,,5,,,56,105
30648,note_on,48,0,1,,,,,,,,0,,,73,0
30660,note_on,12,0,1,,,,,,,,0,,,71,105
30696,note_on,0,0,6,,,,,,,,5,,,56,0
30696,note_on,96,0,5,,,,,,,,4,,,44,0
30696,note_on,96,0,3,,,,,,,,2,,,71,0
30696,note_on,96,0,2,,,,,,,,1,,,71,0
30696,note_on,96,0,4,,,,,,,,3,,,56,0
30696,note_on,96,0,6,,,,,,,,5,,,71,0
30708,note_on,48,0,1,,,,,,,,0,,,71,0
30720,note_on,24,0,3,,,,,,,,2,,,69,105
30720,note_on,24,0,2,,,,,,,,1,,,76,105
30720,note_on,24,0,5,,,,,,,,4,,,45,105
30720,note_on,24,0,4,,,,,,,,3,,,57,105
30720,note_on,24,0,6,,,,,,,,5,,,69,105
30720,note_on,0,0,6,,,,,,,,5,,,57,105
30720,note_on,12,0,1,,,,,,,,0,,,73,105
30768,note_on,48,0,2,,,,,,,,1,,,76,0
30780,note_on,12,0,2,,,,,,,,1,,,75,105
30816,note_on,96,0,6,,,,,,,,5,,,57,0
30816,note_on,0,0,6,,,,,,,,5,,,69,0
30816,note_on,96,0,3,,,,,,,,2,,,69,0
30816,note_on,96,0,4,,,,,,,,3,,,57,0
30816,note_on,96,0,1,,,,,,,,0,,,73,0
30816,note_on,96,0,5,,,,,,,,4,,,45,0
30828,note_on,48,0,2,,,,,,,,1,,,75,0
30840,note_on,24,0,1,,,,,,,,0,,,73,105
30840,note_on,24,0,5,,,,,,,,4,,,33,105
30840,note_on,12,0,2,,,,,,,,1,,,73,105
30840,note_on,24,0,3,,,,,,,,2,,,61,105
30840,note_on,24,0,4,,,,,,,,3,,,45,105
30840,note_on,0,0,6,,,,,,,,5,,,45,105
30840,note_on,24,0,6,,,,,,,,5,,,61,105
30888,note_on,48,0,2,,,,,,,,1,,,73,0
30900,note_on,12,0,2,,,,,,,,1,,,71,105
30936,note_on,96,0,5,,,,,,,,4,,,33,0
30936,note_on,96,0,3,,,,,,,,2,,,61,0
30936,note_on,96,0,6,,,,,,,,5,,,45,0
30936,note_on,0,0,6,,,,,,,,5,,,61,0
30936,note_on,96,0,4,,,,,,,,3,,,45,0
30948,note_on,48,0,2,,,,,,,,1,,,71,0
30960,note_on,24,0,5,,,,,,,,4,,,35,105
30960,note_on,24,0,4,,,,,,,,3,,,47,105
30960,note_on,24,0,6,,,,,,,,5,,,47,105
30960,note_on,0,0,6,,,,,,,,5,,,63,105
30960,note_on,12,0,2,,,,,,,,1,,,69,105
30960,note_on,24,0,3,,,,,,,,2,,,62,105
31008,note_on,48,0,2,,,,,,,,1,,,69,0
31020,note_on,12,0,2,,,,,,,,1,,,68,105
31032,note_on,192,0,1,,,,,,,,0,,,73,0
31056,note_on,96,0,3,,,,,,,,2,,,62,0
31056,note_on,0,0,6,,,,,,,,5,,,47,0
31056,note_on,96,0,4,,,,,,,,3,,,47,0
31056,note_on,96,0,5,,,,,,,,4,,,35,0
31056,note_on,96,0,6,,,,,,,,5,,,63,0
31068,note_on,48,0,2,,,,,,,,1,,,68,0
31080,note_on,24,0,5,,,,,,,,4,,,37,105
31080,note_on,24,0,4,,,,,,,,3,,,49,105
31080,note_on,24,0,6,,,,,,,,5,,,64,105
31080,note_on,0,0,6,,,,,,,,5,,,49,105
31080,note_on,24,0,3,,,,,,,,2,,,64,105
31080,note_on,12,0,2,,,,,,,,1,,,66,105
31080,note_on,48,0,1,,,,,,,,0,,,73,105
31128,note_on,48,0,2,,,,,,,,1,,,66,0
31140,note_on,12,0,2,,,,,,,,1,,,64,105
31176,note_on,96,0,6,,,,,,,,5,,,49,0
31176,note_on,96,0,5,,,,,,,,4,,,37,0
31176,note_on,0,0,6,,,,,,,,5,,,64,0
31176,note_on,96,0,1,,,,,,,,0,,,73,0
31176,note_on,96,0,3,,,,,,,,2,,,64,0
31176,note_on,96,0,4,,,,,,,,3,,,49,0
31188,note_on,48,0,2,,,,,,,,1,,,64,0
31200,note_on,24,0,1,,,,,,,,0,,,81,105
31200,note_on,24,0,5,,,,,,,,4,,,39,105
31200,note_on,24,0,6,,,,,,,,5,,,51,105
31200,note_on,24,0,4,,,,,,,,3,,,51,105
31200,note_on,24,0,3,,,,,,,,2,,,63,105
31200,note_on,0,0,6,,,,,,,,5,,,66,105
31200,note_on,12,0,2,,,,,,,,1,,,66,105
31248,note_on,48,0,1,,,,,,,,0,,,81,0
31260,note_on,12,0,1,,,,,,,,0,,,80,105
31296,note_on,96,0,3,,,,,,,,2,,,63,0
31296,note_on,96,0,2,,,,,,,,1,,,66,0
31296,note_on,96,0,6,,,,,,,,5,,,66,0
31296,note_on,0,0,6,,,,,,,,5,,,51,0
31296,note_on,96,0,5,,,,,,,,4,,,39,0
31296,note_on,96,0,4,,,,,,,,3,,,51,0
31308,note_on,48,0,1,,,,,,,,0,,,80,0
31320,note_on,24,0,5,,,,,,,,4,,,39,105
31320,note_on,24,0,4,,,,,,,,3,,,51,105
31320,note_on,24,0,3,,,,,,,,2,,,66,105
31320,note_on,24,0,2,,,,,,,,1,,,66,105
31320,note_on,0,0,6,,,,,,,,5,,,51,105
31320,note_on,24,0,6,,,,,,,,5,,,66,105
31320,note_on,12,0,1,,,,,,,,0,,,78,105
31368,note_on,48,0,1,,,,,,,,0,,,78,0
31380,note_on,12,0,1,,,,,,,,0,,,76,105
31416,note_on,96,0,4,,,,,,,,3,,,51,0
31416,note_on,0,0,6,,,,,,,,5,,,66,0
31416,note_on,96,0,6,,,,,,,,5,,,51,0
31416,note_on,96,0,5,,,,,,,,4,,,39,0
31416,note_on,96,0,3,,,,,,,,2,,,66,0
31428,note_on,48,0,1,,,,,,,,0,,,76,0
31440,note_on,24,0,5,,,,,,,,4,,,40,105
31440,note_on,24,0,6,,,,,,,,5,,,52,105
31440,note_on,0,0,6,,,,,,,,5,,,68,105
31440,note_on,12,0,1,,,,,,,,0,,,75,105
31440,note_on,24,0,4,,,,,,,,3,,,52,105
31440,note_on,24,0,3,,,,,,,,2,,,68,105
31488,note_on,48,0,1,,,,,,,,0,,,75,0
31500,note_on,12,0,1,,,,,,,,0,,,73,105
31512,note_on,192,0,2,,,,,,,,1,,,66,0
31536,note_on,0,0,6,,,,,,,,5,,,52,0
31536,note_on,96,0,5,,,,,,,,4,,,40,0
31536,note_on,96,0,3,,,,,,,,2,,,68,0
31536,note_on,96,0,6,,,,,,,,5,,,68,0
31536,note_on,96,0,4,,,,,,,,3,,,52,0
31548,note_on,48,0,1,,,,,,,,0,,,73,0
31560,note_on,24,0,5,,,,,,,,4,,,42,105
31560,note_on,0,0,6,,,,,,,,5,,,54,105
31560,note_on,24,0,6,,,,,,,,5,,,69,105
31560,note_on,24,0,3,,,,,,,,2,,,69,105
31560,note_on,48,0,2,,,,,,,,1,,,66,105
31560,note_on,12,0,1,,,,,,,,0,,,71,105
31560,note_on,24,0,4,,,,,,,,3,,,54,105
31608,note_on,48,0,1,,,,,,,,0,,,71,0
31620,note_on,12,0,1,,,,,,,,0,,,69,105
31656,note_on,96,0,4,,,,,,,,3,,,54,0
31656,note_on,96,0,3,,,,,,,,2,,,69,0
31656,note_on,96,0,2,,,,,,,,1,,,66,0
31656,note_on,0,0,6,,,,,,,,5,,,69,0
31656,note_on,96,0,6,,,,,,,,5,,,54,0
31656,note_on,96,0,5,,,,,,,,4,,,42,0
31668,note_on,48,0,1,,,,,,,,0,,,69,0
31680,note_on,24,0,3,,,,,,,,2,,,68,105
31680,note_on,0,0,6,,,,,,,,5,,,56,105
31680,note_on,24,0,6,,,,,,,,5,,,71,105
31680,note_on,12,0,1,,,,,,,,0,,,71,105
31680,note_on,24,0,5,,,,,,,,4,,,44,105
31680,note_on,24,0,4,,,,,,,,3,,,56,105
31680,note_on,24,0,2,,,,,,,,1,,,75,105
31728,note_on,48,0,2,,,,,,,,1,,,75,0
31740,note_on,12,0,2,,,,,,,,1,,,73,105
31776,note_on,96,0,6,,,,,,,,5,,,56,0
31776,note_on,96,0,4,,,,,,,,3,,,56,0
31776,note_on,96,0,3,,,,,,,,2,,,68,0
31776,note_on,96,0,5,,,,,,,,4,,,44,0
31776,note_on,0,0,6,,,,,,,,5,,,71,0
31776,note_on,96,0,1,,,,,,,,0,,,71,0
31788,note_on,48,0,2,,,,,,,,1,,,73,0
31800,note_on,24,0,4,,,,,,,,3,,,44,105
31800,note_on,24,0,5,,,,,,,,4,,,32,105
31800,note_on,12,0,2,,,,,,,,1,,,71,105
31800,note_on,24,0,6,,,,,,,,5,,,59,105
31800,note_on,24,0,1,,,,,,,,0,,,71,105
31800,note_on,24,0,3,,,,,,,,2,,,59,105
31800,note_on,0,0,6,,,,,,,,5,,,44,105
31848,note_on,48,0,2,,,,,,,,1,,,71,0
31860,note_on,12,0,2,,,,,,,,1,,,69,105
31896,note_on,96,0,3,,,,,,,,2,,,59,0
31896,note_on,96,0,6,,,,,,,,5,,,44,0
31896,note_on,0,0,6,,,,,,,,5,,,59,0
31896,note_on,96,0,5,,,,,,,,4,,,32,0
31896,note_on,96,0,4,,,,,,,,3,,,44,0
31908,note_on,48,0,2,,,,,,,,1,,,69,0
31920,note_on,12,0,2,,,,,,,,1,,,68,105
31920,note_on,24,0,5,,,,,,,,4,,,33,105
31920,note_on,0,0,6,,,,,,,,5,,,61,105
31920,note_on,24,0,6,,,,,,,,5,,,45,105
31920,note_on,24,0,3,,,,,,,,2,,,61,105
31920,note_on,24,0,4,,,,,,,,3,,,45,105
31968,note_on,48,0,2,,,,,,,,1,,,68,0
31980,note_on,12,0,2,,,,,,,,1,,,66,105
31992,note_on,192,0,1,,,,,,,,0,,,71,0
32016,note_on,96,0,5,,,,,,,,4,,,33,0
32016,note_on,96,0,3,,,,,,,,2,,,61,0
32016,note_on,0,0,6,,,,,,,,5,,,45,0
32016,note_on,96,0,6,,,,,,,,5,,,61,0
32016,note_on,96,0,4,,,,,,,,3,,,45,0
32028,note_on,48,0,2,,,,,,,,1,,,66,0
32040,note_on,24,0,4,,,,,,,,3,,,47,105
32040,note_on,24,0,3,,,,,,,,2,,,63,105
32040,note_on,0,0,6,,,,,,,,5,,,47,105
32040,note_on,24,0,6,,,,,,,,5,,,63,105
32040,note_on,48,0,1,,,,,,,,0,,,71,105
32040,note_on,24,0,5,,,,,,,,4,,,35,105
32040,note_on,12,0,2,,,,,,,,1,,,64,105
32088,note_on,48,0,2,,,,,,,,1,,,64,0
32100,note_on,12,0,2,,,,,,,,1,,,62,105
32136,note_on,96,0,4,,,,,,,,3,,,47,0
32136,note_on,96,0,3,,,,,,,,2,,,63,0
32136,note_on,0,0,6,,,,,,,,5,,,63,0
32136,note_on,96,0,6,,,,,,,,5,,,47,0
32136,note_on,96,0,5,,,,,,,,4,,,35,0
32136,note_on,96,0,1,,,,,,,,0,,,71,0
32148,note_on,48,0,2,,,,,,,,1,,,62,0
32160,note_on,24,0,6,,,,,,,,5,,,49,105
32160,note_on,12,0,2,,,,,,,,1,,,64,105
32160,note_on,0,0,6,,,,,,,,5,,,64,105
32160,note_on,24,0,5,,,,,,,,4,,,37,105
32160,note_on,24,0,4,,,,,,,,3,,,49,105
32160,note_on,24,0,3,,,,,,,,2,,,61,105
32160,note_on,24,0,1,,,,,,,,0,,,80,105
32208,note_on,48,0,1,,,,,,,,0,,,80,0
32220,note_on,12,0,1,,,,,,,,0,,,78,105
32256,note_on,96,0,4,,,,,,,,3,,,49,0
32256,note_on,96,0,5,,,,,,,,4,,,37,0
32256,note_on,96,0,2,,,,,,,,1,,,64,0
32256,note_on,96,0,6,,,,,,,,5,,,64,0
32256,note_on,96,0,3,,,,,,,,2,,,61,0
32256,note_on,0,0,6,,,,,,,,5,,,49,0
32268,note_on,48,0,1,,,,,,,,0,,,78,0
32280,note_on,0,0,6,,,,,,,,5,,,49,105
32280,note_on,24,0,5,,,,,,,,4,,,37,105
32280,note_on,24,0,3,,,,,,,,2,,,64,105
32280,note_on,12,0,1,,,,,,,,0,,,76,105
32280,note_on,24,0,2,,,,,,,,1,,,64,105
32280,note_on,24,0,6,,,,,,,,5,,,64,105
32280,note_on,24,0,4,,,,,,,,3,,,49,105
32328,note_on,48,0,1,,,,,,,,0,,,76,0
32340,note_on,12,0,1,,,,,,,,0,,,75,105
32376,note_on,96,0,6,,,,,,,,5,,,49,0
32376,note_on,0,0,6,,,,,,,,5,,,64,0
32376,note_on,96,0,3,,,,,,,,2,,,64,0
32376,note_on,96,0,4,,,,,,,,3,,,49,0
32376,note_on,96,0,5,,,,,,,,4,,,37,0
32388,note_on,48,0,1,,,,,,,,0,,,75,0
32400,note_on,24,0,3,,,,,,,,2,,,66,105
32400,note_on,12,0,1,,,,,,,,0,,,73,105
32400,note_on,0,0,6,,,,,,,,5,,,66,105
32400,note_on,24,0,6,,,,,,,,5,,,51,105
32400,note_on,24,0,4,,,,,,,,3,,,51,105
32400,note_on,24,0,5,,,,,,,,4,,,39,105
32448,note_on,48,0,1,,,,,,,,0,,,73,0
32460,note_on,12,0,1,,,,,,,,0,,,71,105
32472,note_on,192,0,2,,,,,,,,1,,,64,0
32496,note_on,96,0,3,,,,,,,,2,,,66,0
32496,note_on,96,0,4,,,,,,,,3,,,51,0
32496,note_on,0,0,6,,,,,,,,5,,,51,0
32496,note_on,96,0,5,,,,,,,,4,,,39,0
32496,note_on,96,0,6,,,,,,,,5,,,66,0
32508,note_on,48,0,1,,,,,,,,0,,,71,0
32520,note_on,24,0,5,,,,,,,,4,,,40,105
32520,note_on,48,0,2,,,,,,,,1,,,64,105
32520,note_on,24,0,3,,,,,,,,2,,,68,105
32520,note_on,24,0,6,,,,,,,,5,,,68,105
32520,note_on,0,0,6,,,,,,,,5,,,52,105
32520,note_on,12,0,1,,,,,,,,0,,,69,105
32520,note_on,24,0,4,,,,,,,,3,,,52,105
32568,note_on,48,0,1,,,,,,,,0,,,69,0
32580,note_on,12,0,1,,,,,,,,0,,,68,105
32616,note_on,96,0,5,,,,,,,,4,,,40,0
32616,note_on,96,0,2,,,,,,,,1,,,64,0
32616,note_on,96,0,4,,,,,,,,3,,,52,0
32616,note_on,96,0,6,,,,,,,,5,,,52,0
32616,note_on,0,0,6,,,,,,,,5,,,68,0
32616,note_on,96,0,3,,,,,,,,2,,,68,0
32628,note_on,48,0,1,,,,,,,,0,,,68,0
32640,note_on,24,0,6,,,,,,,,5,,,54,105
32640,note_on,24,0,2,,,,,,,,1,,,73,105
32640,note_on,12,0,1,,,,,,,,0,,,69,105
32640,note_on,24,0,5,,,,,,,,4,,,42,105
32640,note_on,24,0,3,,,,,,,,2,,,66,105
32640,note_on,0,0,6,,,,,,,,5,,,69,105
32640,note_on,24,0,4,,,,,,,,3,,,54,105
32688,note_on,48,0,2,,,,,,,,1,,,73,0
32700,note_on,12,0,2,,,,,,,,1,,,71,105
32736,note_on,96,0,5,,,,,,,,4,,,42,0
32736,note_on,96,0,1,,,,,,,,0,,,69,0
32736,note_on,96,0,3,,,,,,,,2,,,66,0
32736,note_on,0,0,6,,,,,,,,5,,,54,0
32736,note_on,96,0,6,,,,,,,,5,,,69,0
32736,note_on,96,0,4,,,,,,,,3,,,54,0
32748,note_on,48,0,2,,,,,,,,1,,,71,0
32760,note_on,24,0,1,,,,,,,,0,,,69,105
32760,note_on,24,0,5,,,,,,,,4,,,42,105
32760,note_on,24,0,6,,,,,,,,5,,,54,105
32760,note_on,12,0,2,,,,,,,,1,,,69,105
32760,note_on,24,0,3,,,,,,,,2,,,57,105
32760,note_on,24,0,4,,,,,,,,3,,,54,105
32760,note_on,0,0,6,,,,,,,,5,,,61,105
32808,note_on,48,0,2,,,,,,,,1,,,69,0
32820,note_on,12,0,2,,,,,,,,1,,,68,105
32856,note_on,96,0,3,,,,,,,,2,,,57,0
32856,note_on,0,0,6,,,,,,,,5,,,54,0
32856,note_on,96,0,4,,,,,,,,3,,,54,0
32856,note_on,96,0,5,,,,,,,,4,,,42,0
32856,note_on,96,0,6,,,,,,,,5,,,61,0
32868,note_on,48,0,2,,,,,,,,1,,,68,0
32880,note_on,24,0,5,,,,,,,,4,,,44,105
32880,note_on,24,0,4,,,,,,,,3,,,56,105
32880,note_on,24,0,3,,,,,,,,2,,,59,105
32880,note_on,12,0,2,,,,,,,,1,,,66,105
32880,note_on,0,0,6,,,,,,,,5,,,63,105
32880,note_on,24,0,6,,,,,,,,5,,,56,105
32928,note_on,48,0,2,,,,,,,,1,,,66,0
32940,note_on,12,0,2,,,,,,,,1,,,64,105
32952,note_on,192,0,1,,,,,,,,0,,,69,0
32976,note_on,96,0,5,,,,,,,,4,,,44,0
32976,note_on,96,0,4,,,,,,,,3,,,56,0
32976,note_on,96,0,3,,,,,,,,2,,,59,0
32976,note_on,96,0,6,,,,,,,,5,,,56,0
32988,note_on,48,0,2,,,,,,,,1,,,64,0
33000,note_on,24,0,6,,,,,,,,5,,,57,105
33000,note_on,24,0,3,,,,,,,,2,,,61,105
33000,note_on,48,0,1,,,,,,,,0,,,69,105
33000,note_on,24,0,5,,,,,,,,4,,,45,105
33000,note_on,24,0,4,,,,,,,,3,,,57,105
33000,note_on,12,0,2,,,,,,,,1,,,63,105
33048,note_on,48,0,2,,,,,,,,1,,,63,0
33060,note_on,12,0,2,,,,,,,,1,,,61,105
33096,note_on,96,0,5,,,,,,,,4,,,45,0
33096,note_on,96,0,3,,,,,,,,2,,,61,0
33096,note_on,96,0,6,,,,,,,,5,,,57,0
33096,note_on,96,0,4,,,,,,,,3,,,57,0
33096,note_on,96,0,1,,,,,,,,0,,,69,0
33108,note_on,48,0,2,,,,,,,,1,,,61,0
33120,note_on,24,0,4,,,,,,,,3,,,48,105
33120,note_on,24,0,6,,,,,,,,5,,,48,105
33120,note_on,24,0,3,,,,,,,,2,,,63,105
33120,note_on,24,0,5,,,,,,,,4,,,36,105
33120,note_on,24,0,1,,,,,,,,0,,,78,105
33120,note_on,12,0,2,,,,,,,,1,,,63,105
33168,note_on,48,0,1,,,,,,,,0,,,78,0
33180,note_on,12,0,1,,,,,,,,0,,,80,105
33216,note_on,96,0,2,,,,,,,,1,,,63,0
33216,note_on,96,0,6,,,,,,,,5,,,48,0
33216,note_on,96,0,4,,,,,,,,3,,,48,0
33216,note_on,96,0,5,,,,,,,,4,,,36,0
33228,note_on,48,0,1,,,,,,,,0,,,80,0
33240,note_on,24,0,2,,,,,,,,1,,,75,105
33240,note_on,12,0,1,,,,,,,,0,,,81,105
33240,note_on,24,0,6,,,,,,,,5,,,75,105
33240,note_on,0,0,6,,,,,,,,5,,,60,105
33240,note_on,24,0,4,,,,,,,,3,,,60,105
33240,note_on,24,0,5,,,,,,,,4,,,48,105
33264,note_on,24,0,6,,,,,,,,5,,,63,0
33288,note_on,48,0,1,,,,,,,,0,,,81,0
33300,note_on,12,0,1,,,,,,,,0,,,78,105
33336,note_on,72,0,6,,,,,,,,5,,,60,0
33336,note_on,0,0,6,,,,,,,,5,,,75,0
33336,note_on,96,0,2,,,,,,,,1,,,75,0
33336,note_on,96,0,4,,,,,,,,3,,,60,0
33336,note_on,96,0,5,,,,,,,,4,,,48,0
33348,note_on,48,0,1,,,,,,,,0,,,78,0
33360,note_on,24,0,4,,,,,,,,3,,,58,105
33360,note_on,12,0,1,,,,,,,,0,,,75,105
33360,note_on,24,0,5,,,,,,,,4,,,46,105
33360,note_on,24,0,6,,,,,,,,5,,,58,105
33360,note_on,0,0,6,,,,,,,,5,,,73,105
33360,note_on,24,0,2,,,,,,,,1,,,72,105
33408,note_on,48,0,2,,,,,,,,1,,,72,0
33408,note_on,288,0,3,,,,,,,,2,,,63,0
33408,note_on,48,0,1,,,,,,,,0,,,75,0
33420,note_on,12,0,2,,,,,,,,1,,,73,105
33420,note_on,12,0,1,,,,,,,,0,,,76,105
33456,note_on,96,0,4,,,,,,,,3,,,58,0
33456,note_on,96,0,5,,,,,,,,4,,,46,0
33456,note_on,0,0,6,,,,,,,,5,,,58,0
33456,note_on,96,0,6,,,,,,,,5,,,73,0
33468,note_on,48,0,1,,,,,,,,0,,,76,0
33468,note_on,48,0,2,,,,,,,,1,,,73,0
33480,note_on,12,0,2,,,,,,,,1,,,75,105
33480,note_on,0,0,6,,,,,,,,5,,,72,105
33480,note_on,12,0,1,,,,,,,,0,,,78,105
33480,note_on,24,0,5,,,,,,,,4,,,44,105
33480,note_on,72,0,3,,,,,,,,2,,,68,105
33480,note_on,24,0,4,,,,,,,,3,,,56,105
33480,note_on,24,0,6,,,,,,,,5,,,56,105
33528,note_on,48,0,2,,,,,,,,1,,,75,0
33528,note_on,48,0,1,,,,,,,,0,,,78,0
33540,note_on,12,0,2,,,,,,,,1,,,72,105
33540,note_on,12,0,1,,,,,,,,0,,,75,105
33576,note_on,96,0,5,,,,,,,,4,,,44,0
33576,note_on,96,0,4,,,,,,,,3,,,56,0
33576,note_on,96,0,6,,,,,,,,5,,,72,0
33576,note_on,96,0,3,,,,,,,,2,,,68,0
33576,note_on,0,0,6,,,,,,,,5,,,56,0
33588,note_on,48,0,1,,,,,,,,0,,,75,0
33588,note_on,48,0,2,,,,,,,,1,,,72,0
33600,note_on,24,0,5,,,,,,,,4,,,49,105
33600,note_on,12,0,2,,,,,,,,1,,,73,124
33600,note_on,24,0,3,,,,,,,,2,,,68,105
33600,note_on,0,0,6,,,,,,,,5,,,73,105
33600,note_on,0,0,6,,,,,,,,5,,,61,105
33600,note_on,24,0,4,,,,,,,,3,,,61,105
33600,note_on,12,0,1,,,,,,,,0,,,76,105
33600,note_on,24,0,6,,,,,,,,5,,,64,105
33648,note_on,48,0,1,,,,,,,,0,,,76,0
33660,note_on,12,0,1,,,,,,,,0,,,73,105
33696,note_on,96,0,3,,,,,,,,2,,,68,0
33696,note_on,96,0,6,,,,,,,,5,,,64,0
33708,note_on,48,0,1,,,,,,,,0,,,73,0
33720,note_on,12,0,1,,,,,,,,0,,,72,105
33720,note_on,24,0,3,,,,,,,,2,,,68,105
33720,note_on,24,0,6,,,,,,,,5,,,61,105
33768,note_on,48,0,1,,,,,,,,0,,,72,0
33780,note_on,12,0,1,,,,,,,,0,,,73,105
33792,note_on,192,0,2,,,,,,,,1,,,73,0
33816,note_on,96,0,6,,,,,,,,5,,,61,0
33816,note_on,96,0,3,,,,,,,,2,,,68,0
33828,note_on,48,0,1,,,,,,,,0,,,73,0
33840,note_on,12,0,1,,,,,,,,0,,,73,105
33840,note_on,24,0,6,,,,,,,,5,,,61,105
33840,note_on,24,0,3,,,,,,,,2,,,68,105
33864,note_on,24,0,1,,,,,,,,0,,,73,0
33870,note_on,6,0,1,,,,,,,,0,,,74,105
33888,note_on,288,0,4,,,,,,,,3,,,61,0
33888,note_on,48,0,6,,,,,,,,5,,,61,0
33888,note_on,288,0,5,,,,,,,,4,,,49,0
33894,note_on,24,0,1,,,,,,,,0,,,74,0
33900,note_on,12,0,6,,,,,,,,5,,,61,105
33900,note_on,12,0,5,,,,,,,,4,,,49,105
33900,note_on,6,0,1,,,,,,,,0,,,73,105
33900,note_on,12,0,4,,,,,,,,3,,,61,105
33924,note_on,24,0,1,,,,,,,,0,,,73,0
33930,note_on,6,0,1,,,,,,,,0,,,74,105
33936,note_on,96,0,3,,,,,,,,2,,,68,0
33936,note_on,36,0,6,,,,,,,,5,,,61,0
33948,note_on,12,0,6,,,,,,,,5,,,61,0
33948,note_on,48,0,5,,,,,,,,4,,,49,0
33948,note_on,48,0,4,,,,,,,,3,,,61,0
33954,note_on,24,0,1,,,,,,,,0,,,74,0
33960,note_on,24,0,3,,,,,,,,2,,,68,105
33960,note_on,6,0,1,,,,,,,,0,,,73,105
33960,note_on,12,0,4,,,,,,,,3,,,60,105
33960,note_on,12,0,6,,,,,,,,5,,,60,105
33960,note_on,12,0,5,,,,,,,,4,,,48,105
33984,note_on,24,0,6,,,,,,,,5,,,73,0
33984,note_on,24,0,1,,,,,,,,0,,,73,0
33990,note_on,6,0,1,,,,,,,,0,,,74,105
34008,note_on,24,0,6,,,,,,,,5,,,60,0
34008,note_on,48,0,5,,,,,,,,4,,,48,0
34008,note_on,48,0,4,,,,,,,,3,,,60,0
34014,note_on,24,0,1,,,,,,,,0,,,74,0
34020,note_on,6,0,1,,,,,,,,0,,,73,105
34020,note_on,12,0,6,,,,,,,,5,,,61,105
34020,note_on,12,0,5,,,,,,,,4,,,49,105
34020,note_on,12,0,4,,,,,,,,3,,,61,105
34044,note_on,24,0,1,,,,,,,,0,,,73,0
34050,note_on,6,0,1,,,,,,,,0,,,74,105
34056,note_on,96,0,3,,,,,,,,2,,,68,0
34068,note_on,48,0,5,,,,,,,,4,,,49,0
34068,note_on,48,0,4,,,,,,,,3,,,61,0
34068,note_on,48,0,6,,,,,,,,5,,,61,0
34074,note_on,24,0,1,,,,,,,,0,,,74,0
34080,note_on,0,0,6,,,,,,,,5,,,69,105
34080,note_on,12,0,5,,,,,,,,4,,,37,105
34080,note_on,12,0,6,,,,,,,,5,,,66,105
34080,note_on,12,0,4,,,,,,,,3,,,49,105
34080,note_on,6,0,1,,,,,,,,0,,,78,105
34080,note_on,0,0,6,,,,,,,,5,,,49,105
34128,note_on,48,0,1,,,,,,,,0,,,78,0
34140,note_on,12,0,1,,,,,,,,0,,,73,105
34176,note_on,96,0,6,,,,,,,,5,,,66,0
34188,note_on,48,0,1,,,,,,,,0,,,73,0
34200,note_on,144,0,3,,,,,,,,2,,,69,105
34200,note_on,24,0,6,,,,,,,,5,,,61,105
34200,note_on,12,0,1,,,,,,,,0,,,72,105
34248,note_on,48,0,1,,,,,,,,0,,,72,0
34260,note_on,12,0,1,,,,,,,,0,,,73,105
34296,note_on,96,0,6,,,,,,,,5,,,61,0
34296,note_on,96,0,3,,,,,,,,2,,,69,0
34308,note_on,48,0,1,,,,,,,,0,,,73,0
34320,note_on,12,0,1,,,,,,,,0,,,73,105
34320,note_on,24,0,3,,,,,,,,2,,,69,105
34320,note_on,24,0,6,,,,,,,,5,,,61,105
34344,note_on,24,0,1,,,,,,,,0,,,73,0
34350,note_on,6,0,1,,,,,,,,0,,,74,105
34368,note_on,48,0,6,,,,,,,,5,,,49,0
34368,note_on,288,0,4,,,,,,,,3,,,49,0
34368,note_on,288,0,5,,,,,,,,4,,,37,0
34374,note_on,24,0,1,,,,,,,,0,,,74,0
34380,note_on,12,0,5,,,,,,,,4,,,49,105
34380,note_on,12,0,4,,,,,,,,3,,,61,105
34380,note_on,12,0,6,,,,,,,,5,,,61,105
34380,note_on,6,0,1,,,,,,,,0,,,73,105
34404,note_on,24,0,1,,,,,,,,0,,,73,0
34410,note_on,6,0,1,,,,,,,,0,,,74,105
34416,note_on,96,0,3,,,,,,,,2,,,69,0
34416,note_on,36,0,6,,,,,,,,5,,,61,0
34428,note_on,12,0,6,,,,,,,,5,,,61,0
34428,note_on,48,0,5,,,,,,,,4,,,49,0
34428,note_on,48,0,4,,,,,,,,3,,,61,0
34434,note_on,24,0,1,,,,,,,,0,,,74,0
34440,note_on,12,0,4,,,,,,,,3,,,60,105
34440,note_on,6,0,1,,,,,,,,0,,,73,105
34440,note_on,24,0,3,,,,,,,,2,,,69,105
34440,note_on,12,0,6,,,,,,,,5,,,60,105
34440,note_on,12,0,5,,,,,,,,4,,,48,105
34464,note_on,24,0,6,,,,,,,,5,,,69,0
34464,note_on,24,0,1,,,,,,,,0,,,73,0
34470,note_on,6,0,1,,,,,,,,0,,,74,105
34488,note_on,48,0,5,,,,,,,,4,,,48,0
34488,note_on,48,0,4,,,,,,,,3,,,60,0
34488,note_on,24,0,6,,,,,,,,5,,,60,0
34494,note_on,24,0,1,,,,,,,,0,,,74,0
34500,note_on,12,0,6,,,,,,,,5,,,61,105
34500,note_on,6,0,1,,,,,,,,0,,,73,105
34500,note_on,12,0,5,,,,,,,,4,,,49,105
34500,note_on,12,0,4,,,,,,,,3,,,61,105
34524,note_on,24,0,1,,,,,,,,0,,,73,0
34530,note_on,6,0,1,,,,,,,,0,,,74,105
34536,note_on,96,0,3,,,,,,,,2,,,69,0
34548,note_on,48,0,5,,,,,,,,4,,,49,0
34548,note_on,48,0,4,,,,,,,,3,,,61,0
34548,note_on,48,0,6,,,,,,,,5,,,61,0
34554,note_on,24,0,1,,,,,,,,0,,,74,0
34560,note_on,6,0,1,,,,,,,,0,,,80,105
34560,note_on,12,0,5,,,,,,,,4,,,37,105
34560,note_on,768,0,2,,,,,,,,1,,,76,124
34560,note_on,0,0,6,,,,,,,,5,,,49,105
34560,note_on,0,0,6,,,,,,,,5,,,68,105
34560,note_on,12,0,6,,,,,,,,5,,,64,105
34560,note_on,12,0,4,,,,,,,,3,,,49,105
34608,note_on,48,0,1,,,,,,,,0,,,80,0
34608,note_on,48,0,2,,,,,,,,1,,,76,0
34620,note_on,12,0,2,,,,,,,,1,,,73,105
34620,note_on,12,0,1,,,,,,,,0,,,73,105
34656,note_on,96,0,6,,,,,,,,5,,,64,0
34668,note_on,48,0,1,,,,,,,,0,,,73,0
34668,note_on,48,0,2,,,,,,,,1,,,73,0
34680,note_on,12,0,2,,,,,,,,1,,,72,105
34680,note_on,24,0,6,,,,,,,,5,,,61,105
34680,note_on,144,0,3,,,,,,,,2,,,64,105
34680,note_on,12,0,1,,,,,,,,0,,,72,105
34728,note_on,48,0,2,,,,,,,,1,,,72,0
34728,note_on,48,0,1,,,,,,,,0,,,72,0
34740,note_on,12,0,2,,,,,,,,1,,,73,105
34740,note_on,12,0,1,,,,,,,,0,,,73,105
34776,note_on,96,0,3,,,,,,,,2,,,64,0
34776,note_on,96,0,6,,,,,,,,5,,,61,0
34788,note_on,48,0,2,,,,,,,,1,,,73,0
34788,note_on,48,0,1,,,,,,,,0,,,73,0
34800,note_on,12,0,1,,,,,,,,0,,,73,105
34800,note_on,24,0,3,,,,,,,,2,,,64,105
34800,note_on,24,0,6,,,,,,,,5,,,61,105
34800,note_on,12,0,2,,,,,,,,1,,,73,105
34824,note_on,24,0,2,,,,,,,,1,,,73,0
34824,note_on,24,0,1,,,,,,,,0,,,73,0
34830,note_on,6,0,2,,,,,,,,1,,,74,105
34830,note_on,6,0,1,,,,,,,,0,,,74,105
34848,note_on,288,0,4,,,,,,,,3,,,49,0
34848,note_on,288,0,5,,,,,,,,4,,,37,0
34848,note_on,48,0,6,,,,,,,,5,,,49,0
34854,note_on,24,0,2,,,,,,,,1,,,74,0
34854,note_on,24,0,1,,,,,,,,0,,,74,0
34860,note_on,12,0,5,,,,,,,,4,,,49,105
34860,note_on,6,0,2,,,,,,,,1,,,73,105
34860,note_on,6,0,1,,,,,,,,0,,,73,105
34860,note_on,12,0,6,,,,,,,,5,,,61,105
34860,note_on,12,0,4,,,,,,,,3,,,61,105
34884,note_on,24,0,2,,,,,,,,1,,,73,0
34884,note_on,24,0,1,,,,,,,,0,,,73,0
34890,note_on,6,0,1,,,,,,,,0,,,74,105
34890,note_on,6,0,2,,,,,,,,1,,,74,105
34896,note_on,96,0,3,,,,,,,,2,,,64,0
34896,note_on,36,0,6,,,,,,,,5,,,61,0
34908,note_on,48,0,5,,,,,,,,4,,,49,0
34908,note_on,48,0,4,,,,,,,,3,,,61,0
34908,note_on,12,0,6,,,,,,,,5,,,61,0
34914,note_on,24,0,1,,,,,,,,0,,,74,0
34914,note_on,24,0,2,,,,,,,,1,,,74,0
34920,note_on,12,0,5,,,,,,,,4,,,48,105
34920,note_on,12,0,4,,,,,,,,3,,,60,105
34920,note_on,6,0,2,,,,,,,,1,,,73,105
34920,note_on,24,0,3,,,,,,,,2,,,64,105
34920,note_on,12,0,6,,,,,,,,5,,,60,105
34920,note_on,6,0,1,,,,,,,,0,,,73,105
34944,note_on,24,0,2,,,,,,,,1,,,73,0
34944,note_on,24,0,6,,,,,,,,5,,,68,0
34944,note_on,24,0,1,,,,,,,,0,,,73,0
34950,note_on,6,0,2,,,,,,,,1,,,74,105
34950,note_on,6,0,1,,,,,,,,0,,,74,105
34968,note_on,48,0,4,,,,,,,,3,,,60,0
34968,note_on,48,0,5,,,,,,,,4,,,48,0
34968,note_on,24,0,6,,,,,,,,5,,,60,0
34974,note_on,24,0,1,,,,,,,,0,,,74,0
34974,note_on,24,0,2,,,,,,,,1,,,74,0
34980,note_on,12,0,6,,,,,,,,5,,,61,105
34980,note_on,12,0,4,,,,,,,,3,,,61,105
34980,note_on,12,0,5,,,,,,,,4,,,49,105
34980,note_on,6,0,2,,,,,,,,1,,,73,105
34980,note_on,6,0,1,,,,,,,,0,,,73,105
35004,note_on,24,0,1,,,,,,,,0,,,73,0
35004,note_on,24,0,2,,,,,,,,1,,,73,0
35010,note_on,6,0,2,,,,,,,,1,,,74,105
35010,note_on,6,0,1,,,,,,,,0,,,74,105
35016,note_on,96,0,3,,,,,,,,2,,,64,0
35028,note_on,48,0,5,,,,,,,,4,,,49,0
35028,note_on,48,0,4,,,,,,,,3,,,61,0
35028,note_on,48,0,6,,,,,,,,5,,,61,0
35034,note_on,24,0,1,,,,,,,,0,,,74,0
35034,note_on,24,0,2,,,,,,,,1,,,74,0
35040,note_on,0,0,6,,,,,,,,5,,,49,105
35040,note_on,12,0,5,,,,,,,,4,,,37,105
35040,note_on,12,0,4,,,,,,,,3,,,49,105
35040,note_on,6,0,1,,,,,,,,0,,,81,105
35040,note_on,0,0,6,,,,,,,,5,,,69,105
35040,note_on,6,0,2,,,,,,,,1,,,78,105
35040,note_on,12,0,6,,,,,,,,5,,,66,105
35088,note_on,48,0,2,,,,,,,,1,,,78,0
35088,note_on,48,0,1,,,,,,,,0,,,81,0
35100,note_on,12,0,1,,,,,,,,0,,,73,105
35100,note_on,12,0,2,,,,,,,,1,,,73,105
35136,note_on,96,0,6,,,,,,,,5,,,66,0
35148,note_on,48,0,2,,,,,,,,1,,,73,0
35148,note_on,48,0,1,,,,,,,,0,,,73,0
35160,note_on,12,0,2,,,,,,,,1,,,72,105
35160,note_on,144,0,3,,,,,,,,2,,,64,105
35160,note_on,24,0,6,,,,,,,,5,,,61,105
35160,note_on,12,0,1,,,,,,,,0,,,72,105
35208,note_on,48,0,2,,,,,,,,1,,,72,0
35208,note_on,48,0,1,,,,,,,,0,,,72,0
35220,note_on,12,0,2,,,,,,,,1,,,73,105
35220,note_on,12,0,1,,,,,,,,0,,,73,105
35256,note_on,96,0,6,,,,,,,,5,,,61,0
35256,note_on,96,0,3,,,,,,,,2,,,64,0
35268,note_on,48,0,1,,,,,,,,0,,,73,0
35268,note_on,48,0,2,,,,,,,,1,,,73,0
35280,note_on,12,0,2,,,,,,,,1,,,73,105
35280,note_on,12,0,1,,,,,,,,0,,,73,105
35280,note_on,24,0,6,,,,,,,,5,,,61,105
35280,note_on,24,0,3,,,,,,,,2,,,64,105
35304,note_on,24,0,2,,,,,,,,1,,,73,0
35304,note_on,24,0,1,,,,,,,,0,,,73,0
35310,note_on,6,0,1,,,,,,,,0,,,74,105
35310,note_on,6,0,2,,,,,,,,1,,,74,105
35328,note_on,48,0,6,,,,,,,,5,,,49,0
35328,note_on,288,0,4,,,,,,,,3,,,49,0
35328,note_on,288,0,5,,,,,,,,4,,,37,0
35334,note_on,24,0,1,,,,,,,,0,,,74,0
35334,note_on,24,0,2,,,,,,,,1,,,74,0
35340,note_on,6,0,2,,,,,,,,1,,,73,105
35340,note_on,12,0,6,,,,,,,,5,,,61,105
35340,note_on,12,0,4,,,,,,,,3,,,61,105
35340,note_on,12,0,5,,,,,,,,4,,,49,105
35340,note_on,6,0,1,,,,,,,,0,,,73,105
35364,note_on,24,0,1,,,,,,,,0,,,73,0
35364,note_on,24,0,2,,,,,,,,1,,,73,0
35370,note_on,6,0,2,,,,,,,,1,,,74,105
35370,note_on,6,0,1,,,,,,,,0,,,74,105
35376,note_on,96,0,3,,,,,,,,2,,,64,0
35376,note_on,36,0,6,,,,,,,,5,,,61,0
35388,note_on,12,0,6,,,,,,,,5,,,61,0
35388,note_on,48,0,5,,,,,,,,4,,,49,0
35388,note_on,48,0,4,,,,,,,,3,,,61,0
35394,note_on,24,0,1,,,,,,,,0,,,74,0
35394,note_on,24,0,2,,,,,,,,1,,,74,0
35400,note_on,24,0,3,,,,,,,,2,,,64,105
35400,note_on,12,0,4,,,,,,,,3,,,60,105
35400,note_on,12,0,5,,,,,,,,4,,,48,105
35400,note_on,6,0,2,,,,,,,,1,,,73,105
35400,note_on,12,0,6,,,,,,,,5,,,60,105
35400,note_on,6,0,1,,,,,,,,0,,,73,105
35424,note_on,24,0,2,,,,,,,,1,,,73,0
35424,note_on,24,0,6,,,,,,,,5,,,69,0
35424,note_on,24,0,1,,,,,,,,0,,,73,0
35430,note_on,6,0,2,,,,,,,,1,,,74,105
35430,note_on,6,0,1,,,,,,,,0,,,74,105
35448,note_on,24,0,6,,,,,,,,5,,,60,0
35448,note_on,48,0,5,,,,,,,,4,,,48,0
35448,note_on,48,0,4,,,,,,,,3,,,60,0
35454,note_on,24,0,1,,,,,,,,0,,,74,0
35454,note_on,24,0,2,,,,,,,,1,,,74,0
35460,note_on,6,0,2,,,,,,,,1,,,73,105
35460,note_on,6,0,1,,,,,,,,0,,,73,105
35460,note_on,12,0,4,,,,,,,,3,,,61,105
35460,note_on,12,0,6,,,,,,,,5,,,61,105
35460,note_on,12,0,5,,,,,,,,4,,,49,105
35484,note_on,24,0,1,,,,,,,,0,,,73,0
35484,note_on,24,0,2,,,,,,,,1,,,73,0
35490,note_on,6,0,2,,,,,,,,1,,,74,105
35490,note_on,6,0,1,,,,,,,,0,,,74,105
35496,note_on,96,0,3,,,,,,,,2,,,64,0
35508,note_on,48,0,5,,,,,,,,4,,,49,0
35508,note_on,48,0,4,,,,,,,,3,,,61,0
35508,note_on,48,0,6,,,,,,,,5,,,61,0
35514,note_on,24,0,2,,,,,,,,1,,,74,0
35514,note_on,24,0,1,,,,,,,,0,,,74,0
35520,note_on,12,0,5,,,,,,,,4,,,37,105
35520,note_on,12,0,4,,,,,,,,3,,,49,105
35520,note_on,24,0,3,,,,,,,,2,,,68,105
35520,note_on,6,0,2,,,,,,,,1,,,76,105
35520,note_on,0,0,6,,,,,,,,5,,,68,105
35520,note_on,6,0,1,,,,,,,,0,,,76,105
35520,note_on,0,0,6,,,,,,,,5,,,49,105
35520,note_on,12,0,6,,,,,,,,5,,,64,105
35552,note_on,32,0,1,,,,,,,,0,,,76,0
35552,note_on,32,0,2,,,,,,,,1,,,76,0
35560,note_on,8,0,2,,,,,,,,1,,,80,105
35560,note_on,8,0,1,,,,,,,,0,,,80,105
35568,note_on,0,0,6,,,,,,,,5,,,64,0
35568,note_on,48,0,6,,,,,,,,5,,,49,0
35568,note_on,48,0,5,,,,,,,,4,,,37,0
35568,note_on,48,0,4,,,,,,,,3,,,49,0
35580,note_on,0,0,6,,,,,,,,5,,,51,105
35580,note_on,12,0,6,,,,,,,,5,,,66,105
35580,note_on,12,0,5,,,,,,,,4,,,39,105
35580,note_on,12,0,4,,,,,,,,3,,,51,105
35592,note_on,32,0,2,,,,,,,,1,,,80,0
35592,note_on,32,0,1,,,,,,,,0,,,80,0
35600,note_on,8,0,2,,,,,,,,1,,,78,105
35600,note_on,8,0,1,,,,,,,,0,,,78,105
35616,note_on,36,0,6,,,,,,,,5,,,68,0
35616,note_on,96,0,3,,,,,,,,2,,,68,0
35628,note_on,12,0,6,,,,,,,,5,,,51,0
35628,note_on,0,0,6,,,,,,,,5,,,66,0
35628,note_on,48,0,4,,,,,,,,3,,,51,0
35628,note_on,48,0,5,,,,,,,,4,,,39,0
35632,note_on,32,0,1,,,,,,,,0,,,78,0
35632,note_on,32,0,2,,,,,,,,1,,,78,0
35640,note_on,12,0,5,,,,,,,,4,,,40,105
35640,note_on,24,0,3,,,,,,,,2,,,61,105
35640,note_on,12,0,6,,,,,,,,5,,,68,105
35640,note_on,8,0,2,,,,,,,,1,,,76,105
35640,note_on,8,0,1,,,,,,,,0,,,76,105
35640,note_on,12,0,4,,,,,,,,3,,,52,105
35640,note_on,0,0,6,,,,,,,,5,,,52,105
35672,note_on,32,0,2,,,,,,,,1,,,76,0
35672,note_on,32,0,1,,,,,,,,0,,,76,0
35680,note_on,8,0,2,,,,,,,,1,,,75,105
35680,note_on,8,0,1,,,,,,,,0,,,75,105
35688,note_on,48,0,5,,,,,,,,4,,,40,0
35688,note_on,0,0,6,,,,,,,,5,,,68,0
35688,note_on,48,0,6,,,,,,,,5,,,52,0
35688,note_on,48,0,4,,,,,,,,3,,,52,0
35700,note_on,12,0,5,,,,,,,,4,,,42,105
35700,note_on,12,0,4,,,,,,,,3,,,54,105
35700,note_on,12,0,6,,,,,,,,5,,,54,105
35700,note_on,0,0,6,,,,,,,,5,,,69,105
35712,note_on,32,0,2,,,,,,,,1,,,75,0
35712,note_on,32,0,1,,,,,,,,0,,,75,0
35720,note_on,8,0,1,,,,,,,,0,,,73,105
35720,note_on,8,0,2,,,,,,,,1,,,73,105
35736,note_on,96,0,3,,,,,,,,2,,,61,0
35748,note_on,48,0,5,,,,,,,,4,,,42,0
35748,note_on,48,0,6,,,,,,,,5,,,69,0
35748,note_on,0,0,6,,,,,,,,5,,,54,0
35748,note_on,48,0,4,,,,,,,,3,,,54,0
35752,note_on,32,0,1,,,,,,,,0,,,73,0
35752,note_on,32,0,2,,,,,,,,1,,,73,0
35760,note_on,12,0,5,,,,,,,,4,,,44,105
35760,note_on,8,0,2,,,,,,,,1,,,68,105
35760,note_on,0,0,6,,,,,,,,5,,,68,105
35760,note_on,0,0,6,,,,,,,,5,,,72,105
35760,note_on,8,0,1,,,,,,,,0,,,68,105
35760,note_on,12,0,4,,,,,,,,3,,,56,105
35760,note_on,24,0,3,,,,,,,,2,,,60,105
35760,note_on,12,0,6,,,,,,,,5,,,56,105
35856,note_on,0,0,6,,,,,,,,5,,,56,0
35856,note_on,96,0,5,,,,,,,,4,,,44,0
35856,note_on,96,0,6,,,,,,,,5,,,72,0
35856,note_on,96,0,1,,,,,,,,0,,,68,0
35856,note_on,96,0,4,,,,,,,,3,,,56,0
35856,note_on,96,0,2,,,,,,,,1,,,68,0
35880,note_on,24,0,1,,,,,,,,0,,,78,105
35880,note_on,24,0,4,,,,,,,,3,,,44,105
35880,note_on,24,0,5,,,,,,,,4,,,32,105
35880,note_on,0,0,6,,,,,,,,5,,,75,105
35880,note_on,24,0,6,,,,,,,,5,,,44,105
35880,note_on,24,0,2,,,,,,,,1,,,78,105
35952,note_on,192,0,3,,,,,,,,2,,,60,0
35952,note_on,72,0,6,,,,,,,,5,,,68,0
35976,note_on,24,0,6,,,,,,,,5,,,75,0
35976,note_on,0,0,6,,,,,,,,5,,,44,0
35976,note_on,96,0,4,,,,,,,,3,,,44,0
35976,note_on,96,0,2,,,,,,,,1,,,78,0
35976,note_on,96,0,5,,,,,,,,4,,,32,0
35976,note_on,96,0,1,,,,,,,,0,,,78,0
36000,note_on,24,0,5,,,,,,,,4,,,37,105
36000,note_on,0,0,6,,,,,,,,5,,,73,105
36000,note_on,0,0,6,,,,,,,,5,,,64,105
36000,note_on,24,0,6,,,,,,,,5,,,49,105
36000,note_on,24,0,4,,,,,,,,3,,,49,105
36000,note_on,48,0,3,,,,,,,,2,,,68,105
36000,note_on,24,0,1,,,,,,,,0,,,76,105
36000,note_on,24,0,2,,,,,,,,1,,,76,105
36032,note_on,32,0,2,,,,,,,,1,,,76,0
36032,note_on,32,0,1,,,,,,,,0,,,76,0
36040,note_on,8,0,1,,,,,,,,0,,,80,105
36040,note_on,8,0,2,,,,,,,,1,,,80,105
36048,note_on,48,0,4,,,,,,,,3,,,49,0
36048,note_on,48,0,6,,,,,,,,5,,,64,0
36048,note_on,0,0,6,,,,,,,,5,,,49,0
36048,note_on,48,0,5,,,,,,,,4,,,37,0
36060,note_on,12,0,5,,,,,,,,4,,,39,105
36060,note_on,0,0,6,,,,,,,,5,,,66,105
36060,note_on,12,0,6,,,,,,,,5,,,51,105
36060,note_on,12,0,4,,,,,,,,3,,,51,105
36072,note_on,32,0,2,,,,,,,,1,,,80,0
36072,note_on,32,0,1,,,,,,,,0,,,80,0
36080,note_on,8,0,1,,,,,,,,0,,,78,105
36080,note_on,8,0,2,,,,,,,,1,,,78,105
36096,note_on,96,0,3,,,,,,,,2,,,68,0
36108,note_on,48,0,5,,,,,,,,4,,,39,0
36108,note_on,0,0,6,,,,,,,,5,,,51,0
36108,note_on,48,0,6,,,,,,,,5,,,66,0
36108,note_on,48,0,4,,,,,,,,3,,,51,0
36112,note_on,32,0,2,,,,,,,,1,,,78,0
36112,note_on,32,0,1,,,,,,,,0,,,78,0
36120,note_on,24,0,3,,,,,,,,2,,,61,105
36120,note_on,12,0,6,,,,,,,,5,,,52,105
36120,note_on,8,0,2,,,,,,,,1,,,76,105
36120,note_on,12,0,5,,,,,,,,4,,,40,105
36120,note_on,8,0,1,,,,,,,,0,,,76,105
36120,note_on,0,0,6,,,,,,,,5,,,68,105
36120,note_on,12,0,4,,,,,,,,3,,,52,105
36152,note_on,32,0,1,,,,,,,,0,,,76,0
36152,note_on,32,0,2,,,,,,,,1,,,76,0
36160,note_on,8,0,1,,,,,,,,0,,,75,105
36160,note_on,8,0,2,,,,,,,,1,,,75,105
36168,note_on,0,0,6,,,,,,,,5,,,52,0
36168,note_on,48,0,4,,,,,,,,3,,,52,0
36168,note_on,48,0,5,,,,,,,,4,,,40,0
36168,note_on,48,0,6,,,,,,,,5,,,68,0
36180,note_on,12,0,4,,,,,,,,3,,,54,105
36180,note_on,12,0,5,,,,,,,,4,,,42,105
36180,note_on,12,0,6,,,,,,,,5,,,69,105
36180,note_on,0,0,6,,,,,,,,5,,,54,105
36192,note_on,32,0,1,,,,,,,,0,,,75,0
36192,note_on,32,0,2,,,,,,,,1,,,75,0
36192,note_on,12,0,6,,,,,,,,5,,,73,0
36200,note_on,8,0,2,,,,,,,,1,,,73,105
36200,note_on,8,0,1,,,,,,,,0,,,73,105
36216,note_on,96,0,3,,,,,,,,2,,,61,0
36228,note_on,48,0,5,,,,,,,,4,,,42,0
36228,note_on,36,0,6,,,,,,,,5,,,54,0
36228,note_on,0,0,6,,,,,,,,5,,,69,0
36228,note_on,48,0,4,,,,,,,,3,,,54,0
36232,note_on,32,0,1,,,,,,,,0,,,73,0
36232,note_on,32,0,2,,,,,,,,1,,,73,0
36240,note_on,24,0,3,,,,,,,,2,,,60,105
36240,note_on,0,0,6,,,,,,,,5,,,72,105
36240,note_on,0,0,6,,,,,,,,5,,,68,105
36240,note_on,12,0,6,,,,,,,,5,,,56,105
36240,note_on,12,0,5,,,,,,,,4,,,44,105
36240,note_on,12,0,4,,,,,,,,3,,,56,105
36240,note_on,8,0,1,,,,,,,,0,,,68,105
36240,note_on,8,0,2,,,,,,,,1,,,68,105
36336,note_on,96,0,4,,,,,,,,3,,,56,0
36336,note_on,96,0,5,,,,,,,,4,,,44,0
36336,note_on,96,0,6,,,,,,,,5,,,72,0
36336,note_on,0,0,6,,,,,,,,5,,,56,0
36336,note_on,96,0,2,,,,,,,,1,,,68,0
36336,note_on,96,0,1,,,,,,,,0,,,68,0
36360,note_on,24,0,4,,,,,,,,3,,,44,105
36360,note_on,24,0,1,,,,,,,,0,,,78,105
36360,note_on,24,0,6,,,,,,,,5,,,44,105
36360,note_on,24,0,5,,,,,,,,4,,,32,105
36360,note_on,24,0,2,,,,,,,,1,,,78,105
36360,note_on,0,0,6,,,,,,,,5,,,75,105
36432,note_on,192,0,3,,,,,,,,2,,,60,0
36432,note_on,72,0,6,,,,,,,,5,,,68,0
36456,note_on,96,0,4,,,,,,,,3,,,44,0
36456,note_on,96,0,5,,,,,,,,4,,,32,0
36456,note_on,0,0,6,,,,,,,,5,,,44,0
36456,note_on,96,0,2,,,,,,,,1,,,78,0
36456,note_on,96,0,1,,,,,,,,0,,,78,0
36456,note_on,24,0,6,,,,,,,,5,,,75,0
36480,note_on,24,0,4,,,,,,,,3,,,49,105
36480,note_on,24,0,5,,,,,,,,4,,,37,105
36480,note_on,24,0,6,,,,,,,,5,,,49,105
36480,note_on,24,0,1,,,,,,,,0,,,76,105
36480,note_on,48,0,3,,,,,,,,2,,,68,105
36480,note_on,0,0,6,,,,,,,,5,,,64,105
36480,note_on,24,0,2,,,,,,,,1,,,76,105
36480,note_on,0,0,6,,,,,,,,5,,,73,105
36512,note_on,32,0,2,,,,,,,,1,,,76,0
36512,note_on,32,0,1,,,,,,,,0,,,76,0
36520,note_on,8,0,1,,,,,,,,0,,,80,105
36520,note_on,8,0,2,,,,,,,,1,,,80,105
36528,note_on,48,0,5,,,,,,,,4,,,37,0
36528,note_on,48,0,4,,,,,,,,3,,,49,0
36528,note_on,0,0,6,,,,,,,,5,,,49,0
36528,note_on,48,0,6,,,,,,,,5,,,64,0
36540,note_on,12,0,5,,,,,,,,4,,,39,105
36540,note_on,12,0,4,,,,,,,,3,,,51,105
36540,note_on,12,0,6,,,,,,,,5,,,51,105
36540,note_on,0,0,6,,,,,,,,5,,,66,105
36552,note_on,32,0,1,,,,,,,,0,,,80,0
36552,note_on,32,0,2,,,,,,,,1,,,80,0
36560,note_on,8,0,1,,,,,,,,0,,,78,105
36560,note_on,8,0,2,,,,,,,,1,,,78,105
36576,note_on,96,0,3,,,,,,,,2,,,68,0
36588,note_on,48,0,6,,,,,,,,5,,,66,0
36588,note_on,0,0,6,,,,,,,,5,,,51,0
36588,note_on,48,0,4,,,,,,,,3,,,51,0
36588,note_on,48,0,5,,,,,,,,4,,,39,0
36592,note_on,32,0,1,,,,,,,,0,,,78,0
36592,note_on,32,0,2,,,,,,,,1,,,78,0
36600,note_on,8,0,1,,,,,,,,0,,,76,105
36600,note_on,8,0,2,,,,,,,,1,,,76,105
36600,note_on,12,0,4,,,,,,,,3,,,52,105
36600,note_on,24,0,3,,,,,,,,2,,,61,105
36600,note_on,0,0,6,,,,,,,,5,,,52,105
36600,note_on,12,0,6,,,,,,,,5,,,68,105
36600,note_on,12,0,5,,,,,,,,4,,,40,105
36632,note_on,32,0,1,,,,,,,,0,,,76,0
36632,note_on,32,0,2,,,,,,,,1,,,76,0
36640,note_on,8,0,1,,,,,,,,0,,,75,105
36640,note_on,8,0,2,,,,,,,,1,,,75,105
36648,note_on,0,0,6,,,,,,,,5,,,68,0
36648,note_on,48,0,6,,,,,,,,5,,,52,0
36648,note_on,48,0,4,,,,,,,,3,,,52,0
36648,note_on,48,0,5,,,,,,,,4,,,40,0
36660,note_on,12,0,4,,,,,,,,3,,,54,105
36660,note_on,0,0,6,,,,,,,,5,,,54,105
36660,note_on,12,0,6,,,,,,,,5,,,69,105
36660,note_on,12,0,5,,,,,,,,4,,,42,105
36672,note_on,12,0,6,,,,,,,,5,,,73,0
36672,note_on,32,0,1,,,,,,,,0,,,75,0
36672,note_on,32,0,2,,,,,,,,1,,,75,0
36680,note_on,8,0,2,,,,,,,,1,,,73,105
36680,note_on,8,0,1,,,,,,,,0,,,73,105
36696,note_on,96,0,3,,,,,,,,2,,,61,0
36708,note_on,36,0,6,,,,,,,,5,,,54,0
36708,note_on,0,0,6,,,,,,,,5,,,69,0
36708,note_on,48,0,4,,,,,,,,3,,,54,0
36708,note_on,48,0,5,,,,,,,,4,,,42,0
36712,note_on,32,0,1,,,,,,,,0,,,73,0
36712,note_on,32,0,2,,,,,,,,1,,,73,0
36720,note_on,0,0,6,,,,,,,,5,,,56,105
36720,note_on,0,0,6,,,,,,,,5,,,72,105
36720,note_on,12,0,5,,,,,,,,4,,,44,105
36720,note_on,8,0,1,,,,,,,,0,,,68,105
36720,note_on,8,0,2,,,,,,,,1,,,68,105
36720,note_on,12,0,6,,,,,,,,5,,,68,105
36720,note_on,12,0,4,,,,,,,,3,,,56,105
36720,note_on,24,0,3,,,,,,,,2,,,60,105
36816,note_on,96,0,3,,,,,,,,2,,,60,0
36816,note_on,96,0,1,,,,,,,,0,,,68,0
36816,note_on,96,0,5,,,,,,,,4,,,44,0
36816,note_on,96,0,2,,,,,,,,1,,,68,0
36816,note_on,0,0,6,,,,,,,,5,,,56,0
36816,note_on,96,0,4,,,,,,,,3,,,56,0
36816,note_on,96,0,6,,,,,,,,5,,,72,0
36840,note_on,24,0,4,,,,,,,,3,,,44,105
36840,note_on,24,0,3,,,,,,,,2,,,68,105
36840,note_on,24,0,5,,,,,,,,4,,,32,105
36840,note_on,0,0,6,,,,,,,,5,,,75,105
36840,note_on,24,0,6,,,,,,,,5,,,44,105
36840,note_on,24,0,2,,,,,,,,1,,,72,105
36840,note_on,24,0,1,,,,,,,,0,,,72,105
36912,note_on,72,0,6,,,,,,,,5,,,68,0
36936,note_on,96,0,4,,,,,,,,3,,,44,0
36936,note_on,96,0,2,,,,,,,,1,,,72,0
36936,note_on,0,0,6,,,,,,,,5,,,44,0
36936,note_on,96,0,5,,,,,,,,4,,,32,0
36936,note_on,96,0,3,,,,,,,,2,,,68,0
36936,note_on,96,0,1,,,,,,,,0,,,72,0
36936,note_on,24,0,6,,,,,,,,5,,,75,0
36960,note_on,0,0,6,,,,,,,,5,,,73,105
36960,note_on,0,0,6,,,,,,,,5,,,64,105
36960,note_on,24,0,1,,,,,,,,0,,,73,105
36960,note_on,24,0,5,,,,,,,,4,,,37,105
36960,note_on,24,0,3,,,,,,,,2,,,64,105
36960,note_on,24,0,2,,,,,,,,1,,,73,105
36960,note_on,24,0,6,,,,,,,,5,,,49,105
36960,note_on,24,0,4,,,,,,,,3,,,49,105
37056,note_on,96,0,1,,,,,,,,0,,,73,0
37056,note_on,96,0,6,,,,,,,,5,,,64,0
37080,note_on,24,0,1,,,,,,,,0,,,85,105
37080,note_on,24,0,6,,,,,,,,5,,,61,105
37152,note_on,192,0,3,,,,,,,,2,,,64,0
37152,note_on,192,0,2,,,,,,,,1,,,73,0
37152,note_on,192,0,4,,,,,,,,3,,,49,0
37152,note_on,192,0,5,,,,,,,,4,,,37,0
37152,note_on,72,0,6,,,,,,,,5,,,49,0
37176,note_on,96,0,1,,,,,,,,0,,,85,0
37176,note_on,24,0,6,,,,,,,,5,,,61,0
37200,note_on,24,0,1,,,,,,,,0,,,85,105
37200,note_on,24,0,6,,,,,,,,5,,,61,105
37260,note_on,108,0,5,,,,,,,,4,,,49,105
37260,note_on,60,0,6,,,,,,,,5,,,61,105
37260,note_on,108,0,4,,,,,,,,3,,,61,105
37296,note_on,36,0,6,,,,,,,,5,,,61,0
37308,note_on,12,0,6,,,,,,,,5,,,61,0
37308,note_on,48,0,5,,,,,,,,4,,,49,0
37308,note_on,48,0,4,,,,,,,,3,,,61,0
37320,note_on,12,0,5,,,,,,,,4,,,48,105
37320,note_on,168,0,3,,,,,,,,2,,,64,105
37320,note_on,12,0,6,,,,,,,,5,,,60,105
37320,note_on,12,0,4,,,,,,,,3,,,60,105
37368,note_on,48,0,5,,,,,,,,4,,,48,0
37368,note_on,48,0,6,,,,,,,,5,,,60,0
37368,note_on,48,0,4,,,,,,,,3,,,60,0
37380,note_on,12,0,6,,,,,,,,5,,,61,105
37380,note_on,12,0,5,,,,,,,,4,,,49,105
37380,note_on,12,0,4,,,,,,,,3,,,61,105
37416,note_on,96,0,3,,,,,,,,2,,,64,0
37428,note_on,48,0,6,,,,,,,,5,,,61,0
37428,note_on,48,0,5,,,,,,,,4,,,49,0
37428,note_on,48,0,4,,,,,,,,3,,,61,0
37440,note_on,12,0,4,,,,,,,,3,,,49,105
37440,note_on,24,0,3,,,,,,,,2,,,64,105
37440,note_on,12,0,5,,,,,,,,4,,,37,105
37440,note_on,12,0,6,,,,,,,,5,,,49,105
37536,note_on,336,0,1,,,,,,,,0,,,85,0
37536,note_on,96,0,6,,,,,,,,5,,,73,0
37560,note_on,24,0,1,,,,,,,,0,,,83,105
37560,note_on,24,0,6,,,,,,,,5,,,68,105
37608,note_on,48,0,1,,,,,,,,0,,,83,0
37620,note_on,12,0,1,,,,,,,,0,,,81,105
37632,note_on,72,0,6,,,,,,,,5,,,49,0
37632,note_on,192,0,3,,,,,,,,2,,,64,0
37632,note_on,192,0,4,,,,,,,,3,,,49,0
37632,note_on,192,0,5,,,,,,,,4,,,37,0
37656,note_on,24,0,6,,,,,,,,5,,,68,0
37668,note_on,48,0,1,,,,,,,,0,,,81,0
37680,note_on,24,0,6,,,,,,,,5,,,75,105
37680,note_on,12,0,1,,,,,,,,0,,,80,105
37776,note_on,96,0,1,,,,,,,,0,,,80,0
37800,note_on,120,0,6,,,,,,,,5,,,56,105
37800,note_on,0,0,6,,,,,,,,5,,,78,105
37800,note_on,168,0,4,,,,,,,,3,,,56,105
37800,note_on,168,0,3,,,,,,,,2,,,72,105
37800,note_on,168,0,5,,,,,,,,4,,,44,105
37800,note_on,24,0,1,,,,,,,,0,,,78,105
37872,note_on,72,0,6,,,,,,,,5,,,75,0
37896,note_on,96,0,4,,,,,,,,3,,,56,0
37896,note_on,96,0,3,,,,,,,,2,,,72,0
37896,note_on,96,0,5,,,,,,,,4,,,44,0
37896,note_on,96,0,1,,,,,,,,0,,,78,0
37896,note_on,24,0,6,,,,,,,,5,,,78,0
37896,note_on,0,0,6,,,,,,,,5,,,56,0
37920,note_on,0,0,6,,,,,,,,5,,,76,105
37920,note_on,0,0,6,,,,,,,,5,,,73,105
37920,note_on,24,0,5,,,,,,,,4,,,37,105
37920,note_on,24,0,4,,,,,,,,3,,,49,105
37920,note_on,24,0,3,,,,,,,,2,,,68,105
37920,note_on,24,0,6,,,,,,,,5,,,49,105
37920,note_on,768,0,2,,,,,,,,1,,,73,105
37920,note_on,24,0,1,,,,,,,,0,,,76,105
38016,note_on,96,0,1,,,,,,,,0,,,76,0
38016,note_on,96,0,6,,,,,,,,5,,,73,0
38016,note_on,96,0,2,,,,,,,,1,,,73,0
38040,note_on,24,0,2,,,,,,,,1,,,85,105
38040,note_on,24,0,6,,,,,,,,5,,,64,105
38040,note_on,24,0,1,,,,,,,,0,,,81,105
38112,note_on,72,0,6,,,,,,,,5,,,49,0
38112,note_on,192,0,3,,,,,,,,2,,,68,0
38112,note_on,192,0,5,,,,,,,,4,,,37,0
38112,note_on,192,0,4,,,,,,,,3,,,49,0
38136,note_on,96,0,1,,,,,,,,0,,,81,0
38136,note_on,96,0,2,,,,,,,,1,,,85,0
38136,note_on,24,0,6,,,,,,,,5,,,64,0
38160,note_on,24,0,2,,,,,,,,1,,,85,105
38160,note_on,24,0,6,,,,,,,,5,,,69,105
38160,note_on,24,0,1,,,,,,,,0,,,81,105
38220,note_on,108,0,4,,,,,,,,3,,,61,105
38220,note_on,108,0,5,,,,,,,,4,,,49,105
38220,note_on,60,0,6,,,,,,,,5,,,61,105
38268,note_on,48,0,4,,,,,,,,3,,,61,0
38268,note_on,48,0,6,,,,,,,,5,,,61,0
38268,note_on,48,0,5,,,,,,,,4,,,49,0
38280,note_on,12,0,4,,,,,,,,3,,,60,105
38280,note_on,168,0,3,,,,,,,,2,,,61,105
38280,note_on,12,0,5,,,,,,,,4,,,48,105
38280,note_on,12,0,6,,,,,,,,5,,,60,105
38304,note_on,24,0,6,,,,,,,,5,,,76,0
38328,note_on,48,0,5,,,,,,,,4,,,48,0
38328,note_on,24,0,6,,,,,,,,5,,,60,0
38328,note_on,48,0,4,,,,,,,,3,,,60,0
38340,note_on,12,0,6,,,,,,,,5,,,61,105
38340,note_on,12,0,5,,,,,,,,4,,,49,105
38340,note_on,12,0,4,,,,,,,,3,,,61,105
38376,note_on,96,0,3,,,,,,,,2,,,61,0
38388,note_on,48,0,4,,,,,,,,3,,,61,0
38388,note_on,48,0,6,,,,,,,,5,,,61,0
38388,note_on,48,0,5,,,,,,,,4,,,49,0
38400,note_on,12,0,6,,,,,,,,5,,,54,105
38400,note_on,24,0,3,,,,,,,,2,,,61,105
38400,note_on,12,0,4,,,,,,,,3,,,54,105
38400,note_on,12,0,5,,,,,,,,4,,,42,105
38496,note_on,336,0,1,,,,,,,,0,,,81,0
38496,note_on,336,0,2,,,,,,,,1,,,85,0
38520,note_on,120,0,6,,,,,,,,5,,,73,105
38520,note_on,24,0,2,,,,,,,,1,,,83,105
38520,note_on,24,0,1,,,,,,,,0,,,80,105
38568,note_on,48,0,1,,,,,,,,0,,,80,0
38568,note_on,48,0,2,,,,,,,,1,,,83,0
38580,note_on,12,0,2,,,,,,,,1,,,81,105
38580,note_on,12,0,1,,,,,,,,0,,,78,105
38592,note_on,192,0,5,,,,,,,,4,,,42,0
38592,note_on,0,0,6,,,,,,,,5,,,69,0
38592,note_on,192,0,3,,,,,,,,2,,,61,0
38592,note_on,192,0,4,,,,,,,,3,,,54,0
38592,note_on,72,0,6,,,,,,,,5,,,54,0
38628,note_on,48,0,2,,,,,,,,1,,,81,0
38628,note_on,48,0,1,,,,,,,,0,,,78,0
38640,note_on,12,0,2,,,,,,,,1,,,80,105
38640,note_on,12,0,1,,,,,,,,0,,,76,105
38640,note_on,48,0,6,,,,,,,,5,,,66,105
38712,note_on,72,0,6,,,,,,,,5,,,73,0
38736,note_on,96,0,1,,,,,,,,0,,,76,0
38736,note_on,96,0,2,,,,,,,,1,,,80,0
38760,note_on,168,0,4,,,,,,,,3,,,48,105
38760,note_on,168,0,3,,,,,,,,2,,,63,105
38760,note_on,24,0,2,,,,,,,,1,,,78,105
38760,note_on,24,0,1,,,,,,,,0,,,75,105
38760,note_on,168,0,5,,,,,,,,4,,,36,105
38760,note_on,0,0,6,,,,,,,,5,,,75,105
38760,note_on,48,0,6,,,,,,,,5,,,48,105
38832,note_on,72,0,6,,,,,,,,5,,,66,0
38856,note_on,96,0,1,,,,,,,,0,,,75,0
38856,note_on,0,0,6,,,,,,,,5,,,48,0
38856,note_on,96,0,2,,,,,,,,1,,,78,0
38856,note_on,24,0,6,,,,,,,,5,,,75,0
38856,note_on,96,0,3,,,,,,,,2,,,63,0
38856,note_on,96,0,4,,,,,,,,3,,,48,0
38856,note_on,96,0,5,,,,,,,,4,,,36,0
38880,note_on,0,0,6,,,,,,,,5,,,73,105
38880,note_on,24,0,2,,,,,,,,1,,,76,105
38880,note_on,24,0,1,,,,,,,,0,,,73,105
38880,note_on,24,0,4,,,,,,,,3,,,49,105
38880,note_on,24,0,3,,,,,,,,2,,,56,105
38880,note_on,24,0,6,,,,,,,,5,,,64,105
38880,note_on,0,0,6,,,,,,,,5,,,49,105
38880,note_on,24,0,5,,,,,,,,4,,,37,105
38976,note_on,96,0,2,,,,,,,,1,,,76,0
38976,note_on,96,0,1,,,,,,,,0,,,73,0
38976,note_on,96,0,6,,,,,,,,5,,,64,0
39000,note_on,24,0,1,,,,,,,,0,,,85,105
39000,note_on,24,0,2,,,,,,,,1,,,81,105
39000,note_on,24,0,6,,,,,,,,5,,,69,105
39072,note_on,192,0,3,,,,,,,,2,,,56,0
39072,note_on,72,0,6,,,,,,,,5,,,49,0
39072,note_on,192,0,4,,,,,,,,3,,,49,0
39072,note_on,192,0,5,,,,,,,,4,,,37,0
39096,note_on,96,0,1,,,,,,,,0,,,85,0
39096,note_on,96,0,2,,,,,,,,1,,,81,0
39096,note_on,24,0,6,,,,,,,,5,,,69,0
39120,note_on,24,0,1,,,,,,,,0,,,78,105
39120,note_on,24,0,2,,,,,,,,1,,,81,105
39120,note_on,24,0,6,,,,,,,,5,,,69,105
39180,note_on,108,0,4,,,,,,,,3,,,54,105
39180,note_on,60,0,6,,,,,,,,5,,,54,105
39180,note_on,108,0,5,,,,,,,,4,,,42,105
39228,note_on,48,0,6,,,,,,,,5,,,54,0
39228,note_on,48,0,4,,,,,,,,3,,,54,0
39228,note_on,48,0,5,,,,,,,,4,,,42,0
39240,note_on,12,0,6,,,,,,,,5,,,52,105
39240,note_on,12,0,5,,,,,,,,4,,,40,105
39240,note_on,168,0,3,,,,,,,,2,,,69,105
39240,note_on,12,0,4,,,,,,,,3,,,52,105
39264,note_on,24,0,6,,,,,,,,5,,,73,0
39288,note_on,48,0,5,,,,,,,,4,,,40,0
39288,note_on,48,0,4,,,,,,,,3,,,52,0
39288,note_on,24,0,6,,,,,,,,5,,,52,0
39300,note_on,12,0,4,,,,,,,,3,,,54,105
39300,note_on,12,0,6,,,,,,,,5,,,54,105
39300,note_on,12,0,5,,,,,,,,4,,,42,105
39336,note_on,96,0,3,,,,,,,,2,,,69,0
39348,note_on,48,0,4,,,,,,,,3,,,54,0
39348,note_on,48,0,5,,,,,,,,4,,,42,0
39348,note_on,48,0,6,,,,,,,,5,,,54,0
39360,note_on,24,0,3,,,,,,,,2,,,63,105
39360,note_on,12,0,6,,,,,,,,5,,,48,105
39360,note_on,0,0,6,,,,,,,,5,,,75,105
39360,note_on,12,0,4,,,,,,,,3,,,48,105
39360,note_on,12,0,5,,,,,,,,4,,,36,105
39456,note_on,336,0,2,,,,,,,,1,,,81,0
39456,note_on,336,0,1,,,,,,,,0,,,78,0
39456,note_on,96,0,6,,,,,,,,5,,,69,0
39480,note_on,24,0,2,,,,,,,,1,,,80,105
39480,note_on,24,0,6,,,,,,,,5,,,66,105
39480,note_on,24,0,1,,,,,,,,0,,,75,105
39528,note_on,48,0,2,,,,,,,,1,,,80,0
39540,note_on,12,0,2,,,,,,,,1,,,78,105
39552,note_on,192,0,4,,,,,,,,3,,,48,0
39552,note_on,192,0,5,,,,,,,,4,,,36,0
39552,note_on,72,0,6,,,,,,,,5,,,75,0
39552,note_on,192,0,3,,,,,,,,2,,,63,0
39552,note_on,0,0,6,,,,,,,,5,,,48,0
39576,note_on,24,0,6,,,,,,,,5,,,66,0
39576,note_on,96,0,1,,,,,,,,0,,,75,0
39588,note_on,48,0,2,,,,,,,,1,,,78,0
39600,note_on,12,0,2,,,,,,,,1,,,76,105
39600,note_on,24,0,1,,,,,,,,0,,,80,105
39600,note_on,24,0,6,,,,,,,,5,,,64,105
39600,note_on,0,0,6,,,,,,,,5,,,73,105
39696,note_on,0,0,6,,,,,,,,5,,,64,0
39696,note_on,96,0,2,,,,,,,,1,,,76,0
39696,note_on,96,0,1,,,,,,,,0,,,80,0
39696,note_on,96,0,6,,,,,,,,5,,,73,0
39720,note_on,168,0,4,,,,,,,,3,,,56,105
39720,note_on,168,0,3,,,,,,,,2,,,72,105
39720,note_on,24,0,2,,,,,,,,1,,,75,105
39720,note_on,168,0,5,,,,,,,,4,,,44,105
39720,note_on,24,0,1,,,,,,,,0,,,78,105
39720,note_on,0,0,6,,,,,,,,5,,,56,105
39720,note_on,0,0,6,,,,,,,,5,,,63,105
39720,note_on,24,0,6,,,,,,,,5,,,72,105
39816,note_on,96,0,5,,,,,,,,4,,,44,0
39816,note_on,96,0,4,,,,,,,,3,,,56,0
39816,note_on,96,0,2,,,,,,,,1,,,75,0
39816,note_on,96,0,3,,,,,,,,2,,,72,0
39816,note_on,0,0,6,,,,,,,,5,,,63,0
39816,note_on,0,0,6,,,,,,,,5,,,72,0
39816,note_on,96,0,1,,,,,,,,0,,,78,0
39816,note_on,96,0,6,,,,,,,,5,,,56,0
39840,note_on,24,0,1,,,,,,,,0,,,76,105
39840,note_on,24,0,5,,,,,,,,4,,,37,105
39840,note_on,24,0,3,,,,,,,,2,,,68,105
39840,note_on,24,0,4,,,,,,,,3,,,49,105
39840,note_on,24,0,6,,,,,,,,5,,,73,105
39840,note_on,0,0,6,,,,,,,,5,,,64,105
39840,note_on,0,0,6,,,,,,,,5,,,49,105
39840,note_on,24,0,2,,,,,,,,1,,,73,105
39888,note_on,48,0,1,,,,,,,,0,,,76,0
39888,note_on,48,0,2,,,,,,,,1,,,73,0
39900,note_on,12,0,2,,,,,,,,1,,,73,105
39900,note_on,12,0,1,,,,,,,,0,,,73,105
39948,note_on,48,0,1,,,,,,,,0,,,73,0
39948,note_on,48,0,2,,,,,,,,1,,,73,0
39960,note_on,12,0,2,,,,,,,,1,,,72,105
39960,note_on,12,0,1,,,,,,,,0,,,72,105
40008,note_on,48,0,1,,,,,,,,0,,,72,0
40008,note_on,48,0,2,,,,,,,,1,,,72,0
40020,note_on,12,0,2,,,,,,,,1,,,73,105
40020,note_on,12,0,1,,,,,,,,0,,,73,105
40032,note_on,192,0,4,,,,,,,,3,,,49,0
40032,note_on,192,0,5,,,,,,,,4,,,37,0
40032,note_on,192,0,3,,,,,,,,2,,,68,0
40032,note_on,0,0,6,,,,,,,,5,,,73,0
40032,note_on,0,0,6,,,,,,,,5,,,64,0
40032,note_on,192,0,6,,,,,,,,5,,,49,0
40068,note_on,48,0,1,,,,,,,,0,,,73,0
40068,note_on,48,0,2,,,,,,,,1,,,73,0
40080,note_on,12,0,1,,,,,,,,0,,,73,105
40080,note_on,12,0,2,,,,,,,,1,,,73,105
40104,note_on,24,0,1,,,,,,,,0,,,73,0
40104,note_on,24,0,2,,,,,,,,1,,,73,0
40110,note_on,6,0,1,,,,,,,,0,,,75,105
40110,note_on,6,0,2,,,,,,,,1,,,75,105
40134,note_on,24,0,1,,,,,,,,0,,,75,0
40134,note_on,24,0,2,,,,,,,,1,,,75,0
40140,note_on,6,0,1,,,,,,,,0,,,73,105
40140,note_on,6,0,2,,,,,,,,1,,,73,105
40164,note_on,24,0,2,,,,,,,,1,,,73,0
40164,note_on,24,0,1,,,,,,,,0,,,73,0
40170,note_on,6,0,2,,,,,,,,1,,,75,105
40170,note_on,6,0,1,,,,,,,,0,,,75,105
40194,note_on,24,0,1,,,,,,,,0,,,75,0
40194,note_on,24,0,2,,,,,,,,1,,,75,0
40200,note_on,6,0,1,,,,,,,,0,,,73,105
40200,note_on,6,0,2,,,,,,,,1,,,73,105
40224,note_on,24,0,1,,,,,,,,0,,,73,0
40224,note_on,24,0,2,,,,,,,,1,,,73,0
40230,note_on,6,0,1,,,,,,,,0,,,75,105
40230,note_on,6,0,2,,,,,,,,1,,,75,105
40254,note_on,24,0,2,,,,,,,,1,,,75,0
40254,note_on,24,0,1,,,,,,,,0,,,75,0
40260,note_on,6,0,1,,,,,,,,0,,,73,105
40260,note_on,6,0,2,,,,,,,,1,,,73,105
40284,note_on,24,0,2,,,,,,,,1,,,73,0
40284,note_on,24,0,1,,,,,,,,0,,,73,0
40290,note_on,6,0,2,,,,,,,,1,,,75,105
40290,note_on,6,0,1,,,,,,,,0,,,75,105
40314,note_on,24,0,1,,,,,,,,0,,,75,0
40314,note_on,24,0,2,,,,,,,,1,,,75,0
40320,note_on,288,0,5,,,,,,,,4,,,41,72
40320,note_on,0,0,6,,,,,,,,5,,,74,72
40320,note_on,0,0,6,,,,,,,,5,,,68,72
40320,note_on,288,0,3,,,,,,,,2,,,59,72
40320,note_on,6,0,2,,,,,,,,1,,,68,72
40320,note_on,288,0,4,,,,,,,,3,,,53,105
40320,note_on,288,0,6,,,,,,,,5,,,53,72
40320,note_on,6,0,1,,,,,,,,0,,,74,72
40368,note_on,48,0,5,,,,,,,,4,,,41,0
40368,note_on,48,0,2,,,,,,,,1,,,68,0
40368,note_on,48,0,3,,,,,,,,2,,,59,0
40368,note_on,48,0,4,,,,,,,,3,,,53,0
40368,note_on,48,0,6,,,,,,,,5,,,53,0
40368,note_on,48,0,1,,,,,,,,0,,,74,0
40380,note_on,12,0,5,,,,,,,,4,,,41,72
40380,note_on,12,0,1,,,,,,,,0,,,74,72
40380,note_on,12,0,4,,,,,,,,3,,,53,105
40380,note_on,12,0,2,,,,,,,,1,,,68,72
40380,note_on,12,0,6,,,,,,,,5,,,53,72
40380,note_on,12,0,3,,,,,,,,2,,,59,72
40428,note_on,48,0,1,,,,,,,,0,,,74,0
40428,note_on,48,0,4,,,,,,,,3,,,53,0
40428,note_on,48,0,2,,,,,,,,1,,,68,0
40428,note_on,48,0,6,,,,,,,,5,,,53,0
40428,note_on,48,0,3,,,,,,,,2,,,59,0
40428,note_on,48,0,5,,,,,,,,4,,,41,0
40440,note_on,12,0,4,,,,,,,,3,,,53,105
40440,note_on,12,0,3,,,,,,,,2,,,59,72
40440,note_on,12,0,6,,,,,,,,5,,,53,72
40440,note_on,12,0,5,,,,,,,,4,,,41,72
40440,note_on,12,0,1,,,,,,,,0,,,74,72
40440,note_on,12,0,2,,,,,,,,1,,,68,72
40488,note_on,48,0,5,,,,,,,,4,,,41,0
40488,note_on,48,0,3,,,,,,,,2,,,59,0
40488,note_on,48,0,6,,,,,,,,5,,,53,0
40488,note_on,48,0,1,,,,,,,,0,,,74,0
40488,note_on,48,0,4,,,,,,,,3,,,53,0
40488,note_on,48,0,2,,,,,,,,1,,,68,0
40500,note_on,12,0,2,,,,,,,,1,,,68,72
40500,note_on,12,0,1,,,,,,,,0,,,74,72
40500,note_on,12,0,6,,,,,,,,5,,,53,72
40500,note_on,12,0,5,,,,,,,,4,,,41,72
40500,note_on,12,0,3,,,,,,,,2,,,59,72
40500,note_on,12,0,4,,,,,,,,3,,,53,105
40548,note_on,48,0,1,,,,,,,,0,,,74,0
40548,note_on,48,0,5,,,,,,,,4,,,41,0
40548,note_on,48,0,3,,,,,,,,2,,,59,0
40548,note_on,48,0,4,,,,,,,,3,,,53,0
40548,note_on,48,0,6,,,,,,,,5,,,53,0
40548,note_on,48,0,2,,,,,,,,1,,,68,0
40560,note_on,12,0,2,,,,,,,,1,,,68,72
40560,note_on,12,0,6,,,,,,,,5,,,53,72
40560,note_on,12,0,3,,,,,,,,2,,,59,72
40560,note_on,12,0,5,,,,,,,,4,,,41,72
40560,note_on,12,0,1,,,,,,,,0,,,74,72
40560,note_on,12,0,4,,,,,,,,3,,,53,105
40608,note_on,48,0,3,,,,,,,,2,,,59,0
40608,note_on,48,0,5,,,,,,,,4,,,41,0
40608,note_on,48,0,4,,,,,,,,3,,,53,0
40608,note_on,48,0,1,,,,,,,,0,,,74,0
40608,note_on,48,0,6,,,,,,,,5,,,53,0
40608,note_on,48,0,2,,,,,,,,1,,,68,0
40620,note_on,12,0,2,,,,,,,,1,,,68,72
40620,note_on,12,0,4,,,,,,,,3,,,53,105
40620,note_on,12,0,1,,,,,,,,0,,,74,72
40620,note_on,12,0,6,,,,,,,,5,,,53,72
40620,note_on,12,0,3,,,,,,,,2,,,59,72
40620,note_on,12,0,5,,,,,,,,4,,,41,72
40668,note_on,48,0,4,,,,,,,,3,,,53,0
40668,note_on,48,0,3,,,,,,,,2,,,59,0
40668,note_on,48,0,5,,,,,,,,4,,,41,0
40668,note_on,48,0,2,,,,,,,,1,,,68,0
40668,note_on,48,0,6,,,,,,,,5,,,53,0
40668,note_on,48,0,1,,,,,,,,0,,,74,0
40680,note_on,12,0,2,,,,,,,,1,,,68,72
40680,note_on,12,0,6,,,,,,,,5,,,53,72
40680,note_on,12,0,1,,,,,,,,0,,,74,72
40680,note_on,12,0,4,,,,,,,,3,,,53,105
40680,note_on,12,0,3,,,,,,,,2,,,59,72
40680,note_on,12,0,5,,,,,,,,4,,,41,72
40704,note_on,24,0,6,,,,,,,,5,,,74,0
40704,note_on,0,0,6,,,,,,,,5,,,68,0
40728,note_on,48,0,1,,,,,,,,0,,,74,0
40728,note_on,24,0,6,,,,,,,,5,,,53,0
40728,note_on,48,0,4,,,,,,,,3,,,53,0
40728,note_on,48,0,3,,,,,,,,2,,,59,0
40728,note_on,48,0,5,,,,,,,,4,,,41,0
40728,note_on,48,0,2,,,,,,,,1,,,68,0
40740,note_on,12,0,1,,,,,,,,0,,,74,72
40740,note_on,12,0,6,,,,,,,,5,,,53,72
40740,note_on,12,0,2,,,,,,,,1,,,68,72
40740,note_on,12,0,5,,,,,,,,4,,,41,72
40740,note_on,12,0,3,,,,,,,,2,,,59,72
40740,note_on,12,0,4,,,,,,,,3,,,53,105
40788,note_on,48,0,1,,,,,,,,0,,,74,0
40788,note_on,48,0,3,,,,,,,,2,,,59,0
40788,note_on,48,0,6,,,,,,,,5,,,53,0
40788,note_on,48,0,4,,,,,,,,3,,,53,0
40788,note_on,48,0,2,,,,,,,,1,,,68,0
40788,note_on,48,0,5,,,,,,,,4,,,41,0
40800,note_on,12,0,4,,,,,,,,3,,,53,105
40800,note_on,12,0,1,,,,,,,,0,,,73,72
40800,note_on,0,0,6,,,,,,,,5,,,68,72
40800,note_on,12,0,3,,,,,,,,2,,,61,72
40800,note_on,12,0,6,,,,,,,,5,,,53,72
40800,note_on,0,0,6,,,,,,,,5,,,73,72
40800,note_on,12,0,5,,,,,,,,4,,,41,72
40800,note_on,12,0,2,,,,,,,,1,,,68,72
40848,note_on,48,0,3,,,,,,,,2,,,61,0
40848,note_on,48,0,1,,,,,,,,0,,,73,0
40848,note_on,48,0,2,,,,,,,,1,,,68,0
40848,note_on,48,0,4,,,,,,,,3,,,53,0
40848,note_on,48,0,6,,,,,,,,5,,,53,0
40848,note_on,48,0,5,,,,,,,,4,,,41,0
40860,note_on,12,0,5,,,,,,,,4,,,41,72
40860,note_on,12,0,1,,,,,,,,0,,,73,72
40860,note_on,12,0,6,,,,,,,,5,,,53,72
40860,note_on,12,0,3,,,,,,,,2,,,61,72
40860,note_on,12,0,2,,,,,,,,1,,,68,72
40860,note_on,12,0,4,,,,,,,,3,,,53,105
40908,note_on,48,0,5,,,,,,,,4,,,41,0
40908,note_on,48,0,1,,,,,,,,0,,,73,0
40908,note_on,48,0,4,,,,,,,,3,,,53,0
40908,note_on,48,0,3,,,,,,,,2,,,61,0
40908,note_on,48,0,2,,,,,,,,1,,,68,0
40908,note_on,48,0,6,,,,,,,,5,,,53,0
40920,note_on,12,0,3,,,,,,,,2,,,61,72
40920,note_on,12,0,4,,,,,,,,3,,,53,105
40920,note_on,12,0,6,,,,,,,,5,,,53,72
40920,note_on,12,0,5,,,,,,,,4,,,41,72
40920,note_on,12,0,1,,,,,,,,0,,,73,72
40920,note_on,12,0,2,,,,,,,,1,,,68,72
40968,note_on,48,0,2,,,,,,,,1,,,68,0
40968,note_on,48,0,5,,,,,,,,4,,,41,0
40968,note_on,48,0,1,,,,,,,,0,,,73,0
40968,note_on,48,0,4,,,,,,,,3,,,53,0
40968,note_on,48,0,6,,,,,,,,5,,,53,0
40968,note_on,48,0,3,,,,,,,,2,,,61,0
40980,note_on,12,0,4,,,,,,,,3,,,53,105
40980,note_on,12,0,2,,,,,,,,1,,,68,72
40980,note_on,12,0,3,,,,,,,,2,,,61,72
40980,note_on,12,0,1,,,,,,,,0,,,73,72
40980,note_on,12,0,6,,,,,,,,5,,,53,72
40980,note_on,12,0,5,,,,,,,,4,,,41,72
40992,note_on,12,0,6,,,,,,,,5,,,68,0
41028,note_on,36,0,6,,,,,,,,5,,,53,0
41028,note_on,48,0,3,,,,,,,,2,,,61,0
41028,note_on,48,0,4,,,,,,,,3,,,53,0
41028,note_on,48,0,1,,,,,,,,0,,,73,0
41028,note_on,48,0,2,,,,,,,,1,,,68,0
41028,note_on,48,0,5,,,,,,,,4,,,41,0
41040,note_on,0,0,6,,,,,,,,5,,,53,72
41040,note_on,12,0,6,,,,,,,,5,,,71,72
41040,note_on,12,0,5,,,,,,,,4,,,41,72
41040,note_on,12,0,1,,,,,,,,0,,,71,72
41040,note_on,12,0,2,,,,,,,,1,,,68,72
41040,note_on,12,0,4,,,,,,,,3,,,53,105
41040,note_on,12,0,3,,,,,,,,2,,,61,72
41088,note_on,48,0,4,,,,,,,,3,,,53,0
41088,note_on,48,0,1,,,,,,,,0,,,71,0
41088,note_on,48,0,2,,,,,,,,1,,,68,0
41088,note_on,48,0,5,,,,,,,,4,,,41,0
41088,note_on,48,0,6,,,,,,,,5,,,53,0
41088,note_on,48,0,3,,,,,,,,2,,,61,0
41100,note_on,12,0,3,,,,,,,,2,,,61,72
41100,note_on,12,0,1,,,,,,,,0,,,71,72
41100,note_on,12,0,2,,,,,,,,1,,,68,72
41100,note_on,12,0,4,,,,,,,,3,,,53,105
41100,note_on,12,0,6,,,,,,,,5,,,53,72
41100,note_on,12,0,5,,,,,,,,4,,,41,72
41148,note_on,48,0,2,,,,,,,,1,,,68,0
41148,note_on,48,0,1,,,,,,,,0,,,71,0
41148,note_on,48,0,3,,,,,,,,2,,,61,0
41148,note_on,48,0,6,,,,,,,,5,,,53,0
41148,note_on,48,0,4,,,,,,,,3,,,53,0
41148,note_on,48,0,5,,,,,,,,4,,,41,0
41160,note_on,12,0,5,,,,,,,,4,,,41,72
41160,note_on,12,0,3,,,,,,,,2,,,61,72
41160,note_on,12,0,4,,,,,,,,3,,,53,105
41160,note_on,12,0,2,,,,,,,,1,,,68,72
41160,note_on,0,0,6,,,,,,,,5,,,53,72
41160,note_on,12,0,6,,,,,,,,5,,,53,72
41160,note_on,0,0,4,,,,,,,,3,,,53,105
41160,note_on,12,0,1,,,,,,,,0,,,71,72
41208,note_on,48,0,2,,,,,,,,1,,,68,0
41208,note_on,0,0,6,,,,,,,,5,,,53,0
41208,note_on,48,0,6,,,,,,,,5,,,53,0
41208,note_on,48,0,1,,,,,,,,0,,,71,0
41208,note_on,48,0,3,,,,,,,,2,,,61,0
41208,note_on,48,0,5,,,,,,,,4,,,41,0
41208,note_on,48,0,4,,,,,,,,3,,,53,0
41208,note_on,0,0,4,,,,,,,,3,,,53,0
41220,note_on,12,0,5,,,,,,,,4,,,41,72
41220,note_on,12,0,3,,,,,,,,2,,,61,72
41220,note_on,12,0,4,,,,,,,,3,,,53,105
41220,note_on,12,0,2,,,,,,,,1,,,68,72
41220,note_on,12,0,1,,,,,,,,0,,,71,72
41220,note_on,12,0,6,,,,,,,,5,,,53,72
41232,note_on,12,0,6,,,,,,,,5,,,71,0
41268,note_on,48,0,4,,,,,,,,3,,,53,0
41268,note_on,48,0,2,,,,,,,,1,,,68,0
41268,note_on,48,0,3,,,,,,,,2,,,61,0
41268,note_on,48,0,1,,,,,,,,0,,,71,0
41268,note_on,36,0,6,,,,,,,,5,,,53,0
41268,note_on,48,0,5,,,,,,,,4,,,41,0
41280,note_on,12,0,2,,,,,,,,1,,,66,72
41280,note_on,12,0,4,,,,,,,,3,,,54,105
41280,note_on,12,0,5,,,,,,,,4,,,42,72
41280,note_on,12,0,3,,,,,,,,2,,,61,72
41280,note_on,12,0,1,,,,,,,,0,,,69,72
41280,note_on,0,0,6,,,,,,,,5,,,69,72
41280,note_on,12,0,6,,,,,,,,5,,,54,72
41328,note_on,48,0,1,,,,,,,,0,,,69,0
41328,note_on,48,0,2,,,,,,,,1,,,66,0
41340,note_on,12,0,1,,,,,,,,0,,,73,72
41340,note_on,12,0,2,,,,,,,,1,,,73,72
41388,note_on,48,0,1,,,,,,,,0,,,73,0
41388,note_on,48,0,2,,,,,,,,1,,,73,0
41400,note_on,12,0,1,,,,,,,,0,,,71,72
41400,note_on,12,0,2,,,,,,,,1,,,71,72
41448,note_on,48,0,2,,,,,,,,1,,,71,0
41448,note_on,48,0,1,,,,,,,,0,,,71,0
41460,note_on,12,0,2,,,,,,,,1,,,73,72
41460,note_on,12,0,1,,,,,,,,0,,,73,72
41472,note_on,192,0,6,,,,,,,,5,,,69,0
41472,note_on,192,0,5,,,,,,,,4,,,42,0
41472,note_on,192,0,4,,,,,,,,3,,,54,0
41472,note_on,192,0,3,,,,,,,,2,,,61,0
41472,note_on,0,0,6,,,,,,,,5,,,73,0
41472,note_on,0,0,6,,,,,,,,5,,,54,0
41508,note_on,48,0,1,,,,,,,,0,,,73,0
41508,note_on,48,0,2,,,,,,,,1,,,73,0
41520,note_on,12,0,2,,,,,,,,1,,,73,72
41520,note_on,12,0,1,,,,,,,,0,,,73,72
41544,note_on,24,0,1,,,,,,,,0,,,73,0
41544,note_on,24,0,2,,,,,,,,1,,,73,0
41550,note_on,6,0,1,,,,,,,,0,,,74,72
41550,note_on,6,0,2,,,,,,,,1,,,74,72
41574,note_on,24,0,1,,,,,,,,0,,,74,0
41574,note_on,24,0,2,,,,,,,,1,,,74,0
41580,note_on,6,0,1,,,,,,,,0,,,73,72
41580,note_on,6,0,2,,,,,,,,1,,,73,72
41604,note_on,24,0,1,,,,,,,,0,,,73,0
41604,note_on,24,0,2,,,,,,,,1,,,73,0
41610,note_on,6,0,1,,,,,,,,0,,,74,72
41610,note_on,6,0,2,,,,,,,,1,,,74,72
41634,note_on,24,0,1,,,,,,,,0,,,74,0
41634,note_on,24,0,2,,,,,,,,1,,,74,0
41640,note_on,6,0,2,,,,,,,,1,,,73,72
41640,note_on,6,0,1,,,,,,,,0,,,73,72
41664,note_on,24,0,2,,,,,,,,1,,,73,0
41664,note_on,24,0,1,,,,,,,,0,,,73,0
41670,note_on,6,0,2,,,,,,,,1,,,74,72
41670,note_on,6,0,1,,,,,,,,0,,,74,72
41694,note_on,24,0,2,,,,,,,,1,,,74,0
41694,note_on,24,0,1,,,,,,,,0,,,74,0
41700,note_on,6,0,2,,,,,,,,1,,,73,72
41700,note_on,6,0,1,,,,,,,,0,,,73,72
41724,note_on,24,0,2,,,,,,,,1,,,73,0
41724,note_on,24,0,1,,,,,,,,0,,,73,0
41730,note_on,6,0,1,,,,,,,,0,,,74,72
41730,note_on,6,0,2,,,,,,,,1,,,74,72
41754,note_on,24,0,1,,,,,,,,0,,,74,0
41754,note_on,24,0,2,,,,,,,,1,,,74,0
41760,note_on,0,0,6,,,,,,,,5,,,46,92
41760,note_on,0,0,6,,,,,,,,5,,,67,92
41760,note_on,288,0,4,,,,,,,,3,,,46,92
41760,note_on,288,0,5,,,,,,,,4,,,34,92
41760,note_on,6,0,2,,,,,,,,1,,,73,72
41760,note_on,6,0,1,,,,,,,,0,,,79,92
41760,note_on,288,0,6,,,,,,,,5,,,61,92
41760,note_on,288,0,3,,,,,,,,2,,,64,72
41808,note_on,48,0,4,,,,,,,,3,,,46,0
41808,note_on,48,0,5,,,,,,,,4,,,34,0
41808,note_on,48,0,2,,,,,,,,1,,,73,0
41808,note_on,48,0,3,,,,,,,,2,,,64,0
41808,note_on,48,0,1,,,,,,,,0,,,79,0
41808,note_on,48,0,6,,,,,,,,5,,,46,0
41820,note_on,12,0,1,,,,,,,,0,,,79,92
41820,note_on,12,0,6,,,,,,,,5,,,46,92
41820,note_on,12,0,4,,,,,,,,3,,,46,92
41820,note_on,12,0,5,,,,,,,,4,,,34,92
41820,note_on,12,0,3,,,,,,,,2,,,64,72
41820,note_on,12,0,2,,,,,,,,1,,,73,72
41868,note_on,48,0,2,,,,,,,,1,,,73,0
41868,note_on,48,0,6,,,,,,,,5,,,46,0
41868,note_on,48,0,5,,,,,,,,4,,,34,0
41868,note_on,48,0,3,,,,,,,,2,,,64,0
41868,note_on,48,0,1,,,,,,,,0,,,79,0
41868,note_on,48,0,4,,,,,,,,3,,,46,0
41880,note_on,12,0,4,,,,,,,,3,,,46,92
41880,note_on,12,0,1,,,,,,,,0,,,79,92
41880,note_on,12,0,2,,,,,,,,1,,,73,72
41880,note_on,12,0,5,,,,,,,,4,,,34,92
41880,note_on,12,0,6,,,,,,,,5,,,46,92
41880,note_on,12,0,3,,,,,,,,2,,,64,72
41928,note_on,48,0,4,,,,,,,,3,,,46,0
41928,note_on,48,0,1,,,,,,,,0,,,79,0
41928,note_on,48,0,2,,,,,,,,1,,,73,0
41928,note_on,48,0,6,,,,,,,,5,,,46,0
41928,note_on,48,0,3,,,,,,,,2,,,64,0
41928,note_on,48,0,5,,,,,,,,4,,,34,0
41940,note_on,12,0,6,,,,,,,,5,,,46,92
41940,note_on,12,0,5,,,,,,,,4,,,34,92
41940,note_on,12,0,4,,,,,,,,3,,,46,92
41940,note_on,12,0,1,,,,,,,,0,,,79,92
41940,note_on,12,0,2,,,,,,,,1,,,73,72
41940,note_on,12,0,3,,,,,,,,2,,,64,92
41988,note_on,48,0,3,,,,,,,,2,,,64,0
41988,note_on,48,0,2,,,,,,,,1,,,73,0
41988,note_on,48,0,6,,,,,,,,5,,,46,0
41988,note_on,48,0,5,,,,,,,,4,,,34,0
41988,note_on,48,0,1,,,,,,,,0,,,79,0
41988,note_on,48,0,4,,,,,,,,3,,,46,0
42000,note_on,12,0,4,,,,,,,,3,,,46,92
42000,note_on,12,0,1,,,,,,,,0,,,79,92
42000,note_on,12,0,6,,,,,,,,5,,,46,92
42000,note_on,12,0,2,,,,,,,,1,,,73,72
42000,note_on,12,0,5,,,,,,,,4,,,34,92
42000,note_on,12,0,3,,,,,,,,2,,,64,92
42048,note_on,48,0,3,,,,,,,,2,,,64,0
42048,note_on,48,0,1,,,,,,,,0,,,79,0
42048,note_on,48,0,5,,,,,,,,4,,,34,0
42048,note_on,48,0,4,,,,,,,,3,,,46,0
42048,note_on,48,0,6,,,,,,,,5,,,46,0
42048,note_on,48,0,2,,,,,,,,1,,,73,0
42060,note_on,12,0,1,,,,,,,,0,,,79,92
42060,note_on,12,0,2,,,,,,,,1,,,73,72
42060,note_on,12,0,6,,,,,,,,5,,,46,92
42060,note_on,12,0,3,,,,,,,,2,,,64,92
42060,note_on,12,0,4,,,,,,,,3,,,46,92
42060,note_on,12,0,5,,,,,,,,4,,,34,92
42108,note_on,48,0,6,,,,,,,,5,,,46,0
42108,note_on,48,0,3,,,,,,,,2,,,64,0
42108,note_on,48,0,4,,,,,,,,3,,,46,0
42108,note_on,48,0,5,,,,,,,,4,,,34,0
42108,note_on,48,0,1,,,,,,,,0,,,79,0
42108,note_on,48,0,2,,,,,,,,1,,,73,0
42120,note_on,12,0,5,,,,,,,,4,,,34,92
42120,note_on,12,0,6,,,,,,,,5,,,46,92
42120,note_on,12,0,1,,,,,,,,0,,,79,92
42120,note_on,12,0,4,,,,,,,,3,,,46,92
42120,note_on,12,0,2,,,,,,,,1,,,73,72
42120,note_on,12,0,3,,,,,,,,2,,,64,92
42144,note_on,24,0,6,,,,,,,,5,,,67,0
42168,note_on,24,0,6,,,,,,,,5,,,46,0
42168,note_on,48,0,4,,,,,,,,3,,,46,0
42168,note_on,48,0,2,,,,,,,,1,,,73,0
42168,note_on,48,0,1,,,,,,,,0,,,79,0
42168,note_on,48,0,5,,,,,,,,4,,,34,0
42168,note_on,48,0,3,,,,,,,,2,,,64,0
42180,note_on,12,0,1,,,,,,,,0,,,79,92
42180,note_on,12,0,4,,,,,,,,3,,,46,92
42180,note_on,12,0,6,,,,,,,,5,,,46,92
42180,note_on,12,0,2,,,,,,,,1,,,73,72
42180,note_on,12,0,5,,,,,,,,4,,,34,92
42180,note_on,12,0,3,,,,,,,,2,,,64,92
42228,note_on,48,0,4,,,,,,,,3,,,46,0
42228,note_on,48,0,2,,,,,,,,1,,,73,0
42228,note_on,48,0,3,,,,,,,,2,,,64,0
42228,note_on,48,0,6,,,,,,,,5,,,46,0
42228,note_on,48,0,5,,,,,,,,4,,,34,0
42228,note_on,48,0,1,,,,,,,,0,,,79,0
42240,note_on,12,0,4,,,,,,,,3,,,46,92
42240,note_on,12,0,6,,,,,,,,5,,,66,92
42240,note_on,0,0,6,,,,,,,,5,,,46,92
42240,note_on,12,0,3,,,,,,,,2,,,66,92
42240,note_on,12,0,1,,,,,,,,0,,,78,92
42240,note_on,12,0,5,,,,,,,,4,,,34,92
42240,note_on,12,0,2,,,,,,,,1,,,73,72
42288,note_on,48,0,4,,,,,,,,3,,,46,0
42288,note_on,48,0,1,,,,,,,,0,,,78,0
42288,note_on,48,0,2,,,,,,,,1,,,73,0
42288,note_on,48,0,3,,,,,,,,2,,,66,0
42288,note_on,48,0,5,,,,,,,,4,,,34,0
42288,note_on,48,0,6,,,,,,,,5,,,46,0
42300,note_on,12,0,1,,,,,,,,0,,,78,92
42300,note_on,12,0,5,,,,,,,,4,,,34,92
42300,note_on,12,0,4,,,,,,,,3,,,46,92
42300,note_on,12,0,2,,,,,,,,1,,,73,72
42300,note_on,12,0,3,,,,,,,,2,,,66,92
42300,note_on,12,0,6,,,,,,,,5,,,46,92
42348,note_on,48,0,5,,,,,,,,4,,,34,0
42348,note_on,48,0,2,,,,,,,,1,,,73,0
42348,note_on,48,0,4,,,,,,,,3,,,46,0
42348,note_on,48,0,1,,,,,,,,0,,,78,0
42348,note_on,48,0,6,,,,,,,,5,,,46,0
42348,note_on,48,0,3,,,,,,,,2,,,66,0
42360,note_on,12,0,3,,,,,,,,2,,,66,92
42360,note_on,12,0,1,,,,,,,,0,,,78,92
42360,note_on,12,0,4,,,,,,,,3,,,46,92
42360,note_on,12,0,6,,,,,,,,5,,,46,92
42360,note_on,12,0,2,,,,,,,,1,,,73,72
42360,note_on,12,0,5,,,,,,,,4,,,34,92
42408,note_on,48,0,1,,,,,,,,0,,,78,0
42408,note_on,48,0,5,,,,,,,,4,,,34,0
42408,note_on,48,0,2,,,,,,,,1,,,73,0
42408,note_on,48,0,6,,,,,,,,5,,,46,0
42408,note_on,48,0,3,,,,,,,,2,,,66,0
42408,note_on,48,0,4,,,,,,,,3,,,46,0
42420,note_on,12,0,5,,,,,,,,4,,,34,92
42420,note_on,12,0,2,,,,,,,,1,,,73,72
42420,note_on,12,0,1,,,,,,,,0,,,78,92
42420,note_on,12,0,6,,,,,,,,5,,,46,92
42420,note_on,12,0,3,,,,,,,,2,,,66,92
42420,note_on,12,0,4,,,,,,,,3,,,46,92
42432,note_on,12,0,6,,,,,,,,5,,,61,0
42468,note_on,48,0,5,,,,,,,,4,,,34,0
42468,note_on,48,0,1,,,,,,,,0,,,78,0
42468,note_on,36,0,6,,,,,,,,5,,,46,0
42468,note_on,48,0,4,,,,,,,,3,,,46,0
42468,note_on,48,0,3,,,,,,,,2,,,66,0
42468,note_on,48,0,2,,,,,,,,1,,,73,0
42480,note_on,12,0,2,,,,,,,,1,,,73,72
42480,note_on,0,0,6,,,,,,,,5,,,64,92
42480,note_on,12,0,6,,,,,,,,5,,,46,92
42480,note_on,12,0,5,,,,,,,,4,,,34,92
42480,note_on,12,0,3,,,,,,,,2,,,66,92
42480,note_on,12,0,4,,,,,,,,3,,,46,92
42480,note_on,12,0,1,,,,,,,,0,,,76,92
42528,note_on,48,0,4,,,,,,,,3,,,46,0
42528,note_on,48,0,3,,,,,,,,2,,,66,0
42528,note_on,48,0,5,,,,,,,,4,,,34,0
42528,note_on,48,0,6,,,,,,,,5,,,46,0
42528,note_on,48,0,2,,,,,,,,1,,,73,0
42528,note_on,48,0,1,,,,,,,,0,,,76,0
42540,note_on,12,0,3,,,,,,,,2,,,66,92
42540,note_on,12,0,6,,,,,,,,5,,,46,92
42540,note_on,12,0,5,,,,,,,,4,,,34,92
42540,note_on,12,0,2,,,,,,,,1,,,73,72
42540,note_on,12,0,4,,,,,,,,3,,,46,92
42540,note_on,12,0,1,,,,,,,,0,,,76,92
42588,note_on,48,0,6,,,,,,,,5,,,46,0
42588,note_on,48,0,5,,,,,,,,4,,,34,0
42588,note_on,48,0,4,,,,,,,,3,,,46,0
42588,note_on,48,0,2,,,,,,,,1,,,73,0
42588,note_on,48,0,3,,,,,,,,2,,,66,0
42588,note_on,48,0,1,,,,,,,,0,,,76,0
42600,note_on,12,0,2,,,,,,,,1,,,73,72
42600,note_on,12,0,4,,,,,,,,3,,,46,92
42600,note_on,12,0,6,,,,,,,,5,,,46,92
42600,note_on,12,0,1,,,,,,,,0,,,76,92
42600,note_on,12,0,5,,,,,,,,4,,,34,92
42600,note_on,12,0,3,,,,,,,,2,,,66,92
42648,note_on,48,0,1,,,,,,,,0,,,76,0
42648,note_on,48,0,4,,,,,,,,3,,,46,0
42648,note_on,48,0,3,,,,,,,,2,,,66,0
42648,note_on,48,0,6,,,,,,,,5,,,46,0
42648,note_on,48,0,5,,,,,,,,4,,,34,0
42648,note_on,48,0,2,,,,,,,,1,,,73,0
42660,note_on,12,0,1,,,,,,,,0,,,76,92
42660,note_on,12,0,2,,,,,,,,1,,,73,72
42660,note_on,12,0,6,,,,,,,,5,,,46,92
42660,note_on,12,0,5,,,,,,,,4,,,34,92
42660,note_on,12,0,4,,,,,,,,3,,,46,92
42660,note_on,12,0,3,,,,,,,,2,,,66,92
42672,note_on,12,0,6,,,,,,,,5,,,64,0
42708,note_on,48,0,3,,,,,,,,2,,,66,0
42708,note_on,48,0,1,,,,,,,,0,,,76,0
42708,note_on,36,0,6,,,,,,,,5,,,46,0
42708,note_on,48,0,2,,,,,,,,1,,,73,0
42708,note_on,48,0,4,,,,,,,,3,,,46,0
42708,note_on,48,0,5,,,,,,,,4,,,34,0
42720,note_on,0,0,6,,,,,,,,5,,,62,92
42720,note_on,12,0,3,,,,,,,,2,,,66,92
42720,note_on,12,0,6,,,,,,,,5,,,47,92
42720,note_on,12,0,5,,,,,,,,4,,,35,92
42720,note_on,12,0,2,,,,,,,,1,,,71,72
42720,note_on,12,0,4,,,,,,,,3,,,47,92
42720,note_on,12,0,1,,,,,,,,0,,,74,92
42768,note_on,48,0,1,,,,,,,,0,,,74,0
42768,note_on,48,0,2,,,,,,,,1,,,71,0
42780,note_on,12,0,2,,,,,,,,1,,,78,72
42780,note_on,12,0,1,,,,,,,,0,,,78,92
42828,note_on,48,0,2,,,,,,,,1,,,78,0
42828,note_on,48,0,1,,,,,,,,0,,,78,0
42840,note_on,12,0,2,,,,,,,,1,,,79,72
42840,note_on,12,0,1,,,,,,,,0,,,79,92
42888,note_on,48,0,2,,,,,,,,1,,,79,0
42888,note_on,48,0,1,,,,,,,,0,,,79,0
42900,note_on,12,0,2,,,,,,,,1,,,78,72
42900,note_on,12,0,1,,,,,,,,0,,,78,92
42912,note_on,192,0,5,,,,,,,,4,,,35,0
42912,note_on,0,0,6,,,,,,,,5,,,66,0
42912,note_on,192,0,6,,,,,,,,5,,,62,0
42912,note_on,192,0,3,,,,,,,,2,,,66,0
42912,note_on,192,0,4,,,,,,,,3,,,47,0
42912,note_on,0,0,6,,,,,,,,5,,,47,0
42948,note_on,48,0,1,,,,,,,,0,,,78,0
42948,note_on,48,0,2,,,,,,,,1,,,78,0
42960,note_on,12,0,1,,,,,,,,0,,,78,92
42960,note_on,12,0,2,,,,,,,,1,,,78,72
42984,note_on,24,0,1,,,,,,,,0,,,78,0
42984,note_on,24,0,2,,,,,,,,1,,,78,0
42990,note_on,6,0,2,,,,,,,,1,,,79,72
42990,note_on,6,0,1,,,,,,,,0,,,79,92
43014,note_on,24,0,2,,,,,,,,1,,,79,0
43014,note_on,24,0,1,,,,,,,,0,,,79,0
43020,note_on,6,0,1,,,,,,,,0,,,78,92
43020,note_on,6,0,2,,,,,,,,1,,,78,72
43044,note_on,24,0,1,,,,,,,,0,,,78,0
43044,note_on,24,0,2,,,,,,,,1,,,78,0
43050,note_on,6,0,2,,,,,,,,1,,,79,72
43050,note_on,6,0,1,,,,,,,,0,,,79,92
43074,note_on,24,0,1,,,,,,,,0,,,79,0
43074,note_on,24,0,2,,,,,,,,1,,,79,0
43080,note_on,6,0,1,,,,,,,,0,,,78,92
43080,note_on,6,0,2,,,,,,,,1,,,78,72
43104,note_on,24,0,1,,,,,,,,0,,,78,0
43104,note_on,24,0,2,,,,,,,,1,,,78,0
43110,note_on,6,0,2,,,,,,,,1,,,79,72
43110,note_on,6,0,1,,,,,,,,0,,,79,92
43134,note_on,24,0,1,,,,,,,,0,,,79,0
43134,note_on,24,0,2,,,,,,,,1,,,79,0
43140,note_on,6,0,1,,,,,,,,0,,,78,92
43140,note_on,6,0,2,,,,,,,,1,,,78,72
43164,note_on,24,0,2,,,,,,,,1,,,78,0
43164,note_on,24,0,1,,,,,,,,0,,,78,0
43170,note_on,6,0,2,,,,,,,,1,,,79,72
43170,note_on,6,0,1,,,,,,,,0,,,79,92
43194,note_on,24,0,1,,,,,,,,0,,,79,0
43194,note_on,24,0,2,,,,,,,,1,,,79,0
43200,note_on,288,0,6,,,,,,,,5,,,69,105
43200,note_on,0,0,6,,,,,,,,5,,,63,105
43200,note_on,0,0,6,,,,,,,,5,,,48,105
43200,note_on,6,0,1,,,,,,,,0,,,81,105
43200,note_on,288,0,4,,,,,,,,3,,,48,105
43200,note_on,288,0,3,,,,,,,,2,,,66,105
43200,note_on,288,0,5,,,,,,,,4,,,36,105
43200,note_on,6,0,2,,,,,,,,1,,,75,105
43248,note_on,48,0,1,,,,,,,,0,,,81,0
43248,note_on,48,0,3,,,,,,,,2,,,66,0
43248,note_on,48,0,5,,,,,,,,4,,,36,0
43248,note_on,48,0,6,,,,,,,,5,,,48,0
43248,note_on,48,0,4,,,,,,,,3,,,48,0
43248,note_on,48,0,2,,,,,,,,1,,,75,0
43260,note_on,12,0,6,,,,,,,,5,,,48,105
43260,note_on,12,0,3,,,,,,,,2,,,66,105
43260,note_on,12,0,4,,,,,,,,3,,,48,105
43260,note_on,12,0,2,,,,,,,,1,,,75,105
43260,note_on,12,0,1,,,,,,,,0,,,81,105
43260,note_on,12,0,5,,,,,,,,4,,,36,105
43308,note_on,48,0,5,,,,,,,,4,,,36,0
43308,note_on,48,0,3,,,,,,,,2,,,66,0
43308,note_on,48,0,2,,,,,,,,1,,,75,0
43308,note_on,48,0,1,,,,,,,,0,,,81,0
43308,note_on,48,0,4,,,,,,,,3,,,48,0
43308,note_on,48,0,6,,,,,,,,5,,,48,0
43320,note_on,12,0,1,,,,,,,,0,,,81,105
43320,note_on,12,0,4,,,,,,,,3,,,48,105
43320,note_on,12,0,5,,,,,,,,4,,,36,105
43320,note_on,12,0,2,,,,,,,,1,,,75,105
43320,note_on,12,0,3,,,,,,,,2,,,66,105
43320,note_on,12,0,6,,,,,,,,5,,,48,105
43368,note_on,48,0,5,,,,,,,,4,,,36,0
43368,note_on,48,0,6,,,,,,,,5,,,48,0
43368,note_on,48,0,1,,,,,,,,0,,,81,0
43368,note_on,48,0,2,,,,,,,,1,,,75,0
43368,note_on,48,0,4,,,,,,,,3,,,48,0
43368,note_on,48,0,3,,,,,,,,2,,,66,0
43380,note_on,12,0,4,,,,,,,,3,,,48,105
43380,note_on,12,0,5,,,,,,,,4,,,36,105
43380,note_on,12,0,1,,,,,,,,0,,,81,105
43380,note_on,12,0,3,,,,,,,,2,,,66,105
43380,note_on,12,0,2,,,,,,,,1,,,75,105
43380,note_on,12,0,6,,,,,,,,5,,,48,105
43428,note_on,48,0,4,,,,,,,,3,,,48,0
43428,note_on,48,0,2,,,,,,,,1,,,75,0
43428,note_on,48,0,1,,,,,,,,0,,,81,0
43428,note_on,48,0,5,,,,,,,,4,,,36,0
43428,note_on,48,0,6,,,,,,,,5,,,48,0
43428,note_on,48,0,3,,,,,,,,2,,,66,0
43440,note_on,12,0,2,,,,,,,,1,,,75,105
43440,note_on,12,0,6,,,,,,,,5,,,48,105
43440,note_on,12,0,5,,,,,,,,4,,,36,105
43440,note_on,12,0,4,,,,,,,,3,,,48,105
43440,note_on,12,0,3,,,,,,,,2,,,66,105
43440,note_on,12,0,1,,,,,,,,0,,,81,105
43488,note_on,48,0,6,,,,,,,,5,,,48,0
43488,note_on,48,0,5,,,,,,,,4,,,36,0
43488,note_on,48,0,4,,,,,,,,3,,,48,0
43488,note_on,48,0,3,,,,,,,,2,,,66,0
43488,note_on,48,0,2,,,,,,,,1,,,75,0
43488,note_on,48,0,1,,,,,,,,0,,,81,0
43500,note_on,12,0,3,,,,,,,,2,,,66,105
43500,note_on,12,0,1,,,,,,,,0,,,81,105
43500,note_on,12,0,5,,,,,,,,4,,,36,105
43500,note_on,12,0,6,,,,,,,,5,,,48,105
43500,note_on,12,0,4,,,,,,,,3,,,48,105
43500,note_on,12,0,2,,,,,,,,1,,,75,105
43548,note_on,48,0,5,,,,,,,,4,,,36,0
43548,note_on,48,0,4,,,,,,,,3,,,48,0
43548,note_on,48,0,6,,,,,,,,5,,,48,0
43548,note_on,48,0,1,,,,,,,,0,,,81,0
43548,note_on,48,0,3,,,,,,,,2,,,66,0
43548,note_on,48,0,2,,,,,,,,1,,,75,0
43560,note_on,12,0,5,,,,,,,,4,,,36,105
43560,note_on,12,0,2,,,,,,,,1,,,75,105
43560,note_on,12,0,6,,,,,,,,5,,,48,105
43560,note_on,12,0,4,,,,,,,,3,,,48,105
43560,note_on,12,0,1,,,,,,,,0,,,81,105
43560,note_on,12,0,3,,,,,,,,2,,,66,105
43584,note_on,0,0,6,,,,,,,,5,,,69,0
43584,note_on,24,0,6,,,,,,,,5,,,63,0
43608,note_on,48,0,3,,,,,,,,2,,,66,0
43608,note_on,48,0,1,,,,,,,,0,,,81,0
43608,note_on,48,0,4,,,,,,,,3,,,48,0
43608,note_on,48,0,2,,,,,,,,1,,,75,0
43608,note_on,24,0,6,,,,,,,,5,,,48,0
43608,note_on,48,0,5,,,,,,,,4,,,36,0
43620,note_on,12,0,3,,,,,,,,2,,,66,105
43620,note_on,12,0,6,,,,,,,,5,,,48,105
43620,note_on,12,0,4,,,,,,,,3,,,48,105
43620,note_on,12,0,1,,,,,,,,0,,,81,105
43620,note_on,12,0,2,,,,,,,,1,,,75,105
43620,note_on,12,0,5,,,,,,,,4,,,36,105
43668,note_on,48,0,5,,,,,,,,4,,,36,0
43668,note_on,48,0,6,,,,,,,,5,,,48,0
43668,note_on,48,0,3,,,,,,,,2,,,66,0
43668,note_on,48,0,4,,,,,,,,3,,,48,0
43668,note_on,48,0,1,,,,,,,,0,,,81,0
43668,note_on,48,0,2,,,,,,,,1,,,75,0
43680,note_on,0,0,6,,,,,,,,5,,,68,105
43680,note_on,0,0,6,,,,,,,,5,,,63,105
43680,note_on,12,0,2,,,,,,,,1,,,75,105
43680,note_on,12,0,6,,,,,,,,5,,,48,105
43680,note_on,12,0,3,,,,,,,,2,,,68,105
43680,note_on,12,0,5,,,,,,,,4,,,36,105
43680,note_on,12,0,1,,,,,,,,0,,,80,105
43680,note_on,12,0,4,,,,,,,,3,,,48,105
43728,note_on,48,0,3,,,,,,,,2,,,68,0
43728,note_on,48,0,2,,,,,,,,1,,,75,0
43728,note_on,48,0,6,,,,,,,,5,,,48,0
43728,note_on,48,0,4,,,,,,,,3,,,48,0
43728,note_on,48,0,1,,,,,,,,0,,,80,0
43728,note_on,48,0,5,,,,,,,,4,,,36,0
43740,note_on,12,0,6,,,,,,,,5,,,48,105
43740,note_on,12,0,3,,,,,,,,2,,,68,105
43740,note_on,12,0,2,,,,,,,,1,,,75,105
43740,note_on,12,0,5,,,,,,,,4,,,36,105
43740,note_on,12,0,1,,,,,,,,0,,,80,105
43740,note_on,12,0,4,,,,,,,,3,,,48,105
43788,note_on,48,0,1,,,,,,,,0,,,80,0
43788,note_on,48,0,5,,,,,,,,4,,,36,0
43788,note_on,48,0,2,,,,,,,,1,,,75,0
43788,note_on,48,0,4,,,,,,,,3,,,48,0
43788,note_on,48,0,6,,,,,,,,5,,,48,0
43788,note_on,48,0,3,,,,,,,,2,,,68,0
43800,note_on,12,0,5,,,,,,,,4,,,36,105
43800,note_on,12,0,1,,,,,,,,0,,,80,105
43800,note_on,12,0,4,,,,,,,,3,,,48,105
43800,note_on,12,0,6,,,,,,,,5,,,48,105
43800,note_on,12,0,2,,,,,,,,1,,,75,105
43800,note_on,12,0,3,,,,,,,,2,,,68,105
43848,note_on,48,0,3,,,,,,,,2,,,68,0
43848,note_on,48,0,1,,,,,,,,0,,,80,0
43848,note_on,48,0,2,,,,,,,,1,,,75,0
43848,note_on,48,0,5,,,,,,,,4,,,36,0
43848,note_on,48,0,4,,,,,,,,3,,,48,0
43848,note_on,48,0,6,,,,,,,,5,,,48,0
43860,note_on,12,0,2,,,,,,,,1,,,75,105
43860,note_on,12,0,1,,,,,,,,0,,,80,105
43860,note_on,12,0,3,,,,,,,,2,,,68,105
43860,note_on,12,0,6,,,,,,,,5,,,48,105
43860,note_on,12,0,4,,,,,,,,3,,,48,105
43860,note_on,12,0,5,,,,,,,,4,,,36,105
43872,note_on,12,0,6,,,,,,,,5,,,63,0
43908,note_on,48,0,1,,,,,,,,0,,,80,0
43908,note_on,36,0,6,,,,,,,,5,,,48,0
43908,note_on,48,0,2,,,,,,,,1,,,75,0
43908,note_on,48,0,5,,,,,,,,4,,,36,0
43908,note_on,48,0,3,,,,,,,,2,,,68,0
43908,note_on,48,0,4,,,,,,,,3,,,48,0
43920,note_on,12,0,2,,,,,,,,1,,,75,105
43920,note_on,0,0,6,,,,,,,,5,,,66,105
43920,note_on,12,0,6,,,,,,,,5,,,48,105
43920,note_on,12,0,1,,,,,,,,0,,,78,105
43920,note_on,12,0,5,,,,,,,,4,,,36,105
43920,note_on,12,0,3,,,,,,,,2,,,68,105
43920,note_on,12,0,4,,,,,,,,3,,,48,105
43968,note_on,48,0,6,,,,,,,,5,,,48,0
43968,note_on,48,0,2,,,,,,,,1,,,75,0
43968,note_on,48,0,1,,,,,,,,0,,,78,0
43968,note_on,48,0,4,,,,,,,,3,,,48,0
43968,note_on,48,0,3,,,,,,,,2,,,68,0
43968,note_on,48,0,5,,,,,,,,4,,,36,0
43980,note_on,12,0,3,,,,,,,,2,,,68,105
43980,note_on,12,0,4,,,,,,,,3,,,48,105
43980,note_on,12,0,5,,,,,,,,4,,,36,105
43980,note_on,12,0,1,,,,,,,,0,,,78,105
43980,note_on,12,0,2,,,,,,,,1,,,75,105
43980,note_on,12,0,6,,,,,,,,5,,,48,105
44028,note_on,48,0,1,,,,,,,,0,,,78,0
44028,note_on,48,0,3,,,,,,,,2,,,68,0
44028,note_on,48,0,6,,,,,,,,5,,,48,0
44028,note_on,48,0,5,,,,,,,,4,,,36,0
44028,note_on,48,0,4,,,,,,,,3,,,48,0
44028,note_on,48,0,2,,,,,,,,1,,,75,0
44040,note_on,12,0,1,,,,,,,,0,,,78,105
44040,note_on,12,0,6,,,,,,,,5,,,48,105
44040,note_on,12,0,3,,,,,,,,2,,,68,105
44040,note_on,12,0,2,,,,,,,,1,,,75,105
44040,note_on,12,0,5,,,,,,,,4,,,36,105
44040,note_on,12,0,4,,,,,,,,3,,,48,105
44088,note_on,48,0,3,,,,,,,,2,,,68,0
44088,note_on,48,0,1,,,,,,,,0,,,78,0
44088,note_on,48,0,2,,,,,,,,1,,,75,0
44088,note_on,48,0,5,,,,,,,,4,,,36,0
44088,note_on,48,0,6,,,,,,,,5,,,48,0
44088,note_on,48,0,4,,,,,,,,3,,,48,0
44100,note_on,12,0,4,,,,,,,,3,,,48,105
44100,note_on,12,0,5,,,,,,,,4,,,36,105
44100,note_on,12,0,3,,,,,,,,2,,,68,105
44100,note_on,12,0,2,,,,,,,,1,,,75,105
44100,note_on,12,0,1,,,,,,,,0,,,78,105
44100,note_on,12,0,6,,,,,,,,5,,,48,105
44112,note_on,12,0,6,,,,,,,,5,,,66,0
44148,note_on,48,0,4,,,,,,,,3,,,48,0
44148,note_on,36,0,6,,,,,,,,5,,,48,0
44148,note_on,48,0,3,,,,,,,,2,,,68,0
44148,note_on,48,0,1,,,,,,,,0,,,78,0
44148,note_on,48,0,2,,,,,,,,1,,,75,0
44148,note_on,48,0,5,,,,,,,,4,,,36,0
44160,note_on,0,0,6,,,,,,,,5,,,65,72
44160,note_on,12,0,6,,,,,,,,5,,,49,72
44160,note_on,12,0,1,,,,,,,,0,,,77,105
44160,note_on,12,0,2,,,,,,,,1,,,77,72
44160,note_on,12,0,5,,,,,,,,4,,,37,72
44160,note_on,12,0,3,,,,,,,,2,,,68,72
44160,note_on,12,0,4,,,,,,,,3,,,49,72
44208,note_on,48,0,1,,,,,,,,0,,,77,0
44220,note_on,12,0,1,,,,,,,,0,,,73,105
44256,note_on,96,0,6,,,,,,,,5,,,65,0
44256,note_on,96,0,3,,,,,,,,2,,,68,0
44268,note_on,48,0,1,,,,,,,,0,,,73,0
44280,note_on,24,0,3,,,,,,,,2,,,68,72
44280,note_on,12,0,1,,,,,,,,0,,,74,105
44280,note_on,24,0,6,,,,,,,,5,,,61,72
44328,note_on,48,0,1,,,,,,,,0,,,74,0
44340,note_on,12,0,1,,,,,,,,0,,,73,105
44352,note_on,192,0,2,,,,,,,,1,,,77,0
44376,note_on,96,0,3,,,,,,,,2,,,68,0
44376,note_on,96,0,6,,,,,,,,5,,,61,0
44388,note_on,48,0,1,,,,,,,,0,,,73,0
44400,note_on,24,0,3,,,,,,,,2,,,68,72
44400,note_on,24,0,6,,,,,,,,5,,,61,72
44400,note_on,12,0,1,,,,,,,,0,,,73,105
44424,note_on,24,0,1,,,,,,,,0,,,73,0
44430,note_on,6,0,1,,,,,,,,0,,,74,105
44448,note_on,48,0,6,,,,,,,,5,,,49,0
44448,note_on,288,0,5,,,,,,,,4,,,37,0
44448,note_on,288,0,4,,,,,,,,3,,,49,0
44454,note_on,24,0,1,,,,,,,,0,,,74,0
44460,note_on,12,0,6,,,,,,,,5,,,61,72
44460,note_on,12,0,4,,,,,,,,3,,,61,72
44460,note_on,12,0,5,,,,,,,,4,,,49,72
44460,note_on,6,0,1,,,,,,,,0,,,73,105
44484,note_on,24,0,1,,,,,,,,0,,,73,0
44490,note_on,6,0,1,,,,,,,,0,,,74,105
44496,note_on,96,0,3,,,,,,,,2,,,68,0
44496,note_on,36,0,6,,,,,,,,5,,,61,0
44508,note_on,48,0,4,,,,,,,,3,,,61,0
44508,note_on,48,0,5,,,,,,,,4,,,49,0
44508,note_on,12,0,6,,,,,,,,5,,,61,0
44514,note_on,24,0,1,,,,,,,,0,,,74,0
44520,note_on,6,0,1,,,,,,,,0,,,73,105
44520,note_on,12,0,4,,,,,,,,3,,,62,72
44520,note_on,24,0,3,,,,,,,,2,,,68,72
44520,note_on,12,0,5,,,,,,,,4,,,50,72
44520,note_on,12,0,6,,,,,,,,5,,,62,72
44544,note_on,24,0,1,,,,,,,,0,,,73,0
44544,note_on,24,0,6,,,,,,,,5,,,68,0
44550,note_on,6,0,1,,,,,,,,0,,,74,105
44568,note_on,48,0,4,,,,,,,,3,,,62,0
44568,note_on,24,0,6,,,,,,,,5,,,62,0
44568,note_on,48,0,5,,,,,,,,4,,,50,0
44574,note_on,24,0,1,,,,,,,,0,,,74,0
44580,note_on,6,0,1,,,,,,,,0,,,73,105
44580,note_on,12,0,6,,,,,,,,5,,,61,72
44580,note_on,12,0,5,,,,,,,,4,,,49,72
44580,note_on,12,0,4,,,,,,,,3,,,61,72
44604,note_on,24,0,1,,,,,,,,0,,,73,0
44610,note_on,6,0,1,,,,,,,,0,,,74,105
44616,note_on,96,0,3,,,,,,,,2,,,68,0
44628,note_on,48,0,6,,,,,,,,5,,,61,0
44628,note_on,48,0,4,,,,,,,,3,,,61,0
44628,note_on,48,0,5,,,,,,,,4,,,49,0
44634,note_on,24,0,1,,,,,,,,0,,,74,0
44640,note_on,0,0,6,,,,,,,,5,,,69,72
44640,note_on,12,0,6,,,,,,,,5,,,49,72
44640,note_on,0,0,6,,,,,,,,5,,,66,72
44640,note_on,12,0,5,,,,,,,,4,,,37,72
44640,note_on,6,0,1,,,,,,,,0,,,78,105
44640,note_on,12,0,4,,,,,,,,3,,,49,72
44688,note_on,48,0,1,,,,,,,,0,,,78,0
44700,note_on,12,0,1,,,,,,,,0,,,73,105
44736,note_on,96,0,6,,,,,,,,5,,,66,0
44748,note_on,48,0,1,,,,,,,,0,,,73,0
44760,note_on,144,0,3,,,,,,,,2,,,68,72
44760,note_on,24,0,6,,,,,,,,5,,,61,72
44760,note_on,12,0,1,,,,,,,,0,,,74,105
44808,note_on,48,0,1,,,,,,,,0,,,74,0
44820,note_on,12,0,1,,,,,,,,0,,,73,105
44856,note_on,96,0,6,,,,,,,,5,,,61,0
44856,note_on,96,0,3,,,,,,,,2,,,68,0
44868,note_on,48,0,1,,,,,,,,0,,,73,0
44880,note_on,24,0,6,,,,,,,,5,,,61,72
44880,note_on,24,0,3,,,,,,,,2,,,68,72
44880,note_on,12,0,1,,,,,,,,0,,,73,105
44904,note_on,24,0,1,,,,,,,,0,,,73,0
44910,note_on,6,0,1,,,,,,,,0,,,74,105
44928,note_on,288,0,5,,,,,,,,4,,,37,0
44928,note_on,288,0,4,,,,,,,,3,,,49,0
44928,note_on,48,0,6,,,,,,,,5,,,49,0
44934,note_on,24,0,1,,,,,,,,0,,,74,0
44940,note_on,12,0,5,,,,,,,,4,,,49,72
44940,note_on,12,0,4,,,,,,,,3,,,61,72
44940,note_on,6,0,1,,,,,,,,0,,,73,105
44940,note_on,12,0,6,,,,,,,,5,,,61,72
44964,note_on,24,0,1,,,,,,,,0,,,73,0
44970,note_on,6,0,1,,,,,,,,0,,,74,105
44976,note_on,96,0,3,,,,,,,,2,,,68,0
44976,note_on,36,0,6,,,,,,,,5,,,61,0
44988,note_on,48,0,4,,,,,,,,3,,,61,0
44988,note_on,12,0,6,,,,,,,,5,,,61,0
44988,note_on,48,0,5,,,,,,,,4,,,49,0
44994,note_on,24,0,1,,,,,,,,0,,,74,0
45000,note_on,12,0,4,,,,,,,,3,,,62,72
45000,note_on,12,0,5,,,,,,,,4,,,50,72
45000,note_on,6,0,1,,,,,,,,0,,,73,105
45000,note_on,24,0,3,,,,,,,,2,,,68,72
45000,note_on,12,0,6,,,,,,,,5,,,62,72
45024,note_on,24,0,6,,,,,,,,5,,,69,0
45024,note_on,24,0,1,,,,,,,,0,,,73,0
45030,note_on,6,0,1,,,,,,,,0,,,74,105
45048,note_on,24,0,6,,,,,,,,5,,,62,0
45048,note_on,48,0,4,,,,,,,,3,,,62,0
45048,note_on,48,0,5,,,,,,,,4,,,50,0
45054,note_on,24,0,1,,,,,,,,0,,,74,0
45060,note_on,12,0,4,,,,,,,,3,,,61,72
45060,note_on,12,0,5,,,,,,,,4,,,49,72
45060,note_on,12,0,6,,,,,,,,5,,,61,72
45060,note_on,6,0,1,,,,,,,,0,,,73,105
45084,note_on,24,0,1,,,,,,,,0,,,73,0
45090,note_on,6,0,1,,,,,,,,0,,,74,105
45096,note_on,96,0,3,,,,,,,,2,,,68,0
45108,note_on,48,0,5,,,,,,,,4,,,49,0
45108,note_on,48,0,6,,,,,,,,5,,,61,0
45108,note_on,48,0,4,,,,,,,,3,,,61,0
45114,note_on,24,0,1,,,,,,,,0,,,74,0
45120,note_on,768,0,2,,,,,,,,1,,,77,72
45120,note_on,0,0,6,,,,,,,,5,,,65,92
45120,note_on,0,0,6,,,,,,,,5,,,49,92
45120,note_on,12,0,6,,,,,,,,5,,,68,92
45120,note_on,12,0,4,,,,,,,,3,,,49,92
45120,note_on,6,0,1,,,,,,,,0,,,80,92
45120,note_on,12,0,5,,,,,,,,4,,,37,92
45168,note_on,48,0,2,,,,,,,,1,,,77,0
45168,note_on,48,0,1,,,,,,,,0,,,80,0
45180,note_on,12,0,1,,,,,,,,0,,,73,92
45180,note_on,12,0,2,,,,,,,,1,,,73,72
45216,note_on,96,0,6,,,,,,,,5,,,65,0
45228,note_on,48,0,2,,,,,,,,1,,,73,0
45228,note_on,48,0,1,,,,,,,,0,,,73,0
45240,note_on,24,0,6,,,,,,,,5,,,61,92
45240,note_on,144,0,3,,,,,,,,2,,,65,92
45240,note_on,12,0,2,,,,,,,,1,,,74,72
45240,note_on,12,0,1,,,,,,,,0,,,74,92
45288,note_on,48,0,2,,,,,,,,1,,,74,0
45288,note_on,48,0,1,,,,,,,,0,,,74,0
45300,note_on,12,0,2,,,,,,,,1,,,73,72
45300,note_on,12,0,1,,,,,,,,0,,,73,92
45336,note_on,96,0,6,,,,,,,,5,,,61,0
45336,note_on,96,0,3,,,,,,,,2,,,65,0
45348,note_on,48,0,1,,,,,,,,0,,,73,0
45348,note_on,48,0,2,,,,,,,,1,,,73,0
45360,note_on,12,0,2,,,,,,,,1,,,73,72
45360,note_on,24,0,3,,,,,,,,2,,,65,92
45360,note_on,12,0,1,,,,,,,,0,,,73,92
45360,note_on,24,0,6,,,,,,,,5,,,61,92
45384,note_on,24,0,2,,,,,,,,1,,,73,0
45384,note_on,24,0,1,,,,,,,,0,,,73,0
45390,note_on,6,0,2,,,,,,,,1,,,74,72
45390,note_on,6,0,1,,,,,,,,0,,,74,92
45408,note_on,288,0,5,,,,,,,,4,,,37,0
45408,note_on,48,0,6,,,,,,,,5,,,49,0
45408,note_on,288,0,4,,,,,,,,3,,,49,0
45414,note_on,24,0,2,,,,,,,,1,,,74,0
45414,note_on,24,0,1,,,,,,,,0,,,74,0
45420,note_on,12,0,6,,,,,,,,5,,,61,92
45420,note_on,6,0,2,,,,,,,,1,,,73,72
45420,note_on,12,0,5,,,,,,,,4,,,49,92
45420,note_on,12,0,4,,,,,,,,3,,,61,92
45420,note_on,6,0,1,,,,,,,,0,,,73,92
45444,note_on,24,0,2,,,,,,,,1,,,73,0
45444,note_on,24,0,1,,,,,,,,0,,,73,0
45450,note_on,6,0,2,,,,,,,,1,,,74,72
45450,note_on,6,0,1,,,,,,,,0,,,74,92
45456,note_on,96,0,3,,,,,,,,2,,,65,0
45456,note_on,36,0,6,,,,,,,,5,,,61,0
45468,note_on,48,0,4,,,,,,,,3,,,61,0
45468,note_on,48,0,5,,,,,,,,4,,,49,0
45468,note_on,12,0,6,,,,,,,,5,,,61,0
45474,note_on,24,0,2,,,,,,,,1,,,74,0
45474,note_on,24,0,1,,,,,,,,0,,,74,0
45480,note_on,12,0,4,,,,,,,,3,,,62,92
45480,note_on,6,0,2,,,,,,,,1,,,73,72
45480,note_on,6,0,1,,,,,,,,0,,,73,92
45480,note_on,12,0,6,,,,,,,,5,,,62,92
45480,note_on,24,0,3,,,,,,,,2,,,65,92
45480,note_on,12,0,5,,,,,,,,4,,,50,92
45504,note_on,24,0,2,,,,,,,,1,,,73,0
45504,note_on,24,0,1,,,,,,,,0,,,73,0
45504,note_on,24,0,6,,,,,,,,5,,,68,0
45510,note_on,6,0,2,,,,,,,,1,,,74,72
45510,note_on,6,0,1,,,,,,,,0,,,74,92
45528,note_on,48,0,5,,,,,,,,4,,,50,0
45528,note_on,24,0,6,,,,,,,,5,,,62,0
45528,note_on,48,0,4,,,,,,,,3,,,62,0
45534,note_on,24,0,1,,,,,,,,0,,,74,0
45534,note_on,24,0,2,,,,,,,,1,,,74,0
45540,note_on,6,0,1,,,,,,,,0,,,73,92
45540,note_on,6,0,2,,,,,,,,1,,,73,72
45540,note_on,12,0,6,,,,,,,,5,,,61,92
45540,note_on,12,0,5,,,,,,,,4,,,49,92
45540,note_on,12,0,4,,,,,,,,3,,,61,92
45564,note_on,24,0,2,,,,,,,,1,,,73,0
45564,note_on,24,0,1,,,,,,,,0,,,73,0
45570,note_on,6,0,1,,,,,,,,0,,,74,92
45570,note_on,6,0,2,,,,,,,,1,,,74,72
45576,note_on,96,0,3,,,,,,,,2,,,65,0
45588,note_on,48,0,4,,,,,,,,3,,,61,0
45588,note_on,48,0,6,,,,,,,,5,,,61,0
45588,note_on,48,0,5,,,,,,,,4,,,49,0
45594,note_on,24,0,2,,,,,,,,1,,,74,0
45594,note_on,24,0,1,,,,,,,,0,,,74,0
45600,note_on,6,0,2,,,,,,,,1,,,81,72
45600,note_on,0,0,6,,,,,,,,5,,,66,92
45600,note_on,0,0,6,,,,,,,,5,,,49,92
45600,note_on,12,0,6,,,,,,,,5,,,69,92
45600,note_on,12,0,5,,,,,,,,4,,,37,92
45600,note_on,12,0,4,,,,,,,,3,,,49,92
45600,note_on,6,0,1,,,,,,,,0,,,81,92
45648,note_on,48,0,2,,,,,,,,1,,,81,0
45648,note_on,48,0,1,,,,,,,,0,,,81,0
45660,note_on,12,0,1,,,,,,,,0,,,73,92
45660,note_on,12,0,2,,,,,,,,1,,,73,72
45696,note_on,96,0,6,,,,,,,,5,,,66,0
45708,note_on,48,0,1,,,,,,,,0,,,73,0
45708,note_on,48,0,2,,,,,,,,1,,,73,0
45720,note_on,12,0,1,,,,,,,,0,,,74,92
45720,note_on,12,0,2,,,,,,,,1,,,74,72
45720,note_on,144,0,3,,,,,,,,2,,,66,92
45720,note_on,24,0,6,,,,,,,,5,,,61,92
45768,note_on,48,0,1,,,,,,,,0,,,74,0
45768,note_on,48,0,2,,,,,,,,1,,,74,0
45780,note_on,12,0,2,,,,,,,,1,,,73,72
45780,note_on,12,0,1,,,,,,,,0,,,73,92
45816,note_on,96,0,6,,,,,,,,5,,,61,0
45816,note_on,96,0,3,,,,,,,,2,,,66,0
45828,note_on,48,0,1,,,,,,,,0,,,73,0
45828,note_on,48,0,2,,,,,,,,1,,,73,0
45840,note_on,24,0,6,,,,,,,,5,,,61,92
45840,note_on,24,0,3,,,,,,,,2,,,66,92
45840,note_on,12,0,1,,,,,,,,0,,,73,92
45840,note_on,12,0,2,,,,,,,,1,,,73,72
45864,note_on,24,0,2,,,,,,,,1,,,73,0
45864,note_on,24,0,1,,,,,,,,0,,,73,0
45870,note_on,6,0,2,,,,,,,,1,,,74,72
45870,note_on,6,0,1,,,,,,,,0,,,74,92
45888,note_on,48,0,6,,,,,,,,5,,,49,0
45888,note_on,288,0,4,,,,,,,,3,,,49,0
45888,note_on,288,0,5,,,,,,,,4,,,37,0
45894,note_on,24,0,1,,,,,,,,0,,,74,0
45894,note_on,24,0,2,,,,,,,,1,,,74,0
45900,note_on,12,0,6,,,,,,,,5,,,61,92
45900,note_on,12,0,4,,,,,,,,3,,,61,92
45900,note_on,12,0,5,,,,,,,,4,,,49,92
45900,note_on,6,0,1,,,,,,,,0,,,73,92
45900,note_on,6,0,2,,,,,,,,1,,,73,72
45924,note_on,24,0,2,,,,,,,,1,,,73,0
45924,note_on,24,0,1,,,,,,,,0,,,73,0
45930,note_on,6,0,1,,,,,,,,0,,,74,92
45930,note_on,6,0,2,,,,,,,,1,,,74,72
45936,note_on,96,0,3,,,,,,,,2,,,66,0
45936,note_on,36,0,6,,,,,,,,5,,,61,0
45948,note_on,12,0,6,,,,,,,,5,,,61,0
45948,note_on,48,0,4,,,,,,,,3,,,61,0
45948,note_on,48,0,5,,,,,,,,4,,,49,0
45954,note_on,24,0,1,,,,,,,,0,,,74,0
45954,note_on,24,0,2,,,,,,,,1,,,74,0
45960,note_on,6,0,2,,,,,,,,1,,,73,72
45960,note_on,24,0,3,,,,,,,,2,,,66,92
45960,note_on,12,0,5,,,,,,,,4,,,50,92
45960,note_on,12,0,4,,,,,,,,3,,,62,92
45960,note_on,6,0,1,,,,,,,,0,,,73,92
45960,note_on,12,0,6,,,,,,,,5,,,62,92
45984,note_on,24,0,2,,,,,,,,1,,,73,0
45984,note_on,24,0,1,,,,,,,,0,,,73,0
45984,note_on,24,0,6,,,,,,,,5,,,69,0
45990,note_on,6,0,2,,,,,,,,1,,,74,72
45990,note_on,6,0,1,,,,,,,,0,,,74,92
46008,note_on,48,0,4,,,,,,,,3,,,62,0
46008,note_on,24,0,6,,,,,,,,5,,,62,0
46008,note_on,48,0,5,,,,,,,,4,,,50,0
46014,note_on,24,0,1,,,,,,,,0,,,74,0
46014,note_on,24,0,2,,,,,,,,1,,,74,0
46020,note_on,6,0,2,,,,,,,,1,,,73,72
46020,note_on,12,0,5,,,,,,,,4,,,49,92
46020,note_on,12,0,4,,,,,,,,3,,,61,92
46020,note_on,6,0,1,,,,,,,,0,,,73,92
46020,note_on,12,0,6,,,,,,,,5,,,61,92
46044,note_on,24,0,1,,,,,,,,0,,,73,0
46044,note_on,24,0,2,,,,,,,,1,,,73,0
46050,note_on,6,0,1,,,,,,,,0,,,74,92
46050,note_on,6,0,2,,,,,,,,1,,,74,72
46056,note_on,96,0,3,,,,,,,,2,,,66,0
46068,note_on,48,0,5,,,,,,,,4,,,49,0
46068,note_on,48,0,6,,,,,,,,5,,,61,0
46068,note_on,48,0,4,,,,,,,,3,,,61,0
46074,note_on,24,0,1,,,,,,,,0,,,74,0
46074,note_on,24,0,2,,,,,,,,1,,,74,0
46080,note_on,0,0,6,,,,,,,,5,,,54,92
46080,note_on,12,0,6,,,,,,,,5,,,69,92
46080,note_on,6,0,2,,,,,,,,1,,,81,72
46080,note_on,12,0,4,,,,,,,,3,,,54,92
46080,note_on,6,0,1,,,,,,,,0,,,81,92
46080,note_on,12,0,5,,,,,,,,4,,,42,92
46080,note_on,0,0,6,,,,,,,,5,,,61,92
46080,note_on,24,0,3,,,,,,,,2,,,61,92
46112,note_on,32,0,1,,,,,,,,0,,,81,0
46112,note_on,32,0,2,,,,,,,,1,,,81,0
46120,note_on,8,0,1,,,,,,,,0,,,78,92
46120,note_on,8,0,2,,,,,,,,1,,,78,72
46152,note_on,32,0,2,,,,,,,,1,,,78,0
46152,note_on,32,0,1,,,,,,,,0,,,78,0
46160,note_on,8,0,1,,,,,,,,0,,,80,92
46160,note_on,8,0,2,,,,,,,,1,,,80,72
46176,note_on,0,0,6,,,,,,,,5,,,69,0
46176,note_on,96,0,5,,,,,,,,4,,,42,0
46176,note_on,96,0,6,,,,,,,,5,,,54,0
46176,note_on,96,0,4,,,,,,,,3,,,54,0
46176,note_on,96,0,3,,,,,,,,2,,,61,0
46192,note_on,32,0,1,,,,,,,,0,,,80,0
46192,note_on,32,0,2,,,,,,,,1,,,80,0
46200,note_on,24,0,3,,,,,,,,2,,,61,92
46200,note_on,24,0,4,,,,,,,,3,,,56,92
46200,note_on,8,0,1,,,,,,,,0,,,81,92
46200,note_on,0,0,6,,,,,,,,5,,,56,92
46200,note_on,24,0,6,,,,,,,,5,,,71,92
46200,note_on,24,0,5,,,,,,,,4,,,44,92
46200,note_on,8,0,2,,,,,,,,1,,,81,72
46232,note_on,32,0,1,,,,,,,,0,,,81,0
46232,note_on,32,0,2,,,,,,,,1,,,81,0
46240,note_on,8,0,2,,,,,,,,1,,,80,72
46240,note_on,8,0,1,,,,,,,,0,,,80,92
46272,note_on,32,0,2,,,,,,,,1,,,80,0
46272,note_on,32,0,1,,,,,,,,0,,,80,0
46280,note_on,8,0,1,,,,,,,,0,,,78,92
46280,note_on,8,0,2,,,,,,,,1,,,78,72
46296,note_on,96,0,4,,,,,,,,3,,,56,0
46296,note_on,96,0,6,,,,,,,,5,,,56,0
46296,note_on,0,0,6,,,,,,,,5,,,71,0
46296,note_on,96,0,3,,,,,,,,2,,,61,0
46296,note_on,96,0,5,,,,,,,,4,,,44,0
46312,note_on,32,0,1,,,,,,,,0,,,78,0
46312,note_on,32,0,2,,,,,,,,1,,,78,0
46320,note_on,8,0,1,,,,,,,,0,,,69,92
46320,note_on,0,0,6,,,,,,,,5,,,57,92
46320,note_on,24,0,4,,,,,,,,3,,,57,92
46320,note_on,24,0,5,,,,,,,,4,,,45,92
46320,note_on,24,0,3,,,,,,,,2,,,61,92
46320,note_on,8,0,2,,,,,,,,1,,,69,72
46320,note_on,24,0,6,,,,,,,,5,,,73,92
46416,note_on,96,0,3,,,,,,,,2,,,61,0
46416,note_on,96,0,6,,,,,,,,5,,,57,0
46416,note_on,96,0,2,,,,,,,,1,,,69,0
46416,note_on,96,0,1,,,,,,,,0,,,69,0
46416,note_on,0,0,6,,,,,,,,5,,,73,0
46416,note_on,96,0,5,,,,,,,,4,,,45,0
46416,note_on,96,0,4,,,,,,,,3,,,57,0
46440,note_on,24,0,6,,,,,,,,5,,,69,92
46440,note_on,0,0,6,,,,,,,,5,,,54,92
46440,note_on,24,0,1,,,,,,,,0,,,78,92
46440,note_on,24,0,5,,,,,,,,4,,,42,92
46440,note_on,24,0,4,,,,,,,,3,,,54,92
46440,note_on,24,0,3,,,,,,,,2,,,61,92
46440,note_on,24,0,2,,,,,,,,1,,,78,72
46464,note_on,24,0,6,,,,,,,,5,,,61,0
46536,note_on,0,0,6,,,,,,,,5,,,69,0
46536,note_on,96,0,1,,,,,,,,0,,,78,0
46536,note_on,96,0,3,,,,,,,,2,,,61,0
46536,note_on,96,0,5,,,,,,,,4,,,42,0
46536,note_on,96,0,2,,,,,,,,1,,,78,0
46536,note_on,72,0,6,,,,,,,,5,,,54,0
46536,note_on,96,0,4,,,,,,,,3,,,54,0
46560,note_on,24,0,2,,,,,,,,1,,,71,72
46560,note_on,24,0,3,,,,,,,,2,,,59,92
46560,note_on,0,0,6,,,,,,,,5,,,71,92
46560,note_on,24,0,1,,,,,,,,0,,,71,92
46560,note_on,24,0,5,,,,,,,,4,,,44,92
46560,note_on,0,0,6,,,,,,,,5,,,59,92
46560,note_on,24,0,4,,,,,,,,3,,,56,92
46560,note_on,24,0,6,,,,,,,,5,,,56,92
46592,note_on,32,0,2,,,,,,,,1,,,71,0
46592,note_on,32,0,1,,,,,,,,0,,,71,0
46600,note_on,8,0,2,,,,,,,,1,,,78,72
46600,note_on,8,0,1,,,,,,,,0,,,78,92
46632,note_on,32,0,1,,,,,,,,0,,,78,0
46632,note_on,32,0,2,,,,,,,,1,,,78,0
46640,note_on,8,0,2,,,,,,,,1,,,80,72
46640,note_on,8,0,1,,,,,,,,0,,,80,92
46656,note_on,96,0,3,,,,,,,,2,,,59,0
46656,note_on,96,0,4,,,,,,,,3,,,56,0
46656,note_on,96,0,5,,,,,,,,4,,,44,0
46656,note_on,96,0,6,,,,,,,,5,,,59,0
46656,note_on,0,0,6,,,,,,,,5,,,71,0
46656,note_on,0,0,6,,,,,,,,5,,,56,0
46672,note_on,32,0,2,,,,,,,,1,,,80,0
46672,note_on,32,0,1,,,,,,,,0,,,80,0
46680,note_on,0,0,6,,,,,,,,5,,,69,92
46680,note_on,0,0,6,,,,,,,,5,,,61,92
46680,note_on,24,0,3,,,,,,,,2,,,61,92
46680,note_on,24,0,6,,,,,,,,5,,,54,92
46680,note_on,8,0,2,,,,,,,,1,,,81,72
46680,note_on,24,0,4,,,,,,,,3,,,54,92
46680,note_on,24,0,5,,,,,,,,4,,,42,92
46680,note_on,8,0,1,,,,,,,,0,,,81,92
46712,note_on,32,0,1,,,,,,,,0,,,81,0
46712,note_on,32,0,2,,,,,,,,1,,,81,0
46720,note_on,8,0,1,,,,,,,,0,,,80,92
46720,note_on,8,0,2,,,,,,,,1,,,80,72
46752,note_on,32,0,2,,,,,,,,1,,,80,0
46752,note_on,32,0,1,,,,,,,,0,,,80,0
46760,note_on,8,0,1,,,,,,,,0,,,78,92
46760,note_on,8,0,2,,,,,,,,1,,,78,72
46776,note_on,0,0,6,,,,,,,,5,,,69,0
46776,note_on,96,0,6,,,,,,,,5,,,61,0
46776,note_on,96,0,5,,,,,,,,4,,,42,0
46776,note_on,96,0,3,,,,,,,,2,,,61,0
46776,note_on,96,0,4,,,,,,,,3,,,54,0
46776,note_on,0,0,6,,,,,,,,5,,,54,0
46792,note_on,32,0,1,,,,,,,,0,,,78,0
46792,note_on,32,0,2,,,,,,,,1,,,78,0
46800,note_on,8,0,1,,,,,,,,0,,,73,92
46800,note_on,24,0,4,,,,,,,,3,,,49,92
46800,note_on,0,0,6,,,,,,,,5,,,65,92
46800,note_on,8,0,2,,,,,,,,1,,,73,72
46800,note_on,24,0,5,,,,,,,,4,,,37,92
46800,note_on,24,0,6,,,,,,,,5,,,49,92
46800,note_on,0,0,6,,,,,,,,5,,,68,92
46800,note_on,24,0,3,,,,,,,,2,,,61,92
46896,note_on,96,0,3,,,,,,,,2,,,61,0
46896,note_on,96,0,5,,,,,,,,4,,,37,0
46896,note_on,96,0,4,,,,,,,,3,,,49,0
46896,note_on,96,0,1,,,,,,,,0,,,73,0
46896,note_on,96,0,6,,,,,,,,5,,,49,0
46896,note_on,96,0,2,,,,,,,,1,,,73,0
46920,note_on,24,0,2,,,,,,,,1,,,77,72
46920,note_on,24,0,5,,,,,,,,4,,,49,92
46920,note_on,24,0,3,,,,,,,,2,,,61,92
46920,note_on,24,0,4,,,,,,,,3,,,61,92
46920,note_on,24,0,1,,,,,,,,0,,,77,92
46920,note_on,24,0,6,,,,,,,,5,,,61,92
46992,note_on,0,0,6,,,,,,,,5,,,68,0
46992,note_on,72,0,6,,,,,,,,5,,,65,0
47016,note_on,96,0,1,,,,,,,,0,,,77,0
47016,note_on,96,0,4,,,,,,,,3,,,61,0
47016,note_on,24,0,6,,,,,,,,5,,,61,0
47016,note_on,96,0,2,,,,,,,,1,,,77,0
47016,note_on,96,0,5,,,,,,,,4,,,49,0
47016,note_on,96,0,3,,,,,,,,2,,,61,0
47040,note_on,24,0,6,,,,,,,,5,,,69,105
47040,note_on,24,0,1,,,,,,,,0,,,78,105
47040,note_on,24,0,3,,,,,,,,2,,,57,92
47040,note_on,24,0,2,,,,,,,,1,,,78,72
47040,note_on,24,0,5,,,,,,,,4,,,42,105
47040,note_on,24,0,4,,,,,,,,3,,,54,92
47040,note_on,0,0,6,,,,,,,,5,,,66,105
47040,note_on,0,0,6,,,,,,,,5,,,54,105
47136,note_on,96,0,6,,,,,,,,5,,,66,0
47136,note_on,96,0,1,,,,,,,,0,,,78,0
47136,note_on,96,0,2,,,,,,,,1,,,78,0
47160,note_on,24,0,2,,,,,,,,1,,,85,105
47160,note_on,24,0,6,,,,,,,,5,,,61,105
47160,note_on,24,0,1,,,,,,,,0,,,85,105
47232,note_on,192,0,3,,,,,,,,2,,,57,0
47232,note_on,72,0,6,,,,,,,,5,,,54,0
47232,note_on,192,0,5,,,,,,,,4,,,42,0
47232,note_on,192,0,4,,,,,,,,3,,,54,0
47232,note_on,0,0,6,,,,,,,,5,,,69,0
47256,note_on,96,0,2,,,,,,,,1,,,85,0
47256,note_on,24,0,6,,,,,,,,5,,,61,0
47256,note_on,96,0,1,,,,,,,,0,,,85,0
47280,note_on,24,0,1,,,,,,,,0,,,85,105
47280,note_on,24,0,6,,,,,,,,5,,,61,105
47280,note_on,24,0,2,,,,,,,,1,,,85,105
47340,note_on,108,0,5,,,,,,,,4,,,42,105
47340,note_on,60,0,6,,,,,,,,5,,,54,105
47340,note_on,108,0,4,,,,,,,,3,,,54,105
47376,note_on,36,0,6,,,,,,,,5,,,61,0
47388,note_on,12,0,6,,,,,,,,5,,,54,0
47388,note_on,48,0,4,,,,,,,,3,,,54,0
47388,note_on,48,0,5,,,,,,,,4,,,42,0
47400,note_on,12,0,6,,,,,,,,5,,,69,105
47400,note_on,0,0,6,,,,,,,,5,,,53,105
47400,note_on,12,0,5,,,,,,,,4,,,41,105
47400,note_on,168,0,3,,,,,,,,2,,,69,105
47400,note_on,12,0,4,,,,,,,,3,,,53,105
47448,note_on,48,0,4,,,,,,,,3,,,53,0
47448,note_on,48,0,5,,,,,,,,4,,,41,0
47448,note_on,48,0,6,,,,,,,,5,,,53,0
47460,note_on,12,0,5,,,,,,,,4,,,42,105
47460,note_on,12,0,4,,,,,,,,3,,,54,105
47460,note_on,12,0,6,,,,,,,,5,,,54,105
47496,note_on,96,0,3,,,,,,,,2,,,69,0
47496,note_on,36,0,6,,,,,,,,5,,,69,0
47508,note_on,12,0,6,,,,,,,,5,,,54,0
47508,note_on,48,0,5,,,,,,,,4,,,42,0
47508,note_on,48,0,4,,,,,,,,3,,,54,0
47520,note_on,12,0,6,,,,,,,,5,,,42,105
47520,note_on,0,0,6,,,,,,,,5,,,78,105
47520,note_on,12,0,4,,,,,,,,3,,,42,105
47520,note_on,24,0,3,,,,,,,,2,,,66,105
47520,note_on,12,0,5,,,,,,,,4,,,30,105
47568,note_on,288,0,2,,,,,,,,1,,,85,0
47568,note_on,288,0,1,,,,,,,,0,,,85,0
47580,note_on,12,0,1,,,,,,,,0,,,83,105
47580,note_on,12,0,2,,,,,,,,1,,,83,105
47628,note_on,48,0,1,,,,,,,,0,,,83,0
47628,note_on,48,0,2,,,,,,,,1,,,83,0
47640,note_on,12,0,1,,,,,,,,0,,,81,105
47640,note_on,12,0,2,,,,,,,,1,,,81,105
47688,note_on,48,0,1,,,,,,,,0,,,81,0
47688,note_on,48,0,2,,,,,,,,1,,,81,0
47700,note_on,12,0,1,,,,,,,,0,,,80,105
47700,note_on,12,0,2,,,,,,,,1,,,80,105
47712,note_on,192,0,4,,,,,,,,3,,,42,0
47712,note_on,192,0,3,,,,,,,,2,,,66,0
47712,note_on,0,0,6,,,,,,,,5,,,42,0
47712,note_on,192,0,5,,,,,,,,4,,,30,0
47712,note_on,192,0,6,,,,,,,,5,,,78,0
47748,note_on,48,0,1,,,,,,,,0,,,80,0
47748,note_on,48,0,2,,,,,,,,1,,,80,0
47760,note_on,12,0,2,,,,,,,,1,,,78,105
47760,note_on,12,0,1,,,,,,,,0,,,78,105
47808,note_on,48,0,2,,,,,,,,1,,,78,0
47808,note_on,48,0,1,,,,,,,,0,,,78,0
47820,note_on,12,0,2,,,,,,,,1,,,76,105
47820,note_on,12,0,1,,,,,,,,0,,,76,105
47868,note_on,48,0,2,,,,,,,,1,,,76,0
47868,note_on,48,0,1,,,,,,,,0,,,76,0
47880,note_on,12,0,2,,,,,,,,1,,,74,105
47880,note_on,12,0,1,,,,,,,,0,,,74,105
47928,note_on,48,0,1,,,,,,,,0,,,74,0
47928,note_on,48,0,2,,,,,,,,1,,,74,0
47940,note_on,12,0,1,,,,,,,,0,,,73,105
47940,note_on,12,0,2,,,,,,,,1,,,73,105
47988,note_on,48,0,1,,,,,,,,0,,,73,0
47988,note_on,48,0,2,,,,,,,,1,,,73,0
48000,note_on,288,0,6,,,,,,,,5,,,66,105
48000,note_on,288,0,5,,,,,,,,4,,,35,105
48000,note_on,12,0,1,,,,,,,,0,,,74,105
48000,note_on,12,0,2,,,,,,,,1,,,74,105
48000,note_on,288,0,4,,,,,,,,3,,,47,105
48000,note_on,0,0,6,,,,,,,,5,,,47,105
48000,note_on,0,0,6,,,,,,,,5,,,62,105
48000,note_on,288,0,3,,,,,,,,2,,,66,105
48096,note_on,96,0,6,,,,,,,,5,,,62,0
48096,note_on,96,0,1,,,,,,,,0,,,74,0
48096,note_on,96,0,2,,,,,,,,1,,,74,0
48120,note_on,24,0,1,,,,,,,,0,,,83,105
48120,note_on,24,0,2,,,,,,,,1,,,83,105
48120,note_on,24,0,6,,,,,,,,5,,,59,105
48192,note_on,192,0,5,,,,,,,,4,,,35,0
48192,note_on,192,0,3,,,,,,,,2,,,66,0
48192,note_on,0,0,6,,,,,,,,5,,,66,0
48192,note_on,72,0,6,,,,,,,,5,,,47,0
48192,note_on,192,0,4,,,,,,,,3,,,47,0
48216,note_on,24,0,6,,,,,,,,5,,,59,0
48216,note_on,96,0,2,,,,,,,,1,,,83,0
48216,note_on,96,0,1,,,,,,,,0,,,83,0
48240,note_on,24,0,6,,,,,,,,5,,,59,105
48240,note_on,24,0,2,,,,,,,,1,,,83,105
48240,note_on,24,0,1,,,,,,,,0,,,83,105
48300,note_on,108,0,4,,,,,,,,3,,,64,105
48300,note_on,60,0,6,,,,,,,,5,,,64,105
48300,note_on,108,0,5,,,,,,,,4,,,52,105
48336,note_on,36,0,6,,,,,,,,5,,,59,0
48348,note_on,48,0,4,,,,,,,,3,,,64,0
48348,note_on,12,0,6,,,,,,,,5,,,64,0
48348,note_on,48,0,5,,,,,,,,4,,,52,0
48360,note_on,12,0,6,,,,,,,,5,,,71,105
48360,note_on,168,0,3,,,,,,,,2,,,71,105
48360,note_on,0,0,6,,,,,,,,5,,,62,105
48360,note_on,12,0,5,,,,,,,,4,,,50,105
48360,note_on,12,0,4,,,,,,,,3,,,62,105
48408,note_on,48,0,6,,,,,,,,5,,,62,0
48408,note_on,48,0,5,,,,,,,,4,,,50,0
48408,note_on,48,0,4,,,,,,,,3,,,62,0
48420,note_on,12,0,6,,,,,,,,5,,,64,105
48420,note_on,12,0,5,,,,,,,,4,,,52,105
48420,note_on,12,0,4,,,,,,,,3,,,64,105
48456,note_on,36,0,6,,,,,,,,5,,,71,0
48456,note_on,96,0,3,,,,,,,,2,,,71,0
48468,note_on,48,0,4,,,,,,,,3,,,64,0
48468,note_on,48,0,5,,,,,,,,4,,,52,0
48468,note_on,12,0,6,,,,,,,,5,,,64,0
48480,note_on,0,0,6,,,,,,,,5,,,80,105
48480,note_on,12,0,5,,,,,,,,4,,,40,105
48480,note_on,12,0,6,,,,,,,,5,,,52,105
48480,note_on,24,0,3,,,,,,,,2,,,68,105
48480,note_on,12,0,4,,,,,,,,3,,,52,105
48528,note_on,288,0,2,,,,,,,,1,,,83,0
48528,note_on,288,0,1,,,,,,,,0,,,83,0
48540,note_on,12,0,2,,,,,,,,1,,,81,105
48540,note_on,12,0,1,,,,,,,,0,,,81,105
48588,note_on,48,0,1,,,,,,,,0,,,81,0
48588,note_on,48,0,2,,,,,,,,1,,,81,0
48600,note_on,12,0,2,,,,,,,,1,,,80,105
48600,note_on,12,0,1,,,,,,,,0,,,80,105
48648,note_on,48,0,1,,,,,,,,0,,,80,0
48648,note_on,48,0,2,,,,,,,,1,,,80,0
48660,note_on,12,0,1,,,,,,,,0,,,78,105
48660,note_on,12,0,2,,,,,,,,1,,,78,105
48672,note_on,192,0,6,,,,,,,,5,,,80,0
48672,note_on,192,0,3,,,,,,,,2,,,68,0
48672,note_on,0,0,6,,,,,,,,5,,,52,0
48672,note_on,192,0,5,,,,,,,,4,,,40,0
48672,note_on,192,0,4,,,,,,,,3,,,52,0
48708,note_on,48,0,1,,,,,,,,0,,,78,0
48708,note_on,48,0,2,,,,,,,,1,,,78,0
48720,note_on,12,0,1,,,,,,,,0,,,76,105
48720,note_on,12,0,2,,,,,,,,1,,,76,105
48768,note_on,48,0,2,,,,,,,,1,,,76,0
48768,note_on,48,0,1,,,,,,,,0,,,76,0
48780,note_on,12,0,2,,,,,,,,1,,,74,105
48780,note_on,12,0,1,,,,,,,,0,,,74,105
48828,note_on,48,0,1,,,,,,,,0,,,74,0
48828,note_on,48,0,2,,,,,,,,1,,,74,0
48840,note_on,12,0,1,,,,,,,,0,,,73,105
48840,note_on,12,0,2,,,,,,,,1,,,73,105
48888,note_on,48,0,1,,,,,,,,0,,,73,0
48888,note_on,48,0,2,,,,,,,,1,,,73,0
48900,note_on,12,0,2,,,,,,,,1,,,71,105
48900,note_on,12,0,1,,,,,,,,0,,,71,105
48948,note_on,48,0,2,,,,,,,,1,,,71,0
48948,note_on,48,0,1,,,,,,,,0,,,71,0
48960,note_on,12,0,1,,,,,,,,0,,,73,105
48960,note_on,288,0,3,,,,,,,,2,,,64,105
48960,note_on,288,0,6,,,,,,,,5,,,69,105
48960,note_on,0,0,6,,,,,,,,5,,,61,105
48960,note_on,0,0,2,,,,,,,,1,,,69,105
48960,control_change,0,0,2,,,,,,,,1,0,0,,
48960,control_change,12,0,2,,,,,,,,1,91,69,,
48960,note_on,0,0,6,,,,,,,,5,,,45,105
48960,note_on,288,0,5,,,,,,,,4,,,33,105
48960,note_on,288,0,4,,,,,,,,3,,,45,105
49056,note_on,96,0,1,,,,,,,,0,,,73,0
49056,note_on,96,0,6,,,,,,,,5,,,61,0
49080,note_on,24,0,6,,,,,,,,5,,,57,105
49080,note_on,24,0,1,,,,,,,,0,,,81,105
49152,note_on,192,0,4,,,,,,,,3,,,45,0
49152,note_on,192,0,2,,,,,,,,1,,,69,0
49152,note_on,0,0,6,,,,,,,,5,,,69,0
49152,note_on,72,0,6,,,,,,,,5,,,45,0
49152,note_on,192,0,5,,,,,,,,4,,,33,0
49152,note_on,192,0,3,,,,,,,,2,,,64,0
49176,note_on,24,0,6,,,,,,,,5,,,57,0
49176,note_on,96,0,1,,,,,,,,0,,,81,0
49200,note_on,24,0,1,,,,,,,,0,,,81,105
49200,note_on,24,0,6,,,,,,,,5,,,57,105
49260,note_on,108,0,4,,,,,,,,3,,,57,105
49260,note_on,60,0,6,,,,,,,,5,,,57,105
49260,note_on,108,0,5,,,,,,,,4,,,45,105
49296,note_on,36,0,6,,,,,,,,5,,,57,0
49308,note_on,48,0,4,,,,,,,,3,,,57,0
49308,note_on,48,0,5,,,,,,,,4,,,45,0
49308,note_on,12,0,6,,,,,,,,5,,,57,0
49320,note_on,12,0,4,,,,,,,,3,,,56,105
49320,note_on,12,0,5,,,,,,,,4,,,44,105
49320,note_on,168,0,3,,,,,,,,2,,,64,105
49320,note_on,12,0,6,,,,,,,,5,,,56,105
49368,note_on,48,0,5,,,,,,,,4,,,44,0
49368,note_on,48,0,6,,,,,,,,5,,,56,0
49368,note_on,48,0,4,,,,,,,,3,,,56,0
49380,note_on,12,0,5,,,,,,,,4,,,45,105
49380,note_on,12,0,6,,,,,,,,5,,,57,105
49380,note_on,12,0,4,,,,,,,,3,,,57,105
49416,note_on,96,0,3,,,,,,,,2,,,64,0
49428,note_on,48,0,5,,,,,,,,4,,,45,0
49428,note_on,48,0,4,,,,,,,,3,,,57,0
49428,note_on,48,0,6,,,,,,,,5,,,57,0
49440,note_on,12,0,5,,,,,,,,4,,,33,105
49440,note_on,24,0,3,,,,,,,,2,,,61,105
49440,note_on,12,0,6,,,,,,,,5,,,45,105
49440,note_on,12,0,4,,,,,,,,3,,,45,105
49536,note_on,336,0,1,,,,,,,,0,,,81,0
49560,note_on,120,0,6,,,,,,,,5,,,64,105
49560,note_on,24,0,1,,,,,,,,0,,,80,105
49608,note_on,48,0,1,,,,,,,,0,,,80,0
49620,note_on,12,0,1,,,,,,,,0,,,78,105
49632,note_on,192,0,5,,,,,,,,4,,,33,0
49632,note_on,72,0,6,,,,,,,,5,,,45,0
49632,note_on,192,0,3,,,,,,,,2,,,61,0
49632,note_on,192,0,4,,,,,,,,3,,,45,0
49656,note_on,24,0,6,,,,,,,,5,,,64,0
49668,note_on,48,0,1,,,,,,,,0,,,78,0
49680,note_on,12,0,1,,,,,,,,0,,,76,105
49680,note_on,24,0,6,,,,,,,,5,,,68,105
49776,note_on,96,0,1,,,,,,,,0,,,76,0
49776,note_on,96,0,6,,,,,,,,5,,,68,0
49800,note_on,168,0,3,,,,,,,,2,,,71,105
49800,note_on,0,0,6,,,,,,,,5,,,71,105
49800,note_on,0,0,6,,,,,,,,5,,,64,105
49800,note_on,24,0,6,,,,,,,,5,,,56,105
49800,note_on,168,0,4,,,,,,,,3,,,56,105
49800,note_on,24,0,1,,,,,,,,0,,,74,105
49800,note_on,168,0,5,,,,,,,,4,,,44,105
49896,note_on,96,0,3,,,,,,,,2,,,71,0
49896,note_on,0,0,6,,,,,,,,5,,,64,0
49896,note_on,96,0,1,,,,,,,,0,,,74,0
49896,note_on,0,0,6,,,,,,,,5,,,56,0
49896,note_on,96,0,6,,,,,,,,5,,,71,0
49896,note_on,96,0,4,,,,,,,,3,,,56,0
49896,note_on,96,0,5,,,,,,,,4,,,44,0
49920,note_on,24,0,1,,,,,,,,0,,,73,105
49920,note_on,24,0,4,,,,,,,,3,,,45,105
49920,note_on,24,0,3,,,,,,,,2,,,61,105
49920,note_on,24,0,5,,,,,,,,4,,,33,105
49920,note_on,24,0,6,,,,,,,,5,,,45,105
49920,note_on,0,0,6,,,,,,,,5,,,69,105
49920,note_on,0,0,6,,,,,,,,5,,,73,105
50016,note_on,96,0,1,,,,,,,,0,,,73,0
50016,note_on,96,0,6,,,,,,,,5,,,69,0
50040,note_on,24,0,1,,,,,,,,0,,,78,105
50040,note_on,24,0,6,,,,,,,,5,,,61,105
50040,note_on,888,0,2,,,,,,,,1,,,81,105
50112,note_on,0,0,6,,,,,,,,5,,,45,0
50112,note_on,192,0,5,,,,,,,,4,,,33,0
50112,note_on,72,0,6,,,,,,,,5,,,73,0
50112,note_on,192,0,4,,,,,,,,3,,,45,0
50112,note_on,192,0,3,,,,,,,,2,,,61,0
50136,note_on,24,0,6,,,,,,,,5,,,61,0
50136,note_on,96,0,2,,,,,,,,1,,,81,0
50136,note_on,96,0,1,,,,,,,,0,,,78,0
50160,note_on,24,0,6,,,,,,,,5,,,66,105
50160,note_on,24,0,1,,,,,,,,0,,,78,105
50160,note_on,24,0,2,,,,,,,,1,,,81,105
50220,note_on,60,0,6,,,,,,,,5,,,57,105
50220,note_on,108,0,5,,,,,,,,4,,,45,105
50220,note_on,108,0,4,,,,,,,,3,,,57,105
50268,note_on,48,0,6,,,,,,,,5,,,57,0
50268,note_on,48,0,4,,,,,,,,3,,,57,0
50268,note_on,48,0,5,,,,,,,,4,,,45,0
50280,note_on,12,0,4,,,,,,,,3,,,56,105
50280,note_on,12,0,5,,,,,,,,4,,,44,105
50280,note_on,12,0,6,,,,,,,,5,,,56,105
50280,note_on,168,0,3,,,,,,,,2,,,73,105
50328,note_on,48,0,4,,,,,,,,3,,,56,0
50328,note_on,48,0,6,,,,,,,,5,,,56,0
50328,note_on,48,0,5,,,,,,,,4,,,44,0
50340,note_on,12,0,6,,,,,,,,5,,,57,105
50340,note_on,12,0,5,,,,,,,,4,,,45,105
50340,note_on,12,0,4,,,,,,,,3,,,57,105
50352,note_on,12,0,6,,,,,,,,5,,,66,0
50376,note_on,96,0,3,,,,,,,,2,,,73,0
50388,note_on,48,0,4,,,,,,,,3,,,57,0
50388,note_on,36,0,6,,,,,,,,5,,,57,0
50388,note_on,48,0,5,,,,,,,,4,,,45,0
50400,note_on,12,0,4,,,,,,,,3,,,50,105
50400,note_on,12,0,5,,,,,,,,4,,,38,105
50400,note_on,12,0,6,,,,,,,,5,,,50,105
50400,note_on,24,0,3,,,,,,,,2,,,69,105
50496,note_on,336,0,2,,,,,,,,1,,,81,0
50496,note_on,336,0,1,,,,,,,,0,,,78,0
50520,note_on,24,0,2,,,,,,,,1,,,80,105
50520,note_on,120,0,6,,,,,,,,5,,,74,105
50520,note_on,24,0,1,,,,,,,,0,,,76,105
50568,note_on,48,0,1,,,,,,,,0,,,76,0
50568,note_on,48,0,2,,,,,,,,1,,,80,0
50580,note_on,12,0,1,,,,,,,,0,,,74,105
50580,note_on,12,0,2,,,,,,,,1,,,78,105
50592,note_on,192,0,4,,,,,,,,3,,,50,0
50592,note_on,72,0,6,,,,,,,,5,,,50,0
50592,note_on,192,0,3,,,,,,,,2,,,69,0
50592,note_on,192,0,5,,,,,,,,4,,,38,0
50616,note_on,24,0,6,,,,,,,,5,,,74,0
50628,note_on,48,0,1,,,,,,,,0,,,74,0
50628,note_on,48,0,2,,,,,,,,1,,,78,0
50640,note_on,24,0,6,,,,,,,,5,,,64,105
50640,note_on,12,0,1,,,,,,,,0,,,73,105
50640,note_on,12,0,2,,,,,,,,1,,,76,105
50736,note_on,96,0,6,,,,,,,,5,,,64,0
50736,note_on,96,0,1,,,,,,,,0,,,73,0
50736,note_on,96,0,2,,,,,,,,1,,,76,0
50760,note_on,0,0,6,,,,,,,,5,,,68,105
50760,note_on,168,0,4,,,,,,,,3,,,52,105
50760,note_on,0,0,6,,,,,,,,5,,,59,105
50760,note_on,168,0,3,,,,,,,,2,,,68,105
50760,note_on,24,0,1,,,,,,,,0,,,71,105
50760,note_on,24,0,6,,,,,,,,5,,,52,105
50760,note_on,24,0,2,,,,,,,,1,,,74,105
50760,note_on,168,0,5,,,,,,,,4,,,40,105
50856,note_on,96,0,4,,,,,,,,3,,,52,0
50856,note_on,0,0,6,,,,,,,,5,,,52,0
50856,note_on,96,0,3,,,,,,,,2,,,68,0
50856,note_on,96,0,5,,,,,,,,4,,,40,0
50856,note_on,96,0,1,,,,,,,,0,,,71,0
50856,note_on,96,0,6,,,,,,,,5,,,59,0
50856,note_on,96,0,2,,,,,,,,1,,,74,0
50856,note_on,0,0,6,,,,,,,,5,,,68,0
50880,note_on,0,0,6,,,,,,,,5,,,61,105
50880,note_on,0,0,6,,,,,,,,5,,,45,105
50880,note_on,24,0,6,,,,,,,,5,,,69,105
50880,note_on,24,0,5,,,,,,,,4,,,33,105
50880,note_on,24,0,4,,,,,,,,3,,,45,105
50880,note_on,24,0,3,,,,,,,,2,,,64,105
50880,note_on,24,0,1,,,,,,,,0,,,69,105
50880,note_on,24,0,2,,,,,,,,1,,,73,105
50976,note_on,96,0,2,,,,,,,,1,,,73,0
50976,note_on,96,0,6,,,,,,,,5,,,69,0
50976,note_on,96,0,1,,,,,,,,0,,,69,0
51000,note_on,24,0,6,,,,,,,,5,,,78,105
51000,note_on,24,0,2,,,,,,,,1,,,78,105
51000,note_on,24,0,1,,,,,,,,0,,,81,105
51072,note_on,192,0,3,,,,,,,,2,,,64,0
51072,note_on,192,0,5,,,,,,,,4,,,33,0
51072,note_on,72,0,6,,,,,,,,5,,,61,0
51072,note_on,0,0,6,,,,,,,,5,,,45,0
51072,note_on,192,0,4,,,,,,,,3,,,45,0
51096,note_on,24,0,6,,,,,,,,5,,,78,0
51096,note_on,96,0,2,,,,,,,,1,,,78,0
51096,note_on,96,0,1,,,,,,,,0,,,81,0
51120,note_on,24,0,6,,,,,,,,5,,,74,105
51120,note_on,24,0,1,,,,,,,,0,,,74,105
51120,note_on,0,0,6,,,,,,,,5,,,66,105
51120,note_on,24,0,2,,,,,,,,1,,,78,105
51180,note_on,108,0,4,,,,,,,,3,,,62,105
51180,note_on,108,0,5,,,,,,,,4,,,50,105
51180,note_on,60,0,6,,,,,,,,5,,,62,105
51228,note_on,48,0,5,,,,,,,,4,,,50,0
51228,note_on,48,0,4,,,,,,,,3,,,62,0
51228,note_on,48,0,6,,,,,,,,5,,,62,0
51240,note_on,12,0,6,,,,,,,,5,,,64,105
51240,note_on,12,0,4,,,,,,,,3,,,61,105
51240,note_on,168,0,3,,,,,,,,2,,,69,105
51240,note_on,12,0,5,,,,,,,,4,,,49,105
51288,note_on,48,0,4,,,,,,,,3,,,61,0
51288,note_on,48,0,6,,,,,,,,5,,,64,0
51288,note_on,48,0,5,,,,,,,,4,,,49,0
51300,note_on,12,0,5,,,,,,,,4,,,50,105
51300,note_on,12,0,4,,,,,,,,3,,,62,105
51300,note_on,12,0,6,,,,,,,,5,,,62,105
51312,note_on,12,0,6,,,,,,,,5,,,66,0
51312,note_on,0,0,6,,,,,,,,5,,,74,0
51336,note_on,96,0,3,,,,,,,,2,,,69,0
51348,note_on,36,0,6,,,,,,,,5,,,62,0
51348,note_on,48,0,5,,,,,,,,4,,,50,0
51348,note_on,48,0,4,,,,,,,,3,,,62,0
51360,note_on,24,0,3,,,,,,,,2,,,71,105
51360,note_on,0,0,6,,,,,,,,5,,,71,105
51360,note_on,12,0,6,,,,,,,,5,,,56,105
51360,note_on,12,0,5,,,,,,,,4,,,44,105
51360,note_on,12,0,4,,,,,,,,3,,,56,105
51456,note_on,336,0,1,,,,,,,,0,,,74,0
51456,note_on,336,0,2,,,,,,,,1,,,78,0
51456,note_on,96,0,6,,,,,,,,5,,,71,0
51480,note_on,24,0,1,,,,,,,,0,,,83,105
51480,note_on,24,0,2,,,,,,,,1,,,76,105
51480,note_on,24,0,6,,,,,,,,5,,,76,105
51528,note_on,48,0,2,,,,,,,,1,,,76,0
51540,note_on,12,0,2,,,,,,,,1,,,74,105
51552,note_on,72,0,6,,,,,,,,5,,,56,0
51552,note_on,192,0,3,,,,,,,,2,,,71,0
51552,note_on,192,0,5,,,,,,,,4,,,44,0
51552,note_on,192,0,4,,,,,,,,3,,,56,0
51576,note_on,96,0,1,,,,,,,,0,,,83,0
51588,note_on,48,0,2,,,,,,,,1,,,74,0
51600,note_on,12,0,2,,,,,,,,1,,,73,105
51600,note_on,48,0,6,,,,,,,,5,,,64,105
51600,note_on,24,0,1,,,,,,,,0,,,76,105
51672,note_on,72,0,6,,,,,,,,5,,,76,0
51696,note_on,96,0,1,,,,,,,,0,,,76,0
51696,note_on,96,0,2,,,,,,,,1,,,73,0
51720,note_on,0,0,6,,,,,,,,5,,,74,105
51720,note_on,24,0,1,,,,,,,,0,,,74,105
51720,note_on,168,0,5,,,,,,,,4,,,40,105
51720,note_on,168,0,3,,,,,,,,2,,,68,105
51720,note_on,168,0,4,,,,,,,,3,,,52,105
51720,note_on,48,0,6,,,,,,,,5,,,52,105
51720,note_on,24,0,2,,,,,,,,1,,,71,105
51792,note_on,72,0,6,,,,,,,,5,,,64,0
51816,note_on,96,0,1,,,,,,,,0,,,74,0
51816,note_on,96,0,4,,,,,,,,3,,,52,0
51816,note_on,24,0,6,,,,,,,,5,,,74,0
51816,note_on,96,0,3,,,,,,,,2,,,68,0
51816,note_on,0,0,6,,,,,,,,5,,,52,0
51816,note_on,96,0,2,,,,,,,,1,,,71,0
51816,note_on,96,0,5,,,,,,,,4,,,40,0
51840,note_on,24,0,4,,,,,,,,3,,,57,105
51840,note_on,24,0,6,,,,,,,,5,,,73,105
51840,note_on,24,0,2,,,,,,,,1,,,69,105
51840,note_on,24,0,1,,,,,,,,0,,,73,105
51840,note_on,24,0,5,,,,,,,,4,,,45,105
51840,note_on,0,0,6,,,,,,,,5,,,69,105
51840,note_on,0,0,6,,,,,,,,5,,,57,105
51840,note_on,24,0,3,,,,,,,,2,,,64,105
51888,note_on,48,0,1,,,,,,,,0,,,73,0
51900,note_on,12,0,1,,,,,,,,0,,,69,105
51936,note_on,96,0,6,,,,,,,,5,,,57,0
51936,note_on,96,0,5,,,,,,,,4,,,45,0
51936,note_on,96,0,3,,,,,,,,2,,,64,0
51936,note_on,96,0,4,,,,,,,,3,,,57,0
51948,note_on,48,0,1,,,,,,,,0,,,69,0
51960,note_on,24,0,4,,,,,,,,3,,,45,105
51960,note_on,24,0,6,,,,,,,,5,,,45,105
51960,note_on,12,0,1,,,,,,,,0,,,71,105
51960,note_on,24,0,3,,,,,,,,2,,,61,105
51960,note_on,24,0,5,,,,,,,,4,,,33,105
52008,note_on,48,0,1,,,,,,,,0,,,71,0
52020,note_on,12,0,1,,,,,,,,0,,,73,105
52032,note_on,0,0,6,,,,,,,,5,,,64,0
52032,note_on,0,0,6,,,,,,,,5,,,64,64
52032,note_on,192,0,2,,,,,,,,1,,,69,0
52032,note_on,72,0,6,,,,,,,,5,,,69,0
52032,note_on,0,0,6,,,,,,,,5,,,73,0
52056,note_on,96,0,5,,,,,,,,4,,,33,0
52056,note_on,24,0,6,,,,,,,,5,,,45,0
52056,note_on,96,0,3,,,,,,,,2,,,61,0
52056,note_on,96,0,4,,,,,,,,3,,,45,0
52068,note_on,48,0,1,,,,,,,,0,,,73,0
52080,note_on,12,0,1,,,,,,,,0,,,74,105
52128,note_on,48,0,1,,,,,,,,0,,,74,0
52140,note_on,12,0,1,,,,,,,,0,,,76,105
52188,note_on,48,0,1,,,,,,,,0,,,76,0
52200,note_on,144,0,3,,,,,,,,2,,,68,105
52200,note_on,144,0,5,,,,,,,,4,,,40,105
52200,note_on,12,0,1,,,,,,,,0,,,78,105
52200,note_on,144,0,4,,,,,,,,3,,,52,105
52200,note_on,144,0,6,,,,,,,,5,,,52,105
52200,note_on,0,0,6,,,,,,,,5,,,71,105
52200,note_on,0,0,6,,,,,,,,5,,,68,105
52200,note_on,0,0,6,,,,,,,,5,,,64,105
52248,note_on,48,0,1,,,,,,,,0,,,78,0
52260,note_on,12,0,1,,,,,,,,0,,,80,105
52296,note_on,96,0,5,,,,,,,,4,,,40,0
52296,note_on,96,0,4,,,,,,,,3,,,52,0
52296,note_on,0,0,6,,,,,,,,5,,,71,0
52296,note_on,96,0,3,,,,,,,,2,,,68,0
52296,note_on,96,0,6,,,,,,,,5,,,64,0
52296,note_on,0,0,6,,,,,,,,5,,,52,0
52296,note_on,0,0,6,,,,,,,,5,,,68,0
52308,note_on,48,0,1,,,,,,,,0,,,80,0
52320,note_on,24,0,6,,,,,,,,5,,,57,105
52320,note_on,24,0,5,,,,,,,,4,,,45,105
52320,note_on,0,0,6,,,,,,,,5,,,64,105
52320,note_on,12,0,1,,,,,,,,0,,,81,105
52320,note_on,0,0,6,,,,,,,,5,,,69,105
52320,note_on,24,0,3,,,,,,,,2,,,64,105
52320,note_on,24,0,4,,,,,,,,3,,,57,105
52380,note_on,348,0,2,,,,,,,,1,,,69,105
52416,note_on,96,0,5,,,,,,,,4,,,45,0
52416,note_on,96,0,3,,,,,,,,2,,,64,0
52416,note_on,96,0,4,,,,,,,,3,,,57,0
52416,note_on,96,0,6,,,,,,,,5,,,57,0
52428,note_on,48,0,2,,,,,,,,1,,,69,0
52440,note_on,24,0,6,,,,,,,,5,,,45,105
52440,note_on,24,0,5,,,,,,,,4,,,33,105
52440,note_on,24,0,4,,,,,,,,3,,,45,105
52440,note_on,12,0,2,,,,,,,,1,,,71,105
52440,note_on,24,0,3,,,,,,,,2,,,61,105
52488,note_on,48,0,2,,,,,,,,1,,,71,0
52500,note_on,12,0,2,,,,,,,,1,,,73,105
52512,note_on,0,0,6,,,,,,,,5,,,69,0
52512,note_on,72,0,6,,,,,,,,5,,,64,0
52512,note_on,192,0,1,,,,,,,,0,,,81,0
52536,note_on,96,0,3,,,,,,,,2,,,61,0
52536,note_on,24,0,6,,,,,,,,5,,,45,0
52536,note_on,96,0,4,,,,,,,,3,,,45,0
52536,note_on,96,0,5,,,,,,,,4,,,33,0
52548,note_on,48,0,2,,,,,,,,1,,,73,0
52560,note_on,48,0,1,,,,,,,,0,,,74,92
52560,note_on,12,0,2,,,,,,,,1,,,74,105
52608,note_on,48,0,2,,,,,,,,1,,,74,0
52620,note_on,12,0,2,,,,,,,,1,,,76,105
52668,note_on,48,0,2,,,,,,,,1,,,76,0
52680,note_on,0,0,6,,,,,,,,5,,,74,105
52680,note_on,144,0,3,,,,,,,,2,,,68,105
52680,note_on,12,0,2,,,,,,,,1,,,78,105
52680,note_on,0,0,6,,,,,,,,5,,,71,105
52680,note_on,0,0,6,,,,,,,,5,,,52,105
52680,note_on,144,0,4,,,,,,,,3,,,52,105
52680,note_on,144,0,6,,,,,,,,5,,,64,105
52680,note_on,144,0,5,,,,,,,,4,,,40,105
52728,note_on,48,0,2,,,,,,,,1,,,78,0
52740,note_on,12,0,2,,,,,,,,1,,,80,105
52752,note_on,192,0,1,,,,,,,,0,,,74,0
52776,note_on,0,0,6,,,,,,,,5,,,71,0
52776,note_on,96,0,3,,,,,,,,2,,,68,0
52776,note_on,0,0,6,,,,,,,,5,,,74,0
52776,note_on,96,0,5,,,,,,,,4,,,40,0
52776,note_on,0,0,6,,,,,,,,5,,,64,0
52776,note_on,96,0,6,,,,,,,,5,,,52,0
52776,note_on,96,0,4,,,,,,,,3,,,52,0
52788,note_on,48,0,2,,,,,,,,1,,,80,0
52800,note_on,24,0,4,,,,,,,,3,,,57,105
52800,note_on,0,0,6,,,,,,,,5,,,73,105
52800,note_on,0,0,6,,,,,,,,5,,,69,105
52800,note_on,24,0,5,,,,,,,,4,,,45,105
52800,note_on,24,0,3,,,,,,,,2,,,64,105
52800,note_on,12,0,2,,,,,,,,1,,,81,105
52800,note_on,0,0,6,,,,,,,,5,,,64,105
52800,note_on,24,0,6,,,,,,,,5,,,57,105
52800,note_on,48,0,1,,,,,,,,0,,,73,92
52848,note_on,48,0,1,,,,,,,,0,,,73,0
52860,note_on,12,0,1,,,,,,,,0,,,69,92
52896,note_on,96,0,3,,,,,,,,2,,,64,0
52896,note_on,96,0,4,,,,,,,,3,,,57,0
52896,note_on,96,0,5,,,,,,,,4,,,45,0
52896,note_on,96,0,6,,,,,,,,5,,,57,0
52908,note_on,48,0,1,,,,,,,,0,,,69,0
52920,note_on,24,0,6,,,,,,,,5,,,45,105
52920,note_on,24,0,5,,,,,,,,4,,,33,105
52920,note_on,12,0,1,,,,,,,,0,,,71,92
52920,note_on,24,0,4,,,,,,,,3,,,45,105
52920,note_on,24,0,3,,,,,,,,2,,,61,105
52968,note_on,48,0,1,,,,,,,,0,,,71,0
52980,note_on,12,0,1,,,,,,,,0,,,73,92
52992,note_on,192,0,2,,,,,,,,1,,,81,0
52992,note_on,0,0,6,,,,,,,,5,,,73,0
52992,note_on,0,0,6,,,,,,,,5,,,69,0
52992,note_on,72,0,6,,,,,,,,5,,,64,0
53016,note_on,24,0,6,,,,,,,,5,,,45,0
53016,note_on,96,0,4,,,,,,,,3,,,45,0
53016,note_on,96,0,3,,,,,,,,2,,,61,0
53016,note_on,96,0,5,,,,,,,,4,,,33,0
53028,note_on,48,0,1,,,,,,,,0,,,73,0
53040,note_on,12,0,1,,,,,,,,0,,,74,92
53040,note_on,48,0,2,,,,,,,,1,,,74,105
53088,note_on,48,0,1,,,,,,,,0,,,74,0
53100,note_on,12,0,1,,,,,,,,0,,,76,92
53148,note_on,48,0,1,,,,,,,,0,,,76,0
53160,note_on,144,0,5,,,,,,,,4,,,40,105
53160,note_on,12,0,1,,,,,,,,0,,,78,92
53160,note_on,144,0,3,,,,,,,,2,,,68,92
53160,note_on,0,0,6,,,,,,,,5,,,64,105
53160,note_on,0,0,6,,,,,,,,5,,,71,105
53160,note_on,144,0,6,,,,,,,,5,,,52,105
53160,note_on,144,0,4,,,,,,,,3,,,52,105
53160,note_on,0,0,6,,,,,,,,5,,,68,105
53208,note_on,48,0,1,,,,,,,,0,,,78,0
53220,note_on,12,0,1,,,,,,,,0,,,80,92
53232,note_on,192,0,2,,,,,,,,1,,,74,0
53256,note_on,96,0,3,,,,,,,,2,,,68,0
53256,note_on,96,0,4,,,,,,,,3,,,52,0
53256,note_on,0,0,6,,,,,,,,5,,,52,0
53256,note_on,0,0,6,,,,,,,,5,,,68,0
53256,note_on,0,0,6,,,,,,,,5,,,64,0
53256,note_on,96,0,6,,,,,,,,5,,,71,0
53256,note_on,96,0,5,,,,,,,,4,,,40,0
53268,note_on,48,0,1,,,,,,,,0,,,80,0
53280,note_on,12,0,1,,,,,,,,0,,,81,92
53280,note_on,0,0,6,,,,,,,,5,,,61,105
53280,note_on,0,0,6,,,,,,,,5,,,64,105
53280,note_on,24,0,3,,,,,,,,2,,,64,105
53280,note_on,24,0,4,,,,,,,,3,,,57,105
53280,note_on,24,0,6,,,,,,,,5,,,57,105
53280,note_on,48,0,2,,,,,,,,1,,,73,105
53280,note_on,24,0,5,,,,,,,,4,,,45,105
53280,note_on,0,0,6,,,,,,,,5,,,73,105
53328,note_on,48,0,2,,,,,,,,1,,,73,0
53340,note_on,12,0,2,,,,,,,,1,,,69,105
53376,note_on,96,0,5,,,,,,,,4,,,45,0
53376,note_on,96,0,6,,,,,,,,5,,,57,0
53376,note_on,96,0,4,,,,,,,,3,,,57,0
53376,note_on,96,0,3,,,,,,,,2,,,64,0
53388,note_on,48,0,2,,,,,,,,1,,,69,0
53400,note_on,24,0,6,,,,,,,,5,,,45,105
53400,note_on,24,0,5,,,,,,,,4,,,33,105
53400,note_on,24,0,4,,,,,,,,3,,,45,105
53400,note_on,24,0,3,,,,,,,,2,,,61,105
53400,note_on,12,0,2,,,,,,,,1,,,71,105
53448,note_on,48,0,2,,,,,,,,1,,,71,0
53460,note_on,12,0,2,,,,,,,,1,,,73,105
53472,note_on,0,0,6,,,,,,,,5,,,61,0
53472,note_on,72,0,6,,,,,,,,5,,,64,0
53472,note_on,0,0,6,,,,,,,,5,,,73,0
53472,note_on,192,0,1,,,,,,,,0,,,81,0
53496,note_on,96,0,5,,,,,,,,4,,,33,0
53496,note_on,24,0,6,,,,,,,,5,,,45,0
53496,note_on,96,0,3,,,,,,,,2,,,61,0
53496,note_on,96,0,4,,,,,,,,3,,,45,0
53508,note_on,48,0,2,,,,,,,,1,,,73,0
53520,note_on,48,0,1,,,,,,,,0,,,74,92
53520,note_on,12,0,2,,,,,,,,1,,,74,105
53568,note_on,48,0,2,,,,,,,,1,,,74,0
53580,note_on,12,0,2,,,,,,,,1,,,76,105
53628,note_on,48,0,2,,,,,,,,1,,,76,0
53640,note_on,144,0,5,,,,,,,,4,,,40,105
53640,note_on,0,0,6,,,,,,,,5,,,74,105
53640,note_on,0,0,6,,,,,,,,5,,,71,105
53640,note_on,0,0,6,,,,,,,,5,,,64,105
53640,note_on,144,0,6,,,,,,,,5,,,52,105
53640,note_on,12,0,2,,,,,,,,1,,,78,105
53640,note_on,144,0,3,,,,,,,,2,,,68,105
53640,note_on,144,0,4,,,,,,,,3,,,52,105
53688,note_on,48,0,2,,,,,,,,1,,,78,0
53700,note_on,12,0,2,,,,,,,,1,,,80,105
53712,note_on,192,0,1,,,,,,,,0,,,74,0
53736,note_on,0,0,6,,,,,,,,5,,,64,0
53736,note_on,0,0,6,,,,,,,,5,,,71,0
53736,note_on,96,0,3,,,,,,,,2,,,68,0
53736,note_on,96,0,5,,,,,,,,4,,,40,0
53736,note_on,96,0,6,,,,,,,,5,,,74,0
53736,note_on,96,0,4,,,,,,,,3,,,52,0
53736,note_on,0,0,6,,,,,,,,5,,,52,0
53748,note_on,48,0,2,,,,,,,,1,,,80,0
53760,note_on,24,0,5,,,,,,,,4,,,33,105
53760,note_on,24,0,6,,,,,,,,5,,,73,105
53760,note_on,0,0,6,,,,,,,,5,,,45,105
53760,note_on,0,0,6,,,,,,,,5,,,64,105
53760,note_on,24,0,3,,,,,,,,2,,,64,105
53760,note_on,0,0,6,,,,,,,,5,,,69,105
53760,note_on,24,0,4,,,,,,,,3,,,45,105
53760,note_on,48,0,1,,,,,,,,0,,,73,105
53760,note_on,12,0,2,,,,,,,,1,,,81,105
53808,note_on,48,0,1,,,,,,,,0,,,73,0
53820,note_on,12,0,1,,,,,,,,0,,,81,105
53856,note_on,96,0,5,,,,,,,,4,,,33,0
53856,note_on,96,0,6,,,,,,,,5,,,45,0
53856,note_on,96,0,3,,,,,,,,2,,,64,0
53856,note_on,96,0,4,,,,,,,,3,,,45,0
53868,note_on,48,0,1,,,,,,,,0,,,81,0
53880,note_on,12,0,1,,,,,,,,0,,,81,105
53880,note_on,24,0,3,,,,,,,,2,,,64,105
53880,note_on,24,0,4,,,,,,,,3,,,57,105
53880,note_on,24,0,5,,,,,,,,4,,,45,105
53880,note_on,24,0,6,,,,,,,,5,,,57,105
53928,note_on,48,0,1,,,,,,,,0,,,81,0
53940,note_on,12,0,1,,,,,,,,0,,,81,105
53952,note_on,192,0,2,,,,,,,,1,,,81,0
53976,note_on,96,0,6,,,,,,,,5,,,57,0
53976,note_on,96,0,5,,,,,,,,4,,,45,0
53976,note_on,96,0,4,,,,,,,,3,,,57,0
53976,note_on,96,0,3,,,,,,,,2,,,64,0
53988,note_on,48,0,1,,,,,,,,0,,,81,0
54000,note_on,24,0,6,,,,,,,,5,,,57,105
54000,note_on,12,0,1,,,,,,,,0,,,85,105
54000,note_on,24,0,4,,,,,,,,3,,,57,105
54000,note_on,0,0,6,,,,,,,,5,,,57,105
54000,note_on,24,0,3,,,,,,,,2,,,64,105
54000,note_on,24,0,5,,,,,,,,4,,,45,105
54048,note_on,48,0,1,,,,,,,,0,,,85,0
54060,note_on,12,0,1,,,,,,,,0,,,81,105
54096,note_on,96,0,4,,,,,,,,3,,,57,0
54096,note_on,0,0,6,,,,,,,,5,,,57,0
54096,note_on,96,0,5,,,,,,,,4,,,45,0
54096,note_on,96,0,6,,,,,,,,5,,,57,0
54096,note_on,96,0,3,,,,,,,,2,,,64,0
54108,note_on,48,0,1,,,,,,,,0,,,81,0
54120,note_on,24,0,3,,,,,,,,2,,,64,105
54120,note_on,24,0,6,,,,,,,,5,,,56,105
54120,note_on,12,0,1,,,,,,,,0,,,85,105
54120,note_on,24,0,5,,,,,,,,4,,,45,105
54120,note_on,24,0,4,,,,,,,,3,,,57,105
54144,note_on,24,0,6,,,,,,,,5,,,73,0
54144,note_on,0,0,6,,,,,,,,5,,,64,0
54144,note_on,0,0,6,,,,,,,,5,,,69,0
54168,note_on,48,0,1,,,,,,,,0,,,85,0
54180,note_on,12,0,1,,,,,,,,0,,,81,105
54216,note_on,96,0,3,,,,,,,,2,,,64,0
54216,note_on,96,0,5,,,,,,,,4,,,45,0
54216,note_on,96,0,4,,,,,,,,3,,,57,0
54216,note_on,72,0,6,,,,,,,,5,,,56,0
54228,note_on,48,0,1,,,,,,,,0,,,81,0
54240,note_on,24,0,5,,,,,,,,4,,,44,105
54240,note_on,12,0,1,,,,,,,,0,,,83,105
54240,note_on,0,0,6,,,,,,,,5,,,71,105
54240,note_on,0,0,6,,,,,,,,5,,,56,105
54240,note_on,24,0,3,,,,,,,,2,,,71,105
54240,note_on,24,0,4,,,,,,,,3,,,56,105
54240,note_on,24,0,6,,,,,,,,5,,,76,105
54288,note_on,48,0,6,,,,,,,,5,,,56,0
54300,note_on,348,0,2,,,,,,,,1,,,76,105
54300,note_on,12,0,6,,,,,,,,5,,,56,105
54336,note_on,96,0,3,,,,,,,,2,,,71,0
54336,note_on,96,0,4,,,,,,,,3,,,56,0
54336,note_on,96,0,5,,,,,,,,4,,,44,0
54348,note_on,48,0,2,,,,,,,,1,,,76,0
54348,note_on,48,0,6,,,,,,,,5,,,56,0
54360,note_on,12,0,6,,,,,,,,5,,,54,105
54360,note_on,24,0,5,,,,,,,,4,,,44,105
54360,note_on,24,0,4,,,,,,,,3,,,56,105
54360,note_on,12,0,2,,,,,,,,1,,,76,105
54360,note_on,24,0,3,,,,,,,,2,,,71,105
54408,note_on,48,0,4,,,,,,,,3,,,56,0
54408,note_on,48,0,5,,,,,,,,4,,,44,0
54408,note_on,48,0,2,,,,,,,,1,,,76,0
54420,note_on,12,0,5,,,,,,,,4,,,42,105
54420,note_on,12,0,2,,,,,,,,1,,,76,105
54420,note_on,12,0,4,,,,,,,,3,,,54,105
54432,note_on,192,0,1,,,,,,,,0,,,83,0
54456,note_on,96,0,3,,,,,,,,2,,,71,0
54456,note_on,96,0,6,,,,,,,,5,,,54,0
54468,note_on,48,0,4,,,,,,,,3,,,54,0
54468,note_on,48,0,5,,,,,,,,4,,,42,0
54468,note_on,48,0,2,,,,,,,,1,,,76,0
54480,note_on,12,0,5,,,,,,,,4,,,44,105
54480,note_on,24,0,6,,,,,,,,5,,,56,105
54480,note_on,48,0,1,,,,,,,,0,,,76,105
54480,note_on,12,0,2,,,,,,,,1,,,80,105
54480,note_on,24,0,3,,,,,,,,2,,,71,105
54480,note_on,12,0,4,,,,,,,,3,,,56,105
54528,note_on,48,0,2,,,,,,,,1,,,80,0
54540,note_on,12,0,2,,,,,,,,1,,,76,105
54576,note_on,96,0,5,,,,,,,,4,,,44,0
54576,note_on,96,0,6,,,,,,,,5,,,56,0
54576,note_on,96,0,4,,,,,,,,3,,,56,0
54576,note_on,96,0,3,,,,,,,,2,,,71,0
54588,note_on,48,0,2,,,,,,,,1,,,76,0
54600,note_on,24,0,3,,,,,,,,2,,,71,105
54600,note_on,24,0,6,,,,,,,,5,,,56,105
54600,note_on,24,0,4,,,,,,,,3,,,56,105
54600,note_on,24,0,5,,,,,,,,4,,,44,105
54600,note_on,12,0,2,,,,,,,,1,,,80,105
54624,note_on,24,0,6,,,,,,,,5,,,71,0
54624,note_on,0,0,6,,,,,,,,5,,,76,0
54648,note_on,48,0,2,,,,,,,,1,,,80,0
54660,note_on,12,0,2,,,,,,,,1,,,76,105
54672,note_on,192,0,1,,,,,,,,0,,,76,0
54696,note_on,72,0,6,,,,,,,,5,,,56,0
54696,note_on,96,0,5,,,,,,,,4,,,44,0
54696,note_on,96,0,4,,,,,,,,3,,,56,0
54696,note_on,96,0,3,,,,,,,,2,,,71,0
54708,note_on,48,0,2,,,,,,,,1,,,76,0
54720,note_on,24,0,5,,,,,,,,4,,,42,105
54720,note_on,24,0,3,,,,,,,,2,,,69,105
54720,note_on,24,0,6,,,,,,,,5,,,74,105
54720,note_on,0,0,6,,,,,,,,5,,,69,105
54720,note_on,0,0,6,,,,,,,,5,,,54,105
54720,note_on,12,0,2,,,,,,,,1,,,74,105
54720,note_on,24,0,4,,,,,,,,3,,,54,105
54780,note_on,108,0,1,,,,,,,,0,,,78,105
54816,note_on,96,0,3,,,,,,,,2,,,69,0
54816,note_on,96,0,4,,,,,,,,3,,,54,0
54816,note_on,96,0,6,,,,,,,,5,,,54,0
54816,note_on,96,0,5,,,,,,,,4,,,42,0
54828,note_on,48,0,1,,,,,,,,0,,,78,0
54840,note_on,24,0,6,,,,,,,,5,,,54,105
54840,note_on,24,0,5,,,,,,,,4,,,42,105
54840,note_on,24,0,3,,,,,,,,2,,,69,105
54840,note_on,24,0,4,,,,,,,,3,,,54,105
54840,note_on,12,0,1,,,,,,,,0,,,78,105
54888,note_on,48,0,1,,,,,,,,0,,,78,0
54900,note_on,12,0,1,,,,,,,,0,,,78,105
54912,note_on,72,0,6,,,,,,,,5,,,69,0
54912,note_on,192,0,2,,,,,,,,1,,,74,0
54912,note_on,0,0,6,,,,,,,,5,,,74,0
54936,note_on,24,0,6,,,,,,,,5,,,54,0
54936,note_on,96,0,4,,,,,,,,3,,,54,0
54936,note_on,96,0,3,,,,,,,,2,,,69,0
54936,note_on,96,0,5,,,,,,,,4,,,42,0
54948,note_on,48,0,1,,,,,,,,0,,,78,0
54960,note_on,12,0,1,,,,,,,,0,,,81,105
54960,note_on,48,0,2,,,,,,,,1,,,81,105
54960,note_on,24,0,3,,,,,,,,2,,,62,105
54960,note_on,24,0,4,,,,,,,,3,,,54,105
54960,note_on,24,0,5,,,,,,,,4,,,42,105
54960,note_on,0,0,6,,,,,,,,5,,,54,105
54960,note_on,24,0,6,,,,,,,,5,,,62,105
55008,note_on,48,0,1,,,,,,,,0,,,81,0
55020,note_on,12,0,1,,,,,,,,0,,,78,105
55056,note_on,96,0,5,,,,,,,,4,,,42,0
55056,note_on,96,0,3,,,,,,,,2,,,62,0
55056,note_on,96,0,4,,,,,,,,3,,,54,0
55056,note_on,96,0,6,,,,,,,,5,,,54,0
55068,note_on,48,0,1,,,,,,,,0,,,78,0
55080,note_on,12,0,1,,,,,,,,0,,,81,105
55080,note_on,24,0,3,,,,,,,,2,,,62,105
55080,note_on,24,0,5,,,,,,,,4,,,42,105
55080,note_on,24,0,6,,,,,,,,5,,,54,105
55080,note_on,24,0,4,,,,,,,,3,,,54,105
55128,note_on,48,0,1,,,,,,,,0,,,81,0
55140,note_on,12,0,1,,,,,,,,0,,,78,105
55152,note_on,192,0,2,,,,,,,,1,,,81,0
55152,note_on,72,0,6,,,,,,,,5,,,62,0
55176,note_on,96,0,3,,,,,,,,2,,,62,0
55176,note_on,96,0,4,,,,,,,,3,,,54,0
55176,note_on,96,0,5,,,,,,,,4,,,42,0
55176,note_on,24,0,6,,,,,,,,5,,,54,0
55188,note_on,48,0,1,,,,,,,,0,,,78,0
55200,note_on,24,0,6,,,,,,,,5,,,68,105
55200,note_on,0,0,6,,,,,,,,5,,,52,105
55200,note_on,24,0,4,,,,,,,,3,,,52,105
55200,note_on,0,0,6,,,,,,,,5,,,73,105
55200,note_on,24,0,3,,,,,,,,2,,,68,105
55200,note_on,12,0,1,,,,,,,,0,,,80,105
55200,note_on,24,0,5,,,,,,,,4,,,40,105
55260,note_on,108,0,2,,,,,,,,1,,,73,105
55296,note_on,96,0,5,,,,,,,,4,,,40,0
55296,note_on,96,0,6,,,,,,,,5,,,52,0
55296,note_on,96,0,3,,,,,,,,2,,,68,0
55296,note_on,96,0,4,,,,,,,,3,,,52,0
55308,note_on,48,0,2,,,,,,,,1,,,73,0
55320,note_on,24,0,3,,,,,,,,2,,,68,105
55320,note_on,12,0,2,,,,,,,,1,,,73,105
55320,note_on,24,0,5,,,,,,,,4,,,40,105
55320,note_on,24,0,6,,,,,,,,5,,,52,105
55320,note_on,24,0,4,,,,,,,,3,,,52,105
55368,note_on,48,0,5,,,,,,,,4,,,40,0
55368,note_on,48,0,2,,,,,,,,1,,,73,0
55368,note_on,48,0,6,,,,,,,,5,,,52,0
55368,note_on,48,0,4,,,,,,,,3,,,52,0
55380,note_on,12,0,2,,,,,,,,1,,,73,105
55380,note_on,12,0,5,,,,,,,,4,,,38,105
55380,note_on,12,0,4,,,,,,,,3,,,50,105
55380,note_on,12,0,6,,,,,,,,5,,,50,105
55392,note_on,192,0,1,,,,,,,,0,,,80,0
55416,note_on,96,0,3,,,,,,,,2,,,68,0
55428,note_on,48,0,5,,,,,,,,4,,,38,0
55428,note_on,48,0,6,,,,,,,,5,,,50,0
55428,note_on,48,0,4,,,,,,,,3,,,50,0
55428,note_on,48,0,2,,,,,,,,1,,,73,0
55440,note_on,12,0,2,,,,,,,,1,,,76,105
55440,note_on,12,0,4,,,,,,,,3,,,52,105
55440,note_on,12,0,5,,,,,,,,4,,,40,105
55440,note_on,24,0,3,,,,,,,,2,,,68,105
55440,note_on,12,0,6,,,,,,,,5,,,52,105
55440,note_on,48,0,1,,,,,,,,0,,,73,105
55488,note_on,48,0,2,,,,,,,,1,,,76,0
55500,note_on,12,0,2,,,,,,,,1,,,73,105
55536,note_on,96,0,3,,,,,,,,2,,,68,0
55536,note_on,96,0,6,,,,,,,,5,,,52,0
55536,note_on,96,0,5,,,,,,,,4,,,40,0
55536,note_on,96,0,4,,,,,,,,3,,,52,0
55548,note_on,48,0,2,,,,,,,,1,,,73,0
55560,note_on,12,0,2,,,,,,,,1,,,76,105
55560,note_on,24,0,6,,,,,,,,5,,,52,105
55560,note_on,24,0,4,,,,,,,,3,,,52,105
55560,note_on,24,0,5,,,,,,,,4,,,40,105
55560,note_on,24,0,3,,,,,,,,2,,,68,105
55584,note_on,0,0,6,,,,,,,,5,,,68,0
55584,note_on,24,0,6,,,,,,,,5,,,73,0
55608,note_on,48,0,2,,,,,,,,1,,,76,0
55620,note_on,12,0,2,,,,,,,,1,,,73,105
55632,note_on,192,0,1,,,,,,,,0,,,73,0
55656,note_on,96,0,4,,,,,,,,3,,,52,0
55656,note_on,72,0,6,,,,,,,,5,,,52,0
55656,note_on,96,0,5,,,,,,,,4,,,40,0
55656,note_on,96,0,3,,,,,,,,2,,,68,0
55668,note_on,48,0,2,,,,,,,,1,,,73,0
55680,note_on,12,0,2,,,,,,,,1,,,71,105
55680,note_on,0,0,6,,,,,,,,5,,,66,105
55680,note_on,24,0,6,,,,,,,,5,,,71,105
55680,note_on,24,0,5,,,,,,,,4,,,38,105
55680,note_on,0,0,6,,,,,,,,5,,,50,105
55680,note_on,24,0,3,,,,,,,,2,,,66,105
55680,note_on,24,0,4,,,,,,,,3,,,50,105
55740,note_on,108,0,1,,,,,,,,0,,,74,105
55776,note_on,96,0,3,,,,,,,,2,,,66,0
55776,note_on,96,0,6,,,,,,,,5,,,50,0
55776,note_on,96,0,4,,,,,,,,3,,,50,0
55776,note_on,96,0,5,,,,,,,,4,,,38,0
55788,note_on,48,0,1,,,,,,,,0,,,74,0
55800,note_on,12,0,1,,,,,,,,0,,,74,105
55800,note_on,24,0,3,,,,,,,,2,,,66,105
55800,note_on,24,0,6,,,,,,,,5,,,50,105
55800,note_on,24,0,5,,,,,,,,4,,,38,105
55800,note_on,24,0,4,,,,,,,,3,,,50,105
55848,note_on,48,0,1,,,,,,,,0,,,74,0
55860,note_on,12,0,1,,,,,,,,0,,,74,105
55872,note_on,192,0,2,,,,,,,,1,,,71,0
55872,note_on,72,0,6,,,,,,,,5,,,66,0
55872,note_on,0,0,6,,,,,,,,5,,,71,0
55896,note_on,96,0,4,,,,,,,,3,,,50,0
55896,note_on,96,0,5,,,,,,,,4,,,38,0
55896,note_on,96,0,3,,,,,,,,2,,,66,0
55896,note_on,24,0,6,,,,,,,,5,,,50,0
55908,note_on,48,0,1,,,,,,,,0,,,74,0
55920,note_on,24,0,6,,,,,,,,5,,,50,105
55920,note_on,0,0,6,,,,,,,,5,,,59,105
55920,note_on,24,0,3,,,,,,,,2,,,59,105
55920,note_on,12,0,1,,,,,,,,0,,,78,105
55920,note_on,24,0,4,,,,,,,,3,,,50,105
55920,note_on,24,0,5,,,,,,,,4,,,38,105
55920,note_on,48,0,2,,,,,,,,1,,,78,105
55968,note_on,48,0,1,,,,,,,,0,,,78,0
55980,note_on,12,0,1,,,,,,,,0,,,74,105
56016,note_on,96,0,6,,,,,,,,5,,,50,0
56016,note_on,96,0,5,,,,,,,,4,,,38,0
56016,note_on,96,0,3,,,,,,,,2,,,59,0
56016,note_on,96,0,4,,,,,,,,3,,,50,0
56028,note_on,48,0,1,,,,,,,,0,,,74,0
56040,note_on,24,0,6,,,,,,,,5,,,50,105
56040,note_on,24,0,5,,,,,,,,4,,,38,105
56040,note_on,24,0,3,,,,,,,,2,,,59,105
56040,note_on,24,0,4,,,,,,,,3,,,50,105
56040,note_on,12,0,1,,,,,,,,0,,,78,105
56088,note_on,48,0,1,,,,,,,,0,,,78,0
56100,note_on,12,0,1,,,,,,,,0,,,74,105
56112,note_on,192,0,2,,,,,,,,1,,,78,0
56112,note_on,72,0,6,,,,,,,,5,,,59,0
56136,note_on,96,0,3,,,,,,,,2,,,59,0
56136,note_on,24,0,6,,,,,,,,5,,,50,0
56136,note_on,96,0,5,,,,,,,,4,,,38,0
56136,note_on,96,0,4,,,,,,,,3,,,50,0
56148,note_on,48,0,1,,,,,,,,0,,,74,0
56160,note_on,24,0,6,,,,,,,,5,,,64,105
56160,note_on,24,0,4,,,,,,,,3,,,49,105
56160,note_on,0,0,6,,,,,,,,5,,,49,105
56160,note_on,0,0,6,,,,,,,,5,,,69,105
56160,note_on,12,0,1,,,,,,,,0,,,76,105
56160,note_on,24,0,5,,,,,,,,4,,,37,105
56160,note_on,24,0,3,,,,,,,,2,,,64,105
56220,note_on,108,0,2,,,,,,,,1,,,69,105
56256,note_on,96,0,5,,,,,,,,4,,,37,0
56256,note_on,96,0,4,,,,,,,,3,,,49,0
56256,note_on,96,0,3,,,,,,,,2,,,64,0
56256,note_on,96,0,6,,,,,,,,5,,,49,0
56268,note_on,48,0,2,,,,,,,,1,,,69,0
56280,note_on,24,0,6,,,,,,,,5,,,49,105
56280,note_on,24,0,3,,,,,,,,2,,,64,105
56280,note_on,24,0,5,,,,,,,,4,,,37,105
56280,note_on,24,0,4,,,,,,,,3,,,49,105
56280,note_on,12,0,2,,,,,,,,1,,,69,105
56328,note_on,48,0,5,,,,,,,,4,,,37,0
56328,note_on,48,0,4,,,,,,,,3,,,49,0
56328,note_on,48,0,6,,,,,,,,5,,,49,0
56328,note_on,48,0,2,,,,,,,,1,,,69,0
56340,note_on,12,0,4,,,,,,,,3,,,47,105
56340,note_on,12,0,6,,,,,,,,5,,,47,105
56340,note_on,12,0,5,,,,,,,,4,,,35,105
56340,note_on,12,0,2,,,,,,,,1,,,69,105
56352,note_on,192,0,1,,,,,,,,0,,,76,0
56376,note_on,96,0,3,,,,,,,,2,,,64,0
56388,note_on,48,0,6,,,,,,,,5,,,47,0
56388,note_on,48,0,4,,,,,,,,3,,,47,0
56388,note_on,48,0,2,,,,,,,,1,,,69,0
56388,note_on,48,0,5,,,,,,,,4,,,35,0
56400,note_on,12,0,5,,,,,,,,4,,,37,105
56400,note_on,12,0,2,,,,,,,,1,,,73,105
56400,note_on,24,0,3,,,,,,,,2,,,64,105
56400,note_on,48,0,1,,,,,,,,0,,,69,105
56400,note_on,12,0,4,,,,,,,,3,,,49,105
56400,note_on,12,0,6,,,,,,,,5,,,49,105
56448,note_on,48,0,2,,,,,,,,1,,,73,0
56448,note_on,48,0,6,,,,,,,,5,,,64,0
56460,note_on,12,0,2,,,,,,,,1,,,69,105
56496,note_on,48,0,6,,,,,,,,5,,,49,0
56496,note_on,96,0,1,,,,,,,,0,,,69,0
56496,note_on,96,0,3,,,,,,,,2,,,64,0
56496,note_on,96,0,4,,,,,,,,3,,,49,0
56496,note_on,96,0,5,,,,,,,,4,,,37,0
56508,note_on,48,0,2,,,,,,,,1,,,69,0
56520,note_on,24,0,3,,,,,,,,2,,,69,105
56520,note_on,0,0,6,,,,,,,,5,,,45,105
56520,note_on,24,0,6,,,,,,,,5,,,61,105
56520,note_on,24,0,1,,,,,,,,0,,,81,105
56520,note_on,24,0,5,,,,,,,,4,,,33,105
56520,note_on,24,0,4,,,,,,,,3,,,45,105
56520,note_on,12,0,2,,,,,,,,1,,,73,105
56544,note_on,24,0,6,,,,,,,,5,,,69,0
56568,note_on,48,0,2,,,,,,,,1,,,73,0
56580,note_on,12,0,2,,,,,,,,1,,,69,105
56616,note_on,96,0,5,,,,,,,,4,,,33,0
56616,note_on,72,0,6,,,,,,,,5,,,45,0
56616,note_on,0,0,6,,,,,,,,5,,,61,0
56616,note_on,96,0,4,,,,,,,,3,,,45,0
56616,note_on,96,0,3,,,,,,,,2,,,69,0
56616,note_on,96,0,1,,,,,,,,0,,,81,0
56628,note_on,48,0,2,,,,,,,,1,,,69,0
56640,note_on,24,0,6,,,,,,,,5,,,52,105
56640,note_on,0,0,6,,,,,,,,5,,,68,105
56640,note_on,0,0,6,,,,,,,,5,,,59,105
56640,note_on,12,0,2,,,,,,,,1,,,80,105
56640,note_on,24,0,4,,,,,,,,3,,,64,105
56640,note_on,24,0,3,,,,,,,,2,,,71,105
56640,note_on,24,0,5,,,,,,,,4,,,52,105
56640,note_on,24,0,1,,,,,,,,0,,,80,105
56688,note_on,48,0,1,,,,,,,,0,,,80,0
56688,note_on,48,0,2,,,,,,,,1,,,80,0
56700,note_on,12,0,1,,,,,,,,0,,,78,105
56700,note_on,12,0,2,,,,,,,,1,,,78,105
56736,note_on,96,0,6,,,,,,,,5,,,52,0
56736,note_on,96,0,5,,,,,,,,4,,,52,0
56736,note_on,96,0,4,,,,,,,,3,,,64,0
56736,note_on,96,0,3,,,,,,,,2,,,71,0
56748,note_on,48,0,2,,,,,,,,1,,,78,0
56748,note_on,48,0,1,,,,,,,,0,,,78,0
56760,note_on,12,0,2,,,,,,,,1,,,76,105
56760,note_on,24,0,5,,,,,,,,4,,,40,105
56760,note_on,24,0,3,,,,,,,,2,,,68,105
56760,note_on,24,0,6,,,,,,,,5,,,40,105
56760,note_on,24,0,4,,,,,,,,3,,,52,105
56760,note_on,12,0,1,,,,,,,,0,,,76,105
56808,note_on,48,0,1,,,,,,,,0,,,76,0
56808,note_on,48,0,2,,,,,,,,1,,,76,0
56820,note_on,12,0,1,,,,,,,,0,,,78,105
56820,note_on,12,0,2,,,,,,,,1,,,78,105
56832,note_on,72,0,6,,,,,,,,5,,,68,0
56856,note_on,96,0,5,,,,,,,,4,,,40,0
56856,note_on,24,0,6,,,,,,,,5,,,40,0
56856,note_on,96,0,4,,,,,,,,3,,,52,0
56856,note_on,96,0,3,,,,,,,,2,,,68,0
56868,note_on,48,0,2,,,,,,,,1,,,78,0
56868,note_on,48,0,1,,,,,,,,0,,,78,0
56880,note_on,24,0,3,,,,,,,,2,,,68,105
56880,note_on,12,0,1,,,,,,,,0,,,76,105
56880,note_on,24,0,5,,,,,,,,4,,,40,105
56880,note_on,0,0,6,,,,,,,,5,,,71,105
56880,note_on,24,0,6,,,,,,,,5,,,40,105
56880,note_on,12,0,2,,,,,,,,1,,,76,105
56880,note_on,24,0,4,,,,,,,,3,,,52,105
56928,note_on,48,0,1,,,,,,,,0,,,76,0
56928,note_on,48,0,6,,,,,,,,5,,,59,0
56928,note_on,48,0,2,,,,,,,,1,,,76,0
56940,note_on,12,0,2,,,,,,,,1,,,74,105
56940,note_on,12,0,1,,,,,,,,0,,,74,105
56976,note_on,96,0,5,,,,,,,,4,,,40,0
56976,note_on,48,0,6,,,,,,,,5,,,40,0
56976,note_on,96,0,3,,,,,,,,2,,,68,0
56976,note_on,96,0,4,,,,,,,,3,,,52,0
56988,note_on,48,0,1,,,,,,,,0,,,74,0
56988,note_on,48,0,2,,,,,,,,1,,,74,0
57000,note_on,24,0,3,,,,,,,,2,,,64,105
57000,note_on,24,0,6,,,,,,,,5,,,56,105
57000,note_on,24,0,5,,,,,,,,4,,,44,105
57000,note_on,12,0,1,,,,,,,,0,,,73,105
57000,note_on,12,0,2,,,,,,,,1,,,73,105
57000,note_on,0,0,6,,,,,,,,5,,,64,105
57000,note_on,24,0,4,,,,,,,,3,,,56,105
57048,note_on,48,0,1,,,,,,,,0,,,73,0
57048,note_on,48,0,2,,,,,,,,1,,,73,0
57060,note_on,12,0,1,,,,,,,,0,,,74,105
57060,note_on,12,0,2,,,,,,,,1,,,74,105
57072,note_on,72,0,6,,,,,,,,5,,,71,0
57096,note_on,24,0,6,,,,,,,,5,,,56,0
57096,note_on,96,0,3,,,,,,,,2,,,64,0
57096,note_on,96,0,5,,,,,,,,4,,,44,0
57096,note_on,96,0,4,,,,,,,,3,,,56,0
57108,note_on,48,0,2,,,,,,,,1,,,74,0
57108,note_on,48,0,1,,,,,,,,0,,,74,0
57120,note_on,24,0,4,,,,,,,,3,,,57,105
57120,note_on,0,0,6,,,,,,,,5,,,57,105
57120,note_on,24,0,6,,,,,,,,5,,,73,105
57120,note_on,24,0,5,,,,,,,,4,,,45,105
57120,note_on,12,0,2,,,,,,,,1,,,73,105
57120,note_on,12,0,1,,,,,,,,0,,,73,105
57120,note_on,24,0,3,,,,,,,,2,,,64,105
57168,note_on,48,0,1,,,,,,,,0,,,73,0
57168,note_on,48,0,2,,,,,,,,1,,,73,0
57168,note_on,0,0,6,,,,,,,,5,,,73,0
57168,note_on,48,0,5,,,,,,,,4,,,45,0
57168,note_on,48,0,6,,,,,,,,5,,,57,0
57168,note_on,48,0,4,,,,,,,,3,,,57,0
57180,note_on,12,0,6,,,,,,,,5,,,56,105
57180,note_on,12,0,4,,,,,,,,3,,,56,105
57180,note_on,12,0,1,,,,,,,,0,,,71,105
57180,note_on,12,0,5,,,,,,,,4,,,44,105
57180,note_on,12,0,2,,,,,,,,1,,,71,105
57180,note_on,0,0,6,,,,,,,,5,,,71,105
57228,note_on,48,0,5,,,,,,,,4,,,44,0
57228,note_on,48,0,1,,,,,,,,0,,,71,0
57228,note_on,48,0,6,,,,,,,,5,,,71,0
57228,note_on,0,0,6,,,,,,,,5,,,56,0
57228,note_on,48,0,4,,,,,,,,3,,,56,0
57228,note_on,48,0,2,,,,,,,,1,,,71,0
57240,note_on,12,0,2,,,,,,,,1,,,69,105
57240,note_on,12,0,5,,,,,,,,4,,,45,105
57240,note_on,12,0,4,,,,,,,,3,,,57,105
57240,note_on,12,0,1,,,,,,,,0,,,69,105
57240,note_on,12,0,6,,,,,,,,5,,,57,105
57240,note_on,0,0,6,,,,,,,,5,,,73,105
57288,note_on,48,0,5,,,,,,,,4,,,45,0
57288,note_on,48,0,4,,,,,,,,3,,,57,0
57288,note_on,48,0,6,,,,,,,,5,,,73,0
57288,note_on,0,0,6,,,,,,,,5,,,57,0
57300,note_on,12,0,4,,,,,,,,3,,,59,105
57300,note_on,0,0,6,,,,,,,,5,,,74,105
57300,note_on,12,0,6,,,,,,,,5,,,59,105
57300,note_on,12,0,5,,,,,,,,4,,,47,105
57312,note_on,12,0,6,,,,,,,,5,,,64,0
57348,note_on,36,0,6,,,,,,,,5,,,74,0
57348,note_on,48,0,4,,,,,,,,3,,,59,0
57348,note_on,48,0,5,,,,,,,,4,,,47,0
57348,note_on,0,0,6,,,,,,,,5,,,59,0
57360,note_on,12,0,6,,,,,,,,5,,,61,105
57360,note_on,12,0,4,,,,,,,,3,,,61,105
57360,note_on,0,0,6,,,,,,,,5,,,76,105
57360,note_on,12,0,5,,,,,,,,4,,,49,105
57408,note_on,48,0,5,,,,,,,,4,,,49,0
57408,note_on,288,0,3,,,,,,,,2,,,64,0
57408,note_on,0,0,6,,,,,,,,5,,,61,0
57408,note_on,48,0,6,,,,,,,,5,,,76,0
57408,note_on,48,0,4,,,,,,,,3,,,61,0
57420,note_on,12,0,6,,,,,,,,5,,,59,105
57420,note_on,12,0,5,,,,,,,,4,,,47,105
57420,note_on,0,0,6,,,,,,,,5,,,74,105
57420,note_on,12,0,4,,,,,,,,3,,,59,105
57432,note_on,192,0,1,,,,,,,,0,,,69,0
57432,note_on,192,0,2,,,,,,,,1,,,69,0
57468,note_on,48,0,5,,,,,,,,4,,,47,0
57468,note_on,48,0,4,,,,,,,,3,,,59,0
57468,note_on,48,0,6,,,,,,,,5,,,74,0
57468,note_on,0,0,6,,,,,,,,5,,,59,0
57480,note_on,72,0,3,,,,,,,,2,,,61,105
57480,note_on,48,0,2,,,,,,,,1,,,69,105
57480,note_on,12,0,4,,,,,,,,3,,,61,105
57480,note_on,12,0,6,,,,,,,,5,,,76,105
57480,note_on,0,0,6,,,,,,,,5,,,61,105
57480,note_on,48,0,1,,,,,,,,0,,,69,105
57480,note_on,12,0,5,,,,,,,,4,,,49,105
57528,note_on,48,0,4,,,,,,,,3,,,61,0
57528,note_on,48,0,6,,,,,,,,5,,,61,0
57528,note_on,0,0,6,,,,,,,,5,,,76,0
57528,note_on,48,0,5,,,,,,,,4,,,49,0
57540,note_on,12,0,4,,,,,,,,3,,,57,105
57540,note_on,0,0,6,,,,,,,,5,,,73,105
57540,note_on,12,0,5,,,,,,,,4,,,45,105
57540,note_on,12,0,6,,,,,,,,5,,,57,105
57576,note_on,96,0,3,,,,,,,,2,,,61,0
57576,note_on,96,0,1,,,,,,,,0,,,69,0
57576,note_on,96,0,2,,,,,,,,1,,,69,0
57588,note_on,48,0,6,,,,,,,,5,,,73,0
57588,note_on,48,0,5,,,,,,,,4,,,45,0
57588,note_on,48,0,4,,,,,,,,3,,,57,0
57588,note_on,0,0,6,,,,,,,,5,,,57,0
57600,note_on,24,0,3,,,,,,,,2,,,59,105
57600,note_on,24,0,1,,,,,,,,0,,,68,116
57600,note_on,12,0,6,,,,,,,,5,,,52,116
57600,note_on,0,0,6,,,,,,,,5,,,68,116
57600,note_on,0,0,6,,,,,,,,5,,,71,116
57600,note_on,24,0,2,,,,,,,,1,,,68,116
57600,note_on,12,0,4,,,,,,,,3,,,52,116
57600,note_on,12,0,5,,,,,,,,4,,,40,116
57648,note_on,48,0,2,,,,,,,,1,,,68,0
57648,note_on,48,0,1,,,,,,,,0,,,68,0
57660,note_on,12,0,2,,,,,,,,1,,,66,116
57660,note_on,12,0,1,,,,,,,,0,,,66,116
57696,note_on,96,0,6,,,,,,,,5,,,52,0
57696,note_on,96,0,5,,,,,,,,4,,,40,0
57696,note_on,96,0,4,,,,,,,,3,,,52,0
57696,note_on,96,0,3,,,,,,,,2,,,59,0
57708,note_on,48,0,2,,,,,,,,1,,,66,0
57708,note_on,48,0,1,,,,,,,,0,,,66,0
57720,note_on,24,0,5,,,,,,,,4,,,28,116
57720,note_on,24,0,4,,,,,,,,3,,,40,116
57720,note_on,24,0,6,,,,,,,,5,,,40,116
57720,note_on,12,0,2,,,,,,,,1,,,64,116
57720,note_on,24,0,3,,,,,,,,2,,,56,105
57720,note_on,12,0,1,,,,,,,,0,,,64,116
57768,note_on,48,0,2,,,,,,,,1,,,64,0
57768,note_on,48,0,1,,,,,,,,0,,,64,0
57780,note_on,12,0,2,,,,,,,,1,,,66,116
57780,note_on,12,0,1,,,,,,,,0,,,66,116
57816,note_on,96,0,4,,,,,,,,3,,,40,0
57816,note_on,96,0,6,,,,,,,,5,,,40,0
57816,note_on,96,0,5,,,,,,,,4,,,28,0
57816,note_on,96,0,3,,,,,,,,2,,,56,0
57828,note_on,48,0,1,,,,,,,,0,,,66,0
57828,note_on,48,0,2,,,,,,,,1,,,66,0
57840,note_on,24,0,3,,,,,,,,2,,,56,105
57840,note_on,12,0,1,,,,,,,,0,,,64,116
57840,note_on,24,0,4,,,,,,,,3,,,40,116
57840,note_on,24,0,5,,,,,,,,4,,,28,116
57840,note_on,12,0,2,,,,,,,,1,,,64,116
57840,note_on,24,0,6,,,,,,,,5,,,40,116
57888,note_on,48,0,1,,,,,,,,0,,,64,0
57888,note_on,48,0,6,,,,,,,,5,,,68,0
57888,note_on,48,0,2,,,,,,,,1,,,64,0
57900,note_on,12,0,1,,,,,,,,0,,,62,116
57900,note_on,12,0,2,,,,,,,,1,,,62,116
57936,note_on,96,0,5,,,,,,,,4,,,28,0
57936,note_on,96,0,4,,,,,,,,3,,,40,0
57936,note_on,48,0,6,,,,,,,,5,,,40,0
57936,note_on,96,0,3,,,,,,,,2,,,56,0
57948,note_on,48,0,2,,,,,,,,1,,,62,0
57948,note_on,48,0,1,,,,,,,,0,,,62,0
57960,note_on,24,0,3,,,,,,,,2,,,52,105
57960,note_on,24,0,4,,,,,,,,3,,,44,116
57960,note_on,12,0,1,,,,,,,,0,,,61,116
57960,note_on,0,0,6,,,,,,,,5,,,64,116
57960,note_on,12,0,2,,,,,,,,1,,,61,116
57960,note_on,24,0,5,,,,,,,,4,,,32,116
57960,note_on,24,0,6,,,,,,,,5,,,44,116
57984,note_on,24,0,6,,,,,,,,5,,,71,0
58008,note_on,48,0,2,,,,,,,,1,,,61,0
58008,note_on,48,0,1,,,,,,,,0,,,61,0
58020,note_on,12,0,1,,,,,,,,0,,,62,116
58020,note_on,12,0,2,,,,,,,,1,,,62,116
58056,note_on,0,0,6,,,,,,,,5,,,44,0
58056,note_on,96,0,3,,,,,,,,2,,,52,0
58056,note_on,72,0,6,,,,,,,,5,,,64,0
58056,note_on,96,0,5,,,,,,,,4,,,32,0
58056,note_on,96,0,4,,,,,,,,3,,,44,0
58068,note_on,48,0,1,,,,,,,,0,,,62,0
58068,note_on,48,0,2,,,,,,,,1,,,62,0
58080,note_on,12,0,2,,,,,,,,1,,,61,116
58080,note_on,24,0,5,,,,,,,,4,,,33,116
58080,note_on,0,0,6,,,,,,,,5,,,61,116
58080,note_on,0,0,6,,,,,,,,5,,,69,116
58080,note_on,24,0,4,,,,,,,,3,,,45,116
58080,note_on,24,0,3,,,,,,,,2,,,52,105
58080,note_on,24,0,6,,,,,,,,5,,,45,116
58080,note_on,12,0,1,,,,,,,,0,,,61,116
58128,note_on,48,0,6,,,,,,,,5,,,61,0
58128,note_on,0,0,6,,,,,,,,5,,,45,0
58128,note_on,48,0,2,,,,,,,,1,,,61,0
58128,note_on,48,0,4,,,,,,,,3,,,45,0
58128,note_on,48,0,1,,,,,,,,0,,,61,0
58128,note_on,48,0,5,,,,,,,,4,,,33,0
58140,note_on,12,0,1,,,,,,,,0,,,59,116
58140,note_on,12,0,5,,,,,,,,4,,,32,116
58140,note_on,12,0,4,,,,,,,,3,,,44,116
58140,note_on,12,0,6,,,,,,,,5,,,59,116
58140,note_on,12,0,2,,,,,,,,1,,,59,116
58140,note_on,0,0,6,,,,,,,,5,,,44,116
58188,note_on,48,0,2,,,,,,,,1,,,59,0
58188,note_on,48,0,5,,,,,,,,4,,,32,0
58188,note_on,0,0,6,,,,,,,,5,,,59,0
58188,note_on,48,0,4,,,,,,,,3,,,44,0
58188,note_on,48,0,1,,,,,,,,0,,,59,0
58188,note_on,48,0,6,,,,,,,,5,,,44,0
58200,note_on,12,0,2,,,,,,,,1,,,57,116
58200,note_on,12,0,5,,,,,,,,4,,,33,116
58200,note_on,12,0,1,,,,,,,,0,,,57,116
58200,note_on,12,0,4,,,,,,,,3,,,45,116
58200,note_on,0,0,6,,,,,,,,5,,,61,116
58200,note_on,12,0,6,,,,,,,,5,,,45,116
58248,note_on,48,0,6,,,,,,,,5,,,61,0
58248,note_on,48,0,4,,,,,,,,3,,,45,0
58248,note_on,48,0,5,,,,,,,,4,,,33,0
58248,note_on,0,0,6,,,,,,,,5,,,45,0
58260,note_on,0,0,6,,,,,,,,5,,,62,116
58260,note_on,12,0,6,,,,,,,,5,,,47,116
58260,note_on,12,0,5,,,,,,,,4,,,35,116
58260,note_on,12,0,4,,,,,,,,3,,,47,116
58296,note_on,96,0,2,,,,,,,,1,,,57,0
58308,note_on,0,0,6,,,,,,,,5,,,47,0
58308,note_on,48,0,6,,,,,,,,5,,,62,0
58308,note_on,48,0,5,,,,,,,,4,,,35,0
58308,note_on,48,0,4,,,,,,,,3,,,47,0
58320,note_on,12,0,6,,,,,,,,5,,,49,116
58320,note_on,12,0,5,,,,,,,,4,,,37,116
58320,note_on,0,0,6,,,,,,,,5,,,64,116
58320,note_on,12,0,4,,,,,,,,3,,,49,116
58368,note_on,48,0,6,,,,,,,,5,,,64,0
58368,note_on,0,0,6,,,,,,,,5,,,49,0
58368,note_on,48,0,4,,,,,,,,3,,,49,0
58368,note_on,48,0,5,,,,,,,,4,,,37,0
58368,note_on,288,0,3,,,,,,,,2,,,52,0
58380,note_on,0,0,6,,,,,,,,5,,,62,116
58380,note_on,12,0,6,,,,,,,,5,,,47,116
58380,note_on,12,0,5,,,,,,,,4,,,35,116
58380,note_on,12,0,4,,,,,,,,3,,,47,116
58392,note_on,192,0,1,,,,,,,,0,,,57,0
58428,note_on,0,0,6,,,,,,,,5,,,47,0
58428,note_on,48,0,5,,,,,,,,4,,,35,0
58428,note_on,48,0,4,,,,,,,,3,,,47,0
58428,note_on,48,0,6,,,,,,,,5,,,62,0
58440,note_on,12,0,5,,,,,,,,4,,,37,116
58440,note_on,48,0,1,,,,,,,,0,,,69,72
58440,note_on,12,0,4,,,,,,,,3,,,49,116
58440,note_on,72,0,3,,,,,,,,2,,,61,105
58440,note_on,0,0,6,,,,,,,,5,,,64,116
58440,note_on,12,0,6,,,,,,,,5,,,49,116
58464,note_on,24,0,6,,,,,,,,5,,,69,0
58488,note_on,48,0,4,,,,,,,,3,,,49,0
58488,note_on,0,0,6,,,,,,,,5,,,49,0
58488,note_on,48,0,5,,,,,,,,4,,,37,0
58488,note_on,24,0,6,,,,,,,,5,,,64,0
58500,note_on,0,0,6,,,,,,,,5,,,61,116
58500,note_on,12,0,6,,,,,,,,5,,,45,116
58500,note_on,12,0,4,,,,,,,,3,,,45,116
58500,note_on,12,0,5,,,,,,,,4,,,35,116
58536,note_on,96,0,3,,,,,,,,2,,,61,0
58536,note_on,96,0,1,,,,,,,,0,,,69,0
58548,note_on,0,0,6,,,,,,,,5,,,45,0
58548,note_on,48,0,6,,,,,,,,5,,,61,0
58548,note_on,48,0,5,,,,,,,,4,,,35,0
58548,note_on,48,0,4,,,,,,,,3,,,45,0
58560,note_on,24,0,1,,,,,,,,0,,,68,72
58560,note_on,24,0,3,,,,,,,,2,,,59,72
58560,note_on,0,0,6,,,,,,,,5,,,59,72
58560,note_on,12,0,4,,,,,,,,3,,,40,116
58560,note_on,12,0,5,,,,,,,,4,,,28,72
58560,note_on,0,0,6,,,,,,,,5,,,40,72
58560,note_on,12,0,6,,,,,,,,5,,,68,72
58608,note_on,48,0,1,,,,,,,,0,,,68,0
58620,note_on,12,0,1,,,,,,,,0,,,64,72
58656,note_on,96,0,3,,,,,,,,2,,,59,0
58656,note_on,96,0,6,,,,,,,,5,,,59,0
58668,note_on,48,0,1,,,,,,,,0,,,64,0
58680,note_on,12,0,1,,,,,,,,0,,,62,72
58680,note_on,24,0,3,,,,,,,,2,,,59,72
58680,note_on,24,0,6,,,,,,,,5,,,64,72
58728,note_on,48,0,1,,,,,,,,0,,,62,0
58740,note_on,12,0,1,,,,,,,,0,,,64,72
58776,note_on,96,0,6,,,,,,,,5,,,64,0
58776,note_on,96,0,3,,,,,,,,2,,,59,0
58788,note_on,48,0,1,,,,,,,,0,,,64,0
58800,note_on,12,0,1,,,,,,,,0,,,64,72
58800,note_on,24,0,6,,,,,,,,5,,,64,72
58800,note_on,24,0,3,,,,,,,,2,,,59,72
58824,note_on,24,0,1,,,,,,,,0,,,64,0
58830,note_on,6,0,1,,,,,,,,0,,,66,72
58848,note_on,288,0,4,,,,,,,,3,,,40,0
58848,note_on,288,0,5,,,,,,,,4,,,28,0
58848,note_on,48,0,6,,,,,,,,5,,,40,0
58854,note_on,24,0,1,,,,,,,,0,,,66,0
58860,note_on,12,0,5,,,,,,,,4,,,40,72
58860,note_on,6,0,1,,,,,,,,0,,,64,72
58860,note_on,12,0,6,,,,,,,,5,,,52,72
58860,note_on,12,0,4,,,,,,,,3,,,52,116
58884,note_on,24,0,1,,,,,,,,0,,,64,0
58890,note_on,6,0,1,,,,,,,,0,,,66,72
58896,note_on,96,0,3,,,,,,,,2,,,59,0
58908,note_on,48,0,5,,,,,,,,4,,,40,0
58908,note_on,48,0,4,,,,,,,,3,,,52,0
58908,note_on,48,0,6,,,,,,,,5,,,52,0
58914,note_on,24,0,1,,,,,,,,0,,,66,0
58920,note_on,12,0,4,,,,,,,,3,,,50,116
58920,note_on,12,0,6,,,,,,,,5,,,50,72
58920,note_on,12,0,5,,,,,,,,4,,,38,72
58920,note_on,6,0,1,,,,,,,,0,,,64,72
58920,note_on,24,0,3,,,,,,,,2,,,59,72
58944,note_on,24,0,6,,,,,,,,5,,,68,0
58944,note_on,24,0,1,,,,,,,,0,,,64,0
58950,note_on,6,0,1,,,,,,,,0,,,66,72
58968,note_on,48,0,4,,,,,,,,3,,,50,0
58968,note_on,24,0,6,,,,,,,,5,,,50,0
58968,note_on,48,0,5,,,,,,,,4,,,38,0
58974,note_on,24,0,1,,,,,,,,0,,,66,0
58980,note_on,6,0,1,,,,,,,,0,,,64,72
58980,note_on,12,0,4,,,,,,,,3,,,52,116
58980,note_on,12,0,6,,,,,,,,5,,,52,72
58980,note_on,12,0,5,,,,,,,,4,,,40,72
58992,note_on,12,0,6,,,,,,,,5,,,64,0
59004,note_on,24,0,1,,,,,,,,0,,,64,0
59010,note_on,6,0,1,,,,,,,,0,,,66,72
59016,note_on,96,0,3,,,,,,,,2,,,59,0
59028,note_on,48,0,5,,,,,,,,4,,,40,0
59028,note_on,36,0,6,,,,,,,,5,,,52,0
59028,note_on,48,0,4,,,,,,,,3,,,52,0
59034,note_on,24,0,1,,,,,,,,0,,,66,0
59040,note_on,0,0,6,,,,,,,,5,,,61,72
59040,note_on,12,0,4,,,,,,,,3,,,40,116
59040,note_on,12,0,5,,,,,,,,4,,,28,72
59040,note_on,0,0,6,,,,,,,,5,,,69,72
59040,note_on,12,0,6,,,,,,,,5,,,40,72
59040,note_on,6,0,1,,,,,,,,0,,,69,72
59088,note_on,48,0,1,,,,,,,,0,,,69,0
59100,note_on,12,0,1,,,,,,,,0,,,64,72
59136,note_on,96,0,6,,,,,,,,5,,,61,0
59148,note_on,48,0,1,,,,,,,,0,,,64,0
59160,note_on,144,0,3,,,,,,,,2,,,61,72
59160,note_on,12,0,1,,,,,,,,0,,,62,72
59160,note_on,24,0,6,,,,,,,,5,,,64,72
59208,note_on,48,0,1,,,,,,,,0,,,62,0
59220,note_on,12,0,1,,,,,,,,0,,,64,72
59256,note_on,96,0,6,,,,,,,,5,,,64,0
59256,note_on,96,0,3,,,,,,,,2,,,61,0
59268,note_on,48,0,1,,,,,,,,0,,,64,0
59280,note_on,24,0,6,,,,,,,,5,,,64,72
59280,note_on,12,0,1,,,,,,,,0,,,64,72
59280,note_on,24,0,3,,,,,,,,2,,,61,72
59304,note_on,24,0,1,,,,,,,,0,,,64,0
59310,note_on,6,0,1,,,,,,,,0,,,66,72
59328,note_on,288,0,4,,,,,,,,3,,,40,0
59328,note_on,48,0,6,,,,,,,,5,,,40,0
59328,note_on,288,0,5,,,,,,,,4,,,28,0
59334,note_on,24,0,1,,,,,,,,0,,,66,0
59340,note_on,12,0,6,,,,,,,,5,,,52,72
59340,note_on,6,0,1,,,,,,,,0,,,64,72
59340,note_on,12,0,5,,,,,,,,4,,,40,72
59340,note_on,12,0,4,,,,,,,,3,,,52,116
59364,note_on,24,0,1,,,,,,,,0,,,64,0
59370,note_on,6,0,1,,,,,,,,0,,,66,72
59376,note_on,96,0,3,,,,,,,,2,,,61,0
59388,note_on,48,0,5,,,,,,,,4,,,40,0
59388,note_on,48,0,4,,,,,,,,3,,,52,0
59388,note_on,48,0,6,,,,,,,,5,,,52,0
59394,note_on,24,0,1,,,,,,,,0,,,66,0
59400,note_on,6,0,1,,,,,,,,0,,,64,72
59400,note_on,12,0,5,,,,,,,,4,,,38,72
59400,note_on,12,0,6,,,,,,,,5,,,50,72
59400,note_on,24,0,3,,,,,,,,2,,,61,72
59400,note_on,12,0,4,,,,,,,,3,,,50,116
59424,note_on,24,0,1,,,,,,,,0,,,64,0
59424,note_on,24,0,6,,,,,,,,5,,,69,0
59430,note_on,6,0,1,,,,,,,,0,,,66,72
59448,note_on,48,0,4,,,,,,,,3,,,50,0
59448,note_on,48,0,5,,,,,,,,4,,,38,0
59448,note_on,24,0,6,,,,,,,,5,,,50,0
59454,note_on,24,0,1,,,,,,,,0,,,66,0
59460,note_on,12,0,4,,,,,,,,3,,,52,116
59460,note_on,6,0,1,,,,,,,,0,,,64,72
59460,note_on,12,0,6,,,,,,,,5,,,52,72
59460,note_on,12,0,5,,,,,,,,4,,,40,72
59472,note_on,12,0,6,,,,,,,,5,,,64,0
59484,note_on,24,0,1,,,,,,,,0,,,64,0
59490,note_on,6,0,1,,,,,,,,0,,,66,72
59496,note_on,96,0,3,,,,,,,,2,,,61,0
59508,note_on,36,0,6,,,,,,,,5,,,52,0
59508,note_on,48,0,5,,,,,,,,4,,,40,0
59508,note_on,48,0,4,,,,,,,,3,,,52,0
59514,note_on,24,0,1,,,,,,,,0,,,66,0
59520,note_on,12,0,4,,,,,,,,3,,,40,116
59520,note_on,1224,0,2,,,,,,,,1,,,68,116
59520,note_on,12,0,5,,,,,,,,4,,,28,92
59520,note_on,12,0,6,,,,,,,,5,,,68,92
59520,note_on,6,0,1,,,,,,,,0,,,71,72
59520,note_on,0,0,6,,,,,,,,5,,,59,92
59520,note_on,0,0,6,,,,,,,,5,,,40,92
59568,note_on,48,0,1,,,,,,,,0,,,71,0
59568,note_on,48,0,2,,,,,,,,1,,,68,0
59580,note_on,12,0,1,,,,,,,,0,,,64,72
59580,note_on,12,0,2,,,,,,,,1,,,64,116
59616,note_on,96,0,6,,,,,,,,5,,,59,0
59628,note_on,48,0,2,,,,,,,,1,,,64,0
59628,note_on,48,0,1,,,,,,,,0,,,64,0
59640,note_on,144,0,3,,,,,,,,2,,,56,92
59640,note_on,24,0,6,,,,,,,,5,,,64,92
59640,note_on,12,0,2,,,,,,,,1,,,62,116
59640,note_on,12,0,1,,,,,,,,0,,,62,72
59688,note_on,48,0,1,,,,,,,,0,,,62,0
59688,note_on,48,0,2,,,,,,,,1,,,62,0
59700,note_on,12,0,1,,,,,,,,0,,,64,72
59700,note_on,12,0,2,,,,,,,,1,,,64,116
59736,note_on,96,0,6,,,,,,,,5,,,64,0
59736,note_on,96,0,3,,,,,,,,2,,,56,0
59748,note_on,48,0,1,,,,,,,,0,,,64,0
59748,note_on,48,0,2,,,,,,,,1,,,64,0
59760,note_on,12,0,1,,,,,,,,0,,,64,72
59760,note_on,24,0,3,,,,,,,,2,,,56,92
59760,note_on,24,0,6,,,,,,,,5,,,64,92
59760,note_on,12,0,2,,,,,,,,1,,,64,116
59784,note_on,24,0,2,,,,,,,,1,,,64,0
59784,note_on,24,0,1,,,,,,,,0,,,64,0
59790,note_on,6,0,2,,,,,,,,1,,,66,116
59790,note_on,6,0,1,,,,,,,,0,,,66,72
59808,note_on,288,0,5,,,,,,,,4,,,28,0
59808,note_on,288,0,4,,,,,,,,3,,,40,0
59808,note_on,48,0,6,,,,,,,,5,,,40,0
59814,note_on,24,0,2,,,,,,,,1,,,66,0
59814,note_on,24,0,1,,,,,,,,0,,,66,0
59820,note_on,12,0,4,,,,,,,,3,,,52,116
59820,note_on,6,0,1,,,,,,,,0,,,64,72
59820,note_on,12,0,6,,,,,,,,5,,,52,92
59820,note_on,6,0,2,,,,,,,,1,,,64,116
59820,note_on,12,0,5,,,,,,,,4,,,40,92
59844,note_on,24,0,2,,,,,,,,1,,,64,0
59844,note_on,24,0,1,,,,,,,,0,,,64,0
59850,note_on,6,0,1,,,,,,,,0,,,66,72
59850,note_on,6,0,2,,,,,,,,1,,,66,116
59856,note_on,96,0,3,,,,,,,,2,,,56,0
59868,note_on,48,0,6,,,,,,,,5,,,52,0
59868,note_on,48,0,4,,,,,,,,3,,,52,0
59868,note_on,48,0,5,,,,,,,,4,,,40,0
59874,note_on,24,0,1,,,,,,,,0,,,66,0
59874,note_on,24,0,2,,,,,,,,1,,,66,0
59880,note_on,12,0,6,,,,,,,,5,,,50,92
59880,note_on,6,0,1,,,,,,,,0,,,64,72
59880,note_on,6,0,2,,,,,,,,1,,,64,116
59880,note_on,12,0,5,,,,,,,,4,,,38,92
59880,note_on,24,0,3,,,,,,,,2,,,56,92
59880,note_on,12,0,4,,,,,,,,3,,,50,116
59904,note_on,24,0,1,,,,,,,,0,,,64,0
59904,note_on,24,0,2,,,,,,,,1,,,64,0
59904,note_on,24,0,6,,,,,,,,5,,,68,0
59910,note_on,6,0,2,,,,,,,,1,,,66,116
59910,note_on,6,0,1,,,,,,,,0,,,66,72
59928,note_on,24,0,6,,,,,,,,5,,,50,0
59928,note_on,48,0,5,,,,,,,,4,,,38,0
59928,note_on,48,0,4,,,,,,,,3,,,50,0
59934,note_on,24,0,2,,,,,,,,1,,,66,0
59934,note_on,24,0,1,,,,,,,,0,,,66,0
59940,note_on,12,0,6,,,,,,,,5,,,52,92
59940,note_on,12,0,4,,,,,,,,3,,,52,116
59940,note_on,6,0,1,,,,,,,,0,,,64,72
59940,note_on,6,0,2,,,,,,,,1,,,64,116
59940,note_on,12,0,5,,,,,,,,4,,,40,92
59952,note_on,12,0,6,,,,,,,,5,,,64,0
59964,note_on,24,0,2,,,,,,,,1,,,64,0
59964,note_on,24,0,1,,,,,,,,0,,,64,0
59970,note_on,6,0,2,,,,,,,,1,,,66,116
59970,note_on,6,0,1,,,,,,,,0,,,66,72
59976,note_on,96,0,3,,,,,,,,2,,,56,0
59988,note_on,48,0,5,,,,,,,,4,,,40,0
59988,note_on,36,0,6,,,,,,,,5,,,52,0
59988,note_on,48,0,4,,,,,,,,3,,,52,0
59994,note_on,24,0,1,,,,,,,,0,,,66,0
59994,note_on,24,0,2,,,,,,,,1,,,66,0
60000,note_on,6,0,1,,,,,,,,0,,,73,72
60000,note_on,12,0,6,,,,,,,,5,,,69,92
60000,note_on,0,0,6,,,,,,,,5,,,40,92
60000,note_on,0,0,6,,,,,,,,5,,,61,92
60000,note_on,6,0,2,,,,,,,,1,,,69,116
60000,note_on,12,0,4,,,,,,,,3,,,40,116
60000,note_on,12,0,5,,,,,,,,4,,,28,92
60048,note_on,48,0,2,,,,,,,,1,,,69,0
60048,note_on,48,0,1,,,,,,,,0,,,73,0
60060,note_on,12,0,2,,,,,,,,1,,,64,116
60060,note_on,12,0,1,,,,,,,,0,,,64,72
60096,note_on,96,0,6,,,,,,,,5,,,61,0
60108,note_on,48,0,1,,,,,,,,0,,,64,0
60108,note_on,48,0,2,,,,,,,,1,,,64,0
60120,note_on,12,0,2,,,,,,,,1,,,62,116
60120,note_on,144,0,3,,,,,,,,2,,,57,92
60120,note_on,24,0,6,,,,,,,,5,,,64,92
60120,note_on,12,0,1,,,,,,,,0,,,62,72
60168,note_on,48,0,2,,,,,,,,1,,,62,0
60168,note_on,48,0,1,,,,,,,,0,,,62,0
60180,note_on,12,0,1,,,,,,,,0,,,64,72
60180,note_on,12,0,2,,,,,,,,1,,,64,116
60216,note_on,96,0,3,,,,,,,,2,,,57,0
60216,note_on,96,0,6,,,,,,,,5,,,64,0
60228,note_on,48,0,2,,,,,,,,1,,,64,0
60228,note_on,48,0,1,,,,,,,,0,,,64,0
60240,note_on,12,0,2,,,,,,,,1,,,64,116
60240,note_on,24,0,3,,,,,,,,2,,,57,92
60240,note_on,12,0,1,,,,,,,,0,,,64,72
60240,note_on,24,0,6,,,,,,,,5,,,64,92
60264,note_on,24,0,2,,,,,,,,1,,,64,0
60264,note_on,24,0,1,,,,,,,,0,,,64,0
60270,note_on,6,0,2,,,,,,,,1,,,66,116
60270,note_on,6,0,1,,,,,,,,0,,,66,72
60288,note_on,48,0,6,,,,,,,,5,,,40,0
60288,note_on,288,0,4,,,,,,,,3,,,40,0
60288,note_on,288,0,5,,,,,,,,4,,,28,0
60294,note_on,24,0,1,,,,,,,,0,,,66,0
60294,note_on,24,0,2,,,,,,,,1,,,66,0
60300,note_on,12,0,4,,,,,,,,3,,,52,116
60300,note_on,6,0,1,,,,,,,,0,,,64,72
60300,note_on,12,0,6,,,,,,,,5,,,52,92
60300,note_on,6,0,2,,,,,,,,1,,,64,116
60300,note_on,12,0,5,,,,,,,,4,,,40,92
60324,note_on,24,0,2,,,,,,,,1,,,64,0
60324,note_on,24,0,1,,,,,,,,0,,,64,0
60330,note_on,6,0,2,,,,,,,,1,,,66,116
60330,note_on,6,0,1,,,,,,,,0,,,66,72
60336,note_on,96,0,3,,,,,,,,2,,,57,0
60348,note_on,48,0,5,,,,,,,,4,,,40,0
60348,note_on,48,0,4,,,,,,,,3,,,52,0
60348,note_on,48,0,6,,,,,,,,5,,,52,0
60354,note_on,24,0,1,,,,,,,,0,,,66,0
60354,note_on,24,0,2,,,,,,,,1,,,66,0
60360,note_on,24,0,3,,,,,,,,2,,,57,92
60360,note_on,12,0,5,,,,,,,,4,,,38,92
60360,note_on,12,0,6,,,,,,,,5,,,50,92
60360,note_on,6,0,2,,,,,,,,1,,,64,116
60360,note_on,6,0,1,,,,,,,,0,,,64,72
60360,note_on,12,0,4,,,,,,,,3,,,50,116
60384,note_on,24,0,1,,,,,,,,0,,,64,0
60384,note_on,24,0,2,,,,,,,,1,,,64,0
60384,note_on,24,0,6,,,,,,,,5,,,69,0
60390,note_on,6,0,2,,,,,,,,1,,,66,116
60390,note_on,6,0,1,,,,,,,,0,,,66,72
60408,note_on,48,0,4,,,,,,,,3,,,50,0
60408,note_on,24,0,6,,,,,,,,5,,,50,0
60408,note_on,48,0,5,,,,,,,,4,,,38,0
60414,note_on,24,0,1,,,,,,,,0,,,66,0
60414,note_on,24,0,2,,,,,,,,1,,,66,0
60420,note_on,12,0,5,,,,,,,,4,,,40,92
60420,note_on,12,0,6,,,,,,,,5,,,52,92
60420,note_on,6,0,1,,,,,,,,0,,,64,72
60420,note_on,6,0,2,,,,,,,,1,,,64,116
60420,note_on,12,0,4,,,,,,,,3,,,52,116
60432,note_on,12,0,6,,,,,,,,5,,,64,0
60444,note_on,24,0,2,,,,,,,,1,,,64,0
60444,note_on,24,0,1,,,,,,,,0,,,64,0
60450,note_on,6,0,2,,,,,,,,1,,,66,116
60450,note_on,6,0,1,,,,,,,,0,,,66,72
60456,note_on,96,0,3,,,,,,,,2,,,57,0
60468,note_on,48,0,5,,,,,,,,4,,,40,0
60468,note_on,36,0,6,,,,,,,,5,,,52,0
60468,note_on,48,0,4,,,,,,,,3,,,52,0
60474,note_on,24,0,2,,,,,,,,1,,,66,0
60474,note_on,24,0,1,,,,,,,,0,,,66,0
60480,note_on,0,0,6,,,,,,,,5,,,62,105
60480,note_on,12,0,6,,,,,,,,5,,,71,105
60480,note_on,0,0,6,,,,,,,,5,,,40,105
60480,note_on,6,0,2,,,,,,,,1,,,71,116
60480,note_on,6,0,1,,,,,,,,0,,,74,72
60480,note_on,12,0,4,,,,,,,,3,,,40,116
60480,note_on,12,0,5,,,,,,,,4,,,28,105
60528,note_on,48,0,1,,,,,,,,0,,,74,0
60528,note_on,48,0,2,,,,,,,,1,,,71,0
60540,note_on,12,0,1,,,,,,,,0,,,64,105
60540,note_on,12,0,2,,,,,,,,1,,,64,105
60576,note_on,96,0,6,,,,,,,,5,,,62,0
60588,note_on,48,0,2,,,,,,,,1,,,64,0
60588,note_on,48,0,1,,,,,,,,0,,,64,0
60600,note_on,12,0,1,,,,,,,,0,,,62,105
60600,note_on,24,0,6,,,,,,,,5,,,64,105
60600,note_on,144,0,3,,,,,,,,2,,,59,105
60600,note_on,12,0,2,,,,,,,,1,,,62,105
60648,note_on,48,0,1,,,,,,,,0,,,62,0
60648,note_on,48,0,2,,,,,,,,1,,,62,0
60660,note_on,12,0,1,,,,,,,,0,,,64,105
60660,note_on,12,0,2,,,,,,,,1,,,64,105
60672,note_on,72,0,6,,,,,,,,5,,,71,0
60696,note_on,24,0,6,,,,,,,,5,,,64,0
60696,note_on,96,0,3,,,,,,,,2,,,59,0
60708,note_on,48,0,2,,,,,,,,1,,,64,0
60708,note_on,48,0,1,,,,,,,,0,,,64,0
60720,note_on,24,0,6,,,,,,,,5,,,64,105
60720,note_on,12,0,2,,,,,,,,1,,,64,105
60720,note_on,12,0,1,,,,,,,,0,,,64,105
60720,note_on,24,0,3,,,,,,,,2,,,59,105
60744,note_on,24,0,2,,,,,,,,1,,,64,0
60744,note_on,24,0,1,,,,,,,,0,,,64,0
60750,note_on,6,0,2,,,,,,,,1,,,66,105
60750,note_on,6,0,1,,,,,,,,0,,,66,105
60768,note_on,288,0,4,,,,,,,,3,,,40,0
60768,note_on,288,0,5,,,,,,,,4,,,28,0
60768,note_on,48,0,6,,,,,,,,5,,,40,0
60774,note_on,24,0,1,,,,,,,,0,,,66,0
60774,note_on,24,0,2,,,,,,,,1,,,66,0
60780,note_on,12,0,4,,,,,,,,3,,,52,116
60780,note_on,6,0,1,,,,,,,,0,,,64,105
60780,note_on,12,0,5,,,,,,,,4,,,40,105
60780,note_on,6,0,2,,,,,,,,1,,,64,105
60780,note_on,12,0,6,,,,,,,,5,,,52,105
60804,note_on,24,0,2,,,,,,,,1,,,64,0
60804,note_on,24,0,1,,,,,,,,0,,,64,0
60810,note_on,6,0,2,,,,,,,,1,,,66,105
60810,note_on,6,0,1,,,,,,,,0,,,66,105
60816,note_on,96,0,3,,,,,,,,2,,,59,0
60828,note_on,48,0,4,,,,,,,,3,,,52,0
60828,note_on,48,0,5,,,,,,,,4,,,40,0
60828,note_on,48,0,6,,,,,,,,5,,,52,0
60834,note_on,24,0,2,,,,,,,,1,,,66,0
60834,note_on,24,0,1,,,,,,,,0,,,66,0
60840,note_on,12,0,5,,,,,,,,4,,,38,105
60840,note_on,12,0,6,,,,,,,,5,,,50,105
60840,note_on,24,0,3,,,,,,,,2,,,56,105
60840,note_on,6,0,2,,,,,,,,1,,,64,105
60840,note_on,12,0,4,,,,,,,,3,,,50,116
60840,note_on,6,0,1,,,,,,,,0,,,64,105
60864,note_on,24,0,2,,,,,,,,1,,,64,0
60864,note_on,24,0,1,,,,,,,,0,,,64,0
60870,note_on,6,0,1,,,,,,,,0,,,66,105
60870,note_on,6,0,2,,,,,,,,1,,,66,105
60888,note_on,48,0,6,,,,,,,,5,,,50,0
60888,note_on,48,0,5,,,,,,,,4,,,38,0
60888,note_on,48,0,4,,,,,,,,3,,,50,0
60894,note_on,24,0,2,,,,,,,,1,,,66,0
60894,note_on,24,0,1,,,,,,,,0,,,66,0
60900,note_on,12,0,6,,,,,,,,5,,,52,105
60900,note_on,6,0,2,,,,,,,,1,,,64,105
60900,note_on,12,0,4,,,,,,,,3,,,52,116
60900,note_on,6,0,1,,,,,,,,0,,,64,105
60900,note_on,12,0,5,,,,,,,,4,,,40,105
60912,note_on,12,0,6,,,,,,,,5,,,64,0
60924,note_on,24,0,1,,,,,,,,0,,,64,0
60924,note_on,24,0,2,,,,,,,,1,,,64,0
60930,note_on,6,0,1,,,,,,,,0,,,66,105
60930,note_on,6,0,2,,,,,,,,1,,,66,105
60936,note_on,96,0,3,,,,,,,,2,,,56,0
60948,note_on,36,0,6,,,,,,,,5,,,52,0
60948,note_on,48,0,4,,,,,,,,3,,,52,0
60948,note_on,48,0,5,,,,,,,,4,,,40,0
60954,note_on,24,0,2,,,,,,,,1,,,66,0
60954,note_on,24,0,1,,,,,,,,0,,,66,0
60960,note_on,6,0,1,,,,,,,,0,,,73,105
60960,note_on,6,0,2,,,,,,,,1,,,73,105
60960,note_on,0,0,6,,,,,,,,5,,,69,105
60960,note_on,24,0,3,,,,,,,,2,,,64,105
60960,note_on,0,0,6,,,,,,,,5,,,45,105
60960,note_on,12,0,6,,,,,,,,5,,,73,105
60960,note_on,12,0,4,,,,,,,,3,,,45,116
60960,note_on,12,0,5,,,,,,,,4,,,33,105
60992,note_on,32,0,1,,,,,,,,0,,,73,0
60992,note_on,32,0,2,,,,,,,,1,,,73,0
61000,note_on,8,0,2,,,,,,,,1,,,76,105
61000,note_on,8,0,1,,,,,,,,0,,,76,105
61008,note_on,48,0,5,,,,,,,,4,,,33,0
61008,note_on,48,0,4,,,,,,,,3,,,45,0
61008,note_on,48,0,6,,,,,,,,5,,,45,0
61008,note_on,0,0,6,,,,,,,,5,,,73,0
61020,note_on,12,0,6,,,,,,,,5,,,74,105
61020,note_on,0,0,6,,,,,,,,5,,,47,105
61020,note_on,12,0,5,,,,,,,,4,,,35,105
61020,note_on,12,0,4,,,,,,,,3,,,47,116
61032,note_on,32,0,1,,,,,,,,0,,,76,0
61032,note_on,32,0,2,,,,,,,,1,,,76,0
61040,note_on,8,0,2,,,,,,,,1,,,74,105
61040,note_on,8,0,1,,,,,,,,0,,,74,105
61056,note_on,96,0,3,,,,,,,,2,,,64,0
61068,note_on,0,0,6,,,,,,,,5,,,74,0
61068,note_on,48,0,4,,,,,,,,3,,,47,0
61068,note_on,48,0,6,,,,,,,,5,,,47,0
61068,note_on,48,0,5,,,,,,,,4,,,35,0
61072,note_on,32,0,1,,,,,,,,0,,,74,0
61072,note_on,32,0,2,,,,,,,,1,,,74,0
61080,note_on,12,0,6,,,,,,,,5,,,49,105
61080,note_on,0,0,6,,,,,,,,5,,,76,105
61080,note_on,12,0,4,,,,,,,,3,,,49,116
61080,note_on,8,0,2,,,,,,,,1,,,73,105
61080,note_on,24,0,3,,,,,,,,2,,,57,105
61080,note_on,12,0,5,,,,,,,,4,,,37,105
61080,note_on,8,0,1,,,,,,,,0,,,73,105
61112,note_on,32,0,1,,,,,,,,0,,,73,0
61112,note_on,32,0,2,,,,,,,,1,,,73,0
61120,note_on,8,0,2,,,,,,,,1,,,71,105
61120,note_on,8,0,1,,,,,,,,0,,,71,105
61128,note_on,48,0,4,,,,,,,,3,,,49,0
61128,note_on,0,0,6,,,,,,,,5,,,49,0
61128,note_on,48,0,6,,,,,,,,5,,,76,0
61128,note_on,48,0,5,,,,,,,,4,,,37,0
61140,note_on,12,0,6,,,,,,,,5,,,50,105
61140,note_on,12,0,4,,,,,,,,3,,,50,116
61140,note_on,12,0,5,,,,,,,,4,,,38,105
61140,note_on,0,0,6,,,,,,,,5,,,78,105
61152,note_on,12,0,6,,,,,,,,5,,,69,0
61152,note_on,32,0,1,,,,,,,,0,,,71,0
61152,note_on,32,0,2,,,,,,,,1,,,71,0
61160,note_on,8,0,1,,,,,,,,0,,,69,105
61160,note_on,8,0,2,,,,,,,,1,,,69,105
61176,note_on,96,0,3,,,,,,,,2,,,57,0
61188,note_on,0,0,6,,,,,,,,5,,,50,0
61188,note_on,48,0,5,,,,,,,,4,,,38,0
61188,note_on,48,0,4,,,,,,,,3,,,50,0
61188,note_on,36,0,6,,,,,,,,5,,,78,0
61192,note_on,32,0,2,,,,,,,,1,,,69,0
61192,note_on,32,0,1,,,,,,,,0,,,69,0
61200,note_on,8,0,1,,,,,,,,0,,,64,105
61200,note_on,12,0,5,,,,,,,,4,,,40,105
61200,note_on,8,0,2,,,,,,,,1,,,64,105
61200,note_on,24,0,3,,,,,,,,2,,,56,105
61200,note_on,12,0,4,,,,,,,,3,,,52,116
61200,note_on,0,0,6,,,,,,,,5,,,68,105
61200,note_on,0,0,6,,,,,,,,5,,,76,105
61200,note_on,12,0,6,,,,,,,,5,,,52,105
61296,note_on,0,0,6,,,,,,,,5,,,52,0
61296,note_on,96,0,5,,,,,,,,4,,,40,0
61296,note_on,96,0,4,,,,,,,,3,,,52,0
61296,note_on,96,0,2,,,,,,,,1,,,64,0
61296,note_on,96,0,1,,,,,,,,0,,,64,0
61296,note_on,96,0,6,,,,,,,,5,,,68,0
61320,note_on,24,0,5,,,,,,,,4,,,28,105
61320,note_on,24,0,2,,,,,,,,1,,,74,105
61320,note_on,24,0,4,,,,,,,,3,,,40,116
61320,note_on,24,0,1,,,,,,,,0,,,74,105
61320,note_on,0,0,6,,,,,,,,5,,,71,105
61320,note_on,24,0,6,,,,,,,,5,,,40,105
61392,note_on,192,0,3,,,,,,,,2,,,56,0
61392,note_on,72,0,6,,,,,,,,5,,,76,0
61416,note_on,96,0,1,,,,,,,,0,,,74,0
61416,note_on,96,0,4,,,,,,,,3,,,40,0
61416,note_on,96,0,2,,,,,,,,1,,,74,0
61416,note_on,0,0,6,,,,,,,,5,,,40,0
61416,note_on,24,0,6,,,,,,,,5,,,71,0
61416,note_on,96,0,5,,,,,,,,4,,,28,0
61440,note_on,24,0,5,,,,,,,,4,,,33,105
61440,note_on,24,0,4,,,,,,,,3,,,45,116
61440,note_on,24,0,1,,,,,,,,0,,,73,105
61440,note_on,48,0,3,,,,,,,,2,,,64,105
61440,note_on,0,0,6,,,,,,,,5,,,45,105
61440,note_on,24,0,2,,,,,,,,1,,,73,105
61440,note_on,24,0,6,,,,,,,,5,,,73,105
61440,note_on,0,0,6,,,,,,,,5,,,69,105
61472,note_on,32,0,2,,,,,,,,1,,,73,0
61472,note_on,32,0,1,,,,,,,,0,,,73,0
61480,note_on,8,0,1,,,,,,,,0,,,76,105
61480,note_on,8,0,2,,,,,,,,1,,,76,105
61488,note_on,48,0,4,,,,,,,,3,,,45,0
61488,note_on,48,0,6,,,,,,,,5,,,45,0
61488,note_on,48,0,5,,,,,,,,4,,,33,0
61488,note_on,0,0,6,,,,,,,,5,,,73,0
61500,note_on,12,0,5,,,,,,,,4,,,35,105
61500,note_on,12,0,6,,,,,,,,5,,,47,105
61500,note_on,0,0,6,,,,,,,,5,,,74,105
61500,note_on,12,0,4,,,,,,,,3,,,47,116
61512,note_on,32,0,2,,,,,,,,1,,,76,0
61512,note_on,32,0,1,,,,,,,,0,,,76,0
61520,note_on,8,0,2,,,,,,,,1,,,74,105
61520,note_on,8,0,1,,,,,,,,0,,,74,105
61536,note_on,96,0,3,,,,,,,,2,,,64,0
61548,note_on,48,0,4,,,,,,,,3,,,47,0
61548,note_on,48,0,6,,,,,,,,5,,,74,0
61548,note_on,48,0,5,,,,,,,,4,,,35,0
61548,note_on,0,0,6,,,,,,,,5,,,47,0
61552,note_on,32,0,2,,,,,,,,1,,,74,0
61552,note_on,32,0,1,,,,,,,,0,,,74,0
61560,note_on,8,0,2,,,,,,,,1,,,73,105
61560,note_on,8,0,1,,,,,,,,0,,,73,105
61560,note_on,0,0,6,,,,,,,,5,,,49,105
61560,note_on,24,0,3,,,,,,,,2,,,57,105
61560,note_on,12,0,6,,,,,,,,5,,,76,105
61560,note_on,12,0,5,,,,,,,,4,,,37,105
61560,note_on,12,0,4,,,,,,,,3,,,49,116
61592,note_on,32,0,1,,,,,,,,0,,,73,0
61592,note_on,32,0,2,,,,,,,,1,,,73,0
61600,note_on,8,0,2,,,,,,,,1,,,71,105
61600,note_on,8,0,1,,,,,,,,0,,,71,105
61608,note_on,48,0,4,,,,,,,,3,,,49,0
61608,note_on,0,0,6,,,,,,,,5,,,76,0
61608,note_on,48,0,6,,,,,,,,5,,,49,0
61608,note_on,48,0,5,,,,,,,,4,,,37,0
61620,note_on,12,0,4,,,,,,,,3,,,50,116
61620,note_on,0,0,6,,,,,,,,5,,,50,105
61620,note_on,12,0,6,,,,,,,,5,,,78,105
61620,note_on,12,0,5,,,,,,,,4,,,38,105
61632,note_on,32,0,1,,,,,,,,0,,,71,0
61632,note_on,12,0,6,,,,,,,,5,,,69,0
61632,note_on,32,0,2,,,,,,,,1,,,71,0
61640,note_on,8,0,2,,,,,,,,1,,,69,105
61640,note_on,8,0,1,,,,,,,,0,,,69,105
61656,note_on,96,0,3,,,,,,,,2,,,57,0
61668,note_on,48,0,4,,,,,,,,3,,,50,0
61668,note_on,48,0,5,,,,,,,,4,,,38,0
61668,note_on,36,0,6,,,,,,,,5,,,50,0
61668,note_on,0,0,6,,,,,,,,5,,,78,0
61672,note_on,32,0,2,,,,,,,,1,,,69,0
61672,note_on,32,0,1,,,,,,,,0,,,69,0
61680,note_on,8,0,1,,,,,,,,0,,,64,105
61680,note_on,8,0,2,,,,,,,,1,,,64,105
61680,note_on,24,0,3,,,,,,,,2,,,56,105
61680,note_on,12,0,5,,,,,,,,4,,,40,105
61680,note_on,12,0,4,,,,,,,,3,,,52,116
61680,note_on,12,0,6,,,,,,,,5,,,76,105
61680,note_on,0,0,6,,,,,,,,5,,,52,105
61680,note_on,0,0,6,,,,,,,,5,,,68,105
61776,note_on,96,0,2,,,,,,,,1,,,64,0
61776,note_on,96,0,4,,,,,,,,3,,,52,0
61776,note_on,96,0,1,,,,,,,,0,,,64,0
61776,note_on,96,0,5,,,,,,,,4,,,40,0
61776,note_on,96,0,6,,,,,,,,5,,,68,0
61776,note_on,0,0,6,,,,,,,,5,,,52,0
61800,note_on,24,0,4,,,,,,,,3,,,40,116
61800,note_on,24,0,1,,,,,,,,0,,,74,105
61800,note_on,24,0,5,,,,,,,,4,,,28,105
61800,note_on,24,0,6,,,,,,,,5,,,40,105
61800,note_on,24,0,2,,,,,,,,1,,,74,105
61800,note_on,0,0,6,,,,,,,,5,,,71,105
61872,note_on,72,0,6,,,,,,,,5,,,76,0
61872,note_on,192,0,3,,,,,,,,2,,,56,0
61896,note_on,96,0,4,,,,,,,,3,,,40,0
61896,note_on,96,0,2,,,,,,,,1,,,74,0
61896,note_on,96,0,5,,,,,,,,4,,,28,0
61896,note_on,0,0,6,,,,,,,,5,,,40,0
61896,note_on,24,0,6,,,,,,,,5,,,71,0
61896,note_on,96,0,1,,,,,,,,0,,,74,0
61920,note_on,0,0,6,,,,,,,,5,,,69,105
61920,note_on,48,0,3,,,,,,,,2,,,64,105
61920,note_on,24,0,5,,,,,,,,4,,,33,105
61920,note_on,24,0,4,,,,,,,,3,,,45,116
61920,note_on,24,0,6,,,,,,,,5,,,45,105
61920,note_on,24,0,2,,,,,,,,1,,,73,105
61920,note_on,24,0,1,,,,,,,,0,,,73,105
61920,note_on,0,0,6,,,,,,,,5,,,73,105
61952,note_on,32,0,1,,,,,,,,0,,,73,0
61952,note_on,32,0,2,,,,,,,,1,,,73,0
61960,note_on,8,0,1,,,,,,,,0,,,76,105
61960,note_on,8,0,2,,,,,,,,1,,,76,105
61968,note_on,48,0,4,,,,,,,,3,,,45,0
61968,note_on,0,0,6,,,,,,,,5,,,45,0
61968,note_on,48,0,6,,,,,,,,5,,,73,0
61968,note_on,48,0,5,,,,,,,,4,,,33,0
61980,note_on,0,0,6,,,,,,,,5,,,47,105
61980,note_on,12,0,6,,,,,,,,5,,,74,105
61980,note_on,12,0,4,,,,,,,,3,,,47,116
61980,note_on,12,0,5,,,,,,,,4,,,35,105
61992,note_on,32,0,2,,,,,,,,1,,,76,0
61992,note_on,32,0,1,,,,,,,,0,,,76,0
62000,note_on,8,0,1,,,,,,,,0,,,74,105
62000,note_on,8,0,2,,,,,,,,1,,,74,105
62016,note_on,96,0,3,,,,,,,,2,,,64,0
62028,note_on,48,0,5,,,,,,,,4,,,35,0
62028,note_on,0,0,6,,,,,,,,5,,,74,0
62028,note_on,48,0,6,,,,,,,,5,,,47,0
62028,note_on,48,0,4,,,,,,,,3,,,47,0
62032,note_on,32,0,1,,,,,,,,0,,,74,0
62032,note_on,32,0,2,,,,,,,,1,,,74,0
62040,note_on,0,0,6,,,,,,,,5,,,76,105
62040,note_on,12,0,6,,,,,,,,5,,,49,105
62040,note_on,12,0,5,,,,,,,,4,,,37,105
62040,note_on,8,0,2,,,,,,,,1,,,73,105
62040,note_on,8,0,1,,,,,,,,0,,,73,105
62040,note_on,12,0,4,,,,,,,,3,,,49,116
62040,note_on,24,0,3,,,,,,,,2,,,57,105
62072,note_on,32,0,2,,,,,,,,1,,,73,0
62072,note_on,32,0,1,,,,,,,,0,,,73,0
62080,note_on,8,0,1,,,,,,,,0,,,71,105
62080,note_on,8,0,2,,,,,,,,1,,,71,105
62088,note_on,48,0,6,,,,,,,,5,,,76,0
62088,note_on,0,0,6,,,,,,,,5,,,49,0
62088,note_on,48,0,4,,,,,,,,3,,,49,0
62088,note_on,48,0,5,,,,,,,,4,,,37,0
62100,note_on,12,0,5,,,,,,,,4,,,38,105
62100,note_on,0,0,6,,,,,,,,5,,,50,105
62100,note_on,12,0,6,,,,,,,,5,,,78,105
62100,note_on,12,0,4,,,,,,,,3,,,50,116
62112,note_on,32,0,1,,,,,,,,0,,,71,0
62112,note_on,32,0,2,,,,,,,,1,,,71,0
62112,note_on,12,0,6,,,,,,,,5,,,69,0
62120,note_on,8,0,1,,,,,,,,0,,,69,105
62120,note_on,8,0,2,,,,,,,,1,,,69,105
62136,note_on,96,0,3,,,,,,,,2,,,57,0
62148,note_on,48,0,5,,,,,,,,4,,,38,0
62148,note_on,48,0,4,,,,,,,,3,,,50,0
62148,note_on,36,0,6,,,,,,,,5,,,50,0
62148,note_on,0,0,6,,,,,,,,5,,,78,0
62152,note_on,32,0,2,,,,,,,,1,,,69,0
62152,note_on,32,0,1,,,,,,,,0,,,69,0
62160,note_on,12,0,5,,,,,,,,4,,,40,105
62160,note_on,8,0,2,,,,,,,,1,,,64,105
62160,note_on,12,0,4,,,,,,,,3,,,52,116
62160,note_on,8,0,1,,,,,,,,0,,,64,105
62160,note_on,24,0,3,,,,,,,,2,,,56,105
62160,note_on,12,0,6,,,,,,,,5,,,52,105
62160,note_on,0,0,6,,,,,,,,5,,,76,105
62160,note_on,0,0,6,,,,,,,,5,,,68,105
62256,note_on,96,0,1,,,,,,,,0,,,64,0
62256,note_on,96,0,2,,,,,,,,1,,,64,0
62256,note_on,96,0,6,,,,,,,,5,,,68,0
62256,note_on,0,0,6,,,,,,,,5,,,52,0
62256,note_on,96,0,5,,,,,,,,4,,,40,0
62256,note_on,96,0,4,,,,,,,,3,,,52,0
62256,note_on,96,0,3,,,,,,,,2,,,56,0
62280,note_on,24,0,1,,,,,,,,0,,,80,105
62280,note_on,24,0,2,,,,,,,,1,,,80,105
62280,note_on,24,0,4,,,,,,,,3,,,40,116
62280,note_on,24,0,3,,,,,,,,2,,,59,105
62280,note_on,0,0,6,,,,,,,,5,,,71,105
62280,note_on,24,0,6,,,,,,,,5,,,40,105
62280,note_on,24,0,5,,,,,,,,4,,,28,105
62352,note_on,72,0,6,,,,,,,,5,,,76,0
62376,note_on,96,0,5,,,,,,,,4,,,28,0
62376,note_on,96,0,2,,,,,,,,1,,,80,0
62376,note_on,24,0,6,,,,,,,,5,,,71,0
62376,note_on,0,0,6,,,,,,,,5,,,40,0
62376,note_on,96,0,1,,,,,,,,0,,,80,0
62376,note_on,96,0,4,,,,,,,,3,,,40,0
62376,note_on,96,0,3,,,,,,,,2,,,59,0
62400,note_on,24,0,4,,,,,,,,3,,,45,72
62400,note_on,0,0,6,,,,,,,,5,,,45,105
62400,note_on,0,0,6,,,,,,,,5,,,73,105
62400,note_on,24,0,3,,,,,,,,2,,,61,105
62400,note_on,24,0,1,,,,,,,,0,,,81,105
62400,note_on,24,0,5,,,,,,,,4,,,33,105
62400,note_on,24,0,6,,,,,,,,5,,,76,105
62400,note_on,24,0,2,,,,,,,,1,,,81,105
62496,note_on,96,0,6,,,,,,,,5,,,73,0
62496,note_on,0,0,6,,,,,,,,5,,,45,0
62496,note_on,0,0,6,,,,,,,,5,,,76,0
62496,note_on,96,0,5,,,,,,,,4,,,33,0
62496,note_on,96,0,4,,,,,,,,3,,,45,0
62496,note_on,96,0,3,,,,,,,,2,,,61,0
62520,note_on,0,0,6,,,,,,,,5,,,61,72
62520,note_on,24,0,6,,,,,,,,5,,,57,72
62520,note_on,24,0,3,,,,,,,,2,,,61,105
62520,note_on,24,0,5,,,,,,,,4,,,45,72
62520,note_on,24,0,4,,,,,,,,3,,,57,72
62568,note_on,48,0,4,,,,,,,,3,,,57,0
62568,note_on,0,0,6,,,,,,,,5,,,57,0
62568,note_on,48,0,6,,,,,,,,5,,,61,0
62568,note_on,48,0,5,,,,,,,,4,,,45,0
62580,note_on,0,0,6,,,,,,,,5,,,62,72
62580,note_on,12,0,6,,,,,,,,5,,,59,72
62580,note_on,12,0,4,,,,,,,,3,,,59,72
62580,note_on,12,0,5,,,,,,,,4,,,47,72
62592,note_on,192,0,2,,,,,,,,1,,,81,0
62592,note_on,192,0,1,,,,,,,,0,,,81,0
62616,note_on,96,0,3,,,,,,,,2,,,61,0
62628,note_on,48,0,6,,,,,,,,5,,,62,0
62628,note_on,48,0,4,,,,,,,,3,,,59,0
62628,note_on,48,0,5,,,,,,,,4,,,47,0
62628,note_on,0,0,6,,,,,,,,5,,,59,0
62640,note_on,12,0,4,,,,,,,,3,,,60,72
62640,note_on,12,0,5,,,,,,,,4,,,48,72
62640,note_on,12,0,6,,,,,,,,5,,,60,72
62640,note_on,0,0,6,,,,,,,,5,,,64,72
62640,note_on,24,0,3,,,,,,,,2,,,64,105
62736,note_on,0,0,6,,,,,,,,5,,,60,0
62736,note_on,96,0,4,,,,,,,,3,,,60,0
62736,note_on,96,0,3,,,,,,,,2,,,64,0
62736,note_on,96,0,5,,,,,,,,4,,,48,0
62736,note_on,96,0,6,,,,,,,,5,,,64,0
62760,note_on,168,0,2,,,,,,,,1,,,76,72
62760,note_on,24,0,3,,,,,,,,2,,,60,105
62760,note_on,0,0,6,,,,,,,,5,,,60,72
62760,note_on,24,0,5,,,,,,,,4,,,45,72
62760,note_on,0,0,6,,,,,,,,5,,,69,72
62760,note_on,168,0,1,,,,,,,,0,,,81,105
62760,note_on,24,0,6,,,,,,,,5,,,57,72
62760,note_on,24,0,4,,,,,,,,3,,,57,72
62856,note_on,96,0,6,,,,,,,,5,,,60,0
62856,note_on,0,0,6,,,,,,,,5,,,69,0
62856,note_on,0,0,6,,,,,,,,5,,,57,0
62856,note_on,96,0,5,,,,,,,,4,,,45,0
62856,note_on,96,0,4,,,,,,,,3,,,57,0
62856,note_on,96,0,2,,,,,,,,1,,,76,0
62856,note_on,96,0,3,,,,,,,,2,,,60,0
62856,note_on,96,0,1,,,,,,,,0,,,81,0
62880,note_on,0,0,6,,,,,,,,5,,,68,72
62880,note_on,24,0,2,,,,,,,,1,,,68,72
62880,note_on,24,0,5,,,,,,,,4,,,40,72
62880,note_on,24,0,3,,,,,,,,2,,,64,105
62880,note_on,0,0,6,,,,,,,,5,,,59,72
62880,note_on,24,0,6,,,,,,,,5,,,52,72
62880,note_on,24,0,1,,,,,,,,0,,,71,72
62880,note_on,24,0,4,,,,,,,,3,,,52,72
62976,note_on,96,0,2,,,,,,,,1,,,68,0
62976,note_on,96,0,1,,,,,,,,0,,,71,0
63000,note_on,24,0,2,,,,,,,,1,,,69,72
63000,note_on,24,0,1,,,,,,,,0,,,72,72
63048,note_on,48,0,2,,,,,,,,1,,,69,0
63048,note_on,48,0,1,,,,,,,,0,,,72,0
63060,note_on,12,0,1,,,,,,,,0,,,74,72
63060,note_on,12,0,2,,,,,,,,1,,,71,72
63072,note_on,192,0,6,,,,,,,,5,,,59,0
63108,note_on,48,0,2,,,,,,,,1,,,71,0
63108,note_on,48,0,1,,,,,,,,0,,,74,0
63120,note_on,12,0,2,,,,,,,,1,,,69,72
63120,note_on,48,0,6,,,,,,,,5,,,64,72
63120,note_on,12,0,1,,,,,,,,0,,,72,72
63216,note_on,96,0,1,,,,,,,,0,,,72,0
63216,note_on,96,0,2,,,,,,,,1,,,69,0
63240,note_on,24,0,2,,,,,,,,1,,,68,72
63240,note_on,24,0,1,,,,,,,,0,,,71,72
63264,note_on,384,0,3,,,,,,,,2,,,64,0
63264,note_on,384,0,4,,,,,,,,3,,,52,0
63264,note_on,384,0,5,,,,,,,,4,,,40,0
63264,note_on,0,0,6,,,,,,,,5,,,52,0
63264,note_on,144,0,6,,,,,,,,5,,,68,0
63312,note_on,48,0,6,,,,,,,,5,,,64,0
63336,note_on,96,0,1,,,,,,,,0,,,71,0
63336,note_on,96,0,2,,,,,,,,1,,,68,0
63360,note_on,24,0,2,,,,,,,,1,,,69,72
63360,note_on,96,0,5,,,,,,,,4,,,33,72
63360,note_on,24,0,1,,,,,,,,0,,,72,72
63360,note_on,96,0,3,,,,,,,,2,,,64,105
63360,note_on,96,0,4,,,,,,,,3,,,45,72
63360,note_on,0,0,6,,,,,,,,5,,,61,72
63360,note_on,0,0,6,,,,,,,,5,,,45,72
63360,note_on,48,0,6,,,,,,,,5,,,69,72
63456,note_on,96,0,3,,,,,,,,2,,,64,0
63456,note_on,96,0,4,,,,,,,,3,,,45,0
63456,note_on,96,0,6,,,,,,,,5,,,61,0
63456,note_on,0,0,6,,,,,,,,5,,,45,0
63456,note_on,96,0,1,,,,,,,,0,,,72,0
63456,note_on,96,0,2,,,,,,,,1,,,69,0
63456,note_on,96,0,5,,,,,,,,4,,,33,0
63480,note_on,0,0,6,,,,,,,,5,,,61,72
63480,note_on,24,0,1,,,,,,,,0,,,69,72
63480,note_on,24,0,5,,,,,,,,4,,,45,72
63480,note_on,24,0,6,,,,,,,,5,,,57,72
63480,note_on,24,0,2,,,,,,,,1,,,64,72
63480,note_on,24,0,3,,,,,,,,2,,,60,105
63480,note_on,24,0,4,,,,,,,,3,,,57,72
63528,note_on,48,0,4,,,,,,,,3,,,57,0
63528,note_on,0,0,6,,,,,,,,5,,,57,0
63528,note_on,48,0,6,,,,,,,,5,,,61,0
63528,note_on,48,0,5,,,,,,,,4,,,45,0
63540,note_on,12,0,6,,,,,,,,5,,,59,72
63540,note_on,12,0,5,,,,,,,,4,,,47,72
63540,note_on,0,0,6,,,,,,,,5,,,62,72
63540,note_on,12,0,4,,,,,,,,3,,,59,72
63576,note_on,96,0,3,,,,,,,,2,,,60,0
63588,note_on,0,0,6,,,,,,,,5,,,59,0
63588,note_on,48,0,6,,,,,,,,5,,,62,0
63588,note_on,48,0,4,,,,,,,,3,,,59,0
63588,note_on,48,0,5,,,,,,,,4,,,47,0
63600,note_on,0,0,6,,,,,,,,5,,,64,72
63600,note_on,12,0,6,,,,,,,,5,,,60,72
63600,note_on,12,0,5,,,,,,,,4,,,48,72
63600,note_on,12,0,4,,,,,,,,3,,,60,72
63600,note_on,24,0,3,,,,,,,,2,,,64,105
63672,note_on,192,0,1,,,,,,,,0,,,69,0
63672,note_on,192,0,2,,,,,,,,1,,,64,0
63696,note_on,96,0,3,,,,,,,,2,,,64,0
63696,note_on,96,0,4,,,,,,,,3,,,60,0
63696,note_on,96,0,6,,,,,,,,5,,,64,0
63696,note_on,96,0,5,,,,,,,,4,,,48,0
63696,note_on,0,0,6,,,,,,,,5,,,60,0
63720,note_on,48,0,1,,,,,,,,0,,,81,72
63720,note_on,24,0,3,,,,,,,,2,,,60,105
63720,note_on,48,0,2,,,,,,,,1,,,76,72
63720,note_on,24,0,5,,,,,,,,4,,,45,72
63720,note_on,0,0,6,,,,,,,,5,,,61,72
63720,note_on,24,0,4,,,,,,,,3,,,57,72
63720,note_on,24,0,6,,,,,,,,5,,,57,72
63744,note_on,24,0,6,,,,,,,,5,,,69,0
63816,note_on,96,0,2,,,,,,,,1,,,76,0
63816,note_on,72,0,6,,,,,,,,5,,,61,0
63816,note_on,96,0,3,,,,,,,,2,,,60,0
63816,note_on,96,0,4,,,,,,,,3,,,57,0
63816,note_on,0,0,6,,,,,,,,5,,,57,0
63816,note_on,96,0,5,,,,,,,,4,,,45,0
63816,note_on,96,0,1,,,,,,,,0,,,81,0
63840,note_on,24,0,5,,,,,,,,4,,,40,72
63840,note_on,24,0,2,,,,,,,,1,,,68,72
63840,note_on,24,0,4,,,,,,,,3,,,52,72
63840,note_on,24,0,6,,,,,,,,5,,,52,72
63840,note_on,24,0,3,,,,,,,,2,,,64,105
63840,note_on,0,0,6,,,,,,,,5,,,59,72
63840,note_on,0,0,6,,,,,,,,5,,,68,72
63840,note_on,24,0,1,,,,,,,,0,,,71,72
63936,note_on,96,0,2,,,,,,,,1,,,68,0
63936,note_on,96,0,1,,,,,,,,0,,,71,0
63960,note_on,24,0,1,,,,,,,,0,,,72,72
63960,note_on,24,0,2,,,,,,,,1,,,69,72
64008,note_on,48,0,2,,,,,,,,1,,,69,0
64008,note_on,48,0,1,,,,,,,,0,,,72,0
64020,note_on,12,0,2,,,,,,,,1,,,71,72
64020,note_on,12,0,1,,,,,,,,0,,,74,72
64032,note_on,192,0,6,,,,,,,,5,,,59,0
64068,note_on,48,0,1,,,,,,,,0,,,74,0
64068,note_on,48,0,2,,,,,,,,1,,,71,0
64080,note_on,12,0,2,,,,,,,,1,,,69,72
64080,note_on,48,0,6,,,,,,,,5,,,64,72
64080,note_on,12,0,1,,,,,,,,0,,,72,72
64176,note_on,96,0,1,,,,,,,,0,,,72,0
64176,note_on,96,0,2,,,,,,,,1,,,69,0
64200,note_on,24,0,1,,,,,,,,0,,,71,72
64200,note_on,24,0,2,,,,,,,,1,,,68,72
64224,note_on,384,0,5,,,,,,,,4,,,40,0
64224,note_on,384,0,4,,,,,,,,3,,,52,0
64224,note_on,384,0,3,,,,,,,,2,,,64,0
64224,note_on,144,0,6,,,,,,,,5,,,68,0
64224,note_on,0,0,6,,,,,,,,5,,,52,0
64272,note_on,48,0,6,,,,,,,,5,,,64,0
64296,note_on,96,0,1,,,,,,,,0,,,71,0
64296,note_on,96,0,2,,,,,,,,1,,,68,0
64320,note_on,0,0,6,,,,,,,,5,,,61,72
64320,note_on,24,0,1,,,,,,,,0,,,72,72
64320,note_on,96,0,3,,,,,,,,2,,,64,105
64320,note_on,0,0,6,,,,,,,,5,,,69,72
64320,note_on,48,0,6,,,,,,,,5,,,45,72
64320,note_on,24,0,2,,,,,,,,1,,,69,72
64320,note_on,96,0,5,,,,,,,,4,,,33,72
64320,note_on,96,0,4,,,,,,,,3,,,45,72
64416,note_on,96,0,1,,,,,,,,0,,,72,0
64416,note_on,96,0,2,,,,,,,,1,,,69,0
64416,note_on,0,0,6,,,,,,,,5,,,45,0
64416,note_on,96,0,6,,,,,,,,5,,,61,0
64416,note_on,96,0,3,,,,,,,,2,,,64,0
64416,note_on,96,0,5,,,,,,,,4,,,33,0
64416,note_on,96,0,4,,,,,,,,3,,,45,0
64440,note_on,24,0,4,,,,,,,,3,,,57,72
64440,note_on,24,0,2,,,,,,,,1,,,64,72
64440,note_on,24,0,3,,,,,,,,2,,,60,105
64440,note_on,24,0,1,,,,,,,,0,,,69,72
64440,note_on,0,0,6,,,,,,,,5,,,61,72
64440,note_on,24,0,5,,,,,,,,4,,,45,72
64440,note_on,24,0,6,,,,,,,,5,,,57,72
64488,note_on,48,0,6,,,,,,,,5,,,61,0
64488,note_on,0,0,6,,,,,,,,5,,,57,0
64488,note_on,48,0,5,,,,,,,,4,,,45,0
64488,note_on,48,0,4,,,,,,,,3,,,57,0
64500,note_on,12,0,5,,,,,,,,4,,,47,72
64500,note_on,0,0,6,,,,,,,,5,,,62,72
64500,note_on,12,0,6,,,,,,,,5,,,59,72
64500,note_on,12,0,4,,,,,,,,3,,,59,72
64536,note_on,96,0,3,,,,,,,,2,,,60,0
64548,note_on,0,0,6,,,,,,,,5,,,59,0
64548,note_on,48,0,6,,,,,,,,5,,,62,0
64548,note_on,48,0,5,,,,,,,,4,,,47,0
64548,note_on,48,0,4,,,,,,,,3,,,59,0
64560,note_on,12,0,5,,,,,,,,4,,,48,72
64560,note_on,0,0,6,,,,,,,,5,,,64,72
64560,note_on,24,0,3,,,,,,,,2,,,64,105
64560,note_on,12,0,4,,,,,,,,3,,,60,72
64560,note_on,12,0,6,,,,,,,,5,,,60,72
64632,note_on,192,0,1,,,,,,,,0,,,69,0
64632,note_on,192,0,2,,,,,,,,1,,,64,0
64656,note_on,96,0,6,,,,,,,,5,,,64,0
64656,note_on,96,0,4,,,,,,,,3,,,60,0
64656,note_on,0,0,6,,,,,,,,5,,,60,0
64656,note_on,96,0,3,,,,,,,,2,,,64,0
64656,note_on,96,0,5,,,,,,,,4,,,48,0
64680,note_on,24,0,3,,,,,,,,2,,,60,105
64680,note_on,24,0,6,,,,,,,,5,,,57,72
64680,note_on,24,0,4,,,,,,,,3,,,57,72
64680,note_on,48,0,2,,,,,,,,1,,,81,72
64680,note_on,24,0,5,,,,,,,,4,,,45,72
64680,note_on,48,0,1,,,,,,,,0,,,81,72
64680,note_on,0,0,6,,,,,,,,5,,,61,72
64704,note_on,24,0,6,,,,,,,,5,,,69,0
64776,note_on,72,0,6,,,,,,,,5,,,61,0
64776,note_on,96,0,5,,,,,,,,4,,,45,0
64776,note_on,0,0,6,,,,,,,,5,,,57,0
64776,note_on,96,0,1,,,,,,,,0,,,81,0
64776,note_on,96,0,3,,,,,,,,2,,,60,0
64776,note_on,96,0,2,,,,,,,,1,,,81,0
64776,note_on,96,0,4,,,,,,,,3,,,57,0
64800,note_on,24,0,6,,,,,,,,5,,,52,72
64800,note_on,24,0,1,,,,,,,,0,,,80,72
64800,note_on,24,0,5,,,,,,,,4,,,40,72
64800,note_on,24,0,3,,,,,,,,2,,,68,105
64800,note_on,24,0,4,,,,,,,,3,,,52,72
64800,note_on,0,0,6,,,,,,,,5,,,68,72
64800,note_on,0,0,6,,,,,,,,5,,,59,72
64800,note_on,24,0,2,,,,,,,,1,,,80,72
64824,note_on,24,0,2,,,,,,,,1,,,80,0
64824,note_on,24,0,1,,,,,,,,0,,,80,0
64830,note_on,6,0,1,,,,,,,,0,,,81,72
64830,note_on,6,0,2,,,,,,,,1,,,81,72
64854,note_on,24,0,2,,,,,,,,1,,,81,0
64854,note_on,24,0,1,,,,,,,,0,,,81,0
64860,note_on,6,0,2,,,,,,,,1,,,83,72
64860,note_on,6,0,1,,,,,,,,0,,,83,72
64896,note_on,0,0,6,,,,,,,,5,,,52,0
64896,note_on,0,0,6,,,,,,,,5,,,68,0
64896,note_on,96,0,6,,,,,,,,5,,,59,0
64896,note_on,96,0,4,,,,,,,,3,,,52,0
64896,note_on,96,0,3,,,,,,,,2,,,68,0
64896,note_on,96,0,5,,,,,,,,4,,,40,0
64920,note_on,24,0,4,,,,,,,,3,,,57,72
64920,note_on,0,0,6,,,,,,,,5,,,57,72
64920,note_on,24,0,5,,,,,,,,4,,,45,72
64920,note_on,24,0,6,,,,,,,,5,,,69,72
64920,note_on,0,0,6,,,,,,,,5,,,61,72
64920,note_on,24,0,3,,,,,,,,2,,,64,105
64932,note_on,72,0,2,,,,,,,,1,,,83,0
64932,note_on,72,0,1,,,,,,,,0,,,83,0
64950,note_on,18,0,2,,,,,,,,1,,,81,72
64950,note_on,18,0,1,,,,,,,,0,,,81,72
65016,note_on,96,0,6,,,,,,,,5,,,57,0
65016,note_on,96,0,4,,,,,,,,3,,,57,0
65016,note_on,0,0,6,,,,,,,,5,,,61,0
65016,note_on,0,0,6,,,,,,,,5,,,69,0
65016,note_on,96,0,3,,,,,,,,2,,,64,0
65016,note_on,96,0,5,,,,,,,,4,,,45,0
65022,note_on,72,0,2,,,,,,,,1,,,81,0
65022,note_on,72,0,1,,,,,,,,0,,,81,0
65040,note_on,24,0,5,,,,,,,,4,,,40,72
65040,note_on,24,0,6,,,,,,,,5,,,52,72
65040,note_on,0,0,6,,,,,,,,5,,,59,72
65040,note_on,24,0,4,,,,,,,,3,,,52,72
65040,note_on,18,0,1,,,,,,,,0,,,80,72
65040,note_on,18,0,2,,,,,,,,1,,,80,72
65040,note_on,0,0,6,,,,,,,,5,,,68,72
65040,note_on,24,0,3,,,,,,,,2,,,68,105
65064,note_on,24,0,2,,,,,,,,1,,,80,0
65064,note_on,24,0,1,,,,,,,,0,,,80,0
65070,note_on,6,0,2,,,,,,,,1,,,81,72
65070,note_on,6,0,1,,,,,,,,0,,,81,72
65094,note_on,24,0,1,,,,,,,,0,,,81,0
65094,note_on,24,0,2,,,,,,,,1,,,81,0
65100,note_on,6,0,1,,,,,,,,0,,,83,72
65100,note_on,6,0,2,,,,,,,,1,,,83,72
65136,note_on,96,0,6,,,,,,,,5,,,68,0
65136,note_on,96,0,3,,,,,,,,2,,,68,0
65136,note_on,96,0,5,,,,,,,,4,,,40,0
65136,note_on,96,0,4,,,,,,,,3,,,52,0
65136,note_on,0,0,6,,,,,,,,5,,,59,0
65136,note_on,0,0,6,,,,,,,,5,,,52,0
65160,note_on,0,0,6,,,,,,,,5,,,69,72
65160,note_on,24,0,5,,,,,,,,4,,,45,72
65160,note_on,24,0,3,,,,,,,,2,,,64,105
65160,note_on,24,0,4,,,,,,,,3,,,57,72
65160,note_on,0,0,6,,,,,,,,5,,,61,72
65160,note_on,24,0,6,,,,,,,,5,,,57,72
65172,note_on,72,0,1,,,,,,,,0,,,83,0
65172,note_on,72,0,2,,,,,,,,1,,,83,0
65190,note_on,18,0,1,,,,,,,,0,,,81,72
65190,note_on,18,0,2,,,,,,,,1,,,81,72
65256,note_on,96,0,3,,,,,,,,2,,,64,0
65256,note_on,96,0,6,,,,,,,,5,,,61,0
65256,note_on,0,0,6,,,,,,,,5,,,69,0
65256,note_on,96,0,4,,,,,,,,3,,,57,0
65256,note_on,96,0,5,,,,,,,,4,,,45,0
65256,note_on,0,0,6,,,,,,,,5,,,57,0
65262,note_on,72,0,2,,,,,,,,1,,,81,0
65262,note_on,72,0,1,,,,,,,,0,,,81,0
65280,note_on,24,0,4,,,,,,,,3,,,52,72
65280,note_on,24,0,3,,,,,,,,2,,,68,105
65280,note_on,18,0,2,,,,,,,,1,,,71,72
65280,note_on,0,0,6,,,,,,,,5,,,62,72
65280,note_on,0,0,6,,,,,,,,5,,,52,72
65280,note_on,18,0,1,,,,,,,,0,,,74,72
65280,note_on,24,0,5,,,,,,,,4,,,40,72
65280,note_on,24,0,6,,,,,,,,5,,,71,72
65328,note_on,48,0,2,,,,,,,,1,,,71,0
65328,note_on,48,0,1,,,,,,,,0,,,74,0
65340,note_on,12,0,1,,,,,,,,0,,,73,72
65340,note_on,12,0,2,,,,,,,,1,,,69,72
65388,note_on,48,0,1,,,,,,,,0,,,73,0
65388,note_on,48,0,2,,,,,,,,1,,,69,0
65400,note_on,12,0,1,,,,,,,,0,,,74,72
65400,note_on,12,0,2,,,,,,,,1,,,71,72
65448,note_on,48,0,1,,,,,,,,0,,,74,0
65448,note_on,48,0,2,,,,,,,,1,,,71,0
65460,note_on,12,0,1,,,,,,,,0,,,73,72
65460,note_on,12,0,2,,,,,,,,1,,,69,72
65472,note_on,192,0,6,,,,,,,,5,,,62,0
65472,note_on,0,0,6,,,,,,,,5,,,71,0
65508,note_on,48,0,1,,,,,,,,0,,,73,0
65508,note_on,48,0,2,,,,,,,,1,,,69,0
65520,note_on,0,0,6,,,,,,,,5,,,62,72
65520,note_on,12,0,2,,,,,,,,1,,,68,72
65520,note_on,48,0,6,,,,,,,,5,,,71,72
65520,note_on,12,0,1,,,,,,,,0,,,74,72
65568,note_on,0,0,6,,,,,,,,5,,,52,0
65568,note_on,288,0,4,,,,,,,,3,,,52,0
65568,note_on,288,0,5,,,,,,,,4,,,40,0
65568,note_on,48,0,6,,,,,,,,5,,,62,0
65568,note_on,0,0,6,,,,,,,,5,,,71,0
65568,note_on,288,0,3,,,,,,,,2,,,68,0
65580,note_on,12,0,4,,,,,,,,3,,,60,72
65580,note_on,12,0,5,,,,,,,,4,,,48,72
65580,note_on,0,0,6,,,,,,,,5,,,64,72
65580,note_on,12,0,6,,,,,,,,5,,,60,72
65616,note_on,96,0,1,,,,,,,,0,,,74,0
65616,note_on,96,0,2,,,,,,,,1,,,68,0
65628,note_on,0,0,6,,,,,,,,5,,,60,0
65628,note_on,48,0,5,,,,,,,,4,,,48,0
65628,note_on,48,0,4,,,,,,,,3,,,60,0
65628,note_on,48,0,6,,,,,,,,5,,,64,0
65640,note_on,12,0,5,,,,,,,,4,,,47,72
65640,note_on,24,0,2,,,,,,,,1,,,81,72
65640,note_on,0,0,6,,,,,,,,5,,,62,72
65640,note_on,24,0,1,,,,,,,,0,,,81,72
65640,note_on,12,0,4,,,,,,,,3,,,59,72
65640,note_on,72,0,3,,,,,,,,2,,,69,105
65640,note_on,12,0,6,,,,,,,,5,,,59,72
65688,note_on,48,0,6,,,,,,,,5,,,62,0
65688,note_on,0,0,6,,,,,,,,5,,,59,0
65688,note_on,48,0,4,,,,,,,,3,,,59,0
65688,note_on,48,0,5,,,,,,,,4,,,47,0
65700,note_on,12,0,6,,,,,,,,5,,,57,72
65700,note_on,0,0,6,,,,,,,,5,,,60,72
65700,note_on,12,0,4,,,,,,,,3,,,57,72
65700,note_on,12,0,5,,,,,,,,4,,,45,72
65736,note_on,96,0,3,,,,,,,,2,,,69,0
65736,note_on,96,0,2,,,,,,,,1,,,81,0
65736,note_on,96,0,1,,,,,,,,0,,,81,0
65748,note_on,0,0,6,,,,,,,,5,,,57,0
65748,note_on,48,0,5,,,,,,,,4,,,45,0
65748,note_on,48,0,4,,,,,,,,3,,,57,0
65748,note_on,48,0,6,,,,,,,,5,,,60,0
65760,note_on,0,0,6,,,,,,,,5,,,68,72
65760,note_on,12,0,6,,,,,,,,5,,,52,72
65760,note_on,0,0,6,,,,,,,,5,,,59,72
65760,note_on,12,0,5,,,,,,,,4,,,40,72
65760,note_on,24,0,3,,,,,,,,2,,,68,105
65760,note_on,24,0,1,,,,,,,,0,,,80,72
65760,note_on,24,0,2,,,,,,,,1,,,80,72
65760,note_on,12,0,4,,,,,,,,3,,,52,72
65784,note_on,24,0,1,,,,,,,,0,,,80,0
65784,note_on,24,0,2,,,,,,,,1,,,80,0
65790,note_on,6,0,1,,,,,,,,0,,,81,72
65790,note_on,6,0,2,,,,,,,,1,,,81,72
65814,note_on,24,0,1,,,,,,,,0,,,81,0
65814,note_on,24,0,2,,,,,,,,1,,,81,0
65820,note_on,6,0,1,,,,,,,,0,,,83,72
65820,note_on,6,0,2,,,,,,,,1,,,83,72
65856,note_on,96,0,6,,,,,,,,5,,,68,0
65856,note_on,96,0,4,,,,,,,,3,,,52,0
65856,note_on,0,0,6,,,,,,,,5,,,52,0
65856,note_on,0,0,6,,,,,,,,5,,,59,0
65856,note_on,96,0,3,,,,,,,,2,,,68,0
65856,note_on,96,0,5,,,,,,,,4,,,40,0
65880,note_on,0,0,6,,,,,,,,5,,,57,72
65880,note_on,24,0,3,,,,,,,,2,,,64,105
65880,note_on,0,0,6,,,,,,,,5,,,69,72
65880,note_on,24,0,5,,,,,,,,4,,,45,72
65880,note_on,24,0,4,,,,,,,,3,,,57,72
65880,note_on,24,0,6,,,,,,,,5,,,60,72
65892,note_on,72,0,2,,,,,,,,1,,,83,0
65892,note_on,72,0,1,,,,,,,,0,,,83,0
65910,note_on,18,0,2,,,,,,,,1,,,81,72
65910,note_on,18,0,1,,,,,,,,0,,,81,72
65976,note_on,96,0,6,,,,,,,,5,,,69,0
65976,note_on,0,0,6,,,,,,,,5,,,57,0
65976,note_on,96,0,4,,,,,,,,3,,,57,0
65976,note_on,96,0,5,,,,,,,,4,,,45,0
65976,note_on,0,0,6,,,,,,,,5,,,60,0
65976,note_on,96,0,3,,,,,,,,2,,,64,0
65982,note_on,72,0,2,,,,,,,,1,,,81,0
65982,note_on,72,0,1,,,,,,,,0,,,81,0
66000,note_on,18,0,1,,,,,,,,0,,,80,72
66000,note_on,24,0,3,,,,,,,,2,,,68,105
66000,note_on,24,0,5,,,,,,,,4,,,40,72
66000,note_on,18,0,2,,,,,,,,1,,,80,72
66000,note_on,24,0,6,,,,,,,,5,,,52,72
66000,note_on,0,0,6,,,,,,,,5,,,59,72
66000,note_on,0,0,6,,,,,,,,5,,,68,72
66000,note_on,24,0,4,,,,,,,,3,,,52,72
66024,note_on,24,0,2,,,,,,,,1,,,80,0
66024,note_on,24,0,1,,,,,,,,0,,,80,0
66030,note_on,6,0,2,,,,,,,,1,,,81,72
66030,note_on,6,0,1,,,,,,,,0,,,81,72
66054,note_on,24,0,1,,,,,,,,0,,,81,0
66054,note_on,24,0,2,,,,,,,,1,,,81,0
66060,note_on,6,0,2,,,,,,,,1,,,83,72
66060,note_on,6,0,1,,,,,,,,0,,,83,72
66096,note_on,96,0,3,,,,,,,,2,,,68,0
66096,note_on,0,0,6,,,,,,,,5,,,59,0
66096,note_on,96,0,4,,,,,,,,3,,,52,0
66096,note_on,96,0,6,,,,,,,,5,,,68,0
66096,note_on,0,0,6,,,,,,,,5,,,52,0
66096,note_on,96,0,5,,,,,,,,4,,,40,0
66120,note_on,0,0,6,,,,,,,,5,,,60,72
66120,note_on,0,0,6,,,,,,,,5,,,57,72
66120,note_on,24,0,4,,,,,,,,3,,,57,72
66120,note_on,24,0,6,,,,,,,,5,,,69,72
66120,note_on,24,0,5,,,,,,,,4,,,45,72
66120,note_on,24,0,3,,,,,,,,2,,,64,105
66132,note_on,72,0,1,,,,,,,,0,,,83,0
66132,note_on,72,0,2,,,,,,,,1,,,83,0
66150,note_on,18,0,1,,,,,,,,0,,,81,72
66150,note_on,18,0,2,,,,,,,,1,,,81,72
66216,note_on,96,0,3,,,,,,,,2,,,64,0
66216,note_on,0,0,6,,,,,,,,5,,,69,0
66216,note_on,96,0,5,,,,,,,,4,,,45,0
66216,note_on,0,0,6,,,,,,,,5,,,57,0
66216,note_on,96,0,6,,,,,,,,5,,,60,0
66216,note_on,96,0,4,,,,,,,,3,,,57,0
66222,note_on,72,0,2,,,,,,,,1,,,81,0
66222,note_on,72,0,1,,,,,,,,0,,,81,0
66240,note_on,24,0,4,,,,,,,,3,,,45,72
66240,note_on,24,0,3,,,,,,,,2,,,64,105
66240,note_on,24,0,6,,,,,,,,5,,,45,72
66240,note_on,18,0,1,,,,,,,,0,,,73,72
66240,note_on,18,0,2,,,,,,,,1,,,69,72
66240,note_on,24,0,5,,,,,,,,4,,,33,72
66288,note_on,48,0,2,,,,,,,,1,,,69,0
66288,note_on,48,0,1,,,,,,,,0,,,73,0
66300,note_on,12,0,2,,,,,,,,1,,,68,72
66300,note_on,12,0,1,,,,,,,,0,,,71,72
66348,note_on,48,0,2,,,,,,,,1,,,68,0
66348,note_on,48,0,1,,,,,,,,0,,,71,0
66360,note_on,120,0,6,,,,,,,,5,,,64,72
66360,note_on,12,0,1,,,,,,,,0,,,73,72
66360,note_on,12,0,2,,,,,,,,1,,,69,72
66408,note_on,48,0,1,,,,,,,,0,,,73,0
66408,note_on,48,0,2,,,,,,,,1,,,69,0
66420,note_on,12,0,1,,,,,,,,0,,,71,72
66420,note_on,12,0,2,,,,,,,,1,,,68,72
66456,note_on,96,0,6,,,,,,,,5,,,64,0
66468,note_on,48,0,2,,,,,,,,1,,,68,0
66468,note_on,48,0,1,,,,,,,,0,,,71,0
66480,note_on,12,0,1,,,,,,,,0,,,69,72
66480,note_on,24,0,6,,,,,,,,5,,,57,72
66480,note_on,12,0,2,,,,,,,,1,,,69,72
66528,note_on,288,0,5,,,,,,,,4,,,33,0
66528,note_on,288,0,3,,,,,,,,2,,,64,0
66528,note_on,288,0,4,,,,,,,,3,,,45,0
66528,note_on,48,0,6,,,,,,,,5,,,45,0
66576,note_on,96,0,1,,,,,,,,0,,,69,0
66576,note_on,96,0,2,,,,,,,,1,,,69,0
66576,note_on,48,0,6,,,,,,,,5,,,57,0
66600,note_on,0,0,6,,,,,,,,5,,,61,72
66600,note_on,24,0,1,,,,,,,,0,,,81,72
66600,note_on,24,0,6,,,,,,,,5,,,45,72
66600,note_on,72,0,3,,,,,,,,2,,,64,105
66600,note_on,72,0,5,,,,,,,,4,,,33,105
66600,note_on,72,0,4,,,,,,,,3,,,45,105
66600,note_on,24,0,2,,,,,,,,1,,,81,105
66696,note_on,0,0,6,,,,,,,,5,,,45,0
66696,note_on,96,0,4,,,,,,,,3,,,45,0
66696,note_on,96,0,2,,,,,,,,1,,,81,0
66696,note_on,96,0,1,,,,,,,,0,,,81,0
66696,note_on,96,0,3,,,,,,,,2,,,64,0
66696,note_on,96,0,6,,,,,,,,5,,,61,0
66696,note_on,96,0,5,,,,,,,,4,,,33,0
66720,note_on,24,0,5,,,,,,,,4,,,33,105
66720,note_on,24,0,4,,,,,,,,3,,,45,105
66720,note_on,24,0,3,,,,,,,,2,,,64,105
66720,note_on,24,0,6,,,,,,,,5,,,69,105
66720,note_on,24,0,1,,,,,,,,0,,,73,72
66720,note_on,0,0,6,,,,,,,,5,,,45,105
66720,note_on,0,0,6,,,,,,,,5,,,61,105
66720,note_on,24,0,2,,,,,,,,1,,,73,105
66752,note_on,32,0,1,,,,,,,,0,,,73,0
66752,note_on,32,0,2,,,,,,,,1,,,73,0
66760,note_on,8,0,1,,,,,,,,0,,,76,72
66760,note_on,8,0,2,,,,,,,,1,,,76,105
66768,note_on,48,0,4,,,,,,,,3,,,45,0
66768,note_on,0,0,6,,,,,,,,5,,,45,0
66768,note_on,48,0,5,,,,,,,,4,,,33,0
66768,note_on,48,0,6,,,,,,,,5,,,61,0
66780,note_on,12,0,5,,,,,,,,4,,,35,105
66780,note_on,12,0,4,,,,,,,,3,,,47,105
66780,note_on,12,0,6,,,,,,,,5,,,62,105
66780,note_on,0,0,6,,,,,,,,5,,,47,105
66792,note_on,32,0,2,,,,,,,,1,,,76,0
66792,note_on,32,0,1,,,,,,,,0,,,76,0
66800,note_on,8,0,2,,,,,,,,1,,,74,105
66800,note_on,8,0,1,,,,,,,,0,,,74,72
66816,note_on,96,0,3,,,,,,,,2,,,64,0
66828,note_on,48,0,5,,,,,,,,4,,,35,0
66828,note_on,48,0,4,,,,,,,,3,,,47,0
66828,note_on,48,0,6,,,,,,,,5,,,47,0
66828,note_on,0,0,6,,,,,,,,5,,,62,0
66832,note_on,32,0,2,,,,,,,,1,,,74,0
66832,note_on,32,0,1,,,,,,,,0,,,74,0
66840,note_on,12,0,6,,,,,,,,5,,,49,105
66840,note_on,0,0,6,,,,,,,,5,,,64,105
66840,note_on,24,0,3,,,,,,,,2,,,57,105
66840,note_on,12,0,5,,,,,,,,4,,,37,105
66840,note_on,12,0,4,,,,,,,,3,,,49,105
66840,note_on,8,0,1,,,,,,,,0,,,73,72
66840,note_on,8,0,2,,,,,,,,1,,,73,105
66872,note_on,32,0,1,,,,,,,,0,,,73,0
66872,note_on,32,0,2,,,,,,,,1,,,73,0
66880,note_on,8,0,1,,,,,,,,0,,,71,72
66880,note_on,8,0,2,,,,,,,,1,,,71,105
66888,note_on,0,0,6,,,,,,,,5,,,49,0
66888,note_on,48,0,4,,,,,,,,3,,,49,0
66888,note_on,48,0,6,,,,,,,,5,,,64,0
66888,note_on,48,0,5,,,,,,,,4,,,37,0
66900,note_on,0,0,6,,,,,,,,5,,,50,105
66900,note_on,12,0,6,,,,,,,,5,,,66,105
66900,note_on,12,0,5,,,,,,,,4,,,38,105
66900,note_on,12,0,4,,,,,,,,3,,,50,105
66912,note_on,32,0,1,,,,,,,,0,,,71,0
66912,note_on,32,0,2,,,,,,,,1,,,71,0
66912,note_on,12,0,6,,,,,,,,5,,,69,0
66920,note_on,8,0,2,,,,,,,,1,,,69,105
66920,note_on,8,0,1,,,,,,,,0,,,69,72
66936,note_on,96,0,3,,,,,,,,2,,,57,0
66948,note_on,48,0,5,,,,,,,,4,,,38,0
66948,note_on,48,0,4,,,,,,,,3,,,50,0
66948,note_on,0,0,6,,,,,,,,5,,,66,0
66948,note_on,36,0,6,,,,,,,,5,,,50,0
66952,note_on,32,0,1,,,,,,,,0,,,69,0
66952,note_on,32,0,2,,,,,,,,1,,,69,0
66960,note_on,8,0,1,,,,,,,,0,,,64,72
66960,note_on,0,0,6,,,,,,,,5,,,64,105
66960,note_on,0,0,6,,,,,,,,5,,,52,105
66960,note_on,8,0,2,,,,,,,,1,,,64,105
66960,note_on,12,0,6,,,,,,,,5,,,68,105
66960,note_on,12,0,4,,,,,,,,3,,,52,105
66960,note_on,12,0,5,,,,,,,,4,,,40,105
66960,note_on,24,0,3,,,,,,,,2,,,56,105
67056,note_on,96,0,5,,,,,,,,4,,,40,0
67056,note_on,96,0,2,,,,,,,,1,,,64,0
67056,note_on,96,0,1,,,,,,,,0,,,64,0
67056,note_on,96,0,4,,,,,,,,3,,,52,0
67056,note_on,0,0,6,,,,,,,,5,,,68,0
67056,note_on,96,0,6,,,,,,,,5,,,52,0
67080,note_on,24,0,5,,,,,,,,4,,,28,105
67080,note_on,24,0,2,,,,,,,,1,,,74,105
67080,note_on,0,0,6,,,,,,,,5,,,40,105
67080,note_on,24,0,6,,,,,,,,5,,,71,105
67080,note_on,24,0,4,,,,,,,,3,,,40,105
67080,note_on,24,0,1,,,,,,,,0,,,74,72
67152,note_on,192,0,3,,,,,,,,2,,,56,0
67152,note_on,72,0,6,,,,,,,,5,,,64,0
67176,note_on,96,0,4,,,,,,,,3,,,40,0
67176,note_on,0,0,6,,,,,,,,5,,,71,0
67176,note_on,96,0,2,,,,,,,,1,,,74,0
67176,note_on,96,0,1,,,,,,,,0,,,74,0
67176,note_on,96,0,5,,,,,,,,4,,,28,0
67176,note_on,24,0,6,,,,,,,,5,,,40,0
67200,note_on,48,0,3,,,,,,,,2,,,64,105
67200,note_on,0,0,6,,,,,,,,5,,,45,105
67200,note_on,24,0,2,,,,,,,,1,,,73,105
67200,note_on,24,0,1,,,,,,,,0,,,73,72
67200,note_on,24,0,5,,,,,,,,4,,,33,105
67200,note_on,24,0,4,,,,,,,,3,,,45,105
67200,note_on,0,0,6,,,,,,,,5,,,61,105
67200,note_on,24,0,6,,,,,,,,5,,,69,105
67232,note_on,32,0,1,,,,,,,,0,,,73,0
67232,note_on,32,0,2,,,,,,,,1,,,73,0
67240,note_on,8,0,1,,,,,,,,0,,,76,72
67240,note_on,8,0,2,,,,,,,,1,,,76,105
67248,note_on,48,0,5,,,,,,,,4,,,33,0
67248,note_on,48,0,6,,,,,,,,5,,,61,0
67248,note_on,0,0,6,,,,,,,,5,,,45,0
67248,note_on,48,0,4,,,,,,,,3,,,45,0
67260,note_on,12,0,6,,,,,,,,5,,,47,105
67260,note_on,12,0,5,,,,,,,,4,,,35,105
67260,note_on,0,0,6,,,,,,,,5,,,62,105
67260,note_on,12,0,4,,,,,,,,3,,,47,105
67272,note_on,32,0,1,,,,,,,,0,,,76,0
67272,note_on,32,0,2,,,,,,,,1,,,76,0
67280,note_on,8,0,2,,,,,,,,1,,,74,105
67280,note_on,8,0,1,,,,,,,,0,,,74,72
67296,note_on,96,0,3,,,,,,,,2,,,64,0
67308,note_on,48,0,5,,,,,,,,4,,,35,0
67308,note_on,0,0,6,,,,,,,,5,,,47,0
67308,note_on,48,0,4,,,,,,,,3,,,47,0
67308,note_on,48,0,6,,,,,,,,5,,,62,0
67312,note_on,32,0,1,,,,,,,,0,,,74,0
67312,note_on,32,0,2,,,,,,,,1,,,74,0
67320,note_on,12,0,6,,,,,,,,5,,,49,105
67320,note_on,8,0,2,,,,,,,,1,,,73,105
67320,note_on,8,0,1,,,,,,,,0,,,73,72
67320,note_on,12,0,4,,,,,,,,3,,,49,105
67320,note_on,0,0,6,,,,,,,,5,,,64,105
67320,note_on,24,0,3,,,,,,,,2,,,57,105
67320,note_on,12,0,5,,,,,,,,4,,,37,105
67352,note_on,32,0,1,,,,,,,,0,,,73,0
67352,note_on,32,0,2,,,,,,,,1,,,73,0
67360,note_on,8,0,1,,,,,,,,0,,,71,72
67360,note_on,8,0,2,,,,,,,,1,,,71,105
67368,note_on,48,0,4,,,,,,,,3,,,49,0
67368,note_on,48,0,5,,,,,,,,4,,,37,0
67368,note_on,0,0,6,,,,,,,,5,,,49,0
67368,note_on,48,0,6,,,,,,,,5,,,64,0
67380,note_on,0,0,6,,,,,,,,5,,,66,105
67380,note_on,12,0,6,,,,,,,,5,,,50,105
67380,note_on,12,0,5,,,,,,,,4,,,38,105
67380,note_on,12,0,4,,,,,,,,3,,,50,105
67392,note_on,32,0,1,,,,,,,,0,,,71,0
67392,note_on,12,0,6,,,,,,,,5,,,69,0
67392,note_on,32,0,2,,,,,,,,1,,,71,0
67400,note_on,8,0,2,,,,,,,,1,,,69,105
67400,note_on,8,0,1,,,,,,,,0,,,69,72
67416,note_on,96,0,3,,,,,,,,2,,,57,0
67428,note_on,48,0,4,,,,,,,,3,,,50,0
67428,note_on,36,0,6,,,,,,,,5,,,66,0
67428,note_on,0,0,6,,,,,,,,5,,,50,0
67428,note_on,48,0,5,,,,,,,,4,,,38,0
67432,note_on,32,0,2,,,,,,,,1,,,69,0
67432,note_on,32,0,1,,,,,,,,0,,,69,0
67440,note_on,8,0,1,,,,,,,,0,,,64,72
67440,note_on,12,0,4,,,,,,,,3,,,52,105
67440,note_on,0,0,6,,,,,,,,5,,,64,105
67440,note_on,24,0,3,,,,,,,,2,,,56,105
67440,note_on,12,0,6,,,,,,,,5,,,52,105
67440,note_on,0,0,6,,,,,,,,5,,,68,105
67440,note_on,12,0,5,,,,,,,,4,,,40,105
67440,note_on,8,0,2,,,,,,,,1,,,64,105
67440,set_tempo,67440,1,0,,,,,,689655,,,,,,
67536,note_on,96,0,5,,,,,,,,4,,,40,0
67536,note_on,96,0,1,,,,,,,,0,,,64,0
67536,note_on,96,0,2,,,,,,,,1,,,64,0
67536,note_on,0,0,6,,,,,,,,5,,,52,0
67536,note_on,96,0,6,,,,,,,,5,,,68,0
67536,note_on,96,0,4,,,,,,,,3,,,52,0
67560,note_on,24,0,4,,,,,,,,3,,,40,105
67560,note_on,0,0,6,,,,,,,,5,,,40,105
67560,note_on,24,0,1,,,,,,,,0,,,74,72
67560,note_on,24,0,6,,,,,,,,5,,,71,105
67560,note_on,24,0,2,,,,,,,,1,,,74,105
67560,note_on,24,0,5,,,,,,,,4,,,28,105
67632,note_on,72,0,6,,,,,,,,5,,,64,0
67632,note_on,192,0,3,,,,,,,,2,,,56,0
67656,note_on,96,0,2,,,,,,,,1,,,74,0
67656,note_on,96,0,1,,,,,,,,0,,,74,0
67656,note_on,24,0,6,,,,,,,,5,,,40,0
67656,note_on,96,0,4,,,,,,,,3,,,40,0
67656,note_on,0,0,6,,,,,,,,5,,,71,0
67656,note_on,96,0,5,,,,,,,,4,,,28,0
67680,note_on,24,0,5,,,,,,,,4,,,33,105
67680,note_on,24,0,1,,,,,,,,0,,,73,72
67680,note_on,24,0,2,,,,,,,,1,,,73,105
67680,note_on,24,0,6,,,,,,,,5,,,69,105
67680,note_on,48,0,3,,,,,,,,2,,,64,105
67680,set_tempo,240,1,0,,,,,,800000,,,,,,
67680,note_on,0,0,6,,,,,,,,5,,,45,105
67680,note_on,0,0,6,,,,,,,,5,,,61,105
67680,note_on,24,0,4,,,,,,,,3,,,45,105
67712,note_on,32,0,2,,,,,,,,1,,,73,0
67712,note_on,32,0,1,,,,,,,,0,,,73,0
67720,note_on,8,0,2,,,,,,,,1,,,76,105
67720,note_on,8,0,1,,,,,,,,0,,,76,72
67728,note_on,48,0,5,,,,,,,,4,,,33,0
67728,note_on,0,0,6,,,,,,,,5,,,45,0
67728,note_on,48,0,6,,,,,,,,5,,,61,0
67728,note_on,48,0,4,,,,,,,,3,,,45,0
67740,note_on,0,0,6,,,,,,,,5,,,47,105
67740,note_on,12,0,6,,,,,,,,5,,,62,105
67740,note_on,12,0,4,,,,,,,,3,,,47,105
67740,note_on,12,0,5,,,,,,,,4,,,35,105
67752,note_on,32,0,2,,,,,,,,1,,,76,0
67752,note_on,32,0,1,,,,,,,,0,,,76,0
67760,note_on,8,0,2,,,,,,,,1,,,74,105
67760,note_on,8,0,1,,,,,,,,0,,,74,72
67776,note_on,96,0,3,,,,,,,,2,,,64,0
67788,note_on,48,0,5,,,,,,,,4,,,35,0
67788,note_on,48,0,6,,,,,,,,5,,,47,0
67788,note_on,0,0,6,,,,,,,,5,,,62,0
67788,note_on,48,0,4,,,,,,,,3,,,47,0
67792,note_on,32,0,2,,,,,,,,1,,,74,0
67792,note_on,32,0,1,,,,,,,,0,,,74,0
67800,note_on,12,0,5,,,,,,,,4,,,37,105
67800,note_on,12,0,4,,,,,,,,3,,,49,105
67800,note_on,8,0,2,,,,,,,,1,,,73,105
67800,note_on,24,0,3,,,,,,,,2,,,57,105
67800,note_on,12,0,6,,,,,,,,5,,,49,105
67800,note_on,8,0,1,,,,,,,,0,,,73,72
67800,note_on,0,0,6,,,,,,,,5,,,64,105
67832,note_on,32,0,1,,,,,,,,0,,,73,0
67832,note_on,32,0,2,,,,,,,,1,,,73,0
67840,note_on,8,0,1,,,,,,,,0,,,71,72
67840,note_on,8,0,2,,,,,,,,1,,,71,105
67848,note_on,48,0,4,,,,,,,,3,,,49,0
67848,note_on,48,0,5,,,,,,,,4,,,37,0
67848,note_on,0,0,6,,,,,,,,5,,,49,0
67848,note_on,48,0,6,,,,,,,,5,,,64,0
67860,note_on,12,0,4,,,,,,,,3,,,50,105
67860,note_on,12,0,5,,,,,,,,4,,,38,105
67860,note_on,0,0,6,,,,,,,,5,,,50,105
67860,note_on,12,0,6,,,,,,,,5,,,66,105
67872,note_on,32,0,2,,,,,,,,1,,,71,0
67872,note_on,32,0,1,,,,,,,,0,,,71,0
67872,note_on,12,0,6,,,,,,,,5,,,69,0
67880,note_on,8,0,2,,,,,,,,1,,,69,105
67880,note_on,8,0,1,,,,,,,,0,,,69,72
67896,note_on,96,0,3,,,,,,,,2,,,57,0
67908,note_on,48,0,4,,,,,,,,3,,,50,0
67908,note_on,36,0,6,,,,,,,,5,,,50,0
67908,note_on,48,0,5,,,,,,,,4,,,38,0
67908,note_on,0,0,6,,,,,,,,5,,,66,0
67912,note_on,32,0,1,,,,,,,,0,,,69,0
67912,note_on,32,0,2,,,,,,,,1,,,69,0
67920,note_on,12,0,5,,,,,,,,4,,,40,105
67920,note_on,8,0,2,,,,,,,,1,,,64,105
67920,note_on,8,0,1,,,,,,,,0,,,64,72
67920,note_on,12,0,4,,,,,,,,3,,,52,105
67920,note_on,0,0,6,,,,,,,,5,,,64,105
67920,note_on,0,0,6,,,,,,,,5,,,52,105
67920,note_on,12,0,6,,,,,,,,5,,,68,105
67920,set_tempo,240,1,0,,,,,,967742,,,,,,
67920,note_on,24,0,3,,,,,,,,2,,,56,105
68016,note_on,96,0,1,,,,,,,,0,,,64,0
68016,note_on,96,0,2,,,,,,,,1,,,64,0
68016,note_on,96,0,6,,,,,,,,5,,,52,0
68016,note_on,0,0,6,,,,,,,,5,,,68,0
68016,note_on,96,0,3,,,,,,,,2,,,56,0
68016,note_on,96,0,5,,,,,,,,4,,,40,0
68016,note_on,96,0,4,,,,,,,,3,,,52,0
68040,note_on,24,0,6,,,,,,,,5,,,40,105
68040,note_on,24,0,4,,,,,,,,3,,,40,105
68040,note_on,0,0,6,,,,,,,,5,,,71,105
68040,note_on,24,0,3,,,,,,,,2,,,59,105
68040,note_on,24,0,2,,,,,,,,1,,,80,105
68040,note_on,24,0,5,,,,,,,,4,,,28,105
68040,note_on,24,0,1,,,,,,,,0,,,80,72
68112,note_on,72,0,6,,,,,,,,5,,,64,0
68136,note_on,96,0,2,,,,,,,,1,,,80,0
68136,note_on,96,0,1,,,,,,,,0,,,80,0
68136,note_on,96,0,4,,,,,,,,3,,,40,0
68136,note_on,24,0,6,,,,,,,,5,,,71,0
68136,note_on,0,0,6,,,,,,,,5,,,40,0
68136,note_on,96,0,3,,,,,,,,2,,,59,0
68136,note_on,96,0,5,,,,,,,,4,,,28,0
68160,note_on,24,0,1,,,,,,,,0,,,81,72
68160,note_on,24,0,2,,,,,,,,1,,,81,105
68160,note_on,24,0,5,,,,,,,,4,,,33,105
68160,note_on,24,0,4,,,,,,,,3,,,45,105
68160,note_on,24,0,6,,,,,,,,5,,,45,105
68160,note_on,0,0,6,,,,,,,,5,,,69,105
68160,note_on,0,0,6,,,,,,,,5,,,61,105
68160,set_tempo,240,1,0,,,,,,857143,,,,,,
68160,note_on,24,0,3,,,,,,,,2,,,61,105
68928,note_on,768,0,2,,,,,,,,1,,,81,0
68928,note_on,768,0,4,,,,,,,,3,,,45,0
68928,note_on,768,0,5,,,,,,,,4,,,33,0
68928,note_on,768,0,1,,,,,,,,0,,,81,0
68928,note_on,768,0,3,,,,,,,,2,,,61,0
68928,note_on,768,0,6,,,,,,,,5,,,61,0
68928,note_on,0,0,6,,,,,,,,5,,,69,0
68928,note_on,0,0,6,,,,,,,,5,,,45,0
69120,set_tempo,0,1,0,,,,,,1818182,,,,,,
69120,time_signature,960,1,0,2,4,24,8,,,,,,,,
69450,marker,330,1,0,,,,,,,,,,,,
69480,note_on,552,0,2,,,,,,,,1,,,81,58
69480,note_on,552,0,1,,,,,,,,0,,,81,72
69576,note_on,96,0,1,,,,,,,,0,,,81,0
69576,note_on,96,0,2,,,,,,,,1,,,81,0
69600,note_on,24,0,2,,,,,,,,1,,,69,58
69600,note_on,24,0,1,,,,,,,,0,,,69,58
69624,note_on,24,0,1,,,,,,,,0,,,69,0
69624,note_on,24,0,2,,,,,,,,1,,,69,0
69630,note_on,6,0,2,,,,,,,,1,,,71,58
69630,note_on,6,0,1,,,,,,,,0,,,71,58
69654,note_on,24,0,1,,,,,,,,0,,,71,0
69654,note_on,24,0,2,,,,,,,,1,,,71,0
69660,note_on,6,0,1,,,,,,,,0,,,72,58
69660,note_on,6,0,2,,,,,,,,1,,,72,58
69708,note_on,48,0,1,,,,,,,,0,,,72,0
69708,note_on,48,0,2,,,,,,,,1,,,72,0
69720,note_on,0,0,6,,,,,,,,5,,,52,105
69720,note_on,792,0,6,,,,,,,,5,,,71,105
69720,note_on,792,0,5,,,,,,,,4,,,40,58
69720,note_on,0,0,6,,,,,,,,5,,,68,58
69720,note_on,792,0,3,,,,,,,,2,,,67,58
69720,note_on,792,0,4,,,,,,,,3,,,52,105
69720,note_on,12,0,1,,,,,,,,0,,,71,58
69720,note_on,12,0,2,,,,,,,,1,,,71,58
69816,note_on,96,0,2,,,,,,,,1,,,71,0
69816,note_on,96,0,3,,,,,,,,2,,,67,0
69816,note_on,96,0,6,,,,,,,,5,,,52,0
69816,note_on,96,0,5,,,,,,,,4,,,40,0
69816,note_on,96,0,1,,,,,,,,0,,,71,0
69816,note_on,0,0,6,,,,,,,,5,,,71,0
69816,note_on,96,0,4,,,,,,,,3,,,52,0
69840,note_on,24,0,3,,,,,,,,2,,,67,58
69840,note_on,24,0,5,,,,,,,,4,,,28,58
69840,note_on,24,0,2,,,,,,,,1,,,71,58
69840,note_on,24,0,4,,,,,,,,3,,,40,105
69840,note_on,24,0,6,,,,,,,,5,,,76,58
69840,note_on,24,0,1,,,,,,,,0,,,71,58
69840,note_on,0,0,6,,,,,,,,5,,,40,58
69864,note_on,24,0,2,,,,,,,,1,,,71,0
69864,note_on,24,0,1,,,,,,,,0,,,71,0
69870,note_on,6,0,2,,,,,,,,1,,,72,58
69870,note_on,6,0,1,,,,,,,,0,,,72,58
69894,note_on,24,0,1,,,,,,,,0,,,72,0
69894,note_on,24,0,2,,,,,,,,1,,,72,0
69900,note_on,6,0,2,,,,,,,,1,,,74,58
69900,note_on,6,0,1,,,,,,,,0,,,74,58
69912,note_on,72,0,6,,,,,,,,5,,,68,0
69936,note_on,96,0,4,,,,,,,,3,,,40,0
69936,note_on,24,0,6,,,,,,,,5,,,40,0
69936,note_on,96,0,5,,,,,,,,4,,,28,0
69936,note_on,0,0,6,,,,,,,,5,,,76,0
69936,note_on,96,0,3,,,,,,,,2,,,67,0
69948,note_on,48,0,1,,,,,,,,0,,,74,0
69948,note_on,48,0,2,,,,,,,,1,,,74,0
69960,note_on,24,0,4,,,,,,,,3,,,57,105
69960,note_on,12,0,1,,,,,,,,0,,,72,58
69960,note_on,24,0,6,,,,,,,,5,,,72,58
69960,note_on,0,0,6,,,,,,,,5,,,69,58
69960,note_on,24,0,3,,,,,,,,2,,,64,58
69960,note_on,12,0,2,,,,,,,,1,,,72,58
69960,note_on,0,0,6,,,,,,,,5,,,57,58
69960,note_on,24,0,5,,,,,,,,4,,,45,58
70056,note_on,96,0,2,,,,,,,,1,,,72,0
70056,note_on,96,0,3,,,,,,,,2,,,64,0
70056,note_on,96,0,6,,,,,,,,5,,,69,0
70056,note_on,0,0,6,,,,,,,,5,,,57,0
70056,note_on,96,0,1,,,,,,,,0,,,72,0
70056,note_on,0,0,6,,,,,,,,5,,,72,0
70056,note_on,96,0,5,,,,,,,,4,,,45,0
70056,note_on,96,0,4,,,,,,,,3,,,57,0
70080,note_on,24,0,5,,,,,,,,4,,,44,58
70080,note_on,24,0,6,,,,,,,,5,,,71,58
70080,note_on,0,0,6,,,,,,,,5,,,56,58
70080,note_on,24,0,2,,,,,,,,1,,,74,58
70080,note_on,24,0,1,,,,,,,,0,,,74,58
70080,note_on,24,0,3,,,,,,,,2,,,71,58
70080,note_on,0,0,6,,,,,,,,5,,,64,58
70080,note_on,24,0,4,,,,,,,,3,,,56,105
70104,note_on,24,0,1,,,,,,,,0,,,74,0
70104,note_on,24,0,2,,,,,,,,1,,,74,0
70110,note_on,6,0,1,,,,,,,,0,,,76,58
70110,note_on,6,0,2,,,,,,,,1,,,76,58
70134,note_on,24,0,2,,,,,,,,1,,,76,0
70134,note_on,24,0,1,,,,,,,,0,,,76,0
70140,note_on,6,0,2,,,,,,,,1,,,77,58
70140,note_on,6,0,1,,,,,,,,0,,,77,58
70176,note_on,0,0,6,,,,,,,,5,,,71,0
70176,note_on,96,0,4,,,,,,,,3,,,56,0
70176,note_on,96,0,5,,,,,,,,4,,,44,0
70176,note_on,96,0,3,,,,,,,,2,,,71,0
70176,note_on,96,0,6,,,,,,,,5,,,56,0
70188,note_on,48,0,2,,,,,,,,1,,,77,0
70188,note_on,48,0,1,,,,,,,,0,,,77,0
70200,note_on,24,0,4,,,,,,,,3,,,60,105
70200,note_on,24,0,6,,,,,,,,5,,,69,58
70200,note_on,0,0,6,,,,,,,,5,,,60,58
70200,note_on,24,0,5,,,,,,,,4,,,48,58
70200,note_on,12,0,2,,,,,,,,1,,,76,58
70200,note_on,12,0,1,,,,,,,,0,,,76,58
70200,note_on,24,0,3,,,,,,,,2,,,64,58
70296,note_on,0,0,6,,,,,,,,5,,,69,0
70296,note_on,96,0,5,,,,,,,,4,,,48,0
70296,note_on,96,0,6,,,,,,,,5,,,60,0
70296,note_on,96,0,3,,,,,,,,2,,,64,0
70296,note_on,96,0,4,,,,,,,,3,,,60,0
70320,note_on,24,0,3,,,,,,,,2,,,60,58
70320,note_on,24,0,5,,,,,,,,4,,,45,58
70320,note_on,24,0,4,,,,,,,,3,,,57,105
70320,note_on,24,0,6,,,,,,,,5,,,72,58
70320,note_on,0,0,6,,,,,,,,5,,,57,58
70392,note_on,192,0,1,,,,,,,,0,,,76,0
70392,note_on,192,0,2,,,,,,,,1,,,76,0
70416,note_on,96,0,4,,,,,,,,3,,,57,0
70416,note_on,96,0,6,,,,,,,,5,,,57,0
70416,note_on,96,0,5,,,,,,,,4,,,45,0
70440,note_on,48,0,1,,,,,,,,0,,,81,58
70440,note_on,24,0,4,,,,,,,,3,,,45,105
70440,note_on,24,0,5,,,,,,,,4,,,33,58
70440,note_on,24,0,6,,,,,,,,5,,,45,58
70440,note_on,48,0,2,,,,,,,,1,,,81,58
70464,note_on,24,0,6,,,,,,,,5,,,64,0
70512,note_on,48,0,6,,,,,,,,5,,,72,0
70536,note_on,96,0,1,,,,,,,,0,,,81,0
70536,note_on,96,0,2,,,,,,,,1,,,81,0
70536,note_on,96,0,5,,,,,,,,4,,,33,0
70536,note_on,96,0,4,,,,,,,,3,,,45,0
70536,note_on,24,0,6,,,,,,,,5,,,45,0
70560,note_on,24,0,2,,,,,,,,1,,,80,58
70560,note_on,24,0,5,,,,,,,,4,,,40,58
70560,note_on,0,0,6,,,,,,,,5,,,52,58
70560,note_on,24,0,6,,,,,,,,5,,,71,58
70560,note_on,24,0,4,,,,,,,,3,,,52,105
70560,note_on,24,0,1,,,,,,,,0,,,80,58
70560,note_on,240,0,3,,,,,,,,2,,,59,58
70560,note_on,0,0,6,,,,,,,,5,,,68,58
70584,note_on,24,0,1,,,,,,,,0,,,80,0
70584,note_on,24,0,2,,,,,,,,1,,,80,0
70590,note_on,6,0,1,,,,,,,,0,,,81,58
70590,note_on,6,0,2,,,,,,,,1,,,81,58
70608,note_on,48,0,3,,,,,,,,2,,,60,0
70614,note_on,24,0,1,,,,,,,,0,,,81,0
70614,note_on,24,0,2,,,,,,,,1,,,81,0
70620,note_on,6,0,1,,,,,,,,0,,,83,58
70620,note_on,6,0,2,,,,,,,,1,,,83,58
70656,note_on,0,0,6,,,,,,,,5,,,52,0
70656,note_on,0,0,6,,,,,,,,5,,,71,0
70656,note_on,96,0,5,,,,,,,,4,,,40,0
70656,note_on,96,0,4,,,,,,,,3,,,52,0
70656,note_on,96,0,6,,,,,,,,5,,,68,0
70656,note_on,48,0,3,,,,,,,,2,,,59,0
70668,note_on,48,0,1,,,,,,,,0,,,83,0
70668,note_on,48,0,2,,,,,,,,1,,,83,0
70680,note_on,0,0,6,,,,,,,,5,,,69,58
70680,note_on,24,0,5,,,,,,,,4,,,41,58
70680,note_on,12,0,1,,,,,,,,0,,,81,58
70680,note_on,24,0,4,,,,,,,,3,,,53,105
70680,note_on,12,0,2,,,,,,,,1,,,81,58
70680,note_on,24,0,6,,,,,,,,5,,,74,58
70680,note_on,24,0,3,,,,,,,,2,,,62,58
70680,note_on,0,0,6,,,,,,,,5,,,53,58
70776,note_on,96,0,4,,,,,,,,3,,,53,0
70776,note_on,0,0,6,,,,,,,,5,,,69,0
70776,note_on,0,0,6,,,,,,,,5,,,74,0
70776,note_on,96,0,1,,,,,,,,0,,,81,0
70776,note_on,96,0,3,,,,,,,,2,,,62,0
70776,note_on,96,0,2,,,,,,,,1,,,81,0
70776,note_on,96,0,6,,,,,,,,5,,,53,0
70776,note_on,96,0,5,,,,,,,,4,,,41,0
70800,note_on,24,0,6,,,,,,,,5,,,44,58
70800,note_on,0,0,6,,,,,,,,5,,,71,58
70800,note_on,24,0,3,,,,,,,,2,,,64,58
70800,note_on,24,0,1,,,,,,,,0,,,71,58
70800,note_on,24,0,2,,,,,,,,1,,,71,58
70800,note_on,24,0,4,,,,,,,,3,,,44,105
70800,note_on,0,0,6,,,,,,,,5,,,76,58
70800,note_on,24,0,5,,,,,,,,4,,,32,58
70848,note_on,48,0,1,,,,,,,,0,,,71,0
70848,note_on,48,0,2,,,,,,,,1,,,71,0
70860,note_on,12,0,1,,,,,,,,0,,,74,58
70860,note_on,12,0,2,,,,,,,,1,,,74,58
70896,note_on,0,0,6,,,,,,,,5,,,44,0
70896,note_on,96,0,4,,,,,,,,3,,,44,0
70896,note_on,96,0,3,,,,,,,,2,,,64,0
70896,note_on,96,0,5,,,,,,,,4,,,32,0
70896,note_on,96,0,6,,,,,,,,5,,,71,0
70908,note_on,48,0,2,,,,,,,,1,,,74,0
70908,note_on,48,0,1,,,,,,,,0,,,74,0
70920,note_on,24,0,6,,,,,,,,5,,,68,58
70920,note_on,12,0,2,,,,,,,,1,,,72,58
70920,note_on,12,0,1,,,,,,,,0,,,72,58
70920,note_on,24,0,3,,,,,,,,2,,,68,58
70920,note_on,24,0,5,,,,,,,,4,,,40,58
70920,note_on,24,0,4,,,,,,,,3,,,52,105
70920,note_on,0,0,6,,,,,,,,5,,,52,58
70968,note_on,48,0,2,,,,,,,,1,,,72,0
70968,note_on,48,0,1,,,,,,,,0,,,72,0
70980,note_on,12,0,1,,,,,,,,0,,,71,58
70980,note_on,12,0,2,,,,,,,,1,,,71,58
70992,note_on,72,0,6,,,,,,,,5,,,76,0
71016,note_on,96,0,3,,,,,,,,2,,,68,0
71016,note_on,96,0,5,,,,,,,,4,,,40,0
71016,note_on,24,0,6,,,,,,,,5,,,52,0
71016,note_on,0,0,6,,,,,,,,5,,,68,0
71016,note_on,96,0,4,,,,,,,,3,,,52,0
71028,note_on,48,0,2,,,,,,,,1,,,71,0
71028,note_on,48,0,1,,,,,,,,0,,,71,0
71040,note_on,0,0,6,,,,,,,,5,,,45,58
71040,note_on,12,0,1,,,,,,,,0,,,72,58
71040,note_on,24,0,5,,,,,,,,4,,,33,58
71040,note_on,24,0,3,,,,,,,,2,,,64,58
71040,note_on,24,0,4,,,,,,,,3,,,45,105
71040,note_on,24,0,6,,,,,,,,5,,,72,58
71040,note_on,0,0,6,,,,,,,,5,,,69,58
71040,note_on,12,0,2,,,,,,,,1,,,72,58
71088,note_on,48,0,2,,,,,,,,1,,,72,0
71088,note_on,48,0,1,,,,,,,,0,,,72,0
71100,note_on,12,0,2,,,,,,,,1,,,71,58
71100,note_on,12,0,1,,,,,,,,0,,,71,58
71136,note_on,96,0,6,,,,,,,,5,,,45,0
71136,note_on,96,0,5,,,,,,,,4,,,33,0
71136,note_on,96,0,4,,,,,,,,3,,,45,0
71148,note_on,48,0,2,,,,,,,,1,,,71,0
71148,note_on,48,0,1,,,,,,,,0,,,71,0
71160,note_on,12,0,1,,,,,,,,0,,,69,58
71160,note_on,24,0,4,,,,,,,,3,,,57,105
71160,note_on,24,0,6,,,,,,,,5,,,57,58
71160,note_on,24,0,5,,,,,,,,4,,,45,58
71160,note_on,12,0,2,,,,,,,,1,,,69,58
71232,note_on,72,0,6,,,,,,,,5,,,69,0
71256,note_on,96,0,5,,,,,,,,4,,,45,0
71256,note_on,24,0,6,,,,,,,,5,,,57,0
71256,note_on,96,0,4,,,,,,,,3,,,57,0
71280,note_on,0,0,6,,,,,,,,5,,,64,58
71280,note_on,24,0,4,,,,,,,,3,,,48,105
71280,note_on,24,0,6,,,,,,,,5,,,48,58
71280,note_on,24,0,5,,,,,,,,4,,,36,58
71328,note_on,288,0,3,,,,,,,,2,,,64,0
71352,note_on,192,0,1,,,,,,,,0,,,69,0
71352,note_on,192,0,2,,,,,,,,1,,,69,0
71376,note_on,96,0,5,,,,,,,,4,,,36,0
71376,note_on,96,0,4,,,,,,,,3,,,48,0
71376,note_on,96,0,6,,,,,,,,5,,,48,0
71400,note_on,72,0,3,,,,,,,,2,,,60,58
71400,note_on,24,0,6,,,,,,,,5,,,45,58
71400,note_on,48,0,2,,,,,,,,1,,,81,72
71400,note_on,48,0,1,,,,,,,,0,,,81,72
71400,note_on,24,0,5,,,,,,,,4,,,33,58
71400,note_on,24,0,4,,,,,,,,3,,,45,105
71424,note_on,24,0,6,,,,,,,,5,,,72,0
71472,note_on,48,0,6,,,,,,,,5,,,64,0
71496,note_on,24,0,6,,,,,,,,5,,,45,0
71496,note_on,96,0,2,,,,,,,,1,,,81,0
71496,note_on,96,0,3,,,,,,,,2,,,60,0
71496,note_on,96,0,4,,,,,,,,3,,,45,0
71496,note_on,96,0,5,,,,,,,,4,,,33,0
71496,note_on,96,0,1,,,,,,,,0,,,81,0
71520,note_on,24,0,1,,,,,,,,0,,,69,72
71520,note_on,24,0,2,,,,,,,,1,,,69,72
71544,note_on,24,0,2,,,,,,,,1,,,69,0
71544,note_on,24,0,1,,,,,,,,0,,,69,0
71550,note_on,6,0,1,,,,,,,,0,,,71,72
71550,note_on,6,0,2,,,,,,,,1,,,71,72
71574,note_on,24,0,2,,,,,,,,1,,,71,0
71574,note_on,24,0,1,,,,,,,,0,,,71,0
71580,note_on,6,0,1,,,,,,,,0,,,72,72
71580,note_on,6,0,2,,,,,,,,1,,,72,72
71628,note_on,48,0,1,,,,,,,,0,,,72,0
71628,note_on,48,0,2,,,,,,,,1,,,72,0
71640,note_on,0,0,6,,,,,,,,5,,,52,72
71640,note_on,0,0,6,,,,,,,,5,,,71,72
71640,note_on,12,0,1,,,,,,,,0,,,71,72
71640,note_on,144,0,5,,,,,,,,4,,,40,72
71640,note_on,12,0,2,,,,,,,,1,,,71,72
71640,note_on,144,0,4,,,,,,,,3,,,52,72
71640,note_on,144,0,6,,,,,,,,5,,,68,72
71640,note_on,144,0,3,,,,,,,,2,,,67,72
71736,note_on,96,0,3,,,,,,,,2,,,67,0
71736,note_on,96,0,6,,,,,,,,5,,,71,0
71736,note_on,0,0,6,,,,,,,,5,,,52,0
71736,note_on,96,0,2,,,,,,,,1,,,71,0
71736,note_on,96,0,4,,,,,,,,3,,,52,0
71736,note_on,96,0,5,,,,,,,,4,,,40,0
71736,note_on,96,0,1,,,,,,,,0,,,71,0
71760,note_on,24,0,4,,,,,,,,3,,,40,72
71760,note_on,24,0,6,,,,,,,,5,,,76,72
71760,note_on,0,0,6,,,,,,,,5,,,40,72
71760,note_on,24,0,5,,,,,,,,4,,,28,72
71760,note_on,24,0,2,,,,,,,,1,,,71,72
71760,note_on,24,0,1,,,,,,,,0,,,71,72
71760,note_on,24,0,3,,,,,,,,2,,,67,72
71784,note_on,24,0,1,,,,,,,,0,,,71,0
71784,note_on,24,0,2,,,,,,,,1,,,71,0
71790,note_on,6,0,1,,,,,,,,0,,,72,72
71790,note_on,6,0,2,,,,,,,,1,,,72,72
71814,note_on,24,0,1,,,,,,,,0,,,72,0
71814,note_on,24,0,2,,,,,,,,1,,,72,0
71820,note_on,6,0,1,,,,,,,,0,,,74,72
71820,note_on,6,0,2,,,,,,,,1,,,74,72
71832,note_on,72,0,6,,,,,,,,5,,,68,0
71856,note_on,96,0,4,,,,,,,,3,,,40,0
71856,note_on,0,0,6,,,,,,,,5,,,76,0
71856,note_on,96,0,5,,,,,,,,4,,,28,0
71856,note_on,96,0,3,,,,,,,,2,,,67,0
71856,note_on,24,0,6,,,,,,,,5,,,40,0
71868,note_on,48,0,1,,,,,,,,0,,,74,0
71868,note_on,48,0,2,,,,,,,,1,,,74,0
71880,note_on,12,0,2,,,,,,,,1,,,72,72
71880,note_on,0,0,6,,,,,,,,5,,,69,72
71880,note_on,0,0,6,,,,,,,,5,,,57,72
71880,note_on,24,0,6,,,,,,,,5,,,72,72
71880,note_on,12,0,1,,,,,,,,0,,,72,72
71880,note_on,24,0,5,,,,,,,,4,,,45,72
71880,note_on,24,0,4,,,,,,,,3,,,57,72
71880,note_on,24,0,3,,,,,,,,2,,,64,72
71976,note_on,96,0,1,,,,,,,,0,,,72,0
71976,note_on,96,0,4,,,,,,,,3,,,57,0
71976,note_on,96,0,5,,,,,,,,4,,,45,0
71976,note_on,96,0,2,,,,,,,,1,,,72,0
71976,note_on,0,0,6,,,,,,,,5,,,57,0
71976,note_on,96,0,6,,,,,,,,5,,,69,0
71976,note_on,0,0,6,,,,,,,,5,,,72,0
71976,note_on,96,0,3,,,,,,,,2,,,64,0
72000,note_on,24,0,5,,,,,,,,4,,,44,72
72000,note_on,24,0,2,,,,,,,,1,,,74,72
72000,note_on,24,0,3,,,,,,,,2,,,71,72
72000,note_on,24,0,1,,,,,,,,0,,,74,72
72000,note_on,24,0,6,,,,,,,,5,,,71,72
72000,note_on,0,0,6,,,,,,,,5,,,56,72
72000,note_on,0,0,6,,,,,,,,5,,,64,72
72000,note_on,24,0,4,,,,,,,,3,,,56,72
72024,note_on,24,0,2,,,,,,,,1,,,74,0
72024,note_on,24,0,1,,,,,,,,0,,,74,0
72030,note_on,6,0,1,,,,,,,,0,,,76,72
72030,note_on,6,0,2,,,,,,,,1,,,76,72
72054,note_on,24,0,1,,,,,,,,0,,,76,0
72054,note_on,24,0,2,,,,,,,,1,,,76,0
72060,note_on,6,0,1,,,,,,,,0,,,77,72
72060,note_on,6,0,2,,,,,,,,1,,,77,72
72096,note_on,0,0,6,,,,,,,,5,,,71,0
72096,note_on,96,0,6,,,,,,,,5,,,56,0
72096,note_on,96,0,5,,,,,,,,4,,,44,0
72096,note_on,96,0,3,,,,,,,,2,,,71,0
72096,note_on,96,0,4,,,,,,,,3,,,56,0
72108,note_on,48,0,2,,,,,,,,1,,,77,0
72108,note_on,48,0,1,,,,,,,,0,,,77,0
72120,note_on,0,0,6,,,,,,,,5,,,60,72
72120,note_on,24,0,3,,,,,,,,2,,,64,72
72120,note_on,12,0,2,,,,,,,,1,,,76,72
72120,note_on,24,0,4,,,,,,,,3,,,60,72
72120,note_on,24,0,6,,,,,,,,5,,,69,72
72120,note_on,12,0,1,,,,,,,,0,,,76,72
72120,note_on,24,0,5,,,,,,,,4,,,48,72
72216,note_on,96,0,3,,,,,,,,2,,,64,0
72216,note_on,96,0,4,,,,,,,,3,,,60,0
72216,note_on,0,0,6,,,,,,,,5,,,69,0
72216,note_on,96,0,6,,,,,,,,5,,,60,0
72216,note_on,96,0,5,,,,,,,,4,,,48,0
72240,note_on,24,0,5,,,,,,,,4,,,45,72
72240,note_on,0,0,6,,,,,,,,5,,,57,72
72240,note_on,24,0,4,,,,,,,,3,,,57,72
72240,note_on,24,0,3,,,,,,,,2,,,60,72
72240,note_on,24,0,6,,,,,,,,5,,,72,72
72312,note_on,192,0,2,,,,,,,,1,,,76,0
72312,note_on,192,0,1,,,,,,,,0,,,76,0
72336,note_on,96,0,5,,,,,,,,4,,,45,0
72336,note_on,96,0,4,,,,,,,,3,,,57,0
72336,note_on,96,0,6,,,,,,,,5,,,57,0
72360,note_on,24,0,6,,,,,,,,5,,,45,72
72360,note_on,24,0,4,,,,,,,,3,,,45,72
72360,note_on,48,0,2,,,,,,,,1,,,81,72
72360,note_on,24,0,5,,,,,,,,4,,,33,72
72360,note_on,48,0,1,,,,,,,,0,,,81,72
72384,note_on,24,0,6,,,,,,,,5,,,64,0
72432,note_on,48,0,6,,,,,,,,5,,,72,0
72456,note_on,24,0,6,,,,,,,,5,,,45,0
72456,note_on,96,0,2,,,,,,,,1,,,81,0
72456,note_on,96,0,4,,,,,,,,3,,,45,0
72456,note_on,96,0,1,,,,,,,,0,,,81,0
72456,note_on,96,0,5,,,,,,,,4,,,33,0
72480,note_on,24,0,1,,,,,,,,0,,,80,72
72480,note_on,240,0,3,,,,,,,,2,,,59,72
72480,note_on,24,0,5,,,,,,,,4,,,40,72
72480,note_on,24,0,6,,,,,,,,5,,,52,72
72480,note_on,0,0,6,,,,,,,,5,,,68,72
72480,note_on,0,0,6,,,,,,,,5,,,71,72
72480,note_on,24,0,2,,,,,,,,1,,,80,72
72480,note_on,24,0,4,,,,,,,,3,,,52,72
72504,note_on,24,0,2,,,,,,,,1,,,80,0
72504,note_on,24,0,1,,,,,,,,0,,,80,0
72510,note_on,6,0,1,,,,,,,,0,,,81,72
72510,note_on,6,0,2,,,,,,,,1,,,81,72
72528,note_on,48,0,3,,,,,,,,2,,,60,0
72534,note_on,24,0,1,,,,,,,,0,,,81,0
72534,note_on,24,0,2,,,,,,,,1,,,81,0
72540,note_on,6,0,1,,,,,,,,0,,,83,72
72540,note_on,6,0,2,,,,,,,,1,,,83,72
72576,note_on,0,0,6,,,,,,,,5,,,68,0
72576,note_on,96,0,6,,,,,,,,5,,,71,0
72576,note_on,96,0,4,,,,,,,,3,,,52,0
72576,note_on,48,0,3,,,,,,,,2,,,59,0
72576,note_on,0,0,6,,,,,,,,5,,,52,0
72576,note_on,96,0,5,,,,,,,,4,,,40,0
72588,note_on,48,0,2,,,,,,,,1,,,83,0
72588,note_on,48,0,1,,,,,,,,0,,,83,0
72600,note_on,0,0,6,,,,,,,,5,,,69,72
72600,note_on,0,0,6,,,,,,,,5,,,60,72
72600,note_on,24,0,6,,,,,,,,5,,,64,72
72600,note_on,24,0,3,,,,,,,,2,,,64,72
72600,note_on,24,0,4,,,,,,,,3,,,60,72
72600,note_on,12,0,1,,,,,,,,0,,,81,72
72600,note_on,12,0,2,,,,,,,,1,,,81,72
72600,note_on,24,0,5,,,,,,,,4,,,48,72
72696,note_on,96,0,1,,,,,,,,0,,,81,0
72696,note_on,96,0,3,,,,,,,,2,,,64,0
72696,note_on,0,0,6,,,,,,,,5,,,64,0
72696,note_on,0,0,6,,,,,,,,5,,,69,0
72696,note_on,96,0,6,,,,,,,,5,,,60,0
72696,note_on,96,0,4,,,,,,,,3,,,60,0
72696,note_on,96,0,2,,,,,,,,1,,,81,0
72696,note_on,96,0,5,,,,,,,,4,,,48,0
72720,note_on,24,0,3,,,,,,,,2,,,64,72
72720,note_on,24,0,4,,,,,,,,3,,,57,72
72720,note_on,24,0,1,,,,,,,,0,,,72,72
72720,note_on,24,0,2,,,,,,,,1,,,72,72
72720,note_on,24,0,5,,,,,,,,4,,,45,72
72720,note_on,24,0,6,,,,,,,,5,,,72,72
72720,note_on,0,0,6,,,,,,,,5,,,64,72
72720,note_on,0,0,6,,,,,,,,5,,,57,72
72768,note_on,48,0,2,,,,,,,,1,,,72,0
72768,note_on,48,0,1,,,,,,,,0,,,72,0
72780,note_on,12,0,1,,,,,,,,0,,,81,72
72780,note_on,12,0,2,,,,,,,,1,,,81,72
72816,note_on,96,0,4,,,,,,,,3,,,57,0
72816,note_on,96,0,6,,,,,,,,5,,,57,0
72816,note_on,0,0,6,,,,,,,,5,,,64,0
72816,note_on,96,0,5,,,,,,,,4,,,45,0
72828,note_on,48,0,2,,,,,,,,1,,,81,0
72828,note_on,48,0,1,,,,,,,,0,,,81,0
72840,note_on,12,0,2,,,,,,,,1,,,76,72
72840,note_on,24,0,4,,,,,,,,3,,,45,72
72840,note_on,12,0,1,,,,,,,,0,,,76,72
72840,note_on,0,0,6,,,,,,,,5,,,45,72
72840,note_on,24,0,6,,,,,,,,5,,,69,72
72840,note_on,24,0,5,,,,,,,,4,,,33,72
72888,note_on,48,0,2,,,,,,,,1,,,76,0
72888,note_on,48,0,1,,,,,,,,0,,,76,0
72900,note_on,12,0,2,,,,,,,,1,,,72,72
72900,note_on,12,0,1,,,,,,,,0,,,72,72
72912,note_on,192,0,3,,,,,,,,2,,,64,0
72912,note_on,72,0,6,,,,,,,,5,,,72,0
72936,note_on,0,0,6,,,,,,,,5,,,69,0
72936,note_on,96,0,4,,,,,,,,3,,,45,0
72936,note_on,96,0,5,,,,,,,,4,,,33,0
72936,note_on,24,0,6,,,,,,,,5,,,45,0
72948,note_on,48,0,1,,,,,,,,0,,,72,0
72948,note_on,48,0,2,,,,,,,,1,,,72,0
72960,note_on,24,0,4,,,,,,,,3,,,47,72
72960,note_on,48,0,3,,,,,,,,2,,,56,72
72960,note_on,24,0,5,,,,,,,,4,,,35,72
72960,note_on,24,0,6,,,,,,,,5,,,74,72
72960,note_on,0,0,6,,,,,,,,5,,,47,72
72960,note_on,0,0,6,,,,,,,,5,,,68,72
72960,note_on,12,0,1,,,,,,,,0,,,74,72
72960,note_on,12,0,2,,,,,,,,1,,,74,72
73008,note_on,48,0,1,,,,,,,,0,,,74,0
73008,note_on,48,0,2,,,,,,,,1,,,74,0
73020,note_on,12,0,1,,,,,,,,0,,,83,72
73020,note_on,12,0,2,,,,,,,,1,,,83,72
73056,note_on,0,0,6,,,,,,,,5,,,74,0
73056,note_on,96,0,6,,,,,,,,5,,,47,0
73056,note_on,96,0,5,,,,,,,,4,,,35,0
73056,note_on,96,0,3,,,,,,,,2,,,56,0
73056,note_on,96,0,4,,,,,,,,3,,,47,0
73068,note_on,48,0,2,,,,,,,,1,,,83,0
73068,note_on,48,0,1,,,,,,,,0,,,83,0
73080,note_on,0,0,6,,,,,,,,5,,,52,72
73080,note_on,24,0,6,,,,,,,,5,,,71,72
73080,note_on,24,0,5,,,,,,,,4,,,36,72
73080,note_on,24,0,3,,,,,,,,2,,,64,72
73080,note_on,24,0,4,,,,,,,,3,,,52,72
73080,note_on,12,0,2,,,,,,,,1,,,80,72
73080,note_on,12,0,1,,,,,,,,0,,,80,72
73128,note_on,48,0,2,,,,,,,,1,,,80,0
73128,note_on,48,0,1,,,,,,,,0,,,80,0
73140,note_on,12,0,2,,,,,,,,1,,,74,72
73140,note_on,12,0,1,,,,,,,,0,,,74,72
73152,note_on,72,0,6,,,,,,,,5,,,68,0
73176,note_on,96,0,4,,,,,,,,3,,,52,0
73176,note_on,96,0,3,,,,,,,,2,,,64,0
73176,note_on,0,0,6,,,,,,,,5,,,71,0
73176,note_on,24,0,6,,,,,,,,5,,,52,0
73176,note_on,96,0,5,,,,,,,,4,,,36,0
73188,note_on,48,0,1,,,,,,,,0,,,74,0
73188,note_on,48,0,2,,,,,,,,1,,,74,0
73200,note_on,12,0,2,,,,,,,,1,,,72,72
73200,note_on,12,0,1,,,,,,,,0,,,72,72
73200,note_on,0,0,6,,,,,,,,5,,,72,72
73200,note_on,0,0,6,,,,,,,,5,,,45,72
73200,note_on,24,0,6,,,,,,,,5,,,69,72
73200,note_on,24,0,5,,,,,,,,4,,,33,72
73200,note_on,24,0,4,,,,,,,,3,,,45,72
73200,note_on,24,0,3,,,,,,,,2,,,60,72
73248,note_on,48,0,1,,,,,,,,0,,,72,0
73248,note_on,48,0,3,,,,,,,,2,,,60,0
73248,note_on,48,0,2,,,,,,,,1,,,72,0
73260,note_on,12,0,1,,,,,,,,0,,,81,72
73260,note_on,12,0,3,,,,,,,,2,,,72,72
73260,note_on,12,0,2,,,,,,,,1,,,81,72
73296,note_on,96,0,6,,,,,,,,5,,,45,0
73296,note_on,96,0,5,,,,,,,,4,,,33,0
73296,note_on,96,0,4,,,,,,,,3,,,45,0
73308,note_on,48,0,1,,,,,,,,0,,,81,0
73308,note_on,48,0,3,,,,,,,,2,,,72,0
73308,note_on,48,0,2,,,,,,,,1,,,81,0
73320,note_on,12,0,1,,,,,,,,0,,,78,72
73320,note_on,12,0,3,,,,,,,,2,,,69,72
73320,note_on,12,0,2,,,,,,,,1,,,78,72
73320,note_on,0,0,6,,,,,,,,5,,,66,72
73320,note_on,24,0,5,,,,,,,,4,,,39,72
73320,note_on,24,0,6,,,,,,,,5,,,51,72
73320,note_on,24,0,4,,,,,,,,3,,,51,72
73368,note_on,48,0,1,,,,,,,,0,,,78,0
73368,note_on,48,0,2,,,,,,,,1,,,78,0
73380,note_on,12,0,2,,,,,,,,1,,,72,72
73380,note_on,12,0,1,,,,,,,,0,,,72,72
73416,note_on,0,0,6,,,,,,,,5,,,51,0
73416,note_on,96,0,6,,,,,,,,5,,,66,0
73416,note_on,96,0,5,,,,,,,,4,,,39,0
73416,note_on,96,0,4,,,,,,,,3,,,51,0
73416,note_on,96,0,3,,,,,,,,2,,,69,0
73428,note_on,48,0,1,,,,,,,,0,,,72,0
73428,note_on,48,0,2,,,,,,,,1,,,72,0
73440,note_on,24,0,3,,,,,,,,2,,,69,72
73440,note_on,12,0,2,,,,,,,,1,,,72,72
73440,note_on,12,0,1,,,,,,,,0,,,72,72
73440,note_on,24,0,6,,,,,,,,5,,,64,72
73440,note_on,0,0,6,,,,,,,,5,,,52,72
73440,note_on,24,0,5,,,,,,,,4,,,40,72
73440,note_on,24,0,4,,,,,,,,3,,,52,72
73446,note_on,6,0,2,,,,,,,,1,,,72,0
73446,note_on,6,0,1,,,,,,,,0,,,72,0
73447,note_on,1,0,2,,,,,,,,1,,,74,72
73447,note_on,1,0,1,,,,,,,,0,,,74,72
73453,note_on,6,0,2,,,,,,,,1,,,74,0
73453,note_on,6,0,1,,,,,,,,0,,,74,0
73454,note_on,1,0,2,,,,,,,,1,,,72,72
73454,note_on,1,0,1,,,,,,,,0,,,72,72
73460,note_on,6,0,2,,,,,,,,1,,,72,0
73460,note_on,6,0,1,,,,,,,,0,,,72,0
73461,note_on,1,0,2,,,,,,,,1,,,74,72
73461,note_on,1,0,1,,,,,,,,0,,,74,72
73467,note_on,6,0,1,,,,,,,,0,,,74,0
73467,note_on,6,0,2,,,,,,,,1,,,74,0
73468,note_on,1,0,2,,,,,,,,1,,,72,72
73468,note_on,1,0,1,,,,,,,,0,,,72,72
73474,note_on,6,0,2,,,,,,,,1,,,72,0
73474,note_on,6,0,1,,,,,,,,0,,,72,0
73475,note_on,1,0,1,,,,,,,,0,,,74,72
73475,note_on,1,0,2,,,,,,,,1,,,74,72
73481,note_on,6,0,2,,,,,,,,1,,,74,0
73481,note_on,6,0,1,,,,,,,,0,,,74,0
73482,note_on,1,0,2,,,,,,,,1,,,72,72
73482,note_on,1,0,1,,,,,,,,0,,,72,72
73488,note_on,6,0,2,,,,,,,,1,,,72,0
73488,note_on,6,0,1,,,,,,,,0,,,72,0
73489,note_on,1,0,2,,,,,,,,1,,,74,72
73489,note_on,1,0,1,,,,,,,,0,,,74,72
73495,note_on,6,0,1,,,,,,,,0,,,74,0
73495,note_on,6,0,2,,,,,,,,1,,,74,0
73496,note_on,1,0,2,,,,,,,,1,,,72,72
73496,note_on,1,0,1,,,,,,,,0,,,72,72
73502,note_on,6,0,1,,,,,,,,0,,,72,0
73502,note_on,6,0,2,,,,,,,,1,,,72,0
73503,note_on,1,0,1,,,,,,,,0,,,74,72
73503,note_on,1,0,2,,,,,,,,1,,,74,72
73509,note_on,6,0,2,,,,,,,,1,,,74,0
73509,note_on,6,0,1,,,,,,,,0,,,74,0
73510,note_on,1,0,2,,,,,,,,1,,,72,72
73510,note_on,1,0,1,,,,,,,,0,,,72,72
73516,note_on,6,0,1,,,,,,,,0,,,72,0
73516,note_on,6,0,2,,,,,,,,1,,,72,0
73517,note_on,1,0,2,,,,,,,,1,,,74,72
73517,note_on,1,0,1,,,,,,,,0,,,74,72
73523,note_on,6,0,2,,,,,,,,1,,,74,0
73523,note_on,6,0,1,,,,,,,,0,,,74,0
73524,note_on,1,0,1,,,,,,,,0,,,72,72
73524,note_on,1,0,2,,,,,,,,1,,,72,72
73530,note_on,6,0,2,,,,,,,,1,,,72,0
73530,note_on,6,0,1,,,,,,,,0,,,72,0
73531,note_on,1,0,2,,,,,,,,1,,,74,72
73531,note_on,1,0,1,,,,,,,,0,,,74,72
73536,note_on,96,0,5,,,,,,,,4,,,40,0
73536,note_on,0,0,6,,,,,,,,5,,,72,0
73536,note_on,0,0,6,,,,,,,,5,,,69,0
73536,note_on,96,0,6,,,,,,,,5,,,52,0
73536,note_on,96,0,3,,,,,,,,2,,,69,0
73536,note_on,96,0,4,,,,,,,,3,,,52,0
73537,note_on,6,0,1,,,,,,,,0,,,74,0
73537,note_on,6,0,2,,,,,,,,1,,,74,0
73538,note_on,1,0,1,,,,,,,,0,,,72,72
73538,note_on,1,0,2,,,,,,,,1,,,72,72
73544,note_on,6,0,1,,,,,,,,0,,,72,0
73544,note_on,6,0,2,,,,,,,,1,,,72,0
73545,note_on,1,0,2,,,,,,,,1,,,74,72
73545,note_on,1,0,1,,,,,,,,0,,,74,72
73551,note_on,6,0,2,,,,,,,,1,,,74,0
73551,note_on,6,0,1,,,,,,,,0,,,74,0
73552,note_on,1,0,2,,,,,,,,1,,,71,72
73552,note_on,1,0,1,,,,,,,,0,,,71,72
73560,note_on,24,0,3,,,,,,,,2,,,68,72
73560,note_on,24,0,5,,,,,,,,4,,,52,72
73560,note_on,0,0,6,,,,,,,,5,,,71,72
73560,note_on,24,0,6,,,,,,,,5,,,68,72
73560,note_on,24,0,4,,,,,,,,3,,,64,72
73560,note_on,0,0,6,,,,,,,,5,,,64,72
73632,note_on,72,0,6,,,,,,,,5,,,64,0
73648,note_on,96,0,2,,,,,,,,1,,,71,0
73648,note_on,96,0,1,,,,,,,,0,,,71,0
73656,note_on,0,0,6,,,,,,,,5,,,64,0
73656,note_on,96,0,4,,,,,,,,3,,,64,0
73656,note_on,24,0,6,,,,,,,,5,,,68,0
73656,note_on,96,0,5,,,,,,,,4,,,52,0
73656,note_on,96,0,3,,,,,,,,2,,,68,0
73656,note_on,0,0,6,,,,,,,,5,,,71,0
73680,note_on,24,0,5,,,,,,,,4,,,44,72
73680,note_on,24,0,6,,,,,,,,5,,,56,72
73680,note_on,24,0,4,,,,,,,,3,,,56,72
73776,note_on,96,0,6,,,,,,,,5,,,56,0
73776,note_on,96,0,4,,,,,,,,3,,,56,0
73776,note_on,96,0,5,,,,,,,,4,,,44,0
73792,note_on,144,0,2,,,,,,,,1,,,76,105
73792,note_on,144,0,1,,,,,,,,0,,,76,105
73800,note_on,24,0,6,,,,,,,,5,,,52,72
73800,note_on,24,0,4,,,,,,,,3,,,52,72
73800,note_on,24,0,5,,,,,,,,4,,,40,105
73888,note_on,96,0,1,,,,,,,,0,,,76,0
73888,note_on,96,0,2,,,,,,,,1,,,76,0
73896,note_on,96,0,6,,,,,,,,5,,,52,0
73896,note_on,96,0,4,,,,,,,,3,,,52,0
73896,note_on,96,0,5,,,,,,,,4,,,40,0
73920,note_on,32,0,1,,,,,,,,0,,,79,105
73920,note_on,32,0,2,,,,,,,,1,,,79,105
73968,note_on,48,0,1,,,,,,,,0,,,79,0
73968,note_on,48,0,2,,,,,,,,1,,,79,0
73980,note_on,12,0,1,,,,,,,,0,,,76,105
73980,note_on,12,0,2,,,,,,,,1,,,76,105
74028,note_on,48,0,1,,,,,,,,0,,,76,0
74028,note_on,48,0,2,,,,,,,,1,,,76,0
74040,note_on,12,0,2,,,,,,,,1,,,74,105
74040,note_on,144,0,4,,,,,,,,3,,,57,72
74040,note_on,144,0,5,,,,,,,,4,,,45,105
74040,note_on,12,0,1,,,,,,,,0,,,74,105
74040,note_on,144,0,6,,,,,,,,5,,,69,72
74040,note_on,384,0,3,,,,,,,,2,,,64,105
74040,note_on,0,0,6,,,,,,,,5,,,57,72
74040,note_on,0,0,6,,,,,,,,5,,,73,72
74088,note_on,48,0,2,,,,,,,,1,,,74,0
74088,note_on,48,0,1,,,,,,,,0,,,74,0
74100,note_on,12,0,2,,,,,,,,1,,,72,105
74100,note_on,12,0,1,,,,,,,,0,,,72,105
74136,note_on,0,0,6,,,,,,,,5,,,69,0
74136,note_on,0,0,6,,,,,,,,5,,,57,0
74136,note_on,96,0,4,,,,,,,,3,,,57,0
74136,note_on,96,0,3,,,,,,,,2,,,64,0
74136,note_on,96,0,5,,,,,,,,4,,,45,0
74136,note_on,96,0,6,,,,,,,,5,,,73,0
74148,note_on,48,0,1,,,,,,,,0,,,72,0
74148,note_on,48,0,2,,,,,,,,1,,,72,0
74160,note_on,12,0,2,,,,,,,,1,,,79,105
74160,note_on,24,0,4,,,,,,,,3,,,52,72
74160,note_on,0,0,6,,,,,,,,5,,,52,72
74160,note_on,24,0,3,,,,,,,,2,,,73,105
74160,note_on,24,0,6,,,,,,,,5,,,67,72
74160,note_on,12,0,1,,,,,,,,0,,,79,105
74160,note_on,24,0,5,,,,,,,,4,,,40,105
74160,note_on,0,0,6,,,,,,,,5,,,76,72
74184,note_on,24,0,2,,,,,,,,1,,,79,0
74184,note_on,24,0,1,,,,,,,,0,,,79,0
74190,note_on,6,0,1,,,,,,,,0,,,81,105
74190,note_on,6,0,2,,,,,,,,1,,,81,105
74214,note_on,24,0,2,,,,,,,,1,,,81,0
74214,note_on,24,0,1,,,,,,,,0,,,81,0
74220,note_on,6,0,2,,,,,,,,1,,,82,105
74220,note_on,6,0,1,,,,,,,,0,,,82,105
74256,note_on,0,0,6,,,,,,,,5,,,67,0
74256,note_on,96,0,6,,,,,,,,5,,,52,0
74256,note_on,96,0,4,,,,,,,,3,,,52,0
74256,note_on,96,0,5,,,,,,,,4,,,40,0
74268,note_on,48,0,2,,,,,,,,1,,,82,0
74268,note_on,48,0,1,,,,,,,,0,,,82,0
74280,note_on,24,0,5,,,,,,,,4,,,37,105
74280,note_on,0,0,6,,,,,,,,5,,,49,72
74280,note_on,24,0,6,,,,,,,,5,,,69,72
74280,note_on,24,0,4,,,,,,,,3,,,49,72
74280,note_on,12,0,2,,,,,,,,1,,,76,105
74280,note_on,12,0,1,,,,,,,,0,,,76,105
74304,note_on,24,0,1,,,,,,,,0,,,76,0
74304,note_on,24,0,2,,,,,,,,1,,,76,0
74310,note_on,6,0,2,,,,,,,,1,,,77,105
74310,note_on,6,0,1,,,,,,,,0,,,77,105
74334,note_on,24,0,2,,,,,,,,1,,,77,0
74334,note_on,24,0,1,,,,,,,,0,,,77,0
74340,note_on,6,0,1,,,,,,,,0,,,79,105
74340,note_on,6,0,2,,,,,,,,1,,,79,105
74352,note_on,192,0,3,,,,,,,,2,,,73,0
74352,note_on,72,0,6,,,,,,,,5,,,76,0
74376,note_on,96,0,4,,,,,,,,3,,,49,0
74376,note_on,96,0,5,,,,,,,,4,,,37,0
74376,note_on,24,0,6,,,,,,,,5,,,49,0
74388,note_on,48,0,1,,,,,,,,0,,,79,0
74388,note_on,48,0,2,,,,,,,,1,,,79,0
74400,note_on,12,0,2,,,,,,,,1,,,77,105
74400,note_on,24,0,5,,,,,,,,4,,,38,105
74400,note_on,0,0,6,,,,,,,,5,,,50,72
74400,note_on,24,0,4,,,,,,,,3,,,50,72
74400,note_on,48,0,3,,,,,,,,2,,,69,105
74400,note_on,12,0,1,,,,,,,,0,,,77,105
74400,note_on,24,0,6,,,,,,,,5,,,77,72
74496,note_on,96,0,5,,,,,,,,4,,,38,0
74496,note_on,96,0,1,,,,,,,,0,,,77,0
74496,note_on,96,0,4,,,,,,,,3,,,50,0
74496,note_on,96,0,2,,,,,,,,1,,,77,0
74496,note_on,96,0,3,,,,,,,,2,,,69,0
74496,note_on,96,0,6,,,,,,,,5,,,50,0
74520,note_on,24,0,3,,,,,,,,2,,,65,105
74520,note_on,24,0,1,,,,,,,,0,,,74,105
74520,note_on,24,0,2,,,,,,,,1,,,74,105
74520,note_on,24,0,6,,,,,,,,5,,,62,72
74520,note_on,24,0,5,,,,,,,,4,,,50,105
74520,note_on,24,0,4,,,,,,,,3,,,62,72
74592,note_on,72,0,6,,,,,,,,5,,,77,0
74616,note_on,24,0,6,,,,,,,,5,,,62,0
74616,note_on,96,0,4,,,,,,,,3,,,62,0
74616,note_on,96,0,5,,,,,,,,4,,,50,0
74616,note_on,96,0,3,,,,,,,,2,,,65,0
74640,note_on,24,0,4,,,,,,,,3,,,53,72
74640,note_on,0,0,6,,,,,,,,5,,,53,72
74640,note_on,24,0,5,,,,,,,,4,,,41,105
74640,note_on,24,0,6,,,,,,,,5,,,74,72
74712,note_on,192,0,1,,,,,,,,0,,,74,0
74712,note_on,192,0,2,,,,,,,,1,,,74,0
74736,note_on,96,0,4,,,,,,,,3,,,53,0
74736,note_on,96,0,5,,,,,,,,4,,,41,0
74736,note_on,96,0,6,,,,,,,,5,,,53,0
74760,note_on,48,0,2,,,,,,,,1,,,77,72
74760,note_on,48,0,1,,,,,,,,0,,,77,105
74760,note_on,24,0,5,,,,,,,,4,,,38,72
74760,note_on,24,0,4,,,,,,,,3,,,50,72
74760,note_on,24,0,6,,,,,,,,5,,,50,72
74784,note_on,24,0,6,,,,,,,,5,,,69,0
74832,note_on,48,0,6,,,,,,,,5,,,74,0
74856,note_on,96,0,5,,,,,,,,4,,,38,0
74856,note_on,24,0,6,,,,,,,,5,,,50,0
74856,note_on,96,0,2,,,,,,,,1,,,77,0
74856,note_on,96,0,1,,,,,,,,0,,,77,0
74856,note_on,96,0,4,,,,,,,,3,,,50,0
74880,note_on,24,0,2,,,,,,,,1,,,81,72
74880,note_on,24,0,1,,,,,,,,0,,,81,72
74928,note_on,48,0,2,,,,,,,,1,,,81,0
74928,note_on,48,0,1,,,,,,,,0,,,81,0
74940,note_on,12,0,2,,,,,,,,1,,,78,72
74940,note_on,12,0,1,,,,,,,,0,,,78,72
74988,note_on,48,0,2,,,,,,,,1,,,78,0
74988,note_on,48,0,1,,,,,,,,0,,,78,0
75000,note_on,12,0,1,,,,,,,,0,,,76,72
75000,note_on,12,0,2,,,,,,,,1,,,76,72
75000,note_on,144,0,5,,,,,,,,4,,,47,72
75000,note_on,144,0,6,,,,,,,,5,,,75,72
75000,note_on,0,0,6,,,,,,,,5,,,59,72
75000,note_on,384,0,3,,,,,,,,2,,,66,72
75000,note_on,0,0,6,,,,,,,,5,,,71,72
75000,note_on,144,0,4,,,,,,,,3,,,59,72
75048,note_on,48,0,1,,,,,,,,0,,,76,0
75048,note_on,48,0,2,,,,,,,,1,,,76,0
75060,note_on,12,0,1,,,,,,,,0,,,75,72
75060,note_on,12,0,2,,,,,,,,1,,,75,72
75096,note_on,96,0,4,,,,,,,,3,,,59,0
75096,note_on,96,0,5,,,,,,,,4,,,47,0
75096,note_on,96,0,3,,,,,,,,2,,,66,0
75096,note_on,0,0,6,,,,,,,,5,,,59,0
75096,note_on,0,0,6,,,,,,,,5,,,75,0
75096,note_on,96,0,6,,,,,,,,5,,,71,0
75108,note_on,48,0,2,,,,,,,,1,,,75,0
75108,note_on,48,0,1,,,,,,,,0,,,75,0
75120,note_on,12,0,1,,,,,,,,0,,,81,72
75120,note_on,24,0,4,,,,,,,,3,,,54,72
75120,note_on,12,0,2,,,,,,,,1,,,81,72
75120,note_on,0,0,6,,,,,,,,5,,,54,72
75120,note_on,24,0,6,,,,,,,,5,,,78,72
75120,note_on,24,0,3,,,,,,,,2,,,75,72
75120,note_on,0,0,6,,,,,,,,5,,,69,72
75120,note_on,24,0,5,,,,,,,,4,,,42,72
75144,note_on,24,0,1,,,,,,,,0,,,81,0
75144,note_on,24,0,2,,,,,,,,1,,,81,0
75150,note_on,6,0,1,,,,,,,,0,,,83,72
75150,note_on,6,0,2,,,,,,,,1,,,83,72
75174,note_on,24,0,2,,,,,,,,1,,,83,0
75174,note_on,24,0,1,,,,,,,,0,,,83,0
75180,note_on,6,0,1,,,,,,,,0,,,84,72
75180,note_on,6,0,2,,,,,,,,1,,,84,72
75216,note_on,96,0,5,,,,,,,,4,,,42,0
75216,note_on,96,0,4,,,,,,,,3,,,54,0
75216,note_on,0,0,6,,,,,,,,5,,,54,0
75216,note_on,96,0,6,,,,,,,,5,,,69,0
75228,note_on,48,0,2,,,,,,,,1,,,84,0
75228,note_on,48,0,1,,,,,,,,0,,,84,0
75240,note_on,0,0,6,,,,,,,,5,,,71,72
75240,note_on,24,0,6,,,,,,,,5,,,51,72
75240,note_on,12,0,1,,,,,,,,0,,,78,72
75240,note_on,24,0,4,,,,,,,,3,,,51,72
75240,note_on,12,0,2,,,,,,,,1,,,78,72
75240,note_on,24,0,5,,,,,,,,4,,,39,72
75264,note_on,24,0,1,,,,,,,,0,,,78,0
75264,note_on,24,0,2,,,,,,,,1,,,78,0
75270,note_on,6,0,2,,,,,,,,1,,,79,72
75270,note_on,6,0,1,,,,,,,,0,,,79,72
75294,note_on,24,0,2,,,,,,,,1,,,79,0
75294,note_on,24,0,1,,,,,,,,0,,,79,0
75300,note_on,6,0,2,,,,,,,,1,,,81,72
75300,note_on,6,0,1,,,,,,,,0,,,81,72
75312,note_on,72,0,6,,,,,,,,5,,,78,0
75312,note_on,192,0,3,,,,,,,,2,,,75,0
75336,note_on,96,0,4,,,,,,,,3,,,51,0
75336,note_on,96,0,5,,,,,,,,4,,,39,0
75336,note_on,24,0,6,,,,,,,,5,,,51,0
75348,note_on,48,0,1,,,,,,,,0,,,81,0
75348,note_on,48,0,2,,,,,,,,1,,,81,0
75360,note_on,24,0,4,,,,,,,,3,,,52,72
75360,note_on,24,0,6,,,,,,,,5,,,79,105
75360,note_on,0,0,6,,,,,,,,5,,,52,105
75360,note_on,48,0,3,,,,,,,,2,,,71,72
75360,note_on,24,0,5,,,,,,,,4,,,40,72
75360,note_on,12,0,2,,,,,,,,1,,,79,72
75360,note_on,12,0,1,,,,,,,,0,,,79,72
75456,note_on,96,0,4,,,,,,,,3,,,52,0
75456,note_on,96,0,5,,,,,,,,4,,,40,0
75456,note_on,96,0,6,,,,,,,,5,,,52,0
75456,note_on,96,0,3,,,,,,,,2,,,71,0
75456,note_on,0,0,6,,,,,,,,5,,,71,0
75456,note_on,0,0,6,,,,,,,,5,,,79,0
75456,note_on,96,0,2,,,,,,,,1,,,79,0
75456,note_on,96,0,1,,,,,,,,0,,,79,0
75480,note_on,24,0,2,,,,,,,,1,,,76,72
75480,note_on,24,0,1,,,,,,,,0,,,76,105
75480,note_on,0,0,4,,,,,,,,3,,,64,72
75480,note_on,24,0,5,,,,,,,,4,,,52,72
75480,note_on,0,0,6,,,,,,,,5,,,64,105
75480,note_on,24,0,4,,,,,,,,3,,,64,72
75480,note_on,24,0,6,,,,,,,,5,,,64,105
75480,note_on,24,0,3,,,,,,,,2,,,67,105
75576,note_on,96,0,1,,,,,,,,0,,,76,0
75576,note_on,96,0,5,,,,,,,,4,,,52,0
75576,note_on,96,0,4,,,,,,,,3,,,64,0
75576,note_on,0,0,4,,,,,,,,3,,,64,0
75576,note_on,0,0,6,,,,,,,,5,,,64,0
75576,note_on,96,0,6,,,,,,,,5,,,64,0
75576,note_on,96,0,3,,,,,,,,2,,,67,0
75576,note_on,96,0,2,,,,,,,,1,,,76,0
75600,note_on,24,0,6,,,,,,,,5,,,55,105
75600,note_on,24,0,4,,,,,,,,3,,,55,72
75600,note_on,0,0,6,,,,,,,,5,,,71,105
75600,note_on,24,0,5,,,,,,,,4,,,43,105
75600,note_on,24,0,1,,,,,,,,0,,,83,105
75600,note_on,0,0,6,,,,,,,,5,,,76,105
75600,note_on,24,0,2,,,,,,,,1,,,83,105
75632,note_on,32,0,2,,,,,,,,1,,,83,0
75632,note_on,32,0,1,,,,,,,,0,,,83,0
75640,note_on,8,0,2,,,,,,,,1,,,81,105
75640,note_on,8,0,1,,,,,,,,0,,,81,105
75672,note_on,32,0,2,,,,,,,,1,,,81,0
75672,note_on,32,0,1,,,,,,,,0,,,81,0
75680,note_on,8,0,2,,,,,,,,1,,,79,105
75680,note_on,8,0,1,,,,,,,,0,,,79,105
75696,note_on,96,0,4,,,,,,,,3,,,55,0
75696,note_on,96,0,6,,,,,,,,5,,,71,0
75696,note_on,0,0,6,,,,,,,,5,,,55,0
75696,note_on,96,0,5,,,,,,,,4,,,43,0
75712,note_on,32,0,2,,,,,,,,1,,,79,0
75712,note_on,32,0,1,,,,,,,,0,,,79,0
75720,note_on,8,0,1,,,,,,,,0,,,78,105
75720,note_on,24,0,5,,,,,,,,4,,,47,105
75720,note_on,8,0,2,,,,,,,,1,,,78,105
75720,note_on,144,0,3,,,,,,,,2,,,71,105
75720,note_on,24,0,4,,,,,,,,3,,,59,72
75720,note_on,0,0,6,,,,,,,,5,,,67,105
75720,note_on,24,0,6,,,,,,,,5,,,59,105
75752,note_on,32,0,2,,,,,,,,1,,,78,0
75752,note_on,32,0,1,,,,,,,,0,,,78,0
75760,note_on,8,0,2,,,,,,,,1,,,76,105
75760,note_on,8,0,1,,,,,,,,0,,,76,105
75792,note_on,32,0,2,,,,,,,,1,,,76,0
75792,note_on,72,0,6,,,,,,,,5,,,76,0
75792,note_on,32,0,1,,,,,,,,0,,,76,0
75800,note_on,8,0,2,,,,,,,,1,,,74,105
75800,note_on,8,0,1,,,,,,,,0,,,74,105
75816,note_on,0,0,6,,,,,,,,5,,,59,0
75816,note_on,96,0,4,,,,,,,,3,,,59,0
75816,note_on,96,0,3,,,,,,,,2,,,71,0
75816,note_on,96,0,5,,,,,,,,4,,,47,0
75816,note_on,24,0,6,,,,,,,,5,,,67,0
75832,note_on,32,0,2,,,,,,,,1,,,74,0
75832,note_on,32,0,1,,,,,,,,0,,,74,0
75840,note_on,24,0,4,,,,,,,,3,,,57,72
75840,note_on,24,0,5,,,,,,,,4,,,45,105
75840,note_on,8,0,1,,,,,,,,0,,,72,105
75840,note_on,8,0,2,,,,,,,,1,,,72,105
75840,note_on,24,0,3,,,,,,,,2,,,64,105
75840,note_on,0,0,6,,,,,,,,5,,,69,105
75840,note_on,24,0,6,,,,,,,,5,,,72,105
75840,note_on,0,0,6,,,,,,,,5,,,57,105
75846,note_on,6,0,1,,,,,,,,0,,,72,0
75846,note_on,6,0,2,,,,,,,,1,,,72,0
75847,note_on,1,0,2,,,,,,,,1,,,74,105
75847,note_on,1,0,1,,,,,,,,0,,,74,105
75853,note_on,6,0,2,,,,,,,,1,,,74,0
75853,note_on,6,0,1,,,,,,,,0,,,74,0
75854,note_on,1,0,2,,,,,,,,1,,,72,105
75854,note_on,1,0,1,,,,,,,,0,,,72,105
75860,note_on,6,0,2,,,,,,,,1,,,72,0
75860,note_on,6,0,1,,,,,,,,0,,,72,0
75861,note_on,1,0,2,,,,,,,,1,,,74,105
75861,note_on,1,0,1,,,,,,,,0,,,74,105
75867,note_on,6,0,2,,,,,,,,1,,,74,0
75867,note_on,6,0,1,,,,,,,,0,,,74,0
75868,note_on,1,0,2,,,,,,,,1,,,72,105
75868,note_on,1,0,1,,,,,,,,0,,,72,105
75874,note_on,6,0,1,,,,,,,,0,,,72,0
75874,note_on,6,0,2,,,,,,,,1,,,72,0
75875,note_on,1,0,2,,,,,,,,1,,,74,105
75875,note_on,1,0,1,,,,,,,,0,,,74,105
75881,note_on,6,0,1,,,,,,,,0,,,74,0
75881,note_on,6,0,2,,,,,,,,1,,,74,0
75882,note_on,1,0,1,,,,,,,,0,,,72,105
75882,note_on,1,0,2,,,,,,,,1,,,72,105
75888,note_on,6,0,1,,,,,,,,0,,,72,0
75888,note_on,6,0,2,,,,,,,,1,,,72,0
75889,note_on,1,0,1,,,,,,,,0,,,74,105
75889,note_on,1,0,2,,,,,,,,1,,,74,105
75895,note_on,6,0,1,,,,,,,,0,,,74,0
75895,note_on,6,0,2,,,,,,,,1,,,74,0
75896,note_on,1,0,1,,,,,,,,0,,,72,105
75896,note_on,1,0,2,,,,,,,,1,,,72,105
75902,note_on,6,0,1,,,,,,,,0,,,72,0
75902,note_on,6,0,2,,,,,,,,1,,,72,0
75903,note_on,1,0,1,,,,,,,,0,,,74,105
75903,note_on,1,0,2,,,,,,,,1,,,74,105
75909,note_on,6,0,2,,,,,,,,1,,,74,0
75909,note_on,6,0,1,,,,,,,,0,,,74,0
75910,note_on,1,0,1,,,,,,,,0,,,72,105
75910,note_on,1,0,2,,,,,,,,1,,,72,105
75916,note_on,6,0,2,,,,,,,,1,,,72,0
75916,note_on,6,0,1,,,,,,,,0,,,72,0
75917,note_on,1,0,1,,,,,,,,0,,,74,105
75917,note_on,1,0,2,,,,,,,,1,,,74,105
75923,note_on,6,0,1,,,,,,,,0,,,74,0
75923,note_on,6,0,2,,,,,,,,1,,,74,0
75924,note_on,1,0,1,,,,,,,,0,,,72,105
75924,note_on,1,0,2,,,,,,,,1,,,72,105
75930,note_on,6,0,1,,,,,,,,0,,,72,0
75930,note_on,6,0,2,,,,,,,,1,,,72,0
75931,note_on,1,0,2,,,,,,,,1,,,74,105
75931,note_on,1,0,1,,,,,,,,0,,,74,105
75936,note_on,96,0,5,,,,,,,,4,,,45,0
75936,note_on,96,0,3,,,,,,,,2,,,64,0
75936,note_on,96,0,4,,,,,,,,3,,,57,0
75936,note_on,96,0,6,,,,,,,,5,,,57,0
75937,note_on,6,0,1,,,,,,,,0,,,74,0
75937,note_on,6,0,2,,,,,,,,1,,,74,0
75938,note_on,1,0,1,,,,,,,,0,,,72,105
75938,note_on,1,0,2,,,,,,,,1,,,72,105
75944,note_on,6,0,2,,,,,,,,1,,,72,0
75944,note_on,6,0,1,,,,,,,,0,,,72,0
75945,note_on,1,0,2,,,,,,,,1,,,74,105
75945,note_on,1,0,1,,,,,,,,0,,,74,105
75951,note_on,6,0,1,,,,,,,,0,,,74,0
75951,note_on,6,0,2,,,,,,,,1,,,74,0
75960,note_on,24,0,3,,,,,,,,2,,,60,105
75960,note_on,24,0,6,,,,,,,,5,,,45,105
75960,note_on,24,0,4,,,,,,,,3,,,45,72
75960,note_on,24,0,5,,,,,,,,4,,,33,105
76032,note_on,72,0,6,,,,,,,,5,,,72,0
76056,note_on,96,0,3,,,,,,,,2,,,60,0
76056,note_on,96,0,4,,,,,,,,3,,,45,0
76056,note_on,24,0,6,,,,,,,,5,,,45,0
76056,note_on,96,0,5,,,,,,,,4,,,33,0
76072,note_on,121,0,2,,,,,,,,1,,,81,105
76072,note_on,121,0,1,,,,,,,,0,,,81,105
76080,note_on,24,0,4,,,,,,,,3,,,54,72
76080,note_on,24,0,5,,,,,,,,4,,,42,105
76080,note_on,0,0,6,,,,,,,,5,,,74,105
76080,note_on,24,0,6,,,,,,,,5,,,54,105
76104,note_on,32,0,1,,,,,,,,0,,,81,0
76104,note_on,32,0,2,,,,,,,,1,,,81,0
76112,note_on,8,0,1,,,,,,,,0,,,79,105
76112,note_on,8,0,2,,,,,,,,1,,,79,105
76144,note_on,32,0,2,,,,,,,,1,,,79,0
76144,note_on,32,0,1,,,,,,,,0,,,79,0
76152,note_on,8,0,1,,,,,,,,0,,,78,105
76152,note_on,8,0,2,,,,,,,,1,,,78,105
76176,note_on,96,0,5,,,,,,,,4,,,42,0
76176,note_on,96,0,4,,,,,,,,3,,,54,0
76176,note_on,0,0,6,,,,,,,,5,,,69,0
76176,note_on,96,0,6,,,,,,,,5,,,54,0
76184,note_on,32,0,1,,,,,,,,0,,,78,0
76184,note_on,32,0,2,,,,,,,,1,,,78,0
76192,note_on,8,0,2,,,,,,,,1,,,76,105
76192,note_on,8,0,1,,,,,,,,0,,,76,105
76200,note_on,24,0,4,,,,,,,,3,,,57,72
76200,note_on,24,0,5,,,,,,,,4,,,45,105
76200,note_on,24,0,6,,,,,,,,5,,,57,105
76200,note_on,0,0,6,,,,,,,,5,,,66,105
76200,note_on,144,0,3,,,,,,,,2,,,69,105
76224,note_on,32,0,2,,,,,,,,1,,,76,0
76224,note_on,32,0,1,,,,,,,,0,,,76,0
76232,note_on,8,0,2,,,,,,,,1,,,74,105
76232,note_on,8,0,1,,,,,,,,0,,,74,105
76264,note_on,32,0,1,,,,,,,,0,,,74,0
76264,note_on,32,0,2,,,,,,,,1,,,74,0
76272,note_on,8,0,1,,,,,,,,0,,,72,105
76272,note_on,72,0,6,,,,,,,,5,,,74,0
76272,note_on,8,0,2,,,,,,,,1,,,72,105
76296,note_on,96,0,5,,,,,,,,4,,,45,0
76296,note_on,96,0,3,,,,,,,,2,,,69,0
76296,note_on,24,0,6,,,,,,,,5,,,66,0
76296,note_on,0,0,6,,,,,,,,5,,,57,0
76296,note_on,96,0,4,,,,,,,,3,,,57,0
76304,note_on,32,0,1,,,,,,,,0,,,72,0
76304,note_on,32,0,2,,,,,,,,1,,,72,0
76320,note_on,24,0,6,,,,,,,,5,,,71,105
76320,note_on,24,0,5,,,,,,,,4,,,43,105
76320,note_on,24,0,4,,,,,,,,3,,,55,72
76320,note_on,0,0,6,,,,,,,,5,,,55,105
76320,note_on,24,0,3,,,,,,,,2,,,62,105
76320,note_on,0,0,6,,,,,,,,5,,,67,105
76327,note_on,23,0,2,,,,,,,,1,,,72,105
76327,note_on,23,0,1,,,,,,,,0,,,72,105
76333,note_on,6,0,1,,,,,,,,0,,,72,0
76333,note_on,6,0,2,,,,,,,,1,,,72,0
76334,note_on,1,0,1,,,,,,,,0,,,71,105
76334,note_on,1,0,2,,,,,,,,1,,,71,105
76340,note_on,6,0,2,,,,,,,,1,,,71,0
76340,note_on,6,0,1,,,,,,,,0,,,71,0
76341,note_on,1,0,1,,,,,,,,0,,,72,105
76341,note_on,1,0,2,,,,,,,,1,,,72,105
76347,note_on,6,0,1,,,,,,,,0,,,72,0
76347,note_on,6,0,2,,,,,,,,1,,,72,0
76348,note_on,1,0,2,,,,,,,,1,,,71,105
76348,note_on,1,0,1,,,,,,,,0,,,71,105
76354,note_on,6,0,2,,,,,,,,1,,,71,0
76354,note_on,6,0,1,,,,,,,,0,,,71,0
76355,note_on,1,0,1,,,,,,,,0,,,72,105
76355,note_on,1,0,2,,,,,,,,1,,,72,105
76361,note_on,6,0,1,,,,,,,,0,,,72,0
76361,note_on,6,0,2,,,,,,,,1,,,72,0
76362,note_on,1,0,2,,,,,,,,1,,,71,105
76362,note_on,1,0,1,,,,,,,,0,,,71,105
76368,note_on,6,0,1,,,,,,,,0,,,71,0
76368,note_on,6,0,2,,,,,,,,1,,,71,0
76369,note_on,1,0,1,,,,,,,,0,,,72,105
76369,note_on,1,0,2,,,,,,,,1,,,72,105
76375,note_on,6,0,2,,,,,,,,1,,,72,0
76375,note_on,6,0,1,,,,,,,,0,,,72,0
76376,note_on,1,0,1,,,,,,,,0,,,71,105
76376,note_on,1,0,2,,,,,,,,1,,,71,105
76382,note_on,6,0,2,,,,,,,,1,,,71,0
76382,note_on,6,0,1,,,,,,,,0,,,71,0
76383,note_on,1,0,2,,,,,,,,1,,,72,105
76383,note_on,1,0,1,,,,,,,,0,,,72,105
76389,note_on,6,0,1,,,,,,,,0,,,72,0
76389,note_on,6,0,2,,,,,,,,1,,,72,0
76390,note_on,1,0,1,,,,,,,,0,,,71,105
76390,note_on,1,0,2,,,,,,,,1,,,71,105
76396,note_on,6,0,1,,,,,,,,0,,,71,0
76396,note_on,6,0,2,,,,,,,,1,,,71,0
76397,note_on,1,0,2,,,,,,,,1,,,72,105
76397,note_on,1,0,1,,,,,,,,0,,,72,105
76403,note_on,6,0,1,,,,,,,,0,,,72,0
76403,note_on,6,0,2,,,,,,,,1,,,72,0
76404,note_on,1,0,2,,,,,,,,1,,,71,105
76404,note_on,1,0,1,,,,,,,,0,,,71,105
76410,note_on,6,0,1,,,,,,,,0,,,71,0
76410,note_on,6,0,2,,,,,,,,1,,,71,0
76411,note_on,1,0,2,,,,,,,,1,,,72,105
76411,note_on,1,0,1,,,,,,,,0,,,72,105
76416,note_on,96,0,5,,,,,,,,4,,,43,0
76416,note_on,96,0,6,,,,,,,,5,,,55,0
76416,note_on,96,0,4,,,,,,,,3,,,55,0
76416,note_on,96,0,3,,,,,,,,2,,,62,0
76417,note_on,6,0,1,,,,,,,,0,,,72,0
76417,note_on,6,0,2,,,,,,,,1,,,72,0
76418,note_on,1,0,2,,,,,,,,1,,,71,105
76418,note_on,1,0,1,,,,,,,,0,,,71,105
76424,note_on,6,0,2,,,,,,,,1,,,71,0
76424,note_on,6,0,1,,,,,,,,0,,,71,0
76425,note_on,1,0,2,,,,,,,,1,,,72,105
76425,note_on,1,0,1,,,,,,,,0,,,72,105
76431,note_on,6,0,1,,,,,,,,0,,,72,0
76431,note_on,6,0,2,,,,,,,,1,,,72,0
76440,note_on,24,0,3,,,,,,,,2,,,59,105
76440,note_on,24,0,6,,,,,,,,5,,,43,105
76440,note_on,24,0,5,,,,,,,,4,,,31,105
76440,note_on,24,0,4,,,,,,,,3,,,43,72
76512,note_on,72,0,6,,,,,,,,5,,,71,0
76536,note_on,24,0,6,,,,,,,,5,,,43,0
76536,note_on,96,0,3,,,,,,,,2,,,59,0
76536,note_on,96,0,4,,,,,,,,3,,,43,0
76536,note_on,96,0,5,,,,,,,,4,,,31,0
76552,note_on,121,0,1,,,,,,,,0,,,79,105
76552,note_on,121,0,2,,,,,,,,1,,,79,105
76560,note_on,0,0,6,,,,,,,,5,,,52,105
76560,note_on,24,0,5,,,,,,,,4,,,40,105
76560,note_on,0,0,5,,,,,,,,4,,,40,105
76560,note_on,24,0,4,,,,,,,,3,,,52,72
76560,note_on,24,0,6,,,,,,,,5,,,72,105
76584,note_on,32,0,2,,,,,,,,1,,,79,0
76584,note_on,32,0,1,,,,,,,,0,,,79,0
76592,note_on,8,0,1,,,,,,,,0,,,78,105
76592,note_on,8,0,2,,,,,,,,1,,,78,105
76624,note_on,32,0,2,,,,,,,,1,,,78,0
76624,note_on,32,0,1,,,,,,,,0,,,78,0
76632,note_on,8,0,2,,,,,,,,1,,,76,105
76632,note_on,8,0,1,,,,,,,,0,,,76,105
76656,note_on,96,0,5,,,,,,,,4,,,40,0
76656,note_on,96,0,4,,,,,,,,3,,,52,0
76656,note_on,96,0,6,,,,,,,,5,,,52,0
76656,note_on,0,0,5,,,,,,,,4,,,40,0
76656,note_on,0,0,6,,,,,,,,5,,,67,0
76664,note_on,32,0,1,,,,,,,,0,,,76,0
76664,note_on,32,0,2,,,,,,,,1,,,76,0
76672,note_on,8,0,1,,,,,,,,0,,,74,105
76672,note_on,8,0,2,,,,,,,,1,,,74,105
76680,note_on,0,0,6,,,,,,,,5,,,64,105
76680,note_on,24,0,5,,,,,,,,4,,,43,105
76680,note_on,24,0,6,,,,,,,,5,,,55,105
76680,note_on,24,0,4,,,,,,,,3,,,55,72
76680,note_on,144,0,3,,,,,,,,2,,,67,105
76704,note_on,32,0,2,,,,,,,,1,,,74,0
76704,note_on,32,0,1,,,,,,,,0,,,74,0
76712,note_on,8,0,1,,,,,,,,0,,,72,105
76712,note_on,8,0,2,,,,,,,,1,,,72,105
76744,note_on,32,0,2,,,,,,,,1,,,72,0
76744,note_on,32,0,1,,,,,,,,0,,,72,0
76752,note_on,8,0,2,,,,,,,,1,,,71,105
76752,note_on,8,0,1,,,,,,,,0,,,71,105
76752,note_on,72,0,6,,,,,,,,5,,,72,0
76776,note_on,96,0,5,,,,,,,,4,,,43,0
76776,note_on,96,0,3,,,,,,,,2,,,67,0
76776,note_on,0,0,6,,,,,,,,5,,,55,0
76776,note_on,96,0,4,,,,,,,,3,,,55,0
76776,note_on,24,0,6,,,,,,,,5,,,64,0
76784,note_on,32,0,1,,,,,,,,0,,,71,0
76784,note_on,32,0,2,,,,,,,,1,,,71,0
76800,note_on,16,0,2,,,,,,,,1,,,69,105
76800,note_on,24,0,3,,,,,,,,2,,,60,105
76800,note_on,0,0,6,,,,,,,,5,,,66,105
76800,note_on,24,0,6,,,,,,,,5,,,69,105
76800,note_on,0,0,6,,,,,,,,5,,,54,105
76800,note_on,24,0,5,,,,,,,,4,,,42,105
76800,note_on,16,0,1,,,,,,,,0,,,69,105
76800,note_on,24,0,4,,,,,,,,3,,,54,72
76806,note_on,6,0,1,,,,,,,,0,,,69,0
76806,note_on,6,0,2,,,,,,,,1,,,69,0
76807,note_on,1,0,2,,,,,,,,1,,,71,105
76807,note_on,1,0,1,,,,,,,,0,,,71,105
76813,note_on,6,0,1,,,,,,,,0,,,71,0
76813,note_on,6,0,2,,,,,,,,1,,,71,0
76814,note_on,1,0,1,,,,,,,,0,,,69,105
76814,note_on,1,0,2,,,,,,,,1,,,69,105
76820,note_on,6,0,1,,,,,,,,0,,,69,0
76820,note_on,6,0,2,,,,,,,,1,,,69,0
76821,note_on,1,0,1,,,,,,,,0,,,71,105
76821,note_on,1,0,2,,,,,,,,1,,,71,105
76827,note_on,6,0,1,,,,,,,,0,,,71,0
76827,note_on,6,0,2,,,,,,,,1,,,71,0
76828,note_on,1,0,1,,,,,,,,0,,,69,105
76828,note_on,1,0,2,,,,,,,,1,,,69,105
76834,note_on,6,0,1,,,,,,,,0,,,69,0
76834,note_on,6,0,2,,,,,,,,1,,,69,0
76835,note_on,1,0,2,,,,,,,,1,,,71,105
76835,note_on,1,0,1,,,,,,,,0,,,71,105
76841,note_on,6,0,2,,,,,,,,1,,,71,0
76841,note_on,6,0,1,,,,,,,,0,,,71,0
76842,note_on,1,0,1,,,,,,,,0,,,69,105
76842,note_on,1,0,2,,,,,,,,1,,,69,105
76848,note_on,6,0,2,,,,,,,,1,,,69,0
76848,note_on,6,0,1,,,,,,,,0,,,69,0
76849,note_on,1,0,2,,,,,,,,1,,,71,105
76849,note_on,1,0,1,,,,,,,,0,,,71,105
76855,note_on,6,0,1,,,,,,,,0,,,71,0
76855,note_on,6,0,2,,,,,,,,1,,,71,0
76856,note_on,1,0,2,,,,,,,,1,,,69,105
76856,note_on,1,0,1,,,,,,,,0,,,69,105
76862,note_on,6,0,2,,,,,,,,1,,,69,0
76862,note_on,6,0,1,,,,,,,,0,,,69,0
76863,note_on,1,0,2,,,,,,,,1,,,71,105
76863,note_on,1,0,1,,,,,,,,0,,,71,105
76869,note_on,6,0,2,,,,,,,,1,,,71,0
76869,note_on,6,0,1,,,,,,,,0,,,71,0
76870,note_on,1,0,1,,,,,,,,0,,,69,105
76870,note_on,1,0,2,,,,,,,,1,,,69,105
76876,note_on,6,0,1,,,,,,,,0,,,69,0
76876,note_on,6,0,2,,,,,,,,1,,,69,0
76877,note_on,1,0,2,,,,,,,,1,,,71,105
76877,note_on,1,0,1,,,,,,,,0,,,71,105
76883,note_on,6,0,1,,,,,,,,0,,,71,0
76883,note_on,6,0,2,,,,,,,,1,,,71,0
76884,note_on,1,0,1,,,,,,,,0,,,69,105
76884,note_on,1,0,2,,,,,,,,1,,,69,105
76890,note_on,6,0,1,,,,,,,,0,,,69,0
76890,note_on,6,0,2,,,,,,,,1,,,69,0
76891,note_on,1,0,2,,,,,,,,1,,,71,105
76891,note_on,1,0,1,,,,,,,,0,,,71,105
76896,note_on,96,0,3,,,,,,,,2,,,60,0
76896,note_on,96,0,5,,,,,,,,4,,,42,0
76896,note_on,96,0,6,,,,,,,,5,,,54,0
76896,note_on,96,0,4,,,,,,,,3,,,54,0
76897,note_on,6,0,2,,,,,,,,1,,,71,0
76897,note_on,6,0,1,,,,,,,,0,,,71,0
76898,note_on,1,0,1,,,,,,,,0,,,69,105
76898,note_on,1,0,2,,,,,,,,1,,,69,105
76904,note_on,6,0,2,,,,,,,,1,,,69,0
76904,note_on,6,0,1,,,,,,,,0,,,69,0
76905,note_on,1,0,2,,,,,,,,1,,,71,105
76905,note_on,1,0,1,,,,,,,,0,,,71,105
76911,note_on,6,0,2,,,,,,,,1,,,71,0
76911,note_on,6,0,1,,,,,,,,0,,,71,0
76920,note_on,24,0,4,,,,,,,,3,,,42,72
76920,note_on,24,0,3,,,,,,,,2,,,57,105
76920,note_on,24,0,5,,,,,,,,4,,,30,105
76920,note_on,24,0,6,,,,,,,,5,,,42,105
76992,note_on,72,0,6,,,,,,,,5,,,69,0
77016,note_on,24,0,6,,,,,,,,5,,,42,0
77016,note_on,96,0,5,,,,,,,,4,,,30,0
77016,note_on,96,0,4,,,,,,,,3,,,42,0
77016,note_on,96,0,3,,,,,,,,2,,,57,0
77032,note_on,121,0,2,,,,,,,,1,,,78,105
77032,note_on,121,0,1,,,,,,,,0,,,78,105
77040,note_on,24,0,5,,,,,,,,4,,,39,105
77040,note_on,0,0,6,,,,,,,,5,,,51,105
77040,note_on,24,0,6,,,,,,,,5,,,71,105
77040,note_on,24,0,4,,,,,,,,3,,,51,72
77064,note_on,32,0,1,,,,,,,,0,,,78,0
77064,note_on,32,0,2,,,,,,,,1,,,78,0
77072,note_on,8,0,1,,,,,,,,0,,,76,105
77072,note_on,8,0,2,,,,,,,,1,,,76,105
77104,note_on,32,0,1,,,,,,,,0,,,76,0
77104,note_on,32,0,2,,,,,,,,1,,,76,0
77112,note_on,8,0,2,,,,,,,,1,,,75,105
77112,note_on,8,0,1,,,,,,,,0,,,75,105
77136,note_on,96,0,6,,,,,,,,5,,,51,0
77136,note_on,0,0,6,,,,,,,,5,,,66,0
77136,note_on,96,0,5,,,,,,,,4,,,39,0
77136,note_on,96,0,4,,,,,,,,3,,,51,0
77144,note_on,32,0,2,,,,,,,,1,,,75,0
77144,note_on,32,0,1,,,,,,,,0,,,75,0
77152,note_on,8,0,2,,,,,,,,1,,,73,105
77152,note_on,8,0,1,,,,,,,,0,,,73,105
77160,note_on,24,0,5,,,,,,,,4,,,42,105
77160,note_on,24,0,6,,,,,,,,5,,,54,105
77160,note_on,0,0,6,,,,,,,,5,,,63,105
77160,note_on,144,0,3,,,,,,,,2,,,66,105
77160,note_on,24,0,4,,,,,,,,3,,,54,72
77184,note_on,32,0,2,,,,,,,,1,,,73,0
77184,note_on,32,0,1,,,,,,,,0,,,73,0
77192,note_on,8,0,1,,,,,,,,0,,,71,105
77192,note_on,8,0,2,,,,,,,,1,,,71,105
77224,note_on,32,0,1,,,,,,,,0,,,71,0
77224,note_on,32,0,2,,,,,,,,1,,,71,0
77232,note_on,8,0,1,,,,,,,,0,,,69,105
77232,note_on,72,0,6,,,,,,,,5,,,71,0
77232,note_on,8,0,2,,,,,,,,1,,,69,105
77256,note_on,96,0,3,,,,,,,,2,,,66,0
77256,note_on,0,0,6,,,,,,,,5,,,54,0
77256,note_on,24,0,6,,,,,,,,5,,,63,0
77256,note_on,96,0,5,,,,,,,,4,,,42,0
77256,note_on,96,0,4,,,,,,,,3,,,54,0
77264,note_on,32,0,2,,,,,,,,1,,,69,0
77264,note_on,32,0,1,,,,,,,,0,,,69,0
77280,note_on,24,0,5,,,,,,,,4,,,40,105
77280,note_on,24,0,6,,,,,,,,5,,,67,72
77280,note_on,0,0,6,,,,,,,,5,,,52,72
77280,note_on,24,0,4,,,,,,,,3,,,52,72
77280,note_on,16,0,2,,,,,,,,1,,,67,105
77280,note_on,24,0,3,,,,,,,,2,,,59,105
77280,note_on,0,0,6,,,,,,,,5,,,64,72
77280,note_on,16,0,1,,,,,,,,0,,,67,105
77376,note_on,96,0,6,,,,,,,,5,,,52,0
77376,note_on,96,0,4,,,,,,,,3,,,52,0
77376,note_on,96,0,1,,,,,,,,0,,,67,0
77376,note_on,96,0,2,,,,,,,,1,,,67,0
77376,note_on,96,0,5,,,,,,,,4,,,40,0
77376,note_on,96,0,3,,,,,,,,2,,,59,0
77400,note_on,24,0,3,,,,,,,,2,,,67,105
77400,note_on,24,0,5,,,,,,,,4,,,52,72
77400,note_on,24,0,6,,,,,,,,5,,,64,72
77400,note_on,24,0,2,,,,,,,,1,,,71,72
77400,note_on,24,0,4,,,,,,,,3,,,64,72
77400,note_on,24,0,1,,,,,,,,0,,,71,72
77472,note_on,72,0,6,,,,,,,,5,,,67,0
77496,note_on,24,0,6,,,,,,,,5,,,64,0
77496,note_on,96,0,5,,,,,,,,4,,,52,0
77496,note_on,96,0,2,,,,,,,,1,,,71,0
77496,note_on,96,0,1,,,,,,,,0,,,71,0
77496,note_on,96,0,3,,,,,,,,2,,,67,0
77496,note_on,96,0,4,,,,,,,,3,,,64,0
77520,note_on,24,0,6,,,,,,,,5,,,72,72
77520,note_on,0,0,6,,,,,,,,5,,,57,72
77520,note_on,24,0,3,,,,,,,,2,,,64,105
77520,note_on,24,0,5,,,,,,,,4,,,45,72
77520,note_on,24,0,1,,,,,,,,0,,,72,72
77520,note_on,24,0,2,,,,,,,,1,,,72,72
77520,note_on,24,0,4,,,,,,,,3,,,57,72
77552,note_on,32,0,1,,,,,,,,0,,,72,0
77552,note_on,32,0,2,,,,,,,,1,,,72,0
77560,note_on,8,0,1,,,,,,,,0,,,71,72
77560,note_on,8,0,2,,,,,,,,1,,,71,72
77568,note_on,48,0,3,,,,,,,,2,,,64,0
77580,note_on,12,0,3,,,,,,,,2,,,69,105
77592,note_on,32,0,1,,,,,,,,0,,,71,0
77592,note_on,32,0,2,,,,,,,,1,,,71,0
77600,note_on,8,0,1,,,,,,,,0,,,69,72
77600,note_on,8,0,2,,,,,,,,1,,,69,72
77616,note_on,96,0,4,,,,,,,,3,,,57,0
77616,note_on,96,0,6,,,,,,,,5,,,57,0
77616,note_on,0,0,6,,,,,,,,5,,,64,0
77616,note_on,0,0,6,,,,,,,,5,,,72,0
77616,note_on,96,0,5,,,,,,,,4,,,45,0
77628,note_on,48,0,3,,,,,,,,2,,,69,0
77632,note_on,32,0,2,,,,,,,,1,,,69,0
77632,note_on,32,0,1,,,,,,,,0,,,69,0
77640,note_on,8,0,1,,,,,,,,0,,,75,72
77640,note_on,24,0,6,,,,,,,,5,,,59,72
77640,note_on,0,0,6,,,,,,,,5,,,71,72
77640,note_on,0,0,6,,,,,,,,5,,,63,72
77640,note_on,12,0,3,,,,,,,,2,,,66,105
77640,note_on,24,0,5,,,,,,,,4,,,47,72
77640,note_on,8,0,2,,,,,,,,1,,,75,72
77640,note_on,24,0,4,,,,,,,,3,,,59,72
77736,note_on,96,0,4,,,,,,,,3,,,59,0
77736,note_on,96,0,5,,,,,,,,4,,,47,0
77736,note_on,0,0,6,,,,,,,,5,,,59,0
77736,note_on,96,0,6,,,,,,,,5,,,63,0
77736,note_on,96,0,2,,,,,,,,1,,,75,0
77736,note_on,96,0,3,,,,,,,,2,,,66,0
77736,note_on,96,0,1,,,,,,,,0,,,75,0
77760,note_on,24,0,1,,,,,,,,0,,,76,72
77760,note_on,24,0,3,,,,,,,,2,,,71,105
77760,note_on,24,0,5,,,,,,,,4,,,43,72
77760,note_on,24,0,4,,,,,,,,3,,,55,72
77760,note_on,24,0,6,,,,,,,,5,,,55,72
77760,note_on,24,0,2,,,,,,,,1,,,76,72
77760,note_on,0,0,6,,,,,,,,5,,,64,72
77856,note_on,96,0,3,,,,,,,,2,,,71,0
77856,note_on,96,0,6,,,,,,,,5,,,55,0
77856,note_on,96,0,4,,,,,,,,3,,,55,0
77856,note_on,96,0,5,,,,,,,,4,,,43,0
77856,note_on,96,0,2,,,,,,,,1,,,76,0
77856,note_on,96,0,1,,,,,,,,0,,,76,0
77880,note_on,24,0,3,,,,,,,,2,,,67,105
77880,note_on,24,0,5,,,,,,,,4,,,40,72
77880,note_on,24,0,4,,,,,,,,3,,,52,72
77880,note_on,24,0,6,,,,,,,,5,,,52,72
77952,note_on,72,0,6,,,,,,,,5,,,71,0
77976,note_on,96,0,4,,,,,,,,3,,,52,0
77976,note_on,96,0,5,,,,,,,,4,,,40,0
77976,note_on,24,0,6,,,,,,,,5,,,52,0
77976,note_on,96,0,3,,,,,,,,2,,,67,0
78000,note_on,24,0,4,,,,,,,,3,,,57,72
78000,note_on,0,0,6,,,,,,,,5,,,57,72
78000,note_on,144,0,2,,,,,,,,1,,,72,72
78000,note_on,24,0,3,,,,,,,,2,,,64,105
78000,note_on,24,0,6,,,,,,,,5,,,72,72
78000,note_on,24,0,5,,,,,,,,4,,,45,72
78000,note_on,144,0,1,,,,,,,,0,,,72,72
78032,note_on,32,0,1,,,,,,,,0,,,72,0
78032,note_on,32,0,2,,,,,,,,1,,,72,0
78040,note_on,8,0,2,,,,,,,,1,,,71,72
78040,note_on,8,0,1,,,,,,,,0,,,71,72
78048,note_on,48,0,3,,,,,,,,2,,,64,0
78060,note_on,12,0,3,,,,,,,,2,,,69,105
78072,note_on,32,0,2,,,,,,,,1,,,71,0
78072,note_on,32,0,1,,,,,,,,0,,,71,0
78080,note_on,8,0,1,,,,,,,,0,,,69,72
78080,note_on,8,0,2,,,,,,,,1,,,69,72
78096,note_on,96,0,4,,,,,,,,3,,,57,0
78096,note_on,96,0,6,,,,,,,,5,,,57,0
78096,note_on,0,0,6,,,,,,,,5,,,72,0
78096,note_on,0,0,6,,,,,,,,5,,,64,0
78096,note_on,96,0,5,,,,,,,,4,,,45,0
78108,note_on,48,0,3,,,,,,,,2,,,69,0
78112,note_on,32,0,1,,,,,,,,0,,,69,0
78112,note_on,32,0,2,,,,,,,,1,,,69,0
78120,note_on,8,0,1,,,,,,,,0,,,75,72
78120,note_on,0,0,6,,,,,,,,5,,,63,72
78120,note_on,24,0,5,,,,,,,,4,,,47,72
78120,note_on,24,0,4,,,,,,,,3,,,59,72
78120,note_on,0,0,6,,,,,,,,5,,,71,72
78120,note_on,24,0,6,,,,,,,,5,,,59,72
78120,note_on,12,0,3,,,,,,,,2,,,66,105
78120,note_on,8,0,2,,,,,,,,1,,,75,72
78216,note_on,96,0,5,,,,,,,,4,,,47,0
78216,note_on,96,0,3,,,,,,,,2,,,66,0
78216,note_on,96,0,6,,,,,,,,5,,,63,0
78216,note_on,96,0,4,,,,,,,,3,,,59,0
78216,note_on,0,0,6,,,,,,,,5,,,59,0
78216,note_on,96,0,2,,,,,,,,1,,,75,0
78216,note_on,96,0,1,,,,,,,,0,,,75,0
78240,note_on,24,0,2,,,,,,,,1,,,76,72
78240,note_on,24,0,4,,,,,,,,3,,,55,72
78240,note_on,24,0,6,,,,,,,,5,,,55,72
78240,note_on,0,0,6,,,,,,,,5,,,64,72
78240,note_on,24,0,1,,,,,,,,0,,,76,72
78240,note_on,24,0,5,,,,,,,,4,,,43,72
78240,note_on,24,0,3,,,,,,,,2,,,71,105
78336,note_on,96,0,6,,,,,,,,5,,,55,0
78336,note_on,96,0,3,,,,,,,,2,,,71,0
78336,note_on,96,0,5,,,,,,,,4,,,43,0
78336,note_on,96,0,4,,,,,,,,3,,,55,0
78336,note_on,96,0,2,,,,,,,,1,,,76,0
78336,note_on,96,0,1,,,,,,,,0,,,76,0
78360,note_on,24,0,3,,,,,,,,2,,,67,105
78360,note_on,24,0,5,,,,,,,,4,,,40,72
78360,note_on,24,0,4,,,,,,,,3,,,52,72
78360,note_on,24,0,6,,,,,,,,5,,,52,72
78432,note_on,0,0,6,,,,,,,,5,,,71,0
78432,note_on,72,0,6,,,,,,,,5,,,64,0
78456,note_on,96,0,5,,,,,,,,4,,,40,0
78456,note_on,96,0,3,,,,,,,,2,,,67,0
78456,note_on,24,0,6,,,,,,,,5,,,52,0
78456,note_on,96,0,4,,,,,,,,3,,,52,0
78480,note_on,144,0,2,,,,,,,,1,,,64,72
78480,note_on,144,0,1,,,,,,,,0,,,64,105
78528,note_on,48,0,2,,,,,,,,1,,,64,0
78528,note_on,48,0,1,,,,,,,,0,,,64,0
78540,note_on,12,0,1,,,,,,,,0,,,67,105
78540,note_on,12,0,2,,,,,,,,1,,,67,72
78588,note_on,48,0,1,,,,,,,,0,,,67,0
78588,note_on,48,0,2,,,,,,,,1,,,67,0
78600,note_on,0,0,6,,,,,,,,5,,,67,72
78600,note_on,12,0,1,,,,,,,,0,,,71,105
78600,note_on,0,0,6,,,,,,,,5,,,76,72
78600,note_on,144,0,3,,,,,,,,2,,,67,105
78600,note_on,144,0,5,,,,,,,,4,,,52,105
78600,note_on,144,0,4,,,,,,,,3,,,64,72
78600,note_on,144,0,6,,,,,,,,5,,,64,72
78600,note_on,12,0,2,,,,,,,,1,,,71,72
78648,note_on,48,0,2,,,,,,,,1,,,71,0
78648,note_on,48,0,1,,,,,,,,0,,,71,0
78660,note_on,12,0,2,,,,,,,,1,,,76,72
78660,note_on,12,0,1,,,,,,,,0,,,76,105
78696,note_on,96,0,5,,,,,,,,4,,,52,0
78696,note_on,96,0,6,,,,,,,,5,,,67,0
78696,note_on,0,0,6,,,,,,,,5,,,64,0
78696,note_on,96,0,3,,,,,,,,2,,,67,0
78696,note_on,96,0,4,,,,,,,,3,,,64,0
78708,note_on,48,0,1,,,,,,,,0,,,76,0
78708,note_on,48,0,2,,,,,,,,1,,,76,0
78720,note_on,12,0,2,,,,,,,,1,,,83,72
78720,note_on,0,0,6,,,,,,,,5,,,71,105
78720,note_on,24,0,4,,,,,,,,3,,,55,105
78720,note_on,24,0,5,,,,,,,,4,,,43,105
78720,note_on,12,0,1,,,,,,,,0,,,83,105
78720,note_on,24,0,3,,,,,,,,2,,,64,105
78720,note_on,24,0,6,,,,,,,,5,,,55,105
78768,note_on,48,0,2,,,,,,,,1,,,83,0
78768,note_on,48,0,1,,,,,,,,0,,,83,0
78780,note_on,12,0,1,,,,,,,,0,,,81,105
78780,note_on,12,0,2,,,,,,,,1,,,81,72
78804,note_on,24,0,2,,,,,,,,1,,,81,0
78804,note_on,24,0,1,,,,,,,,0,,,81,0
78810,note_on,6,0,2,,,,,,,,1,,,79,72
78810,note_on,6,0,1,,,,,,,,0,,,79,105
78816,note_on,96,0,5,,,,,,,,4,,,43,0
78816,note_on,96,0,4,,,,,,,,3,,,55,0
78816,note_on,96,0,6,,,,,,,,5,,,71,0
78816,note_on,0,0,6,,,,,,,,5,,,55,0
78834,note_on,24,0,2,,,,,,,,1,,,79,0
78834,note_on,24,0,1,,,,,,,,0,,,79,0
78840,note_on,0,0,6,,,,,,,,5,,,73,105
78840,note_on,6,0,1,,,,,,,,0,,,78,105
78840,note_on,24,0,4,,,,,,,,3,,,57,105
78840,note_on,6,0,2,,,,,,,,1,,,78,72
78840,note_on,24,0,6,,,,,,,,5,,,57,105
78840,note_on,24,0,5,,,,,,,,4,,,45,105
78864,note_on,24,0,1,,,,,,,,0,,,78,0
78864,note_on,24,0,2,,,,,,,,1,,,78,0
78870,note_on,6,0,2,,,,,,,,1,,,76,72
78870,note_on,6,0,1,,,,,,,,0,,,76,105
78894,note_on,24,0,2,,,,,,,,1,,,76,0
78894,note_on,24,0,1,,,,,,,,0,,,76,0
78900,note_on,6,0,1,,,,,,,,0,,,75,105
78900,note_on,6,0,2,,,,,,,,1,,,75,72
78912,note_on,192,0,3,,,,,,,,2,,,64,0
78912,note_on,72,0,6,,,,,,,,5,,,76,0
78924,note_on,24,0,1,,,,,,,,0,,,75,0
78924,note_on,24,0,2,,,,,,,,1,,,75,0
78930,note_on,6,0,2,,,,,,,,1,,,73,72
78930,note_on,6,0,1,,,,,,,,0,,,73,105
78936,note_on,0,0,6,,,,,,,,5,,,57,0
78936,note_on,24,0,6,,,,,,,,5,,,73,0
78936,note_on,96,0,4,,,,,,,,3,,,57,0
78936,note_on,96,0,5,,,,,,,,4,,,45,0
78954,note_on,24,0,1,,,,,,,,0,,,73,0
78954,note_on,24,0,2,,,,,,,,1,,,73,0
78960,note_on,6,0,1,,,,,,,,0,,,71,105
78960,note_on,24,0,6,,,,,,,,5,,,75,105
78960,note_on,24,0,4,,,,,,,,3,,,59,105
78960,note_on,0,0,6,,,,,,,,5,,,59,105
78960,note_on,0,0,6,,,,,,,,5,,,71,105
78960,note_on,24,0,5,,,,,,,,4,,,47,105
78960,note_on,48,0,3,,,,,,,,2,,,63,105
78960,note_on,6,0,2,,,,,,,,1,,,71,72
79056,note_on,96,0,5,,,,,,,,4,,,47,0
79056,note_on,96,0,2,,,,,,,,1,,,71,0
79056,note_on,96,0,4,,,,,,,,3,,,59,0
79056,note_on,96,0,6,,,,,,,,5,,,59,0
79056,note_on,96,0,1,,,,,,,,0,,,71,0
79080,note_on,24,0,5,,,,,,,,4,,,35,105
79080,note_on,24,0,2,,,,,,,,1,,,78,72
79080,note_on,24,0,1,,,,,,,,0,,,78,105
79080,note_on,24,0,6,,,,,,,,5,,,47,105
79080,note_on,24,0,4,,,,,,,,3,,,47,105
79086,note_on,6,0,1,,,,,,,,0,,,78,0
79086,note_on,6,0,2,,,,,,,,1,,,78,0
79087,note_on,1,0,1,,,,,,,,0,,,79,105
79087,note_on,1,0,2,,,,,,,,1,,,79,72
79093,note_on,6,0,2,,,,,,,,1,,,79,0
79093,note_on,6,0,1,,,,,,,,0,,,79,0
79094,note_on,1,0,2,,,,,,,,1,,,78,72
79094,note_on,1,0,1,,,,,,,,0,,,78,105
79100,note_on,6,0,2,,,,,,,,1,,,78,0
79100,note_on,6,0,1,,,,,,,,0,,,78,0
79101,note_on,1,0,1,,,,,,,,0,,,79,105
79101,note_on,1,0,2,,,,,,,,1,,,79,72
79107,note_on,6,0,2,,,,,,,,1,,,79,0
79107,note_on,6,0,1,,,,,,,,0,,,79,0
79108,note_on,1,0,2,,,,,,,,1,,,78,72
79108,note_on,1,0,1,,,,,,,,0,,,78,105
79114,note_on,6,0,2,,,,,,,,1,,,78,0
79114,note_on,6,0,1,,,,,,,,0,,,78,0
79115,note_on,1,0,2,,,,,,,,1,,,79,72
79115,note_on,1,0,1,,,,,,,,0,,,79,105
79121,note_on,6,0,1,,,,,,,,0,,,79,0
79121,note_on,6,0,2,,,,,,,,1,,,79,0
79122,note_on,1,0,1,,,,,,,,0,,,78,105
79122,note_on,1,0,2,,,,,,,,1,,,78,72
79128,note_on,6,0,2,,,,,,,,1,,,78,0
79128,note_on,6,0,1,,,,,,,,0,,,78,0
79129,note_on,1,0,2,,,,,,,,1,,,79,72
79129,note_on,1,0,1,,,,,,,,0,,,79,105
79135,note_on,6,0,2,,,,,,,,1,,,79,0
79135,note_on,6,0,1,,,,,,,,0,,,79,0
79136,note_on,1,0,2,,,,,,,,1,,,78,72
79136,note_on,1,0,1,,,,,,,,0,,,78,105
79142,note_on,6,0,2,,,,,,,,1,,,78,0
79142,note_on,6,0,1,,,,,,,,0,,,78,0
79143,note_on,1,0,2,,,,,,,,1,,,79,72
79143,note_on,1,0,1,,,,,,,,0,,,79,105
79149,note_on,6,0,1,,,,,,,,0,,,79,0
79149,note_on,6,0,2,,,,,,,,1,,,79,0
79150,note_on,1,0,1,,,,,,,,0,,,78,105
79150,note_on,1,0,2,,,,,,,,1,,,78,72
79152,note_on,192,0,3,,,,,,,,2,,,63,0
79152,note_on,0,0,6,,,,,,,,5,,,75,0
79152,note_on,72,0,6,,,,,,,,5,,,71,0
79156,note_on,6,0,1,,,,,,,,0,,,78,0
79156,note_on,6,0,2,,,,,,,,1,,,78,0
79157,note_on,1,0,2,,,,,,,,1,,,79,72
79157,note_on,1,0,1,,,,,,,,0,,,79,105
79163,note_on,6,0,2,,,,,,,,1,,,79,0
79163,note_on,6,0,1,,,,,,,,0,,,79,0
79164,note_on,1,0,1,,,,,,,,0,,,78,105
79164,note_on,1,0,2,,,,,,,,1,,,78,72
79170,note_on,6,0,1,,,,,,,,0,,,78,0
79170,note_on,6,0,2,,,,,,,,1,,,78,0
79171,note_on,1,0,1,,,,,,,,0,,,79,105
79171,note_on,1,0,2,,,,,,,,1,,,79,72
79176,note_on,24,0,6,,,,,,,,5,,,47,0
79176,note_on,96,0,4,,,,,,,,3,,,47,0
79176,note_on,96,0,5,,,,,,,,4,,,35,0
79177,note_on,6,0,1,,,,,,,,0,,,79,0
79177,note_on,6,0,2,,,,,,,,1,,,79,0
79178,note_on,1,0,2,,,,,,,,1,,,78,72
79178,note_on,1,0,1,,,,,,,,0,,,78,105
79184,note_on,6,0,2,,,,,,,,1,,,78,0
79184,note_on,6,0,1,,,,,,,,0,,,78,0
79185,note_on,1,0,2,,,,,,,,1,,,79,72
79185,note_on,1,0,1,,,,,,,,0,,,79,105
79191,note_on,6,0,2,,,,,,,,1,,,79,0
79191,note_on,6,0,1,,,,,,,,0,,,79,0
79200,note_on,48,0,3,,,,,,,,2,,,64,105
79200,note_on,0,0,6,,,,,,,,5,,,67,105
79200,note_on,0,0,6,,,,,,,,5,,,76,105
79200,note_on,24,0,6,,,,,,,,5,,,52,105
79200,note_on,24,0,5,,,,,,,,4,,,40,105
79200,note_on,9,0,2,,,,,,,,1,,,76,72
79200,note_on,24,0,4,,,,,,,,3,,,52,105
79200,note_on,9,0,1,,,,,,,,0,,,76,105
79296,note_on,96,0,4,,,,,,,,3,,,52,0
79296,note_on,96,0,5,,,,,,,,4,,,40,0
79296,note_on,96,0,6,,,,,,,,5,,,52,0
79320,note_on,24,0,6,,,,,,,,5,,,40,105
79320,note_on,24,0,5,,,,,,,,4,,,28,105
79320,note_on,24,0,4,,,,,,,,3,,,40,105
79392,note_on,72,0,6,,,,,,,,5,,,67,0
79392,note_on,0,0,6,,,,,,,,5,,,76,0
79392,note_on,192,0,1,,,,,,,,0,,,76,0
79392,note_on,192,0,3,,,,,,,,2,,,64,0
79392,note_on,192,0,2,,,,,,,,1,,,76,0
79416,note_on,96,0,4,,,,,,,,3,,,40,0
79416,note_on,96,0,5,,,,,,,,4,,,28,0
79416,note_on,24,0,6,,,,,,,,5,,,40,0
79440,note_on,48,0,2,,,,,,,,1,,,64,72
79440,note_on,48,0,1,,,,,,,,0,,,64,72
79488,note_on,48,0,2,,,,,,,,1,,,64,0
79488,note_on,48,0,1,,,,,,,,0,,,64,0
79500,note_on,12,0,2,,,,,,,,1,,,67,72
79500,note_on,12,0,1,,,,,,,,0,,,67,72
79548,note_on,48,0,2,,,,,,,,1,,,67,0
79548,note_on,48,0,1,,,,,,,,0,,,67,0
79560,note_on,144,0,5,,,,,,,,4,,,52,105
79560,note_on,144,0,4,,,,,,,,3,,,64,105
79560,note_on,144,0,6,,,,,,,,5,,,64,105
79560,note_on,0,0,6,,,,,,,,5,,,67,105
79560,note_on,0,0,6,,,,,,,,5,,,76,105
79560,note_on,12,0,2,,,,,,,,1,,,71,72
79560,note_on,12,0,1,,,,,,,,0,,,71,72
79560,note_on,168,0,3,,,,,,,,2,,,67,105
79608,note_on,48,0,2,,,,,,,,1,,,71,0
79608,note_on,48,0,1,,,,,,,,0,,,71,0
79620,note_on,12,0,1,,,,,,,,0,,,76,72
79620,note_on,12,0,2,,,,,,,,1,,,76,72
79656,note_on,96,0,6,,,,,,,,5,,,67,0
79656,note_on,0,0,6,,,,,,,,5,,,64,0
79656,note_on,96,0,4,,,,,,,,3,,,64,0
79656,note_on,96,0,3,,,,,,,,2,,,67,0
79656,note_on,96,0,5,,,,,,,,4,,,52,0
79668,note_on,48,0,1,,,,,,,,0,,,76,0
79668,note_on,48,0,2,,,,,,,,1,,,76,0
79680,note_on,12,0,2,,,,,,,,1,,,83,72
79680,note_on,12,0,1,,,,,,,,0,,,83,72
79680,note_on,24,0,5,,,,,,,,4,,,43,72
79680,note_on,24,0,4,,,,,,,,3,,,55,72
79680,note_on,24,0,6,,,,,,,,5,,,71,105
79680,note_on,0,0,6,,,,,,,,5,,,55,105
79680,note_on,24,0,3,,,,,,,,2,,,64,72
79728,note_on,48,0,2,,,,,,,,1,,,83,0
79728,note_on,48,0,1,,,,,,,,0,,,83,0
79740,note_on,12,0,2,,,,,,,,1,,,81,72
79740,note_on,12,0,1,,,,,,,,0,,,81,72
79764,note_on,24,0,1,,,,,,,,0,,,81,0
79764,note_on,24,0,2,,,,,,,,1,,,81,0
79770,note_on,6,0,2,,,,,,,,1,,,79,72
79770,note_on,6,0,1,,,,,,,,0,,,79,72
79776,note_on,96,0,5,,,,,,,,4,,,43,0
79776,note_on,96,0,4,,,,,,,,3,,,55,0
79776,note_on,96,0,6,,,,,,,,5,,,55,0
79776,note_on,0,0,6,,,,,,,,5,,,71,0
79794,note_on,24,0,1,,,,,,,,0,,,79,0
79794,note_on,24,0,2,,,,,,,,1,,,79,0
79800,note_on,6,0,2,,,,,,,,1,,,78,72
79800,note_on,0,0,6,,,,,,,,5,,,57,105
79800,note_on,24,0,5,,,,,,,,4,,,45,72
79800,note_on,6,0,1,,,,,,,,0,,,78,72
79800,note_on,24,0,6,,,,,,,,5,,,73,105
79800,note_on,24,0,4,,,,,,,,3,,,57,72
79824,note_on,24,0,1,,,,,,,,0,,,78,0
79824,note_on,24,0,2,,,,,,,,1,,,78,0
79830,note_on,6,0,2,,,,,,,,1,,,76,72
79830,note_on,6,0,1,,,,,,,,0,,,76,72
79854,note_on,24,0,1,,,,,,,,0,,,76,0
79854,note_on,24,0,2,,,,,,,,1,,,76,0
79860,note_on,6,0,2,,,,,,,,1,,,75,72
79860,note_on,6,0,1,,,,,,,,0,,,75,72
79872,note_on,72,0,6,,,,,,,,5,,,76,0
79872,note_on,192,0,3,,,,,,,,2,,,64,0
79884,note_on,24,0,2,,,,,,,,1,,,75,0
79884,note_on,24,0,1,,,,,,,,0,,,75,0
79890,note_on,6,0,1,,,,,,,,0,,,73,72
79890,note_on,6,0,2,,,,,,,,1,,,73,72
79896,note_on,24,0,6,,,,,,,,5,,,57,0
79896,note_on,96,0,4,,,,,,,,3,,,57,0
79896,note_on,96,0,5,,,,,,,,4,,,45,0
79896,note_on,0,0,6,,,,,,,,5,,,73,0
79914,note_on,24,0,2,,,,,,,,1,,,73,0
79914,note_on,24,0,1,,,,,,,,0,,,73,0
79920,note_on,6,0,1,,,,,,,,0,,,71,72
79920,note_on,24,0,6,,,,,,,,5,,,75,105
79920,note_on,6,0,2,,,,,,,,1,,,71,72
79920,note_on,48,0,3,,,,,,,,2,,,63,72
79920,note_on,0,0,6,,,,,,,,5,,,71,105
79920,note_on,0,0,6,,,,,,,,5,,,59,105
79920,note_on,24,0,4,,,,,,,,3,,,59,72
79920,note_on,24,0,5,,,,,,,,4,,,47,72
80016,note_on,96,0,1,,,,,,,,0,,,71,0
80016,note_on,96,0,2,,,,,,,,1,,,71,0
80016,note_on,96,0,6,,,,,,,,5,,,59,0
80016,note_on,96,0,4,,,,,,,,3,,,59,0
80016,note_on,96,0,5,,,,,,,,4,,,47,0
80040,note_on,24,0,2,,,,,,,,1,,,78,72
80040,note_on,24,0,6,,,,,,,,5,,,47,105
80040,note_on,24,0,1,,,,,,,,0,,,78,72
80040,note_on,24,0,4,,,,,,,,3,,,47,72
80040,note_on,24,0,5,,,,,,,,4,,,35,72
80046,note_on,6,0,1,,,,,,,,0,,,78,0
80046,note_on,6,0,2,,,,,,,,1,,,78,0
80047,note_on,1,0,2,,,,,,,,1,,,79,72
80047,note_on,1,0,1,,,,,,,,0,,,79,72
80053,note_on,6,0,1,,,,,,,,0,,,79,0
80053,note_on,6,0,2,,,,,,,,1,,,79,0
80054,note_on,1,0,1,,,,,,,,0,,,78,72
80054,note_on,1,0,2,,,,,,,,1,,,78,72
80060,note_on,6,0,1,,,,,,,,0,,,78,0
80060,note_on,6,0,2,,,,,,,,1,,,78,0
80061,note_on,1,0,1,,,,,,,,0,,,79,72
80061,note_on,1,0,2,,,,,,,,1,,,79,72
80067,note_on,6,0,2,,,,,,,,1,,,79,0
80067,note_on,6,0,1,,,,,,,,0,,,79,0
80068,note_on,1,0,1,,,,,,,,0,,,78,72
80068,note_on,1,0,2,,,,,,,,1,,,78,72
80074,note_on,6,0,2,,,,,,,,1,,,78,0
80074,note_on,6,0,1,,,,,,,,0,,,78,0
80075,note_on,1,0,2,,,,,,,,1,,,79,72
80075,note_on,1,0,1,,,,,,,,0,,,79,72
80081,note_on,6,0,2,,,,,,,,1,,,79,0
80081,note_on,6,0,1,,,,,,,,0,,,79,0
80082,note_on,1,0,2,,,,,,,,1,,,78,72
80082,note_on,1,0,1,,,,,,,,0,,,78,72
80088,note_on,6,0,2,,,,,,,,1,,,78,0
80088,note_on,6,0,1,,,,,,,,0,,,78,0
80089,note_on,1,0,1,,,,,,,,0,,,79,72
80089,note_on,1,0,2,,,,,,,,1,,,79,72
80095,note_on,6,0,2,,,,,,,,1,,,79,0
80095,note_on,6,0,1,,,,,,,,0,,,79,0
80096,note_on,1,0,1,,,,,,,,0,,,78,72
80096,note_on,1,0,2,,,,,,,,1,,,78,72
80102,note_on,6,0,1,,,,,,,,0,,,78,0
80102,note_on,6,0,2,,,,,,,,1,,,78,0
80103,note_on,1,0,1,,,,,,,,0,,,79,72
80103,note_on,1,0,2,,,,,,,,1,,,79,72
80109,note_on,6,0,2,,,,,,,,1,,,79,0
80109,note_on,6,0,1,,,,,,,,0,,,79,0
80110,note_on,1,0,1,,,,,,,,0,,,78,72
80110,note_on,1,0,2,,,,,,,,1,,,78,72
80112,note_on,192,0,3,,,,,,,,2,,,63,0
80112,note_on,0,0,6,,,,,,,,5,,,75,0
80112,note_on,72,0,6,,,,,,,,5,,,71,0
80116,note_on,6,0,1,,,,,,,,0,,,78,0
80116,note_on,6,0,2,,,,,,,,1,,,78,0
80117,note_on,1,0,2,,,,,,,,1,,,79,72
80117,note_on,1,0,1,,,,,,,,0,,,79,72
80123,note_on,6,0,2,,,,,,,,1,,,79,0
80123,note_on,6,0,1,,,,,,,,0,,,79,0
80124,note_on,1,0,2,,,,,,,,1,,,78,72
80124,note_on,1,0,1,,,,,,,,0,,,78,72
80130,note_on,6,0,1,,,,,,,,0,,,78,0
80130,note_on,6,0,2,,,,,,,,1,,,78,0
80131,note_on,1,0,2,,,,,,,,1,,,79,72
80131,note_on,1,0,1,,,,,,,,0,,,79,72
80136,note_on,96,0,5,,,,,,,,4,,,35,0
80136,note_on,96,0,4,,,,,,,,3,,,47,0
80136,note_on,24,0,6,,,,,,,,5,,,47,0
80137,note_on,6,0,1,,,,,,,,0,,,79,0
80137,note_on,6,0,2,,,,,,,,1,,,79,0
80138,note_on,1,0,2,,,,,,,,1,,,78,72
80138,note_on,1,0,1,,,,,,,,0,,,78,72
80144,note_on,6,0,2,,,,,,,,1,,,78,0
80144,note_on,6,0,1,,,,,,,,0,,,78,0
80145,note_on,1,0,1,,,,,,,,0,,,79,72
80145,note_on,1,0,2,,,,,,,,1,,,79,72
80151,note_on,6,0,2,,,,,,,,1,,,79,0
80151,note_on,6,0,1,,,,,,,,0,,,79,0
80160,note_on,24,0,6,,,,,,,,5,,,76,105
80160,note_on,0,0,6,,,,,,,,5,,,67,105
80160,note_on,48,0,3,,,,,,,,2,,,59,105
80160,note_on,0,0,6,,,,,,,,5,,,40,105
80160,note_on,9,0,2,,,,,,,,1,,,76,72
80160,note_on,24,0,5,,,,,,,,4,,,28,105
80160,note_on,9,0,1,,,,,,,,0,,,76,105
80160,note_on,24,0,4,,,,,,,,3,,,40,72
80192,note_on,32,0,1,,,,,,,,0,,,76,0
80192,note_on,32,0,2,,,,,,,,1,,,76,0
80200,note_on,8,0,2,,,,,,,,1,,,78,72
80200,note_on,8,0,1,,,,,,,,0,,,78,105
80232,note_on,32,0,2,,,,,,,,1,,,78,0
80232,note_on,32,0,1,,,,,,,,0,,,78,0
80240,note_on,8,0,2,,,,,,,,1,,,79,72
80240,note_on,8,0,1,,,,,,,,0,,,79,105
80256,note_on,0,0,6,,,,,,,,5,,,40,0
80256,note_on,96,0,4,,,,,,,,3,,,40,0
80256,note_on,96,0,5,,,,,,,,4,,,28,0
80256,note_on,96,0,6,,,,,,,,5,,,67,0
80256,note_on,0,0,6,,,,,,,,5,,,76,0
80256,note_on,96,0,3,,,,,,,,2,,,59,0
80272,note_on,32,0,2,,,,,,,,1,,,79,0
80272,note_on,32,0,1,,,,,,,,0,,,79,0
80280,note_on,8,0,2,,,,,,,,1,,,78,72
80280,note_on,0,0,6,,,,,,,,5,,,66,105
80280,note_on,0,0,6,,,,,,,,5,,,59,105
80280,note_on,24,0,6,,,,,,,,5,,,75,105
80280,note_on,8,0,1,,,,,,,,0,,,78,105
80280,note_on,24,0,4,,,,,,,,3,,,59,72
80280,note_on,24,0,5,,,,,,,,4,,,47,105
80280,note_on,24,0,3,,,,,,,,2,,,63,105
80376,note_on,0,0,6,,,,,,,,5,,,75,0
80376,note_on,96,0,2,,,,,,,,1,,,78,0
80376,note_on,96,0,3,,,,,,,,2,,,63,0
80376,note_on,0,0,6,,,,,,,,5,,,59,0
80376,note_on,96,0,6,,,,,,,,5,,,66,0
80376,note_on,96,0,5,,,,,,,,4,,,47,0
80376,note_on,96,0,4,,,,,,,,3,,,59,0
80376,note_on,96,0,1,,,,,,,,0,,,78,0
80400,note_on,24,0,4,,,,,,,,3,,,47,72
80400,note_on,24,0,2,,,,,,,,1,,,78,72
80400,note_on,0,0,6,,,,,,,,5,,,69,105
80400,note_on,0,0,6,,,,,,,,5,,,78,105
80400,note_on,24,0,6,,,,,,,,5,,,47,105
80400,note_on,24,0,3,,,,,,,,2,,,63,105
80400,note_on,24,0,1,,,,,,,,0,,,78,105
80400,note_on,24,0,5,,,,,,,,4,,,35,105
80432,note_on,32,0,1,,,,,,,,0,,,78,0
80432,note_on,32,0,2,,,,,,,,1,,,78,0
80440,note_on,8,0,2,,,,,,,,1,,,79,72
80440,note_on,8,0,1,,,,,,,,0,,,79,105
80472,note_on,32,0,2,,,,,,,,1,,,79,0
80472,note_on,32,0,1,,,,,,,,0,,,79,0
80480,note_on,8,0,1,,,,,,,,0,,,81,105
80480,note_on,8,0,2,,,,,,,,1,,,81,72
80496,note_on,96,0,5,,,,,,,,4,,,35,0
80496,note_on,0,0,6,,,,,,,,5,,,47,0
80496,note_on,96,0,4,,,,,,,,3,,,47,0
80496,note_on,96,0,3,,,,,,,,2,,,63,0
80496,note_on,0,0,6,,,,,,,,5,,,78,0
80496,note_on,96,0,6,,,,,,,,5,,,69,0
80512,note_on,32,0,1,,,,,,,,0,,,81,0
80512,note_on,32,0,2,,,,,,,,1,,,81,0
80520,note_on,8,0,1,,,,,,,,0,,,79,105
80520,note_on,0,0,6,,,,,,,,5,,,67,105
80520,note_on,24,0,5,,,,,,,,4,,,40,105
80520,note_on,0,0,6,,,,,,,,5,,,76,105
80520,note_on,24,0,6,,,,,,,,5,,,52,105
80520,note_on,24,0,4,,,,,,,,3,,,52,72
80520,note_on,24,0,3,,,,,,,,2,,,59,105
80520,note_on,8,0,2,,,,,,,,1,,,79,72
80616,note_on,0,0,6,,,,,,,,5,,,76,0
80616,note_on,0,0,6,,,,,,,,5,,,52,0
80616,note_on,96,0,6,,,,,,,,5,,,67,0
80616,note_on,96,0,3,,,,,,,,2,,,59,0
80616,note_on,96,0,5,,,,,,,,4,,,40,0
80616,note_on,96,0,1,,,,,,,,0,,,79,0
80616,note_on,96,0,4,,,,,,,,3,,,52,0
80616,note_on,96,0,2,,,,,,,,1,,,79,0
80640,note_on,0,0,6,,,,,,,,5,,,51,105
80640,note_on,24,0,4,,,,,,,,3,,,51,72
80640,note_on,24,0,5,,,,,,,,4,,,39,105
80640,note_on,24,0,3,,,,,,,,2,,,71,105
80640,note_on,24,0,6,,,,,,,,5,,,71,105
80640,note_on,0,0,6,,,,,,,,5,,,66,105
80640,note_on,24,0,2,,,,,,,,1,,,81,72
80640,note_on,24,0,1,,,,,,,,0,,,81,105
80672,note_on,32,0,2,,,,,,,,1,,,81,0
80672,note_on,32,0,1,,,,,,,,0,,,81,0
80680,note_on,8,0,1,,,,,,,,0,,,83,105
80680,note_on,8,0,2,,,,,,,,1,,,83,72
80712,note_on,32,0,2,,,,,,,,1,,,83,0
80712,note_on,32,0,1,,,,,,,,0,,,83,0
80720,note_on,8,0,1,,,,,,,,0,,,84,105
80720,note_on,8,0,2,,,,,,,,1,,,84,72
80736,note_on,96,0,3,,,,,,,,2,,,71,0
80736,note_on,96,0,4,,,,,,,,3,,,51,0
80736,note_on,96,0,6,,,,,,,,5,,,66,0
80736,note_on,0,0,6,,,,,,,,5,,,51,0
80736,note_on,96,0,5,,,,,,,,4,,,39,0
80752,note_on,32,0,1,,,,,,,,0,,,84,0
80752,note_on,32,0,2,,,,,,,,1,,,84,0
80760,note_on,24,0,3,,,,,,,,2,,,71,105
80760,note_on,24,0,4,,,,,,,,3,,,55,72
80760,note_on,8,0,1,,,,,,,,0,,,83,105
80760,note_on,8,0,2,,,,,,,,1,,,83,72
80760,note_on,24,0,5,,,,,,,,4,,,43,105
80760,note_on,0,0,6,,,,,,,,5,,,64,105
80760,note_on,24,0,6,,,,,,,,5,,,55,105
80856,note_on,96,0,4,,,,,,,,3,,,55,0
80856,note_on,96,0,3,,,,,,,,2,,,71,0
80856,note_on,96,0,6,,,,,,,,5,,,64,0
80856,note_on,96,0,5,,,,,,,,4,,,43,0
80856,note_on,0,0,6,,,,,,,,5,,,55,0
80880,note_on,24,0,4,,,,,,,,3,,,52,72
80880,note_on,24,0,3,,,,,,,,2,,,67,105
80880,note_on,0,0,6,,,,,,,,5,,,52,105
80880,note_on,24,0,6,,,,,,,,5,,,67,105
80880,note_on,24,0,5,,,,,,,,4,,,40,105
80976,note_on,96,0,4,,,,,,,,3,,,52,0
80976,note_on,96,0,5,,,,,,,,4,,,40,0
80976,note_on,216,0,1,,,,,,,,0,,,83,0
80976,note_on,96,0,6,,,,,,,,5,,,52,0
80976,note_on,216,0,2,,,,,,,,1,,,83,0
80976,note_on,96,0,3,,,,,,,,2,,,67,0
81000,note_on,24,0,3,,,,,,,,2,,,67,105
81000,note_on,24,0,5,,,,,,,,4,,,28,105
81000,note_on,24,0,1,,,,,,,,0,,,76,105
81000,note_on,24,0,2,,,,,,,,1,,,76,72
81000,note_on,24,0,6,,,,,,,,5,,,40,105
81000,note_on,24,0,4,,,,,,,,3,,,40,72
81072,note_on,72,0,6,,,,,,,,5,,,67,0
81096,note_on,96,0,2,,,,,,,,1,,,76,0
81096,note_on,24,0,6,,,,,,,,5,,,40,0
81096,note_on,96,0,4,,,,,,,,3,,,40,0
81096,note_on,96,0,5,,,,,,,,4,,,28,0
81096,note_on,96,0,1,,,,,,,,0,,,76,0
81096,note_on,96,0,3,,,,,,,,2,,,67,0
81120,note_on,24,0,1,,,,,,,,0,,,75,105
81120,note_on,24,0,2,,,,,,,,1,,,75,72
81120,note_on,24,0,3,,,,,,,,2,,,66,105
81120,note_on,24,0,6,,,,,,,,5,,,47,105
81120,note_on,0,0,6,,,,,,,,5,,,63,105
81120,note_on,24,0,5,,,,,,,,4,,,35,105
81120,note_on,24,0,4,,,,,,,,3,,,47,72
81144,note_on,24,0,2,,,,,,,,1,,,75,0
81144,note_on,24,0,1,,,,,,,,0,,,75,0
81150,note_on,6,0,1,,,,,,,,0,,,76,105
81150,note_on,6,0,2,,,,,,,,1,,,76,72
81174,note_on,24,0,1,,,,,,,,0,,,76,0
81174,note_on,24,0,2,,,,,,,,1,,,76,0
81180,note_on,6,0,1,,,,,,,,0,,,78,105
81180,note_on,6,0,2,,,,,,,,1,,,78,72
81216,note_on,96,0,4,,,,,,,,3,,,47,0
81216,note_on,96,0,6,,,,,,,,5,,,63,0
81216,note_on,0,0,6,,,,,,,,5,,,47,0
81216,note_on,96,0,5,,,,,,,,4,,,35,0
81216,note_on,96,0,3,,,,,,,,2,,,66,0
81228,note_on,48,0,1,,,,,,,,0,,,78,0
81228,note_on,48,0,2,,,,,,,,1,,,78,0
81240,note_on,12,0,2,,,,,,,,1,,,76,72
81240,note_on,24,0,4,,,,,,,,3,,,55,72
81240,note_on,24,0,5,,,,,,,,4,,,43,105
81240,note_on,24,0,3,,,,,,,,2,,,71,105
81240,note_on,0,0,6,,,,,,,,5,,,64,105
81240,note_on,24,0,6,,,,,,,,5,,,55,105
81240,note_on,12,0,1,,,,,,,,0,,,76,105
81336,note_on,96,0,5,,,,,,,,4,,,43,0
81336,note_on,96,0,3,,,,,,,,2,,,71,0
81336,note_on,96,0,2,,,,,,,,1,,,76,0
81336,note_on,0,0,6,,,,,,,,5,,,55,0
81336,note_on,96,0,6,,,,,,,,5,,,64,0
81336,note_on,96,0,4,,,,,,,,3,,,55,0
81336,note_on,96,0,1,,,,,,,,0,,,76,0
81360,note_on,0,0,6,,,,,,,,5,,,63,105
81360,note_on,24,0,6,,,,,,,,5,,,54,105
81360,note_on,24,0,3,,,,,,,,2,,,69,105
81360,note_on,24,0,5,,,,,,,,4,,,42,105
81360,note_on,24,0,4,,,,,,,,3,,,54,72
81360,note_on,24,0,2,,,,,,,,1,,,69,72
81360,note_on,24,0,1,,,,,,,,0,,,69,105
81408,note_on,48,0,2,,,,,,,,1,,,69,0
81408,note_on,48,0,1,,,,,,,,0,,,69,0
81420,note_on,12,0,1,,,,,,,,0,,,72,105
81420,note_on,12,0,2,,,,,,,,1,,,72,72
81456,note_on,96,0,4,,,,,,,,3,,,54,0
81456,note_on,96,0,5,,,,,,,,4,,,42,0
81456,note_on,96,0,3,,,,,,,,2,,,69,0
81456,note_on,96,0,6,,,,,,,,5,,,63,0
81456,note_on,0,0,6,,,,,,,,5,,,54,0
81468,note_on,48,0,2,,,,,,,,1,,,72,0
81468,note_on,48,0,1,,,,,,,,0,,,72,0
81480,note_on,24,0,5,,,,,,,,4,,,39,105
81480,note_on,12,0,2,,,,,,,,1,,,71,72
81480,note_on,24,0,4,,,,,,,,3,,,51,72
81480,note_on,24,0,3,,,,,,,,2,,,66,105
81480,note_on,0,0,6,,,,,,,,5,,,66,105
81480,note_on,24,0,6,,,,,,,,5,,,51,105
81480,note_on,12,0,1,,,,,,,,0,,,71,105
81528,note_on,48,0,2,,,,,,,,1,,,71,0
81528,note_on,48,0,1,,,,,,,,0,,,71,0
81540,note_on,12,0,2,,,,,,,,1,,,69,72
81540,note_on,12,0,1,,,,,,,,0,,,69,105
81576,note_on,96,0,6,,,,,,,,5,,,66,0
81576,note_on,0,0,6,,,,,,,,5,,,51,0
81576,note_on,96,0,5,,,,,,,,4,,,39,0
81576,note_on,96,0,3,,,,,,,,2,,,66,0
81576,note_on,96,0,4,,,,,,,,3,,,51,0
81588,note_on,48,0,2,,,,,,,,1,,,69,0
81588,note_on,48,0,1,,,,,,,,0,,,69,0
81600,note_on,24,0,5,,,,,,,,4,,,40,105
81600,note_on,0,0,6,,,,,,,,5,,,67,105
81600,note_on,12,0,2,,,,,,,,1,,,67,72
81600,note_on,12,0,1,,,,,,,,0,,,67,105
81600,note_on,24,0,4,,,,,,,,3,,,52,72
81600,note_on,24,0,3,,,,,,,,2,,,59,105
81600,note_on,24,0,6,,,,,,,,5,,,52,105
81648,note_on,48,0,2,,,,,,,,1,,,67,0
81648,note_on,48,0,1,,,,,,,,0,,,67,0
81660,note_on,12,0,1,,,,,,,,0,,,66,105
81660,note_on,12,0,2,,,,,,,,1,,,66,72
81696,note_on,96,0,4,,,,,,,,3,,,52,0
81696,note_on,96,0,6,,,,,,,,5,,,52,0
81696,note_on,96,0,5,,,,,,,,4,,,40,0
81696,note_on,96,0,3,,,,,,,,2,,,59,0
81708,note_on,48,0,1,,,,,,,,0,,,66,0
81708,note_on,48,0,2,,,,,,,,1,,,66,0
81720,note_on,24,0,6,,,,,,,,5,,,64,105
81720,note_on,24,0,3,,,,,,,,2,,,71,105
81720,note_on,12,0,1,,,,,,,,0,,,64,105
81720,note_on,12,0,2,,,,,,,,1,,,64,72
81720,note_on,24,0,5,,,,,,,,4,,,52,105
81720,note_on,24,0,4,,,,,,,,3,,,64,72
81792,note_on,72,0,6,,,,,,,,5,,,67,0
81816,note_on,96,0,5,,,,,,,,4,,,52,0
81816,note_on,24,0,6,,,,,,,,5,,,64,0
81816,note_on,96,0,3,,,,,,,,2,,,71,0
81816,note_on,96,0,4,,,,,,,,3,,,64,0
81840,note_on,24,0,6,,,,,,,,5,,,56,105
81840,note_on,24,0,5,,,,,,,,4,,,44,105
81840,note_on,0,0,6,,,,,,,,5,,,76,105
81840,note_on,24,0,4,,,,,,,,3,,,56,72
81840,note_on,24,0,3,,,,,,,,2,,,71,105
81912,note_on,192,0,2,,,,,,,,1,,,64,0
81912,note_on,192,0,1,,,,,,,,0,,,64,0
81936,note_on,96,0,6,,,,,,,,5,,,56,0
81936,note_on,96,0,5,,,,,,,,4,,,44,0
81936,note_on,96,0,3,,,,,,,,2,,,71,0
81936,note_on,96,0,4,,,,,,,,3,,,56,0
81960,note_on,24,0,6,,,,,,,,5,,,52,105
81960,note_on,48,0,2,,,,,,,,1,,,76,72
81960,note_on,48,0,1,,,,,,,,0,,,76,72
81960,note_on,24,0,4,,,,,,,,3,,,52,72
81960,note_on,24,0,5,,,,,,,,4,,,40,72
81960,note_on,24,0,3,,,,,,,,2,,,68,105
81984,note_on,24,0,6,,,,,,,,5,,,71,0
82032,note_on,48,0,6,,,,,,,,5,,,76,0
82056,note_on,96,0,2,,,,,,,,1,,,76,0
82056,note_on,96,0,1,,,,,,,,0,,,76,0
82056,note_on,24,0,6,,,,,,,,5,,,52,0
82056,note_on,96,0,4,,,,,,,,3,,,52,0
82056,note_on,96,0,5,,,,,,,,4,,,40,0
82056,note_on,96,0,3,,,,,,,,2,,,68,0
82080,note_on,24,0,1,,,,,,,,0,,,69,72
82080,note_on,24,0,2,,,,,,,,1,,,69,72
82104,note_on,24,0,1,,,,,,,,0,,,69,0
82104,note_on,24,0,2,,,,,,,,1,,,69,0
82110,note_on,6,0,2,,,,,,,,1,,,71,72
82110,note_on,6,0,1,,,,,,,,0,,,71,72
82134,note_on,24,0,1,,,,,,,,0,,,71,0
82134,note_on,24,0,2,,,,,,,,1,,,71,0
82140,note_on,6,0,1,,,,,,,,0,,,72,72
82140,note_on,6,0,2,,,,,,,,1,,,72,72
82188,note_on,48,0,2,,,,,,,,1,,,72,0
82188,note_on,48,0,1,,,,,,,,0,,,72,0
82200,note_on,12,0,1,,,,,,,,0,,,71,72
82200,note_on,144,0,3,,,,,,,,2,,,68,105
82200,note_on,144,0,4,,,,,,,,3,,,52,72
82200,note_on,0,0,6,,,,,,,,5,,,68,105
82200,note_on,12,0,2,,,,,,,,1,,,71,72
82200,note_on,0,0,6,,,,,,,,5,,,52,105
82200,note_on,144,0,5,,,,,,,,4,,,40,72
82200,note_on,144,0,6,,,,,,,,5,,,71,105
82296,note_on,96,0,6,,,,,,,,5,,,52,0
82296,note_on,96,0,4,,,,,,,,3,,,52,0
82296,note_on,96,0,2,,,,,,,,1,,,71,0
82296,note_on,96,0,1,,,,,,,,0,,,71,0
82296,note_on,0,0,6,,,,,,,,5,,,71,0
82296,note_on,96,0,5,,,,,,,,4,,,40,0
82296,note_on,96,0,3,,,,,,,,2,,,68,0
82320,note_on,24,0,1,,,,,,,,0,,,71,72
82320,note_on,24,0,6,,,,,,,,5,,,76,105
82320,note_on,0,0,6,,,,,,,,5,,,40,105
82320,note_on,24,0,5,,,,,,,,4,,,28,72
82320,note_on,24,0,4,,,,,,,,3,,,40,72
82320,note_on,24,0,2,,,,,,,,1,,,71,72
82320,note_on,24,0,3,,,,,,,,2,,,68,105
82344,note_on,24,0,1,,,,,,,,0,,,71,0
82344,note_on,24,0,2,,,,,,,,1,,,71,0
82350,note_on,6,0,2,,,,,,,,1,,,72,72
82350,note_on,6,0,1,,,,,,,,0,,,72,72
82374,note_on,24,0,2,,,,,,,,1,,,72,0
82374,note_on,24,0,1,,,,,,,,0,,,72,0
82380,note_on,6,0,1,,,,,,,,0,,,74,72
82380,note_on,6,0,2,,,,,,,,1,,,74,72
82392,note_on,72,0,6,,,,,,,,5,,,68,0
82416,note_on,0,0,6,,,,,,,,5,,,76,0
82416,note_on,96,0,5,,,,,,,,4,,,28,0
82416,note_on,96,0,4,,,,,,,,3,,,40,0
82416,note_on,96,0,3,,,,,,,,2,,,68,0
82416,note_on,24,0,6,,,,,,,,5,,,40,0
82428,note_on,48,0,2,,,,,,,,1,,,74,0
82428,note_on,48,0,1,,,,,,,,0,,,74,0
82440,note_on,24,0,6,,,,,,,,5,,,72,105
82440,note_on,12,0,1,,,,,,,,0,,,72,72
82440,note_on,0,0,6,,,,,,,,5,,,57,105
82440,note_on,24,0,5,,,,,,,,4,,,45,72
82440,note_on,12,0,2,,,,,,,,1,,,72,72
82440,note_on,24,0,4,,,,,,,,3,,,57,72
82440,note_on,24,0,3,,,,,,,,2,,,64,105
82536,note_on,96,0,3,,,,,,,,2,,,64,0
82536,note_on,0,0,6,,,,,,,,5,,,72,0
82536,note_on,96,0,1,,,,,,,,0,,,72,0
82536,note_on,96,0,4,,,,,,,,3,,,57,0
82536,note_on,96,0,6,,,,,,,,5,,,57,0
82536,note_on,96,0,2,,,,,,,,1,,,72,0
82536,note_on,96,0,5,,,,,,,,4,,,45,0
82560,note_on,24,0,4,,,,,,,,3,,,56,72
82560,note_on,24,0,5,,,,,,,,4,,,44,72
82560,note_on,24,0,2,,,,,,,,1,,,74,72
82560,note_on,24,0,6,,,,,,,,5,,,71,105
82560,note_on,0,0,6,,,,,,,,5,,,56,105
82560,note_on,24,0,3,,,,,,,,2,,,59,105
82560,note_on,0,0,6,,,,,,,,5,,,64,105
82560,note_on,24,0,1,,,,,,,,0,,,74,72
82584,note_on,24,0,1,,,,,,,,0,,,74,0
82584,note_on,24,0,2,,,,,,,,1,,,74,0
82590,note_on,6,0,1,,,,,,,,0,,,76,72
82590,note_on,6,0,2,,,,,,,,1,,,76,72
82614,note_on,24,0,2,,,,,,,,1,,,76,0
82614,note_on,24,0,1,,,,,,,,0,,,76,0
82620,note_on,6,0,2,,,,,,,,1,,,77,72
82620,note_on,6,0,1,,,,,,,,0,,,77,72
82656,note_on,96,0,4,,,,,,,,3,,,56,0
82656,note_on,96,0,3,,,,,,,,2,,,59,0
82656,note_on,0,0,6,,,,,,,,5,,,71,0
82656,note_on,96,0,6,,,,,,,,5,,,56,0
82656,note_on,96,0,5,,,,,,,,4,,,44,0
82668,note_on,48,0,2,,,,,,,,1,,,77,0
82668,note_on,48,0,1,,,,,,,,0,,,77,0
82680,note_on,12,0,2,,,,,,,,1,,,76,72
82680,note_on,12,0,1,,,,,,,,0,,,76,72
82680,note_on,24,0,6,,,,,,,,5,,,69,105
82680,note_on,0,0,6,,,,,,,,5,,,60,105
82680,note_on,24,0,3,,,,,,,,2,,,64,105
82680,note_on,24,0,5,,,,,,,,4,,,48,72
82680,note_on,24,0,4,,,,,,,,3,,,60,72
82776,note_on,96,0,5,,,,,,,,4,,,48,0
82776,note_on,96,0,6,,,,,,,,5,,,60,0
82776,note_on,0,0,6,,,,,,,,5,,,69,0
82776,note_on,96,0,4,,,,,,,,3,,,60,0
82776,note_on,96,0,3,,,,,,,,2,,,64,0
82800,note_on,24,0,4,,,,,,,,3,,,57,72
82800,note_on,24,0,3,,,,,,,,2,,,64,105
82800,note_on,24,0,5,,,,,,,,4,,,45,72
82800,note_on,24,0,6,,,,,,,,5,,,57,105
82800,note_on,0,0,6,,,,,,,,5,,,72,105
82872,note_on,192,0,1,,,,,,,,0,,,76,0
82872,note_on,192,0,2,,,,,,,,1,,,76,0
82896,note_on,96,0,4,,,,,,,,3,,,57,0
82896,note_on,96,0,5,,,,,,,,4,,,45,0
82896,note_on,96,0,3,,,,,,,,2,,,64,0
82896,note_on,96,0,6,,,,,,,,5,,,57,0
82920,note_on,48,0,1,,,,,,,,0,,,81,72
82920,note_on,24,0,6,,,,,,,,5,,,45,105
82920,note_on,24,0,4,,,,,,,,3,,,45,105
82920,note_on,24,0,5,,,,,,,,4,,,33,72
82920,note_on,24,0,3,,,,,,,,2,,,60,105
82920,note_on,48,0,2,,,,,,,,1,,,81,72
82944,note_on,24,0,6,,,,,,,,5,,,64,0
82992,note_on,48,0,6,,,,,,,,5,,,72,0
83016,note_on,96,0,3,,,,,,,,2,,,60,0
83016,note_on,24,0,6,,,,,,,,5,,,45,0
83016,note_on,96,0,4,,,,,,,,3,,,45,0
83016,note_on,96,0,1,,,,,,,,0,,,81,0
83016,note_on,96,0,5,,,,,,,,4,,,33,0
83016,note_on,96,0,2,,,,,,,,1,,,81,0
83040,note_on,24,0,1,,,,,,,,0,,,80,105
83040,note_on,0,0,6,,,,,,,,5,,,68,105
83040,note_on,0,0,6,,,,,,,,5,,,52,105
83040,note_on,24,0,2,,,,,,,,1,,,80,105
83040,note_on,24,0,4,,,,,,,,3,,,52,105
83040,note_on,24,0,3,,,,,,,,2,,,59,105
83040,note_on,24,0,5,,,,,,,,4,,,40,105
83040,note_on,24,0,6,,,,,,,,5,,,71,105
83072,note_on,32,0,2,,,,,,,,1,,,80,0
83072,note_on,32,0,1,,,,,,,,0,,,80,0
83080,note_on,8,0,1,,,,,,,,0,,,81,105
83080,note_on,8,0,2,,,,,,,,1,,,81,105
83112,note_on,32,0,2,,,,,,,,1,,,81,0
83112,note_on,32,0,1,,,,,,,,0,,,81,0
83120,note_on,8,0,1,,,,,,,,0,,,83,105
83120,note_on,8,0,2,,,,,,,,1,,,83,105
83136,note_on,96,0,5,,,,,,,,4,,,40,0
83136,note_on,96,0,4,,,,,,,,3,,,52,0
83136,note_on,96,0,3,,,,,,,,2,,,59,0
83136,note_on,0,0,6,,,,,,,,5,,,71,0
83136,note_on,96,0,6,,,,,,,,5,,,68,0
83136,note_on,0,0,6,,,,,,,,5,,,52,0
83152,note_on,32,0,1,,,,,,,,0,,,83,0
83152,note_on,32,0,2,,,,,,,,1,,,83,0
83160,note_on,24,0,5,,,,,,,,4,,,48,105
83160,note_on,0,0,6,,,,,,,,5,,,64,105
83160,note_on,0,0,6,,,,,,,,5,,,60,105
83160,note_on,24,0,6,,,,,,,,5,,,69,105
83160,note_on,24,0,3,,,,,,,,2,,,64,105
83160,note_on,8,0,1,,,,,,,,0,,,81,105
83160,note_on,24,0,4,,,,,,,,3,,,60,105
83160,note_on,8,0,2,,,,,,,,1,,,81,105
83256,note_on,96,0,4,,,,,,,,3,,,60,0
83256,note_on,96,0,6,,,,,,,,5,,,64,0
83256,note_on,96,0,5,,,,,,,,4,,,48,0
83256,note_on,96,0,1,,,,,,,,0,,,81,0
83256,note_on,0,0,6,,,,,,,,5,,,69,0
83256,note_on,96,0,3,,,,,,,,2,,,64,0
83256,note_on,0,0,6,,,,,,,,5,,,60,0
83256,note_on,96,0,2,,,,,,,,1,,,81,0
83280,note_on,24,0,5,,,,,,,,4,,,45,105
83280,note_on,24,0,3,,,,,,,,2,,,64,105
83280,note_on,24,0,4,,,,,,,,3,,,57,105
83280,note_on,24,0,1,,,,,,,,0,,,72,105
83280,note_on,24,0,2,,,,,,,,1,,,72,105
83280,note_on,0,0,6,,,,,,,,5,,,64,105
83280,note_on,0,0,6,,,,,,,,5,,,72,105
83280,note_on,24,0,6,,,,,,,,5,,,57,105
83328,note_on,48,0,1,,,,,,,,0,,,72,0
83328,note_on,48,0,2,,,,,,,,1,,,72,0
83340,note_on,12,0,1,,,,,,,,0,,,81,105
83340,note_on,12,0,2,,,,,,,,1,,,81,105
83376,note_on,96,0,6,,,,,,,,5,,,64,0
83376,note_on,0,0,6,,,,,,,,5,,,57,0
83376,note_on,96,0,5,,,,,,,,4,,,45,0
83376,note_on,96,0,4,,,,,,,,3,,,57,0
83376,note_on,96,0,3,,,,,,,,2,,,64,0
83388,note_on,48,0,1,,,,,,,,0,,,81,0
83388,note_on,48,0,2,,,,,,,,1,,,81,0
83400,note_on,24,0,6,,,,,,,,5,,,69,105
83400,note_on,0,0,6,,,,,,,,5,,,45,105
83400,note_on,24,0,4,,,,,,,,3,,,45,105
83400,note_on,24,0,3,,,,,,,,2,,,60,105
83400,note_on,24,0,5,,,,,,,,4,,,33,105
83400,note_on,12,0,1,,,,,,,,0,,,76,105
83400,note_on,12,0,2,,,,,,,,1,,,76,105
83448,note_on,48,0,1,,,,,,,,0,,,76,0
83448,note_on,48,0,2,,,,,,,,1,,,76,0
83460,note_on,12,0,1,,,,,,,,0,,,72,105
83460,note_on,12,0,2,,,,,,,,1,,,72,105
83472,note_on,72,0,6,,,,,,,,5,,,72,0
83496,note_on,96,0,4,,,,,,,,3,,,45,0
83496,note_on,96,0,5,,,,,,,,4,,,33,0
83496,note_on,96,0,3,,,,,,,,2,,,60,0
83496,note_on,24,0,6,,,,,,,,5,,,45,0
83496,note_on,0,0,6,,,,,,,,5,,,69,0
83508,note_on,48,0,2,,,,,,,,1,,,72,0
83508,note_on,48,0,1,,,,,,,,0,,,72,0
83520,note_on,0,0,6,,,,,,,,5,,,47,105
83520,note_on,0,0,6,,,,,,,,5,,,68,105
83520,note_on,12,0,1,,,,,,,,0,,,74,105
83520,note_on,24,0,3,,,,,,,,2,,,68,105
83520,note_on,24,0,5,,,,,,,,4,,,35,105
83520,note_on,24,0,4,,,,,,,,3,,,47,105
83520,note_on,24,0,6,,,,,,,,5,,,74,105
83520,note_on,12,0,2,,,,,,,,1,,,74,105
83568,note_on,48,0,1,,,,,,,,0,,,74,0
83568,note_on,48,0,2,,,,,,,,1,,,74,0
83580,note_on,12,0,1,,,,,,,,0,,,83,105
83580,note_on,12,0,2,,,,,,,,1,,,83,105
83616,note_on,0,0,6,,,,,,,,5,,,74,0
83616,note_on,96,0,6,,,,,,,,5,,,47,0
83616,note_on,96,0,4,,,,,,,,3,,,47,0
83616,note_on,96,0,5,,,,,,,,4,,,35,0
83628,note_on,48,0,2,,,,,,,,1,,,83,0
83628,note_on,48,0,1,,,,,,,,0,,,83,0
83640,note_on,12,0,2,,,,,,,,1,,,80,105
83640,note_on,0,0,6,,,,,,,,5,,,71,105
83640,note_on,24,0,4,,,,,,,,3,,,52,105
83640,note_on,24,0,5,,,,,,,,4,,,40,105
83640,note_on,24,0,6,,,,,,,,5,,,52,105
83640,note_on,12,0,1,,,,,,,,0,,,80,105
83688,note_on,48,0,2,,,,,,,,1,,,80,0
83688,note_on,48,0,1,,,,,,,,0,,,80,0
83700,note_on,12,0,1,,,,,,,,0,,,74,105
83700,note_on,12,0,2,,,,,,,,1,,,74,105
83712,note_on,192,0,3,,,,,,,,2,,,68,0
83712,note_on,72,0,6,,,,,,,,5,,,68,0
83736,note_on,96,0,4,,,,,,,,3,,,52,0
83736,note_on,0,0,6,,,,,,,,5,,,52,0
83736,note_on,24,0,6,,,,,,,,5,,,71,0
83736,note_on,96,0,5,,,,,,,,4,,,40,0
83748,note_on,48,0,1,,,,,,,,0,,,74,0
83748,note_on,48,0,2,,,,,,,,1,,,74,0
83760,note_on,0,0,6,,,,,,,,5,,,72,105
83760,note_on,0,0,6,,,,,,,,5,,,69,105
83760,note_on,24,0,6,,,,,,,,5,,,45,105
83760,note_on,24,0,5,,,,,,,,4,,,33,105
83760,note_on,12,0,1,,,,,,,,0,,,72,105
83760,note_on,24,0,4,,,,,,,,3,,,45,105
83760,note_on,48,0,3,,,,,,,,2,,,64,105
83760,note_on,12,0,2,,,,,,,,1,,,72,105
83808,note_on,48,0,1,,,,,,,,0,,,72,0
83808,note_on,48,0,3,,,,,,,,2,,,64,0
83808,note_on,48,0,2,,,,,,,,1,,,72,0
83820,note_on,12,0,3,,,,,,,,2,,,60,105
83820,note_on,12,0,2,,,,,,,,1,,,81,105
83820,note_on,12,0,1,,,,,,,,0,,,81,105
83856,note_on,96,0,4,,,,,,,,3,,,45,0
83856,note_on,96,0,6,,,,,,,,5,,,45,0
83856,note_on,96,0,5,,,,,,,,4,,,33,0
83868,note_on,48,0,1,,,,,,,,0,,,81,0
83868,note_on,48,0,2,,,,,,,,1,,,81,0
83868,note_on,48,0,3,,,,,,,,2,,,60,0
83880,note_on,24,0,4,,,,,,,,3,,,51,105
83880,note_on,12,0,3,,,,,,,,2,,,69,105
83880,note_on,12,0,1,,,,,,,,0,,,78,105
83880,note_on,24,0,6,,,,,,,,5,,,66,105
83880,note_on,24,0,5,,,,,,,,4,,,39,105
83880,note_on,12,0,2,,,,,,,,1,,,78,105
83880,note_on,0,0,6,,,,,,,,5,,,51,105
83928,note_on,48,0,1,,,,,,,,0,,,78,0
83928,note_on,48,0,2,,,,,,,,1,,,78,0
83940,note_on,12,0,1,,,,,,,,0,,,72,105
83940,note_on,12,0,2,,,,,,,,1,,,72,105
83976,note_on,96,0,6,,,,,,,,5,,,51,0
83976,note_on,0,0,6,,,,,,,,5,,,66,0
83976,note_on,96,0,4,,,,,,,,3,,,51,0
83976,note_on,96,0,5,,,,,,,,4,,,39,0
83976,note_on,96,0,3,,,,,,,,2,,,69,0
83988,note_on,48,0,1,,,,,,,,0,,,72,0
83988,note_on,48,0,2,,,,,,,,1,,,72,0
84000,note_on,24,0,6,,,,,,,,5,,,52,105
84000,note_on,24,0,5,,,,,,,,4,,,40,105
84000,note_on,12,0,1,,,,,,,,0,,,72,105
84000,note_on,24,0,3,,,,,,,,2,,,69,105
84000,note_on,12,0,2,,,,,,,,1,,,72,105
84000,note_on,24,0,4,,,,,,,,3,,,52,105
84000,note_on,0,0,6,,,,,,,,5,,,64,105
84006,note_on,6,0,1,,,,,,,,0,,,72,0
84006,note_on,6,0,2,,,,,,,,1,,,72,0
84007,note_on,1,0,2,,,,,,,,1,,,74,105
84007,note_on,1,0,1,,,,,,,,0,,,74,105
84013,note_on,6,0,1,,,,,,,,0,,,74,0
84013,note_on,6,0,2,,,,,,,,1,,,74,0
84014,note_on,1,0,2,,,,,,,,1,,,72,105
84014,note_on,1,0,1,,,,,,,,0,,,72,105
84020,note_on,6,0,2,,,,,,,,1,,,72,0
84020,note_on,6,0,1,,,,,,,,0,,,72,0
84021,note_on,1,0,2,,,,,,,,1,,,74,105
84021,note_on,1,0,1,,,,,,,,0,,,74,105
84027,note_on,6,0,2,,,,,,,,1,,,74,0
84027,note_on,6,0,1,,,,,,,,0,,,74,0
84028,note_on,1,0,2,,,,,,,,1,,,72,105
84028,note_on,1,0,1,,,,,,,,0,,,72,105
84034,note_on,6,0,2,,,,,,,,1,,,72,0
84034,note_on,6,0,1,,,,,,,,0,,,72,0
84035,note_on,1,0,2,,,,,,,,1,,,74,105
84035,note_on,1,0,1,,,,,,,,0,,,74,105
84041,note_on,6,0,1,,,,,,,,0,,,74,0
84041,note_on,6,0,2,,,,,,,,1,,,74,0
84042,note_on,1,0,1,,,,,,,,0,,,72,105
84042,note_on,1,0,2,,,,,,,,1,,,72,105
84048,note_on,6,0,2,,,,,,,,1,,,72,0
84048,note_on,6,0,1,,,,,,,,0,,,72,0
84049,note_on,1,0,1,,,,,,,,0,,,74,105
84049,note_on,1,0,2,,,,,,,,1,,,74,105
84055,note_on,6,0,2,,,,,,,,1,,,74,0
84055,note_on,6,0,1,,,,,,,,0,,,74,0
84056,note_on,1,0,2,,,,,,,,1,,,72,105
84056,note_on,1,0,1,,,,,,,,0,,,72,105
84062,note_on,6,0,2,,,,,,,,1,,,72,0
84062,note_on,6,0,1,,,,,,,,0,,,72,0
84063,note_on,1,0,2,,,,,,,,1,,,74,105
84063,note_on,1,0,1,,,,,,,,0,,,74,105
84069,note_on,6,0,1,,,,,,,,0,,,74,0
84069,note_on,6,0,2,,,,,,,,1,,,74,0
84070,note_on,1,0,2,,,,,,,,1,,,72,105
84070,note_on,1,0,1,,,,,,,,0,,,72,105
84076,note_on,6,0,1,,,,,,,,0,,,72,0
84076,note_on,6,0,2,,,,,,,,1,,,72,0
84077,note_on,1,0,2,,,,,,,,1,,,74,105
84077,note_on,1,0,1,,,,,,,,0,,,74,105
84083,note_on,6,0,1,,,,,,,,0,,,74,0
84083,note_on,6,0,2,,,,,,,,1,,,74,0
84084,note_on,1,0,2,,,,,,,,1,,,72,105
84084,note_on,1,0,1,,,,,,,,0,,,72,105
84090,note_on,6,0,1,,,,,,,,0,,,72,0
84090,note_on,6,0,2,,,,,,,,1,,,72,0
84091,note_on,1,0,1,,,,,,,,0,,,74,105
84091,note_on,1,0,2,,,,,,,,1,,,74,105
84096,note_on,0,0,6,,,,,,,,5,,,69,0
84096,note_on,96,0,6,,,,,,,,5,,,52,0
84096,note_on,96,0,4,,,,,,,,3,,,52,0
84096,note_on,96,0,3,,,,,,,,2,,,69,0
84096,note_on,0,0,6,,,,,,,,5,,,72,0
84096,note_on,96,0,5,,,,,,,,4,,,40,0
84097,note_on,6,0,2,,,,,,,,1,,,74,0
84097,note_on,6,0,1,,,,,,,,0,,,74,0
84098,note_on,1,0,1,,,,,,,,0,,,72,105
84098,note_on,1,0,2,,,,,,,,1,,,72,105
84104,note_on,6,0,2,,,,,,,,1,,,72,0
84104,note_on,6,0,1,,,,,,,,0,,,72,0
84105,note_on,1,0,1,,,,,,,,0,,,74,105
84105,note_on,1,0,2,,,,,,,,1,,,74,105
84111,note_on,6,0,1,,,,,,,,0,,,74,0
84111,note_on,6,0,2,,,,,,,,1,,,74,0
84112,note_on,1,0,1,,,,,,,,0,,,71,105
84112,note_on,1,0,2,,,,,,,,1,,,71,105
84120,note_on,24,0,3,,,,,,,,2,,,68,105
84120,note_on,24,0,4,,,,,,,,3,,,64,105
84120,note_on,24,0,5,,,,,,,,4,,,52,105
84120,note_on,0,0,6,,,,,,,,5,,,64,105
84120,note_on,24,0,6,,,,,,,,5,,,71,105
84120,note_on,0,0,6,,,,,,,,5,,,68,105
84192,note_on,72,0,6,,,,,,,,5,,,64,0
84208,note_on,96,0,1,,,,,,,,0,,,71,0
84208,note_on,96,0,2,,,,,,,,1,,,71,0
84216,note_on,96,0,4,,,,,,,,3,,,64,0
84216,note_on,96,0,3,,,,,,,,2,,,68,0
84216,note_on,96,0,5,,,,,,,,4,,,52,0
84216,note_on,24,0,6,,,,,,,,5,,,71,0
84216,note_on,0,0,6,,,,,,,,5,,,68,0
84216,note_on,0,0,6,,,,,,,,5,,,64,0
84240,note_on,24,0,3,,,,,,,,2,,,64,105
84240,note_on,24,0,4,,,,,,,,3,,,52,105
84240,note_on,24,0,5,,,,,,,,4,,,40,105
84240,note_on,24,0,6,,,,,,,,5,,,52,105
84292,note_on,84,0,2,,,,,,,,1,,,64,105
84292,note_on,84,0,1,,,,,,,,0,,,64,105
84336,note_on,96,0,4,,,,,,,,3,,,52,0
84336,note_on,96,0,6,,,,,,,,5,,,52,0
84336,note_on,96,0,3,,,,,,,,2,,,64,0
84336,note_on,96,0,5,,,,,,,,4,,,40,0
84340,note_on,48,0,2,,,,,,,,1,,,64,0
84340,note_on,48,0,1,,,,,,,,0,,,64,0
84352,note_on,12,0,1,,,,,,,,0,,,64,105
84352,note_on,12,0,2,,,,,,,,1,,,64,105
84420,note_on,84,0,6,,,,,,,,5,,,52,105
84420,note_on,0,0,6,,,,,,,,5,,,68,72
84420,note_on,84,0,4,,,,,,,,3,,,52,105
84420,note_on,84,0,5,,,,,,,,4,,,40,105
84420,note_on,0,0,6,,,,,,,,5,,,71,72
84420,note_on,84,0,3,,,,,,,,2,,,64,72
84468,note_on,48,0,5,,,,,,,,4,,,40,0
84468,note_on,48,0,6,,,,,,,,5,,,68,0
84468,note_on,0,0,6,,,,,,,,5,,,71,0
84468,note_on,0,0,6,,,,,,,,5,,,52,0
84468,note_on,48,0,3,,,,,,,,2,,,64,0
84468,note_on,48,0,4,,,,,,,,3,,,52,0
84480,note_on,12,0,3,,,,,,,,2,,,64,72
84480,note_on,12,0,5,,,,,,,,4,,,40,72
84480,note_on,0,0,6,,,,,,,,5,,,52,72
84480,note_on,12,0,4,,,,,,,,3,,,52,105
84480,note_on,0,0,6,,,,,,,,5,,,68,72
84480,note_on,12,0,6,,,,,,,,5,,,71,72
84528,note_on,176,0,2,,,,,,,,1,,,64,0
84528,note_on,176,0,1,,,,,,,,0,,,64,0
84540,note_on,12,0,2,,,,,,,,1,,,76,72
84540,note_on,12,0,1,,,,,,,,0,,,80,72
84576,note_on,96,0,3,,,,,,,,2,,,64,0
84576,note_on,96,0,4,,,,,,,,3,,,52,0
84576,note_on,96,0,6,,,,,,,,5,,,68,0
84576,note_on,96,0,5,,,,,,,,4,,,40,0
84576,note_on,0,0,6,,,,,,,,5,,,52,0
84576,note_on,0,0,6,,,,,,,,5,,,71,0
84588,note_on,48,0,1,,,,,,,,0,,,80,0
84588,note_on,48,0,2,,,,,,,,1,,,76,0
84600,note_on,12,0,1,,,,,,,,0,,,81,72
84600,note_on,12,0,2,,,,,,,,1,,,72,72
84648,note_on,48,0,2,,,,,,,,1,,,72,0
84648,note_on,48,0,1,,,,,,,,0,,,81,0
84660,note_on,12,0,1,,,,,,,,0,,,83,72
84660,note_on,12,0,2,,,,,,,,1,,,74,72
84708,note_on,48,0,2,,,,,,,,1,,,74,0
84708,note_on,48,0,1,,,,,,,,0,,,83,0
84720,note_on,12,0,1,,,,,,,,0,,,74,72
84720,note_on,144,0,3,,,,,,,,2,,,64,72
84720,note_on,144,0,5,,,,,,,,4,,,40,72
84720,note_on,144,0,4,,,,,,,,3,,,52,105
84720,note_on,144,0,6,,,,,,,,5,,,74,72
84720,note_on,0,0,6,,,,,,,,5,,,52,72
84720,note_on,0,0,6,,,,,,,,5,,,71,72
84720,note_on,12,0,2,,,,,,,,1,,,71,72
84768,note_on,48,0,2,,,,,,,,1,,,71,0
84768,note_on,48,0,1,,,,,,,,0,,,74,0
84780,note_on,12,0,1,,,,,,,,0,,,64,72
84780,note_on,12,0,2,,,,,,,,1,,,64,72
84816,note_on,96,0,6,,,,,,,,5,,,71,0
84816,note_on,96,0,4,,,,,,,,3,,,52,0
84816,note_on,0,0,6,,,,,,,,5,,,74,0
84816,note_on,96,0,5,,,,,,,,4,,,40,0
84816,note_on,0,0,6,,,,,,,,5,,,52,0
84816,note_on,96,0,3,,,,,,,,2,,,64,0
84828,note_on,48,0,2,,,,,,,,1,,,64,0
84828,note_on,48,0,1,,,,,,,,0,,,64,0
84840,note_on,12,0,2,,,,,,,,1,,,64,105
84840,note_on,12,0,1,,,,,,,,0,,,64,105
84900,note_on,0,0,6,,,,,,,,5,,,71,105
84900,note_on,0,0,6,,,,,,,,5,,,52,72
84900,note_on,84,0,5,,,,,,,,4,,,40,105
84900,note_on,84,0,3,,,,,,,,2,,,64,72
84900,note_on,84,0,4,,,,,,,,3,,,52,105
84900,note_on,84,0,6,,,,,,,,5,,,74,72
84948,note_on,0,0,6,,,,,,,,5,,,52,0
84948,note_on,48,0,5,,,,,,,,4,,,40,0
84948,note_on,0,0,6,,,,,,,,5,,,74,0
84948,note_on,48,0,6,,,,,,,,5,,,71,0
84948,note_on,48,0,3,,,,,,,,2,,,64,0
84948,note_on,48,0,4,,,,,,,,3,,,52,0
84960,note_on,12,0,5,,,,,,,,4,,,40,105
84960,note_on,12,0,4,,,,,,,,3,,,52,105
84960,note_on,0,0,6,,,,,,,,5,,,71,105
84960,note_on,0,0,6,,,,,,,,5,,,52,105
84960,note_on,12,0,3,,,,,,,,2,,,64,105
84960,note_on,12,0,6,,,,,,,,5,,,74,105
85008,note_on,168,0,2,,,,,,,,1,,,64,0
85008,note_on,168,0,1,,,,,,,,0,,,64,0
85020,note_on,12,0,1,,,,,,,,0,,,80,72
85020,note_on,12,0,2,,,,,,,,1,,,76,72
85056,note_on,0,0,6,,,,,,,,5,,,74,0
85056,note_on,96,0,4,,,,,,,,3,,,52,0
85056,note_on,96,0,3,,,,,,,,2,,,64,0
85056,note_on,0,0,6,,,,,,,,5,,,52,0
85056,note_on,96,0,6,,,,,,,,5,,,71,0
85056,note_on,96,0,5,,,,,,,,4,,,40,0
85068,note_on,48,0,1,,,,,,,,0,,,80,0
85068,note_on,48,0,2,,,,,,,,1,,,76,0
85080,note_on,12,0,1,,,,,,,,0,,,81,72
85080,note_on,12,0,2,,,,,,,,1,,,72,72
85128,note_on,48,0,2,,,,,,,,1,,,72,0
85128,note_on,48,0,1,,,,,,,,0,,,81,0
85140,note_on,12,0,1,,,,,,,,0,,,83,72
85140,note_on,12,0,2,,,,,,,,1,,,74,72
85188,note_on,48,0,2,,,,,,,,1,,,74,0
85188,note_on,48,0,1,,,,,,,,0,,,83,0
85200,note_on,144,0,3,,,,,,,,2,,,64,72
85200,note_on,12,0,1,,,,,,,,0,,,74,105
85200,note_on,12,0,2,,,,,,,,1,,,71,72
85200,note_on,0,0,6,,,,,,,,5,,,69,72
85200,note_on,144,0,4,,,,,,,,3,,,52,72
85200,note_on,0,0,6,,,,,,,,5,,,72,105
85200,note_on,144,0,5,,,,,,,,4,,,40,72
85200,note_on,144,0,6,,,,,,,,5,,,52,105
85248,note_on,48,0,1,,,,,,,,0,,,74,0
85248,note_on,48,0,2,,,,,,,,1,,,71,0
85260,note_on,12,0,1,,,,,,,,0,,,64,105
85260,note_on,12,0,2,,,,,,,,1,,,64,105
85296,note_on,96,0,4,,,,,,,,3,,,52,0
85296,note_on,96,0,6,,,,,,,,5,,,69,0
85296,note_on,96,0,5,,,,,,,,4,,,40,0
85296,note_on,0,0,6,,,,,,,,5,,,72,0
85296,note_on,96,0,3,,,,,,,,2,,,64,0
85296,note_on,0,0,6,,,,,,,,5,,,52,0
85308,note_on,48,0,2,,,,,,,,1,,,64,0
85308,note_on,48,0,1,,,,,,,,0,,,64,0
85320,note_on,12,0,1,,,,,,,,0,,,64,105
85320,note_on,12,0,2,,,,,,,,1,,,64,105
85380,note_on,0,0,6,,,,,,,,5,,,69,105
85380,note_on,0,0,6,,,,,,,,5,,,72,105
85380,note_on,84,0,6,,,,,,,,5,,,52,105
85380,note_on,84,0,5,,,,,,,,4,,,40,105
85380,note_on,84,0,4,,,,,,,,3,,,52,72
85380,note_on,84,0,3,,,,,,,,2,,,64,72
85428,note_on,48,0,4,,,,,,,,3,,,52,0
85428,note_on,48,0,5,,,,,,,,4,,,40,0
85428,note_on,48,0,3,,,,,,,,2,,,64,0
85428,note_on,48,0,6,,,,,,,,5,,,69,0
85428,note_on,0,0,6,,,,,,,,5,,,72,0
85428,note_on,0,0,6,,,,,,,,5,,,52,0
85440,note_on,12,0,4,,,,,,,,3,,,52,72
85440,note_on,12,0,5,,,,,,,,4,,,40,105
85440,note_on,0,0,6,,,,,,,,5,,,69,105
85440,note_on,0,0,6,,,,,,,,5,,,52,105
85440,note_on,12,0,3,,,,,,,,2,,,64,105
85440,note_on,12,0,6,,,,,,,,5,,,72,105
85488,note_on,168,0,1,,,,,,,,0,,,64,0
85488,note_on,168,0,2,,,,,,,,1,,,64,0
85500,note_on,12,0,1,,,,,,,,0,,,80,72
85500,note_on,12,0,2,,,,,,,,1,,,76,72
85536,note_on,96,0,4,,,,,,,,3,,,52,0
85536,note_on,0,0,6,,,,,,,,5,,,72,0
85536,note_on,0,0,6,,,,,,,,5,,,52,0
85536,note_on,96,0,6,,,,,,,,5,,,69,0
85536,note_on,96,0,3,,,,,,,,2,,,64,0
85536,note_on,96,0,5,,,,,,,,4,,,40,0
85548,note_on,48,0,2,,,,,,,,1,,,76,0
85548,note_on,48,0,1,,,,,,,,0,,,80,0
85560,note_on,12,0,2,,,,,,,,1,,,72,72
85560,note_on,12,0,1,,,,,,,,0,,,81,72
85608,note_on,48,0,2,,,,,,,,1,,,72,0
85608,note_on,48,0,1,,,,,,,,0,,,81,0
85620,note_on,12,0,2,,,,,,,,1,,,74,72
85620,note_on,12,0,1,,,,,,,,0,,,83,72
85668,note_on,48,0,1,,,,,,,,0,,,83,0
85668,note_on,48,0,2,,,,,,,,1,,,74,0
85680,note_on,144,0,6,,,,,,,,5,,,52,105
85680,note_on,144,0,5,,,,,,,,4,,,40,105
85680,note_on,144,0,3,,,,,,,,2,,,68,105
85680,note_on,144,0,4,,,,,,,,3,,,52,72
85680,note_on,0,0,6,,,,,,,,5,,,71,105
85680,note_on,0,0,6,,,,,,,,5,,,68,105
85680,note_on,12,0,1,,,,,,,,0,,,71,72
85680,note_on,12,0,2,,,,,,,,1,,,71,105
85712,note_on,32,0,2,,,,,,,,1,,,71,0
85712,note_on,32,0,1,,,,,,,,0,,,71,0
85720,note_on,8,0,1,,,,,,,,0,,,72,72
85720,note_on,8,0,2,,,,,,,,1,,,72,105
85752,note_on,32,0,2,,,,,,,,1,,,72,0
85752,note_on,32,0,1,,,,,,,,0,,,72,0
85760,note_on,8,0,2,,,,,,,,1,,,74,105
85760,note_on,8,0,1,,,,,,,,0,,,74,72
85776,note_on,0,0,6,,,,,,,,5,,,71,0
85776,note_on,96,0,6,,,,,,,,5,,,68,0
85776,note_on,96,0,4,,,,,,,,3,,,52,0
85776,note_on,96,0,3,,,,,,,,2,,,68,0
85776,note_on,96,0,5,,,,,,,,4,,,40,0
85776,note_on,0,0,6,,,,,,,,5,,,52,0
85792,note_on,32,0,1,,,,,,,,0,,,74,0
85792,note_on,32,0,2,,,,,,,,1,,,74,0
85800,note_on,24,0,3,,,,,,,,2,,,64,105
85800,note_on,8,0,2,,,,,,,,1,,,72,105
85800,note_on,24,0,5,,,,,,,,4,,,45,105
85800,note_on,24,0,4,,,,,,,,3,,,57,72
85800,note_on,8,0,1,,,,,,,,0,,,72,72
85800,note_on,0,0,6,,,,,,,,5,,,69,105
85800,note_on,0,0,6,,,,,,,,5,,,72,105
85800,note_on,24,0,6,,,,,,,,5,,,57,105
85896,note_on,0,0,6,,,,,,,,5,,,57,0
85896,note_on,0,0,6,,,,,,,,5,,,72,0
85896,note_on,96,0,6,,,,,,,,5,,,69,0
85896,note_on,96,0,2,,,,,,,,1,,,72,0
85896,note_on,96,0,4,,,,,,,,3,,,57,0
85896,note_on,96,0,1,,,,,,,,0,,,72,0
85896,note_on,96,0,5,,,,,,,,4,,,45,0
85896,note_on,96,0,3,,,,,,,,2,,,64,0
85920,note_on,24,0,4,,,,,,,,3,,,56,72
85920,note_on,24,0,3,,,,,,,,2,,,71,105
85920,note_on,24,0,1,,,,,,,,0,,,74,72
85920,note_on,24,0,5,,,,,,,,4,,,44,105
85920,note_on,24,0,6,,,,,,,,5,,,74,105
85920,note_on,0,0,6,,,,,,,,5,,,56,105
85920,note_on,0,0,6,,,,,,,,5,,,64,105
85920,note_on,24,0,2,,,,,,,,1,,,74,105
85952,note_on,32,0,2,,,,,,,,1,,,74,0
85952,note_on,32,0,1,,,,,,,,0,,,74,0
85960,note_on,8,0,2,,,,,,,,1,,,76,105
85960,note_on,8,0,1,,,,,,,,0,,,76,72
85992,note_on,32,0,2,,,,,,,,1,,,76,0
85992,note_on,32,0,1,,,,,,,,0,,,76,0
86000,note_on,8,0,1,,,,,,,,0,,,77,72
86000,note_on,8,0,2,,,,,,,,1,,,77,105
86016,note_on,96,0,5,,,,,,,,4,,,44,0
86016,note_on,0,0,6,,,,,,,,5,,,74,0
86016,note_on,96,0,6,,,,,,,,5,,,56,0
86016,note_on,96,0,4,,,,,,,,3,,,56,0
86016,note_on,96,0,3,,,,,,,,2,,,71,0
86032,note_on,32,0,1,,,,,,,,0,,,77,0
86032,note_on,32,0,2,,,,,,,,1,,,77,0
86040,note_on,0,0,6,,,,,,,,5,,,57,105
86040,note_on,24,0,6,,,,,,,,5,,,72,105
86040,note_on,8,0,1,,,,,,,,0,,,76,72
86040,note_on,24,0,5,,,,,,,,4,,,45,105
86040,note_on,8,0,2,,,,,,,,1,,,76,105
86040,note_on,24,0,3,,,,,,,,2,,,72,105
86040,note_on,24,0,4,,,,,,,,3,,,57,72
86112,note_on,72,0,6,,,,,,,,5,,,64,0
86136,note_on,96,0,2,,,,,,,,1,,,76,0
86136,note_on,0,0,6,,,,,,,,5,,,72,0
86136,note_on,96,0,3,,,,,,,,2,,,72,0
86136,note_on,96,0,1,,,,,,,,0,,,76,0
86136,note_on,24,0,6,,,,,,,,5,,,57,0
86136,note_on,96,0,5,,,,,,,,4,,,45,0
86136,note_on,96,0,4,,,,,,,,3,,,57,0
86160,note_on,0,0,6,,,,,,,,5,,,68,105
86160,note_on,24,0,2,,,,,,,,1,,,83,105
86160,note_on,24,0,4,,,,,,,,3,,,52,72
86160,note_on,24,0,1,,,,,,,,0,,,83,72
86160,note_on,24,0,3,,,,,,,,2,,,68,105
86160,note_on,24,0,5,,,,,,,,4,,,40,105
86160,note_on,0,0,6,,,,,,,,5,,,52,105
86160,note_on,24,0,6,,,,,,,,5,,,71,105
86184,note_on,24,0,1,,,,,,,,0,,,83,0
86184,note_on,24,0,2,,,,,,,,1,,,83,0
86190,note_on,6,0,1,,,,,,,,0,,,81,72
86190,note_on,6,0,2,,,,,,,,1,,,81,105
86214,note_on,24,0,1,,,,,,,,0,,,81,0
86214,note_on,24,0,2,,,,,,,,1,,,81,0
86220,note_on,6,0,2,,,,,,,,1,,,80,105
86220,note_on,6,0,1,,,,,,,,0,,,80,72
86244,note_on,24,0,1,,,,,,,,0,,,80,0
86244,note_on,24,0,2,,,,,,,,1,,,80,0
86250,note_on,6,0,1,,,,,,,,0,,,78,72
86250,note_on,6,0,2,,,,,,,,1,,,78,105
86256,note_on,0,0,6,,,,,,,,5,,,71,0
86256,note_on,96,0,3,,,,,,,,2,,,68,0
86256,note_on,96,0,4,,,,,,,,3,,,52,0
86256,note_on,0,0,6,,,,,,,,5,,,52,0
86256,note_on,96,0,6,,,,,,,,5,,,68,0
86256,note_on,96,0,5,,,,,,,,4,,,40,0
86274,note_on,24,0,1,,,,,,,,0,,,78,0
86274,note_on,24,0,2,,,,,,,,1,,,78,0
86280,note_on,6,0,2,,,,,,,,1,,,76,105
86280,note_on,6,0,1,,,,,,,,0,,,76,72
86304,note_on,24,0,2,,,,,,,,1,,,76,0
86304,note_on,24,0,1,,,,,,,,0,,,76,0
86310,note_on,6,0,2,,,,,,,,1,,,74,105
86310,note_on,6,0,1,,,,,,,,0,,,74,72
86334,note_on,24,0,1,,,,,,,,0,,,74,0
86334,note_on,24,0,2,,,,,,,,1,,,74,0
86340,note_on,6,0,1,,,,,,,,0,,,72,72
86340,note_on,6,0,2,,,,,,,,1,,,72,105
86364,note_on,24,0,1,,,,,,,,0,,,72,0
86364,note_on,24,0,2,,,,,,,,1,,,72,0
86370,note_on,6,0,2,,,,,,,,1,,,71,105
86370,note_on,6,0,1,,,,,,,,0,,,71,72
86394,note_on,24,0,1,,,,,,,,0,,,71,0
86394,note_on,24,0,2,,,,,,,,1,,,71,0
86400,note_on,144,0,3,,,,,,,,2,,,60,105
86400,note_on,144,0,5,,,,,,,,4,,,48,105
86400,note_on,6,0,1,,,,,,,,0,,,72,72
86400,note_on,6,0,2,,,,,,,,1,,,72,105
86400,note_on,144,0,4,,,,,,,,3,,,60,72
86400,note_on,144,0,6,,,,,,,,5,,,72,105
86400,note_on,0,0,6,,,,,,,,5,,,60,105
86448,note_on,48,0,3,,,,,,,,2,,,60,0
86448,note_on,48,0,6,,,,,,,,5,,,60,0
86448,note_on,48,0,5,,,,,,,,4,,,48,0
86448,note_on,48,0,4,,,,,,,,3,,,60,0
86460,note_on,12,0,3,,,,,,,,2,,,60,105
86460,note_on,12,0,6,,,,,,,,5,,,60,105
86460,note_on,12,0,5,,,,,,,,4,,,48,105
86460,note_on,12,0,4,,,,,,,,3,,,60,72
86496,note_on,96,0,1,,,,,,,,0,,,72,0
86496,note_on,36,0,6,,,,,,,,5,,,72,0
86496,note_on,96,0,2,,,,,,,,1,,,72,0
86508,note_on,48,0,5,,,,,,,,4,,,48,0
86508,note_on,12,0,6,,,,,,,,5,,,60,0
86508,note_on,48,0,3,,,,,,,,2,,,60,0
86508,note_on,48,0,4,,,,,,,,3,,,60,0
86520,note_on,24,0,2,,,,,,,,1,,,69,105
86520,note_on,12,0,3,,,,,,,,2,,,57,105
86520,note_on,0,0,3,,,,,,,,2,,,57,105
86520,note_on,0,0,6,,,,,,,,5,,,57,105
86520,note_on,12,0,4,,,,,,,,3,,,57,72
86520,note_on,24,0,1,,,,,,,,0,,,69,72
86520,note_on,12,0,5,,,,,,,,4,,,45,105
86520,note_on,12,0,6,,,,,,,,5,,,69,105
86568,note_on,48,0,4,,,,,,,,3,,,57,0
86568,note_on,0,0,3,,,,,,,,2,,,57,0
86568,note_on,48,0,3,,,,,,,,2,,,57,0
86568,note_on,48,0,5,,,,,,,,4,,,45,0
86568,note_on,48,0,6,,,,,,,,5,,,57,0
86580,note_on,12,0,4,,,,,,,,3,,,57,72
86580,note_on,12,0,3,,,,,,,,2,,,57,105
86580,note_on,12,0,5,,,,,,,,4,,,45,105
86580,note_on,12,0,6,,,,,,,,5,,,57,105
86616,note_on,96,0,1,,,,,,,,0,,,69,0
86616,note_on,36,0,6,,,,,,,,5,,,69,0
86616,note_on,96,0,2,,,,,,,,1,,,69,0
86628,note_on,48,0,3,,,,,,,,2,,,57,0
86628,note_on,12,0,6,,,,,,,,5,,,57,0
86628,note_on,48,0,5,,,,,,,,4,,,45,0
86628,note_on,48,0,4,,,,,,,,3,,,57,0
86640,note_on,24,0,1,,,,,,,,0,,,63,72
86640,note_on,12,0,4,,,,,,,,3,,,51,72
86640,note_on,12,0,5,,,,,,,,4,,,39,105
86640,note_on,12,0,6,,,,,,,,5,,,51,105
86640,note_on,0,0,6,,,,,,,,5,,,63,105
86640,note_on,24,0,2,,,,,,,,1,,,63,105
86640,note_on,12,0,3,,,,,,,,2,,,51,105
86688,note_on,48,0,6,,,,,,,,5,,,51,0
86688,note_on,48,0,5,,,,,,,,4,,,39,0
86688,note_on,48,0,4,,,,,,,,3,,,51,0
86688,note_on,48,0,3,,,,,,,,2,,,51,0
86700,note_on,12,0,5,,,,,,,,4,,,39,105
86700,note_on,12,0,4,,,,,,,,3,,,51,72
86700,note_on,12,0,6,,,,,,,,5,,,51,105
86700,note_on,12,0,3,,,,,,,,2,,,51,105
86736,note_on,36,0,6,,,,,,,,5,,,63,0
86736,note_on,96,0,2,,,,,,,,1,,,63,0
86736,note_on,96,0,1,,,,,,,,0,,,63,0
86748,note_on,48,0,5,,,,,,,,4,,,39,0
86748,note_on,48,0,4,,,,,,,,3,,,51,0
86748,note_on,48,0,3,,,,,,,,2,,,51,0
86748,note_on,12,0,6,,,,,,,,5,,,51,0
86760,note_on,24,0,2,,,,,,,,1,,,72,105
86760,note_on,12,0,3,,,,,,,,2,,,60,105
86760,note_on,24,0,1,,,,,,,,0,,,72,72
86760,note_on,0,0,6,,,,,,,,5,,,60,105
86760,note_on,12,0,5,,,,,,,,4,,,48,105
86760,note_on,12,0,6,,,,,,,,5,,,72,105
86760,note_on,12,0,4,,,,,,,,3,,,60,72
86808,note_on,48,0,5,,,,,,,,4,,,48,0
86808,note_on,48,0,4,,,,,,,,3,,,60,0
86808,note_on,48,0,3,,,,,,,,2,,,60,0
86808,note_on,48,0,6,,,,,,,,5,,,60,0
86820,note_on,12,0,3,,,,,,,,2,,,60,105
86820,note_on,12,0,5,,,,,,,,4,,,48,105
86820,note_on,12,0,4,,,,,,,,3,,,60,72
86820,note_on,12,0,6,,,,,,,,5,,,60,105
86856,note_on,96,0,2,,,,,,,,1,,,72,0
86856,note_on,36,0,6,,,,,,,,5,,,72,0
86856,note_on,96,0,1,,,,,,,,0,,,72,0
86868,note_on,48,0,3,,,,,,,,2,,,60,0
86868,note_on,48,0,4,,,,,,,,3,,,60,0
86868,note_on,12,0,6,,,,,,,,5,,,60,0
86868,note_on,48,0,5,,,,,,,,4,,,48,0
86880,note_on,24,0,2,,,,,,,,1,,,70,105
86880,note_on,12,0,4,,,,,,,,3,,,58,72
86880,note_on,24,0,1,,,,,,,,0,,,70,72
86880,note_on,12,0,6,,,,,,,,5,,,70,105
86880,note_on,0,0,6,,,,,,,,5,,,58,105
86880,note_on,12,0,3,,,,,,,,2,,,58,105
86880,note_on,12,0,5,,,,,,,,4,,,46,105
86928,note_on,48,0,6,,,,,,,,5,,,58,0
86928,note_on,48,0,4,,,,,,,,3,,,58,0
86928,note_on,48,0,5,,,,,,,,4,,,46,0
86928,note_on,48,0,3,,,,,,,,2,,,58,0
86940,note_on,12,0,5,,,,,,,,4,,,46,105
86940,note_on,12,0,4,,,,,,,,3,,,58,72
86940,note_on,12,0,6,,,,,,,,5,,,58,105
86940,note_on,12,0,3,,,,,,,,2,,,58,105
86976,note_on,96,0,1,,,,,,,,0,,,70,0
86976,note_on,96,0,2,,,,,,,,1,,,70,0
86976,note_on,36,0,6,,,,,,,,5,,,70,0
86988,note_on,48,0,3,,,,,,,,2,,,58,0
86988,note_on,48,0,5,,,,,,,,4,,,46,0
86988,note_on,48,0,4,,,,,,,,3,,,58,0
86988,note_on,12,0,6,,,,,,,,5,,,58,0
87000,note_on,12,0,4,,,,,,,,3,,,65,72
87000,note_on,12,0,6,,,,,,,,5,,,65,105
87000,note_on,0,0,6,,,,,,,,5,,,77,105
87000,note_on,24,0,1,,,,,,,,0,,,77,72
87000,note_on,12,0,5,,,,,,,,4,,,53,105
87000,note_on,12,0,3,,,,,,,,2,,,65,105
87000,note_on,24,0,2,,,,,,,,1,,,77,105
87048,note_on,48,0,5,,,,,,,,4,,,53,0
87048,note_on,48,0,6,,,,,,,,5,,,65,0
87048,note_on,48,0,3,,,,,,,,2,,,65,0
87048,note_on,48,0,4,,,,,,,,3,,,65,0
87060,note_on,12,0,4,,,,,,,,3,,,65,72
87060,note_on,12,0,6,,,,,,,,5,,,65,105
87060,note_on,12,0,5,,,,,,,,4,,,53,105
87060,note_on,12,0,3,,,,,,,,2,,,65,105
87096,note_on,96,0,2,,,,,,,,1,,,77,0
87096,note_on,36,0,6,,,,,,,,5,,,77,0
87096,note_on,96,0,1,,,,,,,,0,,,77,0
87108,note_on,12,0,6,,,,,,,,5,,,65,0
87108,note_on,48,0,4,,,,,,,,3,,,65,0
87108,note_on,48,0,5,,,,,,,,4,,,53,0
87108,note_on,48,0,3,,,,,,,,2,,,65,0
87120,note_on,24,0,2,,,,,,,,1,,,73,105
87120,note_on,12,0,6,,,,,,,,5,,,73,105
87120,note_on,24,0,1,,,,,,,,0,,,73,72
87120,note_on,12,0,4,,,,,,,,3,,,61,72
87120,note_on,12,0,5,,,,,,,,4,,,49,105
87120,note_on,0,0,6,,,,,,,,5,,,61,105
87120,note_on,12,0,3,,,,,,,,2,,,61,105
87168,note_on,48,0,4,,,,,,,,3,,,61,0
87168,note_on,48,0,6,,,,,,,,5,,,61,0
87168,note_on,48,0,3,,,,,,,,2,,,61,0
87168,note_on,48,0,5,,,,,,,,4,,,49,0
87180,note_on,12,0,3,,,,,,,,2,,,61,105
87180,note_on,12,0,4,,,,,,,,3,,,61,72
87180,note_on,12,0,6,,,,,,,,5,,,61,105
87180,note_on,12,0,5,,,,,,,,4,,,49,105
87216,note_on,36,0,6,,,,,,,,5,,,73,0
87216,note_on,96,0,2,,,,,,,,1,,,73,0
87216,note_on,96,0,1,,,,,,,,0,,,73,0
87228,note_on,48,0,4,,,,,,,,3,,,61,0
87228,note_on,12,0,6,,,,,,,,5,,,61,0
87228,note_on,48,0,5,,,,,,,,4,,,49,0
87228,note_on,48,0,3,,,,,,,,2,,,61,0
87240,note_on,24,0,2,,,,,,,,1,,,74,105
87240,note_on,12,0,5,,,,,,,,4,,,50,105
87240,note_on,12,0,6,,,,,,,,5,,,62,105
87240,note_on,12,0,4,,,,,,,,3,,,62,72
87240,note_on,0,0,6,,,,,,,,5,,,74,105
87240,note_on,12,0,3,,,,,,,,2,,,62,105
87240,note_on,24,0,1,,,,,,,,0,,,74,72
87288,note_on,48,0,3,,,,,,,,2,,,62,0
87288,note_on,48,0,5,,,,,,,,4,,,50,0
87288,note_on,48,0,4,,,,,,,,3,,,62,0
87288,note_on,48,0,6,,,,,,,,5,,,62,0
87300,note_on,12,0,4,,,,,,,,3,,,62,72
87300,note_on,12,0,5,,,,,,,,4,,,50,105
87300,note_on,12,0,6,,,,,,,,5,,,62,105
87300,note_on,12,0,3,,,,,,,,2,,,62,105
87336,note_on,96,0,2,,,,,,,,1,,,74,0
87336,note_on,96,0,1,,,,,,,,0,,,74,0
87336,note_on,36,0,6,,,,,,,,5,,,74,0
87348,note_on,48,0,3,,,,,,,,2,,,62,0
87348,note_on,48,0,5,,,,,,,,4,,,50,0
87348,note_on,48,0,4,,,,,,,,3,,,62,0
87348,note_on,12,0,6,,,,,,,,5,,,62,0
87360,note_on,24,0,2,,,,,,,,1,,,64,105
87360,note_on,12,0,3,,,,,,,,2,,,52,105
87360,note_on,0,0,6,,,,,,,,5,,,52,105
87360,note_on,24,0,1,,,,,,,,0,,,64,72
87360,note_on,12,0,5,,,,,,,,4,,,36,105
87360,note_on,12,0,6,,,,,,,,5,,,64,105
87360,note_on,12,0,4,,,,,,,,3,,,52,72
87456,note_on,96,0,6,,,,,,,,5,,,52,0
87456,note_on,96,0,5,,,,,,,,4,,,36,0
87456,note_on,96,0,4,,,,,,,,3,,,52,0
87480,note_on,24,0,5,,,,,,,,4,,,28,105
87480,note_on,24,0,4,,,,,,,,3,,,40,72
87480,note_on,24,0,6,,,,,,,,5,,,40,105
87552,note_on,192,0,2,,,,,,,,1,,,64,0
87552,note_on,72,0,6,,,,,,,,5,,,64,0
87552,note_on,192,0,1,,,,,,,,0,,,64,0
87552,note_on,192,0,3,,,,,,,,2,,,52,0
87576,note_on,96,0,5,,,,,,,,4,,,28,0
87576,note_on,24,0,6,,,,,,,,5,,,40,0
87576,note_on,96,0,4,,,,,,,,3,,,40,0
87600,note_on,48,0,2,,,,,,,,1,,,57,105
87600,note_on,48,0,1,,,,,,,,0,,,57,72
87648,note_on,48,0,1,,,,,,,,0,,,57,0
87648,note_on,48,0,2,,,,,,,,1,,,57,0
87660,note_on,12,0,1,,,,,,,,0,,,60,72
87660,note_on,12,0,2,,,,,,,,1,,,60,105
87708,note_on,48,0,2,,,,,,,,1,,,60,0
87708,note_on,48,0,1,,,,,,,,0,,,60,0
87720,note_on,144,0,5,,,,,,,,4,,,45,105
87720,note_on,12,0,1,,,,,,,,0,,,64,72
87720,note_on,144,0,6,,,,,,,,5,,,57,105
87720,note_on,0,0,6,,,,,,,,5,,,64,105
87720,note_on,0,0,6,,,,,,,,5,,,72,105
87720,note_on,12,0,2,,,,,,,,1,,,64,105
87720,note_on,144,0,4,,,,,,,,3,,,57,72
87720,note_on,168,0,3,,,,,,,,2,,,69,105
87768,note_on,48,0,1,,,,,,,,0,,,64,0
87768,note_on,48,0,2,,,,,,,,1,,,64,0
87780,note_on,12,0,2,,,,,,,,1,,,69,105
87780,note_on,12,0,1,,,,,,,,0,,,69,72
87816,note_on,96,0,4,,,,,,,,3,,,57,0
87816,note_on,96,0,5,,,,,,,,4,,,45,0
87816,note_on,0,0,6,,,,,,,,5,,,57,0
87816,note_on,96,0,6,,,,,,,,5,,,72,0
87816,note_on,96,0,3,,,,,,,,2,,,69,0
87828,note_on,48,0,1,,,,,,,,0,,,69,0
87828,note_on,48,0,2,,,,,,,,1,,,69,0
87840,note_on,12,0,1,,,,,,,,0,,,76,72
87840,note_on,24,0,4,,,,,,,,3,,,48,72
87840,note_on,24,0,3,,,,,,,,2,,,60,105
87840,note_on,12,0,2,,,,,,,,1,,,76,105
87840,note_on,0,0,6,,,,,,,,5,,,48,105
87840,note_on,24,0,6,,,,,,,,5,,,69,105
87840,note_on,24,0,5,,,,,,,,4,,,36,105
87888,note_on,48,0,1,,,,,,,,0,,,76,0
87888,note_on,48,0,2,,,,,,,,1,,,76,0
87900,note_on,12,0,2,,,,,,,,1,,,74,105
87900,note_on,12,0,1,,,,,,,,0,,,74,72
87924,note_on,24,0,2,,,,,,,,1,,,74,0
87924,note_on,24,0,1,,,,,,,,0,,,74,0
87930,note_on,6,0,2,,,,,,,,1,,,72,105
87930,note_on,6,0,1,,,,,,,,0,,,72,72
87936,note_on,96,0,6,,,,,,,,5,,,48,0
87936,note_on,0,0,6,,,,,,,,5,,,64,0
87936,note_on,96,0,3,,,,,,,,2,,,60,0
87936,note_on,96,0,4,,,,,,,,3,,,48,0
87936,note_on,96,0,5,,,,,,,,4,,,36,0
87954,note_on,24,0,1,,,,,,,,0,,,72,0
87954,note_on,24,0,2,,,,,,,,1,,,72,0
87960,note_on,6,0,1,,,,,,,,0,,,71,72
87960,note_on,24,0,4,,,,,,,,3,,,50,72
87960,note_on,6,0,2,,,,,,,,1,,,71,105
87960,note_on,0,0,6,,,,,,,,5,,,66,105
87960,note_on,24,0,6,,,,,,,,5,,,50,105
87960,note_on,24,0,3,,,,,,,,2,,,62,105
87960,note_on,24,0,5,,,,,,,,4,,,38,105
87984,note_on,24,0,2,,,,,,,,1,,,71,0
87984,note_on,24,0,1,,,,,,,,0,,,71,0
87990,note_on,6,0,1,,,,,,,,0,,,69,72
87990,note_on,6,0,2,,,,,,,,1,,,69,105
88014,note_on,24,0,2,,,,,,,,1,,,69,0
88014,note_on,24,0,1,,,,,,,,0,,,69,0
88020,note_on,6,0,1,,,,,,,,0,,,68,72
88020,note_on,6,0,2,,,,,,,,1,,,68,105
88032,note_on,72,0,6,,,,,,,,5,,,69,0
88044,note_on,24,0,1,,,,,,,,0,,,68,0
88044,note_on,24,0,2,,,,,,,,1,,,68,0
88050,note_on,6,0,2,,,,,,,,1,,,66,105
88050,note_on,6,0,1,,,,,,,,0,,,66,72
88056,note_on,96,0,4,,,,,,,,3,,,50,0
88056,note_on,96,0,5,,,,,,,,4,,,38,0
88056,note_on,96,0,3,,,,,,,,2,,,62,0
88056,note_on,0,0,6,,,,,,,,5,,,50,0
88056,note_on,24,0,6,,,,,,,,5,,,66,0
88074,note_on,24,0,2,,,,,,,,1,,,66,0
88074,note_on,24,0,1,,,,,,,,0,,,66,0
88080,note_on,24,0,5,,,,,,,,4,,,40,105
88080,note_on,0,0,6,,,,,,,,5,,,64,105
88080,note_on,24,0,6,,,,,,,,5,,,68,105
88080,note_on,24,0,4,,,,,,,,3,,,52,72
88080,note_on,0,0,6,,,,,,,,5,,,52,105
88080,note_on,6,0,1,,,,,,,,0,,,64,72
88080,note_on,6,0,2,,,,,,,,1,,,64,105
88080,note_on,24,0,3,,,,,,,,2,,,64,105
88176,note_on,96,0,3,,,,,,,,2,,,64,0
88176,note_on,96,0,5,,,,,,,,4,,,40,0
88176,note_on,0,0,6,,,,,,,,5,,,68,0
88176,note_on,96,0,2,,,,,,,,1,,,64,0
88176,note_on,96,0,6,,,,,,,,5,,,52,0
88176,note_on,96,0,4,,,,,,,,3,,,52,0
88176,note_on,96,0,1,,,,,,,,0,,,64,0
88200,note_on,24,0,1,,,,,,,,0,,,64,72
88200,note_on,0,0,1,,,,,,,,0,,,71,72
88200,note_on,24,0,5,,,,,,,,4,,,28,105
88200,note_on,24,0,4,,,,,,,,3,,,40,72
88200,note_on,24,0,2,,,,,,,,1,,,64,105
88200,note_on,0,0,2,,,,,,,,1,,,71,105
88200,note_on,0,0,6,,,,,,,,5,,,76,105
88200,note_on,24,0,6,,,,,,,,5,,,40,105
88200,note_on,24,0,3,,,,,,,,2,,,52,105
88206,note_on,0,0,2,,,,,,,,1,,,64,0
88206,note_on,6,0,1,,,,,,,,0,,,71,0
88206,note_on,0,0,1,,,,,,,,0,,,64,0
88206,note_on,6,0,2,,,,,,,,1,,,71,0
88207,note_on,1,0,2,,,,,,,,1,,,72,105
88207,note_on,1,0,1,,,,,,,,0,,,72,72
88213,note_on,6,0,1,,,,,,,,0,,,72,0
88213,note_on,6,0,2,,,,,,,,1,,,72,0
88214,note_on,1,0,2,,,,,,,,1,,,71,105
88214,note_on,1,0,1,,,,,,,,0,,,71,72
88220,note_on,6,0,1,,,,,,,,0,,,71,0
88220,note_on,6,0,2,,,,,,,,1,,,71,0
88221,note_on,1,0,1,,,,,,,,0,,,72,72
88221,note_on,1,0,2,,,,,,,,1,,,72,105
88227,note_on,6,0,1,,,,,,,,0,,,72,0
88227,note_on,6,0,2,,,,,,,,1,,,72,0
88228,note_on,1,0,2,,,,,,,,1,,,71,105
88228,note_on,1,0,1,,,,,,,,0,,,71,72
88234,note_on,6,0,2,,,,,,,,1,,,71,0
88234,note_on,6,0,1,,,,,,,,0,,,71,0
88235,note_on,1,0,2,,,,,,,,1,,,72,105
88235,note_on,1,0,1,,,,,,,,0,,,72,72
88241,note_on,6,0,2,,,,,,,,1,,,72,0
88241,note_on,6,0,1,,,,,,,,0,,,72,0
88242,note_on,1,0,1,,,,,,,,0,,,71,72
88242,note_on,1,0,2,,,,,,,,1,,,71,105
88248,note_on,6,0,2,,,,,,,,1,,,71,0
88248,note_on,6,0,1,,,,,,,,0,,,71,0
88249,note_on,1,0,2,,,,,,,,1,,,72,105
88249,note_on,1,0,1,,,,,,,,0,,,72,72
88255,note_on,6,0,2,,,,,,,,1,,,72,0
88255,note_on,6,0,1,,,,,,,,0,,,72,0
88256,note_on,1,0,2,,,,,,,,1,,,71,105
88256,note_on,1,0,1,,,,,,,,0,,,71,72
88262,note_on,6,0,1,,,,,,,,0,,,71,0
88262,note_on,6,0,2,,,,,,,,1,,,71,0
88263,note_on,1,0,1,,,,,,,,0,,,72,72
88263,note_on,1,0,2,,,,,,,,1,,,72,105
88269,note_on,6,0,1,,,,,,,,0,,,72,0
88269,note_on,6,0,2,,,,,,,,1,,,72,0
88270,note_on,1,0,1,,,,,,,,0,,,71,72
88270,note_on,1,0,2,,,,,,,,1,,,71,105
88272,note_on,72,0,6,,,,,,,,5,,,64,0
88276,note_on,6,0,1,,,,,,,,0,,,71,0
88276,note_on,6,0,2,,,,,,,,1,,,71,0
88277,note_on,1,0,2,,,,,,,,1,,,72,105
88277,note_on,1,0,1,,,,,,,,0,,,72,72
88283,note_on,6,0,2,,,,,,,,1,,,72,0
88283,note_on,6,0,1,,,,,,,,0,,,72,0
88284,note_on,1,0,2,,,,,,,,1,,,71,105
88284,note_on,1,0,1,,,,,,,,0,,,71,72
88290,note_on,6,0,1,,,,,,,,0,,,71,0
88290,note_on,6,0,2,,,,,,,,1,,,71,0
88291,note_on,1,0,2,,,,,,,,1,,,72,105
88291,note_on,1,0,1,,,,,,,,0,,,72,72
88296,note_on,96,0,4,,,,,,,,3,,,40,0
88296,note_on,96,0,5,,,,,,,,4,,,28,0
88296,note_on,0,0,6,,,,,,,,5,,,40,0
88296,note_on,96,0,3,,,,,,,,2,,,52,0
88296,note_on,24,0,6,,,,,,,,5,,,76,0
88297,note_on,6,0,2,,,,,,,,1,,,72,0
88297,note_on,6,0,1,,,,,,,,0,,,72,0
88298,note_on,1,0,1,,,,,,,,0,,,71,72
88298,note_on,1,0,2,,,,,,,,1,,,71,105
88304,note_on,6,0,1,,,,,,,,0,,,71,0
88304,note_on,6,0,2,,,,,,,,1,,,71,0
88305,note_on,1,0,1,,,,,,,,0,,,72,72
88305,note_on,1,0,2,,,,,,,,1,,,72,105
88311,note_on,6,0,1,,,,,,,,0,,,72,0
88311,note_on,6,0,2,,,,,,,,1,,,72,0
88320,note_on,9,0,1,,,,,,,,0,,,69,72
88320,note_on,24,0,4,,,,,,,,3,,,57,72
88320,note_on,24,0,3,,,,,,,,2,,,69,105
88320,note_on,24,0,6,,,,,,,,5,,,72,105
88320,note_on,9,0,2,,,,,,,,1,,,69,105
88320,note_on,24,0,5,,,,,,,,4,,,45,105
88320,note_on,0,0,6,,,,,,,,5,,,69,105
88320,note_on,0,0,6,,,,,,,,5,,,57,105
88416,note_on,96,0,5,,,,,,,,4,,,45,0
88416,note_on,96,0,6,,,,,,,,5,,,57,0
88416,note_on,96,0,3,,,,,,,,2,,,69,0
88416,note_on,96,0,4,,,,,,,,3,,,57,0
88440,note_on,24,0,6,,,,,,,,5,,,45,105
88440,note_on,24,0,3,,,,,,,,2,,,57,105
88440,note_on,24,0,4,,,,,,,,3,,,45,72
88440,note_on,24,0,5,,,,,,,,4,,,33,105
88512,note_on,72,0,6,,,,,,,,5,,,69,0
88512,note_on,192,0,2,,,,,,,,1,,,69,0
88512,note_on,0,0,6,,,,,,,,5,,,72,0
88512,note_on,192,0,1,,,,,,,,0,,,69,0
88536,note_on,96,0,3,,,,,,,,2,,,57,0
88536,note_on,96,0,5,,,,,,,,4,,,33,0
88536,note_on,96,0,4,,,,,,,,3,,,45,0
88536,note_on,24,0,6,,,,,,,,5,,,45,0
88560,note_on,48,0,2,,,,,,,,1,,,57,72
88560,note_on,48,0,1,,,,,,,,0,,,57,72
88608,note_on,48,0,2,,,,,,,,1,,,57,0
88608,note_on,48,0,1,,,,,,,,0,,,57,0
88620,note_on,12,0,2,,,,,,,,1,,,60,72
88620,note_on,12,0,1,,,,,,,,0,,,60,72
88668,note_on,48,0,2,,,,,,,,1,,,60,0
88668,note_on,48,0,1,,,,,,,,0,,,60,0
88680,note_on,144,0,3,,,,,,,,2,,,69,72
88680,note_on,144,0,4,,,,,,,,3,,,57,72
88680,note_on,144,0,5,,,,,,,,4,,,45,72
88680,note_on,12,0,1,,,,,,,,0,,,64,72
88680,note_on,12,0,2,,,,,,,,1,,,64,72
88680,note_on,0,0,6,,,,,,,,5,,,64,72
88680,note_on,0,0,6,,,,,,,,5,,,72,105
88680,note_on,144,0,6,,,,,,,,5,,,57,105
88728,note_on,48,0,1,,,,,,,,0,,,64,0
88728,note_on,48,0,2,,,,,,,,1,,,64,0
88740,note_on,12,0,1,,,,,,,,0,,,69,72
88740,note_on,12,0,2,,,,,,,,1,,,69,72
88776,note_on,96,0,6,,,,,,,,5,,,72,0
88776,note_on,96,0,3,,,,,,,,2,,,69,0
88776,note_on,96,0,5,,,,,,,,4,,,45,0
88776,note_on,96,0,4,,,,,,,,3,,,57,0
88776,note_on,0,0,6,,,,,,,,5,,,57,0
88788,note_on,48,0,1,,,,,,,,0,,,69,0
88788,note_on,48,0,2,,,,,,,,1,,,69,0
88800,note_on,12,0,2,,,,,,,,1,,,76,72
88800,note_on,24,0,4,,,,,,,,3,,,48,72
88800,note_on,24,0,6,,,,,,,,5,,,69,72
88800,note_on,24,0,3,,,,,,,,2,,,60,72
88800,set_tempo,19350,1,0,,,,,,2222222,,,,,,
88800,note_on,24,0,5,,,,,,,,4,,,36,72
88800,note_on,0,0,6,,,,,,,,5,,,48,72
88800,note_on,12,0,1,,,,,,,,0,,,76,72
88848,note_on,48,0,2,,,,,,,,1,,,76,0
88848,note_on,48,0,1,,,,,,,,0,,,76,0
88860,note_on,12,0,2,,,,,,,,1,,,74,72
88860,note_on,12,0,1,,,,,,,,0,,,74,72
88884,note_on,24,0,1,,,,,,,,0,,,74,0
88884,note_on,24,0,2,,,,,,,,1,,,74,0
88890,note_on,6,0,1,,,,,,,,0,,,72,72
88890,note_on,6,0,2,,,,,,,,1,,,72,72
88896,note_on,0,0,6,,,,,,,,5,,,64,0
88896,note_on,96,0,6,,,,,,,,5,,,48,0
88896,note_on,96,0,5,,,,,,,,4,,,36,0
88896,note_on,96,0,4,,,,,,,,3,,,48,0
88896,note_on,96,0,3,,,,,,,,2,,,60,0
88914,note_on,24,0,1,,,,,,,,0,,,72,0
88914,note_on,24,0,2,,,,,,,,1,,,72,0
88920,note_on,0,0,6,,,,,,,,5,,,66,72
88920,note_on,24,0,6,,,,,,,,5,,,50,72
88920,note_on,24,0,4,,,,,,,,3,,,50,72
88920,note_on,24,0,3,,,,,,,,2,,,62,72
88920,note_on,24,0,5,,,,,,,,4,,,38,72
88920,note_on,6,0,2,,,,,,,,1,,,71,72
88920,note_on,6,0,1,,,,,,,,0,,,71,72
88944,note_on,24,0,2,,,,,,,,1,,,71,0
88944,note_on,24,0,1,,,,,,,,0,,,71,0
88950,note_on,6,0,1,,,,,,,,0,,,69,72
88950,note_on,6,0,2,,,,,,,,1,,,69,72
88974,note_on,24,0,1,,,,,,,,0,,,69,0
88974,note_on,24,0,2,,,,,,,,1,,,69,0
88980,note_on,6,0,2,,,,,,,,1,,,68,72
88980,note_on,6,0,1,,,,,,,,0,,,68,72
88992,note_on,72,0,6,,,,,,,,5,,,69,0
89004,note_on,24,0,2,,,,,,,,1,,,68,0
89004,note_on,24,0,1,,,,,,,,0,,,68,0
89010,note_on,6,0,1,,,,,,,,0,,,66,72
89010,note_on,6,0,2,,,,,,,,1,,,66,72
89016,note_on,24,0,6,,,,,,,,5,,,66,0
89016,note_on,96,0,5,,,,,,,,4,,,38,0
89016,note_on,0,0,6,,,,,,,,5,,,50,0
89016,note_on,96,0,3,,,,,,,,2,,,62,0
89016,note_on,96,0,4,,,,,,,,3,,,50,0
89034,note_on,24,0,2,,,,,,,,1,,,66,0
89034,note_on,24,0,1,,,,,,,,0,,,66,0
89040,note_on,24,0,3,,,,,,,,2,,,64,72
89040,note_on,24,0,4,,,,,,,,3,,,52,72
89040,note_on,6,0,1,,,,,,,,0,,,64,72
89040,note_on,24,0,5,,,,,,,,4,,,40,72
89040,set_tempo,240,1,0,,,,,,2857143,,,,,,
89040,note_on,0,0,6,,,,,,,,5,,,64,72
89040,note_on,0,0,6,,,,,,,,5,,,52,72
89040,note_on,24,0,6,,,,,,,,5,,,68,72
89040,note_on,6,0,2,,,,,,,,1,,,64,72
89136,note_on,96,0,4,,,,,,,,3,,,52,0
89136,note_on,96,0,1,,,,,,,,0,,,64,0
89136,note_on,0,0,6,,,,,,,,5,,,68,0
89136,note_on,96,0,3,,,,,,,,2,,,64,0
89136,note_on,96,0,6,,,,,,,,5,,,52,0
89136,note_on,96,0,2,,,,,,,,1,,,64,0
89136,note_on,96,0,5,,,,,,,,4,,,40,0
89160,note_on,0,0,2,,,,,,,,1,,,71,72
89160,note_on,24,0,6,,,,,,,,5,,,40,72
89160,note_on,24,0,5,,,,,,,,4,,,28,72
89160,note_on,24,0,1,,,,,,,,0,,,64,72
89160,note_on,0,0,1,,,,,,,,0,,,71,72
89160,note_on,24,0,2,,,,,,,,1,,,64,72
89160,note_on,0,0,6,,,,,,,,5,,,76,72
89160,note_on,24,0,3,,,,,,,,2,,,52,72
89160,note_on,24,0,4,,,,,,,,3,,,40,72
89166,note_on,0,0,1,,,,,,,,0,,,64,0
89166,note_on,6,0,1,,,,,,,,0,,,71,0
89166,note_on,0,0,2,,,,,,,,1,,,64,0
89166,note_on,6,0,2,,,,,,,,1,,,71,0
89167,note_on,1,0,2,,,,,,,,1,,,72,72
89167,note_on,1,0,1,,,,,,,,0,,,72,72
89173,note_on,6,0,1,,,,,,,,0,,,72,0
89173,note_on,6,0,2,,,,,,,,1,,,72,0
89174,note_on,1,0,1,,,,,,,,0,,,71,72
89174,note_on,1,0,2,,,,,,,,1,,,71,72
89180,note_on,6,0,1,,,,,,,,0,,,71,0
89180,note_on,6,0,2,,,,,,,,1,,,71,0
89181,note_on,1,0,1,,,,,,,,0,,,72,72
89181,note_on,1,0,2,,,,,,,,1,,,72,72
89187,note_on,6,0,1,,,,,,,,0,,,72,0
89187,note_on,6,0,2,,,,,,,,1,,,72,0
89188,note_on,1,0,2,,,,,,,,1,,,71,72
89188,note_on,1,0,1,,,,,,,,0,,,71,72
89194,note_on,6,0,2,,,,,,,,1,,,71,0
89194,note_on,6,0,1,,,,,,,,0,,,71,0
89195,note_on,1,0,2,,,,,,,,1,,,72,72
89195,note_on,1,0,1,,,,,,,,0,,,72,72
89201,note_on,6,0,1,,,,,,,,0,,,72,0
89201,note_on,6,0,2,,,,,,,,1,,,72,0
89202,note_on,1,0,1,,,,,,,,0,,,71,72
89202,note_on,1,0,2,,,,,,,,1,,,71,72
89208,note_on,6,0,1,,,,,,,,0,,,71,0
89208,note_on,6,0,2,,,,,,,,1,,,71,0
89209,note_on,1,0,2,,,,,,,,1,,,72,72
89209,note_on,1,0,1,,,,,,,,0,,,72,72
89215,note_on,6,0,1,,,,,,,,0,,,72,0
89215,note_on,6,0,2,,,,,,,,1,,,72,0
89216,note_on,1,0,1,,,,,,,,0,,,71,72
89216,note_on,1,0,2,,,,,,,,1,,,71,72
89222,note_on,6,0,2,,,,,,,,1,,,71,0
89222,note_on,6,0,1,,,,,,,,0,,,71,0
89223,note_on,1,0,1,,,,,,,,0,,,72,72
89223,note_on,1,0,2,,,,,,,,1,,,72,72
89229,note_on,6,0,1,,,,,,,,0,,,72,0
89229,note_on,6,0,2,,,,,,,,1,,,72,0
89230,note_on,1,0,2,,,,,,,,1,,,71,72
89230,note_on,1,0,1,,,,,,,,0,,,71,72
89232,note_on,72,0,6,,,,,,,,5,,,64,0
89236,note_on,6,0,2,,,,,,,,1,,,71,0
89236,note_on,6,0,1,,,,,,,,0,,,71,0
89237,note_on,1,0,1,,,,,,,,0,,,72,72
89237,note_on,1,0,2,,,,,,,,1,,,72,72
89243,note_on,6,0,2,,,,,,,,1,,,72,0
89243,note_on,6,0,1,,,,,,,,0,,,72,0
89244,note_on,1,0,2,,,,,,,,1,,,71,72
89244,note_on,1,0,1,,,,,,,,0,,,71,72
89250,note_on,6,0,1,,,,,,,,0,,,71,0
89250,note_on,6,0,2,,,,,,,,1,,,71,0
89251,note_on,1,0,2,,,,,,,,1,,,72,72
89251,note_on,1,0,1,,,,,,,,0,,,72,72
89256,note_on,24,0,6,,,,,,,,5,,,76,0
89256,note_on,96,0,5,,,,,,,,4,,,28,0
89256,note_on,96,0,4,,,,,,,,3,,,40,0
89256,note_on,0,0,6,,,,,,,,5,,,40,0
89256,note_on,96,0,3,,,,,,,,2,,,52,0
89257,note_on,6,0,1,,,,,,,,0,,,72,0
89257,note_on,6,0,2,,,,,,,,1,,,72,0
89258,note_on,1,0,1,,,,,,,,0,,,71,72
89258,note_on,1,0,2,,,,,,,,1,,,71,72
89264,note_on,6,0,1,,,,,,,,0,,,71,0
89264,note_on,6,0,2,,,,,,,,1,,,71,0
89265,note_on,1,0,1,,,,,,,,0,,,72,72
89265,note_on,1,0,2,,,,,,,,1,,,72,72
89271,note_on,6,0,1,,,,,,,,0,,,72,0
89271,note_on,6,0,2,,,,,,,,1,,,72,0
89280,note_on,9,0,1,,,,,,,,0,,,69,72
89280,set_tempo,240,1,0,,,,,,2608696,,,,,,
89280,note_on,9,0,2,,,,,,,,1,,,69,72
89280,note_on,24,0,5,,,,,,,,4,,,33,72
89280,note_on,24,0,3,,,,,,,,2,,,57,72
89280,note_on,24,0,4,,,,,,,,3,,,45,72
89280,note_on,24,0,6,,,,,,,,5,,,45,72
89280,note_on,0,0,6,,,,,,,,5,,,72,72
89280,note_on,0,0,6,,,,,,,,5,,,69,72
89520,set_tempo,240,1,0,,,,,,3333333,,,,,,
89664,note_on,384,0,5,,,,,,,,4,,,33,0
89664,note_on,384,0,4,,,,,,,,3,,,45,0
89664,note_on,384,0,2,,,,,,,,1,,,69,0
89664,note_on,384,0,3,,,,,,,,2,,,57,0
89664,note_on,384,0,6,,,,,,,,5,,,69,0
89664,note_on,0,0,6,,,,,,,,5,,,72,0
89664,note_on,384,0,1,,,,,,,,0,,,69,0
89664,note_on,0,0,6,,,,,,,,5,,,45,0
89760,set_tempo,240,1,0,,,,,,545455,,,,,,
90080,marker,320,1,0,,,,,,,,,,,,
90120,note_on,456,0,3,,,,,,,,2,,,64,105
90120,note_on,456,0,2,,,,,,,,1,,,69,72
90120,note_on,456,0,4,,,,,,,,3,,,45,105
90120,note_on,456,0,5,,,,,,,,4,,,33,105
90120,note_on,456,0,1,,,,,,,,0,,,69,72
90120,note_on,456,0,6,,,,,,,,5,,,45,72
90168,note_on,48,0,2,,,,,,,,1,,,69,0
90168,note_on,48,0,1,,,,,,,,0,,,69,0
90180,note_on,12,0,1,,,,,,,,0,,,68,105
90180,note_on,12,0,2,,,,,,,,1,,,68,105
90216,note_on,96,0,5,,,,,,,,4,,,33,0
90216,note_on,96,0,4,,,,,,,,3,,,45,0
90216,note_on,96,0,6,,,,,,,,5,,,45,0
90216,note_on,96,0,3,,,,,,,,2,,,64,0
90228,note_on,48,0,2,,,,,,,,1,,,68,0
90228,note_on,48,0,1,,,,,,,,0,,,68,0
90240,note_on,24,0,3,,,,,,,,2,,,64,105
90240,note_on,12,0,2,,,,,,,,1,,,69,105
90240,note_on,24,0,6,,,,,,,,5,,,73,72
90240,note_on,0,0,6,,,,,,,,5,,,69,72
90240,note_on,24,0,4,,,,,,,,3,,,45,105
90240,note_on,0,0,6,,,,,,,,5,,,45,72
90240,note_on,24,0,5,,,,,,,,4,,,33,105
90240,note_on,12,0,1,,,,,,,,0,,,69,105
90336,note_on,0,0,6,,,,,,,,5,,,73,0
90336,note_on,96,0,4,,,,,,,,3,,,45,0
90336,note_on,96,0,5,,,,,,,,4,,,33,0
90336,note_on,96,0,2,,,,,,,,1,,,69,0
90336,note_on,96,0,1,,,,,,,,0,,,69,0
90336,note_on,96,0,6,,,,,,,,5,,,69,0
90336,note_on,96,0,3,,,,,,,,2,,,64,0
90336,note_on,0,0,6,,,,,,,,5,,,45,0
90360,note_on,24,0,6,,,,,,,,5,,,71,72
90360,note_on,0,0,6,,,,,,,,5,,,52,72
90360,note_on,24,0,1,,,,,,,,0,,,71,105
90360,note_on,24,0,4,,,,,,,,3,,,52,105
90360,note_on,24,0,2,,,,,,,,1,,,71,105
90360,note_on,0,0,6,,,,,,,,5,,,68,72
90360,note_on,24,0,3,,,,,,,,2,,,68,105
90360,note_on,24,0,5,,,,,,,,4,,,40,105
90456,note_on,0,0,6,,,,,,,,5,,,71,0
90456,note_on,0,0,6,,,,,,,,5,,,52,0
90456,note_on,96,0,6,,,,,,,,5,,,68,0
90456,note_on,96,0,3,,,,,,,,2,,,68,0
90456,note_on,96,0,2,,,,,,,,1,,,71,0
90456,note_on,96,0,1,,,,,,,,0,,,71,0
90456,note_on,96,0,5,,,,,,,,4,,,40,0
90456,note_on,96,0,4,,,,,,,,3,,,52,0
90480,note_on,24,0,3,,,,,,,,2,,,64,105
90480,note_on,24,0,4,,,,,,,,3,,,57,105
90480,note_on,24,0,6,,,,,,,,5,,,69,72
90480,note_on,24,0,5,,,,,,,,4,,,45,105
90480,note_on,0,0,6,,,,,,,,5,,,64,72
90480,note_on,24,0,1,,,,,,,,0,,,73,105
90480,note_on,24,0,2,,,,,,,,1,,,73,105
90480,note_on,0,0,6,,,,,,,,5,,,57,72
90576,note_on,96,0,6,,,,,,,,5,,,57,0
90576,note_on,96,0,3,,,,,,,,2,,,64,0
90576,note_on,0,0,6,,,,,,,,5,,,64,0
90576,note_on,96,0,5,,,,,,,,4,,,45,0
90576,note_on,0,0,6,,,,,,,,5,,,69,0
90576,note_on,96,0,2,,,,,,,,1,,,73,0
90576,note_on,96,0,4,,,,,,,,3,,,57,0
90576,note_on,96,0,1,,,,,,,,0,,,73,0
90600,note_on,24,0,3,,,,,,,,2,,,68,105
90600,note_on,0,0,6,,,,,,,,5,,,52,72
90600,note_on,0,0,6,,,,,,,,5,,,68,72
90600,note_on,24,0,5,,,,,,,,4,,,40,105
90600,note_on,24,0,1,,,,,,,,0,,,74,105
90600,note_on,24,0,4,,,,,,,,3,,,52,105
90600,note_on,24,0,6,,,,,,,,5,,,71,72
90600,note_on,24,0,2,,,,,,,,1,,,74,105
90696,note_on,96,0,5,,,,,,,,4,,,40,0
90696,note_on,96,0,1,,,,,,,,0,,,74,0
90696,note_on,96,0,3,,,,,,,,2,,,68,0
90696,note_on,96,0,4,,,,,,,,3,,,52,0
90696,note_on,0,0,6,,,,,,,,5,,,71,0
90696,note_on,0,0,6,,,,,,,,5,,,52,0
90696,note_on,96,0,6,,,,,,,,5,,,68,0
90696,note_on,96,0,2,,,,,,,,1,,,74,0
90720,note_on,0,0,6,,,,,,,,5,,,69,72
90720,note_on,0,0,6,,,,,,,,5,,,45,72
90720,note_on,24,0,6,,,,,,,,5,,,73,72
90720,note_on,24,0,2,,,,,,,,1,,,76,105
90720,note_on,24,0,1,,,,,,,,0,,,76,105
90720,note_on,24,0,5,,,,,,,,4,,,33,105
90720,note_on,24,0,3,,,,,,,,2,,,61,105
90720,note_on,24,0,4,,,,,,,,3,,,45,105
90816,note_on,0,0,6,,,,,,,,5,,,45,0
90816,note_on,0,0,6,,,,,,,,5,,,73,0
90816,note_on,96,0,4,,,,,,,,3,,,45,0
90816,note_on,96,0,6,,,,,,,,5,,,69,0
90816,note_on,96,0,1,,,,,,,,0,,,76,0
90816,note_on,96,0,3,,,,,,,,2,,,61,0
90816,note_on,96,0,5,,,,,,,,4,,,33,0
90816,note_on,96,0,2,,,,,,,,1,,,76,0
90840,note_on,24,0,1,,,,,,,,0,,,81,105
90840,note_on,24,0,5,,,,,,,,4,,,49,105
90840,note_on,24,0,2,,,,,,,,1,,,81,105
90840,note_on,24,0,4,,,,,,,,3,,,61,105
90840,note_on,24,0,3,,,,,,,,2,,,64,105
90840,note_on,24,0,6,,,,,,,,5,,,69,72
90840,note_on,0,0,6,,,,,,,,5,,,61,72
90840,note_on,0,0,6,,,,,,,,5,,,64,72
90936,note_on,96,0,5,,,,,,,,4,,,49,0
90936,note_on,96,0,4,,,,,,,,3,,,61,0
90936,note_on,0,0,6,,,,,,,,5,,,61,0
90936,note_on,96,0,3,,,,,,,,2,,,64,0
90936,note_on,96,0,6,,,,,,,,5,,,64,0
90960,note_on,0,0,6,,,,,,,,5,,,66,72
90960,note_on,24,0,6,,,,,,,,5,,,62,72
90960,note_on,24,0,4,,,,,,,,3,,,62,105
90960,note_on,24,0,3,,,,,,,,2,,,66,105
90960,note_on,24,0,5,,,,,,,,4,,,50,105
91032,note_on,192,0,2,,,,,,,,1,,,81,0
91032,note_on,72,0,6,,,,,,,,5,,,69,0
91032,note_on,192,0,1,,,,,,,,0,,,81,0
91056,note_on,24,0,6,,,,,,,,5,,,66,0
91056,note_on,0,0,6,,,,,,,,5,,,62,0
91056,note_on,96,0,5,,,,,,,,4,,,50,0
91056,note_on,96,0,4,,,,,,,,3,,,62,0
91056,note_on,96,0,3,,,,,,,,2,,,66,0
91080,note_on,0,0,6,,,,,,,,5,,,71,72
91080,note_on,0,0,6,,,,,,,,5,,,64,72
91080,note_on,48,0,2,,,,,,,,1,,,80,105
91080,note_on,24,0,5,,,,,,,,4,,,44,105
91080,note_on,48,0,1,,,,,,,,0,,,80,105
91080,note_on,24,0,4,,,,,,,,3,,,56,105
91080,note_on,24,0,6,,,,,,,,5,,,56,72
91080,note_on,24,0,3,,,,,,,,2,,,62,105
91128,note_on,48,0,2,,,,,,,,1,,,80,0
91128,note_on,48,0,1,,,,,,,,0,,,80,0
91140,note_on,12,0,1,,,,,,,,0,,,78,105
91140,note_on,12,0,2,,,,,,,,1,,,78,105
91176,note_on,96,0,4,,,,,,,,3,,,56,0
91176,note_on,0,0,6,,,,,,,,5,,,56,0
91176,note_on,96,0,3,,,,,,,,2,,,62,0
91176,note_on,96,0,5,,,,,,,,4,,,44,0
91176,note_on,96,0,6,,,,,,,,5,,,71,0
91188,note_on,48,0,2,,,,,,,,1,,,78,0
91188,note_on,48,0,1,,,,,,,,0,,,78,0
91200,note_on,12,0,2,,,,,,,,1,,,76,105
91200,note_on,24,0,4,,,,,,,,3,,,57,105
91200,note_on,12,0,1,,,,,,,,0,,,76,105
91200,note_on,0,0,6,,,,,,,,5,,,57,72
91200,note_on,24,0,5,,,,,,,,4,,,45,105
91200,note_on,24,0,6,,,,,,,,5,,,73,72
91200,note_on,24,0,3,,,,,,,,2,,,61,105
91296,note_on,96,0,1,,,,,,,,0,,,76,0
91296,note_on,96,0,2,,,,,,,,1,,,76,0
91296,note_on,0,0,6,,,,,,,,5,,,64,0
91296,note_on,96,0,3,,,,,,,,2,,,61,0
91296,note_on,96,0,4,,,,,,,,3,,,57,0
91296,note_on,96,0,5,,,,,,,,4,,,45,0
91296,note_on,96,0,6,,,,,,,,5,,,57,0
91296,note_on,0,0,6,,,,,,,,5,,,73,0
91320,note_on,24,0,3,,,,,,,,2,,,64,105
91320,note_on,24,0,1,,,,,,,,0,,,73,105
91320,note_on,24,0,4,,,,,,,,3,,,45,105
91320,note_on,24,0,5,,,,,,,,4,,,33,105
91320,note_on,24,0,2,,,,,,,,1,,,73,105
91320,note_on,0,0,6,,,,,,,,5,,,69,72
91320,note_on,24,0,6,,,,,,,,5,,,45,72
91416,note_on,96,0,3,,,,,,,,2,,,64,0
91416,note_on,96,0,2,,,,,,,,1,,,73,0
91416,note_on,96,0,6,,,,,,,,5,,,69,0
91416,note_on,96,0,4,,,,,,,,3,,,45,0
91416,note_on,0,0,6,,,,,,,,5,,,45,0
91416,note_on,96,0,5,,,,,,,,4,,,33,0
91416,note_on,96,0,1,,,,,,,,0,,,73,0
91440,note_on,24,0,3,,,,,,,,2,,,66,105
91440,note_on,24,0,2,,,,,,,,1,,,74,105
91440,note_on,24,0,5,,,,,,,,4,,,38,105
91440,note_on,24,0,6,,,,,,,,5,,,69,72
91440,note_on,0,0,6,,,,,,,,5,,,66,72
91440,note_on,0,0,6,,,,,,,,5,,,50,72
91440,note_on,24,0,4,,,,,,,,3,,,50,105
91440,note_on,24,0,1,,,,,,,,0,,,74,105
91536,note_on,0,0,6,,,,,,,,5,,,69,0
91536,note_on,0,0,6,,,,,,,,5,,,66,0
91536,note_on,96,0,6,,,,,,,,5,,,50,0
91536,note_on,96,0,5,,,,,,,,4,,,38,0
91536,note_on,96,0,4,,,,,,,,3,,,50,0
91536,note_on,96,0,3,,,,,,,,2,,,66,0
91536,note_on,96,0,2,,,,,,,,1,,,74,0
91536,note_on,96,0,1,,,,,,,,0,,,74,0
91560,note_on,24,0,1,,,,,,,,0,,,71,105
91560,note_on,24,0,5,,,,,,,,4,,,40,105
91560,note_on,24,0,2,,,,,,,,1,,,71,105
91560,note_on,0,0,6,,,,,,,,5,,,52,72
91560,note_on,24,0,3,,,,,,,,2,,,64,105
91560,note_on,24,0,6,,,,,,,,5,,,68,72
91560,note_on,0,0,6,,,,,,,,5,,,64,72
91560,note_on,24,0,4,,,,,,,,3,,,52,105
91656,note_on,96,0,2,,,,,,,,1,,,71,0
91656,note_on,96,0,1,,,,,,,,0,,,71,0
91656,note_on,96,0,5,,,,,,,,4,,,40,0
91656,note_on,0,0,6,,,,,,,,5,,,52,0
91656,note_on,96,0,3,,,,,,,,2,,,64,0
91656,note_on,0,0,6,,,,,,,,5,,,68,0
91656,note_on,96,0,4,,,,,,,,3,,,52,0
91656,note_on,96,0,6,,,,,,,,5,,,64,0
91680,note_on,24,0,1,,,,,,,,0,,,73,105
91680,note_on,0,0,6,,,,,,,,5,,,57,72
91680,note_on,0,0,6,,,,,,,,5,,,61,72
91680,note_on,24,0,2,,,,,,,,1,,,73,105
91680,note_on,24,0,3,,,,,,,,2,,,64,105
91680,note_on,24,0,6,,,,,,,,5,,,69,72
91680,note_on,24,0,5,,,,,,,,4,,,45,105
91680,note_on,24,0,4,,,,,,,,3,,,57,105
91776,note_on,96,0,1,,,,,,,,0,,,73,0
91776,note_on,96,0,2,,,,,,,,1,,,73,0
91776,note_on,96,0,6,,,,,,,,5,,,57,0
91776,note_on,96,0,5,,,,,,,,4,,,45,0
91776,note_on,96,0,4,,,,,,,,3,,,57,0
91776,note_on,96,0,3,,,,,,,,2,,,64,0
91800,note_on,24,0,5,,,,,,,,4,,,33,105
91800,note_on,24,0,1,,,,,,,,0,,,69,105
91800,note_on,24,0,4,,,,,,,,3,,,45,105
91800,note_on,24,0,6,,,,,,,,5,,,45,72
91800,note_on,24,0,2,,,,,,,,1,,,69,105
91800,note_on,24,0,3,,,,,,,,2,,,61,105
91872,note_on,0,0,6,,,,,,,,5,,,69,0
91872,note_on,72,0,6,,,,,,,,5,,,61,0
91896,note_on,96,0,3,,,,,,,,2,,,61,0
91896,note_on,96,0,5,,,,,,,,4,,,33,0
91896,note_on,96,0,4,,,,,,,,3,,,45,0
91896,note_on,24,0,6,,,,,,,,5,,,45,0
91896,note_on,96,0,2,,,,,,,,1,,,69,0
91896,note_on,96,0,1,,,,,,,,0,,,69,0
91920,note_on,24,0,2,,,,,,,,1,,,78,105
91920,note_on,24,0,1,,,,,,,,0,,,78,105
91968,note_on,48,0,2,,,,,,,,1,,,78,0
91968,note_on,48,0,1,,,,,,,,0,,,78,0
91980,note_on,12,0,2,,,,,,,,1,,,80,105
91980,note_on,12,0,1,,,,,,,,0,,,80,105
92028,note_on,48,0,1,,,,,,,,0,,,80,0
92028,note_on,48,0,2,,,,,,,,1,,,80,0
92040,note_on,0,0,6,,,,,,,,5,,,66,72
92040,note_on,0,0,6,,,,,,,,5,,,62,72
92040,note_on,12,0,1,,,,,,,,0,,,81,105
92040,note_on,144,0,6,,,,,,,,5,,,50,72
92040,note_on,12,0,2,,,,,,,,1,,,81,105
92040,note_on,144,0,3,,,,,,,,2,,,69,105
92040,note_on,144,0,4,,,,,,,,3,,,50,105
92040,note_on,144,0,5,,,,,,,,4,,,38,105
92088,note_on,48,0,1,,,,,,,,0,,,81,0
92088,note_on,48,0,2,,,,,,,,1,,,81,0
92100,note_on,12,0,1,,,,,,,,0,,,78,105
92100,note_on,12,0,2,,,,,,,,1,,,78,105
92136,note_on,96,0,5,,,,,,,,4,,,38,0
92136,note_on,0,0,6,,,,,,,,5,,,50,0
92136,note_on,96,0,3,,,,,,,,2,,,69,0
92136,note_on,96,0,4,,,,,,,,3,,,50,0
92136,note_on,0,0,6,,,,,,,,5,,,62,0
92136,note_on,96,0,6,,,,,,,,5,,,66,0
92148,note_on,48,0,1,,,,,,,,0,,,78,0
92148,note_on,48,0,2,,,,,,,,1,,,78,0
92160,note_on,24,0,6,,,,,,,,5,,,64,72
92160,note_on,24,0,4,,,,,,,,3,,,57,105
92160,note_on,24,0,3,,,,,,,,2,,,69,105
92160,note_on,12,0,1,,,,,,,,0,,,76,105
92160,note_on,24,0,5,,,,,,,,4,,,45,105
92160,note_on,0,0,6,,,,,,,,5,,,61,72
92160,note_on,0,0,6,,,,,,,,5,,,57,72
92160,note_on,12,0,2,,,,,,,,1,,,76,105
92256,note_on,96,0,5,,,,,,,,4,,,45,0
92256,note_on,96,0,4,,,,,,,,3,,,57,0
92256,note_on,96,0,6,,,,,,,,5,,,57,0
92280,note_on,24,0,5,,,,,,,,4,,,33,105
92280,note_on,24,0,4,,,,,,,,3,,,45,105
92280,note_on,24,0,6,,,,,,,,5,,,45,72
92352,note_on,192,0,3,,,,,,,,2,,,69,0
92352,note_on,192,0,1,,,,,,,,0,,,76,0
92352,note_on,192,0,2,,,,,,,,1,,,76,0
92352,note_on,72,0,6,,,,,,,,5,,,61,0
92352,note_on,0,0,6,,,,,,,,5,,,64,0
92376,note_on,24,0,6,,,,,,,,5,,,45,0
92376,note_on,96,0,5,,,,,,,,4,,,33,0
92376,note_on,96,0,4,,,,,,,,3,,,45,0
92400,note_on,48,0,1,,,,,,,,0,,,71,105
92400,note_on,48,0,2,,,,,,,,1,,,71,105
92496,note_on,96,0,1,,,,,,,,0,,,71,0
92496,note_on,96,0,2,,,,,,,,1,,,71,0
92520,note_on,144,0,5,,,,,,,,4,,,40,105
92520,note_on,24,0,1,,,,,,,,0,,,73,105
92520,note_on,168,0,3,,,,,,,,2,,,68,105
92520,note_on,144,0,6,,,,,,,,5,,,52,72
92520,note_on,0,0,6,,,,,,,,5,,,68,72
92520,note_on,0,0,6,,,,,,,,5,,,59,72
92520,note_on,144,0,4,,,,,,,,3,,,52,105
92520,note_on,24,0,2,,,,,,,,1,,,73,105
92568,note_on,48,0,1,,,,,,,,0,,,73,0
92568,note_on,48,0,2,,,,,,,,1,,,73,0
92580,note_on,12,0,1,,,,,,,,0,,,74,105
92580,note_on,12,0,2,,,,,,,,1,,,74,105
92616,note_on,96,0,6,,,,,,,,5,,,59,0
92616,note_on,0,0,6,,,,,,,,5,,,68,0
92616,note_on,0,0,6,,,,,,,,5,,,52,0
92616,note_on,96,0,5,,,,,,,,4,,,40,0
92616,note_on,96,0,4,,,,,,,,3,,,52,0
92616,note_on,96,0,3,,,,,,,,2,,,68,0
92628,note_on,48,0,1,,,,,,,,0,,,74,0
92628,note_on,48,0,2,,,,,,,,1,,,74,0
92640,note_on,0,0,6,,,,,,,,5,,,61,72
92640,note_on,12,0,2,,,,,,,,1,,,69,105
92640,note_on,24,0,5,,,,,,,,4,,,45,105
92640,note_on,24,0,4,,,,,,,,3,,,57,105
92640,note_on,24,0,6,,,,,,,,5,,,69,72
92640,note_on,0,0,6,,,,,,,,5,,,57,72
92640,note_on,24,0,3,,,,,,,,2,,,64,105
92640,note_on,12,0,1,,,,,,,,0,,,73,105
92736,note_on,96,0,5,,,,,,,,4,,,45,0
92736,note_on,96,0,4,,,,,,,,3,,,57,0
92736,note_on,96,0,6,,,,,,,,5,,,57,0
92736,note_on,96,0,3,,,,,,,,2,,,64,0
92760,note_on,24,0,6,,,,,,,,5,,,45,72
92760,note_on,24,0,3,,,,,,,,2,,,61,105
92760,note_on,24,0,4,,,,,,,,3,,,45,105
92760,note_on,24,0,5,,,,,,,,4,,,33,105
92832,note_on,192,0,2,,,,,,,,1,,,69,0
92832,note_on,72,0,6,,,,,,,,5,,,61,0
92832,note_on,0,0,6,,,,,,,,5,,,69,0
92832,note_on,192,0,1,,,,,,,,0,,,73,0
92856,note_on,24,0,6,,,,,,,,5,,,45,0
92856,note_on,96,0,4,,,,,,,,3,,,45,0
92856,note_on,96,0,3,,,,,,,,2,,,61,0
92856,note_on,96,0,5,,,,,,,,4,,,33,0
92880,note_on,48,0,2,,,,,,,,1,,,74,105
92880,note_on,48,0,1,,,,,,,,0,,,78,105
92928,note_on,48,0,1,,,,,,,,0,,,78,0
92928,note_on,48,0,2,,,,,,,,1,,,74,0
92940,note_on,12,0,2,,,,,,,,1,,,76,105
92940,note_on,12,0,1,,,,,,,,0,,,80,105
92988,note_on,48,0,2,,,,,,,,1,,,76,0
92988,note_on,48,0,1,,,,,,,,0,,,80,0
93000,note_on,144,0,6,,,,,,,,5,,,50,72
93000,note_on,0,0,6,,,,,,,,5,,,66,72
93000,note_on,144,0,3,,,,,,,,2,,,66,105
93000,note_on,144,0,5,,,,,,,,4,,,38,105
93000,note_on,144,0,4,,,,,,,,3,,,50,105
93000,note_on,12,0,2,,,,,,,,1,,,78,105
93000,note_on,0,0,6,,,,,,,,5,,,62,72
93000,note_on,12,0,1,,,,,,,,0,,,81,105
93048,note_on,48,0,2,,,,,,,,1,,,78,0
93048,note_on,48,0,1,,,,,,,,0,,,81,0
93060,note_on,12,0,2,,,,,,,,1,,,74,105
93060,note_on,12,0,1,,,,,,,,0,,,78,105
93096,note_on,0,0,6,,,,,,,,5,,,50,0
93096,note_on,96,0,6,,,,,,,,5,,,66,0
93096,note_on,0,0,6,,,,,,,,5,,,62,0
93096,note_on,96,0,3,,,,,,,,2,,,66,0
93096,note_on,96,0,4,,,,,,,,3,,,50,0
93096,note_on,96,0,5,,,,,,,,4,,,38,0
93108,note_on,48,0,1,,,,,,,,0,,,78,0
93108,note_on,48,0,2,,,,,,,,1,,,74,0
93120,note_on,24,0,5,,,,,,,,4,,,45,105
93120,note_on,12,0,2,,,,,,,,1,,,73,105
93120,note_on,0,0,6,,,,,,,,5,,,57,72
93120,note_on,0,0,6,,,,,,,,5,,,61,72
93120,note_on,24,0,6,,,,,,,,5,,,64,72
93120,note_on,24,0,4,,,,,,,,3,,,57,105
93120,note_on,24,0,3,,,,,,,,2,,,69,105
93120,note_on,12,0,1,,,,,,,,0,,,76,105
93216,note_on,96,0,5,,,,,,,,4,,,45,0
93216,note_on,96,0,4,,,,,,,,3,,,57,0
93216,note_on,96,0,6,,,,,,,,5,,,57,0
93240,note_on,24,0,5,,,,,,,,4,,,33,105
93240,note_on,24,0,4,,,,,,,,3,,,45,105
93240,note_on,24,0,6,,,,,,,,5,,,45,72
93312,note_on,192,0,2,,,,,,,,1,,,73,0
93312,note_on,192,0,3,,,,,,,,2,,,69,0
93312,note_on,192,0,1,,,,,,,,0,,,76,0
93312,note_on,0,0,6,,,,,,,,5,,,64,0
93312,note_on,72,0,6,,,,,,,,5,,,61,0
93336,note_on,96,0,5,,,,,,,,4,,,33,0
93336,note_on,96,0,4,,,,,,,,3,,,45,0
93336,note_on,24,0,6,,,,,,,,5,,,45,0
93360,note_on,48,0,2,,,,,,,,1,,,64,105
93360,note_on,48,0,1,,,,,,,,0,,,68,105
93456,note_on,96,0,1,,,,,,,,0,,,68,0
93456,note_on,96,0,2,,,,,,,,1,,,64,0
93480,note_on,0,0,6,,,,,,,,5,,,59,72
93480,note_on,144,0,6,,,,,,,,5,,,52,72
93480,note_on,24,0,1,,,,,,,,0,,,69,105
93480,note_on,0,0,6,,,,,,,,5,,,68,72
93480,note_on,24,0,2,,,,,,,,1,,,66,105
93480,note_on,144,0,4,,,,,,,,3,,,52,105
93480,note_on,168,0,3,,,,,,,,2,,,68,105
93480,note_on,144,0,5,,,,,,,,4,,,40,105
93528,note_on,48,0,1,,,,,,,,0,,,69,0
93528,note_on,48,0,2,,,,,,,,1,,,66,0
93540,note_on,12,0,1,,,,,,,,0,,,71,105
93540,note_on,12,0,2,,,,,,,,1,,,68,105
93576,note_on,0,0,6,,,,,,,,5,,,52,0
93576,note_on,0,0,6,,,,,,,,5,,,68,0
93576,note_on,96,0,6,,,,,,,,5,,,59,0
93576,note_on,96,0,4,,,,,,,,3,,,52,0
93576,note_on,96,0,3,,,,,,,,2,,,68,0
93576,note_on,96,0,5,,,,,,,,4,,,40,0
93588,note_on,48,0,1,,,,,,,,0,,,71,0
93588,note_on,48,0,2,,,,,,,,1,,,68,0
93600,note_on,24,0,5,,,,,,,,4,,,45,105
93600,note_on,0,0,6,,,,,,,,5,,,57,72
93600,note_on,24,0,6,,,,,,,,5,,,69,72
93600,note_on,12,0,2,,,,,,,,1,,,69,105
93600,note_on,12,0,1,,,,,,,,0,,,73,105
93600,note_on,0,0,6,,,,,,,,5,,,61,72
93600,note_on,24,0,3,,,,,,,,2,,,64,105
93600,note_on,24,0,4,,,,,,,,3,,,57,105
93696,note_on,96,0,5,,,,,,,,4,,,45,0
93696,note_on,96,0,1,,,,,,,,0,,,73,0
93696,note_on,96,0,3,,,,,,,,2,,,64,0
93696,note_on,96,0,2,,,,,,,,1,,,69,0
93696,note_on,96,0,4,,,,,,,,3,,,57,0
93696,note_on,96,0,6,,,,,,,,5,,,61,0
93696,note_on,0,0,6,,,,,,,,5,,,57,0
93696,note_on,0,0,6,,,,,,,,5,,,69,0
93720,note_on,24,0,1,,,,,,,,0,,,81,105
93720,note_on,24,0,3,,,,,,,,2,,,62,105
93720,note_on,24,0,2,,,,,,,,1,,,78,105
93720,note_on,0,0,6,,,,,,,,5,,,62,72
93720,note_on,0,0,6,,,,,,,,5,,,66,72
93720,note_on,24,0,5,,,,,,,,4,,,38,105
93720,note_on,24,0,4,,,,,,,,3,,,50,105
93720,note_on,24,0,6,,,,,,,,5,,,50,72
93768,note_on,48,0,2,,,,,,,,1,,,78,0
93768,note_on,48,0,1,,,,,,,,0,,,81,0
93780,note_on,12,0,1,,,,,,,,0,,,78,105
93780,note_on,12,0,2,,,,,,,,1,,,74,105
93816,note_on,96,0,5,,,,,,,,4,,,38,0
93816,note_on,0,0,6,,,,,,,,5,,,50,0
93816,note_on,0,0,6,,,,,,,,5,,,66,0
93816,note_on,96,0,3,,,,,,,,2,,,62,0
93816,note_on,96,0,4,,,,,,,,3,,,50,0
93816,note_on,96,0,6,,,,,,,,5,,,62,0
93828,note_on,48,0,2,,,,,,,,1,,,74,0
93828,note_on,48,0,1,,,,,,,,0,,,78,0
93840,note_on,0,0,6,,,,,,,,5,,,57,72
93840,note_on,24,0,5,,,,,,,,4,,,45,105
93840,note_on,12,0,2,,,,,,,,1,,,73,105
93840,note_on,24,0,4,,,,,,,,3,,,57,105
93840,note_on,24,0,6,,,,,,,,5,,,69,72
93840,note_on,12,0,1,,,,,,,,0,,,76,105
93840,note_on,0,0,6,,,,,,,,5,,,61,72
93840,note_on,24,0,3,,,,,,,,2,,,64,105
93936,note_on,96,0,3,,,,,,,,2,,,64,0
93936,note_on,96,0,2,,,,,,,,1,,,73,0
93936,note_on,0,0,6,,,,,,,,5,,,69,0
93936,note_on,96,0,4,,,,,,,,3,,,57,0
93936,note_on,96,0,1,,,,,,,,0,,,76,0
93936,note_on,0,0,6,,,,,,,,5,,,57,0
93936,note_on,96,0,6,,,,,,,,5,,,61,0
93936,note_on,96,0,5,,,,,,,,4,,,45,0
93960,note_on,24,0,4,,,,,,,,3,,,52,105
93960,note_on,24,0,2,,,,,,,,1,,,71,105
93960,note_on,0,0,6,,,,,,,,5,,,64,72
93960,note_on,0,0,6,,,,,,,,5,,,68,72
93960,note_on,24,0,6,,,,,,,,5,,,52,72
93960,note_on,24,0,3,,,,,,,,2,,,68,105
93960,note_on,24,0,1,,,,,,,,0,,,74,105
93960,note_on,24,0,5,,,,,,,,4,,,40,105
94008,note_on,48,0,1,,,,,,,,0,,,74,0
94008,note_on,48,0,2,,,,,,,,1,,,71,0
94020,note_on,12,0,2,,,,,,,,1,,,68,105
94020,note_on,12,0,1,,,,,,,,0,,,71,105
94056,note_on,0,0,6,,,,,,,,5,,,52,0
94056,note_on,0,0,6,,,,,,,,5,,,68,0
94056,note_on,96,0,6,,,,,,,,5,,,64,0
94056,note_on,96,0,3,,,,,,,,2,,,68,0
94056,note_on,96,0,4,,,,,,,,3,,,52,0
94056,note_on,96,0,5,,,,,,,,4,,,40,0
94068,note_on,48,0,2,,,,,,,,1,,,68,0
94068,note_on,48,0,1,,,,,,,,0,,,71,0
94080,note_on,24,0,5,,,,,,,,4,,,33,105
94080,note_on,0,0,6,,,,,,,,5,,,61,72
94080,note_on,0,0,6,,,,,,,,5,,,45,72
94080,note_on,24,0,4,,,,,,,,3,,,45,105
94080,note_on,24,0,3,,,,,,,,2,,,64,105
94080,note_on,24,0,6,,,,,,,,5,,,69,72
94080,note_on,12,0,2,,,,,,,,1,,,69,105
94080,note_on,12,0,1,,,,,,,,0,,,73,105
94176,note_on,96,0,6,,,,,,,,5,,,61,0
94176,note_on,0,0,6,,,,,,,,5,,,45,0
94176,note_on,0,0,6,,,,,,,,5,,,69,0
94176,note_on,96,0,4,,,,,,,,3,,,45,0
94176,note_on,96,0,5,,,,,,,,4,,,33,0
94176,note_on,96,0,2,,,,,,,,1,,,69,0
94176,note_on,96,0,1,,,,,,,,0,,,73,0
94176,note_on,96,0,3,,,,,,,,2,,,64,0
94200,note_on,24,0,2,,,,,,,,1,,,78,105
94200,note_on,24,0,6,,,,,,,,5,,,50,72
94200,note_on,0,0,6,,,,,,,,5,,,66,72
94200,note_on,0,0,6,,,,,,,,5,,,62,72
94200,note_on,24,0,1,,,,,,,,0,,,81,105
94200,note_on,24,0,5,,,,,,,,4,,,38,105
94200,note_on,24,0,3,,,,,,,,2,,,62,105
94200,note_on,24,0,4,,,,,,,,3,,,50,105
94248,note_on,48,0,2,,,,,,,,1,,,78,0
94248,note_on,48,0,1,,,,,,,,0,,,81,0
94260,note_on,12,0,2,,,,,,,,1,,,74,105
94260,note_on,12,0,1,,,,,,,,0,,,78,105
94296,note_on,96,0,3,,,,,,,,2,,,62,0
94296,note_on,0,0,6,,,,,,,,5,,,50,0
94296,note_on,96,0,5,,,,,,,,4,,,38,0
94296,note_on,0,0,6,,,,,,,,5,,,66,0
94296,note_on,96,0,4,,,,,,,,3,,,50,0
94296,note_on,96,0,6,,,,,,,,5,,,62,0
94308,note_on,48,0,1,,,,,,,,0,,,78,0
94308,note_on,48,0,2,,,,,,,,1,,,74,0
94320,note_on,24,0,6,,,,,,,,5,,,64,72
94320,note_on,0,0,6,,,,,,,,5,,,57,72
94320,note_on,0,0,6,,,,,,,,5,,,61,72
94320,note_on,24,0,3,,,,,,,,2,,,64,105
94320,note_on,24,0,4,,,,,,,,3,,,57,105
94320,note_on,12,0,2,,,,,,,,1,,,73,105
94320,note_on,12,0,1,,,,,,,,0,,,76,105
94320,note_on,24,0,5,,,,,,,,4,,,45,105
94416,note_on,96,0,1,,,,,,,,0,,,76,0
94416,note_on,96,0,3,,,,,,,,2,,,64,0
94416,note_on,96,0,2,,,,,,,,1,,,73,0
94416,note_on,0,0,6,,,,,,,,5,,,64,0
94416,note_on,0,0,6,,,,,,,,5,,,57,0
94416,note_on,96,0,6,,,,,,,,5,,,61,0
94416,note_on,96,0,4,,,,,,,,3,,,57,0
94416,note_on,96,0,5,,,,,,,,4,,,45,0
94440,note_on,24,0,5,,,,,,,,4,,,40,105
94440,note_on,24,0,2,,,,,,,,1,,,71,105
94440,note_on,0,0,6,,,,,,,,5,,,64,72
94440,note_on,0,0,6,,,,,,,,5,,,68,72
94440,note_on,24,0,3,,,,,,,,2,,,68,105
94440,note_on,24,0,6,,,,,,,,5,,,52,72
94440,note_on,24,0,1,,,,,,,,0,,,74,105
94440,note_on,24,0,4,,,,,,,,3,,,52,105
94488,note_on,48,0,1,,,,,,,,0,,,74,0
94488,note_on,48,0,2,,,,,,,,1,,,71,0
94500,note_on,12,0,1,,,,,,,,0,,,71,105
94500,note_on,12,0,2,,,,,,,,1,,,68,105
94536,note_on,96,0,3,,,,,,,,2,,,68,0
94536,note_on,0,0,6,,,,,,,,5,,,52,0
94536,note_on,96,0,5,,,,,,,,4,,,40,0
94536,note_on,96,0,6,,,,,,,,5,,,64,0
94536,note_on,96,0,4,,,,,,,,3,,,52,0
94536,note_on,0,0,6,,,,,,,,5,,,68,0
94548,note_on,48,0,1,,,,,,,,0,,,71,0
94548,note_on,48,0,2,,,,,,,,1,,,68,0
94560,note_on,24,0,5,,,,,,,,4,,,33,105
94560,note_on,24,0,4,,,,,,,,3,,,45,105
94560,note_on,24,0,6,,,,,,,,5,,,69,72
94560,note_on,0,0,6,,,,,,,,5,,,45,72
94560,note_on,0,0,6,,,,,,,,5,,,61,72
94560,note_on,12,0,1,,,,,,,,0,,,73,105
94560,note_on,24,0,3,,,,,,,,2,,,64,105
94560,note_on,12,0,2,,,,,,,,1,,,69,105
94656,note_on,96,0,2,,,,,,,,1,,,69,0
94656,note_on,96,0,5,,,,,,,,4,,,33,0
94656,note_on,96,0,4,,,,,,,,3,,,45,0
94656,note_on,96,0,1,,,,,,,,0,,,73,0
94656,note_on,0,0,6,,,,,,,,5,,,45,0
94656,note_on,96,0,6,,,,,,,,5,,,61,0
94680,note_on,24,0,6,,,,,,,,5,,,47,72
94680,note_on,24,0,4,,,,,,,,3,,,47,105
94680,note_on,0,0,6,,,,,,,,5,,,62,72
94680,note_on,24,0,2,,,,,,,,1,,,57,105
94680,note_on,24,0,5,,,,,,,,4,,,35,105
94680,note_on,24,0,1,,,,,,,,0,,,69,105
94752,note_on,192,0,3,,,,,,,,2,,,64,0
94776,note_on,0,0,6,,,,,,,,5,,,47,0
94776,note_on,96,0,2,,,,,,,,1,,,57,0
94776,note_on,96,0,6,,,,,,,,5,,,62,0
94776,note_on,96,0,4,,,,,,,,3,,,47,0
94776,note_on,96,0,5,,,,,,,,4,,,35,0
94776,note_on,96,0,1,,,,,,,,0,,,69,0
94800,note_on,24,0,5,,,,,,,,4,,,37,105
94800,note_on,24,0,6,,,,,,,,5,,,49,72
94800,note_on,0,0,6,,,,,,,,5,,,64,72
94800,note_on,24,0,4,,,,,,,,3,,,49,105
94800,note_on,48,0,3,,,,,,,,2,,,52,105
94896,note_on,96,0,5,,,,,,,,4,,,37,0
94896,note_on,96,0,4,,,,,,,,3,,,49,0
94896,note_on,96,0,6,,,,,,,,5,,,64,0
94896,note_on,0,0,6,,,,,,,,5,,,49,0
94920,note_on,144,0,1,,,,,,,,0,,,57,105
94920,note_on,0,0,6,,,,,,,,5,,,62,72
94920,note_on,24,0,6,,,,,,,,5,,,47,72
94920,note_on,144,0,2,,,,,,,,1,,,57,105
94920,note_on,24,0,4,,,,,,,,3,,,47,105
94920,note_on,24,0,5,,,,,,,,4,,,35,105
94944,note_on,24,0,6,,,,,,,,5,,,69,0
94968,note_on,48,0,2,,,,,,,,1,,,57,0
94968,note_on,48,0,1,,,,,,,,0,,,57,0
94980,note_on,12,0,2,,,,,,,,1,,,59,105
94980,note_on,12,0,1,,,,,,,,0,,,59,105
94992,note_on,192,0,3,,,,,,,,2,,,52,0
95016,note_on,96,0,5,,,,,,,,4,,,35,0
95016,note_on,0,0,6,,,,,,,,5,,,47,0
95016,note_on,72,0,6,,,,,,,,5,,,62,0
95016,note_on,96,0,4,,,,,,,,3,,,47,0
95028,note_on,48,0,2,,,,,,,,1,,,59,0
95028,note_on,48,0,1,,,,,,,,0,,,59,0
95040,note_on,12,0,2,,,,,,,,1,,,61,105
95040,note_on,24,0,4,,,,,,,,3,,,45,105
95040,note_on,24,0,5,,,,,,,,4,,,33,105
95040,note_on,24,0,6,,,,,,,,5,,,69,72
95040,note_on,0,0,6,,,,,,,,5,,,45,72
95040,note_on,0,0,6,,,,,,,,5,,,61,72
95040,note_on,12,0,1,,,,,,,,0,,,61,105
95040,note_on,48,0,3,,,,,,,,2,,,52,105
95136,note_on,96,0,1,,,,,,,,0,,,61,0
95136,note_on,96,0,2,,,,,,,,1,,,61,0
95136,note_on,96,0,6,,,,,,,,5,,,61,0
95136,note_on,0,0,6,,,,,,,,5,,,45,0
95136,note_on,96,0,4,,,,,,,,3,,,45,0
95136,note_on,96,0,5,,,,,,,,4,,,33,0
95160,note_on,24,0,2,,,,,,,,1,,,61,105
95160,note_on,0,0,6,,,,,,,,5,,,62,72
95160,note_on,24,0,6,,,,,,,,5,,,47,72
95160,note_on,24,0,5,,,,,,,,4,,,35,105
95160,note_on,24,0,1,,,,,,,,0,,,61,105
95160,note_on,24,0,4,,,,,,,,3,,,47,105
95208,note_on,48,0,1,,,,,,,,0,,,61,0
95208,note_on,48,0,2,,,,,,,,1,,,61,0
95220,note_on,12,0,2,,,,,,,,1,,,62,105
95220,note_on,12,0,1,,,,,,,,0,,,62,105
95232,note_on,192,0,3,,,,,,,,2,,,52,0
95256,note_on,96,0,5,,,,,,,,4,,,35,0
95256,note_on,96,0,4,,,,,,,,3,,,47,0
95256,note_on,0,0,6,,,,,,,,5,,,47,0
95256,note_on,96,0,6,,,,,,,,5,,,62,0
95268,note_on,48,0,2,,,,,,,,1,,,62,0
95268,note_on,48,0,1,,,,,,,,0,,,62,0
95280,note_on,24,0,4,,,,,,,,3,,,49,105
95280,note_on,12,0,2,,,,,,,,1,,,64,105
95280,note_on,24,0,6,,,,,,,,5,,,49,72
95280,note_on,24,0,5,,,,,,,,4,,,37,105
95280,note_on,12,0,1,,,,,,,,0,,,64,105
95280,note_on,48,0,3,,,,,,,,2,,,52,105
95280,note_on,0,0,6,,,,,,,,5,,,64,72
95376,note_on,96,0,4,,,,,,,,3,,,49,0
95376,note_on,0,0,6,,,,,,,,5,,,49,0
95376,note_on,96,0,1,,,,,,,,0,,,64,0
95376,note_on,96,0,5,,,,,,,,4,,,37,0
95376,note_on,96,0,2,,,,,,,,1,,,64,0
95376,note_on,96,0,6,,,,,,,,5,,,64,0
95400,note_on,24,0,5,,,,,,,,4,,,35,105
95400,note_on,24,0,4,,,,,,,,3,,,47,105
95400,note_on,24,0,2,,,,,,,,1,,,66,105
95400,note_on,0,0,6,,,,,,,,5,,,62,72
95400,note_on,24,0,6,,,,,,,,5,,,47,72
95400,note_on,24,0,1,,,,,,,,0,,,66,105
95424,note_on,24,0,6,,,,,,,,5,,,69,0
95448,note_on,48,0,2,,,,,,,,1,,,66,0
95448,note_on,48,0,1,,,,,,,,0,,,66,0
95460,note_on,12,0,2,,,,,,,,1,,,68,105
95460,note_on,12,0,1,,,,,,,,0,,,68,105
95472,note_on,192,0,3,,,,,,,,2,,,52,0
95496,note_on,96,0,5,,,,,,,,4,,,35,0
95496,note_on,96,0,4,,,,,,,,3,,,47,0
95496,note_on,72,0,6,,,,,,,,5,,,62,0
95496,note_on,0,0,6,,,,,,,,5,,,47,0
95508,note_on,48,0,1,,,,,,,,0,,,68,0
95508,note_on,48,0,2,,,,,,,,1,,,68,0
95520,note_on,12,0,1,,,,,,,,0,,,69,105
95520,note_on,24,0,4,,,,,,,,3,,,45,105
95520,note_on,24,0,5,,,,,,,,4,,,33,105
95520,note_on,24,0,6,,,,,,,,5,,,69,72
95520,note_on,0,0,6,,,,,,,,5,,,45,72
95520,note_on,0,0,6,,,,,,,,5,,,61,72
95520,note_on,48,0,3,,,,,,,,2,,,61,105
95520,note_on,12,0,2,,,,,,,,1,,,69,105
95616,note_on,96,0,4,,,,,,,,3,,,45,0
95616,note_on,96,0,2,,,,,,,,1,,,69,0
95616,note_on,96,0,6,,,,,,,,5,,,61,0
95616,note_on,96,0,5,,,,,,,,4,,,33,0
95616,note_on,96,0,1,,,,,,,,0,,,69,0
95616,note_on,0,0,6,,,,,,,,5,,,45,0
95616,note_on,96,0,3,,,,,,,,2,,,61,0
95640,note_on,24,0,5,,,,,,,,4,,,35,105
95640,note_on,24,0,3,,,,,,,,2,,,62,105
95640,note_on,24,0,4,,,,,,,,3,,,47,105
95640,note_on,24,0,6,,,,,,,,5,,,47,72
95640,note_on,0,0,6,,,,,,,,5,,,62,72
95640,note_on,24,0,2,,,,,,,,1,,,64,105
95640,note_on,24,0,1,,,,,,,,0,,,64,105
95736,note_on,96,0,3,,,,,,,,2,,,62,0
95736,note_on,0,0,6,,,,,,,,5,,,47,0
95736,note_on,96,0,5,,,,,,,,4,,,35,0
95736,note_on,96,0,6,,,,,,,,5,,,62,0
95736,note_on,96,0,4,,,,,,,,3,,,47,0
95760,note_on,0,0,6,,,,,,,,5,,,64,72
95760,note_on,24,0,6,,,,,,,,5,,,49,72
95760,note_on,24,0,5,,,,,,,,4,,,37,105
95760,note_on,24,0,4,,,,,,,,3,,,49,105
95760,note_on,24,0,3,,,,,,,,2,,,64,105
95808,note_on,48,0,6,,,,,,,,5,,,69,0
95832,note_on,192,0,1,,,,,,,,0,,,64,0
95832,note_on,192,0,2,,,,,,,,1,,,64,0
95856,note_on,48,0,6,,,,,,,,5,,,64,0
95856,note_on,0,0,6,,,,,,,,5,,,49,0
95856,note_on,96,0,5,,,,,,,,4,,,37,0
95856,note_on,96,0,4,,,,,,,,3,,,49,0
95856,note_on,96,0,3,,,,,,,,2,,,64,0
95880,note_on,24,0,4,,,,,,,,3,,,45,72
95880,note_on,24,0,6,,,,,,,,5,,,73,72
95880,note_on,24,0,5,,,,,,,,4,,,33,72
95880,note_on,0,0,6,,,,,,,,5,,,45,72
95880,note_on,0,0,6,,,,,,,,5,,,61,72
95880,note_on,24,0,3,,,,,,,,2,,,61,105
95880,note_on,48,0,2,,,,,,,,1,,,76,72
95880,note_on,48,0,1,,,,,,,,0,,,76,72
95928,note_on,48,0,1,,,,,,,,0,,,76,0
95928,note_on,48,0,2,,,,,,,,1,,,76,0
95940,note_on,12,0,1,,,,,,,,0,,,73,72
95940,note_on,12,0,2,,,,,,,,1,,,73,72
95976,note_on,0,0,6,,,,,,,,5,,,45,0
95976,note_on,96,0,6,,,,,,,,5,,,61,0
95976,note_on,96,0,5,,,,,,,,4,,,33,0
95976,note_on,96,0,4,,,,,,,,3,,,45,0
95976,note_on,96,0,3,,,,,,,,2,,,61,0
95988,note_on,48,0,2,,,,,,,,1,,,73,0
95988,note_on,48,0,1,,,,,,,,0,,,73,0
96000,note_on,12,0,1,,,,,,,,0,,,73,72
96000,note_on,24,0,6,,,,,,,,5,,,56,72
96000,note_on,24,0,3,,,,,,,,2,,,64,105
96000,note_on,24,0,4,,,,,,,,3,,,56,72
96000,note_on,0,0,6,,,,,,,,5,,,64,72
96000,note_on,24,0,5,,,,,,,,4,,,44,72
96000,note_on,12,0,2,,,,,,,,1,,,73,72
96096,note_on,96,0,5,,,,,,,,4,,,44,0
96096,note_on,96,0,1,,,,,,,,0,,,73,0
96096,note_on,96,0,4,,,,,,,,3,,,56,0
96096,note_on,96,0,6,,,,,,,,5,,,56,0
96096,note_on,0,0,6,,,,,,,,5,,,73,0
96096,note_on,96,0,2,,,,,,,,1,,,73,0
96120,note_on,24,0,2,,,,,,,,1,,,71,72
96120,note_on,24,0,5,,,,,,,,4,,,44,72
96120,note_on,0,0,6,,,,,,,,5,,,56,72
96120,note_on,24,0,6,,,,,,,,5,,,71,72
96120,note_on,24,0,1,,,,,,,,0,,,71,72
96120,note_on,24,0,4,,,,,,,,3,,,56,72
96216,note_on,96,0,4,,,,,,,,3,,,56,0
96216,note_on,96,0,6,,,,,,,,5,,,56,0
96216,note_on,96,0,5,,,,,,,,4,,,44,0
96240,note_on,24,0,4,,,,,,,,3,,,56,72
96240,note_on,24,0,5,,,,,,,,4,,,44,72
96240,note_on,24,0,6,,,,,,,,5,,,56,72
96288,note_on,288,0,3,,,,,,,,2,,,64,0
96312,note_on,192,0,2,,,,,,,,1,,,71,0
96312,note_on,192,0,1,,,,,,,,0,,,71,0
96336,note_on,96,0,4,,,,,,,,3,,,56,0
96336,note_on,96,0,6,,,,,,,,5,,,56,0
96336,note_on,96,0,5,,,,,,,,4,,,44,0
96360,note_on,48,0,2,,,,,,,,1,,,76,72
96360,note_on,72,0,3,,,,,,,,2,,,64,105
96360,note_on,24,0,5,,,,,,,,4,,,44,72
96360,note_on,48,0,1,,,,,,,,0,,,76,72
96360,note_on,24,0,4,,,,,,,,3,,,56,72
96360,note_on,24,0,6,,,,,,,,5,,,56,72
96384,note_on,24,0,6,,,,,,,,5,,,64,0
96408,note_on,48,0,2,,,,,,,,1,,,76,0
96408,note_on,48,0,1,,,,,,,,0,,,76,0
96420,note_on,12,0,1,,,,,,,,0,,,71,72
96420,note_on,12,0,2,,,,,,,,1,,,71,72
96456,note_on,96,0,3,,,,,,,,2,,,64,0
96456,note_on,96,0,4,,,,,,,,3,,,56,0
96456,note_on,72,0,6,,,,,,,,5,,,56,0
96456,note_on,96,0,5,,,,,,,,4,,,44,0
96468,note_on,48,0,2,,,,,,,,1,,,71,0
96468,note_on,48,0,1,,,,,,,,0,,,71,0
96480,note_on,24,0,3,,,,,,,,2,,,62,105
96480,note_on,12,0,2,,,,,,,,1,,,71,72
96480,note_on,12,0,1,,,,,,,,0,,,71,72
96480,note_on,24,0,5,,,,,,,,4,,,42,72
96480,note_on,0,0,6,,,,,,,,5,,,64,72
96480,note_on,24,0,6,,,,,,,,5,,,54,72
96480,note_on,24,0,4,,,,,,,,3,,,54,72
96576,note_on,96,0,2,,,,,,,,1,,,71,0
96576,note_on,96,0,5,,,,,,,,4,,,42,0
96576,note_on,96,0,1,,,,,,,,0,,,71,0
96576,note_on,96,0,6,,,,,,,,5,,,54,0
96576,note_on,0,0,6,,,,,,,,5,,,71,0
96576,note_on,96,0,4,,,,,,,,3,,,54,0
96600,note_on,24,0,5,,,,,,,,4,,,42,72
96600,note_on,24,0,6,,,,,,,,5,,,69,72
96600,note_on,24,0,4,,,,,,,,3,,,54,72
96600,note_on,24,0,1,,,,,,,,0,,,69,72
96600,note_on,0,0,6,,,,,,,,5,,,54,72
96600,note_on,24,0,2,,,,,,,,1,,,69,72
96696,note_on,96,0,4,,,,,,,,3,,,54,0
96696,note_on,96,0,6,,,,,,,,5,,,54,0
96696,note_on,96,0,5,,,,,,,,4,,,42,0
96720,note_on,24,0,4,,,,,,,,3,,,54,72
96720,note_on,24,0,5,,,,,,,,4,,,42,72
96720,note_on,24,0,6,,,,,,,,5,,,54,72
96768,note_on,48,0,6,,,,,,,,5,,,64,0
96768,note_on,288,0,3,,,,,,,,2,,,62,0
96792,note_on,192,0,1,,,,,,,,0,,,69,0
96792,note_on,24,0,6,,,,,,,,5,,,69,0
96792,note_on,192,0,2,,,,,,,,1,,,69,0
96816,note_on,96,0,5,,,,,,,,4,,,42,0
96816,note_on,24,0,6,,,,,,,,5,,,54,0
96816,note_on,96,0,4,,,,,,,,3,,,54,0
96840,note_on,24,0,6,,,,,,,,5,,,57,72
96840,note_on,0,0,6,,,,,,,,5,,,73,72
96840,note_on,0,0,6,,,,,,,,5,,,61,72
96840,note_on,72,0,3,,,,,,,,2,,,61,105
96840,note_on,24,0,4,,,,,,,,3,,,57,72
96840,note_on,48,0,2,,,,,,,,1,,,76,72
96840,note_on,24,0,5,,,,,,,,4,,,45,72
96840,note_on,48,0,1,,,,,,,,0,,,76,72
96888,note_on,48,0,2,,,,,,,,1,,,76,0
96888,note_on,48,0,1,,,,,,,,0,,,76,0
96900,note_on,12,0,2,,,,,,,,1,,,69,72
96900,note_on,12,0,1,,,,,,,,0,,,69,72
96936,note_on,0,0,6,,,,,,,,5,,,57,0
96936,note_on,96,0,6,,,,,,,,5,,,61,0
96936,note_on,96,0,4,,,,,,,,3,,,57,0
96936,note_on,96,0,3,,,,,,,,2,,,61,0
96936,note_on,96,0,5,,,,,,,,4,,,45,0
96948,note_on,48,0,1,,,,,,,,0,,,69,0
96948,note_on,48,0,2,,,,,,,,1,,,69,0
96960,note_on,0,0,6,,,,,,,,5,,,69,72
96960,note_on,24,0,4,,,,,,,,3,,,52,72
96960,note_on,12,0,1,,,,,,,,0,,,69,72
96960,note_on,24,0,3,,,,,,,,2,,,61,105
96960,note_on,24,0,6,,,,,,,,5,,,52,72
96960,note_on,12,0,2,,,,,,,,1,,,69,72
96960,note_on,24,0,5,,,,,,,,4,,,40,72
97056,note_on,96,0,1,,,,,,,,0,,,69,0
97056,note_on,0,0,6,,,,,,,,5,,,73,0
97056,note_on,96,0,6,,,,,,,,5,,,69,0
97056,note_on,0,0,6,,,,,,,,5,,,52,0
97056,note_on,96,0,2,,,,,,,,1,,,69,0
97056,note_on,96,0,3,,,,,,,,2,,,61,0
97056,note_on,96,0,4,,,,,,,,3,,,52,0
97056,note_on,96,0,5,,,,,,,,4,,,40,0
97080,note_on,24,0,2,,,,,,,,1,,,68,105
97080,note_on,24,0,5,,,,,,,,4,,,28,72
97080,note_on,24,0,4,,,,,,,,3,,,40,72
97080,note_on,24,0,1,,,,,,,,0,,,68,105
97080,note_on,24,0,6,,,,,,,,5,,,76,72
97080,note_on,0,0,6,,,,,,,,5,,,40,72
97080,note_on,0,0,6,,,,,,,,5,,,68,72
97080,note_on,24,0,3,,,,,,,,2,,,59,105
97176,note_on,96,0,2,,,,,,,,1,,,68,0
97176,note_on,96,0,1,,,,,,,,0,,,68,0
97176,note_on,96,0,6,,,,,,,,5,,,68,0
97176,note_on,0,0,6,,,,,,,,5,,,40,0
97176,note_on,0,0,6,,,,,,,,5,,,76,0
97176,note_on,96,0,3,,,,,,,,2,,,59,0
97176,note_on,96,0,4,,,,,,,,3,,,40,0
97176,note_on,96,0,5,,,,,,,,4,,,28,0
97200,note_on,24,0,3,,,,,,,,2,,,68,105
97200,note_on,0,0,6,,,,,,,,5,,,52,105
97200,note_on,24,0,5,,,,,,,,4,,,40,105
97200,note_on,24,0,6,,,,,,,,5,,,71,105
97200,note_on,24,0,2,,,,,,,,1,,,83,105
97200,note_on,24,0,4,,,,,,,,3,,,52,105
97200,note_on,24,0,1,,,,,,,,0,,,83,105
97200,note_on,0,0,6,,,,,,,,5,,,68,105
97248,note_on,48,0,2,,,,,,,,1,,,83,0
97248,note_on,48,0,1,,,,,,,,0,,,83,0
97260,note_on,12,0,2,,,,,,,,1,,,80,105
97260,note_on,12,0,1,,,,,,,,0,,,80,105
97296,note_on,0,0,6,,,,,,,,5,,,52,0
97296,note_on,96,0,6,,,,,,,,5,,,68,0
97296,note_on,96,0,4,,,,,,,,3,,,52,0
97296,note_on,96,0,5,,,,,,,,4,,,40,0
97296,note_on,96,0,3,,,,,,,,2,,,68,0
97308,note_on,48,0,1,,,,,,,,0,,,80,0
97308,note_on,48,0,2,,,,,,,,1,,,80,0
97320,note_on,24,0,4,,,,,,,,3,,,56,105
97320,note_on,24,0,6,,,,,,,,5,,,56,105
97320,note_on,12,0,2,,,,,,,,1,,,76,105
97320,note_on,12,0,1,,,,,,,,0,,,76,105
97320,note_on,0,0,6,,,,,,,,5,,,64,105
97320,note_on,24,0,5,,,,,,,,4,,,44,105
97320,note_on,24,0,3,,,,,,,,2,,,71,105
97368,note_on,48,0,2,,,,,,,,1,,,76,0
97368,note_on,48,0,1,,,,,,,,0,,,76,0
97380,note_on,12,0,1,,,,,,,,0,,,71,105
97380,note_on,12,0,2,,,,,,,,1,,,71,105
97392,note_on,72,0,6,,,,,,,,5,,,71,0
97416,note_on,96,0,5,,,,,,,,4,,,44,0
97416,note_on,96,0,4,,,,,,,,3,,,56,0
97416,note_on,24,0,6,,,,,,,,5,,,56,0
97416,note_on,96,0,3,,,,,,,,2,,,71,0
97428,note_on,48,0,2,,,,,,,,1,,,71,0
97428,note_on,48,0,1,,,,,,,,0,,,71,0
97440,note_on,24,0,6,,,,,,,,5,,,73,105
97440,note_on,24,0,5,,,,,,,,4,,,45,105
97440,note_on,12,0,2,,,,,,,,1,,,73,105
97440,note_on,24,0,3,,,,,,,,2,,,64,105
97440,note_on,12,0,1,,,,,,,,0,,,73,105
97440,note_on,24,0,4,,,,,,,,3,,,57,105
97440,note_on,0,0,6,,,,,,,,5,,,57,105
97536,note_on,96,0,6,,,,,,,,5,,,57,0
97536,note_on,96,0,5,,,,,,,,4,,,45,0
97536,note_on,96,0,4,,,,,,,,3,,,57,0
97560,note_on,24,0,4,,,,,,,,3,,,45,105
97560,note_on,24,0,5,,,,,,,,4,,,33,105
97560,note_on,24,0,6,,,,,,,,5,,,45,105
97632,note_on,192,0,1,,,,,,,,0,,,73,0
97632,note_on,192,0,3,,,,,,,,2,,,64,0
97632,note_on,72,0,6,,,,,,,,5,,,73,0
97632,note_on,0,0,6,,,,,,,,5,,,64,0
97632,note_on,192,0,2,,,,,,,,1,,,73,0
97656,note_on,96,0,4,,,,,,,,3,,,45,0
97656,note_on,24,0,6,,,,,,,,5,,,45,0
97656,note_on,96,0,5,,,,,,,,4,,,33,0
97680,note_on,48,0,3,,,,,,,,2,,,63,105
97680,note_on,48,0,1,,,,,,,,0,,,81,105
97680,note_on,48,0,2,,,,,,,,1,,,81,105
97680,note_on,24,0,6,,,,,,,,5,,,75,105
97680,note_on,0,0,6,,,,,,,,5,,,54,105
97680,note_on,24,0,4,,,,,,,,3,,,54,105
97680,note_on,24,0,5,,,,,,,,4,,,42,105
97728,note_on,48,0,1,,,,,,,,0,,,81,0
97728,note_on,48,0,2,,,,,,,,1,,,81,0
97740,note_on,12,0,1,,,,,,,,0,,,78,105
97740,note_on,12,0,2,,,,,,,,1,,,78,105
97776,note_on,96,0,6,,,,,,,,5,,,54,0
97776,note_on,96,0,4,,,,,,,,3,,,54,0
97776,note_on,96,0,5,,,,,,,,4,,,42,0
97788,note_on,48,0,1,,,,,,,,0,,,78,0
97788,note_on,48,0,2,,,,,,,,1,,,78,0
97800,note_on,24,0,5,,,,,,,,4,,,35,105
97800,note_on,12,0,1,,,,,,,,0,,,75,105
97800,note_on,24,0,6,,,,,,,,5,,,47,105
97800,note_on,12,0,2,,,,,,,,1,,,75,105
97800,note_on,24,0,4,,,,,,,,3,,,47,105
97848,note_on,48,0,2,,,,,,,,1,,,75,0
97848,note_on,48,0,1,,,,,,,,0,,,75,0
97860,note_on,12,0,2,,,,,,,,1,,,69,105
97860,note_on,12,0,1,,,,,,,,0,,,69,105
97872,note_on,192,0,3,,,,,,,,2,,,63,0
97872,note_on,72,0,6,,,,,,,,5,,,75,0
97896,note_on,24,0,6,,,,,,,,5,,,47,0
97896,note_on,96,0,5,,,,,,,,4,,,35,0
97896,note_on,96,0,4,,,,,,,,3,,,47,0
97908,note_on,48,0,2,,,,,,,,1,,,69,0
97908,note_on,48,0,1,,,,,,,,0,,,69,0
97920,note_on,24,0,4,,,,,,,,3,,,52,105
97920,note_on,0,0,6,,,,,,,,5,,,52,105
97920,note_on,24,0,6,,,,,,,,5,,,76,105
97920,note_on,48,0,3,,,,,,,,2,,,68,105
97920,note_on,24,0,5,,,,,,,,4,,,40,105
97920,note_on,0,0,6,,,,,,,,5,,,68,105
97920,note_on,12,0,1,,,,,,,,0,,,71,105
97920,note_on,12,0,2,,,,,,,,1,,,71,105
98016,note_on,96,0,6,,,,,,,,5,,,52,0
98016,note_on,96,0,5,,,,,,,,4,,,40,0
98016,note_on,96,0,4,,,,,,,,3,,,52,0
98040,note_on,24,0,6,,,,,,,,5,,,40,105
98040,note_on,24,0,5,,,,,,,,4,,,28,105
98040,note_on,24,0,4,,,,,,,,3,,,40,105
98112,note_on,192,0,2,,,,,,,,1,,,71,0
98112,note_on,192,0,3,,,,,,,,2,,,68,0
98112,note_on,192,0,1,,,,,,,,0,,,71,0
98136,note_on,96,0,4,,,,,,,,3,,,40,0
98136,note_on,96,0,5,,,,,,,,4,,,28,0
98136,note_on,96,0,6,,,,,,,,5,,,40,0
98160,note_on,24,0,6,,,,,,,,5,,,52,105
98160,note_on,24,0,4,,,,,,,,3,,,52,105
98160,note_on,24,0,5,,,,,,,,4,,,40,105
98160,note_on,48,0,1,,,,,,,,0,,,80,105
98160,note_on,48,0,2,,,,,,,,1,,,80,105
98160,note_on,48,0,3,,,,,,,,2,,,71,105
98208,note_on,48,0,2,,,,,,,,1,,,80,0
98208,note_on,48,0,6,,,,,,,,5,,,68,0
98208,note_on,0,0,6,,,,,,,,5,,,76,0
98208,note_on,48,0,1,,,,,,,,0,,,80,0
98220,note_on,12,0,1,,,,,,,,0,,,76,105
98220,note_on,12,0,2,,,,,,,,1,,,76,105
98256,note_on,48,0,6,,,,,,,,5,,,52,0
98256,note_on,96,0,5,,,,,,,,4,,,40,0
98256,note_on,96,0,3,,,,,,,,2,,,71,0
98256,note_on,96,0,4,,,,,,,,3,,,52,0
98268,note_on,48,0,2,,,,,,,,1,,,76,0
98268,note_on,48,0,1,,,,,,,,0,,,76,0
98280,note_on,12,0,2,,,,,,,,1,,,71,105
98280,note_on,12,0,1,,,,,,,,0,,,71,105
98280,note_on,24,0,5,,,,,,,,4,,,38,105
98280,note_on,24,0,6,,,,,,,,5,,,50,105
98280,note_on,0,0,6,,,,,,,,5,,,80,105
98280,note_on,0,0,6,,,,,,,,5,,,71,105
98280,note_on,24,0,3,,,,,,,,2,,,68,105
98280,note_on,24,0,4,,,,,,,,3,,,50,105
98328,note_on,48,0,1,,,,,,,,0,,,71,0
98328,note_on,48,0,2,,,,,,,,1,,,71,0
98340,note_on,12,0,2,,,,,,,,1,,,68,105
98340,note_on,12,0,1,,,,,,,,0,,,68,105
98376,note_on,96,0,6,,,,,,,,5,,,71,0
98376,note_on,96,0,4,,,,,,,,3,,,50,0
98376,note_on,96,0,5,,,,,,,,4,,,38,0
98376,note_on,96,0,3,,,,,,,,2,,,68,0
98376,note_on,0,0,6,,,,,,,,5,,,80,0
98376,note_on,0,0,6,,,,,,,,5,,,50,0
98388,note_on,48,0,2,,,,,,,,1,,,68,0
98388,note_on,48,0,1,,,,,,,,0,,,68,0
98400,note_on,12,0,2,,,,,,,,1,,,69,105
98400,note_on,24,0,4,,,,,,,,3,,,49,105
98400,note_on,24,0,3,,,,,,,,2,,,64,105
98400,note_on,24,0,5,,,,,,,,4,,,37,105
98400,note_on,0,0,6,,,,,,,,5,,,69,105
98400,note_on,0,0,6,,,,,,,,5,,,49,105
98400,note_on,12,0,1,,,,,,,,0,,,69,105
98400,note_on,24,0,6,,,,,,,,5,,,81,105
98496,note_on,0,0,6,,,,,,,,5,,,49,0
98496,note_on,96,0,5,,,,,,,,4,,,37,0
98496,note_on,96,0,6,,,,,,,,5,,,69,0
98496,note_on,96,0,4,,,,,,,,3,,,49,0
98520,note_on,24,0,6,,,,,,,,5,,,45,105
98520,note_on,0,0,6,,,,,,,,5,,,73,105
98520,note_on,24,0,4,,,,,,,,3,,,45,105
98520,note_on,24,0,5,,,,,,,,4,,,33,105
98592,note_on,192,0,1,,,,,,,,0,,,69,0
98592,note_on,192,0,2,,,,,,,,1,,,69,0
98592,note_on,72,0,6,,,,,,,,5,,,81,0
98592,note_on,192,0,3,,,,,,,,2,,,64,0
98616,note_on,96,0,5,,,,,,,,4,,,33,0
98616,note_on,24,0,6,,,,,,,,5,,,73,0
98616,note_on,96,0,4,,,,,,,,3,,,45,0
98616,note_on,0,0,6,,,,,,,,5,,,45,0
98640,note_on,0,0,6,,,,,,,,5,,,75,105
98640,note_on,0,0,6,,,,,,,,5,,,47,105
98640,note_on,48,0,2,,,,,,,,1,,,78,105
98640,note_on,24,0,4,,,,,,,,3,,,47,105
98640,note_on,24,0,6,,,,,,,,5,,,78,105
98640,note_on,48,0,1,,,,,,,,0,,,78,105
98640,note_on,24,0,5,,,,,,,,4,,,35,105
98640,note_on,48,0,3,,,,,,,,2,,,63,105
98688,note_on,48,0,1,,,,,,,,0,,,78,0
98688,note_on,48,0,2,,,,,,,,1,,,78,0
98700,note_on,12,0,1,,,,,,,,0,,,75,105
98700,note_on,12,0,2,,,,,,,,1,,,75,105
98736,note_on,96,0,4,,,,,,,,3,,,47,0
98736,note_on,96,0,6,,,,,,,,5,,,47,0
98736,note_on,0,0,6,,,,,,,,5,,,75,0
98736,note_on,96,0,5,,,,,,,,4,,,35,0
98748,note_on,48,0,1,,,,,,,,0,,,75,0
98748,note_on,48,0,2,,,,,,,,1,,,75,0
98760,note_on,24,0,5,,,,,,,,4,,,39,105
98760,note_on,12,0,1,,,,,,,,0,,,71,105
98760,note_on,24,0,4,,,,,,,,3,,,51,105
98760,note_on,0,0,6,,,,,,,,5,,,51,105
98760,note_on,24,0,6,,,,,,,,5,,,71,105
98760,note_on,12,0,2,,,,,,,,1,,,71,105
98808,note_on,48,0,1,,,,,,,,0,,,71,0
98808,note_on,48,0,2,,,,,,,,1,,,71,0
98820,note_on,12,0,2,,,,,,,,1,,,66,105
98820,note_on,12,0,1,,,,,,,,0,,,66,105
98832,note_on,72,0,6,,,,,,,,5,,,78,0
98832,note_on,192,0,3,,,,,,,,2,,,63,0
98856,note_on,96,0,4,,,,,,,,3,,,51,0
98856,note_on,96,0,5,,,,,,,,4,,,39,0
98856,note_on,24,0,6,,,,,,,,5,,,51,0
98856,note_on,0,0,6,,,,,,,,5,,,71,0
98868,note_on,48,0,1,,,,,,,,0,,,66,0
98868,note_on,48,0,2,,,,,,,,1,,,66,0
98880,note_on,12,0,1,,,,,,,,0,,,68,105
98880,note_on,12,0,2,,,,,,,,1,,,68,105
98880,note_on,48,0,3,,,,,,,,2,,,59,105
98880,note_on,24,0,6,,,,,,,,5,,,80,105
98880,note_on,0,0,6,,,,,,,,5,,,52,105
98880,note_on,0,0,6,,,,,,,,5,,,68,105
98880,note_on,24,0,5,,,,,,,,4,,,40,105
98880,note_on,24,0,4,,,,,,,,3,,,52,105
98976,note_on,96,0,5,,,,,,,,4,,,40,0
98976,note_on,96,0,4,,,,,,,,3,,,52,0
98976,note_on,96,0,6,,,,,,,,5,,,52,0
98976,note_on,96,0,1,,,,,,,,0,,,68,0
99000,note_on,24,0,4,,,,,,,,3,,,54,105
99000,note_on,24,0,6,,,,,,,,5,,,54,105
99000,note_on,24,0,1,,,,,,,,0,,,71,105
99000,note_on,24,0,5,,,,,,,,4,,,42,105
99072,note_on,0,0,6,,,,,,,,5,,,80,0
99072,note_on,192,0,2,,,,,,,,1,,,68,0
99072,note_on,192,0,3,,,,,,,,2,,,59,0
99072,note_on,72,0,6,,,,,,,,5,,,68,0
99096,note_on,24,0,6,,,,,,,,5,,,54,0
99096,note_on,96,0,5,,,,,,,,4,,,42,0
99096,note_on,96,0,1,,,,,,,,0,,,71,0
99096,note_on,96,0,4,,,,,,,,3,,,54,0
99120,note_on,24,0,5,,,,,,,,4,,,44,105
99120,note_on,24,0,6,,,,,,,,5,,,56,105
99120,note_on,24,0,4,,,,,,,,3,,,56,105
99120,note_on,24,0,1,,,,,,,,0,,,76,105
99216,note_on,96,0,5,,,,,,,,4,,,44,0
99216,note_on,96,0,6,,,,,,,,5,,,56,0
99216,note_on,96,0,4,,,,,,,,3,,,56,0
99240,note_on,24,0,4,,,,,,,,3,,,52,105
99240,note_on,168,0,2,,,,,,,,1,,,71,105
99240,note_on,168,0,3,,,,,,,,2,,,68,105
99240,note_on,24,0,5,,,,,,,,4,,,40,105
99240,note_on,0,0,6,,,,,,,,5,,,76,105
99240,note_on,24,0,6,,,,,,,,5,,,52,105
99336,note_on,96,0,2,,,,,,,,1,,,71,0
99336,note_on,96,0,5,,,,,,,,4,,,40,0
99336,note_on,96,0,6,,,,,,,,5,,,52,0
99336,note_on,96,0,3,,,,,,,,2,,,68,0
99336,note_on,96,0,4,,,,,,,,3,,,52,0
99360,note_on,24,0,2,,,,,,,,1,,,78,105
99360,note_on,24,0,5,,,,,,,,4,,,45,105
99360,note_on,24,0,3,,,,,,,,2,,,73,105
99360,note_on,24,0,4,,,,,,,,3,,,57,105
99360,note_on,24,0,6,,,,,,,,5,,,78,105
99360,note_on,0,0,6,,,,,,,,5,,,57,105
99456,note_on,0,0,6,,,,,,,,5,,,76,0
99456,note_on,96,0,6,,,,,,,,5,,,57,0
99456,note_on,96,0,4,,,,,,,,3,,,57,0
99456,note_on,336,0,1,,,,,,,,0,,,76,0
99456,note_on,96,0,5,,,,,,,,4,,,45,0
99456,note_on,96,0,3,,,,,,,,2,,,73,0
99480,note_on,24,0,5,,,,,,,,4,,,47,105
99480,note_on,0,0,6,,,,,,,,5,,,75,105
99480,note_on,24,0,6,,,,,,,,5,,,59,105
99480,note_on,24,0,1,,,,,,,,0,,,75,105
99480,note_on,24,0,4,,,,,,,,3,,,59,105
99480,note_on,24,0,3,,,,,,,,2,,,71,105
99576,note_on,96,0,4,,,,,,,,3,,,59,0
99576,note_on,0,0,6,,,,,,,,5,,,59,0
99576,note_on,96,0,5,,,,,,,,4,,,47,0
99576,note_on,96,0,6,,,,,,,,5,,,75,0
99576,note_on,96,0,1,,,,,,,,0,,,75,0
99576,note_on,96,0,3,,,,,,,,2,,,71,0
99600,note_on,0,0,6,,,,,,,,5,,,80,105
99600,note_on,24,0,1,,,,,,,,0,,,80,105
99600,note_on,24,0,6,,,,,,,,5,,,64,105
99600,note_on,24,0,5,,,,,,,,4,,,52,105
99600,note_on,24,0,4,,,,,,,,3,,,64,105
99648,note_on,48,0,6,,,,,,,,5,,,78,0
99648,note_on,288,0,2,,,,,,,,1,,,78,0
99696,note_on,48,0,6,,,,,,,,5,,,64,0
99696,note_on,96,0,4,,,,,,,,3,,,64,0
99696,note_on,96,0,5,,,,,,,,4,,,52,0
99720,note_on,24,0,6,,,,,,,,5,,,52,105
99720,note_on,0,0,6,,,,,,,,5,,,76,105
99720,note_on,144,0,3,,,,,,,,2,,,71,105
99720,note_on,24,0,5,,,,,,,,4,,,40,105
99720,note_on,72,0,2,,,,,,,,1,,,76,105
99720,note_on,24,0,4,,,,,,,,3,,,52,105
99816,note_on,96,0,2,,,,,,,,1,,,76,0
99816,note_on,96,0,3,,,,,,,,2,,,71,0
99816,note_on,96,0,5,,,,,,,,4,,,40,0
99816,note_on,96,0,6,,,,,,,,5,,,76,0
99816,note_on,0,0,6,,,,,,,,5,,,52,0
99816,note_on,96,0,4,,,,,,,,3,,,52,0
99840,note_on,24,0,6,,,,,,,,5,,,81,105
99840,note_on,24,0,5,,,,,,,,4,,,42,105
99840,note_on,24,0,4,,,,,,,,3,,,54,105
99840,note_on,0,0,6,,,,,,,,5,,,54,105
99840,note_on,24,0,3,,,,,,,,2,,,69,105
99840,note_on,24,0,2,,,,,,,,1,,,81,105
99936,note_on,336,0,1,,,,,,,,0,,,80,0
99936,note_on,96,0,4,,,,,,,,3,,,54,0
99936,note_on,0,0,6,,,,,,,,5,,,80,0
99936,note_on,96,0,6,,,,,,,,5,,,54,0
99936,note_on,96,0,5,,,,,,,,4,,,42,0
99960,note_on,24,0,1,,,,,,,,0,,,78,105
99960,note_on,24,0,6,,,,,,,,5,,,51,105
99960,note_on,24,0,4,,,,,,,,3,,,51,105
99960,note_on,0,0,6,,,,,,,,5,,,78,105
99960,note_on,24,0,5,,,,,,,,4,,,39,105
100032,note_on,192,0,3,,,,,,,,2,,,69,0
100056,note_on,96,0,1,,,,,,,,0,,,78,0
100056,note_on,96,0,4,,,,,,,,3,,,51,0
100056,note_on,0,0,6,,,,,,,,5,,,51,0
100056,note_on,96,0,6,,,,,,,,5,,,78,0
100056,note_on,96,0,5,,,,,,,,4,,,39,0
100080,note_on,0,0,6,,,,,,,,5,,,52,105
100080,note_on,24,0,6,,,,,,,,5,,,83,105
100080,note_on,24,0,1,,,,,,,,0,,,83,105
100080,note_on,24,0,4,,,,,,,,3,,,52,105
100080,note_on,24,0,5,,,,,,,,4,,,40,105
100128,note_on,48,0,6,,,,,,,,5,,,81,0
100128,note_on,288,0,2,,,,,,,,1,,,81,0
100176,note_on,96,0,4,,,,,,,,3,,,52,0
100176,note_on,48,0,6,,,,,,,,5,,,52,0
100176,note_on,96,0,5,,,,,,,,4,,,40,0
100200,note_on,168,0,3,,,,,,,,2,,,64,105
100200,note_on,24,0,6,,,,,,,,5,,,40,105
100200,note_on,72,0,2,,,,,,,,1,,,80,105
100200,note_on,0,0,6,,,,,,,,5,,,80,105
100200,note_on,24,0,5,,,,,,,,4,,,28,105
100200,note_on,24,0,4,,,,,,,,3,,,40,105
100296,note_on,96,0,6,,,,,,,,5,,,80,0
100296,note_on,96,0,3,,,,,,,,2,,,64,0
100296,note_on,96,0,5,,,,,,,,4,,,28,0
100296,note_on,96,0,2,,,,,,,,1,,,80,0
100296,note_on,0,0,6,,,,,,,,5,,,40,0
100296,note_on,96,0,4,,,,,,,,3,,,40,0
100320,note_on,0,0,6,,,,,,,,5,,,45,105
100320,note_on,24,0,6,,,,,,,,5,,,85,105
100320,note_on,24,0,3,,,,,,,,2,,,64,105
100320,note_on,24,0,4,,,,,,,,3,,,45,105
100320,note_on,24,0,5,,,,,,,,4,,,33,105
100320,note_on,24,0,2,,,,,,,,1,,,85,105
100416,note_on,96,0,5,,,,,,,,4,,,33,0
100416,note_on,0,0,6,,,,,,,,5,,,83,0
100416,note_on,96,0,6,,,,,,,,5,,,45,0
100416,note_on,96,0,4,,,,,,,,3,,,45,0
100416,note_on,336,0,1,,,,,,,,0,,,83,0
100416,note_on,96,0,3,,,,,,,,2,,,64,0
100440,note_on,24,0,5,,,,,,,,4,,,39,105
100440,note_on,24,0,3,,,,,,,,2,,,66,105
100440,note_on,24,0,1,,,,,,,,0,,,81,105
100440,note_on,24,0,4,,,,,,,,3,,,51,105
100440,note_on,0,0,6,,,,,,,,5,,,81,105
100440,note_on,24,0,6,,,,,,,,5,,,51,105
100512,note_on,192,0,2,,,,,,,,1,,,85,0
100512,note_on,72,0,6,,,,,,,,5,,,85,0
100536,note_on,96,0,5,,,,,,,,4,,,39,0
100536,note_on,96,0,3,,,,,,,,2,,,66,0
100536,note_on,24,0,6,,,,,,,,5,,,81,0
100536,note_on,0,0,6,,,,,,,,5,,,51,0
100536,note_on,96,0,1,,,,,,,,0,,,81,0
100536,note_on,96,0,4,,,,,,,,3,,,51,0
100560,note_on,24,0,3,,,,,,,,2,,,68,105
100560,note_on,24,0,1,,,,,,,,0,,,80,105
100560,note_on,48,0,2,,,,,,,,1,,,83,105
100560,note_on,24,0,5,,,,,,,,4,,,40,105
100560,note_on,0,0,6,,,,,,,,5,,,83,105
100560,note_on,0,0,6,,,,,,,,5,,,80,105
100560,note_on,24,0,6,,,,,,,,5,,,52,105
100560,note_on,24,0,4,,,,,,,,3,,,52,105
100656,note_on,96,0,6,,,,,,,,5,,,83,0
100656,note_on,96,0,4,,,,,,,,3,,,52,0
100656,note_on,96,0,2,,,,,,,,1,,,83,0
100656,note_on,0,0,6,,,,,,,,5,,,80,0
100656,note_on,96,0,5,,,,,,,,4,,,40,0
100656,note_on,96,0,1,,,,,,,,0,,,80,0
100656,note_on,96,0,3,,,,,,,,2,,,68,0
100656,note_on,0,0,6,,,,,,,,5,,,52,0
100680,note_on,24,0,3,,,,,,,,2,,,63,105
100680,note_on,24,0,1,,,,,,,,0,,,78,105
100680,note_on,24,0,5,,,,,,,,4,,,35,105
100680,note_on,24,0,2,,,,,,,,1,,,81,105
100680,note_on,24,0,4,,,,,,,,3,,,47,105
100680,note_on,24,0,6,,,,,,,,5,,,81,105
100680,note_on,0,0,6,,,,,,,,5,,,47,105
100680,note_on,0,0,6,,,,,,,,5,,,78,105
100776,note_on,96,0,4,,,,,,,,3,,,47,0
100776,note_on,96,0,2,,,,,,,,1,,,81,0
100776,note_on,96,0,3,,,,,,,,2,,,63,0
100776,note_on,96,0,5,,,,,,,,4,,,35,0
100776,note_on,0,0,6,,,,,,,,5,,,81,0
100776,note_on,0,0,6,,,,,,,,5,,,47,0
100776,note_on,96,0,6,,,,,,,,5,,,78,0
100776,note_on,96,0,1,,,,,,,,0,,,78,0
100800,note_on,0,0,6,,,,,,,,5,,,76,105
100800,note_on,24,0,4,,,,,,,,3,,,52,105
100800,note_on,0,0,6,,,,,,,,5,,,52,105
100800,note_on,24,0,3,,,,,,,,2,,,59,105
100800,note_on,24,0,5,,,,,,,,4,,,40,105
100800,note_on,24,0,1,,,,,,,,0,,,76,105
100800,note_on,24,0,2,,,,,,,,1,,,80,105
100800,note_on,24,0,6,,,,,,,,5,,,80,105
100848,note_on,48,0,1,,,,,,,,0,,,76,0
100848,note_on,48,0,2,,,,,,,,1,,,80,0
100860,note_on,12,0,1,,,,,,,,0,,,83,105
100860,note_on,12,0,2,,,,,,,,1,,,83,105
100896,note_on,96,0,6,,,,,,,,5,,,76,0
100896,note_on,0,0,6,,,,,,,,5,,,52,0
100896,note_on,96,0,4,,,,,,,,3,,,52,0
100896,note_on,0,0,6,,,,,,,,5,,,80,0
100896,note_on,96,0,5,,,,,,,,4,,,40,0
100908,note_on,48,0,1,,,,,,,,0,,,83,0
100908,note_on,48,0,2,,,,,,,,1,,,83,0
100920,note_on,12,0,1,,,,,,,,0,,,80,105
100920,note_on,12,0,2,,,,,,,,1,,,80,105
100920,note_on,24,0,5,,,,,,,,4,,,40,105
100920,note_on,24,0,4,,,,,,,,3,,,52,105
100920,note_on,24,0,6,,,,,,,,5,,,52,105
100968,note_on,48,0,2,,,,,,,,1,,,80,0
100968,note_on,48,0,1,,,,,,,,0,,,80,0
100980,note_on,12,0,2,,,,,,,,1,,,76,105
100980,note_on,12,0,1,,,,,,,,0,,,76,72
100992,note_on,192,0,3,,,,,,,,2,,,59,0
101016,note_on,96,0,6,,,,,,,,5,,,52,0
101016,note_on,96,0,5,,,,,,,,4,,,40,0
101016,note_on,96,0,4,,,,,,,,3,,,52,0
101028,note_on,48,0,1,,,,,,,,0,,,76,0
101028,note_on,48,0,2,,,,,,,,1,,,76,0
101040,note_on,48,0,3,,,,,,,,2,,,68,72
101040,note_on,24,0,4,,,,,,,,3,,,52,105
101040,note_on,12,0,2,,,,,,,,1,,,71,72
101040,note_on,24,0,5,,,,,,,,4,,,40,72
101040,note_on,0,0,6,,,,,,,,5,,,59,72
101040,note_on,0,0,6,,,,,,,,5,,,68,105
101040,note_on,24,0,6,,,,,,,,5,,,52,105
101040,note_on,12,0,1,,,,,,,,0,,,71,72
101136,note_on,96,0,5,,,,,,,,4,,,40,0
101136,note_on,96,0,4,,,,,,,,3,,,52,0
101136,note_on,96,0,6,,,,,,,,5,,,52,0
101160,note_on,24,0,6,,,,,,,,5,,,52,72
101160,note_on,24,0,5,,,,,,,,4,,,40,72
101160,note_on,24,0,4,,,,,,,,3,,,52,105
101232,note_on,72,0,6,,,,,,,,5,,,59,0
101232,note_on,0,0,6,,,,,,,,5,,,68,0
101232,note_on,192,0,2,,,,,,,,1,,,71,0
101232,note_on,192,0,1,,,,,,,,0,,,71,0
101232,note_on,192,0,3,,,,,,,,2,,,68,0
101256,note_on,96,0,5,,,,,,,,4,,,40,0
101256,note_on,96,0,4,,,,,,,,3,,,52,0
101256,note_on,24,0,6,,,,,,,,5,,,52,0
101280,note_on,24,0,4,,,,,,,,3,,,51,105
101280,note_on,48,0,3,,,,,,,,2,,,69,72
101280,note_on,48,0,2,,,,,,,,1,,,72,72
101280,note_on,24,0,6,,,,,,,,5,,,69,72
101280,note_on,0,0,6,,,,,,,,5,,,51,72
101280,note_on,0,0,6,,,,,,,,5,,,60,72
101280,note_on,24,0,5,,,,,,,,4,,,39,72
101280,note_on,48,0,1,,,,,,,,0,,,72,72
101376,note_on,96,0,5,,,,,,,,4,,,39,0
101376,note_on,96,0,6,,,,,,,,5,,,51,0
101376,note_on,96,0,4,,,,,,,,3,,,51,0
101400,note_on,24,0,6,,,,,,,,5,,,51,72
101400,note_on,24,0,4,,,,,,,,3,,,51,105
101400,note_on,24,0,5,,,,,,,,4,,,39,72
101472,note_on,192,0,2,,,,,,,,1,,,72,0
101472,note_on,192,0,3,,,,,,,,2,,,69,0
101472,note_on,192,0,1,,,,,,,,0,,,72,0
101472,note_on,72,0,6,,,,,,,,5,,,60,0
101472,note_on,0,0,6,,,,,,,,5,,,69,0
101496,note_on,96,0,4,,,,,,,,3,,,51,0
101496,note_on,24,0,6,,,,,,,,5,,,51,0
101496,note_on,96,0,5,,,,,,,,4,,,39,0
101520,note_on,48,0,1,,,,,,,,0,,,71,72
101520,note_on,0,0,6,,,,,,,,5,,,52,72
101520,note_on,24,0,5,,,,,,,,4,,,40,72
101520,note_on,48,0,3,,,,,,,,2,,,68,72
101520,note_on,48,0,2,,,,,,,,1,,,71,72
101520,note_on,24,0,4,,,,,,,,3,,,52,105
101520,note_on,24,0,6,,,,,,,,5,,,68,72
101520,note_on,0,0,6,,,,,,,,5,,,59,72
101616,note_on,96,0,2,,,,,,,,1,,,71,0
101616,note_on,96,0,6,,,,,,,,5,,,52,0
101616,note_on,0,0,6,,,,,,,,5,,,68,0
101616,note_on,96,0,4,,,,,,,,3,,,52,0
101616,note_on,96,0,5,,,,,,,,4,,,40,0
101616,note_on,96,0,1,,,,,,,,0,,,71,0
101616,note_on,96,0,3,,,,,,,,2,,,68,0
101640,note_on,24,0,2,,,,,,,,1,,,81,72
101640,note_on,24,0,6,,,,,,,,5,,,69,72
101640,note_on,24,0,3,,,,,,,,2,,,63,72
101640,note_on,0,0,6,,,,,,,,5,,,47,72
101640,note_on,24,0,4,,,,,,,,3,,,47,105
101640,note_on,24,0,5,,,,,,,,4,,,35,72
101640,note_on,24,0,1,,,,,,,,0,,,81,72
101712,note_on,72,0,6,,,,,,,,5,,,59,0
101736,note_on,96,0,1,,,,,,,,0,,,81,0
101736,note_on,96,0,2,,,,,,,,1,,,81,0
101736,note_on,0,0,6,,,,,,,,5,,,69,0
101736,note_on,96,0,3,,,,,,,,2,,,63,0
101736,note_on,96,0,4,,,,,,,,3,,,47,0
101736,note_on,24,0,6,,,,,,,,5,,,47,0
101736,note_on,96,0,5,,,,,,,,4,,,35,0
101760,note_on,24,0,6,,,,,,,,5,,,68,72
101760,note_on,24,0,3,,,,,,,,2,,,59,72
101760,note_on,0,0,6,,,,,,,,5,,,64,72
101760,note_on,0,0,6,,,,,,,,5,,,52,72
101760,note_on,24,0,5,,,,,,,,4,,,40,72
101760,note_on,24,0,1,,,,,,,,0,,,80,72
101760,note_on,24,0,4,,,,,,,,3,,,52,105
101760,note_on,24,0,2,,,,,,,,1,,,80,72
101856,note_on,96,0,1,,,,,,,,0,,,80,0
101856,note_on,96,0,2,,,,,,,,1,,,80,0
101856,note_on,96,0,6,,,,,,,,5,,,52,0
101856,note_on,96,0,4,,,,,,,,3,,,52,0
101856,note_on,96,0,5,,,,,,,,4,,,40,0
101856,note_on,0,0,6,,,,,,,,5,,,68,0
101880,note_on,24,0,4,,,,,,,,3,,,40,105
101880,note_on,24,0,5,,,,,,,,4,,,28,72
101880,note_on,24,0,2,,,,,,,,1,,,78,72
101880,note_on,24,0,6,,,,,,,,5,,,71,72
101880,note_on,0,0,6,,,,,,,,5,,,40,72
101880,note_on,24,0,1,,,,,,,,0,,,78,72
101928,note_on,48,0,2,,,,,,,,1,,,78,0
101928,note_on,48,0,1,,,,,,,,0,,,78,0
101940,note_on,12,0,1,,,,,,,,0,,,76,72
101940,note_on,12,0,2,,,,,,,,1,,,76,72
101952,note_on,192,0,3,,,,,,,,2,,,59,0
101952,note_on,72,0,6,,,,,,,,5,,,64,0
101976,note_on,96,0,5,,,,,,,,4,,,28,0
101976,note_on,24,0,6,,,,,,,,5,,,40,0
101976,note_on,0,0,6,,,,,,,,5,,,71,0
101976,note_on,96,0,4,,,,,,,,3,,,40,0
101988,note_on,48,0,1,,,,,,,,0,,,76,0
101988,note_on,48,0,2,,,,,,,,1,,,76,0
102000,note_on,12,0,1,,,,,,,,0,,,78,72
102000,note_on,0,0,6,,,,,,,,5,,,61,72
102000,note_on,24,0,5,,,,,,,,4,,,33,72
102000,note_on,24,0,6,,,,,,,,5,,,45,72
102000,note_on,24,0,4,,,,,,,,3,,,45,105
102000,note_on,12,0,2,,,,,,,,1,,,78,72
102000,note_on,48,0,3,,,,,,,,2,,,73,72
102000,note_on,0,0,6,,,,,,,,5,,,66,72
102096,note_on,96,0,6,,,,,,,,5,,,61,0
102096,note_on,0,0,6,,,,,,,,5,,,45,0
102096,note_on,96,0,1,,,,,,,,0,,,78,0
102096,note_on,96,0,3,,,,,,,,2,,,73,0
102096,note_on,96,0,5,,,,,,,,4,,,33,0
102096,note_on,96,0,4,,,,,,,,3,,,45,0
102096,note_on,96,0,2,,,,,,,,1,,,78,0
102120,note_on,24,0,1,,,,,,,,0,,,75,72
102120,note_on,24,0,5,,,,,,,,4,,,35,72
102120,note_on,24,0,4,,,,,,,,3,,,47,105
102120,note_on,24,0,6,,,,,,,,5,,,47,72
102120,note_on,24,0,3,,,,,,,,2,,,66,72
102120,note_on,24,0,2,,,,,,,,1,,,75,72
102120,note_on,0,0,6,,,,,,,,5,,,63,72
102192,note_on,72,0,6,,,,,,,,5,,,66,0
102216,note_on,96,0,2,,,,,,,,1,,,75,0
102216,note_on,96,0,1,,,,,,,,0,,,75,0
102216,note_on,96,0,3,,,,,,,,2,,,66,0
102216,note_on,96,0,4,,,,,,,,3,,,47,0
102216,note_on,0,0,6,,,,,,,,5,,,47,0
102216,note_on,24,0,6,,,,,,,,5,,,63,0
102216,note_on,96,0,5,,,,,,,,4,,,35,0
102240,note_on,24,0,1,,,,,,,,0,,,76,72
102240,note_on,24,0,4,,,,,,,,3,,,52,105
102240,note_on,24,0,3,,,,,,,,2,,,68,105
102240,note_on,24,0,2,,,,,,,,1,,,76,72
102240,note_on,24,0,5,,,,,,,,4,,,40,105
102240,note_on,24,0,6,,,,,,,,5,,,64,105
102240,note_on,0,0,6,,,,,,,,5,,,56,105
102240,note_on,0,0,6,,,,,,,,5,,,52,105
102288,note_on,48,0,2,,,,,,,,1,,,76,0
102288,note_on,48,0,1,,,,,,,,0,,,76,0
102300,note_on,12,0,1,,,,,,,,0,,,83,105
102300,note_on,12,0,2,,,,,,,,1,,,83,105
102336,note_on,96,0,5,,,,,,,,4,,,40,0
102336,note_on,96,0,4,,,,,,,,3,,,52,0
102336,note_on,96,0,6,,,,,,,,5,,,52,0
102348,note_on,48,0,2,,,,,,,,1,,,83,0
102348,note_on,48,0,1,,,,,,,,0,,,83,0
102360,note_on,24,0,6,,,,,,,,5,,,52,105
102360,note_on,12,0,1,,,,,,,,0,,,80,105
102360,note_on,24,0,4,,,,,,,,3,,,52,105
102360,note_on,24,0,5,,,,,,,,4,,,40,105
102360,note_on,12,0,2,,,,,,,,1,,,80,105
102408,note_on,48,0,2,,,,,,,,1,,,80,0
102408,note_on,48,0,1,,,,,,,,0,,,80,0
102420,note_on,12,0,2,,,,,,,,1,,,76,105
102420,note_on,12,0,1,,,,,,,,0,,,76,105
102432,note_on,0,0,6,,,,,,,,5,,,64,0
102432,note_on,192,0,3,,,,,,,,2,,,68,0
102432,note_on,72,0,6,,,,,,,,5,,,56,0
102456,note_on,24,0,6,,,,,,,,5,,,52,0
102456,note_on,96,0,4,,,,,,,,3,,,52,0
102456,note_on,96,0,5,,,,,,,,4,,,40,0
102468,note_on,48,0,1,,,,,,,,0,,,76,0
102468,note_on,48,0,2,,,,,,,,1,,,76,0
102480,note_on,12,0,1,,,,,,,,0,,,71,105
102480,note_on,0,0,6,,,,,,,,5,,,68,105
102480,note_on,0,0,6,,,,,,,,5,,,59,105
102480,note_on,48,0,3,,,,,,,,2,,,68,105
102480,note_on,24,0,6,,,,,,,,5,,,52,105
102480,note_on,24,0,4,,,,,,,,3,,,52,105
102480,note_on,24,0,5,,,,,,,,4,,,40,105
102480,note_on,12,0,2,,,,,,,,1,,,71,105
102576,note_on,96,0,5,,,,,,,,4,,,40,0
102576,note_on,96,0,6,,,,,,,,5,,,52,0
102576,note_on,96,0,4,,,,,,,,3,,,52,0
102600,note_on,24,0,5,,,,,,,,4,,,40,105
102600,note_on,24,0,6,,,,,,,,5,,,52,105
102600,note_on,24,0,4,,,,,,,,3,,,52,105
102672,note_on,192,0,2,,,,,,,,1,,,71,0
102672,note_on,72,0,6,,,,,,,,5,,,59,0
102672,note_on,192,0,3,,,,,,,,2,,,68,0
102672,note_on,192,0,1,,,,,,,,0,,,71,0
102672,note_on,0,0,6,,,,,,,,5,,,68,0
102696,note_on,24,0,6,,,,,,,,5,,,52,0
102696,note_on,96,0,5,,,,,,,,4,,,40,0
102696,note_on,96,0,4,,,,,,,,3,,,52,0
102720,note_on,48,0,3,,,,,,,,2,,,69,105
102720,note_on,0,0,6,,,,,,,,5,,,51,105
102720,note_on,24,0,6,,,,,,,,5,,,69,105
102720,note_on,24,0,5,,,,,,,,4,,,39,105
102720,note_on,24,0,4,,,,,,,,3,,,51,105
102720,note_on,48,0,1,,,,,,,,0,,,72,105
102720,note_on,48,0,2,,,,,,,,1,,,72,105
102720,note_on,0,0,6,,,,,,,,5,,,60,105
102816,note_on,96,0,5,,,,,,,,4,,,39,0
102816,note_on,96,0,4,,,,,,,,3,,,51,0
102816,note_on,96,0,6,,,,,,,,5,,,51,0
102840,note_on,24,0,5,,,,,,,,4,,,39,105
102840,note_on,24,0,6,,,,,,,,5,,,51,105
102840,note_on,24,0,4,,,,,,,,3,,,51,105
102912,note_on,192,0,3,,,,,,,,2,,,69,0
102912,note_on,72,0,6,,,,,,,,5,,,60,0
102912,note_on,0,0,6,,,,,,,,5,,,69,0
102912,note_on,192,0,2,,,,,,,,1,,,72,0
102912,note_on,192,0,1,,,,,,,,0,,,72,0
102936,note_on,96,0,4,,,,,,,,3,,,51,0
102936,note_on,24,0,6,,,,,,,,5,,,51,0
102936,note_on,96,0,5,,,,,,,,4,,,39,0
102960,note_on,48,0,3,,,,,,,,2,,,68,105
102960,note_on,48,0,2,,,,,,,,1,,,71,105
102960,note_on,48,0,1,,,,,,,,0,,,71,105
102960,note_on,24,0,4,,,,,,,,3,,,52,105
102960,note_on,24,0,6,,,,,,,,5,,,68,105
102960,note_on,0,0,6,,,,,,,,5,,,52,105
102960,note_on,0,0,6,,,,,,,,5,,,59,105
102960,note_on,24,0,5,,,,,,,,4,,,40,105
103056,note_on,96,0,2,,,,,,,,1,,,71,0
103056,note_on,96,0,6,,,,,,,,5,,,52,0
103056,note_on,96,0,5,,,,,,,,4,,,40,0
103056,note_on,0,0,6,,,,,,,,5,,,68,0
103056,note_on,96,0,1,,,,,,,,0,,,71,0
103056,note_on,96,0,4,,,,,,,,3,,,52,0
103056,note_on,96,0,3,,,,,,,,2,,,68,0
103080,note_on,24,0,5,,,,,,,,4,,,35,105
103080,note_on,0,0,6,,,,,,,,5,,,47,105
103080,note_on,24,0,4,,,,,,,,3,,,47,105
103080,note_on,24,0,6,,,,,,,,5,,,69,105
103080,note_on,24,0,1,,,,,,,,0,,,81,105
103080,note_on,24,0,2,,,,,,,,1,,,81,105
103080,note_on,24,0,3,,,,,,,,2,,,62,105
103152,note_on,72,0,6,,,,,,,,5,,,59,0
103176,note_on,0,0,6,,,,,,,,5,,,69,0
103176,note_on,96,0,2,,,,,,,,1,,,81,0
103176,note_on,96,0,1,,,,,,,,0,,,81,0
103176,note_on,24,0,6,,,,,,,,5,,,47,0
103176,note_on,96,0,3,,,,,,,,2,,,62,0
103176,note_on,96,0,4,,,,,,,,3,,,47,0
103176,note_on,96,0,5,,,,,,,,4,,,35,0
103200,note_on,24,0,1,,,,,,,,0,,,80,105
103200,note_on,0,0,6,,,,,,,,5,,,52,105
103200,note_on,0,0,6,,,,,,,,5,,,64,105
103200,note_on,24,0,3,,,,,,,,2,,,59,105
103200,note_on,24,0,6,,,,,,,,5,,,68,105
103200,note_on,24,0,5,,,,,,,,4,,,40,105
103200,note_on,24,0,2,,,,,,,,1,,,80,105
103200,note_on,24,0,4,,,,,,,,3,,,52,105
103296,note_on,96,0,5,,,,,,,,4,,,40,0
103296,note_on,96,0,4,,,,,,,,3,,,52,0
103296,note_on,0,0,6,,,,,,,,5,,,68,0
103296,note_on,96,0,1,,,,,,,,0,,,80,0
103296,note_on,96,0,6,,,,,,,,5,,,52,0
103296,note_on,96,0,2,,,,,,,,1,,,80,0
103320,note_on,24,0,1,,,,,,,,0,,,78,105
103320,note_on,24,0,4,,,,,,,,3,,,40,105
103320,note_on,24,0,2,,,,,,,,1,,,78,105
103320,note_on,24,0,5,,,,,,,,4,,,28,105
103320,note_on,0,0,6,,,,,,,,5,,,40,105
103320,note_on,24,0,6,,,,,,,,5,,,71,105
103368,note_on,48,0,1,,,,,,,,0,,,78,0
103368,note_on,48,0,2,,,,,,,,1,,,78,0
103380,note_on,12,0,2,,,,,,,,1,,,76,105
103380,note_on,12,0,1,,,,,,,,0,,,76,105
103392,note_on,192,0,3,,,,,,,,2,,,59,0
103392,note_on,72,0,6,,,,,,,,5,,,64,0
103416,note_on,24,0,6,,,,,,,,5,,,40,0
103416,note_on,0,0,6,,,,,,,,5,,,71,0
103416,note_on,96,0,4,,,,,,,,3,,,40,0
103416,note_on,96,0,5,,,,,,,,4,,,28,0
103428,note_on,48,0,1,,,,,,,,0,,,76,0
103428,note_on,48,0,2,,,,,,,,1,,,76,0
103440,note_on,12,0,1,,,,,,,,0,,,78,105
103440,note_on,12,0,2,,,,,,,,1,,,78,105
103440,note_on,0,0,6,,,,,,,,5,,,66,105
103440,note_on,0,0,6,,,,,,,,5,,,61,105
103440,note_on,24,0,5,,,,,,,,4,,,33,105
103440,note_on,24,0,4,,,,,,,,3,,,45,105
103440,note_on,24,0,6,,,,,,,,5,,,45,105
103440,note_on,48,0,3,,,,,,,,2,,,73,105
103536,note_on,96,0,6,,,,,,,,5,,,61,0
103536,note_on,0,0,6,,,,,,,,5,,,45,0
103536,note_on,96,0,1,,,,,,,,0,,,78,0
103536,note_on,96,0,2,,,,,,,,1,,,78,0
103536,note_on,96,0,5,,,,,,,,4,,,33,0
103536,note_on,96,0,4,,,,,,,,3,,,45,0
103536,note_on,96,0,3,,,,,,,,2,,,73,0
103560,note_on,24,0,3,,,,,,,,2,,,66,105
103560,note_on,24,0,1,,,,,,,,0,,,75,105
103560,note_on,24,0,2,,,,,,,,1,,,75,105
103560,note_on,24,0,5,,,,,,,,4,,,35,105
103560,note_on,0,0,6,,,,,,,,5,,,63,105
103560,note_on,24,0,6,,,,,,,,5,,,47,105
103560,note_on,24,0,4,,,,,,,,3,,,47,105
103632,note_on,72,0,6,,,,,,,,5,,,66,0
103656,note_on,96,0,2,,,,,,,,1,,,75,0
103656,note_on,96,0,1,,,,,,,,0,,,75,0
103656,note_on,96,0,5,,,,,,,,4,,,35,0
103656,note_on,24,0,6,,,,,,,,5,,,63,0
103656,note_on,96,0,4,,,,,,,,3,,,47,0
103656,note_on,0,0,6,,,,,,,,5,,,47,0
103656,note_on,96,0,3,,,,,,,,2,,,66,0
103680,note_on,24,0,3,,,,,,,,2,,,68,72
103680,note_on,24,0,1,,,,,,,,0,,,76,105
103680,note_on,24,0,6,,,,,,,,5,,,64,105
103680,note_on,0,0,6,,,,,,,,5,,,40,105
103680,note_on,24,0,2,,,,,,,,1,,,76,105
103680,note_on,24,0,4,,,,,,,,3,,,40,105
103680,note_on,24,0,5,,,,,,,,4,,,28,105
103776,note_on,96,0,1,,,,,,,,0,,,76,0
103776,note_on,96,0,2,,,,,,,,1,,,76,0
103800,note_on,24,0,1,,,,,,,,0,,,68,105
103800,note_on,24,0,2,,,,,,,,1,,,64,105
103848,note_on,48,0,1,,,,,,,,0,,,68,0
103848,note_on,48,0,2,,,,,,,,1,,,64,0
103860,note_on,12,0,2,,,,,,,,1,,,66,72
103860,note_on,12,0,1,,,,,,,,0,,,69,105
103872,note_on,192,0,4,,,,,,,,3,,,40,0
103872,note_on,0,0,6,,,,,,,,5,,,64,0
103872,note_on,192,0,6,,,,,,,,5,,,40,0
103872,note_on,192,0,3,,,,,,,,2,,,68,0
103872,note_on,192,0,5,,,,,,,,4,,,28,0
103908,note_on,48,0,1,,,,,,,,0,,,69,0
103908,note_on,48,0,2,,,,,,,,1,,,66,0
103920,note_on,12,0,2,,,,,,,,1,,,68,72
103920,note_on,12,0,1,,,,,,,,0,,,71,105
104040,note_on,168,0,5,,,,,,,,4,,,44,72
104040,note_on,168,0,6,,,,,,,,5,,,71,72
104040,note_on,168,0,4,,,,,,,,3,,,56,72
104040,note_on,0,0,6,,,,,,,,5,,,56,72
104040,note_on,168,0,3,,,,,,,,2,,,59,72
104088,note_on,48,0,6,,,,,,,,5,,,56,0
104088,note_on,48,0,5,,,,,,,,4,,,44,0
104088,note_on,48,0,4,,,,,,,,3,,,56,0
104088,note_on,48,0,3,,,,,,,,2,,,59,0
104088,note_on,0,0,6,,,,,,,,5,,,71,0
104100,note_on,0,0,6,,,,,,,,5,,,54,72
104100,note_on,12,0,5,,,,,,,,4,,,42,72
104100,note_on,12,0,4,,,,,,,,3,,,54,72
104100,note_on,12,0,3,,,,,,,,2,,,57,72
104100,note_on,12,0,6,,,,,,,,5,,,69,72
104148,note_on,48,0,6,,,,,,,,5,,,54,0
104148,note_on,48,0,5,,,,,,,,4,,,42,0
104148,note_on,0,0,6,,,,,,,,5,,,69,0
104148,note_on,48,0,3,,,,,,,,2,,,57,0
104148,note_on,48,0,4,,,,,,,,3,,,54,0
104160,note_on,12,0,3,,,,,,,,2,,,56,72
104160,note_on,12,0,5,,,,,,,,4,,,40,72
104160,note_on,12,0,4,,,,,,,,3,,,52,72
104160,note_on,12,0,6,,,,,,,,5,,,52,72
104160,note_on,0,0,6,,,,,,,,5,,,68,72
104256,note_on,96,0,4,,,,,,,,3,,,52,0
104256,note_on,336,0,2,,,,,,,,1,,,68,0
104256,note_on,336,0,1,,,,,,,,0,,,71,0
104256,note_on,96,0,6,,,,,,,,5,,,52,0
104256,note_on,96,0,5,,,,,,,,4,,,40,0
104280,note_on,24,0,1,,,,,,,,0,,,68,105
104280,note_on,24,0,2,,,,,,,,1,,,64,72
104280,note_on,24,0,5,,,,,,,,4,,,28,72
104280,note_on,24,0,6,,,,,,,,5,,,40,72
104280,note_on,24,0,4,,,,,,,,3,,,40,72
104328,note_on,48,0,2,,,,,,,,1,,,64,0
104328,note_on,48,0,1,,,,,,,,0,,,68,0
104340,note_on,12,0,2,,,,,,,,1,,,66,72
104340,note_on,12,0,1,,,,,,,,0,,,69,105
104352,note_on,72,0,6,,,,,,,,5,,,68,0
104352,note_on,192,0,3,,,,,,,,2,,,56,0
104376,note_on,96,0,4,,,,,,,,3,,,40,0
104376,note_on,96,0,5,,,,,,,,4,,,28,0
104376,note_on,24,0,6,,,,,,,,5,,,40,0
104388,note_on,48,0,2,,,,,,,,1,,,66,0
104388,note_on,48,0,1,,,,,,,,0,,,69,0
104400,note_on,12,0,1,,,,,,,,0,,,71,105
104400,note_on,12,0,2,,,,,,,,1,,,71,72
104520,note_on,168,0,3,,,,,,,,2,,,59,72
104520,note_on,144,0,5,,,,,,,,4,,,44,72
104520,note_on,144,0,6,,,,,,,,5,,,56,72
104520,note_on,0,0,6,,,,,,,,5,,,71,72
104520,note_on,144,0,4,,,,,,,,3,,,56,72
104568,note_on,48,0,4,,,,,,,,3,,,56,0
104568,note_on,48,0,6,,,,,,,,5,,,71,0
104568,note_on,0,0,6,,,,,,,,5,,,56,0
104568,note_on,48,0,5,,,,,,,,4,,,44,0
104568,note_on,48,0,3,,,,,,,,2,,,59,0
104580,note_on,12,0,5,,,,,,,,4,,,42,72
104580,note_on,0,0,6,,,,,,,,5,,,54,72
104580,note_on,12,0,3,,,,,,,,2,,,57,72
104580,note_on,12,0,6,,,,,,,,5,,,69,72
104580,note_on,12,0,4,,,,,,,,3,,,54,72
104628,note_on,48,0,5,,,,,,,,4,,,42,0
104628,note_on,48,0,6,,,,,,,,5,,,54,0
104628,note_on,0,0,6,,,,,,,,5,,,69,0
104628,note_on,48,0,4,,,,,,,,3,,,54,0
104628,note_on,48,0,3,,,,,,,,2,,,57,0
104640,note_on,12,0,4,,,,,,,,3,,,52,72
104640,note_on,12,0,5,,,,,,,,4,,,40,72
104640,note_on,0,0,6,,,,,,,,5,,,59,72
104640,note_on,0,0,6,,,,,,,,5,,,52,72
104640,note_on,12,0,3,,,,,,,,2,,,56,72
104640,note_on,12,0,6,,,,,,,,5,,,68,72
104688,note_on,288,0,1,,,,,,,,0,,,71,0
104688,note_on,288,0,2,,,,,,,,1,,,71,0
104700,note_on,12,0,1,,,,,,,,0,,,83,105
104700,note_on,12,0,2,,,,,,,,1,,,83,72
104736,note_on,96,0,6,,,,,,,,5,,,52,0
104736,note_on,96,0,5,,,,,,,,4,,,40,0
104736,note_on,96,0,4,,,,,,,,3,,,52,0
104748,note_on,48,0,1,,,,,,,,0,,,83,0
104748,note_on,48,0,2,,,,,,,,1,,,83,0
104760,note_on,24,0,4,,,,,,,,3,,,40,72
104760,note_on,24,0,5,,,,,,,,4,,,28,72
104760,note_on,24,0,6,,,,,,,,5,,,40,72
104760,note_on,12,0,1,,,,,,,,0,,,80,105
104760,note_on,12,0,2,,,,,,,,1,,,80,72
104808,note_on,48,0,1,,,,,,,,0,,,80,0
104808,note_on,48,0,2,,,,,,,,1,,,80,0
104820,note_on,12,0,1,,,,,,,,0,,,76,105
104820,note_on,12,0,2,,,,,,,,1,,,76,72
104832,note_on,0,0,6,,,,,,,,5,,,68,0
104832,note_on,72,0,6,,,,,,,,5,,,59,0
104832,note_on,192,0,3,,,,,,,,2,,,56,0
104856,note_on,96,0,4,,,,,,,,3,,,40,0
104856,note_on,24,0,6,,,,,,,,5,,,40,0
104856,note_on,96,0,5,,,,,,,,4,,,28,0
104868,note_on,48,0,2,,,,,,,,1,,,76,0
104868,note_on,48,0,1,,,,,,,,0,,,76,0
104880,note_on,24,0,4,,,,,,,,3,,,52,72
104880,note_on,12,0,2,,,,,,,,1,,,71,105
104880,note_on,0,0,6,,,,,,,,5,,,68,72
104880,note_on,48,0,3,,,,,,,,2,,,68,105
104880,note_on,12,0,1,,,,,,,,0,,,71,105
104880,note_on,24,0,5,,,,,,,,4,,,40,105
104880,note_on,24,0,6,,,,,,,,5,,,52,72
104976,note_on,96,0,5,,,,,,,,4,,,40,0
104976,note_on,96,0,4,,,,,,,,3,,,52,0
104976,note_on,96,0,6,,,,,,,,5,,,52,0
105000,note_on,24,0,4,,,,,,,,3,,,52,72
105000,note_on,24,0,5,,,,,,,,4,,,40,105
105000,note_on,24,0,6,,,,,,,,5,,,52,105
105072,note_on,192,0,2,,,,,,,,1,,,71,0
105072,note_on,72,0,6,,,,,,,,5,,,68,0
105072,note_on,192,0,3,,,,,,,,2,,,68,0
105072,note_on,192,0,1,,,,,,,,0,,,71,0
105096,note_on,96,0,4,,,,,,,,3,,,52,0
105096,note_on,96,0,5,,,,,,,,4,,,40,0
105096,note_on,24,0,6,,,,,,,,5,,,52,0
105120,note_on,24,0,4,,,,,,,,3,,,51,72
105120,note_on,24,0,5,,,,,,,,4,,,39,105
105120,note_on,0,0,6,,,,,,,,5,,,51,105
105120,note_on,0,0,6,,,,,,,,5,,,69,105
105120,note_on,48,0,3,,,,,,,,2,,,69,105
105120,note_on,48,0,1,,,,,,,,0,,,72,105
105120,note_on,24,0,6,,,,,,,,5,,,60,105
105120,note_on,48,0,2,,,,,,,,1,,,72,105
105216,note_on,96,0,6,,,,,,,,5,,,51,0
105216,note_on,96,0,5,,,,,,,,4,,,39,0
105216,note_on,96,0,4,,,,,,,,3,,,51,0
105240,note_on,24,0,5,,,,,,,,4,,,39,105
105240,note_on,24,0,4,,,,,,,,3,,,51,72
105240,note_on,24,0,6,,,,,,,,5,,,51,105
105312,note_on,192,0,1,,,,,,,,0,,,72,0
105312,note_on,192,0,2,,,,,,,,1,,,72,0
105312,note_on,192,0,3,,,,,,,,2,,,69,0
105312,note_on,0,0,6,,,,,,,,5,,,60,0
105312,note_on,72,0,6,,,,,,,,5,,,69,0
105336,note_on,24,0,6,,,,,,,,5,,,51,0
105336,note_on,96,0,5,,,,,,,,4,,,39,0
105336,note_on,96,0,4,,,,,,,,3,,,51,0
105360,note_on,24,0,6,,,,,,,,5,,,68,105
105360,note_on,48,0,3,,,,,,,,2,,,68,105
105360,note_on,0,0,6,,,,,,,,5,,,59,105
105360,note_on,48,0,2,,,,,,,,1,,,71,105
105360,note_on,0,0,6,,,,,,,,5,,,52,105
105360,note_on,24,0,5,,,,,,,,4,,,40,105
105360,note_on,24,0,4,,,,,,,,3,,,52,72
105360,note_on,48,0,1,,,,,,,,0,,,71,105
105456,note_on,96,0,4,,,,,,,,3,,,52,0
105456,note_on,96,0,1,,,,,,,,0,,,71,0
105456,note_on,96,0,5,,,,,,,,4,,,40,0
105456,note_on,96,0,2,,,,,,,,1,,,71,0
105456,note_on,0,0,6,,,,,,,,5,,,68,0
105456,note_on,96,0,6,,,,,,,,5,,,52,0
105456,note_on,96,0,3,,,,,,,,2,,,68,0
105480,note_on,24,0,6,,,,,,,,5,,,69,105
105480,note_on,24,0,3,,,,,,,,2,,,62,105
105480,note_on,0,0,6,,,,,,,,5,,,47,105
105480,note_on,24,0,4,,,,,,,,3,,,47,72
105480,note_on,24,0,2,,,,,,,,1,,,81,105
105480,note_on,24,0,5,,,,,,,,4,,,35,105
105480,note_on,24,0,1,,,,,,,,0,,,81,105
105552,note_on,72,0,6,,,,,,,,5,,,59,0
105576,note_on,96,0,3,,,,,,,,2,,,62,0
105576,note_on,24,0,6,,,,,,,,5,,,47,0
105576,note_on,0,0,6,,,,,,,,5,,,69,0
105576,note_on,96,0,1,,,,,,,,0,,,81,0
105576,note_on,96,0,4,,,,,,,,3,,,47,0
105576,note_on,96,0,5,,,,,,,,4,,,35,0
105576,note_on,96,0,2,,,,,,,,1,,,81,0
105600,note_on,24,0,2,,,,,,,,1,,,80,105
105600,note_on,24,0,6,,,,,,,,5,,,64,105
105600,note_on,0,0,6,,,,,,,,5,,,52,105
105600,note_on,0,0,6,,,,,,,,5,,,68,105
105600,note_on,24,0,4,,,,,,,,3,,,52,72
105600,note_on,24,0,3,,,,,,,,2,,,59,105
105600,note_on,24,0,1,,,,,,,,0,,,80,105
105600,note_on,24,0,5,,,,,,,,4,,,40,105
105696,note_on,96,0,4,,,,,,,,3,,,52,0
105696,note_on,96,0,1,,,,,,,,0,,,80,0
105696,note_on,96,0,5,,,,,,,,4,,,40,0
105696,note_on,96,0,2,,,,,,,,1,,,80,0
105696,note_on,0,0,6,,,,,,,,5,,,52,0
105696,note_on,96,0,6,,,,,,,,5,,,68,0
105720,note_on,24,0,2,,,,,,,,1,,,78,105
105720,note_on,0,0,6,,,,,,,,5,,,40,105
105720,note_on,24,0,1,,,,,,,,0,,,78,105
105720,note_on,24,0,6,,,,,,,,5,,,71,105
105720,note_on,24,0,4,,,,,,,,3,,,40,72
105720,note_on,24,0,5,,,,,,,,4,,,28,105
105768,note_on,48,0,2,,,,,,,,1,,,78,0
105768,note_on,48,0,1,,,,,,,,0,,,78,0
105780,note_on,12,0,2,,,,,,,,1,,,76,105
105780,note_on,12,0,1,,,,,,,,0,,,76,105
105792,note_on,72,0,6,,,,,,,,5,,,64,0
105792,note_on,192,0,3,,,,,,,,2,,,59,0
105816,note_on,24,0,6,,,,,,,,5,,,40,0
105816,note_on,0,0,6,,,,,,,,5,,,71,0
105816,note_on,96,0,4,,,,,,,,3,,,40,0
105816,note_on,96,0,5,,,,,,,,4,,,28,0
105828,note_on,48,0,2,,,,,,,,1,,,76,0
105828,note_on,48,0,1,,,,,,,,0,,,76,0
105840,note_on,12,0,1,,,,,,,,0,,,78,105
105840,note_on,48,0,3,,,,,,,,2,,,73,105
105840,note_on,24,0,4,,,,,,,,3,,,45,72
105840,note_on,24,0,5,,,,,,,,4,,,33,105
105840,note_on,0,0,6,,,,,,,,5,,,61,105
105840,note_on,0,0,6,,,,,,,,5,,,66,105
105840,note_on,24,0,6,,,,,,,,5,,,45,105
105840,note_on,12,0,2,,,,,,,,1,,,78,105
105936,note_on,96,0,3,,,,,,,,2,,,73,0
105936,note_on,96,0,2,,,,,,,,1,,,78,0
105936,note_on,96,0,1,,,,,,,,0,,,78,0
105936,note_on,0,0,6,,,,,,,,5,,,45,0
105936,note_on,96,0,6,,,,,,,,5,,,61,0
105936,note_on,96,0,4,,,,,,,,3,,,45,0
105936,note_on,96,0,5,,,,,,,,4,,,33,0
105960,note_on,24,0,6,,,,,,,,5,,,47,105
105960,note_on,24,0,2,,,,,,,,1,,,75,105
105960,note_on,0,0,6,,,,,,,,5,,,63,105
105960,note_on,24,0,3,,,,,,,,2,,,66,105
105960,note_on,24,0,5,,,,,,,,4,,,35,105
105960,note_on,24,0,4,,,,,,,,3,,,47,72
105960,note_on,24,0,1,,,,,,,,0,,,75,105
106032,note_on,72,0,6,,,,,,,,5,,,66,0
106056,note_on,96,0,2,,,,,,,,1,,,75,0
106056,note_on,96,0,1,,,,,,,,0,,,75,0
106056,note_on,96,0,4,,,,,,,,3,,,47,0
106056,note_on,96,0,5,,,,,,,,4,,,35,0
106056,note_on,96,0,3,,,,,,,,2,,,66,0
106056,note_on,0,0,6,,,,,,,,5,,,47,0
106056,note_on,24,0,6,,,,,,,,5,,,63,0
106080,note_on,24,0,4,,,,,,,,3,,,40,72
106080,note_on,24,0,5,,,,,,,,4,,,28,105
106080,note_on,0,0,6,,,,,,,,5,,,44,105
106080,note_on,0,0,6,,,,,,,,5,,,64,105
106080,note_on,24,0,6,,,,,,,,5,,,56,105
106080,note_on,24,0,2,,,,,,,,1,,,76,105
106080,note_on,24,0,3,,,,,,,,2,,,68,105
106080,note_on,24,0,1,,,,,,,,0,,,76,105
106368,note_on,288,0,3,,,,,,,,2,,,68,0
106368,note_on,288,0,4,,,,,,,,3,,,40,0
106368,note_on,288,0,6,,,,,,,,5,,,44,0
106368,note_on,288,0,2,,,,,,,,1,,,76,0
106368,note_on,288,0,5,,,,,,,,4,,,28,0
106368,note_on,288,0,1,,,,,,,,0,,,76,0
106368,note_on,0,0,6,,,,,,,,5,,,56,0
106368,note_on,0,0,6,,,,,,,,5,,,64,0
106440,note_on,72,0,1,,,,,,,,0,,,69,105
106440,note_on,72,0,4,,,,,,,,3,,,45,105
106440,note_on,72,0,6,,,,,,,,5,,,45,105
106440,note_on,72,0,5,,,,,,,,4,,,33,105
106440,note_on,72,0,2,,,,,,,,1,,,69,105
106440,note_on,72,0,3,,,,,,,,2,,,64,105
106488,note_on,48,0,2,,,,,,,,1,,,69,0
106488,note_on,48,0,1,,,,,,,,0,,,69,0
106500,note_on,12,0,2,,,,,,,,1,,,68,105
106500,note_on,12,0,1,,,,,,,,0,,,68,105
106536,note_on,96,0,5,,,,,,,,4,,,33,0
106536,note_on,96,0,4,,,,,,,,3,,,45,0
106536,note_on,96,0,6,,,,,,,,5,,,45,0
106536,note_on,96,0,3,,,,,,,,2,,,64,0
106548,note_on,48,0,2,,,,,,,,1,,,68,0
106548,note_on,48,0,1,,,,,,,,0,,,68,0
106560,note_on,12,0,2,,,,,,,,1,,,69,105
106560,note_on,24,0,5,,,,,,,,4,,,33,105
106560,note_on,24,0,6,,,,,,,,5,,,73,105
106560,note_on,24,0,3,,,,,,,,2,,,64,105
106560,note_on,12,0,1,,,,,,,,0,,,69,105
106560,note_on,0,0,6,,,,,,,,5,,,45,105
106560,note_on,24,0,4,,,,,,,,3,,,45,105
106560,note_on,0,0,6,,,,,,,,5,,,69,105
106656,note_on,96,0,1,,,,,,,,0,,,69,0
106656,note_on,96,0,3,,,,,,,,2,,,64,0
106656,note_on,96,0,4,,,,,,,,3,,,45,0
106656,note_on,96,0,6,,,,,,,,5,,,69,0
106656,note_on,0,0,6,,,,,,,,5,,,45,0
106656,note_on,0,0,6,,,,,,,,5,,,73,0
106656,note_on,96,0,2,,,,,,,,1,,,69,0
106656,note_on,96,0,5,,,,,,,,4,,,33,0
106680,note_on,0,0,6,,,,,,,,5,,,52,105
106680,note_on,24,0,1,,,,,,,,0,,,71,105
106680,note_on,24,0,2,,,,,,,,1,,,71,105
106680,note_on,24,0,3,,,,,,,,2,,,68,105
106680,note_on,24,0,5,,,,,,,,4,,,40,105
106680,note_on,0,0,6,,,,,,,,5,,,68,105
106680,note_on,24,0,4,,,,,,,,3,,,52,105
106680,note_on,24,0,6,,,,,,,,5,,,71,105
106776,note_on,96,0,5,,,,,,,,4,,,40,0
106776,note_on,96,0,6,,,,,,,,5,,,68,0
106776,note_on,0,0,6,,,,,,,,5,,,52,0
106776,note_on,0,0,6,,,,,,,,5,,,71,0
106776,note_on,96,0,3,,,,,,,,2,,,68,0
106776,note_on,96,0,2,,,,,,,,1,,,71,0
106776,note_on,96,0,1,,,,,,,,0,,,71,0
106776,note_on,96,0,4,,,,,,,,3,,,52,0
106800,note_on,24,0,5,,,,,,,,4,,,45,105
106800,note_on,24,0,6,,,,,,,,5,,,69,105
106800,note_on,24,0,2,,,,,,,,1,,,73,105
106800,note_on,0,0,6,,,,,,,,5,,,57,105
106800,note_on,24,0,4,,,,,,,,3,,,57,105
106800,note_on,24,0,1,,,,,,,,0,,,73,105
106800,note_on,0,0,6,,,,,,,,5,,,64,105
106800,note_on,24,0,3,,,,,,,,2,,,64,105
106896,note_on,96,0,1,,,,,,,,0,,,73,0
106896,note_on,96,0,6,,,,,,,,5,,,57,0
106896,note_on,96,0,3,,,,,,,,2,,,64,0
106896,note_on,96,0,2,,,,,,,,1,,,73,0
106896,note_on,96,0,5,,,,,,,,4,,,45,0
106896,note_on,96,0,4,,,,,,,,3,,,57,0
106896,note_on,0,0,6,,,,,,,,5,,,69,0
106896,note_on,0,0,6,,,,,,,,5,,,64,0
106920,note_on,24,0,1,,,,,,,,0,,,74,105
106920,note_on,24,0,6,,,,,,,,5,,,71,105
106920,note_on,0,0,6,,,,,,,,5,,,68,105
106920,note_on,24,0,2,,,,,,,,1,,,74,105
106920,note_on,24,0,3,,,,,,,,2,,,68,105
106920,note_on,0,0,6,,,,,,,,5,,,52,105
106920,note_on,24,0,4,,,,,,,,3,,,52,105
106920,note_on,24,0,5,,,,,,,,4,,,40,105
107016,note_on,0,0,6,,,,,,,,5,,,52,0
107016,note_on,96,0,6,,,,,,,,5,,,68,0
107016,note_on,96,0,1,,,,,,,,0,,,74,0
107016,note_on,96,0,4,,,,,,,,3,,,52,0
107016,note_on,0,0,6,,,,,,,,5,,,71,0
107016,note_on,96,0,2,,,,,,,,1,,,74,0
107016,note_on,96,0,3,,,,,,,,2,,,68,0
107016,note_on,96,0,5,,,,,,,,4,,,40,0
107040,note_on,0,0,6,,,,,,,,5,,,69,105
107040,note_on,24,0,1,,,,,,,,0,,,76,105
107040,note_on,0,0,6,,,,,,,,5,,,45,105
107040,note_on,24,0,3,,,,,,,,2,,,61,105
107040,note_on,24,0,4,,,,,,,,3,,,45,105
107040,note_on,24,0,2,,,,,,,,1,,,76,105
107040,note_on,24,0,6,,,,,,,,5,,,73,105
107040,note_on,24,0,5,,,,,,,,4,,,33,105
107136,note_on,96,0,6,,,,,,,,5,,,69,0
107136,note_on,0,0,6,,,,,,,,5,,,45,0
107136,note_on,0,0,6,,,,,,,,5,,,73,0
107136,note_on,96,0,5,,,,,,,,4,,,33,0
107136,note_on,96,0,2,,,,,,,,1,,,76,0
107136,note_on,96,0,4,,,,,,,,3,,,45,0
107136,note_on,96,0,1,,,,,,,,0,,,76,0
107136,note_on,96,0,3,,,,,,,,2,,,61,0
107160,note_on,24,0,3,,,,,,,,2,,,64,105
107160,note_on,24,0,4,,,,,,,,3,,,61,105
107160,note_on,24,0,6,,,,,,,,5,,,69,105
107160,note_on,0,0,6,,,,,,,,5,,,61,105
107160,note_on,24,0,2,,,,,,,,1,,,81,105
107160,note_on,0,0,6,,,,,,,,5,,,64,105
107160,note_on,24,0,1,,,,,,,,0,,,81,105
107160,note_on,24,0,5,,,,,,,,4,,,49,105
107256,note_on,96,0,3,,,,,,,,2,,,64,0
107256,note_on,0,0,6,,,,,,,,5,,,61,0
107256,note_on,96,0,6,,,,,,,,5,,,64,0
107256,note_on,96,0,4,,,,,,,,3,,,61,0
107256,note_on,96,0,5,,,,,,,,4,,,49,0
107280,note_on,24,0,3,,,,,,,,2,,,66,105
107280,note_on,24,0,4,,,,,,,,3,,,62,105
107280,note_on,24,0,5,,,,,,,,4,,,50,105
107280,note_on,24,0,6,,,,,,,,5,,,62,105
107280,note_on,0,0,6,,,,,,,,5,,,66,105
107352,note_on,192,0,1,,,,,,,,0,,,81,0
107352,note_on,192,0,2,,,,,,,,1,,,81,0
107352,note_on,72,0,6,,,,,,,,5,,,69,0
107376,note_on,24,0,6,,,,,,,,5,,,66,0
107376,note_on,96,0,5,,,,,,,,4,,,50,0
107376,note_on,0,0,6,,,,,,,,5,,,62,0
107376,note_on,96,0,3,,,,,,,,2,,,66,0
107376,note_on,96,0,4,,,,,,,,3,,,62,0
107400,note_on,24,0,4,,,,,,,,3,,,56,105
107400,note_on,24,0,3,,,,,,,,2,,,62,105
107400,note_on,24,0,6,,,,,,,,5,,,56,105
107400,note_on,48,0,1,,,,,,,,0,,,80,105
107400,note_on,48,0,2,,,,,,,,1,,,80,105
107400,note_on,0,0,6,,,,,,,,5,,,64,105
107400,note_on,0,0,6,,,,,,,,5,,,71,105
107400,note_on,24,0,5,,,,,,,,4,,,44,105
107448,note_on,48,0,1,,,,,,,,0,,,80,0
107448,note_on,48,0,2,,,,,,,,1,,,80,0
107460,note_on,12,0,2,,,,,,,,1,,,78,105
107460,note_on,12,0,1,,,,,,,,0,,,78,105
107496,note_on,96,0,3,,,,,,,,2,,,62,0
107496,note_on,96,0,4,,,,,,,,3,,,56,0
107496,note_on,96,0,5,,,,,,,,4,,,44,0
107496,note_on,0,0,6,,,,,,,,5,,,56,0
107496,note_on,96,0,6,,,,,,,,5,,,71,0
107508,note_on,48,0,1,,,,,,,,0,,,78,0
107508,note_on,48,0,2,,,,,,,,1,,,78,0
107520,note_on,12,0,2,,,,,,,,1,,,76,105
107520,note_on,24,0,5,,,,,,,,4,,,45,105
107520,note_on,24,0,3,,,,,,,,2,,,61,105
107520,note_on,12,0,1,,,,,,,,0,,,76,105
107520,note_on,24,0,4,,,,,,,,3,,,57,105
107520,note_on,0,0,6,,,,,,,,5,,,57,105
107520,note_on,24,0,6,,,,,,,,5,,,73,105
107616,note_on,0,0,6,,,,,,,,5,,,64,0
107616,note_on,0,0,6,,,,,,,,5,,,73,0
107616,note_on,96,0,6,,,,,,,,5,,,57,0
107616,note_on,96,0,3,,,,,,,,2,,,61,0
107616,note_on,96,0,4,,,,,,,,3,,,57,0
107616,note_on,96,0,1,,,,,,,,0,,,76,0
107616,note_on,96,0,2,,,,,,,,1,,,76,0
107616,note_on,96,0,5,,,,,,,,4,,,45,0
107640,note_on,24,0,4,,,,,,,,3,,,45,105
107640,note_on,24,0,6,,,,,,,,5,,,45,105
107640,note_on,24,0,5,,,,,,,,4,,,33,105
107640,note_on,24,0,3,,,,,,,,2,,,64,105
107640,note_on,24,0,2,,,,,,,,1,,,73,105
107640,note_on,0,0,6,,,,,,,,5,,,69,105
107640,note_on,24,0,1,,,,,,,,0,,,73,105
107736,note_on,96,0,3,,,,,,,,2,,,64,0
107736,note_on,96,0,2,,,,,,,,1,,,73,0
107736,note_on,96,0,6,,,,,,,,5,,,69,0
107736,note_on,0,0,6,,,,,,,,5,,,45,0
107736,note_on,96,0,5,,,,,,,,4,,,33,0
107736,note_on,96,0,4,,,,,,,,3,,,45,0
107736,note_on,96,0,1,,,,,,,,0,,,73,0
107760,note_on,24,0,2,,,,,,,,1,,,74,105
107760,note_on,24,0,5,,,,,,,,4,,,38,105
107760,note_on,24,0,4,,,,,,,,3,,,50,105
107760,note_on,24,0,6,,,,,,,,5,,,69,105
107760,note_on,0,0,6,,,,,,,,5,,,50,105
107760,note_on,24,0,3,,,,,,,,2,,,66,105
107760,note_on,24,0,1,,,,,,,,0,,,74,105
107760,note_on,0,0,6,,,,,,,,5,,,66,105
107856,note_on,96,0,3,,,,,,,,2,,,66,0
107856,note_on,0,0,6,,,,,,,,5,,,69,0
107856,note_on,0,0,6,,,,,,,,5,,,66,0
107856,note_on,96,0,1,,,,,,,,0,,,74,0
107856,note_on,96,0,6,,,,,,,,5,,,50,0
107856,note_on,96,0,4,,,,,,,,3,,,50,0
107856,note_on,96,0,2,,,,,,,,1,,,74,0
107856,note_on,96,0,5,,,,,,,,4,,,38,0
107880,note_on,24,0,4,,,,,,,,3,,,52,105
107880,note_on,24,0,6,,,,,,,,5,,,68,105
107880,note_on,0,0,6,,,,,,,,5,,,52,105
107880,note_on,24,0,3,,,,,,,,2,,,64,105
107880,note_on,0,0,6,,,,,,,,5,,,64,105
107880,note_on,24,0,2,,,,,,,,1,,,71,105
107880,note_on,24,0,5,,,,,,,,4,,,40,105
107880,note_on,24,0,1,,,,,,,,0,,,71,105
107976,note_on,0,0,6,,,,,,,,5,,,68,0
107976,note_on,0,0,6,,,,,,,,5,,,52,0
107976,note_on,96,0,6,,,,,,,,5,,,64,0
107976,note_on,96,0,1,,,,,,,,0,,,71,0
107976,note_on,96,0,3,,,,,,,,2,,,64,0
107976,note_on,96,0,2,,,,,,,,1,,,71,0
107976,note_on,96,0,5,,,,,,,,4,,,40,0
107976,note_on,96,0,4,,,,,,,,3,,,52,0
108000,note_on,0,0,6,,,,,,,,5,,,61,105
108000,note_on,0,0,6,,,,,,,,5,,,57,105
108000,note_on,24,0,6,,,,,,,,5,,,69,105
108000,note_on,24,0,5,,,,,,,,4,,,45,105
108000,note_on,24,0,2,,,,,,,,1,,,73,105
108000,note_on,24,0,4,,,,,,,,3,,,57,105
108000,note_on,24,0,3,,,,,,,,2,,,64,105
108000,note_on,24,0,1,,,,,,,,0,,,73,105
108096,note_on,96,0,6,,,,,,,,5,,,57,0
108096,note_on,96,0,2,,,,,,,,1,,,73,0
108096,note_on,96,0,5,,,,,,,,4,,,45,0
108096,note_on,96,0,3,,,,,,,,2,,,64,0
108096,note_on,96,0,4,,,,,,,,3,,,57,0
108096,note_on,96,0,1,,,,,,,,0,,,73,0
108120,note_on,24,0,1,,,,,,,,0,,,69,105
108120,note_on,24,0,3,,,,,,,,2,,,61,105
108120,note_on,24,0,4,,,,,,,,3,,,45,105
108120,note_on,24,0,2,,,,,,,,1,,,69,105
108120,note_on,24,0,6,,,,,,,,5,,,45,105
108120,note_on,24,0,5,,,,,,,,4,,,33,105
108192,note_on,72,0,6,,,,,,,,5,,,61,0
108192,note_on,0,0,6,,,,,,,,5,,,69,0
108216,note_on,96,0,5,,,,,,,,4,,,33,0
108216,note_on,96,0,1,,,,,,,,0,,,69,0
108216,note_on,96,0,3,,,,,,,,2,,,61,0
108216,note_on,24,0,6,,,,,,,,5,,,45,0
108216,note_on,96,0,2,,,,,,,,1,,,69,0
108216,note_on,96,0,4,,,,,,,,3,,,45,0
108240,note_on,24,0,2,,,,,,,,1,,,78,105
108240,note_on,24,0,1,,,,,,,,0,,,78,105
108288,note_on,48,0,1,,,,,,,,0,,,78,0
108288,note_on,48,0,2,,,,,,,,1,,,78,0
108300,note_on,12,0,2,,,,,,,,1,,,80,105
108300,note_on,12,0,1,,,,,,,,0,,,80,105
108348,note_on,48,0,2,,,,,,,,1,,,80,0
108348,note_on,48,0,1,,,,,,,,0,,,80,0
108360,note_on,144,0,6,,,,,,,,5,,,50,105
108360,note_on,0,0,6,,,,,,,,5,,,62,105
108360,note_on,0,0,6,,,,,,,,5,,,66,105
108360,note_on,12,0,2,,,,,,,,1,,,81,105
108360,note_on,12,0,1,,,,,,,,0,,,81,105
108360,note_on,144,0,3,,,,,,,,2,,,69,105
108360,note_on,144,0,5,,,,,,,,4,,,38,105
108360,note_on,144,0,4,,,,,,,,3,,,50,105
108408,note_on,48,0,1,,,,,,,,0,,,81,0
108408,note_on,48,0,2,,,,,,,,1,,,81,0
108420,note_on,12,0,2,,,,,,,,1,,,78,105
108420,note_on,12,0,1,,,,,,,,0,,,78,105
108456,note_on,96,0,5,,,,,,,,4,,,38,0
108456,note_on,0,0,6,,,,,,,,5,,,62,0
108456,note_on,0,0,6,,,,,,,,5,,,50,0
108456,note_on,96,0,4,,,,,,,,3,,,50,0
108456,note_on,96,0,6,,,,,,,,5,,,66,0
108456,note_on,96,0,3,,,,,,,,2,,,69,0
108468,note_on,48,0,2,,,,,,,,1,,,78,0
108468,note_on,48,0,1,,,,,,,,0,,,78,0
108480,note_on,24,0,4,,,,,,,,3,,,57,105
108480,note_on,24,0,3,,,,,,,,2,,,69,105
108480,note_on,24,0,5,,,,,,,,4,,,45,105
108480,note_on,24,0,6,,,,,,,,5,,,64,105
108480,note_on,0,0,6,,,,,,,,5,,,61,105
108480,note_on,0,0,6,,,,,,,,5,,,57,105
108480,note_on,12,0,2,,,,,,,,1,,,76,105
108480,note_on,12,0,1,,,,,,,,0,,,76,105
108576,note_on,96,0,5,,,,,,,,4,,,45,0
108576,note_on,96,0,4,,,,,,,,3,,,57,0
108576,note_on,96,0,6,,,,,,,,5,,,57,0
108600,note_on,24,0,4,,,,,,,,3,,,45,105
108600,note_on,24,0,5,,,,,,,,4,,,33,105
108600,note_on,24,0,6,,,,,,,,5,,,45,105
108672,note_on,192,0,3,,,,,,,,2,,,69,0
108672,note_on,72,0,6,,,,,,,,5,,,61,0
108672,note_on,192,0,1,,,,,,,,0,,,76,0
108672,note_on,0,0,6,,,,,,,,5,,,64,0
108672,note_on,192,0,2,,,,,,,,1,,,76,0
108696,note_on,24,0,6,,,,,,,,5,,,45,0
108696,note_on,96,0,5,,,,,,,,4,,,33,0
108696,note_on,96,0,4,,,,,,,,3,,,45,0
108720,note_on,48,0,1,,,,,,,,0,,,71,105
108720,note_on,48,0,2,,,,,,,,1,,,71,105
108816,note_on,96,0,2,,,,,,,,1,,,71,0
108816,note_on,96,0,1,,,,,,,,0,,,71,0
108840,note_on,168,0,3,,,,,,,,2,,,68,105
108840,note_on,24,0,2,,,,,,,,1,,,73,105
108840,note_on,144,0,5,,,,,,,,4,,,40,105
108840,note_on,0,0,6,,,,,,,,5,,,59,105
108840,note_on,144,0,4,,,,,,,,3,,,52,105
108840,note_on,0,0,6,,,,,,,,5,,,68,105
108840,note_on,144,0,6,,,,,,,,5,,,52,105
108840,note_on,24,0,1,,,,,,,,0,,,73,105
108888,note_on,48,0,2,,,,,,,,1,,,73,0
108888,note_on,48,0,1,,,,,,,,0,,,73,0
108900,note_on,12,0,2,,,,,,,,1,,,74,105
108900,note_on,12,0,1,,,,,,,,0,,,74,105
108936,note_on,96,0,3,,,,,,,,2,,,68,0
108936,note_on,96,0,4,,,,,,,,3,,,52,0
108936,note_on,0,0,6,,,,,,,,5,,,52,0
108936,note_on,0,0,6,,,,,,,,5,,,68,0
108936,note_on,96,0,6,,,,,,,,5,,,59,0
108936,note_on,96,0,5,,,,,,,,4,,,40,0
108948,note_on,48,0,1,,,,,,,,0,,,74,0
108948,note_on,48,0,2,,,,,,,,1,,,74,0
108960,note_on,24,0,4,,,,,,,,3,,,57,105
108960,note_on,12,0,1,,,,,,,,0,,,73,105
108960,note_on,0,0,6,,,,,,,,5,,,61,105
108960,note_on,24,0,3,,,,,,,,2,,,64,105
108960,note_on,24,0,5,,,,,,,,4,,,45,105
108960,note_on,24,0,6,,,,,,,,5,,,69,105
108960,note_on,0,0,6,,,,,,,,5,,,57,105
108960,note_on,12,0,2,,,,,,,,1,,,69,105
109056,note_on,96,0,5,,,,,,,,4,,,45,0
109056,note_on,96,0,6,,,,,,,,5,,,57,0
109056,note_on,96,0,3,,,,,,,,2,,,64,0
109056,note_on,96,0,4,,,,,,,,3,,,57,0
109080,note_on,24,0,6,,,,,,,,5,,,45,105
109080,note_on,24,0,4,,,,,,,,3,,,45,105
109080,note_on,24,0,3,,,,,,,,2,,,61,105
109080,note_on,24,0,5,,,,,,,,4,,,33,105
109152,note_on,192,0,2,,,,,,,,1,,,69,0
109152,note_on,0,0,6,,,,,,,,5,,,69,0
109152,note_on,72,0,6,,,,,,,,5,,,61,0
109152,note_on,192,0,1,,,,,,,,0,,,73,0
109176,note_on,24,0,6,,,,,,,,5,,,45,0
109176,note_on,96,0,5,,,,,,,,4,,,33,0
109176,note_on,96,0,3,,,,,,,,2,,,61,0
109176,note_on,96,0,4,,,,,,,,3,,,45,0
109200,note_on,48,0,2,,,,,,,,1,,,74,105
109200,note_on,48,0,1,,,,,,,,0,,,78,105
109248,note_on,48,0,2,,,,,,,,1,,,74,0
109248,note_on,48,0,1,,,,,,,,0,,,78,0
109260,note_on,12,0,2,,,,,,,,1,,,76,105
109260,note_on,12,0,1,,,,,,,,0,,,80,105
109308,note_on,48,0,2,,,,,,,,1,,,76,0
109308,note_on,48,0,1,,,,,,,,0,,,80,0
109320,note_on,144,0,4,,,,,,,,3,,,50,105
109320,note_on,0,0,6,,,,,,,,5,,,66,105
109320,note_on,144,0,6,,,,,,,,5,,,50,105
109320,note_on,144,0,5,,,,,,,,4,,,38,105
109320,note_on,12,0,2,,,,,,,,1,,,78,105
109320,note_on,12,0,1,,,,,,,,0,,,81,105
109320,note_on,144,0,3,,,,,,,,2,,,66,105
109320,note_on,0,0,6,,,,,,,,5,,,62,105
109368,note_on,48,0,2,,,,,,,,1,,,78,0
109368,note_on,48,0,1,,,,,,,,0,,,81,0
109380,note_on,12,0,1,,,,,,,,0,,,78,105
109380,note_on,12,0,2,,,,,,,,1,,,74,105
109416,note_on,96,0,4,,,,,,,,3,,,50,0
109416,note_on,96,0,6,,,,,,,,5,,,66,0
109416,note_on,96,0,5,,,,,,,,4,,,38,0
109416,note_on,0,0,6,,,,,,,,5,,,50,0
109416,note_on,0,0,6,,,,,,,,5,,,62,0
109416,note_on,96,0,3,,,,,,,,2,,,66,0
109428,note_on,48,0,2,,,,,,,,1,,,74,0
109428,note_on,48,0,1,,,,,,,,0,,,78,0
109440,note_on,24,0,3,,,,,,,,2,,,69,105
109440,note_on,24,0,6,,,,,,,,5,,,64,105
109440,note_on,0,0,6,,,,,,,,5,,,57,105
109440,note_on,24,0,5,,,,,,,,4,,,45,105
109440,note_on,0,0,6,,,,,,,,5,,,61,105
109440,note_on,24,0,4,,,,,,,,3,,,57,105
109440,note_on,12,0,2,,,,,,,,1,,,73,105
109440,note_on,12,0,1,,,,,,,,0,,,76,105
109536,note_on,96,0,6,,,,,,,,5,,,57,0
109536,note_on,96,0,4,,,,,,,,3,,,57,0
109536,note_on,96,0,5,,,,,,,,4,,,45,0
109560,note_on,24,0,6,,,,,,,,5,,,45,105
109560,note_on,24,0,4,,,,,,,,3,,,45,105
109560,note_on,24,0,5,,,,,,,,4,,,33,105
109632,note_on,0,0,6,,,,,,,,5,,,64,0
109632,note_on,72,0,6,,,,,,,,5,,,61,0
109632,note_on,192,0,3,,,,,,,,2,,,69,0
109632,note_on,192,0,1,,,,,,,,0,,,76,0
109632,note_on,192,0,2,,,,,,,,1,,,73,0
109656,note_on,96,0,4,,,,,,,,3,,,45,0
109656,note_on,96,0,5,,,,,,,,4,,,33,0
109656,note_on,24,0,6,,,,,,,,5,,,45,0
109680,note_on,48,0,1,,,,,,,,0,,,68,105
109680,note_on,48,0,2,,,,,,,,1,,,64,105
109776,note_on,96,0,2,,,,,,,,1,,,64,0
109776,note_on,96,0,1,,,,,,,,0,,,68,0
109800,note_on,0,0,6,,,,,,,,5,,,68,105
109800,note_on,144,0,4,,,,,,,,3,,,52,105
109800,note_on,24,0,1,,,,,,,,0,,,69,105
109800,note_on,168,0,3,,,,,,,,2,,,68,105
109800,note_on,24,0,2,,,,,,,,1,,,66,105
109800,note_on,144,0,6,,,,,,,,5,,,52,105
109800,note_on,0,0,6,,,,,,,,5,,,59,105
109800,note_on,144,0,5,,,,,,,,4,,,40,105
109848,note_on,48,0,1,,,,,,,,0,,,69,0
109848,note_on,48,0,2,,,,,,,,1,,,66,0
109860,note_on,12,0,2,,,,,,,,1,,,68,105
109860,note_on,12,0,1,,,,,,,,0,,,71,105
109896,note_on,0,0,6,,,,,,,,5,,,68,0
109896,note_on,0,0,6,,,,,,,,5,,,52,0
109896,note_on,96,0,6,,,,,,,,5,,,59,0
109896,note_on,96,0,4,,,,,,,,3,,,52,0
109896,note_on,96,0,5,,,,,,,,4,,,40,0
109896,note_on,96,0,3,,,,,,,,2,,,68,0
109908,note_on,48,0,1,,,,,,,,0,,,71,0
109908,note_on,48,0,2,,,,,,,,1,,,68,0
109920,note_on,24,0,4,,,,,,,,3,,,57,105
109920,note_on,24,0,5,,,,,,,,4,,,45,105
109920,note_on,0,0,6,,,,,,,,5,,,61,105
109920,note_on,0,0,6,,,,,,,,5,,,57,105
109920,note_on,12,0,1,,,,,,,,0,,,73,105
109920,note_on,24,0,6,,,,,,,,5,,,69,105
109920,note_on,12,0,2,,,,,,,,1,,,69,105
109920,note_on,24,0,3,,,,,,,,2,,,64,105
110016,note_on,0,0,6,,,,,,,,5,,,57,0
110016,note_on,96,0,6,,,,,,,,5,,,61,0
110016,note_on,96,0,3,,,,,,,,2,,,64,0
110016,note_on,96,0,2,,,,,,,,1,,,69,0
110016,note_on,96,0,1,,,,,,,,0,,,73,0
110016,note_on,96,0,5,,,,,,,,4,,,45,0
110016,note_on,96,0,4,,,,,,,,3,,,57,0
110016,note_on,0,0,6,,,,,,,,5,,,69,0
110040,note_on,24,0,5,,,,,,,,4,,,38,105
110040,note_on,24,0,2,,,,,,,,1,,,78,105
110040,note_on,24,0,6,,,,,,,,5,,,50,105
110040,note_on,0,0,6,,,,,,,,5,,,62,105
110040,note_on,24,0,4,,,,,,,,3,,,50,105
110040,note_on,24,0,3,,,,,,,,2,,,62,105
110040,note_on,24,0,1,,,,,,,,0,,,81,105
110040,note_on,0,0,6,,,,,,,,5,,,66,105
110088,note_on,48,0,1,,,,,,,,0,,,81,0
110088,note_on,48,0,2,,,,,,,,1,,,78,0
110100,note_on,12,0,1,,,,,,,,0,,,78,105
110100,note_on,12,0,2,,,,,,,,1,,,74,105
110136,note_on,96,0,6,,,,,,,,5,,,62,0
110136,note_on,0,0,6,,,,,,,,5,,,66,0
110136,note_on,0,0,6,,,,,,,,5,,,50,0
110136,note_on,96,0,4,,,,,,,,3,,,50,0
110136,note_on,96,0,3,,,,,,,,2,,,62,0
110136,note_on,96,0,5,,,,,,,,4,,,38,0
110148,note_on,48,0,1,,,,,,,,0,,,78,0
110148,note_on,48,0,2,,,,,,,,1,,,74,0
110160,note_on,24,0,6,,,,,,,,5,,,69,105
110160,note_on,0,0,6,,,,,,,,5,,,61,105
110160,note_on,24,0,3,,,,,,,,2,,,64,105
110160,note_on,24,0,4,,,,,,,,3,,,57,105
110160,note_on,12,0,1,,,,,,,,0,,,76,105
110160,note_on,12,0,2,,,,,,,,1,,,73,105
110160,note_on,24,0,5,,,,,,,,4,,,45,105
110160,note_on,0,0,6,,,,,,,,5,,,57,105
110256,note_on,0,0,6,,,,,,,,5,,,57,0
110256,note_on,0,0,6,,,,,,,,5,,,69,0
110256,note_on,96,0,5,,,,,,,,4,,,45,0
110256,note_on,96,0,6,,,,,,,,5,,,61,0
110256,note_on,96,0,1,,,,,,,,0,,,76,0
110256,note_on,96,0,2,,,,,,,,1,,,73,0
110256,note_on,96,0,4,,,,,,,,3,,,57,0
110256,note_on,96,0,3,,,,,,,,2,,,64,0
110280,note_on,0,0,6,,,,,,,,5,,,68,105
110280,note_on,24,0,6,,,,,,,,5,,,52,105
110280,note_on,24,0,4,,,,,,,,3,,,52,105
110280,note_on,0,0,6,,,,,,,,5,,,64,105
110280,note_on,24,0,1,,,,,,,,0,,,74,105
110280,note_on,24,0,3,,,,,,,,2,,,68,105
110280,note_on,24,0,5,,,,,,,,4,,,40,105
110280,note_on,24,0,2,,,,,,,,1,,,71,105
110328,note_on,48,0,2,,,,,,,,1,,,71,0
110328,note_on,48,0,1,,,,,,,,0,,,74,0
110340,note_on,12,0,2,,,,,,,,1,,,68,105
110340,note_on,12,0,1,,,,,,,,0,,,71,105
110376,note_on,96,0,3,,,,,,,,2,,,68,0
110376,note_on,96,0,6,,,,,,,,5,,,64,0
110376,note_on,96,0,5,,,,,,,,4,,,40,0
110376,note_on,0,0,6,,,,,,,,5,,,52,0
110376,note_on,96,0,4,,,,,,,,3,,,52,0
110376,note_on,0,0,6,,,,,,,,5,,,68,0
110388,note_on,48,0,1,,,,,,,,0,,,71,0
110388,note_on,48,0,2,,,,,,,,1,,,68,0
110400,note_on,0,0,6,,,,,,,,5,,,45,105
110400,note_on,24,0,6,,,,,,,,5,,,69,105
110400,note_on,24,0,3,,,,,,,,2,,,64,105
110400,note_on,24,0,4,,,,,,,,3,,,45,105
110400,note_on,12,0,1,,,,,,,,0,,,73,105
110400,note_on,0,0,6,,,,,,,,5,,,61,105
110400,note_on,12,0,2,,,,,,,,1,,,69,105
110400,note_on,24,0,5,,,,,,,,4,,,33,105
110496,note_on,96,0,1,,,,,,,,0,,,73,0
110496,note_on,96,0,2,,,,,,,,1,,,69,0
110496,note_on,96,0,6,,,,,,,,5,,,61,0
110496,note_on,0,0,6,,,,,,,,5,,,45,0
110496,note_on,0,0,6,,,,,,,,5,,,69,0
110496,note_on,96,0,4,,,,,,,,3,,,45,0
110496,note_on,96,0,3,,,,,,,,2,,,64,0
110496,note_on,96,0,5,,,,,,,,4,,,33,0
110520,note_on,24,0,3,,,,,,,,2,,,62,105
110520,note_on,24,0,1,,,,,,,,0,,,81,105
110520,note_on,24,0,4,,,,,,,,3,,,50,105
110520,note_on,0,0,6,,,,,,,,5,,,62,105
110520,note_on,0,0,6,,,,,,,,5,,,66,105
110520,note_on,24,0,6,,,,,,,,5,,,50,105
110520,note_on,24,0,5,,,,,,,,4,,,38,105
110520,note_on,24,0,2,,,,,,,,1,,,78,105
110568,note_on,48,0,1,,,,,,,,0,,,81,0
110568,note_on,48,0,2,,,,,,,,1,,,78,0
110580,note_on,12,0,1,,,,,,,,0,,,78,105
110580,note_on,12,0,2,,,,,,,,1,,,74,105
110616,note_on,96,0,3,,,,,,,,2,,,62,0
110616,note_on,96,0,4,,,,,,,,3,,,50,0
110616,note_on,96,0,5,,,,,,,,4,,,38,0
110616,note_on,96,0,6,,,,,,,,5,,,62,0
110616,note_on,0,0,6,,,,,,,,5,,,66,0
110616,note_on,0,0,6,,,,,,,,5,,,50,0
110628,note_on,48,0,2,,,,,,,,1,,,74,0
110628,note_on,48,0,1,,,,,,,,0,,,78,0
110640,note_on,0,0,6,,,,,,,,5,,,57,105
110640,note_on,0,0,6,,,,,,,,5,,,61,105
110640,note_on,24,0,3,,,,,,,,2,,,64,105
110640,note_on,12,0,1,,,,,,,,0,,,76,105
110640,note_on,24,0,5,,,,,,,,4,,,45,105
110640,note_on,24,0,6,,,,,,,,5,,,64,105
110640,note_on,24,0,4,,,,,,,,3,,,57,105
110640,note_on,12,0,2,,,,,,,,1,,,73,105
110736,note_on,96,0,1,,,,,,,,0,,,76,0
110736,note_on,0,0,6,,,,,,,,5,,,64,0
110736,note_on,96,0,4,,,,,,,,3,,,57,0
110736,note_on,96,0,2,,,,,,,,1,,,73,0
110736,note_on,0,0,6,,,,,,,,5,,,57,0
110736,note_on,96,0,5,,,,,,,,4,,,45,0
110736,note_on,96,0,6,,,,,,,,5,,,61,0
110736,note_on,96,0,3,,,,,,,,2,,,64,0
110760,note_on,0,0,6,,,,,,,,5,,,68,105
110760,note_on,24,0,1,,,,,,,,0,,,74,105
110760,note_on,24,0,6,,,,,,,,5,,,52,105
110760,note_on,0,0,6,,,,,,,,5,,,64,105
110760,note_on,24,0,4,,,,,,,,3,,,52,105
110760,note_on,24,0,2,,,,,,,,1,,,71,105
110760,note_on,24,0,3,,,,,,,,2,,,68,105
110760,note_on,24,0,5,,,,,,,,4,,,40,105
110808,note_on,48,0,2,,,,,,,,1,,,71,0
110808,note_on,48,0,1,,,,,,,,0,,,74,0
110820,note_on,12,0,2,,,,,,,,1,,,68,105
110820,note_on,12,0,1,,,,,,,,0,,,71,105
110856,note_on,96,0,4,,,,,,,,3,,,52,0
110856,note_on,96,0,5,,,,,,,,4,,,40,0
110856,note_on,0,0,6,,,,,,,,5,,,52,0
110856,note_on,0,0,6,,,,,,,,5,,,68,0
110856,note_on,96,0,6,,,,,,,,5,,,64,0
110856,note_on,96,0,3,,,,,,,,2,,,68,0
110868,note_on,48,0,2,,,,,,,,1,,,68,0
110868,note_on,48,0,1,,,,,,,,0,,,71,0
110880,note_on,12,0,1,,,,,,,,0,,,73,105
110880,note_on,24,0,5,,,,,,,,4,,,33,105
110880,note_on,24,0,3,,,,,,,,2,,,64,105
110880,note_on,0,0,6,,,,,,,,5,,,45,105
110880,note_on,24,0,4,,,,,,,,3,,,45,105
110880,note_on,0,0,6,,,,,,,,5,,,61,105
110880,note_on,12,0,2,,,,,,,,1,,,69,105
110880,note_on,24,0,6,,,,,,,,5,,,69,105
110976,note_on,96,0,4,,,,,,,,3,,,45,0
110976,note_on,96,0,6,,,,,,,,5,,,61,0
110976,note_on,0,0,6,,,,,,,,5,,,45,0
110976,note_on,96,0,2,,,,,,,,1,,,69,0
110976,note_on,96,0,5,,,,,,,,4,,,33,0
110976,note_on,96,0,1,,,,,,,,0,,,73,0
111000,note_on,24,0,1,,,,,,,,0,,,69,105
111000,note_on,24,0,6,,,,,,,,5,,,47,105
111000,note_on,0,0,6,,,,,,,,5,,,62,105
111000,note_on,24,0,5,,,,,,,,4,,,35,105
111000,note_on,24,0,4,,,,,,,,3,,,47,105
111000,note_on,24,0,2,,,,,,,,1,,,57,105
111072,note_on,192,0,3,,,,,,,,2,,,64,0
111096,note_on,0,0,6,,,,,,,,5,,,47,0
111096,note_on,96,0,6,,,,,,,,5,,,62,0
111096,note_on,96,0,2,,,,,,,,1,,,57,0
111096,note_on,96,0,1,,,,,,,,0,,,69,0
111096,note_on,96,0,4,,,,,,,,3,,,47,0
111096,note_on,96,0,5,,,,,,,,4,,,35,0
111120,note_on,24,0,4,,,,,,,,3,,,49,105
111120,note_on,24,0,5,,,,,,,,4,,,37,105
111120,note_on,24,0,6,,,,,,,,5,,,49,105
111120,note_on,0,0,6,,,,,,,,5,,,64,105
111120,note_on,48,0,3,,,,,,,,2,,,52,105
111216,note_on,96,0,5,,,,,,,,4,,,37,0
111216,note_on,96,0,4,,,,,,,,3,,,49,0
111216,note_on,96,0,6,,,,,,,,5,,,64,0
111216,note_on,0,0,6,,,,,,,,5,,,49,0
111240,note_on,144,0,2,,,,,,,,1,,,57,105
111240,note_on,24,0,5,,,,,,,,4,,,35,105
111240,note_on,24,0,4,,,,,,,,3,,,47,105
111240,note_on,24,0,6,,,,,,,,5,,,47,105
111240,note_on,0,0,6,,,,,,,,5,,,62,105
111240,note_on,144,0,1,,,,,,,,0,,,57,105
111264,note_on,24,0,6,,,,,,,,5,,,69,0
111288,note_on,48,0,2,,,,,,,,1,,,57,0
111288,note_on,48,0,1,,,,,,,,0,,,57,0
111300,note_on,12,0,2,,,,,,,,1,,,59,105
111300,note_on,12,0,1,,,,,,,,0,,,59,105
111312,note_on,192,0,3,,,,,,,,2,,,52,0
111336,note_on,0,0,6,,,,,,,,5,,,47,0
111336,note_on,96,0,4,,,,,,,,3,,,47,0
111336,note_on,72,0,6,,,,,,,,5,,,62,0
111336,note_on,96,0,5,,,,,,,,4,,,35,0
111348,note_on,48,0,1,,,,,,,,0,,,59,0
111348,note_on,48,0,2,,,,,,,,1,,,59,0
111360,note_on,12,0,1,,,,,,,,0,,,61,105
111360,note_on,12,0,2,,,,,,,,1,,,61,105
111360,note_on,0,0,6,,,,,,,,5,,,61,105
111360,note_on,24,0,4,,,,,,,,3,,,45,105
111360,note_on,24,0,6,,,,,,,,5,,,69,105
111360,note_on,0,0,6,,,,,,,,5,,,45,105
111360,note_on,48,0,3,,,,,,,,2,,,52,105
111360,note_on,24,0,5,,,,,,,,4,,,33,105
111456,note_on,0,0,6,,,,,,,,5,,,45,0
111456,note_on,96,0,6,,,,,,,,5,,,61,0
111456,note_on,96,0,2,,,,,,,,1,,,61,0
111456,note_on,96,0,5,,,,,,,,4,,,33,0
111456,note_on,96,0,1,,,,,,,,0,,,61,0
111456,note_on,96,0,4,,,,,,,,3,,,45,0
111480,note_on,24,0,5,,,,,,,,4,,,35,105
111480,note_on,24,0,4,,,,,,,,3,,,47,105
111480,note_on,24,0,6,,,,,,,,5,,,47,105
111480,note_on,0,0,6,,,,,,,,5,,,62,105
111480,note_on,24,0,2,,,,,,,,1,,,61,105
111480,note_on,24,0,1,,,,,,,,0,,,61,105
111528,note_on,48,0,1,,,,,,,,0,,,61,0
111528,note_on,48,0,2,,,,,,,,1,,,61,0
111540,note_on,12,0,2,,,,,,,,1,,,62,105
111540,note_on,12,0,1,,,,,,,,0,,,62,105
111552,note_on,192,0,3,,,,,,,,2,,,52,0
111576,note_on,96,0,4,,,,,,,,3,,,47,0
111576,note_on,96,0,6,,,,,,,,5,,,62,0
111576,note_on,96,0,5,,,,,,,,4,,,35,0
111576,note_on,0,0,6,,,,,,,,5,,,47,0
111588,note_on,48,0,1,,,,,,,,0,,,62,0
111588,note_on,48,0,2,,,,,,,,1,,,62,0
111600,note_on,24,0,5,,,,,,,,4,,,37,105
111600,note_on,48,0,3,,,,,,,,2,,,52,105
111600,note_on,24,0,6,,,,,,,,5,,,49,105
111600,note_on,0,0,6,,,,,,,,5,,,64,105
111600,note_on,24,0,4,,,,,,,,3,,,49,105
111600,note_on,12,0,1,,,,,,,,0,,,64,105
111600,note_on,12,0,2,,,,,,,,1,,,64,105
111696,note_on,96,0,4,,,,,,,,3,,,49,0
111696,note_on,0,0,6,,,,,,,,5,,,49,0
111696,note_on,96,0,2,,,,,,,,1,,,64,0
111696,note_on,96,0,1,,,,,,,,0,,,64,0
111696,note_on,96,0,5,,,,,,,,4,,,37,0
111696,note_on,96,0,6,,,,,,,,5,,,64,0
111720,note_on,24,0,1,,,,,,,,0,,,66,105
111720,note_on,24,0,4,,,,,,,,3,,,47,105
111720,note_on,24,0,5,,,,,,,,4,,,35,105
111720,note_on,24,0,6,,,,,,,,5,,,47,105
111720,note_on,24,0,2,,,,,,,,1,,,66,105
111720,note_on,0,0,6,,,,,,,,5,,,62,105
111744,note_on,24,0,6,,,,,,,,5,,,69,0
111768,note_on,48,0,2,,,,,,,,1,,,66,0
111768,note_on,48,0,1,,,,,,,,0,,,66,0
111780,note_on,12,0,1,,,,,,,,0,,,68,105
111780,note_on,12,0,2,,,,,,,,1,,,68,105
111792,note_on,192,0,3,,,,,,,,2,,,52,0
111816,note_on,0,0,6,,,,,,,,5,,,47,0
111816,note_on,96,0,5,,,,,,,,4,,,35,0
111816,note_on,72,0,6,,,,,,,,5,,,62,0
111816,note_on,96,0,4,,,,,,,,3,,,47,0
111828,note_on,48,0,2,,,,,,,,1,,,68,0
111828,note_on,48,0,1,,,,,,,,0,,,68,0
111840,note_on,12,0,1,,,,,,,,0,,,69,105
111840,note_on,24,0,6,,,,,,,,5,,,69,105
111840,note_on,0,0,6,,,,,,,,5,,,45,105
111840,note_on,12,0,2,,,,,,,,1,,,69,105
111840,note_on,0,0,6,,,,,,,,5,,,61,105
111840,note_on,48,0,3,,,,,,,,2,,,61,105
111840,note_on,24,0,4,,,,,,,,3,,,45,105
111840,note_on,24,0,5,,,,,,,,4,,,33,105
111936,note_on,96,0,3,,,,,,,,2,,,61,0
111936,note_on,96,0,2,,,,,,,,1,,,69,0
111936,note_on,0,0,6,,,,,,,,5,,,45,0
111936,note_on,96,0,4,,,,,,,,3,,,45,0
111936,note_on,96,0,6,,,,,,,,5,,,61,0
111936,note_on,96,0,1,,,,,,,,0,,,69,0
111936,note_on,96,0,5,,,,,,,,4,,,33,0
111960,note_on,24,0,3,,,,,,,,2,,,62,105
111960,note_on,24,0,6,,,,,,,,5,,,47,105
111960,note_on,24,0,5,,,,,,,,4,,,35,105
111960,note_on,0,0,6,,,,,,,,5,,,62,105
111960,note_on,24,0,4,,,,,,,,3,,,47,105
111960,note_on,24,0,2,,,,,,,,1,,,64,105
111960,note_on,24,0,1,,,,,,,,0,,,64,105
112056,note_on,96,0,4,,,,,,,,3,,,47,0
112056,note_on,96,0,5,,,,,,,,4,,,35,0
112056,note_on,96,0,6,,,,,,,,5,,,62,0
112056,note_on,0,0,6,,,,,,,,5,,,47,0
112056,note_on,96,0,3,,,,,,,,2,,,62,0
112080,note_on,24,0,6,,,,,,,,5,,,49,105
112080,note_on,24,0,4,,,,,,,,3,,,49,105
112080,note_on,0,0,6,,,,,,,,5,,,64,105
112080,note_on,24,0,5,,,,,,,,4,,,37,105
112080,note_on,24,0,3,,,,,,,,2,,,64,105
112128,note_on,48,0,6,,,,,,,,5,,,69,0
112152,note_on,192,0,1,,,,,,,,0,,,64,0
112152,note_on,192,0,2,,,,,,,,1,,,64,0
112176,note_on,48,0,6,,,,,,,,5,,,64,0
112176,note_on,96,0,5,,,,,,,,4,,,37,0
112176,note_on,96,0,4,,,,,,,,3,,,49,0
112176,note_on,0,0,6,,,,,,,,5,,,49,0
112176,note_on,96,0,3,,,,,,,,2,,,64,0
112200,note_on,24,0,3,,,,,,,,2,,,61,105
112200,note_on,48,0,1,,,,,,,,0,,,76,72
112200,note_on,24,0,5,,,,,,,,4,,,33,72
112200,note_on,0,0,6,,,,,,,,5,,,61,72
112200,note_on,24,0,6,,,,,,,,5,,,73,72
112200,note_on,48,0,2,,,,,,,,1,,,76,72
112200,note_on,24,0,4,,,,,,,,3,,,45,72
112200,note_on,0,0,6,,,,,,,,5,,,45,72
112248,note_on,48,0,2,,,,,,,,1,,,76,0
112248,note_on,48,0,1,,,,,,,,0,,,76,0
112260,note_on,12,0,2,,,,,,,,1,,,73,72
112260,note_on,12,0,1,,,,,,,,0,,,73,72
112296,note_on,96,0,4,,,,,,,,3,,,45,0
112296,note_on,0,0,6,,,,,,,,5,,,45,0
112296,note_on,96,0,6,,,,,,,,5,,,61,0
112296,note_on,96,0,5,,,,,,,,4,,,33,0
112296,note_on,96,0,3,,,,,,,,2,,,61,0
112308,note_on,48,0,2,,,,,,,,1,,,73,0
112308,note_on,48,0,1,,,,,,,,0,,,73,0
112320,note_on,24,0,4,,,,,,,,3,,,56,72
112320,note_on,24,0,6,,,,,,,,5,,,56,72
112320,note_on,0,0,6,,,,,,,,5,,,64,72
112320,note_on,12,0,1,,,,,,,,0,,,73,72
112320,note_on,24,0,3,,,,,,,,2,,,64,105
112320,note_on,24,0,5,,,,,,,,4,,,44,72
112320,note_on,12,0,2,,,,,,,,1,,,73,72
112416,note_on,96,0,6,,,,,,,,5,,,56,0
112416,note_on,96,0,5,,,,,,,,4,,,44,0
112416,note_on,96,0,4,,,,,,,,3,,,56,0
112416,note_on,96,0,2,,,,,,,,1,,,73,0
112416,note_on,96,0,1,,,,,,,,0,,,73,0
112416,note_on,0,0,6,,,,,,,,5,,,73,0
112440,note_on,24,0,5,,,,,,,,4,,,44,72
112440,note_on,24,0,2,,,,,,,,1,,,71,72
112440,note_on,24,0,4,,,,,,,,3,,,56,72
112440,note_on,24,0,6,,,,,,,,5,,,71,72
112440,note_on,0,0,6,,,,,,,,5,,,56,72
112440,note_on,24,0,1,,,,,,,,0,,,71,72
112536,note_on,96,0,4,,,,,,,,3,,,56,0
112536,note_on,96,0,5,,,,,,,,4,,,44,0
112536,note_on,96,0,6,,,,,,,,5,,,56,0
112560,note_on,24,0,4,,,,,,,,3,,,56,72
112560,note_on,24,0,5,,,,,,,,4,,,44,72
112560,note_on,24,0,6,,,,,,,,5,,,56,72
112608,note_on,288,0,3,,,,,,,,2,,,64,0
112632,note_on,192,0,2,,,,,,,,1,,,71,0
112632,note_on,192,0,1,,,,,,,,0,,,71,0
112656,note_on,96,0,6,,,,,,,,5,,,56,0
112656,note_on,96,0,4,,,,,,,,3,,,56,0
112656,note_on,96,0,5,,,,,,,,4,,,44,0
112680,note_on,48,0,1,,,,,,,,0,,,76,72
112680,note_on,24,0,4,,,,,,,,3,,,56,72
112680,note_on,48,0,2,,,,,,,,1,,,76,72
112680,note_on,24,0,5,,,,,,,,4,,,44,72
112680,note_on,24,0,6,,,,,,,,5,,,56,72
112680,note_on,72,0,3,,,,,,,,2,,,64,105
112704,note_on,24,0,6,,,,,,,,5,,,64,0
112728,note_on,48,0,2,,,,,,,,1,,,76,0
112728,note_on,48,0,1,,,,,,,,0,,,76,0
112740,note_on,12,0,1,,,,,,,,0,,,71,72
112740,note_on,12,0,2,,,,,,,,1,,,71,72
112776,note_on,72,0,6,,,,,,,,5,,,56,0
112776,note_on,96,0,3,,,,,,,,2,,,64,0
112776,note_on,96,0,4,,,,,,,,3,,,56,0
112776,note_on,96,0,5,,,,,,,,4,,,44,0
112788,note_on,48,0,2,,,,,,,,1,,,71,0
112788,note_on,48,0,1,,,,,,,,0,,,71,0
112800,note_on,24,0,3,,,,,,,,2,,,62,105
112800,note_on,0,0,6,,,,,,,,5,,,64,72
112800,note_on,12,0,1,,,,,,,,0,,,71,72
112800,note_on,24,0,6,,,,,,,,5,,,54,72
112800,note_on,24,0,5,,,,,,,,4,,,42,72
112800,note_on,24,0,4,,,,,,,,3,,,54,72
112800,note_on,12,0,2,,,,,,,,1,,,71,72
112896,note_on,96,0,1,,,,,,,,0,,,71,0
112896,note_on,96,0,4,,,,,,,,3,,,54,0
112896,note_on,96,0,2,,,,,,,,1,,,71,0
112896,note_on,0,0,6,,,,,,,,5,,,71,0
112896,note_on,96,0,6,,,,,,,,5,,,54,0
112896,note_on,96,0,5,,,,,,,,4,,,42,0
112920,note_on,0,0,6,,,,,,,,5,,,54,72
112920,note_on,24,0,6,,,,,,,,5,,,69,72
112920,note_on,24,0,2,,,,,,,,1,,,69,72
112920,note_on,24,0,1,,,,,,,,0,,,69,72
112920,note_on,24,0,4,,,,,,,,3,,,54,72
112920,note_on,24,0,5,,,,,,,,4,,,42,72
113016,note_on,96,0,4,,,,,,,,3,,,54,0
113016,note_on,96,0,6,,,,,,,,5,,,54,0
113016,note_on,96,0,5,,,,,,,,4,,,42,0
113040,note_on,24,0,5,,,,,,,,4,,,42,72
113040,note_on,24,0,6,,,,,,,,5,,,54,72
113040,note_on,24,0,4,,,,,,,,3,,,54,72
113088,note_on,48,0,6,,,,,,,,5,,,64,0
113088,note_on,288,0,3,,,,,,,,2,,,62,0
113112,note_on,192,0,1,,,,,,,,0,,,69,0
113112,note_on,24,0,6,,,,,,,,5,,,69,0
113112,note_on,192,0,2,,,,,,,,1,,,69,0
113136,note_on,96,0,4,,,,,,,,3,,,54,0
113136,note_on,96,0,5,,,,,,,,4,,,42,0
113136,note_on,24,0,6,,,,,,,,5,,,54,0
113160,note_on,24,0,4,,,,,,,,3,,,57,72
113160,note_on,48,0,1,,,,,,,,0,,,76,72
113160,note_on,72,0,3,,,,,,,,2,,,61,105
113160,note_on,0,0,6,,,,,,,,5,,,61,72
113160,note_on,48,0,2,,,,,,,,1,,,76,72
113160,note_on,24,0,5,,,,,,,,4,,,45,72
113160,note_on,24,0,6,,,,,,,,5,,,57,72
113160,note_on,0,0,6,,,,,,,,5,,,73,72
113208,note_on,48,0,2,,,,,,,,1,,,76,0
113208,note_on,48,0,1,,,,,,,,0,,,76,0
113220,note_on,12,0,2,,,,,,,,1,,,69,72
113220,note_on,12,0,1,,,,,,,,0,,,69,72
113256,note_on,0,0,6,,,,,,,,5,,,57,0
113256,note_on,96,0,6,,,,,,,,5,,,61,0
113256,note_on,96,0,5,,,,,,,,4,,,45,0
113256,note_on,96,0,3,,,,,,,,2,,,61,0
113256,note_on,96,0,4,,,,,,,,3,,,57,0
113268,note_on,48,0,2,,,,,,,,1,,,69,0
113268,note_on,48,0,1,,,,,,,,0,,,69,0
113280,note_on,0,0,6,,,,,,,,5,,,69,72
113280,note_on,24,0,6,,,,,,,,5,,,52,72
113280,note_on,12,0,1,,,,,,,,0,,,69,72
113280,note_on,24,0,3,,,,,,,,2,,,61,105
113280,note_on,24,0,5,,,,,,,,4,,,40,72
113280,note_on,24,0,4,,,,,,,,3,,,52,72
113280,note_on,12,0,2,,,,,,,,1,,,69,72
113376,note_on,96,0,5,,,,,,,,4,,,40,0
113376,note_on,96,0,1,,,,,,,,0,,,69,0
113376,note_on,96,0,4,,,,,,,,3,,,52,0
113376,note_on,0,0,6,,,,,,,,5,,,73,0
113376,note_on,96,0,2,,,,,,,,1,,,69,0
113376,note_on,96,0,6,,,,,,,,5,,,69,0
113376,note_on,96,0,3,,,,,,,,2,,,61,0
113376,note_on,0,0,6,,,,,,,,5,,,52,0
113400,note_on,0,0,6,,,,,,,,5,,,68,72
113400,note_on,0,0,6,,,,,,,,5,,,40,72
113400,note_on,24,0,5,,,,,,,,4,,,28,72
113400,note_on,24,0,2,,,,,,,,1,,,68,105
113400,note_on,24,0,6,,,,,,,,5,,,76,72
113400,note_on,24,0,4,,,,,,,,3,,,40,72
113400,note_on,24,0,3,,,,,,,,2,,,59,105
113400,note_on,24,0,1,,,,,,,,0,,,68,105
113496,note_on,96,0,4,,,,,,,,3,,,40,0
113496,note_on,96,0,5,,,,,,,,4,,,28,0
113496,note_on,96,0,2,,,,,,,,1,,,68,0
113496,note_on,96,0,3,,,,,,,,2,,,59,0
113496,note_on,96,0,1,,,,,,,,0,,,68,0
113496,note_on,0,0,6,,,,,,,,5,,,40,0
113496,note_on,96,0,6,,,,,,,,5,,,68,0
113496,note_on,0,0,6,,,,,,,,5,,,76,0
113520,note_on,0,0,6,,,,,,,,5,,,52,105
113520,note_on,0,0,6,,,,,,,,5,,,68,105
113520,note_on,24,0,2,,,,,,,,1,,,83,105
113520,note_on,24,0,1,,,,,,,,0,,,83,105
113520,note_on,24,0,4,,,,,,,,3,,,52,105
113520,note_on,24,0,5,,,,,,,,4,,,40,105
113520,note_on,24,0,3,,,,,,,,2,,,68,105
113520,note_on,24,0,6,,,,,,,,5,,,71,105
113568,note_on,48,0,1,,,,,,,,0,,,83,0
113568,note_on,48,0,2,,,,,,,,1,,,83,0
113580,note_on,12,0,2,,,,,,,,1,,,80,105
113580,note_on,12,0,1,,,,,,,,0,,,80,105
113616,note_on,96,0,3,,,,,,,,2,,,68,0
113616,note_on,0,0,6,,,,,,,,5,,,52,0
113616,note_on,96,0,6,,,,,,,,5,,,68,0
113616,note_on,96,0,5,,,,,,,,4,,,40,0
113616,note_on,96,0,4,,,,,,,,3,,,52,0
113628,note_on,48,0,2,,,,,,,,1,,,80,0
113628,note_on,48,0,1,,,,,,,,0,,,80,0
113640,note_on,12,0,2,,,,,,,,1,,,76,105
113640,note_on,0,0,6,,,,,,,,5,,,64,105
113640,note_on,24,0,6,,,,,,,,5,,,56,105
113640,note_on,24,0,4,,,,,,,,3,,,56,105
113640,note_on,24,0,3,,,,,,,,2,,,71,105
113640,note_on,12,0,1,,,,,,,,0,,,76,105
113640,note_on,24,0,5,,,,,,,,4,,,44,105
113688,note_on,48,0,1,,,,,,,,0,,,76,0
113688,note_on,48,0,2,,,,,,,,1,,,76,0
113700,note_on,12,0,1,,,,,,,,0,,,71,105
113700,note_on,12,0,2,,,,,,,,1,,,71,105
113712,note_on,72,0,6,,,,,,,,5,,,71,0
113736,note_on,96,0,3,,,,,,,,2,,,71,0
113736,note_on,96,0,5,,,,,,,,4,,,44,0
113736,note_on,24,0,6,,,,,,,,5,,,56,0
113736,note_on,96,0,4,,,,,,,,3,,,56,0
113748,note_on,48,0,1,,,,,,,,0,,,71,0
113748,note_on,48,0,2,,,,,,,,1,,,71,0
113760,note_on,24,0,5,,,,,,,,4,,,45,105
113760,note_on,24,0,3,,,,,,,,2,,,64,105
113760,note_on,12,0,2,,,,,,,,1,,,73,105
113760,note_on,24,0,4,,,,,,,,3,,,57,105
113760,note_on,0,0,6,,,,,,,,5,,,57,105
113760,note_on,24,0,6,,,,,,,,5,,,73,105
113760,note_on,12,0,1,,,,,,,,0,,,73,105
113856,note_on,96,0,4,,,,,,,,3,,,57,0
113856,note_on,96,0,5,,,,,,,,4,,,45,0
113856,note_on,96,0,6,,,,,,,,5,,,57,0
113880,note_on,24,0,6,,,,,,,,5,,,45,105
113880,note_on,24,0,4,,,,,,,,3,,,45,105
113880,note_on,24,0,5,,,,,,,,4,,,33,105
113952,note_on,192,0,2,,,,,,,,1,,,73,0
113952,note_on,72,0,6,,,,,,,,5,,,73,0
113952,note_on,192,0,1,,,,,,,,0,,,73,0
113952,note_on,0,0,6,,,,,,,,5,,,64,0
113952,note_on,192,0,3,,,,,,,,2,,,64,0
113976,note_on,96,0,5,,,,,,,,4,,,33,0
113976,note_on,96,0,4,,,,,,,,3,,,45,0
113976,note_on,24,0,6,,,,,,,,5,,,45,0
114000,note_on,48,0,1,,,,,,,,0,,,81,105
114000,note_on,24,0,5,,,,,,,,4,,,42,105
114000,note_on,24,0,4,,,,,,,,3,,,54,105
114000,note_on,48,0,3,,,,,,,,2,,,63,105
114000,note_on,24,0,6,,,,,,,,5,,,75,105
114000,note_on,0,0,6,,,,,,,,5,,,54,105
114000,note_on,48,0,2,,,,,,,,1,,,81,105
114048,note_on,48,0,1,,,,,,,,0,,,81,0
114048,note_on,48,0,2,,,,,,,,1,,,81,0
114060,note_on,12,0,2,,,,,,,,1,,,78,105
114060,note_on,12,0,1,,,,,,,,0,,,78,105
114096,note_on,96,0,5,,,,,,,,4,,,42,0
114096,note_on,96,0,4,,,,,,,,3,,,54,0
114096,note_on,96,0,6,,,,,,,,5,,,54,0
114108,note_on,48,0,2,,,,,,,,1,,,78,0
114108,note_on,48,0,1,,,,,,,,0,,,78,0
114120,note_on,12,0,2,,,,,,,,1,,,75,105
114120,note_on,24,0,5,,,,,,,,4,,,35,105
114120,note_on,24,0,6,,,,,,,,5,,,47,105
114120,note_on,24,0,4,,,,,,,,3,,,47,105
114120,note_on,12,0,1,,,,,,,,0,,,75,105
114168,note_on,48,0,2,,,,,,,,1,,,75,0
114168,note_on,48,0,1,,,,,,,,0,,,75,0
114180,note_on,12,0,2,,,,,,,,1,,,69,105
114180,note_on,12,0,1,,,,,,,,0,,,69,105
114192,note_on,192,0,3,,,,,,,,2,,,63,0
114192,note_on,72,0,6,,,,,,,,5,,,75,0
114216,note_on,24,0,6,,,,,,,,5,,,47,0
114216,note_on,96,0,4,,,,,,,,3,,,47,0
114216,note_on,96,0,5,,,,,,,,4,,,35,0
114228,note_on,48,0,1,,,,,,,,0,,,69,0
114228,note_on,48,0,2,,,,,,,,1,,,69,0
114240,note_on,24,0,5,,,,,,,,4,,,40,105
114240,note_on,48,0,3,,,,,,,,2,,,68,105
114240,note_on,12,0,1,,,,,,,,0,,,71,105
114240,note_on,24,0,6,,,,,,,,5,,,76,105
114240,note_on,0,0,6,,,,,,,,5,,,52,105
114240,note_on,0,0,6,,,,,,,,5,,,68,105
114240,note_on,12,0,2,,,,,,,,1,,,71,105
114240,note_on,24,0,4,,,,,,,,3,,,52,105
114336,note_on,96,0,4,,,,,,,,3,,,52,0
114336,note_on,96,0,5,,,,,,,,4,,,40,0
114336,note_on,96,0,6,,,,,,,,5,,,52,0
114360,note_on,24,0,5,,,,,,,,4,,,28,105
114360,note_on,24,0,6,,,,,,,,5,,,40,105
114360,note_on,24,0,4,,,,,,,,3,,,40,105
114432,note_on,192,0,3,,,,,,,,2,,,68,0
114432,note_on,192,0,2,,,,,,,,1,,,71,0
114432,note_on,192,0,1,,,,,,,,0,,,71,0
114456,note_on,96,0,5,,,,,,,,4,,,28,0
114456,note_on,96,0,6,,,,,,,,5,,,40,0
114456,note_on,96,0,4,,,,,,,,3,,,40,0
114480,note_on,48,0,3,,,,,,,,2,,,71,105
114480,note_on,48,0,2,,,,,,,,1,,,80,105
114480,note_on,24,0,4,,,,,,,,3,,,52,105
114480,note_on,48,0,1,,,,,,,,0,,,80,105
114480,note_on,24,0,6,,,,,,,,5,,,52,105
114480,note_on,24,0,5,,,,,,,,4,,,40,105
114528,note_on,48,0,2,,,,,,,,1,,,80,0
114528,note_on,48,0,6,,,,,,,,5,,,68,0
114528,note_on,48,0,1,,,,,,,,0,,,80,0
114528,note_on,0,0,6,,,,,,,,5,,,76,0
114540,note_on,12,0,2,,,,,,,,1,,,76,105
114540,note_on,12,0,1,,,,,,,,0,,,76,105
114576,note_on,48,0,6,,,,,,,,5,,,52,0
114576,note_on,96,0,3,,,,,,,,2,,,71,0
114576,note_on,96,0,5,,,,,,,,4,,,40,0
114576,note_on,96,0,4,,,,,,,,3,,,52,0
114588,note_on,48,0,1,,,,,,,,0,,,76,0
114588,note_on,48,0,2,,,,,,,,1,,,76,0
114600,note_on,24,0,4,,,,,,,,3,,,50,105
114600,note_on,24,0,3,,,,,,,,2,,,68,105
114600,note_on,24,0,6,,,,,,,,5,,,50,105
114600,note_on,0,0,6,,,,,,,,5,,,80,105
114600,note_on,0,0,6,,,,,,,,5,,,71,105
114600,note_on,24,0,5,,,,,,,,4,,,38,105
114600,note_on,12,0,1,,,,,,,,0,,,71,105
114600,note_on,12,0,2,,,,,,,,1,,,71,105
114648,note_on,48,0,2,,,,,,,,1,,,71,0
114648,note_on,48,0,1,,,,,,,,0,,,71,0
114660,note_on,12,0,2,,,,,,,,1,,,68,105
114660,note_on,12,0,1,,,,,,,,0,,,68,105
114696,note_on,96,0,3,,,,,,,,2,,,68,0
114696,note_on,96,0,4,,,,,,,,3,,,50,0
114696,note_on,96,0,5,,,,,,,,4,,,38,0
114696,note_on,0,0,6,,,,,,,,5,,,50,0
114696,note_on,96,0,6,,,,,,,,5,,,71,0
114696,note_on,0,0,6,,,,,,,,5,,,80,0
114708,note_on,48,0,1,,,,,,,,0,,,68,0
114708,note_on,48,0,2,,,,,,,,1,,,68,0
114720,note_on,12,0,1,,,,,,,,0,,,69,105
114720,note_on,12,0,2,,,,,,,,1,,,69,105
114720,note_on,0,0,6,,,,,,,,5,,,69,105
114720,note_on,0,0,6,,,,,,,,5,,,49,105
114720,note_on,24,0,3,,,,,,,,2,,,64,105
114720,note_on,24,0,6,,,,,,,,5,,,81,105
114720,note_on,24,0,5,,,,,,,,4,,,37,105
114720,note_on,24,0,4,,,,,,,,3,,,49,105
114816,note_on,96,0,4,,,,,,,,3,,,49,0
114816,note_on,96,0,6,,,,,,,,5,,,69,0
114816,note_on,0,0,6,,,,,,,,5,,,49,0
114816,note_on,96,0,5,,,,,,,,4,,,37,0
114840,note_on,24,0,6,,,,,,,,5,,,45,105
114840,note_on,24,0,5,,,,,,,,4,,,33,105
114840,note_on,24,0,4,,,,,,,,3,,,45,105
114840,note_on,0,0,6,,,,,,,,5,,,73,105
114912,note_on,72,0,6,,,,,,,,5,,,81,0
114912,note_on,192,0,3,,,,,,,,2,,,64,0
114912,note_on,192,0,1,,,,,,,,0,,,69,0
114912,note_on,192,0,2,,,,,,,,1,,,69,0
114936,note_on,96,0,4,,,,,,,,3,,,45,0
114936,note_on,96,0,5,,,,,,,,4,,,33,0
114936,note_on,0,0,6,,,,,,,,5,,,45,0
114936,note_on,24,0,6,,,,,,,,5,,,73,0
114960,note_on,48,0,3,,,,,,,,2,,,63,105
114960,note_on,24,0,4,,,,,,,,3,,,47,105
114960,note_on,48,0,2,,,,,,,,1,,,78,105
114960,note_on,48,0,1,,,,,,,,0,,,78,105
114960,note_on,0,0,6,,,,,,,,5,,,47,105
114960,note_on,24,0,6,,,,,,,,5,,,78,105
114960,note_on,0,0,6,,,,,,,,5,,,75,105
114960,note_on,24,0,5,,,,,,,,4,,,35,105
115008,note_on,48,0,1,,,,,,,,0,,,78,0
115008,note_on,48,0,2,,,,,,,,1,,,78,0
115020,note_on,12,0,2,,,,,,,,1,,,75,105
115020,note_on,12,0,1,,,,,,,,0,,,75,105
115056,note_on,0,0,6,,,,,,,,5,,,75,0
115056,note_on,96,0,6,,,,,,,,5,,,47,0
115056,note_on,96,0,4,,,,,,,,3,,,47,0
115056,note_on,96,0,5,,,,,,,,4,,,35,0
115068,note_on,48,0,2,,,,,,,,1,,,75,0
115068,note_on,48,0,1,,,,,,,,0,,,75,0
115080,note_on,12,0,2,,,,,,,,1,,,71,105
115080,note_on,24,0,4,,,,,,,,3,,,51,105
115080,note_on,24,0,5,,,,,,,,4,,,39,105
115080,note_on,0,0,6,,,,,,,,5,,,51,105
115080,note_on,12,0,1,,,,,,,,0,,,71,105
115080,note_on,24,0,6,,,,,,,,5,,,71,105
115128,note_on,48,0,2,,,,,,,,1,,,71,0
115128,note_on,48,0,1,,,,,,,,0,,,71,0
115140,note_on,12,0,1,,,,,,,,0,,,66,105
115140,note_on,12,0,2,,,,,,,,1,,,66,105
115152,note_on,192,0,3,,,,,,,,2,,,63,0
115152,note_on,72,0,6,,,,,,,,5,,,78,0
115176,note_on,24,0,6,,,,,,,,5,,,51,0
115176,note_on,0,0,6,,,,,,,,5,,,71,0
115176,note_on,96,0,4,,,,,,,,3,,,51,0
115176,note_on,96,0,5,,,,,,,,4,,,39,0
115188,note_on,48,0,2,,,,,,,,1,,,66,0
115188,note_on,48,0,1,,,,,,,,0,,,66,0
115200,note_on,0,0,6,,,,,,,,5,,,68,105
115200,note_on,24,0,6,,,,,,,,5,,,80,105
115200,note_on,24,0,5,,,,,,,,4,,,40,105
115200,note_on,12,0,2,,,,,,,,1,,,68,105
115200,note_on,12,0,1,,,,,,,,0,,,68,105
115200,note_on,24,0,4,,,,,,,,3,,,52,105
115200,note_on,0,0,6,,,,,,,,5,,,52,105
115200,note_on,48,0,3,,,,,,,,2,,,59,105
115296,note_on,96,0,1,,,,,,,,0,,,68,0
115296,note_on,96,0,4,,,,,,,,3,,,52,0
115296,note_on,96,0,5,,,,,,,,4,,,40,0
115296,note_on,96,0,6,,,,,,,,5,,,52,0
115320,note_on,24,0,6,,,,,,,,5,,,54,105
115320,note_on,24,0,4,,,,,,,,3,,,54,105
115320,note_on,24,0,5,,,,,,,,4,,,42,105
115320,note_on,24,0,1,,,,,,,,0,,,71,105
115392,note_on,72,0,6,,,,,,,,5,,,68,0
115392,note_on,0,0,6,,,,,,,,5,,,80,0
115392,note_on,192,0,3,,,,,,,,2,,,59,0
115392,note_on,192,0,2,,,,,,,,1,,,68,0
115416,note_on,96,0,4,,,,,,,,3,,,54,0
115416,note_on,24,0,6,,,,,,,,5,,,54,0
115416,note_on,96,0,1,,,,,,,,0,,,71,0
115416,note_on,96,0,5,,,,,,,,4,,,42,0
115440,note_on,24,0,5,,,,,,,,4,,,44,105
115440,note_on,24,0,4,,,,,,,,3,,,56,105
115440,note_on,24,0,1,,,,,,,,0,,,76,105
115440,note_on,24,0,6,,,,,,,,5,,,56,105
115536,note_on,96,0,4,,,,,,,,3,,,56,0
115536,note_on,96,0,6,,,,,,,,5,,,56,0
115536,note_on,96,0,5,,,,,,,,4,,,44,0
115560,note_on,168,0,2,,,,,,,,1,,,71,105
115560,note_on,24,0,6,,,,,,,,5,,,52,105
115560,note_on,168,0,3,,,,,,,,2,,,68,105
115560,note_on,24,0,4,,,,,,,,3,,,52,105
115560,note_on,24,0,5,,,,,,,,4,,,40,105
115560,note_on,0,0,6,,,,,,,,5,,,76,105
115656,note_on,96,0,5,,,,,,,,4,,,40,0
115656,note_on,96,0,4,,,,,,,,3,,,52,0
115656,note_on,96,0,6,,,,,,,,5,,,52,0
115656,note_on,96,0,3,,,,,,,,2,,,68,0
115656,note_on,96,0,2,,,,,,,,1,,,71,0
115680,note_on,0,0,6,,,,,,,,5,,,57,105
115680,note_on,24,0,5,,,,,,,,4,,,45,105
115680,note_on,24,0,3,,,,,,,,2,,,73,105
115680,note_on,24,0,2,,,,,,,,1,,,78,105
115680,note_on,24,0,6,,,,,,,,5,,,78,105
115680,note_on,24,0,4,,,,,,,,3,,,57,105
115776,note_on,96,0,5,,,,,,,,4,,,45,0
115776,note_on,336,0,1,,,,,,,,0,,,76,0
115776,note_on,96,0,3,,,,,,,,2,,,73,0
115776,note_on,0,0,6,,,,,,,,5,,,76,0
115776,note_on,96,0,4,,,,,,,,3,,,57,0
115776,note_on,96,0,6,,,,,,,,5,,,57,0
115800,note_on,24,0,3,,,,,,,,2,,,71,105
115800,note_on,24,0,6,,,,,,,,5,,,59,105
115800,note_on,0,0,6,,,,,,,,5,,,75,105
115800,note_on,24,0,4,,,,,,,,3,,,59,105
115800,note_on,24,0,5,,,,,,,,4,,,47,105
115800,note_on,24,0,1,,,,,,,,0,,,75,105
115896,note_on,96,0,1,,,,,,,,0,,,75,0
115896,note_on,96,0,6,,,,,,,,5,,,75,0
115896,note_on,96,0,4,,,,,,,,3,,,59,0
115896,note_on,0,0,6,,,,,,,,5,,,59,0
115896,note_on,96,0,3,,,,,,,,2,,,71,0
115896,note_on,96,0,5,,,,,,,,4,,,47,0
115920,note_on,24,0,5,,,,,,,,4,,,52,105
115920,note_on,24,0,1,,,,,,,,0,,,80,105
115920,note_on,24,0,6,,,,,,,,5,,,64,105
115920,note_on,0,0,6,,,,,,,,5,,,80,105
115920,note_on,24,0,4,,,,,,,,3,,,64,105
115968,note_on,288,0,2,,,,,,,,1,,,78,0
115968,note_on,48,0,6,,,,,,,,5,,,78,0
116016,note_on,96,0,5,,,,,,,,4,,,52,0
116016,note_on,96,0,4,,,,,,,,3,,,64,0
116016,note_on,48,0,6,,,,,,,,5,,,64,0
116040,note_on,24,0,6,,,,,,,,5,,,52,105
116040,note_on,0,0,6,,,,,,,,5,,,76,105
116040,note_on,72,0,2,,,,,,,,1,,,76,105
116040,note_on,24,0,4,,,,,,,,3,,,52,105
116040,note_on,144,0,3,,,,,,,,2,,,71,105
116040,note_on,24,0,5,,,,,,,,4,,,40,105
116136,note_on,96,0,5,,,,,,,,4,,,40,0
116136,note_on,96,0,4,,,,,,,,3,,,52,0
116136,note_on,96,0,3,,,,,,,,2,,,71,0
116136,note_on,0,0,6,,,,,,,,5,,,52,0
116136,note_on,96,0,6,,,,,,,,5,,,76,0
116136,note_on,96,0,2,,,,,,,,1,,,76,0
116160,note_on,24,0,2,,,,,,,,1,,,81,105
116160,note_on,24,0,4,,,,,,,,3,,,54,105
116160,note_on,24,0,5,,,,,,,,4,,,42,105
116160,note_on,24,0,3,,,,,,,,2,,,69,105
116160,note_on,24,0,6,,,,,,,,5,,,81,105
116160,note_on,0,0,6,,,,,,,,5,,,54,105
116256,note_on,96,0,4,,,,,,,,3,,,54,0
116256,note_on,96,0,5,,,,,,,,4,,,42,0
116256,note_on,336,0,1,,,,,,,,0,,,80,0
116256,note_on,96,0,6,,,,,,,,5,,,54,0
116256,note_on,0,0,6,,,,,,,,5,,,80,0
116280,note_on,24,0,5,,,,,,,,4,,,39,105
116280,note_on,24,0,4,,,,,,,,3,,,51,105
116280,note_on,24,0,1,,,,,,,,0,,,78,105
116280,note_on,24,0,6,,,,,,,,5,,,51,105
116280,note_on,0,0,6,,,,,,,,5,,,78,105
116352,note_on,192,0,3,,,,,,,,2,,,69,0
116376,note_on,0,0,6,,,,,,,,5,,,51,0
116376,note_on,96,0,6,,,,,,,,5,,,78,0
116376,note_on,96,0,5,,,,,,,,4,,,39,0
116376,note_on,96,0,4,,,,,,,,3,,,51,0
116376,note_on,96,0,1,,,,,,,,0,,,78,0
116400,note_on,24,0,1,,,,,,,,0,,,83,105
116400,note_on,0,0,6,,,,,,,,5,,,52,105
116400,note_on,24,0,4,,,,,,,,3,,,52,105
116400,note_on,24,0,6,,,,,,,,5,,,83,105
116400,note_on,24,0,5,,,,,,,,4,,,40,105
116448,note_on,48,0,6,,,,,,,,5,,,81,0
116448,note_on,288,0,2,,,,,,,,1,,,81,0
116496,note_on,96,0,4,,,,,,,,3,,,52,0
116496,note_on,96,0,5,,,,,,,,4,,,40,0
116496,note_on,48,0,6,,,,,,,,5,,,52,0
116520,note_on,168,0,3,,,,,,,,2,,,64,105
116520,note_on,24,0,5,,,,,,,,4,,,28,105
116520,note_on,0,0,6,,,,,,,,5,,,80,105
116520,note_on,24,0,6,,,,,,,,5,,,40,105
116520,note_on,72,0,2,,,,,,,,1,,,80,105
116520,note_on,24,0,4,,,,,,,,3,,,40,105
116616,note_on,96,0,5,,,,,,,,4,,,28,0
116616,note_on,96,0,4,,,,,,,,3,,,40,0
116616,note_on,96,0,6,,,,,,,,5,,,80,0
116616,note_on,0,0,6,,,,,,,,5,,,40,0
116616,note_on,96,0,2,,,,,,,,1,,,80,0
116616,note_on,96,0,3,,,,,,,,2,,,64,0
116640,note_on,24,0,3,,,,,,,,2,,,64,105
116640,note_on,24,0,4,,,,,,,,3,,,45,105
116640,note_on,24,0,5,,,,,,,,4,,,33,105
116640,note_on,24,0,6,,,,,,,,5,,,85,105
116640,note_on,0,0,6,,,,,,,,5,,,45,105
116640,note_on,24,0,2,,,,,,,,1,,,85,105
116736,note_on,336,0,1,,,,,,,,0,,,83,0
116736,note_on,96,0,4,,,,,,,,3,,,45,0
116736,note_on,96,0,3,,,,,,,,2,,,64,0
116736,note_on,96,0,6,,,,,,,,5,,,45,0
116736,note_on,0,0,6,,,,,,,,5,,,83,0
116736,note_on,96,0,5,,,,,,,,4,,,33,0
116760,note_on,24,0,5,,,,,,,,4,,,39,105
116760,note_on,24,0,1,,,,,,,,0,,,81,105
116760,note_on,0,0,6,,,,,,,,5,,,81,105
116760,note_on,24,0,4,,,,,,,,3,,,51,105
116760,note_on,24,0,6,,,,,,,,5,,,51,105
116760,note_on,24,0,3,,,,,,,,2,,,66,105
116832,note_on,72,0,6,,,,,,,,5,,,85,0
116832,note_on,192,0,2,,,,,,,,1,,,85,0
116856,note_on,0,0,6,,,,,,,,5,,,51,0
116856,note_on,24,0,6,,,,,,,,5,,,81,0
116856,note_on,96,0,4,,,,,,,,3,,,51,0
116856,note_on,96,0,5,,,,,,,,4,,,39,0
116856,note_on,96,0,1,,,,,,,,0,,,81,0
116856,note_on,96,0,3,,,,,,,,2,,,66,0
116880,note_on,0,0,6,,,,,,,,5,,,80,105
116880,note_on,0,0,6,,,,,,,,5,,,83,105
116880,note_on,24,0,3,,,,,,,,2,,,68,105
116880,note_on,48,0,2,,,,,,,,1,,,83,105
116880,note_on,24,0,1,,,,,,,,0,,,80,105
116880,note_on,24,0,5,,,,,,,,4,,,40,105
116880,note_on,24,0,4,,,,,,,,3,,,52,105
116880,note_on,24,0,6,,,,,,,,5,,,52,105
116976,note_on,96,0,1,,,,,,,,0,,,80,0
116976,note_on,96,0,4,,,,,,,,3,,,52,0
116976,note_on,0,0,6,,,,,,,,5,,,52,0
116976,note_on,0,0,6,,,,,,,,5,,,80,0
116976,note_on,96,0,6,,,,,,,,5,,,83,0
116976,note_on,96,0,5,,,,,,,,4,,,40,0
116976,note_on,96,0,2,,,,,,,,1,,,83,0
116976,note_on,96,0,3,,,,,,,,2,,,68,0
117000,note_on,24,0,2,,,,,,,,1,,,81,105
117000,note_on,24,0,1,,,,,,,,0,,,78,105
117000,note_on,24,0,4,,,,,,,,3,,,47,105
117000,note_on,0,0,6,,,,,,,,5,,,47,105
117000,note_on,0,0,6,,,,,,,,5,,,78,105
117000,note_on,24,0,5,,,,,,,,4,,,35,105
117000,note_on,24,0,3,,,,,,,,2,,,63,105
117000,note_on,24,0,6,,,,,,,,5,,,81,105
117096,note_on,96,0,5,,,,,,,,4,,,35,0
117096,note_on,0,0,6,,,,,,,,5,,,47,0
117096,note_on,96,0,6,,,,,,,,5,,,78,0
117096,note_on,96,0,1,,,,,,,,0,,,78,0
117096,note_on,96,0,2,,,,,,,,1,,,81,0
117096,note_on,96,0,3,,,,,,,,2,,,63,0
117096,note_on,96,0,4,,,,,,,,3,,,47,0
117096,note_on,0,0,6,,,,,,,,5,,,81,0
117120,note_on,24,0,1,,,,,,,,0,,,76,105
117120,note_on,0,0,6,,,,,,,,5,,,52,105
117120,note_on,0,0,6,,,,,,,,5,,,76,105
117120,note_on,24,0,6,,,,,,,,5,,,80,105
117120,note_on,24,0,3,,,,,,,,2,,,59,105
117120,note_on,24,0,5,,,,,,,,4,,,40,105
117120,note_on,24,0,4,,,,,,,,3,,,52,105
117120,note_on,24,0,2,,,,,,,,1,,,80,105
117168,note_on,48,0,1,,,,,,,,0,,,76,0
117168,note_on,48,0,2,,,,,,,,1,,,80,0
117180,note_on,12,0,1,,,,,,,,0,,,83,105
117180,note_on,12,0,2,,,,,,,,1,,,83,105
117216,note_on,96,0,5,,,,,,,,4,,,40,0
117216,note_on,96,0,4,,,,,,,,3,,,52,0
117216,note_on,96,0,6,,,,,,,,5,,,76,0
117216,note_on,0,0,6,,,,,,,,5,,,52,0
117216,note_on,0,0,6,,,,,,,,5,,,80,0
117228,note_on,48,0,2,,,,,,,,1,,,83,0
117228,note_on,48,0,1,,,,,,,,0,,,83,0
117240,note_on,24,0,6,,,,,,,,5,,,52,105
117240,note_on,24,0,4,,,,,,,,3,,,52,105
117240,note_on,12,0,1,,,,,,,,0,,,80,105
117240,note_on,12,0,2,,,,,,,,1,,,80,105
117240,note_on,24,0,5,,,,,,,,4,,,40,105
117288,note_on,48,0,1,,,,,,,,0,,,80,0
117288,note_on,48,0,2,,,,,,,,1,,,80,0
117300,note_on,12,0,1,,,,,,,,0,,,76,72
117300,note_on,12,0,2,,,,,,,,1,,,76,105
117312,note_on,192,0,3,,,,,,,,2,,,59,0
117336,note_on,96,0,6,,,,,,,,5,,,52,0
117336,note_on,96,0,5,,,,,,,,4,,,40,0
117336,note_on,96,0,4,,,,,,,,3,,,52,0
117348,note_on,48,0,1,,,,,,,,0,,,76,0
117348,note_on,48,0,2,,,,,,,,1,,,76,0
117360,note_on,24,0,6,,,,,,,,5,,,52,105
117360,note_on,0,0,6,,,,,,,,5,,,59,72
117360,note_on,24,0,5,,,,,,,,4,,,40,72
117360,note_on,12,0,2,,,,,,,,1,,,71,72
117360,note_on,24,0,4,,,,,,,,3,,,52,105
117360,note_on,0,0,6,,,,,,,,5,,,68,105
117360,note_on,12,0,1,,,,,,,,0,,,71,72
117360,note_on,48,0,3,,,,,,,,2,,,68,72
117456,note_on,96,0,6,,,,,,,,5,,,52,0
117456,note_on,96,0,5,,,,,,,,4,,,40,0
117456,note_on,96,0,4,,,,,,,,3,,,52,0
117480,note_on,24,0,4,,,,,,,,3,,,52,105
117480,note_on,24,0,6,,,,,,,,5,,,52,72
117480,note_on,24,0,5,,,,,,,,4,,,40,72
117552,note_on,72,0,6,,,,,,,,5,,,59,0
117552,note_on,192,0,2,,,,,,,,1,,,71,0
117552,note_on,192,0,1,,,,,,,,0,,,71,0
117552,note_on,192,0,3,,,,,,,,2,,,68,0
117552,note_on,0,0,6,,,,,,,,5,,,68,0
117576,note_on,24,0,6,,,,,,,,5,,,52,0
117576,note_on,96,0,5,,,,,,,,4,,,40,0
117576,note_on,96,0,4,,,,,,,,3,,,52,0
117600,note_on,0,0,6,,,,,,,,5,,,51,72
117600,note_on,48,0,2,,,,,,,,1,,,72,72
117600,note_on,0,0,6,,,,,,,,5,,,60,72
117600,note_on,48,0,1,,,,,,,,0,,,72,72
117600,note_on,24,0,6,,,,,,,,5,,,69,72
117600,note_on,48,0,3,,,,,,,,2,,,69,72
117600,note_on,24,0,4,,,,,,,,3,,,51,105
117600,note_on,24,0,5,,,,,,,,4,,,39,72
117696,note_on,96,0,6,,,,,,,,5,,,51,0
117696,note_on,96,0,4,,,,,,,,3,,,51,0
117696,note_on,96,0,5,,,,,,,,4,,,39,0
117720,note_on,24,0,6,,,,,,,,5,,,51,72
117720,note_on,24,0,5,,,,,,,,4,,,39,72
117720,note_on,24,0,4,,,,,,,,3,,,51,105
117792,note_on,0,0,6,,,,,,,,5,,,69,0
117792,note_on,192,0,2,,,,,,,,1,,,72,0
117792,note_on,192,0,1,,,,,,,,0,,,72,0
117792,note_on,192,0,3,,,,,,,,2,,,69,0
117792,note_on,72,0,6,,,,,,,,5,,,60,0
117816,note_on,24,0,6,,,,,,,,5,,,51,0
117816,note_on,96,0,4,,,,,,,,3,,,51,0
117816,note_on,96,0,5,,,,,,,,4,,,39,0
117840,note_on,24,0,4,,,,,,,,3,,,52,105
117840,note_on,24,0,5,,,,,,,,4,,,40,72
117840,note_on,48,0,1,,,,,,,,0,,,71,72
117840,note_on,48,0,2,,,,,,,,1,,,71,72
117840,note_on,24,0,6,,,,,,,,5,,,68,72
117840,note_on,48,0,3,,,,,,,,2,,,68,72
117840,note_on,0,0,6,,,,,,,,5,,,52,72
117840,note_on,0,0,6,,,,,,,,5,,,59,72
117936,note_on,96,0,5,,,,,,,,4,,,40,0
117936,note_on,96,0,1,,,,,,,,0,,,71,0
117936,note_on,96,0,3,,,,,,,,2,,,68,0
117936,note_on,96,0,4,,,,,,,,3,,,52,0
117936,note_on,96,0,6,,,,,,,,5,,,52,0
117936,note_on,96,0,2,,,,,,,,1,,,71,0
117936,note_on,0,0,6,,,,,,,,5,,,68,0
117960,note_on,24,0,4,,,,,,,,3,,,47,105
117960,note_on,24,0,5,,,,,,,,4,,,35,72
117960,note_on,24,0,2,,,,,,,,1,,,81,72
117960,note_on,24,0,6,,,,,,,,5,,,69,72
117960,note_on,0,0,6,,,,,,,,5,,,47,72
117960,note_on,24,0,1,,,,,,,,0,,,81,72
117960,note_on,24,0,3,,,,,,,,2,,,63,72
118032,note_on,72,0,6,,,,,,,,5,,,59,0
118056,note_on,96,0,2,,,,,,,,1,,,81,0
118056,note_on,96,0,1,,,,,,,,0,,,81,0
118056,note_on,0,0,6,,,,,,,,5,,,69,0
118056,note_on,96,0,4,,,,,,,,3,,,47,0
118056,note_on,96,0,3,,,,,,,,2,,,63,0
118056,note_on,96,0,5,,,,,,,,4,,,35,0
118056,note_on,24,0,6,,,,,,,,5,,,47,0
118080,note_on,24,0,1,,,,,,,,0,,,80,72
118080,note_on,0,0,6,,,,,,,,5,,,52,72
118080,note_on,24,0,6,,,,,,,,5,,,68,72
118080,note_on,0,0,6,,,,,,,,5,,,64,72
118080,note_on,24,0,2,,,,,,,,1,,,80,72
118080,note_on,24,0,4,,,,,,,,3,,,52,105
118080,note_on,24,0,3,,,,,,,,2,,,59,72
118080,note_on,24,0,5,,,,,,,,4,,,40,72
118176,note_on,96,0,5,,,,,,,,4,,,40,0
118176,note_on,96,0,2,,,,,,,,1,,,80,0
118176,note_on,96,0,4,,,,,,,,3,,,52,0
118176,note_on,96,0,6,,,,,,,,5,,,52,0
118176,note_on,96,0,1,,,,,,,,0,,,80,0
118176,note_on,0,0,6,,,,,,,,5,,,68,0
118200,note_on,24,0,1,,,,,,,,0,,,78,72
118200,note_on,24,0,4,,,,,,,,3,,,40,105
118200,note_on,0,0,6,,,,,,,,5,,,40,72
118200,note_on,24,0,5,,,,,,,,4,,,28,72
118200,note_on,24,0,6,,,,,,,,5,,,71,72
118200,note_on,24,0,2,,,,,,,,1,,,78,72
118248,note_on,48,0,2,,,,,,,,1,,,78,0
118248,note_on,48,0,1,,,,,,,,0,,,78,0
118260,note_on,12,0,2,,,,,,,,1,,,76,72
118260,note_on,12,0,1,,,,,,,,0,,,76,72
118272,note_on,72,0,6,,,,,,,,5,,,64,0
118272,note_on,192,0,3,,,,,,,,2,,,59,0
118296,note_on,96,0,4,,,,,,,,3,,,40,0
118296,note_on,96,0,5,,,,,,,,4,,,28,0
118296,note_on,0,0,6,,,,,,,,5,,,71,0
118296,note_on,24,0,6,,,,,,,,5,,,40,0
118308,note_on,48,0,2,,,,,,,,1,,,76,0
118308,note_on,48,0,1,,,,,,,,0,,,76,0
118320,note_on,12,0,2,,,,,,,,1,,,78,72
118320,note_on,48,0,3,,,,,,,,2,,,73,72
118320,note_on,24,0,5,,,,,,,,4,,,33,72
118320,note_on,24,0,4,,,,,,,,3,,,45,105
118320,note_on,0,0,6,,,,,,,,5,,,61,72
118320,note_on,0,0,6,,,,,,,,5,,,66,72
118320,note_on,24,0,6,,,,,,,,5,,,45,72
118320,note_on,12,0,1,,,,,,,,0,,,78,72
118416,note_on,96,0,1,,,,,,,,0,,,78,0
118416,note_on,96,0,2,,,,,,,,1,,,78,0
118416,note_on,96,0,4,,,,,,,,3,,,45,0
118416,note_on,0,0,6,,,,,,,,5,,,45,0
118416,note_on,96,0,5,,,,,,,,4,,,33,0
118416,note_on,96,0,6,,,,,,,,5,,,61,0
118416,note_on,96,0,3,,,,,,,,2,,,73,0
118440,note_on,24,0,5,,,,,,,,4,,,35,72
118440,note_on,24,0,3,,,,,,,,2,,,66,72
118440,note_on,24,0,1,,,,,,,,0,,,75,72
118440,note_on,24,0,4,,,,,,,,3,,,47,105
118440,note_on,0,0,6,,,,,,,,5,,,63,72
118440,note_on,24,0,6,,,,,,,,5,,,47,72
118440,note_on,24,0,2,,,,,,,,1,,,75,72
118512,note_on,72,0,6,,,,,,,,5,,,66,0
118536,note_on,0,0,6,,,,,,,,5,,,47,0
118536,note_on,24,0,6,,,,,,,,5,,,63,0
118536,note_on,96,0,3,,,,,,,,2,,,66,0
118536,note_on,96,0,4,,,,,,,,3,,,47,0
118536,note_on,96,0,1,,,,,,,,0,,,75,0
118536,note_on,96,0,5,,,,,,,,4,,,35,0
118536,note_on,96,0,2,,,,,,,,1,,,75,0
118560,note_on,24,0,6,,,,,,,,5,,,64,105
118560,note_on,24,0,4,,,,,,,,3,,,52,105
118560,note_on,24,0,1,,,,,,,,0,,,76,72
118560,note_on,24,0,3,,,,,,,,2,,,68,105
118560,note_on,0,0,6,,,,,,,,5,,,52,105
118560,note_on,24,0,2,,,,,,,,1,,,76,72
118560,note_on,24,0,5,,,,,,,,4,,,40,105
118560,note_on,0,0,6,,,,,,,,5,,,56,105
118608,note_on,48,0,1,,,,,,,,0,,,76,0
118608,note_on,48,0,2,,,,,,,,1,,,76,0
118620,note_on,12,0,1,,,,,,,,0,,,83,105
118620,note_on,12,0,2,,,,,,,,1,,,83,105
118656,note_on,96,0,6,,,,,,,,5,,,52,0
118656,note_on,96,0,4,,,,,,,,3,,,52,0
118656,note_on,96,0,5,,,,,,,,4,,,40,0
118668,note_on,48,0,2,,,,,,,,1,,,83,0
118668,note_on,48,0,1,,,,,,,,0,,,83,0
118680,note_on,24,0,6,,,,,,,,5,,,52,105
118680,note_on,12,0,2,,,,,,,,1,,,80,105
118680,note_on,24,0,5,,,,,,,,4,,,40,105
118680,note_on,12,0,1,,,,,,,,0,,,80,105
118680,note_on,24,0,4,,,,,,,,3,,,52,105
118728,note_on,48,0,2,,,,,,,,1,,,80,0
118728,note_on,48,0,1,,,,,,,,0,,,80,0
118740,note_on,12,0,1,,,,,,,,0,,,76,105
118740,note_on,12,0,2,,,,,,,,1,,,76,105
118752,note_on,72,0,6,,,,,,,,5,,,56,0
118752,note_on,192,0,3,,,,,,,,2,,,68,0
118752,note_on,0,0,6,,,,,,,,5,,,64,0
118776,note_on,96,0,4,,,,,,,,3,,,52,0
118776,note_on,96,0,5,,,,,,,,4,,,40,0
118776,note_on,24,0,6,,,,,,,,5,,,52,0
118788,note_on,48,0,2,,,,,,,,1,,,76,0
118788,note_on,48,0,1,,,,,,,,0,,,76,0
118800,note_on,0,0,6,,,,,,,,5,,,68,105
118800,note_on,24,0,6,,,,,,,,5,,,52,105
118800,note_on,0,0,6,,,,,,,,5,,,59,105
118800,note_on,48,0,3,,,,,,,,2,,,68,105
118800,note_on,24,0,4,,,,,,,,3,,,52,105
118800,note_on,24,0,5,,,,,,,,4,,,40,105
118800,note_on,12,0,2,,,,,,,,1,,,71,105
118800,note_on,12,0,1,,,,,,,,0,,,71,105
118896,note_on,96,0,4,,,,,,,,3,,,52,0
118896,note_on,96,0,5,,,,,,,,4,,,40,0
118896,note_on,96,0,6,,,,,,,,5,,,52,0
118920,note_on,24,0,5,,,,,,,,4,,,40,105
118920,note_on,24,0,6,,,,,,,,5,,,52,105
118920,note_on,24,0,4,,,,,,,,3,,,52,105
118992,note_on,192,0,2,,,,,,,,1,,,71,0
118992,note_on,192,0,3,,,,,,,,2,,,68,0
118992,note_on,192,0,1,,,,,,,,0,,,71,0
118992,note_on,72,0,6,,,,,,,,5,,,59,0
118992,note_on,0,0,6,,,,,,,,5,,,68,0
119016,note_on,96,0,4,,,,,,,,3,,,52,0
119016,note_on,96,0,5,,,,,,,,4,,,40,0
119016,note_on,24,0,6,,,,,,,,5,,,52,0
119040,note_on,24,0,4,,,,,,,,3,,,51,105
119040,note_on,24,0,5,,,,,,,,4,,,39,105
119040,note_on,48,0,2,,,,,,,,1,,,72,105
119040,note_on,48,0,1,,,,,,,,0,,,72,105
119040,note_on,24,0,6,,,,,,,,5,,,69,105
119040,note_on,0,0,6,,,,,,,,5,,,51,105
119040,note_on,48,0,3,,,,,,,,2,,,69,105
119040,note_on,0,0,6,,,,,,,,5,,,60,105
119136,note_on,96,0,6,,,,,,,,5,,,51,0
119136,note_on,96,0,4,,,,,,,,3,,,51,0
119136,note_on,96,0,5,,,,,,,,4,,,39,0
119160,note_on,24,0,6,,,,,,,,5,,,51,105
119160,note_on,24,0,5,,,,,,,,4,,,39,105
119160,note_on,24,0,4,,,,,,,,3,,,51,105
119232,note_on,192,0,3,,,,,,,,2,,,69,0
119232,note_on,192,0,1,,,,,,,,0,,,72,0
119232,note_on,0,0,6,,,,,,,,5,,,69,0
119232,note_on,72,0,6,,,,,,,,5,,,60,0
119232,note_on,192,0,2,,,,,,,,1,,,72,0
119256,note_on,96,0,4,,,,,,,,3,,,51,0
119256,note_on,96,0,5,,,,,,,,4,,,39,0
119256,note_on,24,0,6,,,,,,,,5,,,51,0
119280,note_on,24,0,4,,,,,,,,3,,,52,105
119280,note_on,0,0,6,,,,,,,,5,,,52,105
119280,note_on,24,0,6,,,,,,,,5,,,68,105
119280,note_on,24,0,5,,,,,,,,4,,,40,105
119280,note_on,48,0,1,,,,,,,,0,,,71,105
119280,note_on,48,0,3,,,,,,,,2,,,68,105
119280,note_on,48,0,2,,,,,,,,1,,,71,105
119280,note_on,0,0,6,,,,,,,,5,,,59,105
119376,note_on,96,0,2,,,,,,,,1,,,71,0
119376,note_on,96,0,6,,,,,,,,5,,,52,0
119376,note_on,96,0,4,,,,,,,,3,,,52,0
119376,note_on,96,0,5,,,,,,,,4,,,40,0
119376,note_on,0,0,6,,,,,,,,5,,,68,0
119376,note_on,96,0,1,,,,,,,,0,,,71,0
119376,note_on,96,0,3,,,,,,,,2,,,68,0
119400,note_on,24,0,1,,,,,,,,0,,,81,105
119400,note_on,24,0,6,,,,,,,,5,,,69,105
119400,note_on,24,0,5,,,,,,,,4,,,35,105
119400,note_on,24,0,2,,,,,,,,1,,,81,105
119400,note_on,24,0,4,,,,,,,,3,,,47,105
119400,note_on,0,0,6,,,,,,,,5,,,47,105
119400,note_on,24,0,3,,,,,,,,2,,,62,105
119472,note_on,72,0,6,,,,,,,,5,,,59,0
119496,note_on,24,0,6,,,,,,,,5,,,47,0
119496,note_on,0,0,6,,,,,,,,5,,,69,0
119496,note_on,96,0,5,,,,,,,,4,,,35,0
119496,note_on,96,0,1,,,,,,,,0,,,81,0
119496,note_on,96,0,2,,,,,,,,1,,,81,0
119496,note_on,96,0,3,,,,,,,,2,,,62,0
119496,note_on,96,0,4,,,,,,,,3,,,47,0
119520,note_on,24,0,1,,,,,,,,0,,,80,105
119520,note_on,0,0,6,,,,,,,,5,,,64,105
119520,note_on,24,0,3,,,,,,,,2,,,59,105
119520,note_on,0,0,6,,,,,,,,5,,,52,105
119520,note_on,24,0,2,,,,,,,,1,,,80,105
119520,note_on,24,0,5,,,,,,,,4,,,40,105
119520,note_on,24,0,4,,,,,,,,3,,,52,105
119520,note_on,24,0,6,,,,,,,,5,,,68,105
119616,note_on,0,0,6,,,,,,,,5,,,68,0
119616,note_on,96,0,2,,,,,,,,1,,,80,0
119616,note_on,96,0,5,,,,,,,,4,,,40,0
119616,note_on,96,0,6,,,,,,,,5,,,52,0
119616,note_on,96,0,4,,,,,,,,3,,,52,0
119616,note_on,96,0,1,,,,,,,,0,,,80,0
119640,note_on,24,0,4,,,,,,,,3,,,40,105
119640,note_on,24,0,1,,,,,,,,0,,,78,105
119640,note_on,24,0,5,,,,,,,,4,,,28,105
119640,note_on,24,0,6,,,,,,,,5,,,71,105
119640,note_on,0,0,6,,,,,,,,5,,,40,105
119640,note_on,24,0,2,,,,,,,,1,,,78,105
119688,note_on,48,0,2,,,,,,,,1,,,78,0
119688,note_on,48,0,1,,,,,,,,0,,,78,0
119700,note_on,12,0,1,,,,,,,,0,,,76,105
119700,note_on,12,0,2,,,,,,,,1,,,76,105
119712,note_on,192,0,3,,,,,,,,2,,,59,0
119712,note_on,72,0,6,,,,,,,,5,,,64,0
119736,note_on,96,0,5,,,,,,,,4,,,28,0
119736,note_on,96,0,4,,,,,,,,3,,,40,0
119736,note_on,0,0,6,,,,,,,,5,,,71,0
119736,note_on,24,0,6,,,,,,,,5,,,40,0
119748,note_on,48,0,2,,,,,,,,1,,,76,0
119748,note_on,48,0,1,,,,,,,,0,,,76,0
119760,note_on,0,0,6,,,,,,,,5,,,61,105
119760,note_on,24,0,4,,,,,,,,3,,,45,105
119760,note_on,12,0,1,,,,,,,,0,,,78,105
119760,note_on,12,0,2,,,,,,,,1,,,78,105
119760,note_on,48,0,3,,,,,,,,2,,,73,105
119760,note_on,0,0,6,,,,,,,,5,,,66,105
119760,note_on,24,0,6,,,,,,,,5,,,45,105
119760,note_on,24,0,5,,,,,,,,4,,,33,105
119856,note_on,96,0,4,,,,,,,,3,,,45,0
119856,note_on,96,0,6,,,,,,,,5,,,61,0
119856,note_on,0,0,6,,,,,,,,5,,,45,0
119856,note_on,96,0,2,,,,,,,,1,,,78,0
119856,note_on,96,0,1,,,,,,,,0,,,78,0
119856,note_on,96,0,3,,,,,,,,2,,,73,0
119856,note_on,96,0,5,,,,,,,,4,,,33,0
119880,note_on,24,0,5,,,,,,,,4,,,35,105
119880,note_on,24,0,2,,,,,,,,1,,,75,105
119880,note_on,24,0,4,,,,,,,,3,,,47,105
119880,note_on,24,0,1,,,,,,,,0,,,75,105
119880,note_on,24,0,6,,,,,,,,5,,,47,105
119880,note_on,0,0,6,,,,,,,,5,,,63,105
119880,note_on,24,0,3,,,,,,,,2,,,66,105
119952,note_on,72,0,6,,,,,,,,5,,,66,0
119976,note_on,96,0,5,,,,,,,,4,,,35,0
119976,note_on,24,0,6,,,,,,,,5,,,63,0
119976,note_on,96,0,3,,,,,,,,2,,,66,0
119976,note_on,96,0,4,,,,,,,,3,,,47,0
119976,note_on,96,0,1,,,,,,,,0,,,75,0
119976,note_on,0,0,6,,,,,,,,5,,,47,0
119976,note_on,96,0,2,,,,,,,,1,,,75,0
120000,note_on,24,0,1,,,,,,,,0,,,76,105
120000,note_on,24,0,6,,,,,,,,5,,,64,105
120000,note_on,24,0,4,,,,,,,,3,,,40,105
120000,note_on,24,0,3,,,,,,,,2,,,68,72
120000,note_on,24,0,2,,,,,,,,1,,,76,105
120000,note_on,0,0,6,,,,,,,,5,,,40,105
120000,note_on,24,0,5,,,,,,,,4,,,28,105
120096,note_on,96,0,1,,,,,,,,0,,,76,0
120096,note_on,96,0,2,,,,,,,,1,,,76,0
120120,note_on,24,0,2,,,,,,,,1,,,64,105
120120,note_on,24,0,1,,,,,,,,0,,,68,105
120168,note_on,48,0,1,,,,,,,,0,,,68,0
120168,note_on,48,0,2,,,,,,,,1,,,64,0
120180,note_on,12,0,1,,,,,,,,0,,,69,105
120180,note_on,12,0,2,,,,,,,,1,,,66,72
120192,note_on,192,0,6,,,,,,,,5,,,40,0
120192,note_on,192,0,5,,,,,,,,4,,,28,0
120192,note_on,192,0,4,,,,,,,,3,,,40,0
120192,note_on,0,0,6,,,,,,,,5,,,64,0
120192,note_on,192,0,3,,,,,,,,2,,,68,0
120228,note_on,48,0,1,,,,,,,,0,,,69,0
120228,note_on,48,0,2,,,,,,,,1,,,66,0
120240,note_on,12,0,1,,,,,,,,0,,,71,105
120240,note_on,12,0,2,,,,,,,,1,,,68,72
120360,note_on,168,0,4,,,,,,,,3,,,56,72
120360,note_on,168,0,3,,,,,,,,2,,,59,72
120360,note_on,168,0,6,,,,,,,,5,,,71,72
120360,note_on,168,0,5,,,,,,,,4,,,44,72
120360,note_on,0,0,6,,,,,,,,5,,,56,72
120408,note_on,48,0,6,,,,,,,,5,,,56,0
120408,note_on,48,0,4,,,,,,,,3,,,56,0
120408,note_on,0,0,6,,,,,,,,5,,,71,0
120408,note_on,48,0,3,,,,,,,,2,,,59,0
120408,note_on,48,0,5,,,,,,,,4,,,44,0
120420,note_on,12,0,3,,,,,,,,2,,,57,72
120420,note_on,12,0,5,,,,,,,,4,,,42,72
120420,note_on,0,0,6,,,,,,,,5,,,54,72
120420,note_on,12,0,6,,,,,,,,5,,,69,72
120420,note_on,12,0,4,,,,,,,,3,,,54,72
120468,note_on,48,0,4,,,,,,,,3,,,54,0
120468,note_on,48,0,3,,,,,,,,2,,,57,0
120468,note_on,0,0,6,,,,,,,,5,,,69,0
120468,note_on,48,0,6,,,,,,,,5,,,54,0
120468,note_on,48,0,5,,,,,,,,4,,,42,0
120480,note_on,12,0,6,,,,,,,,5,,,52,72
120480,note_on,0,0,6,,,,,,,,5,,,68,72
120480,note_on,12,0,3,,,,,,,,2,,,56,72
120480,note_on,12,0,5,,,,,,,,4,,,40,72
120480,note_on,12,0,4,,,,,,,,3,,,52,72
120576,note_on,96,0,6,,,,,,,,5,,,52,0
120576,note_on,96,0,5,,,,,,,,4,,,40,0
120576,note_on,96,0,4,,,,,,,,3,,,52,0
120576,note_on,336,0,2,,,,,,,,1,,,68,0
120576,note_on,336,0,1,,,,,,,,0,,,71,0
120600,note_on,24,0,2,,,,,,,,1,,,64,72
120600,note_on,24,0,1,,,,,,,,0,,,68,105
120600,note_on,24,0,4,,,,,,,,3,,,40,72
120600,note_on,24,0,6,,,,,,,,5,,,40,72
120600,note_on,24,0,5,,,,,,,,4,,,28,72
120648,note_on,48,0,2,,,,,,,,1,,,64,0
120648,note_on,48,0,1,,,,,,,,0,,,68,0
120660,note_on,12,0,2,,,,,,,,1,,,66,72
120660,note_on,12,0,1,,,,,,,,0,,,69,105
120672,note_on,192,0,3,,,,,,,,2,,,56,0
120672,note_on,72,0,6,,,,,,,,5,,,68,0
120696,note_on,24,0,6,,,,,,,,5,,,40,0
120696,note_on,96,0,5,,,,,,,,4,,,28,0
120696,note_on,96,0,4,,,,,,,,3,,,40,0
120708,note_on,48,0,1,,,,,,,,0,,,69,0
120708,note_on,48,0,2,,,,,,,,1,,,66,0
120720,note_on,12,0,1,,,,,,,,0,,,71,105
120720,note_on,12,0,2,,,,,,,,1,,,71,72
120840,note_on,0,0,6,,,,,,,,5,,,71,72
120840,note_on,144,0,6,,,,,,,,5,,,56,72
120840,note_on,144,0,4,,,,,,,,3,,,56,72
120840,note_on,144,0,5,,,,,,,,4,,,44,72
120840,note_on,168,0,3,,,,,,,,2,,,59,72
120888,note_on,48,0,5,,,,,,,,4,,,44,0
120888,note_on,0,0,6,,,,,,,,5,,,56,0
120888,note_on,48,0,6,,,,,,,,5,,,71,0
120888,note_on,48,0,3,,,,,,,,2,,,59,0
120888,note_on,48,0,4,,,,,,,,3,,,56,0
120900,note_on,12,0,6,,,,,,,,5,,,69,72
120900,note_on,12,0,4,,,,,,,,3,,,54,72
120900,note_on,12,0,3,,,,,,,,2,,,57,72
120900,note_on,0,0,6,,,,,,,,5,,,54,72
120900,note_on,12,0,5,,,,,,,,4,,,42,72
120948,note_on,0,0,6,,,,,,,,5,,,69,0
120948,note_on,48,0,3,,,,,,,,2,,,57,0
120948,note_on,48,0,5,,,,,,,,4,,,42,0
120948,note_on,48,0,4,,,,,,,,3,,,54,0
120948,note_on,48,0,6,,,,,,,,5,,,54,0
120960,note_on,12,0,6,,,,,,,,5,,,68,72
120960,note_on,0,0,6,,,,,,,,5,,,52,72
120960,note_on,12,0,4,,,,,,,,3,,,52,72
120960,note_on,12,0,5,,,,,,,,4,,,40,72
120960,note_on,0,0,6,,,,,,,,5,,,59,72
120960,note_on,12,0,3,,,,,,,,2,,,56,72
121008,note_on,288,0,2,,,,,,,,1,,,71,0
121008,note_on,288,0,1,,,,,,,,0,,,71,0
121020,note_on,12,0,1,,,,,,,,0,,,83,105
121020,note_on,12,0,2,,,,,,,,1,,,83,72
121056,note_on,96,0,6,,,,,,,,5,,,52,0
121056,note_on,96,0,5,,,,,,,,4,,,40,0
121056,note_on,96,0,4,,,,,,,,3,,,52,0
121068,note_on,48,0,2,,,,,,,,1,,,83,0
121068,note_on,48,0,1,,,,,,,,0,,,83,0
121080,note_on,24,0,6,,,,,,,,5,,,40,72
121080,note_on,24,0,5,,,,,,,,4,,,28,72
121080,note_on,12,0,2,,,,,,,,1,,,80,72
121080,note_on,12,0,1,,,,,,,,0,,,80,105
121080,note_on,24,0,4,,,,,,,,3,,,40,72
121128,note_on,48,0,1,,,,,,,,0,,,80,0
121128,note_on,48,0,2,,,,,,,,1,,,80,0
121140,note_on,12,0,1,,,,,,,,0,,,76,105
121140,note_on,12,0,2,,,,,,,,1,,,76,72
121152,note_on,192,0,3,,,,,,,,2,,,56,0
121152,note_on,0,0,6,,,,,,,,5,,,68,0
121152,note_on,72,0,6,,,,,,,,5,,,59,0
121176,note_on,96,0,5,,,,,,,,4,,,28,0
121176,note_on,96,0,4,,,,,,,,3,,,40,0
121176,note_on,24,0,6,,,,,,,,5,,,40,0
121188,note_on,48,0,1,,,,,,,,0,,,76,0
121188,note_on,48,0,2,,,,,,,,1,,,76,0
121200,note_on,12,0,1,,,,,,,,0,,,71,105
121200,note_on,0,0,6,,,,,,,,5,,,68,72
121200,note_on,24,0,6,,,,,,,,5,,,52,72
121200,note_on,48,0,3,,,,,,,,2,,,68,105
121200,note_on,24,0,5,,,,,,,,4,,,40,105
121200,note_on,12,0,2,,,,,,,,1,,,71,105
121200,note_on,24,0,4,,,,,,,,3,,,52,72
121296,note_on,96,0,6,,,,,,,,5,,,52,0
121296,note_on,96,0,5,,,,,,,,4,,,40,0
121296,note_on,96,0,4,,,,,,,,3,,,52,0
121320,note_on,24,0,6,,,,,,,,5,,,52,105
121320,note_on,24,0,5,,,,,,,,4,,,40,105
121320,note_on,24,0,4,,,,,,,,3,,,52,72
121392,note_on,192,0,1,,,,,,,,0,,,71,0
121392,note_on,72,0,6,,,,,,,,5,,,68,0
121392,note_on,192,0,3,,,,,,,,2,,,68,0
121392,note_on,192,0,2,,,,,,,,1,,,71,0
121416,note_on,96,0,4,,,,,,,,3,,,52,0
121416,note_on,24,0,6,,,,,,,,5,,,52,0
121416,note_on,96,0,5,,,,,,,,4,,,40,0
121440,note_on,48,0,1,,,,,,,,0,,,72,105
121440,note_on,24,0,5,,,,,,,,4,,,39,105
121440,note_on,24,0,6,,,,,,,,5,,,60,105
121440,note_on,48,0,3,,,,,,,,2,,,69,105
121440,note_on,0,0,6,,,,,,,,5,,,69,105
121440,note_on,48,0,2,,,,,,,,1,,,72,105
121440,note_on,24,0,4,,,,,,,,3,,,51,72
121440,note_on,0,0,6,,,,,,,,5,,,51,105
121536,note_on,96,0,4,,,,,,,,3,,,51,0
121536,note_on,96,0,5,,,,,,,,4,,,39,0
121536,note_on,96,0,6,,,,,,,,5,,,51,0
121560,note_on,24,0,6,,,,,,,,5,,,51,105
121560,note_on,24,0,5,,,,,,,,4,,,39,105
121560,note_on,24,0,4,,,,,,,,3,,,51,72
121632,note_on,192,0,3,,,,,,,,2,,,69,0
121632,note_on,192,0,1,,,,,,,,0,,,72,0
121632,note_on,0,0,6,,,,,,,,5,,,60,0
121632,note_on,192,0,2,,,,,,,,1,,,72,0
121632,note_on,72,0,6,,,,,,,,5,,,69,0
121656,note_on,96,0,4,,,,,,,,3,,,51,0
121656,note_on,24,0,6,,,,,,,,5,,,51,0
121656,note_on,96,0,5,,,,,,,,4,,,39,0
121680,note_on,24,0,6,,,,,,,,5,,,68,105
121680,note_on,0,0,6,,,,,,,,5,,,52,105
121680,note_on,0,0,6,,,,,,,,5,,,59,105
121680,note_on,48,0,3,,,,,,,,2,,,68,105
121680,note_on,48,0,2,,,,,,,,1,,,71,105
121680,note_on,48,0,1,,,,,,,,0,,,71,105
121680,note_on,24,0,4,,,,,,,,3,,,52,72
121680,note_on,24,0,5,,,,,,,,4,,,40,105
121776,note_on,96,0,6,,,,,,,,5,,,52,0
121776,note_on,96,0,2,,,,,,,,1,,,71,0
121776,note_on,96,0,4,,,,,,,,3,,,52,0
121776,note_on,96,0,5,,,,,,,,4,,,40,0
121776,note_on,96,0,3,,,,,,,,2,,,68,0
121776,note_on,0,0,6,,,,,,,,5,,,68,0
121776,note_on,96,0,1,,,,,,,,0,,,71,0
121800,note_on,24,0,4,,,,,,,,3,,,47,72
121800,note_on,24,0,3,,,,,,,,2,,,62,105
121800,note_on,24,0,2,,,,,,,,1,,,81,105
121800,note_on,24,0,6,,,,,,,,5,,,69,105
121800,note_on,24,0,1,,,,,,,,0,,,81,105
121800,note_on,24,0,5,,,,,,,,4,,,35,105
121800,note_on,0,0,6,,,,,,,,5,,,47,105
121872,note_on,72,0,6,,,,,,,,5,,,59,0
121896,note_on,24,0,6,,,,,,,,5,,,47,0
121896,note_on,0,0,6,,,,,,,,5,,,69,0
121896,note_on,96,0,3,,,,,,,,2,,,62,0
121896,note_on,96,0,5,,,,,,,,4,,,35,0
121896,note_on,96,0,2,,,,,,,,1,,,81,0
121896,note_on,96,0,1,,,,,,,,0,,,81,0
121896,note_on,96,0,4,,,,,,,,3,,,47,0
121920,note_on,24,0,5,,,,,,,,4,,,40,105
121920,note_on,24,0,2,,,,,,,,1,,,80,105
121920,note_on,24,0,1,,,,,,,,0,,,80,105
121920,note_on,0,0,6,,,,,,,,5,,,68,105
121920,note_on,24,0,4,,,,,,,,3,,,52,72
121920,note_on,24,0,3,,,,,,,,2,,,59,105
121920,note_on,24,0,6,,,,,,,,5,,,64,105
121920,note_on,0,0,6,,,,,,,,5,,,52,105
122016,note_on,96,0,2,,,,,,,,1,,,80,0
122016,note_on,96,0,4,,,,,,,,3,,,52,0
122016,note_on,96,0,5,,,,,,,,4,,,40,0
122016,note_on,96,0,6,,,,,,,,5,,,68,0
122016,note_on,0,0,6,,,,,,,,5,,,52,0
122016,note_on,96,0,1,,,,,,,,0,,,80,0
122040,note_on,24,0,4,,,,,,,,3,,,40,72
122040,note_on,24,0,5,,,,,,,,4,,,28,105
122040,note_on,24,0,6,,,,,,,,5,,,71,105
122040,note_on,0,0,6,,,,,,,,5,,,40,105
122040,note_on,24,0,1,,,,,,,,0,,,78,105
122040,note_on,24,0,2,,,,,,,,1,,,78,105
122088,note_on,48,0,2,,,,,,,,1,,,78,0
122088,note_on,48,0,1,,,,,,,,0,,,78,0
122100,note_on,12,0,2,,,,,,,,1,,,76,105
122100,note_on,12,0,1,,,,,,,,0,,,76,105
122112,note_on,72,0,6,,,,,,,,5,,,64,0
122112,note_on,192,0,3,,,,,,,,2,,,59,0
122136,note_on,96,0,4,,,,,,,,3,,,40,0
122136,note_on,0,0,6,,,,,,,,5,,,71,0
122136,note_on,24,0,6,,,,,,,,5,,,40,0
122136,note_on,96,0,5,,,,,,,,4,,,28,0
122148,note_on,48,0,2,,,,,,,,1,,,76,0
122148,note_on,48,0,1,,,,,,,,0,,,76,0
122160,note_on,12,0,1,,,,,,,,0,,,78,105
122160,note_on,24,0,5,,,,,,,,4,,,33,105
122160,note_on,0,0,6,,,,,,,,5,,,66,105
122160,note_on,24,0,4,,,,,,,,3,,,45,72
122160,note_on,24,0,6,,,,,,,,5,,,45,105
122160,note_on,12,0,2,,,,,,,,1,,,78,105
122160,note_on,0,0,6,,,,,,,,5,,,61,105
122160,note_on,48,0,3,,,,,,,,2,,,73,105
122256,note_on,96,0,2,,,,,,,,1,,,78,0
122256,note_on,96,0,4,,,,,,,,3,,,45,0
122256,note_on,96,0,1,,,,,,,,0,,,78,0
122256,note_on,0,0,6,,,,,,,,5,,,45,0
122256,note_on,96,0,3,,,,,,,,2,,,73,0
122256,note_on,96,0,6,,,,,,,,5,,,61,0
122256,note_on,96,0,5,,,,,,,,4,,,33,0
122280,note_on,24,0,6,,,,,,,,5,,,47,105
122280,note_on,24,0,5,,,,,,,,4,,,35,105
122280,note_on,24,0,4,,,,,,,,3,,,47,72
122280,note_on,0,0,6,,,,,,,,5,,,63,105
122280,note_on,24,0,2,,,,,,,,1,,,75,105
122280,note_on,24,0,3,,,,,,,,2,,,66,105
122280,note_on,24,0,1,,,,,,,,0,,,75,105
122352,note_on,72,0,6,,,,,,,,5,,,66,0
122376,note_on,96,0,1,,,,,,,,0,,,75,0
122376,note_on,24,0,6,,,,,,,,5,,,63,0
122376,note_on,96,0,4,,,,,,,,3,,,47,0
122376,note_on,96,0,2,,,,,,,,1,,,75,0
122376,note_on,96,0,5,,,,,,,,4,,,35,0
122376,note_on,0,0,6,,,,,,,,5,,,47,0
122376,note_on,96,0,3,,,,,,,,2,,,66,0
122400,note_on,24,0,2,,,,,,,,1,,,76,105
122400,note_on,24,0,4,,,,,,,,3,,,40,72
122400,note_on,24,0,1,,,,,,,,0,,,76,105
122400,note_on,24,0,5,,,,,,,,4,,,28,105
122400,note_on,24,0,3,,,,,,,,2,,,68,105
122400,note_on,0,0,6,,,,,,,,5,,,44,105
122400,note_on,0,0,6,,,,,,,,5,,,64,105
122400,note_on,24,0,6,,,,,,,,5,,,56,105
122688,note_on,0,0,6,,,,,,,,5,,,56,0
122688,note_on,288,0,1,,,,,,,,0,,,76,0
122688,note_on,288,0,3,,,,,,,,2,,,68,0
122688,note_on,288,0,4,,,,,,,,3,,,40,0
122688,note_on,288,0,6,,,,,,,,5,,,44,0
122688,note_on,0,0,6,,,,,,,,5,,,64,0
122688,note_on,288,0,2,,,,,,,,1,,,76,0
122688,note_on,288,0,5,,,,,,,,4,,,28,0
122760,note_on,72,0,4,,,,,,,,3,,,52,72
122760,note_on,72,0,3,,,,,,,,2,,,71,72
122760,note_on,72,0,6,,,,,,,,5,,,52,72
122760,note_on,72,0,2,,,,,,,,1,,,76,72
122760,note_on,72,0,1,,,,,,,,0,,,76,72
122760,note_on,72,0,5,,,,,,,,4,,,40,72
122808,note_on,48,0,1,,,,,,,,0,,,76,0
122808,note_on,48,0,2,,,,,,,,1,,,76,0
122820,note_on,12,0,2,,,,,,,,1,,,75,72
122820,note_on,12,0,1,,,,,,,,0,,,75,72
122856,note_on,96,0,6,,,,,,,,5,,,52,0
122856,note_on,96,0,5,,,,,,,,4,,,40,0
122856,note_on,96,0,3,,,,,,,,2,,,71,0
122856,note_on,96,0,4,,,,,,,,3,,,52,0
122868,note_on,48,0,2,,,,,,,,1,,,75,0
122868,note_on,48,0,1,,,,,,,,0,,,75,0
122880,note_on,24,0,4,,,,,,,,3,,,52,72
122880,note_on,12,0,2,,,,,,,,1,,,76,72
122880,note_on,24,0,3,,,,,,,,2,,,71,72
122880,note_on,24,0,6,,,,,,,,5,,,52,72
122880,note_on,0,0,6,,,,,,,,5,,,76,72
122880,note_on,0,0,6,,,,,,,,5,,,80,72
122880,note_on,12,0,1,,,,,,,,0,,,76,72
122880,note_on,24,0,5,,,,,,,,4,,,40,72
122976,note_on,96,0,6,,,,,,,,5,,,80,0
122976,note_on,0,0,6,,,,,,,,5,,,76,0
122976,note_on,0,0,6,,,,,,,,5,,,52,0
122976,note_on,96,0,5,,,,,,,,4,,,40,0
122976,note_on,96,0,1,,,,,,,,0,,,76,0
122976,note_on,96,0,3,,,,,,,,2,,,71,0
122976,note_on,96,0,2,,,,,,,,1,,,76,0
122976,note_on,96,0,4,,,,,,,,3,,,52,0
123000,note_on,24,0,3,,,,,,,,2,,,75,72
123000,note_on,24,0,5,,,,,,,,4,,,47,72
123000,note_on,24,0,2,,,,,,,,1,,,78,72
123000,note_on,0,0,6,,,,,,,,5,,,78,72
123000,note_on,0,0,6,,,,,,,,5,,,75,72
123000,note_on,24,0,6,,,,,,,,5,,,59,72
123000,note_on,24,0,1,,,,,,,,0,,,78,72
123000,note_on,24,0,4,,,,,,,,3,,,59,72
123096,note_on,96,0,1,,,,,,,,0,,,78,0
123096,note_on,96,0,5,,,,,,,,4,,,47,0
123096,note_on,96,0,3,,,,,,,,2,,,75,0
123096,note_on,96,0,2,,,,,,,,1,,,78,0
123096,note_on,96,0,6,,,,,,,,5,,,78,0
123096,note_on,0,0,6,,,,,,,,5,,,75,0
123096,note_on,0,0,6,,,,,,,,5,,,59,0
123096,note_on,96,0,4,,,,,,,,3,,,59,0
123120,note_on,24,0,4,,,,,,,,3,,,64,72
123120,note_on,24,0,3,,,,,,,,2,,,71,72
123120,note_on,24,0,1,,,,,,,,0,,,80,72
123120,note_on,0,0,6,,,,,,,,5,,,76,72
123120,note_on,24,0,2,,,,,,,,1,,,80,72
123120,note_on,24,0,6,,,,,,,,5,,,64,72
123120,note_on,0,0,6,,,,,,,,5,,,71,72
123120,note_on,24,0,5,,,,,,,,4,,,52,72
123216,note_on,96,0,1,,,,,,,,0,,,80,0
123216,note_on,96,0,2,,,,,,,,1,,,80,0
123216,note_on,96,0,4,,,,,,,,3,,,64,0
123216,note_on,96,0,6,,,,,,,,5,,,76,0
123216,note_on,0,0,6,,,,,,,,5,,,71,0
123216,note_on,96,0,5,,,,,,,,4,,,52,0
123216,note_on,0,0,6,,,,,,,,5,,,64,0
123240,note_on,24,0,2,,,,,,,,1,,,81,72
123240,note_on,24,0,6,,,,,,,,5,,,59,72
123240,note_on,0,0,6,,,,,,,,5,,,78,72
123240,note_on,0,0,6,,,,,,,,5,,,75,72
123240,note_on,24,0,5,,,,,,,,4,,,47,72
123240,note_on,24,0,4,,,,,,,,3,,,59,72
123240,note_on,24,0,1,,,,,,,,0,,,81,72
123312,note_on,192,0,3,,,,,,,,2,,,71,0
123336,note_on,0,0,6,,,,,,,,5,,,78,0
123336,note_on,96,0,6,,,,,,,,5,,,75,0
123336,note_on,96,0,1,,,,,,,,0,,,81,0
123336,note_on,96,0,2,,,,,,,,1,,,81,0
123336,note_on,0,0,6,,,,,,,,5,,,59,0
123336,note_on,96,0,5,,,,,,,,4,,,47,0
123336,note_on,96,0,4,,,,,,,,3,,,59,0
123360,note_on,24,0,1,,,,,,,,0,,,83,72
123360,note_on,0,0,6,,,,,,,,5,,,76,72
123360,note_on,24,0,2,,,,,,,,1,,,83,72
123360,note_on,24,0,5,,,,,,,,4,,,40,72
123360,note_on,0,0,6,,,,,,,,5,,,52,72
123360,note_on,24,0,6,,,,,,,,5,,,80,72
123360,note_on,24,0,4,,,,,,,,3,,,52,72
123360,note_on,48,0,3,,,,,,,,2,,,68,72
123456,note_on,0,0,6,,,,,,,,5,,,80,0
123456,note_on,96,0,3,,,,,,,,2,,,68,0
123456,note_on,96,0,6,,,,,,,,5,,,76,0
123456,note_on,96,0,4,,,,,,,,3,,,52,0
123456,note_on,96,0,2,,,,,,,,1,,,83,0
123456,note_on,0,0,6,,,,,,,,5,,,52,0
123456,note_on,96,0,1,,,,,,,,0,,,83,0
123456,note_on,96,0,5,,,,,,,,4,,,40,0
123480,note_on,24,0,2,,,,,,,,1,,,76,72
123480,note_on,24,0,1,,,,,,,,0,,,76,72
123480,note_on,0,0,6,,,,,,,,5,,,56,72
123480,note_on,24,0,6,,,,,,,,5,,,76,72
123480,note_on,24,0,3,,,,,,,,2,,,71,72
123480,note_on,24,0,5,,,,,,,,4,,,44,72
123480,note_on,0,0,6,,,,,,,,5,,,71,72
123480,note_on,24,0,4,,,,,,,,3,,,56,72
123576,note_on,0,0,6,,,,,,,,5,,,76,0
123576,note_on,96,0,5,,,,,,,,4,,,44,0
123576,note_on,0,0,6,,,,,,,,5,,,56,0
123576,note_on,96,0,6,,,,,,,,5,,,71,0
123576,note_on,96,0,4,,,,,,,,3,,,56,0
123576,note_on,96,0,3,,,,,,,,2,,,71,0
123600,note_on,24,0,4,,,,,,,,3,,,57,72
123600,note_on,0,0,6,,,,,,,,5,,,57,72
123600,note_on,24,0,6,,,,,,,,5,,,78,72
123600,note_on,24,0,5,,,,,,,,4,,,45,72
123600,note_on,0,0,6,,,,,,,,5,,,73,72
123600,note_on,24,0,3,,,,,,,,2,,,73,72
123672,note_on,192,0,2,,,,,,,,1,,,76,0
123672,note_on,192,0,1,,,,,,,,0,,,76,0
123696,note_on,96,0,3,,,,,,,,2,,,73,0
123696,note_on,96,0,5,,,,,,,,4,,,45,0
123696,note_on,96,0,6,,,,,,,,5,,,73,0
123696,note_on,0,0,6,,,,,,,,5,,,57,0
123696,note_on,96,0,4,,,,,,,,3,,,57,0
123696,note_on,0,0,6,,,,,,,,5,,,78,0
123720,note_on,24,0,6,,,,,,,,5,,,51,72
123720,note_on,0,0,6,,,,,,,,5,,,71,72
123720,note_on,24,0,3,,,,,,,,2,,,66,72
123720,note_on,48,0,2,,,,,,,,1,,,75,105
123720,note_on,0,0,6,,,,,,,,5,,,83,72
123720,note_on,48,0,1,,,,,,,,0,,,75,72
123720,note_on,24,0,4,,,,,,,,3,,,51,72
123720,note_on,24,0,5,,,,,,,,4,,,39,105
123768,note_on,48,0,2,,,,,,,,1,,,75,0
123768,note_on,48,0,1,,,,,,,,0,,,75,0
123780,note_on,12,0,1,,,,,,,,0,,,73,105
123780,note_on,12,0,2,,,,,,,,1,,,73,105
123816,note_on,96,0,3,,,,,,,,2,,,66,0
123816,note_on,0,0,6,,,,,,,,5,,,51,0
123816,note_on,96,0,4,,,,,,,,3,,,51,0
123816,note_on,96,0,6,,,,,,,,5,,,83,0
123816,note_on,96,0,5,,,,,,,,4,,,39,0
123828,note_on,48,0,1,,,,,,,,0,,,73,0
123828,note_on,48,0,2,,,,,,,,1,,,73,0
123840,note_on,24,0,3,,,,,,,,2,,,68,105
123840,note_on,24,0,4,,,,,,,,3,,,52,72
123840,note_on,24,0,5,,,,,,,,4,,,40,105
123840,note_on,12,0,2,,,,,,,,1,,,71,105
123840,note_on,12,0,1,,,,,,,,0,,,71,105
123840,note_on,24,0,6,,,,,,,,5,,,80,105
123840,note_on,0,0,6,,,,,,,,5,,,52,105
123936,note_on,96,0,3,,,,,,,,2,,,68,0
123936,note_on,96,0,6,,,,,,,,5,,,52,0
123936,note_on,96,0,4,,,,,,,,3,,,52,0
123936,note_on,96,0,5,,,,,,,,4,,,40,0
123936,note_on,0,0,6,,,,,,,,5,,,71,0
123936,note_on,96,0,1,,,,,,,,0,,,71,0
123936,note_on,96,0,2,,,,,,,,1,,,71,0
123960,note_on,24,0,4,,,,,,,,3,,,40,72
123960,note_on,24,0,1,,,,,,,,0,,,68,105
123960,note_on,24,0,6,,,,,,,,5,,,40,105
123960,note_on,0,0,6,,,,,,,,5,,,76,105
123960,note_on,24,0,3,,,,,,,,2,,,59,105
123960,note_on,24,0,2,,,,,,,,1,,,68,105
123960,note_on,24,0,5,,,,,,,,4,,,28,105
124032,note_on,72,0,6,,,,,,,,5,,,80,0
124056,note_on,96,0,2,,,,,,,,1,,,68,0
124056,note_on,0,0,6,,,,,,,,5,,,40,0
124056,note_on,24,0,6,,,,,,,,5,,,76,0
124056,note_on,96,0,4,,,,,,,,3,,,40,0
124056,note_on,96,0,5,,,,,,,,4,,,28,0
124056,note_on,96,0,1,,,,,,,,0,,,68,0
124056,note_on,96,0,3,,,,,,,,2,,,59,0
124080,note_on,24,0,5,,,,,,,,4,,,33,105
124080,note_on,24,0,6,,,,,,,,5,,,45,105
124080,note_on,24,0,3,,,,,,,,2,,,61,105
124080,note_on,0,0,6,,,,,,,,5,,,73,105
124080,note_on,24,0,4,,,,,,,,3,,,45,72
124080,note_on,24,0,2,,,,,,,,1,,,69,105
124080,note_on,0,0,6,,,,,,,,5,,,78,105
124080,note_on,24,0,1,,,,,,,,0,,,69,105
124176,note_on,0,0,6,,,,,,,,5,,,45,0
124176,note_on,96,0,5,,,,,,,,4,,,33,0
124176,note_on,96,0,3,,,,,,,,2,,,61,0
124176,note_on,96,0,4,,,,,,,,3,,,45,0
124176,note_on,0,0,6,,,,,,,,5,,,73,0
124176,note_on,96,0,6,,,,,,,,5,,,78,0
124176,note_on,96,0,1,,,,,,,,0,,,69,0
124176,note_on,96,0,2,,,,,,,,1,,,69,0
124200,note_on,24,0,1,,,,,,,,0,,,66,105
124200,note_on,24,0,6,,,,,,,,5,,,75,105
124200,note_on,0,0,6,,,,,,,,5,,,49,105
124200,note_on,24,0,5,,,,,,,,4,,,37,105
124200,note_on,24,0,3,,,,,,,,2,,,59,105
124200,note_on,24,0,4,,,,,,,,3,,,49,72
124200,note_on,0,0,6,,,,,,,,5,,,71,105
124200,note_on,24,0,2,,,,,,,,1,,,66,105
124296,note_on,0,0,6,,,,,,,,5,,,49,0
124296,note_on,0,0,6,,,,,,,,5,,,75,0
124296,note_on,96,0,1,,,,,,,,0,,,66,0
124296,note_on,96,0,5,,,,,,,,4,,,37,0
124296,note_on,96,0,6,,,,,,,,5,,,71,0
124296,note_on,96,0,3,,,,,,,,2,,,59,0
124296,note_on,96,0,2,,,,,,,,1,,,66,0
124296,note_on,96,0,4,,,,,,,,3,,,49,0
124320,note_on,0,0,6,,,,,,,,5,,,52,105
124320,note_on,24,0,6,,,,,,,,5,,,76,105
124320,note_on,0,0,6,,,,,,,,5,,,68,105
124320,note_on,24,0,4,,,,,,,,3,,,52,72
124320,note_on,24,0,5,,,,,,,,4,,,40,105
124320,note_on,24,0,1,,,,,,,,0,,,68,105
124320,note_on,24,0,2,,,,,,,,1,,,68,105
124320,note_on,24,0,3,,,,,,,,2,,,59,105
124416,note_on,96,0,5,,,,,,,,4,,,40,0
124416,note_on,96,0,1,,,,,,,,0,,,68,0
124416,note_on,96,0,2,,,,,,,,1,,,68,0
124416,note_on,96,0,6,,,,,,,,5,,,52,0
124416,note_on,96,0,3,,,,,,,,2,,,59,0
124416,note_on,96,0,4,,,,,,,,3,,,52,0
124440,note_on,24,0,3,,,,,,,,2,,,56,105
124440,note_on,24,0,1,,,,,,,,0,,,64,105
124440,note_on,24,0,2,,,,,,,,1,,,64,105
124440,note_on,24,0,5,,,,,,,,4,,,28,105
124440,note_on,24,0,6,,,,,,,,5,,,40,105
124440,note_on,24,0,4,,,,,,,,3,,,40,72
124512,note_on,72,0,6,,,,,,,,5,,,68,0
124512,note_on,0,0,6,,,,,,,,5,,,76,0
124536,note_on,96,0,3,,,,,,,,2,,,56,0
124536,note_on,96,0,4,,,,,,,,3,,,40,0
124536,note_on,96,0,1,,,,,,,,0,,,64,0
124536,note_on,96,0,5,,,,,,,,4,,,28,0
124536,note_on,96,0,2,,,,,,,,1,,,64,0
124536,note_on,24,0,6,,,,,,,,5,,,40,0
124560,note_on,24,0,5,,,,,,,,4,,,52,72
124560,note_on,24,0,2,,,,,,,,1,,,80,72
124560,note_on,24,0,3,,,,,,,,2,,,71,72
124560,note_on,0,0,6,,,,,,,,5,,,64,105
124560,note_on,0,0,6,,,,,,,,5,,,76,105
124560,note_on,24,0,1,,,,,,,,0,,,80,105
124560,note_on,24,0,6,,,,,,,,5,,,80,105
124560,note_on,24,0,4,,,,,,,,3,,,64,72
124608,note_on,48,0,2,,,,,,,,1,,,80,0
124608,note_on,48,0,1,,,,,,,,0,,,80,0
124620,note_on,12,0,2,,,,,,,,1,,,81,72
124620,note_on,12,0,1,,,,,,,,0,,,81,72
124656,note_on,96,0,4,,,,,,,,3,,,64,0
124656,note_on,96,0,6,,,,,,,,5,,,76,0
124656,note_on,0,0,6,,,,,,,,5,,,64,0
124656,note_on,0,0,6,,,,,,,,5,,,80,0
124656,note_on,96,0,5,,,,,,,,4,,,52,0
124656,note_on,96,0,3,,,,,,,,2,,,71,0
124668,note_on,48,0,1,,,,,,,,0,,,81,0
124668,note_on,48,0,2,,,,,,,,1,,,81,0
124680,note_on,24,0,4,,,,,,,,3,,,64,72
124680,note_on,12,0,1,,,,,,,,0,,,83,72
124680,note_on,0,0,6,,,,,,,,5,,,71,105
124680,note_on,24,0,6,,,,,,,,5,,,64,105
124680,note_on,12,0,2,,,,,,,,1,,,83,72
124680,note_on,24,0,3,,,,,,,,2,,,71,72
124680,note_on,0,0,6,,,,,,,,5,,,68,105
124680,note_on,24,0,5,,,,,,,,4,,,52,72
124728,note_on,48,0,1,,,,,,,,0,,,83,0
124728,note_on,48,0,2,,,,,,,,1,,,83,0
124740,note_on,12,0,1,,,,,,,,0,,,80,72
124740,note_on,12,0,2,,,,,,,,1,,,80,72
124776,note_on,96,0,5,,,,,,,,4,,,52,0
124776,note_on,96,0,3,,,,,,,,2,,,71,0
124776,note_on,96,0,4,,,,,,,,3,,,64,0
124776,note_on,0,0,6,,,,,,,,5,,,64,0
124776,note_on,0,0,6,,,,,,,,5,,,71,0
124776,note_on,96,0,6,,,,,,,,5,,,68,0
124788,note_on,48,0,2,,,,,,,,1,,,80,0
124788,note_on,48,0,1,,,,,,,,0,,,80,0
124800,note_on,12,0,1,,,,,,,,0,,,78,72
124800,note_on,12,0,2,,,,,,,,1,,,78,72
124800,note_on,0,0,6,,,,,,,,5,,,66,105
124800,note_on,0,0,6,,,,,,,,5,,,63,105
124800,note_on,24,0,3,,,,,,,,2,,,71,72
124800,note_on,24,0,4,,,,,,,,3,,,63,72
124800,note_on,24,0,5,,,,,,,,4,,,51,72
124800,note_on,24,0,6,,,,,,,,5,,,78,105
124896,note_on,96,0,6,,,,,,,,5,,,63,0
124896,note_on,96,0,3,,,,,,,,2,,,71,0
124896,note_on,96,0,4,,,,,,,,3,,,63,0
124896,note_on,96,0,5,,,,,,,,4,,,51,0
124920,note_on,24,0,3,,,,,,,,2,,,71,72
124920,note_on,24,0,6,,,,,,,,5,,,63,105
124920,note_on,24,0,4,,,,,,,,3,,,63,72
124920,note_on,24,0,5,,,,,,,,4,,,51,72
124992,note_on,192,0,2,,,,,,,,1,,,78,0
124992,note_on,192,0,1,,,,,,,,0,,,78,0
124992,note_on,0,0,6,,,,,,,,5,,,78,0
124992,note_on,72,0,6,,,,,,,,5,,,66,0
125016,note_on,96,0,5,,,,,,,,4,,,51,0
125016,note_on,24,0,6,,,,,,,,5,,,63,0
125016,note_on,96,0,4,,,,,,,,3,,,63,0
125016,note_on,96,0,3,,,,,,,,2,,,71,0
125040,note_on,0,0,6,,,,,,,,5,,,73,105
125040,note_on,0,0,6,,,,,,,,5,,,61,105
125040,note_on,24,0,6,,,,,,,,5,,,76,105
125040,note_on,24,0,4,,,,,,,,3,,,61,72
125040,note_on,48,0,1,,,,,,,,0,,,76,72
125040,note_on,24,0,5,,,,,,,,4,,,49,72
125040,note_on,48,0,2,,,,,,,,1,,,76,72
125040,note_on,24,0,3,,,,,,,,2,,,73,72
125088,note_on,48,0,2,,,,,,,,1,,,76,0
125088,note_on,48,0,1,,,,,,,,0,,,76,0
125100,note_on,12,0,2,,,,,,,,1,,,78,72
125100,note_on,12,0,1,,,,,,,,0,,,78,72
125136,note_on,96,0,3,,,,,,,,2,,,73,0
125136,note_on,96,0,5,,,,,,,,4,,,49,0
125136,note_on,0,0,6,,,,,,,,5,,,61,0
125136,note_on,96,0,6,,,,,,,,5,,,73,0
125136,note_on,0,0,6,,,,,,,,5,,,76,0
125136,note_on,96,0,4,,,,,,,,3,,,61,0
125148,note_on,48,0,1,,,,,,,,0,,,78,0
125148,note_on,48,0,2,,,,,,,,1,,,78,0
125160,note_on,24,0,4,,,,,,,,3,,,61,72
125160,note_on,24,0,5,,,,,,,,4,,,49,72
125160,note_on,12,0,1,,,,,,,,0,,,80,72
125160,note_on,0,0,6,,,,,,,,5,,,64,105
125160,note_on,24,0,3,,,,,,,,2,,,73,72
125160,note_on,24,0,6,,,,,,,,5,,,61,105
125160,note_on,12,0,2,,,,,,,,1,,,80,72
125160,note_on,0,0,6,,,,,,,,5,,,68,105
125208,note_on,48,0,2,,,,,,,,1,,,80,0
125208,note_on,48,0,1,,,,,,,,0,,,80,0
125220,note_on,12,0,2,,,,,,,,1,,,76,72
125220,note_on,12,0,1,,,,,,,,0,,,76,72
125256,note_on,96,0,4,,,,,,,,3,,,61,0
125256,note_on,96,0,3,,,,,,,,2,,,73,0
125256,note_on,0,0,6,,,,,,,,5,,,61,0
125256,note_on,0,0,6,,,,,,,,5,,,64,0
125256,note_on,96,0,6,,,,,,,,5,,,68,0
125256,note_on,96,0,5,,,,,,,,4,,,49,0
125268,note_on,48,0,1,,,,,,,,0,,,76,0
125268,note_on,48,0,2,,,,,,,,1,,,76,0
125280,note_on,24,0,5,,,,,,,,4,,,47,72
125280,note_on,12,0,1,,,,,,,,0,,,75,72
125280,note_on,24,0,6,,,,,,,,5,,,75,105
125280,note_on,24,0,3,,,,,,,,2,,,66,72
125280,note_on,12,0,2,,,,,,,,1,,,75,72
125280,note_on,0,0,6,,,,,,,,5,,,59,105
125280,note_on,24,0,4,,,,,,,,3,,,59,72
125280,note_on,0,0,6,,,,,,,,5,,,63,105
125376,note_on,96,0,6,,,,,,,,5,,,59,0
125376,note_on,96,0,4,,,,,,,,3,,,59,0
125376,note_on,96,0,2,,,,,,,,1,,,75,0
125376,note_on,96,0,3,,,,,,,,2,,,66,0
125376,note_on,96,0,1,,,,,,,,0,,,75,0
125376,note_on,96,0,5,,,,,,,,4,,,47,0
125400,note_on,24,0,5,,,,,,,,4,,,47,72
125400,note_on,24,0,6,,,,,,,,5,,,59,105
125400,note_on,24,0,3,,,,,,,,2,,,66,72
125400,note_on,24,0,1,,,,,,,,0,,,71,72
125400,note_on,24,0,2,,,,,,,,1,,,71,72
125400,note_on,24,0,4,,,,,,,,3,,,59,72
125472,note_on,72,0,6,,,,,,,,5,,,63,0
125472,note_on,0,0,6,,,,,,,,5,,,75,0
125496,note_on,96,0,3,,,,,,,,2,,,66,0
125496,note_on,96,0,1,,,,,,,,0,,,71,0
125496,note_on,96,0,2,,,,,,,,1,,,71,0
125496,note_on,96,0,4,,,,,,,,3,,,59,0
125496,note_on,24,0,6,,,,,,,,5,,,59,0
125496,note_on,96,0,5,,,,,,,,4,,,47,0
125520,note_on,24,0,5,,,,,,,,4,,,45,72
125520,note_on,24,0,6,,,,,,,,5,,,57,105
125520,note_on,24,0,4,,,,,,,,3,,,57,72
125520,note_on,0,0,6,,,,,,,,5,,,73,105
125520,note_on,0,0,6,,,,,,,,5,,,69,105
125520,note_on,24,0,2,,,,,,,,1,,,73,72
125520,note_on,24,0,3,,,,,,,,2,,,66,72
125520,note_on,24,0,1,,,,,,,,0,,,73,72
125568,note_on,48,0,2,,,,,,,,1,,,73,0
125568,note_on,48,0,1,,,,,,,,0,,,73,0
125580,note_on,12,0,1,,,,,,,,0,,,75,72
125580,note_on,12,0,2,,,,,,,,1,,,75,72
125616,note_on,96,0,3,,,,,,,,2,,,66,0
125616,note_on,0,0,6,,,,,,,,5,,,57,0
125616,note_on,96,0,5,,,,,,,,4,,,45,0
125616,note_on,0,0,6,,,,,,,,5,,,73,0
125616,note_on,96,0,6,,,,,,,,5,,,69,0
125616,note_on,96,0,4,,,,,,,,3,,,57,0
125628,note_on,48,0,1,,,,,,,,0,,,75,0
125628,note_on,48,0,2,,,,,,,,1,,,75,0
125640,note_on,0,0,6,,,,,,,,5,,,61,105
125640,note_on,0,0,6,,,,,,,,5,,,57,105
125640,note_on,24,0,6,,,,,,,,5,,,64,105
125640,note_on,12,0,1,,,,,,,,0,,,76,72
125640,note_on,12,0,2,,,,,,,,1,,,76,72
125640,note_on,24,0,5,,,,,,,,4,,,45,72
125640,note_on,24,0,4,,,,,,,,3,,,57,72
125640,note_on,24,0,3,,,,,,,,2,,,64,72
125688,note_on,48,0,1,,,,,,,,0,,,76,0
125688,note_on,48,0,2,,,,,,,,1,,,76,0
125700,note_on,12,0,2,,,,,,,,1,,,73,72
125700,note_on,12,0,1,,,,,,,,0,,,73,72
125736,note_on,0,0,6,,,,,,,,5,,,61,0
125736,note_on,0,0,6,,,,,,,,5,,,64,0
125736,note_on,96,0,6,,,,,,,,5,,,57,0
125736,note_on,96,0,5,,,,,,,,4,,,45,0
125736,note_on,96,0,4,,,,,,,,3,,,57,0
125736,note_on,96,0,3,,,,,,,,2,,,64,0
125748,note_on,48,0,2,,,,,,,,1,,,73,0
125748,note_on,48,0,1,,,,,,,,0,,,73,0
125760,note_on,24,0,5,,,,,,,,4,,,44,72
125760,note_on,12,0,2,,,,,,,,1,,,71,72
125760,note_on,24,0,4,,,,,,,,3,,,56,72
125760,note_on,24,0,3,,,,,,,,2,,,64,72
125760,note_on,24,0,6,,,,,,,,5,,,71,105
125760,note_on,0,0,6,,,,,,,,5,,,59,105
125760,note_on,0,0,6,,,,,,,,5,,,56,105
125760,note_on,12,0,1,,,,,,,,0,,,71,72
125856,note_on,96,0,6,,,,,,,,5,,,56,0
125856,note_on,96,0,3,,,,,,,,2,,,64,0
125856,note_on,96,0,5,,,,,,,,4,,,44,0
125856,note_on,96,0,4,,,,,,,,3,,,56,0
125880,note_on,24,0,6,,,,,,,,5,,,56,105
125880,note_on,24,0,5,,,,,,,,4,,,44,72
125880,note_on,24,0,4,,,,,,,,3,,,56,72
125880,note_on,24,0,3,,,,,,,,2,,,64,72
125952,note_on,72,0,6,,,,,,,,5,,,59,0
125952,note_on,0,0,6,,,,,,,,5,,,71,0
125952,note_on,192,0,2,,,,,,,,1,,,71,0
125952,note_on,192,0,1,,,,,,,,0,,,71,0
125976,note_on,96,0,4,,,,,,,,3,,,56,0
125976,note_on,24,0,6,,,,,,,,5,,,56,0
125976,note_on,96,0,5,,,,,,,,4,,,44,0
125976,note_on,96,0,3,,,,,,,,2,,,64,0
126000,note_on,24,0,4,,,,,,,,3,,,54,72
126000,note_on,24,0,6,,,,,,,,5,,,69,105
126000,note_on,0,0,6,,,,,,,,5,,,66,105
126000,note_on,0,0,6,,,,,,,,5,,,54,105
126000,note_on,24,0,5,,,,,,,,4,,,42,72
126000,note_on,24,0,3,,,,,,,,2,,,63,72
126000,note_on,48,0,1,,,,,,,,0,,,69,72
126000,note_on,48,0,2,,,,,,,,1,,,69,72
126048,note_on,48,0,1,,,,,,,,0,,,69,0
126048,note_on,48,0,2,,,,,,,,1,,,69,0
126060,note_on,12,0,2,,,,,,,,1,,,71,72
126060,note_on,12,0,1,,,,,,,,0,,,71,72
126096,note_on,96,0,6,,,,,,,,5,,,66,0
126096,note_on,0,0,6,,,,,,,,5,,,54,0
126096,note_on,96,0,5,,,,,,,,4,,,42,0
126096,note_on,96,0,3,,,,,,,,2,,,63,0
126096,note_on,0,0,6,,,,,,,,5,,,69,0
126096,note_on,96,0,4,,,,,,,,3,,,54,0
126108,note_on,48,0,1,,,,,,,,0,,,71,0
126108,note_on,48,0,2,,,,,,,,1,,,71,0
126120,note_on,24,0,6,,,,,,,,5,,,54,105
126120,note_on,24,0,5,,,,,,,,4,,,42,72
126120,note_on,0,0,6,,,,,,,,5,,,61,105
126120,note_on,12,0,2,,,,,,,,1,,,73,72
126120,note_on,0,0,6,,,,,,,,5,,,57,105
126120,note_on,24,0,3,,,,,,,,2,,,63,72
126120,note_on,24,0,4,,,,,,,,3,,,54,72
126120,note_on,12,0,1,,,,,,,,0,,,73,72
126168,note_on,48,0,2,,,,,,,,1,,,73,0
126168,note_on,48,0,1,,,,,,,,0,,,73,0
126180,note_on,12,0,1,,,,,,,,0,,,69,72
126180,note_on,12,0,2,,,,,,,,1,,,69,72
126216,note_on,96,0,4,,,,,,,,3,,,54,0
126216,note_on,0,0,6,,,,,,,,5,,,54,0
126216,note_on,96,0,3,,,,,,,,2,,,63,0
126216,note_on,0,0,6,,,,,,,,5,,,57,0
126216,note_on,96,0,5,,,,,,,,4,,,42,0
126216,note_on,96,0,6,,,,,,,,5,,,61,0
126228,note_on,48,0,1,,,,,,,,0,,,69,0
126228,note_on,48,0,2,,,,,,,,1,,,69,0
126240,note_on,12,0,1,,,,,,,,0,,,68,72
126240,note_on,0,0,6,,,,,,,,5,,,56,105
126240,note_on,0,0,6,,,,,,,,5,,,52,105
126240,note_on,24,0,5,,,,,,,,4,,,40,72
126240,note_on,24,0,6,,,,,,,,5,,,64,105
126240,note_on,24,0,4,,,,,,,,3,,,52,72
126240,note_on,24,0,3,,,,,,,,2,,,59,72
126240,note_on,12,0,2,,,,,,,,1,,,68,72
126336,note_on,96,0,1,,,,,,,,0,,,68,0
126336,note_on,0,0,6,,,,,,,,5,,,52,0
126336,note_on,96,0,6,,,,,,,,5,,,56,0
126336,note_on,96,0,4,,,,,,,,3,,,52,0
126336,note_on,96,0,2,,,,,,,,1,,,68,0
126336,note_on,0,0,6,,,,,,,,5,,,64,0
126336,note_on,96,0,3,,,,,,,,2,,,59,0
126336,note_on,96,0,5,,,,,,,,4,,,40,0
126360,note_on,24,0,2,,,,,,,,1,,,64,72
126360,note_on,24,0,3,,,,,,,,2,,,59,72
126360,note_on,24,0,1,,,,,,,,0,,,64,72
126360,note_on,24,0,5,,,,,,,,4,,,28,72
126360,note_on,24,0,4,,,,,,,,3,,,40,72
126360,note_on,24,0,6,,,,,,,,5,,,40,105
126456,note_on,96,0,6,,,,,,,,5,,,40,0
126456,note_on,96,0,3,,,,,,,,2,,,59,0
126456,note_on,96,0,4,,,,,,,,3,,,40,0
126456,note_on,96,0,2,,,,,,,,1,,,64,0
126456,note_on,96,0,1,,,,,,,,0,,,64,0
126456,note_on,96,0,5,,,,,,,,4,,,28,0
126480,note_on,24,0,2,,,,,,,,1,,,79,105
126480,note_on,24,0,6,,,,,,,,5,,,76,105
126480,note_on,24,0,1,,,,,,,,0,,,79,72
126576,note_on,96,0,6,,,,,,,,5,,,76,0
126600,note_on,144,0,5,,,,,,,,4,,,40,105
126600,note_on,144,0,3,,,,,,,,2,,,64,72
126600,note_on,0,0,6,,,,,,,,5,,,52,105
126600,note_on,24,0,6,,,,,,,,5,,,79,105
126600,note_on,144,0,4,,,,,,,,3,,,52,72
126672,note_on,192,0,1,,,,,,,,0,,,79,0
126672,note_on,192,0,2,,,,,,,,1,,,79,0
126696,note_on,96,0,5,,,,,,,,4,,,40,0
126696,note_on,0,0,6,,,,,,,,5,,,79,0
126696,note_on,96,0,6,,,,,,,,5,,,52,0
126696,note_on,96,0,4,,,,,,,,3,,,52,0
126696,note_on,96,0,3,,,,,,,,2,,,64,0
126720,note_on,24,0,3,,,,,,,,2,,,61,72
126720,note_on,48,0,1,,,,,,,,0,,,70,105
126720,note_on,0,0,6,,,,,,,,5,,,70,105
126720,note_on,48,0,2,,,,,,,,1,,,70,105
126720,note_on,0,0,6,,,,,,,,5,,,54,105
126720,note_on,24,0,6,,,,,,,,5,,,78,105
126720,note_on,24,0,5,,,,,,,,4,,,42,105
126720,note_on,24,0,4,,,,,,,,3,,,54,105
126816,note_on,96,0,5,,,,,,,,4,,,42,0
126816,note_on,96,0,6,,,,,,,,5,,,70,0
126816,note_on,0,0,6,,,,,,,,5,,,54,0
126816,note_on,96,0,4,,,,,,,,3,,,54,0
126840,note_on,24,0,4,,,,,,,,3,,,52,105
126840,note_on,0,0,6,,,,,,,,5,,,73,105
126840,note_on,24,0,6,,,,,,,,5,,,52,105
126840,note_on,24,0,5,,,,,,,,4,,,40,105
126912,note_on,192,0,2,,,,,,,,1,,,70,0
126912,note_on,192,0,1,,,,,,,,0,,,70,0
126936,note_on,96,0,6,,,,,,,,5,,,73,0
126936,note_on,96,0,5,,,,,,,,4,,,40,0
126936,note_on,0,0,6,,,,,,,,5,,,52,0
126936,note_on,96,0,4,,,,,,,,3,,,52,0
126960,note_on,24,0,6,,,,,,,,5,,,46,105
126960,note_on,0,0,6,,,,,,,,5,,,66,105
126960,note_on,24,0,5,,,,,,,,4,,,34,105
126960,note_on,24,0,4,,,,,,,,3,,,46,105
126960,note_on,48,0,2,,,,,,,,1,,,76,105
126960,note_on,48,0,1,,,,,,,,0,,,76,105
127008,note_on,48,0,6,,,,,,,,5,,,78,0
127008,note_on,288,0,3,,,,,,,,2,,,61,0
127056,note_on,96,0,4,,,,,,,,3,,,46,0
127056,note_on,96,0,5,,,,,,,,4,,,34,0
127056,note_on,48,0,6,,,,,,,,5,,,46,0
127056,note_on,96,0,2,,,,,,,,1,,,76,0
127056,note_on,96,0,1,,,,,,,,0,,,76,0
127080,note_on,24,0,5,,,,,,,,4,,,42,105
127080,note_on,24,0,1,,,,,,,,0,,,75,105
127080,note_on,24,0,6,,,,,,,,5,,,54,105
127080,note_on,0,0,6,,,,,,,,5,,,71,105
127080,note_on,24,0,4,,,,,,,,3,,,54,105
127080,note_on,72,0,3,,,,,,,,2,,,70,72
127080,note_on,24,0,2,,,,,,,,1,,,75,105
127128,note_on,48,0,6,,,,,,,,5,,,71,0
127128,note_on,48,0,1,,,,,,,,0,,,75,0
127128,note_on,48,0,2,,,,,,,,1,,,75,0
127140,note_on,12,0,2,,,,,,,,1,,,73,105
127140,note_on,12,0,1,,,,,,,,0,,,73,105
127140,note_on,12,0,6,,,,,,,,5,,,73,105
127176,note_on,36,0,6,,,,,,,,5,,,54,0
127176,note_on,96,0,5,,,,,,,,4,,,42,0
127176,note_on,96,0,4,,,,,,,,3,,,54,0
127176,note_on,96,0,3,,,,,,,,2,,,70,0
127188,note_on,12,0,6,,,,,,,,5,,,73,0
127188,note_on,48,0,1,,,,,,,,0,,,73,0
127188,note_on,48,0,2,,,,,,,,1,,,73,0
127200,note_on,24,0,5,,,,,,,,4,,,35,105
127200,note_on,12,0,1,,,,,,,,0,,,75,105
127200,note_on,24,0,3,,,,,,,,2,,,66,72
127200,note_on,24,0,4,,,,,,,,3,,,47,105
127200,note_on,12,0,2,,,,,,,,1,,,75,105
127200,note_on,12,0,6,,,,,,,,5,,,75,105
127200,note_on,0,0,6,,,,,,,,5,,,47,105
127296,note_on,96,0,1,,,,,,,,0,,,75,0
127296,note_on,96,0,2,,,,,,,,1,,,75,0
127320,note_on,24,0,2,,,,,,,,1,,,71,72
127320,note_on,24,0,1,,,,,,,,0,,,71,105
127368,note_on,48,0,2,,,,,,,,1,,,71,0
127368,note_on,48,0,1,,,,,,,,0,,,71,0
127380,note_on,12,0,2,,,,,,,,1,,,73,72
127380,note_on,12,0,1,,,,,,,,0,,,73,72
127392,note_on,0,0,6,,,,,,,,5,,,66,0
127392,note_on,0,0,6,,,,,,,,5,,,75,0
127392,note_on,192,0,5,,,,,,,,4,,,35,0
127392,note_on,192,0,6,,,,,,,,5,,,47,0
127392,note_on,192,0,4,,,,,,,,3,,,47,0
127392,note_on,192,0,3,,,,,,,,2,,,66,0
127428,note_on,48,0,1,,,,,,,,0,,,73,0
127428,note_on,48,0,2,,,,,,,,1,,,73,0
127440,note_on,12,0,1,,,,,,,,0,,,75,72
127440,note_on,12,0,2,,,,,,,,1,,,75,72
127560,note_on,0,0,6,,,,,,,,5,,,66,72
127560,note_on,168,0,4,,,,,,,,3,,,63,72
127560,note_on,168,0,6,,,,,,,,5,,,63,72
127560,note_on,168,0,3,,,,,,,,2,,,66,72
127560,note_on,168,0,5,,,,,,,,4,,,51,105
127608,note_on,48,0,5,,,,,,,,4,,,51,0
127608,note_on,0,0,6,,,,,,,,5,,,63,0
127608,note_on,48,0,6,,,,,,,,5,,,66,0
127608,note_on,48,0,3,,,,,,,,2,,,66,0
127608,note_on,48,0,4,,,,,,,,3,,,63,0
127620,note_on,0,0,6,,,,,,,,5,,,61,72
127620,note_on,12,0,3,,,,,,,,2,,,64,72
127620,note_on,12,0,6,,,,,,,,5,,,64,72
127620,note_on,12,0,4,,,,,,,,3,,,61,72
127620,note_on,12,0,5,,,,,,,,4,,,49,72
127668,note_on,48,0,4,,,,,,,,3,,,61,0
127668,note_on,0,0,6,,,,,,,,5,,,64,0
127668,note_on,48,0,6,,,,,,,,5,,,61,0
127668,note_on,48,0,3,,,,,,,,2,,,64,0
127668,note_on,48,0,5,,,,,,,,4,,,49,0
127680,note_on,12,0,5,,,,,,,,4,,,47,72
127680,note_on,12,0,4,,,,,,,,3,,,59,72
127680,note_on,12,0,3,,,,,,,,2,,,63,105
127680,note_on,12,0,6,,,,,,,,5,,,63,72
127680,note_on,0,0,6,,,,,,,,5,,,59,72
127776,note_on,336,0,2,,,,,,,,1,,,75,0
127776,note_on,336,0,1,,,,,,,,0,,,75,0
127776,note_on,96,0,5,,,,,,,,4,,,47,0
127776,note_on,96,0,6,,,,,,,,5,,,59,0
127776,note_on,96,0,4,,,,,,,,3,,,59,0
127800,note_on,24,0,5,,,,,,,,4,,,35,72
127800,note_on,24,0,1,,,,,,,,0,,,71,72
127800,note_on,24,0,4,,,,,,,,3,,,47,72
127800,note_on,24,0,2,,,,,,,,1,,,71,72
127800,note_on,24,0,6,,,,,,,,5,,,47,72
127848,note_on,48,0,2,,,,,,,,1,,,71,0
127848,note_on,48,0,1,,,,,,,,0,,,71,0
127860,note_on,12,0,1,,,,,,,,0,,,73,72
127860,note_on,12,0,2,,,,,,,,1,,,73,105
127872,note_on,192,0,3,,,,,,,,2,,,63,0
127872,note_on,72,0,6,,,,,,,,5,,,63,0
127896,note_on,24,0,6,,,,,,,,5,,,47,0
127896,note_on,96,0,4,,,,,,,,3,,,47,0
127896,note_on,96,0,5,,,,,,,,4,,,35,0
127908,note_on,48,0,1,,,,,,,,0,,,73,0
127908,note_on,48,0,2,,,,,,,,1,,,73,0
127920,note_on,12,0,1,,,,,,,,0,,,75,72
127920,note_on,12,0,2,,,,,,,,1,,,75,105
128040,note_on,0,0,6,,,,,,,,5,,,66,105
128040,note_on,144,0,5,,,,,,,,4,,,51,72
128040,note_on,144,0,6,,,,,,,,5,,,63,72
128040,note_on,168,0,3,,,,,,,,2,,,66,105
128040,note_on,144,0,4,,,,,,,,3,,,63,72
128088,note_on,48,0,6,,,,,,,,5,,,66,0
128088,note_on,48,0,4,,,,,,,,3,,,63,0
128088,note_on,48,0,3,,,,,,,,2,,,66,0
128088,note_on,48,0,5,,,,,,,,4,,,51,0
128088,note_on,0,0,6,,,,,,,,5,,,63,0
128100,note_on,12,0,5,,,,,,,,4,,,49,105
128100,note_on,0,0,6,,,,,,,,5,,,61,105
128100,note_on,12,0,6,,,,,,,,5,,,64,105
128100,note_on,12,0,3,,,,,,,,2,,,64,105
128100,note_on,12,0,4,,,,,,,,3,,,61,105
128148,note_on,0,0,6,,,,,,,,5,,,64,0
128148,note_on,48,0,6,,,,,,,,5,,,61,0
128148,note_on,48,0,3,,,,,,,,2,,,64,0
128148,note_on,48,0,4,,,,,,,,3,,,61,0
128148,note_on,48,0,5,,,,,,,,4,,,49,0
128160,note_on,12,0,5,,,,,,,,4,,,47,105
128160,note_on,12,0,4,,,,,,,,3,,,59,105
128160,note_on,0,0,6,,,,,,,,5,,,59,105
128160,note_on,12,0,3,,,,,,,,2,,,63,105
128160,note_on,12,0,6,,,,,,,,5,,,63,105
128256,note_on,336,0,2,,,,,,,,1,,,75,0
128256,note_on,96,0,4,,,,,,,,3,,,59,0
128256,note_on,336,0,1,,,,,,,,0,,,75,0
128256,note_on,96,0,6,,,,,,,,5,,,59,0
128256,note_on,96,0,5,,,,,,,,4,,,47,0
128280,note_on,24,0,5,,,,,,,,4,,,35,105
128280,note_on,24,0,4,,,,,,,,3,,,47,105
128280,note_on,24,0,2,,,,,,,,1,,,75,105
128280,note_on,24,0,6,,,,,,,,5,,,47,105
128280,note_on,24,0,1,,,,,,,,0,,,75,72
128328,note_on,48,0,2,,,,,,,,1,,,75,0
128328,note_on,48,0,1,,,,,,,,0,,,75,0
128340,note_on,12,0,2,,,,,,,,1,,,76,105
128340,note_on,12,0,1,,,,,,,,0,,,76,72
128352,note_on,72,0,6,,,,,,,,5,,,63,0
128352,note_on,192,0,3,,,,,,,,2,,,63,0
128376,note_on,96,0,5,,,,,,,,4,,,35,0
128376,note_on,96,0,4,,,,,,,,3,,,47,0
128376,note_on,24,0,6,,,,,,,,5,,,47,0
128388,note_on,48,0,1,,,,,,,,0,,,76,0
128388,note_on,48,0,2,,,,,,,,1,,,76,0
128400,note_on,12,0,1,,,,,,,,0,,,78,72
128400,note_on,12,0,2,,,,,,,,1,,,78,105
128496,note_on,96,0,1,,,,,,,,0,,,78,0
128496,note_on,96,0,2,,,,,,,,1,,,78,0
128520,note_on,24,0,2,,,,,,,,1,,,80,105
128520,note_on,144,0,5,,,,,,,,4,,,42,105
128520,note_on,144,0,6,,,,,,,,5,,,54,105
128520,note_on,0,0,6,,,,,,,,5,,,73,105
128520,note_on,0,0,6,,,,,,,,5,,,70,105
128520,note_on,168,0,3,,,,,,,,2,,,61,105
128520,note_on,144,0,4,,,,,,,,3,,,54,105
128520,note_on,24,0,1,,,,,,,,0,,,80,72
128568,note_on,48,0,2,,,,,,,,1,,,80,0
128568,note_on,48,0,1,,,,,,,,0,,,80,0
128580,note_on,12,0,2,,,,,,,,1,,,82,105
128580,note_on,12,0,1,,,,,,,,0,,,82,72
128616,note_on,96,0,5,,,,,,,,4,,,42,0
128616,note_on,96,0,6,,,,,,,,5,,,73,0
128616,note_on,96,0,4,,,,,,,,3,,,54,0
128616,note_on,96,0,3,,,,,,,,2,,,61,0
128616,note_on,0,0,6,,,,,,,,5,,,54,0
128616,note_on,0,0,6,,,,,,,,5,,,70,0
128628,note_on,48,0,2,,,,,,,,1,,,82,0
128628,note_on,48,0,1,,,,,,,,0,,,82,0
128640,note_on,12,0,2,,,,,,,,1,,,83,105
128640,note_on,24,0,3,,,,,,,,2,,,63,105
128640,note_on,24,0,4,,,,,,,,3,,,47,105
128640,note_on,24,0,5,,,,,,,,4,,,35,105
128640,note_on,12,0,1,,,,,,,,0,,,83,72
128640,note_on,24,0,6,,,,,,,,5,,,75,105
128640,note_on,0,0,6,,,,,,,,5,,,47,105
128640,note_on,0,0,6,,,,,,,,5,,,71,105
128688,note_on,48,0,2,,,,,,,,1,,,83,0
128688,note_on,48,0,1,,,,,,,,0,,,83,0
128700,note_on,12,0,2,,,,,,,,1,,,78,105
128700,note_on,12,0,1,,,,,,,,0,,,78,72
128736,note_on,96,0,5,,,,,,,,4,,,35,0
128736,note_on,96,0,3,,,,,,,,2,,,63,0
128736,note_on,96,0,6,,,,,,,,5,,,47,0
128736,note_on,96,0,4,,,,,,,,3,,,47,0
128748,note_on,48,0,2,,,,,,,,1,,,78,0
128748,note_on,48,0,1,,,,,,,,0,,,78,0
128760,note_on,24,0,6,,,,,,,,5,,,47,105
128760,note_on,12,0,2,,,,,,,,1,,,75,105
128760,note_on,24,0,5,,,,,,,,4,,,35,105
128760,note_on,12,0,1,,,,,,,,0,,,75,72
128760,note_on,24,0,3,,,,,,,,2,,,63,105
128760,note_on,24,0,4,,,,,,,,3,,,47,105
128808,note_on,48,0,2,,,,,,,,1,,,75,0
128808,note_on,48,0,1,,,,,,,,0,,,75,0
128820,note_on,12,0,1,,,,,,,,0,,,71,72
128820,note_on,12,0,2,,,,,,,,1,,,71,105
128832,note_on,72,0,6,,,,,,,,5,,,71,0
128856,note_on,96,0,5,,,,,,,,4,,,35,0
128856,note_on,96,0,3,,,,,,,,2,,,63,0
128856,note_on,24,0,6,,,,,,,,5,,,47,0
128856,note_on,96,0,4,,,,,,,,3,,,47,0
128868,note_on,48,0,2,,,,,,,,1,,,71,0
128868,note_on,48,0,1,,,,,,,,0,,,71,0
128880,note_on,24,0,3,,,,,,,,2,,,63,105
128880,note_on,24,0,4,,,,,,,,3,,,47,105
128880,note_on,24,0,6,,,,,,,,5,,,47,105
128880,note_on,0,0,6,,,,,,,,5,,,66,105
128880,note_on,12,0,1,,,,,,,,0,,,66,72
128880,note_on,24,0,5,,,,,,,,4,,,35,105
128880,note_on,12,0,2,,,,,,,,1,,,66,105
128976,note_on,96,0,3,,,,,,,,2,,,63,0
128976,note_on,96,0,5,,,,,,,,4,,,35,0
128976,note_on,96,0,6,,,,,,,,5,,,47,0
128976,note_on,96,0,4,,,,,,,,3,,,47,0
129000,note_on,24,0,4,,,,,,,,3,,,47,105
129000,note_on,24,0,6,,,,,,,,5,,,47,105
129000,note_on,24,0,5,,,,,,,,4,,,35,105
129000,note_on,24,0,3,,,,,,,,2,,,63,105
129024,note_on,24,0,6,,,,,,,,5,,,75,0
129072,note_on,192,0,1,,,,,,,,0,,,66,0
129072,note_on,48,0,6,,,,,,,,5,,,66,0
129072,note_on,192,0,2,,,,,,,,1,,,66,0
129096,note_on,96,0,5,,,,,,,,4,,,35,0
129096,note_on,96,0,3,,,,,,,,2,,,63,0
129096,note_on,96,0,4,,,,,,,,3,,,47,0
129096,note_on,24,0,6,,,,,,,,5,,,47,0
129120,note_on,48,0,1,,,,,,,,0,,,67,72
129120,note_on,24,0,4,,,,,,,,3,,,46,105
129120,note_on,0,0,6,,,,,,,,5,,,67,105
129120,note_on,0,0,6,,,,,,,,5,,,46,105
129120,note_on,24,0,6,,,,,,,,5,,,76,105
129120,note_on,48,0,2,,,,,,,,1,,,67,105
129120,note_on,24,0,3,,,,,,,,2,,,61,105
129120,note_on,24,0,5,,,,,,,,4,,,34,105
129216,note_on,96,0,5,,,,,,,,4,,,34,0
129216,note_on,96,0,6,,,,,,,,5,,,46,0
129216,note_on,0,0,6,,,,,,,,5,,,76,0
129216,note_on,96,0,3,,,,,,,,2,,,61,0
129216,note_on,96,0,4,,,,,,,,3,,,46,0
129240,note_on,24,0,4,,,,,,,,3,,,46,105
129240,note_on,0,0,6,,,,,,,,5,,,46,105
129240,note_on,24,0,6,,,,,,,,5,,,73,105
129240,note_on,24,0,3,,,,,,,,2,,,61,105
129240,note_on,24,0,5,,,,,,,,4,,,34,105
129312,note_on,72,0,6,,,,,,,,5,,,67,0
129312,note_on,192,0,2,,,,,,,,1,,,67,0
129312,note_on,192,0,1,,,,,,,,0,,,67,0
129336,note_on,96,0,4,,,,,,,,3,,,46,0
129336,note_on,0,0,6,,,,,,,,5,,,73,0
129336,note_on,96,0,3,,,,,,,,2,,,61,0
129336,note_on,24,0,6,,,,,,,,5,,,46,0
129336,note_on,96,0,5,,,,,,,,4,,,34,0
129360,note_on,24,0,6,,,,,,,,5,,,47,105
129360,note_on,0,0,6,,,,,,,,5,,,75,105
129360,note_on,0,0,6,,,,,,,,5,,,66,105
129360,note_on,48,0,2,,,,,,,,1,,,66,105
129360,note_on,24,0,3,,,,,,,,2,,,63,105
129360,note_on,24,0,4,,,,,,,,3,,,47,105
129360,note_on,24,0,5,,,,,,,,4,,,35,105
129360,note_on,48,0,1,,,,,,,,0,,,66,72
129456,note_on,96,0,1,,,,,,,,0,,,66,0
129456,note_on,96,0,6,,,,,,,,5,,,75,0
129456,note_on,96,0,3,,,,,,,,2,,,63,0
129456,note_on,96,0,4,,,,,,,,3,,,47,0
129456,note_on,0,0,6,,,,,,,,5,,,47,0
129456,note_on,96,0,5,,,,,,,,4,,,35,0
129456,note_on,96,0,2,,,,,,,,1,,,66,0
129480,note_on,24,0,4,,,,,,,,3,,,42,105
129480,note_on,24,0,3,,,,,,,,2,,,61,105
129480,note_on,24,0,1,,,,,,,,0,,,76,72
129480,note_on,24,0,2,,,,,,,,1,,,76,105
129480,note_on,24,0,6,,,,,,,,5,,,76,105
129480,note_on,0,0,6,,,,,,,,5,,,42,105
129480,note_on,24,0,5,,,,,,,,4,,,30,105
129576,note_on,96,0,1,,,,,,,,0,,,76,0
129576,note_on,96,0,3,,,,,,,,2,,,61,0
129576,note_on,96,0,4,,,,,,,,3,,,42,0
129576,note_on,96,0,6,,,,,,,,5,,,42,0
129576,note_on,96,0,2,,,,,,,,1,,,76,0
129576,note_on,96,0,5,,,,,,,,4,,,30,0
129576,note_on,0,0,6,,,,,,,,5,,,76,0
129600,note_on,24,0,6,,,,,,,,5,,,75,105
129600,note_on,0,0,6,,,,,,,,5,,,47,105
129600,note_on,24,0,4,,,,,,,,3,,,47,105
129600,note_on,24,0,3,,,,,,,,2,,,59,105
129600,note_on,24,0,5,,,,,,,,4,,,35,105
129600,note_on,24,0,2,,,,,,,,1,,,75,105
129600,note_on,24,0,1,,,,,,,,0,,,75,72
129696,note_on,96,0,5,,,,,,,,4,,,35,0
129696,note_on,96,0,1,,,,,,,,0,,,75,0
129696,note_on,96,0,2,,,,,,,,1,,,75,0
129696,note_on,96,0,3,,,,,,,,2,,,59,0
129696,note_on,96,0,6,,,,,,,,5,,,47,0
129696,note_on,0,0,6,,,,,,,,5,,,75,0
129696,note_on,96,0,4,,,,,,,,3,,,47,0
129720,note_on,24,0,5,,,,,,,,4,,,39,105
129720,note_on,24,0,6,,,,,,,,5,,,51,105
129720,note_on,0,0,6,,,,,,,,5,,,71,105
129720,note_on,24,0,2,,,,,,,,1,,,73,105
129720,note_on,24,0,4,,,,,,,,3,,,51,105
129720,note_on,24,0,1,,,,,,,,0,,,73,72
129720,note_on,24,0,3,,,,,,,,2,,,66,105
129768,note_on,48,0,1,,,,,,,,0,,,73,0
129768,note_on,48,0,2,,,,,,,,1,,,73,0
129780,note_on,12,0,2,,,,,,,,1,,,71,105
129780,note_on,12,0,1,,,,,,,,0,,,71,72
129792,note_on,72,0,6,,,,,,,,5,,,66,0
129816,note_on,96,0,5,,,,,,,,4,,,39,0
129816,note_on,96,0,4,,,,,,,,3,,,51,0
129816,note_on,96,0,3,,,,,,,,2,,,66,0
129816,note_on,24,0,6,,,,,,,,5,,,71,0
129816,note_on,0,0,6,,,,,,,,5,,,51,0
129828,note_on,48,0,1,,,,,,,,0,,,71,0
129828,note_on,48,0,2,,,,,,,,1,,,71,0
129840,note_on,24,0,4,,,,,,,,3,,,52,105
129840,note_on,24,0,3,,,,,,,,2,,,68,105
129840,note_on,0,0,6,,,,,,,,5,,,68,105
129840,note_on,12,0,1,,,,,,,,0,,,73,72
129840,note_on,0,0,6,,,,,,,,5,,,52,105
129840,note_on,24,0,6,,,,,,,,5,,,73,105
129840,note_on,12,0,2,,,,,,,,1,,,73,105
129840,note_on,24,0,5,,,,,,,,4,,,40,105
129936,note_on,0,0,6,,,,,,,,5,,,52,0
129936,note_on,0,0,6,,,,,,,,5,,,73,0
129936,note_on,96,0,5,,,,,,,,4,,,40,0
129936,note_on,96,0,2,,,,,,,,1,,,73,0
129936,note_on,96,0,4,,,,,,,,3,,,52,0
129936,note_on,96,0,1,,,,,,,,0,,,73,0
129936,note_on,96,0,6,,,,,,,,5,,,68,0
129936,note_on,96,0,3,,,,,,,,2,,,68,0
129960,note_on,24,0,6,,,,,,,,5,,,70,105
129960,note_on,24,0,4,,,,,,,,3,,,54,105
129960,note_on,24,0,2,,,,,,,,1,,,70,105
129960,note_on,0,0,6,,,,,,,,5,,,66,105
129960,note_on,0,0,6,,,,,,,,5,,,54,105
129960,note_on,24,0,5,,,,,,,,4,,,42,105
129960,note_on,24,0,3,,,,,,,,2,,,61,105
129960,note_on,24,0,1,,,,,,,,0,,,70,72
130056,note_on,0,0,6,,,,,,,,5,,,54,0
130056,note_on,96,0,5,,,,,,,,4,,,42,0
130056,note_on,96,0,4,,,,,,,,3,,,54,0
130056,note_on,96,0,3,,,,,,,,2,,,61,0
130056,note_on,96,0,1,,,,,,,,0,,,70,0
130056,note_on,96,0,2,,,,,,,,1,,,70,0
130056,note_on,96,0,6,,,,,,,,5,,,66,0
130056,note_on,0,0,6,,,,,,,,5,,,70,0
130080,note_on,24,0,5,,,,,,,,4,,,35,72
130080,note_on,24,0,2,,,,,,,,1,,,71,72
130080,note_on,0,0,6,,,,,,,,5,,,63,72
130080,note_on,24,0,1,,,,,,,,0,,,71,72
130080,note_on,24,0,4,,,,,,,,3,,,47,72
130080,note_on,24,0,3,,,,,,,,2,,,63,72
130080,note_on,0,0,6,,,,,,,,5,,,47,72
130080,note_on,24,0,6,,,,,,,,5,,,71,72
130128,note_on,48,0,1,,,,,,,,0,,,71,0
130128,note_on,48,0,2,,,,,,,,1,,,71,0
130140,note_on,12,0,1,,,,,,,,0,,,78,72
130140,note_on,12,0,2,,,,,,,,1,,,78,72
130176,note_on,96,0,5,,,,,,,,4,,,35,0
130176,note_on,96,0,6,,,,,,,,5,,,47,0
130176,note_on,96,0,3,,,,,,,,2,,,63,0
130176,note_on,96,0,4,,,,,,,,3,,,47,0
130188,note_on,48,0,2,,,,,,,,1,,,78,0
130188,note_on,48,0,1,,,,,,,,0,,,78,0
130200,note_on,24,0,6,,,,,,,,5,,,47,72
130200,note_on,12,0,2,,,,,,,,1,,,75,72
130200,note_on,24,0,5,,,,,,,,4,,,35,72
130200,note_on,12,0,1,,,,,,,,0,,,75,72
130200,note_on,24,0,3,,,,,,,,2,,,63,72
130200,note_on,24,0,4,,,,,,,,3,,,47,72
130248,note_on,48,0,2,,,,,,,,1,,,75,0
130248,note_on,48,0,1,,,,,,,,0,,,75,0
130260,note_on,12,0,2,,,,,,,,1,,,71,72
130260,note_on,12,0,1,,,,,,,,0,,,71,72
130272,note_on,72,0,6,,,,,,,,5,,,63,0
130272,note_on,0,0,6,,,,,,,,5,,,71,0
130296,note_on,96,0,3,,,,,,,,2,,,63,0
130296,note_on,24,0,6,,,,,,,,5,,,47,0
130296,note_on,96,0,4,,,,,,,,3,,,47,0
130296,note_on,96,0,5,,,,,,,,4,,,35,0
130308,note_on,48,0,1,,,,,,,,0,,,71,0
130308,note_on,48,0,2,,,,,,,,1,,,71,0
130320,note_on,0,0,6,,,,,,,,5,,,66,72
130320,note_on,24,0,6,,,,,,,,5,,,47,72
130320,note_on,24,0,4,,,,,,,,3,,,47,72
130320,note_on,24,0,3,,,,,,,,2,,,63,72
130320,note_on,24,0,5,,,,,,,,4,,,35,72
130320,note_on,0,0,6,,,,,,,,5,,,75,72
130320,note_on,12,0,1,,,,,,,,0,,,66,72
130320,note_on,12,0,2,,,,,,,,1,,,66,72
130416,note_on,96,0,4,,,,,,,,3,,,47,0
130416,note_on,96,0,5,,,,,,,,4,,,35,0
130416,note_on,96,0,3,,,,,,,,2,,,63,0
130416,note_on,96,0,6,,,,,,,,5,,,47,0
130440,note_on,24,0,6,,,,,,,,5,,,47,72
130440,note_on,24,0,4,,,,,,,,3,,,47,72
130440,note_on,24,0,5,,,,,,,,4,,,35,72
130440,note_on,24,0,3,,,,,,,,2,,,63,72
130512,note_on,72,0,6,,,,,,,,5,,,75,0
130512,note_on,192,0,2,,,,,,,,1,,,66,0
130512,note_on,192,0,1,,,,,,,,0,,,66,0
130512,note_on,0,0,6,,,,,,,,5,,,66,0
130536,note_on,96,0,4,,,,,,,,3,,,47,0
130536,note_on,96,0,5,,,,,,,,4,,,35,0
130536,note_on,24,0,6,,,,,,,,5,,,47,0
130536,note_on,96,0,3,,,,,,,,2,,,63,0
130560,note_on,48,0,2,,,,,,,,1,,,67,72
130560,note_on,24,0,6,,,,,,,,5,,,76,72
130560,note_on,24,0,3,,,,,,,,2,,,61,72
130560,note_on,0,0,6,,,,,,,,5,,,67,72
130560,note_on,24,0,5,,,,,,,,4,,,34,72
130560,note_on,48,0,1,,,,,,,,0,,,67,72
130560,note_on,24,0,4,,,,,,,,3,,,46,72
130560,note_on,0,0,6,,,,,,,,5,,,46,72
130656,note_on,96,0,3,,,,,,,,2,,,61,0
130656,note_on,96,0,5,,,,,,,,4,,,34,0
130656,note_on,96,0,6,,,,,,,,5,,,46,0
130656,note_on,0,0,6,,,,,,,,5,,,76,0
130656,note_on,96,0,4,,,,,,,,3,,,46,0
130680,note_on,24,0,5,,,,,,,,4,,,34,72
130680,note_on,24,0,6,,,,,,,,5,,,73,72
130680,note_on,24,0,4,,,,,,,,3,,,46,72
130680,note_on,0,0,6,,,,,,,,5,,,46,72
130680,note_on,24,0,3,,,,,,,,2,,,61,72
130752,note_on,192,0,1,,,,,,,,0,,,67,0
130752,note_on,72,0,6,,,,,,,,5,,,67,0
130752,note_on,192,0,2,,,,,,,,1,,,67,0
130776,note_on,96,0,3,,,,,,,,2,,,61,0
130776,note_on,24,0,6,,,,,,,,5,,,46,0
130776,note_on,0,0,6,,,,,,,,5,,,73,0
130776,note_on,96,0,4,,,,,,,,3,,,46,0
130776,note_on,96,0,5,,,,,,,,4,,,34,0
130800,note_on,0,0,6,,,,,,,,5,,,66,72
130800,note_on,48,0,2,,,,,,,,1,,,66,72
130800,note_on,48,0,1,,,,,,,,0,,,66,72
130800,note_on,0,0,6,,,,,,,,5,,,75,72
130800,note_on,24,0,5,,,,,,,,4,,,35,72
130800,note_on,24,0,6,,,,,,,,5,,,47,72
130800,note_on,24,0,3,,,,,,,,2,,,63,72
130800,note_on,24,0,4,,,,,,,,3,,,47,72
130896,note_on,96,0,5,,,,,,,,4,,,35,0
130896,note_on,96,0,4,,,,,,,,3,,,47,0
130896,note_on,96,0,2,,,,,,,,1,,,66,0
130896,note_on,96,0,1,,,,,,,,0,,,66,0
130896,note_on,96,0,6,,,,,,,,5,,,75,0
130896,note_on,0,0,6,,,,,,,,5,,,47,0
130896,note_on,96,0,3,,,,,,,,2,,,63,0
130920,note_on,24,0,3,,,,,,,,2,,,61,72
130920,note_on,24,0,4,,,,,,,,3,,,42,72
130920,note_on,24,0,2,,,,,,,,1,,,76,72
130920,note_on,24,0,6,,,,,,,,5,,,76,72
130920,note_on,24,0,1,,,,,,,,0,,,76,72
130920,note_on,24,0,5,,,,,,,,4,,,30,72
130920,note_on,0,0,6,,,,,,,,5,,,42,72
131016,note_on,0,0,6,,,,,,,,5,,,76,0
131016,note_on,96,0,2,,,,,,,,1,,,76,0
131016,note_on,96,0,4,,,,,,,,3,,,42,0
131016,note_on,96,0,1,,,,,,,,0,,,76,0
131016,note_on,96,0,3,,,,,,,,2,,,61,0
131016,note_on,96,0,5,,,,,,,,4,,,30,0
131016,note_on,96,0,6,,,,,,,,5,,,42,0
131040,note_on,24,0,6,,,,,,,,5,,,75,72
131040,note_on,24,0,4,,,,,,,,3,,,47,72
131040,note_on,0,0,6,,,,,,,,5,,,47,72
131040,note_on,24,0,1,,,,,,,,0,,,75,72
131040,note_on,24,0,3,,,,,,,,2,,,59,72
131040,note_on,24,0,5,,,,,,,,4,,,35,72
131040,note_on,24,0,2,,,,,,,,1,,,75,72
131136,note_on,96,0,2,,,,,,,,1,,,75,0
131136,note_on,96,0,5,,,,,,,,4,,,35,0
131136,note_on,96,0,6,,,,,,,,5,,,47,0
131136,note_on,0,0,6,,,,,,,,5,,,75,0
131136,note_on,96,0,1,,,,,,,,0,,,75,0
131136,note_on,96,0,4,,,,,,,,3,,,47,0
131136,note_on,96,0,3,,,,,,,,2,,,59,0
131160,note_on,24,0,3,,,,,,,,2,,,66,72
131160,note_on,24,0,2,,,,,,,,1,,,73,72
131160,note_on,0,0,6,,,,,,,,5,,,71,72
131160,note_on,24,0,4,,,,,,,,3,,,51,72
131160,note_on,24,0,1,,,,,,,,0,,,73,72
131160,note_on,24,0,5,,,,,,,,4,,,39,72
131160,note_on,24,0,6,,,,,,,,5,,,51,72
131208,note_on,48,0,2,,,,,,,,1,,,73,0
131208,note_on,48,0,1,,,,,,,,0,,,73,0
131220,note_on,12,0,2,,,,,,,,1,,,71,72
131220,note_on,12,0,1,,,,,,,,0,,,71,72
131232,note_on,72,0,6,,,,,,,,5,,,66,0
131256,note_on,96,0,5,,,,,,,,4,,,39,0
131256,note_on,0,0,6,,,,,,,,5,,,51,0
131256,note_on,96,0,3,,,,,,,,2,,,66,0
131256,note_on,24,0,6,,,,,,,,5,,,71,0
131256,note_on,96,0,4,,,,,,,,3,,,51,0
131268,note_on,48,0,1,,,,,,,,0,,,71,0
131268,note_on,48,0,2,,,,,,,,1,,,71,0
131280,note_on,24,0,5,,,,,,,,4,,,40,72
131280,note_on,0,0,6,,,,,,,,5,,,52,72
131280,note_on,12,0,1,,,,,,,,0,,,73,72
131280,note_on,24,0,3,,,,,,,,2,,,68,72
131280,note_on,0,0,6,,,,,,,,5,,,68,72
131280,note_on,12,0,2,,,,,,,,1,,,73,72
131280,note_on,24,0,4,,,,,,,,3,,,52,72
131280,note_on,24,0,6,,,,,,,,5,,,73,72
131376,note_on,96,0,5,,,,,,,,4,,,40,0
131376,note_on,96,0,3,,,,,,,,2,,,68,0
131376,note_on,96,0,4,,,,,,,,3,,,52,0
131376,note_on,0,0,6,,,,,,,,5,,,73,0
131376,note_on,0,0,6,,,,,,,,5,,,52,0
131376,note_on,96,0,2,,,,,,,,1,,,73,0
131376,note_on,96,0,1,,,,,,,,0,,,73,0
131376,note_on,96,0,6,,,,,,,,5,,,68,0
131400,note_on,24,0,6,,,,,,,,5,,,70,72
131400,note_on,0,0,6,,,,,,,,5,,,54,72
131400,note_on,0,0,6,,,,,,,,5,,,66,72
131400,note_on,24,0,4,,,,,,,,3,,,54,72
131400,note_on,24,0,3,,,,,,,,2,,,61,72
131400,note_on,24,0,2,,,,,,,,1,,,70,72
131400,note_on,24,0,1,,,,,,,,0,,,70,72
131400,note_on,24,0,5,,,,,,,,4,,,42,72
131496,note_on,96,0,1,,,,,,,,0,,,70,0
131496,note_on,96,0,4,,,,,,,,3,,,54,0
131496,note_on,96,0,5,,,,,,,,4,,,42,0
131496,note_on,96,0,3,,,,,,,,2,,,61,0
131496,note_on,0,0,6,,,,,,,,5,,,70,0
131496,note_on,0,0,6,,,,,,,,5,,,54,0
131496,note_on,96,0,6,,,,,,,,5,,,66,0
131496,note_on,96,0,2,,,,,,,,1,,,70,0
131520,note_on,24,0,5,,,,,,,,4,,,35,105
131520,note_on,24,0,1,,,,,,,,0,,,71,105
131520,note_on,24,0,4,,,,,,,,3,,,47,105
131520,note_on,0,0,6,,,,,,,,5,,,63,105
131520,note_on,0,0,6,,,,,,,,5,,,47,105
131520,note_on,24,0,6,,,,,,,,5,,,71,105
131520,note_on,24,0,2,,,,,,,,1,,,71,105
131520,note_on,24,0,3,,,,,,,,2,,,63,105
131616,note_on,96,0,2,,,,,,,,1,,,71,0
131616,note_on,96,0,4,,,,,,,,3,,,47,0
131616,note_on,96,0,5,,,,,,,,4,,,35,0
131616,note_on,96,0,1,,,,,,,,0,,,71,0
131616,note_on,0,0,6,,,,,,,,5,,,71,0
131616,note_on,96,0,3,,,,,,,,2,,,63,0
131616,note_on,0,0,6,,,,,,,,5,,,47,0
131616,note_on,96,0,6,,,,,,,,5,,,63,0
131640,note_on,24,0,2,,,,,,,,1,,,73,105
131640,note_on,24,0,3,,,,,,,,2,,,70,105
131640,note_on,24,0,1,,,,,,,,0,,,73,105
131640,note_on,0,0,6,,,,,,,,5,,,70,105
131640,note_on,24,0,6,,,,,,,,5,,,54,105
131640,note_on,0,0,6,,,,,,,,5,,,61,105
131640,note_on,24,0,4,,,,,,,,3,,,54,105
131640,note_on,24,0,5,,,,,,,,4,,,42,105
131736,note_on,96,0,2,,,,,,,,1,,,73,0
131736,note_on,96,0,5,,,,,,,,4,,,42,0
131736,note_on,96,0,4,,,,,,,,3,,,54,0
131736,note_on,96,0,3,,,,,,,,2,,,70,0
131736,note_on,96,0,6,,,,,,,,5,,,61,0
131736,note_on,0,0,6,,,,,,,,5,,,70,0
131736,note_on,96,0,1,,,,,,,,0,,,73,0
131736,note_on,0,0,6,,,,,,,,5,,,54,0
131760,note_on,24,0,6,,,,,,,,5,,,59,105
131760,note_on,24,0,1,,,,,,,,0,,,75,105
131760,note_on,24,0,5,,,,,,,,4,,,47,105
131760,note_on,24,0,3,,,,,,,,2,,,66,105
131760,note_on,0,0,6,,,,,,,,5,,,63,105
131760,note_on,0,0,6,,,,,,,,5,,,71,105
131760,note_on,24,0,4,,,,,,,,3,,,59,105
131760,note_on,24,0,2,,,,,,,,1,,,75,105
131856,note_on,96,0,6,,,,,,,,5,,,63,0
131856,note_on,0,0,6,,,,,,,,5,,,71,0
131856,note_on,0,0,6,,,,,,,,5,,,59,0
131856,note_on,96,0,3,,,,,,,,2,,,66,0
131856,note_on,96,0,5,,,,,,,,4,,,47,0
131856,note_on,96,0,4,,,,,,,,3,,,59,0
131856,note_on,96,0,1,,,,,,,,0,,,75,0
131856,note_on,96,0,2,,,,,,,,1,,,75,0
131880,note_on,24,0,5,,,,,,,,4,,,42,105
131880,note_on,24,0,2,,,,,,,,1,,,76,105
131880,note_on,24,0,4,,,,,,,,3,,,54,105
131880,note_on,24,0,6,,,,,,,,5,,,73,105
131880,note_on,0,0,6,,,,,,,,5,,,54,105
131880,note_on,0,0,6,,,,,,,,5,,,64,105
131880,note_on,24,0,3,,,,,,,,2,,,70,105
131880,note_on,24,0,1,,,,,,,,0,,,76,105
131976,note_on,96,0,2,,,,,,,,1,,,76,0
131976,note_on,96,0,4,,,,,,,,3,,,54,0
131976,note_on,0,0,6,,,,,,,,5,,,73,0
131976,note_on,96,0,5,,,,,,,,4,,,42,0
131976,note_on,96,0,6,,,,,,,,5,,,64,0
131976,note_on,96,0,1,,,,,,,,0,,,76,0
131976,note_on,96,0,3,,,,,,,,2,,,70,0
131976,note_on,0,0,6,,,,,,,,5,,,54,0
132000,note_on,24,0,3,,,,,,,,2,,,66,105
132000,note_on,24,0,2,,,,,,,,1,,,78,105
132000,note_on,24,0,4,,,,,,,,3,,,47,105
132000,note_on,24,0,5,,,,,,,,4,,,35,105
132000,note_on,24,0,1,,,,,,,,0,,,78,105
132000,note_on,0,0,6,,,,,,,,5,,,63,105
132000,note_on,0,0,6,,,,,,,,5,,,47,105
132000,note_on,24,0,6,,,,,,,,5,,,75,105
132096,note_on,0,0,6,,,,,,,,5,,,75,0
132096,note_on,0,0,6,,,,,,,,5,,,47,0
132096,note_on,96,0,6,,,,,,,,5,,,63,0
132096,note_on,96,0,1,,,,,,,,0,,,78,0
132096,note_on,96,0,4,,,,,,,,3,,,47,0
132096,note_on,96,0,3,,,,,,,,2,,,66,0
132096,note_on,96,0,5,,,,,,,,4,,,35,0
132096,note_on,96,0,2,,,,,,,,1,,,78,0
132120,note_on,24,0,3,,,,,,,,2,,,66,105
132120,note_on,24,0,2,,,,,,,,1,,,83,105
132120,note_on,24,0,5,,,,,,,,4,,,39,105
132120,note_on,0,0,6,,,,,,,,5,,,51,105
132120,note_on,24,0,6,,,,,,,,5,,,71,105
132120,note_on,24,0,4,,,,,,,,3,,,51,105
132120,note_on,0,0,6,,,,,,,,5,,,66,105
132120,note_on,24,0,1,,,,,,,,0,,,83,105
132216,note_on,96,0,6,,,,,,,,5,,,66,0
132216,note_on,0,0,6,,,,,,,,5,,,51,0
132216,note_on,0,0,6,,,,,,,,5,,,71,0
132216,note_on,96,0,4,,,,,,,,3,,,51,0
132216,note_on,96,0,3,,,,,,,,2,,,66,0
132216,note_on,96,0,5,,,,,,,,4,,,39,0
132240,note_on,24,0,6,,,,,,,,5,,,73,105
132240,note_on,0,0,6,,,,,,,,5,,,52,105
132240,note_on,0,0,6,,,,,,,,5,,,68,105
132240,note_on,24,0,3,,,,,,,,2,,,68,105
132240,note_on,24,0,5,,,,,,,,4,,,40,105
132240,note_on,24,0,4,,,,,,,,3,,,52,105
132312,note_on,192,0,2,,,,,,,,1,,,83,0
132312,note_on,192,0,1,,,,,,,,0,,,83,0
132336,note_on,96,0,5,,,,,,,,4,,,40,0
132336,note_on,96,0,6,,,,,,,,5,,,68,0
132336,note_on,96,0,3,,,,,,,,2,,,68,0
132336,note_on,96,0,4,,,,,,,,3,,,52,0
132336,note_on,0,0,6,,,,,,,,5,,,52,0
132336,note_on,0,0,6,,,,,,,,5,,,73,0
132360,note_on,24,0,6,,,,,,,,5,,,70,105
132360,note_on,48,0,2,,,,,,,,1,,,82,105
132360,note_on,24,0,3,,,,,,,,2,,,61,105
132360,note_on,0,0,6,,,,,,,,5,,,54,105
132360,note_on,0,0,6,,,,,,,,5,,,66,105
132360,note_on,24,0,4,,,,,,,,3,,,54,105
132360,note_on,24,0,5,,,,,,,,4,,,42,105
132360,note_on,48,0,1,,,,,,,,0,,,82,105
132408,note_on,48,0,1,,,,,,,,0,,,82,0
132408,note_on,48,0,2,,,,,,,,1,,,82,0
132420,note_on,12,0,2,,,,,,,,1,,,80,105
132420,note_on,12,0,1,,,,,,,,0,,,80,105
132456,note_on,96,0,6,,,,,,,,5,,,66,0
132456,note_on,0,0,6,,,,,,,,5,,,70,0
132456,note_on,0,0,6,,,,,,,,5,,,54,0
132456,note_on,96,0,3,,,,,,,,2,,,61,0
132456,note_on,96,0,4,,,,,,,,3,,,54,0
132456,note_on,96,0,5,,,,,,,,4,,,42,0
132468,note_on,48,0,1,,,,,,,,0,,,80,0
132468,note_on,48,0,2,,,,,,,,1,,,80,0
132480,note_on,24,0,3,,,,,,,,2,,,63,105
132480,note_on,24,0,5,,,,,,,,4,,,35,105
132480,note_on,24,0,4,,,,,,,,3,,,47,105
132480,note_on,12,0,1,,,,,,,,0,,,78,105
132480,note_on,24,0,6,,,,,,,,5,,,71,105
132480,note_on,0,0,6,,,,,,,,5,,,47,105
132480,note_on,0,0,6,,,,,,,,5,,,63,105
132480,note_on,12,0,2,,,,,,,,1,,,78,105
132576,note_on,96,0,5,,,,,,,,4,,,35,0
132576,note_on,96,0,1,,,,,,,,0,,,78,0
132576,note_on,96,0,4,,,,,,,,3,,,47,0
132576,note_on,0,0,6,,,,,,,,5,,,71,0
132576,note_on,96,0,6,,,,,,,,5,,,47,0
132576,note_on,96,0,2,,,,,,,,1,,,78,0
132576,note_on,96,0,3,,,,,,,,2,,,63,0
132600,note_on,24,0,5,,,,,,,,4,,,47,105
132600,note_on,24,0,4,,,,,,,,3,,,59,105
132600,note_on,24,0,3,,,,,,,,2,,,66,105
132600,note_on,24,0,2,,,,,,,,1,,,75,105
132600,note_on,24,0,6,,,,,,,,5,,,75,105
132600,note_on,0,0,6,,,,,,,,5,,,59,105
132600,note_on,24,0,1,,,,,,,,0,,,75,105
132672,note_on,72,0,6,,,,,,,,5,,,63,0
132696,note_on,96,0,5,,,,,,,,4,,,47,0
132696,note_on,96,0,1,,,,,,,,0,,,75,0
132696,note_on,96,0,2,,,,,,,,1,,,75,0
132696,note_on,0,0,6,,,,,,,,5,,,75,0
132696,note_on,96,0,4,,,,,,,,3,,,59,0
132696,note_on,24,0,6,,,,,,,,5,,,59,0
132696,note_on,96,0,3,,,,,,,,2,,,66,0
132720,note_on,0,0,6,,,,,,,,5,,,52,105
132720,note_on,0,0,6,,,,,,,,5,,,66,105
132720,note_on,24,0,2,,,,,,,,1,,,76,105
132720,note_on,24,0,3,,,,,,,,2,,,68,105
132720,note_on,24,0,5,,,,,,,,4,,,40,105
132720,note_on,24,0,1,,,,,,,,0,,,76,105
132720,note_on,24,0,6,,,,,,,,5,,,73,105
132720,note_on,24,0,4,,,,,,,,3,,,52,105
132816,note_on,96,0,5,,,,,,,,4,,,40,0
132816,note_on,0,0,6,,,,,,,,5,,,52,0
132816,note_on,96,0,4,,,,,,,,3,,,52,0
132816,note_on,96,0,2,,,,,,,,1,,,76,0
132816,note_on,96,0,3,,,,,,,,2,,,68,0
132816,note_on,0,0,6,,,,,,,,5,,,73,0
132816,note_on,96,0,1,,,,,,,,0,,,76,0
132816,note_on,96,0,6,,,,,,,,5,,,66,0
132840,note_on,24,0,6,,,,,,,,5,,,54,105
132840,note_on,0,0,6,,,,,,,,5,,,66,105
132840,note_on,0,0,6,,,,,,,,5,,,70,105
132840,note_on,24,0,3,,,,,,,,2,,,66,105
132840,note_on,24,0,2,,,,,,,,1,,,73,105
132840,note_on,24,0,5,,,,,,,,4,,,42,105
132840,note_on,24,0,4,,,,,,,,3,,,54,105
132840,note_on,24,0,1,,,,,,,,0,,,73,105
132936,note_on,96,0,2,,,,,,,,1,,,73,0
132936,note_on,96,0,1,,,,,,,,0,,,73,0
132936,note_on,0,0,6,,,,,,,,5,,,54,0
132936,note_on,96,0,4,,,,,,,,3,,,54,0
132936,note_on,96,0,3,,,,,,,,2,,,66,0
132936,note_on,96,0,5,,,,,,,,4,,,42,0
132936,note_on,0,0,6,,,,,,,,5,,,70,0
132936,note_on,96,0,6,,,,,,,,5,,,66,0
132960,note_on,24,0,1,,,,,,,,0,,,75,105
132960,note_on,24,0,6,,,,,,,,5,,,71,105
132960,note_on,0,0,6,,,,,,,,5,,,47,105
132960,note_on,0,0,6,,,,,,,,5,,,63,105
132960,note_on,24,0,3,,,,,,,,2,,,66,105
132960,note_on,24,0,2,,,,,,,,1,,,75,105
132960,note_on,24,0,4,,,,,,,,3,,,47,105
132960,note_on,24,0,5,,,,,,,,4,,,35,105
133056,note_on,96,0,1,,,,,,,,0,,,75,0
133056,note_on,96,0,6,,,,,,,,5,,,47,0
133056,note_on,0,0,6,,,,,,,,5,,,71,0
133056,note_on,96,0,3,,,,,,,,2,,,66,0
133056,note_on,96,0,5,,,,,,,,4,,,35,0
133056,note_on,96,0,2,,,,,,,,1,,,75,0
133056,note_on,96,0,4,,,,,,,,3,,,47,0
133080,note_on,24,0,2,,,,,,,,1,,,71,105
133080,note_on,24,0,6,,,,,,,,5,,,75,105
133080,note_on,24,0,1,,,,,,,,0,,,71,105
133080,note_on,24,0,4,,,,,,,,3,,,59,105
133080,note_on,0,0,6,,,,,,,,5,,,59,105
133080,note_on,24,0,5,,,,,,,,4,,,47,105
133080,note_on,24,0,3,,,,,,,,2,,,63,105
133152,note_on,72,0,6,,,,,,,,5,,,63,0
133176,note_on,96,0,1,,,,,,,,0,,,71,0
133176,note_on,96,0,4,,,,,,,,3,,,59,0
133176,note_on,96,0,5,,,,,,,,4,,,47,0
133176,note_on,0,0,6,,,,,,,,5,,,75,0
133176,note_on,96,0,3,,,,,,,,2,,,63,0
133176,note_on,24,0,6,,,,,,,,5,,,59,0
133176,note_on,96,0,2,,,,,,,,1,,,71,0
133200,note_on,24,0,6,,,,,,,,5,,,73,105
133200,note_on,24,0,1,,,,,,,,0,,,78,105
133200,note_on,24,0,3,,,,,,,,2,,,73,105
133200,note_on,24,0,4,,,,,,,,3,,,57,105
133200,note_on,24,0,2,,,,,,,,1,,,78,105
133200,note_on,24,0,5,,,,,,,,4,,,45,105
133200,note_on,0,0,6,,,,,,,,5,,,66,105
133200,note_on,0,0,6,,,,,,,,5,,,57,105
133248,note_on,48,0,2,,,,,,,,1,,,78,0
133248,note_on,48,0,1,,,,,,,,0,,,78,0
133260,note_on,12,0,2,,,,,,,,1,,,80,105
133260,note_on,12,0,1,,,,,,,,0,,,80,105
133296,note_on,0,0,6,,,,,,,,5,,,57,0
133296,note_on,96,0,5,,,,,,,,4,,,45,0
133296,note_on,96,0,3,,,,,,,,2,,,73,0
133296,note_on,96,0,6,,,,,,,,5,,,66,0
133296,note_on,96,0,4,,,,,,,,3,,,57,0
133308,note_on,48,0,1,,,,,,,,0,,,80,0
133308,note_on,48,0,2,,,,,,,,1,,,80,0
133320,note_on,12,0,2,,,,,,,,1,,,81,105
133320,note_on,24,0,5,,,,,,,,4,,,42,105
133320,note_on,0,0,6,,,,,,,,5,,,69,105
133320,note_on,12,0,1,,,,,,,,0,,,81,105
133320,note_on,24,0,3,,,,,,,,2,,,69,105
133320,note_on,24,0,6,,,,,,,,5,,,54,105
133320,note_on,24,0,4,,,,,,,,3,,,54,105
133368,note_on,48,0,2,,,,,,,,1,,,81,0
133368,note_on,48,0,1,,,,,,,,0,,,81,0
133380,note_on,12,0,1,,,,,,,,0,,,78,105
133380,note_on,12,0,2,,,,,,,,1,,,78,105
133392,note_on,72,0,6,,,,,,,,5,,,73,0
133416,note_on,0,0,6,,,,,,,,5,,,54,0
133416,note_on,96,0,4,,,,,,,,3,,,54,0
133416,note_on,96,0,5,,,,,,,,4,,,42,0
133416,note_on,24,0,6,,,,,,,,5,,,69,0
133416,note_on,96,0,3,,,,,,,,2,,,69,0
133428,note_on,48,0,2,,,,,,,,1,,,78,0
133428,note_on,48,0,1,,,,,,,,0,,,78,0
133440,note_on,24,0,6,,,,,,,,5,,,75,105
133440,note_on,0,0,6,,,,,,,,5,,,68,105
133440,note_on,0,0,6,,,,,,,,5,,,60,105
133440,note_on,24,0,5,,,,,,,,4,,,48,105
133440,note_on,12,0,2,,,,,,,,1,,,75,105
133440,note_on,24,0,3,,,,,,,,2,,,68,105
133440,note_on,24,0,4,,,,,,,,3,,,60,105
133440,note_on,12,0,1,,,,,,,,0,,,75,105
133536,note_on,96,0,4,,,,,,,,3,,,60,0
133536,note_on,0,0,6,,,,,,,,5,,,60,0
133536,note_on,96,0,6,,,,,,,,5,,,68,0
133536,note_on,96,0,5,,,,,,,,4,,,48,0
133560,note_on,0,0,6,,,,,,,,5,,,70,105
133560,note_on,24,0,6,,,,,,,,5,,,58,105
133560,note_on,24,0,4,,,,,,,,3,,,58,105
133560,note_on,24,0,5,,,,,,,,4,,,46,105
133632,note_on,192,0,1,,,,,,,,0,,,75,0
133632,note_on,192,0,2,,,,,,,,1,,,75,0
133656,note_on,96,0,4,,,,,,,,3,,,58,0
133656,note_on,96,0,5,,,,,,,,4,,,46,0
133656,note_on,96,0,6,,,,,,,,5,,,70,0
133656,note_on,0,0,6,,,,,,,,5,,,58,0
133680,note_on,0,0,6,,,,,,,,5,,,72,105
133680,note_on,24,0,6,,,,,,,,5,,,56,105
133680,note_on,48,0,2,,,,,,,,1,,,72,105
133680,note_on,24,0,5,,,,,,,,4,,,44,105
133680,note_on,24,0,4,,,,,,,,3,,,56,105
133680,note_on,48,0,1,,,,,,,,0,,,72,105
133728,note_on,288,0,3,,,,,,,,2,,,68,0
133776,note_on,96,0,6,,,,,,,,5,,,72,0
133776,note_on,0,0,6,,,,,,,,5,,,56,0
133776,note_on,96,0,5,,,,,,,,4,,,44,0
133776,note_on,96,0,2,,,,,,,,1,,,72,0
133776,note_on,96,0,1,,,,,,,,0,,,72,0
133776,note_on,96,0,4,,,,,,,,3,,,56,0
133800,note_on,24,0,6,,,,,,,,5,,,60,105
133800,note_on,72,0,3,,,,,,,,2,,,68,105
133800,note_on,0,0,6,,,,,,,,5,,,68,105
133800,note_on,24,0,1,,,,,,,,0,,,73,105
133800,note_on,24,0,5,,,,,,,,4,,,47,105
133800,note_on,24,0,2,,,,,,,,1,,,73,105
133800,note_on,24,0,4,,,,,,,,3,,,60,105
133824,note_on,24,0,6,,,,,,,,5,,,75,0
133848,note_on,48,0,2,,,,,,,,1,,,73,0
133848,note_on,48,0,1,,,,,,,,0,,,73,0
133860,note_on,12,0,1,,,,,,,,0,,,75,105
133860,note_on,12,0,2,,,,,,,,1,,,75,105
133896,note_on,96,0,4,,,,,,,,3,,,60,0
133896,note_on,96,0,5,,,,,,,,4,,,47,0
133896,note_on,72,0,6,,,,,,,,5,,,68,0
133896,note_on,0,0,6,,,,,,,,5,,,60,0
133896,note_on,96,0,3,,,,,,,,2,,,68,0
133908,note_on,48,0,2,,,,,,,,1,,,75,0
133908,note_on,48,0,1,,,,,,,,0,,,75,0
133920,note_on,24,0,4,,,,,,,,3,,,61,105
133920,note_on,24,0,5,,,,,,,,4,,,49,105
133920,note_on,12,0,1,,,,,,,,0,,,76,105
133920,note_on,24,0,3,,,,,,,,2,,,68,105
133920,note_on,0,0,6,,,,,,,,5,,,61,105
133920,note_on,12,0,2,,,,,,,,1,,,76,105
133920,note_on,24,0,6,,,,,,,,5,,,73,105
133920,note_on,0,0,6,,,,,,,,5,,,64,105
134016,note_on,96,0,5,,,,,,,,4,,,49,0
134016,note_on,96,0,6,,,,,,,,5,,,61,0
134016,note_on,96,0,2,,,,,,,,1,,,76,0
134016,note_on,96,0,4,,,,,,,,3,,,61,0
134016,note_on,96,0,1,,,,,,,,0,,,76,0
134040,note_on,24,0,6,,,,,,,,5,,,49,105
134040,note_on,24,0,1,,,,,,,,0,,,73,105
134040,note_on,24,0,2,,,,,,,,1,,,76,105
134040,note_on,24,0,4,,,,,,,,3,,,49,105
134040,note_on,24,0,5,,,,,,,,4,,,37,105
134088,note_on,48,0,1,,,,,,,,0,,,73,0
134088,note_on,48,0,2,,,,,,,,1,,,76,0
134100,note_on,12,0,1,,,,,,,,0,,,75,105
134100,note_on,12,0,2,,,,,,,,1,,,78,105
134112,note_on,72,0,6,,,,,,,,5,,,64,0
134112,note_on,0,0,6,,,,,,,,5,,,73,0
134112,note_on,192,0,3,,,,,,,,2,,,68,0
134136,note_on,24,0,6,,,,,,,,5,,,49,0
134136,note_on,96,0,4,,,,,,,,3,,,49,0
134136,note_on,96,0,5,,,,,,,,4,,,37,0
134148,note_on,48,0,1,,,,,,,,0,,,75,0
134148,note_on,48,0,2,,,,,,,,1,,,78,0
134160,note_on,24,0,6,,,,,,,,5,,,68,105
134160,note_on,12,0,1,,,,,,,,0,,,76,105
134160,note_on,12,0,2,,,,,,,,1,,,80,105
134280,note_on,144,0,4,,,,,,,,3,,,64,105
134280,note_on,168,0,3,,,,,,,,2,,,68,105
134280,note_on,144,0,5,,,,,,,,4,,,53,105
134280,note_on,120,0,6,,,,,,,,5,,,64,105
134280,note_on,0,0,6,,,,,,,,5,,,73,105
134328,note_on,48,0,3,,,,,,,,2,,,68,0
134328,note_on,48,0,4,,,,,,,,3,,,64,0
134328,note_on,0,0,6,,,,,,,,5,,,64,0
134328,note_on,48,0,5,,,,,,,,4,,,53,0
134328,note_on,48,0,6,,,,,,,,5,,,73,0
134340,note_on,0,0,6,,,,,,,,5,,,63,105
134340,note_on,12,0,6,,,,,,,,5,,,75,105
134340,note_on,12,0,4,,,,,,,,3,,,63,105
134340,note_on,12,0,3,,,,,,,,2,,,66,105
134340,note_on,12,0,5,,,,,,,,4,,,50,105
134388,note_on,48,0,4,,,,,,,,3,,,63,0
134388,note_on,0,0,6,,,,,,,,5,,,75,0
134388,note_on,48,0,6,,,,,,,,5,,,63,0
134388,note_on,48,0,5,,,,,,,,4,,,50,0
134388,note_on,48,0,3,,,,,,,,2,,,66,0
134400,note_on,12,0,4,,,,,,,,3,,,61,105
134400,note_on,12,0,5,,,,,,,,4,,,49,105
134400,note_on,12,0,3,,,,,,,,2,,,64,105
134400,note_on,0,0,6,,,,,,,,5,,,76,105
134400,note_on,12,0,6,,,,,,,,5,,,61,105
134496,note_on,96,0,4,,,,,,,,3,,,61,0
134496,note_on,336,0,2,,,,,,,,1,,,80,0
134496,note_on,96,0,5,,,,,,,,4,,,49,0
134496,note_on,96,0,6,,,,,,,,5,,,61,0
134496,note_on,336,0,1,,,,,,,,0,,,76,0
134520,note_on,24,0,1,,,,,,,,0,,,73,105
134520,note_on,24,0,4,,,,,,,,3,,,49,105
134520,note_on,24,0,5,,,,,,,,4,,,37,105
134520,note_on,24,0,6,,,,,,,,5,,,49,105
134520,note_on,24,0,2,,,,,,,,1,,,76,105
134568,note_on,48,0,1,,,,,,,,0,,,73,0
134568,note_on,48,0,2,,,,,,,,1,,,76,0
134580,note_on,12,0,2,,,,,,,,1,,,78,105
134580,note_on,12,0,1,,,,,,,,0,,,75,105
134592,note_on,72,0,6,,,,,,,,5,,,76,0
134592,note_on,0,0,6,,,,,,,,5,,,68,0
134592,note_on,192,0,3,,,,,,,,2,,,64,0
134616,note_on,96,0,4,,,,,,,,3,,,49,0
134616,note_on,96,0,5,,,,,,,,4,,,37,0
134616,note_on,24,0,6,,,,,,,,5,,,49,0
134628,note_on,48,0,2,,,,,,,,1,,,78,0
134628,note_on,48,0,1,,,,,,,,0,,,75,0
134640,note_on,12,0,2,,,,,,,,1,,,80,105
134640,note_on,12,0,1,,,,,,,,0,,,76,105
134736,note_on,96,0,1,,,,,,,,0,,,76,0
134736,note_on,96,0,2,,,,,,,,1,,,80,0
134760,note_on,144,0,6,,,,,,,,5,,,61,105
134760,note_on,0,0,6,,,,,,,,5,,,73,105
134760,note_on,0,0,6,,,,,,,,5,,,64,105
134760,note_on,168,0,3,,,,,,,,2,,,68,105
134760,note_on,144,0,4,,,,,,,,3,,,61,105
134760,note_on,24,0,2,,,,,,,,1,,,73,105
134760,note_on,144,0,5,,,,,,,,4,,,49,105
134760,note_on,24,0,1,,,,,,,,0,,,76,105
134808,note_on,48,0,1,,,,,,,,0,,,76,0
134808,note_on,48,0,6,,,,,,,,5,,,73,0
134808,note_on,48,0,2,,,,,,,,1,,,73,0
134820,note_on,12,0,1,,,,,,,,0,,,78,105
134820,note_on,12,0,6,,,,,,,,5,,,75,105
134820,note_on,12,0,2,,,,,,,,1,,,75,105
134856,note_on,96,0,5,,,,,,,,4,,,49,0
134856,note_on,36,0,6,,,,,,,,5,,,61,0
134856,note_on,96,0,3,,,,,,,,2,,,68,0
134856,note_on,96,0,4,,,,,,,,3,,,61,0
134868,note_on,12,0,6,,,,,,,,5,,,75,0
134868,note_on,48,0,1,,,,,,,,0,,,78,0
134868,note_on,48,0,2,,,,,,,,1,,,75,0
134880,note_on,12,0,1,,,,,,,,0,,,80,105
134880,note_on,12,0,6,,,,,,,,5,,,61,105
134880,note_on,0,0,6,,,,,,,,5,,,76,105
134880,note_on,24,0,4,,,,,,,,3,,,61,105
134880,note_on,12,0,2,,,,,,,,1,,,76,105
134880,note_on,24,0,3,,,,,,,,2,,,64,105
134880,note_on,24,0,5,,,,,,,,4,,,49,105
134928,note_on,48,0,1,,,,,,,,0,,,80,0
134928,note_on,48,0,2,,,,,,,,1,,,76,0
134940,note_on,12,0,2,,,,,,,,1,,,80,105
134940,note_on,12,0,1,,,,,,,,0,,,80,105
134976,note_on,0,0,6,,,,,,,,5,,,64,0
134976,note_on,96,0,6,,,,,,,,5,,,61,0
134976,note_on,96,0,4,,,,,,,,3,,,61,0
134976,note_on,96,0,5,,,,,,,,4,,,49,0
134976,note_on,96,0,3,,,,,,,,2,,,64,0
134988,note_on,48,0,1,,,,,,,,0,,,80,0
134988,note_on,48,0,2,,,,,,,,1,,,80,0
135000,note_on,12,0,1,,,,,,,,0,,,76,105
135000,note_on,24,0,6,,,,,,,,5,,,49,105
135000,note_on,0,0,6,,,,,,,,5,,,68,105
135000,note_on,24,0,3,,,,,,,,2,,,64,105
135000,note_on,12,0,2,,,,,,,,1,,,76,105
135000,note_on,24,0,4,,,,,,,,3,,,49,105
135000,note_on,24,0,5,,,,,,,,4,,,37,105
135048,note_on,48,0,2,,,,,,,,1,,,76,0
135048,note_on,48,0,1,,,,,,,,0,,,76,0
135060,note_on,12,0,2,,,,,,,,1,,,73,105
135060,note_on,12,0,1,,,,,,,,0,,,73,105
135096,note_on,96,0,6,,,,,,,,5,,,68,0
135096,note_on,0,0,6,,,,,,,,5,,,49,0
135096,note_on,96,0,5,,,,,,,,4,,,37,0
135096,note_on,96,0,4,,,,,,,,3,,,49,0
135096,note_on,96,0,3,,,,,,,,2,,,64,0
135108,note_on,48,0,2,,,,,,,,1,,,73,0
135108,note_on,48,0,1,,,,,,,,0,,,73,0
135120,note_on,24,0,5,,,,,,,,4,,,37,105
135120,note_on,24,0,3,,,,,,,,2,,,64,105
135120,note_on,0,0,6,,,,,,,,5,,,73,105
135120,note_on,24,0,6,,,,,,,,5,,,49,105
135120,note_on,12,0,2,,,,,,,,1,,,68,105
135120,note_on,12,0,1,,,,,,,,0,,,68,105
135120,note_on,24,0,4,,,,,,,,3,,,49,105
135216,note_on,96,0,6,,,,,,,,5,,,49,0
135216,note_on,96,0,4,,,,,,,,3,,,49,0
135216,note_on,96,0,3,,,,,,,,2,,,64,0
135216,note_on,96,0,5,,,,,,,,4,,,37,0
135240,note_on,24,0,6,,,,,,,,5,,,49,105
135240,note_on,24,0,3,,,,,,,,2,,,64,105
135240,note_on,24,0,5,,,,,,,,4,,,37,105
135240,note_on,24,0,4,,,,,,,,3,,,49,105
135264,note_on,24,0,6,,,,,,,,5,,,76,0
135312,note_on,192,0,2,,,,,,,,1,,,68,0
135312,note_on,48,0,6,,,,,,,,5,,,73,0
135312,note_on,192,0,1,,,,,,,,0,,,68,0
135336,note_on,96,0,3,,,,,,,,2,,,64,0
135336,note_on,96,0,4,,,,,,,,3,,,49,0
135336,note_on,24,0,6,,,,,,,,5,,,49,0
135336,note_on,96,0,5,,,,,,,,4,,,37,0
135360,note_on,48,0,2,,,,,,,,1,,,69,105
135360,note_on,0,0,6,,,,,,,,5,,,69,105
135360,note_on,0,0,6,,,,,,,,5,,,78,105
135360,note_on,24,0,6,,,,,,,,5,,,48,105
135360,note_on,24,0,3,,,,,,,,2,,,66,105
135360,note_on,48,0,1,,,,,,,,0,,,69,105
135360,note_on,24,0,5,,,,,,,,4,,,36,105
135360,note_on,24,0,4,,,,,,,,3,,,48,105
135456,note_on,96,0,5,,,,,,,,4,,,36,0
135456,note_on,0,0,6,,,,,,,,5,,,48,0
135456,note_on,96,0,4,,,,,,,,3,,,48,0
135456,note_on,96,0,6,,,,,,,,5,,,78,0
135456,note_on,96,0,3,,,,,,,,2,,,66,0
135480,note_on,0,0,6,,,,,,,,5,,,48,105
135480,note_on,24,0,6,,,,,,,,5,,,75,105
135480,note_on,24,0,4,,,,,,,,3,,,48,105
135480,note_on,24,0,5,,,,,,,,4,,,36,105
135480,note_on,24,0,3,,,,,,,,2,,,66,105
135552,note_on,72,0,6,,,,,,,,5,,,69,0
135552,note_on,192,0,2,,,,,,,,1,,,69,0
135552,note_on,192,0,1,,,,,,,,0,,,69,0
135576,note_on,96,0,5,,,,,,,,4,,,36,0
135576,note_on,0,0,6,,,,,,,,5,,,75,0
135576,note_on,96,0,3,,,,,,,,2,,,66,0
135576,note_on,24,0,6,,,,,,,,5,,,48,0
135576,note_on,96,0,4,,,,,,,,3,,,48,0
135600,note_on,24,0,4,,,,,,,,3,,,49,105
135600,note_on,24,0,6,,,,,,,,5,,,49,105
135600,note_on,0,0,6,,,,,,,,5,,,76,105
135600,note_on,48,0,1,,,,,,,,0,,,68,105
135600,note_on,24,0,5,,,,,,,,4,,,37,105
135600,note_on,48,0,2,,,,,,,,1,,,68,105
135600,note_on,24,0,3,,,,,,,,2,,,64,105
135600,note_on,0,0,6,,,,,,,,5,,,68,105
135696,note_on,96,0,3,,,,,,,,2,,,64,0
135696,note_on,96,0,6,,,,,,,,5,,,76,0
135696,note_on,96,0,1,,,,,,,,0,,,68,0
135696,note_on,96,0,2,,,,,,,,1,,,68,0
135696,note_on,0,0,6,,,,,,,,5,,,49,0
135696,note_on,96,0,4,,,,,,,,3,,,49,0
135696,note_on,96,0,5,,,,,,,,4,,,37,0
135720,note_on,24,0,3,,,,,,,,2,,,72,105
135720,note_on,24,0,1,,,,,,,,0,,,78,105
135720,note_on,24,0,4,,,,,,,,3,,,44,105
135720,note_on,0,0,6,,,,,,,,5,,,44,105
135720,note_on,24,0,2,,,,,,,,1,,,78,105
135720,note_on,24,0,6,,,,,,,,5,,,75,105
135720,note_on,24,0,5,,,,,,,,4,,,32,105
135792,note_on,72,0,6,,,,,,,,5,,,68,0
135816,note_on,96,0,4,,,,,,,,3,,,44,0
135816,note_on,0,0,6,,,,,,,,5,,,75,0
135816,note_on,96,0,2,,,,,,,,1,,,78,0
135816,note_on,96,0,1,,,,,,,,0,,,78,0
135816,note_on,96,0,3,,,,,,,,2,,,72,0
135816,note_on,96,0,5,,,,,,,,4,,,32,0
135816,note_on,24,0,6,,,,,,,,5,,,44,0
135840,note_on,24,0,1,,,,,,,,0,,,76,105
135840,note_on,24,0,3,,,,,,,,2,,,68,105
135840,note_on,24,0,5,,,,,,,,4,,,37,105
135840,note_on,24,0,4,,,,,,,,3,,,49,105
135840,note_on,24,0,6,,,,,,,,5,,,49,105
135840,note_on,0,0,6,,,,,,,,5,,,73,105
135840,note_on,0,0,6,,,,,,,,5,,,64,105
135840,note_on,24,0,2,,,,,,,,1,,,76,105
135936,note_on,96,0,2,,,,,,,,1,,,76,0
135936,note_on,96,0,4,,,,,,,,3,,,49,0
135936,note_on,96,0,1,,,,,,,,0,,,76,0
135936,note_on,96,0,6,,,,,,,,5,,,73,0
135936,note_on,0,0,6,,,,,,,,5,,,49,0
135936,note_on,96,0,3,,,,,,,,2,,,68,0
135936,note_on,96,0,5,,,,,,,,4,,,37,0
135960,note_on,24,0,3,,,,,,,,2,,,68,105
135960,note_on,0,0,6,,,,,,,,5,,,76,105
135960,note_on,24,0,1,,,,,,,,0,,,75,105
135960,note_on,24,0,6,,,,,,,,5,,,61,105
135960,note_on,24,0,4,,,,,,,,3,,,61,105
135960,note_on,24,0,5,,,,,,,,4,,,49,105
135960,note_on,24,0,2,,,,,,,,1,,,75,105
136008,note_on,48,0,2,,,,,,,,1,,,75,0
136008,note_on,48,0,1,,,,,,,,0,,,75,0
136020,note_on,12,0,2,,,,,,,,1,,,73,105
136020,note_on,12,0,1,,,,,,,,0,,,73,105
136032,note_on,72,0,6,,,,,,,,5,,,64,0
136056,note_on,0,0,6,,,,,,,,5,,,61,0
136056,note_on,96,0,4,,,,,,,,3,,,61,0
136056,note_on,24,0,6,,,,,,,,5,,,76,0
136056,note_on,96,0,5,,,,,,,,4,,,49,0
136056,note_on,96,0,3,,,,,,,,2,,,68,0
136068,note_on,48,0,2,,,,,,,,1,,,73,0
136068,note_on,48,0,1,,,,,,,,0,,,73,0
136080,note_on,0,0,6,,,,,,,,5,,,69,105
136080,note_on,24,0,6,,,,,,,,5,,,54,105
136080,note_on,24,0,4,,,,,,,,3,,,54,105
136080,note_on,24,0,5,,,,,,,,4,,,42,105
136080,note_on,24,0,3,,,,,,,,2,,,69,105
136080,note_on,12,0,2,,,,,,,,1,,,75,105
136080,note_on,12,0,1,,,,,,,,0,,,75,105
136080,note_on,0,0,6,,,,,,,,5,,,75,105
136176,note_on,96,0,4,,,,,,,,3,,,54,0
136176,note_on,96,0,2,,,,,,,,1,,,75,0
136176,note_on,0,0,6,,,,,,,,5,,,54,0
136176,note_on,96,0,6,,,,,,,,5,,,69,0
136176,note_on,96,0,5,,,,,,,,4,,,42,0
136176,note_on,96,0,3,,,,,,,,2,,,69,0
136176,note_on,96,0,1,,,,,,,,0,,,75,0
136176,note_on,0,0,6,,,,,,,,5,,,75,0
136200,note_on,24,0,6,,,,,,,,5,,,72,105
136200,note_on,0,0,6,,,,,,,,5,,,68,105
136200,note_on,24,0,2,,,,,,,,1,,,72,105
136200,note_on,24,0,3,,,,,,,,2,,,68,105
136200,note_on,0,0,6,,,,,,,,5,,,56,105
136200,note_on,24,0,4,,,,,,,,3,,,56,105
136200,note_on,24,0,5,,,,,,,,4,,,44,105
136200,note_on,24,0,1,,,,,,,,0,,,72,105
136296,note_on,96,0,3,,,,,,,,2,,,68,0
136296,note_on,96,0,2,,,,,,,,1,,,72,0
136296,note_on,96,0,5,,,,,,,,4,,,44,0
136296,note_on,96,0,4,,,,,,,,3,,,56,0
136296,note_on,0,0,6,,,,,,,,5,,,72,0
136296,note_on,0,0,6,,,,,,,,5,,,56,0
136296,note_on,96,0,6,,,,,,,,5,,,68,0
136296,note_on,96,0,1,,,,,,,,0,,,72,0
136320,note_on,24,0,6,,,,,,,,5,,,49,72
136320,note_on,24,0,5,,,,,,,,4,,,37,72
136320,note_on,0,0,6,,,,,,,,5,,,73,72
136320,note_on,24,0,2,,,,,,,,1,,,73,72
136320,note_on,24,0,4,,,,,,,,3,,,49,72
136320,note_on,24,0,1,,,,,,,,0,,,73,72
136320,note_on,24,0,3,,,,,,,,2,,,64,72
136320,note_on,0,0,6,,,,,,,,5,,,64,72
136368,note_on,48,0,1,,,,,,,,0,,,73,0
136368,note_on,48,0,2,,,,,,,,1,,,73,0
136380,note_on,12,0,2,,,,,,,,1,,,80,72
136380,note_on,12,0,1,,,,,,,,0,,,80,72
136416,note_on,96,0,6,,,,,,,,5,,,64,0
136416,note_on,96,0,4,,,,,,,,3,,,49,0
136416,note_on,96,0,5,,,,,,,,4,,,37,0
136416,note_on,0,0,6,,,,,,,,5,,,49,0
136416,note_on,96,0,3,,,,,,,,2,,,64,0
136428,note_on,48,0,1,,,,,,,,0,,,80,0
136428,note_on,48,0,2,,,,,,,,1,,,80,0
136440,note_on,12,0,1,,,,,,,,0,,,76,72
136440,note_on,12,0,2,,,,,,,,1,,,76,72
136440,note_on,24,0,5,,,,,,,,4,,,37,72
136440,note_on,0,0,6,,,,,,,,5,,,68,72
136440,note_on,24,0,6,,,,,,,,5,,,49,72
136440,note_on,24,0,3,,,,,,,,2,,,64,72
136440,note_on,24,0,4,,,,,,,,3,,,49,72
136488,note_on,48,0,2,,,,,,,,1,,,76,0
136488,note_on,48,0,1,,,,,,,,0,,,76,0
136500,note_on,12,0,1,,,,,,,,0,,,73,72
136500,note_on,12,0,2,,,,,,,,1,,,73,72
136512,note_on,72,0,6,,,,,,,,5,,,73,0
136536,note_on,96,0,4,,,,,,,,3,,,49,0
136536,note_on,96,0,3,,,,,,,,2,,,64,0
136536,note_on,96,0,5,,,,,,,,4,,,37,0
136536,note_on,24,0,6,,,,,,,,5,,,49,0
136548,note_on,48,0,1,,,,,,,,0,,,73,0
136548,note_on,48,0,2,,,,,,,,1,,,73,0
136560,note_on,12,0,1,,,,,,,,0,,,68,72
136560,note_on,24,0,4,,,,,,,,3,,,49,72
136560,note_on,24,0,5,,,,,,,,4,,,37,72
136560,note_on,0,0,6,,,,,,,,5,,,76,72
136560,note_on,24,0,3,,,,,,,,2,,,64,72
136560,note_on,24,0,6,,,,,,,,5,,,49,72
136560,note_on,12,0,2,,,,,,,,1,,,68,72
136656,note_on,0,0,6,,,,,,,,5,,,68,0
136656,note_on,96,0,3,,,,,,,,2,,,64,0
136656,note_on,96,0,5,,,,,,,,4,,,37,0
136656,note_on,96,0,4,,,,,,,,3,,,49,0
136656,note_on,96,0,6,,,,,,,,5,,,49,0
136680,note_on,24,0,5,,,,,,,,4,,,37,72
136680,note_on,24,0,4,,,,,,,,3,,,49,72
136680,note_on,0,0,6,,,,,,,,5,,,73,72
136680,note_on,24,0,3,,,,,,,,2,,,64,72
136680,note_on,24,0,6,,,,,,,,5,,,49,72
136752,note_on,192,0,2,,,,,,,,1,,,68,0
136752,note_on,72,0,6,,,,,,,,5,,,76,0
136752,note_on,192,0,1,,,,,,,,0,,,68,0
136776,note_on,96,0,4,,,,,,,,3,,,49,0
136776,note_on,24,0,6,,,,,,,,5,,,73,0
136776,note_on,0,0,6,,,,,,,,5,,,49,0
136776,note_on,96,0,3,,,,,,,,2,,,64,0
136776,note_on,96,0,5,,,,,,,,4,,,37,0
136800,note_on,24,0,6,,,,,,,,5,,,48,72
136800,note_on,0,0,6,,,,,,,,5,,,69,72
136800,note_on,0,0,6,,,,,,,,5,,,78,72
136800,note_on,48,0,1,,,,,,,,0,,,69,72
136800,note_on,24,0,3,,,,,,,,2,,,66,72
136800,note_on,24,0,5,,,,,,,,4,,,36,72
136800,note_on,24,0,4,,,,,,,,3,,,48,72
136800,note_on,48,0,2,,,,,,,,1,,,69,72
136896,note_on,96,0,4,,,,,,,,3,,,48,0
136896,note_on,96,0,6,,,,,,,,5,,,69,0
136896,note_on,0,0,6,,,,,,,,5,,,48,0
136896,note_on,96,0,5,,,,,,,,4,,,36,0
136896,note_on,96,0,3,,,,,,,,2,,,66,0
136920,note_on,0,0,6,,,,,,,,5,,,75,72
136920,note_on,24,0,6,,,,,,,,5,,,48,72
136920,note_on,24,0,5,,,,,,,,4,,,36,72
136920,note_on,24,0,4,,,,,,,,3,,,48,72
136920,note_on,24,0,3,,,,,,,,2,,,66,72
136992,note_on,192,0,1,,,,,,,,0,,,69,0
136992,note_on,192,0,2,,,,,,,,1,,,69,0
136992,note_on,72,0,6,,,,,,,,5,,,78,0
137016,note_on,96,0,5,,,,,,,,4,,,36,0
137016,note_on,96,0,3,,,,,,,,2,,,66,0
137016,note_on,24,0,6,,,,,,,,5,,,75,0
137016,note_on,0,0,6,,,,,,,,5,,,48,0
137016,note_on,96,0,4,,,,,,,,3,,,48,0
137040,note_on,24,0,6,,,,,,,,5,,,49,72
137040,note_on,0,0,6,,,,,,,,5,,,68,72
137040,note_on,0,0,6,,,,,,,,5,,,76,72
137040,note_on,24,0,3,,,,,,,,2,,,64,72
137040,note_on,24,0,5,,,,,,,,4,,,37,72
137040,note_on,48,0,1,,,,,,,,0,,,68,72
137040,note_on,48,0,2,,,,,,,,1,,,68,72
137040,note_on,24,0,4,,,,,,,,3,,,49,72
137136,note_on,96,0,5,,,,,,,,4,,,37,0
137136,note_on,96,0,4,,,,,,,,3,,,49,0
137136,note_on,96,0,2,,,,,,,,1,,,68,0
137136,note_on,0,0,6,,,,,,,,5,,,49,0
137136,note_on,0,0,6,,,,,,,,5,,,68,0
137136,note_on,96,0,3,,,,,,,,2,,,64,0
137136,note_on,96,0,6,,,,,,,,5,,,76,0
137136,note_on,96,0,1,,,,,,,,0,,,68,0
137160,note_on,24,0,4,,,,,,,,3,,,44,72
137160,note_on,24,0,2,,,,,,,,1,,,78,72
137160,note_on,24,0,1,,,,,,,,0,,,78,72
137160,note_on,0,0,6,,,,,,,,5,,,44,72
137160,note_on,0,0,6,,,,,,,,5,,,75,72
137160,note_on,24,0,6,,,,,,,,5,,,72,72
137160,note_on,24,0,3,,,,,,,,2,,,72,72
137160,note_on,24,0,5,,,,,,,,4,,,32,72
137256,note_on,96,0,4,,,,,,,,3,,,44,0
137256,note_on,96,0,5,,,,,,,,4,,,32,0
137256,note_on,0,0,6,,,,,,,,5,,,44,0
137256,note_on,96,0,1,,,,,,,,0,,,78,0
137256,note_on,96,0,3,,,,,,,,2,,,72,0
137256,note_on,96,0,2,,,,,,,,1,,,78,0
137256,note_on,0,0,6,,,,,,,,5,,,72,0
137256,note_on,96,0,6,,,,,,,,5,,,75,0
137280,note_on,24,0,5,,,,,,,,4,,,37,72
137280,note_on,24,0,1,,,,,,,,0,,,76,72
137280,note_on,24,0,3,,,,,,,,2,,,68,72
137280,note_on,24,0,4,,,,,,,,3,,,49,72
137280,note_on,0,0,6,,,,,,,,5,,,73,72
137280,note_on,0,0,6,,,,,,,,5,,,49,72
137280,note_on,24,0,6,,,,,,,,5,,,73,72
137280,note_on,24,0,2,,,,,,,,1,,,76,72
137376,note_on,96,0,5,,,,,,,,4,,,37,0
137376,note_on,96,0,4,,,,,,,,3,,,49,0
137376,note_on,96,0,1,,,,,,,,0,,,76,0
137376,note_on,96,0,6,,,,,,,,5,,,73,0
137376,note_on,0,0,6,,,,,,,,5,,,49,0
137376,note_on,0,0,6,,,,,,,,5,,,73,0
137376,note_on,96,0,3,,,,,,,,2,,,68,0
137376,note_on,96,0,2,,,,,,,,1,,,76,0
137400,note_on,24,0,2,,,,,,,,1,,,75,72
137400,note_on,0,0,6,,,,,,,,5,,,64,72
137400,note_on,24,0,6,,,,,,,,5,,,61,72
137400,note_on,0,0,6,,,,,,,,5,,,76,72
137400,note_on,24,0,3,,,,,,,,2,,,68,72
137400,note_on,24,0,5,,,,,,,,4,,,49,72
137400,note_on,24,0,1,,,,,,,,0,,,75,72
137400,note_on,24,0,4,,,,,,,,3,,,61,72
137448,note_on,48,0,2,,,,,,,,1,,,75,0
137448,note_on,48,0,1,,,,,,,,0,,,75,0
137460,note_on,12,0,2,,,,,,,,1,,,73,72
137460,note_on,12,0,1,,,,,,,,0,,,73,72
137496,note_on,96,0,5,,,,,,,,4,,,49,0
137496,note_on,96,0,6,,,,,,,,5,,,64,0
137496,note_on,0,0,6,,,,,,,,5,,,76,0
137496,note_on,0,0,6,,,,,,,,5,,,61,0
137496,note_on,96,0,4,,,,,,,,3,,,61,0
137496,note_on,96,0,3,,,,,,,,2,,,68,0
137508,note_on,48,0,1,,,,,,,,0,,,73,0
137508,note_on,48,0,2,,,,,,,,1,,,73,0
137520,note_on,24,0,3,,,,,,,,2,,,69,72
137520,note_on,12,0,2,,,,,,,,1,,,75,72
137520,note_on,24,0,4,,,,,,,,3,,,54,72
137520,note_on,0,0,6,,,,,,,,5,,,66,72
137520,note_on,24,0,6,,,,,,,,5,,,54,72
137520,note_on,24,0,5,,,,,,,,4,,,42,72
137520,note_on,12,0,1,,,,,,,,0,,,75,72
137520,note_on,0,0,6,,,,,,,,5,,,75,72
137616,note_on,96,0,3,,,,,,,,2,,,69,0
137616,note_on,96,0,4,,,,,,,,3,,,54,0
137616,note_on,96,0,2,,,,,,,,1,,,75,0
137616,note_on,96,0,5,,,,,,,,4,,,42,0
137616,note_on,0,0,6,,,,,,,,5,,,54,0
137616,note_on,0,0,6,,,,,,,,5,,,66,0
137616,note_on,96,0,6,,,,,,,,5,,,75,0
137616,note_on,96,0,1,,,,,,,,0,,,75,0
137640,note_on,24,0,2,,,,,,,,1,,,72,72
137640,note_on,24,0,5,,,,,,,,4,,,44,72
137640,note_on,0,0,6,,,,,,,,5,,,63,72
137640,note_on,0,0,6,,,,,,,,5,,,72,72
137640,note_on,24,0,6,,,,,,,,5,,,56,72
137640,note_on,24,0,1,,,,,,,,0,,,72,72
137640,note_on,24,0,3,,,,,,,,2,,,68,72
137640,note_on,24,0,4,,,,,,,,3,,,56,72
137736,note_on,0,0,6,,,,,,,,5,,,72,0
137736,note_on,96,0,3,,,,,,,,2,,,68,0
137736,note_on,96,0,2,,,,,,,,1,,,72,0
137736,note_on,96,0,5,,,,,,,,4,,,44,0
137736,note_on,96,0,1,,,,,,,,0,,,72,0
137736,note_on,0,0,6,,,,,,,,5,,,56,0
137736,note_on,96,0,6,,,,,,,,5,,,63,0
137736,note_on,96,0,4,,,,,,,,3,,,56,0
137760,note_on,0,0,6,,,,,,,,5,,,64,72
137760,note_on,24,0,5,,,,,,,,4,,,37,72
137760,note_on,0,0,6,,,,,,,,5,,,49,72
137760,note_on,24,0,6,,,,,,,,5,,,73,72
137760,note_on,24,0,2,,,,,,,,1,,,73,72
137760,note_on,24,0,4,,,,,,,,3,,,49,72
137760,note_on,24,0,1,,,,,,,,0,,,73,72
137760,note_on,24,0,3,,,,,,,,2,,,64,72
137856,note_on,96,0,6,,,,,,,,5,,,64,0
137856,note_on,0,0,6,,,,,,,,5,,,49,0
137856,note_on,0,0,6,,,,,,,,5,,,73,0
137856,note_on,96,0,5,,,,,,,,4,,,37,0
137856,note_on,96,0,4,,,,,,,,3,,,49,0
137880,note_on,24,0,6,,,,,,,,5,,,57,72
137880,note_on,24,0,4,,,,,,,,3,,,57,72
137880,note_on,24,0,5,,,,,,,,4,,,45,72
137952,note_on,192,0,2,,,,,,,,1,,,73,0
137952,note_on,192,0,3,,,,,,,,2,,,64,0
137952,note_on,192,0,1,,,,,,,,0,,,73,0
137976,note_on,96,0,6,,,,,,,,5,,,57,0
137976,note_on,96,0,5,,,,,,,,4,,,45,0
137976,note_on,96,0,4,,,,,,,,3,,,57,0
138000,note_on,24,0,5,,,,,,,,4,,,44,72
138000,note_on,24,0,4,,,,,,,,3,,,56,72
138000,note_on,24,0,6,,,,,,,,5,,,56,72
138096,note_on,96,0,6,,,,,,,,5,,,56,0
138096,note_on,96,0,4,,,,,,,,3,,,56,0
138096,note_on,96,0,5,,,,,,,,4,,,44,0
138120,note_on,168,0,1,,,,,,,,0,,,69,105
138120,note_on,24,0,6,,,,,,,,5,,,52,72
138120,note_on,24,0,5,,,,,,,,4,,,40,105
138120,note_on,24,0,4,,,,,,,,3,,,52,72
138120,note_on,168,0,2,,,,,,,,1,,,69,105
138120,note_on,168,0,3,,,,,,,,2,,,64,105
138168,note_on,48,0,2,,,,,,,,1,,,69,0
138168,note_on,48,0,1,,,,,,,,0,,,69,0
138180,note_on,12,0,1,,,,,,,,0,,,68,105
138180,note_on,12,0,2,,,,,,,,1,,,68,105
138216,note_on,96,0,3,,,,,,,,2,,,64,0
138216,note_on,96,0,5,,,,,,,,4,,,40,0
138216,note_on,96,0,4,,,,,,,,3,,,52,0
138216,note_on,96,0,6,,,,,,,,5,,,52,0
138228,note_on,48,0,2,,,,,,,,1,,,68,0
138228,note_on,48,0,1,,,,,,,,0,,,68,0
138240,note_on,24,0,4,,,,,,,,3,,,45,72
138240,note_on,12,0,2,,,,,,,,1,,,69,105
138240,note_on,12,0,1,,,,,,,,0,,,69,105
138240,note_on,24,0,6,,,,,,,,5,,,73,105
138240,note_on,24,0,5,,,,,,,,4,,,33,105
138240,note_on,24,0,3,,,,,,,,2,,,64,105
138240,note_on,0,0,6,,,,,,,,5,,,45,105
138240,note_on,0,0,6,,,,,,,,5,,,69,105
138336,note_on,96,0,6,,,,,,,,5,,,69,0
138336,note_on,0,0,6,,,,,,,,5,,,45,0
138336,note_on,0,0,6,,,,,,,,5,,,73,0
138336,note_on,96,0,1,,,,,,,,0,,,69,0
138336,note_on,96,0,2,,,,,,,,1,,,69,0
138336,note_on,96,0,4,,,,,,,,3,,,45,0
138336,note_on,96,0,5,,,,,,,,4,,,33,0
138336,note_on,96,0,3,,,,,,,,2,,,64,0
138360,note_on,24,0,2,,,,,,,,1,,,71,105
138360,note_on,24,0,1,,,,,,,,0,,,71,105
138360,note_on,0,0,6,,,,,,,,5,,,68,105
138360,note_on,24,0,6,,,,,,,,5,,,71,105
138360,note_on,24,0,5,,,,,,,,4,,,40,105
138360,note_on,24,0,3,,,,,,,,2,,,68,105
138360,note_on,24,0,4,,,,,,,,3,,,52,72
138360,note_on,0,0,6,,,,,,,,5,,,52,105
138456,note_on,96,0,2,,,,,,,,1,,,71,0
138456,note_on,96,0,5,,,,,,,,4,,,40,0
138456,note_on,96,0,4,,,,,,,,3,,,52,0
138456,note_on,96,0,1,,,,,,,,0,,,71,0
138456,note_on,0,0,6,,,,,,,,5,,,71,0
138456,note_on,0,0,6,,,,,,,,5,,,52,0
138456,note_on,96,0,3,,,,,,,,2,,,68,0
138456,note_on,96,0,6,,,,,,,,5,,,68,0
138480,note_on,24,0,2,,,,,,,,1,,,73,105
138480,note_on,24,0,3,,,,,,,,2,,,64,105
138480,note_on,24,0,5,,,,,,,,4,,,45,105
138480,note_on,0,0,6,,,,,,,,5,,,64,105
138480,note_on,24,0,4,,,,,,,,3,,,57,72
138480,note_on,0,0,6,,,,,,,,5,,,69,105
138480,note_on,24,0,6,,,,,,,,5,,,57,105
138480,note_on,24,0,1,,,,,,,,0,,,73,105
138576,note_on,96,0,1,,,,,,,,0,,,73,0
138576,note_on,96,0,3,,,,,,,,2,,,64,0
138576,note_on,0,0,6,,,,,,,,5,,,57,0
138576,note_on,96,0,6,,,,,,,,5,,,64,0
138576,note_on,96,0,4,,,,,,,,3,,,57,0
138576,note_on,96,0,5,,,,,,,,4,,,45,0
138576,note_on,96,0,2,,,,,,,,1,,,73,0
138576,note_on,0,0,6,,,,,,,,5,,,69,0
138600,note_on,24,0,4,,,,,,,,3,,,52,72
138600,note_on,24,0,3,,,,,,,,2,,,68,105
138600,note_on,24,0,6,,,,,,,,5,,,71,105
138600,note_on,0,0,6,,,,,,,,5,,,52,105
138600,note_on,0,0,6,,,,,,,,5,,,68,105
138600,note_on,24,0,2,,,,,,,,1,,,74,105
138600,note_on,24,0,1,,,,,,,,0,,,74,105
138600,note_on,24,0,5,,,,,,,,4,,,40,105
138696,note_on,96,0,4,,,,,,,,3,,,52,0
138696,note_on,96,0,2,,,,,,,,1,,,74,0
138696,note_on,96,0,1,,,,,,,,0,,,74,0
138696,note_on,96,0,5,,,,,,,,4,,,40,0
138696,note_on,96,0,6,,,,,,,,5,,,68,0
138696,note_on,0,0,6,,,,,,,,5,,,52,0
138696,note_on,0,0,6,,,,,,,,5,,,71,0
138696,note_on,96,0,3,,,,,,,,2,,,68,0
138720,note_on,24,0,2,,,,,,,,1,,,76,105
138720,note_on,24,0,4,,,,,,,,3,,,45,72
138720,note_on,24,0,3,,,,,,,,2,,,61,105
138720,note_on,24,0,1,,,,,,,,0,,,76,105
138720,note_on,24,0,5,,,,,,,,4,,,33,105
138720,note_on,0,0,6,,,,,,,,5,,,69,105
138720,note_on,0,0,6,,,,,,,,5,,,45,105
138720,note_on,24,0,6,,,,,,,,5,,,73,105
138816,note_on,0,0,6,,,,,,,,5,,,45,0
138816,note_on,96,0,3,,,,,,,,2,,,61,0
138816,note_on,96,0,4,,,,,,,,3,,,45,0
138816,note_on,96,0,2,,,,,,,,1,,,76,0
138816,note_on,96,0,5,,,,,,,,4,,,33,0
138816,note_on,0,0,6,,,,,,,,5,,,73,0
138816,note_on,96,0,6,,,,,,,,5,,,69,0
138816,note_on,96,0,1,,,,,,,,0,,,76,0
138840,note_on,0,0,6,,,,,,,,5,,,64,105
138840,note_on,24,0,1,,,,,,,,0,,,81,105
138840,note_on,24,0,6,,,,,,,,5,,,69,105
138840,note_on,0,0,6,,,,,,,,5,,,61,105
138840,note_on,24,0,2,,,,,,,,1,,,81,105
138840,note_on,24,0,5,,,,,,,,4,,,49,105
138840,note_on,24,0,3,,,,,,,,2,,,64,105
138840,note_on,24,0,4,,,,,,,,3,,,61,72
138936,note_on,96,0,6,,,,,,,,5,,,64,0
138936,note_on,96,0,5,,,,,,,,4,,,49,0
138936,note_on,96,0,3,,,,,,,,2,,,64,0
138936,note_on,96,0,4,,,,,,,,3,,,61,0
138936,note_on,0,0,6,,,,,,,,5,,,61,0
138960,note_on,24,0,5,,,,,,,,4,,,50,105
138960,note_on,24,0,3,,,,,,,,2,,,66,105
138960,note_on,24,0,6,,,,,,,,5,,,62,105
138960,note_on,24,0,4,,,,,,,,3,,,62,72
138960,note_on,0,0,6,,,,,,,,5,,,66,105
139032,note_on,192,0,2,,,,,,,,1,,,81,0
139032,note_on,72,0,6,,,,,,,,5,,,69,0
139032,note_on,192,0,1,,,,,,,,0,,,81,0
139056,note_on,96,0,3,,,,,,,,2,,,66,0
139056,note_on,0,0,6,,,,,,,,5,,,62,0
139056,note_on,96,0,5,,,,,,,,4,,,50,0
139056,note_on,24,0,6,,,,,,,,5,,,66,0
139056,note_on,96,0,4,,,,,,,,3,,,62,0
139080,note_on,48,0,2,,,,,,,,1,,,80,105
139080,note_on,24,0,5,,,,,,,,4,,,44,105
139080,note_on,24,0,3,,,,,,,,2,,,71,105
139080,note_on,48,0,1,,,,,,,,0,,,80,105
139080,note_on,24,0,4,,,,,,,,3,,,56,72
139080,note_on,24,0,6,,,,,,,,5,,,56,105
139080,note_on,0,0,6,,,,,,,,5,,,64,105
139080,note_on,0,0,6,,,,,,,,5,,,71,105
139128,note_on,48,0,2,,,,,,,,1,,,80,0
139128,note_on,48,0,1,,,,,,,,0,,,80,0
139140,note_on,12,0,1,,,,,,,,0,,,78,105
139140,note_on,12,0,2,,,,,,,,1,,,78,105
139176,note_on,96,0,3,,,,,,,,2,,,71,0
139176,note_on,96,0,4,,,,,,,,3,,,56,0
139176,note_on,96,0,5,,,,,,,,4,,,44,0
139176,note_on,0,0,6,,,,,,,,5,,,56,0
139176,note_on,96,0,6,,,,,,,,5,,,71,0
139188,note_on,48,0,2,,,,,,,,1,,,78,0
139188,note_on,48,0,1,,,,,,,,0,,,78,0
139200,note_on,24,0,4,,,,,,,,3,,,57,72
139200,note_on,12,0,1,,,,,,,,0,,,76,105
139200,note_on,24,0,6,,,,,,,,5,,,73,105
139200,note_on,24,0,3,,,,,,,,2,,,73,105
139200,note_on,0,0,6,,,,,,,,5,,,57,105
139200,note_on,12,0,2,,,,,,,,1,,,76,105
139200,note_on,24,0,5,,,,,,,,4,,,45,105
139296,note_on,96,0,2,,,,,,,,1,,,76,0
139296,note_on,96,0,3,,,,,,,,2,,,73,0
139296,note_on,0,0,6,,,,,,,,5,,,64,0
139296,note_on,96,0,5,,,,,,,,4,,,45,0
139296,note_on,96,0,4,,,,,,,,3,,,57,0
139296,note_on,0,0,6,,,,,,,,5,,,73,0
139296,note_on,96,0,6,,,,,,,,5,,,57,0
139296,note_on,96,0,1,,,,,,,,0,,,76,0
139320,note_on,24,0,2,,,,,,,,1,,,73,105
139320,note_on,24,0,3,,,,,,,,2,,,64,105
139320,note_on,24,0,5,,,,,,,,4,,,33,105
139320,note_on,0,0,6,,,,,,,,5,,,69,105
139320,note_on,24,0,1,,,,,,,,0,,,73,105
139320,note_on,24,0,4,,,,,,,,3,,,45,72
139320,note_on,24,0,6,,,,,,,,5,,,45,105
139416,note_on,96,0,3,,,,,,,,2,,,64,0
139416,note_on,0,0,6,,,,,,,,5,,,45,0
139416,note_on,96,0,6,,,,,,,,5,,,69,0
139416,note_on,96,0,5,,,,,,,,4,,,33,0
139416,note_on,96,0,4,,,,,,,,3,,,45,0
139416,note_on,96,0,1,,,,,,,,0,,,73,0
139416,note_on,96,0,2,,,,,,,,1,,,73,0
139440,note_on,0,0,6,,,,,,,,5,,,66,105
139440,note_on,24,0,1,,,,,,,,0,,,74,105
139440,note_on,24,0,3,,,,,,,,2,,,66,105
139440,note_on,24,0,4,,,,,,,,3,,,50,72
139440,note_on,24,0,5,,,,,,,,4,,,38,105
139440,note_on,24,0,6,,,,,,,,5,,,69,105
139440,note_on,0,0,6,,,,,,,,5,,,50,105
139440,note_on,24,0,2,,,,,,,,1,,,74,105
139536,note_on,96,0,4,,,,,,,,3,,,50,0
139536,note_on,96,0,2,,,,,,,,1,,,74,0
139536,note_on,96,0,5,,,,,,,,4,,,38,0
139536,note_on,96,0,1,,,,,,,,0,,,74,0
139536,note_on,96,0,3,,,,,,,,2,,,66,0
139536,note_on,0,0,6,,,,,,,,5,,,66,0
139536,note_on,96,0,6,,,,,,,,5,,,50,0
139536,note_on,0,0,6,,,,,,,,5,,,69,0
139560,note_on,24,0,3,,,,,,,,2,,,64,105
139560,note_on,24,0,1,,,,,,,,0,,,71,105
139560,note_on,0,0,6,,,,,,,,5,,,64,105
139560,note_on,24,0,6,,,,,,,,5,,,68,105
139560,note_on,24,0,5,,,,,,,,4,,,40,105
139560,note_on,24,0,2,,,,,,,,1,,,71,105
139560,note_on,24,0,4,,,,,,,,3,,,52,72
139560,note_on,0,0,6,,,,,,,,5,,,52,105
139656,note_on,96,0,4,,,,,,,,3,,,52,0
139656,note_on,0,0,6,,,,,,,,5,,,68,0
139656,note_on,96,0,6,,,,,,,,5,,,64,0
139656,note_on,0,0,6,,,,,,,,5,,,52,0
139656,note_on,96,0,5,,,,,,,,4,,,40,0
139656,note_on,96,0,1,,,,,,,,0,,,71,0
139656,note_on,96,0,3,,,,,,,,2,,,64,0
139656,note_on,96,0,2,,,,,,,,1,,,71,0
139680,note_on,24,0,6,,,,,,,,5,,,69,105
139680,note_on,0,0,6,,,,,,,,5,,,61,105
139680,note_on,0,0,6,,,,,,,,5,,,57,105
139680,note_on,24,0,4,,,,,,,,3,,,57,72
139680,note_on,24,0,2,,,,,,,,1,,,73,105
139680,note_on,24,0,5,,,,,,,,4,,,45,105
139680,note_on,24,0,3,,,,,,,,2,,,64,105
139680,note_on,24,0,1,,,,,,,,0,,,73,105
139776,note_on,96,0,1,,,,,,,,0,,,73,0
139776,note_on,96,0,2,,,,,,,,1,,,73,0
139776,note_on,96,0,4,,,,,,,,3,,,57,0
139776,note_on,96,0,5,,,,,,,,4,,,45,0
139776,note_on,96,0,6,,,,,,,,5,,,57,0
139776,note_on,96,0,3,,,,,,,,2,,,64,0
139800,note_on,24,0,1,,,,,,,,0,,,69,105
139800,note_on,24,0,4,,,,,,,,3,,,45,72
139800,note_on,24,0,6,,,,,,,,5,,,45,105
139800,note_on,24,0,2,,,,,,,,1,,,69,105
139800,note_on,24,0,3,,,,,,,,2,,,61,105
139800,note_on,24,0,5,,,,,,,,4,,,33,105
139872,note_on,72,0,6,,,,,,,,5,,,61,0
139872,note_on,0,0,6,,,,,,,,5,,,69,0
139896,note_on,96,0,2,,,,,,,,1,,,69,0
139896,note_on,96,0,4,,,,,,,,3,,,45,0
139896,note_on,24,0,6,,,,,,,,5,,,45,0
139896,note_on,96,0,5,,,,,,,,4,,,33,0
139896,note_on,96,0,3,,,,,,,,2,,,61,0
139896,note_on,96,0,1,,,,,,,,0,,,69,0
139920,note_on,24,0,2,,,,,,,,1,,,78,105
139920,note_on,24,0,1,,,,,,,,0,,,78,105
139968,note_on,48,0,1,,,,,,,,0,,,78,0
139968,note_on,48,0,2,,,,,,,,1,,,78,0
139980,note_on,12,0,2,,,,,,,,1,,,80,105
139980,note_on,12,0,1,,,,,,,,0,,,80,105
140028,note_on,48,0,1,,,,,,,,0,,,80,0
140028,note_on,48,0,2,,,,,,,,1,,,80,0
140040,note_on,12,0,1,,,,,,,,0,,,81,105
140040,note_on,144,0,4,,,,,,,,3,,,50,72
140040,note_on,144,0,5,,,,,,,,4,,,38,105
140040,note_on,0,0,6,,,,,,,,5,,,66,105
140040,note_on,0,0,6,,,,,,,,5,,,62,105
140040,note_on,144,0,6,,,,,,,,5,,,50,105
140040,note_on,144,0,3,,,,,,,,2,,,69,105
140040,note_on,12,0,2,,,,,,,,1,,,81,105
140088,note_on,48,0,1,,,,,,,,0,,,81,0
140088,note_on,48,0,2,,,,,,,,1,,,81,0
140100,note_on,12,0,2,,,,,,,,1,,,78,105
140100,note_on,12,0,1,,,,,,,,0,,,78,105
140136,note_on,96,0,5,,,,,,,,4,,,38,0
140136,note_on,0,0,6,,,,,,,,5,,,50,0
140136,note_on,0,0,6,,,,,,,,5,,,62,0
140136,note_on,96,0,6,,,,,,,,5,,,66,0
140136,note_on,96,0,3,,,,,,,,2,,,69,0
140136,note_on,96,0,4,,,,,,,,3,,,50,0
140148,note_on,48,0,2,,,,,,,,1,,,78,0
140148,note_on,48,0,1,,,,,,,,0,,,78,0
140160,note_on,0,0,6,,,,,,,,5,,,57,105
140160,note_on,12,0,1,,,,,,,,0,,,76,105
140160,note_on,12,0,2,,,,,,,,1,,,73,105
140160,note_on,24,0,4,,,,,,,,3,,,57,72
140160,note_on,24,0,3,,,,,,,,2,,,69,105
140160,note_on,0,0,6,,,,,,,,5,,,61,105
140160,note_on,24,0,6,,,,,,,,5,,,64,105
140160,note_on,24,0,5,,,,,,,,4,,,45,105
140256,note_on,96,0,6,,,,,,,,5,,,57,0
140256,note_on,96,0,4,,,,,,,,3,,,57,0
140256,note_on,96,0,5,,,,,,,,4,,,45,0
140256,note_on,96,0,3,,,,,,,,2,,,69,0
140280,note_on,24,0,5,,,,,,,,4,,,33,105
140280,note_on,24,0,6,,,,,,,,5,,,45,105
140280,note_on,24,0,3,,,,,,,,2,,,64,105
140280,note_on,24,0,4,,,,,,,,3,,,45,72
140352,note_on,0,0,6,,,,,,,,5,,,64,0
140352,note_on,72,0,6,,,,,,,,5,,,61,0
140352,note_on,192,0,2,,,,,,,,1,,,73,0
140352,note_on,192,0,1,,,,,,,,0,,,76,0
140376,note_on,96,0,4,,,,,,,,3,,,45,0
140376,note_on,96,0,3,,,,,,,,2,,,64,0
140376,note_on,96,0,5,,,,,,,,4,,,33,0
140376,note_on,24,0,6,,,,,,,,5,,,45,0
140400,note_on,48,0,1,,,,,,,,0,,,71,105
140400,note_on,48,0,2,,,,,,,,1,,,68,105
140496,note_on,96,0,1,,,,,,,,0,,,71,0
140496,note_on,96,0,2,,,,,,,,1,,,68,0
140520,note_on,24,0,2,,,,,,,,1,,,69,105
140520,note_on,144,0,3,,,,,,,,2,,,68,105
140520,note_on,0,0,6,,,,,,,,5,,,59,105
140520,note_on,0,0,6,,,,,,,,5,,,68,105
140520,note_on,144,0,4,,,,,,,,3,,,52,72
140520,note_on,144,0,5,,,,,,,,4,,,40,105
140520,note_on,24,0,1,,,,,,,,0,,,73,105
140520,note_on,144,0,6,,,,,,,,5,,,52,105
140568,note_on,48,0,2,,,,,,,,1,,,69,0
140568,note_on,48,0,1,,,,,,,,0,,,73,0
140580,note_on,12,0,2,,,,,,,,1,,,71,105
140580,note_on,12,0,1,,,,,,,,0,,,74,105
140616,note_on,96,0,4,,,,,,,,3,,,52,0
140616,note_on,0,0,6,,,,,,,,5,,,68,0
140616,note_on,0,0,6,,,,,,,,5,,,52,0
140616,note_on,96,0,3,,,,,,,,2,,,68,0
140616,note_on,96,0,5,,,,,,,,4,,,40,0
140616,note_on,96,0,6,,,,,,,,5,,,59,0
140628,note_on,48,0,1,,,,,,,,0,,,74,0
140628,note_on,48,0,2,,,,,,,,1,,,71,0
140640,note_on,24,0,6,,,,,,,,5,,,69,105
140640,note_on,24,0,3,,,,,,,,2,,,64,105
140640,note_on,24,0,4,,,,,,,,3,,,57,72
140640,note_on,0,0,6,,,,,,,,5,,,57,105
140640,note_on,12,0,1,,,,,,,,0,,,73,105
140640,note_on,0,0,6,,,,,,,,5,,,61,105
140640,note_on,12,0,2,,,,,,,,1,,,69,105
140640,note_on,24,0,5,,,,,,,,4,,,45,105
140736,note_on,96,0,6,,,,,,,,5,,,57,0
140736,note_on,96,0,4,,,,,,,,3,,,57,0
140736,note_on,96,0,3,,,,,,,,2,,,64,0
140736,note_on,96,0,5,,,,,,,,4,,,45,0
140760,note_on,24,0,6,,,,,,,,5,,,45,105
140760,note_on,24,0,4,,,,,,,,3,,,45,72
140760,note_on,24,0,5,,,,,,,,4,,,33,105
140760,note_on,24,0,3,,,,,,,,2,,,61,105
140832,note_on,192,0,1,,,,,,,,0,,,73,0
140832,note_on,192,0,2,,,,,,,,1,,,69,0
140832,note_on,72,0,6,,,,,,,,5,,,61,0
140832,note_on,0,0,6,,,,,,,,5,,,69,0
140856,note_on,96,0,5,,,,,,,,4,,,33,0
140856,note_on,24,0,6,,,,,,,,5,,,45,0
140856,note_on,96,0,3,,,,,,,,2,,,61,0
140856,note_on,96,0,4,,,,,,,,3,,,45,0
140880,note_on,48,0,1,,,,,,,,0,,,78,72
140880,note_on,48,0,2,,,,,,,,1,,,74,72
140928,note_on,48,0,2,,,,,,,,1,,,74,0
140928,note_on,48,0,1,,,,,,,,0,,,78,0
140940,note_on,12,0,2,,,,,,,,1,,,76,72
140940,note_on,12,0,1,,,,,,,,0,,,80,72
140988,note_on,48,0,2,,,,,,,,1,,,76,0
140988,note_on,48,0,1,,,,,,,,0,,,80,0
141000,note_on,144,0,4,,,,,,,,3,,,50,72
141000,note_on,12,0,1,,,,,,,,0,,,81,72
141000,note_on,144,0,3,,,,,,,,2,,,69,72
141000,note_on,144,0,6,,,,,,,,5,,,50,72
141000,note_on,144,0,5,,,,,,,,4,,,38,72
141000,note_on,12,0,2,,,,,,,,1,,,78,72
141000,note_on,0,0,6,,,,,,,,5,,,62,72
141000,note_on,0,0,6,,,,,,,,5,,,66,72
141048,note_on,48,0,1,,,,,,,,0,,,81,0
141048,note_on,48,0,2,,,,,,,,1,,,78,0
141060,note_on,12,0,1,,,,,,,,0,,,78,72
141060,note_on,12,0,2,,,,,,,,1,,,74,72
141096,note_on,0,0,6,,,,,,,,5,,,50,0
141096,note_on,0,0,6,,,,,,,,5,,,62,0
141096,note_on,96,0,4,,,,,,,,3,,,50,0
141096,note_on,96,0,6,,,,,,,,5,,,66,0
141096,note_on,96,0,5,,,,,,,,4,,,38,0
141096,note_on,96,0,3,,,,,,,,2,,,69,0
141108,note_on,48,0,2,,,,,,,,1,,,74,0
141108,note_on,48,0,1,,,,,,,,0,,,78,0
141120,note_on,24,0,5,,,,,,,,4,,,45,72
141120,note_on,0,0,6,,,,,,,,5,,,57,72
141120,note_on,0,0,6,,,,,,,,5,,,61,72
141120,note_on,12,0,2,,,,,,,,1,,,73,72
141120,note_on,24,0,4,,,,,,,,3,,,57,72
141120,note_on,12,0,1,,,,,,,,0,,,76,72
141120,note_on,24,0,3,,,,,,,,2,,,69,72
141120,note_on,24,0,6,,,,,,,,5,,,64,72
141216,note_on,96,0,4,,,,,,,,3,,,57,0
141216,note_on,96,0,3,,,,,,,,2,,,69,0
141216,note_on,96,0,6,,,,,,,,5,,,57,0
141216,note_on,96,0,5,,,,,,,,4,,,45,0
141240,note_on,24,0,3,,,,,,,,2,,,64,72
141240,note_on,24,0,4,,,,,,,,3,,,45,72
141240,note_on,24,0,6,,,,,,,,5,,,45,72
141240,note_on,24,0,5,,,,,,,,4,,,33,72
141312,note_on,0,0,6,,,,,,,,5,,,64,0
141312,note_on,72,0,6,,,,,,,,5,,,61,0
141312,note_on,192,0,2,,,,,,,,1,,,73,0
141312,note_on,192,0,1,,,,,,,,0,,,76,0
141336,note_on,96,0,3,,,,,,,,2,,,64,0
141336,note_on,96,0,4,,,,,,,,3,,,45,0
141336,note_on,96,0,5,,,,,,,,4,,,33,0
141336,note_on,24,0,6,,,,,,,,5,,,45,0
141360,note_on,48,0,1,,,,,,,,0,,,68,72
141360,note_on,48,0,2,,,,,,,,1,,,64,72
141456,note_on,96,0,1,,,,,,,,0,,,68,0
141456,note_on,96,0,2,,,,,,,,1,,,64,0
141480,note_on,144,0,4,,,,,,,,3,,,52,72
141480,note_on,0,0,6,,,,,,,,5,,,59,72
141480,note_on,24,0,1,,,,,,,,0,,,69,72
141480,note_on,144,0,3,,,,,,,,2,,,68,72
141480,note_on,144,0,5,,,,,,,,4,,,40,72
141480,note_on,0,0,6,,,,,,,,5,,,68,72
141480,note_on,24,0,2,,,,,,,,1,,,66,72
141480,note_on,144,0,6,,,,,,,,5,,,52,72
141528,note_on,48,0,2,,,,,,,,1,,,66,0
141528,note_on,48,0,1,,,,,,,,0,,,69,0
141540,note_on,12,0,2,,,,,,,,1,,,68,72
141540,note_on,12,0,1,,,,,,,,0,,,71,72
141576,note_on,96,0,5,,,,,,,,4,,,40,0
141576,note_on,0,0,6,,,,,,,,5,,,68,0
141576,note_on,96,0,6,,,,,,,,5,,,59,0
141576,note_on,0,0,6,,,,,,,,5,,,52,0
141576,note_on,96,0,3,,,,,,,,2,,,68,0
141576,note_on,96,0,4,,,,,,,,3,,,52,0
141588,note_on,48,0,1,,,,,,,,0,,,71,0
141588,note_on,48,0,2,,,,,,,,1,,,68,0
141600,note_on,24,0,3,,,,,,,,2,,,64,72
141600,note_on,12,0,1,,,,,,,,0,,,73,72
141600,note_on,24,0,6,,,,,,,,5,,,69,72
141600,note_on,0,0,6,,,,,,,,5,,,57,72
141600,note_on,0,0,6,,,,,,,,5,,,61,72
141600,note_on,12,0,2,,,,,,,,1,,,69,72
141600,note_on,24,0,5,,,,,,,,4,,,45,72
141600,note_on,24,0,4,,,,,,,,3,,,57,72
141696,note_on,96,0,6,,,,,,,,5,,,57,0
141696,note_on,96,0,1,,,,,,,,0,,,73,0
141696,note_on,96,0,3,,,,,,,,2,,,64,0
141696,note_on,96,0,5,,,,,,,,4,,,45,0
141696,note_on,96,0,4,,,,,,,,3,,,57,0
141720,note_on,24,0,1,,,,,,,,0,,,64,105
141720,note_on,24,0,6,,,,,,,,5,,,59,72
141720,note_on,24,0,5,,,,,,,,4,,,47,105
141720,note_on,24,0,3,,,,,,,,2,,,61,72
141720,note_on,24,0,4,,,,,,,,3,,,59,105
141792,note_on,0,0,6,,,,,,,,5,,,69,0
141792,note_on,72,0,6,,,,,,,,5,,,61,0
141792,note_on,192,0,2,,,,,,,,1,,,69,0
141816,note_on,24,0,6,,,,,,,,5,,,59,0
141816,note_on,96,0,1,,,,,,,,0,,,64,0
141816,note_on,96,0,5,,,,,,,,4,,,47,0
141816,note_on,96,0,3,,,,,,,,2,,,61,0
141816,note_on,96,0,4,,,,,,,,3,,,59,0
141840,note_on,24,0,1,,,,,,,,0,,,69,105
141840,note_on,24,0,6,,,,,,,,5,,,61,105
141840,note_on,24,0,4,,,,,,,,3,,,61,105
141840,note_on,24,0,5,,,,,,,,4,,,49,105
141936,note_on,96,0,6,,,,,,,,5,,,61,0
141936,note_on,96,0,4,,,,,,,,3,,,61,0
141936,note_on,96,0,5,,,,,,,,4,,,49,0
141960,note_on,0,0,6,,,,,,,,5,,,69,105
141960,note_on,24,0,6,,,,,,,,5,,,57,105
141960,note_on,24,0,4,,,,,,,,3,,,57,105
141960,note_on,168,0,2,,,,,,,,1,,,64,105
141960,note_on,144,0,3,,,,,,,,2,,,64,72
141960,note_on,24,0,5,,,,,,,,4,,,45,105
142056,note_on,96,0,3,,,,,,,,2,,,64,0
142056,note_on,96,0,6,,,,,,,,5,,,57,0
142056,note_on,96,0,2,,,,,,,,1,,,64,0
142056,note_on,96,0,5,,,,,,,,4,,,45,0
142056,note_on,96,0,4,,,,,,,,3,,,57,0
142080,note_on,24,0,6,,,,,,,,5,,,71,105
142080,note_on,24,0,2,,,,,,,,1,,,71,105
142080,note_on,24,0,5,,,,,,,,4,,,38,105
142080,note_on,0,0,6,,,,,,,,5,,,50,105
142080,note_on,24,0,3,,,,,,,,2,,,66,72
142080,note_on,24,0,4,,,,,,,,3,,,50,105
142176,note_on,96,0,4,,,,,,,,3,,,50,0
142176,note_on,336,0,1,,,,,,,,0,,,69,0
142176,note_on,96,0,5,,,,,,,,4,,,38,0
142176,note_on,96,0,3,,,,,,,,2,,,66,0
142176,note_on,0,0,6,,,,,,,,5,,,69,0
142176,note_on,96,0,6,,,,,,,,5,,,50,0
142200,note_on,24,0,6,,,,,,,,5,,,52,105
142200,note_on,0,0,6,,,,,,,,5,,,68,105
142200,note_on,24,0,1,,,,,,,,0,,,68,105
142200,note_on,24,0,3,,,,,,,,2,,,68,72
142200,note_on,24,0,5,,,,,,,,4,,,40,105
142200,note_on,24,0,4,,,,,,,,3,,,52,105
142296,note_on,96,0,5,,,,,,,,4,,,40,0
142296,note_on,96,0,1,,,,,,,,0,,,68,0
142296,note_on,0,0,6,,,,,,,,5,,,52,0
142296,note_on,96,0,6,,,,,,,,5,,,68,0
142296,note_on,96,0,3,,,,,,,,2,,,68,0
142296,note_on,96,0,4,,,,,,,,3,,,52,0
142320,note_on,0,0,6,,,,,,,,5,,,57,105
142320,note_on,24,0,6,,,,,,,,5,,,73,105
142320,note_on,24,0,4,,,,,,,,3,,,57,105
142320,note_on,24,0,5,,,,,,,,4,,,45,105
142320,note_on,24,0,1,,,,,,,,0,,,73,105
142368,note_on,288,0,2,,,,,,,,1,,,71,0
142368,note_on,48,0,6,,,,,,,,5,,,71,0
142416,note_on,96,0,5,,,,,,,,4,,,45,0
142416,note_on,96,0,4,,,,,,,,3,,,57,0
142416,note_on,48,0,6,,,,,,,,5,,,57,0
142440,note_on,144,0,3,,,,,,,,2,,,61,72
142440,note_on,24,0,5,,,,,,,,4,,,33,105
142440,note_on,72,0,2,,,,,,,,1,,,69,105
142440,note_on,24,0,6,,,,,,,,5,,,45,105
142440,note_on,0,0,6,,,,,,,,5,,,69,105
142440,note_on,24,0,4,,,,,,,,3,,,45,105
142536,note_on,96,0,6,,,,,,,,5,,,69,0
142536,note_on,0,0,6,,,,,,,,5,,,45,0
142536,note_on,96,0,4,,,,,,,,3,,,45,0
142536,note_on,96,0,2,,,,,,,,1,,,69,0
142536,note_on,96,0,5,,,,,,,,4,,,33,0
142536,note_on,96,0,3,,,,,,,,2,,,61,0
142560,note_on,0,0,6,,,,,,,,5,,,74,105
142560,note_on,24,0,4,,,,,,,,3,,,47,105
142560,note_on,24,0,2,,,,,,,,1,,,74,105
142560,note_on,24,0,6,,,,,,,,5,,,47,105
142560,note_on,24,0,5,,,,,,,,4,,,35,105
142560,note_on,24,0,3,,,,,,,,2,,,66,72
142656,note_on,96,0,3,,,,,,,,2,,,66,0
142656,note_on,96,0,4,,,,,,,,3,,,47,0
142656,note_on,336,0,1,,,,,,,,0,,,73,0
142656,note_on,0,0,6,,,,,,,,5,,,73,0
142656,note_on,96,0,6,,,,,,,,5,,,47,0
142656,note_on,96,0,5,,,,,,,,4,,,35,0
142680,note_on,24,0,4,,,,,,,,3,,,56,105
142680,note_on,24,0,1,,,,,,,,0,,,71,105
142680,note_on,0,0,6,,,,,,,,5,,,71,105
142680,note_on,24,0,6,,,,,,,,5,,,56,105
142680,note_on,24,0,5,,,,,,,,4,,,44,105
142680,note_on,24,0,3,,,,,,,,2,,,71,72
142776,note_on,96,0,5,,,,,,,,4,,,44,0
142776,note_on,96,0,4,,,,,,,,3,,,56,0
142776,note_on,96,0,3,,,,,,,,2,,,71,0
142776,note_on,96,0,1,,,,,,,,0,,,71,0
142776,note_on,96,0,6,,,,,,,,5,,,71,0
142776,note_on,0,0,6,,,,,,,,5,,,56,0
142800,note_on,24,0,4,,,,,,,,3,,,57,105
142800,note_on,24,0,5,,,,,,,,4,,,45,105
142800,note_on,24,0,1,,,,,,,,0,,,76,105
142800,note_on,0,0,6,,,,,,,,5,,,76,105
142800,note_on,24,0,6,,,,,,,,5,,,57,105
142848,note_on,288,0,2,,,,,,,,1,,,74,0
142848,note_on,48,0,6,,,,,,,,5,,,74,0
142896,note_on,96,0,4,,,,,,,,3,,,57,0
142896,note_on,96,0,5,,,,,,,,4,,,45,0
142896,note_on,48,0,6,,,,,,,,5,,,57,0
142920,note_on,24,0,4,,,,,,,,3,,,45,105
142920,note_on,72,0,2,,,,,,,,1,,,73,105
142920,note_on,0,0,6,,,,,,,,5,,,73,105
142920,note_on,144,0,3,,,,,,,,2,,,73,72
142920,note_on,24,0,6,,,,,,,,5,,,45,105
142920,note_on,24,0,5,,,,,,,,4,,,33,105
143016,note_on,96,0,4,,,,,,,,3,,,45,0
143016,note_on,96,0,2,,,,,,,,1,,,73,0
143016,note_on,96,0,6,,,,,,,,5,,,73,0
143016,note_on,96,0,5,,,,,,,,4,,,33,0
143016,note_on,0,0,6,,,,,,,,5,,,45,0
143016,note_on,96,0,3,,,,,,,,2,,,73,0
143040,note_on,24,0,2,,,,,,,,1,,,78,105
143040,note_on,0,0,6,,,,,,,,5,,,50,105
143040,note_on,24,0,6,,,,,,,,5,,,78,105
143040,note_on,24,0,3,,,,,,,,2,,,69,72
143040,note_on,24,0,4,,,,,,,,3,,,50,105
143040,note_on,24,0,5,,,,,,,,4,,,35,105
143136,note_on,336,0,1,,,,,,,,0,,,76,0
143136,note_on,96,0,6,,,,,,,,5,,,50,0
143136,note_on,0,0,6,,,,,,,,5,,,76,0
143136,note_on,96,0,4,,,,,,,,3,,,50,0
143136,note_on,96,0,5,,,,,,,,4,,,35,0
143160,note_on,24,0,1,,,,,,,,0,,,74,105
143160,note_on,24,0,6,,,,,,,,5,,,62,105
143160,note_on,24,0,5,,,,,,,,4,,,50,105
143160,note_on,24,0,4,,,,,,,,3,,,62,105
143160,note_on,0,0,6,,,,,,,,5,,,74,105
143232,note_on,192,0,3,,,,,,,,2,,,69,0
143256,note_on,96,0,4,,,,,,,,3,,,62,0
143256,note_on,96,0,6,,,,,,,,5,,,74,0
143256,note_on,96,0,1,,,,,,,,0,,,74,0
143256,note_on,0,0,6,,,,,,,,5,,,62,0
143256,note_on,96,0,5,,,,,,,,4,,,50,0
143280,note_on,0,0,6,,,,,,,,5,,,80,105
143280,note_on,24,0,6,,,,,,,,5,,,64,105
143280,note_on,24,0,4,,,,,,,,3,,,64,105
143280,note_on,48,0,3,,,,,,,,2,,,68,72
143280,note_on,24,0,5,,,,,,,,4,,,52,105
143280,note_on,24,0,1,,,,,,,,0,,,80,105
143328,note_on,48,0,6,,,,,,,,5,,,78,0
143328,note_on,288,0,2,,,,,,,,1,,,78,0
143376,note_on,48,0,6,,,,,,,,5,,,64,0
143376,note_on,96,0,5,,,,,,,,4,,,52,0
143376,note_on,96,0,4,,,,,,,,3,,,64,0
143376,note_on,96,0,3,,,,,,,,2,,,68,0
143400,note_on,24,0,6,,,,,,,,5,,,52,105
143400,note_on,0,0,6,,,,,,,,5,,,76,105
143400,note_on,24,0,3,,,,,,,,2,,,68,72
143400,note_on,24,0,5,,,,,,,,4,,,40,105
143400,note_on,24,0,4,,,,,,,,3,,,52,105
143400,note_on,72,0,2,,,,,,,,1,,,76,105
143448,note_on,48,0,2,,,,,,,,1,,,76,0
143460,note_on,12,0,2,,,,,,,,1,,,74,105
143472,note_on,192,0,1,,,,,,,,0,,,80,0
143472,note_on,72,0,6,,,,,,,,5,,,80,0
143496,note_on,96,0,5,,,,,,,,4,,,40,0
143496,note_on,0,0,6,,,,,,,,5,,,52,0
143496,note_on,24,0,6,,,,,,,,5,,,76,0
143496,note_on,96,0,3,,,,,,,,2,,,68,0
143496,note_on,96,0,4,,,,,,,,3,,,52,0
143508,note_on,48,0,2,,,,,,,,1,,,74,0
143520,note_on,48,0,1,,,,,,,,0,,,81,105
143520,note_on,0,0,6,,,,,,,,5,,,73,105
143520,note_on,0,0,6,,,,,,,,5,,,57,105
143520,note_on,24,0,6,,,,,,,,5,,,81,105
143520,note_on,24,0,4,,,,,,,,3,,,57,105
143520,note_on,24,0,3,,,,,,,,2,,,64,72
143520,note_on,24,0,5,,,,,,,,4,,,45,105
143520,note_on,12,0,2,,,,,,,,1,,,76,105
143616,note_on,96,0,6,,,,,,,,5,,,57,0
143616,note_on,96,0,4,,,,,,,,3,,,57,0
143616,note_on,96,0,5,,,,,,,,4,,,45,0
143616,note_on,96,0,3,,,,,,,,2,,,64,0
143640,note_on,24,0,4,,,,,,,,3,,,45,105
143640,note_on,24,0,3,,,,,,,,2,,,61,72
143640,note_on,24,0,5,,,,,,,,4,,,33,105
143640,note_on,24,0,6,,,,,,,,5,,,45,105
143712,note_on,192,0,2,,,,,,,,1,,,76,0
143712,note_on,192,0,1,,,,,,,,0,,,81,0
143712,note_on,72,0,6,,,,,,,,5,,,73,0
143712,note_on,0,0,6,,,,,,,,5,,,81,0
143736,note_on,96,0,5,,,,,,,,4,,,33,0
143736,note_on,96,0,4,,,,,,,,3,,,45,0
143736,note_on,24,0,6,,,,,,,,5,,,45,0
143736,note_on,96,0,3,,,,,,,,2,,,61,0
143760,note_on,24,0,4,,,,,,,,3,,,45,105
143760,note_on,24,0,6,,,,,,,,5,,,45,105
143760,note_on,24,0,3,,,,,,,,2,,,61,72
143760,note_on,48,0,2,,,,,,,,1,,,76,105
143760,note_on,24,0,5,,,,,,,,4,,,33,105
143760,note_on,48,0,1,,,,,,,,0,,,76,105
143808,note_on,48,0,2,,,,,,,,1,,,76,0
143808,note_on,48,0,1,,,,,,,,0,,,76,0
143820,note_on,12,0,1,,,,,,,,0,,,73,105
143820,note_on,12,0,2,,,,,,,,1,,,73,105
143856,note_on,96,0,3,,,,,,,,2,,,61,0
143856,note_on,96,0,6,,,,,,,,5,,,45,0
143856,note_on,96,0,4,,,,,,,,3,,,45,0
143856,note_on,96,0,5,,,,,,,,4,,,33,0
143868,note_on,48,0,2,,,,,,,,1,,,73,0
143868,note_on,48,0,1,,,,,,,,0,,,73,0
143880,note_on,12,0,2,,,,,,,,1,,,69,105
143880,note_on,24,0,5,,,,,,,,4,,,37,105
143880,note_on,24,0,4,,,,,,,,3,,,49,105
143880,note_on,12,0,1,,,,,,,,0,,,69,105
143880,note_on,24,0,3,,,,,,,,2,,,64,72
143880,note_on,24,0,6,,,,,,,,5,,,49,105
143928,note_on,48,0,1,,,,,,,,0,,,69,0
143928,note_on,48,0,2,,,,,,,,1,,,69,0
143940,note_on,12,0,2,,,,,,,,1,,,64,105
143940,note_on,12,0,1,,,,,,,,0,,,64,105
143976,note_on,96,0,5,,,,,,,,4,,,37,0
143976,note_on,96,0,6,,,,,,,,5,,,49,0
143976,note_on,96,0,3,,,,,,,,2,,,64,0
143976,note_on,96,0,4,,,,,,,,3,,,49,0
143988,note_on,48,0,2,,,,,,,,1,,,64,0
143988,note_on,48,0,1,,,,,,,,0,,,64,0
144000,note_on,24,0,4,,,,,,,,3,,,50,105
144000,note_on,0,0,6,,,,,,,,5,,,50,105
144000,note_on,0,0,6,,,,,,,,5,,,57,105
144000,note_on,24,0,3,,,,,,,,2,,,57,72
144000,note_on,12,0,1,,,,,,,,0,,,66,105
144000,note_on,12,0,2,,,,,,,,1,,,66,105
144000,note_on,24,0,6,,,,,,,,5,,,66,105
144000,note_on,24,0,5,,,,,,,,4,,,38,105
144096,note_on,96,0,4,,,,,,,,3,,,50,0
144096,note_on,96,0,5,,,,,,,,4,,,38,0
144096,note_on,96,0,6,,,,,,,,5,,,50,0
144120,note_on,24,0,4,,,,,,,,3,,,38,105
144120,note_on,24,0,6,,,,,,,,5,,,38,105
144120,note_on,24,0,5,,,,,,,,4,,,26,105
144192,note_on,192,0,1,,,,,,,,0,,,66,0
144192,note_on,192,0,2,,,,,,,,1,,,66,0
144192,note_on,192,0,3,,,,,,,,2,,,57,0
144192,note_on,72,0,6,,,,,,,,5,,,57,0
144192,note_on,0,0,6,,,,,,,,5,,,66,0
144216,note_on,96,0,4,,,,,,,,3,,,38,0
144216,note_on,24,0,6,,,,,,,,5,,,38,0
144216,note_on,96,0,5,,,,,,,,4,,,26,0
144240,note_on,24,0,5,,,,,,,,4,,,47,105
144240,note_on,48,0,1,,,,,,,,0,,,74,105
144240,note_on,0,0,6,,,,,,,,5,,,62,105
144240,note_on,24,0,6,,,,,,,,5,,,59,105
144240,note_on,24,0,4,,,,,,,,3,,,59,105
144240,note_on,48,0,3,,,,,,,,2,,,68,72
144240,note_on,0,0,6,,,,,,,,5,,,68,105
144240,note_on,48,0,2,,,,,,,,1,,,74,105
144288,note_on,48,0,2,,,,,,,,1,,,74,0
144288,note_on,48,0,1,,,,,,,,0,,,74,0
144300,note_on,12,0,2,,,,,,,,1,,,71,105
144300,note_on,12,0,1,,,,,,,,0,,,71,105
144336,note_on,96,0,6,,,,,,,,5,,,59,0
144336,note_on,96,0,4,,,,,,,,3,,,59,0
144336,note_on,96,0,5,,,,,,,,4,,,47,0
144336,note_on,96,0,3,,,,,,,,2,,,68,0
144348,note_on,48,0,1,,,,,,,,0,,,71,0
144348,note_on,48,0,2,,,,,,,,1,,,71,0
144360,note_on,12,0,1,,,,,,,,0,,,68,105
144360,note_on,24,0,6,,,,,,,,5,,,47,105
144360,note_on,24,0,5,,,,,,,,4,,,35,105
144360,note_on,24,0,4,,,,,,,,3,,,47,105
144360,note_on,24,0,3,,,,,,,,2,,,62,72
144360,note_on,12,0,2,,,,,,,,1,,,68,105
144408,note_on,48,0,1,,,,,,,,0,,,68,0
144408,note_on,48,0,2,,,,,,,,1,,,68,0
144420,note_on,12,0,1,,,,,,,,0,,,62,105
144420,note_on,12,0,2,,,,,,,,1,,,62,105
144432,note_on,0,0,6,,,,,,,,5,,,68,0
144432,note_on,72,0,6,,,,,,,,5,,,62,0
144456,note_on,24,0,6,,,,,,,,5,,,47,0
144456,note_on,96,0,4,,,,,,,,3,,,47,0
144456,note_on,96,0,5,,,,,,,,4,,,35,0
144456,note_on,96,0,3,,,,,,,,2,,,62,0
144468,note_on,48,0,2,,,,,,,,1,,,62,0
144468,note_on,48,0,1,,,,,,,,0,,,62,0
144480,note_on,24,0,6,,,,,,,,5,,,69,105
144480,note_on,12,0,1,,,,,,,,0,,,64,105
144480,note_on,0,0,6,,,,,,,,5,,,64,105
144480,note_on,0,0,6,,,,,,,,5,,,49,105
144480,note_on,24,0,4,,,,,,,,3,,,49,105
144480,note_on,24,0,3,,,,,,,,2,,,57,72
144480,note_on,24,0,5,,,,,,,,4,,,37,105
144480,note_on,12,0,2,,,,,,,,1,,,64,105
144576,note_on,96,0,6,,,,,,,,5,,,49,0
144576,note_on,96,0,5,,,,,,,,4,,,37,0
144576,note_on,96,0,4,,,,,,,,3,,,49,0
144600,note_on,24,0,5,,,,,,,,4,,,33,105
144600,note_on,24,0,6,,,,,,,,5,,,45,105
144600,note_on,24,0,4,,,,,,,,3,,,45,105
144672,note_on,72,0,6,,,,,,,,5,,,69,0
144672,note_on,192,0,2,,,,,,,,1,,,64,0
144672,note_on,192,0,3,,,,,,,,2,,,57,0
144672,note_on,192,0,1,,,,,,,,0,,,64,0
144696,note_on,96,0,5,,,,,,,,4,,,33,0
144696,note_on,96,0,4,,,,,,,,3,,,45,0
144696,note_on,24,0,6,,,,,,,,5,,,45,0
144720,note_on,48,0,3,,,,,,,,2,,,68,72
144720,note_on,48,0,2,,,,,,,,1,,,83,105
144720,note_on,24,0,5,,,,,,,,4,,,40,105
144720,note_on,48,0,1,,,,,,,,0,,,83,105
144720,note_on,24,0,6,,,,,,,,5,,,52,105
144720,note_on,24,0,4,,,,,,,,3,,,52,105
144720,note_on,0,0,6,,,,,,,,5,,,71,105
144768,note_on,48,0,2,,,,,,,,1,,,83,0
144768,note_on,48,0,1,,,,,,,,0,,,83,0
144780,note_on,12,0,1,,,,,,,,0,,,80,105
144780,note_on,12,0,2,,,,,,,,1,,,80,105
144816,note_on,96,0,4,,,,,,,,3,,,52,0
144816,note_on,96,0,3,,,,,,,,2,,,68,0
144816,note_on,96,0,6,,,,,,,,5,,,52,0
144816,note_on,96,0,5,,,,,,,,4,,,40,0
144828,note_on,48,0,1,,,,,,,,0,,,80,0
144828,note_on,48,0,2,,,,,,,,1,,,80,0
144840,note_on,12,0,1,,,,,,,,0,,,74,105
144840,note_on,24,0,6,,,,,,,,5,,,56,105
144840,note_on,12,0,2,,,,,,,,1,,,74,105
144840,note_on,24,0,5,,,,,,,,4,,,44,105
144840,note_on,24,0,4,,,,,,,,3,,,56,105
144840,note_on,24,0,3,,,,,,,,2,,,71,72
144888,note_on,48,0,2,,,,,,,,1,,,74,0
144888,note_on,48,0,1,,,,,,,,0,,,74,0
144900,note_on,12,0,2,,,,,,,,1,,,71,105
144900,note_on,12,0,1,,,,,,,,0,,,71,105
144912,note_on,72,0,6,,,,,,,,5,,,71,0
144936,note_on,24,0,6,,,,,,,,5,,,56,0
144936,note_on,96,0,5,,,,,,,,4,,,44,0
144936,note_on,96,0,3,,,,,,,,2,,,71,0
144936,note_on,96,0,4,,,,,,,,3,,,56,0
144948,note_on,48,0,1,,,,,,,,0,,,71,0
144948,note_on,48,0,2,,,,,,,,1,,,71,0
144960,note_on,24,0,5,,,,,,,,4,,,45,105
144960,note_on,24,0,3,,,,,,,,2,,,64,72
144960,note_on,0,0,6,,,,,,,,5,,,57,105
144960,note_on,12,0,1,,,,,,,,0,,,73,105
144960,note_on,12,0,2,,,,,,,,1,,,73,105
144960,note_on,24,0,4,,,,,,,,3,,,57,105
144960,note_on,24,0,6,,,,,,,,5,,,73,105
145056,note_on,96,0,6,,,,,,,,5,,,57,0
145056,note_on,96,0,4,,,,,,,,3,,,57,0
145056,note_on,96,0,1,,,,,,,,0,,,73,0
145056,note_on,96,0,5,,,,,,,,4,,,45,0
145056,note_on,96,0,2,,,,,,,,1,,,73,0
145080,note_on,24,0,6,,,,,,,,5,,,45,105
145080,note_on,24,0,2,,,,,,,,1,,,69,105
145080,note_on,24,0,4,,,,,,,,3,,,45,105
145080,note_on,24,0,1,,,,,,,,0,,,73,105
145080,note_on,24,0,5,,,,,,,,4,,,33,105
145128,note_on,48,0,1,,,,,,,,0,,,73,0
145128,note_on,48,0,2,,,,,,,,1,,,69,0
145140,note_on,12,0,1,,,,,,,,0,,,74,105
145140,note_on,12,0,2,,,,,,,,1,,,71,105
145152,note_on,72,0,6,,,,,,,,5,,,73,0
145152,note_on,0,0,6,,,,,,,,5,,,64,0
145152,note_on,192,0,3,,,,,,,,2,,,64,0
145176,note_on,96,0,4,,,,,,,,3,,,45,0
145176,note_on,24,0,6,,,,,,,,5,,,45,0
145176,note_on,96,0,5,,,,,,,,4,,,33,0
145188,note_on,48,0,1,,,,,,,,0,,,74,0
145188,note_on,48,0,2,,,,,,,,1,,,71,0
145200,note_on,12,0,2,,,,,,,,1,,,73,105
145200,note_on,12,0,1,,,,,,,,0,,,76,105
145320,note_on,168,0,3,,,,,,,,2,,,64,72
145320,note_on,0,0,6,,,,,,,,5,,,61,105
145320,note_on,144,0,5,,,,,,,,4,,,49,105
145320,note_on,144,0,6,,,,,,,,5,,,76,105
145320,note_on,144,0,4,,,,,,,,3,,,61,105
145368,note_on,48,0,3,,,,,,,,2,,,64,0
145368,note_on,48,0,4,,,,,,,,3,,,61,0
145368,note_on,48,0,5,,,,,,,,4,,,49,0
145368,note_on,48,0,6,,,,,,,,5,,,61,0
145368,note_on,0,0,6,,,,,,,,5,,,76,0
145380,note_on,0,0,6,,,,,,,,5,,,59,105
145380,note_on,12,0,4,,,,,,,,3,,,59,105
145380,note_on,12,0,3,,,,,,,,2,,,62,72
145380,note_on,12,0,5,,,,,,,,4,,,47,105
145380,note_on,12,0,6,,,,,,,,5,,,74,105
145428,note_on,48,0,4,,,,,,,,3,,,59,0
145428,note_on,48,0,3,,,,,,,,2,,,62,0
145428,note_on,0,0,6,,,,,,,,5,,,74,0
145428,note_on,48,0,6,,,,,,,,5,,,59,0
145428,note_on,48,0,5,,,,,,,,4,,,47,0
145440,note_on,12,0,5,,,,,,,,4,,,45,105
145440,note_on,12,0,6,,,,,,,,5,,,73,105
145440,note_on,12,0,4,,,,,,,,3,,,57,105
145440,note_on,12,0,3,,,,,,,,2,,,61,72
145440,note_on,0,0,6,,,,,,,,5,,,57,105
145440,note_on,0,0,6,,,,,,,,5,,,64,105
145536,note_on,96,0,4,,,,,,,,3,,,57,0
145536,note_on,96,0,5,,,,,,,,4,,,45,0
145536,note_on,336,0,2,,,,,,,,1,,,73,0
145536,note_on,96,0,6,,,,,,,,5,,,57,0
145536,note_on,336,0,1,,,,,,,,0,,,76,0
145560,note_on,24,0,5,,,,,,,,4,,,33,105
145560,note_on,24,0,6,,,,,,,,5,,,45,105
145560,note_on,24,0,4,,,,,,,,3,,,45,105
145560,note_on,24,0,2,,,,,,,,1,,,69,105
145560,note_on,24,0,1,,,,,,,,0,,,73,105
145608,note_on,48,0,2,,,,,,,,1,,,69,0
145608,note_on,48,0,1,,,,,,,,0,,,73,0
145620,note_on,12,0,1,,,,,,,,0,,,74,105
145620,note_on,12,0,2,,,,,,,,1,,,71,105
145632,note_on,0,0,6,,,,,,,,5,,,73,0
145632,note_on,72,0,6,,,,,,,,5,,,64,0
145632,note_on,192,0,3,,,,,,,,2,,,61,0
145656,note_on,96,0,5,,,,,,,,4,,,33,0
145656,note_on,24,0,6,,,,,,,,5,,,45,0
145656,note_on,96,0,4,,,,,,,,3,,,45,0
145668,note_on,48,0,1,,,,,,,,0,,,74,0
145668,note_on,48,0,2,,,,,,,,1,,,71,0
145680,note_on,12,0,1,,,,,,,,0,,,76,105
145680,note_on,12,0,2,,,,,,,,1,,,73,105
145776,note_on,96,0,2,,,,,,,,1,,,73,0
145776,note_on,96,0,1,,,,,,,,0,,,76,0
145800,note_on,144,0,6,,,,,,,,5,,,52,105
145800,note_on,24,0,1,,,,,,,,0,,,78,105
145800,note_on,144,0,5,,,,,,,,4,,,40,105
145800,note_on,24,0,2,,,,,,,,1,,,74,105
145800,note_on,0,0,6,,,,,,,,5,,,68,105
145800,note_on,144,0,4,,,,,,,,3,,,52,105
145800,note_on,168,0,3,,,,,,,,2,,,68,72
145800,note_on,0,0,6,,,,,,,,5,,,71,105
145848,note_on,48,0,2,,,,,,,,1,,,74,0
145848,note_on,48,0,1,,,,,,,,0,,,78,0
145860,note_on,12,0,1,,,,,,,,0,,,80,105
145860,note_on,12,0,2,,,,,,,,1,,,76,105
145896,note_on,96,0,6,,,,,,,,5,,,68,0
145896,note_on,96,0,3,,,,,,,,2,,,68,0
145896,note_on,0,0,6,,,,,,,,5,,,52,0
145896,note_on,0,0,6,,,,,,,,5,,,71,0
145896,note_on,96,0,5,,,,,,,,4,,,40,0
145896,note_on,96,0,4,,,,,,,,3,,,52,0
145908,note_on,48,0,2,,,,,,,,1,,,76,0
145908,note_on,48,0,1,,,,,,,,0,,,80,0
145920,note_on,24,0,4,,,,,,,,3,,,57,105
145920,note_on,12,0,2,,,,,,,,1,,,73,105
145920,note_on,24,0,3,,,,,,,,2,,,64,72
145920,note_on,0,0,6,,,,,,,,5,,,57,105
145920,note_on,24,0,6,,,,,,,,5,,,73,105
145920,note_on,0,0,6,,,,,,,,5,,,64,105
145920,note_on,24,0,5,,,,,,,,4,,,45,105
145920,note_on,12,0,1,,,,,,,,0,,,81,105
145968,note_on,48,0,1,,,,,,,,0,,,81,0
145968,note_on,48,0,2,,,,,,,,1,,,73,0
145980,note_on,12,0,1,,,,,,,,0,,,76,105
145980,note_on,12,0,2,,,,,,,,1,,,76,105
146016,note_on,96,0,5,,,,,,,,4,,,45,0
146016,note_on,96,0,6,,,,,,,,5,,,57,0
146016,note_on,96,0,3,,,,,,,,2,,,64,0
146016,note_on,96,0,4,,,,,,,,3,,,57,0
146028,note_on,48,0,2,,,,,,,,1,,,76,0
146028,note_on,48,0,1,,,,,,,,0,,,76,0
146040,note_on,12,0,2,,,,,,,,1,,,73,105
146040,note_on,24,0,3,,,,,,,,2,,,64,72
146040,note_on,12,0,1,,,,,,,,0,,,73,105
146040,note_on,24,0,4,,,,,,,,3,,,45,105
146040,note_on,24,0,6,,,,,,,,5,,,45,105
146040,note_on,24,0,5,,,,,,,,4,,,33,105
146088,note_on,48,0,2,,,,,,,,1,,,73,0
146088,note_on,48,0,1,,,,,,,,0,,,73,0
146100,note_on,12,0,2,,,,,,,,1,,,69,105
146100,note_on,12,0,1,,,,,,,,0,,,69,105
146112,note_on,72,0,6,,,,,,,,5,,,64,0
146112,note_on,0,0,6,,,,,,,,5,,,73,0
146136,note_on,96,0,4,,,,,,,,3,,,45,0
146136,note_on,96,0,5,,,,,,,,4,,,33,0
146136,note_on,24,0,6,,,,,,,,5,,,45,0
146136,note_on,96,0,3,,,,,,,,2,,,64,0
146148,note_on,48,0,1,,,,,,,,0,,,69,0
146148,note_on,48,0,2,,,,,,,,1,,,69,0
146160,note_on,24,0,3,,,,,,,,2,,,61,72
146160,note_on,12,0,1,,,,,,,,0,,,64,105
146160,note_on,12,0,2,,,,,,,,1,,,64,105
146160,note_on,24,0,4,,,,,,,,3,,,45,105
146160,note_on,24,0,6,,,,,,,,5,,,45,105
146160,note_on,24,0,5,,,,,,,,4,,,33,105
146256,note_on,96,0,4,,,,,,,,3,,,45,0
146256,note_on,96,0,5,,,,,,,,4,,,33,0
146256,note_on,96,0,6,,,,,,,,5,,,45,0
146256,note_on,96,0,3,,,,,,,,2,,,61,0
146280,note_on,0,0,6,,,,,,,,5,,,73,105
146280,note_on,24,0,3,,,,,,,,2,,,61,72
146280,note_on,24,0,4,,,,,,,,3,,,45,105
146280,note_on,0,0,6,,,,,,,,5,,,76,105
146280,note_on,24,0,5,,,,,,,,4,,,33,105
146280,note_on,24,0,6,,,,,,,,5,,,45,105
146352,note_on,192,0,1,,,,,,,,0,,,64,0
146352,note_on,192,0,2,,,,,,,,1,,,64,0
146376,note_on,96,0,3,,,,,,,,2,,,61,0
146376,note_on,96,0,5,,,,,,,,4,,,33,0
146376,note_on,96,0,4,,,,,,,,3,,,45,0
146376,note_on,96,0,6,,,,,,,,5,,,73,0
146376,note_on,0,0,6,,,,,,,,5,,,76,0
146376,note_on,0,0,6,,,,,,,,5,,,45,0
146400,note_on,48,0,1,,,,,,,,0,,,65,105
146400,note_on,48,0,2,,,,,,,,1,,,65,105
146400,note_on,0,0,6,,,,,,,,5,,,44,105
146400,note_on,24,0,5,,,,,,,,4,,,32,105
146400,note_on,24,0,3,,,,,,,,2,,,62,72
146400,note_on,24,0,6,,,,,,,,5,,,77,105
146400,note_on,0,0,6,,,,,,,,5,,,74,105
146400,note_on,24,0,4,,,,,,,,3,,,44,105
146496,note_on,96,0,4,,,,,,,,3,,,44,0
146496,note_on,96,0,3,,,,,,,,2,,,62,0
146496,note_on,96,0,5,,,,,,,,4,,,32,0
146496,note_on,96,0,6,,,,,,,,5,,,44,0
146520,note_on,24,0,3,,,,,,,,2,,,62,72
146520,note_on,24,0,5,,,,,,,,4,,,32,105
146520,note_on,24,0,6,,,,,,,,5,,,44,105
146520,note_on,24,0,4,,,,,,,,3,,,44,105
146592,note_on,72,0,6,,,,,,,,5,,,74,0
146592,note_on,0,0,6,,,,,,,,5,,,77,0
146592,note_on,192,0,1,,,,,,,,0,,,65,0
146592,note_on,192,0,2,,,,,,,,1,,,65,0
146616,note_on,96,0,3,,,,,,,,2,,,62,0
146616,note_on,96,0,4,,,,,,,,3,,,44,0
146616,note_on,24,0,6,,,,,,,,5,,,44,0
146616,note_on,96,0,5,,,,,,,,4,,,32,0
146640,note_on,24,0,3,,,,,,,,2,,,61,72
146640,note_on,48,0,1,,,,,,,,0,,,64,105
146640,note_on,24,0,6,,,,,,,,5,,,45,105
146640,note_on,0,0,6,,,,,,,,5,,,76,105
146640,note_on,0,0,6,,,,,,,,5,,,73,105
146640,note_on,24,0,4,,,,,,,,3,,,45,105
146640,note_on,24,0,5,,,,,,,,4,,,33,105
146640,note_on,48,0,2,,,,,,,,1,,,64,105
146736,note_on,96,0,2,,,,,,,,1,,,64,0
146736,note_on,96,0,6,,,,,,,,5,,,73,0
146736,note_on,0,0,6,,,,,,,,5,,,76,0
146736,note_on,96,0,5,,,,,,,,4,,,33,0
146736,note_on,96,0,1,,,,,,,,0,,,64,0
146736,note_on,96,0,3,,,,,,,,2,,,61,0
146736,note_on,96,0,4,,,,,,,,3,,,45,0
146736,note_on,0,0,6,,,,,,,,5,,,45,0
146760,note_on,24,0,4,,,,,,,,3,,,40,105
146760,note_on,0,0,6,,,,,,,,5,,,40,105
146760,note_on,24,0,1,,,,,,,,0,,,74,105
146760,note_on,24,0,6,,,,,,,,5,,,74,105
146760,note_on,0,0,6,,,,,,,,5,,,71,105
146760,note_on,24,0,5,,,,,,,,4,,,28,105
146760,note_on,24,0,3,,,,,,,,2,,,68,72
146760,note_on,24,0,2,,,,,,,,1,,,74,105
146856,note_on,96,0,2,,,,,,,,1,,,74,0
146856,note_on,96,0,6,,,,,,,,5,,,71,0
146856,note_on,0,0,6,,,,,,,,5,,,40,0
146856,note_on,0,0,6,,,,,,,,5,,,74,0
146856,note_on,96,0,5,,,,,,,,4,,,28,0
146856,note_on,96,0,3,,,,,,,,2,,,68,0
146856,note_on,96,0,1,,,,,,,,0,,,74,0
146856,note_on,96,0,4,,,,,,,,3,,,40,0
146880,note_on,24,0,3,,,,,,,,2,,,64,72
146880,note_on,24,0,5,,,,,,,,4,,,33,105
146880,note_on,0,0,6,,,,,,,,5,,,69,105
146880,note_on,24,0,4,,,,,,,,3,,,45,105
146880,note_on,0,0,6,,,,,,,,5,,,45,105
146880,note_on,24,0,2,,,,,,,,1,,,73,105
146880,note_on,24,0,6,,,,,,,,5,,,73,105
146880,note_on,24,0,1,,,,,,,,0,,,73,105
146976,note_on,96,0,1,,,,,,,,0,,,73,0
146976,note_on,96,0,4,,,,,,,,3,,,45,0
146976,note_on,96,0,3,,,,,,,,2,,,64,0
146976,note_on,96,0,5,,,,,,,,4,,,33,0
146976,note_on,96,0,6,,,,,,,,5,,,45,0
146976,note_on,96,0,2,,,,,,,,1,,,73,0
147000,note_on,24,0,3,,,,,,,,2,,,64,72
147000,note_on,24,0,1,,,,,,,,0,,,71,105
147000,note_on,24,0,6,,,,,,,,5,,,45,105
147000,note_on,24,0,2,,,,,,,,1,,,71,105
147000,note_on,24,0,5,,,,,,,,4,,,33,105
147000,note_on,24,0,4,,,,,,,,3,,,45,105
147048,note_on,48,0,2,,,,,,,,1,,,71,0
147048,note_on,48,0,1,,,,,,,,0,,,71,0
147060,note_on,12,0,2,,,,,,,,1,,,69,105
147060,note_on,12,0,1,,,,,,,,0,,,69,105
147072,note_on,72,0,6,,,,,,,,5,,,69,0
147072,note_on,0,0,6,,,,,,,,5,,,73,0
147096,note_on,96,0,5,,,,,,,,4,,,33,0
147096,note_on,96,0,4,,,,,,,,3,,,45,0
147096,note_on,96,0,3,,,,,,,,2,,,64,0
147096,note_on,24,0,6,,,,,,,,5,,,45,0
147108,note_on,48,0,2,,,,,,,,1,,,69,0
147108,note_on,48,0,1,,,,,,,,0,,,69,0
147120,note_on,12,0,2,,,,,,,,1,,,71,105
147120,note_on,24,0,6,,,,,,,,5,,,71,105
147120,note_on,24,0,5,,,,,,,,4,,,38,105
147120,note_on,24,0,4,,,,,,,,3,,,50,105
147120,note_on,0,0,6,,,,,,,,5,,,66,105
147120,note_on,0,0,6,,,,,,,,5,,,50,105
147120,note_on,24,0,3,,,,,,,,2,,,66,72
147120,note_on,12,0,1,,,,,,,,0,,,71,105
147216,note_on,96,0,4,,,,,,,,3,,,50,0
147216,note_on,96,0,2,,,,,,,,1,,,71,0
147216,note_on,0,0,6,,,,,,,,5,,,50,0
147216,note_on,96,0,1,,,,,,,,0,,,71,0
147216,note_on,96,0,3,,,,,,,,2,,,66,0
147216,note_on,96,0,5,,,,,,,,4,,,38,0
147216,note_on,96,0,6,,,,,,,,5,,,66,0
147216,note_on,0,0,6,,,,,,,,5,,,71,0
147240,note_on,24,0,1,,,,,,,,0,,,68,105
147240,note_on,24,0,5,,,,,,,,4,,,40,105
147240,note_on,24,0,4,,,,,,,,3,,,52,105
147240,note_on,24,0,6,,,,,,,,5,,,68,105
147240,note_on,0,0,6,,,,,,,,5,,,59,105
147240,note_on,24,0,2,,,,,,,,1,,,68,105
147240,note_on,0,0,6,,,,,,,,5,,,52,105
147240,note_on,24,0,3,,,,,,,,2,,,64,72
147336,note_on,96,0,4,,,,,,,,3,,,52,0
147336,note_on,96,0,6,,,,,,,,5,,,59,0
147336,note_on,0,0,6,,,,,,,,5,,,52,0
147336,note_on,96,0,1,,,,,,,,0,,,68,0
147336,note_on,0,0,6,,,,,,,,5,,,68,0
147336,note_on,96,0,5,,,,,,,,4,,,40,0
147336,note_on,96,0,3,,,,,,,,2,,,64,0
147336,note_on,96,0,2,,,,,,,,1,,,68,0
147360,note_on,0,0,6,,,,,,,,5,,,45,72
147360,note_on,0,0,6,,,,,,,,5,,,61,72
147360,note_on,24,0,1,,,,,,,,0,,,69,105
147360,note_on,24,0,6,,,,,,,,5,,,69,72
147360,note_on,24,0,3,,,,,,,,2,,,61,72
147360,note_on,24,0,4,,,,,,,,3,,,45,72
147360,note_on,24,0,5,,,,,,,,4,,,33,72
147360,note_on,24,0,2,,,,,,,,1,,,69,72
147408,note_on,48,0,1,,,,,,,,0,,,69,0
147408,note_on,48,0,2,,,,,,,,1,,,69,0
147420,note_on,12,0,2,,,,,,,,1,,,76,72
147420,note_on,12,0,1,,,,,,,,0,,,76,105
147456,note_on,96,0,3,,,,,,,,2,,,61,0
147456,note_on,96,0,6,,,,,,,,5,,,45,0
147456,note_on,96,0,5,,,,,,,,4,,,33,0
147456,note_on,96,0,4,,,,,,,,3,,,45,0
147468,note_on,48,0,2,,,,,,,,1,,,76,0
147468,note_on,48,0,1,,,,,,,,0,,,76,0
147480,note_on,12,0,2,,,,,,,,1,,,73,72
147480,note_on,24,0,3,,,,,,,,2,,,61,72
147480,note_on,24,0,5,,,,,,,,4,,,33,72
147480,note_on,12,0,1,,,,,,,,0,,,73,105
147480,note_on,24,0,4,,,,,,,,3,,,45,72
147480,note_on,24,0,6,,,,,,,,5,,,45,72
147528,note_on,48,0,2,,,,,,,,1,,,73,0
147528,note_on,48,0,1,,,,,,,,0,,,73,0
147540,note_on,12,0,2,,,,,,,,1,,,69,72
147540,note_on,12,0,1,,,,,,,,0,,,69,105
147552,note_on,72,0,6,,,,,,,,5,,,61,0
147552,note_on,0,0,6,,,,,,,,5,,,69,0
147576,note_on,96,0,5,,,,,,,,4,,,33,0
147576,note_on,24,0,6,,,,,,,,5,,,45,0
147576,note_on,96,0,3,,,,,,,,2,,,61,0
147576,note_on,96,0,4,,,,,,,,3,,,45,0
147588,note_on,48,0,1,,,,,,,,0,,,69,0
147588,note_on,48,0,2,,,,,,,,1,,,69,0
147600,note_on,24,0,5,,,,,,,,4,,,33,72
147600,note_on,12,0,1,,,,,,,,0,,,64,105
147600,note_on,24,0,6,,,,,,,,5,,,45,72
147600,note_on,12,0,2,,,,,,,,1,,,64,72
147600,note_on,24,0,3,,,,,,,,2,,,61,72
147600,note_on,24,0,4,,,,,,,,3,,,45,72
147696,note_on,96,0,3,,,,,,,,2,,,61,0
147696,note_on,96,0,6,,,,,,,,5,,,45,0
147696,note_on,96,0,5,,,,,,,,4,,,33,0
147696,note_on,96,0,4,,,,,,,,3,,,45,0
147720,note_on,24,0,5,,,,,,,,4,,,33,72
147720,note_on,0,0,6,,,,,,,,5,,,73,72
147720,note_on,0,0,6,,,,,,,,5,,,76,72
147720,note_on,24,0,6,,,,,,,,5,,,45,72
147720,note_on,24,0,4,,,,,,,,3,,,45,72
147720,note_on,24,0,3,,,,,,,,2,,,61,72
147792,note_on,192,0,1,,,,,,,,0,,,64,0
147792,note_on,192,0,2,,,,,,,,1,,,64,0
147816,note_on,96,0,4,,,,,,,,3,,,45,0
147816,note_on,96,0,5,,,,,,,,4,,,33,0
147816,note_on,96,0,3,,,,,,,,2,,,61,0
147816,note_on,96,0,6,,,,,,,,5,,,73,0
147816,note_on,0,0,6,,,,,,,,5,,,76,0
147816,note_on,0,0,6,,,,,,,,5,,,45,0
147840,note_on,48,0,1,,,,,,,,0,,,65,105
147840,note_on,24,0,3,,,,,,,,2,,,62,72
147840,note_on,48,0,2,,,,,,,,1,,,65,72
147840,note_on,24,0,4,,,,,,,,3,,,44,72
147840,note_on,24,0,6,,,,,,,,5,,,77,72
147840,note_on,0,0,6,,,,,,,,5,,,44,72
147840,note_on,24,0,5,,,,,,,,4,,,32,72
147840,note_on,0,0,6,,,,,,,,5,,,74,72
147936,note_on,96,0,3,,,,,,,,2,,,62,0
147936,note_on,96,0,4,,,,,,,,3,,,44,0
147936,note_on,96,0,5,,,,,,,,4,,,32,0
147936,note_on,96,0,6,,,,,,,,5,,,44,0
147960,note_on,24,0,6,,,,,,,,5,,,44,72
147960,note_on,24,0,3,,,,,,,,2,,,62,72
147960,note_on,24,0,5,,,,,,,,4,,,32,72
147960,note_on,24,0,4,,,,,,,,3,,,44,72
148032,note_on,192,0,1,,,,,,,,0,,,65,0
148032,note_on,192,0,2,,,,,,,,1,,,65,0
148032,note_on,0,0,6,,,,,,,,5,,,77,0
148032,note_on,72,0,6,,,,,,,,5,,,74,0
148056,note_on,96,0,5,,,,,,,,4,,,32,0
148056,note_on,96,0,3,,,,,,,,2,,,62,0
148056,note_on,24,0,6,,,,,,,,5,,,44,0
148056,note_on,96,0,4,,,,,,,,3,,,44,0
148080,note_on,0,0,6,,,,,,,,5,,,73,72
148080,note_on,0,0,6,,,,,,,,5,,,76,72
148080,note_on,24,0,6,,,,,,,,5,,,45,72
148080,note_on,48,0,1,,,,,,,,0,,,64,105
148080,note_on,48,0,2,,,,,,,,1,,,64,72
148080,note_on,24,0,5,,,,,,,,4,,,33,72
148080,note_on,24,0,4,,,,,,,,3,,,45,72
148080,note_on,24,0,3,,,,,,,,2,,,61,72
148176,note_on,96,0,5,,,,,,,,4,,,33,0
148176,note_on,96,0,4,,,,,,,,3,,,45,0
148176,note_on,96,0,3,,,,,,,,2,,,61,0
148176,note_on,96,0,2,,,,,,,,1,,,64,0
148176,note_on,96,0,6,,,,,,,,5,,,73,0
148176,note_on,0,0,6,,,,,,,,5,,,76,0
148176,note_on,0,0,6,,,,,,,,5,,,45,0
148176,note_on,96,0,1,,,,,,,,0,,,64,0
148200,note_on,24,0,3,,,,,,,,2,,,68,72
148200,note_on,24,0,1,,,,,,,,0,,,74,105
148200,note_on,24,0,5,,,,,,,,4,,,28,72
148200,note_on,0,0,6,,,,,,,,5,,,71,72
148200,note_on,24,0,2,,,,,,,,1,,,74,72
148200,note_on,24,0,4,,,,,,,,3,,,40,72
148200,note_on,24,0,6,,,,,,,,5,,,74,72
148200,note_on,0,0,6,,,,,,,,5,,,40,72
148296,note_on,96,0,3,,,,,,,,2,,,68,0
148296,note_on,96,0,4,,,,,,,,3,,,40,0
148296,note_on,96,0,2,,,,,,,,1,,,74,0
148296,note_on,96,0,6,,,,,,,,5,,,71,0
148296,note_on,96,0,5,,,,,,,,4,,,28,0
148296,note_on,0,0,6,,,,,,,,5,,,40,0
148296,note_on,0,0,6,,,,,,,,5,,,74,0
148296,note_on,96,0,1,,,,,,,,0,,,74,0
148320,note_on,24,0,1,,,,,,,,0,,,73,105
148320,note_on,24,0,4,,,,,,,,3,,,45,72
148320,note_on,0,0,6,,,,,,,,5,,,69,72
148320,note_on,24,0,5,,,,,,,,4,,,33,72
148320,note_on,24,0,2,,,,,,,,1,,,73,72
148320,note_on,24,0,3,,,,,,,,2,,,64,72
148320,note_on,24,0,6,,,,,,,,5,,,73,72
148320,note_on,0,0,6,,,,,,,,5,,,45,72
148416,note_on,96,0,1,,,,,,,,0,,,73,0
148416,note_on,96,0,6,,,,,,,,5,,,45,0
148416,note_on,96,0,3,,,,,,,,2,,,64,0
148416,note_on,96,0,5,,,,,,,,4,,,33,0
148416,note_on,96,0,4,,,,,,,,3,,,45,0
148416,note_on,96,0,2,,,,,,,,1,,,73,0
148440,note_on,24,0,4,,,,,,,,3,,,45,72
148440,note_on,24,0,5,,,,,,,,4,,,33,72
148440,note_on,24,0,6,,,,,,,,5,,,45,72
148440,note_on,24,0,2,,,,,,,,1,,,71,72
148440,note_on,24,0,3,,,,,,,,2,,,64,72
148440,note_on,24,0,1,,,,,,,,0,,,71,105
148488,note_on,48,0,2,,,,,,,,1,,,71,0
148488,note_on,48,0,1,,,,,,,,0,,,71,0
148500,note_on,12,0,1,,,,,,,,0,,,69,105
148500,note_on,12,0,2,,,,,,,,1,,,69,72
148512,note_on,0,0,6,,,,,,,,5,,,73,0
148512,note_on,72,0,6,,,,,,,,5,,,69,0
148536,note_on,96,0,5,,,,,,,,4,,,33,0
148536,note_on,96,0,4,,,,,,,,3,,,45,0
148536,note_on,24,0,6,,,,,,,,5,,,45,0
148536,note_on,96,0,3,,,,,,,,2,,,64,0
148548,note_on,48,0,1,,,,,,,,0,,,69,0
148548,note_on,48,0,2,,,,,,,,1,,,69,0
148560,note_on,0,0,6,,,,,,,,5,,,50,72
148560,note_on,0,0,6,,,,,,,,5,,,66,72
148560,note_on,24,0,5,,,,,,,,4,,,38,72
148560,note_on,24,0,3,,,,,,,,2,,,66,72
148560,note_on,12,0,2,,,,,,,,1,,,71,72
148560,note_on,12,0,1,,,,,,,,0,,,71,105
148560,note_on,24,0,4,,,,,,,,3,,,50,72
148560,note_on,24,0,6,,,,,,,,5,,,71,72
148656,note_on,96,0,5,,,,,,,,4,,,38,0
148656,note_on,96,0,3,,,,,,,,2,,,66,0
148656,note_on,96,0,2,,,,,,,,1,,,71,0
148656,note_on,96,0,4,,,,,,,,3,,,50,0
148656,note_on,96,0,1,,,,,,,,0,,,71,0
148656,note_on,0,0,6,,,,,,,,5,,,71,0
148656,note_on,0,0,6,,,,,,,,5,,,50,0
148656,note_on,96,0,6,,,,,,,,5,,,66,0
148680,note_on,24,0,1,,,,,,,,0,,,68,105
148680,note_on,24,0,2,,,,,,,,1,,,68,72
148680,note_on,0,0,6,,,,,,,,5,,,59,72
148680,note_on,0,0,6,,,,,,,,5,,,52,72
148680,note_on,24,0,3,,,,,,,,2,,,64,72
148680,note_on,24,0,5,,,,,,,,4,,,40,72
148680,note_on,24,0,4,,,,,,,,3,,,52,72
148680,note_on,24,0,6,,,,,,,,5,,,68,72
148776,note_on,96,0,2,,,,,,,,1,,,68,0
148776,note_on,96,0,4,,,,,,,,3,,,52,0
148776,note_on,96,0,1,,,,,,,,0,,,68,0
148776,note_on,96,0,3,,,,,,,,2,,,64,0
148776,note_on,96,0,5,,,,,,,,4,,,40,0
148776,note_on,0,0,6,,,,,,,,5,,,68,0
148776,note_on,0,0,6,,,,,,,,5,,,52,0
148776,note_on,96,0,6,,,,,,,,5,,,59,0
148800,note_on,0,0,6,,,,,,,,5,,,61,105
148800,note_on,24,0,6,,,,,,,,5,,,73,105
148800,note_on,24,0,4,,,,,,,,3,,,45,105
148800,note_on,24,0,3,,,,,,,,2,,,61,105
148800,note_on,0,0,6,,,,,,,,5,,,45,105
148800,note_on,24,0,2,,,,,,,,1,,,69,105
148800,note_on,24,0,5,,,,,,,,4,,,33,105
148800,note_on,24,0,1,,,,,,,,0,,,69,105
148896,note_on,96,0,3,,,,,,,,2,,,61,0
148896,note_on,96,0,1,,,,,,,,0,,,69,0
148896,note_on,0,0,6,,,,,,,,5,,,45,0
148896,note_on,96,0,4,,,,,,,,3,,,45,0
148896,note_on,96,0,5,,,,,,,,4,,,33,0
148896,note_on,96,0,2,,,,,,,,1,,,69,0
148896,note_on,96,0,6,,,,,,,,5,,,61,0
148896,note_on,0,0,6,,,,,,,,5,,,73,0
148920,note_on,0,0,6,,,,,,,,5,,,66,105
148920,note_on,24,0,3,,,,,,,,2,,,62,105
148920,note_on,24,0,5,,,,,,,,4,,,38,105
148920,note_on,24,0,6,,,,,,,,5,,,57,105
148920,note_on,0,0,6,,,,,,,,5,,,62,105
148920,note_on,24,0,4,,,,,,,,3,,,50,105
148920,note_on,24,0,2,,,,,,,,1,,,78,105
148920,note_on,24,0,1,,,,,,,,0,,,81,105
148968,note_on,48,0,2,,,,,,,,1,,,78,0
148968,note_on,48,0,1,,,,,,,,0,,,81,0
148980,note_on,12,0,2,,,,,,,,1,,,74,105
148980,note_on,12,0,1,,,,,,,,0,,,78,105
149016,note_on,96,0,6,,,,,,,,5,,,66,0
149016,note_on,96,0,4,,,,,,,,3,,,50,0
149016,note_on,96,0,5,,,,,,,,4,,,38,0
149016,note_on,96,0,3,,,,,,,,2,,,62,0
149016,note_on,0,0,6,,,,,,,,5,,,62,0
149016,note_on,0,0,6,,,,,,,,5,,,57,0
149028,note_on,48,0,2,,,,,,,,1,,,74,0
149028,note_on,48,0,1,,,,,,,,0,,,78,0
149040,note_on,24,0,5,,,,,,,,4,,,45,105
149040,note_on,0,0,6,,,,,,,,5,,,64,105
149040,note_on,0,0,6,,,,,,,,5,,,61,105
149040,note_on,24,0,6,,,,,,,,5,,,50,105
149040,note_on,12,0,2,,,,,,,,1,,,73,105
149040,note_on,24,0,3,,,,,,,,2,,,64,105
149040,note_on,12,0,1,,,,,,,,0,,,76,105
149040,note_on,24,0,4,,,,,,,,3,,,57,105
149136,note_on,96,0,6,,,,,,,,5,,,64,0
149136,note_on,0,0,6,,,,,,,,5,,,61,0
149136,note_on,0,0,6,,,,,,,,5,,,50,0
149136,note_on,96,0,3,,,,,,,,2,,,64,0
149136,note_on,96,0,5,,,,,,,,4,,,45,0
149136,note_on,96,0,1,,,,,,,,0,,,76,0
149136,note_on,96,0,4,,,,,,,,3,,,57,0
149136,note_on,96,0,2,,,,,,,,1,,,73,0
149160,note_on,24,0,2,,,,,,,,1,,,71,105
149160,note_on,24,0,5,,,,,,,,4,,,40,105
149160,note_on,24,0,1,,,,,,,,0,,,74,105
149160,note_on,0,0,6,,,,,,,,5,,,68,105
149160,note_on,24,0,3,,,,,,,,2,,,68,105
149160,note_on,0,0,6,,,,,,,,5,,,52,105
149160,note_on,24,0,6,,,,,,,,5,,,59,105
149160,note_on,24,0,4,,,,,,,,3,,,52,105
149208,note_on,48,0,2,,,,,,,,1,,,71,0
149208,note_on,48,0,1,,,,,,,,0,,,74,0
149220,note_on,12,0,1,,,,,,,,0,,,71,105
149220,note_on,12,0,2,,,,,,,,1,,,68,105
149256,note_on,96,0,4,,,,,,,,3,,,52,0
149256,note_on,96,0,5,,,,,,,,4,,,40,0
149256,note_on,0,0,6,,,,,,,,5,,,59,0
149256,note_on,0,0,6,,,,,,,,5,,,68,0
149256,note_on,96,0,3,,,,,,,,2,,,68,0
149256,note_on,96,0,6,,,,,,,,5,,,52,0
149268,note_on,48,0,1,,,,,,,,0,,,71,0
149268,note_on,48,0,2,,,,,,,,1,,,68,0
149280,note_on,24,0,6,,,,,,,,5,,,73,105
149280,note_on,0,0,6,,,,,,,,5,,,45,105
149280,note_on,24,0,4,,,,,,,,3,,,45,105
149280,note_on,0,0,6,,,,,,,,5,,,61,105
149280,note_on,24,0,3,,,,,,,,2,,,64,105
149280,note_on,12,0,2,,,,,,,,1,,,69,105
149280,note_on,12,0,1,,,,,,,,0,,,73,105
149280,note_on,24,0,5,,,,,,,,4,,,33,105
149376,note_on,0,0,6,,,,,,,,5,,,45,0
149376,note_on,96,0,6,,,,,,,,5,,,61,0
149376,note_on,96,0,5,,,,,,,,4,,,33,0
149376,note_on,96,0,3,,,,,,,,2,,,64,0
149376,note_on,96,0,4,,,,,,,,3,,,45,0
149376,note_on,96,0,1,,,,,,,,0,,,73,0
149376,note_on,96,0,2,,,,,,,,1,,,69,0
149376,note_on,0,0,6,,,,,,,,5,,,73,0
149400,note_on,24,0,3,,,,,,,,2,,,62,105
149400,note_on,24,0,2,,,,,,,,1,,,78,105
149400,note_on,0,0,6,,,,,,,,5,,,62,105
149400,note_on,0,0,6,,,,,,,,5,,,66,105
149400,note_on,24,0,6,,,,,,,,5,,,57,105
149400,note_on,24,0,5,,,,,,,,4,,,38,105
149400,note_on,24,0,4,,,,,,,,3,,,50,105
149400,note_on,24,0,1,,,,,,,,0,,,81,105
149448,note_on,48,0,1,,,,,,,,0,,,81,0
149448,note_on,48,0,2,,,,,,,,1,,,78,0
149460,note_on,12,0,2,,,,,,,,1,,,74,105
149460,note_on,12,0,1,,,,,,,,0,,,78,105
149496,note_on,0,0,6,,,,,,,,5,,,57,0
149496,note_on,96,0,5,,,,,,,,4,,,38,0
149496,note_on,96,0,6,,,,,,,,5,,,62,0
149496,note_on,0,0,6,,,,,,,,5,,,66,0
149496,note_on,96,0,3,,,,,,,,2,,,62,0
149496,note_on,96,0,4,,,,,,,,3,,,50,0
149508,note_on,48,0,1,,,,,,,,0,,,78,0
149508,note_on,48,0,2,,,,,,,,1,,,74,0
149520,note_on,0,0,6,,,,,,,,5,,,64,105
149520,note_on,0,0,6,,,,,,,,5,,,50,105
149520,note_on,24,0,3,,,,,,,,2,,,64,105
149520,note_on,12,0,2,,,,,,,,1,,,73,105
149520,note_on,12,0,1,,,,,,,,0,,,76,105
149520,note_on,24,0,5,,,,,,,,4,,,45,105
149520,note_on,24,0,4,,,,,,,,3,,,57,105
149520,note_on,24,0,6,,,,,,,,5,,,61,105
149616,note_on,96,0,6,,,,,,,,5,,,50,0
149616,note_on,96,0,3,,,,,,,,2,,,64,0
149616,note_on,96,0,5,,,,,,,,4,,,45,0
149616,note_on,0,0,6,,,,,,,,5,,,64,0
149616,note_on,96,0,1,,,,,,,,0,,,76,0
149616,note_on,96,0,4,,,,,,,,3,,,57,0
149616,note_on,96,0,2,,,,,,,,1,,,73,0
149616,note_on,0,0,6,,,,,,,,5,,,61,0
149640,note_on,24,0,1,,,,,,,,0,,,74,105
149640,note_on,24,0,4,,,,,,,,3,,,52,105
149640,note_on,0,0,6,,,,,,,,5,,,68,105
149640,note_on,0,0,6,,,,,,,,5,,,59,105
149640,note_on,24,0,6,,,,,,,,5,,,52,105
149640,note_on,24,0,2,,,,,,,,1,,,71,105
149640,note_on,24,0,5,,,,,,,,4,,,40,105
149640,note_on,24,0,3,,,,,,,,2,,,68,105
149688,note_on,48,0,1,,,,,,,,0,,,74,0
149688,note_on,48,0,2,,,,,,,,1,,,71,0
149700,note_on,12,0,1,,,,,,,,0,,,71,105
149700,note_on,12,0,2,,,,,,,,1,,,68,105
149736,note_on,0,0,6,,,,,,,,5,,,52,0
149736,note_on,96,0,6,,,,,,,,5,,,68,0
149736,note_on,0,0,6,,,,,,,,5,,,59,0
149736,note_on,96,0,4,,,,,,,,3,,,52,0
149736,note_on,96,0,3,,,,,,,,2,,,68,0
149736,note_on,96,0,5,,,,,,,,4,,,40,0
149748,note_on,48,0,2,,,,,,,,1,,,68,0
149748,note_on,48,0,1,,,,,,,,0,,,71,0
149760,note_on,12,0,1,,,,,,,,0,,,69,105
149760,note_on,0,0,6,,,,,,,,5,,,45,105
149760,note_on,24,0,3,,,,,,,,2,,,64,105
149760,note_on,24,0,5,,,,,,,,4,,,33,105
149760,note_on,24,0,6,,,,,,,,5,,,69,105
149760,note_on,24,0,4,,,,,,,,3,,,45,105
149760,note_on,0,0,6,,,,,,,,5,,,61,105
149760,note_on,12,0,2,,,,,,,,1,,,69,105
149808,note_on,48,0,2,,,,,,,,1,,,69,0
149808,note_on,48,0,1,,,,,,,,0,,,69,0
149820,note_on,12,0,2,,,,,,,,1,,,76,105
149820,note_on,12,0,1,,,,,,,,0,,,76,105
149856,note_on,96,0,6,,,,,,,,5,,,45,0
149856,note_on,96,0,5,,,,,,,,4,,,33,0
149856,note_on,96,0,4,,,,,,,,3,,,45,0
149856,note_on,96,0,3,,,,,,,,2,,,64,0
149868,note_on,48,0,1,,,,,,,,0,,,76,0
149868,note_on,48,0,2,,,,,,,,1,,,76,0
149880,note_on,24,0,6,,,,,,,,5,,,45,105
149880,note_on,24,0,3,,,,,,,,2,,,64,105
149880,note_on,12,0,2,,,,,,,,1,,,73,105
149880,note_on,24,0,5,,,,,,,,4,,,33,105
149880,note_on,24,0,4,,,,,,,,3,,,45,105
149880,note_on,12,0,1,,,,,,,,0,,,73,105
149928,note_on,48,0,1,,,,,,,,0,,,73,0
149928,note_on,48,0,2,,,,,,,,1,,,73,0
149940,note_on,12,0,1,,,,,,,,0,,,69,105
149940,note_on,12,0,2,,,,,,,,1,,,69,105
149952,note_on,0,0,6,,,,,,,,5,,,69,0
149952,note_on,72,0,6,,,,,,,,5,,,61,0
149976,note_on,24,0,6,,,,,,,,5,,,45,0
149976,note_on,96,0,4,,,,,,,,3,,,45,0
149976,note_on,96,0,5,,,,,,,,4,,,33,0
149976,note_on,96,0,3,,,,,,,,2,,,64,0
149988,note_on,48,0,1,,,,,,,,0,,,69,0
149988,note_on,48,0,2,,,,,,,,1,,,69,0
150000,note_on,24,0,4,,,,,,,,3,,,45,105
150000,note_on,12,0,1,,,,,,,,0,,,64,105
150000,note_on,24,0,5,,,,,,,,4,,,33,105
150000,note_on,24,0,6,,,,,,,,5,,,45,105
150000,note_on,12,0,2,,,,,,,,1,,,64,105
150000,note_on,24,0,3,,,,,,,,2,,,61,105
150096,note_on,96,0,3,,,,,,,,2,,,61,0
150096,note_on,96,0,6,,,,,,,,5,,,45,0
150096,note_on,96,0,4,,,,,,,,3,,,45,0
150096,note_on,96,0,5,,,,,,,,4,,,33,0
150120,note_on,24,0,5,,,,,,,,4,,,33,105
150120,note_on,24,0,3,,,,,,,,2,,,61,105
150120,note_on,0,0,6,,,,,,,,5,,,73,105
150120,note_on,24,0,6,,,,,,,,5,,,45,105
150120,note_on,0,0,6,,,,,,,,5,,,76,105
150120,note_on,24,0,4,,,,,,,,3,,,45,105
150192,note_on,192,0,2,,,,,,,,1,,,64,0
150192,note_on,192,0,1,,,,,,,,0,,,64,0
150216,note_on,96,0,4,,,,,,,,3,,,45,0
150216,note_on,0,0,6,,,,,,,,5,,,76,0
150216,note_on,96,0,6,,,,,,,,5,,,73,0
150216,note_on,96,0,3,,,,,,,,2,,,61,0
150216,note_on,0,0,6,,,,,,,,5,,,45,0
150216,note_on,96,0,5,,,,,,,,4,,,33,0
150240,note_on,48,0,2,,,,,,,,1,,,65,105
150240,note_on,24,0,5,,,,,,,,4,,,32,105
150240,note_on,24,0,6,,,,,,,,5,,,74,105
150240,note_on,0,0,6,,,,,,,,5,,,44,105
150240,note_on,0,0,6,,,,,,,,5,,,77,105
150240,note_on,48,0,1,,,,,,,,0,,,65,105
150240,note_on,24,0,3,,,,,,,,2,,,62,105
150240,note_on,24,0,4,,,,,,,,3,,,44,105
150336,note_on,96,0,5,,,,,,,,4,,,32,0
150336,note_on,96,0,3,,,,,,,,2,,,62,0
150336,note_on,96,0,6,,,,,,,,5,,,44,0
150336,note_on,96,0,4,,,,,,,,3,,,44,0
150360,note_on,24,0,4,,,,,,,,3,,,44,105
150360,note_on,24,0,5,,,,,,,,4,,,32,105
150360,note_on,24,0,3,,,,,,,,2,,,62,105
150360,note_on,24,0,6,,,,,,,,5,,,44,105
150432,note_on,72,0,6,,,,,,,,5,,,77,0
150432,note_on,0,0,6,,,,,,,,5,,,74,0
150432,note_on,192,0,2,,,,,,,,1,,,65,0
150432,note_on,192,0,1,,,,,,,,0,,,65,0
150456,note_on,96,0,5,,,,,,,,4,,,32,0
150456,note_on,96,0,3,,,,,,,,2,,,62,0
150456,note_on,96,0,4,,,,,,,,3,,,44,0
150456,note_on,24,0,6,,,,,,,,5,,,44,0
150480,note_on,24,0,5,,,,,,,,4,,,33,105
150480,note_on,48,0,1,,,,,,,,0,,,64,105
150480,note_on,24,0,4,,,,,,,,3,,,45,105
150480,note_on,24,0,3,,,,,,,,2,,,61,105
150480,note_on,24,0,6,,,,,,,,5,,,45,105
150480,note_on,0,0,6,,,,,,,,5,,,73,105
150480,note_on,0,0,6,,,,,,,,5,,,76,105
150480,note_on,48,0,2,,,,,,,,1,,,64,105
150576,note_on,96,0,6,,,,,,,,5,,,73,0
150576,note_on,96,0,2,,,,,,,,1,,,64,0
150576,note_on,96,0,3,,,,,,,,2,,,61,0
150576,note_on,0,0,6,,,,,,,,5,,,76,0
150576,note_on,96,0,1,,,,,,,,0,,,64,0
150576,note_on,96,0,5,,,,,,,,4,,,33,0
150576,note_on,96,0,4,,,,,,,,3,,,45,0
150576,note_on,0,0,6,,,,,,,,5,,,45,0
150600,note_on,24,0,1,,,,,,,,0,,,74,105
150600,note_on,24,0,6,,,,,,,,5,,,74,105
150600,note_on,24,0,5,,,,,,,,4,,,28,105
150600,note_on,0,0,6,,,,,,,,5,,,40,105
150600,note_on,0,0,6,,,,,,,,5,,,71,105
150600,note_on,24,0,2,,,,,,,,1,,,74,105
150600,note_on,24,0,4,,,,,,,,3,,,40,105
150600,note_on,24,0,3,,,,,,,,2,,,68,105
150696,note_on,96,0,4,,,,,,,,3,,,40,0
150696,note_on,96,0,2,,,,,,,,1,,,74,0
150696,note_on,96,0,6,,,,,,,,5,,,71,0
150696,note_on,96,0,3,,,,,,,,2,,,68,0
150696,note_on,0,0,6,,,,,,,,5,,,74,0
150696,note_on,96,0,1,,,,,,,,0,,,74,0
150696,note_on,96,0,5,,,,,,,,4,,,28,0
150696,note_on,0,0,6,,,,,,,,5,,,40,0
150720,note_on,0,0,6,,,,,,,,5,,,45,105
150720,note_on,24,0,3,,,,,,,,2,,,64,105
150720,note_on,24,0,2,,,,,,,,1,,,73,105
150720,note_on,24,0,1,,,,,,,,0,,,73,105
150720,note_on,24,0,6,,,,,,,,5,,,73,105
150720,note_on,24,0,5,,,,,,,,4,,,33,105
150720,note_on,24,0,4,,,,,,,,3,,,45,105
150720,note_on,0,0,6,,,,,,,,5,,,69,105
150816,note_on,96,0,3,,,,,,,,2,,,64,0
150816,note_on,96,0,1,,,,,,,,0,,,73,0
150816,note_on,96,0,4,,,,,,,,3,,,45,0
150816,note_on,96,0,5,,,,,,,,4,,,33,0
150816,note_on,96,0,2,,,,,,,,1,,,73,0
150816,note_on,0,0,6,,,,,,,,5,,,73,0
150816,note_on,0,0,6,,,,,,,,5,,,45,0
150816,note_on,96,0,6,,,,,,,,5,,,69,0
150840,note_on,0,0,6,,,,,,,,5,,,69,105
150840,note_on,0,0,6,,,,,,,,5,,,61,105
150840,note_on,24,0,2,,,,,,,,1,,,71,105
150840,note_on,24,0,4,,,,,,,,3,,,57,105
150840,note_on,24,0,1,,,,,,,,0,,,71,105
150840,note_on,24,0,5,,,,,,,,4,,,45,105
150840,note_on,24,0,3,,,,,,,,2,,,64,105
150840,note_on,24,0,6,,,,,,,,5,,,57,105
150888,note_on,48,0,1,,,,,,,,0,,,71,0
150888,note_on,48,0,2,,,,,,,,1,,,71,0
150900,note_on,12,0,2,,,,,,,,1,,,69,105
150900,note_on,12,0,1,,,,,,,,0,,,69,105
150936,note_on,96,0,5,,,,,,,,4,,,45,0
150936,note_on,0,0,6,,,,,,,,5,,,57,0
150936,note_on,0,0,6,,,,,,,,5,,,69,0
150936,note_on,96,0,6,,,,,,,,5,,,61,0
150936,note_on,96,0,3,,,,,,,,2,,,64,0
150936,note_on,96,0,4,,,,,,,,3,,,57,0
150948,note_on,48,0,2,,,,,,,,1,,,69,0
150948,note_on,48,0,1,,,,,,,,0,,,69,0
150960,note_on,0,0,6,,,,,,,,5,,,50,105
150960,note_on,12,0,2,,,,,,,,1,,,71,105
150960,note_on,12,0,1,,,,,,,,0,,,71,105
150960,note_on,24,0,6,,,,,,,,5,,,71,105
150960,note_on,0,0,6,,,,,,,,5,,,66,105
150960,note_on,24,0,4,,,,,,,,3,,,50,105
150960,note_on,24,0,5,,,,,,,,4,,,38,105
150960,note_on,24,0,3,,,,,,,,2,,,66,105
151056,note_on,0,0,6,,,,,,,,5,,,71,0
151056,note_on,96,0,3,,,,,,,,2,,,66,0
151056,note_on,96,0,4,,,,,,,,3,,,50,0
151056,note_on,96,0,2,,,,,,,,1,,,71,0
151056,note_on,0,0,6,,,,,,,,5,,,50,0
151056,note_on,96,0,6,,,,,,,,5,,,66,0
151056,note_on,96,0,5,,,,,,,,4,,,38,0
151056,note_on,96,0,1,,,,,,,,0,,,71,0
151080,note_on,24,0,6,,,,,,,,5,,,68,105
151080,note_on,24,0,3,,,,,,,,2,,,59,105
151080,note_on,24,0,5,,,,,,,,4,,,40,105
151080,note_on,24,0,4,,,,,,,,3,,,52,105
151080,note_on,24,0,2,,,,,,,,1,,,68,105
151080,note_on,0,0,6,,,,,,,,5,,,52,105
151080,note_on,0,0,6,,,,,,,,5,,,59,105
151080,note_on,24,0,1,,,,,,,,0,,,68,105
151176,note_on,96,0,2,,,,,,,,1,,,68,0
151176,note_on,96,0,5,,,,,,,,4,,,40,0
151176,note_on,96,0,1,,,,,,,,0,,,68,0
151176,note_on,96,0,4,,,,,,,,3,,,52,0
151176,note_on,96,0,3,,,,,,,,2,,,59,0
151176,note_on,0,0,6,,,,,,,,5,,,52,0
151176,note_on,0,0,6,,,,,,,,5,,,68,0
151176,note_on,96,0,6,,,,,,,,5,,,59,0
151200,note_on,24,0,1,,,,,,,,0,,,69,105
151200,note_on,24,0,3,,,,,,,,2,,,61,105
151200,note_on,24,0,4,,,,,,,,3,,,45,105
151200,note_on,24,0,5,,,,,,,,4,,,33,105
151200,note_on,24,0,2,,,,,,,,1,,,69,105
151200,note_on,0,0,6,,,,,,,,5,,,45,105
151200,note_on,24,0,6,,,,,,,,5,,,61,105
151200,note_on,0,0,6,,,,,,,,5,,,69,105
151392,note_on,192,0,6,,,,,,,,5,,,61,0
151488,note_on,288,0,1,,,,,,,,0,,,69,0
151488,note_on,288,0,5,,,,,,,,4,,,33,0
151488,note_on,0,0,6,,,,,,,,5,,,69,0
151488,note_on,96,0,6,,,,,,,,5,,,45,0
151488,note_on,288,0,4,,,,,,,,3,,,45,0
151488,note_on,288,0,3,,,,,,,,2,,,61,0
151488,note_on,288,0,2,,,,,,,,1,,,69,0
151560,note_on,72,0,5,,,,,,,,4,,,40,72
151560,note_on,72,0,2,,,,,,,,1,,,76,72
151560,note_on,72,0,6,,,,,,,,5,,,52,72
151560,note_on,72,0,4,,,,,,,,3,,,52,72
151560,note_on,72,0,3,,,,,,,,2,,,71,72
151560,note_on,72,0,1,,,,,,,,0,,,76,72
151608,note_on,48,0,2,,,,,,,,1,,,76,0
151608,note_on,48,0,1,,,,,,,,0,,,76,0
151620,note_on,12,0,2,,,,,,,,1,,,75,72
151620,note_on,12,0,1,,,,,,,,0,,,75,72
151656,note_on,96,0,4,,,,,,,,3,,,52,0
151656,note_on,96,0,5,,,,,,,,4,,,40,0
151656,note_on,96,0,6,,,,,,,,5,,,52,0
151656,note_on,96,0,3,,,,,,,,2,,,71,0
151668,note_on,48,0,1,,,,,,,,0,,,75,0
151668,note_on,48,0,2,,,,,,,,1,,,75,0
151680,note_on,24,0,6,,,,,,,,5,,,52,72
151680,note_on,12,0,1,,,,,,,,0,,,76,72
151680,note_on,12,0,2,,,,,,,,1,,,76,72
151680,note_on,24,0,3,,,,,,,,2,,,71,72
151680,note_on,24,0,4,,,,,,,,3,,,52,72
151680,note_on,0,0,6,,,,,,,,5,,,80,72
151680,note_on,0,0,6,,,,,,,,5,,,76,72
151680,note_on,24,0,5,,,,,,,,4,,,40,72
151776,note_on,96,0,2,,,,,,,,1,,,76,0
151776,note_on,96,0,3,,,,,,,,2,,,71,0
151776,note_on,96,0,4,,,,,,,,3,,,52,0
151776,note_on,0,0,6,,,,,,,,5,,,52,0
151776,note_on,0,0,6,,,,,,,,5,,,76,0
151776,note_on,96,0,6,,,,,,,,5,,,80,0
151776,note_on,96,0,1,,,,,,,,0,,,76,0
151776,note_on,96,0,5,,,,,,,,4,,,40,0
151800,note_on,24,0,5,,,,,,,,4,,,47,72
151800,note_on,24,0,1,,,,,,,,0,,,78,72
151800,note_on,0,0,6,,,,,,,,5,,,78,72
151800,note_on,0,0,6,,,,,,,,5,,,75,72
151800,note_on,24,0,6,,,,,,,,5,,,59,72
151800,note_on,24,0,4,,,,,,,,3,,,59,72
151800,note_on,24,0,3,,,,,,,,2,,,75,72
151800,note_on,24,0,2,,,,,,,,1,,,78,72
151896,note_on,96,0,4,,,,,,,,3,,,59,0
151896,note_on,0,0,6,,,,,,,,5,,,59,0
151896,note_on,96,0,1,,,,,,,,0,,,78,0
151896,note_on,96,0,3,,,,,,,,2,,,75,0
151896,note_on,96,0,6,,,,,,,,5,,,78,0
151896,note_on,0,0,6,,,,,,,,5,,,75,0
151896,note_on,96,0,5,,,,,,,,4,,,47,0
151896,note_on,96,0,2,,,,,,,,1,,,78,0
151920,note_on,24,0,2,,,,,,,,1,,,80,72
151920,note_on,0,0,6,,,,,,,,5,,,71,72
151920,note_on,24,0,4,,,,,,,,3,,,64,72
151920,note_on,0,0,6,,,,,,,,5,,,76,72
151920,note_on,24,0,6,,,,,,,,5,,,64,72
151920,note_on,24,0,5,,,,,,,,4,,,52,72
151920,note_on,24,0,1,,,,,,,,0,,,80,72
151920,note_on,24,0,3,,,,,,,,2,,,71,72
152016,note_on,0,0,6,,,,,,,,5,,,64,0
152016,note_on,96,0,5,,,,,,,,4,,,52,0
152016,note_on,96,0,6,,,,,,,,5,,,76,0
152016,note_on,96,0,4,,,,,,,,3,,,64,0
152016,note_on,0,0,6,,,,,,,,5,,,71,0
152016,note_on,96,0,1,,,,,,,,0,,,80,0
152016,note_on,96,0,2,,,,,,,,1,,,80,0
152040,note_on,24,0,5,,,,,,,,4,,,47,72
152040,note_on,24,0,1,,,,,,,,0,,,81,72
152040,note_on,24,0,2,,,,,,,,1,,,81,72
152040,note_on,0,0,6,,,,,,,,5,,,75,72
152040,note_on,24,0,4,,,,,,,,3,,,59,72
152040,note_on,0,0,6,,,,,,,,5,,,78,72
152040,note_on,24,0,6,,,,,,,,5,,,59,72
152112,note_on,192,0,3,,,,,,,,2,,,71,0
152136,note_on,96,0,4,,,,,,,,3,,,59,0
152136,note_on,96,0,5,,,,,,,,4,,,47,0
152136,note_on,0,0,6,,,,,,,,5,,,59,0
152136,note_on,96,0,2,,,,,,,,1,,,81,0
152136,note_on,96,0,6,,,,,,,,5,,,75,0
152136,note_on,0,0,6,,,,,,,,5,,,78,0
152136,note_on,96,0,1,,,,,,,,0,,,81,0
152160,note_on,24,0,2,,,,,,,,1,,,83,72
152160,note_on,24,0,6,,,,,,,,5,,,80,72
152160,note_on,48,0,3,,,,,,,,2,,,68,72
152160,note_on,0,0,6,,,,,,,,5,,,52,72
152160,note_on,24,0,1,,,,,,,,0,,,83,72
152160,note_on,24,0,5,,,,,,,,4,,,40,72
152160,note_on,24,0,4,,,,,,,,3,,,52,72
152160,note_on,0,0,6,,,,,,,,5,,,76,72
152256,note_on,96,0,3,,,,,,,,2,,,68,0
152256,note_on,96,0,1,,,,,,,,0,,,83,0
152256,note_on,96,0,4,,,,,,,,3,,,52,0
152256,note_on,96,0,2,,,,,,,,1,,,83,0
152256,note_on,96,0,6,,,,,,,,5,,,76,0
152256,note_on,0,0,6,,,,,,,,5,,,52,0
152256,note_on,0,0,6,,,,,,,,5,,,80,0
152256,note_on,96,0,5,,,,,,,,4,,,40,0
152280,note_on,24,0,3,,,,,,,,2,,,71,72
152280,note_on,24,0,1,,,,,,,,0,,,76,72
152280,note_on,24,0,2,,,,,,,,1,,,76,72
152280,note_on,24,0,6,,,,,,,,5,,,76,72
152280,note_on,0,0,6,,,,,,,,5,,,56,72
152280,note_on,0,0,6,,,,,,,,5,,,71,72
152280,note_on,24,0,5,,,,,,,,4,,,44,72
152280,note_on,24,0,4,,,,,,,,3,,,56,72
152376,note_on,96,0,5,,,,,,,,4,,,44,0
152376,note_on,96,0,4,,,,,,,,3,,,56,0
152376,note_on,0,0,6,,,,,,,,5,,,76,0
152376,note_on,96,0,3,,,,,,,,2,,,71,0
152376,note_on,0,0,6,,,,,,,,5,,,56,0
152376,note_on,96,0,6,,,,,,,,5,,,71,0
152400,note_on,24,0,4,,,,,,,,3,,,57,72
152400,note_on,0,0,6,,,,,,,,5,,,57,72
152400,note_on,24,0,5,,,,,,,,4,,,45,72
152400,note_on,24,0,3,,,,,,,,2,,,73,72
152400,note_on,24,0,6,,,,,,,,5,,,78,72
152400,note_on,0,0,6,,,,,,,,5,,,73,72
152472,note_on,192,0,1,,,,,,,,0,,,76,0
152472,note_on,192,0,2,,,,,,,,1,,,76,0
152496,note_on,0,0,6,,,,,,,,5,,,78,0
152496,note_on,0,0,6,,,,,,,,5,,,57,0
152496,note_on,96,0,3,,,,,,,,2,,,73,0
152496,note_on,96,0,5,,,,,,,,4,,,45,0
152496,note_on,96,0,6,,,,,,,,5,,,73,0
152496,note_on,96,0,4,,,,,,,,3,,,57,0
152520,note_on,24,0,3,,,,,,,,2,,,66,72
152520,note_on,0,0,6,,,,,,,,5,,,83,72
152520,note_on,0,0,6,,,,,,,,5,,,71,72
152520,note_on,24,0,5,,,,,,,,4,,,39,105
152520,note_on,48,0,1,,,,,,,,0,,,75,72
152520,note_on,24,0,4,,,,,,,,3,,,51,72
152520,note_on,48,0,2,,,,,,,,1,,,75,105
152520,note_on,24,0,6,,,,,,,,5,,,51,72
152568,note_on,48,0,2,,,,,,,,1,,,75,0
152568,note_on,48,0,1,,,,,,,,0,,,75,0
152580,note_on,12,0,1,,,,,,,,0,,,73,105
152580,note_on,12,0,2,,,,,,,,1,,,73,105
152616,note_on,96,0,5,,,,,,,,4,,,39,0
152616,note_on,96,0,3,,,,,,,,2,,,66,0
152616,note_on,96,0,4,,,,,,,,3,,,51,0
152616,note_on,96,0,6,,,,,,,,5,,,83,0
152616,note_on,0,0,6,,,,,,,,5,,,51,0
152628,note_on,48,0,1,,,,,,,,0,,,73,0
152628,note_on,48,0,2,,,,,,,,1,,,73,0
152640,note_on,24,0,5,,,,,,,,4,,,40,105
152640,note_on,24,0,4,,,,,,,,3,,,52,72
152640,note_on,24,0,3,,,,,,,,2,,,68,105
152640,note_on,12,0,1,,,,,,,,0,,,71,105
152640,note_on,24,0,6,,,,,,,,5,,,80,105
152640,note_on,0,0,6,,,,,,,,5,,,52,105
152640,note_on,12,0,2,,,,,,,,1,,,71,105
152736,note_on,96,0,4,,,,,,,,3,,,52,0
152736,note_on,96,0,5,,,,,,,,4,,,40,0
152736,note_on,96,0,6,,,,,,,,5,,,52,0
152736,note_on,96,0,2,,,,,,,,1,,,71,0
152736,note_on,96,0,1,,,,,,,,0,,,71,0
152736,note_on,0,0,6,,,,,,,,5,,,71,0
152736,note_on,96,0,3,,,,,,,,2,,,68,0
152760,note_on,24,0,4,,,,,,,,3,,,40,72
152760,note_on,24,0,6,,,,,,,,5,,,40,105
152760,note_on,0,0,6,,,,,,,,5,,,76,105
152760,note_on,24,0,1,,,,,,,,0,,,68,105
152760,note_on,24,0,5,,,,,,,,4,,,28,105
152760,note_on,24,0,2,,,,,,,,1,,,68,105
152760,note_on,24,0,3,,,,,,,,2,,,59,105
152832,note_on,72,0,6,,,,,,,,5,,,80,0
152856,note_on,0,0,6,,,,,,,,5,,,40,0
152856,note_on,24,0,6,,,,,,,,5,,,76,0
152856,note_on,96,0,5,,,,,,,,4,,,28,0
152856,note_on,96,0,4,,,,,,,,3,,,40,0
152856,note_on,96,0,3,,,,,,,,2,,,59,0
152856,note_on,96,0,2,,,,,,,,1,,,68,0
152856,note_on,96,0,1,,,,,,,,0,,,68,0
152880,note_on,24,0,3,,,,,,,,2,,,61,105
152880,note_on,24,0,5,,,,,,,,4,,,33,105
152880,note_on,24,0,2,,,,,,,,1,,,69,105
152880,note_on,24,0,1,,,,,,,,0,,,69,105
152880,note_on,0,0,6,,,,,,,,5,,,73,105
152880,note_on,0,0,6,,,,,,,,5,,,78,105
152880,note_on,24,0,6,,,,,,,,5,,,45,105
152880,note_on,24,0,4,,,,,,,,3,,,45,72
152976,note_on,96,0,3,,,,,,,,2,,,61,0
152976,note_on,96,0,2,,,,,,,,1,,,69,0
152976,note_on,0,0,6,,,,,,,,5,,,45,0
152976,note_on,0,0,6,,,,,,,,5,,,73,0
152976,note_on,96,0,1,,,,,,,,0,,,69,0
152976,note_on,96,0,4,,,,,,,,3,,,45,0
152976,note_on,96,0,5,,,,,,,,4,,,33,0
152976,note_on,96,0,6,,,,,,,,5,,,78,0
153000,note_on,24,0,6,,,,,,,,5,,,75,105
153000,note_on,24,0,5,,,,,,,,4,,,37,105
153000,note_on,24,0,1,,,,,,,,0,,,66,105
153000,note_on,24,0,3,,,,,,,,2,,,59,105
153000,note_on,24,0,2,,,,,,,,1,,,66,105
153000,note_on,0,0,6,,,,,,,,5,,,71,105
153000,note_on,0,0,6,,,,,,,,5,,,49,105
153000,note_on,24,0,4,,,,,,,,3,,,49,72
153096,note_on,0,0,6,,,,,,,,5,,,49,0
153096,note_on,96,0,3,,,,,,,,2,,,59,0
153096,note_on,96,0,1,,,,,,,,0,,,66,0
153096,note_on,96,0,4,,,,,,,,3,,,49,0
153096,note_on,96,0,5,,,,,,,,4,,,37,0
153096,note_on,96,0,2,,,,,,,,1,,,66,0
153096,note_on,96,0,6,,,,,,,,5,,,71,0
153096,note_on,0,0,6,,,,,,,,5,,,75,0
153120,note_on,24,0,5,,,,,,,,4,,,40,105
153120,note_on,24,0,1,,,,,,,,0,,,68,105
153120,note_on,0,0,6,,,,,,,,5,,,68,105
153120,note_on,24,0,4,,,,,,,,3,,,52,72
153120,note_on,24,0,2,,,,,,,,1,,,68,105
153120,note_on,0,0,6,,,,,,,,5,,,52,105
153120,note_on,24,0,6,,,,,,,,5,,,76,105
153120,note_on,24,0,3,,,,,,,,2,,,59,105
153216,note_on,96,0,6,,,,,,,,5,,,52,0
153216,note_on,96,0,1,,,,,,,,0,,,68,0
153216,note_on,96,0,5,,,,,,,,4,,,40,0
153216,note_on,96,0,2,,,,,,,,1,,,68,0
153216,note_on,96,0,4,,,,,,,,3,,,52,0
153216,note_on,96,0,3,,,,,,,,2,,,59,0
153240,note_on,24,0,6,,,,,,,,5,,,40,105
153240,note_on,24,0,1,,,,,,,,0,,,64,105
153240,note_on,24,0,2,,,,,,,,1,,,64,105
153240,note_on,24,0,5,,,,,,,,4,,,28,105
153240,note_on,24,0,3,,,,,,,,2,,,56,105
153240,note_on,24,0,4,,,,,,,,3,,,40,72
153312,note_on,72,0,6,,,,,,,,5,,,68,0
153312,note_on,0,0,6,,,,,,,,5,,,76,0
153336,note_on,96,0,5,,,,,,,,4,,,28,0
153336,note_on,96,0,2,,,,,,,,1,,,64,0
153336,note_on,96,0,1,,,,,,,,0,,,64,0
153336,note_on,24,0,6,,,,,,,,5,,,40,0
153336,note_on,96,0,4,,,,,,,,3,,,40,0
153336,note_on,96,0,3,,,,,,,,2,,,56,0
153360,note_on,24,0,5,,,,,,,,4,,,52,72
153360,note_on,24,0,6,,,,,,,,5,,,80,105
153360,note_on,0,0,6,,,,,,,,5,,,64,105
153360,note_on,0,0,6,,,,,,,,5,,,76,105
153360,note_on,24,0,1,,,,,,,,0,,,80,105
153360,note_on,24,0,2,,,,,,,,1,,,80,72
153360,note_on,24,0,4,,,,,,,,3,,,64,72
153360,note_on,24,0,3,,,,,,,,2,,,71,72
153408,note_on,48,0,2,,,,,,,,1,,,80,0
153408,note_on,48,0,1,,,,,,,,0,,,80,0
153420,note_on,12,0,2,,,,,,,,1,,,81,72
153420,note_on,12,0,1,,,,,,,,0,,,81,72
153456,note_on,0,0,6,,,,,,,,5,,,80,0
153456,note_on,96,0,3,,,,,,,,2,,,71,0
153456,note_on,0,0,6,,,,,,,,5,,,64,0
153456,note_on,96,0,6,,,,,,,,5,,,76,0
153456,note_on,96,0,4,,,,,,,,3,,,64,0
153456,note_on,96,0,5,,,,,,,,4,,,52,0
153468,note_on,48,0,1,,,,,,,,0,,,81,0
153468,note_on,48,0,2,,,,,,,,1,,,81,0
153480,note_on,24,0,3,,,,,,,,2,,,71,72
153480,note_on,24,0,5,,,,,,,,4,,,52,72
153480,note_on,12,0,2,,,,,,,,1,,,83,72
153480,note_on,24,0,4,,,,,,,,3,,,64,72
153480,note_on,0,0,6,,,,,,,,5,,,68,105
153480,note_on,0,0,6,,,,,,,,5,,,71,105
153480,note_on,24,0,6,,,,,,,,5,,,64,105
153480,note_on,12,0,1,,,,,,,,0,,,83,72
153528,note_on,48,0,1,,,,,,,,0,,,83,0
153528,note_on,48,0,2,,,,,,,,1,,,83,0
153540,note_on,12,0,2,,,,,,,,1,,,80,72
153540,note_on,12,0,1,,,,,,,,0,,,80,72
153576,note_on,96,0,3,,,,,,,,2,,,71,0
153576,note_on,96,0,5,,,,,,,,4,,,52,0
153576,note_on,96,0,4,,,,,,,,3,,,64,0
153576,note_on,0,0,6,,,,,,,,5,,,71,0
153576,note_on,0,0,6,,,,,,,,5,,,64,0
153576,note_on,96,0,6,,,,,,,,5,,,68,0
153588,note_on,48,0,2,,,,,,,,1,,,80,0
153588,note_on,48,0,1,,,,,,,,0,,,80,0
153600,note_on,12,0,2,,,,,,,,1,,,78,72
153600,note_on,24,0,4,,,,,,,,3,,,63,72
153600,note_on,24,0,5,,,,,,,,4,,,51,72
153600,note_on,24,0,3,,,,,,,,2,,,71,72
153600,note_on,0,0,6,,,,,,,,5,,,66,105
153600,note_on,0,0,6,,,,,,,,5,,,63,105
153600,note_on,24,0,6,,,,,,,,5,,,78,105
153600,note_on,12,0,1,,,,,,,,0,,,78,72
153696,note_on,96,0,6,,,,,,,,5,,,63,0
153696,note_on,96,0,3,,,,,,,,2,,,71,0
153696,note_on,96,0,4,,,,,,,,3,,,63,0
153696,note_on,96,0,5,,,,,,,,4,,,51,0
153720,note_on,24,0,4,,,,,,,,3,,,63,72
153720,note_on,24,0,3,,,,,,,,2,,,71,72
153720,note_on,24,0,6,,,,,,,,5,,,63,105
153720,note_on,24,0,5,,,,,,,,4,,,51,72
153792,note_on,72,0,6,,,,,,,,5,,,66,0
153792,note_on,0,0,6,,,,,,,,5,,,78,0
153792,note_on,192,0,2,,,,,,,,1,,,78,0
153792,note_on,192,0,1,,,,,,,,0,,,78,0
153816,note_on,96,0,3,,,,,,,,2,,,71,0
153816,note_on,24,0,6,,,,,,,,5,,,63,0
153816,note_on,96,0,4,,,,,,,,3,,,63,0
153816,note_on,96,0,5,,,,,,,,4,,,51,0
153840,note_on,24,0,3,,,,,,,,2,,,73,72
153840,note_on,24,0,4,,,,,,,,3,,,61,72
153840,note_on,48,0,1,,,,,,,,0,,,76,72
153840,note_on,24,0,6,,,,,,,,5,,,76,105
153840,note_on,48,0,2,,,,,,,,1,,,76,72
153840,note_on,24,0,5,,,,,,,,4,,,49,72
153840,note_on,0,0,6,,,,,,,,5,,,73,105
153840,note_on,0,0,6,,,,,,,,5,,,61,105
153888,note_on,48,0,1,,,,,,,,0,,,76,0
153888,note_on,48,0,2,,,,,,,,1,,,76,0
153900,note_on,12,0,2,,,,,,,,1,,,78,72
153900,note_on,12,0,1,,,,,,,,0,,,78,72
153936,note_on,96,0,4,,,,,,,,3,,,61,0
153936,note_on,96,0,5,,,,,,,,4,,,49,0
153936,note_on,96,0,3,,,,,,,,2,,,73,0
153936,note_on,0,0,6,,,,,,,,5,,,76,0
153936,note_on,0,0,6,,,,,,,,5,,,61,0
153936,note_on,96,0,6,,,,,,,,5,,,73,0
153948,note_on,48,0,1,,,,,,,,0,,,78,0
153948,note_on,48,0,2,,,,,,,,1,,,78,0
153960,note_on,0,0,6,,,,,,,,5,,,68,105
153960,note_on,0,0,6,,,,,,,,5,,,64,105
153960,note_on,24,0,6,,,,,,,,5,,,61,105
153960,note_on,24,0,3,,,,,,,,2,,,73,72
153960,note_on,24,0,5,,,,,,,,4,,,49,72
153960,note_on,12,0,2,,,,,,,,1,,,80,72
153960,note_on,24,0,4,,,,,,,,3,,,61,72
153960,note_on,12,0,1,,,,,,,,0,,,80,72
154008,note_on,48,0,1,,,,,,,,0,,,80,0
154008,note_on,48,0,2,,,,,,,,1,,,80,0
154020,note_on,12,0,1,,,,,,,,0,,,76,72
154020,note_on,12,0,2,,,,,,,,1,,,76,72
154056,note_on,0,0,6,,,,,,,,5,,,64,0
154056,note_on,96,0,6,,,,,,,,5,,,68,0
154056,note_on,0,0,6,,,,,,,,5,,,61,0
154056,note_on,96,0,4,,,,,,,,3,,,61,0
154056,note_on,96,0,3,,,,,,,,2,,,73,0
154056,note_on,96,0,5,,,,,,,,4,,,49,0
154068,note_on,48,0,2,,,,,,,,1,,,76,0
154068,note_on,48,0,1,,,,,,,,0,,,76,0
154080,note_on,0,0,6,,,,,,,,5,,,63,105
154080,note_on,0,0,6,,,,,,,,5,,,59,105
154080,note_on,24,0,6,,,,,,,,5,,,75,105
154080,note_on,24,0,5,,,,,,,,4,,,47,72
154080,note_on,24,0,3,,,,,,,,2,,,66,72
154080,note_on,24,0,4,,,,,,,,3,,,59,72
154080,note_on,12,0,2,,,,,,,,1,,,75,72
154080,note_on,12,0,1,,,,,,,,0,,,75,72
154176,note_on,96,0,5,,,,,,,,4,,,47,0
154176,note_on,96,0,3,,,,,,,,2,,,66,0
154176,note_on,96,0,6,,,,,,,,5,,,59,0
154176,note_on,96,0,4,,,,,,,,3,,,59,0
154176,note_on,96,0,2,,,,,,,,1,,,75,0
154176,note_on,96,0,1,,,,,,,,0,,,75,0
154200,note_on,24,0,1,,,,,,,,0,,,71,72
154200,note_on,24,0,2,,,,,,,,1,,,71,72
154200,note_on,24,0,3,,,,,,,,2,,,66,72
154200,note_on,24,0,4,,,,,,,,3,,,59,72
154200,note_on,24,0,5,,,,,,,,4,,,47,72
154200,note_on,24,0,6,,,,,,,,5,,,59,105
154272,note_on,72,0,6,,,,,,,,5,,,63,0
154272,note_on,0,0,6,,,,,,,,5,,,75,0
154296,note_on,96,0,3,,,,,,,,2,,,66,0
154296,note_on,96,0,1,,,,,,,,0,,,71,0
154296,note_on,96,0,2,,,,,,,,1,,,71,0
154296,note_on,24,0,6,,,,,,,,5,,,59,0
154296,note_on,96,0,5,,,,,,,,4,,,47,0
154296,note_on,96,0,4,,,,,,,,3,,,59,0
154320,note_on,24,0,1,,,,,,,,0,,,73,72
154320,note_on,24,0,6,,,,,,,,5,,,57,105
154320,note_on,24,0,4,,,,,,,,3,,,57,72
154320,note_on,0,0,6,,,,,,,,5,,,73,105
154320,note_on,24,0,2,,,,,,,,1,,,73,72
154320,note_on,0,0,6,,,,,,,,5,,,69,105
154320,note_on,24,0,5,,,,,,,,4,,,45,72
154320,note_on,24,0,3,,,,,,,,2,,,66,72
154368,note_on,48,0,2,,,,,,,,1,,,73,0
154368,note_on,48,0,1,,,,,,,,0,,,73,0
154380,note_on,12,0,2,,,,,,,,1,,,75,72
154380,note_on,12,0,1,,,,,,,,0,,,75,72
154416,note_on,96,0,5,,,,,,,,4,,,45,0
154416,note_on,0,0,6,,,,,,,,5,,,73,0
154416,note_on,96,0,6,,,,,,,,5,,,69,0
154416,note_on,0,0,6,,,,,,,,5,,,57,0
154416,note_on,96,0,4,,,,,,,,3,,,57,0
154416,note_on,96,0,3,,,,,,,,2,,,66,0
154428,note_on,48,0,2,,,,,,,,1,,,75,0
154428,note_on,48,0,1,,,,,,,,0,,,75,0
154440,note_on,12,0,2,,,,,,,,1,,,76,72
154440,note_on,24,0,6,,,,,,,,5,,,64,105
154440,note_on,0,0,6,,,,,,,,5,,,61,105
154440,note_on,12,0,1,,,,,,,,0,,,76,72
154440,note_on,24,0,3,,,,,,,,2,,,64,72
154440,note_on,24,0,5,,,,,,,,4,,,45,72
154440,note_on,24,0,4,,,,,,,,3,,,57,72
154440,note_on,0,0,6,,,,,,,,5,,,57,105
154488,note_on,48,0,1,,,,,,,,0,,,76,0
154488,note_on,48,0,2,,,,,,,,1,,,76,0
154500,note_on,12,0,1,,,,,,,,0,,,73,72
154500,note_on,12,0,2,,,,,,,,1,,,73,72
154536,note_on,96,0,3,,,,,,,,2,,,64,0
154536,note_on,96,0,4,,,,,,,,3,,,57,0
154536,note_on,96,0,5,,,,,,,,4,,,45,0
154536,note_on,0,0,6,,,,,,,,5,,,64,0
154536,note_on,0,0,6,,,,,,,,5,,,61,0
154536,note_on,96,0,6,,,,,,,,5,,,57,0
154548,note_on,48,0,2,,,,,,,,1,,,73,0
154548,note_on,48,0,1,,,,,,,,0,,,73,0
154560,note_on,0,0,6,,,,,,,,5,,,56,105
154560,note_on,12,0,2,,,,,,,,1,,,71,72
154560,note_on,0,0,6,,,,,,,,5,,,59,105
154560,note_on,24,0,6,,,,,,,,5,,,71,105
154560,note_on,24,0,5,,,,,,,,4,,,44,72
154560,note_on,12,0,1,,,,,,,,0,,,71,72
154560,note_on,24,0,4,,,,,,,,3,,,56,72
154560,note_on,24,0,3,,,,,,,,2,,,64,72
154656,note_on,96,0,4,,,,,,,,3,,,56,0
154656,note_on,96,0,6,,,,,,,,5,,,56,0
154656,note_on,96,0,3,,,,,,,,2,,,64,0
154656,note_on,96,0,5,,,,,,,,4,,,44,0
154680,note_on,24,0,3,,,,,,,,2,,,64,72
154680,note_on,24,0,5,,,,,,,,4,,,44,72
154680,note_on,24,0,6,,,,,,,,5,,,56,105
154680,note_on,24,0,4,,,,,,,,3,,,56,72
154752,note_on,0,0,6,,,,,,,,5,,,71,0
154752,note_on,72,0,6,,,,,,,,5,,,59,0
154752,note_on,192,0,1,,,,,,,,0,,,71,0
154752,note_on,192,0,2,,,,,,,,1,,,71,0
154776,note_on,96,0,3,,,,,,,,2,,,64,0
154776,note_on,96,0,5,,,,,,,,4,,,44,0
154776,note_on,96,0,4,,,,,,,,3,,,56,0
154776,note_on,24,0,6,,,,,,,,5,,,56,0
154800,note_on,24,0,5,,,,,,,,4,,,42,72
154800,note_on,24,0,4,,,,,,,,3,,,54,72
154800,note_on,48,0,2,,,,,,,,1,,,69,72
154800,note_on,0,0,6,,,,,,,,5,,,66,105
154800,note_on,0,0,6,,,,,,,,5,,,54,105
154800,note_on,24,0,6,,,,,,,,5,,,69,105
154800,note_on,24,0,3,,,,,,,,2,,,63,72
154800,note_on,48,0,1,,,,,,,,0,,,69,72
154848,note_on,48,0,2,,,,,,,,1,,,69,0
154848,note_on,48,0,1,,,,,,,,0,,,69,0
154860,note_on,12,0,2,,,,,,,,1,,,71,72
154860,note_on,12,0,1,,,,,,,,0,,,71,72
154896,note_on,96,0,4,,,,,,,,3,,,54,0
154896,note_on,96,0,5,,,,,,,,4,,,42,0
154896,note_on,96,0,3,,,,,,,,2,,,63,0
154896,note_on,96,0,6,,,,,,,,5,,,66,0
154896,note_on,0,0,6,,,,,,,,5,,,54,0
154896,note_on,0,0,6,,,,,,,,5,,,69,0
154908,note_on,48,0,1,,,,,,,,0,,,71,0
154908,note_on,48,0,2,,,,,,,,1,,,71,0
154920,note_on,24,0,3,,,,,,,,2,,,63,72
154920,note_on,24,0,4,,,,,,,,3,,,54,72
154920,note_on,24,0,5,,,,,,,,4,,,42,72
154920,note_on,12,0,1,,,,,,,,0,,,73,72
154920,note_on,12,0,2,,,,,,,,1,,,73,72
154920,note_on,0,0,6,,,,,,,,5,,,57,105
154920,note_on,24,0,6,,,,,,,,5,,,54,105
154920,note_on,0,0,6,,,,,,,,5,,,61,105
154968,note_on,48,0,1,,,,,,,,0,,,73,0
154968,note_on,48,0,2,,,,,,,,1,,,73,0
154980,note_on,12,0,2,,,,,,,,1,,,69,72
154980,note_on,12,0,1,,,,,,,,0,,,69,72
155016,note_on,0,0,6,,,,,,,,5,,,57,0
155016,note_on,96,0,4,,,,,,,,3,,,54,0
155016,note_on,96,0,3,,,,,,,,2,,,63,0
155016,note_on,96,0,6,,,,,,,,5,,,61,0
155016,note_on,0,0,6,,,,,,,,5,,,54,0
155016,note_on,96,0,5,,,,,,,,4,,,42,0
155028,note_on,48,0,1,,,,,,,,0,,,69,0
155028,note_on,48,0,2,,,,,,,,1,,,69,0
155040,note_on,24,0,5,,,,,,,,4,,,40,72
155040,note_on,24,0,4,,,,,,,,3,,,52,72
155040,note_on,12,0,2,,,,,,,,1,,,68,72
155040,note_on,24,0,6,,,,,,,,5,,,64,105
155040,note_on,0,0,6,,,,,,,,5,,,52,105
155040,note_on,0,0,6,,,,,,,,5,,,56,105
155040,note_on,12,0,1,,,,,,,,0,,,68,72
155040,note_on,24,0,3,,,,,,,,2,,,59,72
155136,note_on,96,0,1,,,,,,,,0,,,68,0
155136,note_on,96,0,5,,,,,,,,4,,,40,0
155136,note_on,0,0,6,,,,,,,,5,,,64,0
155136,note_on,0,0,6,,,,,,,,5,,,52,0
155136,note_on,96,0,2,,,,,,,,1,,,68,0
155136,note_on,96,0,4,,,,,,,,3,,,52,0
155136,note_on,96,0,6,,,,,,,,5,,,56,0
155136,note_on,96,0,3,,,,,,,,2,,,59,0
155160,note_on,24,0,6,,,,,,,,5,,,40,105
155160,note_on,24,0,4,,,,,,,,3,,,40,72
155160,note_on,24,0,1,,,,,,,,0,,,64,72
155160,note_on,24,0,2,,,,,,,,1,,,64,72
155160,note_on,24,0,3,,,,,,,,2,,,59,72
155160,note_on,24,0,5,,,,,,,,4,,,28,72
155256,note_on,96,0,2,,,,,,,,1,,,64,0
155256,note_on,96,0,1,,,,,,,,0,,,64,0
155256,note_on,96,0,5,,,,,,,,4,,,28,0
155256,note_on,96,0,4,,,,,,,,3,,,40,0
155256,note_on,96,0,3,,,,,,,,2,,,59,0
155256,note_on,96,0,6,,,,,,,,5,,,40,0
155280,note_on,24,0,1,,,,,,,,0,,,79,72
155280,note_on,24,0,2,,,,,,,,1,,,79,105
155280,note_on,24,0,6,,,,,,,,5,,,76,105
155376,note_on,96,0,6,,,,,,,,5,,,76,0
155400,note_on,144,0,3,,,,,,,,2,,,64,72
155400,note_on,0,0,6,,,,,,,,5,,,52,105
155400,note_on,24,0,6,,,,,,,,5,,,79,105
155400,note_on,144,0,4,,,,,,,,3,,,52,72
155400,note_on,144,0,5,,,,,,,,4,,,40,105
155472,note_on,192,0,1,,,,,,,,0,,,79,0
155472,note_on,192,0,2,,,,,,,,1,,,79,0
155496,note_on,0,0,6,,,,,,,,5,,,79,0
155496,note_on,96,0,6,,,,,,,,5,,,52,0
155496,note_on,96,0,4,,,,,,,,3,,,52,0
155496,note_on,96,0,3,,,,,,,,2,,,64,0
155496,note_on,96,0,5,,,,,,,,4,,,40,0
155520,note_on,0,0,6,,,,,,,,5,,,70,105
155520,note_on,24,0,6,,,,,,,,5,,,78,105
155520,note_on,24,0,3,,,,,,,,2,,,61,72
155520,note_on,24,0,5,,,,,,,,4,,,42,105
155520,note_on,0,0,6,,,,,,,,5,,,54,105
155520,note_on,24,0,4,,,,,,,,3,,,54,105
155520,note_on,48,0,2,,,,,,,,1,,,70,105
155520,note_on,48,0,1,,,,,,,,0,,,70,105
155616,note_on,96,0,6,,,,,,,,5,,,70,0
155616,note_on,96,0,5,,,,,,,,4,,,42,0
155616,note_on,96,0,4,,,,,,,,3,,,54,0
155616,note_on,0,0,6,,,,,,,,5,,,54,0
155640,note_on,24,0,5,,,,,,,,4,,,40,105
155640,note_on,0,0,6,,,,,,,,5,,,73,105
155640,note_on,24,0,4,,,,,,,,3,,,52,105
155640,note_on,24,0,6,,,,,,,,5,,,52,105
155712,note_on,192,0,2,,,,,,,,1,,,70,0
155712,note_on,192,0,1,,,,,,,,0,,,70,0
155736,note_on,96,0,6,,,,,,,,5,,,73,0
155736,note_on,0,0,6,,,,,,,,5,,,52,0
155736,note_on,96,0,5,,,,,,,,4,,,40,0
155736,note_on,96,0,4,,,,,,,,3,,,52,0
155760,note_on,48,0,2,,,,,,,,1,,,76,105
155760,note_on,0,0,6,,,,,,,,5,,,66,105
155760,note_on,48,0,1,,,,,,,,0,,,76,105
155760,note_on,24,0,6,,,,,,,,5,,,46,105
155760,note_on,24,0,5,,,,,,,,4,,,34,105
155760,note_on,24,0,4,,,,,,,,3,,,46,105
155808,note_on,48,0,6,,,,,,,,5,,,78,0
155808,note_on,288,0,3,,,,,,,,2,,,61,0
155856,note_on,48,0,6,,,,,,,,5,,,46,0
155856,note_on,96,0,2,,,,,,,,1,,,76,0
155856,note_on,96,0,5,,,,,,,,4,,,34,0
155856,note_on,96,0,1,,,,,,,,0,,,76,0
155856,note_on,96,0,4,,,,,,,,3,,,46,0
155880,note_on,0,0,6,,,,,,,,5,,,71,105
155880,note_on,24,0,6,,,,,,,,5,,,54,105
155880,note_on,24,0,1,,,,,,,,0,,,75,105
155880,note_on,72,0,3,,,,,,,,2,,,70,72
155880,note_on,24,0,5,,,,,,,,4,,,42,105
155880,note_on,24,0,2,,,,,,,,1,,,75,105
155880,note_on,24,0,4,,,,,,,,3,,,54,105
155928,note_on,48,0,6,,,,,,,,5,,,71,0
155928,note_on,48,0,2,,,,,,,,1,,,75,0
155928,note_on,48,0,1,,,,,,,,0,,,75,0
155940,note_on,12,0,6,,,,,,,,5,,,73,105
155940,note_on,12,0,2,,,,,,,,1,,,73,105
155940,note_on,12,0,1,,,,,,,,0,,,73,105
155976,note_on,96,0,4,,,,,,,,3,,,54,0
155976,note_on,96,0,5,,,,,,,,4,,,42,0
155976,note_on,96,0,3,,,,,,,,2,,,70,0
155976,note_on,36,0,6,,,,,,,,5,,,54,0
155988,note_on,12,0,6,,,,,,,,5,,,73,0
155988,note_on,48,0,2,,,,,,,,1,,,73,0
155988,note_on,48,0,1,,,,,,,,0,,,73,0
156000,note_on,12,0,6,,,,,,,,5,,,75,105
156000,note_on,0,0,6,,,,,,,,5,,,47,105
156000,note_on,12,0,2,,,,,,,,1,,,75,105
156000,note_on,24,0,3,,,,,,,,2,,,66,72
156000,note_on,24,0,5,,,,,,,,4,,,35,105
156000,note_on,24,0,4,,,,,,,,3,,,47,105
156000,note_on,12,0,1,,,,,,,,0,,,75,105
156096,note_on,96,0,1,,,,,,,,0,,,75,0
156096,note_on,96,0,2,,,,,,,,1,,,75,0
156120,note_on,24,0,1,,,,,,,,0,,,71,105
156120,note_on,24,0,2,,,,,,,,1,,,71,72
156168,note_on,48,0,2,,,,,,,,1,,,71,0
156168,note_on,48,0,1,,,,,,,,0,,,71,0
156180,note_on,12,0,2,,,,,,,,1,,,73,72
156180,note_on,12,0,1,,,,,,,,0,,,73,72
156192,note_on,192,0,6,,,,,,,,5,,,47,0
156192,note_on,0,0,6,,,,,,,,5,,,75,0
156192,note_on,0,0,6,,,,,,,,5,,,66,0
156192,note_on,192,0,3,,,,,,,,2,,,66,0
156192,note_on,192,0,4,,,,,,,,3,,,47,0
156192,note_on,192,0,5,,,,,,,,4,,,35,0
156228,note_on,48,0,2,,,,,,,,1,,,73,0
156228,note_on,48,0,1,,,,,,,,0,,,73,0
156240,note_on,12,0,1,,,,,,,,0,,,75,72
156240,note_on,12,0,2,,,,,,,,1,,,75,72
156360,note_on,168,0,5,,,,,,,,4,,,51,105
156360,note_on,0,0,6,,,,,,,,5,,,66,72
156360,note_on,168,0,6,,,,,,,,5,,,63,72
156360,note_on,168,0,4,,,,,,,,3,,,63,72
156360,note_on,168,0,3,,,,,,,,2,,,66,72
156408,note_on,48,0,6,,,,,,,,5,,,66,0
156408,note_on,0,0,6,,,,,,,,5,,,63,0
156408,note_on,48,0,3,,,,,,,,2,,,66,0
156408,note_on,48,0,4,,,,,,,,3,,,63,0
156408,note_on,48,0,5,,,,,,,,4,,,51,0
156420,note_on,12,0,3,,,,,,,,2,,,64,72
156420,note_on,12,0,4,,,,,,,,3,,,61,72
156420,note_on,12,0,5,,,,,,,,4,,,49,72
156420,note_on,12,0,6,,,,,,,,5,,,64,72
156420,note_on,0,0,6,,,,,,,,5,,,61,72
156468,note_on,48,0,3,,,,,,,,2,,,64,0
156468,note_on,0,0,6,,,,,,,,5,,,64,0
156468,note_on,48,0,5,,,,,,,,4,,,49,0
156468,note_on,48,0,6,,,,,,,,5,,,61,0
156468,note_on,48,0,4,,,,,,,,3,,,61,0
156480,note_on,12,0,4,,,,,,,,3,,,59,72
156480,note_on,12,0,6,,,,,,,,5,,,63,72
156480,note_on,0,0,6,,,,,,,,5,,,59,72
156480,note_on,12,0,3,,,,,,,,2,,,63,105
156480,note_on,12,0,5,,,,,,,,4,,,47,72
156576,note_on,96,0,6,,,,,,,,5,,,59,0
156576,note_on,336,0,2,,,,,,,,1,,,75,0
156576,note_on,96,0,5,,,,,,,,4,,,47,0
156576,note_on,96,0,4,,,,,,,,3,,,59,0
156576,note_on,336,0,1,,,,,,,,0,,,75,0
156600,note_on,24,0,4,,,,,,,,3,,,47,72
156600,note_on,24,0,6,,,,,,,,5,,,47,72
156600,note_on,24,0,5,,,,,,,,4,,,35,72
156600,note_on,24,0,2,,,,,,,,1,,,71,72
156600,note_on,24,0,1,,,,,,,,0,,,71,72
156648,note_on,48,0,1,,,,,,,,0,,,71,0
156648,note_on,48,0,2,,,,,,,,1,,,71,0
156660,note_on,12,0,2,,,,,,,,1,,,73,105
156660,note_on,12,0,1,,,,,,,,0,,,73,72
156672,note_on,72,0,6,,,,,,,,5,,,63,0
156672,note_on,192,0,3,,,,,,,,2,,,63,0
156696,note_on,96,0,5,,,,,,,,4,,,35,0
156696,note_on,96,0,4,,,,,,,,3,,,47,0
156696,note_on,24,0,6,,,,,,,,5,,,47,0
156708,note_on,48,0,2,,,,,,,,1,,,73,0
156708,note_on,48,0,1,,,,,,,,0,,,73,0
156720,note_on,12,0,1,,,,,,,,0,,,75,72
156720,note_on,12,0,2,,,,,,,,1,,,75,105
156840,note_on,168,0,3,,,,,,,,2,,,66,105
156840,note_on,144,0,4,,,,,,,,3,,,63,72
156840,note_on,144,0,6,,,,,,,,5,,,63,72
156840,note_on,144,0,5,,,,,,,,4,,,51,72
156840,note_on,0,0,6,,,,,,,,5,,,66,105
156888,note_on,48,0,4,,,,,,,,3,,,63,0
156888,note_on,48,0,5,,,,,,,,4,,,51,0
156888,note_on,48,0,6,,,,,,,,5,,,66,0
156888,note_on,0,0,6,,,,,,,,5,,,63,0
156888,note_on,48,0,3,,,,,,,,2,,,66,0
156900,note_on,12,0,6,,,,,,,,5,,,64,105
156900,note_on,12,0,5,,,,,,,,4,,,49,105
156900,note_on,12,0,3,,,,,,,,2,,,64,105
156900,note_on,0,0,6,,,,,,,,5,,,61,105
156900,note_on,12,0,4,,,,,,,,3,,,61,105
156948,note_on,48,0,6,,,,,,,,5,,,61,0
156948,note_on,48,0,5,,,,,,,,4,,,49,0
156948,note_on,48,0,4,,,,,,,,3,,,61,0
156948,note_on,48,0,3,,,,,,,,2,,,64,0
156948,note_on,0,0,6,,,,,,,,5,,,64,0
156960,note_on,12,0,6,,,,,,,,5,,,63,105
156960,note_on,12,0,4,,,,,,,,3,,,59,105
156960,note_on,12,0,5,,,,,,,,4,,,47,105
156960,note_on,12,0,3,,,,,,,,2,,,63,105
156960,note_on,0,0,6,,,,,,,,5,,,59,105
157056,note_on,96,0,5,,,,,,,,4,,,47,0
157056,note_on,96,0,6,,,,,,,,5,,,59,0
157056,note_on,96,0,4,,,,,,,,3,,,59,0
157056,note_on,336,0,1,,,,,,,,0,,,75,0
157056,note_on,336,0,2,,,,,,,,1,,,75,0
157080,note_on,24,0,1,,,,,,,,0,,,75,72
157080,note_on,24,0,2,,,,,,,,1,,,75,105
157080,note_on,24,0,5,,,,,,,,4,,,35,105
157080,note_on,24,0,4,,,,,,,,3,,,47,105
157080,note_on,24,0,6,,,,,,,,5,,,47,105
157128,note_on,48,0,2,,,,,,,,1,,,75,0
157128,note_on,48,0,1,,,,,,,,0,,,75,0
157140,note_on,12,0,1,,,,,,,,0,,,76,72
157140,note_on,12,0,2,,,,,,,,1,,,76,105
157152,note_on,192,0,3,,,,,,,,2,,,63,0
157152,note_on,72,0,6,,,,,,,,5,,,63,0
157176,note_on,96,0,4,,,,,,,,3,,,47,0
157176,note_on,96,0,5,,,,,,,,4,,,35,0
157176,note_on,24,0,6,,,,,,,,5,,,47,0
157188,note_on,48,0,2,,,,,,,,1,,,76,0
157188,note_on,48,0,1,,,,,,,,0,,,76,0
157200,note_on,12,0,2,,,,,,,,1,,,78,105
157200,note_on,12,0,1,,,,,,,,0,,,78,72
157296,note_on,96,0,1,,,,,,,,0,,,78,0
157296,note_on,96,0,2,,,,,,,,1,,,78,0
157320,note_on,24,0,1,,,,,,,,0,,,80,72
157320,note_on,144,0,6,,,,,,,,5,,,54,105
157320,note_on,0,0,6,,,,,,,,5,,,73,105
157320,note_on,168,0,3,,,,,,,,2,,,61,105
157320,note_on,0,0,6,,,,,,,,5,,,70,105
157320,note_on,144,0,5,,,,,,,,4,,,42,105
157320,note_on,24,0,2,,,,,,,,1,,,80,105
157320,note_on,144,0,4,,,,,,,,3,,,54,105
157368,note_on,48,0,1,,,,,,,,0,,,80,0
157368,note_on,48,0,2,,,,,,,,1,,,80,0
157380,note_on,12,0,1,,,,,,,,0,,,82,72
157380,note_on,12,0,2,,,,,,,,1,,,82,105
157416,note_on,96,0,4,,,,,,,,3,,,54,0
157416,note_on,96,0,3,,,,,,,,2,,,61,0
157416,note_on,96,0,5,,,,,,,,4,,,42,0
157416,note_on,0,0,6,,,,,,,,5,,,54,0
157416,note_on,0,0,6,,,,,,,,5,,,70,0
157416,note_on,96,0,6,,,,,,,,5,,,73,0
157428,note_on,48,0,2,,,,,,,,1,,,82,0
157428,note_on,48,0,1,,,,,,,,0,,,82,0
157440,note_on,12,0,1,,,,,,,,0,,,83,72
157440,note_on,24,0,5,,,,,,,,4,,,35,105
157440,note_on,12,0,2,,,,,,,,1,,,83,105
157440,note_on,0,0,6,,,,,,,,5,,,47,105
157440,note_on,0,0,6,,,,,,,,5,,,71,105
157440,note_on,24,0,4,,,,,,,,3,,,47,105
157440,note_on,24,0,6,,,,,,,,5,,,75,105
157440,note_on,24,0,3,,,,,,,,2,,,63,105
157488,note_on,48,0,2,,,,,,,,1,,,83,0
157488,note_on,48,0,1,,,,,,,,0,,,83,0
157500,note_on,12,0,1,,,,,,,,0,,,78,72
157500,note_on,12,0,2,,,,,,,,1,,,78,105
157536,note_on,96,0,4,,,,,,,,3,,,47,0
157536,note_on,96,0,6,,,,,,,,5,,,47,0
157536,note_on,96,0,5,,,,,,,,4,,,35,0
157536,note_on,96,0,3,,,,,,,,2,,,63,0
157548,note_on,48,0,1,,,,,,,,0,,,78,0
157548,note_on,48,0,2,,,,,,,,1,,,78,0
157560,note_on,24,0,4,,,,,,,,3,,,47,105
157560,note_on,12,0,1,,,,,,,,0,,,75,72
157560,note_on,24,0,5,,,,,,,,4,,,35,105
157560,note_on,24,0,3,,,,,,,,2,,,63,105
157560,note_on,24,0,6,,,,,,,,5,,,47,105
157560,note_on,12,0,2,,,,,,,,1,,,75,105
157608,note_on,48,0,2,,,,,,,,1,,,75,0
157608,note_on,48,0,1,,,,,,,,0,,,75,0
157620,note_on,12,0,1,,,,,,,,0,,,71,72
157620,note_on,12,0,2,,,,,,,,1,,,71,105
157632,note_on,72,0,6,,,,,,,,5,,,71,0
157656,note_on,96,0,3,,,,,,,,2,,,63,0
157656,note_on,96,0,4,,,,,,,,3,,,47,0
157656,note_on,24,0,6,,,,,,,,5,,,47,0
157656,note_on,96,0,5,,,,,,,,4,,,35,0
157668,note_on,48,0,1,,,,,,,,0,,,71,0
157668,note_on,48,0,2,,,,,,,,1,,,71,0
157680,note_on,24,0,6,,,,,,,,5,,,47,105
157680,note_on,24,0,3,,,,,,,,2,,,63,105
157680,note_on,24,0,5,,,,,,,,4,,,35,105
157680,note_on,0,0,6,,,,,,,,5,,,66,105
157680,note_on,12,0,2,,,,,,,,1,,,66,105
157680,note_on,12,0,1,,,,,,,,0,,,66,72
157680,note_on,24,0,4,,,,,,,,3,,,47,105
157776,note_on,96,0,3,,,,,,,,2,,,63,0
157776,note_on,96,0,6,,,,,,,,5,,,47,0
157776,note_on,96,0,5,,,,,,,,4,,,35,0
157776,note_on,96,0,4,,,,,,,,3,,,47,0
157800,note_on,24,0,6,,,,,,,,5,,,47,105
157800,note_on,24,0,4,,,,,,,,3,,,47,105
157800,note_on,24,0,3,,,,,,,,2,,,63,105
157800,note_on,24,0,5,,,,,,,,4,,,35,105
157824,note_on,24,0,6,,,,,,,,5,,,75,0
157872,note_on,192,0,1,,,,,,,,0,,,66,0
157872,note_on,192,0,2,,,,,,,,1,,,66,0
157872,note_on,48,0,6,,,,,,,,5,,,66,0
157896,note_on,24,0,6,,,,,,,,5,,,47,0
157896,note_on,96,0,5,,,,,,,,4,,,35,0
157896,note_on,96,0,4,,,,,,,,3,,,47,0
157896,note_on,96,0,3,,,,,,,,2,,,63,0
157920,note_on,24,0,4,,,,,,,,3,,,46,105
157920,note_on,24,0,6,,,,,,,,5,,,76,105
157920,note_on,0,0,6,,,,,,,,5,,,46,105
157920,note_on,0,0,6,,,,,,,,5,,,67,105
157920,note_on,24,0,5,,,,,,,,4,,,34,105
157920,note_on,48,0,2,,,,,,,,1,,,67,105
157920,note_on,48,0,1,,,,,,,,0,,,67,72
157920,note_on,24,0,3,,,,,,,,2,,,61,105
158016,note_on,96,0,5,,,,,,,,4,,,34,0
158016,note_on,96,0,3,,,,,,,,2,,,61,0
158016,note_on,0,0,6,,,,,,,,5,,,76,0
158016,note_on,96,0,6,,,,,,,,5,,,46,0
158016,note_on,96,0,4,,,,,,,,3,,,46,0
158040,note_on,24,0,6,,,,,,,,5,,,73,105
158040,note_on,24,0,5,,,,,,,,4,,,34,105
158040,note_on,24,0,4,,,,,,,,3,,,46,105
158040,note_on,24,0,3,,,,,,,,2,,,61,105
158040,note_on,0,0,6,,,,,,,,5,,,46,105
158112,note_on,72,0,6,,,,,,,,5,,,67,0
158112,note_on,192,0,1,,,,,,,,0,,,67,0
158112,note_on,192,0,2,,,,,,,,1,,,67,0
158136,note_on,24,0,6,,,,,,,,5,,,46,0
158136,note_on,0,0,6,,,,,,,,5,,,73,0
158136,note_on,96,0,4,,,,,,,,3,,,46,0
158136,note_on,96,0,3,,,,,,,,2,,,61,0
158136,note_on,96,0,5,,,,,,,,4,,,34,0
158160,note_on,24,0,6,,,,,,,,5,,,47,105
158160,note_on,0,0,6,,,,,,,,5,,,75,105
158160,note_on,0,0,6,,,,,,,,5,,,66,105
158160,note_on,48,0,1,,,,,,,,0,,,66,72
158160,note_on,48,0,2,,,,,,,,1,,,66,105
158160,note_on,24,0,5,,,,,,,,4,,,35,105
158160,note_on,24,0,4,,,,,,,,3,,,47,105
158160,note_on,24,0,3,,,,,,,,2,,,63,105
158256,note_on,96,0,5,,,,,,,,4,,,35,0
158256,note_on,96,0,6,,,,,,,,5,,,75,0
158256,note_on,0,0,6,,,,,,,,5,,,47,0
158256,note_on,96,0,2,,,,,,,,1,,,66,0
158256,note_on,96,0,4,,,,,,,,3,,,47,0
158256,note_on,96,0,3,,,,,,,,2,,,63,0
158256,note_on,96,0,1,,,,,,,,0,,,66,0
158280,note_on,24,0,4,,,,,,,,3,,,42,105
158280,note_on,24,0,2,,,,,,,,1,,,76,105
158280,note_on,24,0,3,,,,,,,,2,,,61,105
158280,note_on,24,0,1,,,,,,,,0,,,76,72
158280,note_on,24,0,5,,,,,,,,4,,,30,105
158280,note_on,24,0,6,,,,,,,,5,,,76,105
158280,note_on,0,0,6,,,,,,,,5,,,42,105
158376,note_on,96,0,5,,,,,,,,4,,,30,0
158376,note_on,96,0,6,,,,,,,,5,,,42,0
158376,note_on,96,0,1,,,,,,,,0,,,76,0
158376,note_on,96,0,3,,,,,,,,2,,,61,0
158376,note_on,96,0,4,,,,,,,,3,,,42,0
158376,note_on,0,0,6,,,,,,,,5,,,76,0
158376,note_on,96,0,2,,,,,,,,1,,,76,0
158400,note_on,24,0,4,,,,,,,,3,,,47,105
158400,note_on,24,0,6,,,,,,,,5,,,75,105
158400,note_on,24,0,1,,,,,,,,0,,,75,72
158400,note_on,24,0,3,,,,,,,,2,,,59,105
158400,note_on,24,0,5,,,,,,,,4,,,35,105
158400,note_on,0,0,6,,,,,,,,5,,,47,105
158400,note_on,24,0,2,,,,,,,,1,,,75,105
158496,note_on,96,0,3,,,,,,,,2,,,59,0
158496,note_on,96,0,4,,,,,,,,3,,,47,0
158496,note_on,96,0,6,,,,,,,,5,,,47,0
158496,note_on,0,0,6,,,,,,,,5,,,75,0
158496,note_on,96,0,5,,,,,,,,4,,,35,0
158496,note_on,96,0,1,,,,,,,,0,,,75,0
158496,note_on,96,0,2,,,,,,,,1,,,75,0
158520,note_on,24,0,2,,,,,,,,1,,,73,105
158520,note_on,24,0,3,,,,,,,,2,,,66,105
158520,note_on,24,0,5,,,,,,,,4,,,39,105
158520,note_on,24,0,6,,,,,,,,5,,,51,105
158520,note_on,24,0,1,,,,,,,,0,,,73,72
158520,note_on,24,0,4,,,,,,,,3,,,51,105
158520,note_on,0,0,6,,,,,,,,5,,,71,105
158568,note_on,48,0,1,,,,,,,,0,,,73,0
158568,note_on,48,0,2,,,,,,,,1,,,73,0
158580,note_on,12,0,1,,,,,,,,0,,,71,72
158580,note_on,12,0,2,,,,,,,,1,,,71,105
158592,note_on,72,0,6,,,,,,,,5,,,66,0
158616,note_on,96,0,4,,,,,,,,3,,,51,0
158616,note_on,24,0,6,,,,,,,,5,,,71,0
158616,note_on,96,0,3,,,,,,,,2,,,66,0
158616,note_on,96,0,5,,,,,,,,4,,,39,0
158616,note_on,0,0,6,,,,,,,,5,,,51,0
158628,note_on,48,0,1,,,,,,,,0,,,71,0
158628,note_on,48,0,2,,,,,,,,1,,,71,0
158640,note_on,24,0,4,,,,,,,,3,,,52,105
158640,note_on,24,0,5,,,,,,,,4,,,40,105
158640,note_on,12,0,2,,,,,,,,1,,,73,105
158640,note_on,24,0,3,,,,,,,,2,,,68,105
158640,note_on,24,0,6,,,,,,,,5,,,73,105
158640,note_on,12,0,1,,,,,,,,0,,,73,72
158640,note_on,0,0,6,,,,,,,,5,,,68,105
158640,note_on,0,0,6,,,,,,,,5,,,52,105
158736,note_on,96,0,3,,,,,,,,2,,,68,0
158736,note_on,96,0,2,,,,,,,,1,,,73,0
158736,note_on,96,0,5,,,,,,,,4,,,40,0
158736,note_on,96,0,1,,,,,,,,0,,,73,0
158736,note_on,96,0,4,,,,,,,,3,,,52,0
158736,note_on,96,0,6,,,,,,,,5,,,68,0
158736,note_on,0,0,6,,,,,,,,5,,,52,0
158736,note_on,0,0,6,,,,,,,,5,,,73,0
158760,note_on,0,0,6,,,,,,,,5,,,54,105
158760,note_on,24,0,6,,,,,,,,5,,,70,105
158760,note_on,24,0,5,,,,,,,,4,,,42,105
158760,note_on,0,0,6,,,,,,,,5,,,66,105
158760,note_on,24,0,3,,,,,,,,2,,,61,105
158760,note_on,24,0,2,,,,,,,,1,,,70,105
158760,note_on,24,0,1,,,,,,,,0,,,70,72
158760,note_on,24,0,4,,,,,,,,3,,,54,105
158856,note_on,96,0,3,,,,,,,,2,,,61,0
158856,note_on,0,0,6,,,,,,,,5,,,70,0
158856,note_on,0,0,6,,,,,,,,5,,,54,0
158856,note_on,96,0,6,,,,,,,,5,,,66,0
158856,note_on,96,0,1,,,,,,,,0,,,70,0
158856,note_on,96,0,4,,,,,,,,3,,,54,0
158856,note_on,96,0,2,,,,,,,,1,,,70,0
158856,note_on,96,0,5,,,,,,,,4,,,42,0
158880,note_on,24,0,6,,,,,,,,5,,,71,72
158880,note_on,24,0,4,,,,,,,,3,,,47,72
158880,note_on,0,0,6,,,,,,,,5,,,47,72
158880,note_on,24,0,2,,,,,,,,1,,,71,72
158880,note_on,24,0,1,,,,,,,,0,,,71,72
158880,note_on,24,0,3,,,,,,,,2,,,63,72
158880,note_on,0,0,6,,,,,,,,5,,,63,72
158880,note_on,24,0,5,,,,,,,,4,,,35,72
158928,note_on,48,0,2,,,,,,,,1,,,71,0
158928,note_on,48,0,1,,,,,,,,0,,,71,0
158940,note_on,12,0,1,,,,,,,,0,,,78,72
158940,note_on,12,0,2,,,,,,,,1,,,78,72
158976,note_on,96,0,3,,,,,,,,2,,,63,0
158976,note_on,96,0,5,,,,,,,,4,,,35,0
158976,note_on,96,0,4,,,,,,,,3,,,47,0
158976,note_on,96,0,6,,,,,,,,5,,,47,0
158988,note_on,48,0,2,,,,,,,,1,,,78,0
158988,note_on,48,0,1,,,,,,,,0,,,78,0
159000,note_on,24,0,6,,,,,,,,5,,,47,72
159000,note_on,24,0,5,,,,,,,,4,,,35,72
159000,note_on,24,0,3,,,,,,,,2,,,63,72
159000,note_on,12,0,1,,,,,,,,0,,,75,72
159000,note_on,24,0,4,,,,,,,,3,,,47,72
159000,note_on,12,0,2,,,,,,,,1,,,75,72
159048,note_on,48,0,1,,,,,,,,0,,,75,0
159048,note_on,48,0,2,,,,,,,,1,,,75,0
159060,note_on,12,0,2,,,,,,,,1,,,71,72
159060,note_on,12,0,1,,,,,,,,0,,,71,72
159072,note_on,72,0,6,,,,,,,,5,,,63,0
159072,note_on,0,0,6,,,,,,,,5,,,71,0
159096,note_on,24,0,6,,,,,,,,5,,,47,0
159096,note_on,96,0,4,,,,,,,,3,,,47,0
159096,note_on,96,0,5,,,,,,,,4,,,35,0
159096,note_on,96,0,3,,,,,,,,2,,,63,0
159108,note_on,48,0,2,,,,,,,,1,,,71,0
159108,note_on,48,0,1,,,,,,,,0,,,71,0
159120,note_on,12,0,2,,,,,,,,1,,,66,72
159120,note_on,24,0,5,,,,,,,,4,,,35,72
159120,note_on,24,0,4,,,,,,,,3,,,47,72
159120,note_on,24,0,3,,,,,,,,2,,,63,72
159120,note_on,12,0,1,,,,,,,,0,,,66,72
159120,note_on,24,0,6,,,,,,,,5,,,47,72
159120,note_on,0,0,6,,,,,,,,5,,,66,72
159120,note_on,0,0,6,,,,,,,,5,,,75,72
159216,note_on,96,0,5,,,,,,,,4,,,35,0
159216,note_on,96,0,6,,,,,,,,5,,,47,0
159216,note_on,96,0,4,,,,,,,,3,,,47,0
159216,note_on,96,0,3,,,,,,,,2,,,63,0
159240,note_on,24,0,4,,,,,,,,3,,,47,72
159240,note_on,24,0,5,,,,,,,,4,,,35,72
159240,note_on,24,0,6,,,,,,,,5,,,47,72
159240,note_on,24,0,3,,,,,,,,2,,,63,72
159312,note_on,192,0,1,,,,,,,,0,,,66,0
159312,note_on,192,0,2,,,,,,,,1,,,66,0
159312,note_on,72,0,6,,,,,,,,5,,,75,0
159312,note_on,0,0,6,,,,,,,,5,,,66,0
159336,note_on,96,0,3,,,,,,,,2,,,63,0
159336,note_on,96,0,4,,,,,,,,3,,,47,0
159336,note_on,96,0,5,,,,,,,,4,,,35,0
159336,note_on,24,0,6,,,,,,,,5,,,47,0
159360,note_on,48,0,1,,,,,,,,0,,,67,72
159360,note_on,24,0,4,,,,,,,,3,,,46,72
159360,note_on,0,0,6,,,,,,,,5,,,67,72
159360,note_on,24,0,6,,,,,,,,5,,,76,72
159360,note_on,0,0,6,,,,,,,,5,,,46,72
159360,note_on,48,0,2,,,,,,,,1,,,67,72
159360,note_on,24,0,3,,,,,,,,2,,,61,72
159360,note_on,24,0,5,,,,,,,,4,,,34,72
159456,note_on,96,0,4,,,,,,,,3,,,46,0
159456,note_on,96,0,3,,,,,,,,2,,,61,0
159456,note_on,96,0,6,,,,,,,,5,,,46,0
159456,note_on,0,0,6,,,,,,,,5,,,76,0
159456,note_on,96,0,5,,,,,,,,4,,,34,0
159480,note_on,24,0,3,,,,,,,,2,,,61,72
159480,note_on,24,0,5,,,,,,,,4,,,34,72
159480,note_on,24,0,4,,,,,,,,3,,,46,72
159480,note_on,0,0,6,,,,,,,,5,,,46,72
159480,note_on,24,0,6,,,,,,,,5,,,73,72
159552,note_on,72,0,6,,,,,,,,5,,,67,0
159552,note_on,192,0,1,,,,,,,,0,,,67,0
159552,note_on,192,0,2,,,,,,,,1,,,67,0
159576,note_on,96,0,3,,,,,,,,2,,,61,0
159576,note_on,96,0,4,,,,,,,,3,,,46,0
159576,note_on,24,0,6,,,,,,,,5,,,46,0
159576,note_on,0,0,6,,,,,,,,5,,,73,0
159576,note_on,96,0,5,,,,,,,,4,,,34,0
159600,note_on,24,0,5,,,,,,,,4,,,35,72
159600,note_on,24,0,6,,,,,,,,5,,,47,72
159600,note_on,0,0,6,,,,,,,,5,,,75,72
159600,note_on,0,0,6,,,,,,,,5,,,66,72
159600,note_on,24,0,4,,,,,,,,3,,,47,72
159600,note_on,24,0,3,,,,,,,,2,,,63,72
159600,note_on,48,0,2,,,,,,,,1,,,66,72
159600,note_on,48,0,1,,,,,,,,0,,,66,72
159696,note_on,96,0,5,,,,,,,,4,,,35,0
159696,note_on,96,0,3,,,,,,,,2,,,63,0
159696,note_on,96,0,4,,,,,,,,3,,,47,0
159696,note_on,0,0,6,,,,,,,,5,,,47,0
159696,note_on,96,0,6,,,,,,,,5,,,75,0
159696,note_on,96,0,2,,,,,,,,1,,,66,0
159696,note_on,96,0,1,,,,,,,,0,,,66,0
159720,note_on,24,0,3,,,,,,,,2,,,61,72
159720,note_on,24,0,2,,,,,,,,1,,,76,72
159720,note_on,24,0,5,,,,,,,,4,,,30,72
159720,note_on,24,0,6,,,,,,,,5,,,76,72
159720,note_on,0,0,6,,,,,,,,5,,,42,72
159720,note_on,24,0,4,,,,,,,,3,,,42,72
159720,note_on,24,0,1,,,,,,,,0,,,76,72
159816,note_on,96,0,1,,,,,,,,0,,,76,0
159816,note_on,96,0,4,,,,,,,,3,,,42,0
159816,note_on,96,0,3,,,,,,,,2,,,61,0
159816,note_on,96,0,5,,,,,,,,4,,,30,0
159816,note_on,96,0,2,,,,,,,,1,,,76,0
159816,note_on,96,0,6,,,,,,,,5,,,42,0
159816,note_on,0,0,6,,,,,,,,5,,,76,0
159840,note_on,24,0,3,,,,,,,,2,,,59,72
159840,note_on,24,0,4,,,,,,,,3,,,47,72
159840,note_on,0,0,6,,,,,,,,5,,,47,72
159840,note_on,24,0,5,,,,,,,,4,,,35,72
159840,note_on,24,0,2,,,,,,,,1,,,75,72
159840,note_on,24,0,1,,,,,,,,0,,,75,72
159840,note_on,24,0,6,,,,,,,,5,,,75,72
159936,note_on,96,0,5,,,,,,,,4,,,35,0
159936,note_on,96,0,2,,,,,,,,1,,,75,0
159936,note_on,0,0,6,,,,,,,,5,,,75,0
159936,note_on,96,0,1,,,,,,,,0,,,75,0
159936,note_on,96,0,3,,,,,,,,2,,,59,0
159936,note_on,96,0,4,,,,,,,,3,,,47,0
159936,note_on,96,0,6,,,,,,,,5,,,47,0
159960,note_on,24,0,5,,,,,,,,4,,,39,72
159960,note_on,24,0,4,,,,,,,,3,,,51,72
159960,note_on,24,0,3,,,,,,,,2,,,66,72
159960,note_on,0,0,6,,,,,,,,5,,,71,72
159960,note_on,24,0,6,,,,,,,,5,,,51,72
159960,note_on,24,0,1,,,,,,,,0,,,73,72
159960,note_on,24,0,2,,,,,,,,1,,,73,72
160008,note_on,48,0,1,,,,,,,,0,,,73,0
160008,note_on,48,0,2,,,,,,,,1,,,73,0
160020,note_on,12,0,2,,,,,,,,1,,,71,72
160020,note_on,12,0,1,,,,,,,,0,,,71,72
160032,note_on,72,0,6,,,,,,,,5,,,66,0
160056,note_on,96,0,3,,,,,,,,2,,,66,0
160056,note_on,24,0,6,,,,,,,,5,,,71,0
160056,note_on,0,0,6,,,,,,,,5,,,51,0
160056,note_on,96,0,5,,,,,,,,4,,,39,0
160056,note_on,96,0,4,,,,,,,,3,,,51,0
160068,note_on,48,0,2,,,,,,,,1,,,71,0
160068,note_on,48,0,1,,,,,,,,0,,,71,0
160080,note_on,0,0,6,,,,,,,,5,,,68,72
160080,note_on,0,0,6,,,,,,,,5,,,52,72
160080,note_on,12,0,2,,,,,,,,1,,,73,72
160080,note_on,24,0,5,,,,,,,,4,,,40,72
160080,note_on,24,0,6,,,,,,,,5,,,73,72
160080,note_on,24,0,4,,,,,,,,3,,,52,72
160080,note_on,12,0,1,,,,,,,,0,,,73,72
160080,note_on,24,0,3,,,,,,,,2,,,68,72
160176,note_on,0,0,6,,,,,,,,5,,,52,0
160176,note_on,96,0,2,,,,,,,,1,,,73,0
160176,note_on,0,0,6,,,,,,,,5,,,73,0
160176,note_on,96,0,5,,,,,,,,4,,,40,0
160176,note_on,96,0,6,,,,,,,,5,,,68,0
160176,note_on,96,0,3,,,,,,,,2,,,68,0
160176,note_on,96,0,1,,,,,,,,0,,,73,0
160176,note_on,96,0,4,,,,,,,,3,,,52,0
160200,note_on,24,0,4,,,,,,,,3,,,54,72
160200,note_on,24,0,5,,,,,,,,4,,,42,72
160200,note_on,24,0,6,,,,,,,,5,,,70,72
160200,note_on,0,0,6,,,,,,,,5,,,54,72
160200,note_on,24,0,1,,,,,,,,0,,,70,72
160200,note_on,0,0,6,,,,,,,,5,,,66,72
160200,note_on,24,0,2,,,,,,,,1,,,70,72
160200,note_on,24,0,3,,,,,,,,2,,,61,72
160296,note_on,96,0,4,,,,,,,,3,,,54,0
160296,note_on,0,0,6,,,,,,,,5,,,54,0
160296,note_on,96,0,1,,,,,,,,0,,,70,0
160296,note_on,0,0,6,,,,,,,,5,,,70,0
160296,note_on,96,0,2,,,,,,,,1,,,70,0
160296,note_on,96,0,3,,,,,,,,2,,,61,0
160296,note_on,96,0,5,,,,,,,,4,,,42,0
160296,note_on,96,0,6,,,,,,,,5,,,66,0
160320,note_on,0,0,6,,,,,,,,5,,,63,105
160320,note_on,24,0,5,,,,,,,,4,,,35,105
160320,note_on,24,0,4,,,,,,,,3,,,47,105
160320,note_on,0,0,6,,,,,,,,5,,,47,105
160320,note_on,24,0,1,,,,,,,,0,,,71,105
160320,note_on,24,0,6,,,,,,,,5,,,71,105
160320,note_on,24,0,2,,,,,,,,1,,,71,105
160320,note_on,24,0,3,,,,,,,,2,,,63,105
160416,note_on,96,0,1,,,,,,,,0,,,71,0
160416,note_on,96,0,4,,,,,,,,3,,,47,0
160416,note_on,96,0,5,,,,,,,,4,,,35,0
160416,note_on,0,0,6,,,,,,,,5,,,47,0
160416,note_on,96,0,3,,,,,,,,2,,,63,0
160416,note_on,0,0,6,,,,,,,,5,,,71,0
160416,note_on,96,0,6,,,,,,,,5,,,63,0
160416,note_on,96,0,2,,,,,,,,1,,,71,0
160440,note_on,24,0,2,,,,,,,,1,,,73,105
160440,note_on,24,0,4,,,,,,,,3,,,54,105
160440,note_on,0,0,6,,,,,,,,5,,,70,105
160440,note_on,24,0,3,,,,,,,,2,,,70,105
160440,note_on,24,0,1,,,,,,,,0,,,73,105
160440,note_on,24,0,5,,,,,,,,4,,,42,105
160440,note_on,24,0,6,,,,,,,,5,,,54,105
160440,note_on,0,0,6,,,,,,,,5,,,61,105
160536,note_on,96,0,3,,,,,,,,2,,,70,0
160536,note_on,96,0,1,,,,,,,,0,,,73,0
160536,note_on,96,0,4,,,,,,,,3,,,54,0
160536,note_on,96,0,5,,,,,,,,4,,,42,0
160536,note_on,0,0,6,,,,,,,,5,,,54,0
160536,note_on,0,0,6,,,,,,,,5,,,70,0
160536,note_on,96,0,6,,,,,,,,5,,,61,0
160536,note_on,96,0,2,,,,,,,,1,,,73,0
160560,note_on,24,0,3,,,,,,,,2,,,66,105
160560,note_on,24,0,4,,,,,,,,3,,,59,105
160560,note_on,0,0,6,,,,,,,,5,,,71,105
160560,note_on,0,0,6,,,,,,,,5,,,63,105
160560,note_on,24,0,2,,,,,,,,1,,,75,105
160560,note_on,24,0,6,,,,,,,,5,,,59,105
160560,note_on,24,0,5,,,,,,,,4,,,47,105
160560,note_on,24,0,1,,,,,,,,0,,,75,105
160656,note_on,0,0,6,,,,,,,,5,,,59,0
160656,note_on,96,0,2,,,,,,,,1,,,75,0
160656,note_on,96,0,3,,,,,,,,2,,,66,0
160656,note_on,96,0,6,,,,,,,,5,,,63,0
160656,note_on,0,0,6,,,,,,,,5,,,71,0
160656,note_on,96,0,4,,,,,,,,3,,,59,0
160656,note_on,96,0,5,,,,,,,,4,,,47,0
160656,note_on,96,0,1,,,,,,,,0,,,75,0
160680,note_on,24,0,6,,,,,,,,5,,,73,105
160680,note_on,24,0,5,,,,,,,,4,,,42,105
160680,note_on,24,0,1,,,,,,,,0,,,76,105
160680,note_on,0,0,6,,,,,,,,5,,,64,105
160680,note_on,24,0,3,,,,,,,,2,,,70,105
160680,note_on,0,0,6,,,,,,,,5,,,54,105
160680,note_on,24,0,2,,,,,,,,1,,,76,105
160680,note_on,24,0,4,,,,,,,,3,,,54,105
160776,note_on,96,0,3,,,,,,,,2,,,70,0
160776,note_on,96,0,5,,,,,,,,4,,,42,0
160776,note_on,96,0,2,,,,,,,,1,,,76,0
160776,note_on,96,0,6,,,,,,,,5,,,64,0
160776,note_on,0,0,6,,,,,,,,5,,,54,0
160776,note_on,0,0,6,,,,,,,,5,,,73,0
160776,note_on,96,0,1,,,,,,,,0,,,76,0
160776,note_on,96,0,4,,,,,,,,3,,,54,0
160800,note_on,24,0,4,,,,,,,,3,,,47,105
160800,note_on,24,0,1,,,,,,,,0,,,78,105
160800,note_on,24,0,5,,,,,,,,4,,,35,105
160800,note_on,0,0,6,,,,,,,,5,,,63,105
160800,note_on,24,0,6,,,,,,,,5,,,75,105
160800,note_on,24,0,2,,,,,,,,1,,,78,105
160800,note_on,24,0,3,,,,,,,,2,,,66,105
160800,note_on,0,0,6,,,,,,,,5,,,47,105
160896,note_on,96,0,3,,,,,,,,2,,,66,0
160896,note_on,96,0,4,,,,,,,,3,,,47,0
160896,note_on,96,0,1,,,,,,,,0,,,78,0
160896,note_on,0,0,6,,,,,,,,5,,,47,0
160896,note_on,0,0,6,,,,,,,,5,,,75,0
160896,note_on,96,0,5,,,,,,,,4,,,35,0
160896,note_on,96,0,6,,,,,,,,5,,,63,0
160896,note_on,96,0,2,,,,,,,,1,,,78,0
160920,note_on,24,0,5,,,,,,,,4,,,39,105
160920,note_on,24,0,1,,,,,,,,0,,,83,105
160920,note_on,0,0,6,,,,,,,,5,,,66,105
160920,note_on,24,0,2,,,,,,,,1,,,83,105
160920,note_on,24,0,6,,,,,,,,5,,,71,105
160920,note_on,0,0,6,,,,,,,,5,,,51,105
160920,note_on,24,0,4,,,,,,,,3,,,51,105
160920,note_on,24,0,3,,,,,,,,2,,,66,105
161016,note_on,96,0,5,,,,,,,,4,,,39,0
161016,note_on,96,0,4,,,,,,,,3,,,51,0
161016,note_on,0,0,6,,,,,,,,5,,,71,0
161016,note_on,0,0,6,,,,,,,,5,,,51,0
161016,note_on,96,0,6,,,,,,,,5,,,66,0
161016,note_on,96,0,3,,,,,,,,2,,,66,0
161040,note_on,24,0,5,,,,,,,,4,,,40,105
161040,note_on,0,0,6,,,,,,,,5,,,68,105
161040,note_on,24,0,4,,,,,,,,3,,,52,105
161040,note_on,24,0,6,,,,,,,,5,,,73,105
161040,note_on,0,0,6,,,,,,,,5,,,52,105
161040,note_on,24,0,3,,,,,,,,2,,,68,105
161112,note_on,192,0,1,,,,,,,,0,,,83,0
161112,note_on,192,0,2,,,,,,,,1,,,83,0
161136,note_on,96,0,3,,,,,,,,2,,,68,0
161136,note_on,96,0,5,,,,,,,,4,,,40,0
161136,note_on,0,0,6,,,,,,,,5,,,73,0
161136,note_on,0,0,6,,,,,,,,5,,,52,0
161136,note_on,96,0,4,,,,,,,,3,,,52,0
161136,note_on,96,0,6,,,,,,,,5,,,68,0
161160,note_on,24,0,5,,,,,,,,4,,,42,105
161160,note_on,24,0,6,,,,,,,,5,,,70,105
161160,note_on,0,0,6,,,,,,,,5,,,54,105
161160,note_on,48,0,1,,,,,,,,0,,,82,105
161160,note_on,48,0,2,,,,,,,,1,,,82,105
161160,note_on,24,0,4,,,,,,,,3,,,54,105
161160,note_on,24,0,3,,,,,,,,2,,,61,105
161160,note_on,0,0,6,,,,,,,,5,,,66,105
161208,note_on,48,0,1,,,,,,,,0,,,82,0
161208,note_on,48,0,2,,,,,,,,1,,,82,0
161220,note_on,12,0,1,,,,,,,,0,,,80,105
161220,note_on,12,0,2,,,,,,,,1,,,80,105
161256,note_on,96,0,5,,,,,,,,4,,,42,0
161256,note_on,96,0,4,,,,,,,,3,,,54,0
161256,note_on,0,0,6,,,,,,,,5,,,54,0
161256,note_on,0,0,6,,,,,,,,5,,,70,0
161256,note_on,96,0,6,,,,,,,,5,,,66,0
161256,note_on,96,0,3,,,,,,,,2,,,61,0
161268,note_on,48,0,1,,,,,,,,0,,,80,0
161268,note_on,48,0,2,,,,,,,,1,,,80,0
161280,note_on,0,0,6,,,,,,,,5,,,47,105
161280,note_on,24,0,4,,,,,,,,3,,,47,105
161280,note_on,12,0,1,,,,,,,,0,,,78,105
161280,note_on,24,0,6,,,,,,,,5,,,71,105
161280,note_on,24,0,5,,,,,,,,4,,,35,105
161280,note_on,24,0,3,,,,,,,,2,,,63,105
161280,note_on,0,0,6,,,,,,,,5,,,63,105
161280,note_on,12,0,2,,,,,,,,1,,,78,105
161376,note_on,96,0,1,,,,,,,,0,,,78,0
161376,note_on,96,0,4,,,,,,,,3,,,47,0
161376,note_on,96,0,3,,,,,,,,2,,,63,0
161376,note_on,96,0,5,,,,,,,,4,,,35,0
161376,note_on,0,0,6,,,,,,,,5,,,71,0
161376,note_on,96,0,6,,,,,,,,5,,,47,0
161376,note_on,96,0,2,,,,,,,,1,,,78,0
161400,note_on,24,0,2,,,,,,,,1,,,75,105
161400,note_on,0,0,6,,,,,,,,5,,,59,105
161400,note_on,24,0,4,,,,,,,,3,,,59,105
161400,note_on,24,0,6,,,,,,,,5,,,75,105
161400,note_on,24,0,1,,,,,,,,0,,,75,105
161400,note_on,24,0,5,,,,,,,,4,,,47,105
161400,note_on,24,0,3,,,,,,,,2,,,66,105
161472,note_on,72,0,6,,,,,,,,5,,,63,0
161496,note_on,96,0,3,,,,,,,,2,,,66,0
161496,note_on,0,0,6,,,,,,,,5,,,75,0
161496,note_on,96,0,4,,,,,,,,3,,,59,0
161496,note_on,96,0,1,,,,,,,,0,,,75,0
161496,note_on,96,0,2,,,,,,,,1,,,75,0
161496,note_on,24,0,6,,,,,,,,5,,,59,0
161496,note_on,96,0,5,,,,,,,,4,,,47,0
161520,note_on,24,0,6,,,,,,,,5,,,73,105
161520,note_on,0,0,6,,,,,,,,5,,,66,105
161520,note_on,24,0,1,,,,,,,,0,,,76,105
161520,note_on,24,0,3,,,,,,,,2,,,68,105
161520,note_on,24,0,4,,,,,,,,3,,,52,105
161520,note_on,24,0,2,,,,,,,,1,,,76,105
161520,note_on,24,0,5,,,,,,,,4,,,40,105
161520,note_on,0,0,6,,,,,,,,5,,,52,105
161616,note_on,96,0,6,,,,,,,,5,,,66,0
161616,note_on,96,0,4,,,,,,,,3,,,52,0
161616,note_on,96,0,1,,,,,,,,0,,,76,0
161616,note_on,0,0,6,,,,,,,,5,,,52,0
161616,note_on,96,0,3,,,,,,,,2,,,68,0
161616,note_on,96,0,2,,,,,,,,1,,,76,0
161616,note_on,96,0,5,,,,,,,,4,,,40,0
161616,note_on,0,0,6,,,,,,,,5,,,73,0
161640,note_on,24,0,3,,,,,,,,2,,,66,105
161640,note_on,24,0,2,,,,,,,,1,,,73,105
161640,note_on,24,0,1,,,,,,,,0,,,73,105
161640,note_on,0,0,6,,,,,,,,5,,,70,105
161640,note_on,0,0,6,,,,,,,,5,,,66,105
161640,note_on,24,0,4,,,,,,,,3,,,54,105
161640,note_on,24,0,6,,,,,,,,5,,,54,105
161640,note_on,24,0,5,,,,,,,,4,,,42,105
161736,note_on,96,0,3,,,,,,,,2,,,66,0
161736,note_on,96,0,2,,,,,,,,1,,,73,0
161736,note_on,0,0,6,,,,,,,,5,,,54,0
161736,note_on,0,0,6,,,,,,,,5,,,70,0
161736,note_on,96,0,6,,,,,,,,5,,,66,0
161736,note_on,96,0,1,,,,,,,,0,,,73,0
161736,note_on,96,0,5,,,,,,,,4,,,42,0
161736,note_on,96,0,4,,,,,,,,3,,,54,0
161760,note_on,24,0,5,,,,,,,,4,,,35,105
161760,note_on,24,0,4,,,,,,,,3,,,47,105
161760,note_on,24,0,2,,,,,,,,1,,,75,105
161760,note_on,24,0,6,,,,,,,,5,,,71,105
161760,note_on,0,0,6,,,,,,,,5,,,47,105
161760,note_on,24,0,3,,,,,,,,2,,,66,105
161760,note_on,24,0,1,,,,,,,,0,,,75,105
161760,note_on,0,0,6,,,,,,,,5,,,63,105
161856,note_on,96,0,2,,,,,,,,1,,,75,0
161856,note_on,96,0,1,,,,,,,,0,,,75,0
161856,note_on,96,0,3,,,,,,,,2,,,66,0
161856,note_on,0,0,6,,,,,,,,5,,,71,0
161856,note_on,96,0,4,,,,,,,,3,,,47,0
161856,note_on,96,0,5,,,,,,,,4,,,35,0
161856,note_on,96,0,6,,,,,,,,5,,,47,0
161880,note_on,24,0,2,,,,,,,,1,,,71,105
161880,note_on,24,0,1,,,,,,,,0,,,71,105
161880,note_on,24,0,3,,,,,,,,2,,,63,105
161880,note_on,24,0,5,,,,,,,,4,,,47,105
161880,note_on,0,0,6,,,,,,,,5,,,59,105
161880,note_on,24,0,6,,,,,,,,5,,,75,105
161880,note_on,24,0,4,,,,,,,,3,,,59,105
161952,note_on,72,0,6,,,,,,,,5,,,63,0
161976,note_on,96,0,3,,,,,,,,2,,,63,0
161976,note_on,24,0,6,,,,,,,,5,,,59,0
161976,note_on,96,0,4,,,,,,,,3,,,59,0
161976,note_on,0,0,6,,,,,,,,5,,,75,0
161976,note_on,96,0,5,,,,,,,,4,,,47,0
161976,note_on,96,0,1,,,,,,,,0,,,71,0
161976,note_on,96,0,2,,,,,,,,1,,,71,0
162000,note_on,24,0,5,,,,,,,,4,,,45,105
162000,note_on,0,0,6,,,,,,,,5,,,66,105
162000,note_on,24,0,2,,,,,,,,1,,,78,105
162000,note_on,24,0,1,,,,,,,,0,,,78,105
162000,note_on,24,0,3,,,,,,,,2,,,73,105
162000,note_on,24,0,4,,,,,,,,3,,,57,105
162000,note_on,24,0,6,,,,,,,,5,,,73,105
162000,note_on,0,0,6,,,,,,,,5,,,57,105
162048,note_on,48,0,1,,,,,,,,0,,,78,0
162048,note_on,48,0,2,,,,,,,,1,,,78,0
162060,note_on,12,0,2,,,,,,,,1,,,80,105
162060,note_on,12,0,1,,,,,,,,0,,,80,105
162096,note_on,96,0,4,,,,,,,,3,,,57,0
162096,note_on,96,0,3,,,,,,,,2,,,73,0
162096,note_on,96,0,6,,,,,,,,5,,,66,0
162096,note_on,0,0,6,,,,,,,,5,,,57,0
162096,note_on,96,0,5,,,,,,,,4,,,45,0
162108,note_on,48,0,1,,,,,,,,0,,,80,0
162108,note_on,48,0,2,,,,,,,,1,,,80,0
162120,note_on,12,0,2,,,,,,,,1,,,81,105
162120,note_on,24,0,3,,,,,,,,2,,,69,105
162120,note_on,0,0,6,,,,,,,,5,,,69,105
162120,note_on,24,0,4,,,,,,,,3,,,54,105
162120,note_on,24,0,6,,,,,,,,5,,,54,105
162120,note_on,12,0,1,,,,,,,,0,,,81,105
162120,note_on,24,0,5,,,,,,,,4,,,42,105
162168,note_on,48,0,2,,,,,,,,1,,,81,0
162168,note_on,48,0,1,,,,,,,,0,,,81,0
162180,note_on,12,0,2,,,,,,,,1,,,78,105
162180,note_on,12,0,1,,,,,,,,0,,,78,105
162192,note_on,72,0,6,,,,,,,,5,,,73,0
162216,note_on,96,0,4,,,,,,,,3,,,54,0
162216,note_on,24,0,6,,,,,,,,5,,,69,0
162216,note_on,0,0,6,,,,,,,,5,,,54,0
162216,note_on,96,0,5,,,,,,,,4,,,42,0
162216,note_on,96,0,3,,,,,,,,2,,,69,0
162228,note_on,48,0,1,,,,,,,,0,,,78,0
162228,note_on,48,0,2,,,,,,,,1,,,78,0
162240,note_on,24,0,6,,,,,,,,5,,,75,105
162240,note_on,0,0,6,,,,,,,,5,,,60,105
162240,note_on,24,0,5,,,,,,,,4,,,48,105
162240,note_on,24,0,4,,,,,,,,3,,,60,105
162240,note_on,0,0,6,,,,,,,,5,,,68,105
162240,note_on,12,0,1,,,,,,,,0,,,75,105
162240,note_on,12,0,2,,,,,,,,1,,,75,105
162240,note_on,24,0,3,,,,,,,,2,,,68,105
162336,note_on,96,0,4,,,,,,,,3,,,60,0
162336,note_on,96,0,5,,,,,,,,4,,,48,0
162336,note_on,96,0,6,,,,,,,,5,,,68,0
162336,note_on,0,0,6,,,,,,,,5,,,60,0
162360,note_on,24,0,4,,,,,,,,3,,,58,105
162360,note_on,24,0,5,,,,,,,,4,,,46,105
162360,note_on,0,0,6,,,,,,,,5,,,70,105
162360,note_on,24,0,6,,,,,,,,5,,,58,105
162432,note_on,192,0,1,,,,,,,,0,,,75,0
162432,note_on,192,0,2,,,,,,,,1,,,75,0
162456,note_on,96,0,6,,,,,,,,5,,,70,0
162456,note_on,0,0,6,,,,,,,,5,,,58,0
162456,note_on,96,0,5,,,,,,,,4,,,46,0
162456,note_on,96,0,4,,,,,,,,3,,,58,0
162480,note_on,0,0,6,,,,,,,,5,,,72,105
162480,note_on,24,0,6,,,,,,,,5,,,56,105
162480,note_on,24,0,4,,,,,,,,3,,,56,105
162480,note_on,48,0,2,,,,,,,,1,,,72,105
162480,note_on,24,0,5,,,,,,,,4,,,44,105
162480,note_on,48,0,1,,,,,,,,0,,,72,105
162528,note_on,288,0,3,,,,,,,,2,,,68,0
162576,note_on,96,0,4,,,,,,,,3,,,56,0
162576,note_on,96,0,2,,,,,,,,1,,,72,0
162576,note_on,96,0,1,,,,,,,,0,,,72,0
162576,note_on,96,0,5,,,,,,,,4,,,44,0
162576,note_on,0,0,6,,,,,,,,5,,,56,0
162576,note_on,96,0,6,,,,,,,,5,,,72,0
162600,note_on,72,0,3,,,,,,,,2,,,68,105
162600,note_on,24,0,1,,,,,,,,0,,,73,105
162600,note_on,24,0,6,,,,,,,,5,,,60,105
162600,note_on,0,0,6,,,,,,,,5,,,68,105
162600,note_on,24,0,2,,,,,,,,1,,,73,105
162600,note_on,24,0,5,,,,,,,,4,,,47,105
162600,note_on,24,0,4,,,,,,,,3,,,60,105
162624,note_on,24,0,6,,,,,,,,5,,,75,0
162648,note_on,48,0,2,,,,,,,,1,,,73,0
162648,note_on,48,0,1,,,,,,,,0,,,73,0
162660,note_on,12,0,1,,,,,,,,0,,,75,105
162660,note_on,12,0,2,,,,,,,,1,,,75,105
162696,note_on,96,0,5,,,,,,,,4,,,47,0
162696,note_on,96,0,3,,,,,,,,2,,,68,0
162696,note_on,0,0,6,,,,,,,,5,,,60,0
162696,note_on,72,0,6,,,,,,,,5,,,68,0
162696,note_on,96,0,4,,,,,,,,3,,,60,0
162708,note_on,48,0,2,,,,,,,,1,,,75,0
162708,note_on,48,0,1,,,,,,,,0,,,75,0
162720,note_on,24,0,4,,,,,,,,3,,,61,105
162720,note_on,12,0,1,,,,,,,,0,,,76,105
162720,note_on,24,0,3,,,,,,,,2,,,68,105
162720,note_on,24,0,5,,,,,,,,4,,,49,105
162720,note_on,12,0,2,,,,,,,,1,,,76,105
162720,note_on,0,0,6,,,,,,,,5,,,64,105
162720,note_on,0,0,6,,,,,,,,5,,,61,105
162720,note_on,24,0,6,,,,,,,,5,,,73,105
162816,note_on,96,0,5,,,,,,,,4,,,49,0
162816,note_on,96,0,1,,,,,,,,0,,,76,0
162816,note_on,96,0,6,,,,,,,,5,,,61,0
162816,note_on,96,0,2,,,,,,,,1,,,76,0
162816,note_on,96,0,4,,,,,,,,3,,,61,0
162840,note_on,24,0,1,,,,,,,,0,,,73,105
162840,note_on,24,0,6,,,,,,,,5,,,49,105
162840,note_on,24,0,2,,,,,,,,1,,,76,105
162840,note_on,24,0,5,,,,,,,,4,,,37,105
162840,note_on,24,0,4,,,,,,,,3,,,49,105
162888,note_on,48,0,2,,,,,,,,1,,,76,0
162888,note_on,48,0,1,,,,,,,,0,,,73,0
162900,note_on,12,0,2,,,,,,,,1,,,78,105
162900,note_on,12,0,1,,,,,,,,0,,,75,105
162912,note_on,72,0,6,,,,,,,,5,,,64,0
162912,note_on,0,0,6,,,,,,,,5,,,73,0
162912,note_on,192,0,3,,,,,,,,2,,,68,0
162936,note_on,96,0,5,,,,,,,,4,,,37,0
162936,note_on,96,0,4,,,,,,,,3,,,49,0
162936,note_on,24,0,6,,,,,,,,5,,,49,0
162948,note_on,48,0,2,,,,,,,,1,,,78,0
162948,note_on,48,0,1,,,,,,,,0,,,75,0
162960,note_on,24,0,6,,,,,,,,5,,,68,105
162960,note_on,12,0,1,,,,,,,,0,,,76,105
162960,note_on,12,0,2,,,,,,,,1,,,80,105
163080,note_on,168,0,3,,,,,,,,2,,,68,105
163080,note_on,144,0,4,,,,,,,,3,,,64,105
163080,note_on,120,0,6,,,,,,,,5,,,64,105
163080,note_on,144,0,5,,,,,,,,4,,,53,105
163080,note_on,0,0,6,,,,,,,,5,,,73,105
163128,note_on,48,0,3,,,,,,,,2,,,68,0
163128,note_on,0,0,6,,,,,,,,5,,,64,0
163128,note_on,48,0,4,,,,,,,,3,,,64,0
163128,note_on,48,0,6,,,,,,,,5,,,73,0
163128,note_on,48,0,5,,,,,,,,4,,,53,0
163140,note_on,12,0,5,,,,,,,,4,,,50,105
163140,note_on,12,0,6,,,,,,,,5,,,75,105
163140,note_on,0,0,6,,,,,,,,5,,,63,105
163140,note_on,12,0,4,,,,,,,,3,,,63,105
163140,note_on,12,0,3,,,,,,,,2,,,66,105
163188,note_on,48,0,4,,,,,,,,3,,,63,0
163188,note_on,0,0,6,,,,,,,,5,,,75,0
163188,note_on,48,0,6,,,,,,,,5,,,63,0
163188,note_on,48,0,5,,,,,,,,4,,,50,0
163188,note_on,48,0,3,,,,,,,,2,,,66,0
163200,note_on,12,0,5,,,,,,,,4,,,49,105
163200,note_on,12,0,6,,,,,,,,5,,,61,105
163200,note_on,12,0,4,,,,,,,,3,,,61,105
163200,note_on,0,0,6,,,,,,,,5,,,76,105
163200,note_on,12,0,3,,,,,,,,2,,,64,105
163296,note_on,336,0,2,,,,,,,,1,,,80,0
163296,note_on,96,0,6,,,,,,,,5,,,61,0
163296,note_on,336,0,1,,,,,,,,0,,,76,0
163296,note_on,96,0,5,,,,,,,,4,,,49,0
163296,note_on,96,0,4,,,,,,,,3,,,61,0
163320,note_on,24,0,2,,,,,,,,1,,,76,105
163320,note_on,24,0,6,,,,,,,,5,,,49,105
163320,note_on,24,0,1,,,,,,,,0,,,73,105
163320,note_on,24,0,5,,,,,,,,4,,,37,105
163320,note_on,24,0,4,,,,,,,,3,,,49,105
163368,note_on,48,0,1,,,,,,,,0,,,73,0
163368,note_on,48,0,2,,,,,,,,1,,,76,0
163380,note_on,12,0,1,,,,,,,,0,,,75,105
163380,note_on,12,0,2,,,,,,,,1,,,78,105
163392,note_on,72,0,6,,,,,,,,5,,,76,0
163392,note_on,0,0,6,,,,,,,,5,,,68,0
163392,note_on,192,0,3,,,,,,,,2,,,64,0
163416,note_on,96,0,4,,,,,,,,3,,,49,0
163416,note_on,24,0,6,,,,,,,,5,,,49,0
163416,note_on,96,0,5,,,,,,,,4,,,37,0
163428,note_on,48,0,1,,,,,,,,0,,,75,0
163428,note_on,48,0,2,,,,,,,,1,,,78,0
163440,note_on,12,0,1,,,,,,,,0,,,76,105
163440,note_on,12,0,2,,,,,,,,1,,,80,105
163536,note_on,96,0,2,,,,,,,,1,,,80,0
163536,note_on,96,0,1,,,,,,,,0,,,76,0
163560,note_on,0,0,6,,,,,,,,5,,,73,105
163560,note_on,0,0,6,,,,,,,,5,,,64,105
163560,note_on,144,0,6,,,,,,,,5,,,61,105
163560,note_on,24,0,1,,,,,,,,0,,,76,105
163560,note_on,144,0,4,,,,,,,,3,,,61,105
163560,note_on,168,0,3,,,,,,,,2,,,68,105
163560,note_on,24,0,2,,,,,,,,1,,,73,105
163560,note_on,144,0,5,,,,,,,,4,,,49,105
163608,note_on,48,0,2,,,,,,,,1,,,73,0
163608,note_on,48,0,6,,,,,,,,5,,,73,0
163608,note_on,48,0,1,,,,,,,,0,,,76,0
163620,note_on,12,0,1,,,,,,,,0,,,78,105
163620,note_on,12,0,2,,,,,,,,1,,,75,105
163620,note_on,12,0,6,,,,,,,,5,,,75,105
163656,note_on,96,0,4,,,,,,,,3,,,61,0
163656,note_on,96,0,5,,,,,,,,4,,,49,0
163656,note_on,36,0,6,,,,,,,,5,,,61,0
163656,note_on,96,0,3,,,,,,,,2,,,68,0
163668,note_on,48,0,2,,,,,,,,1,,,75,0
163668,note_on,48,0,1,,,,,,,,0,,,78,0
163668,note_on,12,0,6,,,,,,,,5,,,75,0
163680,note_on,24,0,3,,,,,,,,2,,,64,105
163680,note_on,12,0,2,,,,,,,,1,,,76,105
163680,note_on,24,0,5,,,,,,,,4,,,49,105
163680,note_on,0,0,6,,,,,,,,5,,,76,105
163680,note_on,12,0,6,,,,,,,,5,,,61,105
163680,note_on,24,0,4,,,,,,,,3,,,61,105
163680,note_on,12,0,1,,,,,,,,0,,,80,105
163728,note_on,48,0,1,,,,,,,,0,,,80,0
163728,note_on,48,0,2,,,,,,,,1,,,76,0
163740,note_on,12,0,1,,,,,,,,0,,,80,105
163740,note_on,12,0,2,,,,,,,,1,,,80,105
163776,note_on,96,0,3,,,,,,,,2,,,64,0
163776,note_on,96,0,4,,,,,,,,3,,,61,0
163776,note_on,96,0,5,,,,,,,,4,,,49,0
163776,note_on,0,0,6,,,,,,,,5,,,64,0
163776,note_on,96,0,6,,,,,,,,5,,,61,0
163788,note_on,48,0,1,,,,,,,,0,,,80,0
163788,note_on,48,0,2,,,,,,,,1,,,80,0
163800,note_on,12,0,1,,,,,,,,0,,,76,105
163800,note_on,12,0,2,,,,,,,,1,,,76,105
163800,note_on,24,0,6,,,,,,,,5,,,49,105
163800,note_on,24,0,3,,,,,,,,2,,,64,105
163800,note_on,24,0,5,,,,,,,,4,,,37,105
163800,note_on,0,0,6,,,,,,,,5,,,68,105
163800,note_on,24,0,4,,,,,,,,3,,,49,105
163848,note_on,48,0,2,,,,,,,,1,,,76,0
163848,note_on,48,0,1,,,,,,,,0,,,76,0
163860,note_on,12,0,2,,,,,,,,1,,,73,105
163860,note_on,12,0,1,,,,,,,,0,,,73,105
163896,note_on,96,0,5,,,,,,,,4,,,37,0
163896,note_on,0,0,6,,,,,,,,5,,,49,0
163896,note_on,96,0,6,,,,,,,,5,,,68,0
163896,note_on,96,0,4,,,,,,,,3,,,49,0
163896,note_on,96,0,3,,,,,,,,2,,,64,0
163908,note_on,48,0,1,,,,,,,,0,,,73,0
163908,note_on,48,0,2,,,,,,,,1,,,73,0
163920,note_on,0,0,6,,,,,,,,5,,,73,105
163920,note_on,24,0,5,,,,,,,,4,,,37,105
163920,note_on,24,0,4,,,,,,,,3,,,49,105
163920,note_on,12,0,1,,,,,,,,0,,,68,105
163920,note_on,24,0,3,,,,,,,,2,,,64,105
163920,note_on,12,0,2,,,,,,,,1,,,68,105
163920,note_on,24,0,6,,,,,,,,5,,,49,105
164016,note_on,96,0,3,,,,,,,,2,,,64,0
164016,note_on,96,0,5,,,,,,,,4,,,37,0
164016,note_on,96,0,6,,,,,,,,5,,,49,0
164016,note_on,96,0,4,,,,,,,,3,,,49,0
164040,note_on,24,0,3,,,,,,,,2,,,64,105
164040,note_on,24,0,6,,,,,,,,5,,,49,105
164040,note_on,24,0,4,,,,,,,,3,,,49,105
164040,note_on,24,0,5,,,,,,,,4,,,37,105
164064,note_on,24,0,6,,,,,,,,5,,,76,0
164112,note_on,192,0,1,,,,,,,,0,,,68,0
164112,note_on,192,0,2,,,,,,,,1,,,68,0
164112,note_on,48,0,6,,,,,,,,5,,,73,0
164136,note_on,96,0,5,,,,,,,,4,,,37,0
164136,note_on,96,0,4,,,,,,,,3,,,49,0
164136,note_on,24,0,6,,,,,,,,5,,,49,0
164136,note_on,96,0,3,,,,,,,,2,,,64,0
164160,note_on,0,0,6,,,,,,,,5,,,69,105
164160,note_on,24,0,4,,,,,,,,3,,,48,105
164160,note_on,24,0,6,,,,,,,,5,,,48,105
164160,note_on,24,0,5,,,,,,,,4,,,36,105
164160,note_on,24,0,3,,,,,,,,2,,,66,105
164160,note_on,48,0,2,,,,,,,,1,,,69,105
164160,note_on,48,0,1,,,,,,,,0,,,69,105
164160,note_on,0,0,6,,,,,,,,5,,,78,105
164256,note_on,96,0,3,,,,,,,,2,,,66,0
164256,note_on,96,0,5,,,,,,,,4,,,36,0
164256,note_on,0,0,6,,,,,,,,5,,,48,0
164256,note_on,96,0,6,,,,,,,,5,,,78,0
164256,note_on,96,0,4,,,,,,,,3,,,48,0
164280,note_on,0,0,6,,,,,,,,5,,,48,105
164280,note_on,24,0,6,,,,,,,,5,,,75,105
164280,note_on,24,0,3,,,,,,,,2,,,66,105
164280,note_on,24,0,4,,,,,,,,3,,,48,105
164280,note_on,24,0,5,,,,,,,,4,,,36,105
164352,note_on,192,0,2,,,,,,,,1,,,69,0
164352,note_on,72,0,6,,,,,,,,5,,,69,0
164352,note_on,192,0,1,,,,,,,,0,,,69,0
164376,note_on,24,0,6,,,,,,,,5,,,48,0
164376,note_on,96,0,4,,,,,,,,3,,,48,0
164376,note_on,96,0,5,,,,,,,,4,,,36,0
164376,note_on,96,0,3,,,,,,,,2,,,66,0
164376,note_on,0,0,6,,,,,,,,5,,,75,0
164400,note_on,24,0,5,,,,,,,,4,,,37,105
164400,note_on,24,0,6,,,,,,,,5,,,49,105
164400,note_on,24,0,3,,,,,,,,2,,,64,105
164400,note_on,0,0,6,,,,,,,,5,,,76,105
164400,note_on,0,0,6,,,,,,,,5,,,68,105
164400,note_on,48,0,1,,,,,,,,0,,,68,105
164400,note_on,24,0,4,,,,,,,,3,,,49,105
164400,note_on,48,0,2,,,,,,,,1,,,68,105
164496,note_on,96,0,4,,,,,,,,3,,,49,0
164496,note_on,96,0,2,,,,,,,,1,,,68,0
164496,note_on,96,0,1,,,,,,,,0,,,68,0
164496,note_on,96,0,6,,,,,,,,5,,,76,0
164496,note_on,0,0,6,,,,,,,,5,,,49,0
164496,note_on,96,0,3,,,,,,,,2,,,64,0
164496,note_on,96,0,5,,,,,,,,4,,,37,0
164520,note_on,24,0,5,,,,,,,,4,,,32,105
164520,note_on,24,0,4,,,,,,,,3,,,44,105
164520,note_on,24,0,2,,,,,,,,1,,,78,105
164520,note_on,24,0,1,,,,,,,,0,,,78,105
164520,note_on,24,0,6,,,,,,,,5,,,75,105
164520,note_on,0,0,6,,,,,,,,5,,,44,105
164520,note_on,24,0,3,,,,,,,,2,,,72,105
164592,note_on,72,0,6,,,,,,,,5,,,68,0
164616,note_on,24,0,6,,,,,,,,5,,,44,0
164616,note_on,0,0,6,,,,,,,,5,,,75,0
164616,note_on,96,0,5,,,,,,,,4,,,32,0
164616,note_on,96,0,2,,,,,,,,1,,,78,0
164616,note_on,96,0,3,,,,,,,,2,,,72,0
164616,note_on,96,0,1,,,,,,,,0,,,78,0
164616,note_on,96,0,4,,,,,,,,3,,,44,0
164640,note_on,24,0,3,,,,,,,,2,,,68,105
164640,note_on,24,0,1,,,,,,,,0,,,76,105
164640,note_on,24,0,5,,,,,,,,4,,,37,105
164640,note_on,24,0,2,,,,,,,,1,,,76,105
164640,note_on,24,0,4,,,,,,,,3,,,49,105
164640,note_on,24,0,6,,,,,,,,5,,,49,105
164640,note_on,0,0,6,,,,,,,,5,,,73,105
164640,note_on,0,0,6,,,,,,,,5,,,64,105
164736,note_on,96,0,2,,,,,,,,1,,,76,0
164736,note_on,96,0,4,,,,,,,,3,,,49,0
164736,note_on,96,0,5,,,,,,,,4,,,37,0
164736,note_on,0,0,6,,,,,,,,5,,,49,0
164736,note_on,96,0,6,,,,,,,,5,,,73,0
164736,note_on,96,0,1,,,,,,,,0,,,76,0
164736,note_on,96,0,3,,,,,,,,2,,,68,0
164760,note_on,24,0,1,,,,,,,,0,,,75,105
164760,note_on,24,0,4,,,,,,,,3,,,61,105
164760,note_on,24,0,6,,,,,,,,5,,,61,105
164760,note_on,24,0,2,,,,,,,,1,,,75,105
164760,note_on,24,0,3,,,,,,,,2,,,68,105
164760,note_on,0,0,6,,,,,,,,5,,,76,105
164760,note_on,24,0,5,,,,,,,,4,,,49,105
164808,note_on,48,0,1,,,,,,,,0,,,75,0
164808,note_on,48,0,2,,,,,,,,1,,,75,0
164820,note_on,12,0,1,,,,,,,,0,,,73,105
164820,note_on,12,0,2,,,,,,,,1,,,73,105
164832,note_on,72,0,6,,,,,,,,5,,,64,0
164856,note_on,96,0,5,,,,,,,,4,,,49,0
164856,note_on,96,0,4,,,,,,,,3,,,61,0
164856,note_on,24,0,6,,,,,,,,5,,,76,0
164856,note_on,96,0,3,,,,,,,,2,,,68,0
164856,note_on,0,0,6,,,,,,,,5,,,61,0
164868,note_on,48,0,2,,,,,,,,1,,,73,0
164868,note_on,48,0,1,,,,,,,,0,,,73,0
164880,note_on,24,0,4,,,,,,,,3,,,54,105
164880,note_on,12,0,1,,,,,,,,0,,,75,105
164880,note_on,12,0,2,,,,,,,,1,,,75,105
164880,note_on,0,0,6,,,,,,,,5,,,75,105
164880,note_on,24,0,5,,,,,,,,4,,,42,105
164880,note_on,24,0,6,,,,,,,,5,,,54,105
164880,note_on,0,0,6,,,,,,,,5,,,69,105
164880,note_on,24,0,3,,,,,,,,2,,,69,105
164976,note_on,96,0,5,,,,,,,,4,,,42,0
164976,note_on,96,0,2,,,,,,,,1,,,75,0
164976,note_on,96,0,4,,,,,,,,3,,,54,0
164976,note_on,96,0,6,,,,,,,,5,,,69,0
164976,note_on,0,0,6,,,,,,,,5,,,75,0
164976,note_on,0,0,6,,,,,,,,5,,,54,0
164976,note_on,96,0,3,,,,,,,,2,,,69,0
164976,note_on,96,0,1,,,,,,,,0,,,75,0
165000,note_on,24,0,2,,,,,,,,1,,,72,105
165000,note_on,24,0,6,,,,,,,,5,,,72,105
165000,note_on,0,0,6,,,,,,,,5,,,56,105
165000,note_on,0,0,6,,,,,,,,5,,,68,105
165000,note_on,24,0,1,,,,,,,,0,,,72,105
165000,note_on,24,0,4,,,,,,,,3,,,56,105
165000,note_on,24,0,5,,,,,,,,4,,,44,105
165000,note_on,24,0,3,,,,,,,,2,,,68,105
165096,note_on,96,0,5,,,,,,,,4,,,44,0
165096,note_on,96,0,2,,,,,,,,1,,,72,0
165096,note_on,96,0,6,,,,,,,,5,,,68,0
165096,note_on,0,0,6,,,,,,,,5,,,56,0
165096,note_on,0,0,6,,,,,,,,5,,,72,0
165096,note_on,96,0,4,,,,,,,,3,,,56,0
165096,note_on,96,0,3,,,,,,,,2,,,68,0
165096,note_on,96,0,1,,,,,,,,0,,,72,0
165120,note_on,24,0,2,,,,,,,,1,,,73,72
165120,note_on,24,0,5,,,,,,,,4,,,37,72
165120,note_on,0,0,6,,,,,,,,5,,,64,72
165120,note_on,24,0,3,,,,,,,,2,,,64,72
165120,note_on,24,0,1,,,,,,,,0,,,73,72
165120,note_on,24,0,4,,,,,,,,3,,,49,72
165120,note_on,0,0,6,,,,,,,,5,,,73,72
165120,note_on,24,0,6,,,,,,,,5,,,49,72
165168,note_on,48,0,2,,,,,,,,1,,,73,0
165168,note_on,48,0,1,,,,,,,,0,,,73,0
165180,note_on,12,0,1,,,,,,,,0,,,80,72
165180,note_on,12,0,2,,,,,,,,1,,,80,72
165216,note_on,96,0,3,,,,,,,,2,,,64,0
165216,note_on,96,0,5,,,,,,,,4,,,37,0
165216,note_on,96,0,6,,,,,,,,5,,,64,0
165216,note_on,96,0,4,,,,,,,,3,,,49,0
165216,note_on,0,0,6,,,,,,,,5,,,49,0
165228,note_on,48,0,1,,,,,,,,0,,,80,0
165228,note_on,48,0,2,,,,,,,,1,,,80,0
165240,note_on,0,0,6,,,,,,,,5,,,68,72
165240,note_on,24,0,6,,,,,,,,5,,,49,72
165240,note_on,24,0,5,,,,,,,,4,,,37,72
165240,note_on,12,0,2,,,,,,,,1,,,76,72
165240,note_on,12,0,1,,,,,,,,0,,,76,72
165240,note_on,24,0,4,,,,,,,,3,,,49,72
165240,note_on,24,0,3,,,,,,,,2,,,64,72
165288,note_on,48,0,2,,,,,,,,1,,,76,0
165288,note_on,48,0,1,,,,,,,,0,,,76,0
165300,note_on,12,0,2,,,,,,,,1,,,73,72
165300,note_on,12,0,1,,,,,,,,0,,,73,72
165312,note_on,72,0,6,,,,,,,,5,,,73,0
165336,note_on,24,0,6,,,,,,,,5,,,49,0
165336,note_on,96,0,4,,,,,,,,3,,,49,0
165336,note_on,96,0,5,,,,,,,,4,,,37,0
165336,note_on,96,0,3,,,,,,,,2,,,64,0
165348,note_on,48,0,1,,,,,,,,0,,,73,0
165348,note_on,48,0,2,,,,,,,,1,,,73,0
165360,note_on,12,0,2,,,,,,,,1,,,68,72
165360,note_on,24,0,5,,,,,,,,4,,,37,72
165360,note_on,24,0,3,,,,,,,,2,,,64,72
165360,note_on,24,0,6,,,,,,,,5,,,49,72
165360,note_on,24,0,4,,,,,,,,3,,,49,72
165360,note_on,12,0,1,,,,,,,,0,,,68,72
165360,note_on,0,0,6,,,,,,,,5,,,76,72
165456,note_on,96,0,5,,,,,,,,4,,,37,0
165456,note_on,96,0,6,,,,,,,,5,,,49,0
165456,note_on,96,0,4,,,,,,,,3,,,49,0
165456,note_on,0,0,6,,,,,,,,5,,,68,0
165456,note_on,96,0,3,,,,,,,,2,,,64,0
165480,note_on,24,0,5,,,,,,,,4,,,37,72
165480,note_on,0,0,6,,,,,,,,5,,,73,72
165480,note_on,24,0,6,,,,,,,,5,,,49,72
165480,note_on,24,0,3,,,,,,,,2,,,64,72
165480,note_on,24,0,4,,,,,,,,3,,,49,72
165552,note_on,192,0,1,,,,,,,,0,,,68,0
165552,note_on,72,0,6,,,,,,,,5,,,76,0
165552,note_on,192,0,2,,,,,,,,1,,,68,0
165576,note_on,96,0,3,,,,,,,,2,,,64,0
165576,note_on,96,0,5,,,,,,,,4,,,37,0
165576,note_on,0,0,6,,,,,,,,5,,,49,0
165576,note_on,24,0,6,,,,,,,,5,,,73,0
165576,note_on,96,0,4,,,,,,,,3,,,49,0
165600,note_on,0,0,6,,,,,,,,5,,,78,72
165600,note_on,24,0,6,,,,,,,,5,,,48,72
165600,note_on,0,0,6,,,,,,,,5,,,69,72
165600,note_on,48,0,2,,,,,,,,1,,,69,72
165600,note_on,24,0,5,,,,,,,,4,,,36,72
165600,note_on,24,0,3,,,,,,,,2,,,66,72
165600,note_on,48,0,1,,,,,,,,0,,,69,72
165600,note_on,24,0,4,,,,,,,,3,,,48,72
165696,note_on,0,0,6,,,,,,,,5,,,48,0
165696,note_on,96,0,6,,,,,,,,5,,,69,0
165696,note_on,96,0,3,,,,,,,,2,,,66,0
165696,note_on,96,0,4,,,,,,,,3,,,48,0
165696,note_on,96,0,5,,,,,,,,4,,,36,0
165720,note_on,0,0,6,,,,,,,,5,,,75,72
165720,note_on,24,0,6,,,,,,,,5,,,48,72
165720,note_on,24,0,4,,,,,,,,3,,,48,72
165720,note_on,24,0,3,,,,,,,,2,,,66,72
165720,note_on,24,0,5,,,,,,,,4,,,36,72
165792,note_on,192,0,1,,,,,,,,0,,,69,0
165792,note_on,192,0,2,,,,,,,,1,,,69,0
165792,note_on,72,0,6,,,,,,,,5,,,78,0
165816,note_on,96,0,4,,,,,,,,3,,,48,0
165816,note_on,96,0,5,,,,,,,,4,,,36,0
165816,note_on,96,0,3,,,,,,,,2,,,66,0
165816,note_on,24,0,6,,,,,,,,5,,,75,0
165816,note_on,0,0,6,,,,,,,,5,,,48,0
165840,note_on,48,0,2,,,,,,,,1,,,68,72
165840,note_on,24,0,3,,,,,,,,2,,,64,72
165840,note_on,24,0,6,,,,,,,,5,,,49,72
165840,note_on,48,0,1,,,,,,,,0,,,68,72
165840,note_on,0,0,6,,,,,,,,5,,,76,72
165840,note_on,24,0,5,,,,,,,,4,,,37,72
165840,note_on,24,0,4,,,,,,,,3,,,49,72
165840,note_on,0,0,6,,,,,,,,5,,,68,72
165936,note_on,96,0,3,,,,,,,,2,,,64,0
165936,note_on,96,0,1,,,,,,,,0,,,68,0
165936,note_on,96,0,2,,,,,,,,1,,,68,0
165936,note_on,96,0,5,,,,,,,,4,,,37,0
165936,note_on,96,0,6,,,,,,,,5,,,76,0
165936,note_on,96,0,4,,,,,,,,3,,,49,0
165936,note_on,0,0,6,,,,,,,,5,,,49,0
165936,note_on,0,0,6,,,,,,,,5,,,68,0
165960,note_on,24,0,5,,,,,,,,4,,,32,72
165960,note_on,24,0,2,,,,,,,,1,,,78,72
165960,note_on,0,0,6,,,,,,,,5,,,75,72
165960,note_on,0,0,6,,,,,,,,5,,,44,72
165960,note_on,24,0,6,,,,,,,,5,,,72,72
165960,note_on,24,0,1,,,,,,,,0,,,78,72
165960,note_on,24,0,3,,,,,,,,2,,,72,72
165960,note_on,24,0,4,,,,,,,,3,,,44,72
166056,note_on,96,0,2,,,,,,,,1,,,78,0
166056,note_on,96,0,5,,,,,,,,4,,,32,0
166056,note_on,0,0,6,,,,,,,,5,,,44,0
166056,note_on,0,0,6,,,,,,,,5,,,72,0
166056,note_on,96,0,3,,,,,,,,2,,,72,0
166056,note_on,96,0,1,,,,,,,,0,,,78,0
166056,note_on,96,0,4,,,,,,,,3,,,44,0
166056,note_on,96,0,6,,,,,,,,5,,,75,0
166080,note_on,24,0,5,,,,,,,,4,,,37,72
166080,note_on,24,0,6,,,,,,,,5,,,73,72
166080,note_on,0,0,6,,,,,,,,5,,,49,72
166080,note_on,0,0,6,,,,,,,,5,,,73,72
166080,note_on,24,0,2,,,,,,,,1,,,76,72
166080,note_on,24,0,3,,,,,,,,2,,,68,72
166080,note_on,24,0,1,,,,,,,,0,,,76,72
166080,note_on,24,0,4,,,,,,,,3,,,49,72
166176,note_on,96,0,4,,,,,,,,3,,,49,0
166176,note_on,96,0,5,,,,,,,,4,,,37,0
166176,note_on,96,0,1,,,,,,,,0,,,76,0
166176,note_on,0,0,6,,,,,,,,5,,,49,0
166176,note_on,96,0,2,,,,,,,,1,,,76,0
166176,note_on,96,0,6,,,,,,,,5,,,73,0
166176,note_on,0,0,6,,,,,,,,5,,,73,0
166176,note_on,96,0,3,,,,,,,,2,,,68,0
166200,note_on,24,0,3,,,,,,,,2,,,68,72
166200,note_on,24,0,2,,,,,,,,1,,,75,72
166200,note_on,24,0,5,,,,,,,,4,,,49,72
166200,note_on,0,0,6,,,,,,,,5,,,64,72
166200,note_on,0,0,6,,,,,,,,5,,,76,72
166200,note_on,24,0,6,,,,,,,,5,,,61,72
166200,note_on,24,0,1,,,,,,,,0,,,75,72
166200,note_on,24,0,4,,,,,,,,3,,,61,72
166248,note_on,48,0,2,,,,,,,,1,,,75,0
166248,note_on,48,0,1,,,,,,,,0,,,75,0
166260,note_on,12,0,1,,,,,,,,0,,,73,72
166260,note_on,12,0,2,,,,,,,,1,,,73,72
166296,note_on,0,0,6,,,,,,,,5,,,76,0
166296,note_on,96,0,4,,,,,,,,3,,,61,0
166296,note_on,0,0,6,,,,,,,,5,,,61,0
166296,note_on,96,0,3,,,,,,,,2,,,68,0
166296,note_on,96,0,5,,,,,,,,4,,,49,0
166296,note_on,96,0,6,,,,,,,,5,,,64,0
166308,note_on,48,0,2,,,,,,,,1,,,73,0
166308,note_on,48,0,1,,,,,,,,0,,,73,0
166320,note_on,24,0,3,,,,,,,,2,,,69,72
166320,note_on,12,0,2,,,,,,,,1,,,75,72
166320,note_on,0,0,6,,,,,,,,5,,,66,72
166320,note_on,24,0,6,,,,,,,,5,,,54,72
166320,note_on,12,0,1,,,,,,,,0,,,75,72
166320,note_on,24,0,4,,,,,,,,3,,,54,72
166320,note_on,24,0,5,,,,,,,,4,,,42,72
166320,note_on,0,0,6,,,,,,,,5,,,75,72
166416,note_on,0,0,6,,,,,,,,5,,,66,0
166416,note_on,96,0,6,,,,,,,,5,,,75,0
166416,note_on,96,0,4,,,,,,,,3,,,54,0
166416,note_on,96,0,1,,,,,,,,0,,,75,0
166416,note_on,0,0,6,,,,,,,,5,,,54,0
166416,note_on,96,0,5,,,,,,,,4,,,42,0
166416,note_on,96,0,2,,,,,,,,1,,,75,0
166416,note_on,96,0,3,,,,,,,,2,,,69,0
166440,note_on,0,0,6,,,,,,,,5,,,63,72
166440,note_on,0,0,6,,,,,,,,5,,,72,72
166440,note_on,24,0,6,,,,,,,,5,,,56,72
166440,note_on,24,0,2,,,,,,,,1,,,72,72
166440,note_on,24,0,1,,,,,,,,0,,,72,72
166440,note_on,24,0,4,,,,,,,,3,,,56,72
166440,note_on,24,0,5,,,,,,,,4,,,44,72
166440,note_on,24,0,3,,,,,,,,2,,,68,72
166536,note_on,96,0,3,,,,,,,,2,,,68,0
166536,note_on,96,0,1,,,,,,,,0,,,72,0
166536,note_on,0,0,6,,,,,,,,5,,,72,0
166536,note_on,96,0,4,,,,,,,,3,,,56,0
166536,note_on,96,0,2,,,,,,,,1,,,72,0
166536,note_on,96,0,5,,,,,,,,4,,,44,0
166536,note_on,96,0,6,,,,,,,,5,,,63,0
166536,note_on,0,0,6,,,,,,,,5,,,56,0
166560,note_on,0,0,6,,,,,,,,5,,,64,72
166560,note_on,24,0,3,,,,,,,,2,,,64,72
166560,note_on,24,0,4,,,,,,,,3,,,49,72
166560,note_on,0,0,6,,,,,,,,5,,,49,72
166560,note_on,24,0,2,,,,,,,,1,,,73,72
166560,note_on,24,0,1,,,,,,,,0,,,73,72
166560,note_on,24,0,6,,,,,,,,5,,,73,72
166560,note_on,24,0,5,,,,,,,,4,,,37,72
166656,note_on,96,0,6,,,,,,,,5,,,64,0
166656,note_on,0,0,6,,,,,,,,5,,,49,0
166656,note_on,0,0,6,,,,,,,,5,,,73,0
166656,note_on,96,0,4,,,,,,,,3,,,49,0
166656,note_on,96,0,5,,,,,,,,4,,,37,0
166680,note_on,24,0,4,,,,,,,,3,,,57,72
166680,note_on,24,0,6,,,,,,,,5,,,57,72
166680,note_on,24,0,5,,,,,,,,4,,,45,72
166752,note_on,192,0,3,,,,,,,,2,,,64,0
166752,note_on,192,0,2,,,,,,,,1,,,73,0
166752,note_on,192,0,1,,,,,,,,0,,,73,0
166776,note_on,96,0,4,,,,,,,,3,,,57,0
166776,note_on,96,0,6,,,,,,,,5,,,57,0
166776,note_on,96,0,5,,,,,,,,4,,,45,0
166800,note_on,24,0,6,,,,,,,,5,,,56,72
166800,note_on,24,0,4,,,,,,,,3,,,56,72
166800,note_on,24,0,5,,,,,,,,4,,,44,72
166896,note_on,96,0,6,,,,,,,,5,,,56,0
166896,note_on,96,0,4,,,,,,,,3,,,56,0
166896,note_on,96,0,5,,,,,,,,4,,,44,0
166920,note_on,168,0,1,,,,,,,,0,,,69,105
166920,note_on,24,0,4,,,,,,,,3,,,52,72
166920,note_on,24,0,6,,,,,,,,5,,,52,72
166920,note_on,168,0,2,,,,,,,,1,,,69,105
166920,note_on,168,0,3,,,,,,,,2,,,64,105
166920,note_on,24,0,5,,,,,,,,4,,,40,105
166968,note_on,48,0,2,,,,,,,,1,,,69,0
166968,note_on,48,0,1,,,,,,,,0,,,69,0
166980,note_on,12,0,2,,,,,,,,1,,,68,105
166980,note_on,12,0,1,,,,,,,,0,,,68,105
167016,note_on,96,0,3,,,,,,,,2,,,64,0
167016,note_on,96,0,5,,,,,,,,4,,,40,0
167016,note_on,96,0,6,,,,,,,,5,,,52,0
167016,note_on,96,0,4,,,,,,,,3,,,52,0
167028,note_on,48,0,2,,,,,,,,1,,,68,0
167028,note_on,48,0,1,,,,,,,,0,,,68,0
167040,note_on,0,0,6,,,,,,,,5,,,45,105
167040,note_on,24,0,5,,,,,,,,4,,,33,105
167040,note_on,24,0,6,,,,,,,,5,,,73,105
167040,note_on,12,0,2,,,,,,,,1,,,69,105
167040,note_on,12,0,1,,,,,,,,0,,,69,105
167040,note_on,0,0,6,,,,,,,,5,,,69,105
167040,note_on,24,0,3,,,,,,,,2,,,64,105
167040,note_on,24,0,4,,,,,,,,3,,,45,72
167136,note_on,0,0,6,,,,,,,,5,,,73,0
167136,note_on,96,0,5,,,,,,,,4,,,33,0
167136,note_on,96,0,1,,,,,,,,0,,,69,0
167136,note_on,96,0,4,,,,,,,,3,,,45,0
167136,note_on,96,0,3,,,,,,,,2,,,64,0
167136,note_on,96,0,6,,,,,,,,5,,,69,0
167136,note_on,0,0,6,,,,,,,,5,,,45,0
167136,note_on,96,0,2,,,,,,,,1,,,69,0
167160,note_on,24,0,4,,,,,,,,3,,,52,72
167160,note_on,24,0,1,,,,,,,,0,,,71,105
167160,note_on,24,0,6,,,,,,,,5,,,71,105
167160,note_on,0,0,6,,,,,,,,5,,,68,105
167160,note_on,24,0,2,,,,,,,,1,,,71,105
167160,note_on,24,0,3,,,,,,,,2,,,68,105
167160,note_on,24,0,5,,,,,,,,4,,,40,105
167160,note_on,0,0,6,,,,,,,,5,,,52,105
167256,note_on,96,0,5,,,,,,,,4,,,40,0
167256,note_on,96,0,6,,,,,,,,5,,,68,0
167256,note_on,0,0,6,,,,,,,,5,,,52,0
167256,note_on,0,0,6,,,,,,,,5,,,71,0
167256,note_on,96,0,2,,,,,,,,1,,,71,0
167256,note_on,96,0,4,,,,,,,,3,,,52,0
167256,note_on,96,0,3,,,,,,,,2,,,68,0
167256,note_on,96,0,1,,,,,,,,0,,,71,0
167280,note_on,24,0,4,,,,,,,,3,,,57,72
167280,note_on,0,0,6,,,,,,,,5,,,64,105
167280,note_on,0,0,6,,,,,,,,5,,,69,105
167280,note_on,24,0,6,,,,,,,,5,,,57,105
167280,note_on,24,0,3,,,,,,,,2,,,64,105
167280,note_on,24,0,1,,,,,,,,0,,,73,105
167280,note_on,24,0,5,,,,,,,,4,,,45,105
167280,note_on,24,0,2,,,,,,,,1,,,73,105
167376,note_on,96,0,5,,,,,,,,4,,,45,0
167376,note_on,96,0,3,,,,,,,,2,,,64,0
167376,note_on,0,0,6,,,,,,,,5,,,57,0
167376,note_on,96,0,2,,,,,,,,1,,,73,0
167376,note_on,0,0,6,,,,,,,,5,,,69,0
167376,note_on,96,0,4,,,,,,,,3,,,57,0
167376,note_on,96,0,6,,,,,,,,5,,,64,0
167376,note_on,96,0,1,,,,,,,,0,,,73,0
167400,note_on,0,0,6,,,,,,,,5,,,68,105
167400,note_on,0,0,6,,,,,,,,5,,,52,105
167400,note_on,24,0,6,,,,,,,,5,,,71,105
167400,note_on,24,0,1,,,,,,,,0,,,74,105
167400,note_on,24,0,4,,,,,,,,3,,,52,72
167400,note_on,24,0,5,,,,,,,,4,,,40,105
167400,note_on,24,0,3,,,,,,,,2,,,68,105
167400,note_on,24,0,2,,,,,,,,1,,,74,105
167496,note_on,96,0,4,,,,,,,,3,,,52,0
167496,note_on,96,0,5,,,,,,,,4,,,40,0
167496,note_on,96,0,1,,,,,,,,0,,,74,0
167496,note_on,96,0,3,,,,,,,,2,,,68,0
167496,note_on,96,0,6,,,,,,,,5,,,68,0
167496,note_on,0,0,6,,,,,,,,5,,,52,0
167496,note_on,0,0,6,,,,,,,,5,,,71,0
167496,note_on,96,0,2,,,,,,,,1,,,74,0
167520,note_on,24,0,3,,,,,,,,2,,,61,105
167520,note_on,24,0,2,,,,,,,,1,,,76,105
167520,note_on,0,0,6,,,,,,,,5,,,69,105
167520,note_on,0,0,6,,,,,,,,5,,,45,105
167520,note_on,24,0,4,,,,,,,,3,,,45,72
167520,note_on,24,0,6,,,,,,,,5,,,73,105
167520,note_on,24,0,5,,,,,,,,4,,,33,105
167520,note_on,24,0,1,,,,,,,,0,,,76,105
167616,note_on,96,0,2,,,,,,,,1,,,76,0
167616,note_on,96,0,5,,,,,,,,4,,,33,0
167616,note_on,96,0,1,,,,,,,,0,,,76,0
167616,note_on,96,0,4,,,,,,,,3,,,45,0
167616,note_on,96,0,6,,,,,,,,5,,,69,0
167616,note_on,0,0,6,,,,,,,,5,,,45,0
167616,note_on,0,0,6,,,,,,,,5,,,73,0
167616,note_on,96,0,3,,,,,,,,2,,,61,0
167640,note_on,24,0,3,,,,,,,,2,,,64,105
167640,note_on,24,0,4,,,,,,,,3,,,61,72
167640,note_on,24,0,1,,,,,,,,0,,,81,105
167640,note_on,24,0,5,,,,,,,,4,,,49,105
167640,note_on,24,0,6,,,,,,,,5,,,69,105
167640,note_on,0,0,6,,,,,,,,5,,,61,105
167640,note_on,0,0,6,,,,,,,,5,,,64,105
167640,note_on,24,0,2,,,,,,,,1,,,81,105
167736,note_on,96,0,4,,,,,,,,3,,,61,0
167736,note_on,0,0,6,,,,,,,,5,,,61,0
167736,note_on,96,0,5,,,,,,,,4,,,49,0
167736,note_on,96,0,6,,,,,,,,5,,,64,0
167736,note_on,96,0,3,,,,,,,,2,,,64,0
167760,note_on,24,0,3,,,,,,,,2,,,66,105
167760,note_on,24,0,4,,,,,,,,3,,,62,72
167760,note_on,24,0,5,,,,,,,,4,,,50,105
167760,note_on,24,0,6,,,,,,,,5,,,62,105
167760,note_on,0,0,6,,,,,,,,5,,,66,105
167832,note_on,72,0,6,,,,,,,,5,,,69,0
167832,note_on,192,0,2,,,,,,,,1,,,81,0
167832,note_on,192,0,1,,,,,,,,0,,,81,0
167856,note_on,96,0,4,,,,,,,,3,,,62,0
167856,note_on,96,0,3,,,,,,,,2,,,66,0
167856,note_on,24,0,6,,,,,,,,5,,,66,0
167856,note_on,96,0,5,,,,,,,,4,,,50,0
167856,note_on,0,0,6,,,,,,,,5,,,62,0
167880,note_on,48,0,2,,,,,,,,1,,,80,105
167880,note_on,24,0,4,,,,,,,,3,,,56,72
167880,note_on,24,0,3,,,,,,,,2,,,71,105
167880,note_on,48,0,1,,,,,,,,0,,,80,105
167880,note_on,0,0,6,,,,,,,,5,,,71,105
167880,note_on,0,0,6,,,,,,,,5,,,64,105
167880,note_on,24,0,6,,,,,,,,5,,,56,105
167880,note_on,24,0,5,,,,,,,,4,,,44,105
167928,note_on,48,0,1,,,,,,,,0,,,80,0
167928,note_on,48,0,2,,,,,,,,1,,,80,0
167940,note_on,12,0,2,,,,,,,,1,,,78,105
167940,note_on,12,0,1,,,,,,,,0,,,78,105
167976,note_on,96,0,5,,,,,,,,4,,,44,0
167976,note_on,96,0,4,,,,,,,,3,,,56,0
167976,note_on,0,0,6,,,,,,,,5,,,56,0
167976,note_on,96,0,3,,,,,,,,2,,,71,0
167976,note_on,96,0,6,,,,,,,,5,,,71,0
167988,note_on,48,0,1,,,,,,,,0,,,78,0
167988,note_on,48,0,2,,,,,,,,1,,,78,0
168000,note_on,12,0,1,,,,,,,,0,,,76,105
168000,note_on,0,0,6,,,,,,,,5,,,57,105
168000,note_on,24,0,6,,,,,,,,5,,,73,105
168000,note_on,24,0,4,,,,,,,,3,,,57,72
168000,note_on,12,0,2,,,,,,,,1,,,76,105
168000,note_on,24,0,5,,,,,,,,4,,,45,105
168000,note_on,24,0,3,,,,,,,,2,,,73,105
168096,note_on,96,0,2,,,,,,,,1,,,76,0
168096,note_on,0,0,6,,,,,,,,5,,,73,0
168096,note_on,96,0,3,,,,,,,,2,,,73,0
168096,note_on,96,0,4,,,,,,,,3,,,57,0
168096,note_on,96,0,1,,,,,,,,0,,,76,0
168096,note_on,0,0,6,,,,,,,,5,,,64,0
168096,note_on,96,0,5,,,,,,,,4,,,45,0
168096,note_on,96,0,6,,,,,,,,5,,,57,0
168120,note_on,24,0,5,,,,,,,,4,,,33,105
168120,note_on,24,0,1,,,,,,,,0,,,73,105
168120,note_on,24,0,4,,,,,,,,3,,,45,72
168120,note_on,24,0,6,,,,,,,,5,,,45,105
168120,note_on,0,0,6,,,,,,,,5,,,69,105
168120,note_on,24,0,2,,,,,,,,1,,,73,105
168120,note_on,24,0,3,,,,,,,,2,,,64,105
168216,note_on,96,0,2,,,,,,,,1,,,73,0
168216,note_on,96,0,6,,,,,,,,5,,,69,0
168216,note_on,0,0,6,,,,,,,,5,,,45,0
168216,note_on,96,0,1,,,,,,,,0,,,73,0
168216,note_on,96,0,3,,,,,,,,2,,,64,0
168216,note_on,96,0,5,,,,,,,,4,,,33,0
168216,note_on,96,0,4,,,,,,,,3,,,45,0
168240,note_on,24,0,4,,,,,,,,3,,,50,72
168240,note_on,0,0,6,,,,,,,,5,,,50,105
168240,note_on,24,0,3,,,,,,,,2,,,66,105
168240,note_on,24,0,1,,,,,,,,0,,,74,105
168240,note_on,24,0,2,,,,,,,,1,,,74,105
168240,note_on,24,0,5,,,,,,,,4,,,38,105
168240,note_on,0,0,6,,,,,,,,5,,,66,105
168240,note_on,24,0,6,,,,,,,,5,,,69,105
168336,note_on,96,0,5,,,,,,,,4,,,38,0
168336,note_on,96,0,1,,,,,,,,0,,,74,0
168336,note_on,96,0,3,,,,,,,,2,,,66,0
168336,note_on,96,0,4,,,,,,,,3,,,50,0
168336,note_on,96,0,2,,,,,,,,1,,,74,0
168336,note_on,0,0,6,,,,,,,,5,,,69,0
168336,note_on,0,0,6,,,,,,,,5,,,66,0
168336,note_on,96,0,6,,,,,,,,5,,,50,0
168360,note_on,0,0,6,,,,,,,,5,,,52,105
168360,note_on,24,0,6,,,,,,,,5,,,68,105
168360,note_on,24,0,2,,,,,,,,1,,,71,105
168360,note_on,24,0,3,,,,,,,,2,,,64,105
168360,note_on,24,0,1,,,,,,,,0,,,71,105
168360,note_on,24,0,5,,,,,,,,4,,,40,105
168360,note_on,0,0,6,,,,,,,,5,,,64,105
168360,note_on,24,0,4,,,,,,,,3,,,52,72
168456,note_on,96,0,1,,,,,,,,0,,,71,0
168456,note_on,96,0,3,,,,,,,,2,,,64,0
168456,note_on,96,0,4,,,,,,,,3,,,52,0
168456,note_on,96,0,2,,,,,,,,1,,,71,0
168456,note_on,96,0,6,,,,,,,,5,,,64,0
168456,note_on,0,0,6,,,,,,,,5,,,52,0
168456,note_on,0,0,6,,,,,,,,5,,,68,0
168456,note_on,96,0,5,,,,,,,,4,,,40,0
168480,note_on,24,0,5,,,,,,,,4,,,45,105
168480,note_on,24,0,1,,,,,,,,0,,,73,105
168480,note_on,24,0,3,,,,,,,,2,,,64,105
168480,note_on,24,0,2,,,,,,,,1,,,73,105
168480,note_on,0,0,6,,,,,,,,5,,,61,105
168480,note_on,0,0,6,,,,,,,,5,,,57,105
168480,note_on,24,0,4,,,,,,,,3,,,57,72
168480,note_on,24,0,6,,,,,,,,5,,,69,105
168576,note_on,96,0,4,,,,,,,,3,,,57,0
168576,note_on,96,0,6,,,,,,,,5,,,57,0
168576,note_on,96,0,1,,,,,,,,0,,,73,0
168576,note_on,96,0,2,,,,,,,,1,,,73,0
168576,note_on,96,0,3,,,,,,,,2,,,64,0
168576,note_on,96,0,5,,,,,,,,4,,,45,0
168600,note_on,24,0,6,,,,,,,,5,,,45,105
168600,note_on,24,0,3,,,,,,,,2,,,61,105
168600,note_on,24,0,5,,,,,,,,4,,,33,105
168600,note_on,24,0,1,,,,,,,,0,,,69,105
168600,note_on,24,0,2,,,,,,,,1,,,69,105
168600,note_on,24,0,4,,,,,,,,3,,,45,72
168672,note_on,0,0,6,,,,,,,,5,,,69,0
168672,note_on,72,0,6,,,,,,,,5,,,61,0
168696,note_on,96,0,5,,,,,,,,4,,,33,0
168696,note_on,96,0,2,,,,,,,,1,,,69,0
168696,note_on,96,0,3,,,,,,,,2,,,61,0
168696,note_on,24,0,6,,,,,,,,5,,,45,0
168696,note_on,96,0,1,,,,,,,,0,,,69,0
168696,note_on,96,0,4,,,,,,,,3,,,45,0
168720,note_on,24,0,1,,,,,,,,0,,,78,105
168720,note_on,24,0,2,,,,,,,,1,,,78,105
168768,note_on,48,0,2,,,,,,,,1,,,78,0
168768,note_on,48,0,1,,,,,,,,0,,,78,0
168780,note_on,12,0,2,,,,,,,,1,,,80,105
168780,note_on,12,0,1,,,,,,,,0,,,80,105
168828,note_on,48,0,2,,,,,,,,1,,,80,0
168828,note_on,48,0,1,,,,,,,,0,,,80,0
168840,note_on,12,0,1,,,,,,,,0,,,81,105
168840,note_on,144,0,5,,,,,,,,4,,,38,105
168840,note_on,144,0,4,,,,,,,,3,,,50,72
168840,note_on,0,0,6,,,,,,,,5,,,66,105
168840,note_on,0,0,6,,,,,,,,5,,,62,105
168840,note_on,144,0,6,,,,,,,,5,,,50,105
168840,note_on,12,0,2,,,,,,,,1,,,81,105
168840,note_on,144,0,3,,,,,,,,2,,,69,105
168888,note_on,48,0,1,,,,,,,,0,,,81,0
168888,note_on,48,0,2,,,,,,,,1,,,81,0
168900,note_on,12,0,1,,,,,,,,0,,,78,105
168900,note_on,12,0,2,,,,,,,,1,,,78,105
168936,note_on,96,0,4,,,,,,,,3,,,50,0
168936,note_on,0,0,6,,,,,,,,5,,,62,0
168936,note_on,96,0,6,,,,,,,,5,,,66,0
168936,note_on,0,0,6,,,,,,,,5,,,50,0
168936,note_on,96,0,5,,,,,,,,4,,,38,0
168936,note_on,96,0,3,,,,,,,,2,,,69,0
168948,note_on,48,0,1,,,,,,,,0,,,78,0
168948,note_on,48,0,2,,,,,,,,1,,,78,0
168960,note_on,12,0,1,,,,,,,,0,,,76,105
168960,note_on,0,0,6,,,,,,,,5,,,61,105
168960,note_on,0,0,6,,,,,,,,5,,,57,105
168960,note_on,24,0,6,,,,,,,,5,,,64,105
168960,note_on,24,0,5,,,,,,,,4,,,45,105
168960,note_on,12,0,2,,,,,,,,1,,,73,105
168960,note_on,24,0,3,,,,,,,,2,,,69,105
168960,note_on,24,0,4,,,,,,,,3,,,57,72
169056,note_on,96,0,4,,,,,,,,3,,,57,0
169056,note_on,96,0,3,,,,,,,,2,,,69,0
169056,note_on,96,0,6,,,,,,,,5,,,57,0
169056,note_on,96,0,5,,,,,,,,4,,,45,0
169080,note_on,24,0,5,,,,,,,,4,,,33,105
169080,note_on,24,0,4,,,,,,,,3,,,45,72
169080,note_on,24,0,6,,,,,,,,5,,,45,105
169080,note_on,24,0,3,,,,,,,,2,,,64,105
169152,note_on,192,0,1,,,,,,,,0,,,76,0
169152,note_on,0,0,6,,,,,,,,5,,,64,0
169152,note_on,72,0,6,,,,,,,,5,,,61,0
169152,note_on,192,0,2,,,,,,,,1,,,73,0
169176,note_on,96,0,5,,,,,,,,4,,,33,0
169176,note_on,24,0,6,,,,,,,,5,,,45,0
169176,note_on,96,0,4,,,,,,,,3,,,45,0
169176,note_on,96,0,3,,,,,,,,2,,,64,0
169200,note_on,48,0,1,,,,,,,,0,,,71,105
169200,note_on,48,0,2,,,,,,,,1,,,68,105
169296,note_on,96,0,1,,,,,,,,0,,,71,0
169296,note_on,96,0,2,,,,,,,,1,,,68,0
169320,note_on,24,0,1,,,,,,,,0,,,73,105
169320,note_on,144,0,6,,,,,,,,5,,,52,105
169320,note_on,0,0,6,,,,,,,,5,,,59,105
169320,note_on,144,0,5,,,,,,,,4,,,40,105
169320,note_on,144,0,4,,,,,,,,3,,,52,72
169320,note_on,0,0,6,,,,,,,,5,,,68,105
169320,note_on,144,0,3,,,,,,,,2,,,68,105
169320,note_on,24,0,2,,,,,,,,1,,,69,105
169368,note_on,48,0,2,,,,,,,,1,,,69,0
169368,note_on,48,0,1,,,,,,,,0,,,73,0
169380,note_on,12,0,1,,,,,,,,0,,,74,105
169380,note_on,12,0,2,,,,,,,,1,,,71,105
169416,note_on,0,0,6,,,,,,,,5,,,68,0
169416,note_on,96,0,5,,,,,,,,4,,,40,0
169416,note_on,96,0,3,,,,,,,,2,,,68,0
169416,note_on,0,0,6,,,,,,,,5,,,52,0
169416,note_on,96,0,6,,,,,,,,5,,,59,0
169416,note_on,96,0,4,,,,,,,,3,,,52,0
169428,note_on,48,0,1,,,,,,,,0,,,74,0
169428,note_on,48,0,2,,,,,,,,1,,,71,0
169440,note_on,0,0,6,,,,,,,,5,,,61,105
169440,note_on,12,0,2,,,,,,,,1,,,69,105
169440,note_on,24,0,6,,,,,,,,5,,,69,105
169440,note_on,0,0,6,,,,,,,,5,,,57,105
169440,note_on,24,0,4,,,,,,,,3,,,57,72
169440,note_on,24,0,3,,,,,,,,2,,,64,105
169440,note_on,24,0,5,,,,,,,,4,,,45,105
169440,note_on,12,0,1,,,,,,,,0,,,73,105
169536,note_on,96,0,5,,,,,,,,4,,,45,0
169536,note_on,96,0,4,,,,,,,,3,,,57,0
169536,note_on,96,0,6,,,,,,,,5,,,57,0
169536,note_on,96,0,3,,,,,,,,2,,,64,0
169560,note_on,24,0,5,,,,,,,,4,,,33,105
169560,note_on,24,0,4,,,,,,,,3,,,45,72
169560,note_on,24,0,6,,,,,,,,5,,,45,105
169560,note_on,24,0,3,,,,,,,,2,,,61,105
169632,note_on,192,0,1,,,,,,,,0,,,73,0
169632,note_on,192,0,2,,,,,,,,1,,,69,0
169632,note_on,0,0,6,,,,,,,,5,,,69,0
169632,note_on,72,0,6,,,,,,,,5,,,61,0
169656,note_on,24,0,6,,,,,,,,5,,,45,0
169656,note_on,96,0,4,,,,,,,,3,,,45,0
169656,note_on,96,0,5,,,,,,,,4,,,33,0
169656,note_on,96,0,3,,,,,,,,2,,,61,0
169680,note_on,48,0,1,,,,,,,,0,,,78,72
169680,note_on,48,0,2,,,,,,,,1,,,74,72
169728,note_on,48,0,1,,,,,,,,0,,,78,0
169728,note_on,48,0,2,,,,,,,,1,,,74,0
169740,note_on,12,0,2,,,,,,,,1,,,76,72
169740,note_on,12,0,1,,,,,,,,0,,,80,72
169788,note_on,48,0,1,,,,,,,,0,,,80,0
169788,note_on,48,0,2,,,,,,,,1,,,76,0
169800,note_on,144,0,3,,,,,,,,2,,,69,72
169800,note_on,0,0,6,,,,,,,,5,,,66,72
169800,note_on,0,0,6,,,,,,,,5,,,62,72
169800,note_on,144,0,6,,,,,,,,5,,,50,72
169800,note_on,12,0,2,,,,,,,,1,,,78,72
169800,note_on,144,0,5,,,,,,,,4,,,38,72
169800,note_on,12,0,1,,,,,,,,0,,,81,72
169800,note_on,144,0,4,,,,,,,,3,,,50,72
169848,note_on,48,0,2,,,,,,,,1,,,78,0
169848,note_on,48,0,1,,,,,,,,0,,,81,0
169860,note_on,12,0,2,,,,,,,,1,,,74,72
169860,note_on,12,0,1,,,,,,,,0,,,78,72
169896,note_on,0,0,6,,,,,,,,5,,,62,0
169896,note_on,96,0,6,,,,,,,,5,,,66,0
169896,note_on,96,0,5,,,,,,,,4,,,38,0
169896,note_on,96,0,3,,,,,,,,2,,,69,0
169896,note_on,96,0,4,,,,,,,,3,,,50,0
169896,note_on,0,0,6,,,,,,,,5,,,50,0
169908,note_on,48,0,1,,,,,,,,0,,,78,0
169908,note_on,48,0,2,,,,,,,,1,,,74,0
169920,note_on,24,0,5,,,,,,,,4,,,45,72
169920,note_on,12,0,2,,,,,,,,1,,,73,72
169920,note_on,12,0,1,,,,,,,,0,,,76,72
169920,note_on,0,0,6,,,,,,,,5,,,57,72
169920,note_on,24,0,6,,,,,,,,5,,,64,72
169920,note_on,24,0,3,,,,,,,,2,,,69,72
169920,note_on,24,0,4,,,,,,,,3,,,57,72
169920,note_on,0,0,6,,,,,,,,5,,,61,72
170016,note_on,96,0,3,,,,,,,,2,,,69,0
170016,note_on,96,0,5,,,,,,,,4,,,45,0
170016,note_on,96,0,6,,,,,,,,5,,,57,0
170016,note_on,96,0,4,,,,,,,,3,,,57,0
170040,note_on,24,0,6,,,,,,,,5,,,45,72
170040,note_on,24,0,3,,,,,,,,2,,,64,72
170040,note_on,24,0,5,,,,,,,,4,,,33,72
170040,note_on,24,0,4,,,,,,,,3,,,45,72
170112,note_on,192,0,2,,,,,,,,1,,,73,0
170112,note_on,72,0,6,,,,,,,,5,,,61,0
170112,note_on,0,0,6,,,,,,,,5,,,64,0
170112,note_on,192,0,1,,,,,,,,0,,,76,0
170136,note_on,96,0,4,,,,,,,,3,,,45,0
170136,note_on,96,0,3,,,,,,,,2,,,64,0
170136,note_on,96,0,5,,,,,,,,4,,,33,0
170136,note_on,24,0,6,,,,,,,,5,,,45,0
170160,note_on,48,0,2,,,,,,,,1,,,64,72
170160,note_on,48,0,1,,,,,,,,0,,,68,72
170256,note_on,96,0,2,,,,,,,,1,,,64,0
170256,note_on,96,0,1,,,,,,,,0,,,68,0
170280,note_on,24,0,1,,,,,,,,0,,,69,72
170280,note_on,144,0,5,,,,,,,,4,,,40,72
170280,note_on,144,0,3,,,,,,,,2,,,68,72
170280,note_on,0,0,6,,,,,,,,5,,,59,72
170280,note_on,0,0,6,,,,,,,,5,,,68,72
170280,note_on,144,0,6,,,,,,,,5,,,52,72
170280,note_on,24,0,2,,,,,,,,1,,,66,72
170280,note_on,144,0,4,,,,,,,,3,,,52,72
170328,note_on,48,0,2,,,,,,,,1,,,66,0
170328,note_on,48,0,1,,,,,,,,0,,,69,0
170340,note_on,12,0,2,,,,,,,,1,,,68,72
170340,note_on,12,0,1,,,,,,,,0,,,71,72
170376,note_on,0,0,6,,,,,,,,5,,,68,0
170376,note_on,96,0,6,,,,,,,,5,,,59,0
170376,note_on,0,0,6,,,,,,,,5,,,52,0
170376,note_on,96,0,3,,,,,,,,2,,,68,0
170376,note_on,96,0,5,,,,,,,,4,,,40,0
170376,note_on,96,0,4,,,,,,,,3,,,52,0
170388,note_on,48,0,2,,,,,,,,1,,,68,0
170388,note_on,48,0,1,,,,,,,,0,,,71,0
170400,note_on,24,0,5,,,,,,,,4,,,45,72
170400,note_on,12,0,1,,,,,,,,0,,,73,72
170400,note_on,24,0,3,,,,,,,,2,,,64,72
170400,note_on,12,0,2,,,,,,,,1,,,69,72
170400,note_on,24,0,4,,,,,,,,3,,,57,72
170400,note_on,0,0,6,,,,,,,,5,,,57,72
170400,note_on,24,0,6,,,,,,,,5,,,69,72
170400,note_on,0,0,6,,,,,,,,5,,,61,72
170496,note_on,96,0,5,,,,,,,,4,,,45,0
170496,note_on,96,0,6,,,,,,,,5,,,57,0
170496,note_on,96,0,3,,,,,,,,2,,,64,0
170496,note_on,96,0,1,,,,,,,,0,,,73,0
170496,note_on,96,0,4,,,,,,,,3,,,57,0
170520,note_on,24,0,3,,,,,,,,2,,,61,72
170520,note_on,24,0,1,,,,,,,,0,,,64,105
170520,note_on,24,0,5,,,,,,,,4,,,47,105
170520,note_on,24,0,6,,,,,,,,5,,,59,72
170520,note_on,24,0,4,,,,,,,,3,,,59,105
170592,note_on,0,0,6,,,,,,,,5,,,69,0
170592,note_on,72,0,6,,,,,,,,5,,,61,0
170592,note_on,192,0,2,,,,,,,,1,,,69,0
170616,note_on,96,0,3,,,,,,,,2,,,61,0
170616,note_on,96,0,5,,,,,,,,4,,,47,0
170616,note_on,24,0,6,,,,,,,,5,,,59,0
170616,note_on,96,0,1,,,,,,,,0,,,64,0
170616,note_on,96,0,4,,,,,,,,3,,,59,0
170640,note_on,24,0,4,,,,,,,,3,,,61,105
170640,note_on,24,0,6,,,,,,,,5,,,61,105
170640,note_on,24,0,1,,,,,,,,0,,,69,105
170640,note_on,24,0,5,,,,,,,,4,,,49,105
170736,note_on,96,0,4,,,,,,,,3,,,61,0
170736,note_on,96,0,6,,,,,,,,5,,,61,0
170736,note_on,96,0,5,,,,,,,,4,,,49,0
170760,note_on,144,0,3,,,,,,,,2,,,64,72
170760,note_on,24,0,5,,,,,,,,4,,,45,105
170760,note_on,168,0,2,,,,,,,,1,,,64,105
170760,note_on,24,0,6,,,,,,,,5,,,57,105
170760,note_on,0,0,6,,,,,,,,5,,,69,105
170760,note_on,24,0,4,,,,,,,,3,,,57,105
170856,note_on,96,0,6,,,,,,,,5,,,57,0
170856,note_on,96,0,4,,,,,,,,3,,,57,0
170856,note_on,96,0,2,,,,,,,,1,,,64,0
170856,note_on,96,0,3,,,,,,,,2,,,64,0
170856,note_on,96,0,5,,,,,,,,4,,,45,0
170880,note_on,24,0,5,,,,,,,,4,,,38,105
170880,note_on,0,0,6,,,,,,,,5,,,50,105
170880,note_on,24,0,6,,,,,,,,5,,,71,105
170880,note_on,24,0,4,,,,,,,,3,,,50,105
170880,note_on,24,0,2,,,,,,,,1,,,71,105
170880,note_on,24,0,3,,,,,,,,2,,,66,72
170976,note_on,96,0,3,,,,,,,,2,,,66,0
170976,note_on,96,0,6,,,,,,,,5,,,50,0
170976,note_on,0,0,6,,,,,,,,5,,,69,0
170976,note_on,96,0,5,,,,,,,,4,,,38,0
170976,note_on,96,0,4,,,,,,,,3,,,50,0
170976,note_on,336,0,1,,,,,,,,0,,,69,0
171000,note_on,24,0,5,,,,,,,,4,,,40,105
171000,note_on,0,0,6,,,,,,,,5,,,68,105
171000,note_on,24,0,4,,,,,,,,3,,,52,105
171000,note_on,24,0,6,,,,,,,,5,,,52,105
171000,note_on,24,0,1,,,,,,,,0,,,68,105
171000,note_on,24,0,3,,,,,,,,2,,,68,72
171096,note_on,96,0,5,,,,,,,,4,,,40,0
171096,note_on,96,0,1,,,,,,,,0,,,68,0
171096,note_on,96,0,3,,,,,,,,2,,,68,0
171096,note_on,96,0,4,,,,,,,,3,,,52,0
171096,note_on,96,0,6,,,,,,,,5,,,68,0
171096,note_on,0,0,6,,,,,,,,5,,,52,0
171120,note_on,24,0,4,,,,,,,,3,,,57,105
171120,note_on,24,0,5,,,,,,,,4,,,45,105
171120,note_on,24,0,6,,,,,,,,5,,,73,105
171120,note_on,0,0,6,,,,,,,,5,,,57,105
171120,note_on,24,0,1,,,,,,,,0,,,73,105
171168,note_on,48,0,6,,,,,,,,5,,,71,0
171168,note_on,288,0,2,,,,,,,,1,,,71,0
171216,note_on,96,0,4,,,,,,,,3,,,57,0
171216,note_on,48,0,6,,,,,,,,5,,,57,0
171216,note_on,96,0,5,,,,,,,,4,,,45,0
171240,note_on,24,0,4,,,,,,,,3,,,45,105
171240,note_on,144,0,3,,,,,,,,2,,,61,72
171240,note_on,24,0,6,,,,,,,,5,,,45,105
171240,note_on,24,0,5,,,,,,,,4,,,33,105
171240,note_on,0,0,6,,,,,,,,5,,,69,105
171240,note_on,72,0,2,,,,,,,,1,,,69,105
171336,note_on,96,0,3,,,,,,,,2,,,61,0
171336,note_on,96,0,4,,,,,,,,3,,,45,0
171336,note_on,96,0,5,,,,,,,,4,,,33,0
171336,note_on,96,0,6,,,,,,,,5,,,69,0
171336,note_on,0,0,6,,,,,,,,5,,,45,0
171336,note_on,96,0,2,,,,,,,,1,,,69,0
171360,note_on,24,0,2,,,,,,,,1,,,74,105
171360,note_on,24,0,5,,,,,,,,4,,,35,105
171360,note_on,24,0,3,,,,,,,,2,,,66,72
171360,note_on,24,0,6,,,,,,,,5,,,47,105
171360,note_on,24,0,4,,,,,,,,3,,,47,105
171360,note_on,0,0,6,,,,,,,,5,,,74,105
171456,note_on,96,0,5,,,,,,,,4,,,35,0
171456,note_on,96,0,4,,,,,,,,3,,,47,0
171456,note_on,96,0,6,,,,,,,,5,,,47,0
171456,note_on,96,0,3,,,,,,,,2,,,66,0
171456,note_on,336,0,1,,,,,,,,0,,,73,0
171456,note_on,0,0,6,,,,,,,,5,,,73,0
171480,note_on,24,0,6,,,,,,,,5,,,56,105
171480,note_on,24,0,4,,,,,,,,3,,,56,105
171480,note_on,0,0,6,,,,,,,,5,,,71,105
171480,note_on,24,0,5,,,,,,,,4,,,44,105
171480,note_on,24,0,3,,,,,,,,2,,,71,72
171480,note_on,24,0,1,,,,,,,,0,,,71,105
171576,note_on,96,0,4,,,,,,,,3,,,56,0
171576,note_on,96,0,1,,,,,,,,0,,,71,0
171576,note_on,96,0,3,,,,,,,,2,,,71,0
171576,note_on,96,0,5,,,,,,,,4,,,44,0
171576,note_on,0,0,6,,,,,,,,5,,,56,0
171576,note_on,96,0,6,,,,,,,,5,,,71,0
171600,note_on,24,0,1,,,,,,,,0,,,76,105
171600,note_on,24,0,5,,,,,,,,4,,,45,105
171600,note_on,0,0,6,,,,,,,,5,,,76,105
171600,note_on,24,0,4,,,,,,,,3,,,57,105
171600,note_on,24,0,6,,,,,,,,5,,,57,105
171648,note_on,48,0,6,,,,,,,,5,,,74,0
171648,note_on,288,0,2,,,,,,,,1,,,74,0
171696,note_on,48,0,6,,,,,,,,5,,,57,0
171696,note_on,96,0,4,,,,,,,,3,,,57,0
171696,note_on,96,0,5,,,,,,,,4,,,45,0
171720,note_on,144,0,3,,,,,,,,2,,,73,72
171720,note_on,72,0,2,,,,,,,,1,,,73,105
171720,note_on,24,0,5,,,,,,,,4,,,33,105
171720,note_on,24,0,6,,,,,,,,5,,,45,105
171720,note_on,24,0,4,,,,,,,,3,,,45,105
171720,note_on,0,0,6,,,,,,,,5,,,73,105
171816,note_on,0,0,6,,,,,,,,5,,,45,0
171816,note_on,96,0,5,,,,,,,,4,,,33,0
171816,note_on,96,0,3,,,,,,,,2,,,73,0
171816,note_on,96,0,2,,,,,,,,1,,,73,0
171816,note_on,96,0,4,,,,,,,,3,,,45,0
171816,note_on,96,0,6,,,,,,,,5,,,73,0
171840,note_on,24,0,5,,,,,,,,4,,,35,105
171840,note_on,24,0,3,,,,,,,,2,,,69,72
171840,note_on,24,0,6,,,,,,,,5,,,78,105
171840,note_on,0,0,6,,,,,,,,5,,,50,105
171840,note_on,24,0,2,,,,,,,,1,,,78,105
171840,note_on,24,0,4,,,,,,,,3,,,50,105
171936,note_on,96,0,5,,,,,,,,4,,,35,0
171936,note_on,96,0,6,,,,,,,,5,,,50,0
171936,note_on,0,0,6,,,,,,,,5,,,76,0
171936,note_on,336,0,1,,,,,,,,0,,,76,0
171936,note_on,96,0,4,,,,,,,,3,,,50,0
171960,note_on,24,0,5,,,,,,,,4,,,50,105
171960,note_on,24,0,4,,,,,,,,3,,,62,105
171960,note_on,24,0,6,,,,,,,,5,,,62,105
171960,note_on,0,0,6,,,,,,,,5,,,74,105
171960,note_on,24,0,1,,,,,,,,0,,,74,105
172032,note_on,192,0,3,,,,,,,,2,,,69,0
172056,note_on,0,0,6,,,,,,,,5,,,62,0
172056,note_on,96,0,6,,,,,,,,5,,,74,0
172056,note_on,96,0,4,,,,,,,,3,,,62,0
172056,note_on,96,0,5,,,,,,,,4,,,50,0
172056,note_on,96,0,1,,,,,,,,0,,,74,0
172080,note_on,24,0,6,,,,,,,,5,,,64,105
172080,note_on,24,0,4,,,,,,,,3,,,64,105
172080,note_on,24,0,5,,,,,,,,4,,,52,105
172080,note_on,24,0,1,,,,,,,,0,,,80,105
172080,note_on,48,0,3,,,,,,,,2,,,68,72
172080,note_on,0,0,6,,,,,,,,5,,,80,105
172128,note_on,288,0,2,,,,,,,,1,,,78,0
172128,note_on,48,0,6,,,,,,,,5,,,78,0
172176,note_on,96,0,4,,,,,,,,3,,,64,0
172176,note_on,48,0,6,,,,,,,,5,,,64,0
172176,note_on,96,0,5,,,,,,,,4,,,52,0
172176,note_on,96,0,3,,,,,,,,2,,,68,0
172200,note_on,24,0,3,,,,,,,,2,,,68,72
172200,note_on,72,0,2,,,,,,,,1,,,76,105
172200,note_on,24,0,6,,,,,,,,5,,,52,105
172200,note_on,0,0,6,,,,,,,,5,,,76,105
172200,note_on,24,0,5,,,,,,,,4,,,40,105
172200,note_on,24,0,4,,,,,,,,3,,,52,105
172248,note_on,48,0,2,,,,,,,,1,,,76,0
172260,note_on,12,0,2,,,,,,,,1,,,74,105
172272,note_on,192,0,1,,,,,,,,0,,,80,0
172272,note_on,72,0,6,,,,,,,,5,,,80,0
172296,note_on,96,0,4,,,,,,,,3,,,52,0
172296,note_on,96,0,5,,,,,,,,4,,,40,0
172296,note_on,96,0,3,,,,,,,,2,,,68,0
172296,note_on,24,0,6,,,,,,,,5,,,76,0
172296,note_on,0,0,6,,,,,,,,5,,,52,0
172308,note_on,48,0,2,,,,,,,,1,,,74,0
172320,note_on,24,0,3,,,,,,,,2,,,64,72
172320,note_on,24,0,4,,,,,,,,3,,,57,105
172320,note_on,0,0,6,,,,,,,,5,,,73,105
172320,note_on,0,0,6,,,,,,,,5,,,57,105
172320,note_on,48,0,1,,,,,,,,0,,,81,105
172320,note_on,12,0,2,,,,,,,,1,,,76,105
172320,note_on,24,0,5,,,,,,,,4,,,45,105
172320,note_on,24,0,6,,,,,,,,5,,,81,105
172416,note_on,96,0,3,,,,,,,,2,,,64,0
172416,note_on,96,0,6,,,,,,,,5,,,57,0
172416,note_on,96,0,5,,,,,,,,4,,,45,0
172416,note_on,96,0,4,,,,,,,,3,,,57,0
172440,note_on,24,0,3,,,,,,,,2,,,61,72
172440,note_on,24,0,6,,,,,,,,5,,,45,105
172440,note_on,24,0,5,,,,,,,,4,,,33,105
172440,note_on,24,0,4,,,,,,,,3,,,45,105
172512,note_on,72,0,6,,,,,,,,5,,,73,0
172512,note_on,192,0,2,,,,,,,,1,,,76,0
172512,note_on,192,0,1,,,,,,,,0,,,81,0
172512,note_on,0,0,6,,,,,,,,5,,,81,0
172536,note_on,96,0,5,,,,,,,,4,,,33,0
172536,note_on,96,0,4,,,,,,,,3,,,45,0
172536,note_on,96,0,3,,,,,,,,2,,,61,0
172536,note_on,24,0,6,,,,,,,,5,,,45,0
172560,note_on,48,0,1,,,,,,,,0,,,76,105
172560,note_on,24,0,3,,,,,,,,2,,,61,72
172560,note_on,48,0,2,,,,,,,,1,,,76,105
172560,note_on,24,0,4,,,,,,,,3,,,45,105
172560,note_on,24,0,5,,,,,,,,4,,,33,105
172560,note_on,24,0,6,,,,,,,,5,,,45,105
172608,note_on,48,0,2,,,,,,,,1,,,76,0
172608,note_on,48,0,1,,,,,,,,0,,,76,0
172620,note_on,12,0,2,,,,,,,,1,,,73,105
172620,note_on,12,0,1,,,,,,,,0,,,73,105
172656,note_on,96,0,3,,,,,,,,2,,,61,0
172656,note_on,96,0,4,,,,,,,,3,,,45,0
172656,note_on,96,0,5,,,,,,,,4,,,33,0
172656,note_on,96,0,6,,,,,,,,5,,,45,0
172668,note_on,48,0,2,,,,,,,,1,,,73,0
172668,note_on,48,0,1,,,,,,,,0,,,73,0
172680,note_on,24,0,3,,,,,,,,2,,,64,72
172680,note_on,12,0,2,,,,,,,,1,,,69,105
172680,note_on,12,0,1,,,,,,,,0,,,69,105
172680,note_on,24,0,5,,,,,,,,4,,,37,105
172680,note_on,24,0,6,,,,,,,,5,,,49,105
172680,note_on,24,0,4,,,,,,,,3,,,49,105
172728,note_on,48,0,2,,,,,,,,1,,,69,0
172728,note_on,48,0,1,,,,,,,,0,,,69,0
172740,note_on,12,0,2,,,,,,,,1,,,64,105
172740,note_on,12,0,1,,,,,,,,0,,,64,105
172776,note_on,96,0,6,,,,,,,,5,,,49,0
172776,note_on,96,0,5,,,,,,,,4,,,37,0
172776,note_on,96,0,3,,,,,,,,2,,,64,0
172776,note_on,96,0,4,,,,,,,,3,,,49,0
172788,note_on,48,0,2,,,,,,,,1,,,64,0
172788,note_on,48,0,1,,,,,,,,0,,,64,0
172800,note_on,0,0,6,,,,,,,,5,,,57,105
172800,note_on,12,0,1,,,,,,,,0,,,66,105
172800,note_on,24,0,6,,,,,,,,5,,,66,105
172800,note_on,0,0,6,,,,,,,,5,,,50,105
172800,note_on,24,0,3,,,,,,,,2,,,57,72
172800,note_on,12,0,2,,,,,,,,1,,,66,105
172800,note_on,24,0,5,,,,,,,,4,,,38,105
172800,note_on,24,0,4,,,,,,,,3,,,50,105
172896,note_on,96,0,4,,,,,,,,3,,,50,0
172896,note_on,96,0,6,,,,,,,,5,,,50,0
172896,note_on,96,0,5,,,,,,,,4,,,38,0
172920,note_on,24,0,6,,,,,,,,5,,,38,105
172920,note_on,24,0,4,,,,,,,,3,,,38,105
172920,note_on,24,0,5,,,,,,,,4,,,26,105
172992,note_on,192,0,1,,,,,,,,0,,,66,0
172992,note_on,72,0,6,,,,,,,,5,,,57,0
172992,note_on,0,0,6,,,,,,,,5,,,66,0
172992,note_on,192,0,2,,,,,,,,1,,,66,0
172992,note_on,192,0,3,,,,,,,,2,,,57,0
173016,note_on,24,0,6,,,,,,,,5,,,38,0
173016,note_on,96,0,4,,,,,,,,3,,,38,0
173016,note_on,96,0,5,,,,,,,,4,,,26,0
173040,note_on,48,0,2,,,,,,,,1,,,74,105
173040,note_on,24,0,4,,,,,,,,3,,,59,105
173040,note_on,48,0,3,,,,,,,,2,,,68,72
173040,note_on,48,0,1,,,,,,,,0,,,74,105
173040,note_on,0,0,6,,,,,,,,5,,,62,105
173040,note_on,0,0,6,,,,,,,,5,,,68,105
173040,note_on,24,0,6,,,,,,,,5,,,59,105
173040,note_on,24,0,5,,,,,,,,4,,,47,105
173088,note_on,48,0,1,,,,,,,,0,,,74,0
173088,note_on,48,0,2,,,,,,,,1,,,74,0
173100,note_on,12,0,1,,,,,,,,0,,,71,105
173100,note_on,12,0,2,,,,,,,,1,,,71,105
173136,note_on,96,0,5,,,,,,,,4,,,47,0
173136,note_on,96,0,6,,,,,,,,5,,,59,0
173136,note_on,96,0,4,,,,,,,,3,,,59,0
173136,note_on,96,0,3,,,,,,,,2,,,68,0
173148,note_on,48,0,2,,,,,,,,1,,,71,0
173148,note_on,48,0,1,,,,,,,,0,,,71,0
173160,note_on,12,0,2,,,,,,,,1,,,68,105
173160,note_on,24,0,3,,,,,,,,2,,,62,72
173160,note_on,24,0,4,,,,,,,,3,,,47,105
173160,note_on,24,0,6,,,,,,,,5,,,47,105
173160,note_on,24,0,5,,,,,,,,4,,,35,105
173160,note_on,12,0,1,,,,,,,,0,,,68,105
173208,note_on,48,0,2,,,,,,,,1,,,68,0
173208,note_on,48,0,1,,,,,,,,0,,,68,0
173220,note_on,12,0,2,,,,,,,,1,,,62,105
173220,note_on,12,0,1,,,,,,,,0,,,62,105
173232,note_on,72,0,6,,,,,,,,5,,,62,0
173232,note_on,0,0,6,,,,,,,,5,,,68,0
173256,note_on,96,0,5,,,,,,,,4,,,35,0
173256,note_on,96,0,4,,,,,,,,3,,,47,0
173256,note_on,96,0,3,,,,,,,,2,,,62,0
173256,note_on,24,0,6,,,,,,,,5,,,47,0
173268,note_on,48,0,1,,,,,,,,0,,,62,0
173268,note_on,48,0,2,,,,,,,,1,,,62,0
173280,note_on,12,0,2,,,,,,,,1,,,64,105
173280,note_on,12,0,1,,,,,,,,0,,,64,105
173280,note_on,24,0,4,,,,,,,,3,,,49,105
173280,note_on,24,0,6,,,,,,,,5,,,69,105
173280,note_on,0,0,6,,,,,,,,5,,,49,105
173280,note_on,24,0,3,,,,,,,,2,,,57,72
173280,note_on,24,0,5,,,,,,,,4,,,37,105
173280,note_on,0,0,6,,,,,,,,5,,,64,105
173376,note_on,96,0,6,,,,,,,,5,,,49,0
173376,note_on,96,0,4,,,,,,,,3,,,49,0
173376,note_on,96,0,5,,,,,,,,4,,,37,0
173400,note_on,24,0,6,,,,,,,,5,,,45,105
173400,note_on,24,0,5,,,,,,,,4,,,33,105
173400,note_on,24,0,4,,,,,,,,3,,,45,105
173472,note_on,192,0,2,,,,,,,,1,,,64,0
173472,note_on,192,0,1,,,,,,,,0,,,64,0
173472,note_on,72,0,6,,,,,,,,5,,,69,0
173472,note_on,192,0,3,,,,,,,,2,,,57,0
173496,note_on,96,0,4,,,,,,,,3,,,45,0
173496,note_on,24,0,6,,,,,,,,5,,,45,0
173496,note_on,96,0,5,,,,,,,,4,,,33,0
173520,note_on,48,0,1,,,,,,,,0,,,83,105
173520,note_on,48,0,3,,,,,,,,2,,,68,72
173520,note_on,24,0,6,,,,,,,,5,,,52,105
173520,note_on,0,0,6,,,,,,,,5,,,71,105
173520,note_on,24,0,5,,,,,,,,4,,,40,105
173520,note_on,48,0,2,,,,,,,,1,,,83,105
173520,note_on,24,0,4,,,,,,,,3,,,52,105
173568,note_on,48,0,1,,,,,,,,0,,,83,0
173568,note_on,48,0,2,,,,,,,,1,,,83,0
173580,note_on,12,0,1,,,,,,,,0,,,80,105
173580,note_on,12,0,2,,,,,,,,1,,,80,105
173616,note_on,96,0,4,,,,,,,,3,,,52,0
173616,note_on,96,0,6,,,,,,,,5,,,52,0
173616,note_on,96,0,3,,,,,,,,2,,,68,0
173616,note_on,96,0,5,,,,,,,,4,,,40,0
173628,note_on,48,0,2,,,,,,,,1,,,80,0
173628,note_on,48,0,1,,,,,,,,0,,,80,0
173640,note_on,24,0,4,,,,,,,,3,,,56,105
173640,note_on,12,0,1,,,,,,,,0,,,74,105
173640,note_on,24,0,3,,,,,,,,2,,,71,72
173640,note_on,24,0,5,,,,,,,,4,,,44,105
173640,note_on,24,0,6,,,,,,,,5,,,56,105
173640,note_on,12,0,2,,,,,,,,1,,,74,105
173688,note_on,48,0,1,,,,,,,,0,,,74,0
173688,note_on,48,0,2,,,,,,,,1,,,74,0
173700,note_on,12,0,2,,,,,,,,1,,,71,105
173700,note_on,12,0,1,,,,,,,,0,,,71,105
173712,note_on,72,0,6,,,,,,,,5,,,71,0
173736,note_on,96,0,4,,,,,,,,3,,,56,0
173736,note_on,96,0,5,,,,,,,,4,,,44,0
173736,note_on,96,0,3,,,,,,,,2,,,71,0
173736,note_on,24,0,6,,,,,,,,5,,,56,0
173748,note_on,48,0,1,,,,,,,,0,,,71,0
173748,note_on,48,0,2,,,,,,,,1,,,71,0
173760,note_on,12,0,1,,,,,,,,0,,,73,105
173760,note_on,24,0,3,,,,,,,,2,,,64,72
173760,note_on,12,0,2,,,,,,,,1,,,73,105
173760,note_on,24,0,6,,,,,,,,5,,,73,105
173760,note_on,24,0,4,,,,,,,,3,,,57,105
173760,note_on,24,0,5,,,,,,,,4,,,45,105
173760,note_on,0,0,6,,,,,,,,5,,,57,105
173856,note_on,96,0,1,,,,,,,,0,,,73,0
173856,note_on,96,0,4,,,,,,,,3,,,57,0
173856,note_on,96,0,2,,,,,,,,1,,,73,0
173856,note_on,96,0,5,,,,,,,,4,,,45,0
173856,note_on,96,0,6,,,,,,,,5,,,57,0
173880,note_on,24,0,6,,,,,,,,5,,,45,105
173880,note_on,24,0,4,,,,,,,,3,,,45,105
173880,note_on,24,0,1,,,,,,,,0,,,73,105
173880,note_on,24,0,2,,,,,,,,1,,,69,105
173880,note_on,24,0,5,,,,,,,,4,,,33,105
173928,note_on,48,0,2,,,,,,,,1,,,69,0
173928,note_on,48,0,1,,,,,,,,0,,,73,0
173940,note_on,12,0,2,,,,,,,,1,,,71,105
173940,note_on,12,0,1,,,,,,,,0,,,74,105
173952,note_on,192,0,3,,,,,,,,2,,,64,0
173952,note_on,0,0,6,,,,,,,,5,,,64,0
173952,note_on,72,0,6,,,,,,,,5,,,73,0
173976,note_on,24,0,6,,,,,,,,5,,,45,0
173976,note_on,96,0,5,,,,,,,,4,,,33,0
173976,note_on,96,0,4,,,,,,,,3,,,45,0
173988,note_on,48,0,2,,,,,,,,1,,,71,0
173988,note_on,48,0,1,,,,,,,,0,,,74,0
174000,note_on,12,0,2,,,,,,,,1,,,73,105
174000,note_on,12,0,1,,,,,,,,0,,,76,105
174120,note_on,144,0,5,,,,,,,,4,,,49,105
174120,note_on,168,0,3,,,,,,,,2,,,64,72
174120,note_on,144,0,6,,,,,,,,5,,,76,105
174120,note_on,0,0,6,,,,,,,,5,,,61,105
174120,note_on,144,0,4,,,,,,,,3,,,61,105
174168,note_on,48,0,6,,,,,,,,5,,,61,0
174168,note_on,0,0,6,,,,,,,,5,,,76,0
174168,note_on,48,0,5,,,,,,,,4,,,49,0
174168,note_on,48,0,4,,,,,,,,3,,,61,0
174168,note_on,48,0,3,,,,,,,,2,,,64,0
174180,note_on,12,0,4,,,,,,,,3,,,59,105
174180,note_on,12,0,6,,,,,,,,5,,,74,105
174180,note_on,0,0,6,,,,,,,,5,,,59,105
174180,note_on,12,0,5,,,,,,,,4,,,47,105
174180,note_on,12,0,3,,,,,,,,2,,,62,72
174228,note_on,48,0,3,,,,,,,,2,,,62,0
174228,note_on,48,0,5,,,,,,,,4,,,47,0
174228,note_on,0,0,6,,,,,,,,5,,,74,0
174228,note_on,48,0,6,,,,,,,,5,,,59,0
174228,note_on,48,0,4,,,,,,,,3,,,59,0
174240,note_on,12,0,3,,,,,,,,2,,,61,72
174240,note_on,12,0,4,,,,,,,,3,,,57,105
174240,note_on,0,0,6,,,,,,,,5,,,64,105
174240,note_on,0,0,6,,,,,,,,5,,,57,105
174240,note_on,12,0,5,,,,,,,,4,,,45,105
174240,note_on,12,0,6,,,,,,,,5,,,73,105
174336,note_on,96,0,5,,,,,,,,4,,,45,0
174336,note_on,96,0,4,,,,,,,,3,,,57,0
174336,note_on,336,0,2,,,,,,,,1,,,73,0
174336,note_on,96,0,6,,,,,,,,5,,,57,0
174336,note_on,336,0,1,,,,,,,,0,,,76,0
174360,note_on,24,0,2,,,,,,,,1,,,69,105
174360,note_on,24,0,1,,,,,,,,0,,,73,105
174360,note_on,24,0,4,,,,,,,,3,,,45,105
174360,note_on,24,0,6,,,,,,,,5,,,45,105
174360,note_on,24,0,5,,,,,,,,4,,,33,105
174408,note_on,48,0,1,,,,,,,,0,,,73,0
174408,note_on,48,0,2,,,,,,,,1,,,69,0
174420,note_on,12,0,2,,,,,,,,1,,,71,105
174420,note_on,12,0,1,,,,,,,,0,,,74,105
174432,note_on,72,0,6,,,,,,,,5,,,64,0
174432,note_on,0,0,6,,,,,,,,5,,,73,0
174432,note_on,192,0,3,,,,,,,,2,,,61,0
174456,note_on,96,0,5,,,,,,,,4,,,33,0
174456,note_on,96,0,4,,,,,,,,3,,,45,0
174456,note_on,24,0,6,,,,,,,,5,,,45,0
174468,note_on,48,0,1,,,,,,,,0,,,74,0
174468,note_on,48,0,2,,,,,,,,1,,,71,0
174480,note_on,12,0,2,,,,,,,,1,,,73,105
174480,note_on,12,0,1,,,,,,,,0,,,76,105
174576,note_on,96,0,2,,,,,,,,1,,,73,0
174576,note_on,96,0,1,,,,,,,,0,,,76,0
174600,note_on,0,0,6,,,,,,,,5,,,68,105
174600,note_on,144,0,4,,,,,,,,3,,,52,105
174600,note_on,24,0,2,,,,,,,,1,,,74,105
174600,note_on,168,0,3,,,,,,,,2,,,68,72
174600,note_on,144,0,5,,,,,,,,4,,,40,105
174600,note_on,24,0,1,,,,,,,,0,,,78,105
174600,note_on,144,0,6,,,,,,,,5,,,52,105
174600,note_on,0,0,6,,,,,,,,5,,,71,105
174648,note_on,48,0,2,,,,,,,,1,,,74,0
174648,note_on,48,0,1,,,,,,,,0,,,78,0
174660,note_on,12,0,2,,,,,,,,1,,,76,105
174660,note_on,12,0,1,,,,,,,,0,,,80,105
174696,note_on,0,0,6,,,,,,,,5,,,71,0
174696,note_on,96,0,4,,,,,,,,3,,,52,0
174696,note_on,0,0,6,,,,,,,,5,,,52,0
174696,note_on,96,0,5,,,,,,,,4,,,40,0
174696,note_on,96,0,3,,,,,,,,2,,,68,0
174696,note_on,96,0,6,,,,,,,,5,,,68,0
174708,note_on,48,0,1,,,,,,,,0,,,80,0
174708,note_on,48,0,2,,,,,,,,1,,,76,0
174720,note_on,24,0,4,,,,,,,,3,,,57,105
174720,note_on,12,0,2,,,,,,,,1,,,73,105
174720,note_on,12,0,1,,,,,,,,0,,,81,105
174720,note_on,24,0,3,,,,,,,,2,,,64,72
174720,note_on,24,0,5,,,,,,,,4,,,45,105
174720,note_on,0,0,6,,,,,,,,5,,,64,105
174720,note_on,0,0,6,,,,,,,,5,,,57,105
174720,note_on,24,0,6,,,,,,,,5,,,73,105
174768,note_on,48,0,2,,,,,,,,1,,,73,0
174768,note_on,48,0,1,,,,,,,,0,,,81,0
174780,note_on,12,0,2,,,,,,,,1,,,76,105
174780,note_on,12,0,1,,,,,,,,0,,,76,105
174816,note_on,96,0,3,,,,,,,,2,,,64,0
174816,note_on,96,0,4,,,,,,,,3,,,57,0
174816,note_on,96,0,5,,,,,,,,4,,,45,0
174816,note_on,96,0,6,,,,,,,,5,,,57,0
174828,note_on,48,0,2,,,,,,,,1,,,76,0
174828,note_on,48,0,1,,,,,,,,0,,,76,0
174840,note_on,24,0,5,,,,,,,,4,,,33,105
174840,note_on,12,0,2,,,,,,,,1,,,73,105
174840,note_on,12,0,1,,,,,,,,0,,,73,105
174840,note_on,24,0,6,,,,,,,,5,,,45,105
174840,note_on,24,0,4,,,,,,,,3,,,45,105
174840,note_on,24,0,3,,,,,,,,2,,,64,72
174888,note_on,48,0,1,,,,,,,,0,,,73,0
174888,note_on,48,0,2,,,,,,,,1,,,73,0
174900,note_on,12,0,2,,,,,,,,1,,,69,105
174900,note_on,12,0,1,,,,,,,,0,,,69,105
174912,note_on,0,0,6,,,,,,,,5,,,73,0
174912,note_on,72,0,6,,,,,,,,5,,,64,0
174936,note_on,24,0,6,,,,,,,,5,,,45,0
174936,note_on,96,0,5,,,,,,,,4,,,33,0
174936,note_on,96,0,4,,,,,,,,3,,,45,0
174936,note_on,96,0,3,,,,,,,,2,,,64,0
174948,note_on,48,0,2,,,,,,,,1,,,69,0
174948,note_on,48,0,1,,,,,,,,0,,,69,0
174960,note_on,24,0,3,,,,,,,,2,,,61,72
174960,note_on,12,0,2,,,,,,,,1,,,64,105
174960,note_on,24,0,6,,,,,,,,5,,,45,105
174960,note_on,12,0,1,,,,,,,,0,,,64,105
174960,note_on,24,0,4,,,,,,,,3,,,45,105
174960,note_on,24,0,5,,,,,,,,4,,,33,105
175056,note_on,96,0,6,,,,,,,,5,,,45,0
175056,note_on,96,0,5,,,,,,,,4,,,33,0
175056,note_on,96,0,4,,,,,,,,3,,,45,0
175056,note_on,96,0,3,,,,,,,,2,,,61,0
175080,note_on,24,0,3,,,,,,,,2,,,61,72
175080,note_on,0,0,6,,,,,,,,5,,,73,105
175080,note_on,0,0,6,,,,,,,,5,,,76,105
175080,note_on,24,0,6,,,,,,,,5,,,45,105
175080,note_on,24,0,5,,,,,,,,4,,,33,105
175080,note_on,24,0,4,,,,,,,,3,,,45,105
175152,note_on,192,0,1,,,,,,,,0,,,64,0
175152,note_on,192,0,2,,,,,,,,1,,,64,0
175176,note_on,96,0,5,,,,,,,,4,,,33,0
175176,note_on,96,0,3,,,,,,,,2,,,61,0
175176,note_on,0,0,6,,,,,,,,5,,,76,0
175176,note_on,0,0,6,,,,,,,,5,,,45,0
175176,note_on,96,0,6,,,,,,,,5,,,73,0
175176,note_on,96,0,4,,,,,,,,3,,,45,0
175200,note_on,48,0,1,,,,,,,,0,,,65,105
175200,note_on,24,0,3,,,,,,,,2,,,62,72
175200,note_on,0,0,6,,,,,,,,5,,,74,105
175200,note_on,0,0,6,,,,,,,,5,,,44,105
175200,note_on,24,0,6,,,,,,,,5,,,77,105
175200,note_on,24,0,4,,,,,,,,3,,,44,105
175200,note_on,48,0,2,,,,,,,,1,,,65,105
175200,note_on,24,0,5,,,,,,,,4,,,32,105
175296,note_on,96,0,6,,,,,,,,5,,,44,0
175296,note_on,96,0,4,,,,,,,,3,,,44,0
175296,note_on,96,0,5,,,,,,,,4,,,32,0
175296,note_on,96,0,3,,,,,,,,2,,,62,0
175320,note_on,24,0,4,,,,,,,,3,,,44,105
175320,note_on,24,0,3,,,,,,,,2,,,62,72
175320,note_on,24,0,6,,,,,,,,5,,,44,105
175320,note_on,24,0,5,,,,,,,,4,,,32,105
175392,note_on,192,0,2,,,,,,,,1,,,65,0
175392,note_on,192,0,1,,,,,,,,0,,,65,0
175392,note_on,72,0,6,,,,,,,,5,,,74,0
175392,note_on,0,0,6,,,,,,,,5,,,77,0
175416,note_on,96,0,4,,,,,,,,3,,,44,0
175416,note_on,96,0,5,,,,,,,,4,,,32,0
175416,note_on,96,0,3,,,,,,,,2,,,62,0
175416,note_on,24,0,6,,,,,,,,5,,,44,0
175440,note_on,0,0,6,,,,,,,,5,,,76,105
175440,note_on,24,0,6,,,,,,,,5,,,45,105
175440,note_on,24,0,3,,,,,,,,2,,,61,72
175440,note_on,0,0,6,,,,,,,,5,,,73,105
175440,note_on,48,0,2,,,,,,,,1,,,64,105
175440,note_on,24,0,4,,,,,,,,3,,,45,105
175440,note_on,48,0,1,,,,,,,,0,,,64,105
175440,note_on,24,0,5,,,,,,,,4,,,33,105
175536,note_on,0,0,6,,,,,,,,5,,,76,0
175536,note_on,96,0,5,,,,,,,,4,,,33,0
175536,note_on,96,0,2,,,,,,,,1,,,64,0
175536,note_on,96,0,3,,,,,,,,2,,,61,0
175536,note_on,96,0,4,,,,,,,,3,,,45,0
175536,note_on,0,0,6,,,,,,,,5,,,45,0
175536,note_on,96,0,6,,,,,,,,5,,,73,0
175536,note_on,96,0,1,,,,,,,,0,,,64,0
175560,note_on,0,0,6,,,,,,,,5,,,40,105
175560,note_on,24,0,4,,,,,,,,3,,,40,105
175560,note_on,24,0,3,,,,,,,,2,,,68,72
175560,note_on,24,0,6,,,,,,,,5,,,74,105
175560,note_on,0,0,6,,,,,,,,5,,,71,105
175560,note_on,24,0,5,,,,,,,,4,,,28,105
175560,note_on,24,0,1,,,,,,,,0,,,74,105
175560,note_on,24,0,2,,,,,,,,1,,,74,105
175656,note_on,96,0,4,,,,,,,,3,,,40,0
175656,note_on,96,0,1,,,,,,,,0,,,74,0
175656,note_on,96,0,2,,,,,,,,1,,,74,0
175656,note_on,0,0,6,,,,,,,,5,,,40,0
175656,note_on,0,0,6,,,,,,,,5,,,74,0
175656,note_on,96,0,3,,,,,,,,2,,,68,0
175656,note_on,96,0,6,,,,,,,,5,,,71,0
175656,note_on,96,0,5,,,,,,,,4,,,28,0
175680,note_on,24,0,2,,,,,,,,1,,,73,105
175680,note_on,24,0,4,,,,,,,,3,,,45,105
175680,note_on,24,0,3,,,,,,,,2,,,64,72
175680,note_on,24,0,1,,,,,,,,0,,,73,105
175680,note_on,24,0,6,,,,,,,,5,,,73,105
175680,note_on,0,0,6,,,,,,,,5,,,45,105
175680,note_on,0,0,6,,,,,,,,5,,,69,105
175680,note_on,24,0,5,,,,,,,,4,,,33,105
175776,note_on,96,0,5,,,,,,,,4,,,33,0
175776,note_on,96,0,6,,,,,,,,5,,,45,0
175776,note_on,96,0,2,,,,,,,,1,,,73,0
175776,note_on,96,0,3,,,,,,,,2,,,64,0
175776,note_on,96,0,4,,,,,,,,3,,,45,0
175776,note_on,96,0,1,,,,,,,,0,,,73,0
175800,note_on,24,0,3,,,,,,,,2,,,64,72
175800,note_on,24,0,6,,,,,,,,5,,,45,105
175800,note_on,24,0,5,,,,,,,,4,,,33,105
175800,note_on,24,0,4,,,,,,,,3,,,45,105
175800,note_on,24,0,2,,,,,,,,1,,,71,105
175800,note_on,24,0,1,,,,,,,,0,,,71,105
175848,note_on,48,0,2,,,,,,,,1,,,71,0
175848,note_on,48,0,1,,,,,,,,0,,,71,0
175860,note_on,12,0,1,,,,,,,,0,,,69,105
175860,note_on,12,0,2,,,,,,,,1,,,69,105
175872,note_on,72,0,6,,,,,,,,5,,,69,0
175872,note_on,0,0,6,,,,,,,,5,,,73,0
175896,note_on,96,0,3,,,,,,,,2,,,64,0
175896,note_on,96,0,4,,,,,,,,3,,,45,0
175896,note_on,24,0,6,,,,,,,,5,,,45,0
175896,note_on,96,0,5,,,,,,,,4,,,33,0
175908,note_on,48,0,1,,,,,,,,0,,,69,0
175908,note_on,48,0,2,,,,,,,,1,,,69,0
175920,note_on,24,0,3,,,,,,,,2,,,66,72
175920,note_on,24,0,4,,,,,,,,3,,,50,105
175920,note_on,0,0,6,,,,,,,,5,,,66,105
175920,note_on,0,0,6,,,,,,,,5,,,50,105
175920,note_on,24,0,6,,,,,,,,5,,,71,105
175920,note_on,12,0,1,,,,,,,,0,,,71,105
175920,note_on,12,0,2,,,,,,,,1,,,71,105
175920,note_on,24,0,5,,,,,,,,4,,,38,105
176016,note_on,0,0,6,,,,,,,,5,,,71,0
176016,note_on,96,0,5,,,,,,,,4,,,38,0
176016,note_on,96,0,4,,,,,,,,3,,,50,0
176016,note_on,96,0,3,,,,,,,,2,,,66,0
176016,note_on,96,0,2,,,,,,,,1,,,71,0
176016,note_on,96,0,6,,,,,,,,5,,,66,0
176016,note_on,0,0,6,,,,,,,,5,,,50,0
176016,note_on,96,0,1,,,,,,,,0,,,71,0
176040,note_on,24,0,2,,,,,,,,1,,,68,105
176040,note_on,0,0,6,,,,,,,,5,,,52,105
176040,note_on,24,0,4,,,,,,,,3,,,52,105
176040,note_on,0,0,6,,,,,,,,5,,,59,105
176040,note_on,24,0,1,,,,,,,,0,,,68,105
176040,note_on,24,0,6,,,,,,,,5,,,68,105
176040,note_on,24,0,5,,,,,,,,4,,,40,105
176040,note_on,24,0,3,,,,,,,,2,,,64,72
176136,note_on,96,0,3,,,,,,,,2,,,64,0
176136,note_on,96,0,5,,,,,,,,4,,,40,0
176136,note_on,96,0,6,,,,,,,,5,,,59,0
176136,note_on,0,0,6,,,,,,,,5,,,52,0
176136,note_on,0,0,6,,,,,,,,5,,,68,0
176136,note_on,96,0,2,,,,,,,,1,,,68,0
176136,note_on,96,0,4,,,,,,,,3,,,52,0
176136,note_on,96,0,1,,,,,,,,0,,,68,0
176160,note_on,24,0,3,,,,,,,,2,,,61,72
176160,note_on,24,0,4,,,,,,,,3,,,45,72
176160,note_on,0,0,6,,,,,,,,5,,,45,72
176160,note_on,24,0,6,,,,,,,,5,,,69,72
176160,note_on,24,0,1,,,,,,,,0,,,69,105
176160,note_on,24,0,5,,,,,,,,4,,,33,72
176160,note_on,24,0,2,,,,,,,,1,,,69,72
176160,note_on,0,0,6,,,,,,,,5,,,61,72
176208,note_on,48,0,2,,,,,,,,1,,,69,0
176208,note_on,48,0,1,,,,,,,,0,,,69,0
176220,note_on,12,0,1,,,,,,,,0,,,76,105
176220,note_on,12,0,2,,,,,,,,1,,,76,72
176256,note_on,96,0,3,,,,,,,,2,,,61,0
176256,note_on,96,0,5,,,,,,,,4,,,33,0
176256,note_on,96,0,4,,,,,,,,3,,,45,0
176256,note_on,96,0,6,,,,,,,,5,,,45,0
176268,note_on,48,0,1,,,,,,,,0,,,76,0
176268,note_on,48,0,2,,,,,,,,1,,,76,0
176280,note_on,24,0,5,,,,,,,,4,,,33,72
176280,note_on,24,0,3,,,,,,,,2,,,61,72
176280,note_on,24,0,6,,,,,,,,5,,,45,72
176280,note_on,12,0,2,,,,,,,,1,,,73,72
176280,note_on,12,0,1,,,,,,,,0,,,73,105
176280,note_on,24,0,4,,,,,,,,3,,,45,72
176328,note_on,48,0,2,,,,,,,,1,,,73,0
176328,note_on,48,0,1,,,,,,,,0,,,73,0
176340,note_on,12,0,2,,,,,,,,1,,,69,72
176340,note_on,12,0,1,,,,,,,,0,,,69,105
176352,note_on,0,0,6,,,,,,,,5,,,69,0
176352,note_on,72,0,6,,,,,,,,5,,,61,0
176376,note_on,96,0,4,,,,,,,,3,,,45,0
176376,note_on,96,0,5,,,,,,,,4,,,33,0
176376,note_on,96,0,3,,,,,,,,2,,,61,0
176376,note_on,24,0,6,,,,,,,,5,,,45,0
176388,note_on,48,0,2,,,,,,,,1,,,69,0
176388,note_on,48,0,1,,,,,,,,0,,,69,0
176400,note_on,24,0,6,,,,,,,,5,,,45,72
176400,note_on,12,0,2,,,,,,,,1,,,64,72
176400,note_on,24,0,4,,,,,,,,3,,,45,72
176400,note_on,24,0,3,,,,,,,,2,,,61,72
176400,note_on,24,0,5,,,,,,,,4,,,33,72
176400,note_on,12,0,1,,,,,,,,0,,,64,105
176496,note_on,96,0,6,,,,,,,,5,,,45,0
176496,note_on,96,0,5,,,,,,,,4,,,33,0
176496,note_on,96,0,3,,,,,,,,2,,,61,0
176496,note_on,96,0,4,,,,,,,,3,,,45,0
176520,note_on,24,0,5,,,,,,,,4,,,33,72
176520,note_on,0,0,6,,,,,,,,5,,,73,72
176520,note_on,24,0,6,,,,,,,,5,,,45,72
176520,note_on,0,0,6,,,,,,,,5,,,76,72
176520,note_on,24,0,4,,,,,,,,3,,,45,72
176520,note_on,24,0,3,,,,,,,,2,,,61,72
176592,note_on,192,0,2,,,,,,,,1,,,64,0
176592,note_on,192,0,1,,,,,,,,0,,,64,0
176616,note_on,96,0,3,,,,,,,,2,,,61,0
176616,note_on,96,0,4,,,,,,,,3,,,45,0
176616,note_on,96,0,5,,,,,,,,4,,,33,0
176616,note_on,96,0,6,,,,,,,,5,,,73,0
176616,note_on,0,0,6,,,,,,,,5,,,76,0
176616,note_on,0,0,6,,,,,,,,5,,,45,0
176640,note_on,24,0,6,,,,,,,,5,,,77,72
176640,note_on,0,0,6,,,,,,,,5,,,44,72
176640,note_on,0,0,6,,,,,,,,5,,,74,72
176640,note_on,48,0,1,,,,,,,,0,,,65,105
176640,note_on,24,0,5,,,,,,,,4,,,32,72
176640,note_on,24,0,3,,,,,,,,2,,,62,72
176640,note_on,48,0,2,,,,,,,,1,,,65,72
176640,note_on,24,0,4,,,,,,,,3,,,44,72
176736,note_on,96,0,5,,,,,,,,4,,,32,0
176736,note_on,96,0,6,,,,,,,,5,,,44,0
176736,note_on,96,0,3,,,,,,,,2,,,62,0
176736,note_on,96,0,4,,,,,,,,3,,,44,0
176760,note_on,24,0,6,,,,,,,,5,,,44,72
176760,note_on,24,0,4,,,,,,,,3,,,44,72
176760,note_on,24,0,3,,,,,,,,2,,,62,72
176760,note_on,24,0,5,,,,,,,,4,,,32,72
176832,note_on,192,0,2,,,,,,,,1,,,65,0
176832,note_on,192,0,1,,,,,,,,0,,,65,0
176832,note_on,0,0,6,,,,,,,,5,,,77,0
176832,note_on,72,0,6,,,,,,,,5,,,74,0
176856,note_on,24,0,6,,,,,,,,5,,,44,0
176856,note_on,96,0,3,,,,,,,,2,,,62,0
176856,note_on,96,0,4,,,,,,,,3,,,44,0
176856,note_on,96,0,5,,,,,,,,4,,,32,0
176880,note_on,24,0,4,,,,,,,,3,,,45,72
176880,note_on,0,0,6,,,,,,,,5,,,73,72
176880,note_on,0,0,6,,,,,,,,5,,,76,72
176880,note_on,24,0,6,,,,,,,,5,,,45,72
176880,note_on,24,0,5,,,,,,,,4,,,33,72
176880,note_on,24,0,3,,,,,,,,2,,,61,72
176880,note_on,48,0,1,,,,,,,,0,,,64,105
176880,note_on,48,0,2,,,,,,,,1,,,64,72
176976,note_on,96,0,6,,,,,,,,5,,,73,0
176976,note_on,96,0,4,,,,,,,,3,,,45,0
176976,note_on,96,0,3,,,,,,,,2,,,61,0
176976,note_on,0,0,6,,,,,,,,5,,,76,0
176976,note_on,0,0,6,,,,,,,,5,,,45,0
176976,note_on,96,0,2,,,,,,,,1,,,64,0
176976,note_on,96,0,1,,,,,,,,0,,,64,0
176976,note_on,96,0,5,,,,,,,,4,,,33,0
177000,note_on,24,0,1,,,,,,,,0,,,74,105
177000,note_on,24,0,3,,,,,,,,2,,,68,72
177000,note_on,24,0,4,,,,,,,,3,,,40,72
177000,note_on,24,0,2,,,,,,,,1,,,74,72
177000,note_on,0,0,6,,,,,,,,5,,,40,72
177000,note_on,0,0,6,,,,,,,,5,,,71,72
177000,note_on,24,0,5,,,,,,,,4,,,28,72
177000,note_on,24,0,6,,,,,,,,5,,,74,72
177096,note_on,96,0,3,,,,,,,,2,,,68,0
177096,note_on,96,0,5,,,,,,,,4,,,28,0
177096,note_on,96,0,1,,,,,,,,0,,,74,0
177096,note_on,96,0,2,,,,,,,,1,,,74,0
177096,note_on,96,0,6,,,,,,,,5,,,71,0
177096,note_on,0,0,6,,,,,,,,5,,,40,0
177096,note_on,96,0,4,,,,,,,,3,,,40,0
177096,note_on,0,0,6,,,,,,,,5,,,74,0
177120,note_on,24,0,1,,,,,,,,0,,,73,105
177120,note_on,24,0,4,,,,,,,,3,,,45,72
177120,note_on,24,0,6,,,,,,,,5,,,73,72
177120,note_on,0,0,6,,,,,,,,5,,,45,72
177120,note_on,0,0,6,,,,,,,,5,,,69,72
177120,note_on,24,0,5,,,,,,,,4,,,33,72
177120,note_on,24,0,2,,,,,,,,1,,,73,72
177120,note_on,24,0,3,,,,,,,,2,,,64,72
177216,note_on,96,0,6,,,,,,,,5,,,45,0
177216,note_on,96,0,5,,,,,,,,4,,,33,0
177216,note_on,96,0,3,,,,,,,,2,,,64,0
177216,note_on,96,0,1,,,,,,,,0,,,73,0
177216,note_on,96,0,2,,,,,,,,1,,,73,0
177216,note_on,96,0,4,,,,,,,,3,,,45,0
177240,note_on,24,0,2,,,,,,,,1,,,71,72
177240,note_on,24,0,1,,,,,,,,0,,,71,105
177240,note_on,24,0,3,,,,,,,,2,,,64,72
177240,note_on,24,0,6,,,,,,,,5,,,45,72
177240,note_on,24,0,5,,,,,,,,4,,,33,72
177240,note_on,24,0,4,,,,,,,,3,,,45,72
177288,note_on,48,0,1,,,,,,,,0,,,71,0
177288,note_on,48,0,2,,,,,,,,1,,,71,0
177300,note_on,12,0,1,,,,,,,,0,,,69,105
177300,note_on,12,0,2,,,,,,,,1,,,69,72
177312,note_on,72,0,6,,,,,,,,5,,,69,0
177312,note_on,0,0,6,,,,,,,,5,,,73,0
177336,note_on,96,0,4,,,,,,,,3,,,45,0
177336,note_on,96,0,3,,,,,,,,2,,,64,0
177336,note_on,24,0,6,,,,,,,,5,,,45,0
177336,note_on,96,0,5,,,,,,,,4,,,33,0
177348,note_on,48,0,1,,,,,,,,0,,,69,0
177348,note_on,48,0,2,,,,,,,,1,,,69,0
177360,note_on,12,0,2,,,,,,,,1,,,71,72
177360,note_on,12,0,1,,,,,,,,0,,,71,105
177360,note_on,24,0,4,,,,,,,,3,,,50,72
177360,note_on,24,0,6,,,,,,,,5,,,71,72
177360,note_on,0,0,6,,,,,,,,5,,,50,72
177360,note_on,0,0,6,,,,,,,,5,,,66,72
177360,note_on,24,0,3,,,,,,,,2,,,66,72
177360,note_on,24,0,5,,,,,,,,4,,,38,72
177456,note_on,96,0,2,,,,,,,,1,,,71,0
177456,note_on,96,0,4,,,,,,,,3,,,50,0
177456,note_on,96,0,3,,,,,,,,2,,,66,0
177456,note_on,96,0,1,,,,,,,,0,,,71,0
177456,note_on,0,0,6,,,,,,,,5,,,71,0
177456,note_on,0,0,6,,,,,,,,5,,,50,0
177456,note_on,96,0,6,,,,,,,,5,,,66,0
177456,note_on,96,0,5,,,,,,,,4,,,38,0
177480,note_on,24,0,5,,,,,,,,4,,,40,72
177480,note_on,0,0,6,,,,,,,,5,,,59,72
177480,note_on,0,0,6,,,,,,,,5,,,52,72
177480,note_on,24,0,3,,,,,,,,2,,,64,72
177480,note_on,24,0,6,,,,,,,,5,,,68,72
177480,note_on,24,0,2,,,,,,,,1,,,68,72
177480,note_on,24,0,1,,,,,,,,0,,,68,105
177480,note_on,24,0,4,,,,,,,,3,,,52,72
177576,note_on,96,0,6,,,,,,,,5,,,59,0
177576,note_on,96,0,2,,,,,,,,1,,,68,0
177576,note_on,96,0,4,,,,,,,,3,,,52,0
177576,note_on,0,0,6,,,,,,,,5,,,52,0
177576,note_on,96,0,1,,,,,,,,0,,,68,0
177576,note_on,96,0,3,,,,,,,,2,,,64,0
177576,note_on,96,0,5,,,,,,,,4,,,40,0
177576,note_on,0,0,6,,,,,,,,5,,,68,0
177600,note_on,24,0,1,,,,,,,,0,,,69,105
177600,note_on,24,0,6,,,,,,,,5,,,73,105
177600,note_on,24,0,2,,,,,,,,1,,,69,105
177600,note_on,0,0,6,,,,,,,,5,,,45,105
177600,note_on,24,0,3,,,,,,,,2,,,61,105
177600,note_on,0,0,6,,,,,,,,5,,,61,105
177600,note_on,24,0,5,,,,,,,,4,,,33,105
177600,note_on,24,0,4,,,,,,,,3,,,45,105
177696,note_on,96,0,4,,,,,,,,3,,,45,0
177696,note_on,96,0,3,,,,,,,,2,,,61,0
177696,note_on,0,0,6,,,,,,,,5,,,45,0
177696,note_on,0,0,6,,,,,,,,5,,,73,0
177696,note_on,96,0,6,,,,,,,,5,,,61,0
177696,note_on,96,0,1,,,,,,,,0,,,69,0
177696,note_on,96,0,5,,,,,,,,4,,,33,0
177696,note_on,96,0,2,,,,,,,,1,,,69,0
177720,note_on,24,0,2,,,,,,,,1,,,78,105
177720,note_on,24,0,5,,,,,,,,4,,,38,105
177720,note_on,0,0,6,,,,,,,,5,,,66,105
177720,note_on,0,0,6,,,,,,,,5,,,62,105
177720,note_on,24,0,6,,,,,,,,5,,,57,105
177720,note_on,24,0,1,,,,,,,,0,,,81,105
177720,note_on,24,0,3,,,,,,,,2,,,62,105
177720,note_on,24,0,4,,,,,,,,3,,,50,105
177768,note_on,48,0,1,,,,,,,,0,,,81,0
177768,note_on,48,0,2,,,,,,,,1,,,78,0
177780,note_on,12,0,2,,,,,,,,1,,,74,105
177780,note_on,12,0,1,,,,,,,,0,,,78,105
177816,note_on,96,0,4,,,,,,,,3,,,50,0
177816,note_on,96,0,3,,,,,,,,2,,,62,0
177816,note_on,96,0,6,,,,,,,,5,,,66,0
177816,note_on,0,0,6,,,,,,,,5,,,62,0
177816,note_on,0,0,6,,,,,,,,5,,,57,0
177816,note_on,96,0,5,,,,,,,,4,,,38,0
177828,note_on,48,0,2,,,,,,,,1,,,74,0
177828,note_on,48,0,1,,,,,,,,0,,,78,0
177840,note_on,24,0,4,,,,,,,,3,,,57,105
177840,note_on,12,0,2,,,,,,,,1,,,73,105
177840,note_on,12,0,1,,,,,,,,0,,,76,105
177840,note_on,24,0,5,,,,,,,,4,,,45,105
177840,note_on,0,0,6,,,,,,,,5,,,61,105
177840,note_on,24,0,6,,,,,,,,5,,,50,105
177840,note_on,24,0,3,,,,,,,,2,,,64,105
177840,note_on,0,0,6,,,,,,,,5,,,64,105
177936,note_on,96,0,6,,,,,,,,5,,,64,0
177936,note_on,96,0,5,,,,,,,,4,,,45,0
177936,note_on,96,0,4,,,,,,,,3,,,57,0
177936,note_on,96,0,2,,,,,,,,1,,,73,0
177936,note_on,0,0,6,,,,,,,,5,,,61,0
177936,note_on,96,0,1,,,,,,,,0,,,76,0
177936,note_on,0,0,6,,,,,,,,5,,,50,0
177936,note_on,96,0,3,,,,,,,,2,,,64,0
177960,note_on,24,0,2,,,,,,,,1,,,71,105
177960,note_on,24,0,6,,,,,,,,5,,,59,105
177960,note_on,0,0,6,,,,,,,,5,,,68,105
177960,note_on,24,0,1,,,,,,,,0,,,74,105
177960,note_on,24,0,5,,,,,,,,4,,,40,105
177960,note_on,24,0,3,,,,,,,,2,,,68,105
177960,note_on,0,0,6,,,,,,,,5,,,52,105
177960,note_on,24,0,4,,,,,,,,3,,,52,105
178008,note_on,48,0,1,,,,,,,,0,,,74,0
178008,note_on,48,0,2,,,,,,,,1,,,71,0
178020,note_on,12,0,2,,,,,,,,1,,,68,105
178020,note_on,12,0,1,,,,,,,,0,,,71,105
178056,note_on,96,0,4,,,,,,,,3,,,52,0
178056,note_on,0,0,6,,,,,,,,5,,,68,0
178056,note_on,96,0,6,,,,,,,,5,,,52,0
178056,note_on,96,0,3,,,,,,,,2,,,68,0
178056,note_on,0,0,6,,,,,,,,5,,,59,0
178056,note_on,96,0,5,,,,,,,,4,,,40,0
178068,note_on,48,0,1,,,,,,,,0,,,71,0
178068,note_on,48,0,2,,,,,,,,1,,,68,0
178080,note_on,0,0,6,,,,,,,,5,,,61,105
178080,note_on,24,0,5,,,,,,,,4,,,33,105
178080,note_on,0,0,6,,,,,,,,5,,,45,105
178080,note_on,24,0,6,,,,,,,,5,,,73,105
178080,note_on,24,0,3,,,,,,,,2,,,64,105
178080,note_on,12,0,2,,,,,,,,1,,,69,105
178080,note_on,12,0,1,,,,,,,,0,,,73,105
178080,note_on,24,0,4,,,,,,,,3,,,45,105
178176,note_on,0,0,6,,,,,,,,5,,,73,0
178176,note_on,96,0,5,,,,,,,,4,,,33,0
178176,note_on,96,0,3,,,,,,,,2,,,64,0
178176,note_on,96,0,6,,,,,,,,5,,,61,0
178176,note_on,0,0,6,,,,,,,,5,,,45,0
178176,note_on,96,0,1,,,,,,,,0,,,73,0
178176,note_on,96,0,4,,,,,,,,3,,,45,0
178176,note_on,96,0,2,,,,,,,,1,,,69,0
178200,note_on,24,0,3,,,,,,,,2,,,62,105
178200,note_on,24,0,1,,,,,,,,0,,,81,105
178200,note_on,24,0,2,,,,,,,,1,,,78,105
178200,note_on,0,0,6,,,,,,,,5,,,66,105
178200,note_on,24,0,6,,,,,,,,5,,,57,105
178200,note_on,0,0,6,,,,,,,,5,,,62,105
178200,note_on,24,0,4,,,,,,,,3,,,50,105
178200,note_on,24,0,5,,,,,,,,4,,,38,105
178248,note_on,48,0,1,,,,,,,,0,,,81,0
178248,note_on,48,0,2,,,,,,,,1,,,78,0
178260,note_on,12,0,2,,,,,,,,1,,,74,105
178260,note_on,12,0,1,,,,,,,,0,,,78,105
178296,note_on,96,0,5,,,,,,,,4,,,38,0
178296,note_on,96,0,3,,,,,,,,2,,,62,0
178296,note_on,96,0,6,,,,,,,,5,,,62,0
178296,note_on,0,0,6,,,,,,,,5,,,66,0
178296,note_on,0,0,6,,,,,,,,5,,,57,0
178296,note_on,96,0,4,,,,,,,,3,,,50,0
178308,note_on,48,0,2,,,,,,,,1,,,74,0
178308,note_on,48,0,1,,,,,,,,0,,,78,0
178320,note_on,12,0,1,,,,,,,,0,,,76,105
178320,note_on,24,0,3,,,,,,,,2,,,64,105
178320,note_on,24,0,6,,,,,,,,5,,,61,105
178320,note_on,24,0,4,,,,,,,,3,,,57,105
178320,note_on,12,0,2,,,,,,,,1,,,73,105
178320,note_on,0,0,6,,,,,,,,5,,,50,105
178320,note_on,24,0,5,,,,,,,,4,,,45,105
178320,note_on,0,0,6,,,,,,,,5,,,64,105
178416,note_on,96,0,5,,,,,,,,4,,,45,0
178416,note_on,96,0,2,,,,,,,,1,,,73,0
178416,note_on,96,0,4,,,,,,,,3,,,57,0
178416,note_on,0,0,6,,,,,,,,5,,,61,0
178416,note_on,0,0,6,,,,,,,,5,,,64,0
178416,note_on,96,0,6,,,,,,,,5,,,50,0
178416,note_on,96,0,3,,,,,,,,2,,,64,0
178416,note_on,96,0,1,,,,,,,,0,,,76,0
178440,note_on,24,0,4,,,,,,,,3,,,52,105
178440,note_on,24,0,6,,,,,,,,5,,,52,105
178440,note_on,0,0,6,,,,,,,,5,,,59,105
178440,note_on,24,0,5,,,,,,,,4,,,40,105
178440,note_on,24,0,1,,,,,,,,0,,,74,105
178440,note_on,24,0,3,,,,,,,,2,,,68,105
178440,note_on,0,0,6,,,,,,,,5,,,68,105
178440,note_on,24,0,2,,,,,,,,1,,,71,105
178488,note_on,48,0,1,,,,,,,,0,,,74,0
178488,note_on,48,0,2,,,,,,,,1,,,71,0
178500,note_on,12,0,2,,,,,,,,1,,,68,105
178500,note_on,12,0,1,,,,,,,,0,,,71,105
178536,note_on,0,0,6,,,,,,,,5,,,52,0
178536,note_on,96,0,5,,,,,,,,4,,,40,0
178536,note_on,0,0,6,,,,,,,,5,,,59,0
178536,note_on,96,0,3,,,,,,,,2,,,68,0
178536,note_on,96,0,4,,,,,,,,3,,,52,0
178536,note_on,96,0,6,,,,,,,,5,,,68,0
178548,note_on,48,0,2,,,,,,,,1,,,68,0
178548,note_on,48,0,1,,,,,,,,0,,,71,0
178560,note_on,24,0,5,,,,,,,,4,,,33,105
178560,note_on,0,0,6,,,,,,,,5,,,61,105
178560,note_on,12,0,1,,,,,,,,0,,,69,105
178560,note_on,24,0,6,,,,,,,,5,,,69,105
178560,note_on,0,0,6,,,,,,,,5,,,45,105
178560,note_on,24,0,4,,,,,,,,3,,,45,105
178560,note_on,24,0,3,,,,,,,,2,,,64,105
178560,note_on,12,0,2,,,,,,,,1,,,69,105
178608,note_on,48,0,2,,,,,,,,1,,,69,0
178608,note_on,48,0,1,,,,,,,,0,,,69,0
178620,note_on,12,0,1,,,,,,,,0,,,76,105
178620,note_on,12,0,2,,,,,,,,1,,,76,105
178656,note_on,96,0,6,,,,,,,,5,,,45,0
178656,note_on,96,0,3,,,,,,,,2,,,64,0
178656,note_on,96,0,4,,,,,,,,3,,,45,0
178656,note_on,96,0,5,,,,,,,,4,,,33,0
178668,note_on,48,0,2,,,,,,,,1,,,76,0
178668,note_on,48,0,1,,,,,,,,0,,,76,0
178680,note_on,24,0,4,,,,,,,,3,,,45,105
178680,note_on,24,0,3,,,,,,,,2,,,64,105
178680,note_on,24,0,5,,,,,,,,4,,,33,105
178680,note_on,24,0,6,,,,,,,,5,,,45,105
178680,note_on,12,0,1,,,,,,,,0,,,73,105
178680,note_on,12,0,2,,,,,,,,1,,,73,105
178728,note_on,48,0,1,,,,,,,,0,,,73,0
178728,note_on,48,0,2,,,,,,,,1,,,73,0
178740,note_on,12,0,2,,,,,,,,1,,,69,105
178740,note_on,12,0,1,,,,,,,,0,,,69,105
178752,note_on,72,0,6,,,,,,,,5,,,61,0
178752,note_on,0,0,6,,,,,,,,5,,,69,0
178776,note_on,96,0,4,,,,,,,,3,,,45,0
178776,note_on,24,0,6,,,,,,,,5,,,45,0
178776,note_on,96,0,5,,,,,,,,4,,,33,0
178776,note_on,96,0,3,,,,,,,,2,,,64,0
178788,note_on,48,0,2,,,,,,,,1,,,69,0
178788,note_on,48,0,1,,,,,,,,0,,,69,0
178800,note_on,24,0,4,,,,,,,,3,,,45,105
178800,note_on,24,0,6,,,,,,,,5,,,45,105
178800,note_on,24,0,5,,,,,,,,4,,,33,105
178800,note_on,24,0,3,,,,,,,,2,,,61,105
178800,note_on,12,0,1,,,,,,,,0,,,64,105
178800,note_on,12,0,2,,,,,,,,1,,,64,105
178896,note_on,96,0,5,,,,,,,,4,,,33,0
178896,note_on,96,0,4,,,,,,,,3,,,45,0
178896,note_on,96,0,3,,,,,,,,2,,,61,0
178896,note_on,96,0,6,,,,,,,,5,,,45,0
178920,note_on,0,0,6,,,,,,,,5,,,73,105
178920,note_on,24,0,5,,,,,,,,4,,,33,105
178920,note_on,24,0,4,,,,,,,,3,,,45,105
178920,note_on,24,0,3,,,,,,,,2,,,61,105
178920,note_on,24,0,6,,,,,,,,5,,,45,105
178920,note_on,0,0,6,,,,,,,,5,,,76,105
178992,note_on,192,0,1,,,,,,,,0,,,64,0
178992,note_on,192,0,2,,,,,,,,1,,,64,0
179016,note_on,0,0,6,,,,,,,,5,,,45,0
179016,note_on,0,0,6,,,,,,,,5,,,76,0
179016,note_on,96,0,6,,,,,,,,5,,,73,0
179016,note_on,96,0,5,,,,,,,,4,,,33,0
179016,note_on,96,0,4,,,,,,,,3,,,45,0
179016,note_on,96,0,3,,,,,,,,2,,,61,0
179040,note_on,0,0,6,,,,,,,,5,,,44,105
179040,note_on,48,0,2,,,,,,,,1,,,65,105
179040,note_on,24,0,5,,,,,,,,4,,,32,105
179040,note_on,48,0,1,,,,,,,,0,,,65,105
179040,note_on,24,0,3,,,,,,,,2,,,62,105
179040,note_on,0,0,6,,,,,,,,5,,,77,105
179040,note_on,24,0,6,,,,,,,,5,,,74,105
179040,note_on,24,0,4,,,,,,,,3,,,44,105
179136,note_on,96,0,4,,,,,,,,3,,,44,0
179136,note_on,96,0,3,,,,,,,,2,,,62,0
179136,note_on,96,0,5,,,,,,,,4,,,32,0
179136,note_on,96,0,6,,,,,,,,5,,,44,0
179160,note_on,24,0,4,,,,,,,,3,,,44,105
179160,note_on,24,0,6,,,,,,,,5,,,44,105
179160,note_on,24,0,5,,,,,,,,4,,,32,105
179160,note_on,24,0,3,,,,,,,,2,,,62,105
179232,note_on,0,0,6,,,,,,,,5,,,74,0
179232,note_on,72,0,6,,,,,,,,5,,,77,0
179232,note_on,192,0,2,,,,,,,,1,,,65,0
179232,note_on,192,0,1,,,,,,,,0,,,65,0
179256,note_on,96,0,3,,,,,,,,2,,,62,0
179256,note_on,96,0,5,,,,,,,,4,,,32,0
179256,note_on,96,0,4,,,,,,,,3,,,44,0
179256,note_on,24,0,6,,,,,,,,5,,,44,0
179280,note_on,24,0,3,,,,,,,,2,,,61,105
179280,note_on,48,0,1,,,,,,,,0,,,64,105
179280,note_on,48,0,2,,,,,,,,1,,,64,105
179280,note_on,0,0,6,,,,,,,,5,,,73,105
179280,note_on,0,0,6,,,,,,,,5,,,76,105
179280,note_on,24,0,5,,,,,,,,4,,,33,105
179280,note_on,24,0,4,,,,,,,,3,,,45,105
179280,note_on,24,0,6,,,,,,,,5,,,45,105
179376,note_on,0,0,6,,,,,,,,5,,,76,0
179376,note_on,0,0,6,,,,,,,,5,,,45,0
179376,note_on,96,0,4,,,,,,,,3,,,45,0
179376,note_on,96,0,2,,,,,,,,1,,,64,0
179376,note_on,96,0,1,,,,,,,,0,,,64,0
179376,note_on,96,0,5,,,,,,,,4,,,33,0
179376,note_on,96,0,3,,,,,,,,2,,,61,0
179376,note_on,96,0,6,,,,,,,,5,,,73,0
179400,note_on,24,0,3,,,,,,,,2,,,68,105
179400,note_on,24,0,4,,,,,,,,3,,,40,105
179400,note_on,24,0,2,,,,,,,,1,,,74,105
179400,note_on,24,0,1,,,,,,,,0,,,74,105
179400,note_on,24,0,5,,,,,,,,4,,,28,105
179400,note_on,0,0,6,,,,,,,,5,,,71,105
179400,note_on,24,0,6,,,,,,,,5,,,74,105
179400,note_on,0,0,6,,,,,,,,5,,,40,105
179496,note_on,0,0,6,,,,,,,,5,,,40,0
179496,note_on,96,0,4,,,,,,,,3,,,40,0
179496,note_on,96,0,5,,,,,,,,4,,,28,0
179496,note_on,96,0,3,,,,,,,,2,,,68,0
179496,note_on,96,0,6,,,,,,,,5,,,71,0
179496,note_on,0,0,6,,,,,,,,5,,,74,0
179496,note_on,96,0,2,,,,,,,,1,,,74,0
179496,note_on,96,0,1,,,,,,,,0,,,74,0
179520,note_on,24,0,4,,,,,,,,3,,,45,105
179520,note_on,24,0,5,,,,,,,,4,,,33,105
179520,set_tempo,89440,1,0,,,,,,923077,,,,,,
179520,note_on,24,0,2,,,,,,,,1,,,73,105
179520,note_on,24,0,3,,,,,,,,2,,,64,105
179520,note_on,0,0,6,,,,,,,,5,,,73,105
179520,note_on,0,0,6,,,,,,,,5,,,45,105
179520,note_on,24,0,1,,,,,,,,0,,,73,105
179520,note_on,24,0,6,,,,,,,,5,,,69,105
179616,note_on,0,0,6,,,,,,,,5,,,69,0
179616,note_on,0,0,6,,,,,,,,5,,,45,0
179616,note_on,96,0,6,,,,,,,,5,,,73,0
179616,note_on,96,0,4,,,,,,,,3,,,45,0
179616,note_on,96,0,5,,,,,,,,4,,,33,0
179616,note_on,96,0,2,,,,,,,,1,,,73,0
179616,note_on,96,0,1,,,,,,,,0,,,73,0
179616,note_on,96,0,3,,,,,,,,2,,,64,0
179640,note_on,0,0,6,,,,,,,,5,,,57,105
179640,note_on,24,0,2,,,,,,,,1,,,71,105
179640,note_on,24,0,1,,,,,,,,0,,,71,105
179640,note_on,24,0,6,,,,,,,,5,,,61,105
179640,note_on,0,0,6,,,,,,,,5,,,69,105
179640,note_on,24,0,3,,,,,,,,2,,,64,105
179640,note_on,24,0,5,,,,,,,,4,,,45,105
179640,note_on,24,0,4,,,,,,,,3,,,57,105
179688,note_on,48,0,1,,,,,,,,0,,,71,0
179688,note_on,48,0,2,,,,,,,,1,,,71,0
179700,note_on,12,0,2,,,,,,,,1,,,69,105
179700,note_on,12,0,1,,,,,,,,0,,,69,105
179736,note_on,0,0,6,,,,,,,,5,,,57,0
179736,note_on,96,0,6,,,,,,,,5,,,69,0
179736,note_on,96,0,3,,,,,,,,2,,,64,0
179736,note_on,96,0,5,,,,,,,,4,,,45,0
179736,note_on,96,0,4,,,,,,,,3,,,57,0
179736,note_on,0,0,6,,,,,,,,5,,,61,0
179748,note_on,48,0,1,,,,,,,,0,,,69,0
179748,note_on,48,0,2,,,,,,,,1,,,69,0
179760,note_on,12,0,1,,,,,,,,0,,,71,105
179760,note_on,0,0,6,,,,,,,,5,,,66,105
179760,note_on,12,0,2,,,,,,,,1,,,71,105
179760,note_on,0,0,6,,,,,,,,5,,,50,105
179760,set_tempo,240,1,0,,,,,,1428571,,,,,,
179760,note_on,24,0,3,,,,,,,,2,,,66,105
179760,note_on,24,0,6,,,,,,,,5,,,71,105
179760,note_on,24,0,5,,,,,,,,4,,,38,105
179760,note_on,24,0,4,,,,,,,,3,,,50,105
179856,note_on,96,0,3,,,,,,,,2,,,66,0
179856,note_on,96,0,4,,,,,,,,3,,,50,0
179856,note_on,96,0,5,,,,,,,,4,,,38,0
179856,note_on,96,0,1,,,,,,,,0,,,71,0
179856,note_on,0,0,6,,,,,,,,5,,,71,0
179856,note_on,0,0,6,,,,,,,,5,,,50,0
179856,note_on,96,0,6,,,,,,,,5,,,66,0
179856,note_on,96,0,2,,,,,,,,1,,,71,0
179880,note_on,24,0,3,,,,,,,,2,,,59,105
179880,note_on,0,0,6,,,,,,,,5,,,59,105
179880,note_on,24,0,6,,,,,,,,5,,,68,105
179880,note_on,24,0,5,,,,,,,,4,,,40,105
179880,note_on,0,0,6,,,,,,,,5,,,52,105
179880,note_on,24,0,2,,,,,,,,1,,,68,105
179880,note_on,24,0,4,,,,,,,,3,,,52,105
179880,note_on,24,0,1,,,,,,,,0,,,68,105
179976,note_on,96,0,4,,,,,,,,3,,,52,0
179976,note_on,96,0,2,,,,,,,,1,,,68,0
179976,note_on,96,0,1,,,,,,,,0,,,68,0
179976,note_on,96,0,6,,,,,,,,5,,,59,0
179976,note_on,0,0,6,,,,,,,,5,,,52,0
179976,note_on,0,0,6,,,,,,,,5,,,68,0
179976,note_on,96,0,3,,,,,,,,2,,,59,0
179976,note_on,96,0,5,,,,,,,,4,,,40,0
180000,note_on,24,0,5,,,,,,,,4,,,33,105
180000,note_on,24,0,2,,,,,,,,1,,,69,105
180000,set_tempo,240,1,0,,,,,,1333333,,,,,,
180000,note_on,24,0,3,,,,,,,,2,,,61,105
180000,note_on,24,0,4,,,,,,,,3,,,45,105
180000,note_on,0,0,6,,,,,,,,5,,,61,105
180000,note_on,0,0,6,,,,,,,,5,,,69,105
180000,note_on,24,0,6,,,,,,,,5,,,45,105
180000,end_of_track,0,1,0,,,,,,,,,,,,
180000,note_on,24,0,1,,,,,,,,0,,,69,105
180192,note_on,192,0,6,,,,,,,,5,,,61,0
180384,note_on,0,0,6,,,,,,,,5,,,45,0
180384,note_on,384,0,5,,,,,,,,4,,,33,0
180384,end_of_track,0,1,4,,,,,,,,,,,,
180384,end_of_track,0,1,5,,,,,,,,,,,,
180384,note_on,384,0,4,,,,,,,,3,,,45,0
180384,end_of_track,0,1,2,,,,,,,,,,,,
180384,note_on,192,0,6,,,,,,,,5,,,69,0
180384,note_on,384,0,3,,,,,,,,2,,,61,0
180384,end_of_track,0,1,3,,,,,,,,,,,,
180384,end_of_track,0,1,1,,,,,,,,,,,,
180384,note_on,384,0,1,,,,,,,,0,,,69,0
180384,note_on,384,0,2,,,,,,,,1,,,69,0
180384,end_of_track,0,1,6,,,,,,,,,,,,
