tick,type,time,meta,track,tempo,numerator,denominator,clocks_per_click,notated_32nd_notes_per_beat,key,port,channel,control,value,program,note,velocity
0,track_name,0,1,0,,,,,,,,,,,,,
0,track_name,0,1,3,,,,,,,,,,,,,
0,midi_port,0,1,3,,,,,,,0,,,,,,
0,channel_prefix,0,1,3,,,,,,,,14,,,,,
0,control_change,0,0,3,,,,,,,,14,7,127,,,
0,control_change,0,0,3,,,,,,,,14,10,26,,,
0,control_change,0,0,3,,,,,,,,14,91,127,,,
0,program_change,0,0,3,,,,,,,,14,,,32,,
0,program_change,0,0,13,,,,,,,,11,,,50,,
0,control_change,0,0,13,,,,,,,,11,91,127,,,
0,program_change,0,0,2,,,,,,,,0,,,6,,
0,control_change,0,0,13,,,,,,,,11,10,63,,,
0,channel_prefix,0,1,13,,,,,,,,11,,,,,
0,midi_port,0,1,13,,,,,,,0,,,,,,
0,track_name,0,1,4,,,,,,,,,,,,,
0,midi_port,0,1,4,,,,,,,0,,,,,,
0,channel_prefix,0,1,4,,,,,,,,1,,,,,
0,control_change,0,0,4,,,,,,,,1,7,127,,,
0,control_change,0,0,4,,,,,,,,1,10,64,,,
0,control_change,0,0,4,,,,,,,,1,91,127,,,
0,program_change,0,0,4,,,,,,,,1,,,48,,
0,control_change,0,0,13,,,,,,,,11,7,127,,,
0,program_change,0,0,12,,,,,,,,10,,,50,,
0,control_change,0,0,2,,,,,,,,0,91,127,,,
0,control_change,0,0,2,,,,,,,,0,7,127,,,
0,channel_prefix,0,1,1,,,,,,,,0,,,,,
0,control_change,0,0,1,,,,,,,,0,7,127,,,
0,control_change,0,0,1,,,,,,,,0,10,6,,,
0,control_change,0,0,1,,,,,,,,0,91,127,,,
0,program_change,0,0,1,,,,,,,,0,,,6,,
0,program_change,0,0,15,,,,,,,,13,,,50,,
0,control_change,0,0,15,,,,,,,,13,91,127,,,
0,control_change,0,0,15,,,,,,,,13,10,127,,,
0,control_change,0,0,15,,,,,,,,13,7,127,,,
0,control_change,0,0,2,,,,,,,,0,10,6,,,
0,channel_prefix,0,1,15,,,,,,,,13,,,,,
0,program_change,0,0,14,,,,,,,,12,,,50,,
0,control_change,0,0,14,,,,,,,,12,91,127,,,
0,control_change,0,0,14,,,,,,,,12,10,95,,,
0,control_change,0,0,14,,,,,,,,12,7,127,,,
0,channel_prefix,0,1,14,,,,,,,,12,,,,,
0,midi_port,0,1,14,,,,,,,0,,,,,,
0,track_name,0,1,2,,,,,,,,,,,,,
0,midi_port,0,1,2,,,,,,,0,,,,,,
0,channel_prefix,0,1,2,,,,,,,,0,,,,,
0,midi_port,0,1,15,,,,,,,0,,,,,,
0,midi_port,0,1,1,,,,,,,0,,,,,,
0,control_change,0,0,12,,,,,,,,10,91,127,,,
0,control_change,0,0,12,,,,,,,,10,7,127,,,
0,control_change,0,0,5,,,,,,,,2,7,127,,,
0,control_change,0,0,5,,,,,,,,2,10,64,,,
0,control_change,0,0,5,,,,,,,,2,91,127,,,
0,program_change,0,0,5,,,,,,,,2,,,40,,
0,program_change,0,0,8,,,,,,,,5,,,48,,
0,control_change,0,0,8,,,,,,,,5,91,127,,,
0,control_change,0,0,8,,,,,,,,5,10,63,,,
0,control_change,0,0,8,,,,,,,,5,7,127,,,
0,channel_prefix,0,1,8,,,,,,,,5,,,,,
0,channel_prefix,0,1,5,,,,,,,,2,,,,,
0,midi_port,0,1,8,,,,,,,0,,,,,,
0,control_change,0,0,7,,,,,,,,4,91,127,,,
0,control_change,0,0,7,,,,,,,,4,10,32,,,
0,control_change,0,0,7,,,,,,,,4,7,127,,,
0,channel_prefix,0,1,7,,,,,,,,4,,,,,
0,midi_port,0,1,7,,,,,,,0,,,,,,
0,program_change,0,0,6,,,,,,,,3,,,48,,
0,control_change,0,0,6,,,,,,,,3,91,127,,,
0,control_change,0,0,6,,,,,,,,3,10,1,,,
0,control_change,0,0,6,,,,,,,,3,7,127,,,
0,program_change,0,0,7,,,,,,,,4,,,48,,
0,control_change,0,0,12,,,,,,,,10,10,32,,,
0,midi_port,0,1,5,,,,,,,0,,,,,,
0,midi_port,0,1,9,,,,,,,0,,,,,,
0,channel_prefix,0,1,12,,,,,,,,10,,,,,
0,midi_port,0,1,12,,,,,,,0,,,,,,
0,channel_prefix,0,1,6,,,,,,,,3,,,,,
0,program_change,0,0,11,,,,,,,,8,,,50,,
0,control_change,0,0,11,,,,,,,,8,91,127,,,
0,control_change,0,0,11,,,,,,,,8,10,1,,,
0,control_change,0,0,11,,,,,,,,8,7,127,,,
0,channel_prefix,0,1,11,,,,,,,,8,,,,,
0,midi_port,0,1,11,,,,,,,0,,,,,,
0,track_name,0,1,5,,,,,,,,,,,,,
0,program_change,0,0,10,,,,,,,,7,,,48,,
0,control_change,0,0,10,,,,,,,,7,10,127,,,
0,control_change,0,0,10,,,,,,,,7,7,127,,,
0,channel_prefix,0,1,10,,,,,,,,7,,,,,
0,midi_port,0,1,10,,,,,,,0,,,,,,
0,program_change,0,0,9,,,,,,,,6,,,48,,
0,control_change,0,0,9,,,,,,,,6,91,127,,,
0,control_change,0,0,9,,,,,,,,6,10,95,,,
0,control_change,0,0,9,,,,,,,,6,7,127,,,
0,channel_prefix,0,1,9,,,,,,,,6,,,,,
0,control_change,0,0,10,,,,,,,,7,91,127,,,
0,track_name,0,1,1,,,,,,,,,,,,,
0,midi_port,0,1,6,,,,,,,0,,,,,,
0,key_signature,0,1,0,,,,,,Ab,,,,,,,
0,time_signature,0,1,0,,3,8,36,8,,,,,,,,
0,set_tempo,0,1,0,500000,,,,,,,,,,,,
0,copyright,0,1,0,,,,,,,,,,,,,
120,note_on,120,0,5,,,,,,,,2,,,,72,30
120,note_on,120,0,14,,,,,,,,12,,,,53,30
120,set_tempo,120,1,0,612244,,,,,,,,,,,,
120,note_on,120,0,9,,,,,,,,6,,,,53,30
120,note_on,120,0,4,,,,,,,,1,,,,72,45
240,note_on,0,0,4,,,,,,,,1,,,,80,45
240,note_off,120,0,4,,,,,,,,1,,,,72,64
240,note_on,0,0,5,,,,,,,,2,,,,80,30
240,note_off,120,0,5,,,,,,,,2,,,,72,64
360,note_off,120,0,5,,,,,,,,2,,,,80,64
360,note_on,0,0,5,,,,,,,,2,,,,79,30
360,note_off,120,0,4,,,,,,,,1,,,,80,64
360,note_on,0,0,4,,,,,,,,1,,,,79,45
480,note_off,120,0,5,,,,,,,,2,,,,79,64
480,note_on,0,0,5,,,,,,,,2,,,,77,30
480,note_on,0,0,4,,,,,,,,1,,,,77,45
480,note_off,120,0,4,,,,,,,,1,,,,79,64
600,note_off,120,0,4,,,,,,,,1,,,,77,64
600,note_on,0,0,4,,,,,,,,1,,,,76,45
600,note_off,120,0,5,,,,,,,,2,,,,77,64
600,note_on,0,0,5,,,,,,,,2,,,,76,30
720,note_off,120,0,4,,,,,,,,1,,,,76,64
720,note_on,0,0,4,,,,,,,,1,,,,77,45
720,note_off,120,0,5,,,,,,,,2,,,,76,64
720,note_on,0,0,5,,,,,,,,2,,,,77,30
835,note_off,115,0,5,,,,,,,,2,,,,77,64
835,note_off,115,0,4,,,,,,,,1,,,,77,64
840,note_on,5,0,4,,,,,,,,1,,,,72,45
840,set_tempo,720,1,0,769230,,,,,,,,,,,,
840,note_on,5,0,5,,,,,,,,2,,,,72,30
960,note_off,120,0,4,,,,,,,,1,,,,72,64
960,note_on,0,0,4,,,,,,,,1,,,,80,45
960,note_on,0,0,5,,,,,,,,2,,,,80,30
960,note_off,120,0,5,,,,,,,,2,,,,72,64
1080,set_tempo,240,1,0,612244,,,,,,,,,,,,
1080,note_on,0,0,4,,,,,,,,1,,,,79,45
1080,note_off,120,0,4,,,,,,,,1,,,,80,64
1080,note_off,120,0,5,,,,,,,,2,,,,80,64
1080,note_on,0,0,5,,,,,,,,2,,,,79,30
1200,note_off,120,0,4,,,,,,,,1,,,,79,64
1200,note_off,120,0,5,,,,,,,,2,,,,79,64
1200,note_on,0,0,4,,,,,,,,1,,,,77,45
1200,note_on,0,0,5,,,,,,,,2,,,,77,30
1320,note_off,120,0,5,,,,,,,,2,,,,77,64
1320,note_on,0,0,5,,,,,,,,2,,,,76,30
1320,note_off,120,0,4,,,,,,,,1,,,,77,64
1320,note_on,0,0,4,,,,,,,,1,,,,76,45
1440,note_off,120,0,4,,,,,,,,1,,,,76,64
1440,note_on,0,0,5,,,,,,,,2,,,,77,30
1440,note_off,120,0,5,,,,,,,,2,,,,76,64
1440,note_on,0,0,4,,,,,,,,1,,,,77,45
1555,note_off,115,0,4,,,,,,,,1,,,,77,64
1555,note_off,115,0,5,,,,,,,,2,,,,77,64
1560,note_on,5,0,4,,,,,,,,1,,,,72,45
1560,set_tempo,480,1,0,769230,,,,,,,,,,,,
1560,note_on,5,0,5,,,,,,,,2,,,,72,30
1680,note_on,0,0,5,,,,,,,,2,,,,80,30
1680,note_off,120,0,5,,,,,,,,2,,,,72,64
1680,set_tempo,120,1,0,612244,,,,,,,,,,,,
1680,note_off,120,0,4,,,,,,,,1,,,,72,64
1680,note_on,0,0,4,,,,,,,,1,,,,80,45
1800,note_on,0,0,4,,,,,,,,1,,,,79,45
1800,note_on,0,0,5,,,,,,,,2,,,,79,30
1800,note_off,120,0,5,,,,,,,,2,,,,80,64
1800,note_off,120,0,4,,,,,,,,1,,,,80,64
1920,note_on,0,0,5,,,,,,,,2,,,,77,30
1920,note_off,120,0,5,,,,,,,,2,,,,79,64
1920,note_on,0,0,4,,,,,,,,1,,,,77,45
1920,note_off,120,0,4,,,,,,,,1,,,,79,64
2040,note_off,120,0,4,,,,,,,,1,,,,77,64
2040,note_on,0,0,4,,,,,,,,1,,,,76,45
2040,note_on,0,0,5,,,,,,,,2,,,,76,30
2040,note_off,120,0,5,,,,,,,,2,,,,77,64
2160,note_on,0,0,5,,,,,,,,2,,,,77,30
2160,note_off,120,0,5,,,,,,,,2,,,,76,64
2160,note_off,120,0,4,,,,,,,,1,,,,76,64
2160,note_on,0,0,4,,,,,,,,1,,,,77,45
2275,note_off,115,0,5,,,,,,,,2,,,,77,64
2275,note_off,115,0,4,,,,,,,,1,,,,77,64
2280,note_on,5,0,5,,,,,,,,2,,,,72,30
2280,note_on,5,0,4,,,,,,,,1,,,,72,45
2280,set_tempo,600,1,0,769230,,,,,,,,,,,,
2400,note_off,120,0,4,,,,,,,,1,,,,72,64
2400,note_on,0,0,4,,,,,,,,1,,,,80,45
2400,set_tempo,120,1,0,612244,,,,,,,,,,,,
2400,note_on,0,0,5,,,,,,,,2,,,,80,30
2400,note_off,120,0,5,,,,,,,,2,,,,72,64
2520,note_off,120,0,5,,,,,,,,2,,,,80,64
2520,note_on,0,0,5,,,,,,,,2,,,,79,30
2520,note_off,120,0,4,,,,,,,,1,,,,80,64
2520,note_on,0,0,4,,,,,,,,1,,,,79,45
2640,note_on,0,0,5,,,,,,,,2,,,,77,30
2640,note_off,120,0,5,,,,,,,,2,,,,79,64
2640,note_off,120,0,4,,,,,,,,1,,,,79,64
2640,note_on,0,0,4,,,,,,,,1,,,,77,45
2760,note_on,0,0,4,,,,,,,,1,,,,76,45
2760,note_off,120,0,5,,,,,,,,2,,,,77,64
2760,note_on,0,0,5,,,,,,,,2,,,,76,30
2760,note_off,120,0,4,,,,,,,,1,,,,77,64
2880,note_off,120,0,5,,,,,,,,2,,,,76,64
2880,note_off,120,0,4,,,,,,,,1,,,,76,64
2880,note_on,0,0,4,,,,,,,,1,,,,77,45
2880,note_on,0,0,5,,,,,,,,2,,,,77,30
2995,note_off,115,0,5,,,,,,,,2,,,,77,64
2995,note_off,115,0,4,,,,,,,,1,,,,77,64
3000,set_tempo,600,1,0,769230,,,,,,,,,,,,
3000,note_on,5,0,4,,,,,,,,1,,,,72,45
3000,note_on,5,0,5,,,,,,,,2,,,,72,30
3120,note_on,0,0,5,,,,,,,,2,,,,73,30
3120,note_on,0,0,4,,,,,,,,1,,,,73,45
3120,set_tempo,120,1,0,612244,,,,,,,,,,,,
3120,note_off,120,0,4,,,,,,,,1,,,,72,64
3120,note_off,120,0,5,,,,,,,,2,,,,72,64
3240,note_off,120,0,4,,,,,,,,1,,,,73,64
3240,note_on,0,0,4,,,,,,,,1,,,,72,45
3240,note_off,120,0,5,,,,,,,,2,,,,73,64
3240,note_on,0,0,5,,,,,,,,2,,,,72,30
3360,note_on,0,0,4,,,,,,,,1,,,,70,45
3360,note_off,120,0,4,,,,,,,,1,,,,72,64
3360,note_off,120,0,5,,,,,,,,2,,,,72,64
3360,note_on,0,0,5,,,,,,,,2,,,,70,30
3480,note_on,0,0,5,,,,,,,,2,,,,72,30
3480,note_off,120,0,5,,,,,,,,2,,,,70,64
3480,note_on,0,0,4,,,,,,,,1,,,,72,45
3480,note_off,120,0,4,,,,,,,,1,,,,70,64
3600,note_on,0,0,5,,,,,,,,2,,,,73,30
3600,note_off,120,0,5,,,,,,,,2,,,,72,64
3600,note_on,0,0,4,,,,,,,,1,,,,73,45
3600,note_off,120,0,4,,,,,,,,1,,,,72,64
3715,note_off,115,0,5,,,,,,,,2,,,,73,64
3715,note_off,115,0,4,,,,,,,,1,,,,73,64
3720,note_on,5,0,4,,,,,,,,1,,,,65,45
3720,note_on,5,0,5,,,,,,,,2,,,,65,30
3720,set_tempo,600,1,0,789473,,,,,,,,,,,,
3840,set_tempo,120,1,0,612244,,,,,,,,,,,,
3840,note_off,120,0,4,,,,,,,,1,,,,65,64
3840,note_on,0,0,4,,,,,,,,1,,,,73,45
3840,note_off,120,0,5,,,,,,,,2,,,,65,64
3840,note_on,0,0,5,,,,,,,,2,,,,73,30
3960,note_on,0,0,5,,,,,,,,2,,,,72,30
3960,note_off,120,0,5,,,,,,,,2,,,,73,64
3960,note_off,120,0,4,,,,,,,,1,,,,73,64
3960,note_on,0,0,4,,,,,,,,1,,,,72,45
4080,note_on,0,0,5,,,,,,,,2,,,,70,30
4080,note_off,120,0,4,,,,,,,,1,,,,72,64
4080,note_off,120,0,5,,,,,,,,2,,,,72,64
4080,note_on,0,0,4,,,,,,,,1,,,,70,45
4200,note_off,120,0,5,,,,,,,,2,,,,70,64
4200,note_off,120,0,4,,,,,,,,1,,,,70,64
4200,note_on,0,0,5,,,,,,,,2,,,,72,30
4200,note_on,0,0,4,,,,,,,,1,,,,72,45
4320,note_on,0,0,4,,,,,,,,1,,,,73,45
4320,note_off,120,0,4,,,,,,,,1,,,,72,64
4320,note_off,120,0,5,,,,,,,,2,,,,72,64
4320,note_on,0,0,5,,,,,,,,2,,,,73,30
4435,note_off,115,0,5,,,,,,,,2,,,,73,64
4435,note_off,115,0,4,,,,,,,,1,,,,73,64
4440,note_on,5,0,5,,,,,,,,2,,,,65,30
4440,set_tempo,600,1,0,789473,,,,,,,,,,,,
4440,note_on,5,0,4,,,,,,,,1,,,,65,45
4560,note_on,0,0,5,,,,,,,,2,,,,73,30
4560,note_on,0,0,4,,,,,,,,1,,,,73,45
4560,set_tempo,120,1,0,612244,,,,,,,,,,,,
4560,note_off,120,0,4,,,,,,,,1,,,,65,64
4560,note_off,120,0,5,,,,,,,,2,,,,65,64
4680,note_on,0,0,4,,,,,,,,1,,,,72,45
4680,note_off,120,0,4,,,,,,,,1,,,,73,64
4680,note_on,0,0,5,,,,,,,,2,,,,72,30
4680,note_off,120,0,5,,,,,,,,2,,,,73,64
4800,note_on,0,0,4,,,,,,,,1,,,,70,45
4800,note_off,120,0,4,,,,,,,,1,,,,72,64
4800,note_off,120,0,5,,,,,,,,2,,,,72,64
4800,note_on,0,0,5,,,,,,,,2,,,,70,30
4920,note_off,120,0,4,,,,,,,,1,,,,70,64
4920,note_on,0,0,4,,,,,,,,1,,,,72,45
4920,note_on,0,0,5,,,,,,,,2,,,,72,30
4920,note_off,120,0,5,,,,,,,,2,,,,70,64
5040,note_off,120,0,4,,,,,,,,1,,,,72,64
5040,note_on,0,0,4,,,,,,,,1,,,,73,45
5040,note_on,0,0,5,,,,,,,,2,,,,73,30
5040,note_off,120,0,5,,,,,,,,2,,,,72,64
5155,note_off,115,0,5,,,,,,,,2,,,,73,64
5155,note_off,115,0,4,,,,,,,,1,,,,73,64
5160,set_tempo,600,1,0,750000,,,,,,,,,,,,
5160,note_on,5,0,4,,,,,,,,1,,,,65,45
5160,note_on,5,0,5,,,,,,,,2,,,,65,30
5280,set_tempo,120,1,0,612244,,,,,,,,,,,,
5280,note_on,0,0,5,,,,,,,,2,,,,73,30
5280,note_off,120,0,4,,,,,,,,1,,,,65,64
5280,note_on,0,0,4,,,,,,,,1,,,,73,45
5280,note_off,120,0,5,,,,,,,,2,,,,65,64
5400,note_off,120,0,5,,,,,,,,2,,,,73,64
5400,note_on,0,0,5,,,,,,,,2,,,,72,30
5400,note_off,120,0,4,,,,,,,,1,,,,73,64
5400,note_on,0,0,4,,,,,,,,1,,,,72,45
5520,note_off,120,0,5,,,,,,,,2,,,,72,64
5520,note_on,0,0,5,,,,,,,,2,,,,70,30
5520,note_off,120,0,4,,,,,,,,1,,,,72,64
5520,note_on,0,0,4,,,,,,,,1,,,,70,45
5640,note_off,120,0,5,,,,,,,,2,,,,70,64
5640,note_off,120,0,4,,,,,,,,1,,,,70,64
5640,note_on,0,0,4,,,,,,,,1,,,,72,45
5640,note_on,0,0,5,,,,,,,,2,,,,72,30
5760,note_off,120,0,4,,,,,,,,1,,,,72,64
5760,note_on,0,0,4,,,,,,,,1,,,,73,45
5760,note_on,0,0,5,,,,,,,,2,,,,73,30
5760,note_off,120,0,5,,,,,,,,2,,,,72,64
5875,note_off,115,0,4,,,,,,,,1,,,,73,64
5875,note_off,115,0,5,,,,,,,,2,,,,73,64
5880,note_on,5,0,5,,,,,,,,2,,,,65,30
5880,note_on,5,0,4,,,,,,,,1,,,,65,45
5880,set_tempo,600,1,0,800000,,,,,,,,,,,,
6000,note_off,120,0,5,,,,,,,,2,,,,65,64
6000,note_on,0,0,4,,,,,,,,1,,,,67,45
6000,note_off,120,0,4,,,,,,,,1,,,,65,64
6000,note_on,0,0,5,,,,,,,,2,,,,67,30
6000,set_tempo,120,1,0,612244,,,,,,,,,,,,
6120,note_on,0,0,4,,,,,,,,1,,,,68,45
6120,note_off,120,0,4,,,,,,,,1,,,,67,64
6120,note_off,120,0,5,,,,,,,,2,,,,67,64
6120,note_on,0,0,5,,,,,,,,2,,,,68,30
6240,note_on,0,0,5,,,,,,,,2,,,,67,30
6240,note_off,120,0,5,,,,,,,,2,,,,68,64
6240,note_on,0,0,4,,,,,,,,1,,,,67,45
6240,note_off,120,0,4,,,,,,,,1,,,,68,64
6360,note_off,120,0,4,,,,,,,,1,,,,67,64
6360,note_off,120,0,5,,,,,,,,2,,,,67,64
6360,note_on,0,0,5,,,,,,,,2,,,,68,30
6360,note_on,0,0,4,,,,,,,,1,,,,68,45
6480,note_off,120,0,4,,,,,,,,1,,,,68,64
6480,note_off,120,0,5,,,,,,,,2,,,,68,64
6480,note_on,0,0,5,,,,,,,,2,,,,65,30
6480,note_on,0,0,4,,,,,,,,1,,,,65,45
6595,note_off,115,0,4,,,,,,,,1,,,,65,64
6595,note_off,115,0,5,,,,,,,,2,,,,65,64
6600,note_on,5,0,4,,,,,,,,1,,,,72,45
6600,note_on,5,0,5,,,,,,,,2,,,,72,30
6600,set_tempo,600,1,0,740740,,,,,,,,,,,,
6720,note_off,120,0,5,,,,,,,,2,,,,72,64
6720,note_on,0,0,5,,,,,,,,2,,,,73,30
6720,note_off,120,0,4,,,,,,,,1,,,,72,64
6720,note_on,0,0,4,,,,,,,,1,,,,73,45
6720,set_tempo,120,1,0,612244,,,,,,,,,,,,
6840,note_on,0,0,5,,,,,,,,2,,,,75,30
6840,note_off,120,0,5,,,,,,,,2,,,,73,64
6840,note_on,0,0,4,,,,,,,,1,,,,75,45
6840,note_off,120,0,4,,,,,,,,1,,,,73,64
6960,note_on,0,0,5,,,,,,,,2,,,,73,30
6960,note_off,120,0,5,,,,,,,,2,,,,75,64
6960,note_on,0,0,4,,,,,,,,1,,,,73,45
6960,note_off,120,0,4,,,,,,,,1,,,,75,64
7080,note_on,0,0,4,,,,,,,,1,,,,75,45
7080,note_on,0,0,5,,,,,,,,2,,,,75,30
7080,note_off,120,0,5,,,,,,,,2,,,,73,64
7080,note_off,120,0,4,,,,,,,,1,,,,73,64
7200,note_on,0,0,5,,,,,,,,2,,,,72,30
7200,note_off,120,0,5,,,,,,,,2,,,,75,64
7200,note_off,120,0,4,,,,,,,,1,,,,75,64
7200,note_on,0,0,4,,,,,,,,1,,,,72,45
7315,note_off,115,0,4,,,,,,,,1,,,,72,64
7315,note_off,115,0,5,,,,,,,,2,,,,72,64
7320,note_on,5,0,4,,,,,,,,1,,,,77,45
7320,note_on,5,0,5,,,,,,,,2,,,,77,30
7320,set_tempo,600,1,0,638297,,,,,,,,,,,,
7440,note_off,120,0,4,,,,,,,,1,,,,77,64
7440,note_on,0,0,5,,,,,,,,2,,,,79,30
7440,note_off,120,0,5,,,,,,,,2,,,,77,64
7440,note_on,0,0,4,,,,,,,,1,,,,79,45
7560,note_off,120,0,4,,,,,,,,1,,,,79,64
7560,note_on,0,0,4,,,,,,,,1,,,,80,45
7560,note_on,0,0,5,,,,,,,,2,,,,80,30
7560,note_off,120,0,5,,,,,,,,2,,,,79,64
7680,note_on,0,0,4,,,,,,,,1,,,,79,45
7680,note_off,120,0,4,,,,,,,,1,,,,80,64
7680,note_off,120,0,5,,,,,,,,2,,,,80,64
7680,note_on,0,0,5,,,,,,,,2,,,,79,30
7800,note_off,120,0,5,,,,,,,,2,,,,79,64
7800,note_on,0,0,5,,,,,,,,2,,,,80,30
7800,note_on,0,0,4,,,,,,,,1,,,,80,45
7800,note_off,120,0,4,,,,,,,,1,,,,79,64
7920,note_off,120,0,5,,,,,,,,2,,,,80,64
7920,note_on,0,0,5,,,,,,,,2,,,,77,30
7920,note_off,120,0,4,,,,,,,,1,,,,80,64
7920,note_on,0,0,4,,,,,,,,1,,,,77,45
8035,note_off,115,0,4,,,,,,,,1,,,,77,64
8035,note_off,115,0,5,,,,,,,,2,,,,77,64
8040,note_on,5,0,5,,,,,,,,2,,,,80,30
8040,note_on,5,0,4,,,,,,,,1,,,,80,45
8040,set_tempo,720,1,0,652173,,,,,,,,,,,,
8160,note_on,0,0,5,,,,,,,,2,,,,84,30
8160,note_on,0,0,4,,,,,,,,1,,,,84,45
8160,note_off,120,0,5,,,,,,,,2,,,,80,64
8160,note_off,120,0,4,,,,,,,,1,,,,80,64
8280,note_on,0,0,5,,,,,,,,2,,,,82,30
8280,note_on,0,0,4,,,,,,,,1,,,,82,45
8280,note_off,120,0,4,,,,,,,,1,,,,84,64
8280,note_off,120,0,5,,,,,,,,2,,,,84,64
8400,note_off,120,0,5,,,,,,,,2,,,,82,64
8400,note_on,0,0,4,,,,,,,,1,,,,80,45
8400,note_off,120,0,4,,,,,,,,1,,,,82,64
8400,note_on,0,0,5,,,,,,,,2,,,,80,30
8520,note_on,0,0,5,,,,,,,,2,,,,82,30
8520,note_off,120,0,4,,,,,,,,1,,,,80,64
8520,note_on,0,0,4,,,,,,,,1,,,,82,45
8520,note_off,120,0,5,,,,,,,,2,,,,80,64
8640,note_off,120,0,5,,,,,,,,2,,,,82,64
8640,note_on,0,0,5,,,,,,,,2,,,,84,30
8640,note_off,120,0,4,,,,,,,,1,,,,82,64
8640,note_on,0,0,4,,,,,,,,1,,,,84,45
8755,note_off,115,0,4,,,,,,,,1,,,,84,64
8755,note_off,115,0,5,,,,,,,,2,,,,84,64
8760,note_on,5,0,4,,,,,,,,1,,,,77,45
8760,set_tempo,720,1,0,800000,,,,,,,,,,,,
8760,note_on,5,0,5,,,,,,,,2,,,,77,30
8880,note_off,120,0,4,,,,,,,,1,,,,77,64
8880,note_on,0,0,5,,,,,,,,2,,,,84,30
8880,note_off,120,0,5,,,,,,,,2,,,,77,64
8880,set_tempo,120,1,0,612244,,,,,,,,,,,,
8880,note_on,0,0,4,,,,,,,,1,,,,84,45
9000,note_off,120,0,5,,,,,,,,2,,,,84,64
9000,note_on,0,0,5,,,,,,,,2,,,,82,30
9000,note_on,0,0,4,,,,,,,,1,,,,82,45
9000,note_off,120,0,4,,,,,,,,1,,,,84,64
9120,note_off,120,0,4,,,,,,,,1,,,,82,64
9120,note_on,0,0,4,,,,,,,,1,,,,80,45
9120,note_on,0,0,5,,,,,,,,2,,,,80,30
9120,note_off,120,0,5,,,,,,,,2,,,,82,64
9240,note_on,0,0,5,,,,,,,,2,,,,82,30
9240,note_off,120,0,5,,,,,,,,2,,,,80,64
9240,note_on,0,0,4,,,,,,,,1,,,,82,45
9240,note_off,120,0,4,,,,,,,,1,,,,80,64
9360,note_off,120,0,5,,,,,,,,2,,,,82,64
9360,note_on,0,0,5,,,,,,,,2,,,,84,30
9360,note_off,120,0,4,,,,,,,,1,,,,82,64
9360,note_on,0,0,4,,,,,,,,1,,,,84,45
9475,note_off,115,0,4,,,,,,,,1,,,,84,64
9475,note_off,115,0,5,,,,,,,,2,,,,84,64
9480,note_on,5,0,5,,,,,,,,2,,,,77,30
9480,set_tempo,600,1,0,800000,,,,,,,,,,,,
9480,note_on,5,0,4,,,,,,,,1,,,,77,45
9600,note_off,120,0,5,,,,,,,,2,,,,77,64
9600,note_off,120,0,4,,,,,,,,1,,,,77,64
9600,note_on,0,0,4,,,,,,,,1,,,,85,45
9600,set_tempo,120,1,0,612244,,,,,,,,,,,,
9600,note_on,0,0,5,,,,,,,,2,,,,85,30
9720,note_off,120,0,5,,,,,,,,2,,,,85,64
9720,note_on,0,0,5,,,,,,,,2,,,,84,30
9720,note_on,0,0,4,,,,,,,,1,,,,84,45
9720,note_off,120,0,4,,,,,,,,1,,,,85,64
9840,note_off,120,0,4,,,,,,,,1,,,,84,64
9840,note_on,0,0,4,,,,,,,,1,,,,82,45
9840,note_off,120,0,5,,,,,,,,2,,,,84,64
9840,note_on,0,0,5,,,,,,,,2,,,,82,30
9960,note_on,0,0,4,,,,,,,,1,,,,84,45
9960,note_off,120,0,5,,,,,,,,2,,,,82,64
9960,note_on,0,0,5,,,,,,,,2,,,,84,30
9960,note_off,120,0,4,,,,,,,,1,,,,82,64
10080,note_off,120,0,5,,,,,,,,2,,,,84,64
10080,note_on,0,0,4,,,,,,,,1,,,,85,45
10080,note_off,120,0,4,,,,,,,,1,,,,84,64
10080,note_on,0,0,5,,,,,,,,2,,,,85,30
10195,note_off,115,0,4,,,,,,,,1,,,,85,64
10195,note_off,115,0,5,,,,,,,,2,,,,85,64
10200,set_tempo,600,1,0,731707,,,,,,,,,,,,
10200,note_on,5,0,5,,,,,,,,2,,,,77,30
10200,note_on,5,0,4,,,,,,,,1,,,,77,45
10320,note_off,120,0,5,,,,,,,,2,,,,77,64
10320,note_on,0,0,5,,,,,,,,2,,,,85,30
10320,note_off,120,0,4,,,,,,,,1,,,,77,64
10320,note_on,0,0,4,,,,,,,,1,,,,85,45
10320,set_tempo,120,1,0,612244,,,,,,,,,,,,
10440,note_on,0,0,5,,,,,,,,2,,,,84,30
10440,note_off,120,0,5,,,,,,,,2,,,,85,64
10440,note_on,0,0,4,,,,,,,,1,,,,84,45
10440,note_off,120,0,4,,,,,,,,1,,,,85,64
10560,note_off,120,0,5,,,,,,,,2,,,,84,64
10560,note_off,120,0,4,,,,,,,,1,,,,84,64
10560,note_on,0,0,4,,,,,,,,1,,,,82,45
10560,note_on,0,0,5,,,,,,,,2,,,,82,30
10680,note_on,0,0,4,,,,,,,,1,,,,84,45
10680,note_off,120,0,4,,,,,,,,1,,,,82,64
10680,note_off,120,0,5,,,,,,,,2,,,,82,64
10680,note_on,0,0,5,,,,,,,,2,,,,84,30
10800,note_on,0,0,4,,,,,,,,1,,,,85,45
10800,note_off,120,0,5,,,,,,,,2,,,,84,64
10800,note_off,120,0,4,,,,,,,,1,,,,84,64
10800,note_on,0,0,5,,,,,,,,2,,,,85,30
10915,note_off,115,0,5,,,,,,,,2,,,,85,64
10915,note_off,115,0,4,,,,,,,,1,,,,85,64
10920,set_tempo,600,1,0,731707,,,,,,,,,,,,
10920,note_on,5,0,4,,,,,,,,1,,,,77,45
10920,note_on,5,0,5,,,,,,,,2,,,,77,30
11040,note_off,120,0,5,,,,,,,,2,,,,77,64
11040,set_tempo,120,1,0,612244,,,,,,,,,,,,
11040,note_on,0,0,4,,,,,,,,1,,,,84,45
11040,note_off,120,0,4,,,,,,,,1,,,,77,64
11040,note_on,0,0,5,,,,,,,,2,,,,84,30
11160,note_on,0,0,4,,,,,,,,1,,,,82,45
11160,note_off,120,0,4,,,,,,,,1,,,,84,64
11160,note_on,0,0,5,,,,,,,,2,,,,82,30
11160,note_off,120,0,5,,,,,,,,2,,,,84,64
11280,note_on,0,0,4,,,,,,,,1,,,,80,45
11280,note_off,120,0,4,,,,,,,,1,,,,82,64
11280,note_off,120,0,5,,,,,,,,2,,,,82,64
11280,note_on,0,0,5,,,,,,,,2,,,,80,30
11400,note_off,120,0,5,,,,,,,,2,,,,80,64
11400,note_on,0,0,5,,,,,,,,2,,,,82,30
11400,note_on,0,0,4,,,,,,,,1,,,,82,45
11400,note_off,120,0,4,,,,,,,,1,,,,80,64
11520,note_on,0,0,4,,,,,,,,1,,,,84,45
11520,note_off,120,0,5,,,,,,,,2,,,,82,64
11520,note_off,120,0,4,,,,,,,,1,,,,82,64
11520,note_on,0,0,5,,,,,,,,2,,,,84,30
11635,note_off,115,0,4,,,,,,,,1,,,,84,64
11635,note_off,115,0,5,,,,,,,,2,,,,84,64
11640,set_tempo,600,1,0,731707,,,,,,,,,,,,
11640,note_on,5,0,5,,,,,,,,2,,,,77,30
11640,note_on,5,0,4,,,,,,,,1,,,,77,45
11760,note_on,0,0,4,,,,,,,,1,,,,84,45
11760,set_tempo,120,1,0,612244,,,,,,,,,,,,
11760,note_off,120,0,5,,,,,,,,2,,,,77,64
11760,note_off,120,0,4,,,,,,,,1,,,,77,64
11760,note_on,0,0,5,,,,,,,,2,,,,84,30
11880,note_off,120,0,5,,,,,,,,2,,,,84,64
11880,note_on,0,0,5,,,,,,,,2,,,,82,30
11880,note_off,120,0,4,,,,,,,,1,,,,84,64
11880,note_on,0,0,4,,,,,,,,1,,,,82,45
12000,note_off,120,0,5,,,,,,,,2,,,,82,64
12000,note_on,0,0,4,,,,,,,,1,,,,80,45
12000,note_off,120,0,4,,,,,,,,1,,,,82,64
12000,note_on,0,0,5,,,,,,,,2,,,,80,30
12120,note_on,0,0,4,,,,,,,,1,,,,82,45
12120,note_off,120,0,5,,,,,,,,2,,,,80,64
12120,note_on,0,0,5,,,,,,,,2,,,,82,30
12120,note_off,120,0,4,,,,,,,,1,,,,80,64
12240,note_on,0,0,5,,,,,,,,2,,,,84,30
12240,note_off,120,0,5,,,,,,,,2,,,,82,64
12240,note_off,120,0,4,,,,,,,,1,,,,82,64
12240,note_on,0,0,4,,,,,,,,1,,,,84,45
12355,note_off,115,0,5,,,,,,,,2,,,,84,64
12355,note_off,115,0,4,,,,,,,,1,,,,84,64
12360,set_tempo,600,1,0,810810,,,,,,,,,,,,
12360,note_on,5,0,5,,,,,,,,2,,,,77,30
12360,note_on,5,0,4,,,,,,,,1,,,,77,45
12480,note_on,0,0,4,,,,,,,,1,,,,85,45
12480,note_off,120,0,4,,,,,,,,1,,,,77,64
12480,set_tempo,120,1,0,612244,,,,,,,,,,,,
12480,note_off,120,0,5,,,,,,,,2,,,,77,64
12480,note_on,0,0,5,,,,,,,,2,,,,85,30
12600,note_off,120,0,4,,,,,,,,1,,,,85,64
12600,note_on,0,0,4,,,,,,,,1,,,,84,45
12600,note_off,120,0,5,,,,,,,,2,,,,85,64
12600,note_on,0,0,5,,,,,,,,2,,,,84,30
12720,note_off,120,0,4,,,,,,,,1,,,,84,64
12720,note_off,120,0,5,,,,,,,,2,,,,84,64
12720,note_on,0,0,5,,,,,,,,2,,,,82,30
12720,note_on,0,0,4,,,,,,,,1,,,,82,45
12840,note_off,120,0,5,,,,,,,,2,,,,82,64
12840,note_on,0,0,4,,,,,,,,1,,,,84,45
12840,note_off,120,0,4,,,,,,,,1,,,,82,64
12840,note_on,0,0,5,,,,,,,,2,,,,84,30
12960,note_off,120,0,5,,,,,,,,2,,,,84,64
12960,note_on,0,0,5,,,,,,,,2,,,,85,30
12960,note_off,120,0,4,,,,,,,,1,,,,84,64
12960,note_on,0,0,4,,,,,,,,1,,,,85,45
13075,note_off,115,0,5,,,,,,,,2,,,,85,64
13075,note_off,115,0,4,,,,,,,,1,,,,85,64
13080,note_on,5,0,5,,,,,,,,2,,,,77,30
13080,set_tempo,600,1,0,750000,,,,,,,,,,,,
13080,note_on,5,0,4,,,,,,,,1,,,,77,45
13200,note_off,120,0,5,,,,,,,,2,,,,77,64
13200,note_on,0,0,5,,,,,,,,2,,,,85,30
13200,note_off,120,0,4,,,,,,,,1,,,,77,64
13200,set_tempo,120,1,0,612244,,,,,,,,,,,,
13200,note_on,0,0,4,,,,,,,,1,,,,85,45
13320,note_off,120,0,4,,,,,,,,1,,,,85,64
13320,note_off,120,0,5,,,,,,,,2,,,,85,64
13320,note_on,0,0,5,,,,,,,,2,,,,84,30
13320,note_on,0,0,4,,,,,,,,1,,,,84,45
13440,note_off,120,0,4,,,,,,,,1,,,,84,64
13440,note_on,0,0,4,,,,,,,,1,,,,82,45
13440,note_off,120,0,5,,,,,,,,2,,,,84,64
13440,note_on,0,0,5,,,,,,,,2,,,,82,30
13560,note_on,0,0,5,,,,,,,,2,,,,84,30
13560,note_off,120,0,5,,,,,,,,2,,,,82,64
13560,note_on,0,0,4,,,,,,,,1,,,,84,45
13560,note_off,120,0,4,,,,,,,,1,,,,82,64
13680,note_off,120,0,5,,,,,,,,2,,,,84,64
13680,note_off,120,0,4,,,,,,,,1,,,,84,64
13680,note_on,0,0,4,,,,,,,,1,,,,85,45
13680,note_on,0,0,5,,,,,,,,2,,,,85,30
13795,note_off,115,0,4,,,,,,,,1,,,,85,64
13795,note_off,115,0,5,,,,,,,,2,,,,85,64
13800,note_on,5,0,5,,,,,,,,2,,,,84,30
13800,note_on,5,0,4,,,,,,,,1,,,,84,45
13830,note_off,30,0,4,,,,,,,,1,,,,84,64
13830,note_on,0,0,4,,,,,,,,1,,,,85,45
13840,note_off,40,0,5,,,,,,,,2,,,,84,64
13840,note_on,0,0,5,,,,,,,,2,,,,85,30
13860,note_off,30,0,4,,,,,,,,1,,,,85,64
13860,note_on,0,0,4,,,,,,,,1,,,,84,45
13880,note_off,40,0,5,,,,,,,,2,,,,85,64
13880,note_on,0,0,5,,,,,,,,2,,,,84,30
13890,note_on,0,0,4,,,,,,,,1,,,,85,45
13890,note_off,30,0,4,,,,,,,,1,,,,84,64
13920,note_on,0,0,4,,,,,,,,1,,,,84,45
13920,note_on,0,0,5,,,,,,,,2,,,,84,30
13920,note_off,40,0,5,,,,,,,,2,,,,84,64
13920,note_off,30,0,4,,,,,,,,1,,,,85,64
14035,note_off,115,0,5,,,,,,,,2,,,,84,64
14035,note_off,115,0,4,,,,,,,,1,,,,84,64
14040,note_on,5,0,5,,,,,,,,2,,,,77,30
14040,note_on,5,0,4,,,,,,,,1,,,,77,45
14275,note_off,235,0,5,,,,,,,,2,,,,77,64
14275,note_off,235,0,4,,,,,,,,1,,,,77,64
14440,note_off,14320,0,14,,,,,,,,12,,,,53,64
14440,note_off,14320,0,9,,,,,,,,6,,,,53,64
14520,note_on,80,0,14,,,,,,,,12,,,,48,45
14520,note_on,80,0,9,,,,,,,,6,,,,48,45
14520,note_on,14520,0,6,,,,,,,,3,,,,82,45
14520,note_on,14520,0,13,,,,,,,,11,,,,64,45
14520,note_on,14520,0,15,,,,,,,,13,,,,36,45
14520,note_on,14520,0,11,,,,,,,,8,,,,82,45
14520,note_on,14520,0,10,,,,,,,,7,,,,36,45
14520,note_on,14520,0,8,,,,,,,,5,,,,64,45
14640,note_off,120,0,11,,,,,,,,8,,,,82,64
14640,note_on,0,0,6,,,,,,,,3,,,,80,45
14640,note_on,0,0,11,,,,,,,,8,,,,80,45
14640,note_off,120,0,6,,,,,,,,3,,,,82,64
14760,note_off,120,0,11,,,,,,,,8,,,,80,64
14760,note_on,0,0,6,,,,,,,,3,,,,79,45
14760,note_on,0,0,11,,,,,,,,8,,,,79,45
14760,note_off,120,0,6,,,,,,,,3,,,,80,64
14880,note_off,120,0,6,,,,,,,,3,,,,79,64
14880,note_on,0,0,6,,,,,,,,3,,,,77,45
14880,note_on,0,0,11,,,,,,,,8,,,,77,45
14880,note_off,120,0,11,,,,,,,,8,,,,79,64
15000,note_off,120,0,6,,,,,,,,3,,,,77,64
15000,note_on,0,0,6,,,,,,,,3,,,,76,45
15000,note_on,0,0,11,,,,,,,,8,,,,76,45
15000,note_off,120,0,11,,,,,,,,8,,,,77,64
15120,note_off,120,0,11,,,,,,,,8,,,,76,64
15120,note_on,0,0,11,,,,,,,,8,,,,74,45
15120,note_on,0,0,6,,,,,,,,3,,,,74,45
15120,note_off,120,0,6,,,,,,,,3,,,,76,64
15240,note_on,0,0,8,,,,,,,,5,,,,64,45
15240,note_off,720,0,9,,,,,,,,6,,,,48,64
15240,note_on,0,0,9,,,,,,,,6,,,,48,45
15240,note_off,720,0,8,,,,,,,,5,,,,64,64
15240,note_on,15240,0,7,,,,,,,,4,,,,82,45
15240,note_off,120,0,11,,,,,,,,8,,,,74,64
15240,note_on,0,0,11,,,,,,,,8,,,,72,45
15240,note_off,720,0,15,,,,,,,,13,,,,36,64
15240,note_on,0,0,6,,,,,,,,3,,,,72,45
15240,note_on,0,0,13,,,,,,,,11,,,,64,45
15240,note_off,720,0,13,,,,,,,,11,,,,64,64
15240,note_off,120,0,6,,,,,,,,3,,,,74,64
15240,note_on,0,0,10,,,,,,,,7,,,,36,45
15240,note_on,15240,0,12,,,,,,,,10,,,,82,45
15240,note_on,0,0,14,,,,,,,,12,,,,48,45
15240,note_off,720,0,10,,,,,,,,7,,,,36,64
15240,note_on,0,0,15,,,,,,,,13,,,,36,45
15240,note_off,720,0,14,,,,,,,,12,,,,48,64
15360,note_on,0,0,6,,,,,,,,3,,,,74,46
15360,note_off,120,0,6,,,,,,,,3,,,,72,64
15360,note_off,120,0,11,,,,,,,,8,,,,72,64
15360,note_on,0,0,11,,,,,,,,8,,,,74,46
15360,note_off,120,0,12,,,,,,,,10,,,,82,64
15360,note_on,0,0,12,,,,,,,,10,,,,80,45
15360,note_on,0,0,7,,,,,,,,4,,,,80,45
15360,note_off,120,0,7,,,,,,,,4,,,,82,64
15480,note_off,120,0,7,,,,,,,,4,,,,80,64
15480,note_on,0,0,11,,,,,,,,8,,,,76,47
15480,note_off,120,0,11,,,,,,,,8,,,,74,64
15480,note_on,0,0,7,,,,,,,,4,,,,79,45
15480,note_on,0,0,6,,,,,,,,3,,,,76,47
15480,note_off,120,0,6,,,,,,,,3,,,,74,64
15480,note_off,120,0,12,,,,,,,,10,,,,80,64
15480,note_on,0,0,12,,,,,,,,10,,,,79,45
15600,note_on,0,0,7,,,,,,,,4,,,,77,46
15600,note_off,120,0,7,,,,,,,,4,,,,79,64
15600,note_on,0,0,12,,,,,,,,10,,,,77,46
15600,note_on,0,0,11,,,,,,,,8,,,,77,48
15600,note_on,0,0,6,,,,,,,,3,,,,77,48
15600,note_off,120,0,6,,,,,,,,3,,,,76,64
15600,note_off,120,0,11,,,,,,,,8,,,,76,64
15600,note_off,120,0,12,,,,,,,,10,,,,79,64
15720,note_on,0,0,11,,,,,,,,8,,,,79,49
15720,note_off,120,0,11,,,,,,,,8,,,,77,64
15720,note_on,0,0,6,,,,,,,,3,,,,79,49
15720,note_off,120,0,7,,,,,,,,4,,,,77,64
15720,note_on,0,0,7,,,,,,,,4,,,,76,47
15720,note_off,120,0,6,,,,,,,,3,,,,77,64
15720,note_off,120,0,12,,,,,,,,10,,,,77,64
15720,note_on,0,0,12,,,,,,,,10,,,,76,47
15840,note_off,120,0,11,,,,,,,,8,,,,79,64
15840,note_off,120,0,7,,,,,,,,4,,,,76,64
15840,note_on,0,0,7,,,,,,,,4,,,,74,49
15840,note_on,0,0,6,,,,,,,,3,,,,80,50
15840,note_off,120,0,6,,,,,,,,3,,,,79,64
15840,note_on,0,0,11,,,,,,,,8,,,,80,50
15840,note_off,120,0,12,,,,,,,,10,,,,76,64
15840,note_on,0,0,12,,,,,,,,10,,,,74,49
15955,note_off,115,0,11,,,,,,,,8,,,,80,64
15955,note_off,115,0,6,,,,,,,,3,,,,80,64
15960,note_on,5,0,11,,,,,,,,8,,,,82,51
15960,note_on,0,0,15,,,,,,,,13,,,,36,55
15960,note_off,720,0,15,,,,,,,,13,,,,36,64
15960,note_off,720,0,10,,,,,,,,7,,,,36,64
15960,note_on,0,0,10,,,,,,,,7,,,,36,55
15960,note_on,0,0,9,,,,,,,,6,,,,48,55
15960,note_off,120,0,12,,,,,,,,10,,,,74,64
15960,note_off,120,0,7,,,,,,,,4,,,,74,64
15960,note_on,0,0,12,,,,,,,,10,,,,72,51
15960,note_on,0,0,14,,,,,,,,12,,,,48,55
15960,note_off,720,0,14,,,,,,,,12,,,,48,64
15960,note_on,5,0,6,,,,,,,,3,,,,82,51
15960,note_on,0,0,13,,,,,,,,11,,,,64,55
15960,note_off,720,0,13,,,,,,,,11,,,,64,64
15960,note_on,0,0,8,,,,,,,,5,,,,64,55
15960,note_off,720,0,8,,,,,,,,5,,,,64,64
15960,note_on,0,0,7,,,,,,,,4,,,,72,51
15960,note_off,720,0,9,,,,,,,,6,,,,48,64
16080,note_off,120,0,11,,,,,,,,8,,,,82,64
16080,note_on,0,0,11,,,,,,,,8,,,,80,53
16080,note_on,0,0,12,,,,,,,,10,,,,74,53
16080,note_on,0,0,7,,,,,,,,4,,,,74,53
16080,note_off,120,0,7,,,,,,,,4,,,,72,64
16080,note_off,120,0,12,,,,,,,,10,,,,72,64
16080,note_on,0,0,6,,,,,,,,3,,,,80,53
16080,note_off,120,0,6,,,,,,,,3,,,,82,64
16200,note_off,120,0,6,,,,,,,,3,,,,80,64
16200,note_on,0,0,7,,,,,,,,4,,,,76,55
16200,note_off,120,0,7,,,,,,,,4,,,,74,64
16200,note_on,0,0,6,,,,,,,,3,,,,79,55
16200,note_off,120,0,11,,,,,,,,8,,,,80,64
16200,note_on,0,0,11,,,,,,,,8,,,,79,55
16200,note_off,120,0,12,,,,,,,,10,,,,74,64
16200,note_on,0,0,12,,,,,,,,10,,,,76,55
16320,note_on,0,0,6,,,,,,,,3,,,,77,57
16320,note_off,120,0,6,,,,,,,,3,,,,79,64
16320,note_off,120,0,7,,,,,,,,4,,,,76,64
16320,note_off,120,0,11,,,,,,,,8,,,,79,64
16320,note_on,0,0,7,,,,,,,,4,,,,77,57
16320,note_on,0,0,11,,,,,,,,8,,,,77,57
16320,note_on,0,0,12,,,,,,,,10,,,,77,57
16320,note_off,120,0,12,,,,,,,,10,,,,76,64
16440,note_off,120,0,7,,,,,,,,4,,,,77,64
16440,note_on,0,0,12,,,,,,,,10,,,,79,59
16440,note_on,0,0,7,,,,,,,,4,,,,79,59
16440,note_off,120,0,12,,,,,,,,10,,,,77,64
16440,note_on,0,0,6,,,,,,,,3,,,,76,59
16440,note_off,120,0,6,,,,,,,,3,,,,77,64
16440,note_on,0,0,11,,,,,,,,8,,,,76,59
16440,note_off,120,0,11,,,,,,,,8,,,,77,64
16560,note_off,120,0,7,,,,,,,,4,,,,79,64
16560,note_on,0,0,7,,,,,,,,4,,,,80,61
16560,note_on,0,0,11,,,,,,,,8,,,,74,61
16560,note_off,120,0,11,,,,,,,,8,,,,76,64
16560,note_on,0,0,12,,,,,,,,10,,,,80,61
16560,note_off,120,0,6,,,,,,,,3,,,,76,64
16560,note_on,0,0,6,,,,,,,,3,,,,74,61
16560,note_off,120,0,12,,,,,,,,10,,,,79,64
16675,note_off,115,0,7,,,,,,,,4,,,,80,64
16675,note_off,115,0,12,,,,,,,,10,,,,80,64
16680,note_off,120,0,6,,,,,,,,3,,,,74,64
16680,note_on,0,0,6,,,,,,,,3,,,,72,63
16680,note_on,0,0,15,,,,,,,,13,,,,36,65
16680,note_off,120,0,11,,,,,,,,8,,,,74,64
16680,note_on,0,0,11,,,,,,,,8,,,,72,63
16680,note_off,720,0,15,,,,,,,,13,,,,36,64
16680,note_off,720,0,10,,,,,,,,7,,,,36,64
16680,note_off,720,0,14,,,,,,,,12,,,,48,64
16680,note_on,0,0,9,,,,,,,,6,,,,48,65
16680,note_off,720,0,9,,,,,,,,6,,,,48,64
16680,note_on,0,0,13,,,,,,,,11,,,,64,65
16680,note_off,720,0,13,,,,,,,,11,,,,64,64
16680,note_on,0,0,8,,,,,,,,5,,,,64,65
16680,note_off,720,0,8,,,,,,,,5,,,,64,64
16680,note_on,0,0,14,,,,,,,,12,,,,48,65
16680,note_on,5,0,12,,,,,,,,10,,,,82,63
16680,note_on,0,0,10,,,,,,,,7,,,,36,65
16680,note_on,5,0,7,,,,,,,,4,,,,82,63
16800,note_off,120,0,7,,,,,,,,4,,,,82,64
16800,note_off,120,0,11,,,,,,,,8,,,,72,64
16800,note_on,0,0,7,,,,,,,,4,,,,80,65
16800,note_on,0,0,11,,,,,,,,8,,,,74,65
16800,note_off,120,0,12,,,,,,,,10,,,,82,64
16800,note_on,0,0,6,,,,,,,,3,,,,74,65
16800,note_off,120,0,6,,,,,,,,3,,,,72,64
16800,note_on,0,0,12,,,,,,,,10,,,,80,65
16920,note_off,120,0,12,,,,,,,,10,,,,80,64
16920,note_on,0,0,12,,,,,,,,10,,,,79,67
16920,note_on,0,0,7,,,,,,,,4,,,,79,67
16920,note_off,120,0,7,,,,,,,,4,,,,80,64
16920,note_on,0,0,11,,,,,,,,8,,,,76,67
16920,note_off,120,0,6,,,,,,,,3,,,,74,64
16920,note_on,0,0,6,,,,,,,,3,,,,76,67
16920,note_off,120,0,11,,,,,,,,8,,,,74,64
17040,note_off,120,0,11,,,,,,,,8,,,,76,64
17040,note_on,0,0,11,,,,,,,,8,,,,77,69
17040,note_off,120,0,6,,,,,,,,3,,,,76,64
17040,note_on,0,0,6,,,,,,,,3,,,,77,69
17040,note_off,120,0,7,,,,,,,,4,,,,79,64
17040,note_off,120,0,12,,,,,,,,10,,,,79,64
17040,note_on,0,0,12,,,,,,,,10,,,,77,69
17040,note_on,0,0,7,,,,,,,,4,,,,77,69
17160,note_off,120,0,12,,,,,,,,10,,,,77,64
17160,note_off,120,0,11,,,,,,,,8,,,,77,64
17160,note_on,0,0,12,,,,,,,,10,,,,76,71
17160,note_on,0,0,11,,,,,,,,8,,,,79,71
17160,note_on,0,0,6,,,,,,,,3,,,,79,71
17160,note_off,120,0,6,,,,,,,,3,,,,77,64
17160,note_off,120,0,7,,,,,,,,4,,,,77,64
17160,note_on,0,0,7,,,,,,,,4,,,,76,71
17280,note_on,0,0,7,,,,,,,,4,,,,74,73
17280,note_off,120,0,12,,,,,,,,10,,,,76,64
17280,note_on,0,0,12,,,,,,,,10,,,,74,73
17280,note_on,0,0,6,,,,,,,,3,,,,80,73
17280,note_off,120,0,6,,,,,,,,3,,,,79,64
17280,note_off,120,0,11,,,,,,,,8,,,,79,64
17280,note_on,0,0,11,,,,,,,,8,,,,80,73
17280,note_off,120,0,7,,,,,,,,4,,,,76,64
17320,note_off,640,0,13,,,,,,,,11,,,,64,64
17395,note_off,115,0,11,,,,,,,,8,,,,80,64
17395,note_off,115,0,7,,,,,,,,4,,,,74,64
17395,note_off,115,0,12,,,,,,,,10,,,,74,64
17395,note_off,115,0,6,,,,,,,,3,,,,80,64
17400,note_on,0,0,8,,,,,,,,5,,,,67,75
17400,note_off,720,0,8,,,,,,,,5,,,,64,64
17400,note_on,0,0,10,,,,,,,,7,,,,36,75
17400,note_off,720,0,10,,,,,,,,7,,,,36,64
17400,note_on,5,0,12,,,,,,,,10,,,,76,75
17400,note_on,5,0,6,,,,,,,,3,,,,82,75
17400,note_off,720,0,9,,,,,,,,6,,,,48,64
17400,note_on,0,0,15,,,,,,,,13,,,,36,75
17400,note_on,0,0,9,,,,,,,,6,,,,48,75
17400,note_on,5,0,11,,,,,,,,8,,,,82,75
17400,note_on,80,0,13,,,,,,,,11,,,,67,75
17400,note_on,5,0,7,,,,,,,,4,,,,76,75
17400,note_off,720,0,15,,,,,,,,13,,,,36,64
17400,note_off,720,0,14,,,,,,,,12,,,,48,64
17400,note_on,0,0,14,,,,,,,,12,,,,48,75
17640,note_on,0,0,7,,,,,,,,4,,,,79,75
17640,note_off,240,0,12,,,,,,,,10,,,,76,64
17640,note_off,240,0,11,,,,,,,,8,,,,82,64
17640,note_on,0,0,11,,,,,,,,8,,,,80,75
17640,note_on,0,0,12,,,,,,,,10,,,,79,75
17640,note_off,240,0,7,,,,,,,,4,,,,76,64
17640,note_off,240,0,6,,,,,,,,3,,,,82,64
17640,note_on,0,0,6,,,,,,,,3,,,,80,75
17880,note_off,240,0,6,,,,,,,,3,,,,80,64
17880,note_on,0,0,6,,,,,,,,3,,,,79,75
17880,note_off,240,0,7,,,,,,,,4,,,,79,64
17880,note_on,0,0,7,,,,,,,,4,,,,82,75
17880,note_on,0,0,12,,,,,,,,10,,,,82,75
17880,note_off,240,0,12,,,,,,,,10,,,,79,64
17880,note_on,0,0,11,,,,,,,,8,,,,79,75
17880,note_off,240,0,11,,,,,,,,8,,,,80,64
18115,note_off,235,0,11,,,,,,,,8,,,,79,64
18115,note_off,235,0,6,,,,,,,,3,,,,79,64
18115,note_off,235,0,7,,,,,,,,4,,,,82,64
18115,note_off,235,0,12,,,,,,,,10,,,,82,64
18120,note_on,0,0,14,,,,,,,,12,,,,48,75
18120,note_on,0,0,8,,,,,,,,5,,,,65,75
18120,note_off,720,0,8,,,,,,,,5,,,,67,64
18120,note_off,720,0,14,,,,,,,,12,,,,48,64
18120,note_on,0,0,15,,,,,,,,13,,,,36,75
18120,note_off,720,0,15,,,,,,,,13,,,,36,64
18120,note_on,5,0,12,,,,,,,,10,,,,84,75
18120,note_on,5,0,6,,,,,,,,3,,,,80,75
18120,note_on,5,0,7,,,,,,,,4,,,,84,75
18120,note_on,0,0,9,,,,,,,,6,,,,48,75
18120,note_off,720,0,9,,,,,,,,6,,,,48,64
18120,note_off,720,0,13,,,,,,,,11,,,,67,64
18120,note_on,0,0,13,,,,,,,,11,,,,65,75
18120,note_off,720,0,10,,,,,,,,7,,,,36,64
18120,note_on,0,0,10,,,,,,,,7,,,,36,75
18120,note_on,5,0,11,,,,,,,,8,,,,80,75
18360,note_on,0,0,6,,,,,,,,3,,,,79,75
18360,note_on,0,0,12,,,,,,,,10,,,,82,75
18360,note_off,240,0,6,,,,,,,,3,,,,80,64
18360,note_on,0,0,11,,,,,,,,8,,,,79,75
18360,note_off,240,0,12,,,,,,,,10,,,,84,64
18360,note_on,0,0,7,,,,,,,,4,,,,82,75
18360,note_off,240,0,11,,,,,,,,8,,,,80,64
18360,note_off,240,0,7,,,,,,,,4,,,,84,64
18600,note_on,0,0,7,,,,,,,,4,,,,80,75
18600,note_off,240,0,12,,,,,,,,10,,,,82,64
18600,note_on,0,0,12,,,,,,,,10,,,,80,75
18600,note_off,240,0,11,,,,,,,,8,,,,79,64
18600,note_on,0,0,11,,,,,,,,8,,,,77,75
18600,note_off,240,0,7,,,,,,,,4,,,,82,64
18600,note_on,0,0,6,,,,,,,,3,,,,77,75
18600,note_off,240,0,6,,,,,,,,3,,,,79,64
18835,note_off,235,0,7,,,,,,,,4,,,,80,64
18835,note_off,235,0,11,,,,,,,,8,,,,77,64
18835,note_off,235,0,6,,,,,,,,3,,,,77,64
18835,note_off,235,0,12,,,,,,,,10,,,,80,64
18840,note_on,0,0,14,,,,,,,,12,,,,48,75
18840,note_on,5,0,7,,,,,,,,4,,,,79,75
18840,note_off,720,0,8,,,,,,,,5,,,,65,64
18840,note_on,0,0,8,,,,,,,,5,,,,64,75
18840,note_on,5,0,6,,,,,,,,3,,,,82,75
18840,note_off,720,0,13,,,,,,,,11,,,,65,64
18840,note_off,720,0,10,,,,,,,,7,,,,36,64
18840,note_on,0,0,10,,,,,,,,7,,,,36,75
18840,note_on,0,0,15,,,,,,,,13,,,,36,75
18840,note_on,5,0,11,,,,,,,,8,,,,82,75
18840,note_on,5,0,12,,,,,,,,10,,,,79,75
18840,note_on,0,0,9,,,,,,,,6,,,,48,75
18840,note_off,720,0,9,,,,,,,,6,,,,48,64
18840,note_off,720,0,14,,,,,,,,12,,,,48,64
18840,note_on,0,0,13,,,,,,,,11,,,,64,75
18840,note_off,720,0,15,,,,,,,,13,,,,36,64
19080,note_off,240,0,11,,,,,,,,8,,,,82,64
19080,note_off,240,0,12,,,,,,,,10,,,,79,64
19080,note_off,240,0,6,,,,,,,,3,,,,82,64
19080,note_on,0,0,12,,,,,,,,10,,,,77,72
19080,note_on,0,0,11,,,,,,,,8,,,,80,72
19080,note_on,0,0,6,,,,,,,,3,,,,80,72
19080,note_on,0,0,13,,,,,,,,11,,,,65,72
19080,note_off,240,0,13,,,,,,,,11,,,,64,64
19080,note_on,0,0,8,,,,,,,,5,,,,65,72
19080,note_off,240,0,8,,,,,,,,5,,,,64,64
19080,note_on,0,0,7,,,,,,,,4,,,,77,72
19080,note_off,240,0,7,,,,,,,,4,,,,79,64
19320,note_off,240,0,13,,,,,,,,11,,,,65,64
19320,note_on,0,0,8,,,,,,,,5,,,,67,69
19320,note_on,0,0,7,,,,,,,,4,,,,76,69
19320,note_on,0,0,6,,,,,,,,3,,,,79,69
19320,note_off,240,0,6,,,,,,,,3,,,,80,64
19320,note_off,240,0,8,,,,,,,,5,,,,65,64
19320,note_on,0,0,12,,,,,,,,10,,,,76,69
19320,note_off,240,0,12,,,,,,,,10,,,,77,64
19320,note_off,240,0,7,,,,,,,,4,,,,77,64
19320,note_off,240,0,11,,,,,,,,8,,,,80,64
19320,note_on,0,0,11,,,,,,,,8,,,,79,69
19320,note_on,0,0,13,,,,,,,,11,,,,67,69
19555,note_off,235,0,11,,,,,,,,8,,,,79,64
19555,note_off,235,0,6,,,,,,,,3,,,,79,64
19555,note_off,235,0,12,,,,,,,,10,,,,76,64
19555,note_off,235,0,7,,,,,,,,4,,,,76,64
19560,note_on,0,0,15,,,,,,,,13,,,,36,65
19560,note_on,0,0,10,,,,,,,,7,,,,36,65
19560,note_off,720,0,9,,,,,,,,6,,,,48,64
19560,note_off,720,0,10,,,,,,,,7,,,,36,64
19560,note_on,0,0,9,,,,,,,,6,,,,48,65
19560,note_on,0,0,14,,,,,,,,12,,,,48,65
19560,note_on,0,0,8,,,,,,,,5,,,,65,66
19560,note_off,720,0,15,,,,,,,,13,,,,36,64
19560,note_on,5,0,6,,,,,,,,3,,,,80,66
19560,note_off,240,0,8,,,,,,,,5,,,,67,64
19560,note_on,0,0,13,,,,,,,,11,,,,65,66
19560,note_off,720,0,14,,,,,,,,12,,,,48,64
19560,note_on,5,0,11,,,,,,,,8,,,,80,66
19560,note_off,240,0,13,,,,,,,,11,,,,67,64
19560,note_on,5,0,7,,,,,,,,4,,,,84,66
19560,note_on,5,0,12,,,,,,,,10,,,,84,66
19800,note_off,240,0,7,,,,,,,,4,,,,84,64
19800,note_on,0,0,7,,,,,,,,4,,,,82,63
19800,note_on,0,0,12,,,,,,,,10,,,,82,63
19800,note_on,0,0,6,,,,,,,,3,,,,79,63
19800,note_off,240,0,12,,,,,,,,10,,,,84,64
19800,note_off,240,0,6,,,,,,,,3,,,,80,64
19800,note_off,240,0,11,,,,,,,,8,,,,80,64
19800,note_on,0,0,11,,,,,,,,8,,,,79,63
20040,note_off,240,0,12,,,,,,,,10,,,,82,64
20040,note_off,240,0,7,,,,,,,,4,,,,82,64
20040,note_on,0,0,6,,,,,,,,3,,,,77,60
20040,note_off,240,0,6,,,,,,,,3,,,,79,64
20040,note_off,240,0,11,,,,,,,,8,,,,79,64
20040,note_on,0,0,11,,,,,,,,8,,,,77,60
20040,note_on,0,0,12,,,,,,,,10,,,,80,60
20040,note_on,0,0,7,,,,,,,,4,,,,80,60
20200,note_off,640,0,13,,,,,,,,11,,,,65,64
20200,note_off,640,0,8,,,,,,,,5,,,,65,64
20275,note_off,235,0,6,,,,,,,,3,,,,77,64
20275,note_off,235,0,7,,,,,,,,4,,,,80,64
20275,note_off,235,0,11,,,,,,,,8,,,,77,64
20275,note_off,235,0,12,,,,,,,,10,,,,80,64
20280,note_on,5,0,7,,,,,,,,4,,,,79,57
20280,note_on,5,0,6,,,,,,,,3,,,,82,57
20280,note_on,0,0,9,,,,,,,,6,,,,48,55
20280,note_on,5,0,12,,,,,,,,10,,,,79,57
20280,note_off,720,0,10,,,,,,,,7,,,,36,64
20280,note_on,0,0,10,,,,,,,,7,,,,36,55
20280,note_off,720,0,9,,,,,,,,6,,,,48,64
20280,note_on,5,0,11,,,,,,,,8,,,,82,57
20280,note_on,80,0,8,,,,,,,,5,,,,64,56
20280,note_on,0,0,15,,,,,,,,13,,,,36,55
20280,note_off,720,0,15,,,,,,,,13,,,,36,64
20280,note_on,0,0,14,,,,,,,,12,,,,48,55
20280,note_off,720,0,14,,,,,,,,12,,,,48,64
20280,note_on,80,0,13,,,,,,,,11,,,,64,56
20520,note_off,240,0,6,,,,,,,,3,,,,82,64
20520,note_on,0,0,11,,,,,,,,8,,,,80,53
20520,note_off,240,0,8,,,,,,,,5,,,,64,64
20520,note_on,0,0,12,,,,,,,,10,,,,77,53
20520,note_off,240,0,12,,,,,,,,10,,,,79,64
20520,note_on,0,0,6,,,,,,,,3,,,,80,53
20520,note_off,240,0,11,,,,,,,,8,,,,82,64
20520,note_on,0,0,8,,,,,,,,5,,,,65,53
20520,note_on,0,0,7,,,,,,,,4,,,,77,53
20520,note_off,240,0,7,,,,,,,,4,,,,79,64
20520,note_on,0,0,13,,,,,,,,11,,,,65,53
20520,note_off,240,0,13,,,,,,,,11,,,,64,64
20760,note_on,0,0,11,,,,,,,,8,,,,79,49
20760,note_off,240,0,11,,,,,,,,8,,,,80,64
20760,note_on,0,0,8,,,,,,,,5,,,,67,49
20760,note_on,0,0,12,,,,,,,,10,,,,76,49
20760,note_off,240,0,12,,,,,,,,10,,,,77,64
20760,note_off,240,0,6,,,,,,,,3,,,,80,64
20760,note_on,0,0,6,,,,,,,,3,,,,79,49
20760,note_on,0,0,13,,,,,,,,11,,,,67,49
20760,note_off,240,0,13,,,,,,,,11,,,,65,64
20760,note_off,240,0,8,,,,,,,,5,,,,65,64
20760,note_off,240,0,7,,,,,,,,4,,,,77,64
20760,note_on,0,0,7,,,,,,,,4,,,,76,49
20995,note_off,235,0,11,,,,,,,,8,,,,79,64
20995,note_off,235,0,7,,,,,,,,4,,,,76,64
20995,note_off,235,0,8,,,,,,,,5,,,,67,64
20995,note_off,235,0,13,,,,,,,,11,,,,67,64
20995,note_off,235,0,6,,,,,,,,3,,,,79,64
20995,note_off,235,0,12,,,,,,,,10,,,,76,64
21000,note_off,720,0,9,,,,,,,,6,,,,48,64
21000,note_off,720,0,15,,,,,,,,13,,,,36,64
21000,note_on,5,0,13,,,,,,,,11,,,,65,45
21000,note_on,5,0,7,,,,,,,,4,,,,77,45
21000,note_on,21000,0,1,,,,,,,,0,,,,72,30
21000,note_on,0,0,1,,,,,,,,0,,,,77,30
21000,note_on,0,0,1,,,,,,,,0,,,,80,30
21000,note_on,5,0,12,,,,,,,,10,,,,77,45
21000,note_on,21000,0,2,,,,,,,,0,,,,36,30
21000,note_on,5,0,8,,,,,,,,5,,,,65,45
21000,note_on,5,0,11,,,,,,,,8,,,,80,45
21000,note_on,0,0,2,,,,,,,,0,,,,48,30
21000,note_on,0,0,9,,,,,,,,6,,,,48,45
21000,note_off,720,0,14,,,,,,,,12,,,,48,64
21000,note_on,0,0,14,,,,,,,,12,,,,48,45
21000,note_on,5,0,6,,,,,,,,3,,,,80,45
21000,note_on,0,0,15,,,,,,,,13,,,,36,45
21000,note_off,720,0,10,,,,,,,,7,,,,36,64
21000,note_on,0,0,10,,,,,,,,7,,,,36,45
21080,note_off,80,0,8,,,,,,,,5,,,,65,64
21080,note_off,0,0,1,,,,,,,,0,,,,72,64
21080,note_off,0,0,1,,,,,,,,0,,,,77,64
21080,note_off,80,0,1,,,,,,,,0,,,,80,64
21080,note_off,80,0,2,,,,,,,,0,,,,48,64
21080,note_off,80,0,7,,,,,,,,4,,,,77,64
21080,note_off,0,0,2,,,,,,,,0,,,,36,64
21080,note_off,80,0,12,,,,,,,,10,,,,77,64
21080,note_off,80,0,13,,,,,,,,11,,,,65,64
21080,note_off,80,0,6,,,,,,,,3,,,,80,64
21080,note_off,80,0,11,,,,,,,,8,,,,80,64
21240,note_on,160,0,2,,,,,,,,0,,,,36,30
21240,note_on,160,0,11,,,,,,,,8,,,,80,45
21240,note_on,160,0,12,,,,,,,,10,,,,77,45
21240,note_on,160,0,13,,,,,,,,11,,,,65,45
21240,note_on,160,0,8,,,,,,,,5,,,,65,45
21240,note_on,160,0,1,,,,,,,,0,,,,72,30
21240,note_on,0,0,1,,,,,,,,0,,,,77,30
21240,note_on,0,0,1,,,,,,,,0,,,,80,30
21240,note_on,160,0,6,,,,,,,,3,,,,80,45
21240,note_on,160,0,7,,,,,,,,4,,,,77,45
21240,note_on,0,0,2,,,,,,,,0,,,,48,30
21320,note_off,80,0,12,,,,,,,,10,,,,77,64
21320,note_off,0,0,1,,,,,,,,0,,,,72,64
21320,note_off,0,0,1,,,,,,,,0,,,,77,64
21320,note_off,80,0,1,,,,,,,,0,,,,80,64
21320,note_off,80,0,8,,,,,,,,5,,,,65,64
21320,note_off,80,0,11,,,,,,,,8,,,,80,64
21320,note_off,80,0,7,,,,,,,,4,,,,77,64
21320,note_off,0,0,2,,,,,,,,0,,,,36,64
21320,note_off,80,0,2,,,,,,,,0,,,,48,64
21320,note_off,80,0,13,,,,,,,,11,,,,65,64
21320,note_off,80,0,6,,,,,,,,3,,,,80,64
21480,note_on,160,0,2,,,,,,,,0,,,,36,30
21480,note_on,0,0,1,,,,,,,,0,,,,80,30
21480,note_on,160,0,8,,,,,,,,5,,,,65,45
21480,note_on,160,0,13,,,,,,,,11,,,,65,45
21480,note_on,160,0,12,,,,,,,,10,,,,77,45
21480,note_on,160,0,1,,,,,,,,0,,,,72,30
21480,note_on,0,0,1,,,,,,,,0,,,,77,30
21480,note_on,160,0,7,,,,,,,,4,,,,77,45
21480,note_on,160,0,11,,,,,,,,8,,,,80,45
21480,note_on,0,0,2,,,,,,,,0,,,,48,30
21480,note_on,160,0,6,,,,,,,,3,,,,80,45
21560,note_off,80,0,12,,,,,,,,10,,,,77,64
21560,note_off,80,0,11,,,,,,,,8,,,,80,64
21560,note_off,80,0,8,,,,,,,,5,,,,65,64
21560,note_off,0,0,1,,,,,,,,0,,,,72,64
21560,note_off,0,0,1,,,,,,,,0,,,,77,64
21560,note_off,80,0,1,,,,,,,,0,,,,80,64
21560,note_off,80,0,2,,,,,,,,0,,,,48,64
21560,note_off,80,0,6,,,,,,,,3,,,,80,64
21560,note_off,80,0,13,,,,,,,,11,,,,65,64
21560,note_off,0,0,2,,,,,,,,0,,,,36,64
21560,note_off,80,0,7,,,,,,,,4,,,,77,64
21720,note_off,720,0,14,,,,,,,,12,,,,48,64
21720,note_on,0,0,14,,,,,,,,12,,,,48,45
21720,note_off,720,0,10,,,,,,,,7,,,,36,64
21720,note_on,0,0,9,,,,,,,,6,,,,48,45
21720,note_on,160,0,8,,,,,,,,5,,,,63,45
21720,note_on,160,0,7,,,,,,,,4,,,,77,45
21720,note_on,160,0,11,,,,,,,,8,,,,81,45
21720,note_on,160,0,12,,,,,,,,10,,,,77,45
21720,note_off,720,0,9,,,,,,,,6,,,,48,64
21720,note_on,160,0,13,,,,,,,,11,,,,63,45
21720,note_on,0,0,2,,,,,,,,0,,,,48,30
21720,note_on,0,0,1,,,,,,,,0,,,,77,30
21720,note_on,160,0,2,,,,,,,,0,,,,36,30
21720,note_on,0,0,10,,,,,,,,7,,,,36,45
21720,note_on,160,0,6,,,,,,,,3,,,,81,45
21720,note_on,160,0,1,,,,,,,,0,,,,72,30
21720,note_on,0,0,15,,,,,,,,13,,,,36,45
21720,note_off,720,0,15,,,,,,,,13,,,,36,64
21720,note_on,0,0,1,,,,,,,,0,,,,81,30
21800,note_off,80,0,1,,,,,,,,0,,,,81,64
21800,note_off,80,0,11,,,,,,,,8,,,,81,64
21800,note_off,80,0,7,,,,,,,,4,,,,77,64
21800,note_off,80,0,12,,,,,,,,10,,,,77,64
21800,note_off,80,0,6,,,,,,,,3,,,,81,64
21800,note_off,0,0,1,,,,,,,,0,,,,77,64
21800,note_off,0,0,1,,,,,,,,0,,,,72,64
21800,note_off,80,0,13,,,,,,,,11,,,,63,64
21800,note_off,0,0,2,,,,,,,,0,,,,36,64
21800,note_off,80,0,2,,,,,,,,0,,,,48,64
21800,note_off,80,0,8,,,,,,,,5,,,,63,64
21960,note_on,0,0,2,,,,,,,,0,,,,48,30
21960,note_on,160,0,2,,,,,,,,0,,,,36,30
21960,note_on,160,0,7,,,,,,,,4,,,,77,45
21960,note_on,0,0,1,,,,,,,,0,,,,77,30
21960,note_on,160,0,6,,,,,,,,3,,,,81,45
21960,note_on,160,0,11,,,,,,,,8,,,,81,45
21960,note_on,160,0,12,,,,,,,,10,,,,77,45
21960,note_on,160,0,13,,,,,,,,11,,,,63,45
21960,note_on,0,0,1,,,,,,,,0,,,,81,30
21960,note_on,160,0,8,,,,,,,,5,,,,63,45
21960,note_on,160,0,1,,,,,,,,0,,,,72,30
22040,note_off,80,0,8,,,,,,,,5,,,,63,64
22040,note_off,80,0,11,,,,,,,,8,,,,81,64
22040,note_off,0,0,1,,,,,,,,0,,,,72,64
22040,note_off,0,0,1,,,,,,,,0,,,,77,64
22040,note_off,80,0,1,,,,,,,,0,,,,81,64
22040,note_off,80,0,12,,,,,,,,10,,,,77,64
22040,note_off,80,0,2,,,,,,,,0,,,,48,64
22040,note_off,80,0,6,,,,,,,,3,,,,81,64
22040,note_off,80,0,7,,,,,,,,4,,,,77,64
22040,note_off,80,0,13,,,,,,,,11,,,,63,64
22040,note_off,0,0,2,,,,,,,,0,,,,36,64
22200,note_on,160,0,2,,,,,,,,0,,,,36,30
22200,note_on,160,0,13,,,,,,,,11,,,,63,45
22200,note_on,160,0,7,,,,,,,,4,,,,77,45
22200,note_on,0,0,1,,,,,,,,0,,,,81,30
22200,note_on,160,0,11,,,,,,,,8,,,,81,45
22200,note_on,0,0,1,,,,,,,,0,,,,77,30
22200,note_on,160,0,1,,,,,,,,0,,,,72,30
22200,note_on,0,0,2,,,,,,,,0,,,,48,30
22200,note_on,160,0,8,,,,,,,,5,,,,63,45
22200,note_on,160,0,6,,,,,,,,3,,,,81,45
22200,note_on,160,0,12,,,,,,,,10,,,,77,45
22280,note_off,80,0,6,,,,,,,,3,,,,81,64
22280,note_off,0,0,2,,,,,,,,0,,,,36,64
22280,note_off,80,0,2,,,,,,,,0,,,,48,64
22280,note_off,80,0,1,,,,,,,,0,,,,81,64
22280,note_off,80,0,7,,,,,,,,4,,,,77,64
22280,note_off,0,0,1,,,,,,,,0,,,,72,64
22280,note_off,80,0,8,,,,,,,,5,,,,63,64
22280,note_off,80,0,12,,,,,,,,10,,,,77,64
22280,note_off,0,0,1,,,,,,,,0,,,,77,64
22280,note_off,80,0,11,,,,,,,,8,,,,81,64
22280,note_off,80,0,13,,,,,,,,11,,,,63,64
22440,note_on,0,0,15,,,,,,,,13,,,,36,45
22440,note_off,720,0,9,,,,,,,,6,,,,48,64
22440,note_on,0,0,9,,,,,,,,6,,,,48,45
22440,note_on,0,0,14,,,,,,,,12,,,,48,45
22440,note_off,720,0,14,,,,,,,,12,,,,48,64
22440,note_on,160,0,8,,,,,,,,5,,,,61,45
22440,note_on,160,0,6,,,,,,,,3,,,,82,45
22440,note_on,160,0,7,,,,,,,,4,,,,77,45
22440,note_on,0,0,1,,,,,,,,0,,,,77,30
22440,note_on,160,0,1,,,,,,,,0,,,,72,30
22440,note_on,0,0,1,,,,,,,,0,,,,82,30
22440,note_on,160,0,11,,,,,,,,8,,,,82,45
22440,note_off,720,0,15,,,,,,,,13,,,,36,64
22440,note_on,160,0,2,,,,,,,,0,,,,36,30
22440,note_on,160,0,13,,,,,,,,11,,,,61,45
22440,note_on,160,0,12,,,,,,,,10,,,,77,45
22440,note_off,720,0,10,,,,,,,,7,,,,36,64
22440,note_on,0,0,10,,,,,,,,7,,,,36,45
22440,note_on,0,0,2,,,,,,,,0,,,,48,30
22520,note_off,80,0,2,,,,,,,,0,,,,48,64
22520,note_off,80,0,12,,,,,,,,10,,,,77,64
22520,note_off,80,0,8,,,,,,,,5,,,,61,64
22520,note_off,80,0,13,,,,,,,,11,,,,61,64
22520,note_off,0,0,1,,,,,,,,0,,,,77,64
22520,note_off,80,0,7,,,,,,,,4,,,,77,64
22520,note_off,80,0,1,,,,,,,,0,,,,82,64
22520,note_off,0,0,2,,,,,,,,0,,,,36,64
22520,note_off,80,0,6,,,,,,,,3,,,,82,64
22520,note_off,80,0,11,,,,,,,,8,,,,82,64
22520,note_off,0,0,1,,,,,,,,0,,,,72,64
22680,note_on,160,0,1,,,,,,,,0,,,,72,30
22680,note_on,160,0,13,,,,,,,,11,,,,61,45
22680,note_on,160,0,12,,,,,,,,10,,,,77,45
22680,note_on,0,0,2,,,,,,,,0,,,,48,30
22680,note_on,160,0,11,,,,,,,,8,,,,82,45
22680,note_on,160,0,8,,,,,,,,5,,,,61,45
22680,note_on,160,0,2,,,,,,,,0,,,,36,30
22680,note_on,160,0,6,,,,,,,,3,,,,82,45
22680,note_on,0,0,1,,,,,,,,0,,,,77,30
22680,note_on,0,0,1,,,,,,,,0,,,,82,30
22680,note_on,160,0,7,,,,,,,,4,,,,77,45
22760,note_off,80,0,6,,,,,,,,3,,,,82,64
22760,note_off,80,0,2,,,,,,,,0,,,,48,64
22760,note_off,0,0,2,,,,,,,,0,,,,36,64
22760,note_off,80,0,12,,,,,,,,10,,,,77,64
22760,note_off,80,0,8,,,,,,,,5,,,,61,64
22760,note_off,80,0,1,,,,,,,,0,,,,82,64
22760,note_off,80,0,7,,,,,,,,4,,,,77,64
22760,note_off,0,0,1,,,,,,,,0,,,,77,64
22760,note_off,80,0,11,,,,,,,,8,,,,82,64
22760,note_off,0,0,1,,,,,,,,0,,,,72,64
22760,note_off,80,0,13,,,,,,,,11,,,,61,64
22920,note_on,160,0,13,,,,,,,,11,,,,61,45
22920,note_on,160,0,2,,,,,,,,0,,,,36,30
22920,note_on,0,0,2,,,,,,,,0,,,,48,30
22920,note_on,160,0,1,,,,,,,,0,,,,72,30
22920,note_on,160,0,6,,,,,,,,3,,,,82,45
22920,note_on,0,0,1,,,,,,,,0,,,,82,30
22920,note_on,160,0,11,,,,,,,,8,,,,82,45
22920,note_on,160,0,8,,,,,,,,5,,,,61,45
22920,note_on,160,0,12,,,,,,,,10,,,,77,45
22920,note_on,0,0,1,,,,,,,,0,,,,77,30
22920,note_on,160,0,7,,,,,,,,4,,,,77,45
23000,note_off,80,0,8,,,,,,,,5,,,,61,64
23000,note_off,80,0,13,,,,,,,,11,,,,61,64
23000,note_off,80,0,1,,,,,,,,0,,,,82,64
23000,note_off,0,0,2,,,,,,,,0,,,,36,64
23000,note_off,80,0,12,,,,,,,,10,,,,77,64
23000,note_off,80,0,6,,,,,,,,3,,,,82,64
23000,note_off,0,0,1,,,,,,,,0,,,,77,64
23000,note_off,80,0,11,,,,,,,,8,,,,82,64
23000,note_off,0,0,1,,,,,,,,0,,,,72,64
23000,note_off,80,0,7,,,,,,,,4,,,,77,64
23000,note_off,80,0,2,,,,,,,,0,,,,48,64
23160,note_on,0,0,9,,,,,,,,6,,,,48,45
23160,note_off,720,0,14,,,,,,,,12,,,,48,64
23160,note_on,160,0,7,,,,,,,,4,,,,77,45
23160,note_on,160,0,11,,,,,,,,8,,,,83,45
23160,note_on,160,0,8,,,,,,,,5,,,,61,45
23160,note_on,160,0,12,,,,,,,,10,,,,77,45
23160,note_on,160,0,13,,,,,,,,11,,,,61,45
23160,note_on,0,0,10,,,,,,,,7,,,,36,45
23160,note_off,720,0,9,,,,,,,,6,,,,48,64
23160,note_off,720,0,10,,,,,,,,7,,,,36,64
23160,note_on,160,0,6,,,,,,,,3,,,,83,45
23160,note_on,0,0,15,,,,,,,,13,,,,36,45
23160,note_off,720,0,15,,,,,,,,13,,,,36,64
23160,note_on,0,0,2,,,,,,,,0,,,,48,30
23160,note_on,0,0,1,,,,,,,,0,,,,83,30
23160,note_on,0,0,1,,,,,,,,0,,,,77,30
23160,note_on,160,0,1,,,,,,,,0,,,,72,30
23160,note_on,160,0,2,,,,,,,,0,,,,36,30
23160,note_on,0,0,14,,,,,,,,12,,,,48,45
23240,note_off,0,0,1,,,,,,,,0,,,,72,64
23240,note_off,0,0,1,,,,,,,,0,,,,77,64
23240,note_off,80,0,1,,,,,,,,0,,,,83,64
23240,note_off,80,0,6,,,,,,,,3,,,,83,64
23240,note_off,80,0,13,,,,,,,,11,,,,61,64
23240,note_off,80,0,7,,,,,,,,4,,,,77,64
23240,note_off,80,0,11,,,,,,,,8,,,,83,64
23240,note_off,80,0,2,,,,,,,,0,,,,48,64
23240,note_off,80,0,8,,,,,,,,5,,,,61,64
23240,note_off,0,0,2,,,,,,,,0,,,,36,64
23240,note_off,80,0,12,,,,,,,,10,,,,77,64
23400,note_on,160,0,11,,,,,,,,8,,,,83,45
23400,note_on,160,0,7,,,,,,,,4,,,,77,45
23400,note_on,160,0,2,,,,,,,,0,,,,36,30
23400,note_on,160,0,6,,,,,,,,3,,,,83,45
23400,note_on,0,0,2,,,,,,,,0,,,,48,30
23400,note_on,160,0,1,,,,,,,,0,,,,72,30
23400,note_on,0,0,1,,,,,,,,0,,,,77,30
23400,note_on,0,0,1,,,,,,,,0,,,,83,30
23400,note_on,160,0,12,,,,,,,,10,,,,77,45
23400,note_on,160,0,8,,,,,,,,5,,,,61,45
23400,note_on,160,0,13,,,,,,,,11,,,,61,45
23480,note_off,0,0,1,,,,,,,,0,,,,77,64
23480,note_off,80,0,13,,,,,,,,11,,,,61,64
23480,note_off,80,0,8,,,,,,,,5,,,,61,64
23480,note_off,80,0,11,,,,,,,,8,,,,83,64
23480,note_off,80,0,6,,,,,,,,3,,,,83,64
23480,note_off,80,0,1,,,,,,,,0,,,,83,64
23480,note_off,0,0,2,,,,,,,,0,,,,36,64
23480,note_off,80,0,2,,,,,,,,0,,,,48,64
23480,note_off,0,0,1,,,,,,,,0,,,,72,64
23480,note_off,80,0,7,,,,,,,,4,,,,77,64
23480,note_off,80,0,12,,,,,,,,10,,,,77,64
23640,note_on,0,0,2,,,,,,,,0,,,,48,30
23640,note_on,160,0,8,,,,,,,,5,,,,61,45
23640,note_on,160,0,12,,,,,,,,10,,,,77,45
23640,note_on,160,0,11,,,,,,,,8,,,,83,45
23640,note_on,160,0,1,,,,,,,,0,,,,72,30
23640,note_on,0,0,1,,,,,,,,0,,,,77,30
23640,note_on,160,0,6,,,,,,,,3,,,,83,45
23640,note_on,0,0,1,,,,,,,,0,,,,83,30
23640,note_on,160,0,13,,,,,,,,11,,,,61,45
23640,note_on,160,0,2,,,,,,,,0,,,,36,30
23640,note_on,160,0,7,,,,,,,,4,,,,77,45
23720,note_off,80,0,12,,,,,,,,10,,,,77,64
23720,note_off,80,0,13,,,,,,,,11,,,,61,64
23720,note_off,0,0,2,,,,,,,,0,,,,36,64
23720,note_off,80,0,2,,,,,,,,0,,,,48,64
23720,note_off,0,0,1,,,,,,,,0,,,,77,64
23720,note_off,0,0,1,,,,,,,,0,,,,72,64
23720,note_off,80,0,1,,,,,,,,0,,,,83,64
23720,note_off,80,0,7,,,,,,,,4,,,,77,64
23720,note_off,80,0,6,,,,,,,,3,,,,83,64
23720,note_off,80,0,11,,,,,,,,8,,,,83,64
23720,note_off,80,0,8,,,,,,,,5,,,,61,64
23880,note_on,160,0,12,,,,,,,,10,,,,76,45
23880,note_off,720,0,10,,,,,,,,7,,,,36,64
23880,note_on,0,0,10,,,,,,,,7,,,,36,45
23880,note_on,160,0,1,,,,,,,,0,,,,72,30
23880,note_on,0,0,1,,,,,,,,0,,,,76,30
23880,note_on,0,0,1,,,,,,,,0,,,,84,30
23880,note_off,720,0,15,,,,,,,,13,,,,36,64
23880,note_on,0,0,15,,,,,,,,13,,,,36,45
23880,note_on,160,0,7,,,,,,,,4,,,,76,45
23880,note_on,0,0,2,,,,,,,,0,,,,48,30
23880,note_on,160,0,11,,,,,,,,8,,,,84,45
23880,note_on,160,0,6,,,,,,,,3,,,,84,45
23880,note_on,0,0,14,,,,,,,,12,,,,48,45
23880,note_off,720,0,14,,,,,,,,12,,,,48,64
23880,note_on,160,0,8,,,,,,,,5,,,,60,45
23880,note_on,0,0,9,,,,,,,,6,,,,48,45
23880,note_off,720,0,9,,,,,,,,6,,,,48,64
23880,note_on,160,0,13,,,,,,,,11,,,,60,45
23880,note_on,160,0,2,,,,,,,,0,,,,36,30
23960,note_off,80,0,12,,,,,,,,10,,,,76,64
23960,note_off,80,0,2,,,,,,,,0,,,,48,64
23960,note_off,0,0,2,,,,,,,,0,,,,36,64
23960,note_off,80,0,1,,,,,,,,0,,,,84,64
23960,note_off,0,0,1,,,,,,,,0,,,,76,64
23960,note_off,0,0,1,,,,,,,,0,,,,72,64
23960,note_off,80,0,11,,,,,,,,8,,,,84,64
23960,note_off,80,0,6,,,,,,,,3,,,,84,64
23960,note_off,80,0,7,,,,,,,,4,,,,76,64
23960,note_off,80,0,13,,,,,,,,11,,,,60,64
23960,note_off,80,0,8,,,,,,,,5,,,,60,64
24120,note_on,160,0,11,,,,,,,,8,,,,84,45
24120,note_on,0,0,1,,,,,,,,0,,,,76,30
24120,note_on,160,0,7,,,,,,,,4,,,,76,45
24120,note_on,160,0,1,,,,,,,,0,,,,72,30
24120,note_on,160,0,6,,,,,,,,3,,,,84,45
24120,note_on,160,0,2,,,,,,,,0,,,,36,30
24120,note_on,0,0,2,,,,,,,,0,,,,48,30
24120,note_on,0,0,1,,,,,,,,0,,,,84,30
24120,note_on,160,0,12,,,,,,,,10,,,,76,45
24120,note_on,160,0,8,,,,,,,,5,,,,72,45
24120,note_on,160,0,13,,,,,,,,11,,,,72,45
24200,note_off,80,0,1,,,,,,,,0,,,,84,64
24200,note_off,0,0,1,,,,,,,,0,,,,76,64
24200,note_off,0,0,1,,,,,,,,0,,,,72,64
24200,note_off,80,0,13,,,,,,,,11,,,,72,64
24200,note_off,80,0,12,,,,,,,,10,,,,76,64
24200,note_off,0,0,2,,,,,,,,0,,,,36,64
24200,note_off,80,0,2,,,,,,,,0,,,,48,64
24200,note_off,80,0,6,,,,,,,,3,,,,84,64
24200,note_off,80,0,7,,,,,,,,4,,,,76,64
24200,note_off,80,0,8,,,,,,,,5,,,,72,64
24200,note_off,80,0,11,,,,,,,,8,,,,84,64
24360,note_on,160,0,13,,,,,,,,11,,,,72,45
24360,note_on,160,0,11,,,,,,,,8,,,,84,45
24360,note_on,0,0,1,,,,,,,,0,,,,84,30
24360,note_on,0,0,1,,,,,,,,0,,,,76,30
24360,note_on,160,0,1,,,,,,,,0,,,,72,30
24360,note_on,160,0,7,,,,,,,,4,,,,76,45
24360,note_on,160,0,8,,,,,,,,5,,,,72,45
24360,note_on,160,0,2,,,,,,,,0,,,,36,30
24360,note_on,160,0,6,,,,,,,,3,,,,84,45
24360,note_on,0,0,2,,,,,,,,0,,,,48,30
24360,note_on,160,0,12,,,,,,,,10,,,,76,45
24440,note_off,80,0,8,,,,,,,,5,,,,72,64
24440,note_off,80,0,11,,,,,,,,8,,,,84,64
24440,note_off,0,0,1,,,,,,,,0,,,,72,64
24440,note_off,0,0,1,,,,,,,,0,,,,76,64
24440,note_off,80,0,1,,,,,,,,0,,,,84,64
24440,note_off,80,0,7,,,,,,,,4,,,,76,64
24440,note_off,80,0,12,,,,,,,,10,,,,76,64
24440,note_off,80,0,6,,,,,,,,3,,,,84,64
24440,note_off,80,0,13,,,,,,,,11,,,,72,64
24440,note_off,80,0,2,,,,,,,,0,,,,48,64
24440,note_off,0,0,2,,,,,,,,0,,,,36,64
24600,note_on,160,0,13,,,,,,,,11,,,,70,45
24600,note_on,0,0,2,,,,,,,,0,,,,48,30
24600,note_on,0,0,9,,,,,,,,6,,,,48,45
24600,note_on,0,0,10,,,,,,,,7,,,,36,45
24600,note_on,160,0,7,,,,,,,,4,,,,73,45
24600,note_off,720,0,9,,,,,,,,6,,,,48,64
24600,note_on,160,0,12,,,,,,,,10,,,,73,45
24600,note_on,0,0,15,,,,,,,,13,,,,36,45
24600,note_off,720,0,10,,,,,,,,7,,,,36,64
24600,note_off,720,0,15,,,,,,,,13,,,,36,64
24600,note_on,160,0,11,,,,,,,,8,,,,84,45
24600,note_on,160,0,2,,,,,,,,0,,,,36,30
24600,note_off,720,0,14,,,,,,,,12,,,,48,64
24600,note_on,0,0,14,,,,,,,,12,,,,48,45
24600,note_on,0,0,1,,,,,,,,0,,,,84,30
24600,note_on,0,0,1,,,,,,,,0,,,,73,30
24600,note_on,160,0,8,,,,,,,,5,,,,70,45
24600,note_on,160,0,6,,,,,,,,3,,,,84,45
24600,note_on,160,0,1,,,,,,,,0,,,,70,30
24680,note_off,80,0,2,,,,,,,,0,,,,48,64
24680,note_off,0,0,2,,,,,,,,0,,,,36,64
24680,note_off,80,0,12,,,,,,,,10,,,,73,64
24680,note_off,80,0,8,,,,,,,,5,,,,70,64
24680,note_off,80,0,6,,,,,,,,3,,,,84,64
24680,note_off,80,0,7,,,,,,,,4,,,,73,64
24680,note_off,0,0,1,,,,,,,,0,,,,70,64
24680,note_off,80,0,11,,,,,,,,8,,,,84,64
24680,note_off,80,0,1,,,,,,,,0,,,,84,64
24680,note_off,0,0,1,,,,,,,,0,,,,73,64
24680,note_off,80,0,13,,,,,,,,11,,,,70,64
24840,note_on,160,0,13,,,,,,,,11,,,,70,45
24840,note_on,160,0,12,,,,,,,,10,,,,73,45
24840,note_on,160,0,11,,,,,,,,8,,,,84,45
24840,note_on,160,0,7,,,,,,,,4,,,,73,45
24840,note_on,160,0,2,,,,,,,,0,,,,36,30
24840,note_on,160,0,8,,,,,,,,5,,,,70,45
24840,note_on,0,0,1,,,,,,,,0,,,,84,30
24840,note_on,160,0,6,,,,,,,,3,,,,84,45
24840,note_on,0,0,1,,,,,,,,0,,,,73,30
24840,note_on,0,0,2,,,,,,,,0,,,,48,30
24840,note_on,160,0,1,,,,,,,,0,,,,70,30
24920,note_off,80,0,6,,,,,,,,3,,,,84,64
24920,note_off,80,0,12,,,,,,,,10,,,,73,64
24920,note_off,80,0,1,,,,,,,,0,,,,84,64
24920,note_off,0,0,1,,,,,,,,0,,,,70,64
24920,note_off,0,0,1,,,,,,,,0,,,,73,64
24920,note_off,80,0,7,,,,,,,,4,,,,73,64
24920,note_off,80,0,2,,,,,,,,0,,,,48,64
24920,note_off,0,0,2,,,,,,,,0,,,,36,64
24920,note_off,80,0,8,,,,,,,,5,,,,70,64
24920,note_off,80,0,13,,,,,,,,11,,,,70,64
24920,note_off,80,0,11,,,,,,,,8,,,,84,64
25080,note_on,160,0,12,,,,,,,,10,,,,73,45
25080,note_on,160,0,8,,,,,,,,5,,,,70,45
25080,note_on,160,0,6,,,,,,,,3,,,,84,45
25080,note_on,160,0,13,,,,,,,,11,,,,70,45
25080,note_on,0,0,1,,,,,,,,0,,,,84,30
25080,note_on,0,0,1,,,,,,,,0,,,,73,30
25080,note_on,160,0,11,,,,,,,,8,,,,84,45
25080,note_on,0,0,2,,,,,,,,0,,,,48,30
25080,note_on,160,0,2,,,,,,,,0,,,,36,30
25080,note_on,160,0,7,,,,,,,,4,,,,73,45
25080,note_on,160,0,1,,,,,,,,0,,,,70,30
25160,note_off,80,0,12,,,,,,,,10,,,,73,64
25160,note_off,80,0,8,,,,,,,,5,,,,70,64
25160,note_off,80,0,6,,,,,,,,3,,,,84,64
25160,note_off,80,0,13,,,,,,,,11,,,,70,64
25160,note_off,80,0,7,,,,,,,,4,,,,73,64
25160,note_off,0,0,2,,,,,,,,0,,,,36,64
25160,note_off,80,0,11,,,,,,,,8,,,,84,64
25160,note_off,0,0,1,,,,,,,,0,,,,70,64
25160,note_off,0,0,1,,,,,,,,0,,,,73,64
25160,note_off,80,0,1,,,,,,,,0,,,,84,64
25160,note_off,80,0,2,,,,,,,,0,,,,48,64
25320,note_on,160,0,7,,,,,,,,4,,,,74,45
25320,note_off,720,0,10,,,,,,,,7,,,,36,64
25320,note_on,0,0,10,,,,,,,,7,,,,36,45
25320,note_on,160,0,6,,,,,,,,3,,,,84,45
25320,note_on,0,0,9,,,,,,,,6,,,,48,45
25320,note_on,160,0,8,,,,,,,,5,,,,68,45
25320,note_off,720,0,9,,,,,,,,6,,,,48,64
25320,note_off,720,0,15,,,,,,,,13,,,,36,64
25320,note_on,160,0,11,,,,,,,,8,,,,84,45
25320,note_on,160,0,13,,,,,,,,11,,,,68,45
25320,note_on,0,0,15,,,,,,,,13,,,,36,45
25320,note_on,0,0,2,,,,,,,,0,,,,48,30
25320,note_on,160,0,2,,,,,,,,0,,,,36,30
25320,note_off,720,0,14,,,,,,,,12,,,,48,64
25320,note_on,0,0,14,,,,,,,,12,,,,48,45
25320,note_on,0,0,1,,,,,,,,0,,,,84,30
25320,note_on,0,0,1,,,,,,,,0,,,,74,30
25320,note_on,160,0,1,,,,,,,,0,,,,68,30
25320,note_on,160,0,12,,,,,,,,10,,,,74,45
25400,note_off,80,0,2,,,,,,,,0,,,,48,64
25400,note_off,80,0,13,,,,,,,,11,,,,68,64
25400,note_off,80,0,11,,,,,,,,8,,,,84,64
25400,note_off,80,0,7,,,,,,,,4,,,,74,64
25400,note_off,80,0,6,,,,,,,,3,,,,84,64
25400,note_off,80,0,8,,,,,,,,5,,,,68,64
25400,note_off,80,0,1,,,,,,,,0,,,,84,64
25400,note_off,0,0,1,,,,,,,,0,,,,74,64
25400,note_off,0,0,1,,,,,,,,0,,,,68,64
25400,note_off,0,0,2,,,,,,,,0,,,,36,64
25400,note_off,80,0,12,,,,,,,,10,,,,74,64
25560,note_on,160,0,13,,,,,,,,11,,,,68,45
25560,note_on,160,0,2,,,,,,,,0,,,,36,30
25560,note_on,0,0,2,,,,,,,,0,,,,48,30
25560,note_on,160,0,11,,,,,,,,8,,,,84,45
25560,note_on,160,0,6,,,,,,,,3,,,,84,45
25560,note_on,0,0,1,,,,,,,,0,,,,84,30
25560,note_on,160,0,8,,,,,,,,5,,,,68,45
25560,note_on,160,0,7,,,,,,,,4,,,,74,45
25560,note_on,160,0,12,,,,,,,,10,,,,74,45
25560,note_on,0,0,1,,,,,,,,0,,,,74,30
25560,note_on,160,0,1,,,,,,,,0,,,,68,30
25640,note_off,80,0,1,,,,,,,,0,,,,84,64
25640,note_off,0,0,2,,,,,,,,0,,,,36,64
25640,note_off,0,0,1,,,,,,,,0,,,,74,64
25640,note_off,0,0,1,,,,,,,,0,,,,68,64
25640,note_off,80,0,7,,,,,,,,4,,,,74,64
25640,note_off,80,0,6,,,,,,,,3,,,,84,64
25640,note_off,80,0,8,,,,,,,,5,,,,68,64
25640,note_off,80,0,12,,,,,,,,10,,,,74,64
25640,note_off,80,0,2,,,,,,,,0,,,,48,64
25640,note_off,80,0,13,,,,,,,,11,,,,68,64
25640,note_off,80,0,11,,,,,,,,8,,,,84,64
25800,note_on,160,0,11,,,,,,,,8,,,,84,45
25800,note_on,160,0,7,,,,,,,,4,,,,74,45
25800,note_on,160,0,12,,,,,,,,10,,,,74,45
25800,note_on,0,0,1,,,,,,,,0,,,,84,30
25800,note_on,0,0,1,,,,,,,,0,,,,74,30
25800,note_on,160,0,1,,,,,,,,0,,,,68,30
25800,note_on,160,0,6,,,,,,,,3,,,,84,45
25800,note_on,160,0,8,,,,,,,,5,,,,68,45
25800,note_on,160,0,13,,,,,,,,11,,,,68,45
25800,note_on,160,0,2,,,,,,,,0,,,,36,30
25800,note_on,0,0,2,,,,,,,,0,,,,48,30
25880,note_off,80,0,1,,,,,,,,0,,,,84,64
25880,note_off,80,0,7,,,,,,,,4,,,,74,64
25880,note_off,80,0,8,,,,,,,,5,,,,68,64
25880,note_off,80,0,13,,,,,,,,11,,,,68,64
25880,note_off,80,0,11,,,,,,,,8,,,,84,64
25880,note_off,80,0,6,,,,,,,,3,,,,84,64
25880,note_off,0,0,2,,,,,,,,0,,,,36,64
25880,note_off,80,0,2,,,,,,,,0,,,,48,64
25880,note_off,80,0,12,,,,,,,,10,,,,74,64
25880,note_off,0,0,1,,,,,,,,0,,,,74,64
25880,note_off,0,0,1,,,,,,,,0,,,,68,64
26040,note_on,160,0,7,,,,,,,,4,,,,75,45
26040,note_on,0,0,10,,,,,,,,7,,,,36,45
26040,note_on,0,0,14,,,,,,,,12,,,,48,45
26040,note_off,720,0,14,,,,,,,,12,,,,48,64
26040,note_on,160,0,11,,,,,,,,8,,,,84,45
26040,note_on,160,0,2,,,,,,,,0,,,,36,30
26040,note_on,0,0,2,,,,,,,,0,,,,48,30
26040,note_off,720,0,9,,,,,,,,6,,,,48,64
26040,note_off,720,0,10,,,,,,,,7,,,,36,64
26040,note_on,160,0,6,,,,,,,,3,,,,84,45
26040,note_on,0,0,9,,,,,,,,6,,,,48,45
26040,note_on,160,0,12,,,,,,,,10,,,,75,45
26040,note_on,0,0,1,,,,,,,,0,,,,72,30
26040,note_on,0,0,15,,,,,,,,13,,,,36,45
26040,note_on,160,0,8,,,,,,,,5,,,,67,45
26040,note_on,0,0,1,,,,,,,,0,,,,75,30
26040,note_on,0,0,1,,,,,,,,0,,,,84,30
26040,note_on,160,0,13,,,,,,,,11,,,,67,45
26040,note_off,720,0,15,,,,,,,,13,,,,36,64
26040,note_on,160,0,1,,,,,,,,0,,,,67,30
26120,note_off,80,0,2,,,,,,,,0,,,,48,64
26120,note_off,0,0,2,,,,,,,,0,,,,36,64
26120,note_off,80,0,11,,,,,,,,8,,,,84,64
26120,note_off,80,0,1,,,,,,,,0,,,,84,64
26120,note_off,0,0,1,,,,,,,,0,,,,75,64
26120,note_off,0,0,1,,,,,,,,0,,,,72,64
26120,note_off,80,0,7,,,,,,,,4,,,,75,64
26120,note_off,80,0,13,,,,,,,,11,,,,67,64
26120,note_off,80,0,8,,,,,,,,5,,,,67,64
26120,note_off,80,0,6,,,,,,,,3,,,,84,64
26120,note_off,80,0,12,,,,,,,,10,,,,75,64
26120,note_off,0,0,1,,,,,,,,0,,,,67,64
26280,note_on,160,0,13,,,,,,,,11,,,,67,45
26280,note_on,160,0,8,,,,,,,,5,,,,67,45
26280,note_on,160,0,6,,,,,,,,3,,,,84,45
26280,note_on,160,0,11,,,,,,,,8,,,,84,45
26280,note_on,0,0,1,,,,,,,,0,,,,72,30
26280,note_on,160,0,12,,,,,,,,10,,,,75,45
26280,note_on,160,0,2,,,,,,,,0,,,,36,30
26280,note_on,0,0,1,,,,,,,,0,,,,75,30
26280,note_on,160,0,1,,,,,,,,0,,,,67,30
26280,note_on,0,0,1,,,,,,,,0,,,,84,30
26280,note_on,0,0,2,,,,,,,,0,,,,48,30
26280,note_on,160,0,7,,,,,,,,4,,,,75,45
26360,note_off,80,0,1,,,,,,,,0,,,,84,64
26360,note_off,0,0,1,,,,,,,,0,,,,75,64
26360,note_off,80,0,12,,,,,,,,10,,,,75,64
26360,note_off,0,0,1,,,,,,,,0,,,,72,64
26360,note_off,0,0,1,,,,,,,,0,,,,67,64
26360,note_off,80,0,6,,,,,,,,3,,,,84,64
26360,note_off,80,0,8,,,,,,,,5,,,,67,64
26360,note_off,80,0,7,,,,,,,,4,,,,75,64
26360,note_off,80,0,2,,,,,,,,0,,,,48,64
26360,note_off,0,0,2,,,,,,,,0,,,,36,64
26360,note_off,80,0,13,,,,,,,,11,,,,67,64
26360,note_off,80,0,11,,,,,,,,8,,,,84,64
26520,note_on,160,0,7,,,,,,,,4,,,,75,45
26520,note_on,160,0,2,,,,,,,,0,,,,36,30
26520,note_on,0,0,2,,,,,,,,0,,,,48,30
26520,note_on,160,0,6,,,,,,,,3,,,,84,45
26520,note_on,160,0,11,,,,,,,,8,,,,84,45
26520,note_on,160,0,1,,,,,,,,0,,,,67,30
26520,note_on,0,0,1,,,,,,,,0,,,,75,30
26520,note_on,160,0,13,,,,,,,,11,,,,67,45
26520,note_on,160,0,8,,,,,,,,5,,,,67,45
26520,note_on,160,0,12,,,,,,,,10,,,,75,45
26520,note_on,0,0,1,,,,,,,,0,,,,84,30
26520,note_on,0,0,1,,,,,,,,0,,,,72,30
26600,note_off,0,0,2,,,,,,,,0,,,,36,64
26600,note_off,80,0,6,,,,,,,,3,,,,84,64
26600,note_off,80,0,13,,,,,,,,11,,,,67,64
26600,note_off,80,0,7,,,,,,,,4,,,,75,64
26600,note_off,80,0,2,,,,,,,,0,,,,48,64
26600,note_off,80,0,12,,,,,,,,10,,,,75,64
26600,note_off,80,0,8,,,,,,,,5,,,,67,64
26600,note_off,80,0,11,,,,,,,,8,,,,84,64
26600,note_off,0,0,1,,,,,,,,0,,,,72,64
26600,note_off,0,0,1,,,,,,,,0,,,,75,64
26600,note_off,80,0,1,,,,,,,,0,,,,84,64
26600,note_off,0,0,1,,,,,,,,0,,,,67,64
26760,note_off,720,0,10,,,,,,,,7,,,,36,64
26760,note_on,0,0,1,,,,,,,,0,,,,76,30
26760,note_on,0,0,1,,,,,,,,0,,,,72,30
26760,note_on,160,0,8,,,,,,,,5,,,,67,45
26760,note_off,720,0,9,,,,,,,,6,,,,48,64
26760,note_on,0,0,9,,,,,,,,6,,,,48,45
26760,note_on,160,0,13,,,,,,,,11,,,,67,45
26760,note_on,160,0,1,,,,,,,,0,,,,67,30
26760,note_on,0,0,15,,,,,,,,13,,,,36,45
26760,note_on,160,0,7,,,,,,,,4,,,,76,45
26760,note_on,0,0,14,,,,,,,,12,,,,48,45
26760,note_on,0,0,1,,,,,,,,0,,,,82,30
26760,note_on,0,0,10,,,,,,,,7,,,,36,45
26760,note_on,160,0,6,,,,,,,,3,,,,82,45
26760,note_on,0,0,2,,,,,,,,0,,,,48,30
26760,note_on,160,0,12,,,,,,,,10,,,,76,45
26760,note_off,720,0,15,,,,,,,,13,,,,36,64
26760,note_on,160,0,2,,,,,,,,0,,,,36,30
26760,note_on,160,0,11,,,,,,,,8,,,,82,45
26760,note_off,720,0,14,,,,,,,,12,,,,48,64
26840,note_off,80,0,7,,,,,,,,4,,,,76,64
26840,note_off,80,0,8,,,,,,,,5,,,,67,64
26840,note_off,80,0,2,,,,,,,,0,,,,48,64
26840,note_off,80,0,13,,,,,,,,11,,,,67,64
26840,note_off,0,0,1,,,,,,,,0,,,,67,64
26840,note_off,0,0,1,,,,,,,,0,,,,72,64
26840,note_off,0,0,1,,,,,,,,0,,,,76,64
26840,note_off,80,0,1,,,,,,,,0,,,,82,64
26840,note_off,80,0,6,,,,,,,,3,,,,82,64
26840,note_off,80,0,12,,,,,,,,10,,,,76,64
26840,note_off,80,0,11,,,,,,,,8,,,,82,64
26840,note_off,0,0,2,,,,,,,,0,,,,36,64
27000,note_on,0,0,1,,,,,,,,0,,,,82,30
27000,note_on,0,0,1,,,,,,,,0,,,,76,30
27000,note_on,160,0,1,,,,,,,,0,,,,67,30
27000,note_on,0,0,2,,,,,,,,0,,,,48,30
27000,note_on,160,0,8,,,,,,,,5,,,,67,45
27000,note_on,0,0,1,,,,,,,,0,,,,72,30
27000,note_on,160,0,2,,,,,,,,0,,,,36,30
27000,note_on,160,0,12,,,,,,,,10,,,,76,45
27000,note_on,160,0,6,,,,,,,,3,,,,82,45
27000,note_on,160,0,7,,,,,,,,4,,,,76,45
27000,note_on,160,0,13,,,,,,,,11,,,,67,45
27000,note_on,160,0,11,,,,,,,,8,,,,82,45
27080,note_off,0,0,2,,,,,,,,0,,,,36,64
27080,note_off,80,0,11,,,,,,,,8,,,,82,64
27080,note_off,0,0,1,,,,,,,,0,,,,76,64
27080,note_off,80,0,13,,,,,,,,11,,,,67,64
27080,note_off,0,0,1,,,,,,,,0,,,,72,64
27080,note_off,0,0,1,,,,,,,,0,,,,67,64
27080,note_off,80,0,6,,,,,,,,3,,,,82,64
27080,note_off,80,0,7,,,,,,,,4,,,,76,64
27080,note_off,80,0,2,,,,,,,,0,,,,48,64
27080,note_off,80,0,8,,,,,,,,5,,,,67,64
27080,note_off,80,0,12,,,,,,,,10,,,,76,64
27080,note_off,80,0,1,,,,,,,,0,,,,82,64
27240,note_on,160,0,12,,,,,,,,10,,,,76,45
27240,note_on,160,0,1,,,,,,,,0,,,,67,30
27240,note_on,160,0,6,,,,,,,,3,,,,82,45
27240,note_on,160,0,13,,,,,,,,11,,,,64,45
27240,note_on,0,0,1,,,,,,,,0,,,,72,30
27240,note_on,0,0,1,,,,,,,,0,,,,82,30
27240,note_on,0,0,2,,,,,,,,0,,,,48,30
27240,note_on,160,0,7,,,,,,,,4,,,,76,45
27240,note_on,0,0,1,,,,,,,,0,,,,76,30
27240,note_on,160,0,8,,,,,,,,5,,,,64,45
27240,note_on,160,0,11,,,,,,,,8,,,,82,45
27240,note_on,160,0,2,,,,,,,,0,,,,36,30
27320,note_off,80,0,13,,,,,,,,11,,,,64,64
27320,note_off,0,0,1,,,,,,,,0,,,,67,64
27320,note_off,0,0,1,,,,,,,,0,,,,72,64
27320,note_off,0,0,1,,,,,,,,0,,,,76,64
27320,note_off,80,0,12,,,,,,,,10,,,,76,64
27320,note_off,80,0,11,,,,,,,,8,,,,82,64
27320,note_off,80,0,6,,,,,,,,3,,,,82,64
27320,note_off,80,0,7,,,,,,,,4,,,,76,64
27320,note_off,80,0,1,,,,,,,,0,,,,82,64
27320,note_off,0,0,2,,,,,,,,0,,,,36,64
27320,note_off,80,0,2,,,,,,,,0,,,,48,64
27320,note_off,80,0,8,,,,,,,,5,,,,64,64
27480,note_on,160,0,7,,,,,,,,4,,,,77,45
27480,note_on,160,0,12,,,,,,,,10,,,,77,45
27480,note_on,0,0,1,,,,,,,,0,,,,72,30
27480,note_off,720,0,10,,,,,,,,7,,,,36,64
27480,note_on,160,0,6,,,,,,,,3,,,,80,45
27480,note_off,720,0,15,,,,,,,,13,,,,36,64
27480,note_on,160,0,13,,,,,,,,11,,,,60,45
27480,note_on,160,0,11,,,,,,,,8,,,,80,45
27480,note_on,0,0,10,,,,,,,,7,,,,36,45
27480,note_on,0,0,2,,,,,,,,0,,,,48,30
27480,note_on,160,0,2,,,,,,,,0,,,,36,30
27480,note_on,0,0,15,,,,,,,,13,,,,36,45
27480,note_on,0,0,14,,,,,,,,12,,,,48,45
27480,note_on,160,0,1,,,,,,,,0,,,,65,30
27480,note_off,720,0,14,,,,,,,,12,,,,48,64
27480,note_on,0,0,9,,,,,,,,6,,,,48,45
27480,note_on,0,0,1,,,,,,,,0,,,,77,30
27480,note_on,160,0,8,,,,,,,,5,,,,60,45
27480,note_on,0,0,1,,,,,,,,0,,,,80,30
27480,note_off,720,0,9,,,,,,,,6,,,,48,64
27560,note_off,80,0,2,,,,,,,,0,,,,48,64
27560,note_off,0,0,1,,,,,,,,0,,,,77,64
27560,note_off,0,0,1,,,,,,,,0,,,,72,64
27560,note_off,0,0,1,,,,,,,,0,,,,65,64
27560,note_off,0,0,2,,,,,,,,0,,,,36,64
27560,note_off,80,0,1,,,,,,,,0,,,,80,64
27880,note_off,400,0,11,,,,,,,,8,,,,80,64
27880,note_off,400,0,7,,,,,,,,4,,,,77,64
27880,note_off,400,0,12,,,,,,,,10,,,,77,64
27880,note_off,400,0,6,,,,,,,,3,,,,80,64
28120,note_off,640,0,13,,,,,,,,11,,,,60,64
28200,note_on,80,0,13,,,,,,,,11,,,,60,92
28200,note_on,320,0,12,,,,,,,,10,,,,77,92
28200,note_on,0,0,8,,,,,,,,5,,,,60,92
28200,note_on,0,0,9,,,,,,,,6,,,,48,92
28200,note_on,320,0,6,,,,,,,,3,,,,80,92
28200,note_on,320,0,11,,,,,,,,8,,,,80,92
28200,note_off,720,0,8,,,,,,,,5,,,,60,64
28200,note_on,0,0,15,,,,,,,,13,,,,36,92
28200,note_on,320,0,7,,,,,,,,4,,,,77,92
28200,note_off,720,0,15,,,,,,,,13,,,,36,64
28200,note_on,0,0,14,,,,,,,,12,,,,48,92
28200,note_on,0,0,10,,,,,,,,7,,,,36,92
28200,note_off,720,0,10,,,,,,,,7,,,,36,64
28200,note_off,720,0,14,,,,,,,,12,,,,48,64
28200,note_off,720,0,9,,,,,,,,6,,,,48,64
28280,note_off,80,0,6,,,,,,,,3,,,,80,64
28280,note_off,80,0,11,,,,,,,,8,,,,80,64
28280,note_off,80,0,7,,,,,,,,4,,,,77,64
28280,note_off,80,0,12,,,,,,,,10,,,,77,64
28320,note_on,40,0,11,,,,,,,,8,,,,79,92
28320,note_on,40,0,6,,,,,,,,3,,,,79,92
28320,note_on,40,0,12,,,,,,,,10,,,,75,92
28320,note_on,40,0,7,,,,,,,,4,,,,75,92
28400,note_off,80,0,6,,,,,,,,3,,,,79,64
28400,note_off,80,0,12,,,,,,,,10,,,,75,64
28400,note_off,80,0,7,,,,,,,,4,,,,75,64
28400,note_off,80,0,11,,,,,,,,8,,,,79,64
28440,note_on,40,0,6,,,,,,,,3,,,,77,92
28440,note_on,40,0,7,,,,,,,,4,,,,73,92
28440,note_on,40,0,12,,,,,,,,10,,,,73,92
28440,note_on,40,0,11,,,,,,,,8,,,,77,92
28520,note_off,80,0,12,,,,,,,,10,,,,73,64
28520,note_off,80,0,7,,,,,,,,4,,,,73,64
28520,note_off,80,0,6,,,,,,,,3,,,,77,64
28520,note_off,80,0,11,,,,,,,,8,,,,77,64
28560,note_on,40,0,11,,,,,,,,8,,,,75,92
28560,note_on,40,0,12,,,,,,,,10,,,,72,92
28560,note_on,40,0,7,,,,,,,,4,,,,72,92
28560,note_on,40,0,6,,,,,,,,3,,,,75,92
28640,note_off,80,0,12,,,,,,,,10,,,,72,64
28640,note_off,80,0,7,,,,,,,,4,,,,72,64
28640,note_off,80,0,6,,,,,,,,3,,,,75,64
28640,note_off,80,0,11,,,,,,,,8,,,,75,64
28680,note_on,40,0,7,,,,,,,,4,,,,70,92
28680,note_on,40,0,11,,,,,,,,8,,,,73,92
28680,note_on,40,0,12,,,,,,,,10,,,,70,92
28680,note_on,40,0,6,,,,,,,,3,,,,73,92
28760,note_off,80,0,11,,,,,,,,8,,,,73,64
28760,note_off,80,0,12,,,,,,,,10,,,,70,64
28760,note_off,80,0,7,,,,,,,,4,,,,70,64
28760,note_off,80,0,6,,,,,,,,3,,,,73,64
28800,note_on,40,0,12,,,,,,,,10,,,,68,92
28800,note_on,40,0,7,,,,,,,,4,,,,68,92
28800,note_on,40,0,11,,,,,,,,8,,,,72,92
28800,note_on,40,0,6,,,,,,,,3,,,,72,92
28880,note_off,80,0,7,,,,,,,,4,,,,68,64
28880,note_off,80,0,12,,,,,,,,10,,,,68,64
28880,note_off,80,0,6,,,,,,,,3,,,,72,64
28880,note_off,80,0,11,,,,,,,,8,,,,72,64
28920,note_on,0,0,10,,,,,,,,7,,,,36,92
28920,note_off,720,0,13,,,,,,,,11,,,,60,64
28920,note_off,720,0,9,,,,,,,,6,,,,48,64
28920,note_on,0,0,9,,,,,,,,6,,,,48,92
28920,note_off,720,0,14,,,,,,,,12,,,,48,64
28920,note_on,0,0,14,,,,,,,,12,,,,48,92
28920,note_on,40,0,11,,,,,,,,8,,,,70,92
28920,note_on,0,0,13,,,,,,,,11,,,,60,92
28920,note_on,0,0,8,,,,,,,,5,,,,60,92
28920,note_off,720,0,10,,,,,,,,7,,,,36,64
28920,note_off,720,0,8,,,,,,,,5,,,,60,64
28920,note_on,40,0,7,,,,,,,,4,,,,67,92
28920,note_on,40,0,12,,,,,,,,10,,,,67,92
28920,note_on,0,0,15,,,,,,,,13,,,,36,92
28920,note_on,40,0,6,,,,,,,,3,,,,70,92
28920,note_off,720,0,15,,,,,,,,13,,,,36,64
29000,note_off,80,0,6,,,,,,,,3,,,,70,64
29000,note_off,80,0,12,,,,,,,,10,,,,67,64
29000,note_off,80,0,11,,,,,,,,8,,,,70,64
29000,note_off,80,0,7,,,,,,,,4,,,,67,64
29040,note_on,40,0,11,,,,,,,,8,,,,68,92
29040,note_on,40,0,12,,,,,,,,10,,,,65,92
29040,note_on,40,0,6,,,,,,,,3,,,,68,92
29040,note_on,40,0,7,,,,,,,,4,,,,65,92
29120,note_off,80,0,11,,,,,,,,8,,,,68,64
29120,note_off,80,0,6,,,,,,,,3,,,,68,64
29120,note_off,80,0,12,,,,,,,,10,,,,65,64
29120,note_off,80,0,7,,,,,,,,4,,,,65,64
29160,note_on,40,0,12,,,,,,,,10,,,,63,92
29160,note_on,40,0,6,,,,,,,,3,,,,67,92
29160,note_on,40,0,11,,,,,,,,8,,,,67,92
29160,note_on,40,0,7,,,,,,,,4,,,,63,92
29240,note_off,80,0,6,,,,,,,,3,,,,67,64
29240,note_off,80,0,11,,,,,,,,8,,,,67,64
29240,note_off,80,0,12,,,,,,,,10,,,,63,64
29240,note_off,80,0,7,,,,,,,,4,,,,63,64
29280,note_on,40,0,11,,,,,,,,8,,,,65,92
29280,note_on,40,0,7,,,,,,,,4,,,,61,92
29280,note_on,40,0,12,,,,,,,,10,,,,61,92
29280,note_on,40,0,6,,,,,,,,3,,,,65,92
29360,note_off,80,0,11,,,,,,,,8,,,,65,64
29360,note_off,80,0,6,,,,,,,,3,,,,65,64
29360,note_off,80,0,7,,,,,,,,4,,,,61,64
29360,note_off,80,0,12,,,,,,,,10,,,,61,64
29400,note_on,40,0,12,,,,,,,,10,,,,60,92
29400,note_on,40,0,6,,,,,,,,3,,,,64,92
29400,note_on,40,0,7,,,,,,,,4,,,,60,92
29400,note_on,40,0,11,,,,,,,,8,,,,64,92
29480,note_off,80,0,12,,,,,,,,10,,,,60,64
29480,note_off,80,0,7,,,,,,,,4,,,,60,64
29480,note_off,80,0,6,,,,,,,,3,,,,64,64
29480,note_off,80,0,11,,,,,,,,8,,,,64,64
29560,note_off,640,0,8,,,,,,,,5,,,,60,64
29560,note_off,640,0,13,,,,,,,,11,,,,60,64
29640,note_on,160,0,12,,,,,,,,10,,,,82,92
29640,note_on,0,0,15,,,,,,,,13,,,,36,92
29640,note_on,160,0,6,,,,,,,,3,,,,79,92
29640,note_on,0,0,14,,,,,,,,12,,,,48,92
29640,note_off,720,0,14,,,,,,,,12,,,,48,64
29640,note_on,160,0,7,,,,,,,,4,,,,82,92
29640,note_on,80,0,13,,,,,,,,11,,,,64,92
29640,note_off,720,0,15,,,,,,,,13,,,,36,64
29640,note_on,160,0,11,,,,,,,,8,,,,79,92
29640,note_on,0,0,9,,,,,,,,6,,,,48,92
29640,note_off,720,0,9,,,,,,,,6,,,,48,64
29640,note_on,80,0,8,,,,,,,,5,,,,64,92
29640,note_off,720,0,10,,,,,,,,7,,,,36,64
29640,note_on,0,0,10,,,,,,,,7,,,,36,92
29700,note_on,0,0,6,,,,,,,,3,,,,77,92
29700,note_off,60,0,11,,,,,,,,8,,,,79,64
29700,note_on,0,0,11,,,,,,,,8,,,,77,92
29700,note_off,60,0,6,,,,,,,,3,,,,79,64
29720,note_off,80,0,7,,,,,,,,4,,,,82,64
29720,note_off,80,0,8,,,,,,,,5,,,,64,64
29720,note_off,80,0,12,,,,,,,,10,,,,82,64
29720,note_off,80,0,13,,,,,,,,11,,,,64,64
29760,note_on,0,0,11,,,,,,,,8,,,,76,92
29760,note_off,60,0,11,,,,,,,,8,,,,77,64
29760,note_off,60,0,6,,,,,,,,3,,,,77,64
29760,note_on,0,0,6,,,,,,,,3,,,,76,92
29820,note_off,60,0,11,,,,,,,,8,,,,76,64
29820,note_off,60,0,6,,,,,,,,3,,,,76,64
29820,note_on,0,0,6,,,,,,,,3,,,,74,92
29820,note_on,0,0,11,,,,,,,,8,,,,74,92
29880,note_on,160,0,12,,,,,,,,10,,,,82,92
29880,note_off,60,0,6,,,,,,,,3,,,,74,64
29880,note_on,0,0,6,,,,,,,,3,,,,72,92
29880,note_on,160,0,13,,,,,,,,11,,,,64,92
29880,note_off,60,0,11,,,,,,,,8,,,,74,64
29880,note_on,160,0,8,,,,,,,,5,,,,64,92
29880,note_on,0,0,11,,,,,,,,8,,,,72,92
29880,note_on,160,0,7,,,,,,,,4,,,,82,92
29960,note_off,80,0,13,,,,,,,,11,,,,64,64
29960,note_off,80,0,7,,,,,,,,4,,,,82,64
29960,note_off,80,0,8,,,,,,,,5,,,,64,64
29960,note_off,80,0,12,,,,,,,,10,,,,82,64
30115,note_off,235,0,11,,,,,,,,8,,,,72,64
30115,note_off,235,0,6,,,,,,,,3,,,,72,64
30120,note_on,160,0,12,,,,,,,,10,,,,82,92
30120,note_on,160,0,7,,,,,,,,4,,,,82,92
30120,note_on,160,0,13,,,,,,,,11,,,,64,92
30120,note_on,160,0,8,,,,,,,,5,,,,64,92
30200,note_off,80,0,7,,,,,,,,4,,,,82,64
30200,note_off,80,0,8,,,,,,,,5,,,,64,64
30200,note_off,80,0,12,,,,,,,,10,,,,82,64
30200,note_off,80,0,13,,,,,,,,11,,,,64,64
30360,note_on,160,0,13,,,,,,,,11,,,,64,45
30360,note_off,720,0,9,,,,,,,,6,,,,48,64
30360,note_on,0,0,9,,,,,,,,6,,,,48,45
30360,note_off,720,0,14,,,,,,,,12,,,,48,64
30360,note_on,245,0,6,,,,,,,,3,,,,79,45
30360,note_on,0,0,15,,,,,,,,13,,,,36,45
30360,note_on,160,0,8,,,,,,,,5,,,,64,45
30360,note_on,160,0,12,,,,,,,,10,,,,82,45
30360,note_on,160,0,7,,,,,,,,4,,,,82,45
30360,note_on,0,0,14,,,,,,,,12,,,,48,45
30360,note_on,0,0,10,,,,,,,,7,,,,36,45
30360,note_off,720,0,15,,,,,,,,13,,,,36,64
30360,note_off,720,0,10,,,,,,,,7,,,,36,64
30360,note_on,245,0,11,,,,,,,,8,,,,79,45
30420,note_off,60,0,11,,,,,,,,8,,,,79,64
30420,note_off,60,0,6,,,,,,,,3,,,,79,64
30420,note_on,0,0,6,,,,,,,,3,,,,77,45
30420,note_on,0,0,11,,,,,,,,8,,,,77,45
30440,note_off,80,0,13,,,,,,,,11,,,,64,64
30440,note_off,80,0,8,,,,,,,,5,,,,64,64
30440,note_off,80,0,7,,,,,,,,4,,,,82,64
30440,note_off,80,0,12,,,,,,,,10,,,,82,64
30480,note_on,0,0,11,,,,,,,,8,,,,76,45
30480,note_off,60,0,11,,,,,,,,8,,,,77,64
30480,note_on,0,0,6,,,,,,,,3,,,,76,45
30480,note_off,60,0,6,,,,,,,,3,,,,77,64
30540,note_off,60,0,6,,,,,,,,3,,,,76,64
30540,note_off,60,0,11,,,,,,,,8,,,,76,64
30540,note_on,0,0,6,,,,,,,,3,,,,74,45
30540,note_on,0,0,11,,,,,,,,8,,,,74,45
30600,note_on,160,0,13,,,,,,,,11,,,,64,45
30600,note_on,160,0,7,,,,,,,,4,,,,82,45
30600,note_on,160,0,12,,,,,,,,10,,,,82,45
30600,note_off,60,0,11,,,,,,,,8,,,,74,64
30600,note_on,0,0,11,,,,,,,,8,,,,72,45
30600,note_on,0,0,6,,,,,,,,3,,,,72,45
30600,note_off,60,0,6,,,,,,,,3,,,,74,64
30600,note_on,160,0,8,,,,,,,,5,,,,64,45
30680,note_off,80,0,13,,,,,,,,11,,,,64,64
30680,note_off,80,0,12,,,,,,,,10,,,,82,64
30680,note_off,80,0,8,,,,,,,,5,,,,64,64
30680,note_off,80,0,7,,,,,,,,4,,,,82,64
30835,note_off,235,0,6,,,,,,,,3,,,,72,64
30835,note_off,235,0,11,,,,,,,,8,,,,72,64
30840,note_on,160,0,13,,,,,,,,11,,,,64,45
30840,note_on,160,0,8,,,,,,,,5,,,,64,45
30840,note_on,160,0,7,,,,,,,,4,,,,82,45
30840,note_on,160,0,12,,,,,,,,10,,,,82,45
30920,note_off,80,0,13,,,,,,,,11,,,,64,64
30920,note_off,80,0,12,,,,,,,,10,,,,82,64
30920,note_off,80,0,8,,,,,,,,5,,,,64,64
30920,note_off,80,0,7,,,,,,,,4,,,,82,64
31080,note_off,720,0,15,,,,,,,,13,,,,36,64
31080,note_on,245,0,11,,,,,,,,8,,,,84,92
31080,note_on,160,0,8,,,,,,,,5,,,,65,92
31080,note_on,160,0,7,,,,,,,,4,,,,80,92
31080,note_on,0,0,15,,,,,,,,13,,,,36,92
31080,note_on,160,0,12,,,,,,,,10,,,,80,92
31080,note_off,720,0,14,,,,,,,,12,,,,48,64
31080,note_off,720,0,9,,,,,,,,6,,,,48,64
31080,note_on,0,0,9,,,,,,,,6,,,,48,92
31080,note_on,160,0,13,,,,,,,,11,,,,65,92
31080,note_on,245,0,6,,,,,,,,3,,,,84,92
31080,note_off,720,0,10,,,,,,,,7,,,,36,64
31080,note_on,0,0,10,,,,,,,,7,,,,36,92
31080,note_on,0,0,14,,,,,,,,12,,,,48,92
31140,note_on,0,0,6,,,,,,,,3,,,,82,92
31140,note_off,60,0,6,,,,,,,,3,,,,84,64
31140,note_on,0,0,11,,,,,,,,8,,,,82,92
31140,note_off,60,0,11,,,,,,,,8,,,,84,64
31160,note_off,80,0,13,,,,,,,,11,,,,65,64
31160,note_off,80,0,7,,,,,,,,4,,,,80,64
31160,note_off,80,0,12,,,,,,,,10,,,,80,64
31160,note_off,80,0,8,,,,,,,,5,,,,65,64
31200,note_off,60,0,11,,,,,,,,8,,,,82,64
31200,note_on,0,0,11,,,,,,,,8,,,,80,92
31200,note_on,0,0,6,,,,,,,,3,,,,80,92
31200,note_off,60,0,6,,,,,,,,3,,,,82,64
31260,note_off,60,0,11,,,,,,,,8,,,,80,64
31260,note_on,0,0,11,,,,,,,,8,,,,79,92
31260,note_on,0,0,6,,,,,,,,3,,,,79,92
31260,note_off,60,0,6,,,,,,,,3,,,,80,64
31320,note_on,160,0,13,,,,,,,,11,,,,65,92
31320,note_on,160,0,8,,,,,,,,5,,,,65,92
31320,note_on,0,0,6,,,,,,,,3,,,,77,92
31320,note_on,160,0,7,,,,,,,,4,,,,80,92
31320,note_off,60,0,11,,,,,,,,8,,,,79,64
31320,note_on,160,0,12,,,,,,,,10,,,,80,92
31320,note_on,0,0,11,,,,,,,,8,,,,77,92
31320,note_off,60,0,6,,,,,,,,3,,,,79,64
31400,note_off,80,0,13,,,,,,,,11,,,,65,64
31400,note_off,80,0,8,,,,,,,,5,,,,65,64
31400,note_off,80,0,7,,,,,,,,4,,,,80,64
31400,note_off,80,0,12,,,,,,,,10,,,,80,64
31555,note_off,235,0,11,,,,,,,,8,,,,77,64
31555,note_off,235,0,6,,,,,,,,3,,,,77,64
31560,note_on,160,0,8,,,,,,,,5,,,,65,92
31560,note_on,160,0,12,,,,,,,,10,,,,80,92
31560,note_on,160,0,7,,,,,,,,4,,,,80,92
31560,note_on,160,0,13,,,,,,,,11,,,,65,92
31640,note_off,80,0,8,,,,,,,,5,,,,65,64
31640,note_off,80,0,7,,,,,,,,4,,,,80,64
31640,note_off,80,0,12,,,,,,,,10,,,,80,64
31640,note_off,80,0,13,,,,,,,,11,,,,65,64
31800,note_on,160,0,12,,,,,,,,10,,,,80,45
31800,note_off,720,0,10,,,,,,,,7,,,,36,64
31800,note_on,0,0,10,,,,,,,,7,,,,36,45
31800,note_on,0,0,9,,,,,,,,6,,,,48,45
31800,note_on,245,0,6,,,,,,,,3,,,,84,45
31800,note_on,160,0,7,,,,,,,,4,,,,80,45
31800,note_on,160,0,13,,,,,,,,11,,,,65,45
31800,note_on,160,0,8,,,,,,,,5,,,,65,45
31800,note_off,720,0,9,,,,,,,,6,,,,48,64
31800,note_on,0,0,15,,,,,,,,13,,,,36,45
31800,note_off,720,0,15,,,,,,,,13,,,,36,64
31800,note_on,245,0,11,,,,,,,,8,,,,84,45
31800,note_on,0,0,14,,,,,,,,12,,,,48,45
31800,note_off,720,0,14,,,,,,,,12,,,,48,64
31860,note_off,60,0,6,,,,,,,,3,,,,84,64
31860,note_on,0,0,6,,,,,,,,3,,,,82,45
31860,note_off,60,0,11,,,,,,,,8,,,,84,64
31860,note_on,0,0,11,,,,,,,,8,,,,82,45
31880,note_off,80,0,13,,,,,,,,11,,,,65,64
31880,note_off,80,0,12,,,,,,,,10,,,,80,64
31880,note_off,80,0,7,,,,,,,,4,,,,80,64
31880,note_off,80,0,8,,,,,,,,5,,,,65,64
31920,note_on,0,0,6,,,,,,,,3,,,,80,45
31920,note_off,60,0,6,,,,,,,,3,,,,82,64
31920,note_off,60,0,11,,,,,,,,8,,,,82,64
31920,note_on,0,0,11,,,,,,,,8,,,,80,45
31980,note_on,0,0,6,,,,,,,,3,,,,79,45
31980,note_on,0,0,11,,,,,,,,8,,,,79,45
31980,note_off,60,0,6,,,,,,,,3,,,,80,64
31980,note_off,60,0,11,,,,,,,,8,,,,80,64
32040,note_on,0,0,11,,,,,,,,8,,,,77,45
32040,note_off,60,0,11,,,,,,,,8,,,,79,64
32040,note_on,160,0,7,,,,,,,,4,,,,80,45
32040,note_on,160,0,12,,,,,,,,10,,,,80,45
32040,note_on,160,0,8,,,,,,,,5,,,,65,45
32040,note_off,60,0,6,,,,,,,,3,,,,79,64
32040,note_on,160,0,13,,,,,,,,11,,,,65,45
32040,note_on,0,0,6,,,,,,,,3,,,,77,45
32120,note_off,80,0,7,,,,,,,,4,,,,80,64
32120,note_off,80,0,13,,,,,,,,11,,,,65,64
32120,note_off,80,0,12,,,,,,,,10,,,,80,64
32120,note_off,80,0,8,,,,,,,,5,,,,65,64
32275,note_off,235,0,11,,,,,,,,8,,,,77,64
32275,note_off,235,0,6,,,,,,,,3,,,,77,64
32280,note_on,160,0,7,,,,,,,,4,,,,80,45
32280,note_on,160,0,13,,,,,,,,11,,,,65,45
32280,note_on,160,0,8,,,,,,,,5,,,,65,45
32280,note_on,160,0,12,,,,,,,,10,,,,80,45
32360,note_off,80,0,7,,,,,,,,4,,,,80,64
32360,note_off,80,0,8,,,,,,,,5,,,,65,64
32360,note_off,80,0,12,,,,,,,,10,,,,80,64
32360,note_off,80,0,13,,,,,,,,11,,,,65,64
32520,note_on,0,0,14,,,,,,,,12,,,,48,92
32520,note_off,720,0,15,,,,,,,,13,,,,36,64
32520,note_on,160,0,8,,,,,,,,5,,,,65,92
32520,note_on,160,0,13,,,,,,,,11,,,,65,92
32520,note_off,720,0,14,,,,,,,,12,,,,48,64
32520,note_on,160,0,12,,,,,,,,10,,,,79,92
32520,note_on,0,0,15,,,,,,,,13,,,,36,92
32520,note_on,0,0,9,,,,,,,,6,,,,48,92
32520,note_off,720,0,9,,,,,,,,6,,,,48,64
32520,note_on,0,0,10,,,,,,,,7,,,,36,92
32520,note_off,720,0,10,,,,,,,,7,,,,36,64
32520,note_on,245,0,11,,,,,,,,8,,,,82,92
32520,note_on,245,0,6,,,,,,,,3,,,,82,92
32520,note_on,160,0,7,,,,,,,,4,,,,79,92
32580,note_off,60,0,6,,,,,,,,3,,,,82,64
32580,note_on,0,0,6,,,,,,,,3,,,,80,92
32580,note_off,60,0,11,,,,,,,,8,,,,82,64
32580,note_on,0,0,11,,,,,,,,8,,,,80,92
32600,note_off,80,0,12,,,,,,,,10,,,,79,64
32600,note_off,80,0,13,,,,,,,,11,,,,65,64
32600,note_off,80,0,8,,,,,,,,5,,,,65,64
32600,note_off,80,0,7,,,,,,,,4,,,,79,64
32640,note_off,60,0,6,,,,,,,,3,,,,80,64
32640,note_off,60,0,11,,,,,,,,8,,,,80,64
32640,note_on,0,0,11,,,,,,,,8,,,,79,92
32640,note_on,0,0,6,,,,,,,,3,,,,79,92
32700,note_on,0,0,11,,,,,,,,8,,,,77,92
32700,note_off,60,0,6,,,,,,,,3,,,,79,64
32700,note_on,0,0,6,,,,,,,,3,,,,77,92
32700,note_off,60,0,11,,,,,,,,8,,,,79,64
32760,note_off,60,0,6,,,,,,,,3,,,,77,64
32760,note_on,0,0,6,,,,,,,,3,,,,76,92
32760,note_on,160,0,7,,,,,,,,4,,,,79,92
32760,note_on,160,0,12,,,,,,,,10,,,,79,92
32760,note_on,160,0,8,,,,,,,,5,,,,65,92
32760,note_on,160,0,13,,,,,,,,11,,,,65,92
32760,note_on,0,0,11,,,,,,,,8,,,,76,92
32760,note_off,60,0,11,,,,,,,,8,,,,77,64
32840,note_off,80,0,13,,,,,,,,11,,,,65,64
32840,note_off,80,0,7,,,,,,,,4,,,,79,64
32840,note_off,80,0,12,,,,,,,,10,,,,79,64
32840,note_off,80,0,8,,,,,,,,5,,,,65,64
32995,note_off,235,0,11,,,,,,,,8,,,,76,64
32995,note_off,235,0,6,,,,,,,,3,,,,76,64
33000,note_on,160,0,13,,,,,,,,11,,,,65,92
33000,note_on,160,0,7,,,,,,,,4,,,,79,92
33000,note_on,160,0,8,,,,,,,,5,,,,65,92
33000,note_on,160,0,12,,,,,,,,10,,,,79,92
33080,note_off,80,0,8,,,,,,,,5,,,,65,64
33080,note_off,80,0,7,,,,,,,,4,,,,79,64
33080,note_off,80,0,12,,,,,,,,10,,,,79,64
33080,note_off,80,0,13,,,,,,,,11,,,,65,64
33240,note_on,245,0,11,,,,,,,,8,,,,82,45
33240,note_on,0,0,14,,,,,,,,12,,,,48,45
33240,note_off,720,0,14,,,,,,,,12,,,,48,64
33240,note_on,245,0,6,,,,,,,,3,,,,82,45
33240,note_off,720,0,9,,,,,,,,6,,,,48,64
33240,note_on,0,0,9,,,,,,,,6,,,,48,45
33240,note_off,720,0,10,,,,,,,,7,,,,36,64
33240,note_on,160,0,13,,,,,,,,11,,,,64,45
33240,note_on,0,0,10,,,,,,,,7,,,,36,45
33240,note_on,160,0,12,,,,,,,,10,,,,79,45
33240,note_on,160,0,7,,,,,,,,4,,,,79,45
33240,note_on,160,0,8,,,,,,,,5,,,,64,45
33240,note_on,0,0,15,,,,,,,,13,,,,36,45
33240,note_off,720,0,15,,,,,,,,13,,,,36,64
33300,note_off,60,0,6,,,,,,,,3,,,,82,64
33300,note_on,0,0,6,,,,,,,,3,,,,80,45
33300,note_on,0,0,11,,,,,,,,8,,,,80,45
33300,note_off,60,0,11,,,,,,,,8,,,,82,64
33320,note_off,80,0,12,,,,,,,,10,,,,79,64
33320,note_off,80,0,8,,,,,,,,5,,,,64,64
33320,note_off,80,0,13,,,,,,,,11,,,,64,64
33320,note_off,80,0,7,,,,,,,,4,,,,79,64
33360,note_off,60,0,11,,,,,,,,8,,,,80,64
33360,note_on,0,0,11,,,,,,,,8,,,,79,45
33360,note_off,60,0,6,,,,,,,,3,,,,80,64
33360,note_on,0,0,6,,,,,,,,3,,,,79,45
33420,note_on,0,0,6,,,,,,,,3,,,,77,45
33420,note_off,60,0,11,,,,,,,,8,,,,79,64
33420,note_on,0,0,11,,,,,,,,8,,,,77,45
33420,note_off,60,0,6,,,,,,,,3,,,,79,64
33480,note_on,160,0,8,,,,,,,,5,,,,64,45
33480,note_on,160,0,12,,,,,,,,10,,,,79,45
33480,note_on,0,0,11,,,,,,,,8,,,,76,45
33480,note_on,160,0,7,,,,,,,,4,,,,79,45
33480,note_on,0,0,6,,,,,,,,3,,,,76,45
33480,note_off,60,0,6,,,,,,,,3,,,,77,64
33480,note_off,60,0,11,,,,,,,,8,,,,77,64
33480,note_on,160,0,13,,,,,,,,11,,,,64,45
33560,note_off,80,0,7,,,,,,,,4,,,,79,64
33560,note_off,80,0,12,,,,,,,,10,,,,79,64
33560,note_off,80,0,8,,,,,,,,5,,,,64,64
33560,note_off,80,0,13,,,,,,,,11,,,,64,64
33715,note_off,235,0,11,,,,,,,,8,,,,76,64
33715,note_off,235,0,6,,,,,,,,3,,,,76,64
33720,note_on,160,0,8,,,,,,,,5,,,,64,45
33720,note_on,160,0,13,,,,,,,,11,,,,64,45
33720,note_on,160,0,12,,,,,,,,10,,,,79,45
33720,note_on,160,0,7,,,,,,,,4,,,,79,45
33800,note_off,80,0,7,,,,,,,,4,,,,79,64
33800,note_off,80,0,12,,,,,,,,10,,,,79,64
33800,note_off,80,0,13,,,,,,,,11,,,,64,64
33800,note_off,80,0,8,,,,,,,,5,,,,64,64
33880,note_off,640,0,14,,,,,,,,12,,,,48,64
33960,note_on,0,0,7,,,,,,,,4,,,,77,92
33960,program_change,160,0,7,,,,,,,,4,,,51,,
33960,note_on,80,0,14,,,,,,,,12,,,,65,92
33960,note_on,245,0,11,,,,,,,,8,,,,77,92
33960,note_on,0,0,15,,,,,,,,13,,,,53,92
33960,note_off,720,0,15,,,,,,,,13,,,,36,64
33960,note_off,720,0,9,,,,,,,,6,,,,48,64
33960,program_change,160,0,8,,,,,,,,5,,,49,,
33960,note_on,0,0,8,,,,,,,,5,,,,77,92
33960,note_off,720,0,10,,,,,,,,7,,,,36,64
33960,note_on,0,0,10,,,,,,,,7,,,,53,92
33960,note_on,245,0,6,,,,,,,,3,,,,77,92
33960,note_on,0,0,9,,,,,,,,6,,,,65,92
33960,note_on,160,0,13,,,,,,,,11,,,,77,92
34040,note_off,80,0,9,,,,,,,,6,,,,65,64
34040,note_off,80,0,10,,,,,,,,7,,,,53,64
34040,note_off,80,0,15,,,,,,,,13,,,,53,64
34040,note_off,80,0,11,,,,,,,,8,,,,77,64
34040,note_off,80,0,14,,,,,,,,12,,,,65,64
34040,note_off,80,0,13,,,,,,,,11,,,,77,64
34040,note_off,80,0,8,,,,,,,,5,,,,77,64
34040,note_off,80,0,7,,,,,,,,4,,,,77,64
34040,note_off,80,0,6,,,,,,,,3,,,,77,64
34080,note_on,40,0,6,,,,,,,,3,,,,75,92
34080,note_on,40,0,9,,,,,,,,6,,,,63,92
34080,note_on,40,0,10,,,,,,,,7,,,,51,92
34080,note_on,40,0,14,,,,,,,,12,,,,63,92
34080,note_on,40,0,8,,,,,,,,5,,,,75,92
34080,note_on,40,0,7,,,,,,,,4,,,,75,92
34080,note_on,40,0,11,,,,,,,,8,,,,75,92
34080,note_on,40,0,15,,,,,,,,13,,,,51,92
34080,note_on,40,0,13,,,,,,,,11,,,,75,92
34160,note_off,80,0,7,,,,,,,,4,,,,75,64
34160,note_off,80,0,14,,,,,,,,12,,,,63,64
34160,note_off,80,0,9,,,,,,,,6,,,,63,64
34160,note_off,80,0,11,,,,,,,,8,,,,75,64
34160,note_off,80,0,13,,,,,,,,11,,,,75,64
34160,note_off,80,0,15,,,,,,,,13,,,,51,64
34160,note_off,80,0,6,,,,,,,,3,,,,75,64
34160,note_off,80,0,10,,,,,,,,7,,,,51,64
34160,note_off,80,0,8,,,,,,,,5,,,,75,64
34200,note_on,40,0,13,,,,,,,,11,,,,73,92
34200,note_on,40,0,15,,,,,,,,13,,,,49,92
34200,note_on,40,0,9,,,,,,,,6,,,,61,92
34200,note_on,40,0,7,,,,,,,,4,,,,73,92
34200,note_on,40,0,8,,,,,,,,5,,,,73,92
34200,note_on,40,0,6,,,,,,,,3,,,,73,92
34200,note_on,40,0,10,,,,,,,,7,,,,49,92
34200,note_on,40,0,14,,,,,,,,12,,,,61,92
34200,note_on,40,0,11,,,,,,,,8,,,,73,92
34280,note_off,80,0,11,,,,,,,,8,,,,73,64
34280,note_off,80,0,10,,,,,,,,7,,,,49,64
34280,note_off,80,0,9,,,,,,,,6,,,,61,64
34280,note_off,80,0,13,,,,,,,,11,,,,73,64
34280,note_off,80,0,14,,,,,,,,12,,,,61,64
34280,note_off,80,0,6,,,,,,,,3,,,,73,64
34280,note_off,80,0,7,,,,,,,,4,,,,73,64
34280,note_off,80,0,15,,,,,,,,13,,,,49,64
34280,note_off,80,0,8,,,,,,,,5,,,,73,64
34320,note_on,40,0,8,,,,,,,,5,,,,72,92
34320,note_on,40,0,7,,,,,,,,4,,,,72,92
34320,note_on,40,0,11,,,,,,,,8,,,,72,92
34320,note_on,40,0,13,,,,,,,,11,,,,72,92
34320,note_on,40,0,9,,,,,,,,6,,,,60,92
34320,note_on,40,0,14,,,,,,,,12,,,,60,92
34320,note_on,40,0,15,,,,,,,,13,,,,48,92
34320,note_on,40,0,10,,,,,,,,7,,,,48,92
34320,note_on,40,0,6,,,,,,,,3,,,,72,92
34400,note_off,80,0,6,,,,,,,,3,,,,72,64
34400,note_off,80,0,8,,,,,,,,5,,,,72,64
34400,note_off,80,0,14,,,,,,,,12,,,,60,64
34400,note_off,80,0,10,,,,,,,,7,,,,48,64
34400,note_off,80,0,7,,,,,,,,4,,,,72,64
34400,note_off,80,0,11,,,,,,,,8,,,,72,64
34400,note_off,80,0,13,,,,,,,,11,,,,72,64
34400,note_off,80,0,15,,,,,,,,13,,,,48,64
34400,note_off,80,0,9,,,,,,,,6,,,,60,64
34440,note_on,40,0,8,,,,,,,,5,,,,70,92
34440,note_on,40,0,6,,,,,,,,3,,,,70,92
34440,note_on,40,0,10,,,,,,,,7,,,,46,92
34440,note_on,40,0,13,,,,,,,,11,,,,70,92
34440,note_on,40,0,11,,,,,,,,8,,,,70,92
34440,note_on,40,0,14,,,,,,,,12,,,,58,92
34440,note_on,40,0,7,,,,,,,,4,,,,70,92
34440,note_on,40,0,9,,,,,,,,6,,,,58,92
34440,note_on,40,0,15,,,,,,,,13,,,,46,92
34520,note_off,80,0,7,,,,,,,,4,,,,70,64
34520,note_off,80,0,8,,,,,,,,5,,,,70,64
34520,note_off,80,0,6,,,,,,,,3,,,,70,64
34520,note_off,80,0,15,,,,,,,,13,,,,46,64
34520,note_off,80,0,9,,,,,,,,6,,,,58,64
34520,note_off,80,0,13,,,,,,,,11,,,,70,64
34520,note_off,80,0,11,,,,,,,,8,,,,70,64
34520,note_off,80,0,14,,,,,,,,12,,,,58,64
34520,note_off,80,0,10,,,,,,,,7,,,,46,64
34560,note_on,40,0,6,,,,,,,,3,,,,68,92
34560,note_on,40,0,9,,,,,,,,6,,,,56,92
34560,note_on,40,0,8,,,,,,,,5,,,,68,92
34560,note_on,40,0,11,,,,,,,,8,,,,68,92
34560,note_on,40,0,13,,,,,,,,11,,,,68,92
34560,note_on,40,0,7,,,,,,,,4,,,,68,92
34560,note_on,40,0,15,,,,,,,,13,,,,44,92
34560,note_on,40,0,14,,,,,,,,12,,,,56,92
34560,note_on,40,0,10,,,,,,,,7,,,,44,92
34640,note_off,80,0,7,,,,,,,,4,,,,68,64
34640,note_off,80,0,15,,,,,,,,13,,,,44,64
34640,note_off,80,0,9,,,,,,,,6,,,,56,64
34640,note_off,80,0,10,,,,,,,,7,,,,44,64
34640,note_off,80,0,11,,,,,,,,8,,,,68,64
34640,note_off,80,0,14,,,,,,,,12,,,,56,64
34640,note_off,80,0,8,,,,,,,,5,,,,68,64
34640,note_off,80,0,6,,,,,,,,3,,,,68,64
34640,note_off,80,0,13,,,,,,,,11,,,,68,64
34680,note_on,40,0,10,,,,,,,,7,,,,43,92
34680,note_on,40,0,14,,,,,,,,12,,,,55,92
34680,note_on,40,0,7,,,,,,,,4,,,,67,92
34680,note_on,40,0,11,,,,,,,,8,,,,67,92
34680,note_on,40,0,9,,,,,,,,6,,,,55,92
34680,note_on,40,0,13,,,,,,,,11,,,,67,92
34680,note_on,40,0,8,,,,,,,,5,,,,67,92
34680,note_on,40,0,15,,,,,,,,13,,,,43,92
34680,note_on,40,0,6,,,,,,,,3,,,,67,92
34760,note_off,80,0,6,,,,,,,,3,,,,67,64
34760,note_off,80,0,14,,,,,,,,12,,,,55,64
34760,note_off,80,0,10,,,,,,,,7,,,,43,64
34760,note_off,80,0,9,,,,,,,,6,,,,55,64
34760,note_off,80,0,7,,,,,,,,4,,,,67,64
34760,note_off,80,0,13,,,,,,,,11,,,,67,64
34760,note_off,80,0,15,,,,,,,,13,,,,43,64
34760,note_off,80,0,8,,,,,,,,5,,,,67,64
34760,note_off,80,0,11,,,,,,,,8,,,,67,64
34800,note_on,40,0,8,,,,,,,,5,,,,65,92
34800,note_on,40,0,6,,,,,,,,3,,,,65,92
34800,note_on,40,0,13,,,,,,,,11,,,,65,92
34800,note_on,40,0,14,,,,,,,,12,,,,53,92
34800,note_on,40,0,15,,,,,,,,13,,,,41,92
34800,note_on,40,0,7,,,,,,,,4,,,,65,92
34800,note_on,40,0,10,,,,,,,,7,,,,41,92
34800,note_on,40,0,9,,,,,,,,6,,,,53,92
34800,note_on,40,0,11,,,,,,,,8,,,,65,92
34880,note_off,80,0,6,,,,,,,,3,,,,65,64
34880,note_off,80,0,7,,,,,,,,4,,,,65,64
34880,note_off,80,0,9,,,,,,,,6,,,,53,64
34880,note_off,80,0,11,,,,,,,,8,,,,65,64
34880,note_off,80,0,14,,,,,,,,12,,,,53,64
34880,note_off,80,0,13,,,,,,,,11,,,,65,64
34880,note_off,80,0,8,,,,,,,,5,,,,65,64
34880,note_off,80,0,10,,,,,,,,7,,,,41,64
34880,note_off,80,0,15,,,,,,,,13,,,,41,64
34920,note_on,40,0,15,,,,,,,,13,,,,40,92
34920,note_on,40,0,8,,,,,,,,5,,,,64,92
34920,note_on,40,0,10,,,,,,,,7,,,,40,92
34920,note_on,40,0,13,,,,,,,,11,,,,64,92
34920,note_on,40,0,11,,,,,,,,8,,,,64,92
34920,note_on,40,0,14,,,,,,,,12,,,,52,92
34920,note_on,40,0,7,,,,,,,,4,,,,64,92
34920,note_on,40,0,6,,,,,,,,3,,,,64,92
34920,note_on,40,0,9,,,,,,,,6,,,,52,92
35000,note_off,80,0,14,,,,,,,,12,,,,52,64
35000,note_off,80,0,11,,,,,,,,8,,,,64,64
35000,note_off,80,0,10,,,,,,,,7,,,,40,64
35000,note_off,80,0,6,,,,,,,,3,,,,64,64
35000,note_off,80,0,8,,,,,,,,5,,,,64,64
35000,note_off,80,0,9,,,,,,,,6,,,,52,64
35000,note_off,80,0,13,,,,,,,,11,,,,64,64
35000,note_off,80,0,7,,,,,,,,4,,,,64,64
35000,note_off,80,0,15,,,,,,,,13,,,,40,64
35040,note_on,40,0,7,,,,,,,,4,,,,62,92
35040,note_on,40,0,13,,,,,,,,11,,,,62,92
35040,note_on,40,0,6,,,,,,,,3,,,,62,92
35040,note_on,40,0,11,,,,,,,,8,,,,62,92
35040,note_on,40,0,10,,,,,,,,7,,,,38,92
35040,note_on,40,0,9,,,,,,,,6,,,,50,92
35040,note_on,40,0,8,,,,,,,,5,,,,62,92
35040,note_on,40,0,15,,,,,,,,13,,,,38,92
35040,note_on,40,0,14,,,,,,,,12,,,,50,92
35120,note_off,80,0,8,,,,,,,,5,,,,62,64
35120,note_off,80,0,13,,,,,,,,11,,,,62,64
35120,note_off,80,0,11,,,,,,,,8,,,,62,64
35120,note_off,80,0,6,,,,,,,,3,,,,62,64
35120,note_off,80,0,14,,,,,,,,12,,,,50,64
35120,note_off,80,0,15,,,,,,,,13,,,,38,64
35120,note_off,80,0,7,,,,,,,,4,,,,62,64
35120,note_off,80,0,9,,,,,,,,6,,,,50,64
35120,note_off,80,0,10,,,,,,,,7,,,,38,64
35160,note_on,40,0,8,,,,,,,,5,,,,60,92
35160,note_on,40,0,11,,,,,,,,8,,,,60,92
35160,note_on,40,0,14,,,,,,,,12,,,,48,92
35160,note_on,40,0,7,,,,,,,,4,,,,60,92
35160,note_on,40,0,6,,,,,,,,3,,,,60,92
35160,note_on,40,0,10,,,,,,,,7,,,,36,92
35160,note_on,40,0,9,,,,,,,,6,,,,48,92
35160,note_on,40,0,13,,,,,,,,11,,,,60,92
35160,note_on,40,0,15,,,,,,,,13,,,,36,92
35240,note_off,80,0,14,,,,,,,,12,,,,48,64
35240,note_off,80,0,11,,,,,,,,8,,,,60,64
35240,note_off,80,0,13,,,,,,,,11,,,,60,64
35240,note_off,80,0,10,,,,,,,,7,,,,36,64
35240,note_off,80,0,15,,,,,,,,13,,,,36,64
35240,note_off,80,0,7,,,,,,,,4,,,,60,64
35240,note_off,80,0,8,,,,,,,,5,,,,60,64
35240,note_off,80,0,6,,,,,,,,3,,,,60,64
35240,note_off,80,0,9,,,,,,,,6,,,,48,64
35280,note_on,40,0,14,,,,,,,,12,,,,46,92
35280,note_on,40,0,13,,,,,,,,11,,,,58,92
35280,note_on,40,0,8,,,,,,,,5,,,,58,92
35280,note_on,40,0,15,,,,,,,,13,,,,34,92
35280,note_on,40,0,9,,,,,,,,6,,,,46,92
35280,note_on,40,0,10,,,,,,,,7,,,,34,92
35280,note_on,40,0,11,,,,,,,,8,,,,58,92
35280,note_on,40,0,7,,,,,,,,4,,,,58,92
35280,note_on,40,0,6,,,,,,,,3,,,,58,92
35360,note_off,80,0,9,,,,,,,,6,,,,46,64
35360,note_off,80,0,11,,,,,,,,8,,,,58,64
35360,note_off,80,0,14,,,,,,,,12,,,,46,64
35360,note_off,80,0,15,,,,,,,,13,,,,34,64
35360,note_off,80,0,7,,,,,,,,4,,,,58,64
35360,note_off,80,0,10,,,,,,,,7,,,,34,64
35360,note_off,80,0,8,,,,,,,,5,,,,58,64
35360,note_off,80,0,6,,,,,,,,3,,,,58,64
35360,note_off,80,0,13,,,,,,,,11,,,,58,64
35400,note_on,40,0,13,,,,,,,,11,,,,56,92
35400,note_on,40,0,15,,,,,,,,13,,,,32,92
35400,note_on,40,0,14,,,,,,,,12,,,,44,92
35400,note_on,40,0,8,,,,,,,,5,,,,56,92
35400,note_on,40,0,10,,,,,,,,7,,,,32,92
35400,note_on,40,0,7,,,,,,,,4,,,,56,92
35400,note_on,40,0,9,,,,,,,,6,,,,44,92
35400,note_on,40,0,6,,,,,,,,3,,,,56,92
35400,note_on,40,0,11,,,,,,,,8,,,,56,92
35480,note_off,80,0,13,,,,,,,,11,,,,56,64
35480,note_off,80,0,10,,,,,,,,7,,,,32,64
35480,note_off,80,0,15,,,,,,,,13,,,,32,64
35480,note_off,80,0,6,,,,,,,,3,,,,56,64
35480,note_off,80,0,9,,,,,,,,6,,,,44,64
35480,note_off,80,0,14,,,,,,,,12,,,,44,64
35480,note_off,80,0,7,,,,,,,,4,,,,56,64
35480,note_off,80,0,8,,,,,,,,5,,,,56,64
35480,note_off,80,0,11,,,,,,,,8,,,,56,64
35640,note_on,160,0,14,,,,,,,,12,,,,46,77
35640,note_on,160,0,6,,,,,,,,3,,,,58,77
35640,note_on,160,0,7,,,,,,,,4,,,,58,69
35640,note_on,160,0,8,,,,,,,,5,,,,58,77
35640,note_on,160,0,11,,,,,,,,8,,,,58,77
35640,note_on,160,0,13,,,,,,,,11,,,,58,77
35640,note_on,160,0,10,,,,,,,,7,,,,34,77
35640,note_on,160,0,9,,,,,,,,6,,,,46,77
35640,note_on,160,0,15,,,,,,,,13,,,,34,92
35720,note_off,80,0,11,,,,,,,,8,,,,58,64
35720,note_off,80,0,9,,,,,,,,6,,,,46,64
35720,note_off,80,0,7,,,,,,,,4,,,,58,64
35720,note_off,80,0,8,,,,,,,,5,,,,58,64
35720,note_off,80,0,10,,,,,,,,7,,,,34,64
35720,note_off,80,0,6,,,,,,,,3,,,,58,64
35720,note_off,80,0,14,,,,,,,,12,,,,46,64
35720,note_off,80,0,13,,,,,,,,11,,,,58,64
35720,note_off,80,0,15,,,,,,,,13,,,,34,64
35880,note_on,160,0,13,,,,,,,,11,,,,60,61
35880,note_on,160,0,15,,,,,,,,13,,,,36,92
35880,note_on,160,0,11,,,,,,,,8,,,,60,61
35880,note_on,160,0,6,,,,,,,,3,,,,60,61
35880,note_on,160,0,7,,,,,,,,4,,,,60,45
35880,note_on,160,0,8,,,,,,,,5,,,,60,61
35880,note_on,160,0,10,,,,,,,,7,,,,36,61
35880,note_on,160,0,14,,,,,,,,12,,,,48,61
35880,note_on,160,0,9,,,,,,,,6,,,,48,61
35960,note_off,80,0,6,,,,,,,,3,,,,60,64
35960,note_off,80,0,8,,,,,,,,5,,,,60,64
35960,note_off,80,0,9,,,,,,,,6,,,,48,64
35960,note_off,80,0,10,,,,,,,,7,,,,36,64
35960,note_off,80,0,7,,,,,,,,4,,,,60,64
35960,note_off,80,0,15,,,,,,,,13,,,,36,64
35960,note_off,80,0,14,,,,,,,,12,,,,48,64
35960,note_off,80,0,11,,,,,,,,8,,,,60,64
35960,note_off,80,0,13,,,,,,,,11,,,,60,64
36120,note_on,21845,0,4,,,,,,,,1,,,,65,75
36120,note_on,160,0,9,,,,,,,,6,,,,41,45
36120,note_on,21845,0,5,,,,,,,,2,,,,65,60
36120,program_change,160,0,8,,,,,,,,5,,,48,,
36120,program_change,160,0,7,,,,,,,,4,,,48,,
36120,note_on,160,0,10,,,,,,,,7,,,,29,45
36120,note_on,160,0,6,,,,,,,,3,,,,65,45
36120,note_on,160,0,13,,,,,,,,11,,,,65,45
36120,note_on,160,0,14,,,,,,,,12,,,,41,45
36120,note_on,160,0,15,,,,,,,,13,,,,29,45
36120,note_on,160,0,11,,,,,,,,8,,,,65,45
36120,note_on,0,0,8,,,,,,,,5,,,,65,45
36200,note_off,80,0,5,,,,,,,,2,,,,65,64
36200,note_off,80,0,4,,,,,,,,1,,,,65,64
36240,note_on,40,0,4,,,,,,,,1,,,,67,75
36240,note_on,40,0,5,,,,,,,,2,,,,67,60
36320,note_off,80,0,4,,,,,,,,1,,,,67,64
36320,note_off,80,0,5,,,,,,,,2,,,,67,64
36355,note_off,235,0,13,,,,,,,,11,,,,65,64
36355,note_off,235,0,8,,,,,,,,5,,,,65,64
36360,note_on,5,0,8,,,,,,,,5,,,,65,45
36360,note_on,40,0,5,,,,,,,,2,,,,68,60
36360,note_on,5,0,13,,,,,,,,11,,,,65,45
36360,note_on,40,0,4,,,,,,,,1,,,,68,75
36440,note_off,80,0,5,,,,,,,,2,,,,68,64
36440,note_off,80,0,4,,,,,,,,1,,,,68,64
36480,note_on,40,0,5,,,,,,,,2,,,,67,60
36480,note_on,40,0,4,,,,,,,,1,,,,67,75
36520,note_off,400,0,14,,,,,,,,12,,,,41,64
36520,note_off,400,0,9,,,,,,,,6,,,,41,64
36520,note_off,400,0,10,,,,,,,,7,,,,29,64
36520,note_off,400,0,15,,,,,,,,13,,,,29,64
36560,note_off,80,0,4,,,,,,,,1,,,,67,64
36560,note_off,80,0,5,,,,,,,,2,,,,67,64
36595,note_off,235,0,8,,,,,,,,5,,,,65,64
36595,note_off,235,0,13,,,,,,,,11,,,,65,64
36600,note_on,40,0,4,,,,,,,,1,,,,68,75
36600,note_on,5,0,13,,,,,,,,11,,,,65,45
36600,note_on,5,0,8,,,,,,,,5,,,,65,45
36600,note_on,40,0,5,,,,,,,,2,,,,68,60
36680,note_off,80,0,4,,,,,,,,1,,,,68,64
36680,note_off,80,0,5,,,,,,,,2,,,,68,64
36720,note_on,40,0,5,,,,,,,,2,,,,65,60
36720,note_on,40,0,4,,,,,,,,1,,,,65,75
36760,note_off,640,0,6,,,,,,,,3,,,,65,64
36760,note_off,640,0,11,,,,,,,,8,,,,65,64
36800,note_off,80,0,5,,,,,,,,2,,,,65,64
36800,note_off,80,0,4,,,,,,,,1,,,,65,64
36835,note_off,235,0,13,,,,,,,,11,,,,65,64
36835,note_off,235,0,8,,,,,,,,5,,,,65,64
36840,note_on,80,0,11,,,,,,,,8,,,,65,45
36840,note_on,5,0,13,,,,,,,,11,,,,63,45
36840,note_on,80,0,6,,,,,,,,3,,,,65,45
36840,note_on,40,0,4,,,,,,,,1,,,,72,75
36840,note_on,5,0,8,,,,,,,,5,,,,63,45
36840,note_on,40,0,5,,,,,,,,2,,,,72,60
36920,note_off,80,0,4,,,,,,,,1,,,,72,64
36920,note_off,80,0,5,,,,,,,,2,,,,72,64
36960,note_on,40,0,4,,,,,,,,1,,,,73,75
36960,note_on,40,0,5,,,,,,,,2,,,,73,60
37040,note_off,80,0,4,,,,,,,,1,,,,73,64
37040,note_off,80,0,5,,,,,,,,2,,,,73,64
37075,note_off,235,0,13,,,,,,,,11,,,,63,64
37075,note_off,235,0,8,,,,,,,,5,,,,63,64
37080,note_on,5,0,13,,,,,,,,11,,,,63,45
37080,note_on,40,0,5,,,,,,,,2,,,,75,60
37080,note_on,40,0,4,,,,,,,,1,,,,75,75
37080,note_on,5,0,8,,,,,,,,5,,,,63,45
37160,note_off,80,0,4,,,,,,,,1,,,,75,64
37160,note_off,80,0,5,,,,,,,,2,,,,75,64
37200,note_on,40,0,4,,,,,,,,1,,,,73,75
37200,note_on,40,0,5,,,,,,,,2,,,,73,60
37280,note_off,80,0,4,,,,,,,,1,,,,73,64
37280,note_off,80,0,5,,,,,,,,2,,,,73,64
37315,note_off,235,0,13,,,,,,,,11,,,,63,64
37315,note_off,235,0,8,,,,,,,,5,,,,63,64
37320,note_on,5,0,13,,,,,,,,11,,,,63,45
37320,note_on,40,0,4,,,,,,,,1,,,,75,75
37320,note_on,40,0,5,,,,,,,,2,,,,75,60
37320,note_on,5,0,8,,,,,,,,5,,,,63,45
37400,note_off,80,0,5,,,,,,,,2,,,,75,64
37400,note_off,80,0,4,,,,,,,,1,,,,75,64
37440,note_on,40,0,5,,,,,,,,2,,,,72,60
37440,note_on,40,0,4,,,,,,,,1,,,,72,75
37480,note_off,640,0,11,,,,,,,,8,,,,65,64
37480,note_off,640,0,6,,,,,,,,3,,,,65,64
37520,note_off,80,0,4,,,,,,,,1,,,,72,64
37520,note_off,80,0,5,,,,,,,,2,,,,72,64
37555,note_off,235,0,8,,,,,,,,5,,,,63,64
37555,note_off,235,0,13,,,,,,,,11,,,,63,64
37560,note_on,80,0,6,,,,,,,,3,,,,65,45
37560,note_on,40,0,4,,,,,,,,1,,,,77,75
37560,note_on,80,0,11,,,,,,,,8,,,,65,45
37560,note_on,40,0,5,,,,,,,,2,,,,77,60
37560,note_on,5,0,13,,,,,,,,11,,,,61,45
37560,note_on,5,0,8,,,,,,,,5,,,,61,45
37640,note_off,80,0,5,,,,,,,,2,,,,77,64
37640,note_off,80,0,4,,,,,,,,1,,,,77,64
37680,note_on,40,0,5,,,,,,,,2,,,,79,60
37680,note_on,40,0,4,,,,,,,,1,,,,79,75
37760,note_off,80,0,5,,,,,,,,2,,,,79,64
37760,note_off,80,0,4,,,,,,,,1,,,,79,64
37795,note_off,235,0,13,,,,,,,,11,,,,61,64
37795,note_off,235,0,8,,,,,,,,5,,,,61,64
37800,note_on,40,0,5,,,,,,,,2,,,,80,60
37800,note_on,40,0,4,,,,,,,,1,,,,80,75
37800,note_on,5,0,13,,,,,,,,11,,,,61,45
37800,note_on,5,0,8,,,,,,,,5,,,,61,45
37880,note_off,80,0,4,,,,,,,,1,,,,80,64
37880,note_off,80,0,5,,,,,,,,2,,,,80,64
37920,note_on,40,0,4,,,,,,,,1,,,,79,75
37920,note_on,40,0,5,,,,,,,,2,,,,79,60
38000,note_off,80,0,4,,,,,,,,1,,,,79,64
38000,note_off,80,0,5,,,,,,,,2,,,,79,64
38035,note_off,235,0,13,,,,,,,,11,,,,61,64
38035,note_off,235,0,8,,,,,,,,5,,,,61,64
38040,note_on,5,0,8,,,,,,,,5,,,,61,45
38040,note_on,5,0,13,,,,,,,,11,,,,61,45
38040,note_on,40,0,4,,,,,,,,1,,,,80,75
38040,note_on,40,0,5,,,,,,,,2,,,,80,60
38120,note_off,80,0,5,,,,,,,,2,,,,80,64
38120,note_off,80,0,4,,,,,,,,1,,,,80,64
38160,note_on,40,0,5,,,,,,,,2,,,,77,60
38160,note_on,40,0,4,,,,,,,,1,,,,77,75
38200,note_off,640,0,6,,,,,,,,3,,,,65,64
38200,note_off,640,0,11,,,,,,,,8,,,,65,64
38240,note_off,80,0,5,,,,,,,,2,,,,77,64
38240,note_off,80,0,4,,,,,,,,1,,,,77,64
38275,note_off,235,0,8,,,,,,,,5,,,,61,64
38275,note_off,235,0,13,,,,,,,,11,,,,61,64
38280,note_on,5,0,8,,,,,,,,5,,,,60,45
38280,note_on,40,0,4,,,,,,,,1,,,,79,75
38280,note_on,40,0,5,,,,,,,,2,,,,79,60
38280,note_on,80,0,6,,,,,,,,3,,,,65,45
38280,note_on,5,0,13,,,,,,,,11,,,,60,45
38280,note_on,80,0,11,,,,,,,,8,,,,65,45
38360,note_off,80,0,4,,,,,,,,1,,,,79,64
38360,note_off,80,0,5,,,,,,,,2,,,,79,64
38400,note_on,40,0,5,,,,,,,,2,,,,80,60
38400,note_on,40,0,4,,,,,,,,1,,,,80,75
38480,note_off,80,0,4,,,,,,,,1,,,,80,64
38480,note_off,80,0,5,,,,,,,,2,,,,80,64
38515,note_off,235,0,8,,,,,,,,5,,,,60,64
38515,note_off,235,0,13,,,,,,,,11,,,,60,64
38520,note_on,40,0,4,,,,,,,,1,,,,82,75
38520,note_on,40,0,5,,,,,,,,2,,,,82,60
38520,note_on,5,0,13,,,,,,,,11,,,,60,45
38520,note_on,5,0,8,,,,,,,,5,,,,60,45
38600,note_off,80,0,4,,,,,,,,1,,,,82,64
38600,note_off,80,0,5,,,,,,,,2,,,,82,64
38640,note_on,40,0,4,,,,,,,,1,,,,80,75
38640,note_on,40,0,5,,,,,,,,2,,,,80,60
38720,note_off,80,0,4,,,,,,,,1,,,,80,64
38720,note_off,80,0,5,,,,,,,,2,,,,80,64
38755,note_off,235,0,13,,,,,,,,11,,,,60,64
38755,note_off,235,0,8,,,,,,,,5,,,,60,64
38760,note_on,5,0,13,,,,,,,,11,,,,60,45
38760,note_on,40,0,5,,,,,,,,2,,,,82,60
38760,note_on,40,0,4,,,,,,,,1,,,,82,75
38760,note_on,5,0,8,,,,,,,,5,,,,60,45
38840,note_off,80,0,4,,,,,,,,1,,,,82,64
38840,note_off,80,0,5,,,,,,,,2,,,,82,64
38880,note_on,40,0,4,,,,,,,,1,,,,79,75
38880,note_on,40,0,5,,,,,,,,2,,,,79,60
38920,note_off,640,0,6,,,,,,,,3,,,,65,64
38920,note_off,640,0,11,,,,,,,,8,,,,65,64
38960,note_off,80,0,4,,,,,,,,1,,,,79,64
38960,note_off,80,0,5,,,,,,,,2,,,,79,64
38995,note_off,235,0,13,,,,,,,,11,,,,60,64
38995,note_off,235,0,8,,,,,,,,5,,,,60,64
39000,note_on,40,0,4,,,,,,,,1,,,,76,75
39000,note_on,80,0,6,,,,,,,,3,,,,65,45
39000,note_on,40,0,5,,,,,,,,2,,,,76,60
39000,note_on,80,0,11,,,,,,,,8,,,,65,45
39000,note_on,5,0,13,,,,,,,,11,,,,58,45
39000,note_on,5,0,8,,,,,,,,5,,,,58,45
39080,note_off,80,0,5,,,,,,,,2,,,,76,64
39080,note_off,80,0,4,,,,,,,,1,,,,76,64
39120,note_on,40,0,4,,,,,,,,1,,,,77,75
39120,note_on,40,0,5,,,,,,,,2,,,,77,60
39200,note_off,80,0,4,,,,,,,,1,,,,77,64
39200,note_off,80,0,5,,,,,,,,2,,,,77,64
39235,note_off,235,0,8,,,,,,,,5,,,,58,64
39235,note_off,235,0,13,,,,,,,,11,,,,58,64
39240,note_on,40,0,5,,,,,,,,2,,,,79,60
39240,note_on,40,0,4,,,,,,,,1,,,,79,75
39240,note_on,5,0,13,,,,,,,,11,,,,58,45
39240,note_on,5,0,8,,,,,,,,5,,,,58,45
39320,note_off,80,0,5,,,,,,,,2,,,,79,64
39320,note_off,80,0,4,,,,,,,,1,,,,79,64
39360,note_on,40,0,5,,,,,,,,2,,,,77,60
39360,note_on,40,0,4,,,,,,,,1,,,,77,75
39440,note_off,80,0,5,,,,,,,,2,,,,77,64
39440,note_off,80,0,4,,,,,,,,1,,,,77,64
39475,note_off,235,0,13,,,,,,,,11,,,,58,64
39475,note_off,235,0,8,,,,,,,,5,,,,58,64
39480,note_on,5,0,8,,,,,,,,5,,,,58,45
39480,note_on,5,0,13,,,,,,,,11,,,,58,45
39480,note_on,40,0,4,,,,,,,,1,,,,79,75
39480,note_on,40,0,5,,,,,,,,2,,,,79,60
39560,note_off,80,0,5,,,,,,,,2,,,,79,64
39560,note_off,80,0,4,,,,,,,,1,,,,79,64
39600,note_on,40,0,4,,,,,,,,1,,,,76,75
39600,note_on,40,0,5,,,,,,,,2,,,,76,60
39640,note_off,640,0,6,,,,,,,,3,,,,65,64
39640,note_off,640,0,11,,,,,,,,8,,,,65,64
39680,note_off,80,0,4,,,,,,,,1,,,,76,64
39680,note_off,80,0,5,,,,,,,,2,,,,76,64
39715,note_off,235,0,13,,,,,,,,11,,,,58,64
39715,note_off,235,0,8,,,,,,,,5,,,,58,64
39720,note_on,80,0,6,,,,,,,,3,,,,65,45
39720,note_on,5,0,8,,,,,,,,5,,,,56,45
39720,note_on,80,0,11,,,,,,,,8,,,,65,45
39720,note_on,40,0,4,,,,,,,,1,,,,77,75
39720,note_on,40,0,5,,,,,,,,2,,,,77,60
39720,note_on,5,0,13,,,,,,,,11,,,,56,45
39800,note_off,80,0,4,,,,,,,,1,,,,77,64
39800,note_off,80,0,5,,,,,,,,2,,,,77,64
39840,note_on,40,0,4,,,,,,,,1,,,,79,75
39840,note_on,40,0,5,,,,,,,,2,,,,79,60
39920,note_off,80,0,4,,,,,,,,1,,,,79,64
39920,note_off,80,0,5,,,,,,,,2,,,,79,64
39955,note_off,235,0,8,,,,,,,,5,,,,56,64
39955,note_off,235,0,13,,,,,,,,11,,,,56,64
39960,note_on,40,0,5,,,,,,,,2,,,,80,60
39960,note_on,5,0,13,,,,,,,,11,,,,56,45
39960,note_on,5,0,8,,,,,,,,5,,,,56,45
39960,note_on,40,0,4,,,,,,,,1,,,,80,75
40040,note_off,80,0,4,,,,,,,,1,,,,80,64
40040,note_off,80,0,5,,,,,,,,2,,,,80,64
40080,note_on,40,0,5,,,,,,,,2,,,,79,60
40080,note_on,40,0,4,,,,,,,,1,,,,79,75
40160,note_off,80,0,5,,,,,,,,2,,,,79,64
40160,note_off,80,0,4,,,,,,,,1,,,,79,64
40195,note_off,235,0,13,,,,,,,,11,,,,56,64
40195,note_off,235,0,8,,,,,,,,5,,,,56,64
40200,note_on,40,0,5,,,,,,,,2,,,,80,60
40200,note_on,5,0,8,,,,,,,,5,,,,56,45
40200,note_on,40,0,4,,,,,,,,1,,,,80,75
40200,note_on,5,0,13,,,,,,,,11,,,,56,45
40280,note_off,80,0,5,,,,,,,,2,,,,80,64
40280,note_off,80,0,4,,,,,,,,1,,,,80,64
40320,note_on,40,0,4,,,,,,,,1,,,,77,75
40320,note_on,40,0,5,,,,,,,,2,,,,77,60
40360,note_off,640,0,6,,,,,,,,3,,,,65,64
40360,note_off,640,0,11,,,,,,,,8,,,,65,64
40400,note_off,80,0,4,,,,,,,,1,,,,77,64
40400,note_off,80,0,5,,,,,,,,2,,,,77,64
40435,note_off,235,0,13,,,,,,,,11,,,,56,64
40435,note_off,235,0,8,,,,,,,,5,,,,56,64
40440,note_on,80,0,6,,,,,,,,3,,,,65,45
40440,note_on,40,0,5,,,,,,,,2,,,,79,60
40440,note_on,5,0,8,,,,,,,,5,,,,55,45
40440,note_on,5,0,13,,,,,,,,11,,,,55,45
40440,note_on,80,0,11,,,,,,,,8,,,,65,45
40440,note_on,40,0,4,,,,,,,,1,,,,79,75
40520,note_off,80,0,5,,,,,,,,2,,,,79,64
40520,note_off,80,0,4,,,,,,,,1,,,,79,64
40560,note_on,40,0,5,,,,,,,,2,,,,80,60
40560,note_on,40,0,4,,,,,,,,1,,,,80,75
40640,note_off,80,0,5,,,,,,,,2,,,,80,64
40640,note_off,80,0,4,,,,,,,,1,,,,80,64
40675,note_off,235,0,8,,,,,,,,5,,,,55,64
40675,note_off,235,0,13,,,,,,,,11,,,,55,64
40680,note_on,40,0,5,,,,,,,,2,,,,82,60
40680,note_on,5,0,8,,,,,,,,5,,,,55,45
40680,note_on,5,0,13,,,,,,,,11,,,,55,45
40680,note_on,40,0,4,,,,,,,,1,,,,82,75
40760,note_off,80,0,5,,,,,,,,2,,,,82,64
40760,note_off,80,0,4,,,,,,,,1,,,,82,64
40800,note_on,40,0,5,,,,,,,,2,,,,80,60
40800,note_on,40,0,4,,,,,,,,1,,,,80,75
40880,note_off,80,0,4,,,,,,,,1,,,,80,64
40880,note_off,80,0,5,,,,,,,,2,,,,80,64
40915,note_off,235,0,8,,,,,,,,5,,,,55,64
40915,note_off,235,0,13,,,,,,,,11,,,,55,64
40920,note_on,40,0,5,,,,,,,,2,,,,82,60
40920,note_on,5,0,8,,,,,,,,5,,,,55,45
40920,note_on,40,0,4,,,,,,,,1,,,,82,75
40920,note_on,5,0,13,,,,,,,,11,,,,55,45
41000,note_off,80,0,5,,,,,,,,2,,,,82,64
41000,note_off,80,0,4,,,,,,,,1,,,,82,64
41040,note_on,40,0,4,,,,,,,,1,,,,79,75
41040,note_on,40,0,5,,,,,,,,2,,,,79,60
41080,note_off,640,0,11,,,,,,,,8,,,,65,64
41080,note_off,640,0,6,,,,,,,,3,,,,65,64
41120,note_off,80,0,4,,,,,,,,1,,,,79,64
41120,note_off,80,0,5,,,,,,,,2,,,,79,64
41155,note_off,235,0,8,,,,,,,,5,,,,55,64
41155,note_off,235,0,13,,,,,,,,11,,,,55,64
41160,note_on,80,0,6,,,,,,,,3,,,,65,45
41160,note_on,5,0,13,,,,,,,,11,,,,53,45
41160,note_on,80,0,11,,,,,,,,8,,,,65,45
41160,note_on,5,0,8,,,,,,,,5,,,,53,45
41160,note_on,40,0,4,,,,,,,,1,,,,80,75
41160,note_on,40,0,5,,,,,,,,2,,,,80,60
41240,note_off,80,0,4,,,,,,,,1,,,,80,64
41240,note_off,80,0,5,,,,,,,,2,,,,80,64
41280,note_on,40,0,4,,,,,,,,1,,,,82,75
41280,note_on,40,0,5,,,,,,,,2,,,,82,60
41360,note_off,80,0,4,,,,,,,,1,,,,82,64
41360,note_off,80,0,5,,,,,,,,2,,,,82,64
41395,note_off,235,0,13,,,,,,,,11,,,,53,64
41395,note_off,235,0,8,,,,,,,,5,,,,53,64
41400,note_on,5,0,13,,,,,,,,11,,,,53,45
41400,note_on,40,0,4,,,,,,,,1,,,,84,75
41400,note_on,40,0,5,,,,,,,,2,,,,84,60
41400,note_on,5,0,8,,,,,,,,5,,,,53,45
41480,note_off,80,0,4,,,,,,,,1,,,,84,64
41480,note_off,80,0,5,,,,,,,,2,,,,84,64
41520,note_on,40,0,4,,,,,,,,1,,,,82,75
41520,note_on,40,0,5,,,,,,,,2,,,,82,60
41600,note_off,80,0,4,,,,,,,,1,,,,82,64
41600,note_off,80,0,5,,,,,,,,2,,,,82,64
41635,note_off,235,0,8,,,,,,,,5,,,,53,64
41635,note_off,235,0,13,,,,,,,,11,,,,53,64
41640,note_on,40,0,5,,,,,,,,2,,,,84,60
41640,note_on,40,0,4,,,,,,,,1,,,,84,75
41640,note_on,5,0,8,,,,,,,,5,,,,53,45
41640,note_on,5,0,13,,,,,,,,11,,,,53,45
41720,note_off,80,0,4,,,,,,,,1,,,,84,64
41720,note_off,80,0,5,,,,,,,,2,,,,84,64
41760,note_on,40,0,5,,,,,,,,2,,,,80,60
41760,note_on,40,0,4,,,,,,,,1,,,,80,75
41800,note_off,640,0,11,,,,,,,,8,,,,65,64
41800,note_off,640,0,6,,,,,,,,3,,,,65,64
41840,note_off,80,0,5,,,,,,,,2,,,,80,64
41840,note_off,80,0,4,,,,,,,,1,,,,80,64
41875,note_off,235,0,13,,,,,,,,11,,,,53,64
41875,note_off,235,0,8,,,,,,,,5,,,,53,64
41880,note_on,40,0,5,,,,,,,,2,,,,79,60
41880,note_on,80,0,11,,,,,,,,8,,,,65,45
41880,note_on,80,0,6,,,,,,,,3,,,,65,45
41880,note_on,40,0,4,,,,,,,,1,,,,79,75
41880,note_on,5,0,8,,,,,,,,5,,,,51,45
41880,note_on,5,0,13,,,,,,,,11,,,,51,45
41960,note_off,80,0,4,,,,,,,,1,,,,79,64
41960,note_off,80,0,5,,,,,,,,2,,,,79,64
42000,note_on,40,0,5,,,,,,,,2,,,,80,60
42000,note_on,40,0,4,,,,,,,,1,,,,80,75
42080,note_off,80,0,4,,,,,,,,1,,,,80,64
42080,note_off,80,0,5,,,,,,,,2,,,,80,64
42115,note_off,235,0,8,,,,,,,,5,,,,51,64
42115,note_off,235,0,13,,,,,,,,11,,,,51,64
42120,note_on,5,0,13,,,,,,,,11,,,,51,45
42120,note_on,40,0,5,,,,,,,,2,,,,82,60
42120,note_on,5,0,8,,,,,,,,5,,,,51,45
42120,note_on,40,0,4,,,,,,,,1,,,,82,75
42200,note_off,80,0,4,,,,,,,,1,,,,82,64
42200,note_off,80,0,5,,,,,,,,2,,,,82,64
42240,note_on,40,0,4,,,,,,,,1,,,,80,75
42240,note_on,40,0,5,,,,,,,,2,,,,80,60
42320,note_off,80,0,4,,,,,,,,1,,,,80,64
42320,note_off,80,0,5,,,,,,,,2,,,,80,64
42355,note_off,235,0,8,,,,,,,,5,,,,51,64
42355,note_off,235,0,13,,,,,,,,11,,,,51,64
42360,note_on,5,0,8,,,,,,,,5,,,,51,45
42360,note_on,40,0,5,,,,,,,,2,,,,82,60
42360,note_on,40,0,4,,,,,,,,1,,,,82,75
42360,note_on,5,0,13,,,,,,,,11,,,,51,45
42440,note_off,80,0,5,,,,,,,,2,,,,82,64
42440,note_off,80,0,4,,,,,,,,1,,,,82,64
42480,note_on,40,0,4,,,,,,,,1,,,,79,75
42480,note_on,40,0,5,,,,,,,,2,,,,79,60
42520,note_off,640,0,6,,,,,,,,3,,,,65,64
42520,note_off,640,0,11,,,,,,,,8,,,,65,64
42560,note_off,80,0,5,,,,,,,,2,,,,79,64
42560,note_off,80,0,4,,,,,,,,1,,,,79,64
42595,note_off,235,0,13,,,,,,,,11,,,,51,64
42595,note_off,235,0,8,,,,,,,,5,,,,51,64
42600,note_on,80,0,6,,,,,,,,3,,,,65,45
42600,note_on,80,0,11,,,,,,,,8,,,,65,45
42600,note_on,40,0,5,,,,,,,,2,,,,77,60
42600,note_on,5,0,13,,,,,,,,11,,,,49,45
42600,note_on,40,0,4,,,,,,,,1,,,,77,75
42600,note_on,5,0,8,,,,,,,,5,,,,49,45
42680,note_off,80,0,5,,,,,,,,2,,,,77,64
42680,note_off,80,0,4,,,,,,,,1,,,,77,64
42720,note_on,40,0,5,,,,,,,,2,,,,79,60
42720,note_on,40,0,4,,,,,,,,1,,,,79,75
42800,note_off,80,0,4,,,,,,,,1,,,,79,64
42800,note_off,80,0,5,,,,,,,,2,,,,79,64
42835,note_off,235,0,13,,,,,,,,11,,,,49,64
42835,note_off,235,0,8,,,,,,,,5,,,,49,64
42840,note_on,5,0,13,,,,,,,,11,,,,49,45
42840,note_on,5,0,8,,,,,,,,5,,,,49,45
42840,note_on,40,0,5,,,,,,,,2,,,,80,60
42840,note_on,40,0,4,,,,,,,,1,,,,80,75
42920,note_off,80,0,4,,,,,,,,1,,,,80,64
42920,note_off,80,0,5,,,,,,,,2,,,,80,64
42960,note_on,40,0,5,,,,,,,,2,,,,79,60
42960,note_on,40,0,4,,,,,,,,1,,,,79,75
43040,note_off,80,0,4,,,,,,,,1,,,,79,64
43040,note_off,80,0,5,,,,,,,,2,,,,79,64
43075,note_off,235,0,13,,,,,,,,11,,,,49,64
43075,note_off,235,0,8,,,,,,,,5,,,,49,64
43080,note_on,5,0,13,,,,,,,,11,,,,49,45
43080,note_on,5,0,8,,,,,,,,5,,,,49,45
43080,note_on,40,0,4,,,,,,,,1,,,,80,75
43080,note_on,40,0,5,,,,,,,,2,,,,80,60
43160,note_off,80,0,5,,,,,,,,2,,,,80,64
43160,note_off,80,0,4,,,,,,,,1,,,,80,64
43200,note_on,40,0,4,,,,,,,,1,,,,77,75
43200,note_on,40,0,5,,,,,,,,2,,,,77,60
43240,note_off,640,0,11,,,,,,,,8,,,,65,64
43240,note_off,640,0,6,,,,,,,,3,,,,65,64
43280,note_off,80,0,5,,,,,,,,2,,,,77,64
43280,note_off,80,0,4,,,,,,,,1,,,,77,64
43315,note_off,235,0,8,,,,,,,,5,,,,49,64
43315,note_off,235,0,13,,,,,,,,11,,,,49,64
43320,note_on,5,0,13,,,,,,,,11,,,,48,45
43320,note_on,80,0,11,,,,,,,,8,,,,67,45
43320,note_on,6800,0,14,,,,,,,,12,,,,48,45
43320,note_on,5,0,8,,,,,,,,5,,,,48,45
43320,note_on,6800,0,9,,,,,,,,6,,,,48,45
43320,note_on,40,0,4,,,,,,,,1,,,,72,60
43320,note_on,80,0,6,,,,,,,,3,,,,67,45
43320,note_on,7200,0,7,,,,,,,,4,,,,64,45
43320,note_on,6800,0,15,,,,,,,,13,,,,36,45
43320,note_on,6800,0,10,,,,,,,,7,,,,36,45
43320,note_on,40,0,5,,,,,,,,2,,,,72,45
43320,note_on,9520,0,12,,,,,,,,10,,,,64,45
43555,note_off,235,0,11,,,,,,,,8,,,,67,64
43555,note_off,235,0,6,,,,,,,,3,,,,67,64
43555,note_off,235,0,7,,,,,,,,4,,,,64,64
43555,note_off,235,0,12,,,,,,,,10,,,,64,64
43560,note_on,5,0,7,,,,,,,,4,,,,76,45
43560,note_on,5,0,12,,,,,,,,10,,,,76,45
43560,note_on,5,0,6,,,,,,,,3,,,,79,45
43560,note_on,5,0,11,,,,,,,,8,,,,79,45
43720,note_off,400,0,4,,,,,,,,1,,,,72,64
43720,note_off,400,0,8,,,,,,,,5,,,,48,64
43720,note_off,400,0,13,,,,,,,,11,,,,48,64
43720,note_off,400,0,5,,,,,,,,2,,,,72,64
43795,note_off,235,0,6,,,,,,,,3,,,,79,64
43795,note_off,235,0,11,,,,,,,,8,,,,79,64
43795,note_off,235,0,7,,,,,,,,4,,,,76,64
43795,note_off,235,0,12,,,,,,,,10,,,,76,64
43800,note_on,5,0,6,,,,,,,,3,,,,79,45
43800,note_on,5,0,11,,,,,,,,8,,,,79,45
43800,note_on,5,0,7,,,,,,,,4,,,,76,45
43800,note_on,5,0,12,,,,,,,,10,,,,76,45
44035,note_off,235,0,6,,,,,,,,3,,,,79,64
44035,note_off,235,0,12,,,,,,,,10,,,,76,64
44035,note_off,235,0,7,,,,,,,,4,,,,76,64
44035,note_off,235,0,11,,,,,,,,8,,,,79,64
44040,note_on,0,0,10,,,,,,,,7,,,,36,45
44040,note_on,0,0,9,,,,,,,,6,,,,48,45
44040,note_on,0,0,15,,,,,,,,13,,,,36,45
44040,set_tempo,30840,1,0,882352,,,,,,,,,,,,
44040,note_off,720,0,15,,,,,,,,13,,,,36,64
44040,note_on,0,0,14,,,,,,,,12,,,,48,45
44040,note_off,720,0,14,,,,,,,,12,,,,48,64
44040,note_off,720,0,10,,,,,,,,7,,,,36,64
44040,note_off,720,0,9,,,,,,,,6,,,,48,64
44040,note_on,5,0,11,,,,,,,,8,,,,80,45
44040,note_on,320,0,4,,,,,,,,1,,,,89,75
44040,note_on,5,0,6,,,,,,,,3,,,,80,45
44040,note_on,5,0,12,,,,,,,,10,,,,77,45
44040,note_on,5,0,7,,,,,,,,4,,,,77,45
44040,note_on,320,0,5,,,,,,,,2,,,,89,60
44120,note_off,80,0,4,,,,,,,,1,,,,89,64
44120,note_off,80,0,5,,,,,,,,2,,,,89,64
44160,note_on,40,0,4,,,,,,,,1,,,,87,75
44160,note_on,40,0,5,,,,,,,,2,,,,87,60
44160,set_tempo,120,1,0,612244,,,,,,,,,,,,
44240,note_off,80,0,5,,,,,,,,2,,,,87,64
44240,note_off,80,0,4,,,,,,,,1,,,,87,64
44275,note_off,235,0,6,,,,,,,,3,,,,80,64
44275,note_off,235,0,7,,,,,,,,4,,,,77,64
44275,note_off,235,0,12,,,,,,,,10,,,,77,64
44275,note_off,235,0,11,,,,,,,,8,,,,80,64
44280,note_on,40,0,5,,,,,,,,2,,,,85,60
44280,note_on,40,0,4,,,,,,,,1,,,,85,75
44280,note_on,5,0,12,,,,,,,,10,,,,77,45
44280,note_on,5,0,7,,,,,,,,4,,,,77,45
44280,note_on,5,0,11,,,,,,,,8,,,,80,45
44280,note_on,5,0,6,,,,,,,,3,,,,80,45
44360,note_off,80,0,4,,,,,,,,1,,,,85,64
44360,note_off,80,0,5,,,,,,,,2,,,,85,64
44400,note_on,40,0,4,,,,,,,,1,,,,84,75
44400,note_on,40,0,5,,,,,,,,2,,,,84,60
44480,note_off,80,0,4,,,,,,,,1,,,,84,64
44480,note_off,80,0,5,,,,,,,,2,,,,84,64
44515,note_off,235,0,11,,,,,,,,8,,,,80,64
44515,note_off,235,0,12,,,,,,,,10,,,,77,64
44515,note_off,235,0,6,,,,,,,,3,,,,80,64
44515,note_off,235,0,7,,,,,,,,4,,,,77,64
44520,note_on,40,0,5,,,,,,,,2,,,,82,60
44520,note_on,5,0,7,,,,,,,,4,,,,77,45
44520,note_on,5,0,12,,,,,,,,10,,,,77,45
44520,note_on,40,0,4,,,,,,,,1,,,,82,75
44520,note_on,5,0,6,,,,,,,,3,,,,80,45
44520,note_on,5,0,11,,,,,,,,8,,,,80,45
44600,note_off,80,0,4,,,,,,,,1,,,,82,64
44600,note_off,80,0,5,,,,,,,,2,,,,82,64
44640,note_on,40,0,5,,,,,,,,2,,,,80,60
44640,note_on,40,0,4,,,,,,,,1,,,,80,75
44720,note_off,80,0,5,,,,,,,,2,,,,80,64
44720,note_off,80,0,4,,,,,,,,1,,,,80,64
44755,note_off,235,0,11,,,,,,,,8,,,,80,64
44755,note_off,235,0,6,,,,,,,,3,,,,80,64
44755,note_off,235,0,7,,,,,,,,4,,,,77,64
44755,note_off,235,0,12,,,,,,,,10,,,,77,64
44760,note_off,720,0,9,,,,,,,,6,,,,48,64
44760,note_on,40,0,5,,,,,,,,2,,,,79,60
44760,note_on,40,0,4,,,,,,,,1,,,,79,75
44760,note_on,5,0,7,,,,,,,,4,,,,76,45
44760,note_on,5,0,6,,,,,,,,3,,,,79,45
44760,note_on,5,0,11,,,,,,,,8,,,,79,45
44760,note_off,720,0,10,,,,,,,,7,,,,36,64
44760,note_on,0,0,15,,,,,,,,13,,,,36,45
44760,note_on,5,0,12,,,,,,,,10,,,,76,45
44760,note_off,720,0,15,,,,,,,,13,,,,36,64
44760,note_off,720,0,14,,,,,,,,12,,,,48,64
44760,note_on,0,0,9,,,,,,,,6,,,,48,45
44760,note_on,0,0,10,,,,,,,,7,,,,36,45
44760,note_on,0,0,14,,,,,,,,12,,,,48,45
44840,note_off,80,0,5,,,,,,,,2,,,,79,64
44840,note_off,80,0,4,,,,,,,,1,,,,79,64
44880,note_on,40,0,4,,,,,,,,1,,,,77,75
44880,note_on,40,0,5,,,,,,,,2,,,,77,60
44960,note_off,80,0,5,,,,,,,,2,,,,77,64
44960,note_off,80,0,4,,,,,,,,1,,,,77,64
44995,note_off,235,0,11,,,,,,,,8,,,,79,64
44995,note_off,235,0,6,,,,,,,,3,,,,79,64
44995,note_off,235,0,12,,,,,,,,10,,,,76,64
44995,note_off,235,0,7,,,,,,,,4,,,,76,64
45000,note_on,40,0,5,,,,,,,,2,,,,79,60
45000,note_on,5,0,6,,,,,,,,3,,,,79,45
45000,note_on,40,0,4,,,,,,,,1,,,,79,75
45000,note_on,5,0,7,,,,,,,,4,,,,76,45
45000,note_on,5,0,12,,,,,,,,10,,,,76,45
45000,note_on,5,0,11,,,,,,,,8,,,,79,45
45080,note_off,80,0,4,,,,,,,,1,,,,79,64
45080,note_off,80,0,5,,,,,,,,2,,,,79,64
45120,note_on,40,0,5,,,,,,,,2,,,,80,60
45120,note_on,40,0,4,,,,,,,,1,,,,80,75
45200,note_off,80,0,5,,,,,,,,2,,,,80,64
45200,note_off,80,0,4,,,,,,,,1,,,,80,64
45235,note_off,235,0,11,,,,,,,,8,,,,79,64
45235,note_off,235,0,6,,,,,,,,3,,,,79,64
45235,note_off,235,0,7,,,,,,,,4,,,,76,64
45235,note_off,235,0,12,,,,,,,,10,,,,76,64
45240,note_on,5,0,11,,,,,,,,8,,,,79,45
45240,note_on,5,0,7,,,,,,,,4,,,,76,45
45240,note_on,40,0,4,,,,,,,,1,,,,82,75
45240,note_on,5,0,12,,,,,,,,10,,,,76,45
45240,note_on,40,0,5,,,,,,,,2,,,,82,60
45240,note_on,5,0,6,,,,,,,,3,,,,79,45
45320,note_off,80,0,5,,,,,,,,2,,,,82,64
45320,note_off,80,0,4,,,,,,,,1,,,,82,64
45360,note_on,40,0,5,,,,,,,,2,,,,79,60
45360,note_on,40,0,4,,,,,,,,1,,,,79,75
45440,note_off,80,0,5,,,,,,,,2,,,,79,64
45440,note_off,80,0,4,,,,,,,,1,,,,79,64
45475,note_off,235,0,12,,,,,,,,10,,,,76,64
45475,note_off,235,0,11,,,,,,,,8,,,,79,64
45475,note_off,235,0,7,,,,,,,,4,,,,76,64
45475,note_off,235,0,6,,,,,,,,3,,,,79,64
45480,note_on,40,0,4,,,,,,,,1,,,,87,75
45480,note_off,720,0,9,,,,,,,,6,,,,48,64
45480,set_tempo,1320,1,0,882352,,,,,,,,,,,,
45480,note_on,0,0,9,,,,,,,,6,,,,48,45
45480,note_off,720,0,15,,,,,,,,13,,,,36,64
45480,note_off,720,0,10,,,,,,,,7,,,,36,64
45480,note_on,0,0,10,,,,,,,,7,,,,36,45
45480,note_on,5,0,6,,,,,,,,3,,,,79,45
45480,note_on,0,0,15,,,,,,,,13,,,,36,45
45480,note_on,5,0,12,,,,,,,,10,,,,75,45
45480,note_on,0,0,14,,,,,,,,12,,,,48,45
45480,note_off,720,0,14,,,,,,,,12,,,,48,64
45480,note_on,40,0,5,,,,,,,,2,,,,87,60
45480,note_on,5,0,7,,,,,,,,4,,,,75,45
45480,note_on,5,0,11,,,,,,,,8,,,,79,45
45560,note_off,80,0,4,,,,,,,,1,,,,87,64
45560,note_off,80,0,5,,,,,,,,2,,,,87,64
45600,note_on,40,0,4,,,,,,,,1,,,,85,75
45600,set_tempo,120,1,0,612244,,,,,,,,,,,,
45600,note_on,40,0,5,,,,,,,,2,,,,85,60
45680,note_off,80,0,4,,,,,,,,1,,,,85,64
45680,note_off,80,0,5,,,,,,,,2,,,,85,64
45715,note_off,235,0,7,,,,,,,,4,,,,75,64
45715,note_off,235,0,11,,,,,,,,8,,,,79,64
45715,note_off,235,0,12,,,,,,,,10,,,,75,64
45715,note_off,235,0,6,,,,,,,,3,,,,79,64
45720,note_on,5,0,7,,,,,,,,4,,,,75,45
45720,note_on,5,0,6,,,,,,,,3,,,,79,45
45720,note_on,5,0,11,,,,,,,,8,,,,79,45
45720,note_on,5,0,12,,,,,,,,10,,,,75,45
45720,note_on,40,0,4,,,,,,,,1,,,,84,75
45720,note_on,40,0,5,,,,,,,,2,,,,84,60
45800,note_off,80,0,4,,,,,,,,1,,,,84,64
45800,note_off,80,0,5,,,,,,,,2,,,,84,64
45840,note_on,40,0,4,,,,,,,,1,,,,82,75
45840,note_on,40,0,5,,,,,,,,2,,,,82,60
45920,note_off,80,0,5,,,,,,,,2,,,,82,64
45920,note_off,80,0,4,,,,,,,,1,,,,82,64
45955,note_off,235,0,7,,,,,,,,4,,,,75,64
45955,note_off,235,0,11,,,,,,,,8,,,,79,64
45955,note_off,235,0,12,,,,,,,,10,,,,75,64
45955,note_off,235,0,6,,,,,,,,3,,,,79,64
45960,note_on,5,0,12,,,,,,,,10,,,,75,45
45960,note_on,40,0,4,,,,,,,,1,,,,80,75
45960,note_on,40,0,5,,,,,,,,2,,,,80,60
45960,note_on,5,0,7,,,,,,,,4,,,,75,45
45960,note_on,5,0,11,,,,,,,,8,,,,79,45
45960,note_on,5,0,6,,,,,,,,3,,,,79,45
46040,note_off,80,0,4,,,,,,,,1,,,,80,64
46040,note_off,80,0,5,,,,,,,,2,,,,80,64
46080,note_on,40,0,5,,,,,,,,2,,,,79,60
46080,note_on,40,0,4,,,,,,,,1,,,,79,75
46160,note_off,80,0,4,,,,,,,,1,,,,79,64
46160,note_off,80,0,5,,,,,,,,2,,,,79,64
46195,note_off,235,0,6,,,,,,,,3,,,,79,64
46195,note_off,235,0,12,,,,,,,,10,,,,75,64
46195,note_off,235,0,7,,,,,,,,4,,,,75,64
46195,note_off,235,0,11,,,,,,,,8,,,,79,64
46200,note_on,5,0,11,,,,,,,,8,,,,77,45
46200,note_on,0,0,15,,,,,,,,13,,,,36,45
46200,note_on,5,0,6,,,,,,,,3,,,,77,45
46200,note_on,0,0,9,,,,,,,,6,,,,48,45
46200,note_off,720,0,9,,,,,,,,6,,,,48,64
46200,note_on,0,0,14,,,,,,,,12,,,,48,45
46200,note_off,720,0,14,,,,,,,,12,,,,48,64
46200,note_off,720,0,15,,,,,,,,13,,,,36,64
46200,note_on,5,0,7,,,,,,,,4,,,,74,45
46200,note_on,0,0,10,,,,,,,,7,,,,36,45
46200,note_off,720,0,10,,,,,,,,7,,,,36,64
46200,note_on,40,0,5,,,,,,,,2,,,,77,60
46200,note_on,5,0,12,,,,,,,,10,,,,74,45
46200,note_on,40,0,4,,,,,,,,1,,,,77,75
46280,note_off,80,0,5,,,,,,,,2,,,,77,64
46280,note_off,80,0,4,,,,,,,,1,,,,77,64
46320,note_on,40,0,4,,,,,,,,1,,,,76,75
46320,note_on,40,0,5,,,,,,,,2,,,,76,60
46400,note_off,80,0,5,,,,,,,,2,,,,76,64
46400,note_off,80,0,4,,,,,,,,1,,,,76,64
46435,note_off,235,0,11,,,,,,,,8,,,,77,64
46435,note_off,235,0,7,,,,,,,,4,,,,74,64
46435,note_off,235,0,6,,,,,,,,3,,,,77,64
46435,note_off,235,0,12,,,,,,,,10,,,,74,64
46440,note_on,5,0,6,,,,,,,,3,,,,77,45
46440,note_on,5,0,12,,,,,,,,10,,,,74,45
46440,note_on,5,0,7,,,,,,,,4,,,,74,45
46440,note_on,40,0,5,,,,,,,,2,,,,77,60
46440,note_on,40,0,4,,,,,,,,1,,,,77,75
46440,note_on,5,0,11,,,,,,,,8,,,,77,45
46520,note_off,80,0,4,,,,,,,,1,,,,77,64
46520,note_off,80,0,5,,,,,,,,2,,,,77,64
46560,note_on,40,0,5,,,,,,,,2,,,,79,60
46560,note_on,40,0,4,,,,,,,,1,,,,79,75
46640,note_off,80,0,4,,,,,,,,1,,,,79,64
46640,note_off,80,0,5,,,,,,,,2,,,,79,64
46675,note_off,235,0,6,,,,,,,,3,,,,77,64
46675,note_off,235,0,11,,,,,,,,8,,,,77,64
46675,note_off,235,0,12,,,,,,,,10,,,,74,64
46675,note_off,235,0,7,,,,,,,,4,,,,74,64
46680,note_on,5,0,11,,,,,,,,8,,,,77,45
46680,note_on,40,0,5,,,,,,,,2,,,,80,60
46680,note_on,5,0,6,,,,,,,,3,,,,77,45
46680,note_on,5,0,12,,,,,,,,10,,,,74,45
46680,note_on,5,0,7,,,,,,,,4,,,,74,45
46680,note_on,40,0,4,,,,,,,,1,,,,80,75
46760,note_off,80,0,5,,,,,,,,2,,,,80,64
46760,note_off,80,0,4,,,,,,,,1,,,,80,64
46800,note_on,40,0,4,,,,,,,,1,,,,77,75
46800,note_on,40,0,5,,,,,,,,2,,,,77,60
46880,note_off,80,0,4,,,,,,,,1,,,,77,64
46880,note_off,80,0,5,,,,,,,,2,,,,77,64
46915,note_off,235,0,6,,,,,,,,3,,,,77,64
46915,note_off,235,0,7,,,,,,,,4,,,,74,64
46915,note_off,235,0,12,,,,,,,,10,,,,74,64
46915,note_off,235,0,11,,,,,,,,8,,,,77,64
46920,note_on,5,0,11,,,,,,,,8,,,,77,45
46920,note_on,5,0,7,,,,,,,,4,,,,73,45
46920,note_on,0,0,15,,,,,,,,13,,,,36,45
46920,note_on,0,0,10,,,,,,,,7,,,,36,45
46920,note_on,40,0,5,,,,,,,,2,,,,85,60
46920,note_on,0,0,14,,,,,,,,12,,,,48,45
46920,note_on,5,0,6,,,,,,,,3,,,,77,45
46920,note_off,720,0,14,,,,,,,,12,,,,48,64
46920,note_off,720,0,15,,,,,,,,13,,,,36,64
46920,note_off,720,0,10,,,,,,,,7,,,,36,64
46920,note_on,0,0,9,,,,,,,,6,,,,48,45
46920,note_off,720,0,9,,,,,,,,6,,,,48,64
46920,note_on,40,0,4,,,,,,,,1,,,,85,75
46920,note_on,5,0,12,,,,,,,,10,,,,73,45
46920,set_tempo,1320,1,0,882352,,,,,,,,,,,,
47000,note_off,80,0,5,,,,,,,,2,,,,85,64
47000,note_off,80,0,4,,,,,,,,1,,,,85,64
47040,note_on,40,0,5,,,,,,,,2,,,,84,60
47040,set_tempo,120,1,0,612244,,,,,,,,,,,,
47040,note_on,40,0,4,,,,,,,,1,,,,84,75
47120,note_off,80,0,5,,,,,,,,2,,,,84,64
47120,note_off,80,0,4,,,,,,,,1,,,,84,64
47155,note_off,235,0,7,,,,,,,,4,,,,73,64
47155,note_off,235,0,6,,,,,,,,3,,,,77,64
47155,note_off,235,0,11,,,,,,,,8,,,,77,64
47155,note_off,235,0,12,,,,,,,,10,,,,73,64
47160,note_on,5,0,6,,,,,,,,3,,,,77,45
47160,note_on,40,0,5,,,,,,,,2,,,,82,60
47160,note_on,5,0,7,,,,,,,,4,,,,73,45
47160,note_on,5,0,11,,,,,,,,8,,,,77,45
47160,note_on,40,0,4,,,,,,,,1,,,,82,75
47160,note_on,5,0,12,,,,,,,,10,,,,73,45
47240,note_off,80,0,5,,,,,,,,2,,,,82,64
47240,note_off,80,0,4,,,,,,,,1,,,,82,64
47280,note_on,40,0,5,,,,,,,,2,,,,80,60
47280,note_on,40,0,4,,,,,,,,1,,,,80,75
47360,note_off,80,0,5,,,,,,,,2,,,,80,64
47360,note_off,80,0,4,,,,,,,,1,,,,80,64
47395,note_off,235,0,11,,,,,,,,8,,,,77,64
47395,note_off,235,0,7,,,,,,,,4,,,,73,64
47395,note_off,235,0,6,,,,,,,,3,,,,77,64
47395,note_off,235,0,12,,,,,,,,10,,,,73,64
47400,note_on,5,0,12,,,,,,,,10,,,,73,45
47400,note_on,5,0,6,,,,,,,,3,,,,77,45
47400,note_on,5,0,7,,,,,,,,4,,,,73,45
47400,note_on,40,0,4,,,,,,,,1,,,,79,75
47400,note_on,40,0,5,,,,,,,,2,,,,79,60
47400,note_on,5,0,11,,,,,,,,8,,,,77,45
47480,note_off,80,0,4,,,,,,,,1,,,,79,64
47480,note_off,80,0,5,,,,,,,,2,,,,79,64
47520,note_on,40,0,4,,,,,,,,1,,,,77,75
47520,note_on,40,0,5,,,,,,,,2,,,,77,60
47600,note_off,80,0,4,,,,,,,,1,,,,77,64
47600,note_off,80,0,5,,,,,,,,2,,,,77,64
47635,note_off,235,0,12,,,,,,,,10,,,,73,64
47635,note_off,235,0,6,,,,,,,,3,,,,77,64
47635,note_off,235,0,11,,,,,,,,8,,,,77,64
47635,note_off,235,0,7,,,,,,,,4,,,,73,64
47640,note_on,40,0,5,,,,,,,,2,,,,75,60
47640,note_on,5,0,12,,,,,,,,10,,,,72,45
47640,note_off,720,0,14,,,,,,,,12,,,,48,64
47640,note_on,40,0,4,,,,,,,,1,,,,75,75
47640,note_on,5,0,6,,,,,,,,3,,,,75,45
47640,note_on,5,0,11,,,,,,,,8,,,,75,45
47640,note_off,720,0,15,,,,,,,,13,,,,36,64
47640,note_on,0,0,14,,,,,,,,12,,,,48,45
47640,note_on,0,0,9,,,,,,,,6,,,,48,45
47640,note_off,720,0,9,,,,,,,,6,,,,48,64
47640,note_on,5,0,7,,,,,,,,4,,,,72,45
47640,note_on,0,0,15,,,,,,,,13,,,,36,45
47640,note_off,720,0,10,,,,,,,,7,,,,36,64
47640,note_on,0,0,10,,,,,,,,7,,,,36,45
47720,note_off,80,0,4,,,,,,,,1,,,,75,64
47720,note_off,80,0,5,,,,,,,,2,,,,75,64
47760,note_on,40,0,5,,,,,,,,2,,,,74,60
47760,note_on,40,0,4,,,,,,,,1,,,,74,75
47840,note_off,80,0,4,,,,,,,,1,,,,74,64
47840,note_off,80,0,5,,,,,,,,2,,,,74,64
47875,note_off,235,0,6,,,,,,,,3,,,,75,64
47875,note_off,235,0,7,,,,,,,,4,,,,72,64
47875,note_off,235,0,12,,,,,,,,10,,,,72,64
47875,note_off,235,0,11,,,,,,,,8,,,,75,64
47880,note_on,40,0,5,,,,,,,,2,,,,75,60
47880,note_on,5,0,6,,,,,,,,3,,,,75,45
47880,note_on,40,0,4,,,,,,,,1,,,,75,75
47880,note_on,5,0,7,,,,,,,,4,,,,72,45
47880,note_on,5,0,12,,,,,,,,10,,,,72,45
47880,note_on,5,0,11,,,,,,,,8,,,,75,45
47960,note_off,80,0,5,,,,,,,,2,,,,75,64
47960,note_off,80,0,4,,,,,,,,1,,,,75,64
48000,note_on,40,0,4,,,,,,,,1,,,,77,75
48000,note_on,40,0,5,,,,,,,,2,,,,77,60
48080,note_off,80,0,5,,,,,,,,2,,,,77,64
48080,note_off,80,0,4,,,,,,,,1,,,,77,64
48115,note_off,235,0,7,,,,,,,,4,,,,72,64
48115,note_off,235,0,6,,,,,,,,3,,,,75,64
48115,note_off,235,0,11,,,,,,,,8,,,,75,64
48115,note_off,235,0,12,,,,,,,,10,,,,72,64
48120,note_on,5,0,11,,,,,,,,8,,,,75,45
48120,note_on,5,0,7,,,,,,,,4,,,,72,45
48120,note_on,5,0,6,,,,,,,,3,,,,75,45
48120,note_on,5,0,12,,,,,,,,10,,,,72,45
48120,note_on,40,0,4,,,,,,,,1,,,,79,75
48120,note_on,40,0,5,,,,,,,,2,,,,79,60
48200,note_off,80,0,4,,,,,,,,1,,,,79,64
48200,note_off,80,0,5,,,,,,,,2,,,,79,64
48240,note_on,40,0,4,,,,,,,,1,,,,75,75
48240,note_on,40,0,5,,,,,,,,2,,,,75,60
48320,note_off,80,0,4,,,,,,,,1,,,,75,64
48320,note_off,80,0,5,,,,,,,,2,,,,75,64
48355,note_off,235,0,11,,,,,,,,8,,,,75,64
48355,note_off,235,0,12,,,,,,,,10,,,,72,64
48355,note_off,235,0,7,,,,,,,,4,,,,72,64
48355,note_off,235,0,6,,,,,,,,3,,,,75,64
48360,note_off,720,0,15,,,,,,,,13,,,,36,64
48360,set_tempo,1320,1,0,882352,,,,,,,,,,,,
48360,note_on,40,0,5,,,,,,,,2,,,,84,60
48360,note_on,5,0,12,,,,,,,,10,,,,72,45
48360,note_on,0,0,15,,,,,,,,13,,,,36,45
48360,note_on,5,0,11,,,,,,,,8,,,,75,45
48360,note_on,40,0,4,,,,,,,,1,,,,84,75
48360,note_off,720,0,10,,,,,,,,7,,,,36,64
48360,note_off,720,0,9,,,,,,,,6,,,,48,64
48360,note_on,0,0,9,,,,,,,,6,,,,48,45
48360,note_on,5,0,6,,,,,,,,3,,,,75,45
48360,note_on,0,0,10,,,,,,,,7,,,,36,45
48360,note_on,5,0,7,,,,,,,,4,,,,72,45
48360,note_on,0,0,14,,,,,,,,12,,,,48,45
48360,note_off,720,0,14,,,,,,,,12,,,,48,64
48440,note_off,80,0,4,,,,,,,,1,,,,84,64
48440,note_off,80,0,5,,,,,,,,2,,,,84,64
48480,note_on,40,0,5,,,,,,,,2,,,,82,60
48480,note_on,40,0,4,,,,,,,,1,,,,82,75
48480,set_tempo,120,1,0,612244,,,,,,,,,,,,
48560,note_off,80,0,5,,,,,,,,2,,,,82,64
48560,note_off,80,0,4,,,,,,,,1,,,,82,64
48595,note_off,235,0,11,,,,,,,,8,,,,75,64
48595,note_off,235,0,6,,,,,,,,3,,,,75,64
48595,note_off,235,0,7,,,,,,,,4,,,,72,64
48595,note_off,235,0,12,,,,,,,,10,,,,72,64
48600,note_on,5,0,11,,,,,,,,8,,,,75,47
48600,note_on,5,0,6,,,,,,,,3,,,,75,47
48600,note_on,40,0,5,,,,,,,,2,,,,80,60
48600,note_on,40,0,4,,,,,,,,1,,,,80,75
48600,note_on,5,0,7,,,,,,,,4,,,,72,47
48600,note_on,5,0,12,,,,,,,,10,,,,72,47
48680,note_off,80,0,4,,,,,,,,1,,,,80,64
48680,note_off,80,0,5,,,,,,,,2,,,,80,64
48720,note_on,40,0,4,,,,,,,,1,,,,79,75
48720,note_on,40,0,5,,,,,,,,2,,,,79,60
48800,note_off,80,0,4,,,,,,,,1,,,,79,64
48800,note_off,80,0,5,,,,,,,,2,,,,79,64
48835,note_off,235,0,12,,,,,,,,10,,,,72,64
48835,note_off,235,0,6,,,,,,,,3,,,,75,64
48835,note_off,235,0,7,,,,,,,,4,,,,72,64
48835,note_off,235,0,11,,,,,,,,8,,,,75,64
48840,note_on,5,0,12,,,,,,,,10,,,,72,49
48840,note_on,5,0,6,,,,,,,,3,,,,75,49
48840,note_on,40,0,4,,,,,,,,1,,,,77,75
48840,note_on,40,0,5,,,,,,,,2,,,,77,60
48840,note_on,5,0,11,,,,,,,,8,,,,75,49
48840,note_on,5,0,7,,,,,,,,4,,,,72,49
48920,note_off,80,0,4,,,,,,,,1,,,,77,64
48920,note_off,80,0,5,,,,,,,,2,,,,77,64
48960,note_on,40,0,5,,,,,,,,2,,,,75,60
48960,note_on,40,0,4,,,,,,,,1,,,,75,75
49040,note_off,80,0,4,,,,,,,,1,,,,75,64
49040,note_off,80,0,5,,,,,,,,2,,,,75,64
49075,note_off,235,0,11,,,,,,,,8,,,,75,64
49075,note_off,235,0,6,,,,,,,,3,,,,75,64
49075,note_off,235,0,7,,,,,,,,4,,,,72,64
49075,note_off,235,0,12,,,,,,,,10,,,,72,64
49080,note_on,5,0,7,,,,,,,,4,,,,71,51
49080,note_on,5,0,6,,,,,,,,3,,,,74,51
49080,note_on,5,0,12,,,,,,,,10,,,,71,51
49080,note_on,5,0,11,,,,,,,,8,,,,74,51
49080,note_off,720,0,9,,,,,,,,6,,,,48,64
49080,note_on,0,0,14,,,,,,,,12,,,,48,51
49080,note_on,40,0,4,,,,,,,,1,,,,74,75
49080,note_off,720,0,14,,,,,,,,12,,,,48,64
49080,note_on,0,0,9,,,,,,,,6,,,,48,51
49080,note_on,0,0,10,,,,,,,,7,,,,36,52
49080,note_off,720,0,10,,,,,,,,7,,,,36,64
49080,note_on,0,0,15,,,,,,,,13,,,,36,47
49080,note_off,720,0,15,,,,,,,,13,,,,36,64
49080,note_on,40,0,5,,,,,,,,2,,,,74,60
49160,note_off,80,0,5,,,,,,,,2,,,,74,64
49160,note_off,80,0,4,,,,,,,,1,,,,74,64
49200,note_on,40,0,5,,,,,,,,2,,,,72,60
49200,note_on,40,0,4,,,,,,,,1,,,,72,75
49280,note_off,80,0,4,,,,,,,,1,,,,72,64
49280,note_off,80,0,5,,,,,,,,2,,,,72,64
49315,note_off,235,0,7,,,,,,,,4,,,,71,64
49315,note_off,235,0,11,,,,,,,,8,,,,74,64
49315,note_off,235,0,12,,,,,,,,10,,,,71,64
49315,note_off,235,0,6,,,,,,,,3,,,,74,64
49320,note_on,5,0,11,,,,,,,,8,,,,74,53
49320,note_on,5,0,12,,,,,,,,10,,,,71,53
49320,note_on,5,0,6,,,,,,,,3,,,,74,53
49320,note_on,40,0,4,,,,,,,,1,,,,74,75
49320,note_on,5,0,7,,,,,,,,4,,,,71,53
49320,note_on,40,0,5,,,,,,,,2,,,,74,60
49400,note_off,80,0,5,,,,,,,,2,,,,74,64
49400,note_off,80,0,4,,,,,,,,1,,,,74,64
49440,note_on,40,0,4,,,,,,,,1,,,,75,75
49440,note_on,40,0,5,,,,,,,,2,,,,75,60
49520,note_off,80,0,4,,,,,,,,1,,,,75,64
49520,note_off,80,0,5,,,,,,,,2,,,,75,64
49555,note_off,235,0,7,,,,,,,,4,,,,71,64
49555,note_off,235,0,12,,,,,,,,10,,,,71,64
49555,note_off,235,0,6,,,,,,,,3,,,,74,64
49555,note_off,235,0,11,,,,,,,,8,,,,74,64
49560,note_on,5,0,12,,,,,,,,10,,,,71,55
49560,note_on,5,0,6,,,,,,,,3,,,,74,55
49560,note_on,5,0,7,,,,,,,,4,,,,71,55
49560,note_on,40,0,4,,,,,,,,1,,,,77,75
49560,note_on,40,0,5,,,,,,,,2,,,,77,60
49560,note_on,5,0,11,,,,,,,,8,,,,74,55
49640,note_off,80,0,4,,,,,,,,1,,,,77,64
49640,note_off,80,0,5,,,,,,,,2,,,,77,64
49680,note_on,40,0,4,,,,,,,,1,,,,74,75
49680,note_on,40,0,5,,,,,,,,2,,,,74,60
49760,note_off,80,0,4,,,,,,,,1,,,,74,64
49760,note_off,80,0,5,,,,,,,,2,,,,74,64
49795,note_off,235,0,11,,,,,,,,8,,,,74,64
49795,note_off,235,0,12,,,,,,,,10,,,,71,64
49795,note_off,235,0,7,,,,,,,,4,,,,71,64
49795,note_off,235,0,6,,,,,,,,3,,,,74,64
49800,note_on,0,0,9,,,,,,,,6,,,,48,57
49800,note_off,720,0,9,,,,,,,,6,,,,48,64
49800,note_on,5,0,7,,,,,,,,4,,,,70,57
49800,note_on,40,0,4,,,,,,,,1,,,,82,75
49800,note_on,0,0,14,,,,,,,,12,,,,48,57
49800,note_on,0,0,10,,,,,,,,7,,,,36,59
49800,note_on,40,0,5,,,,,,,,2,,,,82,60
49800,note_on,5,0,12,,,,,,,,10,,,,70,57
49800,note_on,0,0,15,,,,,,,,13,,,,36,49
49800,note_off,720,0,10,,,,,,,,7,,,,36,64
49800,note_off,720,0,15,,,,,,,,13,,,,36,64
49800,note_on,5,0,11,,,,,,,,8,,,,74,57
49800,note_on,5,0,6,,,,,,,,3,,,,74,57
49800,set_tempo,1320,1,0,882352,,,,,,,,,,,,
49800,note_off,720,0,14,,,,,,,,12,,,,48,64
49880,note_off,80,0,4,,,,,,,,1,,,,82,64
49880,note_off,80,0,5,,,,,,,,2,,,,82,64
49920,set_tempo,120,1,0,612244,,,,,,,,,,,,
49920,note_on,40,0,5,,,,,,,,2,,,,80,60
49920,note_on,40,0,4,,,,,,,,1,,,,80,75
50000,note_off,80,0,5,,,,,,,,2,,,,80,64
50000,note_off,80,0,4,,,,,,,,1,,,,80,64
50035,note_off,235,0,12,,,,,,,,10,,,,70,64
50035,note_off,235,0,6,,,,,,,,3,,,,74,64
50035,note_off,235,0,11,,,,,,,,8,,,,74,64
50035,note_off,235,0,7,,,,,,,,4,,,,70,64
50040,note_on,5,0,7,,,,,,,,4,,,,70,59
50040,note_on,40,0,5,,,,,,,,2,,,,79,60
50040,note_on,5,0,6,,,,,,,,3,,,,74,59
50040,note_on,40,0,4,,,,,,,,1,,,,79,76
50040,note_on,5,0,11,,,,,,,,8,,,,74,59
50040,note_on,5,0,12,,,,,,,,10,,,,70,59
50120,note_off,80,0,5,,,,,,,,2,,,,79,64
50120,note_off,80,0,4,,,,,,,,1,,,,79,64
50160,note_on,40,0,4,,,,,,,,1,,,,77,77
50160,note_on,40,0,5,,,,,,,,2,,,,77,60
50240,note_off,80,0,4,,,,,,,,1,,,,77,64
50240,note_off,80,0,5,,,,,,,,2,,,,77,64
50275,note_off,235,0,11,,,,,,,,8,,,,74,64
50275,note_off,235,0,6,,,,,,,,3,,,,74,64
50275,note_off,235,0,7,,,,,,,,4,,,,70,64
50275,note_off,235,0,12,,,,,,,,10,,,,70,64
50280,note_on,5,0,6,,,,,,,,3,,,,74,61
50280,note_on,5,0,7,,,,,,,,4,,,,70,61
50280,note_on,5,0,11,,,,,,,,8,,,,74,61
50280,note_on,40,0,5,,,,,,,,2,,,,75,61
50280,note_on,40,0,4,,,,,,,,1,,,,75,78
50280,note_on,5,0,12,,,,,,,,10,,,,70,61
50360,note_off,80,0,5,,,,,,,,2,,,,75,64
50360,note_off,80,0,4,,,,,,,,1,,,,75,64
50400,note_on,40,0,5,,,,,,,,2,,,,74,62
50400,note_on,40,0,4,,,,,,,,1,,,,74,79
50480,note_off,80,0,5,,,,,,,,2,,,,74,64
50480,note_off,80,0,4,,,,,,,,1,,,,74,64
50515,note_off,235,0,7,,,,,,,,4,,,,70,64
50515,note_off,235,0,11,,,,,,,,8,,,,74,64
50515,note_off,235,0,6,,,,,,,,3,,,,74,64
50515,note_off,235,0,12,,,,,,,,10,,,,70,64
50520,note_on,0,0,15,,,,,,,,13,,,,36,51
50520,note_off,720,0,15,,,,,,,,13,,,,36,64
50520,note_off,720,0,9,,,,,,,,6,,,,48,64
50520,note_on,5,0,11,,,,,,,,8,,,,72,63
50520,note_on,40,0,5,,,,,,,,2,,,,72,63
50520,note_on,0,0,9,,,,,,,,6,,,,48,63
50520,note_on,5,0,12,,,,,,,,10,,,,69,63
50520,note_off,720,0,14,,,,,,,,12,,,,48,64
50520,note_on,0,0,14,,,,,,,,12,,,,48,63
50520,note_on,5,0,6,,,,,,,,3,,,,72,63
50520,note_off,720,0,10,,,,,,,,7,,,,36,64
50520,note_on,5,0,7,,,,,,,,4,,,,69,63
50520,note_on,0,0,10,,,,,,,,7,,,,36,67
50520,note_on,40,0,4,,,,,,,,1,,,,72,80
50600,note_off,80,0,4,,,,,,,,1,,,,72,64
50600,note_off,80,0,5,,,,,,,,2,,,,72,64
50640,note_on,40,0,4,,,,,,,,1,,,,71,81
50640,note_on,40,0,5,,,,,,,,2,,,,71,64
50720,note_off,80,0,4,,,,,,,,1,,,,71,64
50720,note_off,80,0,5,,,,,,,,2,,,,71,64
50755,note_off,235,0,7,,,,,,,,4,,,,69,64
50755,note_off,235,0,11,,,,,,,,8,,,,72,64
50755,note_off,235,0,12,,,,,,,,10,,,,69,64
50755,note_off,235,0,6,,,,,,,,3,,,,72,64
50760,note_on,5,0,6,,,,,,,,3,,,,72,65
50760,note_on,40,0,4,,,,,,,,1,,,,72,82
50760,note_on,5,0,11,,,,,,,,8,,,,72,65
50760,note_on,5,0,12,,,,,,,,10,,,,69,65
50760,note_on,5,0,7,,,,,,,,4,,,,69,65
50760,note_on,40,0,5,,,,,,,,2,,,,72,65
50840,note_off,80,0,4,,,,,,,,1,,,,72,64
50840,note_off,80,0,5,,,,,,,,2,,,,72,64
50880,note_on,40,0,5,,,,,,,,2,,,,74,66
50880,note_on,40,0,4,,,,,,,,1,,,,74,83
50960,note_off,80,0,5,,,,,,,,2,,,,74,64
50960,note_off,80,0,4,,,,,,,,1,,,,74,64
50995,note_off,235,0,12,,,,,,,,10,,,,69,64
50995,note_off,235,0,7,,,,,,,,4,,,,69,64
50995,note_off,235,0,6,,,,,,,,3,,,,72,64
50995,note_off,235,0,11,,,,,,,,8,,,,72,64
51000,note_on,5,0,7,,,,,,,,4,,,,69,67
51000,note_on,5,0,11,,,,,,,,8,,,,72,67
51000,note_on,5,0,6,,,,,,,,3,,,,72,67
51000,note_on,40,0,4,,,,,,,,1,,,,75,84
51000,note_on,40,0,5,,,,,,,,2,,,,75,67
51000,note_on,5,0,12,,,,,,,,10,,,,69,67
51080,note_off,80,0,5,,,,,,,,2,,,,75,64
51080,note_off,80,0,4,,,,,,,,1,,,,75,64
51120,note_on,40,0,4,,,,,,,,1,,,,72,85
51120,note_on,40,0,5,,,,,,,,2,,,,72,68
51200,note_off,80,0,5,,,,,,,,2,,,,72,64
51200,note_off,80,0,4,,,,,,,,1,,,,72,64
51235,note_off,235,0,6,,,,,,,,3,,,,72,64
51235,note_off,235,0,12,,,,,,,,10,,,,69,64
51235,note_off,235,0,7,,,,,,,,4,,,,69,64
51235,note_off,235,0,11,,,,,,,,8,,,,72,64
51240,note_on,40,0,4,,,,,,,,1,,,,80,86
51240,note_on,5,0,12,,,,,,,,10,,,,68,69
51240,note_on,5,0,7,,,,,,,,4,,,,68,69
51240,note_on,40,0,5,,,,,,,,2,,,,80,69
51240,note_on,0,0,10,,,,,,,,7,,,,36,75
51240,note_off,720,0,9,,,,,,,,6,,,,48,64
51240,set_tempo,1320,1,0,612244,,,,,,,,,,,,
51240,note_on,0,0,9,,,,,,,,6,,,,48,69
51240,note_off,720,0,10,,,,,,,,7,,,,36,64
51240,note_on,5,0,6,,,,,,,,3,,,,72,69
51240,note_off,720,0,14,,,,,,,,12,,,,48,64
51240,note_on,0,0,14,,,,,,,,12,,,,48,69
51240,note_on,0,0,15,,,,,,,,13,,,,36,53
51240,note_off,720,0,15,,,,,,,,13,,,,36,64
51240,note_on,5,0,11,,,,,,,,8,,,,72,69
51320,note_off,80,0,5,,,,,,,,2,,,,80,64
51320,note_off,80,0,4,,,,,,,,1,,,,80,64
51360,note_on,40,0,4,,,,,,,,1,,,,79,87
51360,note_on,40,0,5,,,,,,,,2,,,,79,70
51440,note_off,80,0,5,,,,,,,,2,,,,79,64
51440,note_off,80,0,4,,,,,,,,1,,,,79,64
51475,note_off,235,0,6,,,,,,,,3,,,,72,64
51475,note_off,235,0,7,,,,,,,,4,,,,68,64
51475,note_off,235,0,12,,,,,,,,10,,,,68,64
51475,note_off,235,0,11,,,,,,,,8,,,,72,64
51480,note_on,40,0,5,,,,,,,,2,,,,77,71
51480,note_on,5,0,6,,,,,,,,3,,,,72,71
51480,note_on,40,0,4,,,,,,,,1,,,,77,88
51480,note_on,5,0,11,,,,,,,,8,,,,72,71
51480,set_tempo,240,1,0,631578,,,,,,,,,,,,
51480,note_on,5,0,12,,,,,,,,10,,,,68,71
51480,note_on,5,0,7,,,,,,,,4,,,,68,71
51560,note_off,80,0,5,,,,,,,,2,,,,77,64
51560,note_off,80,0,4,,,,,,,,1,,,,77,64
51600,note_on,40,0,4,,,,,,,,1,,,,75,89
51600,note_on,40,0,5,,,,,,,,2,,,,75,72
51680,note_off,80,0,4,,,,,,,,1,,,,75,64
51680,note_off,80,0,5,,,,,,,,2,,,,75,64
51715,note_off,235,0,12,,,,,,,,10,,,,68,64
51715,note_off,235,0,6,,,,,,,,3,,,,72,64
51715,note_off,235,0,11,,,,,,,,8,,,,72,64
51715,note_off,235,0,7,,,,,,,,4,,,,68,64
51720,note_on,40,0,5,,,,,,,,2,,,,74,73
51720,note_on,40,0,4,,,,,,,,1,,,,74,90
51720,note_on,5,0,12,,,,,,,,10,,,,68,73
51720,note_on,5,0,7,,,,,,,,4,,,,68,73
51720,note_on,5,0,6,,,,,,,,3,,,,72,73
51720,note_on,5,0,11,,,,,,,,8,,,,72,73
51720,set_tempo,240,1,0,652173,,,,,,,,,,,,
51800,note_off,80,0,4,,,,,,,,1,,,,74,64
51800,note_off,80,0,5,,,,,,,,2,,,,74,64
51840,note_on,40,0,4,,,,,,,,1,,,,72,91
51840,note_on,40,0,5,,,,,,,,2,,,,72,74
51880,note_off,640,0,14,,,,,,,,12,,,,48,64
51880,note_off,640,0,9,,,,,,,,6,,,,48,64
51880,note_off,640,0,15,,,,,,,,13,,,,36,64
51880,note_off,640,0,10,,,,,,,,7,,,,36,64
51920,note_off,80,0,5,,,,,,,,2,,,,72,64
51920,note_off,80,0,4,,,,,,,,1,,,,72,64
51955,note_off,235,0,6,,,,,,,,3,,,,72,64
51955,note_off,235,0,7,,,,,,,,4,,,,68,64
51955,note_off,235,0,11,,,,,,,,8,,,,72,64
51955,note_off,235,0,12,,,,,,,,10,,,,68,64
51960,note_on,80,0,9,,,,,,,,6,,,,43,75
51960,note_on,5,0,7,,,,,,,,4,,,,67,75
51960,note_on,80,0,14,,,,,,,,12,,,,43,75
51960,note_on,5,0,6,,,,,,,,3,,,,71,75
51960,note_on,40,0,4,,,,,,,,1,,,,71,92
51960,note_on,5,0,12,,,,,,,,10,,,,67,75
51960,note_on,40,0,5,,,,,,,,2,,,,71,75
51960,note_on,5,0,11,,,,,,,,8,,,,71,75
52075,note_off,115,0,12,,,,,,,,10,,,,67,64
52075,note_off,115,0,4,,,,,,,,1,,,,71,64
52075,note_off,115,0,5,,,,,,,,2,,,,71,64
52075,note_off,115,0,6,,,,,,,,3,,,,71,64
52075,note_off,115,0,7,,,,,,,,4,,,,67,64
52075,note_off,115,0,11,,,,,,,,8,,,,71,64
52080,note_on,5,0,4,,,,,,,,1,,,,74,92
52080,note_on,5,0,7,,,,,,,,4,,,,67,75
52080,note_on,5,0,12,,,,,,,,10,,,,67,75
52080,note_on,5,0,5,,,,,,,,2,,,,74,75
52080,note_on,5,0,6,,,,,,,,3,,,,67,75
52080,note_on,5,0,11,,,,,,,,8,,,,67,75
52140,note_off,60,0,4,,,,,,,,1,,,,74,64
52140,note_on,0,0,4,,,,,,,,1,,,,72,92
52140,note_on,0,0,5,,,,,,,,2,,,,72,75
52140,note_off,60,0,5,,,,,,,,2,,,,74,64
52195,note_off,115,0,7,,,,,,,,4,,,,67,64
52195,note_off,115,0,12,,,,,,,,10,,,,67,64
52195,note_off,115,0,11,,,,,,,,8,,,,67,64
52195,note_off,115,0,6,,,,,,,,3,,,,67,64
52200,note_on,0,0,12,,,,,,,,10,,,,55,75
52200,program_change,5,0,7,,,,,,,,4,,,51,,
52200,note_on,0,0,7,,,,,,,,4,,,,55,75
52200,note_off,60,0,4,,,,,,,,1,,,,72,64
52200,note_on,0,0,4,,,,,,,,1,,,,71,92
52200,note_off,60,0,5,,,,,,,,2,,,,72,64
52200,note_on,0,0,5,,,,,,,,2,,,,71,75
52200,note_on,5,0,11,,,,,,,,8,,,,55,75
52200,program_change,5,0,12,,,,,,,,10,,,49,,
52200,note_on,5,0,6,,,,,,,,3,,,,55,75
52280,note_off,80,0,6,,,,,,,,3,,,,55,64
52280,note_off,80,0,12,,,,,,,,10,,,,55,64
52280,note_off,80,0,7,,,,,,,,4,,,,55,64
52280,note_off,80,0,11,,,,,,,,8,,,,55,64
52315,note_off,115,0,4,,,,,,,,1,,,,71,64
52315,note_off,115,0,5,,,,,,,,2,,,,71,64
52320,note_on,5,0,4,,,,,,,,1,,,,62,92
52320,note_on,5,0,5,,,,,,,,2,,,,62,75
52400,note_off,80,0,4,,,,,,,,1,,,,62,64
52400,note_off,80,0,5,,,,,,,,2,,,,62,64
52440,note_on,40,0,4,,,,,,,,1,,,,55,92
52440,note_on,40,0,5,,,,,,,,2,,,,55,75
52520,note_off,80,0,5,,,,,,,,2,,,,55,64
52520,note_off,80,0,4,,,,,,,,1,,,,55,64
52560,note_on,8840,0,13,,,,,,,,11,,,,67,75
52560,note_on,8840,0,8,,,,,,,,5,,,,67,75
52560,note_on,40,0,4,,,,,,,,1,,,,71,92
52560,note_on,40,0,5,,,,,,,,2,,,,71,75
52640,note_off,80,0,8,,,,,,,,5,,,,67,64
52640,note_off,80,0,13,,,,,,,,11,,,,67,64
52640,note_off,80,0,5,,,,,,,,2,,,,71,64
52640,note_off,80,0,4,,,,,,,,1,,,,71,64
52680,note_on,40,0,13,,,,,,,,11,,,,55,75
52680,note_on,40,0,8,,,,,,,,5,,,,55,75
52680,note_on,40,0,5,,,,,,,,2,,,,72,75
52680,note_on,40,0,4,,,,,,,,1,,,,72,92
52795,note_off,115,0,5,,,,,,,,2,,,,72,64
52795,note_off,115,0,4,,,,,,,,1,,,,72,64
52800,note_on,520,0,12,,,,,,,,10,,,,67,75
52800,note_on,520,0,11,,,,,,,,8,,,,67,75
52800,note_on,520,0,7,,,,,,,,4,,,,67,75
52800,note_on,520,0,6,,,,,,,,3,,,,67,75
52800,note_on,5,0,4,,,,,,,,1,,,,76,92
52800,note_on,5,0,5,,,,,,,,2,,,,76,75
52860,note_off,60,0,4,,,,,,,,1,,,,76,64
52860,note_on,0,0,4,,,,,,,,1,,,,74,92
52860,note_off,60,0,5,,,,,,,,2,,,,76,64
52860,note_on,0,0,5,,,,,,,,2,,,,74,75
52915,note_off,115,0,11,,,,,,,,8,,,,67,64
52915,note_off,235,0,8,,,,,,,,5,,,,55,64
52915,note_off,115,0,6,,,,,,,,3,,,,67,64
52915,note_off,235,0,13,,,,,,,,11,,,,55,64
52915,note_off,115,0,12,,,,,,,,10,,,,67,64
52915,note_off,115,0,7,,,,,,,,4,,,,67,64
52920,note_on,0,0,4,,,,,,,,1,,,,72,92
52920,note_on,5,0,12,,,,,,,,10,,,,55,75
52920,note_on,5,0,11,,,,,,,,8,,,,55,75
52920,note_on,5,0,7,,,,,,,,4,,,,55,75
52920,note_off,60,0,5,,,,,,,,2,,,,74,64
52920,note_on,0,0,5,,,,,,,,2,,,,72,75
52920,note_on,5,0,6,,,,,,,,3,,,,55,75
52920,note_off,60,0,4,,,,,,,,1,,,,74,64
53000,note_off,80,0,11,,,,,,,,8,,,,55,64
53000,note_off,80,0,7,,,,,,,,4,,,,55,64
53000,note_off,80,0,6,,,,,,,,3,,,,55,64
53000,note_off,80,0,12,,,,,,,,10,,,,55,64
53035,note_off,115,0,5,,,,,,,,2,,,,72,64
53035,note_off,115,0,4,,,,,,,,1,,,,72,64
53040,note_on,5,0,4,,,,,,,,1,,,,62,92
53040,note_on,5,0,5,,,,,,,,2,,,,62,75
53120,note_off,80,0,5,,,,,,,,2,,,,62,64
53120,note_off,80,0,4,,,,,,,,1,,,,62,64
53160,note_on,40,0,5,,,,,,,,2,,,,55,75
53160,note_on,40,0,4,,,,,,,,1,,,,55,92
53240,note_off,80,0,4,,,,,,,,1,,,,55,64
53240,note_off,80,0,5,,,,,,,,2,,,,55,64
53280,note_on,365,0,13,,,,,,,,11,,,,67,75
53280,note_on,365,0,8,,,,,,,,5,,,,67,75
53280,note_on,40,0,4,,,,,,,,1,,,,72,92
53280,note_on,40,0,5,,,,,,,,2,,,,72,75
53360,note_off,80,0,8,,,,,,,,5,,,,67,64
53360,note_off,80,0,4,,,,,,,,1,,,,72,64
53360,note_off,80,0,5,,,,,,,,2,,,,72,64
53360,note_off,80,0,13,,,,,,,,11,,,,67,64
53400,note_on,40,0,8,,,,,,,,5,,,,55,75
53400,note_on,40,0,5,,,,,,,,2,,,,74,75
53400,note_on,40,0,4,,,,,,,,1,,,,74,92
53400,note_on,40,0,13,,,,,,,,11,,,,55,75
53515,note_off,115,0,5,,,,,,,,2,,,,74,64
53515,note_off,115,0,4,,,,,,,,1,,,,74,64
53520,note_on,520,0,11,,,,,,,,8,,,,67,75
53520,note_on,520,0,12,,,,,,,,10,,,,67,75
53520,note_on,5,0,4,,,,,,,,1,,,,77,92
53520,note_on,5,0,5,,,,,,,,2,,,,77,75
53520,note_on,520,0,7,,,,,,,,4,,,,67,75
53520,note_on,520,0,6,,,,,,,,3,,,,67,75
53580,note_on,0,0,5,,,,,,,,2,,,,76,75
53580,note_off,60,0,5,,,,,,,,2,,,,77,64
53580,note_on,0,0,4,,,,,,,,1,,,,76,92
53580,note_off,60,0,4,,,,,,,,1,,,,77,64
53635,note_off,115,0,7,,,,,,,,4,,,,67,64
53635,note_off,235,0,13,,,,,,,,11,,,,55,64
53635,note_off,115,0,11,,,,,,,,8,,,,67,64
53635,note_off,235,0,8,,,,,,,,5,,,,55,64
53635,note_off,115,0,6,,,,,,,,3,,,,67,64
53635,note_off,115,0,12,,,,,,,,10,,,,67,64
53640,note_on,0,0,4,,,,,,,,1,,,,74,92
53640,note_on,5,0,11,,,,,,,,8,,,,55,75
53640,note_off,60,0,4,,,,,,,,1,,,,76,64
53640,note_on,5,0,6,,,,,,,,3,,,,55,75
53640,note_on,5,0,7,,,,,,,,4,,,,55,75
53640,note_on,0,0,5,,,,,,,,2,,,,74,75
53640,note_on,5,0,12,,,,,,,,10,,,,55,75
53640,note_off,60,0,5,,,,,,,,2,,,,76,64
53720,note_off,80,0,11,,,,,,,,8,,,,55,64
53720,note_off,80,0,7,,,,,,,,4,,,,55,64
53720,note_off,80,0,6,,,,,,,,3,,,,55,64
53720,note_off,80,0,12,,,,,,,,10,,,,55,64
53755,note_off,115,0,5,,,,,,,,2,,,,74,64
53755,note_off,115,0,4,,,,,,,,1,,,,74,64
53760,note_on,5,0,5,,,,,,,,2,,,,62,75
53760,note_on,5,0,4,,,,,,,,1,,,,62,92
53840,note_off,80,0,5,,,,,,,,2,,,,62,64
53840,note_off,80,0,4,,,,,,,,1,,,,62,64
53880,note_on,40,0,5,,,,,,,,2,,,,55,75
53880,note_on,40,0,4,,,,,,,,1,,,,55,92
53960,note_off,80,0,5,,,,,,,,2,,,,55,64
53960,note_off,80,0,4,,,,,,,,1,,,,55,64
54000,note_on,40,0,5,,,,,,,,2,,,,74,75
54000,note_on,365,0,8,,,,,,,,5,,,,67,75
54000,note_on,365,0,13,,,,,,,,11,,,,67,75
54000,note_on,40,0,4,,,,,,,,1,,,,74,92
54080,note_off,80,0,13,,,,,,,,11,,,,67,64
54080,note_off,80,0,4,,,,,,,,1,,,,74,64
54080,note_off,80,0,8,,,,,,,,5,,,,67,64
54080,note_off,80,0,5,,,,,,,,2,,,,74,64
54120,note_on,40,0,8,,,,,,,,5,,,,55,75
54120,note_on,40,0,4,,,,,,,,1,,,,75,92
54120,note_on,40,0,13,,,,,,,,11,,,,55,75
54120,note_on,40,0,5,,,,,,,,2,,,,75,75
54235,note_off,115,0,4,,,,,,,,1,,,,75,64
54235,note_off,115,0,5,,,,,,,,2,,,,75,64
54240,note_on,520,0,12,,,,,,,,10,,,,67,75
54240,note_on,5,0,5,,,,,,,,2,,,,79,75
54240,note_on,520,0,6,,,,,,,,3,,,,67,75
54240,note_on,520,0,11,,,,,,,,8,,,,67,75
54240,note_on,520,0,7,,,,,,,,4,,,,67,75
54240,note_on,5,0,4,,,,,,,,1,,,,79,92
54300,note_off,60,0,4,,,,,,,,1,,,,79,64
54300,note_on,0,0,4,,,,,,,,1,,,,77,92
54300,note_off,60,0,5,,,,,,,,2,,,,79,64
54300,note_on,0,0,5,,,,,,,,2,,,,77,75
54355,note_off,115,0,7,,,,,,,,4,,,,67,64
54355,note_off,115,0,11,,,,,,,,8,,,,67,64
54355,note_off,235,0,13,,,,,,,,11,,,,55,64
54355,note_off,115,0,6,,,,,,,,3,,,,67,64
54355,note_off,115,0,12,,,,,,,,10,,,,67,64
54355,note_off,235,0,8,,,,,,,,5,,,,55,64
54360,note_on,5,0,7,,,,,,,,4,,,,55,75
54360,note_on,5,0,6,,,,,,,,3,,,,55,75
54360,note_off,60,0,4,,,,,,,,1,,,,77,64
54360,note_on,0,0,5,,,,,,,,2,,,,75,75
54360,note_off,60,0,5,,,,,,,,2,,,,77,64
54360,note_on,0,0,4,,,,,,,,1,,,,75,92
54360,note_on,5,0,12,,,,,,,,10,,,,55,75
54360,note_on,5,0,11,,,,,,,,8,,,,55,75
54440,note_off,80,0,11,,,,,,,,8,,,,55,64
54440,note_off,80,0,12,,,,,,,,10,,,,55,64
54440,note_off,80,0,7,,,,,,,,4,,,,55,64
54440,note_off,80,0,6,,,,,,,,3,,,,55,64
54475,note_off,115,0,5,,,,,,,,2,,,,75,64
54475,note_off,115,0,4,,,,,,,,1,,,,75,64
54480,note_on,5,0,5,,,,,,,,2,,,,62,75
54480,note_on,5,0,4,,,,,,,,1,,,,62,92
54560,note_off,80,0,4,,,,,,,,1,,,,62,64
54560,note_off,80,0,5,,,,,,,,2,,,,62,64
54600,note_on,40,0,5,,,,,,,,2,,,,55,75
54600,note_on,40,0,4,,,,,,,,1,,,,55,92
54680,note_off,80,0,5,,,,,,,,2,,,,55,64
54680,note_off,80,0,4,,,,,,,,1,,,,55,64
54720,note_on,365,0,13,,,,,,,,11,,,,67,75
54720,note_on,40,0,5,,,,,,,,2,,,,75,75
54720,note_on,365,0,8,,,,,,,,5,,,,67,75
54720,note_on,40,0,4,,,,,,,,1,,,,75,92
54800,note_off,80,0,5,,,,,,,,2,,,,75,64
54800,note_off,80,0,4,,,,,,,,1,,,,75,64
54800,note_off,80,0,13,,,,,,,,11,,,,67,64
54800,note_off,80,0,8,,,,,,,,5,,,,67,64
54840,note_on,40,0,5,,,,,,,,2,,,,74,75
54840,note_on,40,0,4,,,,,,,,1,,,,74,92
54840,note_on,40,0,8,,,,,,,,5,,,,55,75
54840,note_on,40,0,13,,,,,,,,11,,,,55,75
54955,note_off,115,0,5,,,,,,,,2,,,,74,64
54955,note_off,115,0,4,,,,,,,,1,,,,74,64
54960,note_on,520,0,11,,,,,,,,8,,,,67,75
54960,note_on,520,0,6,,,,,,,,3,,,,67,75
54960,note_on,520,0,12,,,,,,,,10,,,,67,75
54960,note_on,5,0,5,,,,,,,,2,,,,77,75
54960,note_on,520,0,7,,,,,,,,4,,,,67,75
54960,note_on,5,0,4,,,,,,,,1,,,,77,92
55020,note_off,60,0,5,,,,,,,,2,,,,77,64
55020,note_on,0,0,5,,,,,,,,2,,,,76,75
55020,note_on,0,0,4,,,,,,,,1,,,,76,92
55020,note_off,60,0,4,,,,,,,,1,,,,77,64
55075,note_off,115,0,12,,,,,,,,10,,,,67,64
55075,note_off,235,0,8,,,,,,,,5,,,,55,64
55075,note_off,235,0,13,,,,,,,,11,,,,55,64
55075,note_off,115,0,11,,,,,,,,8,,,,67,64
55075,note_off,115,0,6,,,,,,,,3,,,,67,64
55075,note_off,115,0,7,,,,,,,,4,,,,67,64
55080,note_off,60,0,4,,,,,,,,1,,,,76,64
55080,note_on,5,0,6,,,,,,,,3,,,,55,75
55080,note_on,0,0,4,,,,,,,,1,,,,74,92
55080,note_on,0,0,5,,,,,,,,2,,,,74,75
55080,note_off,60,0,5,,,,,,,,2,,,,76,64
55080,note_on,5,0,11,,,,,,,,8,,,,55,75
55080,note_on,5,0,12,,,,,,,,10,,,,55,75
55080,note_on,5,0,7,,,,,,,,4,,,,55,75
55160,note_off,80,0,6,,,,,,,,3,,,,55,64
55160,note_off,80,0,11,,,,,,,,8,,,,55,64
55160,note_off,80,0,12,,,,,,,,10,,,,55,64
55160,note_off,80,0,7,,,,,,,,4,,,,55,64
55195,note_off,115,0,4,,,,,,,,1,,,,74,64
55195,note_off,115,0,5,,,,,,,,2,,,,74,64
55200,note_on,5,0,5,,,,,,,,2,,,,62,75
55200,note_on,5,0,4,,,,,,,,1,,,,62,92
55280,note_off,80,0,5,,,,,,,,2,,,,62,64
55280,note_off,80,0,4,,,,,,,,1,,,,62,64
55320,note_on,40,0,5,,,,,,,,2,,,,55,75
55320,note_on,40,0,4,,,,,,,,1,,,,55,92
55400,note_off,80,0,5,,,,,,,,2,,,,55,64
55400,note_off,80,0,4,,,,,,,,1,,,,55,64
55440,note_on,365,0,8,,,,,,,,5,,,,67,75
55440,note_on,40,0,4,,,,,,,,1,,,,74,92
55440,note_on,365,0,13,,,,,,,,11,,,,67,75
55440,note_on,40,0,5,,,,,,,,2,,,,74,75
55520,note_off,80,0,4,,,,,,,,1,,,,74,64
55520,note_off,80,0,5,,,,,,,,2,,,,74,64
55520,note_off,80,0,13,,,,,,,,11,,,,67,64
55520,note_off,80,0,8,,,,,,,,5,,,,67,64
55560,note_on,40,0,5,,,,,,,,2,,,,83,75
55560,note_on,40,0,13,,,,,,,,11,,,,55,75
55560,note_on,40,0,8,,,,,,,,5,,,,55,75
55560,note_on,40,0,4,,,,,,,,1,,,,83,92
55675,note_off,115,0,4,,,,,,,,1,,,,83,64
55675,note_off,115,0,5,,,,,,,,2,,,,83,64
55680,note_on,5,0,5,,,,,,,,2,,,,86,75
55680,note_on,520,0,11,,,,,,,,8,,,,67,75
55680,note_on,520,0,6,,,,,,,,3,,,,67,75
55680,note_on,520,0,12,,,,,,,,10,,,,67,75
55680,note_on,5,0,4,,,,,,,,1,,,,86,92
55680,note_on,520,0,7,,,,,,,,4,,,,67,75
55740,note_on,0,0,5,,,,,,,,2,,,,84,75
55740,note_off,60,0,5,,,,,,,,2,,,,86,64
55740,note_off,60,0,4,,,,,,,,1,,,,86,64
55740,note_on,0,0,4,,,,,,,,1,,,,84,92
55795,note_off,115,0,7,,,,,,,,4,,,,67,64
55795,note_off,235,0,8,,,,,,,,5,,,,55,64
55795,note_off,115,0,6,,,,,,,,3,,,,67,64
55795,note_off,235,0,13,,,,,,,,11,,,,55,64
55795,note_off,115,0,11,,,,,,,,8,,,,67,64
55795,note_off,115,0,12,,,,,,,,10,,,,67,64
55800,note_off,60,0,4,,,,,,,,1,,,,84,64
55800,note_on,0,0,4,,,,,,,,1,,,,83,92
55800,note_on,5,0,12,,,,,,,,10,,,,55,75
55800,note_on,5,0,7,,,,,,,,4,,,,55,75
55800,note_on,0,0,5,,,,,,,,2,,,,83,75
55800,note_on,5,0,11,,,,,,,,8,,,,55,75
55800,note_off,60,0,5,,,,,,,,2,,,,84,64
55800,note_on,5,0,6,,,,,,,,3,,,,55,75
55880,note_off,80,0,6,,,,,,,,3,,,,55,64
55880,note_off,80,0,7,,,,,,,,4,,,,55,64
55880,note_off,80,0,11,,,,,,,,8,,,,55,64
55880,note_off,80,0,12,,,,,,,,10,,,,55,64
55915,note_off,115,0,4,,,,,,,,1,,,,83,64
55915,note_off,115,0,5,,,,,,,,2,,,,83,64
55920,note_on,5,0,4,,,,,,,,1,,,,77,92
55920,note_on,5,0,5,,,,,,,,2,,,,77,75
56000,note_off,80,0,5,,,,,,,,2,,,,77,64
56000,note_off,80,0,4,,,,,,,,1,,,,77,64
56040,note_on,40,0,5,,,,,,,,2,,,,55,75
56040,note_on,40,0,4,,,,,,,,1,,,,55,92
56120,note_off,80,0,4,,,,,,,,1,,,,55,64
56120,note_off,80,0,5,,,,,,,,2,,,,55,64
56160,note_on,365,0,8,,,,,,,,5,,,,67,75
56160,note_on,365,0,13,,,,,,,,11,,,,67,75
56160,note_on,40,0,4,,,,,,,,1,,,,77,92
56160,note_on,40,0,5,,,,,,,,2,,,,77,75
56240,note_off,80,0,4,,,,,,,,1,,,,77,64
56240,note_off,80,0,5,,,,,,,,2,,,,77,64
56240,note_off,80,0,8,,,,,,,,5,,,,67,64
56240,note_off,80,0,13,,,,,,,,11,,,,67,64
56280,note_on,40,0,13,,,,,,,,11,,,,55,75
56280,note_on,40,0,8,,,,,,,,5,,,,55,75
56280,note_on,40,0,4,,,,,,,,1,,,,83,92
56280,note_on,40,0,5,,,,,,,,2,,,,83,75
56395,note_off,115,0,4,,,,,,,,1,,,,83,64
56395,note_off,115,0,5,,,,,,,,2,,,,83,64
56400,note_on,520,0,11,,,,,,,,8,,,,67,75
56400,note_on,5,0,4,,,,,,,,1,,,,86,92
56400,note_on,520,0,6,,,,,,,,3,,,,67,75
56400,note_on,520,0,7,,,,,,,,4,,,,67,75
56400,note_on,520,0,12,,,,,,,,10,,,,67,75
56400,note_on,5,0,5,,,,,,,,2,,,,86,75
56460,note_off,60,0,4,,,,,,,,1,,,,86,64
56460,note_on,0,0,4,,,,,,,,1,,,,84,92
56460,note_on,0,0,5,,,,,,,,2,,,,84,75
56460,note_off,60,0,5,,,,,,,,2,,,,86,64
56515,note_off,115,0,12,,,,,,,,10,,,,67,64
56515,note_off,235,0,8,,,,,,,,5,,,,55,64
56515,note_off,235,0,13,,,,,,,,11,,,,55,64
56515,note_off,115,0,11,,,,,,,,8,,,,67,64
56515,note_off,115,0,6,,,,,,,,3,,,,67,64
56515,note_off,115,0,7,,,,,,,,4,,,,67,64
56520,note_on,0,0,5,,,,,,,,2,,,,83,75
56520,note_off,60,0,5,,,,,,,,2,,,,84,64
56520,note_on,5,0,11,,,,,,,,8,,,,55,75
56520,note_on,5,0,7,,,,,,,,4,,,,55,75
56520,note_on,5,0,12,,,,,,,,10,,,,55,75
56520,note_on,0,0,4,,,,,,,,1,,,,83,92
56520,note_on,5,0,6,,,,,,,,3,,,,55,75
56520,note_off,60,0,4,,,,,,,,1,,,,84,64
56600,note_off,80,0,12,,,,,,,,10,,,,55,64
56600,note_off,80,0,6,,,,,,,,3,,,,55,64
56600,note_off,80,0,11,,,,,,,,8,,,,55,64
56600,note_off,80,0,7,,,,,,,,4,,,,55,64
56635,note_off,115,0,4,,,,,,,,1,,,,83,64
56635,note_off,115,0,5,,,,,,,,2,,,,83,64
56640,note_on,5,0,4,,,,,,,,1,,,,77,92
56640,note_on,5,0,5,,,,,,,,2,,,,77,75
56720,note_off,80,0,5,,,,,,,,2,,,,77,64
56720,note_off,80,0,4,,,,,,,,1,,,,77,64
56760,note_on,40,0,4,,,,,,,,1,,,,55,92
56760,set_tempo,5040,1,0,666666,,,,,,,,,,,,
56760,note_on,40,0,5,,,,,,,,2,,,,55,75
56840,note_off,80,0,4,,,,,,,,1,,,,55,64
56840,note_off,80,0,5,,,,,,,,2,,,,55,64
56880,note_on,40,0,5,,,,,,,,2,,,,77,75
56880,note_on,365,0,8,,,,,,,,5,,,,67,75
56880,note_on,365,0,13,,,,,,,,11,,,,67,75
56880,note_on,40,0,4,,,,,,,,1,,,,77,92
56960,note_off,80,0,13,,,,,,,,11,,,,67,64
56960,note_off,80,0,8,,,,,,,,5,,,,67,64
56960,note_off,80,0,4,,,,,,,,1,,,,77,64
56960,note_off,80,0,5,,,,,,,,2,,,,77,64
57000,program_change,400,0,6,,,,,,,,3,,,48,,
57000,program_change,400,0,7,,,,,,,,4,,,48,,
57000,program_change,40,0,8,,,,,,,,5,,,48,,
57000,set_tempo,240,1,0,681818,,,,,,,,,,,,
57000,program_change,5120,0,10,,,,,,,,7,,,48,,
57000,note_on,40,0,4,,,,,,,,1,,,,84,92
57000,note_on,40,0,5,,,,,,,,2,,,,84,75
57080,note_off,80,0,4,,,,,,,,1,,,,84,64
57080,note_on,0,0,4,,,,,,,,1,,,,83,92
57080,note_on,0,0,5,,,,,,,,2,,,,83,75
57080,note_off,80,0,5,,,,,,,,2,,,,84,64
57160,note_on,0,0,4,,,,,,,,1,,,,84,92
57160,note_off,80,0,5,,,,,,,,2,,,,83,64
57160,note_on,0,0,5,,,,,,,,2,,,,84,75
57160,note_off,80,0,4,,,,,,,,1,,,,83,64
57212,note_off,52,0,5,,,,,,,,2,,,,84,64
57212,note_off,52,0,4,,,,,,,,1,,,,84,64
57240,note_on,28,0,4,,,,,,,,1,,,,83,92
57240,note_on,28,0,5,,,,,,,,2,,,,83,75
57320,note_off,80,0,4,,,,,,,,1,,,,83,64
57320,note_on,0,0,4,,,,,,,,1,,,,80,92
57320,note_off,80,0,5,,,,,,,,2,,,,83,64
57320,note_on,0,0,5,,,,,,,,2,,,,80,75
57400,note_off,80,0,4,,,,,,,,1,,,,80,64
57400,note_on,0,0,4,,,,,,,,1,,,,83,92
57400,note_off,80,0,5,,,,,,,,2,,,,80,64
57400,note_on,0,0,5,,,,,,,,2,,,,83,75
57452,note_off,52,0,4,,,,,,,,1,,,,83,64
57452,note_off,52,0,5,,,,,,,,2,,,,83,64
57480,note_on,28,0,5,,,,,,,,2,,,,80,75
57480,note_on,28,0,4,,,,,,,,1,,,,80,92
57560,note_off,80,0,5,,,,,,,,2,,,,80,64
57560,note_on,0,0,5,,,,,,,,2,,,,79,75
57560,note_off,80,0,4,,,,,,,,1,,,,80,64
57560,note_on,0,0,4,,,,,,,,1,,,,79,92
57640,note_off,80,0,4,,,,,,,,1,,,,79,64
57640,note_off,80,0,5,,,,,,,,2,,,,79,64
57640,note_on,0,0,5,,,,,,,,2,,,,80,75
57640,note_on,0,0,4,,,,,,,,1,,,,80,92
57692,note_off,52,0,5,,,,,,,,2,,,,80,64
57692,note_off,52,0,4,,,,,,,,1,,,,80,64
57720,note_on,28,0,5,,,,,,,,2,,,,79,75
57720,note_on,28,0,4,,,,,,,,1,,,,79,92
57800,note_off,80,0,4,,,,,,,,1,,,,79,64
57800,note_on,0,0,4,,,,,,,,1,,,,77,92
57800,note_on,0,0,5,,,,,,,,2,,,,77,75
57800,note_off,80,0,5,,,,,,,,2,,,,79,64
57880,note_on,0,0,5,,,,,,,,2,,,,79,75
57880,note_on,0,0,4,,,,,,,,1,,,,79,92
57880,note_off,80,0,5,,,,,,,,2,,,,77,64
57880,note_off,80,0,4,,,,,,,,1,,,,77,64
57932,note_off,52,0,4,,,,,,,,1,,,,79,64
57932,note_off,52,0,5,,,,,,,,2,,,,79,64
57960,note_on,28,0,5,,,,,,,,2,,,,77,75
57960,note_on,28,0,4,,,,,,,,1,,,,77,92
58040,note_off,80,0,5,,,,,,,,2,,,,77,64
58040,note_off,80,0,4,,,,,,,,1,,,,77,64
58040,note_on,0,0,4,,,,,,,,1,,,,75,92
58040,note_on,0,0,5,,,,,,,,2,,,,75,75
58120,note_off,80,0,4,,,,,,,,1,,,,75,64
58120,note_on,0,0,4,,,,,,,,1,,,,77,92
58120,note_off,80,0,5,,,,,,,,2,,,,75,64
58120,note_on,0,0,5,,,,,,,,2,,,,77,75
58172,note_off,52,0,5,,,,,,,,2,,,,77,64
58172,note_off,52,0,4,,,,,,,,1,,,,77,64
58200,note_on,28,0,4,,,,,,,,1,,,,75,92
58200,note_on,28,0,5,,,,,,,,2,,,,75,75
58280,note_on,0,0,4,,,,,,,,1,,,,73,92
58280,note_off,80,0,4,,,,,,,,1,,,,75,64
58280,note_off,80,0,5,,,,,,,,2,,,,75,64
58280,note_on,0,0,5,,,,,,,,2,,,,73,75
58360,note_off,80,0,5,,,,,,,,2,,,,73,64
58360,note_on,0,0,5,,,,,,,,2,,,,75,75
58360,note_off,80,0,4,,,,,,,,1,,,,73,64
58360,note_on,0,0,4,,,,,,,,1,,,,75,92
58412,note_off,52,0,4,,,,,,,,1,,,,75,64
58412,note_off,52,0,5,,,,,,,,2,,,,75,64
58440,note_on,28,0,5,,,,,,,,2,,,,73,75
58440,note_on,28,0,4,,,,,,,,1,,,,73,92
58520,note_off,80,0,4,,,,,,,,1,,,,73,64
58520,note_on,0,0,5,,,,,,,,2,,,,72,75
58520,note_off,80,0,5,,,,,,,,2,,,,73,64
58520,note_on,0,0,4,,,,,,,,1,,,,72,92
58600,note_off,80,0,4,,,,,,,,1,,,,72,64
58600,note_off,80,0,5,,,,,,,,2,,,,72,64
58600,note_on,0,0,5,,,,,,,,2,,,,73,75
58600,note_on,0,0,4,,,,,,,,1,,,,73,92
58652,note_off,52,0,4,,,,,,,,1,,,,73,64
58652,note_off,52,0,5,,,,,,,,2,,,,73,64
58680,note_on,28,0,5,,,,,,,,2,,,,72,75
58680,note_on,28,0,4,,,,,,,,1,,,,72,92
58760,note_off,80,0,5,,,,,,,,2,,,,72,64
58760,note_on,0,0,4,,,,,,,,1,,,,71,92
58760,note_off,80,0,4,,,,,,,,1,,,,72,64
58760,note_on,0,0,5,,,,,,,,2,,,,71,75
58840,note_on,0,0,4,,,,,,,,1,,,,72,92
58840,note_on,0,0,5,,,,,,,,2,,,,72,75
58840,note_off,80,0,5,,,,,,,,2,,,,71,64
58840,note_off,80,0,4,,,,,,,,1,,,,71,64
58892,note_off,52,0,5,,,,,,,,2,,,,72,64
58892,note_off,52,0,4,,,,,,,,1,,,,72,64
58920,note_on,28,0,5,,,,,,,,2,,,,71,75
58920,note_on,28,0,4,,,,,,,,1,,,,71,92
59000,note_off,80,0,4,,,,,,,,1,,,,71,64
59000,note_on,0,0,4,,,,,,,,1,,,,69,92
59000,note_off,80,0,5,,,,,,,,2,,,,71,64
59000,note_on,0,0,5,,,,,,,,2,,,,69,75
59080,note_on,0,0,5,,,,,,,,2,,,,71,75
59080,note_off,80,0,5,,,,,,,,2,,,,69,64
59080,note_off,80,0,4,,,,,,,,1,,,,69,64
59080,note_on,0,0,4,,,,,,,,1,,,,71,92
59132,note_off,52,0,5,,,,,,,,2,,,,71,64
59132,note_off,52,0,4,,,,,,,,1,,,,71,64
59160,note_on,28,0,4,,,,,,,,1,,,,68,92
59160,note_on,28,0,5,,,,,,,,2,,,,68,75
59240,note_off,80,0,4,,,,,,,,1,,,,68,64
59240,note_on,0,0,5,,,,,,,,2,,,,67,75
59240,note_off,80,0,5,,,,,,,,2,,,,68,64
59240,note_on,0,0,4,,,,,,,,1,,,,67,92
59320,note_on,0,0,4,,,,,,,,1,,,,68,92
59320,note_off,80,0,5,,,,,,,,2,,,,67,64
59320,note_on,0,0,5,,,,,,,,2,,,,68,75
59320,note_off,80,0,4,,,,,,,,1,,,,67,64
59372,note_off,52,0,4,,,,,,,,1,,,,68,64
59372,note_off,52,0,5,,,,,,,,2,,,,68,64
59400,note_on,28,0,4,,,,,,,,1,,,,67,92
59400,note_on,28,0,5,,,,,,,,2,,,,67,75
59480,note_off,80,0,5,,,,,,,,2,,,,67,64
59480,note_off,80,0,4,,,,,,,,1,,,,67,64
59480,note_on,0,0,5,,,,,,,,2,,,,65,75
59480,note_on,0,0,4,,,,,,,,1,,,,65,92
59560,note_off,80,0,5,,,,,,,,2,,,,65,64
59560,note_on,0,0,5,,,,,,,,2,,,,67,75
59560,note_off,80,0,4,,,,,,,,1,,,,65,64
59560,note_on,0,0,4,,,,,,,,1,,,,67,92
59612,note_off,52,0,5,,,,,,,,2,,,,67,64
59612,note_off,52,0,4,,,,,,,,1,,,,67,64
59640,note_on,28,0,5,,,,,,,,2,,,,65,75
59640,note_on,28,0,4,,,,,,,,1,,,,65,92
59720,note_off,80,0,5,,,,,,,,2,,,,65,64
59720,note_on,0,0,5,,,,,,,,2,,,,63,75
59720,note_off,80,0,4,,,,,,,,1,,,,65,64
59720,note_on,0,0,4,,,,,,,,1,,,,63,92
59800,note_on,0,0,5,,,,,,,,2,,,,65,75
59800,note_off,80,0,5,,,,,,,,2,,,,63,64
59800,note_off,80,0,4,,,,,,,,1,,,,63,64
59800,note_on,0,0,4,,,,,,,,1,,,,65,92
59852,note_off,52,0,4,,,,,,,,1,,,,65,64
59852,note_off,52,0,5,,,,,,,,2,,,,65,64
59880,note_on,28,0,5,,,,,,,,2,,,,63,75
59880,note_on,28,0,4,,,,,,,,1,,,,63,92
59960,note_off,80,0,4,,,,,,,,1,,,,63,64
59960,note_on,0,0,4,,,,,,,,1,,,,62,92
59960,note_on,0,0,5,,,,,,,,2,,,,62,75
59960,note_off,80,0,5,,,,,,,,2,,,,63,64
60040,note_on,0,0,4,,,,,,,,1,,,,63,92
60040,note_off,80,0,4,,,,,,,,1,,,,62,64
60040,note_on,0,0,5,,,,,,,,2,,,,63,75
60040,note_off,80,0,5,,,,,,,,2,,,,62,64
60092,note_off,52,0,5,,,,,,,,2,,,,63,64
60092,note_off,52,0,4,,,,,,,,1,,,,63,64
60120,note_on,28,0,5,,,,,,,,2,,,,62,75
60120,note_on,28,0,4,,,,,,,,1,,,,62,92
60200,note_off,80,0,4,,,,,,,,1,,,,62,64
60200,note_on,0,0,4,,,,,,,,1,,,,60,92
60200,note_off,80,0,5,,,,,,,,2,,,,62,64
60200,note_on,0,0,5,,,,,,,,2,,,,60,75
60280,note_off,80,0,5,,,,,,,,2,,,,60,64
60280,note_on,0,0,5,,,,,,,,2,,,,62,75
60280,note_off,80,0,4,,,,,,,,1,,,,60,64
60280,note_on,0,0,4,,,,,,,,1,,,,62,92
60332,note_off,52,0,4,,,,,,,,1,,,,62,64
60332,note_off,52,0,5,,,,,,,,2,,,,62,64
60360,note_on,28,0,5,,,,,,,,2,,,,60,75
60360,note_on,28,0,4,,,,,,,,1,,,,60,92
60440,note_on,0,0,4,,,,,,,,1,,,,59,92
60440,note_off,80,0,4,,,,,,,,1,,,,60,64
60440,note_on,0,0,5,,,,,,,,2,,,,59,75
60440,note_off,80,0,5,,,,,,,,2,,,,60,64
60520,note_on,0,0,4,,,,,,,,1,,,,60,92
60520,note_off,80,0,5,,,,,,,,2,,,,59,64
60520,note_on,0,0,5,,,,,,,,2,,,,60,75
60520,note_off,80,0,4,,,,,,,,1,,,,59,64
60572,note_off,52,0,4,,,,,,,,1,,,,60,64
60572,note_off,52,0,5,,,,,,,,2,,,,60,64
60600,note_on,0,0,11,,,,,,,,8,,,,77,75
60600,note_on,3640,0,13,,,,,,,,11,,,,59,75
60600,note_on,0,0,11,,,,,,,,8,,,,71,75
60600,note_on,0,0,11,,,,,,,,8,,,,62,75
60600,note_on,4000,0,11,,,,,,,,8,,,,55,75
60600,note_on,3600,0,8,,,,,,,,5,,,,59,75
60600,note_on,0,0,14,,,,,,,,12,,,,43,75
60600,set_tempo,3600,1,0,631578,,,,,,,,,,,,
60600,note_on,0,0,9,,,,,,,,6,,,,43,75
60600,note_off,8640,0,9,,,,,,,,6,,,,43,64
60600,note_off,8640,0,14,,,,,,,,12,,,,43,64
60600,note_on,3600,0,6,,,,,,,,3,,,,55,75
60600,note_on,0,0,6,,,,,,,,3,,,,62,75
60600,note_on,0,0,6,,,,,,,,3,,,,77,75
60600,note_on,0,0,6,,,,,,,,3,,,,71,75
60715,note_off,0,0,11,,,,,,,,8,,,,55,64
60715,note_off,0,0,11,,,,,,,,8,,,,62,64
60715,note_off,0,0,11,,,,,,,,8,,,,71,64
60715,note_off,115,0,11,,,,,,,,8,,,,77,64
60715,note_off,0,0,6,,,,,,,,3,,,,55,64
60715,note_off,0,0,6,,,,,,,,3,,,,71,64
60715,note_off,0,0,6,,,,,,,,3,,,,62,64
60715,note_off,115,0,6,,,,,,,,3,,,,77,64
60720,note_on,5,0,6,,,,,,,,3,,,,75,75
60720,note_on,5,0,11,,,,,,,,8,,,,75,75
60840,note_on,0,0,11,,,,,,,,8,,,,74,75
60840,note_off,120,0,11,,,,,,,,8,,,,75,64
60840,note_on,0,0,6,,,,,,,,3,,,,74,75
60840,note_off,120,0,6,,,,,,,,3,,,,75,64
60960,note_off,120,0,6,,,,,,,,3,,,,74,64
60960,note_off,120,0,11,,,,,,,,8,,,,74,64
60960,note_on,0,0,11,,,,,,,,8,,,,72,75
60960,note_on,0,0,6,,,,,,,,3,,,,72,75
61080,note_off,120,0,6,,,,,,,,3,,,,72,64
61080,note_off,120,0,11,,,,,,,,8,,,,72,64
61080,note_on,0,0,11,,,,,,,,8,,,,71,75
61080,note_on,0,0,6,,,,,,,,3,,,,71,75
61200,note_off,120,0,11,,,,,,,,8,,,,71,64
61200,note_off,120,0,6,,,,,,,,3,,,,71,64
61200,note_on,0,0,6,,,,,,,,3,,,,69,75
61200,note_on,0,0,11,,,,,,,,8,,,,69,75
61320,note_on,0,0,11,,,,,,,,8,,,,67,75
61320,note_on,0,0,8,,,,,,,,5,,,,59,75
61320,note_off,720,0,14,,,,,,,,12,,,,43,64
61320,note_on,0,0,14,,,,,,,,12,,,,43,75
61320,note_on,4320,0,7,,,,,,,,4,,,,77,75
61320,note_off,720,0,9,,,,,,,,6,,,,43,64
61320,note_on,0,0,9,,,,,,,,6,,,,43,75
61320,note_on,4720,0,12,,,,,,,,10,,,,77,75
61320,note_off,120,0,11,,,,,,,,8,,,,69,64
61320,note_off,120,0,6,,,,,,,,3,,,,69,64
61320,note_on,0,0,6,,,,,,,,3,,,,67,75
61320,note_on,0,0,13,,,,,,,,11,,,,59,75
61320,note_off,720,0,13,,,,,,,,11,,,,59,64
61320,note_off,720,0,8,,,,,,,,5,,,,59,64
61440,note_off,120,0,6,,,,,,,,3,,,,67,64
61440,note_on,0,0,7,,,,,,,,4,,,,75,75
61440,note_off,120,0,7,,,,,,,,4,,,,77,64
61440,note_on,0,0,12,,,,,,,,10,,,,75,75
61440,note_off,120,0,12,,,,,,,,10,,,,77,64
61440,note_off,120,0,11,,,,,,,,8,,,,67,64
61440,note_on,0,0,11,,,,,,,,8,,,,69,75
61440,note_on,0,0,6,,,,,,,,3,,,,69,75
61560,note_off,120,0,7,,,,,,,,4,,,,75,64
61560,note_on,0,0,11,,,,,,,,8,,,,71,75
61560,note_on,0,0,6,,,,,,,,3,,,,71,75
61560,note_off,120,0,6,,,,,,,,3,,,,69,64
61560,note_off,120,0,11,,,,,,,,8,,,,69,64
61560,note_on,0,0,7,,,,,,,,4,,,,74,75
61560,note_off,120,0,12,,,,,,,,10,,,,75,64
61560,note_on,0,0,12,,,,,,,,10,,,,74,75
61680,note_off,120,0,11,,,,,,,,8,,,,71,64
61680,note_on,0,0,7,,,,,,,,4,,,,72,75
61680,note_off,120,0,6,,,,,,,,3,,,,71,64
61680,note_on,0,0,6,,,,,,,,3,,,,72,75
61680,note_off,120,0,12,,,,,,,,10,,,,74,64
61680,note_on,0,0,12,,,,,,,,10,,,,72,75
61680,note_on,0,0,11,,,,,,,,8,,,,72,75
61680,note_off,120,0,7,,,,,,,,4,,,,74,64
61800,note_on,0,0,6,,,,,,,,3,,,,74,75
61800,note_off,120,0,11,,,,,,,,8,,,,72,64
61800,note_on,0,0,11,,,,,,,,8,,,,74,75
61800,note_off,120,0,6,,,,,,,,3,,,,72,64
61800,note_on,0,0,12,,,,,,,,10,,,,71,75
61800,note_off,120,0,12,,,,,,,,10,,,,72,64
61800,note_off,120,0,7,,,,,,,,4,,,,72,64
61800,note_on,0,0,7,,,,,,,,4,,,,71,75
61920,note_off,120,0,7,,,,,,,,4,,,,71,64
61920,note_off,120,0,6,,,,,,,,3,,,,74,64
61920,note_on,0,0,6,,,,,,,,3,,,,75,75
61920,note_on,0,0,11,,,,,,,,8,,,,75,75
61920,note_on,0,0,7,,,,,,,,4,,,,69,75
61920,note_on,0,0,12,,,,,,,,10,,,,69,75
61920,note_off,120,0,12,,,,,,,,10,,,,71,64
61920,note_off,120,0,11,,,,,,,,8,,,,74,64
62035,note_off,115,0,6,,,,,,,,3,,,,75,64
62035,note_off,115,0,11,,,,,,,,8,,,,75,64
62040,note_on,0,0,9,,,,,,,,6,,,,43,80
62040,note_off,720,0,9,,,,,,,,6,,,,43,64
62040,note_off,720,0,13,,,,,,,,11,,,,59,64
62040,note_on,0,0,13,,,,,,,,11,,,,59,83
62040,note_off,720,0,14,,,,,,,,12,,,,43,64
62040,note_on,0,0,14,,,,,,,,12,,,,43,80
62040,note_on,0,0,7,,,,,,,,4,,,,67,75
62040,note_on,5,0,6,,,,,,,,3,,,,77,75
62040,note_on,0,0,8,,,,,,,,5,,,,59,80
62040,note_off,720,0,8,,,,,,,,5,,,,59,64
62040,note_on,0,0,12,,,,,,,,10,,,,67,75
62040,note_off,120,0,12,,,,,,,,10,,,,69,64
62040,note_on,5,0,11,,,,,,,,8,,,,77,75
62040,note_off,120,0,7,,,,,,,,4,,,,69,64
62160,note_off,120,0,11,,,,,,,,8,,,,77,64
62160,note_on,0,0,12,,,,,,,,10,,,,69,75
62160,note_off,120,0,12,,,,,,,,10,,,,67,64
62160,note_on,0,0,11,,,,,,,,8,,,,75,76
62160,note_off,120,0,7,,,,,,,,4,,,,67,64
62160,note_on,0,0,7,,,,,,,,4,,,,69,75
62160,note_off,120,0,6,,,,,,,,3,,,,77,64
62160,note_on,0,0,6,,,,,,,,3,,,,75,76
62280,note_off,120,0,11,,,,,,,,8,,,,75,64
62280,note_on,0,0,6,,,,,,,,3,,,,74,77
62280,note_off,120,0,6,,,,,,,,3,,,,75,64
62280,note_on,0,0,11,,,,,,,,8,,,,74,77
62280,note_on,0,0,12,,,,,,,,10,,,,71,75
62280,note_off,120,0,12,,,,,,,,10,,,,69,64
62280,note_off,120,0,7,,,,,,,,4,,,,69,64
62280,note_on,0,0,7,,,,,,,,4,,,,71,75
62400,note_on,0,0,11,,,,,,,,8,,,,72,78
62400,note_off,120,0,11,,,,,,,,8,,,,74,64
62400,note_on,0,0,7,,,,,,,,4,,,,72,75
62400,note_off,120,0,7,,,,,,,,4,,,,71,64
62400,note_off,120,0,6,,,,,,,,3,,,,74,64
62400,note_on,0,0,12,,,,,,,,10,,,,72,75
62400,note_off,120,0,12,,,,,,,,10,,,,71,64
62400,note_on,0,0,6,,,,,,,,3,,,,72,78
62520,note_on,0,0,6,,,,,,,,3,,,,71,79
62520,note_off,120,0,6,,,,,,,,3,,,,72,64
62520,note_on,0,0,7,,,,,,,,4,,,,74,75
62520,note_on,0,0,12,,,,,,,,10,,,,74,75
62520,note_off,120,0,11,,,,,,,,8,,,,72,64
62520,note_on,0,0,11,,,,,,,,8,,,,71,79
62520,note_off,120,0,12,,,,,,,,10,,,,72,64
62520,note_off,120,0,7,,,,,,,,4,,,,72,64
62640,note_on,0,0,7,,,,,,,,4,,,,75,75
62640,note_off,120,0,7,,,,,,,,4,,,,74,64
62640,note_off,120,0,12,,,,,,,,10,,,,74,64
62640,note_off,120,0,6,,,,,,,,3,,,,71,64
62640,note_on,0,0,6,,,,,,,,3,,,,69,80
62640,note_off,120,0,11,,,,,,,,8,,,,71,64
62640,note_on,0,0,11,,,,,,,,8,,,,69,80
62640,note_on,0,0,12,,,,,,,,10,,,,75,75
62755,note_off,115,0,12,,,,,,,,10,,,,75,64
62755,note_off,115,0,7,,,,,,,,4,,,,75,64
62760,note_off,120,0,6,,,,,,,,3,,,,69,64
62760,note_on,0,0,6,,,,,,,,3,,,,67,81
62760,note_on,5,0,7,,,,,,,,4,,,,77,75
62760,note_on,0,0,14,,,,,,,,12,,,,43,86
62760,note_off,720,0,14,,,,,,,,12,,,,43,64
62760,note_off,720,0,13,,,,,,,,11,,,,59,64
62760,note_on,5,0,12,,,,,,,,10,,,,77,75
62760,note_on,0,0,8,,,,,,,,5,,,,59,86
62760,note_off,720,0,8,,,,,,,,5,,,,59,64
62760,note_off,120,0,11,,,,,,,,8,,,,69,64
62760,note_on,0,0,13,,,,,,,,11,,,,59,92
62760,note_on,0,0,11,,,,,,,,8,,,,67,81
62760,note_off,720,0,9,,,,,,,,6,,,,43,64
62760,note_on,0,0,9,,,,,,,,6,,,,43,86
62880,note_off,120,0,11,,,,,,,,8,,,,67,64
62880,note_off,120,0,12,,,,,,,,10,,,,77,64
62880,note_on,0,0,12,,,,,,,,10,,,,75,75
62880,note_off,120,0,6,,,,,,,,3,,,,67,64
62880,note_off,120,0,7,,,,,,,,4,,,,77,64
62880,note_on,0,0,6,,,,,,,,3,,,,69,82
62880,note_on,0,0,11,,,,,,,,8,,,,69,82
62880,note_on,0,0,7,,,,,,,,4,,,,75,75
63000,note_off,120,0,6,,,,,,,,3,,,,69,64
63000,note_on,0,0,6,,,,,,,,3,,,,71,84
63000,note_off,120,0,11,,,,,,,,8,,,,69,64
63000,note_on,0,0,12,,,,,,,,10,,,,74,75
63000,note_off,120,0,12,,,,,,,,10,,,,75,64
63000,note_on,0,0,11,,,,,,,,8,,,,71,84
63000,note_off,120,0,7,,,,,,,,4,,,,75,64
63000,note_on,0,0,7,,,,,,,,4,,,,74,75
63120,note_off,120,0,11,,,,,,,,8,,,,71,64
63120,note_off,120,0,12,,,,,,,,10,,,,74,64
63120,note_on,0,0,12,,,,,,,,10,,,,72,75
63120,note_on,0,0,7,,,,,,,,4,,,,72,75
63120,note_on,0,0,6,,,,,,,,3,,,,72,86
63120,note_on,0,0,11,,,,,,,,8,,,,72,86
63120,note_off,120,0,7,,,,,,,,4,,,,74,64
63120,note_off,120,0,6,,,,,,,,3,,,,71,64
63240,note_off,120,0,6,,,,,,,,3,,,,72,64
63240,note_on,0,0,6,,,,,,,,3,,,,74,88
63240,note_off,120,0,11,,,,,,,,8,,,,72,64
63240,note_on,0,0,11,,,,,,,,8,,,,74,88
63240,note_off,120,0,7,,,,,,,,4,,,,72,64
63240,note_on,0,0,7,,,,,,,,4,,,,71,75
63240,note_off,120,0,12,,,,,,,,10,,,,72,64
63240,note_on,0,0,12,,,,,,,,10,,,,71,75
63360,note_off,120,0,11,,,,,,,,8,,,,74,64
63360,note_off,120,0,7,,,,,,,,4,,,,71,64
63360,note_on,0,0,7,,,,,,,,4,,,,69,75
63360,note_on,0,0,11,,,,,,,,8,,,,75,90
63360,note_on,0,0,6,,,,,,,,3,,,,75,90
63360,note_on,0,0,12,,,,,,,,10,,,,69,75
63360,note_off,120,0,12,,,,,,,,10,,,,71,64
63360,note_off,120,0,6,,,,,,,,3,,,,74,64
63400,note_off,640,0,13,,,,,,,,11,,,,59,64
63400,note_off,640,0,9,,,,,,,,6,,,,43,64
63400,note_off,640,0,8,,,,,,,,5,,,,59,64
63400,note_off,640,0,14,,,,,,,,12,,,,43,64
63475,note_off,115,0,6,,,,,,,,3,,,,75,64
63475,note_off,115,0,11,,,,,,,,8,,,,75,64
63475,note_off,115,0,12,,,,,,,,10,,,,69,64
63475,note_off,115,0,7,,,,,,,,4,,,,69,64
63480,note_on,80,0,8,,,,,,,,5,,,,59,92
63480,note_on,5,0,6,,,,,,,,3,,,,77,92
63480,note_on,5,0,11,,,,,,,,8,,,,77,92
63480,note_on,5,0,12,,,,,,,,10,,,,71,92
63480,note_on,80,0,9,,,,,,,,6,,,,43,92
63480,note_on,11600,0,15,,,,,,,,13,,,,31,92
63480,note_on,5,0,7,,,,,,,,4,,,,71,92
63480,note_on,80,0,14,,,,,,,,12,,,,43,92
63480,note_on,6480,0,10,,,,,,,,7,,,,31,92
63560,note_off,80,0,6,,,,,,,,3,,,,77,64
63715,note_off,235,0,8,,,,,,,,5,,,,59,64
63715,note_off,235,0,14,,,,,,,,12,,,,43,64
63715,note_off,235,0,12,,,,,,,,10,,,,71,64
63715,note_off,235,0,11,,,,,,,,8,,,,77,64
63715,note_off,235,0,9,,,,,,,,6,,,,43,64
63715,note_off,235,0,10,,,,,,,,7,,,,31,64
63715,note_off,235,0,15,,,,,,,,13,,,,31,64
63715,note_off,235,0,7,,,,,,,,4,,,,71,64
63960,set_tempo,3360,1,0,666666,,,,,,,,,,,,
63960,program_change,245,0,8,,,,,,,,5,,,51,,
63960,program_change,245,0,7,,,,,,,,4,,,49,,
64020,note_on,460,0,6,,,,,,,,3,,,,71,92
64020,note_on,305,0,9,,,,,,,,6,,,,59,92
64020,note_on,60,0,7,,,,,,,,4,,,,71,92
64020,note_on,60,0,8,,,,,,,,5,,,,71,92
64020,note_on,305,0,10,,,,,,,,7,,,,47,92
64020,note_on,305,0,15,,,,,,,,13,,,,47,92
64020,note_on,305,0,11,,,,,,,,8,,,,71,92
64020,note_on,305,0,14,,,,,,,,12,,,,59,92
64060,note_off,40,0,8,,,,,,,,5,,,,71,64
64060,note_off,40,0,9,,,,,,,,6,,,,59,64
64060,note_off,40,0,6,,,,,,,,3,,,,71,64
64060,note_off,40,0,11,,,,,,,,8,,,,71,64
64060,note_off,40,0,10,,,,,,,,7,,,,47,64
64060,note_off,40,0,15,,,,,,,,13,,,,47,64
64060,note_off,40,0,7,,,,,,,,4,,,,71,64
64060,note_off,40,0,14,,,,,,,,12,,,,59,64
64080,note_on,20,0,11,,,,,,,,8,,,,72,92
64080,note_on,20,0,6,,,,,,,,3,,,,72,92
64080,note_on,20,0,8,,,,,,,,5,,,,72,92
64080,note_on,20,0,14,,,,,,,,12,,,,60,92
64080,note_on,20,0,15,,,,,,,,13,,,,48,92
64080,note_on,20,0,10,,,,,,,,7,,,,48,92
64080,note_on,20,0,7,,,,,,,,4,,,,72,92
64080,note_on,20,0,9,,,,,,,,6,,,,60,92
64120,note_off,40,0,8,,,,,,,,5,,,,72,64
64120,note_off,40,0,14,,,,,,,,12,,,,60,64
64120,note_off,40,0,15,,,,,,,,13,,,,48,64
64120,note_off,40,0,10,,,,,,,,7,,,,48,64
64120,note_off,40,0,9,,,,,,,,6,,,,60,64
64120,note_off,40,0,6,,,,,,,,3,,,,72,64
64120,note_off,40,0,11,,,,,,,,8,,,,72,64
64120,note_off,40,0,7,,,,,,,,4,,,,72,64
64140,note_on,20,0,8,,,,,,,,5,,,,74,92
64140,note_on,20,0,11,,,,,,,,8,,,,74,92
64140,note_on,20,0,9,,,,,,,,6,,,,62,92
64140,note_on,20,0,14,,,,,,,,12,,,,62,92
64140,note_on,20,0,15,,,,,,,,13,,,,50,92
64140,note_on,20,0,6,,,,,,,,3,,,,74,92
64140,note_on,20,0,7,,,,,,,,4,,,,74,92
64140,note_on,20,0,10,,,,,,,,7,,,,50,92
64180,note_off,40,0,7,,,,,,,,4,,,,74,64
64180,note_off,40,0,11,,,,,,,,8,,,,74,64
64180,note_off,40,0,9,,,,,,,,6,,,,62,64
64180,note_off,40,0,8,,,,,,,,5,,,,74,64
64180,note_off,40,0,14,,,,,,,,12,,,,62,64
64180,note_off,40,0,6,,,,,,,,3,,,,74,64
64180,note_off,40,0,15,,,,,,,,13,,,,50,64
64180,note_off,40,0,10,,,,,,,,7,,,,50,64
64200,note_on,20,0,8,,,,,,,,5,,,,65,92
64200,note_on,20,0,7,,,,,,,,4,,,,65,92
64200,note_on,20,0,10,,,,,,,,7,,,,41,92
64200,note_on,20,0,11,,,,,,,,8,,,,65,92
64200,note_on,20,0,9,,,,,,,,6,,,,53,92
64200,note_on,20,0,14,,,,,,,,12,,,,53,92
64200,note_on,20,0,6,,,,,,,,3,,,,65,92
64200,note_on,20,0,15,,,,,,,,13,,,,41,92
64435,note_off,235,0,7,,,,,,,,4,,,,65,64
64435,note_off,235,0,15,,,,,,,,13,,,,41,64
64435,note_off,235,0,6,,,,,,,,3,,,,65,64
64435,note_off,235,0,14,,,,,,,,12,,,,53,64
64435,note_off,235,0,10,,,,,,,,7,,,,41,64
64435,note_off,235,0,9,,,,,,,,6,,,,53,64
64435,note_off,235,0,11,,,,,,,,8,,,,65,64
64435,note_off,235,0,8,,,,,,,,5,,,,65,64
64740,note_on,305,0,10,,,,,,,,7,,,,38,92
64740,note_on,305,0,7,,,,,,,,4,,,,62,92
64740,note_on,305,0,6,,,,,,,,3,,,,62,92
64740,note_on,305,0,9,,,,,,,,6,,,,50,92
64740,note_on,305,0,11,,,,,,,,8,,,,62,92
64740,note_on,305,0,14,,,,,,,,12,,,,50,92
64740,note_on,305,0,15,,,,,,,,13,,,,38,92
64740,note_on,305,0,8,,,,,,,,5,,,,62,92
64780,note_off,40,0,6,,,,,,,,3,,,,62,64
64780,note_off,40,0,9,,,,,,,,6,,,,50,64
64780,note_off,40,0,15,,,,,,,,13,,,,38,64
64780,note_off,40,0,7,,,,,,,,4,,,,62,64
64780,note_off,40,0,8,,,,,,,,5,,,,62,64
64780,note_off,40,0,14,,,,,,,,12,,,,50,64
64780,note_off,40,0,11,,,,,,,,8,,,,62,64
64780,note_off,40,0,10,,,,,,,,7,,,,38,64
64800,note_on,20,0,14,,,,,,,,12,,,,51,92
64800,note_on,20,0,9,,,,,,,,6,,,,51,92
64800,note_on,20,0,7,,,,,,,,4,,,,63,92
64800,note_on,20,0,10,,,,,,,,7,,,,39,92
64800,note_on,20,0,8,,,,,,,,5,,,,63,92
64800,note_on,20,0,15,,,,,,,,13,,,,39,92
64800,note_on,20,0,6,,,,,,,,3,,,,63,92
64800,note_on,20,0,11,,,,,,,,8,,,,63,92
64840,note_off,40,0,8,,,,,,,,5,,,,63,64
64840,note_off,40,0,15,,,,,,,,13,,,,39,64
64840,note_off,40,0,9,,,,,,,,6,,,,51,64
64840,note_off,40,0,14,,,,,,,,12,,,,51,64
64840,note_off,40,0,11,,,,,,,,8,,,,63,64
64840,note_off,40,0,10,,,,,,,,7,,,,39,64
64840,note_off,40,0,6,,,,,,,,3,,,,63,64
64840,note_off,40,0,7,,,,,,,,4,,,,63,64
64860,note_on,20,0,15,,,,,,,,13,,,,41,92
64860,note_on,20,0,9,,,,,,,,6,,,,53,92
64860,note_on,20,0,11,,,,,,,,8,,,,65,92
64860,note_on,20,0,14,,,,,,,,12,,,,53,92
64860,note_on,20,0,6,,,,,,,,3,,,,65,92
64860,note_on,20,0,10,,,,,,,,7,,,,41,92
64860,note_on,20,0,7,,,,,,,,4,,,,65,92
64860,note_on,20,0,8,,,,,,,,5,,,,65,92
64900,note_off,40,0,14,,,,,,,,12,,,,53,64
64900,note_off,40,0,11,,,,,,,,8,,,,65,64
64900,note_off,40,0,10,,,,,,,,7,,,,41,64
64900,note_off,40,0,7,,,,,,,,4,,,,65,64
64900,note_off,40,0,8,,,,,,,,5,,,,65,64
64900,note_off,40,0,6,,,,,,,,3,,,,65,64
64900,note_off,40,0,9,,,,,,,,6,,,,53,64
64900,note_off,40,0,15,,,,,,,,13,,,,41,64
64920,note_on,20,0,10,,,,,,,,7,,,,31,92
64920,note_on,20,0,6,,,,,,,,3,,,,55,92
64920,note_on,20,0,15,,,,,,,,13,,,,31,92
64920,note_on,20,0,14,,,,,,,,12,,,,43,92
64920,note_on,20,0,9,,,,,,,,6,,,,43,92
64920,note_on,20,0,8,,,,,,,,5,,,,55,92
64920,note_on,20,0,7,,,,,,,,4,,,,55,92
64920,note_on,20,0,11,,,,,,,,8,,,,55,92
65155,note_off,235,0,11,,,,,,,,8,,,,55,64
65155,note_off,235,0,7,,,,,,,,4,,,,55,64
65155,note_off,235,0,15,,,,,,,,13,,,,31,64
65155,note_off,235,0,14,,,,,,,,12,,,,43,64
65155,note_off,235,0,10,,,,,,,,7,,,,31,64
65155,note_off,235,0,8,,,,,,,,5,,,,55,64
65155,note_off,235,0,9,,,,,,,,6,,,,43,64
65155,note_off,235,0,6,,,,,,,,3,,,,55,64
65460,note_on,305,0,8,,,,,,,,5,,,,59,75
65460,note_on,305,0,14,,,,,,,,12,,,,47,75
65460,note_on,305,0,10,,,,,,,,7,,,,35,75
65460,note_on,305,0,11,,,,,,,,8,,,,59,75
65460,note_on,305,0,7,,,,,,,,4,,,,59,75
65460,note_on,305,0,9,,,,,,,,6,,,,47,75
65460,note_on,305,0,6,,,,,,,,3,,,,59,75
65460,note_on,305,0,15,,,,,,,,13,,,,35,75
65500,note_off,40,0,10,,,,,,,,7,,,,35,64
65500,note_off,40,0,15,,,,,,,,13,,,,35,64
65500,note_off,40,0,8,,,,,,,,5,,,,59,64
65500,note_off,40,0,11,,,,,,,,8,,,,59,64
65500,note_off,40,0,14,,,,,,,,12,,,,47,64
65500,note_off,40,0,6,,,,,,,,3,,,,59,64
65500,note_off,40,0,9,,,,,,,,6,,,,47,64
65500,note_off,40,0,7,,,,,,,,4,,,,59,64
65520,note_on,20,0,15,,,,,,,,13,,,,36,73
65520,note_on,20,0,8,,,,,,,,5,,,,60,73
65520,note_on,20,0,10,,,,,,,,7,,,,36,73
65520,note_on,20,0,7,,,,,,,,4,,,,60,73
65520,note_on,20,0,11,,,,,,,,8,,,,60,73
65520,note_on,20,0,14,,,,,,,,12,,,,48,73
65520,note_on,20,0,9,,,,,,,,6,,,,48,73
65520,note_on,20,0,6,,,,,,,,3,,,,60,73
65560,note_off,40,0,8,,,,,,,,5,,,,60,64
65560,note_off,40,0,14,,,,,,,,12,,,,48,64
65560,note_off,40,0,7,,,,,,,,4,,,,60,64
65560,note_off,40,0,6,,,,,,,,3,,,,60,64
65560,note_off,40,0,15,,,,,,,,13,,,,36,64
65560,note_off,40,0,9,,,,,,,,6,,,,48,64
65560,note_off,40,0,11,,,,,,,,8,,,,60,64
65560,note_off,40,0,10,,,,,,,,7,,,,36,64
65580,note_on,20,0,7,,,,,,,,4,,,,62,71
65580,note_on,20,0,11,,,,,,,,8,,,,62,71
65580,note_on,20,0,9,,,,,,,,6,,,,50,71
65580,note_on,20,0,14,,,,,,,,12,,,,50,71
65580,note_on,20,0,10,,,,,,,,7,,,,38,71
65580,note_on,20,0,6,,,,,,,,3,,,,62,71
65580,note_on,20,0,8,,,,,,,,5,,,,62,71
65580,note_on,20,0,15,,,,,,,,13,,,,38,71
65620,note_off,40,0,8,,,,,,,,5,,,,62,64
65620,note_off,40,0,11,,,,,,,,8,,,,62,64
65620,note_off,40,0,9,,,,,,,,6,,,,50,64
65620,note_off,40,0,10,,,,,,,,7,,,,38,64
65620,note_off,40,0,14,,,,,,,,12,,,,50,64
65620,note_off,40,0,7,,,,,,,,4,,,,62,64
65620,note_off,40,0,6,,,,,,,,3,,,,62,64
65620,note_off,40,0,15,,,,,,,,13,,,,38,64
65640,note_on,20,0,14,,,,,,,,12,,,,51,69
65640,note_on,20,0,9,,,,,,,,6,,,,51,69
65640,note_on,20,0,7,,,,,,,,4,,,,63,69
65640,set_tempo,1680,1,0,681818,,,,,,,,,,,,
65640,note_on,20,0,10,,,,,,,,7,,,,39,69
65640,note_on,20,0,8,,,,,,,,5,,,,63,69
65640,note_on,20,0,11,,,,,,,,8,,,,63,69
65640,note_on,20,0,15,,,,,,,,13,,,,39,69
65640,note_on,20,0,6,,,,,,,,3,,,,63,69
65720,note_off,80,0,7,,,,,,,,4,,,,63,64
65720,note_off,80,0,11,,,,,,,,8,,,,63,64
65720,note_off,80,0,9,,,,,,,,6,,,,51,64
65720,note_off,80,0,15,,,,,,,,13,,,,39,64
65720,note_off,80,0,10,,,,,,,,7,,,,39,64
65720,note_off,80,0,8,,,,,,,,5,,,,63,64
65720,note_off,80,0,14,,,,,,,,12,,,,51,64
65720,note_off,80,0,6,,,,,,,,3,,,,63,64
65880,note_on,160,0,6,,,,,,,,3,,,,65,61
65880,note_on,160,0,11,,,,,,,,8,,,,65,61
65880,note_on,160,0,10,,,,,,,,7,,,,41,61
65880,set_tempo,240,1,0,697674,,,,,,,,,,,,
65880,note_on,160,0,7,,,,,,,,4,,,,65,61
65880,note_on,160,0,8,,,,,,,,5,,,,65,61
65880,note_on,160,0,14,,,,,,,,12,,,,53,61
65880,note_on,160,0,9,,,,,,,,6,,,,53,61
65880,note_on,160,0,15,,,,,,,,13,,,,41,61
65960,note_off,80,0,8,,,,,,,,5,,,,65,64
65960,note_off,80,0,11,,,,,,,,8,,,,65,64
65960,note_off,80,0,15,,,,,,,,13,,,,41,64
65960,note_off,80,0,7,,,,,,,,4,,,,65,64
65960,note_off,80,0,10,,,,,,,,7,,,,41,64
65960,note_off,80,0,14,,,,,,,,12,,,,53,64
65960,note_off,80,0,6,,,,,,,,3,,,,65,64
65960,note_off,80,0,9,,,,,,,,6,,,,53,64
66120,note_on,160,0,10,,,,,,,,7,,,,43,53
66120,note_on,160,0,15,,,,,,,,13,,,,43,53
66120,note_on,160,0,6,,,,,,,,3,,,,67,53
66120,note_on,160,0,7,,,,,,,,4,,,,67,53
66120,set_tempo,240,1,0,714285,,,,,,,,,,,,
66120,note_on,160,0,11,,,,,,,,8,,,,67,53
66120,note_on,160,0,8,,,,,,,,5,,,,67,53
66120,note_on,160,0,9,,,,,,,,6,,,,55,53
66120,note_on,160,0,14,,,,,,,,12,,,,55,53
66200,note_off,80,0,14,,,,,,,,12,,,,55,64
66200,note_off,80,0,7,,,,,,,,4,,,,67,64
66200,note_off,80,0,8,,,,,,,,5,,,,67,64
66200,note_off,80,0,11,,,,,,,,8,,,,67,64
66200,note_off,80,0,10,,,,,,,,7,,,,43,64
66200,note_off,80,0,15,,,,,,,,13,,,,43,64
66200,note_off,80,0,6,,,,,,,,3,,,,67,64
66200,note_off,80,0,9,,,,,,,,6,,,,55,64
66360,set_tempo,240,1,0,882352,,,,,,,,,,,,
66360,note_on,160,0,11,,,,,,,,8,,,,60,45
66360,note_on,160,0,7,,,,,,,,4,,,,60,45
66360,note_on,160,0,10,,,,,,,,7,,,,36,45
66360,note_on,160,0,14,,,,,,,,12,,,,48,45
66360,note_on,160,0,15,,,,,,,,13,,,,36,45
66360,note_on,160,0,8,,,,,,,,5,,,,60,45
66360,note_on,160,0,9,,,,,,,,6,,,,48,45
66360,note_on,160,0,6,,,,,,,,3,,,,60,45
66360,note_on,5788,0,5,,,,,,,,2,,,,72,45
66360,note_on,5788,0,4,,,,,,,,1,,,,72,60
66415,note_off,55,0,4,,,,,,,,1,,,,72,64
66415,note_off,55,0,5,,,,,,,,2,,,,72,64
66420,note_on,5,0,4,,,,,,,,1,,,,67,60
66420,note_on,5,0,5,,,,,,,,2,,,,67,45
66475,note_off,55,0,5,,,,,,,,2,,,,67,64
66475,note_off,55,0,4,,,,,,,,1,,,,67,64
66480,note_on,5,0,4,,,,,,,,1,,,,63,60
66480,note_on,5,0,5,,,,,,,,2,,,,63,45
66535,note_off,55,0,4,,,,,,,,1,,,,63,64
66535,note_off,55,0,5,,,,,,,,2,,,,63,64
66540,note_on,5,0,5,,,,,,,,2,,,,60,45
66540,note_on,5,0,4,,,,,,,,1,,,,60,60
66595,note_off,55,0,4,,,,,,,,1,,,,60,64
66595,note_off,55,0,5,,,,,,,,2,,,,60,64
66600,note_on,5,0,5,,,,,,,,2,,,,55,45
66600,note_on,5,0,4,,,,,,,,1,,,,55,60
66760,note_off,400,0,8,,,,,,,,5,,,,60,64
66760,note_off,400,0,14,,,,,,,,12,,,,48,64
66760,note_off,400,0,7,,,,,,,,4,,,,60,64
66760,note_off,400,0,10,,,,,,,,7,,,,36,64
66760,note_off,400,0,9,,,,,,,,6,,,,48,64
66760,note_off,400,0,6,,,,,,,,3,,,,60,64
66760,note_off,400,0,11,,,,,,,,8,,,,60,64
66760,note_off,400,0,15,,,,,,,,13,,,,36,64
66835,note_off,235,0,5,,,,,,,,2,,,,55,64
66835,note_off,235,0,4,,,,,,,,1,,,,55,64
67080,program_change,320,0,8,,,,,,,,5,,,48,,
67080,program_change,320,0,7,,,,,,,,4,,,48,,
67080,note_on,320,0,9,,,,,,,,6,,,,43,45
67080,note_on,245,0,5,,,,,,,,2,,,,74,45
67080,note_on,320,0,14,,,,,,,,12,,,,43,45
67080,note_on,245,0,4,,,,,,,,1,,,,74,60
67080,set_tempo,720,1,0,909090,,,,,,,,,,,,
67135,note_off,55,0,5,,,,,,,,2,,,,74,64
67135,note_off,55,0,4,,,,,,,,1,,,,74,64
67140,note_on,5,0,5,,,,,,,,2,,,,71,45
67140,note_on,5,0,4,,,,,,,,1,,,,71,60
67195,note_off,55,0,4,,,,,,,,1,,,,71,64
67195,note_off,55,0,5,,,,,,,,2,,,,71,64
67200,note_on,5,0,4,,,,,,,,1,,,,67,60
67200,note_on,5,0,5,,,,,,,,2,,,,67,45
67255,note_off,55,0,4,,,,,,,,1,,,,67,64
67255,note_off,55,0,5,,,,,,,,2,,,,67,64
67260,note_on,5,0,4,,,,,,,,1,,,,62,60
67260,note_on,5,0,5,,,,,,,,2,,,,62,45
67315,note_off,235,0,9,,,,,,,,6,,,,43,64
67315,note_off,55,0,4,,,,,,,,1,,,,62,64
67315,note_off,235,0,14,,,,,,,,12,,,,43,64
67315,note_off,55,0,5,,,,,,,,2,,,,62,64
67320,note_on,5,0,4,,,,,,,,1,,,,55,60
67320,note_on,5,0,5,,,,,,,,2,,,,55,45
67555,note_off,235,0,5,,,,,,,,2,,,,55,64
67555,note_off,235,0,4,,,,,,,,1,,,,55,64
67800,note_on,485,0,9,,,,,,,,6,,,,43,45
67800,set_tempo,720,1,0,937500,,,,,,,,,,,,
67800,note_on,245,0,5,,,,,,,,2,,,,75,45
67800,note_on,485,0,14,,,,,,,,12,,,,43,45
67800,note_on,245,0,4,,,,,,,,1,,,,75,60
67855,note_off,55,0,5,,,,,,,,2,,,,75,64
67855,note_off,55,0,4,,,,,,,,1,,,,75,64
67860,note_on,5,0,4,,,,,,,,1,,,,72,60
67860,note_on,5,0,5,,,,,,,,2,,,,72,45
67915,note_off,55,0,4,,,,,,,,1,,,,72,64
67915,note_off,55,0,5,,,,,,,,2,,,,72,64
67920,note_on,5,0,5,,,,,,,,2,,,,67,45
67920,note_on,5,0,4,,,,,,,,1,,,,67,60
67975,note_off,55,0,5,,,,,,,,2,,,,67,64
67975,note_off,55,0,4,,,,,,,,1,,,,67,64
67980,note_on,5,0,4,,,,,,,,1,,,,63,60
67980,note_on,5,0,5,,,,,,,,2,,,,63,45
68035,note_off,55,0,4,,,,,,,,1,,,,63,64
68035,note_off,235,0,14,,,,,,,,12,,,,43,64
68035,note_off,55,0,5,,,,,,,,2,,,,63,64
68035,note_off,235,0,9,,,,,,,,6,,,,43,64
68040,note_on,5,0,4,,,,,,,,1,,,,55,60
68040,note_on,5,0,5,,,,,,,,2,,,,55,45
68275,note_off,235,0,4,,,,,,,,1,,,,55,64
68275,note_off,235,0,5,,,,,,,,2,,,,55,64
68520,note_on,485,0,14,,,,,,,,12,,,,43,45
68520,note_on,245,0,4,,,,,,,,1,,,,77,60
68520,set_tempo,720,1,0,967741,,,,,,,,,,,,
68520,note_on,245,0,5,,,,,,,,2,,,,77,45
68520,note_on,485,0,9,,,,,,,,6,,,,43,45
68575,note_off,55,0,4,,,,,,,,1,,,,77,64
68575,note_off,55,0,5,,,,,,,,2,,,,77,64
68580,note_on,5,0,4,,,,,,,,1,,,,74,60
68580,note_on,5,0,5,,,,,,,,2,,,,74,45
68635,note_off,55,0,5,,,,,,,,2,,,,74,64
68635,note_off,55,0,4,,,,,,,,1,,,,74,64
68640,note_on,5,0,4,,,,,,,,1,,,,71,60
68640,note_on,5,0,5,,,,,,,,2,,,,71,45
68695,note_off,55,0,4,,,,,,,,1,,,,71,64
68695,note_off,55,0,5,,,,,,,,2,,,,71,64
68700,note_on,5,0,5,,,,,,,,2,,,,67,45
68700,note_on,5,0,4,,,,,,,,1,,,,67,60
68755,note_off,55,0,4,,,,,,,,1,,,,67,64
68755,note_off,235,0,9,,,,,,,,6,,,,43,64
68755,note_off,235,0,14,,,,,,,,12,,,,43,64
68755,note_off,55,0,5,,,,,,,,2,,,,67,64
68760,note_on,5,0,4,,,,,,,,1,,,,55,60
68760,note_on,5,0,5,,,,,,,,2,,,,55,45
68995,note_off,235,0,4,,,,,,,,1,,,,55,64
68995,note_off,235,0,5,,,,,,,,2,,,,55,64
69240,set_tempo,720,1,0,1000000,,,,,,,,,,,,
69240,note_on,245,0,4,,,,,,,,1,,,,79,60
69240,note_on,485,0,9,,,,,,,,6,,,,43,45
69240,note_on,245,0,5,,,,,,,,2,,,,79,45
69240,note_on,485,0,14,,,,,,,,12,,,,43,45
69295,note_off,55,0,4,,,,,,,,1,,,,79,64
69295,note_off,55,0,5,,,,,,,,2,,,,79,64
69300,note_on,5,0,5,,,,,,,,2,,,,75,45
69300,note_on,5,0,4,,,,,,,,1,,,,75,60
69355,note_off,55,0,4,,,,,,,,1,,,,75,64
69355,note_off,55,0,5,,,,,,,,2,,,,75,64
69360,note_on,5,0,4,,,,,,,,1,,,,72,60
69360,note_on,5,0,5,,,,,,,,2,,,,72,45
69415,note_off,55,0,4,,,,,,,,1,,,,72,64
69415,note_off,55,0,5,,,,,,,,2,,,,72,64
69420,note_on,5,0,4,,,,,,,,1,,,,67,60
69420,note_on,5,0,5,,,,,,,,2,,,,67,45
69475,note_off,55,0,5,,,,,,,,2,,,,67,64
69475,note_off,235,0,14,,,,,,,,12,,,,43,64
69475,note_off,235,0,9,,,,,,,,6,,,,43,64
69475,note_off,55,0,4,,,,,,,,1,,,,67,64
69480,note_on,5,0,4,,,,,,,,1,,,,55,60
69480,note_on,5,0,5,,,,,,,,2,,,,55,45
69715,note_off,235,0,4,,,,,,,,1,,,,55,64
69715,note_off,235,0,5,,,,,,,,2,,,,55,64
69960,note_on,245,0,4,,,,,,,,1,,,,84,60
69960,note_on,485,0,14,,,,,,,,12,,,,63,45
69960,note_on,485,0,9,,,,,,,,6,,,,63,45
69960,note_on,245,0,5,,,,,,,,2,,,,84,45
69960,set_tempo,720,1,0,1250000,,,,,,,,,,,,
70075,note_off,115,0,5,,,,,,,,2,,,,84,64
70075,note_off,115,0,4,,,,,,,,1,,,,84,64
70080,note_on,5,0,4,,,,,,,,1,,,,82,60
70080,note_on,5,0,5,,,,,,,,2,,,,82,45
70195,note_off,115,0,5,,,,,,,,2,,,,82,64
70195,note_off,115,0,4,,,,,,,,1,,,,82,64
70200,note_off,240,0,14,,,,,,,,12,,,,63,64
70200,note_on,0,0,14,,,,,,,,12,,,,60,45
70200,note_off,240,0,9,,,,,,,,6,,,,63,64
70200,note_on,0,0,9,,,,,,,,6,,,,60,45
70200,note_on,5,0,5,,,,,,,,2,,,,80,45
70200,note_on,5,0,4,,,,,,,,1,,,,80,60
70315,note_off,115,0,5,,,,,,,,2,,,,80,64
70315,note_off,115,0,4,,,,,,,,1,,,,80,64
70320,note_on,5,0,4,,,,,,,,1,,,,79,60
70320,note_on,5,0,5,,,,,,,,2,,,,79,45
70435,note_off,115,0,5,,,,,,,,2,,,,79,64
70435,note_off,115,0,4,,,,,,,,1,,,,79,64
70440,note_on,5,0,4,,,,,,,,1,,,,77,60
70440,note_on,0,0,14,,,,,,,,12,,,,56,45
70440,note_off,240,0,14,,,,,,,,12,,,,60,64
70440,note_on,0,0,9,,,,,,,,6,,,,56,45
70440,note_off,240,0,9,,,,,,,,6,,,,60,64
70440,note_on,5,0,5,,,,,,,,2,,,,77,45
70555,note_off,115,0,4,,,,,,,,1,,,,77,64
70555,note_off,115,0,5,,,,,,,,2,,,,77,64
70560,note_on,5,0,4,,,,,,,,1,,,,75,60
70560,note_on,5,0,5,,,,,,,,2,,,,75,45
70675,note_off,115,0,5,,,,,,,,2,,,,75,64
70675,note_off,115,0,4,,,,,,,,1,,,,75,64
70680,note_on,5,0,4,,,,,,,,1,,,,74,60
70680,note_on,0,0,14,,,,,,,,12,,,,53,45
70680,note_off,240,0,14,,,,,,,,12,,,,56,64
70680,note_on,0,0,9,,,,,,,,6,,,,53,45
70680,note_off,240,0,9,,,,,,,,6,,,,56,64
70680,set_tempo,720,1,0,1304347,,,,,,,,,,,,
70680,note_on,5,0,5,,,,,,,,2,,,,74,45
70795,note_off,115,0,4,,,,,,,,1,,,,74,64
70795,note_off,115,0,5,,,,,,,,2,,,,74,64
70800,note_on,5,0,4,,,,,,,,1,,,,72,60
70800,set_tempo,120,1,0,1363636,,,,,,,,,,,,
70800,note_on,5,0,5,,,,,,,,2,,,,72,45
70915,note_off,115,0,4,,,,,,,,1,,,,72,64
70915,note_off,115,0,5,,,,,,,,2,,,,72,64
70920,note_on,0,0,9,,,,,,,,6,,,,50,45
70920,note_off,240,0,9,,,,,,,,6,,,,53,64
70920,note_off,240,0,14,,,,,,,,12,,,,53,64
70920,note_on,0,0,14,,,,,,,,12,,,,50,45
70920,note_on,5,0,4,,,,,,,,1,,,,71,60
70920,note_on,5,0,5,,,,,,,,2,,,,71,45
70920,set_tempo,120,1,0,1428571,,,,,,,,,,,,
71035,note_off,115,0,4,,,,,,,,1,,,,71,64
71035,note_off,115,0,5,,,,,,,,2,,,,71,64
71040,note_on,5,0,5,,,,,,,,2,,,,68,45
71040,note_on,5,0,4,,,,,,,,1,,,,68,60
71040,set_tempo,120,1,0,1578947,,,,,,,,,,,,
71155,note_off,115,0,5,,,,,,,,2,,,,68,64
71155,note_off,115,0,4,,,,,,,,1,,,,68,64
71160,note_off,240,0,9,,,,,,,,6,,,,50,64
71160,note_on,5,0,5,,,,,,,,2,,,,67,45
71160,note_on,0,0,14,,,,,,,,12,,,,47,45
71160,note_off,240,0,14,,,,,,,,12,,,,50,64
71160,note_on,0,0,9,,,,,,,,6,,,,47,45
71160,set_tempo,120,1,0,1764705,,,,,,,,,,,,
71160,note_on,5,0,4,,,,,,,,1,,,,67,60
71275,note_off,115,0,4,,,,,,,,1,,,,67,64
71275,note_off,115,0,5,,,,,,,,2,,,,67,64
71280,note_on,5,0,4,,,,,,,,1,,,,65,60
71280,note_on,5,0,5,,,,,,,,2,,,,65,45
71280,set_tempo,120,1,0,2000000,,,,,,,,,,,,
71395,note_off,115,0,4,,,,,,,,1,,,,65,64
71395,note_off,115,0,5,,,,,,,,2,,,,65,64
71400,note_off,240,0,14,,,,,,,,12,,,,47,64
71400,note_on,0,0,14,,,,,,,,12,,,,43,45
71400,note_on,5,0,5,,,,,,,,2,,,,55,45
71400,set_tempo,120,1,0,2307692,,,,,,,,,,,,
71400,note_off,240,0,9,,,,,,,,6,,,,47,64
71400,note_on,0,0,9,,,,,,,,6,,,,43,45
71400,note_on,5,0,4,,,,,,,,1,,,,55,60
71800,note_off,400,0,14,,,,,,,,12,,,,43,64
71800,note_off,400,0,4,,,,,,,,1,,,,55,64
71800,note_off,400,0,5,,,,,,,,2,,,,55,64
71800,note_off,400,0,9,,,,,,,,6,,,,43,64
72360,note_on,5600,0,6,,,,,,,,3,,,,79,45
72360,set_tempo,960,1,0,1500000,,,,,,,,,,,,
72360,note_on,8645,0,12,,,,,,,,10,,,,75,45
72360,note_on,5600,0,11,,,,,,,,8,,,,79,45
72360,note_on,5280,0,7,,,,,,,,4,,,,75,45
72360,note_on,5280,0,8,,,,,,,,5,,,,60,45
72360,note_on,8960,0,13,,,,,,,,11,,,,60,45
72480,note_on,0,0,8,,,,,,,,5,,,,62,45
72480,note_on,0,0,13,,,,,,,,11,,,,62,45
72480,note_off,120,0,8,,,,,,,,5,,,,60,64
72480,note_off,120,0,13,,,,,,,,11,,,,60,64
72595,note_off,235,0,11,,,,,,,,8,,,,79,64
72595,note_off,235,0,12,,,,,,,,10,,,,75,64
72595,note_off,235,0,7,,,,,,,,4,,,,75,64
72595,note_off,235,0,6,,,,,,,,3,,,,79,64
72600,note_on,0,0,8,,,,,,,,5,,,,63,45
72600,note_on,5,0,12,,,,,,,,10,,,,74,45
72600,note_on,5,0,7,,,,,,,,4,,,,74,45
72600,note_on,5,0,6,,,,,,,,3,,,,77,45
72600,set_tempo,240,1,0,1578947,,,,,,,,,,,,
72600,note_on,5,0,11,,,,,,,,8,,,,77,45
72600,note_off,120,0,8,,,,,,,,5,,,,62,64
72600,note_on,0,0,13,,,,,,,,11,,,,63,45
72600,note_off,120,0,13,,,,,,,,11,,,,62,64
72720,note_off,120,0,8,,,,,,,,5,,,,63,64
72720,note_on,0,0,13,,,,,,,,11,,,,65,45
72720,note_off,120,0,13,,,,,,,,11,,,,63,64
72720,note_on,0,0,8,,,,,,,,5,,,,65,45
72840,note_off,240,0,6,,,,,,,,3,,,,77,64
72840,note_on,0,0,6,,,,,,,,3,,,,75,45
72840,note_on,0,0,12,,,,,,,,10,,,,72,45
72840,note_off,240,0,12,,,,,,,,10,,,,74,64
72840,note_on,0,0,8,,,,,,,,5,,,,67,45
72840,note_off,120,0,8,,,,,,,,5,,,,65,64
72840,note_off,240,0,11,,,,,,,,8,,,,77,64
72840,note_off,120,0,13,,,,,,,,11,,,,65,64
72840,note_on,0,0,13,,,,,,,,11,,,,67,45
72840,note_on,0,0,7,,,,,,,,4,,,,72,45
72840,note_off,240,0,7,,,,,,,,4,,,,74,64
72840,note_on,0,0,11,,,,,,,,8,,,,75,45
72960,note_on,0,0,8,,,,,,,,5,,,,68,45
72960,note_off,120,0,8,,,,,,,,5,,,,67,64
72960,note_off,120,0,13,,,,,,,,11,,,,67,64
72960,note_on,0,0,13,,,,,,,,11,,,,68,45
73075,note_off,235,0,11,,,,,,,,8,,,,75,64
73075,note_off,235,0,6,,,,,,,,3,,,,75,64
73075,note_off,235,0,7,,,,,,,,4,,,,72,64
73075,note_off,235,0,12,,,,,,,,10,,,,72,64
73080,note_off,120,0,8,,,,,,,,5,,,,68,64
73080,set_tempo,480,1,0,1500000,,,,,,,,,,,,
73080,note_off,120,0,13,,,,,,,,11,,,,68,64
73080,note_on,5,0,12,,,,,,,,10,,,,70,45
73080,note_on,5,0,7,,,,,,,,4,,,,70,45
73080,note_on,0,0,8,,,,,,,,5,,,,70,45
73080,note_on,5,0,11,,,,,,,,8,,,,74,45
73080,note_on,0,0,13,,,,,,,,11,,,,70,45
73080,note_on,5,0,6,,,,,,,,3,,,,74,45
73320,note_on,0,0,12,,,,,,,,10,,,,72,45
73320,note_off,240,0,12,,,,,,,,10,,,,70,64
73320,note_off,240,0,7,,,,,,,,4,,,,70,64
73320,note_on,0,0,6,,,,,,,,3,,,,75,45
73320,note_off,240,0,6,,,,,,,,3,,,,74,64
73320,note_on,0,0,7,,,,,,,,4,,,,72,45
73320,set_tempo,240,1,0,1578947,,,,,,,,,,,,
73320,note_on,0,0,11,,,,,,,,8,,,,75,45
73320,note_off,240,0,11,,,,,,,,8,,,,74,64
73480,note_off,400,0,8,,,,,,,,5,,,,70,64
73480,note_off,400,0,13,,,,,,,,11,,,,70,64
73560,note_on,0,0,12,,,,,,,,10,,,,74,45
73560,note_off,240,0,7,,,,,,,,4,,,,72,64
73560,note_on,0,0,7,,,,,,,,4,,,,74,45
73560,set_tempo,240,1,0,1666666,,,,,,,,,,,,
73560,note_on,80,0,8,,,,,,,,5,,,,58,45
73560,note_off,240,0,11,,,,,,,,8,,,,75,64
73560,note_on,0,0,11,,,,,,,,8,,,,77,45
73560,note_off,240,0,12,,,,,,,,10,,,,72,64
73560,note_on,0,0,6,,,,,,,,3,,,,77,45
73560,note_off,240,0,6,,,,,,,,3,,,,75,64
73560,note_on,80,0,13,,,,,,,,11,,,,58,45
73795,note_off,235,0,13,,,,,,,,11,,,,58,64
73795,note_off,235,0,12,,,,,,,,10,,,,74,64
73795,note_off,235,0,8,,,,,,,,5,,,,58,64
73795,note_off,235,0,11,,,,,,,,8,,,,77,64
73795,note_off,235,0,6,,,,,,,,3,,,,77,64
73795,note_off,235,0,7,,,,,,,,4,,,,74,64
73800,note_on,5,0,12,,,,,,,,10,,,,75,45
73800,note_on,5,0,7,,,,,,,,4,,,,75,45
73800,note_on,5,0,11,,,,,,,,8,,,,79,45
73800,note_on,5,0,6,,,,,,,,3,,,,79,45
73800,note_on,5,0,13,,,,,,,,11,,,,63,45
73800,note_on,5,0,8,,,,,,,,5,,,,63,45
73920,note_off,120,0,8,,,,,,,,5,,,,63,64
73920,note_on,0,0,8,,,,,,,,5,,,,65,45
73920,note_on,0,0,13,,,,,,,,11,,,,65,45
73920,note_off,120,0,13,,,,,,,,11,,,,63,64
74035,note_off,235,0,6,,,,,,,,3,,,,79,64
74035,note_off,235,0,7,,,,,,,,4,,,,75,64
74035,note_off,235,0,11,,,,,,,,8,,,,79,64
74035,note_off,235,0,12,,,,,,,,10,,,,75,64
74040,note_on,5,0,7,,,,,,,,4,,,,74,45
74040,note_on,0,0,8,,,,,,,,5,,,,67,45
74040,note_on,5,0,11,,,,,,,,8,,,,77,45
74040,note_off,120,0,8,,,,,,,,5,,,,65,64
74040,set_tempo,480,1,0,1500000,,,,,,,,,,,,
74040,note_on,5,0,12,,,,,,,,10,,,,74,45
74040,note_off,120,0,13,,,,,,,,11,,,,65,64
74040,note_on,0,0,13,,,,,,,,11,,,,67,45
74040,note_on,5,0,6,,,,,,,,3,,,,77,45
74280,note_off,240,0,13,,,,,,,,11,,,,67,64
74280,note_on,0,0,13,,,,,,,,11,,,,68,45
74280,note_off,240,0,8,,,,,,,,5,,,,67,64
74280,note_on,0,0,8,,,,,,,,5,,,,68,45
74280,note_off,240,0,11,,,,,,,,8,,,,77,64
74280,note_on,0,0,12,,,,,,,,10,,,,72,45
74280,note_on,0,0,11,,,,,,,,8,,,,75,45
74280,note_off,240,0,6,,,,,,,,3,,,,77,64
74280,note_off,240,0,12,,,,,,,,10,,,,74,64
74280,note_on,0,0,6,,,,,,,,3,,,,75,45
74280,note_off,240,0,7,,,,,,,,4,,,,74,64
74280,note_on,0,0,7,,,,,,,,4,,,,72,45
74515,note_off,235,0,6,,,,,,,,3,,,,75,64
74515,note_off,235,0,7,,,,,,,,4,,,,72,64
74515,note_off,235,0,12,,,,,,,,10,,,,72,64
74515,note_off,235,0,11,,,,,,,,8,,,,75,64
74520,note_on,0,0,8,,,,,,,,5,,,,70,45
74520,note_off,240,0,8,,,,,,,,5,,,,68,64
74520,note_on,5,0,7,,,,,,,,4,,,,70,45
74520,note_on,0,0,13,,,,,,,,11,,,,70,45
74520,note_off,240,0,13,,,,,,,,11,,,,68,64
74520,note_on,5,0,12,,,,,,,,10,,,,70,45
74520,note_on,5,0,6,,,,,,,,3,,,,74,45
74520,set_tempo,480,1,0,1578947,,,,,,,,,,,,
74520,note_on,5,0,11,,,,,,,,8,,,,74,45
74760,note_off,240,0,11,,,,,,,,8,,,,74,64
74760,note_on,0,0,11,,,,,,,,8,,,,75,45
74760,note_off,240,0,12,,,,,,,,10,,,,70,64
74760,note_on,0,0,12,,,,,,,,10,,,,72,45
74760,note_off,240,0,7,,,,,,,,4,,,,70,64
74760,note_on,0,0,7,,,,,,,,4,,,,72,45
74760,note_on,0,0,6,,,,,,,,3,,,,75,45
74760,set_tempo,240,1,0,1666666,,,,,,,,,,,,
74760,note_off,240,0,6,,,,,,,,3,,,,74,64
74920,note_off,400,0,13,,,,,,,,11,,,,70,64
74920,note_off,400,0,8,,,,,,,,5,,,,70,64
75000,note_on,0,0,11,,,,,,,,8,,,,77,45
75000,note_off,240,0,12,,,,,,,,10,,,,72,64
75000,note_on,0,0,7,,,,,,,,4,,,,74,45
75000,note_off,240,0,7,,,,,,,,4,,,,72,64
75000,note_on,0,0,12,,,,,,,,10,,,,74,45
75000,note_on,80,0,8,,,,,,,,5,,,,58,45
75000,set_tempo,240,1,0,1578947,,,,,,,,,,,,
75000,note_on,80,0,13,,,,,,,,11,,,,58,45
75000,note_on,0,0,6,,,,,,,,3,,,,77,45
75000,note_off,240,0,6,,,,,,,,3,,,,75,64
75000,note_off,240,0,11,,,,,,,,8,,,,75,64
75235,note_off,235,0,6,,,,,,,,3,,,,77,64
75235,note_off,235,0,12,,,,,,,,10,,,,74,64
75235,note_off,235,0,8,,,,,,,,5,,,,58,64
75235,note_off,235,0,11,,,,,,,,8,,,,77,64
75235,note_off,235,0,7,,,,,,,,4,,,,74,64
75235,note_off,235,0,13,,,,,,,,11,,,,58,64
75240,note_on,5,0,6,,,,,,,,3,,,,79,45
75240,note_on,5,0,8,,,,,,,,5,,,,63,45
75240,note_on,5,0,11,,,,,,,,8,,,,79,45
75240,note_on,5,0,7,,,,,,,,4,,,,75,45
75240,note_on,5,0,12,,,,,,,,10,,,,75,45
75240,set_tempo,240,1,0,1500000,,,,,,,,,,,,
75240,note_on,5,0,13,,,,,,,,11,,,,63,45
75480,note_on,0,0,12,,,,,,,,10,,,,77,45
75480,note_on,0,0,7,,,,,,,,4,,,,77,45
75480,note_off,240,0,7,,,,,,,,4,,,,75,64
75480,set_tempo,240,1,0,1578947,,,,,,,,,,,,
75480,note_off,240,0,12,,,,,,,,10,,,,75,64
75480,note_on,0,0,6,,,,,,,,3,,,,80,45
75480,note_off,240,0,6,,,,,,,,3,,,,79,64
75480,note_off,240,0,11,,,,,,,,8,,,,79,64
75480,note_on,0,0,11,,,,,,,,8,,,,80,45
75640,note_off,400,0,8,,,,,,,,5,,,,63,64
75640,note_off,400,0,13,,,,,,,,11,,,,63,64
75715,note_off,235,0,11,,,,,,,,8,,,,80,64
75715,note_off,235,0,12,,,,,,,,10,,,,77,64
75715,note_off,235,0,7,,,,,,,,4,,,,77,64
75715,note_off,235,0,6,,,,,,,,3,,,,80,64
75720,note_on,5,0,6,,,,,,,,3,,,,82,45
75720,note_on,5,0,11,,,,,,,,8,,,,82,45
75720,note_on,80,0,8,,,,,,,,5,,,,63,45
75720,note_on,80,0,13,,,,,,,,11,,,,63,45
75720,note_on,5,0,7,,,,,,,,4,,,,79,45
75720,note_on,5,0,12,,,,,,,,10,,,,79,45
75955,note_off,235,0,8,,,,,,,,5,,,,63,64
75955,note_off,235,0,12,,,,,,,,10,,,,79,64
75955,note_off,235,0,11,,,,,,,,8,,,,82,64
75955,note_off,235,0,6,,,,,,,,3,,,,82,64
75955,note_off,235,0,7,,,,,,,,4,,,,79,64
75955,note_off,235,0,13,,,,,,,,11,,,,63,64
75960,note_on,5,0,13,,,,,,,,11,,,,58,45
75960,note_on,5,0,8,,,,,,,,5,,,,58,45
75960,note_on,5,0,11,,,,,,,,8,,,,80,45
75960,set_tempo,480,1,0,1621621,,,,,,,,,,,,
75960,note_on,5,0,7,,,,,,,,4,,,,77,45
75960,note_on,5,0,12,,,,,,,,10,,,,77,45
75960,note_on,5,0,6,,,,,,,,3,,,,80,45
76195,note_off,235,0,13,,,,,,,,11,,,,58,64
76195,note_off,235,0,7,,,,,,,,4,,,,77,64
76195,note_off,235,0,8,,,,,,,,5,,,,58,64
76195,note_off,235,0,6,,,,,,,,3,,,,80,64
76195,note_off,235,0,12,,,,,,,,10,,,,77,64
76195,note_off,235,0,11,,,,,,,,8,,,,80,64
76680,note_on,485,0,6,,,,,,,,3,,,,79,45
76680,note_on,485,0,13,,,,,,,,11,,,,63,45
76680,note_on,485,0,11,,,,,,,,8,,,,79,45
76680,note_on,485,0,8,,,,,,,,5,,,,63,45
76680,note_on,485,0,7,,,,,,,,4,,,,75,45
76680,set_tempo,720,1,0,1538461,,,,,,,,,,,,
76680,note_on,485,0,12,,,,,,,,10,,,,75,45
76915,note_off,235,0,6,,,,,,,,3,,,,79,64
76915,note_off,235,0,7,,,,,,,,4,,,,75,64
76915,note_off,235,0,11,,,,,,,,8,,,,79,64
76915,note_off,235,0,8,,,,,,,,5,,,,63,64
76915,note_off,235,0,13,,,,,,,,11,,,,63,64
76915,note_off,235,0,12,,,,,,,,10,,,,75,64
77400,note_on,485,0,12,,,,,,,,10,,,,74,45
77400,note_on,485,0,6,,,,,,,,3,,,,77,45
77400,note_on,485,0,8,,,,,,,,5,,,,58,45
77400,note_on,485,0,7,,,,,,,,4,,,,74,45
77400,note_on,485,0,11,,,,,,,,8,,,,77,45
77400,note_on,485,0,13,,,,,,,,11,,,,58,45
77635,note_off,235,0,11,,,,,,,,8,,,,77,64
77635,note_off,235,0,7,,,,,,,,4,,,,74,64
77635,note_off,235,0,13,,,,,,,,11,,,,58,64
77635,note_off,235,0,12,,,,,,,,10,,,,74,64
77635,note_off,235,0,8,,,,,,,,5,,,,58,64
77635,note_off,235,0,6,,,,,,,,3,,,,77,64
78120,note_on,485,0,13,,,,,,,,11,,,,58,45
78120,note_on,485,0,7,,,,,,,,4,,,,77,45
78120,note_on,485,0,12,,,,,,,,10,,,,77,45
78120,note_on,485,0,8,,,,,,,,5,,,,58,45
78120,set_tempo,1440,1,0,1666666,,,,,,,,,,,,
78120,note_on,485,0,6,,,,,,,,3,,,,80,45
78120,note_on,485,0,11,,,,,,,,8,,,,80,45
78240,note_off,120,0,8,,,,,,,,5,,,,58,64
78240,note_off,120,0,6,,,,,,,,3,,,,80,64
78240,note_off,120,0,12,,,,,,,,10,,,,77,64
78240,note_off,120,0,7,,,,,,,,4,,,,77,64
78240,note_off,120,0,13,,,,,,,,11,,,,58,64
78240,note_off,120,0,11,,,,,,,,8,,,,80,64
78360,note_on,120,0,11,,,,,,,,8,,,,79,45
78360,note_on,120,0,6,,,,,,,,3,,,,79,45
78360,note_on,120,0,12,,,,,,,,10,,,,75,45
78360,note_on,120,0,7,,,,,,,,4,,,,75,45
78360,note_on,120,0,13,,,,,,,,11,,,,63,45
78360,note_on,120,0,8,,,,,,,,5,,,,63,45
78480,note_off,120,0,8,,,,,,,,5,,,,63,64
78480,note_off,120,0,13,,,,,,,,11,,,,63,64
78480,note_off,120,0,11,,,,,,,,8,,,,79,64
78480,note_off,120,0,7,,,,,,,,4,,,,75,64
78480,note_off,120,0,12,,,,,,,,10,,,,75,64
78480,note_off,120,0,6,,,,,,,,3,,,,79,64
78840,note_on,360,0,11,,,,,,,,8,,,,67,45
78840,note_on,360,0,13,,,,,,,,11,,,,63,45
78840,note_on,360,0,6,,,,,,,,3,,,,67,45
78840,note_on,360,0,8,,,,,,,,5,,,,63,45
78840,note_on,360,0,12,,,,,,,,10,,,,63,45
78840,note_on,360,0,7,,,,,,,,4,,,,63,45
78960,note_off,120,0,11,,,,,,,,8,,,,67,64
78960,note_off,120,0,6,,,,,,,,3,,,,67,64
78960,note_off,120,0,12,,,,,,,,10,,,,63,64
78960,note_off,120,0,13,,,,,,,,11,,,,63,64
78960,note_off,120,0,8,,,,,,,,5,,,,63,64
78960,note_off,120,0,7,,,,,,,,4,,,,63,64
79080,note_on,120,0,8,,,,,,,,5,,,,58,45
79080,note_on,120,0,13,,,,,,,,11,,,,58,45
79080,note_on,120,0,11,,,,,,,,8,,,,65,45
79080,note_on,120,0,7,,,,,,,,4,,,,62,45
79080,note_on,120,0,6,,,,,,,,3,,,,65,45
79080,note_on,120,0,12,,,,,,,,10,,,,62,45
79200,note_off,120,0,8,,,,,,,,5,,,,58,64
79200,note_off,120,0,6,,,,,,,,3,,,,65,64
79200,note_off,120,0,13,,,,,,,,11,,,,58,64
79200,note_off,120,0,7,,,,,,,,4,,,,62,64
79200,note_off,120,0,12,,,,,,,,10,,,,62,64
79200,note_off,120,0,11,,,,,,,,8,,,,65,64
79560,note_on,360,0,8,,,,,,,,5,,,,63,45
79560,note_on,360,0,7,,,,,,,,4,,,,79,45
79560,note_on,360,0,13,,,,,,,,11,,,,63,45
79560,note_on,360,0,6,,,,,,,,3,,,,82,45
79560,note_on,360,0,12,,,,,,,,10,,,,79,45
79560,note_on,360,0,11,,,,,,,,8,,,,82,45
79680,note_off,120,0,11,,,,,,,,8,,,,82,64
79680,note_off,120,0,13,,,,,,,,11,,,,63,64
79680,note_off,120,0,6,,,,,,,,3,,,,82,64
79680,note_off,120,0,12,,,,,,,,10,,,,79,64
79680,note_off,120,0,8,,,,,,,,5,,,,63,64
79680,note_off,120,0,7,,,,,,,,4,,,,79,64
79800,note_on,120,0,7,,,,,,,,4,,,,77,45
79800,note_on,120,0,12,,,,,,,,10,,,,77,45
79800,note_on,120,0,11,,,,,,,,8,,,,80,45
79800,note_on,120,0,6,,,,,,,,3,,,,80,45
79800,note_on,120,0,13,,,,,,,,11,,,,65,45
79800,note_on,120,0,8,,,,,,,,5,,,,65,45
79920,note_off,120,0,11,,,,,,,,8,,,,80,64
79920,note_off,120,0,13,,,,,,,,11,,,,65,64
79920,note_off,120,0,6,,,,,,,,3,,,,80,64
79920,note_off,120,0,7,,,,,,,,4,,,,77,64
79920,note_off,120,0,12,,,,,,,,10,,,,77,64
79920,note_off,120,0,8,,,,,,,,5,,,,65,64
80280,note_on,360,0,11,,,,,,,,8,,,,68,45
80280,note_on,360,0,6,,,,,,,,3,,,,68,45
80280,note_on,360,0,7,,,,,,,,4,,,,65,45
80280,note_on,360,0,8,,,,,,,,5,,,,62,45
80280,note_on,360,0,13,,,,,,,,11,,,,62,45
80280,note_on,360,0,12,,,,,,,,10,,,,65,45
80400,note_off,120,0,7,,,,,,,,4,,,,65,64
80400,note_off,120,0,8,,,,,,,,5,,,,62,64
80400,note_off,120,0,13,,,,,,,,11,,,,62,64
80400,note_off,120,0,6,,,,,,,,3,,,,68,64
80400,note_off,120,0,11,,,,,,,,8,,,,68,64
80400,note_off,120,0,12,,,,,,,,10,,,,65,64
80520,note_on,120,0,11,,,,,,,,8,,,,67,45
80520,note_on,120,0,7,,,,,,,,4,,,,63,45
80520,note_on,120,0,13,,,,,,,,11,,,,58,45
80520,note_on,120,0,8,,,,,,,,5,,,,58,45
80520,note_on,120,0,6,,,,,,,,3,,,,67,45
80520,note_on,120,0,12,,,,,,,,10,,,,63,45
80640,note_off,120,0,12,,,,,,,,10,,,,63,64
80640,note_off,120,0,6,,,,,,,,3,,,,67,64
80640,note_off,120,0,13,,,,,,,,11,,,,58,64
80640,note_off,120,0,8,,,,,,,,5,,,,58,64
80640,note_off,120,0,7,,,,,,,,4,,,,63,64
80640,note_off,120,0,11,,,,,,,,8,,,,67,64
81000,note_on,360,0,12,,,,,,,,10,,,,75,45
81000,set_tempo,2880,1,0,1578947,,,,,,,,,,,,
81000,note_on,360,0,7,,,,,,,,4,,,,75,45
81000,note_on,360,0,8,,,,,,,,5,,,,67,45
81000,note_on,360,0,11,,,,,,,,8,,,,79,45
81000,note_on,360,0,6,,,,,,,,3,,,,79,45
81000,note_on,360,0,13,,,,,,,,11,,,,67,45
81240,note_off,240,0,6,,,,,,,,3,,,,79,64
81240,note_on,0,0,6,,,,,,,,3,,,,80,45
81240,note_on,0,0,12,,,,,,,,10,,,,77,45
81240,note_on,0,0,13,,,,,,,,11,,,,65,45
81240,note_on,0,0,11,,,,,,,,8,,,,80,45
81240,note_off,240,0,11,,,,,,,,8,,,,79,64
81240,note_off,240,0,7,,,,,,,,4,,,,75,64
81240,note_on,0,0,7,,,,,,,,4,,,,77,45
81240,note_off,240,0,13,,,,,,,,11,,,,67,64
81240,note_off,240,0,8,,,,,,,,5,,,,67,64
81240,note_on,0,0,8,,,,,,,,5,,,,65,45
81240,note_off,240,0,12,,,,,,,,10,,,,75,64
81480,note_off,240,0,12,,,,,,,,10,,,,77,64
81480,note_on,0,0,7,,,,,,,,4,,,,79,45
81480,note_off,240,0,7,,,,,,,,4,,,,77,64
81480,note_off,240,0,8,,,,,,,,5,,,,65,64
81480,note_on,0,0,12,,,,,,,,10,,,,79,45
81480,note_on,0,0,13,,,,,,,,11,,,,63,45
81480,note_off,240,0,13,,,,,,,,11,,,,65,64
81480,note_off,240,0,11,,,,,,,,8,,,,80,64
81480,note_on,0,0,11,,,,,,,,8,,,,82,45
81480,note_off,240,0,6,,,,,,,,3,,,,80,64
81480,note_on,0,0,8,,,,,,,,5,,,,63,45
81480,note_on,0,0,6,,,,,,,,3,,,,82,45
81715,note_off,235,0,6,,,,,,,,3,,,,82,64
81715,note_off,235,0,8,,,,,,,,5,,,,63,64
81715,note_off,235,0,13,,,,,,,,11,,,,63,64
81715,note_off,235,0,7,,,,,,,,4,,,,79,64
81715,note_off,235,0,11,,,,,,,,8,,,,82,64
81715,note_off,235,0,12,,,,,,,,10,,,,79,64
81960,note_on,245,0,12,,,,,,,,10,,,,68,45
81960,note_on,245,0,8,,,,,,,,5,,,,68,45
81960,note_on,245,0,7,,,,,,,,4,,,,68,45
81960,note_on,245,0,13,,,,,,,,11,,,,68,45
81960,note_on,245,0,6,,,,,,,,3,,,,72,45
81960,note_on,245,0,11,,,,,,,,8,,,,72,45
82080,note_off,120,0,11,,,,,,,,8,,,,72,64
82080,note_on,0,0,7,,,,,,,,4,,,,70,45
82080,note_on,0,0,6,,,,,,,,3,,,,74,45
82080,note_on,0,0,11,,,,,,,,8,,,,74,45
82080,note_off,120,0,6,,,,,,,,3,,,,72,64
82080,note_off,120,0,7,,,,,,,,4,,,,68,64
82080,note_off,120,0,12,,,,,,,,10,,,,68,64
82080,note_on,0,0,12,,,,,,,,10,,,,70,45
82195,note_off,235,0,13,,,,,,,,11,,,,68,64
82195,note_off,235,0,8,,,,,,,,5,,,,68,64
82200,note_off,120,0,7,,,,,,,,4,,,,70,64
82200,note_on,5,0,8,,,,,,,,5,,,,56,45
82200,note_off,120,0,12,,,,,,,,10,,,,70,64
82200,note_on,0,0,11,,,,,,,,8,,,,75,45
82200,note_on,0,0,7,,,,,,,,4,,,,72,45
82200,note_on,0,0,12,,,,,,,,10,,,,72,45
82200,note_on,0,0,6,,,,,,,,3,,,,75,45
82200,note_off,120,0,6,,,,,,,,3,,,,74,64
82200,note_on,5,0,13,,,,,,,,11,,,,56,45
82200,note_off,120,0,11,,,,,,,,8,,,,74,64
82435,note_off,235,0,8,,,,,,,,5,,,,56,64
82435,note_off,235,0,13,,,,,,,,11,,,,56,64
82435,note_off,235,0,7,,,,,,,,4,,,,72,64
82435,note_off,235,0,12,,,,,,,,10,,,,72,64
82435,note_off,235,0,11,,,,,,,,8,,,,75,64
82435,note_off,235,0,6,,,,,,,,3,,,,75,64
82680,note_on,245,0,12,,,,,,,,10,,,,77,45
82680,note_on,245,0,13,,,,,,,,11,,,,68,45
82680,note_on,245,0,11,,,,,,,,8,,,,80,45
82680,note_on,245,0,6,,,,,,,,3,,,,80,45
82680,note_on,245,0,7,,,,,,,,4,,,,77,45
82680,note_on,245,0,8,,,,,,,,5,,,,68,45
82800,note_on,0,0,12,,,,,,,,10,,,,75,45
82800,note_off,120,0,12,,,,,,,,10,,,,77,64
82800,note_off,120,0,6,,,,,,,,3,,,,80,64
82800,set_tempo,1800,1,0,1538461,,,,,,,,,,,,
82800,note_on,0,0,6,,,,,,,,3,,,,79,45
82800,note_off,120,0,11,,,,,,,,8,,,,80,64
82800,note_on,0,0,7,,,,,,,,4,,,,75,45
82800,note_off,120,0,7,,,,,,,,4,,,,77,64
82800,note_on,0,0,11,,,,,,,,8,,,,79,45
82915,note_off,235,0,13,,,,,,,,11,,,,68,64
82915,note_off,235,0,8,,,,,,,,5,,,,68,64
82920,note_on,5,0,8,,,,,,,,5,,,,70,45
82920,note_on,5,0,13,,,,,,,,11,,,,70,45
82920,note_on,0,0,6,,,,,,,,3,,,,77,45
82920,note_off,120,0,6,,,,,,,,3,,,,79,64
82920,note_off,120,0,11,,,,,,,,8,,,,79,64
82920,set_tempo,120,1,0,1621621,,,,,,,,,,,,
82920,note_off,120,0,7,,,,,,,,4,,,,75,64
82920,note_on,0,0,7,,,,,,,,4,,,,74,45
82920,note_off,120,0,12,,,,,,,,10,,,,75,64
82920,note_on,0,0,12,,,,,,,,10,,,,74,45
82920,note_on,0,0,11,,,,,,,,8,,,,77,45
83155,note_off,235,0,11,,,,,,,,8,,,,77,64
83155,note_off,235,0,7,,,,,,,,4,,,,74,64
83155,note_off,235,0,13,,,,,,,,11,,,,70,64
83155,note_off,235,0,12,,,,,,,,10,,,,74,64
83155,note_off,235,0,6,,,,,,,,3,,,,77,64
83155,note_off,235,0,8,,,,,,,,5,,,,70,64
83160,note_on,5,0,11,,,,,,,,8,,,,75,45
83160,note_on,5,0,6,,,,,,,,3,,,,75,45
83160,note_on,5,0,13,,,,,,,,11,,,,63,45
83160,set_tempo,240,1,0,1538461,,,,,,,,,,,,
83160,note_on,5,0,7,,,,,,,,4,,,,67,45
83160,note_on,5,0,12,,,,,,,,10,,,,67,45
83160,note_on,5,0,8,,,,,,,,5,,,,63,45
83560,note_off,400,0,8,,,,,,,,5,,,,63,64
83560,note_off,400,0,13,,,,,,,,11,,,,63,64
83560,note_off,400,0,6,,,,,,,,3,,,,75,64
83560,note_off,400,0,11,,,,,,,,8,,,,75,64
83560,note_off,400,0,7,,,,,,,,4,,,,67,64
83560,note_off,400,0,12,,,,,,,,10,,,,67,64
84000,note_on,440,0,8,,,,,,,,5,,,,67,30
84000,set_tempo,840,1,0,1621621,,,,,,,,,,,,
84000,note_on,440,0,11,,,,,,,,8,,,,79,30
84000,note_on,440,0,12,,,,,,,,10,,,,75,30
84000,note_on,440,0,6,,,,,,,,3,,,,79,30
84000,note_on,440,0,7,,,,,,,,4,,,,75,30
84000,note_on,440,0,13,,,,,,,,11,,,,67,30
84240,note_off,240,0,13,,,,,,,,11,,,,67,64
84240,note_off,240,0,6,,,,,,,,3,,,,79,64
84240,set_tempo,240,1,0,1538461,,,,,,,,,,,,
84240,note_on,0,0,12,,,,,,,,10,,,,77,30
84240,note_off,240,0,12,,,,,,,,10,,,,75,64
84240,note_on,0,0,7,,,,,,,,4,,,,77,30
84240,note_off,240,0,7,,,,,,,,4,,,,75,64
84240,note_on,0,0,6,,,,,,,,3,,,,80,30
84240,note_on,0,0,13,,,,,,,,11,,,,65,30
84240,note_off,240,0,8,,,,,,,,5,,,,67,64
84240,note_on,0,0,8,,,,,,,,5,,,,65,30
84240,note_off,240,0,11,,,,,,,,8,,,,79,64
84240,note_on,0,0,11,,,,,,,,8,,,,80,30
84480,note_on,0,0,7,,,,,,,,4,,,,79,30
84480,note_off,240,0,12,,,,,,,,10,,,,77,64
84480,note_on,0,0,12,,,,,,,,10,,,,79,30
84480,note_off,240,0,11,,,,,,,,8,,,,80,64
84480,note_on,0,0,11,,,,,,,,8,,,,82,30
84480,note_off,240,0,7,,,,,,,,4,,,,77,64
84480,note_on,0,0,6,,,,,,,,3,,,,82,30
84480,note_off,240,0,6,,,,,,,,3,,,,80,64
84480,note_off,240,0,8,,,,,,,,5,,,,65,64
84480,set_tempo,240,1,0,1621621,,,,,,,,,,,,
84480,note_off,240,0,13,,,,,,,,11,,,,65,64
84480,note_on,0,0,13,,,,,,,,11,,,,63,30
84480,note_on,0,0,8,,,,,,,,5,,,,63,30
84715,note_off,235,0,6,,,,,,,,3,,,,82,64
84715,note_off,235,0,11,,,,,,,,8,,,,82,64
84715,note_off,235,0,8,,,,,,,,5,,,,63,64
84715,note_off,235,0,7,,,,,,,,4,,,,79,64
84715,note_off,235,0,12,,,,,,,,10,,,,79,64
84715,note_off,235,0,13,,,,,,,,11,,,,63,64
84960,note_on,245,0,11,,,,,,,,8,,,,72,30
84960,note_on,245,0,8,,,,,,,,5,,,,68,30
84960,note_on,245,0,13,,,,,,,,11,,,,68,30
84960,note_on,245,0,12,,,,,,,,10,,,,68,30
84960,note_on,245,0,6,,,,,,,,3,,,,72,30
84960,note_on,245,0,7,,,,,,,,4,,,,68,30
84960,set_tempo,480,1,0,1714285,,,,,,,,,,,,
85080,note_on,0,0,7,,,,,,,,4,,,,70,30
85080,note_off,120,0,7,,,,,,,,4,,,,68,64
85080,note_off,120,0,12,,,,,,,,10,,,,68,64
85080,note_on,0,0,12,,,,,,,,10,,,,70,30
85080,note_on,0,0,6,,,,,,,,3,,,,74,30
85080,note_off,120,0,11,,,,,,,,8,,,,72,64
85080,note_on,0,0,11,,,,,,,,8,,,,74,30
85080,note_off,120,0,6,,,,,,,,3,,,,72,64
85195,note_off,235,0,13,,,,,,,,11,,,,68,64
85195,note_off,235,0,8,,,,,,,,5,,,,68,64
85200,note_on,5,0,8,,,,,,,,5,,,,56,30
85200,set_tempo,240,1,0,1621621,,,,,,,,,,,,
85200,note_off,120,0,11,,,,,,,,8,,,,74,64
85200,note_on,0,0,11,,,,,,,,8,,,,75,30
85200,note_on,0,0,7,,,,,,,,4,,,,72,30
85200,note_on,0,0,12,,,,,,,,10,,,,72,30
85200,note_off,120,0,12,,,,,,,,10,,,,70,64
85200,note_on,5,0,13,,,,,,,,11,,,,56,30
85200,note_off,120,0,7,,,,,,,,4,,,,70,64
85200,note_off,120,0,6,,,,,,,,3,,,,74,64
85200,note_on,0,0,6,,,,,,,,3,,,,75,30
85435,note_off,235,0,7,,,,,,,,4,,,,72,64
85435,note_off,235,0,13,,,,,,,,11,,,,56,64
85435,note_off,235,0,6,,,,,,,,3,,,,75,64
85435,note_off,235,0,12,,,,,,,,10,,,,72,64
85435,note_off,235,0,8,,,,,,,,5,,,,56,64
85435,note_off,235,0,11,,,,,,,,8,,,,75,64
85440,set_tempo,240,1,0,1714285,,,,,,,,,,,,
85680,note_on,245,0,11,,,,,,,,8,,,,80,30
85680,note_on,245,0,8,,,,,,,,5,,,,68,30
85680,note_on,245,0,12,,,,,,,,10,,,,77,30
85680,note_on,245,0,7,,,,,,,,4,,,,77,30
85680,set_tempo,240,1,0,1818181,,,,,,,,,,,,
85680,note_on,245,0,6,,,,,,,,3,,,,80,30
85680,note_on,245,0,13,,,,,,,,11,,,,68,30
85800,note_off,120,0,6,,,,,,,,3,,,,80,64
85800,note_off,120,0,12,,,,,,,,10,,,,77,64
85800,set_tempo,120,1,0,1935483,,,,,,,,,,,,
85800,note_on,0,0,11,,,,,,,,8,,,,79,30
85800,note_off,120,0,11,,,,,,,,8,,,,80,64
85800,note_on,0,0,7,,,,,,,,4,,,,75,30
85800,note_off,120,0,7,,,,,,,,4,,,,77,64
85800,note_on,0,0,12,,,,,,,,10,,,,75,30
85800,note_on,0,0,6,,,,,,,,3,,,,79,30
85915,note_off,235,0,13,,,,,,,,11,,,,68,64
85915,note_off,235,0,8,,,,,,,,5,,,,68,64
85920,note_on,5,0,13,,,,,,,,11,,,,70,30
85920,note_off,120,0,7,,,,,,,,4,,,,75,64
85920,note_off,120,0,12,,,,,,,,10,,,,75,64
85920,note_off,120,0,11,,,,,,,,8,,,,79,64
85920,note_on,0,0,7,,,,,,,,4,,,,74,30
85920,note_off,120,0,6,,,,,,,,3,,,,79,64
85920,note_on,0,0,6,,,,,,,,3,,,,77,30
85920,note_on,0,0,11,,,,,,,,8,,,,77,30
85920,set_tempo,120,1,0,2068965,,,,,,,,,,,,
85920,note_on,0,0,12,,,,,,,,10,,,,74,30
85920,note_on,5,0,8,,,,,,,,5,,,,70,30
86155,note_off,235,0,11,,,,,,,,8,,,,77,64
86155,note_off,235,0,13,,,,,,,,11,,,,70,64
86155,note_off,235,0,12,,,,,,,,10,,,,74,64
86155,note_off,235,0,7,,,,,,,,4,,,,74,64
86155,note_off,235,0,6,,,,,,,,3,,,,77,64
86155,note_off,235,0,8,,,,,,,,5,,,,70,64
86400,note_on,245,0,8,,,,,,,,5,,,,58,92
86400,note_on,19640,0,10,,,,,,,,7,,,,39,92
86400,note_on,19640,0,15,,,,,,,,13,,,,39,75
86400,note_on,245,0,13,,,,,,,,11,,,,58,75
86400,note_on,14600,0,9,,,,,,,,6,,,,51,92
86400,note_on,58840,0,2,,,,,,,,0,,,,51,75
86400,note_on,86400,0,3,,,,,,,,14,,,,39,60
86400,note_on,58840,0,1,,,,,,,,0,,,,63,75
86400,note_on,14600,0,4,,,,,,,,1,,,,75,92
86400,note_on,0,0,1,,,,,,,,0,,,,70,75
86400,set_tempo,480,1,0,731707,,,,,,,,,,,,
86400,note_on,14600,0,14,,,,,,,,12,,,,51,75
86400,note_on,245,0,6,,,,,,,,3,,,,75,92
86400,note_on,0,0,1,,,,,,,,0,,,,75,75
86400,note_on,245,0,7,,,,,,,,4,,,,67,92
86400,note_on,245,0,11,,,,,,,,8,,,,75,75
86400,note_on,245,0,12,,,,,,,,10,,,,67,75
86400,note_on,0,0,1,,,,,,,,0,,,,67,75
86400,note_on,14600,0,5,,,,,,,,2,,,,75,75
86440,note_off,40,0,5,,,,,,,,2,,,,75,64
86440,note_off,40,0,4,,,,,,,,1,,,,75,64
86460,note_on,20,0,4,,,,,,,,1,,,,70,92
86460,note_on,20,0,5,,,,,,,,2,,,,70,75
86500,note_off,40,0,5,,,,,,,,2,,,,70,64
86500,note_off,40,0,4,,,,,,,,1,,,,70,64
86520,note_on,20,0,5,,,,,,,,2,,,,72,75
86520,note_on,20,0,4,,,,,,,,1,,,,72,92
86560,note_off,40,0,5,,,,,,,,2,,,,72,64
86560,note_off,40,0,4,,,,,,,,1,,,,72,64
86580,note_on,20,0,5,,,,,,,,2,,,,74,75
86580,note_on,20,0,4,,,,,,,,1,,,,74,92
86620,note_off,40,0,5,,,,,,,,2,,,,74,64
86620,note_off,40,0,4,,,,,,,,1,,,,74,64
86640,note_on,20,0,4,,,,,,,,1,,,,75,92
86640,note_on,20,0,5,,,,,,,,2,,,,75,75
86680,note_off,40,0,4,,,,,,,,1,,,,75,64
86680,note_off,40,0,5,,,,,,,,2,,,,75,64
86700,note_on,20,0,4,,,,,,,,1,,,,77,92
86700,note_on,20,0,5,,,,,,,,2,,,,77,75
86740,note_off,40,0,5,,,,,,,,2,,,,77,64
86740,note_off,40,0,4,,,,,,,,1,,,,77,64
86760,note_on,20,0,4,,,,,,,,1,,,,79,92
86760,note_on,20,0,5,,,,,,,,2,,,,79,75
86800,note_off,400,0,11,,,,,,,,8,,,,75,64
86800,note_off,0,0,1,,,,,,,,0,,,,70,64
86800,note_off,400,0,2,,,,,,,,0,,,,51,64
86800,note_off,400,0,1,,,,,,,,0,,,,75,64
86800,note_off,400,0,13,,,,,,,,11,,,,58,64
86800,note_off,400,0,15,,,,,,,,13,,,,39,64
86800,note_off,400,0,10,,,,,,,,7,,,,39,64
86800,note_off,400,0,3,,,,,,,,14,,,,39,64
86800,note_off,400,0,9,,,,,,,,6,,,,51,64
86800,note_off,0,0,1,,,,,,,,0,,,,63,64
86800,note_off,40,0,4,,,,,,,,1,,,,79,64
86800,note_off,400,0,8,,,,,,,,5,,,,58,64
86800,note_off,40,0,5,,,,,,,,2,,,,79,64
86800,note_off,400,0,12,,,,,,,,10,,,,67,64
86800,note_off,400,0,14,,,,,,,,12,,,,51,64
86800,note_off,400,0,6,,,,,,,,3,,,,75,64
86800,note_off,0,0,1,,,,,,,,0,,,,67,64
86800,note_off,400,0,7,,,,,,,,4,,,,67,64
86820,note_on,20,0,5,,,,,,,,2,,,,80,75
86820,note_on,20,0,4,,,,,,,,1,,,,80,92
86860,note_off,40,0,4,,,,,,,,1,,,,80,64
86860,note_off,40,0,5,,,,,,,,2,,,,80,64
86880,note_on,20,0,4,,,,,,,,1,,,,82,92
86880,note_on,20,0,5,,,,,,,,2,,,,82,75
86920,note_off,40,0,5,,,,,,,,2,,,,82,64
86920,note_off,40,0,4,,,,,,,,1,,,,82,64
86940,note_on,20,0,5,,,,,,,,2,,,,80,75
86940,note_on,20,0,4,,,,,,,,1,,,,80,92
86980,note_off,40,0,4,,,,,,,,1,,,,80,64
86980,note_off,40,0,5,,,,,,,,2,,,,80,64
87000,note_on,20,0,5,,,,,,,,2,,,,79,75
87000,note_on,20,0,4,,,,,,,,1,,,,79,92
87040,note_off,40,0,4,,,,,,,,1,,,,79,64
87040,note_off,40,0,5,,,,,,,,2,,,,79,64
87060,note_on,20,0,4,,,,,,,,1,,,,77,92
87060,note_on,20,0,5,,,,,,,,2,,,,77,75
87100,note_off,40,0,5,,,,,,,,2,,,,77,64
87100,note_off,40,0,4,,,,,,,,1,,,,77,64
87120,note_on,20,0,4,,,,,,,,1,,,,75,92
87120,note_on,20,0,5,,,,,,,,2,,,,75,75
87120,set_tempo,720,1,0,731707,,,,,,,,,,,,
87160,note_off,40,0,4,,,,,,,,1,,,,75,64
87160,note_off,40,0,5,,,,,,,,2,,,,75,64
87180,note_on,20,0,5,,,,,,,,2,,,,74,75
87180,note_on,20,0,4,,,,,,,,1,,,,74,92
87220,note_off,40,0,4,,,,,,,,1,,,,74,64
87220,note_off,40,0,5,,,,,,,,2,,,,74,64
87240,note_on,20,0,4,,,,,,,,1,,,,72,92
87240,note_on,20,0,5,,,,,,,,2,,,,72,75
87280,note_off,40,0,5,,,,,,,,2,,,,72,64
87280,note_off,40,0,4,,,,,,,,1,,,,72,64
87300,note_on,20,0,4,,,,,,,,1,,,,70,92
87300,note_on,20,0,5,,,,,,,,2,,,,70,75
87340,note_off,40,0,4,,,,,,,,1,,,,70,64
87340,note_off,40,0,5,,,,,,,,2,,,,70,64
87360,note_on,20,0,4,,,,,,,,1,,,,72,92
87360,note_on,20,0,5,,,,,,,,2,,,,72,75
87400,note_off,40,0,4,,,,,,,,1,,,,72,64
87400,note_off,40,0,5,,,,,,,,2,,,,72,64
87420,note_on,20,0,5,,,,,,,,2,,,,70,75
87420,note_on,20,0,4,,,,,,,,1,,,,70,92
87460,note_off,40,0,4,,,,,,,,1,,,,70,64
87460,note_off,40,0,5,,,,,,,,2,,,,70,64
87480,note_on,20,0,4,,,,,,,,1,,,,68,92
87480,note_on,20,0,5,,,,,,,,2,,,,68,75
87520,note_off,40,0,4,,,,,,,,1,,,,68,64
87520,note_off,40,0,5,,,,,,,,2,,,,68,64
87540,note_on,20,0,5,,,,,,,,2,,,,67,75
87540,note_on,20,0,4,,,,,,,,1,,,,67,92
87580,note_off,40,0,4,,,,,,,,1,,,,67,64
87580,note_off,40,0,5,,,,,,,,2,,,,67,64
87600,note_on,20,0,5,,,,,,,,2,,,,68,75
87600,note_on,20,0,4,,,,,,,,1,,,,68,92
87640,note_off,40,0,5,,,,,,,,2,,,,68,64
87640,note_off,40,0,4,,,,,,,,1,,,,68,64
87660,note_on,20,0,5,,,,,,,,2,,,,67,75
87660,note_on,20,0,4,,,,,,,,1,,,,67,92
87700,note_off,40,0,4,,,,,,,,1,,,,67,64
87700,note_off,40,0,5,,,,,,,,2,,,,67,64
87720,note_on,20,0,5,,,,,,,,2,,,,65,75
87720,note_on,20,0,4,,,,,,,,1,,,,65,92
87760,note_off,40,0,5,,,,,,,,2,,,,65,64
87760,note_off,40,0,4,,,,,,,,1,,,,65,64
87780,note_on,20,0,5,,,,,,,,2,,,,63,75
87780,note_on,20,0,4,,,,,,,,1,,,,63,92
87820,note_off,40,0,5,,,,,,,,2,,,,63,64
87820,note_off,40,0,4,,,,,,,,1,,,,63,64
87840,note_on,20,0,5,,,,,,,,2,,,,62,75
87840,note_on,20,0,4,,,,,,,,1,,,,62,92
87880,note_off,40,0,5,,,,,,,,2,,,,62,64
87880,note_off,40,0,4,,,,,,,,1,,,,62,64
87900,note_on,20,0,4,,,,,,,,1,,,,58,92
87900,note_on,20,0,5,,,,,,,,2,,,,58,75
87940,note_off,40,0,5,,,,,,,,2,,,,58,64
87940,note_off,40,0,4,,,,,,,,1,,,,58,64
87960,note_on,20,0,5,,,,,,,,2,,,,60,75
87960,note_on,20,0,4,,,,,,,,1,,,,60,92
88000,note_off,40,0,5,,,,,,,,2,,,,60,64
88000,note_off,40,0,4,,,,,,,,1,,,,60,64
88020,note_on,20,0,4,,,,,,,,1,,,,62,92
88020,note_on,20,0,5,,,,,,,,2,,,,62,75
88060,note_off,40,0,5,,,,,,,,2,,,,62,64
88060,note_off,40,0,4,,,,,,,,1,,,,62,64
88080,note_on,20,0,5,,,,,,,,2,,,,63,75
88080,note_on,20,0,4,,,,,,,,1,,,,63,92
88120,note_off,40,0,5,,,,,,,,2,,,,63,64
88120,note_off,40,0,4,,,,,,,,1,,,,63,64
88140,note_on,20,0,5,,,,,,,,2,,,,65,75
88140,note_on,20,0,4,,,,,,,,1,,,,65,92
88180,note_off,40,0,5,,,,,,,,2,,,,65,64
88180,note_off,40,0,4,,,,,,,,1,,,,65,64
88200,note_on,20,0,5,,,,,,,,2,,,,67,75
88200,note_on,20,0,4,,,,,,,,1,,,,67,92
88240,note_off,40,0,5,,,,,,,,2,,,,67,64
88240,note_off,40,0,4,,,,,,,,1,,,,67,64
88260,note_on,20,0,4,,,,,,,,1,,,,68,92
88260,note_on,20,0,5,,,,,,,,2,,,,68,75
88300,note_off,40,0,5,,,,,,,,2,,,,68,64
88300,note_off,40,0,4,,,,,,,,1,,,,68,64
88320,note_on,20,0,5,,,,,,,,2,,,,70,75
88320,note_on,20,0,4,,,,,,,,1,,,,70,92
88360,note_off,40,0,4,,,,,,,,1,,,,70,64
88360,note_off,40,0,5,,,,,,,,2,,,,70,64
88380,note_on,20,0,5,,,,,,,,2,,,,68,75
88380,note_on,20,0,4,,,,,,,,1,,,,68,92
88420,note_off,40,0,5,,,,,,,,2,,,,68,64
88420,note_off,40,0,4,,,,,,,,1,,,,68,64
88440,note_on,20,0,5,,,,,,,,2,,,,67,75
88440,note_on,20,0,4,,,,,,,,1,,,,67,92
88480,note_off,40,0,5,,,,,,,,2,,,,67,64
88480,note_off,40,0,4,,,,,,,,1,,,,67,64
88500,note_on,20,0,4,,,,,,,,1,,,,65,92
88500,note_on,20,0,5,,,,,,,,2,,,,65,75
88540,note_off,40,0,5,,,,,,,,2,,,,65,64
88540,note_off,40,0,4,,,,,,,,1,,,,65,64
88560,note_on,20,0,5,,,,,,,,2,,,,67,75
88560,note_on,20,0,4,,,,,,,,1,,,,67,92
88600,note_off,40,0,5,,,,,,,,2,,,,67,64
88600,note_off,40,0,4,,,,,,,,1,,,,67,64
88620,note_on,20,0,5,,,,,,,,2,,,,63,75
88620,note_on,20,0,4,,,,,,,,1,,,,63,92
88660,note_off,40,0,5,,,,,,,,2,,,,63,64
88660,note_off,40,0,4,,,,,,,,1,,,,63,64
88680,note_on,20,0,4,,,,,,,,1,,,,65,92
88680,note_on,20,0,5,,,,,,,,2,,,,65,75
88720,note_off,40,0,4,,,,,,,,1,,,,65,64
88720,note_off,40,0,5,,,,,,,,2,,,,65,64
88740,note_on,20,0,4,,,,,,,,1,,,,67,92
88740,note_on,20,0,5,,,,,,,,2,,,,67,75
88780,note_off,40,0,4,,,,,,,,1,,,,67,64
88780,note_off,40,0,5,,,,,,,,2,,,,67,64
88800,note_on,20,0,4,,,,,,,,1,,,,68,92
88800,note_on,20,0,5,,,,,,,,2,,,,68,75
88840,note_off,40,0,4,,,,,,,,1,,,,68,64
88840,note_off,40,0,5,,,,,,,,2,,,,68,64
88860,note_on,20,0,4,,,,,,,,1,,,,70,92
88860,note_on,20,0,5,,,,,,,,2,,,,70,75
88900,note_off,40,0,4,,,,,,,,1,,,,70,64
88900,note_off,40,0,5,,,,,,,,2,,,,70,64
88920,note_on,20,0,4,,,,,,,,1,,,,72,92
88920,note_on,20,0,5,,,,,,,,2,,,,72,75
88960,note_off,40,0,5,,,,,,,,2,,,,72,64
88960,note_off,40,0,4,,,,,,,,1,,,,72,64
88980,note_on,20,0,4,,,,,,,,1,,,,74,92
88980,note_on,20,0,5,,,,,,,,2,,,,74,75
89020,note_off,40,0,4,,,,,,,,1,,,,74,64
89020,note_off,40,0,5,,,,,,,,2,,,,74,64
89040,note_on,20,0,4,,,,,,,,1,,,,75,92
89040,note_on,20,0,5,,,,,,,,2,,,,75,75
89080,note_off,40,0,5,,,,,,,,2,,,,75,64
89080,note_off,40,0,4,,,,,,,,1,,,,75,64
89100,note_on,20,0,5,,,,,,,,2,,,,77,75
89100,note_on,20,0,4,,,,,,,,1,,,,77,92
89140,note_off,40,0,5,,,,,,,,2,,,,77,64
89140,note_off,40,0,4,,,,,,,,1,,,,77,64
89160,note_on,20,0,5,,,,,,,,2,,,,79,75
89160,note_on,20,0,4,,,,,,,,1,,,,79,92
89200,note_off,40,0,5,,,,,,,,2,,,,79,64
89200,note_off,40,0,4,,,,,,,,1,,,,79,64
89220,note_on,20,0,4,,,,,,,,1,,,,80,92
89220,note_on,20,0,5,,,,,,,,2,,,,80,75
89260,note_off,40,0,4,,,,,,,,1,,,,80,64
89260,note_off,40,0,5,,,,,,,,2,,,,80,64
89280,note_on,2480,0,10,,,,,,,,7,,,,34,108
89280,note_on,2480,0,9,,,,,,,,6,,,,46,108
89280,note_on,2480,0,6,,,,,,,,3,,,,77,108
89280,note_on,2480,0,11,,,,,,,,8,,,,77,92
89280,note_on,2480,0,12,,,,,,,,10,,,,73,92
89280,note_on,2480,0,8,,,,,,,,5,,,,70,108
89280,note_on,2480,0,7,,,,,,,,4,,,,73,108
89280,note_on,2480,0,14,,,,,,,,12,,,,46,92
89280,note_on,2480,0,15,,,,,,,,13,,,,34,92
89280,note_on,2480,0,13,,,,,,,,11,,,,70,92
89320,note_off,40,0,7,,,,,,,,4,,,,73,64
89320,note_off,40,0,9,,,,,,,,6,,,,46,64
89320,note_off,40,0,10,,,,,,,,7,,,,34,64
89320,note_off,40,0,6,,,,,,,,3,,,,77,64
89320,note_off,40,0,14,,,,,,,,12,,,,46,64
89320,note_off,40,0,13,,,,,,,,11,,,,70,64
89320,note_off,40,0,8,,,,,,,,5,,,,70,64
89320,note_off,40,0,12,,,,,,,,10,,,,73,64
89320,note_off,40,0,15,,,,,,,,13,,,,34,64
89320,note_off,40,0,11,,,,,,,,8,,,,77,64
89340,note_on,20,0,7,,,,,,,,4,,,,73,108
89340,note_on,20,0,12,,,,,,,,10,,,,73,92
89340,note_on,20,0,11,,,,,,,,8,,,,77,92
89340,note_on,20,0,8,,,,,,,,5,,,,70,108
89340,note_on,20,0,10,,,,,,,,7,,,,34,108
89340,note_on,20,0,9,,,,,,,,6,,,,46,108
89340,note_on,20,0,13,,,,,,,,11,,,,70,92
89340,note_on,20,0,15,,,,,,,,13,,,,34,92
89340,note_on,20,0,6,,,,,,,,3,,,,77,108
89340,note_on,20,0,14,,,,,,,,12,,,,46,92
89380,note_off,40,0,14,,,,,,,,12,,,,46,64
89380,note_off,40,0,8,,,,,,,,5,,,,70,64
89380,note_off,40,0,15,,,,,,,,13,,,,34,64
89380,note_off,40,0,12,,,,,,,,10,,,,73,64
89380,note_off,40,0,6,,,,,,,,3,,,,77,64
89380,note_off,40,0,10,,,,,,,,7,,,,34,64
89380,note_off,40,0,13,,,,,,,,11,,,,70,64
89380,note_off,40,0,7,,,,,,,,4,,,,73,64
89380,note_off,40,0,9,,,,,,,,6,,,,46,64
89380,note_off,40,0,11,,,,,,,,8,,,,77,64
89400,note_on,20,0,14,,,,,,,,12,,,,46,92
89400,note_on,20,0,7,,,,,,,,4,,,,73,108
89400,note_on,20,0,8,,,,,,,,5,,,,70,108
89400,note_on,20,0,10,,,,,,,,7,,,,34,108
89400,note_on,20,0,13,,,,,,,,11,,,,70,92
89400,note_on,20,0,9,,,,,,,,6,,,,46,108
89400,note_on,20,0,11,,,,,,,,8,,,,77,92
89400,note_on,20,0,6,,,,,,,,3,,,,77,108
89400,note_on,20,0,15,,,,,,,,13,,,,34,92
89400,note_on,20,0,12,,,,,,,,10,,,,73,92
89440,note_off,40,0,14,,,,,,,,12,,,,46,64
89440,note_off,40,0,13,,,,,,,,11,,,,70,64
89440,note_off,40,0,9,,,,,,,,6,,,,46,64
89440,note_off,40,0,7,,,,,,,,4,,,,73,64
89440,note_off,40,0,10,,,,,,,,7,,,,34,64
89440,note_off,40,0,11,,,,,,,,8,,,,77,64
89440,note_off,40,0,8,,,,,,,,5,,,,70,64
89440,note_off,40,0,15,,,,,,,,13,,,,34,64
89440,note_off,40,0,12,,,,,,,,10,,,,73,64
89440,note_off,40,0,6,,,,,,,,3,,,,77,64
89460,note_on,20,0,10,,,,,,,,7,,,,34,108
89460,note_on,20,0,11,,,,,,,,8,,,,77,92
89460,note_on,20,0,15,,,,,,,,13,,,,34,92
89460,note_on,20,0,6,,,,,,,,3,,,,77,108
89460,note_on,20,0,12,,,,,,,,10,,,,73,92
89460,note_on,20,0,14,,,,,,,,12,,,,46,92
89460,note_on,20,0,9,,,,,,,,6,,,,46,108
89460,note_on,20,0,8,,,,,,,,5,,,,70,108
89460,note_on,20,0,7,,,,,,,,4,,,,73,108
89460,note_on,20,0,13,,,,,,,,11,,,,70,92
89500,note_off,40,0,7,,,,,,,,4,,,,73,64
89500,note_off,40,0,8,,,,,,,,5,,,,70,64
89500,note_off,40,0,10,,,,,,,,7,,,,34,64
89500,note_off,40,0,13,,,,,,,,11,,,,70,64
89500,note_off,40,0,12,,,,,,,,10,,,,73,64
89500,note_off,40,0,9,,,,,,,,6,,,,46,64
89500,note_off,40,0,6,,,,,,,,3,,,,77,64
89500,note_off,40,0,15,,,,,,,,13,,,,34,64
89500,note_off,40,0,11,,,,,,,,8,,,,77,64
89500,note_off,40,0,14,,,,,,,,12,,,,46,64
89520,note_on,20,0,10,,,,,,,,7,,,,34,108
89520,note_on,20,0,8,,,,,,,,5,,,,70,108
89520,note_on,20,0,12,,,,,,,,10,,,,73,92
89520,note_on,20,0,9,,,,,,,,6,,,,46,108
89520,note_on,20,0,15,,,,,,,,13,,,,34,92
89520,note_on,20,0,11,,,,,,,,8,,,,77,92
89520,note_on,20,0,14,,,,,,,,12,,,,46,92
89520,note_on,20,0,6,,,,,,,,3,,,,77,108
89520,note_on,20,0,13,,,,,,,,11,,,,70,92
89520,note_on,20,0,7,,,,,,,,4,,,,73,108
89560,note_off,40,0,13,,,,,,,,11,,,,70,64
89560,note_off,40,0,9,,,,,,,,6,,,,46,64
89560,note_off,40,0,14,,,,,,,,12,,,,46,64
89560,note_off,40,0,15,,,,,,,,13,,,,34,64
89560,note_off,40,0,10,,,,,,,,7,,,,34,64
89560,note_off,40,0,7,,,,,,,,4,,,,73,64
89560,note_off,40,0,8,,,,,,,,5,,,,70,64
89560,note_off,40,0,11,,,,,,,,8,,,,77,64
89560,note_off,40,0,12,,,,,,,,10,,,,73,64
89560,note_off,40,0,6,,,,,,,,3,,,,77,64
89580,note_on,20,0,12,,,,,,,,10,,,,73,92
89580,note_on,20,0,15,,,,,,,,13,,,,34,92
89580,note_on,20,0,8,,,,,,,,5,,,,70,108
89580,note_on,20,0,13,,,,,,,,11,,,,70,92
89580,note_on,20,0,6,,,,,,,,3,,,,77,108
89580,note_on,20,0,9,,,,,,,,6,,,,46,108
89580,note_on,20,0,14,,,,,,,,12,,,,46,92
89580,note_on,20,0,10,,,,,,,,7,,,,34,108
89580,note_on,20,0,11,,,,,,,,8,,,,77,92
89580,note_on,20,0,7,,,,,,,,4,,,,73,108
89620,note_off,40,0,9,,,,,,,,6,,,,46,64
89620,note_off,40,0,14,,,,,,,,12,,,,46,64
89620,note_off,40,0,11,,,,,,,,8,,,,77,64
89620,note_off,40,0,6,,,,,,,,3,,,,77,64
89620,note_off,40,0,7,,,,,,,,4,,,,73,64
89620,note_off,40,0,10,,,,,,,,7,,,,34,64
89620,note_off,40,0,8,,,,,,,,5,,,,70,64
89620,note_off,40,0,13,,,,,,,,11,,,,70,64
89620,note_off,40,0,12,,,,,,,,10,,,,73,64
89620,note_off,40,0,15,,,,,,,,13,,,,34,64
89640,note_on,20,0,12,,,,,,,,10,,,,73,92
89640,note_on,20,0,6,,,,,,,,3,,,,77,108
89640,note_on,20,0,14,,,,,,,,12,,,,46,92
89640,note_on,20,0,8,,,,,,,,5,,,,70,108
89640,note_on,20,0,9,,,,,,,,6,,,,46,108
89640,note_on,20,0,11,,,,,,,,8,,,,77,92
89640,note_on,20,0,10,,,,,,,,7,,,,34,108
89640,note_on,20,0,7,,,,,,,,4,,,,73,108
89640,note_on,20,0,13,,,,,,,,11,,,,70,92
89640,note_on,20,0,15,,,,,,,,13,,,,34,92
89680,note_off,40,0,10,,,,,,,,7,,,,34,64
89680,note_off,40,0,7,,,,,,,,4,,,,73,64
89680,note_off,40,0,13,,,,,,,,11,,,,70,64
89680,note_off,40,0,11,,,,,,,,8,,,,77,64
89680,note_off,40,0,9,,,,,,,,6,,,,46,64
89680,note_off,40,0,8,,,,,,,,5,,,,70,64
89680,note_off,40,0,14,,,,,,,,12,,,,46,64
89680,note_off,40,0,15,,,,,,,,13,,,,34,64
89680,note_off,40,0,6,,,,,,,,3,,,,77,64
89680,note_off,40,0,12,,,,,,,,10,,,,73,64
89700,note_on,20,0,6,,,,,,,,3,,,,77,108
89700,note_on,20,0,13,,,,,,,,11,,,,70,92
89700,note_on,20,0,15,,,,,,,,13,,,,34,92
89700,note_on,20,0,9,,,,,,,,6,,,,46,108
89700,note_on,20,0,10,,,,,,,,7,,,,34,108
89700,note_on,20,0,12,,,,,,,,10,,,,73,92
89700,note_on,20,0,7,,,,,,,,4,,,,73,108
89700,note_on,20,0,11,,,,,,,,8,,,,77,92
89700,note_on,20,0,14,,,,,,,,12,,,,46,92
89700,note_on,20,0,8,,,,,,,,5,,,,70,108
89740,note_off,40,0,10,,,,,,,,7,,,,34,64
89740,note_off,40,0,15,,,,,,,,13,,,,34,64
89740,note_off,40,0,8,,,,,,,,5,,,,70,64
89740,note_off,40,0,7,,,,,,,,4,,,,73,64
89740,note_off,40,0,11,,,,,,,,8,,,,77,64
89740,note_off,40,0,9,,,,,,,,6,,,,46,64
89740,note_off,40,0,13,,,,,,,,11,,,,70,64
89740,note_off,40,0,6,,,,,,,,3,,,,77,64
89740,note_off,40,0,12,,,,,,,,10,,,,73,64
89740,note_off,40,0,14,,,,,,,,12,,,,46,64
89760,note_on,20,0,13,,,,,,,,11,,,,70,92
89760,note_on,20,0,7,,,,,,,,4,,,,73,108
89760,note_on,20,0,15,,,,,,,,13,,,,34,92
89760,note_on,20,0,10,,,,,,,,7,,,,34,108
89760,note_on,20,0,6,,,,,,,,3,,,,77,108
89760,note_on,20,0,14,,,,,,,,12,,,,46,92
89760,note_on,20,0,11,,,,,,,,8,,,,77,92
89760,note_on,20,0,8,,,,,,,,5,,,,70,108
89760,note_on,20,0,12,,,,,,,,10,,,,73,92
89760,note_on,20,0,9,,,,,,,,6,,,,46,108
89800,note_off,40,0,6,,,,,,,,3,,,,77,64
89800,note_off,40,0,13,,,,,,,,11,,,,70,64
89800,note_off,40,0,7,,,,,,,,4,,,,73,64
89800,note_off,40,0,8,,,,,,,,5,,,,70,64
89800,note_off,40,0,12,,,,,,,,10,,,,73,64
89800,note_off,40,0,15,,,,,,,,13,,,,34,64
89800,note_off,40,0,9,,,,,,,,6,,,,46,64
89800,note_off,40,0,10,,,,,,,,7,,,,34,64
89800,note_off,40,0,14,,,,,,,,12,,,,46,64
89800,note_off,40,0,11,,,,,,,,8,,,,77,64
89820,note_on,20,0,12,,,,,,,,10,,,,73,92
89820,note_on,20,0,11,,,,,,,,8,,,,77,92
89820,note_on,20,0,10,,,,,,,,7,,,,34,108
89820,note_on,20,0,6,,,,,,,,3,,,,77,108
89820,note_on,20,0,8,,,,,,,,5,,,,70,108
89820,note_on,20,0,13,,,,,,,,11,,,,70,92
89820,note_on,20,0,7,,,,,,,,4,,,,73,108
89820,note_on,20,0,15,,,,,,,,13,,,,34,92
89820,note_on,20,0,14,,,,,,,,12,,,,46,92
89820,note_on,20,0,9,,,,,,,,6,,,,46,108
89860,note_off,40,0,13,,,,,,,,11,,,,70,64
89860,note_off,40,0,9,,,,,,,,6,,,,46,64
89860,note_off,40,0,11,,,,,,,,8,,,,77,64
89860,note_off,40,0,6,,,,,,,,3,,,,77,64
89860,note_off,40,0,10,,,,,,,,7,,,,34,64
89860,note_off,40,0,7,,,,,,,,4,,,,73,64
89860,note_off,40,0,15,,,,,,,,13,,,,34,64
89860,note_off,40,0,8,,,,,,,,5,,,,70,64
89860,note_off,40,0,12,,,,,,,,10,,,,73,64
89860,note_off,40,0,14,,,,,,,,12,,,,46,64
89880,note_on,20,0,15,,,,,,,,13,,,,34,92
89880,note_on,20,0,8,,,,,,,,5,,,,70,108
89880,note_on,20,0,11,,,,,,,,8,,,,77,92
89880,note_on,20,0,9,,,,,,,,6,,,,46,108
89880,note_on,20,0,13,,,,,,,,11,,,,70,92
89880,note_on,20,0,6,,,,,,,,3,,,,77,108
89880,note_on,20,0,10,,,,,,,,7,,,,34,108
89880,note_on,20,0,7,,,,,,,,4,,,,73,108
89880,note_on,20,0,14,,,,,,,,12,,,,46,92
89880,note_on,20,0,12,,,,,,,,10,,,,73,92
89920,note_off,40,0,8,,,,,,,,5,,,,70,64
89920,note_off,40,0,9,,,,,,,,6,,,,46,64
89920,note_off,40,0,10,,,,,,,,7,,,,34,64
89920,note_off,40,0,7,,,,,,,,4,,,,73,64
89920,note_off,40,0,11,,,,,,,,8,,,,77,64
89920,note_off,40,0,12,,,,,,,,10,,,,73,64
89920,note_off,40,0,14,,,,,,,,12,,,,46,64
89920,note_off,40,0,15,,,,,,,,13,,,,34,64
89920,note_off,40,0,13,,,,,,,,11,,,,70,64
89920,note_off,40,0,6,,,,,,,,3,,,,77,64
89940,note_on,20,0,12,,,,,,,,10,,,,73,92
89940,note_on,20,0,7,,,,,,,,4,,,,73,108
89940,note_on,20,0,9,,,,,,,,6,,,,46,108
89940,note_on,20,0,14,,,,,,,,12,,,,46,92
89940,note_on,20,0,13,,,,,,,,11,,,,70,92
89940,note_on,20,0,8,,,,,,,,5,,,,70,108
89940,note_on,20,0,15,,,,,,,,13,,,,34,92
89940,note_on,20,0,11,,,,,,,,8,,,,77,92
89940,note_on,20,0,10,,,,,,,,7,,,,34,108
89940,note_on,20,0,6,,,,,,,,3,,,,77,108
89980,note_off,40,0,7,,,,,,,,4,,,,73,64
89980,note_off,40,0,12,,,,,,,,10,,,,73,64
89980,note_off,40,0,9,,,,,,,,6,,,,46,64
89980,note_off,40,0,15,,,,,,,,13,,,,34,64
89980,note_off,40,0,14,,,,,,,,12,,,,46,64
89980,note_off,40,0,8,,,,,,,,5,,,,70,64
89980,note_off,40,0,11,,,,,,,,8,,,,77,64
89980,note_off,40,0,6,,,,,,,,3,,,,77,64
89980,note_off,40,0,13,,,,,,,,11,,,,70,64
89980,note_off,40,0,10,,,,,,,,7,,,,34,64
90000,note_on,20,0,11,,,,,,,,8,,,,76,60
90000,note_on,20,0,7,,,,,,,,4,,,,67,60
90000,note_on,20,0,6,,,,,,,,3,,,,76,60
90000,note_on,20,0,9,,,,,,,,6,,,,48,60
90000,note_on,20,0,12,,,,,,,,10,,,,67,60
90000,note_on,20,0,13,,,,,,,,11,,,,70,60
90000,note_on,740,0,5,,,,,,,,2,,,,76,75
90000,note_on,20,0,15,,,,,,,,13,,,,36,60
90000,note_on,20,0,10,,,,,,,,7,,,,36,60
90000,note_on,740,0,4,,,,,,,,1,,,,76,92
90000,note_on,20,0,8,,,,,,,,5,,,,70,60
90000,note_on,20,0,14,,,,,,,,12,,,,48,60
90040,note_off,40,0,5,,,,,,,,2,,,,76,64
90040,note_off,40,0,4,,,,,,,,1,,,,76,64
90060,note_on,20,0,4,,,,,,,,1,,,,77,92
90060,note_on,20,0,5,,,,,,,,2,,,,77,75
90100,note_off,40,0,5,,,,,,,,2,,,,77,64
90100,note_off,40,0,4,,,,,,,,1,,,,77,64
90120,note_on,20,0,4,,,,,,,,1,,,,79,92
90120,note_on,20,0,5,,,,,,,,2,,,,79,75
90160,note_off,40,0,4,,,,,,,,1,,,,79,64
90160,note_off,40,0,5,,,,,,,,2,,,,79,64
90180,note_on,20,0,4,,,,,,,,1,,,,77,92
90180,note_on,20,0,5,,,,,,,,2,,,,77,75
90220,note_off,40,0,4,,,,,,,,1,,,,77,64
90220,note_off,40,0,5,,,,,,,,2,,,,77,64
90240,note_on,20,0,4,,,,,,,,1,,,,76,92
90240,note_on,20,0,5,,,,,,,,2,,,,76,75
90280,note_off,40,0,4,,,,,,,,1,,,,76,64
90280,note_off,40,0,5,,,,,,,,2,,,,76,64
90300,note_on,20,0,5,,,,,,,,2,,,,77,75
90300,note_on,20,0,4,,,,,,,,1,,,,77,92
90340,note_off,40,0,4,,,,,,,,1,,,,77,64
90340,note_off,40,0,5,,,,,,,,2,,,,77,64
90360,note_on,20,0,5,,,,,,,,2,,,,76,75
90360,note_on,20,0,4,,,,,,,,1,,,,76,92
90400,note_off,400,0,14,,,,,,,,12,,,,48,64
90400,note_off,400,0,11,,,,,,,,8,,,,76,64
90400,note_off,40,0,5,,,,,,,,2,,,,76,64
90400,note_off,400,0,15,,,,,,,,13,,,,36,64
90400,note_off,400,0,8,,,,,,,,5,,,,70,64
90400,note_off,400,0,12,,,,,,,,10,,,,67,64
90400,note_off,400,0,10,,,,,,,,7,,,,36,64
90400,note_off,400,0,6,,,,,,,,3,,,,76,64
90400,note_off,400,0,13,,,,,,,,11,,,,70,64
90400,note_off,400,0,7,,,,,,,,4,,,,67,64
90400,note_off,400,0,9,,,,,,,,6,,,,48,64
90400,note_off,40,0,4,,,,,,,,1,,,,76,64
90420,note_on,20,0,4,,,,,,,,1,,,,74,92
90420,note_on,20,0,5,,,,,,,,2,,,,74,75
90460,note_off,40,0,4,,,,,,,,1,,,,74,64
90460,note_off,40,0,5,,,,,,,,2,,,,74,64
90480,note_on,20,0,5,,,,,,,,2,,,,72,75
90480,note_on,20,0,4,,,,,,,,1,,,,72,92
90520,note_off,40,0,4,,,,,,,,1,,,,72,64
90520,note_off,40,0,5,,,,,,,,2,,,,72,64
90540,note_on,20,0,5,,,,,,,,2,,,,74,75
90540,note_on,20,0,4,,,,,,,,1,,,,74,92
90580,note_off,40,0,5,,,,,,,,2,,,,74,64
90580,note_off,40,0,4,,,,,,,,1,,,,74,64
90600,note_on,20,0,5,,,,,,,,2,,,,72,75
90600,note_on,20,0,4,,,,,,,,1,,,,72,92
90640,note_off,40,0,5,,,,,,,,2,,,,72,64
90640,note_off,40,0,4,,,,,,,,1,,,,72,64
90660,note_on,20,0,5,,,,,,,,2,,,,71,75
90660,note_on,20,0,4,,,,,,,,1,,,,71,92
90700,note_off,40,0,4,,,,,,,,1,,,,71,64
90700,note_off,40,0,5,,,,,,,,2,,,,71,64
90720,note_on,20,0,5,,,,,,,,2,,,,72,75
90720,note_on,20,0,4,,,,,,,,1,,,,72,92
90760,note_off,40,0,5,,,,,,,,2,,,,72,64
90760,note_off,40,0,4,,,,,,,,1,,,,72,64
90780,note_on,20,0,4,,,,,,,,1,,,,71,92
90780,note_on,20,0,5,,,,,,,,2,,,,71,75
90820,note_off,40,0,4,,,,,,,,1,,,,71,64
90820,note_off,40,0,5,,,,,,,,2,,,,71,64
90840,note_on,20,0,4,,,,,,,,1,,,,72,92
90840,note_on,20,0,5,,,,,,,,2,,,,72,75
90880,note_off,40,0,5,,,,,,,,2,,,,72,64
90880,note_off,40,0,4,,,,,,,,1,,,,72,64
90900,note_on,20,0,4,,,,,,,,1,,,,74,92
90900,note_on,20,0,5,,,,,,,,2,,,,74,75
90940,note_off,40,0,5,,,,,,,,2,,,,74,64
90940,note_off,40,0,4,,,,,,,,1,,,,74,64
90960,note_on,20,0,5,,,,,,,,2,,,,76,75
90960,note_on,20,0,4,,,,,,,,1,,,,76,92
91000,note_off,40,0,5,,,,,,,,2,,,,76,64
91000,note_off,40,0,4,,,,,,,,1,,,,76,64
91020,note_on,20,0,4,,,,,,,,1,,,,74,92
91020,note_on,20,0,5,,,,,,,,2,,,,74,75
91060,note_off,40,0,4,,,,,,,,1,,,,74,64
91060,note_off,40,0,5,,,,,,,,2,,,,74,64
91080,note_on,20,0,4,,,,,,,,1,,,,76,92
91080,note_on,20,0,5,,,,,,,,2,,,,76,75
91120,note_off,40,0,4,,,,,,,,1,,,,76,64
91120,note_off,40,0,5,,,,,,,,2,,,,76,64
91140,note_on,20,0,4,,,,,,,,1,,,,77,92
91140,note_on,20,0,5,,,,,,,,2,,,,77,75
91180,note_off,40,0,4,,,,,,,,1,,,,77,64
91180,note_off,40,0,5,,,,,,,,2,,,,77,64
91200,note_on,20,0,5,,,,,,,,2,,,,79,75
91200,note_on,20,0,4,,,,,,,,1,,,,79,92
91240,note_off,40,0,5,,,,,,,,2,,,,79,64
91240,note_off,40,0,4,,,,,,,,1,,,,79,64
91260,note_on,20,0,5,,,,,,,,2,,,,80,75
91260,note_on,20,0,4,,,,,,,,1,,,,80,92
91300,note_off,40,0,5,,,,,,,,2,,,,80,64
91300,note_off,40,0,4,,,,,,,,1,,,,80,64
91320,note_on,20,0,5,,,,,,,,2,,,,83,75
91320,note_on,20,0,4,,,,,,,,1,,,,83,92
91360,note_off,40,0,4,,,,,,,,1,,,,83,64
91360,note_off,40,0,5,,,,,,,,2,,,,83,64
91380,note_on,20,0,5,,,,,,,,2,,,,79,75
91380,note_on,20,0,4,,,,,,,,1,,,,79,92
91420,note_off,40,0,5,,,,,,,,2,,,,79,64
91420,note_off,40,0,4,,,,,,,,1,,,,79,64
91440,note_on,1040,0,13,,,,,,,,11,,,,72,108
91440,note_on,1040,0,15,,,,,,,,13,,,,41,108
91440,note_on,1040,0,10,,,,,,,,7,,,,41,108
91440,note_on,1040,0,11,,,,,,,,8,,,,80,108
91440,note_on,1040,0,7,,,,,,,,4,,,,77,108
91440,note_on,1040,0,12,,,,,,,,10,,,,77,108
91440,note_on,1040,0,14,,,,,,,,12,,,,53,108
91440,note_on,1040,0,8,,,,,,,,5,,,,72,108
91440,note_on,1040,0,6,,,,,,,,3,,,,80,108
91440,note_on,1040,0,9,,,,,,,,6,,,,53,108
91480,note_off,40,0,14,,,,,,,,12,,,,53,64
91480,note_off,40,0,15,,,,,,,,13,,,,41,64
91480,note_off,40,0,7,,,,,,,,4,,,,77,64
91480,note_off,40,0,8,,,,,,,,5,,,,72,64
91480,note_off,40,0,12,,,,,,,,10,,,,77,64
91480,note_off,40,0,6,,,,,,,,3,,,,80,64
91480,note_off,40,0,11,,,,,,,,8,,,,80,64
91480,note_off,40,0,13,,,,,,,,11,,,,72,64
91480,note_off,40,0,10,,,,,,,,7,,,,41,64
91480,note_off,40,0,9,,,,,,,,6,,,,53,64
91500,note_on,20,0,9,,,,,,,,6,,,,53,108
91500,note_on,20,0,13,,,,,,,,11,,,,72,108
91500,note_on,20,0,6,,,,,,,,3,,,,80,108
91500,note_on,20,0,15,,,,,,,,13,,,,41,108
91500,note_on,20,0,11,,,,,,,,8,,,,80,108
91500,note_on,20,0,12,,,,,,,,10,,,,77,108
91500,note_on,20,0,8,,,,,,,,5,,,,72,108
91500,note_on,20,0,7,,,,,,,,4,,,,77,108
91500,note_on,20,0,14,,,,,,,,12,,,,53,108
91500,note_on,20,0,10,,,,,,,,7,,,,41,108
91540,note_off,40,0,13,,,,,,,,11,,,,72,64
91540,note_off,40,0,15,,,,,,,,13,,,,41,64
91540,note_off,40,0,8,,,,,,,,5,,,,72,64
91540,note_off,40,0,11,,,,,,,,8,,,,80,64
91540,note_off,40,0,7,,,,,,,,4,,,,77,64
91540,note_off,40,0,6,,,,,,,,3,,,,80,64
91540,note_off,40,0,12,,,,,,,,10,,,,77,64
91540,note_off,40,0,14,,,,,,,,12,,,,53,64
91540,note_off,40,0,10,,,,,,,,7,,,,41,64
91540,note_off,40,0,9,,,,,,,,6,,,,53,64
91560,note_on,20,0,11,,,,,,,,8,,,,80,108
91560,note_on,20,0,9,,,,,,,,6,,,,53,108
91560,note_on,20,0,13,,,,,,,,11,,,,72,108
91560,note_on,20,0,10,,,,,,,,7,,,,41,108
91560,note_on,20,0,8,,,,,,,,5,,,,72,108
91560,note_on,20,0,7,,,,,,,,4,,,,77,108
91560,note_on,20,0,14,,,,,,,,12,,,,53,108
91560,note_on,20,0,6,,,,,,,,3,,,,80,108
91560,note_on,20,0,15,,,,,,,,13,,,,41,108
91560,note_on,20,0,12,,,,,,,,10,,,,77,108
91600,note_off,40,0,10,,,,,,,,7,,,,41,64
91600,note_off,40,0,14,,,,,,,,12,,,,53,64
91600,note_off,40,0,15,,,,,,,,13,,,,41,64
91600,note_off,40,0,8,,,,,,,,5,,,,72,64
91600,note_off,40,0,11,,,,,,,,8,,,,80,64
91600,note_off,40,0,9,,,,,,,,6,,,,53,64
91600,note_off,40,0,7,,,,,,,,4,,,,77,64
91600,note_off,40,0,6,,,,,,,,3,,,,80,64
91600,note_off,40,0,13,,,,,,,,11,,,,72,64
91600,note_off,40,0,12,,,,,,,,10,,,,77,64
91620,note_on,20,0,9,,,,,,,,6,,,,53,108
91620,note_on,20,0,6,,,,,,,,3,,,,80,108
91620,note_on,20,0,8,,,,,,,,5,,,,72,108
91620,note_on,20,0,10,,,,,,,,7,,,,41,108
91620,note_on,20,0,12,,,,,,,,10,,,,77,108
91620,note_on,20,0,13,,,,,,,,11,,,,72,108
91620,note_on,20,0,14,,,,,,,,12,,,,53,108
91620,note_on,20,0,15,,,,,,,,13,,,,41,108
91620,note_on,20,0,11,,,,,,,,8,,,,80,108
91620,note_on,20,0,7,,,,,,,,4,,,,77,108
91660,note_off,40,0,6,,,,,,,,3,,,,80,64
91660,note_off,40,0,14,,,,,,,,12,,,,53,64
91660,note_off,40,0,15,,,,,,,,13,,,,41,64
91660,note_off,40,0,13,,,,,,,,11,,,,72,64
91660,note_off,40,0,11,,,,,,,,8,,,,80,64
91660,note_off,40,0,7,,,,,,,,4,,,,77,64
91660,note_off,40,0,9,,,,,,,,6,,,,53,64
91660,note_off,40,0,8,,,,,,,,5,,,,72,64
91660,note_off,40,0,12,,,,,,,,10,,,,77,64
91660,note_off,40,0,10,,,,,,,,7,,,,41,64
91680,note_on,20,0,11,,,,,,,,8,,,,80,108
91680,note_on,20,0,6,,,,,,,,3,,,,80,108
91680,note_on,20,0,14,,,,,,,,12,,,,53,108
91680,note_on,20,0,7,,,,,,,,4,,,,77,108
91680,note_on,20,0,13,,,,,,,,11,,,,72,108
91680,note_on,20,0,8,,,,,,,,5,,,,72,108
91680,note_on,20,0,12,,,,,,,,10,,,,77,108
91680,note_on,20,0,15,,,,,,,,13,,,,41,108
91680,note_on,20,0,9,,,,,,,,6,,,,53,108
91680,note_on,20,0,10,,,,,,,,7,,,,41,108
91720,note_off,40,0,10,,,,,,,,7,,,,41,64
91720,note_off,40,0,6,,,,,,,,3,,,,80,64
91720,note_off,40,0,14,,,,,,,,12,,,,53,64
91720,note_off,40,0,7,,,,,,,,4,,,,77,64
91720,note_off,40,0,9,,,,,,,,6,,,,53,64
91720,note_off,40,0,13,,,,,,,,11,,,,72,64
91720,note_off,40,0,15,,,,,,,,13,,,,41,64
91720,note_off,40,0,8,,,,,,,,5,,,,72,64
91720,note_off,40,0,12,,,,,,,,10,,,,77,64
91720,note_off,40,0,11,,,,,,,,8,,,,80,64
91740,note_on,20,0,11,,,,,,,,8,,,,80,108
91740,note_on,20,0,15,,,,,,,,13,,,,41,108
91740,note_on,20,0,10,,,,,,,,7,,,,41,108
91740,note_on,20,0,14,,,,,,,,12,,,,53,108
91740,note_on,20,0,8,,,,,,,,5,,,,72,108
91740,note_on,20,0,6,,,,,,,,3,,,,80,108
91740,note_on,20,0,12,,,,,,,,10,,,,77,108
91740,note_on,20,0,7,,,,,,,,4,,,,77,108
91740,note_on,20,0,13,,,,,,,,11,,,,72,108
91740,note_on,20,0,9,,,,,,,,6,,,,53,108
91780,note_off,40,0,7,,,,,,,,4,,,,77,64
91780,note_off,40,0,13,,,,,,,,11,,,,72,64
91780,note_off,40,0,9,,,,,,,,6,,,,53,64
91780,note_off,40,0,8,,,,,,,,5,,,,72,64
91780,note_off,40,0,6,,,,,,,,3,,,,80,64
91780,note_off,40,0,15,,,,,,,,13,,,,41,64
91780,note_off,40,0,11,,,,,,,,8,,,,80,64
91780,note_off,40,0,12,,,,,,,,10,,,,77,64
91780,note_off,40,0,10,,,,,,,,7,,,,41,64
91780,note_off,40,0,14,,,,,,,,12,,,,53,64
91800,note_on,20,0,14,,,,,,,,12,,,,53,108
91800,note_on,20,0,10,,,,,,,,7,,,,41,108
91800,note_on,20,0,7,,,,,,,,4,,,,77,108
91800,note_on,20,0,6,,,,,,,,3,,,,80,108
91800,note_on,20,0,12,,,,,,,,10,,,,77,108
91800,note_on,20,0,11,,,,,,,,8,,,,80,108
91800,note_on,20,0,13,,,,,,,,11,,,,72,108
91800,note_on,20,0,9,,,,,,,,6,,,,53,108
91800,note_on,20,0,15,,,,,,,,13,,,,41,108
91800,note_on,20,0,8,,,,,,,,5,,,,72,108
91840,note_off,40,0,9,,,,,,,,6,,,,53,64
91840,note_off,40,0,10,,,,,,,,7,,,,41,64
91840,note_off,40,0,7,,,,,,,,4,,,,77,64
91840,note_off,40,0,15,,,,,,,,13,,,,41,64
91840,note_off,40,0,8,,,,,,,,5,,,,72,64
91840,note_off,40,0,13,,,,,,,,11,,,,72,64
91840,note_off,40,0,11,,,,,,,,8,,,,80,64
91840,note_off,40,0,14,,,,,,,,12,,,,53,64
91840,note_off,40,0,12,,,,,,,,10,,,,77,64
91840,note_off,40,0,6,,,,,,,,3,,,,80,64
91860,note_on,20,0,9,,,,,,,,6,,,,53,108
91860,note_on,20,0,10,,,,,,,,7,,,,41,108
91860,note_on,20,0,11,,,,,,,,8,,,,80,108
91860,note_on,20,0,13,,,,,,,,11,,,,72,108
91860,note_on,20,0,6,,,,,,,,3,,,,80,108
91860,note_on,20,0,7,,,,,,,,4,,,,77,108
91860,note_on,20,0,12,,,,,,,,10,,,,77,108
91860,note_on,20,0,15,,,,,,,,13,,,,41,108
91860,note_on,20,0,14,,,,,,,,12,,,,53,108
91860,note_on,20,0,8,,,,,,,,5,,,,72,108
91900,note_off,40,0,14,,,,,,,,12,,,,53,64
91900,note_off,40,0,6,,,,,,,,3,,,,80,64
91900,note_off,40,0,9,,,,,,,,6,,,,53,64
91900,note_off,40,0,11,,,,,,,,8,,,,80,64
91900,note_off,40,0,8,,,,,,,,5,,,,72,64
91900,note_off,40,0,7,,,,,,,,4,,,,77,64
91900,note_off,40,0,13,,,,,,,,11,,,,72,64
91900,note_off,40,0,12,,,,,,,,10,,,,77,64
91900,note_off,40,0,15,,,,,,,,13,,,,41,64
91900,note_off,40,0,10,,,,,,,,7,,,,41,64
91920,note_on,20,0,13,,,,,,,,11,,,,72,108
91920,note_on,20,0,14,,,,,,,,12,,,,53,108
91920,note_on,20,0,7,,,,,,,,4,,,,77,108
91920,note_on,20,0,8,,,,,,,,5,,,,72,108
91920,note_on,20,0,11,,,,,,,,8,,,,80,108
91920,note_on,20,0,10,,,,,,,,7,,,,41,108
91920,note_on,20,0,9,,,,,,,,6,,,,53,108
91920,note_on,20,0,12,,,,,,,,10,,,,77,108
91920,note_on,20,0,15,,,,,,,,13,,,,41,108
91920,note_on,20,0,6,,,,,,,,3,,,,80,108
91960,note_off,40,0,6,,,,,,,,3,,,,80,64
91960,note_off,40,0,14,,,,,,,,12,,,,53,64
91960,note_off,40,0,11,,,,,,,,8,,,,80,64
91960,note_off,40,0,13,,,,,,,,11,,,,72,64
91960,note_off,40,0,12,,,,,,,,10,,,,77,64
91960,note_off,40,0,15,,,,,,,,13,,,,41,64
91960,note_off,40,0,8,,,,,,,,5,,,,72,64
91960,note_off,40,0,7,,,,,,,,4,,,,77,64
91960,note_off,40,0,10,,,,,,,,7,,,,41,64
91960,note_off,40,0,9,,,,,,,,6,,,,53,64
91980,note_on,20,0,7,,,,,,,,4,,,,77,108
91980,note_on,20,0,11,,,,,,,,8,,,,80,108
91980,note_on,20,0,12,,,,,,,,10,,,,77,108
91980,note_on,20,0,13,,,,,,,,11,,,,72,108
91980,note_on,20,0,15,,,,,,,,13,,,,41,108
91980,note_on,20,0,9,,,,,,,,6,,,,53,108
91980,note_on,20,0,8,,,,,,,,5,,,,72,108
91980,note_on,20,0,10,,,,,,,,7,,,,41,108
91980,note_on,20,0,6,,,,,,,,3,,,,80,108
91980,note_on,20,0,14,,,,,,,,12,,,,53,108
92020,note_off,40,0,10,,,,,,,,7,,,,41,64
92020,note_off,40,0,9,,,,,,,,6,,,,53,64
92020,note_off,40,0,12,,,,,,,,10,,,,77,64
92020,note_off,40,0,6,,,,,,,,3,,,,80,64
92020,note_off,40,0,7,,,,,,,,4,,,,77,64
92020,note_off,40,0,11,,,,,,,,8,,,,80,64
92020,note_off,40,0,14,,,,,,,,12,,,,53,64
92020,note_off,40,0,13,,,,,,,,11,,,,72,64
92020,note_off,40,0,8,,,,,,,,5,,,,72,64
92020,note_off,40,0,15,,,,,,,,13,,,,41,64
92040,note_on,20,0,10,,,,,,,,7,,,,41,108
92040,note_on,20,0,6,,,,,,,,3,,,,80,108
92040,note_on,20,0,11,,,,,,,,8,,,,80,108
92040,note_on,20,0,15,,,,,,,,13,,,,41,108
92040,note_on,20,0,8,,,,,,,,5,,,,72,108
92040,note_on,20,0,14,,,,,,,,12,,,,53,108
92040,note_on,20,0,9,,,,,,,,6,,,,53,108
92040,note_on,20,0,7,,,,,,,,4,,,,77,108
92040,note_on,20,0,13,,,,,,,,11,,,,72,108
92040,note_on,20,0,12,,,,,,,,10,,,,77,108
92080,note_off,40,0,15,,,,,,,,13,,,,41,64
92080,note_off,40,0,10,,,,,,,,7,,,,41,64
92080,note_off,40,0,12,,,,,,,,10,,,,77,64
92080,note_off,40,0,7,,,,,,,,4,,,,77,64
92080,note_off,40,0,14,,,,,,,,12,,,,53,64
92080,note_off,40,0,8,,,,,,,,5,,,,72,64
92080,note_off,40,0,6,,,,,,,,3,,,,80,64
92080,note_off,40,0,13,,,,,,,,11,,,,72,64
92080,note_off,40,0,9,,,,,,,,6,,,,53,64
92080,note_off,40,0,11,,,,,,,,8,,,,80,64
92100,note_on,20,0,10,,,,,,,,7,,,,41,108
92100,note_on,20,0,7,,,,,,,,4,,,,77,108
92100,note_on,20,0,9,,,,,,,,6,,,,53,108
92100,note_on,20,0,11,,,,,,,,8,,,,80,108
92100,note_on,20,0,12,,,,,,,,10,,,,77,108
92100,note_on,20,0,8,,,,,,,,5,,,,72,108
92100,note_on,20,0,15,,,,,,,,13,,,,41,108
92100,note_on,20,0,14,,,,,,,,12,,,,53,108
92100,note_on,20,0,13,,,,,,,,11,,,,72,108
92100,note_on,20,0,6,,,,,,,,3,,,,80,108
92140,note_off,40,0,8,,,,,,,,5,,,,72,64
92140,note_off,40,0,14,,,,,,,,12,,,,53,64
92140,note_off,40,0,12,,,,,,,,10,,,,77,64
92140,note_off,40,0,11,,,,,,,,8,,,,80,64
92140,note_off,40,0,15,,,,,,,,13,,,,41,64
92140,note_off,40,0,6,,,,,,,,3,,,,80,64
92140,note_off,40,0,9,,,,,,,,6,,,,53,64
92140,note_off,40,0,10,,,,,,,,7,,,,41,64
92140,note_off,40,0,7,,,,,,,,4,,,,77,64
92140,note_off,40,0,13,,,,,,,,11,,,,72,64
92160,note_on,740,0,4,,,,,,,,1,,,,80,92
92160,note_on,20,0,8,,,,,,,,5,,,,72,60
92160,note_on,20,0,10,,,,,,,,7,,,,41,60
92160,note_on,20,0,13,,,,,,,,11,,,,72,60
92160,note_on,740,0,5,,,,,,,,2,,,,80,75
92160,note_on,20,0,14,,,,,,,,12,,,,53,60
92160,note_on,20,0,6,,,,,,,,3,,,,80,60
92160,note_on,20,0,9,,,,,,,,6,,,,53,60
92160,note_on,20,0,15,,,,,,,,13,,,,41,60
92160,note_on,20,0,11,,,,,,,,8,,,,80,60
92160,note_on,20,0,12,,,,,,,,10,,,,77,60
92160,note_on,20,0,7,,,,,,,,4,,,,77,60
92200,note_off,40,0,4,,,,,,,,1,,,,80,64
92200,note_off,40,0,5,,,,,,,,2,,,,80,64
92220,note_on,20,0,5,,,,,,,,2,,,,82,75
92220,note_on,20,0,4,,,,,,,,1,,,,82,92
92260,note_off,40,0,4,,,,,,,,1,,,,82,64
92260,note_off,40,0,5,,,,,,,,2,,,,82,64
92280,note_on,20,0,5,,,,,,,,2,,,,84,75
92280,note_on,20,0,4,,,,,,,,1,,,,84,92
92320,note_off,40,0,4,,,,,,,,1,,,,84,64
92320,note_off,40,0,5,,,,,,,,2,,,,84,64
92340,note_on,20,0,5,,,,,,,,2,,,,82,75
92340,note_on,20,0,4,,,,,,,,1,,,,82,92
92380,note_off,40,0,5,,,,,,,,2,,,,82,64
92380,note_off,40,0,4,,,,,,,,1,,,,82,64
92400,note_on,20,0,5,,,,,,,,2,,,,80,75
92400,note_on,20,0,4,,,,,,,,1,,,,80,92
92440,note_off,40,0,5,,,,,,,,2,,,,80,64
92440,note_off,40,0,4,,,,,,,,1,,,,80,64
92460,note_on,20,0,5,,,,,,,,2,,,,82,75
92460,note_on,20,0,4,,,,,,,,1,,,,82,92
92500,note_off,40,0,4,,,,,,,,1,,,,82,64
92500,note_off,40,0,5,,,,,,,,2,,,,82,64
92520,note_on,20,0,4,,,,,,,,1,,,,80,92
92520,note_on,20,0,5,,,,,,,,2,,,,80,75
92560,note_off,400,0,9,,,,,,,,6,,,,53,64
92560,note_off,400,0,7,,,,,,,,4,,,,77,64
92560,note_off,40,0,4,,,,,,,,1,,,,80,64
92560,note_off,400,0,6,,,,,,,,3,,,,80,64
92560,note_off,400,0,13,,,,,,,,11,,,,72,64
92560,note_off,40,0,5,,,,,,,,2,,,,80,64
92560,note_off,400,0,11,,,,,,,,8,,,,80,64
92560,note_off,400,0,10,,,,,,,,7,,,,41,64
92560,note_off,400,0,12,,,,,,,,10,,,,77,64
92560,note_off,400,0,14,,,,,,,,12,,,,53,64
92560,note_off,400,0,8,,,,,,,,5,,,,72,64
92560,note_off,400,0,15,,,,,,,,13,,,,41,64
92580,note_on,20,0,4,,,,,,,,1,,,,79,92
92580,note_on,20,0,5,,,,,,,,2,,,,79,75
92620,note_off,40,0,5,,,,,,,,2,,,,79,64
92620,note_off,40,0,4,,,,,,,,1,,,,79,64
92640,note_on,20,0,5,,,,,,,,2,,,,77,75
92640,note_on,20,0,4,,,,,,,,1,,,,77,92
92680,note_off,40,0,4,,,,,,,,1,,,,77,64
92680,note_off,40,0,5,,,,,,,,2,,,,77,64
92700,note_on,20,0,5,,,,,,,,2,,,,79,75
92700,note_on,20,0,4,,,,,,,,1,,,,79,92
92740,note_off,40,0,4,,,,,,,,1,,,,79,64
92740,note_off,40,0,5,,,,,,,,2,,,,79,64
92760,note_on,20,0,4,,,,,,,,1,,,,77,92
92760,note_on,20,0,5,,,,,,,,2,,,,77,75
92800,note_off,40,0,4,,,,,,,,1,,,,77,64
92800,note_off,40,0,5,,,,,,,,2,,,,77,64
92820,note_on,20,0,4,,,,,,,,1,,,,75,92
92820,note_on,20,0,5,,,,,,,,2,,,,75,75
92860,note_off,40,0,5,,,,,,,,2,,,,75,64
92860,note_off,40,0,4,,,,,,,,1,,,,75,64
92880,note_on,320,0,8,,,,,,,,5,,,,70,108
92880,note_on,320,0,12,,,,,,,,10,,,,73,108
92880,note_on,320,0,10,,,,,,,,7,,,,34,108
92880,note_on,320,0,7,,,,,,,,4,,,,73,108
92880,note_on,320,0,11,,,,,,,,8,,,,77,108
92880,note_on,320,0,6,,,,,,,,3,,,,77,108
92880,note_on,320,0,15,,,,,,,,13,,,,34,108
92880,note_on,320,0,13,,,,,,,,11,,,,70,108
92880,note_on,320,0,14,,,,,,,,12,,,,46,108
92880,note_on,320,0,9,,,,,,,,6,,,,46,108
92920,note_off,40,0,11,,,,,,,,8,,,,77,64
92920,note_off,40,0,6,,,,,,,,3,,,,77,64
92920,note_off,40,0,9,,,,,,,,6,,,,46,64
92920,note_off,40,0,15,,,,,,,,13,,,,34,64
92920,note_off,40,0,12,,,,,,,,10,,,,73,64
92920,note_off,40,0,14,,,,,,,,12,,,,46,64
92920,note_off,40,0,7,,,,,,,,4,,,,73,64
92920,note_off,40,0,10,,,,,,,,7,,,,34,64
92920,note_off,40,0,13,,,,,,,,11,,,,70,64
92920,note_off,40,0,8,,,,,,,,5,,,,70,64
92940,note_on,20,0,7,,,,,,,,4,,,,73,108
92940,note_on,20,0,15,,,,,,,,13,,,,34,108
92940,note_on,20,0,11,,,,,,,,8,,,,77,108
92940,note_on,20,0,8,,,,,,,,5,,,,70,108
92940,note_on,20,0,9,,,,,,,,6,,,,46,108
92940,note_on,20,0,10,,,,,,,,7,,,,34,108
92940,note_on,20,0,12,,,,,,,,10,,,,73,108
92940,note_on,20,0,14,,,,,,,,12,,,,46,108
92940,note_on,20,0,6,,,,,,,,3,,,,77,108
92940,note_on,20,0,13,,,,,,,,11,,,,70,108
92980,note_off,40,0,9,,,,,,,,6,,,,46,64
92980,note_off,40,0,6,,,,,,,,3,,,,77,64
92980,note_off,40,0,11,,,,,,,,8,,,,77,64
92980,note_off,40,0,15,,,,,,,,13,,,,34,64
92980,note_off,40,0,7,,,,,,,,4,,,,73,64
92980,note_off,40,0,13,,,,,,,,11,,,,70,64
92980,note_off,40,0,14,,,,,,,,12,,,,46,64
92980,note_off,40,0,10,,,,,,,,7,,,,34,64
92980,note_off,40,0,12,,,,,,,,10,,,,73,64
92980,note_off,40,0,8,,,,,,,,5,,,,70,64
93000,note_on,20,0,13,,,,,,,,11,,,,70,108
93000,note_on,20,0,10,,,,,,,,7,,,,34,108
93000,note_on,20,0,14,,,,,,,,12,,,,46,108
93000,note_on,20,0,7,,,,,,,,4,,,,73,108
93000,note_on,20,0,15,,,,,,,,13,,,,34,108
93000,note_on,20,0,12,,,,,,,,10,,,,73,108
93000,note_on,20,0,8,,,,,,,,5,,,,70,108
93000,note_on,20,0,6,,,,,,,,3,,,,77,108
93000,note_on,20,0,11,,,,,,,,8,,,,77,108
93000,note_on,20,0,9,,,,,,,,6,,,,46,108
93040,note_off,40,0,8,,,,,,,,5,,,,70,64
93040,note_off,40,0,9,,,,,,,,6,,,,46,64
93040,note_off,40,0,7,,,,,,,,4,,,,73,64
93040,note_off,40,0,11,,,,,,,,8,,,,77,64
93040,note_off,40,0,15,,,,,,,,13,,,,34,64
93040,note_off,40,0,13,,,,,,,,11,,,,70,64
93040,note_off,40,0,10,,,,,,,,7,,,,34,64
93040,note_off,40,0,12,,,,,,,,10,,,,73,64
93040,note_off,40,0,6,,,,,,,,3,,,,77,64
93040,note_off,40,0,14,,,,,,,,12,,,,46,64
93060,note_on,20,0,14,,,,,,,,12,,,,46,108
93060,note_on,20,0,12,,,,,,,,10,,,,73,108
93060,note_on,20,0,11,,,,,,,,8,,,,77,108
93060,note_on,20,0,6,,,,,,,,3,,,,77,108
93060,note_on,20,0,9,,,,,,,,6,,,,46,108
93060,note_on,20,0,7,,,,,,,,4,,,,73,108
93060,note_on,20,0,10,,,,,,,,7,,,,34,108
93060,note_on,20,0,8,,,,,,,,5,,,,70,108
93060,note_on,20,0,15,,,,,,,,13,,,,34,108
93060,note_on,20,0,13,,,,,,,,11,,,,70,108
93100,note_off,40,0,9,,,,,,,,6,,,,46,64
93100,note_off,40,0,15,,,,,,,,13,,,,34,64
93100,note_off,40,0,14,,,,,,,,12,,,,46,64
93100,note_off,40,0,13,,,,,,,,11,,,,70,64
93100,note_off,40,0,11,,,,,,,,8,,,,77,64
93100,note_off,40,0,10,,,,,,,,7,,,,34,64
93100,note_off,40,0,7,,,,,,,,4,,,,73,64
93100,note_off,40,0,12,,,,,,,,10,,,,73,64
93100,note_off,40,0,8,,,,,,,,5,,,,70,64
93100,note_off,40,0,6,,,,,,,,3,,,,77,64
93120,note_on,20,0,8,,,,,,,,5,,,,70,108
93120,note_on,20,0,10,,,,,,,,7,,,,34,108
93120,note_on,20,0,7,,,,,,,,4,,,,73,108
93120,note_on,20,0,11,,,,,,,,8,,,,77,108
93120,note_on,20,0,9,,,,,,,,6,,,,46,108
93120,note_on,20,0,14,,,,,,,,12,,,,46,108
93120,note_on,20,0,12,,,,,,,,10,,,,73,108
93120,note_on,20,0,6,,,,,,,,3,,,,77,108
93120,note_on,20,0,15,,,,,,,,13,,,,34,108
93120,note_on,20,0,13,,,,,,,,11,,,,70,108
93160,note_off,40,0,10,,,,,,,,7,,,,34,64
93160,note_off,40,0,7,,,,,,,,4,,,,73,64
93160,note_off,40,0,13,,,,,,,,11,,,,70,64
93160,note_off,40,0,9,,,,,,,,6,,,,46,64
93160,note_off,40,0,11,,,,,,,,8,,,,77,64
93160,note_off,40,0,6,,,,,,,,3,,,,77,64
93160,note_off,40,0,12,,,,,,,,10,,,,73,64
93160,note_off,40,0,15,,,,,,,,13,,,,34,64
93160,note_off,40,0,14,,,,,,,,12,,,,46,64
93160,note_off,40,0,8,,,,,,,,5,,,,70,64
93180,note_on,20,0,15,,,,,,,,13,,,,34,108
93180,note_on,20,0,10,,,,,,,,7,,,,34,108
93180,note_on,20,0,7,,,,,,,,4,,,,73,108
93180,note_on,20,0,14,,,,,,,,12,,,,46,108
93180,note_on,20,0,9,,,,,,,,6,,,,46,108
93180,note_on,20,0,6,,,,,,,,3,,,,77,108
93180,note_on,20,0,13,,,,,,,,11,,,,70,108
93180,note_on,20,0,8,,,,,,,,5,,,,70,108
93180,note_on,20,0,11,,,,,,,,8,,,,77,108
93180,note_on,20,0,12,,,,,,,,10,,,,73,108
93220,note_off,40,0,6,,,,,,,,3,,,,77,64
93220,note_off,40,0,15,,,,,,,,13,,,,34,64
93220,note_off,40,0,10,,,,,,,,7,,,,34,64
93220,note_off,40,0,12,,,,,,,,10,,,,73,64
93220,note_off,40,0,8,,,,,,,,5,,,,70,64
93220,note_off,40,0,11,,,,,,,,8,,,,77,64
93220,note_off,40,0,13,,,,,,,,11,,,,70,64
93220,note_off,40,0,9,,,,,,,,6,,,,46,64
93220,note_off,40,0,14,,,,,,,,12,,,,46,64
93220,note_off,40,0,7,,,,,,,,4,,,,73,64
93240,note_on,20,0,7,,,,,,,,4,,,,73,108
93240,note_on,20,0,13,,,,,,,,11,,,,70,108
93240,note_on,20,0,6,,,,,,,,3,,,,77,108
93240,note_on,20,0,8,,,,,,,,5,,,,70,108
93240,note_on,20,0,10,,,,,,,,7,,,,34,108
93240,note_on,20,0,15,,,,,,,,13,,,,34,108
93240,note_on,20,0,14,,,,,,,,12,,,,46,108
93240,note_on,20,0,12,,,,,,,,10,,,,73,108
93240,note_on,20,0,11,,,,,,,,8,,,,77,108
93240,note_on,20,0,9,,,,,,,,6,,,,46,108
93280,note_off,40,0,7,,,,,,,,4,,,,73,64
93280,note_off,40,0,6,,,,,,,,3,,,,77,64
93280,note_off,40,0,10,,,,,,,,7,,,,34,64
93280,note_off,40,0,8,,,,,,,,5,,,,70,64
93280,note_off,40,0,9,,,,,,,,6,,,,46,64
93280,note_off,40,0,14,,,,,,,,12,,,,46,64
93280,note_off,40,0,11,,,,,,,,8,,,,77,64
93280,note_off,40,0,15,,,,,,,,13,,,,34,64
93280,note_off,40,0,12,,,,,,,,10,,,,73,64
93280,note_off,40,0,13,,,,,,,,11,,,,70,64
93300,note_on,20,0,14,,,,,,,,12,,,,46,108
93300,note_on,20,0,11,,,,,,,,8,,,,77,108
93300,note_on,20,0,7,,,,,,,,4,,,,73,108
93300,note_on,20,0,12,,,,,,,,10,,,,73,108
93300,note_on,20,0,8,,,,,,,,5,,,,70,108
93300,note_on,20,0,10,,,,,,,,7,,,,34,108
93300,note_on,20,0,15,,,,,,,,13,,,,34,108
93300,note_on,20,0,13,,,,,,,,11,,,,70,108
93300,note_on,20,0,6,,,,,,,,3,,,,77,108
93300,note_on,20,0,9,,,,,,,,6,,,,46,108
93340,note_off,40,0,7,,,,,,,,4,,,,73,64
93340,note_off,40,0,13,,,,,,,,11,,,,70,64
93340,note_off,40,0,9,,,,,,,,6,,,,46,64
93340,note_off,40,0,10,,,,,,,,7,,,,34,64
93340,note_off,40,0,14,,,,,,,,12,,,,46,64
93340,note_off,40,0,12,,,,,,,,10,,,,73,64
93340,note_off,40,0,6,,,,,,,,3,,,,77,64
93340,note_off,40,0,15,,,,,,,,13,,,,34,64
93340,note_off,40,0,11,,,,,,,,8,,,,77,64
93340,note_off,40,0,8,,,,,,,,5,,,,70,64
93360,note_on,20,0,11,,,,,,,,8,,,,77,108
93360,note_on,20,0,8,,,,,,,,5,,,,70,108
93360,note_on,20,0,14,,,,,,,,12,,,,46,108
93360,note_on,20,0,9,,,,,,,,6,,,,46,108
93360,note_on,20,0,12,,,,,,,,10,,,,73,108
93360,note_on,20,0,7,,,,,,,,4,,,,73,108
93360,note_on,20,0,15,,,,,,,,13,,,,34,108
93360,note_on,20,0,13,,,,,,,,11,,,,70,108
93360,note_on,20,0,6,,,,,,,,3,,,,77,108
93360,note_on,20,0,10,,,,,,,,7,,,,34,108
93400,note_off,40,0,8,,,,,,,,5,,,,70,64
93400,note_off,40,0,9,,,,,,,,6,,,,46,64
93400,note_off,40,0,13,,,,,,,,11,,,,70,64
93400,note_off,40,0,7,,,,,,,,4,,,,73,64
93400,note_off,40,0,6,,,,,,,,3,,,,77,64
93400,note_off,40,0,12,,,,,,,,10,,,,73,64
93400,note_off,40,0,15,,,,,,,,13,,,,34,64
93400,note_off,40,0,14,,,,,,,,12,,,,46,64
93400,note_off,40,0,10,,,,,,,,7,,,,34,64
93400,note_off,40,0,11,,,,,,,,8,,,,77,64
93420,note_on,20,0,9,,,,,,,,6,,,,46,108
93420,note_on,20,0,12,,,,,,,,10,,,,73,108
93420,note_on,20,0,14,,,,,,,,12,,,,46,108
93420,note_on,20,0,10,,,,,,,,7,,,,34,108
93420,note_on,20,0,11,,,,,,,,8,,,,77,108
93420,note_on,20,0,6,,,,,,,,3,,,,77,108
93420,note_on,20,0,8,,,,,,,,5,,,,70,108
93420,note_on,20,0,7,,,,,,,,4,,,,73,108
93420,note_on,20,0,13,,,,,,,,11,,,,70,108
93420,note_on,20,0,15,,,,,,,,13,,,,34,108
93460,note_off,40,0,8,,,,,,,,5,,,,70,64
93460,note_off,40,0,9,,,,,,,,6,,,,46,64
93460,note_off,40,0,6,,,,,,,,3,,,,77,64
93460,note_off,40,0,10,,,,,,,,7,,,,34,64
93460,note_off,40,0,15,,,,,,,,13,,,,34,64
93460,note_off,40,0,13,,,,,,,,11,,,,70,64
93460,note_off,40,0,11,,,,,,,,8,,,,77,64
93460,note_off,40,0,7,,,,,,,,4,,,,73,64
93460,note_off,40,0,12,,,,,,,,10,,,,73,64
93460,note_off,40,0,14,,,,,,,,12,,,,46,64
93480,note_on,20,0,6,,,,,,,,3,,,,77,108
93480,note_on,20,0,13,,,,,,,,11,,,,70,108
93480,note_on,20,0,11,,,,,,,,8,,,,77,108
93480,note_on,20,0,9,,,,,,,,6,,,,46,108
93480,note_on,20,0,15,,,,,,,,13,,,,34,108
93480,note_on,20,0,10,,,,,,,,7,,,,34,108
93480,note_on,20,0,7,,,,,,,,4,,,,73,108
93480,note_on,20,0,8,,,,,,,,5,,,,70,108
93480,note_on,20,0,14,,,,,,,,12,,,,46,108
93480,note_on,20,0,12,,,,,,,,10,,,,73,108
93520,note_off,40,0,8,,,,,,,,5,,,,70,64
93520,note_off,40,0,10,,,,,,,,7,,,,34,64
93520,note_off,40,0,15,,,,,,,,13,,,,34,64
93520,note_off,40,0,11,,,,,,,,8,,,,77,64
93520,note_off,40,0,14,,,,,,,,12,,,,46,64
93520,note_off,40,0,7,,,,,,,,4,,,,73,64
93520,note_off,40,0,13,,,,,,,,11,,,,70,64
93520,note_off,40,0,6,,,,,,,,3,,,,77,64
93520,note_off,40,0,12,,,,,,,,10,,,,73,64
93520,note_off,40,0,9,,,,,,,,6,,,,46,64
93540,note_on,20,0,8,,,,,,,,5,,,,70,108
93540,note_on,20,0,10,,,,,,,,7,,,,34,108
93540,note_on,20,0,15,,,,,,,,13,,,,34,108
93540,note_on,20,0,12,,,,,,,,10,,,,73,108
93540,note_on,20,0,9,,,,,,,,6,,,,46,108
93540,note_on,20,0,7,,,,,,,,4,,,,73,108
93540,note_on,20,0,6,,,,,,,,3,,,,77,108
93540,note_on,20,0,14,,,,,,,,12,,,,46,108
93540,note_on,20,0,13,,,,,,,,11,,,,70,108
93540,note_on,20,0,11,,,,,,,,8,,,,77,108
93580,note_off,40,0,6,,,,,,,,3,,,,77,64
93580,note_off,40,0,9,,,,,,,,6,,,,46,64
93580,note_off,40,0,11,,,,,,,,8,,,,77,64
93580,note_off,40,0,8,,,,,,,,5,,,,70,64
93580,note_off,40,0,10,,,,,,,,7,,,,34,64
93580,note_off,40,0,12,,,,,,,,10,,,,73,64
93580,note_off,40,0,15,,,,,,,,13,,,,34,64
93580,note_off,40,0,7,,,,,,,,4,,,,73,64
93580,note_off,40,0,14,,,,,,,,12,,,,46,64
93580,note_off,40,0,13,,,,,,,,11,,,,70,64
93600,note_on,20,0,9,,,,,,,,6,,,,46,60
93600,note_on,20,0,6,,,,,,,,3,,,,79,60
93600,note_on,20,0,15,,,,,,,,13,,,,34,60
93600,note_on,20,0,8,,,,,,,,5,,,,67,60
93600,note_on,20,0,7,,,,,,,,4,,,,73,60
93600,note_on,740,0,4,,,,,,,,1,,,,82,92
93600,note_on,20,0,13,,,,,,,,11,,,,67,60
93600,note_on,20,0,14,,,,,,,,12,,,,46,60
93600,note_on,740,0,5,,,,,,,,2,,,,82,75
93600,note_on,20,0,12,,,,,,,,10,,,,73,60
93600,note_on,20,0,10,,,,,,,,7,,,,34,60
93600,note_on,20,0,11,,,,,,,,8,,,,79,60
93640,note_off,40,0,4,,,,,,,,1,,,,82,64
93640,note_off,40,0,5,,,,,,,,2,,,,82,64
93660,note_on,20,0,5,,,,,,,,2,,,,84,75
93660,note_on,20,0,4,,,,,,,,1,,,,84,92
93700,note_off,40,0,4,,,,,,,,1,,,,84,64
93700,note_off,40,0,5,,,,,,,,2,,,,84,64
93720,note_on,20,0,4,,,,,,,,1,,,,85,92
93720,note_on,20,0,5,,,,,,,,2,,,,85,75
93760,note_off,40,0,4,,,,,,,,1,,,,85,64
93760,note_off,40,0,5,,,,,,,,2,,,,85,64
93780,note_on,20,0,5,,,,,,,,2,,,,84,75
93780,note_on,20,0,4,,,,,,,,1,,,,84,92
93820,note_off,40,0,4,,,,,,,,1,,,,84,64
93820,note_off,40,0,5,,,,,,,,2,,,,84,64
93840,note_on,20,0,5,,,,,,,,2,,,,82,75
93840,note_on,20,0,4,,,,,,,,1,,,,82,92
93880,note_off,40,0,5,,,,,,,,2,,,,82,64
93880,note_off,40,0,4,,,,,,,,1,,,,82,64
93900,note_on,20,0,4,,,,,,,,1,,,,84,92
93900,note_on,20,0,5,,,,,,,,2,,,,84,75
93940,note_off,40,0,5,,,,,,,,2,,,,84,64
93940,note_off,40,0,4,,,,,,,,1,,,,84,64
93960,note_on,20,0,5,,,,,,,,2,,,,82,75
93960,note_on,20,0,4,,,,,,,,1,,,,82,92
94000,note_off,40,0,5,,,,,,,,2,,,,82,64
94000,note_off,400,0,9,,,,,,,,6,,,,46,64
94000,note_off,400,0,8,,,,,,,,5,,,,67,64
94000,note_off,400,0,11,,,,,,,,8,,,,79,64
94000,note_off,400,0,7,,,,,,,,4,,,,73,64
94000,note_off,400,0,10,,,,,,,,7,,,,34,64
94000,note_off,400,0,15,,,,,,,,13,,,,34,64
94000,note_off,400,0,12,,,,,,,,10,,,,73,64
94000,note_off,400,0,14,,,,,,,,12,,,,46,64
94000,note_off,40,0,4,,,,,,,,1,,,,82,64
94000,note_off,400,0,13,,,,,,,,11,,,,67,64
94000,note_off,400,0,6,,,,,,,,3,,,,79,64
94020,note_on,20,0,4,,,,,,,,1,,,,80,92
94020,note_on,20,0,5,,,,,,,,2,,,,80,75
94060,note_off,40,0,5,,,,,,,,2,,,,80,64
94060,note_off,40,0,4,,,,,,,,1,,,,80,64
94080,note_on,20,0,5,,,,,,,,2,,,,79,75
94080,note_on,20,0,4,,,,,,,,1,,,,79,92
94120,note_off,40,0,5,,,,,,,,2,,,,79,64
94120,note_off,40,0,4,,,,,,,,1,,,,79,64
94140,note_on,20,0,4,,,,,,,,1,,,,80,92
94140,note_on,20,0,5,,,,,,,,2,,,,80,75
94180,note_off,40,0,4,,,,,,,,1,,,,80,64
94180,note_off,40,0,5,,,,,,,,2,,,,80,64
94200,note_on,20,0,5,,,,,,,,2,,,,79,75
94200,note_on,20,0,4,,,,,,,,1,,,,79,92
94240,note_off,40,0,4,,,,,,,,1,,,,79,64
94240,note_off,40,0,5,,,,,,,,2,,,,79,64
94260,note_on,20,0,4,,,,,,,,1,,,,77,92
94260,note_on,20,0,5,,,,,,,,2,,,,77,75
94300,note_off,40,0,5,,,,,,,,2,,,,77,64
94300,note_off,40,0,4,,,,,,,,1,,,,77,64
94320,note_on,320,0,12,,,,,,,,10,,,,75,108
94320,note_on,320,0,8,,,,,,,,5,,,,72,108
94320,note_on,320,0,9,,,,,,,,6,,,,48,108
94320,note_on,320,0,11,,,,,,,,8,,,,79,108
94320,note_on,320,0,7,,,,,,,,4,,,,75,108
94320,note_on,320,0,6,,,,,,,,3,,,,79,108
94320,note_on,320,0,13,,,,,,,,11,,,,72,108
94320,note_on,320,0,10,,,,,,,,7,,,,36,108
94320,note_on,320,0,15,,,,,,,,13,,,,36,108
94320,note_on,320,0,14,,,,,,,,12,,,,48,108
94360,note_off,40,0,12,,,,,,,,10,,,,75,64
94360,note_off,40,0,11,,,,,,,,8,,,,79,64
94360,note_off,40,0,7,,,,,,,,4,,,,75,64
94360,note_off,40,0,15,,,,,,,,13,,,,36,64
94360,note_off,40,0,14,,,,,,,,12,,,,48,64
94360,note_off,40,0,10,,,,,,,,7,,,,36,64
94360,note_off,40,0,6,,,,,,,,3,,,,79,64
94360,note_off,40,0,8,,,,,,,,5,,,,72,64
94360,note_off,40,0,13,,,,,,,,11,,,,72,64
94360,note_off,40,0,9,,,,,,,,6,,,,48,64
94380,note_on,20,0,9,,,,,,,,6,,,,48,108
94380,note_on,20,0,7,,,,,,,,4,,,,75,108
94380,note_on,20,0,13,,,,,,,,11,,,,72,108
94380,note_on,20,0,15,,,,,,,,13,,,,36,108
94380,note_on,20,0,6,,,,,,,,3,,,,79,108
94380,note_on,20,0,12,,,,,,,,10,,,,75,108
94380,note_on,20,0,10,,,,,,,,7,,,,36,108
94380,note_on,20,0,8,,,,,,,,5,,,,72,108
94380,note_on,20,0,14,,,,,,,,12,,,,48,108
94380,note_on,20,0,11,,,,,,,,8,,,,79,108
94420,note_off,40,0,9,,,,,,,,6,,,,48,64
94420,note_off,40,0,6,,,,,,,,3,,,,79,64
94420,note_off,40,0,8,,,,,,,,5,,,,72,64
94420,note_off,40,0,14,,,,,,,,12,,,,48,64
94420,note_off,40,0,15,,,,,,,,13,,,,36,64
94420,note_off,40,0,10,,,,,,,,7,,,,36,64
94420,note_off,40,0,11,,,,,,,,8,,,,79,64
94420,note_off,40,0,12,,,,,,,,10,,,,75,64
94420,note_off,40,0,13,,,,,,,,11,,,,72,64
94420,note_off,40,0,7,,,,,,,,4,,,,75,64
94440,note_on,20,0,8,,,,,,,,5,,,,72,108
94440,note_on,20,0,15,,,,,,,,13,,,,36,108
94440,note_on,20,0,13,,,,,,,,11,,,,72,108
94440,note_on,20,0,9,,,,,,,,6,,,,48,108
94440,note_on,20,0,14,,,,,,,,12,,,,48,108
94440,note_on,20,0,6,,,,,,,,3,,,,79,108
94440,note_on,20,0,7,,,,,,,,4,,,,75,108
94440,note_on,20,0,11,,,,,,,,8,,,,79,108
94440,note_on,20,0,10,,,,,,,,7,,,,36,108
94440,note_on,20,0,12,,,,,,,,10,,,,75,108
94480,note_off,40,0,10,,,,,,,,7,,,,36,64
94480,note_off,40,0,15,,,,,,,,13,,,,36,64
94480,note_off,40,0,6,,,,,,,,3,,,,79,64
94480,note_off,40,0,13,,,,,,,,11,,,,72,64
94480,note_off,40,0,9,,,,,,,,6,,,,48,64
94480,note_off,40,0,11,,,,,,,,8,,,,79,64
94480,note_off,40,0,7,,,,,,,,4,,,,75,64
94480,note_off,40,0,8,,,,,,,,5,,,,72,64
94480,note_off,40,0,12,,,,,,,,10,,,,75,64
94480,note_off,40,0,14,,,,,,,,12,,,,48,64
94500,note_on,20,0,13,,,,,,,,11,,,,72,108
94500,note_on,20,0,12,,,,,,,,10,,,,75,108
94500,note_on,20,0,8,,,,,,,,5,,,,72,108
94500,note_on,20,0,9,,,,,,,,6,,,,48,108
94500,note_on,20,0,15,,,,,,,,13,,,,36,108
94500,note_on,20,0,10,,,,,,,,7,,,,36,108
94500,note_on,20,0,6,,,,,,,,3,,,,79,108
94500,note_on,20,0,11,,,,,,,,8,,,,79,108
94500,note_on,20,0,14,,,,,,,,12,,,,48,108
94500,note_on,20,0,7,,,,,,,,4,,,,75,108
94540,note_off,40,0,8,,,,,,,,5,,,,72,64
94540,note_off,40,0,15,,,,,,,,13,,,,36,64
94540,note_off,40,0,7,,,,,,,,4,,,,75,64
94540,note_off,40,0,9,,,,,,,,6,,,,48,64
94540,note_off,40,0,13,,,,,,,,11,,,,72,64
94540,note_off,40,0,14,,,,,,,,12,,,,48,64
94540,note_off,40,0,6,,,,,,,,3,,,,79,64
94540,note_off,40,0,12,,,,,,,,10,,,,75,64
94540,note_off,40,0,10,,,,,,,,7,,,,36,64
94540,note_off,40,0,11,,,,,,,,8,,,,79,64
94560,note_on,20,0,13,,,,,,,,11,,,,72,108
94560,note_on,20,0,8,,,,,,,,5,,,,72,108
94560,note_on,20,0,14,,,,,,,,12,,,,48,108
94560,note_on,20,0,11,,,,,,,,8,,,,79,108
94560,note_on,20,0,10,,,,,,,,7,,,,36,108
94560,note_on,20,0,7,,,,,,,,4,,,,75,108
94560,note_on,20,0,15,,,,,,,,13,,,,36,108
94560,note_on,20,0,12,,,,,,,,10,,,,75,108
94560,note_on,20,0,9,,,,,,,,6,,,,48,108
94560,note_on,20,0,6,,,,,,,,3,,,,79,108
94600,note_off,40,0,11,,,,,,,,8,,,,79,64
94600,note_off,40,0,6,,,,,,,,3,,,,79,64
94600,note_off,40,0,14,,,,,,,,12,,,,48,64
94600,note_off,40,0,8,,,,,,,,5,,,,72,64
94600,note_off,40,0,13,,,,,,,,11,,,,72,64
94600,note_off,40,0,7,,,,,,,,4,,,,75,64
94600,note_off,40,0,10,,,,,,,,7,,,,36,64
94600,note_off,40,0,9,,,,,,,,6,,,,48,64
94600,note_off,40,0,12,,,,,,,,10,,,,75,64
94600,note_off,40,0,15,,,,,,,,13,,,,36,64
94620,note_on,20,0,12,,,,,,,,10,,,,75,108
94620,note_on,20,0,10,,,,,,,,7,,,,36,108
94620,note_on,20,0,9,,,,,,,,6,,,,48,108
94620,note_on,20,0,15,,,,,,,,13,,,,36,108
94620,note_on,20,0,8,,,,,,,,5,,,,72,108
94620,note_on,20,0,11,,,,,,,,8,,,,79,108
94620,note_on,20,0,7,,,,,,,,4,,,,75,108
94620,note_on,20,0,13,,,,,,,,11,,,,72,108
94620,note_on,20,0,14,,,,,,,,12,,,,48,108
94620,note_on,20,0,6,,,,,,,,3,,,,79,108
94660,note_off,40,0,11,,,,,,,,8,,,,79,64
94660,note_off,40,0,13,,,,,,,,11,,,,72,64
94660,note_off,40,0,12,,,,,,,,10,,,,75,64
94660,note_off,40,0,6,,,,,,,,3,,,,79,64
94660,note_off,40,0,7,,,,,,,,4,,,,75,64
94660,note_off,40,0,9,,,,,,,,6,,,,48,64
94660,note_off,40,0,15,,,,,,,,13,,,,36,64
94660,note_off,40,0,10,,,,,,,,7,,,,36,64
94660,note_off,40,0,8,,,,,,,,5,,,,72,64
94660,note_off,40,0,14,,,,,,,,12,,,,48,64
94680,note_on,20,0,9,,,,,,,,6,,,,48,108
94680,note_on,20,0,15,,,,,,,,13,,,,36,108
94680,note_on,20,0,8,,,,,,,,5,,,,72,108
94680,note_on,20,0,12,,,,,,,,10,,,,75,108
94680,note_on,20,0,10,,,,,,,,7,,,,36,108
94680,note_on,20,0,7,,,,,,,,4,,,,75,108
94680,note_on,20,0,13,,,,,,,,11,,,,72,108
94680,note_on,20,0,11,,,,,,,,8,,,,79,108
94680,note_on,20,0,14,,,,,,,,12,,,,48,108
94680,note_on,20,0,6,,,,,,,,3,,,,79,108
94720,note_off,40,0,13,,,,,,,,11,,,,72,64
94720,note_off,40,0,9,,,,,,,,6,,,,48,64
94720,note_off,40,0,8,,,,,,,,5,,,,72,64
94720,note_off,40,0,6,,,,,,,,3,,,,79,64
94720,note_off,40,0,15,,,,,,,,13,,,,36,64
94720,note_off,40,0,11,,,,,,,,8,,,,79,64
94720,note_off,40,0,12,,,,,,,,10,,,,75,64
94720,note_off,40,0,14,,,,,,,,12,,,,48,64
94720,note_off,40,0,10,,,,,,,,7,,,,36,64
94720,note_off,40,0,7,,,,,,,,4,,,,75,64
94740,note_on,20,0,10,,,,,,,,7,,,,36,108
94740,note_on,20,0,6,,,,,,,,3,,,,79,108
94740,note_on,20,0,11,,,,,,,,8,,,,79,108
94740,note_on,20,0,12,,,,,,,,10,,,,75,108
94740,note_on,20,0,14,,,,,,,,12,,,,48,108
94740,note_on,20,0,8,,,,,,,,5,,,,72,108
94740,note_on,20,0,15,,,,,,,,13,,,,36,108
94740,note_on,20,0,7,,,,,,,,4,,,,75,108
94740,note_on,20,0,9,,,,,,,,6,,,,48,108
94740,note_on,20,0,13,,,,,,,,11,,,,72,108
94780,note_off,40,0,9,,,,,,,,6,,,,48,64
94780,note_off,40,0,6,,,,,,,,3,,,,79,64
94780,note_off,40,0,8,,,,,,,,5,,,,72,64
94780,note_off,40,0,10,,,,,,,,7,,,,36,64
94780,note_off,40,0,15,,,,,,,,13,,,,36,64
94780,note_off,40,0,14,,,,,,,,12,,,,48,64
94780,note_off,40,0,11,,,,,,,,8,,,,79,64
94780,note_off,40,0,13,,,,,,,,11,,,,72,64
94780,note_off,40,0,7,,,,,,,,4,,,,75,64
94780,note_off,40,0,12,,,,,,,,10,,,,75,64
94800,note_on,20,0,7,,,,,,,,4,,,,75,108
94800,note_on,20,0,6,,,,,,,,3,,,,79,108
94800,note_on,20,0,9,,,,,,,,6,,,,48,108
94800,note_on,20,0,10,,,,,,,,7,,,,36,108
94800,note_on,20,0,15,,,,,,,,13,,,,36,108
94800,note_on,20,0,14,,,,,,,,12,,,,48,108
94800,note_on,20,0,12,,,,,,,,10,,,,75,108
94800,note_on,20,0,13,,,,,,,,11,,,,72,108
94800,note_on,20,0,8,,,,,,,,5,,,,72,108
94800,note_on,20,0,11,,,,,,,,8,,,,79,108
94840,note_off,40,0,13,,,,,,,,11,,,,72,64
94840,note_off,40,0,6,,,,,,,,3,,,,79,64
94840,note_off,40,0,8,,,,,,,,5,,,,72,64
94840,note_off,40,0,14,,,,,,,,12,,,,48,64
94840,note_off,40,0,11,,,,,,,,8,,,,79,64
94840,note_off,40,0,7,,,,,,,,4,,,,75,64
94840,note_off,40,0,9,,,,,,,,6,,,,48,64
94840,note_off,40,0,15,,,,,,,,13,,,,36,64
94840,note_off,40,0,12,,,,,,,,10,,,,75,64
94840,note_off,40,0,10,,,,,,,,7,,,,36,64
94860,note_on,20,0,6,,,,,,,,3,,,,79,108
94860,note_on,20,0,7,,,,,,,,4,,,,75,108
94860,note_on,20,0,12,,,,,,,,10,,,,75,108
94860,note_on,20,0,8,,,,,,,,5,,,,72,108
94860,note_on,20,0,15,,,,,,,,13,,,,36,108
94860,note_on,20,0,10,,,,,,,,7,,,,36,108
94860,note_on,20,0,9,,,,,,,,6,,,,48,108
94860,note_on,20,0,11,,,,,,,,8,,,,79,108
94860,note_on,20,0,14,,,,,,,,12,,,,48,108
94860,note_on,20,0,13,,,,,,,,11,,,,72,108
94900,note_off,40,0,10,,,,,,,,7,,,,36,64
94900,note_off,40,0,7,,,,,,,,4,,,,75,64
94900,note_off,40,0,15,,,,,,,,13,,,,36,64
94900,note_off,40,0,8,,,,,,,,5,,,,72,64
94900,note_off,40,0,14,,,,,,,,12,,,,48,64
94900,note_off,40,0,11,,,,,,,,8,,,,79,64
94900,note_off,40,0,13,,,,,,,,11,,,,72,64
94900,note_off,40,0,6,,,,,,,,3,,,,79,64
94900,note_off,40,0,12,,,,,,,,10,,,,75,64
94900,note_off,40,0,9,,,,,,,,6,,,,48,64
94920,note_on,20,0,6,,,,,,,,3,,,,79,108
94920,note_on,20,0,9,,,,,,,,6,,,,48,108
94920,note_on,20,0,8,,,,,,,,5,,,,72,108
94920,note_on,20,0,7,,,,,,,,4,,,,75,108
94920,note_on,20,0,11,,,,,,,,8,,,,79,108
94920,note_on,20,0,13,,,,,,,,11,,,,72,108
94920,note_on,20,0,15,,,,,,,,13,,,,36,108
94920,note_on,20,0,12,,,,,,,,10,,,,75,108
94920,note_on,20,0,10,,,,,,,,7,,,,36,108
94920,note_on,20,0,14,,,,,,,,12,,,,48,108
94960,note_off,40,0,8,,,,,,,,5,,,,72,64
94960,note_off,40,0,7,,,,,,,,4,,,,75,64
94960,note_off,40,0,12,,,,,,,,10,,,,75,64
94960,note_off,40,0,10,,,,,,,,7,,,,36,64
94960,note_off,40,0,14,,,,,,,,12,,,,48,64
94960,note_off,40,0,13,,,,,,,,11,,,,72,64
94960,note_off,40,0,15,,,,,,,,13,,,,36,64
94960,note_off,40,0,11,,,,,,,,8,,,,79,64
94960,note_off,40,0,6,,,,,,,,3,,,,79,64
94960,note_off,40,0,9,,,,,,,,6,,,,48,64
94980,note_on,20,0,13,,,,,,,,11,,,,72,108
94980,note_on,20,0,12,,,,,,,,10,,,,75,108
94980,note_on,20,0,15,,,,,,,,13,,,,36,108
94980,note_on,20,0,11,,,,,,,,8,,,,79,108
94980,note_on,20,0,14,,,,,,,,12,,,,48,108
94980,note_on,20,0,10,,,,,,,,7,,,,36,108
94980,note_on,20,0,7,,,,,,,,4,,,,75,108
94980,note_on,20,0,6,,,,,,,,3,,,,79,108
94980,note_on,20,0,8,,,,,,,,5,,,,72,108
94980,note_on,20,0,9,,,,,,,,6,,,,48,108
95020,note_off,40,0,9,,,,,,,,6,,,,48,64
95020,note_off,40,0,8,,,,,,,,5,,,,72,64
95020,note_off,40,0,12,,,,,,,,10,,,,75,64
95020,note_off,40,0,6,,,,,,,,3,,,,79,64
95020,note_off,40,0,7,,,,,,,,4,,,,75,64
95020,note_off,40,0,11,,,,,,,,8,,,,79,64
95020,note_off,40,0,10,,,,,,,,7,,,,36,64
95020,note_off,40,0,15,,,,,,,,13,,,,36,64
95020,note_off,40,0,13,,,,,,,,11,,,,72,64
95020,note_off,40,0,14,,,,,,,,12,,,,48,64
95040,note_on,20,0,11,,,,,,,,8,,,,80,60
95040,note_on,20,0,7,,,,,,,,4,,,,75,60
95040,note_on,20,0,9,,,,,,,,6,,,,48,60
95040,note_on,20,0,13,,,,,,,,11,,,,68,60
95040,note_on,20,0,8,,,,,,,,5,,,,68,60
95040,note_on,740,0,4,,,,,,,,1,,,,84,92
95040,note_on,740,0,5,,,,,,,,2,,,,84,75
95040,note_on,20,0,6,,,,,,,,3,,,,80,60
95040,note_on,20,0,15,,,,,,,,13,,,,36,60
95040,note_on,20,0,14,,,,,,,,12,,,,48,60
95040,note_on,20,0,10,,,,,,,,7,,,,36,60
95040,note_on,20,0,12,,,,,,,,10,,,,75,60
95080,note_off,40,0,5,,,,,,,,2,,,,84,64
95080,note_off,40,0,4,,,,,,,,1,,,,84,64
95100,note_on,20,0,4,,,,,,,,1,,,,85,92
95100,note_on,20,0,5,,,,,,,,2,,,,85,75
95140,note_off,40,0,5,,,,,,,,2,,,,85,64
95140,note_off,40,0,4,,,,,,,,1,,,,85,64
95160,note_on,20,0,4,,,,,,,,1,,,,87,92
95160,note_on,20,0,5,,,,,,,,2,,,,87,75
95200,note_off,40,0,4,,,,,,,,1,,,,87,64
95200,note_off,40,0,5,,,,,,,,2,,,,87,64
95220,note_on,20,0,5,,,,,,,,2,,,,85,75
95220,note_on,20,0,4,,,,,,,,1,,,,85,92
95260,note_off,40,0,4,,,,,,,,1,,,,85,64
95260,note_off,40,0,5,,,,,,,,2,,,,85,64
95280,note_on,20,0,4,,,,,,,,1,,,,84,92
95280,note_on,20,0,5,,,,,,,,2,,,,84,75
95320,note_off,40,0,5,,,,,,,,2,,,,84,64
95320,note_off,40,0,4,,,,,,,,1,,,,84,64
95340,note_on,20,0,5,,,,,,,,2,,,,85,75
95340,note_on,20,0,4,,,,,,,,1,,,,85,92
95380,note_off,40,0,4,,,,,,,,1,,,,85,64
95380,note_off,40,0,5,,,,,,,,2,,,,85,64
95400,note_on,20,0,4,,,,,,,,1,,,,84,92
95400,note_on,20,0,5,,,,,,,,2,,,,84,75
95440,note_off,400,0,13,,,,,,,,11,,,,68,64
95440,note_off,40,0,4,,,,,,,,1,,,,84,64
95440,note_off,400,0,10,,,,,,,,7,,,,36,64
95440,note_off,400,0,8,,,,,,,,5,,,,68,64
95440,note_off,400,0,9,,,,,,,,6,,,,48,64
95440,note_off,400,0,11,,,,,,,,8,,,,80,64
95440,note_off,400,0,7,,,,,,,,4,,,,75,64
95440,note_off,400,0,6,,,,,,,,3,,,,80,64
95440,note_off,400,0,14,,,,,,,,12,,,,48,64
95440,note_off,400,0,12,,,,,,,,10,,,,75,64
95440,note_off,40,0,5,,,,,,,,2,,,,84,64
95440,note_off,400,0,15,,,,,,,,13,,,,36,64
95460,note_on,20,0,5,,,,,,,,2,,,,82,75
95460,note_on,20,0,4,,,,,,,,1,,,,82,92
95500,note_off,40,0,4,,,,,,,,1,,,,82,64
95500,note_off,40,0,5,,,,,,,,2,,,,82,64
95520,note_on,20,0,5,,,,,,,,2,,,,80,75
95520,note_on,20,0,4,,,,,,,,1,,,,80,92
95560,note_off,40,0,4,,,,,,,,1,,,,80,64
95560,note_off,40,0,5,,,,,,,,2,,,,80,64
95580,note_on,20,0,5,,,,,,,,2,,,,82,75
95580,note_on,20,0,4,,,,,,,,1,,,,82,92
95620,note_off,40,0,4,,,,,,,,1,,,,82,64
95620,note_off,40,0,5,,,,,,,,2,,,,82,64
95640,note_on,20,0,5,,,,,,,,2,,,,80,75
95640,note_on,20,0,4,,,,,,,,1,,,,80,92
95680,note_off,40,0,5,,,,,,,,2,,,,80,64
95680,note_off,40,0,4,,,,,,,,1,,,,80,64
95700,note_on,20,0,5,,,,,,,,2,,,,79,75
95700,note_on,20,0,4,,,,,,,,1,,,,79,92
95740,note_off,40,0,5,,,,,,,,2,,,,79,64
95740,note_off,40,0,4,,,,,,,,1,,,,79,64
95760,note_on,320,0,12,,,,,,,,10,,,,77,108
95760,note_on,320,0,11,,,,,,,,8,,,,80,108
95760,note_on,320,0,9,,,,,,,,6,,,,49,108
95760,note_on,320,0,7,,,,,,,,4,,,,77,108
95760,note_on,320,0,10,,,,,,,,7,,,,37,108
95760,note_on,320,0,8,,,,,,,,5,,,,73,108
95760,note_on,320,0,6,,,,,,,,3,,,,80,108
95760,note_on,320,0,15,,,,,,,,13,,,,37,108
95760,note_on,320,0,13,,,,,,,,11,,,,73,108
95760,note_on,320,0,14,,,,,,,,12,,,,49,108
95800,note_off,40,0,7,,,,,,,,4,,,,77,64
95800,note_off,40,0,12,,,,,,,,10,,,,77,64
95800,note_off,40,0,9,,,,,,,,6,,,,49,64
95800,note_off,40,0,14,,,,,,,,12,,,,49,64
95800,note_off,40,0,10,,,,,,,,7,,,,37,64
95800,note_off,40,0,15,,,,,,,,13,,,,37,64
95800,note_off,40,0,6,,,,,,,,3,,,,80,64
95800,note_off,40,0,11,,,,,,,,8,,,,80,64
95800,note_off,40,0,8,,,,,,,,5,,,,73,64
95800,note_off,40,0,13,,,,,,,,11,,,,73,64
95820,note_on,20,0,6,,,,,,,,3,,,,80,108
95820,note_on,20,0,11,,,,,,,,8,,,,80,108
95820,note_on,20,0,10,,,,,,,,7,,,,37,108
95820,note_on,20,0,8,,,,,,,,5,,,,73,108
95820,note_on,20,0,15,,,,,,,,13,,,,37,108
95820,note_on,20,0,14,,,,,,,,12,,,,49,108
95820,note_on,20,0,9,,,,,,,,6,,,,49,108
95820,note_on,20,0,12,,,,,,,,10,,,,77,108
95820,note_on,20,0,7,,,,,,,,4,,,,77,108
95820,note_on,20,0,13,,,,,,,,11,,,,73,108
95860,note_off,40,0,15,,,,,,,,13,,,,37,64
95860,note_off,40,0,9,,,,,,,,6,,,,49,64
95860,note_off,40,0,10,,,,,,,,7,,,,37,64
95860,note_off,40,0,11,,,,,,,,8,,,,80,64
95860,note_off,40,0,7,,,,,,,,4,,,,77,64
95860,note_off,40,0,12,,,,,,,,10,,,,77,64
95860,note_off,40,0,13,,,,,,,,11,,,,73,64
95860,note_off,40,0,14,,,,,,,,12,,,,49,64
95860,note_off,40,0,6,,,,,,,,3,,,,80,64
95860,note_off,40,0,8,,,,,,,,5,,,,73,64
95880,note_on,20,0,11,,,,,,,,8,,,,80,108
95880,note_on,20,0,14,,,,,,,,12,,,,49,108
95880,note_on,20,0,15,,,,,,,,13,,,,37,108
95880,note_on,20,0,10,,,,,,,,7,,,,37,108
95880,note_on,20,0,9,,,,,,,,6,,,,49,108
95880,note_on,20,0,6,,,,,,,,3,,,,80,108
95880,note_on,20,0,12,,,,,,,,10,,,,77,108
95880,note_on,20,0,13,,,,,,,,11,,,,73,108
95880,note_on,20,0,7,,,,,,,,4,,,,77,108
95880,note_on,20,0,8,,,,,,,,5,,,,73,108
95920,note_off,40,0,6,,,,,,,,3,,,,80,64
95920,note_off,40,0,15,,,,,,,,13,,,,37,64
95920,note_off,40,0,10,,,,,,,,7,,,,37,64
95920,note_off,40,0,14,,,,,,,,12,,,,49,64
95920,note_off,40,0,11,,,,,,,,8,,,,80,64
95920,note_off,40,0,9,,,,,,,,6,,,,49,64
95920,note_off,40,0,7,,,,,,,,4,,,,77,64
95920,note_off,40,0,12,,,,,,,,10,,,,77,64
95920,note_off,40,0,8,,,,,,,,5,,,,73,64
95920,note_off,40,0,13,,,,,,,,11,,,,73,64
95940,note_on,20,0,9,,,,,,,,6,,,,49,108
95940,note_on,20,0,12,,,,,,,,10,,,,77,108
95940,note_on,20,0,13,,,,,,,,11,,,,73,108
95940,note_on,20,0,10,,,,,,,,7,,,,37,108
95940,note_on,20,0,7,,,,,,,,4,,,,77,108
95940,note_on,20,0,11,,,,,,,,8,,,,80,108
95940,note_on,20,0,15,,,,,,,,13,,,,37,108
95940,note_on,20,0,8,,,,,,,,5,,,,73,108
95940,note_on,20,0,6,,,,,,,,3,,,,80,108
95940,note_on,20,0,14,,,,,,,,12,,,,49,108
95980,note_off,40,0,11,,,,,,,,8,,,,80,64
95980,note_off,40,0,10,,,,,,,,7,,,,37,64
95980,note_off,40,0,9,,,,,,,,6,,,,49,64
95980,note_off,40,0,13,,,,,,,,11,,,,73,64
95980,note_off,40,0,12,,,,,,,,10,,,,77,64
95980,note_off,40,0,6,,,,,,,,3,,,,80,64
95980,note_off,40,0,7,,,,,,,,4,,,,77,64
95980,note_off,40,0,15,,,,,,,,13,,,,37,64
95980,note_off,40,0,8,,,,,,,,5,,,,73,64
95980,note_off,40,0,14,,,,,,,,12,,,,49,64
96000,note_on,20,0,6,,,,,,,,3,,,,80,108
96000,note_on,20,0,13,,,,,,,,11,,,,73,108
96000,note_on,20,0,10,,,,,,,,7,,,,37,108
96000,note_on,20,0,14,,,,,,,,12,,,,49,108
96000,note_on,20,0,7,,,,,,,,4,,,,77,108
96000,note_on,20,0,12,,,,,,,,10,,,,77,108
96000,note_on,20,0,9,,,,,,,,6,,,,49,108
96000,note_on,20,0,15,,,,,,,,13,,,,37,108
96000,note_on,20,0,8,,,,,,,,5,,,,73,108
96000,note_on,20,0,11,,,,,,,,8,,,,80,108
96040,note_off,40,0,14,,,,,,,,12,,,,49,64
96040,note_off,40,0,15,,,,,,,,13,,,,37,64
96040,note_off,40,0,7,,,,,,,,4,,,,77,64
96040,note_off,40,0,11,,,,,,,,8,,,,80,64
96040,note_off,40,0,9,,,,,,,,6,,,,49,64
96040,note_off,40,0,12,,,,,,,,10,,,,77,64
96040,note_off,40,0,8,,,,,,,,5,,,,73,64
96040,note_off,40,0,6,,,,,,,,3,,,,80,64
96040,note_off,40,0,10,,,,,,,,7,,,,37,64
96040,note_off,40,0,13,,,,,,,,11,,,,73,64
96060,note_on,20,0,9,,,,,,,,6,,,,49,108
96060,note_on,20,0,15,,,,,,,,13,,,,37,108
96060,note_on,20,0,14,,,,,,,,12,,,,49,108
96060,note_on,20,0,12,,,,,,,,10,,,,77,108
96060,note_on,20,0,8,,,,,,,,5,,,,73,108
96060,note_on,20,0,13,,,,,,,,11,,,,73,108
96060,note_on,20,0,6,,,,,,,,3,,,,80,108
96060,note_on,20,0,10,,,,,,,,7,,,,37,108
96060,note_on,20,0,7,,,,,,,,4,,,,77,108
96060,note_on,20,0,11,,,,,,,,8,,,,80,108
96100,note_off,40,0,13,,,,,,,,11,,,,73,64
96100,note_off,40,0,10,,,,,,,,7,,,,37,64
96100,note_off,40,0,7,,,,,,,,4,,,,77,64
96100,note_off,40,0,6,,,,,,,,3,,,,80,64
96100,note_off,40,0,14,,,,,,,,12,,,,49,64
96100,note_off,40,0,15,,,,,,,,13,,,,37,64
96100,note_off,40,0,11,,,,,,,,8,,,,80,64
96100,note_off,40,0,12,,,,,,,,10,,,,77,64
96100,note_off,40,0,9,,,,,,,,6,,,,49,64
96100,note_off,40,0,8,,,,,,,,5,,,,73,64
96120,note_on,20,0,12,,,,,,,,10,,,,77,108
96120,note_on,20,0,9,,,,,,,,6,,,,49,108
96120,note_on,20,0,6,,,,,,,,3,,,,80,108
96120,note_on,20,0,8,,,,,,,,5,,,,73,108
96120,note_on,20,0,11,,,,,,,,8,,,,80,108
96120,note_on,20,0,10,,,,,,,,7,,,,37,108
96120,note_on,20,0,7,,,,,,,,4,,,,77,108
96120,note_on,20,0,15,,,,,,,,13,,,,37,108
96120,note_on,20,0,13,,,,,,,,11,,,,73,108
96120,note_on,20,0,14,,,,,,,,12,,,,49,108
96160,note_off,40,0,10,,,,,,,,7,,,,37,64
96160,note_off,40,0,13,,,,,,,,11,,,,73,64
96160,note_off,40,0,6,,,,,,,,3,,,,80,64
96160,note_off,40,0,7,,,,,,,,4,,,,77,64
96160,note_off,40,0,9,,,,,,,,6,,,,49,64
96160,note_off,40,0,12,,,,,,,,10,,,,77,64
96160,note_off,40,0,11,,,,,,,,8,,,,80,64
96160,note_off,40,0,8,,,,,,,,5,,,,73,64
96160,note_off,40,0,15,,,,,,,,13,,,,37,64
96160,note_off,40,0,14,,,,,,,,12,,,,49,64
96180,note_on,20,0,10,,,,,,,,7,,,,37,108
96180,note_on,20,0,8,,,,,,,,5,,,,73,108
96180,note_on,20,0,13,,,,,,,,11,,,,73,108
96180,note_on,20,0,6,,,,,,,,3,,,,80,108
96180,note_on,20,0,9,,,,,,,,6,,,,49,108
96180,note_on,20,0,14,,,,,,,,12,,,,49,108
96180,note_on,20,0,7,,,,,,,,4,,,,77,108
96180,note_on,20,0,12,,,,,,,,10,,,,77,108
96180,note_on,20,0,11,,,,,,,,8,,,,80,108
96180,note_on,20,0,15,,,,,,,,13,,,,37,108
96220,note_off,40,0,12,,,,,,,,10,,,,77,64
96220,note_off,40,0,11,,,,,,,,8,,,,80,64
96220,note_off,40,0,14,,,,,,,,12,,,,49,64
96220,note_off,40,0,10,,,,,,,,7,,,,37,64
96220,note_off,40,0,7,,,,,,,,4,,,,77,64
96220,note_off,40,0,13,,,,,,,,11,,,,73,64
96220,note_off,40,0,6,,,,,,,,3,,,,80,64
96220,note_off,40,0,8,,,,,,,,5,,,,73,64
96220,note_off,40,0,9,,,,,,,,6,,,,49,64
96220,note_off,40,0,15,,,,,,,,13,,,,37,64
96240,note_on,20,0,15,,,,,,,,13,,,,37,108
96240,note_on,20,0,10,,,,,,,,7,,,,37,108
96240,note_on,20,0,9,,,,,,,,6,,,,49,108
96240,note_on,20,0,12,,,,,,,,10,,,,77,108
96240,note_on,20,0,6,,,,,,,,3,,,,80,108
96240,note_on,20,0,13,,,,,,,,11,,,,73,108
96240,note_on,20,0,7,,,,,,,,4,,,,77,108
96240,note_on,20,0,11,,,,,,,,8,,,,80,108
96240,note_on,20,0,14,,,,,,,,12,,,,49,108
96240,note_on,20,0,8,,,,,,,,5,,,,73,108
96280,note_off,40,0,10,,,,,,,,7,,,,37,64
96280,note_off,40,0,13,,,,,,,,11,,,,73,64
96280,note_off,40,0,15,,,,,,,,13,,,,37,64
96280,note_off,40,0,7,,,,,,,,4,,,,77,64
96280,note_off,40,0,14,,,,,,,,12,,,,49,64
96280,note_off,40,0,12,,,,,,,,10,,,,77,64
96280,note_off,40,0,6,,,,,,,,3,,,,80,64
96280,note_off,40,0,8,,,,,,,,5,,,,73,64
96280,note_off,40,0,11,,,,,,,,8,,,,80,64
96280,note_off,40,0,9,,,,,,,,6,,,,49,64
96300,note_on,20,0,6,,,,,,,,3,,,,80,108
96300,note_on,20,0,7,,,,,,,,4,,,,77,108
96300,note_on,20,0,10,,,,,,,,7,,,,37,108
96300,note_on,20,0,12,,,,,,,,10,,,,77,108
96300,note_on,20,0,8,,,,,,,,5,,,,73,108
96300,note_on,20,0,13,,,,,,,,11,,,,73,108
96300,note_on,20,0,14,,,,,,,,12,,,,49,108
96300,note_on,20,0,11,,,,,,,,8,,,,80,108
96300,note_on,20,0,9,,,,,,,,6,,,,49,108
96300,note_on,20,0,15,,,,,,,,13,,,,37,108
96340,note_off,40,0,7,,,,,,,,4,,,,77,64
96340,note_off,40,0,8,,,,,,,,5,,,,73,64
96340,note_off,40,0,11,,,,,,,,8,,,,80,64
96340,note_off,40,0,10,,,,,,,,7,,,,37,64
96340,note_off,40,0,15,,,,,,,,13,,,,37,64
96340,note_off,40,0,6,,,,,,,,3,,,,80,64
96340,note_off,40,0,9,,,,,,,,6,,,,49,64
96340,note_off,40,0,12,,,,,,,,10,,,,77,64
96340,note_off,40,0,14,,,,,,,,12,,,,49,64
96340,note_off,40,0,13,,,,,,,,11,,,,73,64
96360,note_on,20,0,12,,,,,,,,10,,,,77,108
96360,note_on,20,0,13,,,,,,,,11,,,,73,108
96360,note_on,20,0,8,,,,,,,,5,,,,73,108
96360,note_on,20,0,14,,,,,,,,12,,,,49,108
96360,note_on,20,0,9,,,,,,,,6,,,,49,108
96360,note_on,20,0,7,,,,,,,,4,,,,77,108
96360,note_on,20,0,10,,,,,,,,7,,,,37,108
96360,note_on,20,0,6,,,,,,,,3,,,,80,108
96360,note_on,20,0,15,,,,,,,,13,,,,37,108
96360,note_on,20,0,11,,,,,,,,8,,,,80,108
96400,note_off,40,0,12,,,,,,,,10,,,,77,64
96400,note_off,40,0,7,,,,,,,,4,,,,77,64
96400,note_off,40,0,11,,,,,,,,8,,,,80,64
96400,note_off,40,0,15,,,,,,,,13,,,,37,64
96400,note_off,40,0,9,,,,,,,,6,,,,49,64
96400,note_off,40,0,14,,,,,,,,12,,,,49,64
96400,note_off,40,0,8,,,,,,,,5,,,,73,64
96400,note_off,40,0,13,,,,,,,,11,,,,73,64
96400,note_off,40,0,6,,,,,,,,3,,,,80,64
96400,note_off,40,0,10,,,,,,,,7,,,,37,64
96420,note_on,20,0,13,,,,,,,,11,,,,73,108
96420,note_on,20,0,7,,,,,,,,4,,,,77,108
96420,note_on,20,0,9,,,,,,,,6,,,,49,108
96420,note_on,20,0,10,,,,,,,,7,,,,37,108
96420,note_on,20,0,12,,,,,,,,10,,,,77,108
96420,note_on,20,0,8,,,,,,,,5,,,,73,108
96420,note_on,20,0,14,,,,,,,,12,,,,49,108
96420,note_on,20,0,11,,,,,,,,8,,,,80,108
96420,note_on,20,0,6,,,,,,,,3,,,,80,108
96420,note_on,20,0,15,,,,,,,,13,,,,37,108
96460,note_off,40,0,11,,,,,,,,8,,,,80,64
96460,note_off,40,0,7,,,,,,,,4,,,,77,64
96460,note_off,40,0,9,,,,,,,,6,,,,49,64
96460,note_off,40,0,12,,,,,,,,10,,,,77,64
96460,note_off,40,0,8,,,,,,,,5,,,,73,64
96460,note_off,40,0,15,,,,,,,,13,,,,37,64
96460,note_off,40,0,10,,,,,,,,7,,,,37,64
96460,note_off,40,0,14,,,,,,,,12,,,,49,64
96460,note_off,40,0,6,,,,,,,,3,,,,80,64
96460,note_off,40,0,13,,,,,,,,11,,,,73,64
96480,note_on,20,0,6,,,,,,,,3,,,,82,60
96480,note_on,20,0,14,,,,,,,,12,,,,49,60
96480,note_on,20,0,13,,,,,,,,11,,,,70,60
96480,note_on,20,0,15,,,,,,,,13,,,,37,60
96480,note_on,20,0,10,,,,,,,,7,,,,37,60
96480,note_on,20,0,8,,,,,,,,5,,,,70,60
96480,note_on,20,0,9,,,,,,,,6,,,,49,60
96480,note_on,20,0,11,,,,,,,,8,,,,82,60
96480,note_on,20,0,7,,,,,,,,4,,,,77,60
96480,note_on,740,0,5,,,,,,,,2,,,,85,75
96480,note_on,20,0,12,,,,,,,,10,,,,77,60
96480,note_on,740,0,4,,,,,,,,1,,,,85,92
96520,note_off,40,0,5,,,,,,,,2,,,,85,64
96520,note_off,40,0,4,,,,,,,,1,,,,85,64
96540,note_on,20,0,4,,,,,,,,1,,,,87,92
96540,note_on,20,0,5,,,,,,,,2,,,,87,75
96580,note_off,40,0,4,,,,,,,,1,,,,87,64
96580,note_off,40,0,5,,,,,,,,2,,,,87,64
96600,note_on,20,0,4,,,,,,,,1,,,,89,92
96600,note_on,20,0,5,,,,,,,,2,,,,89,75
96640,note_off,40,0,4,,,,,,,,1,,,,89,64
96640,note_off,40,0,5,,,,,,,,2,,,,89,64
96660,note_on,20,0,4,,,,,,,,1,,,,87,92
96660,note_on,20,0,5,,,,,,,,2,,,,87,75
96700,note_off,40,0,5,,,,,,,,2,,,,87,64
96700,note_off,40,0,4,,,,,,,,1,,,,87,64
96720,note_on,20,0,4,,,,,,,,1,,,,85,92
96720,note_on,20,0,5,,,,,,,,2,,,,85,75
96760,note_off,40,0,5,,,,,,,,2,,,,85,64
96760,note_off,40,0,4,,,,,,,,1,,,,85,64
96780,note_on,20,0,4,,,,,,,,1,,,,87,92
96780,note_on,20,0,5,,,,,,,,2,,,,87,75
96820,note_off,40,0,5,,,,,,,,2,,,,87,64
96820,note_off,40,0,4,,,,,,,,1,,,,87,64
96840,note_on,20,0,4,,,,,,,,1,,,,85,92
96840,note_on,20,0,5,,,,,,,,2,,,,85,75
96880,note_off,40,0,5,,,,,,,,2,,,,85,64
96880,note_off,40,0,4,,,,,,,,1,,,,85,64
96880,note_off,400,0,11,,,,,,,,8,,,,82,64
96880,note_off,400,0,8,,,,,,,,5,,,,70,64
96880,note_off,400,0,6,,,,,,,,3,,,,82,64
96880,note_off,400,0,15,,,,,,,,13,,,,37,64
96880,note_off,400,0,12,,,,,,,,10,,,,77,64
96880,note_off,400,0,9,,,,,,,,6,,,,49,64
96880,note_off,400,0,13,,,,,,,,11,,,,70,64
96880,note_off,400,0,14,,,,,,,,12,,,,49,64
96880,note_off,400,0,10,,,,,,,,7,,,,37,64
96880,note_off,400,0,7,,,,,,,,4,,,,77,64
96900,note_on,20,0,4,,,,,,,,1,,,,84,92
96900,note_on,20,0,5,,,,,,,,2,,,,84,75
96940,note_off,40,0,5,,,,,,,,2,,,,84,64
96940,note_off,40,0,4,,,,,,,,1,,,,84,64
96960,note_on,20,0,5,,,,,,,,2,,,,82,75
96960,note_on,20,0,4,,,,,,,,1,,,,82,92
97000,note_off,40,0,5,,,,,,,,2,,,,82,64
97000,note_off,40,0,4,,,,,,,,1,,,,82,64
97020,note_on,20,0,4,,,,,,,,1,,,,84,92
97020,note_on,20,0,5,,,,,,,,2,,,,84,75
97060,note_off,40,0,5,,,,,,,,2,,,,84,64
97060,note_off,40,0,4,,,,,,,,1,,,,84,64
97080,note_on,20,0,4,,,,,,,,1,,,,82,92
97080,note_on,20,0,5,,,,,,,,2,,,,82,75
97120,note_off,40,0,4,,,,,,,,1,,,,82,64
97120,note_off,40,0,5,,,,,,,,2,,,,82,64
97140,note_on,20,0,5,,,,,,,,2,,,,80,75
97140,note_on,20,0,4,,,,,,,,1,,,,80,92
97180,note_off,40,0,5,,,,,,,,2,,,,80,64
97180,note_off,40,0,4,,,,,,,,1,,,,80,64
97200,note_on,320,0,13,,,,,,,,11,,,,67,108
97200,note_on,320,0,8,,,,,,,,5,,,,67,108
97200,note_on,320,0,12,,,,,,,,10,,,,79,108
97200,note_on,320,0,11,,,,,,,,8,,,,82,108
97200,note_on,320,0,10,,,,,,,,7,,,,39,108
97200,note_on,320,0,15,,,,,,,,13,,,,39,108
97200,note_on,320,0,7,,,,,,,,4,,,,79,108
97200,note_on,320,0,6,,,,,,,,3,,,,82,108
97200,note_on,320,0,14,,,,,,,,12,,,,51,108
97200,note_on,320,0,9,,,,,,,,6,,,,51,108
97240,note_off,40,0,7,,,,,,,,4,,,,79,64
97240,note_off,40,0,14,,,,,,,,12,,,,51,64
97240,note_off,40,0,10,,,,,,,,7,,,,39,64
97240,note_off,40,0,8,,,,,,,,5,,,,67,64
97240,note_off,40,0,11,,,,,,,,8,,,,82,64
97240,note_off,40,0,15,,,,,,,,13,,,,39,64
97240,note_off,40,0,13,,,,,,,,11,,,,67,64
97240,note_off,40,0,6,,,,,,,,3,,,,82,64
97240,note_off,40,0,9,,,,,,,,6,,,,51,64
97240,note_off,40,0,12,,,,,,,,10,,,,79,64
97260,note_on,20,0,10,,,,,,,,7,,,,39,108
97260,note_on,20,0,8,,,,,,,,5,,,,67,108
97260,note_on,20,0,12,,,,,,,,10,,,,79,108
97260,note_on,20,0,11,,,,,,,,8,,,,82,108
97260,note_on,20,0,6,,,,,,,,3,,,,82,108
97260,note_on,20,0,14,,,,,,,,12,,,,51,108
97260,note_on,20,0,13,,,,,,,,11,,,,67,108
97260,note_on,20,0,7,,,,,,,,4,,,,79,108
97260,note_on,20,0,15,,,,,,,,13,,,,39,108
97260,note_on,20,0,9,,,,,,,,6,,,,51,108
97300,note_off,40,0,8,,,,,,,,5,,,,67,64
97300,note_off,40,0,12,,,,,,,,10,,,,79,64
97300,note_off,40,0,10,,,,,,,,7,,,,39,64
97300,note_off,40,0,7,,,,,,,,4,,,,79,64
97300,note_off,40,0,15,,,,,,,,13,,,,39,64
97300,note_off,40,0,11,,,,,,,,8,,,,82,64
97300,note_off,40,0,13,,,,,,,,11,,,,67,64
97300,note_off,40,0,9,,,,,,,,6,,,,51,64
97300,note_off,40,0,6,,,,,,,,3,,,,82,64
97300,note_off,40,0,14,,,,,,,,12,,,,51,64
97320,note_on,20,0,9,,,,,,,,6,,,,51,108
97320,note_on,20,0,13,,,,,,,,11,,,,67,108
97320,note_on,20,0,11,,,,,,,,8,,,,82,108
97320,note_on,20,0,15,,,,,,,,13,,,,39,108
97320,note_on,20,0,7,,,,,,,,4,,,,79,108
97320,note_on,20,0,6,,,,,,,,3,,,,82,108
97320,note_on,20,0,14,,,,,,,,12,,,,51,108
97320,note_on,20,0,10,,,,,,,,7,,,,39,108
97320,note_on,20,0,8,,,,,,,,5,,,,67,108
97320,note_on,20,0,12,,,,,,,,10,,,,79,108
97360,note_off,40,0,8,,,,,,,,5,,,,67,64
97360,note_off,40,0,7,,,,,,,,4,,,,79,64
97360,note_off,40,0,10,,,,,,,,7,,,,39,64
97360,note_off,40,0,15,,,,,,,,13,,,,39,64
97360,note_off,40,0,11,,,,,,,,8,,,,82,64
97360,note_off,40,0,9,,,,,,,,6,,,,51,64
97360,note_off,40,0,6,,,,,,,,3,,,,82,64
97360,note_off,40,0,12,,,,,,,,10,,,,79,64
97360,note_off,40,0,14,,,,,,,,12,,,,51,64
97360,note_off,40,0,13,,,,,,,,11,,,,67,64
97380,note_on,20,0,9,,,,,,,,6,,,,51,108
97380,note_on,20,0,12,,,,,,,,10,,,,79,108
97380,note_on,20,0,6,,,,,,,,3,,,,82,108
97380,note_on,20,0,7,,,,,,,,4,,,,79,108
97380,note_on,20,0,8,,,,,,,,5,,,,67,108
97380,note_on,20,0,13,,,,,,,,11,,,,67,108
97380,note_on,20,0,14,,,,,,,,12,,,,51,108
97380,note_on,20,0,15,,,,,,,,13,,,,39,108
97380,note_on,20,0,11,,,,,,,,8,,,,82,108
97380,note_on,20,0,10,,,,,,,,7,,,,39,108
97420,note_off,40,0,7,,,,,,,,4,,,,79,64
97420,note_off,40,0,11,,,,,,,,8,,,,82,64
97420,note_off,40,0,15,,,,,,,,13,,,,39,64
97420,note_off,40,0,8,,,,,,,,5,,,,67,64
97420,note_off,40,0,9,,,,,,,,6,,,,51,64
97420,note_off,40,0,13,,,,,,,,11,,,,67,64
97420,note_off,40,0,14,,,,,,,,12,,,,51,64
97420,note_off,40,0,12,,,,,,,,10,,,,79,64
97420,note_off,40,0,6,,,,,,,,3,,,,82,64
97420,note_off,40,0,10,,,,,,,,7,,,,39,64
97440,note_on,20,0,9,,,,,,,,6,,,,51,108
97440,note_on,20,0,13,,,,,,,,11,,,,67,108
97440,note_on,20,0,14,,,,,,,,12,,,,51,108
97440,note_on,20,0,7,,,,,,,,4,,,,79,108
97440,note_on,20,0,8,,,,,,,,5,,,,67,108
97440,note_on,20,0,10,,,,,,,,7,,,,39,108
97440,note_on,20,0,15,,,,,,,,13,,,,39,108
97440,note_on,20,0,12,,,,,,,,10,,,,79,108
97440,note_on,20,0,6,,,,,,,,3,,,,82,108
97440,note_on,20,0,11,,,,,,,,8,,,,82,108
97480,note_off,40,0,7,,,,,,,,4,,,,79,64
97480,note_off,40,0,12,,,,,,,,10,,,,79,64
97480,note_off,40,0,11,,,,,,,,8,,,,82,64
97480,note_off,40,0,9,,,,,,,,6,,,,51,64
97480,note_off,40,0,13,,,,,,,,11,,,,67,64
97480,note_off,40,0,8,,,,,,,,5,,,,67,64
97480,note_off,40,0,15,,,,,,,,13,,,,39,64
97480,note_off,40,0,14,,,,,,,,12,,,,51,64
97480,note_off,40,0,6,,,,,,,,3,,,,82,64
97480,note_off,40,0,10,,,,,,,,7,,,,39,64
97500,note_on,20,0,15,,,,,,,,13,,,,39,108
97500,note_on,20,0,11,,,,,,,,8,,,,82,108
97500,note_on,20,0,13,,,,,,,,11,,,,67,108
97500,note_on,20,0,14,,,,,,,,12,,,,51,108
97500,note_on,20,0,7,,,,,,,,4,,,,79,108
97500,note_on,20,0,6,,,,,,,,3,,,,82,108
97500,note_on,20,0,9,,,,,,,,6,,,,51,108
97500,note_on,20,0,10,,,,,,,,7,,,,39,108
97500,note_on,20,0,12,,,,,,,,10,,,,79,108
97500,note_on,20,0,8,,,,,,,,5,,,,67,108
97540,note_off,40,0,8,,,,,,,,5,,,,67,64
97540,note_off,40,0,12,,,,,,,,10,,,,79,64
97540,note_off,40,0,9,,,,,,,,6,,,,51,64
97540,note_off,40,0,11,,,,,,,,8,,,,82,64
97540,note_off,40,0,10,,,,,,,,7,,,,39,64
97540,note_off,40,0,13,,,,,,,,11,,,,67,64
97540,note_off,40,0,15,,,,,,,,13,,,,39,64
97540,note_off,40,0,6,,,,,,,,3,,,,82,64
97540,note_off,40,0,14,,,,,,,,12,,,,51,64
97540,note_off,40,0,7,,,,,,,,4,,,,79,64
97560,note_on,20,0,11,,,,,,,,8,,,,82,108
97560,note_on,20,0,9,,,,,,,,6,,,,51,108
97560,note_on,20,0,15,,,,,,,,13,,,,39,108
97560,note_on,20,0,8,,,,,,,,5,,,,67,108
97560,note_on,20,0,12,,,,,,,,10,,,,79,108
97560,note_on,20,0,10,,,,,,,,7,,,,39,108
97560,note_on,20,0,7,,,,,,,,4,,,,79,108
97560,note_on,20,0,13,,,,,,,,11,,,,67,108
97560,note_on,20,0,6,,,,,,,,3,,,,82,108
97560,note_on,20,0,14,,,,,,,,12,,,,51,108
97600,note_off,40,0,7,,,,,,,,4,,,,79,64
97600,note_off,40,0,9,,,,,,,,6,,,,51,64
97600,note_off,40,0,13,,,,,,,,11,,,,67,64
97600,note_off,40,0,11,,,,,,,,8,,,,82,64
97600,note_off,40,0,6,,,,,,,,3,,,,82,64
97600,note_off,40,0,15,,,,,,,,13,,,,39,64
97600,note_off,40,0,12,,,,,,,,10,,,,79,64
97600,note_off,40,0,14,,,,,,,,12,,,,51,64
97600,note_off,40,0,10,,,,,,,,7,,,,39,64
97600,note_off,40,0,8,,,,,,,,5,,,,67,64
97620,note_on,20,0,6,,,,,,,,3,,,,82,108
97620,note_on,20,0,11,,,,,,,,8,,,,82,108
97620,note_on,20,0,15,,,,,,,,13,,,,39,108
97620,note_on,20,0,10,,,,,,,,7,,,,39,108
97620,note_on,20,0,8,,,,,,,,5,,,,67,108
97620,note_on,20,0,9,,,,,,,,6,,,,51,108
97620,note_on,20,0,12,,,,,,,,10,,,,79,108
97620,note_on,20,0,7,,,,,,,,4,,,,79,108
97620,note_on,20,0,14,,,,,,,,12,,,,51,108
97620,note_on,20,0,13,,,,,,,,11,,,,67,108
97660,note_off,40,0,8,,,,,,,,5,,,,67,64
97660,note_off,40,0,7,,,,,,,,4,,,,79,64
97660,note_off,40,0,9,,,,,,,,6,,,,51,64
97660,note_off,40,0,10,,,,,,,,7,,,,39,64
97660,note_off,40,0,13,,,,,,,,11,,,,67,64
97660,note_off,40,0,11,,,,,,,,8,,,,82,64
97660,note_off,40,0,12,,,,,,,,10,,,,79,64
97660,note_off,40,0,15,,,,,,,,13,,,,39,64
97660,note_off,40,0,6,,,,,,,,3,,,,82,64
97660,note_off,40,0,14,,,,,,,,12,,,,51,64
97680,note_on,20,0,14,,,,,,,,12,,,,51,108
97680,note_on,20,0,6,,,,,,,,3,,,,82,108
97680,note_on,20,0,15,,,,,,,,13,,,,39,108
97680,note_on,20,0,11,,,,,,,,8,,,,82,108
97680,note_on,20,0,13,,,,,,,,11,,,,64,108
97680,note_on,20,0,12,,,,,,,,10,,,,79,108
97680,note_on,20,0,8,,,,,,,,5,,,,64,108
97680,note_on,20,0,10,,,,,,,,7,,,,39,108
97680,note_on,20,0,9,,,,,,,,6,,,,51,108
97680,note_on,20,0,7,,,,,,,,4,,,,79,108
97720,note_off,40,0,9,,,,,,,,6,,,,51,64
97720,note_off,40,0,12,,,,,,,,10,,,,79,64
97720,note_off,40,0,7,,,,,,,,4,,,,79,64
97720,note_off,40,0,11,,,,,,,,8,,,,82,64
97720,note_off,40,0,10,,,,,,,,7,,,,39,64
97720,note_off,40,0,6,,,,,,,,3,,,,82,64
97720,note_off,40,0,14,,,,,,,,12,,,,51,64
97720,note_off,40,0,8,,,,,,,,5,,,,64,64
97720,note_off,40,0,15,,,,,,,,13,,,,39,64
97720,note_off,40,0,13,,,,,,,,11,,,,64,64
97740,note_on,20,0,12,,,,,,,,10,,,,79,108
97740,note_on,20,0,15,,,,,,,,13,,,,39,108
97740,note_on,20,0,14,,,,,,,,12,,,,51,108
97740,note_on,20,0,10,,,,,,,,7,,,,39,108
97740,note_on,20,0,7,,,,,,,,4,,,,79,108
97740,note_on,20,0,8,,,,,,,,5,,,,64,108
97740,note_on,20,0,9,,,,,,,,6,,,,51,108
97740,note_on,20,0,6,,,,,,,,3,,,,82,108
97740,note_on,20,0,13,,,,,,,,11,,,,64,108
97740,note_on,20,0,11,,,,,,,,8,,,,82,108
97780,note_off,40,0,13,,,,,,,,11,,,,64,64
97780,note_off,40,0,8,,,,,,,,5,,,,64,64
97780,note_off,40,0,9,,,,,,,,6,,,,51,64
97780,note_off,40,0,14,,,,,,,,12,,,,51,64
97780,note_off,40,0,15,,,,,,,,13,,,,39,64
97780,note_off,40,0,6,,,,,,,,3,,,,82,64
97780,note_off,40,0,7,,,,,,,,4,,,,79,64
97780,note_off,40,0,11,,,,,,,,8,,,,82,64
97780,note_off,40,0,12,,,,,,,,10,,,,79,64
97780,note_off,40,0,10,,,,,,,,7,,,,39,64
97800,note_on,20,0,9,,,,,,,,6,,,,51,108
97800,note_on,20,0,6,,,,,,,,3,,,,82,108
97800,note_on,20,0,10,,,,,,,,7,,,,39,108
97800,note_on,20,0,15,,,,,,,,13,,,,39,108
97800,note_on,20,0,14,,,,,,,,12,,,,51,108
97800,note_on,20,0,12,,,,,,,,10,,,,79,108
97800,note_on,20,0,7,,,,,,,,4,,,,79,108
97800,note_on,20,0,8,,,,,,,,5,,,,64,108
97800,note_on,20,0,13,,,,,,,,11,,,,64,108
97800,note_on,20,0,11,,,,,,,,8,,,,82,108
97840,note_off,40,0,10,,,,,,,,7,,,,39,64
97840,note_off,40,0,11,,,,,,,,8,,,,82,64
97840,note_off,40,0,13,,,,,,,,11,,,,64,64
97840,note_off,40,0,15,,,,,,,,13,,,,39,64
97840,note_off,40,0,6,,,,,,,,3,,,,82,64
97840,note_off,40,0,9,,,,,,,,6,,,,51,64
97840,note_off,40,0,12,,,,,,,,10,,,,79,64
97840,note_off,40,0,8,,,,,,,,5,,,,64,64
97840,note_off,40,0,14,,,,,,,,12,,,,51,64
97840,note_off,40,0,7,,,,,,,,4,,,,79,64
97860,note_on,20,0,8,,,,,,,,5,,,,64,108
97860,note_on,20,0,10,,,,,,,,7,,,,39,108
97860,note_on,20,0,7,,,,,,,,4,,,,79,108
97860,note_on,20,0,14,,,,,,,,12,,,,51,108
97860,note_on,20,0,12,,,,,,,,10,,,,79,108
97860,note_on,20,0,6,,,,,,,,3,,,,82,108
97860,note_on,20,0,15,,,,,,,,13,,,,39,108
97860,note_on,20,0,13,,,,,,,,11,,,,64,108
97860,note_on,20,0,11,,,,,,,,8,,,,82,108
97860,note_on,20,0,9,,,,,,,,6,,,,51,108
97900,note_off,40,0,11,,,,,,,,8,,,,82,64
97900,note_off,40,0,10,,,,,,,,7,,,,39,64
97900,note_off,40,0,9,,,,,,,,6,,,,51,64
97900,note_off,40,0,6,,,,,,,,3,,,,82,64
97900,note_off,40,0,12,,,,,,,,10,,,,79,64
97900,note_off,40,0,14,,,,,,,,12,,,,51,64
97900,note_off,40,0,13,,,,,,,,11,,,,64,64
97900,note_off,40,0,15,,,,,,,,13,,,,39,64
97900,note_off,40,0,7,,,,,,,,4,,,,79,64
97900,note_off,40,0,8,,,,,,,,5,,,,64,64
97920,note_on,20,0,9,,,,,,,,6,,,,48,60
97920,note_on,20,0,10,,,,,,,,7,,,,36,60
97920,note_on,740,0,5,,,,,,,,2,,,,88,75
97920,note_on,20,0,15,,,,,,,,13,,,,36,60
97920,note_on,20,0,13,,,,,,,,11,,,,64,60
97920,note_on,20,0,7,,,,,,,,4,,,,79,60
97920,note_on,740,0,4,,,,,,,,1,,,,88,92
97920,note_on,20,0,14,,,,,,,,12,,,,48,60
97920,note_on,20,0,6,,,,,,,,3,,,,82,60
97920,note_on,20,0,12,,,,,,,,10,,,,79,60
97920,note_on,20,0,11,,,,,,,,8,,,,82,60
97920,note_on,20,0,8,,,,,,,,5,,,,64,60
97960,note_off,40,0,4,,,,,,,,1,,,,88,64
97960,note_off,40,0,5,,,,,,,,2,,,,88,64
97980,note_on,20,0,4,,,,,,,,1,,,,89,92
97980,note_on,20,0,5,,,,,,,,2,,,,89,75
98020,note_off,40,0,5,,,,,,,,2,,,,89,64
98020,note_off,40,0,4,,,,,,,,1,,,,89,64
98040,note_on,20,0,5,,,,,,,,2,,,,91,75
98040,note_on,20,0,4,,,,,,,,1,,,,91,92
98080,note_off,40,0,4,,,,,,,,1,,,,91,64
98080,note_off,40,0,5,,,,,,,,2,,,,91,64
98100,note_on,20,0,4,,,,,,,,1,,,,89,92
98100,note_on,20,0,5,,,,,,,,2,,,,89,75
98140,note_off,40,0,4,,,,,,,,1,,,,89,64
98140,note_off,40,0,5,,,,,,,,2,,,,89,64
98160,note_on,20,0,5,,,,,,,,2,,,,88,75
98160,note_on,20,0,4,,,,,,,,1,,,,88,92
98200,note_off,40,0,4,,,,,,,,1,,,,88,64
98200,note_off,40,0,5,,,,,,,,2,,,,88,64
98220,note_on,20,0,4,,,,,,,,1,,,,89,92
98220,note_on,20,0,5,,,,,,,,2,,,,89,75
98260,note_off,40,0,5,,,,,,,,2,,,,89,64
98260,note_off,40,0,4,,,,,,,,1,,,,89,64
98280,note_on,20,0,5,,,,,,,,2,,,,91,75
98280,note_on,20,0,4,,,,,,,,1,,,,91,92
98320,note_off,400,0,12,,,,,,,,10,,,,79,64
98320,note_off,400,0,8,,,,,,,,5,,,,64,64
98320,note_off,40,0,4,,,,,,,,1,,,,91,64
98320,note_off,400,0,7,,,,,,,,4,,,,79,64
98320,note_off,40,0,5,,,,,,,,2,,,,91,64
98320,note_off,400,0,15,,,,,,,,13,,,,36,64
98320,note_off,400,0,6,,,,,,,,3,,,,82,64
98320,note_off,400,0,13,,,,,,,,11,,,,64,64
98320,note_off,400,0,10,,,,,,,,7,,,,36,64
98320,note_off,400,0,11,,,,,,,,8,,,,82,64
98320,note_off,400,0,14,,,,,,,,12,,,,48,64
98320,note_off,400,0,9,,,,,,,,6,,,,48,64
98340,note_on,20,0,4,,,,,,,,1,,,,89,92
98340,note_on,20,0,5,,,,,,,,2,,,,89,75
98380,note_off,40,0,5,,,,,,,,2,,,,89,64
98380,note_off,40,0,4,,,,,,,,1,,,,89,64
98400,note_on,20,0,4,,,,,,,,1,,,,88,92
98400,note_on,20,0,5,,,,,,,,2,,,,88,75
98440,note_off,40,0,4,,,,,,,,1,,,,88,64
98440,note_off,40,0,5,,,,,,,,2,,,,88,64
98460,note_on,20,0,4,,,,,,,,1,,,,85,92
98460,note_on,20,0,5,,,,,,,,2,,,,85,75
98500,note_off,40,0,5,,,,,,,,2,,,,85,64
98500,note_off,40,0,4,,,,,,,,1,,,,85,64
98520,note_on,20,0,5,,,,,,,,2,,,,84,75
98520,note_on,20,0,4,,,,,,,,1,,,,84,92
98560,note_off,40,0,5,,,,,,,,2,,,,84,64
98560,note_off,40,0,4,,,,,,,,1,,,,84,64
98580,note_on,20,0,4,,,,,,,,1,,,,82,92
98580,note_on,20,0,5,,,,,,,,2,,,,82,75
98620,note_off,40,0,4,,,,,,,,1,,,,82,64
98620,note_off,40,0,5,,,,,,,,2,,,,82,64
98640,note_on,320,0,15,,,,,,,,13,,,,41,92
98640,note_on,320,0,8,,,,,,,,5,,,,72,92
98640,note_on,320,0,7,,,,,,,,4,,,,77,108
98640,note_on,320,0,11,,,,,,,,8,,,,80,92
98640,note_on,320,0,14,,,,,,,,12,,,,53,92
98640,note_on,320,0,6,,,,,,,,3,,,,80,108
98640,note_on,320,0,13,,,,,,,,11,,,,72,92
98640,note_on,320,0,9,,,,,,,,6,,,,53,92
98640,note_on,320,0,10,,,,,,,,7,,,,41,92
98640,note_on,320,0,12,,,,,,,,10,,,,77,92
98680,note_off,40,0,7,,,,,,,,4,,,,77,64
98680,note_off,40,0,15,,,,,,,,13,,,,41,64
98680,note_off,40,0,14,,,,,,,,12,,,,53,64
98680,note_off,40,0,8,,,,,,,,5,,,,72,64
98680,note_off,40,0,10,,,,,,,,7,,,,41,64
98680,note_off,40,0,11,,,,,,,,8,,,,80,64
98680,note_off,40,0,9,,,,,,,,6,,,,53,64
98680,note_off,40,0,13,,,,,,,,11,,,,72,64
98680,note_off,40,0,12,,,,,,,,10,,,,77,64
98680,note_off,40,0,6,,,,,,,,3,,,,80,64
98700,note_on,20,0,15,,,,,,,,13,,,,41,92
98700,note_on,20,0,9,,,,,,,,6,,,,53,92
98700,note_on,20,0,12,,,,,,,,10,,,,77,92
98700,note_on,20,0,14,,,,,,,,12,,,,53,92
98700,note_on,20,0,13,,,,,,,,11,,,,72,92
98700,note_on,20,0,10,,,,,,,,7,,,,41,92
98700,note_on,20,0,8,,,,,,,,5,,,,72,92
98700,note_on,20,0,7,,,,,,,,4,,,,77,108
98700,note_on,20,0,6,,,,,,,,3,,,,80,108
98700,note_on,20,0,11,,,,,,,,8,,,,80,92
98740,note_off,40,0,11,,,,,,,,8,,,,80,64
98740,note_off,40,0,7,,,,,,,,4,,,,77,64
98740,note_off,40,0,15,,,,,,,,13,,,,41,64
98740,note_off,40,0,6,,,,,,,,3,,,,80,64
98740,note_off,40,0,13,,,,,,,,11,,,,72,64
98740,note_off,40,0,12,,,,,,,,10,,,,77,64
98740,note_off,40,0,8,,,,,,,,5,,,,72,64
98740,note_off,40,0,14,,,,,,,,12,,,,53,64
98740,note_off,40,0,10,,,,,,,,7,,,,41,64
98740,note_off,40,0,9,,,,,,,,6,,,,53,64
98760,note_on,20,0,15,,,,,,,,13,,,,41,92
98760,note_on,20,0,14,,,,,,,,12,,,,53,92
98760,note_on,20,0,11,,,,,,,,8,,,,80,92
98760,note_on,20,0,7,,,,,,,,4,,,,77,108
98760,note_on,20,0,12,,,,,,,,10,,,,77,92
98760,note_on,20,0,6,,,,,,,,3,,,,80,108
98760,note_on,20,0,13,,,,,,,,11,,,,72,92
98760,note_on,20,0,10,,,,,,,,7,,,,41,92
98760,note_on,20,0,8,,,,,,,,5,,,,72,92
98760,note_on,20,0,9,,,,,,,,6,,,,53,92
98800,note_off,40,0,7,,,,,,,,4,,,,77,64
98800,note_off,40,0,8,,,,,,,,5,,,,72,64
98800,note_off,40,0,9,,,,,,,,6,,,,53,64
98800,note_off,40,0,13,,,,,,,,11,,,,72,64
98800,note_off,40,0,12,,,,,,,,10,,,,77,64
98800,note_off,40,0,14,,,,,,,,12,,,,53,64
98800,note_off,40,0,11,,,,,,,,8,,,,80,64
98800,note_off,40,0,6,,,,,,,,3,,,,80,64
98800,note_off,40,0,10,,,,,,,,7,,,,41,64
98800,note_off,40,0,15,,,,,,,,13,,,,41,64
98820,note_on,20,0,14,,,,,,,,12,,,,53,92
98820,note_on,20,0,13,,,,,,,,11,,,,72,92
98820,note_on,20,0,7,,,,,,,,4,,,,77,108
98820,note_on,20,0,9,,,,,,,,6,,,,53,92
98820,note_on,20,0,11,,,,,,,,8,,,,80,92
98820,note_on,20,0,10,,,,,,,,7,,,,41,92
98820,note_on,20,0,6,,,,,,,,3,,,,80,108
98820,note_on,20,0,8,,,,,,,,5,,,,72,92
98820,note_on,20,0,12,,,,,,,,10,,,,77,92
98820,note_on,20,0,15,,,,,,,,13,,,,41,92
98860,note_off,40,0,13,,,,,,,,11,,,,72,64
98860,note_off,40,0,14,,,,,,,,12,,,,53,64
98860,note_off,40,0,12,,,,,,,,10,,,,77,64
98860,note_off,40,0,9,,,,,,,,6,,,,53,64
98860,note_off,40,0,7,,,,,,,,4,,,,77,64
98860,note_off,40,0,15,,,,,,,,13,,,,41,64
98860,note_off,40,0,11,,,,,,,,8,,,,80,64
98860,note_off,40,0,10,,,,,,,,7,,,,41,64
98860,note_off,40,0,6,,,,,,,,3,,,,80,64
98860,note_off,40,0,8,,,,,,,,5,,,,72,64
98880,note_on,20,0,12,,,,,,,,10,,,,77,92
98880,note_on,20,0,6,,,,,,,,3,,,,80,108
98880,note_on,20,0,13,,,,,,,,11,,,,72,92
98880,note_on,20,0,8,,,,,,,,5,,,,72,92
98880,note_on,20,0,7,,,,,,,,4,,,,77,108
98880,note_on,20,0,14,,,,,,,,12,,,,53,92
98880,note_on,20,0,11,,,,,,,,8,,,,80,92
98880,note_on,20,0,10,,,,,,,,7,,,,41,92
98880,note_on,20,0,15,,,,,,,,13,,,,41,92
98880,note_on,20,0,9,,,,,,,,6,,,,53,92
98920,note_off,40,0,13,,,,,,,,11,,,,72,64
98920,note_off,40,0,8,,,,,,,,5,,,,72,64
98920,note_off,40,0,6,,,,,,,,3,,,,80,64
98920,note_off,40,0,11,,,,,,,,8,,,,80,64
98920,note_off,40,0,7,,,,,,,,4,,,,77,64
98920,note_off,40,0,9,,,,,,,,6,,,,53,64
98920,note_off,40,0,14,,,,,,,,12,,,,53,64
98920,note_off,40,0,12,,,,,,,,10,,,,77,64
98920,note_off,40,0,10,,,,,,,,7,,,,41,64
98920,note_off,40,0,15,,,,,,,,13,,,,41,64
98940,note_on,20,0,14,,,,,,,,12,,,,53,92
98940,note_on,20,0,6,,,,,,,,3,,,,80,108
98940,note_on,20,0,13,,,,,,,,11,,,,72,92
98940,note_on,20,0,11,,,,,,,,8,,,,80,92
98940,note_on,20,0,12,,,,,,,,10,,,,77,92
98940,note_on,20,0,15,,,,,,,,13,,,,41,92
98940,note_on,20,0,8,,,,,,,,5,,,,72,92
98940,note_on,20,0,7,,,,,,,,4,,,,77,108
98940,note_on,20,0,9,,,,,,,,6,,,,53,92
98940,note_on,20,0,10,,,,,,,,7,,,,41,92
98980,note_off,40,0,8,,,,,,,,5,,,,72,64
98980,note_off,40,0,9,,,,,,,,6,,,,53,64
98980,note_off,40,0,13,,,,,,,,11,,,,72,64
98980,note_off,40,0,14,,,,,,,,12,,,,53,64
98980,note_off,40,0,15,,,,,,,,13,,,,41,64
98980,note_off,40,0,10,,,,,,,,7,,,,41,64
98980,note_off,40,0,7,,,,,,,,4,,,,77,64
98980,note_off,40,0,6,,,,,,,,3,,,,80,64
98980,note_off,40,0,12,,,,,,,,10,,,,77,64
98980,note_off,40,0,11,,,,,,,,8,,,,80,64
99000,note_on,20,0,15,,,,,,,,13,,,,41,92
99000,note_on,20,0,6,,,,,,,,3,,,,80,108
99000,note_on,20,0,8,,,,,,,,5,,,,72,92
99000,note_on,20,0,12,,,,,,,,10,,,,77,92
99000,note_on,20,0,9,,,,,,,,6,,,,53,92
99000,note_on,20,0,11,,,,,,,,8,,,,80,92
99000,note_on,20,0,10,,,,,,,,7,,,,41,92
99000,note_on,20,0,7,,,,,,,,4,,,,77,108
99000,note_on,20,0,14,,,,,,,,12,,,,53,92
99000,note_on,20,0,13,,,,,,,,11,,,,72,92
99040,note_off,40,0,13,,,,,,,,11,,,,72,64
99040,note_off,40,0,10,,,,,,,,7,,,,41,64
99040,note_off,40,0,11,,,,,,,,8,,,,80,64
99040,note_off,40,0,12,,,,,,,,10,,,,77,64
99040,note_off,40,0,14,,,,,,,,12,,,,53,64
99040,note_off,40,0,8,,,,,,,,5,,,,72,64
99040,note_off,40,0,7,,,,,,,,4,,,,77,64
99040,note_off,40,0,15,,,,,,,,13,,,,41,64
99040,note_off,40,0,6,,,,,,,,3,,,,80,64
99040,note_off,40,0,9,,,,,,,,6,,,,53,64
99060,note_on,20,0,14,,,,,,,,12,,,,53,92
99060,note_on,20,0,7,,,,,,,,4,,,,77,108
99060,note_on,20,0,8,,,,,,,,5,,,,72,92
99060,note_on,20,0,6,,,,,,,,3,,,,80,108
99060,note_on,20,0,12,,,,,,,,10,,,,77,92
99060,note_on,20,0,13,,,,,,,,11,,,,72,92
99060,note_on,20,0,11,,,,,,,,8,,,,80,92
99060,note_on,20,0,15,,,,,,,,13,,,,41,92
99060,note_on,20,0,9,,,,,,,,6,,,,53,92
99060,note_on,20,0,10,,,,,,,,7,,,,41,92
99100,note_off,40,0,10,,,,,,,,7,,,,41,64
99100,note_off,40,0,14,,,,,,,,12,,,,53,64
99100,note_off,40,0,8,,,,,,,,5,,,,72,64
99100,note_off,40,0,6,,,,,,,,3,,,,80,64
99100,note_off,40,0,13,,,,,,,,11,,,,72,64
99100,note_off,40,0,15,,,,,,,,13,,,,41,64
99100,note_off,40,0,11,,,,,,,,8,,,,80,64
99100,note_off,40,0,12,,,,,,,,10,,,,77,64
99100,note_off,40,0,7,,,,,,,,4,,,,77,64
99100,note_off,40,0,9,,,,,,,,6,,,,53,64
99120,note_on,20,0,8,,,,,,,,5,,,,72,92
99120,note_on,20,0,14,,,,,,,,12,,,,53,92
99120,note_on,20,0,13,,,,,,,,11,,,,72,92
99120,note_on,20,0,15,,,,,,,,13,,,,41,92
99120,note_on,20,0,10,,,,,,,,7,,,,41,92
99120,note_on,20,0,12,,,,,,,,10,,,,77,92
99120,note_on,20,0,6,,,,,,,,3,,,,80,108
99120,note_on,20,0,9,,,,,,,,6,,,,53,92
99120,note_on,20,0,7,,,,,,,,4,,,,77,108
99120,note_on,20,0,11,,,,,,,,8,,,,80,92
99160,note_off,40,0,11,,,,,,,,8,,,,80,64
99160,note_off,40,0,9,,,,,,,,6,,,,53,64
99160,note_off,40,0,14,,,,,,,,12,,,,53,64
99160,note_off,40,0,13,,,,,,,,11,,,,72,64
99160,note_off,40,0,7,,,,,,,,4,,,,77,64
99160,note_off,40,0,12,,,,,,,,10,,,,77,64
99160,note_off,40,0,10,,,,,,,,7,,,,41,64
99160,note_off,40,0,15,,,,,,,,13,,,,41,64
99160,note_off,40,0,6,,,,,,,,3,,,,80,64
99160,note_off,40,0,8,,,,,,,,5,,,,72,64
99180,note_on,20,0,9,,,,,,,,6,,,,53,92
99180,note_on,20,0,11,,,,,,,,8,,,,80,92
99180,note_on,20,0,6,,,,,,,,3,,,,80,108
99180,note_on,20,0,8,,,,,,,,5,,,,72,92
99180,note_on,20,0,14,,,,,,,,12,,,,53,92
99180,note_on,20,0,10,,,,,,,,7,,,,41,92
99180,note_on,20,0,7,,,,,,,,4,,,,77,108
99180,note_on,20,0,15,,,,,,,,13,,,,41,92
99180,note_on,20,0,12,,,,,,,,10,,,,77,92
99180,note_on,20,0,13,,,,,,,,11,,,,72,92
99220,note_off,40,0,6,,,,,,,,3,,,,80,64
99220,note_off,40,0,13,,,,,,,,11,,,,72,64
99220,note_off,40,0,15,,,,,,,,13,,,,41,64
99220,note_off,40,0,10,,,,,,,,7,,,,41,64
99220,note_off,40,0,14,,,,,,,,12,,,,53,64
99220,note_off,40,0,9,,,,,,,,6,,,,53,64
99220,note_off,40,0,12,,,,,,,,10,,,,77,64
99220,note_off,40,0,7,,,,,,,,4,,,,77,64
99220,note_off,40,0,11,,,,,,,,8,,,,80,64
99220,note_off,40,0,8,,,,,,,,5,,,,72,64
99240,note_on,20,0,6,,,,,,,,3,,,,80,108
99240,note_on,20,0,12,,,,,,,,10,,,,77,92
99240,note_on,20,0,14,,,,,,,,12,,,,53,92
99240,note_on,20,0,7,,,,,,,,4,,,,77,108
99240,note_on,20,0,10,,,,,,,,7,,,,41,92
99240,note_on,20,0,13,,,,,,,,11,,,,72,92
99240,note_on,20,0,15,,,,,,,,13,,,,41,92
99240,note_on,20,0,9,,,,,,,,6,,,,53,92
99240,note_on,20,0,11,,,,,,,,8,,,,80,92
99240,note_on,20,0,8,,,,,,,,5,,,,72,92
99280,note_off,40,0,8,,,,,,,,5,,,,72,64
99280,note_off,40,0,6,,,,,,,,3,,,,80,64
99280,note_off,40,0,15,,,,,,,,13,,,,41,64
99280,note_off,40,0,13,,,,,,,,11,,,,72,64
99280,note_off,40,0,9,,,,,,,,6,,,,53,64
99280,note_off,40,0,10,,,,,,,,7,,,,41,64
99280,note_off,40,0,7,,,,,,,,4,,,,77,64
99280,note_off,40,0,11,,,,,,,,8,,,,80,64
99280,note_off,40,0,12,,,,,,,,10,,,,77,64
99280,note_off,40,0,14,,,,,,,,12,,,,53,64
99300,note_on,20,0,15,,,,,,,,13,,,,41,92
99300,note_on,20,0,9,,,,,,,,6,,,,53,92
99300,note_on,20,0,8,,,,,,,,5,,,,72,92
99300,note_on,20,0,7,,,,,,,,4,,,,77,108
99300,note_on,20,0,14,,,,,,,,12,,,,53,92
99300,note_on,20,0,6,,,,,,,,3,,,,80,108
99300,note_on,20,0,13,,,,,,,,11,,,,72,92
99300,note_on,20,0,11,,,,,,,,8,,,,80,92
99300,note_on,20,0,12,,,,,,,,10,,,,77,92
99300,note_on,20,0,10,,,,,,,,7,,,,41,92
99340,note_off,40,0,9,,,,,,,,6,,,,53,64
99340,note_off,40,0,13,,,,,,,,11,,,,72,64
99340,note_off,40,0,10,,,,,,,,7,,,,41,64
99340,note_off,40,0,8,,,,,,,,5,,,,72,64
99340,note_off,40,0,15,,,,,,,,13,,,,41,64
99340,note_off,40,0,6,,,,,,,,3,,,,80,64
99340,note_off,40,0,14,,,,,,,,12,,,,53,64
99340,note_off,40,0,12,,,,,,,,10,,,,77,64
99340,note_off,40,0,7,,,,,,,,4,,,,77,64
99340,note_off,40,0,11,,,,,,,,8,,,,80,64
99360,note_on,740,0,4,,,,,,,,1,,,,80,92
99360,note_on,20,0,11,,,,,,,,8,,,,80,92
99360,note_on,740,0,5,,,,,,,,2,,,,80,75
99360,note_on,0,0,6,,,,,,,,3,,,,80,108
99360,program_change,20,0,6,,,,,,,,3,,,49,,
99400,note_off,40,0,6,,,,,,,,3,,,,80,64
99400,note_off,40,0,5,,,,,,,,2,,,,80,64
99400,note_off,40,0,4,,,,,,,,1,,,,80,64
99400,note_off,40,0,11,,,,,,,,8,,,,80,64
99420,note_on,20,0,4,,,,,,,,1,,,,82,92
99420,note_on,20,0,5,,,,,,,,2,,,,82,75
99420,note_on,20,0,11,,,,,,,,8,,,,82,92
99420,note_on,20,0,6,,,,,,,,3,,,,82,108
99460,note_off,40,0,4,,,,,,,,1,,,,82,64
99460,note_off,40,0,6,,,,,,,,3,,,,82,64
99460,note_off,40,0,11,,,,,,,,8,,,,82,64
99460,note_off,40,0,5,,,,,,,,2,,,,82,64
99480,note_on,20,0,4,,,,,,,,1,,,,80,92
99480,note_on,20,0,6,,,,,,,,3,,,,80,108
99480,note_on,20,0,5,,,,,,,,2,,,,80,75
99480,note_on,20,0,11,,,,,,,,8,,,,80,92
99520,note_off,40,0,6,,,,,,,,3,,,,80,64
99520,note_off,40,0,4,,,,,,,,1,,,,80,64
99520,note_off,40,0,5,,,,,,,,2,,,,80,64
99520,note_off,40,0,11,,,,,,,,8,,,,80,64
99540,note_on,20,0,5,,,,,,,,2,,,,79,75
99540,note_on,20,0,4,,,,,,,,1,,,,79,92
99540,note_on,20,0,6,,,,,,,,3,,,,79,108
99540,note_on,20,0,11,,,,,,,,8,,,,79,92
99580,note_off,40,0,4,,,,,,,,1,,,,79,64
99580,note_off,40,0,6,,,,,,,,3,,,,79,64
99580,note_off,40,0,5,,,,,,,,2,,,,79,64
99580,note_off,40,0,11,,,,,,,,8,,,,79,64
99600,note_on,20,0,6,,,,,,,,3,,,,77,108
99600,note_on,20,0,5,,,,,,,,2,,,,77,75
99600,note_on,20,0,11,,,,,,,,8,,,,77,92
99600,note_on,20,0,4,,,,,,,,1,,,,77,92
99640,note_off,40,0,6,,,,,,,,3,,,,77,64
99640,note_off,40,0,11,,,,,,,,8,,,,77,64
99640,note_off,40,0,5,,,,,,,,2,,,,77,64
99640,note_off,40,0,4,,,,,,,,1,,,,77,64
99660,note_on,20,0,4,,,,,,,,1,,,,79,92
99660,note_on,20,0,11,,,,,,,,8,,,,79,92
99660,note_on,20,0,5,,,,,,,,2,,,,79,75
99660,note_on,20,0,6,,,,,,,,3,,,,79,108
99700,note_off,40,0,6,,,,,,,,3,,,,79,64
99700,note_off,40,0,11,,,,,,,,8,,,,79,64
99700,note_off,40,0,5,,,,,,,,2,,,,79,64
99700,note_off,40,0,4,,,,,,,,1,,,,79,64
99720,note_on,20,0,11,,,,,,,,8,,,,77,92
99720,note_on,20,0,6,,,,,,,,3,,,,77,108
99720,note_on,20,0,4,,,,,,,,1,,,,77,92
99720,note_on,20,0,5,,,,,,,,2,,,,77,75
99760,note_off,40,0,6,,,,,,,,3,,,,77,64
99760,note_off,40,0,5,,,,,,,,2,,,,77,64
99760,note_off,40,0,11,,,,,,,,8,,,,77,64
99760,note_off,40,0,4,,,,,,,,1,,,,77,64
99780,note_on,20,0,4,,,,,,,,1,,,,75,92
99780,note_on,20,0,5,,,,,,,,2,,,,75,75
99780,note_on,20,0,11,,,,,,,,8,,,,75,92
99780,note_on,20,0,6,,,,,,,,3,,,,75,108
99820,note_off,40,0,5,,,,,,,,2,,,,75,64
99820,note_off,40,0,11,,,,,,,,8,,,,75,64
99820,note_off,40,0,6,,,,,,,,3,,,,75,64
99820,note_off,40,0,4,,,,,,,,1,,,,75,64
99840,note_on,20,0,11,,,,,,,,8,,,,73,92
99840,note_on,20,0,6,,,,,,,,3,,,,73,108
99840,note_on,20,0,4,,,,,,,,1,,,,73,92
99840,note_on,20,0,5,,,,,,,,2,,,,73,75
99880,note_off,40,0,6,,,,,,,,3,,,,73,64
99880,note_off,40,0,4,,,,,,,,1,,,,73,64
99880,note_off,40,0,11,,,,,,,,8,,,,73,64
99880,note_off,40,0,5,,,,,,,,2,,,,73,64
99900,note_on,20,0,5,,,,,,,,2,,,,75,75
99900,note_on,20,0,11,,,,,,,,8,,,,75,92
99900,note_on,20,0,6,,,,,,,,3,,,,75,108
99900,note_on,20,0,4,,,,,,,,1,,,,75,92
99940,note_off,40,0,5,,,,,,,,2,,,,75,64
99940,note_off,40,0,11,,,,,,,,8,,,,75,64
99940,note_off,40,0,6,,,,,,,,3,,,,75,64
99940,note_off,40,0,4,,,,,,,,1,,,,75,64
99960,note_on,20,0,11,,,,,,,,8,,,,73,92
99960,note_on,20,0,6,,,,,,,,3,,,,73,108
99960,note_on,20,0,5,,,,,,,,2,,,,73,75
99960,note_on,20,0,4,,,,,,,,1,,,,73,92
100000,note_off,40,0,5,,,,,,,,2,,,,73,64
100000,note_off,40,0,4,,,,,,,,1,,,,73,64
100000,note_off,40,0,6,,,,,,,,3,,,,73,64
100000,note_off,40,0,11,,,,,,,,8,,,,73,64
100020,note_on,20,0,11,,,,,,,,8,,,,72,92
100020,note_on,20,0,6,,,,,,,,3,,,,72,108
100020,note_on,20,0,5,,,,,,,,2,,,,72,75
100020,note_on,20,0,4,,,,,,,,1,,,,72,92
100060,note_off,40,0,5,,,,,,,,2,,,,72,64
100060,note_off,40,0,11,,,,,,,,8,,,,72,64
100060,note_off,40,0,6,,,,,,,,3,,,,72,64
100060,note_off,40,0,4,,,,,,,,1,,,,72,64
100080,note_on,20,0,11,,,,,,,,8,,,,70,92
100080,note_on,20,0,6,,,,,,,,3,,,,70,108
100080,note_on,20,0,5,,,,,,,,2,,,,70,75
100080,note_on,20,0,4,,,,,,,,1,,,,70,92
100120,note_off,40,0,11,,,,,,,,8,,,,70,64
100120,note_off,40,0,5,,,,,,,,2,,,,70,64
100120,note_off,40,0,6,,,,,,,,3,,,,70,64
100120,note_off,40,0,4,,,,,,,,1,,,,70,64
100140,note_on,20,0,4,,,,,,,,1,,,,72,92
100140,note_on,20,0,5,,,,,,,,2,,,,72,75
100140,note_on,20,0,6,,,,,,,,3,,,,72,108
100140,note_on,20,0,11,,,,,,,,8,,,,72,92
100180,note_off,40,0,5,,,,,,,,2,,,,72,64
100180,note_off,40,0,6,,,,,,,,3,,,,72,64
100180,note_off,40,0,11,,,,,,,,8,,,,72,64
100180,note_off,40,0,4,,,,,,,,1,,,,72,64
100200,note_on,20,0,5,,,,,,,,2,,,,70,75
100200,note_on,20,0,11,,,,,,,,8,,,,70,92
100200,note_on,20,0,4,,,,,,,,1,,,,70,92
100200,note_on,20,0,6,,,,,,,,3,,,,70,108
100240,note_off,40,0,6,,,,,,,,3,,,,70,64
100240,note_off,40,0,4,,,,,,,,1,,,,70,64
100240,note_off,40,0,11,,,,,,,,8,,,,70,64
100240,note_off,40,0,5,,,,,,,,2,,,,70,64
100260,note_on,20,0,6,,,,,,,,3,,,,68,108
100260,note_on,20,0,4,,,,,,,,1,,,,68,92
100260,note_on,20,0,11,,,,,,,,8,,,,68,92
100260,note_on,20,0,5,,,,,,,,2,,,,68,75
100300,note_off,40,0,4,,,,,,,,1,,,,68,64
100300,note_off,40,0,11,,,,,,,,8,,,,68,64
100300,note_off,40,0,5,,,,,,,,2,,,,68,64
100300,note_off,40,0,6,,,,,,,,3,,,,68,64
100320,note_on,20,0,4,,,,,,,,1,,,,67,92
100320,note_on,20,0,6,,,,,,,,3,,,,67,108
100320,note_on,20,0,5,,,,,,,,2,,,,67,75
100320,note_on,20,0,11,,,,,,,,8,,,,67,92
100360,note_off,40,0,5,,,,,,,,2,,,,67,64
100360,note_off,40,0,11,,,,,,,,8,,,,67,64
100360,note_off,40,0,4,,,,,,,,1,,,,67,64
100360,note_off,40,0,6,,,,,,,,3,,,,67,64
100380,note_on,20,0,5,,,,,,,,2,,,,68,75
100380,note_on,20,0,11,,,,,,,,8,,,,68,92
100380,note_on,20,0,6,,,,,,,,3,,,,68,108
100380,note_on,20,0,4,,,,,,,,1,,,,68,92
100420,note_off,40,0,6,,,,,,,,3,,,,68,64
100420,note_off,40,0,5,,,,,,,,2,,,,68,64
100420,note_off,40,0,4,,,,,,,,1,,,,68,64
100420,note_off,40,0,11,,,,,,,,8,,,,68,64
100440,note_on,20,0,5,,,,,,,,2,,,,67,75
100440,note_on,20,0,6,,,,,,,,3,,,,67,108
100440,note_on,20,0,4,,,,,,,,1,,,,67,92
100440,note_on,20,0,11,,,,,,,,8,,,,67,92
100480,note_off,40,0,5,,,,,,,,2,,,,67,64
100480,note_off,40,0,6,,,,,,,,3,,,,67,64
100480,note_off,40,0,4,,,,,,,,1,,,,67,64
100480,note_off,40,0,11,,,,,,,,8,,,,67,64
100500,note_on,20,0,6,,,,,,,,3,,,,65,108
100500,note_on,20,0,5,,,,,,,,2,,,,65,75
100500,note_on,20,0,4,,,,,,,,1,,,,65,92
100500,note_on,20,0,11,,,,,,,,8,,,,65,92
100540,note_off,40,0,11,,,,,,,,8,,,,65,64
100540,note_off,40,0,6,,,,,,,,3,,,,65,64
100540,note_off,40,0,4,,,,,,,,1,,,,65,64
100540,note_off,40,0,5,,,,,,,,2,,,,65,64
100560,note_on,20,0,4,,,,,,,,1,,,,64,92
100560,note_on,20,0,6,,,,,,,,3,,,,64,108
100560,note_on,20,0,11,,,,,,,,8,,,,64,92
100560,note_on,20,0,5,,,,,,,,2,,,,64,75
100600,note_off,40,0,5,,,,,,,,2,,,,64,64
100600,note_off,40,0,11,,,,,,,,8,,,,64,64
100600,note_off,40,0,6,,,,,,,,3,,,,64,64
100600,note_off,40,0,4,,,,,,,,1,,,,64,64
100620,note_on,20,0,5,,,,,,,,2,,,,65,75
100620,note_on,20,0,11,,,,,,,,8,,,,65,92
100620,note_on,20,0,6,,,,,,,,3,,,,65,108
100620,note_on,20,0,4,,,,,,,,1,,,,65,92
100660,note_off,40,0,5,,,,,,,,2,,,,65,64
100660,note_off,40,0,6,,,,,,,,3,,,,65,64
100660,note_off,40,0,4,,,,,,,,1,,,,65,64
100660,note_off,40,0,11,,,,,,,,8,,,,65,64
100680,note_on,20,0,11,,,,,,,,8,,,,64,92
100680,note_on,20,0,6,,,,,,,,3,,,,64,108
100680,note_on,20,0,5,,,,,,,,2,,,,64,75
100680,note_on,20,0,4,,,,,,,,1,,,,64,92
100720,note_off,40,0,4,,,,,,,,1,,,,64,64
100720,note_off,40,0,11,,,,,,,,8,,,,64,64
100720,note_off,40,0,5,,,,,,,,2,,,,64,64
100720,note_off,40,0,6,,,,,,,,3,,,,64,64
100740,note_on,20,0,4,,,,,,,,1,,,,62,92
100740,note_on,20,0,5,,,,,,,,2,,,,62,75
100740,note_on,20,0,6,,,,,,,,3,,,,62,108
100740,note_on,20,0,11,,,,,,,,8,,,,62,92
100780,note_off,40,0,11,,,,,,,,8,,,,62,64
100780,note_off,40,0,5,,,,,,,,2,,,,62,64
100780,end_of_track,0,1,5,,,,,,,,,,,,,
100780,note_off,40,0,6,,,,,,,,3,,,,62,64
100780,note_off,40,0,4,,,,,,,,1,,,,62,64
100780,end_of_track,0,1,4,,,,,,,,,,,,,
100800,program_change,20,0,6,,,,,,,,3,,,48,,
100800,note_on,14000,0,1,,,,,,,,0,,,,60,75
100800,note_on,1460,0,14,,,,,,,,12,,,,48,92
100800,note_on,14000,0,3,,,,,,,,14,,,,24,75
100800,note_on,0,0,7,,,,,,,,4,,,,60,108
100800,program_change,1460,0,7,,,,,,,,4,,,49,,
100800,note_on,14000,0,2,,,,,,,,0,,,,36,75
100800,note_on,0,0,2,,,,,,,,0,,,,48,75
100800,note_on,0,0,6,,,,,,,,3,,,,60,108
100800,note_on,0,0,3,,,,,,,,14,,,,36,75
100800,note_on,20,0,11,,,,,,,,8,,,,60,92
100800,note_on,1460,0,10,,,,,,,,7,,,,36,92
100800,note_on,1460,0,9,,,,,,,,6,,,,48,92
100800,note_on,1460,0,15,,,,,,,,13,,,,36,92
100840,note_off,40,0,6,,,,,,,,3,,,,60,64
100840,note_off,40,0,9,,,,,,,,6,,,,48,64
100840,note_off,40,0,11,,,,,,,,8,,,,60,64
100840,note_off,40,0,14,,,,,,,,12,,,,48,64
100840,note_off,40,0,7,,,,,,,,4,,,,60,64
100840,note_off,40,0,10,,,,,,,,7,,,,36,64
100840,note_off,40,0,15,,,,,,,,13,,,,36,64
100860,note_on,20,0,14,,,,,,,,12,,,,48,92
100860,note_on,20,0,7,,,,,,,,4,,,,60,108
100860,note_on,20,0,6,,,,,,,,3,,,,60,108
100860,note_on,20,0,9,,,,,,,,6,,,,48,92
100860,note_on,20,0,10,,,,,,,,7,,,,36,92
100860,note_on,20,0,15,,,,,,,,13,,,,36,92
100860,note_on,20,0,11,,,,,,,,8,,,,60,92
100900,note_off,40,0,14,,,,,,,,12,,,,48,64
100900,note_off,40,0,9,,,,,,,,6,,,,48,64
100900,note_off,40,0,11,,,,,,,,8,,,,60,64
100900,note_off,40,0,15,,,,,,,,13,,,,36,64
100900,note_off,40,0,10,,,,,,,,7,,,,36,64
100900,note_off,40,0,7,,,,,,,,4,,,,60,64
100900,note_off,40,0,6,,,,,,,,3,,,,60,64
100920,note_on,20,0,10,,,,,,,,7,,,,36,92
100920,note_on,20,0,14,,,,,,,,12,,,,48,92
100920,note_on,20,0,15,,,,,,,,13,,,,36,92
100920,note_on,20,0,6,,,,,,,,3,,,,60,108
100920,note_on,20,0,9,,,,,,,,6,,,,48,92
100920,note_on,20,0,11,,,,,,,,8,,,,60,92
100920,note_on,20,0,7,,,,,,,,4,,,,60,108
100960,note_off,40,0,6,,,,,,,,3,,,,60,64
100960,note_off,40,0,11,,,,,,,,8,,,,60,64
100960,note_off,40,0,15,,,,,,,,13,,,,36,64
100960,note_off,40,0,10,,,,,,,,7,,,,36,64
100960,note_off,40,0,14,,,,,,,,12,,,,48,64
100960,note_off,40,0,7,,,,,,,,4,,,,60,64
100960,note_off,40,0,9,,,,,,,,6,,,,48,64
100980,note_on,20,0,11,,,,,,,,8,,,,60,92
100980,note_on,20,0,14,,,,,,,,12,,,,48,92
100980,note_on,20,0,7,,,,,,,,4,,,,60,108
100980,note_on,20,0,6,,,,,,,,3,,,,60,108
100980,note_on,20,0,9,,,,,,,,6,,,,48,92
100980,note_on,20,0,10,,,,,,,,7,,,,36,92
100980,note_on,20,0,15,,,,,,,,13,,,,36,92
101020,note_off,40,0,6,,,,,,,,3,,,,60,64
101020,note_off,40,0,9,,,,,,,,6,,,,48,64
101020,note_off,40,0,14,,,,,,,,12,,,,48,64
101020,note_off,40,0,15,,,,,,,,13,,,,36,64
101020,note_off,40,0,11,,,,,,,,8,,,,60,64
101020,note_off,40,0,7,,,,,,,,4,,,,60,64
101020,note_off,40,0,10,,,,,,,,7,,,,36,64
101035,note_off,0,0,3,,,,,,,,14,,,,24,64
101035,note_off,235,0,3,,,,,,,,14,,,,36,64
101035,note_off,235,0,2,,,,,,,,0,,,,48,64
101035,note_off,0,0,2,,,,,,,,0,,,,36,64
101035,note_off,235,0,1,,,,,,,,0,,,,60,64
101040,note_on,20,0,14,,,,,,,,12,,,,48,92
101040,note_on,20,0,10,,,,,,,,7,,,,36,92
101040,note_on,20,0,7,,,,,,,,4,,,,60,108
101040,note_on,5,0,1,,,,,,,,0,,,,60,75
101040,note_on,20,0,11,,,,,,,,8,,,,60,92
101040,note_on,20,0,6,,,,,,,,3,,,,60,108
101040,note_on,5,0,2,,,,,,,,0,,,,36,75
101040,note_on,20,0,15,,,,,,,,13,,,,36,92
101040,note_on,5,0,3,,,,,,,,14,,,,24,75
101040,note_on,0,0,3,,,,,,,,14,,,,36,75
101040,note_on,20,0,9,,,,,,,,6,,,,48,92
101040,note_on,0,0,2,,,,,,,,0,,,,48,75
101080,note_off,40,0,10,,,,,,,,7,,,,36,64
101080,note_off,40,0,11,,,,,,,,8,,,,60,64
101080,note_off,40,0,6,,,,,,,,3,,,,60,64
101080,note_off,40,0,9,,,,,,,,6,,,,48,64
101080,note_off,40,0,7,,,,,,,,4,,,,60,64
101080,note_off,40,0,14,,,,,,,,12,,,,48,64
101080,note_off,40,0,15,,,,,,,,13,,,,36,64
101100,note_on,20,0,15,,,,,,,,13,,,,36,92
101100,note_on,20,0,9,,,,,,,,6,,,,48,92
101100,note_on,20,0,14,,,,,,,,12,,,,48,92
101100,note_on,20,0,6,,,,,,,,3,,,,60,108
101100,note_on,20,0,11,,,,,,,,8,,,,60,92
101100,note_on,20,0,7,,,,,,,,4,,,,60,108
101100,note_on,20,0,10,,,,,,,,7,,,,36,92
101140,note_off,40,0,14,,,,,,,,12,,,,48,64
101140,note_off,40,0,9,,,,,,,,6,,,,48,64
101140,note_off,40,0,15,,,,,,,,13,,,,36,64
101140,note_off,40,0,11,,,,,,,,8,,,,60,64
101140,note_off,40,0,7,,,,,,,,4,,,,60,64
101140,note_off,40,0,6,,,,,,,,3,,,,60,64
101140,note_off,40,0,10,,,,,,,,7,,,,36,64
101160,note_on,20,0,6,,,,,,,,3,,,,60,108
101160,note_on,20,0,11,,,,,,,,8,,,,60,92
101160,note_on,20,0,7,,,,,,,,4,,,,60,108
101160,note_on,20,0,15,,,,,,,,13,,,,36,92
101160,note_on,20,0,9,,,,,,,,6,,,,48,92
101160,note_on,20,0,14,,,,,,,,12,,,,48,92
101160,note_on,20,0,10,,,,,,,,7,,,,36,92
101200,note_off,40,0,6,,,,,,,,3,,,,60,64
101200,note_off,40,0,11,,,,,,,,8,,,,60,64
101200,note_off,40,0,15,,,,,,,,13,,,,36,64
101200,note_off,40,0,9,,,,,,,,6,,,,48,64
101200,note_off,40,0,7,,,,,,,,4,,,,60,64
101200,note_off,40,0,14,,,,,,,,12,,,,48,64
101200,note_off,40,0,10,,,,,,,,7,,,,36,64
101220,note_on,20,0,9,,,,,,,,6,,,,48,92
101220,note_on,20,0,11,,,,,,,,8,,,,60,92
101220,note_on,20,0,10,,,,,,,,7,,,,36,92
101220,note_on,20,0,7,,,,,,,,4,,,,60,108
101220,note_on,20,0,6,,,,,,,,3,,,,60,108
101220,note_on,20,0,14,,,,,,,,12,,,,48,92
101220,note_on,20,0,15,,,,,,,,13,,,,36,92
101260,note_off,40,0,6,,,,,,,,3,,,,60,64
101260,note_off,40,0,14,,,,,,,,12,,,,48,64
101260,note_off,40,0,7,,,,,,,,4,,,,60,64
101260,note_off,40,0,15,,,,,,,,13,,,,36,64
101260,note_off,40,0,10,,,,,,,,7,,,,36,64
101260,note_off,40,0,9,,,,,,,,6,,,,48,64
101260,note_off,40,0,11,,,,,,,,8,,,,60,64
101275,note_off,235,0,1,,,,,,,,0,,,,60,64
101275,note_off,0,0,3,,,,,,,,14,,,,24,64
101275,note_off,235,0,2,,,,,,,,0,,,,48,64
101275,note_off,0,0,2,,,,,,,,0,,,,36,64
101275,note_off,235,0,3,,,,,,,,14,,,,36,64
101280,note_on,20,0,11,,,,,,,,8,,,,60,92
101280,note_on,20,0,7,,,,,,,,4,,,,60,108
101280,note_on,20,0,9,,,,,,,,6,,,,48,92
101280,note_on,20,0,10,,,,,,,,7,,,,36,92
101280,note_on,0,0,3,,,,,,,,14,,,,36,75
101280,note_on,5,0,2,,,,,,,,0,,,,36,75
101280,note_on,5,0,3,,,,,,,,14,,,,24,75
101280,note_on,20,0,6,,,,,,,,3,,,,60,108
101280,note_on,5,0,1,,,,,,,,0,,,,60,75
101280,note_on,20,0,14,,,,,,,,12,,,,48,92
101280,note_on,0,0,2,,,,,,,,0,,,,48,75
101280,note_on,20,0,15,,,,,,,,13,,,,36,92
101320,note_off,40,0,14,,,,,,,,12,,,,48,64
101320,note_off,40,0,11,,,,,,,,8,,,,60,64
101320,note_off,40,0,15,,,,,,,,13,,,,36,64
101320,note_off,40,0,9,,,,,,,,6,,,,48,64
101320,note_off,40,0,7,,,,,,,,4,,,,60,64
101320,note_off,40,0,6,,,,,,,,3,,,,60,64
101320,note_off,40,0,10,,,,,,,,7,,,,36,64
101340,note_on,20,0,9,,,,,,,,6,,,,48,92
101340,note_on,20,0,14,,,,,,,,12,,,,48,92
101340,note_on,20,0,7,,,,,,,,4,,,,60,108
101340,note_on,20,0,15,,,,,,,,13,,,,36,92
101340,note_on,20,0,6,,,,,,,,3,,,,60,108
101340,note_on,20,0,11,,,,,,,,8,,,,60,92
101340,note_on,20,0,10,,,,,,,,7,,,,36,92
101380,note_off,40,0,14,,,,,,,,12,,,,48,64
101380,note_off,40,0,11,,,,,,,,8,,,,60,64
101380,note_off,40,0,15,,,,,,,,13,,,,36,64
101380,note_off,40,0,6,,,,,,,,3,,,,60,64
101380,note_off,40,0,9,,,,,,,,6,,,,48,64
101380,note_off,40,0,10,,,,,,,,7,,,,36,64
101380,note_off,40,0,7,,,,,,,,4,,,,60,64
101400,note_on,20,0,9,,,,,,,,6,,,,48,92
101400,note_on,20,0,14,,,,,,,,12,,,,48,92
101400,note_on,20,0,10,,,,,,,,7,,,,36,92
101400,note_on,20,0,11,,,,,,,,8,,,,60,92
101400,note_on,20,0,7,,,,,,,,4,,,,60,108
101400,note_on,20,0,6,,,,,,,,3,,,,60,108
101400,note_on,20,0,15,,,,,,,,13,,,,36,92
101440,note_off,40,0,15,,,,,,,,13,,,,36,64
101440,note_off,40,0,10,,,,,,,,7,,,,36,64
101440,note_off,40,0,7,,,,,,,,4,,,,60,64
101440,note_off,40,0,11,,,,,,,,8,,,,60,64
101440,note_off,40,0,6,,,,,,,,3,,,,60,64
101440,note_off,40,0,9,,,,,,,,6,,,,48,64
101440,note_off,40,0,14,,,,,,,,12,,,,48,64
101460,note_on,20,0,6,,,,,,,,3,,,,60,108
101460,note_on,20,0,10,,,,,,,,7,,,,36,92
101460,note_on,20,0,9,,,,,,,,6,,,,48,92
101460,note_on,20,0,14,,,,,,,,12,,,,48,92
101460,note_on,20,0,15,,,,,,,,13,,,,36,92
101460,note_on,20,0,7,,,,,,,,4,,,,60,108
101460,note_on,20,0,11,,,,,,,,8,,,,60,92
101500,note_off,40,0,15,,,,,,,,13,,,,36,64
101500,note_off,40,0,14,,,,,,,,12,,,,48,64
101500,note_off,40,0,10,,,,,,,,7,,,,36,64
101500,note_off,40,0,11,,,,,,,,8,,,,60,64
101500,note_off,40,0,7,,,,,,,,4,,,,60,64
101500,note_off,40,0,6,,,,,,,,3,,,,60,64
101500,note_off,40,0,9,,,,,,,,6,,,,48,64
101515,note_off,235,0,1,,,,,,,,0,,,,60,64
101515,note_off,235,0,3,,,,,,,,14,,,,36,64
101515,note_off,0,0,3,,,,,,,,14,,,,24,64
101515,note_off,0,0,2,,,,,,,,0,,,,36,64
101515,note_off,235,0,2,,,,,,,,0,,,,48,64
101520,note_on,0,0,2,,,,,,,,0,,,,46,75
101520,note_on,5,0,2,,,,,,,,0,,,,34,75
101520,note_on,20,0,10,,,,,,,,7,,,,34,92
101520,note_on,20,0,7,,,,,,,,4,,,,58,108
101520,note_on,20,0,15,,,,,,,,13,,,,34,92
101520,note_on,20,0,9,,,,,,,,6,,,,46,92
101520,note_on,20,0,6,,,,,,,,3,,,,58,108
101520,note_on,5,0,1,,,,,,,,0,,,,58,75
101520,note_on,5,0,3,,,,,,,,14,,,,22,75
101520,note_on,0,0,3,,,,,,,,14,,,,34,75
101520,note_on,20,0,14,,,,,,,,12,,,,46,92
101520,note_on,20,0,11,,,,,,,,8,,,,58,92
101560,note_off,40,0,11,,,,,,,,8,,,,58,64
101560,note_off,40,0,6,,,,,,,,3,,,,58,64
101560,note_off,40,0,10,,,,,,,,7,,,,34,64
101560,note_off,40,0,7,,,,,,,,4,,,,58,64
101560,note_off,40,0,15,,,,,,,,13,,,,34,64
101560,note_off,40,0,9,,,,,,,,6,,,,46,64
101560,note_off,40,0,14,,,,,,,,12,,,,46,64
101580,note_on,20,0,11,,,,,,,,8,,,,58,92
101580,note_on,20,0,10,,,,,,,,7,,,,34,92
101580,note_on,20,0,9,,,,,,,,6,,,,46,92
101580,note_on,20,0,14,,,,,,,,12,,,,46,92
101580,note_on,20,0,6,,,,,,,,3,,,,58,108
101580,note_on,20,0,15,,,,,,,,13,,,,34,92
101580,note_on,20,0,7,,,,,,,,4,,,,58,108
101620,note_off,40,0,7,,,,,,,,4,,,,58,64
101620,note_off,40,0,9,,,,,,,,6,,,,46,64
101620,note_off,40,0,14,,,,,,,,12,,,,46,64
101620,note_off,40,0,15,,,,,,,,13,,,,34,64
101620,note_off,40,0,10,,,,,,,,7,,,,34,64
101620,note_off,40,0,11,,,,,,,,8,,,,58,64
101620,note_off,40,0,6,,,,,,,,3,,,,58,64
101640,note_on,20,0,15,,,,,,,,13,,,,34,92
101640,note_on,20,0,10,,,,,,,,7,,,,34,92
101640,note_on,20,0,7,,,,,,,,4,,,,58,108
101640,note_on,20,0,14,,,,,,,,12,,,,46,92
101640,note_on,20,0,9,,,,,,,,6,,,,46,92
101640,note_on,20,0,11,,,,,,,,8,,,,58,92
101640,note_on,20,0,6,,,,,,,,3,,,,58,108
101680,note_off,40,0,10,,,,,,,,7,,,,34,64
101680,note_off,40,0,7,,,,,,,,4,,,,58,64
101680,note_off,40,0,9,,,,,,,,6,,,,46,64
101680,note_off,40,0,6,,,,,,,,3,,,,58,64
101680,note_off,40,0,11,,,,,,,,8,,,,58,64
101680,note_off,40,0,14,,,,,,,,12,,,,46,64
101680,note_off,40,0,15,,,,,,,,13,,,,34,64
101700,note_on,20,0,11,,,,,,,,8,,,,58,92
101700,note_on,20,0,7,,,,,,,,4,,,,58,108
101700,note_on,20,0,10,,,,,,,,7,,,,34,92
101700,note_on,20,0,14,,,,,,,,12,,,,46,92
101700,note_on,20,0,6,,,,,,,,3,,,,58,108
101700,note_on,20,0,9,,,,,,,,6,,,,46,92
101700,note_on,20,0,15,,,,,,,,13,,,,34,92
101740,note_off,40,0,11,,,,,,,,8,,,,58,64
101740,note_off,40,0,15,,,,,,,,13,,,,34,64
101740,note_off,40,0,14,,,,,,,,12,,,,46,64
101740,note_off,40,0,7,,,,,,,,4,,,,58,64
101740,note_off,40,0,9,,,,,,,,6,,,,46,64
101740,note_off,40,0,6,,,,,,,,3,,,,58,64
101740,note_off,40,0,10,,,,,,,,7,,,,34,64
101755,note_off,235,0,2,,,,,,,,0,,,,46,64
101755,note_off,0,0,2,,,,,,,,0,,,,34,64
101755,note_off,235,0,3,,,,,,,,14,,,,34,64
101755,note_off,235,0,1,,,,,,,,0,,,,58,64
101755,note_off,0,0,3,,,,,,,,14,,,,22,64
101760,note_on,20,0,11,,,,,,,,8,,,,58,92
101760,note_on,5,0,1,,,,,,,,0,,,,58,75
101760,note_on,0,0,2,,,,,,,,0,,,,46,75
101760,note_on,5,0,2,,,,,,,,0,,,,34,75
101760,note_on,0,0,3,,,,,,,,14,,,,34,75
101760,note_on,20,0,15,,,,,,,,13,,,,34,92
101760,note_on,20,0,14,,,,,,,,12,,,,46,92
101760,note_on,20,0,10,,,,,,,,7,,,,34,92
101760,note_on,20,0,9,,,,,,,,6,,,,46,92
101760,note_on,20,0,7,,,,,,,,4,,,,58,108
101760,note_on,5,0,3,,,,,,,,14,,,,22,75
101760,note_on,20,0,6,,,,,,,,3,,,,58,108
101800,note_off,40,0,9,,,,,,,,6,,,,46,64
101800,note_off,40,0,7,,,,,,,,4,,,,58,64
101800,note_off,40,0,11,,,,,,,,8,,,,58,64
101800,note_off,40,0,14,,,,,,,,12,,,,46,64
101800,note_off,40,0,10,,,,,,,,7,,,,34,64
101800,note_off,40,0,6,,,,,,,,3,,,,58,64
101800,note_off,40,0,15,,,,,,,,13,,,,34,64
101820,note_on,20,0,9,,,,,,,,6,,,,46,92
101820,note_on,20,0,7,,,,,,,,4,,,,58,108
101820,note_on,20,0,14,,,,,,,,12,,,,46,92
101820,note_on,20,0,6,,,,,,,,3,,,,58,108
101820,note_on,20,0,11,,,,,,,,8,,,,58,92
101820,note_on,20,0,10,,,,,,,,7,,,,34,92
101820,note_on,20,0,15,,,,,,,,13,,,,34,92
101860,note_off,40,0,6,,,,,,,,3,,,,58,64
101860,note_off,40,0,10,,,,,,,,7,,,,34,64
101860,note_off,40,0,11,,,,,,,,8,,,,58,64
101860,note_off,40,0,7,,,,,,,,4,,,,58,64
101860,note_off,40,0,15,,,,,,,,13,,,,34,64
101860,note_off,40,0,14,,,,,,,,12,,,,46,64
101860,note_off,40,0,9,,,,,,,,6,,,,46,64
101880,note_on,20,0,10,,,,,,,,7,,,,34,92
101880,note_on,20,0,11,,,,,,,,8,,,,58,92
101880,note_on,20,0,7,,,,,,,,4,,,,58,108
101880,note_on,20,0,6,,,,,,,,3,,,,58,108
101880,note_on,20,0,9,,,,,,,,6,,,,46,92
101880,note_on,20,0,15,,,,,,,,13,,,,34,92
101880,note_on,20,0,14,,,,,,,,12,,,,46,92
101920,note_off,40,0,9,,,,,,,,6,,,,46,64
101920,note_off,40,0,7,,,,,,,,4,,,,58,64
101920,note_off,40,0,6,,,,,,,,3,,,,58,64
101920,note_off,40,0,11,,,,,,,,8,,,,58,64
101920,note_off,40,0,14,,,,,,,,12,,,,46,64
101920,note_off,40,0,10,,,,,,,,7,,,,34,64
101920,note_off,40,0,15,,,,,,,,13,,,,34,64
101940,note_on,20,0,9,,,,,,,,6,,,,46,92
101940,note_on,20,0,10,,,,,,,,7,,,,34,92
101940,note_on,20,0,14,,,,,,,,12,,,,46,92
101940,note_on,20,0,6,,,,,,,,3,,,,58,108
101940,note_on,20,0,15,,,,,,,,13,,,,34,92
101940,note_on,20,0,11,,,,,,,,8,,,,58,92
101940,note_on,20,0,7,,,,,,,,4,,,,58,108
101980,note_off,40,0,14,,,,,,,,12,,,,46,64
101980,note_off,40,0,7,,,,,,,,4,,,,58,64
101980,note_off,40,0,11,,,,,,,,8,,,,58,64
101980,note_off,40,0,15,,,,,,,,13,,,,34,64
101980,note_off,40,0,9,,,,,,,,6,,,,46,64
101980,note_off,40,0,10,,,,,,,,7,,,,34,64
101980,note_off,40,0,6,,,,,,,,3,,,,58,64
101995,note_off,235,0,2,,,,,,,,0,,,,46,64
101995,note_off,0,0,2,,,,,,,,0,,,,34,64
101995,note_off,235,0,3,,,,,,,,14,,,,34,64
101995,note_off,0,0,3,,,,,,,,14,,,,22,64
101995,note_off,235,0,1,,,,,,,,0,,,,58,64
102000,note_on,0,0,3,,,,,,,,14,,,,34,75
102000,note_on,5,0,3,,,,,,,,14,,,,22,75
102000,note_on,5,0,2,,,,,,,,0,,,,34,75
102000,note_on,20,0,9,,,,,,,,6,,,,46,92
102000,note_on,20,0,15,,,,,,,,13,,,,34,92
102000,note_on,20,0,7,,,,,,,,4,,,,58,108
102000,note_on,20,0,14,,,,,,,,12,,,,46,92
102000,note_on,20,0,10,,,,,,,,7,,,,34,92
102000,note_on,5,0,1,,,,,,,,0,,,,58,75
102000,note_on,20,0,6,,,,,,,,3,,,,58,108
102000,note_on,20,0,11,,,,,,,,8,,,,58,92
102000,note_on,0,0,2,,,,,,,,0,,,,46,75
102040,note_off,40,0,14,,,,,,,,12,,,,46,64
102040,note_off,40,0,15,,,,,,,,13,,,,34,64
102040,note_off,40,0,11,,,,,,,,8,,,,58,64
102040,note_off,40,0,9,,,,,,,,6,,,,46,64
102040,note_off,40,0,6,,,,,,,,3,,,,58,64
102040,note_off,40,0,7,,,,,,,,4,,,,58,64
102040,note_off,40,0,10,,,,,,,,7,,,,34,64
102060,note_on,20,0,14,,,,,,,,12,,,,46,92
102060,note_on,20,0,10,,,,,,,,7,,,,34,92
102060,note_on,20,0,15,,,,,,,,13,,,,34,92
102060,note_on,20,0,7,,,,,,,,4,,,,58,108
102060,note_on,20,0,6,,,,,,,,3,,,,58,108
102060,note_on,20,0,11,,,,,,,,8,,,,58,92
102060,note_on,20,0,9,,,,,,,,6,,,,46,92
102100,note_off,40,0,15,,,,,,,,13,,,,34,64
102100,note_off,40,0,10,,,,,,,,7,,,,34,64
102100,note_off,40,0,9,,,,,,,,6,,,,46,64
102100,note_off,40,0,6,,,,,,,,3,,,,58,64
102100,note_off,40,0,7,,,,,,,,4,,,,58,64
102100,note_off,40,0,14,,,,,,,,12,,,,46,64
102100,note_off,40,0,11,,,,,,,,8,,,,58,64
102120,note_on,20,0,7,,,,,,,,4,,,,58,108
102120,note_on,20,0,14,,,,,,,,12,,,,46,92
102120,note_on,20,0,11,,,,,,,,8,,,,58,92
102120,note_on,20,0,9,,,,,,,,6,,,,46,92
102120,note_on,20,0,15,,,,,,,,13,,,,34,92
102120,note_on,20,0,10,,,,,,,,7,,,,34,92
102120,note_on,20,0,6,,,,,,,,3,,,,58,108
102160,note_off,40,0,15,,,,,,,,13,,,,34,64
102160,note_off,40,0,9,,,,,,,,6,,,,46,64
102160,note_off,40,0,10,,,,,,,,7,,,,34,64
102160,note_off,40,0,14,,,,,,,,12,,,,46,64
102160,note_off,40,0,11,,,,,,,,8,,,,58,64
102160,note_off,40,0,6,,,,,,,,3,,,,58,64
102160,note_off,40,0,7,,,,,,,,4,,,,58,64
102180,note_on,20,0,11,,,,,,,,8,,,,58,92
102180,note_on,20,0,14,,,,,,,,12,,,,46,92
102180,note_on,20,0,9,,,,,,,,6,,,,46,92
102180,note_on,20,0,6,,,,,,,,3,,,,58,108
102180,note_on,20,0,7,,,,,,,,4,,,,58,108
102180,note_on,20,0,15,,,,,,,,13,,,,34,92
102180,note_on,20,0,10,,,,,,,,7,,,,34,92
102220,note_off,40,0,14,,,,,,,,12,,,,46,64
102220,note_off,40,0,10,,,,,,,,7,,,,34,64
102220,note_off,40,0,7,,,,,,,,4,,,,58,64
102220,note_off,40,0,11,,,,,,,,8,,,,58,64
102220,note_off,40,0,6,,,,,,,,3,,,,58,64
102220,note_off,40,0,15,,,,,,,,13,,,,34,64
102220,note_off,40,0,9,,,,,,,,6,,,,46,64
102235,note_off,0,0,2,,,,,,,,0,,,,34,64
102235,note_off,235,0,2,,,,,,,,0,,,,46,64
102235,note_off,0,0,3,,,,,,,,14,,,,22,64
102235,note_off,235,0,1,,,,,,,,0,,,,58,64
102235,note_off,235,0,3,,,,,,,,14,,,,34,64
102240,note_on,5,0,1,,,,,,,,0,,,,56,75
102240,note_on,20,0,14,,,,,,,,12,,,,41,92
102240,note_on,20,0,9,,,,,,,,6,,,,41,92
102240,note_on,0,0,1,,,,,,,,0,,,,65,75
102240,note_on,20,0,6,,,,,,,,3,,,,56,108
102240,note_on,0,0,1,,,,,,,,0,,,,61,75
102240,note_on,20,0,15,,,,,,,,13,,,,29,92
102240,note_on,5,0,3,,,,,,,,14,,,,29,75
102240,note_on,2900,0,13,,,,,,,,11,,,,60,92
102240,note_on,20,0,7,,,,,,,,4,,,,56,108
102240,note_on,5,0,2,,,,,,,,0,,,,29,75
102240,note_on,0,0,2,,,,,,,,0,,,,41,75
102240,note_on,0,0,3,,,,,,,,14,,,,41,75
102240,note_on,20,0,11,,,,,,,,8,,,,56,92
102240,note_on,2900,0,8,,,,,,,,5,,,,60,92
102240,note_on,20,0,10,,,,,,,,7,,,,29,92
102280,note_off,40,0,6,,,,,,,,3,,,,56,64
102280,note_off,40,0,7,,,,,,,,4,,,,56,64
102280,note_off,40,0,15,,,,,,,,13,,,,29,64
102280,note_off,40,0,10,,,,,,,,7,,,,29,64
102280,note_off,40,0,9,,,,,,,,6,,,,41,64
102280,note_off,40,0,8,,,,,,,,5,,,,60,64
102280,note_off,40,0,13,,,,,,,,11,,,,60,64
102280,note_off,40,0,14,,,,,,,,12,,,,41,64
102280,note_off,40,0,11,,,,,,,,8,,,,56,64
102300,note_on,20,0,9,,,,,,,,6,,,,41,92
102300,note_on,20,0,10,,,,,,,,7,,,,29,92
102300,note_on,20,0,6,,,,,,,,3,,,,65,108
102300,note_on,20,0,7,,,,,,,,4,,,,65,108
102300,note_on,20,0,11,,,,,,,,8,,,,65,92
102300,note_on,20,0,8,,,,,,,,5,,,,60,92
102300,note_on,20,0,13,,,,,,,,11,,,,60,92
102300,note_on,20,0,15,,,,,,,,13,,,,29,92
102300,note_on,20,0,14,,,,,,,,12,,,,41,92
102340,note_off,40,0,6,,,,,,,,3,,,,65,64
102340,note_off,40,0,14,,,,,,,,12,,,,41,64
102340,note_off,40,0,7,,,,,,,,4,,,,65,64
102340,note_off,40,0,11,,,,,,,,8,,,,65,64
102340,note_off,40,0,15,,,,,,,,13,,,,29,64
102340,note_off,40,0,13,,,,,,,,11,,,,60,64
102340,note_off,40,0,9,,,,,,,,6,,,,41,64
102340,note_off,40,0,10,,,,,,,,7,,,,29,64
102340,note_off,40,0,8,,,,,,,,5,,,,60,64
102360,note_on,20,0,11,,,,,,,,8,,,,65,92
102360,note_on,20,0,15,,,,,,,,13,,,,29,92
102360,note_on,20,0,7,,,,,,,,4,,,,65,108
102360,note_on,20,0,10,,,,,,,,7,,,,29,92
102360,note_on,20,0,9,,,,,,,,6,,,,41,92
102360,note_on,20,0,14,,,,,,,,12,,,,41,92
102360,note_on,20,0,6,,,,,,,,3,,,,65,108
102360,note_on,20,0,13,,,,,,,,11,,,,60,92
102360,note_on,20,0,8,,,,,,,,5,,,,60,92
102400,note_off,40,0,11,,,,,,,,8,,,,65,64
102400,note_off,40,0,9,,,,,,,,6,,,,41,64
102400,note_off,40,0,6,,,,,,,,3,,,,65,64
102400,note_off,40,0,15,,,,,,,,13,,,,29,64
102400,note_off,40,0,7,,,,,,,,4,,,,65,64
102400,note_off,40,0,10,,,,,,,,7,,,,29,64
102400,note_off,40,0,13,,,,,,,,11,,,,60,64
102400,note_off,40,0,14,,,,,,,,12,,,,41,64
102400,note_off,40,0,8,,,,,,,,5,,,,60,64
102420,note_on,20,0,14,,,,,,,,12,,,,41,92
102420,note_on,20,0,6,,,,,,,,3,,,,65,108
102420,note_on,20,0,13,,,,,,,,11,,,,60,92
102420,note_on,20,0,10,,,,,,,,7,,,,29,92
102420,note_on,20,0,15,,,,,,,,13,,,,29,92
102420,note_on,20,0,8,,,,,,,,5,,,,60,92
102420,note_on,20,0,11,,,,,,,,8,,,,65,92
102420,note_on,20,0,9,,,,,,,,6,,,,41,92
102420,note_on,20,0,7,,,,,,,,4,,,,65,108
102460,note_off,40,0,6,,,,,,,,3,,,,65,64
102460,note_off,40,0,15,,,,,,,,13,,,,29,64
102460,note_off,40,0,10,,,,,,,,7,,,,29,64
102460,note_off,40,0,8,,,,,,,,5,,,,60,64
102460,note_off,40,0,11,,,,,,,,8,,,,65,64
102460,note_off,40,0,9,,,,,,,,6,,,,41,64
102460,note_off,40,0,13,,,,,,,,11,,,,60,64
102460,note_off,40,0,7,,,,,,,,4,,,,65,64
102460,note_off,40,0,14,,,,,,,,12,,,,41,64
102475,note_off,0,0,2,,,,,,,,0,,,,29,64
102475,note_off,0,0,3,,,,,,,,14,,,,29,64
102475,note_off,235,0,3,,,,,,,,14,,,,41,64
102475,note_off,0,0,1,,,,,,,,0,,,,56,64
102475,note_off,235,0,2,,,,,,,,0,,,,41,64
102475,note_off,235,0,1,,,,,,,,0,,,,65,64
102475,note_off,0,0,1,,,,,,,,0,,,,61,64
102480,note_on,5,0,2,,,,,,,,0,,,,29,75
102480,note_on,0,0,2,,,,,,,,0,,,,41,75
102480,note_on,20,0,14,,,,,,,,12,,,,41,92
102480,note_on,20,0,15,,,,,,,,13,,,,29,92
102480,note_on,20,0,13,,,,,,,,11,,,,60,92
102480,note_on,20,0,11,,,,,,,,8,,,,56,92
102480,note_on,0,0,1,,,,,,,,0,,,,61,75
102480,note_on,0,0,1,,,,,,,,0,,,,65,75
102480,note_on,20,0,7,,,,,,,,4,,,,56,108
102480,note_on,20,0,8,,,,,,,,5,,,,60,92
102480,note_on,5,0,1,,,,,,,,0,,,,56,75
102480,note_on,20,0,9,,,,,,,,6,,,,41,92
102480,note_on,20,0,10,,,,,,,,7,,,,29,92
102480,note_on,20,0,6,,,,,,,,3,,,,56,108
102480,note_on,5,0,3,,,,,,,,14,,,,29,75
102480,note_on,0,0,3,,,,,,,,14,,,,41,75
102520,note_off,40,0,9,,,,,,,,6,,,,41,64
102520,note_off,40,0,10,,,,,,,,7,,,,29,64
102520,note_off,40,0,11,,,,,,,,8,,,,56,64
102520,note_off,40,0,14,,,,,,,,12,,,,41,64
102520,note_off,40,0,13,,,,,,,,11,,,,60,64
102520,note_off,40,0,8,,,,,,,,5,,,,60,64
102520,note_off,40,0,15,,,,,,,,13,,,,29,64
102520,note_off,40,0,6,,,,,,,,3,,,,56,64
102520,note_off,40,0,7,,,,,,,,4,,,,56,64
102540,note_on,20,0,6,,,,,,,,3,,,,65,108
102540,note_on,20,0,9,,,,,,,,6,,,,41,92
102540,note_on,20,0,15,,,,,,,,13,,,,29,92
102540,note_on,20,0,7,,,,,,,,4,,,,65,108
102540,note_on,20,0,13,,,,,,,,11,,,,60,92
102540,note_on,20,0,11,,,,,,,,8,,,,65,92
102540,note_on,20,0,10,,,,,,,,7,,,,29,92
102540,note_on,20,0,14,,,,,,,,12,,,,41,92
102540,note_on,20,0,8,,,,,,,,5,,,,60,92
102580,note_off,40,0,7,,,,,,,,4,,,,65,64
102580,note_off,40,0,9,,,,,,,,6,,,,41,64
102580,note_off,40,0,10,,,,,,,,7,,,,29,64
102580,note_off,40,0,8,,,,,,,,5,,,,60,64
102580,note_off,40,0,15,,,,,,,,13,,,,29,64
102580,note_off,40,0,13,,,,,,,,11,,,,60,64
102580,note_off,40,0,14,,,,,,,,12,,,,41,64
102580,note_off,40,0,6,,,,,,,,3,,,,65,64
102580,note_off,40,0,11,,,,,,,,8,,,,65,64
102600,note_on,20,0,14,,,,,,,,12,,,,41,92
102600,note_on,20,0,10,,,,,,,,7,,,,29,92
102600,note_on,20,0,15,,,,,,,,13,,,,29,92
102600,note_on,20,0,11,,,,,,,,8,,,,65,92
102600,note_on,20,0,13,,,,,,,,11,,,,60,92
102600,note_on,20,0,8,,,,,,,,5,,,,60,92
102600,note_on,20,0,9,,,,,,,,6,,,,41,92
102600,note_on,20,0,6,,,,,,,,3,,,,65,108
102600,note_on,20,0,7,,,,,,,,4,,,,65,108
102640,note_off,40,0,13,,,,,,,,11,,,,60,64
102640,note_off,40,0,14,,,,,,,,12,,,,41,64
102640,note_off,40,0,11,,,,,,,,8,,,,65,64
102640,note_off,40,0,15,,,,,,,,13,,,,29,64
102640,note_off,40,0,8,,,,,,,,5,,,,60,64
102640,note_off,40,0,7,,,,,,,,4,,,,65,64
102640,note_off,40,0,6,,,,,,,,3,,,,65,64
102640,note_off,40,0,9,,,,,,,,6,,,,41,64
102640,note_off,40,0,10,,,,,,,,7,,,,29,64
102660,note_on,20,0,10,,,,,,,,7,,,,29,92
102660,note_on,20,0,13,,,,,,,,11,,,,60,92
102660,note_on,20,0,15,,,,,,,,13,,,,29,92
102660,note_on,20,0,14,,,,,,,,12,,,,41,92
102660,note_on,20,0,9,,,,,,,,6,,,,41,92
102660,note_on,20,0,8,,,,,,,,5,,,,60,92
102660,note_on,20,0,6,,,,,,,,3,,,,65,108
102660,note_on,20,0,7,,,,,,,,4,,,,65,108
102660,note_on,20,0,11,,,,,,,,8,,,,65,92
102700,note_off,40,0,7,,,,,,,,4,,,,65,64
102700,note_off,40,0,6,,,,,,,,3,,,,65,64
102700,note_off,40,0,8,,,,,,,,5,,,,60,64
102700,note_off,40,0,9,,,,,,,,6,,,,41,64
102700,note_off,40,0,10,,,,,,,,7,,,,29,64
102700,note_off,40,0,11,,,,,,,,8,,,,65,64
102700,note_off,40,0,14,,,,,,,,12,,,,41,64
102700,note_off,40,0,13,,,,,,,,11,,,,60,64
102700,note_off,40,0,15,,,,,,,,13,,,,29,64
102715,note_off,235,0,2,,,,,,,,0,,,,41,64
102715,note_off,0,0,2,,,,,,,,0,,,,29,64
102715,note_off,235,0,3,,,,,,,,14,,,,41,64
102715,note_off,0,0,3,,,,,,,,14,,,,29,64
102715,note_off,0,0,1,,,,,,,,0,,,,56,64
102715,note_off,0,0,1,,,,,,,,0,,,,61,64
102715,note_off,235,0,1,,,,,,,,0,,,,65,64
102720,note_on,20,0,15,,,,,,,,13,,,,29,92
102720,note_on,20,0,13,,,,,,,,11,,,,60,92
102720,note_on,20,0,8,,,,,,,,5,,,,60,92
102720,note_on,0,0,2,,,,,,,,0,,,,41,75
102720,note_on,20,0,7,,,,,,,,4,,,,56,108
102720,note_on,5,0,2,,,,,,,,0,,,,29,75
102720,note_on,0,0,1,,,,,,,,0,,,,61,75
102720,note_on,5,0,1,,,,,,,,0,,,,56,75
102720,note_on,20,0,11,,,,,,,,8,,,,56,92
102720,note_on,20,0,9,,,,,,,,6,,,,41,92
102720,note_on,0,0,1,,,,,,,,0,,,,65,75
102720,note_on,5,0,3,,,,,,,,14,,,,29,75
102720,note_on,0,0,3,,,,,,,,14,,,,41,75
102720,note_on,20,0,10,,,,,,,,7,,,,29,92
102720,note_on,20,0,14,,,,,,,,12,,,,41,92
102720,note_on,20,0,6,,,,,,,,3,,,,56,108
102760,note_off,40,0,7,,,,,,,,4,,,,56,64
102760,note_off,40,0,9,,,,,,,,6,,,,41,64
102760,note_off,40,0,10,,,,,,,,7,,,,29,64
102760,note_off,40,0,14,,,,,,,,12,,,,41,64
102760,note_off,40,0,11,,,,,,,,8,,,,56,64
102760,note_off,40,0,13,,,,,,,,11,,,,60,64
102760,note_off,40,0,6,,,,,,,,3,,,,56,64
102760,note_off,40,0,8,,,,,,,,5,,,,60,64
102760,note_off,40,0,15,,,,,,,,13,,,,29,64
102780,note_on,20,0,11,,,,,,,,8,,,,65,92
102780,note_on,20,0,8,,,,,,,,5,,,,60,92
102780,note_on,20,0,7,,,,,,,,4,,,,65,108
102780,note_on,20,0,9,,,,,,,,6,,,,41,92
102780,note_on,20,0,6,,,,,,,,3,,,,65,108
102780,note_on,20,0,10,,,,,,,,7,,,,29,92
102780,note_on,20,0,15,,,,,,,,13,,,,29,92
102780,note_on,20,0,14,,,,,,,,12,,,,41,92
102780,note_on,20,0,13,,,,,,,,11,,,,60,92
102820,note_off,40,0,7,,,,,,,,4,,,,65,64
102820,note_off,40,0,9,,,,,,,,6,,,,41,64
102820,note_off,40,0,13,,,,,,,,11,,,,60,64
102820,note_off,40,0,8,,,,,,,,5,,,,60,64
102820,note_off,40,0,10,,,,,,,,7,,,,29,64
102820,note_off,40,0,14,,,,,,,,12,,,,41,64
102820,note_off,40,0,15,,,,,,,,13,,,,29,64
102820,note_off,40,0,11,,,,,,,,8,,,,65,64
102820,note_off,40,0,6,,,,,,,,3,,,,65,64
102840,note_on,20,0,8,,,,,,,,5,,,,60,92
102840,note_on,20,0,11,,,,,,,,8,,,,65,92
102840,note_on,20,0,6,,,,,,,,3,,,,65,108
102840,note_on,20,0,14,,,,,,,,12,,,,41,92
102840,note_on,20,0,7,,,,,,,,4,,,,65,108
102840,note_on,20,0,10,,,,,,,,7,,,,29,92
102840,note_on,20,0,13,,,,,,,,11,,,,60,92
102840,note_on,20,0,9,,,,,,,,6,,,,41,92
102840,note_on,20,0,15,,,,,,,,13,,,,29,92
102880,note_off,40,0,14,,,,,,,,12,,,,41,64
102880,note_off,40,0,15,,,,,,,,13,,,,29,64
102880,note_off,40,0,10,,,,,,,,7,,,,29,64
102880,note_off,40,0,8,,,,,,,,5,,,,60,64
102880,note_off,40,0,6,,,,,,,,3,,,,65,64
102880,note_off,40,0,9,,,,,,,,6,,,,41,64
102880,note_off,40,0,13,,,,,,,,11,,,,60,64
102880,note_off,40,0,11,,,,,,,,8,,,,65,64
102880,note_off,40,0,7,,,,,,,,4,,,,65,64
102900,note_on,20,0,11,,,,,,,,8,,,,65,92
102900,note_on,20,0,9,,,,,,,,6,,,,41,92
102900,note_on,20,0,15,,,,,,,,13,,,,29,92
102900,note_on,20,0,14,,,,,,,,12,,,,41,92
102900,note_on,20,0,8,,,,,,,,5,,,,60,92
102900,note_on,20,0,6,,,,,,,,3,,,,65,108
102900,note_on,20,0,10,,,,,,,,7,,,,29,92
102900,note_on,20,0,13,,,,,,,,11,,,,60,92
102900,note_on,20,0,7,,,,,,,,4,,,,65,108
102940,note_off,40,0,15,,,,,,,,13,,,,29,64
102940,note_off,40,0,6,,,,,,,,3,,,,65,64
102940,note_off,40,0,13,,,,,,,,11,,,,60,64
102940,note_off,40,0,10,,,,,,,,7,,,,29,64
102940,note_off,40,0,8,,,,,,,,5,,,,60,64
102940,note_off,40,0,14,,,,,,,,12,,,,41,64
102940,note_off,40,0,11,,,,,,,,8,,,,65,64
102940,note_off,40,0,7,,,,,,,,4,,,,65,64
102940,note_off,40,0,9,,,,,,,,6,,,,41,64
102955,note_off,0,0,3,,,,,,,,14,,,,29,64
102955,note_off,235,0,3,,,,,,,,14,,,,41,64
102955,note_off,235,0,1,,,,,,,,0,,,,65,64
102955,note_off,0,0,1,,,,,,,,0,,,,61,64
102955,note_off,0,0,1,,,,,,,,0,,,,56,64
102955,note_off,235,0,2,,,,,,,,0,,,,41,64
102955,note_off,0,0,2,,,,,,,,0,,,,29,64
102960,note_on,20,0,15,,,,,,,,13,,,,36,92
102960,note_on,20,0,6,,,,,,,,3,,,,55,108
102960,note_on,0,0,2,,,,,,,,0,,,,48,75
102960,note_on,20,0,9,,,,,,,,6,,,,48,92
102960,note_on,20,0,13,,,,,,,,11,,,,60,92
102960,note_on,20,0,7,,,,,,,,4,,,,55,108
102960,note_on,20,0,11,,,,,,,,8,,,,55,92
102960,note_on,0,0,3,,,,,,,,14,,,,36,75
102960,note_on,5,0,3,,,,,,,,14,,,,24,75
102960,note_on,20,0,14,,,,,,,,12,,,,48,92
102960,note_on,5,0,2,,,,,,,,0,,,,36,75
102960,note_on,20,0,8,,,,,,,,5,,,,60,92
102960,note_on,20,0,10,,,,,,,,7,,,,36,92
102960,note_on,5,0,1,,,,,,,,0,,,,55,75
102960,note_on,0,0,1,,,,,,,,0,,,,60,75
102960,note_on,0,0,1,,,,,,,,0,,,,65,75
103000,note_off,40,0,15,,,,,,,,13,,,,36,64
103000,note_off,40,0,8,,,,,,,,5,,,,60,64
103000,note_off,40,0,6,,,,,,,,3,,,,55,64
103000,note_off,40,0,9,,,,,,,,6,,,,48,64
103000,note_off,40,0,7,,,,,,,,4,,,,55,64
103000,note_off,40,0,11,,,,,,,,8,,,,55,64
103000,note_off,40,0,13,,,,,,,,11,,,,60,64
103000,note_off,40,0,10,,,,,,,,7,,,,36,64
103000,note_off,40,0,14,,,,,,,,12,,,,48,64
103020,note_on,20,0,10,,,,,,,,7,,,,36,92
103020,note_on,20,0,6,,,,,,,,3,,,,65,108
103020,note_on,20,0,7,,,,,,,,4,,,,65,108
103020,note_on,20,0,13,,,,,,,,11,,,,60,92
103020,note_on,20,0,14,,,,,,,,12,,,,48,92
103020,note_on,20,0,8,,,,,,,,5,,,,60,92
103020,note_on,20,0,15,,,,,,,,13,,,,36,92
103020,note_on,20,0,9,,,,,,,,6,,,,48,92
103020,note_on,20,0,11,,,,,,,,8,,,,65,92
103060,note_off,40,0,10,,,,,,,,7,,,,36,64
103060,note_off,40,0,7,,,,,,,,4,,,,65,64
103060,note_off,40,0,15,,,,,,,,13,,,,36,64
103060,note_off,40,0,11,,,,,,,,8,,,,65,64
103060,note_off,40,0,14,,,,,,,,12,,,,48,64
103060,note_off,40,0,13,,,,,,,,11,,,,60,64
103060,note_off,40,0,8,,,,,,,,5,,,,60,64
103060,note_off,40,0,9,,,,,,,,6,,,,48,64
103060,note_off,40,0,6,,,,,,,,3,,,,65,64
103080,note_on,20,0,7,,,,,,,,4,,,,65,108
103080,note_on,20,0,13,,,,,,,,11,,,,60,92
103080,note_on,20,0,11,,,,,,,,8,,,,65,92
103080,note_on,20,0,14,,,,,,,,12,,,,48,92
103080,note_on,20,0,10,,,,,,,,7,,,,36,92
103080,note_on,20,0,8,,,,,,,,5,,,,60,92
103080,note_on,20,0,6,,,,,,,,3,,,,65,108
103080,note_on,20,0,9,,,,,,,,6,,,,48,92
103080,note_on,20,0,15,,,,,,,,13,,,,36,92
103120,note_off,40,0,14,,,,,,,,12,,,,48,64
103120,note_off,40,0,6,,,,,,,,3,,,,65,64
103120,note_off,40,0,9,,,,,,,,6,,,,48,64
103120,note_off,40,0,7,,,,,,,,4,,,,65,64
103120,note_off,40,0,8,,,,,,,,5,,,,60,64
103120,note_off,40,0,13,,,,,,,,11,,,,60,64
103120,note_off,40,0,11,,,,,,,,8,,,,65,64
103120,note_off,40,0,15,,,,,,,,13,,,,36,64
103120,note_off,40,0,10,,,,,,,,7,,,,36,64
103140,note_on,20,0,10,,,,,,,,7,,,,36,92
103140,note_on,20,0,7,,,,,,,,4,,,,65,108
103140,note_on,20,0,6,,,,,,,,3,,,,65,108
103140,note_on,20,0,14,,,,,,,,12,,,,48,92
103140,note_on,20,0,13,,,,,,,,11,,,,60,92
103140,note_on,20,0,9,,,,,,,,6,,,,48,92
103140,note_on,20,0,11,,,,,,,,8,,,,65,92
103140,note_on,20,0,8,,,,,,,,5,,,,60,92
103140,note_on,20,0,15,,,,,,,,13,,,,36,92
103180,note_off,40,0,14,,,,,,,,12,,,,48,64
103180,note_off,40,0,13,,,,,,,,11,,,,60,64
103180,note_off,40,0,8,,,,,,,,5,,,,60,64
103180,note_off,40,0,7,,,,,,,,4,,,,65,64
103180,note_off,40,0,10,,,,,,,,7,,,,36,64
103180,note_off,40,0,15,,,,,,,,13,,,,36,64
103180,note_off,40,0,9,,,,,,,,6,,,,48,64
103180,note_off,40,0,6,,,,,,,,3,,,,65,64
103180,note_off,40,0,11,,,,,,,,8,,,,65,64
103195,note_off,235,0,3,,,,,,,,14,,,,36,64
103195,note_off,0,0,3,,,,,,,,14,,,,24,64
103195,note_off,235,0,1,,,,,,,,0,,,,65,64
103195,note_off,0,0,1,,,,,,,,0,,,,55,64
103195,note_off,235,0,2,,,,,,,,0,,,,48,64
103195,note_off,0,0,1,,,,,,,,0,,,,60,64
103195,note_off,0,0,2,,,,,,,,0,,,,36,64
103200,note_on,20,0,14,,,,,,,,12,,,,48,92
103200,note_on,20,0,13,,,,,,,,11,,,,60,92
103200,note_on,20,0,10,,,,,,,,7,,,,36,92
103200,note_on,20,0,8,,,,,,,,5,,,,60,92
103200,note_on,5,0,3,,,,,,,,14,,,,24,75
103200,note_on,5,0,2,,,,,,,,0,,,,36,75
103200,note_on,0,0,1,,,,,,,,0,,,,65,75
103200,note_on,20,0,15,,,,,,,,13,,,,36,92
103200,note_on,20,0,11,,,,,,,,8,,,,55,92
103200,note_on,20,0,7,,,,,,,,4,,,,55,108
103200,note_on,20,0,9,,,,,,,,6,,,,48,92
103200,note_on,0,0,1,,,,,,,,0,,,,60,75
103200,note_on,5,0,1,,,,,,,,0,,,,55,75
103200,note_on,0,0,2,,,,,,,,0,,,,48,75
103200,note_on,0,0,3,,,,,,,,14,,,,36,75
103200,note_on,20,0,6,,,,,,,,3,,,,55,108
103240,note_off,40,0,14,,,,,,,,12,,,,48,64
103240,note_off,40,0,13,,,,,,,,11,,,,60,64
103240,note_off,40,0,10,,,,,,,,7,,,,36,64
103240,note_off,40,0,15,,,,,,,,13,,,,36,64
103240,note_off,40,0,6,,,,,,,,3,,,,55,64
103240,note_off,40,0,11,,,,,,,,8,,,,55,64
103240,note_off,40,0,7,,,,,,,,4,,,,55,64
103240,note_off,40,0,8,,,,,,,,5,,,,60,64
103240,note_off,40,0,9,,,,,,,,6,,,,48,64
103260,note_on,20,0,7,,,,,,,,4,,,,65,108
103260,note_on,20,0,8,,,,,,,,5,,,,60,92
103260,note_on,20,0,6,,,,,,,,3,,,,65,108
103260,note_on,20,0,14,,,,,,,,12,,,,48,92
103260,note_on,20,0,15,,,,,,,,13,,,,36,92
103260,note_on,20,0,11,,,,,,,,8,,,,65,92
103260,note_on,20,0,9,,,,,,,,6,,,,48,92
103260,note_on,20,0,13,,,,,,,,11,,,,60,92
103260,note_on,20,0,10,,,,,,,,7,,,,36,92
103300,note_off,40,0,8,,,,,,,,5,,,,60,64
103300,note_off,40,0,10,,,,,,,,7,,,,36,64
103300,note_off,40,0,6,,,,,,,,3,,,,65,64
103300,note_off,40,0,15,,,,,,,,13,,,,36,64
103300,note_off,40,0,13,,,,,,,,11,,,,60,64
103300,note_off,40,0,9,,,,,,,,6,,,,48,64
103300,note_off,40,0,11,,,,,,,,8,,,,65,64
103300,note_off,40,0,14,,,,,,,,12,,,,48,64
103300,note_off,40,0,7,,,,,,,,4,,,,65,64
103320,note_on,20,0,13,,,,,,,,11,,,,60,92
103320,note_on,20,0,10,,,,,,,,7,,,,36,92
103320,note_on,20,0,8,,,,,,,,5,,,,60,92
103320,note_on,20,0,14,,,,,,,,12,,,,48,92
103320,note_on,20,0,15,,,,,,,,13,,,,36,92
103320,note_on,20,0,11,,,,,,,,8,,,,65,92
103320,note_on,20,0,6,,,,,,,,3,,,,65,108
103320,note_on,20,0,7,,,,,,,,4,,,,65,108
103320,note_on,20,0,9,,,,,,,,6,,,,48,92
103360,note_off,40,0,8,,,,,,,,5,,,,60,64
103360,note_off,40,0,10,,,,,,,,7,,,,36,64
103360,note_off,40,0,14,,,,,,,,12,,,,48,64
103360,note_off,40,0,11,,,,,,,,8,,,,65,64
103360,note_off,40,0,6,,,,,,,,3,,,,65,64
103360,note_off,40,0,7,,,,,,,,4,,,,65,64
103360,note_off,40,0,15,,,,,,,,13,,,,36,64
103360,note_off,40,0,9,,,,,,,,6,,,,48,64
103360,note_off,40,0,13,,,,,,,,11,,,,60,64
103380,note_on,20,0,11,,,,,,,,8,,,,65,92
103380,note_on,20,0,15,,,,,,,,13,,,,36,92
103380,note_on,20,0,6,,,,,,,,3,,,,65,108
103380,note_on,20,0,7,,,,,,,,4,,,,65,108
103380,note_on,20,0,14,,,,,,,,12,,,,48,92
103380,note_on,20,0,13,,,,,,,,11,,,,60,92
103380,note_on,20,0,9,,,,,,,,6,,,,48,92
103380,note_on,20,0,8,,,,,,,,5,,,,60,92
103380,note_on,20,0,10,,,,,,,,7,,,,36,92
103420,note_off,40,0,11,,,,,,,,8,,,,65,64
103420,note_off,40,0,13,,,,,,,,11,,,,60,64
103420,note_off,40,0,8,,,,,,,,5,,,,60,64
103420,note_off,40,0,15,,,,,,,,13,,,,36,64
103420,note_off,40,0,14,,,,,,,,12,,,,48,64
103420,note_off,40,0,9,,,,,,,,6,,,,48,64
103420,note_off,40,0,7,,,,,,,,4,,,,65,64
103420,note_off,40,0,6,,,,,,,,3,,,,65,64
103420,note_off,40,0,10,,,,,,,,7,,,,36,64
103435,note_off,235,0,3,,,,,,,,14,,,,36,64
103435,note_off,0,0,1,,,,,,,,0,,,,55,64
103435,note_off,0,0,1,,,,,,,,0,,,,60,64
103435,note_off,0,0,2,,,,,,,,0,,,,36,64
103435,note_off,235,0,1,,,,,,,,0,,,,65,64
103435,note_off,235,0,2,,,,,,,,0,,,,48,64
103435,note_off,0,0,3,,,,,,,,14,,,,24,64
103440,note_on,20,0,13,,,,,,,,11,,,,60,92
103440,note_on,20,0,6,,,,,,,,3,,,,55,108
103440,note_on,0,0,3,,,,,,,,14,,,,36,75
103440,note_on,20,0,10,,,,,,,,7,,,,36,92
103440,note_on,0,0,1,,,,,,,,0,,,,65,75
103440,note_on,0,0,1,,,,,,,,0,,,,60,75
103440,note_on,20,0,15,,,,,,,,13,,,,36,92
103440,note_on,20,0,11,,,,,,,,8,,,,55,92
103440,note_on,5,0,3,,,,,,,,14,,,,24,75
103440,note_on,5,0,1,,,,,,,,0,,,,55,75
103440,note_on,20,0,8,,,,,,,,5,,,,60,92
103440,note_on,20,0,14,,,,,,,,12,,,,48,92
103440,note_on,20,0,7,,,,,,,,4,,,,55,108
103440,note_on,5,0,2,,,,,,,,0,,,,36,75
103440,note_on,0,0,2,,,,,,,,0,,,,48,75
103440,note_on,20,0,9,,,,,,,,6,,,,48,92
103480,note_off,40,0,11,,,,,,,,8,,,,55,64
103480,note_off,40,0,9,,,,,,,,6,,,,48,64
103480,note_off,40,0,6,,,,,,,,3,,,,55,64
103480,note_off,40,0,13,,,,,,,,11,,,,60,64
103480,note_off,40,0,8,,,,,,,,5,,,,60,64
103480,note_off,40,0,7,,,,,,,,4,,,,55,64
103480,note_off,40,0,14,,,,,,,,12,,,,48,64
103480,note_off,40,0,10,,,,,,,,7,,,,36,64
103480,note_off,40,0,15,,,,,,,,13,,,,36,64
103500,note_on,20,0,10,,,,,,,,7,,,,36,92
103500,note_on,20,0,9,,,,,,,,6,,,,48,92
103500,note_on,20,0,14,,,,,,,,12,,,,48,92
103500,note_on,20,0,15,,,,,,,,13,,,,36,92
103500,note_on,20,0,6,,,,,,,,3,,,,65,108
103500,note_on,20,0,8,,,,,,,,5,,,,60,92
103500,note_on,20,0,7,,,,,,,,4,,,,65,108
103500,note_on,20,0,13,,,,,,,,11,,,,60,92
103500,note_on,20,0,11,,,,,,,,8,,,,65,92
103540,note_off,40,0,11,,,,,,,,8,,,,65,64
103540,note_off,40,0,13,,,,,,,,11,,,,60,64
103540,note_off,40,0,14,,,,,,,,12,,,,48,64
103540,note_off,40,0,6,,,,,,,,3,,,,65,64
103540,note_off,40,0,10,,,,,,,,7,,,,36,64
103540,note_off,40,0,8,,,,,,,,5,,,,60,64
103540,note_off,40,0,9,,,,,,,,6,,,,48,64
103540,note_off,40,0,15,,,,,,,,13,,,,36,64
103540,note_off,40,0,7,,,,,,,,4,,,,65,64
103560,note_on,20,0,15,,,,,,,,13,,,,36,92
103560,note_on,20,0,14,,,,,,,,12,,,,48,92
103560,note_on,20,0,11,,,,,,,,8,,,,65,92
103560,note_on,20,0,6,,,,,,,,3,,,,65,108
103560,note_on,20,0,8,,,,,,,,5,,,,60,92
103560,note_on,20,0,7,,,,,,,,4,,,,65,108
103560,note_on,20,0,9,,,,,,,,6,,,,48,92
103560,note_on,20,0,13,,,,,,,,11,,,,60,92
103560,note_on,20,0,10,,,,,,,,7,,,,36,92
103600,note_off,40,0,11,,,,,,,,8,,,,65,64
103600,note_off,40,0,9,,,,,,,,6,,,,48,64
103600,note_off,40,0,13,,,,,,,,11,,,,60,64
103600,note_off,40,0,10,,,,,,,,7,,,,36,64
103600,note_off,40,0,8,,,,,,,,5,,,,60,64
103600,note_off,40,0,6,,,,,,,,3,,,,65,64
103600,note_off,40,0,14,,,,,,,,12,,,,48,64
103600,note_off,40,0,7,,,,,,,,4,,,,65,64
103600,note_off,40,0,15,,,,,,,,13,,,,36,64
103620,note_on,20,0,9,,,,,,,,6,,,,48,92
103620,note_on,20,0,11,,,,,,,,8,,,,65,92
103620,note_on,20,0,10,,,,,,,,7,,,,36,92
103620,note_on,20,0,14,,,,,,,,12,,,,48,92
103620,note_on,20,0,8,,,,,,,,5,,,,60,92
103620,note_on,20,0,15,,,,,,,,13,,,,36,92
103620,note_on,20,0,7,,,,,,,,4,,,,65,108
103620,note_on,20,0,13,,,,,,,,11,,,,60,92
103620,note_on,20,0,6,,,,,,,,3,,,,65,108
103660,note_off,40,0,8,,,,,,,,5,,,,60,64
103660,note_off,40,0,15,,,,,,,,13,,,,36,64
103660,note_off,40,0,13,,,,,,,,11,,,,60,64
103660,note_off,40,0,7,,,,,,,,4,,,,65,64
103660,note_off,40,0,6,,,,,,,,3,,,,65,64
103660,note_off,40,0,9,,,,,,,,6,,,,48,64
103660,note_off,40,0,11,,,,,,,,8,,,,65,64
103660,note_off,40,0,10,,,,,,,,7,,,,36,64
103660,note_off,40,0,14,,,,,,,,12,,,,48,64
103675,note_off,0,0,3,,,,,,,,14,,,,24,64
103675,note_off,235,0,2,,,,,,,,0,,,,48,64
103675,note_off,235,0,1,,,,,,,,0,,,,65,64
103675,note_off,235,0,3,,,,,,,,14,,,,36,64
103675,note_off,0,0,1,,,,,,,,0,,,,55,64
103675,note_off,0,0,1,,,,,,,,0,,,,60,64
103675,note_off,0,0,2,,,,,,,,0,,,,36,64
103680,note_on,20,0,10,,,,,,,,7,,,,36,92
103680,note_on,5,0,2,,,,,,,,0,,,,36,75
103680,note_on,0,0,1,,,,,,,,0,,,,60,75
103680,note_on,20,0,11,,,,,,,,8,,,,55,92
103680,note_on,0,0,2,,,,,,,,0,,,,48,75
103680,note_on,0,0,1,,,,,,,,0,,,,64,75
103680,note_on,5,0,1,,,,,,,,0,,,,55,75
103680,note_on,20,0,13,,,,,,,,11,,,,60,92
103680,note_on,20,0,15,,,,,,,,13,,,,36,92
103680,note_on,0,0,3,,,,,,,,14,,,,36,75
103680,note_on,5,0,3,,,,,,,,14,,,,24,75
103680,note_on,20,0,7,,,,,,,,4,,,,55,108
103680,note_on,20,0,8,,,,,,,,5,,,,60,92
103680,note_on,20,0,6,,,,,,,,3,,,,55,108
103680,note_on,20,0,14,,,,,,,,12,,,,48,92
103680,note_on,20,0,9,,,,,,,,6,,,,48,92
103720,note_off,40,0,7,,,,,,,,4,,,,55,64
103720,note_off,40,0,11,,,,,,,,8,,,,55,64
103720,note_off,40,0,13,,,,,,,,11,,,,60,64
103720,note_off,40,0,10,,,,,,,,7,,,,36,64
103720,note_off,40,0,9,,,,,,,,6,,,,48,64
103720,note_off,40,0,15,,,,,,,,13,,,,36,64
103720,note_off,40,0,8,,,,,,,,5,,,,60,64
103720,note_off,40,0,6,,,,,,,,3,,,,55,64
103720,note_off,40,0,14,,,,,,,,12,,,,48,64
103740,note_on,20,0,15,,,,,,,,13,,,,36,92
103740,note_on,20,0,6,,,,,,,,3,,,,64,108
103740,note_on,20,0,7,,,,,,,,4,,,,64,108
103740,note_on,20,0,14,,,,,,,,12,,,,48,92
103740,note_on,20,0,11,,,,,,,,8,,,,64,92
103740,note_on,20,0,8,,,,,,,,5,,,,60,92
103740,note_on,20,0,13,,,,,,,,11,,,,60,92
103740,note_on,20,0,9,,,,,,,,6,,,,48,92
103740,note_on,20,0,10,,,,,,,,7,,,,36,92
103780,note_off,40,0,14,,,,,,,,12,,,,48,64
103780,note_off,40,0,7,,,,,,,,4,,,,64,64
103780,note_off,40,0,8,,,,,,,,5,,,,60,64
103780,note_off,40,0,11,,,,,,,,8,,,,64,64
103780,note_off,40,0,9,,,,,,,,6,,,,48,64
103780,note_off,40,0,10,,,,,,,,7,,,,36,64
103780,note_off,40,0,15,,,,,,,,13,,,,36,64
103780,note_off,40,0,6,,,,,,,,3,,,,64,64
103780,note_off,40,0,13,,,,,,,,11,,,,60,64
103800,note_on,20,0,7,,,,,,,,4,,,,64,108
103800,note_on,20,0,15,,,,,,,,13,,,,36,92
103800,note_on,20,0,13,,,,,,,,11,,,,60,92
103800,note_on,20,0,9,,,,,,,,6,,,,48,92
103800,note_on,20,0,14,,,,,,,,12,,,,48,92
103800,note_on,20,0,11,,,,,,,,8,,,,64,92
103800,note_on,20,0,6,,,,,,,,3,,,,64,108
103800,note_on,20,0,10,,,,,,,,7,,,,36,92
103800,note_on,20,0,8,,,,,,,,5,,,,60,92
103840,note_off,40,0,7,,,,,,,,4,,,,64,64
103840,note_off,40,0,15,,,,,,,,13,,,,36,64
103840,note_off,40,0,6,,,,,,,,3,,,,64,64
103840,note_off,40,0,9,,,,,,,,6,,,,48,64
103840,note_off,40,0,14,,,,,,,,12,,,,48,64
103840,note_off,40,0,13,,,,,,,,11,,,,60,64
103840,note_off,40,0,11,,,,,,,,8,,,,64,64
103840,note_off,40,0,8,,,,,,,,5,,,,60,64
103840,note_off,40,0,10,,,,,,,,7,,,,36,64
103860,note_on,20,0,8,,,,,,,,5,,,,60,92
103860,note_on,20,0,13,,,,,,,,11,,,,60,92
103860,note_on,20,0,6,,,,,,,,3,,,,64,108
103860,note_on,20,0,10,,,,,,,,7,,,,36,92
103860,note_on,20,0,14,,,,,,,,12,,,,48,92
103860,note_on,20,0,11,,,,,,,,8,,,,64,92
103860,note_on,20,0,15,,,,,,,,13,,,,36,92
103860,note_on,20,0,7,,,,,,,,4,,,,64,108
103860,note_on,20,0,9,,,,,,,,6,,,,48,92
103900,note_off,40,0,13,,,,,,,,11,,,,60,64
103900,note_off,40,0,15,,,,,,,,13,,,,36,64
103900,note_off,40,0,10,,,,,,,,7,,,,36,64
103900,note_off,40,0,9,,,,,,,,6,,,,48,64
103900,note_off,40,0,11,,,,,,,,8,,,,64,64
103900,note_off,40,0,14,,,,,,,,12,,,,48,64
103900,note_off,40,0,8,,,,,,,,5,,,,60,64
103900,note_off,40,0,6,,,,,,,,3,,,,64,64
103900,note_off,40,0,7,,,,,,,,4,,,,64,64
103915,note_off,0,0,1,,,,,,,,0,,,,60,64
103915,note_off,235,0,1,,,,,,,,0,,,,64,64
103915,note_off,0,0,1,,,,,,,,0,,,,55,64
103915,note_off,0,0,3,,,,,,,,14,,,,24,64
103915,note_off,0,0,2,,,,,,,,0,,,,36,64
103915,note_off,235,0,2,,,,,,,,0,,,,48,64
103915,note_off,235,0,3,,,,,,,,14,,,,36,64
103920,note_on,0,0,1,,,,,,,,0,,,,60,75
103920,note_on,0,0,1,,,,,,,,0,,,,64,75
103920,note_on,20,0,9,,,,,,,,6,,,,48,92
103920,note_on,0,0,3,,,,,,,,14,,,,36,75
103920,note_on,0,0,2,,,,,,,,0,,,,48,75
103920,note_on,5,0,2,,,,,,,,0,,,,36,75
103920,note_on,20,0,15,,,,,,,,13,,,,36,92
103920,note_on,20,0,6,,,,,,,,3,,,,55,108
103920,note_on,5,0,1,,,,,,,,0,,,,55,75
103920,note_on,20,0,13,,,,,,,,11,,,,60,92
103920,note_on,20,0,11,,,,,,,,8,,,,55,92
103920,note_on,20,0,7,,,,,,,,4,,,,55,108
103920,note_on,5,0,3,,,,,,,,14,,,,24,75
103920,note_on,20,0,14,,,,,,,,12,,,,48,92
103920,note_on,20,0,8,,,,,,,,5,,,,60,92
103920,note_on,20,0,10,,,,,,,,7,,,,36,92
103960,note_off,40,0,14,,,,,,,,12,,,,48,64
103960,note_off,40,0,7,,,,,,,,4,,,,55,64
103960,note_off,40,0,10,,,,,,,,7,,,,36,64
103960,note_off,40,0,8,,,,,,,,5,,,,60,64
103960,note_off,40,0,6,,,,,,,,3,,,,55,64
103960,note_off,40,0,11,,,,,,,,8,,,,55,64
103960,note_off,40,0,9,,,,,,,,6,,,,48,64
103960,note_off,40,0,13,,,,,,,,11,,,,60,64
103960,note_off,40,0,15,,,,,,,,13,,,,36,64
103980,note_on,20,0,8,,,,,,,,5,,,,60,92
103980,note_on,20,0,11,,,,,,,,8,,,,64,92
103980,note_on,20,0,14,,,,,,,,12,,,,48,92
103980,note_on,20,0,9,,,,,,,,6,,,,48,92
103980,note_on,20,0,13,,,,,,,,11,,,,60,92
103980,note_on,20,0,10,,,,,,,,7,,,,36,92
103980,note_on,20,0,6,,,,,,,,3,,,,64,108
103980,note_on,20,0,7,,,,,,,,4,,,,64,108
103980,note_on,20,0,15,,,,,,,,13,,,,36,92
104020,note_off,40,0,10,,,,,,,,7,,,,36,64
104020,note_off,40,0,9,,,,,,,,6,,,,48,64
104020,note_off,40,0,6,,,,,,,,3,,,,64,64
104020,note_off,40,0,8,,,,,,,,5,,,,60,64
104020,note_off,40,0,15,,,,,,,,13,,,,36,64
104020,note_off,40,0,13,,,,,,,,11,,,,60,64
104020,note_off,40,0,7,,,,,,,,4,,,,64,64
104020,note_off,40,0,11,,,,,,,,8,,,,64,64
104020,note_off,40,0,14,,,,,,,,12,,,,48,64
104040,note_on,20,0,9,,,,,,,,6,,,,48,92
104040,note_on,20,0,13,,,,,,,,11,,,,60,92
104040,note_on,20,0,8,,,,,,,,5,,,,60,92
104040,note_on,20,0,15,,,,,,,,13,,,,36,92
104040,note_on,20,0,7,,,,,,,,4,,,,64,108
104040,note_on,20,0,6,,,,,,,,3,,,,64,108
104040,note_on,20,0,14,,,,,,,,12,,,,48,92
104040,note_on,20,0,10,,,,,,,,7,,,,36,92
104040,note_on,20,0,11,,,,,,,,8,,,,64,92
104080,note_off,40,0,15,,,,,,,,13,,,,36,64
104080,note_off,40,0,8,,,,,,,,5,,,,60,64
104080,note_off,40,0,10,,,,,,,,7,,,,36,64
104080,note_off,40,0,6,,,,,,,,3,,,,64,64
104080,note_off,40,0,9,,,,,,,,6,,,,48,64
104080,note_off,40,0,13,,,,,,,,11,,,,60,64
104080,note_off,40,0,14,,,,,,,,12,,,,48,64
104080,note_off,40,0,7,,,,,,,,4,,,,64,64
104080,note_off,40,0,11,,,,,,,,8,,,,64,64
104100,note_on,20,0,6,,,,,,,,3,,,,64,108
104100,note_on,20,0,13,,,,,,,,11,,,,60,92
104100,note_on,20,0,8,,,,,,,,5,,,,60,92
104100,note_on,20,0,11,,,,,,,,8,,,,64,92
104100,note_on,20,0,15,,,,,,,,13,,,,36,92
104100,note_on,20,0,9,,,,,,,,6,,,,48,92
104100,note_on,20,0,10,,,,,,,,7,,,,36,92
104100,note_on,20,0,14,,,,,,,,12,,,,48,92
104100,note_on,20,0,7,,,,,,,,4,,,,64,108
104140,note_off,40,0,14,,,,,,,,12,,,,48,64
104140,note_off,40,0,7,,,,,,,,4,,,,64,64
104140,note_off,40,0,15,,,,,,,,13,,,,36,64
104140,note_off,40,0,8,,,,,,,,5,,,,60,64
104140,note_off,40,0,9,,,,,,,,6,,,,48,64
104140,note_off,40,0,13,,,,,,,,11,,,,60,64
104140,note_off,40,0,11,,,,,,,,8,,,,64,64
104140,note_off,40,0,6,,,,,,,,3,,,,64,64
104140,note_off,40,0,10,,,,,,,,7,,,,36,64
104155,note_off,235,0,1,,,,,,,,0,,,,64,64
104155,note_off,0,0,1,,,,,,,,0,,,,55,64
104155,note_off,0,0,1,,,,,,,,0,,,,60,64
104155,note_off,0,0,2,,,,,,,,0,,,,36,64
104155,note_off,235,0,2,,,,,,,,0,,,,48,64
104155,note_off,235,0,3,,,,,,,,14,,,,36,64
104155,note_off,0,0,3,,,,,,,,14,,,,24,64
104160,note_on,20,0,7,,,,,,,,4,,,,55,108
104160,note_on,5,0,2,,,,,,,,0,,,,36,75
104160,note_on,20,0,10,,,,,,,,7,,,,36,92
104160,note_on,20,0,9,,,,,,,,6,,,,48,92
104160,note_on,20,0,15,,,,,,,,13,,,,36,92
104160,note_on,20,0,14,,,,,,,,12,,,,48,92
104160,note_on,20,0,11,,,,,,,,8,,,,55,92
104160,note_on,20,0,13,,,,,,,,11,,,,60,92
104160,note_on,20,0,8,,,,,,,,5,,,,60,92
104160,note_on,5,0,1,,,,,,,,0,,,,55,75
104160,note_on,0,0,1,,,,,,,,0,,,,60,75
104160,note_on,0,0,2,,,,,,,,0,,,,48,75
104160,note_on,0,0,3,,,,,,,,14,,,,36,75
104160,note_on,20,0,6,,,,,,,,3,,,,55,108
104160,note_on,5,0,3,,,,,,,,14,,,,24,75
104160,note_on,0,0,1,,,,,,,,0,,,,64,75
104200,note_off,40,0,10,,,,,,,,7,,,,36,64
104200,note_off,40,0,6,,,,,,,,3,,,,55,64
104200,note_off,40,0,13,,,,,,,,11,,,,60,64
104200,note_off,40,0,7,,,,,,,,4,,,,55,64
104200,note_off,40,0,14,,,,,,,,12,,,,48,64
104200,note_off,40,0,8,,,,,,,,5,,,,60,64
104200,note_off,40,0,15,,,,,,,,13,,,,36,64
104200,note_off,40,0,11,,,,,,,,8,,,,55,64
104200,note_off,40,0,9,,,,,,,,6,,,,48,64
104220,note_on,20,0,9,,,,,,,,6,,,,48,92
104220,note_on,20,0,7,,,,,,,,4,,,,64,108
104220,note_on,20,0,15,,,,,,,,13,,,,36,92
104220,note_on,20,0,6,,,,,,,,3,,,,64,108
104220,note_on,20,0,10,,,,,,,,7,,,,36,92
104220,note_on,20,0,14,,,,,,,,12,,,,48,92
104220,note_on,20,0,13,,,,,,,,11,,,,60,92
104220,note_on,20,0,8,,,,,,,,5,,,,60,92
104220,note_on,20,0,11,,,,,,,,8,,,,64,92
104260,note_off,40,0,13,,,,,,,,11,,,,60,64
104260,note_off,40,0,7,,,,,,,,4,,,,64,64
104260,note_off,40,0,8,,,,,,,,5,,,,60,64
104260,note_off,40,0,9,,,,,,,,6,,,,48,64
104260,note_off,40,0,6,,,,,,,,3,,,,64,64
104260,note_off,40,0,11,,,,,,,,8,,,,64,64
104260,note_off,40,0,15,,,,,,,,13,,,,36,64
104260,note_off,40,0,10,,,,,,,,7,,,,36,64
104260,note_off,40,0,14,,,,,,,,12,,,,48,64
104280,note_on,20,0,11,,,,,,,,8,,,,64,92
104280,note_on,20,0,10,,,,,,,,7,,,,36,92
104280,note_on,20,0,14,,,,,,,,12,,,,48,92
104280,note_on,20,0,6,,,,,,,,3,,,,64,108
104280,note_on,20,0,15,,,,,,,,13,,,,36,92
104280,note_on,20,0,9,,,,,,,,6,,,,48,92
104280,note_on,20,0,8,,,,,,,,5,,,,60,92
104280,note_on,20,0,13,,,,,,,,11,,,,60,92
104280,note_on,20,0,7,,,,,,,,4,,,,64,108
104320,note_off,40,0,6,,,,,,,,3,,,,64,64
104320,note_off,40,0,11,,,,,,,,8,,,,64,64
104320,note_off,40,0,13,,,,,,,,11,,,,60,64
104320,note_off,40,0,14,,,,,,,,12,,,,48,64
104320,note_off,40,0,9,,,,,,,,6,,,,48,64
104320,note_off,40,0,7,,,,,,,,4,,,,64,64
104320,note_off,40,0,15,,,,,,,,13,,,,36,64
104320,note_off,40,0,10,,,,,,,,7,,,,36,64
104320,note_off,40,0,8,,,,,,,,5,,,,60,64
104340,note_on,20,0,14,,,,,,,,12,,,,48,92
104340,note_on,20,0,9,,,,,,,,6,,,,48,92
104340,note_on,20,0,10,,,,,,,,7,,,,36,92
104340,note_on,20,0,15,,,,,,,,13,,,,36,92
104340,note_on,20,0,11,,,,,,,,8,,,,64,92
104340,note_on,20,0,6,,,,,,,,3,,,,64,108
104340,note_on,20,0,7,,,,,,,,4,,,,64,108
104340,note_on,20,0,13,,,,,,,,11,,,,60,92
104340,note_on,20,0,8,,,,,,,,5,,,,60,92
104380,note_off,40,0,15,,,,,,,,13,,,,36,64
104380,note_off,40,0,14,,,,,,,,12,,,,48,64
104380,note_off,40,0,7,,,,,,,,4,,,,64,64
104380,note_off,40,0,9,,,,,,,,6,,,,48,64
104380,note_off,40,0,8,,,,,,,,5,,,,60,64
104380,note_off,40,0,13,,,,,,,,11,,,,60,64
104380,note_off,40,0,6,,,,,,,,3,,,,64,64
104380,note_off,40,0,11,,,,,,,,8,,,,64,64
104380,note_off,40,0,10,,,,,,,,7,,,,36,64
104395,note_off,235,0,3,,,,,,,,14,,,,36,64
104395,note_off,0,0,1,,,,,,,,0,,,,60,64
104395,note_off,235,0,1,,,,,,,,0,,,,64,64
104395,note_off,0,0,2,,,,,,,,0,,,,36,64
104395,note_off,235,0,2,,,,,,,,0,,,,48,64
104395,note_off,0,0,1,,,,,,,,0,,,,55,64
104395,note_off,0,0,3,,,,,,,,14,,,,24,64
104400,note_on,20,0,13,,,,,,,,11,,,,56,92
104400,note_on,5060,0,12,,,,,,,,10,,,,60,92
104400,note_on,20,0,9,,,,,,,,6,,,,41,92
104400,note_on,20,0,8,,,,,,,,5,,,,56,92
104400,note_on,0,0,3,,,,,,,,14,,,,41,75
104400,note_on,20,0,10,,,,,,,,7,,,,29,92
104400,note_on,20,0,14,,,,,,,,12,,,,41,92
104400,note_on,0,0,1,,,,,,,,0,,,,60,75
104400,note_on,5,0,1,,,,,,,,0,,,,56,75
104400,note_on,0,0,2,,,,,,,,0,,,,41,75
104400,note_on,0,0,1,,,,,,,,0,,,,65,75
104400,note_on,5,0,2,,,,,,,,0,,,,29,75
104400,note_on,5,0,3,,,,,,,,14,,,,29,75
104400,note_on,20,0,6,,,,,,,,3,,,,65,108
104400,program_change,20,0,7,,,,,,,,4,,,48,,
104400,note_on,20,0,11,,,,,,,,8,,,,65,92
104400,note_on,0,0,7,,,,,,,,4,,,,60,108
104400,note_on,20,0,15,,,,,,,,13,,,,29,92
104440,note_off,40,0,6,,,,,,,,3,,,,65,64
104440,note_off,40,0,11,,,,,,,,8,,,,65,64
104440,note_off,40,0,7,,,,,,,,4,,,,60,64
104440,note_off,40,0,8,,,,,,,,5,,,,56,64
104440,note_off,40,0,12,,,,,,,,10,,,,60,64
104440,note_off,40,0,9,,,,,,,,6,,,,41,64
104440,note_off,40,0,15,,,,,,,,13,,,,29,64
104440,note_off,40,0,14,,,,,,,,12,,,,41,64
104440,note_off,40,0,10,,,,,,,,7,,,,29,64
104440,note_off,40,0,13,,,,,,,,11,,,,56,64
104460,note_on,20,0,13,,,,,,,,11,,,,56,92
104460,note_on,20,0,12,,,,,,,,10,,,,60,92
104460,note_on,20,0,7,,,,,,,,4,,,,60,108
104460,note_on,20,0,14,,,,,,,,12,,,,41,92
104460,note_on,20,0,6,,,,,,,,3,,,,65,108
104460,note_on,20,0,9,,,,,,,,6,,,,41,92
104460,note_on,20,0,10,,,,,,,,7,,,,29,92
104460,note_on,20,0,15,,,,,,,,13,,,,29,92
104460,note_on,20,0,8,,,,,,,,5,,,,56,92
104460,note_on,20,0,11,,,,,,,,8,,,,65,92
104500,note_off,40,0,12,,,,,,,,10,,,,60,64
104500,note_off,40,0,14,,,,,,,,12,,,,41,64
104500,note_off,40,0,8,,,,,,,,5,,,,56,64
104500,note_off,40,0,7,,,,,,,,4,,,,60,64
104500,note_off,40,0,15,,,,,,,,13,,,,29,64
104500,note_off,40,0,11,,,,,,,,8,,,,65,64
104500,note_off,40,0,10,,,,,,,,7,,,,29,64
104500,note_off,40,0,9,,,,,,,,6,,,,41,64
104500,note_off,40,0,6,,,,,,,,3,,,,65,64
104500,note_off,40,0,13,,,,,,,,11,,,,56,64
104520,note_on,20,0,12,,,,,,,,10,,,,60,92
104520,note_on,20,0,14,,,,,,,,12,,,,41,92
104520,note_on,20,0,10,,,,,,,,7,,,,29,92
104520,note_on,20,0,7,,,,,,,,4,,,,60,108
104520,note_on,20,0,13,,,,,,,,11,,,,56,92
104520,note_on,20,0,8,,,,,,,,5,,,,56,92
104520,note_on,20,0,11,,,,,,,,8,,,,65,92
104520,note_on,20,0,15,,,,,,,,13,,,,29,92
104520,note_on,20,0,9,,,,,,,,6,,,,41,92
104520,note_on,20,0,6,,,,,,,,3,,,,65,108
104560,note_off,40,0,11,,,,,,,,8,,,,65,64
104560,note_off,40,0,15,,,,,,,,13,,,,29,64
104560,note_off,40,0,10,,,,,,,,7,,,,29,64
104560,note_off,40,0,7,,,,,,,,4,,,,60,64
104560,note_off,40,0,6,,,,,,,,3,,,,65,64
104560,note_off,40,0,9,,,,,,,,6,,,,41,64
104560,note_off,40,0,14,,,,,,,,12,,,,41,64
104560,note_off,40,0,12,,,,,,,,10,,,,60,64
104560,note_off,40,0,8,,,,,,,,5,,,,56,64
104560,note_off,40,0,13,,,,,,,,11,,,,56,64
104580,note_on,20,0,10,,,,,,,,7,,,,29,92
104580,note_on,20,0,6,,,,,,,,3,,,,65,108
104580,note_on,20,0,15,,,,,,,,13,,,,29,92
104580,note_on,20,0,14,,,,,,,,12,,,,41,92
104580,note_on,20,0,12,,,,,,,,10,,,,60,92
104580,note_on,20,0,8,,,,,,,,5,,,,56,92
104580,note_on,20,0,9,,,,,,,,6,,,,41,92
104580,note_on,20,0,13,,,,,,,,11,,,,56,92
104580,note_on,20,0,11,,,,,,,,8,,,,65,92
104580,note_on,20,0,7,,,,,,,,4,,,,60,108
104620,note_off,40,0,7,,,,,,,,4,,,,60,64
104620,note_off,40,0,12,,,,,,,,10,,,,60,64
104620,note_off,40,0,14,,,,,,,,12,,,,41,64
104620,note_off,40,0,11,,,,,,,,8,,,,65,64
104620,note_off,40,0,13,,,,,,,,11,,,,56,64
104620,note_off,40,0,15,,,,,,,,13,,,,29,64
104620,note_off,40,0,8,,,,,,,,5,,,,56,64
104620,note_off,40,0,6,,,,,,,,3,,,,65,64
104620,note_off,40,0,9,,,,,,,,6,,,,41,64
104620,note_off,40,0,10,,,,,,,,7,,,,29,64
104635,note_off,0,0,1,,,,,,,,0,,,,60,64
104635,note_off,235,0,1,,,,,,,,0,,,,65,64
104635,note_off,235,0,2,,,,,,,,0,,,,41,64
104635,note_off,0,0,1,,,,,,,,0,,,,56,64
104635,note_off,235,0,3,,,,,,,,14,,,,41,64
104635,note_off,0,0,3,,,,,,,,14,,,,29,64
104635,note_off,0,0,2,,,,,,,,0,,,,29,64
104640,note_on,20,0,9,,,,,,,,6,,,,41,92
104640,note_on,20,0,12,,,,,,,,10,,,,65,92
104640,note_on,5,0,1,,,,,,,,0,,,,60,75
104640,note_on,20,0,11,,,,,,,,8,,,,68,92
104640,note_on,0,0,1,,,,,,,,0,,,,68,75
104640,note_on,5,0,2,,,,,,,,0,,,,29,75
104640,note_on,0,0,2,,,,,,,,0,,,,41,75
104640,note_on,0,0,1,,,,,,,,0,,,,65,75
104640,note_on,20,0,8,,,,,,,,5,,,,60,92
104640,note_on,20,0,13,,,,,,,,11,,,,60,92
104640,note_on,20,0,6,,,,,,,,3,,,,68,108
104640,note_on,20,0,10,,,,,,,,7,,,,29,92
104640,note_on,20,0,15,,,,,,,,13,,,,29,92
104640,note_on,0,0,3,,,,,,,,14,,,,41,75
104640,note_on,5,0,3,,,,,,,,14,,,,29,75
104640,note_on,20,0,7,,,,,,,,4,,,,65,108
104640,note_on,20,0,14,,,,,,,,12,,,,41,92
104680,note_off,40,0,15,,,,,,,,13,,,,29,64
104680,note_off,40,0,11,,,,,,,,8,,,,68,64
104680,note_off,40,0,8,,,,,,,,5,,,,60,64
104680,note_off,40,0,10,,,,,,,,7,,,,29,64
104680,note_off,40,0,7,,,,,,,,4,,,,65,64
104680,note_off,40,0,12,,,,,,,,10,,,,65,64
104680,note_off,40,0,6,,,,,,,,3,,,,68,64
104680,note_off,40,0,9,,,,,,,,6,,,,41,64
104680,note_off,40,0,13,,,,,,,,11,,,,60,64
104680,note_off,40,0,14,,,,,,,,12,,,,41,64
104700,note_on,20,0,14,,,,,,,,12,,,,41,92
104700,note_on,20,0,11,,,,,,,,8,,,,68,92
104700,note_on,20,0,6,,,,,,,,3,,,,68,108
104700,note_on,20,0,15,,,,,,,,13,,,,29,92
104700,note_on,20,0,9,,,,,,,,6,,,,41,92
104700,note_on,20,0,8,,,,,,,,5,,,,60,92
104700,note_on,20,0,13,,,,,,,,11,,,,60,92
104700,note_on,20,0,10,,,,,,,,7,,,,29,92
104700,note_on,20,0,12,,,,,,,,10,,,,65,92
104700,note_on,20,0,7,,,,,,,,4,,,,65,108
104740,note_off,40,0,8,,,,,,,,5,,,,60,64
104740,note_off,40,0,11,,,,,,,,8,,,,68,64
104740,note_off,40,0,10,,,,,,,,7,,,,29,64
104740,note_off,40,0,9,,,,,,,,6,,,,41,64
104740,note_off,40,0,12,,,,,,,,10,,,,65,64
104740,note_off,40,0,15,,,,,,,,13,,,,29,64
104740,note_off,40,0,7,,,,,,,,4,,,,65,64
104740,note_off,40,0,6,,,,,,,,3,,,,68,64
104740,note_off,40,0,14,,,,,,,,12,,,,41,64
104740,note_off,40,0,13,,,,,,,,11,,,,60,64
104760,note_on,20,0,11,,,,,,,,8,,,,68,92
104760,note_on,20,0,15,,,,,,,,13,,,,29,92
104760,note_on,20,0,8,,,,,,,,5,,,,60,92
104760,note_on,20,0,14,,,,,,,,12,,,,41,92
104760,note_on,20,0,9,,,,,,,,6,,,,41,92
104760,note_on,20,0,12,,,,,,,,10,,,,65,92
104760,note_on,20,0,13,,,,,,,,11,,,,60,92
104760,note_on,20,0,10,,,,,,,,7,,,,29,92
104760,note_on,20,0,6,,,,,,,,3,,,,68,108
104760,note_on,20,0,7,,,,,,,,4,,,,65,108
104800,note_off,40,0,15,,,,,,,,13,,,,29,64
104800,note_off,40,0,6,,,,,,,,3,,,,68,64
104800,note_off,40,0,14,,,,,,,,12,,,,41,64
104800,note_off,40,0,10,,,,,,,,7,,,,29,64
104800,note_off,40,0,13,,,,,,,,11,,,,60,64
104800,note_off,40,0,9,,,,,,,,6,,,,41,64
104800,note_off,40,0,11,,,,,,,,8,,,,68,64
104800,note_off,40,0,8,,,,,,,,5,,,,60,64
104800,note_off,40,0,12,,,,,,,,10,,,,65,64
104800,note_off,40,0,7,,,,,,,,4,,,,65,64
104820,note_on,20,0,13,,,,,,,,11,,,,60,92
104820,note_on,20,0,9,,,,,,,,6,,,,41,92
104820,note_on,20,0,11,,,,,,,,8,,,,68,92
104820,note_on,20,0,8,,,,,,,,5,,,,60,92
104820,note_on,20,0,15,,,,,,,,13,,,,29,92
104820,note_on,20,0,6,,,,,,,,3,,,,68,108
104820,note_on,20,0,7,,,,,,,,4,,,,65,108
104820,note_on,20,0,10,,,,,,,,7,,,,29,92
104820,note_on,20,0,14,,,,,,,,12,,,,41,92
104820,note_on,20,0,12,,,,,,,,10,,,,65,92
104860,note_off,40,0,11,,,,,,,,8,,,,68,64
104860,note_off,40,0,7,,,,,,,,4,,,,65,64
104860,note_off,40,0,15,,,,,,,,13,,,,29,64
104860,note_off,40,0,8,,,,,,,,5,,,,60,64
104860,note_off,40,0,13,,,,,,,,11,,,,60,64
104860,note_off,40,0,14,,,,,,,,12,,,,41,64
104860,note_off,40,0,9,,,,,,,,6,,,,41,64
104860,note_off,40,0,6,,,,,,,,3,,,,68,64
104860,note_off,40,0,12,,,,,,,,10,,,,65,64
104860,note_off,40,0,10,,,,,,,,7,,,,29,64
104875,note_off,235,0,2,,,,,,,,0,,,,41,64
104875,note_off,0,0,1,,,,,,,,0,,,,60,64
104875,note_off,0,0,1,,,,,,,,0,,,,65,64
104875,note_off,235,0,1,,,,,,,,0,,,,68,64
104875,note_off,0,0,3,,,,,,,,14,,,,29,64
104875,note_off,0,0,2,,,,,,,,0,,,,29,64
104875,note_off,235,0,3,,,,,,,,14,,,,41,64
104880,note_on,20,0,7,,,,,,,,4,,,,68,108
104880,note_on,20,0,10,,,,,,,,7,,,,29,92
104880,note_on,20,0,15,,,,,,,,13,,,,29,92
104880,note_on,5,0,3,,,,,,,,14,,,,29,75
104880,note_on,0,0,3,,,,,,,,14,,,,41,75
104880,note_on,20,0,13,,,,,,,,11,,,,65,92
104880,note_on,20,0,11,,,,,,,,8,,,,72,92
104880,note_on,5,0,2,,,,,,,,0,,,,29,75
104880,note_on,20,0,8,,,,,,,,5,,,,65,92
104880,note_on,5,0,1,,,,,,,,0,,,,65,75
104880,note_on,20,0,9,,,,,,,,6,,,,41,92
104880,note_on,0,0,1,,,,,,,,0,,,,68,75
104880,note_on,0,0,1,,,,,,,,0,,,,72,75
104880,note_on,20,0,6,,,,,,,,3,,,,72,108
104880,note_on,0,0,2,,,,,,,,0,,,,41,75
104880,note_on,20,0,12,,,,,,,,10,,,,68,92
104880,note_on,20,0,14,,,,,,,,12,,,,41,92
104920,note_off,40,0,7,,,,,,,,4,,,,68,64
104920,note_off,40,0,10,,,,,,,,7,,,,29,64
104920,note_off,40,0,9,,,,,,,,6,,,,41,64
104920,note_off,40,0,6,,,,,,,,3,,,,72,64
104920,note_off,40,0,14,,,,,,,,12,,,,41,64
104920,note_off,40,0,12,,,,,,,,10,,,,68,64
104920,note_off,40,0,8,,,,,,,,5,,,,65,64
104920,note_off,40,0,15,,,,,,,,13,,,,29,64
104920,note_off,40,0,13,,,,,,,,11,,,,65,64
104920,note_off,40,0,11,,,,,,,,8,,,,72,64
104940,note_on,20,0,12,,,,,,,,10,,,,68,92
104940,note_on,20,0,15,,,,,,,,13,,,,29,92
104940,note_on,20,0,9,,,,,,,,6,,,,41,92
104940,note_on,20,0,6,,,,,,,,3,,,,72,108
104940,note_on,20,0,7,,,,,,,,4,,,,68,108
104940,note_on,20,0,11,,,,,,,,8,,,,72,92
104940,note_on,20,0,13,,,,,,,,11,,,,65,92
104940,note_on,20,0,10,,,,,,,,7,,,,29,92
104940,note_on,20,0,14,,,,,,,,12,,,,41,92
104940,note_on,20,0,8,,,,,,,,5,,,,65,92
104980,note_off,40,0,8,,,,,,,,5,,,,65,64
104980,note_off,40,0,15,,,,,,,,13,,,,29,64
104980,note_off,40,0,9,,,,,,,,6,,,,41,64
104980,note_off,40,0,12,,,,,,,,10,,,,68,64
104980,note_off,40,0,6,,,,,,,,3,,,,72,64
104980,note_off,40,0,11,,,,,,,,8,,,,72,64
104980,note_off,40,0,10,,,,,,,,7,,,,29,64
104980,note_off,40,0,7,,,,,,,,4,,,,68,64
104980,note_off,40,0,14,,,,,,,,12,,,,41,64
104980,note_off,40,0,13,,,,,,,,11,,,,65,64
105000,note_on,20,0,14,,,,,,,,12,,,,41,92
105000,note_on,20,0,15,,,,,,,,13,,,,29,92
105000,note_on,20,0,8,,,,,,,,5,,,,65,92
105000,note_on,20,0,10,,,,,,,,7,,,,29,92
105000,note_on,20,0,7,,,,,,,,4,,,,68,108
105000,note_on,20,0,6,,,,,,,,3,,,,72,108
105000,note_on,20,0,11,,,,,,,,8,,,,72,92
105000,note_on,20,0,9,,,,,,,,6,,,,41,92
105000,note_on,20,0,12,,,,,,,,10,,,,68,92
105000,note_on,20,0,13,,,,,,,,11,,,,65,92
105040,note_off,40,0,13,,,,,,,,11,,,,65,64
105040,note_off,40,0,7,,,,,,,,4,,,,68,64
105040,note_off,40,0,14,,,,,,,,12,,,,41,64
105040,note_off,40,0,11,,,,,,,,8,,,,72,64
105040,note_off,40,0,12,,,,,,,,10,,,,68,64
105040,note_off,40,0,15,,,,,,,,13,,,,29,64
105040,note_off,40,0,6,,,,,,,,3,,,,72,64
105040,note_off,40,0,8,,,,,,,,5,,,,65,64
105040,note_off,40,0,9,,,,,,,,6,,,,41,64
105040,note_off,40,0,10,,,,,,,,7,,,,29,64
105060,note_on,20,0,12,,,,,,,,10,,,,68,92
105060,note_on,20,0,11,,,,,,,,8,,,,72,92
105060,note_on,20,0,14,,,,,,,,12,,,,41,92
105060,note_on,20,0,13,,,,,,,,11,,,,65,92
105060,note_on,20,0,8,,,,,,,,5,,,,65,92
105060,note_on,20,0,15,,,,,,,,13,,,,29,92
105060,note_on,20,0,6,,,,,,,,3,,,,72,108
105060,note_on,20,0,7,,,,,,,,4,,,,68,108
105060,note_on,20,0,10,,,,,,,,7,,,,29,92
105060,note_on,20,0,9,,,,,,,,6,,,,41,92
105100,note_off,40,0,6,,,,,,,,3,,,,72,64
105100,note_off,40,0,13,,,,,,,,11,,,,65,64
105100,note_off,40,0,14,,,,,,,,12,,,,41,64
105100,note_off,40,0,12,,,,,,,,10,,,,68,64
105100,end_of_track,0,1,12,,,,,,,,,,,,,
105100,note_off,40,0,8,,,,,,,,5,,,,65,64
105100,note_off,40,0,11,,,,,,,,8,,,,72,64
105100,note_off,40,0,7,,,,,,,,4,,,,68,64
105100,note_off,40,0,9,,,,,,,,6,,,,41,64
105100,note_off,40,0,10,,,,,,,,7,,,,29,64
105100,note_off,40,0,15,,,,,,,,13,,,,29,64
105115,note_off,235,0,2,,,,,,,,0,,,,41,64
105115,note_off,0,0,1,,,,,,,,0,,,,65,64
105115,note_off,0,0,1,,,,,,,,0,,,,68,64
105115,note_off,235,0,3,,,,,,,,14,,,,41,64
105115,note_off,0,0,3,,,,,,,,14,,,,29,64
105115,note_off,235,0,1,,,,,,,,0,,,,72,64
105115,note_off,0,0,2,,,,,,,,0,,,,29,64
105120,note_on,20,0,13,,,,,,,,11,,,,60,92
105120,note_on,5,0,3,,,,,,,,14,,,,29,75
105120,note_on,0,0,3,,,,,,,,14,,,,41,75
105120,note_on,20,0,9,,,,,,,,6,,,,41,92
105120,note_on,5,0,2,,,,,,,,0,,,,29,75
105120,note_on,0,0,2,,,,,,,,0,,,,41,75
105120,note_on,20,0,6,,,,,,,,3,,,,80,108
105120,note_on,20,0,14,,,,,,,,12,,,,41,92
105120,note_on,0,0,1,,,,,,,,0,,,,80,75
105120,note_on,0,0,1,,,,,,,,0,,,,77,75
105120,note_on,20,0,10,,,,,,,,7,,,,29,92
105120,note_on,0,0,1,,,,,,,,0,,,,72,75
105120,note_on,20,0,8,,,,,,,,5,,,,60,92
105120,note_on,5,0,1,,,,,,,,0,,,,65,75
105120,note_on,20,0,15,,,,,,,,13,,,,29,92
105120,note_on,20,0,11,,,,,,,,8,,,,80,92
105120,program_change,20,0,7,,,,,,,,4,,,49,,
105120,note_on,0,0,1,,,,,,,,0,,,,68,75
105120,note_on,0,0,7,,,,,,,,4,,,,80,108
105160,note_off,40,0,11,,,,,,,,8,,,,80,64
105160,note_off,40,0,6,,,,,,,,3,,,,80,64
105160,note_off,40,0,7,,,,,,,,4,,,,80,64
105180,note_on,20,0,11,,,,,,,,8,,,,82,92
105180,note_on,20,0,7,,,,,,,,4,,,,82,108
105180,note_on,20,0,6,,,,,,,,3,,,,82,108
105220,note_off,40,0,7,,,,,,,,4,,,,82,64
105220,note_off,40,0,6,,,,,,,,3,,,,82,64
105220,note_off,40,0,11,,,,,,,,8,,,,82,64
105240,note_on,20,0,11,,,,,,,,8,,,,80,92
105240,note_on,20,0,7,,,,,,,,4,,,,80,108
105240,note_on,20,0,6,,,,,,,,3,,,,80,108
105280,note_off,40,0,11,,,,,,,,8,,,,80,64
105280,note_off,40,0,6,,,,,,,,3,,,,80,64
105280,note_off,40,0,7,,,,,,,,4,,,,80,64
105300,note_on,20,0,6,,,,,,,,3,,,,79,108
105300,note_on,20,0,7,,,,,,,,4,,,,79,108
105300,note_on,20,0,11,,,,,,,,8,,,,79,92
105340,note_off,40,0,11,,,,,,,,8,,,,79,64
105340,note_off,40,0,7,,,,,,,,4,,,,79,64
105340,note_off,40,0,6,,,,,,,,3,,,,79,64
105355,note_off,0,0,1,,,,,,,,0,,,,77,64
105355,note_off,235,0,1,,,,,,,,0,,,,80,64
105355,note_off,0,0,1,,,,,,,,0,,,,72,64
105355,note_off,0,0,1,,,,,,,,0,,,,68,64
105355,note_off,0,0,1,,,,,,,,0,,,,65,64
105355,note_off,0,0,3,,,,,,,,14,,,,29,64
105355,note_off,235,0,3,,,,,,,,14,,,,41,64
105355,note_off,0,0,2,,,,,,,,0,,,,29,64
105355,note_off,235,0,2,,,,,,,,0,,,,41,64
105360,note_on,20,0,11,,,,,,,,8,,,,77,92
105360,note_on,20,0,6,,,,,,,,3,,,,77,108
105360,note_on,20,0,7,,,,,,,,4,,,,77,108
105400,note_off,40,0,11,,,,,,,,8,,,,77,64
105400,note_off,40,0,6,,,,,,,,3,,,,77,64
105400,note_off,40,0,7,,,,,,,,4,,,,77,64
105420,note_on,20,0,11,,,,,,,,8,,,,79,92
105420,note_on,20,0,7,,,,,,,,4,,,,79,108
105420,note_on,20,0,6,,,,,,,,3,,,,79,108
105460,note_off,40,0,7,,,,,,,,4,,,,79,64
105460,note_off,40,0,6,,,,,,,,3,,,,79,64
105460,note_off,40,0,11,,,,,,,,8,,,,79,64
105480,note_on,20,0,11,,,,,,,,8,,,,77,92
105480,note_on,20,0,6,,,,,,,,3,,,,77,108
105480,note_on,20,0,7,,,,,,,,4,,,,77,108
105520,note_off,40,0,7,,,,,,,,4,,,,77,64
105520,note_off,400,0,13,,,,,,,,11,,,,60,64
105520,note_off,400,0,9,,,,,,,,6,,,,41,64
105520,note_off,400,0,10,,,,,,,,7,,,,29,64
105520,note_off,400,0,14,,,,,,,,12,,,,41,64
105520,note_off,40,0,6,,,,,,,,3,,,,77,64
105520,note_off,400,0,15,,,,,,,,13,,,,29,64
105520,note_off,400,0,8,,,,,,,,5,,,,60,64
105520,note_off,40,0,11,,,,,,,,8,,,,77,64
105540,note_on,20,0,11,,,,,,,,8,,,,75,92
105540,note_on,20,0,6,,,,,,,,3,,,,75,108
105540,note_on,20,0,7,,,,,,,,4,,,,75,108
105580,note_off,40,0,7,,,,,,,,4,,,,75,64
105580,note_off,40,0,6,,,,,,,,3,,,,75,64
105580,note_off,40,0,11,,,,,,,,8,,,,75,64
105600,note_on,20,0,11,,,,,,,,8,,,,73,92
105600,note_on,20,0,6,,,,,,,,3,,,,73,108
105600,note_on,20,0,7,,,,,,,,4,,,,73,108
105640,note_off,40,0,6,,,,,,,,3,,,,73,64
105640,note_off,40,0,7,,,,,,,,4,,,,73,64
105640,note_off,40,0,11,,,,,,,,8,,,,73,64
105660,note_on,20,0,7,,,,,,,,4,,,,75,108
105660,note_on,20,0,6,,,,,,,,3,,,,75,108
105660,note_on,20,0,11,,,,,,,,8,,,,75,92
105700,note_off,40,0,11,,,,,,,,8,,,,75,64
105700,note_off,40,0,7,,,,,,,,4,,,,75,64
105700,note_off,40,0,6,,,,,,,,3,,,,75,64
105720,note_on,20,0,6,,,,,,,,3,,,,73,108
105720,note_on,20,0,11,,,,,,,,8,,,,73,92
105720,note_on,20,0,7,,,,,,,,4,,,,73,108
105760,note_off,40,0,11,,,,,,,,8,,,,73,64
105760,note_off,40,0,7,,,,,,,,4,,,,73,64
105760,note_off,40,0,6,,,,,,,,3,,,,73,64
105780,note_on,20,0,7,,,,,,,,4,,,,72,108
105780,note_on,20,0,11,,,,,,,,8,,,,72,92
105780,note_on,20,0,6,,,,,,,,3,,,,72,108
105820,note_off,40,0,11,,,,,,,,8,,,,72,64
105820,note_off,40,0,7,,,,,,,,4,,,,72,64
105820,note_off,40,0,6,,,,,,,,3,,,,72,64
105840,note_on,20,0,7,,,,,,,,4,,,,70,108
105840,note_on,20,0,11,,,,,,,,8,,,,70,92
105840,note_on,20,0,6,,,,,,,,3,,,,70,108
105880,note_off,40,0,7,,,,,,,,4,,,,70,64
105880,note_off,40,0,6,,,,,,,,3,,,,70,64
105880,note_off,40,0,11,,,,,,,,8,,,,70,64
105900,note_on,20,0,7,,,,,,,,4,,,,72,108
105900,note_on,20,0,6,,,,,,,,3,,,,72,108
105900,note_on,20,0,11,,,,,,,,8,,,,72,92
105940,note_off,40,0,7,,,,,,,,4,,,,72,64
105940,note_off,40,0,11,,,,,,,,8,,,,72,64
105940,note_off,40,0,6,,,,,,,,3,,,,72,64
105960,note_on,20,0,6,,,,,,,,3,,,,70,108
105960,note_on,20,0,11,,,,,,,,8,,,,70,92
105960,note_on,20,0,7,,,,,,,,4,,,,70,108
106000,note_off,40,0,6,,,,,,,,3,,,,70,64
106000,note_off,40,0,11,,,,,,,,8,,,,70,64
106000,note_off,40,0,7,,,,,,,,4,,,,70,64
106020,note_on,20,0,11,,,,,,,,8,,,,68,92
106020,note_on,20,0,6,,,,,,,,3,,,,68,108
106020,note_on,20,0,7,,,,,,,,4,,,,68,108
106060,note_off,40,0,11,,,,,,,,8,,,,68,64
106060,note_off,40,0,6,,,,,,,,3,,,,68,64
106060,note_off,40,0,7,,,,,,,,4,,,,68,64
106080,note_on,20,0,6,,,,,,,,3,,,,67,108
106080,note_on,20,0,11,,,,,,,,8,,,,67,92
106080,note_on,20,0,7,,,,,,,,4,,,,67,108
106120,note_off,40,0,7,,,,,,,,4,,,,67,64
106120,note_off,40,0,6,,,,,,,,3,,,,67,64
106120,note_off,40,0,11,,,,,,,,8,,,,67,64
106140,note_on,20,0,7,,,,,,,,4,,,,68,108
106140,note_on,20,0,6,,,,,,,,3,,,,68,108
106140,note_on,20,0,11,,,,,,,,8,,,,68,92
106180,note_off,40,0,7,,,,,,,,4,,,,68,64
106180,note_off,40,0,6,,,,,,,,3,,,,68,64
106180,note_off,40,0,11,,,,,,,,8,,,,68,64
106200,note_on,20,0,6,,,,,,,,3,,,,67,108
106200,note_on,20,0,7,,,,,,,,4,,,,67,108
106200,note_on,20,0,11,,,,,,,,8,,,,67,92
106240,note_off,40,0,11,,,,,,,,8,,,,67,64
106240,note_off,40,0,6,,,,,,,,3,,,,67,64
106240,note_off,40,0,7,,,,,,,,4,,,,67,64
106260,note_on,20,0,6,,,,,,,,3,,,,65,108
106260,note_on,20,0,7,,,,,,,,4,,,,65,108
106260,note_on,20,0,11,,,,,,,,8,,,,65,92
106300,note_off,40,0,6,,,,,,,,3,,,,65,64
106300,note_off,40,0,7,,,,,,,,4,,,,65,64
106300,note_off,40,0,11,,,,,,,,8,,,,65,64
106320,note_on,20,0,6,,,,,,,,3,,,,64,108
106320,note_on,20,0,7,,,,,,,,4,,,,64,108
106320,note_on,20,0,11,,,,,,,,8,,,,64,92
106360,note_off,40,0,11,,,,,,,,8,,,,64,64
106360,note_off,40,0,6,,,,,,,,3,,,,64,64
106360,note_off,40,0,7,,,,,,,,4,,,,64,64
106380,note_on,20,0,11,,,,,,,,8,,,,65,92
106380,note_on,20,0,6,,,,,,,,3,,,,65,108
106380,note_on,20,0,7,,,,,,,,4,,,,65,108
106420,note_off,40,0,7,,,,,,,,4,,,,65,64
106420,note_off,40,0,11,,,,,,,,8,,,,65,64
106420,note_off,40,0,6,,,,,,,,3,,,,65,64
106440,note_on,20,0,6,,,,,,,,3,,,,64,108
106440,note_on,20,0,11,,,,,,,,8,,,,64,92
106440,note_on,20,0,7,,,,,,,,4,,,,64,108
106480,note_off,40,0,6,,,,,,,,3,,,,64,64
106480,note_off,40,0,11,,,,,,,,8,,,,64,64
106480,note_off,40,0,7,,,,,,,,4,,,,64,64
106500,note_on,20,0,11,,,,,,,,8,,,,62,92
106500,note_on,20,0,7,,,,,,,,4,,,,62,108
106500,note_on,20,0,6,,,,,,,,3,,,,62,108
106540,note_off,40,0,6,,,,,,,,3,,,,62,64
106540,note_off,40,0,11,,,,,,,,8,,,,62,64
106540,note_off,40,0,7,,,,,,,,4,,,,62,64
106560,note_on,1040,0,15,,,,,,,,13,,,,29,92
106560,note_on,1040,0,13,,,,,,,,11,,,,60,92
106560,note_on,1040,0,9,,,,,,,,6,,,,41,92
106560,note_on,1205,0,3,,,,,,,,14,,,,29,75
106560,note_on,0,0,3,,,,,,,,14,,,,41,75
106560,note_on,1040,0,10,,,,,,,,7,,,,29,92
106560,note_on,1205,0,1,,,,,,,,0,,,,56,75
106560,note_on,0,0,1,,,,,,,,0,,,,61,75
106560,note_on,0,0,1,,,,,,,,0,,,,65,75
106560,note_on,1205,0,2,,,,,,,,0,,,,29,75
106560,note_on,1040,0,8,,,,,,,,5,,,,60,92
106560,note_on,20,0,6,,,,,,,,3,,,,56,108
106560,note_on,1040,0,14,,,,,,,,12,,,,41,92
106560,note_on,20,0,11,,,,,,,,8,,,,56,92
106560,note_on,0,0,2,,,,,,,,0,,,,41,75
106560,note_on,20,0,7,,,,,,,,4,,,,56,108
106600,note_off,40,0,7,,,,,,,,4,,,,56,64
106600,note_off,40,0,15,,,,,,,,13,,,,29,64
106600,note_off,40,0,11,,,,,,,,8,,,,56,64
106600,note_off,40,0,10,,,,,,,,7,,,,29,64
106600,note_off,40,0,14,,,,,,,,12,,,,41,64
106600,note_off,40,0,6,,,,,,,,3,,,,56,64
106600,note_off,40,0,9,,,,,,,,6,,,,41,64
106600,note_off,40,0,13,,,,,,,,11,,,,60,64
106600,note_off,40,0,8,,,,,,,,5,,,,60,64
106620,note_on,20,0,15,,,,,,,,13,,,,29,92
106620,note_on,20,0,8,,,,,,,,5,,,,60,92
106620,note_on,20,0,11,,,,,,,,8,,,,65,92
106620,note_on,20,0,13,,,,,,,,11,,,,60,92
106620,note_on,20,0,14,,,,,,,,12,,,,41,92
106620,note_on,20,0,9,,,,,,,,6,,,,41,92
106620,note_on,20,0,6,,,,,,,,3,,,,65,108
106620,note_on,20,0,10,,,,,,,,7,,,,29,92
106620,note_on,20,0,7,,,,,,,,4,,,,65,108
106660,note_off,40,0,6,,,,,,,,3,,,,65,64
106660,note_off,40,0,13,,,,,,,,11,,,,60,64
106660,note_off,40,0,9,,,,,,,,6,,,,41,64
106660,note_off,40,0,8,,,,,,,,5,,,,60,64
106660,note_off,40,0,7,,,,,,,,4,,,,65,64
106660,note_off,40,0,15,,,,,,,,13,,,,29,64
106660,note_off,40,0,14,,,,,,,,12,,,,41,64
106660,note_off,40,0,11,,,,,,,,8,,,,65,64
106660,note_off,40,0,10,,,,,,,,7,,,,29,64
106680,note_on,20,0,9,,,,,,,,6,,,,41,92
106680,note_on,20,0,14,,,,,,,,12,,,,41,92
106680,note_on,20,0,15,,,,,,,,13,,,,29,92
106680,note_on,20,0,11,,,,,,,,8,,,,65,92
106680,note_on,20,0,13,,,,,,,,11,,,,60,92
106680,note_on,20,0,7,,,,,,,,4,,,,65,108
106680,note_on,20,0,6,,,,,,,,3,,,,65,108
106680,note_on,20,0,8,,,,,,,,5,,,,60,92
106680,note_on,20,0,10,,,,,,,,7,,,,29,92
106720,note_off,40,0,7,,,,,,,,4,,,,65,64
106720,note_off,40,0,15,,,,,,,,13,,,,29,64
106720,note_off,40,0,6,,,,,,,,3,,,,65,64
106720,note_off,40,0,10,,,,,,,,7,,,,29,64
106720,note_off,40,0,8,,,,,,,,5,,,,60,64
106720,note_off,40,0,9,,,,,,,,6,,,,41,64
106720,note_off,40,0,11,,,,,,,,8,,,,65,64
106720,note_off,40,0,13,,,,,,,,11,,,,60,64
106720,note_off,40,0,14,,,,,,,,12,,,,41,64
106740,note_on,20,0,10,,,,,,,,7,,,,29,92
106740,note_on,20,0,7,,,,,,,,4,,,,65,108
106740,note_on,20,0,14,,,,,,,,12,,,,41,92
106740,note_on,20,0,9,,,,,,,,6,,,,41,92
106740,note_on,20,0,6,,,,,,,,3,,,,65,108
106740,note_on,20,0,15,,,,,,,,13,,,,29,92
106740,note_on,20,0,13,,,,,,,,11,,,,60,92
106740,note_on,20,0,8,,,,,,,,5,,,,60,92
106740,note_on,20,0,11,,,,,,,,8,,,,65,92
106780,note_off,40,0,7,,,,,,,,4,,,,65,64
106780,note_off,40,0,15,,,,,,,,13,,,,29,64
106780,note_off,40,0,9,,,,,,,,6,,,,41,64
106780,note_off,40,0,14,,,,,,,,12,,,,41,64
106780,note_off,40,0,13,,,,,,,,11,,,,60,64
106780,note_off,40,0,11,,,,,,,,8,,,,65,64
106780,note_off,40,0,10,,,,,,,,7,,,,29,64
106780,note_off,40,0,8,,,,,,,,5,,,,60,64
106780,note_off,40,0,6,,,,,,,,3,,,,65,64
106795,note_off,235,0,1,,,,,,,,0,,,,65,64
106795,note_off,0,0,1,,,,,,,,0,,,,61,64
106795,note_off,0,0,1,,,,,,,,0,,,,56,64
106795,note_off,0,0,2,,,,,,,,0,,,,29,64
106795,note_off,0,0,3,,,,,,,,14,,,,29,64
106795,note_off,235,0,3,,,,,,,,14,,,,41,64
106795,note_off,235,0,2,,,,,,,,0,,,,41,64
106800,note_on,5,0,3,,,,,,,,14,,,,29,75
106800,note_on,20,0,14,,,,,,,,12,,,,41,92
106800,note_on,20,0,15,,,,,,,,13,,,,29,92
106800,note_on,0,0,1,,,,,,,,0,,,,65,75
106800,note_on,20,0,7,,,,,,,,4,,,,56,108
106800,note_on,20,0,10,,,,,,,,7,,,,29,92
106800,note_on,0,0,3,,,,,,,,14,,,,41,75
106800,note_on,20,0,11,,,,,,,,8,,,,56,92
106800,note_on,0,0,1,,,,,,,,0,,,,61,75
106800,note_on,20,0,8,,,,,,,,5,,,,60,92
106800,note_on,5,0,2,,,,,,,,0,,,,29,75
106800,note_on,0,0,2,,,,,,,,0,,,,41,75
106800,note_on,20,0,9,,,,,,,,6,,,,41,92
106800,note_on,5,0,1,,,,,,,,0,,,,56,75
106800,note_on,20,0,6,,,,,,,,3,,,,56,108
106800,note_on,20,0,13,,,,,,,,11,,,,60,92
106840,note_off,40,0,14,,,,,,,,12,,,,41,64
106840,note_off,40,0,8,,,,,,,,5,,,,60,64
106840,note_off,40,0,15,,,,,,,,13,,,,29,64
106840,note_off,40,0,10,,,,,,,,7,,,,29,64
106840,note_off,40,0,6,,,,,,,,3,,,,56,64
106840,note_off,40,0,7,,,,,,,,4,,,,56,64
106840,note_off,40,0,13,,,,,,,,11,,,,60,64
106840,note_off,40,0,9,,,,,,,,6,,,,41,64
106840,note_off,40,0,11,,,,,,,,8,,,,56,64
106860,note_on,20,0,13,,,,,,,,11,,,,60,92
106860,note_on,20,0,11,,,,,,,,8,,,,65,92
106860,note_on,20,0,10,,,,,,,,7,,,,29,92
106860,note_on,20,0,8,,,,,,,,5,,,,60,92
106860,note_on,20,0,9,,,,,,,,6,,,,41,92
106860,note_on,20,0,15,,,,,,,,13,,,,29,92
106860,note_on,20,0,14,,,,,,,,12,,,,41,92
106860,note_on,20,0,7,,,,,,,,4,,,,65,108
106860,note_on,20,0,6,,,,,,,,3,,,,65,108
106900,note_off,40,0,14,,,,,,,,12,,,,41,64
106900,note_off,40,0,9,,,,,,,,6,,,,41,64
106900,note_off,40,0,6,,,,,,,,3,,,,65,64
106900,note_off,40,0,10,,,,,,,,7,,,,29,64
106900,note_off,40,0,11,,,,,,,,8,,,,65,64
106900,note_off,40,0,7,,,,,,,,4,,,,65,64
106900,note_off,40,0,13,,,,,,,,11,,,,60,64
106900,note_off,40,0,8,,,,,,,,5,,,,60,64
106900,note_off,40,0,15,,,,,,,,13,,,,29,64
106920,note_on,20,0,10,,,,,,,,7,,,,29,92
106920,note_on,20,0,8,,,,,,,,5,,,,60,92
106920,note_on,20,0,11,,,,,,,,8,,,,65,92
106920,note_on,20,0,7,,,,,,,,4,,,,65,108
106920,note_on,20,0,14,,,,,,,,12,,,,41,92
106920,note_on,20,0,9,,,,,,,,6,,,,41,92
106920,note_on,20,0,15,,,,,,,,13,,,,29,92
106920,note_on,20,0,6,,,,,,,,3,,,,65,108
106920,note_on,20,0,13,,,,,,,,11,,,,60,92
106960,note_off,40,0,8,,,,,,,,5,,,,60,64
106960,note_off,40,0,14,,,,,,,,12,,,,41,64
106960,note_off,40,0,15,,,,,,,,13,,,,29,64
106960,note_off,40,0,10,,,,,,,,7,,,,29,64
106960,note_off,40,0,6,,,,,,,,3,,,,65,64
106960,note_off,40,0,11,,,,,,,,8,,,,65,64
106960,note_off,40,0,9,,,,,,,,6,,,,41,64
106960,note_off,40,0,7,,,,,,,,4,,,,65,64
106960,note_off,40,0,13,,,,,,,,11,,,,60,64
106980,note_on,20,0,15,,,,,,,,13,,,,29,92
106980,note_on,20,0,13,,,,,,,,11,,,,60,92
106980,note_on,20,0,10,,,,,,,,7,,,,29,92
106980,note_on,20,0,6,,,,,,,,3,,,,65,108
106980,note_on,20,0,9,,,,,,,,6,,,,41,92
106980,note_on,20,0,14,,,,,,,,12,,,,41,92
106980,note_on,20,0,7,,,,,,,,4,,,,65,108
106980,note_on,20,0,11,,,,,,,,8,,,,65,92
106980,note_on,20,0,8,,,,,,,,5,,,,60,92
107020,note_off,40,0,9,,,,,,,,6,,,,41,64
107020,note_off,40,0,14,,,,,,,,12,,,,41,64
107020,note_off,40,0,6,,,,,,,,3,,,,65,64
107020,note_off,40,0,13,,,,,,,,11,,,,60,64
107020,note_off,40,0,8,,,,,,,,5,,,,60,64
107020,note_off,40,0,11,,,,,,,,8,,,,65,64
107020,note_off,40,0,15,,,,,,,,13,,,,29,64
107020,note_off,40,0,10,,,,,,,,7,,,,29,64
107020,note_off,40,0,7,,,,,,,,4,,,,65,64
107035,note_off,235,0,1,,,,,,,,0,,,,65,64
107035,note_off,0,0,1,,,,,,,,0,,,,61,64
107035,note_off,235,0,2,,,,,,,,0,,,,41,64
107035,note_off,0,0,3,,,,,,,,14,,,,29,64
107035,note_off,0,0,2,,,,,,,,0,,,,29,64
107035,note_off,0,0,1,,,,,,,,0,,,,56,64
107035,note_off,235,0,3,,,,,,,,14,,,,41,64
107040,note_on,0,0,1,,,,,,,,0,,,,65,75
107040,note_on,0,0,2,,,,,,,,0,,,,41,75
107040,note_on,20,0,13,,,,,,,,11,,,,60,92
107040,note_on,5,0,3,,,,,,,,14,,,,29,75
107040,note_on,5,0,1,,,,,,,,0,,,,56,75
107040,note_on,20,0,15,,,,,,,,13,,,,29,92
107040,note_on,20,0,14,,,,,,,,12,,,,41,92
107040,note_on,20,0,9,,,,,,,,6,,,,41,92
107040,note_on,20,0,11,,,,,,,,8,,,,56,92
107040,note_on,20,0,6,,,,,,,,3,,,,56,108
107040,note_on,0,0,1,,,,,,,,0,,,,61,75
107040,note_on,5,0,2,,,,,,,,0,,,,29,75
107040,note_on,0,0,3,,,,,,,,14,,,,41,75
107040,note_on,20,0,7,,,,,,,,4,,,,56,108
107040,note_on,20,0,10,,,,,,,,7,,,,29,92
107040,note_on,20,0,8,,,,,,,,5,,,,60,92
107080,note_off,40,0,14,,,,,,,,12,,,,41,64
107080,note_off,40,0,9,,,,,,,,6,,,,41,64
107080,note_off,40,0,13,,,,,,,,11,,,,60,64
107080,note_off,40,0,7,,,,,,,,4,,,,56,64
107080,note_off,40,0,10,,,,,,,,7,,,,29,64
107080,note_off,40,0,6,,,,,,,,3,,,,56,64
107080,note_off,40,0,15,,,,,,,,13,,,,29,64
107080,note_off,40,0,11,,,,,,,,8,,,,56,64
107080,note_off,40,0,8,,,,,,,,5,,,,60,64
107100,note_on,20,0,10,,,,,,,,7,,,,29,92
107100,note_on,20,0,9,,,,,,,,6,,,,41,92
107100,note_on,20,0,15,,,,,,,,13,,,,29,92
107100,note_on,20,0,14,,,,,,,,12,,,,41,92
107100,note_on,20,0,8,,,,,,,,5,,,,60,92
107100,note_on,20,0,11,,,,,,,,8,,,,65,92
107100,note_on,20,0,6,,,,,,,,3,,,,65,108
107100,note_on,20,0,7,,,,,,,,4,,,,65,108
107100,note_on,20,0,13,,,,,,,,11,,,,60,92
107140,note_off,40,0,7,,,,,,,,4,,,,65,64
107140,note_off,40,0,11,,,,,,,,8,,,,65,64
107140,note_off,40,0,6,,,,,,,,3,,,,65,64
107140,note_off,40,0,9,,,,,,,,6,,,,41,64
107140,note_off,40,0,10,,,,,,,,7,,,,29,64
107140,note_off,40,0,15,,,,,,,,13,,,,29,64
107140,note_off,40,0,13,,,,,,,,11,,,,60,64
107140,note_off,40,0,8,,,,,,,,5,,,,60,64
107140,note_off,40,0,14,,,,,,,,12,,,,41,64
107160,note_on,20,0,11,,,,,,,,8,,,,65,92
107160,note_on,20,0,6,,,,,,,,3,,,,65,108
107160,note_on,20,0,14,,,,,,,,12,,,,41,92
107160,note_on,20,0,13,,,,,,,,11,,,,60,92
107160,note_on,20,0,7,,,,,,,,4,,,,65,108
107160,note_on,20,0,10,,,,,,,,7,,,,29,92
107160,note_on,20,0,8,,,,,,,,5,,,,60,92
107160,note_on,20,0,9,,,,,,,,6,,,,41,92
107160,note_on,20,0,15,,,,,,,,13,,,,29,92
107200,note_off,40,0,15,,,,,,,,13,,,,29,64
107200,note_off,40,0,9,,,,,,,,6,,,,41,64
107200,note_off,40,0,7,,,,,,,,4,,,,65,64
107200,note_off,40,0,10,,,,,,,,7,,,,29,64
107200,note_off,40,0,11,,,,,,,,8,,,,65,64
107200,note_off,40,0,8,,,,,,,,5,,,,60,64
107200,note_off,40,0,6,,,,,,,,3,,,,65,64
107200,note_off,40,0,13,,,,,,,,11,,,,60,64
107200,note_off,40,0,14,,,,,,,,12,,,,41,64
107220,note_on,20,0,7,,,,,,,,4,,,,65,108
107220,note_on,20,0,11,,,,,,,,8,,,,65,92
107220,note_on,20,0,13,,,,,,,,11,,,,60,92
107220,note_on,20,0,6,,,,,,,,3,,,,65,108
107220,note_on,20,0,15,,,,,,,,13,,,,29,92
107220,note_on,20,0,9,,,,,,,,6,,,,41,92
107220,note_on,20,0,14,,,,,,,,12,,,,41,92
107220,note_on,20,0,8,,,,,,,,5,,,,60,92
107220,note_on,20,0,10,,,,,,,,7,,,,29,92
107260,note_off,40,0,8,,,,,,,,5,,,,60,64
107260,note_off,40,0,6,,,,,,,,3,,,,65,64
107260,note_off,40,0,9,,,,,,,,6,,,,41,64
107260,note_off,40,0,11,,,,,,,,8,,,,65,64
107260,note_off,40,0,10,,,,,,,,7,,,,29,64
107260,note_off,40,0,13,,,,,,,,11,,,,60,64
107260,note_off,40,0,7,,,,,,,,4,,,,65,64
107260,note_off,40,0,14,,,,,,,,12,,,,41,64
107260,note_off,40,0,15,,,,,,,,13,,,,29,64
107275,note_off,0,0,3,,,,,,,,14,,,,29,64
107275,note_off,0,0,2,,,,,,,,0,,,,29,64
107275,note_off,235,0,2,,,,,,,,0,,,,41,64
107275,note_off,0,0,1,,,,,,,,0,,,,56,64
107275,note_off,235,0,1,,,,,,,,0,,,,65,64
107275,note_off,0,0,1,,,,,,,,0,,,,61,64
107275,note_off,235,0,3,,,,,,,,14,,,,41,64
107280,note_on,20,0,15,,,,,,,,13,,,,36,92
107280,note_on,5,0,1,,,,,,,,0,,,,55,75
107280,note_on,0,0,1,,,,,,,,0,,,,60,75
107280,note_on,20,0,8,,,,,,,,5,,,,60,92
107280,note_on,0,0,3,,,,,,,,14,,,,36,75
107280,note_on,5,0,3,,,,,,,,14,,,,24,75
107280,note_on,0,0,1,,,,,,,,0,,,,65,75
107280,note_on,20,0,13,,,,,,,,11,,,,60,92
107280,note_on,20,0,6,,,,,,,,3,,,,55,108
107280,note_on,20,0,7,,,,,,,,4,,,,55,108
107280,note_on,20,0,9,,,,,,,,6,,,,48,92
107280,note_on,5,0,2,,,,,,,,0,,,,36,75
107280,note_on,20,0,11,,,,,,,,8,,,,55,92
107280,note_on,20,0,14,,,,,,,,12,,,,48,92
107280,note_on,0,0,2,,,,,,,,0,,,,48,75
107280,note_on,20,0,10,,,,,,,,7,,,,36,92
107320,note_off,40,0,9,,,,,,,,6,,,,48,64
107320,note_off,40,0,7,,,,,,,,4,,,,55,64
107320,note_off,40,0,10,,,,,,,,7,,,,36,64
107320,note_off,40,0,13,,,,,,,,11,,,,60,64
107320,note_off,40,0,11,,,,,,,,8,,,,55,64
107320,note_off,40,0,8,,,,,,,,5,,,,60,64
107320,note_off,40,0,6,,,,,,,,3,,,,55,64
107320,note_off,40,0,15,,,,,,,,13,,,,36,64
107320,note_off,40,0,14,,,,,,,,12,,,,48,64
107340,note_on,20,0,9,,,,,,,,6,,,,48,92
107340,note_on,20,0,14,,,,,,,,12,,,,48,92
107340,note_on,20,0,13,,,,,,,,11,,,,60,92
107340,note_on,20,0,15,,,,,,,,13,,,,36,92
107340,note_on,20,0,7,,,,,,,,4,,,,65,108
107340,note_on,20,0,11,,,,,,,,8,,,,65,92
107340,note_on,20,0,6,,,,,,,,3,,,,65,108
107340,note_on,20,0,10,,,,,,,,7,,,,36,92
107340,note_on,20,0,8,,,,,,,,5,,,,60,92
107380,note_off,40,0,6,,,,,,,,3,,,,65,64
107380,note_off,40,0,13,,,,,,,,11,,,,60,64
107380,note_off,40,0,15,,,,,,,,13,,,,36,64
107380,note_off,40,0,11,,,,,,,,8,,,,65,64
107380,note_off,40,0,10,,,,,,,,7,,,,36,64
107380,note_off,40,0,7,,,,,,,,4,,,,65,64
107380,note_off,40,0,8,,,,,,,,5,,,,60,64
107380,note_off,40,0,14,,,,,,,,12,,,,48,64
107380,note_off,40,0,9,,,,,,,,6,,,,48,64
107400,note_on,20,0,13,,,,,,,,11,,,,60,92
107400,note_on,20,0,7,,,,,,,,4,,,,65,108
107400,note_on,20,0,8,,,,,,,,5,,,,60,92
107400,note_on,20,0,10,,,,,,,,7,,,,36,92
107400,note_on,20,0,15,,,,,,,,13,,,,36,92
107400,note_on,20,0,9,,,,,,,,6,,,,48,92
107400,note_on,20,0,14,,,,,,,,12,,,,48,92
107400,note_on,20,0,6,,,,,,,,3,,,,65,108
107400,note_on,20,0,11,,,,,,,,8,,,,65,92
107440,note_off,40,0,9,,,,,,,,6,,,,48,64
107440,note_off,40,0,13,,,,,,,,11,,,,60,64
107440,note_off,40,0,8,,,,,,,,5,,,,60,64
107440,note_off,40,0,14,,,,,,,,12,,,,48,64
107440,note_off,40,0,7,,,,,,,,4,,,,65,64
107440,note_off,40,0,6,,,,,,,,3,,,,65,64
107440,note_off,40,0,11,,,,,,,,8,,,,65,64
107440,note_off,40,0,10,,,,,,,,7,,,,36,64
107440,note_off,40,0,15,,,,,,,,13,,,,36,64
107460,note_on,20,0,9,,,,,,,,6,,,,48,92
107460,note_on,20,0,11,,,,,,,,8,,,,65,92
107460,note_on,20,0,14,,,,,,,,12,,,,48,92
107460,note_on,20,0,8,,,,,,,,5,,,,60,92
107460,note_on,20,0,10,,,,,,,,7,,,,36,92
107460,note_on,20,0,6,,,,,,,,3,,,,65,108
107460,note_on,20,0,13,,,,,,,,11,,,,60,92
107460,note_on,20,0,7,,,,,,,,4,,,,65,108
107460,note_on,20,0,15,,,,,,,,13,,,,36,92
107500,note_off,40,0,11,,,,,,,,8,,,,65,64
107500,note_off,40,0,6,,,,,,,,3,,,,65,64
107500,note_off,40,0,8,,,,,,,,5,,,,60,64
107500,note_off,40,0,14,,,,,,,,12,,,,48,64
107500,note_off,40,0,15,,,,,,,,13,,,,36,64
107500,note_off,40,0,7,,,,,,,,4,,,,65,64
107500,note_off,40,0,10,,,,,,,,7,,,,36,64
107500,note_off,40,0,13,,,,,,,,11,,,,60,64
107500,note_off,40,0,9,,,,,,,,6,,,,48,64
107515,note_off,0,0,1,,,,,,,,0,,,,55,64
107515,note_off,0,0,1,,,,,,,,0,,,,60,64
107515,note_off,235,0,1,,,,,,,,0,,,,65,64
107515,note_off,0,0,2,,,,,,,,0,,,,36,64
107515,note_off,235,0,3,,,,,,,,14,,,,36,64
107515,note_off,0,0,3,,,,,,,,14,,,,24,64
107515,note_off,235,0,2,,,,,,,,0,,,,48,64
107520,note_on,5,0,2,,,,,,,,0,,,,36,75
107520,note_on,20,0,7,,,,,,,,4,,,,55,108
107520,note_on,0,0,2,,,,,,,,0,,,,48,75
107520,note_on,20,0,11,,,,,,,,8,,,,55,92
107520,note_on,20,0,15,,,,,,,,13,,,,36,92
107520,note_on,5,0,3,,,,,,,,14,,,,24,75
107520,note_on,0,0,1,,,,,,,,0,,,,60,75
107520,note_on,5,0,1,,,,,,,,0,,,,55,75
107520,note_on,0,0,3,,,,,,,,14,,,,36,75
107520,note_on,20,0,8,,,,,,,,5,,,,60,92
107520,note_on,20,0,10,,,,,,,,7,,,,36,92
107520,note_on,20,0,6,,,,,,,,3,,,,55,108
107520,note_on,20,0,14,,,,,,,,12,,,,48,92
107520,note_on,20,0,9,,,,,,,,6,,,,48,92
107520,note_on,20,0,13,,,,,,,,11,,,,60,92
107520,note_on,0,0,1,,,,,,,,0,,,,65,75
107560,note_off,40,0,8,,,,,,,,5,,,,60,64
107560,note_off,40,0,9,,,,,,,,6,,,,48,64
107560,note_off,40,0,11,,,,,,,,8,,,,55,64
107560,note_off,40,0,10,,,,,,,,7,,,,36,64
107560,note_off,40,0,13,,,,,,,,11,,,,60,64
107560,note_off,40,0,14,,,,,,,,12,,,,48,64
107560,note_off,40,0,6,,,,,,,,3,,,,55,64
107560,note_off,40,0,15,,,,,,,,13,,,,36,64
107560,note_off,40,0,7,,,,,,,,4,,,,55,64
107580,note_on,20,0,6,,,,,,,,3,,,,65,108
107580,note_on,20,0,13,,,,,,,,11,,,,60,92
107580,note_on,20,0,8,,,,,,,,5,,,,60,92
107580,note_on,20,0,10,,,,,,,,7,,,,36,92
107580,note_on,20,0,9,,,,,,,,6,,,,48,92
107580,note_on,20,0,7,,,,,,,,4,,,,65,108
107580,note_on,20,0,11,,,,,,,,8,,,,65,92
107580,note_on,20,0,14,,,,,,,,12,,,,48,92
107580,note_on,20,0,15,,,,,,,,13,,,,36,92
107620,note_off,40,0,14,,,,,,,,12,,,,48,64
107620,note_off,40,0,11,,,,,,,,8,,,,65,64
107620,note_off,40,0,9,,,,,,,,6,,,,48,64
107620,note_off,40,0,8,,,,,,,,5,,,,60,64
107620,note_off,40,0,13,,,,,,,,11,,,,60,64
107620,note_off,40,0,15,,,,,,,,13,,,,36,64
107620,note_off,40,0,10,,,,,,,,7,,,,36,64
107620,note_off,40,0,6,,,,,,,,3,,,,65,64
107620,note_off,40,0,7,,,,,,,,4,,,,65,64
107640,note_on,20,0,9,,,,,,,,6,,,,48,92
107640,note_on,20,0,8,,,,,,,,5,,,,60,92
107640,note_on,20,0,6,,,,,,,,3,,,,65,108
107640,note_on,20,0,15,,,,,,,,13,,,,36,92
107640,note_on,20,0,13,,,,,,,,11,,,,60,92
107640,note_on,20,0,14,,,,,,,,12,,,,48,92
107640,note_on,20,0,11,,,,,,,,8,,,,65,92
107640,note_on,20,0,7,,,,,,,,4,,,,65,108
107640,note_on,20,0,10,,,,,,,,7,,,,36,92
107680,note_off,40,0,6,,,,,,,,3,,,,65,64
107680,note_off,40,0,8,,,,,,,,5,,,,60,64
107680,note_off,40,0,13,,,,,,,,11,,,,60,64
107680,note_off,40,0,11,,,,,,,,8,,,,65,64
107680,note_off,40,0,9,,,,,,,,6,,,,48,64
107680,note_off,40,0,7,,,,,,,,4,,,,65,64
107680,note_off,40,0,10,,,,,,,,7,,,,36,64
107680,note_off,40,0,14,,,,,,,,12,,,,48,64
107680,note_off,40,0,15,,,,,,,,13,,,,36,64
107700,note_on,20,0,14,,,,,,,,12,,,,48,92
107700,note_on,20,0,13,,,,,,,,11,,,,60,92
107700,note_on,20,0,8,,,,,,,,5,,,,60,92
107700,note_on,20,0,6,,,,,,,,3,,,,65,108
107700,note_on,20,0,15,,,,,,,,13,,,,36,92
107700,note_on,20,0,7,,,,,,,,4,,,,65,108
107700,note_on,20,0,10,,,,,,,,7,,,,36,92
107700,note_on,20,0,11,,,,,,,,8,,,,65,92
107700,note_on,20,0,9,,,,,,,,6,,,,48,92
107740,note_off,40,0,11,,,,,,,,8,,,,65,64
107740,note_off,40,0,14,,,,,,,,12,,,,48,64
107740,note_off,40,0,10,,,,,,,,7,,,,36,64
107740,note_off,40,0,9,,,,,,,,6,,,,48,64
107740,note_off,40,0,6,,,,,,,,3,,,,65,64
107740,note_off,40,0,15,,,,,,,,13,,,,36,64
107740,note_off,40,0,13,,,,,,,,11,,,,60,64
107740,note_off,40,0,8,,,,,,,,5,,,,60,64
107740,note_off,40,0,7,,,,,,,,4,,,,65,64
107755,note_off,0,0,2,,,,,,,,0,,,,36,64
107755,note_off,0,0,1,,,,,,,,0,,,,55,64
107755,note_off,235,0,2,,,,,,,,0,,,,48,64
107755,note_off,235,0,3,,,,,,,,14,,,,36,64
107755,note_off,0,0,1,,,,,,,,0,,,,60,64
107755,note_off,235,0,1,,,,,,,,0,,,,65,64
107755,note_off,0,0,3,,,,,,,,14,,,,24,64
107760,note_on,20,0,7,,,,,,,,4,,,,55,108
107760,note_on,20,0,6,,,,,,,,3,,,,55,108
107760,note_on,20,0,8,,,,,,,,5,,,,60,92
107760,note_on,20,0,15,,,,,,,,13,,,,36,92
107760,note_on,5,0,2,,,,,,,,0,,,,36,75
107760,note_on,5,0,3,,,,,,,,14,,,,24,75
107760,note_on,20,0,14,,,,,,,,12,,,,48,92
107760,note_on,0,0,1,,,,,,,,0,,,,60,75
107760,note_on,20,0,10,,,,,,,,7,,,,36,92
107760,note_on,20,0,9,,,,,,,,6,,,,48,92
107760,note_on,0,0,1,,,,,,,,0,,,,65,75
107760,note_on,0,0,3,,,,,,,,14,,,,36,75
107760,note_on,20,0,11,,,,,,,,8,,,,55,92
107760,note_on,5,0,1,,,,,,,,0,,,,55,75
107760,note_on,20,0,13,,,,,,,,11,,,,60,92
107760,note_on,0,0,2,,,,,,,,0,,,,48,75
107800,note_off,40,0,6,,,,,,,,3,,,,55,64
107800,note_off,40,0,9,,,,,,,,6,,,,48,64
107800,note_off,40,0,8,,,,,,,,5,,,,60,64
107800,note_off,40,0,13,,,,,,,,11,,,,60,64
107800,note_off,40,0,15,,,,,,,,13,,,,36,64
107800,note_off,40,0,10,,,,,,,,7,,,,36,64
107800,note_off,40,0,7,,,,,,,,4,,,,55,64
107800,note_off,40,0,14,,,,,,,,12,,,,48,64
107800,note_off,40,0,11,,,,,,,,8,,,,55,64
107820,note_on,20,0,11,,,,,,,,8,,,,65,92
107820,note_on,20,0,15,,,,,,,,13,,,,36,92
107820,note_on,20,0,9,,,,,,,,6,,,,48,92
107820,note_on,20,0,7,,,,,,,,4,,,,65,108
107820,note_on,20,0,8,,,,,,,,5,,,,60,92
107820,note_on,20,0,6,,,,,,,,3,,,,65,108
107820,note_on,20,0,13,,,,,,,,11,,,,60,92
107820,note_on,20,0,14,,,,,,,,12,,,,48,92
107820,note_on,20,0,10,,,,,,,,7,,,,36,92
107860,note_off,40,0,7,,,,,,,,4,,,,65,64
107860,note_off,40,0,8,,,,,,,,5,,,,60,64
107860,note_off,40,0,10,,,,,,,,7,,,,36,64
107860,note_off,40,0,13,,,,,,,,11,,,,60,64
107860,note_off,40,0,9,,,,,,,,6,,,,48,64
107860,note_off,40,0,6,,,,,,,,3,,,,65,64
107860,note_off,40,0,11,,,,,,,,8,,,,65,64
107860,note_off,40,0,14,,,,,,,,12,,,,48,64
107860,note_off,40,0,15,,,,,,,,13,,,,36,64
107880,note_on,20,0,15,,,,,,,,13,,,,36,92
107880,note_on,20,0,6,,,,,,,,3,,,,65,108
107880,note_on,20,0,9,,,,,,,,6,,,,48,92
107880,note_on,20,0,8,,,,,,,,5,,,,60,92
107880,note_on,20,0,10,,,,,,,,7,,,,36,92
107880,note_on,20,0,7,,,,,,,,4,,,,65,108
107880,note_on,20,0,11,,,,,,,,8,,,,65,92
107880,note_on,20,0,13,,,,,,,,11,,,,60,92
107880,note_on,20,0,14,,,,,,,,12,,,,48,92
107920,note_off,40,0,10,,,,,,,,7,,,,36,64
107920,note_off,40,0,9,,,,,,,,6,,,,48,64
107920,note_off,40,0,14,,,,,,,,12,,,,48,64
107920,note_off,40,0,8,,,,,,,,5,,,,60,64
107920,note_off,40,0,7,,,,,,,,4,,,,65,64
107920,note_off,40,0,11,,,,,,,,8,,,,65,64
107920,note_off,40,0,15,,,,,,,,13,,,,36,64
107920,note_off,40,0,6,,,,,,,,3,,,,65,64
107920,note_off,40,0,13,,,,,,,,11,,,,60,64
107940,note_on,20,0,9,,,,,,,,6,,,,48,92
107940,note_on,20,0,11,,,,,,,,8,,,,65,92
107940,note_on,20,0,10,,,,,,,,7,,,,36,92
107940,note_on,20,0,15,,,,,,,,13,,,,36,92
107940,note_on,20,0,14,,,,,,,,12,,,,48,92
107940,note_on,20,0,6,,,,,,,,3,,,,65,108
107940,note_on,20,0,7,,,,,,,,4,,,,65,108
107940,note_on,20,0,8,,,,,,,,5,,,,60,92
107940,note_on,20,0,13,,,,,,,,11,,,,60,92
107980,note_off,40,0,13,,,,,,,,11,,,,60,64
107980,note_off,40,0,6,,,,,,,,3,,,,65,64
107980,note_off,40,0,8,,,,,,,,5,,,,60,64
107980,note_off,40,0,9,,,,,,,,6,,,,48,64
107980,note_off,40,0,15,,,,,,,,13,,,,36,64
107980,note_off,40,0,7,,,,,,,,4,,,,65,64
107980,note_off,40,0,11,,,,,,,,8,,,,65,64
107980,note_off,40,0,10,,,,,,,,7,,,,36,64
107980,note_off,40,0,14,,,,,,,,12,,,,48,64
107995,note_off,235,0,1,,,,,,,,0,,,,65,64
107995,note_off,0,0,1,,,,,,,,0,,,,55,64
107995,note_off,235,0,2,,,,,,,,0,,,,48,64
107995,note_off,0,0,2,,,,,,,,0,,,,36,64
107995,note_off,235,0,3,,,,,,,,14,,,,36,64
107995,note_off,0,0,3,,,,,,,,14,,,,24,64
107995,note_off,0,0,1,,,,,,,,0,,,,60,64
108000,note_on,0,0,2,,,,,,,,0,,,,48,75
108000,note_on,20,0,10,,,,,,,,7,,,,36,92
108000,note_on,5,0,2,,,,,,,,0,,,,36,75
108000,note_on,20,0,7,,,,,,,,4,,,,55,108
108000,note_on,20,0,6,,,,,,,,3,,,,55,108
108000,set_tempo,20880,1,0,821917,,,,,,,,,,,,
108000,note_on,20,0,14,,,,,,,,12,,,,48,92
108000,note_on,20,0,8,,,,,,,,5,,,,60,92
108000,note_on,20,0,13,,,,,,,,11,,,,60,92
108000,note_on,20,0,15,,,,,,,,13,,,,36,92
108000,note_on,0,0,1,,,,,,,,0,,,,60,75
108000,note_on,5,0,1,,,,,,,,0,,,,55,75
108000,note_on,5,0,3,,,,,,,,14,,,,24,75
108000,note_on,0,0,3,,,,,,,,14,,,,36,75
108000,note_on,20,0,9,,,,,,,,6,,,,48,92
108000,note_on,0,0,1,,,,,,,,0,,,,64,75
108000,note_on,20,0,11,,,,,,,,8,,,,55,92
108040,note_off,40,0,13,,,,,,,,11,,,,60,64
108040,note_off,40,0,15,,,,,,,,13,,,,36,64
108040,note_off,40,0,7,,,,,,,,4,,,,55,64
108040,note_off,40,0,10,,,,,,,,7,,,,36,64
108040,note_off,40,0,11,,,,,,,,8,,,,55,64
108040,note_off,40,0,8,,,,,,,,5,,,,60,64
108040,note_off,40,0,14,,,,,,,,12,,,,48,64
108040,note_off,40,0,9,,,,,,,,6,,,,48,64
108040,note_off,40,0,6,,,,,,,,3,,,,55,64
108060,note_on,20,0,15,,,,,,,,13,,,,36,92
108060,note_on,20,0,7,,,,,,,,4,,,,64,108
108060,note_on,20,0,14,,,,,,,,12,,,,48,92
108060,note_on,20,0,13,,,,,,,,11,,,,60,92
108060,note_on,20,0,9,,,,,,,,6,,,,48,92
108060,note_on,20,0,6,,,,,,,,3,,,,64,108
108060,note_on,20,0,11,,,,,,,,8,,,,64,92
108060,note_on,20,0,10,,,,,,,,7,,,,36,92
108060,note_on,20,0,8,,,,,,,,5,,,,60,92
108100,note_off,40,0,15,,,,,,,,13,,,,36,64
108100,note_off,40,0,14,,,,,,,,12,,,,48,64
108100,note_off,40,0,11,,,,,,,,8,,,,64,64
108100,note_off,40,0,6,,,,,,,,3,,,,64,64
108100,note_off,40,0,13,,,,,,,,11,,,,60,64
108100,note_off,40,0,8,,,,,,,,5,,,,60,64
108100,note_off,40,0,9,,,,,,,,6,,,,48,64
108100,note_off,40,0,10,,,,,,,,7,,,,36,64
108100,note_off,40,0,7,,,,,,,,4,,,,64,64
108120,note_on,20,0,15,,,,,,,,13,,,,36,92
108120,note_on,20,0,6,,,,,,,,3,,,,64,108
108120,note_on,20,0,13,,,,,,,,11,,,,60,92
108120,note_on,20,0,11,,,,,,,,8,,,,64,92
108120,note_on,20,0,9,,,,,,,,6,,,,48,92
108120,note_on,20,0,10,,,,,,,,7,,,,36,92
108120,note_on,20,0,14,,,,,,,,12,,,,48,92
108120,note_on,20,0,8,,,,,,,,5,,,,60,92
108120,note_on,20,0,7,,,,,,,,4,,,,64,108
108160,note_off,40,0,8,,,,,,,,5,,,,60,64
108160,note_off,40,0,7,,,,,,,,4,,,,64,64
108160,note_off,40,0,10,,,,,,,,7,,,,36,64
108160,note_off,40,0,15,,,,,,,,13,,,,36,64
108160,note_off,40,0,14,,,,,,,,12,,,,48,64
108160,note_off,40,0,9,,,,,,,,6,,,,48,64
108160,note_off,40,0,11,,,,,,,,8,,,,64,64
108160,note_off,40,0,13,,,,,,,,11,,,,60,64
108160,note_off,40,0,6,,,,,,,,3,,,,64,64
108180,note_on,20,0,10,,,,,,,,7,,,,36,92
108180,note_on,20,0,15,,,,,,,,13,,,,36,92
108180,note_on,20,0,13,,,,,,,,11,,,,60,92
108180,note_on,20,0,7,,,,,,,,4,,,,64,108
108180,note_on,20,0,6,,,,,,,,3,,,,64,108
108180,note_on,20,0,11,,,,,,,,8,,,,64,92
108180,note_on,20,0,14,,,,,,,,12,,,,48,92
108180,note_on,20,0,9,,,,,,,,6,,,,48,92
108180,note_on,20,0,8,,,,,,,,5,,,,60,92
108220,note_off,40,0,10,,,,,,,,7,,,,36,64
108220,note_off,40,0,7,,,,,,,,4,,,,64,64
108220,note_off,40,0,11,,,,,,,,8,,,,64,64
108220,note_off,40,0,6,,,,,,,,3,,,,64,64
108220,note_off,40,0,13,,,,,,,,11,,,,60,64
108220,note_off,40,0,14,,,,,,,,12,,,,48,64
108220,note_off,40,0,15,,,,,,,,13,,,,36,64
108220,note_off,40,0,9,,,,,,,,6,,,,48,64
108220,note_off,40,0,8,,,,,,,,5,,,,60,64
108235,note_off,0,0,3,,,,,,,,14,,,,24,64
108235,note_off,235,0,2,,,,,,,,0,,,,48,64
108235,note_off,235,0,3,,,,,,,,14,,,,36,64
108235,note_off,0,0,2,,,,,,,,0,,,,36,64
108235,note_off,235,0,1,,,,,,,,0,,,,64,64
108235,note_off,0,0,1,,,,,,,,0,,,,60,64
108235,note_off,0,0,1,,,,,,,,0,,,,55,64
108240,note_on,0,0,1,,,,,,,,0,,,,60,75
108240,note_on,0,0,1,,,,,,,,0,,,,64,75
108240,note_on,20,0,9,,,,,,,,6,,,,48,92
108240,note_on,20,0,14,,,,,,,,12,,,,48,92
108240,note_on,0,0,2,,,,,,,,0,,,,48,75
108240,note_on,20,0,6,,,,,,,,3,,,,55,108
108240,note_on,20,0,8,,,,,,,,5,,,,60,92
108240,set_tempo,240,1,0,937500,,,,,,,,,,,,
108240,note_on,5,0,2,,,,,,,,0,,,,36,75
108240,note_on,20,0,11,,,,,,,,8,,,,55,92
108240,note_on,0,0,3,,,,,,,,14,,,,36,75
108240,note_on,20,0,15,,,,,,,,13,,,,36,92
108240,note_on,5,0,1,,,,,,,,0,,,,55,75
108240,note_on,20,0,10,,,,,,,,7,,,,36,92
108240,note_on,20,0,7,,,,,,,,4,,,,55,108
108240,note_on,5,0,3,,,,,,,,14,,,,24,75
108240,note_on,20,0,13,,,,,,,,11,,,,60,92
108280,note_off,40,0,8,,,,,,,,5,,,,60,64
108280,note_off,40,0,11,,,,,,,,8,,,,55,64
108280,note_off,40,0,13,,,,,,,,11,,,,60,64
108280,note_off,40,0,10,,,,,,,,7,,,,36,64
108280,note_off,40,0,14,,,,,,,,12,,,,48,64
108280,note_off,40,0,6,,,,,,,,3,,,,55,64
108280,note_off,40,0,9,,,,,,,,6,,,,48,64
108280,note_off,40,0,15,,,,,,,,13,,,,36,64
108280,note_off,40,0,7,,,,,,,,4,,,,55,64
108300,note_on,20,0,8,,,,,,,,5,,,,60,92
108300,note_on,20,0,9,,,,,,,,6,,,,48,92
108300,note_on,20,0,11,,,,,,,,8,,,,64,92
108300,note_on,20,0,15,,,,,,,,13,,,,36,92
108300,note_on,20,0,6,,,,,,,,3,,,,64,108
108300,note_on,20,0,14,,,,,,,,12,,,,48,92
108300,note_on,20,0,10,,,,,,,,7,,,,36,92
108300,note_on,20,0,7,,,,,,,,4,,,,64,108
108300,note_on,20,0,13,,,,,,,,11,,,,60,92
108340,note_off,40,0,10,,,,,,,,7,,,,36,64
108340,note_off,40,0,7,,,,,,,,4,,,,64,64
108340,note_off,40,0,9,,,,,,,,6,,,,48,64
108340,note_off,40,0,15,,,,,,,,13,,,,36,64
108340,note_off,40,0,8,,,,,,,,5,,,,60,64
108340,note_off,40,0,11,,,,,,,,8,,,,64,64
108340,note_off,40,0,13,,,,,,,,11,,,,60,64
108340,note_off,40,0,6,,,,,,,,3,,,,64,64
108340,note_off,40,0,14,,,,,,,,12,,,,48,64
108360,note_on,20,0,15,,,,,,,,13,,,,36,92
108360,note_on,20,0,13,,,,,,,,11,,,,60,92
108360,note_on,20,0,6,,,,,,,,3,,,,64,108
108360,note_on,20,0,7,,,,,,,,4,,,,64,108
108360,note_on,20,0,9,,,,,,,,6,,,,48,92
108360,note_on,20,0,14,,,,,,,,12,,,,48,92
108360,note_on,20,0,11,,,,,,,,8,,,,64,92
108360,note_on,20,0,8,,,,,,,,5,,,,60,92
108360,note_on,20,0,10,,,,,,,,7,,,,36,92
108400,note_off,40,0,9,,,,,,,,6,,,,48,64
108400,note_off,40,0,6,,,,,,,,3,,,,64,64
108400,note_off,40,0,14,,,,,,,,12,,,,48,64
108400,note_off,40,0,11,,,,,,,,8,,,,64,64
108400,note_off,40,0,13,,,,,,,,11,,,,60,64
108400,note_off,40,0,8,,,,,,,,5,,,,60,64
108400,note_off,40,0,15,,,,,,,,13,,,,36,64
108400,note_off,40,0,10,,,,,,,,7,,,,36,64
108400,note_off,40,0,7,,,,,,,,4,,,,64,64
108420,note_on,20,0,15,,,,,,,,13,,,,36,92
108420,note_on,20,0,14,,,,,,,,12,,,,48,92
108420,note_on,20,0,13,,,,,,,,11,,,,60,92
108420,note_on,20,0,8,,,,,,,,5,,,,60,92
108420,note_on,20,0,11,,,,,,,,8,,,,64,92
108420,note_on,20,0,7,,,,,,,,4,,,,64,108
108420,note_on,20,0,10,,,,,,,,7,,,,36,92
108420,note_on,20,0,6,,,,,,,,3,,,,64,108
108420,note_on,20,0,9,,,,,,,,6,,,,48,92
108460,note_off,40,0,8,,,,,,,,5,,,,60,64
108460,note_off,40,0,11,,,,,,,,8,,,,64,64
108460,note_off,40,0,15,,,,,,,,13,,,,36,64
108460,note_off,40,0,13,,,,,,,,11,,,,60,64
108460,note_off,40,0,10,,,,,,,,7,,,,36,64
108460,note_off,40,0,14,,,,,,,,12,,,,48,64
108460,note_off,40,0,7,,,,,,,,4,,,,64,64
108460,note_off,40,0,6,,,,,,,,3,,,,64,64
108460,note_off,40,0,9,,,,,,,,6,,,,48,64
108475,note_off,235,0,3,,,,,,,,14,,,,36,64
108475,note_off,0,0,3,,,,,,,,14,,,,24,64
108475,note_off,235,0,2,,,,,,,,0,,,,48,64
108475,note_off,0,0,1,,,,,,,,0,,,,55,64
108475,note_off,0,0,1,,,,,,,,0,,,,60,64
108475,note_off,0,0,2,,,,,,,,0,,,,36,64
108475,note_off,235,0,1,,,,,,,,0,,,,64,64
108480,note_on,0,0,1,,,,,,,,0,,,,64,75
108480,note_on,20,0,9,,,,,,,,6,,,,48,92
108480,note_on,20,0,13,,,,,,,,11,,,,60,92
108480,note_on,20,0,8,,,,,,,,5,,,,60,92
108480,note_on,20,0,6,,,,,,,,3,,,,55,108
108480,note_on,0,0,1,,,,,,,,0,,,,60,75
108480,note_on,20,0,11,,,,,,,,8,,,,55,92
108480,set_tempo,240,1,0,1071428,,,,,,,,,,,,
108480,note_on,20,0,14,,,,,,,,12,,,,48,92
108480,note_on,20,0,7,,,,,,,,4,,,,55,108
108480,note_on,5,0,1,,,,,,,,0,,,,55,75
108480,note_on,20,0,15,,,,,,,,13,,,,36,92
108480,note_on,0,0,2,,,,,,,,0,,,,48,75
108480,note_on,5,0,2,,,,,,,,0,,,,36,75
108480,note_on,20,0,10,,,,,,,,7,,,,36,92
108480,note_on,0,0,3,,,,,,,,14,,,,36,75
108480,note_on,5,0,3,,,,,,,,14,,,,24,75
108520,note_off,40,0,9,,,,,,,,6,,,,48,64
108520,note_off,40,0,7,,,,,,,,4,,,,55,64
108520,note_off,40,0,10,,,,,,,,7,,,,36,64
108520,note_off,40,0,14,,,,,,,,12,,,,48,64
108520,note_off,40,0,6,,,,,,,,3,,,,55,64
108520,note_off,40,0,13,,,,,,,,11,,,,60,64
108520,note_off,40,0,8,,,,,,,,5,,,,60,64
108520,note_off,40,0,15,,,,,,,,13,,,,36,64
108520,note_off,40,0,11,,,,,,,,8,,,,55,64
108540,note_on,20,0,7,,,,,,,,4,,,,64,108
108540,note_on,20,0,8,,,,,,,,5,,,,60,92
108540,note_on,20,0,6,,,,,,,,3,,,,64,108
108540,note_on,20,0,10,,,,,,,,7,,,,36,92
108540,note_on,20,0,13,,,,,,,,11,,,,60,92
108540,note_on,20,0,11,,,,,,,,8,,,,64,92
108540,note_on,20,0,14,,,,,,,,12,,,,48,92
108540,note_on,20,0,15,,,,,,,,13,,,,36,92
108540,note_on,20,0,9,,,,,,,,6,,,,48,92
108580,note_off,40,0,11,,,,,,,,8,,,,64,64
108580,note_off,40,0,6,,,,,,,,3,,,,64,64
108580,note_off,40,0,14,,,,,,,,12,,,,48,64
108580,note_off,40,0,15,,,,,,,,13,,,,36,64
108580,note_off,40,0,9,,,,,,,,6,,,,48,64
108580,note_off,40,0,8,,,,,,,,5,,,,60,64
108580,note_off,40,0,10,,,,,,,,7,,,,36,64
108580,note_off,40,0,13,,,,,,,,11,,,,60,64
108580,note_off,40,0,7,,,,,,,,4,,,,64,64
108600,note_on,20,0,14,,,,,,,,12,,,,48,92
108600,note_on,20,0,7,,,,,,,,4,,,,64,108
108600,note_on,20,0,10,,,,,,,,7,,,,36,92
108600,note_on,20,0,8,,,,,,,,5,,,,60,92
108600,note_on,20,0,9,,,,,,,,6,,,,48,92
108600,note_on,20,0,15,,,,,,,,13,,,,36,92
108600,note_on,20,0,13,,,,,,,,11,,,,60,92
108600,note_on,20,0,11,,,,,,,,8,,,,64,92
108600,note_on,20,0,6,,,,,,,,3,,,,64,108
108640,note_off,40,0,7,,,,,,,,4,,,,64,64
108640,note_off,40,0,11,,,,,,,,8,,,,64,64
108640,note_off,40,0,9,,,,,,,,6,,,,48,64
108640,note_off,40,0,15,,,,,,,,13,,,,36,64
108640,note_off,40,0,8,,,,,,,,5,,,,60,64
108640,note_off,40,0,10,,,,,,,,7,,,,36,64
108640,note_off,40,0,14,,,,,,,,12,,,,48,64
108640,note_off,40,0,13,,,,,,,,11,,,,60,64
108640,note_off,40,0,6,,,,,,,,3,,,,64,64
108660,note_on,20,0,6,,,,,,,,3,,,,64,108
108660,note_on,20,0,8,,,,,,,,5,,,,60,92
108660,note_on,20,0,11,,,,,,,,8,,,,64,92
108660,note_on,20,0,10,,,,,,,,7,,,,36,92
108660,note_on,20,0,7,,,,,,,,4,,,,64,108
108660,note_on,20,0,15,,,,,,,,13,,,,36,92
108660,note_on,20,0,9,,,,,,,,6,,,,48,92
108660,note_on,20,0,14,,,,,,,,12,,,,48,92
108660,note_on,20,0,13,,,,,,,,11,,,,60,92
108700,note_off,40,0,14,,,,,,,,12,,,,48,64
108700,note_off,40,0,7,,,,,,,,4,,,,64,64
108700,note_off,40,0,10,,,,,,,,7,,,,36,64
108700,note_off,40,0,15,,,,,,,,13,,,,36,64
108700,note_off,40,0,6,,,,,,,,3,,,,64,64
108700,note_off,40,0,8,,,,,,,,5,,,,60,64
108700,note_off,40,0,13,,,,,,,,11,,,,60,64
108700,note_off,40,0,9,,,,,,,,6,,,,48,64
108700,note_off,40,0,11,,,,,,,,8,,,,64,64
108715,note_off,0,0,1,,,,,,,,0,,,,55,64
108715,note_off,0,0,3,,,,,,,,14,,,,24,64
108715,note_off,235,0,2,,,,,,,,0,,,,48,64
108715,note_off,0,0,2,,,,,,,,0,,,,36,64
108715,note_off,235,0,3,,,,,,,,14,,,,36,64
108715,note_off,0,0,1,,,,,,,,0,,,,60,64
108715,note_off,235,0,1,,,,,,,,0,,,,64,64
108720,note_on,20,0,13,,,,,,,,11,,,,56,92
108720,note_on,20,0,15,,,,,,,,13,,,,29,92
108720,note_on,20,0,6,,,,,,,,3,,,,65,108
108720,note_on,20,0,14,,,,,,,,12,,,,41,92
108720,note_on,0,0,1,,,,,,,,0,,,,60,75
108720,note_on,20,0,10,,,,,,,,7,,,,29,92
108720,note_on,20,0,9,,,,,,,,6,,,,41,92
108720,note_on,20,0,8,,,,,,,,5,,,,56,92
108720,note_on,20,0,11,,,,,,,,8,,,,65,92
108720,note_on,0,0,3,,,,,,,,14,,,,41,75
108720,note_on,5,0,3,,,,,,,,14,,,,29,75
108720,note_on,5,0,1,,,,,,,,0,,,,56,75
108720,end_of_track,0,1,0,,,,,,,,,,,,,
108720,note_on,0,0,7,,,,,,,,4,,,,65,108
108720,program_change,20,0,7,,,,,,,,4,,,49,,
108720,set_tempo,240,1,0,1333333,,,,,,,,,,,,
108720,note_on,0,0,1,,,,,,,,0,,,,65,75
108720,note_on,0,0,2,,,,,,,,0,,,,41,75
108720,note_on,5,0,2,,,,,,,,0,,,,29,75
109120,end_of_track,0,1,2,,,,,,,,,,,,,
109120,note_off,400,0,1,,,,,,,,0,,,,65,64
109120,note_off,0,0,1,,,,,,,,0,,,,60,64
109120,note_off,0,0,1,,,,,,,,0,,,,56,64
109120,end_of_track,0,1,13,,,,,,,,,,,,,
109120,note_off,400,0,13,,,,,,,,11,,,,56,64
109120,note_off,400,0,11,,,,,,,,8,,,,65,64
109120,note_off,0,0,2,,,,,,,,0,,,,29,64
109120,end_of_track,0,1,3,,,,,,,,,,,,,
109120,note_off,0,0,3,,,,,,,,14,,,,29,64
109120,end_of_track,0,1,11,,,,,,,,,,,,,
109120,end_of_track,0,1,15,,,,,,,,,,,,,
109120,note_off,400,0,14,,,,,,,,12,,,,41,64
109120,end_of_track,0,1,1,,,,,,,,,,,,,
109120,note_off,400,0,15,,,,,,,,13,,,,29,64
109120,note_off,400,0,2,,,,,,,,0,,,,41,64
109120,note_off,400,0,3,,,,,,,,14,,,,41,64
109120,end_of_track,0,1,14,,,,,,,,,,,,,
109360,note_off,640,0,10,,,,,,,,7,,,,29,64
109360,end_of_track,0,1,10,,,,,,,,,,,,,
109360,end_of_track,0,1,9,,,,,,,,,,,,,
109360,end_of_track,0,1,6,,,,,,,,,,,,,
109360,note_off,640,0,8,,,,,,,,5,,,,56,64
109360,note_off,640,0,7,,,,,,,,4,,,,65,64
109360,end_of_track,0,1,7,,,,,,,,,,,,,
109360,note_off,640,0,6,,,,,,,,3,,,,65,64
109360,note_off,640,0,9,,,,,,,,6,,,,41,64
109360,end_of_track,0,1,8,,,,,,,,,,,,,
