tick,type,time,meta,track,tempo,numerator,denominator,clocks_per_click,notated_32nd_notes_per_beat,key,port,channel,control,value,program,note,velocity
0,track_name,0,1,0,,,,,,,,,,,,,
0,program_change,0,0,12,,,,,,,,11,,,50,,
0,control_change,0,0,12,,,,,,,,11,91,127,,,
0,control_change,0,0,12,,,,,,,,11,10,63,,,
0,control_change,0,0,12,,,,,,,,11,7,127,,,
0,channel_prefix,0,1,12,,,,,,,,11,,,,,
0,midi_port,0,1,12,,,,,,,0,,,,,,
0,track_name,0,1,3,,,,,,,,,,,,,
0,midi_port,0,1,3,,,,,,,0,,,,,,
0,channel_prefix,0,1,3,,,,,,,,1,,,,,
0,midi_port,0,1,13,,,,,,,0,,,,,,
0,control_change,0,0,3,,,,,,,,1,7,127,,,
0,control_change,0,0,3,,,,,,,,1,91,127,,,
0,program_change,0,0,3,,,,,,,,1,,,48,,
0,channel_prefix,0,1,6,,,,,,,,4,,,,,
0,program_change,0,0,11,,,,,,,,10,,,50,,
0,control_change,0,0,11,,,,,,,,10,91,127,,,
0,control_change,0,0,11,,,,,,,,10,10,32,,,
0,control_change,0,0,11,,,,,,,,10,7,127,,,
0,channel_prefix,0,1,11,,,,,,,,10,,,,,
0,midi_port,0,1,11,,,,,,,0,,,,,,
0,control_change,0,0,3,,,,,,,,1,10,64,,,
0,midi_port,0,1,15,,,,,,,0,,,,,,
0,channel_prefix,0,1,13,,,,,,,,12,,,,,
0,control_change,0,0,13,,,,,,,,12,10,95,,,
0,channel_prefix,0,1,1,,,,,,,,0,,,,,
0,control_change,0,0,1,,,,,,,,0,7,127,,,
0,control_change,0,0,1,,,,,,,,0,10,6,,,
0,control_change,0,0,1,,,,,,,,0,91,127,,,
0,program_change,0,0,1,,,,,,,,0,,,6,,
0,program_change,0,0,14,,,,,,,,13,,,50,,
0,control_change,0,0,14,,,,,,,,13,91,127,,,
0,control_change,0,0,14,,,,,,,,13,10,127,,,
0,control_change,0,0,14,,,,,,,,13,7,127,,,
0,control_change,0,0,13,,,,,,,,12,7,127,,,
0,channel_prefix,0,1,14,,,,,,,,13,,,,,
0,track_name,0,1,2,,,,,,,,,,,,,
0,midi_port,0,1,2,,,,,,,0,,,,,,
0,channel_prefix,0,1,2,,,,,,,,0,,,,,
0,control_change,0,0,2,,,,,,,,0,7,127,,,
0,control_change,0,0,2,,,,,,,,0,10,6,,,
0,control_change,0,0,2,,,,,,,,0,91,127,,,
0,program_change,0,0,2,,,,,,,,0,,,6,,
0,program_change,0,0,13,,,,,,,,12,,,50,,
0,control_change,0,0,13,,,,,,,,12,91,127,,,
0,midi_port,0,1,14,,,,,,,0,,,,,,
0,midi_port,0,1,1,,,,,,,0,,,,,,
0,channel_prefix,0,1,15,,,,,,,,14,,,,,
0,control_change,0,0,15,,,,,,,,14,10,6,,,
0,control_change,0,0,9,,,,,,,,7,10,127,,,
0,control_change,0,0,9,,,,,,,,7,7,127,,,
0,channel_prefix,0,1,9,,,,,,,,7,,,,,
0,midi_port,0,1,9,,,,,,,0,,,,,,
0,program_change,0,0,8,,,,,,,,6,,,48,,
0,control_change,0,0,8,,,,,,,,6,91,127,,,
0,control_change,0,0,8,,,,,,,,6,10,95,,,
0,control_change,0,0,8,,,,,,,,6,7,127,,,
0,channel_prefix,0,1,8,,,,,,,,6,,,,,
0,control_change,0,0,9,,,,,,,,7,91,127,,,
0,midi_port,0,1,8,,,,,,,0,,,,,,
0,control_change,0,0,7,,,,,,,,5,91,127,,,
0,control_change,0,0,7,,,,,,,,5,10,63,,,
0,control_change,0,0,7,,,,,,,,5,7,127,,,
0,channel_prefix,0,1,7,,,,,,,,5,,,,,
0,midi_port,0,1,7,,,,,,,0,,,,,,
0,program_change,0,0,6,,,,,,,,4,,,48,,
0,control_change,0,0,6,,,,,,,,4,91,127,,,
0,control_change,0,0,6,,,,,,,,4,10,32,,,
0,control_change,0,0,6,,,,,,,,4,7,127,,,
0,program_change,0,0,7,,,,,,,,5,,,48,,
0,control_change,0,0,15,,,,,,,,14,7,127,,,
0,program_change,0,0,9,,,,,,,,7,,,48,,
0,control_change,0,0,5,,,,,,,,3,91,127,,,
0,control_change,0,0,15,,,,,,,,14,91,127,,,
0,program_change,0,0,15,,,,,,,,14,,,32,,
0,program_change,0,0,10,,,,,,,,8,,,50,,
0,control_change,0,0,10,,,,,,,,8,91,127,,,
0,control_change,0,0,10,,,,,,,,8,10,1,,,
0,control_change,0,0,10,,,,,,,,8,7,127,,,
0,channel_prefix,0,1,10,,,,,,,,8,,,,,
0,midi_port,0,1,10,,,,,,,0,,,,,,
0,track_name,0,1,4,,,,,,,,,,,,,
0,program_change,0,0,5,,,,,,,,3,,,48,,
0,midi_port,0,1,4,,,,,,,0,,,,,,
0,control_change,0,0,4,,,,,,,,2,7,127,,,
0,control_change,0,0,4,,,,,,,,2,10,64,,,
0,control_change,0,0,4,,,,,,,,2,91,127,,,
0,program_change,0,0,4,,,,,,,,2,,,40,,
0,track_name,0,1,5,,,,,,,,,,,,,
0,midi_port,0,1,5,,,,,,,0,,,,,,
0,channel_prefix,0,1,5,,,,,,,,3,,,,,
0,control_change,0,0,5,,,,,,,,3,7,127,,,
0,control_change,0,0,5,,,,,,,,3,10,1,,,
0,channel_prefix,0,1,4,,,,,,,,2,,,,,
0,track_name,0,1,1,,,,,,,,,,,,,
0,midi_port,0,1,6,,,,,,,0,,,,,,
0,copyright,0,1,0,,,,,,,,,,,,,
0,set_tempo,0,1,0,500000,,,,,,,,,,,,
0,time_signature,0,1,0,,3,8,36,8,,,,,,,,
0,key_signature,0,1,0,,,,,,Bb,,,,,,,
120,set_tempo,120,1,0,1500000,,,,,,,,,,,,
360,note_on,360,0,14,,,,,,,,13,,,,43,30
360,note_on,360,0,9,,,,,,,,7,,,,43,30
360,note_on,360,0,15,,,,,,,,14,,,,43,30
360,note_on,360,0,11,,,,,,,,10,,,,79,30
360,note_on,360,0,5,,,,,,,,3,,,,82,45
360,note_on,360,0,13,,,,,,,,12,,,,55,30
360,note_on,360,0,2,,,,,,,,0,,,,55,30
360,note_on,360,0,7,,,,,,,,5,,,,74,30
360,note_on,360,0,10,,,,,,,,8,,,,82,45
360,note_on,360,0,6,,,,,,,,4,,,,79,45
360,note_on,360,0,12,,,,,,,,11,,,,74,30
360,note_on,360,0,8,,,,,,,,6,,,,55,30
595,note_off,235,0,15,,,,,,,,14,,,,43,64
600,note_on,0,0,2,,,,,,,,0,,,,50,30
600,note_off,240,0,12,,,,,,,,11,,,,74,64
600,note_on,0,0,8,,,,,,,,6,,,,50,30
600,note_on,0,0,12,,,,,,,,11,,,,74,30
600,note_off,240,0,8,,,,,,,,6,,,,55,64
600,note_off,240,0,5,,,,,,,,3,,,,82,64
600,note_off,240,0,2,,,,,,,,0,,,,55,64
600,note_on,0,0,11,,,,,,,,10,,,,78,30
600,note_off,240,0,11,,,,,,,,10,,,,79,64
600,note_on,0,0,9,,,,,,,,7,,,,38,30
600,note_off,240,0,7,,,,,,,,5,,,,74,64
600,note_off,240,0,9,,,,,,,,7,,,,43,64
600,note_on,5,0,15,,,,,,,,14,,,,38,30
600,note_off,240,0,14,,,,,,,,13,,,,43,64
600,note_on,0,0,13,,,,,,,,12,,,,50,30
600,note_off,240,0,13,,,,,,,,12,,,,55,64
600,note_on,0,0,10,,,,,,,,8,,,,81,45
600,note_off,240,0,10,,,,,,,,8,,,,82,64
600,note_on,0,0,5,,,,,,,,3,,,,81,45
600,note_on,0,0,7,,,,,,,,5,,,,74,30
600,note_on,0,0,14,,,,,,,,13,,,,38,30
600,note_on,0,0,6,,,,,,,,4,,,,78,45
600,note_off,240,0,6,,,,,,,,4,,,,79,64
835,note_off,235,0,15,,,,,,,,14,,,,38,64
840,note_off,240,0,13,,,,,,,,12,,,,50,64
840,note_off,240,0,12,,,,,,,,11,,,,74,64
840,note_off,240,0,14,,,,,,,,13,,,,38,64
840,note_off,240,0,11,,,,,,,,10,,,,78,64
840,note_off,240,0,10,,,,,,,,8,,,,81,64
840,note_off,240,0,7,,,,,,,,5,,,,74,64
840,note_off,240,0,6,,,,,,,,4,,,,78,64
840,note_off,240,0,5,,,,,,,,3,,,,81,64
840,note_off,240,0,9,,,,,,,,7,,,,38,64
840,note_off,240,0,8,,,,,,,,6,,,,50,64
840,note_off,240,0,2,,,,,,,,0,,,,50,64
1080,note_on,240,0,5,,,,,,,,3,,,,70,45
1080,note_on,240,0,11,,,,,,,,10,,,,67,30
1080,note_on,245,0,15,,,,,,,,14,,,,43,30
1080,note_on,240,0,12,,,,,,,,11,,,,62,30
1080,note_on,240,0,2,,,,,,,,0,,,,43,30
1080,note_on,240,0,13,,,,,,,,12,,,,43,30
1080,note_on,240,0,8,,,,,,,,6,,,,43,30
1080,note_on,240,0,7,,,,,,,,5,,,,62,30
1080,note_on,240,0,9,,,,,,,,7,,,,31,30
1080,note_on,240,0,14,,,,,,,,13,,,,31,30
1080,note_on,240,0,10,,,,,,,,8,,,,70,45
1080,note_on,240,0,6,,,,,,,,4,,,,67,45
1315,note_off,235,0,15,,,,,,,,14,,,,43,64
1320,note_on,0,0,10,,,,,,,,8,,,,69,45
1320,note_on,0,0,14,,,,,,,,13,,,,26,30
1320,note_off,240,0,10,,,,,,,,8,,,,70,64
1320,note_off,240,0,11,,,,,,,,10,,,,67,64
1320,note_on,0,0,9,,,,,,,,7,,,,26,30
1320,note_on,0,0,7,,,,,,,,5,,,,62,30
1320,note_off,240,0,8,,,,,,,,6,,,,43,64
1320,note_off,240,0,12,,,,,,,,11,,,,62,64
1320,note_on,0,0,12,,,,,,,,11,,,,62,30
1320,note_on,0,0,5,,,,,,,,3,,,,69,45
1320,note_off,240,0,5,,,,,,,,3,,,,70,64
1320,note_on,5,0,15,,,,,,,,14,,,,38,30
1320,note_on,0,0,11,,,,,,,,10,,,,66,30
1320,note_on,0,0,8,,,,,,,,6,,,,38,30
1320,note_off,240,0,2,,,,,,,,0,,,,43,64
1320,note_on,0,0,2,,,,,,,,0,,,,38,30
1320,note_off,240,0,9,,,,,,,,7,,,,31,64
1320,note_off,240,0,7,,,,,,,,5,,,,62,64
1320,note_on,0,0,6,,,,,,,,4,,,,66,45
1320,note_off,240,0,6,,,,,,,,4,,,,67,64
1320,note_on,0,0,13,,,,,,,,12,,,,38,30
1320,note_off,240,0,14,,,,,,,,13,,,,31,64
1320,note_off,240,0,13,,,,,,,,12,,,,43,64
1555,note_off,235,0,15,,,,,,,,14,,,,38,64
1560,note_off,240,0,11,,,,,,,,10,,,,66,64
1560,note_off,240,0,5,,,,,,,,3,,,,69,64
1560,note_off,240,0,12,,,,,,,,11,,,,62,64
1560,note_off,240,0,6,,,,,,,,4,,,,66,64
1560,note_off,240,0,7,,,,,,,,5,,,,62,64
1560,note_off,240,0,13,,,,,,,,12,,,,38,64
1560,note_off,240,0,8,,,,,,,,6,,,,38,64
1560,note_off,240,0,14,,,,,,,,13,,,,26,64
1560,note_off,240,0,10,,,,,,,,8,,,,69,64
1560,note_off,240,0,9,,,,,,,,7,,,,26,64
1560,note_off,240,0,2,,,,,,,,0,,,,38,64
1800,note_on,240,0,11,,,,,,,,10,,,,69,30
1800,note_on,240,0,14,,,,,,,,13,,,,38,30
1800,note_on,240,0,7,,,,,,,,5,,,,66,30
1800,note_on,245,0,15,,,,,,,,14,,,,50,30
1800,note_on,240,0,6,,,,,,,,4,,,,69,45
1800,note_on,240,0,5,,,,,,,,3,,,,72,45
1800,note_on,240,0,2,,,,,,,,0,,,,50,30
1800,note_on,240,0,9,,,,,,,,7,,,,38,30
1800,note_on,240,0,10,,,,,,,,8,,,,72,45
1800,note_on,240,0,13,,,,,,,,12,,,,50,30
1800,note_on,240,0,8,,,,,,,,6,,,,50,30
1800,note_on,240,0,12,,,,,,,,11,,,,66,30
1920,note_off,120,0,6,,,,,,,,4,,,,69,64
1920,note_on,0,0,11,,,,,,,,10,,,,70,30
1920,note_off,120,0,10,,,,,,,,8,,,,72,64
1920,note_on,0,0,10,,,,,,,,8,,,,74,45
1920,note_off,120,0,5,,,,,,,,3,,,,72,64
1920,note_on,0,0,5,,,,,,,,3,,,,74,45
1920,note_off,120,0,11,,,,,,,,10,,,,69,64
1920,note_on,0,0,6,,,,,,,,4,,,,70,45
2035,note_off,115,0,5,,,,,,,,3,,,,74,64
2035,note_off,115,0,11,,,,,,,,10,,,,70,64
2035,note_off,115,0,6,,,,,,,,4,,,,70,64
2035,note_off,115,0,10,,,,,,,,8,,,,74,64
2035,note_off,235,0,15,,,,,,,,14,,,,50,64
2040,note_on,0,0,2,,,,,,,,0,,,,38,30
2040,note_off,240,0,2,,,,,,,,0,,,,50,64
2040,note_on,5,0,5,,,,,,,,3,,,,75,45
2040,note_on,5,0,6,,,,,,,,4,,,,72,45
2040,note_on,0,0,13,,,,,,,,12,,,,38,30
2040,note_off,240,0,13,,,,,,,,12,,,,50,64
2040,note_on,5,0,10,,,,,,,,8,,,,75,45
2040,note_on,5,0,15,,,,,,,,14,,,,38,30
2040,note_off,240,0,14,,,,,,,,13,,,,38,64
2040,note_off,240,0,8,,,,,,,,6,,,,50,64
2040,note_on,5,0,11,,,,,,,,10,,,,72,30
2040,note_off,240,0,9,,,,,,,,7,,,,38,64
2040,note_on,0,0,7,,,,,,,,5,,,,66,30
2040,note_off,240,0,7,,,,,,,,5,,,,66,64
2040,note_on,0,0,9,,,,,,,,7,,,,26,30
2040,note_on,0,0,12,,,,,,,,11,,,,66,30
2040,note_off,240,0,12,,,,,,,,11,,,,66,64
2040,note_on,0,0,14,,,,,,,,13,,,,26,30
2040,note_on,0,0,8,,,,,,,,6,,,,38,30
2275,note_off,235,0,6,,,,,,,,4,,,,72,64
2275,note_off,235,0,15,,,,,,,,14,,,,38,64
2275,note_off,235,0,10,,,,,,,,8,,,,75,64
2275,note_off,235,0,5,,,,,,,,3,,,,75,64
2275,note_off,235,0,11,,,,,,,,10,,,,72,64
2280,note_off,240,0,14,,,,,,,,13,,,,26,64
2280,note_off,240,0,2,,,,,,,,0,,,,38,64
2280,note_off,240,0,9,,,,,,,,7,,,,26,64
2280,note_off,240,0,12,,,,,,,,11,,,,66,64
2280,note_off,240,0,7,,,,,,,,5,,,,66,64
2280,note_off,240,0,13,,,,,,,,12,,,,38,64
2280,note_off,240,0,8,,,,,,,,6,,,,38,64
2520,note_on,240,0,12,,,,,,,,11,,,,62,30
2520,note_on,240,0,8,,,,,,,,6,,,,50,30
2520,note_on,245,0,6,,,,,,,,4,,,,66,45
2520,note_on,245,0,15,,,,,,,,14,,,,50,30
2520,set_tempo,2400,1,0,1666666,,,,,,,,,,,,
2520,note_on,240,0,7,,,,,,,,5,,,,62,30
2520,note_on,245,0,5,,,,,,,,3,,,,69,45
2520,note_on,240,0,9,,,,,,,,7,,,,38,30
2520,note_on,240,0,14,,,,,,,,13,,,,38,30
2520,note_on,245,0,10,,,,,,,,8,,,,69,45
2520,note_on,240,0,13,,,,,,,,12,,,,50,30
2520,note_on,240,0,2,,,,,,,,0,,,,50,30
2520,note_on,245,0,11,,,,,,,,10,,,,66,30
2640,note_off,120,0,10,,,,,,,,8,,,,69,64
2640,note_on,0,0,10,,,,,,,,8,,,,70,45
2640,note_off,120,0,11,,,,,,,,10,,,,66,64
2640,note_on,0,0,5,,,,,,,,3,,,,70,45
2640,note_on,0,0,6,,,,,,,,4,,,,67,45
2640,note_off,120,0,6,,,,,,,,4,,,,66,64
2640,note_on,0,0,11,,,,,,,,10,,,,67,30
2640,note_off,120,0,5,,,,,,,,3,,,,69,64
2755,note_off,115,0,5,,,,,,,,3,,,,70,64
2755,note_off,115,0,6,,,,,,,,4,,,,67,64
2755,note_off,115,0,10,,,,,,,,8,,,,70,64
2755,note_off,115,0,11,,,,,,,,10,,,,67,64
2755,note_off,235,0,15,,,,,,,,14,,,,50,64
2760,note_on,0,0,12,,,,,,,,11,,,,62,30
2760,note_off,240,0,12,,,,,,,,11,,,,62,64
2760,note_on,0,0,8,,,,,,,,6,,,,38,30
2760,note_on,5,0,11,,,,,,,,10,,,,69,30
2760,note_on,0,0,9,,,,,,,,7,,,,26,30
2760,note_on,5,0,10,,,,,,,,8,,,,72,45
2760,note_on,0,0,2,,,,,,,,0,,,,38,30
2760,note_off,240,0,2,,,,,,,,0,,,,50,64
2760,note_on,0,0,14,,,,,,,,13,,,,26,30
2760,note_on,0,0,13,,,,,,,,12,,,,38,30
2760,set_tempo,240,1,0,1578947,,,,,,,,,,,,
2760,note_off,240,0,14,,,,,,,,13,,,,38,64
2760,note_off,240,0,13,,,,,,,,12,,,,50,64
2760,note_on,5,0,5,,,,,,,,3,,,,72,45
2760,note_off,240,0,9,,,,,,,,7,,,,38,64
2760,note_off,240,0,8,,,,,,,,6,,,,50,64
2760,note_on,5,0,15,,,,,,,,14,,,,38,30
2760,note_off,240,0,7,,,,,,,,5,,,,62,64
2760,note_on,0,0,7,,,,,,,,5,,,,62,30
2760,note_on,5,0,6,,,,,,,,4,,,,69,45
2995,note_off,235,0,15,,,,,,,,14,,,,38,64
3000,note_off,240,0,7,,,,,,,,5,,,,62,64
3000,note_on,0,0,7,,,,,,,,5,,,,62,30
3000,note_on,5,0,15,,,,,,,,14,,,,43,30
3000,note_off,240,0,2,,,,,,,,0,,,,38,64
3000,note_on,0,0,9,,,,,,,,7,,,,31,30
3000,note_on,0,0,11,,,,,,,,10,,,,79,30
3000,note_on,0,0,8,,,,,,,,6,,,,43,30
3000,note_on,0,0,2,,,,,,,,0,,,,43,30
3000,note_off,240,0,11,,,,,,,,10,,,,69,64
3000,note_off,240,0,10,,,,,,,,8,,,,72,64
3000,note_on,0,0,10,,,,,,,,8,,,,82,45
3000,note_off,240,0,8,,,,,,,,6,,,,38,64
3000,note_on,0,0,6,,,,,,,,4,,,,79,45
3000,note_off,240,0,5,,,,,,,,3,,,,72,64
3000,note_on,0,0,5,,,,,,,,3,,,,82,45
3000,note_off,240,0,6,,,,,,,,4,,,,69,64
3000,note_off,240,0,12,,,,,,,,11,,,,62,64
3000,note_on,0,0,12,,,,,,,,11,,,,62,30
3000,note_on,0,0,14,,,,,,,,13,,,,31,30
3000,note_off,240,0,14,,,,,,,,13,,,,26,64
3000,note_off,240,0,9,,,,,,,,7,,,,26,64
3000,note_off,240,0,13,,,,,,,,12,,,,38,64
3000,note_on,0,0,13,,,,,,,,12,,,,43,30
3400,note_off,400,0,15,,,,,,,,14,,,,43,64
3480,note_off,480,0,12,,,,,,,,11,,,,62,64
3480,note_off,480,0,6,,,,,,,,4,,,,79,64
3480,note_off,480,0,2,,,,,,,,0,,,,43,64
3480,note_off,480,0,9,,,,,,,,7,,,,31,64
3480,note_off,480,0,10,,,,,,,,8,,,,82,64
3480,note_off,480,0,14,,,,,,,,13,,,,31,64
3480,note_off,480,0,5,,,,,,,,3,,,,82,64
3480,note_off,480,0,7,,,,,,,,5,,,,62,64
3480,note_off,480,0,11,,,,,,,,10,,,,79,64
3480,note_off,480,0,13,,,,,,,,12,,,,43,64
3480,note_off,480,0,8,,,,,,,,6,,,,43,64
3720,note_on,240,0,7,,,,,,,,5,,,,66,10
3720,note_on,240,0,2,,,,,,,,0,,,,50,30
3720,note_on,240,0,11,,,,,,,,10,,,,69,10
3720,note_on,240,0,9,,,,,,,,7,,,,38,10
3720,note_on,240,0,5,,,,,,,,3,,,,72,30
3720,note_on,240,0,6,,,,,,,,4,,,,69,30
3720,set_tempo,960,1,0,1500000,,,,,,,,,,,,
3720,note_on,320,0,15,,,,,,,,14,,,,38,10
3720,note_on,240,0,8,,,,,,,,6,,,,50,10
3720,note_on,240,0,12,,,,,,,,11,,,,66,10
3720,note_on,240,0,13,,,,,,,,12,,,,50,10
3720,note_on,240,0,14,,,,,,,,13,,,,38,10
3720,note_on,240,0,10,,,,,,,,8,,,,72,10
3960,note_on,0,0,6,,,,,,,,4,,,,67,30
3960,note_on,0,0,10,,,,,,,,8,,,,70,10
3960,note_off,240,0,10,,,,,,,,8,,,,72,64
3960,note_off,240,0,5,,,,,,,,3,,,,72,64
3960,note_on,0,0,5,,,,,,,,3,,,,70,30
3960,note_off,240,0,6,,,,,,,,4,,,,69,64
3960,note_off,240,0,11,,,,,,,,10,,,,69,64
3960,note_on,0,0,11,,,,,,,,10,,,,67,10
4120,note_off,400,0,15,,,,,,,,14,,,,38,64
4195,note_off,235,0,5,,,,,,,,3,,,,70,64
4195,note_off,235,0,6,,,,,,,,4,,,,67,64
4195,note_off,235,0,10,,,,,,,,8,,,,70,64
4195,note_off,235,0,11,,,,,,,,10,,,,67,64
4200,note_on,5,0,11,,,,,,,,10,,,,66,10
4200,note_off,480,0,8,,,,,,,,6,,,,50,64
4200,note_on,5,0,5,,,,,,,,3,,,,69,30
4200,note_off,480,0,14,,,,,,,,13,,,,38,64
4200,note_off,480,0,2,,,,,,,,0,,,,50,64
4200,note_on,5,0,6,,,,,,,,4,,,,66,30
4200,note_off,480,0,12,,,,,,,,11,,,,66,64
4200,note_off,480,0,9,,,,,,,,7,,,,38,64
4200,note_off,480,0,13,,,,,,,,12,,,,50,64
4200,note_off,480,0,7,,,,,,,,5,,,,66,64
4200,note_on,5,0,10,,,,,,,,8,,,,69,10
4435,note_off,235,0,11,,,,,,,,10,,,,66,64
4435,note_off,235,0,5,,,,,,,,3,,,,69,64
4435,note_off,235,0,10,,,,,,,,8,,,,69,64
4435,note_off,235,0,6,,,,,,,,4,,,,66,64
4440,note_on,5,0,10,,,,,,,,8,,,,84,12
4440,note_on,240,0,13,,,,,,,,12,,,,50,12
4440,note_on,240,0,8,,,,,,,,6,,,,50,12
4440,note_on,240,0,2,,,,,,,,0,,,,50,30
4440,note_on,5,0,5,,,,,,,,3,,,,84,32
4440,note_on,240,0,9,,,,,,,,7,,,,38,12
4440,note_on,240,0,12,,,,,,,,11,,,,66,12
4440,note_on,5,0,6,,,,,,,,4,,,,81,32
4440,note_on,5,0,11,,,,,,,,10,,,,81,12
4440,note_on,240,0,7,,,,,,,,5,,,,66,12
4440,note_on,320,0,15,,,,,,,,14,,,,38,12
4440,note_on,240,0,14,,,,,,,,13,,,,38,12
4840,note_off,400,0,15,,,,,,,,14,,,,38,64
4920,note_off,480,0,13,,,,,,,,12,,,,50,64
4920,note_off,480,0,6,,,,,,,,4,,,,81,64
4920,note_off,480,0,10,,,,,,,,8,,,,84,64
4920,note_off,480,0,2,,,,,,,,0,,,,50,64
4920,note_off,480,0,14,,,,,,,,13,,,,38,64
4920,note_off,480,0,7,,,,,,,,5,,,,66,64
4920,note_off,480,0,11,,,,,,,,10,,,,81,64
4920,note_off,480,0,5,,,,,,,,3,,,,84,64
4920,note_off,480,0,9,,,,,,,,7,,,,38,64
4920,note_off,480,0,12,,,,,,,,11,,,,66,64
4920,note_off,480,0,8,,,,,,,,6,,,,50,64
5160,note_on,240,0,14,,,,,,,,13,,,,31,21
5160,note_on,240,0,2,,,,,,,,0,,,,43,30
5160,note_on,240,0,9,,,,,,,,7,,,,31,21
5160,note_on,240,0,13,,,,,,,,12,,,,43,21
5160,note_on,240,0,8,,,,,,,,6,,,,43,21
5160,note_on,240,0,12,,,,,,,,11,,,,67,21
5160,note_on,240,0,6,,,,,,,,4,,,,70,38
5160,note_on,240,0,11,,,,,,,,10,,,,70,21
5160,note_on,240,0,10,,,,,,,,8,,,,74,21
5160,note_on,240,0,7,,,,,,,,5,,,,67,21
5160,note_on,240,0,5,,,,,,,,3,,,,74,38
5160,note_on,320,0,15,,,,,,,,14,,,,43,21
5400,note_off,240,0,5,,,,,,,,3,,,,74,64
5400,note_on,0,0,5,,,,,,,,3,,,,72,40
5400,note_off,240,0,11,,,,,,,,10,,,,70,64
5400,note_on,0,0,10,,,,,,,,8,,,,72,24
5400,note_off,240,0,6,,,,,,,,4,,,,70,64
5400,note_on,0,0,11,,,,,,,,10,,,,69,24
5400,note_on,0,0,6,,,,,,,,4,,,,69,40
5400,note_off,240,0,10,,,,,,,,8,,,,74,64
5560,note_off,400,0,15,,,,,,,,14,,,,43,64
5635,note_off,235,0,11,,,,,,,,10,,,,69,64
5635,note_off,235,0,6,,,,,,,,4,,,,69,64
5635,note_off,235,0,10,,,,,,,,8,,,,72,64
5635,note_off,235,0,5,,,,,,,,3,,,,72,64
5640,note_off,480,0,14,,,,,,,,13,,,,31,64
5640,note_off,480,0,2,,,,,,,,0,,,,43,64
5640,note_off,480,0,13,,,,,,,,12,,,,43,64
5640,note_on,5,0,10,,,,,,,,8,,,,70,27
5640,note_on,5,0,6,,,,,,,,4,,,,67,42
5640,note_off,480,0,12,,,,,,,,11,,,,67,64
5640,note_off,480,0,8,,,,,,,,6,,,,43,64
5640,note_off,480,0,7,,,,,,,,5,,,,67,64
5640,note_on,5,0,5,,,,,,,,3,,,,70,42
5640,note_on,5,0,11,,,,,,,,10,,,,67,27
5640,note_off,480,0,9,,,,,,,,7,,,,31,64
5880,note_on,240,0,14,,,,,,,,13,,,,31,30
5880,note_on,240,0,7,,,,,,,,5,,,,67,30
5880,note_on,320,0,15,,,,,,,,14,,,,43,30
5880,note_off,240,0,10,,,,,,,,8,,,,70,64
5880,note_off,240,0,11,,,,,,,,10,,,,67,64
5880,note_on,240,0,12,,,,,,,,11,,,,67,30
5880,note_on,0,0,6,,,,,,,,4,,,,82,45
5880,note_on,240,0,2,,,,,,,,0,,,,43,30
5880,note_on,0,0,11,,,,,,,,10,,,,82,30
5880,note_on,0,0,5,,,,,,,,3,,,,86,45
5880,note_off,240,0,5,,,,,,,,3,,,,70,64
5880,note_on,0,0,10,,,,,,,,8,,,,86,30
5880,note_on,240,0,9,,,,,,,,7,,,,31,30
5880,note_off,240,0,6,,,,,,,,4,,,,67,64
5880,note_on,240,0,8,,,,,,,,6,,,,43,30
5880,note_on,240,0,13,,,,,,,,12,,,,43,30
6280,note_off,400,0,15,,,,,,,,14,,,,43,64
6360,note_off,480,0,5,,,,,,,,3,,,,86,64
6360,note_off,480,0,7,,,,,,,,5,,,,67,64
6360,note_off,480,0,9,,,,,,,,7,,,,31,64
6360,note_off,480,0,14,,,,,,,,13,,,,31,64
6360,note_off,480,0,13,,,,,,,,12,,,,43,64
6360,note_off,480,0,10,,,,,,,,8,,,,86,64
6360,note_off,480,0,11,,,,,,,,10,,,,82,64
6360,note_off,480,0,2,,,,,,,,0,,,,43,64
6360,note_off,480,0,12,,,,,,,,11,,,,67,64
6360,note_off,480,0,8,,,,,,,,6,,,,43,64
6360,note_off,480,0,6,,,,,,,,4,,,,82,64
6600,note_on,240,0,11,,,,,,,,10,,,,72,30
6600,note_on,240,0,12,,,,,,,,11,,,,67,30
6600,note_on,240,0,14,,,,,,,,13,,,,36,30
6600,set_tempo,2880,1,0,1500000,,,,,,,,,,,,
6600,note_on,240,0,9,,,,,,,,7,,,,36,30
6600,note_on,240,0,2,,,,,,,,0,,,,48,30
6600,note_on,240,0,10,,,,,,,,8,,,,75,30
6600,note_on,240,0,13,,,,,,,,12,,,,48,30
6600,note_on,240,0,8,,,,,,,,6,,,,48,30
6600,note_on,320,0,15,,,,,,,,14,,,,36,30
6600,note_on,240,0,5,,,,,,,,3,,,,75,45
6600,note_on,240,0,7,,,,,,,,5,,,,67,30
6600,note_on,240,0,6,,,,,,,,4,,,,72,45
6840,note_on,0,0,10,,,,,,,,8,,,,74,24
6840,note_off,240,0,10,,,,,,,,8,,,,75,64
6840,note_off,240,0,11,,,,,,,,10,,,,72,64
6840,note_on,0,0,6,,,,,,,,4,,,,70,40
6840,note_off,240,0,6,,,,,,,,4,,,,72,64
6840,note_on,0,0,11,,,,,,,,10,,,,70,24
6840,note_off,240,0,5,,,,,,,,3,,,,75,64
6840,note_on,0,0,5,,,,,,,,3,,,,74,40
6840,set_tempo,240,1,0,1666666,,,,,,,,,,,,
7075,note_off,235,0,11,,,,,,,,10,,,,70,64
7075,note_off,235,0,6,,,,,,,,4,,,,70,64
7075,note_off,235,0,10,,,,,,,,8,,,,74,64
7075,note_off,235,0,5,,,,,,,,3,,,,74,64
7080,note_on,5,0,10,,,,,,,,8,,,,72,17
7080,note_off,480,0,12,,,,,,,,11,,,,67,64
7080,note_on,0,0,12,,,,,,,,11,,,,57,17
7080,note_off,480,0,7,,,,,,,,5,,,,67,64
7080,note_on,0,0,7,,,,,,,,5,,,,57,17
7080,note_on,5,0,11,,,,,,,,10,,,,69,17
7080,set_tempo,240,1,0,1875000,,,,,,,,,,,,
7080,note_on,5,0,5,,,,,,,,3,,,,72,35
7080,note_on,5,0,6,,,,,,,,4,,,,69,35
7240,note_off,640,0,9,,,,,,,,7,,,,36,64
7240,note_off,640,0,2,,,,,,,,0,,,,48,64
7240,note_off,640,0,15,,,,,,,,14,,,,36,64
7240,note_off,640,0,14,,,,,,,,13,,,,36,64
7240,note_off,640,0,8,,,,,,,,6,,,,48,64
7240,note_off,640,0,13,,,,,,,,12,,,,48,64
7315,note_off,235,0,10,,,,,,,,8,,,,72,64
7315,note_off,235,0,12,,,,,,,,11,,,,57,64
7315,note_off,235,0,6,,,,,,,,4,,,,69,64
7315,note_off,235,0,5,,,,,,,,3,,,,72,64
7315,note_off,235,0,7,,,,,,,,5,,,,57,64
7315,note_off,235,0,11,,,,,,,,10,,,,69,64
7320,note_on,80,0,14,,,,,,,,13,,,,38,10
7320,note_on,80,0,9,,,,,,,,7,,,,38,10
7320,note_on,5,0,6,,,,,,,,4,,,,62,30
7320,set_tempo,240,1,0,3000000,,,,,,,,,,,,
7320,note_on,5,0,12,,,,,,,,11,,,,57,10
7320,note_on,5,0,10,,,,,,,,8,,,,66,10
7320,note_on,7320,0,1,,,,,,,,0,,,,66,45
7320,note_on,5,0,5,,,,,,,,3,,,,66,30
7320,note_on,80,0,2,,,,,,,,0,,,,50,30
7320,note_on,5,0,7,,,,,,,,5,,,,57,10
7320,note_on,5,0,11,,,,,,,,10,,,,62,10
7320,note_on,80,0,8,,,,,,,,6,,,,50,10
7320,note_on,80,0,13,,,,,,,,12,,,,50,10
7320,note_on,80,0,15,,,,,,,,14,,,,38,10
7350,note_on,0,0,1,,,,,,,,0,,,,69,45
7350,note_off,30,0,1,,,,,,,,0,,,,66,64
7380,note_on,0,0,1,,,,,,,,0,,,,72,44
7380,note_off,30,0,1,,,,,,,,0,,,,69,64
7410,note_on,0,0,1,,,,,,,,0,,,,74,43
7410,note_off,30,0,1,,,,,,,,0,,,,72,64
7440,note_on,0,0,1,,,,,,,,0,,,,78,42
7440,note_off,30,0,1,,,,,,,,0,,,,74,64
7500,note_on,0,0,1,,,,,,,,0,,,,74,39
7500,note_off,60,0,1,,,,,,,,0,,,,78,64
7560,note_on,0,0,1,,,,,,,,0,,,,69,36
7560,note_off,60,0,1,,,,,,,,0,,,,74,64
7620,note_off,60,0,1,,,,,,,,0,,,,69,64
7620,note_on,0,0,1,,,,,,,,0,,,,66,33
7680,note_off,60,0,1,,,,,,,,0,,,,66,64
7680,note_on,0,0,1,,,,,,,,0,,,,62,30
7960,note_off,640,0,8,,,,,,,,6,,,,50,64
7960,note_off,640,0,5,,,,,,,,3,,,,66,64
7960,note_off,640,0,10,,,,,,,,8,,,,66,64
7960,note_off,640,0,13,,,,,,,,12,,,,50,64
7960,note_off,640,0,15,,,,,,,,14,,,,38,64
7960,note_off,640,0,9,,,,,,,,7,,,,38,64
7960,note_off,640,0,11,,,,,,,,10,,,,62,64
7960,note_off,640,0,7,,,,,,,,5,,,,57,64
7960,note_off,640,0,12,,,,,,,,11,,,,57,64
7960,note_off,640,0,14,,,,,,,,13,,,,38,64
7960,note_off,640,0,2,,,,,,,,0,,,,50,64
7960,note_off,640,0,6,,,,,,,,4,,,,62,64
8035,note_off,355,0,1,,,,,,,,0,,,,62,64
8280,note_on,320,0,10,,,,,,,,8,,,,82,30
8280,set_tempo,960,1,0,1500000,,,,,,,,,,,,
8280,note_on,320,0,6,,,,,,,,4,,,,79,45
8280,note_on,320,0,11,,,,,,,,10,,,,79,30
8280,note_on,320,0,5,,,,,,,,3,,,,82,45
8520,note_off,240,0,10,,,,,,,,8,,,,82,64
8520,note_off,240,0,11,,,,,,,,10,,,,79,64
8520,note_on,0,0,11,,,,,,,,10,,,,78,30
8520,note_off,240,0,6,,,,,,,,4,,,,79,64
8520,note_on,0,0,6,,,,,,,,4,,,,78,45
8520,note_on,0,0,5,,,,,,,,3,,,,81,45
8520,note_off,240,0,5,,,,,,,,3,,,,82,64
8520,note_on,0,0,10,,,,,,,,8,,,,81,30
8760,note_off,240,0,10,,,,,,,,8,,,,81,64
8760,note_off,240,0,6,,,,,,,,4,,,,78,64
8760,note_on,0,0,5,,,,,,,,3,,,,79,45
8760,note_off,240,0,5,,,,,,,,3,,,,81,64
8760,note_on,0,0,10,,,,,,,,8,,,,79,30
8760,note_on,0,0,11,,,,,,,,10,,,,75,30
8760,note_on,0,0,6,,,,,,,,4,,,,75,45
8760,note_off,240,0,11,,,,,,,,10,,,,78,64
9000,note_off,240,0,10,,,,,,,,8,,,,79,64
9000,note_on,0,0,10,,,,,,,,8,,,,78,30
9000,note_on,0,0,5,,,,,,,,3,,,,78,45
9000,note_off,240,0,5,,,,,,,,3,,,,79,64
9000,note_off,240,0,6,,,,,,,,4,,,,75,64
9000,note_on,0,0,6,,,,,,,,4,,,,74,45
9000,note_off,240,0,11,,,,,,,,10,,,,75,64
9000,note_on,0,0,11,,,,,,,,10,,,,74,30
9240,note_on,0,0,11,,,,,,,,10,,,,72,30
9240,note_on,0,0,5,,,,,,,,3,,,,75,45
9240,note_off,240,0,11,,,,,,,,10,,,,74,64
9240,note_off,240,0,5,,,,,,,,3,,,,78,64
9240,note_on,0,0,6,,,,,,,,4,,,,72,45
9240,note_off,240,0,6,,,,,,,,4,,,,74,64
9240,note_off,240,0,10,,,,,,,,8,,,,78,64
9240,note_on,0,0,10,,,,,,,,8,,,,75,30
9480,note_on,0,0,6,,,,,,,,4,,,,70,45
9480,note_on,0,0,11,,,,,,,,10,,,,70,30
9480,note_off,240,0,10,,,,,,,,8,,,,75,64
9480,note_on,0,0,5,,,,,,,,3,,,,74,45
9480,note_off,240,0,5,,,,,,,,3,,,,75,64
9480,note_on,0,0,10,,,,,,,,8,,,,74,30
9480,note_off,240,0,6,,,,,,,,4,,,,72,64
9480,note_off,240,0,11,,,,,,,,10,,,,72,64
9720,note_off,240,0,11,,,,,,,,10,,,,70,64
9720,note_off,240,0,5,,,,,,,,3,,,,74,64
9720,note_on,1760,0,13,,,,,,,,12,,,,62,30
9720,note_on,1760,0,7,,,,,,,,5,,,,66,30
9720,note_on,0,0,5,,,,,,,,3,,,,72,45
9720,note_on,0,0,10,,,,,,,,8,,,,72,30
9720,note_off,240,0,10,,,,,,,,8,,,,74,64
9720,note_on,1760,0,14,,,,,,,,13,,,,50,30
9720,note_on,1760,0,9,,,,,,,,7,,,,50,30
9720,note_on,1760,0,8,,,,,,,,6,,,,62,30
9720,note_on,1760,0,12,,,,,,,,11,,,,66,30
9720,note_on,0,0,6,,,,,,,,4,,,,69,45
9720,note_off,240,0,6,,,,,,,,4,,,,70,64
9720,note_on,0,0,11,,,,,,,,10,,,,69,30
9720,note_on,1760,0,15,,,,,,,,14,,,,50,30
9720,note_on,0,0,2,,,,,,,,0,,,,66,30
9720,note_on,1760,0,2,,,,,,,,0,,,,62,30
9960,note_on,0,0,12,,,,,,,,11,,,,63,30
9960,note_off,240,0,12,,,,,,,,11,,,,66,64
9960,note_off,240,0,2,,,,,,,,0,,,,66,64
9960,note_on,0,0,2,,,,,,,,0,,,,63,30
9960,note_on,0,0,9,,,,,,,,7,,,,48,30
9960,note_off,240,0,9,,,,,,,,7,,,,50,64
9960,note_off,240,0,14,,,,,,,,13,,,,50,64
9960,note_off,0,0,2,,,,,,,,0,,,,62,64
9960,note_on,0,0,14,,,,,,,,13,,,,48,30
9960,note_on,0,0,2,,,,,,,,0,,,,60,30
9960,note_on,0,0,13,,,,,,,,12,,,,60,30
9960,note_on,0,0,8,,,,,,,,6,,,,60,30
9960,note_off,240,0,15,,,,,,,,14,,,,50,64
9960,note_off,240,0,8,,,,,,,,6,,,,62,64
9960,note_on,0,0,7,,,,,,,,5,,,,63,30
9960,note_on,0,0,15,,,,,,,,14,,,,48,30
9960,note_off,240,0,13,,,,,,,,12,,,,62,64
9960,note_off,240,0,7,,,,,,,,5,,,,66,64
10200,note_off,240,0,15,,,,,,,,14,,,,48,64
10200,note_on,0,0,13,,,,,,,,12,,,,58,30
10200,note_on,0,0,15,,,,,,,,14,,,,46,30
10200,note_off,240,0,12,,,,,,,,11,,,,63,64
10200,note_on,0,0,7,,,,,,,,5,,,,62,30
10200,note_off,240,0,2,,,,,,,,0,,,,63,64
10200,note_off,0,0,2,,,,,,,,0,,,,60,64
10200,note_on,0,0,2,,,,,,,,0,,,,58,30
10200,note_off,240,0,13,,,,,,,,12,,,,60,64
10200,note_on,0,0,9,,,,,,,,7,,,,46,30
10200,note_on,0,0,12,,,,,,,,11,,,,62,30
10200,note_off,240,0,9,,,,,,,,7,,,,48,64
10200,note_on,0,0,2,,,,,,,,0,,,,62,30
10200,note_off,240,0,8,,,,,,,,6,,,,60,64
10200,note_on,0,0,14,,,,,,,,13,,,,46,30
10200,note_off,240,0,7,,,,,,,,5,,,,63,64
10200,note_off,240,0,14,,,,,,,,13,,,,48,64
10200,note_on,0,0,8,,,,,,,,6,,,,58,30
10440,note_on,0,0,7,,,,,,,,5,,,,60,30
10440,note_on,0,0,9,,,,,,,,7,,,,45,30
10440,note_on,0,0,13,,,,,,,,12,,,,57,30
10440,note_off,240,0,13,,,,,,,,12,,,,58,64
10440,note_on,0,0,12,,,,,,,,11,,,,60,30
10440,note_off,240,0,12,,,,,,,,11,,,,62,64
10440,note_off,240,0,7,,,,,,,,5,,,,62,64
10440,note_on,0,0,14,,,,,,,,13,,,,45,30
10440,note_off,240,0,15,,,,,,,,14,,,,46,64
10440,note_on,0,0,8,,,,,,,,6,,,,57,30
10440,note_off,240,0,14,,,,,,,,13,,,,46,64
10440,note_off,240,0,9,,,,,,,,7,,,,46,64
10440,note_off,240,0,2,,,,,,,,0,,,,62,64
10440,note_off,0,0,2,,,,,,,,0,,,,58,64
10440,note_on,0,0,2,,,,,,,,0,,,,57,30
10440,note_on,0,0,2,,,,,,,,0,,,,60,30
10440,note_on,0,0,15,,,,,,,,14,,,,45,30
10440,note_off,240,0,8,,,,,,,,6,,,,58,64
10440,set_tempo,2160,1,0,1578947,,,,,,,,,,,,
10560,note_on,0,0,13,,,,,,,,12,,,,55,30
10560,note_off,120,0,14,,,,,,,,13,,,,45,64
10560,note_on,0,0,14,,,,,,,,13,,,,43,30
10560,note_off,120,0,15,,,,,,,,14,,,,45,64
10560,note_on,0,0,15,,,,,,,,14,,,,43,30
10560,note_off,120,0,13,,,,,,,,12,,,,57,64
10560,note_on,0,0,8,,,,,,,,6,,,,55,30
10560,note_off,0,0,2,,,,,,,,0,,,,57,64
10560,note_on,0,0,7,,,,,,,,5,,,,58,30
10560,note_off,120,0,7,,,,,,,,5,,,,60,64
10560,note_on,0,0,2,,,,,,,,0,,,,58,30
10560,note_on,0,0,2,,,,,,,,0,,,,55,30
10560,set_tempo,120,1,0,1666666,,,,,,,,,,,,
10560,note_off,120,0,2,,,,,,,,0,,,,60,64
10560,note_on,0,0,12,,,,,,,,11,,,,58,30
10560,note_off,120,0,8,,,,,,,,6,,,,57,64
10560,note_off,120,0,12,,,,,,,,11,,,,60,64
10560,note_off,120,0,9,,,,,,,,7,,,,45,64
10560,note_on,0,0,9,,,,,,,,7,,,,43,30
10680,note_off,120,0,13,,,,,,,,12,,,,55,64
10680,note_off,120,0,7,,,,,,,,5,,,,58,64
10680,note_on,0,0,7,,,,,,,,5,,,,57,30
10680,set_tempo,120,1,0,1764705,,,,,,,,,,,,
10680,note_on,0,0,13,,,,,,,,12,,,,54,30
10680,note_on,0,0,15,,,,,,,,14,,,,42,30
10680,note_on,0,0,12,,,,,,,,11,,,,57,30
10680,note_off,0,0,2,,,,,,,,0,,,,55,64
10680,note_off,120,0,2,,,,,,,,0,,,,58,64
10680,note_off,120,0,12,,,,,,,,11,,,,58,64
10680,note_off,120,0,9,,,,,,,,7,,,,43,64
10680,note_on,0,0,9,,,,,,,,7,,,,42,30
10680,note_on,0,0,2,,,,,,,,0,,,,54,30
10680,note_on,0,0,14,,,,,,,,13,,,,42,30
10680,note_on,0,0,2,,,,,,,,0,,,,57,30
10680,note_on,0,0,8,,,,,,,,6,,,,54,30
10680,note_off,120,0,8,,,,,,,,6,,,,55,64
10680,note_off,120,0,15,,,,,,,,14,,,,43,64
10680,note_off,120,0,14,,,,,,,,13,,,,43,64
10920,note_off,240,0,14,,,,,,,,13,,,,42,64
10920,note_on,0,0,14,,,,,,,,13,,,,39,30
10920,note_on,0,0,8,,,,,,,,6,,,,51,30
10920,note_on,0,0,2,,,,,,,,0,,,,55,30
10920,note_off,240,0,8,,,,,,,,6,,,,54,64
10920,note_on,0,0,2,,,,,,,,0,,,,51,30
10920,note_off,240,0,2,,,,,,,,0,,,,57,64
10920,note_on,0,0,7,,,,,,,,5,,,,55,30
10920,note_on,0,0,15,,,,,,,,14,,,,39,30
10920,set_tempo,240,1,0,1875000,,,,,,,,,,,,
10920,note_off,0,0,2,,,,,,,,0,,,,54,64
10920,note_off,240,0,12,,,,,,,,11,,,,57,64
10920,note_on,0,0,12,,,,,,,,11,,,,55,30
10920,note_on,0,0,13,,,,,,,,12,,,,51,30
10920,note_off,240,0,13,,,,,,,,12,,,,54,64
10920,note_off,240,0,15,,,,,,,,14,,,,42,64
10920,note_off,240,0,9,,,,,,,,7,,,,42,64
10920,note_on,0,0,9,,,,,,,,7,,,,39,30
10920,note_off,240,0,7,,,,,,,,5,,,,57,64
11080,note_off,1360,0,5,,,,,,,,3,,,,72,64
11080,note_off,1360,0,10,,,,,,,,8,,,,72,64
11080,note_off,1360,0,6,,,,,,,,4,,,,69,64
11080,note_off,1360,0,11,,,,,,,,10,,,,69,64
11155,note_off,235,0,14,,,,,,,,13,,,,39,64
11155,note_off,235,0,15,,,,,,,,14,,,,39,64
11155,note_off,235,0,12,,,,,,,,11,,,,55,64
11155,note_off,235,0,9,,,,,,,,7,,,,39,64
11155,note_off,235,0,13,,,,,,,,12,,,,51,64
11155,note_off,235,0,7,,,,,,,,5,,,,55,64
11155,note_off,235,0,2,,,,,,,,0,,,,55,64
11155,note_off,0,0,2,,,,,,,,0,,,,51,64
11155,note_off,235,0,8,,,,,,,,6,,,,51,64
11220,note_on,140,0,11,,,,,,,,10,,,,81,30
11220,note_on,65,0,7,,,,,,,,5,,,,54,30
11220,note_on,65,0,12,,,,,,,,11,,,,54,30
11220,note_on,65,0,14,,,,,,,,13,,,,38,30
11220,note_on,65,0,13,,,,,,,,12,,,,50,30
11220,note_on,140,0,5,,,,,,,,3,,,,84,45
11220,note_on,140,0,10,,,,,,,,8,,,,84,30
11220,note_on,140,0,6,,,,,,,,4,,,,81,45
11220,note_on,65,0,9,,,,,,,,7,,,,38,30
11220,note_on,65,0,8,,,,,,,,6,,,,50,30
11460,note_on,0,0,6,,,,,,,,4,,,,79,45
11460,set_tempo,540,1,0,1500000,,,,,,,,,,,,
11460,note_off,240,0,6,,,,,,,,4,,,,81,64
11460,note_off,240,0,11,,,,,,,,10,,,,81,64
11460,note_on,0,0,5,,,,,,,,3,,,,82,45
11460,note_off,240,0,5,,,,,,,,3,,,,84,64
11460,note_on,0,0,11,,,,,,,,10,,,,79,30
11460,note_off,240,0,10,,,,,,,,8,,,,84,64
11460,note_on,0,0,10,,,,,,,,8,,,,82,30
11700,note_on,0,0,11,,,,,,,,10,,,,78,30
11700,note_on,0,0,5,,,,,,,,3,,,,81,45
11700,note_off,240,0,5,,,,,,,,3,,,,82,64
11700,note_off,240,0,11,,,,,,,,10,,,,79,64
11700,note_off,240,0,6,,,,,,,,4,,,,79,64
11700,note_on,0,0,6,,,,,,,,4,,,,78,45
11700,note_on,0,0,10,,,,,,,,8,,,,81,30
11700,note_off,240,0,10,,,,,,,,8,,,,82,64
11940,note_on,0,0,11,,,,,,,,10,,,,75,30
11940,note_off,240,0,11,,,,,,,,10,,,,78,64
11940,note_on,0,0,5,,,,,,,,3,,,,79,45
11940,note_off,240,0,5,,,,,,,,3,,,,81,64
11940,note_on,0,0,10,,,,,,,,8,,,,79,30
11940,note_off,240,0,10,,,,,,,,8,,,,81,64
11940,note_on,0,0,6,,,,,,,,4,,,,75,45
11940,note_off,240,0,6,,,,,,,,4,,,,78,64
12180,note_on,0,0,5,,,,,,,,3,,,,78,45
12180,note_on,0,0,6,,,,,,,,4,,,,74,45
12180,note_off,240,0,11,,,,,,,,10,,,,75,64
12180,note_on,0,0,11,,,,,,,,10,,,,74,30
12180,note_off,240,0,5,,,,,,,,3,,,,79,64
12180,note_on,0,0,10,,,,,,,,8,,,,78,30
12180,note_off,240,0,10,,,,,,,,8,,,,79,64
12180,note_off,240,0,6,,,,,,,,4,,,,75,64
12420,note_off,240,0,10,,,,,,,,8,,,,78,64
12420,note_on,0,0,5,,,,,,,,3,,,,75,45
12420,note_off,240,0,11,,,,,,,,10,,,,74,64
12420,note_on,0,0,11,,,,,,,,10,,,,72,30
12420,note_on,0,0,6,,,,,,,,4,,,,72,45
12420,note_off,240,0,6,,,,,,,,4,,,,74,64
12420,note_off,240,0,5,,,,,,,,3,,,,78,64
12420,note_on,0,0,10,,,,,,,,8,,,,75,30
12580,note_off,1360,0,13,,,,,,,,12,,,,50,64
12580,note_off,1360,0,9,,,,,,,,7,,,,38,64
12580,note_off,1360,0,7,,,,,,,,5,,,,54,64
12580,note_off,1360,0,8,,,,,,,,6,,,,50,64
12580,note_off,1360,0,14,,,,,,,,13,,,,38,64
12580,note_off,1360,0,12,,,,,,,,11,,,,54,64
12660,note_on,80,0,8,,,,,,,,6,,,,55,30
12660,note_on,80,0,9,,,,,,,,7,,,,43,30
12660,note_on,80,0,12,,,,,,,,11,,,,70,30
12660,note_on,1505,0,15,,,,,,,,14,,,,43,30
12660,note_on,0,0,2,,,,,,,,0,,,,58,30
12660,note_on,0,0,5,,,,,,,,3,,,,74,45
12660,note_on,0,0,6,,,,,,,,4,,,,70,45
12660,note_off,240,0,5,,,,,,,,3,,,,75,64
12660,note_on,1505,0,2,,,,,,,,0,,,,55,30
12660,note_on,80,0,7,,,,,,,,5,,,,70,30
12660,note_on,0,0,10,,,,,,,,8,,,,74,30
12660,note_on,0,0,11,,,,,,,,10,,,,70,30
12660,set_tempo,1200,1,0,1500000,,,,,,,,,,,,
12660,note_off,240,0,10,,,,,,,,8,,,,75,64
12660,note_on,80,0,14,,,,,,,,13,,,,43,30
12660,note_on,80,0,13,,,,,,,,12,,,,55,30
12660,note_off,240,0,11,,,,,,,,10,,,,72,64
12660,note_off,240,0,6,,,,,,,,4,,,,72,64
12900,note_off,240,0,2,,,,,,,,0,,,,58,64
12900,set_tempo,240,1,0,1578947,,,,,,,,,,,,
12900,note_on,0,0,2,,,,,,,,0,,,,54,30
12900,note_off,240,0,13,,,,,,,,12,,,,55,64
12900,note_on,0,0,12,,,,,,,,11,,,,69,30
12900,note_on,0,0,9,,,,,,,,7,,,,42,30
12900,note_off,240,0,9,,,,,,,,7,,,,43,64
12900,note_on,0,0,7,,,,,,,,5,,,,69,30
12900,note_off,240,0,7,,,,,,,,5,,,,70,64
12900,note_on,0,0,13,,,,,,,,12,,,,54,30
12900,note_on,0,0,2,,,,,,,,0,,,,57,30
12900,note_off,240,0,12,,,,,,,,11,,,,70,64
12900,note_off,0,0,2,,,,,,,,0,,,,55,64
12900,note_off,240,0,14,,,,,,,,13,,,,43,64
12900,note_on,0,0,14,,,,,,,,13,,,,42,30
12900,note_on,0,0,8,,,,,,,,6,,,,54,30
12900,note_off,240,0,15,,,,,,,,14,,,,43,64
12900,note_on,0,0,15,,,,,,,,14,,,,42,30
12900,note_off,240,0,8,,,,,,,,6,,,,55,64
13140,note_off,240,0,12,,,,,,,,11,,,,69,64
13140,note_on,0,0,14,,,,,,,,13,,,,39,30
13140,set_tempo,240,1,0,1666666,,,,,,,,,,,,
13140,note_on,0,0,2,,,,,,,,0,,,,55,30
13140,note_on,0,0,8,,,,,,,,6,,,,51,30
13140,note_on,0,0,2,,,,,,,,0,,,,51,30
13140,note_off,240,0,8,,,,,,,,6,,,,54,64
13140,note_off,240,0,7,,,,,,,,5,,,,69,64
13140,note_on,0,0,12,,,,,,,,11,,,,67,30
13140,note_off,240,0,14,,,,,,,,13,,,,42,64
13140,note_on,0,0,7,,,,,,,,5,,,,67,30
13140,note_off,0,0,2,,,,,,,,0,,,,54,64
13140,note_off,240,0,15,,,,,,,,14,,,,42,64
13140,note_on,0,0,15,,,,,,,,14,,,,39,30
13140,note_off,240,0,9,,,,,,,,7,,,,42,64
13140,note_off,240,0,13,,,,,,,,12,,,,54,64
13140,note_on,0,0,13,,,,,,,,12,,,,51,30
13140,note_on,0,0,9,,,,,,,,7,,,,39,30
13140,note_off,240,0,2,,,,,,,,0,,,,57,64
13380,note_off,240,0,8,,,,,,,,6,,,,51,64
13380,note_on,0,0,8,,,,,,,,6,,,,50,30
13380,note_on,0,0,13,,,,,,,,12,,,,50,30
13380,note_on,0,0,14,,,,,,,,13,,,,38,30
13380,set_tempo,240,1,0,1764705,,,,,,,,,,,,
13380,note_off,240,0,14,,,,,,,,13,,,,39,64
13380,note_off,240,0,9,,,,,,,,7,,,,39,64
13380,note_off,240,0,15,,,,,,,,14,,,,39,64
13380,note_on,0,0,15,,,,,,,,14,,,,38,30
13380,note_off,240,0,13,,,,,,,,12,,,,51,64
13380,note_off,240,0,7,,,,,,,,5,,,,67,64
13380,note_on,0,0,9,,,,,,,,7,,,,38,30
13380,note_on,0,0,7,,,,,,,,5,,,,66,30
13380,note_off,240,0,2,,,,,,,,0,,,,55,64
13380,note_on,0,0,2,,,,,,,,0,,,,50,30
13380,note_on,0,0,12,,,,,,,,11,,,,66,30
13380,note_off,240,0,12,,,,,,,,11,,,,67,64
13380,note_off,0,0,2,,,,,,,,0,,,,51,64
13380,note_on,0,0,2,,,,,,,,0,,,,54,30
13500,note_off,120,0,8,,,,,,,,6,,,,50,64
13500,note_on,0,0,8,,,,,,,,6,,,,48,30
13500,note_on,0,0,12,,,,,,,,11,,,,63,30
13500,note_off,120,0,14,,,,,,,,13,,,,38,64
13500,note_on,0,0,14,,,,,,,,13,,,,36,30
13500,note_on,0,0,2,,,,,,,,0,,,,51,30
13500,note_off,120,0,12,,,,,,,,11,,,,66,64
13500,note_off,120,0,15,,,,,,,,14,,,,38,64
13500,note_on,0,0,15,,,,,,,,14,,,,36,30
13500,note_off,120,0,2,,,,,,,,0,,,,54,64
13500,note_off,0,0,2,,,,,,,,0,,,,50,64
13500,note_on,0,0,2,,,,,,,,0,,,,48,30
13500,note_off,120,0,9,,,,,,,,7,,,,38,64
13500,note_on,0,0,9,,,,,,,,7,,,,36,30
13500,note_on,0,0,13,,,,,,,,12,,,,48,30
13500,note_off,120,0,7,,,,,,,,5,,,,66,64
13500,note_on,0,0,7,,,,,,,,5,,,,63,30
13500,note_off,120,0,13,,,,,,,,12,,,,50,64
13620,note_on,0,0,15,,,,,,,,14,,,,34,30
13620,note_off,120,0,7,,,,,,,,5,,,,63,64
13620,note_on,0,0,12,,,,,,,,11,,,,62,30
13620,note_off,120,0,13,,,,,,,,12,,,,48,64
13620,note_on,0,0,7,,,,,,,,5,,,,62,30
13620,note_on,0,0,13,,,,,,,,12,,,,46,30
13620,note_off,120,0,14,,,,,,,,13,,,,36,64
13620,note_on,0,0,14,,,,,,,,13,,,,34,30
13620,note_off,120,0,12,,,,,,,,11,,,,63,64
13620,note_off,120,0,15,,,,,,,,14,,,,36,64
13620,note_off,120,0,2,,,,,,,,0,,,,51,64
13620,note_on,0,0,9,,,,,,,,7,,,,34,30
13620,note_off,120,0,9,,,,,,,,7,,,,36,64
13620,note_off,120,0,8,,,,,,,,6,,,,48,64
13620,note_on,0,0,8,,,,,,,,6,,,,46,30
13620,note_on,0,0,2,,,,,,,,0,,,,46,30
13620,note_on,0,0,2,,,,,,,,0,,,,50,30
13620,note_off,0,0,2,,,,,,,,0,,,,48,64
13620,set_tempo,240,1,0,1875000,,,,,,,,,,,,
13860,note_off,240,0,13,,,,,,,,12,,,,46,64
13860,note_on,0,0,13,,,,,,,,12,,,,45,30
13860,note_off,240,0,2,,,,,,,,0,,,,50,64
13860,note_off,0,0,2,,,,,,,,0,,,,46,64
13860,note_on,0,0,15,,,,,,,,14,,,,33,30
13860,note_on,0,0,2,,,,,,,,0,,,,45,30
13860,note_on,0,0,2,,,,,,,,0,,,,48,30
13860,note_on,0,0,14,,,,,,,,13,,,,33,30
13860,note_off,240,0,14,,,,,,,,13,,,,34,64
13860,note_off,240,0,7,,,,,,,,5,,,,62,64
13860,note_on,0,0,9,,,,,,,,7,,,,33,30
13860,set_tempo,240,1,0,1935483,,,,,,,,,,,,
13860,note_on,0,0,8,,,,,,,,6,,,,45,30
13860,note_off,240,0,8,,,,,,,,6,,,,46,64
13860,note_off,240,0,12,,,,,,,,11,,,,62,64
13860,note_on,0,0,12,,,,,,,,11,,,,60,30
13860,note_off,240,0,15,,,,,,,,14,,,,34,64
13860,note_off,240,0,9,,,,,,,,7,,,,34,64
13860,note_on,0,0,7,,,,,,,,5,,,,60,30
14100,note_on,6065,0,1,,,,,,,,0,,,,62,45
14100,note_on,0,0,12,,,,,,,,11,,,,58,30
14100,note_on,0,0,13,,,,,,,,12,,,,43,30
14100,note_on,0,0,7,,,,,,,,5,,,,58,30
14100,note_off,240,0,7,,,,,,,,5,,,,60,64
14100,note_off,240,0,9,,,,,,,,7,,,,33,64
14100,note_on,0,0,9,,,,,,,,7,,,,31,30
14100,note_off,240,0,13,,,,,,,,12,,,,45,64
14100,note_on,0,0,2,,,,,,,,0,,,,46,30
14100,note_on,0,0,15,,,,,,,,14,,,,31,30
14100,note_off,0,0,2,,,,,,,,0,,,,45,64
14100,note_off,240,0,12,,,,,,,,11,,,,60,64
14100,note_off,240,0,8,,,,,,,,6,,,,45,64
14100,note_on,0,0,8,,,,,,,,6,,,,43,30
14100,note_off,240,0,14,,,,,,,,13,,,,33,64
14100,note_on,0,0,14,,,,,,,,13,,,,31,30
14100,note_on,0,0,2,,,,,,,,0,,,,43,30
14100,note_off,240,0,2,,,,,,,,0,,,,48,64
14100,note_off,240,0,15,,,,,,,,14,,,,33,64
14220,note_off,120,0,1,,,,,,,,0,,,,62,64
14220,note_on,0,0,1,,,,,,,,0,,,,58,45
14340,note_off,120,0,1,,,,,,,,0,,,,58,64
14340,note_on,0,0,1,,,,,,,,0,,,,62,45
14460,note_off,120,0,1,,,,,,,,0,,,,62,64
14460,note_on,0,0,1,,,,,,,,0,,,,67,45
14500,note_off,1840,0,10,,,,,,,,8,,,,74,64
14500,note_off,1840,0,6,,,,,,,,4,,,,70,64
14500,note_off,400,0,9,,,,,,,,7,,,,31,64
14500,note_off,400,0,2,,,,,,,,0,,,,46,64
14500,note_off,0,0,2,,,,,,,,0,,,,43,64
14500,note_off,400,0,8,,,,,,,,6,,,,43,64
14500,note_off,1840,0,5,,,,,,,,3,,,,74,64
14500,note_off,1840,0,11,,,,,,,,10,,,,70,64
14500,note_off,400,0,7,,,,,,,,5,,,,58,64
14500,note_off,400,0,13,,,,,,,,12,,,,43,64
14500,note_off,400,0,12,,,,,,,,11,,,,58,64
14500,note_off,400,0,14,,,,,,,,13,,,,31,64
14500,note_off,400,0,15,,,,,,,,14,,,,31,64
14580,note_on,0,0,1,,,,,,,,0,,,,70,45
14580,note_off,120,0,1,,,,,,,,0,,,,67,64
14820,note_off,240,0,1,,,,,,,,0,,,,70,64
14820,set_tempo,960,1,0,1500000,,,,,,,,,,,,
15060,note_on,560,0,7,,,,,,,,5,,,,62,30
15060,note_on,560,0,2,,,,,,,,0,,,,55,30
15060,note_on,560,0,11,,,,,,,,10,,,,79,30
15060,note_on,560,0,10,,,,,,,,8,,,,82,30
15060,note_on,560,0,6,,,,,,,,4,,,,79,45
15060,note_on,560,0,15,,,,,,,,14,,,,43,30
15060,note_on,560,0,12,,,,,,,,11,,,,62,30
15060,note_on,560,0,14,,,,,,,,13,,,,43,30
15060,note_on,560,0,8,,,,,,,,6,,,,55,30
15060,note_on,560,0,5,,,,,,,,3,,,,82,45
15060,note_on,560,0,13,,,,,,,,12,,,,55,30
15060,note_on,560,0,9,,,,,,,,7,,,,43,30
15180,note_off,120,0,11,,,,,,,,10,,,,79,64
15180,note_on,0,0,11,,,,,,,,10,,,,81,30
15180,note_off,120,0,6,,,,,,,,4,,,,79,64
15180,note_off,120,0,10,,,,,,,,8,,,,82,64
15180,note_on,0,0,6,,,,,,,,4,,,,81,45
15180,note_on,0,0,10,,,,,,,,8,,,,84,30
15180,note_off,120,0,5,,,,,,,,3,,,,82,64
15180,note_on,0,0,5,,,,,,,,3,,,,84,45
15295,note_off,115,0,6,,,,,,,,4,,,,81,64
15295,note_off,115,0,5,,,,,,,,3,,,,84,64
15295,note_off,235,0,15,,,,,,,,14,,,,43,64
15295,note_off,115,0,11,,,,,,,,10,,,,81,64
15295,note_off,235,0,2,,,,,,,,0,,,,55,64
15295,note_off,115,0,10,,,,,,,,8,,,,84,64
15300,note_on,0,0,14,,,,,,,,13,,,,31,30
15300,note_off,240,0,14,,,,,,,,13,,,,43,64
15300,note_on,0,0,8,,,,,,,,6,,,,43,30
15300,note_on,0,0,12,,,,,,,,11,,,,62,30
15300,note_off,240,0,8,,,,,,,,6,,,,55,64
15300,note_off,240,0,12,,,,,,,,11,,,,62,64
15300,note_off,240,0,9,,,,,,,,7,,,,43,64
15300,note_on,5,0,5,,,,,,,,3,,,,86,45
15300,note_on,5,0,6,,,,,,,,4,,,,82,45
15300,note_on,5,0,15,,,,,,,,14,,,,31,30
15300,note_on,5,0,2,,,,,,,,0,,,,43,30
15300,note_on,0,0,9,,,,,,,,7,,,,31,30
15300,note_on,5,0,11,,,,,,,,10,,,,82,30
15300,note_on,0,0,7,,,,,,,,5,,,,62,30
15300,note_off,240,0,7,,,,,,,,5,,,,62,64
15300,note_off,240,0,13,,,,,,,,12,,,,55,64
15300,note_on,0,0,13,,,,,,,,12,,,,43,30
15300,note_on,5,0,10,,,,,,,,8,,,,86,30
15535,note_off,235,0,15,,,,,,,,14,,,,31,64
15535,note_off,235,0,2,,,,,,,,0,,,,43,64
15540,note_off,240,0,6,,,,,,,,4,,,,82,64
15540,note_off,240,0,12,,,,,,,,11,,,,62,64
15540,note_off,240,0,10,,,,,,,,8,,,,86,64
15540,note_off,240,0,9,,,,,,,,7,,,,31,64
15540,note_off,240,0,8,,,,,,,,6,,,,43,64
15540,note_off,240,0,14,,,,,,,,13,,,,31,64
15540,note_off,240,0,5,,,,,,,,3,,,,86,64
15540,note_off,240,0,11,,,,,,,,10,,,,82,64
15540,note_off,240,0,7,,,,,,,,5,,,,62,64
15540,note_off,240,0,13,,,,,,,,12,,,,43,64
15780,note_on,240,0,12,,,,,,,,11,,,,63,30
15780,note_on,240,0,8,,,,,,,,6,,,,60,30
15780,note_on,245,0,2,,,,,,,,0,,,,60,30
15780,note_on,245,0,15,,,,,,,,14,,,,48,30
15780,note_on,240,0,11,,,,,,,,10,,,,72,30
15780,note_on,240,0,7,,,,,,,,5,,,,63,30
15780,note_on,240,0,13,,,,,,,,12,,,,60,30
15780,note_on,240,0,9,,,,,,,,7,,,,48,30
15780,note_on,240,0,10,,,,,,,,8,,,,80,30
15780,note_on,240,0,5,,,,,,,,3,,,,80,45
15780,note_on,240,0,14,,,,,,,,13,,,,48,30
15780,note_on,240,0,6,,,,,,,,4,,,,72,45
15900,note_on,0,0,10,,,,,,,,8,,,,82,30
15900,note_off,120,0,10,,,,,,,,8,,,,80,64
15900,note_off,120,0,6,,,,,,,,4,,,,72,64
15900,note_on,0,0,6,,,,,,,,4,,,,74,45
15900,note_off,120,0,5,,,,,,,,3,,,,80,64
15900,note_on,0,0,5,,,,,,,,3,,,,82,45
15900,note_off,120,0,11,,,,,,,,10,,,,72,64
15900,note_on,0,0,11,,,,,,,,10,,,,74,30
16015,note_off,115,0,6,,,,,,,,4,,,,74,64
16015,note_off,235,0,15,,,,,,,,14,,,,48,64
16015,note_off,115,0,5,,,,,,,,3,,,,82,64
16015,note_off,235,0,2,,,,,,,,0,,,,60,64
16015,note_off,115,0,10,,,,,,,,8,,,,82,64
16015,note_off,115,0,11,,,,,,,,10,,,,74,64
16020,note_off,240,0,13,,,,,,,,12,,,,60,64
16020,note_on,5,0,15,,,,,,,,14,,,,36,30
16020,note_on,5,0,10,,,,,,,,8,,,,84,30
16020,note_on,0,0,14,,,,,,,,13,,,,36,30
16020,note_off,240,0,14,,,,,,,,13,,,,48,64
16020,note_off,240,0,8,,,,,,,,6,,,,60,64
16020,note_on,0,0,8,,,,,,,,6,,,,48,30
16020,note_on,0,0,13,,,,,,,,12,,,,48,30
16020,note_off,240,0,9,,,,,,,,7,,,,48,64
16020,note_on,0,0,9,,,,,,,,7,,,,36,30
16020,note_on,0,0,7,,,,,,,,5,,,,63,30
16020,note_off,240,0,7,,,,,,,,5,,,,63,64
16020,note_off,240,0,12,,,,,,,,11,,,,63,64
16020,note_on,0,0,12,,,,,,,,11,,,,63,30
16020,note_on,5,0,2,,,,,,,,0,,,,48,30
16020,note_on,5,0,6,,,,,,,,4,,,,75,45
16020,note_on,5,0,5,,,,,,,,3,,,,84,45
16020,note_on,5,0,11,,,,,,,,10,,,,75,30
16255,note_off,235,0,2,,,,,,,,0,,,,48,64
16255,note_off,235,0,15,,,,,,,,14,,,,36,64
16260,note_off,240,0,14,,,,,,,,13,,,,36,64
16260,note_off,240,0,12,,,,,,,,11,,,,63,64
16260,note_off,240,0,9,,,,,,,,7,,,,36,64
16260,note_off,240,0,6,,,,,,,,4,,,,75,64
16260,note_off,240,0,8,,,,,,,,6,,,,48,64
16260,note_off,240,0,7,,,,,,,,5,,,,63,64
16260,note_off,240,0,11,,,,,,,,10,,,,75,64
16260,note_off,240,0,5,,,,,,,,3,,,,84,64
16260,note_off,240,0,10,,,,,,,,8,,,,84,64
16260,note_off,240,0,13,,,,,,,,12,,,,48,64
16500,note_on,240,0,7,,,,,,,,5,,,,62,30
16500,note_on,245,0,15,,,,,,,,14,,,,43,30
16500,note_on,240,0,14,,,,,,,,13,,,,43,30
16500,note_on,240,0,10,,,,,,,,8,,,,79,30
16500,note_on,245,0,2,,,,,,,,0,,,,55,30
16500,note_on,240,0,13,,,,,,,,12,,,,55,30
16500,note_on,240,0,8,,,,,,,,6,,,,55,30
16500,note_on,240,0,9,,,,,,,,7,,,,43,30
16500,note_on,240,0,11,,,,,,,,10,,,,70,30
16500,note_on,240,0,6,,,,,,,,4,,,,70,45
16500,note_on,240,0,12,,,,,,,,11,,,,62,30
16500,note_on,240,0,5,,,,,,,,3,,,,79,45
16620,note_off,120,0,10,,,,,,,,8,,,,79,64
16620,note_on,0,0,10,,,,,,,,8,,,,81,30
16620,note_on,0,0,6,,,,,,,,4,,,,72,45
16620,note_off,120,0,6,,,,,,,,4,,,,70,64
16620,note_on,0,0,5,,,,,,,,3,,,,81,45
16620,note_off,120,0,11,,,,,,,,10,,,,70,64
16620,note_on,0,0,11,,,,,,,,10,,,,72,30
16620,note_off,120,0,5,,,,,,,,3,,,,79,64
16735,note_off,115,0,6,,,,,,,,4,,,,72,64
16735,note_off,235,0,15,,,,,,,,14,,,,43,64
16735,note_off,115,0,5,,,,,,,,3,,,,81,64
16735,note_off,115,0,10,,,,,,,,8,,,,81,64
16735,note_off,115,0,11,,,,,,,,10,,,,72,64
16735,note_off,235,0,2,,,,,,,,0,,,,55,64
16740,note_on,5,0,10,,,,,,,,8,,,,82,30
16740,note_on,0,0,12,,,,,,,,11,,,,62,30
16740,note_on,0,0,14,,,,,,,,13,,,,31,30
16740,note_off,240,0,14,,,,,,,,13,,,,43,64
16740,note_off,240,0,12,,,,,,,,11,,,,62,64
16740,note_on,5,0,11,,,,,,,,10,,,,74,30
16740,note_on,0,0,8,,,,,,,,6,,,,43,30
16740,note_off,240,0,13,,,,,,,,12,,,,55,64
16740,note_off,240,0,8,,,,,,,,6,,,,55,64
16740,note_on,5,0,6,,,,,,,,4,,,,74,45
16740,note_on,0,0,9,,,,,,,,7,,,,31,30
16740,note_off,240,0,9,,,,,,,,7,,,,43,64
16740,note_on,0,0,13,,,,,,,,12,,,,43,30
16740,note_on,5,0,15,,,,,,,,14,,,,31,30
16740,note_on,5,0,5,,,,,,,,3,,,,82,45
16740,note_off,240,0,7,,,,,,,,5,,,,62,64
16740,note_on,5,0,2,,,,,,,,0,,,,43,30
16740,note_on,0,0,7,,,,,,,,5,,,,62,30
16975,note_off,235,0,15,,,,,,,,14,,,,31,64
16975,note_off,235,0,2,,,,,,,,0,,,,43,64
16980,note_off,240,0,9,,,,,,,,7,,,,31,64
16980,note_off,240,0,10,,,,,,,,8,,,,82,64
16980,note_off,240,0,11,,,,,,,,10,,,,74,64
16980,note_off,240,0,8,,,,,,,,6,,,,43,64
16980,note_off,240,0,7,,,,,,,,5,,,,62,64
16980,note_off,240,0,12,,,,,,,,11,,,,62,64
16980,note_off,240,0,14,,,,,,,,13,,,,31,64
16980,note_off,240,0,5,,,,,,,,3,,,,82,64
16980,note_off,240,0,13,,,,,,,,12,,,,43,64
16980,note_off,240,0,6,,,,,,,,4,,,,74,64
17220,note_on,240,0,10,,,,,,,,8,,,,78,30
17220,note_on,240,0,14,,,,,,,,13,,,,38,30
17220,note_on,240,0,7,,,,,,,,5,,,,66,30
17220,note_on,245,0,2,,,,,,,,0,,,,50,30
17220,note_on,240,0,13,,,,,,,,12,,,,50,30
17220,note_on,240,0,11,,,,,,,,10,,,,69,30
17220,note_on,240,0,8,,,,,,,,6,,,,50,30
17220,note_on,240,0,9,,,,,,,,7,,,,38,30
17220,note_on,240,0,5,,,,,,,,3,,,,78,45
17220,note_on,245,0,15,,,,,,,,14,,,,38,30
17220,note_on,240,0,6,,,,,,,,4,,,,69,45
17220,note_on,240,0,12,,,,,,,,11,,,,66,30
17340,note_on,0,0,6,,,,,,,,4,,,,70,45
17340,note_off,120,0,5,,,,,,,,3,,,,78,64
17340,note_on,0,0,5,,,,,,,,3,,,,79,45
17340,note_on,0,0,11,,,,,,,,10,,,,70,30
17340,note_on,0,0,10,,,,,,,,8,,,,79,30
17340,note_off,120,0,10,,,,,,,,8,,,,78,64
17340,note_off,120,0,6,,,,,,,,4,,,,69,64
17340,note_off,120,0,11,,,,,,,,10,,,,69,64
17455,note_off,115,0,10,,,,,,,,8,,,,79,64
17455,note_off,115,0,5,,,,,,,,3,,,,79,64
17455,note_off,235,0,15,,,,,,,,14,,,,38,64
17455,note_off,235,0,2,,,,,,,,0,,,,50,64
17455,note_off,115,0,6,,,,,,,,4,,,,70,64
17455,note_off,115,0,11,,,,,,,,10,,,,70,64
17460,note_on,5,0,6,,,,,,,,4,,,,72,45
17460,note_on,5,0,5,,,,,,,,3,,,,81,45
17460,note_on,5,0,11,,,,,,,,10,,,,72,30
17460,note_on,5,0,10,,,,,,,,8,,,,81,30
17460,note_on,0,0,9,,,,,,,,7,,,,26,30
17460,note_off,240,0,9,,,,,,,,7,,,,38,64
17460,note_off,240,0,12,,,,,,,,11,,,,66,64
17460,note_on,0,0,12,,,,,,,,11,,,,66,30
17460,note_off,240,0,7,,,,,,,,5,,,,66,64
17460,note_on,5,0,2,,,,,,,,0,,,,38,30
17460,note_on,0,0,7,,,,,,,,5,,,,66,30
17460,note_on,5,0,15,,,,,,,,14,,,,26,30
17460,note_off,240,0,14,,,,,,,,13,,,,38,64
17460,note_off,240,0,13,,,,,,,,12,,,,50,64
17460,note_on,0,0,14,,,,,,,,13,,,,26,30
17460,note_on,0,0,13,,,,,,,,12,,,,38,30
17460,note_on,0,0,8,,,,,,,,6,,,,38,30
17460,note_off,240,0,8,,,,,,,,6,,,,50,64
17695,note_off,235,0,2,,,,,,,,0,,,,38,64
17695,note_off,235,0,15,,,,,,,,14,,,,26,64
17700,note_off,240,0,14,,,,,,,,13,,,,26,64
17700,note_off,240,0,9,,,,,,,,7,,,,26,64
17700,note_off,240,0,8,,,,,,,,6,,,,38,64
17700,note_off,240,0,6,,,,,,,,4,,,,72,64
17700,note_off,240,0,5,,,,,,,,3,,,,81,64
17700,note_off,240,0,13,,,,,,,,12,,,,38,64
17700,note_off,240,0,11,,,,,,,,10,,,,72,64
17700,note_off,240,0,10,,,,,,,,8,,,,81,64
17700,note_off,240,0,12,,,,,,,,11,,,,66,64
17700,note_off,240,0,7,,,,,,,,5,,,,66,64
17940,note_on,240,0,9,,,,,,,,7,,,,31,30
17940,note_on,240,0,12,,,,,,,,11,,,,62,30
17940,note_on,240,0,8,,,,,,,,6,,,,43,30
17940,note_on,240,0,7,,,,,,,,5,,,,62,30
17940,note_on,245,0,2,,,,,,,,0,,,,43,30
17940,note_on,240,0,5,,,,,,,,3,,,,79,45
17940,note_on,245,0,15,,,,,,,,14,,,,31,30
17940,note_on,240,0,13,,,,,,,,12,,,,43,30
17940,note_on,240,0,11,,,,,,,,10,,,,70,30
17940,note_on,240,0,6,,,,,,,,4,,,,70,45
17940,note_on,240,0,14,,,,,,,,13,,,,31,30
17940,note_on,240,0,10,,,,,,,,8,,,,79,30
18340,note_off,400,0,2,,,,,,,,0,,,,43,64
18340,note_off,400,0,15,,,,,,,,14,,,,31,64
18420,note_off,480,0,14,,,,,,,,13,,,,31,64
18420,note_off,480,0,13,,,,,,,,12,,,,43,64
18420,note_off,480,0,12,,,,,,,,11,,,,62,64
18420,note_off,480,0,11,,,,,,,,10,,,,70,64
18420,note_off,480,0,7,,,,,,,,5,,,,62,64
18420,note_off,480,0,6,,,,,,,,4,,,,70,64
18420,note_off,480,0,10,,,,,,,,8,,,,79,64
18420,note_off,480,0,9,,,,,,,,7,,,,31,64
18420,note_off,480,0,8,,,,,,,,6,,,,43,64
18420,note_off,480,0,5,,,,,,,,3,,,,79,64
18660,set_tempo,3840,1,0,1578947,,,,,,,,,,,,
18900,note_on,480,0,13,,,,,,,,12,,,,55,30
18900,note_on,560,0,15,,,,,,,,14,,,,43,30
18900,note_on,560,0,2,,,,,,,,0,,,,55,30
18900,note_on,480,0,9,,,,,,,,7,,,,43,30
18900,note_on,480,0,11,,,,,,,,10,,,,67,30
18900,note_on,480,0,14,,,,,,,,13,,,,43,30
18900,note_on,480,0,10,,,,,,,,8,,,,70,30
18900,note_on,480,0,5,,,,,,,,3,,,,70,45
18900,note_on,480,0,8,,,,,,,,6,,,,55,30
18900,note_on,480,0,6,,,,,,,,4,,,,67,45
18900,note_on,480,0,12,,,,,,,,11,,,,62,30
18900,note_on,480,0,7,,,,,,,,5,,,,62,30
19020,note_on,0,0,6,,,,,,,,4,,,,69,45
19020,note_on,0,0,10,,,,,,,,8,,,,72,30
19020,note_off,120,0,6,,,,,,,,4,,,,67,64
19020,note_off,120,0,5,,,,,,,,3,,,,70,64
19020,note_on,0,0,5,,,,,,,,3,,,,72,45
19020,note_off,120,0,11,,,,,,,,10,,,,67,64
19020,note_on,0,0,11,,,,,,,,10,,,,69,30
19020,note_off,120,0,10,,,,,,,,8,,,,70,64
19135,note_off,115,0,5,,,,,,,,3,,,,72,64
19135,note_off,115,0,6,,,,,,,,4,,,,69,64
19135,note_off,235,0,15,,,,,,,,14,,,,43,64
19135,note_off,115,0,10,,,,,,,,8,,,,72,64
19135,note_off,115,0,11,,,,,,,,10,,,,69,64
19135,note_off,235,0,2,,,,,,,,0,,,,55,64
19140,note_on,5,0,5,,,,,,,,3,,,,74,45
19140,note_on,5,0,11,,,,,,,,10,,,,70,30
19140,note_off,240,0,13,,,,,,,,12,,,,55,64
19140,note_on,0,0,13,,,,,,,,12,,,,43,30
19140,note_on,0,0,14,,,,,,,,13,,,,31,30
19140,note_off,240,0,14,,,,,,,,13,,,,43,64
19140,note_on,5,0,10,,,,,,,,8,,,,74,30
19140,note_off,240,0,8,,,,,,,,6,,,,55,64
19140,note_on,0,0,8,,,,,,,,6,,,,43,30
19140,note_on,0,0,9,,,,,,,,7,,,,31,30
19140,note_off,240,0,9,,,,,,,,7,,,,43,64
19140,note_on,5,0,15,,,,,,,,14,,,,31,30
19140,note_on,5,0,6,,,,,,,,4,,,,70,45
19140,note_off,240,0,7,,,,,,,,5,,,,62,64
19140,note_off,240,0,12,,,,,,,,11,,,,62,64
19140,note_on,0,0,7,,,,,,,,5,,,,62,30
19140,note_on,5,0,2,,,,,,,,0,,,,43,30
19140,note_on,0,0,12,,,,,,,,11,,,,62,30
19375,note_off,235,0,15,,,,,,,,14,,,,31,64
19375,note_off,235,0,2,,,,,,,,0,,,,43,64
19380,note_off,240,0,9,,,,,,,,7,,,,31,64
19380,note_off,240,0,5,,,,,,,,3,,,,74,64
19380,note_off,240,0,11,,,,,,,,10,,,,70,64
19380,note_off,240,0,12,,,,,,,,11,,,,62,64
19380,note_off,240,0,13,,,,,,,,12,,,,43,64
19380,note_off,240,0,6,,,,,,,,4,,,,70,64
19380,note_off,240,0,7,,,,,,,,5,,,,62,64
19380,note_off,240,0,14,,,,,,,,13,,,,31,64
19380,set_tempo,720,1,0,1666666,,,,,,,,,,,,
19380,note_off,240,0,10,,,,,,,,8,,,,74,64
19380,note_off,240,0,8,,,,,,,,6,,,,43,64
19620,note_on,240,0,7,,,,,,,,5,,,,63,28
19620,note_on,240,0,6,,,,,,,,4,,,,60,44
19620,note_on,240,0,13,,,,,,,,12,,,,60,28
19620,note_on,240,0,5,,,,,,,,3,,,,68,44
19620,note_on,240,0,10,,,,,,,,8,,,,68,28
19620,note_on,240,0,9,,,,,,,,7,,,,48,28
19620,note_on,245,0,15,,,,,,,,14,,,,48,28
19620,note_on,240,0,12,,,,,,,,11,,,,63,28
19620,note_on,240,0,8,,,,,,,,6,,,,60,28
19620,note_on,240,0,14,,,,,,,,13,,,,48,28
19620,note_on,240,0,11,,,,,,,,10,,,,60,28
19620,note_on,245,0,2,,,,,,,,0,,,,60,28
19740,note_off,120,0,6,,,,,,,,4,,,,60,64
19740,note_off,120,0,5,,,,,,,,3,,,,68,64
19740,note_on,0,0,6,,,,,,,,4,,,,62,44
19740,note_on,0,0,5,,,,,,,,3,,,,70,44
19740,note_off,120,0,11,,,,,,,,10,,,,60,64
19740,note_on,0,0,11,,,,,,,,10,,,,62,27
19740,note_off,120,0,10,,,,,,,,8,,,,68,64
19740,note_on,0,0,10,,,,,,,,8,,,,70,27
19855,note_off,235,0,2,,,,,,,,0,,,,60,64
19855,note_off,235,0,15,,,,,,,,14,,,,48,64
19855,note_off,115,0,5,,,,,,,,3,,,,70,64
19855,note_off,115,0,11,,,,,,,,10,,,,62,64
19855,note_off,115,0,10,,,,,,,,8,,,,70,64
19855,note_off,115,0,6,,,,,,,,4,,,,62,64
19860,note_on,5,0,11,,,,,,,,10,,,,63,26
19860,note_off,240,0,13,,,,,,,,12,,,,60,64
19860,note_off,240,0,14,,,,,,,,13,,,,48,64
19860,note_off,240,0,12,,,,,,,,11,,,,63,64
19860,note_on,5,0,2,,,,,,,,0,,,,48,26
19860,note_on,0,0,13,,,,,,,,12,,,,48,26
19860,note_on,5,0,5,,,,,,,,3,,,,72,44
19860,note_on,0,0,12,,,,,,,,11,,,,63,26
19860,note_on,0,0,8,,,,,,,,6,,,,48,26
19860,note_on,5,0,15,,,,,,,,14,,,,36,26
19860,note_on,0,0,9,,,,,,,,7,,,,36,26
19860,note_off,240,0,9,,,,,,,,7,,,,48,64
19860,note_on,5,0,6,,,,,,,,4,,,,63,44
19860,note_on,5,0,10,,,,,,,,8,,,,72,26
19860,note_off,240,0,7,,,,,,,,5,,,,63,64
19860,note_on,0,0,7,,,,,,,,5,,,,63,26
19860,note_on,0,0,14,,,,,,,,13,,,,36,26
19860,note_off,240,0,8,,,,,,,,6,,,,60,64
20095,note_off,235,0,15,,,,,,,,14,,,,36,64
20095,note_off,235,0,2,,,,,,,,0,,,,48,64
20100,note_off,240,0,5,,,,,,,,3,,,,72,64
20100,note_off,240,0,6,,,,,,,,4,,,,63,64
20100,note_off,240,0,11,,,,,,,,10,,,,63,64
20100,note_off,240,0,12,,,,,,,,11,,,,63,64
20100,note_off,240,0,14,,,,,,,,13,,,,36,64
20100,note_off,240,0,13,,,,,,,,12,,,,48,64
20100,note_off,240,0,10,,,,,,,,8,,,,72,64
20100,note_off,240,0,9,,,,,,,,7,,,,36,64
20100,note_off,240,0,7,,,,,,,,5,,,,63,64
20100,note_off,240,0,8,,,,,,,,6,,,,48,64
20100,set_tempo,720,1,0,1764705,,,,,,,,,,,,
20340,note_on,240,0,7,,,,,,,,5,,,,62,22
20340,note_on,240,0,5,,,,,,,,3,,,,67,42
20340,note_on,240,0,14,,,,,,,,13,,,,43,22
20340,note_on,245,0,2,,,,,,,,0,,,,55,22
20340,note_on,240,0,13,,,,,,,,12,,,,55,22
20340,note_on,245,0,15,,,,,,,,14,,,,43,22
20340,note_on,240,0,8,,,,,,,,6,,,,55,22
20340,note_on,240,0,10,,,,,,,,8,,,,67,22
20340,note_on,240,0,6,,,,,,,,4,,,,58,42
20340,note_on,240,0,9,,,,,,,,7,,,,43,22
20340,note_on,240,0,12,,,,,,,,11,,,,62,22
20340,note_on,240,0,11,,,,,,,,10,,,,58,22
20460,note_off,120,0,10,,,,,,,,8,,,,67,64
20460,note_off,120,0,5,,,,,,,,3,,,,67,64
20460,note_on,0,0,10,,,,,,,,8,,,,69,21
20460,note_on,0,0,5,,,,,,,,3,,,,69,41
20460,note_off,120,0,6,,,,,,,,4,,,,58,64
20460,note_off,120,0,11,,,,,,,,10,,,,58,64
20460,note_on,0,0,6,,,,,,,,4,,,,60,41
20460,note_on,0,0,11,,,,,,,,10,,,,60,21
20575,note_off,115,0,6,,,,,,,,4,,,,60,64
20575,note_off,235,0,2,,,,,,,,0,,,,55,64
20575,note_off,235,0,15,,,,,,,,14,,,,43,64
20575,note_off,115,0,10,,,,,,,,8,,,,69,64
20575,note_off,115,0,5,,,,,,,,3,,,,69,64
20575,note_off,115,0,11,,,,,,,,10,,,,60,64
20580,note_on,5,0,15,,,,,,,,14,,,,31,20
20580,note_on,5,0,6,,,,,,,,4,,,,62,40
20580,note_on,5,0,11,,,,,,,,10,,,,62,20
20580,note_off,240,0,12,,,,,,,,11,,,,62,64
20580,note_off,240,0,13,,,,,,,,12,,,,55,64
20580,note_on,5,0,10,,,,,,,,8,,,,70,20
20580,note_on,5,0,2,,,,,,,,0,,,,43,20
20580,note_on,0,0,14,,,,,,,,13,,,,31,20
20580,note_off,240,0,14,,,,,,,,13,,,,43,64
20580,note_on,0,0,12,,,,,,,,11,,,,62,20
20580,note_on,5,0,5,,,,,,,,3,,,,70,40
20580,note_on,0,0,13,,,,,,,,12,,,,43,20
20580,note_on,0,0,9,,,,,,,,7,,,,31,20
20580,note_off,240,0,9,,,,,,,,7,,,,43,64
20580,note_on,0,0,8,,,,,,,,6,,,,43,20
20580,note_off,240,0,8,,,,,,,,6,,,,55,64
20580,note_off,240,0,7,,,,,,,,5,,,,62,64
20580,note_on,0,0,7,,,,,,,,5,,,,62,20
20815,note_off,235,0,2,,,,,,,,0,,,,43,64
20815,note_off,235,0,15,,,,,,,,14,,,,31,64
20820,note_off,240,0,12,,,,,,,,11,,,,62,64
20820,note_off,240,0,8,,,,,,,,6,,,,43,64
20820,note_off,240,0,7,,,,,,,,5,,,,62,64
20820,note_off,240,0,6,,,,,,,,4,,,,62,64
20820,note_off,240,0,9,,,,,,,,7,,,,31,64
20820,note_off,240,0,14,,,,,,,,13,,,,31,64
20820,note_off,240,0,5,,,,,,,,3,,,,70,64
20820,note_off,240,0,10,,,,,,,,8,,,,70,64
20820,set_tempo,720,1,0,1875000,,,,,,,,,,,,
20820,note_off,240,0,11,,,,,,,,10,,,,62,64
20820,note_off,240,0,13,,,,,,,,12,,,,43,64
21060,note_on,245,0,15,,,,,,,,14,,,,38,16
21060,note_on,245,0,2,,,,,,,,0,,,,50,16
21060,note_on,240,0,8,,,,,,,,6,,,,50,16
21060,note_on,240,0,12,,,,,,,,11,,,,54,16
21060,note_on,240,0,13,,,,,,,,12,,,,50,16
21060,note_on,240,0,10,,,,,,,,8,,,,66,16
21060,note_on,240,0,7,,,,,,,,5,,,,54,16
21060,note_on,240,0,11,,,,,,,,10,,,,57,16
21060,note_on,240,0,6,,,,,,,,4,,,,57,36
21060,note_on,240,0,5,,,,,,,,3,,,,66,36
21060,note_on,240,0,9,,,,,,,,7,,,,38,16
21060,note_on,240,0,14,,,,,,,,13,,,,38,16
21180,note_on,0,0,5,,,,,,,,3,,,,67,35
21180,note_on,0,0,11,,,,,,,,10,,,,58,15
21180,note_on,0,0,6,,,,,,,,4,,,,58,35
21180,note_off,120,0,6,,,,,,,,4,,,,57,64
21180,note_off,120,0,10,,,,,,,,8,,,,66,64
21180,note_off,120,0,5,,,,,,,,3,,,,66,64
21180,note_off,120,0,11,,,,,,,,10,,,,57,64
21180,note_on,0,0,10,,,,,,,,8,,,,67,15
21295,note_off,235,0,2,,,,,,,,0,,,,50,64
21295,note_off,115,0,10,,,,,,,,8,,,,67,64
21295,note_off,115,0,5,,,,,,,,3,,,,67,64
21295,note_off,115,0,6,,,,,,,,4,,,,58,64
21295,note_off,115,0,11,,,,,,,,10,,,,58,64
21295,note_off,235,0,15,,,,,,,,14,,,,38,64
21300,note_on,0,0,12,,,,,,,,11,,,,54,14
21300,note_on,5,0,2,,,,,,,,0,,,,38,14
21300,note_on,0,0,7,,,,,,,,5,,,,54,14
21300,note_on,0,0,9,,,,,,,,7,,,,26,14
21300,note_off,240,0,9,,,,,,,,7,,,,38,64
21300,note_off,240,0,12,,,,,,,,11,,,,54,64
21300,note_on,0,0,8,,,,,,,,6,,,,38,14
21300,note_off,240,0,8,,,,,,,,6,,,,50,64
21300,note_on,5,0,15,,,,,,,,14,,,,26,14
21300,note_off,240,0,7,,,,,,,,5,,,,54,64
21300,note_on,5,0,11,,,,,,,,10,,,,60,14
21300,note_off,240,0,13,,,,,,,,12,,,,50,64
21300,note_on,0,0,13,,,,,,,,12,,,,38,14
21300,note_off,240,0,14,,,,,,,,13,,,,38,64
21300,note_on,0,0,14,,,,,,,,13,,,,26,14
21300,note_on,5,0,6,,,,,,,,4,,,,60,34
21300,note_on,5,0,10,,,,,,,,8,,,,69,14
21300,note_on,5,0,5,,,,,,,,3,,,,69,34
21535,note_off,235,0,15,,,,,,,,14,,,,26,64
21535,note_off,235,0,2,,,,,,,,0,,,,38,64
21540,note_off,240,0,13,,,,,,,,12,,,,38,64
21540,note_off,240,0,6,,,,,,,,4,,,,60,64
21540,note_off,240,0,12,,,,,,,,11,,,,54,64
21540,note_off,240,0,8,,,,,,,,6,,,,38,64
21540,note_off,240,0,7,,,,,,,,5,,,,54,64
21540,note_off,240,0,10,,,,,,,,8,,,,69,64
21540,note_off,240,0,11,,,,,,,,10,,,,60,64
21540,note_off,240,0,14,,,,,,,,13,,,,26,64
21540,note_off,240,0,5,,,,,,,,3,,,,69,64
21540,note_off,240,0,9,,,,,,,,7,,,,26,64
21780,note_on,240,0,9,,,,,,,,7,,,,31,10
21780,note_on,245,0,15,,,,,,,,14,,,,31,10
21780,note_on,240,0,5,,,,,,,,3,,,,67,30
21780,note_on,240,0,10,,,,,,,,8,,,,67,10
21780,note_on,240,0,13,,,,,,,,12,,,,43,10
21780,note_on,245,0,2,,,,,,,,0,,,,43,10
21780,note_on,240,0,14,,,,,,,,13,,,,31,10
21780,note_on,240,0,11,,,,,,,,10,,,,58,10
21780,note_on,240,0,12,,,,,,,,11,,,,50,10
21780,note_on,240,0,6,,,,,,,,4,,,,58,30
21780,note_on,240,0,7,,,,,,,,5,,,,50,10
21780,note_on,240,0,8,,,,,,,,6,,,,43,10
22180,note_off,400,0,2,,,,,,,,0,,,,43,64
22180,note_off,400,0,15,,,,,,,,14,,,,31,64
22320,time_signature,1500,1,0,,4,4,24,8,,,,,,,,
22740,note_off,960,0,10,,,,,,,,8,,,,67,64
22740,note_off,960,0,14,,,,,,,,13,,,,31,64
22740,note_off,960,0,5,,,,,,,,3,,,,67,64
22740,note_off,960,0,11,,,,,,,,10,,,,58,64
22740,note_off,960,0,7,,,,,,,,5,,,,50,64
22740,note_off,960,0,8,,,,,,,,6,,,,43,64
22740,note_off,960,0,6,,,,,,,,4,,,,58,64
22740,note_off,960,0,9,,,,,,,,7,,,,31,64
22740,note_off,960,0,12,,,,,,,,11,,,,50,64
22740,note_off,960,0,13,,,,,,,,12,,,,43,64
22980,note_on,22980,0,4,,,,,,,,2,,,,67,60
22980,set_tempo,660,1,0,500000,,,,,,,,,,,,
22980,note_on,800,0,2,,,,,,,,0,,,,43,45
22980,note_on,240,0,13,,,,,,,,12,,,,43,45
22980,note_on,22980,0,3,,,,,,,,1,,,,67,75
22980,note_on,800,0,15,,,,,,,,14,,,,31,45
22980,note_on,8160,0,1,,,,,,,,0,,,,55,45
22980,note_on,240,0,8,,,,,,,,6,,,,43,45
22980,note_on,240,0,14,,,,,,,,13,,,,31,45
22980,note_on,240,0,9,,,,,,,,7,,,,31,45
23060,note_off,80,0,3,,,,,,,,1,,,,67,64
23060,note_off,80,0,4,,,,,,,,2,,,,67,64
23100,note_on,40,0,3,,,,,,,,1,,,,79,75
23100,note_on,40,0,4,,,,,,,,2,,,,79,60
23180,note_off,80,0,4,,,,,,,,2,,,,79,64
23180,note_off,80,0,3,,,,,,,,1,,,,79,64
23220,note_on,40,0,3,,,,,,,,1,,,,79,75
23220,note_on,40,0,4,,,,,,,,2,,,,79,60
23300,note_off,80,0,4,,,,,,,,2,,,,79,64
23300,note_off,80,0,3,,,,,,,,1,,,,79,64
23335,note_off,355,0,9,,,,,,,,7,,,,31,64
23335,note_off,355,0,15,,,,,,,,14,,,,31,64
23335,note_off,355,0,8,,,,,,,,6,,,,43,64
23335,note_off,355,0,14,,,,,,,,13,,,,31,64
23335,note_off,355,0,1,,,,,,,,0,,,,55,64
23335,note_off,355,0,13,,,,,,,,12,,,,43,64
23335,note_off,355,0,2,,,,,,,,0,,,,43,64
23340,note_on,5,0,9,,,,,,,,7,,,,43,45
23340,note_on,5,0,15,,,,,,,,14,,,,43,45
23340,note_on,40,0,4,,,,,,,,2,,,,79,60
23340,note_on,5,0,8,,,,,,,,6,,,,55,45
23340,note_on,5,0,1,,,,,,,,0,,,,67,45
23340,note_on,5,0,13,,,,,,,,12,,,,55,45
23340,note_on,5,0,2,,,,,,,,0,,,,55,45
23340,note_on,40,0,3,,,,,,,,1,,,,79,75
23340,note_on,5,0,14,,,,,,,,13,,,,43,45
23420,note_off,80,0,4,,,,,,,,2,,,,79,64
23420,note_off,80,0,3,,,,,,,,1,,,,79,64
23455,note_off,115,0,8,,,,,,,,6,,,,55,64
23455,note_off,115,0,1,,,,,,,,0,,,,67,64
23455,note_off,115,0,13,,,,,,,,12,,,,55,64
23455,note_off,115,0,15,,,,,,,,14,,,,43,64
23455,note_off,115,0,9,,,,,,,,7,,,,43,64
23455,note_off,115,0,14,,,,,,,,13,,,,43,64
23455,note_off,115,0,2,,,,,,,,0,,,,55,64
23460,note_on,5,0,2,,,,,,,,0,,,,43,45
23460,note_on,40,0,3,,,,,,,,1,,,,79,75
23460,note_on,5,0,13,,,,,,,,12,,,,43,45
23460,note_on,5,0,8,,,,,,,,6,,,,43,45
23460,note_on,5,0,1,,,,,,,,0,,,,55,45
23460,note_on,5,0,15,,,,,,,,14,,,,31,45
23460,note_on,40,0,4,,,,,,,,2,,,,79,60
23460,note_on,5,0,14,,,,,,,,13,,,,31,45
23460,note_on,5,0,9,,,,,,,,7,,,,31,45
23540,note_off,80,0,4,,,,,,,,2,,,,79,64
23540,note_off,80,0,3,,,,,,,,1,,,,79,64
23580,note_on,40,0,3,,,,,,,,1,,,,79,75
23580,note_on,40,0,4,,,,,,,,2,,,,79,60
23660,note_off,80,0,4,,,,,,,,2,,,,79,64
23660,note_off,80,0,3,,,,,,,,1,,,,79,64
23700,note_on,40,0,3,,,,,,,,1,,,,70,75
23700,note_on,40,0,4,,,,,,,,2,,,,70,60
23780,note_off,80,0,4,,,,,,,,2,,,,70,64
23780,note_off,80,0,3,,,,,,,,1,,,,70,64
23820,note_on,40,0,4,,,,,,,,2,,,,79,60
23820,note_on,40,0,3,,,,,,,,1,,,,79,75
23860,note_off,400,0,14,,,,,,,,13,,,,31,64
23860,note_off,400,0,9,,,,,,,,7,,,,31,64
23860,note_off,400,0,8,,,,,,,,6,,,,43,64
23860,note_off,400,0,1,,,,,,,,0,,,,55,64
23860,note_off,400,0,13,,,,,,,,12,,,,43,64
23860,note_off,400,0,15,,,,,,,,14,,,,31,64
23860,note_off,400,0,2,,,,,,,,0,,,,43,64
23900,note_off,80,0,3,,,,,,,,1,,,,79,64
23900,note_off,80,0,4,,,,,,,,2,,,,79,64
23940,note_on,40,0,3,,,,,,,,1,,,,67,75
23940,note_on,40,0,4,,,,,,,,2,,,,67,60
24020,note_off,80,0,4,,,,,,,,2,,,,67,64
24020,note_off,80,0,3,,,,,,,,1,,,,67,64
24060,note_on,40,0,3,,,,,,,,1,,,,79,75
24060,note_on,40,0,4,,,,,,,,2,,,,79,60
24140,note_off,80,0,3,,,,,,,,1,,,,79,64
24140,note_off,80,0,4,,,,,,,,2,,,,79,64
24180,note_on,40,0,3,,,,,,,,1,,,,79,75
24180,note_on,40,0,4,,,,,,,,2,,,,79,60
24260,note_off,80,0,4,,,,,,,,2,,,,79,64
24260,note_off,80,0,3,,,,,,,,1,,,,79,64
24300,note_on,40,0,4,,,,,,,,2,,,,79,60
24300,note_on,440,0,9,,,,,,,,7,,,,43,45
24300,note_on,440,0,13,,,,,,,,12,,,,55,45
24300,note_on,440,0,1,,,,,,,,0,,,,67,45
24300,note_on,440,0,15,,,,,,,,14,,,,43,45
24300,note_on,440,0,14,,,,,,,,13,,,,43,45
24300,note_on,440,0,8,,,,,,,,6,,,,55,45
24300,note_on,440,0,2,,,,,,,,0,,,,55,45
24300,note_on,40,0,3,,,,,,,,1,,,,79,75
24380,note_off,80,0,3,,,,,,,,1,,,,79,64
24380,note_off,80,0,4,,,,,,,,2,,,,79,64
24415,note_off,115,0,14,,,,,,,,13,,,,43,64
24415,note_off,115,0,1,,,,,,,,0,,,,67,64
24415,note_off,115,0,9,,,,,,,,7,,,,43,64
24415,note_off,115,0,13,,,,,,,,12,,,,55,64
24415,note_off,115,0,15,,,,,,,,14,,,,43,64
24415,note_off,115,0,8,,,,,,,,6,,,,55,64
24415,note_off,115,0,2,,,,,,,,0,,,,55,64
24420,note_on,5,0,14,,,,,,,,13,,,,31,45
24420,note_on,40,0,3,,,,,,,,1,,,,79,75
24420,note_on,5,0,1,,,,,,,,0,,,,55,45
24420,note_on,40,0,4,,,,,,,,2,,,,79,60
24420,note_on,5,0,2,,,,,,,,0,,,,43,45
24420,note_on,5,0,13,,,,,,,,12,,,,43,45
24420,note_on,5,0,15,,,,,,,,14,,,,31,45
24420,note_on,5,0,9,,,,,,,,7,,,,31,45
24420,note_on,5,0,8,,,,,,,,6,,,,43,45
24500,note_off,80,0,4,,,,,,,,2,,,,79,64
24500,note_off,80,0,3,,,,,,,,1,,,,79,64
24540,note_on,40,0,4,,,,,,,,2,,,,79,60
24540,note_on,40,0,3,,,,,,,,1,,,,79,75
24620,note_off,80,0,4,,,,,,,,2,,,,79,64
24620,note_off,80,0,3,,,,,,,,1,,,,79,64
24660,note_on,40,0,3,,,,,,,,1,,,,70,75
24660,note_on,40,0,4,,,,,,,,2,,,,70,60
24740,note_off,80,0,4,,,,,,,,2,,,,70,64
24740,note_off,80,0,3,,,,,,,,1,,,,70,64
24780,note_on,40,0,4,,,,,,,,2,,,,79,60
24780,note_on,40,0,3,,,,,,,,1,,,,79,75
24820,note_off,400,0,14,,,,,,,,13,,,,31,64
24820,note_off,400,0,15,,,,,,,,14,,,,31,64
24820,note_off,400,0,13,,,,,,,,12,,,,43,64
24820,note_off,400,0,2,,,,,,,,0,,,,43,64
24820,note_off,400,0,8,,,,,,,,6,,,,43,64
24820,note_off,400,0,9,,,,,,,,7,,,,31,64
24820,note_off,400,0,1,,,,,,,,0,,,,55,64
24860,note_off,80,0,4,,,,,,,,2,,,,79,64
24860,note_off,80,0,3,,,,,,,,1,,,,79,64
24900,note_on,40,0,3,,,,,,,,1,,,,67,75
24900,note_on,80,0,15,,,,,,,,14,,,,31,45
24900,note_on,80,0,14,,,,,,,,13,,,,31,45
24900,note_on,80,0,9,,,,,,,,7,,,,31,45
24900,note_on,80,0,2,,,,,,,,0,,,,43,45
24900,note_on,80,0,8,,,,,,,,6,,,,43,45
24900,note_on,80,0,1,,,,,,,,0,,,,55,45
24900,note_on,80,0,13,,,,,,,,12,,,,43,45
24900,note_on,40,0,4,,,,,,,,2,,,,67,60
24980,note_off,80,0,3,,,,,,,,1,,,,67,64
24980,note_off,80,0,4,,,,,,,,2,,,,67,64
25020,note_on,40,0,4,,,,,,,,2,,,,79,60
25020,note_on,40,0,3,,,,,,,,1,,,,79,75
25100,note_off,80,0,4,,,,,,,,2,,,,79,64
25100,note_off,80,0,3,,,,,,,,1,,,,79,64
25140,note_on,40,0,3,,,,,,,,1,,,,79,75
25140,note_on,40,0,4,,,,,,,,2,,,,79,60
25220,note_off,80,0,3,,,,,,,,1,,,,79,64
25220,note_off,80,0,4,,,,,,,,2,,,,79,64
25255,note_off,355,0,9,,,,,,,,7,,,,31,64
25255,note_off,355,0,14,,,,,,,,13,,,,31,64
25255,note_off,355,0,13,,,,,,,,12,,,,43,64
25255,note_off,355,0,2,,,,,,,,0,,,,43,64
25255,note_off,355,0,1,,,,,,,,0,,,,55,64
25255,note_off,355,0,8,,,,,,,,6,,,,43,64
25255,note_off,355,0,15,,,,,,,,14,,,,31,64
25260,note_on,5,0,15,,,,,,,,14,,,,43,45
25260,note_on,5,0,2,,,,,,,,0,,,,55,45
25260,note_on,5,0,9,,,,,,,,7,,,,43,45
25260,note_on,5,0,1,,,,,,,,0,,,,67,45
25260,note_on,5,0,8,,,,,,,,6,,,,55,45
25260,note_on,40,0,4,,,,,,,,2,,,,79,60
25260,note_on,40,0,3,,,,,,,,1,,,,79,75
25260,note_on,5,0,13,,,,,,,,12,,,,55,45
25260,note_on,5,0,14,,,,,,,,13,,,,43,45
25340,note_off,80,0,3,,,,,,,,1,,,,79,64
25340,note_off,80,0,4,,,,,,,,2,,,,79,64
25375,note_off,115,0,1,,,,,,,,0,,,,67,64
25375,note_off,115,0,14,,,,,,,,13,,,,43,64
25375,note_off,115,0,15,,,,,,,,14,,,,43,64
25375,note_off,115,0,9,,,,,,,,7,,,,43,64
25375,note_off,115,0,8,,,,,,,,6,,,,55,64
25375,note_off,115,0,13,,,,,,,,12,,,,55,64
25375,note_off,115,0,2,,,,,,,,0,,,,55,64
25380,note_on,5,0,9,,,,,,,,7,,,,31,45
25380,note_on,5,0,15,,,,,,,,14,,,,31,45
25380,note_on,5,0,14,,,,,,,,13,,,,31,45
25380,note_on,40,0,3,,,,,,,,1,,,,79,75
25380,note_on,5,0,13,,,,,,,,12,,,,43,45
25380,note_on,40,0,4,,,,,,,,2,,,,79,60
25380,note_on,5,0,8,,,,,,,,6,,,,43,45
25380,note_on,5,0,1,,,,,,,,0,,,,55,45
25380,note_on,5,0,2,,,,,,,,0,,,,43,45
25460,note_off,80,0,4,,,,,,,,2,,,,79,64
25460,note_off,80,0,3,,,,,,,,1,,,,79,64
25500,note_on,40,0,4,,,,,,,,2,,,,79,60
25500,note_on,40,0,3,,,,,,,,1,,,,79,75
25580,note_off,80,0,3,,,,,,,,1,,,,79,64
25580,note_off,80,0,4,,,,,,,,2,,,,79,64
25620,note_on,40,0,3,,,,,,,,1,,,,70,75
25620,note_on,40,0,4,,,,,,,,2,,,,70,60
25700,note_off,80,0,4,,,,,,,,2,,,,70,64
25700,note_off,80,0,3,,,,,,,,1,,,,70,64
25740,note_on,40,0,4,,,,,,,,2,,,,79,60
25740,note_on,40,0,3,,,,,,,,1,,,,79,75
25780,note_off,400,0,1,,,,,,,,0,,,,55,64
25780,note_off,400,0,9,,,,,,,,7,,,,31,64
25780,note_off,400,0,15,,,,,,,,14,,,,31,64
25780,note_off,400,0,2,,,,,,,,0,,,,43,64
25780,note_off,400,0,8,,,,,,,,6,,,,43,64
25780,note_off,400,0,14,,,,,,,,13,,,,31,64
25780,note_off,400,0,13,,,,,,,,12,,,,43,64
25820,note_off,80,0,4,,,,,,,,2,,,,79,64
25820,note_off,80,0,3,,,,,,,,1,,,,79,64
25860,note_on,40,0,4,,,,,,,,2,,,,67,60
25860,note_on,40,0,3,,,,,,,,1,,,,67,75
25940,note_off,80,0,4,,,,,,,,2,,,,67,64
25940,note_off,80,0,3,,,,,,,,1,,,,67,64
25980,note_on,40,0,4,,,,,,,,2,,,,79,60
25980,note_on,40,0,3,,,,,,,,1,,,,79,75
26060,note_off,80,0,4,,,,,,,,2,,,,79,64
26060,note_off,80,0,3,,,,,,,,1,,,,79,64
26100,note_on,40,0,3,,,,,,,,1,,,,79,75
26100,note_on,40,0,4,,,,,,,,2,,,,79,60
26180,note_off,80,0,3,,,,,,,,1,,,,79,64
26180,note_off,80,0,4,,,,,,,,2,,,,79,64
26220,note_on,440,0,14,,,,,,,,13,,,,43,45
26220,note_on,440,0,15,,,,,,,,14,,,,43,45
26220,note_on,440,0,8,,,,,,,,6,,,,55,45
26220,note_on,40,0,3,,,,,,,,1,,,,79,75
26220,note_on,40,0,4,,,,,,,,2,,,,79,60
26220,note_on,440,0,13,,,,,,,,12,,,,55,45
26220,note_on,440,0,2,,,,,,,,0,,,,55,45
26220,note_on,440,0,9,,,,,,,,7,,,,43,45
26220,note_on,440,0,1,,,,,,,,0,,,,67,45
26300,note_off,80,0,4,,,,,,,,2,,,,79,64
26300,note_off,80,0,3,,,,,,,,1,,,,79,64
26335,note_off,115,0,14,,,,,,,,13,,,,43,64
26335,note_off,115,0,9,,,,,,,,7,,,,43,64
26335,note_off,115,0,1,,,,,,,,0,,,,67,64
26335,note_off,115,0,8,,,,,,,,6,,,,55,64
26335,note_off,115,0,15,,,,,,,,14,,,,43,64
26335,note_off,115,0,13,,,,,,,,12,,,,55,64
26335,note_off,115,0,2,,,,,,,,0,,,,55,64
26340,note_on,5,0,9,,,,,,,,7,,,,31,45
26340,note_on,5,0,1,,,,,,,,0,,,,55,45
26340,note_on,5,0,15,,,,,,,,14,,,,31,45
26340,note_on,5,0,14,,,,,,,,13,,,,31,45
26340,note_on,5,0,8,,,,,,,,6,,,,43,45
26340,note_on,5,0,2,,,,,,,,0,,,,43,45
26340,note_on,40,0,4,,,,,,,,2,,,,79,60
26340,note_on,40,0,3,,,,,,,,1,,,,79,75
26340,note_on,5,0,13,,,,,,,,12,,,,43,45
26420,note_off,80,0,4,,,,,,,,2,,,,79,64
26420,note_off,80,0,3,,,,,,,,1,,,,79,64
26460,note_on,40,0,4,,,,,,,,2,,,,79,60
26460,note_on,40,0,3,,,,,,,,1,,,,79,75
26540,note_off,80,0,4,,,,,,,,2,,,,79,64
26540,note_off,80,0,3,,,,,,,,1,,,,79,64
26580,note_on,40,0,4,,,,,,,,2,,,,70,60
26580,note_on,40,0,3,,,,,,,,1,,,,70,75
26660,note_off,80,0,4,,,,,,,,2,,,,70,64
26660,note_off,80,0,3,,,,,,,,1,,,,70,64
26700,note_on,40,0,4,,,,,,,,2,,,,79,60
26700,note_on,40,0,3,,,,,,,,1,,,,79,75
26740,note_off,400,0,1,,,,,,,,0,,,,55,64
26740,note_off,400,0,8,,,,,,,,6,,,,43,64
26740,note_off,400,0,2,,,,,,,,0,,,,43,64
26740,note_off,400,0,15,,,,,,,,14,,,,31,64
26740,note_off,400,0,14,,,,,,,,13,,,,31,64
26740,note_off,400,0,13,,,,,,,,12,,,,43,64
26740,note_off,400,0,9,,,,,,,,7,,,,31,64
26780,note_off,80,0,3,,,,,,,,1,,,,79,64
26780,note_off,80,0,4,,,,,,,,2,,,,79,64
26820,note_on,40,0,3,,,,,,,,1,,,,67,75
26820,note_on,40,0,4,,,,,,,,2,,,,67,60
26900,note_off,80,0,3,,,,,,,,1,,,,67,64
26900,note_off,80,0,4,,,,,,,,2,,,,67,64
26940,note_on,40,0,3,,,,,,,,1,,,,79,75
26940,note_on,40,0,4,,,,,,,,2,,,,79,60
27020,note_off,80,0,3,,,,,,,,1,,,,79,64
27020,note_off,80,0,4,,,,,,,,2,,,,79,64
27060,note_on,40,0,4,,,,,,,,2,,,,79,60
27060,note_on,40,0,3,,,,,,,,1,,,,79,75
27140,note_off,80,0,3,,,,,,,,1,,,,79,64
27140,note_off,80,0,4,,,,,,,,2,,,,79,64
27180,note_on,440,0,13,,,,,,,,12,,,,55,45
27180,note_on,440,0,15,,,,,,,,14,,,,43,45
27180,note_on,40,0,4,,,,,,,,2,,,,79,60
27180,note_on,40,0,3,,,,,,,,1,,,,79,75
27180,note_on,440,0,1,,,,,,,,0,,,,67,45
27180,note_on,440,0,9,,,,,,,,7,,,,43,45
27180,note_on,440,0,2,,,,,,,,0,,,,55,45
27180,note_on,440,0,8,,,,,,,,6,,,,55,45
27180,note_on,440,0,14,,,,,,,,13,,,,43,45
27260,note_off,80,0,3,,,,,,,,1,,,,79,64
27260,note_off,80,0,4,,,,,,,,2,,,,79,64
27295,note_off,115,0,2,,,,,,,,0,,,,55,64
27295,note_off,115,0,13,,,,,,,,12,,,,55,64
27295,note_off,115,0,8,,,,,,,,6,,,,55,64
27295,note_off,115,0,1,,,,,,,,0,,,,67,64
27295,note_off,115,0,9,,,,,,,,7,,,,43,64
27295,note_off,115,0,14,,,,,,,,13,,,,43,64
27295,note_off,115,0,15,,,,,,,,14,,,,43,64
27300,note_on,5,0,14,,,,,,,,13,,,,31,45
27300,note_on,5,0,1,,,,,,,,0,,,,55,45
27300,note_on,5,0,8,,,,,,,,6,,,,43,45
27300,note_on,40,0,4,,,,,,,,2,,,,79,60
27300,note_on,5,0,2,,,,,,,,0,,,,43,45
27300,note_on,5,0,9,,,,,,,,7,,,,31,45
27300,note_on,40,0,3,,,,,,,,1,,,,79,75
27300,note_on,5,0,13,,,,,,,,12,,,,43,45
27300,note_on,5,0,15,,,,,,,,14,,,,31,45
27380,note_off,80,0,3,,,,,,,,1,,,,79,64
27380,note_off,80,0,4,,,,,,,,2,,,,79,64
27420,note_on,40,0,3,,,,,,,,1,,,,79,75
27420,note_on,40,0,4,,,,,,,,2,,,,79,60
27500,note_off,80,0,3,,,,,,,,1,,,,79,64
27500,note_off,80,0,4,,,,,,,,2,,,,79,64
27540,note_on,40,0,3,,,,,,,,1,,,,70,75
27540,note_on,40,0,4,,,,,,,,2,,,,70,60
27620,note_off,80,0,3,,,,,,,,1,,,,70,64
27620,note_off,80,0,4,,,,,,,,2,,,,70,64
27660,note_on,40,0,3,,,,,,,,1,,,,79,75
27660,note_on,40,0,4,,,,,,,,2,,,,79,60
27700,note_off,400,0,8,,,,,,,,6,,,,43,64
27700,note_off,400,0,13,,,,,,,,12,,,,43,64
27700,note_off,400,0,2,,,,,,,,0,,,,43,64
27700,note_off,400,0,1,,,,,,,,0,,,,55,64
27700,note_off,400,0,14,,,,,,,,13,,,,31,64
27700,note_off,400,0,15,,,,,,,,14,,,,31,64
27700,note_off,400,0,9,,,,,,,,7,,,,31,64
27740,note_off,80,0,4,,,,,,,,2,,,,79,64
27740,note_off,80,0,3,,,,,,,,1,,,,79,64
27780,note_on,80,0,9,,,,,,,,7,,,,43,45
27780,note_on,80,0,1,,,,,,,,0,,,,67,45
27780,note_on,40,0,3,,,,,,,,1,,,,67,75
27780,note_on,40,0,4,,,,,,,,2,,,,67,60
27780,note_on,80,0,13,,,,,,,,12,,,,55,45
27780,note_on,80,0,8,,,,,,,,6,,,,55,45
27780,note_on,80,0,15,,,,,,,,14,,,,43,45
27780,note_on,80,0,14,,,,,,,,13,,,,43,45
27780,note_on,80,0,2,,,,,,,,0,,,,55,45
27860,note_off,80,0,4,,,,,,,,2,,,,67,64
27860,note_off,80,0,3,,,,,,,,1,,,,67,64
27900,note_on,40,0,4,,,,,,,,2,,,,70,60
27900,note_on,40,0,3,,,,,,,,1,,,,70,75
27980,note_off,80,0,4,,,,,,,,2,,,,70,64
27980,note_off,80,0,3,,,,,,,,1,,,,70,64
28015,note_off,235,0,2,,,,,,,,0,,,,55,64
28015,note_off,235,0,13,,,,,,,,12,,,,55,64
28015,note_off,235,0,15,,,,,,,,14,,,,43,64
28015,note_off,235,0,8,,,,,,,,6,,,,55,64
28015,note_off,235,0,14,,,,,,,,13,,,,43,64
28015,note_off,235,0,9,,,,,,,,7,,,,43,64
28015,note_off,235,0,1,,,,,,,,0,,,,67,64
28020,note_on,40,0,4,,,,,,,,2,,,,69,60
28020,note_on,5,0,13,,,,,,,,12,,,,54,45
28020,note_on,5,0,2,,,,,,,,0,,,,54,45
28020,note_on,5,0,14,,,,,,,,13,,,,42,45
28020,note_on,40,0,3,,,,,,,,1,,,,69,75
28020,note_on,5,0,1,,,,,,,,0,,,,66,45
28020,note_on,5,0,15,,,,,,,,14,,,,42,45
28020,note_on,5,0,9,,,,,,,,7,,,,42,45
28020,note_on,5,0,8,,,,,,,,6,,,,54,45
28100,note_off,80,0,3,,,,,,,,1,,,,69,64
28100,note_off,80,0,4,,,,,,,,2,,,,69,64
28140,note_on,40,0,3,,,,,,,,1,,,,70,75
28140,note_on,40,0,4,,,,,,,,2,,,,70,60
28220,note_off,80,0,4,,,,,,,,2,,,,70,64
28220,note_off,80,0,3,,,,,,,,1,,,,70,64
28255,note_off,235,0,8,,,,,,,,6,,,,54,64
28255,note_off,235,0,1,,,,,,,,0,,,,66,64
28255,note_off,235,0,2,,,,,,,,0,,,,54,64
28255,note_off,235,0,13,,,,,,,,12,,,,54,64
28255,note_off,235,0,14,,,,,,,,13,,,,42,64
28255,note_off,235,0,15,,,,,,,,14,,,,42,64
28255,note_off,235,0,9,,,,,,,,7,,,,42,64
28260,note_on,5,0,14,,,,,,,,13,,,,43,45
28260,note_on,40,0,3,,,,,,,,1,,,,67,75
28260,note_on,5,0,8,,,,,,,,6,,,,55,45
28260,note_on,5,0,15,,,,,,,,14,,,,43,45
28260,note_on,5,0,1,,,,,,,,0,,,,67,45
28260,note_on,5,0,2,,,,,,,,0,,,,55,45
28260,note_on,5,0,13,,,,,,,,12,,,,55,45
28260,note_on,40,0,4,,,,,,,,2,,,,67,60
28260,note_on,5,0,9,,,,,,,,7,,,,43,45
28340,note_off,80,0,3,,,,,,,,1,,,,67,64
28340,note_off,80,0,4,,,,,,,,2,,,,67,64
28380,note_on,40,0,3,,,,,,,,1,,,,70,75
28380,note_on,40,0,4,,,,,,,,2,,,,70,60
28460,note_off,80,0,3,,,,,,,,1,,,,70,64
28460,note_off,80,0,4,,,,,,,,2,,,,70,64
28495,note_off,235,0,8,,,,,,,,6,,,,55,64
28495,note_off,235,0,15,,,,,,,,14,,,,43,64
28495,note_off,235,0,13,,,,,,,,12,,,,55,64
28495,note_off,235,0,2,,,,,,,,0,,,,55,64
28495,note_off,235,0,9,,,,,,,,7,,,,43,64
28495,note_off,235,0,1,,,,,,,,0,,,,67,64
28495,note_off,235,0,14,,,,,,,,13,,,,43,64
28500,note_on,5,0,14,,,,,,,,13,,,,31,45
28500,note_on,5,0,13,,,,,,,,12,,,,43,45
28500,note_on,5,0,15,,,,,,,,14,,,,31,45
28500,note_on,5,0,8,,,,,,,,6,,,,43,45
28500,note_on,5,0,9,,,,,,,,7,,,,31,45
28500,note_on,40,0,3,,,,,,,,1,,,,69,75
28500,note_on,5,0,2,,,,,,,,0,,,,43,45
28500,note_on,40,0,4,,,,,,,,2,,,,69,60
28500,note_on,5,0,1,,,,,,,,0,,,,55,45
28580,note_off,80,0,4,,,,,,,,2,,,,69,64
28580,note_off,80,0,3,,,,,,,,1,,,,69,64
28620,note_on,40,0,4,,,,,,,,2,,,,67,60
28620,note_on,40,0,3,,,,,,,,1,,,,67,75
28700,note_off,80,0,3,,,,,,,,1,,,,67,64
28700,note_off,80,0,4,,,,,,,,2,,,,67,64
28735,note_off,235,0,14,,,,,,,,13,,,,31,64
28735,note_off,235,0,2,,,,,,,,0,,,,43,64
28735,note_off,235,0,13,,,,,,,,12,,,,43,64
28735,note_off,235,0,8,,,,,,,,6,,,,43,64
28735,note_off,235,0,15,,,,,,,,14,,,,31,64
28735,note_off,235,0,9,,,,,,,,7,,,,31,64
28735,note_off,235,0,1,,,,,,,,0,,,,55,64
28740,note_on,40,0,3,,,,,,,,1,,,,69,75
28740,note_on,40,0,4,,,,,,,,2,,,,69,60
28740,note_on,5,0,14,,,,,,,,13,,,,38,45
28740,note_on,5,0,13,,,,,,,,12,,,,50,45
28740,note_on,5,0,8,,,,,,,,6,,,,50,45
28740,note_on,5,0,2,,,,,,,,0,,,,50,45
28740,note_on,5,0,15,,,,,,,,14,,,,38,45
28740,note_on,5,0,1,,,,,,,,0,,,,62,45
28740,note_on,5,0,9,,,,,,,,7,,,,38,45
28820,note_off,80,0,3,,,,,,,,1,,,,69,64
28820,note_off,80,0,4,,,,,,,,2,,,,69,64
28860,note_on,40,0,3,,,,,,,,1,,,,81,75
28860,note_on,40,0,4,,,,,,,,2,,,,81,60
28940,note_off,80,0,3,,,,,,,,1,,,,81,64
28940,note_off,80,0,4,,,,,,,,2,,,,81,64
28980,note_on,40,0,3,,,,,,,,1,,,,81,75
28980,note_on,40,0,4,,,,,,,,2,,,,81,60
29060,note_off,80,0,4,,,,,,,,2,,,,81,64
29060,note_off,80,0,3,,,,,,,,1,,,,81,64
29095,note_off,355,0,2,,,,,,,,0,,,,50,64
29095,note_off,355,0,8,,,,,,,,6,,,,50,64
29095,note_off,355,0,15,,,,,,,,14,,,,38,64
29095,note_off,355,0,9,,,,,,,,7,,,,38,64
29095,note_off,355,0,14,,,,,,,,13,,,,38,64
29095,note_off,355,0,13,,,,,,,,12,,,,50,64
29095,note_off,355,0,1,,,,,,,,0,,,,62,64
29100,note_on,40,0,4,,,,,,,,2,,,,81,60
29100,note_on,5,0,15,,,,,,,,14,,,,50,45
29100,note_on,5,0,9,,,,,,,,7,,,,50,45
29100,note_on,5,0,14,,,,,,,,13,,,,50,45
29100,note_on,5,0,8,,,,,,,,6,,,,62,45
29100,note_on,40,0,3,,,,,,,,1,,,,81,75
29100,note_on,5,0,13,,,,,,,,12,,,,62,45
29100,note_on,5,0,2,,,,,,,,0,,,,62,45
29100,note_on,5,0,1,,,,,,,,0,,,,74,45
29180,note_off,80,0,3,,,,,,,,1,,,,81,64
29180,note_off,80,0,4,,,,,,,,2,,,,81,64
29215,note_off,115,0,13,,,,,,,,12,,,,62,64
29215,note_off,115,0,14,,,,,,,,13,,,,50,64
29215,note_off,115,0,1,,,,,,,,0,,,,74,64
29215,note_off,115,0,9,,,,,,,,7,,,,50,64
29215,note_off,115,0,8,,,,,,,,6,,,,62,64
29215,note_off,115,0,15,,,,,,,,14,,,,50,64
29215,note_off,115,0,2,,,,,,,,0,,,,62,64
29220,note_on,5,0,1,,,,,,,,0,,,,66,45
29220,note_on,5,0,8,,,,,,,,6,,,,54,45
29220,note_on,40,0,3,,,,,,,,1,,,,81,75
29220,note_on,5,0,14,,,,,,,,13,,,,42,45
29220,note_on,40,0,4,,,,,,,,2,,,,81,60
29220,note_on,5,0,13,,,,,,,,12,,,,54,45
29220,note_on,5,0,15,,,,,,,,14,,,,42,45
29220,note_on,5,0,2,,,,,,,,0,,,,54,45
29220,note_on,5,0,9,,,,,,,,7,,,,42,45
29300,note_off,80,0,4,,,,,,,,2,,,,81,64
29300,note_off,80,0,3,,,,,,,,1,,,,81,64
29340,note_on,40,0,3,,,,,,,,1,,,,81,75
29340,note_on,40,0,4,,,,,,,,2,,,,81,60
29420,note_off,80,0,4,,,,,,,,2,,,,81,64
29420,note_off,80,0,3,,,,,,,,1,,,,81,64
29460,note_on,40,0,4,,,,,,,,2,,,,72,60
29460,note_on,40,0,3,,,,,,,,1,,,,72,75
29540,note_off,80,0,3,,,,,,,,1,,,,72,64
29540,note_off,80,0,4,,,,,,,,2,,,,72,64
29580,note_on,40,0,3,,,,,,,,1,,,,81,75
29580,note_on,40,0,4,,,,,,,,2,,,,81,60
29620,note_off,400,0,9,,,,,,,,7,,,,42,64
29620,note_off,400,0,14,,,,,,,,13,,,,42,64
29620,note_off,400,0,8,,,,,,,,6,,,,54,64
29620,note_off,400,0,15,,,,,,,,14,,,,42,64
29620,note_off,400,0,1,,,,,,,,0,,,,66,64
29620,note_off,400,0,13,,,,,,,,12,,,,54,64
29620,note_off,400,0,2,,,,,,,,0,,,,54,64
29660,note_off,80,0,4,,,,,,,,2,,,,81,64
29660,note_off,80,0,3,,,,,,,,1,,,,81,64
29700,note_on,40,0,3,,,,,,,,1,,,,69,75
29700,note_on,40,0,4,,,,,,,,2,,,,69,60
29780,note_off,80,0,3,,,,,,,,1,,,,69,64
29780,note_off,80,0,4,,,,,,,,2,,,,69,64
29820,note_on,40,0,4,,,,,,,,2,,,,81,60
29820,note_on,40,0,3,,,,,,,,1,,,,81,75
29900,note_off,80,0,4,,,,,,,,2,,,,81,64
29900,note_off,80,0,3,,,,,,,,1,,,,81,64
29940,note_on,40,0,4,,,,,,,,2,,,,81,60
29940,note_on,40,0,3,,,,,,,,1,,,,81,75
30020,note_off,80,0,3,,,,,,,,1,,,,81,64
30020,note_off,80,0,4,,,,,,,,2,,,,81,64
30060,note_on,440,0,15,,,,,,,,14,,,,50,45
30060,note_on,40,0,4,,,,,,,,2,,,,81,60
30060,note_on,440,0,9,,,,,,,,7,,,,50,45
30060,note_on,440,0,14,,,,,,,,13,,,,50,45
30060,note_on,40,0,3,,,,,,,,1,,,,81,75
30060,note_on,440,0,1,,,,,,,,0,,,,74,45
30060,note_on,440,0,2,,,,,,,,0,,,,62,45
30060,note_on,440,0,13,,,,,,,,12,,,,62,45
30060,note_on,440,0,8,,,,,,,,6,,,,62,45
30140,note_off,80,0,3,,,,,,,,1,,,,81,64
30140,note_off,80,0,4,,,,,,,,2,,,,81,64
30175,note_off,115,0,13,,,,,,,,12,,,,62,64
30175,note_off,115,0,14,,,,,,,,13,,,,50,64
30175,note_off,115,0,1,,,,,,,,0,,,,74,64
30175,note_off,115,0,2,,,,,,,,0,,,,62,64
30175,note_off,115,0,8,,,,,,,,6,,,,62,64
30175,note_off,115,0,9,,,,,,,,7,,,,50,64
30175,note_off,115,0,15,,,,,,,,14,,,,50,64
30180,note_on,5,0,1,,,,,,,,0,,,,66,45
30180,note_on,5,0,9,,,,,,,,7,,,,42,45
30180,note_on,5,0,13,,,,,,,,12,,,,54,45
30180,note_on,5,0,8,,,,,,,,6,,,,54,45
30180,note_on,5,0,2,,,,,,,,0,,,,54,45
30180,note_on,5,0,15,,,,,,,,14,,,,42,45
30180,note_on,5,0,14,,,,,,,,13,,,,42,45
30180,note_on,40,0,3,,,,,,,,1,,,,81,75
30180,note_on,40,0,4,,,,,,,,2,,,,81,60
30260,note_off,80,0,3,,,,,,,,1,,,,81,64
30260,note_off,80,0,4,,,,,,,,2,,,,81,64
30300,note_on,40,0,4,,,,,,,,2,,,,81,60
30300,note_on,40,0,3,,,,,,,,1,,,,81,75
30380,note_off,80,0,4,,,,,,,,2,,,,81,64
30380,note_off,80,0,3,,,,,,,,1,,,,81,64
30420,note_on,40,0,3,,,,,,,,1,,,,72,75
30420,note_on,40,0,4,,,,,,,,2,,,,72,60
30500,note_off,80,0,4,,,,,,,,2,,,,72,64
30500,note_off,80,0,3,,,,,,,,1,,,,72,64
30540,note_on,40,0,4,,,,,,,,2,,,,81,60
30540,note_on,40,0,3,,,,,,,,1,,,,81,75
30580,note_off,400,0,15,,,,,,,,14,,,,42,64
30580,note_off,400,0,13,,,,,,,,12,,,,54,64
30580,note_off,400,0,2,,,,,,,,0,,,,54,64
30580,note_off,400,0,14,,,,,,,,13,,,,42,64
30580,note_off,400,0,9,,,,,,,,7,,,,42,64
30580,note_off,400,0,1,,,,,,,,0,,,,66,64
30580,note_off,400,0,8,,,,,,,,6,,,,54,64
30620,note_off,80,0,4,,,,,,,,2,,,,81,64
30620,note_off,80,0,3,,,,,,,,1,,,,81,64
30660,note_on,40,0,3,,,,,,,,1,,,,69,75
30660,note_on,40,0,4,,,,,,,,2,,,,69,60
30740,note_off,80,0,3,,,,,,,,1,,,,69,64
30740,note_off,80,0,4,,,,,,,,2,,,,69,64
30780,note_on,40,0,4,,,,,,,,2,,,,81,60
30780,note_on,40,0,3,,,,,,,,1,,,,81,75
30860,note_off,80,0,4,,,,,,,,2,,,,81,64
30860,note_off,80,0,3,,,,,,,,1,,,,81,64
30900,note_on,40,0,3,,,,,,,,1,,,,81,75
30900,note_on,40,0,4,,,,,,,,2,,,,81,60
30980,note_off,80,0,4,,,,,,,,2,,,,81,64
30980,note_off,80,0,3,,,,,,,,1,,,,81,64
31020,note_on,440,0,14,,,,,,,,13,,,,50,45
31020,note_on,40,0,3,,,,,,,,1,,,,81,75
31020,note_on,440,0,15,,,,,,,,14,,,,50,45
31020,note_on,40,0,4,,,,,,,,2,,,,81,60
31020,note_on,440,0,2,,,,,,,,0,,,,62,45
31020,note_on,440,0,9,,,,,,,,7,,,,50,45
31020,note_on,440,0,8,,,,,,,,6,,,,62,45
31020,note_on,440,0,1,,,,,,,,0,,,,74,45
31020,note_on,440,0,13,,,,,,,,12,,,,62,45
31100,note_off,80,0,3,,,,,,,,1,,,,81,64
31100,note_off,80,0,4,,,,,,,,2,,,,81,64
31135,note_off,115,0,1,,,,,,,,0,,,,74,64
31135,note_off,115,0,14,,,,,,,,13,,,,50,64
31135,note_off,115,0,13,,,,,,,,12,,,,62,64
31135,note_off,115,0,2,,,,,,,,0,,,,62,64
31135,note_off,115,0,8,,,,,,,,6,,,,62,64
31135,note_off,115,0,15,,,,,,,,14,,,,50,64
31135,note_off,115,0,9,,,,,,,,7,,,,50,64
31140,note_on,5,0,14,,,,,,,,13,,,,42,45
31140,note_on,5,0,13,,,,,,,,12,,,,54,45
31140,note_on,40,0,4,,,,,,,,2,,,,81,60
31140,note_on,5,0,9,,,,,,,,7,,,,42,45
31140,note_on,5,0,1,,,,,,,,0,,,,66,45
31140,note_on,5,0,15,,,,,,,,14,,,,42,45
31140,note_on,5,0,2,,,,,,,,0,,,,54,45
31140,note_on,5,0,8,,,,,,,,6,,,,54,45
31140,note_on,40,0,3,,,,,,,,1,,,,81,75
31220,note_off,80,0,3,,,,,,,,1,,,,81,64
31220,note_off,80,0,4,,,,,,,,2,,,,81,64
31260,note_on,40,0,3,,,,,,,,1,,,,81,75
31260,note_on,40,0,4,,,,,,,,2,,,,81,60
31340,note_off,80,0,4,,,,,,,,2,,,,81,64
31340,note_off,80,0,3,,,,,,,,1,,,,81,64
31380,note_on,40,0,3,,,,,,,,1,,,,72,75
31380,note_on,40,0,4,,,,,,,,2,,,,72,60
31460,note_off,80,0,3,,,,,,,,1,,,,72,64
31460,note_off,80,0,4,,,,,,,,2,,,,72,64
31500,note_on,40,0,4,,,,,,,,2,,,,81,60
31500,note_on,40,0,3,,,,,,,,1,,,,81,75
31540,note_off,400,0,14,,,,,,,,13,,,,42,64
31540,note_off,400,0,8,,,,,,,,6,,,,54,64
31540,note_off,400,0,13,,,,,,,,12,,,,54,64
31540,note_off,400,0,9,,,,,,,,7,,,,42,64
31540,note_off,400,0,15,,,,,,,,14,,,,42,64
31540,note_off,400,0,1,,,,,,,,0,,,,66,64
31540,note_off,400,0,2,,,,,,,,0,,,,54,64
31580,note_off,80,0,3,,,,,,,,1,,,,81,64
31580,note_off,80,0,4,,,,,,,,2,,,,81,64
31620,note_on,80,0,1,,,,,,,,0,,,,66,45
31620,note_on,80,0,15,,,,,,,,14,,,,42,45
31620,note_on,80,0,9,,,,,,,,7,,,,42,45
31620,note_on,80,0,13,,,,,,,,12,,,,54,45
31620,note_on,40,0,3,,,,,,,,1,,,,69,75
31620,note_on,80,0,14,,,,,,,,13,,,,42,45
31620,note_on,80,0,8,,,,,,,,6,,,,54,45
31620,note_on,80,0,2,,,,,,,,0,,,,54,45
31620,note_on,40,0,4,,,,,,,,2,,,,69,60
31700,note_off,80,0,4,,,,,,,,2,,,,69,64
31700,note_off,80,0,3,,,,,,,,1,,,,69,64
31740,note_on,40,0,4,,,,,,,,2,,,,72,60
31740,note_on,40,0,3,,,,,,,,1,,,,72,75
31820,note_off,80,0,4,,,,,,,,2,,,,72,64
31820,note_off,80,0,3,,,,,,,,1,,,,72,64
31855,note_off,235,0,15,,,,,,,,14,,,,42,64
31855,note_off,235,0,1,,,,,,,,0,,,,66,64
31855,note_off,235,0,13,,,,,,,,12,,,,54,64
31855,note_off,235,0,14,,,,,,,,13,,,,42,64
31855,note_off,235,0,8,,,,,,,,6,,,,54,64
31855,note_off,235,0,2,,,,,,,,0,,,,54,64
31855,note_off,235,0,9,,,,,,,,7,,,,42,64
31860,note_on,40,0,4,,,,,,,,2,,,,70,60
31860,note_on,40,0,3,,,,,,,,1,,,,70,75
31860,note_on,5,0,14,,,,,,,,13,,,,43,45
31860,note_on,5,0,1,,,,,,,,0,,,,67,45
31860,note_on,5,0,13,,,,,,,,12,,,,55,45
31860,note_on,5,0,2,,,,,,,,0,,,,55,45
31860,note_on,5,0,8,,,,,,,,6,,,,55,45
31860,note_on,5,0,9,,,,,,,,7,,,,43,45
31860,note_on,5,0,15,,,,,,,,14,,,,43,45
31940,note_off,80,0,4,,,,,,,,2,,,,70,64
31940,note_off,80,0,3,,,,,,,,1,,,,70,64
31980,note_on,40,0,4,,,,,,,,2,,,,72,60
31980,note_on,40,0,3,,,,,,,,1,,,,72,75
32060,note_off,80,0,4,,,,,,,,2,,,,72,64
32060,note_off,80,0,3,,,,,,,,1,,,,72,64
32095,note_off,235,0,8,,,,,,,,6,,,,55,64
32095,note_off,235,0,9,,,,,,,,7,,,,43,64
32095,note_off,235,0,1,,,,,,,,0,,,,67,64
32095,note_off,235,0,14,,,,,,,,13,,,,43,64
32095,note_off,235,0,13,,,,,,,,12,,,,55,64
32095,note_off,235,0,15,,,,,,,,14,,,,43,64
32095,note_off,235,0,2,,,,,,,,0,,,,55,64
32100,note_on,5,0,15,,,,,,,,14,,,,45,45
32100,note_on,40,0,4,,,,,,,,2,,,,69,60
32100,note_on,5,0,9,,,,,,,,7,,,,45,45
32100,note_on,5,0,14,,,,,,,,13,,,,45,45
32100,note_on,5,0,2,,,,,,,,0,,,,57,45
32100,note_on,5,0,8,,,,,,,,6,,,,57,45
32100,note_on,5,0,13,,,,,,,,12,,,,57,45
32100,note_on,5,0,1,,,,,,,,0,,,,69,45
32100,note_on,40,0,3,,,,,,,,1,,,,69,75
32180,note_off,80,0,4,,,,,,,,2,,,,69,64
32180,note_off,80,0,3,,,,,,,,1,,,,69,64
32220,note_on,40,0,4,,,,,,,,2,,,,72,60
32220,note_on,40,0,3,,,,,,,,1,,,,72,75
32300,note_off,80,0,4,,,,,,,,2,,,,72,64
32300,note_off,80,0,3,,,,,,,,1,,,,72,64
32335,note_off,235,0,8,,,,,,,,6,,,,57,64
32335,note_off,235,0,15,,,,,,,,14,,,,45,64
32335,note_off,235,0,1,,,,,,,,0,,,,69,64
32335,note_off,235,0,14,,,,,,,,13,,,,45,64
32335,note_off,235,0,9,,,,,,,,7,,,,45,64
32335,note_off,235,0,2,,,,,,,,0,,,,57,64
32335,note_off,235,0,13,,,,,,,,12,,,,57,64
32340,note_on,40,0,3,,,,,,,,1,,,,70,75
32340,note_on,5,0,15,,,,,,,,14,,,,38,45
32340,note_on,40,0,4,,,,,,,,2,,,,70,60
32340,note_on,5,0,8,,,,,,,,6,,,,50,45
32340,note_on,5,0,14,,,,,,,,13,,,,38,45
32340,note_on,5,0,2,,,,,,,,0,,,,50,45
32340,note_on,5,0,1,,,,,,,,0,,,,62,45
32340,note_on,5,0,9,,,,,,,,7,,,,38,45
32340,note_on,5,0,13,,,,,,,,12,,,,50,45
32420,note_off,80,0,3,,,,,,,,1,,,,70,64
32420,note_off,80,0,4,,,,,,,,2,,,,70,64
32460,note_on,40,0,3,,,,,,,,1,,,,69,75
32460,note_on,40,0,4,,,,,,,,2,,,,69,60
32540,note_off,80,0,3,,,,,,,,1,,,,69,64
32540,note_off,80,0,4,,,,,,,,2,,,,69,64
32575,note_off,235,0,14,,,,,,,,13,,,,38,64
32575,note_off,235,0,9,,,,,,,,7,,,,38,64
32575,note_off,235,0,13,,,,,,,,12,,,,50,64
32575,note_off,235,0,2,,,,,,,,0,,,,50,64
32575,note_off,235,0,1,,,,,,,,0,,,,62,64
32575,note_off,235,0,8,,,,,,,,6,,,,50,64
32575,note_off,235,0,15,,,,,,,,14,,,,38,64
32580,note_on,5,0,8,,,,,,,,6,,,,43,45
32580,note_on,40,0,4,,,,,,,,2,,,,70,60
32580,note_on,5,0,15,,,,,,,,14,,,,31,45
32580,note_on,5,0,13,,,,,,,,12,,,,43,45
32580,note_on,40,0,3,,,,,,,,1,,,,70,75
32580,note_on,5,0,1,,,,,,,,0,,,,55,45
32580,note_on,5,0,9,,,,,,,,7,,,,31,45
32580,note_on,5,0,2,,,,,,,,0,,,,43,45
32580,note_on,5,0,14,,,,,,,,13,,,,31,45
32660,note_off,80,0,4,,,,,,,,2,,,,70,64
32660,note_off,80,0,3,,,,,,,,1,,,,70,64
32700,note_on,40,0,4,,,,,,,,2,,,,82,60
32700,note_on,40,0,3,,,,,,,,1,,,,82,75
32780,note_off,80,0,3,,,,,,,,1,,,,82,64
32780,note_off,80,0,4,,,,,,,,2,,,,82,64
32820,note_on,40,0,3,,,,,,,,1,,,,82,75
32820,note_on,40,0,4,,,,,,,,2,,,,82,60
32900,note_off,80,0,4,,,,,,,,2,,,,82,64
32900,note_off,80,0,3,,,,,,,,1,,,,82,64
32935,note_off,355,0,13,,,,,,,,12,,,,43,64
32935,note_off,355,0,1,,,,,,,,0,,,,55,64
32935,note_off,355,0,2,,,,,,,,0,,,,43,64
32935,note_off,355,0,8,,,,,,,,6,,,,43,64
32935,note_off,355,0,14,,,,,,,,13,,,,31,64
32935,note_off,355,0,9,,,,,,,,7,,,,31,64
32935,note_off,355,0,15,,,,,,,,14,,,,31,64
32940,note_on,5,0,1,,,,,,,,0,,,,67,45
32940,note_on,40,0,4,,,,,,,,2,,,,82,60
32940,note_on,5,0,2,,,,,,,,0,,,,55,45
32940,note_on,5,0,8,,,,,,,,6,,,,55,45
32940,note_on,5,0,15,,,,,,,,14,,,,43,45
32940,note_on,40,0,3,,,,,,,,1,,,,82,75
32940,note_on,5,0,9,,,,,,,,7,,,,43,45
32940,note_on,5,0,13,,,,,,,,12,,,,55,45
32940,note_on,5,0,14,,,,,,,,13,,,,43,45
33020,note_off,80,0,4,,,,,,,,2,,,,82,64
33020,note_off,80,0,3,,,,,,,,1,,,,82,64
33055,note_off,115,0,15,,,,,,,,14,,,,43,64
33055,note_off,115,0,13,,,,,,,,12,,,,55,64
33055,note_off,115,0,14,,,,,,,,13,,,,43,64
33055,note_off,115,0,8,,,,,,,,6,,,,55,64
33055,note_off,115,0,1,,,,,,,,0,,,,67,64
33055,note_off,115,0,9,,,,,,,,7,,,,43,64
33055,note_off,115,0,2,,,,,,,,0,,,,55,64
33060,note_on,5,0,15,,,,,,,,14,,,,31,45
33060,note_on,5,0,8,,,,,,,,6,,,,43,45
33060,note_on,5,0,13,,,,,,,,12,,,,43,45
33060,note_on,5,0,2,,,,,,,,0,,,,43,45
33060,note_on,5,0,14,,,,,,,,13,,,,31,45
33060,note_on,40,0,4,,,,,,,,2,,,,82,60
33060,note_on,5,0,9,,,,,,,,7,,,,31,45
33060,note_on,5,0,1,,,,,,,,0,,,,55,45
33060,note_on,40,0,3,,,,,,,,1,,,,82,75
33140,note_off,80,0,3,,,,,,,,1,,,,82,64
33140,note_off,80,0,4,,,,,,,,2,,,,82,64
33180,note_on,40,0,3,,,,,,,,1,,,,82,75
33180,note_on,40,0,4,,,,,,,,2,,,,82,60
33260,note_off,80,0,3,,,,,,,,1,,,,82,64
33260,note_off,80,0,4,,,,,,,,2,,,,82,64
33300,note_on,40,0,3,,,,,,,,1,,,,74,75
33300,note_on,40,0,4,,,,,,,,2,,,,74,60
33380,note_off,80,0,4,,,,,,,,2,,,,74,64
33380,note_off,80,0,3,,,,,,,,1,,,,74,64
33420,note_on,40,0,3,,,,,,,,1,,,,82,75
33420,note_on,40,0,4,,,,,,,,2,,,,82,60
33460,note_off,400,0,9,,,,,,,,7,,,,31,64
33460,note_off,400,0,2,,,,,,,,0,,,,43,64
33460,note_off,400,0,8,,,,,,,,6,,,,43,64
33460,note_off,400,0,13,,,,,,,,12,,,,43,64
33460,note_off,400,0,14,,,,,,,,13,,,,31,64
33460,note_off,400,0,1,,,,,,,,0,,,,55,64
33460,note_off,400,0,15,,,,,,,,14,,,,31,64
33500,note_off,80,0,4,,,,,,,,2,,,,82,64
33500,note_off,80,0,3,,,,,,,,1,,,,82,64
33540,note_on,40,0,3,,,,,,,,1,,,,70,75
33540,note_on,40,0,4,,,,,,,,2,,,,70,60
33620,note_off,80,0,4,,,,,,,,2,,,,70,64
33620,note_off,80,0,3,,,,,,,,1,,,,70,64
33660,note_on,40,0,4,,,,,,,,2,,,,82,60
33660,note_on,40,0,3,,,,,,,,1,,,,82,75
33740,note_off,80,0,3,,,,,,,,1,,,,82,64
33740,note_off,80,0,4,,,,,,,,2,,,,82,64
33780,note_on,40,0,3,,,,,,,,1,,,,82,75
33780,note_on,40,0,4,,,,,,,,2,,,,82,60
33860,note_off,80,0,3,,,,,,,,1,,,,82,64
33860,note_off,80,0,4,,,,,,,,2,,,,82,64
33900,note_on,440,0,13,,,,,,,,12,,,,55,45
33900,note_on,40,0,4,,,,,,,,2,,,,82,60
33900,note_on,440,0,1,,,,,,,,0,,,,67,45
33900,note_on,440,0,2,,,,,,,,0,,,,55,45
33900,note_on,440,0,15,,,,,,,,14,,,,43,45
33900,note_on,440,0,8,,,,,,,,6,,,,55,45
33900,note_on,440,0,9,,,,,,,,7,,,,43,45
33900,note_on,40,0,3,,,,,,,,1,,,,82,75
33900,note_on,440,0,14,,,,,,,,13,,,,43,45
33980,note_off,80,0,4,,,,,,,,2,,,,82,64
33980,note_off,80,0,3,,,,,,,,1,,,,82,64
34015,note_off,115,0,1,,,,,,,,0,,,,67,64
34015,note_off,115,0,8,,,,,,,,6,,,,55,64
34015,note_off,115,0,2,,,,,,,,0,,,,55,64
34015,note_off,115,0,15,,,,,,,,14,,,,43,64
34015,note_off,115,0,9,,,,,,,,7,,,,43,64
34015,note_off,115,0,13,,,,,,,,12,,,,55,64
34015,note_off,115,0,14,,,,,,,,13,,,,43,64
34020,note_on,5,0,15,,,,,,,,14,,,,31,45
34020,note_on,40,0,3,,,,,,,,1,,,,82,75
34020,note_on,5,0,8,,,,,,,,6,,,,43,45
34020,note_on,40,0,4,,,,,,,,2,,,,82,60
34020,note_on,5,0,14,,,,,,,,13,,,,31,45
34020,note_on,5,0,13,,,,,,,,12,,,,43,45
34020,note_on,5,0,1,,,,,,,,0,,,,55,45
34020,note_on,5,0,9,,,,,,,,7,,,,31,45
34020,note_on,5,0,2,,,,,,,,0,,,,43,45
34100,note_off,80,0,3,,,,,,,,1,,,,82,64
34100,note_off,80,0,4,,,,,,,,2,,,,82,64
34140,note_on,40,0,3,,,,,,,,1,,,,82,75
34140,note_on,40,0,4,,,,,,,,2,,,,82,60
34220,note_off,80,0,4,,,,,,,,2,,,,82,64
34220,note_off,80,0,3,,,,,,,,1,,,,82,64
34260,note_on,40,0,4,,,,,,,,2,,,,74,60
34260,note_on,40,0,3,,,,,,,,1,,,,74,75
34340,note_off,80,0,3,,,,,,,,1,,,,74,64
34340,note_off,80,0,4,,,,,,,,2,,,,74,64
34380,note_on,40,0,4,,,,,,,,2,,,,82,60
34380,note_on,40,0,3,,,,,,,,1,,,,82,75
34420,note_off,400,0,13,,,,,,,,12,,,,43,64
34420,note_off,400,0,1,,,,,,,,0,,,,55,64
34420,note_off,400,0,8,,,,,,,,6,,,,43,64
34420,note_off,400,0,14,,,,,,,,13,,,,31,64
34420,note_off,400,0,15,,,,,,,,14,,,,31,64
34420,note_off,400,0,9,,,,,,,,7,,,,31,64
34420,note_off,400,0,2,,,,,,,,0,,,,43,64
34460,note_off,80,0,3,,,,,,,,1,,,,82,64
34460,note_off,80,0,4,,,,,,,,2,,,,82,64
34500,note_on,80,0,15,,,,,,,,14,,,,43,45
34500,note_on,80,0,9,,,,,,,,7,,,,43,45
34500,note_on,80,0,14,,,,,,,,13,,,,43,45
34500,note_on,40,0,4,,,,,,,,2,,,,70,60
34500,note_on,80,0,8,,,,,,,,6,,,,55,45
34500,note_on,80,0,2,,,,,,,,0,,,,55,45
34500,note_on,80,0,1,,,,,,,,0,,,,67,45
34500,note_on,80,0,13,,,,,,,,12,,,,55,45
34500,note_on,40,0,3,,,,,,,,1,,,,70,75
34580,note_off,80,0,4,,,,,,,,2,,,,70,64
34580,note_off,80,0,3,,,,,,,,1,,,,70,64
34620,note_on,40,0,3,,,,,,,,1,,,,74,75
34620,note_on,40,0,4,,,,,,,,2,,,,74,60
34700,note_off,80,0,3,,,,,,,,1,,,,74,64
34700,note_off,80,0,4,,,,,,,,2,,,,74,64
34735,note_off,235,0,2,,,,,,,,0,,,,55,64
34735,note_off,235,0,1,,,,,,,,0,,,,67,64
34735,note_off,235,0,14,,,,,,,,13,,,,43,64
34735,note_off,235,0,13,,,,,,,,12,,,,55,64
34735,note_off,235,0,8,,,,,,,,6,,,,55,64
34735,note_off,235,0,9,,,,,,,,7,,,,43,64
34735,note_off,235,0,15,,,,,,,,14,,,,43,64
34740,note_on,5,0,1,,,,,,,,0,,,,69,45
34740,note_on,5,0,2,,,,,,,,0,,,,57,45
34740,note_on,5,0,13,,,,,,,,12,,,,57,45
34740,note_on,40,0,3,,,,,,,,1,,,,72,75
34740,note_on,40,0,4,,,,,,,,2,,,,72,60
34740,note_on,5,0,14,,,,,,,,13,,,,45,45
34740,note_on,5,0,9,,,,,,,,7,,,,45,45
34740,note_on,5,0,15,,,,,,,,14,,,,45,45
34740,note_on,5,0,8,,,,,,,,6,,,,57,45
34820,note_off,80,0,3,,,,,,,,1,,,,72,64
34820,note_off,80,0,4,,,,,,,,2,,,,72,64
34860,note_on,40,0,4,,,,,,,,2,,,,74,60
34860,note_on,40,0,3,,,,,,,,1,,,,74,75
34940,note_off,80,0,3,,,,,,,,1,,,,74,64
34940,note_off,80,0,4,,,,,,,,2,,,,74,64
34975,note_off,235,0,2,,,,,,,,0,,,,57,64
34975,note_off,235,0,9,,,,,,,,7,,,,45,64
34975,note_off,235,0,8,,,,,,,,6,,,,57,64
34975,note_off,235,0,14,,,,,,,,13,,,,45,64
34975,note_off,235,0,13,,,,,,,,12,,,,57,64
34975,note_off,235,0,15,,,,,,,,14,,,,45,64
34975,note_off,235,0,1,,,,,,,,0,,,,69,64
34980,note_on,40,0,4,,,,,,,,2,,,,70,60
34980,note_on,40,0,3,,,,,,,,1,,,,70,75
34980,note_on,5,0,13,,,,,,,,12,,,,58,45
34980,note_on,5,0,1,,,,,,,,0,,,,70,45
34980,note_on,5,0,15,,,,,,,,14,,,,46,45
34980,note_on,5,0,14,,,,,,,,13,,,,46,45
34980,note_on,5,0,2,,,,,,,,0,,,,58,45
34980,note_on,5,0,8,,,,,,,,6,,,,58,45
34980,note_on,5,0,9,,,,,,,,7,,,,46,45
35060,note_off,80,0,3,,,,,,,,1,,,,70,64
35060,note_off,80,0,4,,,,,,,,2,,,,70,64
35100,note_on,40,0,4,,,,,,,,2,,,,74,60
35100,note_on,40,0,3,,,,,,,,1,,,,74,75
35180,note_off,80,0,3,,,,,,,,1,,,,74,64
35180,note_off,80,0,4,,,,,,,,2,,,,74,64
35215,note_off,235,0,9,,,,,,,,7,,,,46,64
35215,note_off,235,0,2,,,,,,,,0,,,,58,64
35215,note_off,235,0,13,,,,,,,,12,,,,58,64
35215,note_off,235,0,8,,,,,,,,6,,,,58,64
35215,note_off,235,0,15,,,,,,,,14,,,,46,64
35215,note_off,235,0,1,,,,,,,,0,,,,70,64
35215,note_off,235,0,14,,,,,,,,13,,,,46,64
35220,note_on,5,0,2,,,,,,,,0,,,,55,45
35220,note_on,5,0,8,,,,,,,,6,,,,55,45
35220,note_on,5,0,1,,,,,,,,0,,,,67,45
35220,note_on,5,0,14,,,,,,,,13,,,,43,45
35220,note_on,40,0,3,,,,,,,,1,,,,72,75
35220,note_on,5,0,9,,,,,,,,7,,,,43,45
35220,note_on,5,0,13,,,,,,,,12,,,,55,45
35220,note_on,5,0,15,,,,,,,,14,,,,43,45
35220,note_on,40,0,4,,,,,,,,2,,,,72,60
35300,note_off,80,0,3,,,,,,,,1,,,,72,64
35300,note_off,80,0,4,,,,,,,,2,,,,72,64
35340,note_on,40,0,4,,,,,,,,2,,,,70,60
35340,note_on,40,0,3,,,,,,,,1,,,,70,75
35420,note_off,80,0,3,,,,,,,,1,,,,70,64
35420,note_off,80,0,4,,,,,,,,2,,,,70,64
35455,note_off,235,0,9,,,,,,,,7,,,,43,64
35455,note_off,235,0,2,,,,,,,,0,,,,55,64
35455,note_off,235,0,8,,,,,,,,6,,,,55,64
35455,note_off,235,0,13,,,,,,,,12,,,,55,64
35455,note_off,235,0,15,,,,,,,,14,,,,43,64
35455,note_off,235,0,1,,,,,,,,0,,,,67,64
35455,note_off,235,0,14,,,,,,,,13,,,,43,64
35460,note_on,40,0,3,,,,,,,,1,,,,72,75
35460,note_on,5,0,8,,,,,,,,6,,,,45,45
35460,note_on,5,0,1,,,,,,,,0,,,,57,45
35460,note_on,5,0,9,,,,,,,,7,,,,33,45
35460,note_on,5,0,2,,,,,,,,0,,,,45,45
35460,note_on,5,0,14,,,,,,,,13,,,,33,45
35460,note_on,5,0,13,,,,,,,,12,,,,45,45
35460,note_on,40,0,4,,,,,,,,2,,,,72,60
35460,note_on,5,0,15,,,,,,,,14,,,,33,45
35540,note_off,80,0,4,,,,,,,,2,,,,72,64
35540,note_off,80,0,3,,,,,,,,1,,,,72,64
35580,note_on,40,0,3,,,,,,,,1,,,,84,75
35580,note_on,40,0,4,,,,,,,,2,,,,84,60
35660,note_off,80,0,3,,,,,,,,1,,,,84,64
35660,note_off,80,0,4,,,,,,,,2,,,,84,64
35700,note_on,40,0,3,,,,,,,,1,,,,84,75
35700,note_on,40,0,4,,,,,,,,2,,,,84,60
35780,note_off,80,0,4,,,,,,,,2,,,,84,64
35780,note_off,80,0,3,,,,,,,,1,,,,84,64
35815,note_off,355,0,1,,,,,,,,0,,,,57,64
35815,note_off,355,0,2,,,,,,,,0,,,,45,64
35815,note_off,355,0,15,,,,,,,,14,,,,33,64
35815,note_off,355,0,9,,,,,,,,7,,,,33,64
35815,note_off,355,0,13,,,,,,,,12,,,,45,64
35815,note_off,355,0,8,,,,,,,,6,,,,45,64
35815,note_off,355,0,14,,,,,,,,13,,,,33,64
35820,note_on,5,0,1,,,,,,,,0,,,,69,45
35820,note_on,5,0,8,,,,,,,,6,,,,57,45
35820,note_on,5,0,9,,,,,,,,7,,,,45,45
35820,note_on,5,0,13,,,,,,,,12,,,,57,45
35820,note_on,5,0,14,,,,,,,,13,,,,45,45
35820,note_on,5,0,2,,,,,,,,0,,,,57,45
35820,note_on,5,0,15,,,,,,,,14,,,,45,45
35820,note_on,40,0,3,,,,,,,,1,,,,84,75
35820,note_on,40,0,4,,,,,,,,2,,,,84,60
35900,note_off,80,0,3,,,,,,,,1,,,,84,64
35900,note_off,80,0,4,,,,,,,,2,,,,84,64
35935,note_off,115,0,2,,,,,,,,0,,,,57,64
35935,note_off,115,0,15,,,,,,,,14,,,,45,64
35935,note_off,115,0,8,,,,,,,,6,,,,57,64
35935,note_off,115,0,14,,,,,,,,13,,,,45,64
35935,note_off,115,0,9,,,,,,,,7,,,,45,64
35935,note_off,115,0,1,,,,,,,,0,,,,69,64
35935,note_off,115,0,13,,,,,,,,12,,,,57,64
35940,note_on,5,0,2,,,,,,,,0,,,,45,45
35940,note_on,5,0,15,,,,,,,,14,,,,33,45
35940,note_on,5,0,8,,,,,,,,6,,,,45,45
35940,note_on,5,0,9,,,,,,,,7,,,,33,45
35940,note_on,5,0,1,,,,,,,,0,,,,57,45
35940,note_on,40,0,3,,,,,,,,1,,,,84,75
35940,note_on,40,0,4,,,,,,,,2,,,,84,60
35940,note_on,5,0,14,,,,,,,,13,,,,33,45
35940,note_on,5,0,13,,,,,,,,12,,,,45,45
36020,note_off,80,0,3,,,,,,,,1,,,,84,64
36020,note_off,80,0,4,,,,,,,,2,,,,84,64
36060,note_on,40,0,3,,,,,,,,1,,,,84,75
36060,note_on,40,0,4,,,,,,,,2,,,,84,60
36140,note_off,80,0,3,,,,,,,,1,,,,84,64
36140,note_off,80,0,4,,,,,,,,2,,,,84,64
36180,note_on,40,0,4,,,,,,,,2,,,,75,60
36180,note_on,40,0,3,,,,,,,,1,,,,75,75
36260,note_off,80,0,4,,,,,,,,2,,,,75,64
36260,note_off,80,0,3,,,,,,,,1,,,,75,64
36300,note_on,40,0,3,,,,,,,,1,,,,84,75
36300,note_on,40,0,4,,,,,,,,2,,,,84,60
36340,note_off,400,0,8,,,,,,,,6,,,,45,64
36340,note_off,400,0,15,,,,,,,,14,,,,33,64
36340,note_off,400,0,2,,,,,,,,0,,,,45,64
36340,note_off,400,0,1,,,,,,,,0,,,,57,64
36340,note_off,400,0,14,,,,,,,,13,,,,33,64
36340,note_off,400,0,13,,,,,,,,12,,,,45,64
36340,note_off,400,0,9,,,,,,,,7,,,,33,64
36380,note_off,80,0,3,,,,,,,,1,,,,84,64
36380,note_off,80,0,4,,,,,,,,2,,,,84,64
36420,note_on,40,0,3,,,,,,,,1,,,,72,75
36420,note_on,40,0,4,,,,,,,,2,,,,72,60
36500,note_off,80,0,4,,,,,,,,2,,,,72,64
36500,note_off,80,0,3,,,,,,,,1,,,,72,64
36540,note_on,40,0,3,,,,,,,,1,,,,84,75
36540,note_on,40,0,4,,,,,,,,2,,,,84,60
36620,note_off,80,0,3,,,,,,,,1,,,,84,64
36620,note_off,80,0,4,,,,,,,,2,,,,84,64
36660,note_on,40,0,4,,,,,,,,2,,,,84,60
36660,note_on,40,0,3,,,,,,,,1,,,,84,75
36740,note_off,80,0,4,,,,,,,,2,,,,84,64
36740,note_off,80,0,3,,,,,,,,1,,,,84,64
36780,note_on,40,0,3,,,,,,,,1,,,,84,75
36780,note_on,440,0,14,,,,,,,,13,,,,45,45
36780,note_on,440,0,8,,,,,,,,6,,,,57,45
36780,note_on,440,0,1,,,,,,,,0,,,,69,45
36780,note_on,440,0,9,,,,,,,,7,,,,45,45
36780,note_on,40,0,4,,,,,,,,2,,,,84,60
36780,note_on,440,0,13,,,,,,,,12,,,,57,45
36780,note_on,440,0,15,,,,,,,,14,,,,45,45
36780,note_on,440,0,2,,,,,,,,0,,,,57,45
36860,note_off,80,0,4,,,,,,,,2,,,,84,64
36860,note_off,80,0,3,,,,,,,,1,,,,84,64
36895,note_off,115,0,9,,,,,,,,7,,,,45,64
36895,note_off,115,0,2,,,,,,,,0,,,,57,64
36895,note_off,115,0,1,,,,,,,,0,,,,69,64
36895,note_off,115,0,14,,,,,,,,13,,,,45,64
36895,note_off,115,0,8,,,,,,,,6,,,,57,64
36895,note_off,115,0,13,,,,,,,,12,,,,57,64
36895,note_off,115,0,15,,,,,,,,14,,,,45,64
36900,note_on,5,0,15,,,,,,,,14,,,,33,45
36900,note_on,5,0,2,,,,,,,,0,,,,45,45
36900,note_on,5,0,9,,,,,,,,7,,,,33,45
36900,note_on,40,0,3,,,,,,,,1,,,,84,75
36900,note_on,5,0,8,,,,,,,,6,,,,45,45
36900,note_on,40,0,4,,,,,,,,2,,,,84,60
36900,note_on,5,0,14,,,,,,,,13,,,,33,45
36900,note_on,5,0,1,,,,,,,,0,,,,57,45
36900,note_on,5,0,13,,,,,,,,12,,,,45,45
36980,note_off,80,0,3,,,,,,,,1,,,,84,64
36980,note_off,80,0,4,,,,,,,,2,,,,84,64
37020,note_on,40,0,3,,,,,,,,1,,,,84,75
37020,note_on,40,0,4,,,,,,,,2,,,,84,60
37100,note_off,80,0,3,,,,,,,,1,,,,84,64
37100,note_off,80,0,4,,,,,,,,2,,,,84,64
37140,note_on,40,0,3,,,,,,,,1,,,,75,75
37140,note_on,40,0,4,,,,,,,,2,,,,75,60
37220,note_off,80,0,3,,,,,,,,1,,,,75,64
37220,note_off,80,0,4,,,,,,,,2,,,,75,64
37260,note_on,40,0,3,,,,,,,,1,,,,84,75
37260,note_on,40,0,4,,,,,,,,2,,,,84,60
37300,note_off,400,0,13,,,,,,,,12,,,,45,64
37300,note_off,400,0,14,,,,,,,,13,,,,33,64
37300,note_off,400,0,9,,,,,,,,7,,,,33,64
37300,note_off,400,0,1,,,,,,,,0,,,,57,64
37300,note_off,400,0,15,,,,,,,,14,,,,33,64
37300,note_off,400,0,2,,,,,,,,0,,,,45,64
37300,note_off,400,0,8,,,,,,,,6,,,,45,64
37340,note_off,80,0,4,,,,,,,,2,,,,84,64
37340,note_off,80,0,3,,,,,,,,1,,,,84,64
37380,note_on,80,0,15,,,,,,,,14,,,,45,43
37380,note_on,80,0,9,,,,,,,,7,,,,45,43
37380,note_on,40,0,4,,,,,,,,2,,,,72,60
37380,note_on,80,0,8,,,,,,,,6,,,,57,43
37380,note_on,40,0,3,,,,,,,,1,,,,72,75
37380,note_on,80,0,14,,,,,,,,13,,,,45,43
37380,note_on,80,0,1,,,,,,,,0,,,,69,43
37380,note_on,80,0,2,,,,,,,,0,,,,57,43
37380,note_on,80,0,13,,,,,,,,12,,,,57,43
37460,note_off,80,0,4,,,,,,,,2,,,,72,64
37460,note_off,80,0,3,,,,,,,,1,,,,72,64
37500,note_on,40,0,4,,,,,,,,2,,,,75,60
37500,note_on,40,0,3,,,,,,,,1,,,,75,75
37580,note_off,80,0,3,,,,,,,,1,,,,75,64
37580,note_off,80,0,4,,,,,,,,2,,,,75,64
37615,note_off,235,0,8,,,,,,,,6,,,,57,64
37615,note_off,235,0,14,,,,,,,,13,,,,45,64
37615,note_off,235,0,1,,,,,,,,0,,,,69,64
37615,note_off,235,0,9,,,,,,,,7,,,,45,64
37615,note_off,235,0,2,,,,,,,,0,,,,57,64
37615,note_off,235,0,15,,,,,,,,14,,,,45,64
37615,note_off,235,0,13,,,,,,,,12,,,,57,64
37620,note_on,40,0,3,,,,,,,,1,,,,74,75
37620,note_on,5,0,1,,,,,,,,0,,,,70,42
37620,note_on,5,0,8,,,,,,,,6,,,,58,42
37620,note_on,40,0,4,,,,,,,,2,,,,74,60
37620,note_on,5,0,13,,,,,,,,12,,,,58,42
37620,note_on,5,0,15,,,,,,,,14,,,,46,42
37620,note_on,5,0,2,,,,,,,,0,,,,58,42
37620,note_on,5,0,9,,,,,,,,7,,,,46,42
37620,note_on,5,0,14,,,,,,,,13,,,,46,42
37700,note_off,80,0,4,,,,,,,,2,,,,74,64
37700,note_off,80,0,3,,,,,,,,1,,,,74,64
37740,note_on,40,0,4,,,,,,,,2,,,,75,60
37740,note_on,40,0,3,,,,,,,,1,,,,75,75
37820,note_off,80,0,4,,,,,,,,2,,,,75,64
37820,note_off,80,0,3,,,,,,,,1,,,,75,64
37855,note_off,235,0,2,,,,,,,,0,,,,58,64
37855,note_off,235,0,9,,,,,,,,7,,,,46,64
37855,note_off,235,0,1,,,,,,,,0,,,,70,64
37855,note_off,235,0,14,,,,,,,,13,,,,46,64
37855,note_off,235,0,15,,,,,,,,14,,,,46,64
37855,note_off,235,0,8,,,,,,,,6,,,,58,64
37855,note_off,235,0,13,,,,,,,,12,,,,58,64
37860,note_on,40,0,4,,,,,,,,2,,,,72,60
37860,note_on,5,0,13,,,,,,,,12,,,,60,41
37860,note_on,40,0,3,,,,,,,,1,,,,72,75
37860,note_on,5,0,9,,,,,,,,7,,,,48,41
37860,note_on,5,0,15,,,,,,,,14,,,,48,41
37860,note_on,5,0,8,,,,,,,,6,,,,60,41
37860,note_on,5,0,14,,,,,,,,13,,,,48,41
37860,note_on,5,0,1,,,,,,,,0,,,,72,41
37860,note_on,5,0,2,,,,,,,,0,,,,60,41
37940,note_off,80,0,4,,,,,,,,2,,,,72,64
37940,note_off,80,0,3,,,,,,,,1,,,,72,64
37980,note_on,40,0,4,,,,,,,,2,,,,75,60
37980,note_on,40,0,3,,,,,,,,1,,,,75,75
38060,note_off,80,0,3,,,,,,,,1,,,,75,64
38060,note_off,80,0,4,,,,,,,,2,,,,75,64
38095,note_off,235,0,2,,,,,,,,0,,,,60,64
38095,note_off,235,0,14,,,,,,,,13,,,,48,64
38095,note_off,235,0,8,,,,,,,,6,,,,60,64
38095,note_off,235,0,15,,,,,,,,14,,,,48,64
38095,note_off,235,0,9,,,,,,,,7,,,,48,64
38095,note_off,235,0,1,,,,,,,,0,,,,72,64
38095,note_off,235,0,13,,,,,,,,12,,,,60,64
38100,note_on,5,0,1,,,,,,,,0,,,,69,40
38100,note_on,40,0,3,,,,,,,,1,,,,74,75
38100,note_on,5,0,8,,,,,,,,6,,,,57,40
38100,note_on,40,0,4,,,,,,,,2,,,,74,60
38100,note_on,5,0,9,,,,,,,,7,,,,45,40
38100,note_on,5,0,2,,,,,,,,0,,,,57,40
38100,note_on,5,0,14,,,,,,,,13,,,,45,40
38100,note_on,5,0,13,,,,,,,,12,,,,57,40
38100,note_on,5,0,15,,,,,,,,14,,,,45,40
38180,note_off,80,0,3,,,,,,,,1,,,,74,64
38180,note_off,80,0,4,,,,,,,,2,,,,74,64
38220,note_on,40,0,3,,,,,,,,1,,,,72,75
38220,note_on,40,0,4,,,,,,,,2,,,,72,60
38300,note_off,80,0,3,,,,,,,,1,,,,72,64
38300,note_off,80,0,4,,,,,,,,2,,,,72,64
38335,note_off,235,0,8,,,,,,,,6,,,,57,64
38335,note_off,235,0,15,,,,,,,,14,,,,45,64
38335,note_off,235,0,13,,,,,,,,12,,,,57,64
38335,note_off,235,0,1,,,,,,,,0,,,,69,64
38335,note_off,235,0,9,,,,,,,,7,,,,45,64
38335,note_off,235,0,14,,,,,,,,13,,,,45,64
38335,note_off,235,0,2,,,,,,,,0,,,,57,64
38340,note_on,5,0,13,,,,,,,,12,,,,58,39
38340,note_on,40,0,4,,,,,,,,2,,,,74,60
38340,note_on,5,0,14,,,,,,,,13,,,,46,39
38340,note_on,5,0,8,,,,,,,,6,,,,58,39
38340,note_on,5,0,15,,,,,,,,14,,,,46,39
38340,note_on,5,0,2,,,,,,,,0,,,,58,39
38340,note_on,5,0,9,,,,,,,,7,,,,46,39
38340,note_on,5,0,1,,,,,,,,0,,,,70,39
38340,note_on,40,0,3,,,,,,,,1,,,,74,75
38420,note_off,80,0,4,,,,,,,,2,,,,74,64
38420,note_off,80,0,3,,,,,,,,1,,,,74,64
38460,note_on,40,0,3,,,,,,,,1,,,,86,75
38460,note_on,40,0,4,,,,,,,,2,,,,86,60
38540,note_off,80,0,3,,,,,,,,1,,,,86,64
38540,note_off,80,0,4,,,,,,,,2,,,,86,64
38580,note_on,40,0,4,,,,,,,,2,,,,86,59
38580,note_on,40,0,3,,,,,,,,1,,,,86,74
38660,note_off,80,0,4,,,,,,,,2,,,,86,64
38660,note_off,80,0,3,,,,,,,,1,,,,86,64
38695,note_off,355,0,13,,,,,,,,12,,,,58,64
38695,note_off,355,0,9,,,,,,,,7,,,,46,64
38695,note_off,355,0,15,,,,,,,,14,,,,46,64
38695,note_off,355,0,14,,,,,,,,13,,,,46,64
38695,note_off,355,0,1,,,,,,,,0,,,,70,64
38695,note_off,355,0,2,,,,,,,,0,,,,58,64
38695,note_off,355,0,8,,,,,,,,6,,,,58,64
38700,note_on,5,0,15,,,,,,,,14,,,,50,38
38700,note_on,40,0,3,,,,,,,,1,,,,86,73
38700,note_on,40,0,4,,,,,,,,2,,,,86,58
38700,note_on,5,0,2,,,,,,,,0,,,,62,38
38700,note_on,5,0,8,,,,,,,,6,,,,62,38
38700,note_on,5,0,9,,,,,,,,7,,,,50,38
38700,note_on,5,0,1,,,,,,,,0,,,,74,38
38700,note_on,5,0,14,,,,,,,,13,,,,50,38
38700,note_on,5,0,13,,,,,,,,12,,,,62,38
38780,note_off,80,0,4,,,,,,,,2,,,,86,64
38780,note_off,80,0,3,,,,,,,,1,,,,86,64
38815,note_off,115,0,8,,,,,,,,6,,,,62,64
38815,note_off,115,0,14,,,,,,,,13,,,,50,64
38815,note_off,115,0,13,,,,,,,,12,,,,62,64
38815,note_off,115,0,15,,,,,,,,14,,,,50,64
38815,note_off,115,0,1,,,,,,,,0,,,,74,64
38815,note_off,115,0,9,,,,,,,,7,,,,50,64
38815,note_off,115,0,2,,,,,,,,0,,,,62,64
38820,note_on,5,0,2,,,,,,,,0,,,,54,38
38820,note_on,5,0,1,,,,,,,,0,,,,66,38
38820,note_on,5,0,9,,,,,,,,7,,,,42,38
38820,note_on,40,0,4,,,,,,,,2,,,,86,57
38820,note_on,5,0,13,,,,,,,,12,,,,54,38
38820,note_on,5,0,14,,,,,,,,13,,,,42,38
38820,note_on,5,0,8,,,,,,,,6,,,,54,38
38820,note_on,40,0,3,,,,,,,,1,,,,86,72
38820,note_on,5,0,15,,,,,,,,14,,,,42,38
38900,note_off,80,0,3,,,,,,,,1,,,,86,64
38900,note_off,80,0,4,,,,,,,,2,,,,86,64
38940,note_on,40,0,4,,,,,,,,2,,,,86,56
38940,note_on,40,0,3,,,,,,,,1,,,,86,71
39020,note_off,80,0,3,,,,,,,,1,,,,86,64
39020,note_off,80,0,4,,,,,,,,2,,,,86,64
39060,note_on,40,0,3,,,,,,,,1,,,,78,70
39060,note_on,40,0,4,,,,,,,,2,,,,78,55
39140,note_off,80,0,4,,,,,,,,2,,,,78,64
39140,note_off,80,0,3,,,,,,,,1,,,,78,64
39180,note_on,40,0,4,,,,,,,,2,,,,86,54
39180,note_on,40,0,3,,,,,,,,1,,,,86,69
39220,note_off,400,0,9,,,,,,,,7,,,,42,64
39220,note_off,400,0,8,,,,,,,,6,,,,54,64
39220,note_off,400,0,13,,,,,,,,12,,,,54,64
39220,note_off,400,0,2,,,,,,,,0,,,,54,64
39220,note_off,400,0,14,,,,,,,,13,,,,42,64
39220,note_off,400,0,1,,,,,,,,0,,,,66,64
39220,note_off,400,0,15,,,,,,,,14,,,,42,64
39260,note_off,80,0,3,,,,,,,,1,,,,86,64
39260,note_off,80,0,4,,,,,,,,2,,,,86,64
39300,note_on,40,0,3,,,,,,,,1,,,,74,68
39300,note_on,40,0,4,,,,,,,,2,,,,74,53
39380,note_off,80,0,3,,,,,,,,1,,,,74,64
39380,note_off,80,0,4,,,,,,,,2,,,,74,64
39420,note_on,40,0,4,,,,,,,,2,,,,86,52
39420,note_on,40,0,3,,,,,,,,1,,,,86,67
39500,note_off,80,0,3,,,,,,,,1,,,,86,64
39500,note_off,80,0,4,,,,,,,,2,,,,86,64
39540,note_on,40,0,4,,,,,,,,2,,,,86,51
39540,note_on,40,0,3,,,,,,,,1,,,,86,66
39620,note_off,80,0,3,,,,,,,,1,,,,86,64
39620,note_off,80,0,4,,,,,,,,2,,,,86,64
39660,note_on,440,0,15,,,,,,,,14,,,,50,35
39660,note_on,40,0,4,,,,,,,,2,,,,86,50
39660,note_on,40,0,3,,,,,,,,1,,,,86,65
39660,note_on,440,0,8,,,,,,,,6,,,,62,35
39660,note_on,440,0,1,,,,,,,,0,,,,74,35
39660,note_on,440,0,14,,,,,,,,13,,,,50,35
39660,note_on,440,0,2,,,,,,,,0,,,,62,35
39660,note_on,440,0,13,,,,,,,,12,,,,62,35
39660,note_on,440,0,9,,,,,,,,7,,,,50,35
39740,note_off,80,0,4,,,,,,,,2,,,,86,64
39740,note_off,80,0,3,,,,,,,,1,,,,86,64
39775,note_off,115,0,2,,,,,,,,0,,,,62,64
39775,note_off,115,0,9,,,,,,,,7,,,,50,64
39775,note_off,115,0,14,,,,,,,,13,,,,50,64
39775,note_off,115,0,1,,,,,,,,0,,,,74,64
39775,note_off,115,0,15,,,,,,,,14,,,,50,64
39775,note_off,115,0,8,,,,,,,,6,,,,62,64
39775,note_off,115,0,13,,,,,,,,12,,,,62,64
39780,note_on,5,0,8,,,,,,,,6,,,,54,34
39780,note_on,5,0,9,,,,,,,,7,,,,42,34
39780,note_on,5,0,14,,,,,,,,13,,,,42,34
39780,note_on,5,0,2,,,,,,,,0,,,,54,34
39780,note_on,5,0,15,,,,,,,,14,,,,42,34
39780,note_on,40,0,3,,,,,,,,1,,,,86,64
39780,note_on,5,0,1,,,,,,,,0,,,,66,34
39780,note_on,5,0,13,,,,,,,,12,,,,54,34
39780,note_on,40,0,4,,,,,,,,2,,,,86,49
39860,note_off,80,0,3,,,,,,,,1,,,,86,64
39860,note_off,80,0,4,,,,,,,,2,,,,86,64
39900,note_on,40,0,3,,,,,,,,1,,,,86,63
39900,note_on,40,0,4,,,,,,,,2,,,,86,48
39980,note_off,80,0,3,,,,,,,,1,,,,86,64
39980,note_off,80,0,4,,,,,,,,2,,,,86,64
40020,note_on,40,0,4,,,,,,,,2,,,,78,47
40020,note_on,40,0,3,,,,,,,,1,,,,78,62
40100,note_off,80,0,4,,,,,,,,2,,,,78,64
40100,note_off,80,0,3,,,,,,,,1,,,,78,64
40140,note_on,40,0,4,,,,,,,,2,,,,86,46
40140,note_on,40,0,3,,,,,,,,1,,,,86,61
40180,note_off,400,0,2,,,,,,,,0,,,,54,64
40180,note_off,400,0,13,,,,,,,,12,,,,54,64
40180,note_off,400,0,14,,,,,,,,13,,,,42,64
40180,note_off,400,0,9,,,,,,,,7,,,,42,64
40180,note_off,400,0,1,,,,,,,,0,,,,66,64
40180,note_off,400,0,8,,,,,,,,6,,,,54,64
40180,note_off,400,0,15,,,,,,,,14,,,,42,64
40220,note_off,80,0,4,,,,,,,,2,,,,86,64
40220,note_off,80,0,3,,,,,,,,1,,,,86,64
40260,note_on,40,0,3,,,,,,,,1,,,,74,60
40260,note_on,40,0,4,,,,,,,,2,,,,74,45
40340,note_off,80,0,3,,,,,,,,1,,,,74,64
40340,note_off,80,0,4,,,,,,,,2,,,,74,64
40380,note_on,40,0,3,,,,,,,,1,,,,82,60
40380,note_on,40,0,4,,,,,,,,2,,,,82,45
40460,note_off,80,0,3,,,,,,,,1,,,,82,64
40460,note_off,80,0,4,,,,,,,,2,,,,82,64
40500,note_on,40,0,3,,,,,,,,1,,,,82,60
40500,note_on,40,0,4,,,,,,,,2,,,,82,45
40580,note_off,80,0,4,,,,,,,,2,,,,82,64
40580,note_off,80,0,3,,,,,,,,1,,,,82,64
40620,note_on,40,0,4,,,,,,,,2,,,,82,45
40620,note_on,440,0,1,,,,,,,,0,,,,67,30
40620,note_on,440,0,2,,,,,,,,0,,,,55,30
40620,note_on,440,0,14,,,,,,,,13,,,,43,30
40620,note_on,440,0,9,,,,,,,,7,,,,43,30
40620,note_on,40,0,3,,,,,,,,1,,,,82,60
40620,note_on,440,0,15,,,,,,,,14,,,,43,30
40620,note_on,440,0,8,,,,,,,,6,,,,55,30
40620,note_on,440,0,13,,,,,,,,12,,,,55,30
40700,note_off,80,0,3,,,,,,,,1,,,,82,64
40700,note_off,80,0,4,,,,,,,,2,,,,82,64
40735,note_off,115,0,2,,,,,,,,0,,,,55,64
40735,note_off,115,0,14,,,,,,,,13,,,,43,64
40735,note_off,115,0,8,,,,,,,,6,,,,55,64
40735,note_off,115,0,15,,,,,,,,14,,,,43,64
40735,note_off,115,0,13,,,,,,,,12,,,,55,64
40735,note_off,115,0,9,,,,,,,,7,,,,43,64
40735,note_off,115,0,1,,,,,,,,0,,,,67,64
40740,note_on,5,0,8,,,,,,,,6,,,,43,30
40740,note_on,40,0,3,,,,,,,,1,,,,82,60
40740,note_on,5,0,9,,,,,,,,7,,,,31,30
40740,note_on,5,0,14,,,,,,,,13,,,,31,30
40740,note_on,40,0,4,,,,,,,,2,,,,82,45
40740,note_on,5,0,2,,,,,,,,0,,,,43,30
40740,note_on,5,0,13,,,,,,,,12,,,,43,30
40740,note_on,5,0,15,,,,,,,,14,,,,31,30
40740,note_on,5,0,1,,,,,,,,0,,,,55,30
40820,note_off,80,0,3,,,,,,,,1,,,,82,64
40820,note_off,80,0,4,,,,,,,,2,,,,82,64
40860,note_on,40,0,3,,,,,,,,1,,,,82,60
40860,note_on,40,0,4,,,,,,,,2,,,,82,45
40940,note_off,80,0,3,,,,,,,,1,,,,82,64
40940,note_off,80,0,4,,,,,,,,2,,,,82,64
40980,note_on,40,0,3,,,,,,,,1,,,,79,60
40980,note_on,40,0,4,,,,,,,,2,,,,79,45
41060,note_off,80,0,4,,,,,,,,2,,,,79,64
41060,note_off,80,0,3,,,,,,,,1,,,,79,64
41100,note_on,40,0,3,,,,,,,,1,,,,82,60
41100,note_on,40,0,4,,,,,,,,2,,,,82,45
41140,note_off,400,0,2,,,,,,,,0,,,,43,64
41140,note_off,400,0,15,,,,,,,,14,,,,31,64
41140,note_off,400,0,14,,,,,,,,13,,,,31,64
41140,note_off,400,0,8,,,,,,,,6,,,,43,64
41140,note_off,400,0,9,,,,,,,,7,,,,31,64
41140,note_off,400,0,13,,,,,,,,12,,,,43,64
41140,note_off,400,0,1,,,,,,,,0,,,,55,64
41180,note_off,80,0,3,,,,,,,,1,,,,82,64
41180,note_off,80,0,4,,,,,,,,2,,,,82,64
41220,note_on,40,0,3,,,,,,,,1,,,,74,60
41220,note_on,40,0,4,,,,,,,,2,,,,74,45
41300,note_off,80,0,4,,,,,,,,2,,,,74,64
41300,note_off,80,0,3,,,,,,,,1,,,,74,64
41340,note_on,40,0,3,,,,,,,,1,,,,82,60
41340,note_on,40,0,4,,,,,,,,2,,,,82,45
41420,note_off,80,0,3,,,,,,,,1,,,,82,64
41420,note_off,80,0,4,,,,,,,,2,,,,82,64
41460,note_on,40,0,4,,,,,,,,2,,,,82,45
41460,note_on,40,0,3,,,,,,,,1,,,,82,60
41540,note_off,80,0,4,,,,,,,,2,,,,82,64
41540,note_off,80,0,3,,,,,,,,1,,,,82,64
41580,note_on,440,0,9,,,,,,,,7,,,,43,30
41580,note_on,440,0,15,,,,,,,,14,,,,43,30
41580,note_on,440,0,1,,,,,,,,0,,,,67,30
41580,note_on,40,0,4,,,,,,,,2,,,,82,45
41580,note_on,40,0,3,,,,,,,,1,,,,82,60
41580,note_on,440,0,13,,,,,,,,12,,,,55,30
41580,note_on,440,0,2,,,,,,,,0,,,,55,30
41580,note_on,440,0,14,,,,,,,,13,,,,43,30
41580,note_on,440,0,8,,,,,,,,6,,,,55,30
41660,note_off,80,0,4,,,,,,,,2,,,,82,64
41660,note_off,80,0,3,,,,,,,,1,,,,82,64
41695,note_off,115,0,2,,,,,,,,0,,,,55,64
41695,note_off,115,0,14,,,,,,,,13,,,,43,64
41695,note_off,115,0,8,,,,,,,,6,,,,55,64
41695,note_off,115,0,13,,,,,,,,12,,,,55,64
41695,note_off,115,0,1,,,,,,,,0,,,,67,64
41695,note_off,115,0,15,,,,,,,,14,,,,43,64
41695,note_off,115,0,9,,,,,,,,7,,,,43,64
41700,note_on,5,0,2,,,,,,,,0,,,,43,30
41700,note_on,5,0,13,,,,,,,,12,,,,43,30
41700,note_on,5,0,15,,,,,,,,14,,,,31,30
41700,note_on,5,0,14,,,,,,,,13,,,,31,30
41700,note_on,5,0,9,,,,,,,,7,,,,31,30
41700,note_on,40,0,4,,,,,,,,2,,,,82,45
41700,note_on,5,0,1,,,,,,,,0,,,,55,30
41700,note_on,5,0,8,,,,,,,,6,,,,43,30
41700,note_on,40,0,3,,,,,,,,1,,,,82,60
41780,note_off,80,0,4,,,,,,,,2,,,,82,64
41780,note_off,80,0,3,,,,,,,,1,,,,82,64
41820,note_on,40,0,3,,,,,,,,1,,,,82,60
41820,note_on,40,0,4,,,,,,,,2,,,,82,45
41900,note_off,80,0,3,,,,,,,,1,,,,82,64
41900,note_off,80,0,4,,,,,,,,2,,,,82,64
41940,note_on,40,0,3,,,,,,,,1,,,,79,60
41940,note_on,40,0,4,,,,,,,,2,,,,79,45
42020,note_off,80,0,4,,,,,,,,2,,,,79,64
42020,note_off,80,0,3,,,,,,,,1,,,,79,64
42060,note_on,40,0,4,,,,,,,,2,,,,82,45
42060,note_on,40,0,3,,,,,,,,1,,,,82,60
42100,note_off,400,0,8,,,,,,,,6,,,,43,64
42100,note_off,400,0,2,,,,,,,,0,,,,43,64
42100,note_off,400,0,1,,,,,,,,0,,,,55,64
42100,note_off,400,0,9,,,,,,,,7,,,,31,64
42100,note_off,400,0,14,,,,,,,,13,,,,31,64
42100,note_off,400,0,13,,,,,,,,12,,,,43,64
42100,note_off,400,0,15,,,,,,,,14,,,,31,64
42140,note_off,80,0,3,,,,,,,,1,,,,82,64
42140,note_off,80,0,4,,,,,,,,2,,,,82,64
42180,note_on,40,0,3,,,,,,,,1,,,,75,60
42180,note_on,40,0,4,,,,,,,,2,,,,75,45
42260,note_off,80,0,3,,,,,,,,1,,,,75,64
42260,note_off,80,0,4,,,,,,,,2,,,,75,64
42300,note_on,40,0,4,,,,,,,,2,,,,82,45
42300,note_on,40,0,3,,,,,,,,1,,,,82,60
42380,note_off,80,0,4,,,,,,,,2,,,,82,64
42380,note_off,80,0,3,,,,,,,,1,,,,82,64
42420,note_on,40,0,4,,,,,,,,2,,,,82,45
42420,note_on,40,0,3,,,,,,,,1,,,,82,60
42500,note_off,80,0,4,,,,,,,,2,,,,82,64
42500,note_off,80,0,3,,,,,,,,1,,,,82,64
42540,note_on,440,0,15,,,,,,,,14,,,,51,30
42540,note_on,40,0,3,,,,,,,,1,,,,82,60
42540,note_on,440,0,2,,,,,,,,0,,,,63,30
42540,note_on,440,0,13,,,,,,,,12,,,,63,30
42540,note_on,440,0,1,,,,,,,,0,,,,75,30
42540,note_on,440,0,14,,,,,,,,13,,,,51,30
42540,note_on,440,0,8,,,,,,,,6,,,,63,30
42540,note_on,440,0,9,,,,,,,,7,,,,51,30
42540,note_on,40,0,4,,,,,,,,2,,,,82,45
42620,note_off,80,0,3,,,,,,,,1,,,,82,64
42620,note_off,80,0,4,,,,,,,,2,,,,82,64
42655,note_off,115,0,9,,,,,,,,7,,,,51,64
42655,note_off,115,0,8,,,,,,,,6,,,,63,64
42655,note_off,115,0,2,,,,,,,,0,,,,63,64
42655,note_off,115,0,14,,,,,,,,13,,,,51,64
42655,note_off,115,0,1,,,,,,,,0,,,,75,64
42655,note_off,115,0,15,,,,,,,,14,,,,51,64
42655,note_off,115,0,13,,,,,,,,12,,,,63,64
42660,note_on,40,0,4,,,,,,,,2,,,,82,45
42660,note_on,5,0,15,,,,,,,,14,,,,43,30
42660,note_on,5,0,1,,,,,,,,0,,,,67,30
42660,note_on,5,0,8,,,,,,,,6,,,,55,30
42660,note_on,40,0,3,,,,,,,,1,,,,82,60
42660,note_on,5,0,14,,,,,,,,13,,,,43,30
42660,note_on,5,0,9,,,,,,,,7,,,,43,30
42660,note_on,5,0,13,,,,,,,,12,,,,55,30
42660,note_on,5,0,2,,,,,,,,0,,,,55,30
42740,note_off,80,0,4,,,,,,,,2,,,,82,64
42740,note_off,80,0,3,,,,,,,,1,,,,82,64
42780,note_on,40,0,3,,,,,,,,1,,,,82,60
42780,note_on,40,0,4,,,,,,,,2,,,,82,45
42860,note_off,80,0,3,,,,,,,,1,,,,82,64
42860,note_off,80,0,4,,,,,,,,2,,,,82,64
42900,note_on,40,0,3,,,,,,,,1,,,,79,60
42900,note_on,40,0,4,,,,,,,,2,,,,79,45
42980,note_off,80,0,4,,,,,,,,2,,,,79,64
42980,note_off,80,0,3,,,,,,,,1,,,,79,64
43020,note_on,40,0,3,,,,,,,,1,,,,82,60
43020,note_on,40,0,4,,,,,,,,2,,,,82,45
43060,note_off,400,0,2,,,,,,,,0,,,,55,64
43060,note_off,400,0,1,,,,,,,,0,,,,67,64
43060,note_off,400,0,13,,,,,,,,12,,,,55,64
43060,note_off,400,0,8,,,,,,,,6,,,,55,64
43060,note_off,400,0,15,,,,,,,,14,,,,43,64
43060,note_off,400,0,14,,,,,,,,13,,,,43,64
43060,note_off,400,0,9,,,,,,,,7,,,,43,64
43100,note_off,80,0,3,,,,,,,,1,,,,82,64
43100,note_off,80,0,4,,,,,,,,2,,,,82,64
43140,note_on,40,0,3,,,,,,,,1,,,,75,60
43140,note_on,40,0,4,,,,,,,,2,,,,75,45
43220,note_off,80,0,4,,,,,,,,2,,,,75,64
43220,note_off,80,0,3,,,,,,,,1,,,,75,64
43260,note_on,40,0,4,,,,,,,,2,,,,82,45
43260,note_on,40,0,3,,,,,,,,1,,,,82,60
43340,note_off,80,0,4,,,,,,,,2,,,,82,64
43340,note_off,80,0,3,,,,,,,,1,,,,82,64
43380,note_on,40,0,4,,,,,,,,2,,,,82,45
43380,note_on,40,0,3,,,,,,,,1,,,,82,60
43460,note_off,80,0,3,,,,,,,,1,,,,82,64
43460,note_off,80,0,4,,,,,,,,2,,,,82,64
43500,note_on,440,0,2,,,,,,,,0,,,,63,30
43500,note_on,440,0,8,,,,,,,,6,,,,63,30
43500,note_on,440,0,15,,,,,,,,14,,,,51,30
43500,note_on,40,0,3,,,,,,,,1,,,,82,60
43500,note_on,40,0,4,,,,,,,,2,,,,82,45
43500,note_on,440,0,14,,,,,,,,13,,,,51,30
43500,note_on,440,0,1,,,,,,,,0,,,,75,30
43500,note_on,440,0,9,,,,,,,,7,,,,51,30
43500,note_on,440,0,13,,,,,,,,12,,,,63,30
43580,note_off,80,0,4,,,,,,,,2,,,,82,64
43580,note_off,80,0,3,,,,,,,,1,,,,82,64
43615,note_off,115,0,14,,,,,,,,13,,,,51,64
43615,note_off,115,0,15,,,,,,,,14,,,,51,64
43615,note_off,115,0,9,,,,,,,,7,,,,51,64
43615,note_off,115,0,2,,,,,,,,0,,,,63,64
43615,note_off,115,0,13,,,,,,,,12,,,,63,64
43615,note_off,115,0,8,,,,,,,,6,,,,63,64
43615,note_off,115,0,1,,,,,,,,0,,,,75,64
43620,note_on,40,0,3,,,,,,,,1,,,,82,60
43620,note_on,40,0,4,,,,,,,,2,,,,82,45
43620,note_on,5,0,14,,,,,,,,13,,,,43,30
43620,note_on,5,0,15,,,,,,,,14,,,,43,30
43620,note_on,5,0,1,,,,,,,,0,,,,67,30
43620,note_on,5,0,13,,,,,,,,12,,,,55,30
43620,note_on,5,0,2,,,,,,,,0,,,,55,30
43620,note_on,5,0,9,,,,,,,,7,,,,43,30
43620,note_on,5,0,8,,,,,,,,6,,,,55,30
43700,note_off,80,0,3,,,,,,,,1,,,,82,64
43700,note_off,80,0,4,,,,,,,,2,,,,82,64
43740,note_on,40,0,3,,,,,,,,1,,,,82,60
43740,note_on,40,0,4,,,,,,,,2,,,,82,45
43820,note_off,80,0,3,,,,,,,,1,,,,82,64
43820,note_off,80,0,4,,,,,,,,2,,,,82,64
43860,note_on,40,0,3,,,,,,,,1,,,,79,60
43860,note_on,40,0,4,,,,,,,,2,,,,79,45
43940,note_off,80,0,4,,,,,,,,2,,,,79,64
43940,note_off,80,0,3,,,,,,,,1,,,,79,64
43980,note_on,40,0,4,,,,,,,,2,,,,82,45
43980,note_on,40,0,3,,,,,,,,1,,,,82,60
44020,note_off,400,0,8,,,,,,,,6,,,,55,64
44020,note_off,400,0,1,,,,,,,,0,,,,67,64
44020,note_off,400,0,2,,,,,,,,0,,,,55,64
44020,note_off,400,0,9,,,,,,,,7,,,,43,64
44020,note_off,400,0,13,,,,,,,,12,,,,55,64
44020,note_off,400,0,14,,,,,,,,13,,,,43,64
44020,note_off,400,0,15,,,,,,,,14,,,,43,64
44060,note_off,80,0,3,,,,,,,,1,,,,82,64
44060,note_off,80,0,4,,,,,,,,2,,,,82,64
44100,note_on,40,0,3,,,,,,,,1,,,,75,60
44100,note_on,40,0,4,,,,,,,,2,,,,75,45
44180,note_off,80,0,4,,,,,,,,2,,,,75,64
44180,note_off,80,0,3,,,,,,,,1,,,,75,64
44220,note_on,40,0,3,,,,,,,,1,,,,84,60
44220,note_on,40,0,4,,,,,,,,2,,,,84,45
44300,note_off,80,0,3,,,,,,,,1,,,,84,64
44300,note_off,80,0,4,,,,,,,,2,,,,84,64
44340,note_on,40,0,3,,,,,,,,1,,,,84,60
44340,note_on,40,0,4,,,,,,,,2,,,,84,45
44420,note_off,80,0,3,,,,,,,,1,,,,84,64
44420,note_off,80,0,4,,,,,,,,2,,,,84,64
44460,note_on,440,0,2,,,,,,,,0,,,,60,30
44460,note_on,440,0,9,,,,,,,,7,,,,48,30
44460,note_on,40,0,3,,,,,,,,1,,,,84,60
44460,note_on,440,0,14,,,,,,,,13,,,,48,30
44460,note_on,440,0,1,,,,,,,,0,,,,72,30
44460,note_on,440,0,13,,,,,,,,12,,,,60,30
44460,note_on,40,0,4,,,,,,,,2,,,,84,45
44460,note_on,440,0,8,,,,,,,,6,,,,60,30
44460,note_on,440,0,15,,,,,,,,14,,,,48,30
44540,note_off,80,0,3,,,,,,,,1,,,,84,64
44540,note_off,80,0,4,,,,,,,,2,,,,84,64
44575,note_off,115,0,1,,,,,,,,0,,,,72,64
44575,note_off,115,0,9,,,,,,,,7,,,,48,64
44575,note_off,115,0,13,,,,,,,,12,,,,60,64
44575,note_off,115,0,8,,,,,,,,6,,,,60,64
44575,note_off,115,0,14,,,,,,,,13,,,,48,64
44575,note_off,115,0,2,,,,,,,,0,,,,60,64
44575,note_off,115,0,15,,,,,,,,14,,,,48,64
44580,note_on,5,0,8,,,,,,,,6,,,,52,30
44580,note_on,40,0,3,,,,,,,,1,,,,84,60
44580,note_on,40,0,4,,,,,,,,2,,,,84,45
44580,note_on,5,0,9,,,,,,,,7,,,,40,30
44580,note_on,5,0,1,,,,,,,,0,,,,64,30
44580,note_on,5,0,15,,,,,,,,14,,,,40,30
44580,note_on,5,0,13,,,,,,,,12,,,,52,30
44580,note_on,5,0,14,,,,,,,,13,,,,40,30
44580,note_on,5,0,2,,,,,,,,0,,,,52,30
44660,note_off,80,0,4,,,,,,,,2,,,,84,64
44660,note_off,80,0,3,,,,,,,,1,,,,84,64
44700,note_on,40,0,3,,,,,,,,1,,,,84,60
44700,note_on,40,0,4,,,,,,,,2,,,,84,45
44780,note_off,80,0,3,,,,,,,,1,,,,84,64
44780,note_off,80,0,4,,,,,,,,2,,,,84,64
44820,note_on,40,0,3,,,,,,,,1,,,,79,60
44820,note_on,40,0,4,,,,,,,,2,,,,79,45
44900,note_off,80,0,3,,,,,,,,1,,,,79,64
44900,note_off,80,0,4,,,,,,,,2,,,,79,64
44940,note_on,40,0,3,,,,,,,,1,,,,84,60
44940,note_on,40,0,4,,,,,,,,2,,,,84,45
44980,note_off,400,0,9,,,,,,,,7,,,,40,64
44980,note_off,400,0,1,,,,,,,,0,,,,64,64
44980,note_off,400,0,14,,,,,,,,13,,,,40,64
44980,note_off,400,0,2,,,,,,,,0,,,,52,64
44980,note_off,400,0,15,,,,,,,,14,,,,40,64
44980,note_off,400,0,8,,,,,,,,6,,,,52,64
44980,note_off,400,0,13,,,,,,,,12,,,,52,64
45020,note_off,80,0,4,,,,,,,,2,,,,84,64
45020,note_off,80,0,3,,,,,,,,1,,,,84,64
45060,note_on,40,0,3,,,,,,,,1,,,,76,60
45060,note_on,40,0,4,,,,,,,,2,,,,76,45
45140,note_off,80,0,4,,,,,,,,2,,,,76,64
45140,note_off,80,0,3,,,,,,,,1,,,,76,64
45180,note_on,40,0,4,,,,,,,,2,,,,84,45
45180,note_on,40,0,3,,,,,,,,1,,,,84,60
45260,note_off,80,0,3,,,,,,,,1,,,,84,64
45260,note_off,80,0,4,,,,,,,,2,,,,84,64
45300,note_on,40,0,4,,,,,,,,2,,,,84,45
45300,note_on,40,0,3,,,,,,,,1,,,,84,60
45380,note_off,80,0,3,,,,,,,,1,,,,84,64
45380,note_off,80,0,4,,,,,,,,2,,,,84,64
45420,note_on,440,0,14,,,,,,,,13,,,,48,33
45420,note_on,440,0,9,,,,,,,,7,,,,48,33
45420,note_on,40,0,4,,,,,,,,2,,,,84,45
45420,note_on,440,0,1,,,,,,,,0,,,,72,33
45420,note_on,440,0,2,,,,,,,,0,,,,60,33
45420,note_on,440,0,13,,,,,,,,12,,,,60,33
45420,note_on,440,0,15,,,,,,,,14,,,,48,33
45420,note_on,40,0,3,,,,,,,,1,,,,84,60
45420,note_on,440,0,8,,,,,,,,6,,,,60,33
45500,note_off,80,0,4,,,,,,,,2,,,,84,64
45500,note_off,80,0,3,,,,,,,,1,,,,84,64
45535,note_off,115,0,2,,,,,,,,0,,,,60,64
45535,note_off,115,0,1,,,,,,,,0,,,,72,64
45535,note_off,115,0,14,,,,,,,,13,,,,48,64
45535,note_off,115,0,13,,,,,,,,12,,,,60,64
45535,note_off,115,0,9,,,,,,,,7,,,,48,64
45535,note_off,115,0,15,,,,,,,,14,,,,48,64
45535,note_off,115,0,8,,,,,,,,6,,,,60,64
45540,note_on,40,0,3,,,,,,,,1,,,,84,60
45540,note_on,5,0,2,,,,,,,,0,,,,52,33
45540,note_on,5,0,14,,,,,,,,13,,,,40,33
45540,note_on,5,0,15,,,,,,,,14,,,,40,33
45540,note_on,5,0,13,,,,,,,,12,,,,52,33
45540,note_on,5,0,1,,,,,,,,0,,,,64,33
45540,note_on,40,0,4,,,,,,,,2,,,,84,45
45540,note_on,5,0,8,,,,,,,,6,,,,52,33
45540,note_on,5,0,9,,,,,,,,7,,,,40,33
45620,note_off,80,0,4,,,,,,,,2,,,,84,64
45620,note_off,80,0,3,,,,,,,,1,,,,84,64
45660,note_on,40,0,4,,,,,,,,2,,,,84,45
45660,note_on,40,0,3,,,,,,,,1,,,,84,60
45740,note_off,80,0,4,,,,,,,,2,,,,84,64
45740,note_off,80,0,3,,,,,,,,1,,,,84,64
45780,note_on,40,0,4,,,,,,,,2,,,,79,45
45780,note_on,40,0,3,,,,,,,,1,,,,79,60
45860,note_off,80,0,4,,,,,,,,2,,,,79,64
45860,note_off,80,0,3,,,,,,,,1,,,,79,64
45900,note_on,40,0,3,,,,,,,,1,,,,84,60
45900,note_on,40,0,4,,,,,,,,2,,,,84,45
45940,note_off,400,0,14,,,,,,,,13,,,,40,64
45940,note_off,400,0,1,,,,,,,,0,,,,64,64
45940,note_off,400,0,2,,,,,,,,0,,,,52,64
45940,note_off,400,0,9,,,,,,,,7,,,,40,64
45940,note_off,400,0,13,,,,,,,,12,,,,52,64
45940,note_off,400,0,15,,,,,,,,14,,,,40,64
45940,note_off,400,0,8,,,,,,,,6,,,,52,64
45980,note_off,80,0,3,,,,,,,,1,,,,84,64
45980,note_off,80,0,4,,,,,,,,2,,,,84,64
46020,note_on,40,0,3,,,,,,,,1,,,,77,60
46020,note_on,40,0,4,,,,,,,,2,,,,77,45
46100,note_off,80,0,3,,,,,,,,1,,,,77,64
46100,note_off,80,0,4,,,,,,,,2,,,,77,64
46140,note_on,40,0,4,,,,,,,,2,,,,84,45
46140,note_on,40,0,3,,,,,,,,1,,,,84,60
46220,note_off,80,0,3,,,,,,,,1,,,,84,64
46220,note_off,80,0,4,,,,,,,,2,,,,84,64
46260,note_on,40,0,3,,,,,,,,1,,,,84,61
46260,note_on,40,0,4,,,,,,,,2,,,,84,46
46340,note_off,80,0,3,,,,,,,,1,,,,84,64
46340,note_off,80,0,4,,,,,,,,2,,,,84,64
46380,note_on,440,0,9,,,,,,,,7,,,,48,36
46380,note_on,440,0,8,,,,,,,,6,,,,60,36
46380,note_on,440,0,14,,,,,,,,13,,,,48,36
46380,note_on,40,0,4,,,,,,,,2,,,,84,47
46380,note_on,440,0,13,,,,,,,,12,,,,60,36
46380,note_on,40,0,3,,,,,,,,1,,,,84,62
46380,note_on,440,0,15,,,,,,,,14,,,,48,36
46380,note_on,440,0,1,,,,,,,,0,,,,72,36
46380,note_on,440,0,2,,,,,,,,0,,,,60,36
46460,note_off,80,0,3,,,,,,,,1,,,,84,64
46460,note_off,80,0,4,,,,,,,,2,,,,84,64
46495,note_off,115,0,13,,,,,,,,12,,,,60,64
46495,note_off,115,0,9,,,,,,,,7,,,,48,64
46495,note_off,115,0,15,,,,,,,,14,,,,48,64
46495,note_off,115,0,1,,,,,,,,0,,,,72,64
46495,note_off,115,0,2,,,,,,,,0,,,,60,64
46495,note_off,115,0,8,,,,,,,,6,,,,60,64
46495,note_off,115,0,14,,,,,,,,13,,,,48,64
46500,note_on,5,0,8,,,,,,,,6,,,,53,36
46500,note_on,5,0,14,,,,,,,,13,,,,41,36
46500,note_on,40,0,3,,,,,,,,1,,,,84,63
46500,note_on,5,0,15,,,,,,,,14,,,,41,36
46500,note_on,5,0,1,,,,,,,,0,,,,65,36
46500,note_on,5,0,13,,,,,,,,12,,,,53,36
46500,note_on,5,0,9,,,,,,,,7,,,,41,36
46500,note_on,40,0,4,,,,,,,,2,,,,84,48
46500,note_on,5,0,2,,,,,,,,0,,,,53,36
46580,note_off,80,0,4,,,,,,,,2,,,,84,64
46580,note_off,80,0,3,,,,,,,,1,,,,84,64
46620,note_on,40,0,4,,,,,,,,2,,,,84,49
46620,note_on,40,0,3,,,,,,,,1,,,,84,64
46700,note_off,80,0,3,,,,,,,,1,,,,84,64
46700,note_off,80,0,4,,,,,,,,2,,,,84,64
46740,note_on,40,0,4,,,,,,,,2,,,,81,50
46740,note_on,40,0,3,,,,,,,,1,,,,81,65
46820,note_off,80,0,4,,,,,,,,2,,,,81,64
46820,note_off,80,0,3,,,,,,,,1,,,,81,64
46860,note_on,40,0,4,,,,,,,,2,,,,84,51
46860,note_on,40,0,3,,,,,,,,1,,,,84,66
46900,note_off,400,0,2,,,,,,,,0,,,,53,64
46900,note_off,400,0,9,,,,,,,,7,,,,41,64
46900,note_off,400,0,8,,,,,,,,6,,,,53,64
46900,note_off,400,0,1,,,,,,,,0,,,,65,64
46900,note_off,400,0,14,,,,,,,,13,,,,41,64
46900,note_off,400,0,13,,,,,,,,12,,,,53,64
46900,note_off,400,0,15,,,,,,,,14,,,,41,64
46940,note_off,80,0,3,,,,,,,,1,,,,84,64
46940,note_off,80,0,4,,,,,,,,2,,,,84,64
46980,note_on,40,0,3,,,,,,,,1,,,,77,67
46980,note_on,40,0,4,,,,,,,,2,,,,77,52
47060,note_off,80,0,4,,,,,,,,2,,,,77,64
47060,note_off,80,0,3,,,,,,,,1,,,,77,64
47100,note_on,40,0,4,,,,,,,,2,,,,84,53
47100,note_on,40,0,3,,,,,,,,1,,,,84,68
47180,note_off,80,0,3,,,,,,,,1,,,,84,64
47180,note_off,80,0,4,,,,,,,,2,,,,84,64
47220,note_on,40,0,3,,,,,,,,1,,,,84,69
47220,note_on,40,0,4,,,,,,,,2,,,,84,54
47300,note_off,80,0,4,,,,,,,,2,,,,84,64
47300,note_off,80,0,3,,,,,,,,1,,,,84,64
47340,note_on,40,0,3,,,,,,,,1,,,,84,70
47340,note_on,440,0,13,,,,,,,,12,,,,60,40
47340,note_on,440,0,8,,,,,,,,6,,,,60,40
47340,note_on,440,0,2,,,,,,,,0,,,,60,40
47340,note_on,440,0,14,,,,,,,,13,,,,48,40
47340,note_on,440,0,1,,,,,,,,0,,,,72,40
47340,note_on,440,0,9,,,,,,,,7,,,,48,40
47340,note_on,440,0,15,,,,,,,,14,,,,48,40
47340,note_on,40,0,4,,,,,,,,2,,,,84,55
47420,note_off,80,0,3,,,,,,,,1,,,,84,64
47420,note_off,80,0,4,,,,,,,,2,,,,84,64
47455,note_off,115,0,14,,,,,,,,13,,,,48,64
47455,note_off,115,0,15,,,,,,,,14,,,,48,64
47455,note_off,115,0,13,,,,,,,,12,,,,60,64
47455,note_off,115,0,1,,,,,,,,0,,,,72,64
47455,note_off,115,0,8,,,,,,,,6,,,,60,64
47455,note_off,115,0,2,,,,,,,,0,,,,60,64
47455,note_off,115,0,9,,,,,,,,7,,,,48,64
47460,note_on,5,0,14,,,,,,,,13,,,,41,41
47460,note_on,5,0,13,,,,,,,,12,,,,53,41
47460,note_on,5,0,2,,,,,,,,0,,,,53,41
47460,note_on,40,0,4,,,,,,,,2,,,,84,56
47460,note_on,5,0,1,,,,,,,,0,,,,65,41
47460,note_on,5,0,8,,,,,,,,6,,,,53,41
47460,note_on,40,0,3,,,,,,,,1,,,,84,71
47460,note_on,5,0,9,,,,,,,,7,,,,41,41
47460,note_on,5,0,15,,,,,,,,14,,,,41,41
47540,note_off,80,0,3,,,,,,,,1,,,,84,64
47540,note_off,80,0,4,,,,,,,,2,,,,84,64
47580,note_on,40,0,4,,,,,,,,2,,,,84,57
47580,note_on,40,0,3,,,,,,,,1,,,,84,72
47660,note_off,80,0,4,,,,,,,,2,,,,84,64
47660,note_off,80,0,3,,,,,,,,1,,,,84,64
47700,note_on,40,0,4,,,,,,,,2,,,,81,58
47700,note_on,40,0,3,,,,,,,,1,,,,81,73
47780,note_off,80,0,3,,,,,,,,1,,,,81,64
47780,note_off,80,0,4,,,,,,,,2,,,,81,64
47820,note_on,40,0,3,,,,,,,,1,,,,84,74
47820,note_on,40,0,4,,,,,,,,2,,,,84,59
47860,note_off,400,0,1,,,,,,,,0,,,,65,64
47860,note_off,400,0,14,,,,,,,,13,,,,41,64
47860,note_off,400,0,15,,,,,,,,14,,,,41,64
47860,note_off,400,0,2,,,,,,,,0,,,,53,64
47860,note_off,400,0,9,,,,,,,,7,,,,41,64
47860,note_off,400,0,8,,,,,,,,6,,,,53,64
47860,note_off,400,0,13,,,,,,,,12,,,,53,64
47900,note_off,80,0,4,,,,,,,,2,,,,84,64
47900,note_off,80,0,3,,,,,,,,1,,,,84,64
47940,note_on,40,0,4,,,,,,,,2,,,,77,60
47940,note_on,40,0,3,,,,,,,,1,,,,77,75
48020,note_off,80,0,4,,,,,,,,2,,,,77,64
48020,note_off,80,0,3,,,,,,,,1,,,,77,64
48060,note_on,40,0,3,,,,,,,,1,,,,86,75
48060,note_on,40,0,4,,,,,,,,2,,,,86,60
48140,note_off,80,0,3,,,,,,,,1,,,,86,64
48140,note_off,80,0,4,,,,,,,,2,,,,86,64
48180,note_on,40,0,3,,,,,,,,1,,,,86,75
48180,note_on,40,0,4,,,,,,,,2,,,,86,60
48260,note_off,80,0,4,,,,,,,,2,,,,86,64
48260,note_off,80,0,3,,,,,,,,1,,,,86,64
48300,note_on,440,0,8,,,,,,,,6,,,,62,45
48300,note_on,440,0,2,,,,,,,,0,,,,62,45
48300,note_on,440,0,9,,,,,,,,7,,,,50,45
48300,note_on,440,0,13,,,,,,,,12,,,,62,45
48300,note_on,440,0,14,,,,,,,,13,,,,50,45
48300,note_on,440,0,15,,,,,,,,14,,,,50,45
48300,note_on,440,0,1,,,,,,,,0,,,,74,45
48300,note_on,40,0,3,,,,,,,,1,,,,86,75
48300,note_on,40,0,4,,,,,,,,2,,,,86,60
48380,note_off,80,0,4,,,,,,,,2,,,,86,64
48380,note_off,80,0,3,,,,,,,,1,,,,86,64
48415,note_off,115,0,9,,,,,,,,7,,,,50,64
48415,note_off,115,0,15,,,,,,,,14,,,,50,64
48415,note_off,115,0,2,,,,,,,,0,,,,62,64
48415,note_off,115,0,1,,,,,,,,0,,,,74,64
48415,note_off,115,0,13,,,,,,,,12,,,,62,64
48415,note_off,115,0,8,,,,,,,,6,,,,62,64
48415,note_off,115,0,14,,,,,,,,13,,,,50,64
48420,note_on,5,0,2,,,,,,,,0,,,,54,45
48420,note_on,5,0,15,,,,,,,,14,,,,42,45
48420,note_on,5,0,13,,,,,,,,12,,,,54,45
48420,note_on,40,0,4,,,,,,,,2,,,,86,60
48420,note_on,5,0,8,,,,,,,,6,,,,54,45
48420,note_on,5,0,9,,,,,,,,7,,,,42,45
48420,note_on,5,0,14,,,,,,,,13,,,,42,45
48420,note_on,40,0,3,,,,,,,,1,,,,86,75
48420,note_on,5,0,1,,,,,,,,0,,,,66,45
48500,note_off,80,0,3,,,,,,,,1,,,,86,64
48500,note_off,80,0,4,,,,,,,,2,,,,86,64
48540,note_on,40,0,3,,,,,,,,1,,,,86,75
48540,note_on,40,0,4,,,,,,,,2,,,,86,60
48620,note_off,80,0,3,,,,,,,,1,,,,86,64
48620,note_off,80,0,4,,,,,,,,2,,,,86,64
48660,note_on,40,0,3,,,,,,,,1,,,,81,75
48660,note_on,40,0,4,,,,,,,,2,,,,81,60
48740,note_off,80,0,3,,,,,,,,1,,,,81,64
48740,note_off,80,0,4,,,,,,,,2,,,,81,64
48780,note_on,40,0,3,,,,,,,,1,,,,86,75
48780,note_on,40,0,4,,,,,,,,2,,,,86,60
48820,note_off,400,0,2,,,,,,,,0,,,,54,64
48820,note_off,400,0,15,,,,,,,,14,,,,42,64
48820,note_off,400,0,1,,,,,,,,0,,,,66,64
48820,note_off,400,0,14,,,,,,,,13,,,,42,64
48820,note_off,400,0,9,,,,,,,,7,,,,42,64
48820,note_off,400,0,8,,,,,,,,6,,,,54,64
48820,note_off,400,0,13,,,,,,,,12,,,,54,64
48860,note_off,80,0,4,,,,,,,,2,,,,86,64
48860,note_off,80,0,3,,,,,,,,1,,,,86,64
48900,note_on,40,0,4,,,,,,,,2,,,,78,60
48900,note_on,40,0,3,,,,,,,,1,,,,78,75
48980,note_off,80,0,4,,,,,,,,2,,,,78,64
48980,note_off,80,0,3,,,,,,,,1,,,,78,64
49020,note_on,40,0,4,,,,,,,,2,,,,86,60
49020,note_on,40,0,3,,,,,,,,1,,,,86,75
49100,note_off,80,0,4,,,,,,,,2,,,,86,64
49100,note_off,80,0,3,,,,,,,,1,,,,86,64
49140,note_on,40,0,4,,,,,,,,2,,,,86,60
49140,note_on,40,0,3,,,,,,,,1,,,,86,75
49220,note_off,80,0,4,,,,,,,,2,,,,86,64
49220,note_off,80,0,3,,,,,,,,1,,,,86,64
49260,note_on,440,0,15,,,,,,,,14,,,,50,45
49260,note_on,440,0,14,,,,,,,,13,,,,50,45
49260,note_on,440,0,13,,,,,,,,12,,,,62,45
49260,note_on,440,0,8,,,,,,,,6,,,,62,45
49260,note_on,440,0,1,,,,,,,,0,,,,74,45
49260,note_on,40,0,3,,,,,,,,1,,,,86,75
49260,note_on,40,0,4,,,,,,,,2,,,,86,60
49260,note_on,440,0,9,,,,,,,,7,,,,50,45
49260,note_on,440,0,2,,,,,,,,0,,,,62,45
49340,note_off,80,0,4,,,,,,,,2,,,,86,64
49340,note_off,80,0,3,,,,,,,,1,,,,86,64
49375,note_off,115,0,2,,,,,,,,0,,,,62,64
49375,note_off,115,0,13,,,,,,,,12,,,,62,64
49375,note_off,115,0,8,,,,,,,,6,,,,62,64
49375,note_off,115,0,1,,,,,,,,0,,,,74,64
49375,note_off,115,0,14,,,,,,,,13,,,,50,64
49375,note_off,115,0,15,,,,,,,,14,,,,50,64
49375,note_off,115,0,9,,,,,,,,7,,,,50,64
49380,note_on,5,0,15,,,,,,,,14,,,,42,45
49380,note_on,5,0,8,,,,,,,,6,,,,54,45
49380,note_on,40,0,3,,,,,,,,1,,,,86,75
49380,note_on,5,0,14,,,,,,,,13,,,,42,45
49380,note_on,5,0,9,,,,,,,,7,,,,42,45
49380,note_on,40,0,4,,,,,,,,2,,,,86,60
49380,note_on,5,0,2,,,,,,,,0,,,,54,45
49380,note_on,5,0,13,,,,,,,,12,,,,54,45
49380,note_on,5,0,1,,,,,,,,0,,,,66,45
49460,note_off,80,0,3,,,,,,,,1,,,,86,64
49460,note_off,80,0,4,,,,,,,,2,,,,86,64
49500,note_on,40,0,3,,,,,,,,1,,,,86,75
49500,note_on,40,0,4,,,,,,,,2,,,,86,60
49580,note_off,80,0,4,,,,,,,,2,,,,86,64
49580,note_off,80,0,3,,,,,,,,1,,,,86,64
49620,note_on,40,0,4,,,,,,,,2,,,,81,60
49620,note_on,40,0,3,,,,,,,,1,,,,81,75
49700,note_off,80,0,3,,,,,,,,1,,,,81,64
49700,note_off,80,0,4,,,,,,,,2,,,,81,64
49740,note_on,40,0,4,,,,,,,,2,,,,86,60
49740,note_on,40,0,3,,,,,,,,1,,,,86,75
49780,note_off,400,0,14,,,,,,,,13,,,,42,64
49780,note_off,400,0,8,,,,,,,,6,,,,54,64
49780,note_off,400,0,1,,,,,,,,0,,,,66,64
49780,note_off,400,0,15,,,,,,,,14,,,,42,64
49780,note_off,400,0,13,,,,,,,,12,,,,54,64
49780,note_off,400,0,2,,,,,,,,0,,,,54,64
49780,note_off,400,0,9,,,,,,,,7,,,,42,64
49820,note_off,80,0,4,,,,,,,,2,,,,86,64
49820,note_off,80,0,3,,,,,,,,1,,,,86,64
49860,note_on,40,0,3,,,,,,,,1,,,,82,75
49860,note_on,40,0,4,,,,,,,,2,,,,82,60
49940,note_off,80,0,3,,,,,,,,1,,,,82,64
49940,note_off,80,0,4,,,,,,,,2,,,,82,64
49980,note_on,40,0,3,,,,,,,,1,,,,79,75
49980,note_on,40,0,4,,,,,,,,2,,,,79,60
50060,note_off,80,0,4,,,,,,,,2,,,,79,64
50060,note_off,80,0,3,,,,,,,,1,,,,79,64
50100,note_on,40,0,4,,,,,,,,2,,,,79,60
50100,note_on,40,0,3,,,,,,,,1,,,,79,75
50180,note_off,80,0,3,,,,,,,,1,,,,79,64
50180,note_off,80,0,4,,,,,,,,2,,,,79,64
50220,note_on,440,0,2,,,,,,,,0,,,,55,45
50220,note_on,40,0,3,,,,,,,,1,,,,79,75
50220,note_on,440,0,1,,,,,,,,0,,,,67,45
50220,note_on,440,0,13,,,,,,,,12,,,,55,45
50220,note_on,440,0,15,,,,,,,,14,,,,43,45
50220,note_on,40,0,4,,,,,,,,2,,,,79,60
50220,note_on,440,0,14,,,,,,,,13,,,,43,45
50220,note_on,440,0,9,,,,,,,,7,,,,43,45
50220,note_on,440,0,8,,,,,,,,6,,,,55,45
50300,note_off,80,0,3,,,,,,,,1,,,,79,64
50300,note_off,80,0,4,,,,,,,,2,,,,79,64
50335,note_off,115,0,8,,,,,,,,6,,,,55,64
50335,note_off,115,0,1,,,,,,,,0,,,,67,64
50335,note_off,115,0,9,,,,,,,,7,,,,43,64
50335,note_off,115,0,13,,,,,,,,12,,,,55,64
50335,note_off,115,0,14,,,,,,,,13,,,,43,64
50335,note_off,115,0,15,,,,,,,,14,,,,43,64
50335,note_off,115,0,2,,,,,,,,0,,,,55,64
50340,note_on,5,0,9,,,,,,,,7,,,,34,45
50340,note_on,5,0,8,,,,,,,,6,,,,46,45
50340,note_on,40,0,3,,,,,,,,1,,,,79,75
50340,note_on,5,0,14,,,,,,,,13,,,,34,45
50340,note_on,40,0,4,,,,,,,,2,,,,79,60
50340,note_on,5,0,13,,,,,,,,12,,,,46,45
50340,note_on,5,0,1,,,,,,,,0,,,,58,45
50340,note_on,5,0,15,,,,,,,,14,,,,34,45
50340,note_on,5,0,2,,,,,,,,0,,,,46,45
50420,note_off,80,0,4,,,,,,,,2,,,,79,64
50420,note_off,80,0,3,,,,,,,,1,,,,79,64
50460,note_on,40,0,3,,,,,,,,1,,,,79,75
50460,note_on,40,0,4,,,,,,,,2,,,,79,60
50540,note_off,80,0,3,,,,,,,,1,,,,79,64
50540,note_off,80,0,4,,,,,,,,2,,,,79,64
50580,note_on,40,0,3,,,,,,,,1,,,,74,75
50580,note_on,40,0,4,,,,,,,,2,,,,74,60
50660,note_off,80,0,4,,,,,,,,2,,,,74,64
50660,note_off,80,0,3,,,,,,,,1,,,,74,64
50700,note_on,40,0,3,,,,,,,,1,,,,79,75
50700,note_on,40,0,4,,,,,,,,2,,,,79,60
50740,note_off,400,0,1,,,,,,,,0,,,,58,64
50740,note_off,400,0,14,,,,,,,,13,,,,34,64
50740,note_off,400,0,8,,,,,,,,6,,,,46,64
50740,note_off,400,0,2,,,,,,,,0,,,,46,64
50740,note_off,400,0,15,,,,,,,,14,,,,34,64
50740,note_off,400,0,9,,,,,,,,7,,,,34,64
50740,note_off,400,0,13,,,,,,,,12,,,,46,64
50780,note_off,80,0,3,,,,,,,,1,,,,79,64
50780,note_off,80,0,4,,,,,,,,2,,,,79,64
50820,note_on,40,0,3,,,,,,,,1,,,,70,75
50820,note_on,40,0,4,,,,,,,,2,,,,70,60
50900,note_off,80,0,4,,,,,,,,2,,,,70,64
50900,note_off,80,0,3,,,,,,,,1,,,,70,64
50940,note_on,40,0,4,,,,,,,,2,,,,79,60
50940,note_on,40,0,3,,,,,,,,1,,,,79,75
51020,note_off,80,0,3,,,,,,,,1,,,,79,64
51020,note_off,80,0,4,,,,,,,,2,,,,79,64
51060,note_on,40,0,4,,,,,,,,2,,,,79,60
51060,note_on,40,0,3,,,,,,,,1,,,,79,75
51140,note_off,80,0,4,,,,,,,,2,,,,79,64
51140,note_off,80,0,3,,,,,,,,1,,,,79,64
51180,note_on,440,0,14,,,,,,,,13,,,,43,45
51180,note_on,440,0,15,,,,,,,,14,,,,43,45
51180,note_on,440,0,8,,,,,,,,6,,,,55,45
51180,note_on,440,0,2,,,,,,,,0,,,,55,45
51180,note_on,40,0,4,,,,,,,,2,,,,79,60
51180,note_on,440,0,9,,,,,,,,7,,,,43,45
51180,note_on,440,0,13,,,,,,,,12,,,,55,45
51180,note_on,440,0,1,,,,,,,,0,,,,67,45
51180,note_on,40,0,3,,,,,,,,1,,,,79,75
51260,note_off,80,0,4,,,,,,,,2,,,,79,64
51260,note_off,80,0,3,,,,,,,,1,,,,79,64
51295,note_off,115,0,13,,,,,,,,12,,,,55,64
51295,note_off,115,0,9,,,,,,,,7,,,,43,64
51295,note_off,115,0,8,,,,,,,,6,,,,55,64
51295,note_off,115,0,2,,,,,,,,0,,,,55,64
51295,note_off,115,0,15,,,,,,,,14,,,,43,64
51295,note_off,115,0,14,,,,,,,,13,,,,43,64
51295,note_off,115,0,1,,,,,,,,0,,,,67,64
51300,note_on,40,0,3,,,,,,,,1,,,,79,75
51300,note_on,5,0,13,,,,,,,,12,,,,46,45
51300,note_on,5,0,2,,,,,,,,0,,,,46,45
51300,note_on,5,0,8,,,,,,,,6,,,,46,45
51300,note_on,5,0,15,,,,,,,,14,,,,34,45
51300,note_on,40,0,4,,,,,,,,2,,,,79,60
51300,note_on,5,0,9,,,,,,,,7,,,,34,45
51300,note_on,5,0,1,,,,,,,,0,,,,58,45
51300,note_on,5,0,14,,,,,,,,13,,,,34,45
51380,note_off,80,0,4,,,,,,,,2,,,,79,64
51380,note_off,80,0,3,,,,,,,,1,,,,79,64
51420,note_on,40,0,3,,,,,,,,1,,,,79,75
51420,note_on,40,0,4,,,,,,,,2,,,,79,60
51500,note_off,80,0,4,,,,,,,,2,,,,79,64
51500,note_off,80,0,3,,,,,,,,1,,,,79,64
51540,note_on,40,0,4,,,,,,,,2,,,,74,60
51540,note_on,40,0,3,,,,,,,,1,,,,74,75
51620,note_off,80,0,4,,,,,,,,2,,,,74,64
51620,note_off,80,0,3,,,,,,,,1,,,,74,64
51660,note_on,40,0,4,,,,,,,,2,,,,79,60
51660,note_on,40,0,3,,,,,,,,1,,,,79,75
51700,note_off,400,0,13,,,,,,,,12,,,,46,64
51700,note_off,400,0,2,,,,,,,,0,,,,46,64
51700,note_off,400,0,15,,,,,,,,14,,,,34,64
51700,note_off,400,0,1,,,,,,,,0,,,,58,64
51700,note_off,400,0,8,,,,,,,,6,,,,46,64
51700,note_off,400,0,9,,,,,,,,7,,,,34,64
51700,note_off,400,0,14,,,,,,,,13,,,,34,64
51740,note_off,80,0,4,,,,,,,,2,,,,79,64
51740,note_off,80,0,3,,,,,,,,1,,,,79,64
51780,note_on,40,0,3,,,,,,,,1,,,,75,75
51780,note_on,40,0,4,,,,,,,,2,,,,75,60
51860,note_off,80,0,4,,,,,,,,2,,,,75,64
51860,note_off,80,0,3,,,,,,,,1,,,,75,64
51900,note_on,40,0,4,,,,,,,,2,,,,77,60
51900,note_on,40,0,3,,,,,,,,1,,,,77,75
51980,note_off,80,0,4,,,,,,,,2,,,,77,64
51980,note_off,80,0,3,,,,,,,,1,,,,77,64
52020,note_on,40,0,3,,,,,,,,1,,,,77,75
52020,note_on,40,0,4,,,,,,,,2,,,,77,60
52100,note_off,80,0,3,,,,,,,,1,,,,77,64
52100,note_off,80,0,4,,,,,,,,2,,,,77,64
52140,note_on,440,0,9,,,,,,,,7,,,,53,45
52140,note_on,40,0,3,,,,,,,,1,,,,77,75
52140,note_on,40,0,4,,,,,,,,2,,,,77,60
52140,note_on,440,0,14,,,,,,,,13,,,,53,45
52140,note_on,440,0,15,,,,,,,,14,,,,53,45
52140,note_on,440,0,2,,,,,,,,0,,,,65,45
52140,note_on,440,0,13,,,,,,,,12,,,,65,45
52140,note_on,440,0,8,,,,,,,,6,,,,65,45
52140,note_on,440,0,1,,,,,,,,0,,,,77,45
52220,note_off,80,0,3,,,,,,,,1,,,,77,64
52220,note_off,80,0,4,,,,,,,,2,,,,77,64
52255,note_off,115,0,13,,,,,,,,12,,,,65,64
52255,note_off,115,0,8,,,,,,,,6,,,,65,64
52255,note_off,115,0,1,,,,,,,,0,,,,77,64
52255,note_off,115,0,9,,,,,,,,7,,,,53,64
52255,note_off,115,0,15,,,,,,,,14,,,,53,64
52255,note_off,115,0,2,,,,,,,,0,,,,65,64
52255,note_off,115,0,14,,,,,,,,13,,,,53,64
52260,note_on,5,0,15,,,,,,,,14,,,,45,45
52260,note_on,5,0,9,,,,,,,,7,,,,45,45
52260,note_on,40,0,4,,,,,,,,2,,,,77,60
52260,note_on,5,0,14,,,,,,,,13,,,,45,45
52260,note_on,5,0,2,,,,,,,,0,,,,57,45
52260,note_on,40,0,3,,,,,,,,1,,,,77,75
52260,note_on,5,0,8,,,,,,,,6,,,,57,45
52260,note_on,5,0,13,,,,,,,,12,,,,57,45
52260,note_on,5,0,1,,,,,,,,0,,,,69,45
52340,note_off,80,0,4,,,,,,,,2,,,,77,64
52340,note_off,80,0,3,,,,,,,,1,,,,77,64
52380,note_on,40,0,4,,,,,,,,2,,,,77,60
52380,note_on,40,0,3,,,,,,,,1,,,,77,75
52460,note_off,80,0,4,,,,,,,,2,,,,77,64
52460,note_off,80,0,3,,,,,,,,1,,,,77,64
52500,note_on,40,0,3,,,,,,,,1,,,,72,75
52500,note_on,40,0,4,,,,,,,,2,,,,72,60
52580,note_off,80,0,3,,,,,,,,1,,,,72,64
52580,note_off,80,0,4,,,,,,,,2,,,,72,64
52620,note_on,40,0,3,,,,,,,,1,,,,77,75
52620,note_on,40,0,4,,,,,,,,2,,,,77,60
52660,note_off,400,0,1,,,,,,,,0,,,,69,64
52660,note_off,400,0,9,,,,,,,,7,,,,45,64
52660,note_off,400,0,14,,,,,,,,13,,,,45,64
52660,note_off,400,0,8,,,,,,,,6,,,,57,64
52660,note_off,400,0,15,,,,,,,,14,,,,45,64
52660,note_off,400,0,13,,,,,,,,12,,,,57,64
52660,note_off,400,0,2,,,,,,,,0,,,,57,64
52700,note_off,80,0,4,,,,,,,,2,,,,77,64
52700,note_off,80,0,3,,,,,,,,1,,,,77,64
52740,note_on,40,0,3,,,,,,,,1,,,,69,75
52740,note_on,40,0,4,,,,,,,,2,,,,69,60
52820,note_off,80,0,4,,,,,,,,2,,,,69,64
52820,note_off,80,0,3,,,,,,,,1,,,,69,64
52860,note_on,40,0,4,,,,,,,,2,,,,77,60
52860,note_on,40,0,3,,,,,,,,1,,,,77,75
52940,note_off,80,0,4,,,,,,,,2,,,,77,64
52940,note_off,80,0,3,,,,,,,,1,,,,77,64
52980,note_on,40,0,4,,,,,,,,2,,,,77,60
52980,note_on,40,0,3,,,,,,,,1,,,,77,75
53060,note_off,80,0,3,,,,,,,,1,,,,77,64
53060,note_off,80,0,4,,,,,,,,2,,,,77,64
53100,note_on,440,0,14,,,,,,,,13,,,,53,45
53100,note_on,40,0,3,,,,,,,,1,,,,77,75
53100,note_on,440,0,8,,,,,,,,6,,,,65,45
53100,note_on,440,0,1,,,,,,,,0,,,,77,45
53100,note_on,440,0,9,,,,,,,,7,,,,53,45
53100,note_on,440,0,2,,,,,,,,0,,,,65,45
53100,note_on,440,0,13,,,,,,,,12,,,,65,45
53100,note_on,440,0,15,,,,,,,,14,,,,53,45
53100,note_on,40,0,4,,,,,,,,2,,,,77,60
53180,note_off,80,0,3,,,,,,,,1,,,,77,64
53180,note_off,80,0,4,,,,,,,,2,,,,77,64
53215,note_off,115,0,9,,,,,,,,7,,,,53,64
53215,note_off,115,0,1,,,,,,,,0,,,,77,64
53215,note_off,115,0,13,,,,,,,,12,,,,65,64
53215,note_off,115,0,14,,,,,,,,13,,,,53,64
53215,note_off,115,0,8,,,,,,,,6,,,,65,64
53215,note_off,115,0,2,,,,,,,,0,,,,65,64
53215,note_off,115,0,15,,,,,,,,14,,,,53,64
53220,note_on,5,0,9,,,,,,,,7,,,,45,45
53220,note_on,5,0,1,,,,,,,,0,,,,69,45
53220,note_on,40,0,3,,,,,,,,1,,,,77,75
53220,note_on,5,0,13,,,,,,,,12,,,,57,45
53220,note_on,5,0,15,,,,,,,,14,,,,45,45
53220,note_on,5,0,2,,,,,,,,0,,,,57,45
53220,note_on,5,0,8,,,,,,,,6,,,,57,45
53220,note_on,5,0,14,,,,,,,,13,,,,45,45
53220,note_on,40,0,4,,,,,,,,2,,,,77,60
53300,note_off,80,0,4,,,,,,,,2,,,,77,64
53300,note_off,80,0,3,,,,,,,,1,,,,77,64
53340,note_on,40,0,4,,,,,,,,2,,,,77,60
53340,note_on,40,0,3,,,,,,,,1,,,,77,75
53420,note_off,80,0,4,,,,,,,,2,,,,77,64
53420,note_off,80,0,3,,,,,,,,1,,,,77,64
53460,note_on,40,0,4,,,,,,,,2,,,,69,60
53460,note_on,40,0,3,,,,,,,,1,,,,69,75
53575,note_off,115,0,3,,,,,,,,1,,,,69,64
53575,note_off,115,0,4,,,,,,,,2,,,,69,64
53580,note_on,5,0,4,,,,,,,,2,,,,77,60
53580,note_on,5,0,3,,,,,,,,1,,,,77,75
53620,note_off,400,0,2,,,,,,,,0,,,,57,64
53620,note_off,400,0,14,,,,,,,,13,,,,45,64
53620,note_off,400,0,9,,,,,,,,7,,,,45,64
53620,note_off,400,0,1,,,,,,,,0,,,,69,64
53620,note_off,400,0,13,,,,,,,,12,,,,57,64
53620,note_off,400,0,8,,,,,,,,6,,,,57,64
53620,note_off,400,0,15,,,,,,,,14,,,,45,64
53660,note_off,80,0,3,,,,,,,,1,,,,77,64
53660,note_off,80,0,4,,,,,,,,2,,,,77,64
53700,note_on,40,0,4,,,,,,,,2,,,,74,60
53700,note_on,40,0,3,,,,,,,,1,,,,74,75
53780,note_off,80,0,3,,,,,,,,1,,,,74,64
53780,note_off,80,0,4,,,,,,,,2,,,,74,64
53820,note_on,40,0,3,,,,,,,,1,,,,75,75
53820,note_on,40,0,4,,,,,,,,2,,,,75,60
53900,note_off,80,0,3,,,,,,,,1,,,,75,64
53900,note_off,80,0,4,,,,,,,,2,,,,75,64
53940,note_on,40,0,4,,,,,,,,2,,,,75,60
53940,note_on,40,0,3,,,,,,,,1,,,,75,75
54020,note_off,80,0,3,,,,,,,,1,,,,75,64
54020,note_off,80,0,4,,,,,,,,2,,,,75,64
54060,note_on,440,0,8,,,,,,,,6,,,,63,46
54060,note_on,40,0,3,,,,,,,,1,,,,75,75
54060,note_on,440,0,2,,,,,,,,0,,,,63,46
54060,note_on,440,0,15,,,,,,,,14,,,,51,46
54060,note_on,440,0,1,,,,,,,,0,,,,75,46
54060,note_on,440,0,14,,,,,,,,13,,,,51,46
54060,note_on,440,0,9,,,,,,,,7,,,,51,46
54060,note_on,40,0,4,,,,,,,,2,,,,75,60
54060,note_on,440,0,13,,,,,,,,12,,,,63,46
54140,note_off,80,0,4,,,,,,,,2,,,,75,64
54140,note_off,80,0,3,,,,,,,,1,,,,75,64
54175,note_off,115,0,1,,,,,,,,0,,,,75,64
54175,note_off,115,0,8,,,,,,,,6,,,,63,64
54175,note_off,115,0,14,,,,,,,,13,,,,51,64
54175,note_off,115,0,2,,,,,,,,0,,,,63,64
54175,note_off,115,0,9,,,,,,,,7,,,,51,64
54175,note_off,115,0,15,,,,,,,,14,,,,51,64
54175,note_off,115,0,13,,,,,,,,12,,,,63,64
54180,note_on,5,0,1,,,,,,,,0,,,,67,46
54180,note_on,5,0,8,,,,,,,,6,,,,55,46
54180,note_on,5,0,14,,,,,,,,13,,,,43,46
54180,note_on,5,0,2,,,,,,,,0,,,,55,46
54180,note_on,40,0,3,,,,,,,,1,,,,75,75
54180,note_on,40,0,4,,,,,,,,2,,,,75,60
54180,note_on,5,0,15,,,,,,,,14,,,,43,46
54180,note_on,5,0,9,,,,,,,,7,,,,43,46
54180,note_on,5,0,13,,,,,,,,12,,,,55,46
54260,note_off,80,0,4,,,,,,,,2,,,,75,64
54260,note_off,80,0,3,,,,,,,,1,,,,75,64
54300,note_on,40,0,3,,,,,,,,1,,,,75,75
54300,note_on,40,0,4,,,,,,,,2,,,,75,60
54380,note_off,80,0,4,,,,,,,,2,,,,75,64
54380,note_off,80,0,3,,,,,,,,1,,,,75,64
54420,note_on,40,0,3,,,,,,,,1,,,,70,75
54420,note_on,40,0,4,,,,,,,,2,,,,70,60
54500,note_off,80,0,4,,,,,,,,2,,,,70,64
54500,note_off,80,0,3,,,,,,,,1,,,,70,64
54540,note_on,40,0,4,,,,,,,,2,,,,75,60
54540,note_on,40,0,3,,,,,,,,1,,,,75,75
54580,note_off,400,0,13,,,,,,,,12,,,,55,64
54580,note_off,400,0,14,,,,,,,,13,,,,43,64
54580,note_off,400,0,15,,,,,,,,14,,,,43,64
54580,note_off,400,0,2,,,,,,,,0,,,,55,64
54580,note_off,400,0,1,,,,,,,,0,,,,67,64
54580,note_off,400,0,8,,,,,,,,6,,,,55,64
54580,note_off,400,0,9,,,,,,,,7,,,,43,64
54620,note_off,80,0,4,,,,,,,,2,,,,75,64
54620,note_off,80,0,3,,,,,,,,1,,,,75,64
54660,note_on,40,0,3,,,,,,,,1,,,,67,75
54660,note_on,40,0,4,,,,,,,,2,,,,67,60
54740,note_off,80,0,4,,,,,,,,2,,,,67,64
54740,note_off,80,0,3,,,,,,,,1,,,,67,64
54780,note_on,40,0,4,,,,,,,,2,,,,75,60
54780,note_on,40,0,3,,,,,,,,1,,,,75,75
54860,note_off,80,0,4,,,,,,,,2,,,,75,64
54860,note_off,80,0,3,,,,,,,,1,,,,75,64
54900,note_on,40,0,4,,,,,,,,2,,,,75,60
54900,note_on,40,0,3,,,,,,,,1,,,,75,75
54980,note_off,80,0,3,,,,,,,,1,,,,75,64
54980,note_off,80,0,4,,,,,,,,2,,,,75,64
55020,note_on,440,0,9,,,,,,,,7,,,,51,53
55020,note_on,440,0,1,,,,,,,,0,,,,75,53
55020,note_on,440,0,2,,,,,,,,0,,,,63,53
55020,note_on,40,0,3,,,,,,,,1,,,,75,75
55020,note_on,440,0,8,,,,,,,,6,,,,63,53
55020,note_on,40,0,4,,,,,,,,2,,,,75,60
55020,note_on,440,0,13,,,,,,,,12,,,,63,53
55020,note_on,440,0,15,,,,,,,,14,,,,51,53
55020,note_on,440,0,14,,,,,,,,13,,,,51,53
55100,note_off,80,0,3,,,,,,,,1,,,,75,64
55100,note_off,80,0,4,,,,,,,,2,,,,75,64
55135,note_off,115,0,8,,,,,,,,6,,,,63,64
55135,note_off,115,0,9,,,,,,,,7,,,,51,64
55135,note_off,115,0,1,,,,,,,,0,,,,75,64
55135,note_off,115,0,2,,,,,,,,0,,,,63,64
55135,note_off,115,0,15,,,,,,,,14,,,,51,64
55135,note_off,115,0,14,,,,,,,,13,,,,51,64
55135,note_off,115,0,13,,,,,,,,12,,,,63,64
55140,note_on,5,0,1,,,,,,,,0,,,,67,54
55140,note_on,5,0,14,,,,,,,,13,,,,43,54
55140,note_on,5,0,2,,,,,,,,0,,,,55,54
55140,note_on,5,0,15,,,,,,,,14,,,,43,54
55140,note_on,40,0,3,,,,,,,,1,,,,75,75
55140,note_on,5,0,8,,,,,,,,6,,,,55,54
55140,note_on,5,0,13,,,,,,,,12,,,,55,54
55140,note_on,40,0,4,,,,,,,,2,,,,75,60
55140,note_on,5,0,9,,,,,,,,7,,,,43,54
55220,note_off,80,0,3,,,,,,,,1,,,,75,64
55220,note_off,80,0,4,,,,,,,,2,,,,75,64
55260,note_on,40,0,3,,,,,,,,1,,,,75,75
55260,note_on,40,0,4,,,,,,,,2,,,,75,60
55340,note_off,80,0,4,,,,,,,,2,,,,75,64
55340,note_off,80,0,3,,,,,,,,1,,,,75,64
55380,note_on,40,0,4,,,,,,,,2,,,,70,60
55380,note_on,40,0,3,,,,,,,,1,,,,70,75
55460,note_off,80,0,4,,,,,,,,2,,,,70,64
55460,note_off,80,0,3,,,,,,,,1,,,,70,64
55500,note_on,40,0,4,,,,,,,,2,,,,75,60
55500,note_on,40,0,3,,,,,,,,1,,,,75,75
55540,note_off,400,0,8,,,,,,,,6,,,,55,64
55540,note_off,400,0,15,,,,,,,,14,,,,43,64
55540,note_off,400,0,13,,,,,,,,12,,,,55,64
55540,note_off,400,0,1,,,,,,,,0,,,,67,64
55540,note_off,400,0,14,,,,,,,,13,,,,43,64
55540,note_off,400,0,9,,,,,,,,7,,,,43,64
55540,note_off,400,0,2,,,,,,,,0,,,,55,64
55580,note_off,80,0,3,,,,,,,,1,,,,75,64
55580,note_off,80,0,4,,,,,,,,2,,,,75,64
55620,note_on,40,0,4,,,,,,,,2,,,,72,60
55620,note_on,40,0,3,,,,,,,,1,,,,72,76
55700,note_off,80,0,4,,,,,,,,2,,,,72,64
55700,note_off,80,0,3,,,,,,,,1,,,,72,64
55740,note_on,40,0,4,,,,,,,,2,,,,74,60
55740,note_on,40,0,3,,,,,,,,1,,,,74,77
55820,note_off,80,0,3,,,,,,,,1,,,,74,64
55820,note_off,80,0,4,,,,,,,,2,,,,74,64
55860,note_on,40,0,4,,,,,,,,2,,,,74,61
55860,note_on,40,0,3,,,,,,,,1,,,,74,78
55940,note_off,80,0,3,,,,,,,,1,,,,74,64
55940,note_off,80,0,4,,,,,,,,2,,,,74,64
55980,note_on,440,0,13,,,,,,,,12,,,,62,61
55980,note_on,440,0,15,,,,,,,,14,,,,50,61
55980,note_on,40,0,3,,,,,,,,1,,,,74,79
55980,note_on,440,0,2,,,,,,,,0,,,,62,61
55980,note_on,440,0,14,,,,,,,,13,,,,50,61
55980,note_on,440,0,1,,,,,,,,0,,,,74,61
55980,note_on,440,0,9,,,,,,,,7,,,,50,61
55980,note_on,440,0,8,,,,,,,,6,,,,62,61
55980,note_on,40,0,4,,,,,,,,2,,,,74,62
56060,note_off,80,0,3,,,,,,,,1,,,,74,64
56060,note_off,80,0,4,,,,,,,,2,,,,74,64
56095,note_off,115,0,1,,,,,,,,0,,,,74,64
56095,note_off,115,0,8,,,,,,,,6,,,,62,64
56095,note_off,115,0,2,,,,,,,,0,,,,62,64
56095,note_off,115,0,15,,,,,,,,14,,,,50,64
56095,note_off,115,0,14,,,,,,,,13,,,,50,64
56095,note_off,115,0,9,,,,,,,,7,,,,50,64
56095,note_off,115,0,13,,,,,,,,12,,,,62,64
56100,note_on,5,0,1,,,,,,,,0,,,,65,62
56100,note_on,5,0,2,,,,,,,,0,,,,53,62
56100,note_on,5,0,14,,,,,,,,13,,,,41,62
56100,note_on,5,0,9,,,,,,,,7,,,,41,62
56100,note_on,40,0,4,,,,,,,,2,,,,74,63
56100,note_on,5,0,8,,,,,,,,6,,,,53,62
56100,note_on,5,0,13,,,,,,,,12,,,,53,62
56100,note_on,5,0,15,,,,,,,,14,,,,41,62
56100,note_on,40,0,3,,,,,,,,1,,,,74,80
56180,note_off,80,0,4,,,,,,,,2,,,,74,64
56180,note_off,80,0,3,,,,,,,,1,,,,74,64
56220,note_on,40,0,3,,,,,,,,1,,,,74,81
56220,note_on,40,0,4,,,,,,,,2,,,,74,64
56300,note_off,80,0,3,,,,,,,,1,,,,74,64
56300,note_off,80,0,4,,,,,,,,2,,,,74,64
56340,note_on,40,0,3,,,,,,,,1,,,,69,82
56340,note_on,40,0,4,,,,,,,,2,,,,69,65
56420,note_off,80,0,3,,,,,,,,1,,,,69,64
56420,note_off,80,0,4,,,,,,,,2,,,,69,64
56460,note_on,40,0,3,,,,,,,,1,,,,74,83
56460,note_on,40,0,4,,,,,,,,2,,,,74,66
56500,note_off,400,0,14,,,,,,,,13,,,,41,64
56500,note_off,400,0,9,,,,,,,,7,,,,41,64
56500,note_off,400,0,2,,,,,,,,0,,,,53,64
56500,note_off,400,0,1,,,,,,,,0,,,,65,64
56500,note_off,400,0,8,,,,,,,,6,,,,53,64
56500,note_off,400,0,13,,,,,,,,12,,,,53,64
56500,note_off,400,0,15,,,,,,,,14,,,,41,64
56540,note_off,80,0,4,,,,,,,,2,,,,74,64
56540,note_off,80,0,3,,,,,,,,1,,,,74,64
56580,note_on,40,0,4,,,,,,,,2,,,,66,67
56580,note_on,40,0,3,,,,,,,,1,,,,66,84
56660,note_off,80,0,3,,,,,,,,1,,,,66,64
56660,note_off,80,0,4,,,,,,,,2,,,,66,64
56700,note_on,40,0,3,,,,,,,,1,,,,74,85
56700,note_on,40,0,4,,,,,,,,2,,,,74,68
56780,note_off,80,0,3,,,,,,,,1,,,,74,64
56780,note_off,80,0,4,,,,,,,,2,,,,74,64
56820,note_on,40,0,4,,,,,,,,2,,,,74,69
56820,note_on,40,0,3,,,,,,,,1,,,,74,86
56900,note_off,80,0,4,,,,,,,,2,,,,74,64
56900,note_off,80,0,3,,,,,,,,1,,,,74,64
56940,note_on,440,0,13,,,,,,,,12,,,,62,69
56940,note_on,40,0,4,,,,,,,,2,,,,74,70
56940,note_on,440,0,14,,,,,,,,13,,,,50,69
56940,note_on,440,0,1,,,,,,,,0,,,,74,69
56940,note_on,440,0,8,,,,,,,,6,,,,62,69
56940,note_on,440,0,15,,,,,,,,14,,,,50,69
56940,note_on,40,0,3,,,,,,,,1,,,,74,87
56940,note_on,440,0,9,,,,,,,,7,,,,50,69
56940,note_on,440,0,2,,,,,,,,0,,,,62,69
57020,note_off,80,0,3,,,,,,,,1,,,,74,64
57020,note_off,80,0,4,,,,,,,,2,,,,74,64
57055,note_off,115,0,13,,,,,,,,12,,,,62,64
57055,note_off,115,0,15,,,,,,,,14,,,,50,64
57055,note_off,115,0,8,,,,,,,,6,,,,62,64
57055,note_off,115,0,1,,,,,,,,0,,,,74,64
57055,note_off,115,0,14,,,,,,,,13,,,,50,64
57055,note_off,115,0,9,,,,,,,,7,,,,50,64
57055,note_off,115,0,2,,,,,,,,0,,,,62,64
57060,note_on,5,0,9,,,,,,,,7,,,,42,70
57060,note_on,5,0,13,,,,,,,,12,,,,54,70
57060,note_on,40,0,4,,,,,,,,2,,,,74,71
57060,note_on,5,0,8,,,,,,,,6,,,,54,70
57060,note_on,5,0,1,,,,,,,,0,,,,66,70
57060,note_on,40,0,3,,,,,,,,1,,,,74,88
57060,note_on,5,0,15,,,,,,,,14,,,,42,70
57060,note_on,5,0,14,,,,,,,,13,,,,42,70
57060,note_on,5,0,2,,,,,,,,0,,,,54,70
57140,note_off,80,0,4,,,,,,,,2,,,,74,64
57140,note_off,80,0,3,,,,,,,,1,,,,74,64
57180,note_on,40,0,4,,,,,,,,2,,,,74,72
57180,note_on,40,0,3,,,,,,,,1,,,,74,89
57260,note_off,80,0,4,,,,,,,,2,,,,74,64
57260,note_off,80,0,3,,,,,,,,1,,,,74,64
57300,note_on,40,0,4,,,,,,,,2,,,,69,73
57300,note_on,40,0,3,,,,,,,,1,,,,69,90
57380,note_off,80,0,3,,,,,,,,1,,,,69,64
57380,note_off,80,0,4,,,,,,,,2,,,,69,64
57420,note_on,40,0,4,,,,,,,,2,,,,74,74
57420,note_on,40,0,3,,,,,,,,1,,,,74,91
57460,note_off,400,0,2,,,,,,,,0,,,,54,64
57460,note_off,400,0,13,,,,,,,,12,,,,54,64
57460,note_off,400,0,8,,,,,,,,6,,,,54,64
57460,note_off,400,0,1,,,,,,,,0,,,,66,64
57460,note_off,400,0,9,,,,,,,,7,,,,42,64
57460,note_off,400,0,15,,,,,,,,14,,,,42,64
57460,note_off,400,0,14,,,,,,,,13,,,,42,64
57500,note_off,80,0,4,,,,,,,,2,,,,74,64
57500,note_off,80,0,3,,,,,,,,1,,,,74,64
57540,note_on,80,0,8,,,,,,,,6,,,,43,75
57540,note_on,40,0,4,,,,,,,,2,,,,70,75
57540,note_on,34800,0,10,,,,,,,,8,,,,70,75
57540,note_on,40,0,3,,,,,,,,1,,,,70,92
57540,note_on,80,0,13,,,,,,,,12,,,,43,75
57540,note_on,80,0,1,,,,,,,,0,,,,55,75
57540,note_on,80,0,14,,,,,,,,13,,,,31,75
57540,note_on,80,0,15,,,,,,,,14,,,,31,75
57540,note_on,80,0,9,,,,,,,,7,,,,31,75
57540,note_on,80,0,2,,,,,,,,0,,,,43,75
57620,note_off,80,0,4,,,,,,,,2,,,,70,64
57620,note_off,80,0,9,,,,,,,,7,,,,31,64
57620,note_off,80,0,10,,,,,,,,8,,,,70,64
57620,note_off,80,0,3,,,,,,,,1,,,,70,64
57620,note_off,80,0,8,,,,,,,,6,,,,43,64
57620,note_off,80,0,1,,,,,,,,0,,,,55,64
57620,note_off,80,0,14,,,,,,,,13,,,,31,64
57620,note_off,80,0,2,,,,,,,,0,,,,43,64
57620,note_off,80,0,13,,,,,,,,12,,,,43,64
57660,note_on,34920,0,12,,,,,,,,11,,,,70,75
57660,note_on,34920,0,6,,,,,,,,4,,,,74,75
57660,note_on,40,0,4,,,,,,,,2,,,,79,75
57660,note_on,40,0,13,,,,,,,,12,,,,55,75
57660,note_on,40,0,10,,,,,,,,8,,,,79,75
57660,note_on,34920,0,7,,,,,,,,5,,,,70,75
57660,note_on,40,0,8,,,,,,,,6,,,,55,75
57660,note_on,40,0,14,,,,,,,,13,,,,43,75
57660,note_on,40,0,2,,,,,,,,0,,,,55,75
57660,note_on,40,0,9,,,,,,,,7,,,,43,75
57660,note_on,40,0,1,,,,,,,,0,,,,67,75
57660,note_on,34920,0,11,,,,,,,,10,,,,74,75
57660,note_on,40,0,3,,,,,,,,1,,,,79,92
57740,note_off,80,0,10,,,,,,,,8,,,,79,64
57740,note_off,80,0,1,,,,,,,,0,,,,67,64
57740,note_off,80,0,13,,,,,,,,12,,,,55,64
57740,note_off,80,0,6,,,,,,,,4,,,,74,64
57740,note_off,80,0,12,,,,,,,,11,,,,70,64
57740,note_off,80,0,11,,,,,,,,10,,,,74,64
57740,note_off,80,0,4,,,,,,,,2,,,,79,64
57740,note_off,80,0,9,,,,,,,,7,,,,43,64
57740,note_off,80,0,7,,,,,,,,5,,,,70,64
57740,note_off,80,0,14,,,,,,,,13,,,,43,64
57740,note_off,80,0,8,,,,,,,,6,,,,55,64
57740,note_off,80,0,2,,,,,,,,0,,,,55,64
57740,note_off,80,0,3,,,,,,,,1,,,,79,64
57780,note_on,40,0,6,,,,,,,,4,,,,74,75
57780,note_on,40,0,1,,,,,,,,0,,,,67,75
57780,note_on,40,0,7,,,,,,,,5,,,,70,75
57780,note_on,40,0,2,,,,,,,,0,,,,55,75
57780,note_on,40,0,9,,,,,,,,7,,,,43,75
57780,note_on,40,0,13,,,,,,,,12,,,,55,75
57780,note_on,40,0,11,,,,,,,,10,,,,74,75
57780,note_on,40,0,3,,,,,,,,1,,,,79,92
57780,note_on,40,0,14,,,,,,,,13,,,,43,75
57780,note_on,40,0,8,,,,,,,,6,,,,55,75
57780,note_on,40,0,4,,,,,,,,2,,,,79,75
57780,note_on,40,0,10,,,,,,,,8,,,,79,75
57780,note_on,40,0,12,,,,,,,,11,,,,70,75
57860,note_off,80,0,9,,,,,,,,7,,,,43,64
57860,note_off,80,0,7,,,,,,,,5,,,,70,64
57860,note_off,80,0,8,,,,,,,,6,,,,55,64
57860,note_off,80,0,6,,,,,,,,4,,,,74,64
57860,note_off,80,0,3,,,,,,,,1,,,,79,64
57860,note_off,80,0,11,,,,,,,,10,,,,74,64
57860,note_off,80,0,1,,,,,,,,0,,,,67,64
57860,note_off,80,0,2,,,,,,,,0,,,,55,64
57860,note_off,80,0,12,,,,,,,,11,,,,70,64
57860,note_off,80,0,13,,,,,,,,12,,,,55,64
57860,note_off,80,0,14,,,,,,,,13,,,,43,64
57860,note_off,80,0,4,,,,,,,,2,,,,79,64
57860,note_off,80,0,10,,,,,,,,8,,,,79,64
57900,note_on,40,0,7,,,,,,,,5,,,,70,75
57900,note_on,40,0,2,,,,,,,,0,,,,55,75
57900,note_on,40,0,3,,,,,,,,1,,,,79,92
57900,note_on,40,0,11,,,,,,,,10,,,,74,75
57900,note_on,40,0,10,,,,,,,,8,,,,79,75
57900,note_on,40,0,8,,,,,,,,6,,,,55,75
57900,note_on,40,0,9,,,,,,,,7,,,,43,75
57900,note_on,40,0,6,,,,,,,,4,,,,74,75
57900,note_on,40,0,1,,,,,,,,0,,,,67,75
57900,note_on,40,0,12,,,,,,,,11,,,,70,75
57900,note_on,40,0,14,,,,,,,,13,,,,43,75
57900,note_on,40,0,13,,,,,,,,12,,,,55,75
57900,note_on,40,0,4,,,,,,,,2,,,,79,75
57980,note_off,80,0,12,,,,,,,,11,,,,70,64
57980,note_off,80,0,3,,,,,,,,1,,,,79,64
57980,note_off,80,0,10,,,,,,,,8,,,,79,64
57980,note_off,80,0,6,,,,,,,,4,,,,74,64
57980,note_off,80,0,4,,,,,,,,2,,,,79,64
57980,note_off,80,0,7,,,,,,,,5,,,,70,64
57980,note_off,80,0,13,,,,,,,,12,,,,55,64
57980,note_off,80,0,14,,,,,,,,13,,,,43,64
57980,note_off,80,0,9,,,,,,,,7,,,,43,64
57980,note_off,80,0,1,,,,,,,,0,,,,67,64
57980,note_off,80,0,2,,,,,,,,0,,,,55,64
57980,note_off,80,0,11,,,,,,,,10,,,,74,64
57980,note_off,80,0,8,,,,,,,,6,,,,55,64
58020,note_on,40,0,13,,,,,,,,12,,,,55,75
58020,note_on,40,0,14,,,,,,,,13,,,,43,75
58020,note_on,40,0,9,,,,,,,,7,,,,43,75
58020,note_on,40,0,1,,,,,,,,0,,,,67,75
58020,note_on,40,0,11,,,,,,,,10,,,,74,75
58020,note_on,40,0,10,,,,,,,,8,,,,79,75
58020,note_on,40,0,4,,,,,,,,2,,,,79,75
58020,note_on,40,0,2,,,,,,,,0,,,,55,75
58020,note_on,40,0,3,,,,,,,,1,,,,79,92
58020,note_on,40,0,12,,,,,,,,11,,,,70,75
58020,note_on,40,0,8,,,,,,,,6,,,,55,75
58020,note_on,40,0,6,,,,,,,,4,,,,74,75
58020,note_on,40,0,7,,,,,,,,5,,,,70,75
58100,note_off,80,0,6,,,,,,,,4,,,,74,64
58100,note_off,80,0,3,,,,,,,,1,,,,79,64
58100,note_off,80,0,9,,,,,,,,7,,,,43,64
58100,note_off,80,0,12,,,,,,,,11,,,,70,64
58100,note_off,80,0,8,,,,,,,,6,,,,55,64
58100,note_off,80,0,4,,,,,,,,2,,,,79,64
58100,note_off,80,0,7,,,,,,,,5,,,,70,64
58100,note_off,80,0,2,,,,,,,,0,,,,55,64
58100,note_off,80,0,10,,,,,,,,8,,,,79,64
58100,note_off,80,0,11,,,,,,,,10,,,,74,64
58100,note_off,80,0,1,,,,,,,,0,,,,67,64
58100,note_off,80,0,14,,,,,,,,13,,,,43,64
58100,note_off,80,0,13,,,,,,,,12,,,,55,64
58140,note_on,40,0,13,,,,,,,,12,,,,55,75
58140,note_on,40,0,10,,,,,,,,8,,,,79,75
58140,note_on,40,0,1,,,,,,,,0,,,,67,75
58140,note_on,40,0,8,,,,,,,,6,,,,55,75
58140,note_on,40,0,12,,,,,,,,11,,,,70,75
58140,note_on,40,0,2,,,,,,,,0,,,,55,75
58140,note_on,40,0,9,,,,,,,,7,,,,43,75
58140,note_on,40,0,11,,,,,,,,10,,,,74,75
58140,note_on,40,0,7,,,,,,,,5,,,,70,75
58140,note_on,40,0,14,,,,,,,,13,,,,43,75
58140,note_on,40,0,3,,,,,,,,1,,,,79,92
58140,note_on,40,0,4,,,,,,,,2,,,,79,75
58140,note_on,40,0,6,,,,,,,,4,,,,74,75
58220,note_off,80,0,10,,,,,,,,8,,,,79,64
58220,note_off,80,0,12,,,,,,,,11,,,,70,64
58220,note_off,80,0,4,,,,,,,,2,,,,79,64
58220,note_off,80,0,14,,,,,,,,13,,,,43,64
58220,note_off,80,0,1,,,,,,,,0,,,,67,64
58220,note_off,80,0,6,,,,,,,,4,,,,74,64
58220,note_off,80,0,2,,,,,,,,0,,,,55,64
58220,note_off,80,0,3,,,,,,,,1,,,,79,64
58220,note_off,80,0,9,,,,,,,,7,,,,43,64
58220,note_off,80,0,11,,,,,,,,10,,,,74,64
58220,note_off,80,0,13,,,,,,,,12,,,,55,64
58220,note_off,80,0,7,,,,,,,,5,,,,70,64
58220,note_off,80,0,8,,,,,,,,6,,,,55,64
58260,note_on,40,0,12,,,,,,,,11,,,,67,75
58260,note_on,40,0,8,,,,,,,,6,,,,43,75
58260,note_on,40,0,14,,,,,,,,13,,,,31,75
58260,note_on,40,0,11,,,,,,,,10,,,,70,75
58260,note_on,40,0,13,,,,,,,,12,,,,43,75
58260,note_on,40,0,4,,,,,,,,2,,,,74,75
58260,note_on,40,0,1,,,,,,,,0,,,,55,75
58260,note_on,40,0,9,,,,,,,,7,,,,31,75
58260,note_on,40,0,7,,,,,,,,5,,,,67,75
58260,note_on,40,0,2,,,,,,,,0,,,,43,75
58260,note_on,40,0,10,,,,,,,,8,,,,74,75
58260,note_on,40,0,3,,,,,,,,1,,,,74,92
58260,note_on,40,0,6,,,,,,,,4,,,,70,75
58340,note_off,80,0,12,,,,,,,,11,,,,67,64
58340,note_off,80,0,8,,,,,,,,6,,,,43,64
58340,note_off,80,0,9,,,,,,,,7,,,,31,64
58340,note_off,80,0,2,,,,,,,,0,,,,43,64
58340,note_off,80,0,10,,,,,,,,8,,,,74,64
58340,note_off,80,0,14,,,,,,,,13,,,,31,64
58340,note_off,80,0,7,,,,,,,,5,,,,67,64
58340,note_off,80,0,11,,,,,,,,10,,,,70,64
58340,note_off,80,0,6,,,,,,,,4,,,,70,64
58340,note_off,80,0,1,,,,,,,,0,,,,55,64
58340,note_off,80,0,13,,,,,,,,12,,,,43,64
58340,note_off,80,0,4,,,,,,,,2,,,,74,64
58340,note_off,80,0,3,,,,,,,,1,,,,74,64
58380,note_on,40,0,12,,,,,,,,11,,,,70,75
58380,note_on,40,0,7,,,,,,,,5,,,,70,75
58380,note_on,40,0,9,,,,,,,,7,,,,43,75
58380,note_on,40,0,6,,,,,,,,4,,,,74,75
58380,note_on,40,0,8,,,,,,,,6,,,,55,75
58380,note_on,40,0,1,,,,,,,,0,,,,67,75
58380,note_on,40,0,10,,,,,,,,8,,,,79,75
58380,note_on,40,0,3,,,,,,,,1,,,,79,92
58380,note_on,40,0,13,,,,,,,,12,,,,55,75
58380,note_on,40,0,2,,,,,,,,0,,,,55,75
58380,note_on,40,0,11,,,,,,,,10,,,,74,75
58380,note_off,840,0,15,,,,,,,,14,,,,31,64
58380,note_on,40,0,4,,,,,,,,2,,,,79,75
58380,note_on,40,0,14,,,,,,,,13,,,,43,75
58460,note_off,80,0,1,,,,,,,,0,,,,67,64
58460,note_off,80,0,7,,,,,,,,5,,,,70,64
58460,note_off,80,0,3,,,,,,,,1,,,,79,64
58460,note_off,80,0,9,,,,,,,,7,,,,43,64
58460,note_off,80,0,11,,,,,,,,10,,,,74,64
58460,note_off,80,0,13,,,,,,,,12,,,,55,64
58460,note_off,80,0,14,,,,,,,,13,,,,43,64
58460,note_off,80,0,12,,,,,,,,11,,,,70,64
58460,note_off,80,0,10,,,,,,,,8,,,,79,64
58460,note_off,80,0,4,,,,,,,,2,,,,79,64
58460,note_off,80,0,8,,,,,,,,6,,,,55,64
58460,note_off,80,0,2,,,,,,,,0,,,,55,64
58460,note_off,80,0,6,,,,,,,,4,,,,74,64
58500,note_on,40,0,3,,,,,,,,1,,,,67,92
58500,note_on,40,0,7,,,,,,,,5,,,,62,75
58500,note_on,40,0,4,,,,,,,,2,,,,67,75
58500,note_on,40,0,11,,,,,,,,10,,,,67,75
58500,note_on,40,0,8,,,,,,,,6,,,,43,75
58500,note_on,40,0,6,,,,,,,,4,,,,67,75
58500,note_on,40,0,14,,,,,,,,13,,,,31,75
58500,note_on,40,0,10,,,,,,,,8,,,,67,75
58500,note_on,40,0,1,,,,,,,,0,,,,55,75
58500,note_on,40,0,9,,,,,,,,7,,,,31,75
58500,note_on,40,0,2,,,,,,,,0,,,,43,75
58500,note_on,40,0,12,,,,,,,,11,,,,62,75
58500,note_on,40,0,13,,,,,,,,12,,,,43,75
58580,note_off,80,0,3,,,,,,,,1,,,,67,64
58580,note_off,80,0,10,,,,,,,,8,,,,67,64
58580,note_off,80,0,6,,,,,,,,4,,,,67,64
58580,note_off,80,0,12,,,,,,,,11,,,,62,64
58580,note_off,80,0,11,,,,,,,,10,,,,67,64
58580,note_off,80,0,14,,,,,,,,13,,,,31,64
58580,note_off,80,0,1,,,,,,,,0,,,,55,64
58580,note_off,80,0,4,,,,,,,,2,,,,67,64
58580,note_off,80,0,8,,,,,,,,6,,,,43,64
58580,note_off,80,0,7,,,,,,,,5,,,,62,64
58580,note_off,80,0,9,,,,,,,,7,,,,31,64
58580,note_off,80,0,13,,,,,,,,12,,,,43,64
58580,note_off,80,0,2,,,,,,,,0,,,,43,64
58620,note_on,40,0,8,,,,,,,,6,,,,55,75
58620,note_on,40,0,2,,,,,,,,0,,,,55,75
58620,note_on,40,0,4,,,,,,,,2,,,,79,75
58620,note_on,40,0,13,,,,,,,,12,,,,55,75
58620,note_on,40,0,11,,,,,,,,10,,,,74,75
58620,note_on,40,0,9,,,,,,,,7,,,,43,75
58620,note_on,40,0,1,,,,,,,,0,,,,67,75
58620,note_on,40,0,12,,,,,,,,11,,,,70,75
58620,note_on,40,0,10,,,,,,,,8,,,,79,75
58620,note_on,40,0,3,,,,,,,,1,,,,79,92
58620,note_on,40,0,14,,,,,,,,13,,,,43,75
58620,note_on,40,0,7,,,,,,,,5,,,,70,75
58620,note_on,40,0,6,,,,,,,,4,,,,74,75
58700,note_off,80,0,13,,,,,,,,12,,,,55,64
58700,note_off,80,0,10,,,,,,,,8,,,,79,64
58700,note_off,80,0,3,,,,,,,,1,,,,79,64
58700,note_off,80,0,6,,,,,,,,4,,,,74,64
58700,note_off,80,0,7,,,,,,,,5,,,,70,64
58700,note_off,80,0,4,,,,,,,,2,,,,79,64
58700,note_off,80,0,2,,,,,,,,0,,,,55,64
58700,note_off,80,0,1,,,,,,,,0,,,,67,64
58700,note_off,80,0,12,,,,,,,,11,,,,70,64
58700,note_off,80,0,9,,,,,,,,7,,,,43,64
58700,note_off,80,0,11,,,,,,,,10,,,,74,64
58700,note_off,80,0,8,,,,,,,,6,,,,55,64
58700,note_off,80,0,14,,,,,,,,13,,,,43,64
58740,note_on,40,0,9,,,,,,,,7,,,,43,75
58740,note_on,40,0,8,,,,,,,,6,,,,55,75
58740,note_on,40,0,11,,,,,,,,10,,,,74,75
58740,note_on,40,0,14,,,,,,,,13,,,,43,75
58740,note_on,40,0,13,,,,,,,,12,,,,55,75
58740,note_on,40,0,2,,,,,,,,0,,,,55,75
58740,note_on,40,0,6,,,,,,,,4,,,,74,75
58740,note_on,40,0,3,,,,,,,,1,,,,79,92
58740,note_on,40,0,1,,,,,,,,0,,,,67,75
58740,note_on,40,0,7,,,,,,,,5,,,,70,75
58740,note_on,40,0,4,,,,,,,,2,,,,79,75
58740,note_on,40,0,12,,,,,,,,11,,,,70,75
58740,note_on,40,0,10,,,,,,,,8,,,,79,75
58820,note_off,80,0,13,,,,,,,,12,,,,55,64
58820,note_off,80,0,11,,,,,,,,10,,,,74,64
58820,note_off,80,0,9,,,,,,,,7,,,,43,64
58820,note_off,80,0,6,,,,,,,,4,,,,74,64
58820,note_off,80,0,4,,,,,,,,2,,,,79,64
58820,note_off,80,0,12,,,,,,,,11,,,,70,64
58820,note_off,80,0,2,,,,,,,,0,,,,55,64
58820,note_off,80,0,3,,,,,,,,1,,,,79,64
58820,note_off,80,0,14,,,,,,,,13,,,,43,64
58820,note_off,80,0,10,,,,,,,,8,,,,79,64
58820,note_off,80,0,1,,,,,,,,0,,,,67,64
58820,note_off,80,0,7,,,,,,,,5,,,,70,64
58820,note_off,80,0,8,,,,,,,,6,,,,55,64
58860,note_on,40,0,2,,,,,,,,0,,,,55,75
58860,note_on,40,0,10,,,,,,,,8,,,,79,75
58860,note_on,40,0,7,,,,,,,,5,,,,70,75
58860,note_on,40,0,4,,,,,,,,2,,,,79,75
58860,note_on,40,0,6,,,,,,,,4,,,,74,75
58860,note_on,40,0,1,,,,,,,,0,,,,67,75
58860,note_on,40,0,13,,,,,,,,12,,,,55,75
58860,note_on,40,0,12,,,,,,,,11,,,,70,75
58860,note_on,40,0,3,,,,,,,,1,,,,79,92
58860,note_on,40,0,9,,,,,,,,7,,,,43,75
58860,note_on,40,0,8,,,,,,,,6,,,,55,75
58860,note_on,40,0,14,,,,,,,,13,,,,43,75
58860,note_on,40,0,11,,,,,,,,10,,,,74,75
58940,note_off,80,0,13,,,,,,,,12,,,,55,64
58940,note_off,80,0,10,,,,,,,,8,,,,79,64
58940,note_off,80,0,8,,,,,,,,6,,,,55,64
58940,note_off,80,0,11,,,,,,,,10,,,,74,64
58940,note_off,80,0,14,,,,,,,,13,,,,43,64
58940,note_off,80,0,6,,,,,,,,4,,,,74,64
58940,note_off,80,0,12,,,,,,,,11,,,,70,64
58940,note_off,80,0,1,,,,,,,,0,,,,67,64
58940,note_off,80,0,9,,,,,,,,7,,,,43,64
58940,note_off,80,0,3,,,,,,,,1,,,,79,64
58940,note_off,80,0,7,,,,,,,,5,,,,70,64
58940,note_off,80,0,2,,,,,,,,0,,,,55,64
58940,note_off,80,0,4,,,,,,,,2,,,,79,64
58980,note_on,40,0,6,,,,,,,,4,,,,74,75
58980,note_on,40,0,13,,,,,,,,12,,,,55,75
58980,note_on,40,0,2,,,,,,,,0,,,,55,75
58980,note_on,40,0,12,,,,,,,,11,,,,70,75
58980,note_on,40,0,7,,,,,,,,5,,,,70,75
58980,note_on,40,0,11,,,,,,,,10,,,,74,75
58980,note_on,40,0,9,,,,,,,,7,,,,43,75
58980,note_on,40,0,10,,,,,,,,8,,,,79,75
58980,note_on,40,0,4,,,,,,,,2,,,,79,75
58980,note_on,40,0,3,,,,,,,,1,,,,79,92
58980,note_on,40,0,1,,,,,,,,0,,,,67,75
58980,note_on,40,0,8,,,,,,,,6,,,,55,75
58980,note_on,40,0,14,,,,,,,,13,,,,43,75
59060,note_off,80,0,6,,,,,,,,4,,,,74,64
59060,note_off,80,0,10,,,,,,,,8,,,,79,64
59060,note_off,80,0,2,,,,,,,,0,,,,55,64
59060,note_off,80,0,12,,,,,,,,11,,,,70,64
59060,note_off,80,0,14,,,,,,,,13,,,,43,64
59060,note_off,80,0,11,,,,,,,,10,,,,74,64
59060,note_off,80,0,13,,,,,,,,12,,,,55,64
59060,note_off,80,0,9,,,,,,,,7,,,,43,64
59060,note_off,80,0,8,,,,,,,,6,,,,55,64
59060,note_off,80,0,4,,,,,,,,2,,,,79,64
59060,note_off,80,0,3,,,,,,,,1,,,,79,64
59060,note_off,80,0,1,,,,,,,,0,,,,67,64
59060,note_off,80,0,7,,,,,,,,5,,,,70,64
59100,note_on,40,0,3,,,,,,,,1,,,,79,92
59100,note_on,40,0,13,,,,,,,,12,,,,55,75
59100,note_on,40,0,7,,,,,,,,5,,,,70,75
59100,note_on,40,0,6,,,,,,,,4,,,,74,75
59100,note_on,40,0,12,,,,,,,,11,,,,70,75
59100,note_on,40,0,1,,,,,,,,0,,,,67,75
59100,note_on,40,0,11,,,,,,,,10,,,,74,75
59100,note_on,40,0,10,,,,,,,,8,,,,79,75
59100,note_on,40,0,2,,,,,,,,0,,,,55,75
59100,note_on,40,0,14,,,,,,,,13,,,,43,75
59100,note_on,40,0,4,,,,,,,,2,,,,79,75
59100,note_on,40,0,8,,,,,,,,6,,,,55,75
59100,note_on,40,0,9,,,,,,,,7,,,,43,75
59180,note_off,80,0,6,,,,,,,,4,,,,74,64
59180,note_off,80,0,4,,,,,,,,2,,,,79,64
59180,note_off,80,0,3,,,,,,,,1,,,,79,64
59180,note_off,80,0,2,,,,,,,,0,,,,55,64
59180,note_off,80,0,8,,,,,,,,6,,,,55,64
59180,note_off,80,0,13,,,,,,,,12,,,,55,64
59180,note_off,80,0,1,,,,,,,,0,,,,67,64
59180,note_off,80,0,14,,,,,,,,13,,,,43,64
59180,note_off,80,0,7,,,,,,,,5,,,,70,64
59180,note_off,80,0,9,,,,,,,,7,,,,43,64
59180,note_off,80,0,12,,,,,,,,11,,,,70,64
59180,note_off,80,0,10,,,,,,,,8,,,,79,64
59180,note_off,80,0,11,,,,,,,,10,,,,74,64
59220,note_on,40,0,9,,,,,,,,7,,,,31,75
59220,note_on,40,0,4,,,,,,,,2,,,,74,75
59220,note_on,40,0,12,,,,,,,,11,,,,67,75
59220,note_on,40,0,10,,,,,,,,8,,,,74,75
59220,note_on,40,0,3,,,,,,,,1,,,,74,92
59220,note_on,40,0,7,,,,,,,,5,,,,67,75
59220,note_on,40,0,14,,,,,,,,13,,,,31,75
59220,note_on,40,0,8,,,,,,,,6,,,,43,75
59220,note_on,40,0,11,,,,,,,,10,,,,70,75
59220,note_on,40,0,6,,,,,,,,4,,,,70,75
59220,note_on,40,0,13,,,,,,,,12,,,,43,75
59220,note_on,40,0,1,,,,,,,,0,,,,55,75
59220,note_on,40,0,2,,,,,,,,0,,,,43,75
59300,note_off,80,0,12,,,,,,,,11,,,,67,64
59300,note_off,80,0,1,,,,,,,,0,,,,55,64
59300,note_off,80,0,6,,,,,,,,4,,,,70,64
59300,note_off,80,0,2,,,,,,,,0,,,,43,64
59300,note_off,80,0,7,,,,,,,,5,,,,67,64
59300,note_off,80,0,13,,,,,,,,12,,,,43,64
59300,note_off,80,0,4,,,,,,,,2,,,,74,64
59300,note_off,80,0,9,,,,,,,,7,,,,31,64
59300,note_off,80,0,11,,,,,,,,10,,,,70,64
59300,note_off,80,0,10,,,,,,,,8,,,,74,64
59300,note_off,80,0,14,,,,,,,,13,,,,31,64
59300,note_off,80,0,3,,,,,,,,1,,,,74,64
59300,note_off,80,0,8,,,,,,,,6,,,,43,64
59340,note_on,40,0,9,,,,,,,,7,,,,43,75
59340,note_on,40,0,6,,,,,,,,4,,,,74,75
59340,note_on,40,0,3,,,,,,,,1,,,,79,92
59340,note_on,40,0,1,,,,,,,,0,,,,67,75
59340,note_on,40,0,11,,,,,,,,10,,,,74,75
59340,note_on,40,0,7,,,,,,,,5,,,,70,75
59340,note_on,40,0,12,,,,,,,,11,,,,70,75
59340,note_on,40,0,8,,,,,,,,6,,,,55,75
59340,note_on,40,0,4,,,,,,,,2,,,,79,75
59340,note_on,40,0,2,,,,,,,,0,,,,55,75
59340,note_on,40,0,10,,,,,,,,8,,,,79,75
59340,note_on,40,0,14,,,,,,,,13,,,,43,75
59340,note_on,40,0,13,,,,,,,,12,,,,55,75
59420,note_off,80,0,12,,,,,,,,11,,,,70,64
59420,note_off,80,0,7,,,,,,,,5,,,,70,64
59420,note_off,80,0,2,,,,,,,,0,,,,55,64
59420,note_off,80,0,10,,,,,,,,8,,,,79,64
59420,note_off,80,0,4,,,,,,,,2,,,,79,64
59420,note_off,80,0,13,,,,,,,,12,,,,55,64
59420,note_off,80,0,8,,,,,,,,6,,,,55,64
59420,note_off,80,0,1,,,,,,,,0,,,,67,64
59420,note_off,80,0,6,,,,,,,,4,,,,74,64
59420,note_off,80,0,9,,,,,,,,7,,,,43,64
59420,note_off,80,0,3,,,,,,,,1,,,,79,64
59420,note_off,80,0,14,,,,,,,,13,,,,43,64
59420,note_off,80,0,11,,,,,,,,10,,,,74,64
59460,note_on,40,0,7,,,,,,,,5,,,,62,75
59460,note_on,40,0,8,,,,,,,,6,,,,38,75
59460,note_on,40,0,3,,,,,,,,1,,,,69,92
59460,note_on,40,0,2,,,,,,,,0,,,,38,75
59460,note_on,40,0,1,,,,,,,,0,,,,50,75
59460,note_on,40,0,4,,,,,,,,2,,,,69,75
59460,note_on,40,0,14,,,,,,,,13,,,,26,75
59460,note_on,40,0,12,,,,,,,,11,,,,62,75
59460,note_on,1080,0,15,,,,,,,,14,,,,38,75
59460,note_on,40,0,10,,,,,,,,8,,,,69,75
59460,note_on,40,0,13,,,,,,,,12,,,,38,75
59460,note_on,40,0,11,,,,,,,,10,,,,62,75
59460,note_on,40,0,9,,,,,,,,7,,,,26,75
59460,note_on,40,0,6,,,,,,,,4,,,,62,75
59540,note_off,80,0,11,,,,,,,,10,,,,62,64
59540,note_off,80,0,4,,,,,,,,2,,,,69,64
59540,note_off,80,0,3,,,,,,,,1,,,,69,64
59540,note_off,80,0,13,,,,,,,,12,,,,38,64
59540,note_off,80,0,10,,,,,,,,8,,,,69,64
59540,note_off,80,0,7,,,,,,,,5,,,,62,64
59540,note_off,80,0,9,,,,,,,,7,,,,26,64
59540,note_off,80,0,14,,,,,,,,13,,,,26,64
59540,note_off,80,0,8,,,,,,,,6,,,,38,64
59540,note_off,80,0,1,,,,,,,,0,,,,50,64
59540,note_off,80,0,2,,,,,,,,0,,,,38,64
59540,note_off,80,0,12,,,,,,,,11,,,,62,64
59540,note_off,80,0,6,,,,,,,,4,,,,62,64
59580,note_on,40,0,9,,,,,,,,7,,,,38,74
59580,note_on,40,0,2,,,,,,,,0,,,,50,74
59580,note_on,40,0,10,,,,,,,,8,,,,79,74
59580,note_on,40,0,14,,,,,,,,13,,,,38,74
59580,note_on,40,0,11,,,,,,,,10,,,,69,74
59580,note_on,40,0,12,,,,,,,,11,,,,62,74
59580,note_on,40,0,8,,,,,,,,6,,,,50,74
59580,note_on,40,0,7,,,,,,,,5,,,,62,74
59580,note_on,40,0,13,,,,,,,,12,,,,50,74
59580,note_on,40,0,3,,,,,,,,1,,,,79,91
59580,note_on,40,0,4,,,,,,,,2,,,,79,74
59580,note_on,40,0,1,,,,,,,,0,,,,62,74
59580,note_on,40,0,6,,,,,,,,4,,,,69,75
59660,note_off,80,0,7,,,,,,,,5,,,,62,64
59660,note_off,80,0,9,,,,,,,,7,,,,38,64
59660,note_off,80,0,6,,,,,,,,4,,,,69,64
59660,note_off,80,0,12,,,,,,,,11,,,,62,64
59660,note_off,80,0,1,,,,,,,,0,,,,62,64
59660,note_off,80,0,13,,,,,,,,12,,,,50,64
59660,note_off,80,0,4,,,,,,,,2,,,,79,64
59660,note_off,80,0,14,,,,,,,,13,,,,38,64
59660,note_off,80,0,11,,,,,,,,10,,,,69,64
59660,note_off,80,0,3,,,,,,,,1,,,,79,64
59660,note_off,80,0,10,,,,,,,,8,,,,79,64
59660,note_off,80,0,8,,,,,,,,6,,,,50,64
59660,note_off,80,0,2,,,,,,,,0,,,,50,64
59700,note_on,40,0,7,,,,,,,,5,,,,62,73
59700,note_on,40,0,14,,,,,,,,13,,,,38,73
59700,note_on,40,0,8,,,,,,,,6,,,,50,73
59700,note_on,40,0,4,,,,,,,,2,,,,79,73
59700,note_on,40,0,13,,,,,,,,12,,,,50,73
59700,note_on,40,0,3,,,,,,,,1,,,,79,90
59700,note_on,40,0,9,,,,,,,,7,,,,38,73
59700,note_on,40,0,6,,,,,,,,4,,,,69,75
59700,note_on,40,0,12,,,,,,,,11,,,,62,73
59700,note_on,40,0,11,,,,,,,,10,,,,69,73
59700,note_on,40,0,10,,,,,,,,8,,,,79,73
59700,note_on,40,0,1,,,,,,,,0,,,,62,73
59700,note_on,40,0,2,,,,,,,,0,,,,50,73
59780,note_off,80,0,1,,,,,,,,0,,,,62,64
59780,note_off,80,0,7,,,,,,,,5,,,,62,64
59780,note_off,80,0,14,,,,,,,,13,,,,38,64
59780,note_off,80,0,8,,,,,,,,6,,,,50,64
59780,note_off,80,0,4,,,,,,,,2,,,,79,64
59780,note_off,80,0,13,,,,,,,,12,,,,50,64
59780,note_off,80,0,11,,,,,,,,10,,,,69,64
59780,note_off,80,0,3,,,,,,,,1,,,,79,64
59780,note_off,80,0,2,,,,,,,,0,,,,50,64
59780,note_off,80,0,10,,,,,,,,8,,,,79,64
59780,note_off,80,0,6,,,,,,,,4,,,,69,64
59780,note_off,80,0,12,,,,,,,,11,,,,62,64
59780,note_off,80,0,9,,,,,,,,7,,,,38,64
59820,note_on,40,0,8,,,,,,,,6,,,,50,72
59820,note_on,40,0,14,,,,,,,,13,,,,38,72
59820,note_on,40,0,2,,,,,,,,0,,,,50,72
59820,note_on,40,0,1,,,,,,,,0,,,,62,72
59820,note_on,40,0,13,,,,,,,,12,,,,50,72
59820,note_on,40,0,11,,,,,,,,10,,,,69,72
59820,note_on,40,0,7,,,,,,,,5,,,,62,72
59820,note_on,40,0,6,,,,,,,,4,,,,69,74
59820,note_on,40,0,3,,,,,,,,1,,,,79,89
59820,note_on,40,0,12,,,,,,,,11,,,,62,72
59820,note_on,40,0,4,,,,,,,,2,,,,79,72
59820,note_on,40,0,9,,,,,,,,7,,,,38,72
59820,note_on,40,0,10,,,,,,,,8,,,,79,72
59900,note_off,80,0,3,,,,,,,,1,,,,79,64
59900,note_off,80,0,9,,,,,,,,7,,,,38,64
59900,note_off,80,0,11,,,,,,,,10,,,,69,64
59900,note_off,80,0,2,,,,,,,,0,,,,50,64
59900,note_off,80,0,7,,,,,,,,5,,,,62,64
59900,note_off,80,0,4,,,,,,,,2,,,,79,64
59900,note_off,80,0,14,,,,,,,,13,,,,38,64
59900,note_off,80,0,10,,,,,,,,8,,,,79,64
59900,note_off,80,0,13,,,,,,,,12,,,,50,64
59900,note_off,80,0,12,,,,,,,,11,,,,62,64
59900,note_off,80,0,1,,,,,,,,0,,,,62,64
59900,note_off,80,0,8,,,,,,,,6,,,,50,64
59900,note_off,80,0,6,,,,,,,,4,,,,69,64
59940,note_on,40,0,6,,,,,,,,4,,,,69,74
59940,note_on,40,0,14,,,,,,,,13,,,,38,71
59940,note_on,40,0,8,,,,,,,,6,,,,50,71
59940,note_on,40,0,11,,,,,,,,10,,,,69,71
59940,note_on,40,0,12,,,,,,,,11,,,,62,71
59940,note_on,40,0,1,,,,,,,,0,,,,62,71
59940,note_on,40,0,3,,,,,,,,1,,,,79,88
59940,note_on,40,0,4,,,,,,,,2,,,,79,71
59940,note_on,40,0,2,,,,,,,,0,,,,50,71
59940,note_on,40,0,7,,,,,,,,5,,,,62,71
59940,note_on,40,0,13,,,,,,,,12,,,,50,71
59940,note_on,40,0,9,,,,,,,,7,,,,38,71
59940,note_on,40,0,10,,,,,,,,8,,,,79,71
60020,note_off,80,0,4,,,,,,,,2,,,,79,64
60020,note_off,80,0,6,,,,,,,,4,,,,69,64
60020,note_off,80,0,10,,,,,,,,8,,,,79,64
60020,note_off,80,0,12,,,,,,,,11,,,,62,64
60020,note_off,80,0,3,,,,,,,,1,,,,79,64
60020,note_off,80,0,13,,,,,,,,12,,,,50,64
60020,note_off,80,0,1,,,,,,,,0,,,,62,64
60020,note_off,80,0,14,,,,,,,,13,,,,38,64
60020,note_off,80,0,11,,,,,,,,10,,,,69,64
60020,note_off,80,0,2,,,,,,,,0,,,,50,64
60020,note_off,80,0,9,,,,,,,,7,,,,38,64
60020,note_off,80,0,7,,,,,,,,5,,,,62,64
60020,note_off,80,0,8,,,,,,,,6,,,,50,64
60060,note_on,40,0,7,,,,,,,,5,,,,62,70
60060,note_on,40,0,8,,,,,,,,6,,,,50,70
60060,note_on,40,0,12,,,,,,,,11,,,,62,70
60060,note_on,40,0,13,,,,,,,,12,,,,50,70
60060,note_on,40,0,3,,,,,,,,1,,,,79,87
60060,note_on,40,0,10,,,,,,,,8,,,,79,70
60060,note_on,40,0,2,,,,,,,,0,,,,50,70
60060,note_on,40,0,14,,,,,,,,13,,,,38,70
60060,note_on,40,0,11,,,,,,,,10,,,,69,70
60060,note_on,40,0,4,,,,,,,,2,,,,79,70
60060,note_on,40,0,9,,,,,,,,7,,,,38,70
60060,note_on,40,0,6,,,,,,,,4,,,,69,73
60060,note_on,40,0,1,,,,,,,,0,,,,62,70
60140,note_off,80,0,14,,,,,,,,13,,,,38,64
60140,note_off,80,0,3,,,,,,,,1,,,,79,64
60140,note_off,80,0,6,,,,,,,,4,,,,69,64
60140,note_off,80,0,4,,,,,,,,2,,,,79,64
60140,note_off,80,0,8,,,,,,,,6,,,,50,64
60140,note_off,80,0,12,,,,,,,,11,,,,62,64
60140,note_off,80,0,13,,,,,,,,12,,,,50,64
60140,note_off,80,0,7,,,,,,,,5,,,,62,64
60140,note_off,80,0,11,,,,,,,,10,,,,69,64
60140,note_off,80,0,10,,,,,,,,8,,,,79,64
60140,note_off,80,0,1,,,,,,,,0,,,,62,64
60140,note_off,80,0,2,,,,,,,,0,,,,50,64
60140,note_off,80,0,9,,,,,,,,7,,,,38,64
60180,note_on,40,0,13,,,,,,,,12,,,,38,69
60180,note_on,40,0,10,,,,,,,,8,,,,74,69
60180,note_on,40,0,3,,,,,,,,1,,,,74,86
60180,note_on,40,0,1,,,,,,,,0,,,,50,69
60180,note_on,40,0,4,,,,,,,,2,,,,74,69
60180,note_on,40,0,14,,,,,,,,13,,,,26,69
60180,note_on,40,0,6,,,,,,,,4,,,,67,72
60180,note_on,40,0,8,,,,,,,,6,,,,38,69
60180,note_on,40,0,2,,,,,,,,0,,,,38,69
60180,note_on,40,0,7,,,,,,,,5,,,,57,69
60180,note_on,40,0,12,,,,,,,,11,,,,57,69
60180,note_on,40,0,11,,,,,,,,10,,,,67,69
60180,note_on,40,0,9,,,,,,,,7,,,,26,69
60260,note_off,80,0,3,,,,,,,,1,,,,74,64
60260,note_off,80,0,13,,,,,,,,12,,,,38,64
60260,note_off,80,0,10,,,,,,,,8,,,,74,64
60260,note_off,80,0,11,,,,,,,,10,,,,67,64
60260,note_off,80,0,1,,,,,,,,0,,,,50,64
60260,note_off,80,0,7,,,,,,,,5,,,,57,64
60260,note_off,80,0,9,,,,,,,,7,,,,26,64
60260,note_off,80,0,8,,,,,,,,6,,,,38,64
60260,note_off,80,0,14,,,,,,,,13,,,,26,64
60260,note_off,80,0,2,,,,,,,,0,,,,38,64
60260,note_off,80,0,12,,,,,,,,11,,,,57,64
60260,note_off,80,0,4,,,,,,,,2,,,,74,64
60260,note_off,80,0,6,,,,,,,,4,,,,67,64
60300,note_on,40,0,3,,,,,,,,1,,,,79,85
60300,note_on,40,0,10,,,,,,,,8,,,,79,68
60300,note_on,40,0,13,,,,,,,,12,,,,50,68
60300,note_on,40,0,11,,,,,,,,10,,,,69,68
60300,note_on,40,0,2,,,,,,,,0,,,,50,68
60300,note_on,40,0,8,,,,,,,,6,,,,50,68
60300,note_on,40,0,12,,,,,,,,11,,,,62,68
60300,note_off,840,0,15,,,,,,,,14,,,,38,64
60300,note_on,40,0,7,,,,,,,,5,,,,62,68
60300,note_on,40,0,4,,,,,,,,2,,,,79,68
60300,note_on,40,0,9,,,,,,,,7,,,,38,68
60300,note_on,40,0,1,,,,,,,,0,,,,62,68
60300,note_on,40,0,6,,,,,,,,4,,,,69,71
60300,note_on,40,0,14,,,,,,,,13,,,,38,68
60380,note_off,80,0,14,,,,,,,,13,,,,38,64
60380,note_off,80,0,11,,,,,,,,10,,,,69,64
60380,note_off,80,0,2,,,,,,,,0,,,,50,64
60380,note_off,80,0,3,,,,,,,,1,,,,79,64
60380,note_off,80,0,4,,,,,,,,2,,,,79,64
60380,note_off,80,0,10,,,,,,,,8,,,,79,64
60380,note_off,80,0,9,,,,,,,,7,,,,38,64
60380,note_off,80,0,12,,,,,,,,11,,,,62,64
60380,note_off,80,0,8,,,,,,,,6,,,,50,64
60380,note_off,80,0,13,,,,,,,,12,,,,50,64
60380,note_off,80,0,6,,,,,,,,4,,,,69,64
60380,note_off,80,0,1,,,,,,,,0,,,,62,64
60380,note_off,80,0,7,,,,,,,,5,,,,62,64
60420,note_on,40,0,3,,,,,,,,1,,,,69,84
60420,note_on,40,0,2,,,,,,,,0,,,,38,67
60420,note_on,40,0,12,,,,,,,,11,,,,57,67
60420,note_on,40,0,14,,,,,,,,13,,,,26,67
60420,note_on,40,0,8,,,,,,,,6,,,,38,67
60420,note_on,40,0,7,,,,,,,,5,,,,57,67
60420,note_on,40,0,4,,,,,,,,2,,,,69,67
60420,note_on,40,0,6,,,,,,,,4,,,,62,70
60420,note_on,40,0,1,,,,,,,,0,,,,50,67
60420,note_on,40,0,10,,,,,,,,8,,,,69,67
60420,note_on,40,0,13,,,,,,,,12,,,,38,67
60420,note_on,40,0,11,,,,,,,,10,,,,62,67
60420,note_on,40,0,9,,,,,,,,7,,,,26,67
60500,note_off,80,0,12,,,,,,,,11,,,,57,64
60500,note_off,80,0,10,,,,,,,,8,,,,69,64
60500,note_off,80,0,14,,,,,,,,13,,,,26,64
60500,note_off,80,0,4,,,,,,,,2,,,,69,64
60500,note_off,80,0,9,,,,,,,,7,,,,26,64
60500,note_off,80,0,1,,,,,,,,0,,,,50,64
60500,note_off,80,0,3,,,,,,,,1,,,,69,64
60500,note_off,80,0,8,,,,,,,,6,,,,38,64
60500,note_off,80,0,11,,,,,,,,10,,,,62,64
60500,note_off,80,0,13,,,,,,,,12,,,,38,64
60500,note_off,80,0,7,,,,,,,,5,,,,57,64
60500,note_off,80,0,6,,,,,,,,4,,,,62,64
60500,note_off,80,0,2,,,,,,,,0,,,,38,64
60540,note_on,40,0,3,,,,,,,,1,,,,79,83
60540,note_on,40,0,4,,,,,,,,2,,,,79,66
60540,note_on,40,0,9,,,,,,,,7,,,,38,66
60540,note_on,40,0,8,,,,,,,,6,,,,50,66
60540,note_on,40,0,6,,,,,,,,4,,,,69,69
60540,note_on,40,0,12,,,,,,,,11,,,,62,66
60540,note_on,40,0,11,,,,,,,,10,,,,69,66
60540,note_on,40,0,1,,,,,,,,0,,,,62,66
60540,note_on,40,0,14,,,,,,,,13,,,,38,66
60540,note_on,40,0,10,,,,,,,,8,,,,79,66
60540,note_on,40,0,2,,,,,,,,0,,,,50,66
60540,note_on,40,0,7,,,,,,,,5,,,,62,66
60540,note_on,40,0,13,,,,,,,,12,,,,50,66
60620,note_off,80,0,7,,,,,,,,5,,,,62,64
60620,note_off,80,0,12,,,,,,,,11,,,,62,64
60620,note_off,80,0,9,,,,,,,,7,,,,38,64
60620,note_off,80,0,14,,,,,,,,13,,,,38,64
60620,note_off,80,0,1,,,,,,,,0,,,,62,64
60620,note_off,80,0,4,,,,,,,,2,,,,79,64
60620,note_off,80,0,6,,,,,,,,4,,,,69,64
60620,note_off,80,0,2,,,,,,,,0,,,,50,64
60620,note_off,80,0,10,,,,,,,,8,,,,79,64
60620,note_off,80,0,13,,,,,,,,12,,,,50,64
60620,note_off,80,0,11,,,,,,,,10,,,,69,64
60620,note_off,80,0,8,,,,,,,,6,,,,50,64
60620,note_off,80,0,3,,,,,,,,1,,,,79,64
60660,note_on,40,0,1,,,,,,,,0,,,,62,65
60660,note_on,40,0,12,,,,,,,,11,,,,62,65
60660,note_on,40,0,7,,,,,,,,5,,,,62,65
60660,note_on,40,0,4,,,,,,,,2,,,,79,65
60660,note_on,40,0,6,,,,,,,,4,,,,69,68
60660,note_on,40,0,3,,,,,,,,1,,,,79,82
60660,note_on,40,0,14,,,,,,,,13,,,,38,65
60660,note_on,40,0,10,,,,,,,,8,,,,79,65
60660,note_on,40,0,13,,,,,,,,12,,,,50,65
60660,note_on,40,0,11,,,,,,,,10,,,,69,65
60660,note_on,40,0,2,,,,,,,,0,,,,50,65
60660,note_on,40,0,9,,,,,,,,7,,,,38,65
60660,note_on,40,0,8,,,,,,,,6,,,,50,65
60740,note_off,80,0,10,,,,,,,,8,,,,79,64
60740,note_off,80,0,12,,,,,,,,11,,,,62,64
60740,note_off,80,0,4,,,,,,,,2,,,,79,64
60740,note_off,80,0,6,,,,,,,,4,,,,69,64
60740,note_off,80,0,14,,,,,,,,13,,,,38,64
60740,note_off,80,0,8,,,,,,,,6,,,,50,64
60740,note_off,80,0,9,,,,,,,,7,,,,38,64
60740,note_off,80,0,2,,,,,,,,0,,,,50,64
60740,note_off,80,0,3,,,,,,,,1,,,,79,64
60740,note_off,80,0,7,,,,,,,,5,,,,62,64
60740,note_off,80,0,13,,,,,,,,12,,,,50,64
60740,note_off,80,0,11,,,,,,,,10,,,,69,64
60740,note_off,80,0,1,,,,,,,,0,,,,62,64
60780,note_on,40,0,12,,,,,,,,11,,,,62,64
60780,note_on,40,0,7,,,,,,,,5,,,,62,64
60780,note_on,40,0,11,,,,,,,,10,,,,69,64
60780,note_on,40,0,6,,,,,,,,4,,,,69,67
60780,note_on,40,0,4,,,,,,,,2,,,,79,64
60780,note_on,40,0,9,,,,,,,,7,,,,38,64
60780,note_on,40,0,13,,,,,,,,12,,,,50,64
60780,note_on,40,0,2,,,,,,,,0,,,,50,64
60780,note_on,40,0,10,,,,,,,,8,,,,79,64
60780,note_on,40,0,1,,,,,,,,0,,,,62,64
60780,note_on,40,0,3,,,,,,,,1,,,,79,81
60780,note_on,40,0,14,,,,,,,,13,,,,38,64
60780,note_on,40,0,8,,,,,,,,6,,,,50,64
60860,note_off,80,0,2,,,,,,,,0,,,,50,64
60860,note_off,80,0,11,,,,,,,,10,,,,69,64
60860,note_off,80,0,1,,,,,,,,0,,,,62,64
60860,note_off,80,0,13,,,,,,,,12,,,,50,64
60860,note_off,80,0,7,,,,,,,,5,,,,62,64
60860,note_off,80,0,3,,,,,,,,1,,,,79,64
60860,note_off,80,0,14,,,,,,,,13,,,,38,64
60860,note_off,80,0,4,,,,,,,,2,,,,79,64
60860,note_off,80,0,12,,,,,,,,11,,,,62,64
60860,note_off,80,0,6,,,,,,,,4,,,,69,64
60860,note_off,80,0,8,,,,,,,,6,,,,50,64
60860,note_off,80,0,9,,,,,,,,7,,,,38,64
60860,note_off,80,0,10,,,,,,,,8,,,,79,64
60900,note_on,40,0,1,,,,,,,,0,,,,62,63
60900,note_on,40,0,12,,,,,,,,11,,,,62,63
60900,note_on,40,0,9,,,,,,,,7,,,,38,63
60900,note_on,40,0,11,,,,,,,,10,,,,69,63
60900,note_on,40,0,2,,,,,,,,0,,,,50,63
60900,note_on,40,0,3,,,,,,,,1,,,,79,80
60900,note_on,40,0,13,,,,,,,,12,,,,50,63
60900,note_on,40,0,7,,,,,,,,5,,,,62,63
60900,note_on,40,0,10,,,,,,,,8,,,,79,63
60900,note_on,40,0,8,,,,,,,,6,,,,50,63
60900,note_on,40,0,4,,,,,,,,2,,,,79,63
60900,note_on,40,0,6,,,,,,,,4,,,,69,66
60900,note_on,40,0,14,,,,,,,,13,,,,38,63
60980,note_off,80,0,13,,,,,,,,12,,,,50,64
60980,note_off,80,0,12,,,,,,,,11,,,,62,64
60980,note_off,80,0,1,,,,,,,,0,,,,62,64
60980,note_off,80,0,2,,,,,,,,0,,,,50,64
60980,note_off,80,0,7,,,,,,,,5,,,,62,64
60980,note_off,80,0,6,,,,,,,,4,,,,69,64
60980,note_off,80,0,11,,,,,,,,10,,,,69,64
60980,note_off,80,0,3,,,,,,,,1,,,,79,64
60980,note_off,80,0,9,,,,,,,,7,,,,38,64
60980,note_off,80,0,14,,,,,,,,13,,,,38,64
60980,note_off,80,0,4,,,,,,,,2,,,,79,64
60980,note_off,80,0,8,,,,,,,,6,,,,50,64
60980,note_off,80,0,10,,,,,,,,8,,,,79,64
61020,note_on,40,0,7,,,,,,,,5,,,,62,62
61020,note_on,40,0,2,,,,,,,,0,,,,50,62
61020,note_on,40,0,3,,,,,,,,1,,,,79,79
61020,note_on,40,0,14,,,,,,,,13,,,,38,62
61020,note_on,40,0,10,,,,,,,,8,,,,79,62
61020,note_on,40,0,1,,,,,,,,0,,,,62,62
61020,note_on,40,0,6,,,,,,,,4,,,,69,65
61020,note_on,40,0,12,,,,,,,,11,,,,62,62
61020,note_on,40,0,4,,,,,,,,2,,,,79,62
61020,note_on,40,0,9,,,,,,,,7,,,,38,62
61020,note_on,40,0,11,,,,,,,,10,,,,69,62
61020,note_on,40,0,13,,,,,,,,12,,,,50,62
61020,note_on,40,0,8,,,,,,,,6,,,,50,62
61100,note_off,80,0,10,,,,,,,,8,,,,79,64
61100,note_off,80,0,1,,,,,,,,0,,,,62,64
61100,note_off,80,0,13,,,,,,,,12,,,,50,64
61100,note_off,80,0,2,,,,,,,,0,,,,50,64
61100,note_off,80,0,6,,,,,,,,4,,,,69,64
61100,note_off,80,0,8,,,,,,,,6,,,,50,64
61100,note_off,80,0,14,,,,,,,,13,,,,38,64
61100,note_off,80,0,11,,,,,,,,10,,,,69,64
61100,note_off,80,0,12,,,,,,,,11,,,,62,64
61100,note_off,80,0,4,,,,,,,,2,,,,79,64
61100,note_off,80,0,7,,,,,,,,5,,,,62,64
61100,note_off,80,0,9,,,,,,,,7,,,,38,64
61100,note_off,80,0,3,,,,,,,,1,,,,79,64
61140,note_on,40,0,11,,,,,,,,10,,,,67,61
61140,note_on,40,0,14,,,,,,,,13,,,,26,61
61140,note_on,40,0,8,,,,,,,,6,,,,38,61
61140,note_on,40,0,6,,,,,,,,4,,,,67,64
61140,note_on,40,0,7,,,,,,,,5,,,,57,61
61140,note_on,40,0,13,,,,,,,,12,,,,38,61
61140,note_on,40,0,3,,,,,,,,1,,,,74,78
61140,note_on,40,0,12,,,,,,,,11,,,,57,61
61140,note_on,40,0,4,,,,,,,,2,,,,74,61
61140,note_on,40,0,10,,,,,,,,8,,,,74,61
61140,note_on,40,0,2,,,,,,,,0,,,,38,61
61140,note_on,40,0,1,,,,,,,,0,,,,50,61
61140,note_on,40,0,9,,,,,,,,7,,,,26,61
61220,note_off,80,0,12,,,,,,,,11,,,,57,64
61220,note_off,80,0,11,,,,,,,,10,,,,67,64
61220,note_off,80,0,10,,,,,,,,8,,,,74,64
61220,note_off,80,0,3,,,,,,,,1,,,,74,64
61220,note_off,80,0,6,,,,,,,,4,,,,67,64
61220,note_off,80,0,14,,,,,,,,13,,,,26,64
61220,note_off,80,0,4,,,,,,,,2,,,,74,64
61220,note_off,80,0,7,,,,,,,,5,,,,57,64
61220,note_off,80,0,9,,,,,,,,7,,,,26,64
61220,note_off,80,0,13,,,,,,,,12,,,,38,64
61220,note_off,80,0,1,,,,,,,,0,,,,50,64
61220,note_off,80,0,2,,,,,,,,0,,,,38,64
61220,note_off,80,0,8,,,,,,,,6,,,,38,64
61260,note_on,40,0,1,,,,,,,,0,,,,62,60
61260,note_on,40,0,3,,,,,,,,1,,,,79,77
61260,note_on,40,0,10,,,,,,,,8,,,,79,60
61260,note_on,40,0,2,,,,,,,,0,,,,50,60
61260,note_on,40,0,6,,,,,,,,4,,,,69,63
61260,note_on,40,0,14,,,,,,,,13,,,,38,60
61260,note_on,40,0,11,,,,,,,,10,,,,69,60
61260,note_on,40,0,4,,,,,,,,2,,,,79,60
61260,note_on,40,0,9,,,,,,,,7,,,,38,60
61260,note_on,40,0,12,,,,,,,,11,,,,62,60
61260,note_on,40,0,8,,,,,,,,6,,,,50,60
61260,note_on,40,0,7,,,,,,,,5,,,,62,60
61260,note_on,40,0,13,,,,,,,,12,,,,50,60
61340,note_off,80,0,9,,,,,,,,7,,,,38,64
61340,note_off,80,0,8,,,,,,,,6,,,,50,64
61340,note_off,80,0,10,,,,,,,,8,,,,79,64
61340,note_off,80,0,4,,,,,,,,2,,,,79,64
61340,note_off,80,0,14,,,,,,,,13,,,,38,64
61340,note_off,80,0,2,,,,,,,,0,,,,50,64
61340,note_off,80,0,11,,,,,,,,10,,,,69,64
61340,note_off,80,0,3,,,,,,,,1,,,,79,64
61340,note_off,80,0,1,,,,,,,,0,,,,62,64
61340,note_off,80,0,6,,,,,,,,4,,,,69,64
61340,note_off,80,0,13,,,,,,,,12,,,,50,64
61340,note_off,80,0,7,,,,,,,,5,,,,62,64
61340,note_off,80,0,12,,,,,,,,11,,,,62,64
61380,note_on,40,0,1,,,,,,,,0,,,,50,59
61380,note_on,40,0,10,,,,,,,,8,,,,69,59
61380,note_on,40,0,12,,,,,,,,11,,,,54,59
61380,note_on,40,0,4,,,,,,,,2,,,,69,59
61380,note_on,40,0,13,,,,,,,,12,,,,38,59
61380,note_on,40,0,9,,,,,,,,7,,,,26,59
61380,note_on,40,0,3,,,,,,,,1,,,,69,75
61380,set_tempo,38400,1,0,500000,,,,,,,,,,,,
61380,note_on,40,0,11,,,,,,,,10,,,,62,59
61380,note_on,1080,0,15,,,,,,,,14,,,,38,53
61380,note_on,40,0,14,,,,,,,,13,,,,26,59
61380,note_on,40,0,6,,,,,,,,4,,,,62,62
61380,note_on,40,0,7,,,,,,,,5,,,,54,59
61380,note_on,40,0,2,,,,,,,,0,,,,38,59
61380,note_on,40,0,8,,,,,,,,6,,,,38,59
61460,note_off,80,0,8,,,,,,,,6,,,,38,64
61460,note_off,80,0,14,,,,,,,,13,,,,26,64
61460,note_off,80,0,13,,,,,,,,12,,,,38,64
61460,note_off,80,0,9,,,,,,,,7,,,,26,64
61460,note_off,80,0,12,,,,,,,,11,,,,54,64
61460,note_off,80,0,3,,,,,,,,1,,,,69,64
61460,note_off,80,0,2,,,,,,,,0,,,,38,64
61460,note_off,80,0,10,,,,,,,,8,,,,69,64
61460,note_off,80,0,7,,,,,,,,5,,,,54,64
61460,note_off,80,0,4,,,,,,,,2,,,,69,64
61460,note_off,80,0,1,,,,,,,,0,,,,50,64
61460,note_off,80,0,6,,,,,,,,4,,,,62,64
61460,note_off,80,0,11,,,,,,,,10,,,,62,64
61500,note_on,40,0,10,,,,,,,,8,,,,78,58
61500,note_on,40,0,2,,,,,,,,0,,,,50,58
61500,note_on,40,0,3,,,,,,,,1,,,,78,73
61500,note_on,40,0,9,,,,,,,,7,,,,38,58
61500,set_tempo,120,1,0,508474,,,,,,,,,,,,
61500,note_on,40,0,13,,,,,,,,12,,,,50,58
61500,note_on,40,0,12,,,,,,,,11,,,,62,58
61500,note_on,40,0,4,,,,,,,,2,,,,78,58
61500,note_on,40,0,8,,,,,,,,6,,,,50,58
61500,note_on,40,0,1,,,,,,,,0,,,,62,58
61500,note_on,40,0,7,,,,,,,,5,,,,62,58
61500,note_on,40,0,14,,,,,,,,13,,,,38,58
61500,note_on,40,0,6,,,,,,,,4,,,,69,61
61500,note_on,40,0,11,,,,,,,,10,,,,69,58
61580,note_off,80,0,9,,,,,,,,7,,,,38,64
61580,note_off,80,0,13,,,,,,,,12,,,,50,64
61580,note_off,80,0,12,,,,,,,,11,,,,62,64
61580,note_off,80,0,1,,,,,,,,0,,,,62,64
61580,note_off,80,0,6,,,,,,,,4,,,,69,64
61580,note_off,80,0,7,,,,,,,,5,,,,62,64
61580,note_off,80,0,3,,,,,,,,1,,,,78,64
61580,note_off,80,0,11,,,,,,,,10,,,,69,64
61580,note_off,80,0,14,,,,,,,,13,,,,38,64
61580,note_off,80,0,8,,,,,,,,6,,,,50,64
61580,note_off,80,0,10,,,,,,,,8,,,,78,64
61580,note_off,80,0,4,,,,,,,,2,,,,78,64
61580,note_off,80,0,2,,,,,,,,0,,,,50,64
61620,note_on,40,0,9,,,,,,,,7,,,,38,57
61620,note_on,40,0,14,,,,,,,,13,,,,38,57
61620,set_tempo,120,1,0,517241,,,,,,,,,,,,
61620,note_on,40,0,8,,,,,,,,6,,,,50,57
61620,note_on,40,0,13,,,,,,,,12,,,,50,57
61620,note_on,40,0,3,,,,,,,,1,,,,78,71
61620,note_on,40,0,2,,,,,,,,0,,,,50,56
61620,note_on,40,0,11,,,,,,,,10,,,,69,57
61620,note_on,40,0,7,,,,,,,,5,,,,62,57
61620,note_on,40,0,6,,,,,,,,4,,,,69,60
61620,note_on,40,0,4,,,,,,,,2,,,,78,56
61620,note_on,40,0,1,,,,,,,,0,,,,62,56
61620,note_on,40,0,12,,,,,,,,11,,,,62,57
61620,note_on,40,0,10,,,,,,,,8,,,,78,57
61700,note_off,80,0,9,,,,,,,,7,,,,38,64
61700,note_off,80,0,11,,,,,,,,10,,,,69,64
61700,note_off,80,0,4,,,,,,,,2,,,,78,64
61700,note_off,80,0,7,,,,,,,,5,,,,62,64
61700,note_off,80,0,1,,,,,,,,0,,,,62,64
61700,note_off,80,0,8,,,,,,,,6,,,,50,64
61700,note_off,80,0,6,,,,,,,,4,,,,69,64
61700,note_off,80,0,14,,,,,,,,13,,,,38,64
61700,note_off,80,0,10,,,,,,,,8,,,,78,64
61700,note_off,80,0,12,,,,,,,,11,,,,62,64
61700,note_off,80,0,2,,,,,,,,0,,,,50,64
61700,note_off,80,0,13,,,,,,,,12,,,,50,64
61700,note_off,80,0,3,,,,,,,,1,,,,78,64
61740,note_on,40,0,12,,,,,,,,11,,,,62,56
61740,note_on,40,0,10,,,,,,,,8,,,,78,56
61740,note_on,40,0,2,,,,,,,,0,,,,50,54
61740,note_on,40,0,1,,,,,,,,0,,,,62,54
61740,note_on,40,0,13,,,,,,,,12,,,,50,56
61740,set_tempo,120,1,0,526315,,,,,,,,,,,,
61740,note_on,40,0,8,,,,,,,,6,,,,50,56
61740,note_on,40,0,4,,,,,,,,2,,,,78,54
61740,note_on,40,0,6,,,,,,,,4,,,,69,59
61740,note_on,40,0,11,,,,,,,,10,,,,69,56
61740,note_on,40,0,3,,,,,,,,1,,,,78,69
61740,note_on,40,0,14,,,,,,,,13,,,,38,56
61740,note_on,40,0,9,,,,,,,,7,,,,38,56
61740,note_on,40,0,7,,,,,,,,5,,,,62,56
61820,note_off,80,0,7,,,,,,,,5,,,,62,64
61820,note_off,80,0,8,,,,,,,,6,,,,50,64
61820,note_off,80,0,6,,,,,,,,4,,,,69,64
61820,note_off,80,0,1,,,,,,,,0,,,,62,64
61820,note_off,80,0,3,,,,,,,,1,,,,78,64
61820,note_off,80,0,12,,,,,,,,11,,,,62,64
61820,note_off,80,0,10,,,,,,,,8,,,,78,64
61820,note_off,80,0,14,,,,,,,,13,,,,38,64
61820,note_off,80,0,13,,,,,,,,12,,,,50,64
61820,note_off,80,0,11,,,,,,,,10,,,,69,64
61820,note_off,80,0,9,,,,,,,,7,,,,38,64
61820,note_off,80,0,4,,,,,,,,2,,,,78,64
61820,note_off,80,0,2,,,,,,,,0,,,,50,64
61860,note_on,40,0,11,,,,,,,,10,,,,69,54
61860,note_on,40,0,14,,,,,,,,13,,,,38,54
61860,note_on,40,0,9,,,,,,,,7,,,,38,54
61860,note_on,40,0,8,,,,,,,,6,,,,50,54
61860,note_on,40,0,12,,,,,,,,11,,,,62,54
61860,note_on,40,0,4,,,,,,,,2,,,,78,52
61860,set_tempo,120,1,0,535714,,,,,,,,,,,,
61860,note_on,40,0,6,,,,,,,,4,,,,69,58
61860,note_on,40,0,1,,,,,,,,0,,,,62,52
61860,note_on,40,0,10,,,,,,,,8,,,,78,54
61860,note_on,40,0,13,,,,,,,,12,,,,50,54
61860,note_on,40,0,2,,,,,,,,0,,,,50,52
61860,note_on,40,0,3,,,,,,,,1,,,,78,67
61860,note_on,40,0,7,,,,,,,,5,,,,62,54
61940,note_off,80,0,6,,,,,,,,4,,,,69,64
61940,note_off,80,0,13,,,,,,,,12,,,,50,64
61940,note_off,80,0,10,,,,,,,,8,,,,78,64
61940,note_off,80,0,1,,,,,,,,0,,,,62,64
61940,note_off,80,0,8,,,,,,,,6,,,,50,64
61940,note_off,80,0,3,,,,,,,,1,,,,78,64
61940,note_off,80,0,2,,,,,,,,0,,,,50,64
61940,note_off,80,0,12,,,,,,,,11,,,,62,64
61940,note_off,80,0,14,,,,,,,,13,,,,38,64
61940,note_off,80,0,7,,,,,,,,5,,,,62,64
61940,note_off,80,0,4,,,,,,,,2,,,,78,64
61940,note_off,80,0,9,,,,,,,,7,,,,38,64
61940,note_off,80,0,11,,,,,,,,10,,,,69,64
61980,note_on,40,0,4,,,,,,,,2,,,,78,50
61980,note_on,40,0,13,,,,,,,,12,,,,50,52
61980,note_on,40,0,3,,,,,,,,1,,,,78,65
61980,note_on,40,0,14,,,,,,,,13,,,,38,52
61980,note_on,40,0,2,,,,,,,,0,,,,50,50
61980,note_on,40,0,9,,,,,,,,7,,,,38,52
61980,note_on,40,0,7,,,,,,,,5,,,,62,52
61980,note_on,40,0,10,,,,,,,,8,,,,78,52
61980,note_on,40,0,6,,,,,,,,4,,,,69,57
61980,note_on,40,0,1,,,,,,,,0,,,,62,50
61980,set_tempo,120,1,0,545454,,,,,,,,,,,,
61980,note_on,40,0,8,,,,,,,,6,,,,50,52
61980,note_on,40,0,11,,,,,,,,10,,,,69,52
61980,note_on,40,0,12,,,,,,,,11,,,,62,52
62060,note_off,80,0,14,,,,,,,,13,,,,38,64
62060,note_off,80,0,1,,,,,,,,0,,,,62,64
62060,note_off,80,0,8,,,,,,,,6,,,,50,64
62060,note_off,80,0,9,,,,,,,,7,,,,38,64
62060,note_off,80,0,12,,,,,,,,11,,,,62,64
62060,note_off,80,0,4,,,,,,,,2,,,,78,64
62060,note_off,80,0,3,,,,,,,,1,,,,78,64
62060,note_off,80,0,7,,,,,,,,5,,,,62,64
62060,note_off,80,0,10,,,,,,,,8,,,,78,64
62060,note_off,80,0,11,,,,,,,,10,,,,69,64
62060,note_off,80,0,13,,,,,,,,12,,,,50,64
62060,note_off,80,0,2,,,,,,,,0,,,,50,64
62060,note_off,80,0,6,,,,,,,,4,,,,69,64
62100,note_on,40,0,9,,,,,,,,7,,,,26,50
62100,note_on,40,0,3,,,,,,,,1,,,,74,63
62100,note_on,40,0,12,,,,,,,,11,,,,57,50
62100,note_on,40,0,2,,,,,,,,0,,,,38,48
62100,note_on,40,0,6,,,,,,,,4,,,,66,56
62100,note_on,40,0,11,,,,,,,,10,,,,66,50
62100,note_on,40,0,4,,,,,,,,2,,,,74,48
62100,set_tempo,120,1,0,555555,,,,,,,,,,,,
62100,note_on,40,0,13,,,,,,,,12,,,,38,50
62100,note_on,40,0,14,,,,,,,,13,,,,26,50
62100,note_on,40,0,8,,,,,,,,6,,,,38,50
62100,note_on,40,0,7,,,,,,,,5,,,,57,50
62100,note_on,40,0,1,,,,,,,,0,,,,50,48
62100,note_on,40,0,10,,,,,,,,8,,,,74,50
62180,note_off,80,0,10,,,,,,,,8,,,,74,64
62180,note_off,80,0,13,,,,,,,,12,,,,38,64
62180,note_off,80,0,4,,,,,,,,2,,,,74,64
62180,note_off,80,0,2,,,,,,,,0,,,,38,64
62180,note_off,80,0,6,,,,,,,,4,,,,66,64
62180,note_off,80,0,9,,,,,,,,7,,,,26,64
62180,note_off,80,0,1,,,,,,,,0,,,,50,64
62180,note_off,80,0,3,,,,,,,,1,,,,74,64
62180,note_off,80,0,11,,,,,,,,10,,,,66,64
62180,note_off,80,0,14,,,,,,,,13,,,,26,64
62180,note_off,80,0,7,,,,,,,,5,,,,57,64
62180,note_off,80,0,8,,,,,,,,6,,,,38,64
62180,note_off,80,0,12,,,,,,,,11,,,,57,64
62220,note_on,40,0,12,,,,,,,,11,,,,62,48
62220,note_on,40,0,6,,,,,,,,4,,,,69,55
62220,note_on,40,0,13,,,,,,,,12,,,,50,48
62220,note_on,40,0,4,,,,,,,,2,,,,78,46
62220,note_on,40,0,9,,,,,,,,7,,,,38,48
62220,note_on,40,0,3,,,,,,,,1,,,,78,61
62220,note_on,40,0,11,,,,,,,,10,,,,69,48
62220,note_on,40,0,14,,,,,,,,13,,,,38,48
62220,note_on,40,0,8,,,,,,,,6,,,,50,48
62220,note_off,840,0,15,,,,,,,,14,,,,38,64
62220,note_on,40,0,1,,,,,,,,0,,,,62,46
62220,note_on,40,0,7,,,,,,,,5,,,,62,48
62220,set_tempo,120,1,0,566037,,,,,,,,,,,,
62220,note_on,40,0,10,,,,,,,,8,,,,78,48
62220,note_on,40,0,2,,,,,,,,0,,,,50,46
62300,note_off,80,0,1,,,,,,,,0,,,,62,64
62300,note_off,80,0,14,,,,,,,,13,,,,38,64
62300,note_off,80,0,10,,,,,,,,8,,,,78,64
62300,note_off,80,0,11,,,,,,,,10,,,,69,64
62300,note_off,80,0,7,,,,,,,,5,,,,62,64
62300,note_off,80,0,4,,,,,,,,2,,,,78,64
62300,note_off,80,0,6,,,,,,,,4,,,,69,64
62300,note_off,80,0,3,,,,,,,,1,,,,78,64
62300,note_off,80,0,2,,,,,,,,0,,,,50,64
62300,note_off,80,0,8,,,,,,,,6,,,,50,64
62300,note_off,80,0,13,,,,,,,,12,,,,50,64
62300,note_off,80,0,9,,,,,,,,7,,,,38,64
62300,note_off,80,0,12,,,,,,,,11,,,,62,64
62340,note_on,40,0,14,,,,,,,,13,,,,26,46
62340,note_on,40,0,3,,,,,,,,1,,,,69,59
62340,note_on,40,0,11,,,,,,,,10,,,,62,46
62340,note_on,40,0,2,,,,,,,,0,,,,38,44
62340,set_tempo,120,1,0,576923,,,,,,,,,,,,
62340,note_on,40,0,9,,,,,,,,7,,,,26,46
62340,note_on,40,0,10,,,,,,,,8,,,,69,46
62340,note_on,40,0,4,,,,,,,,2,,,,69,44
62340,note_on,40,0,1,,,,,,,,0,,,,50,44
62340,note_on,40,0,13,,,,,,,,12,,,,38,46
62340,note_on,40,0,8,,,,,,,,6,,,,38,46
62340,note_on,40,0,7,,,,,,,,5,,,,54,46
62340,note_on,40,0,6,,,,,,,,4,,,,62,54
62340,note_on,40,0,12,,,,,,,,11,,,,54,46
62420,note_off,80,0,12,,,,,,,,11,,,,54,64
62420,note_off,80,0,1,,,,,,,,0,,,,50,64
62420,note_off,80,0,9,,,,,,,,7,,,,26,64
62420,note_off,80,0,2,,,,,,,,0,,,,38,64
62420,note_off,80,0,8,,,,,,,,6,,,,38,64
62420,note_off,80,0,4,,,,,,,,2,,,,69,64
62420,note_off,80,0,13,,,,,,,,12,,,,38,64
62420,note_off,80,0,3,,,,,,,,1,,,,69,64
62420,note_off,80,0,6,,,,,,,,4,,,,62,64
62420,note_off,80,0,7,,,,,,,,5,,,,54,64
62420,note_off,80,0,10,,,,,,,,8,,,,69,64
62420,note_off,80,0,14,,,,,,,,13,,,,26,64
62420,note_off,80,0,11,,,,,,,,10,,,,62,64
62460,note_on,40,0,6,,,,,,,,4,,,,69,53
62460,note_on,40,0,10,,,,,,,,8,,,,78,44
62460,note_on,40,0,1,,,,,,,,0,,,,62,42
62460,note_on,40,0,9,,,,,,,,7,,,,38,44
62460,note_on,40,0,12,,,,,,,,11,,,,62,44
62460,note_on,40,0,14,,,,,,,,13,,,,38,44
62460,note_on,40,0,2,,,,,,,,0,,,,50,42
62460,note_on,40,0,8,,,,,,,,6,,,,50,44
62460,note_on,40,0,4,,,,,,,,2,,,,78,42
62460,set_tempo,120,1,0,588235,,,,,,,,,,,,
62460,note_on,40,0,3,,,,,,,,1,,,,78,57
62460,note_on,40,0,13,,,,,,,,12,,,,50,44
62460,note_on,40,0,11,,,,,,,,10,,,,69,44
62460,note_on,40,0,7,,,,,,,,5,,,,62,44
62540,note_off,80,0,8,,,,,,,,6,,,,50,64
62540,note_off,80,0,14,,,,,,,,13,,,,38,64
62540,note_off,80,0,13,,,,,,,,12,,,,50,64
62540,note_off,80,0,3,,,,,,,,1,,,,78,64
62540,note_off,80,0,11,,,,,,,,10,,,,69,64
62540,note_off,80,0,4,,,,,,,,2,,,,78,64
62540,note_off,80,0,2,,,,,,,,0,,,,50,64
62540,note_off,80,0,9,,,,,,,,7,,,,38,64
62540,note_off,80,0,7,,,,,,,,5,,,,62,64
62540,note_off,80,0,10,,,,,,,,8,,,,78,64
62540,note_off,80,0,1,,,,,,,,0,,,,62,64
62540,note_off,80,0,12,,,,,,,,11,,,,62,64
62540,note_off,80,0,6,,,,,,,,4,,,,69,64
62580,note_on,40,0,6,,,,,,,,4,,,,69,52
62580,note_on,40,0,13,,,,,,,,12,,,,50,42
62580,note_on,40,0,12,,,,,,,,11,,,,62,42
62580,note_on,40,0,14,,,,,,,,13,,,,38,42
62580,note_on,40,0,4,,,,,,,,2,,,,78,40
62580,note_on,40,0,7,,,,,,,,5,,,,62,42
62580,note_on,40,0,2,,,,,,,,0,,,,50,40
62580,note_on,40,0,3,,,,,,,,1,,,,78,55
62580,note_on,40,0,8,,,,,,,,6,,,,50,42
62580,note_on,40,0,1,,,,,,,,0,,,,62,40
62580,note_on,40,0,11,,,,,,,,10,,,,69,42
62580,set_tempo,120,1,0,600000,,,,,,,,,,,,
62580,note_on,40,0,10,,,,,,,,8,,,,78,42
62580,note_on,40,0,9,,,,,,,,7,,,,38,42
62640,time_signature,60,1,0,,3,8,36,8,,,,,,,,
62660,note_off,80,0,14,,,,,,,,13,,,,38,64
62660,note_off,80,0,1,,,,,,,,0,,,,62,64
62660,note_off,80,0,12,,,,,,,,11,,,,62,64
62660,note_off,80,0,10,,,,,,,,8,,,,78,64
62660,note_off,80,0,8,,,,,,,,6,,,,50,64
62660,note_off,80,0,13,,,,,,,,12,,,,50,64
62660,note_off,80,0,9,,,,,,,,7,,,,38,64
62660,note_off,80,0,7,,,,,,,,5,,,,62,64
62660,note_off,80,0,6,,,,,,,,4,,,,69,64
62660,note_off,80,0,11,,,,,,,,10,,,,69,64
62660,note_off,80,0,3,,,,,,,,1,,,,78,64
62660,note_off,80,0,4,,,,,,,,2,,,,78,64
62660,note_off,80,0,2,,,,,,,,0,,,,50,64
62700,note_on,40,0,7,,,,,,,,5,,,,62,40
62700,note_on,40,0,9,,,,,,,,7,,,,38,40
62700,note_on,40,0,10,,,,,,,,8,,,,78,40
62700,note_on,40,0,11,,,,,,,,10,,,,69,40
62700,note_on,40,0,1,,,,,,,,0,,,,62,38
62700,note_on,40,0,8,,,,,,,,6,,,,50,40
62700,note_on,40,0,3,,,,,,,,1,,,,78,53
62700,set_tempo,60,1,0,612244,,,,,,,,,,,,
62700,note_on,40,0,6,,,,,,,,4,,,,69,51
62700,note_on,40,0,13,,,,,,,,12,,,,50,40
62700,note_on,40,0,12,,,,,,,,11,,,,62,40
62700,note_on,40,0,14,,,,,,,,13,,,,38,40
62700,note_on,40,0,4,,,,,,,,2,,,,78,38
62700,note_on,40,0,2,,,,,,,,0,,,,50,38
62780,note_off,80,0,3,,,,,,,,1,,,,78,64
62780,note_off,80,0,7,,,,,,,,5,,,,62,64
62780,note_off,80,0,10,,,,,,,,8,,,,78,64
62780,note_off,80,0,9,,,,,,,,7,,,,38,64
62780,note_off,80,0,6,,,,,,,,4,,,,69,64
62780,note_off,80,0,2,,,,,,,,0,,,,50,64
62780,note_off,80,0,11,,,,,,,,10,,,,69,64
62780,note_off,80,0,8,,,,,,,,6,,,,50,64
62780,note_off,80,0,14,,,,,,,,13,,,,38,64
62780,note_off,80,0,4,,,,,,,,2,,,,78,64
62780,note_off,80,0,13,,,,,,,,12,,,,50,64
62780,note_off,80,0,12,,,,,,,,11,,,,62,64
62780,note_off,80,0,1,,,,,,,,0,,,,62,64
62820,note_on,40,0,4,,,,,,,,2,,,,78,36
62820,note_on,40,0,2,,,,,,,,0,,,,50,36
62820,note_on,40,0,13,,,,,,,,12,,,,50,38
62820,note_on,40,0,6,,,,,,,,4,,,,69,50
62820,set_tempo,120,1,0,625000,,,,,,,,,,,,
62820,note_on,40,0,8,,,,,,,,6,,,,50,38
62820,note_on,40,0,14,,,,,,,,13,,,,38,38
62820,note_on,40,0,1,,,,,,,,0,,,,62,36
62820,note_on,40,0,10,,,,,,,,8,,,,78,38
62820,note_on,40,0,12,,,,,,,,11,,,,62,38
62820,note_on,40,0,3,,,,,,,,1,,,,78,51
62820,note_on,40,0,9,,,,,,,,7,,,,38,38
62820,note_on,40,0,7,,,,,,,,5,,,,62,38
62820,note_on,40,0,11,,,,,,,,10,,,,69,38
62900,note_off,80,0,6,,,,,,,,4,,,,69,64
62900,note_off,80,0,10,,,,,,,,8,,,,78,64
62900,note_off,80,0,12,,,,,,,,11,,,,62,64
62900,note_off,80,0,11,,,,,,,,10,,,,69,64
62900,note_off,80,0,8,,,,,,,,6,,,,50,64
62900,note_off,80,0,2,,,,,,,,0,,,,50,64
62900,note_off,80,0,13,,,,,,,,12,,,,50,64
62900,note_off,80,0,9,,,,,,,,7,,,,38,64
62900,note_off,80,0,3,,,,,,,,1,,,,78,64
62900,note_off,80,0,1,,,,,,,,0,,,,62,64
62900,note_off,80,0,14,,,,,,,,13,,,,38,64
62900,note_off,80,0,4,,,,,,,,2,,,,78,64
62900,note_off,80,0,7,,,,,,,,5,,,,62,64
62940,note_on,40,0,11,,,,,,,,10,,,,69,36
62940,note_on,40,0,6,,,,,,,,4,,,,69,49
62940,note_on,40,0,3,,,,,,,,1,,,,78,49
62940,set_tempo,120,1,0,638297,,,,,,,,,,,,
62940,note_on,40,0,9,,,,,,,,7,,,,38,36
62940,note_on,40,0,4,,,,,,,,2,,,,78,34
62940,note_on,40,0,2,,,,,,,,0,,,,50,34
62940,note_on,40,0,8,,,,,,,,6,,,,50,36
62940,note_on,40,0,10,,,,,,,,8,,,,78,36
62940,note_on,40,0,14,,,,,,,,13,,,,38,36
62940,note_on,40,0,12,,,,,,,,11,,,,62,36
62940,note_on,40,0,1,,,,,,,,0,,,,62,34
62940,note_on,40,0,7,,,,,,,,5,,,,62,36
62940,note_on,40,0,13,,,,,,,,12,,,,50,36
63020,note_off,80,0,8,,,,,,,,6,,,,50,64
63020,note_off,80,0,14,,,,,,,,13,,,,38,64
63020,note_off,80,0,3,,,,,,,,1,,,,78,64
63020,note_off,80,0,1,,,,,,,,0,,,,62,64
63020,note_off,80,0,13,,,,,,,,12,,,,50,64
63020,note_off,80,0,7,,,,,,,,5,,,,62,64
63020,note_off,80,0,2,,,,,,,,0,,,,50,64
63020,note_off,80,0,12,,,,,,,,11,,,,62,64
63020,note_off,80,0,11,,,,,,,,10,,,,69,64
63020,note_off,80,0,6,,,,,,,,4,,,,69,64
63020,note_off,80,0,4,,,,,,,,2,,,,78,64
63020,note_off,80,0,9,,,,,,,,7,,,,38,64
63020,note_off,80,0,10,,,,,,,,8,,,,78,64
63060,note_on,40,0,6,,,,,,,,4,,,,66,48
63060,note_on,40,0,7,,,,,,,,5,,,,57,34
63060,set_tempo,120,1,0,652173,,,,,,,,,,,,
63060,note_on,40,0,8,,,,,,,,6,,,,38,34
63060,note_on,40,0,14,,,,,,,,13,,,,26,34
63060,note_on,40,0,1,,,,,,,,0,,,,50,32
63060,note_on,40,0,13,,,,,,,,12,,,,38,34
63060,note_on,40,0,2,,,,,,,,0,,,,38,32
63060,note_on,40,0,4,,,,,,,,2,,,,74,32
63060,note_on,40,0,10,,,,,,,,8,,,,74,34
63060,note_on,40,0,12,,,,,,,,11,,,,57,34
63060,note_on,40,0,11,,,,,,,,10,,,,66,34
63060,note_on,40,0,3,,,,,,,,1,,,,74,47
63060,note_on,40,0,9,,,,,,,,7,,,,26,34
63140,note_off,80,0,7,,,,,,,,5,,,,57,64
63140,note_off,80,0,4,,,,,,,,2,,,,74,64
63140,note_off,80,0,6,,,,,,,,4,,,,66,64
63140,note_off,80,0,9,,,,,,,,7,,,,26,64
63140,note_off,80,0,12,,,,,,,,11,,,,57,64
63140,note_off,80,0,2,,,,,,,,0,,,,38,64
63140,note_off,80,0,11,,,,,,,,10,,,,66,64
63140,note_off,80,0,13,,,,,,,,12,,,,38,64
63140,note_off,80,0,1,,,,,,,,0,,,,50,64
63140,note_off,80,0,3,,,,,,,,1,,,,74,64
63140,note_off,80,0,14,,,,,,,,13,,,,26,64
63140,note_off,80,0,10,,,,,,,,8,,,,74,64
63140,note_off,80,0,8,,,,,,,,6,,,,38,64
63180,note_on,40,0,10,,,,,,,,8,,,,78,32
63180,note_on,40,0,7,,,,,,,,5,,,,62,32
63180,note_on,40,0,13,,,,,,,,12,,,,50,32
63180,note_on,40,0,2,,,,,,,,0,,,,50,30
63180,note_on,40,0,1,,,,,,,,0,,,,62,30
63180,note_on,40,0,4,,,,,,,,2,,,,78,30
63180,note_on,40,0,12,,,,,,,,11,,,,62,32
63180,note_on,40,0,6,,,,,,,,4,,,,69,47
63180,set_tempo,120,1,0,666666,,,,,,,,,,,,
63180,note_on,40,0,14,,,,,,,,13,,,,38,32
63180,note_on,40,0,3,,,,,,,,1,,,,78,45
63180,note_on,40,0,11,,,,,,,,10,,,,69,32
63180,note_on,40,0,8,,,,,,,,6,,,,50,32
63180,note_on,40,0,9,,,,,,,,7,,,,38,32
63260,note_off,80,0,6,,,,,,,,4,,,,69,64
63260,note_off,80,0,7,,,,,,,,5,,,,62,64
63260,note_off,80,0,13,,,,,,,,12,,,,50,64
63260,note_off,80,0,14,,,,,,,,13,,,,38,64
63260,note_off,80,0,8,,,,,,,,6,,,,50,64
63260,note_off,80,0,2,,,,,,,,0,,,,50,64
63260,note_off,80,0,9,,,,,,,,7,,,,38,64
63260,note_off,80,0,1,,,,,,,,0,,,,62,64
63260,note_off,80,0,11,,,,,,,,10,,,,69,64
63260,note_off,80,0,4,,,,,,,,2,,,,78,64
63260,note_off,80,0,3,,,,,,,,1,,,,78,64
63260,note_off,80,0,12,,,,,,,,11,,,,62,64
63260,note_off,80,0,10,,,,,,,,8,,,,78,64
63300,note_on,1080,0,15,,,,,,,,14,,,,31,30
63300,note_on,40,0,9,,,,,,,,7,,,,31,30
63300,note_on,40,0,7,,,,,,,,5,,,,62,30
63300,set_tempo,120,1,0,1500000,,,,,,,,,,,,
63300,note_on,40,0,11,,,,,,,,10,,,,70,30
63300,note_on,40,0,10,,,,,,,,8,,,,79,30
63300,note_on,40,0,12,,,,,,,,11,,,,62,30
63300,note_on,40,0,14,,,,,,,,13,,,,31,30
63300,note_on,40,0,6,,,,,,,,4,,,,70,45
63300,note_on,40,0,8,,,,,,,,6,,,,43,30
63300,note_on,40560,0,5,,,,,,,,3,,,,79,45
63300,note_on,40,0,13,,,,,,,,12,,,,43,30
63300,note_on,40,0,2,,,,,,,,0,,,,43,30
63415,note_off,115,0,15,,,,,,,,14,,,,31,64
63420,note_off,120,0,10,,,,,,,,8,,,,79,64
63420,note_off,120,0,13,,,,,,,,12,,,,43,64
63420,note_off,120,0,2,,,,,,,,0,,,,43,64
63420,note_off,120,0,6,,,,,,,,4,,,,70,64
63420,note_off,120,0,9,,,,,,,,7,,,,31,64
63420,note_off,120,0,5,,,,,,,,3,,,,79,64
63420,note_off,120,0,12,,,,,,,,11,,,,62,64
63420,note_off,120,0,8,,,,,,,,6,,,,43,64
63420,note_off,120,0,11,,,,,,,,10,,,,70,64
63420,note_off,120,0,14,,,,,,,,13,,,,31,64
63420,note_off,120,0,7,,,,,,,,5,,,,62,64
63540,note_on,120,0,13,,,,,,,,12,,,,55,30
63540,note_on,120,0,2,,,,,,,,0,,,,55,30
63540,note_on,120,0,5,,,,,,,,3,,,,82,45
63540,note_on,120,0,14,,,,,,,,13,,,,43,30
63540,note_on,120,0,12,,,,,,,,11,,,,62,30
63540,note_on,120,0,8,,,,,,,,6,,,,55,30
63540,note_on,120,0,7,,,,,,,,5,,,,62,30
63540,note_on,120,0,11,,,,,,,,10,,,,79,30
63540,note_on,120,0,6,,,,,,,,4,,,,79,45
63540,note_on,125,0,15,,,,,,,,14,,,,43,30
63540,note_on,120,0,9,,,,,,,,7,,,,43,30
63540,note_on,120,0,10,,,,,,,,8,,,,82,30
63775,note_off,235,0,2,,,,,,,,0,,,,55,64
63775,note_off,235,0,15,,,,,,,,14,,,,43,64
63780,note_off,240,0,8,,,,,,,,6,,,,55,64
63780,note_off,240,0,6,,,,,,,,4,,,,79,64
63780,note_on,0,0,7,,,,,,,,5,,,,62,30
63780,note_on,0,0,6,,,,,,,,4,,,,78,45
63780,note_off,240,0,7,,,,,,,,5,,,,62,64
63780,note_off,240,0,11,,,,,,,,10,,,,79,64
63780,note_on,0,0,13,,,,,,,,12,,,,50,30
63780,note_off,240,0,13,,,,,,,,12,,,,55,64
63780,note_on,0,0,11,,,,,,,,10,,,,78,30
63780,note_on,0,0,10,,,,,,,,8,,,,81,30
63780,note_on,0,0,8,,,,,,,,6,,,,50,30
63780,note_off,240,0,5,,,,,,,,3,,,,82,64
63780,note_on,0,0,5,,,,,,,,3,,,,81,45
63780,note_on,0,0,14,,,,,,,,13,,,,38,30
63780,note_off,240,0,9,,,,,,,,7,,,,43,64
63780,note_on,5,0,15,,,,,,,,14,,,,38,30
63780,note_off,240,0,14,,,,,,,,13,,,,43,64
63780,note_off,240,0,10,,,,,,,,8,,,,82,64
63780,note_on,0,0,9,,,,,,,,7,,,,38,30
63780,note_on,5,0,2,,,,,,,,0,,,,50,30
63780,note_on,0,0,12,,,,,,,,11,,,,62,30
63780,note_off,240,0,12,,,,,,,,11,,,,62,64
64015,note_off,235,0,15,,,,,,,,14,,,,38,64
64015,note_off,235,0,2,,,,,,,,0,,,,50,64
64020,note_off,240,0,13,,,,,,,,12,,,,50,64
64020,note_off,240,0,11,,,,,,,,10,,,,78,64
64020,note_off,240,0,12,,,,,,,,11,,,,62,64
64020,note_off,240,0,8,,,,,,,,6,,,,50,64
64020,note_off,240,0,14,,,,,,,,13,,,,38,64
64020,note_off,240,0,10,,,,,,,,8,,,,81,64
64020,note_off,240,0,6,,,,,,,,4,,,,78,64
64020,note_off,240,0,9,,,,,,,,7,,,,38,64
64020,note_off,240,0,5,,,,,,,,3,,,,81,64
64020,note_off,240,0,7,,,,,,,,5,,,,62,64
64260,note_on,240,0,5,,,,,,,,3,,,,70,51
64260,note_on,240,0,6,,,,,,,,4,,,,67,51
64260,note_on,240,0,12,,,,,,,,11,,,,62,36
64260,note_on,240,0,8,,,,,,,,6,,,,43,36
64260,note_on,240,0,14,,,,,,,,13,,,,31,36
64260,note_on,240,0,7,,,,,,,,5,,,,62,36
64260,note_on,245,0,2,,,,,,,,0,,,,43,36
64260,note_on,240,0,9,,,,,,,,7,,,,31,36
64260,note_on,240,0,11,,,,,,,,10,,,,67,36
64260,note_on,240,0,13,,,,,,,,12,,,,43,36
64260,note_on,245,0,15,,,,,,,,14,,,,31,36
64260,note_on,240,0,10,,,,,,,,8,,,,70,36
64495,note_off,235,0,2,,,,,,,,0,,,,43,64
64495,note_off,235,0,15,,,,,,,,14,,,,31,64
64500,note_on,0,0,14,,,,,,,,13,,,,26,39
64500,note_off,240,0,9,,,,,,,,7,,,,31,64
64500,note_on,0,0,9,,,,,,,,7,,,,26,39
64500,note_on,5,0,2,,,,,,,,0,,,,38,39
64500,note_off,240,0,6,,,,,,,,4,,,,67,64
64500,note_off,240,0,14,,,,,,,,13,,,,31,64
64500,note_on,0,0,12,,,,,,,,11,,,,62,39
64500,note_off,240,0,12,,,,,,,,11,,,,62,64
64500,note_on,0,0,10,,,,,,,,8,,,,69,39
64500,note_on,5,0,15,,,,,,,,14,,,,26,39
64500,note_off,240,0,11,,,,,,,,10,,,,67,64
64500,note_on,0,0,11,,,,,,,,10,,,,66,39
64500,note_on,0,0,8,,,,,,,,6,,,,38,39
64500,note_off,240,0,8,,,,,,,,6,,,,43,64
64500,note_off,240,0,10,,,,,,,,8,,,,70,64
64500,note_off,240,0,13,,,,,,,,12,,,,43,64
64500,note_on,0,0,13,,,,,,,,12,,,,38,39
64500,note_on,0,0,5,,,,,,,,3,,,,69,54
64500,note_off,240,0,7,,,,,,,,5,,,,62,64
64500,note_on,0,0,7,,,,,,,,5,,,,62,39
64500,note_off,240,0,5,,,,,,,,3,,,,70,64
64500,note_on,0,0,6,,,,,,,,4,,,,66,54
64735,note_off,235,0,15,,,,,,,,14,,,,26,64
64735,note_off,235,0,2,,,,,,,,0,,,,38,64
64740,note_off,240,0,14,,,,,,,,13,,,,26,64
64740,note_off,240,0,6,,,,,,,,4,,,,66,64
64740,note_off,240,0,7,,,,,,,,5,,,,62,64
64740,note_off,240,0,9,,,,,,,,7,,,,26,64
64740,note_off,240,0,12,,,,,,,,11,,,,62,64
64740,note_off,240,0,8,,,,,,,,6,,,,38,64
64740,note_off,240,0,13,,,,,,,,12,,,,38,64
64740,note_off,240,0,5,,,,,,,,3,,,,69,64
64740,note_off,240,0,10,,,,,,,,8,,,,69,64
64740,note_off,240,0,11,,,,,,,,10,,,,66,64
64980,note_on,240,0,12,,,,,,,,11,,,,62,45
64980,note_on,240,0,6,,,,,,,,4,,,,79,60
64980,note_on,240,0,14,,,,,,,,13,,,,43,45
64980,note_on,240,0,7,,,,,,,,5,,,,62,45
64980,note_on,240,0,5,,,,,,,,3,,,,82,60
64980,note_on,245,0,15,,,,,,,,14,,,,43,45
64980,note_on,240,0,8,,,,,,,,6,,,,55,45
64980,note_on,240,0,9,,,,,,,,7,,,,43,45
64980,note_on,240,0,10,,,,,,,,8,,,,82,45
64980,note_on,245,0,2,,,,,,,,0,,,,55,45
64980,note_on,240,0,11,,,,,,,,10,,,,79,45
64980,note_on,240,0,13,,,,,,,,12,,,,55,45
65100,note_on,0,0,10,,,,,,,,8,,,,84,45
65100,note_off,120,0,11,,,,,,,,10,,,,79,64
65100,note_on,0,0,11,,,,,,,,10,,,,81,45
65100,note_on,0,0,6,,,,,,,,4,,,,81,60
65100,note_off,120,0,6,,,,,,,,4,,,,79,64
65100,note_off,120,0,5,,,,,,,,3,,,,82,64
65100,note_on,0,0,5,,,,,,,,3,,,,84,60
65100,note_off,120,0,10,,,,,,,,8,,,,82,64
65215,note_off,235,0,15,,,,,,,,14,,,,43,64
65215,note_off,235,0,2,,,,,,,,0,,,,55,64
65215,note_off,115,0,11,,,,,,,,10,,,,81,64
65215,note_off,115,0,10,,,,,,,,8,,,,84,64
65215,note_off,115,0,5,,,,,,,,3,,,,84,64
65215,note_off,115,0,6,,,,,,,,4,,,,81,64
65220,note_off,240,0,13,,,,,,,,12,,,,55,64
65220,note_on,0,0,13,,,,,,,,12,,,,43,45
65220,note_on,5,0,15,,,,,,,,14,,,,31,45
65220,note_on,0,0,7,,,,,,,,5,,,,62,45
65220,note_on,0,0,14,,,,,,,,13,,,,31,45
65220,note_off,240,0,7,,,,,,,,5,,,,62,64
65220,note_on,0,0,9,,,,,,,,7,,,,31,45
65220,note_on,5,0,6,,,,,,,,4,,,,82,60
65220,note_on,5,0,10,,,,,,,,8,,,,86,45
65220,note_on,5,0,2,,,,,,,,0,,,,43,45
65220,note_on,5,0,11,,,,,,,,10,,,,82,45
65220,note_on,0,0,8,,,,,,,,6,,,,43,45
65220,note_off,240,0,14,,,,,,,,13,,,,43,64
65220,note_on,5,0,5,,,,,,,,3,,,,86,60
65220,note_on,0,0,12,,,,,,,,11,,,,62,45
65220,note_off,240,0,12,,,,,,,,11,,,,62,64
65220,note_off,240,0,9,,,,,,,,7,,,,43,64
65220,note_off,240,0,8,,,,,,,,6,,,,55,64
65455,note_off,235,0,2,,,,,,,,0,,,,43,64
65455,note_off,235,0,15,,,,,,,,14,,,,31,64
65460,note_off,240,0,6,,,,,,,,4,,,,82,64
65460,note_off,240,0,11,,,,,,,,10,,,,82,64
65460,note_off,240,0,10,,,,,,,,8,,,,86,64
65460,note_off,240,0,7,,,,,,,,5,,,,62,64
65460,note_off,240,0,12,,,,,,,,11,,,,62,64
65460,note_off,240,0,8,,,,,,,,6,,,,43,64
65460,note_off,240,0,14,,,,,,,,13,,,,31,64
65460,note_off,240,0,13,,,,,,,,12,,,,43,64
65460,note_off,240,0,9,,,,,,,,7,,,,31,64
65460,note_off,240,0,5,,,,,,,,3,,,,86,64
65700,note_on,240,0,12,,,,,,,,11,,,,63,42
65700,note_on,240,0,5,,,,,,,,3,,,,80,57
65700,note_on,240,0,8,,,,,,,,6,,,,60,42
65700,note_on,245,0,15,,,,,,,,14,,,,48,42
65700,note_on,240,0,14,,,,,,,,13,,,,48,42
65700,note_on,240,0,11,,,,,,,,10,,,,72,42
65700,note_on,240,0,9,,,,,,,,7,,,,48,42
65700,note_on,240,0,13,,,,,,,,12,,,,60,42
65700,note_on,240,0,7,,,,,,,,5,,,,63,42
65700,note_on,240,0,10,,,,,,,,8,,,,80,42
65700,note_on,240,0,6,,,,,,,,4,,,,72,57
65700,note_on,245,0,2,,,,,,,,0,,,,60,42
65820,note_off,120,0,11,,,,,,,,10,,,,72,64
65820,note_off,120,0,5,,,,,,,,3,,,,80,64
65820,note_on,0,0,5,,,,,,,,3,,,,82,56
65820,note_on,0,0,11,,,,,,,,10,,,,74,41
65820,note_on,0,0,10,,,,,,,,8,,,,82,41
65820,note_off,120,0,10,,,,,,,,8,,,,80,64
65820,note_off,120,0,6,,,,,,,,4,,,,72,64
65820,note_on,0,0,6,,,,,,,,4,,,,74,56
65935,note_off,115,0,10,,,,,,,,8,,,,82,64
65935,note_off,235,0,2,,,,,,,,0,,,,60,64
65935,note_off,235,0,15,,,,,,,,14,,,,48,64
65935,note_off,115,0,11,,,,,,,,10,,,,74,64
65935,note_off,115,0,5,,,,,,,,3,,,,82,64
65935,note_off,115,0,6,,,,,,,,4,,,,74,64
65940,note_on,5,0,2,,,,,,,,0,,,,48,39
65940,note_on,5,0,10,,,,,,,,8,,,,84,40
65940,note_off,240,0,12,,,,,,,,11,,,,63,64
65940,note_on,0,0,12,,,,,,,,11,,,,63,39
65940,note_off,240,0,13,,,,,,,,12,,,,60,64
65940,note_off,240,0,9,,,,,,,,7,,,,48,64
65940,note_on,5,0,11,,,,,,,,10,,,,75,40
65940,note_off,240,0,8,,,,,,,,6,,,,60,64
65940,note_on,0,0,8,,,,,,,,6,,,,48,39
65940,note_on,5,0,5,,,,,,,,3,,,,84,55
65940,note_on,5,0,6,,,,,,,,4,,,,75,55
65940,note_on,0,0,9,,,,,,,,7,,,,36,39
65940,note_on,0,0,13,,,,,,,,12,,,,48,39
65940,note_on,0,0,7,,,,,,,,5,,,,63,39
65940,note_off,240,0,7,,,,,,,,5,,,,63,64
65940,note_off,240,0,14,,,,,,,,13,,,,48,64
65940,note_on,5,0,15,,,,,,,,14,,,,36,39
65940,note_on,0,0,14,,,,,,,,13,,,,36,39
66175,note_off,235,0,15,,,,,,,,14,,,,36,64
66175,note_off,235,0,2,,,,,,,,0,,,,48,64
66180,note_off,240,0,5,,,,,,,,3,,,,84,64
66180,note_off,240,0,13,,,,,,,,12,,,,48,64
66180,note_off,240,0,11,,,,,,,,10,,,,75,64
66180,note_off,240,0,8,,,,,,,,6,,,,48,64
66180,note_off,240,0,9,,,,,,,,7,,,,36,64
66180,note_off,240,0,14,,,,,,,,13,,,,36,64
66180,set_tempo,2880,1,0,1578947,,,,,,,,,,,,
66180,note_off,240,0,7,,,,,,,,5,,,,63,64
66180,note_off,240,0,6,,,,,,,,4,,,,75,64
66180,note_off,240,0,12,,,,,,,,11,,,,63,64
66180,note_off,240,0,10,,,,,,,,8,,,,84,64
66420,note_on,245,0,15,,,,,,,,14,,,,43,33
66420,note_on,240,0,8,,,,,,,,6,,,,55,33
66420,note_on,240,0,7,,,,,,,,5,,,,62,33
66420,note_on,240,0,9,,,,,,,,7,,,,43,33
66420,note_on,245,0,2,,,,,,,,0,,,,55,33
66420,note_on,240,0,11,,,,,,,,10,,,,70,34
66420,note_on,240,0,13,,,,,,,,12,,,,55,33
66420,note_on,240,0,10,,,,,,,,8,,,,79,34
66420,note_on,240,0,6,,,,,,,,4,,,,70,49
66420,note_on,240,0,5,,,,,,,,3,,,,79,49
66420,note_on,240,0,14,,,,,,,,13,,,,43,33
66420,note_on,240,0,12,,,,,,,,11,,,,62,33
66540,note_off,120,0,5,,,,,,,,3,,,,79,64
66540,note_on,0,0,5,,,,,,,,3,,,,81,48
66540,note_off,120,0,6,,,,,,,,4,,,,70,64
66540,note_off,120,0,11,,,,,,,,10,,,,70,64
66540,note_on,0,0,11,,,,,,,,10,,,,72,32
66540,note_on,0,0,10,,,,,,,,8,,,,81,32
66540,note_on,0,0,6,,,,,,,,4,,,,72,48
66540,note_off,120,0,10,,,,,,,,8,,,,79,64
66655,note_off,115,0,11,,,,,,,,10,,,,72,64
66655,note_off,115,0,5,,,,,,,,3,,,,81,64
66655,note_off,235,0,2,,,,,,,,0,,,,55,64
66655,note_off,235,0,15,,,,,,,,14,,,,43,64
66655,note_off,115,0,10,,,,,,,,8,,,,81,64
66655,note_off,115,0,6,,,,,,,,4,,,,72,64
66660,note_on,0,0,12,,,,,,,,11,,,,62,30
66660,note_on,5,0,6,,,,,,,,4,,,,74,47
66660,note_on,0,0,14,,,,,,,,13,,,,31,30
66660,note_off,240,0,14,,,,,,,,13,,,,43,64
66660,note_off,240,0,12,,,,,,,,11,,,,62,64
66660,note_on,5,0,15,,,,,,,,14,,,,31,30
66660,note_off,240,0,13,,,,,,,,12,,,,55,64
66660,note_off,240,0,9,,,,,,,,7,,,,43,64
66660,note_on,5,0,10,,,,,,,,8,,,,82,30
66660,note_on,0,0,9,,,,,,,,7,,,,31,30
66660,note_off,240,0,8,,,,,,,,6,,,,55,64
66660,note_on,5,0,11,,,,,,,,10,,,,74,30
66660,note_on,0,0,8,,,,,,,,6,,,,43,30
66660,note_on,5,0,5,,,,,,,,3,,,,82,47
66660,note_on,5,0,2,,,,,,,,0,,,,43,30
66660,note_off,240,0,7,,,,,,,,5,,,,62,64
66660,note_on,0,0,13,,,,,,,,12,,,,43,30
66660,note_on,0,0,7,,,,,,,,5,,,,62,30
66895,note_off,235,0,15,,,,,,,,14,,,,31,64
66895,note_off,235,0,2,,,,,,,,0,,,,43,64
66900,note_off,240,0,10,,,,,,,,8,,,,82,64
66900,note_off,240,0,5,,,,,,,,3,,,,82,64
66900,note_off,240,0,14,,,,,,,,13,,,,31,64
66900,set_tempo,720,1,0,1666666,,,,,,,,,,,,
66900,note_off,240,0,8,,,,,,,,6,,,,43,64
66900,note_off,240,0,11,,,,,,,,10,,,,74,64
66900,note_off,240,0,7,,,,,,,,5,,,,62,64
66900,note_off,240,0,12,,,,,,,,11,,,,62,64
66900,note_off,240,0,6,,,,,,,,4,,,,74,64
66900,note_off,240,0,9,,,,,,,,7,,,,31,64
66900,note_off,240,0,13,,,,,,,,12,,,,43,64
67140,note_on,240,0,11,,,,,,,,10,,,,69,22
67140,note_on,240,0,10,,,,,,,,8,,,,78,22
67140,note_on,245,0,2,,,,,,,,0,,,,50,22
67140,note_on,240,0,13,,,,,,,,12,,,,50,22
67140,note_on,240,0,5,,,,,,,,3,,,,78,41
67140,note_on,240,0,7,,,,,,,,5,,,,66,22
67140,note_on,240,0,6,,,,,,,,4,,,,69,41
67140,note_on,240,0,9,,,,,,,,7,,,,38,22
67140,note_on,245,0,15,,,,,,,,14,,,,38,22
67140,note_on,240,0,12,,,,,,,,11,,,,66,22
67140,note_on,240,0,14,,,,,,,,13,,,,38,22
67140,note_on,240,0,8,,,,,,,,6,,,,50,22
67260,note_on,0,0,10,,,,,,,,8,,,,79,20
67260,note_off,120,0,10,,,,,,,,8,,,,78,64
67260,note_on,0,0,11,,,,,,,,10,,,,70,20
67260,note_off,120,0,6,,,,,,,,4,,,,69,64
67260,note_on,0,0,6,,,,,,,,4,,,,70,40
67260,note_off,120,0,11,,,,,,,,10,,,,69,64
67260,note_off,120,0,5,,,,,,,,3,,,,78,64
67260,note_on,0,0,5,,,,,,,,3,,,,79,40
67375,note_off,115,0,6,,,,,,,,4,,,,70,64
67375,note_off,235,0,15,,,,,,,,14,,,,38,64
67375,note_off,115,0,11,,,,,,,,10,,,,70,64
67375,note_off,235,0,2,,,,,,,,0,,,,50,64
67375,note_off,115,0,5,,,,,,,,3,,,,79,64
67375,note_off,115,0,10,,,,,,,,8,,,,79,64
67380,note_off,240,0,9,,,,,,,,7,,,,38,64
67380,note_on,5,0,15,,,,,,,,14,,,,26,18
67380,note_off,240,0,12,,,,,,,,11,,,,66,64
67380,note_on,0,0,13,,,,,,,,12,,,,38,18
67380,note_on,0,0,14,,,,,,,,13,,,,26,18
67380,note_on,0,0,8,,,,,,,,6,,,,38,18
67380,note_off,240,0,8,,,,,,,,6,,,,50,64
67380,note_off,240,0,7,,,,,,,,5,,,,66,64
67380,note_on,0,0,7,,,,,,,,5,,,,66,18
67380,note_off,240,0,14,,,,,,,,13,,,,38,64
67380,note_on,0,0,9,,,,,,,,7,,,,26,18
67380,note_on,5,0,11,,,,,,,,10,,,,72,18
67380,note_on,5,0,5,,,,,,,,3,,,,81,38
67380,note_on,5,0,10,,,,,,,,8,,,,81,18
67380,note_off,240,0,13,,,,,,,,12,,,,50,64
67380,note_on,5,0,2,,,,,,,,0,,,,38,18
67380,note_on,0,0,12,,,,,,,,11,,,,66,18
67380,note_on,5,0,6,,,,,,,,4,,,,72,38
67615,note_off,235,0,15,,,,,,,,14,,,,26,64
67615,note_off,235,0,2,,,,,,,,0,,,,38,64
67620,note_off,240,0,13,,,,,,,,12,,,,38,64
67620,note_off,240,0,11,,,,,,,,10,,,,72,64
67620,note_off,240,0,12,,,,,,,,11,,,,66,64
67620,note_off,240,0,6,,,,,,,,4,,,,72,64
67620,note_off,240,0,14,,,,,,,,13,,,,26,64
67620,note_off,240,0,7,,,,,,,,5,,,,66,64
67620,note_off,240,0,8,,,,,,,,6,,,,38,64
67620,note_off,240,0,10,,,,,,,,8,,,,81,64
67620,note_off,240,0,9,,,,,,,,7,,,,26,64
67620,set_tempo,720,1,0,1764705,,,,,,,,,,,,
67620,note_off,240,0,5,,,,,,,,3,,,,81,64
67860,note_on,245,0,15,,,,,,,,14,,,,31,10
67860,note_on,240,0,10,,,,,,,,8,,,,79,10
67860,note_on,240,0,6,,,,,,,,4,,,,70,30
67860,note_on,240,0,11,,,,,,,,10,,,,70,10
67860,note_on,240,0,12,,,,,,,,11,,,,62,10
67860,note_on,240,0,9,,,,,,,,7,,,,31,10
67860,note_on,245,0,2,,,,,,,,0,,,,43,10
67860,note_on,240,0,5,,,,,,,,3,,,,79,30
67860,note_on,240,0,13,,,,,,,,12,,,,43,10
67860,note_on,240,0,8,,,,,,,,6,,,,43,10
67860,note_on,240,0,7,,,,,,,,5,,,,62,10
67860,note_on,240,0,14,,,,,,,,13,,,,31,10
68260,note_off,400,0,2,,,,,,,,0,,,,43,64
68260,note_off,400,0,15,,,,,,,,14,,,,31,64
68340,note_off,480,0,10,,,,,,,,8,,,,79,64
68340,note_off,480,0,13,,,,,,,,12,,,,43,64
68340,note_off,480,0,12,,,,,,,,11,,,,62,64
68340,note_off,480,0,5,,,,,,,,3,,,,79,64
68340,note_off,480,0,6,,,,,,,,4,,,,70,64
68340,note_off,480,0,11,,,,,,,,10,,,,70,64
68340,note_off,480,0,9,,,,,,,,7,,,,31,64
68340,note_off,480,0,14,,,,,,,,13,,,,31,64
68340,note_off,480,0,8,,,,,,,,6,,,,43,64
68340,note_off,480,0,7,,,,,,,,5,,,,62,64
68700,note_on,360,0,9,,,,,,,,7,,,,31,30
68700,set_tempo,1080,1,0,1500000,,,,,,,,,,,,
68700,note_on,360,0,14,,,,,,,,13,,,,31,30
68700,note_on,5440,0,4,,,,,,,,2,,,,74,30
68700,note_on,5440,0,3,,,,,,,,1,,,,74,45
68700,note_on,360,0,13,,,,,,,,12,,,,43,30
68700,note_on,360,0,8,,,,,,,,6,,,,43,30
69055,note_off,355,0,3,,,,,,,,1,,,,74,64
69055,note_off,355,0,4,,,,,,,,2,,,,74,64
69060,note_on,5,0,3,,,,,,,,1,,,,75,45
69060,note_on,5,0,4,,,,,,,,2,,,,75,30
69060,set_tempo,360,1,0,1578947,,,,,,,,,,,,
69180,note_off,120,0,3,,,,,,,,1,,,,75,64
69180,note_on,0,0,3,,,,,,,,1,,,,74,45
69180,note_on,0,0,4,,,,,,,,2,,,,74,30
69180,note_off,120,0,4,,,,,,,,2,,,,75,64
69300,note_off,120,0,3,,,,,,,,1,,,,74,64
69300,note_on,0,0,3,,,,,,,,1,,,,75,45
69300,note_on,0,0,4,,,,,,,,2,,,,75,30
69300,note_off,120,0,4,,,,,,,,2,,,,74,64
69420,note_on,0,0,4,,,,,,,,2,,,,74,30
69420,note_off,120,0,4,,,,,,,,2,,,,75,64
69420,note_on,0,0,3,,,,,,,,1,,,,74,45
69420,note_off,120,0,3,,,,,,,,1,,,,75,64
69420,set_tempo,360,1,0,1500000,,,,,,,,,,,,
69775,note_off,355,0,4,,,,,,,,2,,,,74,64
69775,note_off,355,0,3,,,,,,,,1,,,,74,64
69780,note_on,5,0,3,,,,,,,,1,,,,75,45
69780,note_on,5,0,4,,,,,,,,2,,,,75,30
69780,set_tempo,360,1,0,1621621,,,,,,,,,,,,
69900,note_on,0,0,3,,,,,,,,1,,,,74,45
69900,note_on,0,0,4,,,,,,,,2,,,,74,30
69900,note_off,120,0,4,,,,,,,,2,,,,75,64
69900,note_off,120,0,3,,,,,,,,1,,,,75,64
70020,note_on,0,0,4,,,,,,,,2,,,,75,30
70020,note_on,0,0,3,,,,,,,,1,,,,75,45
70020,note_off,120,0,3,,,,,,,,1,,,,74,64
70020,note_off,120,0,4,,,,,,,,2,,,,74,64
70140,note_off,120,0,4,,,,,,,,2,,,,75,64
70140,set_tempo,360,1,0,1500000,,,,,,,,,,,,
70140,note_on,0,0,3,,,,,,,,1,,,,74,45
70140,note_off,120,0,3,,,,,,,,1,,,,75,64
70140,note_on,0,0,4,,,,,,,,2,,,,74,30
70495,note_off,355,0,4,,,,,,,,2,,,,74,64
70495,note_off,355,0,3,,,,,,,,1,,,,74,64
70500,note_on,5,0,3,,,,,,,,1,,,,79,45
70500,set_tempo,360,1,0,1428571,,,,,,,,,,,,
70500,note_on,5,0,4,,,,,,,,2,,,,79,30
70620,note_on,0,0,3,,,,,,,,1,,,,74,45
70620,note_off,120,0,3,,,,,,,,1,,,,79,64
70620,note_on,0,0,4,,,,,,,,2,,,,74,30
70620,set_tempo,120,1,0,1363636,,,,,,,,,,,,
70620,note_off,120,0,4,,,,,,,,2,,,,79,64
70740,set_tempo,120,1,0,1304347,,,,,,,,,,,,
70740,note_on,0,0,4,,,,,,,,2,,,,79,30
70740,note_off,120,0,4,,,,,,,,2,,,,74,64
70740,note_off,120,0,3,,,,,,,,1,,,,74,64
70740,note_on,0,0,3,,,,,,,,1,,,,79,45
70860,set_tempo,120,1,0,1250000,,,,,,,,,,,,
70860,note_off,120,0,3,,,,,,,,1,,,,79,64
70860,note_on,0,0,4,,,,,,,,2,,,,74,30
70860,note_off,120,0,4,,,,,,,,2,,,,79,64
70860,note_on,0,0,3,,,,,,,,1,,,,74,45
70980,note_on,0,0,3,,,,,,,,1,,,,79,45
70980,note_off,120,0,4,,,,,,,,2,,,,74,64
70980,note_off,120,0,3,,,,,,,,1,,,,74,64
70980,note_on,0,0,4,,,,,,,,2,,,,79,30
70980,set_tempo,120,1,0,1200000,,,,,,,,,,,,
71100,note_off,120,0,3,,,,,,,,1,,,,79,64
71100,note_off,120,0,4,,,,,,,,2,,,,79,64
71100,note_on,0,0,4,,,,,,,,2,,,,74,30
71100,note_on,0,0,3,,,,,,,,1,,,,74,45
71220,note_on,0,0,3,,,,,,,,1,,,,79,45
71220,note_off,120,0,3,,,,,,,,1,,,,74,64
71220,note_off,120,0,4,,,,,,,,2,,,,74,64
71220,note_on,0,0,4,,,,,,,,2,,,,79,30
71340,note_on,0,0,3,,,,,,,,1,,,,74,45
71340,note_off,120,0,3,,,,,,,,1,,,,79,64
71340,note_on,0,0,4,,,,,,,,2,,,,74,30
71340,note_off,120,0,4,,,,,,,,2,,,,79,64
71460,note_on,0,0,3,,,,,,,,1,,,,79,45
71460,note_off,120,0,4,,,,,,,,2,,,,74,64
71460,note_on,0,0,4,,,,,,,,2,,,,79,30
71460,note_off,120,0,3,,,,,,,,1,,,,74,64
71500,note_off,2800,0,9,,,,,,,,7,,,,31,64
71500,note_off,2800,0,14,,,,,,,,13,,,,31,64
71500,note_off,2800,0,8,,,,,,,,6,,,,43,64
71500,note_off,2800,0,13,,,,,,,,12,,,,43,64
71580,note_on,80,0,13,,,,,,,,12,,,,43,30
71580,set_tempo,600,1,0,1363636,,,,,,,,,,,,
71580,note_on,3320,0,2,,,,,,,,0,,,,43,30
71580,note_on,8320,0,1,,,,,,,,0,,,,55,30
71580,note_off,120,0,3,,,,,,,,1,,,,79,64
71580,note_on,0,0,3,,,,,,,,1,,,,68,45
71580,note_off,120,0,4,,,,,,,,2,,,,79,64
71580,note_on,0,0,4,,,,,,,,2,,,,68,30
71580,note_on,80,0,9,,,,,,,,7,,,,31,30
71580,note_on,80,0,8,,,,,,,,6,,,,43,30
71580,note_on,80,0,14,,,,,,,,13,,,,31,30
71755,note_off,175,0,2,,,,,,,,0,,,,43,64
71755,note_off,175,0,14,,,,,,,,13,,,,31,64
71755,note_off,175,0,13,,,,,,,,12,,,,43,64
71755,note_off,175,0,9,,,,,,,,7,,,,31,64
71755,note_off,175,0,1,,,,,,,,0,,,,55,64
71755,note_off,175,0,8,,,,,,,,6,,,,43,64
71760,note_on,5,0,14,,,,,,,,13,,,,43,30
71760,note_on,5,0,13,,,,,,,,12,,,,55,30
71760,note_on,5,0,2,,,,,,,,0,,,,55,30
71760,note_on,5,0,9,,,,,,,,7,,,,43,30
71760,note_on,5,0,1,,,,,,,,0,,,,67,30
71760,note_on,5,0,8,,,,,,,,6,,,,55,30
71820,note_on,0,0,1,,,,,,,,0,,,,55,30
71820,note_off,60,0,1,,,,,,,,0,,,,67,64
71820,note_off,60,0,14,,,,,,,,13,,,,43,64
71820,note_on,0,0,4,,,,,,,,2,,,,67,30
71820,note_on,0,0,8,,,,,,,,6,,,,43,30
71820,note_off,240,0,4,,,,,,,,2,,,,68,64
71820,note_off,60,0,8,,,,,,,,6,,,,55,64
71820,note_on,0,0,14,,,,,,,,13,,,,31,30
71820,note_off,60,0,9,,,,,,,,7,,,,43,64
71820,note_off,60,0,2,,,,,,,,0,,,,55,64
71820,note_off,240,0,3,,,,,,,,1,,,,68,64
71820,note_on,0,0,2,,,,,,,,0,,,,43,30
71820,note_on,0,0,3,,,,,,,,1,,,,67,45
71820,note_on,0,0,13,,,,,,,,12,,,,43,30
71820,note_off,60,0,13,,,,,,,,12,,,,55,64
71820,note_on,0,0,9,,,,,,,,7,,,,31,30
72055,note_off,235,0,3,,,,,,,,1,,,,67,64
72055,note_off,235,0,4,,,,,,,,2,,,,67,64
72060,note_on,5,0,3,,,,,,,,1,,,,67,45
72060,note_on,5,0,4,,,,,,,,2,,,,67,30
72240,note_on,0,0,3,,,,,,,,1,,,,79,45
72240,note_off,180,0,3,,,,,,,,1,,,,67,64
72240,note_on,0,0,4,,,,,,,,2,,,,79,30
72240,note_off,180,0,4,,,,,,,,2,,,,67,64
72300,note_off,60,0,3,,,,,,,,1,,,,79,64
72300,note_on,0,0,4,,,,,,,,2,,,,68,30
72300,note_on,0,0,3,,,,,,,,1,,,,68,45
72300,note_off,60,0,4,,,,,,,,2,,,,79,64
72475,note_off,655,0,2,,,,,,,,0,,,,43,64
72475,note_off,655,0,8,,,,,,,,6,,,,43,64
72475,note_off,655,0,14,,,,,,,,13,,,,31,64
72475,note_off,655,0,9,,,,,,,,7,,,,31,64
72475,note_off,655,0,13,,,,,,,,12,,,,43,64
72475,note_off,655,0,1,,,,,,,,0,,,,55,64
72480,note_on,5,0,1,,,,,,,,0,,,,65,30
72480,note_on,5,0,9,,,,,,,,7,,,,41,30
72480,note_on,5,0,2,,,,,,,,0,,,,53,30
72480,note_on,5,0,13,,,,,,,,12,,,,53,30
72480,note_on,5,0,8,,,,,,,,6,,,,53,30
72480,note_on,5,0,14,,,,,,,,13,,,,41,30
72540,note_on,0,0,9,,,,,,,,7,,,,31,30
72540,note_on,0,0,3,,,,,,,,1,,,,67,45
72540,note_off,240,0,3,,,,,,,,1,,,,68,64
72540,note_on,0,0,13,,,,,,,,12,,,,43,30
72540,note_off,60,0,13,,,,,,,,12,,,,53,64
72540,note_on,0,0,4,,,,,,,,2,,,,67,30
72540,note_off,60,0,1,,,,,,,,0,,,,65,64
72540,note_on,0,0,1,,,,,,,,0,,,,55,30
72540,note_off,240,0,4,,,,,,,,2,,,,68,64
72540,note_off,60,0,2,,,,,,,,0,,,,53,64
72540,note_off,60,0,9,,,,,,,,7,,,,41,64
72540,note_on,0,0,2,,,,,,,,0,,,,43,30
72540,note_on,0,0,8,,,,,,,,6,,,,43,30
72540,note_off,60,0,8,,,,,,,,6,,,,53,64
72540,note_off,60,0,14,,,,,,,,13,,,,41,64
72540,note_on,0,0,14,,,,,,,,13,,,,31,30
72775,note_off,235,0,4,,,,,,,,2,,,,67,64
72775,note_off,235,0,3,,,,,,,,1,,,,67,64
72780,note_on,5,0,3,,,,,,,,1,,,,67,45
72780,note_on,5,0,4,,,,,,,,2,,,,67,30
72960,note_off,180,0,3,,,,,,,,1,,,,67,64
72960,note_on,0,0,3,,,,,,,,1,,,,77,45
72960,note_off,180,0,4,,,,,,,,2,,,,67,64
72960,note_on,0,0,4,,,,,,,,2,,,,77,30
73020,note_off,60,0,3,,,,,,,,1,,,,77,64
73020,note_on,0,0,4,,,,,,,,2,,,,68,30
73020,note_off,60,0,4,,,,,,,,2,,,,77,64
73020,note_on,0,0,3,,,,,,,,1,,,,68,45
73195,note_off,655,0,8,,,,,,,,6,,,,43,64
73195,note_off,655,0,1,,,,,,,,0,,,,55,64
73195,note_off,655,0,14,,,,,,,,13,,,,31,64
73195,note_off,655,0,13,,,,,,,,12,,,,43,64
73195,note_off,655,0,2,,,,,,,,0,,,,43,64
73195,note_off,655,0,9,,,,,,,,7,,,,31,64
73200,note_on,5,0,8,,,,,,,,6,,,,51,30
73200,note_on,5,0,9,,,,,,,,7,,,,39,30
73200,note_on,5,0,14,,,,,,,,13,,,,39,30
73200,note_on,5,0,1,,,,,,,,0,,,,63,30
73200,note_on,5,0,13,,,,,,,,12,,,,51,30
73200,note_on,5,0,2,,,,,,,,0,,,,51,30
73260,note_on,0,0,2,,,,,,,,0,,,,43,30
73260,note_on,0,0,14,,,,,,,,13,,,,31,30
73260,note_on,0,0,9,,,,,,,,7,,,,31,30
73260,note_off,60,0,9,,,,,,,,7,,,,39,64
73260,note_off,60,0,1,,,,,,,,0,,,,63,64
73260,note_on,0,0,1,,,,,,,,0,,,,55,30
73260,note_off,60,0,2,,,,,,,,0,,,,51,64
73260,note_off,60,0,14,,,,,,,,13,,,,39,64
73260,note_on,0,0,13,,,,,,,,12,,,,43,30
73260,note_off,240,0,3,,,,,,,,1,,,,68,64
73260,note_off,60,0,8,,,,,,,,6,,,,51,64
73260,note_on,0,0,3,,,,,,,,1,,,,67,45
73260,note_on,0,0,8,,,,,,,,6,,,,43,30
73260,note_off,60,0,13,,,,,,,,12,,,,51,64
73260,note_off,240,0,4,,,,,,,,2,,,,68,64
73260,note_on,0,0,4,,,,,,,,2,,,,67,30
73495,note_off,235,0,3,,,,,,,,1,,,,67,64
73495,note_off,235,0,4,,,,,,,,2,,,,67,64
73500,note_on,5,0,3,,,,,,,,1,,,,67,45
73500,note_on,5,0,4,,,,,,,,2,,,,67,30
73680,note_on,0,0,3,,,,,,,,1,,,,75,45
73680,note_off,180,0,3,,,,,,,,1,,,,67,64
73680,note_off,180,0,4,,,,,,,,2,,,,67,64
73680,note_on,0,0,4,,,,,,,,2,,,,75,30
73740,note_on,0,0,3,,,,,,,,1,,,,68,45
73740,note_off,60,0,3,,,,,,,,1,,,,75,64
73740,note_off,60,0,4,,,,,,,,2,,,,75,64
73740,note_on,0,0,4,,,,,,,,2,,,,68,30
73915,note_off,655,0,9,,,,,,,,7,,,,31,64
73915,note_off,655,0,14,,,,,,,,13,,,,31,64
73915,note_off,655,0,8,,,,,,,,6,,,,43,64
73915,note_off,655,0,1,,,,,,,,0,,,,55,64
73915,note_off,655,0,13,,,,,,,,12,,,,43,64
73915,note_off,655,0,2,,,,,,,,0,,,,43,64
73920,note_on,5,0,14,,,,,,,,13,,,,38,30
73920,note_on,5,0,8,,,,,,,,6,,,,50,30
73920,note_on,5,0,1,,,,,,,,0,,,,62,30
73920,note_on,5,0,13,,,,,,,,12,,,,50,30
73920,note_on,5,0,2,,,,,,,,0,,,,50,30
73920,note_on,5,0,9,,,,,,,,7,,,,38,30
73980,note_off,240,0,3,,,,,,,,1,,,,68,64
73980,note_off,60,0,1,,,,,,,,0,,,,62,64
73980,note_on,0,0,1,,,,,,,,0,,,,55,30
73980,note_on,0,0,8,,,,,,,,6,,,,43,30
73980,note_off,60,0,8,,,,,,,,6,,,,50,64
73980,note_on,0,0,9,,,,,,,,7,,,,31,30
73980,note_off,60,0,9,,,,,,,,7,,,,38,64
73980,note_on,0,0,13,,,,,,,,12,,,,43,30
73980,note_off,60,0,13,,,,,,,,12,,,,50,64
73980,set_tempo,2400,1,0,1428571,,,,,,,,,,,,
73980,note_on,0,0,2,,,,,,,,0,,,,43,30
73980,note_off,60,0,14,,,,,,,,13,,,,38,64
73980,note_off,60,0,2,,,,,,,,0,,,,50,64
73980,note_on,0,0,14,,,,,,,,13,,,,31,30
73980,note_off,240,0,4,,,,,,,,2,,,,68,64
73980,note_on,0,0,4,,,,,,,,2,,,,67,30
73980,note_on,0,0,3,,,,,,,,1,,,,67,45
74215,note_off,235,0,3,,,,,,,,1,,,,67,64
74215,note_off,235,0,4,,,,,,,,2,,,,67,64
74220,note_on,5,0,3,,,,,,,,1,,,,67,45
74220,note_on,5,0,4,,,,,,,,2,,,,67,30
74220,set_tempo,240,1,0,1500000,,,,,,,,,,,,
74380,note_off,400,0,2,,,,,,,,0,,,,43,64
74380,note_off,400,0,1,,,,,,,,0,,,,55,64
74400,note_off,180,0,3,,,,,,,,1,,,,67,64
74400,note_on,0,0,4,,,,,,,,2,,,,74,30
74400,note_on,0,0,3,,,,,,,,1,,,,74,45
74400,note_off,180,0,4,,,,,,,,2,,,,67,64
74460,note_off,60,0,4,,,,,,,,2,,,,74,64
74460,note_on,0,0,3,,,,,,,,1,,,,68,45
74460,set_tempo,240,1,0,1578947,,,,,,,,,,,,
74460,note_on,0,0,4,,,,,,,,2,,,,68,30
74460,note_off,60,0,3,,,,,,,,1,,,,74,64
74700,note_on,0,0,4,,,,,,,,2,,,,67,30
74700,note_off,240,0,3,,,,,,,,1,,,,68,64
74700,note_on,0,0,3,,,,,,,,1,,,,67,45
74700,set_tempo,240,1,0,2000000,,,,,,,,,,,,
74700,note_off,240,0,4,,,,,,,,2,,,,68,64
74935,note_off,235,0,3,,,,,,,,1,,,,67,64
74935,note_off,235,0,4,,,,,,,,2,,,,67,64
75060,note_on,125,0,3,,,,,,,,1,,,,67,45
75060,note_on,125,0,4,,,,,,,,2,,,,67,30
75060,set_tempo,360,1,0,1200000,,,,,,,,,,,,
75120,note_on,0,0,3,,,,,,,,1,,,,68,45
75120,note_on,0,0,4,,,,,,,,2,,,,68,30
75120,note_off,60,0,3,,,,,,,,1,,,,67,64
75120,note_off,60,0,4,,,,,,,,2,,,,67,64
75180,note_on,0,0,4,,,,,,,,2,,,,70,30
75180,note_on,0,0,3,,,,,,,,1,,,,70,45
75180,note_off,60,0,3,,,,,,,,1,,,,68,64
75180,note_off,60,0,4,,,,,,,,2,,,,68,64
75240,note_off,60,0,3,,,,,,,,1,,,,70,64
75240,note_on,0,0,4,,,,,,,,2,,,,72,30
75240,note_on,0,0,3,,,,,,,,1,,,,72,45
75240,note_off,60,0,4,,,,,,,,2,,,,70,64
75300,note_off,60,0,3,,,,,,,,1,,,,72,64
75300,note_off,60,0,4,,,,,,,,2,,,,72,64
75300,note_on,0,0,4,,,,,,,,2,,,,74,30
75300,set_tempo,240,1,0,1500000,,,,,,,,,,,,
75300,note_on,0,0,3,,,,,,,,1,,,,74,45
75700,note_off,400,0,3,,,,,,,,1,,,,74,64
75700,note_off,400,0,4,,,,,,,,2,,,,74,64
75900,set_tempo,600,1,0,1304347,,,,,,,,,,,,
75900,note_on,200,0,4,,,,,,,,2,,,,67,25
75900,note_on,200,0,3,,,,,,,,1,,,,67,42
75960,note_on,0,0,3,,,,,,,,1,,,,68,42
75960,note_on,0,0,4,,,,,,,,2,,,,68,25
75960,note_off,60,0,3,,,,,,,,1,,,,67,64
75960,note_off,60,0,4,,,,,,,,2,,,,67,64
76020,note_off,60,0,3,,,,,,,,1,,,,68,64
76020,note_off,60,0,4,,,,,,,,2,,,,68,64
76020,note_on,0,0,4,,,,,,,,2,,,,70,25
76020,note_on,0,0,3,,,,,,,,1,,,,70,42
76080,note_off,60,0,3,,,,,,,,1,,,,70,64
76080,note_on,0,0,3,,,,,,,,1,,,,72,42
76080,note_off,60,0,4,,,,,,,,2,,,,70,64
76080,note_on,0,0,4,,,,,,,,2,,,,72,25
76140,note_on,0,0,3,,,,,,,,1,,,,74,42
76140,set_tempo,240,1,0,1500000,,,,,,,,,,,,
76140,note_off,60,0,4,,,,,,,,2,,,,72,64
76140,note_on,0,0,4,,,,,,,,2,,,,74,25
76140,note_off,60,0,3,,,,,,,,1,,,,72,64
76540,note_off,400,0,4,,,,,,,,2,,,,74,64
76540,note_off,400,0,3,,,,,,,,1,,,,74,64
76620,set_tempo,480,1,0,1875000,,,,,,,,,,,,
76740,note_on,200,0,4,,,,,,,,2,,,,67,19
76740,note_on,200,0,3,,,,,,,,1,,,,67,37
76800,note_off,60,0,4,,,,,,,,2,,,,67,64
76800,note_on,0,0,3,,,,,,,,1,,,,68,37
76800,note_on,0,0,4,,,,,,,,2,,,,68,19
76800,note_off,60,0,3,,,,,,,,1,,,,67,64
76860,note_off,60,0,3,,,,,,,,1,,,,68,64
76860,note_on,0,0,3,,,,,,,,1,,,,70,37
76860,note_off,60,0,4,,,,,,,,2,,,,68,64
76860,note_on,0,0,4,,,,,,,,2,,,,70,19
76920,note_on,0,0,3,,,,,,,,1,,,,72,37
76920,note_on,0,0,4,,,,,,,,2,,,,72,19
76920,note_off,60,0,4,,,,,,,,2,,,,70,64
76920,note_off,60,0,3,,,,,,,,1,,,,70,64
76980,note_on,0,0,4,,,,,,,,2,,,,74,19
76980,note_off,60,0,3,,,,,,,,1,,,,72,64
76980,note_on,0,0,3,,,,,,,,1,,,,74,37
76980,note_off,60,0,4,,,,,,,,2,,,,72,64
77215,note_off,235,0,3,,,,,,,,1,,,,74,64
77215,note_off,235,0,4,,,,,,,,2,,,,74,64
77220,set_tempo,600,1,0,1153846,,,,,,,,,,,,
77220,note_on,5,0,4,,,,,,,,2,,,,67,16
77220,note_on,5,0,3,,,,,,,,1,,,,67,35
77240,note_on,0,0,4,,,,,,,,2,,,,69,16
77240,note_off,20,0,4,,,,,,,,2,,,,67,64
77250,note_on,0,0,3,,,,,,,,1,,,,69,35
77250,note_off,30,0,3,,,,,,,,1,,,,67,64
77260,note_off,20,0,4,,,,,,,,2,,,,69,64
77260,note_on,0,0,4,,,,,,,,2,,,,67,16
77280,note_off,30,0,3,,,,,,,,1,,,,69,64
77280,note_on,0,0,3,,,,,,,,1,,,,67,35
77280,note_on,0,0,4,,,,,,,,2,,,,69,16
77280,note_off,20,0,4,,,,,,,,2,,,,67,64
77300,note_on,0,0,4,,,,,,,,2,,,,67,16
77300,note_off,20,0,4,,,,,,,,2,,,,69,64
77310,note_off,30,0,3,,,,,,,,1,,,,67,64
77310,note_on,0,0,3,,,,,,,,1,,,,69,35
77320,note_off,20,0,4,,,,,,,,2,,,,67,64
77320,note_on,0,0,4,,,,,,,,2,,,,69,16
77340,note_off,20,0,4,,,,,,,,2,,,,69,64
77340,note_on,0,0,4,,,,,,,,2,,,,67,16
77340,note_off,30,0,3,,,,,,,,1,,,,69,64
77340,note_on,0,0,3,,,,,,,,1,,,,67,35
77360,note_off,20,0,4,,,,,,,,2,,,,67,64
77360,note_on,0,0,4,,,,,,,,2,,,,69,16
77370,note_on,0,0,3,,,,,,,,1,,,,69,35
77370,note_off,30,0,3,,,,,,,,1,,,,67,64
77380,note_off,20,0,4,,,,,,,,2,,,,69,64
77380,note_on,0,0,4,,,,,,,,2,,,,67,16
77400,note_off,30,0,3,,,,,,,,1,,,,69,64
77400,note_on,0,0,3,,,,,,,,1,,,,67,35
77400,note_on,0,0,4,,,,,,,,2,,,,69,16
77400,note_off,20,0,4,,,,,,,,2,,,,67,64
77420,note_on,0,0,4,,,,,,,,2,,,,67,16
77420,note_off,20,0,4,,,,,,,,2,,,,69,64
77430,note_off,30,0,3,,,,,,,,1,,,,67,64
77430,note_on,0,0,3,,,,,,,,1,,,,69,35
77440,note_on,0,0,4,,,,,,,,2,,,,69,16
77440,note_off,20,0,4,,,,,,,,2,,,,67,64
77460,note_off,20,0,4,,,,,,,,2,,,,69,64
77460,note_on,0,0,3,,,,,,,,1,,,,67,34
77460,note_off,30,0,3,,,,,,,,1,,,,69,64
77460,note_on,0,0,4,,,,,,,,2,,,,67,16
77520,note_on,0,0,4,,,,,,,,2,,,,69,13
77520,note_off,60,0,4,,,,,,,,2,,,,67,64
77520,note_off,60,0,3,,,,,,,,1,,,,67,64
77520,note_on,0,0,3,,,,,,,,1,,,,69,32
77580,note_off,60,0,3,,,,,,,,1,,,,69,64
77580,note_on,0,0,3,,,,,,,,1,,,,67,30
77580,note_off,60,0,4,,,,,,,,2,,,,69,64
77580,note_on,0,0,4,,,,,,,,2,,,,67,10
77620,note_off,3640,0,8,,,,,,,,6,,,,43,64
77620,note_off,3640,0,13,,,,,,,,12,,,,43,64
77620,note_off,3640,0,14,,,,,,,,13,,,,31,64
77620,note_off,3640,0,9,,,,,,,,7,,,,31,64
77695,note_off,115,0,4,,,,,,,,2,,,,67,64
77695,note_off,115,0,3,,,,,,,,1,,,,67,64
78180,note_on,9840,0,10,,,,,,,,8,,,,82,30
78180,note_on,9840,0,6,,,,,,,,4,,,,79,45
78180,note_on,9840,0,12,,,,,,,,11,,,,67,30
78180,note_on,9840,0,11,,,,,,,,10,,,,79,30
78180,note_on,9840,0,7,,,,,,,,5,,,,67,45
78180,set_tempo,960,1,0,833333,,,,,,,,,,,,
78180,note_on,9840,0,5,,,,,,,,3,,,,82,45
78260,note_off,80,0,11,,,,,,,,10,,,,79,64
78260,note_on,0,0,10,,,,,,,,8,,,,84,30
78260,note_off,80,0,10,,,,,,,,8,,,,82,64
78260,note_off,80,0,7,,,,,,,,5,,,,67,64
78260,note_on,0,0,5,,,,,,,,3,,,,84,45
78260,note_on,0,0,6,,,,,,,,4,,,,81,45
78260,note_off,80,0,6,,,,,,,,4,,,,79,64
78260,note_off,80,0,12,,,,,,,,11,,,,67,64
78260,note_on,0,0,11,,,,,,,,10,,,,81,30
78260,note_off,80,0,5,,,,,,,,3,,,,82,64
78300,note_on,40,0,7,,,,,,,,5,,,,67,45
78300,note_on,40,0,12,,,,,,,,11,,,,67,30
78340,note_on,0,0,6,,,,,,,,4,,,,82,45
78340,note_off,80,0,5,,,,,,,,3,,,,84,64
78340,note_off,80,0,6,,,,,,,,4,,,,81,64
78340,note_off,80,0,10,,,,,,,,8,,,,84,64
78340,note_on,0,0,10,,,,,,,,8,,,,86,30
78340,note_on,0,0,11,,,,,,,,10,,,,82,30
78340,note_off,80,0,11,,,,,,,,10,,,,81,64
78340,note_on,0,0,5,,,,,,,,3,,,,86,45
78380,note_off,80,0,12,,,,,,,,11,,,,67,64
78380,note_off,80,0,7,,,,,,,,5,,,,67,64
78392,note_off,52,0,10,,,,,,,,8,,,,86,64
78392,note_off,52,0,6,,,,,,,,4,,,,82,64
78392,note_off,52,0,5,,,,,,,,3,,,,86,64
78392,note_off,52,0,11,,,,,,,,10,,,,82,64
78420,note_on,40,0,12,,,,,,,,11,,,,67,30
78420,note_on,28,0,6,,,,,,,,4,,,,79,45
78420,note_on,28,0,10,,,,,,,,8,,,,82,30
78420,note_on,40,0,7,,,,,,,,5,,,,67,45
78420,note_on,28,0,11,,,,,,,,10,,,,79,30
78420,note_on,28,0,5,,,,,,,,3,,,,82,45
78500,note_off,80,0,5,,,,,,,,3,,,,82,64
78500,note_off,80,0,10,,,,,,,,8,,,,82,64
78500,note_on,0,0,5,,,,,,,,3,,,,84,45
78500,note_off,80,0,7,,,,,,,,5,,,,67,64
78500,note_on,0,0,10,,,,,,,,8,,,,84,30
78500,note_off,80,0,12,,,,,,,,11,,,,67,64
78500,note_on,0,0,6,,,,,,,,4,,,,81,45
78500,note_off,80,0,11,,,,,,,,10,,,,79,64
78500,note_on,0,0,11,,,,,,,,10,,,,81,30
78500,note_off,80,0,6,,,,,,,,4,,,,79,64
78540,note_on,40,0,12,,,,,,,,11,,,,67,30
78540,note_on,40,0,7,,,,,,,,5,,,,67,45
78580,note_on,0,0,10,,,,,,,,8,,,,86,30
78580,note_on,0,0,6,,,,,,,,4,,,,82,45
78580,note_off,80,0,6,,,,,,,,4,,,,81,64
78580,note_off,80,0,10,,,,,,,,8,,,,84,64
78580,note_on,0,0,5,,,,,,,,3,,,,86,45
78580,note_on,0,0,11,,,,,,,,10,,,,82,30
78580,note_off,80,0,11,,,,,,,,10,,,,81,64
78580,note_off,80,0,5,,,,,,,,3,,,,84,64
78620,note_off,80,0,12,,,,,,,,11,,,,67,64
78620,note_off,80,0,7,,,,,,,,5,,,,67,64
78632,note_off,52,0,6,,,,,,,,4,,,,82,64
78632,note_off,52,0,5,,,,,,,,3,,,,86,64
78632,note_off,52,0,10,,,,,,,,8,,,,86,64
78632,note_off,52,0,11,,,,,,,,10,,,,82,64
78660,note_on,28,0,5,,,,,,,,3,,,,82,45
78660,note_on,28,0,6,,,,,,,,4,,,,79,45
78660,note_on,28,0,10,,,,,,,,8,,,,82,30
78660,note_on,40,0,7,,,,,,,,5,,,,67,45
78660,note_on,40,0,12,,,,,,,,11,,,,67,30
78660,note_on,28,0,11,,,,,,,,10,,,,79,30
78740,note_off,80,0,11,,,,,,,,10,,,,79,64
78740,note_on,0,0,11,,,,,,,,10,,,,81,30
78740,note_on,0,0,10,,,,,,,,8,,,,84,30
78740,note_off,80,0,7,,,,,,,,5,,,,67,64
78740,note_off,80,0,10,,,,,,,,8,,,,82,64
78740,note_off,80,0,6,,,,,,,,4,,,,79,64
78740,note_off,80,0,12,,,,,,,,11,,,,67,64
78740,note_off,80,0,5,,,,,,,,3,,,,82,64
78740,note_on,0,0,5,,,,,,,,3,,,,84,45
78740,note_on,0,0,6,,,,,,,,4,,,,81,45
78780,note_on,40,0,7,,,,,,,,5,,,,67,45
78780,note_on,40,0,12,,,,,,,,11,,,,67,30
78820,note_off,80,0,11,,,,,,,,10,,,,81,64
78820,note_on,0,0,11,,,,,,,,10,,,,82,30
78820,note_on,0,0,10,,,,,,,,8,,,,86,30
78820,note_off,80,0,10,,,,,,,,8,,,,84,64
78820,note_off,80,0,6,,,,,,,,4,,,,81,64
78820,note_on,0,0,6,,,,,,,,4,,,,82,45
78820,note_off,80,0,5,,,,,,,,3,,,,84,64
78820,note_on,0,0,5,,,,,,,,3,,,,86,45
78860,note_off,80,0,12,,,,,,,,11,,,,67,64
78860,note_off,80,0,7,,,,,,,,5,,,,67,64
78872,note_off,52,0,5,,,,,,,,3,,,,86,64
78872,note_off,52,0,11,,,,,,,,10,,,,82,64
78872,note_off,52,0,10,,,,,,,,8,,,,86,64
78872,note_off,52,0,6,,,,,,,,4,,,,82,64
78900,note_on,1205,0,4,,,,,,,,2,,,,86,30
78900,note_on,1205,0,3,,,,,,,,1,,,,86,45
78930,note_off,30,0,3,,,,,,,,1,,,,86,64
78930,note_on,0,0,3,,,,,,,,1,,,,87,45
78940,note_off,40,0,4,,,,,,,,2,,,,86,64
78940,note_on,0,0,4,,,,,,,,2,,,,87,30
78960,note_off,30,0,3,,,,,,,,1,,,,87,64
78960,note_on,0,0,3,,,,,,,,1,,,,86,45
78980,note_off,40,0,4,,,,,,,,2,,,,87,64
78980,note_on,0,0,4,,,,,,,,2,,,,86,30
78990,note_on,0,0,3,,,,,,,,1,,,,87,45
78990,note_off,30,0,3,,,,,,,,1,,,,86,64
79020,note_off,30,0,3,,,,,,,,1,,,,87,64
79020,note_on,0,0,4,,,,,,,,2,,,,86,30
79020,note_off,40,0,4,,,,,,,,2,,,,86,64
79020,note_on,0,0,3,,,,,,,,1,,,,86,45
79050,note_off,30,0,3,,,,,,,,1,,,,86,64
79050,note_on,0,0,3,,,,,,,,1,,,,86,45
79060,note_on,0,0,4,,,,,,,,2,,,,87,30
79060,note_off,40,0,4,,,,,,,,2,,,,86,64
79080,note_on,0,0,3,,,,,,,,1,,,,87,45
79080,note_off,30,0,3,,,,,,,,1,,,,86,64
79100,note_off,40,0,4,,,,,,,,2,,,,87,64
79100,note_on,0,0,4,,,,,,,,2,,,,86,30
79110,note_on,0,0,3,,,,,,,,1,,,,86,45
79110,note_off,30,0,3,,,,,,,,1,,,,87,64
79140,note_on,0,0,3,,,,,,,,1,,,,87,45
79140,note_off,30,0,3,,,,,,,,1,,,,86,64
79140,note_off,40,0,4,,,,,,,,2,,,,86,64
79140,note_on,0,0,4,,,,,,,,2,,,,87,30
79170,note_on,0,0,3,,,,,,,,1,,,,86,45
79170,note_off,30,0,3,,,,,,,,1,,,,87,64
79180,note_off,40,0,4,,,,,,,,2,,,,87,64
79180,note_on,0,0,4,,,,,,,,2,,,,86,30
79200,note_on,0,0,3,,,,,,,,1,,,,87,45
79200,note_off,30,0,3,,,,,,,,1,,,,86,64
79220,note_on,0,0,4,,,,,,,,2,,,,86,30
79220,note_off,40,0,4,,,,,,,,2,,,,86,64
79230,note_off,30,0,3,,,,,,,,1,,,,87,64
79230,note_on,0,0,3,,,,,,,,1,,,,86,45
79260,note_off,40,0,4,,,,,,,,2,,,,86,64
79260,note_off,30,0,3,,,,,,,,1,,,,86,64
79260,note_on,0,0,3,,,,,,,,1,,,,87,45
79260,note_on,0,0,4,,,,,,,,2,,,,87,30
79290,note_off,30,0,3,,,,,,,,1,,,,87,64
79290,note_on,0,0,3,,,,,,,,1,,,,86,45
79300,note_on,0,0,4,,,,,,,,2,,,,86,30
79300,note_off,40,0,4,,,,,,,,2,,,,87,64
79320,note_off,30,0,3,,,,,,,,1,,,,86,64
79320,note_on,0,0,3,,,,,,,,1,,,,87,45
79340,note_on,0,0,4,,,,,,,,2,,,,87,30
79340,note_off,40,0,4,,,,,,,,2,,,,86,64
79350,note_off,30,0,3,,,,,,,,1,,,,87,64
79350,note_on,0,0,3,,,,,,,,1,,,,86,45
79375,note_off,35,0,4,,,,,,,,2,,,,87,64
79375,note_off,25,0,3,,,,,,,,1,,,,86,64
79620,note_on,245,0,3,,,,,,,,1,,,,86,45
79620,note_on,245,0,4,,,,,,,,2,,,,86,30
79650,note_off,30,0,3,,,,,,,,1,,,,86,64
79650,note_on,0,0,3,,,,,,,,1,,,,87,45
79660,note_off,40,0,4,,,,,,,,2,,,,86,64
79660,note_on,0,0,4,,,,,,,,2,,,,87,30
79680,note_off,30,0,3,,,,,,,,1,,,,87,64
79680,note_on,0,0,3,,,,,,,,1,,,,86,45
79700,note_on,0,0,4,,,,,,,,2,,,,86,30
79700,note_off,40,0,4,,,,,,,,2,,,,87,64
79710,note_on,0,0,3,,,,,,,,1,,,,87,45
79710,note_off,30,0,3,,,,,,,,1,,,,86,64
79740,note_on,0,0,4,,,,,,,,2,,,,86,30
79740,note_off,40,0,4,,,,,,,,2,,,,86,64
79740,note_off,30,0,3,,,,,,,,1,,,,87,64
79740,note_on,0,0,3,,,,,,,,1,,,,86,45
79770,note_on,0,0,3,,,,,,,,1,,,,86,45
79770,note_off,30,0,3,,,,,,,,1,,,,86,64
79780,note_on,0,0,4,,,,,,,,2,,,,87,30
79780,note_off,40,0,4,,,,,,,,2,,,,86,64
79800,note_on,0,0,3,,,,,,,,1,,,,87,45
79800,note_off,30,0,3,,,,,,,,1,,,,86,64
79820,note_on,0,0,4,,,,,,,,2,,,,86,30
79820,note_off,40,0,4,,,,,,,,2,,,,87,64
79830,note_off,30,0,3,,,,,,,,1,,,,87,64
79830,note_on,0,0,3,,,,,,,,1,,,,86,45
79860,note_off,40,0,4,,,,,,,,2,,,,86,64
79860,note_on,0,0,4,,,,,,,,2,,,,87,30
79860,note_off,30,0,3,,,,,,,,1,,,,86,64
79860,note_on,0,0,3,,,,,,,,1,,,,87,45
79890,note_off,30,0,3,,,,,,,,1,,,,87,64
79890,note_on,0,0,3,,,,,,,,1,,,,86,45
79900,note_off,40,0,4,,,,,,,,2,,,,87,64
79900,note_on,0,0,4,,,,,,,,2,,,,86,30
79920,note_on,0,0,3,,,,,,,,1,,,,87,45
79920,note_off,30,0,3,,,,,,,,1,,,,86,64
79940,note_off,40,0,4,,,,,,,,2,,,,86,64
79940,note_on,0,0,4,,,,,,,,2,,,,86,30
79950,note_on,0,0,3,,,,,,,,1,,,,86,45
79950,note_off,30,0,3,,,,,,,,1,,,,87,64
79980,note_on,0,0,4,,,,,,,,2,,,,87,30
79980,note_on,0,0,3,,,,,,,,1,,,,87,45
79980,note_off,30,0,3,,,,,,,,1,,,,86,64
79980,note_off,40,0,4,,,,,,,,2,,,,86,64
80010,note_on,0,0,3,,,,,,,,1,,,,86,45
80010,note_off,30,0,3,,,,,,,,1,,,,87,64
80020,note_off,40,0,4,,,,,,,,2,,,,87,64
80020,note_on,0,0,4,,,,,,,,2,,,,86,30
80040,note_off,30,0,3,,,,,,,,1,,,,86,64
80040,note_on,0,0,3,,,,,,,,1,,,,87,45
80060,note_on,0,0,4,,,,,,,,2,,,,87,30
80060,note_off,40,0,4,,,,,,,,2,,,,86,64
80070,note_on,0,0,3,,,,,,,,1,,,,86,45
80070,note_off,30,0,3,,,,,,,,1,,,,87,64
80095,note_off,35,0,4,,,,,,,,2,,,,87,64
80095,note_off,25,0,3,,,,,,,,1,,,,86,64
80160,note_on,65,0,3,,,,,,,,1,,,,91,45
80160,note_on,65,0,4,,,,,,,,2,,,,91,30
80220,note_off,60,0,4,,,,,,,,2,,,,91,64
80220,note_on,0,0,4,,,,,,,,2,,,,86,30
80220,note_on,0,0,3,,,,,,,,1,,,,86,45
80220,note_off,60,0,3,,,,,,,,1,,,,91,64
80280,note_off,60,0,4,,,,,,,,2,,,,86,64
80280,note_on,0,0,4,,,,,,,,2,,,,91,30
80280,note_on,0,0,3,,,,,,,,1,,,,91,45
80280,note_off,60,0,3,,,,,,,,1,,,,86,64
80335,note_off,55,0,4,,,,,,,,2,,,,91,64
80335,note_off,55,0,3,,,,,,,,1,,,,91,64
80340,note_on,5,0,3,,,,,,,,1,,,,86,45
80340,note_on,5,0,4,,,,,,,,2,,,,86,30
80740,note_off,400,0,3,,,,,,,,1,,,,86,64
80740,note_off,400,0,4,,,,,,,,2,,,,86,64
80880,note_on,140,0,4,,,,,,,,2,,,,91,30
80880,note_on,140,0,3,,,,,,,,1,,,,91,45
80940,note_on,0,0,4,,,,,,,,2,,,,86,30
80940,note_on,0,0,3,,,,,,,,1,,,,86,45
80940,note_off,60,0,3,,,,,,,,1,,,,91,64
80940,note_off,60,0,4,,,,,,,,2,,,,91,64
81000,note_off,60,0,4,,,,,,,,2,,,,86,64
81000,note_on,0,0,4,,,,,,,,2,,,,91,30
81000,note_on,0,0,3,,,,,,,,1,,,,91,45
81000,note_off,60,0,3,,,,,,,,1,,,,86,64
81060,note_on,0,0,3,,,,,,,,1,,,,86,45
81060,note_off,60,0,4,,,,,,,,2,,,,91,64
81060,note_off,60,0,3,,,,,,,,1,,,,91,64
81060,note_on,0,0,4,,,,,,,,2,,,,86,30
81120,note_on,0,0,4,,,,,,,,2,,,,91,30
81120,note_off,60,0,4,,,,,,,,2,,,,86,64
81120,note_on,0,0,3,,,,,,,,1,,,,91,45
81120,note_off,60,0,3,,,,,,,,1,,,,86,64
81180,note_off,60,0,4,,,,,,,,2,,,,91,64
81180,note_on,0,0,4,,,,,,,,2,,,,86,30
81180,note_off,60,0,3,,,,,,,,1,,,,91,64
81180,note_on,0,0,3,,,,,,,,1,,,,86,45
81240,note_on,0,0,4,,,,,,,,2,,,,91,30
81240,note_off,60,0,4,,,,,,,,2,,,,86,64
81240,note_off,60,0,3,,,,,,,,1,,,,86,64
81240,note_on,0,0,3,,,,,,,,1,,,,91,45
81300,note_on,0,0,4,,,,,,,,2,,,,86,30
81300,note_off,60,0,4,,,,,,,,2,,,,91,64
81300,note_off,60,0,3,,,,,,,,1,,,,91,64
81300,note_on,0,0,3,,,,,,,,1,,,,86,45
81360,note_on,0,0,4,,,,,,,,2,,,,91,30
81360,note_off,60,0,4,,,,,,,,2,,,,86,64
81360,note_off,60,0,3,,,,,,,,1,,,,86,64
81360,note_on,0,0,3,,,,,,,,1,,,,91,45
81420,note_off,60,0,4,,,,,,,,2,,,,91,64
81420,note_off,60,0,3,,,,,,,,1,,,,91,64
81420,note_on,0,0,3,,,,,,,,1,,,,86,45
81420,note_on,0,0,4,,,,,,,,2,,,,86,30
81480,note_off,60,0,4,,,,,,,,2,,,,86,64
81480,note_on,0,0,4,,,,,,,,2,,,,91,30
81480,note_off,60,0,3,,,,,,,,1,,,,86,64
81480,note_on,0,0,3,,,,,,,,1,,,,91,45
81540,note_on,0,0,4,,,,,,,,2,,,,86,30
81540,note_off,60,0,4,,,,,,,,2,,,,91,64
81540,note_on,0,0,3,,,,,,,,1,,,,86,45
81540,note_off,60,0,3,,,,,,,,1,,,,91,64
81600,note_off,60,0,3,,,,,,,,1,,,,86,64
81600,note_on,0,0,3,,,,,,,,1,,,,91,45
81600,note_on,0,0,4,,,,,,,,2,,,,91,30
81600,note_off,60,0,4,,,,,,,,2,,,,86,64
81660,note_on,0,0,3,,,,,,,,1,,,,86,45
81660,note_on,0,0,4,,,,,,,,2,,,,86,30
81660,note_off,60,0,4,,,,,,,,2,,,,91,64
81660,note_off,60,0,3,,,,,,,,1,,,,91,64
81720,note_off,60,0,4,,,,,,,,2,,,,86,64
81720,note_on,0,0,3,,,,,,,,1,,,,91,45
81720,note_off,60,0,3,,,,,,,,1,,,,86,64
81720,note_on,0,0,4,,,,,,,,2,,,,91,30
81775,note_off,55,0,3,,,,,,,,1,,,,91,64
81775,note_off,55,0,4,,,,,,,,2,,,,91,64
81780,note_on,5,0,4,,,,,,,,2,,,,86,30
81780,note_on,5,0,3,,,,,,,,1,,,,86,45
81840,note_off,60,0,4,,,,,,,,2,,,,86,64
81840,note_on,0,0,3,,,,,,,,1,,,,91,45
81840,note_off,60,0,3,,,,,,,,1,,,,86,64
81840,note_on,0,0,4,,,,,,,,2,,,,91,30
81900,note_on,0,0,3,,,,,,,,1,,,,86,45
81900,note_off,60,0,3,,,,,,,,1,,,,91,64
81900,note_on,0,0,4,,,,,,,,2,,,,86,30
81900,note_off,60,0,4,,,,,,,,2,,,,91,64
81960,note_off,60,0,4,,,,,,,,2,,,,86,64
81960,note_on,0,0,4,,,,,,,,2,,,,91,30
81960,note_on,0,0,3,,,,,,,,1,,,,91,45
81960,note_off,60,0,3,,,,,,,,1,,,,86,64
82020,note_on,0,0,4,,,,,,,,2,,,,86,30
82020,note_off,60,0,4,,,,,,,,2,,,,91,64
82020,note_on,0,0,3,,,,,,,,1,,,,86,45
82020,note_off,60,0,3,,,,,,,,1,,,,91,64
82080,note_off,60,0,4,,,,,,,,2,,,,86,64
82080,note_off,60,0,3,,,,,,,,1,,,,86,64
82080,note_on,0,0,3,,,,,,,,1,,,,91,45
82080,note_on,0,0,4,,,,,,,,2,,,,91,30
82140,note_off,60,0,3,,,,,,,,1,,,,91,64
82140,note_on,0,0,3,,,,,,,,1,,,,86,45
82140,note_off,60,0,4,,,,,,,,2,,,,91,64
82140,note_on,0,0,4,,,,,,,,2,,,,86,30
82200,note_on,0,0,4,,,,,,,,2,,,,91,30
82200,note_on,0,0,3,,,,,,,,1,,,,91,45
82200,note_off,60,0,3,,,,,,,,1,,,,86,64
82200,note_off,60,0,4,,,,,,,,2,,,,86,64
82260,note_off,60,0,4,,,,,,,,2,,,,91,64
82260,note_on,0,0,4,,,,,,,,2,,,,86,30
82260,note_on,0,0,3,,,,,,,,1,,,,86,45
82260,note_off,60,0,3,,,,,,,,1,,,,91,64
82320,note_off,60,0,4,,,,,,,,2,,,,86,64
82320,note_on,0,0,3,,,,,,,,1,,,,91,45
82320,note_off,60,0,3,,,,,,,,1,,,,86,64
82320,note_on,0,0,4,,,,,,,,2,,,,91,30
82380,note_off,60,0,4,,,,,,,,2,,,,91,64
82380,note_on,0,0,3,,,,,,,,1,,,,86,45
82380,note_on,0,0,4,,,,,,,,2,,,,86,30
82380,note_off,60,0,3,,,,,,,,1,,,,91,64
82440,note_off,60,0,4,,,,,,,,2,,,,86,64
82440,note_off,60,0,3,,,,,,,,1,,,,86,64
82440,note_on,0,0,3,,,,,,,,1,,,,91,45
82440,note_on,0,0,4,,,,,,,,2,,,,91,30
82495,note_off,55,0,3,,,,,,,,1,,,,91,64
82495,note_off,55,0,4,,,,,,,,2,,,,91,64
82500,note_on,5,0,4,,,,,,,,2,,,,86,30
82500,note_on,5,0,3,,,,,,,,1,,,,86,45
82530,note_off,30,0,3,,,,,,,,1,,,,86,64
82530,note_on,0,0,3,,,,,,,,1,,,,87,45
82540,note_on,0,0,4,,,,,,,,2,,,,87,30
82540,note_off,40,0,4,,,,,,,,2,,,,86,64
82560,note_off,30,0,3,,,,,,,,1,,,,87,64
82560,note_on,0,0,3,,,,,,,,1,,,,86,45
82580,note_off,40,0,4,,,,,,,,2,,,,87,64
82580,note_on,0,0,4,,,,,,,,2,,,,86,30
82590,note_off,30,0,3,,,,,,,,1,,,,86,64
82590,note_on,0,0,3,,,,,,,,1,,,,87,45
82620,note_on,0,0,4,,,,,,,,2,,,,86,30
82620,note_off,40,0,4,,,,,,,,2,,,,86,64
82620,note_on,0,0,3,,,,,,,,1,,,,86,45
82620,note_off,30,0,3,,,,,,,,1,,,,87,64
82650,note_off,30,0,3,,,,,,,,1,,,,86,64
82650,note_on,0,0,3,,,,,,,,1,,,,86,45
82660,note_on,0,0,4,,,,,,,,2,,,,87,30
82660,note_off,40,0,4,,,,,,,,2,,,,86,64
82680,note_off,30,0,3,,,,,,,,1,,,,86,64
82680,note_on,0,0,3,,,,,,,,1,,,,87,45
82700,note_on,0,0,4,,,,,,,,2,,,,86,30
82700,note_off,40,0,4,,,,,,,,2,,,,87,64
82710,note_off,30,0,3,,,,,,,,1,,,,87,64
82710,note_on,0,0,3,,,,,,,,1,,,,86,45
82740,note_off,30,0,3,,,,,,,,1,,,,86,64
82740,note_on,0,0,3,,,,,,,,1,,,,86,45
82740,note_off,40,0,4,,,,,,,,2,,,,86,64
82740,note_on,0,0,4,,,,,,,,2,,,,87,30
82770,note_off,30,0,3,,,,,,,,1,,,,86,64
82770,note_on,0,0,3,,,,,,,,1,,,,87,45
82780,note_off,40,0,4,,,,,,,,2,,,,87,64
82780,note_on,0,0,4,,,,,,,,2,,,,86,30
82800,note_off,30,0,3,,,,,,,,1,,,,87,64
82800,note_on,0,0,3,,,,,,,,1,,,,86,45
82820,note_on,0,0,4,,,,,,,,2,,,,86,30
82820,note_off,40,0,4,,,,,,,,2,,,,86,64
82830,note_off,30,0,3,,,,,,,,1,,,,86,64
82830,note_on,0,0,3,,,,,,,,1,,,,87,45
82860,note_off,40,0,4,,,,,,,,2,,,,86,64
82860,note_on,0,0,3,,,,,,,,1,,,,86,45
82860,note_off,30,0,3,,,,,,,,1,,,,87,64
82860,note_on,0,0,4,,,,,,,,2,,,,87,30
82890,note_off,30,0,3,,,,,,,,1,,,,86,64
82890,note_on,0,0,3,,,,,,,,1,,,,86,45
82900,note_on,0,0,4,,,,,,,,2,,,,86,30
82900,note_off,40,0,4,,,,,,,,2,,,,87,64
82920,note_on,0,0,3,,,,,,,,1,,,,87,45
82920,note_off,30,0,3,,,,,,,,1,,,,86,64
82940,note_off,40,0,4,,,,,,,,2,,,,86,64
82940,note_on,0,0,4,,,,,,,,2,,,,87,30
82950,note_off,30,0,3,,,,,,,,1,,,,87,64
82950,note_on,0,0,3,,,,,,,,1,,,,86,45
82980,note_on,0,0,3,,,,,,,,1,,,,86,45
82980,note_on,0,0,4,,,,,,,,2,,,,86,30
82980,note_off,30,0,3,,,,,,,,1,,,,86,64
82980,note_off,40,0,4,,,,,,,,2,,,,87,64
83010,note_on,0,0,3,,,,,,,,1,,,,87,45
83010,note_off,30,0,3,,,,,,,,1,,,,86,64
83020,note_on,0,0,4,,,,,,,,2,,,,87,30
83020,note_off,40,0,4,,,,,,,,2,,,,86,64
83040,note_off,30,0,3,,,,,,,,1,,,,87,64
83040,note_on,0,0,3,,,,,,,,1,,,,86,45
83060,note_off,40,0,4,,,,,,,,2,,,,87,64
83060,note_on,0,0,4,,,,,,,,2,,,,86,30
83070,note_off,30,0,3,,,,,,,,1,,,,86,64
83070,note_on,0,0,3,,,,,,,,1,,,,87,45
83100,note_off,30,0,3,,,,,,,,1,,,,87,64
83100,note_on,0,0,3,,,,,,,,1,,,,86,45
83100,note_off,40,0,4,,,,,,,,2,,,,86,64
83100,note_on,0,0,4,,,,,,,,2,,,,86,30
83130,note_on,0,0,3,,,,,,,,1,,,,86,45
83130,note_off,30,0,3,,,,,,,,1,,,,86,64
83140,note_on,0,0,4,,,,,,,,2,,,,87,30
83140,note_off,40,0,4,,,,,,,,2,,,,86,64
83160,note_on,0,0,3,,,,,,,,1,,,,87,45
83160,note_off,30,0,3,,,,,,,,1,,,,86,64
83180,note_off,40,0,4,,,,,,,,2,,,,87,64
83180,note_on,0,0,4,,,,,,,,2,,,,86,30
83190,note_on,0,0,3,,,,,,,,1,,,,86,45
83190,note_off,30,0,3,,,,,,,,1,,,,87,64
83215,note_off,25,0,3,,,,,,,,1,,,,86,64
83215,note_off,35,0,4,,,,,,,,2,,,,86,64
84180,note_on,5308,0,11,,,,,,,,10,,,,79,30
84180,note_on,5308,0,5,,,,,,,,3,,,,82,45
84180,note_on,5308,0,6,,,,,,,,4,,,,79,45
84180,note_on,5308,0,10,,,,,,,,8,,,,82,30
84180,note_on,5320,0,7,,,,,,,,5,,,,67,45
84180,set_tempo,6000,1,0,833333,,,,,,,,,,,,
84180,note_on,5320,0,12,,,,,,,,11,,,,67,30
84260,note_off,80,0,5,,,,,,,,3,,,,82,64
84260,note_on,0,0,5,,,,,,,,3,,,,84,45
84260,note_off,80,0,12,,,,,,,,11,,,,67,64
84260,note_off,80,0,7,,,,,,,,5,,,,67,64
84260,note_off,80,0,10,,,,,,,,8,,,,82,64
84260,note_on,0,0,10,,,,,,,,8,,,,84,30
84260,note_on,0,0,6,,,,,,,,4,,,,81,45
84260,note_off,80,0,6,,,,,,,,4,,,,79,64
84260,note_on,0,0,11,,,,,,,,10,,,,81,30
84260,note_off,80,0,11,,,,,,,,10,,,,79,64
84300,note_on,40,0,12,,,,,,,,11,,,,67,30
84300,note_on,40,0,7,,,,,,,,5,,,,67,45
84340,note_off,80,0,10,,,,,,,,8,,,,84,64
84340,note_on,0,0,10,,,,,,,,8,,,,86,30
84340,note_on,0,0,11,,,,,,,,10,,,,82,30
84340,note_off,80,0,11,,,,,,,,10,,,,81,64
84340,note_on,0,0,6,,,,,,,,4,,,,82,45
84340,note_off,80,0,6,,,,,,,,4,,,,81,64
84340,note_off,80,0,5,,,,,,,,3,,,,84,64
84340,note_on,0,0,5,,,,,,,,3,,,,86,45
84380,note_off,80,0,12,,,,,,,,11,,,,67,64
84380,note_off,80,0,7,,,,,,,,5,,,,67,64
84392,note_off,52,0,6,,,,,,,,4,,,,82,64
84392,note_off,52,0,5,,,,,,,,3,,,,86,64
84392,note_off,52,0,10,,,,,,,,8,,,,86,64
84392,note_off,52,0,11,,,,,,,,10,,,,82,64
84420,note_on,28,0,5,,,,,,,,3,,,,82,45
84420,note_on,40,0,7,,,,,,,,5,,,,67,45
84420,note_on,28,0,6,,,,,,,,4,,,,79,45
84420,note_on,28,0,10,,,,,,,,8,,,,82,30
84420,note_on,28,0,11,,,,,,,,10,,,,79,30
84420,note_on,40,0,12,,,,,,,,11,,,,67,30
84500,note_on,0,0,11,,,,,,,,10,,,,81,30
84500,note_off,80,0,5,,,,,,,,3,,,,82,64
84500,note_on,0,0,5,,,,,,,,3,,,,84,45
84500,note_off,80,0,12,,,,,,,,11,,,,67,64
84500,note_off,80,0,7,,,,,,,,5,,,,67,64
84500,note_on,0,0,6,,,,,,,,4,,,,81,45
84500,note_off,80,0,6,,,,,,,,4,,,,79,64
84500,note_off,80,0,11,,,,,,,,10,,,,79,64
84500,note_off,80,0,10,,,,,,,,8,,,,82,64
84500,note_on,0,0,10,,,,,,,,8,,,,84,30
84540,note_on,40,0,12,,,,,,,,11,,,,67,30
84540,note_on,40,0,7,,,,,,,,5,,,,67,45
84580,note_on,0,0,10,,,,,,,,8,,,,86,30
84580,note_off,80,0,5,,,,,,,,3,,,,84,64
84580,note_on,0,0,5,,,,,,,,3,,,,86,45
84580,note_off,80,0,6,,,,,,,,4,,,,81,64
84580,note_on,0,0,11,,,,,,,,10,,,,82,30
84580,note_off,80,0,11,,,,,,,,10,,,,81,64
84580,note_off,80,0,10,,,,,,,,8,,,,84,64
84580,note_on,0,0,6,,,,,,,,4,,,,82,45
84620,note_off,80,0,7,,,,,,,,5,,,,67,64
84620,note_off,80,0,12,,,,,,,,11,,,,67,64
84632,note_off,52,0,10,,,,,,,,8,,,,86,64
84632,note_off,52,0,5,,,,,,,,3,,,,86,64
84632,note_off,52,0,6,,,,,,,,4,,,,82,64
84632,note_off,52,0,11,,,,,,,,10,,,,82,64
84660,note_on,28,0,11,,,,,,,,10,,,,79,30
84660,note_on,28,0,5,,,,,,,,3,,,,82,45
84660,note_on,40,0,7,,,,,,,,5,,,,67,45
84660,note_on,40,0,12,,,,,,,,11,,,,67,30
84660,note_on,28,0,6,,,,,,,,4,,,,79,45
84660,note_on,28,0,10,,,,,,,,8,,,,82,30
84740,note_off,80,0,12,,,,,,,,11,,,,67,64
84740,note_off,80,0,7,,,,,,,,5,,,,67,64
84740,note_off,80,0,10,,,,,,,,8,,,,82,64
84740,note_on,0,0,10,,,,,,,,8,,,,84,30
84740,note_off,80,0,11,,,,,,,,10,,,,79,64
84740,note_on,0,0,11,,,,,,,,10,,,,81,30
84740,note_on,0,0,6,,,,,,,,4,,,,81,45
84740,note_on,0,0,5,,,,,,,,3,,,,84,45
84740,note_off,80,0,6,,,,,,,,4,,,,79,64
84740,note_off,80,0,5,,,,,,,,3,,,,82,64
84780,note_on,40,0,7,,,,,,,,5,,,,67,45
84780,note_on,40,0,12,,,,,,,,11,,,,67,30
84820,note_on,0,0,10,,,,,,,,8,,,,86,30
84820,note_on,0,0,5,,,,,,,,3,,,,86,45
84820,note_off,80,0,5,,,,,,,,3,,,,84,64
84820,note_off,80,0,10,,,,,,,,8,,,,84,64
84820,note_off,80,0,6,,,,,,,,4,,,,81,64
84820,note_on,0,0,11,,,,,,,,10,,,,82,30
84820,note_on,0,0,6,,,,,,,,4,,,,82,45
84820,note_off,80,0,11,,,,,,,,10,,,,81,64
84860,note_off,80,0,12,,,,,,,,11,,,,67,64
84860,note_off,80,0,7,,,,,,,,5,,,,67,64
84872,note_off,52,0,11,,,,,,,,10,,,,82,64
84872,note_off,52,0,5,,,,,,,,3,,,,86,64
84872,note_off,52,0,10,,,,,,,,8,,,,86,64
84872,note_off,52,0,6,,,,,,,,4,,,,82,64
84900,note_on,28,0,11,,,,,,,,10,,,,78,30
84900,note_on,40,0,12,,,,,,,,11,,,,74,30
84900,note_on,28,0,10,,,,,,,,8,,,,81,30
84900,note_on,40,0,7,,,,,,,,5,,,,74,45
84900,note_on,28,0,5,,,,,,,,3,,,,81,45
84900,note_on,28,0,6,,,,,,,,4,,,,78,45
84980,note_off,80,0,6,,,,,,,,4,,,,78,64
84980,note_off,80,0,7,,,,,,,,5,,,,74,64
84980,note_off,80,0,12,,,,,,,,11,,,,74,64
84980,note_on,0,0,6,,,,,,,,4,,,,79,45
84980,note_on,0,0,5,,,,,,,,3,,,,82,45
84980,note_off,80,0,11,,,,,,,,10,,,,78,64
84980,note_off,80,0,5,,,,,,,,3,,,,81,64
84980,note_off,80,0,10,,,,,,,,8,,,,81,64
84980,note_on,0,0,11,,,,,,,,10,,,,79,30
84980,note_on,0,0,10,,,,,,,,8,,,,82,30
85020,note_on,40,0,7,,,,,,,,5,,,,74,45
85020,note_on,40,0,12,,,,,,,,11,,,,74,30
85060,note_on,0,0,10,,,,,,,,8,,,,84,30
85060,note_on,0,0,11,,,,,,,,10,,,,81,30
85060,note_off,80,0,11,,,,,,,,10,,,,79,64
85060,note_off,80,0,6,,,,,,,,4,,,,79,64
85060,note_on,0,0,5,,,,,,,,3,,,,84,45
85060,note_off,80,0,5,,,,,,,,3,,,,82,64
85060,note_off,80,0,10,,,,,,,,8,,,,82,64
85060,note_on,0,0,6,,,,,,,,4,,,,81,45
85100,note_off,80,0,12,,,,,,,,11,,,,74,64
85100,note_off,80,0,7,,,,,,,,5,,,,74,64
85112,note_off,52,0,11,,,,,,,,10,,,,81,64
85112,note_off,52,0,5,,,,,,,,3,,,,84,64
85112,note_off,52,0,6,,,,,,,,4,,,,81,64
85112,note_off,52,0,10,,,,,,,,8,,,,84,64
85140,note_on,40,0,7,,,,,,,,5,,,,74,45
85140,note_on,40,0,12,,,,,,,,11,,,,74,30
85140,note_on,28,0,10,,,,,,,,8,,,,81,30
85140,note_on,28,0,11,,,,,,,,10,,,,78,30
85140,note_on,28,0,5,,,,,,,,3,,,,81,45
85140,note_on,28,0,6,,,,,,,,4,,,,78,45
85220,note_on,0,0,11,,,,,,,,10,,,,79,30
85220,note_on,0,0,10,,,,,,,,8,,,,82,30
85220,note_off,80,0,10,,,,,,,,8,,,,81,64
85220,note_off,80,0,11,,,,,,,,10,,,,78,64
85220,note_off,80,0,7,,,,,,,,5,,,,74,64
85220,note_off,80,0,5,,,,,,,,3,,,,81,64
85220,note_on,0,0,6,,,,,,,,4,,,,79,45
85220,note_off,80,0,12,,,,,,,,11,,,,74,64
85220,note_on,0,0,5,,,,,,,,3,,,,82,45
85220,note_off,80,0,6,,,,,,,,4,,,,78,64
85260,note_on,40,0,12,,,,,,,,11,,,,74,30
85260,note_on,40,0,7,,,,,,,,5,,,,74,45
85300,note_on,0,0,11,,,,,,,,10,,,,81,30
85300,note_on,0,0,6,,,,,,,,4,,,,81,45
85300,note_on,0,0,5,,,,,,,,3,,,,84,45
85300,note_on,0,0,10,,,,,,,,8,,,,84,30
85300,note_off,80,0,10,,,,,,,,8,,,,82,64
85300,note_off,80,0,5,,,,,,,,3,,,,82,64
85300,note_off,80,0,11,,,,,,,,10,,,,79,64
85300,note_off,80,0,6,,,,,,,,4,,,,79,64
85340,note_off,80,0,7,,,,,,,,5,,,,74,64
85340,note_off,80,0,12,,,,,,,,11,,,,74,64
85352,note_off,52,0,11,,,,,,,,10,,,,81,64
85352,note_off,52,0,5,,,,,,,,3,,,,84,64
85352,note_off,52,0,6,,,,,,,,4,,,,81,64
85352,note_off,52,0,10,,,,,,,,8,,,,84,64
85380,note_on,40,0,7,,,,,,,,5,,,,74,45
85380,note_on,28,0,10,,,,,,,,8,,,,81,30
85380,note_on,40,0,12,,,,,,,,11,,,,74,30
85380,note_on,28,0,6,,,,,,,,4,,,,78,45
85380,note_on,28,0,5,,,,,,,,3,,,,81,45
85380,note_on,28,0,11,,,,,,,,10,,,,78,30
85460,note_on,0,0,6,,,,,,,,4,,,,79,45
85460,note_off,80,0,12,,,,,,,,11,,,,74,64
85460,note_off,80,0,7,,,,,,,,5,,,,74,64
85460,note_off,80,0,5,,,,,,,,3,,,,81,64
85460,note_on,0,0,5,,,,,,,,3,,,,82,45
85460,note_on,0,0,11,,,,,,,,10,,,,79,30
85460,note_off,80,0,11,,,,,,,,10,,,,78,64
85460,note_off,80,0,10,,,,,,,,8,,,,81,64
85460,note_on,0,0,10,,,,,,,,8,,,,82,30
85460,note_off,80,0,6,,,,,,,,4,,,,78,64
85500,note_on,40,0,7,,,,,,,,5,,,,74,45
85500,note_on,40,0,12,,,,,,,,11,,,,74,30
85540,note_off,80,0,5,,,,,,,,3,,,,82,64
85540,note_on,0,0,5,,,,,,,,3,,,,84,45
85540,note_on,0,0,10,,,,,,,,8,,,,84,30
85540,note_off,80,0,10,,,,,,,,8,,,,82,64
85540,note_off,80,0,6,,,,,,,,4,,,,79,64
85540,note_on,0,0,11,,,,,,,,10,,,,81,30
85540,note_off,80,0,11,,,,,,,,10,,,,79,64
85540,note_on,0,0,6,,,,,,,,4,,,,81,45
85580,note_off,80,0,12,,,,,,,,11,,,,74,64
85580,note_off,80,0,7,,,,,,,,5,,,,74,64
85592,note_off,52,0,6,,,,,,,,4,,,,81,64
85592,note_off,52,0,11,,,,,,,,10,,,,81,64
85592,note_off,52,0,5,,,,,,,,3,,,,84,64
85592,note_off,52,0,10,,,,,,,,8,,,,84,64
85620,note_on,28,0,10,,,,,,,,8,,,,82,30
85620,note_on,40,0,7,,,,,,,,5,,,,67,45
85620,note_on,40,0,12,,,,,,,,11,,,,67,30
85620,note_on,28,0,6,,,,,,,,4,,,,79,45
85620,note_on,28,0,11,,,,,,,,10,,,,79,30
85620,note_on,28,0,5,,,,,,,,3,,,,82,45
85700,note_off,80,0,5,,,,,,,,3,,,,82,64
85700,note_on,0,0,10,,,,,,,,8,,,,84,30
85700,note_off,80,0,10,,,,,,,,8,,,,82,64
85700,note_off,80,0,7,,,,,,,,5,,,,67,64
85700,note_off,80,0,12,,,,,,,,11,,,,67,64
85700,note_off,80,0,11,,,,,,,,10,,,,79,64
85700,note_off,80,0,6,,,,,,,,4,,,,79,64
85700,note_on,0,0,5,,,,,,,,3,,,,84,45
85700,note_on,0,0,11,,,,,,,,10,,,,81,30
85700,note_on,0,0,6,,,,,,,,4,,,,81,45
85740,note_on,40,0,7,,,,,,,,5,,,,67,45
85740,note_on,40,0,12,,,,,,,,11,,,,67,30
85780,note_off,80,0,11,,,,,,,,10,,,,81,64
85780,note_on,0,0,11,,,,,,,,10,,,,82,30
85780,note_off,80,0,6,,,,,,,,4,,,,81,64
85780,note_on,0,0,5,,,,,,,,3,,,,86,45
85780,note_off,80,0,5,,,,,,,,3,,,,84,64
85780,note_off,80,0,10,,,,,,,,8,,,,84,64
85780,note_on,0,0,10,,,,,,,,8,,,,86,30
85780,note_on,0,0,6,,,,,,,,4,,,,82,45
85820,note_off,80,0,7,,,,,,,,5,,,,67,64
85820,note_off,80,0,12,,,,,,,,11,,,,67,64
85832,note_off,52,0,6,,,,,,,,4,,,,82,64
85832,note_off,52,0,5,,,,,,,,3,,,,86,64
85832,note_off,52,0,10,,,,,,,,8,,,,86,64
85832,note_off,52,0,11,,,,,,,,10,,,,82,64
85860,note_on,28,0,6,,,,,,,,4,,,,79,45
85860,note_on,28,0,10,,,,,,,,8,,,,82,30
85860,note_on,40,0,12,,,,,,,,11,,,,67,30
85860,note_on,40,0,7,,,,,,,,5,,,,67,45
85860,note_on,28,0,11,,,,,,,,10,,,,79,30
85860,note_on,28,0,5,,,,,,,,3,,,,82,45
85940,note_on,0,0,6,,,,,,,,4,,,,81,45
85940,note_off,80,0,11,,,,,,,,10,,,,79,64
85940,note_on,0,0,11,,,,,,,,10,,,,81,30
85940,note_on,0,0,10,,,,,,,,8,,,,84,30
85940,note_off,80,0,10,,,,,,,,8,,,,82,64
85940,note_off,80,0,6,,,,,,,,4,,,,79,64
85940,note_off,80,0,12,,,,,,,,11,,,,67,64
85940,note_off,80,0,5,,,,,,,,3,,,,82,64
85940,note_on,0,0,5,,,,,,,,3,,,,84,45
85940,note_off,80,0,7,,,,,,,,5,,,,67,64
85980,note_on,40,0,7,,,,,,,,5,,,,67,45
85980,note_on,40,0,12,,,,,,,,11,,,,67,30
86020,note_on,0,0,5,,,,,,,,3,,,,86,45
86020,note_off,80,0,10,,,,,,,,8,,,,84,64
86020,note_on,0,0,10,,,,,,,,8,,,,86,30
86020,note_off,80,0,5,,,,,,,,3,,,,84,64
86020,note_on,0,0,6,,,,,,,,4,,,,82,45
86020,note_off,80,0,6,,,,,,,,4,,,,81,64
86020,note_off,80,0,11,,,,,,,,10,,,,81,64
86020,note_on,0,0,11,,,,,,,,10,,,,82,30
86060,note_off,80,0,12,,,,,,,,11,,,,67,64
86060,note_off,80,0,7,,,,,,,,5,,,,67,64
86072,note_off,52,0,10,,,,,,,,8,,,,86,64
86072,note_off,52,0,6,,,,,,,,4,,,,82,64
86072,note_off,52,0,5,,,,,,,,3,,,,86,64
86072,note_off,52,0,11,,,,,,,,10,,,,82,64
86100,note_on,28,0,11,,,,,,,,10,,,,79,30
86100,note_on,28,0,5,,,,,,,,3,,,,82,45
86100,note_on,40,0,12,,,,,,,,11,,,,67,30
86100,note_on,28,0,10,,,,,,,,8,,,,82,30
86100,note_on,40,0,7,,,,,,,,5,,,,67,45
86100,note_on,28,0,6,,,,,,,,4,,,,79,45
86180,note_off,80,0,11,,,,,,,,10,,,,79,64
86180,note_on,0,0,11,,,,,,,,10,,,,81,30
86180,note_off,80,0,5,,,,,,,,3,,,,82,64
86180,note_on,0,0,5,,,,,,,,3,,,,84,45
86180,note_on,0,0,6,,,,,,,,4,,,,81,45
86180,note_off,80,0,7,,,,,,,,5,,,,67,64
86180,note_off,80,0,10,,,,,,,,8,,,,82,64
86180,note_off,80,0,12,,,,,,,,11,,,,67,64
86180,note_on,0,0,10,,,,,,,,8,,,,84,30
86180,note_off,80,0,6,,,,,,,,4,,,,79,64
86220,note_on,40,0,7,,,,,,,,5,,,,67,45
86220,note_on,40,0,12,,,,,,,,11,,,,67,30
86260,note_on,0,0,11,,,,,,,,10,,,,82,30
86260,note_off,80,0,11,,,,,,,,10,,,,81,64
86260,note_on,0,0,10,,,,,,,,8,,,,86,30
86260,note_off,80,0,5,,,,,,,,3,,,,84,64
86260,note_on,0,0,5,,,,,,,,3,,,,86,45
86260,note_on,0,0,6,,,,,,,,4,,,,82,45
86260,note_off,80,0,6,,,,,,,,4,,,,81,64
86260,note_off,80,0,10,,,,,,,,8,,,,84,64
86300,note_off,80,0,12,,,,,,,,11,,,,67,64
86300,note_off,80,0,7,,,,,,,,5,,,,67,64
86312,note_off,52,0,10,,,,,,,,8,,,,86,64
86312,note_off,52,0,5,,,,,,,,3,,,,86,64
86312,note_off,52,0,6,,,,,,,,4,,,,82,64
86312,note_off,52,0,11,,,,,,,,10,,,,82,64
86340,note_on,40,0,7,,,,,,,,5,,,,74,45
86340,note_on,40,0,12,,,,,,,,11,,,,74,30
86340,note_on,28,0,10,,,,,,,,8,,,,81,30
86340,note_on,28,0,5,,,,,,,,3,,,,81,45
86340,note_on,28,0,11,,,,,,,,10,,,,78,30
86340,note_on,28,0,6,,,,,,,,4,,,,78,45
86420,note_off,80,0,5,,,,,,,,3,,,,81,64
86420,note_on,0,0,5,,,,,,,,3,,,,82,45
86420,note_off,80,0,12,,,,,,,,11,,,,74,64
86420,note_off,80,0,11,,,,,,,,10,,,,78,64
86420,note_on,0,0,6,,,,,,,,4,,,,79,45
86420,note_off,80,0,6,,,,,,,,4,,,,78,64
86420,note_off,80,0,10,,,,,,,,8,,,,81,64
86420,note_on,0,0,10,,,,,,,,8,,,,82,30
86420,note_off,80,0,7,,,,,,,,5,,,,74,64
86420,note_on,0,0,11,,,,,,,,10,,,,79,30
86460,note_on,40,0,12,,,,,,,,11,,,,74,30
86460,note_on,40,0,7,,,,,,,,5,,,,74,45
86500,note_on,0,0,6,,,,,,,,4,,,,81,45
86500,note_off,80,0,6,,,,,,,,4,,,,79,64
86500,note_off,80,0,11,,,,,,,,10,,,,79,64
86500,note_on,0,0,5,,,,,,,,3,,,,84,45
86500,note_off,80,0,5,,,,,,,,3,,,,82,64
86500,note_on,0,0,10,,,,,,,,8,,,,84,30
86500,note_off,80,0,10,,,,,,,,8,,,,82,64
86500,note_on,0,0,11,,,,,,,,10,,,,81,30
86540,note_off,80,0,12,,,,,,,,11,,,,74,64
86540,note_off,80,0,7,,,,,,,,5,,,,74,64
86552,note_off,52,0,10,,,,,,,,8,,,,84,64
86552,note_off,52,0,6,,,,,,,,4,,,,81,64
86552,note_off,52,0,11,,,,,,,,10,,,,81,64
86552,note_off,52,0,5,,,,,,,,3,,,,84,64
86580,note_on,28,0,10,,,,,,,,8,,,,81,30
86580,note_on,40,0,7,,,,,,,,5,,,,74,45
86580,note_on,40,0,12,,,,,,,,11,,,,74,30
86580,note_on,28,0,5,,,,,,,,3,,,,81,45
86580,note_on,28,0,6,,,,,,,,4,,,,78,45
86580,note_on,28,0,11,,,,,,,,10,,,,78,30
86660,note_off,80,0,7,,,,,,,,5,,,,74,64
86660,note_off,80,0,11,,,,,,,,10,,,,78,64
86660,note_on,0,0,6,,,,,,,,4,,,,79,45
86660,note_off,80,0,6,,,,,,,,4,,,,78,64
86660,note_off,80,0,12,,,,,,,,11,,,,74,64
86660,note_on,0,0,5,,,,,,,,3,,,,82,45
86660,note_off,80,0,5,,,,,,,,3,,,,81,64
86660,note_off,80,0,10,,,,,,,,8,,,,81,64
86660,note_on,0,0,10,,,,,,,,8,,,,82,30
86660,note_on,0,0,11,,,,,,,,10,,,,79,30
86700,note_on,40,0,7,,,,,,,,5,,,,74,45
86700,note_on,40,0,12,,,,,,,,11,,,,74,30
86740,note_off,80,0,5,,,,,,,,3,,,,82,64
86740,note_on,0,0,6,,,,,,,,4,,,,81,45
86740,note_off,80,0,6,,,,,,,,4,,,,79,64
86740,note_on,0,0,5,,,,,,,,3,,,,84,45
86740,note_off,80,0,11,,,,,,,,10,,,,79,64
86740,note_on,0,0,11,,,,,,,,10,,,,81,30
86740,note_off,80,0,10,,,,,,,,8,,,,82,64
86740,note_on,0,0,10,,,,,,,,8,,,,84,30
86780,note_off,80,0,7,,,,,,,,5,,,,74,64
86780,note_off,80,0,12,,,,,,,,11,,,,74,64
86792,note_off,52,0,6,,,,,,,,4,,,,81,64
86792,note_off,52,0,10,,,,,,,,8,,,,84,64
86792,note_off,52,0,11,,,,,,,,10,,,,81,64
86792,note_off,52,0,5,,,,,,,,3,,,,84,64
86820,note_on,28,0,6,,,,,,,,4,,,,78,45
86820,note_on,28,0,10,,,,,,,,8,,,,81,30
86820,note_on,28,0,11,,,,,,,,10,,,,78,30
86820,note_on,28,0,5,,,,,,,,3,,,,81,45
86820,note_on,40,0,12,,,,,,,,11,,,,74,30
86820,note_on,40,0,7,,,,,,,,5,,,,74,45
86900,note_on,0,0,11,,,,,,,,10,,,,79,30
86900,note_on,0,0,6,,,,,,,,4,,,,79,45
86900,note_off,80,0,6,,,,,,,,4,,,,78,64
86900,note_on,0,0,5,,,,,,,,3,,,,82,45
86900,note_off,80,0,5,,,,,,,,3,,,,81,64
86900,note_off,80,0,11,,,,,,,,10,,,,78,64
86900,note_off,80,0,7,,,,,,,,5,,,,74,64
86900,note_off,80,0,12,,,,,,,,11,,,,74,64
86900,note_off,80,0,10,,,,,,,,8,,,,81,64
86900,note_on,0,0,10,,,,,,,,8,,,,82,30
86940,note_on,40,0,12,,,,,,,,11,,,,74,30
86940,note_on,40,0,7,,,,,,,,5,,,,74,45
86980,note_off,80,0,10,,,,,,,,8,,,,82,64
86980,note_on,0,0,10,,,,,,,,8,,,,84,30
86980,note_off,80,0,6,,,,,,,,4,,,,79,64
86980,note_off,80,0,5,,,,,,,,3,,,,82,64
86980,note_on,0,0,5,,,,,,,,3,,,,84,45
86980,note_on,0,0,11,,,,,,,,10,,,,81,30
86980,note_off,80,0,11,,,,,,,,10,,,,79,64
86980,note_on,0,0,6,,,,,,,,4,,,,81,45
87020,note_off,80,0,7,,,,,,,,5,,,,74,64
87020,note_off,80,0,12,,,,,,,,11,,,,74,64
87032,note_off,52,0,6,,,,,,,,4,,,,81,64
87032,note_off,52,0,5,,,,,,,,3,,,,84,64
87032,note_off,52,0,11,,,,,,,,10,,,,81,64
87032,note_off,52,0,10,,,,,,,,8,,,,84,64
87060,note_on,28,0,6,,,,,,,,4,,,,79,45
87060,note_on,40,0,12,,,,,,,,11,,,,67,30
87060,note_on,28,0,11,,,,,,,,10,,,,79,30
87060,note_on,40,0,7,,,,,,,,5,,,,67,45
87060,note_on,28,0,10,,,,,,,,8,,,,82,30
87060,note_on,28,0,5,,,,,,,,3,,,,82,45
87140,note_off,80,0,12,,,,,,,,11,,,,67,64
87140,note_off,80,0,7,,,,,,,,5,,,,67,64
87180,note_on,40,0,12,,,,,,,,11,,,,67,30
87180,note_on,40,0,7,,,,,,,,5,,,,67,45
87240,note_off,180,0,6,,,,,,,,4,,,,79,64
87240,note_on,0,0,6,,,,,,,,4,,,,81,45
87240,note_off,180,0,10,,,,,,,,8,,,,82,64
87240,note_off,180,0,5,,,,,,,,3,,,,82,64
87240,note_on,0,0,10,,,,,,,,8,,,,84,30
87240,note_on,0,0,5,,,,,,,,3,,,,84,45
87240,note_off,180,0,11,,,,,,,,10,,,,79,64
87240,note_on,0,0,11,,,,,,,,10,,,,81,30
87260,note_off,80,0,12,,,,,,,,11,,,,67,64
87260,note_off,80,0,7,,,,,,,,5,,,,67,64
87295,note_off,55,0,6,,,,,,,,4,,,,81,64
87295,note_off,55,0,10,,,,,,,,8,,,,84,64
87295,note_off,55,0,11,,,,,,,,10,,,,81,64
87295,note_off,55,0,5,,,,,,,,3,,,,84,64
87300,note_on,5,0,5,,,,,,,,3,,,,82,45
87300,note_on,5,0,6,,,,,,,,4,,,,79,45
87300,note_on,40,0,7,,,,,,,,5,,,,67,45
87300,note_on,40,0,12,,,,,,,,11,,,,67,30
87300,note_on,5,0,11,,,,,,,,10,,,,79,30
87300,note_on,5,0,10,,,,,,,,8,,,,82,30
87380,note_off,80,0,12,,,,,,,,11,,,,67,64
87380,note_off,80,0,7,,,,,,,,5,,,,67,64
87420,note_on,40,0,7,,,,,,,,5,,,,67,45
87420,note_on,40,0,12,,,,,,,,11,,,,67,30
87480,note_off,180,0,6,,,,,,,,4,,,,79,64
87480,note_off,180,0,10,,,,,,,,8,,,,82,64
87480,note_on,0,0,10,,,,,,,,8,,,,84,30
87480,note_on,0,0,6,,,,,,,,4,,,,81,45
87480,note_off,180,0,5,,,,,,,,3,,,,82,64
87480,note_on,0,0,11,,,,,,,,10,,,,81,30
87480,note_off,180,0,11,,,,,,,,10,,,,79,64
87480,note_on,0,0,5,,,,,,,,3,,,,84,45
87500,note_off,80,0,7,,,,,,,,5,,,,67,64
87500,note_off,80,0,12,,,,,,,,11,,,,67,64
87535,note_off,55,0,11,,,,,,,,10,,,,81,64
87535,note_off,55,0,5,,,,,,,,3,,,,84,64
87535,note_off,55,0,10,,,,,,,,8,,,,84,64
87535,note_off,55,0,6,,,,,,,,4,,,,81,64
87540,note_on,40,0,7,,,,,,,,5,,,,67,45
87540,note_on,40,0,12,,,,,,,,11,,,,67,30
87540,note_on,5,0,11,,,,,,,,10,,,,79,30
87540,note_on,5,0,5,,,,,,,,3,,,,82,45
87540,note_on,5,0,10,,,,,,,,8,,,,82,30
87540,note_on,5,0,6,,,,,,,,4,,,,79,45
87620,note_off,80,0,12,,,,,,,,11,,,,67,64
87620,note_off,80,0,7,,,,,,,,5,,,,67,64
87660,note_on,40,0,12,,,,,,,,11,,,,67,30
87660,note_on,40,0,7,,,,,,,,5,,,,67,45
87720,note_on,0,0,5,,,,,,,,3,,,,84,45
87720,note_on,0,0,6,,,,,,,,4,,,,81,45
87720,note_off,180,0,6,,,,,,,,4,,,,79,64
87720,note_on,0,0,11,,,,,,,,10,,,,81,30
87720,note_off,180,0,11,,,,,,,,10,,,,79,64
87720,note_off,180,0,10,,,,,,,,8,,,,82,64
87720,note_on,0,0,10,,,,,,,,8,,,,84,30
87720,note_off,180,0,5,,,,,,,,3,,,,82,64
87740,note_off,80,0,12,,,,,,,,11,,,,67,64
87740,note_off,80,0,7,,,,,,,,5,,,,67,64
87775,note_off,55,0,5,,,,,,,,3,,,,84,64
87775,note_off,55,0,6,,,,,,,,4,,,,81,64
87775,note_off,55,0,11,,,,,,,,10,,,,81,64
87775,note_off,55,0,10,,,,,,,,8,,,,84,64
87780,note_on,5,0,11,,,,,,,,10,,,,79,10
87780,note_on,40,0,12,,,,,,,,11,,,,61,10
87780,note_on,5,0,5,,,,,,,,3,,,,82,30
87780,note_on,40,0,7,,,,,,,,5,,,,61,30
87780,note_on,5,0,10,,,,,,,,8,,,,82,30
87780,note_on,5,0,6,,,,,,,,4,,,,79,30
87860,note_off,80,0,12,,,,,,,,11,,,,61,64
87860,note_off,80,0,7,,,,,,,,5,,,,61,64
87900,note_on,40,0,12,,,,,,,,11,,,,61,10
87900,note_on,40,0,7,,,,,,,,5,,,,61,30
87960,note_off,180,0,6,,,,,,,,4,,,,79,64
87960,note_on,0,0,6,,,,,,,,4,,,,81,30
87960,note_on,0,0,10,,,,,,,,8,,,,84,30
87960,note_off,180,0,10,,,,,,,,8,,,,82,64
87960,note_on,0,0,5,,,,,,,,3,,,,84,30
87960,note_off,180,0,5,,,,,,,,3,,,,82,64
87960,note_on,0,0,11,,,,,,,,10,,,,81,10
87960,note_off,180,0,11,,,,,,,,10,,,,79,64
87980,note_off,80,0,7,,,,,,,,5,,,,61,64
87980,note_off,80,0,12,,,,,,,,11,,,,61,64
88015,note_off,55,0,10,,,,,,,,8,,,,84,64
88015,note_off,55,0,11,,,,,,,,10,,,,81,64
88015,note_off,55,0,5,,,,,,,,3,,,,84,64
88015,note_off,55,0,6,,,,,,,,4,,,,81,64
88020,note_on,5,0,5,,,,,,,,3,,,,82,30
88020,note_on,5,0,6,,,,,,,,4,,,,79,30
88020,note_on,40,0,7,,,,,,,,5,,,,61,30
88020,note_on,5,0,11,,,,,,,,10,,,,79,10
88020,note_on,5,0,10,,,,,,,,8,,,,82,30
88020,note_on,40,0,12,,,,,,,,11,,,,61,10
88100,note_off,80,0,7,,,,,,,,5,,,,61,64
88100,note_off,80,0,12,,,,,,,,11,,,,61,64
88140,note_on,40,0,7,,,,,,,,5,,,,61,30
88140,note_on,40,0,12,,,,,,,,11,,,,61,10
88200,note_off,180,0,10,,,,,,,,8,,,,82,64
88200,note_on,0,0,10,,,,,,,,8,,,,84,30
88200,note_off,180,0,5,,,,,,,,3,,,,82,64
88200,note_off,180,0,6,,,,,,,,4,,,,79,64
88200,note_on,0,0,6,,,,,,,,4,,,,81,30
88200,note_on,0,0,5,,,,,,,,3,,,,84,30
88200,note_on,0,0,11,,,,,,,,10,,,,81,10
88200,note_off,180,0,11,,,,,,,,10,,,,79,64
88220,note_off,80,0,7,,,,,,,,5,,,,61,64
88220,note_off,80,0,12,,,,,,,,11,,,,61,64
88255,note_off,55,0,6,,,,,,,,4,,,,81,64
88255,note_off,55,0,10,,,,,,,,8,,,,84,64
88255,note_off,55,0,5,,,,,,,,3,,,,84,64
88255,note_off,55,0,11,,,,,,,,10,,,,81,64
88260,note_on,40,0,12,,,,,,,,11,,,,61,10
88260,note_on,5,0,11,,,,,,,,10,,,,79,10
88260,note_on,40,0,7,,,,,,,,5,,,,61,30
88260,note_on,5,0,6,,,,,,,,4,,,,79,30
88260,note_on,5,0,5,,,,,,,,3,,,,82,30
88260,note_on,5,0,10,,,,,,,,8,,,,82,30
88340,note_off,80,0,7,,,,,,,,5,,,,61,64
88340,note_off,80,0,12,,,,,,,,11,,,,61,64
88380,note_on,40,0,12,,,,,,,,11,,,,61,10
88380,note_on,40,0,7,,,,,,,,5,,,,61,30
88440,note_off,180,0,5,,,,,,,,3,,,,82,64
88440,note_on,0,0,5,,,,,,,,3,,,,84,30
88440,note_on,0,0,11,,,,,,,,10,,,,81,10
88440,note_off,180,0,10,,,,,,,,8,,,,82,64
88440,note_on,0,0,10,,,,,,,,8,,,,84,30
88440,note_on,0,0,6,,,,,,,,4,,,,81,30
88440,note_off,180,0,6,,,,,,,,4,,,,79,64
88440,note_off,180,0,11,,,,,,,,10,,,,79,64
88460,note_off,80,0,12,,,,,,,,11,,,,61,64
88460,note_off,80,0,7,,,,,,,,5,,,,61,64
88495,note_off,55,0,11,,,,,,,,10,,,,81,64
88495,note_off,55,0,5,,,,,,,,3,,,,84,64
88495,note_off,55,0,6,,,,,,,,4,,,,81,64
88495,note_off,55,0,10,,,,,,,,8,,,,84,64
88500,note_on,5,0,6,,,,,,,,4,,,,77,45
88500,note_on,5,0,5,,,,,,,,3,,,,81,45
88500,note_on,5,0,11,,,,,,,,10,,,,77,30
88500,note_on,40,0,12,,,,,,,,11,,,,62,30
88500,note_on,40,0,7,,,,,,,,5,,,,62,45
88500,note_on,5,0,10,,,,,,,,8,,,,81,45
88580,note_off,80,0,7,,,,,,,,5,,,,62,64
88580,note_off,80,0,12,,,,,,,,11,,,,62,64
88620,note_on,40,0,7,,,,,,,,5,,,,62,45
88620,note_on,40,0,12,,,,,,,,11,,,,62,30
88680,note_on,0,0,10,,,,,,,,8,,,,82,45
88680,note_off,180,0,10,,,,,,,,8,,,,81,64
88680,note_on,0,0,6,,,,,,,,4,,,,79,45
88680,note_off,180,0,6,,,,,,,,4,,,,77,64
88680,note_off,180,0,5,,,,,,,,3,,,,81,64
88680,note_on,0,0,5,,,,,,,,3,,,,82,45
88680,note_off,180,0,11,,,,,,,,10,,,,77,64
88680,note_on,0,0,11,,,,,,,,10,,,,79,30
88700,note_off,80,0,7,,,,,,,,5,,,,62,64
88700,note_off,80,0,12,,,,,,,,11,,,,62,64
88735,note_off,55,0,10,,,,,,,,8,,,,82,64
88735,note_off,55,0,5,,,,,,,,3,,,,82,64
88735,note_off,55,0,11,,,,,,,,10,,,,79,64
88735,note_off,55,0,6,,,,,,,,4,,,,79,64
88740,note_on,5,0,11,,,,,,,,10,,,,77,30
88740,note_on,5,0,10,,,,,,,,8,,,,81,45
88740,note_on,40,0,12,,,,,,,,11,,,,62,30
88740,note_on,40,0,7,,,,,,,,5,,,,62,45
88740,note_on,5,0,5,,,,,,,,3,,,,81,45
88740,note_on,5,0,6,,,,,,,,4,,,,77,45
88820,note_off,80,0,7,,,,,,,,5,,,,62,64
88820,note_off,80,0,12,,,,,,,,11,,,,62,64
88860,note_on,40,0,12,,,,,,,,11,,,,62,30
88860,note_on,40,0,7,,,,,,,,5,,,,62,45
88920,note_on,0,0,11,,,,,,,,10,,,,79,30
88920,note_off,180,0,5,,,,,,,,3,,,,81,64
88920,note_off,180,0,11,,,,,,,,10,,,,77,64
88920,note_off,180,0,10,,,,,,,,8,,,,81,64
88920,note_on,0,0,10,,,,,,,,8,,,,82,45
88920,note_on,0,0,6,,,,,,,,4,,,,79,45
88920,note_off,180,0,6,,,,,,,,4,,,,77,64
88920,note_on,0,0,5,,,,,,,,3,,,,82,45
88940,note_off,80,0,12,,,,,,,,11,,,,62,64
88940,note_off,80,0,7,,,,,,,,5,,,,62,64
88975,note_off,55,0,10,,,,,,,,8,,,,82,64
88975,note_off,55,0,11,,,,,,,,10,,,,79,64
88975,note_off,55,0,6,,,,,,,,4,,,,79,64
88975,note_off,55,0,5,,,,,,,,3,,,,82,64
88980,note_on,5,0,10,,,,,,,,8,,,,81,45
88980,note_on,5,0,6,,,,,,,,4,,,,77,45
88980,note_on,5,0,11,,,,,,,,10,,,,77,30
88980,note_on,5,0,5,,,,,,,,3,,,,81,45
88980,note_on,40,0,12,,,,,,,,11,,,,62,30
88980,note_on,40,0,7,,,,,,,,5,,,,62,45
89060,note_off,80,0,7,,,,,,,,5,,,,62,64
89060,note_off,80,0,12,,,,,,,,11,,,,62,64
89100,note_on,40,0,7,,,,,,,,5,,,,62,45
89100,note_on,40,0,12,,,,,,,,11,,,,62,30
89160,note_on,0,0,11,,,,,,,,10,,,,79,30
89160,note_off,180,0,10,,,,,,,,8,,,,81,64
89160,note_off,180,0,6,,,,,,,,4,,,,77,64
89160,note_on,0,0,6,,,,,,,,4,,,,79,45
89160,note_on,0,0,5,,,,,,,,3,,,,82,45
89160,note_off,180,0,5,,,,,,,,3,,,,81,64
89160,note_off,180,0,11,,,,,,,,10,,,,77,64
89160,note_on,0,0,10,,,,,,,,8,,,,82,45
89180,note_off,80,0,12,,,,,,,,11,,,,62,64
89180,note_off,80,0,7,,,,,,,,5,,,,62,64
89215,note_off,55,0,11,,,,,,,,10,,,,79,64
89215,note_off,55,0,5,,,,,,,,3,,,,82,64
89215,note_off,55,0,6,,,,,,,,4,,,,79,64
89215,note_off,55,0,10,,,,,,,,8,,,,82,64
89220,note_on,5,0,5,,,,,,,,3,,,,81,30
89220,note_on,40,0,7,,,,,,,,5,,,,62,30
89220,note_on,5,0,10,,,,,,,,8,,,,81,30
89220,note_on,40,0,12,,,,,,,,11,,,,62,10
89220,note_on,5,0,6,,,,,,,,4,,,,77,30
89220,note_on,5,0,11,,,,,,,,10,,,,77,10
89300,note_off,80,0,7,,,,,,,,5,,,,62,64
89300,note_off,80,0,12,,,,,,,,11,,,,62,64
89340,note_on,40,0,12,,,,,,,,11,,,,62,10
89340,note_on,40,0,7,,,,,,,,5,,,,62,30
89400,note_off,180,0,10,,,,,,,,8,,,,81,64
89400,note_off,180,0,11,,,,,,,,10,,,,77,64
89400,note_on,0,0,11,,,,,,,,10,,,,79,10
89400,note_on,0,0,5,,,,,,,,3,,,,82,30
89400,note_off,180,0,5,,,,,,,,3,,,,81,64
89400,note_on,0,0,6,,,,,,,,4,,,,79,30
89400,note_off,180,0,6,,,,,,,,4,,,,77,64
89400,note_on,0,0,10,,,,,,,,8,,,,82,30
89420,note_off,80,0,7,,,,,,,,5,,,,62,64
89420,note_off,80,0,12,,,,,,,,11,,,,62,64
89455,note_off,55,0,6,,,,,,,,4,,,,79,64
89455,note_off,55,0,11,,,,,,,,10,,,,79,64
89455,note_off,55,0,10,,,,,,,,8,,,,82,64
89455,note_off,55,0,5,,,,,,,,3,,,,82,64
89460,note_on,5,0,5,,,,,,,,3,,,,81,30
89460,note_on,5,0,10,,,,,,,,8,,,,81,30
89460,note_on,5,0,11,,,,,,,,10,,,,77,10
89460,note_on,5,0,6,,,,,,,,4,,,,77,30
89460,note_on,40,0,7,,,,,,,,5,,,,62,30
89460,note_on,40,0,12,,,,,,,,11,,,,62,10
89540,note_off,80,0,7,,,,,,,,5,,,,62,64
89540,note_off,80,0,12,,,,,,,,11,,,,62,64
89580,note_on,40,0,12,,,,,,,,11,,,,62,10
89580,note_on,40,0,7,,,,,,,,5,,,,62,30
89640,note_on,0,0,11,,,,,,,,10,,,,79,10
89640,note_off,180,0,11,,,,,,,,10,,,,77,64
89640,note_off,180,0,6,,,,,,,,4,,,,77,64
89640,note_on,0,0,6,,,,,,,,4,,,,79,30
89640,note_on,0,0,5,,,,,,,,3,,,,82,30
89640,note_off,180,0,5,,,,,,,,3,,,,81,64
89640,note_off,180,0,10,,,,,,,,8,,,,81,64
89640,note_on,0,0,10,,,,,,,,8,,,,82,30
89660,note_off,80,0,12,,,,,,,,11,,,,62,64
89660,note_off,80,0,7,,,,,,,,5,,,,62,64
89695,note_off,55,0,6,,,,,,,,4,,,,79,64
89695,note_off,55,0,11,,,,,,,,10,,,,79,64
89695,note_off,55,0,10,,,,,,,,8,,,,82,64
89695,note_off,55,0,5,,,,,,,,3,,,,82,64
89700,note_on,40,0,7,,,,,,,,5,,,,62,30
89700,note_on,5,0,6,,,,,,,,4,,,,77,30
89700,note_on,5,0,11,,,,,,,,10,,,,77,10
89700,note_on,5,0,10,,,,,,,,8,,,,81,30
89700,note_on,40,0,12,,,,,,,,11,,,,62,10
89700,note_on,5,0,5,,,,,,,,3,,,,81,30
89780,note_off,80,0,12,,,,,,,,11,,,,62,64
89780,note_off,80,0,7,,,,,,,,5,,,,62,64
89820,note_on,40,0,12,,,,,,,,11,,,,62,10
89820,note_on,40,0,7,,,,,,,,5,,,,62,30
89880,note_off,180,0,5,,,,,,,,3,,,,81,64
89880,note_on,0,0,5,,,,,,,,3,,,,82,30
89880,note_on,0,0,11,,,,,,,,10,,,,79,10
89880,note_off,180,0,11,,,,,,,,10,,,,77,64
89880,note_off,180,0,10,,,,,,,,8,,,,81,64
89880,note_on,0,0,10,,,,,,,,8,,,,82,30
89880,note_off,180,0,6,,,,,,,,4,,,,77,64
89880,note_on,0,0,6,,,,,,,,4,,,,79,30
89900,note_off,80,0,7,,,,,,,,5,,,,62,64
89900,note_off,80,0,12,,,,,,,,11,,,,62,64
89935,note_off,55,0,11,,,,,,,,10,,,,79,64
89935,note_off,55,0,5,,,,,,,,3,,,,82,64
89935,note_off,55,0,10,,,,,,,,8,,,,82,64
89935,note_off,55,0,6,,,,,,,,4,,,,79,64
89940,note_on,5,0,10,,,,,,,,8,,,,79,45
89940,note_on,5,0,5,,,,,,,,3,,,,79,45
89940,note_on,40,0,7,,,,,,,,5,,,,64,45
89940,note_on,5,0,6,,,,,,,,4,,,,76,45
89940,note_on,40,0,12,,,,,,,,11,,,,64,30
89940,note_on,5,0,11,,,,,,,,10,,,,76,30
90020,note_off,80,0,12,,,,,,,,11,,,,64,64
90020,note_off,80,0,7,,,,,,,,5,,,,64,64
90060,note_on,40,0,7,,,,,,,,5,,,,64,45
90060,note_on,40,0,12,,,,,,,,11,,,,64,30
90120,note_on,0,0,5,,,,,,,,3,,,,81,45
90120,note_off,180,0,10,,,,,,,,8,,,,79,64
90120,note_on,0,0,10,,,,,,,,8,,,,81,45
90120,note_off,180,0,11,,,,,,,,10,,,,76,64
90120,note_off,180,0,5,,,,,,,,3,,,,79,64
90120,note_off,180,0,6,,,,,,,,4,,,,76,64
90120,note_on,0,0,6,,,,,,,,4,,,,77,45
90120,note_on,0,0,11,,,,,,,,10,,,,77,30
90140,note_off,80,0,7,,,,,,,,5,,,,64,64
90140,note_off,80,0,12,,,,,,,,11,,,,64,64
90175,note_off,55,0,11,,,,,,,,10,,,,77,64
90175,note_off,55,0,5,,,,,,,,3,,,,81,64
90175,note_off,55,0,6,,,,,,,,4,,,,77,64
90175,note_off,55,0,10,,,,,,,,8,,,,81,64
90180,note_on,5,0,11,,,,,,,,10,,,,76,30
90180,note_on,40,0,7,,,,,,,,5,,,,64,45
90180,note_on,5,0,5,,,,,,,,3,,,,79,45
90180,note_on,40,0,12,,,,,,,,11,,,,64,30
90180,note_on,5,0,6,,,,,,,,4,,,,76,45
90180,note_on,5,0,10,,,,,,,,8,,,,79,45
90260,note_off,80,0,7,,,,,,,,5,,,,64,64
90260,note_off,80,0,12,,,,,,,,11,,,,64,64
90300,note_on,40,0,7,,,,,,,,5,,,,64,45
90300,note_on,40,0,12,,,,,,,,11,,,,64,30
90360,note_on,0,0,5,,,,,,,,3,,,,81,45
90360,note_on,0,0,10,,,,,,,,8,,,,81,45
90360,note_off,180,0,10,,,,,,,,8,,,,79,64
90360,note_off,180,0,5,,,,,,,,3,,,,79,64
90360,note_on,0,0,6,,,,,,,,4,,,,77,45
90360,note_off,180,0,6,,,,,,,,4,,,,76,64
90360,note_on,0,0,11,,,,,,,,10,,,,77,30
90360,note_off,180,0,11,,,,,,,,10,,,,76,64
90380,note_off,80,0,12,,,,,,,,11,,,,64,64
90380,note_off,80,0,7,,,,,,,,5,,,,64,64
90415,note_off,55,0,6,,,,,,,,4,,,,77,64
90415,note_off,55,0,5,,,,,,,,3,,,,81,64
90415,note_off,55,0,11,,,,,,,,10,,,,77,64
90415,note_off,55,0,10,,,,,,,,8,,,,81,64
90420,note_on,5,0,6,,,,,,,,4,,,,76,45
90420,note_on,40,0,7,,,,,,,,5,,,,64,45
90420,note_on,5,0,11,,,,,,,,10,,,,76,30
90420,note_on,40,0,12,,,,,,,,11,,,,64,30
90420,note_on,5,0,5,,,,,,,,3,,,,79,45
90420,note_on,5,0,10,,,,,,,,8,,,,79,45
90500,note_off,80,0,12,,,,,,,,11,,,,64,64
90500,note_off,80,0,7,,,,,,,,5,,,,64,64
90540,note_on,40,0,12,,,,,,,,11,,,,64,30
90540,note_on,40,0,7,,,,,,,,5,,,,64,45
90600,note_on,0,0,11,,,,,,,,10,,,,77,30
90600,note_off,180,0,6,,,,,,,,4,,,,76,64
90600,note_on,0,0,6,,,,,,,,4,,,,77,45
90600,note_off,180,0,5,,,,,,,,3,,,,79,64
90600,note_off,180,0,10,,,,,,,,8,,,,79,64
90600,note_on,0,0,10,,,,,,,,8,,,,81,45
90600,note_on,0,0,5,,,,,,,,3,,,,81,45
90600,note_off,180,0,11,,,,,,,,10,,,,76,64
90620,note_off,80,0,12,,,,,,,,11,,,,64,64
90620,note_off,80,0,7,,,,,,,,5,,,,64,64
90655,note_off,55,0,5,,,,,,,,3,,,,81,64
90655,note_off,55,0,10,,,,,,,,8,,,,81,64
90655,note_off,55,0,11,,,,,,,,10,,,,77,64
90655,note_off,55,0,6,,,,,,,,4,,,,77,64
90660,note_on,5,0,5,,,,,,,,3,,,,79,30
90660,note_on,40,0,7,,,,,,,,5,,,,57,30
90660,note_on,5,0,11,,,,,,,,10,,,,76,10
90660,note_on,40,0,12,,,,,,,,11,,,,57,10
90660,note_on,5,0,6,,,,,,,,4,,,,76,30
90660,note_on,5,0,10,,,,,,,,8,,,,79,30
90740,note_off,80,0,7,,,,,,,,5,,,,57,64
90740,note_off,80,0,12,,,,,,,,11,,,,57,64
90780,note_on,40,0,12,,,,,,,,11,,,,57,10
90780,note_on,40,0,7,,,,,,,,5,,,,57,30
90840,note_off,180,0,6,,,,,,,,4,,,,76,64
90840,note_on,0,0,5,,,,,,,,3,,,,81,30
90840,note_off,180,0,5,,,,,,,,3,,,,79,64
90840,note_off,180,0,10,,,,,,,,8,,,,79,64
90840,note_on,0,0,10,,,,,,,,8,,,,81,30
90840,note_on,0,0,11,,,,,,,,10,,,,77,10
90840,note_on,0,0,6,,,,,,,,4,,,,77,30
90840,note_off,180,0,11,,,,,,,,10,,,,76,64
90860,note_off,80,0,7,,,,,,,,5,,,,57,64
90860,note_off,80,0,12,,,,,,,,11,,,,57,64
90895,note_off,55,0,10,,,,,,,,8,,,,81,64
90895,note_off,55,0,11,,,,,,,,10,,,,77,64
90895,note_off,55,0,6,,,,,,,,4,,,,77,64
90895,note_off,55,0,5,,,,,,,,3,,,,81,64
90900,note_on,5,0,6,,,,,,,,4,,,,76,30
90900,note_on,40,0,7,,,,,,,,5,,,,57,30
90900,note_on,40,0,12,,,,,,,,11,,,,57,10
90900,note_on,5,0,11,,,,,,,,10,,,,76,10
90900,note_on,5,0,5,,,,,,,,3,,,,79,30
90900,note_on,5,0,10,,,,,,,,8,,,,79,30
90980,note_off,80,0,7,,,,,,,,5,,,,57,64
90980,note_off,80,0,12,,,,,,,,11,,,,57,64
91020,note_on,40,0,12,,,,,,,,11,,,,57,10
91020,note_on,40,0,7,,,,,,,,5,,,,57,30
91080,note_off,180,0,10,,,,,,,,8,,,,79,64
91080,note_on,0,0,11,,,,,,,,10,,,,77,10
91080,note_off,180,0,11,,,,,,,,10,,,,76,64
91080,note_off,180,0,6,,,,,,,,4,,,,76,64
91080,note_on,0,0,6,,,,,,,,4,,,,77,30
91080,note_on,0,0,10,,,,,,,,8,,,,81,30
91080,note_off,180,0,5,,,,,,,,3,,,,79,64
91080,note_on,0,0,5,,,,,,,,3,,,,81,30
91100,note_off,80,0,12,,,,,,,,11,,,,57,64
91100,note_off,80,0,7,,,,,,,,5,,,,57,64
91135,note_off,55,0,10,,,,,,,,8,,,,81,64
91135,note_off,55,0,11,,,,,,,,10,,,,77,64
91135,note_off,55,0,6,,,,,,,,4,,,,77,64
91135,note_off,55,0,5,,,,,,,,3,,,,81,64
91140,note_on,5,0,6,,,,,,,,4,,,,76,30
91140,note_on,5,0,5,,,,,,,,3,,,,79,30
91140,note_on,40,0,7,,,,,,,,5,,,,57,30
91140,note_on,40,0,12,,,,,,,,11,,,,57,10
91140,note_on,5,0,10,,,,,,,,8,,,,79,30
91140,note_on,5,0,11,,,,,,,,10,,,,76,10
91220,note_off,80,0,7,,,,,,,,5,,,,57,64
91220,note_off,80,0,12,,,,,,,,11,,,,57,64
91260,note_on,40,0,7,,,,,,,,5,,,,57,30
91260,note_on,40,0,12,,,,,,,,11,,,,57,10
91320,note_off,180,0,10,,,,,,,,8,,,,79,64
91320,note_off,180,0,11,,,,,,,,10,,,,76,64
91320,note_off,180,0,6,,,,,,,,4,,,,76,64
91320,note_on,0,0,10,,,,,,,,8,,,,81,30
91320,note_on,0,0,6,,,,,,,,4,,,,77,30
91320,note_on,0,0,11,,,,,,,,10,,,,77,10
91320,note_on,0,0,5,,,,,,,,3,,,,81,30
91320,note_off,180,0,5,,,,,,,,3,,,,79,64
91340,note_off,80,0,12,,,,,,,,11,,,,57,64
91340,note_off,80,0,7,,,,,,,,5,,,,57,64
91375,note_off,55,0,5,,,,,,,,3,,,,81,64
91375,note_off,55,0,10,,,,,,,,8,,,,81,64
91375,note_off,55,0,6,,,,,,,,4,,,,77,64
91375,note_off,55,0,11,,,,,,,,10,,,,77,64
91380,note_on,5,0,6,,,,,,,,4,,,,74,45
91380,note_on,5,0,5,,,,,,,,3,,,,77,45
91380,note_on,5,0,10,,,,,,,,8,,,,77,45
91380,note_on,5,0,11,,,,,,,,10,,,,74,30
91380,note_on,40,0,7,,,,,,,,5,,,,62,45
91380,note_on,40,0,12,,,,,,,,11,,,,62,30
91460,note_off,80,0,7,,,,,,,,5,,,,62,64
91460,note_off,80,0,12,,,,,,,,11,,,,62,64
91500,note_on,40,0,7,,,,,,,,5,,,,62,45
91500,note_on,40,0,12,,,,,,,,11,,,,62,30
91560,note_off,180,0,6,,,,,,,,4,,,,74,64
91560,note_off,180,0,11,,,,,,,,10,,,,74,64
91560,note_off,180,0,5,,,,,,,,3,,,,77,64
91560,note_on,0,0,11,,,,,,,,10,,,,76,30
91560,note_on,0,0,6,,,,,,,,4,,,,76,45
91560,note_off,180,0,10,,,,,,,,8,,,,77,64
91560,note_on,0,0,10,,,,,,,,8,,,,79,45
91560,note_on,0,0,5,,,,,,,,3,,,,79,45
91580,note_off,80,0,12,,,,,,,,11,,,,62,64
91580,note_off,80,0,7,,,,,,,,5,,,,62,64
91615,note_off,55,0,11,,,,,,,,10,,,,76,64
91615,note_off,55,0,6,,,,,,,,4,,,,76,64
91615,note_off,55,0,10,,,,,,,,8,,,,79,64
91615,note_off,55,0,5,,,,,,,,3,,,,79,64
91620,note_on,5,0,11,,,,,,,,10,,,,74,30
91620,note_on,40,0,12,,,,,,,,11,,,,62,30
91620,note_on,5,0,10,,,,,,,,8,,,,77,45
91620,note_on,5,0,6,,,,,,,,4,,,,74,45
91620,note_on,40,0,7,,,,,,,,5,,,,62,45
91620,note_on,5,0,5,,,,,,,,3,,,,77,45
91700,note_off,80,0,12,,,,,,,,11,,,,62,64
91700,note_off,80,0,7,,,,,,,,5,,,,62,64
91740,note_on,40,0,12,,,,,,,,11,,,,62,30
91740,note_on,40,0,7,,,,,,,,5,,,,62,45
91800,note_off,180,0,11,,,,,,,,10,,,,74,64
91800,note_on,0,0,5,,,,,,,,3,,,,79,45
91800,note_on,0,0,6,,,,,,,,4,,,,76,45
91800,note_off,180,0,6,,,,,,,,4,,,,74,64
91800,note_off,180,0,10,,,,,,,,8,,,,77,64
91800,note_on,0,0,10,,,,,,,,8,,,,79,45
91800,note_on,0,0,11,,,,,,,,10,,,,76,30
91800,note_off,180,0,5,,,,,,,,3,,,,77,64
91820,note_off,80,0,7,,,,,,,,5,,,,62,64
91820,note_off,80,0,12,,,,,,,,11,,,,62,64
91855,note_off,55,0,10,,,,,,,,8,,,,79,64
91855,note_off,55,0,11,,,,,,,,10,,,,76,64
91855,note_off,55,0,6,,,,,,,,4,,,,76,64
91855,note_off,55,0,5,,,,,,,,3,,,,79,64
91860,note_on,5,0,11,,,,,,,,10,,,,74,30
91860,note_on,5,0,6,,,,,,,,4,,,,74,45
91860,note_on,5,0,5,,,,,,,,3,,,,77,45
91860,note_on,40,0,7,,,,,,,,5,,,,62,45
91860,note_on,5,0,10,,,,,,,,8,,,,77,45
91860,note_on,40,0,12,,,,,,,,11,,,,62,30
91940,note_off,80,0,7,,,,,,,,5,,,,62,64
91940,note_off,80,0,12,,,,,,,,11,,,,62,64
91980,note_on,40,0,7,,,,,,,,5,,,,62,45
91980,note_on,40,0,12,,,,,,,,11,,,,62,30
92040,note_on,0,0,10,,,,,,,,8,,,,79,45
92040,note_off,180,0,5,,,,,,,,3,,,,77,64
92040,note_on,0,0,5,,,,,,,,3,,,,79,45
92040,note_on,0,0,6,,,,,,,,4,,,,76,45
92040,note_off,180,0,6,,,,,,,,4,,,,74,64
92040,note_off,180,0,10,,,,,,,,8,,,,77,64
92040,note_off,180,0,11,,,,,,,,10,,,,74,64
92040,note_on,0,0,11,,,,,,,,10,,,,76,30
92060,note_off,80,0,7,,,,,,,,5,,,,62,64
92060,note_off,80,0,12,,,,,,,,11,,,,62,64
92095,note_off,55,0,6,,,,,,,,4,,,,76,64
92095,note_off,55,0,10,,,,,,,,8,,,,79,64
92095,note_off,55,0,5,,,,,,,,3,,,,79,64
92095,note_off,55,0,11,,,,,,,,10,,,,76,64
92100,note_on,5,0,11,,,,,,,,10,,,,74,10
92100,note_on,5,0,5,,,,,,,,3,,,,77,30
92100,note_on,5,0,6,,,,,,,,4,,,,74,30
92100,note_on,40,0,12,,,,,,,,11,,,,62,10
92100,note_on,5,0,10,,,,,,,,8,,,,77,30
92100,note_on,40,0,7,,,,,,,,5,,,,62,30
92180,note_off,80,0,7,,,,,,,,5,,,,62,64
92180,note_off,80,0,12,,,,,,,,11,,,,62,64
92220,note_on,40,0,7,,,,,,,,5,,,,62,30
92220,note_on,40,0,12,,,,,,,,11,,,,62,10
92280,note_on,0,0,5,,,,,,,,3,,,,79,30
92280,note_off,180,0,5,,,,,,,,3,,,,77,64
92280,note_on,0,0,10,,,,,,,,8,,,,79,30
92280,note_off,180,0,10,,,,,,,,8,,,,77,64
92280,note_on,0,0,6,,,,,,,,4,,,,76,30
92280,note_off,180,0,11,,,,,,,,10,,,,74,64
92280,note_on,0,0,11,,,,,,,,10,,,,76,10
92280,note_off,180,0,6,,,,,,,,4,,,,74,64
92300,note_off,80,0,7,,,,,,,,5,,,,62,64
92300,note_off,80,0,12,,,,,,,,11,,,,62,64
92335,note_off,55,0,5,,,,,,,,3,,,,79,64
92335,note_off,55,0,11,,,,,,,,10,,,,76,64
92335,note_off,55,0,10,,,,,,,,8,,,,79,64
92335,note_off,55,0,6,,,,,,,,4,,,,76,64
92340,note_on,5,0,11,,,,,,,,10,,,,74,10
92340,note_on,5,0,6,,,,,,,,4,,,,74,30
92340,note_on,40,0,7,,,,,,,,5,,,,62,30
92340,note_on,40,0,12,,,,,,,,11,,,,62,10
92340,note_on,5,0,5,,,,,,,,3,,,,77,30
92340,note_on,5,0,10,,,,,,,,8,,,,77,30
92420,note_off,80,0,7,,,,,,,,5,,,,62,64
92420,note_off,80,0,12,,,,,,,,11,,,,62,64
92460,note_on,40,0,12,,,,,,,,11,,,,62,10
92460,note_on,40,0,7,,,,,,,,5,,,,62,30
92520,note_on,0,0,10,,,,,,,,8,,,,79,30
92520,note_off,180,0,5,,,,,,,,3,,,,77,64
92520,note_on,0,0,6,,,,,,,,4,,,,76,30
92520,note_off,180,0,6,,,,,,,,4,,,,74,64
92520,note_on,0,0,11,,,,,,,,10,,,,76,10
92520,note_on,0,0,5,,,,,,,,3,,,,79,30
92520,note_off,180,0,10,,,,,,,,8,,,,77,64
92520,note_off,180,0,11,,,,,,,,10,,,,74,64
92540,note_off,80,0,7,,,,,,,,5,,,,62,64
92540,note_off,80,0,12,,,,,,,,11,,,,62,64
92575,note_off,55,0,10,,,,,,,,8,,,,79,64
92575,note_off,55,0,5,,,,,,,,3,,,,79,64
92575,note_off,55,0,6,,,,,,,,4,,,,76,64
92575,note_off,55,0,11,,,,,,,,10,,,,76,64
92580,note_on,5,0,11,,,,,,,,10,,,,74,10
92580,note_on,5,0,10,,,,,,,,8,,,,77,30
92580,note_on,40,0,12,,,,,,,,11,,,,62,10
92580,note_on,5,0,6,,,,,,,,4,,,,74,30
92580,note_on,5,0,5,,,,,,,,3,,,,77,30
92580,note_on,40,0,7,,,,,,,,5,,,,62,30
92660,note_off,80,0,7,,,,,,,,5,,,,62,64
92660,note_off,80,0,12,,,,,,,,11,,,,62,64
92700,note_on,40,0,7,,,,,,,,5,,,,62,30
92700,note_on,40,0,12,,,,,,,,11,,,,62,10
92760,note_off,180,0,10,,,,,,,,8,,,,77,64
92760,note_on,0,0,10,,,,,,,,8,,,,79,30
92760,note_on,0,0,11,,,,,,,,10,,,,76,10
92760,note_off,180,0,5,,,,,,,,3,,,,77,64
92760,note_on,0,0,6,,,,,,,,4,,,,76,30
92760,note_on,0,0,5,,,,,,,,3,,,,79,30
92760,note_off,180,0,6,,,,,,,,4,,,,74,64
92760,note_off,180,0,11,,,,,,,,10,,,,74,64
92780,note_off,80,0,12,,,,,,,,11,,,,62,64
92780,note_off,80,0,7,,,,,,,,5,,,,62,64
92815,note_off,55,0,5,,,,,,,,3,,,,79,64
92815,note_off,55,0,6,,,,,,,,4,,,,76,64
92815,note_off,55,0,11,,,,,,,,10,,,,76,64
92815,note_off,55,0,10,,,,,,,,8,,,,79,64
92820,note_on,15200,0,9,,,,,,,,7,,,,38,60
92820,note_on,15200,0,14,,,,,,,,13,,,,38,60
92820,note_on,18440,0,1,,,,,,,,0,,,,62,60
92820,note_on,18440,0,2,,,,,,,,0,,,,50,60
92820,note_on,15200,0,13,,,,,,,,12,,,,50,60
92820,note_on,40,0,12,,,,,,,,11,,,,62,60
92820,note_on,5,0,5,,,,,,,,3,,,,77,75
92820,note_on,15200,0,8,,,,,,,,6,,,,50,60
92820,note_on,5,0,11,,,,,,,,10,,,,74,60
92820,note_on,5,0,6,,,,,,,,4,,,,74,75
92820,note_on,5,0,10,,,,,,,,8,,,,77,60
92820,note_on,40,0,7,,,,,,,,5,,,,62,60
92820,note_on,24560,0,15,,,,,,,,14,,,,38,60
92860,note_off,40,0,10,,,,,,,,8,,,,77,64
92860,note_off,40,0,6,,,,,,,,4,,,,74,64
92860,note_off,40,0,11,,,,,,,,10,,,,74,64
92860,note_off,40,0,5,,,,,,,,3,,,,77,64
92880,note_on,20,0,10,,,,,,,,8,,,,86,60
92880,note_on,20,0,6,,,,,,,,4,,,,82,75
92880,note_on,20,0,11,,,,,,,,10,,,,82,60
92880,note_on,20,0,5,,,,,,,,3,,,,86,75
92920,note_off,40,0,10,,,,,,,,8,,,,86,64
92920,note_off,40,0,6,,,,,,,,4,,,,82,64
92920,note_off,40,0,11,,,,,,,,10,,,,82,64
92920,note_off,40,0,5,,,,,,,,3,,,,86,64
92935,note_off,115,0,1,,,,,,,,0,,,,62,64
92935,note_off,115,0,12,,,,,,,,11,,,,62,64
92935,note_off,115,0,7,,,,,,,,5,,,,62,64
92940,note_on,20,0,11,,,,,,,,10,,,,81,60
92940,note_on,20,0,6,,,,,,,,4,,,,81,75
92940,note_on,5,0,12,,,,,,,,11,,,,74,60
92940,note_on,20,0,5,,,,,,,,3,,,,84,75
92940,note_on,20,0,10,,,,,,,,8,,,,84,60
92940,note_on,5,0,1,,,,,,,,0,,,,62,60
92940,note_on,5,0,7,,,,,,,,5,,,,74,60
92980,note_off,40,0,5,,,,,,,,3,,,,84,64
92980,note_off,40,0,10,,,,,,,,8,,,,84,64
92980,note_off,40,0,6,,,,,,,,4,,,,81,64
92980,note_off,40,0,11,,,,,,,,10,,,,81,64
93000,note_on,20,0,11,,,,,,,,10,,,,79,60
93000,note_on,20,0,5,,,,,,,,3,,,,82,75
93000,note_on,20,0,10,,,,,,,,8,,,,82,60
93000,note_on,20,0,6,,,,,,,,4,,,,79,75
93040,note_off,40,0,10,,,,,,,,8,,,,82,64
93040,note_off,40,0,5,,,,,,,,3,,,,82,64
93040,note_off,40,0,11,,,,,,,,10,,,,79,64
93040,note_off,40,0,6,,,,,,,,4,,,,79,64
93055,note_off,115,0,7,,,,,,,,5,,,,74,64
93055,note_off,235,0,15,,,,,,,,14,,,,38,64
93055,note_off,235,0,13,,,,,,,,12,,,,50,64
93055,note_off,235,0,14,,,,,,,,13,,,,38,64
93055,note_off,115,0,12,,,,,,,,11,,,,74,64
93055,note_off,235,0,9,,,,,,,,7,,,,38,64
93055,note_off,235,0,2,,,,,,,,0,,,,50,64
93055,note_off,235,0,8,,,,,,,,6,,,,50,64
93060,note_on,5,0,9,,,,,,,,7,,,,38,60
93060,note_on,5,0,2,,,,,,,,0,,,,50,60
93060,note_on,5,0,13,,,,,,,,12,,,,50,60
93060,note_on,20,0,10,,,,,,,,8,,,,81,60
93060,note_on,5,0,7,,,,,,,,5,,,,62,60
93060,note_on,5,0,8,,,,,,,,6,,,,50,60
93060,note_on,20,0,11,,,,,,,,10,,,,77,60
93060,note_on,20,0,6,,,,,,,,4,,,,77,75
93060,note_on,5,0,15,,,,,,,,14,,,,38,60
93060,note_on,20,0,5,,,,,,,,3,,,,81,75
93060,note_on,5,0,14,,,,,,,,13,,,,38,60
93060,note_on,5,0,12,,,,,,,,11,,,,62,60
93100,note_off,40,0,10,,,,,,,,8,,,,81,64
93100,note_off,40,0,11,,,,,,,,10,,,,77,64
93100,note_off,40,0,6,,,,,,,,4,,,,77,64
93100,note_off,40,0,5,,,,,,,,3,,,,81,64
93120,note_on,20,0,11,,,,,,,,10,,,,82,60
93120,note_on,20,0,6,,,,,,,,4,,,,82,75
93120,note_on,20,0,10,,,,,,,,8,,,,86,60
93120,note_on,20,0,5,,,,,,,,3,,,,86,75
93160,note_off,40,0,5,,,,,,,,3,,,,86,64
93160,note_off,40,0,10,,,,,,,,8,,,,86,64
93160,note_off,40,0,6,,,,,,,,4,,,,82,64
93160,note_off,40,0,11,,,,,,,,10,,,,82,64
93175,note_off,115,0,2,,,,,,,,0,,,,50,64
93175,note_off,115,0,8,,,,,,,,6,,,,50,64
93175,note_off,115,0,13,,,,,,,,12,,,,50,64
93175,note_off,115,0,12,,,,,,,,11,,,,62,64
93175,note_off,115,0,15,,,,,,,,14,,,,38,64
93175,note_off,115,0,7,,,,,,,,5,,,,62,64
93175,note_off,115,0,14,,,,,,,,13,,,,38,64
93175,note_off,235,0,1,,,,,,,,0,,,,62,64
93175,note_off,115,0,9,,,,,,,,7,,,,38,64
93180,note_on,20,0,10,,,,,,,,8,,,,84,60
93180,note_on,5,0,9,,,,,,,,7,,,,26,60
93180,note_on,5,0,13,,,,,,,,12,,,,38,60
93180,note_on,20,0,6,,,,,,,,4,,,,81,75
93180,note_on,5,0,15,,,,,,,,14,,,,26,60
93180,note_on,5,0,1,,,,,,,,0,,,,50,60
93180,note_on,5,0,7,,,,,,,,5,,,,50,60
93180,note_on,5,0,14,,,,,,,,13,,,,26,60
93180,note_on,5,0,8,,,,,,,,6,,,,38,60
93180,note_on,5,0,2,,,,,,,,0,,,,38,60
93180,note_on,20,0,5,,,,,,,,3,,,,84,75
93180,note_on,20,0,11,,,,,,,,10,,,,81,60
93180,note_on,5,0,12,,,,,,,,11,,,,50,60
93220,note_off,40,0,5,,,,,,,,3,,,,84,64
93220,note_off,40,0,6,,,,,,,,4,,,,81,64
93220,note_off,40,0,11,,,,,,,,10,,,,81,64
93220,note_off,40,0,10,,,,,,,,8,,,,84,64
93240,note_on,20,0,11,,,,,,,,10,,,,79,60
93240,note_on,20,0,6,,,,,,,,4,,,,79,75
93240,note_on,20,0,5,,,,,,,,3,,,,82,75
93240,note_on,20,0,10,,,,,,,,8,,,,82,60
93280,note_off,40,0,6,,,,,,,,4,,,,79,64
93280,note_off,40,0,5,,,,,,,,3,,,,82,64
93280,note_off,40,0,11,,,,,,,,10,,,,79,64
93280,note_off,40,0,10,,,,,,,,8,,,,82,64
93295,note_off,115,0,1,,,,,,,,0,,,,50,64
93295,note_off,115,0,13,,,,,,,,12,,,,38,64
93295,note_off,115,0,7,,,,,,,,5,,,,50,64
93295,note_off,115,0,15,,,,,,,,14,,,,26,64
93295,note_off,115,0,8,,,,,,,,6,,,,38,64
93295,note_off,115,0,14,,,,,,,,13,,,,26,64
93295,note_off,115,0,2,,,,,,,,0,,,,38,64
93295,note_off,115,0,9,,,,,,,,7,,,,26,64
93295,note_off,115,0,12,,,,,,,,11,,,,50,64
93300,note_on,5,0,15,,,,,,,,14,,,,26,60
93300,note_on,5,0,14,,,,,,,,13,,,,26,60
93300,note_on,20,0,6,,,,,,,,4,,,,77,75
93300,note_on,5,0,13,,,,,,,,12,,,,38,60
93300,note_on,5,0,12,,,,,,,,11,,,,50,60
93300,note_on,5,0,1,,,,,,,,0,,,,50,60
93300,note_on,20,0,5,,,,,,,,3,,,,81,75
93300,note_on,5,0,8,,,,,,,,6,,,,38,60
93300,note_on,20,0,10,,,,,,,,8,,,,81,60
93300,note_on,5,0,2,,,,,,,,0,,,,38,60
93300,note_on,20,0,11,,,,,,,,10,,,,77,60
93300,note_on,5,0,7,,,,,,,,5,,,,50,60
93300,note_on,5,0,9,,,,,,,,7,,,,26,60
93340,note_off,40,0,10,,,,,,,,8,,,,81,64
93340,note_off,40,0,11,,,,,,,,10,,,,77,64
93340,note_off,40,0,6,,,,,,,,4,,,,77,64
93340,note_off,40,0,5,,,,,,,,3,,,,81,64
93360,note_on,20,0,10,,,,,,,,8,,,,79,60
93360,note_on,20,0,6,,,,,,,,4,,,,76,75
93360,note_on,20,0,5,,,,,,,,3,,,,79,75
93360,note_on,20,0,11,,,,,,,,10,,,,76,60
93400,note_off,40,0,10,,,,,,,,8,,,,79,64
93400,note_off,40,0,11,,,,,,,,10,,,,76,64
93400,note_off,40,0,6,,,,,,,,4,,,,76,64
93400,note_off,40,0,5,,,,,,,,3,,,,79,64
93415,note_off,115,0,8,,,,,,,,6,,,,38,64
93415,note_off,115,0,7,,,,,,,,5,,,,50,64
93415,note_off,115,0,15,,,,,,,,14,,,,26,64
93415,note_off,115,0,12,,,,,,,,11,,,,50,64
93415,note_off,115,0,1,,,,,,,,0,,,,50,64
93415,note_off,115,0,13,,,,,,,,12,,,,38,64
93415,note_off,115,0,2,,,,,,,,0,,,,38,64
93415,note_off,115,0,14,,,,,,,,13,,,,26,64
93415,note_off,115,0,9,,,,,,,,7,,,,26,64
93420,note_on,5,0,9,,,,,,,,7,,,,26,60
93420,note_on,5,0,14,,,,,,,,13,,,,26,60
93420,note_on,5,0,7,,,,,,,,5,,,,50,60
93420,note_on,20,0,11,,,,,,,,10,,,,74,60
93420,note_on,20,0,6,,,,,,,,4,,,,74,75
93420,note_on,20,0,5,,,,,,,,3,,,,77,75
93420,note_on,20,0,10,,,,,,,,8,,,,77,60
93420,note_on,5,0,8,,,,,,,,6,,,,38,60
93420,note_on,5,0,13,,,,,,,,12,,,,38,60
93420,note_on,5,0,2,,,,,,,,0,,,,38,60
93420,note_on,5,0,12,,,,,,,,11,,,,50,60
93420,note_on,5,0,15,,,,,,,,14,,,,26,60
93420,note_on,5,0,1,,,,,,,,0,,,,50,60
93460,note_off,40,0,6,,,,,,,,4,,,,74,64
93460,note_off,40,0,10,,,,,,,,8,,,,77,64
93460,note_off,40,0,5,,,,,,,,3,,,,77,64
93460,note_off,40,0,11,,,,,,,,10,,,,74,64
93480,note_on,20,0,10,,,,,,,,8,,,,76,60
93480,note_on,20,0,11,,,,,,,,10,,,,73,60
93480,note_on,20,0,5,,,,,,,,3,,,,76,75
93480,note_on,20,0,6,,,,,,,,4,,,,73,75
93520,note_off,40,0,10,,,,,,,,8,,,,76,64
93520,note_off,40,0,6,,,,,,,,4,,,,73,64
93520,note_off,40,0,11,,,,,,,,10,,,,73,64
93520,note_off,40,0,5,,,,,,,,3,,,,76,64
93535,note_off,115,0,2,,,,,,,,0,,,,38,64
93535,note_off,115,0,13,,,,,,,,12,,,,38,64
93535,note_off,115,0,12,,,,,,,,11,,,,50,64
93535,note_off,115,0,1,,,,,,,,0,,,,50,64
93535,note_off,115,0,8,,,,,,,,6,,,,38,64
93535,note_off,115,0,15,,,,,,,,14,,,,26,64
93535,note_off,115,0,7,,,,,,,,5,,,,50,64
93535,note_off,115,0,9,,,,,,,,7,,,,26,64
93535,note_off,115,0,14,,,,,,,,13,,,,26,64
93540,note_on,20,0,11,,,,,,,,10,,,,74,60
93540,note_on,5,0,14,,,,,,,,13,,,,33,60
93540,note_on,5,0,2,,,,,,,,0,,,,45,60
93540,note_on,5,0,9,,,,,,,,7,,,,33,60
93540,note_on,5,0,12,,,,,,,,11,,,,57,60
93540,note_on,5,0,7,,,,,,,,5,,,,57,60
93540,note_on,5,0,13,,,,,,,,12,,,,45,60
93540,note_on,5,0,1,,,,,,,,0,,,,57,60
93540,note_on,20,0,6,,,,,,,,4,,,,74,75
93540,note_on,20,0,5,,,,,,,,3,,,,77,75
93540,note_on,5,0,8,,,,,,,,6,,,,45,60
93540,note_on,5,0,15,,,,,,,,14,,,,33,60
93540,note_on,20,0,10,,,,,,,,8,,,,77,60
93580,note_off,40,0,6,,,,,,,,4,,,,74,64
93580,note_off,40,0,5,,,,,,,,3,,,,77,64
93580,note_off,40,0,10,,,,,,,,8,,,,77,64
93580,note_off,40,0,11,,,,,,,,10,,,,74,64
93600,note_on,20,0,5,,,,,,,,3,,,,81,75
93600,note_on,20,0,6,,,,,,,,4,,,,77,75
93600,note_on,20,0,11,,,,,,,,10,,,,77,60
93600,note_on,20,0,10,,,,,,,,8,,,,81,60
93640,note_off,40,0,11,,,,,,,,10,,,,77,64
93640,note_off,40,0,10,,,,,,,,8,,,,81,64
93640,note_off,40,0,6,,,,,,,,4,,,,77,64
93640,note_off,40,0,5,,,,,,,,3,,,,81,64
93655,note_off,115,0,7,,,,,,,,5,,,,57,64
93655,note_off,115,0,12,,,,,,,,11,,,,57,64
93660,note_on,20,0,11,,,,,,,,10,,,,76,60
93660,note_on,20,0,5,,,,,,,,3,,,,79,75
93660,note_on,5,0,12,,,,,,,,11,,,,69,60
93660,note_on,5,0,7,,,,,,,,5,,,,69,60
93660,note_on,20,0,6,,,,,,,,4,,,,76,75
93660,note_on,20,0,10,,,,,,,,8,,,,79,60
93700,note_off,40,0,11,,,,,,,,10,,,,76,64
93700,note_off,40,0,6,,,,,,,,4,,,,76,64
93700,note_off,40,0,10,,,,,,,,8,,,,79,64
93700,note_off,40,0,5,,,,,,,,3,,,,79,64
93720,note_on,20,0,6,,,,,,,,4,,,,74,75
93720,note_on,20,0,10,,,,,,,,8,,,,77,60
93720,note_on,20,0,11,,,,,,,,10,,,,74,60
93720,note_on,20,0,5,,,,,,,,3,,,,77,75
93760,note_off,40,0,10,,,,,,,,8,,,,77,64
93760,note_off,40,0,11,,,,,,,,10,,,,74,64
93760,note_off,40,0,6,,,,,,,,4,,,,74,64
93760,note_off,40,0,5,,,,,,,,3,,,,77,64
93775,note_off,235,0,13,,,,,,,,12,,,,45,64
93775,note_off,235,0,15,,,,,,,,14,,,,33,64
93775,note_off,115,0,12,,,,,,,,11,,,,69,64
93775,note_off,235,0,8,,,,,,,,6,,,,45,64
93775,note_off,235,0,2,,,,,,,,0,,,,45,64
93775,note_off,115,0,7,,,,,,,,5,,,,69,64
93775,note_off,235,0,9,,,,,,,,7,,,,33,64
93775,note_off,235,0,14,,,,,,,,13,,,,33,64
93775,note_off,235,0,1,,,,,,,,0,,,,57,64
93780,note_on,5,0,8,,,,,,,,6,,,,45,60
93780,note_on,5,0,7,,,,,,,,5,,,,57,60
93780,note_on,20,0,10,,,,,,,,8,,,,76,60
93780,note_on,5,0,15,,,,,,,,14,,,,33,60
93780,note_on,5,0,14,,,,,,,,13,,,,33,60
93780,note_on,20,0,5,,,,,,,,3,,,,76,75
93780,note_on,5,0,9,,,,,,,,7,,,,33,60
93780,note_on,5,0,12,,,,,,,,11,,,,57,60
93780,note_on,20,0,11,,,,,,,,10,,,,73,60
93780,note_on,5,0,2,,,,,,,,0,,,,45,60
93780,note_on,5,0,1,,,,,,,,0,,,,57,60
93780,note_on,5,0,13,,,,,,,,12,,,,45,60
93780,note_on,20,0,6,,,,,,,,4,,,,73,75
93820,note_off,40,0,11,,,,,,,,10,,,,73,64
93820,note_off,40,0,5,,,,,,,,3,,,,76,64
93820,note_off,40,0,6,,,,,,,,4,,,,73,64
93820,note_off,40,0,10,,,,,,,,8,,,,76,64
93840,note_on,20,0,5,,,,,,,,3,,,,81,75
93840,note_on,20,0,11,,,,,,,,10,,,,77,60
93840,note_on,20,0,10,,,,,,,,8,,,,81,60
93840,note_on,20,0,6,,,,,,,,4,,,,77,75
93880,note_off,40,0,10,,,,,,,,8,,,,81,64
93880,note_off,40,0,5,,,,,,,,3,,,,81,64
93880,note_off,40,0,6,,,,,,,,4,,,,77,64
93880,note_off,40,0,11,,,,,,,,10,,,,77,64
93895,note_off,115,0,13,,,,,,,,12,,,,45,64
93895,note_off,115,0,12,,,,,,,,11,,,,57,64
93895,note_off,115,0,2,,,,,,,,0,,,,45,64
93895,note_off,115,0,7,,,,,,,,5,,,,57,64
93895,note_off,115,0,9,,,,,,,,7,,,,33,64
93895,note_off,115,0,8,,,,,,,,6,,,,45,64
93895,note_off,115,0,1,,,,,,,,0,,,,57,64
93895,note_off,115,0,14,,,,,,,,13,,,,33,64
93895,note_off,115,0,15,,,,,,,,14,,,,33,64
93900,note_on,5,0,14,,,,,,,,13,,,,33,60
93900,note_on,20,0,6,,,,,,,,4,,,,76,75
93900,note_on,5,0,12,,,,,,,,11,,,,57,60
93900,note_on,20,0,10,,,,,,,,8,,,,79,60
93900,note_on,5,0,2,,,,,,,,0,,,,45,60
93900,note_on,20,0,11,,,,,,,,10,,,,76,60
93900,note_on,5,0,15,,,,,,,,14,,,,33,60
93900,note_on,5,0,13,,,,,,,,12,,,,45,60
93900,note_on,5,0,8,,,,,,,,6,,,,45,60
93900,note_on,5,0,9,,,,,,,,7,,,,33,60
93900,note_on,20,0,5,,,,,,,,3,,,,79,75
93900,note_on,5,0,7,,,,,,,,5,,,,57,60
93900,note_on,5,0,1,,,,,,,,0,,,,57,60
93940,note_off,40,0,5,,,,,,,,3,,,,79,64
93940,note_off,40,0,10,,,,,,,,8,,,,79,64
93940,note_off,40,0,6,,,,,,,,4,,,,76,64
93940,note_off,40,0,11,,,,,,,,10,,,,76,64
93960,note_on,20,0,5,,,,,,,,3,,,,77,75
93960,note_on,20,0,10,,,,,,,,8,,,,77,60
93960,note_on,20,0,11,,,,,,,,10,,,,74,60
93960,note_on,20,0,6,,,,,,,,4,,,,74,75
94000,note_off,40,0,11,,,,,,,,10,,,,74,64
94000,note_off,40,0,10,,,,,,,,8,,,,77,64
94000,note_off,40,0,5,,,,,,,,3,,,,77,64
94000,note_off,40,0,6,,,,,,,,4,,,,74,64
94015,note_off,115,0,1,,,,,,,,0,,,,57,64
94015,note_off,115,0,12,,,,,,,,11,,,,57,64
94015,note_off,115,0,2,,,,,,,,0,,,,45,64
94015,note_off,115,0,13,,,,,,,,12,,,,45,64
94015,note_off,115,0,15,,,,,,,,14,,,,33,64
94015,note_off,115,0,7,,,,,,,,5,,,,57,64
94015,note_off,115,0,14,,,,,,,,13,,,,33,64
94015,note_off,115,0,9,,,,,,,,7,,,,33,64
94015,note_off,115,0,8,,,,,,,,6,,,,45,64
94020,note_on,5,0,7,,,,,,,,5,,,,57,60
94020,note_on,5,0,2,,,,,,,,0,,,,45,60
94020,note_on,5,0,13,,,,,,,,12,,,,45,60
94020,note_on,5,0,9,,,,,,,,7,,,,33,60
94020,note_on,5,0,15,,,,,,,,14,,,,33,60
94020,note_on,20,0,10,,,,,,,,8,,,,76,60
94020,note_on,20,0,11,,,,,,,,10,,,,73,60
94020,note_on,5,0,8,,,,,,,,6,,,,45,60
94020,note_on,5,0,14,,,,,,,,13,,,,33,60
94020,note_on,20,0,6,,,,,,,,4,,,,73,75
94020,note_on,5,0,12,,,,,,,,11,,,,57,60
94020,note_on,20,0,5,,,,,,,,3,,,,76,75
94020,note_on,5,0,1,,,,,,,,0,,,,57,60
94060,note_off,40,0,11,,,,,,,,10,,,,73,64
94060,note_off,40,0,6,,,,,,,,4,,,,73,64
94060,note_off,40,0,5,,,,,,,,3,,,,76,64
94060,note_off,40,0,10,,,,,,,,8,,,,76,64
94080,note_on,20,0,11,,,,,,,,10,,,,71,60
94080,note_on,20,0,6,,,,,,,,4,,,,71,75
94080,note_on,20,0,5,,,,,,,,3,,,,74,75
94080,note_on,20,0,10,,,,,,,,8,,,,74,60
94120,note_off,40,0,6,,,,,,,,4,,,,71,64
94120,note_off,40,0,5,,,,,,,,3,,,,74,64
94120,note_off,40,0,11,,,,,,,,10,,,,71,64
94120,note_off,40,0,10,,,,,,,,8,,,,74,64
94135,note_off,115,0,15,,,,,,,,14,,,,33,64
94135,note_off,115,0,8,,,,,,,,6,,,,45,64
94135,note_off,115,0,14,,,,,,,,13,,,,33,64
94135,note_off,115,0,1,,,,,,,,0,,,,57,64
94135,note_off,115,0,9,,,,,,,,7,,,,33,64
94135,note_off,115,0,12,,,,,,,,11,,,,57,64
94135,note_off,115,0,7,,,,,,,,5,,,,57,64
94135,note_off,115,0,2,,,,,,,,0,,,,45,64
94135,note_off,115,0,13,,,,,,,,12,,,,45,64
94140,note_on,20,0,10,,,,,,,,8,,,,73,60
94140,note_on,5,0,8,,,,,,,,6,,,,45,60
94140,note_on,5,0,14,,,,,,,,13,,,,33,60
94140,note_on,5,0,7,,,,,,,,5,,,,57,60
94140,note_on,20,0,5,,,,,,,,3,,,,73,75
94140,note_on,5,0,13,,,,,,,,12,,,,45,60
94140,note_on,20,0,11,,,,,,,,10,,,,69,60
94140,note_on,5,0,2,,,,,,,,0,,,,45,60
94140,note_on,5,0,9,,,,,,,,7,,,,33,60
94140,note_on,5,0,1,,,,,,,,0,,,,57,60
94140,note_on,5,0,15,,,,,,,,14,,,,33,60
94140,note_on,20,0,6,,,,,,,,4,,,,69,75
94140,note_on,5,0,12,,,,,,,,11,,,,57,60
94180,note_off,40,0,6,,,,,,,,4,,,,69,64
94180,note_off,40,0,11,,,,,,,,10,,,,69,64
94180,note_off,40,0,5,,,,,,,,3,,,,73,64
94180,note_off,40,0,10,,,,,,,,8,,,,73,64
94200,note_on,20,0,6,,,,,,,,4,,,,67,75
94200,note_on,20,0,11,,,,,,,,10,,,,67,60
94200,note_on,20,0,5,,,,,,,,3,,,,71,75
94200,note_on,20,0,10,,,,,,,,8,,,,71,60
94240,note_off,40,0,10,,,,,,,,8,,,,71,64
94240,note_off,40,0,5,,,,,,,,3,,,,71,64
94240,note_off,40,0,11,,,,,,,,10,,,,67,64
94240,note_off,40,0,6,,,,,,,,4,,,,67,64
94255,note_off,115,0,15,,,,,,,,14,,,,33,64
94255,note_off,115,0,8,,,,,,,,6,,,,45,64
94255,note_off,115,0,9,,,,,,,,7,,,,33,64
94255,note_off,115,0,2,,,,,,,,0,,,,45,64
94255,note_off,115,0,13,,,,,,,,12,,,,45,64
94255,note_off,115,0,1,,,,,,,,0,,,,57,64
94255,note_off,115,0,7,,,,,,,,5,,,,57,64
94255,note_off,115,0,14,,,,,,,,13,,,,33,64
94255,note_off,115,0,12,,,,,,,,11,,,,57,64
94260,note_on,5,0,12,,,,,,,,11,,,,62,60
94260,note_on,20,0,11,,,,,,,,10,,,,65,60
94260,note_on,5,0,1,,,,,,,,0,,,,62,60
94260,note_on,20,0,6,,,,,,,,4,,,,65,75
94260,note_on,5,0,9,,,,,,,,7,,,,38,60
94260,note_on,20,0,5,,,,,,,,3,,,,69,75
94260,note_on,5,0,14,,,,,,,,13,,,,38,60
94260,note_on,20,0,10,,,,,,,,8,,,,69,60
94260,note_on,5,0,8,,,,,,,,6,,,,50,60
94260,note_on,5,0,7,,,,,,,,5,,,,62,60
94260,note_on,5,0,13,,,,,,,,12,,,,50,60
94260,note_on,5,0,2,,,,,,,,0,,,,50,60
94260,note_on,5,0,15,,,,,,,,14,,,,38,60
94300,note_off,40,0,10,,,,,,,,8,,,,69,64
94300,note_off,40,0,5,,,,,,,,3,,,,69,64
94320,note_on,20,0,5,,,,,,,,3,,,,67,75
94320,note_on,20,0,10,,,,,,,,8,,,,67,60
94340,note_off,80,0,6,,,,,,,,4,,,,65,64
94340,note_off,80,0,11,,,,,,,,10,,,,65,64
94360,note_off,40,0,10,,,,,,,,8,,,,67,64
94360,note_off,40,0,5,,,,,,,,3,,,,67,64
94375,note_off,115,0,7,,,,,,,,5,,,,62,64
94375,note_off,115,0,12,,,,,,,,11,,,,62,64
94380,note_on,5,0,7,,,,,,,,5,,,,74,60
94380,note_on,20,0,5,,,,,,,,3,,,,65,75
94380,note_on,5,0,12,,,,,,,,11,,,,74,60
94380,note_on,20,0,10,,,,,,,,8,,,,65,60
94420,note_off,40,0,5,,,,,,,,3,,,,65,64
94420,note_off,40,0,10,,,,,,,,8,,,,65,64
94440,note_on,20,0,5,,,,,,,,3,,,,62,75
94440,note_on,20,0,10,,,,,,,,8,,,,62,60
94480,note_off,40,0,5,,,,,,,,3,,,,62,64
94480,note_off,40,0,10,,,,,,,,8,,,,62,64
94495,note_off,235,0,13,,,,,,,,12,,,,50,64
94495,note_off,235,0,8,,,,,,,,6,,,,50,64
94495,note_off,235,0,15,,,,,,,,14,,,,38,64
94495,note_off,115,0,7,,,,,,,,5,,,,74,64
94495,note_off,115,0,12,,,,,,,,11,,,,74,64
94495,note_off,235,0,1,,,,,,,,0,,,,62,64
94495,note_off,235,0,9,,,,,,,,7,,,,38,64
94495,note_off,235,0,14,,,,,,,,13,,,,38,64
94495,note_off,235,0,2,,,,,,,,0,,,,50,64
94500,note_on,5,0,13,,,,,,,,12,,,,50,60
94500,note_on,160,0,6,,,,,,,,4,,,,62,75
94500,note_on,5,0,14,,,,,,,,13,,,,38,60
94500,note_on,20,0,5,,,,,,,,3,,,,65,75
94500,note_on,5,0,9,,,,,,,,7,,,,38,60
94500,note_on,5,0,8,,,,,,,,6,,,,50,60
94500,note_on,5,0,7,,,,,,,,5,,,,62,60
94500,note_on,5,0,1,,,,,,,,0,,,,62,60
94500,note_on,5,0,12,,,,,,,,11,,,,62,60
94500,note_on,5,0,2,,,,,,,,0,,,,50,60
94500,note_on,5,0,15,,,,,,,,14,,,,38,60
94500,note_on,20,0,10,,,,,,,,8,,,,65,60
94500,note_on,160,0,11,,,,,,,,10,,,,62,60
94540,note_off,40,0,5,,,,,,,,3,,,,65,64
94540,note_off,40,0,6,,,,,,,,4,,,,62,64
94540,note_off,40,0,10,,,,,,,,8,,,,65,64
94540,note_off,40,0,11,,,,,,,,10,,,,62,64
94560,note_on,20,0,6,,,,,,,,4,,,,64,75
94560,note_on,20,0,11,,,,,,,,10,,,,64,60
94560,note_on,20,0,10,,,,,,,,8,,,,67,60
94560,note_on,20,0,5,,,,,,,,3,,,,67,75
94600,note_off,40,0,10,,,,,,,,8,,,,67,64
94600,note_off,40,0,5,,,,,,,,3,,,,67,64
94600,note_off,40,0,11,,,,,,,,10,,,,64,64
94600,note_off,40,0,6,,,,,,,,4,,,,64,64
94615,note_off,115,0,15,,,,,,,,14,,,,38,64
94615,note_off,115,0,9,,,,,,,,7,,,,38,64
94615,note_off,115,0,2,,,,,,,,0,,,,50,64
94615,note_off,115,0,13,,,,,,,,12,,,,50,64
94615,note_off,115,0,14,,,,,,,,13,,,,38,64
94615,note_off,115,0,7,,,,,,,,5,,,,62,64
94615,note_off,115,0,12,,,,,,,,11,,,,62,64
94615,note_off,115,0,8,,,,,,,,6,,,,50,64
94615,note_off,115,0,1,,,,,,,,0,,,,62,64
94620,note_on,5,0,1,,,,,,,,0,,,,50,60
94620,note_on,5,0,15,,,,,,,,14,,,,26,60
94620,note_on,5,0,7,,,,,,,,5,,,,50,60
94620,note_on,5,0,8,,,,,,,,6,,,,38,60
94620,note_on,20,0,10,,,,,,,,8,,,,69,60
94620,note_on,20,0,5,,,,,,,,3,,,,69,75
94620,note_on,20,0,6,,,,,,,,4,,,,65,75
94620,note_on,5,0,9,,,,,,,,7,,,,26,60
94620,note_on,5,0,12,,,,,,,,11,,,,50,60
94620,note_on,5,0,14,,,,,,,,13,,,,26,60
94620,note_on,5,0,13,,,,,,,,12,,,,38,60
94620,note_on,5,0,2,,,,,,,,0,,,,38,60
94620,note_on,20,0,11,,,,,,,,10,,,,65,60
94660,note_off,40,0,11,,,,,,,,10,,,,65,64
94660,note_off,40,0,5,,,,,,,,3,,,,69,64
94660,note_off,40,0,6,,,,,,,,4,,,,65,64
94660,note_off,40,0,10,,,,,,,,8,,,,69,64
94680,note_on,20,0,10,,,,,,,,8,,,,65,60
94680,note_on,20,0,11,,,,,,,,10,,,,62,60
94680,note_on,20,0,5,,,,,,,,3,,,,65,75
94680,note_on,20,0,6,,,,,,,,4,,,,62,75
94720,note_off,40,0,5,,,,,,,,3,,,,65,64
94720,note_off,40,0,11,,,,,,,,10,,,,62,64
94720,note_off,40,0,6,,,,,,,,4,,,,62,64
94720,note_off,40,0,10,,,,,,,,8,,,,65,64
94735,note_off,115,0,1,,,,,,,,0,,,,50,64
94735,note_off,115,0,8,,,,,,,,6,,,,38,64
94735,note_off,115,0,14,,,,,,,,13,,,,26,64
94735,note_off,115,0,12,,,,,,,,11,,,,50,64
94735,note_off,115,0,2,,,,,,,,0,,,,38,64
94735,note_off,115,0,13,,,,,,,,12,,,,38,64
94735,note_off,115,0,15,,,,,,,,14,,,,26,64
94735,note_off,115,0,9,,,,,,,,7,,,,26,64
94735,note_off,115,0,7,,,,,,,,5,,,,50,64
94740,note_on,5,0,15,,,,,,,,14,,,,26,60
94740,note_on,5,0,9,,,,,,,,7,,,,26,60
94740,note_on,5,0,1,,,,,,,,0,,,,50,60
94740,note_on,20,0,11,,,,,,,,10,,,,65,60
94740,note_on,5,0,14,,,,,,,,13,,,,26,60
94740,note_on,5,0,2,,,,,,,,0,,,,38,60
94740,note_on,20,0,10,,,,,,,,8,,,,69,60
94740,note_on,5,0,13,,,,,,,,12,,,,38,60
94740,note_on,5,0,12,,,,,,,,11,,,,50,60
94740,note_on,5,0,7,,,,,,,,5,,,,50,60
94740,note_on,5,0,8,,,,,,,,6,,,,38,60
94740,note_on,20,0,5,,,,,,,,3,,,,69,75
94740,note_on,20,0,6,,,,,,,,4,,,,65,75
94780,note_off,40,0,6,,,,,,,,4,,,,65,64
94780,note_off,40,0,11,,,,,,,,10,,,,65,64
94780,note_off,40,0,10,,,,,,,,8,,,,69,64
94780,note_off,40,0,5,,,,,,,,3,,,,69,64
94800,note_on,20,0,11,,,,,,,,10,,,,67,60
94800,note_on,20,0,6,,,,,,,,4,,,,67,75
94800,note_on,20,0,10,,,,,,,,8,,,,71,60
94800,note_on,20,0,5,,,,,,,,3,,,,71,75
94840,note_off,40,0,6,,,,,,,,4,,,,67,64
94840,note_off,40,0,10,,,,,,,,8,,,,71,64
94840,note_off,40,0,5,,,,,,,,3,,,,71,64
94840,note_off,40,0,11,,,,,,,,10,,,,67,64
94855,note_off,115,0,9,,,,,,,,7,,,,26,64
94855,note_off,115,0,1,,,,,,,,0,,,,50,64
94855,note_off,115,0,12,,,,,,,,11,,,,50,64
94855,note_off,115,0,8,,,,,,,,6,,,,38,64
94855,note_off,115,0,14,,,,,,,,13,,,,26,64
94855,note_off,115,0,7,,,,,,,,5,,,,50,64
94855,note_off,115,0,2,,,,,,,,0,,,,38,64
94855,note_off,115,0,13,,,,,,,,12,,,,38,64
94855,note_off,115,0,15,,,,,,,,14,,,,26,64
94860,note_on,20,0,10,,,,,,,,8,,,,73,60
94860,note_on,5,0,14,,,,,,,,13,,,,26,60
94860,note_on,20,0,6,,,,,,,,4,,,,69,75
94860,note_on,5,0,1,,,,,,,,0,,,,50,60
94860,note_on,20,0,11,,,,,,,,10,,,,69,60
94860,note_on,5,0,7,,,,,,,,5,,,,50,60
94860,note_on,5,0,9,,,,,,,,7,,,,26,60
94860,note_on,5,0,13,,,,,,,,12,,,,38,60
94860,note_on,5,0,8,,,,,,,,6,,,,38,60
94860,note_on,5,0,2,,,,,,,,0,,,,38,60
94860,note_on,5,0,15,,,,,,,,14,,,,26,60
94860,note_on,5,0,12,,,,,,,,11,,,,50,60
94860,note_on,20,0,5,,,,,,,,3,,,,73,75
94900,note_off,40,0,5,,,,,,,,3,,,,73,64
94900,note_off,40,0,6,,,,,,,,4,,,,69,64
94900,note_off,40,0,11,,,,,,,,10,,,,69,64
94900,note_off,40,0,10,,,,,,,,8,,,,73,64
94920,note_on,20,0,5,,,,,,,,3,,,,69,75
94920,note_on,20,0,6,,,,,,,,4,,,,65,75
94920,note_on,20,0,11,,,,,,,,10,,,,65,60
94920,note_on,20,0,10,,,,,,,,8,,,,69,60
94960,note_off,40,0,5,,,,,,,,3,,,,69,64
94960,note_off,40,0,10,,,,,,,,8,,,,69,64
94960,note_off,40,0,11,,,,,,,,10,,,,65,64
94960,note_off,40,0,6,,,,,,,,4,,,,65,64
94975,note_off,115,0,12,,,,,,,,11,,,,50,64
94975,note_off,115,0,9,,,,,,,,7,,,,26,64
94975,note_off,115,0,7,,,,,,,,5,,,,50,64
94975,note_off,115,0,15,,,,,,,,14,,,,26,64
94975,note_off,115,0,1,,,,,,,,0,,,,50,64
94975,note_off,115,0,13,,,,,,,,12,,,,38,64
94975,note_off,115,0,2,,,,,,,,0,,,,38,64
94975,note_off,115,0,14,,,,,,,,13,,,,26,64
94975,note_off,115,0,8,,,,,,,,6,,,,38,64
94980,note_on,20,0,5,,,,,,,,3,,,,74,75
94980,note_on,5,0,13,,,,,,,,12,,,,50,60
94980,note_on,5,0,8,,,,,,,,6,,,,50,60
94980,note_on,20,0,6,,,,,,,,4,,,,69,75
94980,note_on,5,0,2,,,,,,,,0,,,,50,60
94980,note_on,5,0,14,,,,,,,,13,,,,38,60
94980,note_on,5,0,7,,,,,,,,5,,,,62,60
94980,note_on,5,0,12,,,,,,,,11,,,,62,60
94980,note_on,5,0,9,,,,,,,,7,,,,38,60
94980,note_on,20,0,11,,,,,,,,10,,,,69,60
94980,note_on,20,0,10,,,,,,,,8,,,,74,60
94980,note_on,5,0,15,,,,,,,,14,,,,38,60
94980,note_on,5,0,1,,,,,,,,0,,,,62,60
95020,note_off,40,0,5,,,,,,,,3,,,,74,64
95020,note_off,40,0,10,,,,,,,,8,,,,74,64
95040,note_on,20,0,10,,,,,,,,8,,,,76,60
95040,note_on,20,0,5,,,,,,,,3,,,,76,75
95060,note_off,80,0,11,,,,,,,,10,,,,69,64
95060,note_off,80,0,6,,,,,,,,4,,,,69,64
95080,note_off,40,0,10,,,,,,,,8,,,,76,64
95080,note_off,40,0,5,,,,,,,,3,,,,76,64
95095,note_off,115,0,12,,,,,,,,11,,,,62,64
95095,note_off,115,0,7,,,,,,,,5,,,,62,64
95100,note_on,20,0,5,,,,,,,,3,,,,77,75
95100,note_on,5,0,12,,,,,,,,11,,,,74,60
95100,note_on,20,0,10,,,,,,,,8,,,,77,60
95100,note_on,5,0,7,,,,,,,,5,,,,74,60
95140,note_off,40,0,5,,,,,,,,3,,,,77,64
95140,note_off,40,0,10,,,,,,,,8,,,,77,64
95160,note_on,20,0,5,,,,,,,,3,,,,74,75
95160,note_on,20,0,10,,,,,,,,8,,,,74,60
95200,note_off,40,0,5,,,,,,,,3,,,,74,64
95200,note_off,40,0,10,,,,,,,,8,,,,74,64
95215,note_off,235,0,9,,,,,,,,7,,,,38,64
95215,note_off,235,0,1,,,,,,,,0,,,,62,64
95215,note_off,235,0,14,,,,,,,,13,,,,38,64
95215,note_off,115,0,12,,,,,,,,11,,,,74,64
95215,note_off,235,0,15,,,,,,,,14,,,,38,64
95215,note_off,235,0,2,,,,,,,,0,,,,50,64
95215,note_off,235,0,8,,,,,,,,6,,,,50,64
95215,note_off,115,0,7,,,,,,,,5,,,,74,64
95215,note_off,235,0,13,,,,,,,,12,,,,50,64
95220,note_on,5,0,12,,,,,,,,11,,,,62,60
95220,note_on,5,0,8,,,,,,,,6,,,,50,60
95220,note_on,5,0,9,,,,,,,,7,,,,38,60
95220,note_on,5,0,14,,,,,,,,13,,,,38,60
95220,note_on,20,0,10,,,,,,,,8,,,,77,60
95220,note_on,5,0,13,,,,,,,,12,,,,50,60
95220,note_on,5,0,2,,,,,,,,0,,,,50,60
95220,note_on,5,0,7,,,,,,,,5,,,,62,60
95220,note_on,160,0,6,,,,,,,,4,,,,74,75
95220,note_on,5,0,15,,,,,,,,14,,,,38,60
95220,note_on,20,0,5,,,,,,,,3,,,,77,75
95220,note_on,5,0,1,,,,,,,,0,,,,62,60
95220,note_on,160,0,11,,,,,,,,10,,,,74,60
95260,note_off,40,0,11,,,,,,,,10,,,,74,64
95260,note_off,40,0,5,,,,,,,,3,,,,77,64
95260,note_off,40,0,10,,,,,,,,8,,,,77,64
95260,note_off,40,0,6,,,,,,,,4,,,,74,64
95280,note_on,20,0,5,,,,,,,,3,,,,79,75
95280,note_on,20,0,11,,,,,,,,10,,,,76,60
95280,note_on,20,0,6,,,,,,,,4,,,,76,75
95280,note_on,20,0,10,,,,,,,,8,,,,79,60
95320,note_off,40,0,5,,,,,,,,3,,,,79,64
95320,note_off,40,0,11,,,,,,,,10,,,,76,64
95320,note_off,40,0,10,,,,,,,,8,,,,79,64
95320,note_off,40,0,6,,,,,,,,4,,,,76,64
95335,note_off,115,0,15,,,,,,,,14,,,,38,64
95335,note_off,115,0,9,,,,,,,,7,,,,38,64
95335,note_off,115,0,14,,,,,,,,13,,,,38,64
95335,note_off,115,0,12,,,,,,,,11,,,,62,64
95335,note_off,115,0,1,,,,,,,,0,,,,62,64
95335,note_off,115,0,13,,,,,,,,12,,,,50,64
95335,note_off,115,0,2,,,,,,,,0,,,,50,64
95335,note_off,115,0,7,,,,,,,,5,,,,62,64
95335,note_off,115,0,8,,,,,,,,6,,,,50,64
95340,note_on,5,0,9,,,,,,,,7,,,,26,60
95340,note_on,5,0,13,,,,,,,,12,,,,38,60
95340,note_on,20,0,11,,,,,,,,10,,,,77,60
95340,note_on,5,0,15,,,,,,,,14,,,,26,60
95340,note_on,5,0,7,,,,,,,,5,,,,50,60
95340,note_on,5,0,1,,,,,,,,0,,,,50,60
95340,note_on,5,0,2,,,,,,,,0,,,,38,60
95340,note_on,5,0,14,,,,,,,,13,,,,26,60
95340,note_on,5,0,8,,,,,,,,6,,,,38,60
95340,note_on,20,0,10,,,,,,,,8,,,,81,60
95340,note_on,20,0,6,,,,,,,,4,,,,77,75
95340,note_on,5,0,12,,,,,,,,11,,,,50,60
95340,note_on,20,0,5,,,,,,,,3,,,,81,75
95380,note_off,40,0,10,,,,,,,,8,,,,81,64
95380,note_off,40,0,5,,,,,,,,3,,,,81,64
95380,note_off,40,0,6,,,,,,,,4,,,,77,64
95380,note_off,40,0,11,,,,,,,,10,,,,77,64
95400,note_on,20,0,5,,,,,,,,3,,,,77,75
95400,note_on,20,0,6,,,,,,,,4,,,,74,75
95400,note_on,20,0,10,,,,,,,,8,,,,77,60
95400,note_on,20,0,11,,,,,,,,10,,,,74,60
95440,note_off,40,0,10,,,,,,,,8,,,,77,64
95440,note_off,40,0,11,,,,,,,,10,,,,74,64
95440,note_off,40,0,5,,,,,,,,3,,,,77,64
95440,note_off,40,0,6,,,,,,,,4,,,,74,64
95455,note_off,115,0,1,,,,,,,,0,,,,50,64
95455,note_off,115,0,8,,,,,,,,6,,,,38,64
95455,note_off,115,0,14,,,,,,,,13,,,,26,64
95455,note_off,115,0,12,,,,,,,,11,,,,50,64
95455,note_off,115,0,7,,,,,,,,5,,,,50,64
95455,note_off,115,0,15,,,,,,,,14,,,,26,64
95455,note_off,115,0,2,,,,,,,,0,,,,38,64
95455,note_off,115,0,13,,,,,,,,12,,,,38,64
95455,note_off,115,0,9,,,,,,,,7,,,,26,64
95460,note_on,20,0,5,,,,,,,,3,,,,81,75
95460,note_on,5,0,7,,,,,,,,5,,,,50,60
95460,note_on,5,0,12,,,,,,,,11,,,,50,60
95460,note_on,5,0,14,,,,,,,,13,,,,26,60
95460,note_on,5,0,15,,,,,,,,14,,,,26,60
95460,note_on,5,0,9,,,,,,,,7,,,,26,60
95460,note_on,20,0,10,,,,,,,,8,,,,81,60
95460,note_on,20,0,11,,,,,,,,10,,,,77,60
95460,note_on,5,0,2,,,,,,,,0,,,,38,60
95460,note_on,5,0,13,,,,,,,,12,,,,38,60
95460,note_on,20,0,6,,,,,,,,4,,,,77,75
95460,note_on,5,0,8,,,,,,,,6,,,,38,60
95460,note_on,5,0,1,,,,,,,,0,,,,50,60
95500,note_off,40,0,10,,,,,,,,8,,,,81,64
95500,note_off,40,0,5,,,,,,,,3,,,,81,64
95500,note_off,40,0,11,,,,,,,,10,,,,77,64
95500,note_off,40,0,6,,,,,,,,4,,,,77,64
95520,note_on,20,0,6,,,,,,,,4,,,,79,75
95520,note_on,20,0,10,,,,,,,,8,,,,83,60
95520,note_on,20,0,11,,,,,,,,10,,,,79,60
95520,note_on,20,0,5,,,,,,,,3,,,,83,75
95560,note_off,40,0,11,,,,,,,,10,,,,79,64
95560,note_off,40,0,10,,,,,,,,8,,,,83,64
95560,note_off,40,0,6,,,,,,,,4,,,,79,64
95560,note_off,40,0,5,,,,,,,,3,,,,83,64
95575,note_off,115,0,8,,,,,,,,6,,,,38,64
95575,note_off,115,0,12,,,,,,,,11,,,,50,64
95575,note_off,115,0,2,,,,,,,,0,,,,38,64
95575,note_off,115,0,7,,,,,,,,5,,,,50,64
95575,note_off,115,0,14,,,,,,,,13,,,,26,64
95575,note_off,115,0,13,,,,,,,,12,,,,38,64
95575,note_off,115,0,1,,,,,,,,0,,,,50,64
95575,note_off,115,0,9,,,,,,,,7,,,,26,64
95575,note_off,115,0,15,,,,,,,,14,,,,26,64
95580,note_on,5,0,13,,,,,,,,12,,,,38,60
95580,note_on,5,0,2,,,,,,,,0,,,,38,60
95580,note_on,5,0,9,,,,,,,,7,,,,26,60
95580,note_on,20,0,11,,,,,,,,10,,,,81,60
95580,note_on,20,0,10,,,,,,,,8,,,,85,60
95580,note_on,5,0,8,,,,,,,,6,,,,38,60
95580,note_on,20,0,6,,,,,,,,4,,,,81,75
95580,note_on,5,0,12,,,,,,,,11,,,,50,60
95580,note_on,5,0,7,,,,,,,,5,,,,50,60
95580,note_on,5,0,1,,,,,,,,0,,,,50,60
95580,note_on,5,0,14,,,,,,,,13,,,,26,60
95580,note_on,5,0,15,,,,,,,,14,,,,26,60
95580,note_on,20,0,5,,,,,,,,3,,,,85,75
95620,note_off,40,0,6,,,,,,,,4,,,,81,64
95620,note_off,40,0,11,,,,,,,,10,,,,81,64
95620,note_off,40,0,5,,,,,,,,3,,,,85,64
95620,note_off,40,0,10,,,,,,,,8,,,,85,64
95640,note_on,20,0,11,,,,,,,,10,,,,77,60
95640,note_on,20,0,10,,,,,,,,8,,,,81,60
95640,note_on,20,0,5,,,,,,,,3,,,,81,75
95640,note_on,20,0,6,,,,,,,,4,,,,77,75
95680,note_off,40,0,11,,,,,,,,10,,,,77,64
95680,note_off,40,0,10,,,,,,,,8,,,,81,64
95680,note_off,40,0,6,,,,,,,,4,,,,77,64
95680,note_off,40,0,5,,,,,,,,3,,,,81,64
95695,note_off,115,0,1,,,,,,,,0,,,,50,64
95695,note_off,115,0,9,,,,,,,,7,,,,26,64
95695,note_off,115,0,12,,,,,,,,11,,,,50,64
95695,note_off,115,0,7,,,,,,,,5,,,,50,64
95695,note_off,115,0,15,,,,,,,,14,,,,26,64
95695,note_off,115,0,8,,,,,,,,6,,,,38,64
95695,note_off,115,0,13,,,,,,,,12,,,,38,64
95695,note_off,115,0,14,,,,,,,,13,,,,26,64
95695,note_off,115,0,2,,,,,,,,0,,,,38,64
95700,note_on,20,0,5,,,,,,,,3,,,,86,75
95700,note_on,5,0,12,,,,,,,,11,,,,62,60
95700,note_on,5,0,7,,,,,,,,5,,,,62,60
95700,note_on,5,0,8,,,,,,,,6,,,,50,60
95700,note_on,5,0,2,,,,,,,,0,,,,50,60
95700,note_on,5,0,13,,,,,,,,12,,,,50,60
95700,note_on,20,0,11,,,,,,,,10,,,,81,60
95700,note_on,5,0,15,,,,,,,,14,,,,38,60
95700,note_on,5,0,9,,,,,,,,7,,,,38,60
95700,note_on,5,0,1,,,,,,,,0,,,,62,60
95700,note_on,20,0,6,,,,,,,,4,,,,81,75
95700,note_on,5,0,14,,,,,,,,13,,,,38,60
95700,note_on,20,0,10,,,,,,,,8,,,,86,60
95740,note_off,40,0,6,,,,,,,,4,,,,81,64
95740,note_off,40,0,10,,,,,,,,8,,,,86,64
95740,note_off,40,0,5,,,,,,,,3,,,,86,64
95740,note_off,40,0,11,,,,,,,,10,,,,81,64
95760,note_on,20,0,10,,,,,,,,8,,,,74,60
95760,note_on,20,0,11,,,,,,,,10,,,,62,60
95760,note_on,20,0,5,,,,,,,,3,,,,74,75
95760,note_on,20,0,6,,,,,,,,4,,,,62,75
95800,note_off,40,0,5,,,,,,,,3,,,,74,64
95800,note_off,40,0,11,,,,,,,,10,,,,62,64
95800,note_off,40,0,10,,,,,,,,8,,,,74,64
95800,note_off,40,0,6,,,,,,,,4,,,,62,64
95815,note_off,115,0,7,,,,,,,,5,,,,62,64
95815,note_off,115,0,12,,,,,,,,11,,,,62,64
95820,note_on,20,0,5,,,,,,,,3,,,,86,75
95820,note_on,20,0,11,,,,,,,,10,,,,81,60
95820,note_on,5,0,7,,,,,,,,5,,,,74,60
95820,note_on,5,0,12,,,,,,,,11,,,,74,60
95820,note_on,20,0,6,,,,,,,,4,,,,81,75
95820,note_on,20,0,10,,,,,,,,8,,,,86,60
95860,note_off,40,0,11,,,,,,,,10,,,,81,64
95860,note_off,40,0,6,,,,,,,,4,,,,81,64
95860,note_off,40,0,5,,,,,,,,3,,,,86,64
95860,note_off,40,0,10,,,,,,,,8,,,,86,64
95880,note_on,20,0,5,,,,,,,,3,,,,74,75
95880,note_on,20,0,11,,,,,,,,10,,,,62,60
95880,note_on,20,0,6,,,,,,,,4,,,,62,75
95880,note_on,20,0,10,,,,,,,,8,,,,74,60
95920,note_off,40,0,10,,,,,,,,8,,,,74,64
95920,note_off,40,0,5,,,,,,,,3,,,,74,64
95920,note_off,40,0,11,,,,,,,,10,,,,62,64
95920,note_off,40,0,6,,,,,,,,4,,,,62,64
95935,note_off,235,0,1,,,,,,,,0,,,,62,64
95935,note_off,235,0,9,,,,,,,,7,,,,38,64
95935,note_off,115,0,12,,,,,,,,11,,,,74,64
95935,note_off,115,0,7,,,,,,,,5,,,,74,64
95935,note_off,235,0,2,,,,,,,,0,,,,50,64
95935,note_off,235,0,8,,,,,,,,6,,,,50,64
95935,note_off,235,0,14,,,,,,,,13,,,,38,64
95935,note_off,235,0,13,,,,,,,,12,,,,50,64
95935,note_off,235,0,15,,,,,,,,14,,,,38,64
95940,note_on,5,0,13,,,,,,,,12,,,,50,60
95940,note_on,5,0,1,,,,,,,,0,,,,62,60
95940,note_on,5,0,9,,,,,,,,7,,,,38,60
95940,note_on,20,0,6,,,,,,,,4,,,,81,75
95940,note_on,5,0,12,,,,,,,,11,,,,62,60
95940,note_on,5,0,15,,,,,,,,14,,,,38,60
95940,note_on,5,0,7,,,,,,,,5,,,,62,60
95940,note_on,20,0,10,,,,,,,,8,,,,86,60
95940,note_on,5,0,8,,,,,,,,6,,,,50,60
95940,note_on,20,0,11,,,,,,,,10,,,,81,60
95940,note_on,5,0,2,,,,,,,,0,,,,50,60
95940,note_on,5,0,14,,,,,,,,13,,,,38,60
95940,note_on,20,0,5,,,,,,,,3,,,,86,75
95980,note_off,40,0,5,,,,,,,,3,,,,86,64
95980,note_off,40,0,11,,,,,,,,10,,,,81,64
95980,note_off,40,0,10,,,,,,,,8,,,,86,64
95980,note_off,40,0,6,,,,,,,,4,,,,81,64
96000,note_on,20,0,5,,,,,,,,3,,,,74,75
96000,note_on,20,0,10,,,,,,,,8,,,,74,60
96000,note_on,20,0,6,,,,,,,,4,,,,62,75
96000,note_on,20,0,11,,,,,,,,10,,,,62,60
96040,note_off,40,0,10,,,,,,,,8,,,,74,64
96040,note_off,40,0,5,,,,,,,,3,,,,74,64
96040,note_off,40,0,11,,,,,,,,10,,,,62,64
96040,note_off,40,0,6,,,,,,,,4,,,,62,64
96055,note_off,115,0,2,,,,,,,,0,,,,50,64
96055,note_off,115,0,12,,,,,,,,11,,,,62,64
96055,note_off,115,0,13,,,,,,,,12,,,,50,64
96055,note_off,115,0,14,,,,,,,,13,,,,38,64
96055,note_off,115,0,15,,,,,,,,14,,,,38,64
96055,note_off,115,0,8,,,,,,,,6,,,,50,64
96055,note_off,115,0,9,,,,,,,,7,,,,38,64
96055,note_off,115,0,1,,,,,,,,0,,,,62,64
96055,note_off,115,0,7,,,,,,,,5,,,,62,64
96060,note_on,20,0,5,,,,,,,,3,,,,86,75
96060,note_on,5,0,15,,,,,,,,14,,,,26,60
96060,note_on,5,0,1,,,,,,,,0,,,,50,60
96060,note_on,5,0,14,,,,,,,,13,,,,26,60
96060,note_on,20,0,10,,,,,,,,8,,,,86,60
96060,note_on,5,0,9,,,,,,,,7,,,,26,60
96060,note_on,5,0,12,,,,,,,,11,,,,50,60
96060,note_on,5,0,7,,,,,,,,5,,,,50,60
96060,note_on,5,0,13,,,,,,,,12,,,,38,60
96060,note_on,20,0,11,,,,,,,,10,,,,81,60
96060,note_on,5,0,2,,,,,,,,0,,,,38,60
96060,note_on,5,0,8,,,,,,,,6,,,,38,60
96060,note_on,20,0,6,,,,,,,,4,,,,81,75
96100,note_off,40,0,5,,,,,,,,3,,,,86,64
96100,note_off,40,0,10,,,,,,,,8,,,,86,64
96100,note_off,40,0,11,,,,,,,,10,,,,81,64
96100,note_off,40,0,6,,,,,,,,4,,,,81,64
96120,note_on,20,0,6,,,,,,,,4,,,,62,75
96120,note_on,20,0,11,,,,,,,,10,,,,62,60
96120,note_on,20,0,10,,,,,,,,8,,,,74,60
96120,note_on,20,0,5,,,,,,,,3,,,,74,75
96160,note_off,40,0,6,,,,,,,,4,,,,62,64
96160,note_off,40,0,10,,,,,,,,8,,,,74,64
96160,note_off,40,0,11,,,,,,,,10,,,,62,64
96160,note_off,40,0,5,,,,,,,,3,,,,74,64
96175,note_off,115,0,7,,,,,,,,5,,,,50,64
96175,note_off,115,0,12,,,,,,,,11,,,,50,64
96175,note_off,115,0,9,,,,,,,,7,,,,26,64
96175,note_off,115,0,1,,,,,,,,0,,,,50,64
96175,note_off,115,0,13,,,,,,,,12,,,,38,64
96175,note_off,115,0,2,,,,,,,,0,,,,38,64
96175,note_off,115,0,14,,,,,,,,13,,,,26,64
96175,note_off,115,0,15,,,,,,,,14,,,,26,64
96175,note_off,115,0,8,,,,,,,,6,,,,38,64
96180,note_on,20,0,5,,,,,,,,3,,,,86,75
96180,note_on,5,0,14,,,,,,,,13,,,,26,60
96180,note_on,5,0,7,,,,,,,,5,,,,50,60
96180,note_on,5,0,1,,,,,,,,0,,,,50,60
96180,note_on,5,0,8,,,,,,,,6,,,,38,60
96180,note_on,5,0,15,,,,,,,,14,,,,26,60
96180,note_on,20,0,11,,,,,,,,10,,,,81,60
96180,note_on,5,0,2,,,,,,,,0,,,,38,60
96180,note_on,5,0,9,,,,,,,,7,,,,26,60
96180,note_on,5,0,12,,,,,,,,11,,,,50,60
96180,note_on,5,0,13,,,,,,,,12,,,,38,60
96180,note_on,20,0,6,,,,,,,,4,,,,81,75
96180,note_on,20,0,10,,,,,,,,8,,,,86,60
96220,note_off,40,0,11,,,,,,,,10,,,,81,64
96220,note_off,40,0,5,,,,,,,,3,,,,86,64
96220,note_off,40,0,6,,,,,,,,4,,,,81,64
96220,note_off,40,0,10,,,,,,,,8,,,,86,64
96240,note_on,20,0,11,,,,,,,,10,,,,62,60
96240,note_on,20,0,5,,,,,,,,3,,,,74,75
96240,note_on,20,0,6,,,,,,,,4,,,,62,75
96240,note_on,20,0,10,,,,,,,,8,,,,74,60
96280,note_off,40,0,5,,,,,,,,3,,,,74,64
96280,note_off,40,0,11,,,,,,,,10,,,,62,64
96280,note_off,40,0,6,,,,,,,,4,,,,62,64
96280,note_off,40,0,10,,,,,,,,8,,,,74,64
96295,note_off,115,0,1,,,,,,,,0,,,,50,64
96295,note_off,115,0,15,,,,,,,,14,,,,26,64
96295,note_off,115,0,9,,,,,,,,7,,,,26,64
96295,note_off,115,0,8,,,,,,,,6,,,,38,64
96295,note_off,115,0,13,,,,,,,,12,,,,38,64
96295,note_off,115,0,2,,,,,,,,0,,,,38,64
96295,note_off,115,0,14,,,,,,,,13,,,,26,64
96295,note_off,115,0,7,,,,,,,,5,,,,50,64
96295,note_off,115,0,12,,,,,,,,11,,,,50,64
96300,note_on,5,0,2,,,,,,,,0,,,,38,60
96300,note_on,5,0,7,,,,,,,,5,,,,50,60
96300,note_on,5,0,9,,,,,,,,7,,,,26,60
96300,note_on,5,0,14,,,,,,,,13,,,,26,60
96300,note_on,5,0,15,,,,,,,,14,,,,26,60
96300,note_on,5,0,1,,,,,,,,0,,,,50,60
96300,note_on,20,0,11,,,,,,,,10,,,,81,60
96300,note_on,20,0,5,,,,,,,,3,,,,86,75
96300,note_on,20,0,10,,,,,,,,8,,,,86,60
96300,note_on,5,0,8,,,,,,,,6,,,,38,60
96300,note_on,5,0,13,,,,,,,,12,,,,38,60
96300,note_on,20,0,6,,,,,,,,4,,,,81,75
96300,note_on,5,0,12,,,,,,,,11,,,,50,60
96340,note_off,40,0,11,,,,,,,,10,,,,81,64
96340,note_off,40,0,5,,,,,,,,3,,,,86,64
96340,note_off,40,0,10,,,,,,,,8,,,,86,64
96340,note_off,40,0,6,,,,,,,,4,,,,81,64
96360,note_on,20,0,10,,,,,,,,8,,,,74,60
96360,note_on,20,0,6,,,,,,,,4,,,,62,75
96360,note_on,20,0,11,,,,,,,,10,,,,62,60
96360,note_on,20,0,5,,,,,,,,3,,,,74,75
96400,note_off,40,0,6,,,,,,,,4,,,,62,64
96400,note_off,40,0,5,,,,,,,,3,,,,74,64
96400,note_off,40,0,11,,,,,,,,10,,,,62,64
96400,note_off,40,0,10,,,,,,,,8,,,,74,64
96415,note_off,115,0,1,,,,,,,,0,,,,50,64
96415,note_off,115,0,14,,,,,,,,13,,,,26,64
96415,note_off,115,0,8,,,,,,,,6,,,,38,64
96415,note_off,115,0,7,,,,,,,,5,,,,50,64
96415,note_off,115,0,12,,,,,,,,11,,,,50,64
96415,note_off,115,0,2,,,,,,,,0,,,,38,64
96415,note_off,115,0,13,,,,,,,,12,,,,38,64
96415,note_off,115,0,9,,,,,,,,7,,,,26,64
96415,note_off,115,0,15,,,,,,,,14,,,,26,64
96420,note_on,20,0,5,,,,,,,,3,,,,84,75
96420,note_on,5,0,7,,,,,,,,5,,,,62,60
96420,note_on,5,0,12,,,,,,,,11,,,,62,60
96420,note_on,20,0,6,,,,,,,,4,,,,81,75
96420,note_on,5,0,1,,,,,,,,0,,,,62,60
96420,note_on,5,0,14,,,,,,,,13,,,,38,60
96420,note_on,20,0,11,,,,,,,,10,,,,81,60
96420,note_on,5,0,15,,,,,,,,14,,,,38,60
96420,note_on,5,0,9,,,,,,,,7,,,,38,60
96420,note_on,5,0,8,,,,,,,,6,,,,50,60
96420,note_on,5,0,2,,,,,,,,0,,,,50,60
96420,note_on,5,0,13,,,,,,,,12,,,,50,60
96420,note_on,20,0,10,,,,,,,,8,,,,84,60
96460,note_off,40,0,5,,,,,,,,3,,,,84,64
96460,note_off,40,0,10,,,,,,,,8,,,,84,64
96460,note_off,40,0,11,,,,,,,,10,,,,81,64
96460,note_off,40,0,6,,,,,,,,4,,,,81,64
96480,note_on,20,0,6,,,,,,,,4,,,,62,75
96480,note_on,20,0,11,,,,,,,,10,,,,62,60
96480,note_on,20,0,10,,,,,,,,8,,,,74,60
96480,note_on,20,0,5,,,,,,,,3,,,,74,75
96520,note_off,40,0,10,,,,,,,,8,,,,74,64
96520,note_off,40,0,5,,,,,,,,3,,,,74,64
96520,note_off,40,0,6,,,,,,,,4,,,,62,64
96520,note_off,40,0,11,,,,,,,,10,,,,62,64
96535,note_off,115,0,7,,,,,,,,5,,,,62,64
96535,note_off,115,0,12,,,,,,,,11,,,,62,64
96540,note_on,20,0,5,,,,,,,,3,,,,84,75
96540,note_on,20,0,6,,,,,,,,4,,,,81,75
96540,note_on,5,0,7,,,,,,,,5,,,,74,60
96540,note_on,20,0,10,,,,,,,,8,,,,84,60
96540,note_on,5,0,12,,,,,,,,11,,,,74,60
96540,note_on,20,0,11,,,,,,,,10,,,,81,60
96580,note_off,40,0,10,,,,,,,,8,,,,84,64
96580,note_off,40,0,11,,,,,,,,10,,,,81,64
96580,note_off,40,0,5,,,,,,,,3,,,,84,64
96580,note_off,40,0,6,,,,,,,,4,,,,81,64
96600,note_on,20,0,5,,,,,,,,3,,,,74,75
96600,note_on,20,0,6,,,,,,,,4,,,,62,75
96600,note_on,20,0,10,,,,,,,,8,,,,74,60
96600,note_on,20,0,11,,,,,,,,10,,,,62,60
96640,note_off,40,0,5,,,,,,,,3,,,,74,64
96640,note_off,40,0,6,,,,,,,,4,,,,62,64
96640,note_off,40,0,11,,,,,,,,10,,,,62,64
96640,note_off,40,0,10,,,,,,,,8,,,,74,64
96655,note_off,115,0,12,,,,,,,,11,,,,74,64
96655,note_off,235,0,14,,,,,,,,13,,,,38,64
96655,note_off,115,0,7,,,,,,,,5,,,,74,64
96655,note_off,235,0,2,,,,,,,,0,,,,50,64
96655,note_off,235,0,13,,,,,,,,12,,,,50,64
96655,note_off,235,0,8,,,,,,,,6,,,,50,64
96655,note_off,235,0,15,,,,,,,,14,,,,38,64
96655,note_off,235,0,1,,,,,,,,0,,,,62,64
96655,note_off,235,0,9,,,,,,,,7,,,,38,64
96660,note_on,5,0,12,,,,,,,,11,,,,62,60
96660,note_on,5,0,2,,,,,,,,0,,,,50,60
96660,note_on,5,0,1,,,,,,,,0,,,,62,60
96660,note_on,20,0,5,,,,,,,,3,,,,84,75
96660,note_on,20,0,11,,,,,,,,10,,,,81,60
96660,note_on,20,0,10,,,,,,,,8,,,,84,60
96660,note_on,20,0,6,,,,,,,,4,,,,81,75
96660,note_on,5,0,9,,,,,,,,7,,,,38,60
96660,note_on,5,0,7,,,,,,,,5,,,,62,60
96660,note_on,5,0,15,,,,,,,,14,,,,38,60
96660,note_on,5,0,8,,,,,,,,6,,,,50,60
96660,note_on,5,0,13,,,,,,,,12,,,,50,60
96660,note_on,5,0,14,,,,,,,,13,,,,38,60
96700,note_off,40,0,11,,,,,,,,10,,,,81,64
96700,note_off,40,0,5,,,,,,,,3,,,,84,64
96700,note_off,40,0,10,,,,,,,,8,,,,84,64
96700,note_off,40,0,6,,,,,,,,4,,,,81,64
96720,note_on,20,0,10,,,,,,,,8,,,,74,60
96720,note_on,20,0,11,,,,,,,,10,,,,62,60
96720,note_on,20,0,5,,,,,,,,3,,,,74,75
96720,note_on,20,0,6,,,,,,,,4,,,,62,75
96760,note_off,40,0,6,,,,,,,,4,,,,62,64
96760,note_off,40,0,11,,,,,,,,10,,,,62,64
96760,note_off,40,0,5,,,,,,,,3,,,,74,64
96760,note_off,40,0,10,,,,,,,,8,,,,74,64
96775,note_off,115,0,2,,,,,,,,0,,,,50,64
96775,note_off,115,0,7,,,,,,,,5,,,,62,64
96775,note_off,115,0,15,,,,,,,,14,,,,38,64
96775,note_off,115,0,12,,,,,,,,11,,,,62,64
96775,note_off,115,0,14,,,,,,,,13,,,,38,64
96775,note_off,115,0,1,,,,,,,,0,,,,62,64
96775,note_off,115,0,8,,,,,,,,6,,,,50,64
96775,note_off,115,0,13,,,,,,,,12,,,,50,64
96775,note_off,115,0,9,,,,,,,,7,,,,38,64
96780,note_on,5,0,8,,,,,,,,6,,,,38,60
96780,note_on,20,0,6,,,,,,,,4,,,,81,75
96780,note_on,5,0,1,,,,,,,,0,,,,50,60
96780,note_on,5,0,12,,,,,,,,11,,,,50,60
96780,note_on,20,0,11,,,,,,,,10,,,,81,60
96780,note_on,5,0,14,,,,,,,,13,,,,26,60
96780,note_on,20,0,5,,,,,,,,3,,,,84,75
96780,note_on,20,0,10,,,,,,,,8,,,,84,60
96780,note_on,5,0,9,,,,,,,,7,,,,26,60
96780,note_on,5,0,7,,,,,,,,5,,,,50,60
96780,note_on,5,0,2,,,,,,,,0,,,,38,60
96780,note_on,5,0,13,,,,,,,,12,,,,38,60
96780,note_on,5,0,15,,,,,,,,14,,,,26,60
96820,note_off,40,0,10,,,,,,,,8,,,,84,64
96820,note_off,40,0,6,,,,,,,,4,,,,81,64
96820,note_off,40,0,11,,,,,,,,10,,,,81,64
96820,note_off,40,0,5,,,,,,,,3,,,,84,64
96840,note_on,20,0,5,,,,,,,,3,,,,74,75
96840,note_on,20,0,11,,,,,,,,10,,,,62,60
96840,note_on,20,0,6,,,,,,,,4,,,,62,75
96840,note_on,20,0,10,,,,,,,,8,,,,74,60
96880,note_off,40,0,11,,,,,,,,10,,,,62,64
96880,note_off,40,0,5,,,,,,,,3,,,,74,64
96880,note_off,40,0,10,,,,,,,,8,,,,74,64
96880,note_off,40,0,6,,,,,,,,4,,,,62,64
96895,note_off,115,0,1,,,,,,,,0,,,,50,64
96895,note_off,115,0,15,,,,,,,,14,,,,26,64
96895,note_off,115,0,12,,,,,,,,11,,,,50,64
96895,note_off,115,0,9,,,,,,,,7,,,,26,64
96895,note_off,115,0,2,,,,,,,,0,,,,38,64
96895,note_off,115,0,7,,,,,,,,5,,,,50,64
96895,note_off,115,0,14,,,,,,,,13,,,,26,64
96895,note_off,115,0,8,,,,,,,,6,,,,38,64
96895,note_off,115,0,13,,,,,,,,12,,,,38,64
96900,note_on,5,0,12,,,,,,,,11,,,,50,60
96900,note_on,5,0,14,,,,,,,,13,,,,26,60
96900,note_on,20,0,6,,,,,,,,4,,,,81,75
96900,note_on,5,0,7,,,,,,,,5,,,,50,60
96900,note_on,20,0,11,,,,,,,,10,,,,81,60
96900,note_on,5,0,13,,,,,,,,12,,,,38,60
96900,note_on,5,0,9,,,,,,,,7,,,,26,60
96900,note_on,5,0,8,,,,,,,,6,,,,38,60
96900,note_on,5,0,1,,,,,,,,0,,,,50,60
96900,note_on,5,0,15,,,,,,,,14,,,,26,60
96900,note_on,5,0,2,,,,,,,,0,,,,38,60
96900,note_on,20,0,10,,,,,,,,8,,,,84,60
96900,note_on,20,0,5,,,,,,,,3,,,,84,75
96940,note_off,40,0,10,,,,,,,,8,,,,84,64
96940,note_off,40,0,5,,,,,,,,3,,,,84,64
96940,note_off,40,0,6,,,,,,,,4,,,,81,64
96940,note_off,40,0,11,,,,,,,,10,,,,81,64
96960,note_on,20,0,6,,,,,,,,4,,,,62,75
96960,note_on,20,0,5,,,,,,,,3,,,,74,75
96960,note_on,20,0,10,,,,,,,,8,,,,74,60
96960,note_on,20,0,11,,,,,,,,10,,,,62,60
97000,note_off,40,0,11,,,,,,,,10,,,,62,64
97000,note_off,40,0,6,,,,,,,,4,,,,62,64
97000,note_off,40,0,10,,,,,,,,8,,,,74,64
97000,note_off,40,0,5,,,,,,,,3,,,,74,64
97015,note_off,115,0,2,,,,,,,,0,,,,38,64
97015,note_off,115,0,9,,,,,,,,7,,,,26,64
97015,note_off,115,0,13,,,,,,,,12,,,,38,64
97015,note_off,115,0,8,,,,,,,,6,,,,38,64
97015,note_off,115,0,15,,,,,,,,14,,,,26,64
97015,note_off,115,0,1,,,,,,,,0,,,,50,64
97015,note_off,115,0,7,,,,,,,,5,,,,50,64
97015,note_off,115,0,14,,,,,,,,13,,,,26,64
97015,note_off,115,0,12,,,,,,,,11,,,,50,64
97020,note_on,5,0,12,,,,,,,,11,,,,50,60
97020,note_on,5,0,14,,,,,,,,13,,,,26,60
97020,note_on,20,0,10,,,,,,,,8,,,,84,60
97020,note_on,5,0,1,,,,,,,,0,,,,50,60
97020,note_on,5,0,7,,,,,,,,5,,,,50,60
97020,note_on,5,0,8,,,,,,,,6,,,,38,60
97020,note_on,5,0,2,,,,,,,,0,,,,38,60
97020,note_on,20,0,11,,,,,,,,10,,,,81,60
97020,note_on,5,0,15,,,,,,,,14,,,,26,60
97020,note_on,20,0,6,,,,,,,,4,,,,81,75
97020,note_on,5,0,9,,,,,,,,7,,,,26,60
97020,note_on,20,0,5,,,,,,,,3,,,,84,75
97020,note_on,5,0,13,,,,,,,,12,,,,38,60
97060,note_off,40,0,6,,,,,,,,4,,,,81,64
97060,note_off,40,0,10,,,,,,,,8,,,,84,64
97060,note_off,40,0,5,,,,,,,,3,,,,84,64
97060,note_off,40,0,11,,,,,,,,10,,,,81,64
97080,note_on,20,0,6,,,,,,,,4,,,,62,75
97080,note_on,20,0,10,,,,,,,,8,,,,74,60
97080,note_on,20,0,11,,,,,,,,10,,,,62,60
97080,note_on,20,0,5,,,,,,,,3,,,,74,75
97120,note_off,40,0,10,,,,,,,,8,,,,74,64
97120,note_off,40,0,11,,,,,,,,10,,,,62,64
97120,note_off,40,0,5,,,,,,,,3,,,,74,64
97120,note_off,40,0,6,,,,,,,,4,,,,62,64
97135,note_off,115,0,7,,,,,,,,5,,,,50,64
97135,note_off,115,0,2,,,,,,,,0,,,,38,64
97135,note_off,115,0,13,,,,,,,,12,,,,38,64
97135,note_off,115,0,9,,,,,,,,7,,,,26,64
97135,note_off,115,0,1,,,,,,,,0,,,,50,64
97135,note_off,115,0,8,,,,,,,,6,,,,38,64
97135,note_off,115,0,14,,,,,,,,13,,,,26,64
97135,note_off,115,0,12,,,,,,,,11,,,,50,64
97135,note_off,115,0,15,,,,,,,,14,,,,26,64
97140,note_on,5,0,1,,,,,,,,0,,,,62,60
97140,note_on,5,0,7,,,,,,,,5,,,,62,60
97140,note_on,5,0,2,,,,,,,,0,,,,50,60
97140,note_on,20,0,5,,,,,,,,3,,,,82,75
97140,note_on,5,0,14,,,,,,,,13,,,,38,60
97140,note_on,5,0,13,,,,,,,,12,,,,50,60
97140,note_on,5,0,8,,,,,,,,6,,,,50,60
97140,note_on,5,0,12,,,,,,,,11,,,,62,60
97140,note_on,5,0,15,,,,,,,,14,,,,38,60
97140,note_on,20,0,10,,,,,,,,8,,,,82,60
97140,note_on,20,0,6,,,,,,,,4,,,,79,75
97140,note_on,20,0,11,,,,,,,,10,,,,79,60
97140,note_on,5,0,9,,,,,,,,7,,,,38,60
97180,note_off,40,0,6,,,,,,,,4,,,,79,64
97180,note_off,40,0,5,,,,,,,,3,,,,82,64
97180,note_off,40,0,11,,,,,,,,10,,,,79,64
97180,note_off,40,0,10,,,,,,,,8,,,,82,64
97200,note_on,20,0,6,,,,,,,,4,,,,62,75
97200,note_on,20,0,5,,,,,,,,3,,,,74,75
97200,note_on,20,0,11,,,,,,,,10,,,,62,60
97200,note_on,20,0,10,,,,,,,,8,,,,74,60
97240,note_off,40,0,5,,,,,,,,3,,,,74,64
97240,note_off,40,0,10,,,,,,,,8,,,,74,64
97240,note_off,40,0,6,,,,,,,,4,,,,62,64
97240,note_off,40,0,11,,,,,,,,10,,,,62,64
97255,note_off,115,0,7,,,,,,,,5,,,,62,64
97255,note_off,115,0,12,,,,,,,,11,,,,62,64
97260,note_on,20,0,10,,,,,,,,8,,,,82,60
97260,note_on,20,0,6,,,,,,,,4,,,,79,75
97260,note_on,20,0,11,,,,,,,,10,,,,79,60
97260,note_on,20,0,5,,,,,,,,3,,,,82,75
97260,note_on,5,0,12,,,,,,,,11,,,,74,60
97260,note_on,5,0,7,,,,,,,,5,,,,74,60
97300,note_off,40,0,5,,,,,,,,3,,,,82,64
97300,note_off,40,0,11,,,,,,,,10,,,,79,64
97300,note_off,40,0,6,,,,,,,,4,,,,79,64
97300,note_off,40,0,10,,,,,,,,8,,,,82,64
97320,note_on,20,0,11,,,,,,,,10,,,,62,60
97320,note_on,20,0,6,,,,,,,,4,,,,62,75
97320,note_on,20,0,10,,,,,,,,8,,,,74,60
97320,note_on,20,0,5,,,,,,,,3,,,,74,75
97360,note_off,40,0,11,,,,,,,,10,,,,62,64
97360,note_off,40,0,5,,,,,,,,3,,,,74,64
97360,note_off,40,0,10,,,,,,,,8,,,,74,64
97360,note_off,40,0,6,,,,,,,,4,,,,62,64
97375,note_off,235,0,15,,,,,,,,14,,,,38,64
97375,note_off,235,0,8,,,,,,,,6,,,,50,64
97375,note_off,235,0,2,,,,,,,,0,,,,50,64
97375,note_off,115,0,12,,,,,,,,11,,,,74,64
97375,note_off,235,0,9,,,,,,,,7,,,,38,64
97375,note_off,115,0,7,,,,,,,,5,,,,74,64
97375,note_off,235,0,14,,,,,,,,13,,,,38,64
97375,note_off,235,0,1,,,,,,,,0,,,,62,64
97375,note_off,235,0,13,,,,,,,,12,,,,50,64
97380,note_on,5,0,7,,,,,,,,5,,,,62,60
97380,note_on,20,0,10,,,,,,,,8,,,,82,60
97380,note_on,5,0,9,,,,,,,,7,,,,38,60
97380,note_on,5,0,12,,,,,,,,11,,,,62,60
97380,note_on,5,0,14,,,,,,,,13,,,,38,60
97380,note_on,20,0,11,,,,,,,,10,,,,79,60
97380,note_on,5,0,1,,,,,,,,0,,,,62,60
97380,note_on,20,0,6,,,,,,,,4,,,,79,75
97380,note_on,5,0,8,,,,,,,,6,,,,50,60
97380,note_on,5,0,15,,,,,,,,14,,,,38,60
97380,note_on,5,0,13,,,,,,,,12,,,,50,60
97380,note_on,5,0,2,,,,,,,,0,,,,50,60
97380,note_on,20,0,5,,,,,,,,3,,,,82,75
97420,note_off,40,0,10,,,,,,,,8,,,,82,64
97420,note_off,40,0,5,,,,,,,,3,,,,82,64
97420,note_off,40,0,11,,,,,,,,10,,,,79,64
97420,note_off,40,0,6,,,,,,,,4,,,,79,64
97440,note_on,20,0,11,,,,,,,,10,,,,62,60
97440,note_on,20,0,6,,,,,,,,4,,,,62,75
97440,note_on,20,0,5,,,,,,,,3,,,,74,75
97440,note_on,20,0,10,,,,,,,,8,,,,74,60
97480,note_off,40,0,10,,,,,,,,8,,,,74,64
97480,note_off,40,0,5,,,,,,,,3,,,,74,64
97480,note_off,40,0,6,,,,,,,,4,,,,62,64
97480,note_off,40,0,11,,,,,,,,10,,,,62,64
97495,note_off,115,0,9,,,,,,,,7,,,,38,64
97495,note_off,115,0,2,,,,,,,,0,,,,50,64
97495,note_off,115,0,7,,,,,,,,5,,,,62,64
97495,note_off,115,0,12,,,,,,,,11,,,,62,64
97495,note_off,115,0,14,,,,,,,,13,,,,38,64
97495,note_off,115,0,13,,,,,,,,12,,,,50,64
97495,note_off,115,0,15,,,,,,,,14,,,,38,64
97495,note_off,115,0,1,,,,,,,,0,,,,62,64
97495,note_off,115,0,8,,,,,,,,6,,,,50,64
97500,note_on,20,0,6,,,,,,,,4,,,,79,75
97500,note_on,5,0,14,,,,,,,,13,,,,26,60
97500,note_on,5,0,2,,,,,,,,0,,,,38,60
97500,note_on,5,0,13,,,,,,,,12,,,,38,60
97500,note_on,5,0,1,,,,,,,,0,,,,50,60
97500,note_on,5,0,15,,,,,,,,14,,,,26,60
97500,note_on,5,0,8,,,,,,,,6,,,,38,60
97500,note_on,20,0,10,,,,,,,,8,,,,82,60
97500,note_on,5,0,7,,,,,,,,5,,,,50,60
97500,note_on,5,0,12,,,,,,,,11,,,,50,60
97500,note_on,5,0,9,,,,,,,,7,,,,26,60
97500,note_on,20,0,11,,,,,,,,10,,,,79,60
97500,note_on,20,0,5,,,,,,,,3,,,,82,75
97540,note_off,40,0,6,,,,,,,,4,,,,79,64
97540,note_off,40,0,10,,,,,,,,8,,,,82,64
97540,note_off,40,0,11,,,,,,,,10,,,,79,64
97540,note_off,40,0,5,,,,,,,,3,,,,82,64
97560,note_on,20,0,10,,,,,,,,8,,,,74,60
97560,note_on,20,0,11,,,,,,,,10,,,,62,60
97560,note_on,20,0,6,,,,,,,,4,,,,62,75
97560,note_on,20,0,5,,,,,,,,3,,,,74,75
97600,note_off,40,0,5,,,,,,,,3,,,,74,64
97600,note_off,40,0,10,,,,,,,,8,,,,74,64
97600,note_off,40,0,6,,,,,,,,4,,,,62,64
97600,note_off,40,0,11,,,,,,,,10,,,,62,64
97615,note_off,115,0,2,,,,,,,,0,,,,38,64
97615,note_off,115,0,1,,,,,,,,0,,,,50,64
97615,note_off,115,0,9,,,,,,,,7,,,,26,64
97615,note_off,115,0,13,,,,,,,,12,,,,38,64
97615,note_off,115,0,14,,,,,,,,13,,,,26,64
97615,note_off,115,0,12,,,,,,,,11,,,,50,64
97615,note_off,115,0,8,,,,,,,,6,,,,38,64
97615,note_off,115,0,15,,,,,,,,14,,,,26,64
97615,note_off,115,0,7,,,,,,,,5,,,,50,64
97620,note_on,5,0,12,,,,,,,,11,,,,50,60
97620,note_on,5,0,8,,,,,,,,6,,,,38,60
97620,note_on,5,0,14,,,,,,,,13,,,,26,60
97620,note_on,5,0,13,,,,,,,,12,,,,38,60
97620,note_on,20,0,5,,,,,,,,3,,,,82,75
97620,note_on,5,0,7,,,,,,,,5,,,,50,60
97620,note_on,20,0,6,,,,,,,,4,,,,79,75
97620,note_on,5,0,2,,,,,,,,0,,,,38,60
97620,note_on,5,0,9,,,,,,,,7,,,,26,60
97620,note_on,5,0,15,,,,,,,,14,,,,26,60
97620,note_on,20,0,11,,,,,,,,10,,,,79,60
97620,note_on,5,0,1,,,,,,,,0,,,,50,60
97620,note_on,20,0,10,,,,,,,,8,,,,82,60
97660,note_off,40,0,11,,,,,,,,10,,,,79,64
97660,note_off,40,0,5,,,,,,,,3,,,,82,64
97660,note_off,40,0,10,,,,,,,,8,,,,82,64
97660,note_off,40,0,6,,,,,,,,4,,,,79,64
97680,note_on,20,0,11,,,,,,,,10,,,,62,60
97680,note_on,20,0,5,,,,,,,,3,,,,74,75
97680,note_on,20,0,10,,,,,,,,8,,,,74,60
97680,note_on,20,0,6,,,,,,,,4,,,,62,75
97720,note_off,40,0,6,,,,,,,,4,,,,62,64
97720,note_off,40,0,11,,,,,,,,10,,,,62,64
97720,note_off,40,0,10,,,,,,,,8,,,,74,64
97720,note_off,40,0,5,,,,,,,,3,,,,74,64
97735,note_off,115,0,8,,,,,,,,6,,,,38,64
97735,note_off,115,0,13,,,,,,,,12,,,,38,64
97735,note_off,115,0,14,,,,,,,,13,,,,26,64
97735,note_off,115,0,2,,,,,,,,0,,,,38,64
97735,note_off,115,0,15,,,,,,,,14,,,,26,64
97735,note_off,115,0,12,,,,,,,,11,,,,50,64
97735,note_off,115,0,1,,,,,,,,0,,,,50,64
97735,note_off,115,0,9,,,,,,,,7,,,,26,64
97735,note_off,115,0,7,,,,,,,,5,,,,50,64
97740,note_on,5,0,7,,,,,,,,5,,,,50,60
97740,note_on,5,0,15,,,,,,,,14,,,,26,60
97740,note_on,5,0,13,,,,,,,,12,,,,38,60
97740,note_on,5,0,8,,,,,,,,6,,,,38,60
97740,note_on,20,0,11,,,,,,,,10,,,,79,60
97740,note_on,5,0,2,,,,,,,,0,,,,38,60
97740,note_on,20,0,10,,,,,,,,8,,,,82,60
97740,note_on,5,0,9,,,,,,,,7,,,,26,60
97740,note_on,20,0,6,,,,,,,,4,,,,79,75
97740,note_on,20,0,5,,,,,,,,3,,,,82,75
97740,note_on,5,0,1,,,,,,,,0,,,,50,60
97740,note_on,5,0,12,,,,,,,,11,,,,50,60
97740,note_on,5,0,14,,,,,,,,13,,,,26,60
97780,note_off,40,0,11,,,,,,,,10,,,,79,64
97780,note_off,40,0,5,,,,,,,,3,,,,82,64
97780,note_off,40,0,6,,,,,,,,4,,,,79,64
97780,note_off,40,0,10,,,,,,,,8,,,,82,64
97800,note_on,20,0,6,,,,,,,,4,,,,62,75
97800,note_on,20,0,11,,,,,,,,10,,,,62,60
97800,note_on,20,0,10,,,,,,,,8,,,,74,60
97800,note_on,20,0,5,,,,,,,,3,,,,74,75
97840,note_off,40,0,6,,,,,,,,4,,,,62,64
97840,note_off,40,0,11,,,,,,,,10,,,,62,64
97840,note_off,40,0,10,,,,,,,,8,,,,74,64
97840,note_off,40,0,5,,,,,,,,3,,,,74,64
97855,note_off,115,0,13,,,,,,,,12,,,,38,64
97855,note_off,115,0,7,,,,,,,,5,,,,50,64
97855,note_off,115,0,14,,,,,,,,13,,,,26,64
97855,note_off,115,0,1,,,,,,,,0,,,,50,64
97855,note_off,115,0,8,,,,,,,,6,,,,38,64
97855,note_off,115,0,2,,,,,,,,0,,,,38,64
97855,note_off,115,0,9,,,,,,,,7,,,,26,64
97855,note_off,115,0,15,,,,,,,,14,,,,26,64
97855,note_off,115,0,12,,,,,,,,11,,,,50,64
97860,note_on,5,0,13,,,,,,,,12,,,,50,60
97860,note_on,20,0,11,,,,,,,,10,,,,77,60
97860,note_on,5,0,1,,,,,,,,0,,,,62,60
97860,note_on,5,0,7,,,,,,,,5,,,,62,60
97860,note_on,20,0,5,,,,,,,,3,,,,81,75
97860,note_on,5,0,15,,,,,,,,14,,,,38,60
97860,note_on,5,0,12,,,,,,,,11,,,,62,60
97860,note_on,5,0,2,,,,,,,,0,,,,50,60
97860,note_on,20,0,6,,,,,,,,4,,,,77,75
97860,note_on,5,0,9,,,,,,,,7,,,,38,60
97860,note_on,20,0,10,,,,,,,,8,,,,81,60
97860,note_on,5,0,8,,,,,,,,6,,,,50,60
97860,note_on,5,0,14,,,,,,,,13,,,,38,60
97900,note_off,40,0,6,,,,,,,,4,,,,77,64
97900,note_off,40,0,10,,,,,,,,8,,,,81,64
97900,note_off,40,0,5,,,,,,,,3,,,,81,64
97900,note_off,40,0,11,,,,,,,,10,,,,77,64
97920,note_on,20,0,10,,,,,,,,8,,,,74,60
97920,note_on,20,0,5,,,,,,,,3,,,,74,75
97920,note_on,20,0,6,,,,,,,,4,,,,62,75
97920,note_on,20,0,11,,,,,,,,10,,,,62,60
97960,note_off,40,0,5,,,,,,,,3,,,,74,64
97960,note_off,40,0,10,,,,,,,,8,,,,74,64
97960,note_off,40,0,11,,,,,,,,10,,,,62,64
97960,note_off,40,0,6,,,,,,,,4,,,,62,64
97975,note_off,115,0,7,,,,,,,,5,,,,62,64
97975,note_off,115,0,12,,,,,,,,11,,,,62,64
97980,note_on,20,0,11,,,,,,,,10,,,,77,60
97980,note_on,20,0,6,,,,,,,,4,,,,77,75
97980,note_on,5,0,12,,,,,,,,11,,,,74,60
97980,note_on,20,0,5,,,,,,,,3,,,,81,75
97980,note_on,5,0,7,,,,,,,,5,,,,74,60
97980,note_on,20,0,10,,,,,,,,8,,,,81,60
98020,note_off,40,0,11,,,,,,,,10,,,,77,64
98020,note_off,40,0,5,,,,,,,,3,,,,81,64
98020,note_off,40,0,10,,,,,,,,8,,,,81,64
98020,note_off,40,0,6,,,,,,,,4,,,,77,64
98040,note_on,20,0,11,,,,,,,,10,,,,62,60
98040,note_on,20,0,10,,,,,,,,8,,,,74,60
98040,note_on,20,0,5,,,,,,,,3,,,,74,75
98040,note_on,20,0,6,,,,,,,,4,,,,62,75
98080,note_off,40,0,5,,,,,,,,3,,,,74,64
98080,note_off,40,0,10,,,,,,,,8,,,,74,64
98080,note_off,40,0,6,,,,,,,,4,,,,62,64
98080,note_off,40,0,11,,,,,,,,10,,,,62,64
98095,note_off,235,0,14,,,,,,,,13,,,,38,64
98095,note_off,235,0,9,,,,,,,,7,,,,38,64
98095,note_off,235,0,13,,,,,,,,12,,,,50,64
98095,note_off,115,0,12,,,,,,,,11,,,,74,64
98095,note_off,235,0,15,,,,,,,,14,,,,38,64
98095,note_off,115,0,7,,,,,,,,5,,,,74,64
98095,note_off,235,0,2,,,,,,,,0,,,,50,64
98095,note_off,235,0,8,,,,,,,,6,,,,50,64
98095,note_off,235,0,1,,,,,,,,0,,,,62,64
98100,note_on,5,0,1,,,,,,,,0,,,,62,60
98100,note_on,5,0,14,,,,,,,,13,,,,38,60
98100,note_on,20,0,5,,,,,,,,3,,,,81,75
98100,note_on,5,0,15,,,,,,,,14,,,,38,60
98100,note_on,5,0,12,,,,,,,,11,,,,62,60
98100,note_on,5,0,8,,,,,,,,6,,,,50,60
98100,note_on,5,0,13,,,,,,,,12,,,,50,60
98100,note_on,20,0,6,,,,,,,,4,,,,77,75
98100,note_on,5,0,9,,,,,,,,7,,,,38,60
98100,note_on,20,0,10,,,,,,,,8,,,,81,60
98100,note_on,5,0,2,,,,,,,,0,,,,50,60
98100,note_on,20,0,11,,,,,,,,10,,,,77,60
98100,note_on,5,0,7,,,,,,,,5,,,,62,60
98140,note_off,40,0,11,,,,,,,,10,,,,77,64
98140,note_off,40,0,10,,,,,,,,8,,,,81,64
98140,note_off,40,0,6,,,,,,,,4,,,,77,64
98140,note_off,40,0,5,,,,,,,,3,,,,81,64
98160,note_on,20,0,11,,,,,,,,10,,,,62,60
98160,note_on,20,0,10,,,,,,,,8,,,,74,60
98160,note_on,20,0,5,,,,,,,,3,,,,74,75
98160,note_on,20,0,6,,,,,,,,4,,,,62,75
98200,note_off,40,0,6,,,,,,,,4,,,,62,64
98200,note_off,40,0,5,,,,,,,,3,,,,74,64
98200,note_off,40,0,11,,,,,,,,10,,,,62,64
98200,note_off,40,0,10,,,,,,,,8,,,,74,64
98215,note_off,115,0,8,,,,,,,,6,,,,50,64
98215,note_off,115,0,13,,,,,,,,12,,,,50,64
98215,note_off,115,0,9,,,,,,,,7,,,,38,64
98215,note_off,115,0,12,,,,,,,,11,,,,62,64
98215,note_off,115,0,15,,,,,,,,14,,,,38,64
98215,note_off,115,0,2,,,,,,,,0,,,,50,64
98215,note_off,115,0,7,,,,,,,,5,,,,62,64
98215,note_off,115,0,1,,,,,,,,0,,,,62,64
98215,note_off,115,0,14,,,,,,,,13,,,,38,64
98220,note_on,5,0,9,,,,,,,,7,,,,26,60
98220,note_on,20,0,6,,,,,,,,4,,,,77,75
98220,note_on,5,0,1,,,,,,,,0,,,,50,60
98220,note_on,20,0,10,,,,,,,,8,,,,81,60
98220,note_on,5,0,12,,,,,,,,11,,,,50,60
98220,note_on,20,0,11,,,,,,,,10,,,,77,60
98220,note_on,5,0,13,,,,,,,,12,,,,38,60
98220,note_on,5,0,15,,,,,,,,14,,,,26,60
98220,note_on,5,0,14,,,,,,,,13,,,,26,60
98220,note_on,20,0,5,,,,,,,,3,,,,81,75
98220,note_on,5,0,7,,,,,,,,5,,,,50,60
98220,note_on,5,0,2,,,,,,,,0,,,,38,60
98220,note_on,5,0,8,,,,,,,,6,,,,38,60
98260,note_off,40,0,11,,,,,,,,10,,,,77,64
98260,note_off,40,0,10,,,,,,,,8,,,,81,64
98260,note_off,40,0,5,,,,,,,,3,,,,81,64
98260,note_off,40,0,6,,,,,,,,4,,,,77,64
98280,note_on,20,0,11,,,,,,,,10,,,,62,60
98280,note_on,20,0,10,,,,,,,,8,,,,74,60
98280,note_on,20,0,5,,,,,,,,3,,,,74,75
98280,note_on,20,0,6,,,,,,,,4,,,,62,75
98320,note_off,40,0,5,,,,,,,,3,,,,74,64
98320,note_off,40,0,11,,,,,,,,10,,,,62,64
98320,note_off,40,0,10,,,,,,,,8,,,,74,64
98320,note_off,40,0,6,,,,,,,,4,,,,62,64
98335,note_off,115,0,13,,,,,,,,12,,,,38,64
98335,note_off,115,0,9,,,,,,,,7,,,,26,64
98335,note_off,115,0,8,,,,,,,,6,,,,38,64
98335,note_off,115,0,7,,,,,,,,5,,,,50,64
98335,note_off,115,0,2,,,,,,,,0,,,,38,64
98335,note_off,115,0,12,,,,,,,,11,,,,50,64
98335,note_off,115,0,14,,,,,,,,13,,,,26,64
98335,note_off,115,0,1,,,,,,,,0,,,,50,64
98335,note_off,115,0,15,,,,,,,,14,,,,26,64
98340,note_on,5,0,7,,,,,,,,5,,,,50,60
98340,note_on,5,0,14,,,,,,,,13,,,,26,60
98340,note_on,20,0,5,,,,,,,,3,,,,81,75
98340,note_on,20,0,11,,,,,,,,10,,,,77,60
98340,note_on,5,0,2,,,,,,,,0,,,,38,60
98340,note_on,5,0,8,,,,,,,,6,,,,38,60
98340,note_on,5,0,9,,,,,,,,7,,,,26,60
98340,note_on,20,0,6,,,,,,,,4,,,,77,75
98340,note_on,5,0,12,,,,,,,,11,,,,50,60
98340,note_on,5,0,1,,,,,,,,0,,,,50,60
98340,note_on,20,0,10,,,,,,,,8,,,,81,60
98340,note_on,5,0,15,,,,,,,,14,,,,26,60
98340,note_on,5,0,13,,,,,,,,12,,,,38,60
98380,note_off,40,0,11,,,,,,,,10,,,,77,64
98380,note_off,40,0,5,,,,,,,,3,,,,81,64
98380,note_off,40,0,6,,,,,,,,4,,,,77,64
98380,note_off,40,0,10,,,,,,,,8,,,,81,64
98400,note_on,20,0,6,,,,,,,,4,,,,62,75
98400,note_on,20,0,5,,,,,,,,3,,,,74,75
98400,note_on,20,0,11,,,,,,,,10,,,,62,60
98400,note_on,20,0,10,,,,,,,,8,,,,74,60
98440,note_off,40,0,11,,,,,,,,10,,,,62,64
98440,note_off,40,0,5,,,,,,,,3,,,,74,64
98440,note_off,40,0,10,,,,,,,,8,,,,74,64
98440,note_off,40,0,6,,,,,,,,4,,,,62,64
98455,note_off,115,0,2,,,,,,,,0,,,,38,64
98455,note_off,115,0,14,,,,,,,,13,,,,26,64
98455,note_off,115,0,1,,,,,,,,0,,,,50,64
98455,note_off,115,0,13,,,,,,,,12,,,,38,64
98455,note_off,115,0,8,,,,,,,,6,,,,38,64
98455,note_off,115,0,7,,,,,,,,5,,,,50,64
98455,note_off,115,0,9,,,,,,,,7,,,,26,64
98455,note_off,115,0,15,,,,,,,,14,,,,26,64
98455,note_off,115,0,12,,,,,,,,11,,,,50,64
98460,note_on,5,0,13,,,,,,,,12,,,,38,60
98460,note_on,20,0,10,,,,,,,,8,,,,81,60
98460,note_on,5,0,12,,,,,,,,11,,,,50,60
98460,note_on,5,0,15,,,,,,,,14,,,,26,60
98460,note_on,20,0,11,,,,,,,,10,,,,77,60
98460,note_on,20,0,5,,,,,,,,3,,,,81,75
98460,note_on,5,0,9,,,,,,,,7,,,,26,60
98460,note_on,5,0,7,,,,,,,,5,,,,50,60
98460,note_on,5,0,2,,,,,,,,0,,,,38,60
98460,note_on,5,0,8,,,,,,,,6,,,,38,60
98460,note_on,5,0,14,,,,,,,,13,,,,26,60
98460,note_on,20,0,6,,,,,,,,4,,,,77,75
98460,note_on,5,0,1,,,,,,,,0,,,,50,60
98500,note_off,40,0,5,,,,,,,,3,,,,81,64
98500,note_off,40,0,6,,,,,,,,4,,,,77,64
98500,note_off,40,0,10,,,,,,,,8,,,,81,64
98500,note_off,40,0,11,,,,,,,,10,,,,77,64
98520,note_on,20,0,10,,,,,,,,8,,,,74,60
98520,note_on,20,0,5,,,,,,,,3,,,,74,75
98520,note_on,20,0,6,,,,,,,,4,,,,62,75
98520,note_on,20,0,11,,,,,,,,10,,,,62,60
98560,note_off,40,0,10,,,,,,,,8,,,,74,64
98560,note_off,40,0,5,,,,,,,,3,,,,74,64
98560,note_off,40,0,6,,,,,,,,4,,,,62,64
98560,note_off,40,0,11,,,,,,,,10,,,,62,64
98575,note_off,115,0,12,,,,,,,,11,,,,50,64
98575,note_off,115,0,8,,,,,,,,6,,,,38,64
98575,note_off,115,0,15,,,,,,,,14,,,,26,64
98575,note_off,115,0,2,,,,,,,,0,,,,38,64
98575,note_off,115,0,9,,,,,,,,7,,,,26,64
98575,note_off,115,0,13,,,,,,,,12,,,,38,64
98575,note_off,115,0,1,,,,,,,,0,,,,50,64
98575,note_off,115,0,14,,,,,,,,13,,,,26,64
98575,note_off,115,0,7,,,,,,,,5,,,,50,64
98580,note_on,5,0,1,,,,,,,,0,,,,62,30
98580,note_on,5,0,15,,,,,,,,14,,,,38,30
98580,note_on,5,0,2,,,,,,,,0,,,,50,30
98580,note_on,20,0,11,,,,,,,,10,,,,82,30
98580,note_on,20,0,5,,,,,,,,3,,,,86,45
98580,note_on,5,0,8,,,,,,,,6,,,,50,30
98580,note_on,5,0,14,,,,,,,,13,,,,38,30
98580,note_on,20,0,6,,,,,,,,4,,,,82,45
98580,note_on,20,0,10,,,,,,,,8,,,,86,30
98580,note_on,5,0,9,,,,,,,,7,,,,38,30
98580,note_on,5,0,12,,,,,,,,11,,,,62,30
98580,note_on,5,0,13,,,,,,,,12,,,,50,30
98580,note_on,5,0,7,,,,,,,,5,,,,62,30
98620,note_off,40,0,11,,,,,,,,10,,,,82,64
98620,note_off,40,0,5,,,,,,,,3,,,,86,64
98620,note_off,40,0,10,,,,,,,,8,,,,86,64
98620,note_off,40,0,6,,,,,,,,4,,,,82,64
98640,note_on,20,0,5,,,,,,,,3,,,,74,45
98640,note_on,20,0,6,,,,,,,,4,,,,62,45
98640,note_on,20,0,10,,,,,,,,8,,,,74,30
98640,note_on,20,0,11,,,,,,,,10,,,,62,30
98680,note_off,40,0,5,,,,,,,,3,,,,74,64
98680,note_off,40,0,6,,,,,,,,4,,,,62,64
98680,note_off,40,0,11,,,,,,,,10,,,,62,64
98680,note_off,40,0,10,,,,,,,,8,,,,74,64
98695,note_off,115,0,12,,,,,,,,11,,,,62,64
98695,note_off,115,0,7,,,,,,,,5,,,,62,64
98700,note_on,5,0,7,,,,,,,,5,,,,74,30
98700,note_on,20,0,5,,,,,,,,3,,,,86,45
98700,note_on,20,0,11,,,,,,,,10,,,,82,30
98700,note_on,20,0,6,,,,,,,,4,,,,82,45
98700,note_on,5,0,12,,,,,,,,11,,,,74,30
98700,note_on,20,0,10,,,,,,,,8,,,,86,30
98740,note_off,40,0,10,,,,,,,,8,,,,86,64
98740,note_off,40,0,6,,,,,,,,4,,,,82,64
98740,note_off,40,0,5,,,,,,,,3,,,,86,64
98740,note_off,40,0,11,,,,,,,,10,,,,82,64
98760,note_on,20,0,5,,,,,,,,3,,,,74,45
98760,note_on,20,0,10,,,,,,,,8,,,,74,30
98760,note_on,20,0,6,,,,,,,,4,,,,62,45
98760,note_on,20,0,11,,,,,,,,10,,,,62,30
98800,note_off,40,0,10,,,,,,,,8,,,,74,64
98800,note_off,40,0,11,,,,,,,,10,,,,62,64
98800,note_off,40,0,5,,,,,,,,3,,,,74,64
98800,note_off,40,0,6,,,,,,,,4,,,,62,64
98815,note_off,115,0,7,,,,,,,,5,,,,74,64
98815,note_off,235,0,15,,,,,,,,14,,,,38,64
98815,note_off,235,0,1,,,,,,,,0,,,,62,64
98815,note_off,115,0,12,,,,,,,,11,,,,74,64
98815,note_off,235,0,13,,,,,,,,12,,,,50,64
98815,note_off,235,0,2,,,,,,,,0,,,,50,64
98815,note_off,235,0,9,,,,,,,,7,,,,38,64
98815,note_off,235,0,8,,,,,,,,6,,,,50,64
98815,note_off,235,0,14,,,,,,,,13,,,,38,64
98820,note_on,5,0,2,,,,,,,,0,,,,50,30
98820,note_on,20,0,11,,,,,,,,10,,,,82,30
98820,note_on,5,0,14,,,,,,,,13,,,,38,30
98820,note_on,20,0,6,,,,,,,,4,,,,82,45
98820,note_on,20,0,10,,,,,,,,8,,,,86,30
98820,note_on,5,0,9,,,,,,,,7,,,,38,30
98820,note_on,5,0,1,,,,,,,,0,,,,62,30
98820,note_on,5,0,12,,,,,,,,11,,,,62,30
98820,note_on,5,0,15,,,,,,,,14,,,,38,30
98820,note_on,5,0,7,,,,,,,,5,,,,62,30
98820,note_on,20,0,5,,,,,,,,3,,,,86,45
98820,note_on,5,0,8,,,,,,,,6,,,,50,30
98820,note_on,5,0,13,,,,,,,,12,,,,50,30
98860,note_off,40,0,6,,,,,,,,4,,,,82,64
98860,note_off,40,0,5,,,,,,,,3,,,,86,64
98860,note_off,40,0,11,,,,,,,,10,,,,82,64
98860,note_off,40,0,10,,,,,,,,8,,,,86,64
98880,note_on,20,0,5,,,,,,,,3,,,,74,45
98880,note_on,20,0,6,,,,,,,,4,,,,62,45
98880,note_on,20,0,11,,,,,,,,10,,,,62,30
98880,note_on,20,0,10,,,,,,,,8,,,,74,30
98920,note_off,40,0,6,,,,,,,,4,,,,62,64
98920,note_off,40,0,10,,,,,,,,8,,,,74,64
98920,note_off,40,0,11,,,,,,,,10,,,,62,64
98920,note_off,40,0,5,,,,,,,,3,,,,74,64
98935,note_off,115,0,14,,,,,,,,13,,,,38,64
98935,note_off,115,0,8,,,,,,,,6,,,,50,64
98935,note_off,115,0,2,,,,,,,,0,,,,50,64
98935,note_off,115,0,1,,,,,,,,0,,,,62,64
98935,note_off,115,0,12,,,,,,,,11,,,,62,64
98935,note_off,115,0,9,,,,,,,,7,,,,38,64
98935,note_off,115,0,7,,,,,,,,5,,,,62,64
98935,note_off,115,0,15,,,,,,,,14,,,,38,64
98935,note_off,115,0,13,,,,,,,,12,,,,50,64
98940,note_on,5,0,7,,,,,,,,5,,,,50,30
98940,note_on,20,0,5,,,,,,,,3,,,,86,45
98940,note_on,20,0,11,,,,,,,,10,,,,82,30
98940,note_on,20,0,6,,,,,,,,4,,,,82,45
98940,note_on,5,0,1,,,,,,,,0,,,,50,30
98940,note_on,5,0,13,,,,,,,,12,,,,38,30
98940,note_on,5,0,2,,,,,,,,0,,,,38,30
98940,note_on,20,0,10,,,,,,,,8,,,,86,30
98940,note_on,5,0,8,,,,,,,,6,,,,38,30
98940,note_on,5,0,15,,,,,,,,14,,,,26,30
98940,note_on,5,0,14,,,,,,,,13,,,,26,30
98940,note_on,5,0,9,,,,,,,,7,,,,26,30
98940,note_on,5,0,12,,,,,,,,11,,,,50,30
98980,note_off,40,0,10,,,,,,,,8,,,,86,64
98980,note_off,40,0,6,,,,,,,,4,,,,82,64
98980,note_off,40,0,5,,,,,,,,3,,,,86,64
98980,note_off,40,0,11,,,,,,,,10,,,,82,64
99000,note_on,20,0,5,,,,,,,,3,,,,74,45
99000,note_on,20,0,11,,,,,,,,10,,,,62,30
99000,note_on,20,0,10,,,,,,,,8,,,,74,30
99000,note_on,20,0,6,,,,,,,,4,,,,62,45
99040,note_off,40,0,10,,,,,,,,8,,,,74,64
99040,note_off,40,0,5,,,,,,,,3,,,,74,64
99040,note_off,40,0,11,,,,,,,,10,,,,62,64
99040,note_off,40,0,6,,,,,,,,4,,,,62,64
99055,note_off,115,0,9,,,,,,,,7,,,,26,64
99055,note_off,115,0,8,,,,,,,,6,,,,38,64
99055,note_off,115,0,7,,,,,,,,5,,,,50,64
99055,note_off,115,0,14,,,,,,,,13,,,,26,64
99055,note_off,115,0,12,,,,,,,,11,,,,50,64
99055,note_off,115,0,2,,,,,,,,0,,,,38,64
99055,note_off,115,0,1,,,,,,,,0,,,,50,64
99055,note_off,115,0,13,,,,,,,,12,,,,38,64
99055,note_off,115,0,15,,,,,,,,14,,,,26,64
99060,note_on,20,0,10,,,,,,,,8,,,,86,30
99060,note_on,5,0,9,,,,,,,,7,,,,26,30
99060,note_on,5,0,2,,,,,,,,0,,,,38,30
99060,note_on,5,0,7,,,,,,,,5,,,,50,30
99060,note_on,20,0,6,,,,,,,,4,,,,82,45
99060,note_on,5,0,8,,,,,,,,6,,,,38,30
99060,note_on,5,0,14,,,,,,,,13,,,,26,30
99060,note_on,5,0,13,,,,,,,,12,,,,38,30
99060,note_on,5,0,1,,,,,,,,0,,,,50,30
99060,note_on,5,0,12,,,,,,,,11,,,,50,30
99060,note_on,20,0,5,,,,,,,,3,,,,86,45
99060,note_on,20,0,11,,,,,,,,10,,,,82,30
99060,note_on,5,0,15,,,,,,,,14,,,,26,30
99100,note_off,40,0,5,,,,,,,,3,,,,86,64
99100,note_off,40,0,11,,,,,,,,10,,,,82,64
99100,note_off,40,0,6,,,,,,,,4,,,,82,64
99100,note_off,40,0,10,,,,,,,,8,,,,86,64
99120,note_on,20,0,11,,,,,,,,10,,,,62,30
99120,note_on,20,0,5,,,,,,,,3,,,,74,45
99120,note_on,20,0,6,,,,,,,,4,,,,62,45
99120,note_on,20,0,10,,,,,,,,8,,,,74,30
99160,note_off,40,0,11,,,,,,,,10,,,,62,64
99160,note_off,40,0,6,,,,,,,,4,,,,62,64
99160,note_off,40,0,5,,,,,,,,3,,,,74,64
99160,note_off,40,0,10,,,,,,,,8,,,,74,64
99175,note_off,115,0,14,,,,,,,,13,,,,26,64
99175,note_off,115,0,15,,,,,,,,14,,,,26,64
99175,note_off,115,0,9,,,,,,,,7,,,,26,64
99175,note_off,115,0,8,,,,,,,,6,,,,38,64
99175,note_off,115,0,12,,,,,,,,11,,,,50,64
99175,note_off,115,0,2,,,,,,,,0,,,,38,64
99175,note_off,115,0,13,,,,,,,,12,,,,38,64
99175,note_off,115,0,1,,,,,,,,0,,,,50,64
99175,note_off,115,0,7,,,,,,,,5,,,,50,64
99180,note_on,5,0,2,,,,,,,,0,,,,38,30
99180,note_on,20,0,10,,,,,,,,8,,,,86,30
99180,note_on,5,0,7,,,,,,,,5,,,,50,30
99180,note_on,5,0,14,,,,,,,,13,,,,26,30
99180,note_on,20,0,5,,,,,,,,3,,,,86,45
99180,note_on,20,0,6,,,,,,,,4,,,,82,45
99180,note_on,5,0,12,,,,,,,,11,,,,50,30
99180,note_on,5,0,15,,,,,,,,14,,,,26,30
99180,note_on,20,0,11,,,,,,,,10,,,,82,30
99180,note_on,5,0,1,,,,,,,,0,,,,50,30
99180,note_on,5,0,13,,,,,,,,12,,,,38,30
99180,note_on,5,0,8,,,,,,,,6,,,,38,30
99180,note_on,5,0,9,,,,,,,,7,,,,26,30
99220,note_off,40,0,5,,,,,,,,3,,,,86,64
99220,note_off,40,0,11,,,,,,,,10,,,,82,64
99220,note_off,40,0,6,,,,,,,,4,,,,82,64
99220,note_off,40,0,10,,,,,,,,8,,,,86,64
99240,note_on,20,0,11,,,,,,,,10,,,,62,30
99240,note_on,20,0,10,,,,,,,,8,,,,74,30
99240,note_on,20,0,5,,,,,,,,3,,,,74,45
99240,note_on,20,0,6,,,,,,,,4,,,,62,45
99280,note_off,40,0,5,,,,,,,,3,,,,74,64
99280,note_off,40,0,6,,,,,,,,4,,,,62,64
99280,note_off,40,0,11,,,,,,,,10,,,,62,64
99280,note_off,40,0,10,,,,,,,,8,,,,74,64
99295,note_off,115,0,13,,,,,,,,12,,,,38,64
99295,note_off,115,0,12,,,,,,,,11,,,,50,64
99295,note_off,115,0,14,,,,,,,,13,,,,26,64
99295,note_off,115,0,2,,,,,,,,0,,,,38,64
99295,note_off,115,0,15,,,,,,,,14,,,,26,64
99295,note_off,115,0,7,,,,,,,,5,,,,50,64
99295,note_off,115,0,8,,,,,,,,6,,,,38,64
99295,note_off,115,0,1,,,,,,,,0,,,,50,64
99295,note_off,115,0,9,,,,,,,,7,,,,26,64
99300,note_on,5,0,2,,,,,,,,0,,,,50,30
99300,note_on,5,0,7,,,,,,,,5,,,,62,30
99300,note_on,20,0,11,,,,,,,,10,,,,81,30
99300,note_on,5,0,15,,,,,,,,14,,,,38,30
99300,note_on,5,0,13,,,,,,,,12,,,,50,30
99300,note_on,20,0,10,,,,,,,,8,,,,84,30
99300,note_on,20,0,6,,,,,,,,4,,,,81,45
99300,note_on,5,0,8,,,,,,,,6,,,,50,30
99300,note_on,5,0,12,,,,,,,,11,,,,62,30
99300,note_on,20,0,5,,,,,,,,3,,,,84,45
99300,note_on,5,0,14,,,,,,,,13,,,,38,30
99300,note_on,5,0,9,,,,,,,,7,,,,38,30
99300,note_on,5,0,1,,,,,,,,0,,,,62,30
99340,note_off,40,0,11,,,,,,,,10,,,,81,64
99340,note_off,40,0,5,,,,,,,,3,,,,84,64
99340,note_off,40,0,10,,,,,,,,8,,,,84,64
99340,note_off,40,0,6,,,,,,,,4,,,,81,64
99360,note_on,20,0,11,,,,,,,,10,,,,62,30
99360,note_on,20,0,10,,,,,,,,8,,,,74,30
99360,note_on,20,0,6,,,,,,,,4,,,,62,45
99360,note_on,20,0,5,,,,,,,,3,,,,74,45
99400,note_off,40,0,10,,,,,,,,8,,,,74,64
99400,note_off,40,0,6,,,,,,,,4,,,,62,64
99400,note_off,40,0,5,,,,,,,,3,,,,74,64
99400,note_off,40,0,11,,,,,,,,10,,,,62,64
99415,note_off,115,0,7,,,,,,,,5,,,,62,64
99415,note_off,115,0,12,,,,,,,,11,,,,62,64
99420,note_on,20,0,11,,,,,,,,10,,,,81,30
99420,note_on,20,0,10,,,,,,,,8,,,,84,30
99420,note_on,5,0,12,,,,,,,,11,,,,74,30
99420,note_on,5,0,7,,,,,,,,5,,,,74,30
99420,note_on,20,0,5,,,,,,,,3,,,,84,45
99420,note_on,20,0,6,,,,,,,,4,,,,81,45
99460,note_off,40,0,5,,,,,,,,3,,,,84,64
99460,note_off,40,0,6,,,,,,,,4,,,,81,64
99460,note_off,40,0,11,,,,,,,,10,,,,81,64
99460,note_off,40,0,10,,,,,,,,8,,,,84,64
99480,note_on,20,0,10,,,,,,,,8,,,,74,30
99480,note_on,20,0,5,,,,,,,,3,,,,74,45
99480,note_on,20,0,6,,,,,,,,4,,,,62,45
99480,note_on,20,0,11,,,,,,,,10,,,,62,30
99520,note_off,40,0,5,,,,,,,,3,,,,74,64
99520,note_off,40,0,11,,,,,,,,10,,,,62,64
99520,note_off,40,0,6,,,,,,,,4,,,,62,64
99520,note_off,40,0,10,,,,,,,,8,,,,74,64
99535,note_off,235,0,9,,,,,,,,7,,,,38,64
99535,note_off,235,0,15,,,,,,,,14,,,,38,64
99535,note_off,235,0,14,,,,,,,,13,,,,38,64
99535,note_off,235,0,8,,,,,,,,6,,,,50,64
99535,note_off,235,0,2,,,,,,,,0,,,,50,64
99535,note_off,235,0,1,,,,,,,,0,,,,62,64
99535,note_off,235,0,13,,,,,,,,12,,,,50,64
99535,note_off,115,0,12,,,,,,,,11,,,,74,64
99535,note_off,115,0,7,,,,,,,,5,,,,74,64
99540,note_on,5,0,9,,,,,,,,7,,,,38,30
99540,note_on,5,0,8,,,,,,,,6,,,,50,30
99540,note_on,20,0,6,,,,,,,,4,,,,81,45
99540,note_on,5,0,12,,,,,,,,11,,,,62,30
99540,note_on,5,0,1,,,,,,,,0,,,,62,30
99540,note_on,5,0,14,,,,,,,,13,,,,38,30
99540,note_on,5,0,13,,,,,,,,12,,,,50,30
99540,note_on,20,0,11,,,,,,,,10,,,,81,30
99540,note_on,20,0,10,,,,,,,,8,,,,84,30
99540,note_on,5,0,15,,,,,,,,14,,,,38,30
99540,note_on,5,0,7,,,,,,,,5,,,,62,30
99540,note_on,20,0,5,,,,,,,,3,,,,84,45
99540,note_on,5,0,2,,,,,,,,0,,,,50,30
99580,note_off,40,0,10,,,,,,,,8,,,,84,64
99580,note_off,40,0,6,,,,,,,,4,,,,81,64
99580,note_off,40,0,5,,,,,,,,3,,,,84,64
99580,note_off,40,0,11,,,,,,,,10,,,,81,64
99600,note_on,20,0,5,,,,,,,,3,,,,74,45
99600,note_on,20,0,10,,,,,,,,8,,,,74,30
99600,note_on,20,0,6,,,,,,,,4,,,,62,45
99600,note_on,20,0,11,,,,,,,,10,,,,62,30
99640,note_off,40,0,11,,,,,,,,10,,,,62,64
99640,note_off,40,0,10,,,,,,,,8,,,,74,64
99640,note_off,40,0,6,,,,,,,,4,,,,62,64
99640,note_off,40,0,5,,,,,,,,3,,,,74,64
99655,note_off,115,0,12,,,,,,,,11,,,,62,64
99655,note_off,115,0,13,,,,,,,,12,,,,50,64
99655,note_off,115,0,9,,,,,,,,7,,,,38,64
99655,note_off,115,0,7,,,,,,,,5,,,,62,64
99655,note_off,115,0,8,,,,,,,,6,,,,50,64
99655,note_off,115,0,1,,,,,,,,0,,,,62,64
99655,note_off,115,0,14,,,,,,,,13,,,,38,64
99655,note_off,115,0,15,,,,,,,,14,,,,38,64
99655,note_off,115,0,2,,,,,,,,0,,,,50,64
99660,note_on,5,0,7,,,,,,,,5,,,,50,30
99660,note_on,5,0,2,,,,,,,,0,,,,38,30
99660,note_on,5,0,12,,,,,,,,11,,,,50,30
99660,note_on,5,0,9,,,,,,,,7,,,,26,30
99660,note_on,5,0,8,,,,,,,,6,,,,38,30
99660,note_on,5,0,15,,,,,,,,14,,,,26,30
99660,note_on,5,0,1,,,,,,,,0,,,,50,30
99660,note_on,20,0,10,,,,,,,,8,,,,84,30
99660,note_on,20,0,11,,,,,,,,10,,,,81,30
99660,note_on,20,0,6,,,,,,,,4,,,,81,45
99660,note_on,5,0,13,,,,,,,,12,,,,38,30
99660,note_on,5,0,14,,,,,,,,13,,,,26,30
99660,note_on,20,0,5,,,,,,,,3,,,,84,45
99700,note_off,40,0,10,,,,,,,,8,,,,84,64
99700,note_off,40,0,11,,,,,,,,10,,,,81,64
99700,note_off,40,0,6,,,,,,,,4,,,,81,64
99700,note_off,40,0,5,,,,,,,,3,,,,84,64
99720,note_on,20,0,5,,,,,,,,3,,,,74,45
99720,note_on,20,0,11,,,,,,,,10,,,,62,30
99720,note_on,20,0,6,,,,,,,,4,,,,62,45
99720,note_on,20,0,10,,,,,,,,8,,,,74,30
99760,note_off,40,0,5,,,,,,,,3,,,,74,64
99760,note_off,40,0,6,,,,,,,,4,,,,62,64
99760,note_off,40,0,10,,,,,,,,8,,,,74,64
99760,note_off,40,0,11,,,,,,,,10,,,,62,64
99775,note_off,115,0,9,,,,,,,,7,,,,26,64
99775,note_off,115,0,12,,,,,,,,11,,,,50,64
99775,note_off,115,0,8,,,,,,,,6,,,,38,64
99775,note_off,115,0,15,,,,,,,,14,,,,26,64
99775,note_off,115,0,1,,,,,,,,0,,,,50,64
99775,note_off,115,0,13,,,,,,,,12,,,,38,64
99775,note_off,115,0,7,,,,,,,,5,,,,50,64
99775,note_off,115,0,2,,,,,,,,0,,,,38,64
99775,note_off,115,0,14,,,,,,,,13,,,,26,64
99780,note_on,5,0,14,,,,,,,,13,,,,26,30
99780,note_on,5,0,1,,,,,,,,0,,,,50,30
99780,note_on,20,0,6,,,,,,,,4,,,,81,45
99780,note_on,5,0,15,,,,,,,,14,,,,26,30
99780,note_on,20,0,11,,,,,,,,10,,,,81,30
99780,note_on,20,0,5,,,,,,,,3,,,,84,45
99780,note_on,5,0,7,,,,,,,,5,,,,50,30
99780,note_on,20,0,10,,,,,,,,8,,,,84,30
99780,note_on,5,0,12,,,,,,,,11,,,,50,30
99780,note_on,5,0,13,,,,,,,,12,,,,38,30
99780,note_on,5,0,8,,,,,,,,6,,,,38,30
99780,note_on,5,0,9,,,,,,,,7,,,,26,30
99780,note_on,5,0,2,,,,,,,,0,,,,38,30
99820,note_off,40,0,11,,,,,,,,10,,,,81,64
99820,note_off,40,0,6,,,,,,,,4,,,,81,64
99820,note_off,40,0,5,,,,,,,,3,,,,84,64
99820,note_off,40,0,10,,,,,,,,8,,,,84,64
99840,note_on,20,0,6,,,,,,,,4,,,,62,45
99840,note_on,20,0,11,,,,,,,,10,,,,62,30
99840,note_on,20,0,5,,,,,,,,3,,,,74,45
99840,note_on,20,0,10,,,,,,,,8,,,,74,30
99880,note_off,40,0,6,,,,,,,,4,,,,62,64
99880,note_off,40,0,10,,,,,,,,8,,,,74,64
99880,note_off,40,0,11,,,,,,,,10,,,,62,64
99880,note_off,40,0,5,,,,,,,,3,,,,74,64
99895,note_off,115,0,1,,,,,,,,0,,,,50,64
99895,note_off,115,0,2,,,,,,,,0,,,,38,64
99895,note_off,115,0,15,,,,,,,,14,,,,26,64
99895,note_off,115,0,13,,,,,,,,12,,,,38,64
99895,note_off,115,0,7,,,,,,,,5,,,,50,64
99895,note_off,115,0,9,,,,,,,,7,,,,26,64
99895,note_off,115,0,8,,,,,,,,6,,,,38,64
99895,note_off,115,0,12,,,,,,,,11,,,,50,64
99895,note_off,115,0,14,,,,,,,,13,,,,26,64
99900,note_on,5,0,8,,,,,,,,6,,,,38,30
99900,note_on,20,0,5,,,,,,,,3,,,,84,45
99900,note_on,5,0,14,,,,,,,,13,,,,26,30
99900,note_on,5,0,7,,,,,,,,5,,,,50,30
99900,note_on,5,0,2,,,,,,,,0,,,,38,30
99900,note_on,5,0,13,,,,,,,,12,,,,38,30
99900,note_on,20,0,10,,,,,,,,8,,,,84,30
99900,note_on,5,0,15,,,,,,,,14,,,,26,30
99900,note_on,20,0,11,,,,,,,,10,,,,81,30
99900,note_on,5,0,1,,,,,,,,0,,,,50,30
99900,note_on,20,0,6,,,,,,,,4,,,,81,45
99900,note_on,5,0,12,,,,,,,,11,,,,50,30
99900,note_on,5,0,9,,,,,,,,7,,,,26,30
99940,note_off,40,0,5,,,,,,,,3,,,,84,64
99940,note_off,40,0,11,,,,,,,,10,,,,81,64
99940,note_off,40,0,10,,,,,,,,8,,,,84,64
99940,note_off,40,0,6,,,,,,,,4,,,,81,64
99960,note_on,20,0,10,,,,,,,,8,,,,74,30
99960,note_on,20,0,11,,,,,,,,10,,,,62,30
99960,note_on,20,0,5,,,,,,,,3,,,,74,45
99960,note_on,20,0,6,,,,,,,,4,,,,62,45
100000,note_off,40,0,6,,,,,,,,4,,,,62,64
100000,note_off,40,0,10,,,,,,,,8,,,,74,64
100000,note_off,40,0,5,,,,,,,,3,,,,74,64
100000,note_off,40,0,11,,,,,,,,10,,,,62,64
100015,note_off,115,0,9,,,,,,,,7,,,,26,64
100015,note_off,115,0,7,,,,,,,,5,,,,50,64
100015,note_off,115,0,14,,,,,,,,13,,,,26,64
100015,note_off,115,0,15,,,,,,,,14,,,,26,64
100015,note_off,115,0,1,,,,,,,,0,,,,50,64
100015,note_off,115,0,13,,,,,,,,12,,,,38,64
100015,note_off,115,0,2,,,,,,,,0,,,,38,64
100015,note_off,115,0,8,,,,,,,,6,,,,38,64
100015,note_off,115,0,12,,,,,,,,11,,,,50,64
100020,note_on,20,0,10,,,,,,,,8,,,,82,30
100020,note_on,5,0,8,,,,,,,,6,,,,50,30
100020,note_on,5,0,14,,,,,,,,13,,,,38,30
100020,note_on,5,0,7,,,,,,,,5,,,,62,30
100020,note_on,5,0,1,,,,,,,,0,,,,62,30
100020,note_on,5,0,9,,,,,,,,7,,,,38,30
100020,note_on,5,0,15,,,,,,,,14,,,,38,30
100020,note_on,20,0,5,,,,,,,,3,,,,82,45
100020,note_on,5,0,13,,,,,,,,12,,,,50,30
100020,note_on,5,0,2,,,,,,,,0,,,,50,30
100020,note_on,20,0,11,,,,,,,,10,,,,79,30
100020,note_on,20,0,6,,,,,,,,4,,,,79,45
100020,note_on,5,0,12,,,,,,,,11,,,,62,30
100060,note_off,40,0,11,,,,,,,,10,,,,79,64
100060,note_off,40,0,6,,,,,,,,4,,,,79,64
100060,note_off,40,0,5,,,,,,,,3,,,,82,64
100060,note_off,40,0,10,,,,,,,,8,,,,82,64
100080,note_on,20,0,11,,,,,,,,10,,,,62,30
100080,note_on,20,0,5,,,,,,,,3,,,,74,45
100080,note_on,20,0,6,,,,,,,,4,,,,62,45
100080,note_on,20,0,10,,,,,,,,8,,,,74,30
100120,note_off,40,0,11,,,,,,,,10,,,,62,64
100120,note_off,40,0,6,,,,,,,,4,,,,62,64
100120,note_off,40,0,5,,,,,,,,3,,,,74,64
100120,note_off,40,0,10,,,,,,,,8,,,,74,64
100135,note_off,115,0,7,,,,,,,,5,,,,62,64
100135,note_off,115,0,12,,,,,,,,11,,,,62,64
100140,note_on,5,0,12,,,,,,,,11,,,,74,31
100140,note_on,20,0,6,,,,,,,,4,,,,79,45
100140,note_on,20,0,5,,,,,,,,3,,,,82,45
100140,note_on,5,0,7,,,,,,,,5,,,,74,31
100140,note_on,20,0,11,,,,,,,,10,,,,79,30
100140,note_on,20,0,10,,,,,,,,8,,,,82,30
100180,note_off,40,0,5,,,,,,,,3,,,,82,64
100180,note_off,40,0,11,,,,,,,,10,,,,79,64
100180,note_off,40,0,6,,,,,,,,4,,,,79,64
100180,note_off,40,0,10,,,,,,,,8,,,,82,64
100200,note_on,20,0,10,,,,,,,,8,,,,74,30
100200,note_on,20,0,11,,,,,,,,10,,,,62,30
100200,note_on,20,0,5,,,,,,,,3,,,,74,45
100200,note_on,20,0,6,,,,,,,,4,,,,62,45
100240,note_off,40,0,5,,,,,,,,3,,,,74,64
100240,note_off,40,0,6,,,,,,,,4,,,,62,64
100240,note_off,40,0,11,,,,,,,,10,,,,62,64
100240,note_off,40,0,10,,,,,,,,8,,,,74,64
100255,note_off,235,0,13,,,,,,,,12,,,,50,64
100255,note_off,235,0,14,,,,,,,,13,,,,38,64
100255,note_off,235,0,2,,,,,,,,0,,,,50,64
100255,note_off,235,0,15,,,,,,,,14,,,,38,64
100255,note_off,235,0,1,,,,,,,,0,,,,62,64
100255,note_off,235,0,8,,,,,,,,6,,,,50,64
100255,note_off,115,0,7,,,,,,,,5,,,,74,64
100255,note_off,115,0,12,,,,,,,,11,,,,74,64
100255,note_off,235,0,9,,,,,,,,7,,,,38,64
100260,note_on,5,0,12,,,,,,,,11,,,,62,32
100260,note_on,20,0,6,,,,,,,,4,,,,79,45
100260,note_on,5,0,13,,,,,,,,12,,,,50,32
100260,note_on,5,0,14,,,,,,,,13,,,,38,32
100260,note_on,20,0,10,,,,,,,,8,,,,82,30
100260,note_on,5,0,7,,,,,,,,5,,,,62,32
100260,note_on,5,0,15,,,,,,,,14,,,,38,32
100260,note_on,20,0,11,,,,,,,,10,,,,79,30
100260,note_on,5,0,1,,,,,,,,0,,,,62,32
100260,note_on,20,0,5,,,,,,,,3,,,,82,45
100260,note_on,5,0,8,,,,,,,,6,,,,50,32
100260,note_on,5,0,9,,,,,,,,7,,,,38,32
100260,note_on,5,0,2,,,,,,,,0,,,,50,32
100300,note_off,40,0,11,,,,,,,,10,,,,79,64
100300,note_off,40,0,10,,,,,,,,8,,,,82,64
100300,note_off,40,0,6,,,,,,,,4,,,,79,64
100300,note_off,40,0,5,,,,,,,,3,,,,82,64
100320,note_on,20,0,6,,,,,,,,4,,,,62,45
100320,note_on,20,0,10,,,,,,,,8,,,,74,30
100320,note_on,20,0,5,,,,,,,,3,,,,74,45
100320,note_on,20,0,11,,,,,,,,10,,,,62,30
100360,note_off,40,0,5,,,,,,,,3,,,,74,64
100360,note_off,40,0,11,,,,,,,,10,,,,62,64
100360,note_off,40,0,10,,,,,,,,8,,,,74,64
100360,note_off,40,0,6,,,,,,,,4,,,,62,64
100375,note_off,115,0,8,,,,,,,,6,,,,50,64
100375,note_off,115,0,14,,,,,,,,13,,,,38,64
100375,note_off,115,0,1,,,,,,,,0,,,,62,64
100375,note_off,115,0,9,,,,,,,,7,,,,38,64
100375,note_off,115,0,2,,,,,,,,0,,,,50,64
100375,note_off,115,0,7,,,,,,,,5,,,,62,64
100375,note_off,115,0,15,,,,,,,,14,,,,38,64
100375,note_off,115,0,13,,,,,,,,12,,,,50,64
100375,note_off,115,0,12,,,,,,,,11,,,,62,64
100380,note_on,20,0,11,,,,,,,,10,,,,79,30
100380,note_on,20,0,10,,,,,,,,8,,,,82,30
100380,note_on,5,0,1,,,,,,,,0,,,,50,33
100380,note_on,5,0,15,,,,,,,,14,,,,26,33
100380,note_on,5,0,8,,,,,,,,6,,,,38,33
100380,note_on,5,0,9,,,,,,,,7,,,,26,33
100380,note_on,5,0,2,,,,,,,,0,,,,38,33
100380,note_on,5,0,14,,,,,,,,13,,,,26,33
100380,note_on,20,0,5,,,,,,,,3,,,,82,45
100380,note_on,5,0,13,,,,,,,,12,,,,38,33
100380,note_on,20,0,6,,,,,,,,4,,,,79,45
100380,note_on,5,0,12,,,,,,,,11,,,,50,33
100380,note_on,5,0,7,,,,,,,,5,,,,50,33
100420,note_off,40,0,5,,,,,,,,3,,,,82,64
100420,note_off,40,0,11,,,,,,,,10,,,,79,64
100420,note_off,40,0,6,,,,,,,,4,,,,79,64
100420,note_off,40,0,10,,,,,,,,8,,,,82,64
100440,note_on,20,0,5,,,,,,,,3,,,,74,45
100440,note_on,20,0,10,,,,,,,,8,,,,74,30
100440,note_on,20,0,6,,,,,,,,4,,,,62,45
100440,note_on,20,0,11,,,,,,,,10,,,,62,30
100480,note_off,40,0,6,,,,,,,,4,,,,62,64
100480,note_off,40,0,10,,,,,,,,8,,,,74,64
100480,note_off,40,0,5,,,,,,,,3,,,,74,64
100480,note_off,40,0,11,,,,,,,,10,,,,62,64
100495,note_off,115,0,13,,,,,,,,12,,,,38,64
100495,note_off,115,0,7,,,,,,,,5,,,,50,64
100495,note_off,115,0,2,,,,,,,,0,,,,38,64
100495,note_off,115,0,15,,,,,,,,14,,,,26,64
100495,note_off,115,0,8,,,,,,,,6,,,,38,64
100495,note_off,115,0,12,,,,,,,,11,,,,50,64
100495,note_off,115,0,1,,,,,,,,0,,,,50,64
100495,note_off,115,0,14,,,,,,,,13,,,,26,64
100495,note_off,115,0,9,,,,,,,,7,,,,26,64
100500,note_on,5,0,14,,,,,,,,13,,,,26,34
100500,note_on,5,0,9,,,,,,,,7,,,,26,34
100500,note_on,20,0,5,,,,,,,,3,,,,82,45
100500,note_on,20,0,6,,,,,,,,4,,,,79,45
100500,note_on,5,0,2,,,,,,,,0,,,,38,34
100500,note_on,5,0,8,,,,,,,,6,,,,38,34
100500,note_on,5,0,7,,,,,,,,5,,,,50,34
100500,note_on,5,0,1,,,,,,,,0,,,,50,34
100500,note_on,20,0,10,,,,,,,,8,,,,82,30
100500,note_on,5,0,15,,,,,,,,14,,,,26,34
100500,note_on,5,0,12,,,,,,,,11,,,,50,34
100500,note_on,20,0,11,,,,,,,,10,,,,79,30
100500,note_on,5,0,13,,,,,,,,12,,,,38,34
100540,note_off,40,0,11,,,,,,,,10,,,,79,64
100540,note_off,40,0,10,,,,,,,,8,,,,82,64
100540,note_off,40,0,6,,,,,,,,4,,,,79,64
100540,note_off,40,0,5,,,,,,,,3,,,,82,64
100560,note_on,20,0,6,,,,,,,,4,,,,62,45
100560,note_on,20,0,10,,,,,,,,8,,,,74,30
100560,note_on,20,0,5,,,,,,,,3,,,,74,45
100560,note_on,20,0,11,,,,,,,,10,,,,62,30
100600,note_off,40,0,10,,,,,,,,8,,,,74,64
100600,note_off,40,0,6,,,,,,,,4,,,,62,64
100600,note_off,40,0,11,,,,,,,,10,,,,62,64
100600,note_off,40,0,5,,,,,,,,3,,,,74,64
100615,note_off,115,0,9,,,,,,,,7,,,,26,64
100615,note_off,115,0,13,,,,,,,,12,,,,38,64
100615,note_off,115,0,12,,,,,,,,11,,,,50,64
100615,note_off,115,0,8,,,,,,,,6,,,,38,64
100615,note_off,115,0,14,,,,,,,,13,,,,26,64
100615,note_off,115,0,2,,,,,,,,0,,,,38,64
100615,note_off,115,0,15,,,,,,,,14,,,,26,64
100615,note_off,115,0,7,,,,,,,,5,,,,50,64
100615,note_off,115,0,1,,,,,,,,0,,,,50,64
100620,note_on,5,0,9,,,,,,,,7,,,,26,35
100620,note_on,20,0,11,,,,,,,,10,,,,79,31
100620,note_on,5,0,7,,,,,,,,5,,,,50,35
100620,note_on,5,0,13,,,,,,,,12,,,,38,35
100620,note_on,5,0,2,,,,,,,,0,,,,38,35
100620,note_on,20,0,10,,,,,,,,8,,,,82,31
100620,note_on,5,0,8,,,,,,,,6,,,,38,35
100620,note_on,5,0,1,,,,,,,,0,,,,50,35
100620,note_on,5,0,14,,,,,,,,13,,,,26,35
100620,note_on,20,0,5,,,,,,,,3,,,,82,46
100620,note_on,20,0,6,,,,,,,,4,,,,79,46
100620,note_on,5,0,12,,,,,,,,11,,,,50,35
100620,note_on,5,0,15,,,,,,,,14,,,,26,35
100660,note_off,40,0,6,,,,,,,,4,,,,79,64
100660,note_off,40,0,11,,,,,,,,10,,,,79,64
100660,note_off,40,0,5,,,,,,,,3,,,,82,64
100660,note_off,40,0,10,,,,,,,,8,,,,82,64
100680,note_on,20,0,11,,,,,,,,10,,,,62,32
100680,note_on,20,0,10,,,,,,,,8,,,,74,32
100680,note_on,20,0,6,,,,,,,,4,,,,62,47
100680,note_on,20,0,5,,,,,,,,3,,,,74,47
100720,note_off,40,0,11,,,,,,,,10,,,,62,64
100720,note_off,40,0,5,,,,,,,,3,,,,74,64
100720,note_off,40,0,6,,,,,,,,4,,,,62,64
100720,note_off,40,0,10,,,,,,,,8,,,,74,64
100735,note_off,115,0,8,,,,,,,,6,,,,38,64
100735,note_off,115,0,7,,,,,,,,5,,,,50,64
100735,note_off,115,0,15,,,,,,,,14,,,,26,64
100735,note_off,115,0,1,,,,,,,,0,,,,50,64
100735,note_off,115,0,9,,,,,,,,7,,,,26,64
100735,note_off,115,0,13,,,,,,,,12,,,,38,64
100735,note_off,115,0,14,,,,,,,,13,,,,26,64
100735,note_off,115,0,12,,,,,,,,11,,,,50,64
100735,note_off,115,0,2,,,,,,,,0,,,,38,64
100740,note_on,20,0,5,,,,,,,,3,,,,81,48
100740,note_on,5,0,8,,,,,,,,6,,,,50,36
100740,note_on,5,0,7,,,,,,,,5,,,,62,36
100740,note_on,5,0,1,,,,,,,,0,,,,62,36
100740,note_on,20,0,11,,,,,,,,10,,,,77,33
100740,note_on,5,0,9,,,,,,,,7,,,,38,36
100740,note_on,5,0,13,,,,,,,,12,,,,50,36
100740,note_on,20,0,6,,,,,,,,4,,,,77,48
100740,note_on,5,0,12,,,,,,,,11,,,,62,36
100740,note_on,20,0,10,,,,,,,,8,,,,81,33
100740,note_on,5,0,15,,,,,,,,14,,,,38,36
100740,note_on,5,0,2,,,,,,,,0,,,,50,36
100740,note_on,5,0,14,,,,,,,,13,,,,38,36
100780,note_off,40,0,11,,,,,,,,10,,,,77,64
100780,note_off,40,0,5,,,,,,,,3,,,,81,64
100780,note_off,40,0,6,,,,,,,,4,,,,77,64
100780,note_off,40,0,10,,,,,,,,8,,,,81,64
100800,note_on,20,0,11,,,,,,,,10,,,,62,34
100800,note_on,20,0,6,,,,,,,,4,,,,62,49
100800,note_on,20,0,10,,,,,,,,8,,,,74,34
100800,note_on,20,0,5,,,,,,,,3,,,,74,49
100840,note_off,40,0,11,,,,,,,,10,,,,62,64
100840,note_off,40,0,10,,,,,,,,8,,,,74,64
100840,note_off,40,0,6,,,,,,,,4,,,,62,64
100840,note_off,40,0,5,,,,,,,,3,,,,74,64
100855,note_off,115,0,7,,,,,,,,5,,,,62,64
100855,note_off,115,0,12,,,,,,,,11,,,,62,64
100860,note_on,5,0,7,,,,,,,,5,,,,74,37
100860,note_on,20,0,11,,,,,,,,10,,,,77,35
100860,note_on,5,0,12,,,,,,,,11,,,,74,37
100860,note_on,20,0,10,,,,,,,,8,,,,81,35
100860,note_on,20,0,5,,,,,,,,3,,,,81,50
100860,note_on,20,0,6,,,,,,,,4,,,,77,50
100900,note_off,40,0,11,,,,,,,,10,,,,77,64
100900,note_off,40,0,5,,,,,,,,3,,,,81,64
100900,note_off,40,0,10,,,,,,,,8,,,,81,64
100900,note_off,40,0,6,,,,,,,,4,,,,77,64
100920,note_on,20,0,10,,,,,,,,8,,,,74,36
100920,note_on,20,0,5,,,,,,,,3,,,,74,51
100920,note_on,20,0,6,,,,,,,,4,,,,62,51
100920,note_on,20,0,11,,,,,,,,10,,,,62,36
100960,note_off,40,0,11,,,,,,,,10,,,,62,64
100960,note_off,40,0,5,,,,,,,,3,,,,74,64
100960,note_off,40,0,6,,,,,,,,4,,,,62,64
100960,note_off,40,0,10,,,,,,,,8,,,,74,64
100975,note_off,235,0,8,,,,,,,,6,,,,50,64
100975,note_off,235,0,14,,,,,,,,13,,,,38,64
100975,note_off,235,0,1,,,,,,,,0,,,,62,64
100975,note_off,235,0,9,,,,,,,,7,,,,38,64
100975,note_off,115,0,7,,,,,,,,5,,,,74,64
100975,note_off,115,0,12,,,,,,,,11,,,,74,64
100975,note_off,235,0,2,,,,,,,,0,,,,50,64
100975,note_off,235,0,13,,,,,,,,12,,,,50,64
100975,note_off,235,0,15,,,,,,,,14,,,,38,64
100980,note_on,5,0,7,,,,,,,,5,,,,62,38
100980,note_on,5,0,14,,,,,,,,13,,,,38,39
100980,note_on,20,0,6,,,,,,,,4,,,,77,52
100980,note_on,5,0,2,,,,,,,,0,,,,50,39
100980,note_on,5,0,13,,,,,,,,12,,,,50,39
100980,note_on,5,0,8,,,,,,,,6,,,,50,39
100980,note_on,5,0,15,,,,,,,,14,,,,38,39
100980,note_on,5,0,12,,,,,,,,11,,,,62,38
100980,note_on,20,0,5,,,,,,,,3,,,,81,52
100980,note_on,5,0,1,,,,,,,,0,,,,62,39
100980,note_on,20,0,10,,,,,,,,8,,,,81,37
100980,note_on,5,0,9,,,,,,,,7,,,,38,39
100980,note_on,20,0,11,,,,,,,,10,,,,77,37
101020,note_off,40,0,11,,,,,,,,10,,,,77,64
101020,note_off,40,0,5,,,,,,,,3,,,,81,64
101020,note_off,40,0,10,,,,,,,,8,,,,81,64
101020,note_off,40,0,6,,,,,,,,4,,,,77,64
101040,note_on,20,0,5,,,,,,,,3,,,,74,53
101040,note_on,20,0,6,,,,,,,,4,,,,62,53
101040,note_on,20,0,10,,,,,,,,8,,,,74,38
101040,note_on,20,0,11,,,,,,,,10,,,,62,38
101080,note_off,40,0,5,,,,,,,,3,,,,74,64
101080,note_off,40,0,11,,,,,,,,10,,,,62,64
101080,note_off,40,0,10,,,,,,,,8,,,,74,64
101080,note_off,40,0,6,,,,,,,,4,,,,62,64
101095,note_off,115,0,15,,,,,,,,14,,,,38,64
101095,note_off,115,0,8,,,,,,,,6,,,,50,64
101095,note_off,115,0,12,,,,,,,,11,,,,62,64
101095,note_off,115,0,13,,,,,,,,12,,,,50,64
101095,note_off,115,0,2,,,,,,,,0,,,,50,64
101095,note_off,115,0,7,,,,,,,,5,,,,62,64
101095,note_off,115,0,9,,,,,,,,7,,,,38,64
101095,note_off,115,0,14,,,,,,,,13,,,,38,64
101095,note_off,115,0,1,,,,,,,,0,,,,62,64
101100,note_on,20,0,10,,,,,,,,8,,,,81,39
101100,note_on,5,0,7,,,,,,,,5,,,,50,39
101100,note_on,20,0,11,,,,,,,,10,,,,77,39
101100,note_on,20,0,6,,,,,,,,4,,,,77,54
101100,note_on,5,0,13,,,,,,,,12,,,,38,40
101100,note_on,5,0,14,,,,,,,,13,,,,26,40
101100,note_on,5,0,8,,,,,,,,6,,,,38,40
101100,note_on,5,0,15,,,,,,,,14,,,,26,40
101100,note_on,20,0,5,,,,,,,,3,,,,81,54
101100,note_on,5,0,1,,,,,,,,0,,,,50,40
101100,note_on,5,0,9,,,,,,,,7,,,,26,40
101100,note_on,5,0,12,,,,,,,,11,,,,50,39
101100,note_on,5,0,2,,,,,,,,0,,,,38,40
101140,note_off,40,0,10,,,,,,,,8,,,,81,64
101140,note_off,40,0,5,,,,,,,,3,,,,81,64
101140,note_off,40,0,11,,,,,,,,10,,,,77,64
101140,note_off,40,0,6,,,,,,,,4,,,,77,64
101160,note_on,20,0,6,,,,,,,,4,,,,62,55
101160,note_on,20,0,10,,,,,,,,8,,,,74,40
101160,note_on,20,0,5,,,,,,,,3,,,,74,55
101160,note_on,20,0,11,,,,,,,,10,,,,62,40
101200,note_off,40,0,6,,,,,,,,4,,,,62,64
101200,note_off,40,0,5,,,,,,,,3,,,,74,64
101200,note_off,40,0,10,,,,,,,,8,,,,74,64
101200,note_off,40,0,11,,,,,,,,10,,,,62,64
101215,note_off,115,0,7,,,,,,,,5,,,,50,64
101215,note_off,115,0,12,,,,,,,,11,,,,50,64
101215,note_off,115,0,9,,,,,,,,7,,,,26,64
101215,note_off,115,0,1,,,,,,,,0,,,,50,64
101215,note_off,115,0,15,,,,,,,,14,,,,26,64
101215,note_off,115,0,14,,,,,,,,13,,,,26,64
101215,note_off,115,0,2,,,,,,,,0,,,,38,64
101215,note_off,115,0,13,,,,,,,,12,,,,38,64
101215,note_off,115,0,8,,,,,,,,6,,,,38,64
101220,note_on,5,0,12,,,,,,,,11,,,,50,41
101220,note_on,20,0,5,,,,,,,,3,,,,81,56
101220,note_on,5,0,8,,,,,,,,6,,,,38,41
101220,note_on,5,0,9,,,,,,,,7,,,,26,41
101220,note_on,20,0,10,,,,,,,,8,,,,81,41
101220,note_on,5,0,15,,,,,,,,14,,,,26,41
101220,note_on,20,0,6,,,,,,,,4,,,,77,56
101220,note_on,20,0,11,,,,,,,,10,,,,77,41
101220,note_on,5,0,14,,,,,,,,13,,,,26,41
101220,note_on,5,0,2,,,,,,,,0,,,,38,41
101220,note_on,5,0,7,,,,,,,,5,,,,50,41
101220,note_on,5,0,13,,,,,,,,12,,,,38,41
101220,note_on,5,0,1,,,,,,,,0,,,,50,41
101260,note_off,40,0,11,,,,,,,,10,,,,77,64
101260,note_off,40,0,6,,,,,,,,4,,,,77,64
101260,note_off,40,0,5,,,,,,,,3,,,,81,64
101260,note_off,40,0,10,,,,,,,,8,,,,81,64
101280,note_on,20,0,5,,,,,,,,3,,,,74,57
101280,note_on,20,0,11,,,,,,,,10,,,,62,42
101280,note_on,20,0,6,,,,,,,,4,,,,62,57
101280,note_on,20,0,10,,,,,,,,8,,,,74,42
101320,note_off,40,0,6,,,,,,,,4,,,,62,64
101320,note_off,40,0,11,,,,,,,,10,,,,62,64
101320,note_off,40,0,10,,,,,,,,8,,,,74,64
101320,note_off,40,0,5,,,,,,,,3,,,,74,64
101335,note_off,115,0,15,,,,,,,,14,,,,26,64
101335,note_off,115,0,14,,,,,,,,13,,,,26,64
101335,note_off,115,0,13,,,,,,,,12,,,,38,64
101335,note_off,115,0,7,,,,,,,,5,,,,50,64
101335,note_off,115,0,8,,,,,,,,6,,,,38,64
101335,note_off,115,0,12,,,,,,,,11,,,,50,64
101335,note_off,115,0,9,,,,,,,,7,,,,26,64
101335,note_off,115,0,1,,,,,,,,0,,,,50,64
101335,note_off,115,0,2,,,,,,,,0,,,,38,64
101340,note_on,5,0,8,,,,,,,,6,,,,38,43
101340,note_on,20,0,5,,,,,,,,3,,,,81,58
101340,note_on,5,0,15,,,,,,,,14,,,,26,43
101340,note_on,5,0,1,,,,,,,,0,,,,50,43
101340,note_on,5,0,9,,,,,,,,7,,,,26,43
101340,note_on,5,0,14,,,,,,,,13,,,,26,43
101340,note_on,5,0,2,,,,,,,,0,,,,38,43
101340,note_on,20,0,11,,,,,,,,10,,,,77,43
101340,note_on,5,0,7,,,,,,,,5,,,,50,43
101340,note_on,20,0,6,,,,,,,,4,,,,77,58
101340,note_on,20,0,10,,,,,,,,8,,,,81,43
101340,note_on,5,0,13,,,,,,,,12,,,,38,43
101340,note_on,5,0,12,,,,,,,,11,,,,50,43
101380,note_off,40,0,11,,,,,,,,10,,,,77,64
101380,note_off,40,0,6,,,,,,,,4,,,,77,64
101380,note_off,40,0,10,,,,,,,,8,,,,81,64
101380,note_off,40,0,5,,,,,,,,3,,,,81,64
101400,note_on,20,0,11,,,,,,,,10,,,,62,44
101400,note_on,20,0,6,,,,,,,,4,,,,62,59
101400,note_on,20,0,10,,,,,,,,8,,,,74,44
101400,note_on,20,0,5,,,,,,,,3,,,,74,59
101440,note_off,40,0,6,,,,,,,,4,,,,62,64
101440,note_off,40,0,11,,,,,,,,10,,,,62,64
101440,note_off,40,0,10,,,,,,,,8,,,,74,64
101440,note_off,40,0,5,,,,,,,,3,,,,74,64
101455,note_off,115,0,15,,,,,,,,14,,,,26,64
101455,note_off,115,0,8,,,,,,,,6,,,,38,64
101455,note_off,115,0,9,,,,,,,,7,,,,26,64
101455,note_off,115,0,13,,,,,,,,12,,,,38,64
101455,note_off,115,0,12,,,,,,,,11,,,,50,64
101455,note_off,115,0,7,,,,,,,,5,,,,50,64
101455,note_off,115,0,1,,,,,,,,0,,,,50,64
101455,note_off,115,0,14,,,,,,,,13,,,,26,64
101455,note_off,115,0,2,,,,,,,,0,,,,38,64
101460,note_on,5,0,15,,,,,,,,14,,,,33,45
101460,note_on,5,0,1,,,,,,,,0,,,,57,45
101460,note_on,20,0,11,,,,,,,,10,,,,76,45
101460,note_on,5,0,7,,,,,,,,5,,,,57,45
101460,note_on,5,0,13,,,,,,,,12,,,,45,45
101460,note_on,20,0,6,,,,,,,,4,,,,76,60
101460,note_on,5,0,8,,,,,,,,6,,,,45,45
101460,note_on,5,0,2,,,,,,,,0,,,,45,45
101460,note_on,20,0,10,,,,,,,,8,,,,79,45
101460,note_on,5,0,9,,,,,,,,7,,,,33,45
101460,note_on,20,0,5,,,,,,,,3,,,,79,60
101460,note_on,5,0,14,,,,,,,,13,,,,33,45
101460,note_on,5,0,12,,,,,,,,11,,,,57,45
101500,note_off,40,0,10,,,,,,,,8,,,,79,64
101500,note_off,40,0,11,,,,,,,,10,,,,76,64
101500,note_off,40,0,5,,,,,,,,3,,,,79,64
101500,note_off,40,0,6,,,,,,,,4,,,,76,64
101520,note_on,20,0,11,,,,,,,,10,,,,73,45
101520,note_on,20,0,6,,,,,,,,4,,,,73,60
101520,note_on,20,0,5,,,,,,,,3,,,,76,60
101520,note_on,20,0,10,,,,,,,,8,,,,76,45
101560,note_off,40,0,5,,,,,,,,3,,,,76,64
101560,note_off,40,0,11,,,,,,,,10,,,,73,64
101560,note_off,40,0,10,,,,,,,,8,,,,76,64
101560,note_off,40,0,6,,,,,,,,4,,,,73,64
101575,note_off,115,0,7,,,,,,,,5,,,,57,64
101575,note_off,115,0,12,,,,,,,,11,,,,57,64
101580,note_on,5,0,7,,,,,,,,5,,,,69,45
101580,note_on,20,0,10,,,,,,,,8,,,,79,45
101580,note_on,20,0,11,,,,,,,,10,,,,76,45
101580,note_on,20,0,6,,,,,,,,4,,,,76,60
101580,note_on,5,0,12,,,,,,,,11,,,,69,45
101580,note_on,20,0,5,,,,,,,,3,,,,79,60
101620,note_off,40,0,5,,,,,,,,3,,,,79,64
101620,note_off,40,0,6,,,,,,,,4,,,,76,64
101620,note_off,40,0,11,,,,,,,,10,,,,76,64
101620,note_off,40,0,10,,,,,,,,8,,,,79,64
101640,note_on,20,0,11,,,,,,,,10,,,,73,45
101640,note_on,20,0,5,,,,,,,,3,,,,76,60
101640,note_on,20,0,6,,,,,,,,4,,,,73,60
101640,note_on,20,0,10,,,,,,,,8,,,,76,45
101680,note_off,40,0,10,,,,,,,,8,,,,76,64
101680,note_off,40,0,11,,,,,,,,10,,,,73,64
101680,note_off,40,0,5,,,,,,,,3,,,,76,64
101680,note_off,40,0,6,,,,,,,,4,,,,73,64
101695,note_off,235,0,14,,,,,,,,13,,,,33,64
101695,note_off,235,0,9,,,,,,,,7,,,,33,64
101695,note_off,235,0,1,,,,,,,,0,,,,57,64
101695,note_off,115,0,7,,,,,,,,5,,,,69,64
101695,note_off,235,0,8,,,,,,,,6,,,,45,64
101695,note_off,235,0,13,,,,,,,,12,,,,45,64
101695,note_off,235,0,2,,,,,,,,0,,,,45,64
101695,note_off,115,0,12,,,,,,,,11,,,,69,64
101695,note_off,235,0,15,,,,,,,,14,,,,33,64
101700,note_on,20,0,6,,,,,,,,4,,,,76,60
101700,note_on,20,0,11,,,,,,,,10,,,,76,45
101700,note_on,5,0,13,,,,,,,,12,,,,49,45
101700,note_on,5,0,2,,,,,,,,0,,,,49,45
101700,note_on,5,0,12,,,,,,,,11,,,,61,45
101700,note_on,5,0,7,,,,,,,,5,,,,61,45
101700,note_on,20,0,10,,,,,,,,8,,,,79,45
101700,note_on,5,0,15,,,,,,,,14,,,,37,45
101700,note_on,5,0,8,,,,,,,,6,,,,49,45
101700,note_on,5,0,14,,,,,,,,13,,,,37,45
101700,note_on,5,0,1,,,,,,,,0,,,,61,45
101700,note_on,5,0,9,,,,,,,,7,,,,37,45
101700,note_on,20,0,5,,,,,,,,3,,,,79,60
101740,note_off,40,0,10,,,,,,,,8,,,,79,64
101740,note_off,40,0,6,,,,,,,,4,,,,76,64
101740,note_off,40,0,11,,,,,,,,10,,,,76,64
101740,note_off,40,0,5,,,,,,,,3,,,,79,64
101760,note_on,20,0,5,,,,,,,,3,,,,76,60
101760,note_on,20,0,10,,,,,,,,8,,,,76,45
101760,note_on,20,0,11,,,,,,,,10,,,,73,45
101760,note_on,20,0,6,,,,,,,,4,,,,73,60
101800,note_off,40,0,6,,,,,,,,4,,,,73,64
101800,note_off,40,0,10,,,,,,,,8,,,,76,64
101800,note_off,40,0,5,,,,,,,,3,,,,76,64
101800,note_off,40,0,11,,,,,,,,10,,,,73,64
101815,note_off,115,0,13,,,,,,,,12,,,,49,64
101815,note_off,115,0,15,,,,,,,,14,,,,37,64
101815,note_off,115,0,12,,,,,,,,11,,,,61,64
101815,note_off,115,0,9,,,,,,,,7,,,,37,64
101815,note_off,115,0,2,,,,,,,,0,,,,49,64
101815,note_off,115,0,14,,,,,,,,13,,,,37,64
101815,note_off,115,0,7,,,,,,,,5,,,,61,64
101815,note_off,115,0,8,,,,,,,,6,,,,49,64
101815,note_off,115,0,1,,,,,,,,0,,,,61,64
101820,note_on,20,0,5,,,,,,,,3,,,,79,60
101820,note_on,5,0,7,,,,,,,,5,,,,57,45
101820,note_on,5,0,8,,,,,,,,6,,,,45,45
101820,note_on,20,0,11,,,,,,,,10,,,,76,45
101820,note_on,5,0,12,,,,,,,,11,,,,57,45
101820,note_on,20,0,6,,,,,,,,4,,,,76,60
101820,note_on,5,0,1,,,,,,,,0,,,,57,45
101820,note_on,5,0,14,,,,,,,,13,,,,33,45
101820,note_on,5,0,2,,,,,,,,0,,,,45,45
101820,note_on,5,0,15,,,,,,,,14,,,,33,45
101820,note_on,20,0,10,,,,,,,,8,,,,79,45
101820,note_on,5,0,9,,,,,,,,7,,,,33,45
101820,note_on,5,0,13,,,,,,,,12,,,,45,45
101860,note_off,40,0,11,,,,,,,,10,,,,76,64
101860,note_off,40,0,10,,,,,,,,8,,,,79,64
101860,note_off,40,0,5,,,,,,,,3,,,,79,64
101860,note_off,40,0,6,,,,,,,,4,,,,76,64
101880,note_on,20,0,10,,,,,,,,8,,,,76,45
101880,note_on,20,0,5,,,,,,,,3,,,,76,60
101880,note_on,20,0,6,,,,,,,,4,,,,73,60
101880,note_on,20,0,11,,,,,,,,10,,,,73,45
101920,note_off,40,0,6,,,,,,,,4,,,,73,64
101920,note_off,40,0,5,,,,,,,,3,,,,76,64
101920,note_off,40,0,11,,,,,,,,10,,,,73,64
101920,note_off,40,0,10,,,,,,,,8,,,,76,64
101935,note_off,115,0,8,,,,,,,,6,,,,45,64
101935,note_off,115,0,2,,,,,,,,0,,,,45,64
101935,note_off,115,0,9,,,,,,,,7,,,,33,64
101935,note_off,115,0,1,,,,,,,,0,,,,57,64
101935,note_off,115,0,15,,,,,,,,14,,,,33,64
101935,note_off,115,0,14,,,,,,,,13,,,,33,64
101935,note_off,115,0,12,,,,,,,,11,,,,57,64
101935,note_off,115,0,7,,,,,,,,5,,,,57,64
101935,note_off,115,0,13,,,,,,,,12,,,,45,64
101940,note_on,5,0,13,,,,,,,,12,,,,45,45
101940,note_on,5,0,12,,,,,,,,11,,,,57,45
101940,note_on,20,0,5,,,,,,,,3,,,,79,60
101940,note_on,5,0,2,,,,,,,,0,,,,45,45
101940,note_on,20,0,10,,,,,,,,8,,,,79,45
101940,note_on,5,0,14,,,,,,,,13,,,,33,45
101940,note_on,5,0,15,,,,,,,,14,,,,33,45
101940,note_on,20,0,6,,,,,,,,4,,,,76,60
101940,note_on,5,0,9,,,,,,,,7,,,,33,45
101940,note_on,20,0,11,,,,,,,,10,,,,76,45
101940,note_on,5,0,1,,,,,,,,0,,,,57,45
101940,note_on,5,0,8,,,,,,,,6,,,,45,45
101940,note_on,5,0,7,,,,,,,,5,,,,57,45
101980,note_off,40,0,6,,,,,,,,4,,,,76,64
101980,note_off,40,0,11,,,,,,,,10,,,,76,64
101980,note_off,40,0,10,,,,,,,,8,,,,79,64
101980,note_off,40,0,5,,,,,,,,3,,,,79,64
102000,note_on,20,0,10,,,,,,,,8,,,,76,45
102000,note_on,20,0,6,,,,,,,,4,,,,73,60
102000,note_on,20,0,5,,,,,,,,3,,,,76,60
102000,note_on,20,0,11,,,,,,,,10,,,,73,45
102040,note_off,40,0,10,,,,,,,,8,,,,76,64
102040,note_off,40,0,5,,,,,,,,3,,,,76,64
102040,note_off,40,0,6,,,,,,,,4,,,,73,64
102040,note_off,40,0,11,,,,,,,,10,,,,73,64
102055,note_off,115,0,1,,,,,,,,0,,,,57,64
102055,note_off,115,0,12,,,,,,,,11,,,,57,64
102055,note_off,115,0,9,,,,,,,,7,,,,33,64
102055,note_off,115,0,15,,,,,,,,14,,,,33,64
102055,note_off,115,0,8,,,,,,,,6,,,,45,64
102055,note_off,115,0,14,,,,,,,,13,,,,33,64
102055,note_off,115,0,13,,,,,,,,12,,,,45,64
102055,note_off,115,0,7,,,,,,,,5,,,,57,64
102055,note_off,115,0,2,,,,,,,,0,,,,45,64
102060,note_on,5,0,14,,,,,,,,13,,,,33,45
102060,note_on,20,0,6,,,,,,,,4,,,,76,60
102060,note_on,5,0,7,,,,,,,,5,,,,57,45
102060,note_on,5,0,15,,,,,,,,14,,,,33,45
102060,note_on,5,0,2,,,,,,,,0,,,,45,45
102060,note_on,5,0,9,,,,,,,,7,,,,33,45
102060,note_on,20,0,11,,,,,,,,10,,,,76,45
102060,note_on,20,0,5,,,,,,,,3,,,,79,60
102060,note_on,5,0,1,,,,,,,,0,,,,57,45
102060,note_on,5,0,12,,,,,,,,11,,,,57,45
102060,note_on,20,0,10,,,,,,,,8,,,,79,45
102060,note_on,5,0,8,,,,,,,,6,,,,45,45
102060,note_on,5,0,13,,,,,,,,12,,,,45,45
102100,note_off,40,0,6,,,,,,,,4,,,,76,64
102100,note_off,40,0,10,,,,,,,,8,,,,79,64
102100,note_off,40,0,5,,,,,,,,3,,,,79,64
102100,note_off,40,0,11,,,,,,,,10,,,,76,64
102120,note_on,20,0,11,,,,,,,,10,,,,73,45
102120,note_on,20,0,6,,,,,,,,4,,,,73,60
102120,note_on,20,0,10,,,,,,,,8,,,,76,45
102120,note_on,20,0,5,,,,,,,,3,,,,76,60
102160,note_off,40,0,6,,,,,,,,4,,,,73,64
102160,note_off,40,0,10,,,,,,,,8,,,,76,64
102160,note_off,40,0,5,,,,,,,,3,,,,76,64
102160,note_off,40,0,11,,,,,,,,10,,,,73,64
102175,note_off,115,0,2,,,,,,,,0,,,,45,64
102175,note_off,115,0,13,,,,,,,,12,,,,45,64
102175,note_off,115,0,1,,,,,,,,0,,,,57,64
102175,note_off,115,0,12,,,,,,,,11,,,,57,64
102175,note_off,115,0,14,,,,,,,,13,,,,33,64
102175,note_off,115,0,15,,,,,,,,14,,,,33,64
102175,note_off,115,0,7,,,,,,,,5,,,,57,64
102175,note_off,115,0,8,,,,,,,,6,,,,45,64
102175,note_off,115,0,9,,,,,,,,7,,,,33,64
102180,note_on,5,0,13,,,,,,,,12,,,,45,45
102180,note_on,5,0,12,,,,,,,,11,,,,57,45
102180,note_on,5,0,8,,,,,,,,6,,,,45,45
102180,note_on,5,0,15,,,,,,,,14,,,,33,45
102180,note_on,5,0,2,,,,,,,,0,,,,45,45
102180,note_on,20,0,6,,,,,,,,4,,,,77,60
102180,note_on,5,0,9,,,,,,,,7,,,,33,45
102180,note_on,20,0,10,,,,,,,,8,,,,81,45
102180,note_on,5,0,14,,,,,,,,13,,,,33,45
102180,note_on,20,0,5,,,,,,,,3,,,,81,60
102180,note_on,5,0,1,,,,,,,,0,,,,57,45
102180,note_on,5,0,7,,,,,,,,5,,,,57,45
102180,note_on,20,0,11,,,,,,,,10,,,,77,45
102220,note_off,40,0,6,,,,,,,,4,,,,77,64
102220,note_off,40,0,11,,,,,,,,10,,,,77,64
102220,note_off,40,0,10,,,,,,,,8,,,,81,64
102220,note_off,40,0,5,,,,,,,,3,,,,81,64
102240,note_on,20,0,10,,,,,,,,8,,,,77,45
102240,note_on,20,0,5,,,,,,,,3,,,,77,60
102240,note_on,20,0,6,,,,,,,,4,,,,74,60
102240,note_on,20,0,11,,,,,,,,10,,,,74,45
102280,note_off,40,0,5,,,,,,,,3,,,,77,64
102280,note_off,40,0,6,,,,,,,,4,,,,74,64
102280,note_off,40,0,11,,,,,,,,10,,,,74,64
102280,note_off,40,0,10,,,,,,,,8,,,,77,64
102295,note_off,115,0,7,,,,,,,,5,,,,57,64
102295,note_off,115,0,12,,,,,,,,11,,,,57,64
102300,note_on,5,0,12,,,,,,,,11,,,,69,45
102300,note_on,20,0,5,,,,,,,,3,,,,81,60
102300,note_on,20,0,10,,,,,,,,8,,,,81,45
102300,note_on,20,0,6,,,,,,,,4,,,,77,60
102300,note_on,5,0,7,,,,,,,,5,,,,69,45
102300,note_on,20,0,11,,,,,,,,10,,,,77,45
102340,note_off,40,0,6,,,,,,,,4,,,,77,64
102340,note_off,40,0,5,,,,,,,,3,,,,81,64
102340,note_off,40,0,10,,,,,,,,8,,,,81,64
102340,note_off,40,0,11,,,,,,,,10,,,,77,64
102360,note_on,20,0,5,,,,,,,,3,,,,77,60
102360,note_on,20,0,6,,,,,,,,4,,,,74,60
102360,note_on,20,0,11,,,,,,,,10,,,,74,45
102360,note_on,20,0,10,,,,,,,,8,,,,77,45
102400,note_off,40,0,11,,,,,,,,10,,,,74,64
102400,note_off,40,0,6,,,,,,,,4,,,,74,64
102400,note_off,40,0,5,,,,,,,,3,,,,77,64
102400,note_off,40,0,10,,,,,,,,8,,,,77,64
102415,note_off,115,0,7,,,,,,,,5,,,,69,64
102415,note_off,235,0,1,,,,,,,,0,,,,57,64
102415,note_off,115,0,12,,,,,,,,11,,,,69,64
102415,note_off,235,0,15,,,,,,,,14,,,,33,64
102415,note_off,235,0,2,,,,,,,,0,,,,45,64
102415,note_off,235,0,13,,,,,,,,12,,,,45,64
102415,note_off,235,0,14,,,,,,,,13,,,,33,64
102415,note_off,235,0,9,,,,,,,,7,,,,33,64
102415,note_off,235,0,8,,,,,,,,6,,,,45,64
102420,note_on,5,0,13,,,,,,,,12,,,,50,44
102420,note_on,5,0,1,,,,,,,,0,,,,62,44
102420,note_on,20,0,11,,,,,,,,10,,,,77,45
102420,note_on,5,0,12,,,,,,,,11,,,,62,45
102420,note_on,5,0,8,,,,,,,,6,,,,50,44
102420,note_on,20,0,5,,,,,,,,3,,,,81,60
102420,note_on,5,0,9,,,,,,,,7,,,,38,44
102420,note_on,5,0,2,,,,,,,,0,,,,50,44
102420,note_on,20,0,10,,,,,,,,8,,,,81,45
102420,note_on,5,0,15,,,,,,,,14,,,,38,44
102420,note_on,5,0,7,,,,,,,,5,,,,62,45
102420,note_on,5,0,14,,,,,,,,13,,,,38,44
102420,note_on,20,0,6,,,,,,,,4,,,,77,60
102460,note_off,40,0,6,,,,,,,,4,,,,77,64
102460,note_off,40,0,11,,,,,,,,10,,,,77,64
102460,note_off,40,0,5,,,,,,,,3,,,,81,64
102460,note_off,40,0,10,,,,,,,,8,,,,81,64
102480,note_on,20,0,6,,,,,,,,4,,,,74,60
102480,note_on,20,0,5,,,,,,,,3,,,,77,60
102480,note_on,20,0,10,,,,,,,,8,,,,77,45
102480,note_on,20,0,11,,,,,,,,10,,,,74,45
102520,note_off,40,0,10,,,,,,,,8,,,,77,64
102520,note_off,40,0,6,,,,,,,,4,,,,74,64
102520,note_off,40,0,11,,,,,,,,10,,,,74,64
102520,note_off,40,0,5,,,,,,,,3,,,,77,64
102535,note_off,115,0,15,,,,,,,,14,,,,38,64
102535,note_off,115,0,7,,,,,,,,5,,,,62,64
102535,note_off,115,0,12,,,,,,,,11,,,,62,64
102535,note_off,115,0,1,,,,,,,,0,,,,62,64
102535,note_off,115,0,13,,,,,,,,12,,,,50,64
102535,note_off,115,0,14,,,,,,,,13,,,,38,64
102535,note_off,115,0,9,,,,,,,,7,,,,38,64
102535,note_off,115,0,8,,,,,,,,6,,,,50,64
102535,note_off,115,0,2,,,,,,,,0,,,,50,64
102540,note_on,5,0,13,,,,,,,,12,,,,45,44
102540,note_on,5,0,15,,,,,,,,14,,,,33,44
102540,note_on,5,0,9,,,,,,,,7,,,,33,44
102540,note_on,5,0,7,,,,,,,,5,,,,57,45
102540,note_on,20,0,11,,,,,,,,10,,,,77,45
102540,note_on,20,0,6,,,,,,,,4,,,,77,60
102540,note_on,5,0,2,,,,,,,,0,,,,45,44
102540,note_on,5,0,8,,,,,,,,6,,,,45,44
102540,note_on,20,0,5,,,,,,,,3,,,,81,60
102540,note_on,5,0,1,,,,,,,,0,,,,57,44
102540,note_on,5,0,14,,,,,,,,13,,,,33,44
102540,note_on,20,0,10,,,,,,,,8,,,,81,45
102540,note_on,5,0,12,,,,,,,,11,,,,57,45
102580,note_off,40,0,10,,,,,,,,8,,,,81,64
102580,note_off,40,0,6,,,,,,,,4,,,,77,64
102580,note_off,40,0,11,,,,,,,,10,,,,77,64
102580,note_off,40,0,5,,,,,,,,3,,,,81,64
102600,note_on,20,0,5,,,,,,,,3,,,,77,60
102600,note_on,20,0,6,,,,,,,,4,,,,74,60
102600,note_on,20,0,11,,,,,,,,10,,,,74,45
102600,note_on,20,0,10,,,,,,,,8,,,,77,45
102640,note_off,40,0,6,,,,,,,,4,,,,74,64
102640,note_off,40,0,11,,,,,,,,10,,,,74,64
102640,note_off,40,0,5,,,,,,,,3,,,,77,64
102640,note_off,40,0,10,,,,,,,,8,,,,77,64
102655,note_off,115,0,9,,,,,,,,7,,,,33,64
102655,note_off,115,0,12,,,,,,,,11,,,,57,64
102655,note_off,115,0,2,,,,,,,,0,,,,45,64
102655,note_off,115,0,1,,,,,,,,0,,,,57,64
102655,note_off,115,0,8,,,,,,,,6,,,,45,64
102655,note_off,115,0,15,,,,,,,,14,,,,33,64
102655,note_off,115,0,13,,,,,,,,12,,,,45,64
102655,note_off,115,0,14,,,,,,,,13,,,,33,64
102655,note_off,115,0,7,,,,,,,,5,,,,57,64
102660,note_on,20,0,10,,,,,,,,8,,,,81,45
102660,note_on,5,0,9,,,,,,,,7,,,,33,44
102660,note_on,5,0,14,,,,,,,,13,,,,33,44
102660,note_on,5,0,12,,,,,,,,11,,,,57,44
102660,note_on,5,0,2,,,,,,,,0,,,,45,44
102660,note_on,20,0,6,,,,,,,,4,,,,77,60
102660,note_on,5,0,15,,,,,,,,14,,,,33,44
102660,note_on,20,0,11,,,,,,,,10,,,,77,45
102660,note_on,5,0,1,,,,,,,,0,,,,57,44
102660,note_on,5,0,13,,,,,,,,12,,,,45,44
102660,note_on,5,0,7,,,,,,,,5,,,,57,44
102660,note_on,20,0,5,,,,,,,,3,,,,81,60
102660,note_on,5,0,8,,,,,,,,6,,,,45,44
102700,note_off,40,0,11,,,,,,,,10,,,,77,64
102700,note_off,40,0,10,,,,,,,,8,,,,81,64
102700,note_off,40,0,5,,,,,,,,3,,,,81,64
102700,note_off,40,0,6,,,,,,,,4,,,,77,64
102720,note_on,20,0,10,,,,,,,,8,,,,77,45
102720,note_on,20,0,6,,,,,,,,4,,,,74,60
102720,note_on,20,0,11,,,,,,,,10,,,,74,45
102720,note_on,20,0,5,,,,,,,,3,,,,77,60
102760,note_off,40,0,11,,,,,,,,10,,,,74,64
102760,note_off,40,0,10,,,,,,,,8,,,,77,64
102760,note_off,40,0,5,,,,,,,,3,,,,77,64
102760,note_off,40,0,6,,,,,,,,4,,,,74,64
102775,note_off,115,0,2,,,,,,,,0,,,,45,64
102775,note_off,115,0,13,,,,,,,,12,,,,45,64
102775,note_off,115,0,8,,,,,,,,6,,,,45,64
102775,note_off,115,0,12,,,,,,,,11,,,,57,64
102775,note_off,115,0,15,,,,,,,,14,,,,33,64
102775,note_off,115,0,9,,,,,,,,7,,,,33,64
102775,note_off,115,0,14,,,,,,,,13,,,,33,64
102775,note_off,115,0,7,,,,,,,,5,,,,57,64
102775,note_off,115,0,1,,,,,,,,0,,,,57,64
102780,note_on,5,0,14,,,,,,,,13,,,,33,43
102780,note_on,20,0,5,,,,,,,,3,,,,81,60
102780,note_on,5,0,13,,,,,,,,12,,,,45,43
102780,note_on,20,0,6,,,,,,,,4,,,,77,60
102780,note_on,20,0,11,,,,,,,,10,,,,77,45
102780,note_on,5,0,2,,,,,,,,0,,,,45,43
102780,note_on,5,0,12,,,,,,,,11,,,,57,43
102780,note_on,5,0,9,,,,,,,,7,,,,33,43
102780,note_on,5,0,15,,,,,,,,14,,,,33,43
102780,note_on,5,0,7,,,,,,,,5,,,,57,43
102780,note_on,5,0,1,,,,,,,,0,,,,57,43
102780,note_on,5,0,8,,,,,,,,6,,,,45,43
102780,note_on,20,0,10,,,,,,,,8,,,,81,45
102820,note_off,40,0,5,,,,,,,,3,,,,81,64
102820,note_off,40,0,6,,,,,,,,4,,,,77,64
102820,note_off,40,0,10,,,,,,,,8,,,,81,64
102820,note_off,40,0,11,,,,,,,,10,,,,77,64
102840,note_on,20,0,10,,,,,,,,8,,,,77,45
102840,note_on,20,0,6,,,,,,,,4,,,,74,60
102840,note_on,20,0,5,,,,,,,,3,,,,77,60
102840,note_on,20,0,11,,,,,,,,10,,,,74,45
102880,note_off,40,0,10,,,,,,,,8,,,,77,64
102880,note_off,40,0,5,,,,,,,,3,,,,77,64
102880,note_off,40,0,6,,,,,,,,4,,,,74,64
102880,note_off,40,0,11,,,,,,,,10,,,,74,64
102895,note_off,115,0,14,,,,,,,,13,,,,33,64
102895,note_off,115,0,1,,,,,,,,0,,,,57,64
102895,note_off,115,0,9,,,,,,,,7,,,,33,64
102895,note_off,115,0,12,,,,,,,,11,,,,57,64
102895,note_off,115,0,2,,,,,,,,0,,,,45,64
102895,note_off,115,0,15,,,,,,,,14,,,,33,64
102895,note_off,115,0,8,,,,,,,,6,,,,45,64
102895,note_off,115,0,13,,,,,,,,12,,,,45,64
102895,note_off,115,0,7,,,,,,,,5,,,,57,64
102900,note_on,20,0,11,,,,,,,,10,,,,79,45
102900,note_on,5,0,9,,,,,,,,7,,,,33,42
102900,note_on,20,0,5,,,,,,,,3,,,,82,60
102900,note_on,5,0,1,,,,,,,,0,,,,57,42
102900,note_on,5,0,12,,,,,,,,11,,,,57,42
102900,note_on,5,0,14,,,,,,,,13,,,,33,42
102900,note_on,5,0,2,,,,,,,,0,,,,45,42
102900,note_on,5,0,13,,,,,,,,12,,,,45,42
102900,note_on,5,0,8,,,,,,,,6,,,,45,42
102900,note_on,20,0,10,,,,,,,,8,,,,82,45
102900,note_on,20,0,6,,,,,,,,4,,,,79,60
102900,note_on,5,0,7,,,,,,,,5,,,,57,42
102900,note_on,5,0,15,,,,,,,,14,,,,33,42
102940,note_off,40,0,5,,,,,,,,3,,,,82,64
102940,note_off,40,0,10,,,,,,,,8,,,,82,64
102940,note_off,40,0,6,,,,,,,,4,,,,79,64
102940,note_off,40,0,11,,,,,,,,10,,,,79,64
102960,note_on,20,0,10,,,,,,,,8,,,,79,45
102960,note_on,20,0,5,,,,,,,,3,,,,79,60
102960,note_on,20,0,11,,,,,,,,10,,,,76,45
102960,note_on,20,0,6,,,,,,,,4,,,,76,60
103000,note_off,40,0,11,,,,,,,,10,,,,76,64
103000,note_off,40,0,6,,,,,,,,4,,,,76,64
103000,note_off,40,0,10,,,,,,,,8,,,,79,64
103000,note_off,40,0,5,,,,,,,,3,,,,79,64
103015,note_off,115,0,7,,,,,,,,5,,,,57,64
103015,note_off,115,0,12,,,,,,,,11,,,,57,64
103020,note_on,20,0,11,,,,,,,,10,,,,79,45
103020,note_on,20,0,10,,,,,,,,8,,,,82,45
103020,note_on,20,0,5,,,,,,,,3,,,,82,60
103020,note_on,20,0,6,,,,,,,,4,,,,79,60
103020,note_on,5,0,12,,,,,,,,11,,,,69,41
103020,note_on,5,0,7,,,,,,,,5,,,,69,41
103060,note_off,40,0,11,,,,,,,,10,,,,79,64
103060,note_off,40,0,5,,,,,,,,3,,,,82,64
103060,note_off,40,0,6,,,,,,,,4,,,,79,64
103060,note_off,40,0,10,,,,,,,,8,,,,82,64
103080,note_on,20,0,5,,,,,,,,3,,,,79,60
103080,note_on,20,0,6,,,,,,,,4,,,,76,60
103080,note_on,20,0,11,,,,,,,,10,,,,76,45
103080,note_on,20,0,10,,,,,,,,8,,,,79,45
103120,note_off,40,0,10,,,,,,,,8,,,,79,64
103120,note_off,40,0,6,,,,,,,,4,,,,76,64
103120,note_off,40,0,11,,,,,,,,10,,,,76,64
103120,note_off,40,0,5,,,,,,,,3,,,,79,64
103135,note_off,235,0,8,,,,,,,,6,,,,45,64
103135,note_off,235,0,13,,,,,,,,12,,,,45,64
103135,note_off,235,0,2,,,,,,,,0,,,,45,64
103135,note_off,235,0,14,,,,,,,,13,,,,33,64
103135,note_off,235,0,15,,,,,,,,14,,,,33,64
103135,note_off,235,0,1,,,,,,,,0,,,,57,64
103135,note_off,115,0,12,,,,,,,,11,,,,69,64
103135,note_off,115,0,7,,,,,,,,5,,,,69,64
103135,note_off,235,0,9,,,,,,,,7,,,,33,64
103140,note_on,5,0,1,,,,,,,,0,,,,64,40
103140,note_on,5,0,15,,,,,,,,14,,,,40,40
103140,note_on,5,0,13,,,,,,,,12,,,,52,40
103140,note_on,20,0,5,,,,,,,,3,,,,82,60
103140,note_on,5,0,8,,,,,,,,6,,,,52,40
103140,note_on,20,0,11,,,,,,,,10,,,,79,45
103140,note_on,5,0,9,,,,,,,,7,,,,40,40
103140,note_on,5,0,7,,,,,,,,5,,,,64,40
103140,note_on,5,0,12,,,,,,,,11,,,,64,40
103140,note_on,5,0,14,,,,,,,,13,,,,40,40
103140,note_on,5,0,2,,,,,,,,0,,,,52,40
103140,note_on,20,0,6,,,,,,,,4,,,,79,60
103140,note_on,20,0,10,,,,,,,,8,,,,82,45
103180,note_off,40,0,10,,,,,,,,8,,,,82,64
103180,note_off,40,0,6,,,,,,,,4,,,,79,64
103180,note_off,40,0,5,,,,,,,,3,,,,82,64
103180,note_off,40,0,11,,,,,,,,10,,,,79,64
103200,note_on,20,0,11,,,,,,,,10,,,,76,45
103200,note_on,20,0,6,,,,,,,,4,,,,76,60
103200,note_on,20,0,10,,,,,,,,8,,,,79,45
103200,note_on,20,0,5,,,,,,,,3,,,,79,60
103240,note_off,40,0,11,,,,,,,,10,,,,76,64
103240,note_off,40,0,10,,,,,,,,8,,,,79,64
103240,note_off,40,0,5,,,,,,,,3,,,,79,64
103240,note_off,40,0,6,,,,,,,,4,,,,76,64
103255,note_off,115,0,9,,,,,,,,7,,,,40,64
103255,note_off,115,0,7,,,,,,,,5,,,,64,64
103255,note_off,115,0,1,,,,,,,,0,,,,64,64
103255,note_off,115,0,12,,,,,,,,11,,,,64,64
103255,note_off,115,0,2,,,,,,,,0,,,,52,64
103255,note_off,115,0,14,,,,,,,,13,,,,40,64
103255,note_off,115,0,15,,,,,,,,14,,,,40,64
103255,note_off,115,0,13,,,,,,,,12,,,,52,64
103255,note_off,115,0,8,,,,,,,,6,,,,52,64
103260,note_on,5,0,15,,,,,,,,14,,,,33,39
103260,note_on,5,0,13,,,,,,,,12,,,,45,39
103260,note_on,5,0,2,,,,,,,,0,,,,45,39
103260,note_on,5,0,14,,,,,,,,13,,,,33,39
103260,note_on,5,0,9,,,,,,,,7,,,,33,39
103260,note_on,20,0,6,,,,,,,,4,,,,79,60
103260,note_on,20,0,10,,,,,,,,8,,,,82,45
103260,note_on,5,0,7,,,,,,,,5,,,,57,39
103260,note_on,20,0,11,,,,,,,,10,,,,79,45
103260,note_on,5,0,12,,,,,,,,11,,,,57,39
103260,note_on,20,0,5,,,,,,,,3,,,,82,60
103260,note_on,5,0,1,,,,,,,,0,,,,57,39
103260,note_on,5,0,8,,,,,,,,6,,,,45,39
103300,note_off,40,0,11,,,,,,,,10,,,,79,64
103300,note_off,40,0,5,,,,,,,,3,,,,82,64
103300,note_off,40,0,6,,,,,,,,4,,,,79,64
103300,note_off,40,0,10,,,,,,,,8,,,,82,64
103320,note_on,20,0,5,,,,,,,,3,,,,79,60
103320,note_on,20,0,10,,,,,,,,8,,,,79,45
103320,note_on,20,0,6,,,,,,,,4,,,,76,60
103320,note_on,20,0,11,,,,,,,,10,,,,76,45
103360,note_off,40,0,6,,,,,,,,4,,,,76,64
103360,note_off,40,0,5,,,,,,,,3,,,,79,64
103360,note_off,40,0,10,,,,,,,,8,,,,79,64
103360,note_off,40,0,11,,,,,,,,10,,,,76,64
103375,note_off,115,0,13,,,,,,,,12,,,,45,64
103375,note_off,115,0,7,,,,,,,,5,,,,57,64
103375,note_off,115,0,9,,,,,,,,7,,,,33,64
103375,note_off,115,0,2,,,,,,,,0,,,,45,64
103375,note_off,115,0,15,,,,,,,,14,,,,33,64
103375,note_off,115,0,14,,,,,,,,13,,,,33,64
103375,note_off,115,0,8,,,,,,,,6,,,,45,64
103375,note_off,115,0,1,,,,,,,,0,,,,57,64
103375,note_off,115,0,12,,,,,,,,11,,,,57,64
103380,note_on,20,0,11,,,,,,,,10,,,,79,45
103380,note_on,5,0,1,,,,,,,,0,,,,57,38
103380,note_on,5,0,7,,,,,,,,5,,,,57,38
103380,note_on,5,0,12,,,,,,,,11,,,,57,38
103380,note_on,20,0,6,,,,,,,,4,,,,79,60
103380,note_on,20,0,5,,,,,,,,3,,,,82,60
103380,note_on,5,0,14,,,,,,,,13,,,,33,38
103380,note_on,5,0,9,,,,,,,,7,,,,33,38
103380,note_on,5,0,2,,,,,,,,0,,,,45,38
103380,note_on,20,0,10,,,,,,,,8,,,,82,45
103380,note_on,5,0,15,,,,,,,,14,,,,33,38
103380,note_on,5,0,8,,,,,,,,6,,,,45,38
103380,note_on,5,0,13,,,,,,,,12,,,,45,38
103420,note_off,40,0,11,,,,,,,,10,,,,79,64
103420,note_off,40,0,5,,,,,,,,3,,,,82,64
103420,note_off,40,0,6,,,,,,,,4,,,,79,64
103420,note_off,40,0,10,,,,,,,,8,,,,82,64
103440,note_on,20,0,5,,,,,,,,3,,,,79,60
103440,note_on,20,0,10,,,,,,,,8,,,,79,45
103440,note_on,20,0,6,,,,,,,,4,,,,76,60
103440,note_on,20,0,11,,,,,,,,10,,,,76,45
103480,note_off,40,0,5,,,,,,,,3,,,,79,64
103480,note_off,40,0,11,,,,,,,,10,,,,76,64
103480,note_off,40,0,6,,,,,,,,4,,,,76,64
103480,note_off,40,0,10,,,,,,,,8,,,,79,64
103495,note_off,115,0,8,,,,,,,,6,,,,45,64
103495,note_off,115,0,13,,,,,,,,12,,,,45,64
103495,note_off,115,0,15,,,,,,,,14,,,,33,64
103495,note_off,115,0,12,,,,,,,,11,,,,57,64
103495,note_off,115,0,1,,,,,,,,0,,,,57,64
103495,note_off,115,0,7,,,,,,,,5,,,,57,64
103495,note_off,115,0,14,,,,,,,,13,,,,33,64
103495,note_off,115,0,2,,,,,,,,0,,,,45,64
103495,note_off,115,0,9,,,,,,,,7,,,,33,64
103500,note_on,20,0,10,,,,,,,,8,,,,82,44
103500,note_on,5,0,13,,,,,,,,12,,,,45,37
103500,note_on,20,0,5,,,,,,,,3,,,,82,59
103500,note_on,5,0,12,,,,,,,,11,,,,57,37
103500,note_on,5,0,9,,,,,,,,7,,,,33,37
103500,note_on,5,0,2,,,,,,,,0,,,,45,37
103500,note_on,20,0,6,,,,,,,,4,,,,79,59
103500,note_on,5,0,1,,,,,,,,0,,,,57,37
103500,note_on,5,0,7,,,,,,,,5,,,,57,37
103500,note_on,20,0,11,,,,,,,,10,,,,79,44
103500,note_on,5,0,14,,,,,,,,13,,,,33,37
103500,note_on,5,0,8,,,,,,,,6,,,,45,37
103500,note_on,5,0,15,,,,,,,,14,,,,33,37
103540,note_off,40,0,5,,,,,,,,3,,,,82,64
103540,note_off,40,0,10,,,,,,,,8,,,,82,64
103540,note_off,40,0,11,,,,,,,,10,,,,79,64
103540,note_off,40,0,6,,,,,,,,4,,,,79,64
103560,note_on,20,0,5,,,,,,,,3,,,,79,58
103560,note_on,20,0,11,,,,,,,,10,,,,76,43
103560,note_on,20,0,10,,,,,,,,8,,,,79,43
103560,note_on,20,0,6,,,,,,,,4,,,,76,58
103600,note_off,40,0,10,,,,,,,,8,,,,79,64
103600,note_off,40,0,5,,,,,,,,3,,,,79,64
103600,note_off,40,0,6,,,,,,,,4,,,,76,64
103600,note_off,40,0,11,,,,,,,,10,,,,76,64
103615,note_off,115,0,9,,,,,,,,7,,,,33,64
103615,note_off,115,0,7,,,,,,,,5,,,,57,64
103615,note_off,115,0,13,,,,,,,,12,,,,45,64
103615,note_off,115,0,8,,,,,,,,6,,,,45,64
103615,note_off,115,0,15,,,,,,,,14,,,,33,64
103615,note_off,115,0,2,,,,,,,,0,,,,45,64
103615,note_off,115,0,14,,,,,,,,13,,,,33,64
103615,note_off,115,0,12,,,,,,,,11,,,,57,64
103615,note_off,115,0,1,,,,,,,,0,,,,57,64
103620,note_on,5,0,8,,,,,,,,6,,,,45,36
103620,note_on,20,0,10,,,,,,,,8,,,,81,42
103620,note_on,5,0,13,,,,,,,,12,,,,45,36
103620,note_on,20,0,5,,,,,,,,3,,,,81,57
103620,note_on,5,0,12,,,,,,,,11,,,,57,36
103620,note_on,20,0,11,,,,,,,,10,,,,77,42
103620,note_on,20,0,6,,,,,,,,4,,,,77,57
103620,note_on,5,0,15,,,,,,,,14,,,,33,36
103620,note_on,5,0,9,,,,,,,,7,,,,33,36
103620,note_on,5,0,2,,,,,,,,0,,,,45,36
103620,note_on,5,0,14,,,,,,,,13,,,,33,36
103620,note_on,5,0,7,,,,,,,,5,,,,57,36
103620,note_on,5,0,1,,,,,,,,0,,,,57,36
103660,note_off,40,0,10,,,,,,,,8,,,,81,64
103660,note_off,40,0,11,,,,,,,,10,,,,77,64
103660,note_off,40,0,5,,,,,,,,3,,,,81,64
103660,note_off,40,0,6,,,,,,,,4,,,,77,64
103680,note_on,20,0,10,,,,,,,,8,,,,77,41
103680,note_on,20,0,11,,,,,,,,10,,,,74,41
103680,note_on,20,0,5,,,,,,,,3,,,,77,56
103680,note_on,20,0,6,,,,,,,,4,,,,74,56
103720,note_off,40,0,5,,,,,,,,3,,,,77,64
103720,note_off,40,0,11,,,,,,,,10,,,,74,64
103720,note_off,40,0,6,,,,,,,,4,,,,74,64
103720,note_off,40,0,10,,,,,,,,8,,,,77,64
103735,note_off,115,0,7,,,,,,,,5,,,,57,64
103735,note_off,115,0,12,,,,,,,,11,,,,57,64
103740,note_on,20,0,6,,,,,,,,4,,,,77,55
103740,note_on,20,0,11,,,,,,,,10,,,,77,40
103740,note_on,20,0,10,,,,,,,,8,,,,81,40
103740,note_on,5,0,7,,,,,,,,5,,,,69,35
103740,note_on,5,0,12,,,,,,,,11,,,,69,35
103740,note_on,20,0,5,,,,,,,,3,,,,81,55
103780,note_off,40,0,5,,,,,,,,3,,,,81,64
103780,note_off,40,0,11,,,,,,,,10,,,,77,64
103780,note_off,40,0,6,,,,,,,,4,,,,77,64
103780,note_off,40,0,10,,,,,,,,8,,,,81,64
103800,note_on,20,0,5,,,,,,,,3,,,,77,54
103800,note_on,20,0,11,,,,,,,,10,,,,74,39
103800,note_on,20,0,6,,,,,,,,4,,,,74,54
103800,note_on,20,0,10,,,,,,,,8,,,,77,39
103840,note_off,40,0,11,,,,,,,,10,,,,74,64
103840,note_off,40,0,6,,,,,,,,4,,,,74,64
103840,note_off,40,0,5,,,,,,,,3,,,,77,64
103840,note_off,40,0,10,,,,,,,,8,,,,77,64
103855,note_off,235,0,2,,,,,,,,0,,,,45,64
103855,note_off,235,0,15,,,,,,,,14,,,,33,64
103855,note_off,235,0,13,,,,,,,,12,,,,45,64
103855,note_off,235,0,14,,,,,,,,13,,,,33,64
103855,note_off,115,0,12,,,,,,,,11,,,,69,64
103855,note_off,115,0,7,,,,,,,,5,,,,69,64
103855,note_off,235,0,8,,,,,,,,6,,,,45,64
103855,note_off,235,0,1,,,,,,,,0,,,,57,64
103855,note_off,235,0,9,,,,,,,,7,,,,33,64
103860,note_on,20,0,5,,,,,,,,3,,,,81,53
103860,note_on,5,0,8,,,,,,,,6,,,,50,34
103860,note_on,5,0,14,,,,,,,,13,,,,38,34
103860,note_on,5,0,15,,,,,,,,14,,,,38,34
103860,note_on,5,0,13,,,,,,,,12,,,,50,34
103860,note_on,5,0,7,,,,,,,,5,,,,62,34
103860,note_on,5,0,2,,,,,,,,0,,,,50,34
103860,note_on,20,0,11,,,,,,,,10,,,,77,38
103860,note_on,5,0,9,,,,,,,,7,,,,38,34
103860,note_on,20,0,10,,,,,,,,8,,,,81,38
103860,note_on,5,0,1,,,,,,,,0,,,,62,34
103860,note_on,5,0,12,,,,,,,,11,,,,62,34
103860,note_on,20,0,6,,,,,,,,4,,,,77,53
103900,note_off,40,0,11,,,,,,,,10,,,,77,64
103900,note_off,40,0,6,,,,,,,,4,,,,77,64
103900,note_off,40,0,5,,,,,,,,3,,,,81,64
103900,note_off,40,0,10,,,,,,,,8,,,,81,64
103920,note_on,20,0,5,,,,,,,,3,,,,77,52
103920,note_on,20,0,10,,,,,,,,8,,,,77,37
103920,note_on,20,0,11,,,,,,,,10,,,,74,37
103920,note_on,20,0,6,,,,,,,,4,,,,74,52
103960,note_off,40,0,6,,,,,,,,4,,,,74,64
103960,note_off,40,0,10,,,,,,,,8,,,,77,64
103960,note_off,40,0,11,,,,,,,,10,,,,74,64
103960,note_off,40,0,5,,,,,,,,3,,,,77,64
103975,note_off,115,0,8,,,,,,,,6,,,,50,64
103975,note_off,115,0,12,,,,,,,,11,,,,62,64
103975,note_off,115,0,9,,,,,,,,7,,,,38,64
103975,note_off,115,0,2,,,,,,,,0,,,,50,64
103975,note_off,115,0,1,,,,,,,,0,,,,62,64
103975,note_off,115,0,14,,,,,,,,13,,,,38,64
103975,note_off,115,0,15,,,,,,,,14,,,,38,64
103975,note_off,115,0,13,,,,,,,,12,,,,50,64
103975,note_off,115,0,7,,,,,,,,5,,,,62,64
103980,note_on,20,0,5,,,,,,,,3,,,,81,51
103980,note_on,5,0,8,,,,,,,,6,,,,45,33
103980,note_on,5,0,15,,,,,,,,14,,,,33,33
103980,note_on,20,0,6,,,,,,,,4,,,,77,51
103980,note_on,20,0,11,,,,,,,,10,,,,77,36
103980,note_on,20,0,10,,,,,,,,8,,,,81,36
103980,note_on,5,0,14,,,,,,,,13,,,,33,33
103980,note_on,5,0,1,,,,,,,,0,,,,57,33
103980,note_on,5,0,9,,,,,,,,7,,,,33,33
103980,note_on,5,0,13,,,,,,,,12,,,,45,33
103980,note_on,5,0,7,,,,,,,,5,,,,57,33
103980,note_on,5,0,2,,,,,,,,0,,,,45,33
103980,note_on,5,0,12,,,,,,,,11,,,,57,33
104020,note_off,40,0,11,,,,,,,,10,,,,77,64
104020,note_off,40,0,5,,,,,,,,3,,,,81,64
104020,note_off,40,0,6,,,,,,,,4,,,,77,64
104020,note_off,40,0,10,,,,,,,,8,,,,81,64
104040,note_on,20,0,6,,,,,,,,4,,,,74,50
104040,note_on,20,0,11,,,,,,,,10,,,,74,35
104040,note_on,20,0,10,,,,,,,,8,,,,77,35
104040,note_on,20,0,5,,,,,,,,3,,,,77,50
104080,note_off,40,0,11,,,,,,,,10,,,,74,64
104080,note_off,40,0,6,,,,,,,,4,,,,74,64
104080,note_off,40,0,10,,,,,,,,8,,,,77,64
104080,note_off,40,0,5,,,,,,,,3,,,,77,64
104095,note_off,115,0,2,,,,,,,,0,,,,45,64
104095,note_off,115,0,7,,,,,,,,5,,,,57,64
104095,note_off,115,0,13,,,,,,,,12,,,,45,64
104095,note_off,115,0,9,,,,,,,,7,,,,33,64
104095,note_off,115,0,14,,,,,,,,13,,,,33,64
104095,note_off,115,0,15,,,,,,,,14,,,,33,64
104095,note_off,115,0,12,,,,,,,,11,,,,57,64
104095,note_off,115,0,1,,,,,,,,0,,,,57,64
104095,note_off,115,0,8,,,,,,,,6,,,,45,64
104100,note_on,20,0,5,,,,,,,,3,,,,81,49
104100,note_on,20,0,6,,,,,,,,4,,,,77,49
104100,note_on,5,0,13,,,,,,,,12,,,,45,32
104100,note_on,5,0,7,,,,,,,,5,,,,57,32
104100,note_on,5,0,2,,,,,,,,0,,,,45,32
104100,note_on,20,0,11,,,,,,,,10,,,,77,34
104100,note_on,20,0,10,,,,,,,,8,,,,81,34
104100,note_on,5,0,12,,,,,,,,11,,,,57,32
104100,note_on,5,0,1,,,,,,,,0,,,,57,32
104100,note_on,5,0,9,,,,,,,,7,,,,33,32
104100,note_on,5,0,15,,,,,,,,14,,,,33,32
104100,note_on,5,0,14,,,,,,,,13,,,,33,32
104100,note_on,5,0,8,,,,,,,,6,,,,45,32
104140,note_off,40,0,10,,,,,,,,8,,,,81,64
104140,note_off,40,0,11,,,,,,,,10,,,,77,64
104140,note_off,40,0,6,,,,,,,,4,,,,77,64
104140,note_off,40,0,5,,,,,,,,3,,,,81,64
104160,note_on,20,0,6,,,,,,,,4,,,,74,48
104160,note_on,20,0,10,,,,,,,,8,,,,77,33
104160,note_on,20,0,11,,,,,,,,10,,,,74,33
104160,note_on,20,0,5,,,,,,,,3,,,,77,48
104200,note_off,40,0,5,,,,,,,,3,,,,77,64
104200,note_off,40,0,6,,,,,,,,4,,,,74,64
104200,note_off,40,0,11,,,,,,,,10,,,,74,64
104200,note_off,40,0,10,,,,,,,,8,,,,77,64
104215,note_off,115,0,7,,,,,,,,5,,,,57,64
104215,note_off,115,0,1,,,,,,,,0,,,,57,64
104215,note_off,115,0,14,,,,,,,,13,,,,33,64
104215,note_off,115,0,13,,,,,,,,12,,,,45,64
104215,note_off,115,0,2,,,,,,,,0,,,,45,64
104215,note_off,115,0,8,,,,,,,,6,,,,45,64
104215,note_off,115,0,9,,,,,,,,7,,,,33,64
104215,note_off,115,0,12,,,,,,,,11,,,,57,64
104215,note_off,115,0,15,,,,,,,,14,,,,33,64
104220,note_on,5,0,13,,,,,,,,12,,,,45,31
104220,note_on,5,0,7,,,,,,,,5,,,,57,31
104220,note_on,5,0,2,,,,,,,,0,,,,45,31
104220,note_on,5,0,8,,,,,,,,6,,,,45,31
104220,note_on,20,0,10,,,,,,,,8,,,,81,32
104220,note_on,5,0,9,,,,,,,,7,,,,33,31
104220,note_on,5,0,1,,,,,,,,0,,,,57,31
104220,note_on,5,0,14,,,,,,,,13,,,,33,31
104220,note_on,5,0,15,,,,,,,,14,,,,33,31
104220,note_on,20,0,11,,,,,,,,10,,,,77,32
104220,note_on,5,0,12,,,,,,,,11,,,,57,31
104220,note_on,20,0,5,,,,,,,,3,,,,81,47
104220,note_on,20,0,6,,,,,,,,4,,,,77,47
104260,note_off,40,0,11,,,,,,,,10,,,,77,64
104260,note_off,40,0,5,,,,,,,,3,,,,81,64
104260,note_off,40,0,6,,,,,,,,4,,,,77,64
104260,note_off,40,0,10,,,,,,,,8,,,,81,64
104280,note_on,20,0,11,,,,,,,,10,,,,74,31
104280,note_on,20,0,6,,,,,,,,4,,,,74,46
104280,note_on,20,0,10,,,,,,,,8,,,,77,31
104280,note_on,20,0,5,,,,,,,,3,,,,77,46
104320,note_off,40,0,6,,,,,,,,4,,,,74,64
104320,note_off,40,0,10,,,,,,,,8,,,,77,64
104320,note_off,40,0,11,,,,,,,,10,,,,74,64
104320,note_off,40,0,5,,,,,,,,3,,,,77,64
104335,note_off,115,0,15,,,,,,,,14,,,,33,64
104335,note_off,115,0,7,,,,,,,,5,,,,57,64
104335,note_off,115,0,13,,,,,,,,12,,,,45,64
104335,note_off,115,0,2,,,,,,,,0,,,,45,64
104335,note_off,115,0,1,,,,,,,,0,,,,57,64
104335,note_off,115,0,14,,,,,,,,13,,,,33,64
104335,note_off,115,0,12,,,,,,,,11,,,,57,64
104335,note_off,115,0,9,,,,,,,,7,,,,33,64
104335,note_off,115,0,8,,,,,,,,6,,,,45,64
104340,note_on,20,0,11,,,,,,,,10,,,,76,30
104340,note_on,5,0,15,,,,,,,,14,,,,33,30
104340,note_on,5,0,12,,,,,,,,11,,,,57,30
104340,note_on,20,0,5,,,,,,,,3,,,,79,45
104340,note_on,5,0,7,,,,,,,,5,,,,57,30
104340,note_on,5,0,1,,,,,,,,0,,,,57,30
104340,note_on,20,0,6,,,,,,,,4,,,,76,45
104340,note_on,5,0,14,,,,,,,,13,,,,33,30
104340,note_on,5,0,2,,,,,,,,0,,,,45,30
104340,note_on,5,0,9,,,,,,,,7,,,,33,30
104340,note_on,20,0,10,,,,,,,,8,,,,79,30
104340,note_on,5,0,13,,,,,,,,12,,,,45,30
104340,note_on,5,0,8,,,,,,,,6,,,,45,30
104380,note_off,40,0,6,,,,,,,,4,,,,76,64
104380,note_off,40,0,11,,,,,,,,10,,,,76,64
104380,note_off,40,0,5,,,,,,,,3,,,,79,64
104380,note_off,40,0,10,,,,,,,,8,,,,79,64
104400,note_on,20,0,6,,,,,,,,4,,,,73,45
104400,note_on,20,0,11,,,,,,,,10,,,,73,30
104400,note_on,20,0,5,,,,,,,,3,,,,76,45
104400,note_on,20,0,10,,,,,,,,8,,,,76,30
104440,note_off,40,0,11,,,,,,,,10,,,,73,64
104440,note_off,40,0,6,,,,,,,,4,,,,73,64
104440,note_off,40,0,10,,,,,,,,8,,,,76,64
104440,note_off,40,0,5,,,,,,,,3,,,,76,64
104455,note_off,115,0,12,,,,,,,,11,,,,57,64
104455,note_off,115,0,7,,,,,,,,5,,,,57,64
104460,note_on,20,0,10,,,,,,,,8,,,,79,30
104460,note_on,20,0,5,,,,,,,,3,,,,79,45
104460,note_on,20,0,6,,,,,,,,4,,,,76,45
104460,note_on,5,0,12,,,,,,,,11,,,,69,30
104460,note_on,5,0,7,,,,,,,,5,,,,69,30
104460,note_on,20,0,11,,,,,,,,10,,,,76,30
104500,note_off,40,0,5,,,,,,,,3,,,,79,64
104500,note_off,40,0,10,,,,,,,,8,,,,79,64
104500,note_off,40,0,6,,,,,,,,4,,,,76,64
104500,note_off,40,0,11,,,,,,,,10,,,,76,64
104520,note_on,20,0,6,,,,,,,,4,,,,73,45
104520,note_on,20,0,11,,,,,,,,10,,,,73,30
104520,note_on,20,0,5,,,,,,,,3,,,,76,45
104520,note_on,20,0,10,,,,,,,,8,,,,76,30
104560,note_off,40,0,10,,,,,,,,8,,,,76,64
104560,note_off,40,0,6,,,,,,,,4,,,,73,64
104560,note_off,40,0,11,,,,,,,,10,,,,73,64
104560,note_off,40,0,5,,,,,,,,3,,,,76,64
104575,note_off,235,0,2,,,,,,,,0,,,,45,64
104575,note_off,235,0,13,,,,,,,,12,,,,45,64
104575,note_off,115,0,7,,,,,,,,5,,,,69,64
104575,note_off,235,0,8,,,,,,,,6,,,,45,64
104575,note_off,115,0,12,,,,,,,,11,,,,69,64
104575,note_off,235,0,9,,,,,,,,7,,,,33,64
104575,note_off,235,0,14,,,,,,,,13,,,,33,64
104575,note_off,235,0,15,,,,,,,,14,,,,33,64
104575,note_off,235,0,1,,,,,,,,0,,,,57,64
104580,note_on,20,0,10,,,,,,,,8,,,,79,30
104580,note_on,5,0,15,,,,,,,,14,,,,37,30
104580,note_on,5,0,12,,,,,,,,11,,,,61,30
104580,note_on,5,0,2,,,,,,,,0,,,,49,30
104580,note_on,20,0,6,,,,,,,,4,,,,76,45
104580,note_on,20,0,5,,,,,,,,3,,,,79,45
104580,note_on,5,0,7,,,,,,,,5,,,,61,30
104580,note_on,5,0,13,,,,,,,,12,,,,49,30
104580,note_on,5,0,1,,,,,,,,0,,,,61,30
104580,note_on,5,0,14,,,,,,,,13,,,,37,30
104580,note_on,5,0,8,,,,,,,,6,,,,49,30
104580,note_on,20,0,11,,,,,,,,10,,,,76,30
104580,note_on,5,0,9,,,,,,,,7,,,,37,30
104620,note_off,40,0,6,,,,,,,,4,,,,76,64
104620,note_off,40,0,5,,,,,,,,3,,,,79,64
104620,note_off,40,0,10,,,,,,,,8,,,,79,64
104620,note_off,40,0,11,,,,,,,,10,,,,76,64
104640,note_on,20,0,6,,,,,,,,4,,,,73,45
104640,note_on,20,0,5,,,,,,,,3,,,,76,45
104640,note_on,20,0,11,,,,,,,,10,,,,73,30
104640,note_on,20,0,10,,,,,,,,8,,,,76,30
104680,note_off,40,0,11,,,,,,,,10,,,,73,64
104680,note_off,40,0,6,,,,,,,,4,,,,73,64
104680,note_off,40,0,5,,,,,,,,3,,,,76,64
104680,note_off,40,0,10,,,,,,,,8,,,,76,64
104695,note_off,115,0,2,,,,,,,,0,,,,49,64
104695,note_off,115,0,7,,,,,,,,5,,,,61,64
104695,note_off,115,0,8,,,,,,,,6,,,,49,64
104695,note_off,115,0,13,,,,,,,,12,,,,49,64
104695,note_off,115,0,12,,,,,,,,11,,,,61,64
104695,note_off,115,0,14,,,,,,,,13,,,,37,64
104695,note_off,115,0,1,,,,,,,,0,,,,61,64
104695,note_off,115,0,15,,,,,,,,14,,,,37,64
104695,note_off,115,0,9,,,,,,,,7,,,,37,64
104700,note_on,20,0,5,,,,,,,,3,,,,79,45
104700,note_on,5,0,7,,,,,,,,5,,,,57,30
104700,note_on,5,0,15,,,,,,,,14,,,,33,30
104700,note_on,20,0,11,,,,,,,,10,,,,76,30
104700,note_on,5,0,9,,,,,,,,7,,,,33,30
104700,note_on,5,0,12,,,,,,,,11,,,,57,30
104700,note_on,5,0,14,,,,,,,,13,,,,33,30
104700,note_on,20,0,10,,,,,,,,8,,,,79,30
104700,note_on,5,0,1,,,,,,,,0,,,,57,30
104700,note_on,5,0,8,,,,,,,,6,,,,45,30
104700,note_on,5,0,13,,,,,,,,12,,,,45,30
104700,note_on,5,0,2,,,,,,,,0,,,,45,30
104700,note_on,20,0,6,,,,,,,,4,,,,76,45
104740,note_off,40,0,10,,,,,,,,8,,,,79,64
104740,note_off,40,0,11,,,,,,,,10,,,,76,64
104740,note_off,40,0,6,,,,,,,,4,,,,76,64
104740,note_off,40,0,5,,,,,,,,3,,,,79,64
104760,note_on,20,0,6,,,,,,,,4,,,,73,45
104760,note_on,20,0,10,,,,,,,,8,,,,76,30
104760,note_on,20,0,5,,,,,,,,3,,,,76,45
104760,note_on,20,0,11,,,,,,,,10,,,,73,30
104800,note_off,40,0,6,,,,,,,,4,,,,73,64
104800,note_off,40,0,11,,,,,,,,10,,,,73,64
104800,note_off,40,0,5,,,,,,,,3,,,,76,64
104800,note_off,40,0,10,,,,,,,,8,,,,76,64
104815,note_off,115,0,9,,,,,,,,7,,,,33,64
104815,note_off,115,0,7,,,,,,,,5,,,,57,64
104815,note_off,115,0,14,,,,,,,,13,,,,33,64
104815,note_off,115,0,15,,,,,,,,14,,,,33,64
104815,note_off,115,0,13,,,,,,,,12,,,,45,64
104815,note_off,115,0,1,,,,,,,,0,,,,57,64
104815,note_off,115,0,12,,,,,,,,11,,,,57,64
104815,note_off,115,0,2,,,,,,,,0,,,,45,64
104815,note_off,115,0,8,,,,,,,,6,,,,45,64
104820,note_on,5,0,13,,,,,,,,12,,,,45,30
104820,note_on,5,0,8,,,,,,,,6,,,,45,30
104820,note_on,20,0,5,,,,,,,,3,,,,79,45
104820,note_on,20,0,11,,,,,,,,10,,,,76,30
104820,note_on,5,0,2,,,,,,,,0,,,,45,30
104820,note_on,20,0,6,,,,,,,,4,,,,76,45
104820,note_on,5,0,9,,,,,,,,7,,,,33,30
104820,note_on,5,0,15,,,,,,,,14,,,,33,30
104820,note_on,5,0,14,,,,,,,,13,,,,33,30
104820,note_on,20,0,10,,,,,,,,8,,,,79,30
104820,note_on,5,0,7,,,,,,,,5,,,,57,30
104820,note_on,5,0,1,,,,,,,,0,,,,57,30
104820,note_on,5,0,12,,,,,,,,11,,,,57,30
104860,note_off,40,0,5,,,,,,,,3,,,,79,64
104860,note_off,40,0,11,,,,,,,,10,,,,76,64
104860,note_off,40,0,10,,,,,,,,8,,,,79,64
104860,note_off,40,0,6,,,,,,,,4,,,,76,64
104880,note_on,20,0,6,,,,,,,,4,,,,73,45
104880,note_on,20,0,10,,,,,,,,8,,,,76,30
104880,note_on,20,0,5,,,,,,,,3,,,,76,45
104880,note_on,20,0,11,,,,,,,,10,,,,73,30
104920,note_off,40,0,5,,,,,,,,3,,,,76,64
104920,note_off,40,0,11,,,,,,,,10,,,,73,64
104920,note_off,40,0,6,,,,,,,,4,,,,73,64
104920,note_off,40,0,10,,,,,,,,8,,,,76,64
104935,note_off,115,0,12,,,,,,,,11,,,,57,64
104935,note_off,115,0,13,,,,,,,,12,,,,45,64
104935,note_off,115,0,15,,,,,,,,14,,,,33,64
104935,note_off,115,0,8,,,,,,,,6,,,,45,64
104935,note_off,115,0,14,,,,,,,,13,,,,33,64
104935,note_off,115,0,1,,,,,,,,0,,,,57,64
104935,note_off,115,0,2,,,,,,,,0,,,,45,64
104935,note_off,115,0,7,,,,,,,,5,,,,57,64
104935,note_off,115,0,9,,,,,,,,7,,,,33,64
104940,note_on,5,0,13,,,,,,,,12,,,,45,30
104940,note_on,5,0,9,,,,,,,,7,,,,33,30
104940,note_on,20,0,6,,,,,,,,4,,,,76,45
104940,note_on,5,0,8,,,,,,,,6,,,,45,30
104940,note_on,20,0,11,,,,,,,,10,,,,76,30
104940,note_on,20,0,10,,,,,,,,8,,,,79,30
104940,note_on,5,0,2,,,,,,,,0,,,,45,30
104940,note_on,5,0,12,,,,,,,,11,,,,57,30
104940,note_on,5,0,7,,,,,,,,5,,,,57,30
104940,note_on,5,0,1,,,,,,,,0,,,,57,30
104940,note_on,20,0,5,,,,,,,,3,,,,79,45
104940,note_on,5,0,15,,,,,,,,14,,,,33,30
104940,note_on,5,0,14,,,,,,,,13,,,,33,30
104980,note_off,40,0,11,,,,,,,,10,,,,76,64
104980,note_off,40,0,5,,,,,,,,3,,,,79,64
104980,note_off,40,0,6,,,,,,,,4,,,,76,64
104980,note_off,40,0,10,,,,,,,,8,,,,79,64
105000,note_on,20,0,11,,,,,,,,10,,,,73,30
105000,note_on,20,0,5,,,,,,,,3,,,,76,45
105000,note_on,20,0,6,,,,,,,,4,,,,73,45
105000,note_on,20,0,10,,,,,,,,8,,,,76,30
105040,note_off,40,0,11,,,,,,,,10,,,,73,64
105040,note_off,40,0,10,,,,,,,,8,,,,76,64
105040,note_off,40,0,6,,,,,,,,4,,,,73,64
105040,note_off,40,0,5,,,,,,,,3,,,,76,64
105055,note_off,115,0,8,,,,,,,,6,,,,45,64
105055,note_off,115,0,14,,,,,,,,13,,,,33,64
105055,note_off,115,0,15,,,,,,,,14,,,,33,64
105055,note_off,115,0,13,,,,,,,,12,,,,45,64
105055,note_off,115,0,1,,,,,,,,0,,,,57,64
105055,note_off,115,0,12,,,,,,,,11,,,,57,64
105055,note_off,115,0,7,,,,,,,,5,,,,57,64
105055,note_off,115,0,2,,,,,,,,0,,,,45,64
105055,note_off,115,0,9,,,,,,,,7,,,,33,64
105060,note_on,5,0,13,,,,,,,,12,,,,45,30
105060,note_on,5,0,7,,,,,,,,5,,,,57,30
105060,note_on,20,0,10,,,,,,,,8,,,,77,30
105060,note_on,20,0,6,,,,,,,,4,,,,74,45
105060,note_on,5,0,2,,,,,,,,0,,,,45,30
105060,note_on,5,0,9,,,,,,,,7,,,,33,30
105060,note_on,5,0,1,,,,,,,,0,,,,57,30
105060,note_on,5,0,15,,,,,,,,14,,,,33,30
105060,note_on,20,0,5,,,,,,,,3,,,,77,45
105060,note_on,5,0,12,,,,,,,,11,,,,57,30
105060,note_on,20,0,11,,,,,,,,10,,,,74,30
105060,note_on,5,0,8,,,,,,,,6,,,,45,30
105060,note_on,5,0,14,,,,,,,,13,,,,33,30
105100,note_off,40,0,10,,,,,,,,8,,,,77,64
105100,note_off,40,0,6,,,,,,,,4,,,,74,64
105100,note_off,40,0,11,,,,,,,,10,,,,74,64
105100,note_off,40,0,5,,,,,,,,3,,,,77,64
105120,note_on,20,0,10,,,,,,,,8,,,,74,30
105120,note_on,20,0,6,,,,,,,,4,,,,69,45
105120,note_on,20,0,11,,,,,,,,10,,,,69,30
105120,note_on,20,0,5,,,,,,,,3,,,,74,45
105160,note_off,40,0,11,,,,,,,,10,,,,69,64
105160,note_off,40,0,10,,,,,,,,8,,,,74,64
105160,note_off,40,0,5,,,,,,,,3,,,,74,64
105160,note_off,40,0,6,,,,,,,,4,,,,69,64
105175,note_off,115,0,7,,,,,,,,5,,,,57,64
105175,note_off,115,0,12,,,,,,,,11,,,,57,64
105180,note_on,20,0,10,,,,,,,,8,,,,77,30
105180,note_on,20,0,6,,,,,,,,4,,,,74,45
105180,note_on,5,0,12,,,,,,,,11,,,,69,30
105180,note_on,20,0,11,,,,,,,,10,,,,74,30
105180,note_on,20,0,5,,,,,,,,3,,,,77,45
105180,note_on,5,0,7,,,,,,,,5,,,,69,30
105220,note_off,40,0,11,,,,,,,,10,,,,74,64
105220,note_off,40,0,5,,,,,,,,3,,,,77,64
105220,note_off,40,0,10,,,,,,,,8,,,,77,64
105220,note_off,40,0,6,,,,,,,,4,,,,74,64
105240,note_on,20,0,11,,,,,,,,10,,,,69,30
105240,note_on,20,0,5,,,,,,,,3,,,,74,45
105240,note_on,20,0,6,,,,,,,,4,,,,69,45
105240,note_on,20,0,10,,,,,,,,8,,,,74,30
105280,note_off,40,0,5,,,,,,,,3,,,,74,64
105280,note_off,40,0,6,,,,,,,,4,,,,69,64
105280,note_off,40,0,11,,,,,,,,10,,,,69,64
105280,note_off,40,0,10,,,,,,,,8,,,,74,64
105295,note_off,235,0,8,,,,,,,,6,,,,45,64
105295,note_off,235,0,15,,,,,,,,14,,,,33,64
105295,note_off,235,0,14,,,,,,,,13,,,,33,64
105295,note_off,115,0,7,,,,,,,,5,,,,69,64
105295,note_off,235,0,2,,,,,,,,0,,,,45,64
105295,note_off,235,0,13,,,,,,,,12,,,,45,64
105295,note_off,115,0,12,,,,,,,,11,,,,69,64
105295,note_off,235,0,1,,,,,,,,0,,,,57,64
105295,note_off,235,0,9,,,,,,,,7,,,,33,64
105300,note_on,20,0,5,,,,,,,,3,,,,77,45
105300,note_on,5,0,14,,,,,,,,13,,,,38,30
105300,note_on,5,0,1,,,,,,,,0,,,,62,30
105300,note_on,5,0,15,,,,,,,,14,,,,38,30
105300,note_on,5,0,7,,,,,,,,5,,,,62,30
105300,note_on,5,0,9,,,,,,,,7,,,,38,30
105300,note_on,20,0,11,,,,,,,,10,,,,74,30
105300,note_on,5,0,12,,,,,,,,11,,,,62,30
105300,note_on,20,0,6,,,,,,,,4,,,,74,45
105300,note_on,5,0,13,,,,,,,,12,,,,50,30
105300,note_on,20,0,10,,,,,,,,8,,,,77,30
105300,note_on,5,0,2,,,,,,,,0,,,,50,30
105300,note_on,5,0,8,,,,,,,,6,,,,50,30
105340,note_off,40,0,10,,,,,,,,8,,,,77,64
105340,note_off,40,0,11,,,,,,,,10,,,,74,64
105340,note_off,40,0,5,,,,,,,,3,,,,77,64
105340,note_off,40,0,6,,,,,,,,4,,,,74,64
105360,note_on,20,0,11,,,,,,,,10,,,,69,30
105360,note_on,20,0,10,,,,,,,,8,,,,74,30
105360,note_on,20,0,6,,,,,,,,4,,,,69,45
105360,note_on,20,0,5,,,,,,,,3,,,,74,45
105400,note_off,40,0,11,,,,,,,,10,,,,69,64
105400,note_off,40,0,6,,,,,,,,4,,,,69,64
105400,note_off,40,0,10,,,,,,,,8,,,,74,64
105400,note_off,40,0,5,,,,,,,,3,,,,74,64
105415,note_off,115,0,14,,,,,,,,13,,,,38,64
105415,note_off,115,0,13,,,,,,,,12,,,,50,64
105415,note_off,115,0,1,,,,,,,,0,,,,62,64
105415,note_off,115,0,7,,,,,,,,5,,,,62,64
105415,note_off,115,0,8,,,,,,,,6,,,,50,64
105415,note_off,115,0,9,,,,,,,,7,,,,38,64
105415,note_off,115,0,15,,,,,,,,14,,,,38,64
105415,note_off,115,0,2,,,,,,,,0,,,,50,64
105415,note_off,115,0,12,,,,,,,,11,,,,62,64
105420,note_on,5,0,15,,,,,,,,14,,,,33,30
105420,note_on,5,0,1,,,,,,,,0,,,,57,30
105420,note_on,5,0,7,,,,,,,,5,,,,57,30
105420,note_on,20,0,11,,,,,,,,10,,,,74,30
105420,note_on,5,0,14,,,,,,,,13,,,,33,30
105420,note_on,5,0,12,,,,,,,,11,,,,57,30
105420,note_on,5,0,13,,,,,,,,12,,,,45,30
105420,note_on,20,0,6,,,,,,,,4,,,,74,45
105420,note_on,5,0,8,,,,,,,,6,,,,45,30
105420,note_on,5,0,9,,,,,,,,7,,,,33,30
105420,note_on,5,0,2,,,,,,,,0,,,,45,30
105420,note_on,20,0,5,,,,,,,,3,,,,77,45
105420,note_on,20,0,10,,,,,,,,8,,,,77,30
105460,note_off,40,0,11,,,,,,,,10,,,,74,64
105460,note_off,40,0,5,,,,,,,,3,,,,77,64
105460,note_off,40,0,6,,,,,,,,4,,,,74,64
105460,note_off,40,0,10,,,,,,,,8,,,,77,64
105480,note_on,20,0,11,,,,,,,,10,,,,69,30
105480,note_on,20,0,5,,,,,,,,3,,,,74,45
105480,note_on,20,0,6,,,,,,,,4,,,,69,45
105480,note_on,20,0,10,,,,,,,,8,,,,74,30
105520,note_off,40,0,11,,,,,,,,10,,,,69,64
105520,note_off,40,0,5,,,,,,,,3,,,,74,64
105520,note_off,40,0,10,,,,,,,,8,,,,74,64
105520,note_off,40,0,6,,,,,,,,4,,,,69,64
105535,note_off,115,0,8,,,,,,,,6,,,,45,64
105535,note_off,115,0,7,,,,,,,,5,,,,57,64
105535,note_off,115,0,2,,,,,,,,0,,,,45,64
105535,note_off,115,0,13,,,,,,,,12,,,,45,64
105535,note_off,115,0,14,,,,,,,,13,,,,33,64
105535,note_off,115,0,15,,,,,,,,14,,,,33,64
105535,note_off,115,0,9,,,,,,,,7,,,,33,64
105535,note_off,115,0,12,,,,,,,,11,,,,57,64
105535,note_off,115,0,1,,,,,,,,0,,,,57,64
105540,note_on,5,0,8,,,,,,,,6,,,,45,30
105540,note_on,20,0,6,,,,,,,,4,,,,74,45
105540,note_on,5,0,14,,,,,,,,13,,,,33,30
105540,note_on,5,0,2,,,,,,,,0,,,,45,30
105540,note_on,5,0,15,,,,,,,,14,,,,33,30
105540,note_on,5,0,9,,,,,,,,7,,,,33,30
105540,note_on,5,0,7,,,,,,,,5,,,,57,30
105540,note_on,20,0,10,,,,,,,,8,,,,77,30
105540,note_on,20,0,5,,,,,,,,3,,,,77,45
105540,note_on,5,0,13,,,,,,,,12,,,,45,30
105540,note_on,5,0,12,,,,,,,,11,,,,57,30
105540,note_on,20,0,11,,,,,,,,10,,,,74,30
105540,note_on,5,0,1,,,,,,,,0,,,,57,30
105580,note_off,40,0,6,,,,,,,,4,,,,74,64
105580,note_off,40,0,10,,,,,,,,8,,,,77,64
105580,note_off,40,0,5,,,,,,,,3,,,,77,64
105580,note_off,40,0,11,,,,,,,,10,,,,74,64
105600,note_on,20,0,6,,,,,,,,4,,,,69,45
105600,note_on,20,0,5,,,,,,,,3,,,,74,45
105600,note_on,20,0,10,,,,,,,,8,,,,74,30
105600,note_on,20,0,11,,,,,,,,10,,,,69,30
105640,note_off,40,0,11,,,,,,,,10,,,,69,64
105640,note_off,40,0,6,,,,,,,,4,,,,69,64
105640,note_off,40,0,10,,,,,,,,8,,,,74,64
105640,note_off,40,0,5,,,,,,,,3,,,,74,64
105655,note_off,115,0,7,,,,,,,,5,,,,57,64
105655,note_off,115,0,9,,,,,,,,7,,,,33,64
105655,note_off,115,0,12,,,,,,,,11,,,,57,64
105655,note_off,115,0,15,,,,,,,,14,,,,33,64
105655,note_off,115,0,1,,,,,,,,0,,,,57,64
105655,note_off,115,0,2,,,,,,,,0,,,,45,64
105655,note_off,115,0,14,,,,,,,,13,,,,33,64
105655,note_off,115,0,8,,,,,,,,6,,,,45,64
105655,note_off,115,0,13,,,,,,,,12,,,,45,64
105660,note_on,20,0,5,,,,,,,,3,,,,77,45
105660,note_on,20,0,10,,,,,,,,8,,,,77,30
105660,note_on,5,0,12,,,,,,,,11,,,,57,30
105660,note_on,20,0,11,,,,,,,,10,,,,74,30
105660,note_on,5,0,13,,,,,,,,12,,,,45,30
105660,note_on,5,0,15,,,,,,,,14,,,,33,30
105660,note_on,20,0,6,,,,,,,,4,,,,74,45
105660,note_on,5,0,1,,,,,,,,0,,,,57,30
105660,note_on,5,0,8,,,,,,,,6,,,,45,30
105660,note_on,5,0,2,,,,,,,,0,,,,45,30
105660,note_on,5,0,9,,,,,,,,7,,,,33,30
105660,note_on,5,0,7,,,,,,,,5,,,,57,30
105660,note_on,5,0,14,,,,,,,,13,,,,33,30
105700,note_off,40,0,6,,,,,,,,4,,,,74,64
105700,note_off,40,0,10,,,,,,,,8,,,,77,64
105700,note_off,40,0,5,,,,,,,,3,,,,77,64
105700,note_off,40,0,11,,,,,,,,10,,,,74,64
105720,note_on,20,0,10,,,,,,,,8,,,,74,30
105720,note_on,20,0,6,,,,,,,,4,,,,69,45
105720,note_on,20,0,11,,,,,,,,10,,,,69,30
105720,note_on,20,0,5,,,,,,,,3,,,,74,45
105760,note_off,40,0,6,,,,,,,,4,,,,69,64
105760,note_off,40,0,5,,,,,,,,3,,,,74,64
105760,note_off,40,0,10,,,,,,,,8,,,,74,64
105760,note_off,40,0,11,,,,,,,,10,,,,69,64
105775,note_off,115,0,1,,,,,,,,0,,,,57,64
105775,note_off,115,0,7,,,,,,,,5,,,,57,64
105775,note_off,115,0,8,,,,,,,,6,,,,45,64
105775,note_off,115,0,13,,,,,,,,12,,,,45,64
105775,note_off,115,0,2,,,,,,,,0,,,,45,64
105775,note_off,115,0,12,,,,,,,,11,,,,57,64
105775,note_off,115,0,15,,,,,,,,14,,,,33,64
105775,note_off,115,0,9,,,,,,,,7,,,,33,64
105775,note_off,115,0,14,,,,,,,,13,,,,33,64
105780,note_on,5,0,15,,,,,,,,14,,,,33,30
105780,note_on,5,0,8,,,,,,,,6,,,,45,30
105780,note_on,20,0,6,,,,,,,,4,,,,74,45
105780,note_on,5,0,7,,,,,,,,5,,,,57,30
105780,note_on,5,0,1,,,,,,,,0,,,,57,30
105780,note_on,5,0,9,,,,,,,,7,,,,33,30
105780,set_tempo,21600,1,0,833333,,,,,,,,,,,,
105780,note_on,5,0,2,,,,,,,,0,,,,45,30
105780,note_on,5,0,14,,,,,,,,13,,,,33,30
105780,note_on,5,0,12,,,,,,,,11,,,,57,30
105780,note_on,20,0,11,,,,,,,,10,,,,74,30
105780,note_on,5,0,13,,,,,,,,12,,,,45,30
105780,note_on,20,0,10,,,,,,,,8,,,,76,30
105780,note_on,20,0,5,,,,,,,,3,,,,76,45
105820,note_off,40,0,10,,,,,,,,8,,,,76,64
105820,note_off,40,0,11,,,,,,,,10,,,,74,64
105820,note_off,40,0,6,,,,,,,,4,,,,74,64
105820,note_off,40,0,5,,,,,,,,3,,,,76,64
105840,note_on,20,0,5,,,,,,,,3,,,,74,45
105840,note_on,20,0,6,,,,,,,,4,,,,69,45
105840,note_on,20,0,10,,,,,,,,8,,,,74,30
105840,note_on,20,0,11,,,,,,,,10,,,,69,30
105840,set_tempo,60,1,0,845070,,,,,,,,,,,,
105880,note_off,40,0,5,,,,,,,,3,,,,74,64
105880,note_off,40,0,10,,,,,,,,8,,,,74,64
105880,note_off,40,0,6,,,,,,,,4,,,,69,64
105880,note_off,40,0,11,,,,,,,,10,,,,69,64
105895,note_off,115,0,12,,,,,,,,11,,,,57,64
105895,note_off,115,0,7,,,,,,,,5,,,,57,64
105900,note_on,5,0,12,,,,,,,,11,,,,69,30
105900,set_tempo,60,1,0,857142,,,,,,,,,,,,
105900,note_on,20,0,11,,,,,,,,10,,,,74,30
105900,note_on,20,0,10,,,,,,,,8,,,,76,30
105900,note_on,20,0,5,,,,,,,,3,,,,76,45
105900,note_on,20,0,6,,,,,,,,4,,,,74,45
105900,note_on,5,0,7,,,,,,,,5,,,,69,30
105940,note_off,40,0,11,,,,,,,,10,,,,74,64
105940,note_off,40,0,5,,,,,,,,3,,,,76,64
105940,note_off,40,0,10,,,,,,,,8,,,,76,64
105940,note_off,40,0,6,,,,,,,,4,,,,74,64
105960,set_tempo,60,1,0,869565,,,,,,,,,,,,
105960,note_on,20,0,11,,,,,,,,10,,,,69,30
105960,note_on,20,0,10,,,,,,,,8,,,,74,30
105960,note_on,20,0,5,,,,,,,,3,,,,74,45
105960,note_on,20,0,6,,,,,,,,4,,,,69,45
106000,note_off,40,0,5,,,,,,,,3,,,,74,64
106000,note_off,40,0,10,,,,,,,,8,,,,74,64
106000,note_off,40,0,6,,,,,,,,4,,,,69,64
106000,note_off,40,0,11,,,,,,,,10,,,,69,64
106015,note_off,235,0,15,,,,,,,,14,,,,33,64
106015,note_off,115,0,7,,,,,,,,5,,,,69,64
106015,note_off,235,0,9,,,,,,,,7,,,,33,64
106015,note_off,235,0,1,,,,,,,,0,,,,57,64
106015,note_off,235,0,2,,,,,,,,0,,,,45,64
106015,note_off,235,0,14,,,,,,,,13,,,,33,64
106015,note_off,235,0,8,,,,,,,,6,,,,45,64
106015,note_off,235,0,13,,,,,,,,12,,,,45,64
106015,note_off,115,0,12,,,,,,,,11,,,,69,64
106020,note_on,5,0,15,,,,,,,,14,,,,38,30
106020,note_on,5,0,14,,,,,,,,13,,,,38,30
106020,note_on,20,0,10,,,,,,,,8,,,,76,30
106020,note_on,20,0,5,,,,,,,,3,,,,76,45
106020,note_on,5,0,7,,,,,,,,5,,,,62,30
106020,note_on,20,0,6,,,,,,,,4,,,,74,45
106020,note_on,5,0,9,,,,,,,,7,,,,38,30
106020,note_on,5,0,2,,,,,,,,0,,,,50,30
106020,note_on,5,0,1,,,,,,,,0,,,,62,30
106020,note_on,20,0,11,,,,,,,,10,,,,74,30
106020,note_on,5,0,8,,,,,,,,6,,,,50,30
106020,note_on,5,0,13,,,,,,,,12,,,,50,30
106020,note_on,5,0,12,,,,,,,,11,,,,62,30
106020,set_tempo,60,1,0,882352,,,,,,,,,,,,
106060,note_off,40,0,6,,,,,,,,4,,,,74,64
106060,note_off,40,0,5,,,,,,,,3,,,,76,64
106060,note_off,40,0,11,,,,,,,,10,,,,74,64
106060,note_off,40,0,10,,,,,,,,8,,,,76,64
106080,set_tempo,60,1,0,895522,,,,,,,,,,,,
106080,note_on,20,0,5,,,,,,,,3,,,,74,45
106080,note_on,20,0,6,,,,,,,,4,,,,69,45
106080,note_on,20,0,11,,,,,,,,10,,,,69,30
106080,note_on,20,0,10,,,,,,,,8,,,,74,30
106120,note_off,40,0,5,,,,,,,,3,,,,74,64
106120,note_off,40,0,6,,,,,,,,4,,,,69,64
106120,note_off,40,0,11,,,,,,,,10,,,,69,64
106120,note_off,40,0,10,,,,,,,,8,,,,74,64
106135,note_off,115,0,8,,,,,,,,6,,,,50,64
106135,note_off,115,0,1,,,,,,,,0,,,,62,64
106135,note_off,115,0,2,,,,,,,,0,,,,50,64
106135,note_off,115,0,9,,,,,,,,7,,,,38,64
106135,note_off,115,0,12,,,,,,,,11,,,,62,64
106135,note_off,115,0,7,,,,,,,,5,,,,62,64
106135,note_off,115,0,13,,,,,,,,12,,,,50,64
106135,note_off,115,0,15,,,,,,,,14,,,,38,64
106135,note_off,115,0,14,,,,,,,,13,,,,38,64
106140,note_on,5,0,15,,,,,,,,14,,,,33,30
106140,note_on,5,0,12,,,,,,,,11,,,,57,30
106140,set_tempo,60,1,0,909090,,,,,,,,,,,,
106140,note_on,5,0,14,,,,,,,,13,,,,33,30
106140,note_on,5,0,7,,,,,,,,5,,,,57,30
106140,note_on,5,0,2,,,,,,,,0,,,,45,30
106140,note_on,20,0,5,,,,,,,,3,,,,76,45
106140,note_on,5,0,1,,,,,,,,0,,,,57,30
106140,note_on,5,0,8,,,,,,,,6,,,,45,30
106140,note_on,20,0,10,,,,,,,,8,,,,76,30
106140,note_on,5,0,13,,,,,,,,12,,,,45,30
106140,note_on,20,0,6,,,,,,,,4,,,,74,45
106140,note_on,20,0,11,,,,,,,,10,,,,74,30
106140,note_on,5,0,9,,,,,,,,7,,,,33,30
106180,note_off,40,0,11,,,,,,,,10,,,,74,64
106180,note_off,40,0,5,,,,,,,,3,,,,76,64
106180,note_off,40,0,6,,,,,,,,4,,,,74,64
106180,note_off,40,0,10,,,,,,,,8,,,,76,64
106200,note_on,20,0,10,,,,,,,,8,,,,74,30
106200,set_tempo,60,1,0,923076,,,,,,,,,,,,
106200,note_on,20,0,6,,,,,,,,4,,,,69,45
106200,note_on,20,0,5,,,,,,,,3,,,,74,45
106200,note_on,20,0,11,,,,,,,,10,,,,69,30
106240,note_off,40,0,6,,,,,,,,4,,,,69,64
106240,note_off,40,0,5,,,,,,,,3,,,,74,64
106240,note_off,40,0,10,,,,,,,,8,,,,74,64
106240,note_off,40,0,11,,,,,,,,10,,,,69,64
106255,note_off,115,0,1,,,,,,,,0,,,,57,64
106255,note_off,115,0,14,,,,,,,,13,,,,33,64
106255,note_off,115,0,15,,,,,,,,14,,,,33,64
106255,note_off,115,0,12,,,,,,,,11,,,,57,64
106255,note_off,115,0,7,,,,,,,,5,,,,57,64
106255,note_off,115,0,8,,,,,,,,6,,,,45,64
106255,note_off,115,0,13,,,,,,,,12,,,,45,64
106255,note_off,115,0,2,,,,,,,,0,,,,45,64
106255,note_off,115,0,9,,,,,,,,7,,,,33,64
106260,note_on,5,0,14,,,,,,,,13,,,,33,30
106260,note_on,20,0,10,,,,,,,,8,,,,76,30
106260,note_on,20,0,11,,,,,,,,10,,,,74,30
106260,note_on,5,0,13,,,,,,,,12,,,,45,30
106260,note_on,5,0,7,,,,,,,,5,,,,57,30
106260,note_on,5,0,1,,,,,,,,0,,,,57,30
106260,note_on,5,0,12,,,,,,,,11,,,,57,30
106260,note_on,5,0,9,,,,,,,,7,,,,33,30
106260,note_on,5,0,15,,,,,,,,14,,,,33,30
106260,note_on,5,0,2,,,,,,,,0,,,,45,30
106260,note_on,5,0,8,,,,,,,,6,,,,45,30
106260,note_on,20,0,6,,,,,,,,4,,,,74,45
106260,note_on,20,0,5,,,,,,,,3,,,,76,45
106260,set_tempo,60,1,0,937500,,,,,,,,,,,,
106300,note_off,40,0,10,,,,,,,,8,,,,76,64
106300,note_off,40,0,5,,,,,,,,3,,,,76,64
106300,note_off,40,0,6,,,,,,,,4,,,,74,64
106300,note_off,40,0,11,,,,,,,,10,,,,74,64
106320,note_on,20,0,5,,,,,,,,3,,,,74,45
106320,note_on,20,0,6,,,,,,,,4,,,,69,45
106320,set_tempo,60,1,0,952380,,,,,,,,,,,,
106320,note_on,20,0,11,,,,,,,,10,,,,69,30
106320,note_on,20,0,10,,,,,,,,8,,,,74,30
106360,note_off,40,0,10,,,,,,,,8,,,,74,64
106360,note_off,40,0,5,,,,,,,,3,,,,74,64
106360,note_off,40,0,11,,,,,,,,10,,,,69,64
106360,note_off,40,0,6,,,,,,,,4,,,,69,64
106375,note_off,115,0,12,,,,,,,,11,,,,57,64
106375,note_off,115,0,14,,,,,,,,13,,,,33,64
106375,note_off,115,0,1,,,,,,,,0,,,,57,64
106375,note_off,115,0,9,,,,,,,,7,,,,33,64
106375,note_off,115,0,15,,,,,,,,14,,,,33,64
106375,note_off,115,0,8,,,,,,,,6,,,,45,64
106375,note_off,115,0,2,,,,,,,,0,,,,45,64
106375,note_off,115,0,13,,,,,,,,12,,,,45,64
106375,note_off,115,0,7,,,,,,,,5,,,,57,64
106380,note_on,20,0,10,,,,,,,,8,,,,76,30
106380,note_on,5,0,2,,,,,,,,0,,,,45,30
106380,note_on,5,0,9,,,,,,,,7,,,,33,30
106380,note_on,5,0,7,,,,,,,,5,,,,57,30
106380,note_on,20,0,6,,,,,,,,4,,,,74,45
106380,note_on,20,0,11,,,,,,,,10,,,,74,30
106380,note_on,20,0,5,,,,,,,,3,,,,76,45
106380,note_on,5,0,1,,,,,,,,0,,,,57,30
106380,set_tempo,60,1,0,967741,,,,,,,,,,,,
106380,note_on,5,0,15,,,,,,,,14,,,,33,30
106380,note_on,5,0,8,,,,,,,,6,,,,45,30
106380,note_on,5,0,14,,,,,,,,13,,,,33,30
106380,note_on,5,0,13,,,,,,,,12,,,,45,30
106380,note_on,5,0,12,,,,,,,,11,,,,57,30
106420,note_off,40,0,6,,,,,,,,4,,,,74,64
106420,note_off,40,0,10,,,,,,,,8,,,,76,64
106420,note_off,40,0,11,,,,,,,,10,,,,74,64
106420,note_off,40,0,5,,,,,,,,3,,,,76,64
106440,note_on,20,0,10,,,,,,,,8,,,,74,30
106440,note_on,20,0,11,,,,,,,,10,,,,69,30
106440,set_tempo,60,1,0,983606,,,,,,,,,,,,
106440,note_on,20,0,5,,,,,,,,3,,,,74,45
106440,note_on,20,0,6,,,,,,,,4,,,,69,45
106480,note_off,40,0,6,,,,,,,,4,,,,69,64
106480,note_off,40,0,10,,,,,,,,8,,,,74,64
106480,note_off,40,0,11,,,,,,,,10,,,,69,64
106480,note_off,40,0,5,,,,,,,,3,,,,74,64
106495,note_off,115,0,1,,,,,,,,0,,,,57,64
106495,note_off,115,0,12,,,,,,,,11,,,,57,64
106495,note_off,115,0,8,,,,,,,,6,,,,45,64
106495,note_off,115,0,15,,,,,,,,14,,,,33,64
106495,note_off,115,0,7,,,,,,,,5,,,,57,64
106495,note_off,115,0,13,,,,,,,,12,,,,45,64
106495,note_off,115,0,2,,,,,,,,0,,,,45,64
106495,note_off,115,0,9,,,,,,,,7,,,,33,64
106495,note_off,115,0,14,,,,,,,,13,,,,33,64
106500,note_on,20,0,5,,,,,,,,3,,,,76,45
106500,set_tempo,60,1,0,1000000,,,,,,,,,,,,
106500,note_on,5,0,15,,,,,,,,14,,,,33,30
106500,note_on,5,0,9,,,,,,,,7,,,,33,30
106500,note_on,20,0,11,,,,,,,,10,,,,73,30
106500,note_on,5,0,14,,,,,,,,13,,,,33,30
106500,note_on,5,0,1,,,,,,,,0,,,,57,30
106500,note_on,5,0,12,,,,,,,,11,,,,57,30
106500,note_on,5,0,7,,,,,,,,5,,,,57,30
106500,note_on,5,0,13,,,,,,,,12,,,,45,30
106500,note_on,20,0,6,,,,,,,,4,,,,73,45
106500,note_on,5,0,2,,,,,,,,0,,,,45,30
106500,note_on,20,0,10,,,,,,,,8,,,,76,30
106500,note_on,5,0,8,,,,,,,,6,,,,45,30
106540,note_off,40,0,10,,,,,,,,8,,,,76,64
106540,note_off,40,0,5,,,,,,,,3,,,,76,64
106540,note_off,40,0,11,,,,,,,,10,,,,73,64
106540,note_off,40,0,6,,,,,,,,4,,,,73,64
106560,note_on,20,0,6,,,,,,,,4,,,,69,45
106560,note_on,20,0,5,,,,,,,,3,,,,73,45
106560,note_on,20,0,11,,,,,,,,10,,,,69,30
106560,note_on,20,0,10,,,,,,,,8,,,,73,30
106560,set_tempo,60,1,0,1016949,,,,,,,,,,,,
106600,note_off,40,0,11,,,,,,,,10,,,,69,64
106600,note_off,40,0,6,,,,,,,,4,,,,69,64
106600,note_off,40,0,10,,,,,,,,8,,,,73,64
106600,note_off,40,0,5,,,,,,,,3,,,,73,64
106615,note_off,115,0,12,,,,,,,,11,,,,57,64
106615,note_off,115,0,7,,,,,,,,5,,,,57,64
106620,note_on,20,0,11,,,,,,,,10,,,,73,30
106620,note_on,5,0,7,,,,,,,,5,,,,69,30
106620,note_on,20,0,6,,,,,,,,4,,,,73,45
106620,note_on,20,0,10,,,,,,,,8,,,,76,30
106620,set_tempo,60,1,0,1034482,,,,,,,,,,,,
106620,note_on,5,0,12,,,,,,,,11,,,,69,30
106620,note_on,20,0,5,,,,,,,,3,,,,76,45
106660,note_off,40,0,6,,,,,,,,4,,,,73,64
106660,note_off,40,0,5,,,,,,,,3,,,,76,64
106660,note_off,40,0,10,,,,,,,,8,,,,76,64
106660,note_off,40,0,11,,,,,,,,10,,,,73,64
106680,note_on,20,0,11,,,,,,,,10,,,,69,30
106680,note_on,20,0,5,,,,,,,,3,,,,73,45
106680,note_on,20,0,10,,,,,,,,8,,,,73,30
106680,note_on,20,0,6,,,,,,,,4,,,,69,45
106680,set_tempo,60,1,0,1052631,,,,,,,,,,,,
106720,note_off,40,0,11,,,,,,,,10,,,,69,64
106720,note_off,40,0,6,,,,,,,,4,,,,69,64
106720,note_off,40,0,5,,,,,,,,3,,,,73,64
106720,note_off,40,0,10,,,,,,,,8,,,,73,64
106735,note_off,235,0,9,,,,,,,,7,,,,33,64
106735,note_off,115,0,7,,,,,,,,5,,,,69,64
106735,note_off,235,0,14,,,,,,,,13,,,,33,64
106735,note_off,235,0,13,,,,,,,,12,,,,45,64
106735,note_off,235,0,15,,,,,,,,14,,,,33,64
106735,note_off,235,0,1,,,,,,,,0,,,,57,64
106735,note_off,235,0,2,,,,,,,,0,,,,45,64
106735,note_off,115,0,12,,,,,,,,11,,,,69,64
106735,note_off,235,0,8,,,,,,,,6,,,,45,64
106740,note_on,5,0,2,,,,,,,,0,,,,49,30
106740,note_on,5,0,15,,,,,,,,14,,,,37,30
106740,note_on,5,0,12,,,,,,,,11,,,,61,30
106740,note_on,20,0,6,,,,,,,,4,,,,73,45
106740,note_on,5,0,7,,,,,,,,5,,,,61,30
106740,note_on,20,0,11,,,,,,,,10,,,,73,30
106740,note_on,20,0,10,,,,,,,,8,,,,76,30
106740,note_on,5,0,13,,,,,,,,12,,,,49,30
106740,set_tempo,60,1,0,1071428,,,,,,,,,,,,
106740,note_on,5,0,8,,,,,,,,6,,,,49,30
106740,note_on,5,0,1,,,,,,,,0,,,,61,30
106740,note_on,5,0,9,,,,,,,,7,,,,37,30
106740,note_on,5,0,14,,,,,,,,13,,,,37,30
106740,note_on,20,0,5,,,,,,,,3,,,,76,45
106780,note_off,40,0,10,,,,,,,,8,,,,76,64
106780,note_off,40,0,6,,,,,,,,4,,,,73,64
106780,note_off,40,0,11,,,,,,,,10,,,,73,64
106780,note_off,40,0,5,,,,,,,,3,,,,76,64
106800,note_on,20,0,10,,,,,,,,8,,,,73,30
106800,note_on,20,0,6,,,,,,,,4,,,,69,45
106800,set_tempo,60,1,0,1090909,,,,,,,,,,,,
106800,note_on,20,0,5,,,,,,,,3,,,,73,45
106800,note_on,20,0,11,,,,,,,,10,,,,69,30
106840,note_off,40,0,6,,,,,,,,4,,,,69,64
106840,note_off,40,0,11,,,,,,,,10,,,,69,64
106840,note_off,40,0,5,,,,,,,,3,,,,73,64
106840,note_off,40,0,10,,,,,,,,8,,,,73,64
106855,note_off,115,0,8,,,,,,,,6,,,,49,64
106855,note_off,115,0,13,,,,,,,,12,,,,49,64
106855,note_off,115,0,2,,,,,,,,0,,,,49,64
106855,note_off,115,0,14,,,,,,,,13,,,,37,64
106855,note_off,115,0,1,,,,,,,,0,,,,61,64
106855,note_off,115,0,15,,,,,,,,14,,,,37,64
106855,note_off,115,0,9,,,,,,,,7,,,,37,64
106855,note_off,115,0,7,,,,,,,,5,,,,61,64
106855,note_off,115,0,12,,,,,,,,11,,,,61,64
106860,note_on,5,0,2,,,,,,,,0,,,,45,30
106860,note_on,20,0,10,,,,,,,,8,,,,76,30
106860,note_on,5,0,9,,,,,,,,7,,,,33,30
106860,note_on,5,0,13,,,,,,,,12,,,,45,30
106860,note_on,5,0,7,,,,,,,,5,,,,57,30
106860,note_on,5,0,12,,,,,,,,11,,,,57,30
106860,note_on,5,0,14,,,,,,,,13,,,,33,30
106860,note_on,5,0,15,,,,,,,,14,,,,33,30
106860,note_on,5,0,1,,,,,,,,0,,,,57,30
106860,note_on,5,0,8,,,,,,,,6,,,,45,30
106860,note_on,20,0,5,,,,,,,,3,,,,76,45
106860,note_on,20,0,11,,,,,,,,10,,,,73,30
106860,note_on,20,0,6,,,,,,,,4,,,,73,45
106860,set_tempo,60,1,0,1111111,,,,,,,,,,,,
106900,note_off,40,0,5,,,,,,,,3,,,,76,64
106900,note_off,40,0,11,,,,,,,,10,,,,73,64
106900,note_off,40,0,6,,,,,,,,4,,,,73,64
106900,note_off,40,0,10,,,,,,,,8,,,,76,64
106920,set_tempo,60,1,0,1132075,,,,,,,,,,,,
106920,note_on,20,0,5,,,,,,,,3,,,,73,45
106920,note_on,20,0,6,,,,,,,,4,,,,69,45
106920,note_on,20,0,10,,,,,,,,8,,,,73,30
106920,note_on,20,0,11,,,,,,,,10,,,,69,30
106960,note_off,40,0,11,,,,,,,,10,,,,69,64
106960,note_off,40,0,5,,,,,,,,3,,,,73,64
106960,note_off,40,0,10,,,,,,,,8,,,,73,64
106960,note_off,40,0,6,,,,,,,,4,,,,69,64
106975,note_off,115,0,2,,,,,,,,0,,,,45,64
106975,note_off,115,0,8,,,,,,,,6,,,,45,64
106975,note_off,115,0,1,,,,,,,,0,,,,57,64
106975,note_off,115,0,9,,,,,,,,7,,,,33,64
106975,note_off,115,0,13,,,,,,,,12,,,,45,64
106975,note_off,115,0,15,,,,,,,,14,,,,33,64
106975,note_off,115,0,7,,,,,,,,5,,,,57,64
106975,note_off,115,0,14,,,,,,,,13,,,,33,64
106975,note_off,115,0,12,,,,,,,,11,,,,57,64
106980,note_on,20,0,5,,,,,,,,3,,,,76,45
106980,note_on,5,0,15,,,,,,,,14,,,,33,30
106980,note_on,20,0,6,,,,,,,,4,,,,73,45
106980,note_on,5,0,9,,,,,,,,7,,,,33,30
106980,note_on,5,0,1,,,,,,,,0,,,,57,30
106980,note_on,5,0,13,,,,,,,,12,,,,45,30
106980,note_on,5,0,12,,,,,,,,11,,,,57,30
106980,set_tempo,60,1,0,1153846,,,,,,,,,,,,
106980,note_on,5,0,8,,,,,,,,6,,,,45,30
106980,note_on,5,0,2,,,,,,,,0,,,,45,30
106980,note_on,5,0,14,,,,,,,,13,,,,33,30
106980,note_on,20,0,10,,,,,,,,8,,,,76,30
106980,note_on,5,0,7,,,,,,,,5,,,,57,30
106980,note_on,20,0,11,,,,,,,,10,,,,73,30
107020,note_off,40,0,5,,,,,,,,3,,,,76,64
107020,note_off,40,0,10,,,,,,,,8,,,,76,64
107020,note_off,40,0,6,,,,,,,,4,,,,73,64
107020,note_off,40,0,11,,,,,,,,10,,,,73,64
107040,note_on,20,0,5,,,,,,,,3,,,,73,45
107040,note_on,20,0,6,,,,,,,,4,,,,69,45
107040,note_on,20,0,11,,,,,,,,10,,,,69,30
107040,note_on,20,0,10,,,,,,,,8,,,,73,30
107040,set_tempo,60,1,0,1176470,,,,,,,,,,,,
107080,note_off,40,0,6,,,,,,,,4,,,,69,64
107080,note_off,40,0,10,,,,,,,,8,,,,73,64
107080,note_off,40,0,11,,,,,,,,10,,,,69,64
107080,note_off,40,0,5,,,,,,,,3,,,,73,64
107095,note_off,115,0,14,,,,,,,,13,,,,33,64
107095,note_off,115,0,1,,,,,,,,0,,,,57,64
107095,note_off,115,0,7,,,,,,,,5,,,,57,64
107095,note_off,115,0,12,,,,,,,,11,,,,57,64
107095,note_off,115,0,15,,,,,,,,14,,,,33,64
107095,note_off,115,0,2,,,,,,,,0,,,,45,64
107095,note_off,115,0,9,,,,,,,,7,,,,33,64
107095,note_off,115,0,8,,,,,,,,6,,,,45,64
107095,note_off,115,0,13,,,,,,,,12,,,,45,64
107100,note_on,5,0,15,,,,,,,,14,,,,33,30
107100,note_on,5,0,13,,,,,,,,12,,,,45,30
107100,note_on,20,0,10,,,,,,,,8,,,,76,30
107100,note_on,5,0,7,,,,,,,,5,,,,57,30
107100,note_on,20,0,6,,,,,,,,4,,,,73,45
107100,note_on,5,0,2,,,,,,,,0,,,,45,30
107100,note_on,5,0,1,,,,,,,,0,,,,57,30
107100,note_on,5,0,12,,,,,,,,11,,,,57,30
107100,note_on,5,0,8,,,,,,,,6,,,,45,30
107100,note_on,5,0,9,,,,,,,,7,,,,33,30
107100,note_on,20,0,5,,,,,,,,3,,,,76,45
107100,set_tempo,60,1,0,1276595,,,,,,,,,,,,
107100,note_on,5,0,14,,,,,,,,13,,,,33,30
107100,note_on,20,0,11,,,,,,,,10,,,,73,30
107140,note_off,40,0,6,,,,,,,,4,,,,73,64
107140,note_off,40,0,10,,,,,,,,8,,,,76,64
107140,note_off,40,0,5,,,,,,,,3,,,,76,64
107140,note_off,40,0,11,,,,,,,,10,,,,73,64
107160,note_on,20,0,11,,,,,,,,10,,,,69,30
107160,note_on,20,0,5,,,,,,,,3,,,,73,45
107160,note_on,20,0,6,,,,,,,,4,,,,69,45
107160,set_tempo,60,1,0,1395348,,,,,,,,,,,,
107160,note_on,20,0,10,,,,,,,,8,,,,73,30
107200,note_off,40,0,11,,,,,,,,10,,,,69,64
107200,note_off,40,0,10,,,,,,,,8,,,,73,64
107200,note_off,40,0,6,,,,,,,,4,,,,69,64
107200,note_off,40,0,5,,,,,,,,3,,,,73,64
107215,note_off,115,0,13,,,,,,,,12,,,,45,64
107215,note_off,115,0,8,,,,,,,,6,,,,45,64
107215,note_off,115,0,2,,,,,,,,0,,,,45,64
107215,note_off,115,0,12,,,,,,,,11,,,,57,64
107215,note_off,115,0,7,,,,,,,,5,,,,57,64
107215,note_off,115,0,15,,,,,,,,14,,,,33,64
107215,note_off,115,0,14,,,,,,,,13,,,,33,64
107215,note_off,115,0,9,,,,,,,,7,,,,33,64
107215,note_off,115,0,1,,,,,,,,0,,,,57,64
107220,note_on,5,0,8,,,,,,,,6,,,,38,30
107220,note_on,5,0,2,,,,,,,,0,,,,38,30
107220,note_on,5,0,12,,,,,,,,11,,,,57,30
107220,note_on,5,0,14,,,,,,,,13,,,,26,30
107220,note_on,5,0,9,,,,,,,,7,,,,26,30
107220,note_on,20,0,11,,,,,,,,10,,,,65,30
107220,note_on,5,0,15,,,,,,,,14,,,,26,30
107220,note_on,5,0,7,,,,,,,,5,,,,57,30
107220,note_on,5,0,13,,,,,,,,12,,,,38,30
107220,note_on,20,0,5,,,,,,,,3,,,,74,45
107220,set_tempo,60,1,0,1500000,,,,,,,,,,,,
107220,note_on,20,0,10,,,,,,,,8,,,,74,30
107220,note_on,20,0,6,,,,,,,,4,,,,65,45
107455,note_off,235,0,15,,,,,,,,14,,,,26,64
107460,note_off,240,0,6,,,,,,,,4,,,,65,64
107460,note_off,240,0,8,,,,,,,,6,,,,38,64
107460,note_off,240,0,13,,,,,,,,12,,,,38,64
107460,note_off,240,0,7,,,,,,,,5,,,,57,64
107460,note_off,240,0,2,,,,,,,,0,,,,38,64
107460,note_off,240,0,12,,,,,,,,11,,,,57,64
107460,note_off,240,0,14,,,,,,,,13,,,,26,64
107460,note_off,240,0,11,,,,,,,,10,,,,65,64
107460,note_off,240,0,10,,,,,,,,8,,,,74,64
107460,note_off,240,0,9,,,,,,,,7,,,,26,64
107460,note_off,240,0,5,,,,,,,,3,,,,74,64
107520,note_on,60,0,6,,,,,,,,4,,,,74,45
107520,note_on,60,0,11,,,,,,,,10,,,,74,30
107520,note_on,60,0,10,,,,,,,,8,,,,77,30
107520,note_on,65,0,15,,,,,,,,14,,,,38,30
107520,note_on,60,0,14,,,,,,,,13,,,,38,30
107520,note_on,60,0,5,,,,,,,,3,,,,77,45
107520,note_on,60,0,8,,,,,,,,6,,,,50,30
107520,note_on,60,0,9,,,,,,,,7,,,,38,30
107520,note_on,60,0,13,,,,,,,,12,,,,50,30
107520,note_on,60,0,7,,,,,,,,5,,,,69,30
107520,note_on,60,0,2,,,,,,,,0,,,,50,30
107520,note_on,60,0,12,,,,,,,,11,,,,69,30
107755,note_off,235,0,15,,,,,,,,14,,,,38,64
107760,note_on,0,0,14,,,,,,,,13,,,,33,32
107760,note_off,240,0,5,,,,,,,,3,,,,77,64
107760,note_on,0,0,5,,,,,,,,3,,,,76,47
107760,note_on,0,0,13,,,,,,,,12,,,,45,32
107760,note_off,240,0,13,,,,,,,,12,,,,50,64
107760,note_off,240,0,11,,,,,,,,10,,,,74,64
107760,note_on,0,0,11,,,,,,,,10,,,,73,32
107760,note_on,0,0,6,,,,,,,,4,,,,73,47
107760,note_off,240,0,6,,,,,,,,4,,,,74,64
107760,note_on,0,0,12,,,,,,,,11,,,,69,32
107760,note_off,240,0,10,,,,,,,,8,,,,77,64
107760,note_on,0,0,10,,,,,,,,8,,,,76,32
107760,note_on,0,0,8,,,,,,,,6,,,,45,32
107760,note_off,240,0,12,,,,,,,,11,,,,69,64
107760,note_off,240,0,14,,,,,,,,13,,,,38,64
107760,note_on,0,0,7,,,,,,,,5,,,,69,32
107760,note_off,240,0,8,,,,,,,,6,,,,50,64
107760,note_off,240,0,7,,,,,,,,5,,,,69,64
107760,note_on,5,0,15,,,,,,,,14,,,,33,32
107760,note_off,240,0,2,,,,,,,,0,,,,50,64
107760,note_on,0,0,2,,,,,,,,0,,,,45,32
107760,note_on,0,0,9,,,,,,,,7,,,,33,32
107760,note_off,240,0,9,,,,,,,,7,,,,38,64
107995,note_off,235,0,15,,,,,,,,14,,,,33,64
108000,note_off,240,0,2,,,,,,,,0,,,,45,64
108000,note_off,240,0,13,,,,,,,,12,,,,45,64
108000,note_off,240,0,9,,,,,,,,7,,,,33,64
108000,note_off,240,0,7,,,,,,,,5,,,,69,64
108000,note_off,240,0,6,,,,,,,,4,,,,73,64
108000,note_off,240,0,8,,,,,,,,6,,,,45,64
108000,note_off,240,0,12,,,,,,,,11,,,,69,64
108000,note_off,240,0,5,,,,,,,,3,,,,76,64
108000,note_off,240,0,14,,,,,,,,13,,,,33,64
108000,note_off,240,0,11,,,,,,,,10,,,,73,64
108000,note_off,240,0,10,,,,,,,,8,,,,76,64
108240,note_on,240,0,2,,,,,,,,0,,,,45,36
108240,note_on,240,0,10,,,,,,,,8,,,,79,36
108240,note_on,240,0,12,,,,,,,,11,,,,61,36
108240,note_on,240,0,6,,,,,,,,4,,,,76,51
108240,note_on,240,0,7,,,,,,,,5,,,,61,36
108240,note_on,240,0,5,,,,,,,,3,,,,79,51
108240,note_on,240,0,11,,,,,,,,10,,,,76,36
108240,note_on,240,0,14,,,,,,,,13,,,,33,36
108240,note_on,240,0,8,,,,,,,,6,,,,45,36
108240,note_on,240,0,13,,,,,,,,12,,,,45,36
108240,note_on,245,0,15,,,,,,,,14,,,,33,36
108240,note_on,240,0,9,,,,,,,,7,,,,33,36
108475,note_off,235,0,15,,,,,,,,14,,,,33,64
108480,note_on,0,0,12,,,,,,,,11,,,,57,39
108480,note_off,240,0,14,,,,,,,,13,,,,33,64
108480,note_off,240,0,13,,,,,,,,12,,,,45,64
108480,note_on,0,0,2,,,,,,,,0,,,,50,39
108480,note_on,0,0,11,,,,,,,,10,,,,74,39
108480,note_off,240,0,11,,,,,,,,10,,,,76,64
108480,note_off,240,0,2,,,,,,,,0,,,,45,64
108480,note_on,0,0,14,,,,,,,,13,,,,38,39
108480,note_off,240,0,7,,,,,,,,5,,,,61,64
108480,note_on,5,0,15,,,,,,,,14,,,,38,39
108480,note_on,0,0,10,,,,,,,,8,,,,77,39
108480,note_on,0,0,13,,,,,,,,12,,,,50,39
108480,note_off,240,0,6,,,,,,,,4,,,,76,64
108480,note_on,0,0,7,,,,,,,,5,,,,57,39
108480,note_on,0,0,5,,,,,,,,3,,,,77,54
108480,note_on,0,0,8,,,,,,,,6,,,,50,39
108480,note_off,240,0,5,,,,,,,,3,,,,79,64
108480,note_off,240,0,10,,,,,,,,8,,,,79,64
108480,note_on,0,0,6,,,,,,,,4,,,,74,54
108480,note_on,0,0,9,,,,,,,,7,,,,38,39
108480,note_off,240,0,12,,,,,,,,11,,,,61,64
108480,note_off,240,0,9,,,,,,,,7,,,,33,64
108480,note_off,240,0,8,,,,,,,,6,,,,45,64
108715,note_off,235,0,15,,,,,,,,14,,,,38,64
108720,note_off,240,0,9,,,,,,,,7,,,,38,64
108720,note_off,240,0,14,,,,,,,,13,,,,38,64
108720,note_off,240,0,5,,,,,,,,3,,,,77,64
108720,note_off,240,0,12,,,,,,,,11,,,,57,64
108720,note_off,240,0,11,,,,,,,,10,,,,74,64
108720,note_off,240,0,6,,,,,,,,4,,,,74,64
108720,note_off,240,0,7,,,,,,,,5,,,,57,64
108720,note_off,240,0,8,,,,,,,,6,,,,50,64
108720,note_off,240,0,13,,,,,,,,12,,,,50,64
108720,note_off,240,0,10,,,,,,,,8,,,,77,64
108720,note_off,240,0,2,,,,,,,,0,,,,50,64
108960,note_on,240,0,7,,,,,,,,5,,,,58,45
108960,note_on,240,0,12,,,,,,,,11,,,,58,45
108960,note_on,245,0,15,,,,,,,,14,,,,43,45
108960,note_on,240,0,5,,,,,,,,3,,,,79,60
108960,note_on,240,0,10,,,,,,,,8,,,,79,45
108960,note_on,240,0,14,,,,,,,,13,,,,43,45
108960,note_on,240,0,9,,,,,,,,7,,,,43,45
108960,note_on,240,0,6,,,,,,,,4,,,,70,60
108960,note_on,240,0,13,,,,,,,,12,,,,55,45
108960,note_on,240,0,8,,,,,,,,6,,,,55,45
108960,note_on,240,0,11,,,,,,,,10,,,,70,45
108960,set_tempo,1740,1,0,1875000,,,,,,,,,,,,
108960,note_on,240,0,2,,,,,,,,0,,,,55,45
109080,note_on,0,0,5,,,,,,,,3,,,,81,60
109080,note_on,0,0,6,,,,,,,,4,,,,72,60
109080,note_off,120,0,5,,,,,,,,3,,,,79,64
109080,note_off,120,0,6,,,,,,,,4,,,,70,64
109080,note_off,120,0,10,,,,,,,,8,,,,79,64
109080,note_off,120,0,11,,,,,,,,10,,,,70,64
109080,note_on,0,0,11,,,,,,,,10,,,,72,45
109080,note_on,0,0,10,,,,,,,,8,,,,81,45
109195,note_off,235,0,15,,,,,,,,14,,,,43,64
109195,note_off,115,0,10,,,,,,,,8,,,,81,64
109195,note_off,115,0,6,,,,,,,,4,,,,72,64
109195,note_off,115,0,11,,,,,,,,10,,,,72,64
109195,note_off,115,0,5,,,,,,,,3,,,,81,64
109200,note_on,0,0,7,,,,,,,,5,,,,58,45
109200,note_on,0,0,12,,,,,,,,11,,,,58,45
109200,note_off,240,0,13,,,,,,,,12,,,,55,64
109200,note_on,0,0,13,,,,,,,,12,,,,43,45
109200,note_on,5,0,15,,,,,,,,14,,,,31,45
109200,note_on,0,0,9,,,,,,,,7,,,,31,45
109200,note_off,240,0,9,,,,,,,,7,,,,43,64
109200,note_off,240,0,8,,,,,,,,6,,,,55,64
109200,note_on,0,0,8,,,,,,,,6,,,,43,45
109200,note_on,5,0,6,,,,,,,,4,,,,74,60
109200,note_off,240,0,12,,,,,,,,11,,,,58,64
109200,note_on,5,0,5,,,,,,,,3,,,,82,60
109200,set_tempo,240,1,0,1578947,,,,,,,,,,,,
109200,note_off,240,0,2,,,,,,,,0,,,,55,64
109200,note_on,0,0,2,,,,,,,,0,,,,43,45
109200,note_on,5,0,10,,,,,,,,8,,,,82,45
109200,note_on,5,0,11,,,,,,,,10,,,,74,45
109200,note_on,0,0,14,,,,,,,,13,,,,31,45
109200,note_off,240,0,14,,,,,,,,13,,,,43,64
109200,note_off,240,0,7,,,,,,,,5,,,,58,64
109435,note_off,235,0,15,,,,,,,,14,,,,31,64
109440,set_tempo,240,1,0,1500000,,,,,,,,,,,,
109440,note_off,240,0,6,,,,,,,,4,,,,74,64
109440,note_off,240,0,10,,,,,,,,8,,,,82,64
109440,note_off,240,0,11,,,,,,,,10,,,,74,64
109440,note_off,240,0,9,,,,,,,,7,,,,31,64
109440,note_off,240,0,14,,,,,,,,13,,,,31,64
109440,note_off,240,0,5,,,,,,,,3,,,,82,64
109440,note_off,240,0,8,,,,,,,,6,,,,43,64
109440,note_off,240,0,2,,,,,,,,0,,,,43,64
109440,note_off,240,0,13,,,,,,,,12,,,,43,64
109440,note_off,240,0,7,,,,,,,,5,,,,58,64
109440,note_off,240,0,12,,,,,,,,11,,,,58,64
109680,note_on,240,0,9,,,,,,,,7,,,,43,42
109680,note_on,240,0,2,,,,,,,,0,,,,55,44
109680,note_on,240,0,14,,,,,,,,13,,,,43,42
109680,note_on,240,0,10,,,,,,,,8,,,,75,42
109680,note_on,240,0,6,,,,,,,,4,,,,67,57
109680,note_on,240,0,8,,,,,,,,6,,,,55,45
109680,note_on,240,0,12,,,,,,,,11,,,,58,42
109680,note_on,240,0,7,,,,,,,,5,,,,58,42
109680,note_on,245,0,15,,,,,,,,14,,,,43,42
109680,note_on,240,0,11,,,,,,,,10,,,,67,42
109680,note_on,240,0,5,,,,,,,,3,,,,75,57
109680,note_on,240,0,13,,,,,,,,12,,,,55,44
109800,note_off,120,0,6,,,,,,,,4,,,,67,64
109800,note_on,0,0,5,,,,,,,,3,,,,77,56
109800,note_off,120,0,5,,,,,,,,3,,,,75,64
109800,note_off,120,0,11,,,,,,,,10,,,,67,64
109800,note_on,0,0,10,,,,,,,,8,,,,77,40
109800,note_off,120,0,10,,,,,,,,8,,,,75,64
109800,note_on,0,0,11,,,,,,,,10,,,,69,40
109800,note_on,0,0,6,,,,,,,,4,,,,69,56
109915,note_off,115,0,11,,,,,,,,10,,,,69,64
109915,note_off,115,0,5,,,,,,,,3,,,,77,64
109915,note_off,115,0,6,,,,,,,,4,,,,69,64
109915,note_off,115,0,10,,,,,,,,8,,,,77,64
109915,note_off,235,0,15,,,,,,,,14,,,,43,64
109920,note_on,0,0,12,,,,,,,,11,,,,58,38
109920,note_off,240,0,2,,,,,,,,0,,,,55,64
109920,note_on,0,0,2,,,,,,,,0,,,,43,43
109920,note_on,5,0,10,,,,,,,,8,,,,79,38
109920,note_off,240,0,12,,,,,,,,11,,,,58,64
109920,note_on,5,0,5,,,,,,,,3,,,,79,55
109920,note_on,0,0,7,,,,,,,,5,,,,58,38
109920,note_off,240,0,13,,,,,,,,12,,,,55,64
109920,note_on,0,0,13,,,,,,,,12,,,,43,43
109920,note_on,5,0,15,,,,,,,,14,,,,31,38
109920,note_on,0,0,9,,,,,,,,7,,,,31,38
109920,note_off,240,0,7,,,,,,,,5,,,,58,64
109920,note_off,240,0,8,,,,,,,,6,,,,55,64
109920,note_on,0,0,8,,,,,,,,6,,,,43,45
109920,note_off,240,0,9,,,,,,,,7,,,,43,64
109920,note_on,5,0,6,,,,,,,,4,,,,70,55
109920,note_off,240,0,14,,,,,,,,13,,,,43,64
109920,note_on,0,0,14,,,,,,,,13,,,,31,38
109920,note_on,5,0,11,,,,,,,,10,,,,70,38
110155,note_off,235,0,15,,,,,,,,14,,,,31,64
110160,note_off,240,0,6,,,,,,,,4,,,,70,64
110160,note_off,240,0,2,,,,,,,,0,,,,43,64
110160,note_off,240,0,9,,,,,,,,7,,,,31,64
110160,note_off,240,0,13,,,,,,,,12,,,,43,64
110160,note_off,240,0,14,,,,,,,,13,,,,31,64
110160,note_off,240,0,7,,,,,,,,5,,,,58,64
110160,note_off,240,0,8,,,,,,,,6,,,,43,64
110160,note_off,240,0,11,,,,,,,,10,,,,70,64
110160,note_off,240,0,5,,,,,,,,3,,,,79,64
110160,note_off,240,0,10,,,,,,,,8,,,,79,64
110160,note_off,240,0,12,,,,,,,,11,,,,58,64
110400,note_on,240,0,7,,,,,,,,5,,,,57,30
110400,note_on,240,0,5,,,,,,,,3,,,,74,49
110400,note_on,240,0,10,,,,,,,,8,,,,74,30
110400,note_on,240,0,12,,,,,,,,11,,,,57,30
110400,note_on,240,0,8,,,,,,,,6,,,,62,45
110400,note_on,240,0,13,,,,,,,,12,,,,62,40
110400,note_on,240,0,11,,,,,,,,10,,,,65,30
110400,set_tempo,960,1,0,1578947,,,,,,,,,,,,
110400,note_on,240,0,14,,,,,,,,13,,,,50,30
110400,note_on,245,0,15,,,,,,,,14,,,,50,30
110400,note_on,240,0,6,,,,,,,,4,,,,65,49
110400,note_on,240,0,9,,,,,,,,7,,,,50,30
110400,note_on,240,0,2,,,,,,,,0,,,,62,40
110520,note_on,0,0,11,,,,,,,,10,,,,67,28
110520,note_off,120,0,11,,,,,,,,10,,,,65,64
110520,note_on,0,0,10,,,,,,,,8,,,,76,28
110520,note_off,120,0,10,,,,,,,,8,,,,74,64
110520,note_off,120,0,6,,,,,,,,4,,,,65,64
110520,note_off,120,0,5,,,,,,,,3,,,,74,64
110520,note_on,0,0,5,,,,,,,,3,,,,76,48
110520,note_on,0,0,6,,,,,,,,4,,,,67,48
110635,note_off,115,0,10,,,,,,,,8,,,,76,64
110635,note_off,235,0,15,,,,,,,,14,,,,50,64
110635,note_off,115,0,6,,,,,,,,4,,,,67,64
110635,note_off,115,0,5,,,,,,,,3,,,,76,64
110635,note_off,115,0,11,,,,,,,,10,,,,67,64
110640,note_on,0,0,14,,,,,,,,13,,,,38,26
110640,note_on,5,0,5,,,,,,,,3,,,,77,46
110640,note_off,240,0,8,,,,,,,,6,,,,62,64
110640,note_on,5,0,6,,,,,,,,4,,,,69,46
110640,note_on,0,0,8,,,,,,,,6,,,,50,45
110640,note_off,240,0,14,,,,,,,,13,,,,50,64
110640,set_tempo,240,1,0,1621621,,,,,,,,,,,,
110640,note_on,5,0,11,,,,,,,,10,,,,69,26
110640,note_off,240,0,7,,,,,,,,5,,,,57,64
110640,note_on,5,0,10,,,,,,,,8,,,,77,26
110640,note_on,0,0,7,,,,,,,,5,,,,57,26
110640,note_on,5,0,15,,,,,,,,14,,,,38,26
110640,note_off,240,0,12,,,,,,,,11,,,,57,64
110640,note_on,0,0,2,,,,,,,,0,,,,50,38
110640,note_on,0,0,9,,,,,,,,7,,,,38,26
110640,note_off,240,0,2,,,,,,,,0,,,,62,64
110640,note_off,240,0,9,,,,,,,,7,,,,50,64
110640,note_on,0,0,13,,,,,,,,12,,,,50,38
110640,note_on,0,0,12,,,,,,,,11,,,,57,26
110640,note_off,240,0,13,,,,,,,,12,,,,62,64
110875,note_off,235,0,15,,,,,,,,14,,,,38,64
110880,note_off,240,0,5,,,,,,,,3,,,,77,64
110880,note_off,240,0,2,,,,,,,,0,,,,50,64
110880,note_off,240,0,6,,,,,,,,4,,,,69,64
110880,note_off,240,0,11,,,,,,,,10,,,,69,64
110880,note_off,240,0,12,,,,,,,,11,,,,57,64
110880,note_off,240,0,14,,,,,,,,13,,,,38,64
110880,note_off,240,0,13,,,,,,,,12,,,,50,64
110880,note_off,240,0,7,,,,,,,,5,,,,57,64
110880,note_off,240,0,9,,,,,,,,7,,,,38,64
110880,note_off,240,0,10,,,,,,,,8,,,,77,64
110880,note_off,240,0,8,,,,,,,,6,,,,50,64
111120,note_on,240,0,7,,,,,,,,5,,,,57,18
111120,note_on,240,0,9,,,,,,,,7,,,,45,18
111120,note_on,245,0,15,,,,,,,,14,,,,45,18
111120,note_on,240,0,8,,,,,,,,6,,,,57,45
111120,note_on,240,0,2,,,,,,,,0,,,,57,34
111120,note_on,240,0,11,,,,,,,,10,,,,64,18
111120,note_on,240,0,6,,,,,,,,4,,,,64,38
111120,note_on,240,0,10,,,,,,,,8,,,,73,18
111120,note_on,240,0,12,,,,,,,,11,,,,57,18
111120,set_tempo,480,1,0,1714285,,,,,,,,,,,,
111120,note_on,240,0,14,,,,,,,,13,,,,45,18
111120,note_on,240,0,13,,,,,,,,12,,,,57,34
111120,note_on,240,0,5,,,,,,,,3,,,,73,38
111240,note_on,0,0,6,,,,,,,,4,,,,65,36
111240,note_off,120,0,11,,,,,,,,10,,,,64,64
111240,note_on,0,0,10,,,,,,,,8,,,,74,16
111240,note_off,120,0,10,,,,,,,,8,,,,73,64
111240,note_off,120,0,6,,,,,,,,4,,,,64,64
111240,note_off,120,0,5,,,,,,,,3,,,,73,64
111240,note_on,0,0,11,,,,,,,,10,,,,65,16
111240,note_on,0,0,5,,,,,,,,3,,,,74,36
111355,note_off,115,0,5,,,,,,,,3,,,,74,64
111355,note_off,115,0,10,,,,,,,,8,,,,74,64
111355,note_off,115,0,11,,,,,,,,10,,,,65,64
111355,note_off,235,0,15,,,,,,,,14,,,,45,64
111355,note_off,115,0,6,,,,,,,,4,,,,65,64
111360,note_off,240,0,8,,,,,,,,6,,,,57,64
111360,set_tempo,240,1,0,1818181,,,,,,,,,,,,
111360,note_on,0,0,8,,,,,,,,6,,,,45,45
111360,note_off,240,0,7,,,,,,,,5,,,,57,64
111360,note_on,5,0,10,,,,,,,,8,,,,76,14
111360,note_on,5,0,6,,,,,,,,4,,,,67,34
111360,note_on,5,0,11,,,,,,,,10,,,,67,14
111360,note_off,240,0,12,,,,,,,,11,,,,57,64
111360,note_on,0,0,12,,,,,,,,11,,,,57,14
111360,note_on,0,0,2,,,,,,,,0,,,,45,32
111360,note_off,240,0,2,,,,,,,,0,,,,57,64
111360,note_on,5,0,5,,,,,,,,3,,,,76,34
111360,note_off,240,0,9,,,,,,,,7,,,,45,64
111360,note_off,240,0,13,,,,,,,,12,,,,57,64
111360,note_on,0,0,9,,,,,,,,7,,,,33,14
111360,note_on,0,0,13,,,,,,,,12,,,,45,32
111360,note_on,0,0,14,,,,,,,,13,,,,33,14
111360,note_off,240,0,14,,,,,,,,13,,,,45,64
111360,note_on,0,0,7,,,,,,,,5,,,,57,14
111360,note_on,5,0,15,,,,,,,,14,,,,33,14
111595,note_off,235,0,15,,,,,,,,14,,,,33,64
111600,note_on,0,0,5,,,,,,,,3,,,,74,30
111600,note_on,0,0,8,,,,,,,,6,,,,50,45
111600,note_on,0,0,9,,,,,,,,7,,,,38,10
111600,note_off,240,0,9,,,,,,,,7,,,,33,64
111600,note_off,240,0,8,,,,,,,,6,,,,45,64
111600,note_off,240,0,5,,,,,,,,3,,,,76,64
111600,note_off,240,0,13,,,,,,,,12,,,,45,64
111600,note_on,0,0,13,,,,,,,,12,,,,50,30
111600,note_on,0,0,7,,,,,,,,5,,,,57,10
111600,note_off,240,0,7,,,,,,,,5,,,,57,64
111600,note_on,5,0,15,,,,,,,,14,,,,38,10
111600,note_on,28385,0,4,,,,,,,,2,,,,74,30
111600,note_on,0,0,11,,,,,,,,10,,,,65,10
111600,note_on,0,0,6,,,,,,,,4,,,,65,30
111600,note_off,240,0,11,,,,,,,,10,,,,67,64
111600,note_off,240,0,12,,,,,,,,11,,,,57,64
111600,note_on,0,0,12,,,,,,,,11,,,,57,10
111600,note_off,240,0,2,,,,,,,,0,,,,45,64
111600,note_on,0,0,14,,,,,,,,13,,,,38,10
111600,note_off,240,0,14,,,,,,,,13,,,,33,64
111600,note_off,240,0,10,,,,,,,,8,,,,76,64
111600,note_off,240,0,6,,,,,,,,4,,,,67,64
111600,note_on,28385,0,3,,,,,,,,1,,,,74,45
111600,note_on,0,0,10,,,,,,,,8,,,,74,10
111600,set_tempo,240,1,0,1500000,,,,,,,,,,,,
111720,note_on,0,0,3,,,,,,,,1,,,,77,45
111720,note_on,0,0,4,,,,,,,,2,,,,77,30
111720,note_off,120,0,4,,,,,,,,2,,,,74,64
111720,note_off,120,0,3,,,,,,,,1,,,,74,64
111840,note_on,0,0,4,,,,,,,,2,,,,76,32
111840,note_off,120,0,4,,,,,,,,2,,,,77,64
111840,note_off,120,0,3,,,,,,,,1,,,,77,64
111840,note_on,0,0,3,,,,,,,,1,,,,76,47
111960,note_on,0,0,3,,,,,,,,1,,,,79,49
111960,note_off,120,0,3,,,,,,,,1,,,,76,64
111960,note_off,120,0,4,,,,,,,,2,,,,76,64
111960,note_on,0,0,4,,,,,,,,2,,,,79,34
112080,note_off,120,0,4,,,,,,,,2,,,,79,64
112080,note_off,480,0,5,,,,,,,,3,,,,74,64
112080,note_on,0,0,3,,,,,,,,1,,,,77,51
112080,note_off,480,0,10,,,,,,,,8,,,,74,64
112080,note_off,480,0,7,,,,,,,,5,,,,57,64
112080,note_off,480,0,11,,,,,,,,10,,,,65,64
112080,note_off,480,0,12,,,,,,,,11,,,,57,64
112080,note_off,480,0,6,,,,,,,,4,,,,65,64
112080,set_tempo,480,1,0,1666666,,,,,,,,,,,,
112080,note_on,0,0,4,,,,,,,,2,,,,77,36
112080,note_off,120,0,3,,,,,,,,1,,,,79,64
112240,note_off,640,0,15,,,,,,,,14,,,,38,64
112240,note_off,640,0,14,,,,,,,,13,,,,38,64
112240,note_off,640,0,9,,,,,,,,7,,,,38,64
112320,note_off,720,0,8,,,,,,,,6,,,,50,64
112320,note_on,0,0,13,,,,,,,,12,,,,56,30
112320,note_off,720,0,13,,,,,,,,12,,,,50,64
112320,note_on,0,0,8,,,,,,,,6,,,,56,45
112435,note_off,355,0,3,,,,,,,,1,,,,77,64
112435,note_off,355,0,4,,,,,,,,2,,,,77,64
112440,note_on,5,0,3,,,,,,,,1,,,,83,60
112440,note_on,5,0,4,,,,,,,,2,,,,83,45
112440,set_tempo,360,1,0,1500000,,,,,,,,,,,,
112560,note_off,120,0,3,,,,,,,,1,,,,83,64
112560,note_on,0,0,4,,,,,,,,2,,,,76,45
112560,note_off,120,0,4,,,,,,,,2,,,,83,64
112560,set_tempo,120,1,0,1428571,,,,,,,,,,,,
112560,note_on,0,0,3,,,,,,,,1,,,,76,60
112680,note_off,120,0,3,,,,,,,,1,,,,76,64
112680,note_on,0,0,3,,,,,,,,1,,,,77,57
112680,note_off,120,0,4,,,,,,,,2,,,,76,64
112680,note_on,0,0,4,,,,,,,,2,,,,77,42
112800,note_on,0,0,3,,,,,,,,1,,,,74,53
112800,note_on,0,0,4,,,,,,,,2,,,,74,38
112800,note_off,120,0,4,,,,,,,,2,,,,77,64
112800,note_off,120,0,3,,,,,,,,1,,,,77,64
112920,note_off,120,0,4,,,,,,,,2,,,,74,64
112920,note_on,0,0,4,,,,,,,,2,,,,76,34
112920,note_on,0,0,3,,,,,,,,1,,,,76,49
112920,note_off,120,0,3,,,,,,,,1,,,,74,64
113040,note_off,120,0,4,,,,,,,,2,,,,76,64
113040,note_on,0,0,3,,,,,,,,1,,,,73,45
113040,note_on,0,0,13,,,,,,,,12,,,,55,30
113040,set_tempo,480,1,0,1500000,,,,,,,,,,,,
113040,note_off,720,0,13,,,,,,,,12,,,,56,64
113040,note_on,0,0,4,,,,,,,,2,,,,73,30
113040,note_on,0,0,8,,,,,,,,6,,,,55,45
113040,note_off,720,0,8,,,,,,,,6,,,,56,64
113040,note_off,120,0,3,,,,,,,,1,,,,76,64
113160,note_off,120,0,4,,,,,,,,2,,,,73,64
113160,note_on,0,0,3,,,,,,,,1,,,,76,45
113160,note_on,0,0,4,,,,,,,,2,,,,76,30
113160,note_off,120,0,3,,,,,,,,1,,,,73,64
113280,note_off,120,0,3,,,,,,,,1,,,,76,64
113280,note_on,0,0,3,,,,,,,,1,,,,74,45
113280,note_off,120,0,4,,,,,,,,2,,,,76,64
113280,note_on,0,0,4,,,,,,,,2,,,,74,30
113400,note_off,120,0,3,,,,,,,,1,,,,74,64
113400,note_on,0,0,3,,,,,,,,1,,,,77,48
113400,note_off,120,0,4,,,,,,,,2,,,,74,64
113400,note_on,0,0,4,,,,,,,,2,,,,77,33
113520,note_on,0,0,4,,,,,,,,2,,,,75,36
113520,note_off,120,0,3,,,,,,,,1,,,,77,64
113520,note_on,0,0,3,,,,,,,,1,,,,75,51
113520,set_tempo,480,1,0,1764705,,,,,,,,,,,,
113520,note_off,120,0,4,,,,,,,,2,,,,77,64
113760,note_off,720,0,8,,,,,,,,6,,,,55,64
113760,note_on,0,0,13,,,,,,,,12,,,,54,30
113760,note_on,0,0,8,,,,,,,,6,,,,54,45
113760,note_off,720,0,13,,,,,,,,12,,,,55,64
113875,note_off,355,0,4,,,,,,,,2,,,,75,64
113875,note_off,355,0,3,,,,,,,,1,,,,75,64
113880,note_on,5,0,4,,,,,,,,2,,,,81,45
113880,set_tempo,360,1,0,1395348,,,,,,,,,,,,
113880,note_on,5,0,3,,,,,,,,1,,,,81,60
114000,note_off,120,0,4,,,,,,,,2,,,,81,64
114000,note_on,0,0,3,,,,,,,,1,,,,74,60
114000,note_off,120,0,3,,,,,,,,1,,,,81,64
114000,note_on,0,0,4,,,,,,,,2,,,,74,45
114120,note_off,120,0,3,,,,,,,,1,,,,74,64
114120,note_off,120,0,4,,,,,,,,2,,,,74,64
114120,note_on,0,0,3,,,,,,,,1,,,,75,57
114120,note_on,0,0,4,,,,,,,,2,,,,75,42
114240,note_off,120,0,4,,,,,,,,2,,,,75,64
114240,note_on,0,0,4,,,,,,,,2,,,,72,38
114240,note_off,120,0,3,,,,,,,,1,,,,75,64
114240,note_on,0,0,3,,,,,,,,1,,,,72,53
114360,note_off,120,0,4,,,,,,,,2,,,,72,64
114360,note_on,0,0,4,,,,,,,,2,,,,74,34
114360,note_off,120,0,3,,,,,,,,1,,,,72,64
114360,note_on,0,0,3,,,,,,,,1,,,,74,49
114480,note_on,0,0,8,,,,,,,,6,,,,53,45
114480,note_off,720,0,8,,,,,,,,6,,,,54,64
114480,note_off,720,0,13,,,,,,,,12,,,,54,64
114480,note_on,0,0,3,,,,,,,,1,,,,71,45
114480,note_off,120,0,4,,,,,,,,2,,,,74,64
114480,note_on,0,0,4,,,,,,,,2,,,,71,30
114480,note_on,0,0,13,,,,,,,,12,,,,53,30
114480,note_off,120,0,3,,,,,,,,1,,,,74,64
114600,note_on,0,0,4,,,,,,,,2,,,,74,30
114600,note_off,120,0,3,,,,,,,,1,,,,71,64
114600,note_on,0,0,3,,,,,,,,1,,,,74,45
114600,note_off,120,0,4,,,,,,,,2,,,,71,64
114720,note_off,120,0,4,,,,,,,,2,,,,74,64
114720,note_off,120,0,3,,,,,,,,1,,,,74,64
114720,note_on,0,0,3,,,,,,,,1,,,,72,45
114720,note_on,0,0,4,,,,,,,,2,,,,72,30
114840,note_off,120,0,4,,,,,,,,2,,,,72,64
114840,note_on,0,0,4,,,,,,,,2,,,,75,30
114840,note_off,120,0,3,,,,,,,,1,,,,72,64
114840,note_on,0,0,3,,,,,,,,1,,,,75,45
114960,note_on,0,0,3,,,,,,,,1,,,,73,45
114960,note_off,120,0,3,,,,,,,,1,,,,75,64
114960,note_on,0,0,4,,,,,,,,2,,,,73,30
114960,set_tempo,1080,1,0,1764705,,,,,,,,,,,,
114960,note_off,120,0,4,,,,,,,,2,,,,75,64
115200,note_on,0,0,13,,,,,,,,12,,,,52,30
115200,note_off,720,0,8,,,,,,,,6,,,,53,64
115200,note_off,720,0,13,,,,,,,,12,,,,53,64
115200,note_on,0,0,8,,,,,,,,6,,,,52,45
115315,note_off,355,0,3,,,,,,,,1,,,,73,64
115315,note_off,355,0,4,,,,,,,,2,,,,73,64
115320,note_on,5,0,4,,,,,,,,2,,,,79,30
115320,note_on,5,0,3,,,,,,,,1,,,,79,45
115320,set_tempo,360,1,0,1395348,,,,,,,,,,,,
115440,note_off,120,0,4,,,,,,,,2,,,,79,64
115440,note_off,120,0,3,,,,,,,,1,,,,79,64
115440,note_on,0,0,3,,,,,,,,1,,,,72,45
115440,note_on,0,0,4,,,,,,,,2,,,,72,30
115560,note_off,120,0,4,,,,,,,,2,,,,72,64
115560,note_off,120,0,3,,,,,,,,1,,,,72,64
115560,note_on,0,0,3,,,,,,,,1,,,,73,45
115560,note_on,0,0,4,,,,,,,,2,,,,73,30
115680,note_on,0,0,3,,,,,,,,1,,,,70,45
115680,note_off,120,0,3,,,,,,,,1,,,,73,64
115680,note_off,120,0,4,,,,,,,,2,,,,73,64
115680,note_on,0,0,4,,,,,,,,2,,,,70,30
115800,note_on,0,0,3,,,,,,,,1,,,,72,45
115800,note_off,120,0,3,,,,,,,,1,,,,70,64
115800,note_off,120,0,4,,,,,,,,2,,,,70,64
115800,note_on,0,0,4,,,,,,,,2,,,,72,30
115920,note_off,120,0,3,,,,,,,,1,,,,72,64
115920,note_off,720,0,13,,,,,,,,12,,,,52,64
115920,note_on,0,0,13,,,,,,,,12,,,,51,30
115920,note_on,0,0,3,,,,,,,,1,,,,69,45
115920,note_off,720,0,8,,,,,,,,6,,,,52,64
115920,note_on,0,0,8,,,,,,,,6,,,,51,45
115920,note_on,0,0,4,,,,,,,,2,,,,69,30
115920,note_off,120,0,4,,,,,,,,2,,,,72,64
116040,note_off,120,0,4,,,,,,,,2,,,,69,64
116040,note_on,0,0,3,,,,,,,,1,,,,72,45
116040,note_off,120,0,3,,,,,,,,1,,,,69,64
116040,note_on,0,0,4,,,,,,,,2,,,,72,30
116160,note_off,120,0,4,,,,,,,,2,,,,72,64
116160,note_off,120,0,3,,,,,,,,1,,,,72,64
116160,note_on,0,0,3,,,,,,,,1,,,,70,45
116160,note_on,0,0,4,,,,,,,,2,,,,70,30
116280,note_off,120,0,4,,,,,,,,2,,,,70,64
116280,note_on,0,0,4,,,,,,,,2,,,,74,30
116280,note_off,120,0,3,,,,,,,,1,,,,70,64
116280,note_on,0,0,3,,,,,,,,1,,,,74,45
116400,set_tempo,1080,1,0,1714285,,,,,,,,,,,,
116400,note_off,120,0,3,,,,,,,,1,,,,74,64
116400,note_off,120,0,4,,,,,,,,2,,,,74,64
116400,note_on,0,0,4,,,,,,,,2,,,,72,30
116400,note_on,0,0,3,,,,,,,,1,,,,72,45
116640,note_on,0,0,8,,,,,,,,6,,,,51,45
116640,note_on,0,0,13,,,,,,,,12,,,,51,30
116640,note_off,720,0,8,,,,,,,,6,,,,51,64
116640,note_off,720,0,13,,,,,,,,12,,,,51,64
116755,note_off,355,0,3,,,,,,,,1,,,,72,64
116755,note_off,355,0,4,,,,,,,,2,,,,72,64
116760,note_on,5,0,3,,,,,,,,1,,,,81,45
116760,set_tempo,360,1,0,1363636,,,,,,,,,,,,
116760,note_on,5,0,4,,,,,,,,2,,,,81,30
116880,note_off,120,0,3,,,,,,,,1,,,,81,64
116880,note_on,0,0,4,,,,,,,,2,,,,71,30
116880,note_off,120,0,4,,,,,,,,2,,,,81,64
116880,note_on,0,0,3,,,,,,,,1,,,,71,45
117000,note_off,120,0,4,,,,,,,,2,,,,71,64
117000,note_on,0,0,3,,,,,,,,1,,,,72,45
117000,note_off,120,0,3,,,,,,,,1,,,,71,64
117000,note_on,0,0,4,,,,,,,,2,,,,72,30
117120,note_off,120,0,4,,,,,,,,2,,,,72,64
117120,set_tempo,360,1,0,1428571,,,,,,,,,,,,
117120,note_on,0,0,3,,,,,,,,1,,,,69,45
117120,note_off,120,0,3,,,,,,,,1,,,,72,64
117120,note_on,0,0,4,,,,,,,,2,,,,69,30
117240,note_off,120,0,3,,,,,,,,1,,,,69,64
117240,note_on,0,0,4,,,,,,,,2,,,,71,30
117240,note_off,120,0,4,,,,,,,,2,,,,69,64
117240,note_on,0,0,3,,,,,,,,1,,,,71,45
117360,note_off,120,0,4,,,,,,,,2,,,,71,64
117360,note_off,120,0,3,,,,,,,,1,,,,71,64
117360,note_on,0,0,8,,,,,,,,6,,,,52,45
117360,note_off,720,0,8,,,,,,,,6,,,,51,64
117360,note_on,0,0,4,,,,,,,,2,,,,67,30
117360,note_on,0,0,3,,,,,,,,1,,,,67,45
117360,note_off,720,0,13,,,,,,,,12,,,,51,64
117360,note_on,0,0,13,,,,,,,,12,,,,52,30
117360,set_tempo,240,1,0,1500000,,,,,,,,,,,,
117480,note_off,120,0,3,,,,,,,,1,,,,67,64
117480,note_off,120,0,4,,,,,,,,2,,,,67,64
117480,note_on,0,0,4,,,,,,,,2,,,,71,31
117480,note_on,0,0,3,,,,,,,,1,,,,71,46
117600,note_on,0,0,4,,,,,,,,2,,,,76,32
117600,note_off,120,0,4,,,,,,,,2,,,,71,64
117600,note_on,0,0,3,,,,,,,,1,,,,76,47
117600,note_off,120,0,3,,,,,,,,1,,,,71,64
117720,note_on,0,0,4,,,,,,,,2,,,,78,33
117720,note_off,120,0,4,,,,,,,,2,,,,76,64
117720,note_on,0,0,3,,,,,,,,1,,,,78,48
117720,note_off,120,0,3,,,,,,,,1,,,,76,64
117840,set_tempo,480,1,0,1621621,,,,,,,,,,,,
117840,note_on,0,0,4,,,,,,,,2,,,,79,34
117840,note_off,120,0,3,,,,,,,,1,,,,78,64
117840,note_on,0,0,3,,,,,,,,1,,,,79,49
117840,note_off,120,0,4,,,,,,,,2,,,,78,64
118080,note_on,0,0,13,,,,,,,,12,,,,46,30
118080,note_off,720,0,8,,,,,,,,6,,,,52,64
118080,note_off,720,0,13,,,,,,,,12,,,,52,64
118080,note_on,0,0,8,,,,,,,,6,,,,46,45
118195,note_off,355,0,3,,,,,,,,1,,,,79,64
118195,note_off,355,0,4,,,,,,,,2,,,,79,64
118200,note_on,5,0,3,,,,,,,,1,,,,85,53
118200,set_tempo,360,1,0,1395348,,,,,,,,,,,,
118200,note_on,5,0,4,,,,,,,,2,,,,85,38
118320,note_off,120,0,3,,,,,,,,1,,,,85,64
118320,note_on,0,0,3,,,,,,,,1,,,,78,54
118320,note_off,120,0,4,,,,,,,,2,,,,85,64
118320,note_on,0,0,4,,,,,,,,2,,,,78,39
118440,note_on,0,0,4,,,,,,,,2,,,,79,41
118440,note_off,120,0,4,,,,,,,,2,,,,78,64
118440,note_off,120,0,3,,,,,,,,1,,,,78,64
118440,note_on,0,0,3,,,,,,,,1,,,,79,56
118560,set_tempo,360,1,0,1621621,,,,,,,,,,,,
118560,note_off,120,0,4,,,,,,,,2,,,,79,64
118560,note_off,120,0,3,,,,,,,,1,,,,79,64
118560,note_on,0,0,3,,,,,,,,1,,,,76,58
118560,note_on,0,0,4,,,,,,,,2,,,,76,43
118680,note_on,0,0,4,,,,,,,,2,,,,78,45
118680,note_on,0,0,3,,,,,,,,1,,,,78,60
118680,note_off,120,0,4,,,,,,,,2,,,,76,64
118680,note_off,120,0,3,,,,,,,,1,,,,76,64
118800,note_on,11585,0,1,,,,,,,,0,,,,59,60
118800,note_on,7200,0,2,,,,,,,,0,,,,45,30
118800,note_on,0,0,13,,,,,,,,12,,,,45,30
118800,note_off,720,0,13,,,,,,,,12,,,,46,64
118800,note_on,0,0,8,,,,,,,,6,,,,45,45
118800,note_off,120,0,3,,,,,,,,1,,,,78,64
118800,set_tempo,240,1,0,1428571,,,,,,,,,,,,
118800,note_on,0,0,3,,,,,,,,1,,,,75,60
118800,note_off,120,0,4,,,,,,,,2,,,,78,64
118800,note_on,0,0,4,,,,,,,,2,,,,75,45
118800,note_off,720,0,8,,,,,,,,6,,,,46,64
118920,note_off,120,0,1,,,,,,,,0,,,,59,64
118920,note_on,0,0,1,,,,,,,,0,,,,63,60
119040,note_off,120,0,1,,,,,,,,0,,,,63,64
119040,note_on,0,0,1,,,,,,,,0,,,,66,54
119160,note_off,120,0,1,,,,,,,,0,,,,66,64
119160,note_on,0,0,1,,,,,,,,0,,,,71,48
119280,note_on,0,0,1,,,,,,,,0,,,,66,42
119280,note_off,120,0,1,,,,,,,,0,,,,71,64
119400,note_on,0,0,1,,,,,,,,0,,,,63,36
119400,note_off,120,0,1,,,,,,,,0,,,,66,64
119440,note_off,640,0,3,,,,,,,,1,,,,75,64
119440,note_off,640,0,4,,,,,,,,2,,,,75,64
119520,note_off,120,0,1,,,,,,,,0,,,,63,64
119520,set_tempo,720,1,0,1333333,,,,,,,,,,,,
119520,note_on,0,0,1,,,,,,,,0,,,,68,30
119520,note_on,0,0,2,,,,,,,,0,,,,44,30
119520,note_off,720,0,2,,,,,,,,0,,,,45,64
119520,note_on,0,0,1,,,,,,,,0,,,,64,30
119520,note_on,0,0,1,,,,,,,,0,,,,71,30
119520,note_on,0,0,13,,,,,,,,12,,,,44,30
119520,note_on,80,0,4,,,,,,,,2,,,,83,45
119520,note_off,720,0,13,,,,,,,,12,,,,45,64
119520,note_on,80,0,3,,,,,,,,1,,,,83,60
119520,note_off,720,0,8,,,,,,,,6,,,,45,64
119520,note_on,0,0,8,,,,,,,,6,,,,44,45
119640,note_off,120,0,3,,,,,,,,1,,,,83,64
119640,note_on,0,0,4,,,,,,,,2,,,,81,43
119640,note_off,120,0,4,,,,,,,,2,,,,83,64
119640,note_on,0,0,3,,,,,,,,1,,,,81,58
119760,note_off,120,0,4,,,,,,,,2,,,,81,64
119760,note_off,120,0,3,,,,,,,,1,,,,81,64
119760,note_on,0,0,3,,,,,,,,1,,,,80,56
119760,set_tempo,240,1,0,1428571,,,,,,,,,,,,
119760,note_on,0,0,4,,,,,,,,2,,,,80,41
119880,note_off,120,0,4,,,,,,,,2,,,,80,64
119880,note_on,0,0,4,,,,,,,,2,,,,77,39
119880,note_on,0,0,3,,,,,,,,1,,,,77,54
119880,note_off,120,0,3,,,,,,,,1,,,,80,64
120000,note_on,0,0,3,,,,,,,,1,,,,76,51
120000,note_off,120,0,3,,,,,,,,1,,,,77,64
120000,set_tempo,240,1,0,1538461,,,,,,,,,,,,
120000,note_off,120,0,4,,,,,,,,2,,,,77,64
120000,note_on,0,0,4,,,,,,,,2,,,,76,36
120120,note_on,0,0,4,,,,,,,,2,,,,74,33
120120,note_off,120,0,4,,,,,,,,2,,,,76,64
120120,note_on,0,0,3,,,,,,,,1,,,,74,48
120120,note_off,120,0,3,,,,,,,,1,,,,76,64
120160,note_off,640,0,1,,,,,,,,0,,,,71,64
120160,note_off,0,0,1,,,,,,,,0,,,,64,64
120160,note_off,0,0,1,,,,,,,,0,,,,68,64
120240,note_on,80,0,1,,,,,,,,0,,,,58,45
120240,set_tempo,240,1,0,1363636,,,,,,,,,,,,
120240,note_on,0,0,13,,,,,,,,12,,,,43,30
120240,note_on,0,0,2,,,,,,,,0,,,,43,30
120240,note_off,120,0,3,,,,,,,,1,,,,74,64
120240,note_on,0,0,3,,,,,,,,1,,,,73,45
120240,note_off,120,0,4,,,,,,,,2,,,,74,64
120240,note_off,720,0,8,,,,,,,,6,,,,44,64
120240,note_on,0,0,8,,,,,,,,6,,,,43,45
120240,note_on,0,0,4,,,,,,,,2,,,,73,30
120240,note_off,720,0,2,,,,,,,,0,,,,44,64
120240,note_off,720,0,13,,,,,,,,12,,,,44,64
120360,note_off,120,0,1,,,,,,,,0,,,,58,64
120360,note_on,0,0,1,,,,,,,,0,,,,63,45
120480,note_on,0,0,1,,,,,,,,0,,,,67,42
120480,note_off,120,0,1,,,,,,,,0,,,,63,64
120600,note_off,120,0,1,,,,,,,,0,,,,67,64
120600,note_on,0,0,1,,,,,,,,0,,,,70,39
120720,note_off,120,0,1,,,,,,,,0,,,,70,64
120720,note_on,0,0,1,,,,,,,,0,,,,67,36
120840,note_off,120,0,1,,,,,,,,0,,,,67,64
120840,note_on,0,0,1,,,,,,,,0,,,,63,33
120880,note_off,640,0,4,,,,,,,,2,,,,73,64
120880,note_off,640,0,3,,,,,,,,1,,,,73,64
120960,note_on,0,0,13,,,,,,,,12,,,,42,30
120960,note_off,720,0,13,,,,,,,,12,,,,43,64
120960,set_tempo,720,1,0,1428571,,,,,,,,,,,,
120960,note_on,80,0,3,,,,,,,,1,,,,81,60
120960,note_off,720,0,8,,,,,,,,6,,,,43,64
120960,note_on,0,0,8,,,,,,,,6,,,,42,45
120960,note_on,80,0,4,,,,,,,,2,,,,81,45
120960,note_on,0,0,2,,,,,,,,0,,,,42,30
120960,note_on,0,0,1,,,,,,,,0,,,,66,30
120960,note_on,0,0,1,,,,,,,,0,,,,62,30
120960,note_off,120,0,1,,,,,,,,0,,,,63,64
120960,note_off,720,0,2,,,,,,,,0,,,,43,64
120960,note_on,0,0,1,,,,,,,,0,,,,69,30
121080,note_on,0,0,3,,,,,,,,1,,,,79,60
121080,note_off,120,0,4,,,,,,,,2,,,,81,64
121080,note_on,0,0,4,,,,,,,,2,,,,79,45
121080,note_off,120,0,3,,,,,,,,1,,,,81,64
121200,note_off,120,0,3,,,,,,,,1,,,,79,64
121200,set_tempo,240,1,0,1500000,,,,,,,,,,,,
121200,note_off,120,0,4,,,,,,,,2,,,,79,64
121200,note_on,0,0,4,,,,,,,,2,,,,78,45
121200,note_on,0,0,3,,,,,,,,1,,,,78,60
121320,note_off,120,0,4,,,,,,,,2,,,,78,64
121320,note_off,120,0,3,,,,,,,,1,,,,78,64
121320,note_on,0,0,3,,,,,,,,1,,,,75,57
121320,note_on,0,0,4,,,,,,,,2,,,,75,42
121440,note_on,0,0,3,,,,,,,,1,,,,74,53
121440,note_off,120,0,4,,,,,,,,2,,,,75,64
121440,set_tempo,240,1,0,1621621,,,,,,,,,,,,
121440,note_on,0,0,4,,,,,,,,2,,,,74,38
121440,note_off,120,0,3,,,,,,,,1,,,,75,64
121560,note_off,120,0,3,,,,,,,,1,,,,74,64
121560,note_on,0,0,3,,,,,,,,1,,,,72,49
121560,note_on,0,0,4,,,,,,,,2,,,,72,34
121560,note_off,120,0,4,,,,,,,,2,,,,74,64
121600,note_off,0,0,1,,,,,,,,0,,,,62,64
121600,note_off,0,0,1,,,,,,,,0,,,,66,64
121600,note_off,640,0,1,,,,,,,,0,,,,69,64
121680,note_on,80,0,1,,,,,,,,0,,,,62,45
121680,note_on,0,0,2,,,,,,,,0,,,,41,30
121680,note_on,0,0,4,,,,,,,,2,,,,71,30
121680,note_on,0,0,8,,,,,,,,6,,,,41,45
121680,note_off,720,0,8,,,,,,,,6,,,,42,64
121680,note_off,720,0,13,,,,,,,,12,,,,42,64
121680,note_on,0,0,13,,,,,,,,12,,,,41,30
121680,note_off,120,0,3,,,,,,,,1,,,,72,64
121680,note_on,0,0,3,,,,,,,,1,,,,71,45
121680,set_tempo,240,1,0,1428571,,,,,,,,,,,,
121680,note_off,720,0,2,,,,,,,,0,,,,42,64
121680,note_off,120,0,4,,,,,,,,2,,,,72,64
121800,note_off,120,0,1,,,,,,,,0,,,,62,64
121800,note_on,0,0,1,,,,,,,,0,,,,65,45
121920,note_off,120,0,1,,,,,,,,0,,,,65,64
121920,note_on,0,0,1,,,,,,,,0,,,,71,42
122040,note_on,0,0,1,,,,,,,,0,,,,74,39
122040,note_off,120,0,1,,,,,,,,0,,,,71,64
122160,note_on,0,0,1,,,,,,,,0,,,,71,36
122160,note_off,120,0,1,,,,,,,,0,,,,74,64
122280,note_off,120,0,1,,,,,,,,0,,,,71,64
122280,note_on,0,0,1,,,,,,,,0,,,,65,33
122320,note_off,640,0,3,,,,,,,,1,,,,71,64
122320,note_off,640,0,4,,,,,,,,2,,,,71,64
122400,note_on,80,0,4,,,,,,,,2,,,,79,30
122400,note_on,0,0,8,,,,,,,,6,,,,40,45
122400,note_off,720,0,8,,,,,,,,6,,,,41,64
122400,note_on,0,0,1,,,,,,,,0,,,,64,30
122400,note_off,720,0,13,,,,,,,,12,,,,41,64
122400,set_tempo,720,1,0,1363636,,,,,,,,,,,,
122400,note_on,0,0,2,,,,,,,,0,,,,40,30
122400,note_off,720,0,2,,,,,,,,0,,,,41,64
122400,note_on,0,0,1,,,,,,,,0,,,,60,30
122400,note_on,0,0,13,,,,,,,,12,,,,40,30
122400,note_off,120,0,1,,,,,,,,0,,,,65,64
122400,note_on,0,0,1,,,,,,,,0,,,,67,30
122400,note_on,80,0,3,,,,,,,,1,,,,79,45
122520,note_off,120,0,3,,,,,,,,1,,,,79,64
122520,note_on,0,0,3,,,,,,,,1,,,,77,45
122520,note_off,120,0,4,,,,,,,,2,,,,79,64
122520,note_on,0,0,4,,,,,,,,2,,,,77,30
122640,note_off,120,0,4,,,,,,,,2,,,,77,64
122640,note_on,0,0,4,,,,,,,,2,,,,76,30
122640,set_tempo,240,1,0,1500000,,,,,,,,,,,,
122640,note_off,120,0,3,,,,,,,,1,,,,77,64
122640,note_on,0,0,3,,,,,,,,1,,,,76,45
122760,note_off,120,0,3,,,,,,,,1,,,,76,64
122760,note_on,0,0,3,,,,,,,,1,,,,74,45
122760,note_on,0,0,4,,,,,,,,2,,,,74,30
122760,note_off,120,0,4,,,,,,,,2,,,,76,64
122880,set_tempo,240,1,0,1666666,,,,,,,,,,,,
122880,note_on,0,0,3,,,,,,,,1,,,,72,45
122880,note_off,120,0,3,,,,,,,,1,,,,74,64
122880,note_on,0,0,4,,,,,,,,2,,,,72,30
122880,note_off,120,0,4,,,,,,,,2,,,,74,64
123000,note_off,120,0,4,,,,,,,,2,,,,72,64
123000,note_on,0,0,4,,,,,,,,2,,,,70,30
123000,note_off,120,0,3,,,,,,,,1,,,,72,64
123000,note_on,0,0,3,,,,,,,,1,,,,70,45
123040,note_off,640,0,1,,,,,,,,0,,,,67,64
123040,note_off,0,0,1,,,,,,,,0,,,,64,64
123040,note_off,0,0,1,,,,,,,,0,,,,60,64
123120,note_on,0,0,8,,,,,,,,6,,,,39,45
123120,note_off,120,0,3,,,,,,,,1,,,,70,64
123120,note_on,0,0,2,,,,,,,,0,,,,39,30
123120,set_tempo,240,1,0,1428571,,,,,,,,,,,,
123120,note_off,720,0,8,,,,,,,,6,,,,40,64
123120,note_off,120,0,4,,,,,,,,2,,,,70,64
123120,note_on,0,0,13,,,,,,,,12,,,,39,30
123120,note_off,720,0,13,,,,,,,,12,,,,40,64
123120,note_off,720,0,2,,,,,,,,0,,,,40,64
123120,note_on,0,0,4,,,,,,,,2,,,,69,30
123120,note_on,0,0,3,,,,,,,,1,,,,69,45
123120,note_on,80,0,1,,,,,,,,0,,,,60,45
123240,note_on,0,0,1,,,,,,,,0,,,,63,45
123240,note_off,120,0,1,,,,,,,,0,,,,60,64
123360,note_on,0,0,1,,,,,,,,0,,,,66,42
123360,note_off,120,0,1,,,,,,,,0,,,,63,64
123480,note_on,0,0,1,,,,,,,,0,,,,69,39
123480,note_off,120,0,1,,,,,,,,0,,,,66,64
123600,note_on,0,0,1,,,,,,,,0,,,,66,36
123600,note_off,120,0,1,,,,,,,,0,,,,69,64
123720,note_off,120,0,1,,,,,,,,0,,,,66,64
123720,note_on,0,0,1,,,,,,,,0,,,,63,33
123760,note_off,640,0,3,,,,,,,,1,,,,69,64
123760,note_off,640,0,4,,,,,,,,2,,,,69,64
123840,note_on,0,0,13,,,,,,,,12,,,,38,30
123840,set_tempo,720,1,0,1363636,,,,,,,,,,,,
123840,note_off,720,0,13,,,,,,,,12,,,,39,64
123840,note_on,80,0,3,,,,,,,,1,,,,70,45
123840,note_off,120,0,1,,,,,,,,0,,,,63,64
123840,note_on,0,0,1,,,,,,,,0,,,,58,30
123840,note_on,0,0,2,,,,,,,,0,,,,38,30
123840,note_on,0,0,1,,,,,,,,0,,,,62,30
123840,note_on,80,0,4,,,,,,,,2,,,,70,30
123840,note_on,0,0,1,,,,,,,,0,,,,65,30
123840,note_on,0,0,8,,,,,,,,6,,,,38,45
123840,note_off,720,0,8,,,,,,,,6,,,,39,64
123840,note_off,720,0,2,,,,,,,,0,,,,39,64
123960,note_off,120,0,4,,,,,,,,2,,,,70,64
123960,note_on,0,0,4,,,,,,,,2,,,,72,31
123960,note_off,120,0,3,,,,,,,,1,,,,70,64
123960,note_on,0,0,3,,,,,,,,1,,,,72,46
124080,note_off,120,0,4,,,,,,,,2,,,,72,64
124080,note_on,0,0,4,,,,,,,,2,,,,74,32
124080,note_on,0,0,3,,,,,,,,1,,,,74,47
124080,note_off,120,0,3,,,,,,,,1,,,,72,64
124200,note_off,120,0,3,,,,,,,,1,,,,74,64
124200,note_on,0,0,3,,,,,,,,1,,,,75,48
124200,note_off,120,0,4,,,,,,,,2,,,,74,64
124200,note_on,0,0,4,,,,,,,,2,,,,75,33
124320,note_off,120,0,3,,,,,,,,1,,,,75,64
124320,note_on,0,0,3,,,,,,,,1,,,,77,49
124320,note_off,120,0,4,,,,,,,,2,,,,75,64
124320,note_on,0,0,4,,,,,,,,2,,,,77,34
124440,note_off,120,0,3,,,,,,,,1,,,,77,64
124440,note_off,120,0,4,,,,,,,,2,,,,77,64
124440,note_on,0,0,4,,,,,,,,2,,,,79,35
124440,note_on,0,0,3,,,,,,,,1,,,,79,50
124480,note_off,0,0,1,,,,,,,,0,,,,62,64
124480,note_off,0,0,1,,,,,,,,0,,,,58,64
124480,note_off,640,0,1,,,,,,,,0,,,,65,64
124555,note_off,115,0,4,,,,,,,,2,,,,79,64
124555,note_off,115,0,3,,,,,,,,1,,,,79,64
124560,note_on,5,0,4,,,,,,,,2,,,,80,36
124560,note_on,5,0,3,,,,,,,,1,,,,80,51
124560,note_on,0,0,13,,,,,,,,12,,,,59,30
124560,note_off,720,0,13,,,,,,,,12,,,,38,64
124560,note_on,80,0,1,,,,,,,,0,,,,68,30
124560,note_off,720,0,8,,,,,,,,6,,,,38,64
124560,note_on,0,0,8,,,,,,,,6,,,,59,45
124560,note_off,720,0,2,,,,,,,,0,,,,38,64
124560,note_on,0,0,2,,,,,,,,0,,,,59,30
124800,note_off,240,0,1,,,,,,,,0,,,,68,64
124800,note_on,0,0,1,,,,,,,,0,,,,67,30
124800,set_tempo,960,1,0,1428571,,,,,,,,,,,,
124800,note_on,0,0,4,,,,,,,,2,,,,79,38
124800,note_off,240,0,3,,,,,,,,1,,,,80,64
124800,note_off,240,0,4,,,,,,,,2,,,,80,64
124800,note_on,0,0,3,,,,,,,,1,,,,79,53
125040,note_off,240,0,3,,,,,,,,1,,,,79,64
125040,note_on,0,0,3,,,,,,,,1,,,,77,55
125040,note_off,240,0,4,,,,,,,,2,,,,79,64
125040,set_tempo,240,1,0,1500000,,,,,,,,,,,,
125040,note_off,240,0,1,,,,,,,,0,,,,67,64
125040,note_on,0,0,1,,,,,,,,0,,,,65,30
125040,note_on,0,0,4,,,,,,,,2,,,,77,40
125280,note_off,720,0,8,,,,,,,,6,,,,59,64
125280,note_on,0,0,4,,,,,,,,2,,,,76,43
125280,note_off,720,0,13,,,,,,,,12,,,,59,64
125280,note_off,240,0,1,,,,,,,,0,,,,65,64
125280,note_off,240,0,4,,,,,,,,2,,,,77,64
125280,note_on,0,0,8,,,,,,,,6,,,,58,45
125280,note_on,0,0,13,,,,,,,,12,,,,58,30
125280,note_on,0,0,3,,,,,,,,1,,,,76,58
125280,note_on,0,0,2,,,,,,,,0,,,,58,30
125280,note_off,240,0,3,,,,,,,,1,,,,77,64
125280,note_off,720,0,2,,,,,,,,0,,,,59,64
125280,set_tempo,240,1,0,1666666,,,,,,,,,,,,
125280,note_on,0,0,1,,,,,,,,0,,,,64,30
125395,note_off,115,0,1,,,,,,,,0,,,,64,64
125395,note_off,115,0,3,,,,,,,,1,,,,76,64
125395,note_off,115,0,4,,,,,,,,2,,,,76,64
125400,note_on,5,0,1,,,,,,,,0,,,,74,30
125400,note_on,5,0,3,,,,,,,,1,,,,86,60
125400,note_on,5,0,4,,,,,,,,2,,,,86,45
125400,set_tempo,120,1,0,1304347,,,,,,,,,,,,
125520,note_on,0,0,1,,,,,,,,0,,,,72,30
125520,note_off,120,0,1,,,,,,,,0,,,,74,64
125520,note_on,0,0,4,,,,,,,,2,,,,84,45
125520,note_off,120,0,3,,,,,,,,1,,,,86,64
125520,note_on,0,0,3,,,,,,,,1,,,,84,60
125520,note_off,120,0,4,,,,,,,,2,,,,86,64
125640,note_off,120,0,4,,,,,,,,2,,,,84,64
125640,note_on,0,0,4,,,,,,,,2,,,,82,45
125640,note_on,0,0,1,,,,,,,,0,,,,70,30
125640,note_off,120,0,1,,,,,,,,0,,,,72,64
125640,note_off,120,0,3,,,,,,,,1,,,,84,64
125640,note_on,0,0,3,,,,,,,,1,,,,82,60
125760,note_on,0,0,1,,,,,,,,0,,,,69,30
125760,note_off,120,0,1,,,,,,,,0,,,,70,64
125760,note_off,120,0,3,,,,,,,,1,,,,82,64
125760,note_off,120,0,4,,,,,,,,2,,,,82,64
125760,note_on,0,0,3,,,,,,,,1,,,,81,60
125760,note_on,0,0,4,,,,,,,,2,,,,81,45
125880,note_off,120,0,4,,,,,,,,2,,,,81,64
125880,note_off,120,0,3,,,,,,,,1,,,,81,64
125880,note_on,0,0,3,,,,,,,,1,,,,79,60
125880,note_on,0,0,4,,,,,,,,2,,,,79,45
125880,note_off,120,0,1,,,,,,,,0,,,,69,64
125880,note_on,0,0,1,,,,,,,,0,,,,67,30
126000,set_tempo,600,1,0,1666666,,,,,,,,,,,,
126000,note_on,0,0,3,,,,,,,,1,,,,77,60
126000,note_on,0,0,1,,,,,,,,0,,,,65,30
126000,note_off,720,0,2,,,,,,,,0,,,,58,64
126000,note_on,0,0,2,,,,,,,,0,,,,56,30
126000,note_off,720,0,8,,,,,,,,6,,,,58,64
126000,note_on,0,0,13,,,,,,,,12,,,,56,30
126000,note_off,720,0,13,,,,,,,,12,,,,58,64
126000,note_off,120,0,1,,,,,,,,0,,,,67,64
126000,note_off,120,0,4,,,,,,,,2,,,,79,64
126000,note_off,120,0,3,,,,,,,,1,,,,79,64
126000,note_on,0,0,4,,,,,,,,2,,,,77,45
126000,note_on,0,0,8,,,,,,,,6,,,,56,45
126115,note_off,115,0,1,,,,,,,,0,,,,65,64
126115,note_off,115,0,3,,,,,,,,1,,,,77,64
126115,note_off,115,0,4,,,,,,,,2,,,,77,64
126120,note_on,5,0,1,,,,,,,,0,,,,72,30
126120,note_on,5,0,4,,,,,,,,2,,,,84,45
126120,set_tempo,120,1,0,1363636,,,,,,,,,,,,
126120,note_on,5,0,3,,,,,,,,1,,,,84,60
126240,note_off,120,0,3,,,,,,,,1,,,,84,64
126240,note_off,120,0,4,,,,,,,,2,,,,84,64
126240,note_on,0,0,4,,,,,,,,2,,,,80,45
126240,note_off,120,0,1,,,,,,,,0,,,,72,64
126240,note_on,0,0,1,,,,,,,,0,,,,68,30
126240,note_on,0,0,3,,,,,,,,1,,,,80,60
126360,note_off,120,0,3,,,,,,,,1,,,,80,64
126360,note_on,0,0,3,,,,,,,,1,,,,79,60
126360,note_off,120,0,4,,,,,,,,2,,,,80,64
126360,note_on,0,0,4,,,,,,,,2,,,,79,45
126360,note_off,120,0,1,,,,,,,,0,,,,68,64
126360,note_on,0,0,1,,,,,,,,0,,,,67,30
126480,note_off,120,0,4,,,,,,,,2,,,,79,64
126480,note_off,120,0,3,,,,,,,,1,,,,79,64
126480,note_on,0,0,3,,,,,,,,1,,,,77,60
126480,note_on,0,0,4,,,,,,,,2,,,,77,45
126480,note_off,120,0,1,,,,,,,,0,,,,67,64
126480,note_on,0,0,1,,,,,,,,0,,,,65,30
126600,note_on,0,0,4,,,,,,,,2,,,,75,45
126600,note_off,120,0,4,,,,,,,,2,,,,77,64
126600,note_off,120,0,1,,,,,,,,0,,,,65,64
126600,note_on,0,0,1,,,,,,,,0,,,,63,30
126600,note_off,120,0,3,,,,,,,,1,,,,77,64
126600,note_on,0,0,3,,,,,,,,1,,,,75,60
126720,note_off,120,0,1,,,,,,,,0,,,,63,64
126720,note_on,0,0,4,,,,,,,,2,,,,74,45
126720,note_on,0,0,1,,,,,,,,0,,,,62,30
126720,note_off,120,0,3,,,,,,,,1,,,,75,64
126720,note_off,120,0,4,,,,,,,,2,,,,75,64
126720,note_on,0,0,3,,,,,,,,1,,,,74,60
126720,set_tempo,600,1,0,1714285,,,,,,,,,,,,
126835,note_off,115,0,3,,,,,,,,1,,,,74,64
126835,note_off,115,0,4,,,,,,,,2,,,,74,64
126835,note_off,115,0,1,,,,,,,,0,,,,62,64
126840,note_on,5,0,3,,,,,,,,1,,,,84,60
126840,note_on,5,0,4,,,,,,,,2,,,,84,45
126840,note_on,5,0,1,,,,,,,,0,,,,72,30
126840,set_tempo,120,1,0,1363636,,,,,,,,,,,,
126960,note_on,0,0,1,,,,,,,,0,,,,70,30
126960,note_off,120,0,1,,,,,,,,0,,,,72,64
126960,note_off,120,0,3,,,,,,,,1,,,,84,64
126960,note_on,0,0,3,,,,,,,,1,,,,82,60
126960,note_on,0,0,4,,,,,,,,2,,,,82,45
126960,note_off,120,0,4,,,,,,,,2,,,,84,64
127080,note_on,0,0,4,,,,,,,,2,,,,80,45
127080,note_off,120,0,1,,,,,,,,0,,,,70,64
127080,note_on,0,0,1,,,,,,,,0,,,,68,30
127080,note_off,120,0,3,,,,,,,,1,,,,82,64
127080,note_off,120,0,4,,,,,,,,2,,,,82,64
127080,note_on,0,0,3,,,,,,,,1,,,,80,60
127200,note_off,120,0,1,,,,,,,,0,,,,68,64
127200,note_on,0,0,1,,,,,,,,0,,,,67,30
127200,note_off,120,0,3,,,,,,,,1,,,,80,64
127200,note_on,0,0,3,,,,,,,,1,,,,79,60
127200,note_off,120,0,4,,,,,,,,2,,,,80,64
127200,note_on,0,0,4,,,,,,,,2,,,,79,45
127320,note_off,120,0,3,,,,,,,,1,,,,79,64
127320,note_on,0,0,3,,,,,,,,1,,,,77,60
127320,note_on,0,0,1,,,,,,,,0,,,,65,30
127320,note_off,120,0,1,,,,,,,,0,,,,67,64
127320,note_on,0,0,4,,,,,,,,2,,,,77,45
127320,note_off,120,0,4,,,,,,,,2,,,,79,64
127360,note_off,1360,0,2,,,,,,,,0,,,,56,64
127440,note_on,80,0,2,,,,,,,,0,,,,55,30
127440,note_off,120,0,3,,,,,,,,1,,,,77,64
127440,note_on,0,0,4,,,,,,,,2,,,,75,45
127440,note_off,120,0,4,,,,,,,,2,,,,77,64
127440,note_on,0,0,3,,,,,,,,1,,,,75,60
127440,note_on,0,0,13,,,,,,,,12,,,,55,30
127440,note_off,1440,0,13,,,,,,,,12,,,,56,64
127440,set_tempo,600,1,0,1714285,,,,,,,,,,,,
127440,note_on,0,0,1,,,,,,,,0,,,,63,30
127440,note_off,120,0,1,,,,,,,,0,,,,65,64
127440,note_on,0,0,8,,,,,,,,6,,,,55,45
127440,note_off,1440,0,8,,,,,,,,6,,,,56,64
127555,note_off,115,0,1,,,,,,,,0,,,,63,64
127555,note_off,115,0,4,,,,,,,,2,,,,75,64
127555,note_off,115,0,3,,,,,,,,1,,,,75,64
127560,note_on,5,0,1,,,,,,,,0,,,,70,30
127560,note_on,5,0,4,,,,,,,,2,,,,82,45
127560,note_on,5,0,3,,,,,,,,1,,,,82,60
127560,set_tempo,120,1,0,1428571,,,,,,,,,,,,
127680,note_on,0,0,4,,,,,,,,2,,,,80,45
127680,note_on,0,0,3,,,,,,,,1,,,,80,60
127680,note_off,120,0,3,,,,,,,,1,,,,82,64
127680,note_off,120,0,4,,,,,,,,2,,,,82,64
127680,set_tempo,120,1,0,1500000,,,,,,,,,,,,
127680,note_on,0,0,1,,,,,,,,0,,,,68,30
127680,note_off,120,0,1,,,,,,,,0,,,,70,64
127800,note_on,0,0,1,,,,,,,,0,,,,67,30
127800,note_off,120,0,1,,,,,,,,0,,,,68,64
127800,note_off,120,0,3,,,,,,,,1,,,,80,64
127800,note_on,0,0,3,,,,,,,,1,,,,79,60
127800,note_off,120,0,4,,,,,,,,2,,,,80,64
127800,note_on,0,0,4,,,,,,,,2,,,,79,45
127920,note_on,0,0,1,,,,,,,,0,,,,65,30
127920,note_off,120,0,1,,,,,,,,0,,,,67,64
127920,note_off,120,0,3,,,,,,,,1,,,,79,64
127920,note_on,0,0,3,,,,,,,,1,,,,77,60
127920,note_off,120,0,4,,,,,,,,2,,,,79,64
127920,note_on,0,0,4,,,,,,,,2,,,,77,45
127920,set_tempo,240,1,0,1578947,,,,,,,,,,,,
128040,note_on,0,0,4,,,,,,,,2,,,,75,45
128040,set_tempo,120,1,0,1666666,,,,,,,,,,,,
128040,note_off,120,0,1,,,,,,,,0,,,,65,64
128040,note_off,120,0,4,,,,,,,,2,,,,77,64
128040,note_on,0,0,3,,,,,,,,1,,,,75,60
128040,note_off,120,0,3,,,,,,,,1,,,,77,64
128040,note_on,0,0,1,,,,,,,,0,,,,63,30
128160,note_off,720,0,13,,,,,,,,12,,,,55,64
128160,set_tempo,120,1,0,1428571,,,,,,,,,,,,
128160,note_off,120,0,4,,,,,,,,2,,,,75,64
128160,note_off,720,0,2,,,,,,,,0,,,,55,64
128160,note_on,0,0,13,,,,,,,,12,,,,53,30
128160,note_on,0,0,1,,,,,,,,0,,,,61,45
128160,note_off,120,0,1,,,,,,,,0,,,,63,64
128160,note_on,0,0,2,,,,,,,,0,,,,53,30
128160,note_on,0,0,4,,,,,,,,2,,,,73,45
128160,note_off,720,0,8,,,,,,,,6,,,,55,64
128160,note_on,0,0,3,,,,,,,,1,,,,73,60
128160,note_off,120,0,3,,,,,,,,1,,,,75,64
128160,note_on,0,0,8,,,,,,,,6,,,,53,45
128280,note_off,120,0,1,,,,,,,,0,,,,61,64
128280,note_on,0,0,1,,,,,,,,0,,,,65,45
128400,note_off,120,0,1,,,,,,,,0,,,,65,64
128400,note_on,0,0,1,,,,,,,,0,,,,68,45
128520,note_on,0,0,1,,,,,,,,0,,,,73,45
128520,note_off,120,0,1,,,,,,,,0,,,,68,64
128640,note_off,120,0,1,,,,,,,,0,,,,73,64
128640,note_on,0,0,1,,,,,,,,0,,,,68,45
128760,note_off,120,0,1,,,,,,,,0,,,,68,64
128760,note_on,0,0,1,,,,,,,,0,,,,65,45
128880,note_on,0,0,13,,,,,,,,12,,,,51,30
128880,note_on,0,0,3,,,,,,,,1,,,,72,60
128880,note_off,720,0,13,,,,,,,,12,,,,53,64
128880,note_on,0,0,1,,,,,,,,0,,,,60,30
128880,note_off,120,0,1,,,,,,,,0,,,,65,64
128880,note_on,0,0,8,,,,,,,,6,,,,51,45
128880,note_off,720,0,8,,,,,,,,6,,,,53,64
128880,note_off,720,0,3,,,,,,,,1,,,,73,64
128880,note_on,0,0,2,,,,,,,,0,,,,51,30
128880,note_off,720,0,2,,,,,,,,0,,,,53,64
128880,note_off,720,0,4,,,,,,,,2,,,,73,64
128880,set_tempo,720,1,0,1714285,,,,,,,,,,,,
128880,note_on,0,0,4,,,,,,,,2,,,,72,45
128995,note_off,115,0,4,,,,,,,,2,,,,72,64
128995,note_off,115,0,3,,,,,,,,1,,,,72,64
129000,note_on,5,0,3,,,,,,,,1,,,,79,58
129000,note_on,0,0,1,,,,,,,,0,,,,67,30
129000,set_tempo,120,1,0,1363636,,,,,,,,,,,,
129000,note_on,5,0,4,,,,,,,,2,,,,79,43
129000,note_off,120,0,1,,,,,,,,0,,,,60,64
129120,note_off,120,0,4,,,,,,,,2,,,,79,64
129120,note_off,120,0,1,,,,,,,,0,,,,67,64
129120,note_on,0,0,1,,,,,,,,0,,,,65,30
129120,note_on,0,0,4,,,,,,,,2,,,,77,41
129120,note_on,0,0,3,,,,,,,,1,,,,77,56
129120,note_off,120,0,3,,,,,,,,1,,,,79,64
129240,note_on,0,0,3,,,,,,,,1,,,,75,54
129240,note_off,120,0,1,,,,,,,,0,,,,65,64
129240,note_on,0,0,1,,,,,,,,0,,,,63,30
129240,note_off,120,0,3,,,,,,,,1,,,,77,64
129240,note_on,0,0,4,,,,,,,,2,,,,75,39
129240,note_off,120,0,4,,,,,,,,2,,,,77,64
129360,note_off,120,0,1,,,,,,,,0,,,,63,64
129360,note_on,0,0,1,,,,,,,,0,,,,62,30
129360,note_off,120,0,4,,,,,,,,2,,,,75,64
129360,note_off,120,0,3,,,,,,,,1,,,,75,64
129360,note_on,0,0,3,,,,,,,,1,,,,74,51
129360,note_on,0,0,4,,,,,,,,2,,,,74,36
129480,note_off,120,0,3,,,,,,,,1,,,,74,64
129480,note_on,0,0,3,,,,,,,,1,,,,72,48
129480,note_on,0,0,4,,,,,,,,2,,,,72,33
129480,note_off,120,0,4,,,,,,,,2,,,,74,64
129480,note_off,120,0,1,,,,,,,,0,,,,62,64
129480,note_on,0,0,1,,,,,,,,0,,,,60,30
129600,note_on,0,0,4,,,,,,,,2,,,,78,30
129600,note_off,120,0,4,,,,,,,,2,,,,72,64
129600,note_on,0,0,1,,,,,,,,0,,,,58,45
129600,note_off,120,0,3,,,,,,,,1,,,,72,64
129600,note_on,0,0,3,,,,,,,,1,,,,78,45
129600,note_off,120,0,1,,,,,,,,0,,,,60,64
129720,note_on,0,0,1,,,,,,,,0,,,,63,45
129720,note_off,120,0,1,,,,,,,,0,,,,58,64
129840,note_off,120,0,1,,,,,,,,0,,,,63,64
129840,note_on,0,0,1,,,,,,,,0,,,,66,45
129960,note_off,120,0,1,,,,,,,,0,,,,66,64
129960,note_on,0,0,1,,,,,,,,0,,,,70,42
130080,note_on,0,0,1,,,,,,,,0,,,,66,38
130080,note_off,120,0,1,,,,,,,,0,,,,70,64
130200,note_on,0,0,1,,,,,,,,0,,,,63,34
130200,note_off,120,0,1,,,,,,,,0,,,,66,64
130240,note_off,1360,0,2,,,,,,,,0,,,,51,64
130240,note_off,1360,0,8,,,,,,,,6,,,,51,64
130240,note_off,1360,0,13,,,,,,,,12,,,,51,64
130320,note_on,0,0,1,,,,,,,,0,,,,66,30
130320,note_on,80,0,2,,,,,,,,0,,,,50,30
130320,note_on,80,0,13,,,,,,,,12,,,,50,30
130320,note_off,120,0,1,,,,,,,,0,,,,63,64
130320,note_on,80,0,8,,,,,,,,6,,,,50,45
130440,note_on,0,0,1,,,,,,,,0,,,,62,30
130440,note_off,120,0,1,,,,,,,,0,,,,66,64
130555,note_off,955,0,3,,,,,,,,1,,,,78,64
130555,note_off,955,0,4,,,,,,,,2,,,,78,64
130560,note_on,5,0,3,,,,,,,,1,,,,79,45
130560,set_tempo,1560,1,0,1428571,,,,,,,,,,,,
130560,note_on,5,0,4,,,,,,,,2,,,,79,30
130560,note_off,120,0,1,,,,,,,,0,,,,62,64
130560,note_on,0,0,1,,,,,,,,0,,,,67,30
130680,note_off,120,0,1,,,,,,,,0,,,,67,64
130680,note_on,0,0,1,,,,,,,,0,,,,62,31
130800,note_on,0,0,3,,,,,,,,1,,,,81,48
130800,note_off,240,0,3,,,,,,,,1,,,,79,64
130800,note_on,0,0,1,,,,,,,,0,,,,69,32
130800,note_off,120,0,1,,,,,,,,0,,,,62,64
130800,set_tempo,240,1,0,1500000,,,,,,,,,,,,
130800,note_off,480,0,2,,,,,,,,0,,,,50,64
130800,note_off,480,0,8,,,,,,,,6,,,,50,64
130800,note_on,0,0,4,,,,,,,,2,,,,81,33
130800,note_off,240,0,4,,,,,,,,2,,,,79,64
130800,note_on,0,0,8,,,,,,,,6,,,,48,45
130800,note_on,0,0,2,,,,,,,,0,,,,48,30
130800,note_off,480,0,13,,,,,,,,12,,,,50,64
130800,note_on,0,0,13,,,,,,,,12,,,,48,30
130920,note_off,120,0,1,,,,,,,,0,,,,69,64
130920,note_on,0,0,1,,,,,,,,0,,,,60,33
131040,note_on,0,0,4,,,,,,,,2,,,,82,36
131040,note_off,120,0,1,,,,,,,,0,,,,60,64
131040,note_off,240,0,13,,,,,,,,12,,,,48,64
131040,note_on,0,0,13,,,,,,,,12,,,,46,30
131040,note_on,0,0,8,,,,,,,,6,,,,46,45
131040,note_on,0,0,1,,,,,,,,0,,,,70,34
131040,note_on,0,0,3,,,,,,,,1,,,,82,51
131040,note_off,240,0,3,,,,,,,,1,,,,81,64
131040,note_off,240,0,8,,,,,,,,6,,,,48,64
131040,note_off,240,0,2,,,,,,,,0,,,,48,64
131040,note_on,0,0,2,,,,,,,,0,,,,46,30
131040,note_off,240,0,4,,,,,,,,2,,,,81,64
131040,set_tempo,240,1,0,1578947,,,,,,,,,,,,
131160,note_on,0,0,1,,,,,,,,0,,,,58,35
131160,note_off,120,0,1,,,,,,,,0,,,,70,64
131280,note_on,0,0,3,,,,,,,,1,,,,84,54
131280,note_on,0,0,8,,,,,,,,6,,,,45,45
131280,note_off,240,0,13,,,,,,,,12,,,,46,64
131280,note_on,0,0,13,,,,,,,,12,,,,45,30
131280,note_off,240,0,2,,,,,,,,0,,,,46,64
131280,note_on,0,0,2,,,,,,,,0,,,,45,30
131280,note_off,240,0,3,,,,,,,,1,,,,82,64
131280,note_off,240,0,8,,,,,,,,6,,,,46,64
131280,note_off,120,0,1,,,,,,,,0,,,,58,64
131280,note_off,240,0,4,,,,,,,,2,,,,82,64
131280,note_on,0,0,1,,,,,,,,0,,,,72,37
131280,note_on,0,0,4,,,,,,,,2,,,,84,39
131280,set_tempo,240,1,0,1666666,,,,,,,,,,,,
131400,note_on,0,0,1,,,,,,,,0,,,,69,39
131400,note_off,120,0,1,,,,,,,,0,,,,72,64
131520,note_off,240,0,2,,,,,,,,0,,,,45,64
131520,note_on,0,0,4,,,,,,,,2,,,,86,42
131520,note_off,240,0,4,,,,,,,,2,,,,84,64
131520,note_on,0,0,1,,,,,,,,0,,,,74,41
131520,note_off,240,0,13,,,,,,,,12,,,,45,64
131520,note_on,0,0,13,,,,,,,,12,,,,43,30
131520,note_off,120,0,1,,,,,,,,0,,,,69,64
131520,note_on,0,0,3,,,,,,,,1,,,,86,57
131520,note_on,0,0,8,,,,,,,,6,,,,43,45
131520,note_off,240,0,8,,,,,,,,6,,,,45,64
131520,note_off,240,0,3,,,,,,,,1,,,,84,64
131520,note_on,0,0,2,,,,,,,,0,,,,43,30
131640,note_on,0,0,1,,,,,,,,0,,,,67,43
131640,note_off,120,0,1,,,,,,,,0,,,,74,64
131755,note_off,235,0,3,,,,,,,,1,,,,86,64
131755,note_off,235,0,13,,,,,,,,12,,,,43,64
131755,note_off,235,0,8,,,,,,,,6,,,,43,64
131755,note_off,235,0,4,,,,,,,,2,,,,86,64
131755,note_off,235,0,2,,,,,,,,0,,,,43,64
131760,note_off,120,0,1,,,,,,,,0,,,,67,64
131760,note_on,5,0,13,,,,,,,,12,,,,48,30
131760,note_on,5,0,4,,,,,,,,2,,,,75,45
131760,note_on,5,0,3,,,,,,,,1,,,,75,60
131760,note_on,5,0,8,,,,,,,,6,,,,48,45
131760,note_on,0,0,1,,,,,,,,0,,,,63,45
131760,note_on,5,0,2,,,,,,,,0,,,,48,30
131880,note_on,0,0,1,,,,,,,,0,,,,67,45
131880,note_off,120,0,1,,,,,,,,0,,,,63,64
132000,note_on,0,0,1,,,,,,,,0,,,,62,45
132000,note_on,0,0,4,,,,,,,,2,,,,74,45
132000,note_on,0,0,3,,,,,,,,1,,,,74,60
132000,note_off,240,0,4,,,,,,,,2,,,,75,64
132000,note_off,120,0,1,,,,,,,,0,,,,67,64
132000,note_off,240,0,3,,,,,,,,1,,,,75,64
132120,note_off,120,0,1,,,,,,,,0,,,,62,64
132120,note_on,0,0,1,,,,,,,,0,,,,67,45
132240,note_off,240,0,3,,,,,,,,1,,,,74,64
132240,note_on,0,0,3,,,,,,,,1,,,,72,60
132240,note_off,120,0,1,,,,,,,,0,,,,67,64
132240,note_on,0,0,1,,,,,,,,0,,,,60,45
132240,note_off,240,0,4,,,,,,,,2,,,,74,64
132240,note_on,0,0,4,,,,,,,,2,,,,72,45
132360,note_off,120,0,1,,,,,,,,0,,,,60,64
132360,note_on,0,0,1,,,,,,,,0,,,,67,45
132475,note_off,235,0,3,,,,,,,,1,,,,72,64
132475,note_off,235,0,4,,,,,,,,2,,,,72,64
132480,note_on,5,0,4,,,,,,,,2,,,,80,45
132480,note_on,5,0,3,,,,,,,,1,,,,80,60
132480,note_off,120,0,1,,,,,,,,0,,,,67,64
132480,set_tempo,1200,1,0,1363636,,,,,,,,,,,,
132480,note_on,0,0,1,,,,,,,,0,,,,68,45
132600,note_on,0,0,1,,,,,,,,0,,,,70,45
132600,note_on,0,0,4,,,,,,,,2,,,,82,45
132600,note_off,120,0,4,,,,,,,,2,,,,80,64
132600,note_off,120,0,1,,,,,,,,0,,,,68,64
132600,note_on,0,0,3,,,,,,,,1,,,,82,60
132600,note_off,120,0,3,,,,,,,,1,,,,80,64
132720,note_on,0,0,3,,,,,,,,1,,,,79,60
132720,note_off,120,0,3,,,,,,,,1,,,,82,64
132720,note_on,0,0,1,,,,,,,,0,,,,67,45
132720,note_off,120,0,4,,,,,,,,2,,,,82,64
132720,note_on,0,0,4,,,,,,,,2,,,,79,45
132720,note_off,120,0,1,,,,,,,,0,,,,70,64
132840,note_on,0,0,3,,,,,,,,1,,,,80,60
132840,note_off,120,0,3,,,,,,,,1,,,,79,64
132840,note_on,0,0,1,,,,,,,,0,,,,68,45
132840,note_off,120,0,1,,,,,,,,0,,,,67,64
132840,note_off,120,0,4,,,,,,,,2,,,,79,64
132840,note_on,0,0,4,,,,,,,,2,,,,80,45
132960,note_on,0,0,3,,,,,,,,1,,,,78,60
132960,note_on,0,0,4,,,,,,,,2,,,,78,45
132960,set_tempo,480,1,0,1578947,,,,,,,,,,,,
132960,note_off,120,0,1,,,,,,,,0,,,,68,64
132960,note_on,0,0,1,,,,,,,,0,,,,66,45
132960,note_off,120,0,4,,,,,,,,2,,,,80,64
132960,note_off,120,0,3,,,,,,,,1,,,,80,64
133195,note_off,235,0,4,,,,,,,,2,,,,78,64
133195,note_off,235,0,3,,,,,,,,1,,,,78,64
133200,note_on,5,0,4,,,,,,,,2,,,,84,42
133200,note_on,0,0,1,,,,,,,,0,,,,72,42
133200,note_off,240,0,1,,,,,,,,0,,,,66,64
133200,set_tempo,240,1,0,1333333,,,,,,,,,,,,
133200,note_on,5,0,3,,,,,,,,1,,,,84,57
133320,note_on,0,0,3,,,,,,,,1,,,,86,55
133320,note_off,120,0,3,,,,,,,,1,,,,84,64
133320,note_on,0,0,4,,,,,,,,2,,,,86,40
133320,note_off,120,0,4,,,,,,,,2,,,,84,64
133320,note_on,0,0,1,,,,,,,,0,,,,74,40
133320,note_off,120,0,1,,,,,,,,0,,,,72,64
133440,note_off,120,0,4,,,,,,,,2,,,,86,64
133440,note_off,120,0,3,,,,,,,,1,,,,86,64
133440,note_on,0,0,1,,,,,,,,0,,,,70,38
133440,note_off,120,0,1,,,,,,,,0,,,,74,64
133440,note_on,0,0,4,,,,,,,,2,,,,82,38
133440,note_on,0,0,3,,,,,,,,1,,,,82,53
133560,note_on,0,0,4,,,,,,,,2,,,,84,36
133560,note_off,120,0,4,,,,,,,,2,,,,82,64
133560,note_on,0,0,1,,,,,,,,0,,,,72,36
133560,note_off,120,0,1,,,,,,,,0,,,,70,64
133560,note_on,0,0,3,,,,,,,,1,,,,84,51
133560,note_off,120,0,3,,,,,,,,1,,,,82,64
133680,note_off,120,0,3,,,,,,,,1,,,,84,64
133680,note_on,0,0,3,,,,,,,,1,,,,80,49
133680,note_off,120,0,4,,,,,,,,2,,,,84,64
133680,set_tempo,480,1,0,1578947,,,,,,,,,,,,
133680,note_on,0,0,4,,,,,,,,2,,,,80,34
133680,note_on,0,0,1,,,,,,,,0,,,,68,34
133680,note_off,120,0,1,,,,,,,,0,,,,72,64
133915,note_off,235,0,3,,,,,,,,1,,,,80,64
133915,note_off,235,0,4,,,,,,,,2,,,,80,64
133920,set_tempo,240,1,0,1666666,,,,,,,,,,,,
133920,note_off,240,0,1,,,,,,,,0,,,,68,64
133920,note_on,0,0,1,,,,,,,,0,,,,75,30
133920,note_on,5,0,4,,,,,,,,2,,,,87,30
133920,note_on,5,0,3,,,,,,,,1,,,,87,45
134160,note_off,240,0,1,,,,,,,,0,,,,75,64
134160,note_off,240,0,3,,,,,,,,1,,,,87,64
134160,note_on,0,0,1,,,,,,,,0,,,,74,30
134160,note_on,0,0,4,,,,,,,,2,,,,86,30
134160,note_on,0,0,3,,,,,,,,1,,,,86,45
134160,note_off,240,0,4,,,,,,,,2,,,,87,64
134400,note_off,240,0,3,,,,,,,,1,,,,86,64
134400,note_on,0,0,1,,,,,,,,0,,,,72,30
134400,note_off,240,0,1,,,,,,,,0,,,,74,64
134400,note_on,0,0,3,,,,,,,,1,,,,84,45
134400,note_on,0,0,4,,,,,,,,2,,,,84,30
134400,note_off,240,0,4,,,,,,,,2,,,,86,64
134640,note_off,240,0,3,,,,,,,,1,,,,84,64
134640,note_off,240,0,1,,,,,,,,0,,,,72,64
134640,note_on,0,0,3,,,,,,,,1,,,,82,45
134640,note_on,0,0,4,,,,,,,,2,,,,82,30
134640,note_on,0,0,1,,,,,,,,0,,,,70,30
134640,note_off,240,0,4,,,,,,,,2,,,,84,64
134880,note_off,240,0,4,,,,,,,,2,,,,82,64
134880,note_on,0,0,4,,,,,,,,2,,,,80,30
134880,note_off,240,0,1,,,,,,,,0,,,,70,64
134880,note_on,0,0,1,,,,,,,,0,,,,68,30
134880,note_off,240,0,3,,,,,,,,1,,,,82,64
134880,note_on,0,0,3,,,,,,,,1,,,,80,45
135120,note_off,240,0,1,,,,,,,,0,,,,68,64
135120,note_on,0,0,1,,,,,,,,0,,,,65,30
135280,note_off,400,0,3,,,,,,,,1,,,,80,64
135280,note_off,400,0,4,,,,,,,,2,,,,80,64
135360,note_on,0,0,1,,,,,,,,0,,,,72,30
135360,note_off,240,0,1,,,,,,,,0,,,,65,64
135360,note_on,80,0,3,,,,,,,,1,,,,84,45
135360,note_on,80,0,4,,,,,,,,2,,,,84,30
135600,note_on,0,0,4,,,,,,,,2,,,,82,31
135600,note_off,240,0,4,,,,,,,,2,,,,84,64
135600,note_on,0,0,1,,,,,,,,0,,,,70,31
135600,note_off,240,0,1,,,,,,,,0,,,,72,64
135600,note_off,240,0,3,,,,,,,,1,,,,84,64
135600,note_on,0,0,3,,,,,,,,1,,,,82,46
135840,note_off,240,0,4,,,,,,,,2,,,,82,64
135840,note_off,240,0,3,,,,,,,,1,,,,82,64
135840,note_on,0,0,4,,,,,,,,2,,,,80,32
135840,note_off,240,0,1,,,,,,,,0,,,,70,64
135840,note_on,0,0,1,,,,,,,,0,,,,68,32
135840,note_on,0,0,3,,,,,,,,1,,,,80,47
136080,note_off,240,0,3,,,,,,,,1,,,,80,64
136080,note_on,0,0,3,,,,,,,,1,,,,79,48
136080,note_off,240,0,1,,,,,,,,0,,,,68,64
136080,note_off,240,0,4,,,,,,,,2,,,,80,64
136080,note_on,0,0,4,,,,,,,,2,,,,79,33
136080,note_on,0,0,1,,,,,,,,0,,,,67,33
136320,note_on,0,0,4,,,,,,,,2,,,,78,34
136320,note_off,240,0,3,,,,,,,,1,,,,79,64
136320,note_on,0,0,3,,,,,,,,1,,,,78,49
136320,note_off,240,0,1,,,,,,,,0,,,,67,64
136320,note_on,0,0,1,,,,,,,,0,,,,66,34
136320,note_off,240,0,4,,,,,,,,2,,,,79,64
136560,note_on,0,0,1,,,,,,,,0,,,,62,35
136560,note_off,240,0,1,,,,,,,,0,,,,66,64
136720,note_off,400,0,4,,,,,,,,2,,,,78,64
136720,note_off,400,0,3,,,,,,,,1,,,,78,64
136720,note_off,4960,0,8,,,,,,,,6,,,,48,64
136720,note_off,4960,0,13,,,,,,,,12,,,,48,64
136720,note_off,4960,0,2,,,,,,,,0,,,,48,64
136800,note_on,80,0,8,,,,,,,,6,,,,55,45
136800,note_on,80,0,13,,,,,,,,12,,,,55,30
136800,note_on,80,0,2,,,,,,,,0,,,,55,30
136800,note_off,240,0,1,,,,,,,,0,,,,62,64
136800,note_on,80,0,4,,,,,,,,2,,,,79,36
136800,note_on,0,0,1,,,,,,,,0,,,,67,36
136800,note_on,80,0,3,,,,,,,,1,,,,79,51
137040,note_off,240,0,4,,,,,,,,2,,,,79,64
137040,note_on,0,0,3,,,,,,,,1,,,,77,52
137040,note_off,240,0,3,,,,,,,,1,,,,79,64
137040,note_off,240,0,1,,,,,,,,0,,,,67,64
137040,note_on,0,0,1,,,,,,,,0,,,,65,37
137040,note_on,0,0,4,,,,,,,,2,,,,77,37
137280,note_off,240,0,1,,,,,,,,0,,,,65,64
137280,note_on,0,0,1,,,,,,,,0,,,,63,38
137280,note_on,0,0,4,,,,,,,,2,,,,75,38
137280,note_off,240,0,4,,,,,,,,2,,,,77,64
137280,note_off,240,0,3,,,,,,,,1,,,,77,64
137280,note_on,0,0,3,,,,,,,,1,,,,75,53
137520,note_on,0,0,4,,,,,,,,2,,,,74,39
137520,note_off,240,0,4,,,,,,,,2,,,,75,64
137520,note_on,0,0,3,,,,,,,,1,,,,74,54
137520,note_off,240,0,1,,,,,,,,0,,,,63,64
137520,note_on,0,0,1,,,,,,,,0,,,,62,39
137520,note_off,240,0,3,,,,,,,,1,,,,75,64
137760,note_on,0,0,1,,,,,,,,0,,,,61,41
137760,note_off,240,0,4,,,,,,,,2,,,,74,64
137760,note_on,0,0,3,,,,,,,,1,,,,73,56
137760,note_off,240,0,1,,,,,,,,0,,,,62,64
137760,note_on,0,0,4,,,,,,,,2,,,,73,41
137760,note_off,240,0,3,,,,,,,,1,,,,74,64
138000,note_off,240,0,1,,,,,,,,0,,,,61,64
138000,note_on,0,0,1,,,,,,,,0,,,,55,43
138160,note_off,1360,0,8,,,,,,,,6,,,,55,64
138160,note_off,400,0,4,,,,,,,,2,,,,73,64
138160,note_off,1360,0,13,,,,,,,,12,,,,55,64
138160,note_off,1360,0,2,,,,,,,,0,,,,55,64
138160,note_off,400,0,3,,,,,,,,1,,,,73,64
138240,note_on,80,0,3,,,,,,,,1,,,,74,60
138240,note_on,26000,0,15,,,,,,,,14,,,,42,45
138240,note_on,80,0,2,,,,,,,,0,,,,54,30
138240,note_on,80,0,8,,,,,,,,6,,,,54,45
138240,note_on,80,0,4,,,,,,,,2,,,,74,45
138240,note_off,240,0,1,,,,,,,,0,,,,55,64
138240,note_on,0,0,1,,,,,,,,0,,,,62,45
138240,note_on,80,0,13,,,,,,,,12,,,,54,30
138480,note_on,0,0,15,,,,,,,,14,,,,38,45
138480,note_off,240,0,15,,,,,,,,14,,,,42,64
138480,note_on,0,0,13,,,,,,,,12,,,,50,30
138480,note_off,240,0,13,,,,,,,,12,,,,54,64
138480,note_off,240,0,2,,,,,,,,0,,,,54,64
138480,note_off,240,0,8,,,,,,,,6,,,,54,64
138480,note_on,0,0,8,,,,,,,,6,,,,50,45
138480,note_on,0,0,2,,,,,,,,0,,,,50,30
138600,note_off,360,0,1,,,,,,,,0,,,,62,64
138600,note_on,0,0,1,,,,,,,,0,,,,64,45
138600,note_on,0,0,3,,,,,,,,1,,,,76,60
138600,note_off,360,0,3,,,,,,,,1,,,,74,64
138600,set_tempo,4680,1,0,1395348,,,,,,,,,,,,
138600,note_off,360,0,4,,,,,,,,2,,,,74,64
138600,note_on,0,0,4,,,,,,,,2,,,,76,45
138660,note_on,0,0,3,,,,,,,,1,,,,78,60
138660,note_off,60,0,4,,,,,,,,2,,,,76,64
138660,note_off,60,0,1,,,,,,,,0,,,,64,64
138660,note_on,0,0,1,,,,,,,,0,,,,66,45
138660,note_on,0,0,4,,,,,,,,2,,,,78,45
138660,note_off,60,0,3,,,,,,,,1,,,,76,64
138720,note_on,0,0,2,,,,,,,,0,,,,55,30
138720,note_on,0,0,1,,,,,,,,0,,,,67,45
138720,note_off,240,0,15,,,,,,,,14,,,,38,64
138720,note_off,60,0,1,,,,,,,,0,,,,66,64
138720,note_on,0,0,8,,,,,,,,6,,,,55,45
138720,note_off,240,0,8,,,,,,,,6,,,,50,64
138720,note_off,240,0,13,,,,,,,,12,,,,50,64
138720,note_on,0,0,13,,,,,,,,12,,,,55,30
138720,set_tempo,120,1,0,1463414,,,,,,,,,,,,
138720,note_on,0,0,15,,,,,,,,14,,,,43,45
138720,note_off,240,0,2,,,,,,,,0,,,,50,64
138720,note_off,60,0,4,,,,,,,,2,,,,78,64
138720,note_off,60,0,3,,,,,,,,1,,,,78,64
138720,note_on,0,0,3,,,,,,,,1,,,,79,60
138720,note_on,0,0,4,,,,,,,,2,,,,79,45
138840,note_on,0,0,3,,,,,,,,1,,,,81,60
138840,note_off,120,0,3,,,,,,,,1,,,,79,64
138840,note_on,0,0,1,,,,,,,,0,,,,69,45
138840,note_off,120,0,1,,,,,,,,0,,,,67,64
138840,note_off,120,0,4,,,,,,,,2,,,,79,64
138840,note_on,0,0,4,,,,,,,,2,,,,81,45
138900,note_on,0,0,4,,,,,,,,2,,,,82,45
138900,note_off,60,0,4,,,,,,,,2,,,,81,64
138900,note_off,60,0,1,,,,,,,,0,,,,69,64
138900,note_on,0,0,1,,,,,,,,0,,,,70,45
138900,note_off,60,0,3,,,,,,,,1,,,,81,64
138900,note_on,0,0,3,,,,,,,,1,,,,82,60
138955,note_off,235,0,15,,,,,,,,14,,,,43,64
138955,note_off,235,0,2,,,,,,,,0,,,,55,64
138955,note_off,235,0,13,,,,,,,,12,,,,55,64
138955,note_off,235,0,8,,,,,,,,6,,,,55,64
138960,note_on,0,0,3,,,,,,,,1,,,,84,60
138960,note_on,0,0,1,,,,,,,,0,,,,72,45
138960,note_off,60,0,1,,,,,,,,0,,,,70,64
138960,note_on,0,0,4,,,,,,,,2,,,,84,45
138960,note_on,5,0,15,,,,,,,,14,,,,39,45
138960,note_on,5,0,13,,,,,,,,12,,,,51,30
138960,note_on,5,0,2,,,,,,,,0,,,,51,30
138960,set_tempo,240,1,0,1578947,,,,,,,,,,,,
138960,note_off,60,0,3,,,,,,,,1,,,,82,64
138960,note_off,60,0,4,,,,,,,,2,,,,82,64
138960,note_on,5,0,8,,,,,,,,6,,,,51,45
139040,note_off,80,0,15,,,,,,,,14,,,,39,64
139040,note_off,80,0,2,,,,,,,,0,,,,51,64
139040,note_off,80,0,8,,,,,,,,6,,,,51,64
139040,note_off,80,0,13,,,,,,,,12,,,,51,64
139080,note_on,0,0,4,,,,,,,,2,,,,81,45
139080,note_on,0,0,3,,,,,,,,1,,,,81,60
139080,note_off,120,0,3,,,,,,,,1,,,,84,64
139080,set_tempo,120,1,0,1666666,,,,,,,,,,,,
139080,note_on,40,0,15,,,,,,,,14,,,,36,45
139080,note_off,120,0,4,,,,,,,,2,,,,84,64
139080,note_off,120,0,1,,,,,,,,0,,,,72,64
139080,note_on,0,0,1,,,,,,,,0,,,,69,45
139080,note_on,40,0,13,,,,,,,,12,,,,48,30
139080,note_on,40,0,8,,,,,,,,6,,,,48,45
139080,note_on,40,0,2,,,,,,,,0,,,,48,30
139160,note_off,80,0,2,,,,,,,,0,,,,48,64
139160,note_off,80,0,15,,,,,,,,14,,,,36,64
139160,note_off,80,0,8,,,,,,,,6,,,,48,64
139160,note_off,80,0,13,,,,,,,,12,,,,48,64
139195,note_off,115,0,1,,,,,,,,0,,,,69,64
139200,note_on,40,0,15,,,,,,,,14,,,,38,45
139200,note_on,0,0,1,,,,,,,,0,,,,66,45
139200,note_on,0,0,1,,,,,,,,0,,,,69,45
139200,note_on,40,0,2,,,,,,,,0,,,,50,30
139200,set_tempo,120,1,0,1764705,,,,,,,,,,,,
139200,note_on,0,0,4,,,,,,,,2,,,,78,45
139200,note_on,40,0,8,,,,,,,,6,,,,50,45
139200,note_on,0,0,4,,,,,,,,2,,,,79,45
139200,note_off,120,0,4,,,,,,,,2,,,,81,64
139200,note_on,40,0,13,,,,,,,,12,,,,50,30
139200,note_on,5,0,1,,,,,,,,0,,,,62,45
139200,note_on,0,0,3,,,,,,,,1,,,,78,60
139200,note_on,0,0,3,,,,,,,,1,,,,79,60
139200,note_off,120,0,3,,,,,,,,1,,,,81,64
139220,note_on,0,0,4,,,,,,,,2,,,,79,45
139220,note_off,20,0,4,,,,,,,,2,,,,78,64
139230,note_off,30,0,3,,,,,,,,1,,,,78,64
139230,note_on,0,0,3,,,,,,,,1,,,,79,60
139240,note_off,20,0,4,,,,,,,,2,,,,79,64
139240,note_on,0,0,4,,,,,,,,2,,,,78,45
139260,note_off,0,0,3,,,,,,,,1,,,,79,64
139260,note_on,0,0,3,,,,,,,,1,,,,78,60
139260,note_off,30,0,3,,,,,,,,1,,,,79,64
139260,note_on,0,0,4,,,,,,,,2,,,,79,45
139260,note_off,20,0,4,,,,,,,,2,,,,79,64
139260,note_off,0,0,4,,,,,,,,2,,,,78,64
139280,note_off,80,0,2,,,,,,,,0,,,,50,64
139280,note_off,20,0,4,,,,,,,,2,,,,79,64
139280,note_on,0,0,4,,,,,,,,2,,,,78,45
139290,note_off,30,0,3,,,,,,,,1,,,,78,64
139290,note_on,0,0,3,,,,,,,,1,,,,79,60
139300,note_on,0,0,4,,,,,,,,2,,,,79,45
139300,note_off,20,0,4,,,,,,,,2,,,,78,64
139320,note_on,0,0,3,,,,,,,,1,,,,78,60
139320,note_off,30,0,3,,,,,,,,1,,,,79,64
139320,note_off,20,0,4,,,,,,,,2,,,,79,64
139320,note_on,0,0,4,,,,,,,,2,,,,78,45
139340,note_off,20,0,4,,,,,,,,2,,,,78,64
139340,note_on,0,0,4,,,,,,,,2,,,,79,45
139350,note_on,0,0,3,,,,,,,,1,,,,79,60
139350,note_off,30,0,3,,,,,,,,1,,,,78,64
139360,note_off,20,0,4,,,,,,,,2,,,,79,64
139360,note_on,0,0,4,,,,,,,,2,,,,78,45
139380,note_off,30,0,3,,,,,,,,1,,,,79,64
139380,note_on,0,0,4,,,,,,,,2,,,,79,45
139380,note_on,0,0,3,,,,,,,,1,,,,78,60
139380,note_off,20,0,4,,,,,,,,2,,,,78,64
139400,note_on,0,0,4,,,,,,,,2,,,,78,45
139400,note_off,20,0,4,,,,,,,,2,,,,79,64
139410,note_off,30,0,3,,,,,,,,1,,,,78,64
139410,note_on,0,0,3,,,,,,,,1,,,,79,60
139420,note_off,20,0,4,,,,,,,,2,,,,78,64
139420,note_on,0,0,4,,,,,,,,2,,,,79,45
139435,note_off,0,0,1,,,,,,,,0,,,,62,64
139435,note_off,0,0,1,,,,,,,,0,,,,66,64
139435,note_off,235,0,15,,,,,,,,14,,,,38,64
139435,note_off,235,0,13,,,,,,,,12,,,,50,64
139435,note_off,235,0,8,,,,,,,,6,,,,50,64
139435,note_off,235,0,1,,,,,,,,0,,,,69,64
139440,note_on,160,0,2,,,,,,,,0,,,,38,30
139440,note_off,20,0,4,,,,,,,,2,,,,79,64
139440,note_on,0,0,4,,,,,,,,2,,,,78,45
139440,note_on,5,0,8,,,,,,,,6,,,,38,45
139440,note_on,5,0,13,,,,,,,,12,,,,38,30
139440,note_off,30,0,3,,,,,,,,1,,,,79,64
139440,note_on,0,0,3,,,,,,,,1,,,,78,60
139440,note_on,5,0,15,,,,,,,,14,,,,26,45
139440,note_on,5,0,1,,,,,,,,0,,,,60,45
139440,note_on,0,0,1,,,,,,,,0,,,,69,45
139440,note_on,0,0,1,,,,,,,,0,,,,66,45
139440,note_on,0,0,1,,,,,,,,0,,,,62,45
139460,note_off,20,0,4,,,,,,,,2,,,,78,64
139460,note_on,0,0,4,,,,,,,,2,,,,79,45
139470,note_off,30,0,3,,,,,,,,1,,,,78,64
139470,note_on,0,0,3,,,,,,,,1,,,,79,60
139480,note_off,20,0,4,,,,,,,,2,,,,79,64
139480,note_on,0,0,4,,,,,,,,2,,,,78,45
139500,note_on,0,0,4,,,,,,,,2,,,,79,45
139500,note_off,20,0,4,,,,,,,,2,,,,78,64
139500,note_off,30,0,3,,,,,,,,1,,,,79,64
139500,note_on,0,0,3,,,,,,,,1,,,,78,60
139520,note_off,80,0,2,,,,,,,,0,,,,38,64
139520,note_on,0,0,4,,,,,,,,2,,,,78,45
139520,note_off,20,0,4,,,,,,,,2,,,,79,64
139530,note_on,0,0,3,,,,,,,,1,,,,79,60
139530,note_off,30,0,3,,,,,,,,1,,,,78,64
139540,note_on,0,0,4,,,,,,,,2,,,,79,45
139540,note_off,20,0,4,,,,,,,,2,,,,78,64
139555,note_off,25,0,3,,,,,,,,1,,,,79,64
139560,note_off,20,0,4,,,,,,,,2,,,,79,64
139560,note_on,5,0,3,,,,,,,,1,,,,79,60
139560,note_on,0,0,4,,,,,,,,2,,,,79,45
139675,note_off,235,0,13,,,,,,,,12,,,,38,64
139675,end_of_track,0,1,1,,,,,,,,,,,,,
139675,note_off,0,0,1,,,,,,,,0,,,,60,64
139675,note_off,0,0,1,,,,,,,,0,,,,62,64
139675,note_off,235,0,8,,,,,,,,6,,,,38,64
139675,note_off,235,0,15,,,,,,,,14,,,,26,64
139675,note_off,235,0,1,,,,,,,,0,,,,69,64
139675,note_off,0,0,1,,,,,,,,0,,,,66,64
139675,note_off,115,0,4,,,,,,,,2,,,,79,64
139675,note_off,115,0,3,,,,,,,,1,,,,79,64
139675,end_of_track,0,1,3,,,,,,,,,,,,,
139675,end_of_track,0,1,4,,,,,,,,,,,,,
139680,note_on,5,0,15,,,,,,,,14,,,,31,92
139680,note_on,27600,0,7,,,,,,,,5,,,,62,92
139680,note_on,27600,0,5,,,,,,,,3,,,,79,92
139680,note_on,160,0,2,,,,,,,,0,,,,43,92
139680,note_on,27600,0,10,,,,,,,,8,,,,79,92
139680,note_on,27600,0,12,,,,,,,,11,,,,62,92
139680,set_tempo,480,1,0,833333,,,,,,,,,,,,
139680,note_on,5,0,8,,,,,,,,6,,,,43,92
139680,note_on,27440,0,14,,,,,,,,13,,,,31,92
139680,note_on,27600,0,11,,,,,,,,10,,,,70,92
139680,note_on,27440,0,9,,,,,,,,7,,,,31,92
139680,note_on,27600,0,6,,,,,,,,4,,,,70,92
139680,note_on,5,0,13,,,,,,,,12,,,,43,92
139735,note_off,55,0,5,,,,,,,,3,,,,79,64
139735,note_off,55,0,11,,,,,,,,10,,,,70,64
139735,note_off,55,0,10,,,,,,,,8,,,,79,64
139735,note_off,55,0,6,,,,,,,,4,,,,70,64
139740,note_on,5,0,6,,,,,,,,4,,,,62,92
139740,note_on,5,0,10,,,,,,,,8,,,,62,92
139740,note_on,5,0,11,,,,,,,,10,,,,62,92
139740,note_on,5,0,5,,,,,,,,3,,,,62,92
139795,note_off,55,0,6,,,,,,,,4,,,,62,64
139795,note_off,115,0,7,,,,,,,,5,,,,62,64
139795,note_off,55,0,5,,,,,,,,3,,,,62,64
139795,note_off,55,0,11,,,,,,,,10,,,,62,64
139795,note_off,55,0,10,,,,,,,,8,,,,62,64
139795,note_off,115,0,12,,,,,,,,11,,,,62,64
139800,note_on,5,0,5,,,,,,,,3,,,,74,92
139800,note_on,5,0,6,,,,,,,,4,,,,70,92
139800,note_on,5,0,12,,,,,,,,11,,,,62,92
139800,note_on,5,0,10,,,,,,,,8,,,,74,92
139800,note_on,5,0,11,,,,,,,,10,,,,70,92
139800,note_on,5,0,7,,,,,,,,5,,,,62,92
139855,note_off,55,0,10,,,,,,,,8,,,,74,64
139855,note_off,55,0,11,,,,,,,,10,,,,70,64
139855,note_off,55,0,6,,,,,,,,4,,,,70,64
139855,note_off,55,0,5,,,,,,,,3,,,,74,64
139860,note_on,5,0,6,,,,,,,,4,,,,62,92
139860,note_on,5,0,11,,,,,,,,10,,,,62,92
139860,note_on,5,0,5,,,,,,,,3,,,,62,92
139860,note_on,5,0,10,,,,,,,,8,,,,62,92
139915,note_off,235,0,8,,,,,,,,6,,,,43,64
139915,note_off,55,0,10,,,,,,,,8,,,,62,64
139915,note_off,235,0,2,,,,,,,,0,,,,43,64
139915,note_off,115,0,12,,,,,,,,11,,,,62,64
139915,note_off,55,0,11,,,,,,,,10,,,,62,64
139915,note_off,235,0,9,,,,,,,,7,,,,31,64
139915,note_off,235,0,13,,,,,,,,12,,,,43,64
139915,note_off,55,0,6,,,,,,,,4,,,,62,64
139915,note_off,115,0,7,,,,,,,,5,,,,62,64
139915,note_off,55,0,5,,,,,,,,3,,,,62,64
139915,note_off,235,0,14,,,,,,,,13,,,,31,64
139915,note_off,235,0,15,,,,,,,,14,,,,31,64
139920,note_on,5,0,8,,,,,,,,6,,,,43,92
139920,note_on,5,0,6,,,,,,,,4,,,,70,92
139920,note_on,5,0,10,,,,,,,,8,,,,74,92
139920,note_on,5,0,2,,,,,,,,0,,,,43,92
139920,note_on,5,0,15,,,,,,,,14,,,,31,92
139920,note_on,5,0,12,,,,,,,,11,,,,62,92
139920,note_on,5,0,9,,,,,,,,7,,,,31,92
139920,note_on,5,0,5,,,,,,,,3,,,,74,92
139920,note_on,5,0,11,,,,,,,,10,,,,70,92
139920,note_on,5,0,14,,,,,,,,13,,,,31,92
139920,note_on,5,0,7,,,,,,,,5,,,,62,92
139920,note_on,5,0,13,,,,,,,,12,,,,43,92
139975,note_off,55,0,10,,,,,,,,8,,,,74,64
139975,note_off,55,0,11,,,,,,,,10,,,,70,64
139975,note_off,55,0,5,,,,,,,,3,,,,74,64
139975,note_off,55,0,6,,,,,,,,4,,,,70,64
139980,note_on,5,0,6,,,,,,,,4,,,,62,92
139980,note_on,5,0,11,,,,,,,,10,,,,62,92
139980,note_on,5,0,10,,,,,,,,8,,,,62,92
139980,note_on,5,0,5,,,,,,,,3,,,,62,92
140035,note_off,115,0,7,,,,,,,,5,,,,62,64
140035,note_off,115,0,12,,,,,,,,11,,,,62,64
140035,note_off,115,0,8,,,,,,,,6,,,,43,64
140035,note_off,55,0,6,,,,,,,,4,,,,62,64
140035,note_off,115,0,2,,,,,,,,0,,,,43,64
140035,note_off,115,0,14,,,,,,,,13,,,,31,64
140035,note_off,115,0,9,,,,,,,,7,,,,31,64
140035,note_off,115,0,13,,,,,,,,12,,,,43,64
140035,note_off,55,0,5,,,,,,,,3,,,,62,64
140035,note_off,55,0,10,,,,,,,,8,,,,62,64
140035,note_off,55,0,11,,,,,,,,10,,,,62,64
140040,note_on,5,0,13,,,,,,,,12,,,,43,92
140040,note_on,5,0,14,,,,,,,,13,,,,31,92
140040,note_on,5,0,5,,,,,,,,3,,,,74,92
140040,note_on,5,0,6,,,,,,,,4,,,,70,92
140040,note_on,5,0,10,,,,,,,,8,,,,74,92
140040,note_on,5,0,11,,,,,,,,10,,,,70,92
140040,note_on,5,0,8,,,,,,,,6,,,,43,92
140040,note_on,5,0,12,,,,,,,,11,,,,62,92
140040,note_on,5,0,2,,,,,,,,0,,,,43,92
140040,note_on,5,0,7,,,,,,,,5,,,,62,92
140040,note_on,5,0,9,,,,,,,,7,,,,31,92
140095,note_off,55,0,5,,,,,,,,3,,,,74,64
140095,note_off,55,0,11,,,,,,,,10,,,,70,64
140095,note_off,55,0,6,,,,,,,,4,,,,70,64
140095,note_off,55,0,10,,,,,,,,8,,,,74,64
140100,note_on,5,0,11,,,,,,,,10,,,,62,92
140100,note_on,5,0,5,,,,,,,,3,,,,62,92
140100,note_on,5,0,10,,,,,,,,8,,,,62,92
140100,note_on,5,0,6,,,,,,,,4,,,,62,92
140155,note_off,115,0,13,,,,,,,,12,,,,43,64
140155,note_off,235,0,15,,,,,,,,14,,,,31,64
140155,note_off,55,0,11,,,,,,,,10,,,,62,64
140155,note_off,115,0,9,,,,,,,,7,,,,31,64
140155,note_off,55,0,10,,,,,,,,8,,,,62,64
140155,note_off,115,0,8,,,,,,,,6,,,,43,64
140155,note_off,115,0,7,,,,,,,,5,,,,62,64
140155,note_off,55,0,5,,,,,,,,3,,,,62,64
140155,note_off,115,0,12,,,,,,,,11,,,,62,64
140155,note_off,115,0,14,,,,,,,,13,,,,31,64
140155,note_off,115,0,2,,,,,,,,0,,,,43,64
140155,note_off,55,0,6,,,,,,,,4,,,,62,64
140160,note_on,5,0,11,,,,,,,,10,,,,70,92
140160,note_on,5,0,9,,,,,,,,7,,,,31,92
140160,note_on,5,0,10,,,,,,,,8,,,,74,92
140160,note_on,5,0,5,,,,,,,,3,,,,74,92
140160,note_on,5,0,13,,,,,,,,12,,,,43,92
140160,note_on,5,0,6,,,,,,,,4,,,,70,92
140160,note_on,5,0,7,,,,,,,,5,,,,62,92
140160,note_on,5,0,12,,,,,,,,11,,,,62,92
140160,note_on,5,0,8,,,,,,,,6,,,,43,92
140160,note_on,5,0,14,,,,,,,,13,,,,31,92
140160,note_on,5,0,2,,,,,,,,0,,,,43,92
140160,note_on,5,0,15,,,,,,,,14,,,,31,92
140215,note_off,55,0,11,,,,,,,,10,,,,70,64
140215,note_off,55,0,5,,,,,,,,3,,,,74,64
140215,note_off,55,0,6,,,,,,,,4,,,,70,64
140215,note_off,55,0,10,,,,,,,,8,,,,74,64
140220,note_on,5,0,5,,,,,,,,3,,,,62,92
140220,note_on,5,0,11,,,,,,,,10,,,,62,92
140220,note_on,5,0,10,,,,,,,,8,,,,62,92
140220,note_on,5,0,6,,,,,,,,4,,,,62,92
140275,note_off,115,0,2,,,,,,,,0,,,,43,64
140275,note_off,115,0,13,,,,,,,,12,,,,43,64
140275,note_off,55,0,11,,,,,,,,10,,,,62,64
140275,note_off,115,0,15,,,,,,,,14,,,,31,64
140275,note_off,55,0,10,,,,,,,,8,,,,62,64
140275,note_off,55,0,6,,,,,,,,4,,,,62,64
140275,note_off,115,0,8,,,,,,,,6,,,,43,64
140275,note_off,115,0,12,,,,,,,,11,,,,62,64
140275,note_off,115,0,9,,,,,,,,7,,,,31,64
140275,note_off,115,0,14,,,,,,,,13,,,,31,64
140275,note_off,115,0,7,,,,,,,,5,,,,62,64
140275,note_off,55,0,5,,,,,,,,3,,,,62,64
140280,note_on,5,0,5,,,,,,,,3,,,,74,92
140280,note_on,5,0,2,,,,,,,,0,,,,55,92
140280,note_on,5,0,6,,,,,,,,4,,,,70,92
140280,note_on,5,0,7,,,,,,,,5,,,,62,92
140280,note_on,5,0,13,,,,,,,,12,,,,55,92
140280,note_on,5,0,14,,,,,,,,13,,,,43,92
140280,note_on,5,0,10,,,,,,,,8,,,,74,92
140280,note_on,5,0,11,,,,,,,,10,,,,70,92
140280,note_on,5,0,15,,,,,,,,14,,,,43,92
140280,note_on,5,0,9,,,,,,,,7,,,,43,92
140280,note_on,5,0,8,,,,,,,,6,,,,55,92
140280,note_on,5,0,12,,,,,,,,11,,,,62,92
140335,note_off,55,0,5,,,,,,,,3,,,,74,64
140335,note_off,55,0,11,,,,,,,,10,,,,70,64
140335,note_off,55,0,10,,,,,,,,8,,,,74,64
140335,note_off,55,0,6,,,,,,,,4,,,,70,64
140340,note_on,5,0,5,,,,,,,,3,,,,62,92
140340,note_on,5,0,11,,,,,,,,10,,,,62,92
140340,note_on,5,0,10,,,,,,,,8,,,,62,92
140340,note_on,5,0,6,,,,,,,,4,,,,62,92
140395,note_off,55,0,11,,,,,,,,10,,,,62,64
140395,note_off,55,0,6,,,,,,,,4,,,,62,64
140395,note_off,115,0,15,,,,,,,,14,,,,43,64
140395,note_off,55,0,10,,,,,,,,8,,,,62,64
140395,note_off,115,0,9,,,,,,,,7,,,,43,64
140395,note_off,115,0,12,,,,,,,,11,,,,62,64
140395,note_off,115,0,14,,,,,,,,13,,,,43,64
140395,note_off,115,0,2,,,,,,,,0,,,,55,64
140395,note_off,115,0,8,,,,,,,,6,,,,55,64
140395,note_off,55,0,5,,,,,,,,3,,,,62,64
140395,note_off,115,0,7,,,,,,,,5,,,,62,64
140395,note_off,115,0,13,,,,,,,,12,,,,55,64
140400,note_on,5,0,5,,,,,,,,3,,,,72,92
140400,note_on,5,0,9,,,,,,,,7,,,,38,92
140400,note_on,5,0,11,,,,,,,,10,,,,69,92
140400,note_on,5,0,12,,,,,,,,11,,,,66,92
140400,note_on,5,0,7,,,,,,,,5,,,,66,92
140400,note_on,5,0,10,,,,,,,,8,,,,72,92
140400,note_on,5,0,13,,,,,,,,12,,,,50,92
140400,note_on,5,0,8,,,,,,,,6,,,,50,92
140400,note_on,5,0,14,,,,,,,,13,,,,38,92
140400,note_on,5,0,6,,,,,,,,4,,,,69,92
140400,note_on,5,0,15,,,,,,,,14,,,,38,92
140400,note_on,5,0,2,,,,,,,,0,,,,50,92
140455,note_off,55,0,10,,,,,,,,8,,,,72,64
140455,note_off,55,0,5,,,,,,,,3,,,,72,64
140455,note_off,55,0,6,,,,,,,,4,,,,69,64
140455,note_off,55,0,11,,,,,,,,10,,,,69,64
140460,note_on,5,0,5,,,,,,,,3,,,,62,92
140460,note_on,5,0,11,,,,,,,,10,,,,62,92
140460,note_on,5,0,6,,,,,,,,4,,,,62,92
140460,note_on,5,0,10,,,,,,,,8,,,,62,92
140515,note_off,55,0,5,,,,,,,,3,,,,62,64
140515,note_off,55,0,11,,,,,,,,10,,,,62,64
140515,note_off,115,0,7,,,,,,,,5,,,,66,64
140515,note_off,115,0,12,,,,,,,,11,,,,66,64
140515,note_off,55,0,6,,,,,,,,4,,,,62,64
140515,note_off,55,0,10,,,,,,,,8,,,,62,64
140520,note_on,5,0,6,,,,,,,,4,,,,69,92
140520,note_on,5,0,5,,,,,,,,3,,,,72,92
140520,note_on,5,0,7,,,,,,,,5,,,,66,92
140520,note_on,5,0,12,,,,,,,,11,,,,66,92
140520,note_on,5,0,10,,,,,,,,8,,,,72,92
140520,note_on,5,0,11,,,,,,,,10,,,,69,92
140575,note_off,55,0,10,,,,,,,,8,,,,72,64
140575,note_off,55,0,11,,,,,,,,10,,,,69,64
140575,note_off,55,0,5,,,,,,,,3,,,,72,64
140575,note_off,55,0,6,,,,,,,,4,,,,69,64
140580,note_on,5,0,10,,,,,,,,8,,,,62,92
140580,note_on,5,0,11,,,,,,,,10,,,,62,92
140580,note_on,5,0,5,,,,,,,,3,,,,62,92
140580,note_on,5,0,6,,,,,,,,4,,,,62,92
140635,note_off,235,0,13,,,,,,,,12,,,,50,64
140635,note_off,235,0,2,,,,,,,,0,,,,50,64
140635,note_off,55,0,5,,,,,,,,3,,,,62,64
140635,note_off,115,0,12,,,,,,,,11,,,,66,64
140635,note_off,235,0,15,,,,,,,,14,,,,38,64
140635,note_off,235,0,8,,,,,,,,6,,,,50,64
140635,note_off,55,0,10,,,,,,,,8,,,,62,64
140635,note_off,235,0,14,,,,,,,,13,,,,38,64
140635,note_off,55,0,6,,,,,,,,4,,,,62,64
140635,note_off,235,0,9,,,,,,,,7,,,,38,64
140635,note_off,55,0,11,,,,,,,,10,,,,62,64
140635,note_off,115,0,7,,,,,,,,5,,,,66,64
140640,note_on,5,0,13,,,,,,,,12,,,,50,92
140640,note_on,5,0,14,,,,,,,,13,,,,38,92
140640,note_on,5,0,2,,,,,,,,0,,,,50,92
140640,note_on,5,0,12,,,,,,,,11,,,,66,92
140640,note_on,5,0,5,,,,,,,,3,,,,72,92
140640,note_on,5,0,15,,,,,,,,14,,,,38,92
140640,note_on,5,0,6,,,,,,,,4,,,,69,92
140640,note_on,5,0,9,,,,,,,,7,,,,38,92
140640,note_on,5,0,8,,,,,,,,6,,,,50,92
140640,note_on,5,0,11,,,,,,,,10,,,,69,92
140640,note_on,5,0,10,,,,,,,,8,,,,72,92
140640,note_on,5,0,7,,,,,,,,5,,,,66,92
140695,note_off,55,0,6,,,,,,,,4,,,,69,64
140695,note_off,55,0,11,,,,,,,,10,,,,69,64
140695,note_off,55,0,5,,,,,,,,3,,,,72,64
140695,note_off,55,0,10,,,,,,,,8,,,,72,64
140700,note_on,5,0,6,,,,,,,,4,,,,62,92
140700,note_on,5,0,10,,,,,,,,8,,,,62,92
140700,note_on,5,0,5,,,,,,,,3,,,,62,92
140700,note_on,5,0,11,,,,,,,,10,,,,62,92
140755,note_off,55,0,11,,,,,,,,10,,,,62,64
140755,note_off,55,0,10,,,,,,,,8,,,,62,64
140755,note_off,55,0,5,,,,,,,,3,,,,62,64
140755,note_off,115,0,13,,,,,,,,12,,,,50,64
140755,note_off,115,0,7,,,,,,,,5,,,,66,64
140755,note_off,115,0,2,,,,,,,,0,,,,50,64
140755,note_off,115,0,9,,,,,,,,7,,,,38,64
140755,note_off,115,0,14,,,,,,,,13,,,,38,64
140755,note_off,55,0,6,,,,,,,,4,,,,62,64
140755,note_off,115,0,8,,,,,,,,6,,,,50,64
140755,note_off,115,0,12,,,,,,,,11,,,,66,64
140760,note_on,5,0,10,,,,,,,,8,,,,72,92
140760,note_on,5,0,9,,,,,,,,7,,,,26,92
140760,note_on,5,0,5,,,,,,,,3,,,,72,92
140760,note_on,5,0,2,,,,,,,,0,,,,38,92
140760,note_on,5,0,8,,,,,,,,6,,,,38,92
140760,note_on,5,0,13,,,,,,,,12,,,,38,92
140760,note_on,5,0,12,,,,,,,,11,,,,66,92
140760,note_on,5,0,14,,,,,,,,13,,,,26,92
140760,note_on,5,0,11,,,,,,,,10,,,,69,92
140760,note_on,5,0,7,,,,,,,,5,,,,66,92
140760,note_on,5,0,6,,,,,,,,4,,,,69,92
140815,note_off,55,0,11,,,,,,,,10,,,,69,64
140815,note_off,55,0,10,,,,,,,,8,,,,72,64
140815,note_off,55,0,6,,,,,,,,4,,,,69,64
140815,note_off,55,0,5,,,,,,,,3,,,,72,64
140820,note_on,5,0,10,,,,,,,,8,,,,62,92
140820,note_on,5,0,11,,,,,,,,10,,,,62,92
140820,note_on,5,0,6,,,,,,,,4,,,,62,92
140820,note_on,5,0,5,,,,,,,,3,,,,62,92
140875,note_off,115,0,9,,,,,,,,7,,,,26,64
140875,note_off,115,0,8,,,,,,,,6,,,,38,64
140875,note_off,115,0,13,,,,,,,,12,,,,38,64
140875,note_off,115,0,12,,,,,,,,11,,,,66,64
140875,note_off,55,0,11,,,,,,,,10,,,,62,64
140875,note_off,115,0,14,,,,,,,,13,,,,26,64
140875,note_off,115,0,7,,,,,,,,5,,,,66,64
140875,note_off,55,0,6,,,,,,,,4,,,,62,64
140875,note_off,235,0,15,,,,,,,,14,,,,38,64
140875,note_off,55,0,10,,,,,,,,8,,,,62,64
140875,note_off,55,0,5,,,,,,,,3,,,,62,64
140875,note_off,115,0,2,,,,,,,,0,,,,38,64
140880,note_on,5,0,8,,,,,,,,6,,,,38,92
140880,note_on,5,0,11,,,,,,,,10,,,,69,92
140880,note_on,5,0,14,,,,,,,,13,,,,26,92
140880,note_on,5,0,10,,,,,,,,8,,,,72,92
140880,note_on,5,0,7,,,,,,,,5,,,,66,92
140880,note_on,5,0,15,,,,,,,,14,,,,38,92
140880,note_on,5,0,13,,,,,,,,12,,,,38,92
140880,note_on,5,0,5,,,,,,,,3,,,,72,92
140880,note_on,5,0,9,,,,,,,,7,,,,26,92
140880,note_on,5,0,6,,,,,,,,4,,,,69,92
140880,note_on,5,0,2,,,,,,,,0,,,,38,92
140880,note_on,5,0,12,,,,,,,,11,,,,66,92
140935,note_off,55,0,5,,,,,,,,3,,,,72,64
140935,note_off,55,0,10,,,,,,,,8,,,,72,64
140935,note_off,55,0,11,,,,,,,,10,,,,69,64
140935,note_off,55,0,6,,,,,,,,4,,,,69,64
140940,note_on,5,0,10,,,,,,,,8,,,,62,92
140940,note_on,5,0,5,,,,,,,,3,,,,62,92
140940,note_on,5,0,6,,,,,,,,4,,,,62,92
140940,note_on,5,0,11,,,,,,,,10,,,,62,92
140995,note_off,115,0,7,,,,,,,,5,,,,66,64
140995,note_off,115,0,14,,,,,,,,13,,,,26,64
140995,note_off,115,0,9,,,,,,,,7,,,,26,64
140995,note_off,115,0,12,,,,,,,,11,,,,66,64
140995,note_off,115,0,8,,,,,,,,6,,,,38,64
140995,note_off,55,0,6,,,,,,,,4,,,,62,64
140995,note_off,115,0,15,,,,,,,,14,,,,38,64
140995,note_off,55,0,5,,,,,,,,3,,,,62,64
140995,note_off,55,0,10,,,,,,,,8,,,,62,64
140995,note_off,115,0,13,,,,,,,,12,,,,38,64
140995,note_off,55,0,11,,,,,,,,10,,,,62,64
140995,note_off,115,0,2,,,,,,,,0,,,,38,64
141000,note_on,5,0,13,,,,,,,,12,,,,38,92
141000,note_on,5,0,15,,,,,,,,14,,,,38,92
141000,note_on,5,0,6,,,,,,,,4,,,,69,92
141000,note_on,5,0,11,,,,,,,,10,,,,69,92
141000,note_on,5,0,7,,,,,,,,5,,,,66,92
141000,note_on,5,0,14,,,,,,,,13,,,,26,92
141000,note_on,5,0,2,,,,,,,,0,,,,38,92
141000,note_on,5,0,5,,,,,,,,3,,,,72,92
141000,note_on,5,0,12,,,,,,,,11,,,,66,92
141000,note_on,5,0,8,,,,,,,,6,,,,38,92
141000,note_on,5,0,10,,,,,,,,8,,,,72,92
141000,note_on,5,0,9,,,,,,,,7,,,,26,92
141055,note_off,55,0,5,,,,,,,,3,,,,72,64
141055,note_off,55,0,11,,,,,,,,10,,,,69,64
141055,note_off,55,0,6,,,,,,,,4,,,,69,64
141055,note_off,55,0,10,,,,,,,,8,,,,72,64
141060,note_on,5,0,10,,,,,,,,8,,,,62,92
141060,note_on,5,0,6,,,,,,,,4,,,,62,92
141060,note_on,5,0,11,,,,,,,,10,,,,62,92
141060,note_on,5,0,5,,,,,,,,3,,,,62,92
141115,note_off,55,0,11,,,,,,,,10,,,,62,64
141115,note_off,115,0,13,,,,,,,,12,,,,38,64
141115,note_off,55,0,6,,,,,,,,4,,,,62,64
141115,note_off,115,0,9,,,,,,,,7,,,,26,64
141115,note_off,115,0,14,,,,,,,,13,,,,26,64
141115,note_off,115,0,15,,,,,,,,14,,,,38,64
141115,note_off,115,0,7,,,,,,,,5,,,,66,64
141115,note_off,55,0,10,,,,,,,,8,,,,62,64
141115,note_off,115,0,12,,,,,,,,11,,,,66,64
141115,note_off,115,0,8,,,,,,,,6,,,,38,64
141115,note_off,115,0,2,,,,,,,,0,,,,38,64
141115,note_off,55,0,5,,,,,,,,3,,,,62,64
141120,note_on,5,0,9,,,,,,,,7,,,,38,92
141120,note_on,5,0,8,,,,,,,,6,,,,50,92
141120,note_on,5,0,7,,,,,,,,5,,,,67,92
141120,note_on,5,0,12,,,,,,,,11,,,,67,92
141120,note_on,5,0,6,,,,,,,,4,,,,67,92
141120,note_on,5,0,11,,,,,,,,10,,,,67,92
141120,note_on,5,0,15,,,,,,,,14,,,,38,92
141120,note_on,5,0,2,,,,,,,,0,,,,50,92
141120,note_on,5,0,13,,,,,,,,12,,,,50,92
141120,note_on,5,0,5,,,,,,,,3,,,,70,92
141120,note_on,5,0,14,,,,,,,,13,,,,38,92
141120,note_on,5,0,10,,,,,,,,8,,,,70,92
141175,note_off,55,0,11,,,,,,,,10,,,,67,64
141175,note_off,55,0,5,,,,,,,,3,,,,70,64
141175,note_off,55,0,6,,,,,,,,4,,,,67,64
141175,note_off,55,0,10,,,,,,,,8,,,,70,64
141180,note_on,5,0,5,,,,,,,,3,,,,62,92
141180,note_on,5,0,6,,,,,,,,4,,,,62,92
141180,note_on,5,0,10,,,,,,,,8,,,,62,92
141180,note_on,5,0,11,,,,,,,,10,,,,62,92
141235,note_off,55,0,5,,,,,,,,3,,,,62,64
141235,note_off,55,0,6,,,,,,,,4,,,,62,64
141235,note_off,115,0,7,,,,,,,,5,,,,67,64
141235,note_off,55,0,10,,,,,,,,8,,,,62,64
141235,note_off,55,0,11,,,,,,,,10,,,,62,64
141235,note_off,115,0,12,,,,,,,,11,,,,67,64
141240,note_on,5,0,7,,,,,,,,5,,,,67,92
141240,note_on,5,0,11,,,,,,,,10,,,,67,92
141240,note_on,5,0,10,,,,,,,,8,,,,70,92
141240,note_on,5,0,5,,,,,,,,3,,,,70,92
141240,note_on,5,0,12,,,,,,,,11,,,,67,92
141240,note_on,5,0,6,,,,,,,,4,,,,67,92
141295,note_off,55,0,11,,,,,,,,10,,,,67,64
141295,note_off,55,0,6,,,,,,,,4,,,,67,64
141295,note_off,55,0,5,,,,,,,,3,,,,70,64
141295,note_off,55,0,10,,,,,,,,8,,,,70,64
141300,note_on,5,0,11,,,,,,,,10,,,,62,92
141300,note_on,5,0,10,,,,,,,,8,,,,62,92
141300,note_on,5,0,5,,,,,,,,3,,,,62,92
141300,note_on,5,0,6,,,,,,,,4,,,,62,92
141355,note_off,115,0,12,,,,,,,,11,,,,67,64
141355,note_off,55,0,11,,,,,,,,10,,,,62,64
141355,note_off,235,0,14,,,,,,,,13,,,,38,64
141355,note_off,55,0,6,,,,,,,,4,,,,62,64
141355,note_off,235,0,13,,,,,,,,12,,,,50,64
141355,note_off,115,0,7,,,,,,,,5,,,,67,64
141355,note_off,55,0,5,,,,,,,,3,,,,62,64
141355,note_off,235,0,9,,,,,,,,7,,,,38,64
141355,note_off,235,0,15,,,,,,,,14,,,,38,64
141355,note_off,235,0,2,,,,,,,,0,,,,50,64
141355,note_off,55,0,10,,,,,,,,8,,,,62,64
141355,note_off,235,0,8,,,,,,,,6,,,,50,64
141360,note_on,5,0,13,,,,,,,,12,,,,50,92
141360,note_on,5,0,5,,,,,,,,3,,,,70,92
141360,note_on,5,0,7,,,,,,,,5,,,,67,92
141360,note_on,5,0,15,,,,,,,,14,,,,38,92
141360,note_on,5,0,14,,,,,,,,13,,,,38,92
141360,note_on,5,0,2,,,,,,,,0,,,,50,92
141360,note_on,5,0,12,,,,,,,,11,,,,67,92
141360,note_on,5,0,8,,,,,,,,6,,,,50,92
141360,note_on,5,0,6,,,,,,,,4,,,,67,92
141360,note_on,5,0,9,,,,,,,,7,,,,38,92
141360,note_on,5,0,10,,,,,,,,8,,,,70,92
141360,note_on,5,0,11,,,,,,,,10,,,,67,92
141415,note_off,55,0,6,,,,,,,,4,,,,67,64
141415,note_off,55,0,10,,,,,,,,8,,,,70,64
141415,note_off,55,0,11,,,,,,,,10,,,,67,64
141415,note_off,55,0,5,,,,,,,,3,,,,70,64
141420,note_on,5,0,11,,,,,,,,10,,,,62,92
141420,note_on,5,0,5,,,,,,,,3,,,,62,92
141420,note_on,5,0,10,,,,,,,,8,,,,62,92
141420,note_on,5,0,6,,,,,,,,4,,,,62,92
141475,note_off,55,0,10,,,,,,,,8,,,,62,64
141475,note_off,115,0,13,,,,,,,,12,,,,50,64
141475,note_off,115,0,9,,,,,,,,7,,,,38,64
141475,note_off,55,0,11,,,,,,,,10,,,,62,64
141475,note_off,115,0,14,,,,,,,,13,,,,38,64
141475,note_off,115,0,8,,,,,,,,6,,,,50,64
141475,note_off,55,0,6,,,,,,,,4,,,,62,64
141475,note_off,115,0,2,,,,,,,,0,,,,50,64
141475,note_off,115,0,7,,,,,,,,5,,,,67,64
141475,note_off,55,0,5,,,,,,,,3,,,,62,64
141475,note_off,115,0,12,,,,,,,,11,,,,67,64
141480,note_on,5,0,13,,,,,,,,12,,,,38,92
141480,note_on,5,0,10,,,,,,,,8,,,,70,92
141480,note_on,5,0,9,,,,,,,,7,,,,26,92
141480,note_on,5,0,6,,,,,,,,4,,,,67,92
141480,note_on,5,0,8,,,,,,,,6,,,,38,92
141480,note_on,5,0,11,,,,,,,,10,,,,67,92
141480,note_on,5,0,5,,,,,,,,3,,,,70,92
141480,note_on,5,0,7,,,,,,,,5,,,,67,92
141480,note_on,5,0,14,,,,,,,,13,,,,26,92
141480,note_on,5,0,12,,,,,,,,11,,,,67,92
141480,note_on,5,0,2,,,,,,,,0,,,,38,92
141535,note_off,55,0,6,,,,,,,,4,,,,67,64
141535,note_off,55,0,10,,,,,,,,8,,,,70,64
141535,note_off,55,0,11,,,,,,,,10,,,,67,64
141535,note_off,55,0,5,,,,,,,,3,,,,70,64
141540,note_on,5,0,10,,,,,,,,8,,,,62,92
141540,note_on,5,0,5,,,,,,,,3,,,,62,92
141540,note_on,5,0,6,,,,,,,,4,,,,62,92
141540,note_on,5,0,11,,,,,,,,10,,,,62,92
141595,note_off,115,0,14,,,,,,,,13,,,,26,64
141595,note_off,55,0,6,,,,,,,,4,,,,62,64
141595,note_off,115,0,12,,,,,,,,11,,,,67,64
141595,note_off,55,0,11,,,,,,,,10,,,,62,64
141595,note_off,115,0,8,,,,,,,,6,,,,38,64
141595,note_off,115,0,13,,,,,,,,12,,,,38,64
141595,note_off,235,0,15,,,,,,,,14,,,,38,64
141595,note_off,115,0,9,,,,,,,,7,,,,26,64
141595,note_off,55,0,10,,,,,,,,8,,,,62,64
141595,note_off,115,0,7,,,,,,,,5,,,,67,64
141595,note_off,115,0,2,,,,,,,,0,,,,38,64
141595,note_off,55,0,5,,,,,,,,3,,,,62,64
141600,note_on,5,0,12,,,,,,,,11,,,,67,92
141600,note_on,5,0,2,,,,,,,,0,,,,38,92
141600,note_on,5,0,8,,,,,,,,6,,,,38,92
141600,note_on,5,0,10,,,,,,,,8,,,,70,92
141600,note_on,5,0,11,,,,,,,,10,,,,67,92
141600,note_on,5,0,7,,,,,,,,5,,,,67,92
141600,note_on,5,0,15,,,,,,,,14,,,,38,92
141600,note_on,5,0,6,,,,,,,,4,,,,67,92
141600,note_on,5,0,5,,,,,,,,3,,,,70,92
141600,note_on,5,0,14,,,,,,,,13,,,,26,92
141600,note_on,5,0,13,,,,,,,,12,,,,38,92
141600,note_on,5,0,9,,,,,,,,7,,,,26,92
141655,note_off,55,0,11,,,,,,,,10,,,,67,64
141655,note_off,55,0,10,,,,,,,,8,,,,70,64
141655,note_off,55,0,6,,,,,,,,4,,,,67,64
141655,note_off,55,0,5,,,,,,,,3,,,,70,64
141660,note_on,5,0,10,,,,,,,,8,,,,62,92
141660,note_on,5,0,5,,,,,,,,3,,,,62,92
141660,note_on,5,0,6,,,,,,,,4,,,,62,92
141660,note_on,5,0,11,,,,,,,,10,,,,62,92
141715,note_off,55,0,10,,,,,,,,8,,,,62,64
141715,note_off,115,0,13,,,,,,,,12,,,,38,64
141715,note_off,55,0,6,,,,,,,,4,,,,62,64
141715,note_off,55,0,11,,,,,,,,10,,,,62,64
141715,note_off,115,0,14,,,,,,,,13,,,,26,64
141715,note_off,115,0,9,,,,,,,,7,,,,26,64
141715,note_off,115,0,15,,,,,,,,14,,,,38,64
141715,note_off,115,0,12,,,,,,,,11,,,,67,64
141715,note_off,115,0,8,,,,,,,,6,,,,38,64
141715,note_off,115,0,2,,,,,,,,0,,,,38,64
141715,note_off,115,0,7,,,,,,,,5,,,,67,64
141715,note_off,55,0,5,,,,,,,,3,,,,62,64
141720,note_on,5,0,10,,,,,,,,8,,,,70,92
141720,note_on,5,0,9,,,,,,,,7,,,,26,92
141720,note_on,5,0,12,,,,,,,,11,,,,67,92
141720,note_on,5,0,2,,,,,,,,0,,,,38,92
141720,note_on,5,0,5,,,,,,,,3,,,,70,92
141720,note_on,5,0,15,,,,,,,,14,,,,38,92
141720,note_on,5,0,13,,,,,,,,12,,,,38,92
141720,note_on,5,0,14,,,,,,,,13,,,,26,92
141720,note_on,5,0,8,,,,,,,,6,,,,38,92
141720,note_on,5,0,11,,,,,,,,10,,,,67,92
141720,note_on,5,0,6,,,,,,,,4,,,,67,92
141720,note_on,5,0,7,,,,,,,,5,,,,67,92
141775,note_off,55,0,10,,,,,,,,8,,,,70,64
141775,note_off,55,0,5,,,,,,,,3,,,,70,64
141775,note_off,55,0,11,,,,,,,,10,,,,67,64
141775,note_off,55,0,6,,,,,,,,4,,,,67,64
141780,note_on,5,0,5,,,,,,,,3,,,,62,92
141780,note_on,5,0,11,,,,,,,,10,,,,62,92
141780,note_on,5,0,6,,,,,,,,4,,,,62,92
141780,note_on,5,0,10,,,,,,,,8,,,,62,92
141835,note_off,115,0,12,,,,,,,,11,,,,67,64
141835,note_off,55,0,5,,,,,,,,3,,,,62,64
141835,note_off,115,0,2,,,,,,,,0,,,,38,64
141835,note_off,115,0,7,,,,,,,,5,,,,67,64
141835,note_off,115,0,8,,,,,,,,6,,,,38,64
141835,note_off,115,0,9,,,,,,,,7,,,,26,64
141835,note_off,115,0,15,,,,,,,,14,,,,38,64
141835,note_off,115,0,13,,,,,,,,12,,,,38,64
141835,note_off,55,0,10,,,,,,,,8,,,,62,64
141835,note_off,115,0,14,,,,,,,,13,,,,26,64
141835,note_off,55,0,6,,,,,,,,4,,,,62,64
141835,note_off,55,0,11,,,,,,,,10,,,,62,64
141840,note_on,5,0,11,,,,,,,,10,,,,66,92
141840,note_on,5,0,7,,,,,,,,5,,,,66,92
141840,note_on,5,0,12,,,,,,,,11,,,,66,92
141840,note_on,5,0,5,,,,,,,,3,,,,69,92
141840,note_on,5,0,9,,,,,,,,7,,,,38,92
141840,note_on,5,0,8,,,,,,,,6,,,,50,92
141840,note_on,5,0,14,,,,,,,,13,,,,38,92
141840,note_on,5,0,15,,,,,,,,14,,,,38,92
141840,note_on,5,0,13,,,,,,,,12,,,,50,92
141840,note_on,5,0,10,,,,,,,,8,,,,69,92
141840,note_on,5,0,6,,,,,,,,4,,,,66,92
141840,note_on,5,0,2,,,,,,,,0,,,,50,92
141895,note_off,55,0,6,,,,,,,,4,,,,66,64
141895,note_off,55,0,10,,,,,,,,8,,,,69,64
141895,note_off,55,0,5,,,,,,,,3,,,,69,64
141895,note_off,55,0,11,,,,,,,,10,,,,66,64
141900,note_on,5,0,10,,,,,,,,8,,,,62,92
141900,note_on,5,0,11,,,,,,,,10,,,,62,92
141900,note_on,5,0,5,,,,,,,,3,,,,62,92
141900,note_on,5,0,6,,,,,,,,4,,,,62,92
141955,note_off,55,0,10,,,,,,,,8,,,,62,64
141955,note_off,115,0,12,,,,,,,,11,,,,66,64
141955,note_off,55,0,6,,,,,,,,4,,,,62,64
141955,note_off,55,0,5,,,,,,,,3,,,,62,64
141955,note_off,115,0,7,,,,,,,,5,,,,66,64
141955,note_off,55,0,11,,,,,,,,10,,,,62,64
141960,note_on,5,0,7,,,,,,,,5,,,,66,92
141960,note_on,5,0,6,,,,,,,,4,,,,66,92
141960,note_on,5,0,11,,,,,,,,10,,,,66,92
141960,note_on,5,0,12,,,,,,,,11,,,,66,92
141960,note_on,5,0,5,,,,,,,,3,,,,69,92
141960,note_on,5,0,10,,,,,,,,8,,,,69,92
142015,note_off,55,0,5,,,,,,,,3,,,,69,64
142015,note_off,55,0,6,,,,,,,,4,,,,66,64
142015,note_off,55,0,10,,,,,,,,8,,,,69,64
142015,note_off,55,0,11,,,,,,,,10,,,,66,64
142020,note_on,5,0,10,,,,,,,,8,,,,62,92
142020,note_on,5,0,5,,,,,,,,3,,,,62,92
142020,note_on,5,0,6,,,,,,,,4,,,,62,92
142020,note_on,5,0,11,,,,,,,,10,,,,62,92
142075,note_off,235,0,9,,,,,,,,7,,,,38,64
142075,note_off,55,0,5,,,,,,,,3,,,,62,64
142075,note_off,235,0,14,,,,,,,,13,,,,38,64
142075,note_off,115,0,12,,,,,,,,11,,,,66,64
142075,note_off,55,0,11,,,,,,,,10,,,,62,64
142075,note_off,55,0,10,,,,,,,,8,,,,62,64
142075,note_off,235,0,15,,,,,,,,14,,,,38,64
142075,note_off,235,0,8,,,,,,,,6,,,,50,64
142075,note_off,235,0,13,,,,,,,,12,,,,50,64
142075,note_off,115,0,7,,,,,,,,5,,,,66,64
142075,note_off,235,0,2,,,,,,,,0,,,,50,64
142075,note_off,55,0,6,,,,,,,,4,,,,62,64
142080,note_on,5,0,15,,,,,,,,14,,,,38,92
142080,note_on,5,0,10,,,,,,,,8,,,,69,92
142080,note_on,5,0,14,,,,,,,,13,,,,38,92
142080,note_on,5,0,7,,,,,,,,5,,,,66,92
142080,note_on,5,0,13,,,,,,,,12,,,,50,92
142080,note_on,5,0,9,,,,,,,,7,,,,38,92
142080,note_on,5,0,8,,,,,,,,6,,,,50,92
142080,note_on,5,0,2,,,,,,,,0,,,,50,92
142080,note_on,5,0,12,,,,,,,,11,,,,66,92
142080,note_on,5,0,5,,,,,,,,3,,,,69,92
142080,note_on,5,0,11,,,,,,,,10,,,,66,92
142080,note_on,5,0,6,,,,,,,,4,,,,66,92
142135,note_off,55,0,5,,,,,,,,3,,,,69,64
142135,note_off,55,0,10,,,,,,,,8,,,,69,64
142135,note_off,55,0,6,,,,,,,,4,,,,66,64
142135,note_off,55,0,11,,,,,,,,10,,,,66,64
142140,note_on,5,0,10,,,,,,,,8,,,,62,92
142140,note_on,5,0,5,,,,,,,,3,,,,62,92
142140,note_on,5,0,6,,,,,,,,4,,,,62,92
142140,note_on,5,0,11,,,,,,,,10,,,,62,92
142195,note_off,55,0,10,,,,,,,,8,,,,62,64
142195,note_off,55,0,5,,,,,,,,3,,,,62,64
142195,note_off,115,0,13,,,,,,,,12,,,,50,64
142195,note_off,115,0,12,,,,,,,,11,,,,66,64
142195,note_off,115,0,8,,,,,,,,6,,,,50,64
142195,note_off,115,0,9,,,,,,,,7,,,,38,64
142195,note_off,55,0,6,,,,,,,,4,,,,62,64
142195,note_off,115,0,7,,,,,,,,5,,,,66,64
142195,note_off,115,0,14,,,,,,,,13,,,,38,64
142195,note_off,55,0,11,,,,,,,,10,,,,62,64
142195,note_off,115,0,2,,,,,,,,0,,,,50,64
142200,note_on,5,0,5,,,,,,,,3,,,,69,92
142200,note_on,5,0,11,,,,,,,,10,,,,66,92
142200,note_on,5,0,8,,,,,,,,6,,,,38,92
142200,note_on,5,0,7,,,,,,,,5,,,,66,92
142200,note_on,5,0,12,,,,,,,,11,,,,66,92
142200,note_on,5,0,13,,,,,,,,12,,,,38,92
142200,note_on,5,0,10,,,,,,,,8,,,,69,92
142200,note_on,5,0,14,,,,,,,,13,,,,26,92
142200,note_on,5,0,6,,,,,,,,4,,,,66,92
142200,note_on,5,0,2,,,,,,,,0,,,,38,92
142200,note_on,5,0,9,,,,,,,,7,,,,26,92
142255,note_off,55,0,11,,,,,,,,10,,,,66,64
142255,note_off,55,0,5,,,,,,,,3,,,,69,64
142255,note_off,55,0,6,,,,,,,,4,,,,66,64
142255,note_off,55,0,10,,,,,,,,8,,,,69,64
142260,note_on,5,0,11,,,,,,,,10,,,,62,92
142260,note_on,5,0,10,,,,,,,,8,,,,62,92
142260,note_on,5,0,5,,,,,,,,3,,,,62,92
142260,note_on,5,0,6,,,,,,,,4,,,,62,92
142315,note_off,55,0,5,,,,,,,,3,,,,62,64
142315,note_off,115,0,7,,,,,,,,5,,,,66,64
142315,note_off,115,0,9,,,,,,,,7,,,,26,64
142315,note_off,115,0,2,,,,,,,,0,,,,38,64
142315,note_off,115,0,13,,,,,,,,12,,,,38,64
142315,note_off,55,0,10,,,,,,,,8,,,,62,64
142315,note_off,115,0,14,,,,,,,,13,,,,26,64
142315,note_off,55,0,6,,,,,,,,4,,,,62,64
142315,note_off,115,0,12,,,,,,,,11,,,,66,64
142315,note_off,235,0,15,,,,,,,,14,,,,38,64
142315,note_off,115,0,8,,,,,,,,6,,,,38,64
142315,note_off,55,0,11,,,,,,,,10,,,,62,64
142320,note_on,5,0,13,,,,,,,,12,,,,38,92
142320,note_on,5,0,15,,,,,,,,14,,,,38,92
142320,note_on,5,0,5,,,,,,,,3,,,,69,92
142320,note_on,5,0,9,,,,,,,,7,,,,26,92
142320,note_on,5,0,6,,,,,,,,4,,,,66,92
142320,note_on,5,0,2,,,,,,,,0,,,,38,92
142320,note_on,5,0,14,,,,,,,,13,,,,26,92
142320,note_on,5,0,10,,,,,,,,8,,,,69,92
142320,note_on,5,0,12,,,,,,,,11,,,,66,92
142320,note_on,5,0,8,,,,,,,,6,,,,38,92
142320,note_on,5,0,7,,,,,,,,5,,,,66,92
142320,note_on,5,0,11,,,,,,,,10,,,,66,92
142375,note_off,55,0,10,,,,,,,,8,,,,69,64
142375,note_off,55,0,11,,,,,,,,10,,,,66,64
142375,note_off,55,0,6,,,,,,,,4,,,,66,64
142375,note_off,55,0,5,,,,,,,,3,,,,69,64
142380,note_on,5,0,10,,,,,,,,8,,,,62,92
142380,note_on,5,0,11,,,,,,,,10,,,,62,92
142380,note_on,5,0,6,,,,,,,,4,,,,62,92
142380,note_on,5,0,5,,,,,,,,3,,,,62,92
142435,note_off,115,0,12,,,,,,,,11,,,,66,64
142435,note_off,115,0,8,,,,,,,,6,,,,38,64
142435,note_off,115,0,9,,,,,,,,7,,,,26,64
142435,note_off,55,0,5,,,,,,,,3,,,,62,64
142435,note_off,115,0,2,,,,,,,,0,,,,38,64
142435,note_off,115,0,13,,,,,,,,12,,,,38,64
142435,note_off,55,0,10,,,,,,,,8,,,,62,64
142435,note_off,55,0,11,,,,,,,,10,,,,62,64
142435,note_off,115,0,14,,,,,,,,13,,,,26,64
142435,note_off,55,0,6,,,,,,,,4,,,,62,64
142435,note_off,115,0,7,,,,,,,,5,,,,66,64
142435,note_off,115,0,15,,,,,,,,14,,,,38,64
142440,note_on,5,0,5,,,,,,,,3,,,,69,92
142440,note_on,5,0,7,,,,,,,,5,,,,66,92
142440,note_on,5,0,13,,,,,,,,12,,,,38,92
142440,note_on,5,0,2,,,,,,,,0,,,,38,92
142440,note_on,5,0,9,,,,,,,,7,,,,26,92
142440,note_on,5,0,14,,,,,,,,13,,,,26,92
142440,note_on,5,0,8,,,,,,,,6,,,,38,92
142440,note_on,5,0,11,,,,,,,,10,,,,66,92
142440,note_on,5,0,6,,,,,,,,4,,,,66,92
142440,note_on,5,0,12,,,,,,,,11,,,,66,92
142440,note_on,5,0,10,,,,,,,,8,,,,69,92
142440,note_on,5,0,15,,,,,,,,14,,,,38,92
142495,note_off,55,0,6,,,,,,,,4,,,,66,64
142495,note_off,55,0,10,,,,,,,,8,,,,69,64
142495,note_off,55,0,11,,,,,,,,10,,,,66,64
142495,note_off,55,0,5,,,,,,,,3,,,,69,64
142500,note_on,5,0,10,,,,,,,,8,,,,62,92
142500,note_on,5,0,6,,,,,,,,4,,,,62,92
142500,note_on,5,0,5,,,,,,,,3,,,,62,92
142500,note_on,5,0,11,,,,,,,,10,,,,62,92
142555,note_off,55,0,10,,,,,,,,8,,,,62,64
142555,note_off,55,0,11,,,,,,,,10,,,,62,64
142555,note_off,115,0,8,,,,,,,,6,,,,38,64
142555,note_off,55,0,6,,,,,,,,4,,,,62,64
142555,note_off,55,0,5,,,,,,,,3,,,,62,64
142555,note_off,115,0,7,,,,,,,,5,,,,66,64
142555,note_off,115,0,2,,,,,,,,0,,,,38,64
142555,note_off,115,0,13,,,,,,,,12,,,,38,64
142555,note_off,115,0,15,,,,,,,,14,,,,38,64
142555,note_off,115,0,12,,,,,,,,11,,,,66,64
142555,note_off,115,0,14,,,,,,,,13,,,,26,64
142555,note_off,115,0,9,,,,,,,,7,,,,26,64
142560,note_on,5,0,7,,,,,,,,5,,,,67,45
142560,note_on,5,0,2,,,,,,,,0,,,,50,45
142560,note_on,5,0,12,,,,,,,,11,,,,67,45
142560,note_on,5,0,8,,,,,,,,6,,,,50,45
142560,note_on,5,0,10,,,,,,,,8,,,,74,45
142560,note_on,5,0,5,,,,,,,,3,,,,74,45
142560,note_on,5,0,11,,,,,,,,10,,,,70,45
142560,note_on,5,0,6,,,,,,,,4,,,,70,45
142560,note_on,5,0,9,,,,,,,,7,,,,38,45
142560,note_on,5,0,15,,,,,,,,14,,,,38,45
142560,note_on,5,0,13,,,,,,,,12,,,,50,45
142560,note_on,5,0,14,,,,,,,,13,,,,38,45
142615,note_off,55,0,10,,,,,,,,8,,,,74,64
142615,note_off,55,0,11,,,,,,,,10,,,,70,64
142615,note_off,55,0,6,,,,,,,,4,,,,70,64
142615,note_off,55,0,5,,,,,,,,3,,,,74,64
142620,note_on,5,0,11,,,,,,,,10,,,,62,45
142620,note_on,5,0,6,,,,,,,,4,,,,62,45
142620,note_on,5,0,5,,,,,,,,3,,,,62,45
142620,note_on,5,0,10,,,,,,,,8,,,,62,45
142675,note_off,55,0,10,,,,,,,,8,,,,62,64
142675,note_off,115,0,12,,,,,,,,11,,,,67,64
142675,note_off,115,0,7,,,,,,,,5,,,,67,64
142675,note_off,55,0,11,,,,,,,,10,,,,62,64
142675,note_off,55,0,6,,,,,,,,4,,,,62,64
142675,note_off,55,0,5,,,,,,,,3,,,,62,64
142680,note_on,5,0,6,,,,,,,,4,,,,70,45
142680,note_on,5,0,11,,,,,,,,10,,,,70,45
142680,note_on,5,0,12,,,,,,,,11,,,,67,45
142680,note_on,5,0,5,,,,,,,,3,,,,74,45
142680,note_on,5,0,7,,,,,,,,5,,,,67,45
142680,note_on,5,0,10,,,,,,,,8,,,,74,45
142735,note_off,55,0,6,,,,,,,,4,,,,70,64
142735,note_off,55,0,11,,,,,,,,10,,,,70,64
142735,note_off,55,0,5,,,,,,,,3,,,,74,64
142735,note_off,55,0,10,,,,,,,,8,,,,74,64
142740,note_on,5,0,5,,,,,,,,3,,,,62,45
142740,note_on,5,0,6,,,,,,,,4,,,,62,45
142740,note_on,5,0,10,,,,,,,,8,,,,62,45
142740,note_on,5,0,11,,,,,,,,10,,,,62,45
142795,note_off,235,0,8,,,,,,,,6,,,,50,64
142795,note_off,55,0,10,,,,,,,,8,,,,62,64
142795,note_off,235,0,13,,,,,,,,12,,,,50,64
142795,note_off,55,0,5,,,,,,,,3,,,,62,64
142795,note_off,55,0,6,,,,,,,,4,,,,62,64
142795,note_off,115,0,7,,,,,,,,5,,,,67,64
142795,note_off,235,0,9,,,,,,,,7,,,,38,64
142795,note_off,55,0,11,,,,,,,,10,,,,62,64
142795,note_off,115,0,12,,,,,,,,11,,,,67,64
142795,note_off,235,0,15,,,,,,,,14,,,,38,64
142795,note_off,235,0,14,,,,,,,,13,,,,38,64
142795,note_off,235,0,2,,,,,,,,0,,,,50,64
142800,note_on,5,0,14,,,,,,,,13,,,,38,45
142800,note_on,5,0,11,,,,,,,,10,,,,70,45
142800,note_on,5,0,7,,,,,,,,5,,,,67,45
142800,note_on,5,0,8,,,,,,,,6,,,,50,45
142800,note_on,5,0,15,,,,,,,,14,,,,38,45
142800,note_on,5,0,6,,,,,,,,4,,,,70,45
142800,note_on,5,0,10,,,,,,,,8,,,,74,45
142800,note_on,5,0,9,,,,,,,,7,,,,38,45
142800,note_on,5,0,12,,,,,,,,11,,,,67,45
142800,note_on,5,0,5,,,,,,,,3,,,,74,45
142800,note_on,5,0,13,,,,,,,,12,,,,50,45
142800,note_on,5,0,2,,,,,,,,0,,,,50,45
142855,note_off,55,0,6,,,,,,,,4,,,,70,64
142855,note_off,55,0,5,,,,,,,,3,,,,74,64
142855,note_off,55,0,11,,,,,,,,10,,,,70,64
142855,note_off,55,0,10,,,,,,,,8,,,,74,64
142860,note_on,5,0,10,,,,,,,,8,,,,62,45
142860,note_on,5,0,6,,,,,,,,4,,,,62,45
142860,note_on,5,0,11,,,,,,,,10,,,,62,45
142860,note_on,5,0,5,,,,,,,,3,,,,62,45
142915,note_off,55,0,6,,,,,,,,4,,,,62,64
142915,note_off,115,0,7,,,,,,,,5,,,,67,64
142915,note_off,55,0,5,,,,,,,,3,,,,62,64
142915,note_off,115,0,2,,,,,,,,0,,,,50,64
142915,note_off,115,0,8,,,,,,,,6,,,,50,64
142915,note_off,115,0,14,,,,,,,,13,,,,38,64
142915,note_off,115,0,13,,,,,,,,12,,,,50,64
142915,note_off,115,0,12,,,,,,,,11,,,,67,64
142915,note_off,115,0,9,,,,,,,,7,,,,38,64
142915,note_off,55,0,10,,,,,,,,8,,,,62,64
142915,note_off,55,0,11,,,,,,,,10,,,,62,64
142920,note_on,5,0,6,,,,,,,,4,,,,70,45
142920,note_on,5,0,8,,,,,,,,6,,,,38,45
142920,note_on,5,0,2,,,,,,,,0,,,,38,45
142920,note_on,5,0,14,,,,,,,,13,,,,26,45
142920,note_on,5,0,13,,,,,,,,12,,,,38,45
142920,note_on,5,0,7,,,,,,,,5,,,,67,45
142920,note_on,5,0,11,,,,,,,,10,,,,70,45
142920,note_on,5,0,9,,,,,,,,7,,,,26,45
142920,note_on,5,0,5,,,,,,,,3,,,,74,45
142920,note_on,5,0,12,,,,,,,,11,,,,67,45
142920,note_on,5,0,10,,,,,,,,8,,,,74,45
142975,note_off,55,0,11,,,,,,,,10,,,,70,64
142975,note_off,55,0,5,,,,,,,,3,,,,74,64
142975,note_off,55,0,10,,,,,,,,8,,,,74,64
142975,note_off,55,0,6,,,,,,,,4,,,,70,64
142980,note_on,5,0,10,,,,,,,,8,,,,62,45
142980,note_on,5,0,5,,,,,,,,3,,,,62,45
142980,note_on,5,0,6,,,,,,,,4,,,,62,45
142980,note_on,5,0,11,,,,,,,,10,,,,62,45
143035,note_off,235,0,15,,,,,,,,14,,,,38,64
143035,note_off,115,0,12,,,,,,,,11,,,,67,64
143035,note_off,55,0,6,,,,,,,,4,,,,62,64
143035,note_off,55,0,10,,,,,,,,8,,,,62,64
143035,note_off,115,0,13,,,,,,,,12,,,,38,64
143035,note_off,115,0,14,,,,,,,,13,,,,26,64
143035,note_off,115,0,2,,,,,,,,0,,,,38,64
143035,note_off,115,0,9,,,,,,,,7,,,,26,64
143035,note_off,115,0,7,,,,,,,,5,,,,67,64
143035,note_off,55,0,11,,,,,,,,10,,,,62,64
143035,note_off,55,0,5,,,,,,,,3,,,,62,64
143035,note_off,115,0,8,,,,,,,,6,,,,38,64
143040,note_on,5,0,14,,,,,,,,13,,,,26,45
143040,note_on,5,0,6,,,,,,,,4,,,,70,45
143040,note_on,5,0,13,,,,,,,,12,,,,38,45
143040,note_on,5,0,11,,,,,,,,10,,,,70,45
143040,note_on,5,0,2,,,,,,,,0,,,,38,45
143040,note_on,5,0,9,,,,,,,,7,,,,26,45
143040,note_on,5,0,5,,,,,,,,3,,,,74,45
143040,note_on,5,0,8,,,,,,,,6,,,,38,45
143040,note_on,5,0,15,,,,,,,,14,,,,38,45
143040,note_on,5,0,12,,,,,,,,11,,,,62,45
143040,note_on,5,0,7,,,,,,,,5,,,,62,45
143040,note_on,5,0,10,,,,,,,,8,,,,74,45
143095,note_off,55,0,11,,,,,,,,10,,,,70,64
143095,note_off,55,0,5,,,,,,,,3,,,,74,64
143095,note_off,55,0,6,,,,,,,,4,,,,70,64
143095,note_off,55,0,10,,,,,,,,8,,,,74,64
143100,note_on,5,0,5,,,,,,,,3,,,,62,45
143100,note_on,5,0,11,,,,,,,,10,,,,62,45
143100,note_on,5,0,6,,,,,,,,4,,,,62,45
143100,note_on,5,0,10,,,,,,,,8,,,,62,45
143155,note_off,115,0,14,,,,,,,,13,,,,26,64
143155,note_off,115,0,9,,,,,,,,7,,,,26,64
143155,note_off,115,0,2,,,,,,,,0,,,,38,64
143155,note_off,115,0,13,,,,,,,,12,,,,38,64
143155,note_off,55,0,6,,,,,,,,4,,,,62,64
143155,note_off,55,0,10,,,,,,,,8,,,,62,64
143155,note_off,115,0,8,,,,,,,,6,,,,38,64
143155,note_off,55,0,11,,,,,,,,10,,,,62,64
143155,note_off,55,0,5,,,,,,,,3,,,,62,64
143155,note_off,115,0,7,,,,,,,,5,,,,62,64
143155,note_off,115,0,12,,,,,,,,11,,,,62,64
143160,note_on,5,0,7,,,,,,,,5,,,,62,45
143160,note_on,5,0,11,,,,,,,,10,,,,70,45
143160,note_on,5,0,5,,,,,,,,3,,,,74,45
143160,note_on,5,0,6,,,,,,,,4,,,,70,45
143160,note_on,5,0,8,,,,,,,,6,,,,38,45
143160,note_on,5,0,2,,,,,,,,0,,,,38,45
143160,note_on,5,0,14,,,,,,,,13,,,,26,45
143160,note_on,5,0,9,,,,,,,,7,,,,26,45
143160,note_on,5,0,12,,,,,,,,11,,,,62,45
143160,note_on,5,0,10,,,,,,,,8,,,,74,45
143160,note_on,5,0,13,,,,,,,,12,,,,38,45
143215,note_off,55,0,5,,,,,,,,3,,,,74,64
143215,note_off,55,0,11,,,,,,,,10,,,,70,64
143215,note_off,55,0,6,,,,,,,,4,,,,70,64
143215,note_off,55,0,10,,,,,,,,8,,,,74,64
143220,note_on,5,0,6,,,,,,,,4,,,,62,45
143220,note_on,5,0,11,,,,,,,,10,,,,62,45
143220,note_on,5,0,10,,,,,,,,8,,,,62,45
143220,note_on,5,0,5,,,,,,,,3,,,,62,45
143275,note_off,115,0,13,,,,,,,,12,,,,38,64
143275,note_off,55,0,11,,,,,,,,10,,,,62,64
143275,note_off,115,0,14,,,,,,,,13,,,,26,64
143275,note_off,115,0,8,,,,,,,,6,,,,38,64
143275,note_off,55,0,5,,,,,,,,3,,,,62,64
143275,note_off,115,0,2,,,,,,,,0,,,,38,64
143275,note_off,55,0,6,,,,,,,,4,,,,62,64
143275,note_off,55,0,10,,,,,,,,8,,,,62,64
143275,note_off,115,0,7,,,,,,,,5,,,,62,64
143275,note_off,115,0,12,,,,,,,,11,,,,62,64
143275,note_off,115,0,9,,,,,,,,7,,,,26,64
143275,note_off,235,0,15,,,,,,,,14,,,,38,64
143280,note_on,5,0,12,,,,,,,,11,,,,66,45
143280,note_on,5,0,2,,,,,,,,0,,,,50,45
143280,note_on,5,0,6,,,,,,,,4,,,,69,45
143280,note_on,5,0,5,,,,,,,,3,,,,72,45
143280,note_on,5,0,15,,,,,,,,14,,,,38,45
143280,note_on,5,0,14,,,,,,,,13,,,,38,45
143280,note_on,5,0,7,,,,,,,,5,,,,66,45
143280,note_on,5,0,13,,,,,,,,12,,,,50,45
143280,note_on,5,0,10,,,,,,,,8,,,,72,45
143280,note_on,5,0,11,,,,,,,,10,,,,69,45
143280,note_on,5,0,8,,,,,,,,6,,,,50,45
143280,note_on,5,0,9,,,,,,,,7,,,,38,45
143335,note_off,55,0,10,,,,,,,,8,,,,72,64
143335,note_off,55,0,6,,,,,,,,4,,,,69,64
143335,note_off,55,0,5,,,,,,,,3,,,,72,64
143335,note_off,55,0,11,,,,,,,,10,,,,69,64
143340,note_on,5,0,10,,,,,,,,8,,,,62,45
143340,note_on,5,0,6,,,,,,,,4,,,,62,45
143340,note_on,5,0,5,,,,,,,,3,,,,62,45
143340,note_on,5,0,11,,,,,,,,10,,,,62,45
143395,note_off,55,0,10,,,,,,,,8,,,,62,64
143395,note_off,115,0,12,,,,,,,,11,,,,66,64
143395,note_off,115,0,7,,,,,,,,5,,,,66,64
143395,note_off,55,0,6,,,,,,,,4,,,,62,64
143395,note_off,55,0,5,,,,,,,,3,,,,62,64
143395,note_off,55,0,11,,,,,,,,10,,,,62,64
143400,note_on,5,0,12,,,,,,,,11,,,,66,45
143400,note_on,5,0,7,,,,,,,,5,,,,66,45
143400,note_on,5,0,6,,,,,,,,4,,,,69,45
143400,note_on,5,0,11,,,,,,,,10,,,,69,45
143400,note_on,5,0,10,,,,,,,,8,,,,72,45
143400,note_on,5,0,5,,,,,,,,3,,,,72,45
143455,note_off,55,0,6,,,,,,,,4,,,,69,64
143455,note_off,55,0,10,,,,,,,,8,,,,72,64
143455,note_off,55,0,5,,,,,,,,3,,,,72,64
143455,note_off,55,0,11,,,,,,,,10,,,,69,64
143460,note_on,5,0,11,,,,,,,,10,,,,62,45
143460,note_on,5,0,10,,,,,,,,8,,,,62,45
143460,note_on,5,0,5,,,,,,,,3,,,,62,45
143460,note_on,5,0,6,,,,,,,,4,,,,62,45
143515,note_off,115,0,7,,,,,,,,5,,,,66,64
143515,note_off,55,0,10,,,,,,,,8,,,,62,64
143515,note_off,235,0,14,,,,,,,,13,,,,38,64
143515,note_off,55,0,6,,,,,,,,4,,,,62,64
143515,note_off,55,0,5,,,,,,,,3,,,,62,64
143515,note_off,235,0,13,,,,,,,,12,,,,50,64
143515,note_off,235,0,8,,,,,,,,6,,,,50,64
143515,note_off,115,0,12,,,,,,,,11,,,,66,64
143515,note_off,55,0,11,,,,,,,,10,,,,62,64
143515,note_off,235,0,9,,,,,,,,7,,,,38,64
143515,note_off,235,0,2,,,,,,,,0,,,,50,64
143515,note_off,235,0,15,,,,,,,,14,,,,38,64
143520,note_on,5,0,6,,,,,,,,4,,,,69,45
143520,note_on,5,0,5,,,,,,,,3,,,,72,45
143520,note_on,5,0,14,,,,,,,,13,,,,38,45
143520,note_on,5,0,10,,,,,,,,8,,,,72,45
143520,note_on,5,0,2,,,,,,,,0,,,,50,45
143520,note_on,5,0,8,,,,,,,,6,,,,50,45
143520,note_on,5,0,15,,,,,,,,14,,,,38,45
143520,note_on,5,0,9,,,,,,,,7,,,,38,45
143520,note_on,5,0,13,,,,,,,,12,,,,50,45
143520,note_on,5,0,7,,,,,,,,5,,,,66,45
143520,note_on,5,0,12,,,,,,,,11,,,,66,45
143520,note_on,5,0,11,,,,,,,,10,,,,69,45
143575,note_off,55,0,11,,,,,,,,10,,,,69,64
143575,note_off,55,0,10,,,,,,,,8,,,,72,64
143575,note_off,55,0,5,,,,,,,,3,,,,72,64
143575,note_off,55,0,6,,,,,,,,4,,,,69,64
143580,note_on,5,0,10,,,,,,,,8,,,,62,45
143580,note_on,5,0,11,,,,,,,,10,,,,62,45
143580,note_on,5,0,6,,,,,,,,4,,,,62,45
143580,note_on,5,0,5,,,,,,,,3,,,,62,45
143635,note_off,55,0,6,,,,,,,,4,,,,62,64
143635,note_off,55,0,11,,,,,,,,10,,,,62,64
143635,note_off,115,0,2,,,,,,,,0,,,,50,64
143635,note_off,115,0,7,,,,,,,,5,,,,66,64
143635,note_off,55,0,10,,,,,,,,8,,,,62,64
143635,note_off,115,0,9,,,,,,,,7,,,,38,64
143635,note_off,115,0,12,,,,,,,,11,,,,66,64
143635,note_off,55,0,5,,,,,,,,3,,,,62,64
143635,note_off,115,0,13,,,,,,,,12,,,,50,64
143635,note_off,115,0,8,,,,,,,,6,,,,50,64
143635,note_off,115,0,14,,,,,,,,13,,,,38,64
143640,note_on,5,0,9,,,,,,,,7,,,,26,45
143640,note_on,5,0,5,,,,,,,,3,,,,72,45
143640,note_on,5,0,11,,,,,,,,10,,,,69,45
143640,note_on,5,0,6,,,,,,,,4,,,,69,45
143640,note_on,5,0,2,,,,,,,,0,,,,38,45
143640,note_on,5,0,7,,,,,,,,5,,,,66,45
143640,note_on,5,0,8,,,,,,,,6,,,,38,45
143640,note_on,5,0,13,,,,,,,,12,,,,38,45
143640,note_on,5,0,12,,,,,,,,11,,,,66,45
143640,note_on,5,0,10,,,,,,,,8,,,,72,45
143640,note_on,5,0,14,,,,,,,,13,,,,26,45
143695,note_off,55,0,11,,,,,,,,10,,,,69,64
143695,note_off,55,0,10,,,,,,,,8,,,,72,64
143695,note_off,55,0,5,,,,,,,,3,,,,72,64
143695,note_off,55,0,6,,,,,,,,4,,,,69,64
143700,note_on,5,0,5,,,,,,,,3,,,,62,45
143700,note_on,5,0,6,,,,,,,,4,,,,62,45
143700,note_on,5,0,11,,,,,,,,10,,,,62,45
143700,note_on,5,0,10,,,,,,,,8,,,,62,45
143755,note_off,55,0,10,,,,,,,,8,,,,62,64
143755,note_off,115,0,2,,,,,,,,0,,,,38,64
143755,note_off,115,0,9,,,,,,,,7,,,,26,64
143755,note_off,235,0,15,,,,,,,,14,,,,38,64
143755,note_off,115,0,12,,,,,,,,11,,,,66,64
143755,note_off,55,0,11,,,,,,,,10,,,,62,64
143755,note_off,115,0,13,,,,,,,,12,,,,38,64
143755,note_off,55,0,5,,,,,,,,3,,,,62,64
143755,note_off,115,0,7,,,,,,,,5,,,,66,64
143755,note_off,55,0,6,,,,,,,,4,,,,62,64
143755,note_off,115,0,8,,,,,,,,6,,,,38,64
143755,note_off,115,0,14,,,,,,,,13,,,,26,64
143760,note_on,5,0,11,,,,,,,,10,,,,69,45
143760,note_on,5,0,15,,,,,,,,14,,,,38,45
143760,note_on,5,0,9,,,,,,,,7,,,,26,45
143760,note_on,5,0,8,,,,,,,,6,,,,38,45
143760,note_on,5,0,13,,,,,,,,12,,,,38,45
143760,note_on,5,0,12,,,,,,,,11,,,,66,45
143760,note_on,5,0,5,,,,,,,,3,,,,72,45
143760,note_on,5,0,14,,,,,,,,13,,,,26,45
143760,note_on,5,0,6,,,,,,,,4,,,,69,45
143760,note_on,5,0,7,,,,,,,,5,,,,66,45
143760,note_on,5,0,10,,,,,,,,8,,,,72,45
143760,note_on,5,0,2,,,,,,,,0,,,,38,45
143815,note_off,55,0,11,,,,,,,,10,,,,69,64
143815,note_off,55,0,6,,,,,,,,4,,,,69,64
143815,note_off,55,0,5,,,,,,,,3,,,,72,64
143815,note_off,55,0,10,,,,,,,,8,,,,72,64
143820,note_on,5,0,6,,,,,,,,4,,,,62,45
143820,note_on,5,0,11,,,,,,,,10,,,,62,45
143820,note_on,5,0,10,,,,,,,,8,,,,62,45
143820,note_on,5,0,5,,,,,,,,3,,,,62,45
143875,note_off,55,0,11,,,,,,,,10,,,,62,64
143875,note_off,55,0,10,,,,,,,,8,,,,62,64
143875,note_off,115,0,14,,,,,,,,13,,,,26,64
143875,note_off,115,0,9,,,,,,,,7,,,,26,64
143875,note_off,115,0,13,,,,,,,,12,,,,38,64
143875,note_off,115,0,2,,,,,,,,0,,,,38,64
143875,note_off,115,0,8,,,,,,,,6,,,,38,64
143875,note_off,115,0,12,,,,,,,,11,,,,66,64
143875,note_off,55,0,5,,,,,,,,3,,,,62,64
143875,note_off,55,0,6,,,,,,,,4,,,,62,64
143875,note_off,115,0,7,,,,,,,,5,,,,66,64
143880,note_on,5,0,13,,,,,,,,12,,,,38,45
143880,note_on,5,0,14,,,,,,,,13,,,,26,45
143880,note_on,5,0,6,,,,,,,,4,,,,69,45
143880,note_on,5,0,12,,,,,,,,11,,,,66,45
143880,note_on,5,0,11,,,,,,,,10,,,,69,45
143880,note_on,5,0,2,,,,,,,,0,,,,38,45
143880,note_on,5,0,9,,,,,,,,7,,,,26,45
143880,note_on,5,0,10,,,,,,,,8,,,,72,45
143880,note_on,5,0,5,,,,,,,,3,,,,72,45
143880,note_on,5,0,7,,,,,,,,5,,,,66,45
143880,note_on,5,0,8,,,,,,,,6,,,,38,45
143935,note_off,55,0,10,,,,,,,,8,,,,72,64
143935,note_off,55,0,6,,,,,,,,4,,,,69,64
143935,note_off,55,0,11,,,,,,,,10,,,,69,64
143935,note_off,55,0,5,,,,,,,,3,,,,72,64
143940,note_on,5,0,10,,,,,,,,8,,,,62,45
143940,note_on,5,0,11,,,,,,,,10,,,,62,45
143940,note_on,5,0,6,,,,,,,,4,,,,62,45
143940,note_on,5,0,5,,,,,,,,3,,,,62,45
143995,note_off,115,0,14,,,,,,,,13,,,,26,64
143995,note_off,235,0,15,,,,,,,,14,,,,38,64
143995,note_off,55,0,10,,,,,,,,8,,,,62,64
143995,note_off,55,0,11,,,,,,,,10,,,,62,64
143995,note_off,55,0,5,,,,,,,,3,,,,62,64
143995,note_off,115,0,8,,,,,,,,6,,,,38,64
143995,note_off,115,0,2,,,,,,,,0,,,,38,64
143995,note_off,115,0,12,,,,,,,,11,,,,66,64
143995,note_off,115,0,13,,,,,,,,12,,,,38,64
143995,note_off,115,0,9,,,,,,,,7,,,,26,64
143995,note_off,115,0,7,,,,,,,,5,,,,66,64
143995,note_off,55,0,6,,,,,,,,4,,,,62,64
144000,note_on,5,0,9,,,,,,,,7,,,,38,45
144000,note_on,5,0,8,,,,,,,,6,,,,50,45
144000,note_on,5,0,14,,,,,,,,13,,,,38,45
144000,note_on,5,0,5,,,,,,,,3,,,,70,45
144000,note_on,5,0,7,,,,,,,,5,,,,67,45
144000,note_on,5,0,10,,,,,,,,8,,,,70,45
144000,note_on,5,0,2,,,,,,,,0,,,,50,45
144000,note_on,5,0,15,,,,,,,,14,,,,38,45
144000,note_on,5,0,12,,,,,,,,11,,,,67,45
144000,note_on,5,0,13,,,,,,,,12,,,,50,45
144000,note_on,5,0,6,,,,,,,,4,,,,67,45
144000,note_on,5,0,11,,,,,,,,10,,,,67,45
144055,note_off,55,0,11,,,,,,,,10,,,,67,64
144055,note_off,55,0,10,,,,,,,,8,,,,70,64
144055,note_off,55,0,5,,,,,,,,3,,,,70,64
144055,note_off,55,0,6,,,,,,,,4,,,,67,64
144060,note_on,5,0,10,,,,,,,,8,,,,62,45
144060,note_on,5,0,5,,,,,,,,3,,,,62,45
144060,note_on,5,0,6,,,,,,,,4,,,,62,45
144060,note_on,5,0,11,,,,,,,,10,,,,62,45
144115,note_off,55,0,6,,,,,,,,4,,,,62,64
144115,note_off,115,0,12,,,,,,,,11,,,,67,64
144115,note_off,55,0,11,,,,,,,,10,,,,62,64
144115,note_off,55,0,5,,,,,,,,3,,,,62,64
144115,note_off,55,0,10,,,,,,,,8,,,,62,64
144115,note_off,115,0,7,,,,,,,,5,,,,67,64
144120,note_on,5,0,6,,,,,,,,4,,,,67,45
144120,note_on,5,0,11,,,,,,,,10,,,,67,45
144120,note_on,5,0,10,,,,,,,,8,,,,70,45
144120,note_on,5,0,7,,,,,,,,5,,,,67,45
144120,note_on,5,0,5,,,,,,,,3,,,,70,45
144120,note_on,5,0,12,,,,,,,,11,,,,67,45
144175,note_off,55,0,6,,,,,,,,4,,,,67,64
144175,note_off,55,0,11,,,,,,,,10,,,,67,64
144175,note_off,55,0,10,,,,,,,,8,,,,70,64
144175,note_off,55,0,5,,,,,,,,3,,,,70,64
144180,note_on,5,0,6,,,,,,,,4,,,,62,45
144180,note_on,5,0,10,,,,,,,,8,,,,62,45
144180,note_on,5,0,5,,,,,,,,3,,,,62,45
144180,note_on,5,0,11,,,,,,,,10,,,,62,45
144235,note_off,115,0,12,,,,,,,,11,,,,67,64
144235,note_off,235,0,2,,,,,,,,0,,,,50,64
144235,note_off,55,0,6,,,,,,,,4,,,,62,64
144235,note_off,115,0,7,,,,,,,,5,,,,67,64
144235,note_off,235,0,8,,,,,,,,6,,,,50,64
144235,note_off,55,0,11,,,,,,,,10,,,,62,64
144235,note_off,235,0,15,,,,,,,,14,,,,38,64
144235,note_off,55,0,5,,,,,,,,3,,,,62,64
144235,note_off,235,0,14,,,,,,,,13,,,,38,64
144235,note_off,235,0,13,,,,,,,,12,,,,50,64
144235,note_off,55,0,10,,,,,,,,8,,,,62,64
144235,note_off,235,0,9,,,,,,,,7,,,,38,64
144240,note_on,5,0,11,,,,,,,,10,,,,67,45
144240,note_on,5,0,6,,,,,,,,4,,,,67,45
144240,note_on,5,0,15,,,,,,,,14,,,,38,45
144240,note_on,5,0,7,,,,,,,,5,,,,67,45
144240,note_on,5,0,14,,,,,,,,13,,,,38,45
144240,note_on,5,0,8,,,,,,,,6,,,,50,45
144240,note_on,5,0,13,,,,,,,,12,,,,50,45
144240,note_on,5,0,10,,,,,,,,8,,,,70,45
144240,note_on,5,0,2,,,,,,,,0,,,,50,45
144240,note_on,5,0,5,,,,,,,,3,,,,70,45
144240,note_on,5,0,12,,,,,,,,11,,,,67,45
144240,note_on,5,0,9,,,,,,,,7,,,,38,45
144295,note_off,55,0,6,,,,,,,,4,,,,67,64
144295,note_off,55,0,11,,,,,,,,10,,,,67,64
144295,note_off,55,0,10,,,,,,,,8,,,,70,64
144295,note_off,55,0,5,,,,,,,,3,,,,70,64
144300,note_on,5,0,6,,,,,,,,4,,,,62,45
144300,note_on,5,0,10,,,,,,,,8,,,,62,45
144300,note_on,5,0,5,,,,,,,,3,,,,62,45
144300,note_on,5,0,11,,,,,,,,10,,,,62,45
144355,note_off,115,0,2,,,,,,,,0,,,,50,64
144355,note_off,55,0,10,,,,,,,,8,,,,62,64
144355,note_off,115,0,13,,,,,,,,12,,,,50,64
144355,note_off,115,0,14,,,,,,,,13,,,,38,64
144355,note_off,115,0,9,,,,,,,,7,,,,38,64
144355,note_off,55,0,6,,,,,,,,4,,,,62,64
144355,note_off,115,0,12,,,,,,,,11,,,,67,64
144355,note_off,55,0,11,,,,,,,,10,,,,62,64
144355,note_off,115,0,7,,,,,,,,5,,,,67,64
144355,note_off,55,0,5,,,,,,,,3,,,,62,64
144355,note_off,115,0,8,,,,,,,,6,,,,50,64
144360,note_on,5,0,13,,,,,,,,12,,,,38,45
144360,note_on,5,0,2,,,,,,,,0,,,,38,45
144360,note_on,5,0,14,,,,,,,,13,,,,26,45
144360,note_on,5,0,6,,,,,,,,4,,,,67,45
144360,note_on,5,0,12,,,,,,,,11,,,,67,45
144360,note_on,5,0,8,,,,,,,,6,,,,38,45
144360,note_on,5,0,7,,,,,,,,5,,,,67,45
144360,note_on,5,0,10,,,,,,,,8,,,,70,45
144360,note_on,5,0,5,,,,,,,,3,,,,70,45
144360,note_on,5,0,11,,,,,,,,10,,,,67,45
144360,note_on,5,0,9,,,,,,,,7,,,,26,45
144415,note_off,55,0,6,,,,,,,,4,,,,67,64
144415,note_off,55,0,10,,,,,,,,8,,,,70,64
144415,note_off,55,0,11,,,,,,,,10,,,,67,64
144415,note_off,55,0,5,,,,,,,,3,,,,70,64
144420,note_on,5,0,10,,,,,,,,8,,,,62,45
144420,note_on,5,0,6,,,,,,,,4,,,,62,45
144420,note_on,5,0,11,,,,,,,,10,,,,62,45
144420,note_on,5,0,5,,,,,,,,3,,,,62,45
144475,note_off,115,0,9,,,,,,,,7,,,,26,64
144475,note_off,235,0,15,,,,,,,,14,,,,38,64
144475,note_off,55,0,10,,,,,,,,8,,,,62,64
144475,note_off,55,0,5,,,,,,,,3,,,,62,64
144475,note_off,55,0,6,,,,,,,,4,,,,62,64
144475,note_off,115,0,12,,,,,,,,11,,,,67,64
144475,note_off,115,0,2,,,,,,,,0,,,,38,64
144475,note_off,115,0,8,,,,,,,,6,,,,38,64
144475,note_off,115,0,14,,,,,,,,13,,,,26,64
144475,note_off,115,0,7,,,,,,,,5,,,,67,64
144475,note_off,55,0,11,,,,,,,,10,,,,62,64
144475,note_off,115,0,13,,,,,,,,12,,,,38,64
144480,note_on,5,0,6,,,,,,,,4,,,,67,45
144480,note_on,5,0,14,,,,,,,,13,,,,26,45
144480,note_on,5,0,7,,,,,,,,5,,,,67,45
144480,note_on,5,0,11,,,,,,,,10,,,,67,45
144480,note_on,5,0,12,,,,,,,,11,,,,67,45
144480,note_on,5,0,9,,,,,,,,7,,,,26,45
144480,note_on,5,0,13,,,,,,,,12,,,,38,45
144480,note_on,5,0,15,,,,,,,,14,,,,38,45
144480,note_on,5,0,10,,,,,,,,8,,,,70,45
144480,note_on,5,0,8,,,,,,,,6,,,,38,45
144480,note_on,5,0,5,,,,,,,,3,,,,70,45
144480,note_on,5,0,2,,,,,,,,0,,,,38,45
144535,note_off,55,0,11,,,,,,,,10,,,,67,64
144535,note_off,55,0,10,,,,,,,,8,,,,70,64
144535,note_off,55,0,6,,,,,,,,4,,,,67,64
144535,note_off,55,0,5,,,,,,,,3,,,,70,64
144540,note_on,5,0,5,,,,,,,,3,,,,62,45
144540,note_on,5,0,10,,,,,,,,8,,,,62,45
144540,note_on,5,0,6,,,,,,,,4,,,,62,45
144540,note_on,5,0,11,,,,,,,,10,,,,62,45
144595,note_off,115,0,9,,,,,,,,7,,,,26,64
144595,note_off,55,0,11,,,,,,,,10,,,,62,64
144595,note_off,115,0,12,,,,,,,,11,,,,67,64
144595,note_off,115,0,13,,,,,,,,12,,,,38,64
144595,note_off,115,0,2,,,,,,,,0,,,,38,64
144595,note_off,115,0,8,,,,,,,,6,,,,38,64
144595,note_off,55,0,5,,,,,,,,3,,,,62,64
144595,note_off,55,0,10,,,,,,,,8,,,,62,64
144595,note_off,115,0,14,,,,,,,,13,,,,26,64
144595,note_off,115,0,7,,,,,,,,5,,,,67,64
144595,note_off,55,0,6,,,,,,,,4,,,,62,64
144600,note_on,5,0,6,,,,,,,,4,,,,67,45
144600,note_on,5,0,11,,,,,,,,10,,,,67,45
144600,note_on,5,0,7,,,,,,,,5,,,,67,45
144600,note_on,5,0,2,,,,,,,,0,,,,38,45
144600,note_on,5,0,14,,,,,,,,13,,,,26,45
144600,note_on,5,0,5,,,,,,,,3,,,,70,45
144600,note_on,5,0,8,,,,,,,,6,,,,38,45
144600,note_on,5,0,13,,,,,,,,12,,,,38,45
144600,note_on,5,0,10,,,,,,,,8,,,,70,45
144600,note_on,5,0,12,,,,,,,,11,,,,67,45
144600,note_on,5,0,9,,,,,,,,7,,,,26,45
144655,note_off,55,0,6,,,,,,,,4,,,,67,64
144655,note_off,55,0,10,,,,,,,,8,,,,70,64
144655,note_off,55,0,11,,,,,,,,10,,,,67,64
144655,note_off,55,0,5,,,,,,,,3,,,,70,64
144660,note_on,5,0,11,,,,,,,,10,,,,62,45
144660,note_on,5,0,5,,,,,,,,3,,,,62,45
144660,note_on,5,0,10,,,,,,,,8,,,,62,45
144660,note_on,5,0,6,,,,,,,,4,,,,62,45
144715,note_off,115,0,14,,,,,,,,13,,,,26,64
144715,note_off,55,0,5,,,,,,,,3,,,,62,64
144715,note_off,115,0,8,,,,,,,,6,,,,38,64
144715,note_off,235,0,15,,,,,,,,14,,,,38,64
144715,note_off,55,0,11,,,,,,,,10,,,,62,64
144715,note_off,115,0,9,,,,,,,,7,,,,26,64
144715,note_off,115,0,2,,,,,,,,0,,,,38,64
144715,note_off,115,0,7,,,,,,,,5,,,,67,64
144715,note_off,55,0,10,,,,,,,,8,,,,62,64
144715,note_off,115,0,12,,,,,,,,11,,,,67,64
144715,note_off,115,0,13,,,,,,,,12,,,,38,64
144715,note_off,55,0,6,,,,,,,,4,,,,62,64
144720,note_on,5,0,11,,,,,,,,10,,,,66,45
144720,note_on,5,0,7,,,,,,,,5,,,,62,45
144720,note_on,5,0,10,,,,,,,,8,,,,69,45
144720,note_on,5,0,12,,,,,,,,11,,,,62,45
144720,note_on,5,0,9,,,,,,,,7,,,,38,45
144720,note_on,5,0,15,,,,,,,,14,,,,38,45
144720,note_on,5,0,14,,,,,,,,13,,,,38,45
144720,note_on,5,0,13,,,,,,,,12,,,,50,45
144720,note_on,5,0,6,,,,,,,,4,,,,66,45
144720,note_on,5,0,5,,,,,,,,3,,,,69,45
144720,note_on,5,0,8,,,,,,,,6,,,,50,45
144720,note_on,5,0,2,,,,,,,,0,,,,50,45
144775,note_off,55,0,5,,,,,,,,3,,,,69,64
144775,note_off,55,0,6,,,,,,,,4,,,,66,64
144775,note_off,55,0,11,,,,,,,,10,,,,66,64
144775,note_off,55,0,10,,,,,,,,8,,,,69,64
144780,note_on,5,0,5,,,,,,,,3,,,,62,45
144780,note_on,5,0,10,,,,,,,,8,,,,62,45
144780,note_on,5,0,6,,,,,,,,4,,,,62,45
144780,note_on,5,0,11,,,,,,,,10,,,,62,45
144835,note_off,55,0,6,,,,,,,,4,,,,62,64
144835,note_off,55,0,5,,,,,,,,3,,,,62,64
144835,note_off,115,0,7,,,,,,,,5,,,,62,64
144835,note_off,115,0,12,,,,,,,,11,,,,62,64
144835,note_off,55,0,10,,,,,,,,8,,,,62,64
144835,note_off,55,0,11,,,,,,,,10,,,,62,64
144840,note_on,5,0,12,,,,,,,,11,,,,62,45
144840,note_on,5,0,11,,,,,,,,10,,,,66,45
144840,note_on,5,0,10,,,,,,,,8,,,,69,45
144840,note_on,5,0,6,,,,,,,,4,,,,66,45
144840,note_on,5,0,7,,,,,,,,5,,,,62,45
144840,note_on,5,0,5,,,,,,,,3,,,,69,45
144895,note_off,55,0,11,,,,,,,,10,,,,66,64
144895,note_off,55,0,6,,,,,,,,4,,,,66,64
144895,note_off,55,0,10,,,,,,,,8,,,,69,64
144895,note_off,55,0,5,,,,,,,,3,,,,69,64
144900,note_on,5,0,11,,,,,,,,10,,,,62,45
144900,note_on,5,0,5,,,,,,,,3,,,,62,45
144900,note_on,5,0,10,,,,,,,,8,,,,62,45
144900,note_on,5,0,6,,,,,,,,4,,,,62,45
144955,note_off,55,0,10,,,,,,,,8,,,,62,64
144955,note_off,235,0,8,,,,,,,,6,,,,50,64
144955,note_off,115,0,12,,,,,,,,11,,,,62,64
144955,note_off,235,0,2,,,,,,,,0,,,,50,64
144955,note_off,55,0,5,,,,,,,,3,,,,62,64
144955,note_off,55,0,6,,,,,,,,4,,,,62,64
144955,note_off,235,0,14,,,,,,,,13,,,,38,64
144955,note_off,235,0,15,,,,,,,,14,,,,38,64
144955,note_off,55,0,11,,,,,,,,10,,,,62,64
144955,note_off,235,0,13,,,,,,,,12,,,,50,64
144955,note_off,115,0,7,,,,,,,,5,,,,62,64
144955,note_off,235,0,9,,,,,,,,7,,,,38,64
144960,note_on,5,0,9,,,,,,,,7,,,,38,45
144960,note_on,5,0,13,,,,,,,,12,,,,50,45
144960,note_on,5,0,15,,,,,,,,14,,,,38,45
144960,note_on,5,0,5,,,,,,,,3,,,,69,45
144960,note_on,5,0,7,,,,,,,,5,,,,62,45
144960,note_on,5,0,2,,,,,,,,0,,,,50,45
144960,note_on,5,0,11,,,,,,,,10,,,,66,45
144960,note_on,5,0,10,,,,,,,,8,,,,69,45
144960,note_on,5,0,6,,,,,,,,4,,,,66,45
144960,note_on,5,0,12,,,,,,,,11,,,,62,45
144960,note_on,5,0,8,,,,,,,,6,,,,50,45
144960,note_on,5,0,14,,,,,,,,13,,,,38,45
145015,note_off,55,0,6,,,,,,,,4,,,,66,64
145015,note_off,55,0,10,,,,,,,,8,,,,69,64
145015,note_off,55,0,5,,,,,,,,3,,,,69,64
145015,note_off,55,0,11,,,,,,,,10,,,,66,64
145020,note_on,5,0,11,,,,,,,,10,,,,62,45
145020,note_on,5,0,5,,,,,,,,3,,,,62,45
145020,note_on,5,0,6,,,,,,,,4,,,,62,45
145020,note_on,5,0,10,,,,,,,,8,,,,62,45
145075,note_off,55,0,10,,,,,,,,8,,,,62,64
145075,note_off,55,0,6,,,,,,,,4,,,,62,64
145075,note_off,115,0,9,,,,,,,,7,,,,38,64
145075,note_off,115,0,12,,,,,,,,11,,,,62,64
145075,note_off,115,0,2,,,,,,,,0,,,,50,64
145075,note_off,115,0,13,,,,,,,,12,,,,50,64
145075,note_off,115,0,7,,,,,,,,5,,,,62,64
145075,note_off,55,0,11,,,,,,,,10,,,,62,64
145075,note_off,115,0,14,,,,,,,,13,,,,38,64
145075,note_off,55,0,5,,,,,,,,3,,,,62,64
145075,note_off,115,0,8,,,,,,,,6,,,,50,64
145080,note_on,5,0,13,,,,,,,,12,,,,38,45
145080,note_on,5,0,7,,,,,,,,5,,,,62,45
145080,note_on,5,0,14,,,,,,,,13,,,,26,45
145080,note_on,5,0,5,,,,,,,,3,,,,69,45
145080,note_on,5,0,6,,,,,,,,4,,,,66,45
145080,note_on,5,0,2,,,,,,,,0,,,,38,45
145080,note_on,5,0,10,,,,,,,,8,,,,69,45
145080,note_on,5,0,9,,,,,,,,7,,,,26,45
145080,note_on,5,0,8,,,,,,,,6,,,,38,45
145080,note_on,5,0,11,,,,,,,,10,,,,66,45
145080,note_on,5,0,12,,,,,,,,11,,,,62,45
145135,note_off,55,0,6,,,,,,,,4,,,,66,64
145135,note_off,55,0,5,,,,,,,,3,,,,69,64
145135,note_off,55,0,11,,,,,,,,10,,,,66,64
145135,note_off,55,0,10,,,,,,,,8,,,,69,64
145140,note_on,5,0,5,,,,,,,,3,,,,62,45
145140,note_on,5,0,10,,,,,,,,8,,,,62,45
145140,note_on,5,0,6,,,,,,,,4,,,,62,45
145140,note_on,5,0,11,,,,,,,,10,,,,62,45
145195,note_off,235,0,15,,,,,,,,14,,,,38,64
145195,note_off,115,0,7,,,,,,,,5,,,,62,64
145195,note_off,55,0,6,,,,,,,,4,,,,62,64
145195,note_off,115,0,8,,,,,,,,6,,,,38,64
145195,note_off,115,0,14,,,,,,,,13,,,,26,64
145195,note_off,55,0,5,,,,,,,,3,,,,62,64
145195,note_off,115,0,13,,,,,,,,12,,,,38,64
145195,note_off,115,0,2,,,,,,,,0,,,,38,64
145195,note_off,115,0,9,,,,,,,,7,,,,26,64
145195,note_off,55,0,11,,,,,,,,10,,,,62,64
145195,note_off,115,0,12,,,,,,,,11,,,,62,64
145195,note_off,55,0,10,,,,,,,,8,,,,62,64
145200,note_on,5,0,12,,,,,,,,11,,,,62,45
145200,note_on,5,0,2,,,,,,,,0,,,,38,45
145200,note_on,5,0,8,,,,,,,,6,,,,38,45
145200,note_on,5,0,6,,,,,,,,4,,,,66,45
145200,note_on,5,0,11,,,,,,,,10,,,,66,45
145200,note_on,5,0,15,,,,,,,,14,,,,38,45
145200,note_on,5,0,13,,,,,,,,12,,,,38,45
145200,note_on,5,0,14,,,,,,,,13,,,,26,45
145200,note_on,5,0,7,,,,,,,,5,,,,62,45
145200,note_on,5,0,5,,,,,,,,3,,,,69,45
145200,note_on,5,0,10,,,,,,,,8,,,,69,45
145200,note_on,5,0,9,,,,,,,,7,,,,26,45
145255,note_off,55,0,5,,,,,,,,3,,,,69,64
145255,note_off,55,0,10,,,,,,,,8,,,,69,64
145255,note_off,55,0,11,,,,,,,,10,,,,66,64
145255,note_off,55,0,6,,,,,,,,4,,,,66,64
145260,note_on,5,0,6,,,,,,,,4,,,,62,45
145260,note_on,5,0,11,,,,,,,,10,,,,62,45
145260,note_on,5,0,5,,,,,,,,3,,,,62,45
145260,note_on,5,0,10,,,,,,,,8,,,,62,45
145315,note_off,115,0,8,,,,,,,,6,,,,38,64
145315,note_off,55,0,6,,,,,,,,4,,,,62,64
145315,note_off,115,0,14,,,,,,,,13,,,,26,64
145315,note_off,55,0,11,,,,,,,,10,,,,62,64
145315,note_off,115,0,9,,,,,,,,7,,,,26,64
145315,note_off,55,0,10,,,,,,,,8,,,,62,64
145315,note_off,115,0,13,,,,,,,,12,,,,38,64
145315,note_off,115,0,7,,,,,,,,5,,,,62,64
145315,note_off,115,0,2,,,,,,,,0,,,,38,64
145315,note_off,115,0,12,,,,,,,,11,,,,62,64
145315,note_off,55,0,5,,,,,,,,3,,,,62,64
145320,note_on,5,0,8,,,,,,,,6,,,,38,45
145320,note_on,5,0,14,,,,,,,,13,,,,26,45
145320,note_on,5,0,7,,,,,,,,5,,,,62,45
145320,note_on,5,0,9,,,,,,,,7,,,,26,45
145320,note_on,5,0,5,,,,,,,,3,,,,69,45
145320,note_on,5,0,13,,,,,,,,12,,,,38,45
145320,note_on,5,0,10,,,,,,,,8,,,,69,45
145320,note_on,5,0,2,,,,,,,,0,,,,38,45
145320,note_on,5,0,6,,,,,,,,4,,,,66,45
145320,note_on,5,0,11,,,,,,,,10,,,,66,45
145320,note_on,5,0,12,,,,,,,,11,,,,62,45
145375,note_off,55,0,5,,,,,,,,3,,,,69,64
145375,note_off,55,0,10,,,,,,,,8,,,,69,64
145375,note_off,55,0,11,,,,,,,,10,,,,66,64
145375,note_off,55,0,6,,,,,,,,4,,,,66,64
145380,note_on,5,0,6,,,,,,,,4,,,,62,45
145380,note_on,5,0,5,,,,,,,,3,,,,62,45
145380,note_on,5,0,11,,,,,,,,10,,,,62,45
145380,note_on,5,0,10,,,,,,,,8,,,,62,45
145435,note_off,115,0,7,,,,,,,,5,,,,62,64
145435,note_off,115,0,14,,,,,,,,13,,,,26,64
145435,note_off,55,0,10,,,,,,,,8,,,,62,64
145435,note_off,55,0,6,,,,,,,,4,,,,62,64
145435,note_off,115,0,8,,,,,,,,6,,,,38,64
145435,note_off,115,0,9,,,,,,,,7,,,,26,64
145435,note_off,115,0,13,,,,,,,,12,,,,38,64
145435,note_off,235,0,15,,,,,,,,14,,,,38,64
145435,note_off,55,0,5,,,,,,,,3,,,,62,64
145435,note_off,115,0,2,,,,,,,,0,,,,38,64
145435,note_off,115,0,12,,,,,,,,11,,,,62,64
145435,note_off,55,0,11,,,,,,,,10,,,,62,64
145440,note_on,5,0,7,,,,,,,,5,,,,62,92
145440,note_on,5,0,13,,,,,,,,12,,,,43,92
145440,note_on,5,0,6,,,,,,,,4,,,,82,92
145440,note_on,5,0,10,,,,,,,,8,,,,86,92
145440,note_on,5,0,14,,,,,,,,13,,,,31,92
145440,note_on,5,0,2,,,,,,,,0,,,,43,92
145440,note_on,5,0,8,,,,,,,,6,,,,43,92
145440,note_on,5,0,9,,,,,,,,7,,,,31,92
145440,note_on,5,0,12,,,,,,,,11,,,,62,92
145440,note_on,5,0,15,,,,,,,,14,,,,31,92
145440,note_on,5,0,5,,,,,,,,3,,,,86,92
145440,note_on,5,0,11,,,,,,,,10,,,,82,92
145495,note_off,55,0,11,,,,,,,,10,,,,82,64
145495,note_off,55,0,5,,,,,,,,3,,,,86,64
145495,note_off,55,0,6,,,,,,,,4,,,,82,64
145495,note_off,55,0,10,,,,,,,,8,,,,86,64
145500,note_on,5,0,6,,,,,,,,4,,,,81,92
145500,note_on,5,0,11,,,,,,,,10,,,,81,92
145500,note_on,5,0,5,,,,,,,,3,,,,84,92
145500,note_on,5,0,10,,,,,,,,8,,,,84,92
145555,note_off,115,0,12,,,,,,,,11,,,,62,64
145555,note_off,55,0,10,,,,,,,,8,,,,84,64
145555,note_off,55,0,6,,,,,,,,4,,,,81,64
145555,note_off,55,0,11,,,,,,,,10,,,,81,64
145555,note_off,115,0,7,,,,,,,,5,,,,62,64
145555,note_off,55,0,5,,,,,,,,3,,,,84,64
145560,note_on,5,0,6,,,,,,,,4,,,,81,92
145560,note_on,5,0,12,,,,,,,,11,,,,62,92
145560,note_on,5,0,10,,,,,,,,8,,,,84,92
145560,note_on,5,0,11,,,,,,,,10,,,,81,92
145560,note_on,5,0,7,,,,,,,,5,,,,62,92
145560,note_on,5,0,5,,,,,,,,3,,,,84,92
145615,note_off,55,0,5,,,,,,,,3,,,,84,64
145615,note_off,55,0,6,,,,,,,,4,,,,81,64
145615,note_off,55,0,10,,,,,,,,8,,,,84,64
145615,note_off,55,0,11,,,,,,,,10,,,,81,64
145620,note_on,5,0,5,,,,,,,,3,,,,82,92
145620,note_on,5,0,11,,,,,,,,10,,,,79,92
145620,note_on,5,0,10,,,,,,,,8,,,,82,92
145620,note_on,5,0,6,,,,,,,,4,,,,79,92
145675,note_off,235,0,9,,,,,,,,7,,,,31,64
145675,note_off,235,0,2,,,,,,,,0,,,,43,64
145675,note_off,55,0,5,,,,,,,,3,,,,82,64
145675,note_off,115,0,12,,,,,,,,11,,,,62,64
145675,note_off,55,0,6,,,,,,,,4,,,,79,64
145675,note_off,235,0,15,,,,,,,,14,,,,31,64
145675,note_off,235,0,8,,,,,,,,6,,,,43,64
145675,note_off,235,0,14,,,,,,,,13,,,,31,64
145675,note_off,55,0,11,,,,,,,,10,,,,79,64
145675,note_off,115,0,7,,,,,,,,5,,,,62,64
145675,note_off,235,0,13,,,,,,,,12,,,,43,64
145675,note_off,55,0,10,,,,,,,,8,,,,82,64
145680,note_on,5,0,6,,,,,,,,4,,,,79,92
145680,note_on,5,0,8,,,,,,,,6,,,,43,92
145680,note_on,5,0,7,,,,,,,,5,,,,62,92
145680,note_on,5,0,13,,,,,,,,12,,,,43,92
145680,note_on,5,0,11,,,,,,,,10,,,,79,92
145680,note_on,5,0,5,,,,,,,,3,,,,82,92
145680,note_on,5,0,2,,,,,,,,0,,,,43,92
145680,note_on,5,0,14,,,,,,,,13,,,,31,92
145680,note_on,5,0,9,,,,,,,,7,,,,31,92
145680,note_on,5,0,15,,,,,,,,14,,,,31,92
145680,note_on,5,0,10,,,,,,,,8,,,,82,92
145680,note_on,5,0,12,,,,,,,,11,,,,62,92
145735,note_off,55,0,11,,,,,,,,10,,,,79,64
145735,note_off,55,0,6,,,,,,,,4,,,,79,64
145735,note_off,55,0,10,,,,,,,,8,,,,82,64
145735,note_off,55,0,5,,,,,,,,3,,,,82,64
145740,note_on,5,0,5,,,,,,,,3,,,,81,92
145740,note_on,5,0,10,,,,,,,,8,,,,81,92
145740,note_on,5,0,11,,,,,,,,10,,,,77,92
145740,note_on,5,0,6,,,,,,,,4,,,,77,92
145795,note_off,55,0,6,,,,,,,,4,,,,77,64
145795,note_off,55,0,5,,,,,,,,3,,,,81,64
145795,note_off,115,0,2,,,,,,,,0,,,,43,64
145795,note_off,115,0,9,,,,,,,,7,,,,31,64
145795,note_off,115,0,7,,,,,,,,5,,,,62,64
145795,note_off,115,0,14,,,,,,,,13,,,,31,64
145795,note_off,115,0,13,,,,,,,,12,,,,43,64
145795,note_off,55,0,10,,,,,,,,8,,,,81,64
145795,note_off,115,0,12,,,,,,,,11,,,,62,64
145795,note_off,115,0,8,,,,,,,,6,,,,43,64
145795,note_off,55,0,11,,,,,,,,10,,,,77,64
145800,note_on,5,0,12,,,,,,,,11,,,,62,92
145800,note_on,5,0,11,,,,,,,,10,,,,77,92
145800,note_on,5,0,14,,,,,,,,13,,,,31,92
145800,note_on,5,0,10,,,,,,,,8,,,,81,92
145800,note_on,5,0,6,,,,,,,,4,,,,77,92
145800,note_on,5,0,13,,,,,,,,12,,,,43,92
145800,note_on,5,0,2,,,,,,,,0,,,,43,92
145800,note_on,5,0,8,,,,,,,,6,,,,43,92
145800,note_on,5,0,5,,,,,,,,3,,,,81,92
145800,note_on,5,0,7,,,,,,,,5,,,,62,92
145800,note_on,5,0,9,,,,,,,,7,,,,31,92
145855,note_off,55,0,6,,,,,,,,4,,,,77,64
145855,note_off,55,0,5,,,,,,,,3,,,,81,64
145855,note_off,55,0,11,,,,,,,,10,,,,77,64
145855,note_off,55,0,10,,,,,,,,8,,,,81,64
145860,note_on,5,0,5,,,,,,,,3,,,,79,92
145860,note_on,5,0,10,,,,,,,,8,,,,79,92
145860,note_on,5,0,11,,,,,,,,10,,,,75,92
145860,note_on,5,0,6,,,,,,,,4,,,,75,92
145915,note_off,55,0,10,,,,,,,,8,,,,79,64
145915,note_off,115,0,12,,,,,,,,11,,,,62,64
145915,note_off,115,0,9,,,,,,,,7,,,,31,64
145915,note_off,55,0,6,,,,,,,,4,,,,75,64
145915,note_off,115,0,2,,,,,,,,0,,,,43,64
145915,note_off,55,0,5,,,,,,,,3,,,,79,64
145915,note_off,55,0,11,,,,,,,,10,,,,75,64
145915,note_off,115,0,13,,,,,,,,12,,,,43,64
145915,note_off,115,0,14,,,,,,,,13,,,,31,64
145915,note_off,115,0,8,,,,,,,,6,,,,43,64
145915,note_off,115,0,7,,,,,,,,5,,,,62,64
145915,note_off,235,0,15,,,,,,,,14,,,,31,64
145920,note_on,5,0,14,,,,,,,,13,,,,31,92
145920,note_on,5,0,5,,,,,,,,3,,,,79,92
145920,note_on,5,0,10,,,,,,,,8,,,,79,92
145920,note_on,5,0,9,,,,,,,,7,,,,31,92
145920,note_on,5,0,6,,,,,,,,4,,,,75,92
145920,note_on,5,0,15,,,,,,,,14,,,,31,92
145920,note_on,5,0,2,,,,,,,,0,,,,43,92
145920,note_on,5,0,7,,,,,,,,5,,,,62,92
145920,note_on,5,0,11,,,,,,,,10,,,,75,92
145920,note_on,5,0,13,,,,,,,,12,,,,43,92
145920,note_on,5,0,8,,,,,,,,6,,,,43,92
145920,note_on,5,0,12,,,,,,,,11,,,,62,92
145975,note_off,55,0,6,,,,,,,,4,,,,75,64
145975,note_off,55,0,11,,,,,,,,10,,,,75,64
145975,note_off,55,0,10,,,,,,,,8,,,,79,64
145975,note_off,55,0,5,,,,,,,,3,,,,79,64
145980,note_on,5,0,5,,,,,,,,3,,,,77,92
145980,note_on,5,0,11,,,,,,,,10,,,,74,92
145980,note_on,5,0,6,,,,,,,,4,,,,74,92
145980,note_on,5,0,10,,,,,,,,8,,,,77,92
146035,note_off,55,0,10,,,,,,,,8,,,,77,64
146035,note_off,55,0,5,,,,,,,,3,,,,77,64
146035,note_off,55,0,11,,,,,,,,10,,,,74,64
146035,note_off,115,0,15,,,,,,,,14,,,,31,64
146035,note_off,115,0,7,,,,,,,,5,,,,62,64
146035,note_off,115,0,2,,,,,,,,0,,,,43,64
146035,note_off,115,0,14,,,,,,,,13,,,,31,64
146035,note_off,115,0,9,,,,,,,,7,,,,31,64
146035,note_off,115,0,12,,,,,,,,11,,,,62,64
146035,note_off,115,0,13,,,,,,,,12,,,,43,64
146035,note_off,55,0,6,,,,,,,,4,,,,74,64
146035,note_off,115,0,8,,,,,,,,6,,,,43,64
146040,note_on,5,0,12,,,,,,,,11,,,,62,92
146040,note_on,5,0,9,,,,,,,,7,,,,31,92
146040,note_on,5,0,15,,,,,,,,14,,,,43,92
146040,note_on,5,0,10,,,,,,,,8,,,,77,92
146040,note_on,5,0,8,,,,,,,,6,,,,43,92
146040,note_on,5,0,14,,,,,,,,13,,,,31,92
146040,note_on,5,0,2,,,,,,,,0,,,,43,92
146040,note_on,5,0,11,,,,,,,,10,,,,74,92
146040,note_on,5,0,13,,,,,,,,12,,,,43,92
146040,note_on,5,0,7,,,,,,,,5,,,,62,92
146040,note_on,5,0,5,,,,,,,,3,,,,77,92
146040,note_on,5,0,6,,,,,,,,4,,,,74,92
146095,note_off,55,0,11,,,,,,,,10,,,,74,64
146095,note_off,55,0,5,,,,,,,,3,,,,77,64
146095,note_off,55,0,10,,,,,,,,8,,,,77,64
146095,note_off,55,0,6,,,,,,,,4,,,,74,64
146100,note_on,5,0,10,,,,,,,,8,,,,75,92
146100,note_on,5,0,5,,,,,,,,3,,,,75,92
146100,note_on,5,0,11,,,,,,,,10,,,,72,92
146100,note_on,5,0,6,,,,,,,,4,,,,72,92
146155,note_off,55,0,10,,,,,,,,8,,,,75,64
146155,note_off,115,0,13,,,,,,,,12,,,,43,64
146155,note_off,55,0,6,,,,,,,,4,,,,72,64
146155,note_off,115,0,14,,,,,,,,13,,,,31,64
146155,note_off,55,0,11,,,,,,,,10,,,,72,64
146155,note_off,115,0,9,,,,,,,,7,,,,31,64
146155,note_off,115,0,15,,,,,,,,14,,,,43,64
146155,note_off,115,0,8,,,,,,,,6,,,,43,64
146155,note_off,115,0,7,,,,,,,,5,,,,62,64
146155,note_off,115,0,12,,,,,,,,11,,,,62,64
146155,note_off,115,0,2,,,,,,,,0,,,,43,64
146155,note_off,55,0,5,,,,,,,,3,,,,75,64
146160,note_on,5,0,13,,,,,,,,12,,,,48,92
146160,note_on,5,0,8,,,,,,,,6,,,,48,92
146160,note_on,5,0,7,,,,,,,,5,,,,63,92
146160,note_on,5,0,12,,,,,,,,11,,,,63,92
146160,note_on,5,0,9,,,,,,,,7,,,,36,92
146160,note_on,5,0,5,,,,,,,,3,,,,75,92
146160,note_on,5,0,10,,,,,,,,8,,,,75,92
146160,note_on,5,0,6,,,,,,,,4,,,,72,92
146160,note_on,5,0,15,,,,,,,,14,,,,36,92
146160,note_on,5,0,11,,,,,,,,10,,,,72,92
146160,note_on,5,0,2,,,,,,,,0,,,,48,92
146160,note_on,5,0,14,,,,,,,,13,,,,36,92
146215,note_off,55,0,10,,,,,,,,8,,,,75,64
146215,note_off,55,0,6,,,,,,,,4,,,,72,64
146215,note_off,55,0,11,,,,,,,,10,,,,72,64
146215,note_off,55,0,5,,,,,,,,3,,,,75,64
146220,note_on,5,0,6,,,,,,,,4,,,,70,92
146220,note_on,5,0,5,,,,,,,,3,,,,74,92
146220,note_on,5,0,11,,,,,,,,10,,,,70,92
146220,note_on,5,0,10,,,,,,,,8,,,,74,92
146275,note_off,115,0,7,,,,,,,,5,,,,63,64
146275,note_off,55,0,5,,,,,,,,3,,,,74,64
146275,note_off,115,0,12,,,,,,,,11,,,,63,64
146275,note_off,55,0,11,,,,,,,,10,,,,70,64
146275,note_off,55,0,10,,,,,,,,8,,,,74,64
146275,note_off,55,0,6,,,,,,,,4,,,,70,64
146280,note_on,5,0,6,,,,,,,,4,,,,70,92
146280,note_on,5,0,7,,,,,,,,5,,,,63,92
146280,note_on,5,0,5,,,,,,,,3,,,,74,92
146280,note_on,5,0,12,,,,,,,,11,,,,63,92
146280,note_on,5,0,11,,,,,,,,10,,,,70,92
146280,note_on,5,0,10,,,,,,,,8,,,,74,92
146335,note_off,55,0,6,,,,,,,,4,,,,70,64
146335,note_off,55,0,5,,,,,,,,3,,,,74,64
146335,note_off,55,0,11,,,,,,,,10,,,,70,64
146335,note_off,55,0,10,,,,,,,,8,,,,74,64
146340,note_on,5,0,6,,,,,,,,4,,,,69,92
146340,note_on,5,0,11,,,,,,,,10,,,,69,92
146340,note_on,5,0,5,,,,,,,,3,,,,72,92
146340,note_on,5,0,10,,,,,,,,8,,,,72,92
146395,note_off,235,0,15,,,,,,,,14,,,,36,64
146395,note_off,115,0,7,,,,,,,,5,,,,63,64
146395,note_off,235,0,2,,,,,,,,0,,,,48,64
146395,note_off,235,0,14,,,,,,,,13,,,,36,64
146395,note_off,235,0,9,,,,,,,,7,,,,36,64
146395,note_off,235,0,13,,,,,,,,12,,,,48,64
146395,note_off,55,0,5,,,,,,,,3,,,,72,64
146395,note_off,235,0,8,,,,,,,,6,,,,48,64
146395,note_off,55,0,11,,,,,,,,10,,,,69,64
146395,note_off,55,0,6,,,,,,,,4,,,,69,64
146395,note_off,115,0,12,,,,,,,,11,,,,63,64
146395,note_off,55,0,10,,,,,,,,8,,,,72,64
146400,note_on,5,0,12,,,,,,,,11,,,,63,92
146400,note_on,5,0,7,,,,,,,,5,,,,63,92
146400,note_on,5,0,2,,,,,,,,0,,,,48,92
146400,note_on,5,0,15,,,,,,,,14,,,,36,92
146400,note_on,5,0,5,,,,,,,,3,,,,72,92
146400,note_on,5,0,10,,,,,,,,8,,,,72,92
146400,note_on,5,0,6,,,,,,,,4,,,,69,92
146400,note_on,5,0,8,,,,,,,,6,,,,48,92
146400,note_on,5,0,11,,,,,,,,10,,,,69,92
146400,note_on,5,0,14,,,,,,,,13,,,,36,92
146400,note_on,5,0,13,,,,,,,,12,,,,48,92
146400,note_on,5,0,9,,,,,,,,7,,,,36,92
146455,note_off,55,0,5,,,,,,,,3,,,,72,64
146455,note_off,55,0,11,,,,,,,,10,,,,69,64
146455,note_off,55,0,6,,,,,,,,4,,,,69,64
146455,note_off,55,0,10,,,,,,,,8,,,,72,64
146460,note_on,5,0,11,,,,,,,,10,,,,67,92
146460,note_on,5,0,5,,,,,,,,3,,,,70,92
146460,note_on,5,0,10,,,,,,,,8,,,,70,92
146460,note_on,5,0,6,,,,,,,,4,,,,67,92
146515,note_off,55,0,5,,,,,,,,3,,,,70,64
146515,note_off,115,0,2,,,,,,,,0,,,,48,64
146515,note_off,115,0,8,,,,,,,,6,,,,48,64
146515,note_off,55,0,11,,,,,,,,10,,,,67,64
146515,note_off,115,0,14,,,,,,,,13,,,,36,64
146515,note_off,115,0,13,,,,,,,,12,,,,48,64
146515,note_off,115,0,9,,,,,,,,7,,,,36,64
146515,note_off,115,0,7,,,,,,,,5,,,,63,64
146515,note_off,55,0,10,,,,,,,,8,,,,70,64
146515,note_off,115,0,12,,,,,,,,11,,,,63,64
146515,note_off,55,0,6,,,,,,,,4,,,,67,64
146520,note_on,5,0,12,,,,,,,,11,,,,63,92
146520,note_on,5,0,13,,,,,,,,12,,,,36,92
146520,note_on,5,0,8,,,,,,,,6,,,,36,92
146520,note_on,5,0,5,,,,,,,,3,,,,70,92
146520,note_on,5,0,2,,,,,,,,0,,,,36,92
146520,note_on,5,0,14,,,,,,,,13,,,,24,92
146520,note_on,5,0,11,,,,,,,,10,,,,67,92
146520,note_on,5,0,9,,,,,,,,7,,,,24,92
146520,note_on,5,0,10,,,,,,,,8,,,,70,92
146520,note_on,5,0,6,,,,,,,,4,,,,67,92
146520,note_on,5,0,7,,,,,,,,5,,,,63,92
146575,note_off,55,0,10,,,,,,,,8,,,,70,64
146575,note_off,55,0,6,,,,,,,,4,,,,67,64
146575,note_off,55,0,5,,,,,,,,3,,,,70,64
146575,note_off,55,0,11,,,,,,,,10,,,,67,64
146580,note_on,5,0,6,,,,,,,,4,,,,66,92
146580,note_on,5,0,10,,,,,,,,8,,,,69,92
146580,note_on,5,0,11,,,,,,,,10,,,,66,92
146580,note_on,5,0,5,,,,,,,,3,,,,69,92
146635,note_off,115,0,2,,,,,,,,0,,,,36,64
146635,note_off,115,0,14,,,,,,,,13,,,,24,64
146635,note_off,55,0,6,,,,,,,,4,,,,66,64
146635,note_off,55,0,10,,,,,,,,8,,,,69,64
146635,note_off,115,0,12,,,,,,,,11,,,,63,64
146635,note_off,55,0,11,,,,,,,,10,,,,66,64
146635,note_off,115,0,13,,,,,,,,12,,,,36,64
146635,note_off,115,0,7,,,,,,,,5,,,,63,64
146635,note_off,115,0,8,,,,,,,,6,,,,36,64
146635,note_off,235,0,15,,,,,,,,14,,,,36,64
146635,note_off,115,0,9,,,,,,,,7,,,,24,64
146635,note_off,55,0,5,,,,,,,,3,,,,69,64
146640,note_on,5,0,14,,,,,,,,13,,,,24,92
146640,note_on,5,0,8,,,,,,,,6,,,,36,92
146640,note_on,5,0,5,,,,,,,,3,,,,69,92
146640,note_on,5,0,2,,,,,,,,0,,,,36,92
146640,note_on,5,0,12,,,,,,,,11,,,,63,92
146640,note_on,5,0,15,,,,,,,,14,,,,36,92
146640,note_on,5,0,13,,,,,,,,12,,,,36,92
146640,note_on,5,0,11,,,,,,,,10,,,,66,92
146640,note_on,5,0,9,,,,,,,,7,,,,24,92
146640,note_on,5,0,6,,,,,,,,4,,,,66,92
146640,note_on,5,0,10,,,,,,,,8,,,,69,92
146640,note_on,5,0,7,,,,,,,,5,,,,63,92
146695,note_off,55,0,11,,,,,,,,10,,,,66,64
146695,note_off,55,0,6,,,,,,,,4,,,,66,64
146695,note_off,55,0,10,,,,,,,,8,,,,69,64
146695,note_off,55,0,5,,,,,,,,3,,,,69,64
146700,note_on,5,0,11,,,,,,,,10,,,,63,92
146700,note_on,5,0,6,,,,,,,,4,,,,63,92
146700,note_on,5,0,10,,,,,,,,8,,,,67,92
146700,note_on,5,0,5,,,,,,,,3,,,,67,92
146755,note_off,115,0,14,,,,,,,,13,,,,24,64
146755,note_off,55,0,5,,,,,,,,3,,,,67,64
146755,note_off,115,0,8,,,,,,,,6,,,,36,64
146755,note_off,55,0,11,,,,,,,,10,,,,63,64
146755,note_off,55,0,10,,,,,,,,8,,,,67,64
146755,note_off,55,0,6,,,,,,,,4,,,,63,64
146755,note_off,115,0,9,,,,,,,,7,,,,24,64
146755,note_off,115,0,13,,,,,,,,12,,,,36,64
146755,note_off,115,0,2,,,,,,,,0,,,,36,64
146755,note_off,115,0,12,,,,,,,,11,,,,63,64
146755,note_off,115,0,7,,,,,,,,5,,,,63,64
146755,note_off,115,0,15,,,,,,,,14,,,,36,64
146760,note_on,5,0,13,,,,,,,,12,,,,36,92
146760,note_on,5,0,2,,,,,,,,0,,,,36,92
146760,note_on,5,0,10,,,,,,,,8,,,,67,92
146760,note_on,5,0,12,,,,,,,,11,,,,63,92
146760,note_on,5,0,11,,,,,,,,10,,,,63,92
146760,note_on,5,0,6,,,,,,,,4,,,,63,92
146760,note_on,5,0,9,,,,,,,,7,,,,24,92
146760,note_on,5,0,5,,,,,,,,3,,,,67,92
146760,note_on,5,0,8,,,,,,,,6,,,,36,92
146760,note_on,5,0,14,,,,,,,,13,,,,24,92
146760,note_on,5,0,7,,,,,,,,5,,,,63,92
146760,note_on,5,0,15,,,,,,,,14,,,,48,92
146815,note_off,55,0,6,,,,,,,,4,,,,63,64
146815,note_off,55,0,10,,,,,,,,8,,,,67,64
146815,note_off,55,0,5,,,,,,,,3,,,,67,64
146815,note_off,55,0,11,,,,,,,,10,,,,63,64
146820,note_on,5,0,10,,,,,,,,8,,,,66,92
146820,note_on,5,0,5,,,,,,,,3,,,,66,92
146820,note_on,5,0,11,,,,,,,,10,,,,62,92
146820,note_on,5,0,6,,,,,,,,4,,,,62,92
146875,note_off,115,0,12,,,,,,,,11,,,,63,64
146875,note_off,115,0,9,,,,,,,,7,,,,24,64
146875,note_off,115,0,8,,,,,,,,6,,,,36,64
146875,note_off,55,0,10,,,,,,,,8,,,,66,64
146875,note_off,55,0,6,,,,,,,,4,,,,62,64
146875,note_off,115,0,13,,,,,,,,12,,,,36,64
146875,note_off,115,0,14,,,,,,,,13,,,,24,64
146875,note_off,115,0,15,,,,,,,,14,,,,48,64
146875,note_off,115,0,2,,,,,,,,0,,,,36,64
146875,note_off,55,0,5,,,,,,,,3,,,,66,64
146875,note_off,55,0,11,,,,,,,,10,,,,62,64
146875,note_off,115,0,7,,,,,,,,5,,,,63,64
146880,note_on,5,0,6,,,,,,,,4,,,,62,92
146880,note_on,5,0,7,,,,,,,,5,,,,57,92
146880,note_on,5,0,10,,,,,,,,8,,,,66,92
146880,note_on,5,0,12,,,,,,,,11,,,,57,92
146880,note_on,5,0,2,,,,,,,,0,,,,50,92
146880,note_on,5,0,15,,,,,,,,14,,,,38,92
146880,note_on,5,0,5,,,,,,,,3,,,,66,92
146880,note_on,5,0,11,,,,,,,,10,,,,62,92
146880,note_on,5,0,14,,,,,,,,13,,,,38,92
146880,note_on,5,0,9,,,,,,,,7,,,,38,92
146880,note_on,5,0,13,,,,,,,,12,,,,50,92
146880,note_on,5,0,8,,,,,,,,6,,,,50,92
146935,note_off,55,0,11,,,,,,,,10,,,,62,64
146935,note_off,55,0,10,,,,,,,,8,,,,66,64
146935,note_off,55,0,6,,,,,,,,4,,,,62,64
146935,note_off,55,0,5,,,,,,,,3,,,,66,64
146940,note_on,5,0,11,,,,,,,,10,,,,62,92
146940,note_on,5,0,5,,,,,,,,3,,,,66,92
146940,note_on,5,0,10,,,,,,,,8,,,,66,92
146940,note_on,5,0,6,,,,,,,,4,,,,62,92
146995,note_off,55,0,11,,,,,,,,10,,,,62,64
146995,note_off,115,0,7,,,,,,,,5,,,,57,64
146995,note_off,55,0,5,,,,,,,,3,,,,66,64
146995,note_off,55,0,6,,,,,,,,4,,,,62,64
146995,note_off,115,0,12,,,,,,,,11,,,,57,64
146995,note_off,55,0,10,,,,,,,,8,,,,66,64
147000,note_on,5,0,10,,,,,,,,8,,,,67,92
147000,note_on,5,0,12,,,,,,,,11,,,,57,92
147000,note_on,5,0,11,,,,,,,,10,,,,64,92
147000,note_on,5,0,6,,,,,,,,4,,,,64,92
147000,note_on,5,0,5,,,,,,,,3,,,,67,92
147000,note_on,5,0,7,,,,,,,,5,,,,57,92
147055,note_off,55,0,5,,,,,,,,3,,,,67,64
147055,note_off,55,0,11,,,,,,,,10,,,,64,64
147055,note_off,55,0,10,,,,,,,,8,,,,67,64
147055,note_off,55,0,6,,,,,,,,4,,,,64,64
147060,note_on,5,0,5,,,,,,,,3,,,,69,92
147060,note_on,5,0,6,,,,,,,,4,,,,66,92
147060,note_on,5,0,10,,,,,,,,8,,,,69,92
147060,note_on,5,0,11,,,,,,,,10,,,,66,92
147115,note_off,235,0,9,,,,,,,,7,,,,38,64
147115,note_off,55,0,5,,,,,,,,3,,,,69,64
147115,note_off,235,0,14,,,,,,,,13,,,,38,64
147115,note_off,55,0,6,,,,,,,,4,,,,66,64
147115,note_off,235,0,8,,,,,,,,6,,,,50,64
147115,note_off,55,0,11,,,,,,,,10,,,,66,64
147115,note_off,55,0,10,,,,,,,,8,,,,69,64
147115,note_off,235,0,13,,,,,,,,12,,,,50,64
147115,note_off,115,0,7,,,,,,,,5,,,,57,64
147115,note_off,235,0,2,,,,,,,,0,,,,50,64
147115,note_off,115,0,12,,,,,,,,11,,,,57,64
147115,note_off,235,0,15,,,,,,,,14,,,,38,64
147120,note_on,5,0,8,,,,,,,,6,,,,50,92
147120,note_on,5,0,11,,,,,,,,10,,,,67,92
147120,note_on,5,0,13,,,,,,,,12,,,,50,92
147120,note_on,5,0,7,,,,,,,,5,,,,57,92
147120,note_on,5,0,12,,,,,,,,11,,,,57,92
147120,note_on,5,0,9,,,,,,,,7,,,,38,92
147120,note_on,5,0,5,,,,,,,,3,,,,70,92
147120,note_on,5,0,14,,,,,,,,13,,,,38,92
147120,note_on,5,0,6,,,,,,,,4,,,,67,92
147120,note_on,5,0,2,,,,,,,,0,,,,50,92
147120,note_on,5,0,10,,,,,,,,8,,,,70,92
147120,note_on,5,0,15,,,,,,,,14,,,,38,92
147175,note_off,55,0,5,,,,,,,,3,,,,70,64
147175,note_off,55,0,10,,,,,,,,8,,,,70,64
147175,note_off,55,0,6,,,,,,,,4,,,,67,64
147175,note_off,55,0,11,,,,,,,,10,,,,67,64
147180,note_on,5,0,11,,,,,,,,10,,,,69,92
147180,note_on,5,0,5,,,,,,,,3,,,,72,92
147180,note_on,5,0,10,,,,,,,,8,,,,72,92
147180,note_on,5,0,6,,,,,,,,4,,,,69,92
147235,note_off,115,0,12,,,,,,,,11,,,,57,64
147235,note_off,55,0,11,,,,,,,,10,,,,69,64
147235,note_off,115,0,13,,,,,,,,12,,,,50,64
147235,note_off,115,0,9,,,,,,,,7,,,,38,64
147235,note_off,115,0,8,,,,,,,,6,,,,50,64
147235,note_off,115,0,2,,,,,,,,0,,,,50,64
147235,note_off,115,0,14,,,,,,,,13,,,,38,64
147235,note_off,55,0,10,,,,,,,,8,,,,72,64
147235,note_off,115,0,7,,,,,,,,5,,,,57,64
147235,note_off,55,0,6,,,,,,,,4,,,,69,64
147235,note_off,55,0,5,,,,,,,,3,,,,72,64
147240,note_on,5,0,10,,,,,,,,8,,,,74,92
147240,note_on,5,0,5,,,,,,,,3,,,,74,92
147240,note_on,5,0,13,,,,,,,,12,,,,38,92
147240,note_on,5,0,12,,,,,,,,11,,,,57,92
147240,note_on,5,0,11,,,,,,,,10,,,,70,92
147240,note_on,5,0,9,,,,,,,,7,,,,26,92
147240,note_on,5,0,7,,,,,,,,5,,,,57,92
147240,note_on,5,0,8,,,,,,,,6,,,,38,92
147240,note_on,5,0,2,,,,,,,,0,,,,38,92
147240,note_on,5,0,14,,,,,,,,13,,,,26,92
147240,note_on,5,0,6,,,,,,,,4,,,,70,92
147295,note_off,55,0,6,,,,,,,,4,,,,70,64
147295,note_off,55,0,11,,,,,,,,10,,,,70,64
147295,note_off,55,0,10,,,,,,,,8,,,,74,64
147295,note_off,55,0,5,,,,,,,,3,,,,74,64
147300,note_on,5,0,6,,,,,,,,4,,,,72,92
147300,note_on,5,0,11,,,,,,,,10,,,,72,92
147300,note_on,5,0,5,,,,,,,,3,,,,76,92
147300,note_on,5,0,10,,,,,,,,8,,,,76,92
147355,note_off,55,0,5,,,,,,,,3,,,,76,64
147355,note_off,55,0,6,,,,,,,,4,,,,72,64
147355,note_off,115,0,12,,,,,,,,11,,,,57,64
147355,note_off,55,0,10,,,,,,,,8,,,,76,64
147355,note_off,115,0,9,,,,,,,,7,,,,26,64
147355,note_off,115,0,13,,,,,,,,12,,,,38,64
147355,note_off,115,0,8,,,,,,,,6,,,,38,64
147355,note_off,115,0,2,,,,,,,,0,,,,38,64
147355,note_off,115,0,14,,,,,,,,13,,,,26,64
147355,note_off,55,0,11,,,,,,,,10,,,,72,64
147355,note_off,115,0,7,,,,,,,,5,,,,57,64
147355,note_off,235,0,15,,,,,,,,14,,,,38,64
147360,note_on,5,0,8,,,,,,,,6,,,,38,92
147360,note_on,5,0,9,,,,,,,,7,,,,26,92
147360,note_on,5,0,7,,,,,,,,5,,,,57,92
147360,note_on,5,0,11,,,,,,,,10,,,,74,92
147360,note_on,5,0,10,,,,,,,,8,,,,78,92
147360,note_on,5,0,14,,,,,,,,13,,,,26,92
147360,note_on,5,0,5,,,,,,,,3,,,,78,92
147360,note_on,5,0,2,,,,,,,,0,,,,38,92
147360,note_on,5,0,13,,,,,,,,12,,,,38,92
147360,note_on,5,0,6,,,,,,,,4,,,,74,92
147360,note_on,5,0,15,,,,,,,,14,,,,38,92
147360,note_on,5,0,12,,,,,,,,11,,,,57,92
147415,note_off,55,0,10,,,,,,,,8,,,,78,64
147415,note_off,55,0,6,,,,,,,,4,,,,74,64
147415,note_off,55,0,5,,,,,,,,3,,,,78,64
147415,note_off,55,0,11,,,,,,,,10,,,,74,64
147420,note_on,5,0,5,,,,,,,,3,,,,76,92
147420,note_on,5,0,10,,,,,,,,8,,,,76,92
147420,note_on,5,0,11,,,,,,,,10,,,,72,92
147420,note_on,5,0,6,,,,,,,,4,,,,72,92
147475,note_off,55,0,6,,,,,,,,4,,,,72,64
147475,note_off,115,0,8,,,,,,,,6,,,,38,64
147475,note_off,115,0,9,,,,,,,,7,,,,26,64
147475,note_off,115,0,14,,,,,,,,13,,,,26,64
147475,note_off,115,0,7,,,,,,,,5,,,,57,64
147475,note_off,115,0,13,,,,,,,,12,,,,38,64
147475,note_off,55,0,10,,,,,,,,8,,,,76,64
147475,note_off,55,0,5,,,,,,,,3,,,,76,64
147475,note_off,115,0,2,,,,,,,,0,,,,38,64
147475,note_off,115,0,12,,,,,,,,11,,,,57,64
147475,note_off,55,0,11,,,,,,,,10,,,,72,64
147475,note_off,115,0,15,,,,,,,,14,,,,38,64
147480,note_on,5,0,13,,,,,,,,12,,,,38,92
147480,note_on,5,0,8,,,,,,,,6,,,,38,92
147480,note_on,5,0,2,,,,,,,,0,,,,38,92
147480,note_on,5,0,6,,,,,,,,4,,,,70,92
147480,note_on,5,0,5,,,,,,,,3,,,,74,92
147480,note_on,5,0,9,,,,,,,,7,,,,26,92
147480,note_on,5,0,12,,,,,,,,11,,,,62,92
147480,note_on,5,0,14,,,,,,,,13,,,,26,92
147480,note_on,5,0,7,,,,,,,,5,,,,62,92
147480,note_on,5,0,10,,,,,,,,8,,,,74,92
147480,note_on,5,0,11,,,,,,,,10,,,,70,92
147480,note_on,5,0,15,,,,,,,,14,,,,50,92
147535,note_off,55,0,5,,,,,,,,3,,,,74,64
147535,note_off,55,0,11,,,,,,,,10,,,,70,64
147535,note_off,55,0,10,,,,,,,,8,,,,74,64
147535,note_off,55,0,6,,,,,,,,4,,,,70,64
147540,note_on,5,0,6,,,,,,,,4,,,,69,92
147540,note_on,5,0,5,,,,,,,,3,,,,73,92
147540,note_on,5,0,11,,,,,,,,10,,,,69,92
147540,note_on,5,0,10,,,,,,,,8,,,,73,92
147595,note_off,115,0,13,,,,,,,,12,,,,38,64
147595,note_off,115,0,15,,,,,,,,14,,,,50,64
147595,note_off,55,0,6,,,,,,,,4,,,,69,64
147595,note_off,115,0,7,,,,,,,,5,,,,62,64
147595,note_off,115,0,14,,,,,,,,13,,,,26,64
147595,note_off,115,0,12,,,,,,,,11,,,,62,64
147595,note_off,115,0,2,,,,,,,,0,,,,38,64
147595,note_off,115,0,8,,,,,,,,6,,,,38,64
147595,note_off,55,0,10,,,,,,,,8,,,,73,64
147595,note_off,55,0,11,,,,,,,,10,,,,69,64
147595,note_off,55,0,5,,,,,,,,3,,,,73,64
147595,note_off,115,0,9,,,,,,,,7,,,,26,64
147600,note_on,5,0,5,,,,,,,,3,,,,70,92
147600,note_on,5,0,15,,,,,,,,14,,,,43,92
147600,note_on,5,0,6,,,,,,,,4,,,,67,92
147600,note_on,5,0,8,,,,,,,,6,,,,43,92
147600,note_on,5,0,11,,,,,,,,10,,,,67,92
147600,note_on,5,0,2,,,,,,,,0,,,,43,92
147600,note_on,5,0,13,,,,,,,,12,,,,43,92
147600,note_on,5,0,9,,,,,,,,7,,,,31,92
147600,note_on,5,0,7,,,,,,,,5,,,,62,92
147600,note_on,5,0,14,,,,,,,,13,,,,31,92
147600,note_on,5,0,12,,,,,,,,11,,,,62,92
147600,note_on,5,0,10,,,,,,,,8,,,,70,92
147655,note_off,55,0,11,,,,,,,,10,,,,67,64
147655,note_off,55,0,10,,,,,,,,8,,,,70,64
147655,note_off,55,0,5,,,,,,,,3,,,,70,64
147655,note_off,55,0,6,,,,,,,,4,,,,67,64
147660,note_on,5,0,10,,,,,,,,8,,,,70,92
147660,note_on,5,0,6,,,,,,,,4,,,,67,92
147660,note_on,5,0,11,,,,,,,,10,,,,67,92
147660,note_on,5,0,5,,,,,,,,3,,,,70,92
147715,note_off,55,0,10,,,,,,,,8,,,,70,64
147715,note_off,55,0,6,,,,,,,,4,,,,67,64
147715,note_off,55,0,5,,,,,,,,3,,,,70,64
147715,note_off,115,0,7,,,,,,,,5,,,,62,64
147715,note_off,55,0,11,,,,,,,,10,,,,67,64
147715,note_off,115,0,12,,,,,,,,11,,,,62,64
147720,note_on,5,0,7,,,,,,,,5,,,,62,92
147720,note_on,5,0,10,,,,,,,,8,,,,72,92
147720,note_on,5,0,6,,,,,,,,4,,,,69,92
147720,note_on,5,0,5,,,,,,,,3,,,,72,92
147720,note_on,5,0,11,,,,,,,,10,,,,69,92
147720,note_on,5,0,12,,,,,,,,11,,,,62,92
147775,note_off,55,0,10,,,,,,,,8,,,,72,64
147775,note_off,55,0,11,,,,,,,,10,,,,69,64
147775,note_off,55,0,5,,,,,,,,3,,,,72,64
147775,note_off,55,0,6,,,,,,,,4,,,,69,64
147780,note_on,5,0,10,,,,,,,,8,,,,74,92
147780,note_on,5,0,11,,,,,,,,10,,,,70,92
147780,note_on,5,0,6,,,,,,,,4,,,,70,92
147780,note_on,5,0,5,,,,,,,,3,,,,74,92
147835,note_off,55,0,5,,,,,,,,3,,,,74,64
147835,note_off,55,0,6,,,,,,,,4,,,,70,64
147835,note_off,235,0,9,,,,,,,,7,,,,31,64
147835,note_off,115,0,12,,,,,,,,11,,,,62,64
147835,note_off,235,0,13,,,,,,,,12,,,,43,64
147835,note_off,235,0,14,,,,,,,,13,,,,31,64
147835,note_off,115,0,7,,,,,,,,5,,,,62,64
147835,note_off,235,0,2,,,,,,,,0,,,,43,64
147835,note_off,55,0,11,,,,,,,,10,,,,70,64
147835,note_off,235,0,15,,,,,,,,14,,,,43,64
147835,note_off,235,0,8,,,,,,,,6,,,,43,64
147835,note_off,55,0,10,,,,,,,,8,,,,74,64
147840,note_on,5,0,7,,,,,,,,5,,,,62,92
147840,note_on,5,0,12,,,,,,,,11,,,,62,92
147840,note_on,5,0,14,,,,,,,,13,,,,31,92
147840,note_on,5,0,10,,,,,,,,8,,,,75,92
147840,note_on,5,0,6,,,,,,,,4,,,,72,92
147840,note_on,5,0,11,,,,,,,,10,,,,72,92
147840,note_on,5,0,13,,,,,,,,12,,,,43,92
147840,note_on,5,0,15,,,,,,,,14,,,,43,92
147840,note_on,5,0,8,,,,,,,,6,,,,43,92
147840,note_on,5,0,2,,,,,,,,0,,,,43,92
147840,note_on,5,0,9,,,,,,,,7,,,,31,92
147840,note_on,5,0,5,,,,,,,,3,,,,75,92
147895,note_off,55,0,10,,,,,,,,8,,,,75,64
147895,note_off,55,0,6,,,,,,,,4,,,,72,64
147895,note_off,55,0,5,,,,,,,,3,,,,75,64
147895,note_off,55,0,11,,,,,,,,10,,,,72,64
147900,note_on,5,0,6,,,,,,,,4,,,,74,92
147900,note_on,5,0,11,,,,,,,,10,,,,74,92
147900,note_on,5,0,5,,,,,,,,3,,,,77,92
147900,note_on,5,0,10,,,,,,,,8,,,,77,92
147955,note_off,115,0,13,,,,,,,,12,,,,43,64
147955,note_off,115,0,9,,,,,,,,7,,,,31,64
147955,note_off,55,0,5,,,,,,,,3,,,,77,64
147955,note_off,115,0,14,,,,,,,,13,,,,31,64
147955,note_off,115,0,2,,,,,,,,0,,,,43,64
147955,note_off,115,0,8,,,,,,,,6,,,,43,64
147955,note_off,55,0,10,,,,,,,,8,,,,77,64
147955,note_off,55,0,6,,,,,,,,4,,,,74,64
147955,note_off,115,0,7,,,,,,,,5,,,,62,64
147955,note_off,115,0,12,,,,,,,,11,,,,62,64
147955,note_off,55,0,11,,,,,,,,10,,,,74,64
147960,note_on,5,0,14,,,,,,,,13,,,,31,92
147960,note_on,5,0,11,,,,,,,,10,,,,75,92
147960,note_on,5,0,2,,,,,,,,0,,,,43,92
147960,note_on,5,0,5,,,,,,,,3,,,,79,92
147960,note_on,5,0,7,,,,,,,,5,,,,62,92
147960,note_on,5,0,13,,,,,,,,12,,,,43,92
147960,note_on,5,0,10,,,,,,,,8,,,,79,92
147960,note_on,5,0,8,,,,,,,,6,,,,43,92
147960,note_on,5,0,12,,,,,,,,11,,,,62,92
147960,note_on,5,0,6,,,,,,,,4,,,,75,92
147960,note_on,5,0,9,,,,,,,,7,,,,31,92
148015,note_off,55,0,6,,,,,,,,4,,,,75,64
148015,note_off,55,0,11,,,,,,,,10,,,,75,64
148015,note_off,55,0,10,,,,,,,,8,,,,79,64
148015,note_off,55,0,5,,,,,,,,3,,,,79,64
148020,note_on,5,0,11,,,,,,,,10,,,,77,92
148020,note_on,5,0,10,,,,,,,,8,,,,81,92
148020,note_on,5,0,6,,,,,,,,4,,,,77,92
148020,note_on,5,0,5,,,,,,,,3,,,,81,92
148075,note_off,115,0,12,,,,,,,,11,,,,62,64
148075,note_off,55,0,11,,,,,,,,10,,,,77,64
148075,note_off,115,0,2,,,,,,,,0,,,,43,64
148075,note_off,235,0,15,,,,,,,,14,,,,43,64
148075,note_off,115,0,13,,,,,,,,12,,,,43,64
148075,note_off,115,0,7,,,,,,,,5,,,,62,64
148075,note_off,115,0,14,,,,,,,,13,,,,31,64
148075,note_off,115,0,9,,,,,,,,7,,,,31,64
148075,note_off,55,0,10,,,,,,,,8,,,,81,64
148075,note_off,115,0,8,,,,,,,,6,,,,43,64
148075,note_off,55,0,6,,,,,,,,4,,,,77,64
148075,note_off,55,0,5,,,,,,,,3,,,,81,64
148080,note_on,5,0,11,,,,,,,,10,,,,79,92
148080,note_on,5,0,14,,,,,,,,13,,,,31,92
148080,note_on,5,0,7,,,,,,,,5,,,,62,92
148080,note_on,5,0,12,,,,,,,,11,,,,62,92
148080,note_on,5,0,15,,,,,,,,14,,,,43,92
148080,note_on,5,0,8,,,,,,,,6,,,,43,92
148080,note_on,5,0,2,,,,,,,,0,,,,43,92
148080,note_on,5,0,5,,,,,,,,3,,,,82,92
148080,note_on,5,0,6,,,,,,,,4,,,,79,92
148080,note_on,5,0,9,,,,,,,,7,,,,31,92
148080,note_on,5,0,13,,,,,,,,12,,,,43,92
148080,note_on,5,0,10,,,,,,,,8,,,,82,92
148135,note_off,55,0,5,,,,,,,,3,,,,82,64
148135,note_off,55,0,10,,,,,,,,8,,,,82,64
148135,note_off,55,0,6,,,,,,,,4,,,,79,64
148135,note_off,55,0,11,,,,,,,,10,,,,79,64
148140,note_on,5,0,5,,,,,,,,3,,,,81,92
148140,note_on,5,0,10,,,,,,,,8,,,,81,92
148140,note_on,5,0,6,,,,,,,,4,,,,77,92
148140,note_on,5,0,11,,,,,,,,10,,,,77,92
148195,note_off,55,0,5,,,,,,,,3,,,,81,64
148195,note_off,115,0,7,,,,,,,,5,,,,62,64
148195,note_off,55,0,6,,,,,,,,4,,,,77,64
148195,note_off,115,0,14,,,,,,,,13,,,,31,64
148195,note_off,115,0,12,,,,,,,,11,,,,62,64
148195,note_off,115,0,15,,,,,,,,14,,,,43,64
148195,note_off,115,0,8,,,,,,,,6,,,,43,64
148195,note_off,55,0,10,,,,,,,,8,,,,81,64
148195,note_off,115,0,9,,,,,,,,7,,,,31,64
148195,note_off,115,0,13,,,,,,,,12,,,,43,64
148195,note_off,55,0,11,,,,,,,,10,,,,77,64
148195,note_off,115,0,2,,,,,,,,0,,,,43,64
148200,note_on,5,0,5,,,,,,,,3,,,,79,92
148200,note_on,5,0,11,,,,,,,,10,,,,75,92
148200,note_on,5,0,7,,,,,,,,5,,,,58,92
148200,note_on,5,0,12,,,,,,,,11,,,,58,92
148200,note_on,5,0,6,,,,,,,,4,,,,75,92
148200,note_on,5,0,14,,,,,,,,13,,,,31,92
148200,note_on,5,0,15,,,,,,,,14,,,,31,92
148200,note_on,5,0,13,,,,,,,,12,,,,43,92
148200,note_on,5,0,9,,,,,,,,7,,,,31,92
148200,note_on,5,0,10,,,,,,,,8,,,,79,92
148200,note_on,5,0,2,,,,,,,,0,,,,43,92
148200,note_on,5,0,8,,,,,,,,6,,,,43,92
148255,note_off,55,0,6,,,,,,,,4,,,,75,64
148255,note_off,55,0,11,,,,,,,,10,,,,75,64
148255,note_off,55,0,5,,,,,,,,3,,,,79,64
148255,note_off,55,0,10,,,,,,,,8,,,,79,64
148260,note_on,5,0,6,,,,,,,,4,,,,74,92
148260,note_on,5,0,11,,,,,,,,10,,,,74,92
148260,note_on,5,0,5,,,,,,,,3,,,,77,92
148260,note_on,5,0,10,,,,,,,,8,,,,77,92
148315,note_off,55,0,10,,,,,,,,8,,,,77,64
148315,note_off,115,0,7,,,,,,,,5,,,,58,64
148315,note_off,115,0,13,,,,,,,,12,,,,43,64
148315,note_off,55,0,11,,,,,,,,10,,,,74,64
148315,note_off,115,0,2,,,,,,,,0,,,,43,64
148315,note_off,115,0,12,,,,,,,,11,,,,58,64
148315,note_off,115,0,8,,,,,,,,6,,,,43,64
148315,note_off,115,0,14,,,,,,,,13,,,,31,64
148315,note_off,55,0,5,,,,,,,,3,,,,77,64
148315,note_off,55,0,6,,,,,,,,4,,,,74,64
148315,note_off,115,0,9,,,,,,,,7,,,,31,64
148315,note_off,115,0,15,,,,,,,,14,,,,31,64
148320,note_on,5,0,10,,,,,,,,8,,,,75,92
148320,note_on,5,0,6,,,,,,,,4,,,,72,92
148320,note_on,5,0,7,,,,,,,,5,,,,55,92
148320,note_on,5,0,15,,,,,,,,14,,,,36,92
148320,note_on,5,0,12,,,,,,,,11,,,,55,92
148320,note_on,5,0,14,,,,,,,,13,,,,36,92
148320,note_on,5,0,13,,,,,,,,12,,,,48,92
148320,note_on,5,0,9,,,,,,,,7,,,,36,92
148320,note_on,5,0,11,,,,,,,,10,,,,72,92
148320,note_on,5,0,5,,,,,,,,3,,,,75,92
148320,note_on,5,0,8,,,,,,,,6,,,,48,92
148320,note_on,5,0,2,,,,,,,,0,,,,48,92
148375,note_off,55,0,6,,,,,,,,4,,,,72,64
148375,note_off,55,0,10,,,,,,,,8,,,,75,64
148375,note_off,55,0,11,,,,,,,,10,,,,72,64
148375,note_off,55,0,5,,,,,,,,3,,,,75,64
148380,note_on,5,0,5,,,,,,,,3,,,,77,92
148380,note_on,5,0,11,,,,,,,,10,,,,74,92
148380,note_on,5,0,10,,,,,,,,8,,,,77,92
148380,note_on,5,0,6,,,,,,,,4,,,,74,92
148435,note_off,115,0,7,,,,,,,,5,,,,55,64
148435,note_off,55,0,5,,,,,,,,3,,,,77,64
148435,note_off,55,0,11,,,,,,,,10,,,,74,64
148435,note_off,55,0,10,,,,,,,,8,,,,77,64
148435,note_off,55,0,6,,,,,,,,4,,,,74,64
148435,note_off,115,0,12,,,,,,,,11,,,,55,64
148440,note_on,5,0,10,,,,,,,,8,,,,75,92
148440,note_on,5,0,6,,,,,,,,4,,,,72,92
148440,note_on,5,0,5,,,,,,,,3,,,,75,92
148440,note_on,5,0,7,,,,,,,,5,,,,55,92
148440,note_on,5,0,12,,,,,,,,11,,,,55,92
148440,note_on,5,0,11,,,,,,,,10,,,,72,92
148495,note_off,55,0,10,,,,,,,,8,,,,75,64
148495,note_off,55,0,5,,,,,,,,3,,,,75,64
148495,note_off,55,0,6,,,,,,,,4,,,,72,64
148495,note_off,55,0,11,,,,,,,,10,,,,72,64
148500,note_on,5,0,5,,,,,,,,3,,,,77,92
148500,note_on,5,0,11,,,,,,,,10,,,,74,92
148500,note_on,5,0,10,,,,,,,,8,,,,77,92
148500,note_on,5,0,6,,,,,,,,4,,,,74,92
148555,note_off,115,0,12,,,,,,,,11,,,,55,64
148555,note_off,235,0,13,,,,,,,,12,,,,48,64
148555,note_off,55,0,5,,,,,,,,3,,,,77,64
148555,note_off,55,0,6,,,,,,,,4,,,,74,64
148555,note_off,235,0,9,,,,,,,,7,,,,36,64
148555,note_off,235,0,15,,,,,,,,14,,,,36,64
148555,note_off,235,0,8,,,,,,,,6,,,,48,64
148555,note_off,235,0,14,,,,,,,,13,,,,36,64
148555,note_off,115,0,7,,,,,,,,5,,,,55,64
148555,note_off,235,0,2,,,,,,,,0,,,,48,64
148555,note_off,55,0,11,,,,,,,,10,,,,74,64
148555,note_off,55,0,10,,,,,,,,8,,,,77,64
148560,note_on,5,0,15,,,,,,,,14,,,,36,92
148560,note_on,5,0,9,,,,,,,,7,,,,36,92
148560,note_on,5,0,14,,,,,,,,13,,,,36,92
148560,note_on,5,0,13,,,,,,,,12,,,,48,92
148560,note_on,5,0,10,,,,,,,,8,,,,74,92
148560,note_on,5,0,2,,,,,,,,0,,,,48,92
148560,note_on,5,0,6,,,,,,,,4,,,,70,92
148560,note_on,5,0,11,,,,,,,,10,,,,70,92
148560,note_on,5,0,8,,,,,,,,6,,,,48,92
148560,note_on,5,0,7,,,,,,,,5,,,,55,92
148560,note_on,5,0,12,,,,,,,,11,,,,55,92
148560,note_on,5,0,5,,,,,,,,3,,,,74,92
148615,note_off,55,0,10,,,,,,,,8,,,,74,64
148615,note_off,55,0,5,,,,,,,,3,,,,74,64
148615,note_off,55,0,6,,,,,,,,4,,,,70,64
148615,note_off,55,0,11,,,,,,,,10,,,,70,64
148620,note_on,5,0,5,,,,,,,,3,,,,75,92
148620,note_on,5,0,11,,,,,,,,10,,,,72,92
148620,note_on,5,0,6,,,,,,,,4,,,,72,92
148620,note_on,5,0,10,,,,,,,,8,,,,75,92
148675,note_off,115,0,14,,,,,,,,13,,,,36,64
148675,note_off,115,0,7,,,,,,,,5,,,,55,64
148675,note_off,55,0,5,,,,,,,,3,,,,75,64
148675,note_off,55,0,6,,,,,,,,4,,,,72,64
148675,note_off,55,0,11,,,,,,,,10,,,,72,64
148675,note_off,55,0,10,,,,,,,,8,,,,75,64
148675,note_off,115,0,2,,,,,,,,0,,,,48,64
148675,note_off,115,0,9,,,,,,,,7,,,,36,64
148675,note_off,115,0,12,,,,,,,,11,,,,55,64
148675,note_off,115,0,13,,,,,,,,12,,,,48,64
148675,note_off,115,0,8,,,,,,,,6,,,,48,64
148680,note_on,5,0,8,,,,,,,,6,,,,48,92
148680,note_on,5,0,5,,,,,,,,3,,,,74,92
148680,note_on,5,0,2,,,,,,,,0,,,,48,92
148680,note_on,5,0,12,,,,,,,,11,,,,55,92
148680,note_on,5,0,14,,,,,,,,13,,,,36,92
148680,note_on,5,0,11,,,,,,,,10,,,,70,92
148680,note_on,5,0,13,,,,,,,,12,,,,48,92
148680,note_on,5,0,6,,,,,,,,4,,,,70,92
148680,note_on,5,0,10,,,,,,,,8,,,,74,92
148680,note_on,5,0,7,,,,,,,,5,,,,55,92
148680,note_on,5,0,9,,,,,,,,7,,,,36,92
148735,note_off,55,0,10,,,,,,,,8,,,,74,64
148735,note_off,55,0,5,,,,,,,,3,,,,74,64
148735,note_off,55,0,11,,,,,,,,10,,,,70,64
148735,note_off,55,0,6,,,,,,,,4,,,,70,64
148740,note_on,5,0,10,,,,,,,,8,,,,75,92
148740,note_on,5,0,6,,,,,,,,4,,,,72,92
148740,note_on,5,0,11,,,,,,,,10,,,,72,92
148740,note_on,5,0,5,,,,,,,,3,,,,75,92
148795,note_off,115,0,12,,,,,,,,11,,,,55,64
148795,note_off,235,0,15,,,,,,,,14,,,,36,64
148795,note_off,55,0,10,,,,,,,,8,,,,75,64
148795,note_off,115,0,2,,,,,,,,0,,,,48,64
148795,note_off,115,0,8,,,,,,,,6,,,,48,64
148795,note_off,115,0,14,,,,,,,,13,,,,36,64
148795,note_off,115,0,13,,,,,,,,12,,,,48,64
148795,note_off,55,0,11,,,,,,,,10,,,,72,64
148795,note_off,55,0,5,,,,,,,,3,,,,75,64
148795,note_off,115,0,7,,,,,,,,5,,,,55,64
148795,note_off,115,0,9,,,,,,,,7,,,,36,64
148795,note_off,55,0,6,,,,,,,,4,,,,72,64
148800,note_on,5,0,10,,,,,,,,8,,,,72,92
148800,note_on,5,0,11,,,,,,,,10,,,,69,92
148800,note_on,5,0,9,,,,,,,,7,,,,36,92
148800,note_on,5,0,7,,,,,,,,5,,,,55,92
148800,note_on,5,0,8,,,,,,,,6,,,,48,92
148800,note_on,5,0,5,,,,,,,,3,,,,72,92
148800,note_on,5,0,13,,,,,,,,12,,,,48,92
148800,note_on,5,0,12,,,,,,,,11,,,,55,92
148800,note_on,5,0,2,,,,,,,,0,,,,48,92
148800,note_on,5,0,6,,,,,,,,4,,,,69,92
148800,note_on,5,0,14,,,,,,,,13,,,,36,92
148800,note_on,5,0,15,,,,,,,,14,,,,36,92
148855,note_off,55,0,6,,,,,,,,4,,,,69,64
148855,note_off,55,0,5,,,,,,,,3,,,,72,64
148855,note_off,55,0,10,,,,,,,,8,,,,72,64
148855,note_off,55,0,11,,,,,,,,10,,,,69,64
148860,note_on,5,0,5,,,,,,,,3,,,,74,92
148860,note_on,5,0,6,,,,,,,,4,,,,70,92
148860,note_on,5,0,10,,,,,,,,8,,,,74,92
148860,note_on,5,0,11,,,,,,,,10,,,,70,92
148915,note_off,115,0,8,,,,,,,,6,,,,48,64
148915,note_off,55,0,5,,,,,,,,3,,,,74,64
148915,note_off,55,0,6,,,,,,,,4,,,,70,64
148915,note_off,55,0,11,,,,,,,,10,,,,70,64
148915,note_off,115,0,9,,,,,,,,7,,,,36,64
148915,note_off,115,0,12,,,,,,,,11,,,,55,64
148915,note_off,115,0,2,,,,,,,,0,,,,48,64
148915,note_off,115,0,14,,,,,,,,13,,,,36,64
148915,note_off,115,0,13,,,,,,,,12,,,,48,64
148915,note_off,115,0,7,,,,,,,,5,,,,55,64
148915,note_off,55,0,10,,,,,,,,8,,,,74,64
148920,note_on,5,0,11,,,,,,,,10,,,,69,92
148920,note_on,5,0,5,,,,,,,,3,,,,72,92
148920,note_on,5,0,12,,,,,,,,11,,,,55,92
148920,note_on,5,0,13,,,,,,,,12,,,,48,92
148920,note_on,5,0,6,,,,,,,,4,,,,69,92
148920,note_on,5,0,10,,,,,,,,8,,,,72,92
148920,note_on,5,0,2,,,,,,,,0,,,,48,92
148920,note_on,5,0,9,,,,,,,,7,,,,36,92
148920,note_on,5,0,8,,,,,,,,6,,,,48,92
148920,note_on,5,0,14,,,,,,,,13,,,,36,92
148920,note_on,5,0,7,,,,,,,,5,,,,55,92
148975,note_off,55,0,5,,,,,,,,3,,,,72,64
148975,note_off,55,0,11,,,,,,,,10,,,,69,64
148975,note_off,55,0,10,,,,,,,,8,,,,72,64
148975,note_off,55,0,6,,,,,,,,4,,,,69,64
148980,note_on,5,0,11,,,,,,,,10,,,,70,92
148980,note_on,5,0,10,,,,,,,,8,,,,74,92
148980,note_on,5,0,5,,,,,,,,3,,,,74,92
148980,note_on,5,0,6,,,,,,,,4,,,,70,92
149035,note_off,55,0,6,,,,,,,,4,,,,70,64
149035,note_off,115,0,12,,,,,,,,11,,,,55,64
149035,note_off,235,0,15,,,,,,,,14,,,,36,64
149035,note_off,115,0,2,,,,,,,,0,,,,48,64
149035,note_off,55,0,5,,,,,,,,3,,,,74,64
149035,note_off,115,0,8,,,,,,,,6,,,,48,64
149035,note_off,115,0,7,,,,,,,,5,,,,55,64
149035,note_off,55,0,11,,,,,,,,10,,,,70,64
149035,note_off,55,0,10,,,,,,,,8,,,,74,64
149035,note_off,115,0,13,,,,,,,,12,,,,48,64
149035,note_off,115,0,9,,,,,,,,7,,,,36,64
149035,note_off,115,0,14,,,,,,,,13,,,,36,64
149040,note_on,5,0,7,,,,,,,,5,,,,64,92
149040,note_on,5,0,14,,,,,,,,13,,,,37,92
149040,note_on,5,0,9,,,,,,,,7,,,,37,92
149040,note_on,5,0,12,,,,,,,,11,,,,64,92
149040,note_on,5,0,11,,,,,,,,10,,,,67,92
149040,note_on,5,0,6,,,,,,,,4,,,,67,92
149040,note_on,5,0,8,,,,,,,,6,,,,49,92
149040,note_on,5,0,13,,,,,,,,12,,,,49,92
149040,note_on,5,0,5,,,,,,,,3,,,,70,92
149040,note_on,5,0,15,,,,,,,,14,,,,37,92
149040,note_on,5,0,2,,,,,,,,0,,,,49,92
149040,note_on,5,0,10,,,,,,,,8,,,,70,92
149095,note_off,55,0,10,,,,,,,,8,,,,70,64
149095,note_off,55,0,11,,,,,,,,10,,,,67,64
149095,note_off,55,0,5,,,,,,,,3,,,,70,64
149095,note_off,55,0,6,,,,,,,,4,,,,67,64
149100,note_on,5,0,6,,,,,,,,4,,,,69,92
149100,note_on,5,0,10,,,,,,,,8,,,,72,92
149100,note_on,5,0,11,,,,,,,,10,,,,69,92
149100,note_on,5,0,5,,,,,,,,3,,,,72,92
149155,note_off,55,0,10,,,,,,,,8,,,,72,64
149155,note_off,55,0,6,,,,,,,,4,,,,69,64
149155,note_off,55,0,5,,,,,,,,3,,,,72,64
149155,note_off,55,0,11,,,,,,,,10,,,,69,64
149155,note_off,115,0,7,,,,,,,,5,,,,64,64
149155,note_off,115,0,12,,,,,,,,11,,,,64,64
149160,note_on,5,0,6,,,,,,,,4,,,,67,92
149160,note_on,5,0,5,,,,,,,,3,,,,70,92
149160,note_on,5,0,7,,,,,,,,5,,,,64,92
149160,note_on,5,0,11,,,,,,,,10,,,,67,92
149160,note_on,5,0,10,,,,,,,,8,,,,70,92
149160,note_on,5,0,12,,,,,,,,11,,,,64,92
149215,note_off,55,0,5,,,,,,,,3,,,,70,64
149215,note_off,55,0,6,,,,,,,,4,,,,67,64
149215,note_off,55,0,11,,,,,,,,10,,,,67,64
149215,note_off,55,0,10,,,,,,,,8,,,,70,64
149220,note_on,5,0,11,,,,,,,,10,,,,69,92
149220,note_on,5,0,5,,,,,,,,3,,,,72,92
149220,note_on,5,0,10,,,,,,,,8,,,,72,92
149220,note_on,5,0,6,,,,,,,,4,,,,69,92
149275,note_off,55,0,5,,,,,,,,3,,,,72,64
149275,note_off,55,0,11,,,,,,,,10,,,,69,64
149275,note_off,235,0,15,,,,,,,,14,,,,37,64
149275,note_off,235,0,13,,,,,,,,12,,,,49,64
149275,note_off,235,0,14,,,,,,,,13,,,,37,64
149275,note_off,235,0,9,,,,,,,,7,,,,37,64
149275,note_off,235,0,2,,,,,,,,0,,,,49,64
149275,note_off,235,0,8,,,,,,,,6,,,,49,64
149275,note_off,55,0,10,,,,,,,,8,,,,72,64
149275,note_off,115,0,12,,,,,,,,11,,,,64,64
149275,note_off,55,0,6,,,,,,,,4,,,,69,64
149275,note_off,115,0,7,,,,,,,,5,,,,64,64
149280,note_on,5,0,8,,,,,,,,6,,,,49,92
149280,note_on,5,0,10,,,,,,,,8,,,,69,92
149280,note_on,5,0,7,,,,,,,,5,,,,65,92
149280,note_on,5,0,2,,,,,,,,0,,,,49,92
149280,note_on,5,0,12,,,,,,,,11,,,,65,92
149280,note_on,5,0,9,,,,,,,,7,,,,37,92
149280,note_on,5,0,14,,,,,,,,13,,,,37,92
149280,note_on,5,0,6,,,,,,,,4,,,,65,92
149280,note_on,5,0,13,,,,,,,,12,,,,49,92
149280,note_on,5,0,15,,,,,,,,14,,,,37,92
149280,note_on,5,0,11,,,,,,,,10,,,,65,92
149280,note_on,5,0,5,,,,,,,,3,,,,69,92
149335,note_off,55,0,5,,,,,,,,3,,,,69,64
149335,note_off,55,0,11,,,,,,,,10,,,,65,64
149335,note_off,55,0,6,,,,,,,,4,,,,65,64
149335,note_off,55,0,10,,,,,,,,8,,,,69,64
149340,note_on,5,0,5,,,,,,,,3,,,,70,92
149340,note_on,5,0,11,,,,,,,,10,,,,67,92
149340,note_on,5,0,10,,,,,,,,8,,,,70,92
149340,note_on,5,0,6,,,,,,,,4,,,,67,92
149395,note_off,115,0,9,,,,,,,,7,,,,37,64
149395,note_off,115,0,12,,,,,,,,11,,,,65,64
149395,note_off,115,0,7,,,,,,,,5,,,,65,64
149395,note_off,115,0,13,,,,,,,,12,,,,49,64
149395,note_off,115,0,14,,,,,,,,13,,,,37,64
149395,note_off,115,0,8,,,,,,,,6,,,,49,64
149395,note_off,55,0,6,,,,,,,,4,,,,67,64
149395,note_off,55,0,11,,,,,,,,10,,,,67,64
149395,note_off,55,0,5,,,,,,,,3,,,,70,64
149395,note_off,115,0,2,,,,,,,,0,,,,49,64
149395,note_off,55,0,10,,,,,,,,8,,,,70,64
149400,note_on,5,0,5,,,,,,,,3,,,,69,92
149400,note_on,5,0,2,,,,,,,,0,,,,49,92
149400,note_on,5,0,12,,,,,,,,11,,,,65,92
149400,note_on,5,0,8,,,,,,,,6,,,,49,92
149400,note_on,5,0,6,,,,,,,,4,,,,65,92
149400,note_on,5,0,9,,,,,,,,7,,,,37,92
149400,note_on,5,0,7,,,,,,,,5,,,,65,92
149400,note_on,5,0,11,,,,,,,,10,,,,65,92
149400,note_on,5,0,10,,,,,,,,8,,,,69,92
149400,note_on,5,0,13,,,,,,,,12,,,,49,92
149400,note_on,5,0,14,,,,,,,,13,,,,37,92
149455,note_off,55,0,5,,,,,,,,3,,,,69,64
149455,note_off,55,0,11,,,,,,,,10,,,,65,64
149455,note_off,55,0,6,,,,,,,,4,,,,65,64
149455,note_off,55,0,10,,,,,,,,8,,,,69,64
149460,note_on,5,0,11,,,,,,,,10,,,,67,92
149460,note_on,5,0,5,,,,,,,,3,,,,70,92
149460,note_on,5,0,10,,,,,,,,8,,,,70,92
149460,note_on,5,0,6,,,,,,,,4,,,,67,92
149515,note_off,235,0,15,,,,,,,,14,,,,37,64
149515,note_off,115,0,8,,,,,,,,6,,,,49,64
149515,note_off,115,0,2,,,,,,,,0,,,,49,64
149515,note_off,55,0,11,,,,,,,,10,,,,67,64
149515,note_off,55,0,5,,,,,,,,3,,,,70,64
149515,note_off,115,0,14,,,,,,,,13,,,,37,64
149515,note_off,55,0,6,,,,,,,,4,,,,67,64
149515,note_off,55,0,10,,,,,,,,8,,,,70,64
149515,note_off,115,0,7,,,,,,,,5,,,,65,64
149515,note_off,115,0,13,,,,,,,,12,,,,49,64
149515,note_off,115,0,9,,,,,,,,7,,,,37,64
149515,note_off,115,0,12,,,,,,,,11,,,,65,64
149520,note_on,5,0,9,,,,,,,,7,,,,37,92
149520,note_on,5,0,6,,,,,,,,4,,,,64,92
149520,note_on,5,0,2,,,,,,,,0,,,,49,92
149520,note_on,5,0,12,,,,,,,,11,,,,67,92
149520,note_on,5,0,13,,,,,,,,12,,,,49,92
149520,note_on,5,0,5,,,,,,,,3,,,,67,92
149520,note_on,5,0,11,,,,,,,,10,,,,64,92
149520,note_on,5,0,15,,,,,,,,14,,,,37,92
149520,note_on,5,0,8,,,,,,,,6,,,,49,92
149520,note_on,5,0,14,,,,,,,,13,,,,37,92
149520,note_on,5,0,10,,,,,,,,8,,,,67,92
149520,note_on,5,0,7,,,,,,,,5,,,,67,92
149575,note_off,55,0,5,,,,,,,,3,,,,67,64
149575,note_off,55,0,6,,,,,,,,4,,,,64,64
149575,note_off,55,0,10,,,,,,,,8,,,,67,64
149575,note_off,55,0,11,,,,,,,,10,,,,64,64
149580,note_on,5,0,6,,,,,,,,4,,,,65,92
149580,note_on,5,0,11,,,,,,,,10,,,,65,92
149580,note_on,5,0,5,,,,,,,,3,,,,69,92
149580,note_on,5,0,10,,,,,,,,8,,,,69,92
149635,note_off,55,0,10,,,,,,,,8,,,,69,64
149635,note_off,115,0,9,,,,,,,,7,,,,37,64
149635,note_off,115,0,13,,,,,,,,12,,,,49,64
149635,note_off,115,0,7,,,,,,,,5,,,,67,64
149635,note_off,115,0,2,,,,,,,,0,,,,49,64
149635,note_off,115,0,14,,,,,,,,13,,,,37,64
149635,note_off,55,0,6,,,,,,,,4,,,,65,64
149635,note_off,55,0,11,,,,,,,,10,,,,65,64
149635,note_off,55,0,5,,,,,,,,3,,,,69,64
149635,note_off,115,0,12,,,,,,,,11,,,,67,64
149635,note_off,115,0,8,,,,,,,,6,,,,49,64
149640,note_on,5,0,5,,,,,,,,3,,,,67,92
149640,note_on,5,0,2,,,,,,,,0,,,,49,92
149640,note_on,5,0,7,,,,,,,,5,,,,67,92
149640,note_on,5,0,6,,,,,,,,4,,,,64,92
149640,note_on,5,0,10,,,,,,,,8,,,,67,92
149640,note_on,5,0,11,,,,,,,,10,,,,64,92
149640,note_on,5,0,9,,,,,,,,7,,,,37,92
149640,note_on,5,0,12,,,,,,,,11,,,,67,92
149640,note_on,5,0,13,,,,,,,,12,,,,49,92
149640,note_on,5,0,8,,,,,,,,6,,,,49,92
149640,note_on,5,0,14,,,,,,,,13,,,,37,92
149695,note_off,55,0,5,,,,,,,,3,,,,67,64
149695,note_off,55,0,11,,,,,,,,10,,,,64,64
149695,note_off,55,0,10,,,,,,,,8,,,,67,64
149695,note_off,55,0,6,,,,,,,,4,,,,64,64
149700,note_on,5,0,5,,,,,,,,3,,,,69,92
149700,note_on,5,0,11,,,,,,,,10,,,,65,92
149700,note_on,5,0,10,,,,,,,,8,,,,69,92
149700,note_on,5,0,6,,,,,,,,4,,,,65,92
149755,note_off,115,0,13,,,,,,,,12,,,,49,64
149755,note_off,115,0,2,,,,,,,,0,,,,49,64
149755,note_off,115,0,7,,,,,,,,5,,,,67,64
149755,note_off,115,0,14,,,,,,,,13,,,,37,64
149755,note_off,235,0,15,,,,,,,,14,,,,37,64
149755,note_off,55,0,10,,,,,,,,8,,,,69,64
149755,note_off,55,0,5,,,,,,,,3,,,,69,64
149755,note_off,115,0,8,,,,,,,,6,,,,49,64
149755,note_off,115,0,9,,,,,,,,7,,,,37,64
149755,note_off,55,0,11,,,,,,,,10,,,,65,64
149755,note_off,55,0,6,,,,,,,,4,,,,65,64
149755,note_off,115,0,12,,,,,,,,11,,,,67,64
149760,note_on,5,0,15,,,,,,,,14,,,,38,92
149760,note_on,5,0,12,,,,,,,,11,,,,57,92
149760,note_on,5,0,8,,,,,,,,6,,,,50,92
149760,note_on,5,0,7,,,,,,,,5,,,,57,92
149760,note_on,5,0,14,,,,,,,,13,,,,38,92
149760,note_on,5,0,11,,,,,,,,10,,,,62,92
149760,note_on,5,0,10,,,,,,,,8,,,,66,92
149760,note_on,5,0,6,,,,,,,,4,,,,62,92
149760,note_on,5,0,13,,,,,,,,12,,,,50,92
149760,note_on,5,0,9,,,,,,,,7,,,,38,92
149760,note_on,5,0,5,,,,,,,,3,,,,66,92
149760,note_on,5,0,2,,,,,,,,0,,,,50,92
149815,end_of_track,0,1,11,,,,,,,,,,,,,
149815,note_off,55,0,11,,,,,,,,10,,,,62,64
149815,note_off,55,0,10,,,,,,,,8,,,,66,64
149815,end_of_track,0,1,6,,,,,,,,,,,,,
149815,note_off,55,0,6,,,,,,,,4,,,,62,64
149815,note_off,55,0,5,,,,,,,,3,,,,66,64
149820,note_on,5,0,5,,,,,,,,3,,,,62,92
149820,note_on,5,0,10,,,,,,,,8,,,,62,92
149875,note_off,55,0,10,,,,,,,,8,,,,62,64
149875,note_off,55,0,5,,,,,,,,3,,,,62,64
149875,note_off,115,0,7,,,,,,,,5,,,,57,64
149875,note_off,115,0,12,,,,,,,,11,,,,57,64
149880,note_on,5,0,12,,,,,,,,11,,,,57,92
149880,note_on,5,0,7,,,,,,,,5,,,,57,92
149880,note_on,5,0,10,,,,,,,,8,,,,64,92
149880,note_on,5,0,5,,,,,,,,3,,,,64,92
149935,note_off,55,0,5,,,,,,,,3,,,,64,64
149935,note_off,55,0,10,,,,,,,,8,,,,64,64
149940,note_on,5,0,10,,,,,,,,8,,,,66,92
149940,note_on,5,0,5,,,,,,,,3,,,,66,92
149995,note_off,235,0,8,,,,,,,,6,,,,50,64
149995,note_off,235,0,9,,,,,,,,7,,,,38,64
149995,note_off,55,0,10,,,,,,,,8,,,,66,64
149995,note_off,235,0,15,,,,,,,,14,,,,38,64
149995,note_off,115,0,12,,,,,,,,11,,,,57,64
149995,note_off,235,0,13,,,,,,,,12,,,,50,64
149995,note_off,235,0,14,,,,,,,,13,,,,38,64
149995,note_off,115,0,7,,,,,,,,5,,,,57,64
149995,note_off,235,0,2,,,,,,,,0,,,,50,64
149995,note_off,55,0,5,,,,,,,,3,,,,66,64
150000,note_on,5,0,5,,,,,,,,3,,,,67,92
150000,note_on,5,0,8,,,,,,,,6,,,,50,92
150000,note_on,5,0,7,,,,,,,,5,,,,57,92
150000,note_on,5,0,13,,,,,,,,12,,,,50,92
150000,note_on,5,0,14,,,,,,,,13,,,,38,92
150000,note_on,5,0,2,,,,,,,,0,,,,50,92
150000,note_on,5,0,9,,,,,,,,7,,,,38,92
150000,note_on,5,0,15,,,,,,,,14,,,,38,92
150000,note_on,5,0,10,,,,,,,,8,,,,67,92
150000,note_on,5,0,12,,,,,,,,11,,,,57,92
150055,note_off,55,0,10,,,,,,,,8,,,,67,64
150055,note_off,55,0,5,,,,,,,,3,,,,67,64
150060,note_on,5,0,10,,,,,,,,8,,,,69,92
150060,note_on,5,0,5,,,,,,,,3,,,,69,92
150115,note_off,55,0,10,,,,,,,,8,,,,69,64
150115,note_off,115,0,14,,,,,,,,13,,,,38,64
150115,note_off,115,0,2,,,,,,,,0,,,,50,64
150115,note_off,115,0,7,,,,,,,,5,,,,57,64
150115,note_off,55,0,5,,,,,,,,3,,,,69,64
150115,note_off,115,0,9,,,,,,,,7,,,,38,64
150115,note_off,115,0,12,,,,,,,,11,,,,57,64
150115,note_off,115,0,8,,,,,,,,6,,,,50,64
150115,note_off,115,0,13,,,,,,,,12,,,,50,64
150120,note_on,5,0,5,,,,,,,,3,,,,70,92
150120,note_on,5,0,2,,,,,,,,0,,,,50,92
150120,note_on,5,0,9,,,,,,,,7,,,,38,92
150120,note_on,5,0,14,,,,,,,,13,,,,38,92
150120,note_on,5,0,12,,,,,,,,11,,,,57,92
150120,note_on,5,0,7,,,,,,,,5,,,,57,92
150120,note_on,5,0,10,,,,,,,,8,,,,70,92
150120,note_on,5,0,8,,,,,,,,6,,,,50,92
150120,note_on,5,0,13,,,,,,,,12,,,,50,92
150175,note_off,55,0,5,,,,,,,,3,,,,70,64
150175,note_off,55,0,10,,,,,,,,8,,,,70,64
150180,note_on,5,0,5,,,,,,,,3,,,,72,92
150180,note_on,5,0,10,,,,,,,,8,,,,72,92
150235,note_off,115,0,8,,,,,,,,6,,,,50,64
150235,note_off,235,0,15,,,,,,,,14,,,,38,64
150235,note_off,115,0,13,,,,,,,,12,,,,50,64
150235,note_off,115,0,12,,,,,,,,11,,,,57,64
150235,note_off,115,0,7,,,,,,,,5,,,,57,64
150235,note_off,115,0,2,,,,,,,,0,,,,50,64
150235,note_off,115,0,14,,,,,,,,13,,,,38,64
150235,note_off,115,0,9,,,,,,,,7,,,,38,64
150235,note_off,55,0,5,,,,,,,,3,,,,72,64
150235,note_off,55,0,10,,,,,,,,8,,,,72,64
150240,note_on,5,0,9,,,,,,,,7,,,,38,92
150240,note_on,5,0,5,,,,,,,,3,,,,74,92
150240,note_on,5,0,7,,,,,,,,5,,,,57,92
150240,note_on,5,0,2,,,,,,,,0,,,,50,92
150240,note_on,5,0,13,,,,,,,,12,,,,50,92
150240,note_on,5,0,15,,,,,,,,14,,,,38,92
150240,note_on,5,0,10,,,,,,,,8,,,,74,92
150240,note_on,5,0,12,,,,,,,,11,,,,57,92
150240,note_on,5,0,14,,,,,,,,13,,,,38,92
150240,note_on,5,0,8,,,,,,,,6,,,,50,92
150295,note_off,55,0,5,,,,,,,,3,,,,74,64
150295,note_off,55,0,10,,,,,,,,8,,,,74,64
150300,note_on,5,0,10,,,,,,,,8,,,,72,92
150300,note_on,5,0,5,,,,,,,,3,,,,72,92
150355,note_off,115,0,7,,,,,,,,5,,,,57,64
150355,note_off,115,0,12,,,,,,,,11,,,,57,64
150355,note_off,115,0,2,,,,,,,,0,,,,50,64
150355,note_off,115,0,9,,,,,,,,7,,,,38,64
150355,note_off,115,0,14,,,,,,,,13,,,,38,64
150355,note_off,115,0,8,,,,,,,,6,,,,50,64
150355,note_off,55,0,5,,,,,,,,3,,,,72,64
150355,note_off,115,0,13,,,,,,,,12,,,,50,64
150355,note_off,55,0,10,,,,,,,,8,,,,72,64
150360,note_on,5,0,7,,,,,,,,5,,,,62,92
150360,note_on,5,0,14,,,,,,,,13,,,,38,92
150360,note_on,5,0,2,,,,,,,,0,,,,50,92
150360,note_on,5,0,9,,,,,,,,7,,,,38,92
150360,note_on,5,0,10,,,,,,,,8,,,,70,92
150360,note_on,5,0,8,,,,,,,,6,,,,50,92
150360,note_on,5,0,13,,,,,,,,12,,,,50,92
150360,note_on,5,0,12,,,,,,,,11,,,,62,92
150360,note_on,5,0,5,,,,,,,,3,,,,70,92
150415,note_off,55,0,10,,,,,,,,8,,,,70,64
150415,note_off,55,0,5,,,,,,,,3,,,,70,64
150420,note_on,5,0,5,,,,,,,,3,,,,69,92
150420,note_on,5,0,10,,,,,,,,8,,,,69,92
150475,note_off,115,0,14,,,,,,,,13,,,,38,64
150475,note_off,55,0,5,,,,,,,,3,,,,69,64
150475,note_off,115,0,12,,,,,,,,11,,,,62,64
150475,note_off,115,0,13,,,,,,,,12,,,,50,64
150475,note_off,55,0,10,,,,,,,,8,,,,69,64
150475,note_off,115,0,9,,,,,,,,7,,,,38,64
150475,note_off,115,0,7,,,,,,,,5,,,,62,64
150475,note_off,115,0,8,,,,,,,,6,,,,50,64
150475,note_off,235,0,15,,,,,,,,14,,,,38,64
150475,note_off,115,0,2,,,,,,,,0,,,,50,64
150480,note_on,5,0,14,,,,,,,,13,,,,38,92
150480,note_on,5,0,13,,,,,,,,12,,,,50,92
150480,note_on,5,0,10,,,,,,,,8,,,,70,92
150480,note_on,5,0,7,,,,,,,,5,,,,62,92
150480,note_on,5,0,15,,,,,,,,14,,,,38,92
150480,note_on,5,0,12,,,,,,,,11,,,,62,92
150480,note_on,5,0,5,,,,,,,,3,,,,70,92
150480,note_on,5,0,2,,,,,,,,0,,,,50,92
150480,note_on,5,0,9,,,,,,,,7,,,,38,92
150480,note_on,5,0,8,,,,,,,,6,,,,50,92
150535,note_off,55,0,5,,,,,,,,3,,,,70,64
150535,end_of_track,0,1,7,,,,,,,,,,,,,
150535,note_off,55,0,7,,,,,,,,5,,,,62,64
150535,note_off,55,0,10,,,,,,,,8,,,,70,64
150535,note_off,55,0,8,,,,,,,,6,,,,50,64
150535,end_of_track,0,1,12,,,,,,,,,,,,,
150535,note_off,55,0,2,,,,,,,,0,,,,50,64
150535,note_off,55,0,14,,,,,,,,13,,,,38,64
150535,note_off,55,0,13,,,,,,,,12,,,,50,64
150535,note_off,55,0,9,,,,,,,,7,,,,38,64
150535,note_off,55,0,12,,,,,,,,11,,,,62,64
150540,note_on,5,0,13,,,,,,,,12,,,,55,92
150540,note_on,5,0,5,,,,,,,,3,,,,67,92
150540,note_on,5,0,9,,,,,,,,7,,,,43,92
150540,note_on,5,0,2,,,,,,,,0,,,,55,92
150540,note_on,5,0,8,,,,,,,,6,,,,55,92
150540,note_on,5,0,14,,,,,,,,13,,,,43,92
150540,note_on,5,0,10,,,,,,,,8,,,,67,92
150595,note_off,55,0,9,,,,,,,,7,,,,43,64
150595,note_off,55,0,5,,,,,,,,3,,,,67,64
150595,note_off,55,0,2,,,,,,,,0,,,,55,64
150595,note_off,55,0,13,,,,,,,,12,,,,55,64
150595,note_off,55,0,14,,,,,,,,13,,,,43,64
150595,note_off,55,0,8,,,,,,,,6,,,,55,64
150595,note_off,55,0,10,,,,,,,,8,,,,67,64
150600,note_on,5,0,8,,,,,,,,6,,,,53,92
150600,note_on,5,0,9,,,,,,,,7,,,,41,92
150600,note_on,5,0,13,,,,,,,,12,,,,53,92
150600,note_on,5,0,10,,,,,,,,8,,,,65,92
150600,note_on,5,0,2,,,,,,,,0,,,,53,92
150600,note_on,5,0,5,,,,,,,,3,,,,65,92
150600,note_on,5,0,14,,,,,,,,13,,,,41,92
150655,note_off,55,0,10,,,,,,,,8,,,,65,64
150655,note_off,55,0,2,,,,,,,,0,,,,53,64
150655,note_off,55,0,13,,,,,,,,12,,,,53,64
150655,note_off,55,0,9,,,,,,,,7,,,,41,64
150655,note_off,55,0,8,,,,,,,,6,,,,53,64
150655,note_off,55,0,5,,,,,,,,3,,,,65,64
150655,note_off,55,0,14,,,,,,,,13,,,,41,64
150660,note_on,5,0,9,,,,,,,,7,,,,39,92
150660,note_on,5,0,2,,,,,,,,0,,,,51,92
150660,note_on,5,0,8,,,,,,,,6,,,,51,92
150660,note_on,5,0,5,,,,,,,,3,,,,63,92
150660,note_on,5,0,14,,,,,,,,13,,,,39,92
150660,note_on,5,0,13,,,,,,,,12,,,,51,92
150660,note_on,5,0,10,,,,,,,,8,,,,63,92
150715,note_off,55,0,5,,,,,,,,3,,,,63,64
150715,note_off,235,0,15,,,,,,,,14,,,,38,64
150715,note_off,55,0,8,,,,,,,,6,,,,51,64
150715,note_off,55,0,10,,,,,,,,8,,,,63,64
150715,note_off,55,0,2,,,,,,,,0,,,,51,64
150715,note_off,55,0,14,,,,,,,,13,,,,39,64
150715,note_off,55,0,13,,,,,,,,12,,,,51,64
150715,note_off,55,0,9,,,,,,,,7,,,,39,64
150720,note_on,5,0,8,,,,,,,,6,,,,50,92
150720,note_on,5,0,13,,,,,,,,12,,,,50,92
150720,note_on,5,0,5,,,,,,,,3,,,,62,92
150720,note_on,5,0,9,,,,,,,,7,,,,38,92
150720,note_on,5,0,15,,,,,,,,14,,,,50,92
150720,note_on,5,0,2,,,,,,,,0,,,,50,92
150720,note_on,5,0,14,,,,,,,,13,,,,38,92
150720,note_on,5,0,10,,,,,,,,8,,,,62,92
150775,note_off,55,0,14,,,,,,,,13,,,,38,64
150775,note_off,55,0,13,,,,,,,,12,,,,50,64
150775,note_off,55,0,5,,,,,,,,3,,,,62,64
150775,note_off,55,0,9,,,,,,,,7,,,,38,64
150775,note_off,55,0,10,,,,,,,,8,,,,62,64
150775,note_off,55,0,8,,,,,,,,6,,,,50,64
150775,note_off,55,0,2,,,,,,,,0,,,,50,64
150780,note_on,5,0,8,,,,,,,,6,,,,51,92
150780,note_on,5,0,9,,,,,,,,7,,,,39,92
150780,note_on,5,0,13,,,,,,,,12,,,,51,92
150780,note_on,5,0,10,,,,,,,,8,,,,63,92
150780,note_on,5,0,5,,,,,,,,3,,,,63,92
150780,note_on,5,0,14,,,,,,,,13,,,,39,92
150780,note_on,5,0,2,,,,,,,,0,,,,51,92
150835,note_off,55,0,2,,,,,,,,0,,,,51,64
150835,note_off,55,0,10,,,,,,,,8,,,,63,64
150835,note_off,55,0,5,,,,,,,,3,,,,63,64
150835,note_off,55,0,13,,,,,,,,12,,,,51,64
150835,note_off,55,0,9,,,,,,,,7,,,,39,64
150835,note_off,55,0,8,,,,,,,,6,,,,51,64
150835,note_off,55,0,14,,,,,,,,13,,,,39,64
150840,note_on,5,0,14,,,,,,,,13,,,,38,92
150840,note_on,5,0,5,,,,,,,,3,,,,62,92
150840,note_on,5,0,2,,,,,,,,0,,,,50,92
150840,note_on,5,0,13,,,,,,,,12,,,,50,92
150840,note_on,5,0,10,,,,,,,,8,,,,62,92
150840,note_on,5,0,8,,,,,,,,6,,,,50,92
150840,note_on,5,0,9,,,,,,,,7,,,,38,92
150895,note_off,55,0,13,,,,,,,,12,,,,50,64
150895,note_off,55,0,2,,,,,,,,0,,,,50,64
150895,note_off,55,0,5,,,,,,,,3,,,,62,64
150895,note_off,55,0,10,,,,,,,,8,,,,62,64
150895,note_off,55,0,9,,,,,,,,7,,,,38,64
150895,note_off,55,0,8,,,,,,,,6,,,,50,64
150895,note_off,55,0,14,,,,,,,,13,,,,38,64
150900,note_on,5,0,2,,,,,,,,0,,,,48,92
150900,note_on,5,0,10,,,,,,,,8,,,,60,92
150900,note_on,5,0,5,,,,,,,,3,,,,60,92
150900,note_on,5,0,9,,,,,,,,7,,,,36,92
150900,note_on,5,0,13,,,,,,,,12,,,,48,92
150900,note_on,5,0,14,,,,,,,,13,,,,36,92
150900,note_on,5,0,8,,,,,,,,6,,,,48,92
150955,note_off,55,0,10,,,,,,,,8,,,,60,64
150955,note_off,55,0,14,,,,,,,,13,,,,36,64
150955,note_off,55,0,13,,,,,,,,12,,,,48,64
150955,note_off,55,0,8,,,,,,,,6,,,,48,64
150955,note_off,55,0,9,,,,,,,,7,,,,36,64
150955,note_off,55,0,5,,,,,,,,3,,,,60,64
150955,note_off,235,0,15,,,,,,,,14,,,,50,64
150955,note_off,55,0,2,,,,,,,,0,,,,48,64
150960,note_on,5,0,15,,,,,,,,14,,,,46,92
150960,note_on,5,0,2,,,,,,,,0,,,,46,92
150960,note_on,5,0,14,,,,,,,,13,,,,34,92
150960,note_on,5,0,13,,,,,,,,12,,,,46,92
150960,note_on,5,0,5,,,,,,,,3,,,,58,92
150960,note_on,5,0,9,,,,,,,,7,,,,34,92
150960,note_on,5,0,10,,,,,,,,8,,,,58,92
150960,note_on,5,0,8,,,,,,,,6,,,,46,92
151015,note_off,55,0,13,,,,,,,,12,,,,46,64
151015,note_off,55,0,14,,,,,,,,13,,,,34,64
151015,note_off,55,0,5,,,,,,,,3,,,,58,64
151015,note_off,55,0,10,,,,,,,,8,,,,58,64
151015,note_off,55,0,8,,,,,,,,6,,,,46,64
151015,note_off,55,0,2,,,,,,,,0,,,,46,64
151015,note_off,55,0,9,,,,,,,,7,,,,34,64
151020,note_on,5,0,2,,,,,,,,0,,,,48,92
151020,note_on,5,0,5,,,,,,,,3,,,,60,92
151020,note_on,5,0,8,,,,,,,,6,,,,48,92
151020,note_on,5,0,9,,,,,,,,7,,,,36,92
151020,note_on,5,0,13,,,,,,,,12,,,,48,92
151020,note_on,5,0,10,,,,,,,,8,,,,60,92
151020,note_on,5,0,14,,,,,,,,13,,,,36,92
151075,note_off,55,0,5,,,,,,,,3,,,,60,64
151075,note_off,55,0,13,,,,,,,,12,,,,48,64
151075,note_off,55,0,10,,,,,,,,8,,,,60,64
151075,note_off,55,0,2,,,,,,,,0,,,,48,64
151075,note_off,55,0,9,,,,,,,,7,,,,36,64
151075,note_off,55,0,8,,,,,,,,6,,,,48,64
151075,note_off,55,0,14,,,,,,,,13,,,,36,64
151080,note_on,5,0,13,,,,,,,,12,,,,46,92
151080,note_on,5,0,10,,,,,,,,8,,,,58,92
151080,note_on,5,0,2,,,,,,,,0,,,,46,92
151080,note_on,5,0,8,,,,,,,,6,,,,46,92
151080,note_on,5,0,14,,,,,,,,13,,,,34,92
151080,note_on,5,0,5,,,,,,,,3,,,,58,92
151080,note_on,5,0,9,,,,,,,,7,,,,34,92
151135,note_off,55,0,5,,,,,,,,3,,,,58,64
151135,note_off,55,0,14,,,,,,,,13,,,,34,64
151135,note_off,55,0,2,,,,,,,,0,,,,46,64
151135,note_off,55,0,13,,,,,,,,12,,,,46,64
151135,note_off,55,0,8,,,,,,,,6,,,,46,64
151135,note_off,55,0,10,,,,,,,,8,,,,58,64
151135,note_off,55,0,9,,,,,,,,7,,,,34,64
151140,note_on,5,0,8,,,,,,,,6,,,,45,92
151140,note_on,5,0,14,,,,,,,,13,,,,33,92
151140,note_on,5,0,5,,,,,,,,3,,,,57,92
151140,note_on,5,0,2,,,,,,,,0,,,,45,92
151140,note_on,5,0,9,,,,,,,,7,,,,33,92
151140,note_on,5,0,13,,,,,,,,12,,,,45,92
151140,note_on,5,0,10,,,,,,,,8,,,,57,92
151195,note_off,55,0,10,,,,,,,,8,,,,57,64
151195,note_off,55,0,2,,,,,,,,0,,,,45,64
151195,note_off,55,0,13,,,,,,,,12,,,,45,64
151195,note_off,55,0,8,,,,,,,,6,,,,45,64
151195,note_off,235,0,15,,,,,,,,14,,,,46,64
151195,note_off,55,0,5,,,,,,,,3,,,,57,64
151195,note_off,55,0,14,,,,,,,,13,,,,33,64
151195,note_off,55,0,9,,,,,,,,7,,,,33,64
151200,note_on,5,0,13,,,,,,,,12,,,,43,92
151200,note_on,5,0,5,,,,,,,,3,,,,55,92
151200,note_on,5,0,10,,,,,,,,8,,,,55,92
151200,note_on,5,0,14,,,,,,,,13,,,,31,92
151200,note_on,5,0,9,,,,,,,,7,,,,31,92
151200,note_on,5,0,8,,,,,,,,6,,,,43,92
151200,note_on,5,0,15,,,,,,,,14,,,,43,92
151200,note_on,5,0,2,,,,,,,,0,,,,43,92
151255,note_off,55,0,13,,,,,,,,12,,,,43,64
151255,note_off,55,0,5,,,,,,,,3,,,,55,64
151255,note_off,55,0,10,,,,,,,,8,,,,55,64
151255,note_off,55,0,14,,,,,,,,13,,,,31,64
151255,note_off,55,0,2,,,,,,,,0,,,,43,64
151255,note_off,55,0,9,,,,,,,,7,,,,31,64
151255,note_off,55,0,8,,,,,,,,6,,,,43,64
151260,note_on,5,0,5,,,,,,,,3,,,,67,92
151260,note_on,5,0,8,,,,,,,,6,,,,55,92
151260,note_on,5,0,10,,,,,,,,8,,,,67,92
151260,note_on,5,0,9,,,,,,,,7,,,,43,92
151260,note_on,5,0,14,,,,,,,,13,,,,43,92
151260,note_on,5,0,2,,,,,,,,0,,,,55,92
151260,note_on,5,0,13,,,,,,,,12,,,,55,92
151315,note_off,55,0,5,,,,,,,,3,,,,67,64
151315,note_off,55,0,9,,,,,,,,7,,,,43,64
151315,note_off,55,0,14,,,,,,,,13,,,,43,64
151315,note_off,55,0,2,,,,,,,,0,,,,55,64
151315,note_off,55,0,10,,,,,,,,8,,,,67,64
151315,note_off,55,0,8,,,,,,,,6,,,,55,64
151315,note_off,55,0,13,,,,,,,,12,,,,55,64
151320,note_on,5,0,10,,,,,,,,8,,,,65,92
151320,note_on,5,0,9,,,,,,,,7,,,,41,92
151320,note_on,5,0,5,,,,,,,,3,,,,65,92
151320,note_on,5,0,8,,,,,,,,6,,,,53,92
151320,note_on,5,0,14,,,,,,,,13,,,,41,92
151320,note_on,5,0,2,,,,,,,,0,,,,53,92
151320,note_on,5,0,13,,,,,,,,12,,,,53,92
151375,note_off,55,0,14,,,,,,,,13,,,,41,64
151375,note_off,55,0,5,,,,,,,,3,,,,65,64
151375,note_off,55,0,10,,,,,,,,8,,,,65,64
151375,note_off,55,0,8,,,,,,,,6,,,,53,64
151375,note_off,55,0,9,,,,,,,,7,,,,41,64
151375,note_off,55,0,13,,,,,,,,12,,,,53,64
151375,note_off,55,0,2,,,,,,,,0,,,,53,64
151380,note_on,5,0,14,,,,,,,,13,,,,39,92
151380,note_on,5,0,10,,,,,,,,8,,,,63,92
151380,note_on,5,0,5,,,,,,,,3,,,,63,92
151380,note_on,5,0,13,,,,,,,,12,,,,51,92
151380,note_on,5,0,8,,,,,,,,6,,,,51,92
151380,note_on,5,0,2,,,,,,,,0,,,,51,92
151380,note_on,5,0,9,,,,,,,,7,,,,39,92
151435,note_off,55,0,2,,,,,,,,0,,,,51,64
151435,note_off,235,0,15,,,,,,,,14,,,,43,64
151435,note_off,55,0,9,,,,,,,,7,,,,39,64
151435,note_off,55,0,5,,,,,,,,3,,,,63,64
151435,note_off,55,0,13,,,,,,,,12,,,,51,64
151435,note_off,55,0,8,,,,,,,,6,,,,51,64
151435,note_off,55,0,10,,,,,,,,8,,,,63,64
151435,note_off,55,0,14,,,,,,,,13,,,,39,64
151440,note_on,5,0,2,,,,,,,,0,,,,50,92
151440,note_on,5,0,8,,,,,,,,6,,,,50,92
151440,note_on,5,0,15,,,,,,,,14,,,,38,92
151440,note_on,5,0,10,,,,,,,,8,,,,62,92
151440,note_on,5,0,9,,,,,,,,7,,,,38,92
151440,note_on,5,0,14,,,,,,,,13,,,,38,92
151440,note_on,5,0,5,,,,,,,,3,,,,62,92
151440,note_on,5,0,13,,,,,,,,12,,,,50,92
151495,note_off,55,0,10,,,,,,,,8,,,,62,64
151495,note_off,55,0,8,,,,,,,,6,,,,50,64
151495,note_off,55,0,13,,,,,,,,12,,,,50,64
151495,note_off,55,0,2,,,,,,,,0,,,,50,64
151495,note_off,55,0,14,,,,,,,,13,,,,38,64
151495,note_off,55,0,9,,,,,,,,7,,,,38,64
151495,note_off,55,0,5,,,,,,,,3,,,,62,64
151500,note_on,5,0,9,,,,,,,,7,,,,39,92
151500,note_on,5,0,10,,,,,,,,8,,,,63,92
151500,note_on,5,0,8,,,,,,,,6,,,,51,92
151500,note_on,5,0,13,,,,,,,,12,,,,51,92
151500,note_on,5,0,14,,,,,,,,13,,,,39,92
151500,note_on,5,0,2,,,,,,,,0,,,,51,92
151500,note_on,5,0,5,,,,,,,,3,,,,63,92
151555,note_off,55,0,13,,,,,,,,12,,,,51,64
151555,note_off,55,0,2,,,,,,,,0,,,,51,64
151555,note_off,55,0,8,,,,,,,,6,,,,51,64
151555,note_off,55,0,5,,,,,,,,3,,,,63,64
151555,note_off,55,0,10,,,,,,,,8,,,,63,64
151555,note_off,55,0,9,,,,,,,,7,,,,39,64
151555,note_off,55,0,14,,,,,,,,13,,,,39,64
151560,note_on,5,0,14,,,,,,,,13,,,,38,92
151560,note_on,5,0,9,,,,,,,,7,,,,38,92
151560,note_on,5,0,13,,,,,,,,12,,,,50,92
151560,note_on,5,0,8,,,,,,,,6,,,,50,92
151560,note_on,5,0,10,,,,,,,,8,,,,62,92
151560,note_on,5,0,5,,,,,,,,3,,,,62,92
151560,note_on,5,0,2,,,,,,,,0,,,,50,92
151615,note_off,55,0,8,,,,,,,,6,,,,50,64
151615,note_off,55,0,5,,,,,,,,3,,,,62,64
151615,note_off,55,0,14,,,,,,,,13,,,,38,64
151615,note_off,55,0,9,,,,,,,,7,,,,38,64
151615,note_off,55,0,2,,,,,,,,0,,,,50,64
151615,note_off,55,0,10,,,,,,,,8,,,,62,64
151615,note_off,55,0,13,,,,,,,,12,,,,50,64
151620,note_on,5,0,9,,,,,,,,7,,,,36,92
151620,note_on,5,0,14,,,,,,,,13,,,,36,92
151620,note_on,5,0,10,,,,,,,,8,,,,60,92
151620,note_on,5,0,13,,,,,,,,12,,,,48,92
151620,note_on,5,0,5,,,,,,,,3,,,,60,92
151620,note_on,5,0,8,,,,,,,,6,,,,48,92
151620,note_on,5,0,2,,,,,,,,0,,,,48,92
151675,note_off,55,0,13,,,,,,,,12,,,,48,64
151675,note_off,55,0,2,,,,,,,,0,,,,48,64
151675,note_off,55,0,14,,,,,,,,13,,,,36,64
151675,note_off,55,0,5,,,,,,,,3,,,,60,64
151675,note_off,235,0,15,,,,,,,,14,,,,38,64
151675,note_off,55,0,8,,,,,,,,6,,,,48,64
151675,note_off,55,0,10,,,,,,,,8,,,,60,64
151675,note_off,55,0,9,,,,,,,,7,,,,36,64
151680,note_on,5,0,2,,,,,,,,0,,,,46,92
151680,note_on,5,0,5,,,,,,,,3,,,,58,92
151680,note_on,5,0,13,,,,,,,,12,,,,46,92
151680,note_on,5,0,10,,,,,,,,8,,,,58,92
151680,note_on,5,0,14,,,,,,,,13,,,,34,92
151680,note_on,5,0,15,,,,,,,,14,,,,34,92
151680,note_on,5,0,9,,,,,,,,7,,,,34,92
151680,note_on,5,0,8,,,,,,,,6,,,,46,92
151735,note_off,55,0,5,,,,,,,,3,,,,58,64
151735,note_off,55,0,9,,,,,,,,7,,,,34,64
151735,note_off,55,0,13,,,,,,,,12,,,,46,64
151735,note_off,55,0,2,,,,,,,,0,,,,46,64
151735,note_off,55,0,14,,,,,,,,13,,,,34,64
151735,note_off,55,0,10,,,,,,,,8,,,,58,64
151735,note_off,55,0,8,,,,,,,,6,,,,46,64
151740,note_on,5,0,13,,,,,,,,12,,,,48,92
151740,note_on,5,0,2,,,,,,,,0,,,,48,92
151740,note_on,5,0,5,,,,,,,,3,,,,60,92
151740,note_on,5,0,14,,,,,,,,13,,,,36,92
151740,note_on,5,0,10,,,,,,,,8,,,,60,92
151740,note_on,5,0,9,,,,,,,,7,,,,36,92
151740,note_on,5,0,8,,,,,,,,6,,,,48,92
151795,note_off,55,0,13,,,,,,,,12,,,,48,64
151795,note_off,55,0,14,,,,,,,,13,,,,36,64
151795,note_off,55,0,9,,,,,,,,7,,,,36,64
151795,note_off,55,0,10,,,,,,,,8,,,,60,64
151795,note_off,55,0,2,,,,,,,,0,,,,48,64
151795,note_off,55,0,5,,,,,,,,3,,,,60,64
151795,note_off,55,0,8,,,,,,,,6,,,,48,64
151800,note_on,5,0,10,,,,,,,,8,,,,58,92
151800,note_on,5,0,14,,,,,,,,13,,,,34,92
151800,note_on,5,0,9,,,,,,,,7,,,,34,92
151800,note_on,5,0,5,,,,,,,,3,,,,58,92
151800,note_on,5,0,8,,,,,,,,6,,,,46,92
151800,note_on,5,0,2,,,,,,,,0,,,,46,92
151800,note_on,5,0,13,,,,,,,,12,,,,46,92
151855,note_off,55,0,14,,,,,,,,13,,,,34,64
151855,note_off,55,0,10,,,,,,,,8,,,,58,64
151855,note_off,55,0,8,,,,,,,,6,,,,46,64
151855,note_off,55,0,13,,,,,,,,12,,,,46,64
151855,note_off,55,0,9,,,,,,,,7,,,,34,64
151855,note_off,55,0,2,,,,,,,,0,,,,46,64
151855,note_off,55,0,5,,,,,,,,3,,,,58,64
151860,note_on,5,0,8,,,,,,,,6,,,,45,92
151860,note_on,5,0,9,,,,,,,,7,,,,33,92
151860,note_on,5,0,2,,,,,,,,0,,,,45,92
151860,note_on,5,0,14,,,,,,,,13,,,,33,92
151860,note_on,5,0,5,,,,,,,,3,,,,57,92
151860,note_on,5,0,13,,,,,,,,12,,,,45,92
151860,note_on,5,0,10,,,,,,,,8,,,,57,92
151915,note_off,235,0,15,,,,,,,,14,,,,34,64
151915,note_off,55,0,13,,,,,,,,12,,,,45,64
151915,note_off,55,0,10,,,,,,,,8,,,,57,64
151915,note_off,55,0,5,,,,,,,,3,,,,57,64
151915,note_off,55,0,14,,,,,,,,13,,,,33,64
151915,note_off,55,0,9,,,,,,,,7,,,,33,64
151915,note_off,55,0,8,,,,,,,,6,,,,45,64
151915,note_off,55,0,2,,,,,,,,0,,,,45,64
151920,note_on,5,0,14,,,,,,,,13,,,,31,92
151920,note_on,5,0,13,,,,,,,,12,,,,43,92
151920,note_on,5,0,15,,,,,,,,14,,,,31,92
151920,note_on,5,0,8,,,,,,,,6,,,,43,92
151920,set_tempo,12240,1,0,857142,,,,,,,,,,,,
151920,note_on,5,0,10,,,,,,,,8,,,,55,92
151920,note_on,5,0,9,,,,,,,,7,,,,31,92
151920,note_on,5,0,2,,,,,,,,0,,,,43,92
151920,note_on,5,0,5,,,,,,,,3,,,,55,92
151975,note_off,55,0,5,,,,,,,,3,,,,55,64
151975,note_off,55,0,8,,,,,,,,6,,,,43,64
151975,note_off,55,0,9,,,,,,,,7,,,,31,64
151975,note_off,55,0,2,,,,,,,,0,,,,43,64
151975,note_off,55,0,14,,,,,,,,13,,,,31,64
151975,note_off,55,0,13,,,,,,,,12,,,,43,64
151975,note_off,55,0,10,,,,,,,,8,,,,55,64
151980,note_on,5,0,9,,,,,,,,7,,,,43,92
151980,note_on,5,0,10,,,,,,,,8,,,,67,92
151980,note_on,5,0,2,,,,,,,,0,,,,55,92
151980,note_on,5,0,8,,,,,,,,6,,,,55,92
151980,note_on,5,0,14,,,,,,,,13,,,,43,92
151980,note_on,5,0,5,,,,,,,,3,,,,67,92
151980,note_on,5,0,13,,,,,,,,12,,,,55,92
152035,note_off,55,0,8,,,,,,,,6,,,,55,64
152035,note_off,55,0,14,,,,,,,,13,,,,43,64
152035,note_off,55,0,2,,,,,,,,0,,,,55,64
152035,note_off,55,0,5,,,,,,,,3,,,,67,64
152035,note_off,55,0,10,,,,,,,,8,,,,67,64
152035,note_off,55,0,13,,,,,,,,12,,,,55,64
152035,note_off,55,0,9,,,,,,,,7,,,,43,64
152040,note_on,5,0,10,,,,,,,,8,,,,65,92
152040,note_on,5,0,5,,,,,,,,3,,,,65,92
152040,note_on,5,0,2,,,,,,,,0,,,,53,92
152040,note_on,5,0,13,,,,,,,,12,,,,53,92
152040,note_on,5,0,14,,,,,,,,13,,,,41,92
152040,note_on,5,0,9,,,,,,,,7,,,,41,92
152040,note_on,5,0,8,,,,,,,,6,,,,53,92
152095,note_off,55,0,2,,,,,,,,0,,,,53,64
152095,note_off,55,0,10,,,,,,,,8,,,,65,64
152095,note_off,55,0,14,,,,,,,,13,,,,41,64
152095,note_off,55,0,13,,,,,,,,12,,,,53,64
152095,note_off,55,0,5,,,,,,,,3,,,,65,64
152095,note_off,55,0,9,,,,,,,,7,,,,41,64
152095,note_off,55,0,8,,,,,,,,6,,,,53,64
152100,note_on,5,0,5,,,,,,,,3,,,,63,92
152100,note_on,5,0,2,,,,,,,,0,,,,51,92
152100,note_on,5,0,8,,,,,,,,6,,,,51,92
152100,note_on,5,0,9,,,,,,,,7,,,,39,92
152100,note_on,5,0,10,,,,,,,,8,,,,63,92
152100,note_on,5,0,13,,,,,,,,12,,,,51,92
152100,note_on,5,0,14,,,,,,,,13,,,,39,92
152155,note_off,55,0,13,,,,,,,,12,,,,51,64
152155,note_off,55,0,8,,,,,,,,6,,,,51,64
152155,note_off,55,0,5,,,,,,,,3,,,,63,64
152155,note_off,55,0,2,,,,,,,,0,,,,51,64
152155,note_off,55,0,10,,,,,,,,8,,,,63,64
152155,note_off,55,0,14,,,,,,,,13,,,,39,64
152155,note_off,55,0,9,,,,,,,,7,,,,39,64
152155,note_off,235,0,15,,,,,,,,14,,,,31,64
152160,note_on,5,0,15,,,,,,,,14,,,,50,92
152160,note_on,5,0,14,,,,,,,,13,,,,38,92
152160,note_on,5,0,8,,,,,,,,6,,,,50,92
152160,set_tempo,240,1,0,882352,,,,,,,,,,,,
152160,note_on,5,0,10,,,,,,,,8,,,,62,92
152160,note_on,5,0,9,,,,,,,,7,,,,38,92
152160,note_on,5,0,13,,,,,,,,12,,,,50,92
152160,note_on,5,0,5,,,,,,,,3,,,,62,92
152160,note_on,5,0,2,,,,,,,,0,,,,50,92
152215,note_off,55,0,8,,,,,,,,6,,,,50,64
152215,note_off,55,0,9,,,,,,,,7,,,,38,64
152215,note_off,55,0,13,,,,,,,,12,,,,50,64
152215,note_off,55,0,14,,,,,,,,13,,,,38,64
152215,note_off,55,0,5,,,,,,,,3,,,,62,64
152215,note_off,55,0,2,,,,,,,,0,,,,50,64
152215,note_off,55,0,10,,,,,,,,8,,,,62,64
152220,note_on,5,0,13,,,,,,,,12,,,,51,92
152220,note_on,5,0,2,,,,,,,,0,,,,51,92
152220,note_on,5,0,8,,,,,,,,6,,,,51,92
152220,note_on,5,0,5,,,,,,,,3,,,,63,92
152220,note_on,5,0,14,,,,,,,,13,,,,39,92
152220,note_on,5,0,9,,,,,,,,7,,,,39,92
152220,note_on,5,0,10,,,,,,,,8,,,,63,92
152275,note_off,55,0,5,,,,,,,,3,,,,63,64
152275,note_off,55,0,10,,,,,,,,8,,,,63,64
152275,note_off,55,0,13,,,,,,,,12,,,,51,64
152275,note_off,55,0,8,,,,,,,,6,,,,51,64
152275,note_off,55,0,2,,,,,,,,0,,,,51,64
152275,note_off,55,0,14,,,,,,,,13,,,,39,64
152275,note_off,55,0,9,,,,,,,,7,,,,39,64
152280,note_on,5,0,13,,,,,,,,12,,,,50,92
152280,note_on,5,0,8,,,,,,,,6,,,,50,92
152280,note_on,5,0,14,,,,,,,,13,,,,38,92
152280,note_on,5,0,9,,,,,,,,7,,,,38,92
152280,note_on,5,0,10,,,,,,,,8,,,,62,92
152280,note_on,5,0,5,,,,,,,,3,,,,62,92
152280,note_on,5,0,2,,,,,,,,0,,,,50,92
152335,note_off,55,0,8,,,,,,,,6,,,,50,64
152335,note_off,55,0,9,,,,,,,,7,,,,38,64
152335,note_off,55,0,10,,,,,,,,8,,,,62,64
152335,note_off,55,0,2,,,,,,,,0,,,,50,64
152335,note_off,55,0,14,,,,,,,,13,,,,38,64
152335,note_off,55,0,13,,,,,,,,12,,,,50,64
152335,note_off,55,0,5,,,,,,,,3,,,,62,64
152340,note_on,5,0,5,,,,,,,,3,,,,60,92
152340,note_on,5,0,10,,,,,,,,8,,,,60,92
152340,note_on,5,0,9,,,,,,,,7,,,,36,92
152340,note_on,5,0,8,,,,,,,,6,,,,48,92
152340,note_on,5,0,14,,,,,,,,13,,,,36,92
152340,note_on,5,0,13,,,,,,,,12,,,,48,92
152340,note_on,5,0,2,,,,,,,,0,,,,48,92
152395,note_off,55,0,2,,,,,,,,0,,,,48,64
152395,note_off,55,0,10,,,,,,,,8,,,,60,64
152395,note_off,55,0,8,,,,,,,,6,,,,48,64
152395,note_off,55,0,5,,,,,,,,3,,,,60,64
152395,note_off,55,0,13,,,,,,,,12,,,,48,64
152395,note_off,55,0,14,,,,,,,,13,,,,36,64
152395,note_off,235,0,15,,,,,,,,14,,,,50,64
152395,note_off,55,0,9,,,,,,,,7,,,,36,64
152400,note_on,5,0,10,,,,,,,,8,,,,58,92
152400,set_tempo,240,1,0,909090,,,,,,,,,,,,
152400,note_on,5,0,9,,,,,,,,7,,,,34,92
152400,note_on,5,0,2,,,,,,,,0,,,,46,92
152400,note_on,5,0,13,,,,,,,,12,,,,46,92
152400,note_on,5,0,8,,,,,,,,6,,,,46,92
152400,note_on,5,0,14,,,,,,,,13,,,,34,92
152400,note_on,5,0,5,,,,,,,,3,,,,58,92
152400,note_on,5,0,15,,,,,,,,14,,,,46,92
152455,note_off,55,0,8,,,,,,,,6,,,,46,64
152455,note_off,55,0,13,,,,,,,,12,,,,46,64
152455,note_off,55,0,14,,,,,,,,13,,,,34,64
152455,note_off,55,0,9,,,,,,,,7,,,,34,64
152455,note_off,55,0,10,,,,,,,,8,,,,58,64
152455,note_off,55,0,2,,,,,,,,0,,,,46,64
152455,note_off,55,0,5,,,,,,,,3,,,,58,64
152460,note_on,5,0,8,,,,,,,,6,,,,48,92
152460,note_on,5,0,13,,,,,,,,12,,,,48,92
152460,note_on,5,0,2,,,,,,,,0,,,,48,92
152460,note_on,5,0,5,,,,,,,,3,,,,60,92
152460,note_on,5,0,14,,,,,,,,13,,,,36,92
152460,note_on,5,0,10,,,,,,,,8,,,,60,92
152460,note_on,5,0,9,,,,,,,,7,,,,36,92
152515,note_off,55,0,2,,,,,,,,0,,,,48,64
152515,note_off,55,0,10,,,,,,,,8,,,,60,64
152515,note_off,55,0,14,,,,,,,,13,,,,36,64
152515,note_off,55,0,8,,,,,,,,6,,,,48,64
152515,note_off,55,0,9,,,,,,,,7,,,,36,64
152515,note_off,55,0,13,,,,,,,,12,,,,48,64
152515,note_off,55,0,5,,,,,,,,3,,,,60,64
152520,note_on,5,0,2,,,,,,,,0,,,,46,92
152520,note_on,5,0,13,,,,,,,,12,,,,46,92
152520,note_on,5,0,9,,,,,,,,7,,,,34,92
152520,note_on,5,0,10,,,,,,,,8,,,,58,92
152520,note_on,5,0,5,,,,,,,,3,,,,58,92
152520,note_on,5,0,8,,,,,,,,6,,,,46,92
152520,note_on,5,0,14,,,,,,,,13,,,,34,92
152575,note_off,55,0,9,,,,,,,,7,,,,34,64
152575,note_off,55,0,8,,,,,,,,6,,,,46,64
152575,note_off,55,0,13,,,,,,,,12,,,,46,64
152575,note_off,55,0,2,,,,,,,,0,,,,46,64
152575,note_off,55,0,10,,,,,,,,8,,,,58,64
152575,note_off,55,0,5,,,,,,,,3,,,,58,64
152575,note_off,55,0,14,,,,,,,,13,,,,34,64
152580,note_on,5,0,10,,,,,,,,8,,,,57,92
152580,note_on,5,0,8,,,,,,,,6,,,,45,92
152580,note_on,5,0,2,,,,,,,,0,,,,45,92
152580,note_on,5,0,5,,,,,,,,3,,,,57,92
152580,note_on,5,0,13,,,,,,,,12,,,,45,92
152580,note_on,5,0,14,,,,,,,,13,,,,33,92
152580,note_on,5,0,9,,,,,,,,7,,,,33,92
152635,note_off,55,0,13,,,,,,,,12,,,,45,64
152635,note_off,55,0,14,,,,,,,,13,,,,33,64
152635,note_off,55,0,2,,,,,,,,0,,,,45,64
152635,note_off,55,0,8,,,,,,,,6,,,,45,64
152635,note_off,235,0,15,,,,,,,,14,,,,46,64
152635,note_off,55,0,9,,,,,,,,7,,,,33,64
152635,note_off,55,0,10,,,,,,,,8,,,,57,64
152635,note_off,55,0,5,,,,,,,,3,,,,57,64
152640,note_on,5,0,5,,,,,,,,3,,,,55,92
152640,note_on,5,0,9,,,,,,,,7,,,,31,92
152640,note_on,5,0,13,,,,,,,,12,,,,43,92
152640,note_on,5,0,10,,,,,,,,8,,,,55,92
152640,set_tempo,240,1,0,952380,,,,,,,,,,,,
152640,note_on,5,0,2,,,,,,,,0,,,,43,92
152640,note_on,5,0,14,,,,,,,,13,,,,31,92
152640,note_on,5,0,8,,,,,,,,6,,,,43,92
152640,note_on,5,0,15,,,,,,,,14,,,,43,92
152695,note_off,55,0,10,,,,,,,,8,,,,55,64
152695,note_off,55,0,2,,,,,,,,0,,,,43,64
152695,note_off,55,0,14,,,,,,,,13,,,,31,64
152695,note_off,55,0,8,,,,,,,,6,,,,43,64
152695,note_off,55,0,5,,,,,,,,3,,,,55,64
152695,note_off,55,0,13,,,,,,,,12,,,,43,64
152695,note_off,55,0,9,,,,,,,,7,,,,31,64
152700,note_on,5,0,14,,,,,,,,13,,,,43,92
152700,note_on,5,0,5,,,,,,,,3,,,,67,92
152700,note_on,5,0,2,,,,,,,,0,,,,55,92
152700,note_on,5,0,10,,,,,,,,8,,,,67,92
152700,note_on,5,0,13,,,,,,,,12,,,,55,92
152700,note_on,5,0,8,,,,,,,,6,,,,55,92
152700,note_on,5,0,9,,,,,,,,7,,,,43,92
152755,note_off,55,0,2,,,,,,,,0,,,,55,64
152755,note_off,55,0,5,,,,,,,,3,,,,67,64
152755,note_off,55,0,14,,,,,,,,13,,,,43,64
152755,note_off,55,0,8,,,,,,,,6,,,,55,64
152755,note_off,55,0,9,,,,,,,,7,,,,43,64
152755,note_off,55,0,10,,,,,,,,8,,,,67,64
152755,note_off,55,0,13,,,,,,,,12,,,,55,64
152760,note_on,5,0,5,,,,,,,,3,,,,65,92
152760,note_on,5,0,10,,,,,,,,8,,,,65,92
152760,note_on,5,0,14,,,,,,,,13,,,,41,92
152760,note_on,5,0,8,,,,,,,,6,,,,53,92
152760,note_on,5,0,13,,,,,,,,12,,,,53,92
152760,note_on,5,0,9,,,,,,,,7,,,,41,92
152760,note_on,5,0,2,,,,,,,,0,,,,53,92
152815,note_off,55,0,8,,,,,,,,6,,,,53,64
152815,note_off,55,0,5,,,,,,,,3,,,,65,64
152815,note_off,55,0,10,,,,,,,,8,,,,65,64
152815,note_off,55,0,2,,,,,,,,0,,,,53,64
152815,note_off,55,0,13,,,,,,,,12,,,,53,64
152815,note_off,55,0,14,,,,,,,,13,,,,41,64
152815,note_off,55,0,9,,,,,,,,7,,,,41,64
152820,note_on,5,0,10,,,,,,,,8,,,,63,92
152820,note_on,5,0,8,,,,,,,,6,,,,51,92
152820,note_on,5,0,2,,,,,,,,0,,,,51,92
152820,note_on,5,0,14,,,,,,,,13,,,,39,92
152820,note_on,5,0,9,,,,,,,,7,,,,39,92
152820,note_on,5,0,5,,,,,,,,3,,,,63,92
152820,note_on,5,0,13,,,,,,,,12,,,,51,92
152875,note_off,235,0,15,,,,,,,,14,,,,43,64
152875,note_off,55,0,8,,,,,,,,6,,,,51,64
152875,note_off,55,0,14,,,,,,,,13,,,,39,64
152875,note_off,55,0,13,,,,,,,,12,,,,51,64
152875,note_off,55,0,9,,,,,,,,7,,,,39,64
152875,note_off,55,0,2,,,,,,,,0,,,,51,64
152875,note_off,55,0,5,,,,,,,,3,,,,63,64
152875,note_off,55,0,10,,,,,,,,8,,,,63,64
152880,note_on,5,0,13,,,,,,,,12,,,,50,92
152880,note_on,5,0,5,,,,,,,,3,,,,62,92
152880,note_on,5,0,14,,,,,,,,13,,,,38,92
152880,set_tempo,240,1,0,1000000,,,,,,,,,,,,
152880,note_on,5,0,9,,,,,,,,7,,,,38,92
152880,note_on,5,0,2,,,,,,,,0,,,,50,92
152880,note_on,5,0,15,,,,,,,,14,,,,38,92
152880,note_on,5,0,10,,,,,,,,8,,,,62,92
152880,note_on,5,0,8,,,,,,,,6,,,,50,92
152935,note_off,55,0,5,,,,,,,,3,,,,62,64
152935,note_off,55,0,10,,,,,,,,8,,,,62,64
152935,note_off,55,0,9,,,,,,,,7,,,,38,64
152935,note_off,55,0,8,,,,,,,,6,,,,50,64
152935,note_off,55,0,13,,,,,,,,12,,,,50,64
152935,note_off,55,0,2,,,,,,,,0,,,,50,64
152935,note_off,55,0,14,,,,,,,,13,,,,38,64
152940,note_on,5,0,8,,,,,,,,6,,,,51,92
152940,note_on,5,0,9,,,,,,,,7,,,,39,92
152940,note_on,5,0,10,,,,,,,,8,,,,63,92
152940,note_on,5,0,13,,,,,,,,12,,,,51,92
152940,note_on,5,0,14,,,,,,,,13,,,,39,92
152940,note_on,5,0,2,,,,,,,,0,,,,51,92
152940,note_on,5,0,5,,,,,,,,3,,,,63,92
152995,note_off,55,0,14,,,,,,,,13,,,,39,64
152995,note_off,55,0,2,,,,,,,,0,,,,51,64
152995,note_off,55,0,8,,,,,,,,6,,,,51,64
152995,note_off,55,0,13,,,,,,,,12,,,,51,64
152995,note_off,55,0,5,,,,,,,,3,,,,63,64
152995,note_off,55,0,9,,,,,,,,7,,,,39,64
152995,note_off,55,0,10,,,,,,,,8,,,,63,64
153000,note_on,5,0,9,,,,,,,,7,,,,38,92
153000,note_on,5,0,10,,,,,,,,8,,,,62,92
153000,note_on,5,0,2,,,,,,,,0,,,,50,92
153000,note_on,5,0,14,,,,,,,,13,,,,38,92
153000,note_on,5,0,5,,,,,,,,3,,,,62,92
153000,note_on,5,0,13,,,,,,,,12,,,,50,92
153000,note_on,5,0,8,,,,,,,,6,,,,50,92
153055,note_off,55,0,13,,,,,,,,12,,,,50,64
153055,note_off,55,0,9,,,,,,,,7,,,,38,64
153055,note_off,55,0,14,,,,,,,,13,,,,38,64
153055,note_off,55,0,5,,,,,,,,3,,,,62,64
153055,note_off,55,0,10,,,,,,,,8,,,,62,64
153055,note_off,55,0,2,,,,,,,,0,,,,50,64
153055,note_off,55,0,8,,,,,,,,6,,,,50,64
153060,note_on,5,0,14,,,,,,,,13,,,,36,92
153060,note_on,5,0,2,,,,,,,,0,,,,48,92
153060,note_on,5,0,13,,,,,,,,12,,,,48,92
153060,note_on,5,0,5,,,,,,,,3,,,,60,92
153060,note_on,5,0,9,,,,,,,,7,,,,36,92
153060,note_on,5,0,8,,,,,,,,6,,,,48,92
153060,note_on,5,0,10,,,,,,,,8,,,,60,92
153115,note_off,55,0,2,,,,,,,,0,,,,48,64
153115,note_off,55,0,8,,,,,,,,6,,,,48,64
153115,note_off,55,0,14,,,,,,,,13,,,,36,64
153115,note_off,235,0,15,,,,,,,,14,,,,38,64
153115,note_off,55,0,9,,,,,,,,7,,,,36,64
153115,note_off,55,0,5,,,,,,,,3,,,,60,64
153115,note_off,55,0,13,,,,,,,,12,,,,48,64
153115,note_off,55,0,10,,,,,,,,8,,,,60,64
153120,note_on,5,0,10,,,,,,,,8,,,,58,92
153120,note_on,5,0,14,,,,,,,,13,,,,34,92
153120,note_on,5,0,8,,,,,,,,6,,,,46,92
153120,note_on,5,0,2,,,,,,,,0,,,,46,92
153120,note_on,5,0,15,,,,,,,,14,,,,34,92
153120,note_on,5,0,13,,,,,,,,12,,,,46,92
153120,note_on,5,0,5,,,,,,,,3,,,,58,92
153120,end_of_track,0,1,0,,,,,,,,,,,,,
153120,set_tempo,240,1,0,1071428,,,,,,,,,,,,
153120,note_on,5,0,9,,,,,,,,7,,,,34,92
153175,note_off,55,0,8,,,,,,,,6,,,,46,64
153175,note_off,55,0,13,,,,,,,,12,,,,46,64
153175,note_off,55,0,10,,,,,,,,8,,,,58,64
153175,note_off,55,0,14,,,,,,,,13,,,,34,64
153175,note_off,55,0,5,,,,,,,,3,,,,58,64
153175,note_off,55,0,9,,,,,,,,7,,,,34,64
153175,note_off,55,0,2,,,,,,,,0,,,,46,64
153180,note_on,5,0,9,,,,,,,,7,,,,36,92
153180,note_on,5,0,13,,,,,,,,12,,,,48,92
153180,note_on,5,0,10,,,,,,,,8,,,,60,92
153180,note_on,5,0,2,,,,,,,,0,,,,48,92
153180,note_on,5,0,8,,,,,,,,6,,,,48,92
153180,note_on,5,0,5,,,,,,,,3,,,,60,92
153180,note_on,5,0,14,,,,,,,,13,,,,36,92
153235,note_off,55,0,5,,,,,,,,3,,,,60,64
153235,note_off,55,0,8,,,,,,,,6,,,,48,64
153235,note_off,55,0,13,,,,,,,,12,,,,48,64
153235,note_off,55,0,2,,,,,,,,0,,,,48,64
153235,note_off,55,0,10,,,,,,,,8,,,,60,64
153235,note_off,55,0,9,,,,,,,,7,,,,36,64
153235,note_off,55,0,14,,,,,,,,13,,,,36,64
153240,note_on,5,0,10,,,,,,,,8,,,,58,92
153240,note_on,5,0,9,,,,,,,,7,,,,34,92
153240,note_on,5,0,5,,,,,,,,3,,,,58,92
153240,note_on,5,0,14,,,,,,,,13,,,,34,92
153240,note_on,5,0,13,,,,,,,,12,,,,46,92
153240,note_on,5,0,2,,,,,,,,0,,,,46,92
153240,note_on,5,0,8,,,,,,,,6,,,,46,92
153295,note_off,55,0,5,,,,,,,,3,,,,58,64
153295,note_off,55,0,8,,,,,,,,6,,,,46,64
153295,note_off,55,0,2,,,,,,,,0,,,,46,64
153295,note_off,55,0,10,,,,,,,,8,,,,58,64
153295,note_off,55,0,9,,,,,,,,7,,,,34,64
153295,note_off,55,0,13,,,,,,,,12,,,,46,64
153295,note_off,55,0,14,,,,,,,,13,,,,34,64
153300,note_on,5,0,14,,,,,,,,13,,,,33,92
153300,note_on,5,0,9,,,,,,,,7,,,,33,92
153300,note_on,5,0,2,,,,,,,,0,,,,45,92
153300,note_on,5,0,13,,,,,,,,12,,,,45,92
153300,note_on,5,0,8,,,,,,,,6,,,,45,92
153300,note_on,5,0,5,,,,,,,,3,,,,57,92
153300,note_on,5,0,10,,,,,,,,8,,,,57,92
153355,note_off,55,0,13,,,,,,,,12,,,,45,64
153355,note_off,55,0,14,,,,,,,,13,,,,33,64
153355,note_off,55,0,2,,,,,,,,0,,,,45,64
153355,note_off,235,0,15,,,,,,,,14,,,,34,64
153355,note_off,55,0,9,,,,,,,,7,,,,33,64
153355,note_off,55,0,8,,,,,,,,6,,,,45,64
153355,note_off,55,0,10,,,,,,,,8,,,,57,64
153355,note_off,55,0,5,,,,,,,,3,,,,57,64
153360,note_on,5,0,10,,,,,,,,8,,,,55,92
153360,note_on,5,0,15,,,,,,,,14,,,,31,92
153360,note_on,5,0,9,,,,,,,,7,,,,31,92
153360,note_on,5,0,5,,,,,,,,3,,,,55,92
153360,note_on,5,0,13,,,,,,,,12,,,,43,92
153360,note_on,5,0,14,,,,,,,,13,,,,31,92
153360,note_on,5,0,8,,,,,,,,6,,,,43,92
153360,note_on,5,0,2,,,,,,,,0,,,,43,92
154680,note_off,1320,0,13,,,,,,,,12,,,,43,64
154680,end_of_track,0,1,2,,,,,,,,,,,,,
154680,note_off,1320,0,5,,,,,,,,3,,,,55,64
154680,end_of_track,0,1,5,,,,,,,,,,,,,
154680,note_off,1320,0,15,,,,,,,,14,,,,31,64
154680,note_off,1320,0,8,,,,,,,,6,,,,43,64
154680,end_of_track,0,1,8,,,,,,,,,,,,,
154680,end_of_track,0,1,13,,,,,,,,,,,,,
154680,note_off,1320,0,9,,,,,,,,7,,,,31,64
154680,end_of_track,0,1,9,,,,,,,,,,,,,
154680,end_of_track,0,1,14,,,,,,,,,,,,,
154680,note_off,1320,0,14,,,,,,,,13,,,,31,64
154680,note_off,1320,0,10,,,,,,,,8,,,,55,64
154680,end_of_track,0,1,10,,,,,,,,,,,,,
154680,note_off,1320,0,2,,,,,,,,0,,,,43,64
154680,end_of_track,0,1,15,,,,,,,,,,,,,
