tick,type,time,meta,track,tempo,numerator,denominator,clocks_per_click,notated_32nd_notes_per_beat,key,port,channel,control,value,program,note,velocity
0,text,0,1,0,,,,,,,,,,,,,
0,control_change,0,0,8,,,,,,,,8,7,127,,,
0,control_change,0,0,8,,,,,,,,8,10,1,,,
0,control_change,0,0,8,,,,,,,,8,91,127,,,
0,program_change,0,0,8,,,,,,,,8,,,50,,
0,midi_port,0,1,5,,,,,,,0,,,,,,
0,program_change,0,0,2,,,,,,,,13,,,6,,
0,control_change,0,0,2,,,,,,,,13,91,127,,,
0,control_change,0,0,2,,,,,,,,13,10,8,,,
0,control_change,0,0,2,,,,,,,,13,7,127,,,
0,channel_prefix,0,1,2,,,,,,,,13,,,,,
0,midi_port,0,1,2,,,,,,,0,,,,,,
0,track_name,0,1,2,,,,,,,,,,,,,
0,midi_port,0,1,9,,,,,,,0,,,,,,
0,channel_prefix,0,1,9,,,,,,,,10,,,,,
0,control_change,0,0,9,,,,,,,,10,7,127,,,
0,control_change,0,0,9,,,,,,,,10,10,32,,,
0,control_change,0,0,9,,,,,,,,10,91,127,,,
0,program_change,0,0,9,,,,,,,,10,,,50,,
0,program_change,0,0,1,,,,,,,,12,,,6,,
0,control_change,0,0,1,,,,,,,,12,91,127,,,
0,control_change,0,0,1,,,,,,,,12,10,127,,,
0,control_change,0,0,1,,,,,,,,12,7,127,,,
0,channel_prefix,0,1,1,,,,,,,,12,,,,,
0,midi_port,0,1,1,,,,,,,0,,,,,,
0,track_name,0,1,1,,,,,,,,,,,,,
0,midi_port,0,1,10,,,,,,,0,,,,,,
0,channel_prefix,0,1,10,,,,,,,,11,,,,,
0,control_change,0,0,10,,,,,,,,11,7,127,,,
0,control_change,0,0,10,,,,,,,,11,10,63,,,
0,channel_prefix,0,1,8,,,,,,,,8,,,,,
0,control_change,0,0,10,,,,,,,,11,91,127,,,
0,midi_port,0,1,8,,,,,,,0,,,,,,
0,control_change,0,0,7,,,,,,,,5,91,127,,,
0,channel_prefix,0,1,5,,,,,,,,3,,,,,
0,control_change,0,0,5,,,,,,,,3,7,127,,,
0,control_change,0,0,5,,,,,,,,3,10,1,,,
0,control_change,0,0,5,,,,,,,,3,91,127,,,
0,program_change,0,0,5,,,,,,,,3,,,48,,
0,program_change,0,0,4,,,,,,,,2,,,40,,
0,control_change,0,0,4,,,,,,,,2,91,127,,,
0,control_change,0,0,4,,,,,,,,2,10,64,,,
0,control_change,0,0,4,,,,,,,,2,7,127,,,
0,channel_prefix,0,1,4,,,,,,,,2,,,,,
0,midi_port,0,1,4,,,,,,,0,,,,,,
0,track_name,0,1,4,,,,,,,,,,,,,
0,midi_port,0,1,6,,,,,,,0,,,,,,
0,channel_prefix,0,1,6,,,,,,,,4,,,,,
0,control_change,0,0,6,,,,,,,,4,7,127,,,
0,control_change,0,0,6,,,,,,,,4,10,32,,,
0,control_change,0,0,6,,,,,,,,4,91,127,,,
0,program_change,0,0,6,,,,,,,,4,,,48,,
0,program_change,0,0,3,,,,,,,,1,,,48,,
0,control_change,0,0,3,,,,,,,,1,91,127,,,
0,control_change,0,0,3,,,,,,,,1,10,64,,,
0,control_change,0,0,3,,,,,,,,1,7,127,,,
0,channel_prefix,0,1,3,,,,,,,,1,,,,,
0,midi_port,0,1,3,,,,,,,0,,,,,,
0,track_name,0,1,3,,,,,,,,,,,,,
0,midi_port,0,1,7,,,,,,,0,,,,,,
0,channel_prefix,0,1,7,,,,,,,,5,,,,,
0,control_change,0,0,7,,,,,,,,5,7,127,,,
0,control_change,0,0,7,,,,,,,,5,10,63,,,
0,program_change,0,0,7,,,,,,,,5,,,48,,
0,program_change,0,0,10,,,,,,,,11,,,50,,
0,track_name,0,1,5,,,,,,,,,,,,,
0,track_name,0,1,0,,,,,,,,,,,,,
0,copyright,0,1,0,,,,,,,,,,,,,
0,set_tempo,0,1,0,500000,,,,,,,,,,,,
0,time_signature,0,1,0,,3,4,24,8,,,,,,,,
0,key_signature,0,1,0,,,,,,E,,,,,,,
120,set_tempo,120,1,0,1500000,,,,,,,,,,,,
120,note_on,120,0,9,,,,,,,,10,,,,64,30
120,note_on,120,0,5,,,,,,,,3,,,,68,30
120,note_on,120,0,8,,,,,,,,8,,,,68,30
120,note_on,120,0,6,,,,,,,,4,,,,64,30
300,note_off,180,0,8,,,,,,,,8,,,,68,64
300,note_on,0,0,6,,,,,,,,4,,,,66,30
300,note_off,180,0,9,,,,,,,,10,,,,64,64
300,note_on,0,0,9,,,,,,,,10,,,,66,30
300,note_on,0,0,8,,,,,,,,8,,,,69,30
300,note_off,180,0,6,,,,,,,,4,,,,64,64
300,note_off,180,0,5,,,,,,,,3,,,,68,64
300,note_on,0,0,5,,,,,,,,3,,,,69,30
360,note_on,0,0,2,,,,,,,,13,,,,49,45
360,note_on,360,0,2,,,,,,,,13,,,,37,45
360,note_on,360,0,10,,,,,,,,11,,,,61,30
360,note_off,60,0,9,,,,,,,,10,,,,66,64
360,note_on,0,0,9,,,,,,,,10,,,,64,30
360,note_on,360,0,7,,,,,,,,5,,,,61,30
360,note_on,0,0,5,,,,,,,,3,,,,68,30
360,note_off,60,0,6,,,,,,,,4,,,,66,64
360,note_off,60,0,5,,,,,,,,3,,,,69,64
360,note_on,0,0,6,,,,,,,,4,,,,64,30
360,note_on,0,0,8,,,,,,,,8,,,,68,30
360,note_off,60,0,8,,,,,,,,8,,,,69,64
540,note_off,180,0,5,,,,,,,,3,,,,68,64
540,note_off,180,0,9,,,,,,,,10,,,,64,64
540,note_on,0,0,9,,,,,,,,10,,,,66,30
540,note_on,0,0,8,,,,,,,,8,,,,69,30
540,note_off,180,0,6,,,,,,,,4,,,,64,64
540,note_off,180,0,8,,,,,,,,8,,,,68,64
540,note_on,0,0,5,,,,,,,,3,,,,69,30
540,note_on,0,0,6,,,,,,,,4,,,,66,30
595,note_off,235,0,2,,,,,,,,13,,,,49,64
595,note_off,0,0,2,,,,,,,,13,,,,37,64
595,note_off,235,0,7,,,,,,,,5,,,,61,64
595,note_off,235,0,10,,,,,,,,11,,,,61,64
600,note_on,0,0,6,,,,,,,,4,,,,64,30
600,note_on,5,0,2,,,,,,,,13,,,,37,45
600,note_off,60,0,5,,,,,,,,3,,,,69,64
600,note_on,5,0,10,,,,,,,,11,,,,61,30
600,note_off,60,0,6,,,,,,,,4,,,,66,64
600,note_on,0,0,8,,,,,,,,8,,,,68,30
600,note_off,60,0,9,,,,,,,,10,,,,66,64
600,note_on,0,0,9,,,,,,,,10,,,,64,30
600,note_on,0,0,2,,,,,,,,13,,,,49,45
600,note_off,60,0,8,,,,,,,,8,,,,69,64
600,note_on,0,0,5,,,,,,,,3,,,,68,30
600,note_on,5,0,7,,,,,,,,5,,,,61,30
780,note_off,180,0,9,,,,,,,,10,,,,64,64
780,note_on,0,0,9,,,,,,,,10,,,,66,30
780,note_off,180,0,6,,,,,,,,4,,,,64,64
780,note_on,0,0,5,,,,,,,,3,,,,69,30
780,note_off,180,0,5,,,,,,,,3,,,,68,64
780,note_off,180,0,8,,,,,,,,8,,,,68,64
780,note_on,0,0,8,,,,,,,,8,,,,69,30
780,note_on,0,0,6,,,,,,,,4,,,,66,30
840,note_on,0,0,6,,,,,,,,4,,,,64,30
840,note_off,60,0,8,,,,,,,,8,,,,69,64
840,note_off,60,0,9,,,,,,,,10,,,,66,64
840,note_on,0,0,9,,,,,,,,10,,,,64,30
840,note_on,0,0,8,,,,,,,,8,,,,68,30
840,note_on,0,0,5,,,,,,,,3,,,,68,30
840,note_off,60,0,5,,,,,,,,3,,,,69,64
840,note_off,60,0,6,,,,,,,,4,,,,66,64
1000,note_off,400,0,7,,,,,,,,5,,,,61,64
1000,note_off,0,0,2,,,,,,,,13,,,,37,64
1000,note_off,400,0,10,,,,,,,,11,,,,61,64
1000,note_off,400,0,2,,,,,,,,13,,,,49,64
1020,note_on,0,0,8,,,,,,,,8,,,,69,30
1020,note_off,180,0,8,,,,,,,,8,,,,68,64
1020,note_off,180,0,6,,,,,,,,4,,,,64,64
1020,note_on,0,0,9,,,,,,,,10,,,,66,30
1020,note_off,180,0,5,,,,,,,,3,,,,68,64
1020,note_on,0,0,5,,,,,,,,3,,,,69,30
1020,note_off,180,0,9,,,,,,,,10,,,,64,64
1020,note_on,0,0,6,,,,,,,,4,,,,66,30
1080,note_off,60,0,6,,,,,,,,4,,,,66,64
1080,note_on,0,0,6,,,,,,,,4,,,,64,30
1080,note_on,0,0,9,,,,,,,,10,,,,64,30
1080,note_off,60,0,8,,,,,,,,8,,,,69,64
1080,note_on,0,0,8,,,,,,,,8,,,,68,30
1080,note_on,0,0,5,,,,,,,,3,,,,68,30
1080,note_off,60,0,5,,,,,,,,3,,,,69,64
1080,note_off,60,0,9,,,,,,,,10,,,,66,64
1260,note_on,0,0,5,,,,,,,,3,,,,73,30
1260,note_off,180,0,9,,,,,,,,10,,,,64,64
1260,note_off,180,0,5,,,,,,,,3,,,,68,64
1260,note_on,0,0,6,,,,,,,,4,,,,69,30
1260,note_off,180,0,6,,,,,,,,4,,,,64,64
1260,note_off,180,0,8,,,,,,,,8,,,,68,64
1260,note_on,0,0,8,,,,,,,,8,,,,73,30
1260,note_on,0,0,9,,,,,,,,10,,,,69,30
1260,set_tempo,1140,1,0,1578947,,,,,,,,,,,,
1320,note_off,60,0,8,,,,,,,,8,,,,73,64
1320,note_on,0,0,8,,,,,,,,8,,,,71,30
1320,note_on,0,0,9,,,,,,,,10,,,,68,30
1320,note_off,60,0,9,,,,,,,,10,,,,69,64
1320,note_on,0,0,6,,,,,,,,4,,,,68,30
1320,note_off,60,0,5,,,,,,,,3,,,,73,64
1320,note_on,0,0,5,,,,,,,,3,,,,71,30
1320,note_off,60,0,6,,,,,,,,4,,,,69,64
1500,note_off,180,0,5,,,,,,,,3,,,,71,64
1500,note_off,180,0,6,,,,,,,,4,,,,68,64
1500,note_off,180,0,9,,,,,,,,10,,,,68,64
1500,note_on,0,0,9,,,,,,,,10,,,,66,30
1500,note_off,180,0,8,,,,,,,,8,,,,71,64
1500,note_on,0,0,8,,,,,,,,8,,,,69,30
1500,note_on,0,0,5,,,,,,,,3,,,,69,30
1500,note_on,0,0,6,,,,,,,,4,,,,66,30
1560,note_on,0,0,9,,,,,,,,10,,,,64,30
1560,note_off,60,0,5,,,,,,,,3,,,,69,64
1560,note_on,1560,0,4,,,,,,,,2,,,,80,45
1560,note_on,0,0,5,,,,,,,,3,,,,68,30
1560,note_on,0,0,1,,,,,,,,12,,,,68,45
1560,note_on,0,0,1,,,,,,,,12,,,,64,45
1560,note_on,1560,0,1,,,,,,,,12,,,,61,45
1560,set_tempo,300,1,0,1500000,,,,,,,,,,,,
1560,note_on,0,0,6,,,,,,,,4,,,,64,30
1560,note_off,60,0,6,,,,,,,,4,,,,66,64
1560,note_on,0,0,8,,,,,,,,8,,,,68,30
1560,note_off,60,0,9,,,,,,,,10,,,,66,64
1560,note_on,1560,0,3,,,,,,,,1,,,,80,60
1560,note_off,60,0,8,,,,,,,,8,,,,69,64
1740,note_off,180,0,6,,,,,,,,4,,,,64,64
1740,note_on,0,0,8,,,,,,,,8,,,,69,30
1740,note_off,180,0,9,,,,,,,,10,,,,64,64
1740,note_on,0,0,9,,,,,,,,10,,,,66,30
1740,note_on,0,0,5,,,,,,,,3,,,,69,30
1740,note_off,180,0,5,,,,,,,,3,,,,68,64
1740,note_off,180,0,8,,,,,,,,8,,,,68,64
1740,note_on,0,0,6,,,,,,,,4,,,,66,30
1800,note_on,800,0,10,,,,,,,,11,,,,61,30
1800,note_on,0,0,6,,,,,,,,4,,,,64,30
1800,note_off,60,0,6,,,,,,,,4,,,,66,64
1800,note_on,0,0,2,,,,,,,,13,,,,49,45
1800,note_on,800,0,2,,,,,,,,13,,,,37,45
1800,note_off,60,0,5,,,,,,,,3,,,,69,64
1800,note_on,0,0,5,,,,,,,,3,,,,68,30
1800,note_on,0,0,9,,,,,,,,10,,,,64,30
1800,note_off,60,0,9,,,,,,,,10,,,,66,64
1800,note_off,60,0,8,,,,,,,,8,,,,69,64
1800,note_on,0,0,8,,,,,,,,8,,,,68,30
1800,note_on,800,0,7,,,,,,,,5,,,,61,30
1960,note_off,0,0,1,,,,,,,,12,,,,64,64
1960,note_off,400,0,1,,,,,,,,12,,,,68,64
1960,note_off,0,0,1,,,,,,,,12,,,,61,64
1980,note_off,180,0,6,,,,,,,,4,,,,64,64
1980,note_on,0,0,8,,,,,,,,8,,,,69,30
1980,note_off,180,0,8,,,,,,,,8,,,,68,64
1980,note_on,0,0,6,,,,,,,,4,,,,66,30
1980,note_off,180,0,9,,,,,,,,10,,,,64,64
1980,note_on,0,0,5,,,,,,,,3,,,,69,30
1980,note_off,180,0,5,,,,,,,,3,,,,68,64
1980,note_on,0,0,9,,,,,,,,10,,,,66,30
2035,note_off,0,0,2,,,,,,,,13,,,,37,64
2035,note_off,235,0,7,,,,,,,,5,,,,61,64
2035,note_off,235,0,2,,,,,,,,13,,,,49,64
2035,note_off,235,0,10,,,,,,,,11,,,,61,64
2040,note_off,60,0,8,,,,,,,,8,,,,69,64
2040,note_on,0,0,2,,,,,,,,13,,,,49,45
2040,note_on,0,0,8,,,,,,,,8,,,,68,30
2040,note_on,5,0,10,,,,,,,,11,,,,61,30
2040,note_on,0,0,4,,,,,,,,2,,,,76,45
2040,note_off,480,0,4,,,,,,,,2,,,,80,64
2040,note_on,5,0,7,,,,,,,,5,,,,61,30
2040,note_off,480,0,3,,,,,,,,1,,,,80,64
2040,note_on,0,0,3,,,,,,,,1,,,,76,60
2040,note_on,5,0,2,,,,,,,,13,,,,37,45
2040,note_off,60,0,9,,,,,,,,10,,,,66,64
2040,note_off,60,0,6,,,,,,,,4,,,,66,64
2040,note_on,0,0,5,,,,,,,,3,,,,68,30
2040,note_off,60,0,5,,,,,,,,3,,,,69,64
2040,note_on,0,0,9,,,,,,,,10,,,,64,30
2040,note_on,0,0,6,,,,,,,,4,,,,64,30
2220,note_on,0,0,5,,,,,,,,3,,,,69,30
2220,note_off,180,0,9,,,,,,,,10,,,,64,64
2220,note_on,0,0,9,,,,,,,,10,,,,66,30
2220,note_on,0,0,8,,,,,,,,8,,,,69,30
2220,note_off,180,0,5,,,,,,,,3,,,,68,64
2220,note_on,0,0,6,,,,,,,,4,,,,66,30
2220,note_off,180,0,8,,,,,,,,8,,,,68,64
2220,note_off,180,0,6,,,,,,,,4,,,,64,64
2280,note_on,0,0,8,,,,,,,,8,,,,68,30
2280,note_off,60,0,8,,,,,,,,8,,,,69,64
2280,note_off,60,0,6,,,,,,,,4,,,,66,64
2280,note_on,0,0,6,,,,,,,,4,,,,64,30
2280,note_on,0,0,9,,,,,,,,10,,,,64,30
2280,note_on,0,0,5,,,,,,,,3,,,,68,30
2280,note_off,60,0,5,,,,,,,,3,,,,69,64
2280,note_off,60,0,9,,,,,,,,10,,,,66,64
2440,note_off,400,0,7,,,,,,,,5,,,,61,64
2440,note_off,400,0,10,,,,,,,,11,,,,61,64
2440,note_off,400,0,2,,,,,,,,13,,,,49,64
2440,note_off,0,0,2,,,,,,,,13,,,,37,64
2460,note_on,0,0,9,,,,,,,,10,,,,66,30
2460,note_on,0,0,5,,,,,,,,3,,,,69,30
2460,set_tempo,900,1,0,1621621,,,,,,,,,,,,
2460,note_off,180,0,8,,,,,,,,8,,,,68,64
2460,note_off,180,0,9,,,,,,,,10,,,,64,64
2460,note_off,180,0,5,,,,,,,,3,,,,68,64
2460,note_on,0,0,6,,,,,,,,4,,,,66,30
2460,note_off,180,0,6,,,,,,,,4,,,,64,64
2460,note_on,0,0,8,,,,,,,,8,,,,69,30
2520,note_on,0,0,6,,,,,,,,4,,,,64,30
2520,note_off,60,0,6,,,,,,,,4,,,,66,64
2520,note_off,60,0,5,,,,,,,,3,,,,69,64
2520,note_on,0,0,5,,,,,,,,3,,,,68,30
2520,note_off,60,0,9,,,,,,,,10,,,,66,64
2520,note_on,0,0,3,,,,,,,,1,,,,73,60
2520,note_off,480,0,3,,,,,,,,1,,,,76,64
2520,note_on,0,0,8,,,,,,,,8,,,,68,30
2520,note_off,480,0,4,,,,,,,,2,,,,76,64
2520,note_on,0,0,4,,,,,,,,2,,,,73,45
2520,note_on,0,0,9,,,,,,,,10,,,,64,30
2520,note_off,60,0,8,,,,,,,,8,,,,69,64
2700,set_tempo,240,1,0,1714285,,,,,,,,,,,,
2700,note_on,0,0,8,,,,,,,,8,,,,73,30
2700,note_off,180,0,8,,,,,,,,8,,,,68,64
2700,note_off,180,0,6,,,,,,,,4,,,,64,64
2700,note_on,0,0,6,,,,,,,,4,,,,69,30
2700,note_on,0,0,5,,,,,,,,3,,,,73,30
2700,note_off,180,0,5,,,,,,,,3,,,,68,64
2700,note_on,0,0,9,,,,,,,,10,,,,69,30
2700,note_off,180,0,9,,,,,,,,10,,,,64,64
2760,note_off,60,0,8,,,,,,,,8,,,,73,64
2760,note_off,60,0,6,,,,,,,,4,,,,69,64
2760,note_off,60,0,9,,,,,,,,10,,,,69,64
2760,note_off,60,0,5,,,,,,,,3,,,,73,64
2760,note_on,0,0,5,,,,,,,,3,,,,71,30
2760,note_on,0,0,6,,,,,,,,4,,,,68,30
2760,note_on,0,0,9,,,,,,,,10,,,,68,30
2760,set_tempo,60,1,0,1818181,,,,,,,,,,,,
2760,note_on,0,0,8,,,,,,,,8,,,,71,30
2940,note_on,0,0,9,,,,,,,,10,,,,66,30
2940,note_off,180,0,9,,,,,,,,10,,,,68,64
2940,note_on,0,0,8,,,,,,,,8,,,,69,30
2940,note_off,180,0,8,,,,,,,,8,,,,71,64
2940,note_off,180,0,6,,,,,,,,4,,,,68,64
2940,note_off,180,0,5,,,,,,,,3,,,,71,64
2940,note_on,0,0,5,,,,,,,,3,,,,69,30
2940,note_on,0,0,6,,,,,,,,4,,,,66,30
3000,set_tempo,240,1,0,1500000,,,,,,,,,,,,
3000,note_off,480,0,4,,,,,,,,2,,,,73,64
3000,note_on,0,0,8,,,,,,,,8,,,,68,30
3000,note_off,60,0,8,,,,,,,,8,,,,69,64
3000,note_on,0,0,1,,,,,,,,12,,,,64,45
3000,note_on,1040,0,1,,,,,,,,12,,,,61,45
3000,note_off,60,0,9,,,,,,,,10,,,,66,64
3000,note_off,480,0,3,,,,,,,,1,,,,73,64
3000,note_on,0,0,3,,,,,,,,1,,,,80,53
3000,note_on,0,0,5,,,,,,,,3,,,,68,30
3000,note_on,0,0,1,,,,,,,,12,,,,68,45
3000,note_on,0,0,4,,,,,,,,2,,,,80,38
3000,note_on,0,0,9,,,,,,,,10,,,,64,30
3000,note_off,60,0,5,,,,,,,,3,,,,69,64
3000,note_off,60,0,6,,,,,,,,4,,,,66,64
3000,note_on,0,0,6,,,,,,,,4,,,,64,30
3180,note_off,180,0,6,,,,,,,,4,,,,64,64
3180,note_on,0,0,9,,,,,,,,10,,,,66,30
3180,note_off,180,0,9,,,,,,,,10,,,,64,64
3180,note_on,0,0,8,,,,,,,,8,,,,69,30
3180,note_off,180,0,8,,,,,,,,8,,,,68,64
3180,note_off,180,0,5,,,,,,,,3,,,,68,64
3180,note_on,0,0,5,,,,,,,,3,,,,69,30
3180,note_on,0,0,6,,,,,,,,4,,,,66,30
3240,note_off,60,0,6,,,,,,,,4,,,,66,64
3240,note_on,800,0,10,,,,,,,,11,,,,61,30
3240,note_off,60,0,9,,,,,,,,10,,,,66,64
3240,note_on,0,0,5,,,,,,,,3,,,,68,30
3240,note_off,60,0,5,,,,,,,,3,,,,69,64
3240,note_off,60,0,8,,,,,,,,8,,,,69,64
3240,note_on,0,0,8,,,,,,,,8,,,,68,30
3240,note_on,0,0,6,,,,,,,,4,,,,64,30
3240,note_on,0,0,9,,,,,,,,10,,,,64,30
3240,note_on,0,0,3,,,,,,,,1,,,,78,49
3240,note_on,800,0,7,,,,,,,,5,,,,61,30
3240,note_on,0,0,4,,,,,,,,2,,,,78,34
3240,note_on,800,0,2,,,,,,,,13,,,,37,45
3240,note_off,240,0,3,,,,,,,,1,,,,80,64
3240,note_on,0,0,2,,,,,,,,13,,,,49,45
3240,note_off,240,0,4,,,,,,,,2,,,,80,64
3400,note_off,0,0,1,,,,,,,,12,,,,64,64
3400,note_off,0,0,1,,,,,,,,12,,,,61,64
3400,note_off,400,0,1,,,,,,,,12,,,,68,64
3420,note_on,0,0,5,,,,,,,,3,,,,69,30
3420,note_off,180,0,9,,,,,,,,10,,,,64,64
3420,note_on,0,0,8,,,,,,,,8,,,,69,30
3420,note_off,180,0,8,,,,,,,,8,,,,68,64
3420,note_on,0,0,9,,,,,,,,10,,,,66,30
3420,note_on,0,0,6,,,,,,,,4,,,,66,30
3420,note_off,180,0,6,,,,,,,,4,,,,64,64
3420,note_off,180,0,5,,,,,,,,3,,,,68,64
3475,note_off,235,0,10,,,,,,,,11,,,,61,64
3475,note_off,235,0,7,,,,,,,,5,,,,61,64
3475,note_off,235,0,2,,,,,,,,13,,,,49,64
3475,note_off,0,0,2,,,,,,,,13,,,,37,64
3480,note_on,0,0,3,,,,,,,,1,,,,80,45
3480,note_on,0,0,4,,,,,,,,2,,,,80,30
3480,note_on,0,0,6,,,,,,,,4,,,,64,30
3480,note_on,5,0,7,,,,,,,,5,,,,61,30
3480,note_off,240,0,4,,,,,,,,2,,,,78,64
3480,note_on,5,0,10,,,,,,,,11,,,,61,30
3480,note_off,240,0,3,,,,,,,,1,,,,78,64
3480,note_on,0,0,9,,,,,,,,10,,,,64,30
3480,note_off,60,0,6,,,,,,,,4,,,,66,64
3480,note_on,80,0,1,,,,,,,,12,,,,61,45
3480,note_off,60,0,9,,,,,,,,10,,,,66,64
3480,note_on,0,0,5,,,,,,,,3,,,,68,30
3480,note_on,5,0,2,,,,,,,,13,,,,37,45
3480,note_on,0,0,2,,,,,,,,13,,,,49,45
3480,note_off,60,0,8,,,,,,,,8,,,,69,64
3480,note_on,0,0,8,,,,,,,,8,,,,68,30
3480,note_off,60,0,5,,,,,,,,3,,,,69,64
3660,note_on,0,0,9,,,,,,,,10,,,,66,30
3660,note_off,180,0,9,,,,,,,,10,,,,64,64
3660,note_on,0,0,8,,,,,,,,8,,,,69,30
3660,note_on,0,0,5,,,,,,,,3,,,,69,30
3660,note_off,180,0,6,,,,,,,,4,,,,64,64
3660,note_off,180,0,5,,,,,,,,3,,,,68,64
3660,note_off,180,0,8,,,,,,,,8,,,,68,64
3660,note_on,0,0,6,,,,,,,,4,,,,66,30
3715,note_off,235,0,1,,,,,,,,12,,,,61,64
3720,note_off,60,0,5,,,,,,,,3,,,,69,64
3720,note_off,60,0,6,,,,,,,,4,,,,66,64
3720,note_on,0,0,6,,,,,,,,4,,,,64,30
3720,note_on,0,0,5,,,,,,,,3,,,,68,30
3720,note_off,60,0,8,,,,,,,,8,,,,69,64
3720,set_tempo,720,1,0,1621621,,,,,,,,,,,,
3720,note_on,0,0,9,,,,,,,,10,,,,64,30
3720,note_on,5,0,1,,,,,,,,12,,,,64,45
3720,note_off,60,0,9,,,,,,,,10,,,,66,64
3720,note_on,0,0,8,,,,,,,,8,,,,68,30
3880,note_off,400,0,7,,,,,,,,5,,,,61,64
3880,note_off,400,0,10,,,,,,,,11,,,,61,64
3880,note_off,400,0,2,,,,,,,,13,,,,49,64
3880,note_off,0,0,2,,,,,,,,13,,,,37,64
3900,note_off,180,0,8,,,,,,,,8,,,,68,64
3900,note_on,0,0,6,,,,,,,,4,,,,66,30
3900,note_off,180,0,6,,,,,,,,4,,,,64,64
3900,note_on,0,0,9,,,,,,,,10,,,,66,30
3900,note_off,180,0,9,,,,,,,,10,,,,64,64
3900,note_on,0,0,5,,,,,,,,3,,,,69,30
3900,note_off,180,0,5,,,,,,,,3,,,,68,64
3900,note_on,0,0,8,,,,,,,,8,,,,69,30
3955,note_off,235,0,1,,,,,,,,12,,,,64,64
3960,set_tempo,240,1,0,1764705,,,,,,,,,,,,
3960,note_on,0,0,8,,,,,,,,8,,,,68,30
3960,note_off,60,0,9,,,,,,,,10,,,,66,64
3960,note_off,60,0,6,,,,,,,,4,,,,66,64
3960,note_on,0,0,6,,,,,,,,4,,,,64,30
3960,note_on,0,0,9,,,,,,,,10,,,,64,30
3960,note_on,0,0,5,,,,,,,,3,,,,68,30
3960,note_off,60,0,8,,,,,,,,8,,,,69,64
3960,note_off,60,0,5,,,,,,,,3,,,,69,64
3960,note_on,5,0,1,,,,,,,,12,,,,68,45
4140,note_off,180,0,8,,,,,,,,8,,,,68,64
4140,note_off,180,0,6,,,,,,,,4,,,,64,64
4140,note_on,0,0,6,,,,,,,,4,,,,66,30
4140,note_off,180,0,5,,,,,,,,3,,,,68,64
4140,note_on,0,0,9,,,,,,,,10,,,,66,30
4140,note_off,180,0,9,,,,,,,,10,,,,64,64
4140,note_on,0,0,8,,,,,,,,8,,,,69,30
4140,note_on,0,0,5,,,,,,,,3,,,,69,30
4195,note_off,235,0,1,,,,,,,,12,,,,68,64
4200,note_on,0,0,5,,,,,,,,3,,,,72,30
4200,note_on,0,0,6,,,,,,,,4,,,,68,30
4200,set_tempo,240,1,0,1935483,,,,,,,,,,,,
4200,note_on,5,0,1,,,,,,,,12,,,,72,45
4200,note_off,60,0,9,,,,,,,,10,,,,66,64
4200,note_on,0,0,9,,,,,,,,10,,,,68,30
4200,note_on,0,0,8,,,,,,,,8,,,,72,30
4200,note_off,60,0,8,,,,,,,,8,,,,69,64
4200,note_off,60,0,6,,,,,,,,4,,,,66,64
4200,note_off,60,0,5,,,,,,,,3,,,,69,64
4320,note_off,840,0,4,,,,,,,,2,,,,80,64
4320,note_off,840,0,3,,,,,,,,1,,,,80,64
4380,note_off,180,0,9,,,,,,,,10,,,,68,64
4380,note_off,180,0,5,,,,,,,,3,,,,72,64
4380,note_on,0,0,5,,,,,,,,3,,,,73,30
4380,note_on,0,0,8,,,,,,,,8,,,,73,30
4380,note_on,0,0,6,,,,,,,,4,,,,69,30
4380,note_off,180,0,8,,,,,,,,8,,,,72,64
4380,note_off,180,0,6,,,,,,,,4,,,,68,64
4380,note_on,0,0,9,,,,,,,,10,,,,69,30
4435,note_off,55,0,6,,,,,,,,4,,,,69,64
4435,note_off,55,0,5,,,,,,,,3,,,,73,64
4435,note_off,55,0,8,,,,,,,,8,,,,73,64
4435,note_off,235,0,1,,,,,,,,12,,,,72,64
4435,note_off,55,0,9,,,,,,,,10,,,,69,64
4440,note_on,120,0,4,,,,,,,,2,,,,72,30
4440,note_on,5,0,9,,,,,,,,10,,,,72,30
4440,note_on,5,0,6,,,,,,,,4,,,,72,30
4440,note_on,5,0,5,,,,,,,,3,,,,75,30
4440,set_tempo,240,1,0,1500000,,,,,,,,,,,,
4440,note_on,5,0,8,,,,,,,,8,,,,75,30
4440,note_on,5,0,1,,,,,,,,12,,,,63,45
4440,note_on,120,0,3,,,,,,,,1,,,,72,45
4440,note_on,0,0,1,,,,,,,,12,,,,66,45
4440,note_on,0,0,1,,,,,,,,12,,,,72,45
4615,note_off,175,0,5,,,,,,,,3,,,,75,64
4615,note_off,175,0,8,,,,,,,,8,,,,75,64
4615,note_off,175,0,6,,,,,,,,4,,,,72,64
4615,note_off,175,0,9,,,,,,,,10,,,,72,64
4620,note_on,5,0,8,,,,,,,,8,,,,76,30
4620,note_on,5,0,5,,,,,,,,3,,,,76,30
4620,note_on,5,0,6,,,,,,,,4,,,,73,30
4620,note_on,5,0,9,,,,,,,,10,,,,73,30
4680,note_off,60,0,6,,,,,,,,4,,,,73,64
4680,note_off,60,0,8,,,,,,,,8,,,,76,64
4680,note_on,0,0,2,,,,,,,,13,,,,44,45
4680,note_on,800,0,2,,,,,,,,13,,,,32,45
4680,note_on,0,0,8,,,,,,,,8,,,,75,30
4680,note_on,0,0,6,,,,,,,,4,,,,72,30
4680,note_on,0,0,9,,,,,,,,10,,,,72,30
4680,note_off,60,0,5,,,,,,,,3,,,,76,64
4680,note_off,60,0,9,,,,,,,,10,,,,73,64
4680,note_on,800,0,7,,,,,,,,5,,,,56,30
4680,note_on,0,0,5,,,,,,,,3,,,,75,30
4680,note_on,800,0,10,,,,,,,,11,,,,56,30
4840,note_off,0,0,1,,,,,,,,12,,,,63,64
4840,note_off,0,0,1,,,,,,,,12,,,,66,64
4840,note_off,400,0,1,,,,,,,,12,,,,72,64
4860,note_on,0,0,6,,,,,,,,4,,,,73,30
4860,note_off,180,0,6,,,,,,,,4,,,,72,64
4860,note_off,180,0,5,,,,,,,,3,,,,75,64
4860,note_on,0,0,5,,,,,,,,3,,,,76,30
4860,note_on,0,0,8,,,,,,,,8,,,,76,30
4860,note_off,180,0,8,,,,,,,,8,,,,75,64
4860,note_on,0,0,9,,,,,,,,10,,,,73,30
4860,note_off,180,0,9,,,,,,,,10,,,,72,64
4915,note_off,235,0,10,,,,,,,,11,,,,56,64
4915,note_off,235,0,7,,,,,,,,5,,,,56,64
4915,note_off,235,0,2,,,,,,,,13,,,,44,64
4915,note_off,0,0,2,,,,,,,,13,,,,32,64
4920,note_off,60,0,8,,,,,,,,8,,,,76,64
4920,note_on,0,0,2,,,,,,,,13,,,,44,45
4920,note_off,60,0,9,,,,,,,,10,,,,73,64
4920,note_on,0,0,8,,,,,,,,8,,,,75,30
4920,note_off,60,0,5,,,,,,,,3,,,,76,64
4920,note_on,5,0,10,,,,,,,,11,,,,56,30
4920,note_on,5,0,2,,,,,,,,13,,,,32,45
4920,note_on,0,0,5,,,,,,,,3,,,,75,30
4920,note_on,0,0,9,,,,,,,,10,,,,72,30
4920,note_on,5,0,7,,,,,,,,5,,,,56,30
4920,note_off,60,0,6,,,,,,,,4,,,,73,64
4920,note_on,0,0,6,,,,,,,,4,,,,72,30
4920,note_on,0,0,3,,,,,,,,1,,,,75,45
4920,note_on,0,0,4,,,,,,,,2,,,,75,30
4920,note_off,480,0,4,,,,,,,,2,,,,72,64
4920,note_off,480,0,3,,,,,,,,1,,,,72,64
5100,note_on,0,0,5,,,,,,,,3,,,,76,30
5100,note_off,180,0,9,,,,,,,,10,,,,72,64
5100,note_on,0,0,9,,,,,,,,10,,,,73,30
5100,note_off,180,0,6,,,,,,,,4,,,,72,64
5100,note_on,0,0,6,,,,,,,,4,,,,73,30
5100,note_on,0,0,8,,,,,,,,8,,,,76,30
5100,note_off,180,0,8,,,,,,,,8,,,,75,64
5100,note_off,180,0,5,,,,,,,,3,,,,75,64
5160,note_off,60,0,6,,,,,,,,4,,,,73,64
5160,note_on,0,0,5,,,,,,,,3,,,,75,30
5160,note_off,60,0,9,,,,,,,,10,,,,73,64
5160,note_on,0,0,9,,,,,,,,10,,,,72,30
5160,note_on,0,0,6,,,,,,,,4,,,,72,30
5160,note_off,60,0,5,,,,,,,,3,,,,76,64
5160,note_off,60,0,8,,,,,,,,8,,,,76,64
5160,note_on,0,0,8,,,,,,,,8,,,,75,30
5320,note_off,400,0,7,,,,,,,,5,,,,56,64
5320,note_off,400,0,10,,,,,,,,11,,,,56,64
5320,note_off,400,0,2,,,,,,,,13,,,,44,64
5320,note_off,0,0,2,,,,,,,,13,,,,32,64
5340,note_off,180,0,9,,,,,,,,10,,,,72,64
5340,note_on,0,0,8,,,,,,,,8,,,,76,30
5340,note_on,0,0,9,,,,,,,,10,,,,73,30
5340,note_on,0,0,6,,,,,,,,4,,,,73,30
5340,note_off,180,0,6,,,,,,,,4,,,,72,64
5340,note_off,180,0,8,,,,,,,,8,,,,75,64
5340,note_off,180,0,5,,,,,,,,3,,,,75,64
5340,note_on,0,0,5,,,,,,,,3,,,,76,30
5400,note_on,0,0,3,,,,,,,,1,,,,80,50
5400,note_off,480,0,4,,,,,,,,2,,,,75,64
5400,note_on,0,0,4,,,,,,,,2,,,,80,35
5400,note_off,60,0,9,,,,,,,,10,,,,73,64
5400,note_on,0,0,9,,,,,,,,10,,,,72,30
5400,note_off,60,0,5,,,,,,,,3,,,,76,64
5400,note_on,0,0,6,,,,,,,,4,,,,72,30
5400,note_off,60,0,6,,,,,,,,4,,,,73,64
5400,note_off,480,0,3,,,,,,,,1,,,,75,64
5400,note_on,0,0,8,,,,,,,,8,,,,75,30
5400,note_on,0,0,5,,,,,,,,3,,,,75,30
5400,note_off,60,0,8,,,,,,,,8,,,,76,64
5580,note_on,0,0,5,,,,,,,,3,,,,80,30
5580,note_off,180,0,5,,,,,,,,3,,,,75,64
5580,note_on,0,0,6,,,,,,,,4,,,,76,30
5580,note_on,0,0,8,,,,,,,,8,,,,80,30
5580,note_off,180,0,8,,,,,,,,8,,,,75,64
5580,note_off,180,0,9,,,,,,,,10,,,,72,64
5580,note_on,0,0,9,,,,,,,,10,,,,76,30
5580,note_off,180,0,6,,,,,,,,4,,,,72,64
5640,note_off,60,0,9,,,,,,,,10,,,,76,64
5640,note_on,0,0,8,,,,,,,,8,,,,78,30
5640,note_on,0,0,9,,,,,,,,10,,,,75,30
5640,note_on,0,0,6,,,,,,,,4,,,,75,30
5640,note_off,60,0,5,,,,,,,,3,,,,80,64
5640,note_on,0,0,5,,,,,,,,3,,,,78,30
5640,note_off,60,0,8,,,,,,,,8,,,,80,64
5640,note_off,60,0,6,,,,,,,,4,,,,76,64
5820,note_off,180,0,8,,,,,,,,8,,,,78,64
5820,note_on,0,0,8,,,,,,,,8,,,,76,30
5820,note_on,0,0,5,,,,,,,,3,,,,76,30
5820,note_off,180,0,5,,,,,,,,3,,,,78,64
5820,note_off,180,0,9,,,,,,,,10,,,,75,64
5820,note_on,0,0,9,,,,,,,,10,,,,73,30
5820,note_off,180,0,6,,,,,,,,4,,,,75,64
5820,note_on,0,0,6,,,,,,,,4,,,,73,30
5880,note_off,60,0,8,,,,,,,,8,,,,76,64
5880,note_on,0,0,4,,,,,,,,2,,,,84,40
5880,note_off,480,0,4,,,,,,,,2,,,,80,64
5880,note_on,0,0,8,,,,,,,,8,,,,75,30
5880,note_off,480,0,3,,,,,,,,1,,,,80,64
5880,note_on,0,0,5,,,,,,,,3,,,,75,30
5880,note_off,60,0,6,,,,,,,,4,,,,73,64
5880,note_off,60,0,5,,,,,,,,3,,,,76,64
5880,note_on,0,0,1,,,,,,,,12,,,,72,45
5880,note_on,0,0,1,,,,,,,,12,,,,66,45
5880,note_on,1040,0,1,,,,,,,,12,,,,63,45
5880,note_on,0,0,9,,,,,,,,10,,,,72,30
5880,note_off,60,0,9,,,,,,,,10,,,,73,64
5880,note_on,0,0,3,,,,,,,,1,,,,84,55
5880,note_on,0,0,6,,,,,,,,4,,,,72,30
6060,note_on,0,0,6,,,,,,,,4,,,,73,30
6060,note_on,0,0,5,,,,,,,,3,,,,76,30
6060,note_off,180,0,6,,,,,,,,4,,,,72,64
6060,note_on,0,0,8,,,,,,,,8,,,,76,30
6060,note_off,180,0,8,,,,,,,,8,,,,75,64
6060,note_on,0,0,9,,,,,,,,10,,,,73,30
6060,note_off,180,0,9,,,,,,,,10,,,,72,64
6060,note_off,180,0,5,,,,,,,,3,,,,75,64
6120,note_on,0,0,2,,,,,,,,13,,,,44,45
6120,note_off,60,0,8,,,,,,,,8,,,,76,64
6120,note_on,0,0,9,,,,,,,,10,,,,72,30
6120,note_on,0,0,4,,,,,,,,2,,,,82,42
6120,note_off,240,0,4,,,,,,,,2,,,,84,64
6120,note_on,0,0,5,,,,,,,,3,,,,75,30
6120,note_off,60,0,5,,,,,,,,3,,,,76,64
6120,note_off,60,0,9,,,,,,,,10,,,,73,64
6120,note_on,800,0,7,,,,,,,,5,,,,56,30
6120,note_on,800,0,10,,,,,,,,11,,,,56,30
6120,note_on,800,0,2,,,,,,,,13,,,,32,45
6120,note_on,0,0,8,,,,,,,,8,,,,75,30
6120,note_on,0,0,6,,,,,,,,4,,,,72,30
6120,note_on,0,0,3,,,,,,,,1,,,,82,57
6120,note_off,240,0,3,,,,,,,,1,,,,84,64
6120,note_off,60,0,6,,,,,,,,4,,,,73,64
6280,note_off,400,0,1,,,,,,,,12,,,,72,64
6280,note_off,0,0,1,,,,,,,,12,,,,66,64
6280,note_off,0,0,1,,,,,,,,12,,,,63,64
6300,note_off,180,0,6,,,,,,,,4,,,,72,64
6300,note_on,0,0,6,,,,,,,,4,,,,73,30
6300,note_off,180,0,5,,,,,,,,3,,,,75,64
6300,note_off,180,0,8,,,,,,,,8,,,,75,64
6300,note_on,0,0,5,,,,,,,,3,,,,76,30
6300,note_on,0,0,9,,,,,,,,10,,,,73,30
6300,note_on,0,0,8,,,,,,,,8,,,,76,30
6300,note_off,180,0,9,,,,,,,,10,,,,72,64
6355,note_off,235,0,2,,,,,,,,13,,,,44,64
6355,note_off,235,0,7,,,,,,,,5,,,,56,64
6355,note_off,0,0,2,,,,,,,,13,,,,32,64
6355,note_off,235,0,10,,,,,,,,11,,,,56,64
6360,note_on,0,0,9,,,,,,,,10,,,,72,30
6360,note_on,5,0,7,,,,,,,,5,,,,56,30
6360,note_on,80,0,1,,,,,,,,12,,,,63,45
6360,note_on,5,0,2,,,,,,,,13,,,,32,45
6360,note_on,0,0,2,,,,,,,,13,,,,44,45
6360,note_off,240,0,4,,,,,,,,2,,,,82,64
6360,note_off,60,0,8,,,,,,,,8,,,,76,64
6360,note_off,60,0,9,,,,,,,,10,,,,73,64
6360,note_off,60,0,5,,,,,,,,3,,,,76,64
6360,note_off,60,0,6,,,,,,,,4,,,,73,64
6360,set_tempo,1920,1,0,1621621,,,,,,,,,,,,
6360,note_on,5,0,10,,,,,,,,11,,,,56,30
6360,note_on,0,0,4,,,,,,,,2,,,,80,45
6360,note_on,0,0,6,,,,,,,,4,,,,72,30
6360,note_on,0,0,3,,,,,,,,1,,,,80,60
6360,note_on,0,0,8,,,,,,,,8,,,,75,30
6360,note_off,240,0,3,,,,,,,,1,,,,82,64
6360,note_on,0,0,5,,,,,,,,3,,,,75,30
6540,note_off,180,0,6,,,,,,,,4,,,,72,64
6540,note_on,0,0,5,,,,,,,,3,,,,76,30
6540,note_on,0,0,9,,,,,,,,10,,,,73,30
6540,note_on,0,0,6,,,,,,,,4,,,,73,30
6540,note_off,180,0,5,,,,,,,,3,,,,75,64
6540,note_on,0,0,8,,,,,,,,8,,,,76,30
6540,note_off,180,0,8,,,,,,,,8,,,,75,64
6540,note_off,180,0,9,,,,,,,,10,,,,72,64
6595,note_off,235,0,1,,,,,,,,12,,,,63,64
6600,note_on,5,0,1,,,,,,,,12,,,,66,45
6600,note_on,0,0,6,,,,,,,,4,,,,72,30
6600,note_off,60,0,9,,,,,,,,10,,,,73,64
6600,note_on,0,0,9,,,,,,,,10,,,,72,30
6600,note_on,0,0,8,,,,,,,,8,,,,75,30
6600,note_off,60,0,8,,,,,,,,8,,,,76,64
6600,note_off,60,0,5,,,,,,,,3,,,,76,64
6600,note_on,0,0,5,,,,,,,,3,,,,75,30
6600,set_tempo,240,1,0,1714285,,,,,,,,,,,,
6600,note_off,60,0,6,,,,,,,,4,,,,73,64
6760,note_off,0,0,2,,,,,,,,13,,,,32,64
6760,note_off,400,0,7,,,,,,,,5,,,,56,64
6760,note_off,400,0,10,,,,,,,,11,,,,56,64
6760,note_off,400,0,2,,,,,,,,13,,,,44,64
6780,note_on,0,0,9,,,,,,,,10,,,,73,30
6780,note_on,0,0,6,,,,,,,,4,,,,73,30
6780,note_off,180,0,6,,,,,,,,4,,,,72,64
6780,note_off,180,0,9,,,,,,,,10,,,,72,64
6780,note_off,180,0,5,,,,,,,,3,,,,75,64
6780,note_on,0,0,5,,,,,,,,3,,,,76,30
6780,note_on,0,0,8,,,,,,,,8,,,,76,30
6780,note_off,180,0,8,,,,,,,,8,,,,75,64
6835,note_off,235,0,1,,,,,,,,12,,,,66,64
6840,set_tempo,240,1,0,1818181,,,,,,,,,,,,
6840,note_on,0,0,8,,,,,,,,8,,,,75,30
6840,note_off,60,0,8,,,,,,,,8,,,,76,64
6840,note_on,0,0,6,,,,,,,,4,,,,72,30
6840,note_on,0,0,5,,,,,,,,3,,,,75,30
6840,note_on,5,0,1,,,,,,,,12,,,,72,45
6840,note_on,0,0,9,,,,,,,,10,,,,72,30
6840,note_off,60,0,9,,,,,,,,10,,,,73,64
6840,note_off,60,0,6,,,,,,,,4,,,,73,64
6840,note_off,60,0,5,,,,,,,,3,,,,76,64
7020,note_on,0,0,5,,,,,,,,3,,,,80,30
7020,note_off,180,0,5,,,,,,,,3,,,,75,64
7020,note_off,180,0,6,,,,,,,,4,,,,72,64
7020,note_off,180,0,8,,,,,,,,8,,,,75,64
7020,note_on,0,0,8,,,,,,,,8,,,,80,30
7020,note_on,0,0,6,,,,,,,,4,,,,76,30
7020,note_off,180,0,9,,,,,,,,10,,,,72,64
7020,note_on,0,0,9,,,,,,,,10,,,,76,30
7075,note_off,235,0,1,,,,,,,,12,,,,72,64
7080,note_off,60,0,5,,,,,,,,3,,,,80,64
7080,set_tempo,240,1,0,1935483,,,,,,,,,,,,
7080,note_on,0,0,9,,,,,,,,10,,,,75,30
7080,note_off,60,0,9,,,,,,,,10,,,,76,64
7080,note_off,60,0,6,,,,,,,,4,,,,76,64
7080,note_on,0,0,6,,,,,,,,4,,,,75,30
7080,note_off,60,0,8,,,,,,,,8,,,,80,64
7080,note_on,0,0,8,,,,,,,,8,,,,78,30
7080,note_on,5,0,1,,,,,,,,12,,,,75,45
7080,note_on,0,0,5,,,,,,,,3,,,,78,30
7200,note_off,840,0,4,,,,,,,,2,,,,80,64
7200,note_off,840,0,3,,,,,,,,1,,,,80,64
7255,note_off,175,0,5,,,,,,,,3,,,,78,64
7255,note_off,175,0,8,,,,,,,,8,,,,78,64
7255,note_off,175,0,9,,,,,,,,10,,,,75,64
7255,note_off,175,0,6,,,,,,,,4,,,,75,64
7260,note_on,5,0,9,,,,,,,,10,,,,73,30
7260,note_on,5,0,6,,,,,,,,4,,,,73,30
7260,note_on,5,0,8,,,,,,,,8,,,,76,30
7260,note_on,5,0,5,,,,,,,,3,,,,76,30
7315,note_off,55,0,9,,,,,,,,10,,,,73,64
7315,note_off,55,0,5,,,,,,,,3,,,,76,64
7315,note_off,55,0,8,,,,,,,,8,,,,76,64
7315,note_off,235,0,1,,,,,,,,12,,,,75,64
7315,note_off,55,0,6,,,,,,,,4,,,,73,64
7320,note_on,120,0,4,,,,,,,,2,,,,78,45
7320,note_on,5,0,8,,,,,,,,8,,,,75,30
7320,note_on,5,0,6,,,,,,,,4,,,,72,30
7320,note_on,5,0,1,,,,,,,,12,,,,66,45
7320,note_on,0,0,1,,,,,,,,12,,,,72,45
7320,note_on,0,0,1,,,,,,,,12,,,,75,45
7320,note_on,120,0,3,,,,,,,,1,,,,78,60
7320,note_on,5,0,9,,,,,,,,10,,,,72,30
7320,note_on,5,0,5,,,,,,,,3,,,,75,30
7320,set_tempo,240,1,0,1500000,,,,,,,,,,,,
7500,note_off,180,0,6,,,,,,,,4,,,,72,64
7500,note_off,180,0,9,,,,,,,,10,,,,72,64
7500,note_on,0,0,9,,,,,,,,10,,,,73,30
7500,note_on,0,0,5,,,,,,,,3,,,,76,30
7500,note_off,180,0,5,,,,,,,,3,,,,75,64
7500,note_off,180,0,8,,,,,,,,8,,,,75,64
7500,note_on,0,0,6,,,,,,,,4,,,,73,30
7500,note_on,0,0,8,,,,,,,,8,,,,76,30
7560,note_off,60,0,9,,,,,,,,10,,,,73,64
7560,note_on,0,0,2,,,,,,,,13,,,,44,45
7560,note_on,800,0,2,,,,,,,,13,,,,32,45
7560,note_off,60,0,6,,,,,,,,4,,,,73,64
7560,note_on,800,0,7,,,,,,,,5,,,,56,30
7560,note_on,0,0,6,,,,,,,,4,,,,72,30
7560,note_off,60,0,8,,,,,,,,8,,,,76,64
7560,note_on,0,0,8,,,,,,,,8,,,,75,30
7560,note_off,60,0,5,,,,,,,,3,,,,76,64
7560,note_on,0,0,5,,,,,,,,3,,,,75,30
7560,note_on,0,0,9,,,,,,,,10,,,,72,30
7560,note_on,800,0,10,,,,,,,,11,,,,56,30
7720,note_off,0,0,1,,,,,,,,12,,,,66,64
7720,note_off,0,0,1,,,,,,,,12,,,,72,64
7720,note_off,400,0,1,,,,,,,,12,,,,75,64
7740,note_off,180,0,8,,,,,,,,8,,,,75,64
7740,note_on,0,0,8,,,,,,,,8,,,,76,30
7740,note_on,0,0,9,,,,,,,,10,,,,73,30
7740,note_off,180,0,9,,,,,,,,10,,,,72,64
7740,note_off,180,0,5,,,,,,,,3,,,,75,64
7740,note_off,180,0,6,,,,,,,,4,,,,72,64
7740,note_on,0,0,5,,,,,,,,3,,,,76,30
7740,note_on,0,0,6,,,,,,,,4,,,,73,30
7795,note_off,0,0,2,,,,,,,,13,,,,32,64
7795,note_off,235,0,2,,,,,,,,13,,,,44,64
7795,note_off,235,0,7,,,,,,,,5,,,,56,64
7795,note_off,235,0,10,,,,,,,,11,,,,56,64
7800,note_on,0,0,6,,,,,,,,4,,,,72,30
7800,note_off,60,0,6,,,,,,,,4,,,,73,64
7800,note_on,0,0,8,,,,,,,,8,,,,75,30
7800,note_on,0,0,3,,,,,,,,1,,,,80,60
7800,note_on,5,0,10,,,,,,,,11,,,,56,30
7800,note_on,0,0,9,,,,,,,,10,,,,72,30
7800,note_off,60,0,9,,,,,,,,10,,,,73,64
7800,note_off,480,0,3,,,,,,,,1,,,,78,64
7800,note_on,0,0,4,,,,,,,,2,,,,80,45
7800,note_off,60,0,8,,,,,,,,8,,,,76,64
7800,note_off,480,0,4,,,,,,,,2,,,,78,64
7800,note_on,0,0,5,,,,,,,,3,,,,75,30
7800,note_on,5,0,7,,,,,,,,5,,,,56,30
7800,note_off,60,0,5,,,,,,,,3,,,,76,64
7800,note_on,0,0,2,,,,,,,,13,,,,44,45
7800,note_on,5,0,2,,,,,,,,13,,,,32,45
7980,note_off,180,0,5,,,,,,,,3,,,,75,64
7980,note_on,0,0,5,,,,,,,,3,,,,76,30
7980,note_on,0,0,8,,,,,,,,8,,,,76,30
7980,note_off,180,0,8,,,,,,,,8,,,,75,64
7980,note_on,0,0,9,,,,,,,,10,,,,73,30
7980,note_off,180,0,6,,,,,,,,4,,,,72,64
7980,note_off,180,0,9,,,,,,,,10,,,,72,64
7980,note_on,0,0,6,,,,,,,,4,,,,73,30
8040,note_on,0,0,9,,,,,,,,10,,,,72,30
8040,note_off,60,0,9,,,,,,,,10,,,,73,64
8040,note_off,60,0,6,,,,,,,,4,,,,73,64
8040,note_on,0,0,6,,,,,,,,4,,,,72,30
8040,note_off,60,0,8,,,,,,,,8,,,,76,64
8040,note_on,0,0,8,,,,,,,,8,,,,75,30
8040,note_on,0,0,5,,,,,,,,3,,,,75,30
8040,note_off,60,0,5,,,,,,,,3,,,,76,64
8200,note_off,400,0,10,,,,,,,,11,,,,56,64
8200,note_off,0,0,2,,,,,,,,13,,,,32,64
8200,note_off,400,0,7,,,,,,,,5,,,,56,64
8200,note_off,400,0,2,,,,,,,,13,,,,44,64
8220,note_on,0,0,8,,,,,,,,8,,,,76,30
8220,note_on,0,0,5,,,,,,,,3,,,,76,30
8220,note_off,180,0,5,,,,,,,,3,,,,75,64
8220,note_off,180,0,6,,,,,,,,4,,,,72,64
8220,note_off,180,0,8,,,,,,,,8,,,,75,64
8220,note_off,180,0,9,,,,,,,,10,,,,72,64
8220,note_on,0,0,9,,,,,,,,10,,,,73,30
8220,note_on,0,0,6,,,,,,,,4,,,,73,30
8280,note_on,0,0,3,,,,,,,,1,,,,75,60
8280,note_off,60,0,6,,,,,,,,4,,,,73,64
8280,note_on,0,0,6,,,,,,,,4,,,,72,30
8280,note_off,480,0,3,,,,,,,,1,,,,80,64
8280,note_on,0,0,4,,,,,,,,2,,,,75,45
8280,note_off,480,0,4,,,,,,,,2,,,,80,64
8280,note_off,60,0,5,,,,,,,,3,,,,76,64
8280,note_on,0,0,5,,,,,,,,3,,,,75,30
8280,note_on,0,0,9,,,,,,,,10,,,,72,30
8280,set_tempo,960,1,0,1764705,,,,,,,,,,,,
8280,note_off,60,0,8,,,,,,,,8,,,,76,64
8280,note_on,0,0,8,,,,,,,,8,,,,75,30
8280,note_off,60,0,9,,,,,,,,10,,,,73,64
8460,note_off,180,0,8,,,,,,,,8,,,,75,64
8460,note_off,180,0,6,,,,,,,,4,,,,72,64
8460,note_on,0,0,8,,,,,,,,8,,,,76,30
8460,note_on,0,0,9,,,,,,,,10,,,,73,30
8460,note_on,0,0,6,,,,,,,,4,,,,73,30
8460,note_off,180,0,9,,,,,,,,10,,,,72,64
8460,note_on,0,0,5,,,,,,,,3,,,,76,30
8460,note_off,180,0,5,,,,,,,,3,,,,75,64
8520,note_on,0,0,6,,,,,,,,4,,,,75,30
8520,note_off,60,0,5,,,,,,,,3,,,,76,64
8520,note_on,0,0,9,,,,,,,,10,,,,75,30
8520,note_off,60,0,9,,,,,,,,10,,,,73,64
8520,note_on,0,0,5,,,,,,,,3,,,,78,30
8520,note_off,60,0,6,,,,,,,,4,,,,73,64
8520,set_tempo,240,1,0,1875000,,,,,,,,,,,,
8520,note_on,0,0,8,,,,,,,,8,,,,78,30
8520,note_off,60,0,8,,,,,,,,8,,,,76,64
8700,note_on,0,0,6,,,,,,,,4,,,,72,30
8700,note_off,180,0,6,,,,,,,,4,,,,75,64
8700,note_off,180,0,9,,,,,,,,10,,,,75,64
8700,note_on,0,0,9,,,,,,,,10,,,,72,30
8700,note_off,180,0,8,,,,,,,,8,,,,78,64
8700,note_on,0,0,5,,,,,,,,3,,,,75,30
8700,note_on,0,0,8,,,,,,,,8,,,,75,30
8700,note_off,180,0,5,,,,,,,,3,,,,78,64
8760,note_on,0,0,1,,,,,,,,12,,,,64,45
8760,note_on,1040,0,1,,,,,,,,12,,,,61,45
8760,note_on,0,0,5,,,,,,,,3,,,,76,30
8760,note_on,0,0,6,,,,,,,,4,,,,73,30
8760,note_on,0,0,1,,,,,,,,12,,,,68,45
8760,note_off,480,0,4,,,,,,,,2,,,,75,64
8760,note_on,0,0,9,,,,,,,,10,,,,73,30
8760,note_off,60,0,9,,,,,,,,10,,,,72,64
8760,set_tempo,240,1,0,1578947,,,,,,,,,,,,
8760,note_off,60,0,5,,,,,,,,3,,,,75,64
8760,note_off,60,0,6,,,,,,,,4,,,,72,64
8760,note_on,0,0,4,,,,,,,,2,,,,76,40
8760,note_on,0,0,8,,,,,,,,8,,,,76,30
8760,note_off,480,0,3,,,,,,,,1,,,,75,64
8760,note_on,0,0,3,,,,,,,,1,,,,76,55
8760,note_off,60,0,8,,,,,,,,8,,,,75,64
8940,note_off,180,0,8,,,,,,,,8,,,,76,64
8940,note_on,0,0,8,,,,,,,,8,,,,78,30
8940,note_on,0,0,6,,,,,,,,4,,,,75,30
8940,note_off,180,0,9,,,,,,,,10,,,,73,64
8940,note_on,0,0,9,,,,,,,,10,,,,75,30
8940,note_off,180,0,6,,,,,,,,4,,,,73,64
8940,note_off,180,0,5,,,,,,,,3,,,,76,64
8940,note_on,0,0,5,,,,,,,,3,,,,78,30
9000,note_on,0,0,2,,,,,,,,13,,,,49,45
9000,note_on,0,0,8,,,,,,,,8,,,,76,30
9000,note_off,60,0,8,,,,,,,,8,,,,78,64
9000,note_on,800,0,7,,,,,,,,5,,,,61,30
9000,note_off,60,0,6,,,,,,,,4,,,,75,64
9000,note_on,0,0,6,,,,,,,,4,,,,73,30
9000,note_on,800,0,10,,,,,,,,11,,,,61,30
9000,note_on,800,0,2,,,,,,,,13,,,,37,45
9000,note_on,0,0,5,,,,,,,,3,,,,76,30
9000,note_off,60,0,5,,,,,,,,3,,,,78,64
9000,note_on,0,0,9,,,,,,,,10,,,,73,30
9000,note_off,60,0,9,,,,,,,,10,,,,75,64
9160,note_off,0,0,1,,,,,,,,12,,,,61,64
9160,note_off,0,0,1,,,,,,,,12,,,,64,64
9160,note_off,400,0,1,,,,,,,,12,,,,68,64
9180,note_on,0,0,9,,,,,,,,10,,,,75,30
9180,note_off,180,0,5,,,,,,,,3,,,,76,64
9180,note_on,0,0,5,,,,,,,,3,,,,78,30
9180,note_on,0,0,8,,,,,,,,8,,,,78,30
9180,note_off,180,0,8,,,,,,,,8,,,,76,64
9180,note_off,180,0,6,,,,,,,,4,,,,73,64
9180,note_on,0,0,6,,,,,,,,4,,,,75,30
9180,note_off,180,0,9,,,,,,,,10,,,,73,64
9235,note_off,235,0,7,,,,,,,,5,,,,61,64
9235,note_off,235,0,10,,,,,,,,11,,,,61,64
9235,note_off,235,0,2,,,,,,,,13,,,,49,64
9235,note_off,0,0,2,,,,,,,,13,,,,37,64
9240,note_off,60,0,9,,,,,,,,10,,,,75,64
9240,note_on,80,0,1,,,,,,,,12,,,,61,45
9240,note_on,0,0,9,,,,,,,,10,,,,73,30
9240,note_on,5,0,2,,,,,,,,13,,,,37,45
9240,note_on,0,0,2,,,,,,,,13,,,,49,45
9240,note_on,0,0,8,,,,,,,,8,,,,76,30
9240,note_off,60,0,8,,,,,,,,8,,,,78,64
9240,note_on,0,0,6,,,,,,,,4,,,,73,30
9240,note_off,60,0,6,,,,,,,,4,,,,75,64
9240,note_on,5,0,10,,,,,,,,11,,,,61,30
9240,note_off,60,0,5,,,,,,,,3,,,,78,64
9240,note_on,0,0,5,,,,,,,,3,,,,76,30
9240,note_on,5,0,7,,,,,,,,5,,,,61,30
9420,note_on,0,0,5,,,,,,,,3,,,,78,30
9420,note_on,0,0,8,,,,,,,,8,,,,78,30
9420,note_off,180,0,8,,,,,,,,8,,,,76,64
9420,note_off,180,0,6,,,,,,,,4,,,,73,64
9420,note_on,0,0,9,,,,,,,,10,,,,75,30
9420,note_off,180,0,9,,,,,,,,10,,,,73,64
9420,note_off,180,0,5,,,,,,,,3,,,,76,64
9420,note_on,0,0,6,,,,,,,,4,,,,75,30
9475,note_off,235,0,1,,,,,,,,12,,,,61,64
9480,note_on,5,0,1,,,,,,,,12,,,,64,45
9480,note_on,0,0,4,,,,,,,,2,,,,75,33
9480,note_off,720,0,4,,,,,,,,2,,,,76,64
9480,set_tempo,720,1,0,1666666,,,,,,,,,,,,
9480,note_on,0,0,5,,,,,,,,3,,,,76,30
9480,note_off,60,0,5,,,,,,,,3,,,,78,64
9480,note_off,60,0,9,,,,,,,,10,,,,75,64
9480,note_on,0,0,9,,,,,,,,10,,,,73,30
9480,note_off,60,0,8,,,,,,,,8,,,,78,64
9480,note_on,0,0,8,,,,,,,,8,,,,76,30
9480,note_off,60,0,6,,,,,,,,4,,,,75,64
9480,note_on,0,0,6,,,,,,,,4,,,,73,30
9480,note_off,720,0,3,,,,,,,,1,,,,76,64
9480,note_on,0,0,3,,,,,,,,1,,,,75,48
9640,note_off,400,0,7,,,,,,,,5,,,,61,64
9640,note_off,0,0,2,,,,,,,,13,,,,37,64
9640,note_off,400,0,2,,,,,,,,13,,,,49,64
9640,note_off,400,0,10,,,,,,,,11,,,,61,64
9660,note_on,0,0,6,,,,,,,,4,,,,75,30
9660,note_on,0,0,5,,,,,,,,3,,,,78,30
9660,note_off,180,0,5,,,,,,,,3,,,,76,64
9660,note_on,0,0,9,,,,,,,,10,,,,75,30
9660,note_off,180,0,9,,,,,,,,10,,,,73,64
9660,note_off,180,0,6,,,,,,,,4,,,,73,64
9660,note_off,180,0,8,,,,,,,,8,,,,76,64
9660,note_on,0,0,8,,,,,,,,8,,,,78,30
9715,note_off,235,0,1,,,,,,,,12,,,,64,64
9720,note_on,0,0,4,,,,,,,,2,,,,73,30
9720,note_off,240,0,4,,,,,,,,2,,,,75,64
9720,note_off,60,0,6,,,,,,,,4,,,,75,64
9720,set_tempo,240,1,0,1764705,,,,,,,,,,,,
9720,note_on,0,0,6,,,,,,,,4,,,,73,30
9720,note_on,0,0,8,,,,,,,,8,,,,76,30
9720,note_on,0,0,9,,,,,,,,10,,,,73,30
9720,note_off,60,0,9,,,,,,,,10,,,,75,64
9720,note_on,0,0,5,,,,,,,,3,,,,76,30
9720,note_off,60,0,5,,,,,,,,3,,,,78,64
9720,note_on,5,0,1,,,,,,,,12,,,,68,45
9720,note_on,0,0,3,,,,,,,,1,,,,73,45
9720,note_off,240,0,3,,,,,,,,1,,,,75,64
9720,note_off,60,0,8,,,,,,,,8,,,,78,64
9900,note_on,0,0,5,,,,,,,,3,,,,78,30
9900,note_on,0,0,6,,,,,,,,4,,,,75,30
9900,note_off,180,0,6,,,,,,,,4,,,,73,64
9900,note_off,180,0,9,,,,,,,,10,,,,73,64
9900,note_on,0,0,9,,,,,,,,10,,,,75,30
9900,note_off,180,0,5,,,,,,,,3,,,,76,64
9900,note_on,0,0,8,,,,,,,,8,,,,78,30
9900,note_off,180,0,8,,,,,,,,8,,,,76,64
9955,note_off,235,0,1,,,,,,,,12,,,,68,64
9960,note_on,5,0,1,,,,,,,,12,,,,73,45
9960,note_off,60,0,5,,,,,,,,3,,,,78,64
9960,note_on,0,0,5,,,,,,,,3,,,,76,30
9960,note_off,60,0,8,,,,,,,,8,,,,78,64
9960,note_on,0,0,6,,,,,,,,4,,,,73,30
9960,note_off,60,0,6,,,,,,,,4,,,,75,64
9960,note_off,60,0,9,,,,,,,,10,,,,75,64
9960,note_on,0,0,9,,,,,,,,10,,,,73,30
9960,note_on,0,0,8,,,,,,,,8,,,,76,30
10120,note_off,400,0,3,,,,,,,,1,,,,73,64
10120,note_off,400,0,4,,,,,,,,2,,,,73,64
10140,note_off,180,0,8,,,,,,,,8,,,,76,64
10140,note_on,0,0,8,,,,,,,,8,,,,78,30
10140,note_on,0,0,6,,,,,,,,4,,,,75,30
10140,note_off,180,0,9,,,,,,,,10,,,,73,64
10140,note_on,0,0,9,,,,,,,,10,,,,75,30
10140,note_off,180,0,6,,,,,,,,4,,,,73,64
10140,note_on,0,0,5,,,,,,,,3,,,,78,30
10140,note_off,180,0,5,,,,,,,,3,,,,76,64
10195,note_off,235,0,1,,,,,,,,12,,,,73,64
10195,note_off,55,0,9,,,,,,,,10,,,,75,64
10195,note_off,55,0,8,,,,,,,,8,,,,78,64
10195,note_off,55,0,6,,,,,,,,4,,,,75,64
10195,note_off,55,0,5,,,,,,,,3,,,,78,64
10230,note_on,0,0,1,,,,,,,,12,,,,64,45
10230,note_on,0,0,1,,,,,,,,12,,,,68,45
10230,note_on,110,0,3,,,,,,,,1,,,,80,45
10230,set_tempo,510,1,0,1500000,,,,,,,,,,,,
10230,note_on,35,0,5,,,,,,,,3,,,,64,30
10230,note_on,35,0,1,,,,,,,,12,,,,61,45
10230,note_on,35,0,8,,,,,,,,8,,,,64,30
10230,note_on,35,0,6,,,,,,,,4,,,,61,30
10230,note_on,35,0,9,,,,,,,,10,,,,61,30
10230,note_on,110,0,4,,,,,,,,2,,,,80,30
10410,note_on,0,0,8,,,,,,,,8,,,,66,30
10410,note_off,180,0,9,,,,,,,,10,,,,61,64
10410,note_on,0,0,9,,,,,,,,10,,,,63,30
10410,note_off,180,0,8,,,,,,,,8,,,,64,64
10410,note_off,180,0,5,,,,,,,,3,,,,64,64
10410,note_on,0,0,6,,,,,,,,4,,,,63,30
10410,note_off,180,0,6,,,,,,,,4,,,,61,64
10410,note_on,0,0,5,,,,,,,,3,,,,66,30
10470,note_on,0,0,9,,,,,,,,10,,,,61,30
10470,note_off,60,0,9,,,,,,,,10,,,,63,64
10470,note_on,830,0,7,,,,,,,,5,,,,61,30
10470,note_off,60,0,5,,,,,,,,3,,,,66,64
10470,note_on,0,0,5,,,,,,,,3,,,,64,30
10470,note_on,830,0,2,,,,,,,,13,,,,37,45
10470,note_on,0,0,2,,,,,,,,13,,,,49,45
10470,note_off,60,0,6,,,,,,,,4,,,,63,64
10470,note_on,0,0,8,,,,,,,,8,,,,64,30
10470,note_on,830,0,10,,,,,,,,11,,,,61,30
10470,note_off,60,0,8,,,,,,,,8,,,,66,64
10470,note_on,0,0,6,,,,,,,,4,,,,61,30
10630,note_off,0,0,1,,,,,,,,12,,,,64,64
10630,note_off,0,0,1,,,,,,,,12,,,,61,64
10630,note_off,400,0,1,,,,,,,,12,,,,68,64
10650,note_on,0,0,5,,,,,,,,3,,,,66,30
10650,note_off,180,0,5,,,,,,,,3,,,,64,64
10650,note_off,180,0,9,,,,,,,,10,,,,61,64
10650,note_on,0,0,6,,,,,,,,4,,,,63,30
10650,note_off,180,0,8,,,,,,,,8,,,,64,64
10650,note_on,0,0,8,,,,,,,,8,,,,66,30
10650,note_off,180,0,6,,,,,,,,4,,,,61,64
10650,note_on,0,0,9,,,,,,,,10,,,,63,30
10705,note_off,235,0,7,,,,,,,,5,,,,61,64
10705,note_off,0,0,2,,,,,,,,13,,,,37,64
10705,note_off,235,0,10,,,,,,,,11,,,,61,64
10705,note_off,235,0,2,,,,,,,,13,,,,49,64
10710,note_on,0,0,9,,,,,,,,10,,,,61,30
10710,note_off,60,0,9,,,,,,,,10,,,,63,64
10710,note_on,5,0,7,,,,,,,,5,,,,61,30
10710,note_on,0,0,4,,,,,,,,2,,,,76,30
10710,note_off,480,0,4,,,,,,,,2,,,,80,64
10710,note_on,0,0,2,,,,,,,,13,,,,49,45
10710,note_on,0,0,3,,,,,,,,1,,,,76,45
10710,note_on,0,0,5,,,,,,,,3,,,,64,30
10710,note_off,480,0,3,,,,,,,,1,,,,80,64
10710,note_on,5,0,2,,,,,,,,13,,,,37,45
10710,note_on,5,0,10,,,,,,,,11,,,,61,30
10710,note_off,60,0,6,,,,,,,,4,,,,63,64
10710,note_on,0,0,6,,,,,,,,4,,,,61,30
10710,note_off,60,0,5,,,,,,,,3,,,,66,64
10710,note_off,60,0,8,,,,,,,,8,,,,66,64
10710,note_on,0,0,8,,,,,,,,8,,,,64,30
10890,note_on,0,0,5,,,,,,,,3,,,,66,30
10890,note_off,180,0,6,,,,,,,,4,,,,61,64
10890,note_on,0,0,9,,,,,,,,10,,,,63,30
10890,note_off,180,0,9,,,,,,,,10,,,,61,64
10890,note_on,0,0,6,,,,,,,,4,,,,63,30
10890,note_off,180,0,5,,,,,,,,3,,,,64,64
10890,note_on,0,0,8,,,,,,,,8,,,,66,30
10890,note_off,180,0,8,,,,,,,,8,,,,64,64
10950,note_off,60,0,6,,,,,,,,4,,,,63,64
10950,note_off,60,0,5,,,,,,,,3,,,,66,64
10950,note_on,0,0,8,,,,,,,,8,,,,64,30
10950,note_off,60,0,9,,,,,,,,10,,,,63,64
10950,note_on,0,0,9,,,,,,,,10,,,,61,30
10950,note_off,60,0,8,,,,,,,,8,,,,66,64
10950,note_on,0,0,5,,,,,,,,3,,,,64,30
10950,note_on,0,0,6,,,,,,,,4,,,,61,30
11110,note_off,0,0,2,,,,,,,,13,,,,37,64
11110,note_off,400,0,7,,,,,,,,5,,,,61,64
11110,note_off,400,0,2,,,,,,,,13,,,,49,64
11110,note_off,400,0,10,,,,,,,,11,,,,61,64
11130,note_off,180,0,5,,,,,,,,3,,,,64,64
11130,note_off,180,0,8,,,,,,,,8,,,,64,64
11130,note_on,0,0,5,,,,,,,,3,,,,66,30
11130,note_on,0,0,8,,,,,,,,8,,,,66,30
11130,note_on,0,0,9,,,,,,,,10,,,,63,30
11130,note_on,0,0,6,,,,,,,,4,,,,63,30
11130,note_off,180,0,6,,,,,,,,4,,,,61,64
11130,note_off,180,0,9,,,,,,,,10,,,,61,64
11190,note_off,60,0,8,,,,,,,,8,,,,66,64
11190,note_on,0,0,4,,,,,,,,2,,,,73,32
11190,set_tempo,960,1,0,1764705,,,,,,,,,,,,
11190,note_on,0,0,3,,,,,,,,1,,,,73,47
11190,note_off,480,0,3,,,,,,,,1,,,,76,64
11190,note_on,0,0,8,,,,,,,,8,,,,64,30
11190,note_off,60,0,5,,,,,,,,3,,,,66,64
11190,note_off,480,0,4,,,,,,,,2,,,,76,64
11190,note_on,0,0,5,,,,,,,,3,,,,64,30
11190,note_on,0,0,6,,,,,,,,4,,,,61,30
11190,note_off,60,0,6,,,,,,,,4,,,,63,64
11190,note_on,0,0,9,,,,,,,,10,,,,61,30
11190,note_off,60,0,9,,,,,,,,10,,,,63,64
11370,note_off,180,0,6,,,,,,,,4,,,,61,64
11370,note_on,0,0,8,,,,,,,,8,,,,66,30
11370,note_off,180,0,5,,,,,,,,3,,,,64,64
11370,note_off,180,0,8,,,,,,,,8,,,,64,64
11370,note_on,0,0,5,,,,,,,,3,,,,66,30
11370,note_on,0,0,9,,,,,,,,10,,,,63,30
11370,note_off,180,0,9,,,,,,,,10,,,,61,64
11370,note_on,0,0,6,,,,,,,,4,,,,63,30
11430,note_on,0,0,9,,,,,,,,10,,,,61,30
11430,note_off,60,0,5,,,,,,,,3,,,,66,64
11430,note_on,0,0,5,,,,,,,,3,,,,64,30
11430,note_off,60,0,9,,,,,,,,10,,,,63,64
11430,note_on,0,0,8,,,,,,,,8,,,,64,30
11430,note_on,0,0,6,,,,,,,,4,,,,61,30
11430,note_off,60,0,6,,,,,,,,4,,,,63,64
11430,note_off,60,0,8,,,,,,,,8,,,,66,64
11610,note_on,0,0,5,,,,,,,,3,,,,66,30
11610,note_off,180,0,5,,,,,,,,3,,,,64,64
11610,note_on,0,0,9,,,,,,,,10,,,,63,30
11610,note_off,180,0,8,,,,,,,,8,,,,64,64
11610,note_on,0,0,8,,,,,,,,8,,,,66,30
11610,note_on,0,0,6,,,,,,,,4,,,,63,30
11610,note_off,180,0,6,,,,,,,,4,,,,61,64
11610,note_off,180,0,9,,,,,,,,10,,,,61,64
11670,note_on,0,0,3,,,,,,,,1,,,,81,49
11670,note_off,480,0,3,,,,,,,,1,,,,73,64
11670,note_on,0,0,6,,,,,,,,4,,,,73,30
11670,note_on,0,0,9,,,,,,,,10,,,,73,30
11670,note_off,60,0,5,,,,,,,,3,,,,66,64
11670,note_off,480,0,4,,,,,,,,2,,,,73,64
11670,note_on,0,0,4,,,,,,,,2,,,,81,34
11670,set_tempo,480,1,0,1500000,,,,,,,,,,,,
11670,note_off,60,0,6,,,,,,,,4,,,,63,64
11670,note_off,60,0,8,,,,,,,,8,,,,66,64
11670,note_on,1040,0,1,,,,,,,,12,,,,61,45
11670,note_on,0,0,1,,,,,,,,12,,,,64,45
11670,note_on,0,0,1,,,,,,,,12,,,,69,45
11670,note_on,0,0,8,,,,,,,,8,,,,76,30
11670,note_off,60,0,9,,,,,,,,10,,,,63,64
11670,note_on,0,0,5,,,,,,,,3,,,,76,30
11850,note_off,180,0,9,,,,,,,,10,,,,73,64
11850,note_off,180,0,8,,,,,,,,8,,,,76,64
11850,note_on,0,0,9,,,,,,,,10,,,,75,30
11850,note_on,0,0,8,,,,,,,,8,,,,78,30
11850,note_on,0,0,6,,,,,,,,4,,,,75,30
11850,note_off,180,0,6,,,,,,,,4,,,,73,64
11850,note_on,0,0,5,,,,,,,,3,,,,78,30
11850,note_off,180,0,5,,,,,,,,3,,,,76,64
11910,note_off,60,0,9,,,,,,,,10,,,,75,64
11910,note_on,0,0,9,,,,,,,,10,,,,73,30
11910,note_off,60,0,8,,,,,,,,8,,,,78,64
11910,note_on,0,0,8,,,,,,,,8,,,,76,30
11910,note_on,800,0,10,,,,,,,,11,,,,61,30
11910,note_on,800,0,7,,,,,,,,5,,,,61,30
11910,note_off,60,0,6,,,,,,,,4,,,,75,64
11910,note_on,0,0,5,,,,,,,,3,,,,76,30
11910,note_off,60,0,5,,,,,,,,3,,,,78,64
11910,note_on,0,0,6,,,,,,,,4,,,,73,30
11910,note_on,800,0,2,,,,,,,,13,,,,37,45
11910,note_on,0,0,2,,,,,,,,13,,,,49,45
12070,note_off,400,0,1,,,,,,,,12,,,,69,64
12070,note_off,0,0,1,,,,,,,,12,,,,61,64
12070,note_off,0,0,1,,,,,,,,12,,,,64,64
12090,note_off,180,0,9,,,,,,,,10,,,,73,64
12090,note_on,0,0,6,,,,,,,,4,,,,75,30
12090,note_on,0,0,9,,,,,,,,10,,,,75,30
12090,note_off,180,0,8,,,,,,,,8,,,,76,64
12090,note_on,0,0,8,,,,,,,,8,,,,78,30
12090,note_off,180,0,5,,,,,,,,3,,,,76,64
12090,note_off,180,0,6,,,,,,,,4,,,,73,64
12090,note_on,0,0,5,,,,,,,,3,,,,78,30
12145,note_off,235,0,10,,,,,,,,11,,,,61,64
12145,note_off,0,0,2,,,,,,,,13,,,,37,64
12145,note_off,235,0,2,,,,,,,,13,,,,49,64
12145,note_off,235,0,7,,,,,,,,5,,,,61,64
12150,note_off,60,0,9,,,,,,,,10,,,,75,64
12150,note_on,80,0,1,,,,,,,,12,,,,61,45
12150,note_on,5,0,10,,,,,,,,11,,,,61,30
12150,note_on,0,0,9,,,,,,,,10,,,,73,30
12150,note_off,60,0,6,,,,,,,,4,,,,75,64
12150,note_on,0,0,8,,,,,,,,8,,,,76,30
12150,note_on,5,0,7,,,,,,,,5,,,,61,30
12150,note_on,0,0,5,,,,,,,,3,,,,76,30
12150,note_off,60,0,5,,,,,,,,3,,,,78,64
12150,note_on,5,0,2,,,,,,,,13,,,,37,45
12150,note_on,0,0,2,,,,,,,,13,,,,49,45
12150,note_on,0,0,6,,,,,,,,4,,,,73,30
12150,note_off,60,0,8,,,,,,,,8,,,,78,64
12330,note_on,0,0,9,,,,,,,,10,,,,75,30
12330,note_off,180,0,9,,,,,,,,10,,,,73,64
12330,note_off,180,0,8,,,,,,,,8,,,,76,64
12330,note_on,0,0,8,,,,,,,,8,,,,78,30
12330,note_off,180,0,6,,,,,,,,4,,,,73,64
12330,note_on,0,0,5,,,,,,,,3,,,,78,30
12330,note_off,180,0,5,,,,,,,,3,,,,76,64
12330,note_on,0,0,6,,,,,,,,4,,,,75,30
12385,note_off,235,0,1,,,,,,,,12,,,,61,64
12390,note_off,60,0,6,,,,,,,,4,,,,75,64
12390,note_on,0,0,6,,,,,,,,4,,,,73,30
12390,note_off,60,0,5,,,,,,,,3,,,,78,64
12390,note_on,0,0,5,,,,,,,,3,,,,76,30
12390,note_on,5,0,1,,,,,,,,12,,,,64,45
12390,note_off,60,0,9,,,,,,,,10,,,,75,64
12390,note_on,0,0,9,,,,,,,,10,,,,73,30
12390,note_off,60,0,8,,,,,,,,8,,,,78,64
12390,note_on,0,0,8,,,,,,,,8,,,,76,30
12550,note_off,0,0,2,,,,,,,,13,,,,37,64
12550,note_off,400,0,2,,,,,,,,13,,,,49,64
12550,note_off,400,0,7,,,,,,,,5,,,,61,64
12550,note_off,400,0,10,,,,,,,,11,,,,61,64
12570,note_on,0,0,9,,,,,,,,10,,,,75,30
12570,note_off,180,0,6,,,,,,,,4,,,,73,64
12570,note_off,180,0,5,,,,,,,,3,,,,76,64
12570,note_off,180,0,8,,,,,,,,8,,,,76,64
12570,note_on,0,0,6,,,,,,,,4,,,,75,30
12570,note_on,0,0,8,,,,,,,,8,,,,78,30
12570,note_on,0,0,5,,,,,,,,3,,,,78,30
12570,note_off,180,0,9,,,,,,,,10,,,,73,64
12625,note_off,235,0,1,,,,,,,,12,,,,64,64
12630,note_off,60,0,8,,,,,,,,8,,,,78,64
12630,note_off,60,0,6,,,,,,,,4,,,,75,64
12630,note_on,5,0,1,,,,,,,,12,,,,69,45
12630,note_off,60,0,5,,,,,,,,3,,,,78,64
12630,note_off,60,0,9,,,,,,,,10,,,,75,64
12630,note_on,0,0,9,,,,,,,,10,,,,73,30
12630,note_on,0,0,8,,,,,,,,8,,,,76,30
12630,note_on,0,0,5,,,,,,,,3,,,,76,30
12630,note_on,0,0,6,,,,,,,,4,,,,73,30
12810,note_off,180,0,6,,,,,,,,4,,,,73,64
12810,note_off,180,0,9,,,,,,,,10,,,,73,64
12810,note_off,180,0,5,,,,,,,,3,,,,76,64
12810,note_on,0,0,5,,,,,,,,3,,,,78,30
12810,note_on,0,0,8,,,,,,,,8,,,,78,30
12810,note_off,180,0,8,,,,,,,,8,,,,76,64
12810,note_on,0,0,6,,,,,,,,4,,,,75,30
12810,note_on,0,0,9,,,,,,,,10,,,,75,30
12865,note_off,235,0,1,,,,,,,,12,,,,69,64
12870,note_on,0,0,9,,,,,,,,10,,,,73,30
12870,note_on,0,0,5,,,,,,,,3,,,,76,30
12870,note_off,60,0,5,,,,,,,,3,,,,78,64
12870,note_off,60,0,8,,,,,,,,8,,,,78,64
12870,note_on,0,0,8,,,,,,,,8,,,,76,30
12870,note_off,60,0,9,,,,,,,,10,,,,75,64
12870,note_on,0,0,6,,,,,,,,4,,,,73,30
12870,note_off,60,0,6,,,,,,,,4,,,,75,64
12870,note_on,5,0,1,,,,,,,,12,,,,73,45
13050,note_off,180,0,6,,,,,,,,4,,,,73,64
13050,note_off,180,0,8,,,,,,,,8,,,,76,64
13050,note_on,0,0,9,,,,,,,,10,,,,75,30
13050,note_off,180,0,9,,,,,,,,10,,,,73,64
13050,note_off,180,0,5,,,,,,,,3,,,,76,64
13050,note_on,0,0,5,,,,,,,,3,,,,78,30
13050,note_on,0,0,6,,,,,,,,4,,,,75,30
13050,note_on,0,0,8,,,,,,,,8,,,,78,30
13105,note_off,55,0,8,,,,,,,,8,,,,78,64
13105,note_off,55,0,6,,,,,,,,4,,,,75,64
13105,note_off,55,0,5,,,,,,,,3,,,,78,64
13105,note_off,55,0,9,,,,,,,,10,,,,75,64
13105,note_off,235,0,1,,,,,,,,12,,,,73,64
13110,note_on,5,0,9,,,,,,,,10,,,,66,30
13110,note_on,5,0,5,,,,,,,,3,,,,75,30
13110,note_on,5,0,6,,,,,,,,4,,,,66,30
13110,note_on,5,0,8,,,,,,,,8,,,,75,30
13110,note_on,0,0,1,,,,,,,,12,,,,66,45
13110,note_on,0,0,1,,,,,,,,12,,,,69,45
13110,note_on,5,0,1,,,,,,,,12,,,,63,45
13290,note_off,180,0,5,,,,,,,,3,,,,75,64
13290,note_on,0,0,5,,,,,,,,3,,,,76,30
13290,note_on,0,0,8,,,,,,,,8,,,,76,30
13290,note_off,180,0,8,,,,,,,,8,,,,75,64
13350,note_on,0,0,6,,,,,,,,4,,,,66,30
13350,note_off,240,0,6,,,,,,,,4,,,,66,64
13350,note_on,0,0,2,,,,,,,,13,,,,54,45
13350,note_on,800,0,2,,,,,,,,13,,,,42,45
13350,note_on,0,0,9,,,,,,,,10,,,,66,30
13350,note_off,240,0,9,,,,,,,,10,,,,66,64
13350,note_off,60,0,5,,,,,,,,3,,,,76,64
13350,note_on,0,0,5,,,,,,,,3,,,,75,30
13350,note_on,0,0,8,,,,,,,,8,,,,75,30
13350,note_on,800,0,10,,,,,,,,11,,,,66,30
13350,note_off,60,0,8,,,,,,,,8,,,,76,64
13350,note_on,800,0,7,,,,,,,,5,,,,66,30
13510,note_off,1840,0,4,,,,,,,,2,,,,81,64
13510,note_off,1840,0,3,,,,,,,,1,,,,81,64
13510,note_off,0,0,1,,,,,,,,12,,,,63,64
13510,note_off,0,0,1,,,,,,,,12,,,,66,64
13510,note_off,400,0,1,,,,,,,,12,,,,69,64
13530,note_off,180,0,8,,,,,,,,8,,,,75,64
13530,note_on,0,0,8,,,,,,,,8,,,,76,30
13530,note_on,0,0,5,,,,,,,,3,,,,76,30
13530,note_off,180,0,5,,,,,,,,3,,,,75,64
13585,note_off,235,0,7,,,,,,,,5,,,,66,64
13585,note_off,0,0,2,,,,,,,,13,,,,42,64
13585,note_off,235,0,2,,,,,,,,13,,,,54,64
13585,note_off,235,0,10,,,,,,,,11,,,,66,64
13590,note_on,0,0,8,,,,,,,,8,,,,75,30
13590,note_on,0,0,2,,,,,,,,13,,,,54,45
13590,note_off,60,0,8,,,,,,,,8,,,,76,64
13590,note_on,80,0,3,,,,,,,,1,,,,78,60
13590,note_on,80,0,4,,,,,,,,2,,,,78,45
13590,note_on,0,0,6,,,,,,,,4,,,,78,30
13590,note_on,5,0,7,,,,,,,,5,,,,66,30
13590,note_on,5,0,2,,,,,,,,13,,,,42,45
13590,note_on,0,0,5,,,,,,,,3,,,,75,30
13590,note_off,60,0,5,,,,,,,,3,,,,76,64
13590,note_off,240,0,6,,,,,,,,4,,,,66,64
13590,note_on,5,0,10,,,,,,,,11,,,,66,30
13590,note_off,240,0,9,,,,,,,,10,,,,66,64
13590,note_on,0,0,9,,,,,,,,10,,,,78,30
13590,set_tempo,1920,1,0,1621621,,,,,,,,,,,,
13770,note_off,180,0,6,,,,,,,,4,,,,78,64
13770,note_on,0,0,6,,,,,,,,4,,,,80,30
13770,note_off,180,0,8,,,,,,,,8,,,,75,64
13770,note_on,0,0,8,,,,,,,,8,,,,76,30
13770,note_off,180,0,5,,,,,,,,3,,,,75,64
13770,note_on,0,0,5,,,,,,,,3,,,,76,30
13770,note_on,0,0,9,,,,,,,,10,,,,80,30
13770,note_off,180,0,9,,,,,,,,10,,,,78,64
13830,note_off,60,0,9,,,,,,,,10,,,,80,64
13830,note_off,60,0,5,,,,,,,,3,,,,76,64
13830,note_on,0,0,5,,,,,,,,3,,,,75,30
13830,note_on,0,0,9,,,,,,,,10,,,,78,30
13830,note_on,0,0,8,,,,,,,,8,,,,75,30
13830,note_off,60,0,6,,,,,,,,4,,,,80,64
13830,note_off,60,0,8,,,,,,,,8,,,,76,64
13830,note_on,0,0,6,,,,,,,,4,,,,78,30
13990,note_off,400,0,7,,,,,,,,5,,,,66,64
13990,note_off,0,0,2,,,,,,,,13,,,,42,64
13990,note_off,400,0,10,,,,,,,,11,,,,66,64
13990,note_off,400,0,2,,,,,,,,13,,,,54,64
14010,note_on,0,0,6,,,,,,,,4,,,,80,30
14010,note_off,180,0,6,,,,,,,,4,,,,78,64
14010,note_off,180,0,5,,,,,,,,3,,,,75,64
14010,note_off,180,0,8,,,,,,,,8,,,,75,64
14010,note_on,0,0,8,,,,,,,,8,,,,76,30
14010,note_off,180,0,9,,,,,,,,10,,,,78,64
14010,note_on,0,0,9,,,,,,,,10,,,,80,30
14010,note_on,0,0,5,,,,,,,,3,,,,76,30
14070,set_tempo,480,1,0,1764705,,,,,,,,,,,,
14070,note_on,0,0,4,,,,,,,,2,,,,75,45
14070,note_off,480,0,4,,,,,,,,2,,,,78,64
14070,note_on,0,0,9,,,,,,,,10,,,,78,30
14070,note_off,60,0,5,,,,,,,,3,,,,76,64
14070,note_off,60,0,9,,,,,,,,10,,,,80,64
14070,note_off,480,0,3,,,,,,,,1,,,,78,64
14070,note_on,0,0,6,,,,,,,,4,,,,78,30
14070,note_off,60,0,6,,,,,,,,4,,,,80,64
14070,note_off,60,0,8,,,,,,,,8,,,,76,64
14070,note_on,0,0,8,,,,,,,,8,,,,75,30
14070,note_on,0,0,3,,,,,,,,1,,,,75,60
14070,note_on,0,0,5,,,,,,,,3,,,,75,30
14250,note_on,0,0,9,,,,,,,,10,,,,80,30
14250,note_off,180,0,9,,,,,,,,10,,,,78,64
14250,note_on,0,0,6,,,,,,,,4,,,,80,30
14250,note_off,180,0,8,,,,,,,,8,,,,75,64
14250,note_on,0,0,5,,,,,,,,3,,,,76,30
14250,note_off,180,0,5,,,,,,,,3,,,,75,64
14250,note_off,180,0,6,,,,,,,,4,,,,78,64
14250,note_on,0,0,8,,,,,,,,8,,,,76,30
14310,note_on,0,0,8,,,,,,,,8,,,,75,30
14310,note_off,60,0,9,,,,,,,,10,,,,80,64
14310,note_on,0,0,9,,,,,,,,10,,,,78,30
14310,note_off,60,0,5,,,,,,,,3,,,,76,64
14310,note_on,0,0,5,,,,,,,,3,,,,75,30
14310,note_on,0,0,6,,,,,,,,4,,,,78,30
14310,note_off,60,0,8,,,,,,,,8,,,,76,64
14310,note_off,60,0,6,,,,,,,,4,,,,80,64
14490,note_on,0,0,6,,,,,,,,4,,,,80,30
14490,note_off,180,0,5,,,,,,,,3,,,,75,64
14490,note_on,0,0,5,,,,,,,,3,,,,76,30
14490,note_on,0,0,8,,,,,,,,8,,,,76,30
14490,note_off,180,0,9,,,,,,,,10,,,,78,64
14490,note_on,0,0,9,,,,,,,,10,,,,80,30
14490,note_off,180,0,8,,,,,,,,8,,,,75,64
14490,note_off,180,0,6,,,,,,,,4,,,,78,64
14550,note_off,480,0,3,,,,,,,,1,,,,75,64
14550,note_on,0,0,3,,,,,,,,1,,,,80,60
14550,note_on,0,0,5,,,,,,,,3,,,,75,30
14550,note_off,480,0,4,,,,,,,,2,,,,75,64
14550,note_on,0,0,4,,,,,,,,2,,,,80,45
14550,note_on,0,0,8,,,,,,,,8,,,,75,30
14550,note_off,60,0,6,,,,,,,,4,,,,80,64
14550,note_on,0,0,6,,,,,,,,4,,,,71,30
14550,note_off,60,0,5,,,,,,,,3,,,,76,64
14550,note_off,60,0,8,,,,,,,,8,,,,76,64
14550,set_tempo,480,1,0,1500000,,,,,,,,,,,,
14550,note_on,0,0,9,,,,,,,,10,,,,71,30
14550,note_on,0,0,1,,,,,,,,12,,,,71,45
14550,note_on,0,0,1,,,,,,,,12,,,,68,45
14550,note_off,60,0,9,,,,,,,,10,,,,80,64
14550,note_on,1040,0,1,,,,,,,,12,,,,63,45
14730,note_off,180,0,8,,,,,,,,8,,,,75,64
14730,note_on,0,0,8,,,,,,,,8,,,,76,30
14730,note_on,0,0,6,,,,,,,,4,,,,73,30
14730,note_on,0,0,5,,,,,,,,3,,,,76,30
14730,note_off,180,0,9,,,,,,,,10,,,,71,64
14730,note_on,0,0,9,,,,,,,,10,,,,73,30
14730,note_off,180,0,6,,,,,,,,4,,,,71,64
14730,note_off,180,0,5,,,,,,,,3,,,,75,64
14790,note_on,800,0,2,,,,,,,,13,,,,40,45
14790,note_on,0,0,2,,,,,,,,13,,,,52,45
14790,note_off,60,0,6,,,,,,,,4,,,,73,64
14790,note_on,0,0,6,,,,,,,,4,,,,71,30
14790,note_on,800,0,10,,,,,,,,11,,,,64,30
14790,note_on,800,0,7,,,,,,,,5,,,,64,30
14790,note_off,60,0,5,,,,,,,,3,,,,76,64
14790,note_on,0,0,5,,,,,,,,3,,,,75,30
14790,note_off,60,0,9,,,,,,,,10,,,,73,64
14790,note_off,60,0,8,,,,,,,,8,,,,76,64
14790,note_on,0,0,8,,,,,,,,8,,,,75,30
14790,note_on,0,0,9,,,,,,,,10,,,,71,30
14950,note_off,0,0,1,,,,,,,,12,,,,63,64
14950,note_off,0,0,1,,,,,,,,12,,,,68,64
14950,note_off,400,0,1,,,,,,,,12,,,,71,64
14970,note_off,180,0,9,,,,,,,,10,,,,71,64
14970,note_on,0,0,8,,,,,,,,8,,,,76,30
14970,note_off,180,0,6,,,,,,,,4,,,,71,64
14970,note_off,180,0,8,,,,,,,,8,,,,75,64
14970,note_on,0,0,5,,,,,,,,3,,,,76,30
14970,note_off,180,0,5,,,,,,,,3,,,,75,64
14970,note_on,0,0,9,,,,,,,,10,,,,73,30
14970,note_on,0,0,6,,,,,,,,4,,,,73,30
15025,note_off,0,0,2,,,,,,,,13,,,,40,64
15025,note_off,235,0,2,,,,,,,,13,,,,52,64
15025,note_off,235,0,7,,,,,,,,5,,,,64,64
15025,note_off,235,0,10,,,,,,,,11,,,,64,64
15030,note_on,0,0,6,,,,,,,,4,,,,71,30
15030,note_on,5,0,7,,,,,,,,5,,,,64,30
15030,note_on,80,0,1,,,,,,,,12,,,,63,45
15030,note_on,0,0,9,,,,,,,,10,,,,71,30
15030,note_off,60,0,8,,,,,,,,8,,,,76,64
15030,note_off,60,0,6,,,,,,,,4,,,,73,64
15030,note_off,60,0,9,,,,,,,,10,,,,73,64
15030,note_on,5,0,10,,,,,,,,11,,,,64,30
15030,note_on,5,0,2,,,,,,,,13,,,,40,45
15030,note_off,60,0,5,,,,,,,,3,,,,76,64
15030,note_on,0,0,5,,,,,,,,3,,,,75,30
15030,note_on,0,0,8,,,,,,,,8,,,,75,30
15030,note_on,0,0,2,,,,,,,,13,,,,52,45
15210,note_off,180,0,9,,,,,,,,10,,,,71,64
15210,note_off,180,0,5,,,,,,,,3,,,,75,64
15210,note_on,0,0,5,,,,,,,,3,,,,76,30
15210,note_off,180,0,6,,,,,,,,4,,,,71,64
15210,note_on,0,0,9,,,,,,,,10,,,,73,30
15210,note_on,0,0,8,,,,,,,,8,,,,76,30
15210,note_on,0,0,6,,,,,,,,4,,,,73,30
15210,note_off,180,0,8,,,,,,,,8,,,,75,64
15265,note_off,235,0,1,,,,,,,,12,,,,63,64
15270,note_on,0,0,6,,,,,,,,4,,,,71,30
15270,note_on,0,0,8,,,,,,,,8,,,,75,30
15270,note_off,60,0,8,,,,,,,,8,,,,76,64
15270,note_off,60,0,6,,,,,,,,4,,,,73,64
15270,note_on,0,0,9,,,,,,,,10,,,,71,30
15270,note_off,60,0,9,,,,,,,,10,,,,73,64
15270,note_on,0,0,5,,,,,,,,3,,,,75,30
15270,note_on,5,0,1,,,,,,,,12,,,,68,45
15270,note_off,60,0,5,,,,,,,,3,,,,76,64
15430,note_off,400,0,10,,,,,,,,11,,,,64,64
15430,note_off,400,0,2,,,,,,,,13,,,,52,64
15430,note_off,400,0,7,,,,,,,,5,,,,64,64
15430,note_off,0,0,2,,,,,,,,13,,,,40,64
15450,note_on,0,0,6,,,,,,,,4,,,,73,30
15450,note_off,180,0,6,,,,,,,,4,,,,71,64
15450,note_on,0,0,8,,,,,,,,8,,,,76,30
15450,note_on,0,0,5,,,,,,,,3,,,,76,30
15450,note_on,0,0,9,,,,,,,,10,,,,73,30
15450,note_off,180,0,9,,,,,,,,10,,,,71,64
15450,note_off,180,0,8,,,,,,,,8,,,,75,64
15450,note_off,180,0,5,,,,,,,,3,,,,75,64
15505,note_off,235,0,1,,,,,,,,12,,,,68,64
15510,note_off,60,0,5,,,,,,,,3,,,,76,64
15510,note_on,0,0,8,,,,,,,,8,,,,75,30
15510,note_off,60,0,8,,,,,,,,8,,,,76,64
15510,note_on,0,0,5,,,,,,,,3,,,,75,30
15510,note_on,5,0,1,,,,,,,,12,,,,71,45
15510,note_on,0,0,6,,,,,,,,4,,,,71,30
15510,note_off,60,0,6,,,,,,,,4,,,,73,64
15510,note_on,0,0,9,,,,,,,,10,,,,71,30
15510,note_off,60,0,9,,,,,,,,10,,,,73,64
15690,note_on,0,0,6,,,,,,,,4,,,,73,30
15690,note_off,180,0,6,,,,,,,,4,,,,71,64
15690,note_on,0,0,9,,,,,,,,10,,,,73,30
15690,note_off,180,0,9,,,,,,,,10,,,,71,64
15690,note_on,0,0,8,,,,,,,,8,,,,76,30
15690,note_on,0,0,5,,,,,,,,3,,,,76,30
15690,note_off,180,0,5,,,,,,,,3,,,,75,64
15690,note_off,180,0,8,,,,,,,,8,,,,75,64
15745,note_off,235,0,1,,,,,,,,12,,,,71,64
15750,note_off,60,0,5,,,,,,,,3,,,,76,64
15750,note_off,60,0,6,,,,,,,,4,,,,73,64
15750,note_on,0,0,5,,,,,,,,3,,,,75,30
15750,note_on,0,0,6,,,,,,,,4,,,,71,30
15750,note_off,60,0,9,,,,,,,,10,,,,73,64
15750,note_on,5,0,1,,,,,,,,12,,,,75,45
15750,note_on,0,0,9,,,,,,,,10,,,,71,30
15750,note_on,0,0,8,,,,,,,,8,,,,75,30
15750,note_off,60,0,8,,,,,,,,8,,,,76,64
15930,note_off,180,0,9,,,,,,,,10,,,,71,64
15930,note_on,0,0,6,,,,,,,,4,,,,73,30
15930,note_on,0,0,9,,,,,,,,10,,,,73,30
15930,note_off,180,0,6,,,,,,,,4,,,,71,64
15930,note_on,0,0,8,,,,,,,,8,,,,76,30
15930,note_off,180,0,8,,,,,,,,8,,,,75,64
15930,note_on,0,0,5,,,,,,,,3,,,,76,30
15930,note_off,180,0,5,,,,,,,,3,,,,75,64
15985,note_off,235,0,1,,,,,,,,12,,,,75,64
15985,note_off,55,0,8,,,,,,,,8,,,,76,64
15985,note_off,55,0,9,,,,,,,,10,,,,73,64
15985,note_off,55,0,5,,,,,,,,3,,,,76,64
15985,note_off,55,0,6,,,,,,,,4,,,,73,64
15990,note_on,5,0,5,,,,,,,,3,,,,73,30
15990,note_on,5,0,8,,,,,,,,8,,,,73,30
15990,note_on,0,0,1,,,,,,,,12,,,,69,45
15990,note_on,0,0,1,,,,,,,,12,,,,64,45
15990,note_on,5,0,1,,,,,,,,12,,,,61,45
15990,note_on,5,0,6,,,,,,,,4,,,,66,30
15990,note_on,5,0,9,,,,,,,,10,,,,66,30
16170,note_off,180,0,5,,,,,,,,3,,,,73,64
16170,note_on,0,0,5,,,,,,,,3,,,,75,30
16170,note_off,180,0,8,,,,,,,,8,,,,73,64
16170,note_on,0,0,8,,,,,,,,8,,,,75,30
16230,note_on,800,0,10,,,,,,,,11,,,,57,30
16230,note_on,0,0,2,,,,,,,,13,,,,45,45
16230,note_on,800,0,7,,,,,,,,5,,,,57,30
16230,note_on,800,0,2,,,,,,,,13,,,,33,45
16230,note_off,240,0,6,,,,,,,,4,,,,66,64
16230,note_off,60,0,5,,,,,,,,3,,,,75,64
16230,note_on,0,0,5,,,,,,,,3,,,,73,30
16230,note_off,60,0,8,,,,,,,,8,,,,75,64
16230,note_on,0,0,8,,,,,,,,8,,,,73,30
16230,note_on,0,0,6,,,,,,,,4,,,,66,30
16230,note_on,0,0,9,,,,,,,,10,,,,66,30
16230,note_off,240,0,9,,,,,,,,10,,,,66,64
16390,note_off,1840,0,4,,,,,,,,2,,,,80,64
16390,note_off,0,0,1,,,,,,,,12,,,,61,64
16390,note_off,1840,0,3,,,,,,,,1,,,,80,64
16390,note_off,400,0,1,,,,,,,,12,,,,69,64
16390,note_off,0,0,1,,,,,,,,12,,,,64,64
16410,note_off,180,0,5,,,,,,,,3,,,,73,64
16410,note_on,0,0,8,,,,,,,,8,,,,75,30
16410,note_off,180,0,8,,,,,,,,8,,,,73,64
16410,note_on,0,0,5,,,,,,,,3,,,,75,30
16465,note_off,235,0,2,,,,,,,,13,,,,45,64
16465,note_off,0,0,2,,,,,,,,13,,,,33,64
16465,note_off,235,0,7,,,,,,,,5,,,,57,64
16465,note_off,235,0,10,,,,,,,,11,,,,57,64
16470,note_on,0,0,6,,,,,,,,4,,,,76,30
16470,note_on,5,0,7,,,,,,,,5,,,,57,30
16470,note_off,240,0,6,,,,,,,,4,,,,66,64
16470,note_on,0,0,8,,,,,,,,8,,,,73,30
16470,note_off,60,0,8,,,,,,,,8,,,,75,64
16470,note_on,0,0,9,,,,,,,,10,,,,76,30
16470,set_tempo,1920,1,0,1621621,,,,,,,,,,,,
16470,note_on,80,0,3,,,,,,,,1,,,,76,60
16470,note_off,240,0,9,,,,,,,,10,,,,66,64
16470,note_on,0,0,5,,,,,,,,3,,,,73,30
16470,note_off,60,0,5,,,,,,,,3,,,,75,64
16470,note_on,80,0,4,,,,,,,,2,,,,76,45
16470,note_on,5,0,2,,,,,,,,13,,,,33,45
16470,note_on,0,0,2,,,,,,,,13,,,,45,45
16470,note_on,5,0,10,,,,,,,,11,,,,57,30
16650,note_off,180,0,8,,,,,,,,8,,,,73,64
16650,note_on,0,0,9,,,,,,,,10,,,,78,30
16650,note_on,0,0,6,,,,,,,,4,,,,78,30
16650,note_off,180,0,6,,,,,,,,4,,,,76,64
16650,note_off,180,0,9,,,,,,,,10,,,,76,64
16650,note_off,180,0,5,,,,,,,,3,,,,73,64
16650,note_on,0,0,8,,,,,,,,8,,,,75,30
16650,note_on,0,0,5,,,,,,,,3,,,,75,30
16710,note_on,0,0,8,,,,,,,,8,,,,73,30
16710,note_off,60,0,5,,,,,,,,3,,,,75,64
16710,note_off,60,0,8,,,,,,,,8,,,,75,64
16710,note_on,0,0,5,,,,,,,,3,,,,73,30
16710,note_on,0,0,9,,,,,,,,10,,,,76,30
16710,note_off,60,0,9,,,,,,,,10,,,,78,64
16710,note_on,0,0,6,,,,,,,,4,,,,76,30
16710,note_off,60,0,6,,,,,,,,4,,,,78,64
16870,note_off,0,0,2,,,,,,,,13,,,,33,64
16870,note_off,400,0,2,,,,,,,,13,,,,45,64
16870,note_off,400,0,7,,,,,,,,5,,,,57,64
16870,note_off,400,0,10,,,,,,,,11,,,,57,64
16890,note_on,0,0,5,,,,,,,,3,,,,75,30
16890,note_off,180,0,6,,,,,,,,4,,,,76,64
16890,note_off,180,0,5,,,,,,,,3,,,,73,64
16890,note_on,0,0,6,,,,,,,,4,,,,78,30
16890,note_off,180,0,8,,,,,,,,8,,,,73,64
16890,note_on,0,0,9,,,,,,,,10,,,,78,30
16890,note_off,180,0,9,,,,,,,,10,,,,76,64
16890,note_on,0,0,8,,,,,,,,8,,,,75,30
16950,note_on,0,0,3,,,,,,,,1,,,,73,60
16950,note_off,60,0,8,,,,,,,,8,,,,75,64
16950,note_on,0,0,8,,,,,,,,8,,,,73,30
16950,note_on,0,0,6,,,,,,,,4,,,,76,30
16950,note_off,480,0,4,,,,,,,,2,,,,76,64
16950,note_off,60,0,5,,,,,,,,3,,,,75,64
16950,note_off,60,0,6,,,,,,,,4,,,,78,64
16950,set_tempo,480,1,0,1764705,,,,,,,,,,,,
16950,note_off,60,0,9,,,,,,,,10,,,,78,64
16950,note_on,0,0,9,,,,,,,,10,,,,76,30
16950,note_off,480,0,3,,,,,,,,1,,,,76,64
16950,note_on,0,0,4,,,,,,,,2,,,,73,45
16950,note_on,0,0,5,,,,,,,,3,,,,73,30
17130,note_off,180,0,5,,,,,,,,3,,,,73,64
17130,note_on,0,0,8,,,,,,,,8,,,,75,30
17130,note_on,0,0,9,,,,,,,,10,,,,78,30
17130,note_off,180,0,9,,,,,,,,10,,,,76,64
17130,note_on,0,0,5,,,,,,,,3,,,,75,30
17130,note_off,180,0,8,,,,,,,,8,,,,73,64
17130,note_on,0,0,6,,,,,,,,4,,,,78,30
17130,note_off,180,0,6,,,,,,,,4,,,,76,64
17190,note_off,60,0,6,,,,,,,,4,,,,78,64
17190,note_off,60,0,9,,,,,,,,10,,,,78,64
17190,note_on,0,0,9,,,,,,,,10,,,,76,30
17190,note_off,60,0,8,,,,,,,,8,,,,75,64
17190,note_on,0,0,8,,,,,,,,8,,,,73,30
17190,note_on,0,0,6,,,,,,,,4,,,,76,30
17190,note_on,0,0,5,,,,,,,,3,,,,73,30
17190,note_off,60,0,5,,,,,,,,3,,,,75,64
17370,note_on,0,0,8,,,,,,,,8,,,,75,30
17370,note_off,180,0,8,,,,,,,,8,,,,73,64
17370,note_on,0,0,9,,,,,,,,10,,,,78,30
17370,note_off,180,0,9,,,,,,,,10,,,,76,64
17370,note_off,180,0,5,,,,,,,,3,,,,73,64
17370,note_on,0,0,5,,,,,,,,3,,,,75,30
17370,note_on,0,0,6,,,,,,,,4,,,,78,30
17370,note_off,180,0,6,,,,,,,,4,,,,76,64
17430,note_on,0,0,1,,,,,,,,12,,,,69,45
17430,note_on,0,0,6,,,,,,,,4,,,,69,30
17430,note_off,60,0,8,,,,,,,,8,,,,75,64
17430,note_on,0,0,8,,,,,,,,8,,,,73,30
17430,note_on,0,0,1,,,,,,,,12,,,,66,45
17430,set_tempo,480,1,0,1500000,,,,,,,,,,,,
17430,note_on,0,0,4,,,,,,,,2,,,,78,45
17430,note_on,1040,0,1,,,,,,,,12,,,,61,45
17430,note_off,480,0,3,,,,,,,,1,,,,73,64
17430,note_on,0,0,3,,,,,,,,1,,,,78,60
17430,note_off,60,0,9,,,,,,,,10,,,,78,64
17430,note_on,0,0,9,,,,,,,,10,,,,69,30
17430,note_off,60,0,5,,,,,,,,3,,,,75,64
17430,note_on,0,0,5,,,,,,,,3,,,,73,30
17430,note_off,480,0,4,,,,,,,,2,,,,73,64
17430,note_off,60,0,6,,,,,,,,4,,,,78,64
17610,note_off,180,0,9,,,,,,,,10,,,,69,64
17610,note_on,0,0,9,,,,,,,,10,,,,71,30
17610,note_on,0,0,8,,,,,,,,8,,,,75,30
17610,note_on,0,0,5,,,,,,,,3,,,,75,30
17610,note_off,180,0,8,,,,,,,,8,,,,73,64
17610,note_off,180,0,6,,,,,,,,4,,,,69,64
17610,note_on,0,0,6,,,,,,,,4,,,,71,30
17610,note_off,180,0,5,,,,,,,,3,,,,73,64
17670,note_off,60,0,5,,,,,,,,3,,,,75,64
17670,note_off,60,0,8,,,,,,,,8,,,,75,64
17670,note_on,800,0,7,,,,,,,,5,,,,63,30
17670,note_on,0,0,8,,,,,,,,8,,,,73,30
17670,note_on,0,0,9,,,,,,,,10,,,,69,30
17670,note_on,800,0,2,,,,,,,,13,,,,39,45
17670,note_on,0,0,5,,,,,,,,3,,,,73,30
17670,note_off,60,0,6,,,,,,,,4,,,,71,64
17670,note_on,800,0,10,,,,,,,,11,,,,63,30
17670,note_off,60,0,9,,,,,,,,10,,,,71,64
17670,note_on,0,0,6,,,,,,,,4,,,,69,30
17670,note_on,0,0,2,,,,,,,,13,,,,51,45
17830,note_off,0,0,1,,,,,,,,12,,,,61,64
17830,note_off,400,0,1,,,,,,,,12,,,,69,64
17830,note_off,0,0,1,,,,,,,,12,,,,66,64
17850,note_on,0,0,9,,,,,,,,10,,,,71,30
17850,note_on,0,0,6,,,,,,,,4,,,,71,30
17850,note_on,0,0,5,,,,,,,,3,,,,75,30
17850,note_off,180,0,6,,,,,,,,4,,,,69,64
17850,note_on,0,0,8,,,,,,,,8,,,,75,30
17850,note_off,180,0,8,,,,,,,,8,,,,73,64
17850,note_off,180,0,5,,,,,,,,3,,,,73,64
17850,note_off,180,0,9,,,,,,,,10,,,,69,64
17905,note_off,0,0,2,,,,,,,,13,,,,39,64
17905,note_off,235,0,2,,,,,,,,13,,,,51,64
17905,note_off,235,0,10,,,,,,,,11,,,,63,64
17905,note_off,235,0,7,,,,,,,,5,,,,63,64
17910,note_off,60,0,9,,,,,,,,10,,,,71,64
17910,note_on,0,0,9,,,,,,,,10,,,,69,30
17910,note_on,0,0,5,,,,,,,,3,,,,73,30
17910,note_off,60,0,5,,,,,,,,3,,,,75,64
17910,note_on,0,0,8,,,,,,,,8,,,,73,30
17910,note_off,60,0,8,,,,,,,,8,,,,75,64
17910,note_on,5,0,10,,,,,,,,11,,,,63,30
17910,note_on,5,0,7,,,,,,,,5,,,,63,30
17910,note_on,0,0,6,,,,,,,,4,,,,69,30
17910,note_off,60,0,6,,,,,,,,4,,,,71,64
17910,note_on,5,0,2,,,,,,,,13,,,,39,45
17910,note_on,80,0,1,,,,,,,,12,,,,61,45
17910,note_on,0,0,2,,,,,,,,13,,,,51,45
18090,note_off,180,0,9,,,,,,,,10,,,,69,64
18090,note_on,0,0,9,,,,,,,,10,,,,71,30
18090,note_off,180,0,5,,,,,,,,3,,,,73,64
18090,note_on,0,0,5,,,,,,,,3,,,,75,30
18090,note_off,180,0,8,,,,,,,,8,,,,73,64
18090,note_on,0,0,8,,,,,,,,8,,,,75,30
18090,note_off,180,0,6,,,,,,,,4,,,,69,64
18090,note_on,0,0,6,,,,,,,,4,,,,71,30
18145,note_off,235,0,1,,,,,,,,12,,,,61,64
18150,note_on,0,0,8,,,,,,,,8,,,,73,30
18150,note_on,0,0,9,,,,,,,,10,,,,69,30
18150,note_off,60,0,9,,,,,,,,10,,,,71,64
18150,note_off,60,0,8,,,,,,,,8,,,,75,64
18150,note_off,60,0,6,,,,,,,,4,,,,71,64
18150,note_off,60,0,5,,,,,,,,3,,,,75,64
18150,note_on,0,0,5,,,,,,,,3,,,,73,30
18150,note_on,0,0,6,,,,,,,,4,,,,69,30
18150,note_on,5,0,1,,,,,,,,12,,,,66,45
18310,note_off,400,0,2,,,,,,,,13,,,,51,64
18310,note_off,400,0,7,,,,,,,,5,,,,63,64
18310,note_off,0,0,2,,,,,,,,13,,,,39,64
18310,note_off,400,0,10,,,,,,,,11,,,,63,64
18330,note_on,0,0,8,,,,,,,,8,,,,75,30
18330,note_off,180,0,5,,,,,,,,3,,,,73,64
18330,note_on,0,0,5,,,,,,,,3,,,,75,30
18330,note_off,180,0,6,,,,,,,,4,,,,69,64
18330,note_off,180,0,9,,,,,,,,10,,,,69,64
18330,note_on,0,0,6,,,,,,,,4,,,,71,30
18330,note_on,0,0,9,,,,,,,,10,,,,71,30
18330,note_off,180,0,8,,,,,,,,8,,,,73,64
18385,note_off,235,0,1,,,,,,,,12,,,,66,64
18390,note_off,60,0,9,,,,,,,,10,,,,71,64
18390,note_on,0,0,9,,,,,,,,10,,,,69,30
18390,note_on,5,0,1,,,,,,,,12,,,,69,45
18390,note_off,60,0,8,,,,,,,,8,,,,75,64
18390,note_on,0,0,8,,,,,,,,8,,,,73,30
18390,note_off,60,0,6,,,,,,,,4,,,,71,64
18390,note_off,60,0,5,,,,,,,,3,,,,75,64
18390,note_on,0,0,5,,,,,,,,3,,,,73,30
18390,note_on,0,0,6,,,,,,,,4,,,,69,30
18570,note_off,180,0,8,,,,,,,,8,,,,73,64
18570,note_off,180,0,9,,,,,,,,10,,,,69,64
18570,note_on,0,0,9,,,,,,,,10,,,,71,30
18570,note_on,0,0,8,,,,,,,,8,,,,75,30
18570,note_off,180,0,5,,,,,,,,3,,,,73,64
18570,note_on,0,0,5,,,,,,,,3,,,,75,30
18570,note_off,180,0,6,,,,,,,,4,,,,69,64
18570,note_on,0,0,6,,,,,,,,4,,,,71,30
18625,note_off,235,0,1,,,,,,,,12,,,,69,64
18630,note_off,60,0,9,,,,,,,,10,,,,71,64
18630,note_on,0,0,9,,,,,,,,10,,,,69,30
18630,note_on,0,0,6,,,,,,,,4,,,,69,30
18630,note_on,5,0,1,,,,,,,,12,,,,73,45
18630,note_off,60,0,6,,,,,,,,4,,,,71,64
18630,note_off,60,0,8,,,,,,,,8,,,,75,64
18630,note_on,0,0,8,,,,,,,,8,,,,73,30
18630,note_off,60,0,5,,,,,,,,3,,,,75,64
18630,note_on,0,0,5,,,,,,,,3,,,,73,30
18810,note_off,180,0,9,,,,,,,,10,,,,69,64
18810,note_off,180,0,6,,,,,,,,4,,,,69,64
18810,note_on,0,0,5,,,,,,,,3,,,,75,30
18810,note_off,180,0,5,,,,,,,,3,,,,73,64
18810,note_on,0,0,6,,,,,,,,4,,,,71,30
18810,note_off,180,0,8,,,,,,,,8,,,,73,64
18810,note_on,0,0,8,,,,,,,,8,,,,75,30
18810,note_on,0,0,9,,,,,,,,10,,,,71,30
18865,note_off,55,0,5,,,,,,,,3,,,,75,64
18865,note_off,55,0,6,,,,,,,,4,,,,71,64
18865,note_off,55,0,8,,,,,,,,8,,,,75,64
18865,note_off,235,0,1,,,,,,,,12,,,,73,64
18865,note_off,55,0,9,,,,,,,,10,,,,71,64
18870,note_on,5,0,8,,,,,,,,8,,,,72,30
18870,note_on,0,0,1,,,,,,,,12,,,,72,45
18870,note_on,5,0,1,,,,,,,,12,,,,63,45
18870,note_on,5,0,9,,,,,,,,10,,,,63,30
18870,note_on,5,0,5,,,,,,,,3,,,,72,30
18870,note_on,5,0,6,,,,,,,,4,,,,63,30
18870,note_on,0,0,1,,,,,,,,12,,,,68,45
19050,note_on,0,0,5,,,,,,,,3,,,,73,30
19050,note_on,0,0,8,,,,,,,,8,,,,73,30
19050,note_off,180,0,8,,,,,,,,8,,,,72,64
19050,note_off,180,0,5,,,,,,,,3,,,,72,64
19110,note_on,800,0,2,,,,,,,,13,,,,32,45
19110,note_on,0,0,2,,,,,,,,13,,,,44,45
19110,note_on,0,0,9,,,,,,,,10,,,,63,30
19110,note_off,240,0,9,,,,,,,,10,,,,63,64
19110,note_off,60,0,8,,,,,,,,8,,,,73,64
19110,note_on,0,0,6,,,,,,,,4,,,,63,30
19110,note_off,240,0,6,,,,,,,,4,,,,63,64
19110,note_on,0,0,8,,,,,,,,8,,,,72,30
19110,note_on,800,0,7,,,,,,,,5,,,,56,30
19110,note_off,60,0,5,,,,,,,,3,,,,73,64
19110,note_on,800,0,10,,,,,,,,11,,,,56,30
19110,note_on,0,0,5,,,,,,,,3,,,,72,30
19270,note_off,0,0,1,,,,,,,,12,,,,68,64
19270,note_off,1840,0,3,,,,,,,,1,,,,78,64
19270,note_off,400,0,1,,,,,,,,12,,,,72,64
19270,note_off,0,0,1,,,,,,,,12,,,,63,64
19270,note_off,1840,0,4,,,,,,,,2,,,,78,64
19290,note_off,180,0,8,,,,,,,,8,,,,72,64
19290,note_on,0,0,8,,,,,,,,8,,,,73,30
19290,note_off,180,0,5,,,,,,,,3,,,,72,64
19290,note_on,0,0,5,,,,,,,,3,,,,73,30
19345,note_off,235,0,2,,,,,,,,13,,,,44,64
19345,note_off,0,0,2,,,,,,,,13,,,,32,64
19345,note_off,235,0,10,,,,,,,,11,,,,56,64
19345,note_off,235,0,7,,,,,,,,5,,,,56,64
19350,note_on,5,0,2,,,,,,,,13,,,,32,45
19350,note_on,0,0,9,,,,,,,,10,,,,75,30
19350,note_off,60,0,5,,,,,,,,3,,,,73,64
19350,note_on,0,0,5,,,,,,,,3,,,,72,30
19350,note_on,0,0,2,,,,,,,,13,,,,44,45
19350,note_on,0,0,8,,,,,,,,8,,,,72,30
19350,note_on,5,0,10,,,,,,,,11,,,,56,30
19350,note_on,80,0,4,,,,,,,,2,,,,72,30
19350,note_off,240,0,6,,,,,,,,4,,,,63,64
19350,note_off,240,0,9,,,,,,,,10,,,,63,64
19350,note_on,80,0,3,,,,,,,,1,,,,72,45
19350,note_off,60,0,8,,,,,,,,8,,,,73,64
19350,note_on,5,0,7,,,,,,,,5,,,,56,30
19350,note_on,0,0,6,,,,,,,,4,,,,75,30
19350,set_tempo,1920,1,0,1621621,,,,,,,,,,,,
19530,note_off,180,0,5,,,,,,,,3,,,,72,64
19530,note_on,0,0,5,,,,,,,,3,,,,73,30
19530,note_off,180,0,6,,,,,,,,4,,,,75,64
19530,note_off,180,0,8,,,,,,,,8,,,,72,64
19530,note_on,0,0,9,,,,,,,,10,,,,76,30
19530,note_off,180,0,9,,,,,,,,10,,,,75,64
19530,note_on,0,0,6,,,,,,,,4,,,,76,30
19530,note_on,0,0,8,,,,,,,,8,,,,73,30
19590,note_off,60,0,8,,,,,,,,8,,,,73,64
19590,note_on,0,0,8,,,,,,,,8,,,,72,30
19590,note_on,0,0,9,,,,,,,,10,,,,75,30
19590,note_off,60,0,9,,,,,,,,10,,,,76,64
19590,note_off,60,0,6,,,,,,,,4,,,,76,64
19590,note_on,0,0,6,,,,,,,,4,,,,75,30
19590,note_off,60,0,5,,,,,,,,3,,,,73,64
19590,note_on,0,0,5,,,,,,,,3,,,,72,30
19750,note_off,400,0,10,,,,,,,,11,,,,56,64
19750,note_off,400,0,2,,,,,,,,13,,,,44,64
19750,note_off,0,0,2,,,,,,,,13,,,,32,64
19750,note_off,400,0,7,,,,,,,,5,,,,56,64
19770,note_on,0,0,6,,,,,,,,4,,,,76,30
19770,note_off,180,0,6,,,,,,,,4,,,,75,64
19770,note_off,180,0,8,,,,,,,,8,,,,72,64
19770,note_on,0,0,9,,,,,,,,10,,,,76,30
19770,note_off,180,0,5,,,,,,,,3,,,,72,64
19770,note_off,180,0,9,,,,,,,,10,,,,75,64
19770,note_on,0,0,8,,,,,,,,8,,,,73,30
19770,note_on,0,0,5,,,,,,,,3,,,,73,30
19830,note_on,0,0,3,,,,,,,,1,,,,68,45
19830,note_off,60,0,8,,,,,,,,8,,,,73,64
19830,note_on,0,0,8,,,,,,,,8,,,,72,30
19830,note_off,480,0,4,,,,,,,,2,,,,72,64
19830,note_on,0,0,4,,,,,,,,2,,,,68,30
19830,note_off,480,0,3,,,,,,,,1,,,,72,64
19830,note_off,60,0,9,,,,,,,,10,,,,76,64
19830,note_on,0,0,6,,,,,,,,4,,,,75,30
19830,set_tempo,480,1,0,1764705,,,,,,,,,,,,
19830,note_on,0,0,5,,,,,,,,3,,,,72,30
19830,note_off,60,0,6,,,,,,,,4,,,,76,64
19830,note_off,60,0,5,,,,,,,,3,,,,73,64
19830,note_on,0,0,9,,,,,,,,10,,,,75,30
20010,note_off,180,0,6,,,,,,,,4,,,,75,64
20010,note_on,0,0,6,,,,,,,,4,,,,76,30
20010,note_on,0,0,8,,,,,,,,8,,,,73,30
20010,note_on,0,0,5,,,,,,,,3,,,,73,30
20010,note_off,180,0,5,,,,,,,,3,,,,72,64
20010,note_on,0,0,9,,,,,,,,10,,,,76,30
20010,note_off,180,0,9,,,,,,,,10,,,,75,64
20010,note_off,180,0,8,,,,,,,,8,,,,72,64
20070,note_on,0,0,8,,,,,,,,8,,,,72,30
20070,note_on,0,0,5,,,,,,,,3,,,,72,30
20070,note_off,60,0,8,,,,,,,,8,,,,73,64
20070,note_off,60,0,5,,,,,,,,3,,,,73,64
20070,note_off,60,0,6,,,,,,,,4,,,,76,64
20070,note_off,60,0,9,,,,,,,,10,,,,76,64
20070,note_on,0,0,9,,,,,,,,10,,,,75,30
20070,note_on,0,0,6,,,,,,,,4,,,,75,30
20250,note_off,180,0,6,,,,,,,,4,,,,75,64
20250,note_off,180,0,9,,,,,,,,10,,,,75,64
20250,note_on,0,0,9,,,,,,,,10,,,,66,30
20250,note_off,180,0,8,,,,,,,,8,,,,72,64
20250,note_on,0,0,8,,,,,,,,8,,,,73,30
20250,note_on,0,0,5,,,,,,,,3,,,,73,30
20250,note_off,180,0,5,,,,,,,,3,,,,72,64
20250,note_on,0,0,6,,,,,,,,4,,,,66,30
20310,note_on,1040,0,1,,,,,,,,12,,,,61,45
20310,note_on,0,0,4,,,,,,,,2,,,,76,32
20310,note_off,480,0,4,,,,,,,,2,,,,68,64
20310,note_on,0,0,8,,,,,,,,8,,,,76,30
20310,note_on,0,0,3,,,,,,,,1,,,,76,47
20310,note_on,0,0,1,,,,,,,,12,,,,64,45
20310,note_off,60,0,8,,,,,,,,8,,,,73,64
20310,note_on,0,0,9,,,,,,,,10,,,,68,30
20310,note_off,60,0,9,,,,,,,,10,,,,66,64
20310,note_off,480,0,3,,,,,,,,1,,,,68,64
20310,note_on,0,0,1,,,,,,,,12,,,,68,45
20310,set_tempo,480,1,0,1500000,,,,,,,,,,,,
20310,note_off,60,0,5,,,,,,,,3,,,,73,64
20310,note_on,0,0,5,,,,,,,,3,,,,76,30
20310,note_on,0,0,6,,,,,,,,4,,,,68,30
20310,note_off,60,0,6,,,,,,,,4,,,,66,64
20490,note_off,180,0,8,,,,,,,,8,,,,76,64
20490,note_off,180,0,5,,,,,,,,3,,,,76,64
20490,note_on,0,0,6,,,,,,,,4,,,,69,30
20490,note_off,180,0,9,,,,,,,,10,,,,68,64
20490,note_on,0,0,9,,,,,,,,10,,,,69,30
20490,note_off,180,0,6,,,,,,,,4,,,,68,64
20490,note_on,0,0,8,,,,,,,,8,,,,78,30
20490,note_on,0,0,5,,,,,,,,3,,,,78,30
20550,note_on,0,0,5,,,,,,,,3,,,,76,30
20550,note_on,800,0,2,,,,,,,,13,,,,37,45
20550,note_on,0,0,2,,,,,,,,13,,,,49,45
20550,note_off,60,0,6,,,,,,,,4,,,,69,64
20550,note_on,800,0,7,,,,,,,,5,,,,61,30
20550,note_on,800,0,10,,,,,,,,11,,,,61,30
20550,note_on,0,0,6,,,,,,,,4,,,,68,30
20550,note_off,60,0,5,,,,,,,,3,,,,78,64
20550,note_on,0,0,9,,,,,,,,10,,,,68,30
20550,note_off,60,0,9,,,,,,,,10,,,,69,64
20550,note_on,0,0,8,,,,,,,,8,,,,76,30
20550,note_off,60,0,8,,,,,,,,8,,,,78,64
20710,note_off,400,0,1,,,,,,,,12,,,,68,64
20710,note_off,0,0,1,,,,,,,,12,,,,64,64
20710,note_off,0,0,1,,,,,,,,12,,,,61,64
20730,note_on,0,0,6,,,,,,,,4,,,,69,30
20730,note_on,0,0,9,,,,,,,,10,,,,69,30
20730,note_off,180,0,6,,,,,,,,4,,,,68,64
20730,note_off,180,0,9,,,,,,,,10,,,,68,64
20730,note_off,180,0,8,,,,,,,,8,,,,76,64
20730,note_on,0,0,8,,,,,,,,8,,,,78,30
20730,note_on,0,0,5,,,,,,,,3,,,,78,30
20730,note_off,180,0,5,,,,,,,,3,,,,76,64
20785,note_off,235,0,2,,,,,,,,13,,,,49,64
20785,note_off,235,0,10,,,,,,,,11,,,,61,64
20785,note_off,235,0,7,,,,,,,,5,,,,61,64
20785,note_off,0,0,2,,,,,,,,13,,,,37,64
20790,note_on,5,0,7,,,,,,,,5,,,,61,30
20790,note_off,60,0,8,,,,,,,,8,,,,78,64
20790,note_on,0,0,9,,,,,,,,10,,,,68,30
20790,note_off,60,0,9,,,,,,,,10,,,,69,64
20790,note_off,60,0,6,,,,,,,,4,,,,69,64
20790,note_on,0,0,6,,,,,,,,4,,,,68,30
20790,note_on,0,0,8,,,,,,,,8,,,,76,30
20790,note_off,480,0,3,,,,,,,,1,,,,76,64
20790,note_off,480,0,4,,,,,,,,2,,,,76,64
20790,note_on,0,0,4,,,,,,,,2,,,,73,34
20790,note_off,60,0,5,,,,,,,,3,,,,78,64
20790,note_on,5,0,2,,,,,,,,13,,,,37,45
20790,note_on,0,0,2,,,,,,,,13,,,,49,45
20790,note_on,0,0,5,,,,,,,,3,,,,76,30
20790,note_on,0,0,3,,,,,,,,1,,,,73,49
20790,note_on,5,0,10,,,,,,,,11,,,,61,30
20790,set_tempo,480,1,0,1395348,,,,,,,,,,,,
20790,note_on,80,0,1,,,,,,,,12,,,,61,45
20970,note_on,0,0,8,,,,,,,,8,,,,78,30
20970,note_off,180,0,5,,,,,,,,3,,,,76,64
20970,note_off,180,0,9,,,,,,,,10,,,,68,64
20970,note_off,180,0,6,,,,,,,,4,,,,68,64
20970,note_on,0,0,6,,,,,,,,4,,,,69,30
20970,note_on,0,0,5,,,,,,,,3,,,,78,30
20970,note_off,180,0,8,,,,,,,,8,,,,76,64
20970,note_on,0,0,9,,,,,,,,10,,,,69,30
21025,note_off,235,0,1,,,,,,,,12,,,,61,64
21030,note_on,0,0,9,,,,,,,,10,,,,68,30
21030,note_on,5,0,1,,,,,,,,12,,,,64,45
21030,note_on,0,0,6,,,,,,,,4,,,,68,30
21030,note_off,60,0,6,,,,,,,,4,,,,69,64
21030,note_on,0,0,5,,,,,,,,3,,,,76,30
21030,note_off,60,0,5,,,,,,,,3,,,,78,64
21030,note_off,60,0,8,,,,,,,,8,,,,78,64
21030,note_off,60,0,9,,,,,,,,10,,,,69,64
21030,note_on,0,0,8,,,,,,,,8,,,,76,30
21190,note_off,0,0,2,,,,,,,,13,,,,37,64
21190,note_off,400,0,2,,,,,,,,13,,,,49,64
21190,note_off,400,0,7,,,,,,,,5,,,,61,64
21190,note_off,400,0,10,,,,,,,,11,,,,61,64
21210,note_on,0,0,9,,,,,,,,10,,,,69,30
21210,note_off,180,0,9,,,,,,,,10,,,,68,64
21210,note_on,0,0,8,,,,,,,,8,,,,78,30
21210,note_off,180,0,8,,,,,,,,8,,,,76,64
21210,note_on,0,0,6,,,,,,,,4,,,,69,30
21210,note_off,180,0,5,,,,,,,,3,,,,76,64
21210,note_on,0,0,5,,,,,,,,3,,,,78,30
21210,note_off,180,0,6,,,,,,,,4,,,,68,64
21265,note_off,235,0,1,,,,,,,,12,,,,64,64
21270,note_off,60,0,9,,,,,,,,10,,,,69,64
21270,note_on,0,0,9,,,,,,,,10,,,,68,30
21270,note_on,0,0,6,,,,,,,,4,,,,68,30
21270,note_on,0,0,4,,,,,,,,2,,,,85,36
21270,note_off,480,0,4,,,,,,,,2,,,,73,64
21270,note_off,60,0,8,,,,,,,,8,,,,78,64
21270,note_on,0,0,5,,,,,,,,3,,,,76,30
21270,note_off,60,0,5,,,,,,,,3,,,,78,64
21270,note_on,0,0,8,,,,,,,,8,,,,76,30
21270,note_off,60,0,6,,,,,,,,4,,,,69,64
21270,set_tempo,480,1,0,1764705,,,,,,,,,,,,
21270,note_on,0,0,3,,,,,,,,1,,,,85,51
21270,note_off,480,0,3,,,,,,,,1,,,,73,64
21270,note_on,5,0,1,,,,,,,,12,,,,68,45
21450,note_on,0,0,8,,,,,,,,8,,,,78,30
21450,note_off,180,0,5,,,,,,,,3,,,,76,64
21450,note_off,180,0,9,,,,,,,,10,,,,68,64
21450,note_on,0,0,5,,,,,,,,3,,,,78,30
21450,note_on,0,0,9,,,,,,,,10,,,,69,30
21450,note_off,180,0,6,,,,,,,,4,,,,68,64
21450,note_on,0,0,6,,,,,,,,4,,,,69,30
21450,note_off,180,0,8,,,,,,,,8,,,,76,64
21505,note_off,235,0,1,,,,,,,,12,,,,68,64
21510,note_off,60,0,8,,,,,,,,8,,,,78,64
21510,note_off,60,0,9,,,,,,,,10,,,,69,64
21510,note_on,0,0,8,,,,,,,,8,,,,76,30
21510,note_off,60,0,5,,,,,,,,3,,,,78,64
21510,note_on,0,0,5,,,,,,,,3,,,,76,30
21510,note_on,5,0,1,,,,,,,,12,,,,73,45
21510,note_on,0,0,6,,,,,,,,4,,,,68,30
21510,note_off,60,0,6,,,,,,,,4,,,,69,64
21510,note_on,0,0,9,,,,,,,,10,,,,68,30
21690,note_off,180,0,9,,,,,,,,10,,,,68,64
21690,note_on,0,0,9,,,,,,,,10,,,,69,30
21690,note_off,180,0,5,,,,,,,,3,,,,76,64
21690,note_on,0,0,6,,,,,,,,4,,,,69,30
21690,note_on,0,0,5,,,,,,,,3,,,,78,30
21690,note_off,180,0,8,,,,,,,,8,,,,76,64
21690,note_on,0,0,8,,,,,,,,8,,,,78,30
21690,note_off,180,0,6,,,,,,,,4,,,,68,64
21745,note_off,55,0,6,,,,,,,,4,,,,69,64
21745,note_off,55,0,5,,,,,,,,3,,,,78,64
21745,note_off,235,0,1,,,,,,,,12,,,,73,64
21745,note_off,55,0,8,,,,,,,,8,,,,78,64
21745,note_off,55,0,9,,,,,,,,10,,,,69,64
21750,note_on,0,0,4,,,,,,,,2,,,,79,38
21750,set_tempo,480,1,0,1500000,,,,,,,,,,,,
21750,note_on,5,0,5,,,,,,,,3,,,,75,30
21750,note_on,5,0,8,,,,,,,,8,,,,75,30
21750,note_off,480,0,4,,,,,,,,2,,,,85,64
21750,note_on,0,0,3,,,,,,,,1,,,,79,53
21750,note_on,5,0,9,,,,,,,,10,,,,70,30
21750,note_off,480,0,3,,,,,,,,1,,,,85,64
21750,note_on,5,0,6,,,,,,,,4,,,,70,30
21750,note_on,5,0,1,,,,,,,,12,,,,61,45
21750,note_on,0,0,1,,,,,,,,12,,,,67,45
21750,note_on,0,0,1,,,,,,,,12,,,,70,45
21930,note_on,0,0,5,,,,,,,,3,,,,76,30
21930,note_off,180,0,5,,,,,,,,3,,,,75,64
21930,note_on,0,0,8,,,,,,,,8,,,,76,30
21930,note_off,180,0,8,,,,,,,,8,,,,75,64
21990,note_off,60,0,5,,,,,,,,3,,,,76,64
21990,note_on,0,0,2,,,,,,,,13,,,,49,45
21990,note_on,0,0,6,,,,,,,,4,,,,70,30
21990,note_on,800,0,2,,,,,,,,13,,,,37,45
21990,note_off,240,0,6,,,,,,,,4,,,,70,64
21990,note_on,0,0,5,,,,,,,,3,,,,75,30
21990,note_on,800,0,10,,,,,,,,11,,,,61,30
21990,note_on,800,0,7,,,,,,,,5,,,,61,30
21990,note_on,0,0,8,,,,,,,,8,,,,75,30
21990,note_off,240,0,9,,,,,,,,10,,,,70,64
21990,note_on,0,0,9,,,,,,,,10,,,,70,30
21990,note_off,60,0,8,,,,,,,,8,,,,76,64
22150,note_off,0,0,1,,,,,,,,12,,,,61,64
22150,note_off,400,0,1,,,,,,,,12,,,,70,64
22150,note_off,0,0,1,,,,,,,,12,,,,67,64
22170,note_off,180,0,8,,,,,,,,8,,,,75,64
22170,note_on,0,0,5,,,,,,,,3,,,,76,30
22170,note_on,0,0,8,,,,,,,,8,,,,76,30
22170,note_off,180,0,5,,,,,,,,3,,,,75,64
22225,note_off,235,0,2,,,,,,,,13,,,,49,64
22225,note_off,235,0,7,,,,,,,,5,,,,61,64
22225,note_off,0,0,2,,,,,,,,13,,,,37,64
22225,note_off,235,0,10,,,,,,,,11,,,,61,64
22230,note_off,480,0,3,,,,,,,,1,,,,79,64
22230,note_on,0,0,2,,,,,,,,13,,,,49,45
22230,note_on,0,0,3,,,,,,,,1,,,,75,55
22230,note_off,60,0,8,,,,,,,,8,,,,76,64
22230,note_on,0,0,8,,,,,,,,8,,,,75,30
22230,note_on,5,0,2,,,,,,,,13,,,,37,45
22230,note_off,60,0,5,,,,,,,,3,,,,76,64
22230,note_off,480,0,4,,,,,,,,2,,,,79,64
22230,note_on,5,0,7,,,,,,,,5,,,,61,30
22230,note_on,5,0,10,,,,,,,,11,,,,61,30
22230,note_on,0,0,6,,,,,,,,4,,,,70,30
22230,note_on,0,0,5,,,,,,,,3,,,,75,30
22230,note_off,240,0,9,,,,,,,,10,,,,70,64
22230,note_on,0,0,9,,,,,,,,10,,,,70,30
22230,note_off,240,0,6,,,,,,,,4,,,,70,64
22230,note_on,0,0,4,,,,,,,,2,,,,75,40
22410,note_off,180,0,5,,,,,,,,3,,,,75,64
22410,note_on,0,0,5,,,,,,,,3,,,,76,30
22410,note_off,180,0,8,,,,,,,,8,,,,75,64
22410,note_on,0,0,8,,,,,,,,8,,,,76,30
22470,note_off,240,0,6,,,,,,,,4,,,,70,64
22470,note_off,60,0,5,,,,,,,,3,,,,76,64
22470,note_on,0,0,5,,,,,,,,3,,,,75,30
22470,note_on,0,0,6,,,,,,,,4,,,,70,30
22470,note_off,60,0,8,,,,,,,,8,,,,76,64
22470,note_on,0,0,8,,,,,,,,8,,,,75,30
22470,note_off,240,0,9,,,,,,,,10,,,,70,64
22470,note_on,0,0,9,,,,,,,,10,,,,70,30
22630,note_off,400,0,7,,,,,,,,5,,,,61,64
22630,note_off,400,0,10,,,,,,,,11,,,,61,64
22630,note_off,400,0,2,,,,,,,,13,,,,49,64
22630,note_off,0,0,2,,,,,,,,13,,,,37,64
22650,note_off,180,0,8,,,,,,,,8,,,,75,64
22650,note_on,0,0,5,,,,,,,,3,,,,76,30
22650,note_off,180,0,5,,,,,,,,3,,,,75,64
22650,note_on,0,0,8,,,,,,,,8,,,,76,30
22710,note_off,60,0,5,,,,,,,,3,,,,76,64
22710,note_off,240,0,6,,,,,,,,4,,,,70,64
22710,set_tempo,960,1,0,1621621,,,,,,,,,,,,
22710,note_off,240,0,9,,,,,,,,10,,,,70,64
22710,note_on,0,0,6,,,,,,,,4,,,,71,30
22710,note_on,0,0,9,,,,,,,,10,,,,71,30
22710,note_off,480,0,3,,,,,,,,1,,,,75,64
22710,note_on,0,0,3,,,,,,,,1,,,,80,57
22710,note_on,0,0,4,,,,,,,,2,,,,80,42
22710,note_off,480,0,4,,,,,,,,2,,,,75,64
22710,note_on,0,0,8,,,,,,,,8,,,,75,30
22710,note_on,0,0,5,,,,,,,,3,,,,75,30
22710,note_off,60,0,8,,,,,,,,8,,,,76,64
22890,note_on,0,0,8,,,,,,,,8,,,,76,30
22890,note_on,0,0,5,,,,,,,,3,,,,76,30
22890,note_off,180,0,8,,,,,,,,8,,,,75,64
22890,note_on,0,0,9,,,,,,,,10,,,,73,30
22890,note_off,180,0,9,,,,,,,,10,,,,71,64
22890,note_off,180,0,5,,,,,,,,3,,,,75,64
22890,note_on,0,0,6,,,,,,,,4,,,,73,30
22890,note_off,180,0,6,,,,,,,,4,,,,71,64
22950,note_on,0,0,5,,,,,,,,3,,,,75,30
22950,note_off,60,0,5,,,,,,,,3,,,,76,64
22950,note_off,60,0,8,,,,,,,,8,,,,76,64
22950,note_on,0,0,8,,,,,,,,8,,,,75,30
22950,note_on,0,0,6,,,,,,,,4,,,,71,30
22950,note_on,0,0,9,,,,,,,,10,,,,71,30
22950,note_off,60,0,9,,,,,,,,10,,,,73,64
22950,note_off,60,0,6,,,,,,,,4,,,,73,64
23130,note_on,0,0,6,,,,,,,,4,,,,73,30
23130,note_off,180,0,9,,,,,,,,10,,,,71,64
23130,note_on,0,0,8,,,,,,,,8,,,,76,30
23130,note_on,0,0,9,,,,,,,,10,,,,73,30
23130,note_off,180,0,5,,,,,,,,3,,,,75,64
23130,note_on,0,0,5,,,,,,,,3,,,,76,30
23130,note_off,180,0,6,,,,,,,,4,,,,71,64
23130,note_off,180,0,8,,,,,,,,8,,,,75,64
23190,note_on,0,0,3,,,,,,,,1,,,,82,60
23190,note_off,480,0,4,,,,,,,,2,,,,80,64
23190,note_on,0,0,4,,,,,,,,2,,,,82,45
23190,note_off,480,0,3,,,,,,,,1,,,,80,64
23190,note_off,60,0,6,,,,,,,,4,,,,73,64
23190,note_on,0,0,5,,,,,,,,3,,,,75,30
23190,note_on,1040,0,1,,,,,,,,12,,,,61,45
23190,note_on,0,0,9,,,,,,,,10,,,,70,30
23190,note_off,60,0,9,,,,,,,,10,,,,73,64
23190,note_on,0,0,8,,,,,,,,8,,,,75,30
23190,note_on,0,0,1,,,,,,,,12,,,,70,45
23190,set_tempo,480,1,0,1764705,,,,,,,,,,,,
23190,note_off,60,0,8,,,,,,,,8,,,,76,64
23190,note_off,60,0,5,,,,,,,,3,,,,76,64
23190,note_on,0,0,1,,,,,,,,12,,,,67,45
23190,note_on,0,0,6,,,,,,,,4,,,,70,30
23370,note_off,180,0,5,,,,,,,,3,,,,75,64
23370,note_off,180,0,8,,,,,,,,8,,,,75,64
23370,note_on,0,0,8,,,,,,,,8,,,,76,30
23370,note_on,0,0,5,,,,,,,,3,,,,76,30
23430,note_on,0,0,6,,,,,,,,4,,,,70,30
23430,note_off,60,0,8,,,,,,,,8,,,,76,64
23430,note_on,0,0,8,,,,,,,,8,,,,75,30
23430,note_on,800,0,7,,,,,,,,5,,,,63,30
23430,note_off,240,0,6,,,,,,,,4,,,,70,64
23430,note_on,0,0,9,,,,,,,,10,,,,70,30
23430,note_off,240,0,9,,,,,,,,10,,,,70,64
23430,note_on,800,0,2,,,,,,,,13,,,,39,45
23430,note_on,0,0,2,,,,,,,,13,,,,51,45
23430,note_on,800,0,10,,,,,,,,11,,,,63,30
23430,note_off,60,0,5,,,,,,,,3,,,,76,64
23430,note_on,0,0,5,,,,,,,,3,,,,75,30
23590,note_off,400,0,1,,,,,,,,12,,,,70,64
23590,note_off,0,0,1,,,,,,,,12,,,,61,64
23590,note_off,0,0,1,,,,,,,,12,,,,67,64
23590,note_off,400,0,4,,,,,,,,2,,,,82,64
23590,note_off,400,0,3,,,,,,,,1,,,,82,64
23610,note_on,0,0,5,,,,,,,,3,,,,76,30
23610,note_off,180,0,8,,,,,,,,8,,,,75,64
23610,note_on,0,0,8,,,,,,,,8,,,,76,30
23610,note_off,180,0,5,,,,,,,,3,,,,75,64
23665,note_off,0,0,2,,,,,,,,13,,,,39,64
23665,note_off,235,0,2,,,,,,,,13,,,,51,64
23665,note_off,235,0,7,,,,,,,,5,,,,63,64
23665,note_off,235,0,10,,,,,,,,11,,,,63,64
23670,note_off,240,0,6,,,,,,,,4,,,,70,64
23670,note_on,5,0,2,,,,,,,,13,,,,39,45
23670,note_on,0,0,6,,,,,,,,4,,,,70,30
23670,note_on,80,0,3,,,,,,,,1,,,,79,60
23670,note_on,0,0,8,,,,,,,,8,,,,75,30
23670,note_on,0,0,2,,,,,,,,13,,,,51,45
23670,note_off,60,0,8,,,,,,,,8,,,,76,64
23670,note_on,5,0,7,,,,,,,,5,,,,63,30
23670,note_on,80,0,4,,,,,,,,2,,,,79,45
23670,note_on,0,0,9,,,,,,,,10,,,,70,30
23670,note_off,240,0,9,,,,,,,,10,,,,70,64
23670,note_on,80,0,1,,,,,,,,12,,,,61,45
23670,note_off,60,0,5,,,,,,,,3,,,,76,64
23670,note_on,0,0,5,,,,,,,,3,,,,75,30
23670,note_on,5,0,10,,,,,,,,11,,,,63,30
23670,set_tempo,480,1,0,1578947,,,,,,,,,,,,
23700,note_on,0,0,3,,,,,,,,1,,,,80,60
23700,note_off,30,0,3,,,,,,,,1,,,,79,64
23730,note_on,0,0,4,,,,,,,,2,,,,80,45
23730,note_off,60,0,4,,,,,,,,2,,,,79,64
23730,note_off,30,0,3,,,,,,,,1,,,,80,64
23730,note_on,0,0,3,,,,,,,,1,,,,79,60
23760,note_off,30,0,3,,,,,,,,1,,,,79,64
23760,note_on,0,0,3,,,,,,,,1,,,,80,60
23790,note_on,0,0,3,,,,,,,,1,,,,79,60
23790,note_off,30,0,3,,,,,,,,1,,,,80,64
23790,note_off,60,0,4,,,,,,,,2,,,,80,64
23790,note_on,0,0,4,,,,,,,,2,,,,79,44
23820,note_on,0,0,3,,,,,,,,1,,,,80,60
23820,note_off,30,0,3,,,,,,,,1,,,,79,64
23850,note_off,30,0,3,,,,,,,,1,,,,80,64
23850,note_on,0,0,3,,,,,,,,1,,,,79,60
23850,note_off,180,0,5,,,,,,,,3,,,,75,64
23850,note_on,0,0,5,,,,,,,,3,,,,76,30
23850,note_off,60,0,4,,,,,,,,2,,,,79,64
23850,note_on,0,0,4,,,,,,,,2,,,,80,43
23850,note_on,0,0,8,,,,,,,,8,,,,76,30
23850,note_off,180,0,8,,,,,,,,8,,,,75,64
23880,note_on,0,0,3,,,,,,,,1,,,,80,60
23880,note_off,30,0,3,,,,,,,,1,,,,79,64
23905,note_off,235,0,1,,,,,,,,12,,,,61,64
23910,note_off,60,0,8,,,,,,,,8,,,,76,64
23910,note_on,0,0,5,,,,,,,,3,,,,75,30
23910,note_off,240,0,9,,,,,,,,10,,,,70,64
23910,note_on,5,0,1,,,,,,,,12,,,,67,45
23910,note_off,60,0,5,,,,,,,,3,,,,76,64
23910,note_on,0,0,3,,,,,,,,1,,,,79,60
23910,note_off,30,0,3,,,,,,,,1,,,,80,64
23910,note_off,60,0,4,,,,,,,,2,,,,80,64
23910,note_on,0,0,9,,,,,,,,10,,,,70,30
23910,note_on,0,0,4,,,,,,,,2,,,,79,42
23910,note_on,0,0,8,,,,,,,,8,,,,75,30
23910,note_off,240,0,6,,,,,,,,4,,,,70,64
23910,note_on,0,0,6,,,,,,,,4,,,,70,30
23940,note_on,0,0,3,,,,,,,,1,,,,80,60
23940,note_off,30,0,3,,,,,,,,1,,,,79,64
23970,note_on,0,0,4,,,,,,,,2,,,,80,41
23970,note_off,60,0,4,,,,,,,,2,,,,79,64
23970,note_off,30,0,3,,,,,,,,1,,,,80,64
23970,note_on,0,0,3,,,,,,,,1,,,,79,60
24000,note_off,30,0,3,,,,,,,,1,,,,79,64
24000,note_on,0,0,3,,,,,,,,1,,,,80,60
24030,note_off,60,0,4,,,,,,,,2,,,,80,64
24030,note_off,30,0,3,,,,,,,,1,,,,80,64
24030,note_on,0,0,4,,,,,,,,2,,,,79,40
24030,note_on,0,0,3,,,,,,,,1,,,,79,60
24060,note_off,30,0,3,,,,,,,,1,,,,79,64
24060,note_on,0,0,3,,,,,,,,1,,,,80,60
24070,note_off,400,0,2,,,,,,,,13,,,,51,64
24070,note_off,0,0,2,,,,,,,,13,,,,39,64
24070,note_off,400,0,7,,,,,,,,5,,,,63,64
24070,note_off,400,0,10,,,,,,,,11,,,,63,64
24090,note_off,30,0,3,,,,,,,,1,,,,80,64
24090,note_off,180,0,5,,,,,,,,3,,,,75,64
24090,note_on,0,0,5,,,,,,,,3,,,,76,30
24090,note_on,0,0,8,,,,,,,,8,,,,76,30
24090,note_off,180,0,8,,,,,,,,8,,,,75,64
24090,note_on,0,0,3,,,,,,,,1,,,,79,60
24090,note_on,0,0,4,,,,,,,,2,,,,80,39
24090,note_off,60,0,4,,,,,,,,2,,,,79,64
24120,note_off,30,0,3,,,,,,,,1,,,,79,64
24120,note_on,0,0,3,,,,,,,,1,,,,80,60
24145,note_off,235,0,1,,,,,,,,12,,,,67,64
24150,note_on,0,0,5,,,,,,,,3,,,,75,30
24150,note_on,5,0,1,,,,,,,,12,,,,70,45
24150,note_on,0,0,4,,,,,,,,2,,,,79,38
24150,note_off,60,0,5,,,,,,,,3,,,,76,64
24150,note_on,0,0,6,,,,,,,,4,,,,70,30
24150,note_on,0,0,3,,,,,,,,1,,,,79,60
24150,note_off,240,0,6,,,,,,,,4,,,,70,64
24150,set_tempo,480,1,0,1666666,,,,,,,,,,,,
24150,note_off,240,0,9,,,,,,,,10,,,,70,64
24150,note_off,60,0,4,,,,,,,,2,,,,80,64
24150,note_on,0,0,8,,,,,,,,8,,,,75,30
24150,note_off,60,0,8,,,,,,,,8,,,,76,64
24150,note_on,0,0,9,,,,,,,,10,,,,70,30
24150,note_off,30,0,3,,,,,,,,1,,,,80,64
24180,note_on,0,0,3,,,,,,,,1,,,,80,60
24180,note_off,30,0,3,,,,,,,,1,,,,79,64
24210,note_on,0,0,4,,,,,,,,2,,,,80,37
24210,note_off,60,0,4,,,,,,,,2,,,,79,64
24210,note_on,0,0,3,,,,,,,,1,,,,79,59
24210,note_off,30,0,3,,,,,,,,1,,,,80,64
24240,note_off,30,0,3,,,,,,,,1,,,,79,64
24240,note_on,0,0,3,,,,,,,,1,,,,80,58
24270,note_on,0,0,3,,,,,,,,1,,,,79,57
24270,note_off,60,0,4,,,,,,,,2,,,,80,64
24270,note_off,30,0,3,,,,,,,,1,,,,80,64
24270,note_on,0,0,4,,,,,,,,2,,,,79,36
24300,note_on,0,0,3,,,,,,,,1,,,,80,56
24300,note_off,30,0,3,,,,,,,,1,,,,79,64
24330,note_on,0,0,3,,,,,,,,1,,,,79,55
24330,note_off,30,0,3,,,,,,,,1,,,,80,64
24330,note_off,180,0,8,,,,,,,,8,,,,75,64
24330,note_on,0,0,8,,,,,,,,8,,,,76,30
24330,note_off,180,0,5,,,,,,,,3,,,,75,64
24330,note_on,0,0,5,,,,,,,,3,,,,76,30
24330,note_off,60,0,4,,,,,,,,2,,,,79,64
24330,note_on,0,0,4,,,,,,,,2,,,,80,35
24360,note_on,0,0,3,,,,,,,,1,,,,80,54
24360,note_off,30,0,3,,,,,,,,1,,,,79,64
24385,note_off,235,0,1,,,,,,,,12,,,,70,64
24390,note_on,0,0,5,,,,,,,,3,,,,75,30
24390,note_on,0,0,3,,,,,,,,1,,,,79,53
24390,note_off,30,0,3,,,,,,,,1,,,,80,64
24390,note_on,0,0,9,,,,,,,,10,,,,70,30
24390,note_on,0,0,4,,,,,,,,2,,,,79,34
24390,note_off,60,0,4,,,,,,,,2,,,,80,64
24390,note_off,240,0,9,,,,,,,,10,,,,70,64
24390,note_off,60,0,8,,,,,,,,8,,,,76,64
24390,set_tempo,240,1,0,1764705,,,,,,,,,,,,
24390,note_off,240,0,6,,,,,,,,4,,,,70,64
24390,note_on,0,0,6,,,,,,,,4,,,,70,30
24390,note_on,5,0,1,,,,,,,,12,,,,73,45
24390,note_off,60,0,5,,,,,,,,3,,,,76,64
24390,note_on,0,0,8,,,,,,,,8,,,,75,30
24420,note_off,30,0,3,,,,,,,,1,,,,79,64
24420,note_on,0,0,3,,,,,,,,1,,,,80,52
24450,note_on,0,0,4,,,,,,,,2,,,,80,33
24450,note_off,60,0,4,,,,,,,,2,,,,79,64
24450,note_off,30,0,3,,,,,,,,1,,,,80,64
24450,note_on,0,0,3,,,,,,,,1,,,,79,51
24480,note_on,0,0,3,,,,,,,,1,,,,80,50
24480,note_off,30,0,3,,,,,,,,1,,,,79,64
24510,note_off,30,0,3,,,,,,,,1,,,,80,64
24510,note_on,0,0,3,,,,,,,,1,,,,79,49
24510,note_off,60,0,4,,,,,,,,2,,,,80,64
24510,note_on,0,0,4,,,,,,,,2,,,,79,32
24540,note_on,0,0,3,,,,,,,,1,,,,80,48
24540,note_off,30,0,3,,,,,,,,1,,,,79,64
24570,note_off,30,0,3,,,,,,,,1,,,,80,64
24570,note_off,180,0,8,,,,,,,,8,,,,75,64
24570,note_on,0,0,4,,,,,,,,2,,,,80,31
24570,note_on,0,0,8,,,,,,,,8,,,,73,30
24570,note_on,0,0,5,,,,,,,,3,,,,73,30
24570,note_off,60,0,4,,,,,,,,2,,,,79,64
24570,note_off,180,0,5,,,,,,,,3,,,,75,64
24570,note_on,0,0,3,,,,,,,,1,,,,79,47
24600,note_off,30,0,3,,,,,,,,1,,,,79,64
24600,note_on,0,0,3,,,,,,,,1,,,,80,46
24625,note_off,235,0,9,,,,,,,,10,,,,70,64
24625,note_off,55,0,8,,,,,,,,8,,,,73,64
24625,note_off,235,0,1,,,,,,,,12,,,,73,64
24625,note_off,55,0,5,,,,,,,,3,,,,73,64
24625,note_off,235,0,6,,,,,,,,4,,,,70,64
24630,note_on,5,0,6,,,,,,,,4,,,,68,30
24630,note_on,0,0,1,,,,,,,,12,,,,68,45
24630,note_on,0,0,4,,,,,,,,2,,,,80,30
24630,note_off,30,0,3,,,,,,,,1,,,,80,64
24630,note_on,5,0,9,,,,,,,,10,,,,68,30
24630,note_on,0,0,1,,,,,,,,12,,,,71,45
24630,note_on,0,0,3,,,,,,,,1,,,,80,45
24630,note_on,5,0,5,,,,,,,,3,,,,71,30
24630,note_on,5,0,8,,,,,,,,8,,,,71,30
24630,set_tempo,240,1,0,1500000,,,,,,,,,,,,
24630,note_off,60,0,4,,,,,,,,2,,,,80,64
24630,note_on,5,0,1,,,,,,,,12,,,,63,45
24810,note_off,180,0,5,,,,,,,,3,,,,71,64
24810,note_on,0,0,6,,,,,,,,4,,,,70,30
24810,note_on,0,0,5,,,,,,,,3,,,,73,30
24810,note_on,0,0,8,,,,,,,,8,,,,73,30
24810,note_off,180,0,9,,,,,,,,10,,,,68,64
24810,note_on,0,0,9,,,,,,,,10,,,,70,30
24810,note_off,180,0,6,,,,,,,,4,,,,68,64
24810,note_off,180,0,8,,,,,,,,8,,,,71,64
24870,note_on,800,0,7,,,,,,,,5,,,,56,30
24870,note_on,0,0,8,,,,,,,,8,,,,71,30
24870,note_on,800,0,10,,,,,,,,11,,,,56,30
24870,note_off,60,0,6,,,,,,,,4,,,,70,64
24870,note_on,0,0,2,,,,,,,,13,,,,44,45
24870,note_on,0,0,5,,,,,,,,3,,,,71,30
24870,note_off,60,0,5,,,,,,,,3,,,,73,64
24870,note_on,0,0,6,,,,,,,,4,,,,68,30
24870,note_off,60,0,9,,,,,,,,10,,,,70,64
24870,note_on,0,0,9,,,,,,,,10,,,,68,30
24870,note_off,60,0,8,,,,,,,,8,,,,73,64
24870,note_on,800,0,2,,,,,,,,13,,,,32,45
25030,note_off,400,0,1,,,,,,,,12,,,,71,64
25030,note_off,0,0,1,,,,,,,,12,,,,68,64
25030,note_off,0,0,1,,,,,,,,12,,,,63,64
25050,note_off,180,0,8,,,,,,,,8,,,,71,64
25050,note_off,180,0,9,,,,,,,,10,,,,68,64
25050,note_on,0,0,9,,,,,,,,10,,,,70,30
25050,note_on,0,0,6,,,,,,,,4,,,,70,30
25050,note_on,0,0,8,,,,,,,,8,,,,73,30
25050,note_on,0,0,5,,,,,,,,3,,,,73,30
25050,note_off,180,0,5,,,,,,,,3,,,,71,64
25050,note_off,180,0,6,,,,,,,,4,,,,68,64
25105,note_off,235,0,10,,,,,,,,11,,,,56,64
25105,note_off,235,0,7,,,,,,,,5,,,,56,64
25105,note_off,235,0,2,,,,,,,,13,,,,44,64
25105,note_off,0,0,2,,,,,,,,13,,,,32,64
25110,note_off,60,0,6,,,,,,,,4,,,,70,64
25110,note_off,60,0,5,,,,,,,,3,,,,73,64
25110,note_on,0,0,6,,,,,,,,4,,,,68,30
25110,note_on,5,0,10,,,,,,,,11,,,,56,30
25110,note_on,0,0,5,,,,,,,,3,,,,71,30
25110,note_on,0,0,2,,,,,,,,13,,,,44,45
25110,note_on,5,0,2,,,,,,,,13,,,,32,45
25110,note_on,5,0,7,,,,,,,,5,,,,56,30
25110,note_off,60,0,9,,,,,,,,10,,,,70,64
25110,note_on,0,0,9,,,,,,,,10,,,,68,30
25110,note_on,0,0,8,,,,,,,,8,,,,71,30
25110,note_off,60,0,8,,,,,,,,8,,,,73,64
25290,note_off,180,0,9,,,,,,,,10,,,,68,64
25290,note_on,0,0,5,,,,,,,,3,,,,73,30
25290,note_off,180,0,5,,,,,,,,3,,,,71,64
25290,note_on,0,0,9,,,,,,,,10,,,,70,30
25290,note_on,0,0,8,,,,,,,,8,,,,73,30
25290,note_off,180,0,8,,,,,,,,8,,,,71,64
25290,note_off,180,0,6,,,,,,,,4,,,,68,64
25290,note_on,0,0,6,,,,,,,,4,,,,70,30
25350,note_off,60,0,6,,,,,,,,4,,,,70,64
25350,note_off,60,0,9,,,,,,,,10,,,,70,64
25350,note_on,0,0,8,,,,,,,,8,,,,71,30
25350,note_on,0,0,9,,,,,,,,10,,,,68,30
25350,note_off,60,0,5,,,,,,,,3,,,,73,64
25350,note_on,0,0,5,,,,,,,,3,,,,71,30
25350,note_off,60,0,8,,,,,,,,8,,,,73,64
25350,note_on,0,0,6,,,,,,,,4,,,,68,30
25510,note_off,400,0,10,,,,,,,,11,,,,56,64
25510,note_off,400,0,7,,,,,,,,5,,,,56,64
25510,note_off,0,0,2,,,,,,,,13,,,,32,64
25510,note_off,400,0,2,,,,,,,,13,,,,44,64
25530,note_off,180,0,6,,,,,,,,4,,,,68,64
25530,note_off,180,0,8,,,,,,,,8,,,,71,64
25530,note_on,0,0,9,,,,,,,,10,,,,70,30
25530,note_off,180,0,5,,,,,,,,3,,,,71,64
25530,note_off,180,0,9,,,,,,,,10,,,,68,64
25530,note_on,0,0,6,,,,,,,,4,,,,70,30
25530,note_on,0,0,5,,,,,,,,3,,,,73,30
25530,note_on,0,0,8,,,,,,,,8,,,,73,30
25590,note_off,60,0,9,,,,,,,,10,,,,70,64
25590,note_on,0,0,9,,,,,,,,10,,,,68,30
25590,note_off,60,0,6,,,,,,,,4,,,,70,64
25590,note_on,0,0,8,,,,,,,,8,,,,71,30
25590,note_on,0,0,5,,,,,,,,3,,,,71,30
25590,note_off,60,0,5,,,,,,,,3,,,,73,64
25590,note_on,0,0,6,,,,,,,,4,,,,68,30
25590,note_off,60,0,8,,,,,,,,8,,,,73,64
25770,note_on,0,0,5,,,,,,,,3,,,,73,30
25770,note_on,0,0,8,,,,,,,,8,,,,73,30
25770,note_off,180,0,5,,,,,,,,3,,,,71,64
25770,note_off,180,0,9,,,,,,,,10,,,,68,64
25770,note_on,0,0,9,,,,,,,,10,,,,73,30
25770,note_off,180,0,8,,,,,,,,8,,,,71,64
25770,note_off,180,0,6,,,,,,,,4,,,,68,64
25770,note_on,0,0,6,,,,,,,,4,,,,73,30
25830,note_off,60,0,9,,,,,,,,10,,,,73,64
25830,note_on,0,0,9,,,,,,,,10,,,,71,30
25830,note_off,60,0,8,,,,,,,,8,,,,73,64
25830,note_on,0,0,5,,,,,,,,3,,,,71,30
25830,note_off,60,0,5,,,,,,,,3,,,,73,64
25830,note_on,0,0,8,,,,,,,,8,,,,71,30
25830,note_on,0,0,6,,,,,,,,4,,,,71,30
25830,note_off,60,0,6,,,,,,,,4,,,,73,64
25950,note_off,1320,0,4,,,,,,,,2,,,,80,64
25950,note_off,1320,0,3,,,,,,,,1,,,,80,64
26010,note_on,0,0,6,,,,,,,,4,,,,70,30
26010,note_off,180,0,5,,,,,,,,3,,,,71,64
26010,note_on,0,0,5,,,,,,,,3,,,,69,30
26010,note_off,180,0,6,,,,,,,,4,,,,71,64
26010,note_on,0,0,8,,,,,,,,8,,,,69,30
26010,note_off,180,0,8,,,,,,,,8,,,,71,64
26010,note_off,180,0,9,,,,,,,,10,,,,71,64
26010,note_on,0,0,9,,,,,,,,10,,,,70,30
26070,note_off,60,0,6,,,,,,,,4,,,,70,64
26070,note_off,60,0,9,,,,,,,,10,,,,70,64
26070,note_on,0,0,9,,,,,,,,10,,,,68,30
26070,note_on,0,0,6,,,,,,,,4,,,,68,30
26070,note_on,0,0,1,,,,,,,,12,,,,71,45
26070,note_on,0,0,1,,,,,,,,12,,,,68,45
26070,note_on,1040,0,1,,,,,,,,12,,,,63,45
26070,note_off,60,0,5,,,,,,,,3,,,,69,64
26070,note_on,0,0,8,,,,,,,,8,,,,71,30
26070,note_off,60,0,8,,,,,,,,8,,,,69,64
26070,note_on,0,0,5,,,,,,,,3,,,,71,30
26250,note_on,0,0,9,,,,,,,,10,,,,70,30
26250,note_off,180,0,5,,,,,,,,3,,,,71,64
26250,note_on,0,0,5,,,,,,,,3,,,,73,30
26250,note_off,180,0,8,,,,,,,,8,,,,71,64
26250,note_on,0,0,6,,,,,,,,4,,,,70,30
26250,note_on,0,0,8,,,,,,,,8,,,,73,30
26250,note_off,180,0,9,,,,,,,,10,,,,68,64
26250,note_off,180,0,6,,,,,,,,4,,,,68,64
26310,note_off,60,0,6,,,,,,,,4,,,,70,64
26310,note_on,0,0,9,,,,,,,,10,,,,68,30
26310,set_tempo,1680,1,0,1578947,,,,,,,,,,,,
26310,note_on,0,0,8,,,,,,,,8,,,,71,30
26310,note_off,60,0,8,,,,,,,,8,,,,73,64
26310,note_on,800,0,7,,,,,,,,5,,,,56,30
26310,note_on,800,0,10,,,,,,,,11,,,,56,30
26310,note_on,0,0,2,,,,,,,,13,,,,44,45
26310,note_on,800,0,2,,,,,,,,13,,,,32,45
26310,note_on,0,0,6,,,,,,,,4,,,,68,30
26310,note_off,60,0,9,,,,,,,,10,,,,70,64
26310,note_on,0,0,5,,,,,,,,3,,,,71,30
26310,note_off,60,0,5,,,,,,,,3,,,,73,64
26470,note_off,400,0,1,,,,,,,,12,,,,71,64
26470,note_off,0,0,1,,,,,,,,12,,,,68,64
26470,note_off,0,0,1,,,,,,,,12,,,,63,64
26490,note_on,0,0,9,,,,,,,,10,,,,70,30
26490,note_off,180,0,6,,,,,,,,4,,,,68,64
26490,note_on,0,0,6,,,,,,,,4,,,,70,30
26490,note_on,0,0,8,,,,,,,,8,,,,73,30
26490,note_off,180,0,8,,,,,,,,8,,,,71,64
26490,note_off,180,0,9,,,,,,,,10,,,,68,64
26490,note_off,180,0,5,,,,,,,,3,,,,71,64
26490,note_on,0,0,5,,,,,,,,3,,,,73,30
26545,note_off,235,0,7,,,,,,,,5,,,,56,64
26545,note_off,0,0,2,,,,,,,,13,,,,32,64
26545,note_off,235,0,2,,,,,,,,13,,,,44,64
26545,note_off,235,0,10,,,,,,,,11,,,,56,64
26550,note_on,5,0,10,,,,,,,,11,,,,56,30
26550,note_on,0,0,8,,,,,,,,8,,,,71,30
26550,note_off,60,0,8,,,,,,,,8,,,,73,64
26550,note_on,5,0,7,,,,,,,,5,,,,56,30
26550,note_on,0,0,6,,,,,,,,4,,,,68,30
26550,note_off,60,0,6,,,,,,,,4,,,,70,64
26550,note_on,0,0,5,,,,,,,,3,,,,71,30
26550,note_off,60,0,5,,,,,,,,3,,,,73,64
26550,set_tempo,240,1,0,1666666,,,,,,,,,,,,
26550,note_on,0,0,9,,,,,,,,10,,,,68,30
26550,note_off,60,0,9,,,,,,,,10,,,,70,64
26550,note_on,5,0,2,,,,,,,,13,,,,32,45
26550,note_on,0,0,2,,,,,,,,13,,,,44,45
26550,note_on,80,0,1,,,,,,,,12,,,,63,45
26730,note_on,0,0,9,,,,,,,,10,,,,70,30
26730,note_on,0,0,6,,,,,,,,4,,,,70,30
26730,note_off,180,0,9,,,,,,,,10,,,,68,64
26730,note_off,180,0,5,,,,,,,,3,,,,71,64
26730,note_on,0,0,5,,,,,,,,3,,,,73,30
26730,note_off,180,0,6,,,,,,,,4,,,,68,64
26730,note_on,0,0,8,,,,,,,,8,,,,73,30
26730,note_off,180,0,8,,,,,,,,8,,,,71,64
26785,note_off,235,0,1,,,,,,,,12,,,,63,64
26790,note_off,60,0,8,,,,,,,,8,,,,73,64
26790,note_on,5,0,1,,,,,,,,12,,,,68,45
26790,note_off,60,0,6,,,,,,,,4,,,,70,64
26790,note_on,0,0,6,,,,,,,,4,,,,68,30
26790,note_on,0,0,9,,,,,,,,10,,,,68,30
26790,note_off,60,0,9,,,,,,,,10,,,,70,64
26790,note_on,0,0,8,,,,,,,,8,,,,71,30
26790,note_off,60,0,5,,,,,,,,3,,,,73,64
26790,note_on,0,0,5,,,,,,,,3,,,,71,30
26950,note_off,0,0,2,,,,,,,,13,,,,32,64
26950,note_off,400,0,10,,,,,,,,11,,,,56,64
26950,note_off,400,0,2,,,,,,,,13,,,,44,64
26950,note_off,400,0,7,,,,,,,,5,,,,56,64
26970,note_on,0,0,9,,,,,,,,10,,,,70,30
26970,note_off,180,0,9,,,,,,,,10,,,,68,64
26970,note_on,0,0,5,,,,,,,,3,,,,73,30
26970,note_on,0,0,8,,,,,,,,8,,,,73,30
26970,note_off,180,0,8,,,,,,,,8,,,,71,64
26970,note_off,180,0,6,,,,,,,,4,,,,68,64
26970,note_off,180,0,5,,,,,,,,3,,,,71,64
26970,note_on,0,0,6,,,,,,,,4,,,,70,30
27025,note_off,235,0,1,,,,,,,,12,,,,68,64
27030,note_on,0,0,5,,,,,,,,3,,,,71,30
27030,note_on,0,0,9,,,,,,,,10,,,,68,30
27030,note_on,0,0,8,,,,,,,,8,,,,71,30
27030,set_tempo,480,1,0,1764705,,,,,,,,,,,,
27030,note_off,60,0,8,,,,,,,,8,,,,73,64
27030,note_off,60,0,9,,,,,,,,10,,,,70,64
27030,note_off,60,0,5,,,,,,,,3,,,,73,64
27030,note_on,5,0,1,,,,,,,,12,,,,71,45
27030,note_on,0,0,6,,,,,,,,4,,,,68,30
27030,note_off,60,0,6,,,,,,,,4,,,,70,64
27210,note_on,0,0,8,,,,,,,,8,,,,73,30
27210,note_off,180,0,5,,,,,,,,3,,,,71,64
27210,note_on,0,0,5,,,,,,,,3,,,,73,30
27210,note_off,180,0,8,,,,,,,,8,,,,71,64
27210,note_on,0,0,6,,,,,,,,4,,,,69,30
27210,note_on,0,0,9,,,,,,,,10,,,,69,30
27210,note_off,180,0,9,,,,,,,,10,,,,68,64
27210,note_off,180,0,6,,,,,,,,4,,,,68,64
27265,note_off,235,0,1,,,,,,,,12,,,,71,64
27270,note_off,60,0,6,,,,,,,,4,,,,69,64
27270,note_on,0,0,6,,,,,,,,4,,,,68,30
27270,set_tempo,240,1,0,1875000,,,,,,,,,,,,
27270,note_on,0,0,8,,,,,,,,8,,,,71,30
27270,note_on,5,0,1,,,,,,,,12,,,,75,45
27270,note_on,0,0,5,,,,,,,,3,,,,71,30
27270,note_off,60,0,9,,,,,,,,10,,,,69,64
27270,note_on,0,0,9,,,,,,,,10,,,,68,30
27270,note_off,60,0,5,,,,,,,,3,,,,73,64
27270,note_off,60,0,8,,,,,,,,8,,,,73,64
27450,note_on,0,0,5,,,,,,,,3,,,,69,30
27450,note_on,0,0,8,,,,,,,,8,,,,69,30
27450,note_off,180,0,8,,,,,,,,8,,,,71,64
27450,note_on,0,0,6,,,,,,,,4,,,,66,30
27450,note_off,180,0,5,,,,,,,,3,,,,71,64
27450,note_off,180,0,9,,,,,,,,10,,,,68,64
27450,note_on,0,0,9,,,,,,,,10,,,,66,30
27450,note_off,180,0,6,,,,,,,,4,,,,68,64
27505,note_off,55,0,8,,,,,,,,8,,,,69,64
27505,note_off,55,0,5,,,,,,,,3,,,,69,64
27505,note_off,235,0,1,,,,,,,,12,,,,75,64
27505,note_off,55,0,9,,,,,,,,10,,,,66,64
27505,note_off,55,0,6,,,,,,,,4,,,,66,64
27510,note_on,0,0,1,,,,,,,,12,,,,64,45
27510,note_on,1560,0,4,,,,,,,,2,,,,80,45
27510,note_on,5,0,1,,,,,,,,12,,,,61,45
27510,note_on,5,0,9,,,,,,,,10,,,,64,30
27510,note_on,5,0,6,,,,,,,,4,,,,64,30
27510,note_on,0,0,1,,,,,,,,12,,,,68,45
27510,set_tempo,240,1,0,1500000,,,,,,,,,,,,
27510,note_on,5,0,8,,,,,,,,8,,,,68,30
27510,note_on,5,0,5,,,,,,,,3,,,,68,30
27510,note_on,1560,0,3,,,,,,,,1,,,,80,60
27690,note_off,180,0,6,,,,,,,,4,,,,64,64
27690,note_on,0,0,8,,,,,,,,8,,,,69,30
27690,note_off,180,0,8,,,,,,,,8,,,,68,64
27690,note_on,0,0,6,,,,,,,,4,,,,66,30
27690,note_on,0,0,9,,,,,,,,10,,,,66,30
27690,note_on,0,0,5,,,,,,,,3,,,,69,30
27690,note_off,180,0,5,,,,,,,,3,,,,68,64
27690,note_off,180,0,9,,,,,,,,10,,,,64,64
27750,note_off,60,0,6,,,,,,,,4,,,,66,64
27750,note_off,60,0,9,,,,,,,,10,,,,66,64
27750,note_on,800,0,7,,,,,,,,5,,,,61,30
27750,note_off,60,0,8,,,,,,,,8,,,,69,64
27750,note_on,0,0,8,,,,,,,,8,,,,68,30
27750,note_on,0,0,6,,,,,,,,4,,,,64,30
27750,note_on,0,0,9,,,,,,,,10,,,,64,30
27750,note_on,0,0,2,,,,,,,,13,,,,49,45
27750,note_off,60,0,5,,,,,,,,3,,,,69,64
27750,note_on,0,0,5,,,,,,,,3,,,,68,30
27750,note_on,800,0,2,,,,,,,,13,,,,37,45
27750,note_on,800,0,10,,,,,,,,11,,,,61,30
27910,note_off,0,0,1,,,,,,,,12,,,,61,64
27910,note_off,0,0,1,,,,,,,,12,,,,64,64
27910,note_off,400,0,1,,,,,,,,12,,,,68,64
27930,note_on,0,0,9,,,,,,,,10,,,,66,30
27930,note_off,180,0,5,,,,,,,,3,,,,68,64
27930,note_on,0,0,5,,,,,,,,3,,,,69,30
27930,note_on,0,0,6,,,,,,,,4,,,,66,30
27930,note_off,180,0,8,,,,,,,,8,,,,68,64
27930,note_on,0,0,8,,,,,,,,8,,,,69,30
27930,note_off,180,0,9,,,,,,,,10,,,,64,64
27930,note_off,180,0,6,,,,,,,,4,,,,64,64
27985,note_off,235,0,7,,,,,,,,5,,,,61,64
27985,note_off,0,0,2,,,,,,,,13,,,,37,64
27985,note_off,235,0,2,,,,,,,,13,,,,49,64
27985,note_off,235,0,10,,,,,,,,11,,,,61,64
27990,note_on,0,0,8,,,,,,,,8,,,,68,30
27990,note_on,0,0,4,,,,,,,,2,,,,76,45
27990,note_off,480,0,4,,,,,,,,2,,,,80,64
27990,note_off,60,0,8,,,,,,,,8,,,,69,64
27990,note_off,480,0,3,,,,,,,,1,,,,80,64
27990,note_on,0,0,3,,,,,,,,1,,,,76,60
27990,note_on,0,0,2,,,,,,,,13,,,,49,45
27990,note_on,5,0,2,,,,,,,,13,,,,37,45
27990,note_on,0,0,9,,,,,,,,10,,,,64,30
27990,note_off,60,0,5,,,,,,,,3,,,,69,64
27990,note_on,5,0,10,,,,,,,,11,,,,61,30
27990,note_on,0,0,6,,,,,,,,4,,,,64,30
27990,note_off,60,0,6,,,,,,,,4,,,,66,64
27990,note_on,5,0,7,,,,,,,,5,,,,61,30
27990,note_on,0,0,5,,,,,,,,3,,,,68,30
27990,note_off,60,0,9,,,,,,,,10,,,,66,64
28170,note_on,0,0,6,,,,,,,,4,,,,66,30
28170,note_off,180,0,6,,,,,,,,4,,,,64,64
28170,note_off,180,0,5,,,,,,,,3,,,,68,64
28170,note_off,180,0,8,,,,,,,,8,,,,68,64
28170,note_on,0,0,9,,,,,,,,10,,,,66,30
28170,note_off,180,0,9,,,,,,,,10,,,,64,64
28170,note_on,0,0,5,,,,,,,,3,,,,69,30
28170,note_on,0,0,8,,,,,,,,8,,,,69,30
28230,note_off,60,0,5,,,,,,,,3,,,,69,64
28230,note_on,0,0,5,,,,,,,,3,,,,68,30
28230,note_off,60,0,8,,,,,,,,8,,,,69,64
28230,note_on,0,0,9,,,,,,,,10,,,,64,30
28230,note_off,60,0,9,,,,,,,,10,,,,66,64
28230,note_off,60,0,6,,,,,,,,4,,,,66,64
28230,note_on,0,0,6,,,,,,,,4,,,,64,30
28230,note_on,0,0,8,,,,,,,,8,,,,68,30
28390,note_off,400,0,7,,,,,,,,5,,,,61,64
28390,note_off,400,0,10,,,,,,,,11,,,,61,64
28390,note_off,0,0,2,,,,,,,,13,,,,37,64
28390,note_off,400,0,2,,,,,,,,13,,,,49,64
28410,note_off,180,0,5,,,,,,,,3,,,,68,64
28410,note_off,180,0,9,,,,,,,,10,,,,64,64
28410,note_on,0,0,9,,,,,,,,10,,,,66,30
28410,note_on,0,0,6,,,,,,,,4,,,,66,30
28410,note_off,180,0,6,,,,,,,,4,,,,64,64
28410,note_on,0,0,5,,,,,,,,3,,,,69,30
28410,note_on,0,0,8,,,,,,,,8,,,,69,30
28410,note_off,180,0,8,,,,,,,,8,,,,68,64
28470,note_off,480,0,3,,,,,,,,1,,,,76,64
28470,note_off,60,0,9,,,,,,,,10,,,,66,64
28470,note_on,0,0,9,,,,,,,,10,,,,64,30
28470,note_on,0,0,3,,,,,,,,1,,,,73,60
28470,note_off,60,0,6,,,,,,,,4,,,,66,64
28470,note_off,480,0,4,,,,,,,,2,,,,76,64
28470,note_on,0,0,4,,,,,,,,2,,,,73,45
28470,note_on,0,0,5,,,,,,,,3,,,,68,30
28470,note_on,0,0,6,,,,,,,,4,,,,64,30
28470,note_off,60,0,8,,,,,,,,8,,,,69,64
28470,note_on,0,0,8,,,,,,,,8,,,,68,30
28470,note_off,60,0,5,,,,,,,,3,,,,69,64
28650,note_off,180,0,6,,,,,,,,4,,,,64,64
28650,note_on,0,0,6,,,,,,,,4,,,,69,30
28650,note_off,180,0,8,,,,,,,,8,,,,68,64
28650,note_off,180,0,9,,,,,,,,10,,,,64,64
28650,note_on,0,0,9,,,,,,,,10,,,,69,30
28650,note_on,0,0,5,,,,,,,,3,,,,73,30
28650,note_off,180,0,5,,,,,,,,3,,,,68,64
28650,note_on,0,0,8,,,,,,,,8,,,,73,30
28710,note_off,60,0,6,,,,,,,,4,,,,69,64
28710,note_on,0,0,5,,,,,,,,3,,,,71,30
28710,note_off,60,0,5,,,,,,,,3,,,,73,64
28710,note_on,0,0,6,,,,,,,,4,,,,68,30
28710,note_on,0,0,8,,,,,,,,8,,,,71,30
28710,note_on,0,0,9,,,,,,,,10,,,,68,30
28710,note_off,60,0,9,,,,,,,,10,,,,69,64
28710,note_off,60,0,8,,,,,,,,8,,,,73,64
28890,note_on,0,0,8,,,,,,,,8,,,,69,30
28890,note_off,180,0,8,,,,,,,,8,,,,71,64
28890,note_on,0,0,9,,,,,,,,10,,,,66,30
28890,note_on,0,0,6,,,,,,,,4,,,,66,30
28890,note_on,0,0,5,,,,,,,,3,,,,69,30
28890,note_off,180,0,5,,,,,,,,3,,,,71,64
28890,note_off,180,0,6,,,,,,,,4,,,,68,64
28890,note_off,180,0,9,,,,,,,,10,,,,68,64
28950,note_on,0,0,5,,,,,,,,3,,,,68,30
28950,note_on,0,0,8,,,,,,,,8,,,,68,30
28950,note_off,60,0,9,,,,,,,,10,,,,66,64
28950,note_off,60,0,5,,,,,,,,3,,,,69,64
28950,note_off,60,0,6,,,,,,,,4,,,,66,64
28950,set_tempo,1440,1,0,1714285,,,,,,,,,,,,
28950,note_off,60,0,8,,,,,,,,8,,,,69,64
28950,note_off,480,0,4,,,,,,,,2,,,,73,64
28950,note_on,0,0,6,,,,,,,,4,,,,64,30
28950,note_on,0,0,4,,,,,,,,2,,,,80,45
28950,note_on,0,0,1,,,,,,,,12,,,,64,45
28950,note_on,1040,0,1,,,,,,,,12,,,,61,45
28950,note_on,0,0,9,,,,,,,,10,,,,64,30
28950,note_on,0,0,1,,,,,,,,12,,,,68,45
28950,note_off,480,0,3,,,,,,,,1,,,,73,64
28950,note_on,0,0,3,,,,,,,,1,,,,80,60
29130,note_off,180,0,9,,,,,,,,10,,,,64,64
29130,note_off,180,0,6,,,,,,,,4,,,,64,64
29130,note_on,0,0,6,,,,,,,,4,,,,66,30
29130,note_off,180,0,5,,,,,,,,3,,,,68,64
29130,note_on,0,0,5,,,,,,,,3,,,,69,30
29130,note_on,0,0,9,,,,,,,,10,,,,66,30
29130,note_on,0,0,8,,,,,,,,8,,,,69,30
29130,note_off,180,0,8,,,,,,,,8,,,,68,64
29190,note_on,800,0,10,,,,,,,,11,,,,61,30
29190,note_on,800,0,7,,,,,,,,5,,,,61,30
29190,note_on,0,0,3,,,,,,,,1,,,,78,60
29190,note_on,0,0,9,,,,,,,,10,,,,64,30
29190,note_off,240,0,3,,,,,,,,1,,,,80,64
29190,note_off,60,0,8,,,,,,,,8,,,,69,64
29190,note_on,800,0,2,,,,,,,,13,,,,37,45
29190,set_tempo,240,1,0,1875000,,,,,,,,,,,,
29190,note_on,0,0,2,,,,,,,,13,,,,49,45
29190,note_on,0,0,6,,,,,,,,4,,,,64,30
29190,note_off,60,0,6,,,,,,,,4,,,,66,64
29190,note_on,0,0,5,,,,,,,,3,,,,68,30
29190,note_off,240,0,4,,,,,,,,2,,,,80,64
29190,note_on,0,0,4,,,,,,,,2,,,,78,45
29190,note_off,60,0,9,,,,,,,,10,,,,66,64
29190,note_on,0,0,8,,,,,,,,8,,,,68,30
29190,note_off,60,0,5,,,,,,,,3,,,,69,64
29350,note_off,0,0,1,,,,,,,,12,,,,64,64
29350,note_off,0,0,1,,,,,,,,12,,,,61,64
29350,note_off,400,0,1,,,,,,,,12,,,,68,64
29370,note_off,180,0,5,,,,,,,,3,,,,68,64
29370,note_on,0,0,5,,,,,,,,3,,,,69,30
29370,note_off,180,0,9,,,,,,,,10,,,,64,64
29370,note_off,180,0,8,,,,,,,,8,,,,68,64
29370,note_on,0,0,9,,,,,,,,10,,,,66,30
29370,note_on,0,0,6,,,,,,,,4,,,,66,30
29370,note_off,180,0,6,,,,,,,,4,,,,64,64
29370,note_on,0,0,8,,,,,,,,8,,,,69,30
29425,note_off,235,0,2,,,,,,,,13,,,,49,64
29425,note_off,0,0,2,,,,,,,,13,,,,37,64
29425,note_off,235,0,7,,,,,,,,5,,,,61,64
29425,note_off,235,0,10,,,,,,,,11,,,,61,64
29430,note_on,0,0,2,,,,,,,,13,,,,49,45
29430,note_on,5,0,2,,,,,,,,13,,,,37,45
29430,note_off,60,0,6,,,,,,,,4,,,,66,64
29430,note_on,0,0,6,,,,,,,,4,,,,64,30
29430,set_tempo,240,1,0,1500000,,,,,,,,,,,,
29430,note_off,60,0,9,,,,,,,,10,,,,66,64
29430,note_on,0,0,4,,,,,,,,2,,,,80,45
29430,note_off,240,0,4,,,,,,,,2,,,,78,64
29430,note_on,0,0,5,,,,,,,,3,,,,68,30
29430,note_off,60,0,5,,,,,,,,3,,,,69,64
29430,note_off,60,0,8,,,,,,,,8,,,,69,64
29430,note_on,0,0,8,,,,,,,,8,,,,68,30
29430,note_on,5,0,7,,,,,,,,5,,,,61,30
29430,note_on,80,0,1,,,,,,,,12,,,,61,45
29430,note_on,0,0,3,,,,,,,,1,,,,80,60
29430,note_off,240,0,3,,,,,,,,1,,,,78,64
29430,note_on,0,0,9,,,,,,,,10,,,,64,30
29430,note_on,5,0,10,,,,,,,,11,,,,61,30
29610,note_on,0,0,8,,,,,,,,8,,,,69,30
29610,note_on,0,0,9,,,,,,,,10,,,,66,30
29610,note_off,180,0,6,,,,,,,,4,,,,64,64
29610,note_off,180,0,9,,,,,,,,10,,,,64,64
29610,note_on,0,0,6,,,,,,,,4,,,,66,30
29610,note_off,180,0,8,,,,,,,,8,,,,68,64
29610,note_off,180,0,5,,,,,,,,3,,,,68,64
29610,note_on,0,0,5,,,,,,,,3,,,,69,30
29665,note_off,235,0,1,,,,,,,,12,,,,61,64
29670,note_on,0,0,8,,,,,,,,8,,,,68,30
29670,note_off,60,0,6,,,,,,,,4,,,,66,64
29670,note_off,60,0,8,,,,,,,,8,,,,69,64
29670,note_off,60,0,5,,,,,,,,3,,,,69,64
29670,note_on,5,0,1,,,,,,,,12,,,,64,45
29670,note_on,0,0,5,,,,,,,,3,,,,68,30
29670,note_off,60,0,9,,,,,,,,10,,,,66,64
29670,note_on,0,0,9,,,,,,,,10,,,,64,30
29670,note_on,0,0,6,,,,,,,,4,,,,64,30
29830,note_off,400,0,10,,,,,,,,11,,,,61,64
29830,note_off,400,0,7,,,,,,,,5,,,,61,64
29830,note_off,400,0,2,,,,,,,,13,,,,49,64
29830,note_off,0,0,2,,,,,,,,13,,,,37,64
29850,note_off,180,0,9,,,,,,,,10,,,,64,64
29850,note_on,0,0,9,,,,,,,,10,,,,66,30
29850,note_off,180,0,6,,,,,,,,4,,,,64,64
29850,note_off,180,0,5,,,,,,,,3,,,,68,64
29850,note_on,0,0,5,,,,,,,,3,,,,69,30
29850,note_on,0,0,8,,,,,,,,8,,,,69,30
29850,note_off,180,0,8,,,,,,,,8,,,,68,64
29850,note_on,0,0,6,,,,,,,,4,,,,66,30
29905,note_off,235,0,1,,,,,,,,12,,,,64,64
29910,note_off,60,0,8,,,,,,,,8,,,,69,64
29910,note_off,60,0,5,,,,,,,,3,,,,69,64
29910,note_on,0,0,5,,,,,,,,3,,,,68,30
29910,note_on,0,0,8,,,,,,,,8,,,,68,30
29910,note_on,0,0,6,,,,,,,,4,,,,64,30
29910,note_on,0,0,9,,,,,,,,10,,,,64,30
29910,note_off,60,0,6,,,,,,,,4,,,,66,64
29910,note_on,5,0,1,,,,,,,,12,,,,68,45
29910,note_off,60,0,9,,,,,,,,10,,,,66,64
30090,note_off,180,0,5,,,,,,,,3,,,,68,64
30090,note_on,0,0,5,,,,,,,,3,,,,69,30
30090,note_on,0,0,6,,,,,,,,4,,,,66,30
30090,note_off,180,0,6,,,,,,,,4,,,,64,64
30090,note_on,0,0,8,,,,,,,,8,,,,69,30
30090,note_off,180,0,9,,,,,,,,10,,,,64,64
30090,note_on,0,0,9,,,,,,,,10,,,,66,30
30090,note_off,180,0,8,,,,,,,,8,,,,68,64
30145,note_off,235,0,1,,,,,,,,12,,,,68,64
30150,note_off,60,0,5,,,,,,,,3,,,,69,64
30150,note_on,0,0,8,,,,,,,,8,,,,72,30
30150,note_on,5,0,1,,,,,,,,12,,,,72,45
30150,note_on,0,0,5,,,,,,,,3,,,,72,30
30150,note_off,60,0,9,,,,,,,,10,,,,66,64
30150,note_on,0,0,9,,,,,,,,10,,,,68,30
30150,note_off,60,0,8,,,,,,,,8,,,,69,64
30150,note_off,60,0,6,,,,,,,,4,,,,66,64
30150,note_on,0,0,6,,,,,,,,4,,,,68,30
30270,note_off,840,0,4,,,,,,,,2,,,,80,64
30270,note_off,840,0,3,,,,,,,,1,,,,80,64
30330,note_off,180,0,6,,,,,,,,4,,,,68,64
30330,note_on,0,0,6,,,,,,,,4,,,,69,30
30330,note_off,180,0,5,,,,,,,,3,,,,72,64
30330,note_off,180,0,9,,,,,,,,10,,,,68,64
30330,note_on,0,0,9,,,,,,,,10,,,,69,30
30330,note_off,180,0,8,,,,,,,,8,,,,72,64
30330,note_on,0,0,8,,,,,,,,8,,,,73,30
30330,note_on,0,0,5,,,,,,,,3,,,,73,30
30385,note_off,55,0,8,,,,,,,,8,,,,73,64
30385,note_off,55,0,9,,,,,,,,10,,,,69,64
30385,note_off,55,0,5,,,,,,,,3,,,,73,64
30385,note_off,55,0,6,,,,,,,,4,,,,69,64
30385,note_off,235,0,1,,,,,,,,12,,,,72,64
30390,note_on,5,0,5,,,,,,,,3,,,,75,30
30390,note_on,5,0,1,,,,,,,,12,,,,63,45
30390,note_on,0,0,1,,,,,,,,12,,,,68,45
30390,note_on,0,0,1,,,,,,,,12,,,,72,45
30390,note_on,120,0,4,,,,,,,,2,,,,72,45
30390,note_on,5,0,6,,,,,,,,4,,,,72,30
30390,note_on,120,0,3,,,,,,,,1,,,,72,60
30390,note_on,5,0,8,,,,,,,,8,,,,75,30
30390,note_on,5,0,9,,,,,,,,10,,,,72,30
30570,note_on,0,0,6,,,,,,,,4,,,,73,30
30570,note_off,180,0,8,,,,,,,,8,,,,75,64
30570,note_on,0,0,8,,,,,,,,8,,,,76,30
30570,note_off,180,0,6,,,,,,,,4,,,,72,64
30570,note_off,180,0,5,,,,,,,,3,,,,75,64
30570,note_on,0,0,5,,,,,,,,3,,,,76,30
30570,note_off,180,0,9,,,,,,,,10,,,,72,64
30570,note_on,0,0,9,,,,,,,,10,,,,73,30
30630,note_on,0,0,5,,,,,,,,3,,,,75,30
30630,note_off,60,0,5,,,,,,,,3,,,,76,64
30630,note_on,0,0,9,,,,,,,,10,,,,72,30
30630,note_off,60,0,9,,,,,,,,10,,,,73,64
30630,note_on,0,0,6,,,,,,,,4,,,,72,30
30630,note_on,800,0,10,,,,,,,,11,,,,56,30
30630,note_on,800,0,2,,,,,,,,13,,,,32,45
30630,note_on,800,0,7,,,,,,,,5,,,,56,30
30630,note_on,0,0,8,,,,,,,,8,,,,75,30
30630,note_off,60,0,8,,,,,,,,8,,,,76,64
30630,note_off,60,0,6,,,,,,,,4,,,,73,64
30630,note_on,0,0,2,,,,,,,,13,,,,44,45
30790,note_off,0,0,1,,,,,,,,12,,,,68,64
30790,note_off,0,0,1,,,,,,,,12,,,,63,64
30790,note_off,400,0,1,,,,,,,,12,,,,72,64
30810,note_on,0,0,8,,,,,,,,8,,,,76,30
30810,note_on,0,0,5,,,,,,,,3,,,,76,30
30810,note_off,180,0,9,,,,,,,,10,,,,72,64
30810,note_off,180,0,6,,,,,,,,4,,,,72,64
30810,note_on,0,0,6,,,,,,,,4,,,,73,30
30810,note_off,180,0,8,,,,,,,,8,,,,75,64
30810,note_off,180,0,5,,,,,,,,3,,,,75,64
30810,note_on,0,0,9,,,,,,,,10,,,,73,30
30865,note_off,235,0,7,,,,,,,,5,,,,56,64
30865,note_off,0,0,2,,,,,,,,13,,,,32,64
30865,note_off,235,0,10,,,,,,,,11,,,,56,64
30865,note_off,235,0,2,,,,,,,,13,,,,44,64
30870,note_off,60,0,9,,,,,,,,10,,,,73,64
30870,note_on,0,0,9,,,,,,,,10,,,,72,30
30870,note_on,0,0,3,,,,,,,,1,,,,75,57
30870,note_off,60,0,8,,,,,,,,8,,,,76,64
30870,note_on,0,0,8,,,,,,,,8,,,,75,30
30870,note_on,5,0,2,,,,,,,,13,,,,32,45
30870,note_on,5,0,7,,,,,,,,5,,,,56,30
30870,note_off,480,0,3,,,,,,,,1,,,,72,64
30870,note_off,480,0,4,,,,,,,,2,,,,72,64
30870,note_on,0,0,4,,,,,,,,2,,,,75,42
30870,note_off,60,0,5,,,,,,,,3,,,,76,64
30870,note_on,0,0,5,,,,,,,,3,,,,75,30
30870,note_on,0,0,6,,,,,,,,4,,,,72,30
30870,note_on,0,0,2,,,,,,,,13,,,,44,45
30870,note_on,5,0,10,,,,,,,,11,,,,56,30
30870,note_off,60,0,6,,,,,,,,4,,,,73,64
31050,note_on,0,0,9,,,,,,,,10,,,,73,30
31050,note_on,0,0,6,,,,,,,,4,,,,73,30
31050,note_off,180,0,6,,,,,,,,4,,,,72,64
31050,note_off,180,0,5,,,,,,,,3,,,,75,64
31050,note_off,180,0,9,,,,,,,,10,,,,72,64
31050,note_on,0,0,8,,,,,,,,8,,,,76,30
31050,note_off,180,0,8,,,,,,,,8,,,,75,64
31050,note_on,0,0,5,,,,,,,,3,,,,76,30
31110,note_off,60,0,6,,,,,,,,4,,,,73,64
31110,note_on,0,0,6,,,,,,,,4,,,,72,30
31110,note_off,60,0,9,,,,,,,,10,,,,73,64
31110,note_on,0,0,9,,,,,,,,10,,,,72,30
31110,note_on,0,0,5,,,,,,,,3,,,,75,30
31110,note_off,60,0,5,,,,,,,,3,,,,76,64
31110,note_on,0,0,8,,,,,,,,8,,,,75,30
31110,note_off,60,0,8,,,,,,,,8,,,,76,64
31270,note_off,0,0,2,,,,,,,,13,,,,32,64
31270,note_off,400,0,10,,,,,,,,11,,,,56,64
31270,note_off,400,0,2,,,,,,,,13,,,,44,64
31270,note_off,400,0,7,,,,,,,,5,,,,56,64
31290,note_on,0,0,6,,,,,,,,4,,,,73,30
31290,note_off,180,0,6,,,,,,,,4,,,,72,64
31290,note_on,0,0,5,,,,,,,,3,,,,76,30
31290,note_off,180,0,8,,,,,,,,8,,,,75,64
31290,note_on,0,0,8,,,,,,,,8,,,,76,30
31290,note_on,0,0,9,,,,,,,,10,,,,73,30
31290,note_off,180,0,9,,,,,,,,10,,,,72,64
31290,note_off,180,0,5,,,,,,,,3,,,,75,64
31350,note_off,480,0,4,,,,,,,,2,,,,75,64
31350,note_off,60,0,9,,,,,,,,10,,,,73,64
31350,note_off,60,0,5,,,,,,,,3,,,,76,64
31350,note_on,0,0,5,,,,,,,,3,,,,75,30
31350,note_on,0,0,9,,,,,,,,10,,,,72,30
31350,note_on,0,0,4,,,,,,,,2,,,,80,39
31350,note_off,480,0,3,,,,,,,,1,,,,75,64
31350,note_off,60,0,8,,,,,,,,8,,,,76,64
31350,note_on,0,0,8,,,,,,,,8,,,,75,30
31350,note_on,0,0,3,,,,,,,,1,,,,80,54
31350,note_on,0,0,6,,,,,,,,4,,,,72,30
31350,note_off,60,0,6,,,,,,,,4,,,,73,64
31530,note_on,0,0,9,,,,,,,,10,,,,73,30
31530,note_off,180,0,9,,,,,,,,10,,,,72,64
31530,note_on,0,0,5,,,,,,,,3,,,,76,30
31530,note_on,0,0,8,,,,,,,,8,,,,76,30
31530,note_off,180,0,8,,,,,,,,8,,,,75,64
31530,note_off,180,0,6,,,,,,,,4,,,,72,64
31530,note_on,0,0,6,,,,,,,,4,,,,73,30
31530,note_off,180,0,5,,,,,,,,3,,,,75,64
31590,note_off,60,0,5,,,,,,,,3,,,,76,64
31590,note_on,0,0,8,,,,,,,,8,,,,78,30
31590,note_off,60,0,6,,,,,,,,4,,,,73,64
31590,note_on,0,0,6,,,,,,,,4,,,,75,30
31590,note_on,0,0,9,,,,,,,,10,,,,75,30
31590,note_off,60,0,9,,,,,,,,10,,,,73,64
31590,note_on,0,0,5,,,,,,,,3,,,,78,30
31590,note_off,60,0,8,,,,,,,,8,,,,76,64
31770,note_off,180,0,6,,,,,,,,4,,,,75,64
31770,note_on,0,0,8,,,,,,,,8,,,,75,30
31770,note_on,0,0,9,,,,,,,,10,,,,72,30
31770,note_off,180,0,9,,,,,,,,10,,,,75,64
31770,note_on,0,0,5,,,,,,,,3,,,,75,30
31770,note_off,180,0,5,,,,,,,,3,,,,78,64
31770,note_off,180,0,8,,,,,,,,8,,,,78,64
31770,note_on,0,0,6,,,,,,,,4,,,,72,30
31830,note_off,480,0,4,,,,,,,,2,,,,80,64
31830,note_on,0,0,3,,,,,,,,1,,,,78,51
31830,note_on,0,0,4,,,,,,,,2,,,,76,36
31830,note_on,0,0,1,,,,,,,,12,,,,64,45
31830,note_on,0,0,1,,,,,,,,12,,,,68,45
31830,note_on,0,0,5,,,,,,,,3,,,,76,30
31830,note_off,480,0,3,,,,,,,,1,,,,80,64
31830,note_on,0,0,8,,,,,,,,8,,,,76,30
31830,note_on,0,0,3,,,,,,,,1,,,,76,51
31830,note_on,0,0,4,,,,,,,,2,,,,78,36
31830,note_off,60,0,6,,,,,,,,4,,,,72,64
31830,note_on,0,0,6,,,,,,,,4,,,,73,30
31830,note_on,1040,0,1,,,,,,,,12,,,,61,45
31830,note_off,60,0,5,,,,,,,,3,,,,75,64
31830,note_off,60,0,8,,,,,,,,8,,,,75,64
31830,note_off,60,0,9,,,,,,,,10,,,,72,64
31830,note_on,0,0,9,,,,,,,,10,,,,73,30
31860,note_on,0,0,3,,,,,,,,1,,,,78,51
31860,note_off,30,0,3,,,,,,,,1,,,,76,64
31890,note_off,60,0,4,,,,,,,,2,,,,76,64
31890,note_off,0,0,4,,,,,,,,2,,,,78,64
31890,note_on,0,0,4,,,,,,,,2,,,,78,36
31890,note_on,0,0,3,,,,,,,,1,,,,76,51
31890,note_off,30,0,3,,,,,,,,1,,,,78,64
31890,note_off,0,0,3,,,,,,,,1,,,,78,64
31920,note_off,30,0,3,,,,,,,,1,,,,76,64
31920,note_on,0,0,3,,,,,,,,1,,,,78,51
31950,note_on,0,0,3,,,,,,,,1,,,,76,51
31950,note_on,0,0,4,,,,,,,,2,,,,76,36
31950,note_off,60,0,4,,,,,,,,2,,,,78,64
31950,note_off,30,0,3,,,,,,,,1,,,,78,64
31980,note_off,30,0,3,,,,,,,,1,,,,76,64
31980,note_on,0,0,3,,,,,,,,1,,,,78,51
32010,note_on,0,0,5,,,,,,,,3,,,,78,30
32010,note_on,0,0,3,,,,,,,,1,,,,76,51
32010,note_off,180,0,5,,,,,,,,3,,,,76,64
32010,note_on,0,0,8,,,,,,,,8,,,,78,30
32010,note_on,0,0,4,,,,,,,,2,,,,78,36
32010,note_off,180,0,6,,,,,,,,4,,,,73,64
32010,note_on,0,0,6,,,,,,,,4,,,,75,30
32010,note_off,180,0,9,,,,,,,,10,,,,73,64
32010,note_on,0,0,9,,,,,,,,10,,,,75,30
32010,note_off,30,0,3,,,,,,,,1,,,,78,64
32010,note_off,60,0,4,,,,,,,,2,,,,76,64
32010,note_off,180,0,8,,,,,,,,8,,,,76,64
32040,note_on,0,0,3,,,,,,,,1,,,,78,51
32040,note_off,30,0,3,,,,,,,,1,,,,76,64
32070,note_off,30,0,3,,,,,,,,1,,,,78,64
32070,note_off,60,0,9,,,,,,,,10,,,,75,64
32070,note_off,60,0,8,,,,,,,,8,,,,78,64
32070,note_on,0,0,4,,,,,,,,2,,,,76,36
32070,note_on,800,0,7,,,,,,,,5,,,,61,30
32070,note_off,60,0,4,,,,,,,,2,,,,78,64
32070,note_on,0,0,9,,,,,,,,10,,,,73,30
32070,note_on,0,0,6,,,,,,,,4,,,,73,30
32070,note_off,60,0,5,,,,,,,,3,,,,78,64
32070,note_on,800,0,10,,,,,,,,11,,,,61,30
32070,note_on,0,0,2,,,,,,,,13,,,,49,45
32070,note_on,800,0,2,,,,,,,,13,,,,37,45
32070,note_on,0,0,3,,,,,,,,1,,,,76,51
32070,note_on,0,0,8,,,,,,,,8,,,,76,30
32070,note_on,0,0,5,,,,,,,,3,,,,76,30
32070,note_off,60,0,6,,,,,,,,4,,,,75,64
32100,note_on,0,0,3,,,,,,,,1,,,,78,51
32100,note_off,30,0,3,,,,,,,,1,,,,76,64
32130,note_off,60,0,4,,,,,,,,2,,,,76,64
32130,note_on,0,0,4,,,,,,,,2,,,,78,36
32130,note_off,30,0,3,,,,,,,,1,,,,78,64
32130,note_on,0,0,3,,,,,,,,1,,,,76,51
32160,note_on,0,0,3,,,,,,,,1,,,,78,51
32160,note_off,30,0,3,,,,,,,,1,,,,76,64
32190,note_on,0,0,4,,,,,,,,2,,,,76,36
32190,note_off,60,0,4,,,,,,,,2,,,,78,64
32190,note_off,30,0,3,,,,,,,,1,,,,78,64
32190,note_on,0,0,3,,,,,,,,1,,,,76,51
32220,note_off,30,0,3,,,,,,,,1,,,,76,64
32220,note_on,0,0,3,,,,,,,,1,,,,78,51
32230,note_off,0,0,1,,,,,,,,12,,,,61,64
32230,note_off,0,0,1,,,,,,,,12,,,,64,64
32230,note_off,400,0,1,,,,,,,,12,,,,68,64
32250,note_on,0,0,4,,,,,,,,2,,,,78,36
32250,note_off,180,0,8,,,,,,,,8,,,,76,64
32250,note_on,0,0,8,,,,,,,,8,,,,78,30
32250,note_on,0,0,5,,,,,,,,3,,,,78,30
32250,note_on,0,0,3,,,,,,,,1,,,,76,51
32250,note_off,60,0,4,,,,,,,,2,,,,76,64
32250,note_off,180,0,5,,,,,,,,3,,,,76,64
32250,note_off,180,0,6,,,,,,,,4,,,,73,64
32250,note_on,0,0,6,,,,,,,,4,,,,75,30
32250,note_off,180,0,9,,,,,,,,10,,,,73,64
32250,note_on,0,0,9,,,,,,,,10,,,,75,30
32250,note_off,30,0,3,,,,,,,,1,,,,78,64
32280,note_off,30,0,3,,,,,,,,1,,,,76,64
32280,note_on,0,0,3,,,,,,,,1,,,,78,51
32305,note_off,235,0,10,,,,,,,,11,,,,61,64
32305,note_off,0,0,2,,,,,,,,13,,,,37,64
32305,note_off,235,0,7,,,,,,,,5,,,,61,64
32305,note_off,235,0,2,,,,,,,,13,,,,49,64
32310,note_on,5,0,7,,,,,,,,5,,,,61,30
32310,note_on,0,0,2,,,,,,,,13,,,,49,45
32310,note_on,5,0,2,,,,,,,,13,,,,37,45
32310,note_on,0,0,9,,,,,,,,10,,,,73,30
32310,note_off,60,0,8,,,,,,,,8,,,,78,64
32310,note_on,0,0,8,,,,,,,,8,,,,76,30
32310,note_on,80,0,1,,,,,,,,12,,,,61,45
32310,note_on,5,0,10,,,,,,,,11,,,,61,30
32310,note_off,60,0,4,,,,,,,,2,,,,78,64
32310,note_off,60,0,9,,,,,,,,10,,,,75,64
32310,note_on,0,0,4,,,,,,,,2,,,,76,36
32310,note_off,60,0,5,,,,,,,,3,,,,78,64
32310,note_on,0,0,5,,,,,,,,3,,,,76,30
32310,note_off,60,0,6,,,,,,,,4,,,,75,64
32310,note_on,0,0,6,,,,,,,,4,,,,73,30
32310,note_off,30,0,3,,,,,,,,1,,,,78,64
32310,note_on,0,0,3,,,,,,,,1,,,,76,51
32340,note_off,30,0,3,,,,,,,,1,,,,76,64
32340,note_on,0,0,3,,,,,,,,1,,,,78,51
32370,note_on,0,0,3,,,,,,,,1,,,,76,51
32370,note_off,60,0,4,,,,,,,,2,,,,76,64
32370,note_on,0,0,4,,,,,,,,2,,,,78,36
32370,note_off,30,0,3,,,,,,,,1,,,,78,64
32400,note_off,30,0,3,,,,,,,,1,,,,76,64
32400,note_on,0,0,3,,,,,,,,1,,,,78,51
32430,note_on,0,0,4,,,,,,,,2,,,,76,36
32430,note_off,60,0,4,,,,,,,,2,,,,78,64
32430,note_off,30,0,3,,,,,,,,1,,,,78,64
32430,note_on,0,0,3,,,,,,,,1,,,,76,51
32460,note_off,30,0,3,,,,,,,,1,,,,76,64
32460,note_on,0,0,3,,,,,,,,1,,,,78,51
32490,note_off,180,0,9,,,,,,,,10,,,,73,64
32490,note_on,0,0,9,,,,,,,,10,,,,75,30
32490,note_on,0,0,6,,,,,,,,4,,,,75,30
32490,note_off,180,0,6,,,,,,,,4,,,,73,64
32490,note_on,0,0,8,,,,,,,,8,,,,78,30
32490,note_off,30,0,3,,,,,,,,1,,,,78,64
32490,note_on,0,0,3,,,,,,,,1,,,,76,51
32490,note_off,180,0,8,,,,,,,,8,,,,76,64
32490,note_on,0,0,4,,,,,,,,2,,,,78,35
32490,note_off,60,0,4,,,,,,,,2,,,,76,64
32490,note_on,0,0,5,,,,,,,,3,,,,78,30
32490,note_off,180,0,5,,,,,,,,3,,,,76,64
32520,note_on,0,0,3,,,,,,,,1,,,,78,51
32520,note_off,30,0,3,,,,,,,,1,,,,76,64
32545,note_off,235,0,1,,,,,,,,12,,,,61,64
32550,note_on,0,0,6,,,,,,,,4,,,,73,30
32550,note_off,60,0,9,,,,,,,,10,,,,75,64
32550,note_off,60,0,4,,,,,,,,2,,,,78,64
32550,note_on,0,0,4,,,,,,,,2,,,,75,34
32550,note_off,60,0,6,,,,,,,,4,,,,75,64
32550,note_on,5,0,1,,,,,,,,12,,,,64,45
32550,note_off,60,0,5,,,,,,,,3,,,,78,64
32550,note_on,0,0,5,,,,,,,,3,,,,76,30
32550,note_on,0,0,8,,,,,,,,8,,,,76,30
32550,note_off,30,0,3,,,,,,,,1,,,,78,64
32550,note_on,0,0,3,,,,,,,,1,,,,75,51
32550,note_off,60,0,8,,,,,,,,8,,,,78,64
32550,note_on,0,0,9,,,,,,,,10,,,,73,30
32710,note_off,0,0,2,,,,,,,,13,,,,37,64
32710,note_off,400,0,2,,,,,,,,13,,,,49,64
32710,note_off,400,0,7,,,,,,,,5,,,,61,64
32710,note_off,400,0,10,,,,,,,,11,,,,61,64
32730,note_off,180,0,8,,,,,,,,8,,,,76,64
32730,note_on,0,0,8,,,,,,,,8,,,,78,30
32730,note_on,0,0,6,,,,,,,,4,,,,75,30
32730,note_off,180,0,9,,,,,,,,10,,,,73,64
32730,note_on,0,0,9,,,,,,,,10,,,,75,30
32730,note_on,0,0,5,,,,,,,,3,,,,78,30
32730,note_off,180,0,5,,,,,,,,3,,,,76,64
32730,note_off,180,0,6,,,,,,,,4,,,,73,64
32785,note_off,235,0,1,,,,,,,,12,,,,64,64
32790,note_off,60,0,9,,,,,,,,10,,,,75,64
32790,note_on,0,0,9,,,,,,,,10,,,,73,30
32790,note_off,240,0,4,,,,,,,,2,,,,75,64
32790,note_on,0,0,8,,,,,,,,8,,,,76,30
32790,set_tempo,3360,1,0,1666666,,,,,,,,,,,,
32790,note_off,60,0,6,,,,,,,,4,,,,75,64
32790,note_on,0,0,5,,,,,,,,3,,,,76,30
32790,note_off,60,0,5,,,,,,,,3,,,,78,64
32790,note_on,0,0,3,,,,,,,,1,,,,73,45
32790,note_off,60,0,8,,,,,,,,8,,,,78,64
32790,note_on,0,0,6,,,,,,,,4,,,,73,30
32790,note_off,240,0,3,,,,,,,,1,,,,75,64
32790,note_on,5,0,1,,,,,,,,12,,,,68,45
32790,note_on,0,0,4,,,,,,,,2,,,,73,30
32970,note_off,180,0,6,,,,,,,,4,,,,73,64
32970,note_off,180,0,9,,,,,,,,10,,,,73,64
32970,note_on,0,0,6,,,,,,,,4,,,,75,30
32970,note_off,180,0,5,,,,,,,,3,,,,76,64
32970,note_on,0,0,5,,,,,,,,3,,,,78,30
32970,note_on,0,0,8,,,,,,,,8,,,,78,30
32970,note_off,180,0,8,,,,,,,,8,,,,76,64
32970,note_on,0,0,9,,,,,,,,10,,,,75,30
33025,note_off,235,0,1,,,,,,,,12,,,,68,64
33030,note_off,60,0,5,,,,,,,,3,,,,78,64
33030,note_on,0,0,5,,,,,,,,3,,,,76,30
33030,note_on,0,0,9,,,,,,,,10,,,,73,30
33030,note_on,0,0,6,,,,,,,,4,,,,73,30
33030,note_on,5,0,1,,,,,,,,12,,,,73,45
33030,note_on,0,0,8,,,,,,,,8,,,,76,30
33030,note_off,60,0,8,,,,,,,,8,,,,78,64
33030,note_off,60,0,9,,,,,,,,10,,,,75,64
33030,note_off,60,0,6,,,,,,,,4,,,,75,64
33190,note_off,400,0,4,,,,,,,,2,,,,73,64
33190,note_off,400,0,3,,,,,,,,1,,,,73,64
33210,note_on,0,0,6,,,,,,,,4,,,,75,30
33210,note_off,180,0,6,,,,,,,,4,,,,73,64
33210,note_on,0,0,5,,,,,,,,3,,,,78,30
33210,note_on,0,0,8,,,,,,,,8,,,,78,30
33210,note_off,180,0,8,,,,,,,,8,,,,76,64
33210,note_off,180,0,9,,,,,,,,10,,,,73,64
33210,note_on,0,0,9,,,,,,,,10,,,,75,30
33210,note_off,180,0,5,,,,,,,,3,,,,76,64
33265,note_off,55,0,9,,,,,,,,10,,,,75,64
33265,note_off,55,0,6,,,,,,,,4,,,,75,64
33265,note_off,55,0,8,,,,,,,,8,,,,78,64
33265,note_off,55,0,5,,,,,,,,3,,,,78,64
33265,note_off,235,0,1,,,,,,,,12,,,,73,64
33300,note_on,110,0,4,,,,,,,,2,,,,80,30
33300,note_on,35,0,9,,,,,,,,10,,,,73,30
33300,note_on,0,0,1,,,,,,,,12,,,,64,45
33300,note_on,110,0,3,,,,,,,,1,,,,80,45
33300,note_on,0,0,1,,,,,,,,12,,,,68,45
33300,note_on,35,0,1,,,,,,,,12,,,,61,45
33300,note_on,35,0,5,,,,,,,,3,,,,76,30
33300,set_tempo,510,1,0,1500000,,,,,,,,,,,,
33300,note_on,35,0,6,,,,,,,,4,,,,73,30
33300,note_on,35,0,8,,,,,,,,8,,,,76,30
33480,note_on,0,0,6,,,,,,,,4,,,,75,30
33480,note_on,0,0,5,,,,,,,,3,,,,78,30
33480,note_on,0,0,8,,,,,,,,8,,,,78,30
33480,note_off,180,0,8,,,,,,,,8,,,,76,64
33480,note_off,180,0,5,,,,,,,,3,,,,76,64
33480,note_off,180,0,9,,,,,,,,10,,,,73,64
33480,note_on,0,0,9,,,,,,,,10,,,,75,30
33480,note_off,180,0,6,,,,,,,,4,,,,73,64
33540,note_on,0,0,5,,,,,,,,3,,,,76,30
33540,note_off,60,0,6,,,,,,,,4,,,,75,64
33540,note_on,0,0,6,,,,,,,,4,,,,73,30
33540,note_on,830,0,2,,,,,,,,13,,,,37,45
33540,note_off,60,0,9,,,,,,,,10,,,,75,64
33540,note_on,0,0,2,,,,,,,,13,,,,49,45
33540,note_on,0,0,9,,,,,,,,10,,,,73,30
33540,note_on,0,0,8,,,,,,,,8,,,,76,30
33540,note_off,60,0,8,,,,,,,,8,,,,78,64
33540,note_off,60,0,5,,,,,,,,3,,,,78,64
33540,note_on,830,0,10,,,,,,,,11,,,,61,30
33540,note_on,830,0,7,,,,,,,,5,,,,61,30
33700,note_off,400,0,1,,,,,,,,12,,,,68,64
33700,note_off,0,0,1,,,,,,,,12,,,,64,64
33700,note_off,0,0,1,,,,,,,,12,,,,61,64
33720,note_on,0,0,6,,,,,,,,4,,,,75,30
33720,note_on,0,0,5,,,,,,,,3,,,,78,30
33720,note_off,180,0,8,,,,,,,,8,,,,76,64
33720,note_off,180,0,5,,,,,,,,3,,,,76,64
33720,note_off,180,0,9,,,,,,,,10,,,,73,64
33720,note_on,0,0,9,,,,,,,,10,,,,75,30
33720,note_off,180,0,6,,,,,,,,4,,,,73,64
33720,note_on,0,0,8,,,,,,,,8,,,,78,30
33775,note_off,235,0,2,,,,,,,,13,,,,49,64
33775,note_off,235,0,10,,,,,,,,11,,,,61,64
33775,note_off,0,0,2,,,,,,,,13,,,,37,64
33775,note_off,235,0,7,,,,,,,,5,,,,61,64
33780,note_off,60,0,6,,,,,,,,4,,,,75,64
33780,note_on,0,0,6,,,,,,,,4,,,,73,30
33780,note_on,0,0,5,,,,,,,,3,,,,76,30
33780,note_on,5,0,2,,,,,,,,13,,,,37,45
33780,note_on,0,0,2,,,,,,,,13,,,,49,45
33780,note_on,5,0,7,,,,,,,,5,,,,61,30
33780,note_off,480,0,3,,,,,,,,1,,,,80,64
33780,note_on,0,0,8,,,,,,,,8,,,,76,30
33780,note_off,60,0,5,,,,,,,,3,,,,78,64
33780,set_tempo,480,1,0,1578947,,,,,,,,,,,,
33780,note_off,60,0,8,,,,,,,,8,,,,78,64
33780,note_on,0,0,3,,,,,,,,1,,,,76,45
33780,note_on,0,0,4,,,,,,,,2,,,,76,30
33780,note_off,480,0,4,,,,,,,,2,,,,80,64
33780,note_on,5,0,10,,,,,,,,11,,,,61,30
33780,note_off,60,0,9,,,,,,,,10,,,,75,64
33780,note_on,0,0,9,,,,,,,,10,,,,73,30
33960,note_on,0,0,6,,,,,,,,4,,,,75,30
33960,note_off,180,0,6,,,,,,,,4,,,,73,64
33960,note_off,180,0,5,,,,,,,,3,,,,76,64
33960,note_on,0,0,5,,,,,,,,3,,,,78,30
33960,note_off,180,0,9,,,,,,,,10,,,,73,64
33960,note_on,0,0,8,,,,,,,,8,,,,78,30
33960,note_off,180,0,8,,,,,,,,8,,,,76,64
33960,note_on,0,0,9,,,,,,,,10,,,,75,30
34020,note_on,0,0,9,,,,,,,,10,,,,73,30
34020,note_off,60,0,6,,,,,,,,4,,,,75,64
34020,note_on,0,0,6,,,,,,,,4,,,,73,30
34020,note_off,60,0,9,,,,,,,,10,,,,75,64
34020,note_on,0,0,5,,,,,,,,3,,,,76,30
34020,note_off,60,0,8,,,,,,,,8,,,,78,64
34020,note_on,0,0,8,,,,,,,,8,,,,76,30
34020,note_off,60,0,5,,,,,,,,3,,,,78,64
34180,note_off,400,0,2,,,,,,,,13,,,,49,64
34180,note_off,400,0,10,,,,,,,,11,,,,61,64
34180,note_off,0,0,2,,,,,,,,13,,,,37,64
34180,note_off,400,0,7,,,,,,,,5,,,,61,64
34200,note_off,180,0,5,,,,,,,,3,,,,76,64
34200,note_on,0,0,9,,,,,,,,10,,,,75,30
34200,note_on,0,0,6,,,,,,,,4,,,,75,30
34200,note_off,180,0,6,,,,,,,,4,,,,73,64
34200,note_on,0,0,5,,,,,,,,3,,,,78,30
34200,note_off,180,0,9,,,,,,,,10,,,,73,64
34200,note_off,180,0,8,,,,,,,,8,,,,76,64
34200,note_on,0,0,8,,,,,,,,8,,,,78,30
34260,note_off,480,0,3,,,,,,,,1,,,,76,64
34260,note_on,0,0,8,,,,,,,,8,,,,76,30
34260,note_on,0,0,3,,,,,,,,1,,,,73,46
34260,note_off,60,0,6,,,,,,,,4,,,,75,64
34260,note_on,0,0,6,,,,,,,,4,,,,73,30
34260,note_off,60,0,8,,,,,,,,8,,,,78,64
34260,note_off,60,0,9,,,,,,,,10,,,,75,64
34260,note_on,0,0,9,,,,,,,,10,,,,73,30
34260,note_on,0,0,4,,,,,,,,2,,,,73,31
34260,note_off,60,0,5,,,,,,,,3,,,,78,64
34260,note_off,480,0,4,,,,,,,,2,,,,76,64
34260,note_on,0,0,5,,,,,,,,3,,,,76,30
34260,set_tempo,480,1,0,1764705,,,,,,,,,,,,
34440,note_on,0,0,6,,,,,,,,4,,,,75,30
34440,note_off,180,0,6,,,,,,,,4,,,,73,64
34440,note_off,180,0,5,,,,,,,,3,,,,76,64
34440,note_on,0,0,9,,,,,,,,10,,,,75,30
34440,note_on,0,0,5,,,,,,,,3,,,,78,30
34440,note_off,180,0,9,,,,,,,,10,,,,73,64
34440,note_off,180,0,8,,,,,,,,8,,,,76,64
34440,note_on,0,0,8,,,,,,,,8,,,,78,30
34500,note_off,60,0,9,,,,,,,,10,,,,75,64
34500,note_on,0,0,9,,,,,,,,10,,,,73,30
34500,note_on,0,0,6,,,,,,,,4,,,,73,30
34500,note_off,60,0,6,,,,,,,,4,,,,75,64
34500,note_on,0,0,5,,,,,,,,3,,,,76,30
34500,note_off,60,0,5,,,,,,,,3,,,,78,64
34500,note_off,60,0,8,,,,,,,,8,,,,78,64
34500,note_on,0,0,8,,,,,,,,8,,,,76,30
34680,note_on,0,0,8,,,,,,,,8,,,,75,30
34680,note_off,180,0,8,,,,,,,,8,,,,76,64
34680,note_off,180,0,9,,,,,,,,10,,,,73,64
34680,note_on,0,0,9,,,,,,,,10,,,,71,30
34680,note_on,0,0,6,,,,,,,,4,,,,71,30
34680,note_off,180,0,6,,,,,,,,4,,,,73,64
34680,note_on,0,0,5,,,,,,,,3,,,,75,30
34680,note_off,180,0,5,,,,,,,,3,,,,76,64
34740,note_off,60,0,8,,,,,,,,8,,,,75,64
34740,note_on,0,0,1,,,,,,,,12,,,,69,45
34740,note_off,60,0,5,,,,,,,,3,,,,75,64
34740,note_off,60,0,9,,,,,,,,10,,,,71,64
34740,note_on,0,0,8,,,,,,,,8,,,,73,30
34740,note_on,1040,0,1,,,,,,,,12,,,,61,45
34740,note_on,0,0,3,,,,,,,,1,,,,81,47
34740,note_off,480,0,3,,,,,,,,1,,,,73,64
34740,note_on,0,0,5,,,,,,,,3,,,,73,30
34740,note_on,0,0,1,,,,,,,,12,,,,66,45
34740,note_on,0,0,9,,,,,,,,10,,,,69,30
34740,note_off,60,0,6,,,,,,,,4,,,,71,64
34740,note_on,0,0,6,,,,,,,,4,,,,69,30
34740,note_on,0,0,4,,,,,,,,2,,,,81,32
34740,set_tempo,480,1,0,1666666,,,,,,,,,,,,
34740,note_off,480,0,4,,,,,,,,2,,,,73,64
34920,note_off,180,0,5,,,,,,,,3,,,,73,64
34920,note_off,180,0,6,,,,,,,,4,,,,69,64
34920,note_on,0,0,5,,,,,,,,3,,,,75,30
34920,note_off,180,0,8,,,,,,,,8,,,,73,64
34920,note_on,0,0,8,,,,,,,,8,,,,75,30
34920,note_off,180,0,9,,,,,,,,10,,,,69,64
34920,note_on,0,0,9,,,,,,,,10,,,,71,30
34920,note_on,0,0,6,,,,,,,,4,,,,71,30
34980,note_off,60,0,9,,,,,,,,10,,,,71,64
34980,note_on,0,0,8,,,,,,,,8,,,,73,30
34980,note_off,60,0,8,,,,,,,,8,,,,75,64
34980,note_on,0,0,9,,,,,,,,10,,,,69,30
34980,note_on,0,0,2,,,,,,,,13,,,,54,45
34980,note_on,800,0,2,,,,,,,,13,,,,42,45
34980,note_off,60,0,5,,,,,,,,3,,,,75,64
34980,note_on,0,0,6,,,,,,,,4,,,,69,30
34980,note_on,0,0,5,,,,,,,,3,,,,73,30
34980,note_on,0,0,4,,,,,,,,2,,,,80,32
34980,note_off,240,0,4,,,,,,,,2,,,,81,64
34980,note_on,800,0,7,,,,,,,,5,,,,66,30
34980,note_off,240,0,3,,,,,,,,1,,,,81,64
34980,note_on,800,0,10,,,,,,,,11,,,,66,30
34980,set_tempo,240,1,0,1578947,,,,,,,,,,,,
34980,note_on,0,0,3,,,,,,,,1,,,,80,47
34980,note_off,60,0,6,,,,,,,,4,,,,71,64
35140,note_off,400,0,1,,,,,,,,12,,,,69,64
35140,note_off,0,0,1,,,,,,,,12,,,,61,64
35140,note_off,0,0,1,,,,,,,,12,,,,66,64
35160,note_on,0,0,9,,,,,,,,10,,,,71,30
35160,note_off,180,0,9,,,,,,,,10,,,,69,64
35160,note_on,0,0,6,,,,,,,,4,,,,71,30
35160,note_off,180,0,6,,,,,,,,4,,,,69,64
35160,note_on,0,0,8,,,,,,,,8,,,,75,30
35160,note_off,180,0,8,,,,,,,,8,,,,73,64
35160,note_on,0,0,5,,,,,,,,3,,,,75,30
35160,note_off,180,0,5,,,,,,,,3,,,,73,64
35215,note_off,235,0,10,,,,,,,,11,,,,66,64
35215,note_off,235,0,7,,,,,,,,5,,,,66,64
35215,note_off,235,0,2,,,,,,,,13,,,,54,64
35215,note_off,0,0,2,,,,,,,,13,,,,42,64
35220,note_off,240,0,4,,,,,,,,2,,,,80,64
35220,note_on,80,0,1,,,,,,,,12,,,,61,45
35220,note_on,5,0,7,,,,,,,,5,,,,66,30
35220,note_off,60,0,8,,,,,,,,8,,,,75,64
35220,note_on,5,0,10,,,,,,,,11,,,,66,30
35220,note_on,0,0,8,,,,,,,,8,,,,73,30
35220,set_tempo,240,1,0,1500000,,,,,,,,,,,,
35220,note_off,240,0,3,,,,,,,,1,,,,80,64
35220,note_on,0,0,4,,,,,,,,2,,,,81,33
35220,note_off,60,0,6,,,,,,,,4,,,,71,64
35220,note_on,0,0,3,,,,,,,,1,,,,81,48
35220,note_on,0,0,9,,,,,,,,10,,,,69,30
35220,note_off,60,0,9,,,,,,,,10,,,,71,64
35220,note_on,0,0,5,,,,,,,,3,,,,73,30
35220,note_on,5,0,2,,,,,,,,13,,,,42,45
35220,note_off,60,0,5,,,,,,,,3,,,,75,64
35220,note_on,0,0,2,,,,,,,,13,,,,54,45
35220,note_on,0,0,6,,,,,,,,4,,,,69,30
35400,note_off,180,0,9,,,,,,,,10,,,,69,64
35400,note_off,180,0,8,,,,,,,,8,,,,73,64
35400,note_on,0,0,8,,,,,,,,8,,,,75,30
35400,note_on,0,0,6,,,,,,,,4,,,,71,30
35400,note_off,180,0,5,,,,,,,,3,,,,73,64
35400,note_off,180,0,6,,,,,,,,4,,,,69,64
35400,note_on,0,0,9,,,,,,,,10,,,,71,30
35400,note_on,0,0,5,,,,,,,,3,,,,75,30
35455,note_off,235,0,1,,,,,,,,12,,,,61,64
35460,note_on,0,0,6,,,,,,,,4,,,,69,30
35460,note_off,60,0,6,,,,,,,,4,,,,71,64
35460,note_off,60,0,8,,,,,,,,8,,,,75,64
35460,note_on,0,0,8,,,,,,,,8,,,,73,30
35460,note_off,60,0,9,,,,,,,,10,,,,71,64
35460,note_on,0,0,9,,,,,,,,10,,,,69,30
35460,note_on,5,0,1,,,,,,,,12,,,,66,45
35460,note_off,60,0,5,,,,,,,,3,,,,75,64
35460,note_on,0,0,5,,,,,,,,3,,,,73,30
35620,note_off,400,0,7,,,,,,,,5,,,,66,64
35620,note_off,400,0,10,,,,,,,,11,,,,66,64
35620,note_off,0,0,2,,,,,,,,13,,,,42,64
35620,note_off,400,0,2,,,,,,,,13,,,,54,64
35640,note_on,0,0,6,,,,,,,,4,,,,71,30
35640,note_off,180,0,6,,,,,,,,4,,,,69,64
35640,note_off,180,0,9,,,,,,,,10,,,,69,64
35640,note_on,0,0,9,,,,,,,,10,,,,71,30
35640,note_off,180,0,5,,,,,,,,3,,,,73,64
35640,note_off,180,0,8,,,,,,,,8,,,,73,64
35640,note_on,0,0,8,,,,,,,,8,,,,75,30
35640,note_on,0,0,5,,,,,,,,3,,,,75,30
35695,note_off,235,0,1,,,,,,,,12,,,,66,64
35700,note_off,60,0,9,,,,,,,,10,,,,71,64
35700,note_on,0,0,8,,,,,,,,8,,,,73,30
35700,note_on,5,0,1,,,,,,,,12,,,,69,45
35700,note_on,0,0,9,,,,,,,,10,,,,69,30
35700,note_off,60,0,8,,,,,,,,8,,,,75,64
35700,note_on,0,0,6,,,,,,,,4,,,,69,30
35700,note_off,60,0,6,,,,,,,,4,,,,71,64
35700,note_off,60,0,5,,,,,,,,3,,,,75,64
35700,note_on,0,0,5,,,,,,,,3,,,,73,30
35880,note_on,0,0,9,,,,,,,,10,,,,71,30
35880,note_on,0,0,5,,,,,,,,3,,,,75,30
35880,note_off,180,0,6,,,,,,,,4,,,,69,64
35880,note_on,0,0,6,,,,,,,,4,,,,71,30
35880,note_on,0,0,8,,,,,,,,8,,,,75,30
35880,note_off,180,0,8,,,,,,,,8,,,,73,64
35880,note_off,180,0,9,,,,,,,,10,,,,69,64
35880,note_off,180,0,5,,,,,,,,3,,,,73,64
35935,note_off,235,0,1,,,,,,,,12,,,,69,64
35940,note_off,60,0,6,,,,,,,,4,,,,71,64
35940,note_on,0,0,9,,,,,,,,10,,,,73,30
35940,note_on,0,0,6,,,,,,,,4,,,,73,30
35940,note_off,60,0,9,,,,,,,,10,,,,71,64
35940,note_on,5,0,1,,,,,,,,12,,,,73,45
35940,note_off,60,0,5,,,,,,,,3,,,,75,64
35940,note_on,0,0,5,,,,,,,,3,,,,76,30
35940,note_off,60,0,8,,,,,,,,8,,,,75,64
35940,note_on,0,0,8,,,,,,,,8,,,,76,30
36120,note_off,180,0,6,,,,,,,,4,,,,73,64
36120,note_on,0,0,6,,,,,,,,4,,,,69,30
36120,note_off,180,0,5,,,,,,,,3,,,,76,64
36120,note_on,0,0,9,,,,,,,,10,,,,69,30
36120,note_on,0,0,5,,,,,,,,3,,,,73,30
36120,note_off,180,0,9,,,,,,,,10,,,,73,64
36120,note_off,180,0,8,,,,,,,,8,,,,76,64
36120,note_on,0,0,8,,,,,,,,8,,,,73,30
36175,note_off,55,0,9,,,,,,,,10,,,,69,64
36175,note_off,55,0,6,,,,,,,,4,,,,69,64
36175,note_off,235,0,1,,,,,,,,12,,,,73,64
36175,note_off,55,0,5,,,,,,,,3,,,,73,64
36175,note_off,55,0,8,,,,,,,,8,,,,73,64
36180,note_on,5,0,8,,,,,,,,8,,,,78,30
36180,note_on,5,0,6,,,,,,,,4,,,,75,30
36180,note_on,5,0,1,,,,,,,,12,,,,63,45
36180,note_on,0,0,1,,,,,,,,12,,,,66,45
36180,note_on,0,0,1,,,,,,,,12,,,,69,45
36180,note_on,5,0,5,,,,,,,,3,,,,78,30
36180,note_on,5,0,9,,,,,,,,10,,,,75,30
36360,note_off,180,0,8,,,,,,,,8,,,,78,64
36360,note_on,0,0,8,,,,,,,,8,,,,80,30
36360,note_on,0,0,9,,,,,,,,10,,,,76,30
36360,note_off,180,0,6,,,,,,,,4,,,,75,64
36360,note_on,0,0,6,,,,,,,,4,,,,76,30
36360,note_off,180,0,9,,,,,,,,10,,,,75,64
36360,note_on,0,0,5,,,,,,,,3,,,,80,30
36360,note_off,180,0,5,,,,,,,,3,,,,78,64
36420,note_on,0,0,5,,,,,,,,3,,,,78,30
36420,note_off,60,0,5,,,,,,,,3,,,,80,64
36420,note_on,0,0,6,,,,,,,,4,,,,75,30
36420,note_on,800,0,2,,,,,,,,13,,,,39,45
36420,note_off,60,0,8,,,,,,,,8,,,,80,64
36420,note_off,60,0,6,,,,,,,,4,,,,76,64
36420,note_on,800,0,7,,,,,,,,5,,,,63,30
36420,note_on,0,0,2,,,,,,,,13,,,,51,45
36420,note_off,60,0,9,,,,,,,,10,,,,76,64
36420,note_on,800,0,10,,,,,,,,11,,,,63,30
36420,note_on,0,0,8,,,,,,,,8,,,,78,30
36420,note_on,0,0,9,,,,,,,,10,,,,75,30
36580,note_off,0,0,1,,,,,,,,12,,,,63,64
36580,note_off,0,0,1,,,,,,,,12,,,,66,64
36580,note_off,400,0,1,,,,,,,,12,,,,69,64
36600,note_on,0,0,9,,,,,,,,10,,,,76,30
36600,note_off,180,0,8,,,,,,,,8,,,,78,64
36600,note_off,180,0,6,,,,,,,,4,,,,75,64
36600,note_on,0,0,6,,,,,,,,4,,,,76,30
36600,note_on,0,0,8,,,,,,,,8,,,,80,30
36600,note_off,180,0,5,,,,,,,,3,,,,78,64
36600,note_on,0,0,5,,,,,,,,3,,,,80,30
36600,note_off,180,0,9,,,,,,,,10,,,,75,64
36655,note_off,0,0,2,,,,,,,,13,,,,39,64
36655,note_off,235,0,2,,,,,,,,13,,,,51,64
36655,note_off,235,0,10,,,,,,,,11,,,,63,64
36655,note_off,235,0,7,,,,,,,,5,,,,63,64
36660,note_on,0,0,5,,,,,,,,3,,,,78,30
36660,note_off,1440,0,4,,,,,,,,2,,,,81,64
36660,note_off,60,0,6,,,,,,,,4,,,,76,64
36660,note_on,0,0,4,,,,,,,,2,,,,78,39
36660,note_on,0,0,9,,,,,,,,10,,,,75,30
36660,note_off,60,0,9,,,,,,,,10,,,,76,64
36660,note_off,60,0,5,,,,,,,,3,,,,80,64
36660,note_on,0,0,6,,,,,,,,4,,,,75,30
36660,note_on,5,0,10,,,,,,,,11,,,,63,30
36660,note_off,1440,0,3,,,,,,,,1,,,,81,64
36660,note_on,0,0,3,,,,,,,,1,,,,78,54
36660,note_on,0,0,8,,,,,,,,8,,,,78,30
36660,note_off,60,0,8,,,,,,,,8,,,,80,64
36660,note_on,5,0,7,,,,,,,,5,,,,63,30
36660,note_on,5,0,2,,,,,,,,13,,,,39,45
36660,note_on,0,0,2,,,,,,,,13,,,,51,45
36840,note_on,0,0,9,,,,,,,,10,,,,76,30
36840,note_off,180,0,9,,,,,,,,10,,,,75,64
36840,note_on,0,0,8,,,,,,,,8,,,,80,30
36840,note_off,180,0,8,,,,,,,,8,,,,78,64
36840,note_on,0,0,5,,,,,,,,3,,,,80,30
36840,note_off,180,0,5,,,,,,,,3,,,,78,64
36840,note_off,180,0,6,,,,,,,,4,,,,75,64
36840,note_on,0,0,6,,,,,,,,4,,,,76,30
36900,note_off,60,0,5,,,,,,,,3,,,,80,64
36900,note_on,0,0,9,,,,,,,,10,,,,75,30
36900,note_on,0,0,5,,,,,,,,3,,,,78,30
36900,note_off,60,0,9,,,,,,,,10,,,,76,64
36900,note_off,60,0,8,,,,,,,,8,,,,80,64
36900,note_on,0,0,8,,,,,,,,8,,,,78,30
36900,note_on,0,0,6,,,,,,,,4,,,,75,30
36900,note_off,60,0,6,,,,,,,,4,,,,76,64
37060,note_off,0,0,2,,,,,,,,13,,,,39,64
37060,note_off,400,0,7,,,,,,,,5,,,,63,64
37060,note_off,400,0,2,,,,,,,,13,,,,51,64
37060,note_off,400,0,10,,,,,,,,11,,,,63,64
37080,note_on,0,0,6,,,,,,,,4,,,,76,30
37080,note_off,180,0,5,,,,,,,,3,,,,78,64
37080,note_off,180,0,9,,,,,,,,10,,,,75,64
37080,note_on,0,0,5,,,,,,,,3,,,,80,30
37080,note_on,0,0,9,,,,,,,,10,,,,76,30
37080,note_off,180,0,6,,,,,,,,4,,,,75,64
37080,note_off,180,0,8,,,,,,,,8,,,,78,64
37080,note_on,0,0,8,,,,,,,,8,,,,80,30
37140,note_on,0,0,4,,,,,,,,2,,,,75,41
37140,note_off,480,0,3,,,,,,,,1,,,,78,64
37140,note_on,0,0,3,,,,,,,,1,,,,75,56
37140,note_off,480,0,4,,,,,,,,2,,,,78,64
37140,note_off,60,0,8,,,,,,,,8,,,,80,64
37140,set_tempo,1920,1,0,1666666,,,,,,,,,,,,
37140,note_on,0,0,6,,,,,,,,4,,,,75,30
37140,note_off,60,0,9,,,,,,,,10,,,,76,64
37140,note_on,0,0,9,,,,,,,,10,,,,75,30
37140,note_on,0,0,5,,,,,,,,3,,,,78,30
37140,note_off,60,0,5,,,,,,,,3,,,,80,64
37140,note_off,60,0,6,,,,,,,,4,,,,76,64
37140,note_on,0,0,8,,,,,,,,8,,,,78,30
37320,note_off,180,0,6,,,,,,,,4,,,,75,64
37320,note_on,0,0,6,,,,,,,,4,,,,76,30
37320,note_on,0,0,5,,,,,,,,3,,,,80,30
37320,note_off,180,0,5,,,,,,,,3,,,,78,64
37320,note_on,0,0,8,,,,,,,,8,,,,80,30
37320,note_on,0,0,9,,,,,,,,10,,,,76,30
37320,note_off,180,0,9,,,,,,,,10,,,,75,64
37320,note_off,180,0,8,,,,,,,,8,,,,78,64
37380,note_on,0,0,5,,,,,,,,3,,,,78,30
37380,note_off,60,0,5,,,,,,,,3,,,,80,64
37380,note_on,0,0,8,,,,,,,,8,,,,78,30
37380,note_on,0,0,9,,,,,,,,10,,,,75,30
37380,note_on,0,0,6,,,,,,,,4,,,,75,30
37380,note_off,60,0,6,,,,,,,,4,,,,76,64
37380,note_off,60,0,9,,,,,,,,10,,,,76,64
37380,note_off,60,0,8,,,,,,,,8,,,,80,64
37560,note_on,0,0,8,,,,,,,,8,,,,76,30
37560,note_off,180,0,5,,,,,,,,3,,,,78,64
37560,note_on,0,0,5,,,,,,,,3,,,,76,30
37560,note_off,180,0,6,,,,,,,,4,,,,75,64
37560,note_on,0,0,6,,,,,,,,4,,,,73,30
37560,note_off,180,0,8,,,,,,,,8,,,,78,64
37560,note_on,0,0,9,,,,,,,,10,,,,73,30
37560,note_off,180,0,9,,,,,,,,10,,,,75,64
37620,note_on,0,0,9,,,,,,,,10,,,,72,30
37620,note_off,60,0,9,,,,,,,,10,,,,73,64
37620,set_tempo,480,1,0,1578947,,,,,,,,,,,,
37620,note_off,60,0,6,,,,,,,,4,,,,73,64
37620,note_on,0,0,6,,,,,,,,4,,,,72,30
37620,note_on,0,0,1,,,,,,,,12,,,,72,45
37620,note_off,480,0,3,,,,,,,,1,,,,75,64
37620,note_off,60,0,5,,,,,,,,3,,,,76,64
37620,note_off,60,0,8,,,,,,,,8,,,,76,64
37620,note_on,0,0,4,,,,,,,,2,,,,84,43
37620,note_on,0,0,3,,,,,,,,1,,,,84,58
37620,note_off,480,0,4,,,,,,,,2,,,,75,64
37620,note_on,0,0,8,,,,,,,,8,,,,75,30
37620,note_on,1040,0,1,,,,,,,,12,,,,63,45
37620,note_on,0,0,5,,,,,,,,3,,,,75,30
37620,note_on,0,0,1,,,,,,,,12,,,,68,45
37800,note_on,0,0,8,,,,,,,,8,,,,76,30
37800,note_off,180,0,8,,,,,,,,8,,,,75,64
37800,note_on,0,0,6,,,,,,,,4,,,,73,30
37800,note_off,180,0,5,,,,,,,,3,,,,75,64
37800,note_on,0,0,5,,,,,,,,3,,,,76,30
37800,note_off,180,0,9,,,,,,,,10,,,,72,64
37800,note_on,0,0,9,,,,,,,,10,,,,73,30
37800,note_off,180,0,6,,,,,,,,4,,,,72,64
37860,note_on,0,0,9,,,,,,,,10,,,,72,30
37860,note_off,240,0,3,,,,,,,,1,,,,84,64
37860,note_on,0,0,3,,,,,,,,1,,,,82,59
37860,note_off,60,0,5,,,,,,,,3,,,,76,64
37860,note_on,0,0,5,,,,,,,,3,,,,75,30
37860,note_off,60,0,9,,,,,,,,10,,,,73,64
37860,note_on,800,0,7,,,,,,,,5,,,,68,30
37860,note_on,800,0,10,,,,,,,,11,,,,68,30
37860,note_off,240,0,4,,,,,,,,2,,,,84,64
37860,note_on,0,0,4,,,,,,,,2,,,,82,44
37860,note_off,60,0,6,,,,,,,,4,,,,73,64
37860,note_on,0,0,6,,,,,,,,4,,,,72,30
37860,set_tempo,240,1,0,1764705,,,,,,,,,,,,
37860,note_on,0,0,8,,,,,,,,8,,,,75,30
37860,note_off,60,0,8,,,,,,,,8,,,,76,64
37860,note_on,800,0,2,,,,,,,,13,,,,44,45
37860,note_on,0,0,2,,,,,,,,13,,,,56,45
38020,note_off,0,0,1,,,,,,,,12,,,,63,64
38020,note_off,0,0,1,,,,,,,,12,,,,68,64
38020,note_off,400,0,1,,,,,,,,12,,,,72,64
38040,note_on,0,0,9,,,,,,,,10,,,,73,30
38040,note_off,180,0,9,,,,,,,,10,,,,72,64
38040,note_off,180,0,8,,,,,,,,8,,,,75,64
38040,note_on,0,0,8,,,,,,,,8,,,,76,30
38040,note_on,0,0,6,,,,,,,,4,,,,73,30
38040,note_off,180,0,6,,,,,,,,4,,,,72,64
38040,note_off,180,0,5,,,,,,,,3,,,,75,64
38040,note_on,0,0,5,,,,,,,,3,,,,76,30
38095,note_off,235,0,10,,,,,,,,11,,,,68,64
38095,note_off,235,0,7,,,,,,,,5,,,,68,64
38095,note_off,0,0,2,,,,,,,,13,,,,44,64
38095,note_off,235,0,2,,,,,,,,13,,,,56,64
38100,note_off,60,0,9,,,,,,,,10,,,,73,64
38100,note_on,0,0,8,,,,,,,,8,,,,75,30
38100,note_off,60,0,8,,,,,,,,8,,,,76,64
38100,note_on,0,0,3,,,,,,,,1,,,,84,60
38100,note_off,240,0,3,,,,,,,,1,,,,82,64
38100,note_off,60,0,6,,,,,,,,4,,,,73,64
38100,note_on,5,0,2,,,,,,,,13,,,,44,45
38100,note_on,0,0,2,,,,,,,,13,,,,56,45
38100,note_on,80,0,1,,,,,,,,12,,,,63,45
38100,note_on,0,0,6,,,,,,,,4,,,,72,30
38100,note_on,0,0,9,,,,,,,,10,,,,72,30
38100,note_on,5,0,10,,,,,,,,11,,,,68,30
38100,note_on,5,0,7,,,,,,,,5,,,,68,30
38100,note_on,0,0,5,,,,,,,,3,,,,75,30
38100,note_off,60,0,5,,,,,,,,3,,,,76,64
38100,set_tempo,240,1,0,1666666,,,,,,,,,,,,
38100,note_off,240,0,4,,,,,,,,2,,,,82,64
38100,note_on,0,0,4,,,,,,,,2,,,,84,45
38280,note_on,0,0,5,,,,,,,,3,,,,76,30
38280,note_off,180,0,8,,,,,,,,8,,,,75,64
38280,note_on,0,0,9,,,,,,,,10,,,,73,30
38280,note_on,0,0,8,,,,,,,,8,,,,76,30
38280,note_on,0,0,6,,,,,,,,4,,,,73,30
38280,note_off,180,0,6,,,,,,,,4,,,,72,64
38280,note_off,180,0,5,,,,,,,,3,,,,75,64
38280,note_off,180,0,9,,,,,,,,10,,,,72,64
38335,note_off,235,0,1,,,,,,,,12,,,,63,64
38340,note_off,60,0,9,,,,,,,,10,,,,73,64
38340,note_off,60,0,8,,,,,,,,8,,,,76,64
38340,note_on,0,0,8,,,,,,,,8,,,,75,30
38340,note_off,60,0,6,,,,,,,,4,,,,73,64
38340,note_on,0,0,6,,,,,,,,4,,,,72,30
38340,note_off,60,0,5,,,,,,,,3,,,,76,64
38340,note_on,0,0,5,,,,,,,,3,,,,75,30
38340,note_on,5,0,1,,,,,,,,12,,,,68,45
38340,note_on,0,0,9,,,,,,,,10,,,,72,30
38500,note_off,400,0,2,,,,,,,,13,,,,56,64
38500,note_off,400,0,7,,,,,,,,5,,,,68,64
38500,note_off,0,0,2,,,,,,,,13,,,,44,64
38500,note_off,400,0,10,,,,,,,,11,,,,68,64
38520,note_off,180,0,6,,,,,,,,4,,,,72,64
38520,note_off,180,0,5,,,,,,,,3,,,,75,64
38520,note_off,180,0,9,,,,,,,,10,,,,72,64
38520,note_on,0,0,9,,,,,,,,10,,,,73,30
38520,note_on,0,0,6,,,,,,,,4,,,,73,30
38520,note_on,0,0,8,,,,,,,,8,,,,76,30
38520,note_on,0,0,5,,,,,,,,3,,,,76,30
38520,note_off,180,0,8,,,,,,,,8,,,,75,64
38575,note_off,235,0,1,,,,,,,,12,,,,68,64
38580,note_on,0,0,8,,,,,,,,8,,,,75,30
38580,note_off,60,0,6,,,,,,,,4,,,,73,64
38580,note_on,0,0,6,,,,,,,,4,,,,72,30
38580,note_on,5,0,1,,,,,,,,12,,,,72,45
38580,note_on,0,0,9,,,,,,,,10,,,,72,30
38580,note_off,60,0,8,,,,,,,,8,,,,76,64
38580,note_off,60,0,9,,,,,,,,10,,,,73,64
38580,note_on,0,0,5,,,,,,,,3,,,,75,30
38580,note_off,60,0,5,,,,,,,,3,,,,76,64
38760,note_on,0,0,5,,,,,,,,3,,,,76,30
38760,note_on,0,0,9,,,,,,,,10,,,,73,30
38760,note_off,180,0,5,,,,,,,,3,,,,75,64
38760,note_off,180,0,6,,,,,,,,4,,,,72,64
38760,note_off,180,0,9,,,,,,,,10,,,,72,64
38760,note_off,180,0,8,,,,,,,,8,,,,75,64
38760,note_on,0,0,8,,,,,,,,8,,,,76,30
38760,note_on,0,0,6,,,,,,,,4,,,,73,30
38815,note_off,235,0,1,,,,,,,,12,,,,72,64
38820,note_off,60,0,8,,,,,,,,8,,,,76,64
38820,note_on,0,0,8,,,,,,,,8,,,,78,30
38820,note_off,60,0,9,,,,,,,,10,,,,73,64
38820,note_on,0,0,9,,,,,,,,10,,,,75,30
38820,note_off,60,0,6,,,,,,,,4,,,,73,64
38820,note_on,0,0,6,,,,,,,,4,,,,75,30
38820,note_on,0,0,5,,,,,,,,3,,,,78,30
38820,note_off,60,0,5,,,,,,,,3,,,,76,64
38820,note_on,5,0,1,,,,,,,,12,,,,75,45
38940,note_off,840,0,4,,,,,,,,2,,,,84,64
38940,note_off,840,0,3,,,,,,,,1,,,,84,64
39000,note_on,0,0,5,,,,,,,,3,,,,75,30
39000,note_off,180,0,5,,,,,,,,3,,,,78,64
39000,note_on,0,0,9,,,,,,,,10,,,,72,30
39000,note_off,180,0,6,,,,,,,,4,,,,75,64
39000,note_on,0,0,8,,,,,,,,8,,,,75,30
39000,note_off,180,0,8,,,,,,,,8,,,,78,64
39000,note_on,0,0,6,,,,,,,,4,,,,72,30
39000,note_off,180,0,9,,,,,,,,10,,,,75,64
39055,note_off,235,0,1,,,,,,,,12,,,,75,64
39055,note_off,55,0,8,,,,,,,,8,,,,75,64
39055,note_off,55,0,5,,,,,,,,3,,,,75,64
39055,note_off,55,0,6,,,,,,,,4,,,,72,64
39055,note_off,55,0,9,,,,,,,,10,,,,72,64
39060,note_on,5,0,5,,,,,,,,3,,,,80,30
39060,note_on,5,0,6,,,,,,,,4,,,,75,30
39060,note_on,0,0,1,,,,,,,,12,,,,68,45
39060,note_on,5,0,9,,,,,,,,10,,,,75,30
39060,note_on,5,0,8,,,,,,,,8,,,,80,30
39060,note_on,0,0,1,,,,,,,,12,,,,72,45
39060,note_on,120,0,4,,,,,,,,2,,,,80,45
39060,note_on,0,0,1,,,,,,,,12,,,,66,45
39060,note_on,5,0,1,,,,,,,,12,,,,63,45
39060,note_on,120,0,3,,,,,,,,1,,,,80,60
39240,note_off,180,0,8,,,,,,,,8,,,,80,64
39240,note_on,0,0,5,,,,,,,,3,,,,81,30
39240,note_off,180,0,5,,,,,,,,3,,,,80,64
39240,note_on,0,0,8,,,,,,,,8,,,,81,30
39300,note_off,60,0,8,,,,,,,,8,,,,81,64
39300,note_on,0,0,2,,,,,,,,13,,,,54,45
39300,note_on,0,0,6,,,,,,,,4,,,,75,30
39300,note_on,800,0,10,,,,,,,,11,,,,66,30
39300,note_off,60,0,5,,,,,,,,3,,,,81,64
39300,note_on,0,0,5,,,,,,,,3,,,,80,30
39300,note_on,800,0,2,,,,,,,,13,,,,42,45
39300,note_on,0,0,9,,,,,,,,10,,,,75,30
39300,note_off,240,0,9,,,,,,,,10,,,,75,64
39300,note_on,0,0,8,,,,,,,,8,,,,80,30
39300,note_off,240,0,6,,,,,,,,4,,,,75,64
39300,note_on,800,0,7,,,,,,,,5,,,,66,30
39460,note_off,400,0,1,,,,,,,,12,,,,72,64
39460,note_off,0,0,1,,,,,,,,12,,,,68,64
39460,note_off,0,0,1,,,,,,,,12,,,,66,64
39460,note_off,0,0,1,,,,,,,,12,,,,63,64
39480,note_on,0,0,5,,,,,,,,3,,,,81,30
39480,note_off,180,0,5,,,,,,,,3,,,,80,64
39480,note_on,0,0,8,,,,,,,,8,,,,81,30
39480,note_off,180,0,8,,,,,,,,8,,,,80,64
39535,note_off,235,0,10,,,,,,,,11,,,,66,64
39535,note_off,0,0,2,,,,,,,,13,,,,42,64
39535,note_off,235,0,7,,,,,,,,5,,,,66,64
39535,note_off,235,0,2,,,,,,,,13,,,,54,64
39540,note_off,60,0,5,,,,,,,,3,,,,81,64
39540,note_on,0,0,5,,,,,,,,3,,,,80,30
39540,note_off,480,0,4,,,,,,,,2,,,,80,64
39540,note_on,0,0,4,,,,,,,,2,,,,84,45
39540,set_tempo,1440,1,0,1500000,,,,,,,,,,,,
39540,note_on,0,0,9,,,,,,,,10,,,,75,30
39540,note_off,240,0,9,,,,,,,,10,,,,75,64
39540,note_on,5,0,7,,,,,,,,5,,,,66,30
39540,note_on,5,0,10,,,,,,,,11,,,,66,30
39540,note_on,0,0,8,,,,,,,,8,,,,80,30
39540,note_off,60,0,8,,,,,,,,8,,,,81,64
39540,note_off,480,0,3,,,,,,,,1,,,,80,64
39540,note_on,0,0,3,,,,,,,,1,,,,84,60
39540,note_off,240,0,6,,,,,,,,4,,,,75,64
39540,note_on,0,0,6,,,,,,,,4,,,,75,30
39540,note_on,0,0,2,,,,,,,,13,,,,54,45
39540,note_on,5,0,2,,,,,,,,13,,,,42,45
39720,note_on,0,0,8,,,,,,,,8,,,,81,30
39720,note_on,0,0,5,,,,,,,,3,,,,81,30
39720,note_off,180,0,5,,,,,,,,3,,,,80,64
39720,note_off,180,0,8,,,,,,,,8,,,,80,64
39780,note_off,240,0,6,,,,,,,,4,,,,75,64
39780,note_on,0,0,6,,,,,,,,4,,,,75,30
39780,note_off,60,0,8,,,,,,,,8,,,,81,64
39780,note_on,0,0,8,,,,,,,,8,,,,80,30
39780,note_off,60,0,5,,,,,,,,3,,,,81,64
39780,note_on,0,0,5,,,,,,,,3,,,,80,30
39780,note_off,240,0,9,,,,,,,,10,,,,75,64
39780,note_on,0,0,9,,,,,,,,10,,,,75,30
39940,note_off,0,0,2,,,,,,,,13,,,,42,64
39940,note_off,400,0,10,,,,,,,,11,,,,66,64
39940,note_off,400,0,2,,,,,,,,13,,,,54,64
39940,note_off,400,0,7,,,,,,,,5,,,,66,64
39960,note_off,180,0,5,,,,,,,,3,,,,80,64
39960,note_on,0,0,5,,,,,,,,3,,,,81,30
39960,note_off,180,0,8,,,,,,,,8,,,,80,64
39960,note_on,0,0,8,,,,,,,,8,,,,81,30
40020,note_on,0,0,4,,,,,,,,2,,,,80,45
40020,note_off,480,0,3,,,,,,,,1,,,,84,64
40020,note_on,0,0,3,,,,,,,,1,,,,80,60
40020,note_on,0,0,5,,,,,,,,3,,,,80,30
40020,note_off,60,0,8,,,,,,,,8,,,,81,64
40020,note_off,240,0,9,,,,,,,,10,,,,75,64
40020,note_off,480,0,4,,,,,,,,2,,,,84,64
40020,note_on,0,0,8,,,,,,,,8,,,,80,30
40020,note_on,0,0,9,,,,,,,,10,,,,75,30
40020,note_on,0,0,6,,,,,,,,4,,,,75,30
40020,note_off,60,0,5,,,,,,,,3,,,,81,64
40020,note_off,240,0,6,,,,,,,,4,,,,75,64
40200,note_on,0,0,8,,,,,,,,8,,,,81,30
40200,note_on,0,0,5,,,,,,,,3,,,,81,30
40200,note_off,180,0,5,,,,,,,,3,,,,80,64
40200,note_off,180,0,8,,,,,,,,8,,,,80,64
40260,note_off,60,0,8,,,,,,,,8,,,,81,64
40260,note_off,240,0,6,,,,,,,,4,,,,75,64
40260,note_on,0,0,8,,,,,,,,8,,,,80,30
40260,note_on,0,0,6,,,,,,,,4,,,,75,30
40260,note_on,0,0,5,,,,,,,,3,,,,80,30
40260,note_off,240,0,9,,,,,,,,10,,,,75,64
40260,note_on,0,0,9,,,,,,,,10,,,,75,30
40260,note_off,60,0,5,,,,,,,,3,,,,81,64
40440,note_on,0,0,8,,,,,,,,8,,,,81,30
40440,note_on,0,0,5,,,,,,,,3,,,,81,30
40440,note_off,180,0,8,,,,,,,,8,,,,80,64
40440,note_off,180,0,5,,,,,,,,3,,,,80,64
40500,note_on,0,0,5,,,,,,,,3,,,,80,30
40500,note_off,60,0,5,,,,,,,,3,,,,81,64
40500,note_off,240,0,6,,,,,,,,4,,,,75,64
40500,note_on,0,0,6,,,,,,,,4,,,,76,30
40500,note_on,0,0,1,,,,,,,,12,,,,68,45
40500,note_on,0,0,1,,,,,,,,12,,,,64,45
40500,note_on,0,0,9,,,,,,,,10,,,,76,30
40500,note_on,0,0,8,,,,,,,,8,,,,80,30
40500,note_on,0,0,3,,,,,,,,1,,,,85,60
40500,note_off,480,0,3,,,,,,,,1,,,,80,64
40500,set_tempo,960,1,0,1500000,,,,,,,,,,,,
40500,note_on,0,0,4,,,,,,,,2,,,,85,45
40500,note_off,480,0,4,,,,,,,,2,,,,80,64
40500,note_off,240,0,9,,,,,,,,10,,,,75,64
40500,note_on,1040,0,1,,,,,,,,12,,,,61,45
40500,note_off,60,0,8,,,,,,,,8,,,,81,64
40680,note_off,180,0,6,,,,,,,,4,,,,76,64
40680,note_on,0,0,6,,,,,,,,4,,,,78,30
40680,note_off,180,0,9,,,,,,,,10,,,,76,64
40680,note_on,0,0,8,,,,,,,,8,,,,81,30
40680,note_off,180,0,5,,,,,,,,3,,,,80,64
40680,note_on,0,0,9,,,,,,,,10,,,,78,30
40680,note_on,0,0,5,,,,,,,,3,,,,81,30
40680,note_off,180,0,8,,,,,,,,8,,,,80,64
40740,note_off,60,0,9,,,,,,,,10,,,,78,64
40740,note_on,0,0,9,,,,,,,,10,,,,76,30
40740,note_on,800,0,10,,,,,,,,11,,,,61,30
40740,note_on,0,0,8,,,,,,,,8,,,,80,30
40740,note_off,60,0,8,,,,,,,,8,,,,81,64
40740,note_on,0,0,2,,,,,,,,13,,,,49,45
40740,note_on,800,0,2,,,,,,,,13,,,,37,45
40740,note_on,0,0,5,,,,,,,,3,,,,80,30
40740,note_off,60,0,5,,,,,,,,3,,,,81,64
40740,note_off,60,0,6,,,,,,,,4,,,,78,64
40740,note_on,0,0,6,,,,,,,,4,,,,76,30
40740,note_on,800,0,7,,,,,,,,5,,,,61,30
40900,note_off,400,0,1,,,,,,,,12,,,,68,64
40900,note_off,0,0,1,,,,,,,,12,,,,61,64
40900,note_off,0,0,1,,,,,,,,12,,,,64,64
40920,note_on,0,0,5,,,,,,,,3,,,,81,30
40920,note_off,180,0,5,,,,,,,,3,,,,80,64
40920,note_off,180,0,8,,,,,,,,8,,,,80,64
40920,note_on,0,0,8,,,,,,,,8,,,,81,30
40920,note_off,180,0,6,,,,,,,,4,,,,76,64
40920,note_on,0,0,6,,,,,,,,4,,,,78,30
40920,note_off,180,0,9,,,,,,,,10,,,,76,64
40920,note_on,0,0,9,,,,,,,,10,,,,78,30
40975,note_off,235,0,10,,,,,,,,11,,,,61,64
40975,note_off,0,0,2,,,,,,,,13,,,,37,64
40975,note_off,235,0,7,,,,,,,,5,,,,61,64
40975,note_off,235,0,2,,,,,,,,13,,,,49,64
40980,note_on,5,0,2,,,,,,,,13,,,,37,45
40980,note_on,0,0,6,,,,,,,,4,,,,76,30
40980,note_on,0,0,2,,,,,,,,13,,,,49,45
40980,note_off,60,0,9,,,,,,,,10,,,,78,64
40980,note_on,0,0,9,,,,,,,,10,,,,76,30
40980,note_off,60,0,8,,,,,,,,8,,,,81,64
40980,note_on,0,0,5,,,,,,,,3,,,,80,30
40980,note_off,60,0,5,,,,,,,,3,,,,81,64
40980,note_off,60,0,6,,,,,,,,4,,,,78,64
40980,note_on,80,0,1,,,,,,,,12,,,,61,45
40980,note_on,0,0,8,,,,,,,,8,,,,80,30
40980,note_off,480,0,3,,,,,,,,1,,,,85,64
40980,note_on,0,0,3,,,,,,,,1,,,,73,60
40980,note_on,5,0,10,,,,,,,,11,,,,61,30
40980,note_on,0,0,4,,,,,,,,2,,,,73,45
40980,set_tempo,480,1,0,1578947,,,,,,,,,,,,
40980,note_on,5,0,7,,,,,,,,5,,,,61,30
40980,note_off,480,0,4,,,,,,,,2,,,,85,64
41160,note_off,180,0,5,,,,,,,,3,,,,80,64
41160,note_on,0,0,9,,,,,,,,10,,,,78,30
41160,note_off,180,0,6,,,,,,,,4,,,,76,64
41160,note_on,0,0,6,,,,,,,,4,,,,78,30
41160,note_off,180,0,8,,,,,,,,8,,,,80,64
41160,note_off,180,0,9,,,,,,,,10,,,,76,64
41160,note_on,0,0,5,,,,,,,,3,,,,81,30
41160,note_on,0,0,8,,,,,,,,8,,,,81,30
41215,note_off,235,0,1,,,,,,,,12,,,,61,64
41220,note_off,60,0,9,,,,,,,,10,,,,78,64
41220,note_on,0,0,6,,,,,,,,4,,,,76,30
41220,note_off,60,0,6,,,,,,,,4,,,,78,64
41220,note_on,0,0,9,,,,,,,,10,,,,76,30
41220,note_on,0,0,8,,,,,,,,8,,,,80,30
41220,note_off,60,0,8,,,,,,,,8,,,,81,64
41220,note_on,0,0,5,,,,,,,,3,,,,80,30
41220,note_off,60,0,5,,,,,,,,3,,,,81,64
41220,note_on,5,0,1,,,,,,,,12,,,,64,45
41380,note_off,400,0,2,,,,,,,,13,,,,49,64
41380,note_off,400,0,3,,,,,,,,1,,,,73,64
41380,note_off,0,0,2,,,,,,,,13,,,,37,64
41380,note_off,400,0,10,,,,,,,,11,,,,61,64
41380,note_off,400,0,7,,,,,,,,5,,,,61,64
41380,note_off,400,0,4,,,,,,,,2,,,,73,64
41400,note_on,0,0,8,,,,,,,,8,,,,81,30
41400,note_off,180,0,8,,,,,,,,8,,,,80,64
41400,note_off,180,0,9,,,,,,,,10,,,,76,64
41400,note_on,0,0,9,,,,,,,,10,,,,78,30
41400,note_off,180,0,5,,,,,,,,3,,,,80,64
41400,note_on,0,0,5,,,,,,,,3,,,,81,30
41400,note_off,180,0,6,,,,,,,,4,,,,76,64
41400,note_on,0,0,6,,,,,,,,4,,,,78,30
41455,note_off,235,0,1,,,,,,,,12,,,,64,64
41460,note_on,0,0,9,,,,,,,,10,,,,76,30
41460,note_on,0,0,8,,,,,,,,8,,,,80,30
41460,note_on,0,0,5,,,,,,,,3,,,,80,30
41460,note_off,60,0,5,,,,,,,,3,,,,81,64
41460,note_off,60,0,8,,,,,,,,8,,,,81,64
41460,note_on,0,0,6,,,,,,,,4,,,,76,30
41460,note_on,5,0,1,,,,,,,,12,,,,68,45
41460,set_tempo,480,1,0,1714285,,,,,,,,,,,,
41460,note_off,60,0,9,,,,,,,,10,,,,78,64
41460,note_off,60,0,6,,,,,,,,4,,,,78,64
41640,note_off,180,0,8,,,,,,,,8,,,,80,64
41640,note_on,0,0,8,,,,,,,,8,,,,81,30
41640,note_off,180,0,9,,,,,,,,10,,,,76,64
41640,note_on,0,0,5,,,,,,,,3,,,,81,30
41640,note_off,180,0,5,,,,,,,,3,,,,80,64
41640,note_on,0,0,9,,,,,,,,10,,,,78,30
41640,note_on,0,0,6,,,,,,,,4,,,,78,30
41640,note_off,180,0,6,,,,,,,,4,,,,76,64
41695,note_off,235,0,1,,,,,,,,12,,,,68,64
41700,note_off,60,0,9,,,,,,,,10,,,,78,64
41700,note_on,5,0,1,,,,,,,,12,,,,73,45
41700,note_on,0,0,6,,,,,,,,4,,,,76,30
41700,note_off,60,0,6,,,,,,,,4,,,,78,64
41700,note_on,0,0,5,,,,,,,,3,,,,80,30
41700,note_off,60,0,5,,,,,,,,3,,,,81,64
41700,note_off,60,0,8,,,,,,,,8,,,,81,64
41700,note_on,0,0,8,,,,,,,,8,,,,80,30
41700,note_on,0,0,9,,,,,,,,10,,,,76,30
41880,note_on,0,0,5,,,,,,,,3,,,,81,30
41880,note_off,180,0,5,,,,,,,,3,,,,80,64
41880,note_on,0,0,9,,,,,,,,10,,,,78,30
41880,note_on,0,0,8,,,,,,,,8,,,,81,30
41880,note_off,180,0,8,,,,,,,,8,,,,80,64
41880,note_off,180,0,9,,,,,,,,10,,,,76,64
41880,note_on,0,0,6,,,,,,,,4,,,,78,30
41880,note_off,180,0,6,,,,,,,,4,,,,76,64
41935,note_off,55,0,9,,,,,,,,10,,,,78,64
41935,note_off,55,0,8,,,,,,,,8,,,,81,64
41935,note_off,235,0,1,,,,,,,,12,,,,73,64
41935,note_off,55,0,6,,,,,,,,4,,,,78,64
41935,note_off,55,0,5,,,,,,,,3,,,,81,64
41940,note_on,560,0,3,,,,,,,,1,,,,73,45
41940,set_tempo,480,1,0,1500000,,,,,,,,,,,,
41940,note_on,560,0,4,,,,,,,,2,,,,73,30
41940,note_on,5,0,1,,,,,,,,12,,,,61,45
41940,note_on,0,0,1,,,,,,,,12,,,,66,45
41940,note_on,0,0,1,,,,,,,,12,,,,69,45
41940,note_on,5,0,6,,,,,,,,4,,,,66,30
41940,note_on,5,0,8,,,,,,,,8,,,,69,30
41940,note_on,5,0,5,,,,,,,,3,,,,69,30
41940,note_on,5,0,9,,,,,,,,10,,,,66,30
42120,note_off,180,0,8,,,,,,,,8,,,,69,64
42120,note_on,0,0,8,,,,,,,,8,,,,71,30
42120,note_off,180,0,6,,,,,,,,4,,,,66,64
42120,note_off,180,0,9,,,,,,,,10,,,,66,64
42120,note_off,180,0,5,,,,,,,,3,,,,69,64
42120,note_on,0,0,6,,,,,,,,4,,,,68,30
42120,note_on,0,0,5,,,,,,,,3,,,,71,30
42120,note_on,0,0,9,,,,,,,,10,,,,68,30
42180,note_on,0,0,2,,,,,,,,13,,,,54,45
42180,note_off,60,0,6,,,,,,,,4,,,,68,64
42180,note_on,0,0,6,,,,,,,,4,,,,66,30
42180,note_on,800,0,2,,,,,,,,13,,,,42,45
42180,note_on,800,0,10,,,,,,,,11,,,,66,30
42180,note_on,0,0,8,,,,,,,,8,,,,69,30
42180,note_off,60,0,8,,,,,,,,8,,,,71,64
42180,note_on,800,0,7,,,,,,,,5,,,,66,30
42180,note_off,60,0,9,,,,,,,,10,,,,68,64
42180,note_off,60,0,5,,,,,,,,3,,,,71,64
42180,note_on,0,0,5,,,,,,,,3,,,,69,30
42180,note_on,0,0,9,,,,,,,,10,,,,66,30
42340,note_off,0,0,1,,,,,,,,12,,,,66,64
42340,note_off,0,0,1,,,,,,,,12,,,,61,64
42340,note_off,400,0,1,,,,,,,,12,,,,69,64
42360,note_off,180,0,6,,,,,,,,4,,,,66,64
42360,note_on,0,0,6,,,,,,,,4,,,,68,30
42360,note_on,0,0,8,,,,,,,,8,,,,71,30
42360,note_off,180,0,9,,,,,,,,10,,,,66,64
42360,note_on,0,0,9,,,,,,,,10,,,,68,30
42360,note_on,0,0,5,,,,,,,,3,,,,71,30
42360,note_off,180,0,5,,,,,,,,3,,,,69,64
42360,note_off,180,0,8,,,,,,,,8,,,,69,64
42415,note_off,235,0,2,,,,,,,,13,,,,54,64
42415,note_off,235,0,10,,,,,,,,11,,,,66,64
42415,note_off,0,0,2,,,,,,,,13,,,,42,64
42415,note_off,235,0,7,,,,,,,,5,,,,66,64
42420,note_off,60,0,8,,,,,,,,8,,,,71,64
42420,note_off,480,0,3,,,,,,,,1,,,,73,64
42420,note_on,0,0,3,,,,,,,,1,,,,78,45
42420,note_on,5,0,10,,,,,,,,11,,,,66,30
42420,note_off,60,0,9,,,,,,,,10,,,,68,64
42420,note_on,5,0,7,,,,,,,,5,,,,66,30
42420,note_off,60,0,6,,,,,,,,4,,,,68,64
42420,note_off,60,0,5,,,,,,,,3,,,,71,64
42420,note_on,0,0,8,,,,,,,,8,,,,69,30
42420,note_on,0,0,6,,,,,,,,4,,,,66,30
42420,note_on,0,0,5,,,,,,,,3,,,,69,30
42420,note_on,0,0,2,,,,,,,,13,,,,54,45
42420,note_on,0,0,4,,,,,,,,2,,,,78,30
42420,note_off,480,0,4,,,,,,,,2,,,,73,64
42420,note_on,0,0,9,,,,,,,,10,,,,66,30
42420,note_on,5,0,2,,,,,,,,13,,,,42,45
42600,note_on,0,0,8,,,,,,,,8,,,,71,30
42600,note_on,0,0,9,,,,,,,,10,,,,68,30
42600,note_off,180,0,8,,,,,,,,8,,,,69,64
42600,note_off,180,0,5,,,,,,,,3,,,,69,64
42600,note_off,180,0,9,,,,,,,,10,,,,66,64
42600,note_on,0,0,6,,,,,,,,4,,,,68,30
42600,note_off,180,0,6,,,,,,,,4,,,,66,64
42600,note_on,0,0,5,,,,,,,,3,,,,71,30
42660,note_off,60,0,5,,,,,,,,3,,,,71,64
42660,note_on,0,0,5,,,,,,,,3,,,,69,30
42660,note_off,60,0,9,,,,,,,,10,,,,68,64
42660,note_on,0,0,6,,,,,,,,4,,,,66,30
42660,note_on,0,0,9,,,,,,,,10,,,,66,30
42660,note_off,60,0,6,,,,,,,,4,,,,68,64
42660,note_off,60,0,8,,,,,,,,8,,,,71,64
42660,note_on,0,0,8,,,,,,,,8,,,,69,30
42820,note_off,400,0,10,,,,,,,,11,,,,66,64
42820,note_off,0,0,2,,,,,,,,13,,,,42,64
42820,note_off,400,0,2,,,,,,,,13,,,,54,64
42820,note_off,400,0,7,,,,,,,,5,,,,66,64
42840,note_on,0,0,5,,,,,,,,3,,,,71,30
42840,note_off,180,0,9,,,,,,,,10,,,,66,64
42840,note_on,0,0,9,,,,,,,,10,,,,68,30
42840,note_on,0,0,8,,,,,,,,8,,,,71,30
42840,note_off,180,0,8,,,,,,,,8,,,,69,64
42840,note_off,180,0,6,,,,,,,,4,,,,66,64
42840,note_on,0,0,6,,,,,,,,4,,,,68,30
42840,note_off,180,0,5,,,,,,,,3,,,,69,64
42900,note_on,0,0,4,,,,,,,,2,,,,81,30
42900,note_off,60,0,8,,,,,,,,8,,,,71,64
42900,note_on,0,0,9,,,,,,,,10,,,,66,30
42900,note_off,60,0,9,,,,,,,,10,,,,68,64
42900,note_off,60,0,5,,,,,,,,3,,,,71,64
42900,note_on,0,0,6,,,,,,,,4,,,,66,30
42900,note_on,0,0,8,,,,,,,,8,,,,69,30
42900,note_on,0,0,5,,,,,,,,3,,,,69,30
42900,note_off,60,0,6,,,,,,,,4,,,,68,64
42900,note_on,0,0,3,,,,,,,,1,,,,81,45
42900,note_off,480,0,3,,,,,,,,1,,,,78,64
42900,note_off,480,0,4,,,,,,,,2,,,,78,64
43080,note_off,180,0,9,,,,,,,,10,,,,66,64
43080,note_on,0,0,9,,,,,,,,10,,,,68,30
43080,note_off,180,0,5,,,,,,,,3,,,,69,64
43080,note_on,0,0,5,,,,,,,,3,,,,71,30
43080,note_on,0,0,8,,,,,,,,8,,,,71,30
43080,note_off,180,0,8,,,,,,,,8,,,,69,64
43080,note_on,0,0,6,,,,,,,,4,,,,68,30
43080,note_off,180,0,6,,,,,,,,4,,,,66,64
43140,note_off,60,0,9,,,,,,,,10,,,,68,64
43140,note_on,0,0,9,,,,,,,,10,,,,66,30
43140,note_off,60,0,5,,,,,,,,3,,,,71,64
43140,note_on,0,0,5,,,,,,,,3,,,,69,30
43140,note_off,60,0,6,,,,,,,,4,,,,68,64
43140,note_on,0,0,6,,,,,,,,4,,,,66,30
43140,note_on,0,0,8,,,,,,,,8,,,,69,30
43140,note_off,60,0,8,,,,,,,,8,,,,71,64
43320,note_on,0,0,6,,,,,,,,4,,,,68,30
43320,note_on,0,0,8,,,,,,,,8,,,,73,30
43320,note_off,180,0,8,,,,,,,,8,,,,69,64
43320,note_off,180,0,9,,,,,,,,10,,,,66,64
43320,note_on,0,0,9,,,,,,,,10,,,,68,30
43320,note_off,180,0,5,,,,,,,,3,,,,69,64
43320,note_off,180,0,6,,,,,,,,4,,,,66,64
43320,note_on,0,0,5,,,,,,,,3,,,,73,30
43380,note_on,0,0,8,,,,,,,,8,,,,75,30
43380,note_off,60,0,8,,,,,,,,8,,,,73,64
43380,note_on,1040,0,1,,,,,,,,12,,,,63,45
43380,note_on,0,0,1,,,,,,,,12,,,,66,45
43380,note_on,0,0,1,,,,,,,,12,,,,68,45
43380,note_on,0,0,5,,,,,,,,3,,,,75,30
43380,note_on,0,0,1,,,,,,,,12,,,,72,45
43380,note_off,480,0,4,,,,,,,,2,,,,81,64
43380,note_on,0,0,4,,,,,,,,2,,,,72,35
43380,note_on,0,0,3,,,,,,,,1,,,,72,50
43380,note_off,60,0,9,,,,,,,,10,,,,68,64
43380,note_on,0,0,9,,,,,,,,10,,,,66,30
43380,note_on,0,0,6,,,,,,,,4,,,,66,30
43380,note_off,60,0,6,,,,,,,,4,,,,68,64
43380,note_off,60,0,5,,,,,,,,3,,,,73,64
43380,note_off,480,0,3,,,,,,,,1,,,,81,64
43560,note_on,0,0,6,,,,,,,,4,,,,68,30
43560,note_on,0,0,9,,,,,,,,10,,,,68,30
43560,note_off,180,0,9,,,,,,,,10,,,,66,64
43560,note_off,180,0,8,,,,,,,,8,,,,75,64
43560,note_on,0,0,5,,,,,,,,3,,,,76,30
43560,note_on,0,0,8,,,,,,,,8,,,,76,30
43560,note_off,180,0,6,,,,,,,,4,,,,66,64
43560,note_off,180,0,5,,,,,,,,3,,,,75,64
43620,note_on,0,0,5,,,,,,,,3,,,,75,30
43620,note_on,0,0,8,,,,,,,,8,,,,75,30
43620,note_off,60,0,8,,,,,,,,8,,,,76,64
43620,note_on,800,0,10,,,,,,,,11,,,,56,30
43620,note_off,60,0,5,,,,,,,,3,,,,76,64
43620,note_on,0,0,6,,,,,,,,4,,,,66,30
43620,note_on,0,0,9,,,,,,,,10,,,,66,30
43620,note_on,0,0,2,,,,,,,,13,,,,44,45
43620,note_on,800,0,2,,,,,,,,13,,,,32,45
43620,note_off,60,0,6,,,,,,,,4,,,,68,64
43620,note_off,60,0,9,,,,,,,,10,,,,68,64
43620,note_on,800,0,7,,,,,,,,5,,,,56,30
43780,note_off,400,0,1,,,,,,,,12,,,,72,64
43780,note_off,0,0,1,,,,,,,,12,,,,68,64
43780,note_off,0,0,1,,,,,,,,12,,,,66,64
43780,note_off,0,0,1,,,,,,,,12,,,,63,64
43800,note_off,180,0,8,,,,,,,,8,,,,75,64
43800,note_on,0,0,8,,,,,,,,8,,,,76,30
43800,note_on,0,0,5,,,,,,,,3,,,,76,30
43800,note_off,180,0,6,,,,,,,,4,,,,66,64
43800,note_on,0,0,6,,,,,,,,4,,,,68,30
43800,note_on,0,0,9,,,,,,,,10,,,,68,30
43800,note_off,180,0,9,,,,,,,,10,,,,66,64
43800,note_off,180,0,5,,,,,,,,3,,,,75,64
43855,note_off,0,0,2,,,,,,,,13,,,,32,64
43855,note_off,235,0,7,,,,,,,,5,,,,56,64
43855,note_off,235,0,10,,,,,,,,11,,,,56,64
43855,note_off,235,0,2,,,,,,,,13,,,,44,64
43860,note_on,0,0,1,,,,,,,,12,,,,63,45
43860,note_on,80,0,1,,,,,,,,12,,,,60,45
43860,note_off,60,0,8,,,,,,,,8,,,,76,64
43860,note_on,5,0,2,,,,,,,,13,,,,32,45
43860,note_on,0,0,3,,,,,,,,1,,,,68,55
43860,note_on,0,0,8,,,,,,,,8,,,,75,30
43860,note_off,480,0,3,,,,,,,,1,,,,72,64
43860,note_on,5,0,7,,,,,,,,5,,,,56,30
43860,note_on,5,0,10,,,,,,,,11,,,,56,30
43860,set_tempo,1920,1,0,1578947,,,,,,,,,,,,
43860,note_on,0,0,2,,,,,,,,13,,,,44,45
43860,note_on,0,0,1,,,,,,,,12,,,,68,45
43860,note_on,0,0,1,,,,,,,,12,,,,66,45
43860,note_off,60,0,9,,,,,,,,10,,,,68,64
43860,note_on,0,0,5,,,,,,,,3,,,,75,30
43860,note_on,0,0,6,,,,,,,,4,,,,66,30
43860,note_off,60,0,6,,,,,,,,4,,,,68,64
43860,note_on,0,0,4,,,,,,,,2,,,,68,40
43860,note_off,480,0,4,,,,,,,,2,,,,72,64
43860,note_on,0,0,9,,,,,,,,10,,,,66,30
43860,note_off,60,0,5,,,,,,,,3,,,,76,64
44040,note_off,180,0,5,,,,,,,,3,,,,75,64
44040,note_on,0,0,8,,,,,,,,8,,,,76,30
44040,note_on,0,0,5,,,,,,,,3,,,,76,30
44040,note_on,0,0,9,,,,,,,,10,,,,68,30
44040,note_off,180,0,9,,,,,,,,10,,,,66,64
44040,note_off,180,0,6,,,,,,,,4,,,,66,64
44040,note_on,0,0,6,,,,,,,,4,,,,68,30
44040,note_off,180,0,8,,,,,,,,8,,,,75,64
44100,note_on,0,0,9,,,,,,,,10,,,,66,30
44100,note_on,0,0,6,,,,,,,,4,,,,66,30
44100,note_on,0,0,8,,,,,,,,8,,,,75,30
44100,note_on,0,0,5,,,,,,,,3,,,,75,30
44100,note_off,60,0,5,,,,,,,,3,,,,76,64
44100,note_off,60,0,8,,,,,,,,8,,,,76,64
44100,note_off,60,0,6,,,,,,,,4,,,,68,64
44100,note_off,60,0,9,,,,,,,,10,,,,68,64
44260,note_off,400,0,1,,,,,,,,12,,,,68,64
44260,note_off,400,0,7,,,,,,,,5,,,,56,64
44260,note_off,0,0,1,,,,,,,,12,,,,63,64
44260,note_off,0,0,1,,,,,,,,12,,,,60,64
44260,note_off,0,0,1,,,,,,,,12,,,,66,64
44260,note_off,0,0,2,,,,,,,,13,,,,32,64
44260,note_off,400,0,10,,,,,,,,11,,,,56,64
44260,note_off,400,0,2,,,,,,,,13,,,,44,64
44280,note_on,0,0,5,,,,,,,,3,,,,76,30
44280,note_on,0,0,8,,,,,,,,8,,,,76,30
44280,note_off,180,0,9,,,,,,,,10,,,,66,64
44280,note_on,0,0,9,,,,,,,,10,,,,68,30
44280,note_off,180,0,8,,,,,,,,8,,,,75,64
44280,note_off,180,0,5,,,,,,,,3,,,,75,64
44280,note_off,180,0,6,,,,,,,,4,,,,66,64
44280,note_on,0,0,6,,,,,,,,4,,,,68,30
44340,note_off,480,0,4,,,,,,,,2,,,,68,64
44340,note_on,0,0,4,,,,,,,,2,,,,78,45
44340,note_off,60,0,8,,,,,,,,8,,,,76,64
44340,note_on,80,0,1,,,,,,,,12,,,,56,45
44340,note_on,0,0,8,,,,,,,,8,,,,75,30
44340,note_on,0,0,1,,,,,,,,12,,,,60,45
44340,set_tempo,480,1,0,1666666,,,,,,,,,,,,
44340,note_on,0,0,3,,,,,,,,1,,,,78,60
44340,note_on,0,0,1,,,,,,,,12,,,,63,45
44340,note_off,60,0,6,,,,,,,,4,,,,68,64
44340,note_on,0,0,9,,,,,,,,10,,,,66,30
44340,note_off,60,0,9,,,,,,,,10,,,,68,64
44340,note_off,60,0,5,,,,,,,,3,,,,76,64
44340,note_on,0,0,5,,,,,,,,3,,,,75,30
44340,note_off,480,0,3,,,,,,,,1,,,,68,64
44340,note_on,0,0,6,,,,,,,,4,,,,66,30
44340,note_on,0,0,1,,,,,,,,12,,,,66,45
44520,note_off,180,0,9,,,,,,,,10,,,,66,64
44520,note_on,0,0,9,,,,,,,,10,,,,68,30
44520,note_off,180,0,6,,,,,,,,4,,,,66,64
44520,note_off,180,0,5,,,,,,,,3,,,,75,64
44520,note_on,0,0,5,,,,,,,,3,,,,76,30
44520,note_on,0,0,6,,,,,,,,4,,,,68,30
44520,note_off,180,0,8,,,,,,,,8,,,,75,64
44520,note_on,0,0,8,,,,,,,,8,,,,76,30
44580,note_on,0,0,8,,,,,,,,8,,,,75,30
44580,note_off,60,0,9,,,,,,,,10,,,,68,64
44580,note_off,60,0,6,,,,,,,,4,,,,68,64
44580,note_on,0,0,9,,,,,,,,10,,,,66,30
44580,note_off,60,0,8,,,,,,,,8,,,,76,64
44580,note_on,0,0,6,,,,,,,,4,,,,66,30
44580,note_on,0,0,5,,,,,,,,3,,,,75,30
44580,note_off,60,0,5,,,,,,,,3,,,,76,64
44740,note_off,0,0,1,,,,,,,,12,,,,63,64
44740,note_off,400,0,1,,,,,,,,12,,,,66,64
44740,note_off,0,0,1,,,,,,,,12,,,,56,64
44740,note_off,0,0,1,,,,,,,,12,,,,60,64
44760,note_off,180,0,5,,,,,,,,3,,,,75,64
44760,note_off,180,0,6,,,,,,,,4,,,,66,64
44760,note_on,0,0,6,,,,,,,,4,,,,69,30
44760,note_off,180,0,8,,,,,,,,8,,,,75,64
44760,note_on,0,0,8,,,,,,,,8,,,,76,30
44760,note_off,180,0,9,,,,,,,,10,,,,66,64
44760,note_on,0,0,9,,,,,,,,10,,,,69,30
44760,note_on,0,0,5,,,,,,,,3,,,,76,30
44815,note_off,55,0,6,,,,,,,,4,,,,69,64
44815,note_off,55,0,8,,,,,,,,8,,,,76,64
44815,note_off,55,0,9,,,,,,,,10,,,,69,64
44815,note_off,55,0,5,,,,,,,,3,,,,76,64
44820,note_on,0,0,1,,,,,,,,12,,,,64,45
44820,note_on,0,0,1,,,,,,,,12,,,,68,45
44820,note_on,0,0,1,,,,,,,,12,,,,61,45
44820,note_off,480,0,3,,,,,,,,1,,,,78,64
44820,note_off,480,0,4,,,,,,,,2,,,,78,64
44820,note_on,0,0,3,,,,,,,,1,,,,76,60
44820,note_on,5,0,6,,,,,,,,4,,,,68,30
44820,note_on,0,0,4,,,,,,,,2,,,,76,45
44820,set_tempo,480,1,0,1764705,,,,,,,,,,,,
44820,note_on,80,0,1,,,,,,,,12,,,,56,45
44820,note_on,5,0,8,,,,,,,,8,,,,73,30
44820,note_on,5,0,9,,,,,,,,10,,,,68,30
44820,note_on,5,0,5,,,,,,,,3,,,,73,30
45000,note_on,0,0,8,,,,,,,,8,,,,75,30
45000,note_on,0,0,5,,,,,,,,3,,,,75,30
45000,note_off,180,0,8,,,,,,,,8,,,,73,64
45000,note_off,180,0,5,,,,,,,,3,,,,73,64
45060,note_on,0,0,6,,,,,,,,4,,,,68,30
45060,note_on,0,0,8,,,,,,,,8,,,,73,30
45060,note_off,240,0,9,,,,,,,,10,,,,68,64
45060,note_on,0,0,9,,,,,,,,10,,,,68,30
45060,note_on,0,0,2,,,,,,,,13,,,,44,45
45060,note_on,800,0,2,,,,,,,,13,,,,32,45
45060,note_on,800,0,7,,,,,,,,5,,,,56,30
45060,note_off,60,0,8,,,,,,,,8,,,,75,64
45060,note_on,800,0,10,,,,,,,,11,,,,56,30
45060,note_off,60,0,5,,,,,,,,3,,,,75,64
45060,note_on,0,0,5,,,,,,,,3,,,,73,30
45060,note_off,240,0,6,,,,,,,,4,,,,68,64
45220,note_off,0,0,1,,,,,,,,12,,,,56,64
45220,note_off,0,0,1,,,,,,,,12,,,,61,64
45220,note_off,0,0,1,,,,,,,,12,,,,64,64
45220,note_off,400,0,1,,,,,,,,12,,,,68,64
45240,note_on,0,0,5,,,,,,,,3,,,,75,30
45240,note_off,180,0,5,,,,,,,,3,,,,73,64
45240,note_on,0,0,8,,,,,,,,8,,,,75,30
45240,note_off,180,0,8,,,,,,,,8,,,,73,64
45295,note_off,235,0,7,,,,,,,,5,,,,56,64
45295,note_off,235,0,10,,,,,,,,11,,,,56,64
45295,note_off,235,0,2,,,,,,,,13,,,,44,64
45295,note_off,0,0,2,,,,,,,,13,,,,32,64
45300,note_on,0,0,1,,,,,,,,12,,,,68,45
45300,note_on,0,0,9,,,,,,,,10,,,,68,30
45300,note_on,0,0,6,,,,,,,,4,,,,68,30
45300,note_off,240,0,6,,,,,,,,4,,,,68,64
45300,note_off,60,0,8,,,,,,,,8,,,,75,64
45300,note_on,80,0,1,,,,,,,,12,,,,60,45
45300,note_on,0,0,1,,,,,,,,12,,,,63,45
45300,note_on,5,0,7,,,,,,,,5,,,,56,30
45300,note_on,5,0,2,,,,,,,,13,,,,32,45
45300,note_on,0,0,2,,,,,,,,13,,,,44,45
45300,note_on,0,0,3,,,,,,,,1,,,,75,55
45300,note_on,5,0,10,,,,,,,,11,,,,56,30
45300,note_on,0,0,3,,,,,,,,1,,,,76,55
45300,note_off,480,0,3,,,,,,,,1,,,,76,64
45300,set_tempo,480,1,0,1578947,,,,,,,,,,,,
45300,note_off,480,0,4,,,,,,,,2,,,,76,64
45300,note_on,0,0,4,,,,,,,,2,,,,76,40
45300,note_on,0,0,4,,,,,,,,2,,,,75,40
45300,note_on,0,0,5,,,,,,,,3,,,,72,30
45300,note_off,60,0,5,,,,,,,,3,,,,75,64
45300,note_off,240,0,9,,,,,,,,10,,,,68,64
45300,note_on,0,0,8,,,,,,,,8,,,,72,30
45330,note_on,0,0,3,,,,,,,,1,,,,76,55
45330,note_off,30,0,3,,,,,,,,1,,,,75,64
45360,note_on,0,0,4,,,,,,,,2,,,,76,40
45360,note_off,0,0,4,,,,,,,,2,,,,76,64
45360,note_off,60,0,4,,,,,,,,2,,,,75,64
45360,note_off,30,0,3,,,,,,,,1,,,,76,64
45360,note_off,0,0,3,,,,,,,,1,,,,76,64
45360,note_on,0,0,3,,,,,,,,1,,,,75,55
45390,note_off,30,0,3,,,,,,,,1,,,,75,64
45390,note_on,0,0,3,,,,,,,,1,,,,76,55
45420,note_on,0,0,4,,,,,,,,2,,,,75,40
45420,note_off,60,0,4,,,,,,,,2,,,,76,64
45420,note_on,0,0,3,,,,,,,,1,,,,75,55
45420,note_off,30,0,3,,,,,,,,1,,,,76,64
45450,note_off,30,0,3,,,,,,,,1,,,,75,64
45450,note_on,0,0,3,,,,,,,,1,,,,76,55
45480,note_off,180,0,5,,,,,,,,3,,,,72,64
45480,note_on,0,0,5,,,,,,,,3,,,,73,30
45480,note_on,0,0,4,,,,,,,,2,,,,76,40
45480,note_off,180,0,8,,,,,,,,8,,,,72,64
45480,note_on,0,0,8,,,,,,,,8,,,,73,30
45480,note_off,60,0,4,,,,,,,,2,,,,75,64
45480,note_on,0,0,3,,,,,,,,1,,,,75,55
45480,note_off,30,0,3,,,,,,,,1,,,,76,64
45510,note_off,30,0,3,,,,,,,,1,,,,75,64
45510,note_on,0,0,3,,,,,,,,1,,,,76,55
45540,note_off,60,0,8,,,,,,,,8,,,,73,64
45540,note_on,0,0,6,,,,,,,,4,,,,68,30
45540,note_off,240,0,6,,,,,,,,4,,,,68,64
45540,set_tempo,240,1,0,1666666,,,,,,,,,,,,
45540,note_on,0,0,5,,,,,,,,3,,,,72,30
45540,note_on,0,0,8,,,,,,,,8,,,,72,30
45540,note_on,0,0,9,,,,,,,,10,,,,68,30
45540,note_off,240,0,9,,,,,,,,10,,,,68,64
45540,note_on,0,0,4,,,,,,,,2,,,,75,40
45540,note_off,60,0,4,,,,,,,,2,,,,76,64
45540,note_off,30,0,3,,,,,,,,1,,,,76,64
45540,note_on,0,0,3,,,,,,,,1,,,,75,55
45540,note_off,60,0,5,,,,,,,,3,,,,73,64
45570,note_off,30,0,3,,,,,,,,1,,,,75,64
45570,note_on,0,0,3,,,,,,,,1,,,,76,55
45600,note_off,30,0,3,,,,,,,,1,,,,76,64
45600,note_off,60,0,4,,,,,,,,2,,,,75,64
45600,note_on,0,0,4,,,,,,,,2,,,,76,40
45600,note_on,0,0,3,,,,,,,,1,,,,75,55
45630,note_off,30,0,3,,,,,,,,1,,,,75,64
45630,note_on,0,0,3,,,,,,,,1,,,,76,55
45660,note_on,0,0,3,,,,,,,,1,,,,75,55
45660,note_on,0,0,4,,,,,,,,2,,,,75,40
45660,note_off,60,0,4,,,,,,,,2,,,,76,64
45660,note_off,30,0,3,,,,,,,,1,,,,76,64
45690,note_off,30,0,3,,,,,,,,1,,,,75,64
45690,note_on,0,0,3,,,,,,,,1,,,,76,55
45700,note_off,0,0,2,,,,,,,,13,,,,32,64
45700,note_off,400,0,7,,,,,,,,5,,,,56,64
45700,note_off,400,0,2,,,,,,,,13,,,,44,64
45700,note_off,400,0,10,,,,,,,,11,,,,56,64
45720,note_on,0,0,4,,,,,,,,2,,,,76,39
45720,note_off,60,0,4,,,,,,,,2,,,,75,64
45720,note_on,0,0,3,,,,,,,,1,,,,75,55
45720,note_off,180,0,8,,,,,,,,8,,,,72,64
45720,note_on,0,0,5,,,,,,,,3,,,,73,30
45720,note_off,180,0,5,,,,,,,,3,,,,72,64
45720,note_on,0,0,8,,,,,,,,8,,,,73,30
45720,note_off,30,0,3,,,,,,,,1,,,,76,64
45750,note_off,30,0,3,,,,,,,,1,,,,75,64
45750,note_on,0,0,3,,,,,,,,1,,,,76,55
45780,note_off,30,0,3,,,,,,,,1,,,,76,64
45780,note_on,0,0,3,,,,,,,,1,,,,75,55
45780,note_on,0,0,5,,,,,,,,3,,,,72,30
45780,note_off,60,0,5,,,,,,,,3,,,,73,64
45780,note_on,0,0,4,,,,,,,,2,,,,75,38
45780,note_on,0,0,2,,,,,,,,13,,,,56,45
45780,set_tempo,240,1,0,1764705,,,,,,,,,,,,
45780,note_off,60,0,8,,,,,,,,8,,,,73,64
45780,note_on,0,0,8,,,,,,,,8,,,,72,30
45780,note_on,80,0,2,,,,,,,,13,,,,44,45
45780,note_on,0,0,6,,,,,,,,4,,,,68,30
45780,note_on,0,0,9,,,,,,,,10,,,,68,30
45780,note_off,240,0,6,,,,,,,,4,,,,68,64
45780,note_off,60,0,4,,,,,,,,2,,,,76,64
45780,note_off,240,0,9,,,,,,,,10,,,,68,64
45810,note_off,30,0,3,,,,,,,,1,,,,75,64
45810,note_on,0,0,3,,,,,,,,1,,,,76,55
45840,note_off,30,0,3,,,,,,,,1,,,,76,64
45840,note_off,60,0,4,,,,,,,,2,,,,75,64
45840,note_on,0,0,4,,,,,,,,2,,,,76,37
45840,note_on,0,0,3,,,,,,,,1,,,,75,55
45870,note_on,0,0,3,,,,,,,,1,,,,76,55
45870,note_off,30,0,3,,,,,,,,1,,,,75,64
45900,note_off,30,0,3,,,,,,,,1,,,,76,64
45900,note_on,0,0,3,,,,,,,,1,,,,75,55
45900,note_on,0,0,4,,,,,,,,2,,,,75,36
45900,note_off,60,0,4,,,,,,,,2,,,,76,64
45930,note_on,0,0,3,,,,,,,,1,,,,76,55
45930,note_off,30,0,3,,,,,,,,1,,,,75,64
45960,note_on,0,0,5,,,,,,,,3,,,,73,30
45960,note_off,180,0,5,,,,,,,,3,,,,72,64
45960,note_on,0,0,8,,,,,,,,8,,,,73,30
45960,note_off,30,0,3,,,,,,,,1,,,,76,64
45960,note_on,0,0,3,,,,,,,,1,,,,75,55
45960,note_off,180,0,8,,,,,,,,8,,,,72,64
45960,note_on,0,0,4,,,,,,,,2,,,,76,35
45960,note_off,60,0,4,,,,,,,,2,,,,75,64
45990,note_off,30,0,3,,,,,,,,1,,,,75,64
45990,note_on,0,0,3,,,,,,,,1,,,,76,54
46020,note_on,0,0,8,,,,,,,,8,,,,72,30
46020,note_off,60,0,8,,,,,,,,8,,,,73,64
46020,note_on,0,0,4,,,,,,,,2,,,,75,34
46020,note_off,60,0,4,,,,,,,,2,,,,76,64
46020,note_off,240,0,9,,,,,,,,10,,,,68,64
46020,note_on,0,0,6,,,,,,,,4,,,,72,30
46020,note_off,240,0,6,,,,,,,,4,,,,68,64
46020,note_off,30,0,3,,,,,,,,1,,,,76,64
46020,note_on,0,0,5,,,,,,,,3,,,,72,30
46020,note_on,0,0,3,,,,,,,,1,,,,75,53
46020,note_off,720,0,1,,,,,,,,12,,,,68,64
46020,set_tempo,240,1,0,1875000,,,,,,,,,,,,
46020,note_off,0,0,1,,,,,,,,12,,,,63,64
46020,note_off,0,0,1,,,,,,,,12,,,,60,64
46020,note_on,0,0,1,,,,,,,,12,,,,60,45
46020,note_off,60,0,5,,,,,,,,3,,,,73,64
46020,note_on,0,0,9,,,,,,,,10,,,,72,30
46020,note_on,0,0,1,,,,,,,,12,,,,66,45
46020,note_on,0,0,1,,,,,,,,12,,,,63,45
46050,note_off,30,0,3,,,,,,,,1,,,,75,64
46050,note_on,0,0,3,,,,,,,,1,,,,76,52
46080,note_on,0,0,3,,,,,,,,1,,,,75,51
46080,note_off,30,0,3,,,,,,,,1,,,,76,64
46080,note_off,60,0,4,,,,,,,,2,,,,75,64
46080,note_on,0,0,4,,,,,,,,2,,,,76,33
46110,note_off,30,0,3,,,,,,,,1,,,,75,64
46110,note_on,0,0,3,,,,,,,,1,,,,76,50
46140,note_off,60,0,4,,,,,,,,2,,,,76,64
46140,note_on,0,0,4,,,,,,,,2,,,,75,32
46140,note_off,30,0,3,,,,,,,,1,,,,76,64
46140,note_on,0,0,3,,,,,,,,1,,,,75,49
46170,note_off,30,0,3,,,,,,,,1,,,,75,64
46170,note_on,0,0,3,,,,,,,,1,,,,76,48
46180,note_off,0,0,2,,,,,,,,13,,,,44,64
46180,note_off,400,0,2,,,,,,,,13,,,,56,64
46200,note_on,0,0,4,,,,,,,,2,,,,76,31
46200,note_off,60,0,4,,,,,,,,2,,,,75,64
46200,note_off,30,0,3,,,,,,,,1,,,,76,64
46200,note_on,0,0,8,,,,,,,,8,,,,75,30
46200,note_on,0,0,3,,,,,,,,1,,,,75,47
46200,note_off,180,0,8,,,,,,,,8,,,,72,64
46200,note_on,0,0,5,,,,,,,,3,,,,75,30
46200,note_off,180,0,5,,,,,,,,3,,,,72,64
46255,note_off,0,0,1,,,,,,,,12,,,,63,64
46255,note_off,235,0,1,,,,,,,,12,,,,66,64
46255,note_off,0,0,1,,,,,,,,12,,,,60,64
46260,note_off,60,0,3,,,,,,,,1,,,,75,64
46260,set_tempo,240,1,0,1500000,,,,,,,,,,,,
46260,note_off,240,0,6,,,,,,,,4,,,,72,64
46260,note_on,0,0,4,,,,,,,,2,,,,73,30
46260,note_off,60,0,4,,,,,,,,2,,,,76,64
46260,note_off,240,0,9,,,,,,,,10,,,,72,64
46260,note_on,0,0,9,,,,,,,,10,,,,73,30
46260,note_on,0,0,1,,,,,,,,12,,,,68,45
46260,note_on,0,0,1,,,,,,,,12,,,,73,45
46260,note_on,0,0,3,,,,,,,,1,,,,73,45
46260,note_on,0,0,6,,,,,,,,4,,,,73,30
46260,note_on,5,0,1,,,,,,,,12,,,,61,45
46260,note_off,60,0,8,,,,,,,,8,,,,75,64
46260,note_off,60,0,5,,,,,,,,3,,,,75,64
46260,note_on,0,0,5,,,,,,,,3,,,,76,30
46260,note_on,0,0,1,,,,,,,,12,,,,64,45
46260,note_on,0,0,8,,,,,,,,8,,,,76,30
46440,note_off,180,0,5,,,,,,,,3,,,,76,64
46440,note_on,0,0,5,,,,,,,,3,,,,78,30
46440,note_off,180,0,6,,,,,,,,4,,,,73,64
46440,note_off,180,0,8,,,,,,,,8,,,,76,64
46440,note_on,0,0,8,,,,,,,,8,,,,78,30
46440,note_on,0,0,6,,,,,,,,4,,,,75,30
46440,note_on,0,0,9,,,,,,,,10,,,,75,30
46440,note_off,180,0,9,,,,,,,,10,,,,73,64
46500,note_off,60,0,8,,,,,,,,8,,,,78,64
46500,note_off,60,0,6,,,,,,,,4,,,,75,64
46500,note_on,320,0,2,,,,,,,,13,,,,37,45
46500,note_on,0,0,9,,,,,,,,10,,,,73,30
46500,note_on,0,0,6,,,,,,,,4,,,,73,30
46500,note_on,800,0,10,,,,,,,,11,,,,61,30
46500,note_off,60,0,5,,,,,,,,3,,,,78,64
46500,note_on,0,0,5,,,,,,,,3,,,,76,30
46500,note_off,60,0,9,,,,,,,,10,,,,75,64
46500,note_on,800,0,7,,,,,,,,5,,,,61,30
46500,note_on,0,0,8,,,,,,,,8,,,,76,30
46500,note_on,0,0,2,,,,,,,,13,,,,49,45
46660,note_off,0,0,1,,,,,,,,12,,,,64,64
46660,note_off,400,0,1,,,,,,,,12,,,,73,64
46660,note_off,0,0,1,,,,,,,,12,,,,68,64
46660,note_off,0,0,1,,,,,,,,12,,,,61,64
46680,note_off,180,0,9,,,,,,,,10,,,,73,64
46680,note_on,0,0,9,,,,,,,,10,,,,75,30
46680,note_on,0,0,8,,,,,,,,8,,,,78,30
46680,note_on,0,0,5,,,,,,,,3,,,,78,30
46680,note_off,180,0,5,,,,,,,,3,,,,76,64
46680,note_off,180,0,8,,,,,,,,8,,,,76,64
46680,note_off,180,0,6,,,,,,,,4,,,,73,64
46680,note_on,0,0,6,,,,,,,,4,,,,75,30
46735,note_off,0,0,2,,,,,,,,13,,,,37,64
46735,note_off,235,0,7,,,,,,,,5,,,,61,64
46735,note_off,235,0,10,,,,,,,,11,,,,61,64
46735,note_off,235,0,2,,,,,,,,13,,,,49,64
46740,note_on,5,0,2,,,,,,,,13,,,,37,45
46740,note_on,0,0,2,,,,,,,,13,,,,49,45
46740,note_off,60,0,8,,,,,,,,8,,,,78,64
46740,note_on,0,0,9,,,,,,,,10,,,,73,30
46740,note_on,0,0,8,,,,,,,,8,,,,76,30
46740,note_off,60,0,5,,,,,,,,3,,,,78,64
46740,note_off,60,0,9,,,,,,,,10,,,,75,64
46740,note_on,80,0,1,,,,,,,,12,,,,61,45
46740,note_on,0,0,5,,,,,,,,3,,,,76,30
46740,note_on,0,0,6,,,,,,,,4,,,,73,30
46740,note_off,60,0,6,,,,,,,,4,,,,75,64
46740,note_on,5,0,10,,,,,,,,11,,,,61,30
46740,note_on,5,0,7,,,,,,,,5,,,,61,30
46920,note_off,180,0,8,,,,,,,,8,,,,76,64
46920,note_off,180,0,5,,,,,,,,3,,,,76,64
46920,note_on,0,0,5,,,,,,,,3,,,,78,30
46920,note_on,0,0,6,,,,,,,,4,,,,75,30
46920,note_off,180,0,6,,,,,,,,4,,,,73,64
46920,note_off,180,0,9,,,,,,,,10,,,,73,64
46920,note_on,0,0,9,,,,,,,,10,,,,75,30
46920,note_on,0,0,8,,,,,,,,8,,,,78,30
46975,note_off,235,0,1,,,,,,,,12,,,,61,64
46980,note_off,60,0,5,,,,,,,,3,,,,78,64
46980,note_on,0,0,5,,,,,,,,3,,,,76,30
46980,note_off,60,0,6,,,,,,,,4,,,,75,64
46980,note_on,0,0,6,,,,,,,,4,,,,73,30
46980,note_on,0,0,9,,,,,,,,10,,,,73,30
46980,note_off,60,0,9,,,,,,,,10,,,,75,64
46980,note_off,60,0,8,,,,,,,,8,,,,78,64
46980,note_on,5,0,1,,,,,,,,12,,,,64,45
46980,note_on,0,0,8,,,,,,,,8,,,,76,30
47100,note_off,840,0,3,,,,,,,,1,,,,73,64
47100,note_off,840,0,4,,,,,,,,2,,,,73,64
47140,note_off,400,0,7,,,,,,,,5,,,,61,64
47140,note_off,400,0,10,,,,,,,,11,,,,61,64
47140,note_off,400,0,2,,,,,,,,13,,,,49,64
47140,note_off,0,0,2,,,,,,,,13,,,,37,64
47160,note_off,180,0,6,,,,,,,,4,,,,73,64
47160,note_on,0,0,6,,,,,,,,4,,,,75,30
47160,note_on,0,0,8,,,,,,,,8,,,,78,30
47160,note_off,180,0,8,,,,,,,,8,,,,76,64
47160,note_off,180,0,5,,,,,,,,3,,,,76,64
47160,note_off,180,0,9,,,,,,,,10,,,,73,64
47160,note_on,0,0,9,,,,,,,,10,,,,75,30
47160,note_on,0,0,5,,,,,,,,3,,,,78,30
47215,note_off,235,0,1,,,,,,,,12,,,,64,64
47220,note_on,0,0,9,,,,,,,,10,,,,73,30
47220,note_off,60,0,9,,,,,,,,10,,,,75,64
47220,note_on,5,0,1,,,,,,,,12,,,,68,45
47220,note_off,60,0,5,,,,,,,,3,,,,78,64
47220,note_on,0,0,5,,,,,,,,3,,,,76,30
47220,note_off,60,0,6,,,,,,,,4,,,,75,64
47220,note_on,0,0,6,,,,,,,,4,,,,73,30
47220,note_on,0,0,8,,,,,,,,8,,,,76,30
47220,note_off,60,0,8,,,,,,,,8,,,,78,64
47400,note_off,180,0,9,,,,,,,,10,,,,73,64
47400,note_off,180,0,5,,,,,,,,3,,,,76,64
47400,note_on,0,0,5,,,,,,,,3,,,,78,30
47400,note_off,180,0,6,,,,,,,,4,,,,73,64
47400,note_on,0,0,8,,,,,,,,8,,,,78,30
47400,note_on,0,0,9,,,,,,,,10,,,,75,30
47400,note_off,180,0,8,,,,,,,,8,,,,76,64
47400,note_on,0,0,6,,,,,,,,4,,,,75,30
47455,note_off,235,0,1,,,,,,,,12,,,,68,64
47460,note_off,60,0,6,,,,,,,,4,,,,75,64
47460,note_on,0,0,5,,,,,,,,3,,,,76,30
47460,note_off,60,0,5,,,,,,,,3,,,,78,64
47460,note_on,0,0,6,,,,,,,,4,,,,73,30
47460,note_off,60,0,9,,,,,,,,10,,,,75,64
47460,note_on,5,0,1,,,,,,,,12,,,,73,45
47460,note_on,0,0,9,,,,,,,,10,,,,73,30
47460,note_off,60,0,8,,,,,,,,8,,,,78,64
47460,note_on,0,0,8,,,,,,,,8,,,,76,30
47640,note_on,0,0,8,,,,,,,,8,,,,78,30
47640,note_off,180,0,8,,,,,,,,8,,,,76,64
47640,note_on,0,0,9,,,,,,,,10,,,,75,30
47640,note_on,0,0,6,,,,,,,,4,,,,75,30
47640,note_off,180,0,6,,,,,,,,4,,,,73,64
47640,note_off,180,0,9,,,,,,,,10,,,,73,64
47640,note_on,0,0,5,,,,,,,,3,,,,78,30
47640,note_off,180,0,5,,,,,,,,3,,,,76,64
47695,note_off,55,0,9,,,,,,,,10,,,,75,64
47695,note_off,55,0,8,,,,,,,,8,,,,78,64
47695,note_off,55,0,6,,,,,,,,4,,,,75,64
47695,note_off,55,0,5,,,,,,,,3,,,,78,64
47695,note_off,235,0,1,,,,,,,,12,,,,73,64
47730,note_on,35,0,8,,,,,,,,8,,,,69,30
47730,note_on,35,0,5,,,,,,,,3,,,,69,30
47730,note_on,630,0,4,,,,,,,,2,,,,73,30
47730,note_on,0,0,1,,,,,,,,12,,,,66,45
47730,note_on,35,0,1,,,,,,,,12,,,,61,45
47730,note_on,35,0,6,,,,,,,,4,,,,66,30
47730,note_on,35,0,9,,,,,,,,10,,,,66,30
47730,note_on,0,0,1,,,,,,,,12,,,,69,45
47730,note_on,630,0,3,,,,,,,,1,,,,73,45
47910,note_off,180,0,9,,,,,,,,10,,,,66,64
47910,note_on,0,0,6,,,,,,,,4,,,,68,30
47910,note_on,0,0,9,,,,,,,,10,,,,68,30
47910,note_off,180,0,6,,,,,,,,4,,,,66,64
47910,note_off,180,0,8,,,,,,,,8,,,,69,64
47910,note_on,0,0,8,,,,,,,,8,,,,71,30
47910,note_on,0,0,5,,,,,,,,3,,,,71,30
47910,note_off,180,0,5,,,,,,,,3,,,,69,64
47970,note_off,60,0,6,,,,,,,,4,,,,68,64
47970,note_on,830,0,10,,,,,,,,11,,,,57,30
47970,note_off,60,0,8,,,,,,,,8,,,,71,64
47970,note_on,0,0,6,,,,,,,,4,,,,66,30
47970,note_on,0,0,5,,,,,,,,3,,,,69,30
47970,note_on,0,0,9,,,,,,,,10,,,,66,30
47970,note_off,60,0,9,,,,,,,,10,,,,68,64
47970,note_on,830,0,7,,,,,,,,5,,,,57,30
47970,note_on,830,0,2,,,,,,,,13,,,,33,45
47970,note_on,0,0,2,,,,,,,,13,,,,45,45
47970,note_on,0,0,8,,,,,,,,8,,,,69,30
47970,note_off,60,0,5,,,,,,,,3,,,,71,64
48130,note_off,400,0,1,,,,,,,,12,,,,69,64
48130,note_off,0,0,1,,,,,,,,12,,,,66,64
48130,note_off,0,0,1,,,,,,,,12,,,,61,64
48150,note_on,0,0,9,,,,,,,,10,,,,68,30
48150,note_on,0,0,5,,,,,,,,3,,,,71,30
48150,note_off,180,0,5,,,,,,,,3,,,,69,64
48150,note_on,0,0,6,,,,,,,,4,,,,68,30
48150,note_off,180,0,6,,,,,,,,4,,,,66,64
48150,note_off,180,0,8,,,,,,,,8,,,,69,64
48150,note_on,0,0,8,,,,,,,,8,,,,71,30
48150,note_off,180,0,9,,,,,,,,10,,,,66,64
48205,note_off,235,0,7,,,,,,,,5,,,,57,64
48205,note_off,235,0,2,,,,,,,,13,,,,45,64
48205,note_off,0,0,2,,,,,,,,13,,,,33,64
48205,note_off,235,0,10,,,,,,,,11,,,,57,64
48210,note_off,60,0,5,,,,,,,,3,,,,71,64
48210,note_off,60,0,9,,,,,,,,10,,,,68,64
48210,note_on,0,0,5,,,,,,,,3,,,,69,30
48210,note_on,0,0,3,,,,,,,,1,,,,76,45
48210,note_off,480,0,3,,,,,,,,1,,,,73,64
48210,note_on,0,0,9,,,,,,,,10,,,,66,30
48210,note_on,0,0,2,,,,,,,,13,,,,45,45
48210,note_on,0,0,6,,,,,,,,4,,,,66,30
48210,set_tempo,1950,1,0,1578947,,,,,,,,,,,,
48210,note_on,5,0,2,,,,,,,,13,,,,33,45
48210,note_on,5,0,7,,,,,,,,5,,,,57,30
48210,note_off,60,0,6,,,,,,,,4,,,,68,64
48210,note_off,60,0,8,,,,,,,,8,,,,71,64
48210,note_on,0,0,8,,,,,,,,8,,,,69,30
48210,note_on,5,0,10,,,,,,,,11,,,,57,30
48210,note_off,480,0,4,,,,,,,,2,,,,73,64
48210,note_on,0,0,4,,,,,,,,2,,,,76,30
48390,note_off,180,0,5,,,,,,,,3,,,,69,64
48390,note_on,0,0,5,,,,,,,,3,,,,71,30
48390,note_off,180,0,6,,,,,,,,4,,,,66,64
48390,note_on,0,0,8,,,,,,,,8,,,,71,30
48390,note_off,180,0,9,,,,,,,,10,,,,66,64
48390,note_off,180,0,8,,,,,,,,8,,,,69,64
48390,note_on,0,0,6,,,,,,,,4,,,,68,30
48390,note_on,0,0,9,,,,,,,,10,,,,68,30
48450,note_off,60,0,6,,,,,,,,4,,,,68,64
48450,note_on,0,0,6,,,,,,,,4,,,,66,30
48450,note_on,0,0,9,,,,,,,,10,,,,66,30
48450,note_off,60,0,8,,,,,,,,8,,,,71,64
48450,note_off,60,0,5,,,,,,,,3,,,,71,64
48450,note_on,0,0,5,,,,,,,,3,,,,69,30
48450,note_off,60,0,9,,,,,,,,10,,,,68,64
48450,note_on,0,0,8,,,,,,,,8,,,,69,30
48610,note_off,0,0,2,,,,,,,,13,,,,33,64
48610,note_off,400,0,10,,,,,,,,11,,,,57,64
48610,note_off,400,0,2,,,,,,,,13,,,,45,64
48610,note_off,400,0,7,,,,,,,,5,,,,57,64
48630,note_on,0,0,5,,,,,,,,3,,,,71,30
48630,note_off,180,0,5,,,,,,,,3,,,,69,64
48630,note_off,180,0,9,,,,,,,,10,,,,66,64
48630,note_on,0,0,9,,,,,,,,10,,,,68,30
48630,note_on,0,0,6,,,,,,,,4,,,,68,30
48630,note_off,180,0,6,,,,,,,,4,,,,66,64
48630,note_off,180,0,8,,,,,,,,8,,,,69,64
48630,note_on,0,0,8,,,,,,,,8,,,,71,30
48690,note_on,0,0,9,,,,,,,,10,,,,66,30
48690,note_off,60,0,9,,,,,,,,10,,,,68,64
48690,note_off,480,0,4,,,,,,,,2,,,,76,64
48690,note_off,480,0,3,,,,,,,,1,,,,76,64
48690,note_on,0,0,6,,,,,,,,4,,,,66,30
48690,note_off,60,0,6,,,,,,,,4,,,,68,64
48690,note_on,0,0,3,,,,,,,,1,,,,81,48
48690,note_on,0,0,4,,,,,,,,2,,,,81,33
48690,note_on,0,0,5,,,,,,,,3,,,,69,30
48690,note_off,60,0,5,,,,,,,,3,,,,71,64
48690,note_off,60,0,8,,,,,,,,8,,,,71,64
48690,note_on,0,0,8,,,,,,,,8,,,,69,30
48690,set_tempo,480,1,0,1764705,,,,,,,,,,,,
48870,note_on,0,0,5,,,,,,,,3,,,,71,30
48870,note_off,180,0,5,,,,,,,,3,,,,69,64
48870,note_off,180,0,8,,,,,,,,8,,,,69,64
48870,note_on,0,0,8,,,,,,,,8,,,,71,30
48870,note_off,180,0,9,,,,,,,,10,,,,66,64
48870,note_on,0,0,9,,,,,,,,10,,,,68,30
48870,note_off,180,0,6,,,,,,,,4,,,,66,64
48870,note_on,0,0,6,,,,,,,,4,,,,68,30
48930,note_on,0,0,6,,,,,,,,4,,,,66,30
48930,note_on,0,0,8,,,,,,,,8,,,,69,30
48930,note_on,0,0,5,,,,,,,,3,,,,69,30
48930,note_off,60,0,8,,,,,,,,8,,,,71,64
48930,note_off,60,0,6,,,,,,,,4,,,,68,64
48930,note_off,60,0,9,,,,,,,,10,,,,68,64
48930,note_off,60,0,5,,,,,,,,3,,,,71,64
48930,note_on,0,0,9,,,,,,,,10,,,,66,30
49110,note_off,180,0,9,,,,,,,,10,,,,66,64
49110,note_on,0,0,6,,,,,,,,4,,,,68,30
49110,note_off,180,0,6,,,,,,,,4,,,,66,64
49110,note_on,0,0,8,,,,,,,,8,,,,73,30
49110,note_off,180,0,8,,,,,,,,8,,,,69,64
49110,note_off,180,0,5,,,,,,,,3,,,,69,64
49110,note_on,0,0,9,,,,,,,,10,,,,68,30
49110,note_on,0,0,5,,,,,,,,3,,,,73,30
49170,note_off,60,0,5,,,,,,,,3,,,,73,64
49170,note_on,0,0,5,,,,,,,,3,,,,75,30
49170,note_off,60,0,6,,,,,,,,4,,,,68,64
49170,note_off,60,0,8,,,,,,,,8,,,,73,64
49170,note_on,0,0,8,,,,,,,,8,,,,75,30
49170,note_on,0,0,3,,,,,,,,1,,,,72,51
49170,note_on,0,0,9,,,,,,,,10,,,,66,30
49170,note_off,480,0,3,,,,,,,,1,,,,81,64
49170,note_on,0,0,6,,,,,,,,4,,,,66,30
49170,note_on,0,0,4,,,,,,,,2,,,,72,36
49170,note_on,0,0,1,,,,,,,,12,,,,66,45
49170,note_off,480,0,4,,,,,,,,2,,,,81,64
49170,note_on,0,0,1,,,,,,,,12,,,,63,45
49170,note_on,1040,0,1,,,,,,,,12,,,,60,45
49170,set_tempo,480,1,0,1666666,,,,,,,,,,,,
49170,note_off,60,0,9,,,,,,,,10,,,,68,64
49350,note_off,180,0,5,,,,,,,,3,,,,75,64
49350,note_on,0,0,5,,,,,,,,3,,,,76,30
49350,note_off,180,0,8,,,,,,,,8,,,,75,64
49350,note_on,0,0,8,,,,,,,,8,,,,76,30
49350,note_off,180,0,9,,,,,,,,10,,,,66,64
49350,note_on,0,0,6,,,,,,,,4,,,,68,30
49350,note_on,0,0,9,,,,,,,,10,,,,68,30
49350,note_off,180,0,6,,,,,,,,4,,,,66,64
49410,note_on,0,0,2,,,,,,,,13,,,,44,45
49410,note_on,800,0,2,,,,,,,,13,,,,32,45
49410,note_on,800,0,10,,,,,,,,11,,,,56,30
49410,note_on,0,0,9,,,,,,,,10,,,,66,30
49410,note_on,800,0,7,,,,,,,,5,,,,56,30
49410,note_off,60,0,9,,,,,,,,10,,,,68,64
49410,note_off,60,0,5,,,,,,,,3,,,,76,64
49410,note_off,60,0,8,,,,,,,,8,,,,76,64
49410,note_on,0,0,6,,,,,,,,4,,,,66,30
49410,note_on,0,0,8,,,,,,,,8,,,,75,30
49410,note_on,0,0,5,,,,,,,,3,,,,75,30
49410,note_off,60,0,6,,,,,,,,4,,,,68,64
49570,note_off,400,0,1,,,,,,,,12,,,,66,64
49570,note_off,0,0,1,,,,,,,,12,,,,63,64
49570,note_off,0,0,1,,,,,,,,12,,,,60,64
49590,note_off,180,0,5,,,,,,,,3,,,,75,64
49590,note_on,0,0,5,,,,,,,,3,,,,76,30
49590,note_on,0,0,6,,,,,,,,4,,,,68,30
49590,note_off,180,0,9,,,,,,,,10,,,,66,64
49590,note_on,0,0,9,,,,,,,,10,,,,68,30
49590,note_off,180,0,8,,,,,,,,8,,,,75,64
49590,note_on,0,0,8,,,,,,,,8,,,,76,30
49590,note_off,180,0,6,,,,,,,,4,,,,66,64
49645,note_off,0,0,2,,,,,,,,13,,,,32,64
49645,note_off,235,0,10,,,,,,,,11,,,,56,64
49645,note_off,235,0,7,,,,,,,,5,,,,56,64
49645,note_off,235,0,2,,,,,,,,13,,,,44,64
49650,note_on,0,0,4,,,,,,,,2,,,,68,39
49650,note_off,480,0,4,,,,,,,,2,,,,72,64
49650,note_on,5,0,10,,,,,,,,11,,,,56,30
49650,note_on,0,0,6,,,,,,,,4,,,,66,30
49650,note_on,0,0,3,,,,,,,,1,,,,68,54
49650,note_off,60,0,9,,,,,,,,10,,,,68,64
49650,note_on,0,0,9,,,,,,,,10,,,,66,30
49650,note_on,5,0,7,,,,,,,,5,,,,56,30
49650,note_off,60,0,5,,,,,,,,3,,,,76,64
49650,note_on,0,0,5,,,,,,,,3,,,,75,30
49650,note_off,60,0,6,,,,,,,,4,,,,68,64
49650,note_on,5,0,2,,,,,,,,13,,,,32,45
49650,note_on,0,0,2,,,,,,,,13,,,,44,45
49650,note_off,480,0,3,,,,,,,,1,,,,72,64
49650,note_on,0,0,8,,,,,,,,8,,,,75,30
49650,note_off,60,0,8,,,,,,,,8,,,,76,64
49650,set_tempo,480,1,0,1818181,,,,,,,,,,,,
49830,note_on,0,0,9,,,,,,,,10,,,,68,30
49830,note_off,180,0,6,,,,,,,,4,,,,66,64
49830,note_on,0,0,6,,,,,,,,4,,,,68,30
49830,note_off,180,0,9,,,,,,,,10,,,,66,64
49830,note_off,180,0,5,,,,,,,,3,,,,75,64
49830,note_off,180,0,8,,,,,,,,8,,,,75,64
49830,note_on,0,0,8,,,,,,,,8,,,,76,30
49830,note_on,0,0,5,,,,,,,,3,,,,76,30
49890,note_on,0,0,9,,,,,,,,10,,,,66,30
49890,note_on,0,0,6,,,,,,,,4,,,,66,30
49890,note_off,60,0,6,,,,,,,,4,,,,68,64
49890,note_on,0,0,8,,,,,,,,8,,,,75,30
49890,note_off,60,0,8,,,,,,,,8,,,,76,64
49890,note_off,60,0,5,,,,,,,,3,,,,76,64
49890,note_off,60,0,9,,,,,,,,10,,,,68,64
49890,note_on,0,0,5,,,,,,,,3,,,,75,30
50050,note_off,400,0,7,,,,,,,,5,,,,56,64
50050,note_off,400,0,10,,,,,,,,11,,,,56,64
50050,note_off,400,0,2,,,,,,,,13,,,,44,64
50050,note_off,0,0,2,,,,,,,,13,,,,32,64
50070,note_on,0,0,5,,,,,,,,3,,,,76,30
50070,note_on,0,0,9,,,,,,,,10,,,,68,30
50070,note_off,180,0,9,,,,,,,,10,,,,66,64
50070,note_off,180,0,8,,,,,,,,8,,,,75,64
50070,note_off,180,0,5,,,,,,,,3,,,,75,64
50070,note_on,0,0,8,,,,,,,,8,,,,76,30
50070,note_on,0,0,6,,,,,,,,4,,,,68,30
50070,note_off,180,0,6,,,,,,,,4,,,,66,64
50130,note_on,0,0,8,,,,,,,,8,,,,75,30
50130,note_on,0,0,3,,,,,,,,1,,,,78,57
50130,note_off,480,0,3,,,,,,,,1,,,,68,64
50130,note_off,60,0,9,,,,,,,,10,,,,68,64
50130,note_on,0,0,9,,,,,,,,10,,,,66,30
50130,note_off,60,0,8,,,,,,,,8,,,,76,64
50130,note_off,480,0,4,,,,,,,,2,,,,68,64
50130,note_on,0,0,4,,,,,,,,2,,,,78,42
50130,note_on,0,0,5,,,,,,,,3,,,,75,30
50130,note_off,60,0,6,,,,,,,,4,,,,68,64
50130,note_on,0,0,6,,,,,,,,4,,,,66,30
50130,note_off,60,0,5,,,,,,,,3,,,,76,64
50130,set_tempo,480,1,0,1621621,,,,,,,,,,,,
50310,note_on,0,0,8,,,,,,,,8,,,,76,30
50310,note_off,180,0,6,,,,,,,,4,,,,66,64
50310,note_on,0,0,6,,,,,,,,4,,,,68,30
50310,note_off,180,0,8,,,,,,,,8,,,,75,64
50310,note_on,0,0,5,,,,,,,,3,,,,76,30
50310,note_off,180,0,9,,,,,,,,10,,,,66,64
50310,note_on,0,0,9,,,,,,,,10,,,,68,30
50310,note_off,180,0,5,,,,,,,,3,,,,75,64
50370,note_off,60,0,5,,,,,,,,3,,,,76,64
50370,note_off,60,0,6,,,,,,,,4,,,,68,64
50370,note_off,60,0,9,,,,,,,,10,,,,68,64
50370,note_off,60,0,8,,,,,,,,8,,,,76,64
50370,note_on,0,0,5,,,,,,,,3,,,,75,30
50370,note_on,0,0,6,,,,,,,,4,,,,66,30
50370,note_on,0,0,9,,,,,,,,10,,,,66,30
50370,note_on,0,0,8,,,,,,,,8,,,,75,30
50550,note_on,0,0,5,,,,,,,,3,,,,76,30
50550,note_off,180,0,5,,,,,,,,3,,,,75,64
50550,note_on,0,0,8,,,,,,,,8,,,,76,30
50550,note_off,180,0,9,,,,,,,,10,,,,66,64
50550,note_off,180,0,8,,,,,,,,8,,,,75,64
50550,note_on,0,0,9,,,,,,,,10,,,,68,30
50550,note_off,180,0,6,,,,,,,,4,,,,66,64
50550,note_on,0,0,6,,,,,,,,4,,,,68,30
50605,note_off,55,0,8,,,,,,,,8,,,,76,64
50605,note_off,55,0,5,,,,,,,,3,,,,76,64
50605,note_off,55,0,9,,,,,,,,10,,,,68,64
50605,note_off,55,0,6,,,,,,,,4,,,,68,64
50610,note_on,0,0,4,,,,,,,,2,,,,76,45
50610,note_on,0,0,1,,,,,,,,12,,,,68,45
50610,note_on,5,0,9,,,,,,,,10,,,,68,30
50610,note_on,0,0,1,,,,,,,,12,,,,64,45
50610,note_on,1040,0,1,,,,,,,,12,,,,61,45
50610,set_tempo,480,1,0,1764705,,,,,,,,,,,,
50610,note_off,480,0,4,,,,,,,,2,,,,78,64
50610,note_on,5,0,8,,,,,,,,8,,,,73,30
50610,note_on,0,0,3,,,,,,,,1,,,,76,60
50610,note_on,5,0,5,,,,,,,,3,,,,73,30
50610,note_off,480,0,3,,,,,,,,1,,,,78,64
50610,note_on,5,0,6,,,,,,,,4,,,,68,30
50790,note_on,0,0,8,,,,,,,,8,,,,75,30
50790,note_off,180,0,8,,,,,,,,8,,,,73,64
50790,note_on,0,0,5,,,,,,,,3,,,,75,30
50790,note_off,180,0,5,,,,,,,,3,,,,73,64
50850,note_on,0,0,9,,,,,,,,10,,,,68,30
50850,note_on,0,0,6,,,,,,,,4,,,,68,30
50850,note_off,240,0,6,,,,,,,,4,,,,68,64
50850,note_on,0,0,5,,,,,,,,3,,,,73,30
50850,note_off,60,0,5,,,,,,,,3,,,,75,64
50850,note_on,800,0,2,,,,,,,,13,,,,32,45
50850,note_on,0,0,8,,,,,,,,8,,,,73,30
50850,note_off,60,0,8,,,,,,,,8,,,,75,64
50850,note_off,240,0,9,,,,,,,,10,,,,68,64
50850,note_on,800,0,7,,,,,,,,5,,,,56,30
50850,note_on,0,0,2,,,,,,,,13,,,,44,45
50850,note_on,800,0,10,,,,,,,,11,,,,56,30
51010,note_off,0,0,1,,,,,,,,12,,,,61,64
51010,note_off,0,0,1,,,,,,,,12,,,,64,64
51010,note_off,400,0,1,,,,,,,,12,,,,68,64
51030,note_on,0,0,5,,,,,,,,3,,,,75,30
51030,note_on,0,0,8,,,,,,,,8,,,,75,30
51030,note_off,180,0,5,,,,,,,,3,,,,73,64
51030,note_off,180,0,8,,,,,,,,8,,,,73,64
51085,note_off,235,0,7,,,,,,,,5,,,,56,64
51085,note_off,235,0,10,,,,,,,,11,,,,56,64
51085,note_off,235,0,2,,,,,,,,13,,,,44,64
51085,note_off,0,0,2,,,,,,,,13,,,,32,64
51090,note_off,60,0,8,,,,,,,,8,,,,75,64
51090,note_on,0,0,8,,,,,,,,8,,,,72,30
51090,note_on,0,0,3,,,,,,,,1,,,,76,60
51090,note_on,0,0,3,,,,,,,,1,,,,75,60
51090,note_on,0,0,9,,,,,,,,10,,,,68,30
51090,note_off,240,0,9,,,,,,,,10,,,,68,64
51090,note_off,480,0,3,,,,,,,,1,,,,76,64
51090,note_on,0,0,6,,,,,,,,4,,,,68,30
51090,note_on,0,0,2,,,,,,,,13,,,,44,45
51090,note_on,5,0,2,,,,,,,,13,,,,32,45
51090,note_on,5,0,10,,,,,,,,11,,,,56,30
51090,note_on,0,0,5,,,,,,,,3,,,,72,30
51090,note_off,480,0,4,,,,,,,,2,,,,76,64
51090,note_off,60,0,5,,,,,,,,3,,,,75,64
51090,note_on,0,0,4,,,,,,,,2,,,,76,45
51090,note_on,0,0,4,,,,,,,,2,,,,75,45
51090,note_on,5,0,7,,,,,,,,5,,,,56,30
51090,note_off,240,0,6,,,,,,,,4,,,,68,64
51120,note_off,30,0,4,,,,,,,,2,,,,75,64
51120,note_on,0,0,4,,,,,,,,2,,,,76,45
51120,note_on,0,0,3,,,,,,,,1,,,,76,60
51120,note_off,30,0,3,,,,,,,,1,,,,75,64
51150,note_off,0,0,4,,,,,,,,2,,,,76,64
51150,note_off,30,0,4,,,,,,,,2,,,,76,64
51150,note_on,0,0,3,,,,,,,,1,,,,75,60
51150,note_off,0,0,3,,,,,,,,1,,,,76,64
51150,note_off,30,0,3,,,,,,,,1,,,,76,64
51150,note_on,0,0,4,,,,,,,,2,,,,75,45
51180,note_off,30,0,4,,,,,,,,2,,,,75,64
51180,note_on,0,0,4,,,,,,,,2,,,,76,45
51180,note_on,0,0,3,,,,,,,,1,,,,76,60
51180,note_off,30,0,3,,,,,,,,1,,,,75,64
51210,note_off,30,0,3,,,,,,,,1,,,,76,64
51210,note_off,30,0,4,,,,,,,,2,,,,76,64
51210,note_on,0,0,4,,,,,,,,2,,,,75,45
51210,note_on,0,0,3,,,,,,,,1,,,,75,60
51240,note_on,0,0,3,,,,,,,,1,,,,76,60
51240,note_off,30,0,3,,,,,,,,1,,,,75,64
51240,note_on,0,0,4,,,,,,,,2,,,,76,45
51240,note_off,30,0,4,,,,,,,,2,,,,75,64
51270,note_off,180,0,8,,,,,,,,8,,,,72,64
51270,note_on,0,0,8,,,,,,,,8,,,,73,30
51270,note_on,0,0,5,,,,,,,,3,,,,73,30
51270,note_off,180,0,5,,,,,,,,3,,,,72,64
51270,note_on,0,0,3,,,,,,,,1,,,,75,60
51270,note_on,0,0,4,,,,,,,,2,,,,75,45
51270,note_off,30,0,4,,,,,,,,2,,,,76,64
51270,note_off,30,0,3,,,,,,,,1,,,,76,64
51300,note_off,30,0,3,,,,,,,,1,,,,75,64
51300,note_on,0,0,3,,,,,,,,1,,,,76,60
51300,note_off,30,0,4,,,,,,,,2,,,,75,64
51300,note_on,0,0,4,,,,,,,,2,,,,76,45
51330,note_off,60,0,5,,,,,,,,3,,,,73,64
51330,note_on,0,0,5,,,,,,,,3,,,,72,30
51330,note_on,0,0,6,,,,,,,,4,,,,68,30
51330,note_off,240,0,9,,,,,,,,10,,,,68,64
51330,note_on,0,0,9,,,,,,,,10,,,,68,30
51330,note_off,240,0,6,,,,,,,,4,,,,68,64
51330,note_on,0,0,3,,,,,,,,1,,,,75,60
51330,note_on,0,0,4,,,,,,,,2,,,,75,45
51330,note_off,30,0,4,,,,,,,,2,,,,76,64
51330,note_off,30,0,3,,,,,,,,1,,,,76,64
51330,note_off,60,0,8,,,,,,,,8,,,,73,64
51330,note_on,0,0,8,,,,,,,,8,,,,72,30
51360,note_off,30,0,4,,,,,,,,2,,,,75,64
51360,note_off,30,0,3,,,,,,,,1,,,,75,64
51360,note_on,0,0,4,,,,,,,,2,,,,76,45
51360,note_on,0,0,3,,,,,,,,1,,,,76,60
51390,note_on,0,0,4,,,,,,,,2,,,,75,45
51390,note_off,30,0,4,,,,,,,,2,,,,76,64
51390,note_on,0,0,3,,,,,,,,1,,,,75,60
51390,note_off,30,0,3,,,,,,,,1,,,,76,64
51420,note_on,0,0,3,,,,,,,,1,,,,76,60
51420,note_off,30,0,4,,,,,,,,2,,,,75,64
51420,note_on,0,0,4,,,,,,,,2,,,,76,45
51420,note_off,30,0,3,,,,,,,,1,,,,75,64
51450,note_on,0,0,3,,,,,,,,1,,,,75,60
51450,note_off,30,0,4,,,,,,,,2,,,,76,64
51450,note_on,0,0,4,,,,,,,,2,,,,75,45
51450,note_off,30,0,3,,,,,,,,1,,,,76,64
51480,note_on,0,0,4,,,,,,,,2,,,,76,45
51480,note_on,0,0,3,,,,,,,,1,,,,76,60
51480,note_off,30,0,3,,,,,,,,1,,,,75,64
51480,note_off,30,0,4,,,,,,,,2,,,,75,64
51490,note_off,400,0,10,,,,,,,,11,,,,56,64
51490,note_off,400,0,2,,,,,,,,13,,,,44,64
51490,note_off,400,0,7,,,,,,,,5,,,,56,64
51490,note_off,0,0,2,,,,,,,,13,,,,32,64
51510,note_off,180,0,5,,,,,,,,3,,,,72,64
51510,note_on,0,0,4,,,,,,,,2,,,,75,45
51510,note_off,180,0,8,,,,,,,,8,,,,72,64
51510,note_on,0,0,8,,,,,,,,8,,,,73,30
51510,note_off,30,0,3,,,,,,,,1,,,,76,64
51510,note_on,0,0,3,,,,,,,,1,,,,75,60
51510,note_off,30,0,4,,,,,,,,2,,,,76,64
51510,note_on,0,0,5,,,,,,,,3,,,,73,30
51540,note_off,30,0,4,,,,,,,,2,,,,75,64
51540,note_on,0,0,4,,,,,,,,2,,,,76,45
51540,note_off,30,0,3,,,,,,,,1,,,,75,64
51540,note_on,0,0,3,,,,,,,,1,,,,76,60
51570,note_off,60,0,5,,,,,,,,3,,,,73,64
51570,note_on,0,0,6,,,,,,,,4,,,,68,30
51570,note_on,0,0,8,,,,,,,,8,,,,72,30
51570,note_off,60,0,8,,,,,,,,8,,,,73,64
51570,note_on,0,0,3,,,,,,,,1,,,,75,60
51570,note_off,240,0,6,,,,,,,,4,,,,68,64
51570,note_on,0,0,5,,,,,,,,3,,,,72,30
51570,note_off,30,0,3,,,,,,,,1,,,,76,64
51570,note_off,240,0,9,,,,,,,,10,,,,68,64
51570,note_off,30,0,4,,,,,,,,2,,,,76,64
51570,note_on,0,0,4,,,,,,,,2,,,,75,45
51570,note_on,0,0,9,,,,,,,,10,,,,68,30
51600,note_off,30,0,4,,,,,,,,2,,,,75,64
51600,note_on,0,0,4,,,,,,,,2,,,,76,45
51600,note_off,30,0,3,,,,,,,,1,,,,75,64
51600,note_on,0,0,3,,,,,,,,1,,,,76,60
51630,note_on,0,0,3,,,,,,,,1,,,,75,59
51630,note_off,30,0,3,,,,,,,,1,,,,76,64
51630,note_on,0,0,4,,,,,,,,2,,,,75,44
51630,note_off,30,0,4,,,,,,,,2,,,,76,64
51660,note_on,0,0,3,,,,,,,,1,,,,76,58
51660,note_off,30,0,3,,,,,,,,1,,,,75,64
51660,note_off,30,0,4,,,,,,,,2,,,,75,64
51660,note_on,0,0,4,,,,,,,,2,,,,76,43
51690,note_off,30,0,4,,,,,,,,2,,,,76,64
51690,note_on,0,0,3,,,,,,,,1,,,,75,57
51690,note_off,30,0,3,,,,,,,,1,,,,76,64
51690,note_on,0,0,4,,,,,,,,2,,,,75,42
51720,note_on,0,0,3,,,,,,,,1,,,,76,56
51720,note_off,30,0,3,,,,,,,,1,,,,75,64
51720,note_on,0,0,4,,,,,,,,2,,,,76,41
51720,note_off,30,0,4,,,,,,,,2,,,,75,64
51750,note_off,180,0,8,,,,,,,,8,,,,72,64
51750,note_on,0,0,8,,,,,,,,8,,,,73,30
51750,note_off,180,0,5,,,,,,,,3,,,,72,64
51750,note_off,30,0,3,,,,,,,,1,,,,76,64
51750,note_on,0,0,5,,,,,,,,3,,,,73,30
51750,note_on,0,0,4,,,,,,,,2,,,,75,40
51750,note_on,0,0,3,,,,,,,,1,,,,75,55
51750,note_off,30,0,4,,,,,,,,2,,,,76,64
51780,note_on,0,0,3,,,,,,,,1,,,,76,54
51780,note_off,30,0,4,,,,,,,,2,,,,75,64
51780,note_off,30,0,3,,,,,,,,1,,,,75,64
51780,note_on,0,0,4,,,,,,,,2,,,,76,39
51810,note_on,0,0,9,,,,,,,,10,,,,72,30
51810,note_off,240,0,9,,,,,,,,10,,,,68,64
51810,note_off,30,0,3,,,,,,,,1,,,,76,64
51810,note_on,0,0,3,,,,,,,,1,,,,75,53
51810,note_off,60,0,5,,,,,,,,3,,,,73,64
51810,note_on,0,0,8,,,,,,,,8,,,,72,30
51810,note_on,0,0,6,,,,,,,,4,,,,72,30
51810,note_off,60,0,8,,,,,,,,8,,,,73,64
51810,note_on,0,0,5,,,,,,,,3,,,,72,30
51810,note_on,0,0,4,,,,,,,,2,,,,75,38
51810,note_off,30,0,4,,,,,,,,2,,,,76,64
51810,note_off,240,0,6,,,,,,,,4,,,,68,64
51840,note_on,0,0,4,,,,,,,,2,,,,76,37
51840,note_off,30,0,4,,,,,,,,2,,,,75,64
51840,note_off,30,0,3,,,,,,,,1,,,,75,64
51840,note_on,0,0,3,,,,,,,,1,,,,76,52
51870,note_on,0,0,4,,,,,,,,2,,,,75,36
51870,note_off,30,0,3,,,,,,,,1,,,,76,64
51870,note_on,0,0,3,,,,,,,,1,,,,75,51
51870,note_off,30,0,4,,,,,,,,2,,,,76,64
51900,note_on,0,0,3,,,,,,,,1,,,,76,50
51900,note_off,30,0,4,,,,,,,,2,,,,75,64
51900,note_on,0,0,4,,,,,,,,2,,,,76,35
51900,note_off,30,0,3,,,,,,,,1,,,,75,64
51930,note_on,0,0,3,,,,,,,,1,,,,75,49
51930,note_off,30,0,4,,,,,,,,2,,,,76,64
51930,note_on,0,0,4,,,,,,,,2,,,,75,34
51930,note_off,30,0,3,,,,,,,,1,,,,76,64
51960,note_on,0,0,4,,,,,,,,2,,,,76,33
51960,note_off,30,0,4,,,,,,,,2,,,,75,64
51960,note_off,30,0,3,,,,,,,,1,,,,75,64
51960,note_on,0,0,3,,,,,,,,1,,,,76,48
51990,note_on,0,0,5,,,,,,,,3,,,,75,30
51990,note_on,0,0,4,,,,,,,,2,,,,75,32
51990,note_off,30,0,4,,,,,,,,2,,,,76,64
51990,note_off,30,0,3,,,,,,,,1,,,,76,64
51990,note_off,180,0,5,,,,,,,,3,,,,72,64
51990,note_on,0,0,8,,,,,,,,8,,,,75,30
51990,note_off,180,0,8,,,,,,,,8,,,,72,64
51990,note_on,0,0,3,,,,,,,,1,,,,75,47
52050,note_off,240,0,6,,,,,,,,4,,,,72,64
52050,note_off,60,0,8,,,,,,,,8,,,,75,64
52050,note_on,0,0,6,,,,,,,,4,,,,73,30
52050,note_on,0,0,1,,,,,,,,12,,,,68,45
52050,note_on,0,0,8,,,,,,,,8,,,,76,30
52050,note_off,60,0,4,,,,,,,,2,,,,75,64
52050,note_off,240,0,9,,,,,,,,10,,,,72,64
52050,set_tempo,1440,1,0,1500000,,,,,,,,,,,,
52050,note_on,0,0,9,,,,,,,,10,,,,73,30
52050,note_off,60,0,5,,,,,,,,3,,,,75,64
52050,note_on,1040,0,1,,,,,,,,12,,,,61,45
52050,note_on,0,0,1,,,,,,,,12,,,,64,45
52050,note_on,0,0,4,,,,,,,,2,,,,73,30
52050,note_on,0,0,3,,,,,,,,1,,,,73,45
52050,note_off,60,0,3,,,,,,,,1,,,,75,64
52050,note_on,0,0,5,,,,,,,,3,,,,76,30
52230,note_off,180,0,8,,,,,,,,8,,,,76,64
52230,note_on,0,0,8,,,,,,,,8,,,,78,29
52230,note_on,0,0,5,,,,,,,,3,,,,78,29
52230,note_on,0,0,6,,,,,,,,4,,,,75,29
52230,note_off,180,0,9,,,,,,,,10,,,,73,64
52230,note_on,0,0,9,,,,,,,,10,,,,75,29
52230,note_off,180,0,5,,,,,,,,3,,,,76,64
52230,note_off,180,0,6,,,,,,,,4,,,,73,64
52290,note_off,60,0,5,,,,,,,,3,,,,78,64
52290,note_on,0,0,5,,,,,,,,3,,,,76,29
52290,note_off,60,0,9,,,,,,,,10,,,,75,64
52290,note_on,0,0,9,,,,,,,,10,,,,73,29
52290,note_on,800,0,2,,,,,,,,13,,,,37,43
52290,note_on,800,0,7,,,,,,,,5,,,,61,29
52290,note_on,0,0,2,,,,,,,,13,,,,49,43
52290,note_on,0,0,8,,,,,,,,8,,,,76,29
52290,note_off,60,0,8,,,,,,,,8,,,,78,64
52290,note_on,800,0,10,,,,,,,,11,,,,61,29
52290,note_off,60,0,6,,,,,,,,4,,,,75,64
52290,note_on,0,0,6,,,,,,,,4,,,,73,29
52450,note_off,0,0,1,,,,,,,,12,,,,61,64
52450,note_off,0,0,1,,,,,,,,12,,,,64,64
52450,note_off,400,0,1,,,,,,,,12,,,,68,64
52470,note_off,180,0,6,,,,,,,,4,,,,73,64
52470,note_on,0,0,6,,,,,,,,4,,,,75,28
52470,note_off,180,0,9,,,,,,,,10,,,,73,64
52470,note_on,0,0,9,,,,,,,,10,,,,75,28
52470,note_off,180,0,8,,,,,,,,8,,,,76,64
52470,note_on,0,0,8,,,,,,,,8,,,,78,28
52470,note_on,0,0,5,,,,,,,,3,,,,78,28
52470,note_off,180,0,5,,,,,,,,3,,,,76,64
52525,note_off,235,0,10,,,,,,,,11,,,,61,64
52525,note_off,0,0,2,,,,,,,,13,,,,37,64
52525,note_off,235,0,2,,,,,,,,13,,,,49,64
52525,note_off,235,0,7,,,,,,,,5,,,,61,64
52530,note_on,5,0,2,,,,,,,,13,,,,37,40
52530,note_on,80,0,1,,,,,,,,12,,,,61,43
52530,note_on,0,0,5,,,,,,,,3,,,,76,28
52530,note_off,60,0,5,,,,,,,,3,,,,78,64
52530,note_on,0,0,2,,,,,,,,13,,,,49,40
52530,note_on,5,0,10,,,,,,,,11,,,,61,28
52530,note_off,60,0,8,,,,,,,,8,,,,78,64
52530,note_on,0,0,8,,,,,,,,8,,,,76,28
52530,note_off,60,0,9,,,,,,,,10,,,,75,64
52530,note_on,5,0,7,,,,,,,,5,,,,61,28
52530,note_on,0,0,9,,,,,,,,10,,,,73,28
52530,note_on,0,0,6,,,,,,,,4,,,,73,28
52530,note_off,60,0,6,,,,,,,,4,,,,75,64
52710,note_off,180,0,6,,,,,,,,4,,,,73,64
52710,note_off,180,0,9,,,,,,,,10,,,,73,64
52710,note_on,0,0,9,,,,,,,,10,,,,75,27
52710,note_on,0,0,6,,,,,,,,4,,,,75,27
52710,note_off,180,0,5,,,,,,,,3,,,,76,64
52710,note_on,0,0,5,,,,,,,,3,,,,78,27
52710,note_on,0,0,8,,,,,,,,8,,,,78,27
52710,note_off,180,0,8,,,,,,,,8,,,,76,64
52765,note_off,235,0,1,,,,,,,,12,,,,61,64
52770,note_on,0,0,5,,,,,,,,3,,,,76,27
52770,note_on,5,0,1,,,,,,,,12,,,,64,42
52770,note_off,60,0,8,,,,,,,,8,,,,78,64
52770,note_on,0,0,8,,,,,,,,8,,,,76,27
52770,note_on,0,0,6,,,,,,,,4,,,,73,27
52770,note_on,0,0,9,,,,,,,,10,,,,73,27
52770,note_off,60,0,9,,,,,,,,10,,,,75,64
52770,note_off,60,0,5,,,,,,,,3,,,,78,64
52770,note_off,60,0,6,,,,,,,,4,,,,75,64
52890,note_off,840,0,3,,,,,,,,1,,,,73,64
52890,end_of_track,0,1,3,,,,,,,,,,,,,
52890,end_of_track,0,1,4,,,,,,,,,,,,,
52890,note_off,840,0,4,,,,,,,,2,,,,73,64
52930,note_off,400,0,7,,,,,,,,5,,,,61,64
52930,note_off,400,0,2,,,,,,,,13,,,,49,64
52930,note_off,400,0,10,,,,,,,,11,,,,61,64
52930,note_off,0,0,2,,,,,,,,13,,,,37,64
52950,note_off,180,0,8,,,,,,,,8,,,,76,64
52950,note_on,0,0,5,,,,,,,,3,,,,78,26
52950,note_on,0,0,8,,,,,,,,8,,,,78,26
52950,note_off,180,0,6,,,,,,,,4,,,,73,64
52950,note_on,0,0,9,,,,,,,,10,,,,75,26
52950,note_on,0,0,6,,,,,,,,4,,,,75,26
52950,note_off,180,0,9,,,,,,,,10,,,,73,64
52950,note_off,180,0,5,,,,,,,,3,,,,76,64
53005,note_off,235,0,1,,,,,,,,12,,,,64,64
53010,note_on,5,0,1,,,,,,,,12,,,,68,41
53010,note_off,60,0,5,,,,,,,,3,,,,78,64
53010,note_on,0,0,5,,,,,,,,3,,,,76,26
53010,note_on,0,0,6,,,,,,,,4,,,,73,26
53010,note_off,60,0,6,,,,,,,,4,,,,75,64
53010,note_off,60,0,8,,,,,,,,8,,,,78,64
53010,note_on,0,0,8,,,,,,,,8,,,,76,26
53010,note_on,0,0,9,,,,,,,,10,,,,73,26
53010,note_off,60,0,9,,,,,,,,10,,,,75,64
53190,note_off,180,0,6,,,,,,,,4,,,,73,64
53190,note_on,0,0,9,,,,,,,,10,,,,75,25
53190,note_on,0,0,5,,,,,,,,3,,,,78,25
53190,note_off,180,0,5,,,,,,,,3,,,,76,64
53190,note_off,180,0,9,,,,,,,,10,,,,73,64
53190,note_off,180,0,8,,,,,,,,8,,,,76,64
53190,note_on,0,0,8,,,,,,,,8,,,,78,25
53190,note_on,0,0,6,,,,,,,,4,,,,75,25
53245,note_off,235,0,1,,,,,,,,12,,,,68,64
53250,note_off,60,0,6,,,,,,,,4,,,,75,64
53250,note_on,0,0,6,,,,,,,,4,,,,73,25
53250,note_on,0,0,5,,,,,,,,3,,,,76,25
53250,note_off,60,0,5,,,,,,,,3,,,,78,64
53250,note_off,60,0,8,,,,,,,,8,,,,78,64
53250,note_on,0,0,8,,,,,,,,8,,,,76,25
53250,note_off,60,0,9,,,,,,,,10,,,,75,64
53250,note_on,0,0,9,,,,,,,,10,,,,73,25
53250,note_on,5,0,1,,,,,,,,12,,,,73,40
53430,note_off,180,0,6,,,,,,,,4,,,,73,64
53430,note_off,180,0,5,,,,,,,,3,,,,76,64
53430,note_on,0,0,6,,,,,,,,4,,,,75,24
53430,note_off,180,0,8,,,,,,,,8,,,,76,64
53430,note_on,0,0,8,,,,,,,,8,,,,78,24
53430,note_off,180,0,9,,,,,,,,10,,,,73,64
53430,note_on,0,0,9,,,,,,,,10,,,,75,24
53430,note_on,0,0,5,,,,,,,,3,,,,78,24
53485,note_off,55,0,8,,,,,,,,8,,,,78,64
53485,note_off,55,0,5,,,,,,,,3,,,,78,64
53485,note_off,55,0,6,,,,,,,,4,,,,75,64
53485,note_off,235,0,1,,,,,,,,12,,,,73,64
53485,note_off,55,0,9,,,,,,,,10,,,,75,64
53490,note_on,5,0,5,,,,,,,,3,,,,64,24
53490,note_on,5,0,8,,,,,,,,8,,,,64,24
53490,note_on,5,0,6,,,,,,,,4,,,,61,24
53490,set_tempo,1440,1,0,1578947,,,,,,,,,,,,
53490,note_on,5,0,9,,,,,,,,10,,,,61,24
53670,note_off,180,0,9,,,,,,,,10,,,,61,64
53670,note_on,0,0,9,,,,,,,,10,,,,63,23
53670,note_off,180,0,8,,,,,,,,8,,,,64,64
53670,note_on,0,0,8,,,,,,,,8,,,,66,23
53670,note_off,180,0,5,,,,,,,,3,,,,64,64
53670,note_on,0,0,5,,,,,,,,3,,,,66,23
53670,note_off,180,0,6,,,,,,,,4,,,,61,64
53670,note_on,0,0,6,,,,,,,,4,,,,63,23
53730,note_off,60,0,6,,,,,,,,4,,,,63,64
53730,note_on,800,0,7,,,,,,,,5,,,,61,20
53730,note_off,60,0,5,,,,,,,,3,,,,66,64
53730,note_on,800,0,2,,,,,,,,13,,,,37,25
53730,note_on,0,0,2,,,,,,,,13,,,,49,25
53730,note_on,0,0,5,,,,,,,,3,,,,64,23
53730,note_off,60,0,9,,,,,,,,10,,,,63,64
53730,note_on,0,0,6,,,,,,,,4,,,,61,23
53730,note_on,800,0,10,,,,,,,,11,,,,61,20
53730,note_on,0,0,8,,,,,,,,8,,,,64,23
53730,note_on,0,0,9,,,,,,,,10,,,,61,23
53730,note_off,60,0,8,,,,,,,,8,,,,66,64
53910,note_on,0,0,6,,,,,,,,4,,,,63,22
53910,note_off,180,0,5,,,,,,,,3,,,,64,64
53910,note_off,180,0,6,,,,,,,,4,,,,61,64
53910,note_on,0,0,8,,,,,,,,8,,,,66,22
53910,note_off,180,0,8,,,,,,,,8,,,,64,64
53910,note_on,0,0,5,,,,,,,,3,,,,66,22
53910,note_off,180,0,9,,,,,,,,10,,,,61,64
53910,note_on,0,0,9,,,,,,,,10,,,,63,22
53965,note_off,235,0,10,,,,,,,,11,,,,61,64
53965,note_off,235,0,7,,,,,,,,5,,,,61,64
53965,note_off,0,0,2,,,,,,,,13,,,,37,64
53965,note_off,235,0,2,,,,,,,,13,,,,49,64
53970,note_off,60,0,9,,,,,,,,10,,,,63,64
53970,note_on,485,0,1,,,,,,,,12,,,,61,36
53970,note_on,5,0,10,,,,,,,,11,,,,61,18
53970,note_on,0,0,5,,,,,,,,3,,,,64,22
53970,note_off,60,0,5,,,,,,,,3,,,,66,64
53970,note_off,60,0,6,,,,,,,,4,,,,63,64
53970,note_on,0,0,2,,,,,,,,13,,,,49,22
53970,note_on,5,0,2,,,,,,,,13,,,,37,22
53970,note_on,0,0,8,,,,,,,,8,,,,64,22
53970,note_on,0,0,6,,,,,,,,4,,,,61,22
53970,note_off,60,0,8,,,,,,,,8,,,,66,64
53970,note_on,5,0,7,,,,,,,,5,,,,61,18
53970,note_on,0,0,9,,,,,,,,10,,,,61,22
53970,set_tempo,480,1,0,1666666,,,,,,,,,,,,
54150,note_off,180,0,9,,,,,,,,10,,,,61,64
54150,note_on,0,0,9,,,,,,,,10,,,,63,20
54150,note_on,0,0,8,,,,,,,,8,,,,66,20
54150,note_off,180,0,8,,,,,,,,8,,,,64,64
54150,note_on,0,0,6,,,,,,,,4,,,,63,20
54150,note_off,180,0,6,,,,,,,,4,,,,61,64
54150,note_off,180,0,5,,,,,,,,3,,,,64,64
54150,note_on,0,0,5,,,,,,,,3,,,,66,20
54205,note_off,235,0,1,,,,,,,,12,,,,61,64
54210,note_off,60,0,5,,,,,,,,3,,,,66,64
54210,note_on,0,0,5,,,,,,,,3,,,,64,20
54210,note_off,60,0,8,,,,,,,,8,,,,66,64
54210,note_on,0,0,8,,,,,,,,8,,,,64,20
54210,note_on,5,0,1,,,,,,,,12,,,,64,34
54210,note_on,0,0,6,,,,,,,,4,,,,61,20
54210,note_off,60,0,6,,,,,,,,4,,,,63,64
54210,note_off,60,0,9,,,,,,,,10,,,,63,64
54210,note_on,0,0,9,,,,,,,,10,,,,61,20
54370,note_off,0,0,2,,,,,,,,13,,,,37,64
54370,note_off,400,0,10,,,,,,,,11,,,,61,64
54370,note_off,400,0,7,,,,,,,,5,,,,61,64
54370,note_off,400,0,2,,,,,,,,13,,,,49,64
54390,note_on,0,0,9,,,,,,,,10,,,,63,18
54390,note_off,180,0,5,,,,,,,,3,,,,64,64
54390,note_off,180,0,6,,,,,,,,4,,,,61,64
54390,note_on,0,0,5,,,,,,,,3,,,,66,18
54390,note_on,0,0,6,,,,,,,,4,,,,63,18
54390,note_off,180,0,9,,,,,,,,10,,,,61,64
54390,note_off,180,0,8,,,,,,,,8,,,,64,64
54390,note_on,0,0,8,,,,,,,,8,,,,66,18
54445,note_off,235,0,1,,,,,,,,12,,,,64,64
54450,note_off,60,0,6,,,,,,,,4,,,,63,64
54450,note_on,0,0,6,,,,,,,,4,,,,61,18
54450,set_tempo,480,1,0,1764705,,,,,,,,,,,,
54450,note_off,60,0,9,,,,,,,,10,,,,63,64
54450,note_on,0,0,9,,,,,,,,10,,,,61,18
54450,note_on,5,0,1,,,,,,,,12,,,,68,32
54450,note_off,60,0,5,,,,,,,,3,,,,66,64
54450,note_on,0,0,5,,,,,,,,3,,,,64,18
54450,note_off,60,0,8,,,,,,,,8,,,,66,64
54450,note_on,0,0,8,,,,,,,,8,,,,64,18
54630,note_on,0,0,9,,,,,,,,10,,,,63,15
54630,note_off,180,0,6,,,,,,,,4,,,,61,64
54630,note_off,180,0,9,,,,,,,,10,,,,61,64
54630,note_off,180,0,8,,,,,,,,8,,,,64,64
54630,note_on,0,0,8,,,,,,,,8,,,,66,15
54630,note_on,0,0,6,,,,,,,,4,,,,63,15
54630,note_off,180,0,5,,,,,,,,3,,,,64,64
54630,note_on,0,0,5,,,,,,,,3,,,,66,15
54685,note_off,235,0,1,,,,,,,,12,,,,68,64
54690,note_on,0,0,9,,,,,,,,10,,,,61,14
54690,note_on,5,0,1,,,,,,,,12,,,,73,30
54690,note_off,60,0,9,,,,,,,,10,,,,63,64
54690,note_on,0,0,5,,,,,,,,3,,,,64,14
54690,note_off,60,0,8,,,,,,,,8,,,,66,64
54690,note_off,60,0,5,,,,,,,,3,,,,66,64
54690,note_on,0,0,6,,,,,,,,4,,,,61,14
54690,note_off,60,0,6,,,,,,,,4,,,,63,64
54690,note_on,0,0,8,,,,,,,,8,,,,64,14
54870,note_on,0,0,6,,,,,,,,4,,,,63,11
54870,note_on,0,0,5,,,,,,,,3,,,,66,11
54870,note_off,180,0,5,,,,,,,,3,,,,64,64
54870,note_on,0,0,9,,,,,,,,10,,,,63,11
54870,note_off,180,0,9,,,,,,,,10,,,,61,64
54870,note_off,180,0,8,,,,,,,,8,,,,64,64
54870,note_on,0,0,8,,,,,,,,8,,,,66,11
54870,note_off,180,0,6,,,,,,,,4,,,,61,64
54925,note_off,235,0,1,,,,,,,,12,,,,73,64
54930,note_on,0,0,5,,,,,,,,3,,,,64,10
54930,note_off,60,0,8,,,,,,,,8,,,,66,64
54930,note_on,0,0,8,,,,,,,,8,,,,64,10
54930,note_off,60,0,5,,,,,,,,3,,,,66,64
54930,note_on,0,0,1,,,,,,,,12,,,,68,10
54930,note_off,60,0,9,,,,,,,,10,,,,63,64
54930,note_on,0,0,9,,,,,,,,10,,,,61,10
54930,note_on,5,0,1,,,,,,,,12,,,,61,10
54930,note_on,0,0,6,,,,,,,,4,,,,61,10
54930,note_off,60,0,6,,,,,,,,4,,,,63,64
54930,end_of_track,0,1,0,,,,,,,,,,,,,
54930,set_tempo,480,1,0,1875000,,,,,,,,,,,,
54930,note_on,0,0,1,,,,,,,,12,,,,64,10
54930,note_on,560,0,2,,,,,,,,13,,,,37,10
54930,note_on,560,0,10,,,,,,,,11,,,,61,10
54930,note_on,560,0,7,,,,,,,,5,,,,61,10
54930,note_on,0,0,2,,,,,,,,13,,,,49,10
56250,note_off,1320,0,8,,,,,,,,8,,,,64,64
56250,end_of_track,0,1,6,,,,,,,,,,,,,
56250,end_of_track,0,1,8,,,,,,,,,,,,,
56250,note_off,1320,0,5,,,,,,,,3,,,,64,64
56250,end_of_track,0,1,5,,,,,,,,,,,,,
56250,end_of_track,0,1,2,,,,,,,,,,,,,
56250,note_off,0,0,2,,,,,,,,13,,,,37,64
56250,note_off,1320,0,2,,,,,,,,13,,,,49,64
56250,note_off,1320,0,1,,,,,,,,12,,,,68,64
56250,note_off,0,0,1,,,,,,,,12,,,,64,64
56250,note_off,0,0,1,,,,,,,,12,,,,61,64
56250,end_of_track,0,1,1,,,,,,,,,,,,,
56250,note_off,1320,0,10,,,,,,,,11,,,,61,64
56250,end_of_track,0,1,7,,,,,,,,,,,,,
56250,note_off,1320,0,7,,,,,,,,5,,,,61,64
56250,note_off,1320,0,9,,,,,,,,10,,,,61,64
56250,end_of_track,0,1,9,,,,,,,,,,,,,
56250,note_off,1320,0,6,,,,,,,,4,,,,61,64
56250,end_of_track,0,1,10,,,,,,,,,,,,,
