tick,type,time,meta,track,tempo,numerator,denominator,clocks_per_click,notated_32nd_notes_per_beat,key,port,channel,control,value,program,note,velocity
0,track_name,0,1,0,,,,,,,,,,,,,
0,control_change,0,0,8,,,,,,,,6,91,125,,,
0,program_change,0,0,8,,,,,,,,6,,,48,,
0,control_change,0,0,15,,,,,,,,14,10,19,,,
0,control_change,0,0,15,,,,,,,,14,7,127,,,
0,midi_port,0,1,9,,,,,,,0,,,,,,
0,channel_prefix,0,1,9,,,,,,,,7,,,,,
0,control_change,0,0,9,,,,,,,,7,7,127,,,
0,control_change,0,0,9,,,,,,,,7,10,127,,,
0,control_change,0,0,9,,,,,,,,7,91,127,,,
0,control_change,0,0,14,,,,,,,,13,91,127,,,
0,channel_prefix,0,1,15,,,,,,,,14,,,,,
0,program_change,0,0,3,,,,,,,,1,,,48,,
0,control_change,0,0,3,,,,,,,,1,91,127,,,
0,control_change,0,0,3,,,,,,,,1,10,64,,,
0,control_change,0,0,3,,,,,,,,1,7,127,,,
0,control_change,0,0,8,,,,,,,,6,10,95,,,
0,channel_prefix,0,1,3,,,,,,,,1,,,,,
0,control_change,0,0,8,,,,,,,,6,7,127,,,
0,midi_port,0,1,8,,,,,,,0,,,,,,
0,program_change,0,0,15,,,,,,,,14,,,32,,
0,program_change,0,0,4,,,,,,,,2,,,40,,
0,control_change,0,0,4,,,,,,,,2,91,127,,,
0,control_change,0,0,4,,,,,,,,2,10,64,,,
0,control_change,0,0,4,,,,,,,,2,7,127,,,
0,channel_prefix,0,1,4,,,,,,,,2,,,,,
0,midi_port,0,1,4,,,,,,,0,,,,,,
0,track_name,0,1,4,,,,,,,,,,,,,
0,midi_port,0,1,7,,,,,,,0,,,,,,
0,channel_prefix,0,1,7,,,,,,,,5,,,,,
0,control_change,0,0,7,,,,,,,,5,7,127,,,
0,control_change,0,0,7,,,,,,,,5,10,63,,,
0,control_change,0,0,7,,,,,,,,5,91,127,,,
0,program_change,0,0,7,,,,,,,,5,,,48,,
0,control_change,0,0,15,,,,,,,,14,91,127,,,
0,channel_prefix,0,1,8,,,,,,,,6,,,,,
0,midi_port,0,1,3,,,,,,,0,,,,,,
0,track_name,0,1,3,,,,,,,,,,,,,
0,midi_port,0,1,10,,,,,,,0,,,,,,
0,channel_prefix,0,1,12,,,,,,,,11,,,,,
0,control_change,0,0,12,,,,,,,,11,7,127,,,
0,control_change,0,0,12,,,,,,,,11,10,64,,,
0,control_change,0,0,12,,,,,,,,11,91,127,,,
0,program_change,0,0,12,,,,,,,,11,,,50,,
0,midi_port,0,1,13,,,,,,,0,,,,,,
0,channel_prefix,0,1,13,,,,,,,,12,,,,,
0,control_change,0,0,13,,,,,,,,12,7,127,,,
0,control_change,0,0,13,,,,,,,,12,10,95,,,
0,control_change,0,0,13,,,,,,,,12,91,127,,,
0,program_change,0,0,13,,,,,,,,12,,,50,,
0,midi_port,0,1,14,,,,,,,0,,,,,,
0,channel_prefix,0,1,14,,,,,,,,13,,,,,
0,control_change,0,0,14,,,,,,,,13,7,127,,,
0,control_change,0,0,14,,,,,,,,13,10,127,,,
0,midi_port,0,1,12,,,,,,,0,,,,,,
0,track_name,0,1,2,,,,,,,,,,,,,
0,midi_port,0,1,2,,,,,,,0,,,,,,
0,channel_prefix,0,1,2,,,,,,,,0,,,,,
0,channel_prefix,0,1,10,,,,,,,,8,,,,,
0,control_change,0,0,10,,,,,,,,8,7,127,,,
0,control_change,0,0,10,,,,,,,,8,10,1,,,
0,control_change,0,0,10,,,,,,,,8,91,127,,,
0,program_change,0,0,10,,,,,,,,8,,,50,,
0,midi_port,0,1,15,,,,,,,0,,,,,,
0,midi_port,0,1,11,,,,,,,0,,,,,,
0,program_change,0,0,6,,,,,,,,4,,,48,,
0,channel_prefix,0,1,11,,,,,,,,10,,,,,
0,control_change,0,0,11,,,,,,,,10,10,32,,,
0,control_change,0,0,11,,,,,,,,10,91,127,,,
0,program_change,0,0,11,,,,,,,,10,,,50,,
0,program_change,0,0,2,,,,,,,,0,,,6,,
0,control_change,0,0,2,,,,,,,,0,91,127,,,
0,control_change,0,0,2,,,,,,,,0,10,6,,,
0,control_change,0,0,2,,,,,,,,0,7,127,,,
0,control_change,0,0,11,,,,,,,,10,7,127,,,
0,control_change,0,0,6,,,,,,,,4,91,127,,,
0,program_change,0,0,9,,,,,,,,7,,,48,,
0,control_change,0,0,6,,,,,,,,4,7,127,,,
0,midi_port,0,1,5,,,,,,,0,,,,,,
0,channel_prefix,0,1,5,,,,,,,,3,,,,,
0,control_change,0,0,5,,,,,,,,3,7,127,,,
0,program_change,0,0,1,,,,,,,,0,,,6,,
0,control_change,0,0,1,,,,,,,,0,91,127,,,
0,control_change,0,0,1,,,,,,,,0,10,6,,,
0,control_change,0,0,1,,,,,,,,0,7,127,,,
0,channel_prefix,0,1,1,,,,,,,,0,,,,,
0,track_name,0,1,5,,,,,,,,,,,,,
0,midi_port,0,1,1,,,,,,,0,,,,,,
0,control_change,0,0,5,,,,,,,,3,10,1,,,
0,control_change,0,0,5,,,,,,,,3,91,127,,,
0,control_change,0,0,6,,,,,,,,4,10,32,,,
0,program_change,0,0,5,,,,,,,,3,,,48,,
0,key_signature,0,1,0,,,,,,E,,,,,,,
0,time_signature,0,1,0,,4,4,24,8,,,,,,,,
0,set_tempo,0,1,0,500000,,,,,,,,,,,,
0,copyright,0,1,0,,,,,,,,,,,,,
0,track_name,0,1,1,,,,,,,,,,,,,
0,midi_port,0,1,6,,,,,,,0,,,,,,
0,program_change,0,0,14,,,,,,,,13,,,50,,
0,channel_prefix,0,1,6,,,,,,,,4,,,,,
120,note_on,120,0,9,,,,,,,,7,,,,40,75
120,note_on,120,0,10,,,,,,,,8,,,,76,92
120,note_on,120,0,12,,,,,,,,11,,,,68,75
120,note_on,120,0,7,,,,,,,,5,,,,68,75
120,note_on,120,0,5,,,,,,,,3,,,,76,92
120,set_tempo,120,1,0,555555,,,,,,,,,,,,
120,note_on,120,0,11,,,,,,,,10,,,,71,75
120,note_on,120,0,13,,,,,,,,12,,,,52,75
120,note_on,120,0,6,,,,,,,,4,,,,71,92
120,note_on,120,0,8,,,,,,,,6,,,,52,75
200,note_off,80,0,8,,,,,,,,6,,,,52,64
200,note_off,80,0,13,,,,,,,,12,,,,52,64
200,note_off,80,0,12,,,,,,,,11,,,,68,64
200,note_off,80,0,9,,,,,,,,7,,,,40,64
200,note_off,80,0,10,,,,,,,,8,,,,76,64
200,note_off,80,0,5,,,,,,,,3,,,,76,64
200,note_off,80,0,11,,,,,,,,10,,,,71,64
200,note_off,80,0,7,,,,,,,,5,,,,68,64
200,note_off,80,0,6,,,,,,,,4,,,,71,64
360,note_on,160,0,9,,,,,,,,7,,,,40,75
360,note_on,0,0,1,,,,,,,,0,,,,76,60
360,note_on,0,0,2,,,,,,,,0,,,,52,60
360,note_on,0,0,2,,,,,,,,0,,,,47,60
360,note_on,0,0,1,,,,,,,,0,,,,71,60
360,note_on,160,0,12,,,,,,,,11,,,,71,75
360,note_on,360,0,2,,,,,,,,0,,,,40,60
360,note_on,360,0,1,,,,,,,,0,,,,64,60
360,note_on,160,0,10,,,,,,,,8,,,,80,92
360,note_on,160,0,8,,,,,,,,6,,,,52,75
360,note_on,160,0,5,,,,,,,,3,,,,80,92
360,note_on,160,0,13,,,,,,,,12,,,,52,75
360,note_on,160,0,11,,,,,,,,10,,,,76,75
360,note_on,160,0,6,,,,,,,,4,,,,76,92
360,note_on,0,0,1,,,,,,,,0,,,,68,60
360,note_on,160,0,7,,,,,,,,5,,,,71,75
440,note_off,80,0,10,,,,,,,,8,,,,80,64
440,note_off,80,0,5,,,,,,,,3,,,,80,64
440,note_off,80,0,11,,,,,,,,10,,,,76,64
440,note_off,80,0,6,,,,,,,,4,,,,76,64
440,note_off,80,0,7,,,,,,,,5,,,,71,64
440,note_off,80,0,12,,,,,,,,11,,,,71,64
450,note_on,450,0,14,,,,,,,,13,,,,40,75
530,note_off,80,0,14,,,,,,,,13,,,,40,64
600,note_on,160,0,7,,,,,,,,5,,,,71,75
600,note_on,160,0,11,,,,,,,,10,,,,76,75
600,note_on,160,0,10,,,,,,,,8,,,,80,92
600,note_on,160,0,6,,,,,,,,4,,,,76,92
600,note_on,160,0,12,,,,,,,,11,,,,71,75
600,note_on,160,0,5,,,,,,,,3,,,,80,92
680,note_off,80,0,6,,,,,,,,4,,,,76,64
680,note_off,80,0,10,,,,,,,,8,,,,80,64
680,note_off,80,0,12,,,,,,,,11,,,,71,64
680,note_off,80,0,11,,,,,,,,10,,,,76,64
680,note_off,80,0,7,,,,,,,,5,,,,71,64
680,note_off,80,0,5,,,,,,,,3,,,,80,64
690,note_on,690,0,15,,,,,,,,14,,,,40,75
690,note_on,160,0,14,,,,,,,,13,,,,40,75
760,note_off,400,0,9,,,,,,,,7,,,,40,64
760,note_off,0,0,1,,,,,,,,0,,,,64,64
760,note_off,0,0,2,,,,,,,,0,,,,40,64
760,note_off,0,0,2,,,,,,,,0,,,,47,64
760,note_off,0,0,1,,,,,,,,0,,,,68,64
760,note_off,400,0,1,,,,,,,,0,,,,76,64
760,note_off,0,0,1,,,,,,,,0,,,,71,64
760,note_off,400,0,8,,,,,,,,6,,,,52,64
760,note_off,400,0,13,,,,,,,,12,,,,52,64
760,note_off,400,0,2,,,,,,,,0,,,,52,64
840,note_on,0,0,2,,,,,,,,0,,,,47,60
840,note_on,0,0,2,,,,,,,,0,,,,52,60
840,note_on,160,0,10,,,,,,,,8,,,,80,92
840,note_on,80,0,8,,,,,,,,6,,,,52,75
840,note_on,160,0,12,,,,,,,,11,,,,71,75
840,note_on,80,0,13,,,,,,,,12,,,,52,75
840,note_on,80,0,2,,,,,,,,0,,,,40,60
840,note_on,160,0,11,,,,,,,,10,,,,76,75
840,note_on,160,0,6,,,,,,,,4,,,,76,92
840,note_on,160,0,5,,,,,,,,3,,,,80,92
840,note_on,0,0,1,,,,,,,,0,,,,76,60
840,note_on,0,0,1,,,,,,,,0,,,,71,60
840,note_on,0,0,1,,,,,,,,0,,,,68,60
840,note_on,80,0,1,,,,,,,,0,,,,64,60
840,note_on,80,0,9,,,,,,,,7,,,,40,75
840,note_on,160,0,7,,,,,,,,5,,,,71,75
870,note_off,30,0,5,,,,,,,,3,,,,80,64
870,note_off,30,0,11,,,,,,,,10,,,,76,64
870,note_on,0,0,11,,,,,,,,10,,,,78,75
870,note_on,0,0,5,,,,,,,,3,,,,81,92
870,note_off,30,0,6,,,,,,,,4,,,,76,64
870,note_on,0,0,6,,,,,,,,4,,,,78,92
870,note_off,30,0,10,,,,,,,,8,,,,80,64
870,note_on,0,0,10,,,,,,,,8,,,,81,92
900,note_off,30,0,6,,,,,,,,4,,,,78,64
900,note_on,0,0,6,,,,,,,,4,,,,76,92
900,note_on,0,0,11,,,,,,,,10,,,,76,75
900,note_off,30,0,11,,,,,,,,10,,,,78,64
900,note_off,30,0,10,,,,,,,,8,,,,81,64
900,note_off,30,0,5,,,,,,,,3,,,,81,64
900,note_on,0,0,5,,,,,,,,3,,,,80,92
900,note_on,0,0,10,,,,,,,,8,,,,80,92
930,note_on,0,0,6,,,,,,,,4,,,,78,92
930,note_on,0,0,5,,,,,,,,3,,,,81,92
930,note_off,30,0,6,,,,,,,,4,,,,76,64
930,note_off,30,0,10,,,,,,,,8,,,,80,64
930,note_on,0,0,10,,,,,,,,8,,,,81,92
930,note_off,30,0,11,,,,,,,,10,,,,76,64
930,note_off,30,0,5,,,,,,,,3,,,,80,64
930,note_on,0,0,11,,,,,,,,10,,,,78,75
960,note_off,30,0,11,,,,,,,,10,,,,78,64
960,note_on,0,0,11,,,,,,,,10,,,,76,75
960,note_off,30,0,5,,,,,,,,3,,,,81,64
960,note_on,0,0,5,,,,,,,,3,,,,80,92
960,note_on,0,0,10,,,,,,,,8,,,,80,92
960,note_on,0,0,6,,,,,,,,4,,,,76,92
960,note_off,30,0,6,,,,,,,,4,,,,78,64
960,note_off,30,0,10,,,,,,,,8,,,,81,64
990,note_on,0,0,5,,,,,,,,3,,,,81,92
990,note_off,30,0,10,,,,,,,,8,,,,80,64
990,note_on,0,0,10,,,,,,,,8,,,,81,92
990,note_off,30,0,6,,,,,,,,4,,,,76,64
990,note_on,0,0,6,,,,,,,,4,,,,78,92
990,note_off,30,0,5,,,,,,,,3,,,,80,64
990,note_off,30,0,11,,,,,,,,10,,,,76,64
990,note_on,0,0,11,,,,,,,,10,,,,78,75
1010,note_off,20,0,11,,,,,,,,10,,,,78,64
1010,note_off,20,0,6,,,,,,,,4,,,,78,64
1020,note_on,10,0,11,,,,,,,,10,,,,76,75
1020,note_off,30,0,10,,,,,,,,8,,,,81,64
1020,note_off,30,0,5,,,,,,,,3,,,,81,64
1020,note_on,0,0,5,,,,,,,,3,,,,80,92
1020,note_on,10,0,6,,,,,,,,4,,,,76,92
1020,note_on,0,0,10,,,,,,,,8,,,,80,92
1060,note_off,40,0,10,,,,,,,,8,,,,80,64
1060,note_off,40,0,6,,,,,,,,4,,,,76,64
1060,note_off,40,0,5,,,,,,,,3,,,,80,64
1060,note_off,40,0,11,,,,,,,,10,,,,76,64
1075,note_off,235,0,12,,,,,,,,11,,,,71,64
1075,note_off,235,0,7,,,,,,,,5,,,,71,64
1080,note_on,20,0,10,,,,,,,,8,,,,78,92
1080,note_on,5,0,7,,,,,,,,5,,,,71,75
1080,note_on,5,0,12,,,,,,,,11,,,,71,75
1080,note_on,20,0,5,,,,,,,,3,,,,78,92
1080,note_on,20,0,11,,,,,,,,10,,,,76,75
1080,note_on,20,0,6,,,,,,,,4,,,,76,92
1090,note_off,400,0,15,,,,,,,,14,,,,40,64
1090,note_off,400,0,14,,,,,,,,13,,,,40,64
1160,note_off,80,0,5,,,,,,,,3,,,,78,64
1160,note_off,80,0,10,,,,,,,,8,,,,78,64
1160,note_off,80,0,7,,,,,,,,5,,,,71,64
1160,note_off,80,0,11,,,,,,,,10,,,,76,64
1160,note_off,80,0,6,,,,,,,,4,,,,76,64
1160,note_off,80,0,12,,,,,,,,11,,,,71,64
1170,note_on,80,0,15,,,,,,,,14,,,,40,75
1170,note_on,80,0,14,,,,,,,,13,,,,40,75
1200,note_on,40,0,5,,,,,,,,3,,,,76,92
1200,note_on,40,0,10,,,,,,,,8,,,,76,92
1240,note_off,400,0,13,,,,,,,,12,,,,52,64
1240,note_off,0,0,1,,,,,,,,0,,,,71,64
1240,note_off,0,0,2,,,,,,,,0,,,,40,64
1240,note_off,0,0,1,,,,,,,,0,,,,64,64
1240,note_off,400,0,9,,,,,,,,7,,,,40,64
1240,note_off,400,0,2,,,,,,,,0,,,,52,64
1240,note_off,400,0,1,,,,,,,,0,,,,76,64
1240,note_off,0,0,2,,,,,,,,0,,,,47,64
1240,note_off,400,0,8,,,,,,,,6,,,,52,64
1240,note_off,0,0,1,,,,,,,,0,,,,68,64
1280,note_off,80,0,10,,,,,,,,8,,,,76,64
1280,note_off,80,0,5,,,,,,,,3,,,,76,64
1320,note_on,80,0,13,,,,,,,,12,,,,52,75
1320,note_on,160,0,6,,,,,,,,4,,,,80,92
1320,note_on,0,0,2,,,,,,,,0,,,,52,60
1320,note_on,0,0,2,,,,,,,,0,,,,47,60
1320,note_on,80,0,2,,,,,,,,0,,,,40,60
1320,note_on,160,0,12,,,,,,,,11,,,,64,75
1320,note_on,160,0,11,,,,,,,,10,,,,80,75
1320,note_on,80,0,1,,,,,,,,0,,,,64,60
1320,note_on,40,0,10,,,,,,,,8,,,,83,92
1320,note_on,0,0,1,,,,,,,,0,,,,68,60
1320,note_on,0,0,1,,,,,,,,0,,,,71,60
1320,note_on,80,0,8,,,,,,,,6,,,,52,75
1320,note_on,80,0,9,,,,,,,,7,,,,40,75
1320,note_on,160,0,7,,,,,,,,5,,,,64,75
1320,note_on,0,0,1,,,,,,,,0,,,,76,60
1320,note_on,40,0,5,,,,,,,,3,,,,83,92
1555,note_off,0,0,2,,,,,,,,0,,,,40,64
1555,note_off,0,0,1,,,,,,,,0,,,,68,64
1555,note_off,0,0,1,,,,,,,,0,,,,64,64
1555,note_off,235,0,1,,,,,,,,0,,,,76,64
1555,note_off,0,0,1,,,,,,,,0,,,,71,64
1555,note_off,235,0,2,,,,,,,,0,,,,52,64
1555,note_off,0,0,2,,,,,,,,0,,,,47,64
1560,note_on,5,0,1,,,,,,,,0,,,,68,75
1560,note_on,5,0,2,,,,,,,,0,,,,56,75
1570,note_off,400,0,14,,,,,,,,13,,,,40,64
1570,note_off,400,0,15,,,,,,,,14,,,,40,64
1640,note_off,80,0,1,,,,,,,,0,,,,68,64
1640,note_off,80,0,2,,,,,,,,0,,,,56,64
1650,note_on,80,0,14,,,,,,,,13,,,,40,75
1650,note_on,80,0,15,,,,,,,,14,,,,40,75
1680,note_on,40,0,1,,,,,,,,0,,,,69,75
1680,note_on,40,0,2,,,,,,,,0,,,,57,75
1720,note_off,400,0,13,,,,,,,,12,,,,52,64
1720,note_off,400,0,8,,,,,,,,6,,,,52,64
1720,note_off,400,0,9,,,,,,,,7,,,,40,64
1760,note_off,80,0,2,,,,,,,,0,,,,57,64
1760,note_off,80,0,1,,,,,,,,0,,,,69,64
1800,note_on,40,0,1,,,,,,,,0,,,,71,75
1800,note_on,80,0,8,,,,,,,,6,,,,52,75
1800,note_on,40,0,2,,,,,,,,0,,,,59,75
1800,note_on,80,0,13,,,,,,,,12,,,,52,75
1800,note_on,80,0,9,,,,,,,,7,,,,40,75
1960,note_off,640,0,10,,,,,,,,8,,,,83,64
1960,note_off,640,0,7,,,,,,,,5,,,,64,64
1960,note_off,640,0,6,,,,,,,,4,,,,80,64
1960,note_off,640,0,11,,,,,,,,10,,,,80,64
1960,note_off,640,0,12,,,,,,,,11,,,,64,64
1960,note_off,640,0,5,,,,,,,,3,,,,83,64
2040,note_on,80,0,7,,,,,,,,5,,,,68,75
2040,note_on,80,0,6,,,,,,,,4,,,,80,92
2040,note_on,80,0,12,,,,,,,,11,,,,68,75
2040,note_on,80,0,5,,,,,,,,3,,,,83,92
2040,note_on,80,0,11,,,,,,,,10,,,,80,75
2040,note_on,80,0,10,,,,,,,,8,,,,83,92
2050,note_off,400,0,15,,,,,,,,14,,,,40,64
2050,note_off,400,0,14,,,,,,,,13,,,,40,64
2120,note_off,80,0,7,,,,,,,,5,,,,68,64
2120,note_off,80,0,11,,,,,,,,10,,,,80,64
2120,note_off,80,0,10,,,,,,,,8,,,,83,64
2120,note_off,80,0,5,,,,,,,,3,,,,83,64
2120,note_off,80,0,12,,,,,,,,11,,,,68,64
2120,note_off,80,0,6,,,,,,,,4,,,,80,64
2130,note_on,80,0,14,,,,,,,,13,,,,40,75
2160,note_on,40,0,12,,,,,,,,11,,,,69,75
2160,note_on,40,0,7,,,,,,,,5,,,,69,75
2160,note_on,40,0,6,,,,,,,,4,,,,78,92
2160,note_on,40,0,5,,,,,,,,3,,,,81,92
2160,note_on,40,0,10,,,,,,,,8,,,,81,92
2160,note_on,40,0,11,,,,,,,,10,,,,78,75
2200,note_off,400,0,9,,,,,,,,7,,,,40,64
2200,note_off,400,0,8,,,,,,,,6,,,,52,64
2200,note_off,400,0,13,,,,,,,,12,,,,52,64
2200,note_off,400,0,2,,,,,,,,0,,,,59,64
2200,note_off,400,0,1,,,,,,,,0,,,,71,64
2240,note_off,80,0,10,,,,,,,,8,,,,81,64
2240,note_off,80,0,12,,,,,,,,11,,,,69,64
2240,note_off,80,0,11,,,,,,,,10,,,,78,64
2240,note_off,80,0,6,,,,,,,,4,,,,78,64
2240,note_off,80,0,7,,,,,,,,5,,,,69,64
2240,note_off,80,0,5,,,,,,,,3,,,,81,64
2280,note_on,0,0,1,,,,,,,,0,,,,76,60
2280,note_on,40,0,11,,,,,,,,10,,,,76,75
2280,note_on,40,0,6,,,,,,,,4,,,,76,92
2280,note_on,80,0,9,,,,,,,,7,,,,40,75
2280,note_on,40,0,5,,,,,,,,3,,,,80,92
2280,note_on,0,0,1,,,,,,,,0,,,,71,60
2280,note_on,0,0,1,,,,,,,,0,,,,68,60
2280,note_on,40,0,10,,,,,,,,8,,,,80,92
2280,note_on,0,0,2,,,,,,,,0,,,,47,60
2280,note_on,80,0,2,,,,,,,,0,,,,40,60
2280,note_on,80,0,1,,,,,,,,0,,,,64,60
2280,note_on,0,0,2,,,,,,,,0,,,,52,60
2280,note_on,80,0,13,,,,,,,,12,,,,52,75
2280,note_on,80,0,8,,,,,,,,6,,,,52,75
2280,note_on,40,0,12,,,,,,,,11,,,,71,75
2280,note_on,40,0,7,,,,,,,,5,,,,71,75
2360,note_off,80,0,10,,,,,,,,8,,,,80,64
2360,note_off,80,0,11,,,,,,,,10,,,,76,64
2360,note_off,80,0,12,,,,,,,,11,,,,71,64
2360,note_off,80,0,6,,,,,,,,4,,,,76,64
2360,note_off,80,0,5,,,,,,,,3,,,,80,64
2360,note_off,80,0,7,,,,,,,,5,,,,71,64
2520,note_on,160,0,6,,,,,,,,4,,,,76,92
2520,note_on,160,0,7,,,,,,,,5,,,,71,75
2520,note_on,160,0,5,,,,,,,,3,,,,80,92
2520,note_on,160,0,12,,,,,,,,11,,,,71,75
2520,note_on,160,0,10,,,,,,,,8,,,,80,92
2520,note_on,160,0,11,,,,,,,,10,,,,76,75
2530,note_off,400,0,14,,,,,,,,13,,,,40,64
2600,note_off,80,0,10,,,,,,,,8,,,,80,64
2600,note_off,80,0,11,,,,,,,,10,,,,76,64
2600,note_off,80,0,5,,,,,,,,3,,,,80,64
2600,note_off,80,0,12,,,,,,,,11,,,,71,64
2600,note_off,80,0,6,,,,,,,,4,,,,76,64
2600,note_off,80,0,7,,,,,,,,5,,,,71,64
2610,note_on,80,0,14,,,,,,,,13,,,,40,75
2610,note_on,560,0,15,,,,,,,,14,,,,40,75
2680,note_off,400,0,13,,,,,,,,12,,,,52,64
2680,note_off,400,0,9,,,,,,,,7,,,,40,64
2680,note_off,0,0,1,,,,,,,,0,,,,64,64
2680,note_off,0,0,2,,,,,,,,0,,,,40,64
2680,note_off,0,0,2,,,,,,,,0,,,,47,64
2680,note_off,400,0,2,,,,,,,,0,,,,52,64
2680,note_off,400,0,8,,,,,,,,6,,,,52,64
2680,note_off,400,0,1,,,,,,,,0,,,,76,64
2680,note_off,0,0,1,,,,,,,,0,,,,71,64
2680,note_off,0,0,1,,,,,,,,0,,,,68,64
2760,note_on,160,0,6,,,,,,,,4,,,,76,92
2760,note_on,160,0,10,,,,,,,,8,,,,80,92
2760,note_on,80,0,2,,,,,,,,0,,,,40,60
2760,note_on,0,0,2,,,,,,,,0,,,,47,60
2760,note_on,0,0,2,,,,,,,,0,,,,52,60
2760,note_on,80,0,8,,,,,,,,6,,,,52,75
2760,note_on,80,0,13,,,,,,,,12,,,,52,75
2760,note_on,80,0,9,,,,,,,,7,,,,40,75
2760,note_on,160,0,7,,,,,,,,5,,,,71,75
2760,note_on,160,0,5,,,,,,,,3,,,,80,92
2760,note_on,80,0,1,,,,,,,,0,,,,64,60
2760,note_on,160,0,12,,,,,,,,11,,,,71,75
2760,note_on,160,0,11,,,,,,,,10,,,,76,75
2760,note_on,0,0,1,,,,,,,,0,,,,76,60
2760,note_on,0,0,1,,,,,,,,0,,,,71,60
2760,note_on,0,0,1,,,,,,,,0,,,,68,60
2790,note_on,0,0,10,,,,,,,,8,,,,81,92
2790,note_off,30,0,10,,,,,,,,8,,,,80,64
2790,note_on,0,0,5,,,,,,,,3,,,,81,92
2790,note_off,30,0,11,,,,,,,,10,,,,76,64
2790,note_on,0,0,11,,,,,,,,10,,,,78,75
2790,note_on,0,0,6,,,,,,,,4,,,,78,92
2790,note_off,30,0,6,,,,,,,,4,,,,76,64
2790,note_off,30,0,5,,,,,,,,3,,,,80,64
2820,note_on,0,0,6,,,,,,,,4,,,,76,92
2820,note_off,30,0,11,,,,,,,,10,,,,78,64
2820,note_on,0,0,11,,,,,,,,10,,,,76,75
2820,note_off,30,0,6,,,,,,,,4,,,,78,64
2820,note_off,30,0,5,,,,,,,,3,,,,81,64
2820,note_on,0,0,5,,,,,,,,3,,,,80,92
2820,note_off,30,0,10,,,,,,,,8,,,,81,64
2820,note_on,0,0,10,,,,,,,,8,,,,80,92
2850,note_off,30,0,10,,,,,,,,8,,,,80,64
2850,note_on,0,0,6,,,,,,,,4,,,,78,92
2850,note_off,30,0,11,,,,,,,,10,,,,76,64
2850,note_off,30,0,6,,,,,,,,4,,,,76,64
2850,note_on,0,0,10,,,,,,,,8,,,,81,92
2850,note_on,0,0,11,,,,,,,,10,,,,78,75
2850,note_on,0,0,5,,,,,,,,3,,,,81,92
2850,note_off,30,0,5,,,,,,,,3,,,,80,64
2880,note_off,30,0,6,,,,,,,,4,,,,78,64
2880,note_on,0,0,11,,,,,,,,10,,,,76,75
2880,note_off,30,0,11,,,,,,,,10,,,,78,64
2880,note_on,0,0,6,,,,,,,,4,,,,76,92
2880,note_on,0,0,5,,,,,,,,3,,,,80,92
2880,note_off,30,0,5,,,,,,,,3,,,,81,64
2880,note_off,30,0,10,,,,,,,,8,,,,81,64
2880,note_on,0,0,10,,,,,,,,8,,,,80,92
2910,note_on,0,0,6,,,,,,,,4,,,,78,92
2910,note_on,0,0,11,,,,,,,,10,,,,78,75
2910,note_off,30,0,11,,,,,,,,10,,,,76,64
2910,note_on,0,0,5,,,,,,,,3,,,,81,92
2910,note_off,30,0,5,,,,,,,,3,,,,80,64
2910,note_off,30,0,6,,,,,,,,4,,,,76,64
2910,note_off,30,0,10,,,,,,,,8,,,,80,64
2910,note_on,0,0,10,,,,,,,,8,,,,81,92
2930,note_off,20,0,6,,,,,,,,4,,,,78,64
2930,note_off,20,0,11,,,,,,,,10,,,,78,64
2940,note_on,10,0,6,,,,,,,,4,,,,76,92
2940,note_on,10,0,11,,,,,,,,10,,,,76,75
2940,note_off,30,0,5,,,,,,,,3,,,,81,64
2940,note_on,0,0,10,,,,,,,,8,,,,80,92
2940,note_off,30,0,10,,,,,,,,8,,,,81,64
2940,note_on,0,0,5,,,,,,,,3,,,,80,92
2980,note_off,40,0,10,,,,,,,,8,,,,80,64
2980,note_off,40,0,5,,,,,,,,3,,,,80,64
2980,note_off,40,0,11,,,,,,,,10,,,,76,64
2980,note_off,40,0,6,,,,,,,,4,,,,76,64
2995,note_off,235,0,12,,,,,,,,11,,,,71,64
2995,note_off,235,0,7,,,,,,,,5,,,,71,64
3000,note_on,20,0,5,,,,,,,,3,,,,78,92
3000,note_on,20,0,6,,,,,,,,4,,,,76,92
3000,note_on,20,0,10,,,,,,,,8,,,,78,92
3000,note_on,5,0,12,,,,,,,,11,,,,71,75
3000,note_on,20,0,11,,,,,,,,10,,,,76,75
3000,note_on,5,0,7,,,,,,,,5,,,,71,75
3010,note_off,400,0,15,,,,,,,,14,,,,40,64
3010,note_off,400,0,14,,,,,,,,13,,,,40,64
3080,note_off,80,0,6,,,,,,,,4,,,,76,64
3080,note_off,80,0,12,,,,,,,,11,,,,71,64
3080,note_off,80,0,5,,,,,,,,3,,,,78,64
3080,note_off,80,0,7,,,,,,,,5,,,,71,64
3080,note_off,80,0,10,,,,,,,,8,,,,78,64
3080,note_off,80,0,11,,,,,,,,10,,,,76,64
3090,note_on,80,0,15,,,,,,,,14,,,,40,75
3090,note_on,80,0,14,,,,,,,,13,,,,40,75
3120,note_on,40,0,5,,,,,,,,3,,,,76,92
3120,note_on,40,0,10,,,,,,,,8,,,,76,92
3160,note_off,400,0,13,,,,,,,,12,,,,52,64
3160,note_off,400,0,8,,,,,,,,6,,,,52,64
3160,note_off,400,0,2,,,,,,,,0,,,,52,64
3160,note_off,400,0,9,,,,,,,,7,,,,40,64
3160,note_off,0,0,2,,,,,,,,0,,,,47,64
3160,note_off,0,0,2,,,,,,,,0,,,,40,64
3160,note_off,0,0,1,,,,,,,,0,,,,71,64
3160,note_off,0,0,1,,,,,,,,0,,,,68,64
3160,note_off,400,0,1,,,,,,,,0,,,,76,64
3160,note_off,0,0,1,,,,,,,,0,,,,64,64
3200,note_off,80,0,5,,,,,,,,3,,,,76,64
3200,note_off,80,0,10,,,,,,,,8,,,,76,64
3240,note_on,80,0,1,,,,,,,,0,,,,64,60
3240,note_on,80,0,8,,,,,,,,6,,,,52,75
3240,note_on,0,0,1,,,,,,,,0,,,,68,60
3240,note_on,40,0,10,,,,,,,,8,,,,83,92
3240,note_on,0,0,1,,,,,,,,0,,,,71,60
3240,note_on,80,0,13,,,,,,,,12,,,,52,75
3240,note_on,0,0,1,,,,,,,,0,,,,76,60
3240,note_on,160,0,11,,,,,,,,10,,,,80,75
3240,note_on,40,0,5,,,,,,,,3,,,,83,92
3240,note_on,160,0,7,,,,,,,,5,,,,64,75
3240,note_on,160,0,6,,,,,,,,4,,,,80,92
3240,note_on,80,0,9,,,,,,,,7,,,,40,75
3240,note_on,80,0,2,,,,,,,,0,,,,40,60
3240,note_on,0,0,2,,,,,,,,0,,,,47,60
3240,note_on,160,0,12,,,,,,,,11,,,,64,75
3240,note_on,0,0,2,,,,,,,,0,,,,52,60
3475,note_off,0,0,1,,,,,,,,0,,,,71,64
3475,note_off,235,0,2,,,,,,,,0,,,,52,64
3475,note_off,0,0,2,,,,,,,,0,,,,47,64
3475,note_off,0,0,2,,,,,,,,0,,,,40,64
3475,note_off,235,0,1,,,,,,,,0,,,,76,64
3475,note_off,0,0,1,,,,,,,,0,,,,68,64
3475,note_off,0,0,1,,,,,,,,0,,,,64,64
3480,note_on,5,0,2,,,,,,,,0,,,,59,75
3480,note_on,5,0,1,,,,,,,,0,,,,71,75
3490,note_off,400,0,15,,,,,,,,14,,,,40,64
3490,note_off,400,0,14,,,,,,,,13,,,,40,64
3560,note_off,80,0,1,,,,,,,,0,,,,71,64
3560,note_off,80,0,2,,,,,,,,0,,,,59,64
3570,note_on,80,0,14,,,,,,,,13,,,,40,75
3570,note_on,80,0,15,,,,,,,,14,,,,40,75
3600,note_on,40,0,1,,,,,,,,0,,,,69,75
3600,note_on,40,0,2,,,,,,,,0,,,,57,75
3640,note_off,400,0,9,,,,,,,,7,,,,40,64
3640,note_off,400,0,13,,,,,,,,12,,,,52,64
3640,note_off,400,0,8,,,,,,,,6,,,,52,64
3680,note_off,80,0,2,,,,,,,,0,,,,57,64
3680,note_off,80,0,1,,,,,,,,0,,,,69,64
3720,note_on,80,0,9,,,,,,,,7,,,,40,75
3720,note_on,40,0,1,,,,,,,,0,,,,68,75
3720,note_on,80,0,8,,,,,,,,6,,,,52,75
3720,note_on,80,0,13,,,,,,,,12,,,,52,75
3720,note_on,40,0,2,,,,,,,,0,,,,56,75
3880,note_off,640,0,11,,,,,,,,10,,,,80,64
3880,note_off,640,0,10,,,,,,,,8,,,,83,64
3880,note_off,640,0,5,,,,,,,,3,,,,83,64
3880,note_off,640,0,6,,,,,,,,4,,,,80,64
3880,note_off,640,0,12,,,,,,,,11,,,,64,64
3880,note_off,640,0,7,,,,,,,,5,,,,64,64
3960,note_on,80,0,6,,,,,,,,4,,,,80,92
3960,note_on,80,0,5,,,,,,,,3,,,,83,92
3960,note_on,80,0,10,,,,,,,,8,,,,83,92
3960,note_on,80,0,11,,,,,,,,10,,,,80,75
3960,note_on,80,0,7,,,,,,,,5,,,,68,75
3960,note_on,80,0,12,,,,,,,,11,,,,68,75
3970,note_off,400,0,15,,,,,,,,14,,,,40,64
3970,note_off,400,0,14,,,,,,,,13,,,,40,64
4040,note_off,80,0,10,,,,,,,,8,,,,83,64
4040,note_off,80,0,7,,,,,,,,5,,,,68,64
4040,note_off,80,0,12,,,,,,,,11,,,,68,64
4040,note_off,80,0,6,,,,,,,,4,,,,80,64
4040,note_off,80,0,11,,,,,,,,10,,,,80,64
4040,note_off,80,0,5,,,,,,,,3,,,,83,64
4050,note_on,80,0,14,,,,,,,,13,,,,40,75
4080,note_on,40,0,5,,,,,,,,3,,,,81,92
4080,note_on,40,0,12,,,,,,,,11,,,,69,75
4080,note_on,40,0,11,,,,,,,,10,,,,78,75
4080,note_on,40,0,6,,,,,,,,4,,,,78,92
4080,note_on,40,0,7,,,,,,,,5,,,,69,75
4080,note_on,40,0,10,,,,,,,,8,,,,81,92
4120,note_off,400,0,8,,,,,,,,6,,,,52,64
4120,note_off,400,0,9,,,,,,,,7,,,,40,64
4120,note_off,400,0,2,,,,,,,,0,,,,56,64
4120,note_off,400,0,13,,,,,,,,12,,,,52,64
4120,note_off,400,0,1,,,,,,,,0,,,,68,64
4160,note_off,80,0,5,,,,,,,,3,,,,81,64
4160,note_off,80,0,11,,,,,,,,10,,,,78,64
4160,note_off,80,0,6,,,,,,,,4,,,,78,64
4160,note_off,80,0,7,,,,,,,,5,,,,69,64
4160,note_off,80,0,12,,,,,,,,11,,,,69,64
4160,note_off,80,0,10,,,,,,,,8,,,,81,64
4200,note_on,0,0,1,,,,,,,,0,,,,76,60
4200,note_on,0,0,2,,,,,,,,0,,,,52,60
4200,note_on,40,0,12,,,,,,,,11,,,,71,75
4200,note_on,80,0,9,,,,,,,,7,,,,40,75
4200,note_on,80,0,8,,,,,,,,6,,,,52,75
4200,note_on,40,0,5,,,,,,,,3,,,,80,92
4200,note_on,40,0,6,,,,,,,,4,,,,76,92
4200,note_on,40,0,11,,,,,,,,10,,,,76,75
4200,note_on,40,0,10,,,,,,,,8,,,,80,92
4200,note_on,80,0,1,,,,,,,,0,,,,64,60
4200,note_on,0,0,1,,,,,,,,0,,,,68,60
4200,note_on,0,0,1,,,,,,,,0,,,,71,60
4200,note_on,80,0,13,,,,,,,,12,,,,52,75
4200,note_on,40,0,7,,,,,,,,5,,,,71,75
4200,note_on,0,0,2,,,,,,,,0,,,,47,60
4200,note_on,80,0,2,,,,,,,,0,,,,40,60
4230,note_on,0,0,5,,,,,,,,3,,,,81,92
4230,note_off,30,0,5,,,,,,,,3,,,,80,64
4230,note_off,30,0,10,,,,,,,,8,,,,80,64
4230,note_off,30,0,11,,,,,,,,10,,,,76,64
4230,note_on,0,0,10,,,,,,,,8,,,,81,92
4230,note_off,30,0,6,,,,,,,,4,,,,76,64
4230,note_on,0,0,11,,,,,,,,10,,,,78,75
4230,note_on,0,0,6,,,,,,,,4,,,,78,92
4260,note_off,30,0,11,,,,,,,,10,,,,78,64
4260,note_on,0,0,11,,,,,,,,10,,,,76,75
4260,note_on,0,0,10,,,,,,,,8,,,,80,92
4260,note_off,30,0,10,,,,,,,,8,,,,81,64
4260,note_off,30,0,6,,,,,,,,4,,,,78,64
4260,note_on,0,0,6,,,,,,,,4,,,,76,92
4260,note_off,30,0,5,,,,,,,,3,,,,81,64
4260,note_on,0,0,5,,,,,,,,3,,,,80,92
4290,note_off,30,0,5,,,,,,,,3,,,,80,64
4290,note_off,30,0,11,,,,,,,,10,,,,76,64
4290,note_off,30,0,6,,,,,,,,4,,,,76,64
4290,note_on,0,0,6,,,,,,,,4,,,,78,92
4290,note_on,0,0,10,,,,,,,,8,,,,81,92
4290,note_on,0,0,5,,,,,,,,3,,,,81,92
4290,note_off,30,0,10,,,,,,,,8,,,,80,64
4290,note_on,0,0,11,,,,,,,,10,,,,78,75
4320,note_off,30,0,6,,,,,,,,4,,,,78,64
4320,note_on,0,0,10,,,,,,,,8,,,,80,92
4320,note_on,0,0,11,,,,,,,,10,,,,76,75
4320,note_off,30,0,10,,,,,,,,8,,,,81,64
4320,note_on,0,0,6,,,,,,,,4,,,,76,92
4320,note_off,30,0,11,,,,,,,,10,,,,78,64
4320,note_off,30,0,5,,,,,,,,3,,,,81,64
4320,note_on,0,0,5,,,,,,,,3,,,,80,92
4400,note_off,80,0,5,,,,,,,,3,,,,80,64
4400,note_off,80,0,6,,,,,,,,4,,,,76,64
4400,note_off,80,0,10,,,,,,,,8,,,,80,64
4400,note_off,80,0,11,,,,,,,,10,,,,76,64
4435,note_off,235,0,13,,,,,,,,12,,,,52,64
4435,note_off,235,0,8,,,,,,,,6,,,,52,64
4435,note_off,235,0,7,,,,,,,,5,,,,71,64
4435,note_off,235,0,9,,,,,,,,7,,,,40,64
4435,note_off,235,0,12,,,,,,,,11,,,,71,64
4440,note_on,5,0,9,,,,,,,,7,,,,40,75
4440,note_on,40,0,10,,,,,,,,8,,,,81,92
4440,note_on,5,0,13,,,,,,,,12,,,,52,75
4440,note_on,5,0,7,,,,,,,,5,,,,71,75
4440,note_on,5,0,12,,,,,,,,11,,,,71,75
4440,note_on,40,0,5,,,,,,,,3,,,,81,92
4440,note_on,40,0,6,,,,,,,,4,,,,78,92
4440,note_on,40,0,11,,,,,,,,10,,,,78,75
4440,note_on,5,0,8,,,,,,,,6,,,,52,75
4450,note_off,400,0,14,,,,,,,,13,,,,40,64
4520,note_off,80,0,11,,,,,,,,10,,,,78,64
4520,note_off,80,0,10,,,,,,,,8,,,,81,64
4520,note_off,80,0,9,,,,,,,,7,,,,40,64
4520,note_off,80,0,13,,,,,,,,12,,,,52,64
4520,note_off,80,0,5,,,,,,,,3,,,,81,64
4520,note_off,80,0,8,,,,,,,,6,,,,52,64
4520,note_off,80,0,6,,,,,,,,4,,,,78,64
4520,note_off,80,0,7,,,,,,,,5,,,,71,64
4520,note_off,80,0,12,,,,,,,,11,,,,71,64
4530,note_on,560,0,15,,,,,,,,14,,,,40,75
4530,note_on,80,0,14,,,,,,,,13,,,,40,75
4560,note_on,40,0,5,,,,,,,,3,,,,83,92
4560,note_on,40,0,11,,,,,,,,10,,,,80,75
4560,note_on,40,0,6,,,,,,,,4,,,,80,92
4560,note_on,40,0,10,,,,,,,,8,,,,83,92
4600,note_off,0,0,2,,,,,,,,0,,,,47,64
4600,note_off,0,0,1,,,,,,,,0,,,,64,64
4600,note_off,0,0,2,,,,,,,,0,,,,40,64
4600,note_off,0,0,1,,,,,,,,0,,,,68,64
4600,note_off,0,0,1,,,,,,,,0,,,,71,64
4600,note_off,400,0,2,,,,,,,,0,,,,52,64
4600,note_off,400,0,1,,,,,,,,0,,,,76,64
4640,note_off,80,0,5,,,,,,,,3,,,,83,64
4640,note_off,80,0,6,,,,,,,,4,,,,80,64
4640,note_off,80,0,10,,,,,,,,8,,,,83,64
4640,note_off,80,0,11,,,,,,,,10,,,,80,64
4680,note_on,40,0,11,,,,,,,,10,,,,78,75
4680,note_on,160,0,7,,,,,,,,5,,,,73,75
4680,note_on,160,0,12,,,,,,,,11,,,,73,75
4680,note_on,160,0,9,,,,,,,,7,,,,33,75
4680,note_on,40,0,5,,,,,,,,3,,,,81,92
4680,note_on,40,0,10,,,,,,,,8,,,,81,92
4680,note_on,80,0,1,,,,,,,,0,,,,69,60
4680,note_on,40,0,6,,,,,,,,4,,,,78,92
4680,note_on,0,0,2,,,,,,,,0,,,,57,60
4680,note_on,80,0,2,,,,,,,,0,,,,45,60
4680,note_on,0,0,1,,,,,,,,0,,,,78,60
4680,note_on,160,0,13,,,,,,,,12,,,,45,75
4680,note_on,160,0,8,,,,,,,,6,,,,45,75
4760,note_off,80,0,7,,,,,,,,5,,,,73,64
4760,note_off,80,0,12,,,,,,,,11,,,,73,64
4760,note_off,80,0,6,,,,,,,,4,,,,78,64
4760,note_off,80,0,9,,,,,,,,7,,,,33,64
4760,note_off,80,0,8,,,,,,,,6,,,,45,64
4760,note_off,80,0,13,,,,,,,,12,,,,45,64
4760,note_off,80,0,2,,,,,,,,0,,,,57,64
4760,note_off,80,0,11,,,,,,,,10,,,,78,64
4760,note_off,80,0,5,,,,,,,,3,,,,81,64
4760,note_off,80,0,1,,,,,,,,0,,,,78,64
4760,note_off,0,0,1,,,,,,,,0,,,,69,64
4760,note_off,80,0,10,,,,,,,,8,,,,81,64
4760,note_off,0,0,2,,,,,,,,0,,,,45,64
4765,note_off,235,0,14,,,,,,,,13,,,,40,64
4770,note_on,5,0,14,,,,,,,,13,,,,40,75
4850,note_off,80,0,14,,,,,,,,13,,,,40,64
4920,note_on,0,0,2,,,,,,,,0,,,,56,56
4920,note_on,160,0,2,,,,,,,,0,,,,46,56
4920,note_on,160,0,5,,,,,,,,3,,,,80,83
4920,note_on,160,0,6,,,,,,,,4,,,,76,83
4920,note_on,160,0,13,,,,,,,,12,,,,46,67
4920,note_on,160,0,9,,,,,,,,7,,,,34,67
4920,note_on,160,0,10,,,,,,,,8,,,,80,80
4920,note_on,160,0,8,,,,,,,,6,,,,46,67
4920,note_on,160,0,11,,,,,,,,10,,,,76,67
4920,note_on,160,0,1,,,,,,,,0,,,,68,56
4920,note_on,0,0,1,,,,,,,,0,,,,76,56
4920,note_on,160,0,12,,,,,,,,11,,,,73,67
4920,note_on,160,0,7,,,,,,,,5,,,,73,67
4930,note_off,400,0,15,,,,,,,,14,,,,40,64
5000,note_off,80,0,1,,,,,,,,0,,,,76,64
5000,note_off,0,0,1,,,,,,,,0,,,,68,64
5000,note_off,80,0,13,,,,,,,,12,,,,46,64
5000,note_off,80,0,9,,,,,,,,7,,,,34,64
5000,note_off,80,0,10,,,,,,,,8,,,,80,64
5000,note_off,0,0,2,,,,,,,,0,,,,46,64
5000,note_off,80,0,5,,,,,,,,3,,,,80,64
5000,note_off,80,0,7,,,,,,,,5,,,,73,64
5000,note_off,80,0,6,,,,,,,,4,,,,76,64
5000,note_off,80,0,8,,,,,,,,6,,,,46,64
5000,note_off,80,0,12,,,,,,,,11,,,,73,64
5000,note_off,80,0,2,,,,,,,,0,,,,56,64
5000,note_off,80,0,11,,,,,,,,10,,,,76,64
5010,note_on,160,0,14,,,,,,,,13,,,,33,75
5010,note_on,80,0,15,,,,,,,,14,,,,33,75
5090,note_off,80,0,14,,,,,,,,13,,,,33,64
5090,note_off,80,0,15,,,,,,,,14,,,,33,64
5160,note_on,160,0,7,,,,,,,,5,,,,66,59
5160,note_on,160,0,8,,,,,,,,6,,,,47,59
5160,note_on,0,0,1,,,,,,,,0,,,,75,51
5160,note_on,160,0,1,,,,,,,,0,,,,66,51
5160,note_on,160,0,2,,,,,,,,0,,,,47,51
5160,note_on,160,0,6,,,,,,,,4,,,,75,74
5160,note_on,160,0,10,,,,,,,,8,,,,78,68
5160,note_on,160,0,9,,,,,,,,7,,,,35,59
5160,note_on,0,0,2,,,,,,,,0,,,,54,51
5160,note_on,160,0,13,,,,,,,,12,,,,47,59
5160,note_on,160,0,11,,,,,,,,10,,,,75,59
5160,note_on,160,0,5,,,,,,,,3,,,,78,74
5160,note_on,160,0,12,,,,,,,,11,,,,66,59
5250,note_on,160,0,15,,,,,,,,14,,,,34,68
5250,note_on,160,0,14,,,,,,,,13,,,,34,67
5330,note_off,80,0,14,,,,,,,,13,,,,34,64
5330,note_off,80,0,15,,,,,,,,14,,,,34,64
5400,note_off,240,0,10,,,,,,,,8,,,,78,64
5400,note_on,0,0,10,,,,,,,,8,,,,75,56
5400,note_on,0,0,5,,,,,,,,3,,,,75,65
5400,note_off,240,0,5,,,,,,,,3,,,,78,64
5490,note_on,160,0,15,,,,,,,,14,,,,35,61
5490,note_on,160,0,14,,,,,,,,13,,,,35,59
5560,note_off,400,0,13,,,,,,,,12,,,,47,64
5560,note_off,400,0,7,,,,,,,,5,,,,66,64
5560,note_off,0,0,1,,,,,,,,0,,,,66,64
5560,note_off,400,0,1,,,,,,,,0,,,,75,64
5560,note_off,400,0,6,,,,,,,,4,,,,75,64
5560,note_off,0,0,2,,,,,,,,0,,,,47,64
5560,note_off,400,0,11,,,,,,,,10,,,,75,64
5560,note_off,400,0,9,,,,,,,,7,,,,35,64
5560,note_off,400,0,8,,,,,,,,6,,,,47,64
5560,note_off,400,0,12,,,,,,,,11,,,,66,64
5560,note_off,400,0,2,,,,,,,,0,,,,54,64
5640,note_off,240,0,5,,,,,,,,3,,,,75,64
5640,note_on,0,0,5,,,,,,,,3,,,,71,56
5640,note_off,240,0,10,,,,,,,,8,,,,75,64
5640,note_on,0,0,10,,,,,,,,8,,,,71,44
5720,note_off,80,0,5,,,,,,,,3,,,,71,64
5720,note_off,80,0,10,,,,,,,,8,,,,71,64
5890,note_off,400,0,14,,,,,,,,13,,,,35,64
5890,note_off,400,0,15,,,,,,,,14,,,,35,64
5910,note_on,350,0,7,,,,,,,,5,,,,68,30
5910,note_on,350,0,12,,,,,,,,11,,,,68,30
5910,note_on,350,0,11,,,,,,,,10,,,,73,30
5910,note_on,190,0,5,,,,,,,,3,,,,76,45
5910,note_on,190,0,10,,,,,,,,8,,,,76,30
5910,note_on,350,0,8,,,,,,,,6,,,,52,30
5910,note_on,350,0,13,,,,,,,,12,,,,52,30
5910,note_on,350,0,9,,,,,,,,7,,,,40,30
5910,note_on,350,0,6,,,,,,,,4,,,,71,45
5990,note_off,80,0,13,,,,,,,,12,,,,52,64
5990,note_off,80,0,8,,,,,,,,6,,,,52,64
5990,note_off,80,0,10,,,,,,,,8,,,,76,64
5990,note_off,80,0,7,,,,,,,,5,,,,68,64
5990,note_off,80,0,5,,,,,,,,3,,,,76,64
5990,note_off,80,0,12,,,,,,,,11,,,,68,64
5990,note_off,80,0,6,,,,,,,,4,,,,71,64
5990,note_off,80,0,9,,,,,,,,7,,,,40,64
5990,note_off,80,0,11,,,,,,,,10,,,,73,64
6150,note_on,160,0,9,,,,,,,,7,,,,40,30
6150,note_on,160,0,7,,,,,,,,5,,,,71,30
6150,note_on,160,0,12,,,,,,,,11,,,,71,30
6150,note_on,160,0,13,,,,,,,,12,,,,52,30
6150,note_on,0,0,1,,,,,,,,0,,,,76,30
6150,note_on,160,0,8,,,,,,,,6,,,,52,30
6150,note_on,0,0,1,,,,,,,,0,,,,71,30
6150,note_on,0,0,1,,,,,,,,0,,,,68,30
6150,note_on,590,0,2,,,,,,,,0,,,,40,30
6150,note_on,0,0,2,,,,,,,,0,,,,52,30
6150,note_on,590,0,1,,,,,,,,0,,,,64,30
6150,note_on,160,0,10,,,,,,,,8,,,,80,30
6150,note_on,0,0,2,,,,,,,,0,,,,47,30
6150,note_on,160,0,6,,,,,,,,4,,,,76,45
6150,note_on,160,0,11,,,,,,,,10,,,,76,30
6150,note_on,160,0,5,,,,,,,,3,,,,80,45
6230,note_off,80,0,11,,,,,,,,10,,,,76,64
6230,note_off,80,0,12,,,,,,,,11,,,,71,64
6230,note_off,80,0,5,,,,,,,,3,,,,80,64
6230,note_off,80,0,7,,,,,,,,5,,,,71,64
6230,note_off,80,0,10,,,,,,,,8,,,,80,64
6230,note_off,80,0,6,,,,,,,,4,,,,76,64
6240,note_on,350,0,14,,,,,,,,13,,,,40,30
6320,note_off,80,0,14,,,,,,,,13,,,,40,64
6390,note_on,160,0,12,,,,,,,,11,,,,71,30
6390,note_on,160,0,7,,,,,,,,5,,,,71,30
6390,note_on,160,0,5,,,,,,,,3,,,,80,45
6390,note_on,160,0,10,,,,,,,,8,,,,80,30
6390,note_on,160,0,6,,,,,,,,4,,,,76,45
6390,note_on,160,0,11,,,,,,,,10,,,,76,30
6470,note_off,80,0,6,,,,,,,,4,,,,76,64
6470,note_off,80,0,10,,,,,,,,8,,,,80,64
6470,note_off,80,0,5,,,,,,,,3,,,,80,64
6470,note_off,80,0,12,,,,,,,,11,,,,71,64
6470,note_off,80,0,7,,,,,,,,5,,,,71,64
6470,note_off,80,0,11,,,,,,,,10,,,,76,64
6480,note_on,590,0,15,,,,,,,,14,,,,40,30
6480,note_on,160,0,14,,,,,,,,13,,,,40,30
6550,note_off,0,0,1,,,,,,,,0,,,,64,64
6550,note_off,0,0,1,,,,,,,,0,,,,68,64
6550,note_off,400,0,13,,,,,,,,12,,,,52,64
6550,note_off,0,0,2,,,,,,,,0,,,,40,64
6550,note_off,0,0,2,,,,,,,,0,,,,47,64
6550,note_off,0,0,1,,,,,,,,0,,,,71,64
6550,note_off,400,0,1,,,,,,,,0,,,,76,64
6550,note_off,400,0,2,,,,,,,,0,,,,52,64
6550,note_off,400,0,9,,,,,,,,7,,,,40,64
6550,note_off,400,0,8,,,,,,,,6,,,,52,64
6630,note_on,80,0,8,,,,,,,,6,,,,52,30
6630,note_on,80,0,2,,,,,,,,0,,,,40,30
6630,note_on,0,0,2,,,,,,,,0,,,,47,30
6630,note_on,0,0,2,,,,,,,,0,,,,52,30
6630,note_on,80,0,13,,,,,,,,12,,,,52,30
6630,note_on,160,0,11,,,,,,,,10,,,,76,30
6630,note_on,160,0,6,,,,,,,,4,,,,76,45
6630,note_on,80,0,1,,,,,,,,0,,,,64,30
6630,note_on,80,0,9,,,,,,,,7,,,,40,30
6630,note_on,0,0,1,,,,,,,,0,,,,76,30
6630,note_on,160,0,7,,,,,,,,5,,,,71,30
6630,note_on,160,0,12,,,,,,,,11,,,,71,30
6630,note_on,0,0,1,,,,,,,,0,,,,71,30
6630,note_on,160,0,5,,,,,,,,3,,,,80,45
6630,note_on,0,0,1,,,,,,,,0,,,,68,30
6630,note_on,160,0,10,,,,,,,,8,,,,80,30
6660,note_off,30,0,11,,,,,,,,10,,,,76,64
6660,note_off,30,0,10,,,,,,,,8,,,,80,64
6660,note_on,0,0,5,,,,,,,,3,,,,81,45
6660,note_on,0,0,10,,,,,,,,8,,,,81,30
6660,note_on,0,0,11,,,,,,,,10,,,,78,30
6660,note_off,30,0,5,,,,,,,,3,,,,80,64
6660,note_on,0,0,6,,,,,,,,4,,,,78,45
6660,note_off,30,0,6,,,,,,,,4,,,,76,64
6690,note_on,0,0,11,,,,,,,,10,,,,76,30
6690,note_off,30,0,10,,,,,,,,8,,,,81,64
6690,note_off,30,0,11,,,,,,,,10,,,,78,64
6690,note_on,0,0,10,,,,,,,,8,,,,80,30
6690,note_off,30,0,6,,,,,,,,4,,,,78,64
6690,note_on,0,0,6,,,,,,,,4,,,,76,45
6690,note_off,30,0,5,,,,,,,,3,,,,81,64
6690,note_on,0,0,5,,,,,,,,3,,,,80,45
6720,note_off,30,0,10,,,,,,,,8,,,,80,64
6720,note_on,0,0,5,,,,,,,,3,,,,81,45
6720,note_on,0,0,6,,,,,,,,4,,,,78,45
6720,note_on,0,0,10,,,,,,,,8,,,,81,30
6720,note_on,0,0,11,,,,,,,,10,,,,78,30
6720,note_off,30,0,5,,,,,,,,3,,,,80,64
6720,note_off,30,0,6,,,,,,,,4,,,,76,64
6720,note_off,30,0,11,,,,,,,,10,,,,76,64
6750,note_off,30,0,11,,,,,,,,10,,,,78,64
6750,note_on,0,0,11,,,,,,,,10,,,,76,30
6750,note_off,30,0,10,,,,,,,,8,,,,81,64
6750,note_off,30,0,6,,,,,,,,4,,,,78,64
6750,note_on,0,0,6,,,,,,,,4,,,,76,45
6750,note_on,0,0,10,,,,,,,,8,,,,80,30
6750,note_on,0,0,5,,,,,,,,3,,,,80,45
6750,note_off,30,0,5,,,,,,,,3,,,,81,64
6780,note_off,30,0,5,,,,,,,,3,,,,80,64
6780,note_off,30,0,6,,,,,,,,4,,,,76,64
6780,note_off,30,0,11,,,,,,,,10,,,,76,64
6780,note_on,0,0,11,,,,,,,,10,,,,78,30
6780,note_on,0,0,6,,,,,,,,4,,,,78,45
6780,note_off,30,0,10,,,,,,,,8,,,,80,64
6780,note_on,0,0,10,,,,,,,,8,,,,81,30
6780,note_on,0,0,5,,,,,,,,3,,,,81,45
6800,note_off,20,0,11,,,,,,,,10,,,,78,64
6800,note_off,20,0,6,,,,,,,,4,,,,78,64
6810,note_off,30,0,5,,,,,,,,3,,,,81,64
6810,note_on,0,0,5,,,,,,,,3,,,,80,45
6810,note_off,30,0,10,,,,,,,,8,,,,81,64
6810,note_on,0,0,10,,,,,,,,8,,,,80,30
6810,note_on,10,0,6,,,,,,,,4,,,,76,45
6810,note_on,10,0,11,,,,,,,,10,,,,76,30
6850,note_off,40,0,11,,,,,,,,10,,,,76,64
6850,note_off,40,0,5,,,,,,,,3,,,,80,64
6850,note_off,40,0,10,,,,,,,,8,,,,80,64
6850,note_off,40,0,6,,,,,,,,4,,,,76,64
6865,note_off,235,0,12,,,,,,,,11,,,,71,64
6865,note_off,235,0,7,,,,,,,,5,,,,71,64
6870,note_on,20,0,10,,,,,,,,8,,,,78,30
6870,note_on,20,0,11,,,,,,,,10,,,,76,30
6870,note_on,20,0,5,,,,,,,,3,,,,78,45
6870,note_on,20,0,6,,,,,,,,4,,,,76,45
6870,note_on,5,0,7,,,,,,,,5,,,,71,30
6870,note_on,5,0,12,,,,,,,,11,,,,71,30
6880,note_off,400,0,14,,,,,,,,13,,,,40,64
6880,note_off,400,0,15,,,,,,,,14,,,,40,64
6950,note_off,80,0,11,,,,,,,,10,,,,76,64
6950,note_off,80,0,10,,,,,,,,8,,,,78,64
6950,note_off,80,0,7,,,,,,,,5,,,,71,64
6950,note_off,80,0,5,,,,,,,,3,,,,78,64
6950,note_off,80,0,6,,,,,,,,4,,,,76,64
6950,note_off,80,0,12,,,,,,,,11,,,,71,64
6960,note_on,80,0,15,,,,,,,,14,,,,40,30
6960,note_on,80,0,14,,,,,,,,13,,,,40,30
6990,note_on,40,0,10,,,,,,,,8,,,,76,30
6990,note_on,40,0,5,,,,,,,,3,,,,76,45
7030,note_off,0,0,1,,,,,,,,0,,,,64,64
7030,note_off,400,0,13,,,,,,,,12,,,,52,64
7030,note_off,0,0,1,,,,,,,,0,,,,71,64
7030,note_off,400,0,1,,,,,,,,0,,,,76,64
7030,note_off,400,0,8,,,,,,,,6,,,,52,64
7030,note_off,0,0,1,,,,,,,,0,,,,68,64
7030,note_off,400,0,9,,,,,,,,7,,,,40,64
7030,note_off,0,0,2,,,,,,,,0,,,,40,64
7030,note_off,0,0,2,,,,,,,,0,,,,47,64
7030,note_off,400,0,2,,,,,,,,0,,,,52,64
7070,note_off,80,0,5,,,,,,,,3,,,,76,64
7070,note_off,80,0,10,,,,,,,,8,,,,76,64
7110,note_on,0,0,2,,,,,,,,0,,,,52,30
7110,note_on,40,0,5,,,,,,,,3,,,,83,45
7110,note_on,80,0,8,,,,,,,,6,,,,52,30
7110,note_on,80,0,9,,,,,,,,7,,,,40,30
7110,note_on,40,0,10,,,,,,,,8,,,,83,30
7110,note_on,160,0,7,,,,,,,,5,,,,64,30
7110,note_on,0,0,1,,,,,,,,0,,,,76,30
7110,note_on,0,0,1,,,,,,,,0,,,,71,30
7110,note_on,0,0,1,,,,,,,,0,,,,68,30
7110,note_on,80,0,1,,,,,,,,0,,,,64,30
7110,note_on,160,0,11,,,,,,,,10,,,,80,30
7110,note_on,160,0,12,,,,,,,,11,,,,64,30
7110,note_on,80,0,13,,,,,,,,12,,,,52,30
7110,note_on,160,0,6,,,,,,,,4,,,,80,45
7110,note_on,0,0,2,,,,,,,,0,,,,47,30
7110,note_on,80,0,2,,,,,,,,0,,,,40,30
7345,note_off,235,0,1,,,,,,,,0,,,,76,64
7345,note_off,0,0,1,,,,,,,,0,,,,71,64
7345,note_off,0,0,1,,,,,,,,0,,,,68,64
7345,note_off,0,0,1,,,,,,,,0,,,,64,64
7345,note_off,0,0,2,,,,,,,,0,,,,47,64
7345,note_off,0,0,2,,,,,,,,0,,,,40,64
7345,note_off,235,0,2,,,,,,,,0,,,,52,64
7350,note_on,5,0,2,,,,,,,,0,,,,56,45
7350,note_on,5,0,1,,,,,,,,0,,,,68,45
7360,note_off,400,0,14,,,,,,,,13,,,,40,64
7360,note_off,400,0,15,,,,,,,,14,,,,40,64
7430,note_off,80,0,2,,,,,,,,0,,,,56,64
7430,note_off,80,0,1,,,,,,,,0,,,,68,64
7440,note_on,80,0,15,,,,,,,,14,,,,40,30
7440,note_on,80,0,14,,,,,,,,13,,,,40,30
7470,note_on,40,0,1,,,,,,,,0,,,,69,45
7470,note_on,40,0,2,,,,,,,,0,,,,57,45
7510,note_off,400,0,8,,,,,,,,6,,,,52,64
7510,note_off,400,0,9,,,,,,,,7,,,,40,64
7510,note_off,400,0,13,,,,,,,,12,,,,52,64
7550,note_off,80,0,1,,,,,,,,0,,,,69,64
7550,note_off,80,0,2,,,,,,,,0,,,,57,64
7590,note_on,80,0,13,,,,,,,,12,,,,52,30
7590,note_on,80,0,9,,,,,,,,7,,,,40,30
7590,note_on,80,0,8,,,,,,,,6,,,,52,30
7590,note_on,40,0,1,,,,,,,,0,,,,71,45
7590,note_on,40,0,2,,,,,,,,0,,,,59,45
7750,note_off,640,0,6,,,,,,,,4,,,,80,64
7750,note_off,640,0,12,,,,,,,,11,,,,64,64
7750,note_off,640,0,5,,,,,,,,3,,,,83,64
7750,note_off,640,0,10,,,,,,,,8,,,,83,64
7750,note_off,640,0,7,,,,,,,,5,,,,64,64
7750,note_off,640,0,11,,,,,,,,10,,,,80,64
7830,note_on,80,0,11,,,,,,,,10,,,,80,30
7830,note_on,80,0,12,,,,,,,,11,,,,68,30
7830,note_on,80,0,6,,,,,,,,4,,,,80,45
7830,note_on,80,0,7,,,,,,,,5,,,,68,30
7830,note_on,80,0,5,,,,,,,,3,,,,83,45
7830,note_on,80,0,10,,,,,,,,8,,,,83,30
7840,note_off,400,0,14,,,,,,,,13,,,,40,64
7840,note_off,400,0,15,,,,,,,,14,,,,40,64
7910,note_off,80,0,5,,,,,,,,3,,,,83,64
7910,note_off,80,0,11,,,,,,,,10,,,,80,64
7910,note_off,80,0,7,,,,,,,,5,,,,68,64
7910,note_off,80,0,10,,,,,,,,8,,,,83,64
7910,note_off,80,0,12,,,,,,,,11,,,,68,64
7910,note_off,80,0,6,,,,,,,,4,,,,80,64
7920,note_on,80,0,14,,,,,,,,13,,,,40,30
7950,note_on,40,0,6,,,,,,,,4,,,,78,45
7950,note_on,40,0,10,,,,,,,,8,,,,81,30
7950,note_on,40,0,12,,,,,,,,11,,,,69,30
7950,note_on,40,0,11,,,,,,,,10,,,,78,30
7950,note_on,40,0,7,,,,,,,,5,,,,69,30
7950,note_on,40,0,5,,,,,,,,3,,,,81,45
7990,note_off,400,0,8,,,,,,,,6,,,,52,64
7990,note_off,400,0,13,,,,,,,,12,,,,52,64
7990,note_off,400,0,9,,,,,,,,7,,,,40,64
7990,note_off,400,0,2,,,,,,,,0,,,,59,64
7990,note_off,400,0,1,,,,,,,,0,,,,71,64
8030,note_off,80,0,6,,,,,,,,4,,,,78,64
8030,note_off,80,0,10,,,,,,,,8,,,,81,64
8030,note_off,80,0,7,,,,,,,,5,,,,69,64
8030,note_off,80,0,5,,,,,,,,3,,,,81,64
8030,note_off,80,0,12,,,,,,,,11,,,,69,64
8030,note_off,80,0,11,,,,,,,,10,,,,78,64
8070,note_on,0,0,1,,,,,,,,0,,,,71,30
8070,note_on,40,0,10,,,,,,,,8,,,,80,30
8070,note_on,80,0,1,,,,,,,,0,,,,64,30
8070,note_on,40,0,11,,,,,,,,10,,,,76,30
8070,note_on,0,0,1,,,,,,,,0,,,,68,30
8070,note_on,0,0,1,,,,,,,,0,,,,76,30
8070,note_on,0,0,2,,,,,,,,0,,,,52,30
8070,note_on,80,0,2,,,,,,,,0,,,,40,30
8070,note_on,40,0,5,,,,,,,,3,,,,80,45
8070,note_on,80,0,13,,,,,,,,12,,,,52,30
8070,note_on,40,0,7,,,,,,,,5,,,,71,30
8070,note_on,0,0,2,,,,,,,,0,,,,47,30
8070,note_on,40,0,6,,,,,,,,4,,,,76,45
8070,note_on,80,0,8,,,,,,,,6,,,,52,30
8070,note_on,40,0,12,,,,,,,,11,,,,71,30
8070,note_on,80,0,9,,,,,,,,7,,,,40,30
8150,note_off,80,0,6,,,,,,,,4,,,,76,64
8150,note_off,80,0,10,,,,,,,,8,,,,80,64
8150,note_off,80,0,12,,,,,,,,11,,,,71,64
8150,note_off,80,0,5,,,,,,,,3,,,,80,64
8150,note_off,80,0,11,,,,,,,,10,,,,76,64
8150,note_off,80,0,7,,,,,,,,5,,,,71,64
8310,note_on,160,0,11,,,,,,,,10,,,,76,30
8310,note_on,160,0,6,,,,,,,,4,,,,76,45
8310,note_on,160,0,12,,,,,,,,11,,,,71,30
8310,note_on,160,0,7,,,,,,,,5,,,,71,30
8310,note_on,160,0,10,,,,,,,,8,,,,80,30
8310,note_on,160,0,5,,,,,,,,3,,,,80,45
8320,note_off,400,0,14,,,,,,,,13,,,,40,64
8390,note_off,80,0,12,,,,,,,,11,,,,71,64
8390,note_off,80,0,11,,,,,,,,10,,,,76,64
8390,note_off,80,0,7,,,,,,,,5,,,,71,64
8390,note_off,80,0,6,,,,,,,,4,,,,76,64
8390,note_off,80,0,5,,,,,,,,3,,,,80,64
8390,note_off,80,0,10,,,,,,,,8,,,,80,64
8400,note_on,560,0,15,,,,,,,,14,,,,40,30
8400,note_on,80,0,14,,,,,,,,13,,,,40,30
8470,note_off,400,0,8,,,,,,,,6,,,,52,64
8470,note_off,400,0,9,,,,,,,,7,,,,40,64
8470,note_off,400,0,13,,,,,,,,12,,,,52,64
8470,note_off,0,0,1,,,,,,,,0,,,,68,64
8470,note_off,0,0,1,,,,,,,,0,,,,71,64
8470,note_off,0,0,2,,,,,,,,0,,,,47,64
8470,note_off,0,0,1,,,,,,,,0,,,,64,64
8470,note_off,0,0,2,,,,,,,,0,,,,40,64
8470,note_off,400,0,2,,,,,,,,0,,,,52,64
8470,note_off,400,0,1,,,,,,,,0,,,,76,64
8550,note_on,0,0,1,,,,,,,,0,,,,68,30
8550,note_on,160,0,7,,,,,,,,5,,,,71,30
8550,note_on,160,0,11,,,,,,,,10,,,,76,30
8550,note_on,0,0,1,,,,,,,,0,,,,71,30
8550,note_on,0,0,1,,,,,,,,0,,,,76,30
8550,note_on,80,0,13,,,,,,,,12,,,,52,30
8550,note_on,0,0,2,,,,,,,,0,,,,52,30
8550,note_on,0,0,2,,,,,,,,0,,,,47,30
8550,note_on,80,0,2,,,,,,,,0,,,,40,30
8550,note_on,80,0,1,,,,,,,,0,,,,64,30
8550,note_on,160,0,5,,,,,,,,3,,,,80,45
8550,note_on,160,0,6,,,,,,,,4,,,,76,45
8550,note_on,160,0,12,,,,,,,,11,,,,71,30
8550,note_on,80,0,8,,,,,,,,6,,,,52,30
8550,note_on,80,0,9,,,,,,,,7,,,,40,30
8550,note_on,160,0,10,,,,,,,,8,,,,80,30
8580,note_off,30,0,6,,,,,,,,4,,,,76,64
8580,note_off,30,0,11,,,,,,,,10,,,,76,64
8580,note_on,0,0,6,,,,,,,,4,,,,78,45
8580,note_on,0,0,10,,,,,,,,8,,,,81,30
8580,note_on,0,0,11,,,,,,,,10,,,,78,30
8580,note_on,0,0,5,,,,,,,,3,,,,81,45
8580,note_off,30,0,5,,,,,,,,3,,,,80,64
8580,note_off,30,0,10,,,,,,,,8,,,,80,64
8610,note_off,30,0,10,,,,,,,,8,,,,81,64
8610,note_on,0,0,10,,,,,,,,8,,,,80,30
8610,note_on,0,0,5,,,,,,,,3,,,,80,45
8610,note_off,30,0,11,,,,,,,,10,,,,78,64
8610,note_off,30,0,6,,,,,,,,4,,,,78,64
8610,note_on,0,0,6,,,,,,,,4,,,,76,45
8610,note_on,0,0,11,,,,,,,,10,,,,76,30
8610,note_off,30,0,5,,,,,,,,3,,,,81,64
8640,note_off,30,0,11,,,,,,,,10,,,,76,64
8640,note_on,0,0,6,,,,,,,,4,,,,78,45
8640,note_on,0,0,11,,,,,,,,10,,,,78,30
8640,note_off,30,0,10,,,,,,,,8,,,,80,64
8640,note_off,30,0,6,,,,,,,,4,,,,76,64
8640,note_on,0,0,5,,,,,,,,3,,,,81,45
8640,note_on,0,0,10,,,,,,,,8,,,,81,30
8640,note_off,30,0,5,,,,,,,,3,,,,80,64
8670,note_on,0,0,5,,,,,,,,3,,,,80,45
8670,note_off,30,0,11,,,,,,,,10,,,,78,64
8670,note_off,30,0,10,,,,,,,,8,,,,81,64
8670,note_off,30,0,5,,,,,,,,3,,,,81,64
8670,note_off,30,0,6,,,,,,,,4,,,,78,64
8670,note_on,0,0,6,,,,,,,,4,,,,76,45
8670,note_on,0,0,11,,,,,,,,10,,,,76,30
8670,note_on,0,0,10,,,,,,,,8,,,,80,30
8700,note_on,0,0,5,,,,,,,,3,,,,81,45
8700,note_off,30,0,5,,,,,,,,3,,,,80,64
8700,note_off,30,0,6,,,,,,,,4,,,,76,64
8700,note_on,0,0,10,,,,,,,,8,,,,81,30
8700,note_off,30,0,10,,,,,,,,8,,,,80,64
8700,note_off,30,0,11,,,,,,,,10,,,,76,64
8700,note_on,0,0,11,,,,,,,,10,,,,78,30
8700,note_on,0,0,6,,,,,,,,4,,,,78,45
8720,note_off,20,0,6,,,,,,,,4,,,,78,64
8720,note_off,20,0,11,,,,,,,,10,,,,78,64
8730,note_on,0,0,5,,,,,,,,3,,,,80,45
8730,note_off,30,0,10,,,,,,,,8,,,,81,64
8730,note_on,10,0,6,,,,,,,,4,,,,76,45
8730,note_off,30,0,5,,,,,,,,3,,,,81,64
8730,note_on,10,0,11,,,,,,,,10,,,,76,30
8730,note_on,0,0,10,,,,,,,,8,,,,80,30
8770,note_off,40,0,10,,,,,,,,8,,,,80,64
8770,note_off,40,0,11,,,,,,,,10,,,,76,64
8770,note_off,40,0,5,,,,,,,,3,,,,80,64
8770,note_off,40,0,6,,,,,,,,4,,,,76,64
8785,note_off,235,0,7,,,,,,,,5,,,,71,64
8785,note_off,235,0,12,,,,,,,,11,,,,71,64
8790,note_on,20,0,10,,,,,,,,8,,,,78,30
8790,note_on,20,0,5,,,,,,,,3,,,,78,45
8790,note_on,5,0,12,,,,,,,,11,,,,71,30
8790,note_on,20,0,6,,,,,,,,4,,,,76,45
8790,note_on,20,0,11,,,,,,,,10,,,,76,30
8790,note_on,5,0,7,,,,,,,,5,,,,71,30
8800,note_off,400,0,14,,,,,,,,13,,,,40,64
8800,note_off,400,0,15,,,,,,,,14,,,,40,64
8870,note_off,80,0,12,,,,,,,,11,,,,71,64
8870,note_off,80,0,11,,,,,,,,10,,,,76,64
8870,note_off,80,0,10,,,,,,,,8,,,,78,64
8870,note_off,80,0,5,,,,,,,,3,,,,78,64
8870,note_off,80,0,7,,,,,,,,5,,,,71,64
8870,note_off,80,0,6,,,,,,,,4,,,,76,64
8880,note_on,80,0,15,,,,,,,,14,,,,40,30
8880,note_on,80,0,14,,,,,,,,13,,,,40,30
8910,note_on,40,0,5,,,,,,,,3,,,,76,45
8910,note_on,40,0,10,,,,,,,,8,,,,76,30
8950,note_off,400,0,9,,,,,,,,7,,,,40,64
8950,note_off,400,0,1,,,,,,,,0,,,,76,64
8950,note_off,0,0,1,,,,,,,,0,,,,71,64
8950,note_off,400,0,13,,,,,,,,12,,,,52,64
8950,note_off,0,0,1,,,,,,,,0,,,,68,64
8950,note_off,400,0,8,,,,,,,,6,,,,52,64
8950,note_off,400,0,2,,,,,,,,0,,,,52,64
8950,note_off,0,0,1,,,,,,,,0,,,,64,64
8950,note_off,0,0,2,,,,,,,,0,,,,47,64
8950,note_off,0,0,2,,,,,,,,0,,,,40,64
8990,note_off,80,0,5,,,,,,,,3,,,,76,64
8990,note_off,80,0,10,,,,,,,,8,,,,76,64
9030,note_on,160,0,6,,,,,,,,4,,,,80,45
9030,note_on,80,0,2,,,,,,,,0,,,,40,30
9030,note_on,160,0,7,,,,,,,,5,,,,64,30
9030,note_on,0,0,2,,,,,,,,0,,,,52,30
9030,note_on,80,0,13,,,,,,,,12,,,,52,30
9030,note_on,40,0,10,,,,,,,,8,,,,83,30
9030,note_on,80,0,9,,,,,,,,7,,,,40,30
9030,note_on,80,0,8,,,,,,,,6,,,,52,30
9030,note_on,0,0,2,,,,,,,,0,,,,47,30
9030,note_on,40,0,5,,,,,,,,3,,,,83,45
9030,note_on,0,0,1,,,,,,,,0,,,,71,30
9030,note_on,160,0,11,,,,,,,,10,,,,80,30
9030,note_on,160,0,12,,,,,,,,11,,,,64,30
9030,note_on,0,0,1,,,,,,,,0,,,,76,30
9030,note_on,80,0,1,,,,,,,,0,,,,64,30
9030,note_on,0,0,1,,,,,,,,0,,,,68,30
9265,note_off,0,0,2,,,,,,,,0,,,,47,64
9265,note_off,0,0,1,,,,,,,,0,,,,71,64
9265,note_off,235,0,1,,,,,,,,0,,,,76,64
9265,note_off,0,0,2,,,,,,,,0,,,,40,64
9265,note_off,235,0,2,,,,,,,,0,,,,52,64
9265,note_off,0,0,1,,,,,,,,0,,,,68,64
9265,note_off,0,0,1,,,,,,,,0,,,,64,64
9270,note_on,5,0,2,,,,,,,,0,,,,59,45
9270,note_on,5,0,1,,,,,,,,0,,,,71,45
9280,note_off,400,0,15,,,,,,,,14,,,,40,64
9280,note_off,400,0,14,,,,,,,,13,,,,40,64
9350,note_off,80,0,1,,,,,,,,0,,,,71,64
9350,note_off,80,0,2,,,,,,,,0,,,,59,64
9360,note_on,80,0,14,,,,,,,,13,,,,40,30
9360,note_on,80,0,15,,,,,,,,14,,,,40,30
9390,note_on,40,0,1,,,,,,,,0,,,,69,45
9390,note_on,40,0,2,,,,,,,,0,,,,57,45
9430,note_off,400,0,8,,,,,,,,6,,,,52,64
9430,note_off,400,0,9,,,,,,,,7,,,,40,64
9430,note_off,400,0,13,,,,,,,,12,,,,52,64
9470,note_off,80,0,1,,,,,,,,0,,,,69,64
9470,note_off,80,0,2,,,,,,,,0,,,,57,64
9510,note_on,80,0,8,,,,,,,,6,,,,52,30
9510,note_on,80,0,9,,,,,,,,7,,,,40,30
9510,note_on,40,0,1,,,,,,,,0,,,,71,45
9510,note_on,80,0,13,,,,,,,,12,,,,52,30
9510,note_on,40,0,2,,,,,,,,0,,,,59,45
9670,note_off,640,0,10,,,,,,,,8,,,,83,64
9670,note_off,640,0,11,,,,,,,,10,,,,80,64
9670,note_off,640,0,7,,,,,,,,5,,,,64,64
9670,note_off,640,0,5,,,,,,,,3,,,,83,64
9670,note_off,640,0,12,,,,,,,,11,,,,64,64
9670,note_off,640,0,6,,,,,,,,4,,,,80,64
9750,note_on,80,0,7,,,,,,,,5,,,,68,30
9750,note_on,80,0,12,,,,,,,,11,,,,68,30
9750,note_on,80,0,11,,,,,,,,10,,,,80,30
9750,note_on,80,0,6,,,,,,,,4,,,,80,45
9750,note_on,80,0,10,,,,,,,,8,,,,83,30
9750,note_on,80,0,5,,,,,,,,3,,,,83,45
9760,note_off,400,0,14,,,,,,,,13,,,,40,64
9760,note_off,400,0,15,,,,,,,,14,,,,40,64
9830,note_off,80,0,10,,,,,,,,8,,,,83,64
9830,note_off,80,0,12,,,,,,,,11,,,,68,64
9830,note_off,80,0,6,,,,,,,,4,,,,80,64
9830,note_off,80,0,7,,,,,,,,5,,,,68,64
9830,note_off,80,0,11,,,,,,,,10,,,,80,64
9830,note_off,80,0,5,,,,,,,,3,,,,83,64
9840,note_on,80,0,14,,,,,,,,13,,,,40,30
9870,note_on,40,0,12,,,,,,,,11,,,,69,30
9870,note_on,40,0,6,,,,,,,,4,,,,78,45
9870,note_on,40,0,5,,,,,,,,3,,,,81,45
9870,note_on,40,0,10,,,,,,,,8,,,,81,30
9870,note_on,40,0,7,,,,,,,,5,,,,69,30
9870,note_on,40,0,11,,,,,,,,10,,,,78,30
9910,note_off,400,0,9,,,,,,,,7,,,,40,64
9910,note_off,400,0,8,,,,,,,,6,,,,52,64
9910,note_off,400,0,13,,,,,,,,12,,,,52,64
9910,note_off,400,0,1,,,,,,,,0,,,,71,64
9910,note_off,400,0,2,,,,,,,,0,,,,59,64
9950,note_off,80,0,5,,,,,,,,3,,,,81,64
9950,note_off,80,0,12,,,,,,,,11,,,,69,64
9950,note_off,80,0,6,,,,,,,,4,,,,78,64
9950,note_off,80,0,7,,,,,,,,5,,,,69,64
9950,note_off,80,0,10,,,,,,,,8,,,,81,64
9950,note_off,80,0,11,,,,,,,,10,,,,78,64
9990,note_on,40,0,5,,,,,,,,3,,,,80,45
9990,note_on,40,0,10,,,,,,,,8,,,,80,30
9990,note_on,80,0,2,,,,,,,,0,,,,40,30
9990,note_on,80,0,9,,,,,,,,7,,,,40,30
9990,note_on,0,0,2,,,,,,,,0,,,,52,30
9990,note_on,40,0,11,,,,,,,,10,,,,76,30
9990,note_on,40,0,6,,,,,,,,4,,,,76,45
9990,note_on,80,0,1,,,,,,,,0,,,,64,30
9990,note_on,40,0,7,,,,,,,,5,,,,71,30
9990,note_on,80,0,8,,,,,,,,6,,,,52,30
9990,note_on,40,0,12,,,,,,,,11,,,,71,30
9990,note_on,0,0,1,,,,,,,,0,,,,71,30
9990,note_on,0,0,1,,,,,,,,0,,,,76,30
9990,note_on,80,0,13,,,,,,,,12,,,,52,30
9990,note_on,0,0,2,,,,,,,,0,,,,47,30
9990,note_on,0,0,1,,,,,,,,0,,,,68,30
10020,note_on,0,0,5,,,,,,,,3,,,,81,45
10020,note_on,0,0,11,,,,,,,,10,,,,78,30
10020,note_off,30,0,6,,,,,,,,4,,,,76,64
10020,note_on,0,0,6,,,,,,,,4,,,,78,45
10020,note_off,30,0,5,,,,,,,,3,,,,80,64
10020,note_off,30,0,10,,,,,,,,8,,,,80,64
10020,note_on,0,0,10,,,,,,,,8,,,,81,30
10020,note_off,30,0,11,,,,,,,,10,,,,76,64
10050,note_off,30,0,11,,,,,,,,10,,,,78,64
10050,note_on,0,0,11,,,,,,,,10,,,,76,30
10050,note_off,30,0,10,,,,,,,,8,,,,81,64
10050,note_on,0,0,5,,,,,,,,3,,,,80,45
10050,note_off,30,0,6,,,,,,,,4,,,,78,64
10050,note_on,0,0,6,,,,,,,,4,,,,76,45
10050,note_off,30,0,5,,,,,,,,3,,,,81,64
10050,note_on,0,0,10,,,,,,,,8,,,,80,30
10080,note_on,0,0,6,,,,,,,,4,,,,78,45
10080,note_on,0,0,5,,,,,,,,3,,,,81,45
10080,note_on,0,0,11,,,,,,,,10,,,,78,30
10080,note_off,30,0,5,,,,,,,,3,,,,80,64
10080,note_off,30,0,10,,,,,,,,8,,,,80,64
10080,note_off,30,0,6,,,,,,,,4,,,,76,64
10080,note_off,30,0,11,,,,,,,,10,,,,76,64
10080,note_on,0,0,10,,,,,,,,8,,,,81,30
10110,note_off,30,0,10,,,,,,,,8,,,,81,64
10110,note_on,0,0,10,,,,,,,,8,,,,80,30
10110,note_on,0,0,5,,,,,,,,3,,,,80,45
10110,note_off,30,0,5,,,,,,,,3,,,,81,64
10110,note_on,0,0,11,,,,,,,,10,,,,76,30
10110,note_on,0,0,6,,,,,,,,4,,,,76,45
10110,note_off,30,0,6,,,,,,,,4,,,,78,64
10110,note_off,30,0,11,,,,,,,,10,,,,78,64
10190,note_off,80,0,11,,,,,,,,10,,,,76,64
10190,note_off,80,0,6,,,,,,,,4,,,,76,64
10190,note_off,80,0,10,,,,,,,,8,,,,80,64
10190,note_off,80,0,5,,,,,,,,3,,,,80,64
10225,note_off,235,0,12,,,,,,,,11,,,,71,64
10225,note_off,235,0,7,,,,,,,,5,,,,71,64
10225,note_off,235,0,13,,,,,,,,12,,,,52,64
10225,note_off,235,0,9,,,,,,,,7,,,,40,64
10225,note_off,235,0,8,,,,,,,,6,,,,52,64
10230,note_on,40,0,5,,,,,,,,3,,,,81,45
10230,note_on,5,0,12,,,,,,,,11,,,,71,30
10230,note_on,5,0,13,,,,,,,,12,,,,52,30
10230,note_on,5,0,7,,,,,,,,5,,,,71,30
10230,note_on,40,0,11,,,,,,,,10,,,,78,30
10230,note_on,5,0,9,,,,,,,,7,,,,40,30
10230,note_on,40,0,10,,,,,,,,8,,,,81,30
10230,note_on,40,0,6,,,,,,,,4,,,,78,45
10230,note_on,5,0,8,,,,,,,,6,,,,52,30
10240,note_off,400,0,14,,,,,,,,13,,,,40,64
10310,note_off,80,0,8,,,,,,,,6,,,,52,64
10310,note_off,80,0,7,,,,,,,,5,,,,71,64
10310,note_off,80,0,13,,,,,,,,12,,,,52,64
10310,note_off,80,0,11,,,,,,,,10,,,,78,64
10310,note_off,80,0,9,,,,,,,,7,,,,40,64
10310,note_off,80,0,10,,,,,,,,8,,,,81,64
10310,note_off,80,0,12,,,,,,,,11,,,,71,64
10310,note_off,80,0,6,,,,,,,,4,,,,78,64
10310,note_off,80,0,5,,,,,,,,3,,,,81,64
10320,note_on,80,0,14,,,,,,,,13,,,,40,30
10320,note_on,560,0,15,,,,,,,,14,,,,40,30
10350,note_on,40,0,5,,,,,,,,3,,,,83,45
10350,note_on,40,0,6,,,,,,,,4,,,,80,45
10350,note_on,40,0,10,,,,,,,,8,,,,83,30
10350,note_on,40,0,11,,,,,,,,10,,,,80,30
10390,note_off,0,0,1,,,,,,,,0,,,,71,64
10390,note_off,400,0,1,,,,,,,,0,,,,76,64
10390,note_off,0,0,1,,,,,,,,0,,,,64,64
10390,note_off,400,0,2,,,,,,,,0,,,,52,64
10390,note_off,0,0,1,,,,,,,,0,,,,68,64
10390,note_off,0,0,2,,,,,,,,0,,,,47,64
10390,note_off,0,0,2,,,,,,,,0,,,,40,64
10430,note_off,80,0,10,,,,,,,,8,,,,83,64
10430,note_off,80,0,5,,,,,,,,3,,,,83,64
10430,note_off,80,0,6,,,,,,,,4,,,,80,64
10430,note_off,80,0,11,,,,,,,,10,,,,80,64
10470,note_on,0,0,1,,,,,,,,0,,,,78,30
10470,note_on,160,0,13,,,,,,,,12,,,,45,30
10470,note_on,40,0,6,,,,,,,,4,,,,78,45
10470,note_on,160,0,9,,,,,,,,7,,,,33,30
10470,note_on,160,0,12,,,,,,,,11,,,,73,30
10470,note_on,40,0,10,,,,,,,,8,,,,81,30
10470,note_on,80,0,1,,,,,,,,0,,,,69,30
10470,note_on,160,0,7,,,,,,,,5,,,,73,30
10470,note_on,40,0,5,,,,,,,,3,,,,81,45
10470,note_on,80,0,2,,,,,,,,0,,,,45,30
10470,note_on,160,0,8,,,,,,,,6,,,,45,30
10470,note_on,0,0,2,,,,,,,,0,,,,57,30
10470,note_on,40,0,11,,,,,,,,10,,,,78,30
10550,note_off,80,0,9,,,,,,,,7,,,,33,64
10550,note_off,80,0,10,,,,,,,,8,,,,81,64
10550,note_off,80,0,1,,,,,,,,0,,,,78,64
10550,note_off,0,0,1,,,,,,,,0,,,,69,64
10550,note_off,80,0,7,,,,,,,,5,,,,73,64
10550,note_off,0,0,2,,,,,,,,0,,,,45,64
10550,note_off,80,0,12,,,,,,,,11,,,,73,64
10550,note_off,80,0,2,,,,,,,,0,,,,57,64
10550,note_off,80,0,8,,,,,,,,6,,,,45,64
10550,note_off,80,0,11,,,,,,,,10,,,,78,64
10550,note_off,80,0,5,,,,,,,,3,,,,81,64
10550,note_off,80,0,6,,,,,,,,4,,,,78,64
10550,note_off,80,0,13,,,,,,,,12,,,,45,64
10555,note_off,235,0,14,,,,,,,,13,,,,40,64
10560,note_on,5,0,14,,,,,,,,13,,,,40,30
10640,note_off,80,0,14,,,,,,,,13,,,,40,64
10710,note_on,160,0,13,,,,,,,,12,,,,46,30
10710,note_on,160,0,10,,,,,,,,8,,,,80,30
10710,note_on,160,0,2,,,,,,,,0,,,,46,30
10710,note_on,0,0,2,,,,,,,,0,,,,56,30
10710,note_on,160,0,11,,,,,,,,10,,,,76,30
10710,note_on,160,0,7,,,,,,,,5,,,,73,30
10710,note_on,160,0,6,,,,,,,,4,,,,76,45
10710,note_on,160,0,9,,,,,,,,7,,,,34,30
10710,note_on,160,0,1,,,,,,,,0,,,,68,30
10710,note_on,0,0,1,,,,,,,,0,,,,76,30
10710,note_on,160,0,8,,,,,,,,6,,,,46,30
10710,note_on,160,0,5,,,,,,,,3,,,,80,45
10710,note_on,160,0,12,,,,,,,,11,,,,73,30
10720,note_off,400,0,15,,,,,,,,14,,,,40,64
10790,note_off,80,0,12,,,,,,,,11,,,,73,64
10790,note_off,80,0,8,,,,,,,,6,,,,46,64
10790,note_off,80,0,6,,,,,,,,4,,,,76,64
10790,note_off,80,0,13,,,,,,,,12,,,,46,64
10790,note_off,80,0,5,,,,,,,,3,,,,80,64
10790,note_off,80,0,10,,,,,,,,8,,,,80,64
10790,note_off,0,0,1,,,,,,,,0,,,,68,64
10790,note_off,80,0,1,,,,,,,,0,,,,76,64
10790,note_off,80,0,11,,,,,,,,10,,,,76,64
10790,note_off,80,0,2,,,,,,,,0,,,,56,64
10790,note_off,80,0,9,,,,,,,,7,,,,34,64
10790,note_off,0,0,2,,,,,,,,0,,,,46,64
10790,note_off,80,0,7,,,,,,,,5,,,,73,64
10800,note_on,80,0,15,,,,,,,,14,,,,33,30
10800,note_on,160,0,14,,,,,,,,13,,,,33,30
10880,note_off,80,0,14,,,,,,,,13,,,,33,64
10880,note_off,80,0,15,,,,,,,,14,,,,33,64
10950,note_on,160,0,6,,,,,,,,4,,,,75,45
10950,note_on,160,0,12,,,,,,,,11,,,,66,30
10950,note_on,160,0,8,,,,,,,,6,,,,47,30
10950,note_on,160,0,5,,,,,,,,3,,,,78,45
10950,note_on,0,0,2,,,,,,,,0,,,,54,30
10950,note_on,160,0,13,,,,,,,,12,,,,47,30
10950,note_on,160,0,2,,,,,,,,0,,,,47,30
10950,note_on,160,0,7,,,,,,,,5,,,,66,30
10950,note_on,0,0,1,,,,,,,,0,,,,75,30
10950,note_on,160,0,11,,,,,,,,10,,,,75,30
10950,note_on,160,0,10,,,,,,,,8,,,,78,30
10950,note_on,160,0,1,,,,,,,,0,,,,66,30
10950,note_on,160,0,9,,,,,,,,7,,,,35,30
11040,note_on,160,0,15,,,,,,,,14,,,,34,30
11040,note_on,160,0,14,,,,,,,,13,,,,34,30
11120,note_off,80,0,15,,,,,,,,14,,,,34,64
11120,note_off,80,0,14,,,,,,,,13,,,,34,64
11280,note_on,160,0,15,,,,,,,,14,,,,35,30
11280,note_on,160,0,14,,,,,,,,13,,,,35,30
11350,note_off,400,0,7,,,,,,,,5,,,,66,64
11350,note_off,400,0,6,,,,,,,,4,,,,75,64
11350,note_off,400,0,1,,,,,,,,0,,,,75,64
11350,note_off,400,0,8,,,,,,,,6,,,,47,64
11350,note_off,0,0,1,,,,,,,,0,,,,66,64
11350,note_off,400,0,11,,,,,,,,10,,,,75,64
11350,note_off,0,0,2,,,,,,,,0,,,,47,64
11350,note_off,400,0,12,,,,,,,,11,,,,66,64
11350,note_off,400,0,5,,,,,,,,3,,,,78,64
11350,note_off,400,0,2,,,,,,,,0,,,,54,64
11350,note_off,400,0,13,,,,,,,,12,,,,47,64
11350,note_off,400,0,10,,,,,,,,8,,,,78,64
11350,note_off,400,0,9,,,,,,,,7,,,,35,64
11680,note_off,400,0,15,,,,,,,,14,,,,35,64
11680,note_off,400,0,14,,,,,,,,13,,,,35,64
11730,note_on,380,0,7,,,,,,,,5,,,,68,75
11730,note_on,380,0,12,,,,,,,,11,,,,68,75
11730,note_on,380,0,10,,,,,,,,8,,,,80,75
11730,note_on,380,0,11,,,,,,,,10,,,,76,75
11730,note_on,380,0,8,,,,,,,,6,,,,52,75
11730,note_on,380,0,9,,,,,,,,7,,,,40,75
11730,note_on,380,0,5,,,,,,,,3,,,,80,92
11730,note_on,380,0,13,,,,,,,,12,,,,52,75
11730,note_on,380,0,6,,,,,,,,4,,,,76,92
11810,note_off,80,0,8,,,,,,,,6,,,,52,64
11810,note_off,80,0,11,,,,,,,,10,,,,76,64
11810,note_off,80,0,5,,,,,,,,3,,,,80,64
11810,note_off,80,0,12,,,,,,,,11,,,,68,64
11810,note_off,80,0,6,,,,,,,,4,,,,76,64
11810,note_off,80,0,10,,,,,,,,8,,,,80,64
11810,note_off,80,0,13,,,,,,,,12,,,,52,64
11810,note_off,80,0,7,,,,,,,,5,,,,68,64
11810,note_off,80,0,9,,,,,,,,7,,,,40,64
11970,note_on,160,0,5,,,,,,,,3,,,,83,92
11970,note_on,160,0,7,,,,,,,,5,,,,64,75
11970,note_on,160,0,12,,,,,,,,11,,,,64,75
11970,note_on,160,0,8,,,,,,,,6,,,,52,75
11970,note_on,160,0,9,,,,,,,,7,,,,40,75
11970,note_on,0,0,2,,,,,,,,0,,,,52,60
11970,note_on,160,0,11,,,,,,,,10,,,,80,75
11970,note_on,160,0,10,,,,,,,,8,,,,83,75
11970,note_on,0,0,1,,,,,,,,0,,,,76,60
11970,note_on,160,0,6,,,,,,,,4,,,,80,92
11970,note_on,620,0,2,,,,,,,,0,,,,40,60
11970,note_on,160,0,13,,,,,,,,12,,,,52,75
11970,note_on,620,0,1,,,,,,,,0,,,,64,60
11970,note_on,0,0,1,,,,,,,,0,,,,71,60
11970,note_on,0,0,1,,,,,,,,0,,,,68,60
12050,note_off,80,0,11,,,,,,,,10,,,,80,64
12050,note_off,80,0,10,,,,,,,,8,,,,83,64
12050,note_off,80,0,5,,,,,,,,3,,,,83,64
12050,note_off,80,0,6,,,,,,,,4,,,,80,64
12060,note_on,380,0,14,,,,,,,,13,,,,40,75
12140,note_off,80,0,14,,,,,,,,13,,,,40,64
12210,note_on,160,0,6,,,,,,,,4,,,,78,92
12210,note_on,160,0,10,,,,,,,,8,,,,81,75
12210,note_on,160,0,5,,,,,,,,3,,,,81,92
12210,note_on,160,0,11,,,,,,,,10,,,,78,75
12290,note_off,80,0,6,,,,,,,,4,,,,78,64
12290,note_off,80,0,5,,,,,,,,3,,,,81,64
12290,note_off,80,0,10,,,,,,,,8,,,,81,64
12290,note_off,80,0,11,,,,,,,,10,,,,78,64
12300,note_on,620,0,15,,,,,,,,14,,,,40,75
12300,note_on,160,0,14,,,,,,,,13,,,,40,75
12330,note_on,40,0,6,,,,,,,,4,,,,76,92
12330,note_on,40,0,5,,,,,,,,3,,,,80,92
12330,note_on,40,0,11,,,,,,,,10,,,,76,75
12330,note_on,40,0,10,,,,,,,,8,,,,80,75
12370,note_off,400,0,13,,,,,,,,12,,,,52,64
12370,note_off,400,0,1,,,,,,,,0,,,,76,64
12370,note_off,400,0,12,,,,,,,,11,,,,64,64
12370,note_off,400,0,9,,,,,,,,7,,,,40,64
12370,note_off,0,0,1,,,,,,,,0,,,,71,64
12370,note_off,400,0,7,,,,,,,,5,,,,64,64
12370,note_off,0,0,2,,,,,,,,0,,,,40,64
12370,note_off,400,0,2,,,,,,,,0,,,,52,64
12370,note_off,400,0,8,,,,,,,,6,,,,52,64
12370,note_off,0,0,1,,,,,,,,0,,,,68,64
12370,note_off,0,0,1,,,,,,,,0,,,,64,64
12410,note_off,80,0,11,,,,,,,,10,,,,76,64
12410,note_off,80,0,6,,,,,,,,4,,,,76,64
12410,note_off,80,0,10,,,,,,,,8,,,,80,64
12410,note_off,80,0,5,,,,,,,,3,,,,80,64
12450,note_on,40,0,11,,,,,,,,10,,,,78,75
12450,note_on,0,0,1,,,,,,,,0,,,,68,60
12450,note_on,40,0,10,,,,,,,,8,,,,81,75
12450,note_on,0,0,1,,,,,,,,0,,,,71,60
12450,note_on,80,0,7,,,,,,,,5,,,,64,75
12450,note_on,80,0,1,,,,,,,,0,,,,64,60
12450,note_on,80,0,13,,,,,,,,12,,,,52,75
12450,note_on,80,0,9,,,,,,,,7,,,,40,75
12450,note_on,0,0,1,,,,,,,,0,,,,76,60
12450,note_on,40,0,5,,,,,,,,3,,,,81,92
12450,note_on,80,0,8,,,,,,,,6,,,,52,75
12450,note_on,80,0,2,,,,,,,,0,,,,40,60
12450,note_on,0,0,2,,,,,,,,0,,,,52,60
12450,note_on,40,0,6,,,,,,,,4,,,,78,92
12450,note_on,80,0,12,,,,,,,,11,,,,64,75
12530,note_off,80,0,6,,,,,,,,4,,,,78,64
12530,note_off,80,0,5,,,,,,,,3,,,,81,64
12530,note_off,80,0,11,,,,,,,,10,,,,78,64
12530,note_off,80,0,10,,,,,,,,8,,,,81,64
12690,note_on,160,0,10,,,,,,,,8,,,,83,75
12690,note_on,160,0,6,,,,,,,,4,,,,80,92
12690,note_on,160,0,11,,,,,,,,10,,,,80,75
12690,note_on,160,0,5,,,,,,,,3,,,,83,92
12700,note_off,400,0,15,,,,,,,,14,,,,40,64
12700,note_off,400,0,14,,,,,,,,13,,,,40,64
12770,note_off,80,0,5,,,,,,,,3,,,,83,64
12770,note_off,80,0,11,,,,,,,,10,,,,80,64
12770,note_off,80,0,6,,,,,,,,4,,,,80,64
12770,note_off,80,0,10,,,,,,,,8,,,,83,64
12780,note_on,80,0,14,,,,,,,,13,,,,40,75
12780,note_on,80,0,15,,,,,,,,14,,,,40,75
12850,note_off,400,0,7,,,,,,,,5,,,,64,64
12850,note_off,400,0,12,,,,,,,,11,,,,64,64
12850,note_off,400,0,2,,,,,,,,0,,,,52,64
12850,note_off,0,0,2,,,,,,,,0,,,,40,64
12850,note_off,400,0,9,,,,,,,,7,,,,40,64
12850,note_off,400,0,13,,,,,,,,12,,,,52,64
12850,note_off,400,0,1,,,,,,,,0,,,,76,64
12850,note_off,0,0,1,,,,,,,,0,,,,71,64
12850,note_off,0,0,1,,,,,,,,0,,,,68,64
12850,note_off,0,0,1,,,,,,,,0,,,,64,64
12850,note_off,400,0,8,,,,,,,,6,,,,52,64
12930,note_on,0,0,1,,,,,,,,0,,,,76,60
12930,note_on,80,0,8,,,,,,,,6,,,,52,75
12930,note_on,80,0,1,,,,,,,,0,,,,64,60
12930,note_on,0,0,1,,,,,,,,0,,,,68,60
12930,note_on,160,0,6,,,,,,,,4,,,,81,92
12930,note_on,0,0,1,,,,,,,,0,,,,71,60
12930,note_on,160,0,10,,,,,,,,8,,,,85,75
12930,note_on,160,0,11,,,,,,,,10,,,,81,75
12930,note_on,80,0,2,,,,,,,,0,,,,40,60
12930,note_on,80,0,13,,,,,,,,12,,,,52,75
12930,note_on,0,0,2,,,,,,,,0,,,,52,60
12930,note_on,80,0,9,,,,,,,,7,,,,40,75
12930,note_on,80,0,7,,,,,,,,5,,,,69,75
12930,note_on,160,0,5,,,,,,,,3,,,,85,92
12930,note_on,80,0,12,,,,,,,,11,,,,69,75
12930,note_on,0,0,2,,,,,,,,0,,,,47,60
13010,note_off,80,0,11,,,,,,,,10,,,,81,64
13010,note_off,80,0,6,,,,,,,,4,,,,81,64
13010,note_off,80,0,7,,,,,,,,5,,,,69,64
13010,note_off,80,0,12,,,,,,,,11,,,,69,64
13010,note_off,80,0,10,,,,,,,,8,,,,85,64
13010,note_off,80,0,5,,,,,,,,3,,,,85,64
13165,note_off,0,0,2,,,,,,,,0,,,,47,64
13165,note_off,235,0,2,,,,,,,,0,,,,52,64
13165,note_off,235,0,1,,,,,,,,0,,,,76,64
13165,note_off,0,0,1,,,,,,,,0,,,,71,64
13165,note_off,0,0,2,,,,,,,,0,,,,40,64
13165,note_off,0,0,1,,,,,,,,0,,,,68,64
13165,note_off,0,0,1,,,,,,,,0,,,,64,64
13170,note_on,160,0,5,,,,,,,,3,,,,83,92
13170,note_on,160,0,10,,,,,,,,8,,,,83,75
13170,note_on,160,0,12,,,,,,,,11,,,,64,75
13170,note_on,160,0,7,,,,,,,,5,,,,64,75
13170,note_on,0,0,1,,,,,,,,0,,,,71,45
13170,note_on,5,0,1,,,,,,,,0,,,,68,45
13170,note_on,5,0,2,,,,,,,,0,,,,56,45
13170,note_on,160,0,11,,,,,,,,10,,,,80,75
13170,note_on,160,0,6,,,,,,,,4,,,,80,92
13180,note_off,400,0,15,,,,,,,,14,,,,40,64
13180,note_off,400,0,14,,,,,,,,13,,,,40,64
13250,note_off,80,0,2,,,,,,,,0,,,,56,64
13250,note_off,0,0,1,,,,,,,,0,,,,68,64
13250,note_off,80,0,1,,,,,,,,0,,,,71,64
13260,note_on,80,0,15,,,,,,,,14,,,,40,75
13260,note_on,80,0,14,,,,,,,,13,,,,40,75
13290,note_on,40,0,2,,,,,,,,0,,,,57,45
13290,note_on,0,0,1,,,,,,,,0,,,,73,45
13290,note_on,40,0,1,,,,,,,,0,,,,69,45
13330,note_off,400,0,8,,,,,,,,6,,,,52,64
13330,note_off,400,0,13,,,,,,,,12,,,,52,64
13330,note_off,400,0,9,,,,,,,,7,,,,40,64
13370,note_off,80,0,2,,,,,,,,0,,,,57,64
13370,note_off,0,0,1,,,,,,,,0,,,,69,64
13370,note_off,80,0,1,,,,,,,,0,,,,73,64
13410,note_on,0,0,1,,,,,,,,0,,,,71,45
13410,note_on,0,0,1,,,,,,,,0,,,,68,45
13410,note_on,80,0,13,,,,,,,,12,,,,52,75
13410,note_on,40,0,1,,,,,,,,0,,,,59,45
13410,note_on,80,0,9,,,,,,,,7,,,,40,75
13410,note_on,40,0,2,,,,,,,,0,,,,40,45
13410,note_on,0,0,2,,,,,,,,0,,,,47,45
13410,note_on,80,0,8,,,,,,,,6,,,,52,75
13410,note_on,0,0,2,,,,,,,,0,,,,56,45
13570,note_off,400,0,10,,,,,,,,8,,,,83,64
13570,note_off,400,0,7,,,,,,,,5,,,,64,64
13570,note_off,400,0,12,,,,,,,,11,,,,64,64
13570,note_off,400,0,11,,,,,,,,10,,,,80,64
13570,note_off,400,0,6,,,,,,,,4,,,,80,64
13570,note_off,400,0,5,,,,,,,,3,,,,83,64
13650,note_on,80,0,7,,,,,,,,5,,,,64,30
13650,note_on,80,0,12,,,,,,,,11,,,,64,30
13650,note_on,80,0,11,,,,,,,,10,,,,71,30
13650,note_on,80,0,6,,,,,,,,4,,,,71,45
13650,note_on,80,0,5,,,,,,,,3,,,,76,45
13650,note_on,80,0,10,,,,,,,,8,,,,76,30
13660,note_off,400,0,14,,,,,,,,13,,,,40,64
13660,note_off,400,0,15,,,,,,,,14,,,,40,64
13730,note_off,80,0,5,,,,,,,,3,,,,76,64
13730,note_off,80,0,11,,,,,,,,10,,,,71,64
13730,note_off,80,0,6,,,,,,,,4,,,,71,64
13730,note_off,80,0,7,,,,,,,,5,,,,64,64
13730,note_off,80,0,10,,,,,,,,8,,,,76,64
13730,note_off,80,0,12,,,,,,,,11,,,,64,64
13740,note_on,80,0,14,,,,,,,,13,,,,40,75
13810,note_off,400,0,8,,,,,,,,6,,,,52,64
13810,note_off,400,0,13,,,,,,,,12,,,,52,64
13810,note_off,0,0,2,,,,,,,,0,,,,47,64
13810,note_off,400,0,1,,,,,,,,0,,,,71,64
13810,note_off,400,0,9,,,,,,,,7,,,,40,64
13810,note_off,0,0,1,,,,,,,,0,,,,68,64
13810,note_off,0,0,1,,,,,,,,0,,,,59,64
13810,note_off,400,0,2,,,,,,,,0,,,,56,64
13810,note_off,0,0,2,,,,,,,,0,,,,40,64
13890,note_on,160,0,10,,,,,,,,8,,,,83,30
13890,note_on,80,0,13,,,,,,,,12,,,,52,30
13890,note_on,160,0,5,,,,,,,,3,,,,83,45
13890,note_on,160,0,12,,,,,,,,11,,,,64,30
13890,note_on,160,0,11,,,,,,,,10,,,,80,30
13890,note_on,160,0,7,,,,,,,,5,,,,64,30
13890,note_on,80,0,9,,,,,,,,7,,,,40,30
13890,note_on,0,0,1,,,,,,,,0,,,,76,30
13890,note_on,80,0,8,,,,,,,,6,,,,52,30
13890,note_on,0,0,1,,,,,,,,0,,,,68,30
13890,note_on,0,0,1,,,,,,,,0,,,,71,30
13890,note_on,160,0,6,,,,,,,,4,,,,80,45
13890,note_on,80,0,1,,,,,,,,0,,,,64,30
13890,note_on,80,0,2,,,,,,,,0,,,,40,30
13890,note_on,0,0,2,,,,,,,,0,,,,52,30
13970,note_off,80,0,10,,,,,,,,8,,,,83,64
13970,note_off,80,0,5,,,,,,,,3,,,,83,64
13970,note_off,80,0,6,,,,,,,,4,,,,80,64
13970,note_off,80,0,11,,,,,,,,10,,,,80,64
14130,note_on,160,0,5,,,,,,,,3,,,,81,45
14130,note_on,160,0,6,,,,,,,,4,,,,78,45
14130,note_on,160,0,10,,,,,,,,8,,,,81,30
14130,note_on,160,0,11,,,,,,,,10,,,,78,30
14140,note_off,400,0,14,,,,,,,,13,,,,40,64
14210,note_off,80,0,11,,,,,,,,10,,,,78,64
14210,note_off,80,0,5,,,,,,,,3,,,,81,64
14210,note_off,80,0,6,,,,,,,,4,,,,78,64
14210,note_off,80,0,10,,,,,,,,8,,,,81,64
14220,note_on,560,0,15,,,,,,,,14,,,,40,30
14220,note_on,80,0,14,,,,,,,,13,,,,40,30
14250,note_on,40,0,11,,,,,,,,10,,,,76,30
14250,note_on,40,0,5,,,,,,,,3,,,,80,45
14250,note_on,40,0,10,,,,,,,,8,,,,80,30
14250,note_on,40,0,6,,,,,,,,4,,,,76,45
14290,note_off,400,0,2,,,,,,,,0,,,,52,64
14290,note_off,0,0,2,,,,,,,,0,,,,40,64
14290,note_off,400,0,9,,,,,,,,7,,,,40,64
14290,note_off,0,0,1,,,,,,,,0,,,,71,64
14290,note_off,400,0,1,,,,,,,,0,,,,76,64
14290,note_off,400,0,12,,,,,,,,11,,,,64,64
14290,note_off,400,0,7,,,,,,,,5,,,,64,64
14290,note_off,400,0,8,,,,,,,,6,,,,52,64
14290,note_off,400,0,13,,,,,,,,12,,,,52,64
14290,note_off,0,0,1,,,,,,,,0,,,,68,64
14290,note_off,0,0,1,,,,,,,,0,,,,64,64
14330,note_off,80,0,6,,,,,,,,4,,,,76,64
14330,note_off,80,0,10,,,,,,,,8,,,,80,64
14330,note_off,80,0,5,,,,,,,,3,,,,80,64
14330,note_off,80,0,11,,,,,,,,10,,,,76,64
14370,note_on,0,0,1,,,,,,,,0,,,,76,30
14370,note_on,40,0,6,,,,,,,,4,,,,78,45
14370,note_on,0,0,1,,,,,,,,0,,,,71,30
14370,note_on,80,0,13,,,,,,,,12,,,,52,30
14370,note_on,80,0,12,,,,,,,,11,,,,64,30
14370,note_on,80,0,1,,,,,,,,0,,,,64,30
14370,note_on,80,0,7,,,,,,,,5,,,,64,30
14370,note_on,40,0,11,,,,,,,,10,,,,78,30
14370,note_on,0,0,1,,,,,,,,0,,,,68,30
14370,note_on,40,0,5,,,,,,,,3,,,,81,45
14370,note_on,80,0,8,,,,,,,,6,,,,52,30
14370,note_on,0,0,2,,,,,,,,0,,,,52,30
14370,note_on,80,0,2,,,,,,,,0,,,,40,30
14370,note_on,80,0,9,,,,,,,,7,,,,40,30
14370,note_on,40,0,10,,,,,,,,8,,,,81,30
14450,note_off,80,0,11,,,,,,,,10,,,,78,64
14450,note_off,80,0,5,,,,,,,,3,,,,81,64
14450,note_off,80,0,6,,,,,,,,4,,,,78,64
14450,note_off,80,0,10,,,,,,,,8,,,,81,64
14610,note_on,160,0,10,,,,,,,,8,,,,83,30
14610,note_on,160,0,11,,,,,,,,10,,,,80,30
14610,note_on,160,0,6,,,,,,,,4,,,,80,45
14610,note_on,160,0,5,,,,,,,,3,,,,83,45
14620,note_off,400,0,14,,,,,,,,13,,,,40,64
14620,note_off,400,0,15,,,,,,,,14,,,,40,64
14690,note_off,80,0,10,,,,,,,,8,,,,83,64
14690,note_off,80,0,6,,,,,,,,4,,,,80,64
14690,note_off,80,0,5,,,,,,,,3,,,,83,64
14690,note_off,80,0,11,,,,,,,,10,,,,80,64
14700,note_on,80,0,14,,,,,,,,13,,,,40,30
14700,note_on,80,0,15,,,,,,,,14,,,,40,30
14770,note_off,400,0,8,,,,,,,,6,,,,52,64
14770,note_off,0,0,1,,,,,,,,0,,,,64,64
14770,note_off,400,0,2,,,,,,,,0,,,,52,64
14770,note_off,400,0,7,,,,,,,,5,,,,64,64
14770,note_off,400,0,12,,,,,,,,11,,,,64,64
14770,note_off,0,0,1,,,,,,,,0,,,,71,64
14770,note_off,0,0,2,,,,,,,,0,,,,40,64
14770,note_off,400,0,1,,,,,,,,0,,,,76,64
14770,note_off,400,0,13,,,,,,,,12,,,,52,64
14770,note_off,400,0,9,,,,,,,,7,,,,40,64
14770,note_off,0,0,1,,,,,,,,0,,,,68,64
14850,note_on,80,0,2,,,,,,,,0,,,,40,30
14850,note_on,160,0,10,,,,,,,,8,,,,85,30
14850,note_on,0,0,2,,,,,,,,0,,,,52,30
14850,note_on,80,0,8,,,,,,,,6,,,,52,30
14850,note_on,80,0,7,,,,,,,,5,,,,69,30
14850,note_on,160,0,6,,,,,,,,4,,,,81,45
14850,note_on,160,0,5,,,,,,,,3,,,,85,45
14850,note_on,80,0,12,,,,,,,,11,,,,69,30
14850,note_on,0,0,2,,,,,,,,0,,,,47,30
14850,note_on,80,0,9,,,,,,,,7,,,,40,30
14850,note_on,80,0,13,,,,,,,,12,,,,52,30
14850,note_on,160,0,11,,,,,,,,10,,,,81,30
14850,note_on,80,0,1,,,,,,,,0,,,,64,30
14850,note_on,0,0,1,,,,,,,,0,,,,68,30
14850,note_on,0,0,1,,,,,,,,0,,,,71,30
14850,note_on,0,0,1,,,,,,,,0,,,,76,30
14930,note_off,80,0,10,,,,,,,,8,,,,85,64
14930,note_off,80,0,12,,,,,,,,11,,,,69,64
14930,note_off,80,0,6,,,,,,,,4,,,,81,64
14930,note_off,80,0,5,,,,,,,,3,,,,85,64
14930,note_off,80,0,7,,,,,,,,5,,,,69,64
14930,note_off,80,0,11,,,,,,,,10,,,,81,64
15085,note_off,235,0,2,,,,,,,,0,,,,52,64
15085,note_off,0,0,2,,,,,,,,0,,,,47,64
15085,note_off,0,0,2,,,,,,,,0,,,,40,64
15085,note_off,235,0,1,,,,,,,,0,,,,76,64
15085,note_off,0,0,1,,,,,,,,0,,,,71,64
15085,note_off,0,0,1,,,,,,,,0,,,,68,64
15085,note_off,0,0,1,,,,,,,,0,,,,64,64
15090,note_on,160,0,7,,,,,,,,5,,,,64,30
15090,note_on,160,0,5,,,,,,,,3,,,,83,45
15090,note_on,160,0,12,,,,,,,,11,,,,64,30
15090,note_on,160,0,6,,,,,,,,4,,,,80,45
15090,note_on,5,0,1,,,,,,,,0,,,,68,45
15090,note_on,160,0,10,,,,,,,,8,,,,83,30
15090,note_on,160,0,11,,,,,,,,10,,,,80,30
15090,note_on,0,0,1,,,,,,,,0,,,,71,45
15090,note_on,5,0,2,,,,,,,,0,,,,59,45
15100,note_off,400,0,15,,,,,,,,14,,,,40,64
15100,note_off,400,0,14,,,,,,,,13,,,,40,64
15170,note_off,80,0,2,,,,,,,,0,,,,59,64
15170,note_off,0,0,1,,,,,,,,0,,,,68,64
15170,note_off,80,0,1,,,,,,,,0,,,,71,64
15180,note_on,80,0,14,,,,,,,,13,,,,40,30
15180,note_on,80,0,15,,,,,,,,14,,,,40,30
15210,note_on,40,0,1,,,,,,,,0,,,,69,45
15210,note_on,0,0,1,,,,,,,,0,,,,73,45
15210,note_on,40,0,2,,,,,,,,0,,,,57,45
15250,note_off,400,0,8,,,,,,,,6,,,,52,64
15250,note_off,400,0,13,,,,,,,,12,,,,52,64
15250,note_off,400,0,9,,,,,,,,7,,,,40,64
15290,note_off,80,0,1,,,,,,,,0,,,,73,64
15290,note_off,80,0,2,,,,,,,,0,,,,57,64
15290,note_off,0,0,1,,,,,,,,0,,,,69,64
15330,note_on,0,0,2,,,,,,,,0,,,,47,45
15330,note_on,0,0,2,,,,,,,,0,,,,56,45
15330,note_on,0,0,1,,,,,,,,0,,,,68,45
15330,note_on,40,0,1,,,,,,,,0,,,,59,45
15330,note_on,80,0,13,,,,,,,,12,,,,52,30
15330,note_on,80,0,8,,,,,,,,6,,,,52,30
15330,note_on,40,0,2,,,,,,,,0,,,,40,45
15330,note_on,80,0,9,,,,,,,,7,,,,40,30
15490,note_off,400,0,12,,,,,,,,11,,,,64,64
15490,note_off,400,0,6,,,,,,,,4,,,,80,64
15490,note_off,400,0,11,,,,,,,,10,,,,80,64
15490,note_off,400,0,10,,,,,,,,8,,,,83,64
15490,note_off,400,0,7,,,,,,,,5,,,,64,64
15490,note_off,400,0,5,,,,,,,,3,,,,83,64
15570,note_on,80,0,5,,,,,,,,3,,,,76,92
15570,note_on,80,0,12,,,,,,,,11,,,,64,75
15570,note_on,80,0,10,,,,,,,,8,,,,76,75
15570,note_on,80,0,11,,,,,,,,10,,,,71,75
15570,note_on,80,0,7,,,,,,,,5,,,,64,75
15570,note_on,80,0,6,,,,,,,,4,,,,71,92
15580,note_off,400,0,14,,,,,,,,13,,,,40,64
15580,note_off,400,0,15,,,,,,,,14,,,,40,64
15650,note_off,80,0,12,,,,,,,,11,,,,64,64
15650,note_off,80,0,5,,,,,,,,3,,,,76,64
15650,note_off,80,0,11,,,,,,,,10,,,,71,64
15650,note_off,80,0,6,,,,,,,,4,,,,71,64
15650,note_off,80,0,7,,,,,,,,5,,,,64,64
15650,note_off,80,0,10,,,,,,,,8,,,,76,64
15660,note_on,80,0,14,,,,,,,,13,,,,40,30
15730,note_off,400,0,1,,,,,,,,0,,,,68,64
15730,note_off,400,0,13,,,,,,,,12,,,,52,64
15730,note_off,0,0,1,,,,,,,,0,,,,59,64
15730,note_off,400,0,9,,,,,,,,7,,,,40,64
15730,note_off,400,0,2,,,,,,,,0,,,,56,64
15730,note_off,0,0,2,,,,,,,,0,,,,47,64
15730,note_off,0,0,2,,,,,,,,0,,,,40,64
15730,note_off,400,0,8,,,,,,,,6,,,,52,64
15810,note_on,160,0,7,,,,,,,,5,,,,69,75
15810,note_on,160,0,11,,,,,,,,10,,,,81,75
15810,note_on,0,0,2,,,,,,,,0,,,,52,60
15810,note_on,0,0,1,,,,,,,,0,,,,73,60
15810,note_on,80,0,13,,,,,,,,12,,,,52,75
15810,note_on,80,0,9,,,,,,,,7,,,,40,75
15810,note_on,160,0,10,,,,,,,,8,,,,85,75
15810,note_on,0,0,1,,,,,,,,0,,,,69,60
15810,note_on,160,0,5,,,,,,,,3,,,,85,92
15810,note_on,80,0,2,,,,,,,,0,,,,40,60
15810,note_on,160,0,12,,,,,,,,11,,,,69,75
15810,note_on,80,0,1,,,,,,,,0,,,,64,60
15810,note_on,160,0,6,,,,,,,,4,,,,81,92
15810,note_on,80,0,8,,,,,,,,6,,,,52,75
15890,note_off,80,0,11,,,,,,,,10,,,,81,64
15890,note_off,0,0,1,,,,,,,,0,,,,69,64
15890,note_off,80,0,10,,,,,,,,8,,,,85,64
15890,note_off,0,0,1,,,,,,,,0,,,,64,64
15890,note_off,80,0,7,,,,,,,,5,,,,69,64
15890,note_off,80,0,5,,,,,,,,3,,,,85,64
15890,note_off,80,0,6,,,,,,,,4,,,,81,64
15890,note_off,80,0,12,,,,,,,,11,,,,69,64
15890,note_off,80,0,1,,,,,,,,0,,,,73,64
16050,note_on,160,0,1,,,,,,,,0,,,,64,60
16050,note_on,160,0,10,,,,,,,,8,,,,83,75
16050,note_on,0,0,1,,,,,,,,0,,,,71,60
16050,note_on,160,0,7,,,,,,,,5,,,,64,75
16050,note_on,160,0,6,,,,,,,,4,,,,80,92
16050,note_on,0,0,1,,,,,,,,0,,,,68,60
16050,note_on,160,0,12,,,,,,,,11,,,,64,75
16050,note_on,160,0,11,,,,,,,,10,,,,80,75
16050,note_on,160,0,5,,,,,,,,3,,,,83,92
16060,note_off,400,0,14,,,,,,,,13,,,,40,64
16140,note_on,560,0,15,,,,,,,,14,,,,40,75
16140,note_on,80,0,14,,,,,,,,13,,,,40,75
16210,note_off,400,0,2,,,,,,,,0,,,,52,64
16210,note_off,400,0,8,,,,,,,,6,,,,52,64
16210,note_off,0,0,2,,,,,,,,0,,,,40,64
16210,note_off,400,0,13,,,,,,,,12,,,,52,64
16210,note_off,400,0,9,,,,,,,,7,,,,40,64
16290,note_on,80,0,2,,,,,,,,0,,,,40,60
16290,note_on,80,0,13,,,,,,,,12,,,,52,75
16290,note_on,0,0,2,,,,,,,,0,,,,52,60
16290,note_on,80,0,9,,,,,,,,7,,,,40,75
16290,note_on,80,0,8,,,,,,,,6,,,,52,75
16370,note_off,80,0,2,,,,,,,,0,,,,52,64
16370,note_off,80,0,9,,,,,,,,7,,,,40,64
16370,note_off,0,0,2,,,,,,,,0,,,,40,64
16370,note_off,80,0,13,,,,,,,,12,,,,52,64
16370,note_off,80,0,8,,,,,,,,6,,,,52,64
16450,note_off,400,0,6,,,,,,,,4,,,,80,64
16450,note_off,0,0,1,,,,,,,,0,,,,64,64
16450,note_off,0,0,1,,,,,,,,0,,,,68,64
16450,note_off,400,0,1,,,,,,,,0,,,,71,64
16450,note_off,400,0,11,,,,,,,,10,,,,80,64
16450,note_off,400,0,5,,,,,,,,3,,,,83,64
16450,note_off,400,0,10,,,,,,,,8,,,,83,64
16450,note_off,400,0,7,,,,,,,,5,,,,64,64
16450,note_off,400,0,12,,,,,,,,11,,,,64,64
16530,note_on,160,0,9,,,,,,,,7,,,,35,75
16530,note_on,160,0,13,,,,,,,,12,,,,47,75
16530,note_on,80,0,1,,,,,,,,0,,,,63,60
16530,note_on,0,0,1,,,,,,,,0,,,,69,60
16530,note_on,0,0,1,,,,,,,,0,,,,66,60
16530,note_on,80,0,11,,,,,,,,10,,,,78,75
16530,note_on,80,0,6,,,,,,,,4,,,,78,92
16530,note_on,80,0,10,,,,,,,,8,,,,81,75
16530,note_on,160,0,2,,,,,,,,0,,,,35,60
16530,note_on,160,0,8,,,,,,,,6,,,,47,75
16530,note_on,80,0,5,,,,,,,,3,,,,81,92
16530,note_on,0,0,2,,,,,,,,0,,,,47,60
16530,note_on,80,0,7,,,,,,,,5,,,,75,75
16530,note_on,80,0,12,,,,,,,,11,,,,75,75
16540,note_off,400,0,15,,,,,,,,14,,,,40,64
16540,note_off,400,0,14,,,,,,,,13,,,,40,64
16610,note_off,80,0,10,,,,,,,,8,,,,81,64
16610,note_off,80,0,6,,,,,,,,4,,,,78,64
16610,note_off,80,0,7,,,,,,,,5,,,,75,64
16610,note_off,80,0,9,,,,,,,,7,,,,35,64
16610,note_off,0,0,1,,,,,,,,0,,,,63,64
16610,note_off,80,0,11,,,,,,,,10,,,,78,64
16610,note_off,80,0,13,,,,,,,,12,,,,47,64
16610,note_off,0,0,2,,,,,,,,0,,,,35,64
16610,note_off,80,0,8,,,,,,,,6,,,,47,64
16610,note_off,80,0,2,,,,,,,,0,,,,47,64
16610,note_off,80,0,12,,,,,,,,11,,,,75,64
16610,note_off,0,0,1,,,,,,,,0,,,,66,64
16610,note_off,80,0,1,,,,,,,,0,,,,69,64
16610,note_off,80,0,5,,,,,,,,3,,,,81,64
16620,note_on,80,0,14,,,,,,,,13,,,,40,75
16620,note_on,80,0,15,,,,,,,,14,,,,40,75
16700,note_off,80,0,14,,,,,,,,13,,,,40,64
16700,note_off,80,0,15,,,,,,,,14,,,,40,64
16770,note_on,0,0,1,,,,,,,,0,,,,68,60
16770,note_on,160,0,10,,,,,,,,8,,,,80,75
16770,note_on,160,0,9,,,,,,,,7,,,,40,75
16770,note_on,160,0,6,,,,,,,,4,,,,76,92
16770,note_on,160,0,11,,,,,,,,10,,,,76,75
16770,note_on,160,0,2,,,,,,,,0,,,,40,60
16770,note_on,160,0,1,,,,,,,,0,,,,64,60
16770,note_on,160,0,8,,,,,,,,6,,,,52,75
16770,note_on,160,0,12,,,,,,,,11,,,,71,75
16770,note_on,160,0,7,,,,,,,,5,,,,71,75
16770,note_on,160,0,5,,,,,,,,3,,,,80,92
16770,note_on,0,0,2,,,,,,,,0,,,,52,60
16770,note_on,160,0,13,,,,,,,,12,,,,52,75
16850,note_off,0,0,2,,,,,,,,0,,,,40,64
16850,note_off,80,0,1,,,,,,,,0,,,,68,64
16850,note_off,80,0,13,,,,,,,,12,,,,52,64
16850,note_off,80,0,8,,,,,,,,6,,,,52,64
16850,note_off,80,0,9,,,,,,,,7,,,,40,64
16850,note_off,80,0,5,,,,,,,,3,,,,80,64
16850,note_off,80,0,10,,,,,,,,8,,,,80,64
16850,note_off,0,0,1,,,,,,,,0,,,,64,64
16850,note_off,80,0,2,,,,,,,,0,,,,52,64
16850,note_off,80,0,11,,,,,,,,10,,,,76,64
16850,note_off,80,0,6,,,,,,,,4,,,,76,64
16860,note_on,160,0,15,,,,,,,,14,,,,35,75
16860,note_on,160,0,14,,,,,,,,13,,,,35,75
16940,note_off,80,0,14,,,,,,,,13,,,,35,64
16940,note_off,80,0,15,,,,,,,,14,,,,35,64
17010,note_on,160,0,6,,,,,,,,4,,,,75,92
17010,note_on,0,0,1,,,,,,,,0,,,,66,60
17010,note_on,160,0,1,,,,,,,,0,,,,63,60
17010,note_on,160,0,5,,,,,,,,3,,,,78,92
17010,note_on,160,0,10,,,,,,,,8,,,,78,75
17010,note_on,160,0,11,,,,,,,,10,,,,75,75
17010,note_on,160,0,13,,,,,,,,12,,,,40,75
17010,note_on,0,0,2,,,,,,,,0,,,,40,60
17010,note_on,160,0,2,,,,,,,,0,,,,28,60
17010,note_on,160,0,8,,,,,,,,6,,,,40,75
17010,note_on,160,0,9,,,,,,,,7,,,,28,75
17090,note_off,80,0,1,,,,,,,,0,,,,66,64
17090,note_off,0,0,1,,,,,,,,0,,,,63,64
17090,note_off,80,0,6,,,,,,,,4,,,,75,64
17090,note_off,80,0,13,,,,,,,,12,,,,40,64
17090,note_off,0,0,2,,,,,,,,0,,,,28,64
17090,note_off,80,0,2,,,,,,,,0,,,,40,64
17090,note_off,80,0,5,,,,,,,,3,,,,78,64
17090,note_off,80,0,8,,,,,,,,6,,,,40,64
17090,note_off,80,0,11,,,,,,,,10,,,,75,64
17090,note_off,80,0,9,,,,,,,,7,,,,28,64
17090,note_off,80,0,10,,,,,,,,8,,,,78,64
17100,note_on,160,0,14,,,,,,,,13,,,,40,75
17100,note_on,160,0,15,,,,,,,,14,,,,40,75
17130,note_on,40,0,10,,,,,,,,8,,,,76,75
17130,note_on,40,0,5,,,,,,,,3,,,,76,92
17130,note_on,40,0,6,,,,,,,,4,,,,73,92
17130,note_on,40,0,11,,,,,,,,10,,,,73,75
17130,note_on,40,0,1,,,,,,,,0,,,,61,60
17130,note_on,0,0,1,,,,,,,,0,,,,64,60
17170,note_off,400,0,7,,,,,,,,5,,,,71,64
17170,note_off,400,0,12,,,,,,,,11,,,,71,64
17180,note_off,80,0,15,,,,,,,,14,,,,40,64
17180,note_off,80,0,14,,,,,,,,13,,,,40,64
17210,note_off,80,0,1,,,,,,,,0,,,,64,64
17210,note_off,80,0,11,,,,,,,,10,,,,73,64
17210,note_off,80,0,5,,,,,,,,3,,,,76,64
17210,note_off,80,0,6,,,,,,,,4,,,,73,64
17210,note_off,80,0,10,,,,,,,,8,,,,76,64
17210,note_off,0,0,1,,,,,,,,0,,,,61,64
17250,note_on,80,0,12,,,,,,,,11,,,,71,75
17250,note_on,40,0,6,,,,,,,,4,,,,71,92
17250,note_on,40,0,11,,,,,,,,10,,,,71,75
17250,note_on,160,0,13,,,,,,,,12,,,,59,75
17250,note_on,80,0,7,,,,,,,,5,,,,71,75
17250,note_on,160,0,2,,,,,,,,0,,,,47,60
17250,note_on,0,0,1,,,,,,,,0,,,,64,60
17250,note_on,0,0,1,,,,,,,,0,,,,66,60
17250,note_on,160,0,8,,,,,,,,6,,,,59,75
17250,note_on,160,0,9,,,,,,,,7,,,,47,75
17250,note_on,0,0,2,,,,,,,,0,,,,59,60
17250,note_on,40,0,10,,,,,,,,8,,,,80,75
17250,note_on,40,0,5,,,,,,,,3,,,,80,92
17250,note_on,40,0,1,,,,,,,,0,,,,59,60
17280,note_off,30,0,11,,,,,,,,10,,,,71,64
17280,note_on,0,0,11,,,,,,,,10,,,,73,75
17280,note_off,30,0,5,,,,,,,,3,,,,80,64
17280,note_on,0,0,5,,,,,,,,3,,,,81,92
17280,note_on,0,0,10,,,,,,,,8,,,,81,75
17280,note_off,30,0,10,,,,,,,,8,,,,80,64
17280,note_off,30,0,6,,,,,,,,4,,,,71,64
17280,note_on,0,0,6,,,,,,,,4,,,,73,92
17310,note_on,0,0,5,,,,,,,,3,,,,80,92
17310,note_on,0,0,11,,,,,,,,10,,,,71,75
17310,note_off,30,0,10,,,,,,,,8,,,,81,64
17310,note_on,0,0,10,,,,,,,,8,,,,80,75
17310,note_off,30,0,11,,,,,,,,10,,,,73,64
17310,note_off,30,0,6,,,,,,,,4,,,,73,64
17310,note_on,0,0,6,,,,,,,,4,,,,71,92
17310,note_off,30,0,5,,,,,,,,3,,,,81,64
17330,note_off,80,0,8,,,,,,,,6,,,,59,64
17330,note_off,80,0,9,,,,,,,,7,,,,47,64
17330,note_off,80,0,13,,,,,,,,12,,,,59,64
17340,note_on,160,0,14,,,,,,,,13,,,,28,75
17340,note_off,30,0,10,,,,,,,,8,,,,80,64
17340,note_on,0,0,10,,,,,,,,8,,,,81,75
17340,note_off,30,0,11,,,,,,,,10,,,,71,64
17340,note_on,0,0,11,,,,,,,,10,,,,73,75
17340,note_on,0,0,6,,,,,,,,4,,,,73,92
17340,note_off,30,0,6,,,,,,,,4,,,,71,64
17340,note_on,160,0,15,,,,,,,,14,,,,28,75
17340,note_on,0,0,5,,,,,,,,3,,,,81,92
17340,note_off,30,0,5,,,,,,,,3,,,,80,64
17370,note_off,30,0,5,,,,,,,,3,,,,81,64
17370,note_on,0,0,5,,,,,,,,3,,,,80,92
17370,note_off,30,0,6,,,,,,,,4,,,,73,64
17370,note_on,0,0,6,,,,,,,,4,,,,71,92
17370,note_on,0,0,11,,,,,,,,10,,,,71,75
17370,note_off,30,0,11,,,,,,,,10,,,,73,64
17370,note_on,0,0,10,,,,,,,,8,,,,80,75
17370,note_off,30,0,10,,,,,,,,8,,,,81,64
17400,note_off,30,0,6,,,,,,,,4,,,,71,64
17400,note_off,30,0,11,,,,,,,,10,,,,71,64
17400,note_on,0,0,6,,,,,,,,4,,,,73,92
17400,note_off,30,0,5,,,,,,,,3,,,,80,64
17400,note_off,30,0,10,,,,,,,,8,,,,80,64
17400,note_on,0,0,10,,,,,,,,8,,,,81,75
17400,note_on,0,0,5,,,,,,,,3,,,,81,92
17400,note_on,0,0,11,,,,,,,,10,,,,73,75
17420,note_off,80,0,14,,,,,,,,13,,,,28,64
17420,note_off,80,0,15,,,,,,,,14,,,,28,64
17430,note_off,30,0,10,,,,,,,,8,,,,81,64
17430,note_on,0,0,6,,,,,,,,4,,,,71,92
17430,note_off,30,0,6,,,,,,,,4,,,,73,64
17430,note_off,30,0,5,,,,,,,,3,,,,81,64
17430,note_on,0,0,11,,,,,,,,10,,,,71,75
17430,note_off,30,0,11,,,,,,,,10,,,,73,64
17430,note_on,0,0,10,,,,,,,,8,,,,80,75
17430,note_on,0,0,5,,,,,,,,3,,,,80,92
17460,note_on,0,0,11,,,,,,,,10,,,,73,75
17460,note_on,0,0,6,,,,,,,,4,,,,73,92
17460,note_off,30,0,5,,,,,,,,3,,,,80,64
17460,note_off,30,0,6,,,,,,,,4,,,,71,64
17460,note_off,30,0,11,,,,,,,,10,,,,71,64
17460,note_on,0,0,10,,,,,,,,8,,,,81,75
17460,note_off,30,0,10,,,,,,,,8,,,,80,64
17460,note_on,0,0,5,,,,,,,,3,,,,81,92
17490,note_off,30,0,5,,,,,,,,3,,,,81,64
17490,note_on,0,0,5,,,,,,,,3,,,,80,92
17490,note_on,0,0,10,,,,,,,,8,,,,80,75
17490,note_off,30,0,10,,,,,,,,8,,,,81,64
17490,note_on,0,0,11,,,,,,,,10,,,,71,75
17490,note_on,160,0,8,,,,,,,,6,,,,47,75
17490,note_off,30,0,6,,,,,,,,4,,,,73,64
17490,note_on,160,0,13,,,,,,,,12,,,,47,75
17490,note_on,0,0,2,,,,,,,,0,,,,35,60
17490,note_off,0,0,2,,,,,,,,0,,,,47,64
17490,note_on,0,0,2,,,,,,,,0,,,,47,60
17490,note_on,0,0,6,,,,,,,,4,,,,71,92
17490,note_on,0,0,1,,,,,,,,0,,,,66,60
17490,note_on,160,0,9,,,,,,,,7,,,,35,75
17490,note_on,0,0,1,,,,,,,,0,,,,63,60
17490,note_on,0,0,1,,,,,,,,0,,,,59,60
17490,note_off,0,0,1,,,,,,,,0,,,,59,64
17490,note_off,30,0,11,,,,,,,,10,,,,73,64
17490,note_off,240,0,2,,,,,,,,0,,,,59,64
17490,note_off,240,0,1,,,,,,,,0,,,,66,64
17490,note_off,0,0,1,,,,,,,,0,,,,64,64
17520,note_off,30,0,10,,,,,,,,8,,,,80,64
17520,note_on,0,0,10,,,,,,,,8,,,,81,75
17520,note_on,0,0,6,,,,,,,,4,,,,73,92
17520,note_off,30,0,6,,,,,,,,4,,,,71,64
17520,note_off,30,0,5,,,,,,,,3,,,,80,64
17520,note_off,30,0,11,,,,,,,,10,,,,71,64
17520,note_on,0,0,11,,,,,,,,10,,,,73,75
17520,note_on,0,0,5,,,,,,,,3,,,,81,92
17550,note_on,0,0,6,,,,,,,,4,,,,71,92
17550,note_off,30,0,5,,,,,,,,3,,,,81,64
17550,note_on,0,0,5,,,,,,,,3,,,,80,92
17550,note_off,30,0,6,,,,,,,,4,,,,73,64
17550,note_on,0,0,11,,,,,,,,10,,,,71,75
17550,note_off,30,0,10,,,,,,,,8,,,,81,64
17550,note_off,30,0,11,,,,,,,,10,,,,73,64
17550,note_on,0,0,10,,,,,,,,8,,,,80,75
17570,note_off,0,0,1,,,,,,,,0,,,,63,64
17570,note_off,0,0,1,,,,,,,,0,,,,59,64
17570,note_off,0,0,2,,,,,,,,0,,,,35,64
17570,note_off,80,0,2,,,,,,,,0,,,,47,64
17570,note_off,80,0,13,,,,,,,,12,,,,47,64
17570,note_off,80,0,8,,,,,,,,6,,,,47,64
17570,note_off,80,0,1,,,,,,,,0,,,,66,64
17570,note_off,80,0,9,,,,,,,,7,,,,35,64
17580,note_on,160,0,14,,,,,,,,13,,,,47,75
17580,note_on,160,0,15,,,,,,,,14,,,,47,75
17590,note_off,40,0,5,,,,,,,,3,,,,80,64
17590,note_off,40,0,10,,,,,,,,8,,,,80,64
17590,note_off,40,0,6,,,,,,,,4,,,,71,64
17590,note_off,40,0,11,,,,,,,,10,,,,71,64
17610,note_on,20,0,11,,,,,,,,10,,,,71,75
17610,note_on,20,0,10,,,,,,,,8,,,,78,75
17610,note_on,20,0,6,,,,,,,,4,,,,71,92
17610,note_on,20,0,5,,,,,,,,3,,,,78,92
17650,note_off,400,0,7,,,,,,,,5,,,,71,64
17650,note_off,400,0,12,,,,,,,,11,,,,71,64
17660,note_off,80,0,15,,,,,,,,14,,,,47,64
17660,note_off,80,0,14,,,,,,,,13,,,,47,64
17690,note_off,80,0,5,,,,,,,,3,,,,78,64
17690,note_off,80,0,10,,,,,,,,8,,,,78,64
17690,note_off,80,0,11,,,,,,,,10,,,,71,64
17690,note_off,80,0,6,,,,,,,,4,,,,71,64
17730,note_on,40,0,5,,,,,,,,3,,,,76,92
17730,note_on,40,0,10,,,,,,,,8,,,,76,75
17730,note_on,160,0,8,,,,,,,,6,,,,52,75
17730,note_on,160,0,9,,,,,,,,7,,,,40,75
17730,note_on,40,0,6,,,,,,,,4,,,,71,92
17730,note_on,80,0,7,,,,,,,,5,,,,68,75
17730,note_on,160,0,1,,,,,,,,0,,,,64,60
17730,note_on,80,0,12,,,,,,,,11,,,,68,75
17730,note_on,0,0,1,,,,,,,,0,,,,68,60
17730,note_on,0,0,1,,,,,,,,0,,,,71,60
17730,note_on,0,0,2,,,,,,,,0,,,,52,60
17730,note_on,160,0,13,,,,,,,,12,,,,52,75
17730,note_on,160,0,2,,,,,,,,0,,,,40,60
17730,note_on,40,0,11,,,,,,,,10,,,,71,75
17820,note_on,160,0,14,,,,,,,,13,,,,35,75
17820,note_on,160,0,15,,,,,,,,14,,,,35,75
17900,note_off,80,0,14,,,,,,,,13,,,,35,64
17900,note_off,80,0,15,,,,,,,,14,,,,35,64
18060,note_on,160,0,14,,,,,,,,13,,,,40,75
18060,note_on,160,0,15,,,,,,,,14,,,,40,75
18130,note_off,400,0,1,,,,,,,,0,,,,71,64
18130,note_off,400,0,2,,,,,,,,0,,,,52,64
18130,note_off,0,0,1,,,,,,,,0,,,,68,64
18130,note_off,400,0,13,,,,,,,,12,,,,52,64
18130,note_off,0,0,1,,,,,,,,0,,,,64,64
18130,note_off,400,0,6,,,,,,,,4,,,,71,64
18130,note_off,400,0,8,,,,,,,,6,,,,52,64
18130,note_off,400,0,10,,,,,,,,8,,,,76,64
18130,note_off,400,0,9,,,,,,,,7,,,,40,64
18130,note_off,0,0,2,,,,,,,,0,,,,40,64
18130,note_off,400,0,12,,,,,,,,11,,,,68,64
18130,note_off,400,0,5,,,,,,,,3,,,,76,64
18130,note_off,400,0,7,,,,,,,,5,,,,68,64
18130,note_off,400,0,11,,,,,,,,10,,,,71,64
18460,note_off,400,0,15,,,,,,,,14,,,,40,64
18460,note_off,400,0,14,,,,,,,,13,,,,40,64
18480,note_on,350,0,9,,,,,,,,7,,,,40,30
18480,note_on,350,0,12,,,,,,,,11,,,,71,30
18480,note_on,350,0,10,,,,,,,,8,,,,80,30
18480,note_on,350,0,7,,,,,,,,5,,,,71,30
18480,note_on,350,0,11,,,,,,,,10,,,,76,30
18480,note_on,350,0,13,,,,,,,,12,,,,52,30
18480,note_on,350,0,5,,,,,,,,3,,,,80,45
18480,note_on,350,0,6,,,,,,,,4,,,,76,45
18480,note_on,350,0,8,,,,,,,,6,,,,52,30
18560,note_off,80,0,12,,,,,,,,11,,,,71,64
18560,note_off,80,0,10,,,,,,,,8,,,,80,64
18560,note_off,80,0,7,,,,,,,,5,,,,71,64
18560,note_off,80,0,5,,,,,,,,3,,,,80,64
18560,note_off,80,0,11,,,,,,,,10,,,,76,64
18560,note_off,80,0,6,,,,,,,,4,,,,76,64
18715,note_off,235,0,8,,,,,,,,6,,,,52,64
18715,note_off,235,0,9,,,,,,,,7,,,,40,64
18715,note_off,235,0,13,,,,,,,,12,,,,52,64
18720,note_on,0,0,1,,,,,,,,0,,,,68,30
18720,note_on,160,0,5,,,,,,,,3,,,,83,45
18720,note_on,5,0,9,,,,,,,,7,,,,40,30
18720,note_on,0,0,1,,,,,,,,0,,,,76,30
18720,note_on,160,0,10,,,,,,,,8,,,,83,30
18720,note_on,160,0,11,,,,,,,,10,,,,80,30
18720,note_on,590,0,1,,,,,,,,0,,,,64,30
18720,note_on,0,0,1,,,,,,,,0,,,,71,30
18720,note_on,160,0,7,,,,,,,,5,,,,64,30
18720,note_on,0,0,2,,,,,,,,0,,,,52,30
18720,note_on,0,0,2,,,,,,,,0,,,,47,30
18720,note_on,590,0,2,,,,,,,,0,,,,40,30
18720,note_on,160,0,12,,,,,,,,11,,,,64,30
18720,note_on,160,0,6,,,,,,,,4,,,,80,45
18720,note_on,5,0,8,,,,,,,,6,,,,52,30
18720,note_on,5,0,13,,,,,,,,12,,,,52,30
18800,note_off,80,0,11,,,,,,,,10,,,,80,64
18800,note_off,80,0,5,,,,,,,,3,,,,83,64
18800,note_off,80,0,10,,,,,,,,8,,,,83,64
18800,note_off,80,0,6,,,,,,,,4,,,,80,64
18810,note_on,350,0,14,,,,,,,,13,,,,40,30
18960,note_on,160,0,5,,,,,,,,3,,,,81,45
18960,note_on,160,0,10,,,,,,,,8,,,,81,30
18960,note_on,160,0,11,,,,,,,,10,,,,78,30
18960,note_on,160,0,6,,,,,,,,4,,,,78,45
19040,note_off,80,0,11,,,,,,,,10,,,,78,64
19040,note_off,80,0,10,,,,,,,,8,,,,81,64
19040,note_off,80,0,5,,,,,,,,3,,,,81,64
19040,note_off,80,0,6,,,,,,,,4,,,,78,64
19045,note_off,235,0,14,,,,,,,,13,,,,40,64
19050,note_on,5,0,14,,,,,,,,13,,,,40,30
19050,note_on,590,0,15,,,,,,,,14,,,,40,30
19080,note_on,40,0,11,,,,,,,,10,,,,76,30
19080,note_on,40,0,6,,,,,,,,4,,,,76,45
19080,note_on,40,0,5,,,,,,,,3,,,,80,45
19080,note_on,40,0,10,,,,,,,,8,,,,80,30
19120,note_off,400,0,2,,,,,,,,0,,,,52,64
19120,note_off,400,0,1,,,,,,,,0,,,,76,64
19120,note_off,0,0,1,,,,,,,,0,,,,71,64
19120,note_off,0,0,1,,,,,,,,0,,,,68,64
19120,note_off,400,0,9,,,,,,,,7,,,,40,64
19120,note_off,0,0,1,,,,,,,,0,,,,64,64
19120,note_off,400,0,8,,,,,,,,6,,,,52,64
19120,note_off,400,0,13,,,,,,,,12,,,,52,64
19120,note_off,0,0,2,,,,,,,,0,,,,40,64
19120,note_off,0,0,2,,,,,,,,0,,,,47,64
19120,note_off,400,0,12,,,,,,,,11,,,,64,64
19120,note_off,400,0,7,,,,,,,,5,,,,64,64
19160,note_off,80,0,6,,,,,,,,4,,,,76,64
19160,note_off,80,0,5,,,,,,,,3,,,,80,64
19160,note_off,80,0,10,,,,,,,,8,,,,80,64
19160,note_off,80,0,11,,,,,,,,10,,,,76,64
19200,note_on,0,0,2,,,,,,,,0,,,,52,30
19200,note_on,0,0,2,,,,,,,,0,,,,47,30
19200,note_on,80,0,2,,,,,,,,0,,,,40,30
19200,note_on,0,0,1,,,,,,,,0,,,,68,30
19200,note_on,80,0,1,,,,,,,,0,,,,64,30
19200,note_on,40,0,5,,,,,,,,3,,,,81,45
19200,note_on,40,0,6,,,,,,,,4,,,,78,45
19200,note_on,80,0,13,,,,,,,,12,,,,52,30
19200,note_on,0,0,1,,,,,,,,0,,,,76,30
19200,note_on,80,0,9,,,,,,,,7,,,,40,30
19200,note_on,40,0,11,,,,,,,,10,,,,78,30
19200,note_on,0,0,1,,,,,,,,0,,,,71,30
19200,note_on,80,0,7,,,,,,,,5,,,,64,30
19200,note_on,40,0,10,,,,,,,,8,,,,81,30
19200,note_on,80,0,12,,,,,,,,11,,,,64,30
19200,note_on,80,0,8,,,,,,,,6,,,,52,30
19280,note_off,80,0,5,,,,,,,,3,,,,81,64
19280,note_off,80,0,11,,,,,,,,10,,,,78,64
19280,note_off,80,0,6,,,,,,,,4,,,,78,64
19280,note_off,80,0,10,,,,,,,,8,,,,81,64
19440,note_on,160,0,10,,,,,,,,8,,,,83,30
19440,note_on,160,0,11,,,,,,,,10,,,,80,30
19440,note_on,160,0,6,,,,,,,,4,,,,80,45
19440,note_on,160,0,5,,,,,,,,3,,,,83,45
19450,note_off,400,0,14,,,,,,,,13,,,,40,64
19450,note_off,400,0,15,,,,,,,,14,,,,40,64
19520,note_off,80,0,5,,,,,,,,3,,,,83,64
19520,note_off,80,0,10,,,,,,,,8,,,,83,64
19520,note_off,80,0,6,,,,,,,,4,,,,80,64
19520,note_off,80,0,11,,,,,,,,10,,,,80,64
19530,note_on,80,0,14,,,,,,,,13,,,,40,30
19530,note_on,80,0,15,,,,,,,,14,,,,40,30
19600,note_off,0,0,2,,,,,,,,0,,,,47,64
19600,note_off,400,0,9,,,,,,,,7,,,,40,64
19600,note_off,400,0,7,,,,,,,,5,,,,64,64
19600,note_off,400,0,12,,,,,,,,11,,,,64,64
19600,note_off,400,0,13,,,,,,,,12,,,,52,64
19600,note_off,0,0,1,,,,,,,,0,,,,64,64
19600,note_off,0,0,2,,,,,,,,0,,,,40,64
19600,note_off,400,0,2,,,,,,,,0,,,,52,64
19600,note_off,0,0,1,,,,,,,,0,,,,71,64
19600,note_off,400,0,8,,,,,,,,6,,,,52,64
19600,note_off,400,0,1,,,,,,,,0,,,,76,64
19600,note_off,0,0,1,,,,,,,,0,,,,68,64
19680,note_on,80,0,1,,,,,,,,0,,,,64,30
19680,note_on,80,0,9,,,,,,,,7,,,,40,30
19680,note_on,80,0,8,,,,,,,,6,,,,52,30
19680,note_on,160,0,5,,,,,,,,3,,,,85,45
19680,note_on,160,0,10,,,,,,,,8,,,,85,30
19680,note_on,160,0,6,,,,,,,,4,,,,81,45
19680,note_on,80,0,2,,,,,,,,0,,,,40,30
19680,note_on,0,0,2,,,,,,,,0,,,,47,30
19680,note_on,0,0,2,,,,,,,,0,,,,52,30
19680,note_on,160,0,11,,,,,,,,10,,,,81,30
19680,note_on,80,0,7,,,,,,,,5,,,,69,30
19680,note_on,0,0,1,,,,,,,,0,,,,76,30
19680,note_on,0,0,1,,,,,,,,0,,,,71,30
19680,note_on,0,0,1,,,,,,,,0,,,,68,30
19680,note_on,80,0,12,,,,,,,,11,,,,69,30
19680,note_on,80,0,13,,,,,,,,12,,,,52,30
19760,note_off,80,0,10,,,,,,,,8,,,,85,64
19760,note_off,80,0,12,,,,,,,,11,,,,69,64
19760,note_off,80,0,7,,,,,,,,5,,,,69,64
19760,note_off,80,0,6,,,,,,,,4,,,,81,64
19760,note_off,80,0,11,,,,,,,,10,,,,81,64
19760,note_off,80,0,5,,,,,,,,3,,,,85,64
19915,note_off,235,0,2,,,,,,,,0,,,,52,64
19915,note_off,0,0,2,,,,,,,,0,,,,47,64
19915,note_off,235,0,1,,,,,,,,0,,,,76,64
19915,note_off,0,0,1,,,,,,,,0,,,,71,64
19915,note_off,0,0,1,,,,,,,,0,,,,68,64
19915,note_off,0,0,1,,,,,,,,0,,,,64,64
19915,note_off,0,0,2,,,,,,,,0,,,,40,64
19920,note_on,160,0,12,,,,,,,,11,,,,64,30
19920,note_on,160,0,6,,,,,,,,4,,,,80,45
19920,note_on,160,0,11,,,,,,,,10,,,,80,30
19920,note_on,5,0,1,,,,,,,,0,,,,68,45
19920,note_on,160,0,7,,,,,,,,5,,,,64,30
19920,note_on,160,0,10,,,,,,,,8,,,,83,30
19920,note_on,5,0,2,,,,,,,,0,,,,56,45
19920,note_on,160,0,5,,,,,,,,3,,,,83,45
19930,note_off,400,0,15,,,,,,,,14,,,,40,64
19930,note_off,400,0,14,,,,,,,,13,,,,40,64
20000,note_off,80,0,2,,,,,,,,0,,,,56,64
20000,note_off,80,0,1,,,,,,,,0,,,,68,64
20010,note_on,80,0,14,,,,,,,,13,,,,40,30
20010,note_on,80,0,15,,,,,,,,14,,,,40,30
20040,note_on,40,0,1,,,,,,,,0,,,,69,45
20040,note_on,40,0,2,,,,,,,,0,,,,57,45
20080,note_off,400,0,8,,,,,,,,6,,,,52,64
20080,note_off,400,0,9,,,,,,,,7,,,,40,64
20080,note_off,400,0,13,,,,,,,,12,,,,52,64
20120,note_off,80,0,1,,,,,,,,0,,,,69,64
20120,note_off,80,0,2,,,,,,,,0,,,,57,64
20160,note_on,40,0,2,,,,,,,,0,,,,59,45
20160,note_on,80,0,9,,,,,,,,7,,,,40,30
20160,note_on,80,0,8,,,,,,,,6,,,,52,30
20160,note_on,80,0,13,,,,,,,,12,,,,52,30
20160,note_on,40,0,1,,,,,,,,0,,,,71,45
20320,note_off,400,0,12,,,,,,,,11,,,,64,64
20320,note_off,400,0,7,,,,,,,,5,,,,64,64
20320,note_off,400,0,5,,,,,,,,3,,,,83,64
20320,note_off,400,0,11,,,,,,,,10,,,,80,64
20320,note_off,400,0,10,,,,,,,,8,,,,83,64
20320,note_off,400,0,6,,,,,,,,4,,,,80,64
20400,note_on,80,0,5,,,,,,,,3,,,,80,30
20400,note_on,80,0,12,,,,,,,,11,,,,71,10
20400,note_on,80,0,7,,,,,,,,5,,,,71,10
20400,note_on,80,0,10,,,,,,,,8,,,,80,10
20400,note_on,80,0,11,,,,,,,,10,,,,76,10
20400,note_on,80,0,6,,,,,,,,4,,,,76,30
20410,note_off,400,0,14,,,,,,,,13,,,,40,64
20410,note_off,400,0,15,,,,,,,,14,,,,40,64
20480,note_off,80,0,5,,,,,,,,3,,,,80,64
20480,note_off,80,0,10,,,,,,,,8,,,,80,64
20480,note_off,80,0,7,,,,,,,,5,,,,71,64
20480,note_off,80,0,12,,,,,,,,11,,,,71,64
20480,note_off,80,0,6,,,,,,,,4,,,,76,64
20480,note_off,80,0,11,,,,,,,,10,,,,76,64
20490,note_on,80,0,14,,,,,,,,13,,,,40,30
20490,note_on,80,0,15,,,,,,,,14,,,,40,30
20560,note_off,400,0,13,,,,,,,,12,,,,52,64
20560,note_off,400,0,9,,,,,,,,7,,,,40,64
20560,note_off,400,0,8,,,,,,,,6,,,,52,64
20560,note_off,400,0,2,,,,,,,,0,,,,59,64
20560,note_off,400,0,1,,,,,,,,0,,,,71,64
20640,note_on,160,0,5,,,,,,,,3,,,,83,30
20640,note_on,160,0,7,,,,,,,,5,,,,64,10
20640,note_on,80,0,8,,,,,,,,6,,,,52,10
20640,note_on,160,0,10,,,,,,,,8,,,,83,10
20640,note_on,80,0,1,,,,,,,,0,,,,64,10
20640,note_on,160,0,12,,,,,,,,11,,,,64,10
20640,note_on,0,0,1,,,,,,,,0,,,,68,10
20640,note_on,160,0,6,,,,,,,,4,,,,80,30
20640,note_on,0,0,1,,,,,,,,0,,,,71,10
20640,note_on,0,0,1,,,,,,,,0,,,,76,10
20640,note_on,80,0,13,,,,,,,,12,,,,52,10
20640,note_on,80,0,2,,,,,,,,0,,,,52,10
20640,note_on,160,0,11,,,,,,,,10,,,,80,10
20640,note_on,80,0,9,,,,,,,,7,,,,40,10
20720,note_off,80,0,5,,,,,,,,3,,,,83,64
20720,note_off,80,0,11,,,,,,,,10,,,,80,64
20720,note_off,80,0,10,,,,,,,,8,,,,83,64
20720,note_off,80,0,6,,,,,,,,4,,,,80,64
20880,note_on,160,0,5,,,,,,,,3,,,,81,30
20880,note_on,160,0,11,,,,,,,,10,,,,78,10
20880,note_on,160,0,10,,,,,,,,8,,,,81,10
20880,note_on,160,0,6,,,,,,,,4,,,,78,30
20890,note_off,400,0,14,,,,,,,,13,,,,40,64
20890,note_off,400,0,15,,,,,,,,14,,,,40,64
20960,note_off,80,0,5,,,,,,,,3,,,,81,64
20960,note_off,80,0,10,,,,,,,,8,,,,81,64
20960,note_off,80,0,11,,,,,,,,10,,,,78,64
20960,note_off,80,0,6,,,,,,,,4,,,,78,64
20970,note_on,80,0,15,,,,,,,,14,,,,40,10
20970,note_on,80,0,14,,,,,,,,13,,,,40,10
21000,note_on,40,0,6,,,,,,,,4,,,,76,30
21000,note_on,40,0,5,,,,,,,,3,,,,80,30
21000,note_on,40,0,11,,,,,,,,10,,,,76,10
21000,note_on,40,0,10,,,,,,,,8,,,,80,10
21040,note_off,400,0,2,,,,,,,,0,,,,52,64
21040,note_off,400,0,9,,,,,,,,7,,,,40,64
21040,note_off,400,0,8,,,,,,,,6,,,,52,64
21040,note_off,400,0,13,,,,,,,,12,,,,52,64
21040,note_off,0,0,1,,,,,,,,0,,,,71,64
21040,note_off,400,0,1,,,,,,,,0,,,,76,64
21040,note_off,0,0,1,,,,,,,,0,,,,64,64
21040,note_off,400,0,12,,,,,,,,11,,,,64,64
21040,note_off,0,0,1,,,,,,,,0,,,,68,64
21040,note_off,400,0,7,,,,,,,,5,,,,64,64
21080,note_off,80,0,11,,,,,,,,10,,,,76,64
21080,note_off,80,0,6,,,,,,,,4,,,,76,64
21080,note_off,80,0,5,,,,,,,,3,,,,80,64
21080,note_off,80,0,10,,,,,,,,8,,,,80,64
21120,note_on,80,0,2,,,,,,,,0,,,,52,10
21120,note_on,0,0,1,,,,,,,,0,,,,68,10
21120,note_on,40,0,10,,,,,,,,8,,,,81,10
21120,note_on,40,0,11,,,,,,,,10,,,,78,10
21120,note_on,80,0,13,,,,,,,,12,,,,52,10
21120,note_on,80,0,12,,,,,,,,11,,,,64,10
21120,note_on,80,0,8,,,,,,,,6,,,,52,10
21120,note_on,0,0,1,,,,,,,,0,,,,76,10
21120,note_on,0,0,1,,,,,,,,0,,,,71,10
21120,note_on,40,0,5,,,,,,,,3,,,,81,30
21120,note_on,40,0,6,,,,,,,,4,,,,78,30
21120,note_on,80,0,1,,,,,,,,0,,,,64,10
21120,note_on,80,0,9,,,,,,,,7,,,,40,10
21120,note_on,80,0,7,,,,,,,,5,,,,64,10
21200,note_off,80,0,11,,,,,,,,10,,,,78,64
21200,note_off,80,0,6,,,,,,,,4,,,,78,64
21200,note_off,80,0,5,,,,,,,,3,,,,81,64
21200,note_off,80,0,10,,,,,,,,8,,,,81,64
21360,note_on,160,0,6,,,,,,,,4,,,,80,30
21360,note_on,160,0,11,,,,,,,,10,,,,80,10
21360,note_on,160,0,10,,,,,,,,8,,,,83,10
21360,note_on,160,0,5,,,,,,,,3,,,,83,30
21370,note_off,400,0,14,,,,,,,,13,,,,40,64
21370,note_off,400,0,15,,,,,,,,14,,,,40,64
21440,note_off,80,0,6,,,,,,,,4,,,,80,64
21440,note_off,80,0,11,,,,,,,,10,,,,80,64
21440,note_off,80,0,10,,,,,,,,8,,,,83,64
21440,note_off,80,0,5,,,,,,,,3,,,,83,64
21450,note_on,80,0,15,,,,,,,,14,,,,40,10
21450,note_on,80,0,14,,,,,,,,13,,,,40,10
21520,note_off,400,0,8,,,,,,,,6,,,,52,64
21520,note_off,400,0,12,,,,,,,,11,,,,64,64
21520,note_off,400,0,13,,,,,,,,12,,,,52,64
21520,note_off,400,0,2,,,,,,,,0,,,,52,64
21520,note_off,0,0,1,,,,,,,,0,,,,64,64
21520,note_off,400,0,7,,,,,,,,5,,,,64,64
21520,note_off,0,0,1,,,,,,,,0,,,,71,64
21520,note_off,400,0,1,,,,,,,,0,,,,76,64
21520,note_off,400,0,9,,,,,,,,7,,,,40,64
21520,note_off,0,0,1,,,,,,,,0,,,,68,64
21600,note_on,80,0,7,,,,,,,,5,,,,69,10
21600,note_on,0,0,2,,,,,,,,0,,,,52,10
21600,note_on,80,0,8,,,,,,,,6,,,,52,10
21600,note_on,160,0,6,,,,,,,,4,,,,81,30
21600,note_on,0,0,2,,,,,,,,0,,,,47,10
21600,note_on,80,0,1,,,,,,,,0,,,,64,10
21600,note_on,80,0,13,,,,,,,,12,,,,52,10
21600,note_on,80,0,2,,,,,,,,0,,,,40,10
21600,note_on,0,0,1,,,,,,,,0,,,,68,10
21600,note_on,0,0,1,,,,,,,,0,,,,71,10
21600,note_on,0,0,1,,,,,,,,0,,,,76,10
21600,note_on,80,0,9,,,,,,,,7,,,,40,10
21600,note_on,160,0,5,,,,,,,,3,,,,85,30
21600,note_on,160,0,10,,,,,,,,8,,,,85,10
21600,note_on,160,0,11,,,,,,,,10,,,,81,10
21600,note_on,80,0,12,,,,,,,,11,,,,69,10
21680,note_off,80,0,5,,,,,,,,3,,,,85,64
21680,note_off,80,0,12,,,,,,,,11,,,,69,64
21680,note_off,80,0,7,,,,,,,,5,,,,69,64
21680,note_off,80,0,11,,,,,,,,10,,,,81,64
21680,note_off,80,0,6,,,,,,,,4,,,,81,64
21680,note_off,80,0,10,,,,,,,,8,,,,85,64
21835,note_off,235,0,1,,,,,,,,0,,,,76,64
21835,note_off,0,0,2,,,,,,,,0,,,,40,64
21835,note_off,0,0,2,,,,,,,,0,,,,47,64
21835,note_off,0,0,1,,,,,,,,0,,,,71,64
21835,note_off,0,0,1,,,,,,,,0,,,,68,64
21835,note_off,0,0,1,,,,,,,,0,,,,64,64
21835,note_off,235,0,2,,,,,,,,0,,,,52,64
21840,note_on,160,0,7,,,,,,,,5,,,,64,10
21840,note_on,160,0,6,,,,,,,,4,,,,80,30
21840,note_on,5,0,2,,,,,,,,0,,,,59,30
21840,note_on,5,0,1,,,,,,,,0,,,,71,30
21840,note_on,160,0,5,,,,,,,,3,,,,83,30
21840,note_on,160,0,10,,,,,,,,8,,,,83,10
21840,note_on,160,0,11,,,,,,,,10,,,,80,10
21840,note_on,160,0,12,,,,,,,,11,,,,64,10
21850,note_off,400,0,15,,,,,,,,14,,,,40,64
21850,note_off,400,0,14,,,,,,,,13,,,,40,64
21920,note_off,80,0,2,,,,,,,,0,,,,59,64
21920,note_off,80,0,1,,,,,,,,0,,,,71,64
21930,note_on,80,0,14,,,,,,,,13,,,,40,10
21930,note_on,80,0,15,,,,,,,,14,,,,40,10
21960,note_on,40,0,2,,,,,,,,0,,,,57,30
21960,note_on,40,0,1,,,,,,,,0,,,,69,30
22000,note_off,400,0,8,,,,,,,,6,,,,52,64
22000,note_off,400,0,9,,,,,,,,7,,,,40,64
22000,note_off,400,0,13,,,,,,,,12,,,,52,64
22040,note_off,80,0,2,,,,,,,,0,,,,57,64
22040,note_off,80,0,1,,,,,,,,0,,,,69,64
22080,note_on,40,0,2,,,,,,,,0,,,,44,30
22080,note_on,0,0,2,,,,,,,,0,,,,56,30
22080,note_on,80,0,13,,,,,,,,12,,,,52,10
22080,note_on,0,0,1,,,,,,,,0,,,,68,30
22080,note_on,40,0,1,,,,,,,,0,,,,64,30
22080,note_on,80,0,9,,,,,,,,7,,,,40,10
22080,note_on,80,0,8,,,,,,,,6,,,,52,10
22240,note_off,400,0,7,,,,,,,,5,,,,64,64
22240,note_off,400,0,11,,,,,,,,10,,,,80,64
22240,note_off,400,0,12,,,,,,,,11,,,,64,64
22240,note_off,400,0,6,,,,,,,,4,,,,80,64
22240,note_off,400,0,10,,,,,,,,8,,,,83,64
22240,note_off,400,0,5,,,,,,,,3,,,,83,64
22320,note_on,80,0,7,,,,,,,,5,,,,64,30
22320,note_on,80,0,6,,,,,,,,4,,,,76,45
22320,note_on,80,0,12,,,,,,,,11,,,,64,30
22320,note_on,80,0,11,,,,,,,,10,,,,76,30
22320,note_on,80,0,10,,,,,,,,8,,,,80,30
22320,note_on,80,0,5,,,,,,,,3,,,,80,45
22330,note_off,400,0,14,,,,,,,,13,,,,40,64
22330,note_off,400,0,15,,,,,,,,14,,,,40,64
22400,note_off,80,0,10,,,,,,,,8,,,,80,64
22400,note_off,80,0,5,,,,,,,,3,,,,80,64
22400,note_off,80,0,6,,,,,,,,4,,,,76,64
22400,note_off,80,0,11,,,,,,,,10,,,,76,64
22400,note_off,80,0,7,,,,,,,,5,,,,64,64
22400,note_off,80,0,12,,,,,,,,11,,,,64,64
22410,note_on,80,0,14,,,,,,,,13,,,,40,10
22410,note_on,80,0,15,,,,,,,,14,,,,40,10
22480,note_off,400,0,2,,,,,,,,0,,,,56,64
22480,note_off,0,0,2,,,,,,,,0,,,,44,64
22480,note_off,400,0,13,,,,,,,,12,,,,52,64
22480,note_off,400,0,1,,,,,,,,0,,,,68,64
22480,note_off,0,0,1,,,,,,,,0,,,,64,64
22480,note_off,400,0,8,,,,,,,,6,,,,52,64
22480,note_off,400,0,9,,,,,,,,7,,,,40,64
22560,note_on,0,0,2,,,,,,,,0,,,,52,30
22560,note_on,80,0,2,,,,,,,,0,,,,40,30
22560,note_on,80,0,9,,,,,,,,7,,,,40,30
22560,note_on,160,0,11,,,,,,,,10,,,,81,30
22560,note_on,160,0,10,,,,,,,,8,,,,85,30
22560,note_on,160,0,12,,,,,,,,11,,,,69,30
22560,note_on,160,0,6,,,,,,,,4,,,,81,45
22560,note_on,80,0,13,,,,,,,,12,,,,52,30
22560,note_on,80,0,8,,,,,,,,6,,,,52,30
22560,note_on,160,0,5,,,,,,,,3,,,,85,45
22560,note_on,160,0,7,,,,,,,,5,,,,69,30
22560,note_on,0,0,1,,,,,,,,0,,,,69,30
22560,note_on,80,0,1,,,,,,,,0,,,,64,30
22560,note_on,0,0,1,,,,,,,,0,,,,73,30
22640,note_off,80,0,6,,,,,,,,4,,,,81,64
22640,note_off,0,0,1,,,,,,,,0,,,,64,64
22640,note_off,80,0,7,,,,,,,,5,,,,69,64
22640,note_off,80,0,1,,,,,,,,0,,,,73,64
22640,note_off,80,0,11,,,,,,,,10,,,,81,64
22640,note_off,80,0,10,,,,,,,,8,,,,85,64
22640,note_off,80,0,5,,,,,,,,3,,,,85,64
22640,note_off,0,0,1,,,,,,,,0,,,,69,64
22640,note_off,80,0,12,,,,,,,,11,,,,69,64
22800,note_on,160,0,7,,,,,,,,5,,,,64,33
22800,note_on,160,0,11,,,,,,,,10,,,,80,33
22800,note_on,0,0,1,,,,,,,,0,,,,68,30
22800,note_on,160,0,6,,,,,,,,4,,,,80,48
22800,note_on,160,0,1,,,,,,,,0,,,,64,30
22800,note_on,160,0,10,,,,,,,,8,,,,83,33
22800,note_on,160,0,5,,,,,,,,3,,,,83,48
22800,note_on,160,0,12,,,,,,,,11,,,,64,33
22800,note_on,0,0,1,,,,,,,,0,,,,71,30
22810,note_off,400,0,15,,,,,,,,14,,,,40,64
22810,note_off,400,0,14,,,,,,,,13,,,,40,64
22890,note_on,80,0,15,,,,,,,,14,,,,40,30
22890,note_on,80,0,14,,,,,,,,13,,,,40,30
22960,note_off,400,0,9,,,,,,,,7,,,,40,64
22960,note_off,0,0,2,,,,,,,,0,,,,40,64
22960,note_off,400,0,2,,,,,,,,0,,,,52,64
22960,note_off,400,0,8,,,,,,,,6,,,,52,64
22960,note_off,400,0,13,,,,,,,,12,,,,52,64
23040,note_on,0,0,2,,,,,,,,0,,,,52,30
23040,note_on,80,0,13,,,,,,,,12,,,,52,30
23040,note_on,80,0,9,,,,,,,,7,,,,40,30
23040,note_on,80,0,8,,,,,,,,6,,,,52,30
23040,note_on,80,0,2,,,,,,,,0,,,,40,30
23200,note_off,400,0,1,,,,,,,,0,,,,71,64
23200,note_off,400,0,10,,,,,,,,8,,,,83,64
23200,note_off,400,0,11,,,,,,,,10,,,,80,64
23200,note_off,0,0,1,,,,,,,,0,,,,64,64
23200,note_off,0,0,1,,,,,,,,0,,,,68,64
23200,note_off,400,0,6,,,,,,,,4,,,,80,64
23200,note_off,400,0,5,,,,,,,,3,,,,83,64
23200,note_off,400,0,7,,,,,,,,5,,,,64,64
23200,note_off,400,0,12,,,,,,,,11,,,,64,64
23280,note_on,80,0,10,,,,,,,,8,,,,81,40
23280,note_on,80,0,11,,,,,,,,10,,,,78,40
23280,note_on,80,0,5,,,,,,,,3,,,,81,55
23280,note_on,80,0,12,,,,,,,,11,,,,75,40
23280,note_on,80,0,6,,,,,,,,4,,,,78,55
23280,note_on,80,0,7,,,,,,,,5,,,,75,40
23280,note_on,0,0,1,,,,,,,,0,,,,69,34
23280,note_on,0,0,1,,,,,,,,0,,,,66,34
23280,note_on,80,0,1,,,,,,,,0,,,,63,34
23290,note_off,400,0,14,,,,,,,,13,,,,40,64
23290,note_off,400,0,15,,,,,,,,14,,,,40,64
23360,note_off,0,0,1,,,,,,,,0,,,,66,64
23360,note_off,80,0,1,,,,,,,,0,,,,69,64
23360,note_off,80,0,12,,,,,,,,11,,,,75,64
23360,note_off,80,0,6,,,,,,,,4,,,,78,64
23360,note_off,0,0,1,,,,,,,,0,,,,63,64
23360,note_off,80,0,5,,,,,,,,3,,,,81,64
23360,note_off,80,0,11,,,,,,,,10,,,,78,64
23360,note_off,80,0,10,,,,,,,,8,,,,81,64
23360,note_off,80,0,7,,,,,,,,5,,,,75,64
23370,note_on,80,0,14,,,,,,,,13,,,,40,30
23370,note_on,80,0,15,,,,,,,,14,,,,40,30
23440,note_off,400,0,9,,,,,,,,7,,,,40,64
23440,note_off,400,0,2,,,,,,,,0,,,,52,64
23440,note_off,0,0,2,,,,,,,,0,,,,40,64
23440,note_off,400,0,13,,,,,,,,12,,,,52,64
23440,note_off,400,0,8,,,,,,,,6,,,,52,64
23520,note_on,0,0,2,,,,,,,,0,,,,52,35
23520,note_on,80,0,8,,,,,,,,6,,,,52,40
23520,note_on,160,0,6,,,,,,,,4,,,,76,59
23520,note_on,160,0,5,,,,,,,,3,,,,80,59
23520,note_on,80,0,2,,,,,,,,0,,,,40,35
23520,note_on,0,0,1,,,,,,,,0,,,,68,36
23520,note_on,80,0,13,,,,,,,,12,,,,52,40
23520,note_on,160,0,1,,,,,,,,0,,,,64,36
23520,note_on,160,0,10,,,,,,,,8,,,,80,44
23520,note_on,160,0,12,,,,,,,,11,,,,71,44
23520,note_on,160,0,7,,,,,,,,5,,,,71,44
23520,note_on,80,0,9,,,,,,,,7,,,,40,40
23520,note_on,160,0,11,,,,,,,,10,,,,76,44
23600,note_off,80,0,2,,,,,,,,0,,,,52,64
23600,note_off,80,0,11,,,,,,,,10,,,,76,64
23600,note_off,80,0,10,,,,,,,,8,,,,80,64
23600,note_off,80,0,8,,,,,,,,6,,,,52,64
23600,note_off,80,0,5,,,,,,,,3,,,,80,64
23600,note_off,80,0,6,,,,,,,,4,,,,76,64
23600,note_off,80,0,13,,,,,,,,12,,,,52,64
23600,note_off,0,0,2,,,,,,,,0,,,,40,64
23600,note_off,80,0,1,,,,,,,,0,,,,68,64
23600,note_off,0,0,1,,,,,,,,0,,,,64,64
23600,note_off,80,0,9,,,,,,,,7,,,,40,64
23760,note_on,160,0,2,,,,,,,,0,,,,28,37
23760,note_on,160,0,9,,,,,,,,7,,,,28,45
23760,note_on,160,0,10,,,,,,,,8,,,,78,48
23760,note_on,160,0,6,,,,,,,,4,,,,75,63
23760,note_on,160,0,1,,,,,,,,0,,,,63,38
23760,note_on,0,0,1,,,,,,,,0,,,,66,38
23760,note_on,160,0,13,,,,,,,,12,,,,40,45
23760,note_on,160,0,11,,,,,,,,10,,,,75,48
23760,note_on,160,0,5,,,,,,,,3,,,,78,63
23760,note_on,0,0,2,,,,,,,,0,,,,40,37
23760,note_on,160,0,8,,,,,,,,6,,,,40,45
23770,note_off,400,0,14,,,,,,,,13,,,,40,64
23770,note_off,400,0,15,,,,,,,,14,,,,40,64
23840,note_off,80,0,5,,,,,,,,3,,,,78,64
23840,note_off,80,0,2,,,,,,,,0,,,,40,64
23840,note_off,80,0,9,,,,,,,,7,,,,28,64
23840,note_off,80,0,6,,,,,,,,4,,,,75,64
23840,note_off,80,0,10,,,,,,,,8,,,,78,64
23840,note_off,80,0,1,,,,,,,,0,,,,66,64
23840,note_off,80,0,11,,,,,,,,10,,,,75,64
23840,note_off,0,0,2,,,,,,,,0,,,,28,64
23840,note_off,0,0,1,,,,,,,,0,,,,63,64
23840,note_off,80,0,13,,,,,,,,12,,,,40,64
23840,note_off,80,0,8,,,,,,,,6,,,,40,64
23850,note_on,80,0,15,,,,,,,,14,,,,40,40
23850,note_on,80,0,14,,,,,,,,13,,,,40,40
23880,note_on,40,0,11,,,,,,,,10,,,,73,50
23880,note_on,40,0,5,,,,,,,,3,,,,76,65
23880,note_on,40,0,1,,,,,,,,0,,,,61,39
23880,note_on,0,0,1,,,,,,,,0,,,,64,39
23880,note_on,40,0,10,,,,,,,,8,,,,76,50
23880,note_on,40,0,6,,,,,,,,4,,,,73,65
23920,note_off,400,0,12,,,,,,,,11,,,,71,64
23920,note_off,400,0,7,,,,,,,,5,,,,71,64
23930,note_off,80,0,14,,,,,,,,13,,,,40,64
23930,note_off,80,0,15,,,,,,,,14,,,,40,64
23960,note_off,80,0,1,,,,,,,,0,,,,64,64
23960,note_off,80,0,11,,,,,,,,10,,,,73,64
23960,note_off,80,0,5,,,,,,,,3,,,,76,64
23960,note_off,0,0,1,,,,,,,,0,,,,61,64
23960,note_off,80,0,6,,,,,,,,4,,,,73,64
23960,note_off,80,0,10,,,,,,,,8,,,,76,64
24000,note_on,40,0,6,,,,,,,,4,,,,76,67
24000,note_on,40,0,10,,,,,,,,8,,,,80,52
24000,note_on,80,0,12,,,,,,,,11,,,,71,52
24000,note_on,0,0,2,,,,,,,,0,,,,59,39
24000,note_on,160,0,2,,,,,,,,0,,,,47,39
24000,note_on,40,0,5,,,,,,,,3,,,,80,67
24000,note_on,160,0,13,,,,,,,,12,,,,59,50
24000,note_on,160,0,9,,,,,,,,7,,,,47,50
24000,note_on,80,0,7,,,,,,,,5,,,,71,52
24000,note_on,160,0,8,,,,,,,,6,,,,59,50
24000,note_on,40,0,11,,,,,,,,10,,,,76,52
24000,note_on,0,0,1,,,,,,,,0,,,,68,40
24000,note_on,0,0,1,,,,,,,,0,,,,64,40
24000,note_on,40,0,1,,,,,,,,0,,,,59,40
24030,note_on,0,0,10,,,,,,,,8,,,,81,52
24030,note_off,30,0,10,,,,,,,,8,,,,80,64
24030,note_on,0,0,6,,,,,,,,4,,,,78,67
24030,note_off,30,0,5,,,,,,,,3,,,,80,64
24030,note_on,0,0,11,,,,,,,,10,,,,78,52
24030,note_off,30,0,6,,,,,,,,4,,,,76,64
24030,note_on,0,0,5,,,,,,,,3,,,,81,67
24030,note_off,30,0,11,,,,,,,,10,,,,76,64
24060,note_off,30,0,10,,,,,,,,8,,,,81,64
24060,note_on,0,0,10,,,,,,,,8,,,,80,52
24060,note_on,0,0,11,,,,,,,,10,,,,76,52
24060,note_off,30,0,11,,,,,,,,10,,,,78,64
24060,note_off,30,0,6,,,,,,,,4,,,,78,64
24060,note_on,0,0,6,,,,,,,,4,,,,76,67
24060,note_off,30,0,5,,,,,,,,3,,,,81,64
24060,note_on,0,0,5,,,,,,,,3,,,,80,67
24080,note_off,80,0,13,,,,,,,,12,,,,59,64
24080,note_off,80,0,8,,,,,,,,6,,,,59,64
24080,note_off,80,0,9,,,,,,,,7,,,,47,64
24090,note_off,30,0,11,,,,,,,,10,,,,76,64
24090,note_on,0,0,11,,,,,,,,10,,,,78,52
24090,note_off,30,0,5,,,,,,,,3,,,,80,64
24090,note_on,0,0,5,,,,,,,,3,,,,81,67
24090,note_off,30,0,6,,,,,,,,4,,,,76,64
24090,note_on,0,0,6,,,,,,,,4,,,,78,67
24090,note_off,30,0,10,,,,,,,,8,,,,80,64
24090,note_on,160,0,14,,,,,,,,13,,,,28,45
24090,note_on,0,0,10,,,,,,,,8,,,,81,52
24090,note_on,160,0,15,,,,,,,,14,,,,28,45
24120,note_off,30,0,6,,,,,,,,4,,,,78,64
24120,note_on,0,0,10,,,,,,,,8,,,,80,52
24120,note_on,0,0,6,,,,,,,,4,,,,76,67
24120,note_on,0,0,11,,,,,,,,10,,,,76,52
24120,note_off,30,0,11,,,,,,,,10,,,,78,64
24120,note_off,30,0,5,,,,,,,,3,,,,81,64
24120,note_on,0,0,5,,,,,,,,3,,,,80,67
24120,note_off,30,0,10,,,,,,,,8,,,,81,64
24150,note_off,30,0,5,,,,,,,,3,,,,80,64
24150,note_on,0,0,5,,,,,,,,3,,,,81,67
24150,note_on,0,0,10,,,,,,,,8,,,,81,52
24150,note_off,30,0,10,,,,,,,,8,,,,80,64
24150,note_on,0,0,6,,,,,,,,4,,,,78,67
24150,note_off,30,0,6,,,,,,,,4,,,,76,64
24150,note_on,0,0,11,,,,,,,,10,,,,78,52
24150,note_off,30,0,11,,,,,,,,10,,,,76,64
24170,note_off,80,0,15,,,,,,,,14,,,,28,64
24170,note_off,80,0,14,,,,,,,,13,,,,28,64
24180,note_on,0,0,5,,,,,,,,3,,,,80,67
24180,note_on,0,0,11,,,,,,,,10,,,,76,52
24180,note_off,30,0,11,,,,,,,,10,,,,78,64
24180,note_on,0,0,10,,,,,,,,8,,,,80,52
24180,note_on,0,0,6,,,,,,,,4,,,,76,67
24180,note_off,30,0,6,,,,,,,,4,,,,78,64
24180,note_off,30,0,10,,,,,,,,8,,,,81,64
24180,note_off,30,0,5,,,,,,,,3,,,,81,64
24210,note_on,0,0,5,,,,,,,,3,,,,81,67
24210,note_on,0,0,6,,,,,,,,4,,,,78,67
24210,note_off,30,0,6,,,,,,,,4,,,,76,64
24210,note_off,30,0,11,,,,,,,,10,,,,76,64
24210,note_on,0,0,11,,,,,,,,10,,,,78,52
24210,note_off,30,0,5,,,,,,,,3,,,,80,64
24210,note_off,30,0,10,,,,,,,,8,,,,80,64
24210,note_on,0,0,10,,,,,,,,8,,,,81,52
24240,note_on,0,0,6,,,,,,,,4,,,,76,67
24240,note_off,30,0,6,,,,,,,,4,,,,78,64
24240,note_on,160,0,8,,,,,,,,6,,,,47,55
24240,note_on,0,0,2,,,,,,,,0,,,,47,42
24240,note_on,0,0,1,,,,,,,,0,,,,59,42
24240,note_off,0,0,1,,,,,,,,0,,,,59,64
24240,note_off,0,0,1,,,,,,,,0,,,,64,64
24240,note_off,240,0,1,,,,,,,,0,,,,68,64
24240,note_off,30,0,5,,,,,,,,3,,,,81,64
24240,note_on,0,0,5,,,,,,,,3,,,,80,67
24240,note_on,160,0,9,,,,,,,,7,,,,35,55
24240,note_off,30,0,11,,,,,,,,10,,,,78,64
24240,note_on,0,0,11,,,,,,,,10,,,,76,52
24240,note_on,0,0,1,,,,,,,,0,,,,63,42
24240,note_on,0,0,1,,,,,,,,0,,,,66,42
24240,note_on,160,0,13,,,,,,,,12,,,,47,55
24240,note_on,0,0,10,,,,,,,,8,,,,80,52
24240,note_off,30,0,10,,,,,,,,8,,,,81,64
24240,note_off,240,0,2,,,,,,,,0,,,,59,64
24240,note_off,0,0,2,,,,,,,,0,,,,47,64
24240,note_on,0,0,2,,,,,,,,0,,,,35,42
24270,note_on,0,0,11,,,,,,,,10,,,,78,53
24270,note_off,30,0,6,,,,,,,,4,,,,76,64
24270,note_on,0,0,10,,,,,,,,8,,,,81,53
24270,note_on,0,0,5,,,,,,,,3,,,,81,68
24270,note_off,30,0,5,,,,,,,,3,,,,80,64
24270,note_off,30,0,10,,,,,,,,8,,,,80,64
24270,note_on,0,0,6,,,,,,,,4,,,,78,68
24270,note_off,30,0,11,,,,,,,,10,,,,76,64
24300,note_off,30,0,6,,,,,,,,4,,,,78,64
24300,note_on,0,0,6,,,,,,,,4,,,,76,69
24300,note_off,30,0,5,,,,,,,,3,,,,81,64
24300,note_off,30,0,11,,,,,,,,10,,,,78,64
24300,note_on,0,0,11,,,,,,,,10,,,,76,54
24300,note_off,30,0,10,,,,,,,,8,,,,81,64
24300,note_on,0,0,5,,,,,,,,3,,,,80,69
24300,note_on,0,0,10,,,,,,,,8,,,,80,54
24320,note_off,80,0,8,,,,,,,,6,,,,47,64
24320,note_off,80,0,13,,,,,,,,12,,,,47,64
24320,note_off,80,0,1,,,,,,,,0,,,,66,64
24320,note_off,0,0,1,,,,,,,,0,,,,59,64
24320,note_off,0,0,1,,,,,,,,0,,,,63,64
24320,note_off,0,0,2,,,,,,,,0,,,,35,64
24320,note_off,80,0,9,,,,,,,,7,,,,35,64
24320,note_off,80,0,2,,,,,,,,0,,,,47,64
24330,note_on,160,0,14,,,,,,,,13,,,,47,50
24330,note_on,160,0,15,,,,,,,,14,,,,47,50
24340,note_off,40,0,11,,,,,,,,10,,,,76,64
24340,note_off,40,0,5,,,,,,,,3,,,,80,64
24340,note_off,40,0,6,,,,,,,,4,,,,76,64
24340,note_off,40,0,10,,,,,,,,8,,,,80,64
24360,note_on,20,0,11,,,,,,,,10,,,,75,56
24360,note_on,20,0,5,,,,,,,,3,,,,78,71
24360,note_on,20,0,6,,,,,,,,4,,,,75,71
24360,note_on,20,0,10,,,,,,,,8,,,,78,56
24400,note_off,400,0,7,,,,,,,,5,,,,71,64
24400,note_off,400,0,12,,,,,,,,11,,,,71,64
24410,note_off,80,0,15,,,,,,,,14,,,,47,64
24410,note_off,80,0,14,,,,,,,,13,,,,47,64
24440,note_off,80,0,10,,,,,,,,8,,,,78,64
24440,note_off,80,0,5,,,,,,,,3,,,,78,64
24440,note_off,80,0,6,,,,,,,,4,,,,75,64
24440,note_off,80,0,11,,,,,,,,10,,,,75,64
24480,note_on,0,0,1,,,,,,,,0,,,,68,45
24480,note_on,0,0,1,,,,,,,,0,,,,71,45
24480,note_on,160,0,13,,,,,,,,12,,,,52,60
24480,note_on,160,0,2,,,,,,,,0,,,,40,45
24480,note_on,0,0,2,,,,,,,,0,,,,52,45
24480,note_on,24480,0,3,,,,,,,,1,,,,83,60
24480,note_on,160,0,1,,,,,,,,0,,,,64,45
24480,note_on,40,0,6,,,,,,,,4,,,,71,75
24480,note_on,40,0,5,,,,,,,,3,,,,76,75
24480,note_on,160,0,9,,,,,,,,7,,,,40,60
24480,note_on,160,0,8,,,,,,,,6,,,,52,60
24480,note_on,80,0,7,,,,,,,,5,,,,68,60
24480,note_on,24480,0,4,,,,,,,,2,,,,83,45
24480,note_on,40,0,10,,,,,,,,8,,,,76,60
24480,note_on,80,0,12,,,,,,,,11,,,,68,60
24480,note_on,40,0,11,,,,,,,,10,,,,71,60
24520,note_on,0,0,3,,,,,,,,1,,,,85,60
24520,note_off,40,0,3,,,,,,,,1,,,,83,64
24540,note_on,0,0,4,,,,,,,,2,,,,85,45
24540,note_off,60,0,4,,,,,,,,2,,,,83,64
24560,note_on,0,0,3,,,,,,,,1,,,,83,60
24560,note_off,40,0,3,,,,,,,,1,,,,85,64
24570,note_on,160,0,15,,,,,,,,14,,,,35,55
24570,note_on,160,0,14,,,,,,,,13,,,,35,55
24600,note_on,0,0,3,,,,,,,,1,,,,85,60
24600,note_off,40,0,3,,,,,,,,1,,,,83,64
24600,note_on,0,0,4,,,,,,,,2,,,,83,45
24600,note_off,60,0,4,,,,,,,,2,,,,85,64
24640,note_off,40,0,3,,,,,,,,1,,,,85,64
24640,note_on,0,0,3,,,,,,,,1,,,,83,60
24650,note_off,80,0,15,,,,,,,,14,,,,35,64
24650,note_off,80,0,14,,,,,,,,13,,,,35,64
24660,note_off,60,0,4,,,,,,,,2,,,,83,64
24660,note_on,0,0,4,,,,,,,,2,,,,85,45
24680,note_off,40,0,3,,,,,,,,1,,,,83,64
24680,note_on,0,0,3,,,,,,,,1,,,,85,60
24720,note_off,40,0,3,,,,,,,,1,,,,85,64
24720,note_on,0,0,3,,,,,,,,1,,,,83,60
24720,note_on,0,0,4,,,,,,,,2,,,,83,45
24720,note_off,60,0,4,,,,,,,,2,,,,85,64
24800,note_off,80,0,3,,,,,,,,1,,,,83,64
24800,note_off,80,0,4,,,,,,,,2,,,,83,64
24810,note_on,160,0,14,,,,,,,,13,,,,40,60
24810,note_on,160,0,15,,,,,,,,14,,,,40,60
24880,note_off,0,0,2,,,,,,,,0,,,,40,64
24880,note_off,400,0,2,,,,,,,,0,,,,52,64
24880,note_off,400,0,13,,,,,,,,12,,,,52,64
24880,note_off,400,0,6,,,,,,,,4,,,,71,64
24880,note_off,0,0,1,,,,,,,,0,,,,68,64
24880,note_off,400,0,5,,,,,,,,3,,,,76,64
24880,note_off,400,0,8,,,,,,,,6,,,,52,64
24880,note_off,400,0,10,,,,,,,,8,,,,76,64
24880,note_off,400,0,7,,,,,,,,5,,,,68,64
24880,note_off,400,0,9,,,,,,,,7,,,,40,64
24880,note_off,400,0,11,,,,,,,,10,,,,71,64
24880,note_off,0,0,1,,,,,,,,0,,,,64,64
24880,note_off,400,0,1,,,,,,,,0,,,,71,64
24880,note_off,400,0,12,,,,,,,,11,,,,68,64
24960,note_on,160,0,4,,,,,,,,2,,,,83,45
24960,note_on,160,0,3,,,,,,,,1,,,,83,60
25000,note_off,40,0,3,,,,,,,,1,,,,83,64
25000,note_on,0,0,3,,,,,,,,1,,,,85,60
25020,note_on,0,0,4,,,,,,,,2,,,,85,45
25020,note_off,60,0,4,,,,,,,,2,,,,83,64
25040,note_off,40,0,3,,,,,,,,1,,,,85,64
25040,note_on,0,0,3,,,,,,,,1,,,,83,60
25080,note_off,40,0,3,,,,,,,,1,,,,83,64
25080,note_on,0,0,3,,,,,,,,1,,,,85,60
25080,note_off,60,0,4,,,,,,,,2,,,,85,64
25080,note_on,0,0,4,,,,,,,,2,,,,83,45
25120,note_off,40,0,3,,,,,,,,1,,,,85,64
25120,note_on,0,0,3,,,,,,,,1,,,,83,60
25140,note_on,0,0,4,,,,,,,,2,,,,85,45
25140,note_off,60,0,4,,,,,,,,2,,,,83,64
25160,note_off,40,0,3,,,,,,,,1,,,,83,64
25160,note_on,0,0,3,,,,,,,,1,,,,85,60
25200,note_on,0,0,4,,,,,,,,2,,,,83,45
25200,note_off,60,0,4,,,,,,,,2,,,,85,64
25200,note_on,0,0,3,,,,,,,,1,,,,83,60
25200,note_off,40,0,3,,,,,,,,1,,,,85,64
25210,note_off,400,0,14,,,,,,,,13,,,,40,64
25210,note_off,400,0,15,,,,,,,,14,,,,40,64
25280,note_off,80,0,4,,,,,,,,2,,,,83,64
25280,note_off,80,0,3,,,,,,,,1,,,,83,64
25440,note_on,160,0,4,,,,,,,,2,,,,83,45
25440,note_on,160,0,3,,,,,,,,1,,,,83,60
25480,note_off,40,0,3,,,,,,,,1,,,,83,64
25480,note_on,0,0,3,,,,,,,,1,,,,85,60
25500,note_off,60,0,4,,,,,,,,2,,,,83,64
25500,note_on,0,0,4,,,,,,,,2,,,,85,45
25520,note_off,40,0,3,,,,,,,,1,,,,85,64
25520,note_on,0,0,3,,,,,,,,1,,,,83,60
25560,note_on,680,0,6,,,,,,,,4,,,,81,45
25560,note_off,60,0,4,,,,,,,,2,,,,85,64
25560,note_on,0,0,4,,,,,,,,2,,,,83,45
25560,note_off,40,0,3,,,,,,,,1,,,,83,64
25560,note_on,0,0,3,,,,,,,,1,,,,85,60
25600,note_on,0,0,3,,,,,,,,1,,,,83,60
25600,note_off,40,0,3,,,,,,,,1,,,,85,64
25620,note_on,0,0,4,,,,,,,,2,,,,85,45
25620,note_off,60,0,4,,,,,,,,2,,,,83,64
25640,note_off,40,0,3,,,,,,,,1,,,,83,64
25640,note_on,0,0,3,,,,,,,,1,,,,85,60
25680,note_on,0,0,3,,,,,,,,1,,,,83,60
25680,note_off,60,0,4,,,,,,,,2,,,,85,64
25680,note_off,120,0,6,,,,,,,,4,,,,81,64
25680,note_on,0,0,6,,,,,,,,4,,,,80,45
25680,note_off,40,0,3,,,,,,,,1,,,,85,64
25680,note_on,0,0,4,,,,,,,,2,,,,83,45
25760,note_off,80,0,4,,,,,,,,2,,,,83,64
25760,note_off,80,0,3,,,,,,,,1,,,,83,64
25800,note_on,0,0,6,,,,,,,,4,,,,81,45
25800,note_off,120,0,6,,,,,,,,4,,,,80,64
25920,note_on,0,0,6,,,,,,,,4,,,,80,45
25920,note_on,160,0,4,,,,,,,,2,,,,83,45
25920,note_off,120,0,6,,,,,,,,4,,,,81,64
25920,note_on,160,0,3,,,,,,,,1,,,,83,60
25960,note_off,40,0,6,,,,,,,,4,,,,80,64
25960,note_on,0,0,6,,,,,,,,4,,,,81,45
25960,note_off,40,0,3,,,,,,,,1,,,,83,64
25960,note_on,0,0,3,,,,,,,,1,,,,85,60
25980,note_on,0,0,4,,,,,,,,2,,,,85,45
25980,note_off,60,0,4,,,,,,,,2,,,,83,64
26000,note_on,0,0,6,,,,,,,,4,,,,80,45
26000,note_off,40,0,3,,,,,,,,1,,,,85,64
26000,note_on,0,0,3,,,,,,,,1,,,,83,60
26000,note_off,40,0,6,,,,,,,,4,,,,81,64
26040,note_off,40,0,3,,,,,,,,1,,,,83,64
26040,note_on,0,0,3,,,,,,,,1,,,,85,60
26040,note_on,0,0,6,,,,,,,,4,,,,81,45
26040,note_off,40,0,6,,,,,,,,4,,,,80,64
26040,note_off,60,0,4,,,,,,,,2,,,,85,64
26040,note_on,0,0,4,,,,,,,,2,,,,83,45
26080,note_on,0,0,6,,,,,,,,4,,,,80,45
26080,note_off,40,0,6,,,,,,,,4,,,,81,64
26080,note_on,0,0,3,,,,,,,,1,,,,83,60
26080,note_off,40,0,3,,,,,,,,1,,,,85,64
26100,note_off,60,0,4,,,,,,,,2,,,,83,64
26100,note_on,0,0,4,,,,,,,,2,,,,85,45
26120,note_on,0,0,3,,,,,,,,1,,,,85,60
26120,note_off,40,0,3,,,,,,,,1,,,,83,64
26120,note_on,0,0,6,,,,,,,,4,,,,81,45
26120,note_off,40,0,6,,,,,,,,4,,,,80,64
26160,note_on,0,0,4,,,,,,,,2,,,,83,45
26160,note_on,0,0,3,,,,,,,,1,,,,83,60
26160,note_off,40,0,3,,,,,,,,1,,,,85,64
26160,note_off,40,0,6,,,,,,,,4,,,,81,64
26160,note_on,0,0,6,,,,,,,,4,,,,80,45
26160,note_off,60,0,4,,,,,,,,2,,,,85,64
26240,note_off,80,0,3,,,,,,,,1,,,,83,64
26240,note_off,80,0,4,,,,,,,,2,,,,83,64
26240,note_off,80,0,6,,,,,,,,4,,,,80,64
26400,note_on,160,0,4,,,,,,,,2,,,,83,45
26400,note_on,160,0,3,,,,,,,,1,,,,83,60
26440,note_off,40,0,3,,,,,,,,1,,,,83,64
26440,note_on,0,0,3,,,,,,,,1,,,,85,60
26460,note_off,60,0,4,,,,,,,,2,,,,83,64
26460,note_on,0,0,4,,,,,,,,2,,,,85,45
26480,note_off,40,0,3,,,,,,,,1,,,,85,64
26480,note_on,0,0,3,,,,,,,,1,,,,83,60
26520,note_off,60,0,4,,,,,,,,2,,,,85,64
26520,note_on,0,0,4,,,,,,,,2,,,,83,45
26520,note_on,280,0,6,,,,,,,,4,,,,81,45
26520,note_on,0,0,3,,,,,,,,1,,,,85,60
26520,note_off,40,0,3,,,,,,,,1,,,,83,64
26560,note_on,0,0,3,,,,,,,,1,,,,83,60
26560,note_off,40,0,3,,,,,,,,1,,,,85,64
26580,note_on,0,0,4,,,,,,,,2,,,,85,45
26580,note_off,60,0,4,,,,,,,,2,,,,83,64
26600,note_off,40,0,3,,,,,,,,1,,,,83,64
26600,note_on,0,0,3,,,,,,,,1,,,,85,60
26640,note_off,40,0,3,,,,,,,,1,,,,85,64
26640,note_on,0,0,3,,,,,,,,1,,,,83,60
26640,note_on,0,0,4,,,,,,,,2,,,,83,45
26640,note_off,60,0,4,,,,,,,,2,,,,85,64
26640,note_off,120,0,6,,,,,,,,4,,,,81,64
26640,note_on,0,0,6,,,,,,,,4,,,,80,45
26720,note_off,80,0,4,,,,,,,,2,,,,83,64
26720,note_off,80,0,3,,,,,,,,1,,,,83,64
26760,note_on,0,0,6,,,,,,,,4,,,,81,45
26760,note_off,120,0,6,,,,,,,,4,,,,80,64
26880,note_on,0,0,6,,,,,,,,4,,,,80,45
26880,note_on,160,0,4,,,,,,,,2,,,,83,45
26880,note_on,160,0,3,,,,,,,,1,,,,83,60
26880,note_off,120,0,6,,,,,,,,4,,,,81,64
26920,note_off,40,0,6,,,,,,,,4,,,,80,64
26920,note_on,0,0,6,,,,,,,,4,,,,81,45
26920,note_on,0,0,3,,,,,,,,1,,,,85,60
26920,note_off,40,0,3,,,,,,,,1,,,,83,64
26940,note_on,0,0,4,,,,,,,,2,,,,85,45
26940,note_off,60,0,4,,,,,,,,2,,,,83,64
26960,note_off,40,0,6,,,,,,,,4,,,,81,64
26960,note_on,0,0,6,,,,,,,,4,,,,80,45
26960,note_off,40,0,3,,,,,,,,1,,,,85,64
26960,note_on,0,0,3,,,,,,,,1,,,,83,60
27000,note_off,40,0,6,,,,,,,,4,,,,80,64
27000,note_off,40,0,3,,,,,,,,1,,,,83,64
27000,note_on,0,0,6,,,,,,,,4,,,,81,45
27000,note_off,60,0,4,,,,,,,,2,,,,85,64
27000,note_on,0,0,4,,,,,,,,2,,,,83,45
27000,note_on,0,0,3,,,,,,,,1,,,,85,60
27040,note_on,0,0,3,,,,,,,,1,,,,83,60
27040,note_on,0,0,6,,,,,,,,4,,,,80,45
27040,note_off,40,0,6,,,,,,,,4,,,,81,64
27040,note_off,40,0,3,,,,,,,,1,,,,85,64
27060,note_on,0,0,4,,,,,,,,2,,,,85,45
27060,note_off,60,0,4,,,,,,,,2,,,,83,64
27080,note_on,0,0,3,,,,,,,,1,,,,85,60
27080,note_off,40,0,6,,,,,,,,4,,,,80,64
27080,note_off,40,0,3,,,,,,,,1,,,,83,64
27080,note_on,0,0,6,,,,,,,,4,,,,81,45
27120,note_off,40,0,6,,,,,,,,4,,,,81,64
27120,note_on,0,0,6,,,,,,,,4,,,,80,45
27120,note_off,60,0,4,,,,,,,,2,,,,85,64
27120,note_on,0,0,3,,,,,,,,1,,,,83,60
27120,note_off,40,0,3,,,,,,,,1,,,,85,64
27120,note_on,0,0,4,,,,,,,,2,,,,83,45
27200,note_off,80,0,6,,,,,,,,4,,,,80,64
27200,note_off,80,0,4,,,,,,,,2,,,,83,64
27200,note_off,80,0,3,,,,,,,,1,,,,83,64
27360,note_on,160,0,3,,,,,,,,1,,,,83,60
27360,note_on,160,0,4,,,,,,,,2,,,,83,45
27440,note_off,80,0,3,,,,,,,,1,,,,83,64
27440,note_off,80,0,4,,,,,,,,2,,,,83,64
27600,note_on,160,0,4,,,,,,,,2,,,,83,45
27600,note_on,400,0,6,,,,,,,,4,,,,83,45
27600,note_on,160,0,3,,,,,,,,1,,,,83,60
27660,note_off,60,0,6,,,,,,,,4,,,,83,64
27660,note_on,0,0,6,,,,,,,,4,,,,81,45
27680,note_off,80,0,4,,,,,,,,2,,,,83,64
27680,note_off,80,0,3,,,,,,,,1,,,,83,64
27720,note_off,60,0,6,,,,,,,,4,,,,81,64
27720,note_on,0,0,6,,,,,,,,4,,,,80,45
27780,note_off,60,0,6,,,,,,,,4,,,,80,64
27780,note_on,0,0,6,,,,,,,,4,,,,78,45
27840,note_off,60,0,6,,,,,,,,4,,,,78,64
27840,note_on,0,0,6,,,,,,,,4,,,,76,45
27840,note_on,160,0,4,,,,,,,,2,,,,83,45
27840,note_on,160,0,3,,,,,,,,1,,,,83,60
27920,note_off,80,0,4,,,,,,,,2,,,,83,64
27920,note_off,80,0,3,,,,,,,,1,,,,83,64
28080,note_on,160,0,3,,,,,,,,1,,,,83,60
28080,note_on,160,0,4,,,,,,,,2,,,,83,45
28160,note_off,80,0,4,,,,,,,,2,,,,83,64
28160,note_off,80,0,3,,,,,,,,1,,,,83,64
28240,note_off,400,0,6,,,,,,,,4,,,,76,64
28320,note_on,160,0,3,,,,,,,,1,,,,83,60
28320,note_on,3440,0,5,,,,,,,,3,,,,83,45
28320,note_on,160,0,4,,,,,,,,2,,,,83,45
28360,note_on,0,0,5,,,,,,,,3,,,,85,45
28360,note_off,40,0,5,,,,,,,,3,,,,83,64
28400,note_off,40,0,5,,,,,,,,3,,,,85,64
28400,note_on,0,0,5,,,,,,,,3,,,,83,45
28400,note_off,80,0,3,,,,,,,,1,,,,83,64
28400,note_off,80,0,4,,,,,,,,2,,,,83,64
28440,note_on,0,0,5,,,,,,,,3,,,,85,45
28440,note_off,40,0,5,,,,,,,,3,,,,83,64
28480,note_on,0,0,5,,,,,,,,3,,,,83,45
28480,note_off,40,0,5,,,,,,,,3,,,,85,64
28520,note_on,0,0,5,,,,,,,,3,,,,85,45
28520,note_off,40,0,5,,,,,,,,3,,,,83,64
28560,note_on,320,0,6,,,,,,,,4,,,,83,45
28560,note_on,160,0,4,,,,,,,,2,,,,83,45
28560,note_on,0,0,5,,,,,,,,3,,,,83,45
28560,note_off,40,0,5,,,,,,,,3,,,,85,64
28560,note_on,160,0,3,,,,,,,,1,,,,83,60
28620,note_on,0,0,6,,,,,,,,4,,,,81,45
28620,note_off,60,0,6,,,,,,,,4,,,,83,64
28640,note_off,80,0,3,,,,,,,,1,,,,83,64
28640,note_off,80,0,5,,,,,,,,3,,,,83,64
28640,note_off,80,0,4,,,,,,,,2,,,,83,64
28680,note_on,0,0,6,,,,,,,,4,,,,80,45
28680,note_off,60,0,6,,,,,,,,4,,,,81,64
28740,note_on,0,0,6,,,,,,,,4,,,,78,45
28740,note_off,60,0,6,,,,,,,,4,,,,80,64
28800,note_on,0,0,6,,,,,,,,4,,,,76,45
28800,note_off,60,0,6,,,,,,,,4,,,,78,64
28800,note_on,160,0,3,,,,,,,,1,,,,83,60
28800,note_on,160,0,5,,,,,,,,3,,,,83,45
28800,note_on,160,0,4,,,,,,,,2,,,,83,45
28840,note_off,40,0,5,,,,,,,,3,,,,83,64
28840,note_on,0,0,5,,,,,,,,3,,,,85,45
28880,note_off,80,0,4,,,,,,,,2,,,,83,64
28880,note_off,80,0,3,,,,,,,,1,,,,83,64
28880,note_off,40,0,5,,,,,,,,3,,,,85,64
28880,note_on,0,0,5,,,,,,,,3,,,,83,45
28920,note_on,0,0,5,,,,,,,,3,,,,85,45
28920,note_off,40,0,5,,,,,,,,3,,,,83,64
28960,note_on,0,0,5,,,,,,,,3,,,,83,45
28960,note_off,40,0,5,,,,,,,,3,,,,85,64
29000,note_on,0,0,5,,,,,,,,3,,,,85,45
29000,note_off,40,0,5,,,,,,,,3,,,,83,64
29040,note_off,40,0,5,,,,,,,,3,,,,85,64
29040,note_on,0,0,5,,,,,,,,3,,,,83,45
29040,note_on,160,0,4,,,,,,,,2,,,,83,45
29040,note_on,160,0,3,,,,,,,,1,,,,83,60
29120,note_off,80,0,4,,,,,,,,2,,,,83,64
29120,note_off,80,0,5,,,,,,,,3,,,,83,64
29120,note_off,80,0,3,,,,,,,,1,,,,83,64
29200,note_off,400,0,6,,,,,,,,4,,,,76,64
29280,note_on,160,0,4,,,,,,,,2,,,,83,45
29280,note_on,160,0,5,,,,,,,,3,,,,83,45
29280,note_on,160,0,3,,,,,,,,1,,,,83,60
29320,note_off,40,0,5,,,,,,,,3,,,,83,64
29320,note_on,0,0,5,,,,,,,,3,,,,85,45
29360,note_off,80,0,3,,,,,,,,1,,,,83,64
29360,note_off,40,0,5,,,,,,,,3,,,,85,64
29360,note_off,80,0,4,,,,,,,,2,,,,83,64
29360,note_on,0,0,5,,,,,,,,3,,,,83,45
29400,note_off,40,0,5,,,,,,,,3,,,,83,64
29400,note_on,0,0,5,,,,,,,,3,,,,85,45
29400,note_on,200,0,6,,,,,,,,4,,,,81,45
29440,note_off,40,0,5,,,,,,,,3,,,,85,64
29440,note_on,0,0,5,,,,,,,,3,,,,83,45
29480,note_on,0,0,5,,,,,,,,3,,,,85,45
29480,note_off,40,0,5,,,,,,,,3,,,,83,64
29520,note_off,120,0,6,,,,,,,,4,,,,81,64
29520,note_on,0,0,6,,,,,,,,4,,,,80,45
29520,note_off,40,0,5,,,,,,,,3,,,,85,64
29520,note_on,160,0,3,,,,,,,,1,,,,83,60
29520,note_on,0,0,5,,,,,,,,3,,,,83,45
29520,note_on,160,0,4,,,,,,,,2,,,,83,45
29600,note_off,80,0,5,,,,,,,,3,,,,83,64
29600,note_off,80,0,3,,,,,,,,1,,,,83,64
29600,note_off,80,0,4,,,,,,,,2,,,,83,64
29640,note_on,0,0,6,,,,,,,,4,,,,81,45
29640,note_off,120,0,6,,,,,,,,4,,,,80,64
29760,note_on,160,0,5,,,,,,,,3,,,,83,45
29760,note_on,160,0,3,,,,,,,,1,,,,83,60
29760,note_on,160,0,4,,,,,,,,2,,,,83,45
29760,note_on,0,0,6,,,,,,,,4,,,,80,45
29760,note_off,120,0,6,,,,,,,,4,,,,81,64
29800,note_on,0,0,6,,,,,,,,4,,,,81,45
29800,note_off,40,0,5,,,,,,,,3,,,,83,64
29800,note_on,0,0,5,,,,,,,,3,,,,85,45
29800,note_off,40,0,6,,,,,,,,4,,,,80,64
29840,note_off,80,0,3,,,,,,,,1,,,,83,64
29840,note_off,40,0,5,,,,,,,,3,,,,85,64
29840,note_on,0,0,6,,,,,,,,4,,,,80,45
29840,note_on,0,0,5,,,,,,,,3,,,,83,45
29840,note_off,80,0,4,,,,,,,,2,,,,83,64
29840,note_off,40,0,6,,,,,,,,4,,,,81,64
29880,note_off,40,0,6,,,,,,,,4,,,,80,64
29880,note_off,40,0,5,,,,,,,,3,,,,83,64
29880,note_on,0,0,5,,,,,,,,3,,,,85,45
29880,note_on,0,0,6,,,,,,,,4,,,,81,45
29920,note_on,0,0,5,,,,,,,,3,,,,83,45
29920,note_off,40,0,5,,,,,,,,3,,,,85,64
29920,note_off,40,0,6,,,,,,,,4,,,,81,64
29920,note_on,0,0,6,,,,,,,,4,,,,80,45
29960,note_off,40,0,6,,,,,,,,4,,,,80,64
29960,note_off,40,0,5,,,,,,,,3,,,,83,64
29960,note_on,0,0,5,,,,,,,,3,,,,85,45
29960,note_on,0,0,6,,,,,,,,4,,,,81,45
30000,note_off,40,0,6,,,,,,,,4,,,,81,64
30000,note_on,160,0,4,,,,,,,,2,,,,83,45
30000,note_on,0,0,6,,,,,,,,4,,,,80,45
30000,note_on,160,0,3,,,,,,,,1,,,,83,60
30000,note_off,40,0,5,,,,,,,,3,,,,85,64
30000,note_on,0,0,5,,,,,,,,3,,,,83,45
30080,note_off,80,0,3,,,,,,,,1,,,,83,64
30080,note_off,80,0,5,,,,,,,,3,,,,83,64
30080,note_off,80,0,6,,,,,,,,4,,,,80,64
30080,note_off,80,0,4,,,,,,,,2,,,,83,64
30240,note_on,160,0,3,,,,,,,,1,,,,83,60
30240,note_on,160,0,5,,,,,,,,3,,,,83,45
30240,note_on,160,0,4,,,,,,,,2,,,,83,45
30280,note_off,40,0,5,,,,,,,,3,,,,83,64
30280,note_on,0,0,5,,,,,,,,3,,,,85,45
30320,note_on,0,0,5,,,,,,,,3,,,,83,45
30320,note_off,40,0,5,,,,,,,,3,,,,85,64
30320,note_off,80,0,4,,,,,,,,2,,,,83,64
30360,note_on,0,0,5,,,,,,,,3,,,,85,45
30360,note_on,280,0,6,,,,,,,,4,,,,81,45
30360,note_off,40,0,5,,,,,,,,3,,,,83,64
30400,note_on,0,0,5,,,,,,,,3,,,,83,45
30400,note_off,40,0,5,,,,,,,,3,,,,85,64
30440,note_on,0,0,5,,,,,,,,3,,,,85,45
30440,note_off,40,0,5,,,,,,,,3,,,,83,64
30475,note_off,235,0,3,,,,,,,,1,,,,83,64
30480,note_on,160,0,4,,,,,,,,2,,,,83,45
30480,note_on,5,0,3,,,,,,,,1,,,,83,60
30480,note_on,0,0,6,,,,,,,,4,,,,80,45
30480,note_off,120,0,6,,,,,,,,4,,,,81,64
30480,note_off,40,0,5,,,,,,,,3,,,,85,64
30480,note_on,0,0,5,,,,,,,,3,,,,83,45
30560,note_off,80,0,5,,,,,,,,3,,,,83,64
30560,note_off,80,0,4,,,,,,,,2,,,,83,64
30600,note_off,120,0,6,,,,,,,,4,,,,80,64
30600,note_on,0,0,6,,,,,,,,4,,,,81,45
30715,note_off,235,0,3,,,,,,,,1,,,,83,64
30720,note_on,160,0,5,,,,,,,,3,,,,83,45
30720,note_on,5,0,3,,,,,,,,1,,,,83,60
30720,note_on,160,0,4,,,,,,,,2,,,,83,45
30720,note_on,0,0,6,,,,,,,,4,,,,80,45
30720,note_off,120,0,6,,,,,,,,4,,,,81,64
30760,note_on,0,0,6,,,,,,,,4,,,,81,45
30760,note_off,40,0,5,,,,,,,,3,,,,83,64
30760,note_off,40,0,6,,,,,,,,4,,,,80,64
30760,note_on,0,0,5,,,,,,,,3,,,,85,45
30800,note_on,0,0,6,,,,,,,,4,,,,80,45
30800,note_off,40,0,6,,,,,,,,4,,,,81,64
30800,note_on,0,0,5,,,,,,,,3,,,,83,45
30800,note_off,40,0,5,,,,,,,,3,,,,85,64
30840,note_off,40,0,5,,,,,,,,3,,,,83,64
30840,note_on,0,0,5,,,,,,,,3,,,,85,45
30840,note_off,40,0,6,,,,,,,,4,,,,80,64
30840,note_on,0,0,6,,,,,,,,4,,,,81,45
30880,note_off,40,0,6,,,,,,,,4,,,,81,64
30880,note_on,0,0,6,,,,,,,,4,,,,80,45
30880,note_off,40,0,5,,,,,,,,3,,,,85,64
30880,note_on,0,0,5,,,,,,,,3,,,,83,45
30920,note_off,40,0,6,,,,,,,,4,,,,80,64
30920,note_on,0,0,6,,,,,,,,4,,,,81,45
30920,note_on,0,0,5,,,,,,,,3,,,,85,45
30920,note_off,40,0,5,,,,,,,,3,,,,83,64
30960,note_on,0,0,3,,,,,,,,1,,,,85,67
30960,note_off,40,0,5,,,,,,,,3,,,,85,64
30960,note_off,240,0,4,,,,,,,,2,,,,83,64
30960,note_on,0,0,6,,,,,,,,4,,,,80,45
30960,note_on,0,0,5,,,,,,,,3,,,,83,45
30960,note_off,40,0,6,,,,,,,,4,,,,81,64
30960,note_off,240,0,3,,,,,,,,1,,,,83,64
30960,note_on,0,0,4,,,,,,,,2,,,,85,52
31040,note_off,80,0,6,,,,,,,,4,,,,80,64
31040,note_off,80,0,5,,,,,,,,3,,,,83,64
31080,note_on,0,0,3,,,,,,,,1,,,,87,71
31080,note_on,0,0,4,,,,,,,,2,,,,87,56
31080,note_off,120,0,4,,,,,,,,2,,,,85,64
31080,note_off,120,0,3,,,,,,,,1,,,,85,64
31200,note_off,120,0,3,,,,,,,,1,,,,87,64
31200,note_on,0,0,3,,,,,,,,1,,,,88,75
31200,note_on,0,0,4,,,,,,,,2,,,,88,60
31200,note_off,120,0,4,,,,,,,,2,,,,87,64
31200,note_on,160,0,5,,,,,,,,3,,,,83,45
31280,note_off,80,0,5,,,,,,,,3,,,,83,64
31320,note_off,120,0,3,,,,,,,,1,,,,88,64
31320,note_on,0,0,4,,,,,,,,2,,,,87,60
31320,note_off,120,0,4,,,,,,,,2,,,,88,64
31320,note_on,0,0,3,,,,,,,,1,,,,87,75
31440,note_on,0,0,4,,,,,,,,2,,,,85,58
31440,note_off,120,0,4,,,,,,,,2,,,,87,64
31440,note_on,0,0,3,,,,,,,,1,,,,85,73
31440,note_on,160,0,5,,,,,,,,3,,,,83,45
31440,note_off,120,0,3,,,,,,,,1,,,,87,64
31520,note_off,80,0,5,,,,,,,,3,,,,83,64
31560,note_off,120,0,4,,,,,,,,2,,,,85,64
31560,note_on,0,0,3,,,,,,,,1,,,,83,71
31560,note_off,120,0,3,,,,,,,,1,,,,85,64
31560,note_on,0,0,4,,,,,,,,2,,,,83,56
31680,note_off,120,0,3,,,,,,,,1,,,,83,64
31680,note_on,0,0,4,,,,,,,,2,,,,81,54
31680,note_on,160,0,5,,,,,,,,3,,,,83,45
31680,note_on,0,0,3,,,,,,,,1,,,,81,69
31680,note_off,120,0,4,,,,,,,,2,,,,83,64
31760,note_off,80,0,5,,,,,,,,3,,,,83,64
31800,note_off,120,0,4,,,,,,,,2,,,,81,64
31800,note_on,0,0,3,,,,,,,,1,,,,80,66
31800,note_off,120,0,3,,,,,,,,1,,,,81,64
31800,note_on,0,0,4,,,,,,,,2,,,,80,51
31920,note_off,120,0,3,,,,,,,,1,,,,80,64
31920,note_off,120,0,4,,,,,,,,2,,,,80,64
31920,note_on,0,0,3,,,,,,,,1,,,,78,63
31920,note_on,160,0,5,,,,,,,,3,,,,83,45
31920,note_on,0,0,4,,,,,,,,2,,,,78,48
32000,note_off,80,0,5,,,,,,,,3,,,,83,64
32040,note_on,0,0,4,,,,,,,,2,,,,76,45
32040,note_off,120,0,3,,,,,,,,1,,,,78,64
32040,note_off,120,0,4,,,,,,,,2,,,,78,64
32040,note_on,0,0,3,,,,,,,,1,,,,76,60
32155,note_off,115,0,3,,,,,,,,1,,,,76,64
32155,note_off,115,0,4,,,,,,,,2,,,,76,64
32160,note_on,160,0,5,,,,,,,,3,,,,83,45
32240,note_off,80,0,5,,,,,,,,3,,,,83,64
32400,note_on,160,0,5,,,,,,,,3,,,,83,45
32400,note_on,1360,0,6,,,,,,,,4,,,,83,45
32460,note_off,60,0,6,,,,,,,,4,,,,83,64
32460,note_on,0,0,6,,,,,,,,4,,,,81,45
32480,note_off,80,0,5,,,,,,,,3,,,,83,64
32520,note_off,60,0,6,,,,,,,,4,,,,81,64
32520,note_on,0,0,6,,,,,,,,4,,,,80,45
32580,note_off,60,0,6,,,,,,,,4,,,,80,64
32580,note_on,0,0,6,,,,,,,,4,,,,78,45
32640,note_on,160,0,5,,,,,,,,3,,,,83,45
32640,note_off,60,0,6,,,,,,,,4,,,,78,64
32640,note_on,0,0,6,,,,,,,,4,,,,76,45
32720,note_off,80,0,5,,,,,,,,3,,,,83,64
32880,note_on,160,0,5,,,,,,,,3,,,,83,45
32960,note_off,80,0,5,,,,,,,,3,,,,83,64
33040,note_off,400,0,6,,,,,,,,4,,,,76,64
33120,note_on,160,0,5,,,,,,,,3,,,,83,45
33120,program_change,8240,0,10,,,,,,,,8,,,40,,
33200,note_off,80,0,5,,,,,,,,3,,,,83,64
33360,note_on,160,0,5,,,,,,,,3,,,,83,45
33360,note_on,320,0,6,,,,,,,,4,,,,83,45
33420,note_on,0,0,6,,,,,,,,4,,,,81,45
33420,note_off,60,0,6,,,,,,,,4,,,,83,64
33440,note_off,80,0,5,,,,,,,,3,,,,83,64
33480,note_off,60,0,6,,,,,,,,4,,,,81,64
33480,note_on,0,0,6,,,,,,,,4,,,,80,45
33540,note_off,60,0,6,,,,,,,,4,,,,80,64
33540,note_on,0,0,6,,,,,,,,4,,,,78,45
33600,note_off,60,0,6,,,,,,,,4,,,,78,64
33600,note_on,0,0,6,,,,,,,,4,,,,76,45
33600,note_on,160,0,5,,,,,,,,3,,,,83,45
33600,note_on,480,0,10,,,,,,,,8,,,,83,30
33680,note_off,80,0,5,,,,,,,,3,,,,83,64
33680,note_off,80,0,10,,,,,,,,8,,,,83,64
33840,note_on,160,0,10,,,,,,,,8,,,,83,30
33840,note_on,160,0,5,,,,,,,,3,,,,83,45
33920,note_off,80,0,5,,,,,,,,3,,,,83,64
33920,note_off,80,0,10,,,,,,,,8,,,,83,64
34000,note_off,400,0,6,,,,,,,,4,,,,76,64
34080,note_on,160,0,5,,,,,,,,3,,,,83,45
34080,note_on,160,0,10,,,,,,,,8,,,,83,30
34160,note_off,80,0,5,,,,,,,,3,,,,83,64
34160,note_off,80,0,10,,,,,,,,8,,,,83,64
34320,note_on,160,0,10,,,,,,,,8,,,,83,30
34320,note_on,160,0,5,,,,,,,,3,,,,83,45
34320,note_on,320,0,6,,,,,,,,4,,,,83,45
34380,note_on,0,0,6,,,,,,,,4,,,,81,45
34380,note_off,60,0,6,,,,,,,,4,,,,83,64
34400,note_off,80,0,5,,,,,,,,3,,,,83,64
34400,note_off,80,0,10,,,,,,,,8,,,,83,64
34440,note_on,0,0,6,,,,,,,,4,,,,80,45
34440,note_off,60,0,6,,,,,,,,4,,,,81,64
34500,note_off,60,0,6,,,,,,,,4,,,,80,64
34500,note_on,0,0,6,,,,,,,,4,,,,78,45
34560,note_off,60,0,6,,,,,,,,4,,,,78,64
34560,note_on,160,0,10,,,,,,,,8,,,,83,30
34560,note_on,0,0,6,,,,,,,,4,,,,76,45
34560,note_on,160,0,5,,,,,,,,3,,,,83,45
34800,note_off,240,0,5,,,,,,,,3,,,,83,64
34800,note_on,0,0,5,,,,,,,,3,,,,85,60
34800,note_off,240,0,10,,,,,,,,8,,,,83,64
34800,note_on,0,0,10,,,,,,,,8,,,,85,45
34920,note_on,0,0,5,,,,,,,,3,,,,87,67
34920,note_off,120,0,5,,,,,,,,3,,,,85,64
34920,note_off,120,0,10,,,,,,,,8,,,,85,64
34920,note_on,0,0,10,,,,,,,,8,,,,87,52
34960,note_off,400,0,6,,,,,,,,4,,,,76,64
35040,note_on,0,0,10,,,,,,,,8,,,,88,60
35040,note_off,120,0,10,,,,,,,,8,,,,87,64
35040,note_off,120,0,5,,,,,,,,3,,,,87,64
35040,note_on,0,0,5,,,,,,,,3,,,,88,75
35160,note_off,120,0,5,,,,,,,,3,,,,88,64
35160,note_on,0,0,10,,,,,,,,8,,,,87,60
35160,note_off,120,0,10,,,,,,,,8,,,,88,64
35160,note_on,0,0,5,,,,,,,,3,,,,87,75
35280,note_on,0,0,10,,,,,,,,8,,,,85,60
35280,note_off,120,0,10,,,,,,,,8,,,,87,64
35280,note_on,0,0,5,,,,,,,,3,,,,85,75
35280,note_off,120,0,5,,,,,,,,3,,,,87,64
35400,note_off,120,0,5,,,,,,,,3,,,,85,64
35400,note_off,120,0,10,,,,,,,,8,,,,85,64
35400,note_on,0,0,10,,,,,,,,8,,,,83,54
35400,note_on,0,0,5,,,,,,,,3,,,,83,69
35520,note_off,120,0,10,,,,,,,,8,,,,83,64
35520,note_on,0,0,10,,,,,,,,8,,,,81,48
35520,note_on,0,0,5,,,,,,,,3,,,,81,63
35520,note_off,120,0,5,,,,,,,,3,,,,83,64
35640,note_on,0,0,5,,,,,,,,3,,,,80,57
35640,note_off,120,0,5,,,,,,,,3,,,,81,64
35640,note_off,120,0,10,,,,,,,,8,,,,81,64
35640,note_on,0,0,10,,,,,,,,8,,,,80,42
35760,note_on,3605,0,4,,,,,,,,2,,,,88,45
35760,note_off,120,0,5,,,,,,,,3,,,,80,64
35760,note_on,0,0,5,,,,,,,,3,,,,78,51
35760,note_off,120,0,10,,,,,,,,8,,,,80,64
35760,note_on,0,0,10,,,,,,,,8,,,,78,36
35760,note_on,3605,0,3,,,,,,,,1,,,,88,60
35840,note_off,80,0,4,,,,,,,,2,,,,88,64
35840,note_off,80,0,3,,,,,,,,1,,,,88,64
35880,note_on,0,0,5,,,,,,,,3,,,,76,45
35880,note_on,0,0,10,,,,,,,,8,,,,76,30
35880,note_off,120,0,10,,,,,,,,8,,,,78,64
35880,note_off,120,0,5,,,,,,,,3,,,,78,64
35995,note_off,115,0,10,,,,,,,,8,,,,76,64
35995,note_off,115,0,5,,,,,,,,3,,,,76,64
36000,note_on,160,0,3,,,,,,,,1,,,,88,60
36000,note_on,160,0,4,,,,,,,,2,,,,88,45
36000,note_on,1040,0,6,,,,,,,,4,,,,80,45
36080,note_off,80,0,3,,,,,,,,1,,,,88,64
36080,note_off,80,0,4,,,,,,,,2,,,,88,64
36240,note_on,160,0,3,,,,,,,,1,,,,88,60
36240,note_on,160,0,4,,,,,,,,2,,,,88,45
36320,note_off,80,0,3,,,,,,,,1,,,,88,64
36320,note_off,80,0,4,,,,,,,,2,,,,88,64
36360,note_off,360,0,6,,,,,,,,4,,,,80,64
36360,note_on,0,0,6,,,,,,,,4,,,,81,45
36475,note_off,115,0,6,,,,,,,,4,,,,81,64
36480,program_change,485,0,10,,,,,,,,8,,,50,,
36480,note_on,160,0,3,,,,,,,,1,,,,88,60
36480,note_on,160,0,4,,,,,,,,2,,,,88,45
36480,note_on,5,0,6,,,,,,,,4,,,,80,45
36560,note_off,80,0,3,,,,,,,,1,,,,88,64
36560,note_off,80,0,4,,,,,,,,2,,,,88,64
36720,note_on,160,0,3,,,,,,,,1,,,,88,60
36720,note_on,160,0,4,,,,,,,,2,,,,88,45
36720,note_on,725,0,5,,,,,,,,3,,,,88,45
36800,note_off,80,0,3,,,,,,,,1,,,,88,64
36800,note_off,80,0,5,,,,,,,,3,,,,88,64
36800,note_off,80,0,4,,,,,,,,2,,,,88,64
36840,note_on,0,0,6,,,,,,,,4,,,,81,45
36840,note_off,360,0,6,,,,,,,,4,,,,80,64
36955,note_off,115,0,6,,,,,,,,4,,,,81,64
36960,note_on,160,0,5,,,,,,,,3,,,,88,45
36960,note_on,160,0,4,,,,,,,,2,,,,76,45
36960,note_on,5,0,6,,,,,,,,4,,,,80,45
36960,note_on,160,0,3,,,,,,,,1,,,,76,60
36980,note_off,20,0,3,,,,,,,,1,,,,76,64
36980,note_on,0,0,3,,,,,,,,1,,,,78,60
36990,note_on,0,0,4,,,,,,,,2,,,,78,45
36990,note_off,30,0,4,,,,,,,,2,,,,76,64
37000,note_on,0,0,3,,,,,,,,1,,,,76,60
37000,note_off,20,0,3,,,,,,,,1,,,,78,64
37020,note_off,20,0,3,,,,,,,,1,,,,76,64
37020,note_on,0,0,4,,,,,,,,2,,,,76,45
37020,note_off,30,0,4,,,,,,,,2,,,,78,64
37020,note_on,0,0,3,,,,,,,,1,,,,78,60
37040,note_off,80,0,5,,,,,,,,3,,,,88,64
37040,note_on,0,0,3,,,,,,,,1,,,,76,60
37040,note_off,20,0,3,,,,,,,,1,,,,78,64
37050,note_on,0,0,4,,,,,,,,2,,,,78,45
37050,note_off,30,0,4,,,,,,,,2,,,,76,64
37060,note_on,0,0,3,,,,,,,,1,,,,78,60
37060,note_off,20,0,3,,,,,,,,1,,,,76,64
37080,note_on,0,0,3,,,,,,,,1,,,,76,60
37080,note_off,20,0,3,,,,,,,,1,,,,78,64
37080,note_on,0,0,4,,,,,,,,2,,,,76,45
37080,note_off,30,0,4,,,,,,,,2,,,,78,64
37100,note_on,0,0,3,,,,,,,,1,,,,78,60
37100,note_off,20,0,3,,,,,,,,1,,,,76,64
37110,note_on,0,0,4,,,,,,,,2,,,,78,45
37110,note_off,30,0,4,,,,,,,,2,,,,76,64
37120,note_on,0,0,3,,,,,,,,1,,,,76,60
37120,note_off,20,0,3,,,,,,,,1,,,,78,64
37140,note_off,30,0,4,,,,,,,,2,,,,78,64
37140,note_on,0,0,4,,,,,,,,2,,,,76,45
37140,note_on,0,0,3,,,,,,,,1,,,,78,60
37140,note_off,20,0,3,,,,,,,,1,,,,76,64
37160,note_off,20,0,3,,,,,,,,1,,,,78,64
37160,note_on,0,0,3,,,,,,,,1,,,,76,60
37170,note_off,30,0,4,,,,,,,,2,,,,76,64
37170,note_on,0,0,4,,,,,,,,2,,,,78,45
37180,note_on,0,0,3,,,,,,,,1,,,,78,60
37180,note_off,20,0,3,,,,,,,,1,,,,76,64
37200,note_off,20,0,3,,,,,,,,1,,,,78,64
37200,note_on,0,0,3,,,,,,,,1,,,,76,60
37200,note_off,30,0,4,,,,,,,,2,,,,78,64
37200,note_on,160,0,5,,,,,,,,3,,,,88,45
37200,note_on,0,0,4,,,,,,,,2,,,,76,45
37220,note_on,0,0,3,,,,,,,,1,,,,78,60
37220,note_off,20,0,3,,,,,,,,1,,,,76,64
37230,note_off,30,0,4,,,,,,,,2,,,,76,64
37230,note_on,0,0,4,,,,,,,,2,,,,78,45
37240,note_on,0,0,3,,,,,,,,1,,,,76,60
37240,note_off,20,0,3,,,,,,,,1,,,,78,64
37260,note_on,0,0,4,,,,,,,,2,,,,76,45
37260,note_off,20,0,3,,,,,,,,1,,,,76,64
37260,note_on,0,0,3,,,,,,,,1,,,,76,60
37260,note_off,30,0,4,,,,,,,,2,,,,78,64
37280,note_off,80,0,5,,,,,,,,3,,,,88,64
37290,note_off,30,0,4,,,,,,,,2,,,,76,64
37290,note_on,0,0,4,,,,,,,,2,,,,78,45
37290,note_off,30,0,3,,,,,,,,1,,,,76,64
37290,note_on,0,0,3,,,,,,,,1,,,,78,60
37320,note_on,0,0,6,,,,,,,,4,,,,81,45
37320,note_off,30,0,3,,,,,,,,1,,,,78,64
37320,note_on,0,0,3,,,,,,,,1,,,,76,60
37320,note_on,0,0,4,,,,,,,,2,,,,76,45
37320,note_off,30,0,4,,,,,,,,2,,,,78,64
37320,note_off,360,0,6,,,,,,,,4,,,,80,64
37350,note_off,30,0,4,,,,,,,,2,,,,76,64
37350,note_off,30,0,3,,,,,,,,1,,,,76,64
37350,note_on,0,0,3,,,,,,,,1,,,,76,60
37350,note_on,0,0,4,,,,,,,,2,,,,78,45
37380,note_on,0,0,4,,,,,,,,2,,,,76,45
37380,note_on,0,0,3,,,,,,,,1,,,,76,60
37380,note_off,30,0,4,,,,,,,,2,,,,78,64
37380,note_off,30,0,3,,,,,,,,1,,,,76,64
37410,note_on,0,0,4,,,,,,,,2,,,,78,45
37410,note_off,30,0,3,,,,,,,,1,,,,76,64
37410,note_on,0,0,3,,,,,,,,1,,,,78,60
37410,note_off,30,0,4,,,,,,,,2,,,,76,64
37435,note_off,115,0,6,,,,,,,,4,,,,81,64
37440,note_on,5,0,6,,,,,,,,4,,,,80,45
37440,note_on,0,0,4,,,,,,,,2,,,,76,45
37440,note_off,30,0,4,,,,,,,,2,,,,78,64
37440,note_on,160,0,5,,,,,,,,3,,,,88,45
37440,note_off,30,0,3,,,,,,,,1,,,,78,64
37440,note_on,0,0,3,,,,,,,,1,,,,76,60
37520,note_off,80,0,5,,,,,,,,3,,,,88,64
37520,note_off,80,0,4,,,,,,,,2,,,,76,64
37520,note_off,80,0,3,,,,,,,,1,,,,76,64
37680,note_on,160,0,4,,,,,,,,2,,,,88,45
37680,note_on,160,0,5,,,,,,,,3,,,,88,45
37680,note_on,160,0,3,,,,,,,,1,,,,88,60
37760,note_off,80,0,5,,,,,,,,3,,,,88,64
37760,note_off,80,0,3,,,,,,,,1,,,,88,64
37760,note_off,80,0,4,,,,,,,,2,,,,88,64
37800,note_off,360,0,6,,,,,,,,4,,,,80,64
37800,note_on,0,0,6,,,,,,,,4,,,,81,45
37880,note_off,80,0,6,,,,,,,,4,,,,81,64
37920,note_on,160,0,4,,,,,,,,2,,,,88,45
37920,note_on,160,0,5,,,,,,,,3,,,,76,45
37920,note_on,40,0,6,,,,,,,,4,,,,80,45
37920,note_on,160,0,3,,,,,,,,1,,,,88,60
37950,note_on,0,0,5,,,,,,,,3,,,,78,45
37950,note_off,30,0,5,,,,,,,,3,,,,76,64
37980,note_on,0,0,5,,,,,,,,3,,,,76,45
37980,note_off,30,0,5,,,,,,,,3,,,,78,64
38000,note_off,80,0,3,,,,,,,,1,,,,88,64
38000,note_off,80,0,4,,,,,,,,2,,,,88,64
38010,note_off,30,0,5,,,,,,,,3,,,,76,64
38010,note_on,0,0,5,,,,,,,,3,,,,78,45
38040,note_on,0,0,6,,,,,,,,4,,,,81,45
38040,note_on,0,0,5,,,,,,,,3,,,,76,45
38040,note_off,30,0,5,,,,,,,,3,,,,78,64
38040,note_off,120,0,6,,,,,,,,4,,,,80,64
38070,note_on,0,0,5,,,,,,,,3,,,,78,45
38070,note_off,30,0,5,,,,,,,,3,,,,76,64
38100,note_on,0,0,5,,,,,,,,3,,,,76,45
38100,note_off,30,0,5,,,,,,,,3,,,,78,64
38120,note_off,80,0,6,,,,,,,,4,,,,81,64
38130,note_on,0,0,5,,,,,,,,3,,,,78,45
38130,note_off,30,0,5,,,,,,,,3,,,,76,64
38160,note_on,0,0,5,,,,,,,,3,,,,76,45
38160,note_off,30,0,5,,,,,,,,3,,,,78,64
38160,note_on,160,0,3,,,,,,,,1,,,,88,60
38160,note_on,160,0,4,,,,,,,,2,,,,88,45
38160,note_on,40,0,6,,,,,,,,4,,,,80,45
38190,note_off,30,0,5,,,,,,,,3,,,,76,64
38190,note_on,0,0,5,,,,,,,,3,,,,78,45
38220,note_off,30,0,5,,,,,,,,3,,,,78,64
38220,note_on,0,0,5,,,,,,,,3,,,,76,45
38240,note_off,80,0,3,,,,,,,,1,,,,88,64
38240,note_off,80,0,4,,,,,,,,2,,,,88,64
38250,note_off,30,0,5,,,,,,,,3,,,,76,64
38250,note_on,0,0,5,,,,,,,,3,,,,78,45
38280,note_off,30,0,5,,,,,,,,3,,,,78,64
38280,note_on,0,0,5,,,,,,,,3,,,,76,45
38280,note_off,120,0,6,,,,,,,,4,,,,80,64
38280,note_on,0,0,6,,,,,,,,4,,,,81,45
38310,note_off,30,0,5,,,,,,,,3,,,,76,64
38310,note_on,0,0,5,,,,,,,,3,,,,78,45
38340,note_on,0,0,5,,,,,,,,3,,,,76,45
38340,note_off,30,0,5,,,,,,,,3,,,,78,64
38360,note_off,80,0,6,,,,,,,,4,,,,81,64
38370,note_off,30,0,5,,,,,,,,3,,,,76,64
38370,note_on,0,0,5,,,,,,,,3,,,,78,45
38400,note_off,30,0,5,,,,,,,,3,,,,78,64
38400,note_on,0,0,5,,,,,,,,3,,,,76,45
38400,note_on,160,0,3,,,,,,,,1,,,,88,60
38400,note_on,40,0,6,,,,,,,,4,,,,80,45
38400,note_on,160,0,4,,,,,,,,2,,,,88,45
38480,note_off,80,0,3,,,,,,,,1,,,,88,64
38480,note_off,80,0,4,,,,,,,,2,,,,88,64
38480,note_off,80,0,5,,,,,,,,3,,,,76,64
38520,note_on,0,0,6,,,,,,,,4,,,,81,45
38520,note_off,120,0,6,,,,,,,,4,,,,80,64
38600,note_off,80,0,6,,,,,,,,4,,,,81,64
38640,note_on,160,0,4,,,,,,,,2,,,,88,45
38640,note_on,40,0,6,,,,,,,,4,,,,80,45
38640,note_on,160,0,3,,,,,,,,1,,,,88,60
38640,note_on,160,0,5,,,,,,,,3,,,,88,45
38720,note_off,80,0,4,,,,,,,,2,,,,88,64
38720,note_off,80,0,5,,,,,,,,3,,,,88,64
38720,note_off,80,0,3,,,,,,,,1,,,,88,64
38760,note_on,0,0,6,,,,,,,,4,,,,81,45
38760,note_off,120,0,6,,,,,,,,4,,,,80,64
38840,note_off,80,0,6,,,,,,,,4,,,,81,64
38880,note_on,160,0,3,,,,,,,,1,,,,76,60
38880,note_on,160,0,4,,,,,,,,2,,,,76,45
38880,note_on,40,0,6,,,,,,,,4,,,,80,45
38880,note_on,160,0,5,,,,,,,,3,,,,88,45
38900,note_off,20,0,3,,,,,,,,1,,,,76,64
38900,note_on,0,0,3,,,,,,,,1,,,,78,60
38920,note_off,20,0,3,,,,,,,,1,,,,78,64
38920,note_on,0,0,3,,,,,,,,1,,,,76,60
38940,note_on,0,0,4,,,,,,,,2,,,,78,45
38940,note_off,60,0,4,,,,,,,,2,,,,76,64
38940,note_on,0,0,6,,,,,,,,4,,,,81,45
38940,note_off,60,0,6,,,,,,,,4,,,,80,64
38940,note_on,0,0,3,,,,,,,,1,,,,78,60
38940,note_off,20,0,3,,,,,,,,1,,,,76,64
38960,note_off,80,0,5,,,,,,,,3,,,,88,64
38960,note_off,20,0,3,,,,,,,,1,,,,78,64
38960,note_on,0,0,3,,,,,,,,1,,,,76,60
38980,note_off,20,0,3,,,,,,,,1,,,,76,64
38980,note_off,40,0,6,,,,,,,,4,,,,81,64
38980,note_on,0,0,3,,,,,,,,1,,,,78,60
39000,note_off,60,0,4,,,,,,,,2,,,,78,64
39000,note_on,0,0,4,,,,,,,,2,,,,76,45
39000,note_off,20,0,3,,,,,,,,1,,,,78,64
39000,note_on,0,0,3,,,,,,,,1,,,,76,60
39000,note_on,20,0,6,,,,,,,,4,,,,80,45
39020,note_on,0,0,3,,,,,,,,1,,,,78,60
39020,note_off,20,0,3,,,,,,,,1,,,,76,64
39040,note_on,0,0,3,,,,,,,,1,,,,76,60
39040,note_off,20,0,3,,,,,,,,1,,,,78,64
39060,note_on,0,0,4,,,,,,,,2,,,,78,45
39060,note_off,60,0,4,,,,,,,,2,,,,76,64
39060,note_on,0,0,6,,,,,,,,4,,,,81,45
39060,note_off,60,0,6,,,,,,,,4,,,,80,64
39060,note_off,20,0,3,,,,,,,,1,,,,76,64
39060,note_on,0,0,3,,,,,,,,1,,,,78,60
39080,note_on,0,0,3,,,,,,,,1,,,,76,60
39080,note_off,20,0,3,,,,,,,,1,,,,78,64
39100,note_off,20,0,3,,,,,,,,1,,,,76,64
39100,note_on,0,0,3,,,,,,,,1,,,,78,60
39100,note_off,40,0,6,,,,,,,,4,,,,81,64
39120,note_on,0,0,4,,,,,,,,2,,,,76,45
39120,note_off,60,0,4,,,,,,,,2,,,,78,64
39120,note_on,0,0,3,,,,,,,,1,,,,76,60
39120,note_on,20,0,6,,,,,,,,4,,,,80,45
39120,note_on,160,0,5,,,,,,,,3,,,,88,45
39120,note_off,20,0,3,,,,,,,,1,,,,78,64
39140,note_on,0,0,3,,,,,,,,1,,,,78,60
39140,note_off,20,0,3,,,,,,,,1,,,,76,64
39160,note_on,0,0,3,,,,,,,,1,,,,76,60
39160,note_off,20,0,3,,,,,,,,1,,,,78,64
39180,note_off,20,0,3,,,,,,,,1,,,,76,64
39180,note_on,0,0,6,,,,,,,,4,,,,81,45
39180,note_off,60,0,6,,,,,,,,4,,,,80,64
39180,note_on,0,0,3,,,,,,,,1,,,,76,60
39200,note_off,80,0,4,,,,,,,,2,,,,76,64
39200,note_off,80,0,5,,,,,,,,3,,,,88,64
39210,note_off,30,0,3,,,,,,,,1,,,,76,64
39210,note_on,0,0,3,,,,,,,,1,,,,78,60
39220,note_off,40,0,6,,,,,,,,4,,,,81,64
39240,note_on,20,0,6,,,,,,,,4,,,,80,45
39240,note_on,0,0,3,,,,,,,,1,,,,76,60
39240,note_off,30,0,3,,,,,,,,1,,,,78,64
39270,note_on,0,0,3,,,,,,,,1,,,,76,60
39270,note_off,30,0,3,,,,,,,,1,,,,76,64
39300,note_on,0,0,6,,,,,,,,4,,,,81,45
39300,note_off,60,0,6,,,,,,,,4,,,,80,64
39300,note_off,30,0,3,,,,,,,,1,,,,76,64
39300,note_on,0,0,3,,,,,,,,1,,,,76,60
39330,note_on,0,0,3,,,,,,,,1,,,,78,60
39330,note_off,30,0,3,,,,,,,,1,,,,76,64
39340,note_off,40,0,6,,,,,,,,4,,,,81,64
39350,note_off,20,0,3,,,,,,,,1,,,,78,64
39360,note_on,20,0,6,,,,,,,,4,,,,80,45
39360,note_on,160,0,5,,,,,,,,3,,,,88,45
39420,note_off,60,0,6,,,,,,,,4,,,,80,64
39420,note_on,0,0,6,,,,,,,,4,,,,81,45
39440,note_off,80,0,5,,,,,,,,3,,,,88,64
39460,note_off,40,0,6,,,,,,,,4,,,,81,64
39480,note_on,20,0,6,,,,,,,,4,,,,80,45
39540,note_off,60,0,6,,,,,,,,4,,,,80,64
39540,note_on,0,0,6,,,,,,,,4,,,,81,45
39580,note_off,40,0,6,,,,,,,,4,,,,81,64
39600,note_on,20,0,6,,,,,,,,4,,,,80,45
39600,note_on,160,0,5,,,,,,,,3,,,,88,45
39660,note_off,60,0,6,,,,,,,,4,,,,80,64
39660,note_on,0,0,6,,,,,,,,4,,,,81,45
39680,note_off,80,0,5,,,,,,,,3,,,,88,64
39700,note_off,40,0,6,,,,,,,,4,,,,81,64
39720,note_on,20,0,6,,,,,,,,4,,,,80,45
39780,note_off,60,0,6,,,,,,,,4,,,,80,64
39780,note_on,0,0,6,,,,,,,,4,,,,81,45
39820,note_off,40,0,6,,,,,,,,4,,,,81,64
39840,note_on,160,0,5,,,,,,,,3,,,,76,45
39840,note_on,20,0,6,,,,,,,,4,,,,80,45
39840,note_on,490,0,3,,,,,,,,1,,,,83,60
39840,note_on,640,0,4,,,,,,,,2,,,,83,45
39870,note_on,0,0,6,,,,,,,,4,,,,81,45
39870,note_off,30,0,6,,,,,,,,4,,,,80,64
39880,note_on,0,0,5,,,,,,,,3,,,,78,45
39880,note_off,40,0,5,,,,,,,,3,,,,76,64
39900,note_on,0,0,6,,,,,,,,4,,,,80,45
39900,note_off,30,0,6,,,,,,,,4,,,,81,64
39920,note_on,0,0,5,,,,,,,,3,,,,76,45
39920,note_off,40,0,5,,,,,,,,3,,,,78,64
39930,note_on,0,0,6,,,,,,,,4,,,,81,45
39930,note_off,30,0,6,,,,,,,,4,,,,80,64
39960,note_on,0,0,5,,,,,,,,3,,,,78,45
39960,note_off,30,0,6,,,,,,,,4,,,,81,64
39960,note_on,0,0,6,,,,,,,,4,,,,80,45
39960,note_off,40,0,5,,,,,,,,3,,,,76,64
39990,note_on,0,0,6,,,,,,,,4,,,,81,45
39990,note_off,30,0,6,,,,,,,,4,,,,80,64
40000,note_off,40,0,5,,,,,,,,3,,,,78,64
40000,note_on,0,0,5,,,,,,,,3,,,,76,45
40020,note_on,0,0,6,,,,,,,,4,,,,80,45
40020,note_off,30,0,6,,,,,,,,4,,,,81,64
40040,note_off,40,0,5,,,,,,,,3,,,,76,64
40040,note_on,0,0,5,,,,,,,,3,,,,78,45
40050,note_on,0,0,6,,,,,,,,4,,,,81,45
40050,note_off,30,0,6,,,,,,,,4,,,,80,64
40080,note_on,0,0,5,,,,,,,,3,,,,76,45
40080,note_on,0,0,6,,,,,,,,4,,,,80,45
40080,note_off,30,0,6,,,,,,,,4,,,,81,64
40080,note_off,40,0,5,,,,,,,,3,,,,78,64
40160,note_off,80,0,6,,,,,,,,4,,,,80,64
40160,note_off,80,0,5,,,,,,,,3,,,,76,64
40320,note_on,160,0,5,,,,,,,,3,,,,80,45
40360,note_off,40,0,5,,,,,,,,3,,,,80,64
40360,note_on,0,0,5,,,,,,,,3,,,,81,45
40400,note_off,40,0,5,,,,,,,,3,,,,81,64
40400,note_on,0,0,5,,,,,,,,3,,,,80,45
40435,note_off,595,0,3,,,,,,,,1,,,,83,64
40435,note_off,595,0,4,,,,,,,,2,,,,83,64
40440,note_on,5,0,3,,,,,,,,1,,,,88,60
40440,note_on,0,0,5,,,,,,,,3,,,,81,45
40440,note_on,5,0,4,,,,,,,,2,,,,88,45
40440,note_off,40,0,5,,,,,,,,3,,,,80,64
40480,note_off,40,0,5,,,,,,,,3,,,,81,64
40480,note_on,0,0,5,,,,,,,,3,,,,80,45
40520,note_off,40,0,5,,,,,,,,3,,,,80,64
40520,note_on,0,0,5,,,,,,,,3,,,,81,45
40560,note_off,40,0,5,,,,,,,,3,,,,81,64
40560,note_off,120,0,3,,,,,,,,1,,,,88,64
40560,note_on,0,0,3,,,,,,,,1,,,,83,60
40560,note_on,0,0,4,,,,,,,,2,,,,83,45
40560,note_off,120,0,4,,,,,,,,2,,,,88,64
40560,note_on,0,0,5,,,,,,,,3,,,,80,45
40640,note_off,80,0,5,,,,,,,,3,,,,80,64
40680,note_off,120,0,4,,,,,,,,2,,,,83,64
40680,note_on,0,0,4,,,,,,,,2,,,,85,45
40680,note_off,120,0,3,,,,,,,,1,,,,83,64
40680,note_on,0,0,3,,,,,,,,1,,,,85,60
40795,note_off,115,0,3,,,,,,,,1,,,,85,64
40795,note_off,115,0,4,,,,,,,,2,,,,85,64
40800,note_on,640,0,6,,,,,,,,4,,,,80,45
40800,note_on,5,0,4,,,,,,,,2,,,,83,45
40800,note_on,5,0,3,,,,,,,,1,,,,83,60
40840,note_off,40,0,6,,,,,,,,4,,,,80,64
40840,note_on,0,0,6,,,,,,,,4,,,,81,45
40880,note_off,40,0,6,,,,,,,,4,,,,81,64
40880,note_on,0,0,6,,,,,,,,4,,,,80,45
40920,note_off,40,0,6,,,,,,,,4,,,,80,64
40920,note_on,0,0,6,,,,,,,,4,,,,81,45
40960,note_off,40,0,6,,,,,,,,4,,,,81,64
40960,note_on,0,0,6,,,,,,,,4,,,,80,45
41000,note_on,0,0,6,,,,,,,,4,,,,81,45
41000,note_off,40,0,6,,,,,,,,4,,,,80,64
41040,note_off,40,0,6,,,,,,,,4,,,,81,64
41040,note_on,0,0,6,,,,,,,,4,,,,80,45
41120,note_off,80,0,6,,,,,,,,4,,,,80,64
41280,note_on,640,0,5,,,,,,,,3,,,,76,45
41320,note_off,40,0,5,,,,,,,,3,,,,76,64
41320,note_on,0,0,5,,,,,,,,3,,,,78,45
41360,note_on,0,0,5,,,,,,,,3,,,,76,45
41360,note_off,40,0,5,,,,,,,,3,,,,78,64
41395,note_off,595,0,3,,,,,,,,1,,,,83,64
41395,note_off,595,0,4,,,,,,,,2,,,,83,64
41400,note_on,5,0,3,,,,,,,,1,,,,88,60
41400,note_on,0,0,5,,,,,,,,3,,,,78,45
41400,note_off,40,0,5,,,,,,,,3,,,,76,64
41400,note_on,5,0,4,,,,,,,,2,,,,88,45
41440,note_off,40,0,5,,,,,,,,3,,,,78,64
41440,note_on,0,0,5,,,,,,,,3,,,,76,45
41480,note_on,0,0,5,,,,,,,,3,,,,78,45
41480,note_off,40,0,5,,,,,,,,3,,,,76,64
41520,note_off,40,0,5,,,,,,,,3,,,,78,64
41520,note_on,0,0,5,,,,,,,,3,,,,76,45
41520,note_off,120,0,3,,,,,,,,1,,,,88,64
41520,note_on,0,0,4,,,,,,,,2,,,,83,45
41520,note_off,120,0,4,,,,,,,,2,,,,88,64
41520,note_on,0,0,3,,,,,,,,1,,,,83,60
41600,note_off,80,0,5,,,,,,,,3,,,,76,64
41640,note_on,0,0,3,,,,,,,,1,,,,85,60
41640,note_off,120,0,3,,,,,,,,1,,,,83,64
41640,note_off,120,0,4,,,,,,,,2,,,,83,64
41640,note_on,0,0,4,,,,,,,,2,,,,85,45
41720,note_off,80,0,4,,,,,,,,2,,,,85,64
41720,note_off,80,0,3,,,,,,,,1,,,,85,64
41760,note_on,40,0,3,,,,,,,,1,,,,83,60
41760,note_on,40,0,4,,,,,,,,2,,,,83,45
41760,note_on,640,0,6,,,,,,,,4,,,,80,45
41800,note_on,0,0,6,,,,,,,,4,,,,81,45
41800,note_off,40,0,6,,,,,,,,4,,,,80,64
41840,note_on,0,0,6,,,,,,,,4,,,,80,45
41840,note_off,40,0,6,,,,,,,,4,,,,81,64
41880,note_off,120,0,3,,,,,,,,1,,,,83,64
41880,note_on,0,0,3,,,,,,,,1,,,,88,60
41880,note_off,120,0,4,,,,,,,,2,,,,83,64
41880,note_off,40,0,6,,,,,,,,4,,,,80,64
41880,note_on,0,0,6,,,,,,,,4,,,,81,45
41880,note_on,0,0,4,,,,,,,,2,,,,88,45
41920,note_off,40,0,6,,,,,,,,4,,,,81,64
41920,note_on,0,0,6,,,,,,,,4,,,,80,45
41960,note_off,80,0,3,,,,,,,,1,,,,88,64
41960,note_on,0,0,6,,,,,,,,4,,,,81,45
41960,note_off,80,0,4,,,,,,,,2,,,,88,64
41960,note_off,40,0,6,,,,,,,,4,,,,80,64
42000,note_on,0,0,6,,,,,,,,4,,,,80,45
42000,note_off,40,0,6,,,,,,,,4,,,,81,64
42000,note_on,40,0,4,,,,,,,,2,,,,83,45
42000,note_on,40,0,3,,,,,,,,1,,,,83,60
42080,note_off,80,0,6,,,,,,,,4,,,,80,64
42120,note_off,120,0,4,,,,,,,,2,,,,83,64
42120,note_on,0,0,4,,,,,,,,2,,,,85,45
42120,note_off,120,0,3,,,,,,,,1,,,,83,64
42120,note_on,0,0,3,,,,,,,,1,,,,85,60
42200,note_off,80,0,4,,,,,,,,2,,,,85,64
42200,note_off,80,0,3,,,,,,,,1,,,,85,64
42240,note_on,640,0,5,,,,,,,,3,,,,76,45
42240,note_on,40,0,3,,,,,,,,1,,,,83,60
42240,note_on,40,0,4,,,,,,,,2,,,,83,45
42280,note_on,0,0,5,,,,,,,,3,,,,78,45
42280,note_off,40,0,5,,,,,,,,3,,,,76,64
42320,note_off,40,0,5,,,,,,,,3,,,,78,64
42320,note_on,0,0,5,,,,,,,,3,,,,76,45
42360,note_off,120,0,4,,,,,,,,2,,,,83,64
42360,note_on,0,0,4,,,,,,,,2,,,,88,45
42360,note_on,0,0,3,,,,,,,,1,,,,88,60
42360,note_off,40,0,5,,,,,,,,3,,,,76,64
42360,note_on,0,0,5,,,,,,,,3,,,,78,45
42360,note_off,120,0,3,,,,,,,,1,,,,83,64
42400,note_on,0,0,5,,,,,,,,3,,,,76,45
42400,note_off,40,0,5,,,,,,,,3,,,,78,64
42440,note_off,80,0,4,,,,,,,,2,,,,88,64
42440,note_on,0,0,5,,,,,,,,3,,,,78,45
42440,note_off,40,0,5,,,,,,,,3,,,,76,64
42440,note_off,80,0,3,,,,,,,,1,,,,88,64
42480,note_on,40,0,4,,,,,,,,2,,,,83,45
42480,note_off,40,0,5,,,,,,,,3,,,,78,64
42480,note_on,0,0,5,,,,,,,,3,,,,76,45
42480,note_on,40,0,3,,,,,,,,1,,,,83,60
42560,note_off,80,0,5,,,,,,,,3,,,,76,64
42600,note_on,0,0,3,,,,,,,,1,,,,85,60
42600,note_off,120,0,3,,,,,,,,1,,,,83,64
42600,note_on,0,0,4,,,,,,,,2,,,,85,45
42600,note_off,120,0,4,,,,,,,,2,,,,83,64
42680,note_off,80,0,4,,,,,,,,2,,,,85,64
42680,note_off,80,0,3,,,,,,,,1,,,,85,64
42720,note_on,640,0,6,,,,,,,,4,,,,80,45
42720,note_on,40,0,4,,,,,,,,2,,,,83,45
42720,note_on,17840,0,11,,,,,,,,10,,,,80,45
42720,note_on,40,0,3,,,,,,,,1,,,,83,60
42750,note_off,30,0,11,,,,,,,,10,,,,80,64
42750,note_on,0,0,11,,,,,,,,10,,,,81,45
42760,note_off,40,0,6,,,,,,,,4,,,,80,64
42760,note_on,0,0,6,,,,,,,,4,,,,81,45
42780,note_off,30,0,11,,,,,,,,10,,,,81,64
42780,note_on,0,0,11,,,,,,,,10,,,,80,45
42800,note_on,0,0,6,,,,,,,,4,,,,80,45
42800,note_off,40,0,6,,,,,,,,4,,,,81,64
42810,note_off,30,0,11,,,,,,,,10,,,,80,64
42810,note_on,0,0,11,,,,,,,,10,,,,81,45
42840,note_on,0,0,4,,,,,,,,2,,,,88,45
42840,note_off,120,0,4,,,,,,,,2,,,,83,64
42840,note_off,30,0,11,,,,,,,,10,,,,81,64
42840,note_on,0,0,6,,,,,,,,4,,,,81,45
42840,note_on,0,0,3,,,,,,,,1,,,,88,60
42840,note_off,120,0,3,,,,,,,,1,,,,83,64
42840,note_off,40,0,6,,,,,,,,4,,,,80,64
42840,note_on,0,0,11,,,,,,,,10,,,,80,45
42870,note_off,30,0,11,,,,,,,,10,,,,80,64
42870,note_on,0,0,11,,,,,,,,10,,,,81,45
42880,note_off,40,0,6,,,,,,,,4,,,,81,64
42880,note_on,0,0,6,,,,,,,,4,,,,80,45
42900,note_off,30,0,11,,,,,,,,10,,,,81,64
42900,note_on,0,0,11,,,,,,,,10,,,,80,45
42920,note_on,0,0,6,,,,,,,,4,,,,81,45
42920,note_off,40,0,6,,,,,,,,4,,,,80,64
42920,note_off,80,0,3,,,,,,,,1,,,,88,64
42920,note_off,80,0,4,,,,,,,,2,,,,88,64
42930,note_off,30,0,11,,,,,,,,10,,,,80,64
42930,note_on,0,0,11,,,,,,,,10,,,,81,45
42960,note_on,40,0,3,,,,,,,,1,,,,83,60
42960,note_off,40,0,6,,,,,,,,4,,,,81,64
42960,note_on,0,0,11,,,,,,,,10,,,,80,45
42960,note_on,0,0,6,,,,,,,,4,,,,80,45
42960,note_on,40,0,4,,,,,,,,2,,,,83,45
42960,note_off,30,0,11,,,,,,,,10,,,,81,64
43040,note_off,80,0,11,,,,,,,,10,,,,80,64
43040,note_off,80,0,6,,,,,,,,4,,,,80,64
43080,note_off,120,0,4,,,,,,,,2,,,,83,64
43080,note_on,0,0,4,,,,,,,,2,,,,85,45
43080,note_off,120,0,3,,,,,,,,1,,,,83,64
43080,note_on,0,0,3,,,,,,,,1,,,,85,60
43160,note_off,80,0,3,,,,,,,,1,,,,85,64
43160,note_off,80,0,4,,,,,,,,2,,,,85,64
43200,note_on,40,0,3,,,,,,,,1,,,,83,60
43200,note_on,6720,0,10,,,,,,,,8,,,,80,45
43200,note_on,640,0,5,,,,,,,,3,,,,80,45
43200,note_on,40,0,4,,,,,,,,2,,,,83,45
43230,note_off,30,0,10,,,,,,,,8,,,,80,64
43230,note_on,0,0,10,,,,,,,,8,,,,81,45
43240,note_off,40,0,5,,,,,,,,3,,,,80,64
43240,note_on,0,0,5,,,,,,,,3,,,,81,45
43260,note_off,30,0,10,,,,,,,,8,,,,81,64
43260,note_on,0,0,10,,,,,,,,8,,,,80,45
43280,note_off,40,0,5,,,,,,,,3,,,,81,64
43280,note_on,0,0,5,,,,,,,,3,,,,80,45
43290,note_off,30,0,10,,,,,,,,8,,,,80,64
43290,note_on,0,0,10,,,,,,,,8,,,,81,45
43320,note_on,0,0,5,,,,,,,,3,,,,81,45
43320,note_off,40,0,5,,,,,,,,3,,,,80,64
43320,note_off,120,0,4,,,,,,,,2,,,,83,64
43320,note_on,0,0,4,,,,,,,,2,,,,88,45
43320,note_on,0,0,10,,,,,,,,8,,,,80,45
43320,note_off,30,0,10,,,,,,,,8,,,,81,64
43320,note_on,0,0,3,,,,,,,,1,,,,88,60
43320,note_off,120,0,3,,,,,,,,1,,,,83,64
43350,note_off,30,0,10,,,,,,,,8,,,,80,64
43350,note_on,0,0,10,,,,,,,,8,,,,81,45
43360,note_off,40,0,5,,,,,,,,3,,,,81,64
43360,note_on,0,0,5,,,,,,,,3,,,,80,45
43380,note_on,0,0,10,,,,,,,,8,,,,80,45
43380,note_off,30,0,10,,,,,,,,8,,,,81,64
43400,note_on,0,0,5,,,,,,,,3,,,,81,45
43400,note_off,80,0,3,,,,,,,,1,,,,88,64
43400,note_off,40,0,5,,,,,,,,3,,,,80,64
43400,note_off,80,0,4,,,,,,,,2,,,,88,64
43410,note_on,0,0,10,,,,,,,,8,,,,81,45
43410,note_off,30,0,10,,,,,,,,8,,,,80,64
43440,note_off,40,0,5,,,,,,,,3,,,,81,64
43440,note_on,0,0,5,,,,,,,,3,,,,80,45
43440,note_on,0,0,10,,,,,,,,8,,,,80,45
43440,note_off,30,0,10,,,,,,,,8,,,,81,64
43440,note_on,40,0,3,,,,,,,,1,,,,83,60
43440,note_on,40,0,4,,,,,,,,2,,,,83,45
43520,note_off,80,0,10,,,,,,,,8,,,,80,64
43520,note_off,80,0,5,,,,,,,,3,,,,80,64
43560,note_off,120,0,3,,,,,,,,1,,,,83,64
43560,note_on,0,0,3,,,,,,,,1,,,,85,60
43560,note_on,0,0,4,,,,,,,,2,,,,85,45
43560,note_off,120,0,4,,,,,,,,2,,,,83,64
43640,note_off,80,0,3,,,,,,,,1,,,,85,64
43640,note_off,80,0,4,,,,,,,,2,,,,85,64
43680,note_on,40,0,4,,,,,,,,2,,,,83,45
43680,note_on,160,0,10,,,,,,,,8,,,,83,45
43680,note_on,160,0,5,,,,,,,,3,,,,83,45
43680,note_on,640,0,11,,,,,,,,10,,,,80,45
43680,note_on,640,0,6,,,,,,,,4,,,,80,45
43680,note_on,40,0,3,,,,,,,,1,,,,83,60
43710,note_off,30,0,11,,,,,,,,10,,,,80,64
43710,note_on,0,0,11,,,,,,,,10,,,,81,45
43720,note_on,0,0,6,,,,,,,,4,,,,81,45
43720,note_off,40,0,6,,,,,,,,4,,,,80,64
43740,note_on,0,0,11,,,,,,,,10,,,,80,45
43740,note_off,30,0,11,,,,,,,,10,,,,81,64
43760,note_off,40,0,6,,,,,,,,4,,,,81,64
43760,note_on,0,0,6,,,,,,,,4,,,,80,45
43760,note_off,80,0,3,,,,,,,,1,,,,83,64
43760,note_off,80,0,4,,,,,,,,2,,,,83,64
43770,note_off,30,0,11,,,,,,,,10,,,,80,64
43770,note_on,0,0,11,,,,,,,,10,,,,81,45
43800,note_on,0,0,11,,,,,,,,10,,,,80,45
43800,note_off,30,0,11,,,,,,,,10,,,,81,64
43800,note_off,40,0,6,,,,,,,,4,,,,80,64
43800,note_on,0,0,6,,,,,,,,4,,,,81,45
43830,note_off,30,0,11,,,,,,,,10,,,,80,64
43830,note_on,0,0,11,,,,,,,,10,,,,81,45
43840,note_off,40,0,6,,,,,,,,4,,,,81,64
43840,note_on,0,0,6,,,,,,,,4,,,,80,45
43860,note_off,30,0,11,,,,,,,,10,,,,81,64
43860,note_on,0,0,11,,,,,,,,10,,,,80,45
43880,note_on,0,0,6,,,,,,,,4,,,,81,45
43880,note_off,40,0,6,,,,,,,,4,,,,80,64
43890,note_off,30,0,11,,,,,,,,10,,,,80,64
43890,note_on,0,0,11,,,,,,,,10,,,,81,45
43920,note_on,160,0,3,,,,,,,,1,,,,76,60
43920,note_on,160,0,4,,,,,,,,2,,,,76,45
43920,note_on,0,0,6,,,,,,,,4,,,,80,45
43920,note_off,40,0,6,,,,,,,,4,,,,81,64
43920,note_on,0,0,11,,,,,,,,10,,,,80,45
43920,note_off,30,0,11,,,,,,,,10,,,,81,64
44000,note_off,80,0,11,,,,,,,,10,,,,80,64
44000,note_off,80,0,4,,,,,,,,2,,,,76,64
44000,note_off,80,0,3,,,,,,,,1,,,,76,64
44000,note_off,80,0,6,,,,,,,,4,,,,80,64
44160,note_on,160,0,4,,,,,,,,2,,,,80,45
44160,note_on,160,0,3,,,,,,,,1,,,,80,60
44180,note_off,20,0,3,,,,,,,,1,,,,80,64
44180,note_on,0,0,3,,,,,,,,1,,,,81,60
44200,note_on,0,0,3,,,,,,,,1,,,,80,60
44200,note_off,20,0,3,,,,,,,,1,,,,81,64
44220,note_off,20,0,3,,,,,,,,1,,,,80,64
44220,note_off,60,0,4,,,,,,,,2,,,,80,64
44220,note_on,0,0,4,,,,,,,,2,,,,81,45
44220,note_on,0,0,3,,,,,,,,1,,,,81,60
44240,note_on,0,0,3,,,,,,,,1,,,,80,60
44240,note_off,20,0,3,,,,,,,,1,,,,81,64
44260,note_off,20,0,3,,,,,,,,1,,,,80,64
44260,note_on,0,0,3,,,,,,,,1,,,,81,60
44275,note_off,595,0,10,,,,,,,,8,,,,83,64
44275,note_off,595,0,5,,,,,,,,3,,,,83,64
44280,note_off,60,0,4,,,,,,,,2,,,,81,64
44280,note_on,5,0,5,,,,,,,,3,,,,88,45
44280,note_on,5,0,10,,,,,,,,8,,,,88,45
44280,note_off,20,0,3,,,,,,,,1,,,,81,64
44280,note_on,0,0,3,,,,,,,,1,,,,80,60
44280,note_on,0,0,4,,,,,,,,2,,,,80,45
44300,note_on,0,0,3,,,,,,,,1,,,,81,60
44300,note_off,20,0,3,,,,,,,,1,,,,80,64
44320,note_off,20,0,3,,,,,,,,1,,,,81,64
44320,note_on,0,0,3,,,,,,,,1,,,,80,60
44340,note_off,60,0,4,,,,,,,,2,,,,80,64
44340,note_off,20,0,3,,,,,,,,1,,,,80,64
44340,note_on,0,0,3,,,,,,,,1,,,,81,60
44340,note_on,0,0,4,,,,,,,,2,,,,81,45
44360,note_off,20,0,3,,,,,,,,1,,,,81,64
44360,note_on,0,0,3,,,,,,,,1,,,,80,60
44380,note_on,0,0,3,,,,,,,,1,,,,81,60
44380,note_off,20,0,3,,,,,,,,1,,,,80,64
44400,note_off,20,0,3,,,,,,,,1,,,,81,64
44400,note_on,0,0,3,,,,,,,,1,,,,80,60
44400,note_off,60,0,4,,,,,,,,2,,,,81,64
44400,note_off,120,0,10,,,,,,,,8,,,,88,64
44400,note_on,0,0,4,,,,,,,,2,,,,80,45
44400,note_on,0,0,5,,,,,,,,3,,,,83,45
44400,note_off,120,0,5,,,,,,,,3,,,,88,64
44400,note_on,0,0,10,,,,,,,,8,,,,83,45
44480,note_off,80,0,3,,,,,,,,1,,,,80,64
44480,note_off,80,0,4,,,,,,,,2,,,,80,64
44520,note_off,120,0,10,,,,,,,,8,,,,83,64
44520,note_on,0,0,10,,,,,,,,8,,,,85,45
44520,note_on,0,0,5,,,,,,,,3,,,,85,45
44520,note_off,120,0,5,,,,,,,,3,,,,83,64
44635,note_off,115,0,10,,,,,,,,8,,,,85,64
44635,note_off,115,0,5,,,,,,,,3,,,,85,64
44640,note_on,5,0,5,,,,,,,,3,,,,83,45
44640,note_on,640,0,11,,,,,,,,10,,,,80,45
44640,note_on,640,0,6,,,,,,,,4,,,,80,45
44640,note_on,5,0,10,,,,,,,,8,,,,83,45
44670,note_off,30,0,6,,,,,,,,4,,,,80,64
44670,note_on,0,0,6,,,,,,,,4,,,,81,45
44670,note_on,0,0,11,,,,,,,,10,,,,81,45
44670,note_off,30,0,11,,,,,,,,10,,,,80,64
44700,note_off,30,0,11,,,,,,,,10,,,,81,64
44700,note_on,0,0,11,,,,,,,,10,,,,80,45
44700,note_on,0,0,6,,,,,,,,4,,,,80,45
44700,note_off,30,0,6,,,,,,,,4,,,,81,64
44730,note_off,30,0,11,,,,,,,,10,,,,80,64
44730,note_on,0,0,11,,,,,,,,10,,,,81,45
44730,note_on,0,0,6,,,,,,,,4,,,,81,45
44730,note_off,30,0,6,,,,,,,,4,,,,80,64
44760,note_off,30,0,6,,,,,,,,4,,,,81,64
44760,note_on,0,0,11,,,,,,,,10,,,,80,45
44760,note_on,0,0,6,,,,,,,,4,,,,80,45
44760,note_off,30,0,11,,,,,,,,10,,,,81,64
44790,note_on,0,0,6,,,,,,,,4,,,,81,45
44790,note_off,30,0,6,,,,,,,,4,,,,80,64
44790,note_off,30,0,11,,,,,,,,10,,,,80,64
44790,note_on,0,0,11,,,,,,,,10,,,,81,45
44820,note_on,0,0,11,,,,,,,,10,,,,80,45
44820,note_off,30,0,11,,,,,,,,10,,,,81,64
44820,note_off,30,0,6,,,,,,,,4,,,,81,64
44820,note_on,0,0,6,,,,,,,,4,,,,80,45
44850,note_off,30,0,11,,,,,,,,10,,,,80,64
44850,note_on,0,0,6,,,,,,,,4,,,,81,45
44850,note_off,30,0,6,,,,,,,,4,,,,80,64
44850,note_on,0,0,11,,,,,,,,10,,,,81,45
44880,note_on,0,0,6,,,,,,,,4,,,,80,45
44880,note_off,30,0,11,,,,,,,,10,,,,81,64
44880,note_off,30,0,6,,,,,,,,4,,,,81,64
44880,note_on,0,0,11,,,,,,,,10,,,,80,45
44960,note_off,80,0,6,,,,,,,,4,,,,80,64
44960,note_off,80,0,11,,,,,,,,10,,,,80,64
45120,note_on,640,0,4,,,,,,,,2,,,,80,45
45120,note_on,640,0,3,,,,,,,,1,,,,80,60
45140,note_on,0,0,3,,,,,,,,1,,,,81,60
45140,note_off,20,0,3,,,,,,,,1,,,,80,64
45160,note_on,0,0,3,,,,,,,,1,,,,80,60
45160,note_off,20,0,3,,,,,,,,1,,,,81,64
45180,note_off,60,0,4,,,,,,,,2,,,,80,64
45180,note_off,20,0,3,,,,,,,,1,,,,80,64
45180,note_on,0,0,4,,,,,,,,2,,,,81,45
45180,note_on,0,0,3,,,,,,,,1,,,,81,60
45200,note_off,20,0,3,,,,,,,,1,,,,81,64
45200,note_on,0,0,3,,,,,,,,1,,,,80,60
45220,note_off,20,0,3,,,,,,,,1,,,,80,64
45220,note_on,0,0,3,,,,,,,,1,,,,81,60
45235,note_off,595,0,5,,,,,,,,3,,,,83,64
45235,note_off,595,0,10,,,,,,,,8,,,,83,64
45240,note_off,60,0,4,,,,,,,,2,,,,81,64
45240,note_on,0,0,4,,,,,,,,2,,,,80,45
45240,note_on,5,0,5,,,,,,,,3,,,,88,45
45240,note_off,20,0,3,,,,,,,,1,,,,81,64
45240,note_on,5,0,10,,,,,,,,8,,,,88,45
45240,note_on,0,0,3,,,,,,,,1,,,,80,60
45260,note_off,20,0,3,,,,,,,,1,,,,80,64
45260,note_on,0,0,3,,,,,,,,1,,,,81,60
45280,note_off,20,0,3,,,,,,,,1,,,,81,64
45280,note_on,0,0,3,,,,,,,,1,,,,80,60
45300,note_on,0,0,4,,,,,,,,2,,,,81,45
45300,note_off,60,0,4,,,,,,,,2,,,,80,64
45300,note_on,0,0,3,,,,,,,,1,,,,81,60
45300,note_off,20,0,3,,,,,,,,1,,,,80,64
45320,note_on,0,0,3,,,,,,,,1,,,,80,60
45320,note_off,20,0,3,,,,,,,,1,,,,81,64
45340,note_on,0,0,3,,,,,,,,1,,,,81,60
45340,note_off,20,0,3,,,,,,,,1,,,,80,64
45360,note_off,20,0,3,,,,,,,,1,,,,81,64
45360,note_off,60,0,4,,,,,,,,2,,,,81,64
45360,note_on,0,0,4,,,,,,,,2,,,,80,45
45360,note_on,0,0,5,,,,,,,,3,,,,83,45
45360,note_off,120,0,5,,,,,,,,3,,,,88,64
45360,note_on,0,0,3,,,,,,,,1,,,,80,60
45360,note_off,120,0,10,,,,,,,,8,,,,88,64
45360,note_on,0,0,10,,,,,,,,8,,,,83,45
45440,note_off,80,0,3,,,,,,,,1,,,,80,64
45480,note_off,120,0,5,,,,,,,,3,,,,83,64
45480,note_on,0,0,5,,,,,,,,3,,,,85,45
45480,note_on,0,0,10,,,,,,,,8,,,,85,45
45480,note_off,120,0,10,,,,,,,,8,,,,83,64
45560,note_off,80,0,5,,,,,,,,3,,,,85,64
45560,note_off,80,0,10,,,,,,,,8,,,,85,64
45595,note_off,235,0,4,,,,,,,,2,,,,80,64
45600,note_on,640,0,6,,,,,,,,4,,,,80,45
45600,note_on,640,0,11,,,,,,,,10,,,,80,45
45600,note_on,40,0,5,,,,,,,,3,,,,83,45
45600,note_on,40,0,10,,,,,,,,8,,,,83,45
45630,note_off,30,0,11,,,,,,,,10,,,,80,64
45630,note_off,30,0,6,,,,,,,,4,,,,80,64
45630,note_on,0,0,11,,,,,,,,10,,,,81,45
45630,note_on,0,0,6,,,,,,,,4,,,,81,45
45660,note_on,0,0,11,,,,,,,,10,,,,80,45
45660,note_off,30,0,11,,,,,,,,10,,,,81,64
45660,note_on,0,0,6,,,,,,,,4,,,,80,45
45660,note_off,30,0,6,,,,,,,,4,,,,81,64
45690,note_off,30,0,11,,,,,,,,10,,,,80,64
45690,note_on,0,0,11,,,,,,,,10,,,,81,45
45690,note_on,0,0,6,,,,,,,,4,,,,81,45
45690,note_off,30,0,6,,,,,,,,4,,,,80,64
45720,note_on,0,0,5,,,,,,,,3,,,,88,45
45720,note_off,120,0,5,,,,,,,,3,,,,83,64
45720,note_off,30,0,11,,,,,,,,10,,,,81,64
45720,note_off,120,0,10,,,,,,,,8,,,,83,64
45720,note_on,0,0,10,,,,,,,,8,,,,88,45
45720,note_on,0,0,11,,,,,,,,10,,,,80,45
45720,note_on,0,0,6,,,,,,,,4,,,,80,45
45720,note_off,30,0,6,,,,,,,,4,,,,81,64
45750,note_on,0,0,6,,,,,,,,4,,,,81,45
45750,note_on,0,0,11,,,,,,,,10,,,,81,45
45750,note_off,30,0,6,,,,,,,,4,,,,80,64
45750,note_off,30,0,11,,,,,,,,10,,,,80,64
45780,note_off,30,0,11,,,,,,,,10,,,,81,64
45780,note_on,0,0,11,,,,,,,,10,,,,80,45
45780,note_on,0,0,6,,,,,,,,4,,,,80,45
45780,note_off,30,0,6,,,,,,,,4,,,,81,64
45800,note_off,80,0,5,,,,,,,,3,,,,88,64
45800,note_off,80,0,10,,,,,,,,8,,,,88,64
45810,note_off,30,0,6,,,,,,,,4,,,,80,64
45810,note_on,0,0,6,,,,,,,,4,,,,81,45
45810,note_off,30,0,11,,,,,,,,10,,,,80,64
45810,note_on,0,0,11,,,,,,,,10,,,,81,45
45840,note_on,40,0,5,,,,,,,,3,,,,83,45
45840,note_off,30,0,11,,,,,,,,10,,,,81,64
45840,note_on,0,0,11,,,,,,,,10,,,,80,45
45840,note_on,40,0,10,,,,,,,,8,,,,83,45
45840,note_off,30,0,6,,,,,,,,4,,,,81,64
45840,note_on,0,0,6,,,,,,,,4,,,,80,45
45920,note_off,80,0,11,,,,,,,,10,,,,80,64
45920,note_off,80,0,6,,,,,,,,4,,,,80,64
45960,note_off,120,0,10,,,,,,,,8,,,,83,64
45960,note_on,0,0,10,,,,,,,,8,,,,85,45
45960,note_on,0,0,5,,,,,,,,3,,,,85,45
45960,note_off,120,0,5,,,,,,,,3,,,,83,64
46040,note_off,80,0,5,,,,,,,,3,,,,85,64
46040,note_off,80,0,10,,,,,,,,8,,,,85,64
46080,note_on,40,0,10,,,,,,,,8,,,,83,45
46080,note_on,640,0,3,,,,,,,,1,,,,80,60
46080,note_on,40,0,5,,,,,,,,3,,,,83,45
46080,note_on,485,0,4,,,,,,,,2,,,,80,45
46100,note_on,0,0,3,,,,,,,,1,,,,81,60
46100,note_off,20,0,3,,,,,,,,1,,,,80,64
46120,note_on,0,0,3,,,,,,,,1,,,,80,60
46120,note_off,20,0,3,,,,,,,,1,,,,81,64
46140,note_on,0,0,3,,,,,,,,1,,,,81,60
46140,note_off,20,0,3,,,,,,,,1,,,,80,64
46140,note_off,60,0,4,,,,,,,,2,,,,80,64
46140,note_on,0,0,4,,,,,,,,2,,,,81,45
46160,note_on,0,0,3,,,,,,,,1,,,,80,60
46160,note_off,20,0,3,,,,,,,,1,,,,81,64
46180,note_off,20,0,3,,,,,,,,1,,,,80,64
46180,note_on,0,0,3,,,,,,,,1,,,,81,60
46200,note_off,120,0,10,,,,,,,,8,,,,83,64
46200,note_on,0,0,4,,,,,,,,2,,,,80,45
46200,note_off,60,0,4,,,,,,,,2,,,,81,64
46200,note_off,120,0,5,,,,,,,,3,,,,83,64
46200,note_on,0,0,5,,,,,,,,3,,,,88,45
46200,note_on,0,0,3,,,,,,,,1,,,,80,60
46200,note_on,0,0,10,,,,,,,,8,,,,88,45
46200,note_off,20,0,3,,,,,,,,1,,,,81,64
46220,note_on,0,0,3,,,,,,,,1,,,,81,60
46220,note_off,20,0,3,,,,,,,,1,,,,80,64
46240,note_on,0,0,3,,,,,,,,1,,,,80,60
46240,note_off,20,0,3,,,,,,,,1,,,,81,64
46260,note_on,0,0,3,,,,,,,,1,,,,81,60
46260,note_off,20,0,3,,,,,,,,1,,,,80,64
46260,note_on,0,0,4,,,,,,,,2,,,,81,45
46260,note_off,60,0,4,,,,,,,,2,,,,80,64
46280,note_off,80,0,5,,,,,,,,3,,,,88,64
46280,note_off,80,0,10,,,,,,,,8,,,,88,64
46280,note_on,0,0,3,,,,,,,,1,,,,80,60
46280,note_off,20,0,3,,,,,,,,1,,,,81,64
46300,note_on,0,0,3,,,,,,,,1,,,,81,60
46300,note_off,20,0,3,,,,,,,,1,,,,80,64
46320,note_on,40,0,5,,,,,,,,3,,,,83,45
46320,note_off,20,0,3,,,,,,,,1,,,,81,64
46320,note_off,60,0,4,,,,,,,,2,,,,81,64
46320,note_on,0,0,4,,,,,,,,2,,,,80,45
46320,note_on,40,0,10,,,,,,,,8,,,,83,45
46320,note_on,0,0,3,,,,,,,,1,,,,80,60
46400,note_off,80,0,3,,,,,,,,1,,,,80,64
46440,note_on,0,0,10,,,,,,,,8,,,,85,45
46440,note_on,0,0,5,,,,,,,,3,,,,85,45
46440,note_off,120,0,5,,,,,,,,3,,,,83,64
46440,note_off,120,0,10,,,,,,,,8,,,,83,64
46520,note_off,80,0,5,,,,,,,,3,,,,85,64
46520,note_off,80,0,10,,,,,,,,8,,,,85,64
46555,note_off,235,0,4,,,,,,,,2,,,,80,64
46560,note_on,640,0,11,,,,,,,,10,,,,80,45
46560,note_on,40,0,10,,,,,,,,8,,,,83,45
46560,note_on,40,0,5,,,,,,,,3,,,,83,45
46560,note_on,640,0,6,,,,,,,,4,,,,80,45
46590,note_on,0,0,11,,,,,,,,10,,,,81,45
46590,note_on,0,0,6,,,,,,,,4,,,,81,45
46590,note_off,30,0,6,,,,,,,,4,,,,80,64
46590,note_off,30,0,11,,,,,,,,10,,,,80,64
46620,note_off,30,0,6,,,,,,,,4,,,,81,64
46620,note_on,0,0,6,,,,,,,,4,,,,80,45
46620,note_off,30,0,11,,,,,,,,10,,,,81,64
46620,note_on,0,0,11,,,,,,,,10,,,,80,45
46650,note_off,30,0,11,,,,,,,,10,,,,80,64
46650,note_on,0,0,11,,,,,,,,10,,,,81,45
46650,note_off,30,0,6,,,,,,,,4,,,,80,64
46650,note_on,0,0,6,,,,,,,,4,,,,81,45
46680,note_on,0,0,11,,,,,,,,10,,,,80,45
46680,note_on,0,0,10,,,,,,,,8,,,,88,45
46680,note_off,120,0,10,,,,,,,,8,,,,83,64
46680,note_off,30,0,11,,,,,,,,10,,,,81,64
46680,note_off,120,0,5,,,,,,,,3,,,,83,64
46680,note_on,0,0,6,,,,,,,,4,,,,80,45
46680,note_off,30,0,6,,,,,,,,4,,,,81,64
46680,note_on,0,0,5,,,,,,,,3,,,,88,45
46710,note_on,0,0,11,,,,,,,,10,,,,81,45
46710,note_off,30,0,6,,,,,,,,4,,,,80,64
46710,note_off,30,0,11,,,,,,,,10,,,,80,64
46710,note_on,0,0,6,,,,,,,,4,,,,81,45
46740,note_off,30,0,11,,,,,,,,10,,,,81,64
46740,note_on,0,0,11,,,,,,,,10,,,,80,45
46740,note_on,0,0,6,,,,,,,,4,,,,80,45
46740,note_off,30,0,6,,,,,,,,4,,,,81,64
46760,note_off,80,0,5,,,,,,,,3,,,,88,64
46760,note_off,80,0,10,,,,,,,,8,,,,88,64
46770,note_off,30,0,11,,,,,,,,10,,,,80,64
46770,note_on,0,0,11,,,,,,,,10,,,,81,45
46770,note_on,0,0,6,,,,,,,,4,,,,81,45
46770,note_off,30,0,6,,,,,,,,4,,,,80,64
46800,note_on,40,0,10,,,,,,,,8,,,,83,45
46800,note_off,30,0,11,,,,,,,,10,,,,81,64
46800,note_on,40,0,5,,,,,,,,3,,,,83,45
46800,note_on,0,0,11,,,,,,,,10,,,,80,45
46800,note_off,30,0,6,,,,,,,,4,,,,81,64
46800,note_on,0,0,6,,,,,,,,4,,,,80,45
46880,note_off,80,0,11,,,,,,,,10,,,,80,64
46880,note_off,80,0,6,,,,,,,,4,,,,80,64
46920,note_off,120,0,10,,,,,,,,8,,,,83,64
46920,note_off,120,0,5,,,,,,,,3,,,,83,64
46920,note_on,0,0,10,,,,,,,,8,,,,85,45
46920,note_on,0,0,5,,,,,,,,3,,,,85,45
47000,note_off,80,0,5,,,,,,,,3,,,,85,64
47000,note_off,80,0,10,,,,,,,,8,,,,85,64
47040,note_on,40,0,5,,,,,,,,3,,,,83,45
47040,note_on,640,0,3,,,,,,,,1,,,,80,60
47040,note_on,485,0,4,,,,,,,,2,,,,80,45
47040,note_on,40,0,10,,,,,,,,8,,,,83,45
47080,note_on,0,0,3,,,,,,,,1,,,,81,60
47080,note_off,40,0,3,,,,,,,,1,,,,80,64
47100,note_on,0,0,4,,,,,,,,2,,,,81,45
47100,note_off,60,0,4,,,,,,,,2,,,,80,64
47120,note_on,0,0,3,,,,,,,,1,,,,80,60
47120,note_off,40,0,3,,,,,,,,1,,,,81,64
47160,note_on,0,0,4,,,,,,,,2,,,,80,45
47160,note_off,120,0,10,,,,,,,,8,,,,83,64
47160,note_on,0,0,3,,,,,,,,1,,,,81,60
47160,note_off,60,0,4,,,,,,,,2,,,,81,64
47160,note_off,40,0,3,,,,,,,,1,,,,80,64
47160,note_off,120,0,5,,,,,,,,3,,,,83,64
47160,note_on,0,0,10,,,,,,,,8,,,,88,45
47160,note_on,0,0,5,,,,,,,,3,,,,88,45
47200,note_off,40,0,3,,,,,,,,1,,,,81,64
47200,note_on,0,0,3,,,,,,,,1,,,,80,60
47220,note_on,0,0,4,,,,,,,,2,,,,81,45
47220,note_off,60,0,4,,,,,,,,2,,,,80,64
47240,note_off,80,0,10,,,,,,,,8,,,,88,64
47240,note_off,40,0,3,,,,,,,,1,,,,80,64
47240,note_on,0,0,3,,,,,,,,1,,,,81,60
47240,note_off,80,0,5,,,,,,,,3,,,,88,64
47280,note_on,40,0,10,,,,,,,,8,,,,83,45
47280,note_on,0,0,3,,,,,,,,1,,,,80,60
47280,note_on,0,0,4,,,,,,,,2,,,,80,45
47280,note_off,60,0,4,,,,,,,,2,,,,81,64
47280,note_on,40,0,5,,,,,,,,3,,,,83,45
47280,note_off,40,0,3,,,,,,,,1,,,,81,64
47360,note_off,80,0,3,,,,,,,,1,,,,80,64
47400,note_off,120,0,5,,,,,,,,3,,,,83,64
47400,note_off,120,0,10,,,,,,,,8,,,,83,64
47400,note_on,0,0,5,,,,,,,,3,,,,85,45
47400,note_on,0,0,10,,,,,,,,8,,,,85,45
47480,note_off,80,0,10,,,,,,,,8,,,,85,64
47480,note_off,80,0,5,,,,,,,,3,,,,85,64
47515,note_off,235,0,4,,,,,,,,2,,,,80,64
47520,note_on,5,0,4,,,,,,,,2,,,,88,45
47520,note_on,40,0,5,,,,,,,,3,,,,83,45
47520,note_on,40,0,10,,,,,,,,8,,,,83,45
47520,note_on,160,0,3,,,,,,,,1,,,,88,60
47520,note_on,640,0,6,,,,,,,,4,,,,76,45
47520,note_on,640,0,11,,,,,,,,10,,,,76,45
47600,note_off,80,0,5,,,,,,,,3,,,,83,64
47600,note_off,80,0,10,,,,,,,,8,,,,83,64
47760,note_on,160,0,5,,,,,,,,3,,,,76,45
47760,note_on,160,0,10,,,,,,,,8,,,,76,45
47820,note_off,300,0,4,,,,,,,,2,,,,88,64
47820,note_off,300,0,3,,,,,,,,1,,,,88,64
47840,note_off,80,0,10,,,,,,,,8,,,,76,64
47840,note_off,80,0,5,,,,,,,,3,,,,76,64
48000,note_on,180,0,3,,,,,,,,1,,,,88,60
48000,note_on,180,0,4,,,,,,,,2,,,,88,45
48115,note_off,595,0,6,,,,,,,,4,,,,76,64
48115,note_off,595,0,11,,,,,,,,10,,,,76,64
48120,note_off,120,0,3,,,,,,,,1,,,,88,64
48120,note_off,120,0,4,,,,,,,,2,,,,88,64
48120,note_on,5,0,11,,,,,,,,10,,,,83,45
48120,note_on,5,0,6,,,,,,,,4,,,,83,45
48240,note_off,120,0,6,,,,,,,,4,,,,83,64
48240,note_on,0,0,6,,,,,,,,4,,,,76,45
48240,note_on,0,0,11,,,,,,,,10,,,,76,45
48240,note_off,120,0,11,,,,,,,,10,,,,83,64
48360,note_off,120,0,6,,,,,,,,4,,,,76,64
48360,note_on,0,0,6,,,,,,,,4,,,,78,45
48360,note_on,0,0,11,,,,,,,,10,,,,78,45
48360,note_off,120,0,11,,,,,,,,10,,,,76,64
48475,note_off,115,0,6,,,,,,,,4,,,,78,64
48475,note_off,115,0,11,,,,,,,,10,,,,78,64
48480,note_on,5,0,6,,,,,,,,4,,,,76,45
48480,note_on,640,0,5,,,,,,,,3,,,,88,45
48480,note_on,640,0,10,,,,,,,,8,,,,88,45
48480,note_on,360,0,4,,,,,,,,2,,,,88,45
48480,note_on,5,0,11,,,,,,,,10,,,,76,45
48480,note_on,360,0,3,,,,,,,,1,,,,88,60
48520,note_on,0,0,3,,,,,,,,1,,,,90,60
48520,note_off,40,0,3,,,,,,,,1,,,,88,64
48560,note_on,0,0,4,,,,,,,,2,,,,90,45
48560,note_off,80,0,4,,,,,,,,2,,,,88,64
48560,note_on,0,0,3,,,,,,,,1,,,,88,60
48560,note_off,40,0,3,,,,,,,,1,,,,90,64
48600,note_off,40,0,3,,,,,,,,1,,,,88,64
48600,note_on,0,0,3,,,,,,,,1,,,,90,60
48640,note_off,80,0,4,,,,,,,,2,,,,90,64
48640,note_on,0,0,3,,,,,,,,1,,,,88,60
48640,note_off,40,0,3,,,,,,,,1,,,,90,64
48640,note_on,0,0,4,,,,,,,,2,,,,88,45
48680,note_off,40,0,3,,,,,,,,1,,,,88,64
48680,note_on,0,0,3,,,,,,,,1,,,,90,60
48720,note_off,40,0,3,,,,,,,,1,,,,90,64
48720,note_on,0,0,3,,,,,,,,1,,,,88,60
48720,note_on,0,0,4,,,,,,,,2,,,,90,45
48720,note_off,80,0,4,,,,,,,,2,,,,88,64
48760,note_on,0,0,3,,,,,,,,1,,,,90,60
48760,note_off,40,0,3,,,,,,,,1,,,,88,64
48780,note_off,300,0,5,,,,,,,,3,,,,88,64
48780,note_off,300,0,10,,,,,,,,8,,,,88,64
48800,note_on,0,0,4,,,,,,,,2,,,,88,45
48800,note_off,80,0,4,,,,,,,,2,,,,90,64
48800,note_off,40,0,3,,,,,,,,1,,,,90,64
48800,note_on,0,0,3,,,,,,,,1,,,,88,60
48840,note_off,40,0,3,,,,,,,,1,,,,88,64
48840,note_on,0,0,3,,,,,,,,1,,,,90,60
48880,note_off,80,0,4,,,,,,,,2,,,,88,64
48880,note_on,0,0,4,,,,,,,,2,,,,90,45
48880,note_on,0,0,3,,,,,,,,1,,,,88,60
48880,note_off,40,0,3,,,,,,,,1,,,,90,64
48920,note_on,0,0,3,,,,,,,,1,,,,90,60
48920,note_off,40,0,3,,,,,,,,1,,,,88,64
48960,note_on,0,0,3,,,,,,,,1,,,,88,60
48960,note_off,80,0,4,,,,,,,,2,,,,90,64
48960,note_on,0,0,4,,,,,,,,2,,,,88,45
48960,note_on,180,0,5,,,,,,,,3,,,,88,45
48960,note_off,40,0,3,,,,,,,,1,,,,90,64
48960,note_on,180,0,10,,,,,,,,8,,,,88,45
49000,note_off,40,0,3,,,,,,,,1,,,,88,64
49000,note_on,0,0,3,,,,,,,,1,,,,90,60
49040,note_off,80,0,4,,,,,,,,2,,,,88,64
49040,note_on,0,0,4,,,,,,,,2,,,,90,45
49040,note_on,0,0,3,,,,,,,,1,,,,88,60
49040,note_off,40,0,3,,,,,,,,1,,,,90,64
49075,note_off,595,0,11,,,,,,,,10,,,,76,64
49075,note_off,595,0,6,,,,,,,,4,,,,76,64
49080,note_off,40,0,3,,,,,,,,1,,,,88,64
49080,note_off,120,0,10,,,,,,,,8,,,,88,64
49080,note_off,120,0,5,,,,,,,,3,,,,88,64
49080,note_on,5,0,11,,,,,,,,10,,,,83,45
49080,note_on,5,0,6,,,,,,,,4,,,,83,45
49080,note_on,0,0,3,,,,,,,,1,,,,90,60
49120,note_on,0,0,3,,,,,,,,1,,,,88,60
49120,note_off,80,0,4,,,,,,,,2,,,,90,64
49120,note_off,40,0,3,,,,,,,,1,,,,90,64
49120,note_on,0,0,4,,,,,,,,2,,,,88,45
49160,note_off,40,0,3,,,,,,,,1,,,,88,64
49160,note_on,0,0,3,,,,,,,,1,,,,90,60
49200,note_off,40,0,3,,,,,,,,1,,,,90,64
49200,note_on,0,0,3,,,,,,,,1,,,,88,60
49200,note_on,0,0,11,,,,,,,,10,,,,76,45
49200,note_off,120,0,6,,,,,,,,4,,,,83,64
49200,note_on,0,0,6,,,,,,,,4,,,,76,45
49200,note_off,80,0,4,,,,,,,,2,,,,88,64
49200,note_on,0,0,4,,,,,,,,2,,,,90,45
49200,note_off,120,0,11,,,,,,,,10,,,,83,64
49240,note_off,40,0,3,,,,,,,,1,,,,88,64
49240,note_on,0,0,3,,,,,,,,1,,,,90,60
49280,note_off,80,0,4,,,,,,,,2,,,,90,64
49280,note_on,0,0,3,,,,,,,,1,,,,88,60
49280,note_off,40,0,3,,,,,,,,1,,,,90,64
49280,note_on,0,0,4,,,,,,,,2,,,,88,45
49320,note_off,120,0,11,,,,,,,,10,,,,76,64
49320,note_on,0,0,11,,,,,,,,10,,,,78,45
49320,note_on,0,0,6,,,,,,,,4,,,,78,45
49320,note_on,0,0,3,,,,,,,,1,,,,90,60
49320,note_off,40,0,3,,,,,,,,1,,,,88,64
49320,note_off,120,0,6,,,,,,,,4,,,,76,64
49360,note_on,0,0,3,,,,,,,,1,,,,88,60
49360,note_off,80,0,4,,,,,,,,2,,,,88,64
49360,note_on,0,0,4,,,,,,,,2,,,,90,45
49360,note_off,40,0,3,,,,,,,,1,,,,90,64
49400,note_on,0,0,3,,,,,,,,1,,,,90,60
49400,note_off,40,0,3,,,,,,,,1,,,,88,64
49400,note_off,80,0,11,,,,,,,,10,,,,78,64
49400,note_off,80,0,6,,,,,,,,4,,,,78,64
49440,note_on,0,0,3,,,,,,,,1,,,,88,60
49440,note_off,80,0,4,,,,,,,,2,,,,90,64
49440,note_on,0,0,4,,,,,,,,2,,,,88,45
49440,note_on,40,0,11,,,,,,,,10,,,,76,45
49440,note_off,40,0,3,,,,,,,,1,,,,90,64
49440,note_on,360,0,10,,,,,,,,8,,,,88,45
49440,note_on,360,0,5,,,,,,,,3,,,,88,45
49440,note_on,40,0,6,,,,,,,,4,,,,76,45
49500,note_off,60,0,5,,,,,,,,3,,,,88,64
49500,note_on,0,0,5,,,,,,,,3,,,,90,45
49500,note_on,0,0,10,,,,,,,,8,,,,90,45
49500,note_off,60,0,10,,,,,,,,8,,,,88,64
49560,note_on,0,0,11,,,,,,,,10,,,,83,45
49560,note_on,0,0,10,,,,,,,,8,,,,88,45
49560,note_off,60,0,10,,,,,,,,8,,,,90,64
49560,note_off,120,0,3,,,,,,,,1,,,,88,64
49560,note_off,120,0,6,,,,,,,,4,,,,76,64
49560,note_on,0,0,6,,,,,,,,4,,,,83,45
49560,note_off,120,0,11,,,,,,,,10,,,,76,64
49560,note_off,60,0,5,,,,,,,,3,,,,90,64
49560,note_off,120,0,4,,,,,,,,2,,,,88,64
49560,note_on,0,0,5,,,,,,,,3,,,,88,45
49620,note_on,0,0,10,,,,,,,,8,,,,90,45
49620,note_on,0,0,5,,,,,,,,3,,,,90,45
49620,note_off,60,0,10,,,,,,,,8,,,,88,64
49620,note_off,60,0,5,,,,,,,,3,,,,88,64
49640,note_off,80,0,11,,,,,,,,10,,,,83,64
49640,note_off,80,0,6,,,,,,,,4,,,,83,64
49680,note_on,0,0,5,,,,,,,,3,,,,88,45
49680,note_off,60,0,5,,,,,,,,3,,,,90,64
49680,note_on,40,0,6,,,,,,,,4,,,,76,45
49680,note_off,60,0,10,,,,,,,,8,,,,90,64
49680,note_on,0,0,10,,,,,,,,8,,,,88,45
49680,note_on,40,0,11,,,,,,,,10,,,,76,45
49740,note_off,60,0,5,,,,,,,,3,,,,88,64
49740,note_on,0,0,5,,,,,,,,3,,,,90,45
49740,note_off,60,0,10,,,,,,,,8,,,,88,64
49740,note_on,0,0,10,,,,,,,,8,,,,90,45
49800,note_off,120,0,6,,,,,,,,4,,,,76,64
49800,note_off,60,0,10,,,,,,,,8,,,,90,64
49800,note_off,120,0,11,,,,,,,,10,,,,76,64
49800,note_on,0,0,10,,,,,,,,8,,,,88,45
49800,note_on,0,0,11,,,,,,,,10,,,,78,45
49800,note_on,0,0,6,,,,,,,,4,,,,78,45
49800,note_on,0,0,5,,,,,,,,3,,,,88,45
49800,note_off,60,0,5,,,,,,,,3,,,,90,64
49860,note_off,60,0,10,,,,,,,,8,,,,88,64
49860,note_on,0,0,10,,,,,,,,8,,,,90,45
49860,note_off,60,0,5,,,,,,,,3,,,,88,64
49860,note_on,0,0,5,,,,,,,,3,,,,90,45
49880,note_off,80,0,11,,,,,,,,10,,,,78,64
49880,note_off,80,0,6,,,,,,,,4,,,,78,64
49920,note_off,60,0,10,,,,,,,,8,,,,90,64
49920,note_on,360,0,4,,,,,,,,2,,,,88,45
49920,note_on,360,0,3,,,,,,,,1,,,,88,60
49920,note_on,40,0,11,,,,,,,,10,,,,76,45
49920,note_on,0,0,5,,,,,,,,3,,,,88,45
49920,note_on,40,0,6,,,,,,,,4,,,,76,45
49920,note_off,60,0,5,,,,,,,,3,,,,90,64
49920,note_on,0,0,10,,,,,,,,8,,,,88,45
49980,note_on,0,0,10,,,,,,,,8,,,,90,45
49980,note_off,60,0,10,,,,,,,,8,,,,88,64
49980,note_on,0,0,5,,,,,,,,3,,,,90,45
49980,note_off,60,0,5,,,,,,,,3,,,,88,64
50040,note_off,120,0,3,,,,,,,,1,,,,88,64
50040,note_off,60,0,10,,,,,,,,8,,,,90,64
50040,note_on,0,0,10,,,,,,,,8,,,,88,45
50040,note_off,60,0,5,,,,,,,,3,,,,90,64
50040,note_on,0,0,6,,,,,,,,4,,,,83,45
50040,note_off,120,0,11,,,,,,,,10,,,,76,64
50040,note_off,120,0,6,,,,,,,,4,,,,76,64
50040,note_off,120,0,4,,,,,,,,2,,,,88,64
50040,note_on,0,0,11,,,,,,,,10,,,,83,45
50040,note_on,0,0,5,,,,,,,,3,,,,88,45
50100,note_on,0,0,5,,,,,,,,3,,,,90,45
50100,note_off,60,0,5,,,,,,,,3,,,,88,64
50100,note_on,0,0,10,,,,,,,,8,,,,90,45
50100,note_off,60,0,10,,,,,,,,8,,,,88,64
50120,note_off,80,0,11,,,,,,,,10,,,,83,64
50120,note_off,80,0,6,,,,,,,,4,,,,83,64
50160,note_on,40,0,11,,,,,,,,10,,,,76,45
50160,note_on,0,0,5,,,,,,,,3,,,,88,45
50160,note_off,60,0,5,,,,,,,,3,,,,90,64
50160,note_on,40,0,6,,,,,,,,4,,,,76,45
50160,note_on,0,0,10,,,,,,,,8,,,,88,45
50160,note_off,60,0,10,,,,,,,,8,,,,90,64
50220,note_off,60,0,10,,,,,,,,8,,,,88,64
50220,note_off,60,0,5,,,,,,,,3,,,,88,64
50220,note_on,0,0,10,,,,,,,,8,,,,90,45
50220,note_on,0,0,5,,,,,,,,3,,,,90,45
50280,note_off,120,0,6,,,,,,,,4,,,,76,64
50280,note_off,60,0,5,,,,,,,,3,,,,90,64
50280,note_off,120,0,11,,,,,,,,10,,,,76,64
50280,note_on,0,0,11,,,,,,,,10,,,,78,45
50280,note_on,0,0,5,,,,,,,,3,,,,88,45
50280,note_on,0,0,6,,,,,,,,4,,,,78,45
50280,note_off,60,0,10,,,,,,,,8,,,,90,64
50280,note_on,0,0,10,,,,,,,,8,,,,88,45
50340,note_off,60,0,10,,,,,,,,8,,,,88,64
50340,note_on,0,0,10,,,,,,,,8,,,,90,45
50340,note_off,60,0,5,,,,,,,,3,,,,88,64
50340,note_on,0,0,5,,,,,,,,3,,,,90,45
50360,note_off,80,0,11,,,,,,,,10,,,,78,64
50360,note_off,80,0,6,,,,,,,,4,,,,78,64
50400,note_on,40,0,11,,,,,,,,10,,,,76,45
50400,note_on,40,0,6,,,,,,,,4,,,,76,45
50400,note_on,360,0,3,,,,,,,,1,,,,88,60
50400,note_on,0,0,5,,,,,,,,3,,,,88,45
50400,note_off,60,0,5,,,,,,,,3,,,,90,64
50400,note_on,0,0,10,,,,,,,,8,,,,88,45
50400,note_on,360,0,4,,,,,,,,2,,,,88,45
50400,note_off,60,0,10,,,,,,,,8,,,,90,64
50440,note_off,40,0,3,,,,,,,,1,,,,88,64
50440,note_on,0,0,3,,,,,,,,1,,,,90,59
50480,note_off,80,0,4,,,,,,,,2,,,,88,64
50480,note_on,0,0,4,,,,,,,,2,,,,90,44
50480,note_on,0,0,3,,,,,,,,1,,,,88,58
50480,note_off,40,0,3,,,,,,,,1,,,,90,64
50520,note_on,0,0,3,,,,,,,,1,,,,90,57
50520,note_off,120,0,5,,,,,,,,3,,,,88,64
50520,note_off,120,0,10,,,,,,,,8,,,,88,64
50520,note_off,40,0,3,,,,,,,,1,,,,88,64
50520,note_on,0,0,6,,,,,,,,4,,,,83,44
50520,note_off,120,0,6,,,,,,,,4,,,,76,64
50520,note_on,0,0,11,,,,,,,,10,,,,83,44
50520,note_off,120,0,11,,,,,,,,10,,,,76,64
50560,note_on,0,0,4,,,,,,,,2,,,,88,43
50560,note_on,0,0,3,,,,,,,,1,,,,88,56
50560,note_off,80,0,4,,,,,,,,2,,,,90,64
50560,note_off,40,0,3,,,,,,,,1,,,,90,64
50600,note_off,80,0,11,,,,,,,,10,,,,83,64
50600,note_off,40,0,3,,,,,,,,1,,,,88,64
50600,note_off,80,0,6,,,,,,,,4,,,,83,64
50600,note_on,0,0,3,,,,,,,,1,,,,90,55
50640,note_on,0,0,4,,,,,,,,2,,,,90,42
50640,note_off,80,0,4,,,,,,,,2,,,,88,64
50640,note_on,0,0,3,,,,,,,,1,,,,88,54
50640,note_on,40,0,11,,,,,,,,10,,,,76,42
50640,note_off,40,0,3,,,,,,,,1,,,,90,64
50640,note_on,40,0,6,,,,,,,,4,,,,76,42
50680,note_off,40,0,3,,,,,,,,1,,,,88,64
50680,note_on,0,0,3,,,,,,,,1,,,,90,53
50720,note_off,80,0,4,,,,,,,,2,,,,90,64
50720,note_on,0,0,4,,,,,,,,2,,,,88,41
50720,note_on,0,0,3,,,,,,,,1,,,,88,52
50720,note_off,40,0,3,,,,,,,,1,,,,90,64
50760,note_off,120,0,11,,,,,,,,10,,,,76,64
50760,note_on,0,0,3,,,,,,,,1,,,,90,51
50760,note_off,120,0,6,,,,,,,,4,,,,76,64
50760,note_on,0,0,6,,,,,,,,4,,,,78,40
50760,note_off,40,0,3,,,,,,,,1,,,,88,64
50760,note_on,0,0,11,,,,,,,,10,,,,78,40
50800,note_on,0,0,3,,,,,,,,1,,,,88,50
50800,note_off,40,0,3,,,,,,,,1,,,,90,64
50800,note_off,80,0,4,,,,,,,,2,,,,88,64
50800,note_on,0,0,4,,,,,,,,2,,,,90,40
50840,note_on,0,0,3,,,,,,,,1,,,,90,49
50840,note_off,80,0,6,,,,,,,,4,,,,78,64
50840,note_off,40,0,3,,,,,,,,1,,,,88,64
50840,note_off,80,0,11,,,,,,,,10,,,,78,64
50880,note_off,80,0,4,,,,,,,,2,,,,90,64
50880,note_on,0,0,4,,,,,,,,2,,,,88,39
50880,note_on,40,0,6,,,,,,,,4,,,,76,38
50880,note_on,0,0,3,,,,,,,,1,,,,88,48
50880,note_on,360,0,10,,,,,,,,8,,,,88,40
50880,note_off,40,0,3,,,,,,,,1,,,,90,64
50880,note_on,360,0,5,,,,,,,,3,,,,88,40
50880,note_on,40,0,11,,,,,,,,10,,,,76,38
50920,note_off,40,0,3,,,,,,,,1,,,,88,64
50920,note_on,0,0,3,,,,,,,,1,,,,90,47
50960,note_off,40,0,3,,,,,,,,1,,,,90,64
50960,note_on,0,0,3,,,,,,,,1,,,,88,46
50960,note_on,0,0,4,,,,,,,,2,,,,90,38
50960,note_off,80,0,4,,,,,,,,2,,,,88,64
51000,note_on,0,0,11,,,,,,,,10,,,,83,36
51000,note_off,120,0,5,,,,,,,,3,,,,88,64
51000,note_off,120,0,10,,,,,,,,8,,,,88,64
51000,note_on,0,0,3,,,,,,,,1,,,,90,45
51000,note_off,120,0,6,,,,,,,,4,,,,76,64
51000,note_on,0,0,6,,,,,,,,4,,,,83,36
51000,note_off,40,0,3,,,,,,,,1,,,,88,64
51000,note_off,120,0,11,,,,,,,,10,,,,76,64
51040,note_off,40,0,3,,,,,,,,1,,,,90,64
51040,note_on,0,0,3,,,,,,,,1,,,,88,44
51040,note_off,80,0,4,,,,,,,,2,,,,90,64
51040,note_on,0,0,4,,,,,,,,2,,,,88,36
51080,note_off,40,0,3,,,,,,,,1,,,,88,64
51080,note_on,0,0,3,,,,,,,,1,,,,90,42
51080,note_off,80,0,6,,,,,,,,4,,,,83,64
51080,note_off,80,0,11,,,,,,,,10,,,,83,64
51120,note_on,40,0,11,,,,,,,,10,,,,76,34
51120,note_off,40,0,3,,,,,,,,1,,,,90,64
51120,note_on,0,0,3,,,,,,,,1,,,,88,40
51120,note_on,40,0,6,,,,,,,,4,,,,76,34
51120,note_on,0,0,4,,,,,,,,2,,,,90,34
51120,note_off,80,0,4,,,,,,,,2,,,,88,64
51160,note_on,0,0,3,,,,,,,,1,,,,90,38
51160,note_off,40,0,3,,,,,,,,1,,,,88,64
51200,note_off,40,0,3,,,,,,,,1,,,,90,64
51200,note_off,80,0,4,,,,,,,,2,,,,90,64
51200,note_on,0,0,3,,,,,,,,1,,,,88,36
51200,note_on,0,0,4,,,,,,,,2,,,,88,32
51240,note_on,0,0,6,,,,,,,,4,,,,78,32
51240,note_off,40,0,3,,,,,,,,1,,,,88,64
51240,note_on,0,0,3,,,,,,,,1,,,,90,34
51240,note_off,120,0,11,,,,,,,,10,,,,76,64
51240,note_on,0,0,11,,,,,,,,10,,,,78,32
51240,note_off,120,0,6,,,,,,,,4,,,,76,64
51280,note_off,80,0,4,,,,,,,,2,,,,88,64
51280,note_off,40,0,3,,,,,,,,1,,,,90,64
51280,note_on,0,0,3,,,,,,,,1,,,,88,32
51280,note_on,0,0,4,,,,,,,,2,,,,90,30
51320,note_off,40,0,3,,,,,,,,1,,,,88,64
51320,note_off,80,0,6,,,,,,,,4,,,,78,64
51320,note_on,0,0,3,,,,,,,,1,,,,90,30
51320,note_off,80,0,11,,,,,,,,10,,,,78,64
51355,note_off,35,0,3,,,,,,,,1,,,,90,64
51360,note_on,40,0,11,,,,,,,,10,,,,76,30
51360,note_on,40,0,6,,,,,,,,4,,,,76,30
51360,note_on,360,0,5,,,,,,,,3,,,,88,35
51360,note_on,360,0,10,,,,,,,,8,,,,88,35
51360,note_off,80,0,4,,,,,,,,2,,,,90,64
51420,note_on,0,0,10,,,,,,,,8,,,,90,35
51420,note_off,60,0,5,,,,,,,,3,,,,88,64
51420,note_on,0,0,5,,,,,,,,3,,,,90,35
51420,note_off,60,0,10,,,,,,,,8,,,,88,64
51480,note_off,60,0,5,,,,,,,,3,,,,90,64
51480,note_on,0,0,5,,,,,,,,3,,,,88,35
51480,note_on,0,0,10,,,,,,,,8,,,,88,35
51480,note_off,60,0,10,,,,,,,,8,,,,90,64
51540,note_off,60,0,10,,,,,,,,8,,,,88,64
51540,note_off,60,0,5,,,,,,,,3,,,,88,64
51540,note_on,0,0,5,,,,,,,,3,,,,90,34
51540,note_on,0,0,10,,,,,,,,8,,,,90,34
51600,note_on,0,0,5,,,,,,,,3,,,,88,33
51600,note_off,60,0,10,,,,,,,,8,,,,90,64
51600,note_off,60,0,5,,,,,,,,3,,,,90,64
51600,note_on,0,0,10,,,,,,,,8,,,,88,33
51660,note_off,60,0,5,,,,,,,,3,,,,88,64
51660,note_on,0,0,5,,,,,,,,3,,,,90,32
51660,note_off,60,0,10,,,,,,,,8,,,,88,64
51660,note_on,0,0,10,,,,,,,,8,,,,90,32
51720,note_off,60,0,5,,,,,,,,3,,,,90,64
51720,note_on,0,0,5,,,,,,,,3,,,,88,31
51720,note_on,0,0,10,,,,,,,,8,,,,88,31
51720,note_off,60,0,10,,,,,,,,8,,,,90,64
51760,note_off,400,0,11,,,,,,,,10,,,,76,64
51760,note_off,400,0,6,,,,,,,,4,,,,76,64
51780,note_on,0,0,10,,,,,,,,8,,,,90,30
51780,note_off,60,0,5,,,,,,,,3,,,,88,64
51780,note_off,60,0,10,,,,,,,,8,,,,88,64
51780,note_on,0,0,5,,,,,,,,3,,,,90,30
51835,note_off,55,0,5,,,,,,,,3,,,,90,64
51835,note_off,55,0,10,,,,,,,,8,,,,90,64
52140,note_on,27260,0,8,,,,,,,,6,,,,52,75
52140,note_on,27260,0,13,,,,,,,,12,,,,52,75
52140,note_on,305,0,10,,,,,,,,8,,,,76,75
52140,note_on,27260,0,12,,,,,,,,11,,,,71,75
52140,note_on,380,0,11,,,,,,,,10,,,,64,75
52140,note_on,27260,0,9,,,,,,,,7,,,,40,75
52140,note_on,27260,0,7,,,,,,,,5,,,,68,75
52140,note_on,305,0,5,,,,,,,,3,,,,76,92
52140,note_on,380,0,6,,,,,,,,4,,,,71,92
52220,note_off,80,0,7,,,,,,,,5,,,,68,64
52220,note_off,80,0,12,,,,,,,,11,,,,71,64
52220,note_off,80,0,13,,,,,,,,12,,,,52,64
52220,note_off,80,0,5,,,,,,,,3,,,,76,64
52220,note_off,80,0,8,,,,,,,,6,,,,52,64
52220,note_off,80,0,6,,,,,,,,4,,,,71,64
52220,note_off,80,0,9,,,,,,,,7,,,,40,64
52220,note_off,80,0,10,,,,,,,,8,,,,76,64
52220,note_off,80,0,11,,,,,,,,10,,,,64,64
52380,note_on,0,0,1,,,,,,,,0,,,,76,60
52380,note_on,27500,0,1,,,,,,,,0,,,,64,60
52380,note_on,0,0,1,,,,,,,,0,,,,68,60
52380,note_on,160,0,8,,,,,,,,6,,,,52,75
52380,note_on,0,0,1,,,,,,,,0,,,,71,60
52380,note_on,27500,0,2,,,,,,,,0,,,,40,60
52380,note_on,0,0,2,,,,,,,,0,,,,52,60
52380,note_on,160,0,11,,,,,,,,10,,,,80,75
52380,note_on,160,0,5,,,,,,,,3,,,,83,92
52380,note_on,160,0,9,,,,,,,,7,,,,40,75
52380,note_on,160,0,7,,,,,,,,5,,,,64,75
52380,note_on,160,0,12,,,,,,,,11,,,,64,75
52380,note_on,160,0,6,,,,,,,,4,,,,80,92
52380,note_on,160,0,13,,,,,,,,12,,,,52,75
52380,note_on,160,0,10,,,,,,,,8,,,,83,75
52460,note_off,80,0,11,,,,,,,,10,,,,80,64
52460,note_off,80,0,6,,,,,,,,4,,,,80,64
52460,note_off,80,0,10,,,,,,,,8,,,,83,64
52460,note_off,80,0,5,,,,,,,,3,,,,83,64
52470,note_on,27260,0,14,,,,,,,,13,,,,40,75
52550,note_off,80,0,14,,,,,,,,13,,,,40,64
52620,note_on,160,0,6,,,,,,,,4,,,,78,92
52620,note_on,160,0,10,,,,,,,,8,,,,81,75
52620,note_on,160,0,5,,,,,,,,3,,,,81,92
52620,note_on,160,0,11,,,,,,,,10,,,,78,75
52700,note_off,80,0,11,,,,,,,,10,,,,78,64
52700,note_off,80,0,5,,,,,,,,3,,,,81,64
52700,note_off,80,0,10,,,,,,,,8,,,,81,64
52700,note_off,80,0,6,,,,,,,,4,,,,78,64
52710,note_on,27500,0,15,,,,,,,,14,,,,40,75
52710,note_on,160,0,14,,,,,,,,13,,,,40,75
52740,note_on,40,0,5,,,,,,,,3,,,,80,92
52740,note_on,40,0,6,,,,,,,,4,,,,76,92
52740,note_on,40,0,11,,,,,,,,10,,,,76,75
52740,note_on,40,0,10,,,,,,,,8,,,,80,75
52780,note_off,0,0,1,,,,,,,,0,,,,64,64
52780,note_off,400,0,2,,,,,,,,0,,,,52,64
52780,note_off,400,0,13,,,,,,,,12,,,,52,64
52780,note_off,400,0,1,,,,,,,,0,,,,76,64
52780,note_off,400,0,7,,,,,,,,5,,,,64,64
52780,note_off,0,0,1,,,,,,,,0,,,,68,64
52780,note_off,400,0,8,,,,,,,,6,,,,52,64
52780,note_off,400,0,9,,,,,,,,7,,,,40,64
52780,note_off,400,0,12,,,,,,,,11,,,,64,64
52780,note_off,0,0,2,,,,,,,,0,,,,40,64
52780,note_off,0,0,1,,,,,,,,0,,,,71,64
52820,note_off,80,0,10,,,,,,,,8,,,,80,64
52820,note_off,80,0,11,,,,,,,,10,,,,76,64
52820,note_off,80,0,5,,,,,,,,3,,,,80,64
52820,note_off,80,0,6,,,,,,,,4,,,,76,64
52860,note_on,0,0,1,,,,,,,,0,,,,71,60
52860,note_on,0,0,1,,,,,,,,0,,,,76,60
52860,note_on,80,0,8,,,,,,,,6,,,,52,75
52860,note_on,80,0,7,,,,,,,,5,,,,64,75
52860,note_on,40,0,11,,,,,,,,10,,,,78,75
52860,note_on,80,0,2,,,,,,,,0,,,,40,60
52860,note_on,40,0,6,,,,,,,,4,,,,78,92
52860,note_on,80,0,13,,,,,,,,12,,,,52,75
52860,note_on,40,0,5,,,,,,,,3,,,,81,92
52860,note_on,0,0,1,,,,,,,,0,,,,68,60
52860,note_on,80,0,9,,,,,,,,7,,,,40,75
52860,note_on,80,0,1,,,,,,,,0,,,,64,60
52860,note_on,40,0,10,,,,,,,,8,,,,81,75
52860,note_on,0,0,2,,,,,,,,0,,,,52,60
52860,note_on,80,0,12,,,,,,,,11,,,,64,75
52940,note_off,80,0,11,,,,,,,,10,,,,78,64
52940,note_off,80,0,6,,,,,,,,4,,,,78,64
52940,note_off,80,0,10,,,,,,,,8,,,,81,64
52940,note_off,80,0,5,,,,,,,,3,,,,81,64
53100,note_on,160,0,10,,,,,,,,8,,,,83,75
53100,note_on,160,0,6,,,,,,,,4,,,,80,92
53100,note_on,160,0,5,,,,,,,,3,,,,83,92
53100,note_on,160,0,11,,,,,,,,10,,,,80,75
53110,note_off,400,0,14,,,,,,,,13,,,,40,64
53110,note_off,400,0,15,,,,,,,,14,,,,40,64
53180,note_off,80,0,6,,,,,,,,4,,,,80,64
53180,note_off,80,0,5,,,,,,,,3,,,,83,64
53180,note_off,80,0,10,,,,,,,,8,,,,83,64
53180,note_off,80,0,11,,,,,,,,10,,,,80,64
53190,note_on,80,0,15,,,,,,,,14,,,,40,75
53190,note_on,80,0,14,,,,,,,,13,,,,40,75
53260,note_off,400,0,13,,,,,,,,12,,,,52,64
53260,note_off,0,0,1,,,,,,,,0,,,,68,64
53260,note_off,0,0,2,,,,,,,,0,,,,40,64
53260,note_off,0,0,1,,,,,,,,0,,,,64,64
53260,note_off,400,0,8,,,,,,,,6,,,,52,64
53260,note_off,400,0,2,,,,,,,,0,,,,52,64
53260,note_off,400,0,9,,,,,,,,7,,,,40,64
53260,note_off,400,0,12,,,,,,,,11,,,,64,64
53260,note_off,400,0,7,,,,,,,,5,,,,64,64
53260,note_off,400,0,1,,,,,,,,0,,,,76,64
53260,note_off,0,0,1,,,,,,,,0,,,,71,64
53340,note_on,0,0,1,,,,,,,,0,,,,71,60
53340,note_on,160,0,11,,,,,,,,10,,,,81,75
53340,note_on,80,0,1,,,,,,,,0,,,,64,60
53340,note_on,0,0,1,,,,,,,,0,,,,68,60
53340,note_on,80,0,8,,,,,,,,6,,,,52,75
53340,note_on,80,0,7,,,,,,,,5,,,,69,75
53340,note_on,160,0,5,,,,,,,,3,,,,85,92
53340,note_on,0,0,1,,,,,,,,0,,,,76,60
53340,note_on,80,0,13,,,,,,,,12,,,,52,75
53340,note_on,0,0,2,,,,,,,,0,,,,52,60
53340,note_on,0,0,2,,,,,,,,0,,,,47,60
53340,note_on,80,0,2,,,,,,,,0,,,,40,60
53340,note_on,80,0,12,,,,,,,,11,,,,69,75
53340,note_on,160,0,10,,,,,,,,8,,,,85,75
53340,note_on,80,0,9,,,,,,,,7,,,,40,75
53340,note_on,160,0,6,,,,,,,,4,,,,81,92
53420,note_off,80,0,7,,,,,,,,5,,,,69,64
53420,note_off,80,0,12,,,,,,,,11,,,,69,64
53420,note_off,80,0,5,,,,,,,,3,,,,85,64
53420,note_off,80,0,6,,,,,,,,4,,,,81,64
53420,note_off,80,0,10,,,,,,,,8,,,,85,64
53420,note_off,80,0,11,,,,,,,,10,,,,81,64
53575,note_off,0,0,2,,,,,,,,0,,,,40,64
53575,note_off,0,0,2,,,,,,,,0,,,,47,64
53575,note_off,0,0,1,,,,,,,,0,,,,68,64
53575,note_off,235,0,2,,,,,,,,0,,,,52,64
53575,note_off,0,0,1,,,,,,,,0,,,,71,64
53575,note_off,0,0,1,,,,,,,,0,,,,64,64
53575,note_off,235,0,1,,,,,,,,0,,,,76,64
53580,note_on,0,0,1,,,,,,,,0,,,,71,30
53580,note_on,160,0,12,,,,,,,,11,,,,64,75
53580,note_on,160,0,10,,,,,,,,8,,,,83,75
53580,note_on,160,0,5,,,,,,,,3,,,,83,92
53580,note_on,160,0,7,,,,,,,,5,,,,64,75
53580,note_on,5,0,1,,,,,,,,0,,,,68,30
53580,note_on,160,0,11,,,,,,,,10,,,,80,75
53580,note_on,5,0,2,,,,,,,,0,,,,56,30
53580,note_on,160,0,6,,,,,,,,4,,,,80,92
53590,note_off,400,0,14,,,,,,,,13,,,,40,64
53590,note_off,400,0,15,,,,,,,,14,,,,40,64
53660,note_off,80,0,1,,,,,,,,0,,,,71,64
53660,note_off,0,0,1,,,,,,,,0,,,,68,64
53660,note_off,80,0,2,,,,,,,,0,,,,56,64
53670,note_on,80,0,14,,,,,,,,13,,,,40,75
53670,note_on,80,0,15,,,,,,,,14,,,,40,75
53700,note_on,40,0,1,,,,,,,,0,,,,69,30
53700,note_on,40,0,2,,,,,,,,0,,,,57,30
53700,note_on,0,0,1,,,,,,,,0,,,,73,30
53740,note_off,400,0,8,,,,,,,,6,,,,52,64
53740,note_off,400,0,9,,,,,,,,7,,,,40,64
53740,note_off,400,0,13,,,,,,,,12,,,,52,64
53780,note_off,80,0,2,,,,,,,,0,,,,57,64
53780,note_off,0,0,1,,,,,,,,0,,,,69,64
53780,note_off,80,0,1,,,,,,,,0,,,,73,64
53820,note_on,80,0,9,,,,,,,,7,,,,40,75
53820,note_on,80,0,8,,,,,,,,6,,,,52,75
53820,note_on,80,0,13,,,,,,,,12,,,,52,75
53820,note_on,40,0,1,,,,,,,,0,,,,59,30
53820,note_on,0,0,1,,,,,,,,0,,,,71,30
53820,note_on,0,0,2,,,,,,,,0,,,,56,30
53820,note_on,0,0,1,,,,,,,,0,,,,68,30
53820,note_on,40,0,2,,,,,,,,0,,,,40,30
53820,note_on,0,0,2,,,,,,,,0,,,,47,30
53980,note_off,400,0,6,,,,,,,,4,,,,80,64
53980,note_off,400,0,12,,,,,,,,11,,,,64,64
53980,note_off,400,0,10,,,,,,,,8,,,,83,64
53980,note_off,400,0,7,,,,,,,,5,,,,64,64
53980,note_off,400,0,5,,,,,,,,3,,,,83,64
53980,note_off,400,0,11,,,,,,,,10,,,,80,64
54060,note_on,80,0,12,,,,,,,,11,,,,64,30
54060,note_on,80,0,10,,,,,,,,8,,,,76,30
54060,note_on,80,0,6,,,,,,,,4,,,,71,45
54060,note_on,80,0,11,,,,,,,,10,,,,71,30
54060,note_on,80,0,5,,,,,,,,3,,,,76,45
54060,note_on,80,0,7,,,,,,,,5,,,,64,30
54070,note_off,400,0,15,,,,,,,,14,,,,40,64
54070,note_off,400,0,14,,,,,,,,13,,,,40,64
54140,note_off,80,0,5,,,,,,,,3,,,,76,64
54140,note_off,80,0,10,,,,,,,,8,,,,76,64
54140,note_off,80,0,11,,,,,,,,10,,,,71,64
54140,note_off,80,0,7,,,,,,,,5,,,,64,64
54140,note_off,80,0,12,,,,,,,,11,,,,64,64
54140,note_off,80,0,6,,,,,,,,4,,,,71,64
54150,note_on,80,0,14,,,,,,,,13,,,,40,75
54220,note_off,0,0,2,,,,,,,,0,,,,47,64
54220,note_off,400,0,9,,,,,,,,7,,,,40,64
54220,note_off,0,0,1,,,,,,,,0,,,,68,64
54220,note_off,0,0,1,,,,,,,,0,,,,59,64
54220,note_off,400,0,2,,,,,,,,0,,,,56,64
54220,note_off,400,0,13,,,,,,,,12,,,,52,64
54220,note_off,0,0,2,,,,,,,,0,,,,40,64
54220,note_off,400,0,1,,,,,,,,0,,,,71,64
54220,note_off,400,0,8,,,,,,,,6,,,,52,64
54300,note_on,160,0,6,,,,,,,,4,,,,80,45
54300,note_on,160,0,10,,,,,,,,8,,,,83,30
54300,note_on,160,0,7,,,,,,,,5,,,,64,30
54300,note_on,80,0,9,,,,,,,,7,,,,40,30
54300,note_on,80,0,13,,,,,,,,12,,,,52,30
54300,note_on,80,0,2,,,,,,,,0,,,,40,30
54300,note_on,0,0,2,,,,,,,,0,,,,52,30
54300,note_on,160,0,12,,,,,,,,11,,,,64,30
54300,note_on,160,0,11,,,,,,,,10,,,,80,30
54300,note_on,80,0,1,,,,,,,,0,,,,64,30
54300,note_on,0,0,1,,,,,,,,0,,,,68,30
54300,note_on,0,0,1,,,,,,,,0,,,,71,30
54300,note_on,0,0,1,,,,,,,,0,,,,76,30
54300,note_on,80,0,8,,,,,,,,6,,,,52,30
54300,note_on,160,0,5,,,,,,,,3,,,,83,45
54380,note_off,80,0,6,,,,,,,,4,,,,80,64
54380,note_off,80,0,10,,,,,,,,8,,,,83,64
54380,note_off,80,0,5,,,,,,,,3,,,,83,64
54380,note_off,80,0,11,,,,,,,,10,,,,80,64
54540,note_on,160,0,10,,,,,,,,8,,,,81,30
54540,note_on,160,0,5,,,,,,,,3,,,,81,45
54540,note_on,160,0,6,,,,,,,,4,,,,78,45
54540,note_on,160,0,11,,,,,,,,10,,,,78,30
54550,note_off,400,0,14,,,,,,,,13,,,,40,64
54620,note_off,80,0,6,,,,,,,,4,,,,78,64
54620,note_off,80,0,10,,,,,,,,8,,,,81,64
54620,note_off,80,0,5,,,,,,,,3,,,,81,64
54620,note_off,80,0,11,,,,,,,,10,,,,78,64
54630,note_on,80,0,14,,,,,,,,13,,,,40,30
54630,note_on,560,0,15,,,,,,,,14,,,,40,30
54660,note_on,40,0,11,,,,,,,,10,,,,76,30
54660,note_on,40,0,10,,,,,,,,8,,,,80,30
54660,note_on,40,0,6,,,,,,,,4,,,,76,45
54660,note_on,40,0,5,,,,,,,,3,,,,80,45
54700,note_off,400,0,7,,,,,,,,5,,,,64,64
54700,note_off,400,0,12,,,,,,,,11,,,,64,64
54700,note_off,0,0,1,,,,,,,,0,,,,64,64
54700,note_off,400,0,13,,,,,,,,12,,,,52,64
54700,note_off,400,0,2,,,,,,,,0,,,,52,64
54700,note_off,0,0,2,,,,,,,,0,,,,40,64
54700,note_off,400,0,1,,,,,,,,0,,,,76,64
54700,note_off,0,0,1,,,,,,,,0,,,,71,64
54700,note_off,0,0,1,,,,,,,,0,,,,68,64
54700,note_off,400,0,9,,,,,,,,7,,,,40,64
54700,note_off,400,0,8,,,,,,,,6,,,,52,64
54740,note_off,80,0,10,,,,,,,,8,,,,80,64
54740,note_off,80,0,11,,,,,,,,10,,,,76,64
54740,note_off,80,0,6,,,,,,,,4,,,,76,64
54740,note_off,80,0,5,,,,,,,,3,,,,80,64
54780,note_on,80,0,7,,,,,,,,5,,,,64,30
54780,note_on,0,0,1,,,,,,,,0,,,,71,30
54780,note_on,0,0,1,,,,,,,,0,,,,76,30
54780,note_on,40,0,6,,,,,,,,4,,,,78,45
54780,note_on,80,0,13,,,,,,,,12,,,,52,30
54780,note_on,0,0,2,,,,,,,,0,,,,52,30
54780,note_on,80,0,2,,,,,,,,0,,,,40,30
54780,note_on,40,0,10,,,,,,,,8,,,,81,30
54780,note_on,80,0,1,,,,,,,,0,,,,64,30
54780,note_on,80,0,8,,,,,,,,6,,,,52,30
54780,note_on,0,0,1,,,,,,,,0,,,,68,30
54780,note_on,80,0,9,,,,,,,,7,,,,40,30
54780,note_on,80,0,12,,,,,,,,11,,,,64,30
54780,note_on,40,0,5,,,,,,,,3,,,,81,45
54780,note_on,40,0,11,,,,,,,,10,,,,78,30
54860,note_off,80,0,5,,,,,,,,3,,,,81,64
54860,note_off,80,0,6,,,,,,,,4,,,,78,64
54860,note_off,80,0,10,,,,,,,,8,,,,81,64
54860,note_off,80,0,11,,,,,,,,10,,,,78,64
55020,note_on,160,0,6,,,,,,,,4,,,,80,45
55020,note_on,160,0,10,,,,,,,,8,,,,83,30
55020,note_on,160,0,5,,,,,,,,3,,,,83,45
55020,note_on,160,0,11,,,,,,,,10,,,,80,30
55030,note_off,400,0,14,,,,,,,,13,,,,40,64
55030,note_off,400,0,15,,,,,,,,14,,,,40,64
55100,note_off,80,0,5,,,,,,,,3,,,,83,64
55100,note_off,80,0,10,,,,,,,,8,,,,83,64
55100,note_off,80,0,6,,,,,,,,4,,,,80,64
55100,note_off,80,0,11,,,,,,,,10,,,,80,64
55110,note_on,80,0,14,,,,,,,,13,,,,40,30
55110,note_on,80,0,15,,,,,,,,14,,,,40,30
55180,note_off,0,0,1,,,,,,,,0,,,,68,64
55180,note_off,400,0,2,,,,,,,,0,,,,52,64
55180,note_off,0,0,2,,,,,,,,0,,,,40,64
55180,note_off,0,0,1,,,,,,,,0,,,,71,64
55180,note_off,400,0,1,,,,,,,,0,,,,76,64
55180,note_off,400,0,13,,,,,,,,12,,,,52,64
55180,note_off,400,0,9,,,,,,,,7,,,,40,64
55180,note_off,0,0,1,,,,,,,,0,,,,64,64
55180,note_off,400,0,8,,,,,,,,6,,,,52,64
55180,note_off,400,0,7,,,,,,,,5,,,,64,64
55180,note_off,400,0,12,,,,,,,,11,,,,64,64
55260,note_on,80,0,8,,,,,,,,6,,,,52,30
55260,note_on,80,0,1,,,,,,,,0,,,,64,30
55260,note_on,0,0,1,,,,,,,,0,,,,68,30
55260,note_on,0,0,1,,,,,,,,0,,,,71,30
55260,note_on,0,0,1,,,,,,,,0,,,,76,30
55260,note_on,0,0,2,,,,,,,,0,,,,47,30
55260,note_on,80,0,2,,,,,,,,0,,,,40,30
55260,note_on,160,0,6,,,,,,,,4,,,,81,45
55260,note_on,80,0,12,,,,,,,,11,,,,69,30
55260,note_on,80,0,13,,,,,,,,12,,,,52,30
55260,note_on,160,0,10,,,,,,,,8,,,,85,30
55260,note_on,160,0,11,,,,,,,,10,,,,81,30
55260,note_on,80,0,7,,,,,,,,5,,,,69,30
55260,note_on,160,0,5,,,,,,,,3,,,,85,45
55260,note_on,0,0,2,,,,,,,,0,,,,52,30
55260,note_on,80,0,9,,,,,,,,7,,,,40,30
55340,note_off,80,0,11,,,,,,,,10,,,,81,64
55340,note_off,80,0,5,,,,,,,,3,,,,85,64
55340,note_off,80,0,12,,,,,,,,11,,,,69,64
55340,note_off,80,0,7,,,,,,,,5,,,,69,64
55340,note_off,80,0,10,,,,,,,,8,,,,85,64
55340,note_off,80,0,6,,,,,,,,4,,,,81,64
55495,note_off,0,0,2,,,,,,,,0,,,,47,64
55495,note_off,0,0,2,,,,,,,,0,,,,40,64
55495,note_off,235,0,2,,,,,,,,0,,,,52,64
55495,note_off,0,0,1,,,,,,,,0,,,,68,64
55495,note_off,235,0,1,,,,,,,,0,,,,76,64
55495,note_off,0,0,1,,,,,,,,0,,,,64,64
55495,note_off,0,0,1,,,,,,,,0,,,,71,64
55500,note_on,5,0,2,,,,,,,,0,,,,59,45
55500,note_on,160,0,6,,,,,,,,4,,,,80,45
55500,note_on,5,0,1,,,,,,,,0,,,,68,45
55500,note_on,0,0,1,,,,,,,,0,,,,71,45
55500,note_on,160,0,10,,,,,,,,8,,,,83,30
55500,note_on,160,0,7,,,,,,,,5,,,,64,30
55500,note_on,160,0,11,,,,,,,,10,,,,80,30
55500,note_on,160,0,12,,,,,,,,11,,,,64,30
55500,note_on,160,0,5,,,,,,,,3,,,,83,45
55510,note_off,400,0,15,,,,,,,,14,,,,40,64
55510,note_off,400,0,14,,,,,,,,13,,,,40,64
55580,note_off,0,0,1,,,,,,,,0,,,,68,64
55580,note_off,80,0,1,,,,,,,,0,,,,71,64
55580,note_off,80,0,2,,,,,,,,0,,,,59,64
55590,note_on,80,0,14,,,,,,,,13,,,,40,30
55590,note_on,80,0,15,,,,,,,,14,,,,40,30
55620,note_on,40,0,2,,,,,,,,0,,,,57,45
55620,note_on,0,0,1,,,,,,,,0,,,,73,45
55620,note_on,40,0,1,,,,,,,,0,,,,69,45
55660,note_off,400,0,13,,,,,,,,12,,,,52,64
55660,note_off,400,0,9,,,,,,,,7,,,,40,64
55660,note_off,400,0,8,,,,,,,,6,,,,52,64
55700,note_off,80,0,1,,,,,,,,0,,,,73,64
55700,note_off,0,0,1,,,,,,,,0,,,,69,64
55700,note_off,80,0,2,,,,,,,,0,,,,57,64
55740,note_on,80,0,8,,,,,,,,6,,,,52,30
55740,note_on,80,0,13,,,,,,,,12,,,,52,30
55740,note_on,40,0,2,,,,,,,,0,,,,40,45
55740,note_on,40,0,1,,,,,,,,0,,,,59,45
55740,note_on,0,0,2,,,,,,,,0,,,,47,45
55740,note_on,80,0,9,,,,,,,,7,,,,40,30
55740,note_on,0,0,2,,,,,,,,0,,,,56,45
55740,note_on,0,0,1,,,,,,,,0,,,,68,45
55900,note_off,400,0,6,,,,,,,,4,,,,80,64
55900,note_off,400,0,10,,,,,,,,8,,,,83,64
55900,note_off,400,0,11,,,,,,,,10,,,,80,64
55900,note_off,400,0,7,,,,,,,,5,,,,64,64
55900,note_off,400,0,5,,,,,,,,3,,,,83,64
55900,note_off,400,0,12,,,,,,,,11,,,,64,64
55980,note_on,80,0,6,,,,,,,,4,,,,71,92
55980,note_on,80,0,5,,,,,,,,3,,,,76,92
55980,note_on,80,0,11,,,,,,,,10,,,,71,75
55980,note_on,80,0,10,,,,,,,,8,,,,76,75
55980,note_on,80,0,12,,,,,,,,11,,,,64,75
55980,note_on,80,0,7,,,,,,,,5,,,,64,75
55990,note_off,400,0,14,,,,,,,,13,,,,40,64
55990,note_off,400,0,15,,,,,,,,14,,,,40,64
56060,note_off,80,0,10,,,,,,,,8,,,,76,64
56060,note_off,80,0,12,,,,,,,,11,,,,64,64
56060,note_off,80,0,7,,,,,,,,5,,,,64,64
56060,note_off,80,0,6,,,,,,,,4,,,,71,64
56060,note_off,80,0,11,,,,,,,,10,,,,71,64
56060,note_off,80,0,5,,,,,,,,3,,,,76,64
56070,note_on,80,0,14,,,,,,,,13,,,,40,30
56140,note_off,0,0,2,,,,,,,,0,,,,40,64
56140,note_off,400,0,1,,,,,,,,0,,,,68,64
56140,note_off,0,0,1,,,,,,,,0,,,,59,64
56140,note_off,400,0,13,,,,,,,,12,,,,52,64
56140,note_off,400,0,9,,,,,,,,7,,,,40,64
56140,note_off,400,0,2,,,,,,,,0,,,,56,64
56140,note_off,0,0,2,,,,,,,,0,,,,47,64
56140,note_off,400,0,8,,,,,,,,6,,,,52,64
56220,note_on,80,0,8,,,,,,,,6,,,,52,75
56220,note_on,160,0,12,,,,,,,,11,,,,69,75
56220,note_on,80,0,9,,,,,,,,7,,,,40,75
56220,note_on,160,0,7,,,,,,,,5,,,,69,75
56220,note_on,80,0,2,,,,,,,,0,,,,40,60
56220,note_on,0,0,1,,,,,,,,0,,,,73,60
56220,note_on,0,0,1,,,,,,,,0,,,,69,60
56220,note_on,80,0,1,,,,,,,,0,,,,64,60
56220,note_on,0,0,2,,,,,,,,0,,,,52,60
56220,note_on,160,0,5,,,,,,,,3,,,,85,92
56220,note_on,80,0,13,,,,,,,,12,,,,52,75
56220,note_on,160,0,11,,,,,,,,10,,,,81,75
56220,note_on,160,0,10,,,,,,,,8,,,,85,75
56220,note_on,160,0,6,,,,,,,,4,,,,81,92
56300,note_off,0,0,1,,,,,,,,0,,,,69,64
56300,note_off,80,0,10,,,,,,,,8,,,,85,64
56300,note_off,80,0,1,,,,,,,,0,,,,73,64
56300,note_off,0,0,1,,,,,,,,0,,,,64,64
56300,note_off,80,0,7,,,,,,,,5,,,,69,64
56300,note_off,80,0,11,,,,,,,,10,,,,81,64
56300,note_off,80,0,6,,,,,,,,4,,,,81,64
56300,note_off,80,0,12,,,,,,,,11,,,,69,64
56300,note_off,80,0,5,,,,,,,,3,,,,85,64
56460,note_on,160,0,5,,,,,,,,3,,,,83,92
56460,note_on,0,0,1,,,,,,,,0,,,,71,60
56460,note_on,160,0,6,,,,,,,,4,,,,80,92
56460,note_on,160,0,12,,,,,,,,11,,,,64,75
56460,note_on,160,0,7,,,,,,,,5,,,,64,75
56460,note_on,0,0,1,,,,,,,,0,,,,68,60
56460,note_on,160,0,1,,,,,,,,0,,,,64,60
56460,note_on,160,0,10,,,,,,,,8,,,,83,75
56460,note_on,160,0,11,,,,,,,,10,,,,80,75
56470,note_off,400,0,14,,,,,,,,13,,,,40,64
56550,note_on,560,0,15,,,,,,,,14,,,,40,75
56550,note_on,80,0,14,,,,,,,,13,,,,40,75
56620,note_off,400,0,2,,,,,,,,0,,,,52,64
56620,note_off,0,0,2,,,,,,,,0,,,,40,64
56620,note_off,400,0,13,,,,,,,,12,,,,52,64
56620,note_off,400,0,8,,,,,,,,6,,,,52,64
56620,note_off,400,0,9,,,,,,,,7,,,,40,64
56700,note_on,80,0,9,,,,,,,,7,,,,40,75
56700,note_on,80,0,2,,,,,,,,0,,,,40,60
56700,note_on,0,0,2,,,,,,,,0,,,,52,60
56700,note_on,80,0,8,,,,,,,,6,,,,52,75
56700,note_on,80,0,13,,,,,,,,12,,,,52,75
56780,note_off,80,0,2,,,,,,,,0,,,,52,64
56780,note_off,80,0,9,,,,,,,,7,,,,40,64
56780,note_off,80,0,13,,,,,,,,12,,,,52,64
56780,note_off,0,0,2,,,,,,,,0,,,,40,64
56780,note_off,80,0,8,,,,,,,,6,,,,52,64
56860,note_off,400,0,6,,,,,,,,4,,,,80,64
56860,note_off,400,0,7,,,,,,,,5,,,,64,64
56860,note_off,400,0,11,,,,,,,,10,,,,80,64
56860,note_off,400,0,5,,,,,,,,3,,,,83,64
56860,note_off,400,0,12,,,,,,,,11,,,,64,64
56860,note_off,0,0,1,,,,,,,,0,,,,68,64
56860,note_off,400,0,1,,,,,,,,0,,,,71,64
56860,note_off,0,0,1,,,,,,,,0,,,,64,64
56860,note_off,400,0,10,,,,,,,,8,,,,83,64
56940,note_on,0,0,2,,,,,,,,0,,,,47,60
56940,note_on,0,0,1,,,,,,,,0,,,,69,60
56940,note_on,80,0,5,,,,,,,,3,,,,81,92
56940,note_on,80,0,7,,,,,,,,5,,,,75,75
56940,note_on,80,0,11,,,,,,,,10,,,,78,75
56940,note_on,160,0,13,,,,,,,,12,,,,47,75
56940,note_on,80,0,6,,,,,,,,4,,,,78,92
56940,note_on,160,0,8,,,,,,,,6,,,,47,75
56940,note_on,0,0,1,,,,,,,,0,,,,66,60
56940,note_on,160,0,9,,,,,,,,7,,,,35,75
56940,note_on,80,0,12,,,,,,,,11,,,,75,75
56940,note_on,80,0,10,,,,,,,,8,,,,81,75
56940,note_on,160,0,2,,,,,,,,0,,,,35,60
56940,note_on,80,0,1,,,,,,,,0,,,,63,60
56950,note_off,400,0,15,,,,,,,,14,,,,40,64
56950,note_off,400,0,14,,,,,,,,13,,,,40,64
57020,note_off,80,0,8,,,,,,,,6,,,,47,64
57020,note_off,80,0,9,,,,,,,,7,,,,35,64
57020,note_off,80,0,6,,,,,,,,4,,,,78,64
57020,note_off,80,0,10,,,,,,,,8,,,,81,64
57020,note_off,80,0,7,,,,,,,,5,,,,75,64
57020,note_off,80,0,11,,,,,,,,10,,,,78,64
57020,note_off,0,0,2,,,,,,,,0,,,,35,64
57020,note_off,0,0,1,,,,,,,,0,,,,63,64
57020,note_off,80,0,2,,,,,,,,0,,,,47,64
57020,note_off,80,0,13,,,,,,,,12,,,,47,64
57020,note_off,80,0,12,,,,,,,,11,,,,75,64
57020,note_off,0,0,1,,,,,,,,0,,,,66,64
57020,note_off,80,0,1,,,,,,,,0,,,,69,64
57020,note_off,80,0,5,,,,,,,,3,,,,81,64
57030,note_on,80,0,15,,,,,,,,14,,,,40,75
57030,note_on,80,0,14,,,,,,,,13,,,,40,75
57110,note_off,80,0,15,,,,,,,,14,,,,40,64
57110,note_off,80,0,14,,,,,,,,13,,,,40,64
57180,note_on,160,0,12,,,,,,,,11,,,,71,75
57180,note_on,160,0,13,,,,,,,,12,,,,52,75
57180,note_on,160,0,5,,,,,,,,3,,,,80,92
57180,note_on,160,0,7,,,,,,,,5,,,,71,75
57180,note_on,160,0,10,,,,,,,,8,,,,80,75
57180,note_on,0,0,2,,,,,,,,0,,,,52,60
57180,note_on,160,0,2,,,,,,,,0,,,,40,60
57180,note_on,160,0,6,,,,,,,,4,,,,76,92
57180,note_on,160,0,8,,,,,,,,6,,,,52,75
57180,note_on,160,0,1,,,,,,,,0,,,,64,60
57180,note_on,0,0,1,,,,,,,,0,,,,68,60
57180,note_on,160,0,9,,,,,,,,7,,,,40,75
57180,note_on,160,0,11,,,,,,,,10,,,,76,75
57260,note_off,80,0,6,,,,,,,,4,,,,76,64
57260,note_off,80,0,1,,,,,,,,0,,,,68,64
57260,note_off,0,0,1,,,,,,,,0,,,,64,64
57260,note_off,80,0,8,,,,,,,,6,,,,52,64
57260,note_off,80,0,10,,,,,,,,8,,,,80,64
57260,note_off,80,0,9,,,,,,,,7,,,,40,64
57260,note_off,80,0,2,,,,,,,,0,,,,52,64
57260,note_off,80,0,11,,,,,,,,10,,,,76,64
57260,note_off,80,0,13,,,,,,,,12,,,,52,64
57260,note_off,80,0,5,,,,,,,,3,,,,80,64
57260,note_off,0,0,2,,,,,,,,0,,,,40,64
57270,note_on,160,0,15,,,,,,,,14,,,,35,75
57270,note_on,160,0,14,,,,,,,,13,,,,35,75
57350,note_off,80,0,15,,,,,,,,14,,,,35,64
57350,note_off,80,0,14,,,,,,,,13,,,,35,64
57420,note_on,160,0,2,,,,,,,,0,,,,28,48
57420,note_on,0,0,2,,,,,,,,0,,,,40,48
57420,note_on,160,0,5,,,,,,,,3,,,,78,81
57420,note_on,160,0,13,,,,,,,,12,,,,40,64
57420,note_on,160,0,9,,,,,,,,7,,,,28,64
57420,note_on,0,0,1,,,,,,,,0,,,,66,48
57420,note_on,160,0,8,,,,,,,,6,,,,40,64
57420,note_on,160,0,10,,,,,,,,8,,,,78,64
57420,note_on,160,0,11,,,,,,,,10,,,,75,64
57420,note_on,160,0,6,,,,,,,,4,,,,75,81
57420,note_on,160,0,1,,,,,,,,0,,,,63,48
57500,note_off,0,0,2,,,,,,,,0,,,,28,64
57500,note_off,80,0,2,,,,,,,,0,,,,40,64
57500,note_off,80,0,1,,,,,,,,0,,,,66,64
57500,note_off,80,0,11,,,,,,,,10,,,,75,64
57500,note_off,80,0,5,,,,,,,,3,,,,78,64
57500,note_off,80,0,9,,,,,,,,7,,,,28,64
57500,note_off,80,0,6,,,,,,,,4,,,,75,64
57500,note_off,0,0,1,,,,,,,,0,,,,63,64
57500,note_off,80,0,10,,,,,,,,8,,,,78,64
57500,note_off,80,0,8,,,,,,,,6,,,,40,64
57500,note_off,80,0,13,,,,,,,,12,,,,40,64
57510,note_on,160,0,15,,,,,,,,14,,,,40,75
57510,note_on,160,0,14,,,,,,,,13,,,,40,75
57540,note_on,40,0,11,,,,,,,,10,,,,73,59
57540,note_on,40,0,10,,,,,,,,8,,,,76,59
57540,note_on,40,0,5,,,,,,,,3,,,,76,75
57540,note_on,40,0,1,,,,,,,,0,,,,61,42
57540,note_on,0,0,1,,,,,,,,0,,,,64,42
57540,note_on,40,0,6,,,,,,,,4,,,,73,75
57580,note_off,400,0,12,,,,,,,,11,,,,71,64
57580,note_off,400,0,7,,,,,,,,5,,,,71,64
57590,note_off,80,0,14,,,,,,,,13,,,,40,64
57590,note_off,80,0,15,,,,,,,,14,,,,40,64
57620,note_off,80,0,1,,,,,,,,0,,,,64,64
57620,note_off,0,0,1,,,,,,,,0,,,,61,64
57620,note_off,80,0,5,,,,,,,,3,,,,76,64
57620,note_off,80,0,6,,,,,,,,4,,,,73,64
57620,note_off,80,0,11,,,,,,,,10,,,,73,64
57620,note_off,80,0,10,,,,,,,,8,,,,76,64
57660,note_on,40,0,10,,,,,,,,8,,,,80,54
57660,note_on,160,0,13,,,,,,,,12,,,,59,53
57660,note_on,40,0,11,,,,,,,,10,,,,71,54
57660,note_on,40,0,6,,,,,,,,4,,,,71,69
57660,note_on,80,0,7,,,,,,,,5,,,,71,53
57660,note_on,80,0,12,,,,,,,,11,,,,71,53
57660,note_on,0,0,1,,,,,,,,0,,,,68,36
57660,note_on,0,0,1,,,,,,,,0,,,,64,36
57660,note_on,160,0,8,,,,,,,,6,,,,59,53
57660,note_on,40,0,5,,,,,,,,3,,,,80,69
57660,note_on,160,0,9,,,,,,,,7,,,,47,53
57660,note_on,0,0,2,,,,,,,,0,,,,59,36
57660,note_on,40,0,1,,,,,,,,0,,,,59,36
57660,note_on,160,0,2,,,,,,,,0,,,,47,36
57690,note_off,30,0,5,,,,,,,,3,,,,80,64
57690,note_on,0,0,5,,,,,,,,3,,,,81,68
57690,note_off,30,0,11,,,,,,,,10,,,,71,64
57690,note_on,0,0,11,,,,,,,,10,,,,73,53
57690,note_off,30,0,6,,,,,,,,4,,,,71,64
57690,note_on,0,0,6,,,,,,,,4,,,,73,68
57690,note_on,0,0,10,,,,,,,,8,,,,81,53
57690,note_off,30,0,10,,,,,,,,8,,,,80,64
57720,note_on,0,0,6,,,,,,,,4,,,,71,67
57720,note_off,30,0,6,,,,,,,,4,,,,73,64
57720,note_off,30,0,11,,,,,,,,10,,,,73,64
57720,note_off,30,0,5,,,,,,,,3,,,,81,64
57720,note_on,0,0,10,,,,,,,,8,,,,80,52
57720,note_off,30,0,10,,,,,,,,8,,,,81,64
57720,note_on,0,0,5,,,,,,,,3,,,,80,67
57720,note_on,0,0,11,,,,,,,,10,,,,71,52
57740,note_off,80,0,13,,,,,,,,12,,,,59,64
57740,note_off,80,0,9,,,,,,,,7,,,,47,64
57740,note_off,80,0,8,,,,,,,,6,,,,59,64
57750,note_on,160,0,15,,,,,,,,14,,,,28,64
57750,note_on,0,0,10,,,,,,,,8,,,,81,51
57750,note_on,0,0,11,,,,,,,,10,,,,73,51
57750,note_on,0,0,6,,,,,,,,4,,,,73,66
57750,note_off,30,0,10,,,,,,,,8,,,,80,64
57750,note_off,30,0,6,,,,,,,,4,,,,71,64
57750,note_on,160,0,14,,,,,,,,13,,,,28,64
57750,note_on,0,0,5,,,,,,,,3,,,,81,66
57750,note_off,30,0,11,,,,,,,,10,,,,71,64
57750,note_off,30,0,5,,,,,,,,3,,,,80,64
57780,note_off,30,0,6,,,,,,,,4,,,,73,64
57780,note_on,0,0,6,,,,,,,,4,,,,71,65
57780,note_off,30,0,5,,,,,,,,3,,,,81,64
57780,note_off,30,0,10,,,,,,,,8,,,,81,64
57780,note_on,0,0,11,,,,,,,,10,,,,71,50
57780,note_off,30,0,11,,,,,,,,10,,,,73,64
57780,note_on,0,0,10,,,,,,,,8,,,,80,50
57780,note_on,0,0,5,,,,,,,,3,,,,80,65
57810,note_off,30,0,6,,,,,,,,4,,,,71,64
57810,note_off,30,0,5,,,,,,,,3,,,,80,64
57810,note_on,0,0,5,,,,,,,,3,,,,81,64
57810,note_on,0,0,11,,,,,,,,10,,,,73,49
57810,note_off,30,0,11,,,,,,,,10,,,,71,64
57810,note_off,30,0,10,,,,,,,,8,,,,80,64
57810,note_on,0,0,10,,,,,,,,8,,,,81,49
57810,note_on,0,0,6,,,,,,,,4,,,,73,64
57830,note_off,80,0,15,,,,,,,,14,,,,28,64
57830,note_off,80,0,14,,,,,,,,13,,,,28,64
57840,note_off,30,0,10,,,,,,,,8,,,,81,64
57840,note_on,0,0,6,,,,,,,,4,,,,71,63
57840,note_off,30,0,11,,,,,,,,10,,,,73,64
57840,note_on,0,0,11,,,,,,,,10,,,,71,48
57840,note_on,0,0,10,,,,,,,,8,,,,80,48
57840,note_off,30,0,6,,,,,,,,4,,,,73,64
57840,note_on,0,0,5,,,,,,,,3,,,,80,63
57840,note_off,30,0,5,,,,,,,,3,,,,81,64
57870,note_off,30,0,11,,,,,,,,10,,,,71,64
57870,note_off,30,0,6,,,,,,,,4,,,,71,64
57870,note_on,0,0,6,,,,,,,,4,,,,73,62
57870,note_on,0,0,5,,,,,,,,3,,,,81,62
57870,note_off,30,0,5,,,,,,,,3,,,,80,64
57870,note_on,0,0,10,,,,,,,,8,,,,81,47
57870,note_off,30,0,10,,,,,,,,8,,,,80,64
57870,note_on,0,0,11,,,,,,,,10,,,,73,47
57900,note_on,0,0,1,,,,,,,,0,,,,59,23
57900,note_on,0,0,1,,,,,,,,0,,,,63,23
57900,note_on,160,0,9,,,,,,,,7,,,,35,42
57900,note_off,240,0,1,,,,,,,,0,,,,68,64
57900,note_off,0,0,1,,,,,,,,0,,,,59,64
57900,note_off,30,0,5,,,,,,,,3,,,,81,64
57900,note_on,0,0,5,,,,,,,,3,,,,80,61
57900,note_on,0,0,1,,,,,,,,0,,,,66,23
57900,note_off,0,0,1,,,,,,,,0,,,,64,64
57900,note_off,30,0,10,,,,,,,,8,,,,81,64
57900,note_off,30,0,11,,,,,,,,10,,,,73,64
57900,note_off,30,0,6,,,,,,,,4,,,,73,64
57900,note_on,0,0,6,,,,,,,,4,,,,71,61
57900,note_on,0,0,2,,,,,,,,0,,,,47,23
57900,note_on,0,0,2,,,,,,,,0,,,,35,23
57900,note_off,0,0,2,,,,,,,,0,,,,47,64
57900,note_off,240,0,2,,,,,,,,0,,,,59,64
57900,note_on,160,0,8,,,,,,,,6,,,,47,42
57900,note_on,160,0,13,,,,,,,,12,,,,47,42
57900,note_on,0,0,11,,,,,,,,10,,,,71,46
57900,note_on,0,0,10,,,,,,,,8,,,,80,46
57930,note_off,30,0,5,,,,,,,,3,,,,80,64
57930,note_off,30,0,10,,,,,,,,8,,,,80,64
57930,note_on,0,0,10,,,,,,,,8,,,,81,44
57930,note_off,30,0,11,,,,,,,,10,,,,71,64
57930,note_off,30,0,6,,,,,,,,4,,,,71,64
57930,note_on,0,0,11,,,,,,,,10,,,,73,44
57930,note_on,0,0,5,,,,,,,,3,,,,81,59
57930,note_on,0,0,6,,,,,,,,4,,,,73,59
57960,note_on,0,0,5,,,,,,,,3,,,,80,57
57960,note_off,30,0,10,,,,,,,,8,,,,81,64
57960,note_on,0,0,10,,,,,,,,8,,,,80,42
57960,note_off,30,0,11,,,,,,,,10,,,,73,64
57960,note_on,0,0,11,,,,,,,,10,,,,71,42
57960,note_on,0,0,6,,,,,,,,4,,,,71,57
57960,note_off,30,0,5,,,,,,,,3,,,,81,64
57960,note_off,30,0,6,,,,,,,,4,,,,73,64
57980,note_off,0,0,1,,,,,,,,0,,,,63,64
57980,note_off,0,0,1,,,,,,,,0,,,,59,64
57980,note_off,80,0,13,,,,,,,,12,,,,47,64
57980,note_off,80,0,8,,,,,,,,6,,,,47,64
57980,note_off,80,0,1,,,,,,,,0,,,,66,64
57980,note_off,80,0,9,,,,,,,,7,,,,35,64
57980,note_off,80,0,2,,,,,,,,0,,,,47,64
57980,note_off,0,0,2,,,,,,,,0,,,,35,64
57990,note_on,160,0,15,,,,,,,,14,,,,47,53
57990,note_on,160,0,14,,,,,,,,13,,,,47,53
58000,note_off,40,0,5,,,,,,,,3,,,,80,64
58000,note_off,40,0,6,,,,,,,,4,,,,71,64
58000,note_off,40,0,11,,,,,,,,10,,,,71,64
58000,note_off,40,0,10,,,,,,,,8,,,,80,64
58020,note_on,20,0,5,,,,,,,,3,,,,78,53
58020,note_on,20,0,10,,,,,,,,8,,,,78,38
58020,note_on,20,0,6,,,,,,,,4,,,,71,53
58020,note_on,20,0,11,,,,,,,,10,,,,71,38
58060,note_off,400,0,12,,,,,,,,11,,,,71,64
58060,note_off,400,0,7,,,,,,,,5,,,,71,64
58070,note_off,80,0,14,,,,,,,,13,,,,47,64
58070,note_off,80,0,15,,,,,,,,14,,,,47,64
58100,note_off,80,0,5,,,,,,,,3,,,,78,64
58100,note_off,80,0,6,,,,,,,,4,,,,71,64
58100,note_off,80,0,10,,,,,,,,8,,,,78,64
58100,note_off,80,0,11,,,,,,,,10,,,,71,64
58140,note_on,40,0,11,,,,,,,,10,,,,71,30
58140,note_on,40,0,6,,,,,,,,4,,,,71,45
58140,note_on,0,0,2,,,,,,,,0,,,,52,10
58140,note_on,80,0,12,,,,,,,,11,,,,68,30
58140,note_on,160,0,2,,,,,,,,0,,,,40,10
58140,note_on,160,0,13,,,,,,,,12,,,,52,30
58140,note_on,0,0,1,,,,,,,,0,,,,64,10
58140,note_on,0,0,1,,,,,,,,0,,,,68,10
58140,note_on,160,0,8,,,,,,,,6,,,,52,30
58140,note_on,40,0,10,,,,,,,,8,,,,76,30
58140,note_on,160,0,9,,,,,,,,7,,,,40,30
58140,note_on,160,0,1,,,,,,,,0,,,,59,10
58140,note_on,80,0,7,,,,,,,,5,,,,68,30
58140,note_on,40,0,5,,,,,,,,3,,,,76,45
58220,note_off,80,0,8,,,,,,,,6,,,,52,64
58220,note_off,0,0,2,,,,,,,,0,,,,40,64
58220,note_off,80,0,2,,,,,,,,0,,,,52,64
58220,note_off,80,0,13,,,,,,,,12,,,,52,64
58220,note_off,80,0,9,,,,,,,,7,,,,40,64
58230,note_on,160,0,14,,,,,,,,13,,,,35,42
58230,note_on,160,0,15,,,,,,,,14,,,,35,42
58310,note_off,80,0,15,,,,,,,,14,,,,35,64
58310,note_off,80,0,14,,,,,,,,13,,,,35,64
58375,note_off,235,0,10,,,,,,,,8,,,,76,64
58375,note_off,0,0,1,,,,,,,,0,,,,59,64
58375,note_off,0,0,1,,,,,,,,0,,,,64,64
58375,note_off,235,0,1,,,,,,,,0,,,,68,64
58375,note_off,235,0,7,,,,,,,,5,,,,68,64
58375,note_off,235,0,11,,,,,,,,10,,,,71,64
58375,note_off,235,0,5,,,,,,,,3,,,,76,64
58375,note_off,235,0,12,,,,,,,,11,,,,68,64
58375,note_off,235,0,6,,,,,,,,4,,,,71,64
58380,note_on,5,0,6,,,,,,,,4,,,,64,45
58380,note_on,5,0,11,,,,,,,,10,,,,64,30
58380,note_on,5,0,12,,,,,,,,11,,,,59,30
58380,note_on,160,0,13,,,,,,,,12,,,,52,30
58380,note_on,160,0,8,,,,,,,,6,,,,52,30
58380,note_on,5,0,1,,,,,,,,0,,,,59,10
58380,note_on,0,0,1,,,,,,,,0,,,,68,10
58380,note_on,0,0,1,,,,,,,,0,,,,64,10
58380,note_on,5,0,10,,,,,,,,8,,,,68,30
58380,note_on,160,0,9,,,,,,,,7,,,,40,30
58380,note_on,160,0,2,,,,,,,,0,,,,40,10
58380,note_on,5,0,5,,,,,,,,3,,,,68,45
58380,note_on,5,0,7,,,,,,,,5,,,,59,30
58380,note_on,0,0,2,,,,,,,,0,,,,52,10
58460,note_off,0,0,1,,,,,,,,0,,,,64,64
58460,note_off,0,0,1,,,,,,,,0,,,,59,64
58460,note_off,80,0,8,,,,,,,,6,,,,52,64
58460,note_off,80,0,9,,,,,,,,7,,,,40,64
58460,note_off,80,0,13,,,,,,,,12,,,,52,64
58460,note_off,80,0,12,,,,,,,,11,,,,59,64
58460,note_off,80,0,7,,,,,,,,5,,,,59,64
58460,note_off,0,0,2,,,,,,,,0,,,,40,64
58460,note_off,80,0,2,,,,,,,,0,,,,52,64
58460,note_off,80,0,1,,,,,,,,0,,,,68,64
58470,note_on,160,0,15,,,,,,,,14,,,,40,30
58470,note_on,160,0,14,,,,,,,,13,,,,40,30
58500,note_on,0,0,6,,,,,,,,4,,,,66,45
58500,note_on,0,0,10,,,,,,,,8,,,,69,30
58500,note_off,120,0,10,,,,,,,,8,,,,68,64
58500,note_off,120,0,11,,,,,,,,10,,,,64,64
58500,note_on,0,0,11,,,,,,,,10,,,,66,30
58500,note_off,120,0,6,,,,,,,,4,,,,64,64
58500,note_on,0,0,5,,,,,,,,3,,,,69,45
58500,note_off,120,0,5,,,,,,,,3,,,,68,64
58550,note_off,80,0,14,,,,,,,,13,,,,40,64
58550,note_off,80,0,15,,,,,,,,14,,,,40,64
58580,note_off,80,0,10,,,,,,,,8,,,,69,64
58580,note_off,80,0,5,,,,,,,,3,,,,69,64
58580,note_off,80,0,11,,,,,,,,10,,,,66,64
58580,note_off,80,0,6,,,,,,,,4,,,,66,64
58620,note_on,160,0,9,,,,,,,,7,,,,40,30
58620,note_on,40,0,11,,,,,,,,10,,,,68,30
58620,note_on,160,0,2,,,,,,,,0,,,,40,10
58620,note_on,0,0,2,,,,,,,,0,,,,52,10
58620,note_on,160,0,7,,,,,,,,5,,,,59,30
58620,note_on,160,0,12,,,,,,,,11,,,,59,30
58620,note_on,160,0,13,,,,,,,,12,,,,52,30
58620,note_on,0,0,1,,,,,,,,0,,,,68,10
58620,note_on,0,0,1,,,,,,,,0,,,,64,10
58620,note_on,160,0,8,,,,,,,,6,,,,52,30
58620,note_on,40,0,6,,,,,,,,4,,,,68,45
58620,note_on,40,0,5,,,,,,,,3,,,,71,45
58620,note_on,40,0,10,,,,,,,,8,,,,71,30
58620,note_on,160,0,1,,,,,,,,0,,,,59,10
58700,note_off,0,0,1,,,,,,,,0,,,,64,64
58700,note_off,80,0,1,,,,,,,,0,,,,68,64
58700,note_off,80,0,12,,,,,,,,11,,,,59,64
58700,note_off,80,0,13,,,,,,,,12,,,,52,64
58700,note_off,80,0,9,,,,,,,,7,,,,40,64
58700,note_off,80,0,8,,,,,,,,6,,,,52,64
58700,note_off,0,0,1,,,,,,,,0,,,,59,64
58700,note_off,80,0,7,,,,,,,,5,,,,59,64
58700,note_off,80,0,2,,,,,,,,0,,,,52,64
58700,note_off,0,0,2,,,,,,,,0,,,,40,64
58710,note_on,160,0,15,,,,,,,,14,,,,40,30
58710,note_on,160,0,14,,,,,,,,13,,,,40,30
58740,note_off,120,0,10,,,,,,,,8,,,,71,64
58740,note_off,120,0,5,,,,,,,,3,,,,71,64
58740,note_on,0,0,5,,,,,,,,3,,,,69,45
58740,note_on,0,0,11,,,,,,,,10,,,,66,30
58740,note_off,120,0,11,,,,,,,,10,,,,68,64
58740,note_on,0,0,10,,,,,,,,8,,,,69,30
58740,note_on,0,0,6,,,,,,,,4,,,,66,45
58740,note_off,120,0,6,,,,,,,,4,,,,68,64
58790,note_off,80,0,14,,,,,,,,13,,,,40,64
58790,note_off,80,0,15,,,,,,,,14,,,,40,64
58820,note_off,80,0,10,,,,,,,,8,,,,69,64
58820,note_off,80,0,5,,,,,,,,3,,,,69,64
58820,note_off,80,0,11,,,,,,,,10,,,,66,64
58820,note_off,80,0,6,,,,,,,,4,,,,66,64
58860,note_on,40,0,6,,,,,,,,4,,,,68,45
58860,note_on,40,0,10,,,,,,,,8,,,,71,30
58860,note_on,40,0,5,,,,,,,,3,,,,71,45
58860,note_on,160,0,12,,,,,,,,11,,,,59,30
58860,note_on,160,0,13,,,,,,,,12,,,,52,30
58860,note_on,160,0,1,,,,,,,,0,,,,59,10
58860,note_on,0,0,1,,,,,,,,0,,,,68,10
58860,note_on,160,0,7,,,,,,,,5,,,,59,30
58860,note_on,0,0,1,,,,,,,,0,,,,64,10
58860,note_on,40,0,11,,,,,,,,10,,,,68,30
58860,note_on,0,0,2,,,,,,,,0,,,,52,10
58860,note_on,160,0,2,,,,,,,,0,,,,40,10
58860,note_on,160,0,8,,,,,,,,6,,,,52,30
58860,note_on,160,0,9,,,,,,,,7,,,,40,30
58940,note_off,0,0,2,,,,,,,,0,,,,40,64
58940,note_off,80,0,13,,,,,,,,12,,,,52,64
58940,note_off,80,0,7,,,,,,,,5,,,,59,64
58940,note_off,0,0,1,,,,,,,,0,,,,59,64
58940,note_off,0,0,1,,,,,,,,0,,,,64,64
58940,note_off,80,0,1,,,,,,,,0,,,,68,64
58940,note_off,80,0,2,,,,,,,,0,,,,52,64
58940,note_off,80,0,9,,,,,,,,7,,,,40,64
58940,note_off,80,0,8,,,,,,,,6,,,,52,64
58940,note_off,80,0,12,,,,,,,,11,,,,59,64
58950,note_on,160,0,14,,,,,,,,13,,,,40,30
58950,note_on,160,0,15,,,,,,,,14,,,,40,30
58980,note_on,0,0,10,,,,,,,,8,,,,69,30
58980,note_off,120,0,10,,,,,,,,8,,,,71,64
58980,note_off,120,0,5,,,,,,,,3,,,,71,64
58980,note_off,120,0,6,,,,,,,,4,,,,68,64
58980,note_on,0,0,5,,,,,,,,3,,,,69,45
58980,note_on,0,0,11,,,,,,,,10,,,,66,30
58980,note_off,120,0,11,,,,,,,,10,,,,68,64
58980,note_on,0,0,6,,,,,,,,4,,,,66,45
59030,note_off,80,0,15,,,,,,,,14,,,,40,64
59030,note_off,80,0,14,,,,,,,,13,,,,40,64
59060,note_off,80,0,6,,,,,,,,4,,,,66,64
59060,note_off,80,0,5,,,,,,,,3,,,,69,64
59060,note_off,80,0,11,,,,,,,,10,,,,66,64
59060,note_off,80,0,10,,,,,,,,8,,,,69,64
59100,note_on,0,0,2,,,,,,,,0,,,,52,10
59100,note_on,160,0,2,,,,,,,,0,,,,40,10
59100,note_on,160,0,13,,,,,,,,12,,,,52,30
59100,note_on,40,0,10,,,,,,,,8,,,,68,30
59100,note_on,160,0,9,,,,,,,,7,,,,40,30
59100,note_on,40,0,6,,,,,,,,4,,,,64,45
59100,note_on,160,0,8,,,,,,,,6,,,,52,30
59100,note_on,40,0,5,,,,,,,,3,,,,68,45
59100,note_on,160,0,12,,,,,,,,11,,,,59,30
59100,note_on,40,0,11,,,,,,,,10,,,,64,30
59100,note_on,160,0,1,,,,,,,,0,,,,59,10
59100,note_on,0,0,1,,,,,,,,0,,,,64,10
59100,note_on,0,0,1,,,,,,,,0,,,,68,10
59100,note_on,160,0,7,,,,,,,,5,,,,59,30
59180,note_off,0,0,1,,,,,,,,0,,,,64,64
59180,note_off,0,0,2,,,,,,,,0,,,,40,64
59180,note_off,80,0,12,,,,,,,,11,,,,59,64
59180,note_off,80,0,7,,,,,,,,5,,,,59,64
59180,note_off,80,0,2,,,,,,,,0,,,,52,64
59180,note_off,80,0,1,,,,,,,,0,,,,68,64
59180,note_off,80,0,13,,,,,,,,12,,,,52,64
59180,note_off,80,0,8,,,,,,,,6,,,,52,64
59180,note_off,80,0,9,,,,,,,,7,,,,40,64
59180,note_off,0,0,1,,,,,,,,0,,,,59,64
59190,note_on,160,0,14,,,,,,,,13,,,,40,30
59190,note_on,160,0,15,,,,,,,,14,,,,40,30
59220,note_on,0,0,10,,,,,,,,8,,,,69,30
59220,note_on,0,0,5,,,,,,,,3,,,,69,45
59220,note_off,120,0,11,,,,,,,,10,,,,64,64
59220,note_on,0,0,11,,,,,,,,10,,,,66,30
59220,note_off,120,0,5,,,,,,,,3,,,,68,64
59220,note_on,0,0,6,,,,,,,,4,,,,66,45
59220,note_off,120,0,10,,,,,,,,8,,,,68,64
59220,note_off,120,0,6,,,,,,,,4,,,,64,64
59270,note_off,80,0,15,,,,,,,,14,,,,40,64
59270,note_off,80,0,14,,,,,,,,13,,,,40,64
59300,note_off,80,0,5,,,,,,,,3,,,,69,64
59300,note_off,80,0,6,,,,,,,,4,,,,66,64
59300,note_off,80,0,11,,,,,,,,10,,,,66,64
59300,note_off,80,0,10,,,,,,,,8,,,,69,64
59340,note_on,160,0,2,,,,,,,,0,,,,40,10
59340,note_on,40,0,11,,,,,,,,10,,,,64,30
59340,note_on,160,0,9,,,,,,,,7,,,,40,30
59340,note_on,40,0,10,,,,,,,,8,,,,68,30
59340,note_on,160,0,1,,,,,,,,0,,,,59,10
59340,note_on,0,0,1,,,,,,,,0,,,,64,10
59340,note_on,0,0,1,,,,,,,,0,,,,68,10
59340,note_on,0,0,2,,,,,,,,0,,,,52,10
59340,note_on,160,0,8,,,,,,,,6,,,,52,30
59340,note_on,160,0,12,,,,,,,,11,,,,59,30
59340,note_on,40,0,5,,,,,,,,3,,,,68,45
59340,note_on,160,0,13,,,,,,,,12,,,,52,30
59340,note_on,160,0,7,,,,,,,,5,,,,59,30
59340,note_on,40,0,6,,,,,,,,4,,,,64,45
59420,note_off,80,0,1,,,,,,,,0,,,,68,64
59420,note_off,0,0,1,,,,,,,,0,,,,59,64
59420,note_off,80,0,12,,,,,,,,11,,,,59,64
59420,note_off,80,0,13,,,,,,,,12,,,,52,64
59420,note_off,80,0,2,,,,,,,,0,,,,52,64
59420,note_off,0,0,1,,,,,,,,0,,,,64,64
59420,note_off,0,0,2,,,,,,,,0,,,,40,64
59420,note_off,80,0,8,,,,,,,,6,,,,52,64
59420,note_off,80,0,7,,,,,,,,5,,,,59,64
59420,note_off,80,0,9,,,,,,,,7,,,,40,64
59430,note_on,160,0,14,,,,,,,,13,,,,40,30
59430,note_on,160,0,15,,,,,,,,14,,,,40,30
59460,note_on,0,0,6,,,,,,,,4,,,,66,45
59460,note_on,0,0,11,,,,,,,,10,,,,66,30
59460,note_off,120,0,10,,,,,,,,8,,,,68,64
59460,note_off,120,0,11,,,,,,,,10,,,,64,64
59460,note_on,0,0,5,,,,,,,,3,,,,69,45
59460,note_off,120,0,6,,,,,,,,4,,,,64,64
59460,note_off,120,0,5,,,,,,,,3,,,,68,64
59460,note_on,0,0,10,,,,,,,,8,,,,69,30
59510,note_off,80,0,15,,,,,,,,14,,,,40,64
59510,note_off,80,0,14,,,,,,,,13,,,,40,64
59540,note_off,80,0,11,,,,,,,,10,,,,66,64
59540,note_off,80,0,10,,,,,,,,8,,,,69,64
59540,note_off,80,0,6,,,,,,,,4,,,,66,64
59540,note_off,80,0,5,,,,,,,,3,,,,69,64
59580,note_on,40,0,5,,,,,,,,3,,,,71,45
59580,note_on,160,0,12,,,,,,,,11,,,,59,30
59580,note_on,40,0,10,,,,,,,,8,,,,71,30
59580,note_on,0,0,1,,,,,,,,0,,,,68,10
59580,note_on,40,0,11,,,,,,,,10,,,,68,30
59580,note_on,40,0,6,,,,,,,,4,,,,68,45
59580,note_on,160,0,7,,,,,,,,5,,,,59,30
59580,note_on,160,0,13,,,,,,,,12,,,,52,30
59580,note_on,160,0,1,,,,,,,,0,,,,59,10
59580,note_on,0,0,1,,,,,,,,0,,,,64,10
59580,note_on,160,0,2,,,,,,,,0,,,,40,10
59580,note_on,0,0,2,,,,,,,,0,,,,52,10
59580,note_on,160,0,9,,,,,,,,7,,,,40,30
59580,note_on,160,0,8,,,,,,,,6,,,,52,30
59660,note_off,0,0,1,,,,,,,,0,,,,59,64
59660,note_off,0,0,2,,,,,,,,0,,,,40,64
59660,note_off,80,0,7,,,,,,,,5,,,,59,64
59660,note_off,80,0,13,,,,,,,,12,,,,52,64
59660,note_off,80,0,8,,,,,,,,6,,,,52,64
59660,note_off,80,0,9,,,,,,,,7,,,,40,64
59660,note_off,0,0,1,,,,,,,,0,,,,64,64
59660,note_off,80,0,1,,,,,,,,0,,,,68,64
59660,note_off,80,0,2,,,,,,,,0,,,,52,64
59660,note_off,80,0,12,,,,,,,,11,,,,59,64
59670,note_on,160,0,15,,,,,,,,14,,,,40,30
59670,note_on,160,0,14,,,,,,,,13,,,,40,30
59700,note_on,0,0,5,,,,,,,,3,,,,69,45
59700,note_off,120,0,5,,,,,,,,3,,,,71,64
59700,note_on,0,0,10,,,,,,,,8,,,,69,30
59700,note_off,120,0,11,,,,,,,,10,,,,68,64
59700,note_off,120,0,6,,,,,,,,4,,,,68,64
59700,note_on,0,0,11,,,,,,,,10,,,,66,30
59700,note_on,0,0,6,,,,,,,,4,,,,66,45
59700,note_off,120,0,10,,,,,,,,8,,,,71,64
59750,note_off,80,0,14,,,,,,,,13,,,,40,64
59750,note_off,80,0,15,,,,,,,,14,,,,40,64
59780,note_off,80,0,5,,,,,,,,3,,,,69,64
59780,note_off,80,0,10,,,,,,,,8,,,,69,64
59780,note_off,80,0,6,,,,,,,,4,,,,66,64
59780,note_off,80,0,11,,,,,,,,10,,,,66,64
59820,note_on,160,0,8,,,,,,,,6,,,,52,30
59820,note_on,160,0,13,,,,,,,,12,,,,52,30
59820,note_on,40,0,5,,,,,,,,3,,,,71,45
59820,note_on,160,0,12,,,,,,,,11,,,,59,30
59820,note_on,0,0,1,,,,,,,,0,,,,68,10
59820,note_on,0,0,1,,,,,,,,0,,,,64,10
59820,note_on,160,0,1,,,,,,,,0,,,,59,10
59820,note_on,40,0,10,,,,,,,,8,,,,71,30
59820,note_on,0,0,2,,,,,,,,0,,,,52,10
59820,note_on,40,0,6,,,,,,,,4,,,,68,45
59820,note_on,40,0,11,,,,,,,,10,,,,68,30
59820,note_on,160,0,9,,,,,,,,7,,,,40,30
59820,note_on,160,0,7,,,,,,,,5,,,,59,30
59820,note_on,160,0,2,,,,,,,,0,,,,40,10
59900,note_off,80,0,13,,,,,,,,12,,,,52,64
59900,note_off,0,0,2,,,,,,,,0,,,,40,64
59900,note_off,80,0,9,,,,,,,,7,,,,40,64
59900,note_off,80,0,7,,,,,,,,5,,,,59,64
59900,note_off,80,0,12,,,,,,,,11,,,,59,64
59900,note_off,80,0,2,,,,,,,,0,,,,52,64
59900,note_off,0,0,1,,,,,,,,0,,,,59,64
59900,note_off,80,0,8,,,,,,,,6,,,,52,64
59900,note_off,80,0,1,,,,,,,,0,,,,68,64
59900,note_off,0,0,1,,,,,,,,0,,,,64,64
59910,note_on,160,0,14,,,,,,,,13,,,,40,30
59910,note_on,160,0,15,,,,,,,,14,,,,40,30
59940,note_on,0,0,5,,,,,,,,3,,,,69,45
59940,note_on,0,0,10,,,,,,,,8,,,,69,30
59940,note_on,0,0,11,,,,,,,,10,,,,66,30
59940,note_off,120,0,10,,,,,,,,8,,,,71,64
59940,note_off,120,0,11,,,,,,,,10,,,,68,64
59940,note_off,120,0,5,,,,,,,,3,,,,71,64
59940,note_off,120,0,6,,,,,,,,4,,,,68,64
59940,note_on,0,0,6,,,,,,,,4,,,,66,45
59990,note_off,80,0,15,,,,,,,,14,,,,40,64
59990,note_off,80,0,14,,,,,,,,13,,,,40,64
60020,note_off,80,0,11,,,,,,,,10,,,,66,64
60020,note_off,80,0,10,,,,,,,,8,,,,69,64
60020,note_off,80,0,5,,,,,,,,3,,,,69,64
60020,note_off,80,0,6,,,,,,,,4,,,,66,64
60060,note_on,160,0,1,,,,,,,,0,,,,59,10
60060,note_on,160,0,12,,,,,,,,11,,,,59,30
60060,note_on,160,0,13,,,,,,,,12,,,,52,30
60060,note_on,40,0,6,,,,,,,,4,,,,64,45
60060,note_on,40,0,5,,,,,,,,3,,,,68,45
60060,note_on,0,0,2,,,,,,,,0,,,,52,10
60060,note_on,160,0,2,,,,,,,,0,,,,40,10
60060,note_on,0,0,1,,,,,,,,0,,,,68,10
60060,note_on,160,0,9,,,,,,,,7,,,,40,30
60060,note_on,160,0,7,,,,,,,,5,,,,59,30
60060,note_on,0,0,1,,,,,,,,0,,,,64,10
60060,note_on,40,0,11,,,,,,,,10,,,,64,30
60060,note_on,40,0,10,,,,,,,,8,,,,68,30
60060,note_on,160,0,8,,,,,,,,6,,,,52,30
60140,note_off,80,0,12,,,,,,,,11,,,,59,64
60140,note_off,0,0,1,,,,,,,,0,,,,64,64
60140,note_off,80,0,7,,,,,,,,5,,,,59,64
60140,note_off,80,0,8,,,,,,,,6,,,,52,64
60140,note_off,0,0,2,,,,,,,,0,,,,40,64
60140,note_off,80,0,13,,,,,,,,12,,,,52,64
60140,note_off,80,0,1,,,,,,,,0,,,,68,64
60140,note_off,80,0,9,,,,,,,,7,,,,40,64
60140,note_off,0,0,1,,,,,,,,0,,,,59,64
60140,note_off,80,0,2,,,,,,,,0,,,,52,64
60150,note_on,160,0,14,,,,,,,,13,,,,40,30
60150,note_on,160,0,15,,,,,,,,14,,,,40,30
60180,note_off,120,0,10,,,,,,,,8,,,,68,64
60180,note_on,0,0,5,,,,,,,,3,,,,69,45
60180,note_on,0,0,10,,,,,,,,8,,,,69,30
60180,note_off,120,0,5,,,,,,,,3,,,,68,64
60180,note_on,0,0,6,,,,,,,,4,,,,66,45
60180,note_on,0,0,11,,,,,,,,10,,,,66,30
60180,note_off,120,0,6,,,,,,,,4,,,,64,64
60180,note_off,120,0,11,,,,,,,,10,,,,64,64
60230,note_off,80,0,14,,,,,,,,13,,,,40,64
60230,note_off,80,0,15,,,,,,,,14,,,,40,64
60260,note_off,80,0,10,,,,,,,,8,,,,69,64
60260,note_off,80,0,11,,,,,,,,10,,,,66,64
60260,note_off,80,0,6,,,,,,,,4,,,,66,64
60260,note_off,80,0,5,,,,,,,,3,,,,69,64
60300,note_on,0,0,1,,,,,,,,0,,,,64,10
60300,note_on,40,0,10,,,,,,,,8,,,,68,30
60300,note_on,160,0,7,,,,,,,,5,,,,59,30
60300,note_on,160,0,9,,,,,,,,7,,,,40,30
60300,note_on,0,0,1,,,,,,,,0,,,,68,10
60300,note_on,160,0,12,,,,,,,,11,,,,59,30
60300,note_on,40,0,6,,,,,,,,4,,,,64,45
60300,note_on,160,0,13,,,,,,,,12,,,,52,30
60300,note_on,160,0,8,,,,,,,,6,,,,52,30
60300,note_on,0,0,2,,,,,,,,0,,,,52,10
60300,note_on,160,0,2,,,,,,,,0,,,,40,10
60300,note_on,40,0,11,,,,,,,,10,,,,64,30
60300,note_on,160,0,1,,,,,,,,0,,,,59,10
60300,note_on,40,0,5,,,,,,,,3,,,,68,45
60380,note_off,80,0,12,,,,,,,,11,,,,59,64
60380,note_off,80,0,7,,,,,,,,5,,,,59,64
60380,note_off,80,0,1,,,,,,,,0,,,,68,64
60380,note_off,0,0,2,,,,,,,,0,,,,40,64
60380,note_off,80,0,2,,,,,,,,0,,,,52,64
60380,note_off,80,0,13,,,,,,,,12,,,,52,64
60380,note_off,0,0,1,,,,,,,,0,,,,59,64
60380,note_off,80,0,8,,,,,,,,6,,,,52,64
60380,note_off,0,0,1,,,,,,,,0,,,,64,64
60380,note_off,80,0,9,,,,,,,,7,,,,40,64
60390,note_on,160,0,15,,,,,,,,14,,,,40,30
60390,note_on,160,0,14,,,,,,,,13,,,,40,30
60420,note_off,120,0,10,,,,,,,,8,,,,68,64
60420,note_on,0,0,10,,,,,,,,8,,,,69,30
60420,note_off,120,0,5,,,,,,,,3,,,,68,64
60420,note_on,0,0,5,,,,,,,,3,,,,69,45
60420,note_off,120,0,6,,,,,,,,4,,,,64,64
60420,note_on,0,0,6,,,,,,,,4,,,,66,45
60420,note_off,120,0,11,,,,,,,,10,,,,64,64
60420,note_on,0,0,11,,,,,,,,10,,,,66,30
60470,note_off,80,0,14,,,,,,,,13,,,,40,64
60470,note_off,80,0,15,,,,,,,,14,,,,40,64
60500,note_off,80,0,5,,,,,,,,3,,,,69,64
60500,note_off,80,0,10,,,,,,,,8,,,,69,64
60500,note_off,80,0,11,,,,,,,,10,,,,66,64
60500,note_off,80,0,6,,,,,,,,4,,,,66,64
60540,note_on,160,0,7,,,,,,,,5,,,,59,30
60540,note_on,160,0,8,,,,,,,,6,,,,52,30
60540,note_on,40,0,5,,,,,,,,3,,,,71,45
60540,note_on,40,0,11,,,,,,,,10,,,,68,30
60540,note_on,160,0,1,,,,,,,,0,,,,59,10
60540,note_on,40,0,10,,,,,,,,8,,,,71,30
60540,note_on,160,0,2,,,,,,,,0,,,,40,10
60540,note_on,0,0,2,,,,,,,,0,,,,52,10
60540,note_on,0,0,1,,,,,,,,0,,,,64,10
60540,note_on,0,0,1,,,,,,,,0,,,,68,10
60540,note_on,40,0,6,,,,,,,,4,,,,68,45
60540,note_on,160,0,12,,,,,,,,11,,,,59,30
60540,note_on,160,0,13,,,,,,,,12,,,,52,30
60540,note_on,160,0,9,,,,,,,,7,,,,40,30
60620,note_off,80,0,13,,,,,,,,12,,,,52,64
60620,note_off,80,0,2,,,,,,,,0,,,,52,64
60620,note_off,0,0,2,,,,,,,,0,,,,40,64
60620,note_off,80,0,8,,,,,,,,6,,,,52,64
60620,note_off,80,0,7,,,,,,,,5,,,,59,64
60620,note_off,80,0,12,,,,,,,,11,,,,59,64
60620,note_off,0,0,1,,,,,,,,0,,,,59,64
60620,note_off,0,0,1,,,,,,,,0,,,,64,64
60620,note_off,80,0,9,,,,,,,,7,,,,40,64
60620,note_off,80,0,1,,,,,,,,0,,,,68,64
60630,note_on,160,0,14,,,,,,,,13,,,,40,30
60630,note_on,160,0,15,,,,,,,,14,,,,40,30
60660,note_on,0,0,10,,,,,,,,8,,,,69,30
60660,note_off,120,0,10,,,,,,,,8,,,,71,64
60660,note_on,0,0,11,,,,,,,,10,,,,66,30
60660,note_off,120,0,11,,,,,,,,10,,,,68,64
60660,note_on,0,0,5,,,,,,,,3,,,,69,45
60660,note_off,120,0,5,,,,,,,,3,,,,71,64
60660,note_on,0,0,6,,,,,,,,4,,,,66,45
60660,note_off,120,0,6,,,,,,,,4,,,,68,64
60710,note_off,80,0,14,,,,,,,,13,,,,40,64
60710,note_off,80,0,15,,,,,,,,14,,,,40,64
60740,note_off,80,0,6,,,,,,,,4,,,,66,64
60740,note_off,80,0,11,,,,,,,,10,,,,66,64
60740,note_off,80,0,10,,,,,,,,8,,,,69,64
60740,note_off,80,0,5,,,,,,,,3,,,,69,64
60780,note_on,160,0,8,,,,,,,,6,,,,52,30
60780,note_on,0,0,1,,,,,,,,0,,,,68,10
60780,note_on,0,0,2,,,,,,,,0,,,,52,10
60780,note_on,160,0,2,,,,,,,,0,,,,40,10
60780,note_on,160,0,9,,,,,,,,7,,,,40,30
60780,note_on,40,0,5,,,,,,,,3,,,,71,45
60780,note_on,0,0,1,,,,,,,,0,,,,64,10
60780,note_on,40,0,10,,,,,,,,8,,,,71,30
60780,note_on,40,0,11,,,,,,,,10,,,,68,30
60780,note_on,160,0,12,,,,,,,,11,,,,59,30
60780,note_on,160,0,1,,,,,,,,0,,,,59,10
60780,note_on,160,0,13,,,,,,,,12,,,,52,30
60780,note_on,40,0,6,,,,,,,,4,,,,68,45
60780,note_on,160,0,7,,,,,,,,5,,,,59,30
60860,note_off,0,0,1,,,,,,,,0,,,,64,64
60860,note_off,0,0,1,,,,,,,,0,,,,59,64
60860,note_off,80,0,2,,,,,,,,0,,,,52,64
60860,note_off,0,0,2,,,,,,,,0,,,,40,64
60860,note_off,80,0,9,,,,,,,,7,,,,40,64
60860,note_off,80,0,7,,,,,,,,5,,,,59,64
60860,note_off,80,0,1,,,,,,,,0,,,,68,64
60860,note_off,80,0,12,,,,,,,,11,,,,59,64
60860,note_off,80,0,8,,,,,,,,6,,,,52,64
60860,note_off,80,0,13,,,,,,,,12,,,,52,64
60870,note_on,160,0,14,,,,,,,,13,,,,40,30
60870,note_on,160,0,15,,,,,,,,14,,,,40,30
60900,note_on,0,0,6,,,,,,,,4,,,,66,45
60900,note_off,120,0,6,,,,,,,,4,,,,68,64
60900,note_on,0,0,11,,,,,,,,10,,,,66,30
60900,note_off,120,0,11,,,,,,,,10,,,,68,64
60900,note_off,120,0,5,,,,,,,,3,,,,71,64
60900,note_on,0,0,10,,,,,,,,8,,,,69,30
60900,note_on,0,0,5,,,,,,,,3,,,,69,45
60900,note_off,120,0,10,,,,,,,,8,,,,71,64
60950,note_off,80,0,14,,,,,,,,13,,,,40,64
60950,note_off,80,0,15,,,,,,,,14,,,,40,64
60980,note_off,80,0,5,,,,,,,,3,,,,69,64
60980,note_off,80,0,6,,,,,,,,4,,,,66,64
60980,note_off,80,0,10,,,,,,,,8,,,,69,64
60980,note_off,80,0,11,,,,,,,,10,,,,66,64
61020,note_on,160,0,12,,,,,,,,11,,,,59,30
61020,note_on,160,0,8,,,,,,,,6,,,,52,30
61020,note_on,160,0,13,,,,,,,,12,,,,52,30
61020,note_on,160,0,7,,,,,,,,5,,,,59,30
61020,note_on,160,0,9,,,,,,,,7,,,,40,30
61020,note_on,0,0,2,,,,,,,,0,,,,52,10
61020,note_on,40,0,11,,,,,,,,10,,,,64,30
61020,note_on,0,0,1,,,,,,,,0,,,,68,10
61020,note_on,0,0,1,,,,,,,,0,,,,64,10
61020,note_on,40,0,10,,,,,,,,8,,,,68,30
61020,note_on,40,0,6,,,,,,,,4,,,,64,45
61020,note_on,160,0,1,,,,,,,,0,,,,59,10
61020,note_on,40,0,5,,,,,,,,3,,,,68,45
61020,note_on,160,0,2,,,,,,,,0,,,,40,10
61100,note_off,0,0,2,,,,,,,,0,,,,40,64
61100,note_off,80,0,9,,,,,,,,7,,,,40,64
61100,note_off,80,0,1,,,,,,,,0,,,,68,64
61100,note_off,0,0,1,,,,,,,,0,,,,64,64
61100,note_off,0,0,1,,,,,,,,0,,,,59,64
61100,note_off,80,0,12,,,,,,,,11,,,,59,64
61100,note_off,80,0,2,,,,,,,,0,,,,52,64
61100,note_off,80,0,7,,,,,,,,5,,,,59,64
61100,note_off,80,0,8,,,,,,,,6,,,,52,64
61100,note_off,80,0,13,,,,,,,,12,,,,52,64
61110,note_on,160,0,14,,,,,,,,13,,,,40,30
61110,note_on,160,0,15,,,,,,,,14,,,,40,30
61140,note_off,120,0,5,,,,,,,,3,,,,68,64
61140,note_off,120,0,6,,,,,,,,4,,,,64,64
61140,note_off,120,0,10,,,,,,,,8,,,,68,64
61140,note_on,0,0,10,,,,,,,,8,,,,69,30
61140,note_on,0,0,11,,,,,,,,10,,,,66,30
61140,note_off,120,0,11,,,,,,,,10,,,,64,64
61140,note_on,0,0,6,,,,,,,,4,,,,66,45
61140,note_on,0,0,5,,,,,,,,3,,,,69,45
61190,note_off,80,0,14,,,,,,,,13,,,,40,64
61190,note_off,80,0,15,,,,,,,,14,,,,40,64
61220,note_off,80,0,5,,,,,,,,3,,,,69,64
61220,note_off,80,0,10,,,,,,,,8,,,,69,64
61220,note_off,80,0,6,,,,,,,,4,,,,66,64
61220,note_off,80,0,11,,,,,,,,10,,,,66,64
61260,note_on,0,0,1,,,,,,,,0,,,,68,10
61260,note_on,0,0,2,,,,,,,,0,,,,52,10
61260,note_on,160,0,9,,,,,,,,7,,,,40,30
61260,note_on,160,0,2,,,,,,,,0,,,,40,10
61260,note_on,40,0,10,,,,,,,,8,,,,68,30
61260,note_on,160,0,8,,,,,,,,6,,,,52,30
61260,note_on,160,0,7,,,,,,,,5,,,,59,30
61260,note_on,160,0,12,,,,,,,,11,,,,59,30
61260,note_on,40,0,6,,,,,,,,4,,,,64,45
61260,note_on,40,0,11,,,,,,,,10,,,,64,30
61260,note_on,40,0,5,,,,,,,,3,,,,68,45
61260,note_on,160,0,1,,,,,,,,0,,,,59,10
61260,note_on,0,0,1,,,,,,,,0,,,,64,10
61260,note_on,160,0,13,,,,,,,,12,,,,52,30
61340,note_off,0,0,1,,,,,,,,0,,,,64,64
61340,note_off,80,0,1,,,,,,,,0,,,,68,64
61340,note_off,80,0,8,,,,,,,,6,,,,52,64
61340,note_off,80,0,13,,,,,,,,12,,,,52,64
61340,note_off,0,0,1,,,,,,,,0,,,,59,64
61340,note_off,80,0,9,,,,,,,,7,,,,40,64
61340,note_off,80,0,2,,,,,,,,0,,,,52,64
61340,note_off,80,0,12,,,,,,,,11,,,,59,64
61340,note_off,0,0,2,,,,,,,,0,,,,40,64
61340,note_off,80,0,7,,,,,,,,5,,,,59,64
61350,note_on,160,0,14,,,,,,,,13,,,,40,30
61350,note_on,160,0,15,,,,,,,,14,,,,40,30
61380,note_on,0,0,6,,,,,,,,4,,,,66,45
61380,note_on,0,0,11,,,,,,,,10,,,,66,30
61380,note_off,120,0,11,,,,,,,,10,,,,64,64
61380,note_off,120,0,5,,,,,,,,3,,,,68,64
61380,note_on,0,0,5,,,,,,,,3,,,,69,45
61380,note_off,120,0,10,,,,,,,,8,,,,68,64
61380,note_on,0,0,10,,,,,,,,8,,,,69,30
61380,note_off,120,0,6,,,,,,,,4,,,,64,64
61430,note_off,80,0,14,,,,,,,,13,,,,40,64
61430,note_off,80,0,15,,,,,,,,14,,,,40,64
61460,note_off,80,0,11,,,,,,,,10,,,,66,64
61460,note_off,80,0,5,,,,,,,,3,,,,69,64
61460,note_off,80,0,10,,,,,,,,8,,,,69,64
61460,note_off,80,0,6,,,,,,,,4,,,,66,64
61500,note_on,0,0,1,,,,,,,,0,,,,64,10
61500,note_on,40,0,11,,,,,,,,10,,,,68,30
61500,note_on,40,0,6,,,,,,,,4,,,,68,45
61500,note_on,160,0,8,,,,,,,,6,,,,52,30
61500,note_on,0,0,1,,,,,,,,0,,,,68,10
61500,note_on,40,0,5,,,,,,,,3,,,,71,45
61500,note_on,160,0,7,,,,,,,,5,,,,59,30
61500,note_on,160,0,2,,,,,,,,0,,,,40,10
61500,note_on,0,0,2,,,,,,,,0,,,,52,10
61500,note_on,160,0,9,,,,,,,,7,,,,40,30
61500,note_on,160,0,1,,,,,,,,0,,,,59,10
61500,note_on,40,0,10,,,,,,,,8,,,,71,30
61500,note_on,160,0,13,,,,,,,,12,,,,52,30
61500,note_on,160,0,12,,,,,,,,11,,,,59,30
61580,note_off,0,0,1,,,,,,,,0,,,,59,64
61580,note_off,80,0,13,,,,,,,,12,,,,52,64
61580,note_off,80,0,12,,,,,,,,11,,,,59,64
61580,note_off,80,0,7,,,,,,,,5,,,,59,64
61580,note_off,0,0,1,,,,,,,,0,,,,64,64
61580,note_off,80,0,2,,,,,,,,0,,,,52,64
61580,note_off,80,0,8,,,,,,,,6,,,,52,64
61580,note_off,80,0,9,,,,,,,,7,,,,40,64
61580,note_off,0,0,2,,,,,,,,0,,,,40,64
61580,note_off,80,0,1,,,,,,,,0,,,,68,64
61590,note_on,160,0,15,,,,,,,,14,,,,40,30
61590,note_on,160,0,14,,,,,,,,13,,,,40,30
61620,note_on,0,0,5,,,,,,,,3,,,,73,45
61620,note_off,120,0,6,,,,,,,,4,,,,68,64
61620,note_off,120,0,10,,,,,,,,8,,,,71,64
61620,note_on,0,0,10,,,,,,,,8,,,,73,30
61620,note_off,120,0,5,,,,,,,,3,,,,71,64
61620,note_off,120,0,11,,,,,,,,10,,,,68,64
61620,note_on,0,0,11,,,,,,,,10,,,,69,30
61620,note_on,0,0,6,,,,,,,,4,,,,69,45
61670,note_off,80,0,15,,,,,,,,14,,,,40,64
61670,note_off,80,0,14,,,,,,,,13,,,,40,64
61700,note_off,80,0,5,,,,,,,,3,,,,73,64
61700,note_off,80,0,10,,,,,,,,8,,,,73,64
61700,note_off,80,0,11,,,,,,,,10,,,,69,64
61700,note_off,80,0,6,,,,,,,,4,,,,69,64
61740,note_on,40,0,10,,,,,,,,8,,,,71,30
61740,note_on,0,0,2,,,,,,,,0,,,,52,10
61740,note_on,160,0,2,,,,,,,,0,,,,40,10
61740,note_on,160,0,8,,,,,,,,6,,,,52,30
61740,note_on,160,0,12,,,,,,,,11,,,,59,30
61740,note_on,160,0,7,,,,,,,,5,,,,59,30
61740,note_on,40,0,11,,,,,,,,10,,,,68,30
61740,note_on,40,0,5,,,,,,,,3,,,,71,45
61740,note_on,40,0,6,,,,,,,,4,,,,68,45
61740,note_on,0,0,1,,,,,,,,0,,,,68,10
61740,note_on,0,0,1,,,,,,,,0,,,,64,10
61740,note_on,160,0,1,,,,,,,,0,,,,59,10
61740,note_on,160,0,9,,,,,,,,7,,,,40,30
61740,note_on,160,0,13,,,,,,,,12,,,,52,30
61820,note_off,80,0,9,,,,,,,,7,,,,40,64
61820,note_off,80,0,7,,,,,,,,5,,,,59,64
61820,note_off,80,0,1,,,,,,,,0,,,,68,64
61820,note_off,0,0,1,,,,,,,,0,,,,64,64
61820,note_off,0,0,1,,,,,,,,0,,,,59,64
61820,note_off,80,0,12,,,,,,,,11,,,,59,64
61820,note_off,0,0,2,,,,,,,,0,,,,40,64
61820,note_off,80,0,2,,,,,,,,0,,,,52,64
61820,note_off,80,0,13,,,,,,,,12,,,,52,64
61820,note_off,80,0,8,,,,,,,,6,,,,52,64
61830,note_on,160,0,14,,,,,,,,13,,,,40,30
61830,note_on,160,0,15,,,,,,,,14,,,,40,30
61860,note_on,0,0,6,,,,,,,,4,,,,69,45
61860,note_off,120,0,11,,,,,,,,10,,,,68,64
61860,note_on,0,0,11,,,,,,,,10,,,,69,30
61860,note_off,120,0,6,,,,,,,,4,,,,68,64
61860,note_on,0,0,5,,,,,,,,3,,,,73,45
61860,note_off,120,0,5,,,,,,,,3,,,,71,64
61860,note_off,120,0,10,,,,,,,,8,,,,71,64
61860,note_on,0,0,10,,,,,,,,8,,,,73,30
61910,note_off,80,0,15,,,,,,,,14,,,,40,64
61910,note_off,80,0,14,,,,,,,,13,,,,40,64
61940,note_off,80,0,5,,,,,,,,3,,,,73,64
61940,note_off,80,0,6,,,,,,,,4,,,,69,64
61940,note_off,80,0,11,,,,,,,,10,,,,69,64
61940,note_off,80,0,10,,,,,,,,8,,,,73,64
61980,note_on,40,0,10,,,,,,,,8,,,,75,30
61980,note_on,160,0,13,,,,,,,,12,,,,47,30
61980,note_on,40,0,5,,,,,,,,3,,,,75,45
61980,note_on,160,0,8,,,,,,,,6,,,,47,30
61980,note_on,160,0,2,,,,,,,,0,,,,35,10
61980,note_on,0,0,2,,,,,,,,0,,,,47,10
61980,note_on,160,0,12,,,,,,,,11,,,,59,30
61980,note_on,40,0,11,,,,,,,,10,,,,71,30
61980,note_on,40,0,6,,,,,,,,4,,,,71,45
61980,note_on,160,0,1,,,,,,,,0,,,,66,10
61980,note_on,0,0,1,,,,,,,,0,,,,71,10
61980,note_on,0,0,1,,,,,,,,0,,,,75,10
61980,note_on,160,0,7,,,,,,,,5,,,,59,30
61980,note_on,160,0,9,,,,,,,,7,,,,35,30
62060,note_off,80,0,2,,,,,,,,0,,,,47,64
62060,note_off,80,0,1,,,,,,,,0,,,,75,64
62060,note_off,0,0,1,,,,,,,,0,,,,71,64
62060,note_off,0,0,1,,,,,,,,0,,,,66,64
62060,note_off,80,0,7,,,,,,,,5,,,,59,64
62060,note_off,0,0,2,,,,,,,,0,,,,35,64
62060,note_off,80,0,13,,,,,,,,12,,,,47,64
62060,note_off,80,0,8,,,,,,,,6,,,,47,64
62060,note_off,80,0,9,,,,,,,,7,,,,35,64
62060,note_off,80,0,12,,,,,,,,11,,,,59,64
62070,note_on,160,0,14,,,,,,,,13,,,,40,30
62070,note_on,160,0,15,,,,,,,,14,,,,40,30
62100,note_off,120,0,11,,,,,,,,10,,,,71,64
62100,note_on,0,0,10,,,,,,,,8,,,,76,31
62100,note_off,120,0,10,,,,,,,,8,,,,75,64
62100,note_on,0,0,5,,,,,,,,3,,,,76,46
62100,note_off,120,0,6,,,,,,,,4,,,,71,64
62100,note_on,0,0,11,,,,,,,,10,,,,73,31
62100,note_off,120,0,5,,,,,,,,3,,,,75,64
62100,note_on,0,0,6,,,,,,,,4,,,,73,46
62150,note_off,80,0,14,,,,,,,,13,,,,40,64
62150,note_off,80,0,15,,,,,,,,14,,,,40,64
62180,note_off,80,0,11,,,,,,,,10,,,,73,64
62180,note_off,80,0,5,,,,,,,,3,,,,76,64
62180,note_off,80,0,10,,,,,,,,8,,,,76,64
62180,note_off,80,0,6,,,,,,,,4,,,,73,64
62220,note_on,160,0,7,,,,,,,,5,,,,66,33
62220,note_on,40,0,5,,,,,,,,3,,,,75,47
62220,note_on,160,0,12,,,,,,,,11,,,,66,33
62220,note_on,0,0,1,,,,,,,,0,,,,71,13
62220,note_on,160,0,8,,,,,,,,6,,,,47,33
62220,note_on,160,0,2,,,,,,,,0,,,,35,13
62220,note_on,0,0,2,,,,,,,,0,,,,47,13
62220,note_on,160,0,13,,,,,,,,12,,,,47,33
62220,note_on,40,0,6,,,,,,,,4,,,,71,47
62220,note_on,160,0,9,,,,,,,,7,,,,35,33
62220,note_on,40,0,11,,,,,,,,10,,,,71,32
62220,note_on,40,0,10,,,,,,,,8,,,,75,32
62220,note_on,0,0,1,,,,,,,,0,,,,75,13
62220,note_on,160,0,1,,,,,,,,0,,,,66,13
62300,note_off,0,0,1,,,,,,,,0,,,,66,64
62300,note_off,80,0,7,,,,,,,,5,,,,66,64
62300,note_off,0,0,1,,,,,,,,0,,,,71,64
62300,note_off,80,0,8,,,,,,,,6,,,,47,64
62300,note_off,80,0,12,,,,,,,,11,,,,66,64
62300,note_off,80,0,13,,,,,,,,12,,,,47,64
62300,note_off,0,0,2,,,,,,,,0,,,,35,64
62300,note_off,80,0,2,,,,,,,,0,,,,47,64
62300,note_off,80,0,1,,,,,,,,0,,,,75,64
62300,note_off,80,0,9,,,,,,,,7,,,,35,64
62310,note_on,160,0,15,,,,,,,,14,,,,35,30
62310,note_on,160,0,14,,,,,,,,13,,,,35,30
62340,note_on,0,0,5,,,,,,,,3,,,,76,48
62340,note_on,0,0,6,,,,,,,,4,,,,73,48
62340,note_off,120,0,10,,,,,,,,8,,,,75,64
62340,note_off,120,0,5,,,,,,,,3,,,,75,64
62340,note_on,0,0,10,,,,,,,,8,,,,76,33
62340,note_on,0,0,11,,,,,,,,10,,,,73,33
62340,note_off,120,0,11,,,,,,,,10,,,,71,64
62340,note_off,120,0,6,,,,,,,,4,,,,71,64
62390,note_off,80,0,15,,,,,,,,14,,,,35,64
62390,note_off,80,0,14,,,,,,,,13,,,,35,64
62420,note_off,80,0,11,,,,,,,,10,,,,73,64
62420,note_off,80,0,10,,,,,,,,8,,,,76,64
62420,note_off,80,0,6,,,,,,,,4,,,,73,64
62420,note_off,80,0,5,,,,,,,,3,,,,76,64
62460,note_on,160,0,1,,,,,,,,0,,,,66,16
62460,note_on,160,0,12,,,,,,,,11,,,,66,36
62460,note_on,0,0,1,,,,,,,,0,,,,71,16
62460,note_on,0,0,1,,,,,,,,0,,,,75,16
62460,note_on,160,0,13,,,,,,,,12,,,,47,36
62460,note_on,0,0,2,,,,,,,,0,,,,47,16
62460,note_on,160,0,7,,,,,,,,5,,,,66,36
62460,note_on,160,0,2,,,,,,,,0,,,,35,16
62460,note_on,160,0,9,,,,,,,,7,,,,35,36
62460,note_on,40,0,11,,,,,,,,10,,,,75,34
62460,note_on,40,0,5,,,,,,,,3,,,,78,49
62460,note_on,40,0,6,,,,,,,,4,,,,75,49
62460,note_on,40,0,10,,,,,,,,8,,,,78,34
62460,note_on,160,0,8,,,,,,,,6,,,,47,36
62540,note_off,80,0,2,,,,,,,,0,,,,47,64
62540,note_off,0,0,2,,,,,,,,0,,,,35,64
62540,note_off,0,0,1,,,,,,,,0,,,,66,64
62540,note_off,80,0,1,,,,,,,,0,,,,75,64
62540,note_off,80,0,13,,,,,,,,12,,,,47,64
62540,note_off,0,0,1,,,,,,,,0,,,,71,64
62540,note_off,80,0,9,,,,,,,,7,,,,35,64
62540,note_off,80,0,7,,,,,,,,5,,,,66,64
62540,note_off,80,0,8,,,,,,,,6,,,,47,64
62540,note_off,80,0,12,,,,,,,,11,,,,66,64
62550,note_on,160,0,14,,,,,,,,13,,,,35,33
62550,note_on,160,0,15,,,,,,,,14,,,,35,33
62580,note_off,120,0,6,,,,,,,,4,,,,75,64
62580,note_off,120,0,5,,,,,,,,3,,,,78,64
62580,note_on,0,0,11,,,,,,,,10,,,,73,35
62580,note_off,120,0,11,,,,,,,,10,,,,75,64
62580,note_on,0,0,5,,,,,,,,3,,,,76,50
62580,note_off,120,0,10,,,,,,,,8,,,,78,64
62580,note_on,0,0,10,,,,,,,,8,,,,76,35
62580,note_on,0,0,6,,,,,,,,4,,,,73,50
62630,note_off,80,0,15,,,,,,,,14,,,,35,64
62630,note_off,80,0,14,,,,,,,,13,,,,35,64
62660,note_off,80,0,5,,,,,,,,3,,,,76,64
62660,note_off,80,0,6,,,,,,,,4,,,,73,64
62660,note_off,80,0,11,,,,,,,,10,,,,73,64
62660,note_off,80,0,10,,,,,,,,8,,,,76,64
62700,note_on,160,0,9,,,,,,,,7,,,,35,39
62700,note_on,40,0,11,,,,,,,,10,,,,75,36
62700,note_on,160,0,8,,,,,,,,6,,,,47,39
62700,note_on,40,0,10,,,,,,,,8,,,,78,36
62700,note_on,160,0,7,,,,,,,,5,,,,66,39
62700,note_on,40,0,5,,,,,,,,3,,,,78,51
62700,note_on,160,0,1,,,,,,,,0,,,,66,19
62700,note_on,160,0,13,,,,,,,,12,,,,47,39
62700,note_on,40,0,6,,,,,,,,4,,,,75,51
62700,note_on,0,0,1,,,,,,,,0,,,,75,19
62700,note_on,0,0,1,,,,,,,,0,,,,71,19
62700,note_on,160,0,2,,,,,,,,0,,,,35,19
62700,note_on,160,0,12,,,,,,,,11,,,,66,39
62700,note_on,0,0,2,,,,,,,,0,,,,47,19
62780,note_off,80,0,7,,,,,,,,5,,,,66,64
62780,note_off,80,0,13,,,,,,,,12,,,,47,64
62780,note_off,80,0,9,,,,,,,,7,,,,35,64
62780,note_off,80,0,2,,,,,,,,0,,,,47,64
62780,note_off,80,0,1,,,,,,,,0,,,,75,64
62780,note_off,80,0,8,,,,,,,,6,,,,47,64
62780,note_off,0,0,1,,,,,,,,0,,,,66,64
62780,note_off,0,0,1,,,,,,,,0,,,,71,64
62780,note_off,0,0,2,,,,,,,,0,,,,35,64
62780,note_off,80,0,12,,,,,,,,11,,,,66,64
62790,note_on,160,0,15,,,,,,,,14,,,,35,36
62790,note_on,160,0,14,,,,,,,,13,,,,35,36
62820,note_off,120,0,5,,,,,,,,3,,,,78,64
62820,note_on,0,0,10,,,,,,,,8,,,,76,37
62820,note_on,0,0,6,,,,,,,,4,,,,73,52
62820,note_on,0,0,5,,,,,,,,3,,,,76,52
62820,note_off,120,0,10,,,,,,,,8,,,,78,64
62820,note_off,120,0,6,,,,,,,,4,,,,75,64
62820,note_on,0,0,11,,,,,,,,10,,,,73,37
62820,note_off,120,0,11,,,,,,,,10,,,,75,64
62870,note_off,80,0,14,,,,,,,,13,,,,35,64
62870,note_off,80,0,15,,,,,,,,14,,,,35,64
62900,note_off,80,0,11,,,,,,,,10,,,,73,64
62900,note_off,80,0,10,,,,,,,,8,,,,76,64
62900,note_off,80,0,6,,,,,,,,4,,,,73,64
62900,note_off,80,0,5,,,,,,,,3,,,,76,64
62940,note_on,160,0,1,,,,,,,,0,,,,66,22
62940,note_on,160,0,7,,,,,,,,5,,,,66,42
62940,note_on,40,0,6,,,,,,,,4,,,,71,53
62940,note_on,160,0,8,,,,,,,,6,,,,47,42
62940,note_on,0,0,2,,,,,,,,0,,,,47,22
62940,note_on,160,0,13,,,,,,,,12,,,,47,42
62940,note_on,160,0,2,,,,,,,,0,,,,35,22
62940,note_on,0,0,1,,,,,,,,0,,,,71,22
62940,note_on,160,0,12,,,,,,,,11,,,,66,42
62940,note_on,40,0,10,,,,,,,,8,,,,75,38
62940,note_on,40,0,5,,,,,,,,3,,,,75,53
62940,note_on,40,0,11,,,,,,,,10,,,,71,38
62940,note_on,160,0,9,,,,,,,,7,,,,35,42
62940,note_on,0,0,1,,,,,,,,0,,,,75,22
63020,note_off,0,0,1,,,,,,,,0,,,,66,64
63020,note_off,0,0,1,,,,,,,,0,,,,71,64
63020,note_off,80,0,9,,,,,,,,7,,,,35,64
63020,note_off,80,0,1,,,,,,,,0,,,,75,64
63020,note_off,80,0,8,,,,,,,,6,,,,47,64
63020,note_off,80,0,7,,,,,,,,5,,,,66,64
63020,note_off,80,0,12,,,,,,,,11,,,,66,64
63020,note_off,0,0,2,,,,,,,,0,,,,35,64
63020,note_off,80,0,13,,,,,,,,12,,,,47,64
63020,note_off,80,0,2,,,,,,,,0,,,,47,64
63030,note_on,160,0,14,,,,,,,,13,,,,35,39
63030,note_on,160,0,15,,,,,,,,14,,,,35,39
63060,note_off,120,0,11,,,,,,,,10,,,,71,64
63060,note_on,0,0,11,,,,,,,,10,,,,73,39
63060,note_off,120,0,6,,,,,,,,4,,,,71,64
63060,note_off,120,0,5,,,,,,,,3,,,,75,64
63060,note_on,0,0,5,,,,,,,,3,,,,76,54
63060,note_on,0,0,10,,,,,,,,8,,,,76,39
63060,note_on,0,0,6,,,,,,,,4,,,,73,54
63060,note_off,120,0,10,,,,,,,,8,,,,75,64
63110,note_off,80,0,14,,,,,,,,13,,,,35,64
63110,note_off,80,0,15,,,,,,,,14,,,,35,64
63140,note_off,80,0,10,,,,,,,,8,,,,76,64
63140,note_off,80,0,11,,,,,,,,10,,,,73,64
63140,note_off,80,0,6,,,,,,,,4,,,,73,64
63140,note_off,80,0,5,,,,,,,,3,,,,76,64
63180,note_on,160,0,1,,,,,,,,0,,,,66,25
63180,note_on,0,0,1,,,,,,,,0,,,,71,25
63180,note_on,40,0,6,,,,,,,,4,,,,71,56
63180,note_on,0,0,1,,,,,,,,0,,,,75,25
63180,note_on,160,0,9,,,,,,,,7,,,,35,45
63180,note_on,160,0,12,,,,,,,,11,,,,66,45
63180,note_on,40,0,11,,,,,,,,10,,,,71,40
63180,note_on,160,0,7,,,,,,,,5,,,,66,45
63180,note_on,40,0,10,,,,,,,,8,,,,75,40
63180,note_on,160,0,13,,,,,,,,12,,,,47,45
63180,note_on,160,0,2,,,,,,,,0,,,,35,25
63180,note_on,40,0,5,,,,,,,,3,,,,75,56
63180,note_on,160,0,8,,,,,,,,6,,,,47,45
63180,note_on,0,0,2,,,,,,,,0,,,,47,25
63260,note_off,0,0,1,,,,,,,,0,,,,71,64
63260,note_off,80,0,13,,,,,,,,12,,,,47,64
63260,note_off,80,0,7,,,,,,,,5,,,,66,64
63260,note_off,0,0,1,,,,,,,,0,,,,66,64
63260,note_off,80,0,9,,,,,,,,7,,,,35,64
63260,note_off,80,0,8,,,,,,,,6,,,,47,64
63260,note_off,0,0,2,,,,,,,,0,,,,35,64
63260,note_off,80,0,12,,,,,,,,11,,,,66,64
63260,note_off,80,0,1,,,,,,,,0,,,,75,64
63260,note_off,80,0,2,,,,,,,,0,,,,47,64
63270,note_on,160,0,15,,,,,,,,14,,,,35,42
63270,note_on,160,0,14,,,,,,,,13,,,,35,42
63300,note_on,0,0,6,,,,,,,,4,,,,73,58
63300,note_off,120,0,5,,,,,,,,3,,,,75,64
63300,note_off,120,0,6,,,,,,,,4,,,,71,64
63300,note_off,120,0,10,,,,,,,,8,,,,75,64
63300,note_on,0,0,10,,,,,,,,8,,,,76,41
63300,note_off,120,0,11,,,,,,,,10,,,,71,64
63300,note_on,0,0,11,,,,,,,,10,,,,73,41
63300,note_on,0,0,5,,,,,,,,3,,,,76,58
63350,note_off,80,0,14,,,,,,,,13,,,,35,64
63350,note_off,80,0,15,,,,,,,,14,,,,35,64
63380,note_off,80,0,6,,,,,,,,4,,,,73,64
63380,note_off,80,0,5,,,,,,,,3,,,,76,64
63380,note_off,80,0,11,,,,,,,,10,,,,73,64
63380,note_off,80,0,10,,,,,,,,8,,,,76,64
63420,note_on,160,0,7,,,,,,,,5,,,,66,48
63420,note_on,0,0,2,,,,,,,,0,,,,47,28
63420,note_on,160,0,2,,,,,,,,0,,,,35,28
63420,note_on,160,0,12,,,,,,,,11,,,,66,48
63420,note_on,160,0,8,,,,,,,,6,,,,47,48
63420,note_on,160,0,9,,,,,,,,7,,,,35,48
63420,note_on,160,0,13,,,,,,,,12,,,,47,48
63420,note_on,160,0,1,,,,,,,,0,,,,66,28
63420,note_on,0,0,1,,,,,,,,0,,,,71,28
63420,note_on,40,0,11,,,,,,,,10,,,,75,43
63420,note_on,0,0,1,,,,,,,,0,,,,75,28
63420,note_on,40,0,6,,,,,,,,4,,,,75,60
63420,note_on,40,0,5,,,,,,,,3,,,,78,60
63420,note_on,40,0,10,,,,,,,,8,,,,78,43
63500,note_off,80,0,12,,,,,,,,11,,,,66,64
63500,note_off,80,0,1,,,,,,,,0,,,,75,64
63500,note_off,0,0,1,,,,,,,,0,,,,71,64
63500,note_off,80,0,2,,,,,,,,0,,,,47,64
63500,note_off,0,0,2,,,,,,,,0,,,,35,64
63500,note_off,0,0,1,,,,,,,,0,,,,66,64
63500,note_off,80,0,8,,,,,,,,6,,,,47,64
63500,note_off,80,0,13,,,,,,,,12,,,,47,64
63500,note_off,80,0,9,,,,,,,,7,,,,35,64
63500,note_off,80,0,7,,,,,,,,5,,,,66,64
63510,note_on,160,0,15,,,,,,,,14,,,,35,45
63510,note_on,160,0,14,,,,,,,,13,,,,35,45
63540,note_on,0,0,6,,,,,,,,4,,,,73,62
63540,note_off,120,0,6,,,,,,,,4,,,,75,64
63540,note_off,120,0,5,,,,,,,,3,,,,78,64
63540,note_on,0,0,5,,,,,,,,3,,,,76,62
63540,note_on,0,0,10,,,,,,,,8,,,,76,45
63540,note_off,120,0,10,,,,,,,,8,,,,78,64
63540,note_off,120,0,11,,,,,,,,10,,,,75,64
63540,note_on,0,0,11,,,,,,,,10,,,,73,45
63590,note_off,80,0,15,,,,,,,,14,,,,35,64
63590,note_off,80,0,14,,,,,,,,13,,,,35,64
63620,note_off,80,0,5,,,,,,,,3,,,,76,64
63620,note_off,80,0,6,,,,,,,,4,,,,73,64
63620,note_off,80,0,10,,,,,,,,8,,,,76,64
63620,note_off,80,0,11,,,,,,,,10,,,,73,64
63660,note_on,160,0,12,,,,,,,,11,,,,66,51
63660,note_on,40,0,10,,,,,,,,8,,,,78,47
63660,note_on,160,0,2,,,,,,,,0,,,,35,31
63660,note_on,0,0,2,,,,,,,,0,,,,47,31
63660,note_on,160,0,1,,,,,,,,0,,,,66,31
63660,note_on,160,0,7,,,,,,,,5,,,,66,51
63660,note_on,40,0,5,,,,,,,,3,,,,78,64
63660,note_on,40,0,11,,,,,,,,10,,,,75,47
63660,note_on,160,0,9,,,,,,,,7,,,,35,51
63660,note_on,160,0,13,,,,,,,,12,,,,47,51
63660,note_on,160,0,8,,,,,,,,6,,,,47,51
63660,note_on,0,0,1,,,,,,,,0,,,,71,31
63660,note_on,40,0,6,,,,,,,,4,,,,75,64
63660,note_on,0,0,1,,,,,,,,0,,,,75,31
63740,note_off,0,0,2,,,,,,,,0,,,,35,64
63740,note_off,80,0,2,,,,,,,,0,,,,47,64
63740,note_off,80,0,13,,,,,,,,12,,,,47,64
63740,note_off,80,0,1,,,,,,,,0,,,,75,64
63740,note_off,0,0,1,,,,,,,,0,,,,71,64
63740,note_off,0,0,1,,,,,,,,0,,,,66,64
63740,note_off,80,0,12,,,,,,,,11,,,,66,64
63740,note_off,80,0,8,,,,,,,,6,,,,47,64
63740,note_off,80,0,9,,,,,,,,7,,,,35,64
63740,note_off,80,0,7,,,,,,,,5,,,,66,64
63750,note_on,160,0,15,,,,,,,,14,,,,35,48
63750,note_on,160,0,14,,,,,,,,13,,,,35,48
63780,note_on,0,0,10,,,,,,,,8,,,,76,49
63780,note_off,120,0,6,,,,,,,,4,,,,75,64
63780,note_on,0,0,6,,,,,,,,4,,,,73,66
63780,note_off,120,0,11,,,,,,,,10,,,,75,64
63780,note_on,0,0,11,,,,,,,,10,,,,73,49
63780,note_off,120,0,10,,,,,,,,8,,,,78,64
63780,note_off,120,0,5,,,,,,,,3,,,,78,64
63780,note_on,0,0,5,,,,,,,,3,,,,76,66
63830,note_off,80,0,14,,,,,,,,13,,,,35,64
63830,note_off,80,0,15,,,,,,,,14,,,,35,64
63860,note_off,80,0,10,,,,,,,,8,,,,76,64
63860,note_off,80,0,6,,,,,,,,4,,,,73,64
63860,note_off,80,0,11,,,,,,,,10,,,,73,64
63860,note_off,80,0,5,,,,,,,,3,,,,76,64
63900,note_on,40,0,6,,,,,,,,4,,,,71,68
63900,note_on,160,0,8,,,,,,,,6,,,,47,54
63900,note_on,160,0,13,,,,,,,,12,,,,47,54
63900,note_on,40,0,5,,,,,,,,3,,,,75,68
63900,note_on,160,0,1,,,,,,,,0,,,,66,34
63900,note_on,160,0,2,,,,,,,,0,,,,35,34
63900,note_on,0,0,2,,,,,,,,0,,,,47,34
63900,note_on,40,0,10,,,,,,,,8,,,,75,51
63900,note_on,160,0,7,,,,,,,,5,,,,66,54
63900,note_on,160,0,9,,,,,,,,7,,,,35,54
63900,note_on,0,0,1,,,,,,,,0,,,,75,34
63900,note_on,40,0,11,,,,,,,,10,,,,71,51
63900,note_on,160,0,12,,,,,,,,11,,,,66,54
63900,note_on,0,0,1,,,,,,,,0,,,,71,34
63980,note_off,80,0,12,,,,,,,,11,,,,66,64
63980,note_off,0,0,1,,,,,,,,0,,,,66,64
63980,note_off,80,0,8,,,,,,,,6,,,,47,64
63980,note_off,80,0,7,,,,,,,,5,,,,66,64
63980,note_off,80,0,13,,,,,,,,12,,,,47,64
63980,note_off,0,0,2,,,,,,,,0,,,,35,64
63980,note_off,80,0,2,,,,,,,,0,,,,47,64
63980,note_off,80,0,9,,,,,,,,7,,,,35,64
63980,note_off,80,0,1,,,,,,,,0,,,,75,64
63980,note_off,0,0,1,,,,,,,,0,,,,71,64
63990,note_on,160,0,14,,,,,,,,13,,,,35,51
63990,note_on,160,0,15,,,,,,,,14,,,,35,51
64020,note_off,120,0,5,,,,,,,,3,,,,75,64
64020,note_off,120,0,11,,,,,,,,10,,,,71,64
64020,note_off,120,0,6,,,,,,,,4,,,,71,64
64020,note_on,0,0,6,,,,,,,,4,,,,73,70
64020,note_on,0,0,10,,,,,,,,8,,,,76,53
64020,note_on,0,0,5,,,,,,,,3,,,,76,70
64020,note_on,0,0,11,,,,,,,,10,,,,73,53
64020,note_off,120,0,10,,,,,,,,8,,,,75,64
64070,note_off,80,0,15,,,,,,,,14,,,,35,64
64070,note_off,80,0,14,,,,,,,,13,,,,35,64
64100,note_off,80,0,10,,,,,,,,8,,,,76,64
64100,note_off,80,0,11,,,,,,,,10,,,,73,64
64100,note_off,80,0,6,,,,,,,,4,,,,73,64
64100,note_off,80,0,5,,,,,,,,3,,,,76,64
64140,note_on,160,0,1,,,,,,,,0,,,,66,37
64140,note_on,40,0,11,,,,,,,,10,,,,71,55
64140,note_on,40,0,10,,,,,,,,8,,,,75,55
64140,note_on,0,0,1,,,,,,,,0,,,,75,37
64140,note_on,160,0,8,,,,,,,,6,,,,47,57
64140,note_on,0,0,1,,,,,,,,0,,,,71,37
64140,note_on,160,0,2,,,,,,,,0,,,,35,37
64140,note_on,40,0,6,,,,,,,,4,,,,71,72
64140,note_on,160,0,13,,,,,,,,12,,,,47,57
64140,note_on,40,0,5,,,,,,,,3,,,,75,72
64140,note_on,160,0,12,,,,,,,,11,,,,66,57
64140,note_on,160,0,9,,,,,,,,7,,,,35,57
64140,note_on,0,0,2,,,,,,,,0,,,,47,37
64140,note_on,160,0,7,,,,,,,,5,,,,66,57
64220,note_off,80,0,8,,,,,,,,6,,,,47,64
64220,note_off,0,0,2,,,,,,,,0,,,,35,64
64220,note_off,0,0,1,,,,,,,,0,,,,71,64
64220,note_off,0,0,1,,,,,,,,0,,,,66,64
64220,note_off,80,0,9,,,,,,,,7,,,,35,64
64220,note_off,80,0,12,,,,,,,,11,,,,66,64
64220,note_off,80,0,7,,,,,,,,5,,,,66,64
64220,note_off,80,0,1,,,,,,,,0,,,,75,64
64220,note_off,80,0,2,,,,,,,,0,,,,47,64
64220,note_off,80,0,13,,,,,,,,12,,,,47,64
64230,note_on,160,0,14,,,,,,,,13,,,,35,54
64230,note_on,160,0,15,,,,,,,,14,,,,35,54
64260,note_on,0,0,10,,,,,,,,8,,,,76,57
64260,note_on,0,0,5,,,,,,,,3,,,,76,74
64260,note_off,120,0,5,,,,,,,,3,,,,75,64
64260,note_off,120,0,11,,,,,,,,10,,,,71,64
64260,note_on,0,0,6,,,,,,,,4,,,,73,74
64260,note_on,0,0,11,,,,,,,,10,,,,73,57
64260,note_off,120,0,6,,,,,,,,4,,,,71,64
64260,note_off,120,0,10,,,,,,,,8,,,,75,64
64310,note_off,80,0,14,,,,,,,,13,,,,35,64
64310,note_off,80,0,15,,,,,,,,14,,,,35,64
64340,note_off,80,0,6,,,,,,,,4,,,,73,64
64340,note_off,80,0,5,,,,,,,,3,,,,76,64
64340,note_off,80,0,10,,,,,,,,8,,,,76,64
64340,note_off,80,0,11,,,,,,,,10,,,,73,64
64380,note_on,40,0,6,,,,,,,,4,,,,75,76
64380,note_on,160,0,12,,,,,,,,11,,,,66,60
64380,note_on,160,0,7,,,,,,,,5,,,,66,60
64380,note_on,160,0,13,,,,,,,,12,,,,47,60
64380,note_on,160,0,2,,,,,,,,0,,,,35,40
64380,note_on,0,0,2,,,,,,,,0,,,,47,40
64380,note_on,160,0,8,,,,,,,,6,,,,47,60
64380,note_on,40,0,11,,,,,,,,10,,,,75,59
64380,note_on,40,0,5,,,,,,,,3,,,,78,76
64380,note_on,160,0,1,,,,,,,,0,,,,66,40
64380,note_on,0,0,1,,,,,,,,0,,,,71,40
64380,note_on,0,0,1,,,,,,,,0,,,,75,40
64380,note_on,160,0,9,,,,,,,,7,,,,35,60
64380,note_on,40,0,10,,,,,,,,8,,,,78,59
64460,note_off,0,0,1,,,,,,,,0,,,,66,64
64460,note_off,80,0,7,,,,,,,,5,,,,66,64
64460,note_off,0,0,2,,,,,,,,0,,,,35,64
64460,note_off,80,0,13,,,,,,,,12,,,,47,64
64460,note_off,80,0,9,,,,,,,,7,,,,35,64
64460,note_off,80,0,2,,,,,,,,0,,,,47,64
64460,note_off,80,0,1,,,,,,,,0,,,,75,64
64460,note_off,0,0,1,,,,,,,,0,,,,71,64
64460,note_off,80,0,8,,,,,,,,6,,,,47,64
64460,note_off,80,0,12,,,,,,,,11,,,,66,64
64470,note_on,160,0,14,,,,,,,,13,,,,35,57
64470,note_on,160,0,15,,,,,,,,14,,,,35,57
64500,note_on,0,0,11,,,,,,,,10,,,,76,61
64500,note_off,120,0,10,,,,,,,,8,,,,78,64
64500,note_off,120,0,11,,,,,,,,10,,,,75,64
64500,note_off,120,0,6,,,,,,,,4,,,,75,64
64500,note_off,120,0,5,,,,,,,,3,,,,78,64
64500,note_on,0,0,6,,,,,,,,4,,,,76,78
64500,note_on,0,0,5,,,,,,,,3,,,,80,78
64500,note_on,0,0,10,,,,,,,,8,,,,80,61
64550,note_off,80,0,14,,,,,,,,13,,,,35,64
64550,note_off,80,0,15,,,,,,,,14,,,,35,64
64580,note_off,80,0,10,,,,,,,,8,,,,80,64
64580,note_off,80,0,6,,,,,,,,4,,,,76,64
64580,note_off,80,0,5,,,,,,,,3,,,,80,64
64580,note_off,80,0,11,,,,,,,,10,,,,76,64
64620,note_on,40,0,5,,,,,,,,3,,,,78,80
64620,note_on,40,0,6,,,,,,,,4,,,,75,80
64620,note_on,0,0,1,,,,,,,,0,,,,75,44
64620,note_on,40,0,10,,,,,,,,8,,,,78,63
64620,note_on,40,0,11,,,,,,,,10,,,,75,63
64620,note_on,160,0,8,,,,,,,,6,,,,47,63
64620,note_on,160,0,2,,,,,,,,0,,,,35,44
64620,note_on,0,0,2,,,,,,,,0,,,,47,44
64620,note_on,160,0,13,,,,,,,,12,,,,47,63
64620,note_on,160,0,12,,,,,,,,11,,,,66,63
64620,note_on,0,0,1,,,,,,,,0,,,,71,44
64620,note_on,160,0,9,,,,,,,,7,,,,35,63
64620,note_on,160,0,1,,,,,,,,0,,,,66,44
64620,note_on,160,0,7,,,,,,,,5,,,,66,63
64700,note_off,80,0,7,,,,,,,,5,,,,66,64
64700,note_off,80,0,13,,,,,,,,12,,,,47,64
64700,note_off,80,0,9,,,,,,,,7,,,,35,64
64700,note_off,80,0,8,,,,,,,,6,,,,47,64
64700,note_off,80,0,12,,,,,,,,11,,,,66,64
64700,note_off,80,0,2,,,,,,,,0,,,,47,64
64700,note_off,0,0,2,,,,,,,,0,,,,35,64
64700,note_off,0,0,1,,,,,,,,0,,,,66,64
64700,note_off,80,0,1,,,,,,,,0,,,,75,64
64700,note_off,0,0,1,,,,,,,,0,,,,71,64
64710,note_on,160,0,14,,,,,,,,13,,,,35,60
64710,note_on,160,0,15,,,,,,,,14,,,,35,60
64740,note_on,0,0,10,,,,,,,,8,,,,80,65
64740,note_off,120,0,10,,,,,,,,8,,,,78,64
64740,note_off,120,0,6,,,,,,,,4,,,,75,64
64740,note_on,0,0,5,,,,,,,,3,,,,80,82
64740,note_off,120,0,5,,,,,,,,3,,,,78,64
64740,note_on,0,0,6,,,,,,,,4,,,,76,82
64740,note_on,0,0,11,,,,,,,,10,,,,76,65
64740,note_off,120,0,11,,,,,,,,10,,,,75,64
64790,note_off,80,0,14,,,,,,,,13,,,,35,64
64790,note_off,80,0,15,,,,,,,,14,,,,35,64
64820,note_off,80,0,10,,,,,,,,8,,,,80,64
64820,note_off,80,0,6,,,,,,,,4,,,,76,64
64820,note_off,80,0,5,,,,,,,,3,,,,80,64
64820,note_off,80,0,11,,,,,,,,10,,,,76,64
64860,note_on,0,0,2,,,,,,,,0,,,,47,48
64860,note_on,160,0,13,,,,,,,,12,,,,47,66
64860,note_on,160,0,12,,,,,,,,11,,,,63,66
64860,note_on,160,0,8,,,,,,,,6,,,,47,66
64860,note_on,40,0,5,,,,,,,,3,,,,81,84
64860,note_on,40,0,11,,,,,,,,10,,,,78,67
64860,note_on,160,0,9,,,,,,,,7,,,,35,66
64860,note_on,160,0,2,,,,,,,,0,,,,35,48
64860,note_on,160,0,1,,,,,,,,0,,,,63,48
64860,note_on,0,0,1,,,,,,,,0,,,,66,48
64860,note_on,0,0,1,,,,,,,,0,,,,75,48
64860,note_on,160,0,7,,,,,,,,5,,,,63,66
64860,note_on,40,0,6,,,,,,,,4,,,,78,84
64860,note_on,40,0,10,,,,,,,,8,,,,81,67
64940,note_off,80,0,1,,,,,,,,0,,,,75,64
64940,note_off,80,0,13,,,,,,,,12,,,,47,64
64940,note_off,80,0,12,,,,,,,,11,,,,63,64
64940,note_off,80,0,9,,,,,,,,7,,,,35,64
64940,note_off,80,0,8,,,,,,,,6,,,,47,64
64940,note_off,0,0,1,,,,,,,,0,,,,63,64
64940,note_off,0,0,2,,,,,,,,0,,,,35,64
64940,note_off,80,0,2,,,,,,,,0,,,,47,64
64940,note_off,80,0,7,,,,,,,,5,,,,63,64
64940,note_off,0,0,1,,,,,,,,0,,,,66,64
64950,note_on,160,0,14,,,,,,,,13,,,,35,63
64950,note_on,160,0,15,,,,,,,,14,,,,35,63
64980,note_off,120,0,11,,,,,,,,10,,,,78,64
64980,note_on,0,0,11,,,,,,,,10,,,,76,69
64980,note_off,120,0,6,,,,,,,,4,,,,78,64
64980,note_off,120,0,10,,,,,,,,8,,,,81,64
64980,note_on,0,0,10,,,,,,,,8,,,,80,69
64980,note_on,0,0,6,,,,,,,,4,,,,76,86
64980,note_off,120,0,5,,,,,,,,3,,,,81,64
64980,note_on,0,0,5,,,,,,,,3,,,,80,86
65030,note_off,80,0,14,,,,,,,,13,,,,35,64
65030,note_off,80,0,15,,,,,,,,14,,,,35,64
65060,note_off,80,0,6,,,,,,,,4,,,,76,64
65060,note_off,80,0,10,,,,,,,,8,,,,80,64
65060,note_off,80,0,11,,,,,,,,10,,,,76,64
65060,note_off,80,0,5,,,,,,,,3,,,,80,64
65100,note_on,160,0,12,,,,,,,,11,,,,63,69
65100,note_on,0,0,1,,,,,,,,0,,,,75,52
65100,note_on,160,0,7,,,,,,,,5,,,,63,69
65100,note_on,160,0,13,,,,,,,,12,,,,47,69
65100,note_on,40,0,5,,,,,,,,3,,,,81,88
65100,note_on,160,0,9,,,,,,,,7,,,,35,69
65100,note_on,0,0,2,,,,,,,,0,,,,47,52
65100,note_on,40,0,10,,,,,,,,8,,,,81,71
65100,note_on,160,0,2,,,,,,,,0,,,,35,52
65100,note_on,40,0,11,,,,,,,,10,,,,78,71
65100,note_on,0,0,1,,,,,,,,0,,,,66,52
65100,note_on,160,0,1,,,,,,,,0,,,,63,52
65100,note_on,160,0,8,,,,,,,,6,,,,47,69
65100,note_on,40,0,6,,,,,,,,4,,,,78,88
65180,note_off,80,0,9,,,,,,,,7,,,,35,64
65180,note_off,80,0,7,,,,,,,,5,,,,63,64
65180,note_off,0,0,2,,,,,,,,0,,,,35,64
65180,note_off,80,0,12,,,,,,,,11,,,,63,64
65180,note_off,80,0,8,,,,,,,,6,,,,47,64
65180,note_off,80,0,1,,,,,,,,0,,,,75,64
65180,note_off,0,0,1,,,,,,,,0,,,,66,64
65180,note_off,0,0,1,,,,,,,,0,,,,63,64
65180,note_off,80,0,2,,,,,,,,0,,,,47,64
65180,note_off,80,0,13,,,,,,,,12,,,,47,64
65190,note_on,160,0,14,,,,,,,,13,,,,35,66
65190,note_on,160,0,15,,,,,,,,14,,,,35,66
65220,note_off,120,0,5,,,,,,,,3,,,,81,64
65220,note_on,0,0,6,,,,,,,,4,,,,76,90
65220,note_on,0,0,11,,,,,,,,10,,,,76,73
65220,note_off,120,0,10,,,,,,,,8,,,,81,64
65220,note_on,0,0,10,,,,,,,,8,,,,80,73
65220,note_off,120,0,6,,,,,,,,4,,,,78,64
65220,note_off,120,0,11,,,,,,,,10,,,,78,64
65220,note_on,0,0,5,,,,,,,,3,,,,80,90
65270,note_off,80,0,14,,,,,,,,13,,,,35,64
65270,note_off,80,0,15,,,,,,,,14,,,,35,64
65300,note_off,80,0,6,,,,,,,,4,,,,76,64
65300,note_off,80,0,10,,,,,,,,8,,,,80,64
65300,note_off,80,0,11,,,,,,,,10,,,,76,64
65300,note_off,80,0,5,,,,,,,,3,,,,80,64
65340,note_on,160,0,9,,,,,,,,7,,,,35,72
65340,note_on,160,0,13,,,,,,,,12,,,,47,72
65340,note_on,160,0,2,,,,,,,,0,,,,35,56
65340,note_on,160,0,7,,,,,,,,5,,,,63,72
65340,note_on,160,0,1,,,,,,,,0,,,,63,56
65340,note_on,0,0,1,,,,,,,,0,,,,66,56
65340,note_on,0,0,2,,,,,,,,0,,,,47,56
65340,note_on,0,0,1,,,,,,,,0,,,,75,56
65340,note_on,40,0,11,,,,,,,,10,,,,75,75
65340,note_on,40,0,6,,,,,,,,4,,,,75,92
65340,note_on,40,0,5,,,,,,,,3,,,,78,92
65340,note_on,160,0,8,,,,,,,,6,,,,47,72
65340,note_on,160,0,12,,,,,,,,11,,,,63,72
65340,note_on,40,0,10,,,,,,,,8,,,,78,75
65420,note_off,0,0,2,,,,,,,,0,,,,35,64
65420,note_off,80,0,8,,,,,,,,6,,,,47,64
65420,note_off,80,0,2,,,,,,,,0,,,,47,64
65420,note_off,80,0,12,,,,,,,,11,,,,63,64
65420,note_off,80,0,7,,,,,,,,5,,,,63,64
65420,note_off,80,0,9,,,,,,,,7,,,,35,64
65420,note_off,80,0,1,,,,,,,,0,,,,75,64
65420,note_off,0,0,1,,,,,,,,0,,,,66,64
65420,note_off,0,0,1,,,,,,,,0,,,,63,64
65420,note_off,80,0,13,,,,,,,,12,,,,47,64
65430,note_on,160,0,15,,,,,,,,14,,,,35,69
65430,note_on,160,0,14,,,,,,,,13,,,,35,69
65460,note_on,0,0,6,,,,,,,,4,,,,78,92
65460,note_off,120,0,6,,,,,,,,4,,,,75,64
65460,note_off,120,0,10,,,,,,,,8,,,,78,64
65460,note_on,0,0,11,,,,,,,,10,,,,78,75
65460,note_on,0,0,5,,,,,,,,3,,,,81,92
65460,note_off,120,0,5,,,,,,,,3,,,,78,64
65460,note_off,120,0,11,,,,,,,,10,,,,75,64
65460,note_on,0,0,10,,,,,,,,8,,,,81,75
65510,note_off,80,0,15,,,,,,,,14,,,,35,64
65510,note_off,80,0,14,,,,,,,,13,,,,35,64
65540,note_off,80,0,5,,,,,,,,3,,,,81,64
65540,note_off,80,0,10,,,,,,,,8,,,,81,64
65540,note_off,80,0,6,,,,,,,,4,,,,78,64
65540,note_off,80,0,11,,,,,,,,10,,,,78,64
65580,note_on,160,0,7,,,,,,,,5,,,,63,75
65580,note_on,40,0,10,,,,,,,,8,,,,80,75
65580,note_on,40,0,11,,,,,,,,10,,,,76,75
65580,note_on,160,0,2,,,,,,,,0,,,,35,60
65580,note_on,160,0,9,,,,,,,,7,,,,35,75
65580,note_on,40,0,5,,,,,,,,3,,,,80,92
65580,note_on,0,0,2,,,,,,,,0,,,,47,60
65580,note_on,160,0,13,,,,,,,,12,,,,47,75
65580,note_on,0,0,1,,,,,,,,0,,,,75,60
65580,note_on,160,0,12,,,,,,,,11,,,,63,75
65580,note_on,0,0,1,,,,,,,,0,,,,66,60
65580,note_on,160,0,1,,,,,,,,0,,,,63,60
65580,note_on,160,0,8,,,,,,,,6,,,,47,75
65580,note_on,40,0,6,,,,,,,,4,,,,76,92
65660,note_off,0,0,1,,,,,,,,0,,,,66,64
65660,note_off,0,0,2,,,,,,,,0,,,,35,64
65660,note_off,80,0,2,,,,,,,,0,,,,47,64
65660,note_off,80,0,7,,,,,,,,5,,,,63,64
65660,note_off,80,0,1,,,,,,,,0,,,,75,64
65660,note_off,0,0,1,,,,,,,,0,,,,63,64
65660,note_off,80,0,9,,,,,,,,7,,,,35,64
65660,note_off,80,0,12,,,,,,,,11,,,,63,64
65660,note_off,80,0,13,,,,,,,,12,,,,47,64
65660,note_off,80,0,8,,,,,,,,6,,,,47,64
65670,note_on,160,0,14,,,,,,,,13,,,,35,72
65670,note_on,160,0,15,,,,,,,,14,,,,35,72
65700,note_off,120,0,11,,,,,,,,10,,,,76,64
65700,note_off,120,0,6,,,,,,,,4,,,,76,64
65700,note_on,0,0,6,,,,,,,,4,,,,75,92
65700,note_on,0,0,5,,,,,,,,3,,,,78,92
65700,note_on,0,0,10,,,,,,,,8,,,,78,75
65700,note_off,120,0,5,,,,,,,,3,,,,80,64
65700,note_on,0,0,11,,,,,,,,10,,,,75,75
65700,note_off,120,0,10,,,,,,,,8,,,,80,64
65750,note_off,80,0,14,,,,,,,,13,,,,35,64
65750,note_off,80,0,15,,,,,,,,14,,,,35,64
65780,note_off,80,0,11,,,,,,,,10,,,,75,64
65780,note_off,80,0,10,,,,,,,,8,,,,78,64
65780,note_off,80,0,5,,,,,,,,3,,,,78,64
65780,note_off,80,0,6,,,,,,,,4,,,,75,64
65820,note_on,160,0,13,,,,,,,,12,,,,52,75
65820,note_on,160,0,7,,,,,,,,5,,,,59,75
65820,note_on,160,0,2,,,,,,,,0,,,,40,60
65820,note_on,160,0,12,,,,,,,,11,,,,59,75
65820,note_on,160,0,9,,,,,,,,7,,,,40,75
65820,note_on,40,0,10,,,,,,,,8,,,,80,75
65820,note_on,160,0,1,,,,,,,,0,,,,64,60
65820,note_on,0,0,1,,,,,,,,0,,,,68,60
65820,note_on,40,0,5,,,,,,,,3,,,,80,92
65820,note_on,160,0,8,,,,,,,,6,,,,52,75
65820,note_on,0,0,1,,,,,,,,0,,,,71,60
65820,note_on,0,0,2,,,,,,,,0,,,,52,60
65820,note_on,40,0,6,,,,,,,,4,,,,76,92
65820,note_on,40,0,11,,,,,,,,10,,,,76,75
65900,note_off,80,0,8,,,,,,,,6,,,,52,64
65900,note_off,80,0,2,,,,,,,,0,,,,52,64
65900,note_off,80,0,9,,,,,,,,7,,,,40,64
65900,note_off,0,0,2,,,,,,,,0,,,,40,64
65900,note_off,0,0,1,,,,,,,,0,,,,68,64
65900,note_off,80,0,13,,,,,,,,12,,,,52,64
65900,note_off,80,0,7,,,,,,,,5,,,,59,64
65900,note_off,0,0,1,,,,,,,,0,,,,64,64
65900,note_off,80,0,1,,,,,,,,0,,,,71,64
65900,note_off,80,0,12,,,,,,,,11,,,,59,64
65910,note_on,160,0,15,,,,,,,,14,,,,35,75
65910,note_on,160,0,14,,,,,,,,13,,,,35,75
65990,note_off,80,0,15,,,,,,,,14,,,,35,64
65990,note_off,80,0,14,,,,,,,,13,,,,35,64
66055,note_off,235,0,10,,,,,,,,8,,,,80,64
66055,note_off,235,0,6,,,,,,,,4,,,,76,64
66055,note_off,235,0,11,,,,,,,,10,,,,76,64
66055,note_off,235,0,5,,,,,,,,3,,,,80,64
66060,note_on,160,0,1,,,,,,,,0,,,,64,57
66060,note_on,0,0,1,,,,,,,,0,,,,68,57
66060,note_on,160,0,7,,,,,,,,5,,,,59,70
66060,note_on,5,0,11,,,,,,,,10,,,,75,70
66060,note_on,160,0,8,,,,,,,,6,,,,52,70
66060,note_on,5,0,6,,,,,,,,4,,,,75,87
66060,note_on,5,0,10,,,,,,,,8,,,,78,70
66060,note_on,160,0,12,,,,,,,,11,,,,59,70
66060,note_on,160,0,2,,,,,,,,0,,,,40,57
66060,note_on,160,0,9,,,,,,,,7,,,,40,70
66060,note_on,160,0,13,,,,,,,,12,,,,52,70
66060,note_on,5,0,5,,,,,,,,3,,,,78,87
66060,note_on,0,0,2,,,,,,,,0,,,,52,57
66060,note_on,0,0,1,,,,,,,,0,,,,71,57
66140,note_off,0,0,2,,,,,,,,0,,,,40,64
66140,note_off,80,0,2,,,,,,,,0,,,,52,64
66140,note_off,0,0,1,,,,,,,,0,,,,64,64
66140,note_off,80,0,12,,,,,,,,11,,,,59,64
66140,note_off,80,0,1,,,,,,,,0,,,,71,64
66140,note_off,80,0,8,,,,,,,,6,,,,52,64
66140,note_off,80,0,9,,,,,,,,7,,,,40,64
66140,note_off,80,0,7,,,,,,,,5,,,,59,64
66140,note_off,80,0,13,,,,,,,,12,,,,52,64
66140,note_off,0,0,1,,,,,,,,0,,,,68,64
66150,note_on,160,0,15,,,,,,,,14,,,,40,75
66150,note_on,160,0,14,,,,,,,,13,,,,40,75
66180,note_off,120,0,5,,,,,,,,3,,,,78,64
66180,note_off,120,0,10,,,,,,,,8,,,,78,64
66180,note_off,120,0,6,,,,,,,,4,,,,75,64
66180,note_on,0,0,6,,,,,,,,4,,,,73,84
66180,note_on,0,0,10,,,,,,,,8,,,,76,68
66180,note_on,0,0,11,,,,,,,,10,,,,73,68
66180,note_off,120,0,11,,,,,,,,10,,,,75,64
66180,note_on,0,0,5,,,,,,,,3,,,,76,84
66230,note_off,80,0,14,,,,,,,,13,,,,40,64
66230,note_off,80,0,15,,,,,,,,14,,,,40,64
66260,note_off,80,0,10,,,,,,,,8,,,,76,64
66260,note_off,80,0,5,,,,,,,,3,,,,76,64
66260,note_off,80,0,11,,,,,,,,10,,,,73,64
66260,note_off,80,0,6,,,,,,,,4,,,,73,64
66300,note_on,160,0,13,,,,,,,,12,,,,52,65
66300,note_on,0,0,2,,,,,,,,0,,,,52,54
66300,note_on,0,0,1,,,,,,,,0,,,,71,54
66300,note_on,0,0,1,,,,,,,,0,,,,68,54
66300,note_on,160,0,1,,,,,,,,0,,,,64,54
66300,note_on,160,0,7,,,,,,,,5,,,,59,65
66300,note_on,160,0,2,,,,,,,,0,,,,40,54
66300,note_on,160,0,9,,,,,,,,7,,,,40,65
66300,note_on,40,0,5,,,,,,,,3,,,,75,81
66300,note_on,160,0,12,,,,,,,,11,,,,59,65
66300,note_on,40,0,11,,,,,,,,10,,,,71,66
66300,note_on,40,0,10,,,,,,,,8,,,,75,66
66300,note_on,160,0,8,,,,,,,,6,,,,52,65
66300,note_on,40,0,6,,,,,,,,4,,,,71,81
66380,note_off,80,0,13,,,,,,,,12,,,,52,64
66380,note_off,0,0,1,,,,,,,,0,,,,64,64
66380,note_off,0,0,1,,,,,,,,0,,,,68,64
66380,note_off,80,0,1,,,,,,,,0,,,,71,64
66380,note_off,80,0,2,,,,,,,,0,,,,52,64
66380,note_off,0,0,2,,,,,,,,0,,,,40,64
66380,note_off,80,0,9,,,,,,,,7,,,,40,64
66380,note_off,80,0,7,,,,,,,,5,,,,59,64
66380,note_off,80,0,8,,,,,,,,6,,,,52,64
66380,note_off,80,0,12,,,,,,,,11,,,,59,64
66390,note_on,160,0,14,,,,,,,,13,,,,40,70
66390,note_on,160,0,15,,,,,,,,14,,,,40,70
66420,note_off,120,0,5,,,,,,,,3,,,,75,64
66420,note_on,0,0,5,,,,,,,,3,,,,73,78
66420,note_on,0,0,11,,,,,,,,10,,,,69,63
66420,note_off,120,0,6,,,,,,,,4,,,,71,64
66420,note_off,120,0,11,,,,,,,,10,,,,71,64
66420,note_on,0,0,10,,,,,,,,8,,,,73,63
66420,note_off,120,0,10,,,,,,,,8,,,,75,64
66420,note_on,0,0,6,,,,,,,,4,,,,69,78
66470,note_off,80,0,15,,,,,,,,14,,,,40,64
66470,note_off,80,0,14,,,,,,,,13,,,,40,64
66500,note_off,80,0,6,,,,,,,,4,,,,69,64
66500,note_off,80,0,10,,,,,,,,8,,,,73,64
66500,note_off,80,0,11,,,,,,,,10,,,,69,64
66500,note_off,80,0,5,,,,,,,,3,,,,73,64
66540,note_on,40,0,6,,,,,,,,4,,,,68,75
66540,note_on,160,0,12,,,,,,,,11,,,,59,60
66540,note_on,0,0,1,,,,,,,,0,,,,71,50
66540,note_on,0,0,1,,,,,,,,0,,,,68,50
66540,note_on,160,0,1,,,,,,,,0,,,,64,50
66540,note_on,160,0,2,,,,,,,,0,,,,40,50
66540,note_on,160,0,7,,,,,,,,5,,,,59,60
66540,note_on,160,0,8,,,,,,,,6,,,,52,60
66540,note_on,160,0,9,,,,,,,,7,,,,40,60
66540,note_on,40,0,10,,,,,,,,8,,,,71,60
66540,note_on,160,0,13,,,,,,,,12,,,,52,60
66540,note_on,40,0,11,,,,,,,,10,,,,68,60
66540,note_on,0,0,2,,,,,,,,0,,,,52,50
66540,note_on,40,0,5,,,,,,,,3,,,,71,75
66620,note_off,0,0,1,,,,,,,,0,,,,64,64
66620,note_off,80,0,12,,,,,,,,11,,,,59,64
66620,note_off,80,0,7,,,,,,,,5,,,,59,64
66620,note_off,80,0,2,,,,,,,,0,,,,52,64
66620,note_off,80,0,1,,,,,,,,0,,,,71,64
66620,note_off,80,0,8,,,,,,,,6,,,,52,64
66620,note_off,0,0,2,,,,,,,,0,,,,40,64
66620,note_off,80,0,13,,,,,,,,12,,,,52,64
66620,note_off,80,0,9,,,,,,,,7,,,,40,64
66620,note_off,0,0,1,,,,,,,,0,,,,68,64
66630,note_on,160,0,14,,,,,,,,13,,,,40,65
66630,note_on,160,0,15,,,,,,,,14,,,,40,65
66660,note_off,120,0,5,,,,,,,,3,,,,71,64
66660,note_on,0,0,6,,,,,,,,4,,,,66,72
66660,note_off,120,0,6,,,,,,,,4,,,,68,64
66660,note_on,0,0,5,,,,,,,,3,,,,69,72
66660,note_off,120,0,11,,,,,,,,10,,,,68,64
66660,note_off,120,0,10,,,,,,,,8,,,,71,64
66660,note_on,0,0,10,,,,,,,,8,,,,69,57
66660,note_on,0,0,11,,,,,,,,10,,,,66,57
66710,note_off,80,0,14,,,,,,,,13,,,,40,64
66710,note_off,80,0,15,,,,,,,,14,,,,40,64
66740,note_off,80,0,5,,,,,,,,3,,,,69,64
66740,note_off,80,0,11,,,,,,,,10,,,,66,64
66740,note_off,80,0,10,,,,,,,,8,,,,69,64
66740,note_off,80,0,6,,,,,,,,4,,,,66,64
66780,note_on,160,0,9,,,,,,,,7,,,,40,54
66780,note_on,40,0,5,,,,,,,,3,,,,68,69
66780,note_on,160,0,13,,,,,,,,12,,,,52,54
66780,note_on,40,0,6,,,,,,,,4,,,,64,69
66780,note_on,0,0,1,,,,,,,,0,,,,71,46
66780,note_on,160,0,2,,,,,,,,0,,,,40,46
66780,note_on,40,0,10,,,,,,,,8,,,,68,54
66780,note_on,160,0,12,,,,,,,,11,,,,59,54
66780,note_on,160,0,8,,,,,,,,6,,,,52,54
66780,note_on,40,0,11,,,,,,,,10,,,,64,54
66780,note_on,160,0,1,,,,,,,,0,,,,64,46
66780,note_on,160,0,7,,,,,,,,5,,,,59,54
66780,note_on,0,0,1,,,,,,,,0,,,,68,46
66780,note_on,0,0,2,,,,,,,,0,,,,52,46
66860,note_off,80,0,2,,,,,,,,0,,,,52,64
66860,note_off,0,0,2,,,,,,,,0,,,,40,64
66860,note_off,80,0,8,,,,,,,,6,,,,52,64
66860,note_off,80,0,12,,,,,,,,11,,,,59,64
66860,note_off,80,0,13,,,,,,,,12,,,,52,64
66860,note_off,80,0,9,,,,,,,,7,,,,40,64
66860,note_off,80,0,7,,,,,,,,5,,,,59,64
66860,note_off,80,0,1,,,,,,,,0,,,,71,64
66860,note_off,0,0,1,,,,,,,,0,,,,68,64
66860,note_off,0,0,1,,,,,,,,0,,,,64,64
66870,note_on,160,0,14,,,,,,,,13,,,,40,60
66870,note_on,160,0,15,,,,,,,,14,,,,40,60
66900,note_off,120,0,11,,,,,,,,10,,,,64,64
66900,note_off,120,0,10,,,,,,,,8,,,,68,64
66900,note_on,0,0,10,,,,,,,,8,,,,69,51
66900,note_off,120,0,6,,,,,,,,4,,,,64,64
66900,note_on,0,0,11,,,,,,,,10,,,,66,51
66900,note_off,120,0,5,,,,,,,,3,,,,68,64
66900,note_on,0,0,5,,,,,,,,3,,,,69,66
66900,note_on,0,0,6,,,,,,,,4,,,,66,66
66950,note_off,80,0,14,,,,,,,,13,,,,40,64
66950,note_off,80,0,15,,,,,,,,14,,,,40,64
66980,note_off,80,0,10,,,,,,,,8,,,,69,64
66980,note_off,80,0,5,,,,,,,,3,,,,69,64
66980,note_off,80,0,11,,,,,,,,10,,,,66,64
66980,note_off,80,0,6,,,,,,,,4,,,,66,64
67020,note_on,40,0,11,,,,,,,,10,,,,64,48
67020,note_on,160,0,13,,,,,,,,12,,,,52,48
67020,note_on,40,0,10,,,,,,,,8,,,,68,48
67020,note_on,0,0,1,,,,,,,,0,,,,71,42
67020,note_on,40,0,6,,,,,,,,4,,,,64,63
67020,note_on,160,0,8,,,,,,,,6,,,,52,48
67020,note_on,40,0,5,,,,,,,,3,,,,68,63
67020,note_on,160,0,12,,,,,,,,11,,,,59,48
67020,note_on,0,0,1,,,,,,,,0,,,,68,42
67020,note_on,0,0,2,,,,,,,,0,,,,52,42
67020,note_on,160,0,1,,,,,,,,0,,,,64,42
67020,note_on,160,0,9,,,,,,,,7,,,,40,48
67020,note_on,160,0,2,,,,,,,,0,,,,40,42
67020,note_on,160,0,7,,,,,,,,5,,,,59,48
67100,note_off,80,0,2,,,,,,,,0,,,,52,64
67100,note_off,0,0,1,,,,,,,,0,,,,64,64
67100,note_off,0,0,1,,,,,,,,0,,,,68,64
67100,note_off,80,0,1,,,,,,,,0,,,,71,64
67100,note_off,80,0,7,,,,,,,,5,,,,59,64
67100,note_off,80,0,9,,,,,,,,7,,,,40,64
67100,note_off,80,0,13,,,,,,,,12,,,,52,64
67100,note_off,80,0,12,,,,,,,,11,,,,59,64
67100,note_off,80,0,8,,,,,,,,6,,,,52,64
67100,note_off,0,0,2,,,,,,,,0,,,,40,64
67110,note_on,160,0,15,,,,,,,,14,,,,40,54
67110,note_on,160,0,14,,,,,,,,13,,,,40,54
67140,note_on,0,0,5,,,,,,,,3,,,,69,60
67140,note_on,0,0,10,,,,,,,,8,,,,69,45
67140,note_off,120,0,10,,,,,,,,8,,,,68,64
67140,note_on,0,0,6,,,,,,,,4,,,,66,60
67140,note_off,120,0,5,,,,,,,,3,,,,68,64
67140,note_off,120,0,6,,,,,,,,4,,,,64,64
67140,note_on,0,0,11,,,,,,,,10,,,,66,45
67140,note_off,120,0,11,,,,,,,,10,,,,64,64
67190,note_off,80,0,14,,,,,,,,13,,,,40,64
67190,note_off,80,0,15,,,,,,,,14,,,,40,64
67220,note_off,80,0,5,,,,,,,,3,,,,69,64
67220,note_off,80,0,10,,,,,,,,8,,,,69,64
67220,note_off,80,0,6,,,,,,,,4,,,,66,64
67220,note_off,80,0,11,,,,,,,,10,,,,66,64
67260,note_on,160,0,13,,,,,,,,12,,,,52,42
67260,note_on,160,0,7,,,,,,,,5,,,,59,42
67260,note_on,160,0,1,,,,,,,,0,,,,64,38
67260,note_on,40,0,10,,,,,,,,8,,,,71,42
67260,note_on,0,0,1,,,,,,,,0,,,,71,38
67260,note_on,0,0,1,,,,,,,,0,,,,68,38
67260,note_on,40,0,6,,,,,,,,4,,,,68,57
67260,note_on,160,0,12,,,,,,,,11,,,,59,42
67260,note_on,160,0,2,,,,,,,,0,,,,40,38
67260,note_on,40,0,5,,,,,,,,3,,,,71,57
67260,note_on,160,0,8,,,,,,,,6,,,,52,42
67260,note_on,160,0,9,,,,,,,,7,,,,40,42
67260,note_on,0,0,2,,,,,,,,0,,,,52,38
67260,note_on,40,0,11,,,,,,,,10,,,,68,42
67340,note_off,0,0,2,,,,,,,,0,,,,40,64
67340,note_off,80,0,1,,,,,,,,0,,,,71,64
67340,note_off,0,0,1,,,,,,,,0,,,,68,64
67340,note_off,0,0,1,,,,,,,,0,,,,64,64
67340,note_off,80,0,8,,,,,,,,6,,,,52,64
67340,note_off,80,0,13,,,,,,,,12,,,,52,64
67340,note_off,80,0,2,,,,,,,,0,,,,52,64
67340,note_off,80,0,12,,,,,,,,11,,,,59,64
67340,note_off,80,0,9,,,,,,,,7,,,,40,64
67340,note_off,80,0,7,,,,,,,,5,,,,59,64
67350,note_on,160,0,15,,,,,,,,14,,,,40,48
67350,note_on,160,0,14,,,,,,,,13,,,,40,48
67380,note_off,120,0,11,,,,,,,,10,,,,68,64
67380,note_on,0,0,5,,,,,,,,3,,,,69,54
67380,note_off,120,0,5,,,,,,,,3,,,,71,64
67380,note_off,120,0,6,,,,,,,,4,,,,68,64
67380,note_on,0,0,11,,,,,,,,10,,,,66,39
67380,note_off,120,0,10,,,,,,,,8,,,,71,64
67380,note_on,0,0,10,,,,,,,,8,,,,69,39
67380,note_on,0,0,6,,,,,,,,4,,,,66,54
67430,note_off,80,0,14,,,,,,,,13,,,,40,64
67430,note_off,80,0,15,,,,,,,,14,,,,40,64
67460,note_off,80,0,11,,,,,,,,10,,,,66,64
67460,note_off,80,0,5,,,,,,,,3,,,,69,64
67460,note_off,80,0,10,,,,,,,,8,,,,69,64
67460,note_off,80,0,6,,,,,,,,4,,,,66,64
67500,note_on,0,0,1,,,,,,,,0,,,,68,34
67500,note_on,160,0,7,,,,,,,,5,,,,59,36
67500,note_on,40,0,6,,,,,,,,4,,,,68,51
67500,note_on,160,0,13,,,,,,,,12,,,,52,36
67500,note_on,160,0,9,,,,,,,,7,,,,40,36
67500,note_on,40,0,10,,,,,,,,8,,,,71,36
67500,note_on,160,0,1,,,,,,,,0,,,,64,34
67500,note_on,40,0,11,,,,,,,,10,,,,68,36
67500,note_on,40,0,5,,,,,,,,3,,,,71,51
67500,note_on,160,0,12,,,,,,,,11,,,,59,36
67500,note_on,160,0,2,,,,,,,,0,,,,40,34
67500,note_on,160,0,8,,,,,,,,6,,,,52,36
67500,note_on,0,0,1,,,,,,,,0,,,,71,34
67500,note_on,0,0,2,,,,,,,,0,,,,52,34
67580,note_off,0,0,2,,,,,,,,0,,,,40,64
67580,note_off,80,0,2,,,,,,,,0,,,,52,64
67580,note_off,80,0,13,,,,,,,,12,,,,52,64
67580,note_off,80,0,8,,,,,,,,6,,,,52,64
67580,note_off,0,0,1,,,,,,,,0,,,,64,64
67580,note_off,0,0,1,,,,,,,,0,,,,68,64
67580,note_off,80,0,1,,,,,,,,0,,,,71,64
67580,note_off,80,0,9,,,,,,,,7,,,,40,64
67580,note_off,80,0,7,,,,,,,,5,,,,59,64
67580,note_off,80,0,12,,,,,,,,11,,,,59,64
67590,note_on,160,0,14,,,,,,,,13,,,,40,42
67590,note_on,160,0,15,,,,,,,,14,,,,40,42
67620,note_off,120,0,6,,,,,,,,4,,,,68,64
67620,note_on,0,0,11,,,,,,,,10,,,,66,33
67620,note_off,120,0,11,,,,,,,,10,,,,68,64
67620,note_on,0,0,6,,,,,,,,4,,,,66,48
67620,note_on,0,0,5,,,,,,,,3,,,,69,48
67620,note_off,120,0,10,,,,,,,,8,,,,71,64
67620,note_on,0,0,10,,,,,,,,8,,,,69,33
67620,note_off,120,0,5,,,,,,,,3,,,,71,64
67670,note_off,80,0,14,,,,,,,,13,,,,40,64
67670,note_off,80,0,15,,,,,,,,14,,,,40,64
67700,note_off,80,0,6,,,,,,,,4,,,,66,64
67700,note_off,80,0,5,,,,,,,,3,,,,69,64
67700,note_off,80,0,11,,,,,,,,10,,,,66,64
67700,note_off,80,0,10,,,,,,,,8,,,,69,64
67740,note_on,40,0,6,,,,,,,,4,,,,64,45
67740,note_on,160,0,7,,,,,,,,5,,,,59,30
67740,note_on,0,0,1,,,,,,,,0,,,,71,30
67740,note_on,40,0,10,,,,,,,,8,,,,68,30
67740,note_on,0,0,1,,,,,,,,0,,,,68,30
67740,note_on,160,0,1,,,,,,,,0,,,,64,30
67740,note_on,160,0,9,,,,,,,,7,,,,40,30
67740,note_on,160,0,12,,,,,,,,11,,,,59,30
67740,note_on,160,0,13,,,,,,,,12,,,,52,30
67740,note_on,0,0,2,,,,,,,,0,,,,52,30
67740,note_on,40,0,5,,,,,,,,3,,,,68,45
67740,note_on,160,0,8,,,,,,,,6,,,,52,30
67740,note_on,160,0,2,,,,,,,,0,,,,40,30
67740,note_on,40,0,11,,,,,,,,10,,,,64,30
67820,note_off,0,0,1,,,,,,,,0,,,,68,64
67820,note_off,0,0,2,,,,,,,,0,,,,40,64
67820,note_off,80,0,12,,,,,,,,11,,,,59,64
67820,note_off,80,0,2,,,,,,,,0,,,,52,64
67820,note_off,0,0,1,,,,,,,,0,,,,64,64
67820,note_off,80,0,1,,,,,,,,0,,,,71,64
67820,note_off,80,0,7,,,,,,,,5,,,,59,64
67820,note_off,80,0,13,,,,,,,,12,,,,52,64
67820,note_off,80,0,9,,,,,,,,7,,,,40,64
67820,note_off,80,0,8,,,,,,,,6,,,,52,64
67830,note_on,160,0,15,,,,,,,,14,,,,40,36
67830,note_on,160,0,14,,,,,,,,13,,,,40,36
67860,note_off,120,0,11,,,,,,,,10,,,,64,64
67860,note_on,0,0,10,,,,,,,,8,,,,69,30
67860,note_off,120,0,10,,,,,,,,8,,,,68,64
67860,note_on,0,0,11,,,,,,,,10,,,,66,30
67860,note_off,120,0,6,,,,,,,,4,,,,64,64
67860,note_off,120,0,5,,,,,,,,3,,,,68,64
67860,note_on,0,0,6,,,,,,,,4,,,,66,45
67860,note_on,0,0,5,,,,,,,,3,,,,69,45
67910,note_off,80,0,15,,,,,,,,14,,,,40,64
67910,note_off,80,0,14,,,,,,,,13,,,,40,64
67940,note_off,80,0,10,,,,,,,,8,,,,69,64
67940,note_off,80,0,6,,,,,,,,4,,,,66,64
67940,note_off,80,0,11,,,,,,,,10,,,,66,64
67940,note_off,80,0,5,,,,,,,,3,,,,69,64
67980,note_on,0,0,2,,,,,,,,0,,,,52,30
67980,note_on,0,0,1,,,,,,,,0,,,,68,30
67980,note_on,160,0,8,,,,,,,,6,,,,52,30
67980,note_on,160,0,1,,,,,,,,0,,,,64,30
67980,note_on,160,0,9,,,,,,,,7,,,,40,30
67980,note_on,160,0,12,,,,,,,,11,,,,59,30
67980,note_on,40,0,5,,,,,,,,3,,,,68,45
67980,note_on,0,0,1,,,,,,,,0,,,,71,30
67980,note_on,160,0,2,,,,,,,,0,,,,40,30
67980,note_on,40,0,11,,,,,,,,10,,,,64,30
67980,note_on,40,0,6,,,,,,,,4,,,,64,45
67980,note_on,160,0,7,,,,,,,,5,,,,59,30
67980,note_on,40,0,10,,,,,,,,8,,,,68,30
67980,note_on,160,0,13,,,,,,,,12,,,,52,30
68060,note_off,80,0,9,,,,,,,,7,,,,40,64
68060,note_off,80,0,2,,,,,,,,0,,,,52,64
68060,note_off,80,0,8,,,,,,,,6,,,,52,64
68060,note_off,0,0,1,,,,,,,,0,,,,64,64
68060,note_off,80,0,12,,,,,,,,11,,,,59,64
68060,note_off,80,0,7,,,,,,,,5,,,,59,64
68060,note_off,80,0,1,,,,,,,,0,,,,71,64
68060,note_off,0,0,1,,,,,,,,0,,,,68,64
68060,note_off,80,0,13,,,,,,,,12,,,,52,64
68060,note_off,0,0,2,,,,,,,,0,,,,40,64
68070,note_on,160,0,14,,,,,,,,13,,,,40,30
68070,note_on,160,0,15,,,,,,,,14,,,,40,30
68100,note_off,120,0,5,,,,,,,,3,,,,68,64
68100,note_on,0,0,5,,,,,,,,3,,,,69,45
68100,note_on,0,0,6,,,,,,,,4,,,,66,45
68100,note_off,120,0,6,,,,,,,,4,,,,64,64
68100,note_on,0,0,11,,,,,,,,10,,,,66,30
68100,note_off,120,0,11,,,,,,,,10,,,,64,64
68100,note_off,120,0,10,,,,,,,,8,,,,68,64
68100,note_on,0,0,10,,,,,,,,8,,,,69,30
68150,note_off,80,0,14,,,,,,,,13,,,,40,64
68150,note_off,80,0,15,,,,,,,,14,,,,40,64
68180,note_off,80,0,11,,,,,,,,10,,,,66,64
68180,note_off,80,0,10,,,,,,,,8,,,,69,64
68180,note_off,80,0,5,,,,,,,,3,,,,69,64
68180,note_off,80,0,6,,,,,,,,4,,,,66,64
68220,note_on,160,0,9,,,,,,,,7,,,,40,30
68220,note_on,0,0,2,,,,,,,,0,,,,52,30
68220,note_on,160,0,12,,,,,,,,11,,,,59,30
68220,note_on,0,0,1,,,,,,,,0,,,,71,30
68220,note_on,160,0,1,,,,,,,,0,,,,64,30
68220,note_on,40,0,5,,,,,,,,3,,,,71,45
68220,note_on,160,0,7,,,,,,,,5,,,,59,30
68220,note_on,40,0,6,,,,,,,,4,,,,68,45
68220,note_on,160,0,8,,,,,,,,6,,,,52,30
68220,note_on,160,0,13,,,,,,,,12,,,,52,30
68220,note_on,160,0,2,,,,,,,,0,,,,40,30
68220,note_on,40,0,10,,,,,,,,8,,,,71,30
68220,note_on,0,0,1,,,,,,,,0,,,,68,30
68220,note_on,40,0,11,,,,,,,,10,,,,68,30
68300,note_off,80,0,12,,,,,,,,11,,,,59,64
68300,note_off,80,0,8,,,,,,,,6,,,,52,64
68300,note_off,80,0,1,,,,,,,,0,,,,71,64
68300,note_off,0,0,2,,,,,,,,0,,,,40,64
68300,note_off,80,0,9,,,,,,,,7,,,,40,64
68300,note_off,0,0,1,,,,,,,,0,,,,64,64
68300,note_off,0,0,1,,,,,,,,0,,,,68,64
68300,note_off,80,0,13,,,,,,,,12,,,,52,64
68300,note_off,80,0,7,,,,,,,,5,,,,59,64
68300,note_off,80,0,2,,,,,,,,0,,,,52,64
68310,note_on,160,0,15,,,,,,,,14,,,,40,30
68310,note_on,160,0,14,,,,,,,,13,,,,40,30
68340,note_on,0,0,11,,,,,,,,10,,,,66,30
68340,note_off,120,0,11,,,,,,,,10,,,,68,64
68340,note_off,120,0,10,,,,,,,,8,,,,71,64
68340,note_on,0,0,10,,,,,,,,8,,,,69,30
68340,note_off,120,0,5,,,,,,,,3,,,,71,64
68340,note_on,0,0,5,,,,,,,,3,,,,69,45
68340,note_on,0,0,6,,,,,,,,4,,,,66,45
68340,note_off,120,0,6,,,,,,,,4,,,,68,64
68390,note_off,80,0,14,,,,,,,,13,,,,40,64
68390,note_off,80,0,15,,,,,,,,14,,,,40,64
68420,note_off,80,0,6,,,,,,,,4,,,,66,64
68420,note_off,80,0,11,,,,,,,,10,,,,66,64
68420,note_off,80,0,5,,,,,,,,3,,,,69,64
68420,note_off,80,0,10,,,,,,,,8,,,,69,64
68460,note_on,160,0,12,,,,,,,,11,,,,59,30
68460,note_on,160,0,8,,,,,,,,6,,,,52,30
68460,note_on,40,0,6,,,,,,,,4,,,,68,45
68460,note_on,160,0,9,,,,,,,,7,,,,40,30
68460,note_on,160,0,2,,,,,,,,0,,,,40,30
68460,note_on,0,0,2,,,,,,,,0,,,,52,30
68460,note_on,40,0,5,,,,,,,,3,,,,71,45
68460,note_on,160,0,13,,,,,,,,12,,,,52,30
68460,note_on,0,0,1,,,,,,,,0,,,,71,30
68460,note_on,40,0,11,,,,,,,,10,,,,68,30
68460,note_on,0,0,1,,,,,,,,0,,,,68,30
68460,note_on,160,0,1,,,,,,,,0,,,,64,30
68460,note_on,160,0,7,,,,,,,,5,,,,59,30
68460,note_on,40,0,10,,,,,,,,8,,,,71,30
68540,note_off,80,0,9,,,,,,,,7,,,,40,64
68540,note_off,80,0,13,,,,,,,,12,,,,52,64
68540,note_off,0,0,2,,,,,,,,0,,,,40,64
68540,note_off,80,0,2,,,,,,,,0,,,,52,64
68540,note_off,80,0,12,,,,,,,,11,,,,59,64
68540,note_off,0,0,1,,,,,,,,0,,,,68,64
68540,note_off,80,0,1,,,,,,,,0,,,,71,64
68540,note_off,80,0,7,,,,,,,,5,,,,59,64
68540,note_off,80,0,8,,,,,,,,6,,,,52,64
68540,note_off,0,0,1,,,,,,,,0,,,,64,64
68550,note_on,160,0,14,,,,,,,,13,,,,40,30
68550,note_on,160,0,15,,,,,,,,14,,,,40,30
68580,note_on,0,0,11,,,,,,,,10,,,,66,30
68580,note_on,0,0,5,,,,,,,,3,,,,69,45
68580,note_off,120,0,5,,,,,,,,3,,,,71,64
68580,note_on,0,0,10,,,,,,,,8,,,,69,30
68580,note_off,120,0,11,,,,,,,,10,,,,68,64
68580,note_off,120,0,10,,,,,,,,8,,,,71,64
68580,note_off,120,0,6,,,,,,,,4,,,,68,64
68580,note_on,0,0,6,,,,,,,,4,,,,66,45
68630,note_off,80,0,14,,,,,,,,13,,,,40,64
68630,note_off,80,0,15,,,,,,,,14,,,,40,64
68660,note_off,80,0,10,,,,,,,,8,,,,69,64
68660,note_off,80,0,11,,,,,,,,10,,,,66,64
68660,note_off,80,0,5,,,,,,,,3,,,,69,64
68660,note_off,80,0,6,,,,,,,,4,,,,66,64
68700,note_on,40,0,11,,,,,,,,10,,,,64,30
68700,note_on,40,0,5,,,,,,,,3,,,,68,45
68700,note_on,40,0,6,,,,,,,,4,,,,64,45
68700,note_on,160,0,12,,,,,,,,11,,,,59,30
68700,note_on,160,0,7,,,,,,,,5,,,,59,30
68700,note_on,160,0,8,,,,,,,,6,,,,52,30
68700,note_on,160,0,1,,,,,,,,0,,,,64,30
68700,note_on,160,0,2,,,,,,,,0,,,,40,30
68700,note_on,0,0,2,,,,,,,,0,,,,52,30
68700,note_on,0,0,1,,,,,,,,0,,,,71,30
68700,note_on,160,0,13,,,,,,,,12,,,,52,30
68700,note_on,0,0,1,,,,,,,,0,,,,68,30
68700,note_on,40,0,10,,,,,,,,8,,,,68,30
68700,note_on,160,0,9,,,,,,,,7,,,,40,30
68780,note_off,80,0,13,,,,,,,,12,,,,52,64
68780,note_off,80,0,7,,,,,,,,5,,,,59,64
68780,note_off,80,0,12,,,,,,,,11,,,,59,64
68780,note_off,80,0,2,,,,,,,,0,,,,52,64
68780,note_off,0,0,1,,,,,,,,0,,,,64,64
68780,note_off,0,0,1,,,,,,,,0,,,,68,64
68780,note_off,80,0,8,,,,,,,,6,,,,52,64
68780,note_off,80,0,9,,,,,,,,7,,,,40,64
68780,note_off,0,0,2,,,,,,,,0,,,,40,64
68780,note_off,80,0,1,,,,,,,,0,,,,71,64
68790,note_on,160,0,15,,,,,,,,14,,,,40,30
68790,note_on,160,0,14,,,,,,,,13,,,,40,30
68820,note_on,0,0,6,,,,,,,,4,,,,66,45
68820,note_on,0,0,10,,,,,,,,8,,,,69,30
68820,note_off,120,0,10,,,,,,,,8,,,,68,64
68820,note_off,120,0,6,,,,,,,,4,,,,64,64
68820,note_on,0,0,11,,,,,,,,10,,,,66,30
68820,note_off,120,0,11,,,,,,,,10,,,,64,64
68820,note_off,120,0,5,,,,,,,,3,,,,68,64
68820,note_on,0,0,5,,,,,,,,3,,,,69,45
68870,note_off,80,0,15,,,,,,,,14,,,,40,64
68870,note_off,80,0,14,,,,,,,,13,,,,40,64
68900,note_off,80,0,5,,,,,,,,3,,,,69,64
68900,note_off,80,0,11,,,,,,,,10,,,,66,64
68900,note_off,80,0,10,,,,,,,,8,,,,69,64
68900,note_off,80,0,6,,,,,,,,4,,,,66,64
68940,note_on,40,0,5,,,,,,,,3,,,,68,45
68940,note_on,160,0,12,,,,,,,,11,,,,59,30
68940,note_on,160,0,2,,,,,,,,0,,,,40,30
68940,note_on,0,0,2,,,,,,,,0,,,,52,30
68940,note_on,160,0,9,,,,,,,,7,,,,40,30
68940,note_on,160,0,13,,,,,,,,12,,,,52,30
68940,note_on,40,0,6,,,,,,,,4,,,,64,45
68940,note_on,160,0,1,,,,,,,,0,,,,64,30
68940,note_on,40,0,10,,,,,,,,8,,,,68,30
68940,note_on,160,0,7,,,,,,,,5,,,,59,30
68940,note_on,40,0,11,,,,,,,,10,,,,64,30
68940,note_on,0,0,1,,,,,,,,0,,,,68,30
68940,note_on,0,0,1,,,,,,,,0,,,,71,30
68940,note_on,160,0,8,,,,,,,,6,,,,52,30
69020,note_off,80,0,7,,,,,,,,5,,,,59,64
69020,note_off,0,0,2,,,,,,,,0,,,,40,64
69020,note_off,80,0,2,,,,,,,,0,,,,52,64
69020,note_off,80,0,9,,,,,,,,7,,,,40,64
69020,note_off,80,0,1,,,,,,,,0,,,,71,64
69020,note_off,0,0,1,,,,,,,,0,,,,68,64
69020,note_off,0,0,1,,,,,,,,0,,,,64,64
69020,note_off,80,0,12,,,,,,,,11,,,,59,64
69020,note_off,80,0,13,,,,,,,,12,,,,52,64
69020,note_off,80,0,8,,,,,,,,6,,,,52,64
69030,note_on,160,0,15,,,,,,,,14,,,,40,30
69030,note_on,160,0,14,,,,,,,,13,,,,40,30
69060,note_on,0,0,10,,,,,,,,8,,,,69,30
69060,note_on,0,0,5,,,,,,,,3,,,,69,45
69060,note_off,120,0,5,,,,,,,,3,,,,68,64
69060,note_on,0,0,11,,,,,,,,10,,,,66,30
69060,note_off,120,0,11,,,,,,,,10,,,,64,64
69060,note_off,120,0,6,,,,,,,,4,,,,64,64
69060,note_on,0,0,6,,,,,,,,4,,,,66,45
69060,note_off,120,0,10,,,,,,,,8,,,,68,64
69110,note_off,80,0,15,,,,,,,,14,,,,40,64
69110,note_off,80,0,14,,,,,,,,13,,,,40,64
69140,note_off,80,0,6,,,,,,,,4,,,,66,64
69140,note_off,80,0,10,,,,,,,,8,,,,69,64
69140,note_off,80,0,5,,,,,,,,3,,,,69,64
69140,note_off,80,0,11,,,,,,,,10,,,,66,64
69180,note_on,160,0,12,,,,,,,,11,,,,59,30
69180,note_on,160,0,8,,,,,,,,6,,,,52,30
69180,note_on,40,0,6,,,,,,,,4,,,,68,45
69180,note_on,0,0,1,,,,,,,,0,,,,71,30
69180,note_on,0,0,1,,,,,,,,0,,,,68,30
69180,note_on,160,0,1,,,,,,,,0,,,,64,30
69180,note_on,40,0,5,,,,,,,,3,,,,71,45
69180,note_on,0,0,2,,,,,,,,0,,,,52,30
69180,note_on,160,0,2,,,,,,,,0,,,,40,30
69180,note_on,40,0,10,,,,,,,,8,,,,71,30
69180,note_on,160,0,7,,,,,,,,5,,,,59,30
69180,note_on,160,0,9,,,,,,,,7,,,,40,30
69180,note_on,40,0,11,,,,,,,,10,,,,68,30
69180,note_on,160,0,13,,,,,,,,12,,,,52,30
69260,note_off,0,0,2,,,,,,,,0,,,,40,64
69260,note_off,80,0,9,,,,,,,,7,,,,40,64
69260,note_off,80,0,7,,,,,,,,5,,,,59,64
69260,note_off,80,0,2,,,,,,,,0,,,,52,64
69260,note_off,80,0,8,,,,,,,,6,,,,52,64
69260,note_off,0,0,1,,,,,,,,0,,,,64,64
69260,note_off,80,0,12,,,,,,,,11,,,,59,64
69260,note_off,80,0,1,,,,,,,,0,,,,71,64
69260,note_off,80,0,13,,,,,,,,12,,,,52,64
69260,note_off,0,0,1,,,,,,,,0,,,,68,64
69270,note_on,160,0,15,,,,,,,,14,,,,40,30
69270,note_on,160,0,14,,,,,,,,13,,,,40,30
69300,note_on,0,0,6,,,,,,,,4,,,,66,45
69300,note_on,0,0,10,,,,,,,,8,,,,69,30
69300,note_off,120,0,10,,,,,,,,8,,,,71,64
69300,note_off,120,0,11,,,,,,,,10,,,,68,64
69300,note_off,120,0,5,,,,,,,,3,,,,71,64
69300,note_on,0,0,5,,,,,,,,3,,,,69,45
69300,note_on,0,0,11,,,,,,,,10,,,,66,30
69300,note_off,120,0,6,,,,,,,,4,,,,68,64
69350,note_off,80,0,14,,,,,,,,13,,,,40,64
69350,note_off,80,0,15,,,,,,,,14,,,,40,64
69380,note_off,80,0,6,,,,,,,,4,,,,66,64
69380,note_off,80,0,10,,,,,,,,8,,,,69,64
69380,note_off,80,0,11,,,,,,,,10,,,,66,64
69380,note_off,80,0,5,,,,,,,,3,,,,69,64
69420,note_on,0,0,1,,,,,,,,0,,,,68,30
69420,note_on,40,0,11,,,,,,,,10,,,,68,30
69420,note_on,160,0,12,,,,,,,,11,,,,59,30
69420,note_on,40,0,5,,,,,,,,3,,,,71,45
69420,note_on,160,0,7,,,,,,,,5,,,,59,30
69420,note_on,160,0,2,,,,,,,,0,,,,40,30
69420,note_on,160,0,1,,,,,,,,0,,,,64,30
69420,note_on,0,0,2,,,,,,,,0,,,,52,30
69420,note_on,40,0,6,,,,,,,,4,,,,68,45
69420,note_on,160,0,13,,,,,,,,12,,,,52,30
69420,note_on,0,0,1,,,,,,,,0,,,,71,30
69420,note_on,160,0,8,,,,,,,,6,,,,52,30
69420,note_on,160,0,9,,,,,,,,7,,,,40,30
69420,note_on,40,0,10,,,,,,,,8,,,,71,30
69500,note_off,80,0,2,,,,,,,,0,,,,52,64
69500,note_off,0,0,2,,,,,,,,0,,,,40,64
69500,note_off,0,0,1,,,,,,,,0,,,,68,64
69500,note_off,80,0,8,,,,,,,,6,,,,52,64
69500,note_off,80,0,7,,,,,,,,5,,,,59,64
69500,note_off,0,0,1,,,,,,,,0,,,,64,64
69500,note_off,80,0,12,,,,,,,,11,,,,59,64
69500,note_off,80,0,13,,,,,,,,12,,,,52,64
69500,note_off,80,0,1,,,,,,,,0,,,,71,64
69500,note_off,80,0,9,,,,,,,,7,,,,40,64
69510,note_on,160,0,14,,,,,,,,13,,,,40,30
69510,note_on,160,0,15,,,,,,,,14,,,,40,30
69540,note_off,120,0,5,,,,,,,,3,,,,71,64
69540,note_off,120,0,6,,,,,,,,4,,,,68,64
69540,note_on,0,0,10,,,,,,,,8,,,,69,30
69540,note_on,0,0,11,,,,,,,,10,,,,66,30
69540,note_off,120,0,11,,,,,,,,10,,,,68,64
69540,note_off,120,0,10,,,,,,,,8,,,,71,64
69540,note_on,0,0,6,,,,,,,,4,,,,66,45
69540,note_on,0,0,5,,,,,,,,3,,,,69,45
69590,note_off,80,0,14,,,,,,,,13,,,,40,64
69590,note_off,80,0,15,,,,,,,,14,,,,40,64
69620,note_off,80,0,6,,,,,,,,4,,,,66,64
69620,note_off,80,0,10,,,,,,,,8,,,,69,64
69620,note_off,80,0,11,,,,,,,,10,,,,66,64
69620,note_off,80,0,5,,,,,,,,3,,,,69,64
69660,note_on,40,0,11,,,,,,,,10,,,,64,30
69660,note_on,160,0,9,,,,,,,,7,,,,40,30
69660,note_on,160,0,8,,,,,,,,6,,,,52,30
69660,note_on,40,0,5,,,,,,,,3,,,,68,45
69660,note_on,160,0,13,,,,,,,,12,,,,52,30
69660,note_on,160,0,7,,,,,,,,5,,,,59,30
69660,note_on,40,0,6,,,,,,,,4,,,,64,45
69660,note_on,160,0,12,,,,,,,,11,,,,59,30
69660,note_on,0,0,2,,,,,,,,0,,,,47,30
69660,note_on,0,0,2,,,,,,,,0,,,,52,30
69660,note_on,40,0,10,,,,,,,,8,,,,68,30
69660,note_on,160,0,2,,,,,,,,0,,,,35,30
69740,note_off,80,0,2,,,,,,,,0,,,,52,64
69740,note_off,0,0,2,,,,,,,,0,,,,47,64
69740,note_off,0,0,2,,,,,,,,0,,,,35,64
69750,note_on,160,0,15,,,,,,,,14,,,,40,30
69750,note_on,160,0,14,,,,,,,,13,,,,40,30
69780,note_off,120,0,8,,,,,,,,6,,,,52,64
69780,note_off,120,0,13,,,,,,,,12,,,,52,64
69780,note_on,0,0,8,,,,,,,,6,,,,47,30
69780,note_on,0,0,13,,,,,,,,12,,,,47,30
69780,note_off,120,0,9,,,,,,,,7,,,,40,64
69780,note_on,0,0,9,,,,,,,,7,,,,35,30
69830,note_off,80,0,15,,,,,,,,14,,,,40,64
69830,note_off,80,0,14,,,,,,,,13,,,,40,64
69900,note_on,0,0,2,,,,,,,,0,,,,52,30
69900,note_on,0,0,8,,,,,,,,6,,,,52,30
69900,note_off,120,0,8,,,,,,,,6,,,,47,64
69900,note_on,0,0,9,,,,,,,,7,,,,40,30
69900,note_off,120,0,13,,,,,,,,12,,,,47,64
69900,note_on,0,0,13,,,,,,,,12,,,,52,30
69900,note_off,120,0,9,,,,,,,,7,,,,35,64
69900,note_on,160,0,2,,,,,,,,0,,,,35,30
69900,note_on,0,0,2,,,,,,,,0,,,,47,30
69980,note_off,0,0,2,,,,,,,,0,,,,35,64
69980,note_off,0,0,2,,,,,,,,0,,,,47,64
69980,note_off,80,0,2,,,,,,,,0,,,,52,64
69990,note_on,160,0,15,,,,,,,,14,,,,40,30
69990,note_on,160,0,14,,,,,,,,13,,,,40,30
70020,note_on,0,0,13,,,,,,,,12,,,,47,30
70020,note_off,120,0,8,,,,,,,,6,,,,52,64
70020,note_off,120,0,13,,,,,,,,12,,,,52,64
70020,note_on,0,0,9,,,,,,,,7,,,,35,30
70020,note_off,120,0,9,,,,,,,,7,,,,40,64
70020,note_on,0,0,8,,,,,,,,6,,,,47,30
70060,note_off,400,0,10,,,,,,,,8,,,,68,64
70060,note_off,400,0,11,,,,,,,,10,,,,64,64
70060,note_off,400,0,6,,,,,,,,4,,,,64,64
70060,note_off,400,0,5,,,,,,,,3,,,,68,64
70110,note_off,120,0,14,,,,,,,,13,,,,40,64
70110,note_on,0,0,14,,,,,,,,13,,,,35,30
70140,note_on,0,0,13,,,,,,,,12,,,,52,30
70140,note_on,0,0,9,,,,,,,,7,,,,40,30
70140,note_off,120,0,13,,,,,,,,12,,,,47,64
70140,note_on,0,0,8,,,,,,,,6,,,,52,30
70140,note_off,120,0,8,,,,,,,,6,,,,47,64
70140,note_on,160,0,2,,,,,,,,0,,,,35,30
70140,note_on,0,0,2,,,,,,,,0,,,,47,30
70140,note_on,0,0,2,,,,,,,,0,,,,52,30
70140,note_off,120,0,9,,,,,,,,7,,,,35,64
70220,note_off,0,0,2,,,,,,,,0,,,,47,64
70220,note_off,0,0,2,,,,,,,,0,,,,35,64
70220,note_off,80,0,2,,,,,,,,0,,,,52,64
70230,note_on,0,0,14,,,,,,,,13,,,,40,30
70230,note_off,120,0,14,,,,,,,,13,,,,35,64
70260,note_on,0,0,9,,,,,,,,7,,,,35,30
70260,note_off,120,0,13,,,,,,,,12,,,,52,64
70260,note_on,0,0,13,,,,,,,,12,,,,47,30
70260,note_on,0,0,8,,,,,,,,6,,,,47,30
70260,note_off,120,0,8,,,,,,,,6,,,,52,64
70260,note_off,120,0,9,,,,,,,,7,,,,40,64
70350,note_off,120,0,14,,,,,,,,13,,,,40,64
70350,note_on,0,0,14,,,,,,,,13,,,,35,30
70380,note_on,19025,0,3,,,,,,,,1,,,,64,45
70380,note_on,320,0,10,,,,,,,,8,,,,80,30
70380,note_on,19020,0,4,,,,,,,,2,,,,64,30
70380,note_on,0,0,13,,,,,,,,12,,,,52,30
70380,note_off,120,0,13,,,,,,,,12,,,,47,64
70380,note_on,320,0,6,,,,,,,,4,,,,76,30
70380,note_on,0,0,8,,,,,,,,6,,,,52,30
70380,note_off,120,0,8,,,,,,,,6,,,,47,64
70380,note_off,120,0,9,,,,,,,,7,,,,35,64
70380,note_on,0,0,2,,,,,,,,0,,,,52,30
70380,note_on,0,0,2,,,,,,,,0,,,,47,30
70380,note_on,320,0,5,,,,,,,,3,,,,80,30
70380,note_on,0,0,9,,,,,,,,7,,,,40,30
70380,note_on,160,0,2,,,,,,,,0,,,,35,30
70380,note_on,320,0,11,,,,,,,,10,,,,76,30
70380,note_on,880,0,1,,,,,,,,0,,,,52,45
70390,note_off,400,0,15,,,,,,,,14,,,,40,64
70440,note_on,0,0,4,,,,,,,,2,,,,66,30
70440,note_on,0,0,1,,,,,,,,0,,,,54,45
70440,note_on,0,0,3,,,,,,,,1,,,,66,45
70440,note_off,60,0,4,,,,,,,,2,,,,64,64
70440,note_off,60,0,3,,,,,,,,1,,,,64,64
70440,note_off,60,0,1,,,,,,,,0,,,,52,64
70460,note_off,80,0,11,,,,,,,,10,,,,76,64
70460,note_off,0,0,2,,,,,,,,0,,,,35,64
70460,note_off,80,0,5,,,,,,,,3,,,,80,64
70460,note_off,0,0,2,,,,,,,,0,,,,47,64
70460,note_off,80,0,6,,,,,,,,4,,,,76,64
70460,note_off,80,0,10,,,,,,,,8,,,,80,64
70460,note_off,80,0,2,,,,,,,,0,,,,52,64
70470,note_on,80,0,15,,,,,,,,14,,,,40,30
70470,note_on,0,0,14,,,,,,,,13,,,,40,30
70470,note_off,120,0,14,,,,,,,,13,,,,35,64
70500,note_off,120,0,8,,,,,,,,6,,,,52,64
70500,note_off,120,0,9,,,,,,,,7,,,,40,64
70500,note_on,0,0,8,,,,,,,,6,,,,47,30
70500,note_on,0,0,3,,,,,,,,1,,,,68,45
70500,note_off,60,0,3,,,,,,,,1,,,,66,64
70500,note_off,60,0,4,,,,,,,,2,,,,66,64
70500,note_on,0,0,4,,,,,,,,2,,,,68,30
70500,note_on,0,0,9,,,,,,,,7,,,,35,30
70500,note_off,60,0,1,,,,,,,,0,,,,54,64
70500,note_on,0,0,1,,,,,,,,0,,,,56,45
70500,note_off,120,0,13,,,,,,,,12,,,,52,64
70500,note_on,0,0,13,,,,,,,,12,,,,47,30
70560,note_on,0,0,1,,,,,,,,0,,,,57,45
70560,note_off,60,0,3,,,,,,,,1,,,,68,64
70560,note_on,0,0,3,,,,,,,,1,,,,69,45
70560,note_on,0,0,4,,,,,,,,2,,,,69,30
70560,note_off,60,0,4,,,,,,,,2,,,,68,64
70560,note_off,60,0,1,,,,,,,,0,,,,56,64
70590,note_off,120,0,14,,,,,,,,13,,,,40,64
70590,note_on,0,0,14,,,,,,,,13,,,,35,30
70620,note_on,160,0,6,,,,,,,,4,,,,78,30
70620,note_on,0,0,13,,,,,,,,12,,,,51,30
70620,note_off,120,0,13,,,,,,,,12,,,,47,64
70620,note_on,160,0,11,,,,,,,,10,,,,78,30
70620,note_on,0,0,1,,,,,,,,0,,,,59,45
70620,note_off,60,0,4,,,,,,,,2,,,,69,64
70620,note_off,60,0,1,,,,,,,,0,,,,57,64
70620,note_off,120,0,8,,,,,,,,6,,,,47,64
70620,note_on,160,0,5,,,,,,,,3,,,,81,30
70620,note_on,160,0,10,,,,,,,,8,,,,81,30
70620,note_off,60,0,3,,,,,,,,1,,,,69,64
70620,note_on,0,0,3,,,,,,,,1,,,,71,45
70620,note_on,160,0,2,,,,,,,,0,,,,47,30
70620,note_on,0,0,2,,,,,,,,0,,,,59,30
70620,note_on,0,0,8,,,,,,,,6,,,,51,30
70620,note_on,0,0,2,,,,,,,,0,,,,63,30
70620,note_on,0,0,9,,,,,,,,7,,,,39,30
70620,note_off,120,0,9,,,,,,,,7,,,,35,64
70620,note_on,0,0,4,,,,,,,,2,,,,71,30
70700,note_off,80,0,2,,,,,,,,0,,,,63,64
70700,note_off,0,0,2,,,,,,,,0,,,,59,64
70700,note_off,0,0,2,,,,,,,,0,,,,47,64
70710,note_off,120,0,14,,,,,,,,13,,,,35,64
70710,note_on,0,0,14,,,,,,,,13,,,,40,30
70740,note_off,120,0,9,,,,,,,,7,,,,39,64
70740,note_on,0,0,9,,,,,,,,7,,,,35,30
70740,note_off,120,0,13,,,,,,,,12,,,,51,64
70740,note_on,0,0,13,,,,,,,,12,,,,47,30
70740,note_off,120,0,8,,,,,,,,6,,,,51,64
70740,note_on,0,0,8,,,,,,,,6,,,,47,30
70830,note_on,0,0,14,,,,,,,,13,,,,35,30
70830,note_off,120,0,14,,,,,,,,13,,,,40,64
70860,note_off,120,0,13,,,,,,,,12,,,,47,64
70860,note_on,160,0,2,,,,,,,,0,,,,47,30
70860,note_on,0,0,2,,,,,,,,0,,,,59,30
70860,note_on,0,0,2,,,,,,,,0,,,,63,30
70860,note_off,120,0,8,,,,,,,,6,,,,47,64
70860,note_on,0,0,8,,,,,,,,6,,,,51,30
70860,note_off,120,0,9,,,,,,,,7,,,,35,64
70860,note_on,0,0,9,,,,,,,,7,,,,39,30
70860,note_on,0,0,13,,,,,,,,12,,,,51,30
70870,note_off,400,0,15,,,,,,,,14,,,,40,64
70940,note_off,0,0,2,,,,,,,,0,,,,59,64
70940,note_off,80,0,2,,,,,,,,0,,,,63,64
70940,note_off,0,0,2,,,,,,,,0,,,,47,64
70950,note_on,80,0,15,,,,,,,,14,,,,35,30
70950,note_off,120,0,14,,,,,,,,13,,,,35,64
70950,note_on,0,0,14,,,,,,,,13,,,,39,30
70980,note_on,0,0,9,,,,,,,,7,,,,35,30
70980,note_off,120,0,9,,,,,,,,7,,,,39,64
70980,note_off,120,0,13,,,,,,,,12,,,,51,64
70980,note_on,0,0,13,,,,,,,,12,,,,47,30
70980,note_on,0,0,8,,,,,,,,6,,,,47,30
70980,note_off,120,0,8,,,,,,,,6,,,,51,64
71020,note_off,400,0,3,,,,,,,,1,,,,71,64
71020,note_off,400,0,4,,,,,,,,2,,,,71,64
71020,note_off,400,0,1,,,,,,,,0,,,,59,64
71070,note_off,120,0,14,,,,,,,,13,,,,39,64
71070,note_on,0,0,14,,,,,,,,13,,,,35,30
71100,note_on,160,0,2,,,,,,,,0,,,,47,30
71100,note_off,120,0,8,,,,,,,,6,,,,47,64
71100,note_off,120,0,13,,,,,,,,12,,,,47,64
71100,note_on,0,0,8,,,,,,,,6,,,,51,30
71100,note_on,0,0,13,,,,,,,,12,,,,51,30
71100,note_on,0,0,9,,,,,,,,7,,,,39,30
71100,note_off,120,0,9,,,,,,,,7,,,,35,64
71100,note_on,0,0,2,,,,,,,,0,,,,59,30
71100,note_on,0,0,2,,,,,,,,0,,,,63,30
71180,note_off,0,0,2,,,,,,,,0,,,,59,64
71180,note_off,80,0,2,,,,,,,,0,,,,63,64
71180,note_off,0,0,2,,,,,,,,0,,,,47,64
71190,note_off,120,0,14,,,,,,,,13,,,,35,64
71190,note_on,0,0,14,,,,,,,,13,,,,39,30
71220,note_on,0,0,13,,,,,,,,12,,,,47,30
71220,note_on,0,0,8,,,,,,,,6,,,,47,30
71220,note_off,120,0,13,,,,,,,,12,,,,51,64
71220,note_on,0,0,9,,,,,,,,7,,,,35,30
71220,note_off,120,0,8,,,,,,,,6,,,,51,64
71220,note_off,120,0,9,,,,,,,,7,,,,39,64
71310,note_off,120,0,14,,,,,,,,13,,,,39,64
71310,note_on,0,0,14,,,,,,,,13,,,,35,30
71340,note_on,0,0,8,,,,,,,,6,,,,51,30
71340,note_on,160,0,2,,,,,,,,0,,,,47,30
71340,note_off,120,0,13,,,,,,,,12,,,,47,64
71340,note_on,0,0,2,,,,,,,,0,,,,63,30
71340,note_on,0,0,2,,,,,,,,0,,,,59,30
71340,note_on,0,0,13,,,,,,,,12,,,,51,30
71340,note_off,120,0,8,,,,,,,,6,,,,47,64
71340,note_on,320,0,3,,,,,,,,1,,,,71,45
71340,note_on,320,0,1,,,,,,,,0,,,,59,45
71340,note_off,120,0,9,,,,,,,,7,,,,35,64
71340,note_on,320,0,4,,,,,,,,2,,,,71,30
71340,note_on,0,0,9,,,,,,,,7,,,,39,30
71350,note_off,400,0,15,,,,,,,,14,,,,35,64
71420,note_off,80,0,2,,,,,,,,0,,,,63,64
71420,note_off,0,0,2,,,,,,,,0,,,,59,64
71420,note_off,0,0,2,,,,,,,,0,,,,47,64
71420,note_off,80,0,3,,,,,,,,1,,,,71,64
71420,note_on,0,0,4,,,,,,,,2,,,,73,30
71420,note_on,0,0,1,,,,,,,,0,,,,61,45
71420,note_off,80,0,1,,,,,,,,0,,,,59,64
71420,note_off,80,0,4,,,,,,,,2,,,,71,64
71420,note_on,0,0,3,,,,,,,,1,,,,73,45
71430,note_on,80,0,15,,,,,,,,14,,,,35,30
71430,note_off,120,0,14,,,,,,,,13,,,,35,64
71430,note_on,0,0,14,,,,,,,,13,,,,39,30
71460,note_off,120,0,13,,,,,,,,12,,,,51,64
71460,note_off,120,0,8,,,,,,,,6,,,,51,64
71460,note_on,0,0,8,,,,,,,,6,,,,47,30
71460,note_on,0,0,13,,,,,,,,12,,,,47,30
71460,note_off,120,0,9,,,,,,,,7,,,,39,64
71460,note_on,0,0,9,,,,,,,,7,,,,35,30
71500,note_off,80,0,1,,,,,,,,0,,,,61,64
71500,note_on,0,0,1,,,,,,,,0,,,,63,45
71500,note_off,80,0,4,,,,,,,,2,,,,73,64
71500,note_on,0,0,4,,,,,,,,2,,,,75,30
71500,note_on,0,0,3,,,,,,,,1,,,,75,45
71500,note_off,80,0,3,,,,,,,,1,,,,73,64
71550,note_on,0,0,14,,,,,,,,13,,,,35,30
71550,note_off,120,0,14,,,,,,,,13,,,,39,64
71575,note_off,115,0,8,,,,,,,,6,,,,47,64
71575,note_off,115,0,9,,,,,,,,7,,,,35,64
71575,note_off,115,0,13,,,,,,,,12,,,,47,64
71580,note_off,960,0,6,,,,,,,,4,,,,78,64
71580,note_on,0,0,3,,,,,,,,1,,,,76,45
71580,note_off,80,0,3,,,,,,,,1,,,,75,64
71580,note_on,0,0,11,,,,,,,,10,,,,76,30
71580,note_on,0,0,5,,,,,,,,3,,,,80,30
71580,note_off,960,0,10,,,,,,,,8,,,,81,64
71580,note_on,0,0,10,,,,,,,,8,,,,80,30
71580,note_on,0,0,4,,,,,,,,2,,,,76,30
71580,note_off,80,0,4,,,,,,,,2,,,,75,64
71580,note_on,160,0,2,,,,,,,,0,,,,35,30
71580,note_on,0,0,2,,,,,,,,0,,,,47,30
71580,note_on,0,0,2,,,,,,,,0,,,,52,30
71580,note_on,5,0,13,,,,,,,,12,,,,52,30
71580,note_on,0,0,6,,,,,,,,4,,,,76,30
71580,note_on,5,0,9,,,,,,,,7,,,,40,30
71580,note_on,0,0,1,,,,,,,,0,,,,64,45
71580,note_off,1920,0,7,,,,,,,,5,,,,59,64
71580,note_on,0,0,12,,,,,,,,11,,,,59,30
71580,note_off,80,0,1,,,,,,,,0,,,,63,64
71580,note_on,5,0,8,,,,,,,,6,,,,52,30
71580,note_on,0,0,7,,,,,,,,5,,,,59,30
71580,note_off,1920,0,12,,,,,,,,11,,,,59,64
71580,note_off,960,0,5,,,,,,,,3,,,,81,64
71580,note_off,960,0,11,,,,,,,,10,,,,78,64
71660,note_off,80,0,2,,,,,,,,0,,,,52,64
71660,note_off,0,0,2,,,,,,,,0,,,,47,64
71660,note_off,0,0,2,,,,,,,,0,,,,35,64
71670,note_off,120,0,14,,,,,,,,13,,,,35,64
71670,note_on,0,0,14,,,,,,,,13,,,,39,30
71700,note_off,120,0,13,,,,,,,,12,,,,52,64
71700,note_on,0,0,9,,,,,,,,7,,,,35,30
71700,note_off,120,0,8,,,,,,,,6,,,,52,64
71700,note_on,0,0,8,,,,,,,,6,,,,47,30
71700,note_on,0,0,13,,,,,,,,12,,,,47,30
71700,note_off,120,0,9,,,,,,,,7,,,,40,64
71790,note_on,0,0,14,,,,,,,,13,,,,35,30
71790,note_off,120,0,14,,,,,,,,13,,,,39,64
71820,note_on,0,0,8,,,,,,,,6,,,,52,30
71820,note_on,0,0,9,,,,,,,,7,,,,40,30
71820,note_off,120,0,9,,,,,,,,7,,,,35,64
71820,note_off,120,0,13,,,,,,,,12,,,,47,64
71820,note_on,160,0,2,,,,,,,,0,,,,35,30
71820,note_on,0,0,2,,,,,,,,0,,,,47,30
71820,note_on,0,0,2,,,,,,,,0,,,,52,30
71820,note_off,120,0,8,,,,,,,,6,,,,47,64
71820,note_on,0,0,13,,,,,,,,12,,,,52,30
71830,note_off,400,0,15,,,,,,,,14,,,,35,64
71900,note_off,0,0,2,,,,,,,,0,,,,35,64
71900,note_off,0,0,2,,,,,,,,0,,,,47,64
71900,note_off,80,0,2,,,,,,,,0,,,,52,64
71905,note_off,115,0,14,,,,,,,,13,,,,35,64
71910,note_on,5,0,14,,,,,,,,13,,,,40,30
71910,note_on,80,0,15,,,,,,,,14,,,,40,30
71940,note_on,0,0,13,,,,,,,,12,,,,47,30
71940,note_off,120,0,13,,,,,,,,12,,,,52,64
71940,note_off,120,0,9,,,,,,,,7,,,,40,64
71940,note_on,0,0,8,,,,,,,,6,,,,47,30
71940,note_off,120,0,8,,,,,,,,6,,,,52,64
71940,note_on,0,0,9,,,,,,,,7,,,,35,30
71980,note_off,400,0,3,,,,,,,,1,,,,76,64
71980,note_off,400,0,4,,,,,,,,2,,,,76,64
71980,note_off,400,0,1,,,,,,,,0,,,,64,64
72030,note_off,120,0,14,,,,,,,,13,,,,40,64
72030,note_on,0,0,14,,,,,,,,13,,,,35,30
72060,note_off,120,0,9,,,,,,,,7,,,,35,64
72060,note_on,0,0,13,,,,,,,,12,,,,52,30
72060,note_on,0,0,2,,,,,,,,0,,,,52,30
72060,note_on,0,0,2,,,,,,,,0,,,,47,30
72060,note_off,120,0,8,,,,,,,,6,,,,47,64
72060,note_on,0,0,8,,,,,,,,6,,,,52,30
72060,note_on,160,0,2,,,,,,,,0,,,,35,30
72060,note_off,120,0,13,,,,,,,,12,,,,47,64
72060,note_on,0,0,9,,,,,,,,7,,,,40,30
72140,note_off,0,0,2,,,,,,,,0,,,,47,64
72140,note_off,0,0,2,,,,,,,,0,,,,35,64
72140,note_off,80,0,2,,,,,,,,0,,,,52,64
72150,note_on,0,0,14,,,,,,,,13,,,,40,30
72150,note_off,120,0,14,,,,,,,,13,,,,35,64
72180,note_on,0,0,9,,,,,,,,7,,,,35,30
72180,note_off,120,0,9,,,,,,,,7,,,,40,64
72180,note_on,0,0,13,,,,,,,,12,,,,47,30
72180,note_on,0,0,8,,,,,,,,6,,,,47,30
72180,note_off,120,0,8,,,,,,,,6,,,,52,64
72180,note_off,120,0,13,,,,,,,,12,,,,52,64
72270,note_on,0,0,14,,,,,,,,13,,,,35,30
72270,note_off,120,0,14,,,,,,,,13,,,,40,64
72300,note_on,0,0,8,,,,,,,,6,,,,52,30
72300,note_on,0,0,9,,,,,,,,7,,,,40,30
72300,note_off,120,0,8,,,,,,,,6,,,,47,64
72300,note_on,320,0,3,,,,,,,,1,,,,71,45
72300,note_on,0,0,13,,,,,,,,12,,,,52,30
72300,note_on,320,0,4,,,,,,,,2,,,,71,30
72300,note_off,120,0,9,,,,,,,,7,,,,35,64
72300,note_off,120,0,13,,,,,,,,12,,,,47,64
72300,note_on,0,0,2,,,,,,,,0,,,,52,30
72300,note_on,320,0,1,,,,,,,,0,,,,59,45
72300,note_on,160,0,2,,,,,,,,0,,,,35,30
72300,note_on,0,0,2,,,,,,,,0,,,,47,30
72310,note_off,400,0,15,,,,,,,,14,,,,40,64
72360,note_off,60,0,4,,,,,,,,2,,,,71,64
72360,note_off,60,0,1,,,,,,,,0,,,,59,64
72360,note_on,0,0,1,,,,,,,,0,,,,61,45
72360,note_on,0,0,4,,,,,,,,2,,,,73,30
72360,note_on,0,0,3,,,,,,,,1,,,,73,45
72360,note_off,60,0,3,,,,,,,,1,,,,71,64
72380,note_off,0,0,2,,,,,,,,0,,,,47,64
72380,note_off,80,0,2,,,,,,,,0,,,,52,64
72380,note_off,0,0,2,,,,,,,,0,,,,35,64
72390,note_on,80,0,15,,,,,,,,14,,,,40,30
72390,note_on,0,0,14,,,,,,,,13,,,,40,30
72390,note_off,120,0,14,,,,,,,,13,,,,35,64
72420,note_on,0,0,4,,,,,,,,2,,,,75,30
72420,note_on,0,0,9,,,,,,,,7,,,,35,30
72420,note_on,0,0,13,,,,,,,,12,,,,47,30
72420,note_off,120,0,13,,,,,,,,12,,,,52,64
72420,note_on,0,0,8,,,,,,,,6,,,,47,30
72420,note_off,60,0,4,,,,,,,,2,,,,73,64
72420,note_on,0,0,3,,,,,,,,1,,,,75,45
72420,note_off,60,0,3,,,,,,,,1,,,,73,64
72420,note_off,60,0,1,,,,,,,,0,,,,61,64
72420,note_on,0,0,1,,,,,,,,0,,,,63,45
72420,note_off,120,0,9,,,,,,,,7,,,,40,64
72420,note_off,120,0,8,,,,,,,,6,,,,52,64
72480,note_on,0,0,1,,,,,,,,0,,,,64,45
72480,note_off,60,0,3,,,,,,,,1,,,,75,64
72480,note_off,60,0,1,,,,,,,,0,,,,63,64
72480,note_on,0,0,3,,,,,,,,1,,,,76,45
72480,note_on,0,0,4,,,,,,,,2,,,,76,30
72480,note_off,60,0,4,,,,,,,,2,,,,75,64
72510,note_off,120,0,14,,,,,,,,13,,,,40,64
72510,note_on,0,0,14,,,,,,,,13,,,,35,30
72540,note_on,0,0,10,,,,,,,,8,,,,78,30
72540,note_on,0,0,5,,,,,,,,3,,,,78,30
72540,note_off,60,0,1,,,,,,,,0,,,,64,64
72540,note_on,0,0,1,,,,,,,,0,,,,66,45
72540,note_on,160,0,2,,,,,,,,0,,,,35,30
72540,note_on,0,0,2,,,,,,,,0,,,,47,30
72540,note_on,0,0,2,,,,,,,,0,,,,54,30
72540,note_on,0,0,6,,,,,,,,4,,,,75,30
72540,note_on,0,0,4,,,,,,,,2,,,,78,30
72540,note_on,0,0,3,,,,,,,,1,,,,78,45
72540,note_off,960,0,11,,,,,,,,10,,,,76,64
72540,note_on,0,0,9,,,,,,,,7,,,,42,30
72540,note_off,960,0,10,,,,,,,,8,,,,80,64
72540,note_off,60,0,4,,,,,,,,2,,,,76,64
72540,note_off,120,0,9,,,,,,,,7,,,,35,64
72540,note_off,960,0,5,,,,,,,,3,,,,80,64
72540,note_on,0,0,11,,,,,,,,10,,,,75,30
72540,note_off,60,0,3,,,,,,,,1,,,,76,64
72540,note_off,960,0,6,,,,,,,,4,,,,76,64
72540,note_on,0,0,8,,,,,,,,6,,,,54,30
72540,note_on,0,0,13,,,,,,,,12,,,,54,30
72540,note_off,120,0,13,,,,,,,,12,,,,47,64
72540,note_off,120,0,8,,,,,,,,6,,,,47,64
72620,note_off,80,0,2,,,,,,,,0,,,,54,64
72620,note_off,0,0,2,,,,,,,,0,,,,47,64
72620,note_off,0,0,2,,,,,,,,0,,,,35,64
72630,note_off,120,0,14,,,,,,,,13,,,,35,64
72630,note_on,0,0,14,,,,,,,,13,,,,40,30
72660,note_off,120,0,8,,,,,,,,6,,,,54,64
72660,note_off,120,0,13,,,,,,,,12,,,,54,64
72660,note_on,0,0,13,,,,,,,,12,,,,47,30
72660,note_off,120,0,9,,,,,,,,7,,,,42,64
72660,note_on,0,0,8,,,,,,,,6,,,,47,30
72660,note_on,0,0,9,,,,,,,,7,,,,35,30
72750,note_off,120,0,14,,,,,,,,13,,,,40,64
72750,note_on,0,0,14,,,,,,,,13,,,,35,30
72780,note_off,120,0,8,,,,,,,,6,,,,47,64
72780,note_on,0,0,8,,,,,,,,6,,,,54,30
72780,note_off,120,0,13,,,,,,,,12,,,,47,64
72780,note_on,0,0,13,,,,,,,,12,,,,54,30
72780,note_off,120,0,9,,,,,,,,7,,,,35,64
72780,note_on,0,0,9,,,,,,,,7,,,,42,30
72780,note_on,160,0,2,,,,,,,,0,,,,35,30
72780,note_on,0,0,2,,,,,,,,0,,,,47,30
72780,note_on,0,0,2,,,,,,,,0,,,,54,30
72790,note_off,400,0,15,,,,,,,,14,,,,40,64
72860,note_off,0,0,2,,,,,,,,0,,,,47,64
72860,note_off,0,0,2,,,,,,,,0,,,,35,64
72860,note_off,80,0,2,,,,,,,,0,,,,54,64
72870,note_on,0,0,14,,,,,,,,13,,,,42,30
72870,note_on,80,0,15,,,,,,,,14,,,,35,30
72870,note_off,120,0,14,,,,,,,,13,,,,35,64
72900,note_off,120,0,9,,,,,,,,7,,,,42,64
72900,note_on,0,0,13,,,,,,,,12,,,,47,30
72900,note_on,0,0,9,,,,,,,,7,,,,35,30
72900,note_on,0,0,8,,,,,,,,6,,,,47,30
72900,note_off,120,0,13,,,,,,,,12,,,,54,64
72900,note_off,120,0,8,,,,,,,,6,,,,54,64
72940,note_off,400,0,4,,,,,,,,2,,,,78,64
72940,note_off,400,0,3,,,,,,,,1,,,,78,64
72940,note_off,400,0,1,,,,,,,,0,,,,66,64
72990,note_off,120,0,14,,,,,,,,13,,,,42,64
72990,note_on,0,0,14,,,,,,,,13,,,,35,30
73020,note_on,0,0,8,,,,,,,,6,,,,54,30
73020,note_on,0,0,13,,,,,,,,12,,,,54,30
73020,note_off,120,0,13,,,,,,,,12,,,,47,64
73020,note_on,160,0,2,,,,,,,,0,,,,35,30
73020,note_off,120,0,8,,,,,,,,6,,,,47,64
73020,note_on,0,0,2,,,,,,,,0,,,,47,30
73020,note_on,0,0,2,,,,,,,,0,,,,54,30
73020,note_on,0,0,9,,,,,,,,7,,,,42,30
73020,note_off,120,0,9,,,,,,,,7,,,,35,64
73100,note_off,0,0,2,,,,,,,,0,,,,35,64
73100,note_off,80,0,2,,,,,,,,0,,,,54,64
73100,note_off,0,0,2,,,,,,,,0,,,,47,64
73110,note_on,0,0,14,,,,,,,,13,,,,42,30
73110,note_off,120,0,14,,,,,,,,13,,,,35,64
73140,note_on,0,0,9,,,,,,,,7,,,,35,30
73140,note_off,120,0,9,,,,,,,,7,,,,42,64
73140,note_on,0,0,8,,,,,,,,6,,,,47,30
73140,note_off,120,0,13,,,,,,,,12,,,,54,64
73140,note_on,0,0,13,,,,,,,,12,,,,47,30
73140,note_off,120,0,8,,,,,,,,6,,,,54,64
73230,note_off,120,0,14,,,,,,,,13,,,,42,64
73230,note_on,0,0,14,,,,,,,,13,,,,35,30
73260,note_on,320,0,3,,,,,,,,1,,,,83,45
73260,note_on,320,0,1,,,,,,,,0,,,,71,45
73260,note_on,160,0,2,,,,,,,,0,,,,35,30
73260,note_on,0,0,2,,,,,,,,0,,,,47,30
73260,note_on,0,0,2,,,,,,,,0,,,,54,30
73260,note_off,120,0,13,,,,,,,,12,,,,47,64
73260,note_on,0,0,13,,,,,,,,12,,,,54,30
73260,note_off,120,0,9,,,,,,,,7,,,,35,64
73260,note_off,120,0,8,,,,,,,,6,,,,47,64
73260,note_on,320,0,4,,,,,,,,2,,,,83,30
73260,note_on,0,0,9,,,,,,,,7,,,,42,30
73260,note_on,0,0,8,,,,,,,,6,,,,54,30
73270,note_off,400,0,15,,,,,,,,14,,,,35,64
73320,note_on,0,0,1,,,,,,,,0,,,,69,45
73320,note_off,60,0,1,,,,,,,,0,,,,71,64
73320,note_on,0,0,4,,,,,,,,2,,,,81,30
73320,note_off,60,0,4,,,,,,,,2,,,,83,64
73320,note_on,0,0,3,,,,,,,,1,,,,81,45
73320,note_off,60,0,3,,,,,,,,1,,,,83,64
73340,note_off,0,0,2,,,,,,,,0,,,,35,64
73340,note_off,0,0,2,,,,,,,,0,,,,47,64
73340,note_off,80,0,2,,,,,,,,0,,,,54,64
73350,note_on,80,0,15,,,,,,,,14,,,,35,30
73350,note_off,120,0,14,,,,,,,,13,,,,35,64
73350,note_on,0,0,14,,,,,,,,13,,,,42,30
73380,note_on,0,0,8,,,,,,,,6,,,,47,30
73380,note_on,0,0,13,,,,,,,,12,,,,47,30
73380,note_off,60,0,1,,,,,,,,0,,,,69,64
73380,note_on,0,0,1,,,,,,,,0,,,,68,45
73380,note_off,120,0,8,,,,,,,,6,,,,54,64
73380,note_off,120,0,13,,,,,,,,12,,,,54,64
73380,note_off,60,0,3,,,,,,,,1,,,,81,64
73380,note_off,60,0,4,,,,,,,,2,,,,81,64
73380,note_on,0,0,4,,,,,,,,2,,,,80,30
73380,note_off,120,0,9,,,,,,,,7,,,,42,64
73380,note_on,0,0,3,,,,,,,,1,,,,80,45
73380,note_on,0,0,9,,,,,,,,7,,,,35,30
73440,note_on,0,0,4,,,,,,,,2,,,,78,30
73440,note_off,60,0,4,,,,,,,,2,,,,80,64
73440,note_off,60,0,1,,,,,,,,0,,,,68,64
73440,note_on,0,0,1,,,,,,,,0,,,,66,45
73440,note_on,0,0,3,,,,,,,,1,,,,78,45
73440,note_off,60,0,3,,,,,,,,1,,,,80,64
73470,note_off,120,0,14,,,,,,,,13,,,,42,64
73470,note_on,0,0,14,,,,,,,,13,,,,35,30
73495,note_off,115,0,8,,,,,,,,6,,,,47,64
73495,note_off,115,0,9,,,,,,,,7,,,,35,64
73495,note_off,115,0,13,,,,,,,,12,,,,47,64
73500,note_on,0,0,7,,,,,,,,5,,,,59,30
73500,note_off,1920,0,7,,,,,,,,5,,,,59,64
73500,note_on,5,0,13,,,,,,,,12,,,,52,30
73500,note_on,0,0,1,,,,,,,,0,,,,64,45
73500,note_off,60,0,1,,,,,,,,0,,,,66,64
73500,note_off,60,0,4,,,,,,,,2,,,,78,64
73500,note_on,0,0,4,,,,,,,,2,,,,76,30
73500,note_on,0,0,10,,,,,,,,8,,,,80,30
73500,note_off,960,0,10,,,,,,,,8,,,,78,64
73500,note_off,1920,0,12,,,,,,,,11,,,,59,64
73500,note_on,5,0,8,,,,,,,,6,,,,52,30
73500,note_off,60,0,3,,,,,,,,1,,,,78,64
73500,note_on,0,0,12,,,,,,,,11,,,,59,30
73500,note_on,160,0,2,,,,,,,,0,,,,35,30
73500,note_on,0,0,2,,,,,,,,0,,,,47,30
73500,note_on,0,0,2,,,,,,,,0,,,,52,30
73500,note_on,0,0,6,,,,,,,,4,,,,76,30
73500,note_off,960,0,6,,,,,,,,4,,,,75,64
73500,note_off,960,0,5,,,,,,,,3,,,,78,64
73500,note_on,5,0,9,,,,,,,,7,,,,40,30
73500,note_on,0,0,5,,,,,,,,3,,,,80,30
73500,note_on,0,0,3,,,,,,,,1,,,,76,45
73500,note_off,960,0,11,,,,,,,,10,,,,75,64
73500,note_on,0,0,11,,,,,,,,10,,,,76,30
73580,note_off,80,0,2,,,,,,,,0,,,,52,64
73580,note_off,0,0,2,,,,,,,,0,,,,47,64
73580,note_off,0,0,2,,,,,,,,0,,,,35,64
73590,note_off,120,0,14,,,,,,,,13,,,,35,64
73590,note_on,0,0,14,,,,,,,,13,,,,42,30
73620,note_off,120,0,8,,,,,,,,6,,,,52,64
73620,note_on,0,0,9,,,,,,,,7,,,,35,30
73620,note_off,120,0,9,,,,,,,,7,,,,40,64
73620,note_on,0,0,13,,,,,,,,12,,,,47,30
73620,note_off,120,0,13,,,,,,,,12,,,,52,64
73620,note_on,0,0,8,,,,,,,,6,,,,47,30
73710,note_on,0,0,14,,,,,,,,13,,,,35,30
73710,note_off,120,0,14,,,,,,,,13,,,,42,64
73740,note_on,0,0,2,,,,,,,,0,,,,47,30
73740,note_on,0,0,2,,,,,,,,0,,,,52,30
73740,note_on,160,0,2,,,,,,,,0,,,,35,30
73740,note_on,0,0,9,,,,,,,,7,,,,40,30
73740,note_on,0,0,13,,,,,,,,12,,,,52,30
73740,note_off,120,0,13,,,,,,,,12,,,,47,64
73740,note_off,120,0,9,,,,,,,,7,,,,35,64
73740,note_off,120,0,8,,,,,,,,6,,,,47,64
73740,note_on,0,0,8,,,,,,,,6,,,,52,30
73750,note_off,400,0,15,,,,,,,,14,,,,35,64
73820,note_off,0,0,2,,,,,,,,0,,,,47,64
73820,note_off,80,0,2,,,,,,,,0,,,,52,64
73820,note_off,0,0,2,,,,,,,,0,,,,35,64
73825,note_off,115,0,14,,,,,,,,13,,,,35,64
73830,note_on,80,0,15,,,,,,,,14,,,,40,30
73830,note_on,5,0,14,,,,,,,,13,,,,40,30
73860,note_off,120,0,8,,,,,,,,6,,,,52,64
73860,note_on,0,0,8,,,,,,,,6,,,,47,30
73860,note_off,120,0,9,,,,,,,,7,,,,40,64
73860,note_on,0,0,13,,,,,,,,12,,,,47,30
73860,note_off,120,0,13,,,,,,,,12,,,,52,64
73860,note_on,0,0,9,,,,,,,,7,,,,35,30
73900,note_off,400,0,3,,,,,,,,1,,,,76,64
73900,note_off,400,0,1,,,,,,,,0,,,,64,64
73900,note_off,400,0,4,,,,,,,,2,,,,76,64
73950,note_on,0,0,14,,,,,,,,13,,,,35,30
73950,note_off,120,0,14,,,,,,,,13,,,,40,64
73980,note_on,0,0,2,,,,,,,,0,,,,52,30
73980,note_off,120,0,9,,,,,,,,7,,,,35,64
73980,note_on,0,0,13,,,,,,,,12,,,,52,30
73980,note_off,120,0,13,,,,,,,,12,,,,47,64
73980,note_off,120,0,8,,,,,,,,6,,,,47,64
73980,note_on,0,0,8,,,,,,,,6,,,,52,30
73980,note_on,160,0,2,,,,,,,,0,,,,35,30
73980,note_on,0,0,9,,,,,,,,7,,,,40,30
73980,note_on,0,0,2,,,,,,,,0,,,,47,30
74060,note_off,0,0,2,,,,,,,,0,,,,35,64
74060,note_off,0,0,2,,,,,,,,0,,,,47,64
74060,note_off,80,0,2,,,,,,,,0,,,,52,64
74070,note_off,120,0,14,,,,,,,,13,,,,35,64
74070,note_on,0,0,14,,,,,,,,13,,,,40,30
74100,note_off,120,0,9,,,,,,,,7,,,,40,64
74100,note_on,0,0,8,,,,,,,,6,,,,47,29
74100,note_off,120,0,8,,,,,,,,6,,,,52,64
74100,note_on,0,0,9,,,,,,,,7,,,,35,29
74100,note_on,0,0,13,,,,,,,,12,,,,47,29
74100,note_off,120,0,13,,,,,,,,12,,,,52,64
74190,note_on,0,0,14,,,,,,,,13,,,,35,30
74190,note_off,120,0,14,,,,,,,,13,,,,40,64
74220,note_off,120,0,13,,,,,,,,12,,,,47,64
74220,note_on,0,0,13,,,,,,,,12,,,,52,28
74220,note_on,320,0,3,,,,,,,,1,,,,71,42
74220,note_off,120,0,9,,,,,,,,7,,,,35,64
74220,note_on,0,0,9,,,,,,,,7,,,,40,28
74220,note_on,320,0,4,,,,,,,,2,,,,71,28
74220,note_on,320,0,1,,,,,,,,0,,,,59,44
74220,note_on,160,0,2,,,,,,,,0,,,,35,30
74220,note_on,0,0,2,,,,,,,,0,,,,47,30
74220,note_on,0,0,2,,,,,,,,0,,,,52,30
74220,note_off,120,0,8,,,,,,,,6,,,,47,64
74220,note_on,0,0,8,,,,,,,,6,,,,52,28
74230,note_off,400,0,15,,,,,,,,14,,,,40,64
74280,note_on,0,0,4,,,,,,,,2,,,,73,28
74280,note_off,60,0,1,,,,,,,,0,,,,59,64
74280,note_on,0,0,1,,,,,,,,0,,,,61,44
74280,note_off,60,0,4,,,,,,,,2,,,,71,64
74280,note_off,60,0,3,,,,,,,,1,,,,71,64
74280,note_on,0,0,3,,,,,,,,1,,,,73,42
74300,note_off,0,0,2,,,,,,,,0,,,,35,64
74300,note_off,0,0,2,,,,,,,,0,,,,47,64
74300,note_off,80,0,2,,,,,,,,0,,,,52,64
74310,note_on,0,0,1,,,,,,,,0,,,,63,44
74310,note_off,30,0,1,,,,,,,,0,,,,61,64
74310,note_off,120,0,14,,,,,,,,13,,,,35,64
74310,note_off,30,0,4,,,,,,,,2,,,,73,64
74310,note_on,0,0,4,,,,,,,,2,,,,75,28
74310,note_off,30,0,3,,,,,,,,1,,,,73,64
74310,note_on,0,0,14,,,,,,,,13,,,,40,30
74310,note_on,80,0,15,,,,,,,,14,,,,40,30
74310,note_on,0,0,3,,,,,,,,1,,,,75,42
74340,note_on,0,0,9,,,,,,,,7,,,,35,27
74340,note_on,0,0,8,,,,,,,,6,,,,47,27
74340,note_off,120,0,8,,,,,,,,6,,,,52,64
74340,note_on,0,0,1,,,,,,,,0,,,,64,44
74340,note_off,30,0,1,,,,,,,,0,,,,63,64
74340,note_off,30,0,3,,,,,,,,1,,,,75,64
74340,note_on,0,0,13,,,,,,,,12,,,,47,27
74340,note_off,120,0,13,,,,,,,,12,,,,52,64
74340,note_on,0,0,3,,,,,,,,1,,,,76,42
74340,note_off,30,0,4,,,,,,,,2,,,,75,64
74340,note_on,0,0,4,,,,,,,,2,,,,76,28
74340,note_off,120,0,9,,,,,,,,7,,,,40,64
74370,note_off,30,0,3,,,,,,,,1,,,,76,64
74370,note_on,0,0,3,,,,,,,,1,,,,78,42
74370,note_on,0,0,1,,,,,,,,0,,,,66,44
74370,note_on,0,0,4,,,,,,,,2,,,,78,28
74370,note_off,30,0,1,,,,,,,,0,,,,64,64
74370,note_off,30,0,4,,,,,,,,2,,,,76,64
74400,note_on,0,0,1,,,,,,,,0,,,,68,44
74400,note_off,30,0,1,,,,,,,,0,,,,66,64
74400,note_off,30,0,3,,,,,,,,1,,,,78,64
74400,note_on,0,0,3,,,,,,,,1,,,,80,42
74400,note_on,0,0,4,,,,,,,,2,,,,80,28
74400,note_off,30,0,4,,,,,,,,2,,,,78,64
74430,note_on,0,0,14,,,,,,,,13,,,,35,29
74430,note_off,30,0,4,,,,,,,,2,,,,80,64
74430,note_on,0,0,1,,,,,,,,0,,,,69,44
74430,note_off,30,0,1,,,,,,,,0,,,,68,64
74430,note_on,0,0,4,,,,,,,,2,,,,81,28
74430,note_on,0,0,3,,,,,,,,1,,,,81,42
74430,note_off,30,0,3,,,,,,,,1,,,,80,64
74430,note_off,120,0,14,,,,,,,,13,,,,40,64
74460,note_on,0,0,6,,,,,,,,4,,,,78,30
74460,note_off,960,0,6,,,,,,,,4,,,,76,64
74460,note_on,0,0,3,,,,,,,,1,,,,83,42
74460,note_on,0,0,11,,,,,,,,10,,,,78,24
74460,note_off,960,0,11,,,,,,,,10,,,,76,64
74460,note_off,120,0,13,,,,,,,,12,,,,47,64
74460,note_on,0,0,2,,,,,,,,0,,,,59,30
74460,note_on,0,0,2,,,,,,,,0,,,,63,30
74460,note_on,0,0,4,,,,,,,,2,,,,83,28
74460,note_off,30,0,4,,,,,,,,2,,,,81,64
74460,note_off,30,0,3,,,,,,,,1,,,,81,64
74460,note_off,120,0,8,,,,,,,,6,,,,47,64
74460,note_on,160,0,2,,,,,,,,0,,,,47,30
74460,note_on,0,0,10,,,,,,,,8,,,,81,24
74460,note_on,0,0,8,,,,,,,,6,,,,51,26
74460,note_off,120,0,9,,,,,,,,7,,,,35,64
74460,note_on,0,0,9,,,,,,,,7,,,,39,26
74460,note_off,960,0,10,,,,,,,,8,,,,80,64
74460,note_on,0,0,13,,,,,,,,12,,,,51,26
74460,note_on,0,0,5,,,,,,,,3,,,,81,30
74460,note_off,960,0,5,,,,,,,,3,,,,80,64
74460,note_off,30,0,1,,,,,,,,0,,,,69,64
74460,note_on,0,0,1,,,,,,,,0,,,,71,44
74540,note_off,0,0,2,,,,,,,,0,,,,47,64
74540,note_off,80,0,2,,,,,,,,0,,,,63,64
74540,note_off,0,0,2,,,,,,,,0,,,,59,64
74550,note_on,0,0,14,,,,,,,,13,,,,40,28
74550,note_off,120,0,14,,,,,,,,13,,,,35,64
74580,note_on,0,0,13,,,,,,,,12,,,,47,25
74580,note_off,120,0,13,,,,,,,,12,,,,51,64
74580,note_off,120,0,8,,,,,,,,6,,,,51,64
74580,note_on,0,0,8,,,,,,,,6,,,,47,25
74580,note_off,120,0,9,,,,,,,,7,,,,39,64
74580,note_on,0,0,9,,,,,,,,7,,,,35,25
74670,note_on,0,0,14,,,,,,,,13,,,,35,27
74670,note_off,120,0,14,,,,,,,,13,,,,40,64
74700,note_off,120,0,13,,,,,,,,12,,,,47,64
74700,note_on,0,0,13,,,,,,,,12,,,,51,24
74700,note_on,0,0,9,,,,,,,,7,,,,39,24
74700,note_off,120,0,8,,,,,,,,6,,,,47,64
74700,note_on,160,0,2,,,,,,,,0,,,,47,30
74700,note_on,0,0,2,,,,,,,,0,,,,59,30
74700,note_on,0,0,8,,,,,,,,6,,,,51,24
74700,note_on,0,0,2,,,,,,,,0,,,,63,30
74700,note_off,120,0,9,,,,,,,,7,,,,35,64
74710,note_off,400,0,15,,,,,,,,14,,,,40,64
74780,note_off,0,0,2,,,,,,,,0,,,,59,64
74780,note_off,80,0,2,,,,,,,,0,,,,63,64
74780,note_off,0,0,2,,,,,,,,0,,,,47,64
74790,note_off,120,0,14,,,,,,,,13,,,,35,64
74790,note_on,0,0,14,,,,,,,,13,,,,39,26
74790,note_on,80,0,15,,,,,,,,14,,,,35,30
74820,note_on,0,0,9,,,,,,,,7,,,,35,23
74820,note_off,120,0,9,,,,,,,,7,,,,39,64
74820,note_on,0,0,8,,,,,,,,6,,,,47,23
74820,note_off,120,0,8,,,,,,,,6,,,,51,64
74820,note_on,0,0,13,,,,,,,,12,,,,47,23
74820,note_off,120,0,13,,,,,,,,12,,,,51,64
74860,note_off,400,0,3,,,,,,,,1,,,,83,64
74860,note_off,400,0,4,,,,,,,,2,,,,83,64
74860,note_off,400,0,1,,,,,,,,0,,,,71,64
74910,note_on,0,0,14,,,,,,,,13,,,,35,25
74910,note_off,120,0,14,,,,,,,,13,,,,39,64
74940,note_on,0,0,8,,,,,,,,6,,,,51,22
74940,note_off,120,0,8,,,,,,,,6,,,,47,64
74940,note_on,0,0,2,,,,,,,,0,,,,63,30
74940,note_on,0,0,2,,,,,,,,0,,,,59,30
74940,note_on,160,0,2,,,,,,,,0,,,,47,30
74940,note_on,0,0,13,,,,,,,,12,,,,51,22
74940,note_off,120,0,13,,,,,,,,12,,,,47,64
74940,note_off,120,0,9,,,,,,,,7,,,,35,64
74940,note_on,0,0,9,,,,,,,,7,,,,39,22
75020,note_off,0,0,2,,,,,,,,0,,,,47,64
75020,note_off,80,0,2,,,,,,,,0,,,,63,64
75020,note_off,0,0,2,,,,,,,,0,,,,59,64
75030,note_on,0,0,14,,,,,,,,13,,,,39,24
75030,note_off,120,0,14,,,,,,,,13,,,,35,64
75060,note_off,120,0,13,,,,,,,,12,,,,51,64
75060,note_on,0,0,8,,,,,,,,6,,,,47,21
75060,note_off,120,0,8,,,,,,,,6,,,,51,64
75060,note_on,0,0,13,,,,,,,,12,,,,47,21
75060,note_off,120,0,9,,,,,,,,7,,,,39,64
75060,note_on,0,0,9,,,,,,,,7,,,,35,21
75150,note_off,120,0,14,,,,,,,,13,,,,39,64
75150,note_on,0,0,14,,,,,,,,13,,,,35,23
75180,note_off,120,0,8,,,,,,,,6,,,,47,64
75180,note_on,0,0,8,,,,,,,,6,,,,51,20
75180,note_on,0,0,13,,,,,,,,12,,,,51,20
75180,note_on,0,0,2,,,,,,,,0,,,,63,30
75180,note_on,0,0,2,,,,,,,,0,,,,59,30
75180,note_on,320,0,3,,,,,,,,1,,,,71,30
75180,note_off,120,0,13,,,,,,,,12,,,,47,64
75180,note_on,320,0,4,,,,,,,,2,,,,71,22
75180,note_on,0,0,9,,,,,,,,7,,,,39,20
75180,note_off,120,0,9,,,,,,,,7,,,,35,64
75180,note_on,160,0,2,,,,,,,,0,,,,47,30
75180,note_on,320,0,1,,,,,,,,0,,,,59,40
75190,note_off,400,0,15,,,,,,,,14,,,,35,64
75240,note_off,60,0,1,,,,,,,,0,,,,59,64
75240,note_off,60,0,4,,,,,,,,2,,,,71,64
75240,note_on,0,0,3,,,,,,,,1,,,,73,29
75240,note_on,0,0,4,,,,,,,,2,,,,73,22
75240,note_on,0,0,1,,,,,,,,0,,,,61,40
75240,note_off,60,0,3,,,,,,,,1,,,,71,64
75260,note_off,0,0,2,,,,,,,,0,,,,47,64
75260,note_off,0,0,2,,,,,,,,0,,,,59,64
75260,note_off,80,0,2,,,,,,,,0,,,,63,64
75270,note_on,80,0,15,,,,,,,,14,,,,35,30
75270,note_on,0,0,14,,,,,,,,13,,,,39,22
75270,note_off,120,0,14,,,,,,,,13,,,,35,64
75270,note_off,30,0,1,,,,,,,,0,,,,61,64
75270,note_on,0,0,1,,,,,,,,0,,,,63,40
75270,note_off,30,0,4,,,,,,,,2,,,,73,64
75270,note_on,0,0,4,,,,,,,,2,,,,75,22
75270,note_off,30,0,3,,,,,,,,1,,,,73,64
75270,note_on,0,0,3,,,,,,,,1,,,,75,29
75300,note_off,120,0,9,,,,,,,,7,,,,39,64
75300,note_off,30,0,4,,,,,,,,2,,,,75,64
75300,note_on,0,0,4,,,,,,,,2,,,,76,22
75300,note_on,0,0,9,,,,,,,,7,,,,35,19
75300,note_on,0,0,8,,,,,,,,6,,,,47,19
75300,note_off,120,0,13,,,,,,,,12,,,,51,64
75300,note_off,30,0,1,,,,,,,,0,,,,63,64
75300,note_off,120,0,8,,,,,,,,6,,,,51,64
75300,note_off,30,0,3,,,,,,,,1,,,,75,64
75300,note_on,0,0,3,,,,,,,,1,,,,76,29
75300,note_on,0,0,1,,,,,,,,0,,,,64,40
75300,note_on,0,0,13,,,,,,,,12,,,,47,19
75330,note_off,30,0,3,,,,,,,,1,,,,76,64
75330,note_on,0,0,3,,,,,,,,1,,,,78,29
75330,note_off,30,0,1,,,,,,,,0,,,,64,64
75330,note_on,0,0,1,,,,,,,,0,,,,66,40
75330,note_off,30,0,4,,,,,,,,2,,,,76,64
75330,note_on,0,0,4,,,,,,,,2,,,,78,22
75360,note_off,30,0,3,,,,,,,,1,,,,78,64
75360,note_on,0,0,3,,,,,,,,1,,,,80,29
75360,note_on,0,0,4,,,,,,,,2,,,,80,22
75360,note_off,30,0,1,,,,,,,,0,,,,66,64
75360,note_on,0,0,1,,,,,,,,0,,,,68,40
75360,note_off,30,0,4,,,,,,,,2,,,,78,64
75390,note_off,120,0,14,,,,,,,,13,,,,39,64
75390,note_off,30,0,1,,,,,,,,0,,,,68,64
75390,note_on,0,0,1,,,,,,,,0,,,,69,40
75390,note_off,30,0,3,,,,,,,,1,,,,80,64
75390,note_off,30,0,4,,,,,,,,2,,,,80,64
75390,note_on,0,0,4,,,,,,,,2,,,,81,22
75390,note_on,0,0,3,,,,,,,,1,,,,81,29
75390,note_on,0,0,14,,,,,,,,13,,,,35,21
75415,note_off,115,0,9,,,,,,,,7,,,,35,64
75415,note_off,115,0,8,,,,,,,,6,,,,47,64
75415,note_off,115,0,13,,,,,,,,12,,,,47,64
75420,note_off,30,0,3,,,,,,,,1,,,,81,64
75420,note_on,0,0,3,,,,,,,,1,,,,83,29
75420,note_on,160,0,2,,,,,,,,0,,,,35,30
75420,note_off,960,0,11,,,,,,,,10,,,,78,64
75420,note_on,0,0,11,,,,,,,,10,,,,76,17
75420,note_off,1920,0,12,,,,,,,,11,,,,59,64
75420,note_on,0,0,10,,,,,,,,8,,,,80,17
75420,note_on,0,0,7,,,,,,,,5,,,,59,17
75420,note_off,1920,0,7,,,,,,,,5,,,,59,64
75420,note_on,0,0,1,,,,,,,,0,,,,71,40
75420,note_off,30,0,1,,,,,,,,0,,,,69,64
75420,note_off,960,0,6,,,,,,,,4,,,,78,64
75420,note_on,0,0,6,,,,,,,,4,,,,76,30
75420,note_on,0,0,2,,,,,,,,0,,,,47,30
75420,note_on,0,0,2,,,,,,,,0,,,,52,30
75420,note_on,5,0,8,,,,,,,,6,,,,52,18
75420,note_on,0,0,4,,,,,,,,2,,,,83,22
75420,note_off,960,0,10,,,,,,,,8,,,,81,64
75420,note_on,5,0,9,,,,,,,,7,,,,40,18
75420,note_off,30,0,4,,,,,,,,2,,,,81,64
75420,note_on,0,0,12,,,,,,,,11,,,,59,17
75420,note_on,0,0,5,,,,,,,,3,,,,80,30
75420,note_off,960,0,5,,,,,,,,3,,,,81,64
75420,note_on,5,0,13,,,,,,,,12,,,,52,18
75500,note_off,80,0,2,,,,,,,,0,,,,52,64
75500,note_off,0,0,2,,,,,,,,0,,,,47,64
75500,note_off,0,0,2,,,,,,,,0,,,,35,64
75510,note_off,120,0,14,,,,,,,,13,,,,35,64
75510,note_on,0,0,14,,,,,,,,13,,,,39,20
75540,note_off,120,0,8,,,,,,,,6,,,,52,64
75540,note_off,120,0,9,,,,,,,,7,,,,40,64
75540,note_on,0,0,13,,,,,,,,12,,,,47,17
75540,note_off,120,0,13,,,,,,,,12,,,,52,64
75540,note_on,0,0,8,,,,,,,,6,,,,47,17
75540,note_on,0,0,9,,,,,,,,7,,,,35,17
75630,note_off,120,0,14,,,,,,,,13,,,,39,64
75630,note_on,0,0,14,,,,,,,,13,,,,35,19
75660,note_off,120,0,8,,,,,,,,6,,,,47,64
75660,note_on,0,0,13,,,,,,,,12,,,,52,16
75660,note_on,0,0,8,,,,,,,,6,,,,52,16
75660,note_off,120,0,13,,,,,,,,12,,,,47,64
75660,note_on,0,0,2,,,,,,,,0,,,,52,30
75660,note_off,120,0,9,,,,,,,,7,,,,35,64
75660,note_on,160,0,2,,,,,,,,0,,,,35,30
75660,note_on,0,0,2,,,,,,,,0,,,,47,30
75660,note_on,0,0,9,,,,,,,,7,,,,40,16
75670,note_off,400,0,15,,,,,,,,14,,,,35,64
75740,note_off,0,0,2,,,,,,,,0,,,,35,64
75740,note_off,0,0,2,,,,,,,,0,,,,47,64
75740,note_off,80,0,2,,,,,,,,0,,,,52,64
75745,note_off,115,0,14,,,,,,,,13,,,,35,64
75750,note_on,80,0,15,,,,,,,,14,,,,40,30
75750,note_on,5,0,14,,,,,,,,13,,,,40,18
75780,note_on,0,0,9,,,,,,,,7,,,,35,15
75780,note_on,0,0,13,,,,,,,,12,,,,47,15
75780,note_off,120,0,13,,,,,,,,12,,,,52,64
75780,note_on,0,0,8,,,,,,,,6,,,,47,15
75780,note_off,120,0,9,,,,,,,,7,,,,40,64
75780,note_off,120,0,8,,,,,,,,6,,,,52,64
75820,note_off,400,0,4,,,,,,,,2,,,,83,64
75820,note_off,400,0,3,,,,,,,,1,,,,83,64
75820,note_off,400,0,1,,,,,,,,0,,,,71,64
75870,note_off,120,0,14,,,,,,,,13,,,,40,64
75870,note_on,0,0,14,,,,,,,,13,,,,35,17
75900,note_off,120,0,8,,,,,,,,6,,,,47,64
75900,note_off,120,0,9,,,,,,,,7,,,,35,64
75900,note_off,120,0,13,,,,,,,,12,,,,47,64
75900,note_on,0,0,13,,,,,,,,12,,,,52,14
75900,note_on,0,0,2,,,,,,,,0,,,,52,30
75900,note_on,160,0,2,,,,,,,,0,,,,35,30
75900,note_on,0,0,2,,,,,,,,0,,,,47,30
75900,note_on,0,0,9,,,,,,,,7,,,,40,14
75900,note_on,0,0,8,,,,,,,,6,,,,52,14
75980,note_off,0,0,2,,,,,,,,0,,,,35,64
75980,note_off,80,0,2,,,,,,,,0,,,,52,64
75980,note_off,0,0,2,,,,,,,,0,,,,47,64
75990,note_off,120,0,14,,,,,,,,13,,,,35,64
75990,note_on,0,0,14,,,,,,,,13,,,,40,16
76020,note_on,0,0,9,,,,,,,,7,,,,35,13
76020,note_off,120,0,9,,,,,,,,7,,,,40,64
76020,note_off,120,0,13,,,,,,,,12,,,,52,64
76020,note_on,0,0,8,,,,,,,,6,,,,47,13
76020,note_off,120,0,8,,,,,,,,6,,,,52,64
76020,note_on,0,0,13,,,,,,,,12,,,,47,13
76110,note_on,0,0,14,,,,,,,,13,,,,35,15
76110,note_off,120,0,14,,,,,,,,13,,,,40,64
76140,note_on,320,0,1,,,,,,,,0,,,,59,33
76140,note_on,0,0,2,,,,,,,,0,,,,52,30
76140,note_on,0,0,13,,,,,,,,12,,,,52,12
76140,note_off,120,0,13,,,,,,,,12,,,,47,64
76140,note_on,320,0,3,,,,,,,,1,,,,71,15
76140,note_on,0,0,2,,,,,,,,0,,,,47,30
76140,note_on,160,0,2,,,,,,,,0,,,,35,30
76140,note_on,0,0,8,,,,,,,,6,,,,52,12
76140,note_on,0,0,9,,,,,,,,7,,,,40,12
76140,note_off,120,0,9,,,,,,,,7,,,,35,64
76140,note_off,120,0,8,,,,,,,,6,,,,47,64
76140,note_on,320,0,4,,,,,,,,2,,,,71,13
76150,note_off,400,0,15,,,,,,,,14,,,,40,64
76200,note_off,60,0,3,,,,,,,,1,,,,71,64
76200,note_on,0,0,3,,,,,,,,1,,,,73,14
76200,note_on,0,0,1,,,,,,,,0,,,,61,33
76200,note_off,60,0,4,,,,,,,,2,,,,71,64
76200,note_off,60,0,1,,,,,,,,0,,,,59,64
76200,note_on,0,0,4,,,,,,,,2,,,,73,13
76220,note_off,0,0,2,,,,,,,,0,,,,47,64
76220,note_off,80,0,2,,,,,,,,0,,,,52,64
76220,note_off,0,0,2,,,,,,,,0,,,,35,64
76230,note_on,0,0,3,,,,,,,,1,,,,75,14
76230,note_on,0,0,4,,,,,,,,2,,,,75,13
76230,note_on,0,0,1,,,,,,,,0,,,,63,33
76230,note_off,30,0,3,,,,,,,,1,,,,73,64
76230,note_off,30,0,4,,,,,,,,2,,,,73,64
76230,note_on,80,0,15,,,,,,,,14,,,,40,30
76230,note_off,30,0,1,,,,,,,,0,,,,61,64
76230,note_off,120,0,14,,,,,,,,13,,,,35,64
76230,note_on,0,0,14,,,,,,,,13,,,,40,14
76260,note_on,0,0,3,,,,,,,,1,,,,76,14
76260,note_off,30,0,3,,,,,,,,1,,,,75,64
76260,note_off,120,0,9,,,,,,,,7,,,,40,64
76260,note_off,30,0,1,,,,,,,,0,,,,63,64
76260,note_off,120,0,8,,,,,,,,6,,,,52,64
76260,note_on,0,0,1,,,,,,,,0,,,,64,33
76260,note_on,0,0,8,,,,,,,,6,,,,47,11
76260,note_off,30,0,4,,,,,,,,2,,,,75,64
76260,note_on,0,0,4,,,,,,,,2,,,,76,13
76260,note_on,0,0,9,,,,,,,,7,,,,35,11
76260,note_on,0,0,13,,,,,,,,12,,,,47,11
76260,note_off,120,0,13,,,,,,,,12,,,,52,64
76290,note_on,0,0,1,,,,,,,,0,,,,66,33
76290,note_on,0,0,4,,,,,,,,2,,,,78,13
76290,note_off,30,0,1,,,,,,,,0,,,,64,64
76290,note_off,30,0,3,,,,,,,,1,,,,76,64
76290,note_on,0,0,3,,,,,,,,1,,,,78,13
76290,note_off,30,0,4,,,,,,,,2,,,,76,64
76320,note_on,0,0,4,,,,,,,,2,,,,80,12
76320,note_on,0,0,1,,,,,,,,0,,,,68,32
76320,note_off,30,0,3,,,,,,,,1,,,,78,64
76320,note_on,0,0,3,,,,,,,,1,,,,80,12
76320,note_off,30,0,1,,,,,,,,0,,,,66,64
76320,note_off,30,0,4,,,,,,,,2,,,,78,64
76350,note_off,30,0,4,,,,,,,,2,,,,80,64
76350,note_on,0,0,4,,,,,,,,2,,,,81,11
76350,note_on,0,0,3,,,,,,,,1,,,,81,11
76350,note_off,30,0,3,,,,,,,,1,,,,80,64
76350,note_on,0,0,14,,,,,,,,13,,,,35,13
76350,note_off,120,0,14,,,,,,,,13,,,,40,64
76350,note_off,30,0,1,,,,,,,,0,,,,68,64
76350,note_on,0,0,1,,,,,,,,0,,,,69,31
76380,note_on,0,0,13,,,,,,,,12,,,,47,10
76380,note_on,0,0,5,,,,,,,,3,,,,78,30
76380,note_on,160,0,2,,,,,,,,0,,,,35,30
76380,note_on,0,0,4,,,,,,,,2,,,,83,10
76380,note_off,30,0,4,,,,,,,,2,,,,81,64
76380,note_off,960,0,5,,,,,,,,3,,,,80,64
76380,note_off,960,0,12,,,,,,,,11,,,,59,64
76380,note_on,0,0,12,,,,,,,,11,,,,59,10
76380,note_off,30,0,1,,,,,,,,0,,,,69,64
76380,note_on,0,0,1,,,,,,,,0,,,,71,30
76380,note_on,0,0,8,,,,,,,,6,,,,47,10
76380,note_off,120,0,8,,,,,,,,6,,,,47,64
76380,note_off,960,0,6,,,,,,,,4,,,,76,64
76380,note_on,0,0,2,,,,,,,,0,,,,47,30
76380,note_on,0,0,2,,,,,,,,0,,,,54,30
76380,note_on,0,0,2,,,,,,,,0,,,,59,30
76380,note_on,0,0,7,,,,,,,,5,,,,59,10
76380,note_off,960,0,7,,,,,,,,5,,,,59,64
76380,note_off,120,0,13,,,,,,,,12,,,,47,64
76380,note_on,0,0,6,,,,,,,,4,,,,75,30
76380,note_on,0,0,11,,,,,,,,10,,,,75,10
76380,note_off,960,0,11,,,,,,,,10,,,,76,64
76380,note_off,120,0,9,,,,,,,,7,,,,35,64
76380,note_off,960,0,10,,,,,,,,8,,,,80,64
76380,note_on,0,0,9,,,,,,,,7,,,,35,10
76380,note_on,0,0,10,,,,,,,,8,,,,78,10
76380,note_off,30,0,3,,,,,,,,1,,,,81,64
76380,note_on,0,0,3,,,,,,,,1,,,,83,10
76470,note_off,120,0,14,,,,,,,,13,,,,35,64
76470,note_on,0,0,14,,,,,,,,13,,,,40,12
76500,note_off,0,0,2,,,,,,,,0,,,,47,64
76500,note_off,120,0,2,,,,,,,,0,,,,59,64
76500,note_off,0,0,2,,,,,,,,0,,,,35,64
76500,note_off,0,0,2,,,,,,,,0,,,,54,64
76590,note_off,120,0,14,,,,,,,,13,,,,40,64
76590,note_on,0,0,14,,,,,,,,13,,,,35,11
76630,note_off,400,0,15,,,,,,,,14,,,,40,64
76710,note_off,120,0,14,,,,,,,,13,,,,35,64
76710,note_on,0,0,14,,,,,,,,13,,,,35,10
76710,note_on,80,0,15,,,,,,,,14,,,,35,30
76780,note_off,400,0,13,,,,,,,,12,,,,47,64
76780,note_off,400,0,4,,,,,,,,2,,,,83,64
76780,note_off,400,0,3,,,,,,,,1,,,,83,64
76780,note_off,400,0,7,,,,,,,,5,,,,59,64
76780,note_off,400,0,9,,,,,,,,7,,,,35,64
76780,note_off,400,0,6,,,,,,,,4,,,,75,64
76780,note_off,400,0,11,,,,,,,,10,,,,75,64
76780,note_off,400,0,8,,,,,,,,6,,,,47,64
76780,note_off,400,0,12,,,,,,,,11,,,,59,64
76780,note_off,400,0,1,,,,,,,,0,,,,71,64
76780,note_off,400,0,5,,,,,,,,3,,,,78,64
76780,note_off,400,0,10,,,,,,,,8,,,,78,64
77110,note_off,400,0,14,,,,,,,,13,,,,35,64
77110,note_off,400,0,15,,,,,,,,14,,,,35,64
77160,note_on,380,0,13,,,,,,,,12,,,,47,75
77160,note_on,380,0,8,,,,,,,,6,,,,47,75
77160,note_on,380,0,11,,,,,,,,10,,,,75,75
77160,note_on,380,0,9,,,,,,,,7,,,,35,75
77160,note_on,380,0,5,,,,,,,,3,,,,71,92
77160,note_on,380,0,7,,,,,,,,5,,,,66,75
77160,note_on,380,0,12,,,,,,,,11,,,,66,75
77160,note_on,380,0,10,,,,,,,,8,,,,71,75
77160,note_on,380,0,6,,,,,,,,4,,,,66,92
77240,note_off,80,0,12,,,,,,,,11,,,,66,64
77240,note_off,80,0,13,,,,,,,,12,,,,47,64
77240,note_off,80,0,5,,,,,,,,3,,,,71,64
77240,note_off,80,0,6,,,,,,,,4,,,,66,64
77240,note_off,80,0,8,,,,,,,,6,,,,47,64
77240,note_off,80,0,11,,,,,,,,10,,,,75,64
77240,note_off,80,0,10,,,,,,,,8,,,,71,64
77240,note_off,80,0,7,,,,,,,,5,,,,66,64
77240,note_off,80,0,9,,,,,,,,7,,,,35,64
77400,note_on,160,0,12,,,,,,,,11,,,,59,75
77400,note_on,160,0,6,,,,,,,,4,,,,75,92
77400,note_on,620,0,1,,,,,,,,0,,,,59,60
77400,note_on,160,0,11,,,,,,,,10,,,,75,75
77400,note_on,0,0,1,,,,,,,,0,,,,66,60
77400,note_on,160,0,8,,,,,,,,6,,,,47,75
77400,note_on,160,0,7,,,,,,,,5,,,,59,75
77400,note_on,160,0,5,,,,,,,,3,,,,78,92
77400,note_on,160,0,10,,,,,,,,8,,,,78,75
77400,note_on,900,0,2,,,,,,,,0,,,,35,60
77400,note_on,0,0,2,,,,,,,,0,,,,42,60
77400,note_on,0,0,2,,,,,,,,0,,,,47,60
77400,note_on,160,0,13,,,,,,,,12,,,,47,75
77400,note_on,0,0,1,,,,,,,,0,,,,63,60
77400,note_on,160,0,9,,,,,,,,7,,,,35,75
77480,note_off,80,0,5,,,,,,,,3,,,,78,64
77480,note_off,80,0,10,,,,,,,,8,,,,78,64
77480,note_off,80,0,11,,,,,,,,10,,,,75,64
77480,note_off,80,0,6,,,,,,,,4,,,,75,64
77490,note_on,380,0,14,,,,,,,,13,,,,35,75
77570,note_off,80,0,14,,,,,,,,13,,,,35,64
77640,note_on,160,0,11,,,,,,,,10,,,,73,75
77640,note_on,160,0,5,,,,,,,,3,,,,76,92
77640,note_on,160,0,6,,,,,,,,4,,,,73,92
77640,note_on,160,0,10,,,,,,,,8,,,,76,75
77720,note_off,80,0,11,,,,,,,,10,,,,73,64
77720,note_off,80,0,10,,,,,,,,8,,,,76,64
77720,note_off,80,0,5,,,,,,,,3,,,,76,64
77720,note_off,80,0,6,,,,,,,,4,,,,73,64
77730,note_on,620,0,15,,,,,,,,14,,,,35,75
77730,note_on,160,0,14,,,,,,,,13,,,,35,75
77760,note_on,40,0,5,,,,,,,,3,,,,75,92
77760,note_on,40,0,11,,,,,,,,10,,,,71,75
77760,note_on,40,0,6,,,,,,,,4,,,,71,92
77760,note_on,40,0,10,,,,,,,,8,,,,75,75
77800,note_off,400,0,12,,,,,,,,11,,,,59,64
77800,note_off,400,0,1,,,,,,,,0,,,,66,64
77800,note_off,0,0,1,,,,,,,,0,,,,63,64
77800,note_off,0,0,2,,,,,,,,0,,,,35,64
77800,note_off,0,0,2,,,,,,,,0,,,,42,64
77800,note_off,400,0,13,,,,,,,,12,,,,47,64
77800,note_off,400,0,2,,,,,,,,0,,,,47,64
77800,note_off,400,0,7,,,,,,,,5,,,,59,64
77800,note_off,400,0,9,,,,,,,,7,,,,35,64
77800,note_off,400,0,8,,,,,,,,6,,,,47,64
77800,note_off,0,0,1,,,,,,,,0,,,,59,64
77840,note_off,80,0,11,,,,,,,,10,,,,71,64
77840,note_off,80,0,5,,,,,,,,3,,,,75,64
77840,note_off,80,0,10,,,,,,,,8,,,,75,64
77840,note_off,80,0,6,,,,,,,,4,,,,71,64
77880,note_on,0,0,1,,,,,,,,0,,,,63,60
77880,note_on,80,0,1,,,,,,,,0,,,,59,60
77880,note_on,80,0,2,,,,,,,,0,,,,35,60
77880,note_on,0,0,2,,,,,,,,0,,,,42,60
77880,note_on,0,0,2,,,,,,,,0,,,,47,60
77880,note_on,0,0,1,,,,,,,,0,,,,66,60
77880,note_on,40,0,11,,,,,,,,10,,,,73,75
77880,note_on,80,0,9,,,,,,,,7,,,,35,75
77880,note_on,40,0,6,,,,,,,,4,,,,73,92
77880,note_on,80,0,8,,,,,,,,6,,,,47,75
77880,note_on,40,0,10,,,,,,,,8,,,,76,75
77880,note_on,40,0,5,,,,,,,,3,,,,76,92
77880,note_on,80,0,12,,,,,,,,11,,,,59,75
77880,note_on,80,0,13,,,,,,,,12,,,,47,75
77880,note_on,80,0,7,,,,,,,,5,,,,59,75
77960,note_off,80,0,5,,,,,,,,3,,,,76,64
77960,note_off,80,0,11,,,,,,,,10,,,,73,64
77960,note_off,80,0,10,,,,,,,,8,,,,76,64
77960,note_off,80,0,6,,,,,,,,4,,,,73,64
78120,note_on,160,0,6,,,,,,,,4,,,,75,92
78120,note_on,160,0,11,,,,,,,,10,,,,75,75
78120,note_on,160,0,10,,,,,,,,8,,,,78,75
78120,note_on,160,0,5,,,,,,,,3,,,,78,92
78130,note_off,400,0,14,,,,,,,,13,,,,35,64
78130,note_off,400,0,15,,,,,,,,14,,,,35,64
78200,note_off,80,0,11,,,,,,,,10,,,,75,64
78200,note_off,80,0,10,,,,,,,,8,,,,78,64
78200,note_off,80,0,6,,,,,,,,4,,,,75,64
78200,note_off,80,0,5,,,,,,,,3,,,,78,64
78210,note_on,80,0,14,,,,,,,,13,,,,35,75
78210,note_on,80,0,15,,,,,,,,14,,,,35,75
78280,note_off,400,0,13,,,,,,,,12,,,,47,64
78280,note_off,400,0,9,,,,,,,,7,,,,35,64
78280,note_off,0,0,2,,,,,,,,0,,,,35,64
78280,note_off,400,0,8,,,,,,,,6,,,,47,64
78280,note_off,0,0,2,,,,,,,,0,,,,42,64
78280,note_off,400,0,7,,,,,,,,5,,,,59,64
78280,note_off,0,0,1,,,,,,,,0,,,,59,64
78280,note_off,0,0,1,,,,,,,,0,,,,63,64
78280,note_off,400,0,1,,,,,,,,0,,,,66,64
78280,note_off,400,0,2,,,,,,,,0,,,,47,64
78280,note_off,400,0,12,,,,,,,,11,,,,59,64
78360,note_on,160,0,11,,,,,,,,10,,,,76,75
78360,note_on,160,0,5,,,,,,,,3,,,,80,92
78360,note_on,0,0,1,,,,,,,,0,,,,64,60
78360,note_on,80,0,7,,,,,,,,5,,,,64,75
78360,note_on,80,0,13,,,,,,,,12,,,,47,75
78360,note_on,80,0,12,,,,,,,,11,,,,64,75
78360,note_on,0,0,1,,,,,,,,0,,,,68,60
78360,note_on,80,0,1,,,,,,,,0,,,,59,60
78360,note_on,160,0,6,,,,,,,,4,,,,76,92
78360,note_on,80,0,8,,,,,,,,6,,,,47,75
78360,note_on,80,0,2,,,,,,,,0,,,,35,60
78360,note_on,0,0,2,,,,,,,,0,,,,42,60
78360,note_on,80,0,9,,,,,,,,7,,,,35,75
78360,note_on,0,0,2,,,,,,,,0,,,,47,60
78360,note_on,160,0,10,,,,,,,,8,,,,80,75
78440,note_off,80,0,12,,,,,,,,11,,,,64,64
78440,note_off,80,0,7,,,,,,,,5,,,,64,64
78440,note_off,80,0,11,,,,,,,,10,,,,76,64
78440,note_off,80,0,5,,,,,,,,3,,,,80,64
78440,note_off,0,0,1,,,,,,,,0,,,,59,64
78440,note_off,80,0,6,,,,,,,,4,,,,76,64
78440,note_off,80,0,1,,,,,,,,0,,,,68,64
78440,note_off,0,0,1,,,,,,,,0,,,,64,64
78440,note_off,80,0,10,,,,,,,,8,,,,80,64
78600,note_on,160,0,6,,,,,,,,4,,,,75,92
78600,note_on,160,0,7,,,,,,,,5,,,,59,75
78600,note_on,160,0,11,,,,,,,,10,,,,75,75
78600,note_on,160,0,10,,,,,,,,8,,,,78,75
78600,note_on,160,0,5,,,,,,,,3,,,,78,92
78600,note_on,160,0,12,,,,,,,,11,,,,59,75
78600,note_on,160,0,1,,,,,,,,0,,,,59,60
78600,note_on,0,0,1,,,,,,,,0,,,,66,60
78600,note_on,0,0,1,,,,,,,,0,,,,63,60
78610,note_off,400,0,15,,,,,,,,14,,,,35,64
78610,note_off,400,0,14,,,,,,,,13,,,,35,64
78690,note_on,80,0,14,,,,,,,,13,,,,35,75
78690,note_on,80,0,15,,,,,,,,14,,,,35,75
78760,note_off,400,0,8,,,,,,,,6,,,,47,64
78760,note_off,0,0,2,,,,,,,,0,,,,35,64
78760,note_off,400,0,13,,,,,,,,12,,,,47,64
78760,note_off,400,0,9,,,,,,,,7,,,,35,64
78760,note_off,400,0,2,,,,,,,,0,,,,47,64
78760,note_off,0,0,2,,,,,,,,0,,,,42,64
78840,note_on,80,0,13,,,,,,,,12,,,,47,75
78840,note_on,0,0,2,,,,,,,,0,,,,47,60
78840,note_on,0,0,2,,,,,,,,0,,,,42,60
78840,note_on,80,0,2,,,,,,,,0,,,,35,60
78840,note_on,80,0,9,,,,,,,,7,,,,35,75
78840,note_on,80,0,8,,,,,,,,6,,,,47,75
79000,note_off,400,0,6,,,,,,,,4,,,,75,64
79000,note_off,400,0,7,,,,,,,,5,,,,59,64
79000,note_off,400,0,10,,,,,,,,8,,,,78,64
79000,note_off,0,0,1,,,,,,,,0,,,,59,64
79000,note_off,0,0,1,,,,,,,,0,,,,63,64
79000,note_off,400,0,1,,,,,,,,0,,,,66,64
79000,note_off,400,0,12,,,,,,,,11,,,,59,64
79000,note_off,400,0,5,,,,,,,,3,,,,78,64
79000,note_off,400,0,11,,,,,,,,10,,,,75,64
79080,note_on,80,0,10,,,,,,,,8,,,,71,30
79080,note_on,80,0,11,,,,,,,,10,,,,68,30
79080,note_on,80,0,12,,,,,,,,11,,,,66,30
79080,note_on,80,0,6,,,,,,,,4,,,,66,45
79080,note_on,80,0,7,,,,,,,,5,,,,66,30
79080,note_on,80,0,5,,,,,,,,3,,,,71,45
79090,note_off,400,0,15,,,,,,,,14,,,,35,64
79090,note_off,400,0,14,,,,,,,,13,,,,35,64
79160,note_off,80,0,11,,,,,,,,10,,,,68,64
79160,note_off,80,0,12,,,,,,,,11,,,,66,64
79160,note_off,80,0,7,,,,,,,,5,,,,66,64
79160,note_off,80,0,10,,,,,,,,8,,,,71,64
79160,note_off,80,0,5,,,,,,,,3,,,,71,64
79160,note_off,80,0,6,,,,,,,,4,,,,66,64
79170,note_on,80,0,14,,,,,,,,13,,,,35,75
79170,note_on,80,0,15,,,,,,,,14,,,,35,75
79240,note_off,400,0,2,,,,,,,,0,,,,47,64
79240,note_off,400,0,13,,,,,,,,12,,,,47,64
79240,note_off,400,0,9,,,,,,,,7,,,,35,64
79240,note_off,0,0,2,,,,,,,,0,,,,35,64
79240,note_off,0,0,2,,,,,,,,0,,,,42,64
79240,note_off,400,0,8,,,,,,,,6,,,,47,64
79320,note_on,80,0,13,,,,,,,,12,,,,47,30
79320,note_on,80,0,8,,,,,,,,6,,,,47,30
79320,note_on,160,0,11,,,,,,,,10,,,,75,30
79320,note_on,160,0,12,,,,,,,,11,,,,59,30
79320,note_on,80,0,2,,,,,,,,0,,,,35,30
79320,note_on,160,0,10,,,,,,,,8,,,,78,30
79320,note_on,0,0,2,,,,,,,,0,,,,47,30
79320,note_on,0,0,1,,,,,,,,0,,,,66,30
79320,note_on,160,0,5,,,,,,,,3,,,,78,45
79320,note_on,0,0,2,,,,,,,,0,,,,42,30
79320,note_on,80,0,9,,,,,,,,7,,,,35,30
79320,note_on,160,0,7,,,,,,,,5,,,,59,30
79320,note_on,160,0,6,,,,,,,,4,,,,75,45
79320,note_on,0,0,1,,,,,,,,0,,,,63,30
79320,note_on,320,0,1,,,,,,,,0,,,,59,30
79400,note_off,80,0,10,,,,,,,,8,,,,78,64
79400,note_off,80,0,11,,,,,,,,10,,,,75,64
79400,note_off,80,0,5,,,,,,,,3,,,,78,64
79400,note_off,80,0,6,,,,,,,,4,,,,75,64
79560,note_on,160,0,11,,,,,,,,10,,,,73,30
79560,note_on,160,0,5,,,,,,,,3,,,,76,45
79560,note_on,160,0,6,,,,,,,,4,,,,73,45
79560,note_on,160,0,10,,,,,,,,8,,,,76,30
79570,note_off,400,0,14,,,,,,,,13,,,,35,64
79570,note_off,400,0,15,,,,,,,,14,,,,35,64
79640,note_off,80,0,10,,,,,,,,8,,,,76,64
79640,note_off,80,0,5,,,,,,,,3,,,,76,64
79640,note_off,80,0,6,,,,,,,,4,,,,73,64
79640,note_off,80,0,11,,,,,,,,10,,,,73,64
79650,note_on,80,0,15,,,,,,,,14,,,,35,30
79650,note_on,80,0,14,,,,,,,,13,,,,35,30
79680,note_on,40,0,6,,,,,,,,4,,,,71,45
79680,note_on,40,0,10,,,,,,,,8,,,,75,30
79680,note_on,40,0,5,,,,,,,,3,,,,75,45
79680,note_on,40,0,11,,,,,,,,10,,,,71,30
79720,note_off,400,0,8,,,,,,,,6,,,,47,64
79720,note_off,0,0,1,,,,,,,,0,,,,63,64
79720,note_off,0,0,1,,,,,,,,0,,,,59,64
79720,note_off,400,0,1,,,,,,,,0,,,,66,64
79720,note_off,400,0,7,,,,,,,,5,,,,59,64
79720,note_off,400,0,13,,,,,,,,12,,,,47,64
79720,note_off,0,0,2,,,,,,,,0,,,,35,64
79720,note_off,0,0,2,,,,,,,,0,,,,42,64
79720,note_off,400,0,2,,,,,,,,0,,,,47,64
79720,note_off,400,0,12,,,,,,,,11,,,,59,64
79720,note_off,400,0,9,,,,,,,,7,,,,35,64
79760,note_off,80,0,11,,,,,,,,10,,,,71,64
79760,note_off,80,0,5,,,,,,,,3,,,,75,64
79760,note_off,80,0,10,,,,,,,,8,,,,75,64
79760,note_off,80,0,6,,,,,,,,4,,,,71,64
79800,note_on,80,0,9,,,,,,,,7,,,,35,30
79800,note_on,40,0,11,,,,,,,,10,,,,73,30
79800,note_on,80,0,7,,,,,,,,5,,,,59,30
79800,note_on,40,0,5,,,,,,,,3,,,,76,45
79800,note_on,40,0,10,,,,,,,,8,,,,76,30
79800,note_on,0,0,1,,,,,,,,0,,,,63,30
79800,note_on,0,0,2,,,,,,,,0,,,,42,30
79800,note_on,0,0,2,,,,,,,,0,,,,47,30
79800,note_on,80,0,1,,,,,,,,0,,,,59,30
79800,note_on,40,0,6,,,,,,,,4,,,,73,45
79800,note_on,80,0,8,,,,,,,,6,,,,47,30
79800,note_on,80,0,12,,,,,,,,11,,,,59,30
79800,note_on,0,0,1,,,,,,,,0,,,,66,30
79800,note_on,80,0,2,,,,,,,,0,,,,35,30
79800,note_on,80,0,13,,,,,,,,12,,,,47,30
79880,note_off,80,0,11,,,,,,,,10,,,,73,64
79880,note_off,80,0,6,,,,,,,,4,,,,73,64
79880,note_off,80,0,5,,,,,,,,3,,,,76,64
79880,note_off,80,0,10,,,,,,,,8,,,,76,64
80040,note_on,160,0,6,,,,,,,,4,,,,75,45
80040,note_on,160,0,10,,,,,,,,8,,,,78,30
80040,note_on,160,0,5,,,,,,,,3,,,,78,45
80040,note_on,160,0,11,,,,,,,,10,,,,75,30
80050,note_off,400,0,14,,,,,,,,13,,,,35,64
80050,note_off,400,0,15,,,,,,,,14,,,,35,64
80120,note_off,80,0,5,,,,,,,,3,,,,78,64
80120,note_off,80,0,6,,,,,,,,4,,,,75,64
80120,note_off,80,0,11,,,,,,,,10,,,,75,64
80120,note_off,80,0,10,,,,,,,,8,,,,78,64
80130,note_on,80,0,14,,,,,,,,13,,,,35,30
80130,note_on,80,0,15,,,,,,,,14,,,,35,30
80200,note_off,400,0,13,,,,,,,,12,,,,47,64
80200,note_off,400,0,9,,,,,,,,7,,,,35,64
80200,note_off,400,0,2,,,,,,,,0,,,,47,64
80200,note_off,0,0,1,,,,,,,,0,,,,59,64
80200,note_off,0,0,1,,,,,,,,0,,,,63,64
80200,note_off,400,0,1,,,,,,,,0,,,,66,64
80200,note_off,400,0,7,,,,,,,,5,,,,59,64
80200,note_off,400,0,12,,,,,,,,11,,,,59,64
80200,note_off,0,0,2,,,,,,,,0,,,,42,64
80200,note_off,0,0,2,,,,,,,,0,,,,35,64
80200,note_off,400,0,8,,,,,,,,6,,,,47,64
80280,note_on,160,0,11,,,,,,,,10,,,,76,30
80280,note_on,80,0,12,,,,,,,,11,,,,64,30
80280,note_on,160,0,10,,,,,,,,8,,,,80,30
80280,note_on,80,0,9,,,,,,,,7,,,,35,30
80280,note_on,80,0,8,,,,,,,,6,,,,47,30
80280,note_on,0,0,2,,,,,,,,0,,,,42,30
80280,note_on,0,0,2,,,,,,,,0,,,,47,30
80280,note_on,80,0,13,,,,,,,,12,,,,47,30
80280,note_on,80,0,1,,,,,,,,0,,,,59,30
80280,note_on,0,0,1,,,,,,,,0,,,,64,30
80280,note_on,160,0,5,,,,,,,,3,,,,80,45
80280,note_on,0,0,1,,,,,,,,0,,,,68,30
80280,note_on,80,0,7,,,,,,,,5,,,,64,30
80280,note_on,160,0,6,,,,,,,,4,,,,76,45
80280,note_on,80,0,2,,,,,,,,0,,,,35,30
80360,note_off,80,0,7,,,,,,,,5,,,,64,64
80360,note_off,80,0,12,,,,,,,,11,,,,64,64
80360,note_off,80,0,1,,,,,,,,0,,,,68,64
80360,note_off,0,0,1,,,,,,,,0,,,,64,64
80360,note_off,0,0,1,,,,,,,,0,,,,59,64
80360,note_off,80,0,11,,,,,,,,10,,,,76,64
80360,note_off,80,0,6,,,,,,,,4,,,,76,64
80360,note_off,80,0,10,,,,,,,,8,,,,80,64
80360,note_off,80,0,5,,,,,,,,3,,,,80,64
80520,note_on,160,0,11,,,,,,,,10,,,,75,30
80520,note_on,160,0,1,,,,,,,,0,,,,59,30
80520,note_on,160,0,6,,,,,,,,4,,,,75,45
80520,note_on,0,0,1,,,,,,,,0,,,,66,30
80520,note_on,0,0,1,,,,,,,,0,,,,63,30
80520,note_on,160,0,7,,,,,,,,5,,,,59,30
80520,note_on,160,0,10,,,,,,,,8,,,,78,30
80520,note_on,160,0,12,,,,,,,,11,,,,59,30
80520,note_on,160,0,5,,,,,,,,3,,,,78,45
80530,note_off,400,0,14,,,,,,,,13,,,,35,64
80530,note_off,400,0,15,,,,,,,,14,,,,35,64
80610,note_on,80,0,15,,,,,,,,14,,,,35,30
80610,note_on,80,0,14,,,,,,,,13,,,,35,30
80680,note_off,400,0,13,,,,,,,,12,,,,47,64
80680,note_off,400,0,9,,,,,,,,7,,,,35,64
80680,note_off,400,0,2,,,,,,,,0,,,,47,64
80680,note_off,0,0,2,,,,,,,,0,,,,35,64
80680,note_off,0,0,2,,,,,,,,0,,,,42,64
80680,note_off,400,0,8,,,,,,,,6,,,,47,64
80760,note_on,80,0,9,,,,,,,,7,,,,35,30
80760,note_on,80,0,13,,,,,,,,12,,,,47,30
80760,note_on,80,0,2,,,,,,,,0,,,,35,30
80760,note_on,0,0,2,,,,,,,,0,,,,47,30
80760,note_on,80,0,8,,,,,,,,6,,,,47,30
80760,note_on,0,0,2,,,,,,,,0,,,,42,30
80920,note_off,400,0,1,,,,,,,,0,,,,66,64
80920,note_off,400,0,12,,,,,,,,11,,,,59,64
80920,note_off,400,0,11,,,,,,,,10,,,,75,64
80920,note_off,400,0,6,,,,,,,,4,,,,75,64
80920,note_off,400,0,7,,,,,,,,5,,,,59,64
80920,note_off,0,0,1,,,,,,,,0,,,,63,64
80920,note_off,0,0,1,,,,,,,,0,,,,59,64
80920,note_off,400,0,10,,,,,,,,8,,,,78,64
80920,note_off,400,0,5,,,,,,,,3,,,,78,64
81000,note_on,80,0,7,,,,,,,,5,,,,63,75
81000,note_on,80,0,5,,,,,,,,3,,,,71,92
81000,note_on,80,0,12,,,,,,,,11,,,,63,75
81000,note_on,80,0,11,,,,,,,,10,,,,66,75
81000,note_on,80,0,6,,,,,,,,4,,,,66,92
81000,note_on,80,0,10,,,,,,,,8,,,,71,75
81010,note_off,400,0,14,,,,,,,,13,,,,35,64
81010,note_off,400,0,15,,,,,,,,14,,,,35,64
81080,note_off,80,0,12,,,,,,,,11,,,,63,64
81080,note_off,80,0,10,,,,,,,,8,,,,71,64
81080,note_off,80,0,11,,,,,,,,10,,,,66,64
81080,note_off,80,0,5,,,,,,,,3,,,,71,64
81080,note_off,80,0,7,,,,,,,,5,,,,63,64
81080,note_off,80,0,6,,,,,,,,4,,,,66,64
81090,note_on,80,0,15,,,,,,,,14,,,,35,30
81090,note_on,80,0,14,,,,,,,,13,,,,35,30
81160,note_off,0,0,2,,,,,,,,0,,,,35,64
81160,note_off,400,0,8,,,,,,,,6,,,,47,64
81160,note_off,400,0,9,,,,,,,,7,,,,35,64
81160,note_off,0,0,2,,,,,,,,0,,,,42,64
81160,note_off,400,0,2,,,,,,,,0,,,,47,64
81160,note_off,400,0,13,,,,,,,,12,,,,47,64
81240,note_on,0,0,1,,,,,,,,0,,,,68,60
81240,note_on,0,0,2,,,,,,,,0,,,,47,60
81240,note_on,0,0,1,,,,,,,,0,,,,64,60
81240,note_on,320,0,1,,,,,,,,0,,,,59,60
81240,note_on,0,0,2,,,,,,,,0,,,,42,60
81240,note_on,160,0,11,,,,,,,,10,,,,76,75
81240,note_on,80,0,8,,,,,,,,6,,,,47,75
81240,note_on,160,0,12,,,,,,,,11,,,,64,75
81240,note_on,160,0,5,,,,,,,,3,,,,80,92
81240,note_on,80,0,2,,,,,,,,0,,,,35,60
81240,note_on,160,0,6,,,,,,,,4,,,,76,92
81240,note_on,160,0,10,,,,,,,,8,,,,80,75
81240,note_on,80,0,9,,,,,,,,7,,,,35,75
81240,note_on,160,0,7,,,,,,,,5,,,,64,75
81240,note_on,80,0,13,,,,,,,,12,,,,47,75
81320,note_off,80,0,12,,,,,,,,11,,,,64,64
81320,note_off,80,0,10,,,,,,,,8,,,,80,64
81320,note_off,80,0,7,,,,,,,,5,,,,64,64
81320,note_off,80,0,1,,,,,,,,0,,,,68,64
81320,note_off,80,0,5,,,,,,,,3,,,,80,64
81320,note_off,80,0,11,,,,,,,,10,,,,76,64
81320,note_off,80,0,6,,,,,,,,4,,,,76,64
81320,note_off,0,0,1,,,,,,,,0,,,,59,64
81320,note_off,0,0,1,,,,,,,,0,,,,64,64
81480,note_on,160,0,11,,,,,,,,10,,,,75,75
81480,note_on,0,0,1,,,,,,,,0,,,,66,60
81480,note_on,0,0,1,,,,,,,,0,,,,63,60
81480,note_on,160,0,10,,,,,,,,8,,,,78,75
81480,note_on,160,0,1,,,,,,,,0,,,,59,60
81480,note_on,160,0,5,,,,,,,,3,,,,78,92
81480,note_on,160,0,7,,,,,,,,5,,,,59,75
81480,note_on,160,0,12,,,,,,,,11,,,,59,75
81480,note_on,160,0,6,,,,,,,,4,,,,75,92
81490,note_off,400,0,15,,,,,,,,14,,,,35,64
81490,note_off,400,0,14,,,,,,,,13,,,,35,64
81560,note_off,80,0,7,,,,,,,,5,,,,59,64
81560,note_off,80,0,12,,,,,,,,11,,,,59,64
81570,note_on,80,0,14,,,,,,,,13,,,,35,75
81570,note_on,80,0,15,,,,,,,,14,,,,35,75
81640,note_off,400,0,13,,,,,,,,12,,,,47,64
81640,note_off,400,0,2,,,,,,,,0,,,,47,64
81640,note_off,0,0,2,,,,,,,,0,,,,42,64
81640,note_off,0,0,2,,,,,,,,0,,,,35,64
81640,note_off,400,0,8,,,,,,,,6,,,,47,64
81640,note_off,400,0,9,,,,,,,,7,,,,35,64
81720,note_on,0,0,2,,,,,,,,0,,,,42,60
81720,note_on,80,0,2,,,,,,,,0,,,,35,60
81720,note_on,80,0,9,,,,,,,,7,,,,35,75
81720,note_on,0,0,2,,,,,,,,0,,,,47,60
81720,note_on,80,0,13,,,,,,,,12,,,,47,75
81720,note_on,80,0,8,,,,,,,,6,,,,47,75
81720,note_on,160,0,7,,,,,,,,5,,,,63,75
81720,note_on,160,0,12,,,,,,,,11,,,,63,75
81800,note_off,80,0,2,,,,,,,,0,,,,47,64
81800,note_off,0,0,2,,,,,,,,0,,,,42,64
81800,note_off,0,0,2,,,,,,,,0,,,,35,64
81800,note_off,80,0,12,,,,,,,,11,,,,63,64
81800,note_off,80,0,9,,,,,,,,7,,,,35,64
81800,note_off,80,0,8,,,,,,,,6,,,,47,64
81800,note_off,80,0,7,,,,,,,,5,,,,63,64
81800,note_off,80,0,13,,,,,,,,12,,,,47,64
81880,note_off,400,0,6,,,,,,,,4,,,,75,64
81880,note_off,400,0,10,,,,,,,,8,,,,78,64
81880,note_off,400,0,5,,,,,,,,3,,,,78,64
81880,note_off,0,0,1,,,,,,,,0,,,,59,64
81880,note_off,0,0,1,,,,,,,,0,,,,63,64
81880,note_off,400,0,1,,,,,,,,0,,,,66,64
81880,note_off,400,0,11,,,,,,,,10,,,,75,64
81960,note_on,160,0,12,,,,,,,,11,,,,70,75
81960,note_on,160,0,8,,,,,,,,6,,,,54,75
81960,note_on,160,0,13,,,,,,,,12,,,,54,75
81960,note_on,160,0,7,,,,,,,,5,,,,70,75
81960,note_on,80,0,10,,,,,,,,8,,,,76,75
81960,note_on,80,0,11,,,,,,,,10,,,,73,75
81960,note_on,0,0,1,,,,,,,,0,,,,64,60
81960,note_on,80,0,5,,,,,,,,3,,,,76,92
81960,note_on,80,0,1,,,,,,,,0,,,,61,60
81960,note_on,80,0,6,,,,,,,,4,,,,73,92
81960,note_on,160,0,9,,,,,,,,7,,,,42,75
81960,note_on,0,0,2,,,,,,,,0,,,,54,60
81960,note_on,160,0,2,,,,,,,,0,,,,42,60
81970,note_off,400,0,15,,,,,,,,14,,,,35,64
81970,note_off,400,0,14,,,,,,,,13,,,,35,64
82040,note_off,80,0,10,,,,,,,,8,,,,76,64
82040,note_off,0,0,2,,,,,,,,0,,,,42,64
82040,note_off,80,0,2,,,,,,,,0,,,,54,64
82040,note_off,80,0,5,,,,,,,,3,,,,76,64
82040,note_off,80,0,8,,,,,,,,6,,,,54,64
82040,note_off,80,0,1,,,,,,,,0,,,,64,64
82040,note_off,80,0,13,,,,,,,,12,,,,54,64
82040,note_off,80,0,6,,,,,,,,4,,,,73,64
82040,note_off,80,0,7,,,,,,,,5,,,,70,64
82040,note_off,80,0,12,,,,,,,,11,,,,70,64
82040,note_off,80,0,11,,,,,,,,10,,,,73,64
82040,note_off,0,0,1,,,,,,,,0,,,,61,64
82040,note_off,80,0,9,,,,,,,,7,,,,42,64
82050,note_on,80,0,14,,,,,,,,13,,,,35,75
82050,note_on,80,0,15,,,,,,,,14,,,,35,75
82130,note_off,80,0,14,,,,,,,,13,,,,35,64
82130,note_off,80,0,15,,,,,,,,14,,,,35,64
82200,note_on,160,0,9,,,,,,,,7,,,,47,75
82200,note_on,160,0,13,,,,,,,,12,,,,59,75
82200,note_on,160,0,11,,,,,,,,10,,,,71,75
82200,note_on,160,0,5,,,,,,,,3,,,,75,92
82200,note_on,0,0,2,,,,,,,,0,,,,59,60
82200,note_on,160,0,2,,,,,,,,0,,,,47,60
82200,note_on,0,0,1,,,,,,,,0,,,,75,60
82200,note_on,160,0,1,,,,,,,,0,,,,63,60
82200,note_on,160,0,8,,,,,,,,6,,,,59,75
82200,note_on,160,0,12,,,,,,,,11,,,,66,75
82200,note_on,160,0,6,,,,,,,,4,,,,71,92
82200,note_on,160,0,10,,,,,,,,8,,,,75,75
82200,note_on,160,0,7,,,,,,,,5,,,,66,75
82280,note_off,80,0,8,,,,,,,,6,,,,59,64
82280,note_off,80,0,1,,,,,,,,0,,,,75,64
82280,note_off,0,0,1,,,,,,,,0,,,,63,64
82280,note_off,80,0,10,,,,,,,,8,,,,75,64
82280,note_off,80,0,2,,,,,,,,0,,,,59,64
82280,note_off,0,0,2,,,,,,,,0,,,,47,64
82280,note_off,80,0,13,,,,,,,,12,,,,59,64
82280,note_off,80,0,9,,,,,,,,7,,,,47,64
82280,note_off,80,0,5,,,,,,,,3,,,,75,64
82290,note_on,160,0,15,,,,,,,,14,,,,42,75
82290,note_on,160,0,14,,,,,,,,13,,,,42,75
82370,note_off,80,0,15,,,,,,,,14,,,,42,64
82370,note_off,80,0,14,,,,,,,,13,,,,42,64
82440,note_on,160,0,9,,,,,,,,7,,,,35,75
82440,note_on,160,0,1,,,,,,,,0,,,,61,60
82440,note_on,0,0,1,,,,,,,,0,,,,73,60
82440,note_on,160,0,13,,,,,,,,12,,,,47,75
82440,note_on,0,0,2,,,,,,,,0,,,,47,60
82440,note_on,160,0,5,,,,,,,,3,,,,73,92
82440,note_on,160,0,10,,,,,,,,8,,,,73,75
82440,note_on,160,0,2,,,,,,,,0,,,,35,60
82440,note_on,160,0,8,,,,,,,,6,,,,47,75
82520,note_off,80,0,10,,,,,,,,8,,,,73,64
82520,note_off,80,0,8,,,,,,,,6,,,,47,64
82520,note_off,80,0,1,,,,,,,,0,,,,73,64
82520,note_off,0,0,1,,,,,,,,0,,,,61,64
82520,note_off,80,0,9,,,,,,,,7,,,,35,64
82520,note_off,80,0,5,,,,,,,,3,,,,73,64
82520,note_off,0,0,2,,,,,,,,0,,,,35,64
82520,note_off,80,0,2,,,,,,,,0,,,,47,64
82520,note_off,80,0,13,,,,,,,,12,,,,47,64
82530,note_on,160,0,14,,,,,,,,13,,,,47,75
82530,note_on,160,0,15,,,,,,,,14,,,,47,75
82560,note_on,40,0,10,,,,,,,,8,,,,71,75
82560,note_on,0,0,1,,,,,,,,0,,,,71,60
82560,note_on,40,0,5,,,,,,,,3,,,,71,92
82560,note_on,40,0,1,,,,,,,,0,,,,59,60
82600,note_off,400,0,6,,,,,,,,4,,,,71,64
82600,note_off,400,0,7,,,,,,,,5,,,,66,64
82600,note_off,400,0,11,,,,,,,,10,,,,71,64
82600,note_off,400,0,12,,,,,,,,11,,,,66,64
82610,note_off,80,0,14,,,,,,,,13,,,,47,64
82610,note_off,80,0,15,,,,,,,,14,,,,47,64
82640,note_off,0,0,1,,,,,,,,0,,,,59,64
82640,note_off,80,0,1,,,,,,,,0,,,,71,64
82640,note_off,80,0,10,,,,,,,,8,,,,71,64
82640,note_off,80,0,5,,,,,,,,3,,,,71,64
82680,note_on,160,0,13,,,,,,,,12,,,,54,75
82680,note_on,40,0,10,,,,,,,,8,,,,73,75
82680,note_on,80,0,7,,,,,,,,5,,,,66,75
82680,note_on,80,0,11,,,,,,,,10,,,,70,75
82680,note_on,160,0,2,,,,,,,,0,,,,42,60
82680,note_on,160,0,9,,,,,,,,7,,,,42,75
82680,note_on,40,0,5,,,,,,,,3,,,,73,92
82680,note_on,80,0,6,,,,,,,,4,,,,70,92
82680,note_on,80,0,12,,,,,,,,11,,,,66,75
82680,note_on,160,0,8,,,,,,,,6,,,,54,75
82680,note_on,0,0,1,,,,,,,,0,,,,73,60
82680,note_on,0,0,1,,,,,,,,0,,,,70,60
82680,note_on,40,0,1,,,,,,,,0,,,,66,60
82680,note_on,0,0,2,,,,,,,,0,,,,54,60
82710,note_on,0,0,11,,,,,,,,10,,,,71,75
82710,note_on,0,0,5,,,,,,,,3,,,,75,92
82710,note_off,30,0,5,,,,,,,,3,,,,73,64
82710,note_off,30,0,11,,,,,,,,10,,,,70,64
82710,note_off,30,0,6,,,,,,,,4,,,,70,64
82710,note_on,0,0,10,,,,,,,,8,,,,75,75
82710,note_off,30,0,10,,,,,,,,8,,,,73,64
82710,note_on,0,0,6,,,,,,,,4,,,,71,92
82740,note_off,30,0,5,,,,,,,,3,,,,75,64
82740,note_on,0,0,6,,,,,,,,4,,,,70,92
82740,note_off,30,0,11,,,,,,,,10,,,,71,64
82740,note_on,0,0,11,,,,,,,,10,,,,70,75
82740,note_on,0,0,10,,,,,,,,8,,,,73,75
82740,note_off,30,0,10,,,,,,,,8,,,,75,64
82740,note_on,0,0,5,,,,,,,,3,,,,73,92
82740,note_off,30,0,6,,,,,,,,4,,,,71,64
82760,note_off,80,0,13,,,,,,,,12,,,,54,64
82760,note_off,80,0,9,,,,,,,,7,,,,42,64
82760,note_off,80,0,8,,,,,,,,6,,,,54,64
82770,note_on,0,0,5,,,,,,,,3,,,,75,92
82770,note_on,0,0,10,,,,,,,,8,,,,75,75
82770,note_off,30,0,10,,,,,,,,8,,,,73,64
82770,note_on,160,0,15,,,,,,,,14,,,,35,75
82770,note_on,160,0,14,,,,,,,,13,,,,35,75
82770,note_off,30,0,5,,,,,,,,3,,,,73,64
82770,note_off,30,0,11,,,,,,,,10,,,,70,64
82770,note_on,0,0,11,,,,,,,,10,,,,71,75
82770,note_off,30,0,6,,,,,,,,4,,,,70,64
82770,note_on,0,0,6,,,,,,,,4,,,,71,92
82800,note_on,0,0,5,,,,,,,,3,,,,73,92
82800,note_off,30,0,5,,,,,,,,3,,,,75,64
82800,note_off,30,0,11,,,,,,,,10,,,,71,64
82800,note_off,30,0,6,,,,,,,,4,,,,71,64
82800,note_on,0,0,6,,,,,,,,4,,,,70,92
82800,note_on,0,0,10,,,,,,,,8,,,,73,75
82800,note_on,0,0,11,,,,,,,,10,,,,70,75
82800,note_off,30,0,10,,,,,,,,8,,,,75,64
82830,note_on,0,0,6,,,,,,,,4,,,,71,92
82830,note_off,30,0,6,,,,,,,,4,,,,70,64
82830,note_off,30,0,10,,,,,,,,8,,,,73,64
82830,note_on,0,0,10,,,,,,,,8,,,,75,75
82830,note_on,0,0,11,,,,,,,,10,,,,71,75
82830,note_off,30,0,11,,,,,,,,10,,,,70,64
82830,note_off,30,0,5,,,,,,,,3,,,,73,64
82830,note_on,0,0,5,,,,,,,,3,,,,75,92
82850,note_off,80,0,14,,,,,,,,13,,,,35,64
82850,note_off,80,0,15,,,,,,,,14,,,,35,64
82860,note_on,0,0,5,,,,,,,,3,,,,73,92
82860,note_off,30,0,6,,,,,,,,4,,,,71,64
82860,note_on,0,0,6,,,,,,,,4,,,,70,92
82860,note_off,30,0,11,,,,,,,,10,,,,71,64
82860,note_off,30,0,10,,,,,,,,8,,,,75,64
82860,note_on,0,0,10,,,,,,,,8,,,,73,75
82860,note_on,0,0,11,,,,,,,,10,,,,70,75
82860,note_off,30,0,5,,,,,,,,3,,,,75,64
82890,note_off,30,0,5,,,,,,,,3,,,,73,64
82890,note_on,0,0,5,,,,,,,,3,,,,75,92
82890,note_on,0,0,6,,,,,,,,4,,,,71,92
82890,note_on,0,0,11,,,,,,,,10,,,,71,75
82890,note_off,30,0,11,,,,,,,,10,,,,70,64
82890,note_on,0,0,10,,,,,,,,8,,,,75,75
82890,note_off,30,0,10,,,,,,,,8,,,,73,64
82890,note_off,30,0,6,,,,,,,,4,,,,70,64
82920,note_off,0,0,2,,,,,,,,0,,,,42,64
82920,note_on,0,0,2,,,,,,,,0,,,,30,60
82920,note_on,0,0,2,,,,,,,,0,,,,42,60
82920,note_on,0,0,1,,,,,,,,0,,,,75,60
82920,note_on,160,0,9,,,,,,,,7,,,,30,75
82920,note_off,30,0,10,,,,,,,,8,,,,75,64
82920,note_on,0,0,10,,,,,,,,8,,,,73,75
82920,note_on,0,0,1,,,,,,,,0,,,,71,60
82920,note_on,0,0,1,,,,,,,,0,,,,66,60
82920,note_off,240,0,1,,,,,,,,0,,,,73,64
82920,note_off,0,0,1,,,,,,,,0,,,,66,64
82920,note_on,0,0,1,,,,,,,,0,,,,78,60
82920,note_off,240,0,2,,,,,,,,0,,,,54,64
82920,note_on,0,0,11,,,,,,,,10,,,,70,75
82920,note_off,30,0,11,,,,,,,,10,,,,71,64
82920,note_off,30,0,5,,,,,,,,3,,,,75,64
82920,note_on,0,0,5,,,,,,,,3,,,,73,92
82920,note_off,0,0,1,,,,,,,,0,,,,70,64
82920,note_on,160,0,13,,,,,,,,12,,,,42,75
82920,note_on,160,0,8,,,,,,,,6,,,,42,75
82920,note_off,30,0,6,,,,,,,,4,,,,71,64
82920,note_on,0,0,6,,,,,,,,4,,,,70,92
82950,note_off,30,0,5,,,,,,,,3,,,,73,64
82950,note_on,0,0,5,,,,,,,,3,,,,75,92
82950,note_on,0,0,10,,,,,,,,8,,,,75,75
82950,note_on,0,0,6,,,,,,,,4,,,,71,92
82950,note_off,30,0,10,,,,,,,,8,,,,73,64
82950,note_on,0,0,11,,,,,,,,10,,,,71,75
82950,note_off,30,0,11,,,,,,,,10,,,,70,64
82950,note_off,30,0,6,,,,,,,,4,,,,70,64
82980,note_on,0,0,5,,,,,,,,3,,,,73,92
82980,note_off,30,0,5,,,,,,,,3,,,,75,64
82980,note_on,0,0,6,,,,,,,,4,,,,70,92
82980,note_off,30,0,10,,,,,,,,8,,,,75,64
82980,note_on,0,0,10,,,,,,,,8,,,,73,75
82980,note_off,30,0,6,,,,,,,,4,,,,71,64
82980,note_off,30,0,11,,,,,,,,10,,,,71,64
82980,note_on,0,0,11,,,,,,,,10,,,,70,75
83000,note_off,80,0,13,,,,,,,,12,,,,42,64
83000,note_off,80,0,9,,,,,,,,7,,,,30,64
83000,note_off,80,0,8,,,,,,,,6,,,,42,64
83010,note_on,160,0,15,,,,,,,,14,,,,42,75
83010,note_on,160,0,14,,,,,,,,13,,,,42,75
83020,note_off,40,0,11,,,,,,,,10,,,,70,64
83020,note_off,40,0,5,,,,,,,,3,,,,73,64
83020,note_off,40,0,10,,,,,,,,8,,,,73,64
83020,note_off,40,0,6,,,,,,,,4,,,,70,64
83040,note_on,20,0,11,,,,,,,,10,,,,68,75
83040,note_on,20,0,5,,,,,,,,3,,,,71,92
83040,note_on,20,0,10,,,,,,,,8,,,,71,75
83040,note_on,20,0,6,,,,,,,,4,,,,66,92
83080,note_off,400,0,12,,,,,,,,11,,,,66,64
83080,note_off,400,0,7,,,,,,,,5,,,,66,64
83090,note_off,80,0,15,,,,,,,,14,,,,42,64
83090,note_off,80,0,14,,,,,,,,13,,,,42,64
83120,note_off,80,0,11,,,,,,,,10,,,,68,64
83120,note_off,80,0,5,,,,,,,,3,,,,71,64
83120,note_off,80,0,10,,,,,,,,8,,,,71,64
83120,note_off,80,0,6,,,,,,,,4,,,,66,64
83155,note_off,235,0,2,,,,,,,,0,,,,42,64
83155,note_off,0,0,1,,,,,,,,0,,,,71,64
83155,note_off,0,0,1,,,,,,,,0,,,,66,64
83155,note_off,235,0,1,,,,,,,,0,,,,78,64
83155,note_off,0,0,2,,,,,,,,0,,,,30,64
83155,note_off,0,0,1,,,,,,,,0,,,,75,64
83160,note_on,0,0,2,,,,,,,,0,,,,47,60
83160,note_on,160,0,8,,,,,,,,6,,,,47,75
83160,note_on,160,0,13,,,,,,,,12,,,,47,75
83160,program_change,160,0,9,,,,,,,,7,,,44,,
83160,note_on,0,0,9,,,,,,,,7,,,,35,75
83160,note_on,80,0,7,,,,,,,,5,,,,63,75
83160,note_on,40,0,5,,,,,,,,3,,,,71,92
83160,note_on,0,0,1,,,,,,,,0,,,,71,60
83160,note_on,5,0,2,,,,,,,,0,,,,35,60
83160,note_on,40,0,10,,,,,,,,8,,,,71,75
83160,note_on,80,0,12,,,,,,,,11,,,,63,75
83160,note_on,5,0,1,,,,,,,,0,,,,59,60
83215,note_off,55,0,12,,,,,,,,11,,,,63,64
83215,note_off,55,0,10,,,,,,,,8,,,,71,64
83215,note_off,55,0,7,,,,,,,,5,,,,63,64
83215,note_off,55,0,5,,,,,,,,3,,,,71,64
83220,note_on,5,0,5,,,,,,,,3,,,,59,92
83220,note_on,5,0,10,,,,,,,,8,,,,59,75
83250,note_on,160,0,14,,,,,,,,13,,,,30,75
83250,note_on,160,0,15,,,,,,,,14,,,,30,75
83275,note_off,55,0,10,,,,,,,,8,,,,59,64
83275,note_off,55,0,5,,,,,,,,3,,,,59,64
83280,note_on,5,0,5,,,,,,,,3,,,,59,92
83280,note_on,5,0,10,,,,,,,,8,,,,59,75
83330,note_off,80,0,15,,,,,,,,14,,,,30,64
83330,note_off,80,0,14,,,,,,,,13,,,,30,64
83335,note_off,55,0,10,,,,,,,,8,,,,59,64
83335,note_off,55,0,5,,,,,,,,3,,,,59,64
83340,note_on,5,0,5,,,,,,,,3,,,,59,92
83340,note_on,5,0,10,,,,,,,,8,,,,59,75
83395,note_off,235,0,13,,,,,,,,12,,,,47,64
83395,note_off,235,0,8,,,,,,,,6,,,,47,64
83395,note_off,55,0,5,,,,,,,,3,,,,59,64
83395,note_off,55,0,10,,,,,,,,8,,,,59,64
83400,note_on,5,0,13,,,,,,,,12,,,,47,75
83400,note_on,5,0,5,,,,,,,,3,,,,59,92
83400,note_on,5,0,8,,,,,,,,6,,,,47,75
83400,note_on,5,0,10,,,,,,,,8,,,,59,75
83455,note_off,55,0,5,,,,,,,,3,,,,59,64
83455,note_off,55,0,10,,,,,,,,8,,,,59,64
83460,note_on,5,0,10,,,,,,,,8,,,,59,75
83460,note_on,5,0,5,,,,,,,,3,,,,59,92
83490,note_on,160,0,14,,,,,,,,13,,,,35,75
83490,note_on,160,0,15,,,,,,,,14,,,,47,75
83515,note_off,55,0,5,,,,,,,,3,,,,59,64
83515,note_off,55,0,10,,,,,,,,8,,,,59,64
83520,note_on,5,0,5,,,,,,,,3,,,,59,92
83520,note_on,5,0,10,,,,,,,,8,,,,59,75
83560,note_off,0,0,2,,,,,,,,0,,,,35,64
83560,note_off,400,0,2,,,,,,,,0,,,,47,64
83560,note_off,0,0,1,,,,,,,,0,,,,59,64
83560,note_off,400,0,1,,,,,,,,0,,,,71,64
83560,note_off,400,0,9,,,,,,,,7,,,,35,64
83575,note_off,55,0,10,,,,,,,,8,,,,59,64
83575,note_off,55,0,5,,,,,,,,3,,,,59,64
83580,note_on,5,0,10,,,,,,,,8,,,,59,75
83580,note_on,5,0,5,,,,,,,,3,,,,59,92
83635,note_off,235,0,13,,,,,,,,12,,,,47,64
83635,note_off,235,0,8,,,,,,,,6,,,,47,64
83635,note_off,55,0,5,,,,,,,,3,,,,59,64
83635,note_off,55,0,10,,,,,,,,8,,,,59,64
83640,note_on,5,0,5,,,,,,,,3,,,,59,92
83640,note_on,80,0,9,,,,,,,,7,,,,35,75
83640,note_on,5,0,10,,,,,,,,8,,,,59,75
83640,note_on,5,0,13,,,,,,,,12,,,,47,75
83640,note_on,5,0,8,,,,,,,,6,,,,47,75
83695,note_off,55,0,5,,,,,,,,3,,,,59,64
83695,note_off,55,0,10,,,,,,,,8,,,,59,64
83700,note_on,5,0,5,,,,,,,,3,,,,59,92
83700,note_on,5,0,10,,,,,,,,8,,,,59,75
83755,note_off,55,0,5,,,,,,,,3,,,,59,64
83755,note_off,55,0,10,,,,,,,,8,,,,59,64
83760,note_on,5,0,5,,,,,,,,3,,,,59,92
83760,note_on,5,0,10,,,,,,,,8,,,,59,75
83815,note_off,55,0,10,,,,,,,,8,,,,59,64
83815,note_off,55,0,5,,,,,,,,3,,,,59,64
83820,note_on,5,0,5,,,,,,,,3,,,,59,92
83820,note_on,5,0,10,,,,,,,,8,,,,59,75
83875,note_off,55,0,10,,,,,,,,8,,,,59,64
83875,note_off,235,0,8,,,,,,,,6,,,,47,64
83875,note_off,235,0,13,,,,,,,,12,,,,47,64
83875,note_off,55,0,5,,,,,,,,3,,,,59,64
83880,note_on,5,0,8,,,,,,,,6,,,,47,75
83880,note_on,5,0,13,,,,,,,,12,,,,47,75
83880,note_on,5,0,10,,,,,,,,8,,,,59,75
83880,note_on,5,0,5,,,,,,,,3,,,,59,92
83890,note_off,400,0,14,,,,,,,,13,,,,35,64
83935,note_off,55,0,5,,,,,,,,3,,,,59,64
83935,note_off,55,0,10,,,,,,,,8,,,,59,64
83940,note_on,5,0,5,,,,,,,,3,,,,59,92
83940,note_on,5,0,10,,,,,,,,8,,,,59,75
83970,note_on,80,0,14,,,,,,,,13,,,,35,75
83995,note_off,55,0,10,,,,,,,,8,,,,59,64
83995,note_off,55,0,5,,,,,,,,3,,,,59,64
84000,note_on,5,0,5,,,,,,,,3,,,,59,92
84000,note_on,5,0,10,,,,,,,,8,,,,59,75
84040,note_off,400,0,9,,,,,,,,7,,,,35,64
84055,note_off,55,0,5,,,,,,,,3,,,,59,64
84055,note_off,55,0,10,,,,,,,,8,,,,59,64
84060,note_on,5,0,5,,,,,,,,3,,,,59,92
84060,note_on,5,0,10,,,,,,,,8,,,,59,75
84115,note_off,55,0,5,,,,,,,,3,,,,59,64
84115,note_off,235,0,13,,,,,,,,12,,,,47,64
84115,note_off,55,0,10,,,,,,,,8,,,,59,64
84115,note_off,235,0,8,,,,,,,,6,,,,47,64
84120,note_on,5,0,8,,,,,,,,6,,,,47,75
84120,note_on,5,0,5,,,,,,,,3,,,,59,92
84120,note_on,5,0,10,,,,,,,,8,,,,59,75
84120,note_on,5,0,13,,,,,,,,12,,,,47,75
84120,note_on,80,0,9,,,,,,,,7,,,,35,75
84175,note_off,55,0,10,,,,,,,,8,,,,59,64
84175,note_off,55,0,5,,,,,,,,3,,,,59,64
84180,note_on,5,0,10,,,,,,,,8,,,,59,75
84180,note_on,5,0,5,,,,,,,,3,,,,59,92
84235,note_off,55,0,10,,,,,,,,8,,,,59,64
84235,note_off,55,0,5,,,,,,,,3,,,,59,64
84240,note_on,5,0,5,,,,,,,,3,,,,59,92
84240,note_on,5,0,10,,,,,,,,8,,,,59,75
84295,note_off,55,0,5,,,,,,,,3,,,,59,64
84295,note_off,55,0,10,,,,,,,,8,,,,59,64
84300,note_on,5,0,5,,,,,,,,3,,,,59,92
84300,note_on,5,0,10,,,,,,,,8,,,,59,75
84355,note_off,235,0,8,,,,,,,,6,,,,47,64
84355,note_off,55,0,5,,,,,,,,3,,,,59,64
84355,note_off,235,0,13,,,,,,,,12,,,,47,64
84355,note_off,55,0,10,,,,,,,,8,,,,59,64
84360,note_on,5,0,5,,,,,,,,3,,,,59,92
84360,note_on,5,0,13,,,,,,,,12,,,,47,75
84360,note_on,5,0,8,,,,,,,,6,,,,47,75
84360,note_on,5,0,10,,,,,,,,8,,,,59,75
84370,note_off,400,0,14,,,,,,,,13,,,,35,64
84415,note_off,55,0,10,,,,,,,,8,,,,59,64
84415,note_off,55,0,5,,,,,,,,3,,,,59,64
84420,note_on,5,0,10,,,,,,,,8,,,,59,75
84420,note_on,5,0,5,,,,,,,,3,,,,59,92
84450,note_on,80,0,14,,,,,,,,13,,,,35,75
84475,note_off,55,0,10,,,,,,,,8,,,,59,64
84475,note_off,55,0,5,,,,,,,,3,,,,59,64
84480,note_on,5,0,10,,,,,,,,8,,,,59,75
84480,note_on,5,0,5,,,,,,,,3,,,,59,92
84520,note_off,400,0,9,,,,,,,,7,,,,35,64
84535,note_off,55,0,5,,,,,,,,3,,,,59,64
84535,note_off,55,0,10,,,,,,,,8,,,,59,64
84540,note_on,5,0,10,,,,,,,,8,,,,59,75
84540,note_on,5,0,5,,,,,,,,3,,,,59,92
84595,note_off,55,0,10,,,,,,,,8,,,,59,64
84595,note_off,55,0,5,,,,,,,,3,,,,59,64
84595,note_off,235,0,13,,,,,,,,12,,,,47,64
84595,note_off,235,0,8,,,,,,,,6,,,,47,64
84600,note_on,5,0,8,,,,,,,,6,,,,47,75
84600,note_on,5,0,13,,,,,,,,12,,,,47,75
84600,note_on,5,0,5,,,,,,,,3,,,,59,92
84600,note_on,5,0,10,,,,,,,,8,,,,59,75
84600,note_on,80,0,9,,,,,,,,7,,,,35,75
84655,note_off,55,0,5,,,,,,,,3,,,,59,64
84655,note_off,55,0,10,,,,,,,,8,,,,59,64
84660,note_on,5,0,5,,,,,,,,3,,,,59,92
84660,note_on,5,0,10,,,,,,,,8,,,,59,75
84715,note_off,55,0,5,,,,,,,,3,,,,59,64
84715,note_off,55,0,10,,,,,,,,8,,,,59,64
84720,note_on,5,0,5,,,,,,,,3,,,,59,92
84720,note_on,5,0,10,,,,,,,,8,,,,59,75
84775,note_off,55,0,10,,,,,,,,8,,,,59,64
84775,note_off,55,0,5,,,,,,,,3,,,,59,64
84780,note_on,5,0,10,,,,,,,,8,,,,59,75
84780,note_on,5,0,5,,,,,,,,3,,,,59,92
84835,note_off,235,0,8,,,,,,,,6,,,,47,64
84835,note_off,55,0,10,,,,,,,,8,,,,59,64
84835,note_off,55,0,5,,,,,,,,3,,,,59,64
84835,note_off,235,0,13,,,,,,,,12,,,,47,64
84840,note_on,5,0,8,,,,,,,,6,,,,47,75
84840,note_on,5,0,5,,,,,,,,3,,,,59,92
84840,note_on,5,0,13,,,,,,,,12,,,,47,75
84840,note_on,5,0,10,,,,,,,,8,,,,59,75
84850,note_off,400,0,14,,,,,,,,13,,,,35,64
84895,note_off,55,0,10,,,,,,,,8,,,,59,64
84895,note_off,55,0,5,,,,,,,,3,,,,59,64
84900,note_on,5,0,10,,,,,,,,8,,,,59,75
84900,note_on,5,0,5,,,,,,,,3,,,,59,92
84930,note_on,80,0,14,,,,,,,,13,,,,35,75
84955,note_off,55,0,5,,,,,,,,3,,,,59,64
84955,note_off,55,0,10,,,,,,,,8,,,,59,64
84960,note_on,5,0,5,,,,,,,,3,,,,59,92
84960,note_on,5,0,10,,,,,,,,8,,,,59,75
85000,note_off,400,0,9,,,,,,,,7,,,,35,64
85015,note_off,55,0,10,,,,,,,,8,,,,59,64
85015,note_off,55,0,5,,,,,,,,3,,,,59,64
85020,note_on,5,0,10,,,,,,,,8,,,,59,75
85020,note_on,5,0,5,,,,,,,,3,,,,59,92
85075,note_off,235,0,8,,,,,,,,6,,,,47,64
85075,note_off,55,0,10,,,,,,,,8,,,,59,64
85075,note_off,235,0,13,,,,,,,,12,,,,47,64
85075,note_off,55,0,5,,,,,,,,3,,,,59,64
85080,note_on,5,0,8,,,,,,,,6,,,,47,75
85080,note_on,1865,0,7,,,,,,,,5,,,,59,75
85080,note_on,5,0,5,,,,,,,,3,,,,71,92
85080,note_on,5,0,10,,,,,,,,8,,,,71,75
85080,program_change,80,0,9,,,,,,,,7,,,48,,
85080,note_on,1865,0,12,,,,,,,,11,,,,59,75
85080,note_on,0,0,9,,,,,,,,7,,,,35,75
85080,note_on,5,0,13,,,,,,,,12,,,,47,75
85140,note_off,60,0,10,,,,,,,,8,,,,71,64
85140,note_on,0,0,5,,,,,,,,3,,,,73,92
85140,note_on,0,0,10,,,,,,,,8,,,,73,75
85140,note_off,60,0,5,,,,,,,,3,,,,71,64
85200,note_on,0,0,10,,,,,,,,8,,,,75,75
85200,note_off,60,0,10,,,,,,,,8,,,,73,64
85200,note_off,60,0,5,,,,,,,,3,,,,73,64
85200,note_on,0,0,5,,,,,,,,3,,,,75,92
85260,note_off,60,0,10,,,,,,,,8,,,,75,64
85260,note_off,60,0,5,,,,,,,,3,,,,75,64
85260,note_on,0,0,5,,,,,,,,3,,,,76,92
85260,note_on,0,0,10,,,,,,,,8,,,,76,75
85290,note_off,1800,0,15,,,,,,,,14,,,,47,64
85315,note_off,235,0,9,,,,,,,,7,,,,35,64
85315,note_off,235,0,7,,,,,,,,5,,,,59,64
85315,note_off,235,0,12,,,,,,,,11,,,,59,64
85315,note_off,235,0,13,,,,,,,,12,,,,47,64
85315,note_off,235,0,8,,,,,,,,6,,,,47,64
85320,note_off,60,0,5,,,,,,,,3,,,,76,64
85320,note_on,0,0,5,,,,,,,,3,,,,78,92
85320,note_off,60,0,10,,,,,,,,8,,,,76,64
85320,note_on,0,0,10,,,,,,,,8,,,,78,75
85330,note_off,400,0,14,,,,,,,,13,,,,35,64
85380,note_on,0,0,10,,,,,,,,8,,,,80,75
85380,note_off,60,0,10,,,,,,,,8,,,,78,64
85380,note_off,60,0,5,,,,,,,,3,,,,78,64
85380,note_on,0,0,5,,,,,,,,3,,,,80,92
85410,note_on,120,0,15,,,,,,,,14,,,,47,75
85410,note_on,80,0,14,,,,,,,,13,,,,35,75
85440,note_off,60,0,5,,,,,,,,3,,,,80,64
85440,note_on,0,0,10,,,,,,,,8,,,,81,75
85440,note_off,60,0,10,,,,,,,,8,,,,80,64
85440,note_on,0,0,5,,,,,,,,3,,,,81,92
85500,note_on,0,0,5,,,,,,,,3,,,,83,92
85500,note_on,0,0,10,,,,,,,,8,,,,83,75
85500,note_off,60,0,10,,,,,,,,8,,,,81,64
85500,note_off,60,0,5,,,,,,,,3,,,,81,64
85555,note_off,55,0,10,,,,,,,,8,,,,83,64
85555,note_off,55,0,5,,,,,,,,3,,,,83,64
85560,note_on,245,0,7,,,,,,,,5,,,,59,75
85560,note_on,245,0,13,,,,,,,,12,,,,47,75
85560,note_on,245,0,9,,,,,,,,7,,,,35,75
85560,note_on,245,0,8,,,,,,,,6,,,,47,75
85560,note_on,245,0,12,,,,,,,,11,,,,59,75
85645,note_off,235,0,14,,,,,,,,13,,,,35,64
85795,note_off,235,0,9,,,,,,,,7,,,,35,64
85795,note_off,235,0,8,,,,,,,,6,,,,47,64
85795,note_off,235,0,12,,,,,,,,11,,,,59,64
85795,note_off,235,0,13,,,,,,,,12,,,,47,64
85795,note_off,235,0,7,,,,,,,,5,,,,59,64
85890,note_on,245,0,14,,,,,,,,13,,,,35,75
86040,note_on,245,0,13,,,,,,,,12,,,,47,75
86040,note_on,485,0,10,,,,,,,,8,,,,71,75
86040,note_on,245,0,7,,,,,,,,5,,,,59,75
86040,note_on,245,0,12,,,,,,,,11,,,,59,75
86040,note_on,485,0,5,,,,,,,,3,,,,71,92
86040,note_on,245,0,9,,,,,,,,7,,,,35,75
86040,note_on,245,0,8,,,,,,,,6,,,,47,75
86100,note_on,0,0,10,,,,,,,,8,,,,73,75
86100,note_off,60,0,5,,,,,,,,3,,,,71,64
86100,note_on,0,0,5,,,,,,,,3,,,,73,92
86100,note_off,60,0,10,,,,,,,,8,,,,71,64
86125,note_off,235,0,14,,,,,,,,13,,,,35,64
86160,note_on,0,0,5,,,,,,,,3,,,,75,92
86160,note_on,0,0,10,,,,,,,,8,,,,75,75
86160,note_off,60,0,10,,,,,,,,8,,,,73,64
86160,note_off,60,0,5,,,,,,,,3,,,,73,64
86220,note_off,60,0,5,,,,,,,,3,,,,75,64
86220,note_on,0,0,10,,,,,,,,8,,,,76,75
86220,note_off,60,0,10,,,,,,,,8,,,,75,64
86220,note_on,0,0,5,,,,,,,,3,,,,76,92
86250,note_off,840,0,15,,,,,,,,14,,,,47,64
86275,note_off,235,0,12,,,,,,,,11,,,,59,64
86275,note_off,235,0,7,,,,,,,,5,,,,59,64
86275,note_off,235,0,9,,,,,,,,7,,,,35,64
86275,note_off,235,0,13,,,,,,,,12,,,,47,64
86275,note_off,235,0,8,,,,,,,,6,,,,47,64
86280,note_off,60,0,5,,,,,,,,3,,,,76,64
86280,note_off,60,0,10,,,,,,,,8,,,,76,64
86280,note_on,0,0,5,,,,,,,,3,,,,78,92
86280,note_on,0,0,10,,,,,,,,8,,,,78,75
86340,note_off,60,0,5,,,,,,,,3,,,,78,64
86340,note_on,0,0,5,,,,,,,,3,,,,80,92
86340,note_off,60,0,10,,,,,,,,8,,,,78,64
86340,note_on,0,0,10,,,,,,,,8,,,,80,75
86370,note_on,245,0,14,,,,,,,,13,,,,35,75
86370,note_on,120,0,15,,,,,,,,14,,,,47,75
86400,note_off,60,0,10,,,,,,,,8,,,,80,64
86400,note_on,0,0,5,,,,,,,,3,,,,81,92
86400,note_off,60,0,5,,,,,,,,3,,,,80,64
86400,note_on,0,0,10,,,,,,,,8,,,,81,75
86460,note_off,60,0,5,,,,,,,,3,,,,81,64
86460,note_on,0,0,10,,,,,,,,8,,,,83,75
86460,note_on,0,0,5,,,,,,,,3,,,,83,92
86460,note_off,60,0,10,,,,,,,,8,,,,81,64
86515,note_off,55,0,10,,,,,,,,8,,,,83,64
86515,note_off,55,0,5,,,,,,,,3,,,,83,64
86520,note_on,245,0,12,,,,,,,,11,,,,59,75
86520,note_on,245,0,7,,,,,,,,5,,,,59,75
86520,note_on,245,0,13,,,,,,,,12,,,,47,75
86520,note_on,245,0,9,,,,,,,,7,,,,35,75
86520,note_on,245,0,8,,,,,,,,6,,,,47,75
86605,note_off,235,0,14,,,,,,,,13,,,,35,64
86755,note_off,235,0,8,,,,,,,,6,,,,47,64
86755,note_off,235,0,7,,,,,,,,5,,,,59,64
86755,note_off,235,0,13,,,,,,,,12,,,,47,64
86755,note_off,235,0,12,,,,,,,,11,,,,59,64
86755,note_off,235,0,9,,,,,,,,7,,,,35,64
86850,note_on,245,0,14,,,,,,,,13,,,,35,75
87000,note_on,245,0,13,,,,,,,,12,,,,47,75
87000,note_on,245,0,8,,,,,,,,6,,,,47,75
87000,program_change,245,0,9,,,,,,,,7,,,44,,
87000,note_on,0,0,9,,,,,,,,7,,,,35,75
87000,note_on,485,0,10,,,,,,,,8,,,,59,75
87000,note_on,485,0,5,,,,,,,,3,,,,59,92
87055,note_off,55,0,5,,,,,,,,3,,,,59,64
87055,note_off,55,0,10,,,,,,,,8,,,,59,64
87060,note_on,5,0,5,,,,,,,,3,,,,59,92
87060,note_on,5,0,10,,,,,,,,8,,,,59,75
87085,note_off,235,0,14,,,,,,,,13,,,,35,64
87115,note_off,55,0,10,,,,,,,,8,,,,59,64
87115,note_off,55,0,5,,,,,,,,3,,,,59,64
87120,note_on,5,0,5,,,,,,,,3,,,,59,92
87120,note_on,5,0,10,,,,,,,,8,,,,59,75
87175,note_off,55,0,5,,,,,,,,3,,,,59,64
87175,note_off,55,0,10,,,,,,,,8,,,,59,64
87180,note_on,5,0,5,,,,,,,,3,,,,59,92
87180,note_on,5,0,10,,,,,,,,8,,,,59,75
87210,note_off,840,0,15,,,,,,,,14,,,,47,64
87235,note_off,55,0,10,,,,,,,,8,,,,59,64
87235,note_off,55,0,5,,,,,,,,3,,,,59,64
87240,note_on,5,0,10,,,,,,,,8,,,,59,75
87240,note_on,5,0,5,,,,,,,,3,,,,59,92
87295,note_off,55,0,5,,,,,,,,3,,,,59,64
87295,note_off,55,0,10,,,,,,,,8,,,,59,64
87300,note_on,5,0,5,,,,,,,,3,,,,59,92
87300,note_on,5,0,10,,,,,,,,8,,,,59,75
87330,note_on,120,0,15,,,,,,,,14,,,,47,75
87330,note_on,245,0,14,,,,,,,,13,,,,35,75
87355,note_off,55,0,5,,,,,,,,3,,,,59,64
87355,note_off,55,0,10,,,,,,,,8,,,,59,64
87360,note_on,5,0,5,,,,,,,,3,,,,59,92
87360,note_on,5,0,10,,,,,,,,8,,,,59,75
87400,note_off,400,0,8,,,,,,,,6,,,,47,64
87400,note_off,400,0,13,,,,,,,,12,,,,47,64
87400,note_off,400,0,9,,,,,,,,7,,,,35,64
87415,note_off,55,0,5,,,,,,,,3,,,,59,64
87415,note_off,55,0,10,,,,,,,,8,,,,59,64
87420,note_on,5,0,10,,,,,,,,8,,,,59,75
87420,note_on,5,0,5,,,,,,,,3,,,,59,92
87475,note_off,55,0,10,,,,,,,,8,,,,59,64
87475,note_off,55,0,5,,,,,,,,3,,,,59,64
87480,note_on,5,0,5,,,,,,,,3,,,,59,92
87480,note_on,80,0,9,,,,,,,,7,,,,35,75
87480,note_on,80,0,13,,,,,,,,12,,,,47,75
87480,note_on,5,0,10,,,,,,,,8,,,,59,75
87480,note_on,80,0,8,,,,,,,,6,,,,47,75
87535,note_off,55,0,5,,,,,,,,3,,,,59,64
87535,note_off,55,0,10,,,,,,,,8,,,,59,64
87540,note_on,5,0,5,,,,,,,,3,,,,59,92
87540,note_on,5,0,10,,,,,,,,8,,,,59,75
87595,note_off,55,0,5,,,,,,,,3,,,,59,64
87595,note_off,55,0,10,,,,,,,,8,,,,59,64
87600,note_on,5,0,5,,,,,,,,3,,,,59,92
87600,note_on,5,0,10,,,,,,,,8,,,,59,75
87655,note_off,55,0,5,,,,,,,,3,,,,59,64
87655,note_off,55,0,10,,,,,,,,8,,,,59,64
87660,note_on,5,0,5,,,,,,,,3,,,,59,92
87660,note_on,5,0,10,,,,,,,,8,,,,59,75
87715,note_off,55,0,5,,,,,,,,3,,,,59,64
87715,note_off,55,0,10,,,,,,,,8,,,,59,64
87720,note_on,5,0,5,,,,,,,,3,,,,59,92
87720,note_on,5,0,10,,,,,,,,8,,,,59,75
87730,note_off,400,0,14,,,,,,,,13,,,,35,64
87775,note_off,55,0,10,,,,,,,,8,,,,59,64
87775,note_off,55,0,5,,,,,,,,3,,,,59,64
87780,note_on,5,0,10,,,,,,,,8,,,,59,75
87780,note_on,5,0,5,,,,,,,,3,,,,59,92
87810,note_on,80,0,14,,,,,,,,13,,,,35,75
87835,note_off,55,0,10,,,,,,,,8,,,,59,64
87835,note_off,55,0,5,,,,,,,,3,,,,59,64
87840,note_on,5,0,5,,,,,,,,3,,,,59,92
87840,note_on,5,0,10,,,,,,,,8,,,,59,75
87880,note_off,400,0,13,,,,,,,,12,,,,47,64
87880,note_off,400,0,9,,,,,,,,7,,,,35,64
87880,note_off,400,0,8,,,,,,,,6,,,,47,64
87895,note_off,55,0,10,,,,,,,,8,,,,59,64
87895,note_off,55,0,5,,,,,,,,3,,,,59,64
87900,note_on,5,0,10,,,,,,,,8,,,,59,75
87900,note_on,5,0,5,,,,,,,,3,,,,59,92
87955,note_off,55,0,5,,,,,,,,3,,,,59,64
87955,note_off,55,0,10,,,,,,,,8,,,,59,64
87960,note_on,5,0,5,,,,,,,,3,,,,57,92
87960,note_on,80,0,8,,,,,,,,6,,,,45,75
87960,note_on,80,0,13,,,,,,,,12,,,,45,75
87960,note_on,80,0,9,,,,,,,,7,,,,33,75
87960,note_on,5,0,10,,,,,,,,8,,,,57,75
88015,note_off,55,0,10,,,,,,,,8,,,,57,64
88015,note_off,55,0,5,,,,,,,,3,,,,57,64
88020,note_on,5,0,10,,,,,,,,8,,,,57,75
88020,note_on,5,0,5,,,,,,,,3,,,,57,92
88075,note_off,55,0,10,,,,,,,,8,,,,57,64
88075,note_off,55,0,5,,,,,,,,3,,,,57,64
88080,note_on,5,0,10,,,,,,,,8,,,,57,75
88080,note_on,5,0,5,,,,,,,,3,,,,57,92
88135,note_off,55,0,10,,,,,,,,8,,,,57,64
88135,note_off,55,0,5,,,,,,,,3,,,,57,64
88140,note_on,5,0,5,,,,,,,,3,,,,57,92
88140,note_on,5,0,10,,,,,,,,8,,,,57,75
88170,note_off,840,0,15,,,,,,,,14,,,,47,64
88195,note_off,55,0,10,,,,,,,,8,,,,57,64
88195,note_off,55,0,5,,,,,,,,3,,,,57,64
88200,note_on,5,0,10,,,,,,,,8,,,,57,75
88200,note_on,5,0,5,,,,,,,,3,,,,57,92
88210,note_off,400,0,14,,,,,,,,13,,,,35,64
88255,note_off,55,0,10,,,,,,,,8,,,,57,64
88255,note_off,55,0,5,,,,,,,,3,,,,57,64
88260,note_on,5,0,10,,,,,,,,8,,,,57,75
88260,note_on,5,0,5,,,,,,,,3,,,,57,92
88290,note_on,80,0,14,,,,,,,,13,,,,33,75
88290,note_on,120,0,15,,,,,,,,14,,,,45,75
88315,note_off,55,0,5,,,,,,,,3,,,,57,64
88315,note_off,55,0,10,,,,,,,,8,,,,57,64
88320,note_on,5,0,5,,,,,,,,3,,,,57,92
88320,note_on,5,0,10,,,,,,,,8,,,,57,75
88360,note_off,400,0,13,,,,,,,,12,,,,45,64
88360,note_off,400,0,8,,,,,,,,6,,,,45,64
88360,note_off,400,0,9,,,,,,,,7,,,,33,64
88375,note_off,55,0,5,,,,,,,,3,,,,57,64
88375,note_off,55,0,10,,,,,,,,8,,,,57,64
88380,note_on,5,0,10,,,,,,,,8,,,,57,75
88380,note_on,5,0,5,,,,,,,,3,,,,57,92
88435,note_off,55,0,10,,,,,,,,8,,,,57,64
88435,note_off,55,0,5,,,,,,,,3,,,,57,64
88440,note_on,5,0,5,,,,,,,,3,,,,57,92
88440,note_on,5,0,10,,,,,,,,8,,,,57,75
88440,note_on,80,0,13,,,,,,,,12,,,,45,75
88440,note_on,80,0,8,,,,,,,,6,,,,45,75
88440,note_on,80,0,9,,,,,,,,7,,,,33,75
88495,note_off,55,0,10,,,,,,,,8,,,,57,64
88495,note_off,55,0,5,,,,,,,,3,,,,57,64
88500,note_on,5,0,10,,,,,,,,8,,,,57,75
88500,note_on,5,0,5,,,,,,,,3,,,,57,92
88555,note_off,55,0,5,,,,,,,,3,,,,57,64
88555,note_off,55,0,10,,,,,,,,8,,,,57,64
88560,note_on,5,0,5,,,,,,,,3,,,,57,92
88560,note_on,5,0,10,,,,,,,,8,,,,57,75
88615,note_off,55,0,5,,,,,,,,3,,,,57,64
88615,note_off,55,0,10,,,,,,,,8,,,,57,64
88620,note_on,5,0,10,,,,,,,,8,,,,57,75
88620,note_on,5,0,5,,,,,,,,3,,,,57,92
88675,note_off,55,0,10,,,,,,,,8,,,,57,64
88675,note_off,55,0,5,,,,,,,,3,,,,57,64
88680,note_on,5,0,5,,,,,,,,3,,,,57,92
88680,note_on,5,0,10,,,,,,,,8,,,,57,75
88690,note_off,400,0,14,,,,,,,,13,,,,33,64
88735,note_off,55,0,5,,,,,,,,3,,,,57,64
88735,note_off,55,0,10,,,,,,,,8,,,,57,64
88740,note_on,5,0,5,,,,,,,,3,,,,57,92
88740,note_on,5,0,10,,,,,,,,8,,,,57,75
88770,note_on,80,0,14,,,,,,,,13,,,,33,75
88795,note_off,55,0,5,,,,,,,,3,,,,57,64
88795,note_off,55,0,10,,,,,,,,8,,,,57,64
88800,note_on,5,0,5,,,,,,,,3,,,,57,92
88800,note_on,5,0,10,,,,,,,,8,,,,57,75
88840,note_off,400,0,9,,,,,,,,7,,,,33,64
88840,note_off,400,0,13,,,,,,,,12,,,,45,64
88840,note_off,400,0,8,,,,,,,,6,,,,45,64
88855,note_off,55,0,10,,,,,,,,8,,,,57,64
88855,note_off,55,0,5,,,,,,,,3,,,,57,64
88860,note_on,5,0,5,,,,,,,,3,,,,57,92
88860,note_on,5,0,10,,,,,,,,8,,,,57,75
88915,note_off,55,0,5,,,,,,,,3,,,,57,64
88915,note_off,55,0,10,,,,,,,,8,,,,57,64
88920,note_on,0,0,1,,,,,,,,0,,,,68,45
88920,note_on,5,0,5,,,,,,,,3,,,,56,92
88920,note_on,80,0,8,,,,,,,,6,,,,44,75
88920,note_on,0,0,9,,,,,,,,7,,,,32,75
88920,program_change,80,0,9,,,,,,,,7,,,48,,
88920,note_on,5,0,10,,,,,,,,8,,,,56,75
88920,note_on,12140,0,4,,,,,,,,2,,,,83,75
88920,note_on,5360,0,1,,,,,,,,0,,,,64,45
88920,note_on,0,0,1,,,,,,,,0,,,,71,45
88920,note_on,12140,0,3,,,,,,,,1,,,,83,92
88920,note_on,80,0,13,,,,,,,,12,,,,44,75
88920,note_on,5360,0,2,,,,,,,,0,,,,44,45
88972,note_off,52,0,3,,,,,,,,1,,,,83,64
88972,note_off,52,0,4,,,,,,,,2,,,,83,64
89000,note_on,28,0,3,,,,,,,,1,,,,80,92
89000,note_on,28,0,4,,,,,,,,2,,,,80,75
89052,note_off,52,0,3,,,,,,,,1,,,,80,64
89052,note_off,52,0,4,,,,,,,,2,,,,80,64
89080,note_on,28,0,3,,,,,,,,1,,,,83,92
89080,note_on,28,0,4,,,,,,,,2,,,,83,75
89130,note_off,840,0,15,,,,,,,,14,,,,45,64
89132,note_off,52,0,3,,,,,,,,1,,,,83,64
89132,note_off,52,0,4,,,,,,,,2,,,,83,64
89160,note_on,28,0,3,,,,,,,,1,,,,88,92
89160,note_on,28,0,4,,,,,,,,2,,,,88,75
89170,note_off,400,0,14,,,,,,,,13,,,,33,64
89212,note_off,52,0,4,,,,,,,,2,,,,88,64
89212,note_off,52,0,3,,,,,,,,1,,,,88,64
89240,note_on,28,0,4,,,,,,,,2,,,,83,75
89240,note_on,28,0,3,,,,,,,,1,,,,83,92
89250,note_on,120,0,15,,,,,,,,14,,,,44,75
89250,note_on,80,0,14,,,,,,,,13,,,,32,75
89292,note_off,52,0,4,,,,,,,,2,,,,83,64
89292,note_off,52,0,3,,,,,,,,1,,,,83,64
89320,note_on,28,0,4,,,,,,,,2,,,,88,75
89320,note_off,400,0,1,,,,,,,,0,,,,71,64
89320,note_on,28,0,3,,,,,,,,1,,,,88,92
89320,note_off,0,0,1,,,,,,,,0,,,,68,64
89320,note_off,400,0,5,,,,,,,,3,,,,56,64
89320,note_off,400,0,2,,,,,,,,0,,,,44,64
89320,note_off,0,0,1,,,,,,,,0,,,,64,64
89320,note_off,400,0,10,,,,,,,,8,,,,56,64
89320,note_off,400,0,8,,,,,,,,6,,,,44,64
89320,note_off,400,0,13,,,,,,,,12,,,,44,64
89320,note_off,400,0,9,,,,,,,,7,,,,32,64
89372,note_off,52,0,3,,,,,,,,1,,,,88,64
89372,note_off,52,0,4,,,,,,,,2,,,,88,64
89400,note_on,28,0,3,,,,,,,,1,,,,83,92
89400,note_on,28,0,4,,,,,,,,2,,,,83,75
89452,note_off,52,0,3,,,,,,,,1,,,,83,64
89452,note_off,52,0,4,,,,,,,,2,,,,83,64
89480,note_on,28,0,4,,,,,,,,2,,,,80,75
89480,note_on,28,0,3,,,,,,,,1,,,,80,92
89532,note_off,52,0,4,,,,,,,,2,,,,80,64
89532,note_off,52,0,3,,,,,,,,1,,,,80,64
89560,note_on,28,0,4,,,,,,,,2,,,,83,75
89560,note_on,28,0,3,,,,,,,,1,,,,83,92
89612,note_off,52,0,4,,,,,,,,2,,,,83,64
89612,note_off,52,0,3,,,,,,,,1,,,,83,64
89640,note_on,28,0,4,,,,,,,,2,,,,88,75
89640,note_on,28,0,3,,,,,,,,1,,,,88,92
89650,note_off,400,0,14,,,,,,,,13,,,,32,64
89650,note_off,400,0,15,,,,,,,,14,,,,44,64
89692,note_off,52,0,3,,,,,,,,1,,,,88,64
89692,note_off,52,0,4,,,,,,,,2,,,,88,64
89720,note_on,28,0,3,,,,,,,,1,,,,83,92
89720,note_on,28,0,4,,,,,,,,2,,,,83,75
89772,note_off,52,0,3,,,,,,,,1,,,,83,64
89772,note_off,52,0,4,,,,,,,,2,,,,83,64
89800,note_on,28,0,4,,,,,,,,2,,,,88,75
89800,note_on,28,0,3,,,,,,,,1,,,,88,92
89852,note_off,52,0,3,,,,,,,,1,,,,88,64
89852,note_off,52,0,4,,,,,,,,2,,,,88,64
89880,note_on,28,0,3,,,,,,,,1,,,,83,92
89880,note_on,28,0,4,,,,,,,,2,,,,83,75
89932,note_off,52,0,3,,,,,,,,1,,,,83,64
89932,note_off,52,0,4,,,,,,,,2,,,,83,64
89960,note_on,28,0,4,,,,,,,,2,,,,80,75
89960,note_on,28,0,3,,,,,,,,1,,,,80,92
90012,note_off,52,0,4,,,,,,,,2,,,,80,64
90012,note_off,52,0,3,,,,,,,,1,,,,80,64
90040,note_on,28,0,4,,,,,,,,2,,,,83,75
90040,note_on,28,0,3,,,,,,,,1,,,,83,92
90092,note_off,52,0,4,,,,,,,,2,,,,83,64
90092,note_off,52,0,3,,,,,,,,1,,,,83,64
90120,note_on,28,0,3,,,,,,,,1,,,,87,92
90120,note_on,28,0,4,,,,,,,,2,,,,87,75
90172,note_off,52,0,3,,,,,,,,1,,,,87,64
90172,note_off,52,0,4,,,,,,,,2,,,,87,64
90200,note_on,28,0,4,,,,,,,,2,,,,83,75
90200,note_on,28,0,3,,,,,,,,1,,,,83,92
90252,note_off,52,0,3,,,,,,,,1,,,,83,64
90252,note_off,52,0,4,,,,,,,,2,,,,83,64
90280,note_on,28,0,4,,,,,,,,2,,,,87,75
90280,note_on,28,0,3,,,,,,,,1,,,,87,92
90332,note_off,52,0,3,,,,,,,,1,,,,87,64
90332,note_off,52,0,4,,,,,,,,2,,,,87,64
90360,note_on,28,0,4,,,,,,,,2,,,,83,75
90360,note_on,28,0,3,,,,,,,,1,,,,83,92
90412,note_off,52,0,4,,,,,,,,2,,,,83,64
90412,note_off,52,0,3,,,,,,,,1,,,,83,64
90440,note_on,28,0,3,,,,,,,,1,,,,80,92
90440,note_on,28,0,4,,,,,,,,2,,,,80,75
90492,note_off,52,0,3,,,,,,,,1,,,,80,64
90492,note_off,52,0,4,,,,,,,,2,,,,80,64
90520,note_on,28,0,3,,,,,,,,1,,,,83,92
90520,note_on,28,0,4,,,,,,,,2,,,,83,75
90572,note_off,52,0,3,,,,,,,,1,,,,83,64
90572,note_off,52,0,4,,,,,,,,2,,,,83,64
90600,note_on,28,0,4,,,,,,,,2,,,,87,75
90600,note_on,28,0,3,,,,,,,,1,,,,87,92
90652,note_off,52,0,4,,,,,,,,2,,,,87,64
90652,note_off,52,0,3,,,,,,,,1,,,,87,64
90680,note_on,28,0,3,,,,,,,,1,,,,83,92
90680,note_on,28,0,4,,,,,,,,2,,,,83,75
90732,note_off,52,0,4,,,,,,,,2,,,,83,64
90732,note_off,52,0,3,,,,,,,,1,,,,83,64
90760,note_on,28,0,4,,,,,,,,2,,,,87,75
90760,note_on,28,0,3,,,,,,,,1,,,,87,92
90812,note_off,52,0,4,,,,,,,,2,,,,87,64
90812,note_off,52,0,3,,,,,,,,1,,,,87,64
90840,note_on,1520,0,9,,,,,,,,7,,,,33,75
90840,note_on,1520,0,10,,,,,,,,8,,,,57,75
90840,note_on,1520,0,8,,,,,,,,6,,,,45,75
90840,note_on,1520,0,13,,,,,,,,12,,,,45,75
90840,note_on,28,0,3,,,,,,,,1,,,,85,60
90840,note_on,1520,0,5,,,,,,,,3,,,,57,92
90840,note_on,28,0,4,,,,,,,,2,,,,85,45
90895,note_off,55,0,10,,,,,,,,8,,,,57,64
90895,note_off,55,0,5,,,,,,,,3,,,,57,64
90900,note_on,5,0,5,,,,,,,,3,,,,57,92
90900,note_on,5,0,10,,,,,,,,8,,,,57,75
90955,note_off,115,0,9,,,,,,,,7,,,,33,64
90955,note_off,115,0,8,,,,,,,,6,,,,45,64
90955,note_off,115,0,13,,,,,,,,12,,,,45,64
90955,note_off,55,0,5,,,,,,,,3,,,,57,64
90955,note_off,55,0,10,,,,,,,,8,,,,57,64
90960,note_on,5,0,13,,,,,,,,12,,,,45,75
90960,note_on,5,0,5,,,,,,,,3,,,,57,92
90960,note_on,5,0,10,,,,,,,,8,,,,57,75
90960,note_on,5,0,9,,,,,,,,7,,,,33,75
90960,note_on,5,0,8,,,,,,,,6,,,,45,75
91015,note_off,55,0,5,,,,,,,,3,,,,57,64
91015,note_off,55,0,10,,,,,,,,8,,,,57,64
91020,note_on,5,0,10,,,,,,,,8,,,,57,75
91020,note_on,5,0,5,,,,,,,,3,,,,57,92
91075,note_off,55,0,10,,,,,,,,8,,,,57,64
91075,note_off,115,0,9,,,,,,,,7,,,,33,64
91075,note_off,115,0,8,,,,,,,,6,,,,45,64
91075,note_off,55,0,5,,,,,,,,3,,,,57,64
91075,note_off,115,0,13,,,,,,,,12,,,,45,64
91080,note_on,5,0,9,,,,,,,,7,,,,33,75
91080,note_on,5,0,13,,,,,,,,12,,,,45,75
91080,note_on,5,0,5,,,,,,,,3,,,,57,92
91080,note_on,5,0,8,,,,,,,,6,,,,45,75
91080,note_on,5,0,10,,,,,,,,8,,,,57,75
91135,note_off,55,0,5,,,,,,,,3,,,,57,64
91135,note_off,55,0,10,,,,,,,,8,,,,57,64
91140,note_on,5,0,5,,,,,,,,3,,,,57,92
91140,note_on,5,0,10,,,,,,,,8,,,,57,75
91170,note_on,1520,0,15,,,,,,,,14,,,,45,75
91170,note_on,1520,0,14,,,,,,,,13,,,,33,75
91195,note_off,55,0,10,,,,,,,,8,,,,57,64
91195,note_off,115,0,13,,,,,,,,12,,,,45,64
91195,note_off,115,0,9,,,,,,,,7,,,,33,64
91195,note_off,115,0,8,,,,,,,,6,,,,45,64
91195,note_off,55,0,5,,,,,,,,3,,,,57,64
91200,note_on,5,0,10,,,,,,,,8,,,,57,75
91200,note_on,5,0,13,,,,,,,,12,,,,45,75
91200,note_on,5,0,9,,,,,,,,7,,,,33,75
91200,note_on,5,0,8,,,,,,,,6,,,,45,75
91200,note_on,5,0,5,,,,,,,,3,,,,57,92
91240,note_off,400,0,4,,,,,,,,2,,,,85,64
91240,note_off,400,0,3,,,,,,,,1,,,,85,64
91255,note_off,55,0,5,,,,,,,,3,,,,57,64
91255,note_off,55,0,10,,,,,,,,8,,,,57,64
91260,note_on,5,0,5,,,,,,,,3,,,,57,92
91260,note_on,5,0,10,,,,,,,,8,,,,57,75
91285,note_off,115,0,14,,,,,,,,13,,,,33,64
91290,note_on,5,0,14,,,,,,,,13,,,,33,75
91315,note_off,115,0,13,,,,,,,,12,,,,45,64
91315,note_off,55,0,5,,,,,,,,3,,,,57,64
91315,note_off,115,0,9,,,,,,,,7,,,,33,64
91315,note_off,55,0,10,,,,,,,,8,,,,57,64
91315,note_off,115,0,8,,,,,,,,6,,,,45,64
91320,note_on,5,0,9,,,,,,,,7,,,,33,75
91320,note_on,5,0,10,,,,,,,,8,,,,57,75
91320,note_on,5,0,13,,,,,,,,12,,,,45,75
91320,note_on,5,0,5,,,,,,,,3,,,,57,92
91320,note_on,5,0,8,,,,,,,,6,,,,45,75
91375,note_off,55,0,10,,,,,,,,8,,,,57,64
91375,note_off,55,0,5,,,,,,,,3,,,,57,64
91380,note_on,5,0,5,,,,,,,,3,,,,57,92
91380,note_on,5,0,10,,,,,,,,8,,,,57,75
91405,note_off,115,0,14,,,,,,,,13,,,,33,64
91410,note_on,5,0,14,,,,,,,,13,,,,33,75
91435,note_off,115,0,8,,,,,,,,6,,,,45,64
91435,note_off,115,0,9,,,,,,,,7,,,,33,64
91435,note_off,55,0,10,,,,,,,,8,,,,57,64
91435,note_off,55,0,5,,,,,,,,3,,,,57,64
91435,note_off,115,0,13,,,,,,,,12,,,,45,64
91440,note_on,5,0,5,,,,,,,,3,,,,57,92
91440,note_on,5,0,10,,,,,,,,8,,,,57,75
91440,note_on,5,0,9,,,,,,,,7,,,,33,75
91440,note_on,5,0,8,,,,,,,,6,,,,45,75
91440,note_on,5,0,13,,,,,,,,12,,,,45,75
91495,note_off,55,0,5,,,,,,,,3,,,,57,64
91495,note_off,55,0,10,,,,,,,,8,,,,57,64
91500,note_on,5,0,10,,,,,,,,8,,,,57,75
91500,note_on,5,0,5,,,,,,,,3,,,,57,92
91525,note_off,115,0,14,,,,,,,,13,,,,33,64
91530,note_on,5,0,14,,,,,,,,13,,,,33,75
91555,note_off,55,0,5,,,,,,,,3,,,,57,64
91555,note_off,115,0,8,,,,,,,,6,,,,45,64
91555,note_off,55,0,10,,,,,,,,8,,,,57,64
91555,note_off,115,0,9,,,,,,,,7,,,,33,64
91555,note_off,115,0,13,,,,,,,,12,,,,45,64
91560,note_on,5,0,8,,,,,,,,6,,,,45,75
91560,note_on,5,0,10,,,,,,,,8,,,,57,75
91560,note_on,5,0,5,,,,,,,,3,,,,57,92
91560,note_on,5,0,9,,,,,,,,7,,,,33,75
91560,note_on,5,0,13,,,,,,,,12,,,,45,75
91615,note_off,55,0,10,,,,,,,,8,,,,57,64
91615,note_off,55,0,5,,,,,,,,3,,,,57,64
91620,note_on,5,0,5,,,,,,,,3,,,,57,92
91620,note_on,5,0,10,,,,,,,,8,,,,57,75
91645,note_off,115,0,14,,,,,,,,13,,,,33,64
91650,note_on,5,0,14,,,,,,,,13,,,,33,75
91675,note_off,115,0,9,,,,,,,,7,,,,33,64
91675,note_off,55,0,5,,,,,,,,3,,,,57,64
91675,note_off,115,0,8,,,,,,,,6,,,,45,64
91675,note_off,55,0,10,,,,,,,,8,,,,57,64
91675,note_off,115,0,13,,,,,,,,12,,,,45,64
91680,note_on,5,0,5,,,,,,,,3,,,,57,92
91680,note_on,5,0,13,,,,,,,,12,,,,45,75
91680,note_on,5,0,9,,,,,,,,7,,,,33,75
91680,note_on,5,0,8,,,,,,,,6,,,,45,75
91680,note_on,5,0,10,,,,,,,,8,,,,57,75
91735,note_off,55,0,5,,,,,,,,3,,,,57,64
91735,note_off,55,0,10,,,,,,,,8,,,,57,64
91740,note_on,5,0,10,,,,,,,,8,,,,57,75
91740,note_on,5,0,5,,,,,,,,3,,,,57,92
91765,note_off,115,0,14,,,,,,,,13,,,,33,64
91770,note_on,5,0,14,,,,,,,,13,,,,33,75
91795,note_off,55,0,10,,,,,,,,8,,,,57,64
91795,note_off,115,0,9,,,,,,,,7,,,,33,64
91795,note_off,115,0,8,,,,,,,,6,,,,45,64
91795,note_off,55,0,5,,,,,,,,3,,,,57,64
91795,note_off,115,0,13,,,,,,,,12,,,,45,64
91800,note_on,5,0,9,,,,,,,,7,,,,34,75
91800,note_on,560,0,4,,,,,,,,2,,,,85,75
91800,note_on,5,0,10,,,,,,,,8,,,,58,75
91800,note_on,0,0,2,,,,,,,,0,,,,57,45
91800,note_on,2480,0,1,,,,,,,,0,,,,66,45
91800,note_on,5,0,5,,,,,,,,3,,,,58,92
91800,note_on,560,0,3,,,,,,,,1,,,,85,92
91800,note_on,5,0,13,,,,,,,,12,,,,46,75
91800,note_on,0,0,1,,,,,,,,0,,,,70,45
91800,note_on,0,0,1,,,,,,,,0,,,,73,45
91800,note_on,5,0,8,,,,,,,,6,,,,46,75
91800,note_on,2480,0,2,,,,,,,,0,,,,45,45
91852,note_off,52,0,4,,,,,,,,2,,,,85,64
91852,note_off,52,0,3,,,,,,,,1,,,,85,64
91880,note_on,28,0,3,,,,,,,,1,,,,82,92
91880,note_on,28,0,4,,,,,,,,2,,,,82,75
91885,note_off,115,0,14,,,,,,,,13,,,,33,64
91890,note_on,5,0,14,,,,,,,,13,,,,33,75
91932,note_off,52,0,4,,,,,,,,2,,,,82,64
91932,note_off,52,0,3,,,,,,,,1,,,,82,64
91960,note_on,28,0,4,,,,,,,,2,,,,85,75
91960,note_on,28,0,3,,,,,,,,1,,,,85,92
92005,note_off,115,0,14,,,,,,,,13,,,,33,64
92010,note_on,5,0,14,,,,,,,,13,,,,33,75
92010,note_off,840,0,15,,,,,,,,14,,,,45,64
92012,note_off,52,0,3,,,,,,,,1,,,,85,64
92012,note_off,52,0,4,,,,,,,,2,,,,85,64
92040,note_on,28,0,3,,,,,,,,1,,,,90,92
92040,note_on,28,0,4,,,,,,,,2,,,,90,75
92092,note_off,52,0,3,,,,,,,,1,,,,90,64
92092,note_off,52,0,4,,,,,,,,2,,,,90,64
92120,note_on,28,0,3,,,,,,,,1,,,,85,92
92120,note_on,28,0,4,,,,,,,,2,,,,85,75
92125,note_off,115,0,14,,,,,,,,13,,,,33,64
92130,note_on,120,0,15,,,,,,,,14,,,,46,75
92130,note_on,5,0,14,,,,,,,,13,,,,34,75
92172,note_off,52,0,3,,,,,,,,1,,,,85,64
92172,note_off,52,0,4,,,,,,,,2,,,,85,64
92200,note_off,400,0,13,,,,,,,,12,,,,46,64
92200,note_off,400,0,5,,,,,,,,3,,,,58,64
92200,note_off,400,0,2,,,,,,,,0,,,,57,64
92200,note_off,0,0,2,,,,,,,,0,,,,45,64
92200,note_off,0,0,1,,,,,,,,0,,,,70,64
92200,note_off,400,0,1,,,,,,,,0,,,,73,64
92200,note_off,400,0,10,,,,,,,,8,,,,58,64
92200,note_off,400,0,9,,,,,,,,7,,,,34,64
92200,note_off,400,0,8,,,,,,,,6,,,,46,64
92200,note_on,28,0,3,,,,,,,,1,,,,90,92
92200,note_on,28,0,4,,,,,,,,2,,,,90,75
92200,note_off,0,0,1,,,,,,,,0,,,,66,64
92252,note_off,52,0,4,,,,,,,,2,,,,90,64
92252,note_off,52,0,3,,,,,,,,1,,,,90,64
92280,note_on,28,0,4,,,,,,,,2,,,,85,75
92280,note_on,28,0,3,,,,,,,,1,,,,85,92
92332,note_off,52,0,3,,,,,,,,1,,,,85,64
92332,note_off,52,0,4,,,,,,,,2,,,,85,64
92360,note_on,28,0,4,,,,,,,,2,,,,82,75
92360,note_on,28,0,3,,,,,,,,1,,,,82,92
92412,note_off,52,0,4,,,,,,,,2,,,,82,64
92412,note_off,52,0,3,,,,,,,,1,,,,82,64
92440,note_on,28,0,4,,,,,,,,2,,,,85,75
92440,note_on,28,0,3,,,,,,,,1,,,,85,92
92492,note_off,52,0,4,,,,,,,,2,,,,85,64
92492,note_off,52,0,3,,,,,,,,1,,,,85,64
92520,note_on,28,0,4,,,,,,,,2,,,,90,75
92520,note_on,28,0,3,,,,,,,,1,,,,90,92
92530,note_off,400,0,14,,,,,,,,13,,,,34,64
92530,note_off,400,0,15,,,,,,,,14,,,,46,64
92572,note_off,52,0,3,,,,,,,,1,,,,90,64
92572,note_off,52,0,4,,,,,,,,2,,,,90,64
92600,note_on,28,0,3,,,,,,,,1,,,,85,92
92600,note_on,28,0,4,,,,,,,,2,,,,85,75
92652,note_off,52,0,4,,,,,,,,2,,,,85,64
92652,note_off,52,0,3,,,,,,,,1,,,,85,64
92680,note_on,28,0,3,,,,,,,,1,,,,90,92
92680,note_on,28,0,4,,,,,,,,2,,,,90,75
92732,note_off,52,0,4,,,,,,,,2,,,,90,64
92732,note_off,52,0,3,,,,,,,,1,,,,90,64
92760,note_on,28,0,4,,,,,,,,2,,,,85,75
92760,note_on,28,0,3,,,,,,,,1,,,,85,92
92812,note_off,52,0,3,,,,,,,,1,,,,85,64
92812,note_off,52,0,4,,,,,,,,2,,,,85,64
92840,note_on,28,0,4,,,,,,,,2,,,,82,75
92840,note_on,28,0,3,,,,,,,,1,,,,82,92
92892,note_off,52,0,4,,,,,,,,2,,,,82,64
92892,note_off,52,0,3,,,,,,,,1,,,,82,64
92920,note_on,28,0,4,,,,,,,,2,,,,85,75
92920,note_on,28,0,3,,,,,,,,1,,,,85,92
92972,note_off,52,0,4,,,,,,,,2,,,,85,64
92972,note_off,52,0,3,,,,,,,,1,,,,85,64
93000,note_on,28,0,4,,,,,,,,2,,,,90,75
93000,note_on,28,0,3,,,,,,,,1,,,,90,92
93052,note_off,52,0,3,,,,,,,,1,,,,90,64
93052,note_off,52,0,4,,,,,,,,2,,,,90,64
93080,note_on,28,0,4,,,,,,,,2,,,,85,75
93080,note_on,28,0,3,,,,,,,,1,,,,85,92
93132,note_off,52,0,4,,,,,,,,2,,,,85,64
93132,note_off,52,0,3,,,,,,,,1,,,,85,64
93160,note_on,28,0,4,,,,,,,,2,,,,90,75
93160,note_on,28,0,3,,,,,,,,1,,,,90,92
93212,note_off,52,0,4,,,,,,,,2,,,,90,64
93212,note_off,52,0,3,,,,,,,,1,,,,90,64
93240,note_on,28,0,3,,,,,,,,1,,,,85,92
93240,note_on,28,0,4,,,,,,,,2,,,,85,75
93292,note_off,52,0,4,,,,,,,,2,,,,85,64
93292,note_off,52,0,3,,,,,,,,1,,,,85,64
93320,note_on,28,0,3,,,,,,,,1,,,,82,92
93320,note_on,28,0,4,,,,,,,,2,,,,82,75
93372,note_off,52,0,3,,,,,,,,1,,,,82,64
93372,note_off,52,0,4,,,,,,,,2,,,,82,64
93400,note_on,28,0,3,,,,,,,,1,,,,85,92
93400,note_on,28,0,4,,,,,,,,2,,,,85,75
93452,note_off,52,0,3,,,,,,,,1,,,,85,64
93452,note_off,52,0,4,,,,,,,,2,,,,85,64
93480,note_on,28,0,4,,,,,,,,2,,,,90,75
93480,note_on,28,0,3,,,,,,,,1,,,,90,92
93532,note_off,52,0,4,,,,,,,,2,,,,90,64
93532,note_off,52,0,3,,,,,,,,1,,,,90,64
93560,note_on,28,0,4,,,,,,,,2,,,,85,75
93560,note_on,28,0,3,,,,,,,,1,,,,85,92
93612,note_off,52,0,3,,,,,,,,1,,,,85,64
93612,note_off,52,0,4,,,,,,,,2,,,,85,64
93640,note_on,28,0,4,,,,,,,,2,,,,90,75
93640,note_on,28,0,3,,,,,,,,1,,,,90,92
93692,note_off,52,0,3,,,,,,,,1,,,,90,64
93692,note_off,52,0,4,,,,,,,,2,,,,90,64
93720,note_on,1520,0,9,,,,,,,,7,,,,35,75
93720,note_on,28,0,3,,,,,,,,1,,,,87,60
93720,note_on,1520,0,10,,,,,,,,8,,,,59,75
93720,note_on,1520,0,5,,,,,,,,3,,,,59,92
93720,note_on,1520,0,13,,,,,,,,12,,,,47,75
93720,note_on,1520,0,8,,,,,,,,6,,,,47,75
93720,note_on,28,0,4,,,,,,,,2,,,,87,45
93775,note_off,55,0,10,,,,,,,,8,,,,59,64
93775,note_off,55,0,5,,,,,,,,3,,,,59,64
93780,note_on,5,0,5,,,,,,,,3,,,,59,92
93780,note_on,5,0,10,,,,,,,,8,,,,59,75
93835,note_off,55,0,5,,,,,,,,3,,,,59,64
93835,note_off,115,0,8,,,,,,,,6,,,,47,64
93835,note_off,115,0,13,,,,,,,,12,,,,47,64
93835,note_off,55,0,10,,,,,,,,8,,,,59,64
93835,note_off,115,0,9,,,,,,,,7,,,,35,64
93840,note_on,5,0,5,,,,,,,,3,,,,59,92
93840,note_on,5,0,8,,,,,,,,6,,,,47,75
93840,note_on,5,0,13,,,,,,,,12,,,,47,75
93840,note_on,5,0,9,,,,,,,,7,,,,35,75
93840,note_on,5,0,10,,,,,,,,8,,,,59,75
93895,note_off,55,0,10,,,,,,,,8,,,,59,64
93895,note_off,55,0,5,,,,,,,,3,,,,59,64
93900,note_on,5,0,10,,,,,,,,8,,,,59,75
93900,note_on,5,0,5,,,,,,,,3,,,,59,92
93955,note_off,55,0,10,,,,,,,,8,,,,59,64
93955,note_off,115,0,8,,,,,,,,6,,,,47,64
93955,note_off,115,0,9,,,,,,,,7,,,,35,64
93955,note_off,115,0,13,,,,,,,,12,,,,47,64
93955,note_off,55,0,5,,,,,,,,3,,,,59,64
93960,note_on,5,0,10,,,,,,,,8,,,,59,75
93960,note_on,5,0,8,,,,,,,,6,,,,47,75
93960,note_on,5,0,9,,,,,,,,7,,,,35,75
93960,note_on,5,0,13,,,,,,,,12,,,,47,75
93960,note_on,5,0,5,,,,,,,,3,,,,59,92
94015,note_off,55,0,10,,,,,,,,8,,,,59,64
94015,note_off,55,0,5,,,,,,,,3,,,,59,64
94020,note_on,5,0,5,,,,,,,,3,,,,59,92
94020,note_on,5,0,10,,,,,,,,8,,,,59,75
94050,note_on,1520,0,14,,,,,,,,13,,,,35,75
94050,note_on,1520,0,15,,,,,,,,14,,,,47,75
94075,note_off,55,0,5,,,,,,,,3,,,,59,64
94075,note_off,115,0,13,,,,,,,,12,,,,47,64
94075,note_off,115,0,9,,,,,,,,7,,,,35,64
94075,note_off,55,0,10,,,,,,,,8,,,,59,64
94075,note_off,115,0,8,,,,,,,,6,,,,47,64
94080,note_on,5,0,13,,,,,,,,12,,,,47,75
94080,note_on,5,0,8,,,,,,,,6,,,,47,75
94080,note_on,5,0,5,,,,,,,,3,,,,59,92
94080,note_on,5,0,9,,,,,,,,7,,,,35,75
94080,note_on,5,0,10,,,,,,,,8,,,,59,75
94120,note_off,400,0,4,,,,,,,,2,,,,87,64
94120,note_off,400,0,3,,,,,,,,1,,,,87,64
94135,note_off,55,0,10,,,,,,,,8,,,,59,64
94135,note_off,55,0,5,,,,,,,,3,,,,59,64
94140,note_on,5,0,10,,,,,,,,8,,,,59,75
94140,note_on,5,0,5,,,,,,,,3,,,,59,92
94165,note_off,115,0,14,,,,,,,,13,,,,35,64
94170,note_on,5,0,14,,,,,,,,13,,,,35,75
94195,note_off,55,0,10,,,,,,,,8,,,,59,64
94195,note_off,55,0,5,,,,,,,,3,,,,59,64
94195,note_off,115,0,8,,,,,,,,6,,,,47,64
94195,note_off,115,0,9,,,,,,,,7,,,,35,64
94195,note_off,115,0,13,,,,,,,,12,,,,47,64
94200,note_on,5,0,13,,,,,,,,12,,,,47,75
94200,note_on,5,0,5,,,,,,,,3,,,,59,92
94200,note_on,5,0,8,,,,,,,,6,,,,47,75
94200,note_on,5,0,10,,,,,,,,8,,,,59,75
94200,note_on,5,0,9,,,,,,,,7,,,,35,75
94255,note_off,55,0,10,,,,,,,,8,,,,59,64
94255,note_off,55,0,5,,,,,,,,3,,,,59,64
94260,note_on,5,0,10,,,,,,,,8,,,,59,75
94260,note_on,5,0,5,,,,,,,,3,,,,59,92
94285,note_off,115,0,14,,,,,,,,13,,,,35,64
94290,note_on,5,0,14,,,,,,,,13,,,,35,75
94315,note_off,115,0,8,,,,,,,,6,,,,47,64
94315,note_off,55,0,10,,,,,,,,8,,,,59,64
94315,note_off,115,0,13,,,,,,,,12,,,,47,64
94315,note_off,115,0,9,,,,,,,,7,,,,35,64
94315,note_off,55,0,5,,,,,,,,3,,,,59,64
94320,note_on,5,0,5,,,,,,,,3,,,,59,92
94320,note_on,5,0,8,,,,,,,,6,,,,47,75
94320,note_on,5,0,9,,,,,,,,7,,,,35,75
94320,note_on,5,0,10,,,,,,,,8,,,,59,75
94320,note_on,5,0,13,,,,,,,,12,,,,47,75
94375,note_off,55,0,10,,,,,,,,8,,,,59,64
94375,note_off,55,0,5,,,,,,,,3,,,,59,64
94380,note_on,5,0,10,,,,,,,,8,,,,59,75
94380,note_on,5,0,5,,,,,,,,3,,,,59,92
94405,note_off,115,0,14,,,,,,,,13,,,,35,64
94410,note_on,5,0,14,,,,,,,,13,,,,35,75
94435,note_off,115,0,13,,,,,,,,12,,,,47,64
94435,note_off,55,0,10,,,,,,,,8,,,,59,64
94435,note_off,55,0,5,,,,,,,,3,,,,59,64
94435,note_off,115,0,9,,,,,,,,7,,,,35,64
94435,note_off,115,0,8,,,,,,,,6,,,,47,64
94440,note_on,5,0,13,,,,,,,,12,,,,47,75
94440,note_on,5,0,5,,,,,,,,3,,,,59,92
94440,note_on,5,0,8,,,,,,,,6,,,,47,75
94440,note_on,5,0,10,,,,,,,,8,,,,59,75
94440,note_on,5,0,9,,,,,,,,7,,,,35,75
94495,note_off,55,0,5,,,,,,,,3,,,,59,64
94495,note_off,55,0,10,,,,,,,,8,,,,59,64
94500,note_on,5,0,10,,,,,,,,8,,,,59,75
94500,note_on,5,0,5,,,,,,,,3,,,,59,92
94525,note_off,115,0,14,,,,,,,,13,,,,35,64
94530,note_on,5,0,14,,,,,,,,13,,,,35,75
94555,note_off,115,0,9,,,,,,,,7,,,,35,64
94555,note_off,115,0,13,,,,,,,,12,,,,47,64
94555,note_off,55,0,10,,,,,,,,8,,,,59,64
94555,note_off,55,0,5,,,,,,,,3,,,,59,64
94555,note_off,115,0,8,,,,,,,,6,,,,47,64
94560,note_on,5,0,13,,,,,,,,12,,,,47,75
94560,note_on,5,0,8,,,,,,,,6,,,,47,75
94560,note_on,5,0,10,,,,,,,,8,,,,59,75
94560,note_on,5,0,5,,,,,,,,3,,,,59,92
94560,note_on,5,0,9,,,,,,,,7,,,,35,75
94615,note_off,55,0,10,,,,,,,,8,,,,59,64
94615,note_off,55,0,5,,,,,,,,3,,,,59,64
94620,note_on,5,0,10,,,,,,,,8,,,,59,75
94620,note_on,5,0,5,,,,,,,,3,,,,59,92
94645,note_off,115,0,14,,,,,,,,13,,,,35,64
94650,note_on,5,0,14,,,,,,,,13,,,,35,75
94675,note_off,55,0,5,,,,,,,,3,,,,59,64
94675,note_off,115,0,9,,,,,,,,7,,,,35,64
94675,note_off,115,0,8,,,,,,,,6,,,,47,64
94675,note_off,55,0,10,,,,,,,,8,,,,59,64
94675,note_off,115,0,13,,,,,,,,12,,,,47,64
94680,note_on,560,0,4,,,,,,,,2,,,,87,75
94680,note_on,5,0,5,,,,,,,,3,,,,60,92
94680,note_on,5,0,9,,,,,,,,7,,,,36,75
94680,note_on,5,0,10,,,,,,,,8,,,,60,75
94680,note_on,2480,0,1,,,,,,,,0,,,,63,45
94680,note_on,0,0,1,,,,,,,,0,,,,68,45
94680,note_on,5,0,13,,,,,,,,12,,,,48,75
94680,note_on,0,0,2,,,,,,,,0,,,,60,45
94680,note_on,560,0,3,,,,,,,,1,,,,87,92
94680,note_on,2480,0,2,,,,,,,,0,,,,48,45
94680,note_on,0,0,1,,,,,,,,0,,,,72,45
94680,note_on,5,0,8,,,,,,,,6,,,,48,75
94732,note_off,52,0,3,,,,,,,,1,,,,87,64
94732,note_off,52,0,4,,,,,,,,2,,,,87,64
94760,note_on,28,0,3,,,,,,,,1,,,,84,92
94760,note_on,28,0,4,,,,,,,,2,,,,84,75
94765,note_off,115,0,14,,,,,,,,13,,,,35,64
94770,note_on,5,0,14,,,,,,,,13,,,,35,75
94812,note_off,52,0,4,,,,,,,,2,,,,84,64
94812,note_off,52,0,3,,,,,,,,1,,,,84,64
94840,note_on,28,0,4,,,,,,,,2,,,,87,75
94840,note_on,28,0,3,,,,,,,,1,,,,87,92
94885,note_off,115,0,14,,,,,,,,13,,,,35,64
94890,note_on,5,0,14,,,,,,,,13,,,,35,75
94890,note_off,840,0,15,,,,,,,,14,,,,47,64
94892,note_off,52,0,3,,,,,,,,1,,,,87,64
94892,note_off,52,0,4,,,,,,,,2,,,,87,64
94920,note_on,28,0,3,,,,,,,,1,,,,92,92
94920,note_on,28,0,4,,,,,,,,2,,,,92,75
94972,note_off,52,0,3,,,,,,,,1,,,,92,64
94972,note_off,52,0,4,,,,,,,,2,,,,92,64
95000,note_on,28,0,4,,,,,,,,2,,,,87,75
95000,note_on,28,0,3,,,,,,,,1,,,,87,92
95005,note_off,115,0,14,,,,,,,,13,,,,35,64
95010,note_on,5,0,14,,,,,,,,13,,,,36,75
95010,note_on,120,0,15,,,,,,,,14,,,,48,75
95052,note_off,52,0,4,,,,,,,,2,,,,87,64
95052,note_off,52,0,3,,,,,,,,1,,,,87,64
95080,note_off,400,0,13,,,,,,,,12,,,,48,64
95080,note_off,400,0,10,,,,,,,,8,,,,60,64
95080,note_off,400,0,1,,,,,,,,0,,,,72,64
95080,note_off,400,0,9,,,,,,,,7,,,,36,64
95080,note_off,0,0,2,,,,,,,,0,,,,48,64
95080,note_off,400,0,2,,,,,,,,0,,,,60,64
95080,note_on,28,0,3,,,,,,,,1,,,,92,92
95080,note_off,0,0,1,,,,,,,,0,,,,68,64
95080,note_on,28,0,4,,,,,,,,2,,,,92,75
95080,note_off,400,0,5,,,,,,,,3,,,,60,64
95080,note_off,0,0,1,,,,,,,,0,,,,63,64
95080,note_off,400,0,8,,,,,,,,6,,,,48,64
95132,note_off,52,0,4,,,,,,,,2,,,,92,64
95132,note_off,52,0,3,,,,,,,,1,,,,92,64
95160,note_on,28,0,4,,,,,,,,2,,,,87,75
95160,note_on,28,0,3,,,,,,,,1,,,,87,92
95212,note_off,52,0,3,,,,,,,,1,,,,87,64
95212,note_off,52,0,4,,,,,,,,2,,,,87,64
95240,note_on,28,0,3,,,,,,,,1,,,,84,92
95240,note_on,28,0,4,,,,,,,,2,,,,84,75
95292,note_off,52,0,3,,,,,,,,1,,,,84,64
95292,note_off,52,0,4,,,,,,,,2,,,,84,64
95320,note_on,28,0,3,,,,,,,,1,,,,87,92
95320,note_on,28,0,4,,,,,,,,2,,,,87,75
95372,note_off,52,0,3,,,,,,,,1,,,,87,64
95372,note_off,52,0,4,,,,,,,,2,,,,87,64
95400,note_on,28,0,3,,,,,,,,1,,,,92,92
95400,note_on,28,0,4,,,,,,,,2,,,,92,75
95410,note_off,400,0,15,,,,,,,,14,,,,48,64
95410,note_off,400,0,14,,,,,,,,13,,,,36,64
95452,note_off,52,0,4,,,,,,,,2,,,,92,64
95452,note_off,52,0,3,,,,,,,,1,,,,92,64
95480,note_on,28,0,4,,,,,,,,2,,,,87,75
95480,note_on,28,0,3,,,,,,,,1,,,,87,92
95532,note_off,52,0,3,,,,,,,,1,,,,87,64
95532,note_off,52,0,4,,,,,,,,2,,,,87,64
95560,note_on,28,0,3,,,,,,,,1,,,,92,92
95560,note_on,28,0,4,,,,,,,,2,,,,92,75
95612,note_off,52,0,3,,,,,,,,1,,,,92,64
95612,note_off,52,0,4,,,,,,,,2,,,,92,64
95640,note_on,28,0,3,,,,,,,,1,,,,87,92
95640,note_on,28,0,4,,,,,,,,2,,,,87,75
95692,note_off,52,0,3,,,,,,,,1,,,,87,64
95692,note_off,52,0,4,,,,,,,,2,,,,87,64
95720,note_on,28,0,3,,,,,,,,1,,,,84,92
95720,note_on,28,0,4,,,,,,,,2,,,,84,75
95772,note_off,52,0,3,,,,,,,,1,,,,84,64
95772,note_off,52,0,4,,,,,,,,2,,,,84,64
95800,note_on,28,0,4,,,,,,,,2,,,,87,75
95800,note_on,28,0,3,,,,,,,,1,,,,87,92
95852,note_off,52,0,4,,,,,,,,2,,,,87,64
95852,note_off,52,0,3,,,,,,,,1,,,,87,64
95880,note_on,28,0,4,,,,,,,,2,,,,90,75
95880,note_on,28,0,3,,,,,,,,1,,,,90,92
95932,note_off,52,0,4,,,,,,,,2,,,,90,64
95932,note_off,52,0,3,,,,,,,,1,,,,90,64
95960,note_on,28,0,4,,,,,,,,2,,,,87,75
95960,note_on,28,0,3,,,,,,,,1,,,,87,92
96012,note_off,52,0,4,,,,,,,,2,,,,87,64
96012,note_off,52,0,3,,,,,,,,1,,,,87,64
96040,note_on,28,0,3,,,,,,,,1,,,,90,92
96040,note_on,28,0,4,,,,,,,,2,,,,90,75
96092,note_off,52,0,4,,,,,,,,2,,,,90,64
96092,note_off,52,0,3,,,,,,,,1,,,,90,64
96120,note_on,28,0,4,,,,,,,,2,,,,87,75
96120,note_on,28,0,3,,,,,,,,1,,,,87,92
96172,note_off,52,0,3,,,,,,,,1,,,,87,64
96172,note_off,52,0,4,,,,,,,,2,,,,87,64
96200,note_on,28,0,4,,,,,,,,2,,,,84,75
96200,note_on,28,0,3,,,,,,,,1,,,,84,92
96252,note_off,52,0,4,,,,,,,,2,,,,84,64
96252,note_off,52,0,3,,,,,,,,1,,,,84,64
96280,note_on,28,0,4,,,,,,,,2,,,,87,75
96280,note_on,28,0,3,,,,,,,,1,,,,87,92
96332,note_off,52,0,4,,,,,,,,2,,,,87,64
96332,note_off,52,0,3,,,,,,,,1,,,,87,64
96360,note_on,28,0,4,,,,,,,,2,,,,90,75
96360,note_on,28,0,3,,,,,,,,1,,,,90,92
96412,note_off,52,0,3,,,,,,,,1,,,,90,64
96412,note_off,52,0,4,,,,,,,,2,,,,90,64
96440,note_on,28,0,3,,,,,,,,1,,,,87,92
96440,note_on,28,0,4,,,,,,,,2,,,,87,75
96492,note_off,52,0,3,,,,,,,,1,,,,87,64
96492,note_off,52,0,4,,,,,,,,2,,,,87,64
96520,note_on,28,0,3,,,,,,,,1,,,,90,92
96520,note_on,28,0,4,,,,,,,,2,,,,90,75
96572,note_off,52,0,3,,,,,,,,1,,,,90,64
96572,note_off,52,0,4,,,,,,,,2,,,,90,64
96600,note_on,1520,0,8,,,,,,,,6,,,,49,75
96600,note_on,28,0,4,,,,,,,,2,,,,88,45
96600,note_on,1520,0,5,,,,,,,,3,,,,61,92
96600,note_on,1520,0,9,,,,,,,,7,,,,37,75
96600,note_on,1520,0,13,,,,,,,,12,,,,49,75
96600,note_on,1520,0,10,,,,,,,,8,,,,61,75
96600,note_on,28,0,3,,,,,,,,1,,,,88,60
96655,note_off,55,0,5,,,,,,,,3,,,,61,64
96655,note_off,55,0,10,,,,,,,,8,,,,61,64
96660,note_on,5,0,5,,,,,,,,3,,,,61,92
96660,note_on,5,0,10,,,,,,,,8,,,,61,75
96715,note_off,115,0,8,,,,,,,,6,,,,49,64
96715,note_off,115,0,9,,,,,,,,7,,,,37,64
96715,note_off,55,0,10,,,,,,,,8,,,,61,64
96715,note_off,55,0,5,,,,,,,,3,,,,61,64
96715,note_off,115,0,13,,,,,,,,12,,,,49,64
96720,note_on,5,0,9,,,,,,,,7,,,,37,75
96720,note_on,5,0,10,,,,,,,,8,,,,61,75
96720,note_on,5,0,13,,,,,,,,12,,,,49,75
96720,note_on,5,0,8,,,,,,,,6,,,,49,75
96720,note_on,5,0,5,,,,,,,,3,,,,61,92
96775,note_off,55,0,10,,,,,,,,8,,,,61,64
96775,note_off,55,0,5,,,,,,,,3,,,,61,64
96780,note_on,5,0,10,,,,,,,,8,,,,61,75
96780,note_on,5,0,5,,,,,,,,3,,,,61,92
96835,note_off,55,0,10,,,,,,,,8,,,,61,64
96835,note_off,115,0,13,,,,,,,,12,,,,49,64
96835,note_off,55,0,5,,,,,,,,3,,,,61,64
96835,note_off,115,0,8,,,,,,,,6,,,,49,64
96835,note_off,115,0,9,,,,,,,,7,,,,37,64
96840,note_on,5,0,8,,,,,,,,6,,,,49,75
96840,note_on,5,0,13,,,,,,,,12,,,,49,75
96840,note_on,5,0,10,,,,,,,,8,,,,61,75
96840,note_on,5,0,9,,,,,,,,7,,,,37,75
96840,note_on,5,0,5,,,,,,,,3,,,,61,92
96895,note_off,55,0,5,,,,,,,,3,,,,61,64
96895,note_off,55,0,10,,,,,,,,8,,,,61,64
96900,note_on,5,0,5,,,,,,,,3,,,,61,92
96900,note_on,5,0,10,,,,,,,,8,,,,61,75
96930,note_on,1520,0,15,,,,,,,,14,,,,49,75
96930,note_on,1520,0,14,,,,,,,,13,,,,37,75
96955,note_off,115,0,13,,,,,,,,12,,,,49,64
96955,note_off,115,0,8,,,,,,,,6,,,,49,64
96955,note_off,55,0,10,,,,,,,,8,,,,61,64
96955,note_off,55,0,5,,,,,,,,3,,,,61,64
96955,note_off,115,0,9,,,,,,,,7,,,,37,64
96960,note_on,5,0,10,,,,,,,,8,,,,61,75
96960,note_on,5,0,5,,,,,,,,3,,,,61,92
96960,note_on,5,0,9,,,,,,,,7,,,,37,75
96960,note_on,5,0,13,,,,,,,,12,,,,49,75
96960,note_on,5,0,8,,,,,,,,6,,,,49,75
97000,note_off,400,0,4,,,,,,,,2,,,,88,64
97000,note_off,400,0,3,,,,,,,,1,,,,88,64
97015,note_off,55,0,5,,,,,,,,3,,,,61,64
97015,note_off,55,0,10,,,,,,,,8,,,,61,64
97020,note_on,5,0,5,,,,,,,,3,,,,61,92
97020,note_on,5,0,10,,,,,,,,8,,,,61,75
97045,note_off,115,0,14,,,,,,,,13,,,,37,64
97050,note_on,5,0,14,,,,,,,,13,,,,37,75
97075,note_off,55,0,5,,,,,,,,3,,,,61,64
97075,note_off,115,0,9,,,,,,,,7,,,,37,64
97075,note_off,115,0,8,,,,,,,,6,,,,49,64
97075,note_off,115,0,13,,,,,,,,12,,,,49,64
97075,note_off,55,0,10,,,,,,,,8,,,,61,64
97080,note_on,5,0,10,,,,,,,,8,,,,61,75
97080,note_on,5,0,9,,,,,,,,7,,,,37,75
97080,note_on,5,0,8,,,,,,,,6,,,,49,75
97080,note_on,5,0,5,,,,,,,,3,,,,61,92
97080,note_on,5,0,13,,,,,,,,12,,,,49,75
97135,note_off,55,0,5,,,,,,,,3,,,,61,64
97135,note_off,55,0,10,,,,,,,,8,,,,61,64
97140,note_on,5,0,10,,,,,,,,8,,,,61,75
97140,note_on,5,0,5,,,,,,,,3,,,,61,92
97165,note_off,115,0,14,,,,,,,,13,,,,37,64
97170,note_on,5,0,14,,,,,,,,13,,,,37,75
97195,note_off,115,0,9,,,,,,,,7,,,,37,64
97195,note_off,115,0,13,,,,,,,,12,,,,49,64
97195,note_off,55,0,5,,,,,,,,3,,,,61,64
97195,note_off,115,0,8,,,,,,,,6,,,,49,64
97195,note_off,55,0,10,,,,,,,,8,,,,61,64
97200,note_on,5,0,13,,,,,,,,12,,,,49,75
97200,note_on,5,0,9,,,,,,,,7,,,,37,75
97200,note_on,5,0,5,,,,,,,,3,,,,61,92
97200,note_on,5,0,10,,,,,,,,8,,,,61,75
97200,note_on,5,0,8,,,,,,,,6,,,,49,75
97255,note_off,55,0,10,,,,,,,,8,,,,61,64
97255,note_off,55,0,5,,,,,,,,3,,,,61,64
97260,note_on,5,0,10,,,,,,,,8,,,,61,75
97260,note_on,5,0,5,,,,,,,,3,,,,61,92
97285,note_off,115,0,14,,,,,,,,13,,,,37,64
97290,note_on,5,0,14,,,,,,,,13,,,,37,75
97315,note_off,115,0,9,,,,,,,,7,,,,37,64
97315,note_off,55,0,10,,,,,,,,8,,,,61,64
97315,note_off,55,0,5,,,,,,,,3,,,,61,64
97315,note_off,115,0,8,,,,,,,,6,,,,49,64
97315,note_off,115,0,13,,,,,,,,12,,,,49,64
97320,note_on,5,0,8,,,,,,,,6,,,,49,75
97320,note_on,5,0,13,,,,,,,,12,,,,49,75
97320,note_on,5,0,10,,,,,,,,8,,,,61,75
97320,note_on,5,0,9,,,,,,,,7,,,,37,75
97320,note_on,5,0,5,,,,,,,,3,,,,61,92
97375,note_off,55,0,10,,,,,,,,8,,,,61,64
97375,note_off,55,0,5,,,,,,,,3,,,,61,64
97380,note_on,5,0,10,,,,,,,,8,,,,61,75
97380,note_on,5,0,5,,,,,,,,3,,,,61,92
97405,note_off,115,0,14,,,,,,,,13,,,,37,64
97410,note_on,5,0,14,,,,,,,,13,,,,37,75
97435,note_off,115,0,9,,,,,,,,7,,,,37,64
97435,note_off,55,0,10,,,,,,,,8,,,,61,64
97435,note_off,115,0,8,,,,,,,,6,,,,49,64
97435,note_off,55,0,5,,,,,,,,3,,,,61,64
97435,note_off,115,0,13,,,,,,,,12,,,,49,64
97440,note_on,5,0,8,,,,,,,,6,,,,49,75
97440,note_on,5,0,9,,,,,,,,7,,,,37,75
97440,note_on,5,0,5,,,,,,,,3,,,,61,92
97440,note_on,5,0,13,,,,,,,,12,,,,49,75
97440,note_on,5,0,10,,,,,,,,8,,,,61,75
97495,note_off,55,0,10,,,,,,,,8,,,,61,64
97495,note_off,55,0,5,,,,,,,,3,,,,61,64
97500,note_on,5,0,10,,,,,,,,8,,,,61,75
97500,note_on,5,0,5,,,,,,,,3,,,,61,92
97525,note_off,115,0,14,,,,,,,,13,,,,37,64
97530,note_on,5,0,14,,,,,,,,13,,,,37,75
97555,note_off,115,0,13,,,,,,,,12,,,,49,64
97555,note_off,55,0,10,,,,,,,,8,,,,61,64
97555,note_off,115,0,9,,,,,,,,7,,,,37,64
97555,note_off,115,0,8,,,,,,,,6,,,,49,64
97555,note_off,55,0,5,,,,,,,,3,,,,61,64
97560,note_on,560,0,3,,,,,,,,1,,,,88,92
97560,note_on,5,0,8,,,,,,,,6,,,,49,75
97560,note_on,5,0,13,,,,,,,,12,,,,49,75
97560,note_on,5,0,5,,,,,,,,3,,,,61,92
97560,note_on,5,0,9,,,,,,,,7,,,,37,75
97560,note_on,0,0,2,,,,,,,,0,,,,61,45
97560,note_on,2480,0,2,,,,,,,,0,,,,49,45
97560,note_on,5,0,10,,,,,,,,8,,,,61,75
97560,note_on,2480,0,1,,,,,,,,0,,,,64,45
97560,note_on,560,0,4,,,,,,,,2,,,,88,75
97560,note_on,0,0,1,,,,,,,,0,,,,68,45
97560,note_on,0,0,1,,,,,,,,0,,,,73,45
97612,note_off,52,0,3,,,,,,,,1,,,,88,64
97612,note_off,52,0,4,,,,,,,,2,,,,88,64
97640,note_on,28,0,4,,,,,,,,2,,,,85,75
97640,note_on,28,0,3,,,,,,,,1,,,,85,92
97645,note_off,115,0,14,,,,,,,,13,,,,37,64
97650,note_on,5,0,14,,,,,,,,13,,,,37,75
97692,note_off,52,0,4,,,,,,,,2,,,,85,64
97692,note_off,52,0,3,,,,,,,,1,,,,85,64
97720,note_on,28,0,3,,,,,,,,1,,,,88,92
97720,note_on,28,0,4,,,,,,,,2,,,,88,75
97765,note_off,115,0,14,,,,,,,,13,,,,37,64
97770,note_off,840,0,15,,,,,,,,14,,,,49,64
97770,note_on,5,0,14,,,,,,,,13,,,,37,75
97772,note_off,52,0,4,,,,,,,,2,,,,88,64
97772,note_off,52,0,3,,,,,,,,1,,,,88,64
97800,note_on,28,0,3,,,,,,,,1,,,,92,92
97800,note_on,28,0,4,,,,,,,,2,,,,92,75
97852,note_off,52,0,3,,,,,,,,1,,,,92,64
97852,note_off,52,0,4,,,,,,,,2,,,,92,64
97880,note_on,28,0,4,,,,,,,,2,,,,88,75
97880,note_on,28,0,3,,,,,,,,1,,,,88,92
97885,note_off,115,0,14,,,,,,,,13,,,,37,64
97890,note_on,120,0,15,,,,,,,,14,,,,49,75
97890,note_on,5,0,14,,,,,,,,13,,,,37,75
97932,note_off,52,0,4,,,,,,,,2,,,,88,64
97932,note_off,52,0,3,,,,,,,,1,,,,88,64
97960,note_on,28,0,3,,,,,,,,1,,,,92,92
97960,note_off,400,0,5,,,,,,,,3,,,,61,64
97960,note_off,400,0,1,,,,,,,,0,,,,73,64
97960,note_off,0,0,1,,,,,,,,0,,,,68,64
97960,note_off,400,0,8,,,,,,,,6,,,,49,64
97960,note_off,400,0,2,,,,,,,,0,,,,61,64
97960,note_off,0,0,2,,,,,,,,0,,,,49,64
97960,note_off,0,0,1,,,,,,,,0,,,,64,64
97960,note_off,400,0,10,,,,,,,,8,,,,61,64
97960,note_off,400,0,13,,,,,,,,12,,,,49,64
97960,note_on,28,0,4,,,,,,,,2,,,,92,75
97960,note_off,400,0,9,,,,,,,,7,,,,37,64
98012,note_off,52,0,4,,,,,,,,2,,,,92,64
98012,note_off,52,0,3,,,,,,,,1,,,,92,64
98040,note_on,28,0,4,,,,,,,,2,,,,88,75
98040,note_on,28,0,3,,,,,,,,1,,,,88,92
98092,note_off,52,0,3,,,,,,,,1,,,,88,64
98092,note_off,52,0,4,,,,,,,,2,,,,88,64
98120,note_on,28,0,3,,,,,,,,1,,,,85,92
98120,note_on,28,0,4,,,,,,,,2,,,,85,75
98172,note_off,52,0,3,,,,,,,,1,,,,85,64
98172,note_off,52,0,4,,,,,,,,2,,,,85,64
98200,note_on,28,0,3,,,,,,,,1,,,,88,92
98200,note_on,28,0,4,,,,,,,,2,,,,88,75
98252,note_off,52,0,3,,,,,,,,1,,,,88,64
98252,note_off,52,0,4,,,,,,,,2,,,,88,64
98280,note_on,28,0,3,,,,,,,,1,,,,92,92
98280,note_on,28,0,4,,,,,,,,2,,,,92,75
98290,note_off,400,0,14,,,,,,,,13,,,,37,64
98290,note_off,400,0,15,,,,,,,,14,,,,49,64
98332,note_off,52,0,4,,,,,,,,2,,,,92,64
98332,note_off,52,0,3,,,,,,,,1,,,,92,64
98360,note_on,28,0,4,,,,,,,,2,,,,88,75
98360,note_on,28,0,3,,,,,,,,1,,,,88,92
98412,note_off,52,0,3,,,,,,,,1,,,,88,64
98412,note_off,52,0,4,,,,,,,,2,,,,88,64
98440,note_on,28,0,3,,,,,,,,1,,,,92,92
98440,note_on,28,0,4,,,,,,,,2,,,,92,75
98492,note_off,52,0,3,,,,,,,,1,,,,92,64
98492,note_off,52,0,4,,,,,,,,2,,,,92,64
98520,note_on,560,0,8,,,,,,,,6,,,,47,75
98520,note_on,28,0,3,,,,,,,,1,,,,87,92
98520,note_on,560,0,5,,,,,,,,3,,,,59,92
98520,note_on,560,0,13,,,,,,,,12,,,,47,75
98520,note_on,28,0,4,,,,,,,,2,,,,87,75
98520,note_on,560,0,10,,,,,,,,8,,,,59,75
98520,note_on,560,0,9,,,,,,,,7,,,,35,75
98572,note_off,52,0,3,,,,,,,,1,,,,87,64
98572,note_off,52,0,4,,,,,,,,2,,,,87,64
98575,note_off,55,0,10,,,,,,,,8,,,,59,64
98575,note_off,55,0,5,,,,,,,,3,,,,59,64
98580,note_on,5,0,10,,,,,,,,8,,,,59,74
98580,note_on,5,0,5,,,,,,,,3,,,,59,91
98600,note_on,28,0,3,,,,,,,,1,,,,83,91
98600,note_on,28,0,4,,,,,,,,2,,,,83,74
98635,note_off,115,0,13,,,,,,,,12,,,,47,64
98635,note_off,115,0,8,,,,,,,,6,,,,47,64
98635,note_off,55,0,5,,,,,,,,3,,,,59,64
98635,note_off,55,0,10,,,,,,,,8,,,,59,64
98635,note_off,115,0,9,,,,,,,,7,,,,35,64
98640,note_on,5,0,5,,,,,,,,3,,,,59,90
98640,note_on,5,0,13,,,,,,,,12,,,,47,73
98640,note_on,5,0,8,,,,,,,,6,,,,47,73
98640,note_on,5,0,9,,,,,,,,7,,,,35,73
98640,note_on,5,0,10,,,,,,,,8,,,,59,73
98652,note_off,52,0,3,,,,,,,,1,,,,83,64
98652,note_off,52,0,4,,,,,,,,2,,,,83,64
98680,note_on,28,0,4,,,,,,,,2,,,,87,73
98680,note_on,28,0,3,,,,,,,,1,,,,87,90
98695,note_off,55,0,10,,,,,,,,8,,,,59,64
98695,note_off,55,0,5,,,,,,,,3,,,,59,64
98700,note_on,5,0,5,,,,,,,,3,,,,59,88
98700,note_on,5,0,10,,,,,,,,8,,,,59,72
98732,note_off,52,0,3,,,,,,,,1,,,,87,64
98732,note_off,52,0,4,,,,,,,,2,,,,87,64
98755,note_off,115,0,13,,,,,,,,12,,,,47,64
98755,note_off,115,0,8,,,,,,,,6,,,,47,64
98755,note_off,55,0,10,,,,,,,,8,,,,59,64
98755,note_off,55,0,5,,,,,,,,3,,,,59,64
98755,note_off,115,0,9,,,,,,,,7,,,,35,64
98760,note_on,5,0,13,,,,,,,,12,,,,47,71
98760,note_on,28,0,3,,,,,,,,1,,,,92,89
98760,note_on,5,0,9,,,,,,,,7,,,,35,71
98760,note_on,5,0,10,,,,,,,,8,,,,59,71
98760,note_on,5,0,8,,,,,,,,6,,,,47,71
98760,note_on,28,0,4,,,,,,,,2,,,,92,72
98760,note_on,5,0,5,,,,,,,,3,,,,59,87
98812,note_off,52,0,3,,,,,,,,1,,,,92,64
98812,note_off,52,0,4,,,,,,,,2,,,,92,64
98815,note_off,55,0,5,,,,,,,,3,,,,59,64
98815,note_off,55,0,10,,,,,,,,8,,,,59,64
98820,note_on,5,0,5,,,,,,,,3,,,,59,85
98820,note_on,5,0,10,,,,,,,,8,,,,59,70
98840,note_on,28,0,3,,,,,,,,1,,,,87,88
98840,note_on,28,0,4,,,,,,,,2,,,,87,71
98850,note_on,560,0,15,,,,,,,,14,,,,47,75
98850,note_on,560,0,14,,,,,,,,13,,,,35,75
98875,note_off,115,0,9,,,,,,,,7,,,,35,64
98875,note_off,115,0,8,,,,,,,,6,,,,47,64
98875,note_off,115,0,13,,,,,,,,12,,,,47,64
98875,note_off,55,0,5,,,,,,,,3,,,,59,64
98875,note_off,55,0,10,,,,,,,,8,,,,59,64
98880,note_on,5,0,13,,,,,,,,12,,,,47,69
98880,note_on,5,0,9,,,,,,,,7,,,,35,69
98880,note_on,5,0,8,,,,,,,,6,,,,47,69
98880,note_on,5,0,10,,,,,,,,8,,,,59,69
98880,note_on,5,0,5,,,,,,,,3,,,,59,83
98892,note_off,52,0,4,,,,,,,,2,,,,87,64
98892,note_off,52,0,3,,,,,,,,1,,,,87,64
98920,note_on,28,0,4,,,,,,,,2,,,,92,70
98920,note_on,28,0,3,,,,,,,,1,,,,92,87
98935,note_off,55,0,10,,,,,,,,8,,,,59,64
98935,note_off,55,0,5,,,,,,,,3,,,,59,64
98940,note_on,5,0,5,,,,,,,,3,,,,59,81
98940,note_on,5,0,10,,,,,,,,8,,,,59,68
98965,note_off,115,0,14,,,,,,,,13,,,,35,64
98970,note_on,5,0,14,,,,,,,,13,,,,35,73
98972,note_off,52,0,3,,,,,,,,1,,,,92,64
98972,note_off,52,0,4,,,,,,,,2,,,,92,64
98995,note_off,55,0,10,,,,,,,,8,,,,59,64
98995,note_off,115,0,8,,,,,,,,6,,,,47,64
98995,note_off,55,0,5,,,,,,,,3,,,,59,64
98995,note_off,115,0,9,,,,,,,,7,,,,35,64
98995,note_off,115,0,13,,,,,,,,12,,,,47,64
99000,note_on,5,0,5,,,,,,,,3,,,,59,79
99000,note_on,28,0,4,,,,,,,,2,,,,87,69
99000,note_on,5,0,13,,,,,,,,12,,,,47,66
99000,note_on,28,0,3,,,,,,,,1,,,,87,86
99000,note_on,5,0,9,,,,,,,,7,,,,35,66
99000,note_on,5,0,10,,,,,,,,8,,,,59,67
99000,note_on,5,0,8,,,,,,,,6,,,,47,66
99052,note_off,52,0,4,,,,,,,,2,,,,87,64
99052,note_off,52,0,3,,,,,,,,1,,,,87,64
99055,note_off,55,0,10,,,,,,,,8,,,,59,64
99055,note_off,55,0,5,,,,,,,,3,,,,59,64
99060,note_on,5,0,5,,,,,,,,3,,,,59,77
99060,note_on,5,0,10,,,,,,,,8,,,,59,66
99080,note_on,28,0,4,,,,,,,,2,,,,83,68
99080,note_on,28,0,3,,,,,,,,1,,,,83,85
99085,note_off,115,0,14,,,,,,,,13,,,,35,64
99090,note_on,5,0,14,,,,,,,,13,,,,35,71
99115,note_off,115,0,13,,,,,,,,12,,,,47,64
99115,note_off,115,0,9,,,,,,,,7,,,,35,64
99115,note_off,55,0,5,,,,,,,,3,,,,59,64
99115,note_off,115,0,8,,,,,,,,6,,,,47,64
99115,note_off,55,0,10,,,,,,,,8,,,,59,64
99120,note_on,5,0,13,,,,,,,,12,,,,47,63
99120,note_on,5,0,5,,,,,,,,3,,,,59,75
99120,note_on,5,0,9,,,,,,,,7,,,,35,63
99120,note_on,5,0,10,,,,,,,,8,,,,59,65
99120,note_on,5,0,8,,,,,,,,6,,,,47,63
99132,note_off,52,0,4,,,,,,,,2,,,,83,64
99132,note_off,52,0,3,,,,,,,,1,,,,83,64
99160,note_on,28,0,4,,,,,,,,2,,,,87,67
99160,note_on,28,0,3,,,,,,,,1,,,,87,84
99175,note_off,55,0,10,,,,,,,,8,,,,59,64
99175,note_off,55,0,5,,,,,,,,3,,,,59,64
99180,note_on,5,0,5,,,,,,,,3,,,,59,73
99180,note_on,5,0,10,,,,,,,,8,,,,59,64
99205,note_off,115,0,14,,,,,,,,13,,,,35,64
99210,note_on,5,0,14,,,,,,,,13,,,,35,69
99212,note_off,52,0,3,,,,,,,,1,,,,87,64
99212,note_off,52,0,4,,,,,,,,2,,,,87,64
99235,note_off,115,0,13,,,,,,,,12,,,,47,64
99235,note_off,55,0,10,,,,,,,,8,,,,59,64
99235,note_off,55,0,5,,,,,,,,3,,,,59,64
99235,note_off,115,0,8,,,,,,,,6,,,,47,64
99235,note_off,115,0,9,,,,,,,,7,,,,35,64
99240,note_on,5,0,9,,,,,,,,7,,,,35,60
99240,note_on,5,0,10,,,,,,,,8,,,,59,63
99240,note_on,5,0,13,,,,,,,,12,,,,47,60
99240,note_on,28,0,4,,,,,,,,2,,,,92,66
99240,note_on,5,0,8,,,,,,,,6,,,,47,60
99240,note_on,28,0,3,,,,,,,,1,,,,92,83
99240,note_on,5,0,5,,,,,,,,3,,,,59,71
99292,note_off,52,0,4,,,,,,,,2,,,,92,64
99292,note_off,52,0,3,,,,,,,,1,,,,92,64
99295,note_off,55,0,10,,,,,,,,8,,,,59,64
99295,note_off,55,0,5,,,,,,,,3,,,,59,64
99300,note_on,5,0,10,,,,,,,,8,,,,59,62
99300,note_on,5,0,5,,,,,,,,3,,,,59,69
99320,note_on,28,0,3,,,,,,,,1,,,,87,82
99320,note_on,28,0,4,,,,,,,,2,,,,87,65
99325,note_off,115,0,14,,,,,,,,13,,,,35,64
99330,note_on,5,0,14,,,,,,,,13,,,,35,66
99355,note_off,55,0,10,,,,,,,,8,,,,59,64
99355,note_off,55,0,5,,,,,,,,3,,,,59,64
99355,note_off,115,0,8,,,,,,,,6,,,,47,64
99355,note_off,115,0,9,,,,,,,,7,,,,35,64
99355,note_off,115,0,13,,,,,,,,12,,,,47,64
99360,note_on,5,0,9,,,,,,,,7,,,,35,57
99360,note_on,5,0,5,,,,,,,,3,,,,59,67
99360,note_on,5,0,10,,,,,,,,8,,,,59,61
99360,note_on,5,0,8,,,,,,,,6,,,,47,57
99360,note_on,5,0,13,,,,,,,,12,,,,47,57
99372,note_off,52,0,3,,,,,,,,1,,,,87,64
99372,note_off,52,0,4,,,,,,,,2,,,,87,64
99400,note_on,28,0,4,,,,,,,,2,,,,92,64
99400,note_on,28,0,3,,,,,,,,1,,,,92,81
99415,note_off,55,0,10,,,,,,,,8,,,,59,64
99415,note_off,55,0,5,,,,,,,,3,,,,59,64
99420,note_on,5,0,10,,,,,,,,8,,,,59,60
99420,note_on,5,0,5,,,,,,,,3,,,,59,65
99445,note_off,115,0,14,,,,,,,,13,,,,35,64
99450,note_on,5,0,14,,,,,,,,13,,,,35,63
99452,note_off,52,0,4,,,,,,,,2,,,,92,64
99452,note_off,52,0,3,,,,,,,,1,,,,92,64
99475,note_off,115,0,13,,,,,,,,12,,,,47,64
99475,note_off,115,0,8,,,,,,,,6,,,,47,64
99475,note_off,55,0,10,,,,,,,,8,,,,59,64
99475,note_off,115,0,9,,,,,,,,7,,,,35,64
99475,note_off,55,0,5,,,,,,,,3,,,,59,64
99480,note_on,5,0,5,,,,,,,,3,,,,57,63
99480,note_on,28,0,3,,,,,,,,1,,,,85,80
99480,note_on,5,0,8,,,,,,,,6,,,,45,54
99480,note_on,0,0,2,,,,,,,,0,,,,57,40
99480,note_on,1520,0,2,,,,,,,,0,,,,45,40
99480,note_on,1520,0,1,,,,,,,,0,,,,66,40
99480,note_on,5,0,9,,,,,,,,7,,,,33,54
99480,note_on,28,0,4,,,,,,,,2,,,,85,63
99480,note_on,5,0,10,,,,,,,,8,,,,57,59
99480,note_on,0,0,1,,,,,,,,0,,,,69,40
99480,note_on,0,0,1,,,,,,,,0,,,,73,40
99480,note_on,5,0,13,,,,,,,,12,,,,45,54
99532,note_off,52,0,4,,,,,,,,2,,,,85,64
99532,note_off,52,0,3,,,,,,,,1,,,,85,64
99560,note_on,28,0,4,,,,,,,,2,,,,81,62
99560,note_on,28,0,3,,,,,,,,1,,,,81,79
99565,note_off,115,0,14,,,,,,,,13,,,,35,64
99570,note_on,5,0,14,,,,,,,,13,,,,35,60
99612,note_off,52,0,4,,,,,,,,2,,,,81,64
99612,note_off,52,0,3,,,,,,,,1,,,,81,64
99640,note_on,28,0,4,,,,,,,,2,,,,85,61
99640,note_on,28,0,3,,,,,,,,1,,,,85,78
99685,note_off,115,0,14,,,,,,,,13,,,,35,64
99690,note_on,5,0,14,,,,,,,,13,,,,35,57
99690,note_off,840,0,15,,,,,,,,14,,,,47,64
99692,note_off,52,0,3,,,,,,,,1,,,,85,64
99692,note_off,52,0,4,,,,,,,,2,,,,85,64
99720,note_on,28,0,3,,,,,,,,1,,,,90,77
99720,note_on,28,0,4,,,,,,,,2,,,,90,60
99772,note_off,52,0,3,,,,,,,,1,,,,90,64
99772,note_off,52,0,4,,,,,,,,2,,,,90,64
99800,note_on,28,0,4,,,,,,,,2,,,,85,59
99800,note_on,28,0,3,,,,,,,,1,,,,85,76
99805,note_off,115,0,14,,,,,,,,13,,,,35,64
99810,note_on,120,0,15,,,,,,,,14,,,,45,53
99810,note_on,5,0,14,,,,,,,,13,,,,33,54
99852,note_off,52,0,4,,,,,,,,2,,,,85,64
99852,note_off,52,0,3,,,,,,,,1,,,,85,64
99880,note_off,400,0,2,,,,,,,,0,,,,57,64
99880,note_off,400,0,13,,,,,,,,12,,,,45,64
99880,note_on,28,0,4,,,,,,,,2,,,,90,58
99880,note_off,0,0,2,,,,,,,,0,,,,45,64
99880,note_off,0,0,1,,,,,,,,0,,,,69,64
99880,note_off,0,0,1,,,,,,,,0,,,,66,64
99880,note_off,400,0,8,,,,,,,,6,,,,45,64
99880,note_off,400,0,9,,,,,,,,7,,,,33,64
99880,note_off,400,0,1,,,,,,,,0,,,,73,64
99880,note_off,400,0,5,,,,,,,,3,,,,57,64
99880,note_on,28,0,3,,,,,,,,1,,,,90,74
99880,note_off,400,0,10,,,,,,,,8,,,,57,64
99932,note_off,52,0,4,,,,,,,,2,,,,90,64
99932,note_off,52,0,3,,,,,,,,1,,,,90,64
99960,note_on,28,0,4,,,,,,,,2,,,,85,57
99960,note_on,28,0,3,,,,,,,,1,,,,85,72
100012,note_off,52,0,4,,,,,,,,2,,,,85,64
100012,note_off,52,0,3,,,,,,,,1,,,,85,64
100040,note_on,28,0,3,,,,,,,,1,,,,81,70
100040,note_on,28,0,4,,,,,,,,2,,,,81,55
100092,note_off,52,0,3,,,,,,,,1,,,,81,64
100092,note_off,52,0,4,,,,,,,,2,,,,81,64
100120,note_on,28,0,4,,,,,,,,2,,,,85,53
100120,note_on,28,0,3,,,,,,,,1,,,,85,68
100172,note_off,52,0,4,,,,,,,,2,,,,85,64
100172,note_off,52,0,3,,,,,,,,1,,,,85,64
100200,note_on,28,0,4,,,,,,,,2,,,,90,51
100200,note_on,28,0,3,,,,,,,,1,,,,90,66
100210,note_off,400,0,15,,,,,,,,14,,,,45,64
100210,note_off,400,0,14,,,,,,,,13,,,,33,64
100252,note_off,52,0,4,,,,,,,,2,,,,90,64
100252,note_off,52,0,3,,,,,,,,1,,,,90,64
100280,note_on,28,0,4,,,,,,,,2,,,,85,49
100280,note_on,28,0,3,,,,,,,,1,,,,85,64
100332,note_off,52,0,4,,,,,,,,2,,,,85,64
100332,note_off,52,0,3,,,,,,,,1,,,,85,64
100360,note_on,28,0,4,,,,,,,,2,,,,90,47
100360,note_on,28,0,3,,,,,,,,1,,,,90,62
100412,note_off,52,0,4,,,,,,,,2,,,,90,64
100412,note_off,52,0,3,,,,,,,,1,,,,90,64
100440,note_on,28,0,3,,,,,,,,1,,,,83,60
100440,note_on,560,0,9,,,,,,,,7,,,,44,30
100440,note_on,560,0,5,,,,,,,,3,,,,68,30
100440,note_on,28,0,4,,,,,,,,2,,,,83,45
100440,note_on,560,0,10,,,,,,,,8,,,,68,30
100440,note_on,560,0,8,,,,,,,,6,,,,56,30
100440,note_on,560,0,13,,,,,,,,12,,,,56,30
100492,note_off,52,0,4,,,,,,,,2,,,,83,64
100492,note_off,52,0,3,,,,,,,,1,,,,83,64
100495,note_off,55,0,10,,,,,,,,8,,,,68,64
100495,note_off,55,0,5,,,,,,,,3,,,,68,64
100500,note_on,5,0,10,,,,,,,,8,,,,68,30
100500,note_on,5,0,5,,,,,,,,3,,,,68,30
100520,note_on,28,0,3,,,,,,,,1,,,,80,60
100520,note_on,28,0,4,,,,,,,,2,,,,80,45
100555,note_off,55,0,10,,,,,,,,8,,,,68,64
100555,note_off,115,0,9,,,,,,,,7,,,,44,64
100555,note_off,115,0,8,,,,,,,,6,,,,56,64
100555,note_off,55,0,5,,,,,,,,3,,,,68,64
100555,note_off,115,0,13,,,,,,,,12,,,,56,64
100560,note_on,5,0,9,,,,,,,,7,,,,44,30
100560,note_on,5,0,5,,,,,,,,3,,,,68,30
100560,note_on,5,0,10,,,,,,,,8,,,,68,30
100560,note_on,5,0,8,,,,,,,,6,,,,56,30
100560,note_on,5,0,13,,,,,,,,12,,,,56,30
100572,note_off,52,0,3,,,,,,,,1,,,,80,64
100572,note_off,52,0,4,,,,,,,,2,,,,80,64
100600,note_on,28,0,3,,,,,,,,1,,,,83,60
100600,note_on,28,0,4,,,,,,,,2,,,,83,45
100615,note_off,55,0,10,,,,,,,,8,,,,68,64
100615,note_off,55,0,5,,,,,,,,3,,,,68,64
100620,note_on,5,0,10,,,,,,,,8,,,,68,30
100620,note_on,5,0,5,,,,,,,,3,,,,68,30
100652,note_off,52,0,4,,,,,,,,2,,,,83,64
100652,note_off,52,0,3,,,,,,,,1,,,,83,64
100675,note_off,55,0,5,,,,,,,,3,,,,68,64
100675,note_off,115,0,13,,,,,,,,12,,,,56,64
100675,note_off,55,0,10,,,,,,,,8,,,,68,64
100675,note_off,115,0,8,,,,,,,,6,,,,56,64
100675,note_off,115,0,9,,,,,,,,7,,,,44,64
100680,note_on,5,0,9,,,,,,,,7,,,,44,30
100680,note_on,5,0,10,,,,,,,,8,,,,68,30
100680,note_on,5,0,13,,,,,,,,12,,,,56,30
100680,note_on,5,0,5,,,,,,,,3,,,,68,30
100680,note_on,28,0,3,,,,,,,,1,,,,88,60
100680,note_on,5,0,8,,,,,,,,6,,,,56,30
100680,note_on,28,0,4,,,,,,,,2,,,,88,45
100732,note_off,52,0,4,,,,,,,,2,,,,88,64
100732,note_off,52,0,3,,,,,,,,1,,,,88,64
100735,note_off,55,0,5,,,,,,,,3,,,,68,64
100735,note_off,55,0,10,,,,,,,,8,,,,68,64
100740,note_on,5,0,10,,,,,,,,8,,,,68,30
100740,note_on,5,0,5,,,,,,,,3,,,,68,30
100760,note_on,28,0,3,,,,,,,,1,,,,83,60
100760,note_on,28,0,4,,,,,,,,2,,,,83,45
100770,note_on,560,0,14,,,,,,,,13,,,,44,30
100770,note_on,560,0,15,,,,,,,,14,,,,44,30
100795,note_off,115,0,13,,,,,,,,12,,,,56,64
100795,note_off,115,0,9,,,,,,,,7,,,,44,64
100795,note_off,115,0,8,,,,,,,,6,,,,56,64
100795,note_off,55,0,5,,,,,,,,3,,,,68,64
100795,note_off,55,0,10,,,,,,,,8,,,,68,64
100800,note_on,5,0,13,,,,,,,,12,,,,56,30
100800,note_on,5,0,5,,,,,,,,3,,,,68,30
100800,note_on,5,0,8,,,,,,,,6,,,,56,30
100800,note_on,5,0,9,,,,,,,,7,,,,44,30
100800,note_on,5,0,10,,,,,,,,8,,,,68,30
100812,note_off,52,0,3,,,,,,,,1,,,,83,64
100812,note_off,52,0,4,,,,,,,,2,,,,83,64
100840,note_on,28,0,3,,,,,,,,1,,,,88,60
100840,note_on,28,0,4,,,,,,,,2,,,,88,45
100855,note_off,55,0,10,,,,,,,,8,,,,68,64
100855,note_off,55,0,5,,,,,,,,3,,,,68,64
100860,note_on,5,0,10,,,,,,,,8,,,,68,30
100860,note_on,5,0,5,,,,,,,,3,,,,68,30
100885,note_off,115,0,14,,,,,,,,13,,,,44,64
100890,note_on,5,0,14,,,,,,,,13,,,,44,30
100892,note_off,52,0,3,,,,,,,,1,,,,88,64
100892,note_off,52,0,4,,,,,,,,2,,,,88,64
100915,note_off,115,0,9,,,,,,,,7,,,,44,64
100915,note_off,115,0,13,,,,,,,,12,,,,56,64
100915,note_off,115,0,8,,,,,,,,6,,,,56,64
100915,note_off,55,0,5,,,,,,,,3,,,,68,64
100915,note_off,55,0,10,,,,,,,,8,,,,68,64
100920,note_on,28,0,4,,,,,,,,2,,,,83,45
100920,note_on,5,0,8,,,,,,,,6,,,,56,30
100920,note_on,5,0,10,,,,,,,,8,,,,68,30
100920,note_on,28,0,3,,,,,,,,1,,,,83,60
100920,note_on,5,0,9,,,,,,,,7,,,,44,30
100920,note_on,5,0,13,,,,,,,,12,,,,56,30
100920,note_on,5,0,5,,,,,,,,3,,,,68,30
100972,note_off,52,0,4,,,,,,,,2,,,,83,64
100972,note_off,52,0,3,,,,,,,,1,,,,83,64
100975,note_off,55,0,5,,,,,,,,3,,,,68,64
100975,note_off,55,0,10,,,,,,,,8,,,,68,64
100980,note_on,5,0,5,,,,,,,,3,,,,68,30
100980,note_on,5,0,10,,,,,,,,8,,,,68,30
101000,note_on,28,0,4,,,,,,,,2,,,,80,45
101000,note_on,28,0,3,,,,,,,,1,,,,80,60
101005,note_off,115,0,14,,,,,,,,13,,,,44,64
101010,note_on,5,0,14,,,,,,,,13,,,,44,30
101035,note_off,115,0,8,,,,,,,,6,,,,56,64
101035,note_off,115,0,9,,,,,,,,7,,,,44,64
101035,note_off,55,0,10,,,,,,,,8,,,,68,64
101035,note_off,115,0,13,,,,,,,,12,,,,56,64
101035,note_off,55,0,5,,,,,,,,3,,,,68,64
101040,note_on,5,0,10,,,,,,,,8,,,,68,30
101040,note_on,5,0,8,,,,,,,,6,,,,56,30
101040,note_on,5,0,13,,,,,,,,12,,,,56,30
101040,note_on,5,0,9,,,,,,,,7,,,,44,30
101040,note_on,5,0,5,,,,,,,,3,,,,68,30
101052,note_off,52,0,3,,,,,,,,1,,,,80,64
101052,note_off,52,0,4,,,,,,,,2,,,,80,64
101080,note_on,28,0,3,,,,,,,,1,,,,83,60
101080,note_on,28,0,4,,,,,,,,2,,,,83,45
101095,note_off,55,0,10,,,,,,,,8,,,,68,64
101095,note_off,55,0,5,,,,,,,,3,,,,68,64
101100,note_on,5,0,10,,,,,,,,8,,,,68,30
101100,note_on,5,0,5,,,,,,,,3,,,,68,30
101125,note_off,115,0,14,,,,,,,,13,,,,44,64
101130,note_on,5,0,14,,,,,,,,13,,,,44,30
101132,note_off,52,0,4,,,,,,,,2,,,,83,64
101132,note_off,52,0,3,,,,,,,,1,,,,83,64
101155,note_off,55,0,5,,,,,,,,3,,,,68,64
101155,note_off,115,0,9,,,,,,,,7,,,,44,64
101155,note_off,115,0,8,,,,,,,,6,,,,56,64
101155,note_off,55,0,10,,,,,,,,8,,,,68,64
101155,note_off,115,0,13,,,,,,,,12,,,,56,64
101160,note_on,28,0,3,,,,,,,,1,,,,88,60
101160,note_on,5,0,8,,,,,,,,6,,,,56,30
101160,note_on,5,0,9,,,,,,,,7,,,,44,30
101160,note_on,5,0,13,,,,,,,,12,,,,56,30
101160,note_on,5,0,5,,,,,,,,3,,,,68,30
101160,note_on,5,0,10,,,,,,,,8,,,,68,30
101160,note_on,28,0,4,,,,,,,,2,,,,88,45
101212,note_off,52,0,4,,,,,,,,2,,,,88,64
101212,note_off,52,0,3,,,,,,,,1,,,,88,64
101215,note_off,55,0,10,,,,,,,,8,,,,68,64
101215,note_off,55,0,5,,,,,,,,3,,,,68,64
101220,note_on,5,0,5,,,,,,,,3,,,,68,30
101220,note_on,5,0,10,,,,,,,,8,,,,68,30
101240,note_on,28,0,3,,,,,,,,1,,,,83,60
101240,note_on,28,0,4,,,,,,,,2,,,,83,45
101245,note_off,115,0,14,,,,,,,,13,,,,44,64
101250,note_on,5,0,14,,,,,,,,13,,,,44,30
101275,note_off,55,0,10,,,,,,,,8,,,,68,64
101275,note_off,115,0,8,,,,,,,,6,,,,56,64
101275,note_off,115,0,9,,,,,,,,7,,,,44,64
101275,note_off,55,0,5,,,,,,,,3,,,,68,64
101275,note_off,115,0,13,,,,,,,,12,,,,56,64
101280,note_on,5,0,9,,,,,,,,7,,,,44,30
101280,note_on,5,0,10,,,,,,,,8,,,,68,30
101280,note_on,5,0,13,,,,,,,,12,,,,56,30
101280,note_on,5,0,8,,,,,,,,6,,,,56,30
101280,note_on,5,0,5,,,,,,,,3,,,,68,30
101292,note_off,52,0,3,,,,,,,,1,,,,83,64
101292,note_off,52,0,4,,,,,,,,2,,,,83,64
101320,note_on,28,0,3,,,,,,,,1,,,,88,60
101320,note_on,28,0,4,,,,,,,,2,,,,88,45
101335,note_off,55,0,10,,,,,,,,8,,,,68,64
101335,note_off,55,0,5,,,,,,,,3,,,,68,64
101340,note_on,5,0,10,,,,,,,,8,,,,68,30
101340,note_on,5,0,5,,,,,,,,3,,,,68,30
101365,note_off,115,0,14,,,,,,,,13,,,,44,64
101370,note_on,5,0,14,,,,,,,,13,,,,44,30
101372,note_off,52,0,4,,,,,,,,2,,,,88,64
101372,note_off,52,0,3,,,,,,,,1,,,,88,64
101395,note_off,115,0,9,,,,,,,,7,,,,44,64
101395,note_off,55,0,10,,,,,,,,8,,,,68,64
101395,note_off,55,0,5,,,,,,,,3,,,,68,64
101395,note_off,115,0,13,,,,,,,,12,,,,56,64
101395,note_off,115,0,8,,,,,,,,6,,,,56,64
101400,note_on,5,0,13,,,,,,,,12,,,,54,30
101400,note_on,5,0,10,,,,,,,,8,,,,66,30
101400,note_on,28,0,4,,,,,,,,2,,,,81,45
101400,note_on,1520,0,2,,,,,,,,0,,,,42,30
101400,note_on,28,0,3,,,,,,,,1,,,,81,60
101400,note_on,1520,0,1,,,,,,,,0,,,,66,30
101400,note_on,0,0,1,,,,,,,,0,,,,69,30
101400,note_on,0,0,2,,,,,,,,0,,,,54,30
101400,note_on,0,0,1,,,,,,,,0,,,,75,30
101400,note_on,5,0,5,,,,,,,,3,,,,66,30
101400,note_on,5,0,8,,,,,,,,6,,,,54,30
101400,note_on,5,0,9,,,,,,,,7,,,,42,30
101452,note_off,52,0,4,,,,,,,,2,,,,81,64
101452,note_off,52,0,3,,,,,,,,1,,,,81,64
101480,note_on,28,0,4,,,,,,,,2,,,,78,45
101480,note_on,28,0,3,,,,,,,,1,,,,78,60
101485,note_off,115,0,14,,,,,,,,13,,,,44,64
101490,note_on,5,0,14,,,,,,,,13,,,,44,30
101532,note_off,52,0,4,,,,,,,,2,,,,78,64
101532,note_off,52,0,3,,,,,,,,1,,,,78,64
101560,note_on,28,0,4,,,,,,,,2,,,,81,45
101560,note_on,28,0,3,,,,,,,,1,,,,81,60
101605,note_off,115,0,14,,,,,,,,13,,,,44,64
101610,note_on,5,0,14,,,,,,,,13,,,,44,30
101610,note_off,840,0,15,,,,,,,,14,,,,44,64
101612,note_off,52,0,3,,,,,,,,1,,,,81,64
101612,note_off,52,0,4,,,,,,,,2,,,,81,64
101640,note_on,28,0,4,,,,,,,,2,,,,87,45
101640,note_on,28,0,3,,,,,,,,1,,,,87,60
101692,note_off,52,0,4,,,,,,,,2,,,,87,64
101692,note_off,52,0,3,,,,,,,,1,,,,87,64
101720,note_on,28,0,4,,,,,,,,2,,,,81,45
101720,note_on,28,0,3,,,,,,,,1,,,,81,60
101725,note_off,115,0,14,,,,,,,,13,,,,44,64
101730,note_on,120,0,15,,,,,,,,14,,,,42,30
101730,note_on,5,0,14,,,,,,,,13,,,,42,30
101772,note_off,52,0,4,,,,,,,,2,,,,81,64
101772,note_off,52,0,3,,,,,,,,1,,,,81,64
101800,note_off,400,0,2,,,,,,,,0,,,,54,64
101800,note_off,400,0,9,,,,,,,,7,,,,42,64
101800,note_off,400,0,5,,,,,,,,3,,,,66,64
101800,note_off,400,0,13,,,,,,,,12,,,,54,64
101800,note_off,0,0,1,,,,,,,,0,,,,66,64
101800,note_on,28,0,3,,,,,,,,1,,,,87,60
101800,note_off,400,0,8,,,,,,,,6,,,,54,64
101800,note_off,0,0,1,,,,,,,,0,,,,69,64
101800,note_on,28,0,4,,,,,,,,2,,,,87,45
101800,note_off,400,0,10,,,,,,,,8,,,,66,64
101800,note_off,0,0,2,,,,,,,,0,,,,42,64
101800,note_off,400,0,1,,,,,,,,0,,,,75,64
101852,note_off,52,0,4,,,,,,,,2,,,,87,64
101852,note_off,52,0,3,,,,,,,,1,,,,87,64
101880,note_on,28,0,4,,,,,,,,2,,,,81,45
101880,note_on,28,0,3,,,,,,,,1,,,,81,60
101932,note_off,52,0,4,,,,,,,,2,,,,81,64
101932,note_off,52,0,3,,,,,,,,1,,,,81,64
101960,note_on,28,0,3,,,,,,,,1,,,,78,60
101960,note_on,28,0,4,,,,,,,,2,,,,78,45
102012,note_off,52,0,3,,,,,,,,1,,,,78,64
102012,note_off,52,0,4,,,,,,,,2,,,,78,64
102040,note_on,28,0,3,,,,,,,,1,,,,81,60
102040,note_on,28,0,4,,,,,,,,2,,,,81,45
102092,note_off,52,0,3,,,,,,,,1,,,,81,64
102092,note_off,52,0,4,,,,,,,,2,,,,81,64
102120,note_on,28,0,3,,,,,,,,1,,,,87,60
102120,note_on,28,0,4,,,,,,,,2,,,,87,45
102130,note_off,400,0,15,,,,,,,,14,,,,42,64
102130,note_off,400,0,14,,,,,,,,13,,,,42,64
102172,note_off,52,0,3,,,,,,,,1,,,,87,64
102172,note_off,52,0,4,,,,,,,,2,,,,87,64
102200,note_on,28,0,3,,,,,,,,1,,,,81,60
102200,note_on,28,0,4,,,,,,,,2,,,,81,45
102252,note_off,52,0,3,,,,,,,,1,,,,81,64
102252,note_off,52,0,4,,,,,,,,2,,,,81,64
102280,note_on,28,0,3,,,,,,,,1,,,,87,60
102280,note_on,28,0,4,,,,,,,,2,,,,87,45
102332,note_off,52,0,3,,,,,,,,1,,,,87,64
102332,note_off,52,0,4,,,,,,,,2,,,,87,64
102360,note_on,560,0,1,,,,,,,,0,,,,64,45
102360,note_on,28,0,3,,,,,,,,1,,,,80,60
102360,note_on,560,0,13,,,,,,,,12,,,,52,30
102360,note_on,560,0,8,,,,,,,,6,,,,52,30
102360,note_on,560,0,9,,,,,,,,7,,,,40,30
102360,note_on,560,0,2,,,,,,,,0,,,,52,30
102360,note_on,0,0,2,,,,,,,,0,,,,64,30
102360,note_on,560,0,10,,,,,,,,8,,,,64,30
102360,note_on,28,0,4,,,,,,,,2,,,,80,45
102360,note_on,560,0,5,,,,,,,,3,,,,64,30
102412,note_off,52,0,3,,,,,,,,1,,,,80,64
102412,note_off,52,0,4,,,,,,,,2,,,,80,64
102415,note_off,55,0,5,,,,,,,,3,,,,64,64
102415,note_off,55,0,10,,,,,,,,8,,,,64,64
102420,note_on,5,0,5,,,,,,,,3,,,,64,30
102420,note_on,5,0,10,,,,,,,,8,,,,64,30
102440,note_on,28,0,3,,,,,,,,1,,,,76,61
102440,note_on,28,0,4,,,,,,,,2,,,,76,46
102475,note_off,55,0,5,,,,,,,,3,,,,64,64
102475,note_off,115,0,13,,,,,,,,12,,,,52,64
102475,note_off,115,0,8,,,,,,,,6,,,,52,64
102475,note_off,55,0,10,,,,,,,,8,,,,64,64
102475,note_off,115,0,9,,,,,,,,7,,,,40,64
102480,note_on,5,0,13,,,,,,,,12,,,,52,31
102480,note_on,5,0,5,,,,,,,,3,,,,64,30
102480,note_on,5,0,9,,,,,,,,7,,,,40,31
102480,note_on,0,0,1,,,,,,,,0,,,,68,45
102480,note_off,120,0,1,,,,,,,,0,,,,64,64
102480,note_on,5,0,8,,,,,,,,6,,,,52,31
102480,note_on,5,0,10,,,,,,,,8,,,,64,30
102492,note_off,52,0,3,,,,,,,,1,,,,76,64
102492,note_off,52,0,4,,,,,,,,2,,,,76,64
102520,note_on,28,0,4,,,,,,,,2,,,,80,47
102520,note_on,28,0,3,,,,,,,,1,,,,80,62
102535,note_off,55,0,5,,,,,,,,3,,,,64,64
102535,note_off,55,0,10,,,,,,,,8,,,,64,64
102540,note_on,5,0,5,,,,,,,,3,,,,64,30
102540,note_on,5,0,10,,,,,,,,8,,,,64,30
102572,note_off,52,0,4,,,,,,,,2,,,,80,64
102572,note_off,52,0,3,,,,,,,,1,,,,80,64
102595,note_off,115,0,9,,,,,,,,7,,,,40,64
102595,note_off,55,0,5,,,,,,,,3,,,,64,64
102595,note_off,115,0,13,,,,,,,,12,,,,52,64
102595,note_off,55,0,10,,,,,,,,8,,,,64,64
102595,note_off,115,0,8,,,,,,,,6,,,,52,64
102600,note_on,5,0,5,,,,,,,,3,,,,64,31
102600,note_on,28,0,4,,,,,,,,2,,,,85,48
102600,note_on,0,0,1,,,,,,,,0,,,,73,46
102600,note_on,28,0,3,,,,,,,,1,,,,85,63
102600,note_on,5,0,9,,,,,,,,7,,,,40,32
102600,note_off,120,0,1,,,,,,,,0,,,,68,64
102600,note_on,5,0,8,,,,,,,,6,,,,52,32
102600,note_on,5,0,13,,,,,,,,12,,,,52,32
102600,note_on,5,0,10,,,,,,,,8,,,,64,31
102652,note_off,52,0,4,,,,,,,,2,,,,85,64
102652,note_off,52,0,3,,,,,,,,1,,,,85,64
102655,note_off,55,0,10,,,,,,,,8,,,,64,64
102655,note_off,55,0,5,,,,,,,,3,,,,64,64
102660,note_on,5,0,5,,,,,,,,3,,,,64,32
102660,note_on,5,0,10,,,,,,,,8,,,,64,32
102680,note_on,28,0,3,,,,,,,,1,,,,80,64
102680,note_on,28,0,4,,,,,,,,2,,,,80,49
102690,note_on,560,0,15,,,,,,,,14,,,,40,30
102690,note_on,560,0,14,,,,,,,,13,,,,40,30
102715,note_off,115,0,9,,,,,,,,7,,,,40,64
102715,note_off,115,0,13,,,,,,,,12,,,,52,64
102715,note_off,115,0,8,,,,,,,,6,,,,52,64
102715,note_off,55,0,10,,,,,,,,8,,,,64,64
102715,note_off,55,0,5,,,,,,,,3,,,,64,64
102720,note_on,5,0,13,,,,,,,,12,,,,52,33
102720,note_off,120,0,1,,,,,,,,0,,,,73,64
102720,note_on,5,0,10,,,,,,,,8,,,,64,32
102720,note_on,0,0,1,,,,,,,,0,,,,68,47
102720,note_on,5,0,9,,,,,,,,7,,,,40,33
102720,note_on,5,0,5,,,,,,,,3,,,,64,32
102720,note_on,5,0,8,,,,,,,,6,,,,52,33
102732,note_off,52,0,4,,,,,,,,2,,,,80,64
102732,note_off,52,0,3,,,,,,,,1,,,,80,64
102760,note_on,28,0,4,,,,,,,,2,,,,85,50
102760,note_off,400,0,2,,,,,,,,0,,,,64,64
102760,note_off,0,0,2,,,,,,,,0,,,,52,64
102760,note_on,28,0,3,,,,,,,,1,,,,85,65
102775,note_off,55,0,10,,,,,,,,8,,,,64,64
102775,note_off,55,0,5,,,,,,,,3,,,,64,64
102780,note_on,5,0,5,,,,,,,,3,,,,64,33
102780,note_on,5,0,10,,,,,,,,8,,,,64,33
102805,note_off,115,0,14,,,,,,,,13,,,,40,64
102810,note_on,5,0,14,,,,,,,,13,,,,40,31
102812,note_off,52,0,4,,,,,,,,2,,,,85,64
102812,note_off,52,0,3,,,,,,,,1,,,,85,64
102835,note_off,55,0,5,,,,,,,,3,,,,64,64
102835,note_off,115,0,9,,,,,,,,7,,,,40,64
102835,note_off,55,0,10,,,,,,,,8,,,,64,64
102835,note_off,115,0,13,,,,,,,,12,,,,52,64
102835,note_off,115,0,8,,,,,,,,6,,,,52,64
102840,note_on,0,0,2,,,,,,,,0,,,,61,35
102840,note_on,5,0,9,,,,,,,,7,,,,37,35
102840,note_on,80,0,2,,,,,,,,0,,,,49,35
102840,note_on,5,0,13,,,,,,,,12,,,,49,35
102840,note_on,5,0,8,,,,,,,,6,,,,49,35
102840,note_on,28,0,3,,,,,,,,1,,,,80,66
102840,note_off,120,0,1,,,,,,,,0,,,,68,64
102840,note_on,5,0,5,,,,,,,,3,,,,61,34
102840,note_on,28,0,4,,,,,,,,2,,,,80,51
102840,note_on,5,0,10,,,,,,,,8,,,,61,34
102840,note_on,0,0,1,,,,,,,,0,,,,64,48
102892,note_off,52,0,4,,,,,,,,2,,,,80,64
102892,note_off,52,0,3,,,,,,,,1,,,,80,64
102895,note_off,55,0,5,,,,,,,,3,,,,61,64
102895,note_off,55,0,10,,,,,,,,8,,,,61,64
102900,note_on,5,0,5,,,,,,,,3,,,,61,35
102900,note_on,5,0,10,,,,,,,,8,,,,61,35
102920,note_on,28,0,3,,,,,,,,1,,,,76,67
102920,note_on,28,0,4,,,,,,,,2,,,,76,52
102925,note_off,115,0,14,,,,,,,,13,,,,40,64
102930,note_on,5,0,14,,,,,,,,13,,,,40,32
102955,note_off,115,0,13,,,,,,,,12,,,,49,64
102955,note_off,115,0,8,,,,,,,,6,,,,49,64
102955,note_off,55,0,5,,,,,,,,3,,,,61,64
102955,note_off,55,0,10,,,,,,,,8,,,,61,64
102955,note_off,115,0,9,,,,,,,,7,,,,37,64
102960,note_on,5,0,8,,,,,,,,6,,,,49,37
102960,note_on,5,0,5,,,,,,,,3,,,,61,36
102960,note_on,0,0,1,,,,,,,,0,,,,68,49
102960,note_on,5,0,13,,,,,,,,12,,,,49,37
102960,note_on,5,0,10,,,,,,,,8,,,,61,36
102960,note_on,5,0,9,,,,,,,,7,,,,37,37
102960,note_off,120,0,1,,,,,,,,0,,,,64,64
102972,note_off,52,0,3,,,,,,,,1,,,,76,64
102972,note_off,52,0,4,,,,,,,,2,,,,76,64
103000,note_on,28,0,4,,,,,,,,2,,,,80,53
103000,note_on,28,0,3,,,,,,,,1,,,,80,68
103015,note_off,55,0,10,,,,,,,,8,,,,61,64
103015,note_off,55,0,5,,,,,,,,3,,,,61,64
103020,note_on,5,0,5,,,,,,,,3,,,,61,37
103020,note_on,5,0,10,,,,,,,,8,,,,61,37
103045,note_off,115,0,14,,,,,,,,13,,,,40,64
103050,note_on,5,0,14,,,,,,,,13,,,,40,33
103052,note_off,52,0,4,,,,,,,,2,,,,80,64
103052,note_off,52,0,3,,,,,,,,1,,,,80,64
103075,note_off,55,0,5,,,,,,,,3,,,,61,64
103075,note_off,115,0,8,,,,,,,,6,,,,49,64
103075,note_off,115,0,9,,,,,,,,7,,,,37,64
103075,note_off,55,0,10,,,,,,,,8,,,,61,64
103075,note_off,115,0,13,,,,,,,,12,,,,49,64
103080,note_on,5,0,5,,,,,,,,3,,,,61,38
103080,note_on,28,0,3,,,,,,,,1,,,,85,69
103080,note_on,5,0,9,,,,,,,,7,,,,37,39
103080,note_on,5,0,8,,,,,,,,6,,,,49,39
103080,note_on,28,0,4,,,,,,,,2,,,,85,54
103080,note_on,0,0,1,,,,,,,,0,,,,73,50
103080,note_off,120,0,1,,,,,,,,0,,,,68,64
103080,note_on,5,0,13,,,,,,,,12,,,,49,39
103080,note_on,5,0,10,,,,,,,,8,,,,61,38
103090,note_off,400,0,15,,,,,,,,14,,,,40,64
103132,note_off,52,0,4,,,,,,,,2,,,,85,64
103132,note_off,52,0,3,,,,,,,,1,,,,85,64
103135,note_off,55,0,10,,,,,,,,8,,,,61,64
103135,note_off,55,0,5,,,,,,,,3,,,,61,64
103140,note_on,5,0,10,,,,,,,,8,,,,61,39
103140,note_on,5,0,5,,,,,,,,3,,,,61,39
103160,note_on,28,0,4,,,,,,,,2,,,,80,55
103160,note_on,28,0,3,,,,,,,,1,,,,80,70
103165,note_off,115,0,14,,,,,,,,13,,,,40,64
103170,note_on,5,0,14,,,,,,,,13,,,,37,35
103170,note_on,80,0,15,,,,,,,,14,,,,37,37
103195,note_off,115,0,8,,,,,,,,6,,,,49,64
103195,note_off,55,0,5,,,,,,,,3,,,,61,64
103195,note_off,115,0,13,,,,,,,,12,,,,49,64
103195,note_off,55,0,10,,,,,,,,8,,,,61,64
103195,note_off,115,0,9,,,,,,,,7,,,,37,64
103200,note_on,5,0,9,,,,,,,,7,,,,37,41
103200,note_on,5,0,5,,,,,,,,3,,,,61,40
103200,note_on,5,0,13,,,,,,,,12,,,,49,41
103200,note_off,120,0,1,,,,,,,,0,,,,73,64
103200,note_on,0,0,1,,,,,,,,0,,,,68,51
103200,note_on,5,0,10,,,,,,,,8,,,,61,40
103200,note_on,5,0,8,,,,,,,,6,,,,49,41
103212,note_off,52,0,3,,,,,,,,1,,,,80,64
103212,note_off,52,0,4,,,,,,,,2,,,,80,64
103240,note_off,0,0,2,,,,,,,,0,,,,49,64
103240,note_on,28,0,3,,,,,,,,1,,,,85,71
103240,note_on,28,0,4,,,,,,,,2,,,,85,56
103240,note_off,400,0,2,,,,,,,,0,,,,61,64
103255,note_off,55,0,10,,,,,,,,8,,,,61,64
103255,note_off,55,0,5,,,,,,,,3,,,,61,64
103260,note_on,5,0,5,,,,,,,,3,,,,61,41
103260,note_on,5,0,10,,,,,,,,8,,,,61,41
103285,note_off,115,0,14,,,,,,,,13,,,,37,64
103290,note_on,5,0,14,,,,,,,,13,,,,37,37
103292,note_off,52,0,3,,,,,,,,1,,,,85,64
103292,note_off,52,0,4,,,,,,,,2,,,,85,64
103315,note_off,115,0,13,,,,,,,,12,,,,49,64
103315,note_off,55,0,5,,,,,,,,3,,,,61,64
103315,note_off,55,0,10,,,,,,,,8,,,,61,64
103315,note_off,115,0,9,,,,,,,,7,,,,37,64
103315,note_off,115,0,8,,,,,,,,6,,,,49,64
103320,note_on,5,0,9,,,,,,,,7,,,,32,43
103320,note_on,5,0,13,,,,,,,,12,,,,44,43
103320,note_on,5,0,5,,,,,,,,3,,,,56,42
103320,note_on,5,0,8,,,,,,,,6,,,,44,43
103320,note_on,28,0,3,,,,,,,,1,,,,80,72
103320,note_on,0,0,1,,,,,,,,0,,,,64,52
103320,note_off,120,0,1,,,,,,,,0,,,,68,64
103320,note_on,80,0,2,,,,,,,,0,,,,44,40
103320,note_on,0,0,2,,,,,,,,0,,,,56,40
103320,note_on,28,0,4,,,,,,,,2,,,,80,57
103320,note_on,5,0,10,,,,,,,,8,,,,56,42
103372,note_off,52,0,3,,,,,,,,1,,,,80,64
103372,note_off,52,0,4,,,,,,,,2,,,,80,64
103375,note_off,55,0,5,,,,,,,,3,,,,56,64
103375,note_off,55,0,10,,,,,,,,8,,,,56,64
103380,note_on,5,0,5,,,,,,,,3,,,,56,43
103380,note_on,5,0,10,,,,,,,,8,,,,56,43
103400,note_on,28,0,3,,,,,,,,1,,,,76,73
103400,note_on,28,0,4,,,,,,,,2,,,,76,58
103405,note_off,115,0,14,,,,,,,,13,,,,37,64
103410,note_on,5,0,14,,,,,,,,13,,,,37,39
103435,note_off,115,0,8,,,,,,,,6,,,,44,64
103435,note_off,55,0,5,,,,,,,,3,,,,56,64
103435,note_off,55,0,10,,,,,,,,8,,,,56,64
103435,note_off,115,0,13,,,,,,,,12,,,,44,64
103435,note_off,115,0,9,,,,,,,,7,,,,32,64
103440,note_on,5,0,5,,,,,,,,3,,,,56,44
103440,note_on,5,0,9,,,,,,,,7,,,,32,45
103440,note_on,5,0,10,,,,,,,,8,,,,56,44
103440,note_on,0,0,1,,,,,,,,0,,,,68,53
103440,note_off,120,0,1,,,,,,,,0,,,,64,64
103440,note_on,5,0,13,,,,,,,,12,,,,44,45
103440,note_on,5,0,8,,,,,,,,6,,,,44,45
103452,note_off,52,0,4,,,,,,,,2,,,,76,64
103452,note_off,52,0,3,,,,,,,,1,,,,76,64
103480,note_on,28,0,4,,,,,,,,2,,,,80,59
103480,note_on,28,0,3,,,,,,,,1,,,,80,74
103495,note_off,55,0,10,,,,,,,,8,,,,56,64
103495,note_off,55,0,5,,,,,,,,3,,,,56,64
103500,note_on,5,0,10,,,,,,,,8,,,,56,45
103500,note_on,5,0,5,,,,,,,,3,,,,56,45
103525,note_off,115,0,14,,,,,,,,13,,,,37,64
103530,note_on,5,0,14,,,,,,,,13,,,,37,41
103532,note_off,52,0,4,,,,,,,,2,,,,80,64
103532,note_off,52,0,3,,,,,,,,1,,,,80,64
103555,note_off,115,0,8,,,,,,,,6,,,,44,64
103555,note_off,115,0,13,,,,,,,,12,,,,44,64
103555,note_off,55,0,10,,,,,,,,8,,,,56,64
103555,note_off,55,0,5,,,,,,,,3,,,,56,64
103555,note_off,115,0,9,,,,,,,,7,,,,32,64
103560,note_on,5,0,13,,,,,,,,12,,,,44,47
103560,note_off,120,0,1,,,,,,,,0,,,,68,64
103560,note_on,0,0,1,,,,,,,,0,,,,73,54
103560,note_on,5,0,10,,,,,,,,8,,,,56,46
103560,note_on,5,0,9,,,,,,,,7,,,,32,47
103560,note_on,28,0,3,,,,,,,,1,,,,85,75
103560,note_on,28,0,4,,,,,,,,2,,,,85,60
103560,note_on,5,0,8,,,,,,,,6,,,,44,47
103560,note_on,5,0,5,,,,,,,,3,,,,56,46
103570,note_off,400,0,15,,,,,,,,14,,,,37,64
103612,note_off,52,0,3,,,,,,,,1,,,,85,64
103612,note_off,52,0,4,,,,,,,,2,,,,85,64
103615,note_off,55,0,10,,,,,,,,8,,,,56,64
103615,note_off,55,0,5,,,,,,,,3,,,,56,64
103620,note_on,5,0,5,,,,,,,,3,,,,56,47
103620,note_on,5,0,10,,,,,,,,8,,,,56,47
103640,note_on,28,0,4,,,,,,,,2,,,,80,61
103640,note_on,28,0,3,,,,,,,,1,,,,80,76
103645,note_off,115,0,14,,,,,,,,13,,,,37,64
103650,note_on,80,0,15,,,,,,,,14,,,,32,44
103650,note_on,5,0,14,,,,,,,,13,,,,32,43
103675,note_off,115,0,13,,,,,,,,12,,,,44,64
103675,note_off,55,0,5,,,,,,,,3,,,,56,64
103675,note_off,115,0,9,,,,,,,,7,,,,32,64
103675,note_off,55,0,10,,,,,,,,8,,,,56,64
103675,note_off,115,0,8,,,,,,,,6,,,,44,64
103680,note_on,5,0,8,,,,,,,,6,,,,44,49
103680,note_on,5,0,13,,,,,,,,12,,,,44,49
103680,note_on,5,0,10,,,,,,,,8,,,,56,48
103680,note_off,120,0,1,,,,,,,,0,,,,73,64
103680,note_on,5,0,5,,,,,,,,3,,,,56,48
103680,note_on,0,0,1,,,,,,,,0,,,,68,55
103680,note_on,5,0,9,,,,,,,,7,,,,32,49
103692,note_off,52,0,3,,,,,,,,1,,,,80,64
103692,note_off,52,0,4,,,,,,,,2,,,,80,64
103720,note_on,28,0,4,,,,,,,,2,,,,85,62
103720,note_off,400,0,2,,,,,,,,0,,,,56,64
103720,note_on,28,0,3,,,,,,,,1,,,,85,77
103720,note_off,0,0,2,,,,,,,,0,,,,44,64
103735,note_off,55,0,10,,,,,,,,8,,,,56,64
103735,note_off,55,0,5,,,,,,,,3,,,,56,64
103740,note_on,5,0,5,,,,,,,,3,,,,56,49
103740,note_on,5,0,10,,,,,,,,8,,,,56,49
103765,note_off,115,0,14,,,,,,,,13,,,,32,64
103770,note_on,5,0,14,,,,,,,,13,,,,32,45
103772,note_off,52,0,4,,,,,,,,2,,,,85,64
103772,note_off,52,0,3,,,,,,,,1,,,,85,64
103795,note_off,115,0,8,,,,,,,,6,,,,44,64
103795,note_off,115,0,13,,,,,,,,12,,,,44,64
103795,note_off,55,0,10,,,,,,,,8,,,,56,64
103795,note_off,115,0,9,,,,,,,,7,,,,32,64
103795,note_off,55,0,5,,,,,,,,3,,,,56,64
103800,note_on,5,0,13,,,,,,,,12,,,,44,51
103800,note_on,80,0,2,,,,,,,,0,,,,44,45
103800,note_on,5,0,8,,,,,,,,6,,,,44,51
103800,note_on,5,0,5,,,,,,,,3,,,,56,50
103800,note_off,120,0,1,,,,,,,,0,,,,68,64
103800,note_on,0,0,2,,,,,,,,0,,,,56,45
103800,note_on,28,0,3,,,,,,,,1,,,,80,78
103800,note_on,28,0,4,,,,,,,,2,,,,80,63
103800,note_on,5,0,10,,,,,,,,8,,,,56,50
103800,note_on,5,0,9,,,,,,,,7,,,,32,51
103800,note_on,0,0,1,,,,,,,,0,,,,64,56
103852,note_off,52,0,4,,,,,,,,2,,,,80,64
103852,note_off,52,0,3,,,,,,,,1,,,,80,64
103855,note_off,55,0,5,,,,,,,,3,,,,56,64
103855,note_off,55,0,10,,,,,,,,8,,,,56,64
103860,note_on,5,0,5,,,,,,,,3,,,,56,51
103860,note_on,5,0,10,,,,,,,,8,,,,56,51
103880,note_on,28,0,3,,,,,,,,1,,,,76,79
103880,note_on,28,0,4,,,,,,,,2,,,,76,64
103885,note_off,115,0,14,,,,,,,,13,,,,32,64
103890,note_on,5,0,14,,,,,,,,13,,,,32,47
103915,note_off,115,0,13,,,,,,,,12,,,,44,64
103915,note_off,55,0,5,,,,,,,,3,,,,56,64
103915,note_off,55,0,10,,,,,,,,8,,,,56,64
103915,note_off,115,0,8,,,,,,,,6,,,,44,64
103915,note_off,115,0,9,,,,,,,,7,,,,32,64
103920,note_on,5,0,13,,,,,,,,12,,,,44,53
103920,note_on,0,0,1,,,,,,,,0,,,,68,57
103920,note_off,120,0,1,,,,,,,,0,,,,64,64
103920,note_on,5,0,9,,,,,,,,7,,,,32,53
103920,note_on,5,0,8,,,,,,,,6,,,,44,53
103920,note_on,5,0,5,,,,,,,,3,,,,56,52
103920,note_on,5,0,10,,,,,,,,8,,,,56,52
103932,note_off,52,0,3,,,,,,,,1,,,,76,64
103932,note_off,52,0,4,,,,,,,,2,,,,76,64
103960,note_on,28,0,4,,,,,,,,2,,,,80,65
103960,note_on,28,0,3,,,,,,,,1,,,,80,80
103975,note_off,55,0,10,,,,,,,,8,,,,56,64
103975,note_off,55,0,5,,,,,,,,3,,,,56,64
103980,note_on,5,0,5,,,,,,,,3,,,,56,53
103980,note_on,5,0,10,,,,,,,,8,,,,56,53
104005,note_off,115,0,14,,,,,,,,13,,,,32,64
104010,note_on,5,0,14,,,,,,,,13,,,,32,49
104012,note_off,52,0,3,,,,,,,,1,,,,80,64
104012,note_off,52,0,4,,,,,,,,2,,,,80,64
104035,note_off,115,0,13,,,,,,,,12,,,,44,64
104035,note_off,115,0,9,,,,,,,,7,,,,32,64
104035,note_off,55,0,5,,,,,,,,3,,,,56,64
104035,note_off,55,0,10,,,,,,,,8,,,,56,64
104035,note_off,115,0,8,,,,,,,,6,,,,44,64
104040,note_on,28,0,4,,,,,,,,2,,,,85,66
104040,note_on,5,0,5,,,,,,,,3,,,,56,54
104040,note_on,5,0,13,,,,,,,,12,,,,44,55
104040,note_on,5,0,8,,,,,,,,6,,,,44,55
104040,note_on,28,0,3,,,,,,,,1,,,,85,81
104040,note_off,120,0,1,,,,,,,,0,,,,68,64
104040,note_on,5,0,10,,,,,,,,8,,,,56,54
104040,note_on,5,0,9,,,,,,,,7,,,,32,55
104040,note_on,0,0,1,,,,,,,,0,,,,73,58
104050,note_off,400,0,15,,,,,,,,14,,,,32,64
104092,note_off,52,0,4,,,,,,,,2,,,,85,64
104092,note_off,52,0,3,,,,,,,,1,,,,85,64
104095,note_off,55,0,5,,,,,,,,3,,,,56,64
104095,note_off,55,0,10,,,,,,,,8,,,,56,64
104100,note_on,5,0,10,,,,,,,,8,,,,56,55
104100,note_on,5,0,5,,,,,,,,3,,,,56,55
104120,note_on,28,0,4,,,,,,,,2,,,,80,67
104120,note_on,28,0,3,,,,,,,,1,,,,80,82
104125,note_off,115,0,14,,,,,,,,13,,,,32,64
104130,note_on,80,0,15,,,,,,,,14,,,,32,51
104130,note_on,5,0,14,,,,,,,,13,,,,32,51
104155,note_off,115,0,13,,,,,,,,12,,,,44,64
104155,note_off,55,0,5,,,,,,,,3,,,,56,64
104155,note_off,115,0,8,,,,,,,,6,,,,44,64
104155,note_off,55,0,10,,,,,,,,8,,,,56,64
104155,note_off,115,0,9,,,,,,,,7,,,,32,64
104160,note_on,5,0,10,,,,,,,,8,,,,56,56
104160,note_on,5,0,9,,,,,,,,7,,,,32,57
104160,note_off,120,0,1,,,,,,,,0,,,,73,64
104160,note_on,0,0,1,,,,,,,,0,,,,68,59
104160,note_on,5,0,5,,,,,,,,3,,,,56,56
104160,note_on,5,0,13,,,,,,,,12,,,,44,57
104160,note_on,5,0,8,,,,,,,,6,,,,44,57
104172,note_off,52,0,3,,,,,,,,1,,,,80,64
104172,note_off,52,0,4,,,,,,,,2,,,,80,64
104200,note_on,28,0,4,,,,,,,,2,,,,85,68
104200,note_on,28,0,3,,,,,,,,1,,,,85,84
104200,note_off,0,0,2,,,,,,,,0,,,,44,64
104200,note_off,400,0,2,,,,,,,,0,,,,56,64
104215,note_off,55,0,5,,,,,,,,3,,,,56,64
104215,note_off,55,0,10,,,,,,,,8,,,,56,64
104220,note_on,5,0,5,,,,,,,,3,,,,56,57
104220,note_on,5,0,10,,,,,,,,8,,,,56,57
104245,note_off,115,0,14,,,,,,,,13,,,,32,64
104250,note_on,5,0,14,,,,,,,,13,,,,32,53
104252,note_off,52,0,3,,,,,,,,1,,,,85,64
104252,note_off,52,0,4,,,,,,,,2,,,,85,64
104275,note_off,55,0,10,,,,,,,,8,,,,56,64
104275,note_off,115,0,8,,,,,,,,6,,,,44,64
104275,note_off,55,0,5,,,,,,,,3,,,,56,64
104275,note_off,115,0,13,,,,,,,,12,,,,44,64
104275,note_off,115,0,9,,,,,,,,7,,,,32,64
104280,note_on,0,0,2,,,,,,,,0,,,,56,50
104280,note_on,28,0,4,,,,,,,,2,,,,80,70
104280,note_on,5,0,5,,,,,,,,3,,,,56,58
104280,note_on,5,0,10,,,,,,,,8,,,,56,58
104280,note_on,5,0,13,,,,,,,,12,,,,44,59
104280,note_on,0,0,1,,,,,,,,0,,,,63,60
104280,note_off,120,0,1,,,,,,,,0,,,,68,64
104280,note_on,5,0,9,,,,,,,,7,,,,32,59
104280,note_on,5,0,8,,,,,,,,6,,,,44,59
104280,note_on,80,0,2,,,,,,,,0,,,,44,50
104280,note_on,28,0,3,,,,,,,,1,,,,80,86
104332,note_off,52,0,3,,,,,,,,1,,,,80,64
104332,note_off,52,0,4,,,,,,,,2,,,,80,64
104335,note_off,55,0,5,,,,,,,,3,,,,56,64
104335,note_off,55,0,10,,,,,,,,8,,,,56,64
104340,note_on,5,0,10,,,,,,,,8,,,,56,59
104340,note_on,5,0,5,,,,,,,,3,,,,56,59
104360,note_on,28,0,3,,,,,,,,1,,,,75,88
104360,note_on,28,0,4,,,,,,,,2,,,,75,72
104365,note_off,115,0,14,,,,,,,,13,,,,32,64
104370,note_on,5,0,14,,,,,,,,13,,,,32,55
104395,note_off,55,0,10,,,,,,,,8,,,,56,64
104395,note_off,115,0,8,,,,,,,,6,,,,44,64
104395,note_off,115,0,13,,,,,,,,12,,,,44,64
104395,note_off,55,0,5,,,,,,,,3,,,,56,64
104395,note_off,115,0,9,,,,,,,,7,,,,32,64
104400,note_on,5,0,8,,,,,,,,6,,,,44,61
104400,note_on,5,0,5,,,,,,,,3,,,,56,60
104400,note_on,5,0,10,,,,,,,,8,,,,56,60
104400,note_on,5,0,9,,,,,,,,7,,,,32,61
104400,note_on,0,0,1,,,,,,,,0,,,,68,61
104400,note_off,120,0,1,,,,,,,,0,,,,63,64
104400,note_on,5,0,13,,,,,,,,12,,,,44,61
104412,note_off,52,0,3,,,,,,,,1,,,,75,64
104412,note_off,52,0,4,,,,,,,,2,,,,75,64
104440,note_on,28,0,4,,,,,,,,2,,,,80,74
104440,note_on,28,0,3,,,,,,,,1,,,,80,90
104455,note_off,55,0,5,,,,,,,,3,,,,56,64
104455,note_off,55,0,10,,,,,,,,8,,,,56,64
104460,note_on,5,0,5,,,,,,,,3,,,,56,61
104460,note_on,5,0,10,,,,,,,,8,,,,56,61
104485,note_off,115,0,14,,,,,,,,13,,,,32,64
104490,note_on,5,0,14,,,,,,,,13,,,,32,57
104492,note_off,52,0,4,,,,,,,,2,,,,80,64
104492,note_off,52,0,3,,,,,,,,1,,,,80,64
104515,note_off,55,0,5,,,,,,,,3,,,,56,64
104515,note_off,55,0,10,,,,,,,,8,,,,56,64
104515,note_off,115,0,9,,,,,,,,7,,,,32,64
104515,note_off,115,0,8,,,,,,,,6,,,,44,64
104515,note_off,115,0,13,,,,,,,,12,,,,44,64
104520,note_on,5,0,8,,,,,,,,6,,,,44,63
104520,note_on,28,0,4,,,,,,,,2,,,,84,76
104520,note_on,5,0,5,,,,,,,,3,,,,56,62
104520,note_on,5,0,9,,,,,,,,7,,,,32,63
104520,note_on,5,0,13,,,,,,,,12,,,,44,63
104520,note_off,120,0,1,,,,,,,,0,,,,68,64
104520,note_on,0,0,1,,,,,,,,0,,,,72,63
104520,note_on,28,0,3,,,,,,,,1,,,,84,92
104520,note_on,5,0,10,,,,,,,,8,,,,56,62
104530,note_off,400,0,15,,,,,,,,14,,,,32,64
104572,note_off,52,0,4,,,,,,,,2,,,,84,64
104572,note_off,52,0,3,,,,,,,,1,,,,84,64
104575,note_off,55,0,10,,,,,,,,8,,,,56,64
104575,note_off,55,0,5,,,,,,,,3,,,,56,64
104580,note_on,5,0,10,,,,,,,,8,,,,56,63
104580,note_on,5,0,5,,,,,,,,3,,,,56,63
104600,note_on,28,0,4,,,,,,,,2,,,,80,78
104600,note_on,28,0,3,,,,,,,,1,,,,80,94
104605,note_off,115,0,14,,,,,,,,13,,,,32,64
104610,note_on,80,0,15,,,,,,,,14,,,,32,59
104610,note_on,5,0,14,,,,,,,,13,,,,32,59
104635,note_off,55,0,10,,,,,,,,8,,,,56,64
104635,note_off,115,0,9,,,,,,,,7,,,,32,64
104635,note_off,55,0,5,,,,,,,,3,,,,56,64
104635,note_off,115,0,13,,,,,,,,12,,,,44,64
104635,note_off,115,0,8,,,,,,,,6,,,,44,64
104640,note_on,5,0,13,,,,,,,,12,,,,44,65
104640,note_on,0,0,1,,,,,,,,0,,,,68,65
104640,note_off,120,0,1,,,,,,,,0,,,,72,64
104640,note_on,5,0,5,,,,,,,,3,,,,56,64
104640,note_on,5,0,8,,,,,,,,6,,,,44,65
104640,note_on,5,0,9,,,,,,,,7,,,,32,65
104640,note_on,5,0,10,,,,,,,,8,,,,56,64
104652,note_off,52,0,3,,,,,,,,1,,,,80,64
104652,note_off,52,0,4,,,,,,,,2,,,,80,64
104680,note_on,28,0,4,,,,,,,,2,,,,84,80
104680,note_on,28,0,3,,,,,,,,1,,,,84,96
104680,note_off,0,0,2,,,,,,,,0,,,,44,64
104680,note_off,400,0,2,,,,,,,,0,,,,56,64
104695,note_off,55,0,10,,,,,,,,8,,,,56,64
104695,note_off,55,0,5,,,,,,,,3,,,,56,64
104700,note_on,5,0,10,,,,,,,,8,,,,56,65
104700,note_on,5,0,5,,,,,,,,3,,,,56,65
104725,note_off,115,0,14,,,,,,,,13,,,,32,64
104730,note_on,5,0,14,,,,,,,,13,,,,32,61
104732,note_off,52,0,4,,,,,,,,2,,,,84,64
104732,note_off,52,0,3,,,,,,,,1,,,,84,64
104755,note_off,115,0,8,,,,,,,,6,,,,44,64
104755,note_off,55,0,5,,,,,,,,3,,,,56,64
104755,note_off,55,0,10,,,,,,,,8,,,,56,64
104755,note_off,115,0,9,,,,,,,,7,,,,32,64
104755,note_off,115,0,13,,,,,,,,12,,,,44,64
104760,note_on,0,0,1,,,,,,,,0,,,,63,67
104760,note_off,120,0,1,,,,,,,,0,,,,68,64
104760,note_on,80,0,2,,,,,,,,0,,,,44,55
104760,note_on,0,0,2,,,,,,,,0,,,,56,55
104760,note_on,5,0,10,,,,,,,,8,,,,56,66
104760,note_on,5,0,8,,,,,,,,6,,,,44,67
104760,note_on,5,0,9,,,,,,,,7,,,,32,67
104760,note_on,5,0,13,,,,,,,,12,,,,44,67
104760,note_on,5,0,5,,,,,,,,3,,,,56,66
104760,note_on,28,0,3,,,,,,,,1,,,,80,98
104760,note_on,28,0,4,,,,,,,,2,,,,80,82
104812,note_off,52,0,3,,,,,,,,1,,,,80,64
104812,note_off,52,0,4,,,,,,,,2,,,,80,64
104815,note_off,55,0,5,,,,,,,,3,,,,56,64
104815,note_off,55,0,10,,,,,,,,8,,,,56,64
104820,note_on,5,0,10,,,,,,,,8,,,,56,67
104820,note_on,5,0,5,,,,,,,,3,,,,56,67
104840,note_on,28,0,4,,,,,,,,2,,,,75,84
104840,note_on,28,0,3,,,,,,,,1,,,,75,100
104845,note_off,115,0,14,,,,,,,,13,,,,32,64
104850,note_on,5,0,14,,,,,,,,13,,,,32,63
104875,note_off,55,0,5,,,,,,,,3,,,,56,64
104875,note_off,115,0,9,,,,,,,,7,,,,32,64
104875,note_off,115,0,8,,,,,,,,6,,,,44,64
104875,note_off,55,0,10,,,,,,,,8,,,,56,64
104875,note_off,115,0,13,,,,,,,,12,,,,44,64
104880,note_on,5,0,8,,,,,,,,6,,,,44,69
104880,note_on,5,0,13,,,,,,,,12,,,,44,69
104880,note_on,5,0,9,,,,,,,,7,,,,32,69
104880,note_on,5,0,5,,,,,,,,3,,,,56,68
104880,note_on,0,0,1,,,,,,,,0,,,,68,69
104880,note_on,5,0,10,,,,,,,,8,,,,56,68
104880,note_off,120,0,1,,,,,,,,0,,,,63,64
104892,note_off,52,0,3,,,,,,,,1,,,,75,64
104892,note_off,52,0,4,,,,,,,,2,,,,75,64
104920,note_on,28,0,4,,,,,,,,2,,,,80,86
104920,note_on,28,0,3,,,,,,,,1,,,,80,102
104935,note_off,55,0,5,,,,,,,,3,,,,56,64
104935,note_off,55,0,10,,,,,,,,8,,,,56,64
104940,note_on,5,0,10,,,,,,,,8,,,,56,69
104940,note_on,5,0,5,,,,,,,,3,,,,56,69
104965,note_off,115,0,14,,,,,,,,13,,,,32,64
104970,note_on,5,0,14,,,,,,,,13,,,,32,65
104972,note_off,52,0,3,,,,,,,,1,,,,80,64
104972,note_off,52,0,4,,,,,,,,2,,,,80,64
104995,note_off,115,0,8,,,,,,,,6,,,,44,64
104995,note_off,115,0,9,,,,,,,,7,,,,32,64
104995,note_off,55,0,5,,,,,,,,3,,,,56,64
104995,note_off,115,0,13,,,,,,,,12,,,,44,64
104995,note_off,55,0,10,,,,,,,,8,,,,56,64
105000,note_off,120,0,1,,,,,,,,0,,,,68,64
105000,note_on,5,0,9,,,,,,,,7,,,,32,71
105000,note_on,5,0,5,,,,,,,,3,,,,56,70
105000,note_on,0,0,1,,,,,,,,0,,,,72,71
105000,note_on,5,0,13,,,,,,,,12,,,,44,71
105000,note_on,5,0,8,,,,,,,,6,,,,44,71
105000,note_on,5,0,10,,,,,,,,8,,,,56,70
105000,note_on,28,0,4,,,,,,,,2,,,,84,88
105000,note_on,28,0,3,,,,,,,,1,,,,84,104
105010,note_off,400,0,15,,,,,,,,14,,,,32,64
105052,note_off,52,0,3,,,,,,,,1,,,,84,64
105052,note_off,52,0,4,,,,,,,,2,,,,84,64
105055,note_off,55,0,10,,,,,,,,8,,,,56,64
105055,note_off,55,0,5,,,,,,,,3,,,,56,64
105060,note_on,5,0,10,,,,,,,,8,,,,56,71
105060,note_on,5,0,5,,,,,,,,3,,,,56,71
105080,note_on,28,0,3,,,,,,,,1,,,,80,106
105080,note_on,28,0,4,,,,,,,,2,,,,80,90
105085,note_off,115,0,14,,,,,,,,13,,,,32,64
105090,note_on,80,0,15,,,,,,,,14,,,,32,67
105090,note_on,5,0,14,,,,,,,,13,,,,32,67
105115,note_off,55,0,5,,,,,,,,3,,,,56,64
105115,note_off,115,0,8,,,,,,,,6,,,,44,64
105115,note_off,115,0,9,,,,,,,,7,,,,32,64
105115,note_off,115,0,13,,,,,,,,12,,,,44,64
105115,note_off,55,0,10,,,,,,,,8,,,,56,64
105120,note_on,5,0,9,,,,,,,,7,,,,32,73
105120,note_on,5,0,13,,,,,,,,12,,,,44,73
105120,note_on,0,0,1,,,,,,,,0,,,,68,73
105120,note_on,5,0,8,,,,,,,,6,,,,44,73
105120,note_on,5,0,5,,,,,,,,3,,,,56,72
105120,note_off,120,0,1,,,,,,,,0,,,,72,64
105120,note_on,5,0,10,,,,,,,,8,,,,56,72
105132,note_off,52,0,3,,,,,,,,1,,,,80,64
105132,note_off,52,0,4,,,,,,,,2,,,,80,64
105160,note_on,28,0,3,,,,,,,,1,,,,84,108
105160,note_on,28,0,4,,,,,,,,2,,,,84,92
105160,note_off,400,0,2,,,,,,,,0,,,,56,64
105160,note_off,0,0,2,,,,,,,,0,,,,44,64
105175,note_off,55,0,5,,,,,,,,3,,,,56,64
105175,note_off,55,0,10,,,,,,,,8,,,,56,64
105180,note_on,5,0,5,,,,,,,,3,,,,56,73
105180,note_on,5,0,10,,,,,,,,8,,,,56,73
105205,note_off,115,0,14,,,,,,,,13,,,,32,64
105210,note_on,5,0,14,,,,,,,,13,,,,32,69
105212,note_off,52,0,3,,,,,,,,1,,,,84,64
105212,note_off,52,0,4,,,,,,,,2,,,,84,64
105235,note_off,115,0,9,,,,,,,,7,,,,32,64
105235,note_off,115,0,8,,,,,,,,6,,,,44,64
105235,note_off,55,0,5,,,,,,,,3,,,,56,64
105235,note_off,55,0,10,,,,,,,,8,,,,56,64
105235,note_off,115,0,13,,,,,,,,12,,,,44,64
105240,note_on,28,0,4,,,,,,,,2,,,,85,60
105240,note_on,0,0,2,,,,,,,,0,,,,56,60
105240,note_on,5,0,13,,,,,,,,12,,,,49,75
105240,note_on,5,0,8,,,,,,,,6,,,,49,75
105240,note_on,28,0,3,,,,,,,,1,,,,85,60
105240,note_on,5,0,5,,,,,,,,3,,,,61,75
105240,note_on,80,0,2,,,,,,,,0,,,,49,60
105240,note_on,0,0,1,,,,,,,,0,,,,68,75
105240,note_on,0,0,1,,,,,,,,0,,,,64,75
105240,note_on,0,0,1,,,,,,,,0,,,,73,75
105240,note_on,5,0,10,,,,,,,,8,,,,61,75
105240,note_on,5,0,9,,,,,,,,7,,,,37,75
105240,note_off,120,0,1,,,,,,,,0,,,,68,64
105325,note_off,115,0,14,,,,,,,,13,,,,32,64
105330,note_on,5,0,14,,,,,,,,13,,,,32,71
105445,note_off,115,0,14,,,,,,,,13,,,,32,64
105450,note_on,5,0,14,,,,,,,,13,,,,32,73
105490,note_off,400,0,15,,,,,,,,14,,,,32,64
105565,note_off,115,0,14,,,,,,,,13,,,,32,64
105570,note_on,5,0,14,,,,,,,,13,,,,37,75
105570,note_on,80,0,15,,,,,,,,14,,,,37,75
105640,note_off,400,0,9,,,,,,,,7,,,,37,64
105640,note_off,400,0,3,,,,,,,,1,,,,85,64
105640,note_off,400,0,4,,,,,,,,2,,,,85,64
105640,note_off,0,0,2,,,,,,,,0,,,,49,64
105640,note_off,0,0,1,,,,,,,,0,,,,64,64
105640,note_off,400,0,13,,,,,,,,12,,,,49,64
105640,note_off,400,0,5,,,,,,,,3,,,,61,64
105640,note_off,400,0,2,,,,,,,,0,,,,56,64
105640,note_off,0,0,1,,,,,,,,0,,,,68,64
105640,note_off,400,0,10,,,,,,,,8,,,,61,64
105640,note_off,400,0,1,,,,,,,,0,,,,73,64
105640,note_off,400,0,8,,,,,,,,6,,,,49,64
105970,note_off,400,0,15,,,,,,,,14,,,,37,64
105970,note_off,400,0,14,,,,,,,,13,,,,37,64
105990,note_on,19235,0,12,,,,,,,,11,,,,68,75
105990,note_on,350,0,5,,,,,,,,3,,,,73,92
105990,note_on,350,0,13,,,,,,,,12,,,,49,75
105990,note_on,350,0,8,,,,,,,,6,,,,49,75
105990,note_on,22870,0,11,,,,,,,,10,,,,68,75
105990,note_on,19235,0,7,,,,,,,,5,,,,68,75
105990,note_on,22870,0,6,,,,,,,,4,,,,68,92
105990,note_on,350,0,10,,,,,,,,8,,,,73,75
105990,note_on,350,0,9,,,,,,,,7,,,,37,75
106070,note_off,80,0,12,,,,,,,,11,,,,68,64
106070,note_off,80,0,11,,,,,,,,10,,,,68,64
106070,note_off,80,0,7,,,,,,,,5,,,,68,64
106070,note_off,80,0,9,,,,,,,,7,,,,37,64
106070,note_off,80,0,10,,,,,,,,8,,,,73,64
106070,note_off,80,0,5,,,,,,,,3,,,,73,64
106070,note_off,80,0,8,,,,,,,,6,,,,49,64
106070,note_off,80,0,13,,,,,,,,12,,,,49,64
106070,note_off,80,0,6,,,,,,,,4,,,,68,64
106230,note_on,160,0,10,,,,,,,,8,,,,80,75
106230,note_on,590,0,2,,,,,,,,0,,,,37,60
106230,note_on,160,0,12,,,,,,,,11,,,,61,75
106230,note_on,160,0,9,,,,,,,,7,,,,37,75
106230,note_on,160,0,13,,,,,,,,12,,,,49,75
106230,note_on,0,0,2,,,,,,,,0,,,,49,60
106230,note_on,590,0,1,,,,,,,,0,,,,61,60
106230,note_on,160,0,11,,,,,,,,10,,,,76,75
106230,note_on,0,0,1,,,,,,,,0,,,,68,60
106230,note_on,160,0,6,,,,,,,,4,,,,76,92
106230,note_on,160,0,8,,,,,,,,6,,,,49,75
106230,note_on,160,0,5,,,,,,,,3,,,,80,92
106230,note_on,160,0,7,,,,,,,,5,,,,61,75
106230,note_on,0,0,1,,,,,,,,0,,,,64,60
106310,note_off,80,0,11,,,,,,,,10,,,,76,64
106310,note_off,80,0,10,,,,,,,,8,,,,80,64
106310,note_off,80,0,5,,,,,,,,3,,,,80,64
106310,note_off,80,0,6,,,,,,,,4,,,,76,64
106320,note_on,350,0,14,,,,,,,,13,,,,37,75
106400,note_off,80,0,14,,,,,,,,13,,,,37,64
106470,note_on,160,0,6,,,,,,,,4,,,,75,92
106470,note_on,160,0,10,,,,,,,,8,,,,78,75
106470,note_on,160,0,11,,,,,,,,10,,,,75,75
106470,note_on,160,0,5,,,,,,,,3,,,,78,92
106550,note_off,80,0,11,,,,,,,,10,,,,75,64
106550,note_off,80,0,5,,,,,,,,3,,,,78,64
106550,note_off,80,0,6,,,,,,,,4,,,,75,64
106550,note_off,80,0,10,,,,,,,,8,,,,78,64
106560,note_on,590,0,15,,,,,,,,14,,,,37,75
106560,note_on,160,0,14,,,,,,,,13,,,,37,75
106590,note_on,40,0,6,,,,,,,,4,,,,73,92
106590,note_on,40,0,10,,,,,,,,8,,,,76,75
106590,note_on,40,0,11,,,,,,,,10,,,,73,75
106590,note_on,40,0,5,,,,,,,,3,,,,76,92
106630,note_off,400,0,8,,,,,,,,6,,,,49,64
106630,note_off,400,0,9,,,,,,,,7,,,,37,64
106630,note_off,0,0,1,,,,,,,,0,,,,61,64
106630,note_off,400,0,7,,,,,,,,5,,,,61,64
106630,note_off,400,0,1,,,,,,,,0,,,,68,64
106630,note_off,0,0,1,,,,,,,,0,,,,64,64
106630,note_off,400,0,13,,,,,,,,12,,,,49,64
106630,note_off,400,0,2,,,,,,,,0,,,,49,64
106630,note_off,0,0,2,,,,,,,,0,,,,37,64
106630,note_off,400,0,12,,,,,,,,11,,,,61,64
106670,note_off,80,0,10,,,,,,,,8,,,,76,64
106670,note_off,80,0,6,,,,,,,,4,,,,73,64
106670,note_off,80,0,5,,,,,,,,3,,,,76,64
106670,note_off,80,0,11,,,,,,,,10,,,,73,64
106710,note_on,80,0,8,,,,,,,,6,,,,49,75
106710,note_on,80,0,2,,,,,,,,0,,,,37,60
106710,note_on,0,0,2,,,,,,,,0,,,,49,60
106710,note_on,40,0,10,,,,,,,,8,,,,78,75
106710,note_on,80,0,12,,,,,,,,11,,,,61,75
106710,note_on,80,0,7,,,,,,,,5,,,,61,75
106710,note_on,40,0,11,,,,,,,,10,,,,75,75
106710,note_on,40,0,6,,,,,,,,4,,,,75,92
106710,note_on,80,0,9,,,,,,,,7,,,,37,75
106710,note_on,0,0,1,,,,,,,,0,,,,68,60
106710,note_on,0,0,1,,,,,,,,0,,,,64,60
106710,note_on,80,0,1,,,,,,,,0,,,,61,60
106710,note_on,40,0,5,,,,,,,,3,,,,78,92
106710,note_on,80,0,13,,,,,,,,12,,,,49,75
106790,note_off,80,0,5,,,,,,,,3,,,,78,64
106790,note_off,80,0,11,,,,,,,,10,,,,75,64
106790,note_off,80,0,10,,,,,,,,8,,,,78,64
106790,note_off,80,0,6,,,,,,,,4,,,,75,64
106950,note_on,160,0,10,,,,,,,,8,,,,80,75
106950,note_on,160,0,6,,,,,,,,4,,,,76,92
106950,note_on,160,0,5,,,,,,,,3,,,,80,92
106950,note_on,160,0,11,,,,,,,,10,,,,76,75
106960,note_off,400,0,14,,,,,,,,13,,,,37,64
106960,note_off,400,0,15,,,,,,,,14,,,,37,64
107030,note_off,80,0,10,,,,,,,,8,,,,80,64
107030,note_off,80,0,5,,,,,,,,3,,,,80,64
107030,note_off,80,0,11,,,,,,,,10,,,,76,64
107030,note_off,80,0,6,,,,,,,,4,,,,76,64
107040,note_on,80,0,15,,,,,,,,14,,,,37,75
107040,note_on,80,0,14,,,,,,,,13,,,,37,75
107110,note_off,0,0,1,,,,,,,,0,,,,64,64
107110,note_off,0,0,1,,,,,,,,0,,,,61,64
107110,note_off,0,0,2,,,,,,,,0,,,,37,64
107110,note_off,400,0,2,,,,,,,,0,,,,49,64
107110,note_off,400,0,7,,,,,,,,5,,,,61,64
107110,note_off,400,0,13,,,,,,,,12,,,,49,64
107110,note_off,400,0,12,,,,,,,,11,,,,61,64
107110,note_off,400,0,1,,,,,,,,0,,,,68,64
107110,note_off,400,0,9,,,,,,,,7,,,,37,64
107110,note_off,400,0,8,,,,,,,,6,,,,49,64
107190,note_on,160,0,5,,,,,,,,3,,,,81,92
107190,note_on,160,0,11,,,,,,,,10,,,,78,75
107190,note_on,80,0,7,,,,,,,,5,,,,66,75
107190,note_on,0,0,1,,,,,,,,0,,,,69,60
107190,note_on,0,0,1,,,,,,,,0,,,,66,60
107190,note_on,80,0,1,,,,,,,,0,,,,61,60
107190,note_on,160,0,10,,,,,,,,8,,,,81,75
107190,note_on,80,0,9,,,,,,,,7,,,,37,75
107190,note_on,80,0,13,,,,,,,,12,,,,49,75
107190,note_on,160,0,6,,,,,,,,4,,,,78,92
107190,note_on,80,0,8,,,,,,,,6,,,,49,75
107190,note_on,0,0,2,,,,,,,,0,,,,49,60
107190,note_on,80,0,2,,,,,,,,0,,,,37,60
107190,note_on,80,0,12,,,,,,,,11,,,,66,75
107270,note_off,80,0,10,,,,,,,,8,,,,81,64
107270,note_off,80,0,1,,,,,,,,0,,,,69,64
107270,note_off,0,0,1,,,,,,,,0,,,,66,64
107270,note_off,0,0,1,,,,,,,,0,,,,61,64
107270,note_off,80,0,5,,,,,,,,3,,,,81,64
107270,note_off,80,0,12,,,,,,,,11,,,,66,64
107270,note_off,80,0,7,,,,,,,,5,,,,66,64
107270,note_off,80,0,6,,,,,,,,4,,,,78,64
107270,note_off,80,0,11,,,,,,,,10,,,,78,64
107430,note_on,160,0,1,,,,,,,,0,,,,61,60
107430,note_on,0,0,1,,,,,,,,0,,,,64,60
107430,note_on,0,0,1,,,,,,,,0,,,,68,60
107430,note_on,160,0,10,,,,,,,,8,,,,80,75
107430,note_on,160,0,6,,,,,,,,4,,,,76,92
107430,note_on,160,0,5,,,,,,,,3,,,,80,92
107430,note_on,160,0,11,,,,,,,,10,,,,76,75
107430,note_on,160,0,7,,,,,,,,5,,,,61,75
107430,note_on,160,0,12,,,,,,,,11,,,,61,75
107440,note_off,400,0,15,,,,,,,,14,,,,37,64
107440,note_off,400,0,14,,,,,,,,13,,,,37,64
107520,note_on,80,0,14,,,,,,,,13,,,,37,75
107520,note_on,80,0,15,,,,,,,,14,,,,37,75
107590,note_off,400,0,13,,,,,,,,12,,,,49,64
107590,note_off,400,0,2,,,,,,,,0,,,,49,64
107590,note_off,400,0,8,,,,,,,,6,,,,49,64
107590,note_off,0,0,2,,,,,,,,0,,,,37,64
107590,note_off,400,0,9,,,,,,,,7,,,,37,64
107670,note_on,80,0,13,,,,,,,,12,,,,49,75
107670,note_on,80,0,8,,,,,,,,6,,,,49,75
107670,note_on,80,0,9,,,,,,,,7,,,,37,75
107670,note_on,80,0,2,,,,,,,,0,,,,37,60
107670,note_on,0,0,2,,,,,,,,0,,,,49,60
107830,note_off,400,0,11,,,,,,,,10,,,,76,64
107830,note_off,400,0,12,,,,,,,,11,,,,61,64
107830,note_off,400,0,6,,,,,,,,4,,,,76,64
107830,note_off,400,0,1,,,,,,,,0,,,,68,64
107830,note_off,400,0,5,,,,,,,,3,,,,80,64
107830,note_off,400,0,7,,,,,,,,5,,,,61,64
107830,note_off,0,0,1,,,,,,,,0,,,,61,64
107830,note_off,400,0,10,,,,,,,,8,,,,80,64
107830,note_off,0,0,1,,,,,,,,0,,,,64,64
107910,note_on,80,0,11,,,,,,,,10,,,,68,30
107910,note_on,80,0,6,,,,,,,,4,,,,68,45
107910,note_on,80,0,12,,,,,,,,11,,,,61,30
107910,note_on,80,0,10,,,,,,,,8,,,,73,30
107910,note_on,80,0,5,,,,,,,,3,,,,73,45
107910,note_on,80,0,7,,,,,,,,5,,,,61,30
107920,note_off,400,0,15,,,,,,,,14,,,,37,64
107920,note_off,400,0,14,,,,,,,,13,,,,37,64
107990,note_off,80,0,11,,,,,,,,10,,,,68,64
107990,note_off,80,0,12,,,,,,,,11,,,,61,64
107990,note_off,80,0,10,,,,,,,,8,,,,73,64
107990,note_off,80,0,7,,,,,,,,5,,,,61,64
107990,note_off,80,0,6,,,,,,,,4,,,,68,64
107990,note_off,80,0,5,,,,,,,,3,,,,73,64
108000,note_on,80,0,14,,,,,,,,13,,,,37,75
108000,note_on,80,0,15,,,,,,,,14,,,,37,75
108070,note_off,400,0,13,,,,,,,,12,,,,49,64
108070,note_off,0,0,2,,,,,,,,0,,,,37,64
108070,note_off,400,0,8,,,,,,,,6,,,,49,64
108070,note_off,400,0,2,,,,,,,,0,,,,49,64
108070,note_off,400,0,9,,,,,,,,7,,,,37,64
108150,note_on,0,0,1,,,,,,,,0,,,,68,30
108150,note_on,80,0,13,,,,,,,,12,,,,49,30
108150,note_on,160,0,11,,,,,,,,10,,,,76,30
108150,note_on,0,0,2,,,,,,,,0,,,,49,30
108150,note_on,80,0,2,,,,,,,,0,,,,37,30
108150,note_on,80,0,8,,,,,,,,6,,,,49,30
108150,note_on,0,0,1,,,,,,,,0,,,,64,30
108150,note_on,160,0,10,,,,,,,,8,,,,80,30
108150,note_on,320,0,1,,,,,,,,0,,,,61,30
108150,note_on,160,0,5,,,,,,,,3,,,,80,45
108150,note_on,80,0,9,,,,,,,,7,,,,37,30
108150,note_on,160,0,6,,,,,,,,4,,,,76,45
108150,note_on,160,0,12,,,,,,,,11,,,,61,30
108150,note_on,160,0,7,,,,,,,,5,,,,61,30
108230,note_off,80,0,10,,,,,,,,8,,,,80,64
108230,note_off,80,0,11,,,,,,,,10,,,,76,64
108230,note_off,80,0,6,,,,,,,,4,,,,76,64
108230,note_off,80,0,5,,,,,,,,3,,,,80,64
108390,note_on,160,0,11,,,,,,,,10,,,,75,30
108390,note_on,160,0,5,,,,,,,,3,,,,78,45
108390,note_on,160,0,10,,,,,,,,8,,,,78,30
108390,note_on,160,0,6,,,,,,,,4,,,,75,45
108400,note_off,400,0,14,,,,,,,,13,,,,37,64
108400,note_off,400,0,15,,,,,,,,14,,,,37,64
108470,note_off,80,0,5,,,,,,,,3,,,,78,64
108470,note_off,80,0,11,,,,,,,,10,,,,75,64
108470,note_off,80,0,10,,,,,,,,8,,,,78,64
108470,note_off,80,0,6,,,,,,,,4,,,,75,64
108480,note_on,80,0,14,,,,,,,,13,,,,37,30
108480,note_on,80,0,15,,,,,,,,14,,,,37,30
108510,note_on,40,0,6,,,,,,,,4,,,,73,45
108510,note_on,40,0,10,,,,,,,,8,,,,76,30
108510,note_on,40,0,11,,,,,,,,10,,,,73,30
108510,note_on,40,0,5,,,,,,,,3,,,,76,45
108550,note_off,400,0,1,,,,,,,,0,,,,68,64
108550,note_off,0,0,1,,,,,,,,0,,,,64,64
108550,note_off,0,0,1,,,,,,,,0,,,,61,64
108550,note_off,400,0,2,,,,,,,,0,,,,49,64
108550,note_off,400,0,13,,,,,,,,12,,,,49,64
108550,note_off,400,0,8,,,,,,,,6,,,,49,64
108550,note_off,400,0,7,,,,,,,,5,,,,61,64
108550,note_off,400,0,12,,,,,,,,11,,,,61,64
108550,note_off,0,0,2,,,,,,,,0,,,,37,64
108550,note_off,400,0,9,,,,,,,,7,,,,37,64
108590,note_off,80,0,11,,,,,,,,10,,,,73,64
108590,note_off,80,0,6,,,,,,,,4,,,,73,64
108590,note_off,80,0,10,,,,,,,,8,,,,76,64
108590,note_off,80,0,5,,,,,,,,3,,,,76,64
108630,note_on,40,0,11,,,,,,,,10,,,,75,30
108630,note_on,40,0,10,,,,,,,,8,,,,78,30
108630,note_on,40,0,6,,,,,,,,4,,,,75,45
108630,note_on,0,0,2,,,,,,,,0,,,,49,30
108630,note_on,80,0,9,,,,,,,,7,,,,37,30
108630,note_on,80,0,12,,,,,,,,11,,,,61,30
108630,note_on,80,0,13,,,,,,,,12,,,,49,30
108630,note_on,80,0,7,,,,,,,,5,,,,61,30
108630,note_on,40,0,5,,,,,,,,3,,,,78,45
108630,note_on,0,0,1,,,,,,,,0,,,,68,30
108630,note_on,0,0,1,,,,,,,,0,,,,64,30
108630,note_on,80,0,2,,,,,,,,0,,,,37,30
108630,note_on,80,0,1,,,,,,,,0,,,,61,30
108630,note_on,80,0,8,,,,,,,,6,,,,49,30
108710,note_off,80,0,6,,,,,,,,4,,,,75,64
108710,note_off,80,0,10,,,,,,,,8,,,,78,64
108710,note_off,80,0,11,,,,,,,,10,,,,75,64
108710,note_off,80,0,5,,,,,,,,3,,,,78,64
108870,note_on,160,0,11,,,,,,,,10,,,,76,30
108870,note_on,160,0,6,,,,,,,,4,,,,76,45
108870,note_on,160,0,10,,,,,,,,8,,,,80,30
108870,note_on,160,0,5,,,,,,,,3,,,,80,45
108880,note_off,400,0,14,,,,,,,,13,,,,37,64
108880,note_off,400,0,15,,,,,,,,14,,,,37,64
108950,note_off,80,0,11,,,,,,,,10,,,,76,64
108950,note_off,80,0,5,,,,,,,,3,,,,80,64
108950,note_off,80,0,6,,,,,,,,4,,,,76,64
108950,note_off,80,0,10,,,,,,,,8,,,,80,64
108960,note_on,80,0,15,,,,,,,,14,,,,37,30
108960,note_on,80,0,14,,,,,,,,13,,,,37,30
109030,note_off,0,0,1,,,,,,,,0,,,,64,64
109030,note_off,400,0,1,,,,,,,,0,,,,68,64
109030,note_off,400,0,12,,,,,,,,11,,,,61,64
109030,note_off,400,0,7,,,,,,,,5,,,,61,64
109030,note_off,0,0,2,,,,,,,,0,,,,37,64
109030,note_off,400,0,2,,,,,,,,0,,,,49,64
109030,note_off,400,0,8,,,,,,,,6,,,,49,64
109030,note_off,400,0,13,,,,,,,,12,,,,49,64
109030,note_off,0,0,1,,,,,,,,0,,,,61,64
109030,note_off,400,0,9,,,,,,,,7,,,,37,64
109110,note_on,80,0,12,,,,,,,,11,,,,66,30
109110,note_on,80,0,9,,,,,,,,7,,,,37,30
109110,note_on,80,0,8,,,,,,,,6,,,,49,30
109110,note_on,160,0,5,,,,,,,,3,,,,81,45
109110,note_on,160,0,10,,,,,,,,8,,,,81,30
109110,note_on,80,0,1,,,,,,,,0,,,,61,30
109110,note_on,0,0,1,,,,,,,,0,,,,66,30
109110,note_on,0,0,1,,,,,,,,0,,,,69,30
109110,note_on,80,0,2,,,,,,,,0,,,,37,30
109110,note_on,160,0,6,,,,,,,,4,,,,78,45
109110,note_on,80,0,7,,,,,,,,5,,,,66,30
109110,note_on,0,0,2,,,,,,,,0,,,,49,30
109110,note_on,80,0,13,,,,,,,,12,,,,49,30
109110,note_on,160,0,11,,,,,,,,10,,,,78,30
109190,note_off,80,0,1,,,,,,,,0,,,,69,64
109190,note_off,0,0,1,,,,,,,,0,,,,66,64
109190,note_off,0,0,1,,,,,,,,0,,,,61,64
109190,note_off,80,0,7,,,,,,,,5,,,,66,64
109190,note_off,80,0,11,,,,,,,,10,,,,78,64
109190,note_off,80,0,10,,,,,,,,8,,,,81,64
109190,note_off,80,0,5,,,,,,,,3,,,,81,64
109190,note_off,80,0,6,,,,,,,,4,,,,78,64
109190,note_off,80,0,12,,,,,,,,11,,,,66,64
109350,note_on,0,0,1,,,,,,,,0,,,,64,30
109350,note_on,160,0,5,,,,,,,,3,,,,80,45
109350,note_on,160,0,10,,,,,,,,8,,,,80,30
109350,note_on,160,0,11,,,,,,,,10,,,,76,30
109350,note_on,160,0,12,,,,,,,,11,,,,61,30
109350,note_on,160,0,7,,,,,,,,5,,,,61,30
109350,note_on,0,0,1,,,,,,,,0,,,,68,30
109350,note_on,160,0,1,,,,,,,,0,,,,61,30
109350,note_on,160,0,6,,,,,,,,4,,,,76,45
109360,note_off,400,0,15,,,,,,,,14,,,,37,64
109360,note_off,400,0,14,,,,,,,,13,,,,37,64
109440,note_on,80,0,14,,,,,,,,13,,,,37,30
109440,note_on,80,0,15,,,,,,,,14,,,,37,30
109510,note_off,400,0,9,,,,,,,,7,,,,37,64
109510,note_off,0,0,2,,,,,,,,0,,,,37,64
109510,note_off,400,0,13,,,,,,,,12,,,,49,64
109510,note_off,400,0,8,,,,,,,,6,,,,49,64
109510,note_off,400,0,2,,,,,,,,0,,,,49,64
109590,note_on,80,0,8,,,,,,,,6,,,,49,30
109590,note_on,80,0,2,,,,,,,,0,,,,37,30
109590,note_on,0,0,2,,,,,,,,0,,,,49,30
109590,note_on,80,0,9,,,,,,,,7,,,,37,30
109590,note_on,80,0,13,,,,,,,,12,,,,49,30
109750,note_off,400,0,11,,,,,,,,10,,,,76,64
109750,note_off,400,0,6,,,,,,,,4,,,,76,64
109750,note_off,400,0,7,,,,,,,,5,,,,61,64
109750,note_off,400,0,1,,,,,,,,0,,,,68,64
109750,note_off,0,0,1,,,,,,,,0,,,,64,64
109750,note_off,400,0,5,,,,,,,,3,,,,80,64
109750,note_off,400,0,12,,,,,,,,11,,,,61,64
109750,note_off,400,0,10,,,,,,,,8,,,,80,64
109750,note_off,0,0,1,,,,,,,,0,,,,61,64
109830,note_on,80,0,12,,,,,,,,11,,,,61,75
109830,note_on,80,0,11,,,,,,,,10,,,,68,75
109830,note_on,80,0,7,,,,,,,,5,,,,61,75
109830,note_on,80,0,10,,,,,,,,8,,,,73,75
109830,note_on,80,0,5,,,,,,,,3,,,,73,92
109830,note_on,80,0,6,,,,,,,,4,,,,68,92
109840,note_off,400,0,15,,,,,,,,14,,,,37,64
109840,note_off,400,0,14,,,,,,,,13,,,,37,64
109910,note_off,80,0,6,,,,,,,,4,,,,68,64
109910,note_off,80,0,7,,,,,,,,5,,,,61,64
109910,note_off,80,0,11,,,,,,,,10,,,,68,64
109910,note_off,80,0,10,,,,,,,,8,,,,73,64
109910,note_off,80,0,5,,,,,,,,3,,,,73,64
109910,note_off,80,0,12,,,,,,,,11,,,,61,64
109920,note_on,80,0,14,,,,,,,,13,,,,37,30
109920,note_on,80,0,15,,,,,,,,14,,,,37,30
109990,note_off,0,0,2,,,,,,,,0,,,,37,64
109990,note_off,400,0,2,,,,,,,,0,,,,49,64
109990,note_off,400,0,9,,,,,,,,7,,,,37,64
109990,note_off,400,0,13,,,,,,,,12,,,,49,64
109990,note_off,400,0,8,,,,,,,,6,,,,49,64
110070,note_on,80,0,13,,,,,,,,12,,,,49,75
110070,note_on,80,0,2,,,,,,,,0,,,,37,60
110070,note_on,0,0,2,,,,,,,,0,,,,49,60
110070,note_on,80,0,8,,,,,,,,6,,,,49,75
110070,note_on,160,0,7,,,,,,,,5,,,,66,75
110070,note_on,80,0,9,,,,,,,,7,,,,37,75
110070,note_on,160,0,6,,,,,,,,4,,,,78,92
110070,note_on,160,0,12,,,,,,,,11,,,,66,75
110070,note_on,320,0,1,,,,,,,,0,,,,61,60
110070,note_on,0,0,1,,,,,,,,0,,,,69,60
110070,note_on,160,0,11,,,,,,,,10,,,,78,75
110070,note_on,160,0,10,,,,,,,,8,,,,81,75
110070,note_on,0,0,1,,,,,,,,0,,,,66,60
110070,note_on,160,0,5,,,,,,,,3,,,,81,92
110150,note_off,80,0,1,,,,,,,,0,,,,69,64
110150,note_off,0,0,1,,,,,,,,0,,,,66,64
110150,note_off,80,0,6,,,,,,,,4,,,,78,64
110150,note_off,0,0,1,,,,,,,,0,,,,61,64
110150,note_off,80,0,12,,,,,,,,11,,,,66,64
110150,note_off,80,0,5,,,,,,,,3,,,,81,64
110150,note_off,80,0,7,,,,,,,,5,,,,66,64
110150,note_off,80,0,10,,,,,,,,8,,,,81,64
110150,note_off,80,0,11,,,,,,,,10,,,,78,64
110310,note_on,160,0,10,,,,,,,,8,,,,80,75
110310,note_on,160,0,5,,,,,,,,3,,,,80,92
110310,note_on,160,0,7,,,,,,,,5,,,,61,75
110310,note_on,160,0,11,,,,,,,,10,,,,76,75
110310,note_on,160,0,6,,,,,,,,4,,,,76,92
110310,note_on,160,0,12,,,,,,,,11,,,,61,75
110310,note_on,160,0,1,,,,,,,,0,,,,61,60
110310,note_on,0,0,1,,,,,,,,0,,,,64,60
110310,note_on,0,0,1,,,,,,,,0,,,,68,60
110320,note_off,400,0,15,,,,,,,,14,,,,37,64
110320,note_off,400,0,14,,,,,,,,13,,,,37,64
110390,note_off,80,0,7,,,,,,,,5,,,,61,64
110390,note_off,80,0,12,,,,,,,,11,,,,61,64
110390,note_off,80,0,1,,,,,,,,0,,,,68,64
110390,note_off,0,0,1,,,,,,,,0,,,,61,64
110390,note_off,0,0,1,,,,,,,,0,,,,64,64
110400,note_on,80,0,14,,,,,,,,13,,,,37,75
110400,note_on,80,0,15,,,,,,,,14,,,,37,75
110470,note_off,0,0,2,,,,,,,,0,,,,37,64
110470,note_off,400,0,9,,,,,,,,7,,,,37,64
110470,note_off,400,0,8,,,,,,,,6,,,,49,64
110470,note_off,400,0,2,,,,,,,,0,,,,49,64
110470,note_off,400,0,13,,,,,,,,12,,,,49,64
110550,note_on,0,0,1,,,,,,,,0,,,,66,60
110550,note_on,80,0,13,,,,,,,,12,,,,49,75
110550,note_on,80,0,8,,,,,,,,6,,,,49,75
110550,note_on,0,0,1,,,,,,,,0,,,,68,60
110550,note_on,0,0,2,,,,,,,,0,,,,49,60
110550,note_on,160,0,7,,,,,,,,5,,,,66,75
110550,note_on,80,0,9,,,,,,,,7,,,,37,75
110550,note_on,160,0,1,,,,,,,,0,,,,61,60
110550,note_on,160,0,12,,,,,,,,11,,,,66,75
110550,note_on,80,0,2,,,,,,,,0,,,,37,60
110630,note_off,0,0,2,,,,,,,,0,,,,37,64
110630,note_off,80,0,8,,,,,,,,6,,,,49,64
110630,note_off,0,0,1,,,,,,,,0,,,,61,64
110630,note_off,0,0,1,,,,,,,,0,,,,66,64
110630,note_off,80,0,1,,,,,,,,0,,,,68,64
110630,note_off,80,0,12,,,,,,,,11,,,,66,64
110630,note_off,80,0,7,,,,,,,,5,,,,66,64
110630,note_off,80,0,2,,,,,,,,0,,,,49,64
110630,note_off,80,0,13,,,,,,,,12,,,,49,64
110630,note_off,80,0,9,,,,,,,,7,,,,37,64
110710,note_off,400,0,6,,,,,,,,4,,,,76,64
110710,note_off,400,0,10,,,,,,,,8,,,,80,64
110710,note_off,400,0,5,,,,,,,,3,,,,80,64
110710,note_off,400,0,11,,,,,,,,10,,,,76,64
110790,note_on,0,0,1,,,,,,,,0,,,,72,60
110790,note_on,0,0,1,,,,,,,,0,,,,66,60
110790,note_on,160,0,8,,,,,,,,6,,,,56,75
110790,note_on,80,0,10,,,,,,,,8,,,,78,75
110790,note_on,160,0,1,,,,,,,,0,,,,63,60
110790,note_on,0,0,2,,,,,,,,0,,,,56,60
110790,note_on,160,0,12,,,,,,,,11,,,,72,75
110790,note_on,160,0,2,,,,,,,,0,,,,44,60
110790,note_on,80,0,6,,,,,,,,4,,,,75,92
110790,note_on,160,0,9,,,,,,,,7,,,,44,75
110790,note_on,160,0,7,,,,,,,,5,,,,72,75
110790,note_on,80,0,11,,,,,,,,10,,,,75,75
110790,note_on,80,0,5,,,,,,,,3,,,,78,92
110790,note_on,160,0,13,,,,,,,,12,,,,56,75
110800,note_off,400,0,15,,,,,,,,14,,,,37,64
110800,note_off,400,0,14,,,,,,,,13,,,,37,64
110870,note_off,80,0,5,,,,,,,,3,,,,78,64
110870,note_off,0,0,2,,,,,,,,0,,,,44,64
110870,note_off,80,0,2,,,,,,,,0,,,,56,64
110870,note_off,80,0,9,,,,,,,,7,,,,44,64
110870,note_off,80,0,10,,,,,,,,8,,,,78,64
110870,note_off,80,0,1,,,,,,,,0,,,,72,64
110870,note_off,80,0,12,,,,,,,,11,,,,72,64
110870,note_off,80,0,6,,,,,,,,4,,,,75,64
110870,note_off,80,0,7,,,,,,,,5,,,,72,64
110870,note_off,0,0,1,,,,,,,,0,,,,66,64
110870,note_off,80,0,11,,,,,,,,10,,,,75,64
110870,note_off,0,0,1,,,,,,,,0,,,,63,64
110870,note_off,80,0,13,,,,,,,,12,,,,56,64
110870,note_off,80,0,8,,,,,,,,6,,,,56,64
110880,note_on,80,0,14,,,,,,,,13,,,,37,75
110880,note_on,80,0,15,,,,,,,,14,,,,37,75
110960,note_off,80,0,14,,,,,,,,13,,,,37,64
110960,note_off,80,0,15,,,,,,,,14,,,,37,64
111030,note_on,0,0,1,,,,,,,,0,,,,68,60
111030,note_on,160,0,10,,,,,,,,8,,,,76,75
111030,note_on,160,0,11,,,,,,,,10,,,,73,75
111030,note_on,0,0,2,,,,,,,,0,,,,61,60
111030,note_on,160,0,1,,,,,,,,0,,,,61,60
111030,note_on,0,0,1,,,,,,,,0,,,,64,60
111030,note_on,160,0,5,,,,,,,,3,,,,76,92
111030,note_on,0,0,1,,,,,,,,0,,,,73,60
111030,note_on,160,0,2,,,,,,,,0,,,,49,60
111030,note_on,160,0,7,,,,,,,,5,,,,68,75
111030,note_on,160,0,6,,,,,,,,4,,,,73,92
111030,note_on,160,0,13,,,,,,,,12,,,,61,75
111030,note_on,160,0,12,,,,,,,,11,,,,68,75
111030,note_on,160,0,8,,,,,,,,6,,,,61,75
111030,note_on,160,0,9,,,,,,,,7,,,,49,75
111110,note_off,80,0,13,,,,,,,,12,,,,61,64
111110,note_off,80,0,9,,,,,,,,7,,,,49,64
111110,note_off,80,0,5,,,,,,,,3,,,,76,64
111110,note_off,0,0,2,,,,,,,,0,,,,49,64
111110,note_off,80,0,8,,,,,,,,6,,,,61,64
111110,note_off,80,0,2,,,,,,,,0,,,,61,64
111110,note_off,80,0,10,,,,,,,,8,,,,76,64
111120,note_on,160,0,15,,,,,,,,14,,,,44,75
111120,note_on,160,0,14,,,,,,,,13,,,,44,75
111200,note_off,80,0,15,,,,,,,,14,,,,44,64
111200,note_off,80,0,14,,,,,,,,13,,,,44,64
111270,note_on,160,0,8,,,,,,,,6,,,,49,68
111270,note_on,160,0,13,,,,,,,,12,,,,49,64
111270,note_on,0,0,2,,,,,,,,0,,,,49,53
111270,note_on,160,0,9,,,,,,,,7,,,,37,64
111270,note_on,160,0,5,,,,,,,,3,,,,75,81
111270,note_on,160,0,2,,,,,,,,0,,,,37,53
111270,note_on,160,0,10,,,,,,,,8,,,,75,64
111350,note_off,0,0,2,,,,,,,,0,,,,37,64
111350,note_off,80,0,13,,,,,,,,12,,,,49,64
111350,note_off,80,0,9,,,,,,,,7,,,,37,64
111350,note_off,80,0,8,,,,,,,,6,,,,49,64
111350,note_off,80,0,5,,,,,,,,3,,,,75,64
111350,note_off,80,0,10,,,,,,,,8,,,,75,64
111350,note_off,80,0,2,,,,,,,,0,,,,49,64
111360,note_on,160,0,14,,,,,,,,13,,,,49,75
111360,note_on,160,0,15,,,,,,,,14,,,,49,75
111390,note_on,40,0,10,,,,,,,,8,,,,73,59
111390,note_on,40,0,5,,,,,,,,3,,,,73,75
111430,note_off,400,0,7,,,,,,,,5,,,,68,64
111430,note_off,400,0,6,,,,,,,,4,,,,73,64
111430,note_off,400,0,12,,,,,,,,11,,,,68,64
111430,note_off,400,0,11,,,,,,,,10,,,,73,64
111430,note_off,400,0,1,,,,,,,,0,,,,73,64
111430,note_off,0,0,1,,,,,,,,0,,,,68,64
111430,note_off,0,0,1,,,,,,,,0,,,,64,64
111430,note_off,0,0,1,,,,,,,,0,,,,61,64
111440,note_off,80,0,15,,,,,,,,14,,,,49,64
111440,note_off,80,0,14,,,,,,,,13,,,,49,64
111470,note_off,80,0,10,,,,,,,,8,,,,73,64
111470,note_off,80,0,5,,,,,,,,3,,,,73,64
111510,note_on,160,0,9,,,,,,,,7,,,,44,53
111510,note_on,40,0,5,,,,,,,,3,,,,76,69
111510,note_on,0,0,2,,,,,,,,0,,,,56,46
111510,note_on,80,0,7,,,,,,,,5,,,,68,53
111510,note_on,160,0,2,,,,,,,,0,,,,44,46
111510,note_on,80,0,1,,,,,,,,0,,,,64,45
111510,note_on,160,0,13,,,,,,,,12,,,,56,53
111510,note_on,80,0,6,,,,,,,,4,,,,72,69
111510,note_on,0,0,1,,,,,,,,0,,,,72,45
111510,note_on,0,0,1,,,,,,,,0,,,,68,45
111510,note_on,80,0,11,,,,,,,,10,,,,72,53
111510,note_on,160,0,8,,,,,,,,6,,,,56,61
111510,note_on,40,0,10,,,,,,,,8,,,,76,54
111510,note_on,80,0,12,,,,,,,,11,,,,68,53
111540,note_on,0,0,5,,,,,,,,3,,,,78,68
111540,note_off,30,0,5,,,,,,,,3,,,,76,64
111540,note_on,0,0,10,,,,,,,,8,,,,78,53
111540,note_off,30,0,10,,,,,,,,8,,,,76,64
111570,note_on,0,0,5,,,,,,,,3,,,,76,67
111570,note_off,30,0,10,,,,,,,,8,,,,78,64
111570,note_on,0,0,10,,,,,,,,8,,,,76,52
111570,note_off,30,0,5,,,,,,,,3,,,,78,64
111590,note_off,80,0,8,,,,,,,,6,,,,56,64
111590,note_off,80,0,1,,,,,,,,0,,,,72,64
111590,note_off,0,0,1,,,,,,,,0,,,,68,64
111590,note_off,0,0,1,,,,,,,,0,,,,64,64
111590,note_off,80,0,9,,,,,,,,7,,,,44,64
111590,note_off,80,0,13,,,,,,,,12,,,,56,64
111590,note_off,0,0,2,,,,,,,,0,,,,44,64
111590,note_off,80,0,2,,,,,,,,0,,,,56,64
111600,note_off,30,0,10,,,,,,,,8,,,,76,64
111600,note_on,0,0,10,,,,,,,,8,,,,78,51
111600,note_off,30,0,5,,,,,,,,3,,,,76,64
111600,note_on,0,0,5,,,,,,,,3,,,,78,66
111600,note_on,160,0,15,,,,,,,,14,,,,37,64
111600,note_on,160,0,14,,,,,,,,13,,,,37,64
111630,note_on,0,0,10,,,,,,,,8,,,,76,50
111630,note_off,30,0,10,,,,,,,,8,,,,78,64
111630,note_off,30,0,5,,,,,,,,3,,,,78,64
111630,note_on,0,0,5,,,,,,,,3,,,,76,65
111660,note_on,0,0,5,,,,,,,,3,,,,78,64
111660,note_on,0,0,10,,,,,,,,8,,,,78,49
111660,note_off,30,0,10,,,,,,,,8,,,,76,64
111660,note_off,30,0,5,,,,,,,,3,,,,76,64
111680,note_off,80,0,14,,,,,,,,13,,,,37,64
111680,note_off,80,0,15,,,,,,,,14,,,,37,64
111690,note_off,30,0,5,,,,,,,,3,,,,78,64
111690,note_on,0,0,5,,,,,,,,3,,,,76,63
111690,note_on,0,0,10,,,,,,,,8,,,,76,48
111690,note_off,30,0,10,,,,,,,,8,,,,78,64
111720,note_on,0,0,10,,,,,,,,8,,,,78,47
111720,note_off,30,0,10,,,,,,,,8,,,,76,64
111720,note_off,30,0,5,,,,,,,,3,,,,76,64
111720,note_on,0,0,5,,,,,,,,3,,,,78,62
111750,note_on,160,0,2,,,,,,,,0,,,,32,38
111750,note_on,0,0,2,,,,,,,,0,,,,44,38
111750,note_on,160,0,8,,,,,,,,6,,,,44,53
111750,note_on,160,0,1,,,,,,,,0,,,,64,38
111750,note_off,30,0,10,,,,,,,,8,,,,78,64
111750,note_on,0,0,1,,,,,,,,0,,,,72,38
111750,note_on,160,0,13,,,,,,,,12,,,,44,42
111750,note_on,160,0,9,,,,,,,,7,,,,32,42
111750,note_on,0,0,1,,,,,,,,0,,,,68,38
111750,note_on,0,0,10,,,,,,,,8,,,,76,46
111750,note_off,30,0,5,,,,,,,,3,,,,78,64
111750,note_on,0,0,5,,,,,,,,3,,,,76,61
111780,note_on,0,0,10,,,,,,,,8,,,,78,44
111780,note_off,30,0,10,,,,,,,,8,,,,76,64
111780,note_on,0,0,5,,,,,,,,3,,,,78,59
111780,note_off,30,0,5,,,,,,,,3,,,,76,64
111810,note_on,0,0,5,,,,,,,,3,,,,76,57
111810,note_off,30,0,5,,,,,,,,3,,,,78,64
111810,note_off,30,0,10,,,,,,,,8,,,,78,64
111810,note_on,0,0,10,,,,,,,,8,,,,76,42
111830,note_off,80,0,13,,,,,,,,12,,,,44,64
111830,note_off,0,0,2,,,,,,,,0,,,,32,64
111830,note_off,0,0,1,,,,,,,,0,,,,64,64
111830,note_off,0,0,1,,,,,,,,0,,,,68,64
111830,note_off,80,0,1,,,,,,,,0,,,,72,64
111830,note_off,80,0,8,,,,,,,,6,,,,44,64
111830,note_off,80,0,9,,,,,,,,7,,,,32,64
111830,note_off,80,0,2,,,,,,,,0,,,,44,64
111840,note_on,160,0,15,,,,,,,,14,,,,44,53
111840,note_on,160,0,14,,,,,,,,13,,,,44,53
111850,note_off,40,0,10,,,,,,,,8,,,,76,64
111850,note_off,40,0,5,,,,,,,,3,,,,76,64
111870,note_on,20,0,10,,,,,,,,8,,,,75,38
111870,note_on,20,0,5,,,,,,,,3,,,,75,53
111910,note_off,400,0,7,,,,,,,,5,,,,68,64
111910,note_off,400,0,6,,,,,,,,4,,,,72,64
111910,note_off,400,0,11,,,,,,,,10,,,,72,64
111910,note_off,400,0,12,,,,,,,,11,,,,68,64
111920,note_off,80,0,15,,,,,,,,14,,,,44,64
111920,note_off,80,0,14,,,,,,,,13,,,,44,64
111950,note_off,80,0,10,,,,,,,,8,,,,75,64
111950,note_off,80,0,5,,,,,,,,3,,,,75,64
111990,note_on,0,0,1,,,,,,,,0,,,,68,30
111990,note_on,0,0,2,,,,,,,,0,,,,49,30
111990,note_on,40,0,10,,,,,,,,8,,,,73,30
111990,note_on,80,0,11,,,,,,,,10,,,,68,30
111990,note_on,80,0,7,,,,,,,,5,,,,64,30
111990,note_on,0,0,1,,,,,,,,0,,,,73,30
111990,note_on,80,0,6,,,,,,,,4,,,,68,45
111990,note_on,40,0,5,,,,,,,,3,,,,73,45
111990,note_on,80,0,12,,,,,,,,11,,,,64,30
111990,note_on,160,0,9,,,,,,,,7,,,,37,30
111990,note_on,160,0,8,,,,,,,,6,,,,49,45
111990,note_on,160,0,1,,,,,,,,0,,,,64,30
111990,note_on,160,0,2,,,,,,,,0,,,,37,30
111990,note_on,160,0,13,,,,,,,,12,,,,49,30
112080,note_on,160,0,14,,,,,,,,13,,,,32,42
112080,note_on,160,0,15,,,,,,,,14,,,,32,42
112160,note_off,80,0,14,,,,,,,,13,,,,32,64
112160,note_off,80,0,15,,,,,,,,14,,,,32,64
112230,note_on,6590,0,4,,,,,,,,2,,,,80,45
112230,note_on,6590,0,3,,,,,,,,1,,,,80,60
112320,note_on,160,0,14,,,,,,,,13,,,,37,30
112320,note_on,160,0,15,,,,,,,,14,,,,37,30
112390,note_off,0,0,2,,,,,,,,0,,,,37,64
112390,note_off,400,0,7,,,,,,,,5,,,,64,64
112390,note_off,400,0,12,,,,,,,,11,,,,64,64
112390,note_off,0,0,1,,,,,,,,0,,,,64,64
112390,note_off,0,0,1,,,,,,,,0,,,,68,64
112390,note_off,400,0,2,,,,,,,,0,,,,49,64
112390,note_off,400,0,9,,,,,,,,7,,,,37,64
112390,note_off,400,0,6,,,,,,,,4,,,,68,64
112390,note_off,400,0,10,,,,,,,,8,,,,73,64
112390,note_off,400,0,11,,,,,,,,10,,,,68,64
112390,note_off,400,0,5,,,,,,,,3,,,,73,64
112390,note_off,400,0,1,,,,,,,,0,,,,73,64
112400,note_off,170,0,4,,,,,,,,2,,,,80,64
112400,note_off,170,0,3,,,,,,,,1,,,,80,64
112470,note_on,70,0,4,,,,,,,,2,,,,80,45
112470,note_on,70,0,3,,,,,,,,1,,,,80,60
112640,note_off,170,0,4,,,,,,,,2,,,,80,64
112640,note_off,170,0,3,,,,,,,,1,,,,80,64
112710,note_on,70,0,4,,,,,,,,2,,,,80,45
112710,note_on,70,0,3,,,,,,,,1,,,,80,60
112720,note_off,400,0,15,,,,,,,,14,,,,37,64
112720,note_off,400,0,14,,,,,,,,13,,,,37,64
112880,note_off,170,0,4,,,,,,,,2,,,,80,64
112880,note_off,170,0,3,,,,,,,,1,,,,80,64
112950,note_on,70,0,3,,,,,,,,1,,,,80,60
112950,note_on,70,0,4,,,,,,,,2,,,,80,45
113120,note_off,170,0,3,,,,,,,,1,,,,80,64
113120,note_off,170,0,4,,,,,,,,2,,,,80,64
113190,note_on,70,0,4,,,,,,,,2,,,,80,45
113190,note_on,70,0,3,,,,,,,,1,,,,80,60
113360,note_off,170,0,4,,,,,,,,2,,,,80,64
113360,note_off,170,0,3,,,,,,,,1,,,,80,64
113430,note_on,70,0,4,,,,,,,,2,,,,80,45
113430,note_on,70,0,3,,,,,,,,1,,,,80,60
113600,note_off,170,0,4,,,,,,,,2,,,,80,64
113600,note_off,170,0,3,,,,,,,,1,,,,80,64
113670,note_on,70,0,3,,,,,,,,1,,,,80,60
113670,note_on,70,0,4,,,,,,,,2,,,,80,45
113750,note_off,80,0,4,,,,,,,,2,,,,80,64
113840,note_off,170,0,3,,,,,,,,1,,,,80,64
113910,note_on,70,0,3,,,,,,,,1,,,,81,60
113910,note_on,160,0,4,,,,,,,,2,,,,81,45
114080,note_off,170,0,4,,,,,,,,2,,,,81,64
114080,note_off,170,0,3,,,,,,,,1,,,,81,64
114150,note_on,1760,0,5,,,,,,,,3,,,,73,45
114150,note_on,70,0,3,,,,,,,,1,,,,81,60
114150,note_on,1760,0,10,,,,,,,,8,,,,73,30
114150,note_on,70,0,4,,,,,,,,2,,,,81,45
114320,note_off,170,0,3,,,,,,,,1,,,,81,64
114320,note_off,170,0,4,,,,,,,,2,,,,81,64
114320,note_off,170,0,5,,,,,,,,3,,,,73,64
114320,note_off,170,0,10,,,,,,,,8,,,,73,64
114390,note_on,70,0,4,,,,,,,,2,,,,82,45
114390,note_on,70,0,5,,,,,,,,3,,,,73,45
114390,note_on,70,0,10,,,,,,,,8,,,,73,30
114390,note_on,70,0,3,,,,,,,,1,,,,82,60
114560,note_off,170,0,4,,,,,,,,2,,,,82,64
114560,note_off,170,0,5,,,,,,,,3,,,,73,64
114560,note_off,170,0,10,,,,,,,,8,,,,73,64
114560,note_off,170,0,3,,,,,,,,1,,,,82,64
114630,note_on,70,0,5,,,,,,,,3,,,,73,45
114630,note_on,70,0,10,,,,,,,,8,,,,73,30
114630,note_on,70,0,3,,,,,,,,1,,,,82,60
114630,note_on,70,0,4,,,,,,,,2,,,,82,45
114800,note_off,170,0,3,,,,,,,,1,,,,82,64
114800,note_off,170,0,5,,,,,,,,3,,,,73,64
114800,note_off,170,0,4,,,,,,,,2,,,,82,64
114800,note_off,170,0,10,,,,,,,,8,,,,73,64
114870,note_on,70,0,3,,,,,,,,1,,,,83,60
114870,note_on,70,0,5,,,,,,,,3,,,,73,45
114870,note_on,70,0,4,,,,,,,,2,,,,83,45
114870,note_on,70,0,10,,,,,,,,8,,,,73,30
115040,note_off,170,0,5,,,,,,,,3,,,,73,64
115040,note_off,170,0,4,,,,,,,,2,,,,83,64
115040,note_off,170,0,3,,,,,,,,1,,,,83,64
115040,note_off,170,0,10,,,,,,,,8,,,,73,64
115110,note_on,70,0,5,,,,,,,,3,,,,73,45
115110,note_on,70,0,4,,,,,,,,2,,,,83,45
115110,note_on,70,0,10,,,,,,,,8,,,,73,30
115110,note_on,70,0,3,,,,,,,,1,,,,83,60
115280,note_off,170,0,10,,,,,,,,8,,,,73,64
115280,note_off,170,0,4,,,,,,,,2,,,,83,64
115280,note_off,170,0,3,,,,,,,,1,,,,83,64
115280,note_off,170,0,5,,,,,,,,3,,,,73,64
115350,note_on,70,0,10,,,,,,,,8,,,,73,30
115350,note_on,70,0,3,,,,,,,,1,,,,84,60
115350,note_on,70,0,5,,,,,,,,3,,,,73,45
115350,note_on,70,0,4,,,,,,,,2,,,,84,45
115520,note_off,170,0,4,,,,,,,,2,,,,84,64
115520,note_off,170,0,3,,,,,,,,1,,,,84,64
115520,note_off,170,0,5,,,,,,,,3,,,,73,64
115520,note_off,170,0,10,,,,,,,,8,,,,73,64
115590,note_on,70,0,3,,,,,,,,1,,,,84,60
115590,note_on,70,0,10,,,,,,,,8,,,,75,30
115590,note_on,70,0,4,,,,,,,,2,,,,84,45
115590,note_on,70,0,5,,,,,,,,3,,,,75,45
115670,note_off,80,0,4,,,,,,,,2,,,,84,64
115670,note_off,80,0,3,,,,,,,,1,,,,84,64
115760,note_off,170,0,5,,,,,,,,3,,,,75,64
115760,note_off,170,0,10,,,,,,,,8,,,,75,64
115830,note_on,160,0,4,,,,,,,,2,,,,85,45
115830,note_on,160,0,3,,,,,,,,1,,,,85,60
115830,note_on,70,0,10,,,,,,,,8,,,,76,30
115830,note_on,70,0,5,,,,,,,,3,,,,76,45
115870,note_on,0,0,3,,,,,,,,1,,,,87,60
115870,note_off,40,0,3,,,,,,,,1,,,,85,64
115890,note_off,60,0,4,,,,,,,,2,,,,85,64
115890,note_on,0,0,4,,,,,,,,2,,,,87,45
115910,note_off,40,0,3,,,,,,,,1,,,,87,64
115910,note_on,0,0,3,,,,,,,,1,,,,85,60
115950,note_on,0,0,3,,,,,,,,1,,,,87,60
115950,note_off,40,0,3,,,,,,,,1,,,,85,64
115950,note_off,60,0,4,,,,,,,,2,,,,87,64
115950,note_on,0,0,4,,,,,,,,2,,,,85,45
115990,note_on,0,0,3,,,,,,,,1,,,,85,60
115990,note_off,40,0,3,,,,,,,,1,,,,87,64
116000,note_off,170,0,10,,,,,,,,8,,,,76,64
116000,note_off,170,0,5,,,,,,,,3,,,,76,64
116010,note_on,0,0,4,,,,,,,,2,,,,87,45
116010,note_off,60,0,4,,,,,,,,2,,,,85,64
116030,note_on,0,0,3,,,,,,,,1,,,,87,60
116030,note_off,40,0,3,,,,,,,,1,,,,85,64
116070,note_on,0,0,3,,,,,,,,1,,,,85,60
116070,note_on,70,0,5,,,,,,,,3,,,,76,45
116070,note_on,0,0,4,,,,,,,,2,,,,85,45
116070,note_off,60,0,4,,,,,,,,2,,,,87,64
116070,note_on,70,0,10,,,,,,,,8,,,,76,30
116070,note_off,40,0,3,,,,,,,,1,,,,87,64
116110,note_on,0,0,3,,,,,,,,1,,,,87,60
116110,note_off,40,0,3,,,,,,,,1,,,,85,64
116130,note_off,60,0,4,,,,,,,,2,,,,85,64
116130,note_on,0,0,4,,,,,,,,2,,,,87,45
116150,note_off,40,0,3,,,,,,,,1,,,,87,64
116150,note_on,0,0,3,,,,,,,,1,,,,85,60
116190,note_off,40,0,3,,,,,,,,1,,,,85,64
116190,note_on,0,0,3,,,,,,,,1,,,,87,60
116190,note_off,60,0,4,,,,,,,,2,,,,87,64
116190,note_on,0,0,4,,,,,,,,2,,,,85,45
116230,note_on,0,0,3,,,,,,,,1,,,,85,60
116230,note_off,40,0,3,,,,,,,,1,,,,87,64
116240,note_off,170,0,10,,,,,,,,8,,,,76,64
116240,note_off,170,0,5,,,,,,,,3,,,,76,64
116250,note_on,0,0,4,,,,,,,,2,,,,87,45
116250,note_off,60,0,4,,,,,,,,2,,,,85,64
116270,note_on,0,0,3,,,,,,,,1,,,,87,60
116270,note_off,40,0,3,,,,,,,,1,,,,85,64
116310,note_on,70,0,5,,,,,,,,3,,,,77,45
116310,note_on,0,0,3,,,,,,,,1,,,,85,60
116310,note_off,40,0,3,,,,,,,,1,,,,87,64
116310,note_off,60,0,4,,,,,,,,2,,,,87,64
116310,note_on,0,0,4,,,,,,,,2,,,,85,45
116310,note_on,70,0,10,,,,,,,,8,,,,77,30
116350,note_on,0,0,3,,,,,,,,1,,,,87,60
116350,note_off,40,0,3,,,,,,,,1,,,,85,64
116370,note_off,60,0,4,,,,,,,,2,,,,85,64
116370,note_on,0,0,4,,,,,,,,2,,,,87,45
116390,note_on,0,0,3,,,,,,,,1,,,,85,60
116390,note_off,40,0,3,,,,,,,,1,,,,87,64
116430,note_on,0,0,4,,,,,,,,2,,,,85,45
116430,note_off,60,0,4,,,,,,,,2,,,,87,64
116430,note_off,40,0,3,,,,,,,,1,,,,85,64
116430,note_on,0,0,3,,,,,,,,1,,,,87,60
116470,note_off,40,0,3,,,,,,,,1,,,,87,64
116470,note_on,0,0,3,,,,,,,,1,,,,85,60
116480,note_off,170,0,5,,,,,,,,3,,,,77,64
116480,note_off,170,0,10,,,,,,,,8,,,,77,64
116490,note_off,60,0,4,,,,,,,,2,,,,85,64
116490,note_on,0,0,4,,,,,,,,2,,,,87,45
116510,note_on,0,0,3,,,,,,,,1,,,,87,60
116510,note_off,40,0,3,,,,,,,,1,,,,85,64
116550,note_on,0,0,4,,,,,,,,2,,,,85,45
116550,note_off,60,0,4,,,,,,,,2,,,,87,64
116550,note_on,70,0,5,,,,,,,,3,,,,77,45
116550,note_on,70,0,10,,,,,,,,8,,,,77,30
116550,note_off,40,0,3,,,,,,,,1,,,,87,64
116550,note_on,0,0,3,,,,,,,,1,,,,85,60
116590,note_off,40,0,3,,,,,,,,1,,,,85,64
116590,note_on,0,0,3,,,,,,,,1,,,,87,60
116610,note_on,0,0,4,,,,,,,,2,,,,87,45
116610,note_off,60,0,4,,,,,,,,2,,,,85,64
116630,note_off,40,0,3,,,,,,,,1,,,,87,64
116630,note_on,0,0,3,,,,,,,,1,,,,85,60
116670,note_off,60,0,4,,,,,,,,2,,,,87,64
116670,note_on,0,0,4,,,,,,,,2,,,,85,45
116670,note_on,0,0,3,,,,,,,,1,,,,87,60
116670,note_off,40,0,3,,,,,,,,1,,,,85,64
116710,note_off,40,0,3,,,,,,,,1,,,,87,64
116710,note_on,0,0,3,,,,,,,,1,,,,85,60
116720,note_off,170,0,10,,,,,,,,8,,,,77,64
116720,note_off,170,0,5,,,,,,,,3,,,,77,64
116730,note_on,0,0,4,,,,,,,,2,,,,87,45
116730,note_off,60,0,4,,,,,,,,2,,,,85,64
116750,note_off,40,0,3,,,,,,,,1,,,,85,64
116750,note_on,0,0,3,,,,,,,,1,,,,87,60
116790,note_on,0,0,4,,,,,,,,2,,,,85,45
116790,note_off,40,0,3,,,,,,,,1,,,,87,64
116790,note_on,0,0,3,,,,,,,,1,,,,85,60
116790,note_off,60,0,4,,,,,,,,2,,,,87,64
116790,note_on,70,0,10,,,,,,,,8,,,,78,30
116790,note_on,70,0,5,,,,,,,,3,,,,78,45
116830,note_off,40,0,3,,,,,,,,1,,,,85,64
116830,note_on,0,0,3,,,,,,,,1,,,,87,60
116850,note_off,60,0,4,,,,,,,,2,,,,85,64
116850,note_on,0,0,4,,,,,,,,2,,,,87,45
116870,note_off,40,0,3,,,,,,,,1,,,,87,64
116870,note_on,0,0,3,,,,,,,,1,,,,85,60
116910,note_on,0,0,3,,,,,,,,1,,,,87,60
116910,note_on,0,0,4,,,,,,,,2,,,,85,45
116910,note_off,40,0,3,,,,,,,,1,,,,85,64
116910,note_off,60,0,4,,,,,,,,2,,,,87,64
116950,note_off,40,0,3,,,,,,,,1,,,,87,64
116950,note_on,0,0,3,,,,,,,,1,,,,85,60
116960,note_off,170,0,10,,,,,,,,8,,,,78,64
116960,note_off,170,0,5,,,,,,,,3,,,,78,64
116970,note_off,60,0,4,,,,,,,,2,,,,85,64
116970,note_on,0,0,4,,,,,,,,2,,,,87,45
116990,note_on,0,0,3,,,,,,,,1,,,,87,60
116990,note_off,40,0,3,,,,,,,,1,,,,85,64
117030,note_on,70,0,5,,,,,,,,3,,,,78,45
117030,note_off,60,0,4,,,,,,,,2,,,,87,64
117030,note_on,0,0,4,,,,,,,,2,,,,85,45
117030,note_on,0,0,3,,,,,,,,1,,,,85,60
117030,note_on,70,0,10,,,,,,,,8,,,,78,30
117030,note_off,40,0,3,,,,,,,,1,,,,87,64
117070,note_on,0,0,3,,,,,,,,1,,,,87,60
117070,note_off,40,0,3,,,,,,,,1,,,,85,64
117090,note_off,60,0,4,,,,,,,,2,,,,85,64
117090,note_on,0,0,4,,,,,,,,2,,,,87,45
117110,note_off,40,0,3,,,,,,,,1,,,,87,64
117110,note_on,0,0,3,,,,,,,,1,,,,85,60
117150,note_on,0,0,4,,,,,,,,2,,,,85,45
117150,note_off,40,0,3,,,,,,,,1,,,,85,64
117150,note_on,0,0,3,,,,,,,,1,,,,87,60
117150,note_off,60,0,4,,,,,,,,2,,,,87,64
117190,note_on,0,0,3,,,,,,,,1,,,,85,60
117190,note_off,40,0,3,,,,,,,,1,,,,87,64
117200,note_off,170,0,10,,,,,,,,8,,,,78,64
117200,note_off,170,0,5,,,,,,,,3,,,,78,64
117210,note_off,60,0,4,,,,,,,,2,,,,85,64
117210,note_on,0,0,4,,,,,,,,2,,,,87,45
117230,note_off,40,0,3,,,,,,,,1,,,,85,64
117230,note_on,0,0,3,,,,,,,,1,,,,87,60
117270,note_off,40,0,3,,,,,,,,1,,,,87,64
117270,note_on,0,0,3,,,,,,,,1,,,,85,60
117270,note_on,70,0,10,,,,,,,,8,,,,79,30
117270,note_on,0,0,4,,,,,,,,2,,,,85,45
117270,note_off,60,0,4,,,,,,,,2,,,,87,64
117270,note_on,70,0,5,,,,,,,,3,,,,79,45
117310,note_off,40,0,3,,,,,,,,1,,,,85,64
117310,note_on,0,0,3,,,,,,,,1,,,,87,60
117330,note_off,60,0,4,,,,,,,,2,,,,85,64
117330,note_on,0,0,4,,,,,,,,2,,,,87,45
117350,note_off,40,0,3,,,,,,,,1,,,,87,64
117350,note_on,0,0,3,,,,,,,,1,,,,85,60
117390,note_off,40,0,3,,,,,,,,1,,,,85,64
117390,note_on,0,0,3,,,,,,,,1,,,,87,60
117390,note_on,0,0,4,,,,,,,,2,,,,85,45
117390,note_off,60,0,4,,,,,,,,2,,,,87,64
117430,note_on,0,0,3,,,,,,,,1,,,,85,60
117430,note_off,40,0,3,,,,,,,,1,,,,87,64
117440,note_off,170,0,10,,,,,,,,8,,,,79,64
117440,note_off,170,0,5,,,,,,,,3,,,,79,64
117450,note_off,60,0,4,,,,,,,,2,,,,85,64
117450,note_on,0,0,4,,,,,,,,2,,,,87,45
117470,note_off,40,0,3,,,,,,,,1,,,,85,64
117470,note_on,0,0,3,,,,,,,,1,,,,87,60
117510,note_off,60,0,4,,,,,,,,2,,,,87,64
117510,note_on,0,0,4,,,,,,,,2,,,,85,45
117510,note_on,70,0,10,,,,,,,,8,,,,79,30
117510,note_off,40,0,3,,,,,,,,1,,,,87,64
117510,note_on,70,0,5,,,,,,,,3,,,,79,45
117510,note_on,0,0,3,,,,,,,,1,,,,85,60
117550,note_off,40,0,3,,,,,,,,1,,,,85,64
117550,note_on,0,0,3,,,,,,,,1,,,,87,60
117570,note_off,60,0,4,,,,,,,,2,,,,85,64
117570,note_on,0,0,4,,,,,,,,2,,,,87,45
117590,note_off,40,0,3,,,,,,,,1,,,,87,64
117590,note_on,0,0,3,,,,,,,,1,,,,85,60
117630,note_on,0,0,3,,,,,,,,1,,,,87,60
117630,note_on,0,0,4,,,,,,,,2,,,,85,45
117630,note_off,60,0,4,,,,,,,,2,,,,87,64
117630,note_off,40,0,3,,,,,,,,1,,,,85,64
117670,note_on,0,0,3,,,,,,,,1,,,,85,60
117670,note_off,40,0,3,,,,,,,,1,,,,87,64
117680,note_off,170,0,5,,,,,,,,3,,,,79,64
117680,note_off,170,0,10,,,,,,,,8,,,,79,64
117690,note_off,60,0,4,,,,,,,,2,,,,85,64
117690,note_on,0,0,4,,,,,,,,2,,,,87,45
117710,note_on,0,0,3,,,,,,,,1,,,,87,60
117710,note_off,40,0,3,,,,,,,,1,,,,85,64
117750,note_on,0,0,3,,,,,,,,1,,,,85,60
117750,note_on,5360,0,6,,,,,,,,4,,,,76,45
117750,note_off,40,0,3,,,,,,,,1,,,,87,64
117750,note_on,70,0,5,,,,,,,,3,,,,80,45
117750,note_off,60,0,4,,,,,,,,2,,,,87,64
117750,note_on,0,0,4,,,,,,,,2,,,,85,45
117750,note_on,70,0,10,,,,,,,,8,,,,80,30
117750,note_on,5360,0,11,,,,,,,,10,,,,76,30
117790,note_on,0,0,3,,,,,,,,1,,,,87,60
117790,note_off,40,0,3,,,,,,,,1,,,,85,64
117810,note_on,0,0,4,,,,,,,,2,,,,87,45
117810,note_off,60,0,4,,,,,,,,2,,,,85,64
117830,note_on,0,0,3,,,,,,,,1,,,,85,60
117830,note_off,40,0,3,,,,,,,,1,,,,87,64
117870,note_off,40,0,3,,,,,,,,1,,,,85,64
117870,note_on,0,0,3,,,,,,,,1,,,,87,60
117870,note_off,60,0,4,,,,,,,,2,,,,87,64
117870,note_on,0,0,4,,,,,,,,2,,,,85,45
117910,note_on,0,0,3,,,,,,,,1,,,,85,60
117910,note_off,40,0,3,,,,,,,,1,,,,87,64
117930,note_on,0,0,4,,,,,,,,2,,,,87,45
117930,note_off,60,0,4,,,,,,,,2,,,,85,64
117950,note_off,40,0,3,,,,,,,,1,,,,85,64
117950,note_on,0,0,3,,,,,,,,1,,,,87,60
117990,note_off,60,0,4,,,,,,,,2,,,,87,64
117990,note_on,0,0,4,,,,,,,,2,,,,85,45
117990,note_off,40,0,3,,,,,,,,1,,,,87,64
117990,note_on,0,0,3,,,,,,,,1,,,,85,60
118030,note_on,0,0,3,,,,,,,,1,,,,87,60
118030,note_off,40,0,3,,,,,,,,1,,,,85,64
118050,note_off,60,0,4,,,,,,,,2,,,,85,64
118050,note_on,0,0,4,,,,,,,,2,,,,87,45
118070,note_off,40,0,3,,,,,,,,1,,,,87,64
118070,note_on,0,0,3,,,,,,,,1,,,,85,60
118110,note_off,60,0,4,,,,,,,,2,,,,87,64
118110,note_on,0,0,4,,,,,,,,2,,,,85,45
118110,note_off,40,0,3,,,,,,,,1,,,,85,64
118110,note_on,0,0,3,,,,,,,,1,,,,87,60
118150,note_off,40,0,3,,,,,,,,1,,,,87,64
118150,note_on,0,0,3,,,,,,,,1,,,,85,60
118170,note_off,60,0,4,,,,,,,,2,,,,85,64
118170,note_on,0,0,4,,,,,,,,2,,,,87,45
118190,note_off,40,0,3,,,,,,,,1,,,,85,64
118190,note_on,0,0,3,,,,,,,,1,,,,87,60
118230,note_off,60,0,4,,,,,,,,2,,,,87,64
118230,note_on,0,0,4,,,,,,,,2,,,,85,45
118230,note_off,40,0,3,,,,,,,,1,,,,87,64
118230,note_on,0,0,3,,,,,,,,1,,,,85,60
118270,note_on,0,0,3,,,,,,,,1,,,,87,60
118270,note_off,40,0,3,,,,,,,,1,,,,85,64
118290,note_off,60,0,4,,,,,,,,2,,,,85,64
118290,note_on,0,0,4,,,,,,,,2,,,,87,45
118310,note_on,0,0,3,,,,,,,,1,,,,85,60
118310,note_off,40,0,3,,,,,,,,1,,,,87,64
118350,note_off,600,0,11,,,,,,,,10,,,,76,64
118350,note_on,0,0,5,,,,,,,,3,,,,81,45
118350,note_off,600,0,5,,,,,,,,3,,,,80,64
118350,note_off,600,0,6,,,,,,,,4,,,,76,64
118350,note_on,0,0,6,,,,,,,,4,,,,78,45
118350,note_off,600,0,10,,,,,,,,8,,,,80,64
118350,note_off,60,0,4,,,,,,,,2,,,,87,64
118350,note_on,0,0,11,,,,,,,,10,,,,78,30
118350,note_on,0,0,3,,,,,,,,1,,,,87,60
118350,note_off,40,0,3,,,,,,,,1,,,,85,64
118350,note_on,0,0,4,,,,,,,,2,,,,85,45
118350,note_on,0,0,10,,,,,,,,8,,,,81,30
118390,note_on,0,0,3,,,,,,,,1,,,,85,60
118390,note_off,40,0,3,,,,,,,,1,,,,87,64
118410,note_on,0,0,4,,,,,,,,2,,,,87,45
118410,note_off,60,0,4,,,,,,,,2,,,,85,64
118430,note_off,80,0,5,,,,,,,,3,,,,81,64
118430,note_off,80,0,6,,,,,,,,4,,,,78,64
118430,note_off,40,0,3,,,,,,,,1,,,,85,64
118430,note_off,80,0,10,,,,,,,,8,,,,81,64
118430,note_off,80,0,11,,,,,,,,10,,,,78,64
118430,note_on,0,0,3,,,,,,,,1,,,,87,60
118470,note_off,60,0,4,,,,,,,,2,,,,87,64
118470,note_on,40,0,10,,,,,,,,8,,,,80,30
118470,note_on,40,0,11,,,,,,,,10,,,,76,30
118470,note_on,40,0,6,,,,,,,,4,,,,76,45
118470,note_on,40,0,5,,,,,,,,3,,,,80,45
118470,note_off,40,0,3,,,,,,,,1,,,,87,64
118470,note_on,0,0,3,,,,,,,,1,,,,85,60
118470,note_on,0,0,4,,,,,,,,2,,,,85,45
118510,note_off,40,0,3,,,,,,,,1,,,,85,64
118510,note_on,0,0,3,,,,,,,,1,,,,87,60
118530,note_on,0,0,4,,,,,,,,2,,,,87,45
118530,note_off,60,0,4,,,,,,,,2,,,,85,64
118550,note_on,0,0,3,,,,,,,,1,,,,85,60
118550,note_off,40,0,3,,,,,,,,1,,,,87,64
118590,note_off,120,0,10,,,,,,,,8,,,,80,64
118590,note_on,0,0,10,,,,,,,,8,,,,81,30
118590,note_on,0,0,3,,,,,,,,1,,,,87,60
118590,note_off,40,0,3,,,,,,,,1,,,,85,64
118590,note_on,0,0,5,,,,,,,,3,,,,81,45
118590,note_off,120,0,5,,,,,,,,3,,,,80,64
118590,note_off,120,0,6,,,,,,,,4,,,,76,64
118590,note_on,0,0,6,,,,,,,,4,,,,78,45
118590,note_off,60,0,4,,,,,,,,2,,,,87,64
118590,note_off,120,0,11,,,,,,,,10,,,,76,64
118590,note_on,0,0,4,,,,,,,,2,,,,85,45
118590,note_on,0,0,11,,,,,,,,10,,,,78,30
118630,note_on,0,0,3,,,,,,,,1,,,,85,60
118630,note_off,40,0,3,,,,,,,,1,,,,87,64
118650,note_off,60,0,4,,,,,,,,2,,,,85,64
118650,note_on,0,0,4,,,,,,,,2,,,,87,45
118670,note_off,80,0,5,,,,,,,,3,,,,81,64
118670,note_off,80,0,6,,,,,,,,4,,,,78,64
118670,note_off,80,0,10,,,,,,,,8,,,,81,64
118670,note_off,40,0,3,,,,,,,,1,,,,85,64
118670,note_on,0,0,3,,,,,,,,1,,,,87,60
118670,note_off,80,0,11,,,,,,,,10,,,,78,64
118710,note_on,40,0,11,,,,,,,,10,,,,76,30
118710,note_off,40,0,3,,,,,,,,1,,,,87,64
118710,note_on,40,0,5,,,,,,,,3,,,,80,45
118710,note_on,0,0,3,,,,,,,,1,,,,85,60
118710,note_on,40,0,10,,,,,,,,8,,,,80,30
118710,note_off,60,0,4,,,,,,,,2,,,,87,64
118710,note_on,0,0,4,,,,,,,,2,,,,85,45
118710,note_on,40,0,6,,,,,,,,4,,,,76,45
118750,note_on,0,0,3,,,,,,,,1,,,,87,60
118750,note_off,40,0,3,,,,,,,,1,,,,85,64
118770,note_off,60,0,4,,,,,,,,2,,,,85,64
118770,note_on,0,0,4,,,,,,,,2,,,,87,45
118790,note_on,0,0,3,,,,,,,,1,,,,85,60
118790,note_off,40,0,3,,,,,,,,1,,,,87,64
118830,note_on,0,0,4,,,,,,,,2,,,,85,45
118830,note_off,40,0,3,,,,,,,,1,,,,85,64
118830,note_on,0,0,3,,,,,,,,1,,,,87,60
118830,note_off,60,0,4,,,,,,,,2,,,,87,64
118870,note_off,40,0,3,,,,,,,,1,,,,87,64
118870,note_on,0,0,3,,,,,,,,1,,,,85,60
118890,note_off,60,0,4,,,,,,,,2,,,,85,64
118890,note_on,0,0,4,,,,,,,,2,,,,87,45
118910,note_off,40,0,3,,,,,,,,1,,,,85,64
118910,note_on,0,0,3,,,,,,,,1,,,,87,60
118950,note_off,40,0,3,,,,,,,,1,,,,87,64
118950,note_on,0,0,3,,,,,,,,1,,,,85,60
118950,note_off,60,0,4,,,,,,,,2,,,,87,64
118950,note_on,0,0,4,,,,,,,,2,,,,85,45
118990,note_on,0,0,3,,,,,,,,1,,,,87,60
118990,note_off,40,0,3,,,,,,,,1,,,,85,64
119010,note_on,0,0,4,,,,,,,,2,,,,87,45
119010,note_off,60,0,4,,,,,,,,2,,,,85,64
119030,note_off,40,0,3,,,,,,,,1,,,,87,64
119030,note_on,0,0,3,,,,,,,,1,,,,85,60
119070,note_off,40,0,3,,,,,,,,1,,,,85,64
119070,note_on,0,0,4,,,,,,,,2,,,,85,45
119070,note_off,60,0,4,,,,,,,,2,,,,87,64
119070,note_on,0,0,3,,,,,,,,1,,,,87,60
119110,note_off,40,0,3,,,,,,,,1,,,,87,64
119110,note_on,0,0,3,,,,,,,,1,,,,85,60
119130,note_on,0,0,4,,,,,,,,2,,,,87,45
119130,note_off,60,0,4,,,,,,,,2,,,,85,64
119150,note_off,40,0,3,,,,,,,,1,,,,85,64
119150,note_on,0,0,3,,,,,,,,1,,,,87,60
119190,note_off,60,0,4,,,,,,,,2,,,,87,64
119190,note_on,0,0,4,,,,,,,,2,,,,85,45
119190,note_off,40,0,3,,,,,,,,1,,,,87,64
119190,note_on,0,0,3,,,,,,,,1,,,,85,60
119230,note_off,40,0,3,,,,,,,,1,,,,85,64
119230,note_on,0,0,3,,,,,,,,1,,,,87,60
119250,note_on,0,0,4,,,,,,,,2,,,,87,45
119250,note_off,60,0,4,,,,,,,,2,,,,85,64
119270,note_off,40,0,3,,,,,,,,1,,,,87,64
119270,note_on,0,0,3,,,,,,,,1,,,,85,60
119310,note_on,0,0,6,,,,,,,,4,,,,78,45
119310,note_on,0,0,10,,,,,,,,8,,,,81,30
119310,note_off,600,0,10,,,,,,,,8,,,,80,64
119310,note_on,0,0,5,,,,,,,,3,,,,81,45
119310,note_on,0,0,3,,,,,,,,1,,,,87,60
119310,note_off,60,0,4,,,,,,,,2,,,,87,64
119310,note_off,40,0,3,,,,,,,,1,,,,85,64
119310,note_on,0,0,4,,,,,,,,2,,,,85,45
119310,note_off,600,0,11,,,,,,,,10,,,,76,64
119310,note_on,0,0,11,,,,,,,,10,,,,78,30
119310,note_off,600,0,6,,,,,,,,4,,,,76,64
119310,note_off,600,0,5,,,,,,,,3,,,,80,64
119350,note_off,40,0,3,,,,,,,,1,,,,87,64
119350,note_on,0,0,3,,,,,,,,1,,,,85,60
119370,note_off,60,0,4,,,,,,,,2,,,,85,64
119370,note_on,0,0,4,,,,,,,,2,,,,87,45
119390,note_off,80,0,10,,,,,,,,8,,,,81,64
119390,note_off,80,0,11,,,,,,,,10,,,,78,64
119390,note_off,80,0,6,,,,,,,,4,,,,78,64
119390,note_off,40,0,3,,,,,,,,1,,,,85,64
119390,note_on,0,0,3,,,,,,,,1,,,,87,60
119390,note_off,80,0,5,,,,,,,,3,,,,81,64
119430,note_off,40,0,3,,,,,,,,1,,,,87,64
119430,note_off,60,0,4,,,,,,,,2,,,,87,64
119430,note_on,40,0,5,,,,,,,,3,,,,80,45
119430,note_on,0,0,4,,,,,,,,2,,,,85,45
119430,note_on,40,0,10,,,,,,,,8,,,,80,30
119430,note_on,0,0,3,,,,,,,,1,,,,85,60
119430,note_on,40,0,11,,,,,,,,10,,,,76,30
119430,note_on,40,0,6,,,,,,,,4,,,,76,45
119470,note_off,40,0,3,,,,,,,,1,,,,85,64
119470,note_on,0,0,3,,,,,,,,1,,,,87,60
119490,note_off,60,0,4,,,,,,,,2,,,,85,64
119490,note_on,0,0,4,,,,,,,,2,,,,87,45
119510,note_off,40,0,3,,,,,,,,1,,,,87,64
119510,note_on,0,0,3,,,,,,,,1,,,,85,60
119550,note_on,0,0,11,,,,,,,,10,,,,78,30
119550,note_off,120,0,11,,,,,,,,10,,,,76,64
119550,note_on,0,0,10,,,,,,,,8,,,,81,30
119550,note_off,60,0,4,,,,,,,,2,,,,87,64
119550,note_off,120,0,10,,,,,,,,8,,,,80,64
119550,note_off,120,0,6,,,,,,,,4,,,,76,64
119550,note_on,0,0,6,,,,,,,,4,,,,78,45
119550,note_off,40,0,3,,,,,,,,1,,,,85,64
119550,note_on,0,0,3,,,,,,,,1,,,,87,60
119550,note_on,0,0,5,,,,,,,,3,,,,81,45
119550,note_off,120,0,5,,,,,,,,3,,,,80,64
119550,note_on,0,0,4,,,,,,,,2,,,,85,45
119590,note_off,40,0,3,,,,,,,,1,,,,87,64
119590,note_on,0,0,3,,,,,,,,1,,,,85,60
119610,note_off,60,0,4,,,,,,,,2,,,,85,64
119610,note_on,0,0,4,,,,,,,,2,,,,87,45
119630,note_off,40,0,3,,,,,,,,1,,,,85,64
119630,note_off,80,0,5,,,,,,,,3,,,,81,64
119630,note_on,0,0,3,,,,,,,,1,,,,87,60
119630,note_off,80,0,10,,,,,,,,8,,,,81,64
119630,note_off,80,0,11,,,,,,,,10,,,,78,64
119630,note_off,80,0,6,,,,,,,,4,,,,78,64
119665,note_off,55,0,4,,,,,,,,2,,,,87,64
119670,note_off,40,0,3,,,,,,,,1,,,,87,64
119670,note_on,40,0,10,,,,,,,,8,,,,80,30
119670,note_on,40,0,6,,,,,,,,4,,,,76,45
119670,note_on,40,0,11,,,,,,,,10,,,,76,30
119670,note_on,40,0,5,,,,,,,,3,,,,80,45
119670,note_on,0,0,3,,,,,,,,1,,,,85,60
119670,note_on,5,0,4,,,,,,,,2,,,,85,45
119710,note_off,40,0,5,,,,,,,,3,,,,80,64
119710,note_on,0,0,5,,,,,,,,3,,,,81,45
119730,note_on,0,0,6,,,,,,,,4,,,,78,45
119730,note_off,60,0,6,,,,,,,,4,,,,76,64
119730,note_off,60,0,11,,,,,,,,10,,,,76,64
119730,note_on,0,0,10,,,,,,,,8,,,,81,30
119730,note_off,60,0,10,,,,,,,,8,,,,80,64
119730,note_on,0,0,11,,,,,,,,10,,,,78,30
119750,note_on,0,0,5,,,,,,,,3,,,,80,45
119750,note_off,40,0,5,,,,,,,,3,,,,81,64
119790,note_on,0,0,6,,,,,,,,4,,,,76,45
119790,note_on,0,0,4,,,,,,,,2,,,,87,45
119790,note_off,60,0,10,,,,,,,,8,,,,81,64
119790,note_off,60,0,6,,,,,,,,4,,,,78,64
119790,note_on,0,0,10,,,,,,,,8,,,,80,30
119790,note_on,0,0,3,,,,,,,,1,,,,87,60
119790,note_on,0,0,11,,,,,,,,10,,,,76,30
119790,note_on,0,0,5,,,,,,,,3,,,,81,45
119790,note_off,120,0,4,,,,,,,,2,,,,85,64
119790,note_off,40,0,5,,,,,,,,3,,,,80,64
119790,note_off,120,0,3,,,,,,,,1,,,,85,64
119790,note_off,60,0,11,,,,,,,,10,,,,78,64
119830,note_on,0,0,5,,,,,,,,3,,,,80,45
119830,note_off,40,0,5,,,,,,,,3,,,,81,64
119850,note_off,60,0,6,,,,,,,,4,,,,76,64
119850,note_on,0,0,6,,,,,,,,4,,,,78,45
119850,note_on,0,0,10,,,,,,,,8,,,,81,30
119850,note_on,0,0,11,,,,,,,,10,,,,78,30
119850,note_off,60,0,11,,,,,,,,10,,,,76,64
119850,note_off,60,0,10,,,,,,,,8,,,,80,64
119870,note_off,80,0,4,,,,,,,,2,,,,87,64
119870,note_on,0,0,5,,,,,,,,3,,,,81,45
119870,note_off,40,0,5,,,,,,,,3,,,,80,64
119870,note_off,80,0,3,,,,,,,,1,,,,87,64
119910,note_on,0,0,6,,,,,,,,4,,,,76,45
119910,note_on,40,0,4,,,,,,,,2,,,,85,45
119910,note_off,60,0,6,,,,,,,,4,,,,78,64
119910,note_off,40,0,5,,,,,,,,3,,,,81,64
119910,note_on,0,0,5,,,,,,,,3,,,,80,45
119910,note_on,0,0,10,,,,,,,,8,,,,80,30
119910,note_off,60,0,11,,,,,,,,10,,,,78,64
119910,note_on,0,0,11,,,,,,,,10,,,,76,30
119910,note_on,40,0,3,,,,,,,,1,,,,85,60
119910,note_off,60,0,10,,,,,,,,8,,,,81,64
119950,note_on,0,0,5,,,,,,,,3,,,,81,45
119950,note_off,40,0,5,,,,,,,,3,,,,80,64
119970,note_off,60,0,11,,,,,,,,10,,,,76,64
119970,note_on,0,0,10,,,,,,,,8,,,,81,30
119970,note_off,60,0,10,,,,,,,,8,,,,80,64
119970,note_on,0,0,11,,,,,,,,10,,,,78,30
119970,note_on,0,0,6,,,,,,,,4,,,,78,45
119970,note_off,60,0,6,,,,,,,,4,,,,76,64
119990,note_off,40,0,5,,,,,,,,3,,,,81,64
119990,note_on,0,0,5,,,,,,,,3,,,,80,45
120030,note_on,0,0,11,,,,,,,,10,,,,76,30
120030,note_on,0,0,6,,,,,,,,4,,,,76,45
120030,note_on,0,0,10,,,,,,,,8,,,,80,30
120030,note_off,60,0,10,,,,,,,,8,,,,81,64
120030,note_off,60,0,6,,,,,,,,4,,,,78,64
120030,note_on,0,0,5,,,,,,,,3,,,,81,45
120030,note_on,0,0,3,,,,,,,,1,,,,87,60
120030,note_off,60,0,11,,,,,,,,10,,,,78,64
120030,note_off,40,0,5,,,,,,,,3,,,,80,64
120030,note_off,120,0,4,,,,,,,,2,,,,85,64
120030,note_on,0,0,4,,,,,,,,2,,,,87,45
120030,note_off,120,0,3,,,,,,,,1,,,,85,64
120070,note_on,0,0,5,,,,,,,,3,,,,80,45
120070,note_off,40,0,5,,,,,,,,3,,,,81,64
120090,note_on,0,0,6,,,,,,,,4,,,,78,45
120090,note_off,60,0,6,,,,,,,,4,,,,76,64
120090,note_on,0,0,11,,,,,,,,10,,,,78,30
120090,note_off,60,0,11,,,,,,,,10,,,,76,64
120090,note_on,0,0,10,,,,,,,,8,,,,81,30
120090,note_off,60,0,10,,,,,,,,8,,,,80,64
120110,note_on,0,0,5,,,,,,,,3,,,,81,45
120110,note_off,40,0,5,,,,,,,,3,,,,80,64
120110,note_off,80,0,4,,,,,,,,2,,,,87,64
120110,note_off,80,0,3,,,,,,,,1,,,,87,64
120150,note_on,0,0,6,,,,,,,,4,,,,76,45
120150,note_on,0,0,5,,,,,,,,3,,,,80,45
120150,note_off,40,0,5,,,,,,,,3,,,,81,64
120150,note_off,60,0,11,,,,,,,,10,,,,78,64
120150,note_on,0,0,11,,,,,,,,10,,,,76,30
120150,note_on,40,0,3,,,,,,,,1,,,,85,60
120150,note_on,40,0,4,,,,,,,,2,,,,85,45
120150,note_off,60,0,10,,,,,,,,8,,,,81,64
120150,note_off,60,0,6,,,,,,,,4,,,,78,64
120150,note_on,0,0,10,,,,,,,,8,,,,80,30
120190,note_on,0,0,5,,,,,,,,3,,,,81,45
120190,note_off,40,0,5,,,,,,,,3,,,,80,64
120210,note_on,0,0,10,,,,,,,,8,,,,81,30
120210,note_off,60,0,6,,,,,,,,4,,,,76,64
120210,note_off,60,0,11,,,,,,,,10,,,,76,64
120210,note_off,60,0,10,,,,,,,,8,,,,80,64
120210,note_on,0,0,11,,,,,,,,10,,,,78,30
120210,note_on,0,0,6,,,,,,,,4,,,,78,45
120230,note_off,40,0,5,,,,,,,,3,,,,81,64
120230,note_on,0,0,5,,,,,,,,3,,,,80,45
120270,note_off,40,0,5,,,,,,,,3,,,,80,64
120270,note_on,0,0,5,,,,,,,,3,,,,81,45
120270,note_on,0,0,6,,,,,,,,4,,,,76,45
120270,note_off,60,0,6,,,,,,,,4,,,,78,64
120270,note_off,60,0,11,,,,,,,,10,,,,78,64
120270,note_on,0,0,11,,,,,,,,10,,,,76,30
120270,note_off,60,0,10,,,,,,,,8,,,,81,64
120270,note_on,0,0,10,,,,,,,,8,,,,80,30
120310,note_off,40,0,5,,,,,,,,3,,,,81,64
120310,note_on,0,0,5,,,,,,,,3,,,,80,45
120330,note_on,0,0,6,,,,,,,,4,,,,78,45
120330,note_off,60,0,6,,,,,,,,4,,,,76,64
120330,note_on,0,0,10,,,,,,,,8,,,,81,30
120330,note_off,60,0,11,,,,,,,,10,,,,76,64
120330,note_on,0,0,11,,,,,,,,10,,,,78,30
120330,note_off,60,0,10,,,,,,,,8,,,,80,64
120350,note_on,0,0,5,,,,,,,,3,,,,81,45
120350,note_off,40,0,5,,,,,,,,3,,,,80,64
120390,note_on,0,0,10,,,,,,,,8,,,,80,30
120390,note_off,40,0,5,,,,,,,,3,,,,81,64
120390,note_on,0,0,5,,,,,,,,3,,,,80,45
120390,note_off,60,0,11,,,,,,,,10,,,,78,64
120390,note_on,0,0,11,,,,,,,,10,,,,76,30
120390,note_off,60,0,6,,,,,,,,4,,,,78,64
120390,note_on,0,0,6,,,,,,,,4,,,,76,45
120390,note_off,60,0,10,,,,,,,,8,,,,81,64
120430,note_off,40,0,5,,,,,,,,3,,,,80,64
120430,note_on,0,0,5,,,,,,,,3,,,,81,45
120450,note_off,60,0,11,,,,,,,,10,,,,76,64
120450,note_off,60,0,10,,,,,,,,8,,,,80,64
120450,note_on,0,0,10,,,,,,,,8,,,,81,30
120450,note_on,0,0,11,,,,,,,,10,,,,78,30
120450,note_off,60,0,6,,,,,,,,4,,,,76,64
120450,note_on,0,0,6,,,,,,,,4,,,,78,45
120470,note_on,0,0,5,,,,,,,,3,,,,80,45
120470,note_off,40,0,5,,,,,,,,3,,,,81,64
120510,note_on,0,0,10,,,,,,,,8,,,,80,30
120510,note_off,60,0,10,,,,,,,,8,,,,81,64
120510,note_on,0,0,5,,,,,,,,3,,,,81,45
120510,note_off,40,0,5,,,,,,,,3,,,,80,64
120510,note_on,0,0,11,,,,,,,,10,,,,76,30
120510,note_off,60,0,6,,,,,,,,4,,,,78,64
120510,note_on,0,0,6,,,,,,,,4,,,,76,45
120510,note_off,60,0,11,,,,,,,,10,,,,78,64
120550,note_on,0,0,5,,,,,,,,3,,,,80,45
120550,note_off,40,0,5,,,,,,,,3,,,,81,64
120570,note_on,0,0,10,,,,,,,,8,,,,81,30
120570,note_off,60,0,10,,,,,,,,8,,,,80,64
120570,note_off,60,0,6,,,,,,,,4,,,,76,64
120570,note_on,0,0,11,,,,,,,,10,,,,78,30
120570,note_off,60,0,11,,,,,,,,10,,,,76,64
120570,note_on,0,0,6,,,,,,,,4,,,,78,45
120590,note_off,40,0,5,,,,,,,,3,,,,80,64
120590,note_on,0,0,5,,,,,,,,3,,,,81,45
120630,note_on,0,0,5,,,,,,,,3,,,,80,45
120630,note_off,60,0,10,,,,,,,,8,,,,81,64
120630,note_off,60,0,6,,,,,,,,4,,,,78,64
120630,note_on,0,0,6,,,,,,,,4,,,,76,45
120630,note_on,0,0,11,,,,,,,,10,,,,76,30
120630,note_off,40,0,5,,,,,,,,3,,,,81,64
120630,note_on,0,0,10,,,,,,,,8,,,,80,30
120630,note_off,60,0,11,,,,,,,,10,,,,78,64
120745,note_off,115,0,5,,,,,,,,3,,,,80,64
120745,note_off,115,0,11,,,,,,,,10,,,,76,64
120745,note_off,115,0,10,,,,,,,,8,,,,80,64
120745,note_off,115,0,6,,,,,,,,4,,,,76,64
120750,note_off,600,0,4,,,,,,,,2,,,,85,64
120750,note_on,0,0,4,,,,,,,,2,,,,87,45
120750,note_on,5,0,11,,,,,,,,10,,,,78,30
120750,note_off,600,0,3,,,,,,,,1,,,,85,64
120750,note_on,0,0,3,,,,,,,,1,,,,87,60
120750,note_on,5,0,5,,,,,,,,3,,,,81,45
120750,note_on,5,0,10,,,,,,,,8,,,,81,30
120750,note_on,5,0,6,,,,,,,,4,,,,78,45
120830,note_off,80,0,4,,,,,,,,2,,,,87,64
120830,note_off,80,0,3,,,,,,,,1,,,,87,64
120830,note_off,80,0,5,,,,,,,,3,,,,81,64
120830,note_off,80,0,10,,,,,,,,8,,,,81,64
120830,note_off,80,0,11,,,,,,,,10,,,,78,64
120830,note_off,80,0,6,,,,,,,,4,,,,78,64
120870,note_on,40,0,10,,,,,,,,8,,,,80,30
120870,note_on,40,0,3,,,,,,,,1,,,,85,60
120870,note_on,40,0,4,,,,,,,,2,,,,85,45
120870,note_on,40,0,11,,,,,,,,10,,,,76,30
120870,note_on,40,0,5,,,,,,,,3,,,,80,45
120870,note_on,40,0,6,,,,,,,,4,,,,76,45
120990,note_on,0,0,10,,,,,,,,8,,,,81,30
120990,note_off,120,0,11,,,,,,,,10,,,,76,64
120990,note_on,0,0,6,,,,,,,,4,,,,78,45
120990,note_on,0,0,5,,,,,,,,3,,,,81,45
120990,note_off,120,0,3,,,,,,,,1,,,,85,64
120990,note_on,0,0,3,,,,,,,,1,,,,87,60
120990,note_off,120,0,4,,,,,,,,2,,,,85,64
120990,note_on,0,0,4,,,,,,,,2,,,,87,45
120990,note_on,0,0,11,,,,,,,,10,,,,78,30
120990,note_off,120,0,5,,,,,,,,3,,,,80,64
120990,note_off,120,0,6,,,,,,,,4,,,,76,64
120990,note_off,120,0,10,,,,,,,,8,,,,80,64
121070,note_off,80,0,10,,,,,,,,8,,,,81,64
121070,note_off,80,0,3,,,,,,,,1,,,,87,64
121070,note_off,80,0,11,,,,,,,,10,,,,78,64
121070,note_off,80,0,4,,,,,,,,2,,,,87,64
121070,note_off,80,0,5,,,,,,,,3,,,,81,64
121070,note_off,80,0,6,,,,,,,,4,,,,78,64
121110,note_on,40,0,10,,,,,,,,8,,,,80,30
121110,note_on,40,0,4,,,,,,,,2,,,,85,45
121110,note_on,40,0,3,,,,,,,,1,,,,85,60
121110,note_on,40,0,6,,,,,,,,4,,,,76,45
121110,note_on,40,0,11,,,,,,,,10,,,,76,30
121110,note_on,40,0,5,,,,,,,,3,,,,80,45
121230,note_off,120,0,11,,,,,,,,10,,,,76,64
121230,note_off,120,0,10,,,,,,,,8,,,,80,64
121230,note_on,0,0,6,,,,,,,,4,,,,78,45
121230,note_off,120,0,6,,,,,,,,4,,,,76,64
121230,note_off,120,0,5,,,,,,,,3,,,,80,64
121230,note_on,0,0,10,,,,,,,,8,,,,81,30
121230,note_on,0,0,11,,,,,,,,10,,,,78,30
121230,note_on,0,0,5,,,,,,,,3,,,,81,45
121310,note_off,80,0,5,,,,,,,,3,,,,81,64
121310,note_off,80,0,11,,,,,,,,10,,,,78,64
121310,note_off,80,0,10,,,,,,,,8,,,,81,64
121310,note_off,80,0,6,,,,,,,,4,,,,78,64
121350,note_on,40,0,5,,,,,,,,3,,,,80,45
121350,note_on,40,0,6,,,,,,,,4,,,,76,45
121350,note_on,40,0,11,,,,,,,,10,,,,76,30
121350,note_on,40,0,10,,,,,,,,8,,,,80,30
121470,note_off,120,0,6,,,,,,,,4,,,,76,64
121470,note_off,120,0,5,,,,,,,,3,,,,80,64
121470,note_on,0,0,5,,,,,,,,3,,,,81,45
121470,note_on,0,0,10,,,,,,,,8,,,,81,30
121470,note_on,0,0,6,,,,,,,,4,,,,78,45
121470,note_off,120,0,11,,,,,,,,10,,,,76,64
121470,note_on,0,0,11,,,,,,,,10,,,,78,30
121470,note_off,120,0,10,,,,,,,,8,,,,80,64
121550,note_off,80,0,5,,,,,,,,3,,,,81,64
121550,note_off,80,0,6,,,,,,,,4,,,,78,64
121550,note_off,80,0,10,,,,,,,,8,,,,81,64
121550,note_off,80,0,11,,,,,,,,10,,,,78,64
121590,note_on,40,0,11,,,,,,,,10,,,,76,30
121590,note_on,40,0,5,,,,,,,,3,,,,80,45
121590,note_on,40,0,10,,,,,,,,8,,,,80,30
121590,note_on,40,0,6,,,,,,,,4,,,,76,45
121630,note_off,40,0,5,,,,,,,,3,,,,80,64
121630,note_on,0,0,5,,,,,,,,3,,,,81,45
121650,note_off,60,0,6,,,,,,,,4,,,,76,64
121650,note_on,0,0,10,,,,,,,,8,,,,81,30
121650,note_off,60,0,10,,,,,,,,8,,,,80,64
121650,note_on,0,0,11,,,,,,,,10,,,,78,30
121650,note_off,60,0,11,,,,,,,,10,,,,76,64
121650,note_on,0,0,6,,,,,,,,4,,,,78,45
121670,note_off,40,0,5,,,,,,,,3,,,,81,64
121670,note_on,0,0,5,,,,,,,,3,,,,80,45
121710,note_off,60,0,6,,,,,,,,4,,,,78,64
121710,note_on,0,0,6,,,,,,,,4,,,,76,45
121710,note_on,0,0,11,,,,,,,,10,,,,76,30
121710,note_off,600,0,4,,,,,,,,2,,,,85,64
121710,note_on,0,0,4,,,,,,,,2,,,,87,45
121710,note_off,60,0,11,,,,,,,,10,,,,78,64
121710,note_on,0,0,5,,,,,,,,3,,,,81,45
121710,note_off,40,0,5,,,,,,,,3,,,,80,64
121710,note_off,60,0,10,,,,,,,,8,,,,81,64
121710,note_on,0,0,10,,,,,,,,8,,,,80,30
121710,note_on,0,0,3,,,,,,,,1,,,,87,60
121710,note_off,600,0,3,,,,,,,,1,,,,85,64
121750,note_on,0,0,5,,,,,,,,3,,,,80,45
121750,note_off,40,0,5,,,,,,,,3,,,,81,64
121770,note_on,0,0,10,,,,,,,,8,,,,81,30
121770,note_off,60,0,11,,,,,,,,10,,,,76,64
121770,note_on,0,0,11,,,,,,,,10,,,,78,30
121770,note_on,0,0,6,,,,,,,,4,,,,78,45
121770,note_off,60,0,6,,,,,,,,4,,,,76,64
121770,note_off,60,0,10,,,,,,,,8,,,,80,64
121790,note_off,80,0,4,,,,,,,,2,,,,87,64
121790,note_off,40,0,5,,,,,,,,3,,,,80,64
121790,note_on,0,0,5,,,,,,,,3,,,,81,45
121790,note_off,80,0,3,,,,,,,,1,,,,87,64
121830,note_off,60,0,10,,,,,,,,8,,,,81,64
121830,note_on,0,0,10,,,,,,,,8,,,,80,30
121830,note_on,40,0,3,,,,,,,,1,,,,85,60
121830,note_on,0,0,5,,,,,,,,3,,,,80,45
121830,note_on,0,0,6,,,,,,,,4,,,,76,45
121830,note_off,60,0,6,,,,,,,,4,,,,78,64
121830,note_on,40,0,4,,,,,,,,2,,,,85,45
121830,note_off,60,0,11,,,,,,,,10,,,,78,64
121830,note_on,0,0,11,,,,,,,,10,,,,76,30
121830,note_off,40,0,5,,,,,,,,3,,,,81,64
121870,note_on,0,0,5,,,,,,,,3,,,,81,45
121870,note_off,40,0,5,,,,,,,,3,,,,80,64
121890,note_on,0,0,6,,,,,,,,4,,,,78,45
121890,note_off,60,0,10,,,,,,,,8,,,,80,64
121890,note_off,60,0,6,,,,,,,,4,,,,76,64
121890,note_on,0,0,10,,,,,,,,8,,,,81,30
121890,note_off,60,0,11,,,,,,,,10,,,,76,64
121890,note_on,0,0,11,,,,,,,,10,,,,78,30
121910,note_off,40,0,5,,,,,,,,3,,,,81,64
121910,note_on,0,0,5,,,,,,,,3,,,,80,45
121950,note_on,0,0,4,,,,,,,,2,,,,87,45
121950,note_off,60,0,10,,,,,,,,8,,,,81,64
121950,note_off,120,0,3,,,,,,,,1,,,,85,64
121950,note_off,60,0,6,,,,,,,,4,,,,78,64
121950,note_off,40,0,5,,,,,,,,3,,,,80,64
121950,note_on,0,0,5,,,,,,,,3,,,,81,45
121950,note_on,0,0,6,,,,,,,,4,,,,76,45
121950,note_on,0,0,3,,,,,,,,1,,,,87,60
121950,note_on,0,0,11,,,,,,,,10,,,,76,30
121950,note_on,0,0,10,,,,,,,,8,,,,80,30
121950,note_off,60,0,11,,,,,,,,10,,,,78,64
121950,note_off,120,0,4,,,,,,,,2,,,,85,64
121990,note_on,0,0,5,,,,,,,,3,,,,80,45
121990,note_off,40,0,5,,,,,,,,3,,,,81,64
122010,note_on,0,0,10,,,,,,,,8,,,,81,30
122010,note_off,60,0,6,,,,,,,,4,,,,76,64
122010,note_on,0,0,6,,,,,,,,4,,,,78,45
122010,note_on,0,0,11,,,,,,,,10,,,,78,30
122010,note_off,60,0,11,,,,,,,,10,,,,76,64
122010,note_off,60,0,10,,,,,,,,8,,,,80,64
122030,note_on,0,0,5,,,,,,,,3,,,,81,45
122030,note_off,40,0,5,,,,,,,,3,,,,80,64
122030,note_off,80,0,3,,,,,,,,1,,,,87,64
122030,note_off,80,0,4,,,,,,,,2,,,,87,64
122070,note_on,0,0,6,,,,,,,,4,,,,76,45
122070,note_off,60,0,6,,,,,,,,4,,,,78,64
122070,note_on,40,0,4,,,,,,,,2,,,,85,45
122070,note_off,40,0,5,,,,,,,,3,,,,81,64
122070,note_on,0,0,10,,,,,,,,8,,,,80,30
122070,note_off,60,0,11,,,,,,,,10,,,,78,64
122070,note_off,60,0,10,,,,,,,,8,,,,81,64
122070,note_on,0,0,11,,,,,,,,10,,,,76,30
122070,note_on,40,0,3,,,,,,,,1,,,,85,60
122070,note_on,0,0,5,,,,,,,,3,,,,80,45
122110,note_off,40,0,5,,,,,,,,3,,,,80,64
122110,note_on,0,0,5,,,,,,,,3,,,,81,45
122130,note_on,0,0,6,,,,,,,,4,,,,78,45
122130,note_off,60,0,6,,,,,,,,4,,,,76,64
122130,note_off,60,0,11,,,,,,,,10,,,,76,64
122130,note_on,0,0,10,,,,,,,,8,,,,81,30
122130,note_off,60,0,10,,,,,,,,8,,,,80,64
122130,note_on,0,0,11,,,,,,,,10,,,,78,30
122150,note_off,40,0,5,,,,,,,,3,,,,81,64
122150,note_on,0,0,5,,,,,,,,3,,,,80,45
122190,note_on,0,0,10,,,,,,,,8,,,,80,30
122190,note_on,0,0,5,,,,,,,,3,,,,81,45
122190,note_off,40,0,5,,,,,,,,3,,,,80,64
122190,note_off,60,0,11,,,,,,,,10,,,,78,64
122190,note_on,0,0,11,,,,,,,,10,,,,76,30
122190,note_on,0,0,6,,,,,,,,4,,,,76,45
122190,note_off,60,0,10,,,,,,,,8,,,,81,64
122190,note_off,60,0,6,,,,,,,,4,,,,78,64
122190,note_on,0,0,3,,,,,,,,1,,,,87,60
122190,note_off,120,0,3,,,,,,,,1,,,,85,64
122190,note_on,0,0,4,,,,,,,,2,,,,87,45
122190,note_off,120,0,4,,,,,,,,2,,,,85,64
122230,note_off,40,0,5,,,,,,,,3,,,,81,64
122230,note_on,0,0,5,,,,,,,,3,,,,80,45
122250,note_on,0,0,10,,,,,,,,8,,,,81,30
122250,note_off,60,0,10,,,,,,,,8,,,,80,64
122250,note_on,0,0,6,,,,,,,,4,,,,78,45
122250,note_on,0,0,11,,,,,,,,10,,,,78,30
122250,note_off,60,0,11,,,,,,,,10,,,,76,64
122250,note_off,60,0,6,,,,,,,,4,,,,76,64
122270,note_off,40,0,5,,,,,,,,3,,,,80,64
122270,note_off,80,0,3,,,,,,,,1,,,,87,64
122270,note_off,80,0,4,,,,,,,,2,,,,87,64
122270,note_on,0,0,5,,,,,,,,3,,,,81,45
122310,note_on,0,0,6,,,,,,,,4,,,,76,45
122310,note_on,0,0,11,,,,,,,,10,,,,76,30
122310,note_off,60,0,11,,,,,,,,10,,,,78,64
122310,note_off,60,0,10,,,,,,,,8,,,,81,64
122310,note_on,0,0,10,,,,,,,,8,,,,80,30
122310,note_off,40,0,5,,,,,,,,3,,,,81,64
122310,note_on,40,0,3,,,,,,,,1,,,,85,60
122310,note_on,40,0,4,,,,,,,,2,,,,85,45
122310,note_off,60,0,6,,,,,,,,4,,,,78,64
122310,note_on,0,0,5,,,,,,,,3,,,,80,45
122350,note_off,40,0,5,,,,,,,,3,,,,80,64
122350,note_on,0,0,5,,,,,,,,3,,,,81,45
122370,note_off,60,0,6,,,,,,,,4,,,,76,64
122370,note_on,0,0,6,,,,,,,,4,,,,78,45
122370,note_off,60,0,10,,,,,,,,8,,,,80,64
122370,note_on,0,0,10,,,,,,,,8,,,,81,30
122370,note_off,60,0,11,,,,,,,,10,,,,76,64
122370,note_on,0,0,11,,,,,,,,10,,,,78,30
122390,note_on,0,0,5,,,,,,,,3,,,,80,45
122390,note_off,40,0,5,,,,,,,,3,,,,81,64
122430,note_off,40,0,5,,,,,,,,3,,,,80,64
122430,note_off,60,0,6,,,,,,,,4,,,,78,64
122430,note_on,0,0,5,,,,,,,,3,,,,81,45
122430,note_on,0,0,6,,,,,,,,4,,,,76,45
122430,note_off,120,0,4,,,,,,,,2,,,,85,64
122430,note_on,0,0,4,,,,,,,,2,,,,87,45
122430,note_on,0,0,10,,,,,,,,8,,,,80,30
122430,note_off,60,0,10,,,,,,,,8,,,,81,64
122430,note_on,0,0,11,,,,,,,,10,,,,76,30
122430,note_off,60,0,11,,,,,,,,10,,,,78,64
122430,note_off,120,0,3,,,,,,,,1,,,,85,64
122430,note_on,0,0,3,,,,,,,,1,,,,87,60
122470,note_off,40,0,5,,,,,,,,3,,,,81,64
122470,note_on,0,0,5,,,,,,,,3,,,,80,45
122490,note_on,0,0,10,,,,,,,,8,,,,81,30
122490,note_off,60,0,10,,,,,,,,8,,,,80,64
122490,note_on,0,0,11,,,,,,,,10,,,,78,30
122490,note_off,60,0,6,,,,,,,,4,,,,76,64
122490,note_on,0,0,6,,,,,,,,4,,,,78,45
122490,note_off,60,0,11,,,,,,,,10,,,,76,64
122510,note_off,80,0,3,,,,,,,,1,,,,87,64
122510,note_off,80,0,4,,,,,,,,2,,,,87,64
122510,note_off,40,0,5,,,,,,,,3,,,,80,64
122510,note_on,0,0,5,,,,,,,,3,,,,81,45
122550,note_off,60,0,6,,,,,,,,4,,,,78,64
122550,note_on,40,0,3,,,,,,,,1,,,,85,60
122550,note_on,0,0,6,,,,,,,,4,,,,76,45
122550,note_on,40,0,4,,,,,,,,2,,,,85,45
122550,note_off,60,0,10,,,,,,,,8,,,,81,64
122550,note_on,0,0,10,,,,,,,,8,,,,80,30
122550,note_off,40,0,5,,,,,,,,3,,,,81,64
122550,note_on,0,0,5,,,,,,,,3,,,,80,45
122550,note_off,60,0,11,,,,,,,,10,,,,78,64
122550,note_on,0,0,11,,,,,,,,10,,,,76,30
122590,note_off,40,0,3,,,,,,,,1,,,,85,64
122590,note_on,0,0,3,,,,,,,,1,,,,87,60
122590,note_on,0,0,5,,,,,,,,3,,,,81,45
122590,note_off,40,0,5,,,,,,,,3,,,,80,64
122610,note_on,0,0,10,,,,,,,,8,,,,81,30
122610,note_off,60,0,6,,,,,,,,4,,,,76,64
122610,note_on,0,0,6,,,,,,,,4,,,,78,45
122610,note_off,60,0,11,,,,,,,,10,,,,76,64
122610,note_off,60,0,10,,,,,,,,8,,,,80,64
122610,note_on,0,0,11,,,,,,,,10,,,,78,30
122610,note_on,0,0,4,,,,,,,,2,,,,87,45
122610,note_off,60,0,4,,,,,,,,2,,,,85,64
122630,note_on,0,0,3,,,,,,,,1,,,,85,60
122630,note_off,40,0,5,,,,,,,,3,,,,81,64
122630,note_on,0,0,5,,,,,,,,3,,,,80,45
122630,note_off,40,0,3,,,,,,,,1,,,,87,64
122670,note_off,60,0,11,,,,,,,,10,,,,78,64
122670,note_off,40,0,3,,,,,,,,1,,,,85,64
122670,note_on,0,0,3,,,,,,,,1,,,,87,60
122670,note_off,60,0,10,,,,,,,,8,,,,81,64
122670,note_on,0,0,11,,,,,,,,10,,,,76,30
122670,note_on,0,0,5,,,,,,,,3,,,,81,45
122670,note_on,0,0,4,,,,,,,,2,,,,85,45
122670,note_off,40,0,5,,,,,,,,3,,,,80,64
122670,note_on,0,0,10,,,,,,,,8,,,,80,30
122670,note_on,0,0,6,,,,,,,,4,,,,76,45
122670,note_off,60,0,6,,,,,,,,4,,,,78,64
122670,note_off,60,0,4,,,,,,,,2,,,,87,64
122710,note_on,0,0,5,,,,,,,,3,,,,80,45
122710,note_on,0,0,3,,,,,,,,1,,,,85,60
122710,note_off,40,0,3,,,,,,,,1,,,,87,64
122710,note_off,40,0,5,,,,,,,,3,,,,81,64
122730,note_on,0,0,10,,,,,,,,8,,,,81,30
122730,note_off,60,0,10,,,,,,,,8,,,,80,64
122730,note_on,0,0,11,,,,,,,,10,,,,78,30
122730,note_on,0,0,6,,,,,,,,4,,,,78,45
122730,note_off,60,0,6,,,,,,,,4,,,,76,64
122730,note_off,60,0,4,,,,,,,,2,,,,85,64
122730,note_on,0,0,4,,,,,,,,2,,,,87,45
122730,note_off,60,0,11,,,,,,,,10,,,,76,64
122750,note_off,40,0,3,,,,,,,,1,,,,85,64
122750,note_on,0,0,3,,,,,,,,1,,,,87,60
122750,note_off,40,0,5,,,,,,,,3,,,,80,64
122750,note_on,0,0,5,,,,,,,,3,,,,81,45
122790,note_off,60,0,4,,,,,,,,2,,,,87,64
122790,note_on,0,0,4,,,,,,,,2,,,,85,45
122790,note_on,0,0,10,,,,,,,,8,,,,80,30
122790,note_off,60,0,10,,,,,,,,8,,,,81,64
122790,note_on,0,0,6,,,,,,,,4,,,,76,45
122790,note_off,60,0,6,,,,,,,,4,,,,78,64
122790,note_off,60,0,11,,,,,,,,10,,,,78,64
122790,note_on,0,0,11,,,,,,,,10,,,,76,30
122790,note_on,0,0,3,,,,,,,,1,,,,85,60
122790,note_off,40,0,3,,,,,,,,1,,,,87,64
122790,note_on,0,0,5,,,,,,,,3,,,,80,45
122790,note_off,40,0,5,,,,,,,,3,,,,81,64
122830,note_off,40,0,5,,,,,,,,3,,,,80,64
122830,note_on,0,0,5,,,,,,,,3,,,,81,45
122830,note_off,40,0,3,,,,,,,,1,,,,85,64
122830,note_on,0,0,3,,,,,,,,1,,,,87,60
122850,note_on,0,0,10,,,,,,,,8,,,,81,30
122850,note_off,60,0,10,,,,,,,,8,,,,80,64
122850,note_on,0,0,6,,,,,,,,4,,,,78,45
122850,note_off,60,0,6,,,,,,,,4,,,,76,64
122850,note_off,60,0,4,,,,,,,,2,,,,85,64
122850,note_on,0,0,4,,,,,,,,2,,,,87,45
122850,note_off,60,0,11,,,,,,,,10,,,,76,64
122850,note_on,0,0,11,,,,,,,,10,,,,78,30
122870,note_on,0,0,3,,,,,,,,1,,,,85,60
122870,note_on,0,0,5,,,,,,,,3,,,,80,45
122870,note_off,40,0,5,,,,,,,,3,,,,81,64
122870,note_off,40,0,3,,,,,,,,1,,,,87,64
122910,note_off,60,0,10,,,,,,,,8,,,,81,64
122910,note_on,0,0,10,,,,,,,,8,,,,80,30
122910,note_off,40,0,3,,,,,,,,1,,,,85,64
122910,note_on,0,0,11,,,,,,,,10,,,,76,30
122910,note_on,0,0,3,,,,,,,,1,,,,87,60
122910,note_off,60,0,11,,,,,,,,10,,,,78,64
122910,note_off,40,0,5,,,,,,,,3,,,,80,64
122910,note_on,0,0,5,,,,,,,,3,,,,81,45
122910,note_off,60,0,6,,,,,,,,4,,,,78,64
122910,note_on,0,0,6,,,,,,,,4,,,,76,45
122910,note_off,60,0,4,,,,,,,,2,,,,87,64
122910,note_on,0,0,4,,,,,,,,2,,,,85,45
122950,note_off,40,0,5,,,,,,,,3,,,,81,64
122950,note_on,0,0,5,,,,,,,,3,,,,80,45
122950,note_on,0,0,3,,,,,,,,1,,,,85,60
122950,note_off,40,0,3,,,,,,,,1,,,,87,64
122970,note_on,0,0,11,,,,,,,,10,,,,78,30
122970,note_off,60,0,11,,,,,,,,10,,,,76,64
122970,note_on,0,0,6,,,,,,,,4,,,,78,45
122970,note_off,60,0,4,,,,,,,,2,,,,85,64
122970,note_on,0,0,4,,,,,,,,2,,,,87,45
122970,note_off,60,0,6,,,,,,,,4,,,,76,64
122970,note_off,60,0,10,,,,,,,,8,,,,80,64
122970,note_on,0,0,10,,,,,,,,8,,,,81,30
122990,note_off,40,0,3,,,,,,,,1,,,,85,64
122990,note_off,40,0,5,,,,,,,,3,,,,80,64
122990,note_on,0,0,5,,,,,,,,3,,,,81,45
122990,note_on,0,0,3,,,,,,,,1,,,,87,60
123030,note_on,0,0,11,,,,,,,,10,,,,76,30
123030,note_on,0,0,4,,,,,,,,2,,,,85,45
123030,note_off,60,0,4,,,,,,,,2,,,,87,64
123030,note_on,0,0,3,,,,,,,,1,,,,85,60
123030,note_off,40,0,3,,,,,,,,1,,,,87,64
123030,note_off,40,0,5,,,,,,,,3,,,,81,64
123030,note_off,60,0,11,,,,,,,,10,,,,78,64
123030,note_on,0,0,5,,,,,,,,3,,,,80,45
123030,note_off,60,0,6,,,,,,,,4,,,,78,64
123030,note_off,60,0,10,,,,,,,,8,,,,81,64
123030,note_on,0,0,6,,,,,,,,4,,,,76,45
123030,note_on,0,0,10,,,,,,,,8,,,,80,30
123070,note_off,40,0,5,,,,,,,,3,,,,80,64
123070,note_off,40,0,3,,,,,,,,1,,,,85,64
123070,note_on,0,0,3,,,,,,,,1,,,,87,60
123070,note_on,0,0,5,,,,,,,,3,,,,81,45
123090,note_on,0,0,6,,,,,,,,4,,,,78,45
123090,note_off,60,0,6,,,,,,,,4,,,,76,64
123090,note_on,0,0,4,,,,,,,,2,,,,87,45
123090,note_off,60,0,4,,,,,,,,2,,,,85,64
123090,note_on,0,0,10,,,,,,,,8,,,,81,30
123090,note_off,60,0,11,,,,,,,,10,,,,76,64
123090,note_on,0,0,11,,,,,,,,10,,,,78,30
123090,note_off,60,0,10,,,,,,,,8,,,,80,64
123110,note_on,0,0,5,,,,,,,,3,,,,80,45
123110,note_on,0,0,3,,,,,,,,1,,,,85,60
123110,note_off,40,0,3,,,,,,,,1,,,,87,64
123110,note_off,40,0,5,,,,,,,,3,,,,81,64
123150,note_off,60,0,10,,,,,,,,8,,,,81,64
123150,note_on,0,0,10,,,,,,,,8,,,,80,30
123150,note_off,60,0,11,,,,,,,,10,,,,78,64
123150,note_on,0,0,11,,,,,,,,10,,,,76,30
123150,note_off,60,0,6,,,,,,,,4,,,,78,64
123150,note_on,0,0,6,,,,,,,,4,,,,76,45
123150,note_off,40,0,5,,,,,,,,3,,,,80,64
123150,note_on,0,0,5,,,,,,,,3,,,,81,45
123150,note_off,40,0,3,,,,,,,,1,,,,85,64
123150,note_on,0,0,3,,,,,,,,1,,,,87,60
123150,note_on,0,0,4,,,,,,,,2,,,,85,45
123150,note_off,60,0,4,,,,,,,,2,,,,87,64
123190,note_on,0,0,3,,,,,,,,1,,,,85,60
123190,note_off,40,0,3,,,,,,,,1,,,,87,64
123190,note_off,40,0,5,,,,,,,,3,,,,81,64
123190,note_on,0,0,5,,,,,,,,3,,,,80,45
123210,note_off,60,0,10,,,,,,,,8,,,,80,64
123210,note_on,0,0,10,,,,,,,,8,,,,81,30
123210,note_on,0,0,6,,,,,,,,4,,,,78,45
123210,note_on,0,0,4,,,,,,,,2,,,,87,45
123210,note_off,60,0,4,,,,,,,,2,,,,85,64
123210,note_off,60,0,11,,,,,,,,10,,,,76,64
123210,note_on,0,0,11,,,,,,,,10,,,,78,30
123210,note_off,60,0,6,,,,,,,,4,,,,76,64
123230,note_on,0,0,5,,,,,,,,3,,,,81,45
123230,note_off,40,0,5,,,,,,,,3,,,,80,64
123230,note_on,0,0,3,,,,,,,,1,,,,87,60
123230,note_off,40,0,3,,,,,,,,1,,,,85,64
123270,note_on,0,0,11,,,,,,,,10,,,,76,30
123270,note_on,0,0,5,,,,,,,,3,,,,80,45
123270,note_off,40,0,5,,,,,,,,3,,,,81,64
123270,note_off,60,0,4,,,,,,,,2,,,,87,64
123270,note_on,0,0,4,,,,,,,,2,,,,85,45
123270,note_off,60,0,11,,,,,,,,10,,,,78,64
123270,note_off,40,0,3,,,,,,,,1,,,,87,64
123270,note_off,60,0,6,,,,,,,,4,,,,78,64
123270,note_off,60,0,10,,,,,,,,8,,,,81,64
123270,note_on,0,0,10,,,,,,,,8,,,,80,30
123270,note_on,0,0,6,,,,,,,,4,,,,76,45
123270,note_on,0,0,3,,,,,,,,1,,,,85,60
123310,note_on,0,0,5,,,,,,,,3,,,,81,45
123310,note_on,0,0,3,,,,,,,,1,,,,87,60
123310,note_off,40,0,3,,,,,,,,1,,,,85,64
123310,note_off,40,0,5,,,,,,,,3,,,,80,64
123330,note_on,0,0,11,,,,,,,,10,,,,78,30
123330,note_off,60,0,6,,,,,,,,4,,,,76,64
123330,note_on,0,0,6,,,,,,,,4,,,,78,45
123330,note_on,0,0,4,,,,,,,,2,,,,87,45
123330,note_on,0,0,10,,,,,,,,8,,,,81,30
123330,note_off,60,0,10,,,,,,,,8,,,,80,64
123330,note_off,60,0,4,,,,,,,,2,,,,85,64
123330,note_off,60,0,11,,,,,,,,10,,,,76,64
123350,note_off,40,0,5,,,,,,,,3,,,,81,64
123350,note_on,0,0,5,,,,,,,,3,,,,80,45
123350,note_on,0,0,3,,,,,,,,1,,,,85,60
123350,note_off,40,0,3,,,,,,,,1,,,,87,64
123390,note_off,60,0,4,,,,,,,,2,,,,87,64
123390,note_on,0,0,3,,,,,,,,1,,,,87,60
123390,note_on,0,0,10,,,,,,,,8,,,,80,30
123390,note_on,0,0,4,,,,,,,,2,,,,85,45
123390,note_off,60,0,10,,,,,,,,8,,,,81,64
123390,note_off,40,0,3,,,,,,,,1,,,,85,64
123390,note_off,40,0,5,,,,,,,,3,,,,80,64
123390,note_on,0,0,5,,,,,,,,3,,,,81,45
123390,note_on,0,0,6,,,,,,,,4,,,,76,45
123390,note_off,60,0,11,,,,,,,,10,,,,78,64
123390,note_on,0,0,11,,,,,,,,10,,,,76,30
123390,note_off,60,0,6,,,,,,,,4,,,,78,64
123430,note_off,40,0,5,,,,,,,,3,,,,81,64
123430,note_on,0,0,5,,,,,,,,3,,,,80,45
123430,note_off,40,0,3,,,,,,,,1,,,,87,64
123430,note_on,0,0,3,,,,,,,,1,,,,85,60
123450,note_on,0,0,10,,,,,,,,8,,,,81,30
123450,note_off,60,0,11,,,,,,,,10,,,,76,64
123450,note_on,0,0,11,,,,,,,,10,,,,78,30
123450,note_off,60,0,10,,,,,,,,8,,,,80,64
123450,note_off,60,0,4,,,,,,,,2,,,,85,64
123450,note_on,0,0,6,,,,,,,,4,,,,78,45
123450,note_off,60,0,6,,,,,,,,4,,,,76,64
123450,note_on,0,0,4,,,,,,,,2,,,,87,45
123470,note_off,40,0,5,,,,,,,,3,,,,80,64
123470,note_on,0,0,3,,,,,,,,1,,,,87,60
123470,note_off,40,0,3,,,,,,,,1,,,,85,64
123470,note_on,0,0,5,,,,,,,,3,,,,81,45
123510,note_on,0,0,6,,,,,,,,4,,,,76,45
123510,note_off,60,0,6,,,,,,,,4,,,,78,64
123510,note_off,11520,0,13,,,,,,,,12,,,,49,64
123510,note_on,0,0,5,,,,,,,,3,,,,80,45
123510,note_off,40,0,5,,,,,,,,3,,,,81,64
123510,note_off,11520,0,8,,,,,,,,6,,,,49,64
123510,note_on,0,0,8,,,,,,,,6,,,,49,45
123510,note_on,0,0,10,,,,,,,,8,,,,80,30
123510,note_on,0,0,4,,,,,,,,2,,,,85,45
123510,note_off,60,0,4,,,,,,,,2,,,,87,64
123510,note_off,40,0,3,,,,,,,,1,,,,87,64
123510,note_on,0,0,3,,,,,,,,1,,,,85,60
123510,note_off,60,0,10,,,,,,,,8,,,,81,64
123510,note_off,60,0,11,,,,,,,,10,,,,78,64
123510,note_on,0,0,13,,,,,,,,12,,,,49,30
123510,note_on,0,0,11,,,,,,,,10,,,,76,30
123550,note_off,40,0,5,,,,,,,,3,,,,80,64
123550,note_on,0,0,5,,,,,,,,3,,,,81,45
123550,note_off,40,0,3,,,,,,,,1,,,,85,64
123550,note_on,0,0,3,,,,,,,,1,,,,87,61
123570,note_off,60,0,10,,,,,,,,8,,,,80,64
123570,note_on,0,0,10,,,,,,,,8,,,,81,31
123570,note_off,60,0,6,,,,,,,,4,,,,76,64
123570,note_on,0,0,11,,,,,,,,10,,,,78,31
123570,note_on,0,0,6,,,,,,,,4,,,,78,46
123570,note_off,60,0,11,,,,,,,,10,,,,76,64
123570,note_off,60,0,4,,,,,,,,2,,,,85,64
123570,note_on,0,0,4,,,,,,,,2,,,,87,46
123590,note_on,0,0,5,,,,,,,,3,,,,80,45
123590,note_off,40,0,5,,,,,,,,3,,,,81,64
123590,note_off,40,0,3,,,,,,,,1,,,,87,64
123590,note_on,0,0,3,,,,,,,,1,,,,85,62
123610,note_off,40,0,6,,,,,,,,4,,,,78,64
123610,note_off,40,0,11,,,,,,,,10,,,,78,64
123610,note_off,40,0,4,,,,,,,,2,,,,87,64
123610,note_off,40,0,10,,,,,,,,8,,,,81,64
123630,note_off,40,0,5,,,,,,,,3,,,,80,64
123630,note_on,20,0,6,,,,,,,,4,,,,76,47
123630,note_on,0,0,3,,,,,,,,1,,,,87,63
123630,note_on,0,0,5,,,,,,,,3,,,,81,46
123630,note_on,20,0,4,,,,,,,,2,,,,85,47
123630,note_on,20,0,11,,,,,,,,10,,,,76,32
123630,note_on,20,0,10,,,,,,,,8,,,,80,32
123630,note_off,40,0,3,,,,,,,,1,,,,85,64
123670,note_on,0,0,5,,,,,,,,3,,,,80,47
123670,note_off,40,0,3,,,,,,,,1,,,,87,64
123670,note_on,0,0,3,,,,,,,,1,,,,85,64
123670,note_off,40,0,5,,,,,,,,3,,,,81,64
123690,note_on,0,0,10,,,,,,,,8,,,,81,33
123690,note_off,60,0,4,,,,,,,,2,,,,85,64
123690,note_on,0,0,4,,,,,,,,2,,,,87,48
123690,note_off,60,0,11,,,,,,,,10,,,,76,64
123690,note_off,60,0,10,,,,,,,,8,,,,80,64
123690,note_on,0,0,11,,,,,,,,10,,,,78,33
123690,note_on,0,0,6,,,,,,,,4,,,,78,48
123690,note_off,60,0,6,,,,,,,,4,,,,76,64
123710,note_on,0,0,5,,,,,,,,3,,,,81,48
123710,note_off,40,0,3,,,,,,,,1,,,,85,64
123710,note_on,0,0,3,,,,,,,,1,,,,87,65
123710,note_off,40,0,5,,,,,,,,3,,,,80,64
123730,note_off,40,0,10,,,,,,,,8,,,,81,64
123730,note_off,40,0,4,,,,,,,,2,,,,87,64
123730,note_off,40,0,6,,,,,,,,4,,,,78,64
123730,note_off,40,0,11,,,,,,,,10,,,,78,64
123750,note_on,20,0,6,,,,,,,,4,,,,76,49
123750,note_on,0,0,3,,,,,,,,1,,,,85,66
123750,note_off,40,0,3,,,,,,,,1,,,,87,64
123750,note_on,20,0,4,,,,,,,,2,,,,85,49
123750,note_off,40,0,5,,,,,,,,3,,,,81,64
123750,note_on,0,0,5,,,,,,,,3,,,,80,49
123750,note_on,20,0,10,,,,,,,,8,,,,80,34
123750,note_on,20,0,11,,,,,,,,10,,,,76,34
123790,note_on,0,0,3,,,,,,,,1,,,,87,67
123790,note_off,40,0,3,,,,,,,,1,,,,85,64
123790,note_on,0,0,5,,,,,,,,3,,,,81,50
123790,note_off,40,0,5,,,,,,,,3,,,,80,64
123810,note_off,60,0,6,,,,,,,,4,,,,76,64
123810,note_on,0,0,11,,,,,,,,10,,,,78,35
123810,note_on,0,0,6,,,,,,,,4,,,,78,50
123810,note_on,0,0,10,,,,,,,,8,,,,81,35
123810,note_off,60,0,11,,,,,,,,10,,,,76,64
123810,note_off,60,0,10,,,,,,,,8,,,,80,64
123810,note_on,0,0,4,,,,,,,,2,,,,87,50
123810,note_off,60,0,4,,,,,,,,2,,,,85,64
123830,note_off,40,0,3,,,,,,,,1,,,,87,64
123830,note_on,0,0,3,,,,,,,,1,,,,85,68
123830,note_off,40,0,5,,,,,,,,3,,,,81,64
123830,note_on,0,0,5,,,,,,,,3,,,,80,51
123850,note_off,40,0,11,,,,,,,,10,,,,78,64
123850,note_off,40,0,6,,,,,,,,4,,,,78,64
123850,note_off,40,0,4,,,,,,,,2,,,,87,64
123850,note_off,40,0,10,,,,,,,,8,,,,81,64
123870,note_on,20,0,4,,,,,,,,2,,,,85,51
123870,note_on,20,0,6,,,,,,,,4,,,,76,51
123870,note_on,20,0,10,,,,,,,,8,,,,80,36
123870,note_off,40,0,5,,,,,,,,3,,,,80,64
123870,note_on,0,0,5,,,,,,,,3,,,,81,52
123870,note_on,20,0,11,,,,,,,,10,,,,76,36
123870,note_off,40,0,3,,,,,,,,1,,,,85,64
123870,note_on,0,0,3,,,,,,,,1,,,,87,69
123910,note_off,40,0,5,,,,,,,,3,,,,81,64
123910,note_on,0,0,5,,,,,,,,3,,,,80,53
123910,note_on,0,0,3,,,,,,,,1,,,,85,70
123910,note_off,40,0,3,,,,,,,,1,,,,87,64
123930,note_on,0,0,4,,,,,,,,2,,,,87,52
123930,note_off,60,0,4,,,,,,,,2,,,,85,64
123930,note_on,0,0,11,,,,,,,,10,,,,78,37
123930,note_on,0,0,10,,,,,,,,8,,,,81,37
123930,note_off,60,0,10,,,,,,,,8,,,,80,64
123930,note_on,0,0,6,,,,,,,,4,,,,78,52
123930,note_off,60,0,6,,,,,,,,4,,,,76,64
123930,note_off,60,0,11,,,,,,,,10,,,,76,64
123950,note_off,40,0,3,,,,,,,,1,,,,85,64
123950,note_off,40,0,5,,,,,,,,3,,,,80,64
123950,note_on,0,0,5,,,,,,,,3,,,,81,54
123950,note_on,0,0,3,,,,,,,,1,,,,87,71
123970,note_off,40,0,6,,,,,,,,4,,,,78,64
123970,note_off,40,0,11,,,,,,,,10,,,,78,64
123970,note_off,40,0,4,,,,,,,,2,,,,87,64
123970,note_off,40,0,10,,,,,,,,8,,,,81,64
123990,note_off,40,0,3,,,,,,,,1,,,,87,64
123990,note_on,0,0,3,,,,,,,,1,,,,85,72
123990,note_on,20,0,4,,,,,,,,2,,,,85,53
123990,note_on,20,0,6,,,,,,,,4,,,,76,53
123990,note_on,20,0,10,,,,,,,,8,,,,80,38
123990,note_off,40,0,5,,,,,,,,3,,,,81,64
123990,note_on,0,0,5,,,,,,,,3,,,,80,55
123990,note_on,20,0,11,,,,,,,,10,,,,76,38
124030,note_on,0,0,5,,,,,,,,3,,,,81,56
124030,note_on,0,0,3,,,,,,,,1,,,,87,73
124030,note_off,40,0,3,,,,,,,,1,,,,85,64
124030,note_off,40,0,5,,,,,,,,3,,,,80,64
124050,note_off,60,0,11,,,,,,,,10,,,,76,64
124050,note_off,60,0,10,,,,,,,,8,,,,80,64
124050,note_on,0,0,10,,,,,,,,8,,,,81,39
124050,note_on,0,0,6,,,,,,,,4,,,,78,54
124050,note_off,60,0,6,,,,,,,,4,,,,76,64
124050,note_on,0,0,4,,,,,,,,2,,,,87,54
124050,note_on,0,0,11,,,,,,,,10,,,,78,39
124050,note_off,60,0,4,,,,,,,,2,,,,85,64
124070,note_off,40,0,3,,,,,,,,1,,,,87,64
124070,note_on,0,0,3,,,,,,,,1,,,,85,74
124070,note_off,40,0,5,,,,,,,,3,,,,81,64
124070,note_on,0,0,5,,,,,,,,3,,,,80,57
124090,note_off,40,0,10,,,,,,,,8,,,,81,64
124090,note_off,40,0,11,,,,,,,,10,,,,78,64
124090,note_off,40,0,6,,,,,,,,4,,,,78,64
124090,note_off,40,0,4,,,,,,,,2,,,,87,64
124110,note_on,20,0,6,,,,,,,,4,,,,76,55
124110,note_on,20,0,4,,,,,,,,2,,,,85,55
124110,note_on,20,0,11,,,,,,,,10,,,,76,40
124110,note_on,0,0,5,,,,,,,,3,,,,81,58
124110,note_on,20,0,10,,,,,,,,8,,,,80,40
124110,note_off,40,0,3,,,,,,,,1,,,,85,64
124110,note_on,0,0,3,,,,,,,,1,,,,87,75
124110,note_off,40,0,5,,,,,,,,3,,,,80,64
124150,note_off,40,0,5,,,,,,,,3,,,,81,64
124150,note_on,0,0,3,,,,,,,,1,,,,85,76
124150,note_off,40,0,3,,,,,,,,1,,,,87,64
124150,note_on,0,0,5,,,,,,,,3,,,,80,59
124170,note_on,0,0,4,,,,,,,,2,,,,87,56
124170,note_off,60,0,4,,,,,,,,2,,,,85,64
124170,note_off,60,0,11,,,,,,,,10,,,,76,64
124170,note_on,0,0,11,,,,,,,,10,,,,78,41
124170,note_on,0,0,6,,,,,,,,4,,,,78,56
124170,note_off,60,0,10,,,,,,,,8,,,,80,64
124170,note_off,60,0,6,,,,,,,,4,,,,76,64
124170,note_on,0,0,10,,,,,,,,8,,,,81,41
124190,note_off,40,0,5,,,,,,,,3,,,,80,64
124190,note_on,0,0,5,,,,,,,,3,,,,81,60
124190,note_on,0,0,3,,,,,,,,1,,,,87,77
124190,note_off,40,0,3,,,,,,,,1,,,,85,64
124210,note_off,40,0,4,,,,,,,,2,,,,87,64
124210,note_off,40,0,6,,,,,,,,4,,,,78,64
124210,note_off,40,0,10,,,,,,,,8,,,,81,64
124210,note_off,40,0,11,,,,,,,,10,,,,78,64
124230,note_on,20,0,10,,,,,,,,8,,,,80,42
124230,note_on,0,0,3,,,,,,,,1,,,,85,78
124230,note_on,20,0,11,,,,,,,,10,,,,76,42
124230,note_off,40,0,5,,,,,,,,3,,,,81,64
124230,note_on,0,0,5,,,,,,,,3,,,,80,61
124230,note_off,40,0,3,,,,,,,,1,,,,87,64
124230,note_on,20,0,6,,,,,,,,4,,,,76,57
124230,note_on,20,0,4,,,,,,,,2,,,,85,57
124270,note_on,0,0,3,,,,,,,,1,,,,87,79
124270,note_off,40,0,3,,,,,,,,1,,,,85,64
124270,note_off,40,0,5,,,,,,,,3,,,,80,64
124270,note_on,0,0,5,,,,,,,,3,,,,81,62
124290,note_on,0,0,11,,,,,,,,10,,,,78,43
124290,note_on,0,0,10,,,,,,,,8,,,,81,43
124290,note_on,0,0,6,,,,,,,,4,,,,78,58
124290,note_off,60,0,11,,,,,,,,10,,,,76,64
124290,note_off,60,0,4,,,,,,,,2,,,,85,64
124290,note_off,60,0,10,,,,,,,,8,,,,80,64
124290,note_on,0,0,4,,,,,,,,2,,,,87,58
124290,note_off,60,0,6,,,,,,,,4,,,,76,64
124310,note_off,40,0,5,,,,,,,,3,,,,81,64
124310,note_on,0,0,5,,,,,,,,3,,,,80,63
124310,note_off,40,0,3,,,,,,,,1,,,,87,64
124310,note_on,0,0,3,,,,,,,,1,,,,85,80
124330,note_off,40,0,6,,,,,,,,4,,,,78,64
124330,note_off,40,0,11,,,,,,,,10,,,,78,64
124330,note_off,40,0,10,,,,,,,,8,,,,81,64
124330,note_off,40,0,4,,,,,,,,2,,,,87,64
124350,note_on,20,0,6,,,,,,,,4,,,,76,59
124350,note_on,20,0,4,,,,,,,,2,,,,85,59
124350,note_on,20,0,11,,,,,,,,10,,,,76,44
124350,note_on,0,0,3,,,,,,,,1,,,,87,81
124350,note_on,20,0,10,,,,,,,,8,,,,80,44
124350,note_on,0,0,5,,,,,,,,3,,,,81,64
124350,note_off,40,0,5,,,,,,,,3,,,,80,64
124350,note_off,40,0,3,,,,,,,,1,,,,85,64
124390,note_off,40,0,3,,,,,,,,1,,,,87,64
124390,note_on,0,0,5,,,,,,,,3,,,,80,65
124390,note_off,40,0,5,,,,,,,,3,,,,81,64
124390,note_on,0,0,3,,,,,,,,1,,,,85,82
124410,note_on,0,0,6,,,,,,,,4,,,,78,60
124410,note_off,60,0,6,,,,,,,,4,,,,76,64
124410,note_on,0,0,11,,,,,,,,10,,,,78,45
124410,note_off,60,0,10,,,,,,,,8,,,,80,64
124410,note_on,0,0,10,,,,,,,,8,,,,81,45
124410,note_off,60,0,4,,,,,,,,2,,,,85,64
124410,note_on,0,0,4,,,,,,,,2,,,,87,60
124410,note_off,60,0,11,,,,,,,,10,,,,76,64
124430,note_on,0,0,3,,,,,,,,1,,,,87,83
124430,note_off,40,0,3,,,,,,,,1,,,,85,64
124430,note_on,0,0,5,,,,,,,,3,,,,81,66
124430,note_off,40,0,5,,,,,,,,3,,,,80,64
124450,note_off,40,0,11,,,,,,,,10,,,,78,64
124450,note_off,40,0,4,,,,,,,,2,,,,87,64
124450,note_off,40,0,6,,,,,,,,4,,,,78,64
124450,note_off,40,0,10,,,,,,,,8,,,,81,64
124470,note_on,20,0,6,,,,,,,,4,,,,76,61
124470,note_on,0,0,3,,,,,,,,1,,,,85,84
124470,note_off,40,0,3,,,,,,,,1,,,,87,64
124470,note_on,20,0,11,,,,,,,,10,,,,76,46
124470,note_on,20,0,4,,,,,,,,2,,,,85,62
124470,note_on,20,0,10,,,,,,,,8,,,,80,46
124470,note_off,40,0,5,,,,,,,,3,,,,81,64
124470,note_on,0,0,5,,,,,,,,3,,,,80,67
124510,note_off,40,0,5,,,,,,,,3,,,,80,64
124510,note_on,0,0,3,,,,,,,,1,,,,87,85
124510,note_on,0,0,5,,,,,,,,3,,,,81,68
124510,note_off,40,0,3,,,,,,,,1,,,,85,64
124530,note_off,60,0,10,,,,,,,,8,,,,80,64
124530,note_off,60,0,6,,,,,,,,4,,,,76,64
124530,note_on,0,0,10,,,,,,,,8,,,,81,47
124530,note_off,60,0,11,,,,,,,,10,,,,76,64
124530,note_on,0,0,11,,,,,,,,10,,,,78,47
124530,note_on,0,0,6,,,,,,,,4,,,,78,62
124530,note_on,0,0,4,,,,,,,,2,,,,87,64
124530,note_off,60,0,4,,,,,,,,2,,,,85,64
124550,note_off,40,0,5,,,,,,,,3,,,,81,64
124550,note_on,0,0,3,,,,,,,,1,,,,85,86
124550,note_on,0,0,5,,,,,,,,3,,,,80,69
124550,note_off,40,0,3,,,,,,,,1,,,,87,64
124570,note_off,40,0,6,,,,,,,,4,,,,78,64
124570,note_off,40,0,10,,,,,,,,8,,,,81,64
124570,note_off,40,0,11,,,,,,,,10,,,,78,64
124590,note_on,0,0,3,,,,,,,,1,,,,87,87
124590,note_off,40,0,3,,,,,,,,1,,,,85,64
124590,note_on,20,0,11,,,,,,,,10,,,,76,48
124590,note_off,40,0,5,,,,,,,,3,,,,80,64
124590,note_off,60,0,4,,,,,,,,2,,,,87,64
124590,note_on,20,0,6,,,,,,,,4,,,,76,64
124590,note_on,20,0,10,,,,,,,,8,,,,80,48
124590,note_on,0,0,5,,,,,,,,3,,,,81,70
124590,note_on,0,0,4,,,,,,,,2,,,,85,66
124630,note_off,40,0,5,,,,,,,,3,,,,81,64
124630,note_on,0,0,3,,,,,,,,1,,,,85,88
124630,note_off,40,0,3,,,,,,,,1,,,,87,64
124630,note_on,0,0,5,,,,,,,,3,,,,80,71
124650,note_on,0,0,11,,,,,,,,10,,,,78,49
124650,note_on,0,0,4,,,,,,,,2,,,,87,68
124650,note_off,60,0,4,,,,,,,,2,,,,85,64
124650,note_off,60,0,10,,,,,,,,8,,,,80,64
124650,note_on,0,0,10,,,,,,,,8,,,,81,49
124650,note_off,60,0,11,,,,,,,,10,,,,76,64
124650,note_on,0,0,6,,,,,,,,4,,,,78,66
124650,note_off,60,0,6,,,,,,,,4,,,,76,64
124670,note_off,40,0,3,,,,,,,,1,,,,85,64
124670,note_off,40,0,5,,,,,,,,3,,,,80,64
124670,note_on,0,0,3,,,,,,,,1,,,,87,89
124670,note_on,0,0,5,,,,,,,,3,,,,81,72
124690,note_off,40,0,11,,,,,,,,10,,,,78,64
124690,note_off,40,0,10,,,,,,,,8,,,,81,64
124690,note_off,40,0,6,,,,,,,,4,,,,78,64
124710,note_off,60,0,4,,,,,,,,2,,,,87,64
124710,note_on,20,0,10,,,,,,,,8,,,,80,51
124710,note_off,40,0,3,,,,,,,,1,,,,87,64
124710,note_on,0,0,3,,,,,,,,1,,,,85,90
124710,note_on,0,0,5,,,,,,,,3,,,,80,73
124710,note_off,40,0,5,,,,,,,,3,,,,81,64
124710,note_on,0,0,4,,,,,,,,2,,,,85,70
124710,note_on,20,0,11,,,,,,,,10,,,,76,51
124710,note_on,20,0,6,,,,,,,,4,,,,76,68
124750,note_on,0,0,5,,,,,,,,3,,,,81,74
124750,note_off,40,0,3,,,,,,,,1,,,,85,64
124750,note_off,40,0,5,,,,,,,,3,,,,80,64
124750,note_on,0,0,3,,,,,,,,1,,,,87,91
124770,note_on,0,0,6,,,,,,,,4,,,,78,70
124770,note_off,60,0,6,,,,,,,,4,,,,76,64
124770,note_on,0,0,4,,,,,,,,2,,,,87,72
124770,note_on,0,0,10,,,,,,,,8,,,,81,53
124770,note_off,60,0,4,,,,,,,,2,,,,85,64
124770,note_off,60,0,11,,,,,,,,10,,,,76,64
124770,note_on,0,0,11,,,,,,,,10,,,,78,53
124770,note_off,60,0,10,,,,,,,,8,,,,80,64
124790,note_on,0,0,3,,,,,,,,1,,,,85,92
124790,note_on,0,0,5,,,,,,,,3,,,,80,75
124790,note_off,40,0,5,,,,,,,,3,,,,81,64
124790,note_off,40,0,3,,,,,,,,1,,,,87,64
124810,note_off,40,0,6,,,,,,,,4,,,,78,64
124810,note_off,40,0,10,,,,,,,,8,,,,81,64
124810,note_off,40,0,11,,,,,,,,10,,,,78,64
124830,note_on,0,0,3,,,,,,,,1,,,,87,93
124830,note_on,0,0,5,,,,,,,,3,,,,81,76
124830,note_off,40,0,5,,,,,,,,3,,,,80,64
124830,note_on,20,0,6,,,,,,,,4,,,,76,72
124830,note_on,20,0,11,,,,,,,,10,,,,76,55
124830,note_off,40,0,3,,,,,,,,1,,,,85,64
124830,note_on,20,0,10,,,,,,,,8,,,,80,55
124830,note_off,60,0,4,,,,,,,,2,,,,87,64
124830,note_on,0,0,4,,,,,,,,2,,,,85,74
124870,note_on,0,0,3,,,,,,,,1,,,,85,94
124870,note_off,40,0,3,,,,,,,,1,,,,87,64
124870,note_on,0,0,5,,,,,,,,3,,,,80,77
124870,note_off,40,0,5,,,,,,,,3,,,,81,64
124890,note_on,0,0,6,,,,,,,,4,,,,78,74
124890,note_on,0,0,10,,,,,,,,8,,,,81,57
124890,note_off,60,0,10,,,,,,,,8,,,,80,64
124890,note_off,60,0,4,,,,,,,,2,,,,85,64
124890,note_on,0,0,4,,,,,,,,2,,,,87,76
124890,note_on,0,0,11,,,,,,,,10,,,,78,57
124890,note_off,60,0,6,,,,,,,,4,,,,76,64
124890,note_off,60,0,11,,,,,,,,10,,,,76,64
124910,note_off,40,0,5,,,,,,,,3,,,,80,64
124910,note_on,0,0,5,,,,,,,,3,,,,81,78
124910,note_off,40,0,3,,,,,,,,1,,,,85,64
124910,note_on,0,0,3,,,,,,,,1,,,,87,95
124930,note_off,40,0,11,,,,,,,,10,,,,78,64
124930,note_off,40,0,6,,,,,,,,4,,,,78,64
124930,note_off,40,0,10,,,,,,,,8,,,,81,64
124950,note_on,20,0,10,,,,,,,,8,,,,80,59
124950,note_off,60,0,4,,,,,,,,2,,,,87,64
124950,note_on,20,0,11,,,,,,,,10,,,,76,59
124950,note_on,20,0,6,,,,,,,,4,,,,76,76
124950,note_on,0,0,4,,,,,,,,2,,,,85,78
124950,note_off,40,0,5,,,,,,,,3,,,,81,64
124950,note_off,40,0,3,,,,,,,,1,,,,87,64
124950,note_on,0,0,3,,,,,,,,1,,,,85,96
124950,note_on,0,0,5,,,,,,,,3,,,,80,79
124990,note_on,0,0,3,,,,,,,,1,,,,87,97
124990,note_off,40,0,3,,,,,,,,1,,,,85,64
124990,note_on,0,0,5,,,,,,,,3,,,,81,80
124990,note_off,40,0,5,,,,,,,,3,,,,80,64
125010,note_on,0,0,4,,,,,,,,2,,,,87,80
125010,note_off,60,0,10,,,,,,,,8,,,,80,64
125010,note_on,0,0,10,,,,,,,,8,,,,81,61
125010,note_off,60,0,11,,,,,,,,10,,,,76,64
125010,note_off,60,0,4,,,,,,,,2,,,,85,64
125010,note_off,60,0,6,,,,,,,,4,,,,76,64
125010,note_on,0,0,11,,,,,,,,10,,,,78,61
125010,note_on,0,0,6,,,,,,,,4,,,,78,78
125030,note_off,40,0,5,,,,,,,,3,,,,81,64
125030,note_off,40,0,3,,,,,,,,1,,,,87,64
125030,note_on,0,0,3,,,,,,,,1,,,,85,98
125030,note_on,0,0,5,,,,,,,,3,,,,80,81
125050,note_off,40,0,6,,,,,,,,4,,,,78,64
125050,note_off,40,0,10,,,,,,,,8,,,,81,64
125050,note_off,40,0,11,,,,,,,,10,,,,78,64
125070,note_on,20,0,10,,,,,,,,8,,,,80,63
125070,note_on,0,0,3,,,,,,,,1,,,,87,99
125070,note_on,0,0,4,,,,,,,,2,,,,85,82
125070,note_on,0,0,5,,,,,,,,3,,,,81,82
125070,note_off,40,0,5,,,,,,,,3,,,,80,64
125070,note_off,60,0,4,,,,,,,,2,,,,87,64
125070,note_on,20,0,6,,,,,,,,4,,,,76,80
125070,note_on,20,0,11,,,,,,,,10,,,,76,63
125070,note_off,40,0,3,,,,,,,,1,,,,85,64
125110,note_on,0,0,5,,,,,,,,3,,,,80,83
125110,note_off,40,0,5,,,,,,,,3,,,,81,64
125110,note_on,0,0,3,,,,,,,,1,,,,85,100
125110,note_off,40,0,3,,,,,,,,1,,,,87,64
125130,note_off,60,0,6,,,,,,,,4,,,,76,64
125130,note_on,0,0,10,,,,,,,,8,,,,81,65
125130,note_off,60,0,10,,,,,,,,8,,,,80,64
125130,note_off,60,0,11,,,,,,,,10,,,,76,64
125130,note_off,60,0,4,,,,,,,,2,,,,85,64
125130,note_on,0,0,4,,,,,,,,2,,,,87,84
125130,note_on,0,0,6,,,,,,,,4,,,,78,82
125130,note_on,0,0,11,,,,,,,,10,,,,78,65
125150,note_off,40,0,5,,,,,,,,3,,,,80,64
125150,note_on,0,0,5,,,,,,,,3,,,,81,84
125150,note_on,0,0,3,,,,,,,,1,,,,87,101
125150,note_off,40,0,3,,,,,,,,1,,,,85,64
125170,note_off,40,0,11,,,,,,,,10,,,,78,64
125170,note_off,40,0,10,,,,,,,,8,,,,81,64
125170,note_off,40,0,6,,,,,,,,4,,,,78,64
125190,note_off,40,0,5,,,,,,,,3,,,,81,64
125190,note_on,0,0,5,,,,,,,,3,,,,80,85
125190,note_off,60,0,4,,,,,,,,2,,,,87,64
125190,note_on,20,0,10,,,,,,,,8,,,,80,67
125190,note_on,0,0,3,,,,,,,,1,,,,85,102
125190,note_on,20,0,6,,,,,,,,4,,,,76,84
125190,note_on,20,0,11,,,,,,,,10,,,,76,67
125190,note_off,40,0,3,,,,,,,,1,,,,87,64
125190,note_on,0,0,4,,,,,,,,2,,,,85,86
125230,note_off,40,0,3,,,,,,,,1,,,,85,64
125230,note_on,0,0,3,,,,,,,,1,,,,87,103
125230,note_on,0,0,5,,,,,,,,3,,,,81,86
125230,note_off,40,0,5,,,,,,,,3,,,,80,64
125250,note_on,0,0,6,,,,,,,,4,,,,78,86
125250,note_off,60,0,6,,,,,,,,4,,,,76,64
125250,note_off,60,0,4,,,,,,,,2,,,,85,64
125250,note_on,0,0,4,,,,,,,,2,,,,87,88
125250,note_on,0,0,10,,,,,,,,8,,,,81,69
125250,note_on,0,0,11,,,,,,,,10,,,,78,69
125250,note_off,60,0,10,,,,,,,,8,,,,80,64
125250,note_off,60,0,11,,,,,,,,10,,,,76,64
125270,note_off,40,0,5,,,,,,,,3,,,,81,64
125270,note_on,0,0,5,,,,,,,,3,,,,80,87
125270,note_on,0,0,3,,,,,,,,1,,,,85,104
125270,note_off,40,0,3,,,,,,,,1,,,,87,64
125290,note_off,40,0,10,,,,,,,,8,,,,81,64
125290,note_off,40,0,6,,,,,,,,4,,,,78,64
125290,note_off,40,0,11,,,,,,,,10,,,,78,64
125310,note_on,0,0,4,,,,,,,,2,,,,85,90
125310,note_off,1800,0,13,,,,,,,,12,,,,49,64
125310,note_on,20,0,10,,,,,,,,8,,,,80,71
125310,note_off,60,0,4,,,,,,,,2,,,,87,64
125310,note_on,0,0,3,,,,,,,,1,,,,87,105
125310,note_off,1800,0,8,,,,,,,,6,,,,49,64
125310,note_on,20,0,6,,,,,,,,4,,,,76,88
125310,note_on,20,0,11,,,,,,,,10,,,,76,71
125310,note_off,40,0,3,,,,,,,,1,,,,85,64
125310,note_off,40,0,5,,,,,,,,3,,,,80,64
125310,note_on,0,0,5,,,,,,,,3,,,,81,88
125350,note_off,40,0,5,,,,,,,,3,,,,81,64
125350,note_on,0,0,5,,,,,,,,3,,,,80,89
125350,note_off,40,0,3,,,,,,,,1,,,,87,64
125350,note_on,0,0,3,,,,,,,,1,,,,85,106
125370,note_on,0,0,10,,,,,,,,8,,,,81,73
125370,note_on,0,0,6,,,,,,,,4,,,,78,90
125370,note_on,0,0,4,,,,,,,,2,,,,87,92
125370,note_off,60,0,4,,,,,,,,2,,,,85,64
125370,note_off,60,0,10,,,,,,,,8,,,,80,64
125370,note_on,0,0,11,,,,,,,,10,,,,78,73
125370,note_off,60,0,6,,,,,,,,4,,,,76,64
125370,note_off,60,0,11,,,,,,,,10,,,,76,64
125390,note_on,0,0,3,,,,,,,,1,,,,87,108
125390,note_off,40,0,3,,,,,,,,1,,,,85,64
125390,note_on,0,0,5,,,,,,,,3,,,,81,90
125390,note_off,40,0,5,,,,,,,,3,,,,80,64
125410,note_off,40,0,11,,,,,,,,10,,,,78,64
125410,note_off,40,0,10,,,,,,,,8,,,,81,64
125410,note_off,40,0,6,,,,,,,,4,,,,78,64
125425,note_off,55,0,4,,,,,,,,2,,,,87,64
125430,note_off,40,0,3,,,,,,,,1,,,,87,64
125430,note_on,120,0,8,,,,,,,,6,,,,49,75
125430,note_on,13040,0,1,,,,,,,,0,,,,76,60
125430,note_on,0,0,1,,,,,,,,0,,,,80,60
125430,note_on,20,0,11,,,,,,,,10,,,,76,75
125430,note_on,20,0,10,,,,,,,,8,,,,80,75
125430,note_on,120,0,13,,,,,,,,12,,,,49,75
125430,note_on,13040,0,2,,,,,,,,0,,,,49,60
125430,note_on,13040,0,7,,,,,,,,5,,,,64,75
125430,note_on,13040,0,9,,,,,,,,7,,,,37,75
125430,note_on,13040,0,12,,,,,,,,11,,,,64,75
125430,note_off,40,0,5,,,,,,,,3,,,,81,64
125430,note_on,0,0,5,,,,,,,,3,,,,80,92
125430,note_on,20,0,6,,,,,,,,4,,,,76,92
125430,note_on,0,0,2,,,,,,,,0,,,,61,60
125510,note_off,80,0,13,,,,,,,,12,,,,49,64
125510,note_off,0,0,2,,,,,,,,0,,,,49,64
125510,note_off,80,0,2,,,,,,,,0,,,,61,64
125510,note_off,80,0,11,,,,,,,,10,,,,76,64
125510,note_off,80,0,10,,,,,,,,8,,,,80,64
125510,note_off,0,0,1,,,,,,,,0,,,,76,64
125510,note_off,80,0,7,,,,,,,,5,,,,64,64
125510,note_off,80,0,9,,,,,,,,7,,,,37,64
125510,note_off,80,0,8,,,,,,,,6,,,,49,64
125510,note_off,80,0,12,,,,,,,,11,,,,64,64
125510,note_off,80,0,6,,,,,,,,4,,,,76,64
125510,note_off,80,0,5,,,,,,,,3,,,,80,64
125510,note_off,80,0,1,,,,,,,,0,,,,80,64
125670,note_on,160,0,10,,,,,,,,8,,,,80,75
125670,note_on,160,0,5,,,,,,,,3,,,,80,92
125670,note_on,160,0,9,,,,,,,,7,,,,37,75
125670,note_on,160,0,1,,,,,,,,0,,,,76,60
125670,note_on,0,0,1,,,,,,,,0,,,,80,60
125670,note_on,160,0,13,,,,,,,,12,,,,49,75
125670,note_on,160,0,8,,,,,,,,6,,,,49,75
125670,note_on,160,0,12,,,,,,,,11,,,,64,75
125670,note_on,160,0,7,,,,,,,,5,,,,64,75
125670,note_on,160,0,11,,,,,,,,10,,,,76,75
125670,note_on,160,0,6,,,,,,,,4,,,,76,92
125670,note_on,160,0,2,,,,,,,,0,,,,49,60
125670,note_on,0,0,2,,,,,,,,0,,,,61,60
125750,note_off,80,0,11,,,,,,,,10,,,,76,64
125750,note_off,80,0,10,,,,,,,,8,,,,80,64
125750,note_off,0,0,1,,,,,,,,0,,,,76,64
125750,note_off,80,0,1,,,,,,,,0,,,,80,64
125750,note_off,80,0,2,,,,,,,,0,,,,61,64
125750,note_off,80,0,13,,,,,,,,12,,,,49,64
125750,note_off,80,0,8,,,,,,,,6,,,,49,64
125750,note_off,80,0,5,,,,,,,,3,,,,80,64
125750,note_off,0,0,2,,,,,,,,0,,,,49,64
125750,note_off,80,0,9,,,,,,,,7,,,,37,64
125750,note_off,80,0,7,,,,,,,,5,,,,64,64
125750,note_off,80,0,12,,,,,,,,11,,,,64,64
125750,note_off,80,0,6,,,,,,,,4,,,,76,64
125760,note_on,13040,0,14,,,,,,,,13,,,,37,75
125760,note_on,13040,0,15,,,,,,,,14,,,,37,75
125840,note_off,80,0,15,,,,,,,,14,,,,37,64
125840,note_off,80,0,14,,,,,,,,13,,,,37,64
125910,note_on,160,0,1,,,,,,,,0,,,,76,60
125910,note_on,160,0,8,,,,,,,,6,,,,49,75
125910,note_on,160,0,5,,,,,,,,3,,,,80,92
125910,note_on,160,0,12,,,,,,,,11,,,,64,75
125910,note_on,160,0,10,,,,,,,,8,,,,80,75
125910,note_on,0,0,1,,,,,,,,0,,,,80,60
125910,note_on,160,0,6,,,,,,,,4,,,,76,92
125910,note_on,0,0,2,,,,,,,,0,,,,61,60
125910,note_on,160,0,11,,,,,,,,10,,,,76,75
125910,note_on,160,0,7,,,,,,,,5,,,,64,75
125910,note_on,160,0,9,,,,,,,,7,,,,37,75
125910,note_on,160,0,13,,,,,,,,12,,,,49,75
125910,note_on,160,0,2,,,,,,,,0,,,,49,60
125940,note_on,0,0,10,,,,,,,,8,,,,81,75
125940,note_on,0,0,11,,,,,,,,10,,,,78,75
125940,note_on,0,0,5,,,,,,,,3,,,,81,92
125940,note_off,30,0,6,,,,,,,,4,,,,76,64
125940,note_off,30,0,11,,,,,,,,10,,,,76,64
125940,note_on,0,0,6,,,,,,,,4,,,,78,92
125940,note_off,30,0,5,,,,,,,,3,,,,80,64
125940,note_off,30,0,10,,,,,,,,8,,,,80,64
125970,note_off,30,0,11,,,,,,,,10,,,,78,64
125970,note_on,0,0,11,,,,,,,,10,,,,76,75
125970,note_on,0,0,6,,,,,,,,4,,,,76,92
125970,note_off,30,0,10,,,,,,,,8,,,,81,64
125970,note_on,0,0,10,,,,,,,,8,,,,80,75
125970,note_on,0,0,5,,,,,,,,3,,,,80,92
125970,note_off,30,0,6,,,,,,,,4,,,,78,64
125970,note_off,30,0,5,,,,,,,,3,,,,81,64
125990,note_off,80,0,9,,,,,,,,7,,,,37,64
125990,note_off,80,0,8,,,,,,,,6,,,,49,64
125990,note_off,80,0,7,,,,,,,,5,,,,64,64
125990,note_off,80,0,2,,,,,,,,0,,,,61,64
125990,note_off,0,0,2,,,,,,,,0,,,,49,64
125990,note_off,80,0,1,,,,,,,,0,,,,80,64
125990,note_off,0,0,1,,,,,,,,0,,,,76,64
125990,note_off,80,0,13,,,,,,,,12,,,,49,64
125990,note_off,80,0,12,,,,,,,,11,,,,64,64
126000,note_on,0,0,11,,,,,,,,10,,,,78,75
126000,note_off,30,0,5,,,,,,,,3,,,,80,64
126000,note_on,160,0,15,,,,,,,,14,,,,37,75
126000,note_on,0,0,6,,,,,,,,4,,,,78,92
126000,note_on,160,0,14,,,,,,,,13,,,,37,75
126000,note_off,30,0,6,,,,,,,,4,,,,76,64
126000,note_off,30,0,10,,,,,,,,8,,,,80,64
126000,note_on,0,0,10,,,,,,,,8,,,,81,75
126000,note_off,30,0,11,,,,,,,,10,,,,76,64
126000,note_on,0,0,5,,,,,,,,3,,,,81,92
126030,note_on,0,0,10,,,,,,,,8,,,,80,75
126030,note_off,30,0,6,,,,,,,,4,,,,78,64
126030,note_on,0,0,5,,,,,,,,3,,,,80,92
126030,note_on,0,0,6,,,,,,,,4,,,,76,92
126030,note_off,30,0,10,,,,,,,,8,,,,81,64
126030,note_off,30,0,5,,,,,,,,3,,,,81,64
126030,note_on,0,0,11,,,,,,,,10,,,,76,75
126030,note_off,30,0,11,,,,,,,,10,,,,78,64
126060,note_on,0,0,5,,,,,,,,3,,,,81,92
126060,note_off,30,0,10,,,,,,,,8,,,,80,64
126060,note_off,30,0,5,,,,,,,,3,,,,80,64
126060,note_off,30,0,11,,,,,,,,10,,,,76,64
126060,note_off,30,0,6,,,,,,,,4,,,,76,64
126060,note_on,0,0,6,,,,,,,,4,,,,78,92
126060,note_on,0,0,11,,,,,,,,10,,,,78,75
126060,note_on,0,0,10,,,,,,,,8,,,,81,75
126080,note_off,80,0,14,,,,,,,,13,,,,37,64
126080,note_off,80,0,15,,,,,,,,14,,,,37,64
126090,note_off,30,0,11,,,,,,,,10,,,,78,64
126090,note_on,0,0,11,,,,,,,,10,,,,76,75
126090,note_on,0,0,5,,,,,,,,3,,,,80,92
126090,note_on,0,0,6,,,,,,,,4,,,,76,92
126090,note_off,30,0,5,,,,,,,,3,,,,81,64
126090,note_off,30,0,6,,,,,,,,4,,,,78,64
126090,note_on,0,0,10,,,,,,,,8,,,,80,75
126090,note_off,30,0,10,,,,,,,,8,,,,81,64
126130,note_off,40,0,5,,,,,,,,3,,,,80,64
126130,note_off,40,0,11,,,,,,,,10,,,,76,64
126130,note_off,40,0,6,,,,,,,,4,,,,76,64
126130,note_off,40,0,10,,,,,,,,8,,,,80,64
126150,note_on,160,0,2,,,,,,,,0,,,,49,60
126150,note_on,20,0,5,,,,,,,,3,,,,78,92
126150,note_on,160,0,12,,,,,,,,11,,,,64,75
126150,note_on,20,0,10,,,,,,,,8,,,,78,75
126150,note_on,20,0,11,,,,,,,,10,,,,75,75
126150,note_on,0,0,2,,,,,,,,0,,,,61,60
126150,note_on,20,0,6,,,,,,,,4,,,,75,92
126150,note_on,160,0,9,,,,,,,,7,,,,37,75
126150,note_on,160,0,7,,,,,,,,5,,,,64,75
126150,note_on,160,0,13,,,,,,,,12,,,,49,75
126150,note_on,160,0,8,,,,,,,,6,,,,49,75
126150,note_on,160,0,1,,,,,,,,0,,,,76,60
126150,note_on,0,0,1,,,,,,,,0,,,,80,60
126230,note_off,80,0,2,,,,,,,,0,,,,61,64
126230,note_off,80,0,8,,,,,,,,6,,,,49,64
126230,note_off,80,0,7,,,,,,,,5,,,,64,64
126230,note_off,0,0,1,,,,,,,,0,,,,76,64
126230,note_off,80,0,1,,,,,,,,0,,,,80,64
126230,note_off,80,0,9,,,,,,,,7,,,,37,64
126230,note_off,80,0,5,,,,,,,,3,,,,78,64
126230,note_off,80,0,12,,,,,,,,11,,,,64,64
126230,note_off,0,0,2,,,,,,,,0,,,,49,64
126230,note_off,80,0,11,,,,,,,,10,,,,75,64
126230,note_off,80,0,10,,,,,,,,8,,,,78,64
126230,note_off,80,0,6,,,,,,,,4,,,,75,64
126230,note_off,80,0,13,,,,,,,,12,,,,49,64
126240,note_on,160,0,15,,,,,,,,14,,,,37,75
126240,note_on,160,0,14,,,,,,,,13,,,,37,75
126270,note_on,40,0,10,,,,,,,,8,,,,80,75
126270,note_on,40,0,11,,,,,,,,10,,,,76,75
126270,note_on,40,0,5,,,,,,,,3,,,,80,92
126270,note_on,40,0,6,,,,,,,,4,,,,76,92
126320,note_off,80,0,14,,,,,,,,13,,,,37,64
126320,note_off,80,0,15,,,,,,,,14,,,,37,64
126350,note_off,80,0,5,,,,,,,,3,,,,80,64
126350,note_off,80,0,11,,,,,,,,10,,,,76,64
126350,note_off,80,0,10,,,,,,,,8,,,,80,64
126350,note_off,80,0,6,,,,,,,,4,,,,76,64
126390,note_on,160,0,1,,,,,,,,0,,,,78,60
126390,note_on,40,0,5,,,,,,,,3,,,,81,92
126390,note_on,160,0,7,,,,,,,,5,,,,61,75
126390,note_on,160,0,9,,,,,,,,7,,,,42,75
126390,note_on,40,0,10,,,,,,,,8,,,,81,75
126390,note_on,160,0,13,,,,,,,,12,,,,54,75
126390,note_on,40,0,11,,,,,,,,10,,,,78,75
126390,note_on,160,0,8,,,,,,,,6,,,,54,75
126390,note_on,160,0,12,,,,,,,,11,,,,61,75
126390,note_on,40,0,6,,,,,,,,4,,,,78,92
126390,note_on,0,0,1,,,,,,,,0,,,,81,60
126390,note_on,160,0,2,,,,,,,,0,,,,42,60
126390,note_on,0,0,2,,,,,,,,0,,,,54,60
126470,note_off,80,0,13,,,,,,,,12,,,,54,64
126470,note_off,80,0,12,,,,,,,,11,,,,61,64
126470,note_off,80,0,8,,,,,,,,6,,,,54,64
126470,note_off,80,0,7,,,,,,,,5,,,,61,64
126470,note_off,80,0,9,,,,,,,,7,,,,42,64
126470,note_off,80,0,2,,,,,,,,0,,,,54,64
126470,note_off,0,0,2,,,,,,,,0,,,,42,64
126480,note_on,160,0,14,,,,,,,,13,,,,37,75
126480,note_on,160,0,15,,,,,,,,14,,,,37,75
126560,note_off,80,0,14,,,,,,,,13,,,,37,64
126560,note_off,80,0,15,,,,,,,,14,,,,37,64
126630,note_on,160,0,12,,,,,,,,11,,,,61,75
126630,note_on,160,0,13,,,,,,,,12,,,,54,75
126630,note_on,160,0,9,,,,,,,,7,,,,42,75
126630,note_on,160,0,7,,,,,,,,5,,,,61,75
126630,note_on,0,0,2,,,,,,,,0,,,,54,60
126630,note_on,160,0,2,,,,,,,,0,,,,42,60
126630,note_on,160,0,8,,,,,,,,6,,,,54,75
126710,note_off,0,0,2,,,,,,,,0,,,,42,64
126710,note_off,80,0,9,,,,,,,,7,,,,42,64
126710,note_off,80,0,2,,,,,,,,0,,,,54,64
126710,note_off,80,0,12,,,,,,,,11,,,,61,64
126710,note_off,80,0,8,,,,,,,,6,,,,54,64
126710,note_off,80,0,7,,,,,,,,5,,,,61,64
126710,note_off,80,0,13,,,,,,,,12,,,,54,64
126720,note_on,160,0,15,,,,,,,,14,,,,42,75
126720,note_on,160,0,14,,,,,,,,13,,,,42,75
126800,note_off,80,0,14,,,,,,,,13,,,,42,64
126800,note_off,80,0,15,,,,,,,,14,,,,42,64
126870,note_on,160,0,7,,,,,,,,5,,,,66,75
126870,note_on,160,0,8,,,,,,,,6,,,,54,75
126870,note_on,0,0,2,,,,,,,,0,,,,54,60
126870,note_on,160,0,12,,,,,,,,11,,,,66,75
126870,note_on,160,0,2,,,,,,,,0,,,,42,60
126870,note_on,160,0,13,,,,,,,,12,,,,54,75
126870,note_on,160,0,9,,,,,,,,7,,,,42,75
126950,note_off,0,0,2,,,,,,,,0,,,,42,64
126950,note_off,80,0,2,,,,,,,,0,,,,54,64
126950,note_off,80,0,7,,,,,,,,5,,,,66,64
126950,note_off,80,0,13,,,,,,,,12,,,,54,64
126950,note_off,80,0,8,,,,,,,,6,,,,54,64
126950,note_off,80,0,9,,,,,,,,7,,,,42,64
126950,note_off,80,0,12,,,,,,,,11,,,,66,64
126960,note_on,160,0,14,,,,,,,,13,,,,42,75
126960,note_on,160,0,15,,,,,,,,14,,,,42,75
127030,note_off,640,0,11,,,,,,,,10,,,,78,64
127030,note_off,640,0,6,,,,,,,,4,,,,78,64
127030,note_off,640,0,10,,,,,,,,8,,,,81,64
127030,note_off,640,0,5,,,,,,,,3,,,,81,64
127030,note_off,0,0,1,,,,,,,,0,,,,78,64
127030,note_off,640,0,1,,,,,,,,0,,,,81,64
127040,note_off,80,0,15,,,,,,,,14,,,,42,64
127040,note_off,80,0,14,,,,,,,,13,,,,42,64
127110,note_on,160,0,8,,,,,,,,6,,,,54,75
127110,note_on,80,0,10,,,,,,,,8,,,,81,75
127110,note_on,80,0,1,,,,,,,,0,,,,78,60
127110,note_on,160,0,7,,,,,,,,5,,,,69,75
127110,note_on,0,0,2,,,,,,,,0,,,,54,60
127110,note_on,80,0,11,,,,,,,,10,,,,78,75
127110,note_on,160,0,12,,,,,,,,11,,,,69,75
127110,note_on,80,0,6,,,,,,,,4,,,,78,92
127110,note_on,160,0,13,,,,,,,,12,,,,54,75
127110,note_on,80,0,5,,,,,,,,3,,,,81,92
127110,note_on,160,0,2,,,,,,,,0,,,,42,60
127110,note_on,160,0,9,,,,,,,,7,,,,42,75
127110,note_on,0,0,1,,,,,,,,0,,,,81,60
127190,note_off,80,0,7,,,,,,,,5,,,,69,64
127190,note_off,80,0,1,,,,,,,,0,,,,81,64
127190,note_off,80,0,6,,,,,,,,4,,,,78,64
127190,note_off,0,0,1,,,,,,,,0,,,,78,64
127190,note_off,80,0,5,,,,,,,,3,,,,81,64
127190,note_off,80,0,12,,,,,,,,11,,,,69,64
127190,note_off,0,0,2,,,,,,,,0,,,,42,64
127190,note_off,80,0,2,,,,,,,,0,,,,54,64
127190,note_off,80,0,10,,,,,,,,8,,,,81,64
127190,note_off,80,0,13,,,,,,,,12,,,,54,64
127190,note_off,80,0,11,,,,,,,,10,,,,78,64
127190,note_off,80,0,9,,,,,,,,7,,,,42,64
127190,note_off,80,0,8,,,,,,,,6,,,,54,64
127200,note_on,160,0,15,,,,,,,,14,,,,42,75
127200,note_on,160,0,14,,,,,,,,13,,,,42,75
127230,note_on,40,0,1,,,,,,,,0,,,,76,60
127230,note_on,0,0,1,,,,,,,,0,,,,80,60
127230,note_on,40,0,6,,,,,,,,4,,,,76,92
127230,note_on,40,0,11,,,,,,,,10,,,,76,75
127230,note_on,40,0,5,,,,,,,,3,,,,80,92
127230,note_on,40,0,10,,,,,,,,8,,,,80,75
127280,note_off,80,0,14,,,,,,,,13,,,,42,64
127280,note_off,80,0,15,,,,,,,,14,,,,42,64
127310,note_off,80,0,6,,,,,,,,4,,,,76,64
127310,note_off,80,0,1,,,,,,,,0,,,,80,64
127310,note_off,80,0,5,,,,,,,,3,,,,80,64
127310,note_off,80,0,11,,,,,,,,10,,,,76,64
127310,note_off,80,0,10,,,,,,,,8,,,,80,64
127310,note_off,0,0,1,,,,,,,,0,,,,76,64
127350,note_on,160,0,8,,,,,,,,6,,,,47,75
127350,note_on,40,0,6,,,,,,,,4,,,,75,92
127350,note_on,0,0,1,,,,,,,,0,,,,78,60
127350,note_on,40,0,11,,,,,,,,10,,,,75,75
127350,note_on,160,0,13,,,,,,,,12,,,,47,75
127350,note_on,160,0,9,,,,,,,,7,,,,35,75
127350,note_on,160,0,2,,,,,,,,0,,,,35,60
127350,note_on,40,0,10,,,,,,,,8,,,,78,75
127350,note_on,40,0,1,,,,,,,,0,,,,75,60
127350,note_on,0,0,2,,,,,,,,0,,,,47,60
127350,note_on,160,0,12,,,,,,,,11,,,,69,75
127350,note_on,40,0,5,,,,,,,,3,,,,78,92
127350,note_on,160,0,7,,,,,,,,5,,,,69,75
127430,note_off,80,0,13,,,,,,,,12,,,,47,64
127430,note_off,80,0,10,,,,,,,,8,,,,78,64
127430,note_off,80,0,11,,,,,,,,10,,,,75,64
127430,note_off,80,0,6,,,,,,,,4,,,,75,64
127430,note_off,80,0,5,,,,,,,,3,,,,78,64
127430,note_off,0,0,2,,,,,,,,0,,,,35,64
127430,note_off,80,0,9,,,,,,,,7,,,,35,64
127430,note_off,80,0,1,,,,,,,,0,,,,78,64
127430,note_off,0,0,1,,,,,,,,0,,,,75,64
127430,note_off,80,0,12,,,,,,,,11,,,,69,64
127430,note_off,80,0,8,,,,,,,,6,,,,47,64
127430,note_off,80,0,2,,,,,,,,0,,,,47,64
127430,note_off,80,0,7,,,,,,,,5,,,,69,64
127440,note_on,160,0,14,,,,,,,,13,,,,42,75
127440,note_on,160,0,15,,,,,,,,14,,,,42,75
127520,note_off,80,0,15,,,,,,,,14,,,,42,64
127520,note_off,80,0,14,,,,,,,,13,,,,42,64
127590,note_on,160,0,10,,,,,,,,8,,,,78,75
127590,note_on,160,0,5,,,,,,,,3,,,,78,92
127590,note_on,160,0,7,,,,,,,,5,,,,69,75
127590,note_on,160,0,2,,,,,,,,0,,,,35,60
127590,note_on,0,0,1,,,,,,,,0,,,,78,60
127590,note_on,0,0,2,,,,,,,,0,,,,47,60
127590,note_on,160,0,13,,,,,,,,12,,,,47,75
127590,note_on,160,0,1,,,,,,,,0,,,,75,60
127590,note_on,160,0,12,,,,,,,,11,,,,69,75
127590,note_on,160,0,11,,,,,,,,10,,,,75,75
127590,note_on,160,0,9,,,,,,,,7,,,,35,75
127590,note_on,160,0,8,,,,,,,,6,,,,47,75
127590,note_on,160,0,6,,,,,,,,4,,,,75,92
127670,note_off,80,0,7,,,,,,,,5,,,,69,64
127670,note_off,80,0,2,,,,,,,,0,,,,47,64
127670,note_off,80,0,5,,,,,,,,3,,,,78,64
127670,note_off,80,0,6,,,,,,,,4,,,,75,64
127670,note_off,80,0,8,,,,,,,,6,,,,47,64
127670,note_off,0,0,2,,,,,,,,0,,,,35,64
127670,note_off,80,0,9,,,,,,,,7,,,,35,64
127670,note_off,80,0,11,,,,,,,,10,,,,75,64
127670,note_off,80,0,1,,,,,,,,0,,,,78,64
127670,note_off,80,0,13,,,,,,,,12,,,,47,64
127670,note_off,80,0,12,,,,,,,,11,,,,69,64
127670,note_off,80,0,10,,,,,,,,8,,,,78,64
127670,note_off,0,0,1,,,,,,,,0,,,,75,64
127680,note_on,160,0,14,,,,,,,,13,,,,35,75
127680,note_on,160,0,15,,,,,,,,14,,,,35,75
127760,note_off,80,0,14,,,,,,,,13,,,,35,64
127760,note_off,80,0,15,,,,,,,,14,,,,35,64
127830,note_on,160,0,6,,,,,,,,4,,,,75,92
127830,note_on,160,0,5,,,,,,,,3,,,,78,92
127830,note_on,160,0,9,,,,,,,,7,,,,35,75
127830,note_on,0,0,1,,,,,,,,0,,,,78,60
127830,note_on,160,0,2,,,,,,,,0,,,,35,60
127830,note_on,160,0,10,,,,,,,,8,,,,78,75
127830,note_on,160,0,8,,,,,,,,6,,,,47,75
127830,note_on,160,0,12,,,,,,,,11,,,,66,75
127830,note_on,160,0,13,,,,,,,,12,,,,47,75
127830,note_on,160,0,11,,,,,,,,10,,,,75,75
127830,note_on,160,0,7,,,,,,,,5,,,,66,75
127830,note_on,0,0,2,,,,,,,,0,,,,47,60
127830,note_on,160,0,1,,,,,,,,0,,,,75,60
127860,note_off,30,0,10,,,,,,,,8,,,,78,64
127860,note_on,0,0,10,,,,,,,,8,,,,80,75
127860,note_off,30,0,6,,,,,,,,4,,,,75,64
127860,note_on,0,0,5,,,,,,,,3,,,,80,92
127860,note_off,30,0,5,,,,,,,,3,,,,78,64
127860,note_off,30,0,11,,,,,,,,10,,,,75,64
127860,note_on,0,0,11,,,,,,,,10,,,,76,75
127860,note_on,0,0,6,,,,,,,,4,,,,76,92
127890,note_on,0,0,11,,,,,,,,10,,,,75,75
127890,note_off,30,0,11,,,,,,,,10,,,,76,64
127890,note_on,0,0,6,,,,,,,,4,,,,75,92
127890,note_on,0,0,10,,,,,,,,8,,,,78,75
127890,note_off,30,0,10,,,,,,,,8,,,,80,64
127890,note_off,30,0,6,,,,,,,,4,,,,76,64
127890,note_off,30,0,5,,,,,,,,3,,,,80,64
127890,note_on,0,0,5,,,,,,,,3,,,,78,92
127910,note_off,80,0,8,,,,,,,,6,,,,47,64
127910,note_off,0,0,2,,,,,,,,0,,,,35,64
127910,note_off,80,0,12,,,,,,,,11,,,,66,64
127910,note_off,80,0,9,,,,,,,,7,,,,35,64
127910,note_off,80,0,7,,,,,,,,5,,,,66,64
127910,note_off,80,0,1,,,,,,,,0,,,,78,64
127910,note_off,0,0,1,,,,,,,,0,,,,75,64
127910,note_off,80,0,2,,,,,,,,0,,,,47,64
127910,note_off,80,0,13,,,,,,,,12,,,,47,64
127920,note_off,30,0,11,,,,,,,,10,,,,75,64
127920,note_on,160,0,14,,,,,,,,13,,,,35,75
127920,note_on,0,0,10,,,,,,,,8,,,,80,75
127920,note_off,30,0,6,,,,,,,,4,,,,75,64
127920,note_on,0,0,6,,,,,,,,4,,,,76,92
127920,note_on,0,0,5,,,,,,,,3,,,,80,92
127920,note_off,30,0,5,,,,,,,,3,,,,78,64
127920,note_off,30,0,10,,,,,,,,8,,,,78,64
127920,note_on,160,0,15,,,,,,,,14,,,,35,75
127920,note_on,0,0,11,,,,,,,,10,,,,76,75
127950,note_off,30,0,5,,,,,,,,3,,,,80,64
127950,note_on,0,0,5,,,,,,,,3,,,,78,92
127950,note_off,30,0,10,,,,,,,,8,,,,80,64
127950,note_on,0,0,11,,,,,,,,10,,,,75,75
127950,note_on,0,0,10,,,,,,,,8,,,,78,75
127950,note_off,30,0,6,,,,,,,,4,,,,76,64
127950,note_on,0,0,6,,,,,,,,4,,,,75,92
127950,note_off,30,0,11,,,,,,,,10,,,,76,64
127980,note_off,30,0,10,,,,,,,,8,,,,78,64
127980,note_on,0,0,10,,,,,,,,8,,,,80,75
127980,note_off,30,0,5,,,,,,,,3,,,,78,64
127980,note_on,0,0,5,,,,,,,,3,,,,80,92
127980,note_on,0,0,6,,,,,,,,4,,,,76,92
127980,note_off,30,0,6,,,,,,,,4,,,,75,64
127980,note_on,0,0,11,,,,,,,,10,,,,76,75
127980,note_off,30,0,11,,,,,,,,10,,,,75,64
128000,note_off,80,0,15,,,,,,,,14,,,,35,64
128000,note_off,80,0,14,,,,,,,,13,,,,35,64
128010,note_on,0,0,6,,,,,,,,4,,,,75,92
128010,note_off,30,0,5,,,,,,,,3,,,,80,64
128010,note_on,0,0,5,,,,,,,,3,,,,78,92
128010,note_off,30,0,11,,,,,,,,10,,,,76,64
128010,note_on,0,0,11,,,,,,,,10,,,,75,75
128010,note_on,0,0,10,,,,,,,,8,,,,78,75
128010,note_off,30,0,10,,,,,,,,8,,,,80,64
128010,note_off,30,0,6,,,,,,,,4,,,,76,64
128050,note_off,40,0,6,,,,,,,,4,,,,75,64
128050,note_off,40,0,10,,,,,,,,8,,,,78,64
128050,note_off,40,0,11,,,,,,,,10,,,,75,64
128050,note_off,40,0,5,,,,,,,,3,,,,78,64
128070,note_on,20,0,11,,,,,,,,10,,,,73,75
128070,note_on,160,0,12,,,,,,,,11,,,,63,75
128070,note_on,0,0,2,,,,,,,,0,,,,47,60
128070,note_on,160,0,8,,,,,,,,6,,,,47,75
128070,note_on,160,0,7,,,,,,,,5,,,,63,75
128070,note_on,20,0,10,,,,,,,,8,,,,76,75
128070,note_on,160,0,2,,,,,,,,0,,,,35,60
128070,note_on,20,0,5,,,,,,,,3,,,,76,92
128070,note_on,20,0,6,,,,,,,,4,,,,73,92
128070,note_on,160,0,1,,,,,,,,0,,,,75,60
128070,note_on,0,0,1,,,,,,,,0,,,,78,60
128070,note_on,160,0,9,,,,,,,,7,,,,35,75
128070,note_on,160,0,13,,,,,,,,12,,,,47,75
128150,note_off,80,0,9,,,,,,,,7,,,,35,64
128150,note_off,80,0,11,,,,,,,,10,,,,73,64
128150,note_off,80,0,2,,,,,,,,0,,,,47,64
128150,note_off,80,0,12,,,,,,,,11,,,,63,64
128150,note_off,80,0,7,,,,,,,,5,,,,63,64
128150,note_off,0,0,2,,,,,,,,0,,,,35,64
128150,note_off,80,0,5,,,,,,,,3,,,,76,64
128150,note_off,80,0,1,,,,,,,,0,,,,78,64
128150,note_off,0,0,1,,,,,,,,0,,,,75,64
128150,note_off,80,0,13,,,,,,,,12,,,,47,64
128150,note_off,80,0,8,,,,,,,,6,,,,47,64
128150,note_off,80,0,10,,,,,,,,8,,,,76,64
128150,note_off,80,0,6,,,,,,,,4,,,,73,64
128160,note_on,160,0,14,,,,,,,,13,,,,35,75
128160,note_on,160,0,15,,,,,,,,14,,,,35,75
128190,note_on,40,0,5,,,,,,,,3,,,,78,92
128190,note_on,40,0,10,,,,,,,,8,,,,78,75
128190,note_on,40,0,11,,,,,,,,10,,,,75,75
128190,note_on,40,0,6,,,,,,,,4,,,,75,92
128240,note_off,80,0,15,,,,,,,,14,,,,35,64
128240,note_off,80,0,14,,,,,,,,13,,,,35,64
128270,note_off,80,0,10,,,,,,,,8,,,,78,64
128270,note_off,80,0,11,,,,,,,,10,,,,75,64
128270,note_off,80,0,5,,,,,,,,3,,,,78,64
128270,note_off,80,0,6,,,,,,,,4,,,,75,64
128310,note_on,0,0,1,,,,,,,,0,,,,80,60
128310,note_on,40,0,5,,,,,,,,3,,,,80,92
128310,note_on,160,0,12,,,,,,,,11,,,,59,75
128310,note_on,160,0,2,,,,,,,,0,,,,40,60
128310,note_on,40,0,6,,,,,,,,4,,,,76,92
128310,note_on,160,0,8,,,,,,,,6,,,,52,75
128310,note_on,160,0,1,,,,,,,,0,,,,76,60
128310,note_on,40,0,11,,,,,,,,10,,,,76,75
128310,note_on,160,0,13,,,,,,,,12,,,,52,75
128310,note_on,160,0,9,,,,,,,,7,,,,40,75
128310,note_on,40,0,10,,,,,,,,8,,,,80,75
128310,note_on,0,0,2,,,,,,,,0,,,,52,60
128310,note_on,160,0,7,,,,,,,,5,,,,59,75
128390,note_off,80,0,8,,,,,,,,6,,,,52,64
128390,note_off,80,0,9,,,,,,,,7,,,,40,64
128390,note_off,80,0,13,,,,,,,,12,,,,52,64
128390,note_off,80,0,12,,,,,,,,11,,,,59,64
128390,note_off,0,0,2,,,,,,,,0,,,,40,64
128390,note_off,80,0,7,,,,,,,,5,,,,59,64
128390,note_off,80,0,2,,,,,,,,0,,,,52,64
128400,note_on,160,0,15,,,,,,,,14,,,,35,75
128400,note_on,160,0,14,,,,,,,,13,,,,35,75
128480,note_off,80,0,14,,,,,,,,13,,,,35,64
128480,note_off,80,0,15,,,,,,,,14,,,,35,64
128550,note_on,160,0,8,,,,,,,,6,,,,52,75
128550,note_on,160,0,13,,,,,,,,12,,,,52,75
128550,note_on,160,0,9,,,,,,,,7,,,,40,75
128550,note_on,160,0,2,,,,,,,,0,,,,40,60
128550,note_on,160,0,7,,,,,,,,5,,,,59,75
128550,note_on,160,0,12,,,,,,,,11,,,,59,75
128550,note_on,0,0,2,,,,,,,,0,,,,52,60
128630,note_off,80,0,2,,,,,,,,0,,,,52,64
128630,note_off,0,0,2,,,,,,,,0,,,,40,64
128630,note_off,80,0,8,,,,,,,,6,,,,52,64
128630,note_off,80,0,13,,,,,,,,12,,,,52,64
128630,note_off,80,0,12,,,,,,,,11,,,,59,64
128630,note_off,80,0,9,,,,,,,,7,,,,40,64
128630,note_off,80,0,7,,,,,,,,5,,,,59,64
128640,note_on,160,0,14,,,,,,,,13,,,,40,75
128640,note_on,160,0,15,,,,,,,,14,,,,40,75
128720,note_off,80,0,15,,,,,,,,14,,,,40,64
128720,note_off,80,0,14,,,,,,,,13,,,,40,64
128790,note_on,0,0,2,,,,,,,,0,,,,52,60
128790,note_on,160,0,9,,,,,,,,7,,,,40,75
128790,note_on,160,0,2,,,,,,,,0,,,,40,60
128790,note_on,160,0,7,,,,,,,,5,,,,59,75
128790,note_on,160,0,13,,,,,,,,12,,,,52,75
128790,note_on,160,0,8,,,,,,,,6,,,,52,75
128790,note_on,160,0,12,,,,,,,,11,,,,59,75
128870,note_off,80,0,8,,,,,,,,6,,,,52,64
128870,note_off,80,0,12,,,,,,,,11,,,,59,64
128870,note_off,80,0,13,,,,,,,,12,,,,52,64
128870,note_off,80,0,7,,,,,,,,5,,,,59,64
128870,note_off,80,0,9,,,,,,,,7,,,,40,64
128870,note_off,0,0,2,,,,,,,,0,,,,40,64
128870,note_off,80,0,2,,,,,,,,0,,,,52,64
128880,note_on,160,0,14,,,,,,,,13,,,,40,75
128880,note_on,160,0,15,,,,,,,,14,,,,40,75
128950,note_off,640,0,5,,,,,,,,3,,,,80,64
128950,note_off,640,0,1,,,,,,,,0,,,,80,64
128950,note_off,640,0,10,,,,,,,,8,,,,80,64
128950,note_off,0,0,1,,,,,,,,0,,,,76,64
128950,note_off,640,0,6,,,,,,,,4,,,,76,64
128950,note_off,640,0,11,,,,,,,,10,,,,76,64
128960,note_off,80,0,14,,,,,,,,13,,,,40,64
128960,note_off,80,0,15,,,,,,,,14,,,,40,64
129030,note_on,160,0,9,,,,,,,,7,,,,35,75
129030,note_on,80,0,5,,,,,,,,3,,,,80,92
129030,note_on,160,0,2,,,,,,,,0,,,,35,60
129030,note_on,0,0,2,,,,,,,,0,,,,47,60
129030,note_on,80,0,11,,,,,,,,10,,,,76,75
129030,note_on,160,0,13,,,,,,,,12,,,,47,75
129030,note_on,80,0,6,,,,,,,,4,,,,76,92
129030,note_on,160,0,8,,,,,,,,6,,,,47,75
129030,note_on,0,0,1,,,,,,,,0,,,,80,60
129030,note_on,160,0,7,,,,,,,,5,,,,59,75
129030,note_on,80,0,1,,,,,,,,0,,,,76,60
129030,note_on,160,0,12,,,,,,,,11,,,,59,75
129030,note_on,80,0,10,,,,,,,,8,,,,80,75
129110,note_off,80,0,13,,,,,,,,12,,,,47,64
129110,note_off,80,0,1,,,,,,,,0,,,,80,64
129110,note_off,0,0,2,,,,,,,,0,,,,35,64
129110,note_off,80,0,2,,,,,,,,0,,,,47,64
129110,note_off,0,0,1,,,,,,,,0,,,,76,64
129110,note_off,80,0,8,,,,,,,,6,,,,47,64
129110,note_off,80,0,7,,,,,,,,5,,,,59,64
129110,note_off,80,0,12,,,,,,,,11,,,,59,64
129110,note_off,80,0,5,,,,,,,,3,,,,80,64
129110,note_off,80,0,6,,,,,,,,4,,,,76,64
129110,note_off,80,0,10,,,,,,,,8,,,,80,64
129110,note_off,80,0,9,,,,,,,,7,,,,35,64
129110,note_off,80,0,11,,,,,,,,10,,,,76,64
129120,note_on,160,0,14,,,,,,,,13,,,,40,75
129120,note_on,160,0,15,,,,,,,,14,,,,40,75
129150,note_on,40,0,6,,,,,,,,4,,,,78,92
129150,note_on,40,0,11,,,,,,,,10,,,,78,75
129150,note_on,40,0,5,,,,,,,,3,,,,81,92
129150,note_on,0,0,1,,,,,,,,0,,,,81,60
129150,note_on,40,0,1,,,,,,,,0,,,,78,60
129150,note_on,40,0,10,,,,,,,,8,,,,81,75
129200,note_off,80,0,15,,,,,,,,14,,,,40,64
129200,note_off,80,0,14,,,,,,,,13,,,,40,64
129230,note_off,80,0,11,,,,,,,,10,,,,78,64
129230,note_off,0,0,1,,,,,,,,0,,,,78,64
129230,note_off,80,0,1,,,,,,,,0,,,,81,64
129230,note_off,80,0,6,,,,,,,,4,,,,78,64
129230,note_off,80,0,10,,,,,,,,8,,,,81,64
129230,note_off,80,0,5,,,,,,,,3,,,,81,64
129270,note_on,40,0,11,,,,,,,,10,,,,80,75
129270,note_on,160,0,2,,,,,,,,0,,,,40,60
129270,note_on,0,0,1,,,,,,,,0,,,,83,60
129270,note_on,40,0,10,,,,,,,,8,,,,83,75
129270,note_on,160,0,13,,,,,,,,12,,,,52,75
129270,note_on,160,0,8,,,,,,,,6,,,,52,75
129270,note_on,160,0,9,,,,,,,,7,,,,40,75
129270,note_on,40,0,6,,,,,,,,4,,,,80,92
129270,note_on,0,0,2,,,,,,,,0,,,,52,60
129270,note_on,40,0,5,,,,,,,,3,,,,83,92
129270,note_on,160,0,7,,,,,,,,5,,,,59,75
129270,note_on,40,0,1,,,,,,,,0,,,,80,60
129270,note_on,160,0,12,,,,,,,,11,,,,59,75
129350,note_off,80,0,10,,,,,,,,8,,,,83,64
129350,note_off,80,0,5,,,,,,,,3,,,,83,64
129350,note_off,80,0,8,,,,,,,,6,,,,52,64
129350,note_off,80,0,7,,,,,,,,5,,,,59,64
129350,note_off,80,0,9,,,,,,,,7,,,,40,64
129350,note_off,0,0,2,,,,,,,,0,,,,40,64
129350,note_off,80,0,11,,,,,,,,10,,,,80,64
129350,note_off,80,0,2,,,,,,,,0,,,,52,64
129350,note_off,80,0,12,,,,,,,,11,,,,59,64
129350,note_off,80,0,6,,,,,,,,4,,,,80,64
129350,note_off,80,0,13,,,,,,,,12,,,,52,64
129350,note_off,0,0,1,,,,,,,,0,,,,80,64
129350,note_off,80,0,1,,,,,,,,0,,,,83,64
129360,note_on,160,0,14,,,,,,,,13,,,,35,75
129360,note_on,160,0,15,,,,,,,,14,,,,35,75
129440,note_off,80,0,14,,,,,,,,13,,,,35,64
129440,note_off,80,0,15,,,,,,,,14,,,,35,64
129510,note_on,0,0,2,,,,,,,,0,,,,52,60
129510,note_on,160,0,10,,,,,,,,8,,,,83,75
129510,note_on,160,0,8,,,,,,,,6,,,,52,75
129510,note_on,160,0,12,,,,,,,,11,,,,59,75
129510,note_on,160,0,7,,,,,,,,5,,,,59,75
129510,note_on,160,0,5,,,,,,,,3,,,,83,92
129510,note_on,160,0,2,,,,,,,,0,,,,40,60
129510,note_on,160,0,13,,,,,,,,12,,,,52,75
129510,note_on,160,0,6,,,,,,,,4,,,,80,92
129510,note_on,0,0,1,,,,,,,,0,,,,83,60
129510,note_on,160,0,11,,,,,,,,10,,,,80,75
129510,note_on,160,0,1,,,,,,,,0,,,,80,60
129510,note_on,160,0,9,,,,,,,,7,,,,40,75
129590,note_off,80,0,1,,,,,,,,0,,,,83,64
129590,note_off,80,0,5,,,,,,,,3,,,,83,64
129590,note_off,80,0,13,,,,,,,,12,,,,52,64
129590,note_off,80,0,8,,,,,,,,6,,,,52,64
129590,note_off,80,0,9,,,,,,,,7,,,,40,64
129590,note_off,80,0,7,,,,,,,,5,,,,59,64
129590,note_off,0,0,2,,,,,,,,0,,,,40,64
129590,note_off,80,0,2,,,,,,,,0,,,,52,64
129590,note_off,80,0,6,,,,,,,,4,,,,80,64
129590,note_off,80,0,11,,,,,,,,10,,,,80,64
129590,note_off,80,0,12,,,,,,,,11,,,,59,64
129590,note_off,80,0,10,,,,,,,,8,,,,83,64
129590,note_off,0,0,1,,,,,,,,0,,,,80,64
129600,note_on,160,0,15,,,,,,,,14,,,,40,75
129600,note_on,160,0,14,,,,,,,,13,,,,40,75
129680,note_off,80,0,15,,,,,,,,14,,,,40,64
129680,note_off,80,0,14,,,,,,,,13,,,,40,64
129750,note_on,0,0,2,,,,,,,,0,,,,52,60
129750,note_on,160,0,2,,,,,,,,0,,,,40,60
129750,note_on,160,0,9,,,,,,,,7,,,,40,75
129750,note_on,160,0,12,,,,,,,,11,,,,59,75
129750,note_on,160,0,13,,,,,,,,12,,,,52,75
129750,note_on,160,0,1,,,,,,,,0,,,,80,60
129750,note_on,160,0,10,,,,,,,,8,,,,83,75
129750,note_on,160,0,6,,,,,,,,4,,,,80,92
129750,note_on,160,0,8,,,,,,,,6,,,,52,75
129750,note_on,0,0,1,,,,,,,,0,,,,83,60
129750,note_on,160,0,11,,,,,,,,10,,,,80,75
129750,note_on,160,0,7,,,,,,,,5,,,,59,75
129750,note_on,160,0,5,,,,,,,,3,,,,83,92
129830,note_off,80,0,9,,,,,,,,7,,,,40,64
129830,note_off,80,0,12,,,,,,,,11,,,,59,64
129830,note_off,80,0,7,,,,,,,,5,,,,59,64
129830,note_off,80,0,13,,,,,,,,12,,,,52,64
129830,note_off,0,0,2,,,,,,,,0,,,,40,64
129830,note_off,80,0,5,,,,,,,,3,,,,83,64
129830,note_off,80,0,6,,,,,,,,4,,,,80,64
129830,note_off,80,0,2,,,,,,,,0,,,,52,64
129830,note_off,80,0,11,,,,,,,,10,,,,80,64
129830,note_off,80,0,8,,,,,,,,6,,,,52,64
129830,note_off,0,0,1,,,,,,,,0,,,,80,64
129830,note_off,80,0,1,,,,,,,,0,,,,83,64
129830,note_off,80,0,10,,,,,,,,8,,,,83,64
129840,note_on,160,0,15,,,,,,,,14,,,,40,75
129840,note_on,160,0,14,,,,,,,,13,,,,40,75
129920,note_off,80,0,15,,,,,,,,14,,,,40,64
129920,note_off,80,0,14,,,,,,,,13,,,,40,64
129990,note_on,160,0,9,,,,,,,,7,,,,35,75
129990,note_on,160,0,8,,,,,,,,6,,,,47,75
129990,note_on,160,0,1,,,,,,,,0,,,,80,60
129990,note_on,0,0,1,,,,,,,,0,,,,83,60
129990,note_on,160,0,11,,,,,,,,10,,,,80,75
129990,note_on,160,0,10,,,,,,,,8,,,,83,75
129990,note_on,160,0,2,,,,,,,,0,,,,35,60
129990,note_on,0,0,2,,,,,,,,0,,,,47,60
129990,note_on,160,0,13,,,,,,,,12,,,,47,75
129990,note_on,160,0,5,,,,,,,,3,,,,83,92
129990,note_on,160,0,12,,,,,,,,11,,,,59,75
129990,note_on,160,0,7,,,,,,,,5,,,,59,75
129990,note_on,160,0,6,,,,,,,,4,,,,80,92
130070,note_off,80,0,7,,,,,,,,5,,,,59,64
130070,note_off,80,0,2,,,,,,,,0,,,,47,64
130070,note_off,80,0,6,,,,,,,,4,,,,80,64
130070,note_off,80,0,10,,,,,,,,8,,,,83,64
130070,note_off,80,0,11,,,,,,,,10,,,,80,64
130070,note_off,0,0,2,,,,,,,,0,,,,35,64
130070,note_off,80,0,5,,,,,,,,3,,,,83,64
130070,note_off,80,0,12,,,,,,,,11,,,,59,64
130070,note_off,80,0,8,,,,,,,,6,,,,47,64
130070,note_off,80,0,9,,,,,,,,7,,,,35,64
130070,note_off,80,0,1,,,,,,,,0,,,,83,64
130070,note_off,0,0,1,,,,,,,,0,,,,80,64
130070,note_off,80,0,13,,,,,,,,12,,,,47,64
130080,note_on,160,0,14,,,,,,,,13,,,,40,75
130080,note_on,160,0,15,,,,,,,,14,,,,40,75
130110,note_on,40,0,5,,,,,,,,3,,,,81,92
130110,note_on,40,0,1,,,,,,,,0,,,,78,60
130110,note_on,0,0,1,,,,,,,,0,,,,81,60
130110,note_on,40,0,6,,,,,,,,4,,,,78,92
130110,note_on,40,0,11,,,,,,,,10,,,,78,75
130110,note_on,40,0,10,,,,,,,,8,,,,81,75
130160,note_off,80,0,14,,,,,,,,13,,,,40,64
130160,note_off,80,0,15,,,,,,,,14,,,,40,64
130190,note_off,80,0,6,,,,,,,,4,,,,78,64
130190,note_off,80,0,10,,,,,,,,8,,,,81,64
130190,note_off,0,0,1,,,,,,,,0,,,,78,64
130190,note_off,80,0,11,,,,,,,,10,,,,78,64
130190,note_off,80,0,1,,,,,,,,0,,,,81,64
130190,note_off,80,0,5,,,,,,,,3,,,,81,64
130230,note_on,40,0,10,,,,,,,,8,,,,80,75
130230,note_on,40,0,11,,,,,,,,10,,,,76,75
130230,note_on,40,0,1,,,,,,,,0,,,,76,60
130230,note_on,0,0,2,,,,,,,,0,,,,52,60
130230,note_on,160,0,2,,,,,,,,0,,,,40,60
130230,note_on,160,0,9,,,,,,,,7,,,,40,75
130230,note_on,160,0,13,,,,,,,,12,,,,52,75
130230,note_on,0,0,1,,,,,,,,0,,,,80,60
130230,note_on,40,0,6,,,,,,,,4,,,,76,92
130230,note_on,160,0,7,,,,,,,,5,,,,59,75
130230,note_on,160,0,12,,,,,,,,11,,,,59,75
130230,note_on,40,0,5,,,,,,,,3,,,,80,92
130230,note_on,160,0,8,,,,,,,,6,,,,52,75
130310,note_off,80,0,13,,,,,,,,12,,,,52,64
130310,note_off,80,0,11,,,,,,,,10,,,,76,64
130310,note_off,80,0,8,,,,,,,,6,,,,52,64
130310,note_off,80,0,9,,,,,,,,7,,,,40,64
130310,note_off,80,0,12,,,,,,,,11,,,,59,64
130310,note_off,80,0,2,,,,,,,,0,,,,52,64
130310,note_off,0,0,1,,,,,,,,0,,,,76,64
130310,note_off,80,0,1,,,,,,,,0,,,,80,64
130310,note_off,80,0,7,,,,,,,,5,,,,59,64
130310,note_off,80,0,5,,,,,,,,3,,,,80,64
130310,note_off,80,0,10,,,,,,,,8,,,,80,64
130310,note_off,0,0,2,,,,,,,,0,,,,40,64
130310,note_off,80,0,6,,,,,,,,4,,,,76,64
130320,note_on,160,0,14,,,,,,,,13,,,,35,75
130320,note_on,160,0,15,,,,,,,,14,,,,35,75
130400,note_off,80,0,14,,,,,,,,13,,,,35,64
130400,note_off,80,0,15,,,,,,,,14,,,,35,64
130470,note_on,160,0,6,,,,,,,,4,,,,76,92
130470,note_on,160,0,11,,,,,,,,10,,,,76,75
130470,note_on,160,0,5,,,,,,,,3,,,,80,92
130470,note_on,160,0,2,,,,,,,,0,,,,40,60
130470,note_on,0,0,2,,,,,,,,0,,,,52,60
130470,note_on,160,0,10,,,,,,,,8,,,,80,75
130470,note_on,160,0,9,,,,,,,,7,,,,40,75
130470,note_on,160,0,8,,,,,,,,6,,,,52,75
130470,note_on,160,0,13,,,,,,,,12,,,,52,75
130470,note_on,160,0,7,,,,,,,,5,,,,59,75
130470,note_on,160,0,1,,,,,,,,0,,,,76,60
130470,note_on,0,0,1,,,,,,,,0,,,,80,60
130470,note_on,160,0,12,,,,,,,,11,,,,59,75
130550,note_off,80,0,5,,,,,,,,3,,,,80,64
130550,note_off,80,0,10,,,,,,,,8,,,,80,64
130550,note_off,80,0,7,,,,,,,,5,,,,59,64
130550,note_off,0,0,2,,,,,,,,0,,,,40,64
130550,note_off,80,0,2,,,,,,,,0,,,,52,64
130550,note_off,80,0,8,,,,,,,,6,,,,52,64
130550,note_off,80,0,11,,,,,,,,10,,,,76,64
130550,note_off,80,0,9,,,,,,,,7,,,,40,64
130550,note_off,0,0,1,,,,,,,,0,,,,76,64
130550,note_off,80,0,1,,,,,,,,0,,,,80,64
130550,note_off,80,0,13,,,,,,,,12,,,,52,64
130550,note_off,80,0,12,,,,,,,,11,,,,59,64
130550,note_off,80,0,6,,,,,,,,4,,,,76,64
130560,note_on,160,0,14,,,,,,,,13,,,,40,75
130560,note_on,160,0,15,,,,,,,,14,,,,40,75
130640,note_off,80,0,15,,,,,,,,14,,,,40,64
130640,note_off,80,0,14,,,,,,,,13,,,,40,64
130710,note_on,160,0,12,,,,,,,,11,,,,59,75
130710,note_on,160,0,7,,,,,,,,5,,,,59,75
130710,note_on,160,0,10,,,,,,,,8,,,,80,75
130710,note_on,0,0,2,,,,,,,,0,,,,52,60
130710,note_on,160,0,2,,,,,,,,0,,,,40,60
130710,note_on,160,0,6,,,,,,,,4,,,,76,92
130710,note_on,160,0,1,,,,,,,,0,,,,76,60
130710,note_on,0,0,1,,,,,,,,0,,,,80,60
130710,note_on,160,0,8,,,,,,,,6,,,,52,75
130710,note_on,160,0,5,,,,,,,,3,,,,80,92
130710,note_on,160,0,11,,,,,,,,10,,,,76,75
130710,note_on,160,0,13,,,,,,,,12,,,,52,75
130710,note_on,160,0,9,,,,,,,,7,,,,40,75
130790,note_off,80,0,7,,,,,,,,5,,,,59,64
130790,note_off,80,0,12,,,,,,,,11,,,,59,64
130790,note_off,80,0,8,,,,,,,,6,,,,52,64
130790,note_off,80,0,5,,,,,,,,3,,,,80,64
130790,note_off,80,0,10,,,,,,,,8,,,,80,64
130790,note_off,80,0,13,,,,,,,,12,,,,52,64
130790,note_off,80,0,11,,,,,,,,10,,,,76,64
130790,note_off,80,0,9,,,,,,,,7,,,,40,64
130790,note_off,80,0,1,,,,,,,,0,,,,80,64
130790,note_off,80,0,2,,,,,,,,0,,,,52,64
130790,note_off,0,0,1,,,,,,,,0,,,,76,64
130790,note_off,80,0,6,,,,,,,,4,,,,76,64
130790,note_off,0,0,2,,,,,,,,0,,,,40,64
130800,note_on,160,0,14,,,,,,,,13,,,,40,75
130800,note_on,160,0,15,,,,,,,,14,,,,40,75
130880,note_off,80,0,15,,,,,,,,14,,,,40,64
130880,note_off,80,0,14,,,,,,,,13,,,,40,64
130950,note_on,160,0,2,,,,,,,,0,,,,35,60
130950,note_on,0,0,2,,,,,,,,0,,,,47,60
130950,note_on,160,0,8,,,,,,,,6,,,,47,75
130950,note_on,160,0,11,,,,,,,,10,,,,76,75
130950,note_on,160,0,7,,,,,,,,5,,,,59,75
130950,note_on,160,0,12,,,,,,,,11,,,,59,75
130950,note_on,160,0,13,,,,,,,,12,,,,47,75
130950,note_on,160,0,5,,,,,,,,3,,,,80,92
130950,note_on,160,0,6,,,,,,,,4,,,,76,92
130950,note_on,0,0,1,,,,,,,,0,,,,80,60
130950,note_on,160,0,1,,,,,,,,0,,,,76,60
130950,note_on,160,0,9,,,,,,,,7,,,,35,75
130950,note_on,160,0,10,,,,,,,,8,,,,80,75
131030,note_off,80,0,10,,,,,,,,8,,,,80,64
131030,note_off,80,0,12,,,,,,,,11,,,,59,64
131030,note_off,80,0,1,,,,,,,,0,,,,80,64
131030,note_off,80,0,5,,,,,,,,3,,,,80,64
131030,note_off,80,0,6,,,,,,,,4,,,,76,64
131030,note_off,80,0,7,,,,,,,,5,,,,59,64
131030,note_off,80,0,9,,,,,,,,7,,,,35,64
131030,note_off,80,0,11,,,,,,,,10,,,,76,64
131030,note_off,0,0,2,,,,,,,,0,,,,35,64
131030,note_off,80,0,2,,,,,,,,0,,,,47,64
131030,note_off,80,0,13,,,,,,,,12,,,,47,64
131030,note_off,80,0,8,,,,,,,,6,,,,47,64
131030,note_off,0,0,1,,,,,,,,0,,,,76,64
131040,note_on,160,0,15,,,,,,,,14,,,,40,75
131040,note_on,160,0,14,,,,,,,,13,,,,40,75
131070,note_on,40,0,6,,,,,,,,4,,,,78,92
131070,note_on,40,0,1,,,,,,,,0,,,,78,60
131070,note_on,40,0,5,,,,,,,,3,,,,81,92
131070,note_on,40,0,10,,,,,,,,8,,,,81,75
131070,note_on,0,0,1,,,,,,,,0,,,,81,60
131070,note_on,40,0,11,,,,,,,,10,,,,78,75
131120,note_off,80,0,14,,,,,,,,13,,,,40,64
131120,note_off,80,0,15,,,,,,,,14,,,,40,64
131150,note_off,80,0,5,,,,,,,,3,,,,81,64
131150,note_off,80,0,10,,,,,,,,8,,,,81,64
131150,note_off,80,0,6,,,,,,,,4,,,,78,64
131150,note_off,80,0,1,,,,,,,,0,,,,81,64
131150,note_off,0,0,1,,,,,,,,0,,,,78,64
131150,note_off,80,0,11,,,,,,,,10,,,,78,64
131190,note_on,40,0,11,,,,,,,,10,,,,80,75
131190,note_on,160,0,8,,,,,,,,6,,,,52,75
131190,note_on,160,0,7,,,,,,,,5,,,,59,75
131190,note_on,160,0,12,,,,,,,,11,,,,59,75
131190,note_on,40,0,5,,,,,,,,3,,,,83,92
131190,note_on,40,0,6,,,,,,,,4,,,,80,92
131190,note_on,160,0,9,,,,,,,,7,,,,40,75
131190,note_on,0,0,1,,,,,,,,0,,,,83,60
131190,note_on,160,0,13,,,,,,,,12,,,,52,75
131190,note_on,40,0,10,,,,,,,,8,,,,83,75
131190,note_on,40,0,1,,,,,,,,0,,,,80,60
131190,note_on,0,0,2,,,,,,,,0,,,,52,60
131190,note_on,160,0,2,,,,,,,,0,,,,40,60
131270,note_off,80,0,2,,,,,,,,0,,,,52,64
131270,note_off,80,0,13,,,,,,,,12,,,,52,64
131270,note_off,80,0,9,,,,,,,,7,,,,40,64
131270,note_off,80,0,6,,,,,,,,4,,,,80,64
131270,note_off,80,0,5,,,,,,,,3,,,,83,64
131270,note_off,80,0,7,,,,,,,,5,,,,59,64
131270,note_off,80,0,1,,,,,,,,0,,,,83,64
131270,note_off,0,0,1,,,,,,,,0,,,,80,64
131270,note_off,80,0,12,,,,,,,,11,,,,59,64
131270,note_off,80,0,11,,,,,,,,10,,,,80,64
131270,note_off,80,0,10,,,,,,,,8,,,,83,64
131270,note_off,80,0,8,,,,,,,,6,,,,52,64
131270,note_off,0,0,2,,,,,,,,0,,,,40,64
131280,note_on,160,0,14,,,,,,,,13,,,,35,75
131280,note_on,160,0,15,,,,,,,,14,,,,35,75
131360,note_off,80,0,14,,,,,,,,13,,,,35,64
131360,note_off,80,0,15,,,,,,,,14,,,,35,64
131430,note_on,160,0,9,,,,,,,,7,,,,40,75
131430,note_on,160,0,13,,,,,,,,12,,,,52,75
131430,note_on,160,0,10,,,,,,,,8,,,,83,75
131430,note_on,0,0,1,,,,,,,,0,,,,83,60
131430,note_on,160,0,12,,,,,,,,11,,,,59,75
131430,note_on,160,0,1,,,,,,,,0,,,,80,60
131430,note_on,160,0,2,,,,,,,,0,,,,40,60
131430,note_on,160,0,7,,,,,,,,5,,,,59,75
131430,note_on,160,0,11,,,,,,,,10,,,,80,75
131430,note_on,160,0,5,,,,,,,,3,,,,83,92
131430,note_on,0,0,2,,,,,,,,0,,,,52,60
131430,note_on,160,0,6,,,,,,,,4,,,,80,92
131430,note_on,160,0,8,,,,,,,,6,,,,52,75
131510,note_off,0,0,2,,,,,,,,0,,,,40,64
131510,note_off,80,0,12,,,,,,,,11,,,,59,64
131510,note_off,80,0,2,,,,,,,,0,,,,52,64
131510,note_off,80,0,1,,,,,,,,0,,,,83,64
131510,note_off,0,0,1,,,,,,,,0,,,,80,64
131510,note_off,80,0,8,,,,,,,,6,,,,52,64
131510,note_off,80,0,9,,,,,,,,7,,,,40,64
131510,note_off,80,0,5,,,,,,,,3,,,,83,64
131510,note_off,80,0,13,,,,,,,,12,,,,52,64
131510,note_off,80,0,10,,,,,,,,8,,,,83,64
131510,note_off,80,0,6,,,,,,,,4,,,,80,64
131510,note_off,80,0,7,,,,,,,,5,,,,59,64
131510,note_off,80,0,11,,,,,,,,10,,,,80,64
131520,note_on,160,0,15,,,,,,,,14,,,,40,75
131520,note_on,160,0,14,,,,,,,,13,,,,40,75
131600,note_off,80,0,15,,,,,,,,14,,,,40,64
131600,note_off,80,0,14,,,,,,,,13,,,,40,64
131670,note_on,160,0,12,,,,,,,,11,,,,59,75
131670,note_on,160,0,10,,,,,,,,8,,,,83,75
131670,note_on,160,0,11,,,,,,,,10,,,,80,75
131670,note_on,160,0,8,,,,,,,,6,,,,52,75
131670,note_on,160,0,5,,,,,,,,3,,,,83,92
131670,note_on,0,0,1,,,,,,,,0,,,,83,60
131670,note_on,160,0,13,,,,,,,,12,,,,52,75
131670,note_on,160,0,1,,,,,,,,0,,,,80,60
131670,note_on,160,0,9,,,,,,,,7,,,,40,75
131670,note_on,160,0,7,,,,,,,,5,,,,59,75
131670,note_on,0,0,2,,,,,,,,0,,,,52,60
131670,note_on,160,0,6,,,,,,,,4,,,,80,92
131670,note_on,160,0,2,,,,,,,,0,,,,40,60
131750,note_off,0,0,2,,,,,,,,0,,,,40,64
131750,note_off,80,0,7,,,,,,,,5,,,,59,64
131750,note_off,80,0,10,,,,,,,,8,,,,83,64
131750,note_off,80,0,11,,,,,,,,10,,,,80,64
131750,note_off,80,0,13,,,,,,,,12,,,,52,64
131750,note_off,0,0,1,,,,,,,,0,,,,80,64
131750,note_off,80,0,2,,,,,,,,0,,,,52,64
131750,note_off,80,0,5,,,,,,,,3,,,,83,64
131750,note_off,80,0,1,,,,,,,,0,,,,83,64
131750,note_off,80,0,12,,,,,,,,11,,,,59,64
131750,note_off,80,0,9,,,,,,,,7,,,,40,64
131750,note_off,80,0,6,,,,,,,,4,,,,80,64
131750,note_off,80,0,8,,,,,,,,6,,,,52,64
131760,note_on,160,0,14,,,,,,,,13,,,,40,75
131760,note_on,160,0,15,,,,,,,,14,,,,40,75
131840,note_off,80,0,14,,,,,,,,13,,,,40,64
131840,note_off,80,0,15,,,,,,,,14,,,,40,64
131910,note_on,160,0,10,,,,,,,,8,,,,83,75
131910,note_on,160,0,7,,,,,,,,5,,,,59,75
131910,note_on,0,0,2,,,,,,,,0,,,,47,60
131910,note_on,160,0,2,,,,,,,,0,,,,35,60
131910,note_on,160,0,12,,,,,,,,11,,,,59,75
131910,note_on,160,0,6,,,,,,,,4,,,,80,92
131910,note_on,160,0,13,,,,,,,,12,,,,47,75
131910,note_on,160,0,8,,,,,,,,6,,,,47,75
131910,note_on,160,0,5,,,,,,,,3,,,,83,92
131910,note_on,160,0,1,,,,,,,,0,,,,80,60
131910,note_on,0,0,1,,,,,,,,0,,,,83,60
131910,note_on,160,0,9,,,,,,,,7,,,,35,75
131910,note_on,160,0,11,,,,,,,,10,,,,80,75
131990,note_off,0,0,2,,,,,,,,0,,,,35,64
131990,note_off,80,0,10,,,,,,,,8,,,,83,64
131990,note_off,80,0,7,,,,,,,,5,,,,59,64
131990,note_off,80,0,11,,,,,,,,10,,,,80,64
131990,note_off,80,0,12,,,,,,,,11,,,,59,64
131990,note_off,80,0,13,,,,,,,,12,,,,47,64
131990,note_off,80,0,9,,,,,,,,7,,,,35,64
131990,note_off,80,0,8,,,,,,,,6,,,,47,64
131990,note_off,80,0,5,,,,,,,,3,,,,83,64
131990,note_off,80,0,1,,,,,,,,0,,,,83,64
131990,note_off,0,0,1,,,,,,,,0,,,,80,64
131990,note_off,80,0,6,,,,,,,,4,,,,80,64
131990,note_off,80,0,2,,,,,,,,0,,,,47,64
132000,note_on,160,0,15,,,,,,,,14,,,,40,75
132000,note_on,160,0,14,,,,,,,,13,,,,40,75
132030,note_on,0,0,1,,,,,,,,0,,,,81,60
132030,note_on,40,0,1,,,,,,,,0,,,,78,60
132030,note_on,40,0,6,,,,,,,,4,,,,78,92
132030,note_on,40,0,5,,,,,,,,3,,,,81,92
132030,note_on,40,0,11,,,,,,,,10,,,,78,75
132030,note_on,40,0,10,,,,,,,,8,,,,81,75
132080,note_off,80,0,14,,,,,,,,13,,,,40,64
132080,note_off,80,0,15,,,,,,,,14,,,,40,64
132110,note_off,80,0,5,,,,,,,,3,,,,81,64
132110,note_off,80,0,10,,,,,,,,8,,,,81,64
132110,note_off,80,0,11,,,,,,,,10,,,,78,64
132110,note_off,80,0,1,,,,,,,,0,,,,81,64
132110,note_off,80,0,6,,,,,,,,4,,,,78,64
132110,note_off,0,0,1,,,,,,,,0,,,,78,64
132150,note_on,160,0,7,,,,,,,,5,,,,59,75
132150,note_on,160,0,12,,,,,,,,11,,,,59,75
132150,note_on,40,0,11,,,,,,,,10,,,,76,75
132150,note_on,160,0,13,,,,,,,,12,,,,52,75
132150,note_on,40,0,6,,,,,,,,4,,,,76,92
132150,note_on,160,0,2,,,,,,,,0,,,,40,60
132150,note_on,40,0,10,,,,,,,,8,,,,80,75
132150,note_on,160,0,8,,,,,,,,6,,,,52,75
132150,note_on,0,0,2,,,,,,,,0,,,,52,60
132150,note_on,40,0,1,,,,,,,,0,,,,76,60
132150,note_on,160,0,9,,,,,,,,7,,,,40,75
132150,note_on,40,0,5,,,,,,,,3,,,,80,92
132150,note_on,0,0,1,,,,,,,,0,,,,80,60
132230,note_off,0,0,2,,,,,,,,0,,,,40,64
132230,note_off,80,0,1,,,,,,,,0,,,,80,64
132230,note_off,80,0,12,,,,,,,,11,,,,59,64
132230,note_off,0,0,1,,,,,,,,0,,,,76,64
132230,note_off,80,0,9,,,,,,,,7,,,,40,64
132230,note_off,80,0,11,,,,,,,,10,,,,76,64
132230,note_off,80,0,8,,,,,,,,6,,,,52,64
132230,note_off,80,0,5,,,,,,,,3,,,,80,64
132230,note_off,80,0,7,,,,,,,,5,,,,59,64
132230,note_off,80,0,6,,,,,,,,4,,,,76,64
132230,note_off,80,0,2,,,,,,,,0,,,,52,64
132230,note_off,80,0,10,,,,,,,,8,,,,80,64
132230,note_off,80,0,13,,,,,,,,12,,,,52,64
132240,note_on,160,0,15,,,,,,,,14,,,,35,75
132240,note_on,160,0,14,,,,,,,,13,,,,35,75
132320,note_off,80,0,14,,,,,,,,13,,,,35,64
132320,note_off,80,0,15,,,,,,,,14,,,,35,64
132390,note_on,0,0,1,,,,,,,,0,,,,80,60
132390,note_on,160,0,1,,,,,,,,0,,,,76,60
132390,note_on,160,0,7,,,,,,,,5,,,,59,75
132390,note_on,160,0,11,,,,,,,,10,,,,76,75
132390,note_on,160,0,9,,,,,,,,7,,,,40,75
132390,note_on,0,0,2,,,,,,,,0,,,,52,60
132390,note_on,160,0,8,,,,,,,,6,,,,52,75
132390,note_on,160,0,6,,,,,,,,4,,,,76,92
132390,note_on,160,0,5,,,,,,,,3,,,,80,92
132390,note_on,160,0,10,,,,,,,,8,,,,80,75
132390,note_on,160,0,2,,,,,,,,0,,,,40,60
132390,note_on,160,0,13,,,,,,,,12,,,,52,75
132390,note_on,160,0,12,,,,,,,,11,,,,59,75
132470,note_off,80,0,8,,,,,,,,6,,,,52,64
132470,note_off,80,0,2,,,,,,,,0,,,,52,64
132470,note_off,0,0,2,,,,,,,,0,,,,40,64
132470,note_off,80,0,13,,,,,,,,12,,,,52,64
132470,note_off,80,0,10,,,,,,,,8,,,,80,64
132470,note_off,80,0,5,,,,,,,,3,,,,80,64
132470,note_off,80,0,9,,,,,,,,7,,,,40,64
132470,note_off,80,0,6,,,,,,,,4,,,,76,64
132470,note_off,80,0,11,,,,,,,,10,,,,76,64
132470,note_off,80,0,12,,,,,,,,11,,,,59,64
132470,note_off,0,0,1,,,,,,,,0,,,,76,64
132470,note_off,80,0,1,,,,,,,,0,,,,80,64
132470,note_off,80,0,7,,,,,,,,5,,,,59,64
132480,note_on,160,0,15,,,,,,,,14,,,,40,75
132480,note_on,160,0,14,,,,,,,,13,,,,40,75
132560,note_off,80,0,14,,,,,,,,13,,,,40,64
132560,note_off,80,0,15,,,,,,,,14,,,,40,64
132630,note_on,0,0,2,,,,,,,,0,,,,52,60
132630,note_on,160,0,2,,,,,,,,0,,,,40,60
132630,note_on,160,0,10,,,,,,,,8,,,,80,75
132630,note_on,160,0,11,,,,,,,,10,,,,76,75
132630,note_on,160,0,13,,,,,,,,12,,,,52,75
132630,note_on,0,0,1,,,,,,,,0,,,,80,60
132630,note_on,160,0,5,,,,,,,,3,,,,80,92
132630,note_on,160,0,7,,,,,,,,5,,,,59,75
132630,note_on,160,0,1,,,,,,,,0,,,,76,60
132630,note_on,160,0,9,,,,,,,,7,,,,40,75
132630,note_on,160,0,12,,,,,,,,11,,,,59,75
132630,note_on,160,0,6,,,,,,,,4,,,,76,92
132630,note_on,160,0,8,,,,,,,,6,,,,52,75
132710,note_off,80,0,12,,,,,,,,11,,,,59,64
132710,note_off,80,0,10,,,,,,,,8,,,,80,64
132710,note_off,80,0,5,,,,,,,,3,,,,80,64
132710,note_off,0,0,2,,,,,,,,0,,,,40,64
132710,note_off,80,0,2,,,,,,,,0,,,,52,64
132710,note_off,80,0,7,,,,,,,,5,,,,59,64
132710,note_off,80,0,13,,,,,,,,12,,,,52,64
132710,note_off,80,0,8,,,,,,,,6,,,,52,64
132710,note_off,0,0,1,,,,,,,,0,,,,76,64
132710,note_off,80,0,6,,,,,,,,4,,,,76,64
132710,note_off,80,0,11,,,,,,,,10,,,,76,64
132710,note_off,80,0,1,,,,,,,,0,,,,80,64
132710,note_off,80,0,9,,,,,,,,7,,,,40,64
132720,note_on,160,0,14,,,,,,,,13,,,,40,75
132720,note_on,160,0,15,,,,,,,,14,,,,40,75
132800,note_off,80,0,15,,,,,,,,14,,,,40,64
132800,note_off,80,0,14,,,,,,,,13,,,,40,64
132870,note_on,160,0,13,,,,,,,,12,,,,47,75
132870,note_on,160,0,10,,,,,,,,8,,,,80,75
132870,note_on,160,0,7,,,,,,,,5,,,,59,75
132870,note_on,0,0,2,,,,,,,,0,,,,47,60
132870,note_on,160,0,12,,,,,,,,11,,,,59,75
132870,note_on,160,0,8,,,,,,,,6,,,,47,75
132870,note_on,160,0,6,,,,,,,,4,,,,76,92
132870,note_on,160,0,2,,,,,,,,0,,,,35,60
132870,note_on,160,0,9,,,,,,,,7,,,,35,75
132870,note_on,160,0,5,,,,,,,,3,,,,80,92
132870,note_on,160,0,11,,,,,,,,10,,,,76,75
132870,note_on,0,0,1,,,,,,,,0,,,,80,60
132870,note_on,160,0,1,,,,,,,,0,,,,76,60
132950,note_off,80,0,2,,,,,,,,0,,,,47,64
132950,note_off,0,0,1,,,,,,,,0,,,,76,64
132950,note_off,80,0,1,,,,,,,,0,,,,80,64
132950,note_off,80,0,13,,,,,,,,12,,,,47,64
132950,note_off,0,0,2,,,,,,,,0,,,,35,64
132950,note_off,80,0,10,,,,,,,,8,,,,80,64
132950,note_off,80,0,6,,,,,,,,4,,,,76,64
132950,note_off,80,0,11,,,,,,,,10,,,,76,64
132950,note_off,80,0,9,,,,,,,,7,,,,35,64
132950,note_off,80,0,12,,,,,,,,11,,,,59,64
132950,note_off,80,0,8,,,,,,,,6,,,,47,64
132950,note_off,80,0,5,,,,,,,,3,,,,80,64
132950,note_off,80,0,7,,,,,,,,5,,,,59,64
132960,note_on,160,0,15,,,,,,,,14,,,,40,75
132960,note_on,160,0,14,,,,,,,,13,,,,40,75
132990,note_on,40,0,6,,,,,,,,4,,,,78,92
132990,note_on,40,0,10,,,,,,,,8,,,,81,75
132990,note_on,40,0,5,,,,,,,,3,,,,81,92
132990,note_on,0,0,1,,,,,,,,0,,,,81,60
132990,note_on,40,0,1,,,,,,,,0,,,,78,60
132990,note_on,40,0,11,,,,,,,,10,,,,78,75
133040,note_off,80,0,14,,,,,,,,13,,,,40,64
133040,note_off,80,0,15,,,,,,,,14,,,,40,64
133070,note_off,0,0,1,,,,,,,,0,,,,78,64
133070,note_off,80,0,1,,,,,,,,0,,,,81,64
133070,note_off,80,0,10,,,,,,,,8,,,,81,64
133070,note_off,80,0,5,,,,,,,,3,,,,81,64
133070,note_off,80,0,6,,,,,,,,4,,,,78,64
133070,note_off,80,0,11,,,,,,,,10,,,,78,64
133110,note_on,160,0,12,,,,,,,,11,,,,59,75
133110,note_on,40,0,10,,,,,,,,8,,,,83,75
133110,note_on,0,0,2,,,,,,,,0,,,,52,60
133110,note_on,40,0,11,,,,,,,,10,,,,80,75
133110,note_on,160,0,9,,,,,,,,7,,,,40,75
133110,note_on,160,0,7,,,,,,,,5,,,,59,75
133110,note_on,40,0,1,,,,,,,,0,,,,80,60
133110,note_on,40,0,6,,,,,,,,4,,,,80,92
133110,note_on,40,0,5,,,,,,,,3,,,,83,92
133110,note_on,160,0,8,,,,,,,,6,,,,52,75
133110,note_on,160,0,13,,,,,,,,12,,,,52,75
133110,note_on,160,0,2,,,,,,,,0,,,,40,60
133110,note_on,0,0,1,,,,,,,,0,,,,83,60
133190,note_off,80,0,7,,,,,,,,5,,,,59,64
133190,note_off,80,0,6,,,,,,,,4,,,,80,64
133190,note_off,0,0,2,,,,,,,,0,,,,40,64
133190,note_off,80,0,1,,,,,,,,0,,,,83,64
133190,note_off,80,0,12,,,,,,,,11,,,,59,64
133190,note_off,80,0,2,,,,,,,,0,,,,52,64
133190,note_off,80,0,11,,,,,,,,10,,,,80,64
133190,note_off,80,0,13,,,,,,,,12,,,,52,64
133190,note_off,80,0,10,,,,,,,,8,,,,83,64
133190,note_off,0,0,1,,,,,,,,0,,,,80,64
133190,note_off,80,0,8,,,,,,,,6,,,,52,64
133190,note_off,80,0,5,,,,,,,,3,,,,83,64
133190,note_off,80,0,9,,,,,,,,7,,,,40,64
133200,note_on,160,0,14,,,,,,,,13,,,,35,75
133200,note_on,160,0,15,,,,,,,,14,,,,35,75
133280,note_off,80,0,14,,,,,,,,13,,,,35,64
133280,note_off,80,0,15,,,,,,,,14,,,,35,64
133350,note_on,0,0,2,,,,,,,,0,,,,52,60
133350,note_on,160,0,9,,,,,,,,7,,,,40,75
133350,note_on,160,0,8,,,,,,,,6,,,,52,75
133350,note_on,160,0,12,,,,,,,,11,,,,59,75
133350,note_on,160,0,10,,,,,,,,8,,,,83,75
133350,note_on,160,0,7,,,,,,,,5,,,,59,75
133350,note_on,160,0,11,,,,,,,,10,,,,80,75
133350,note_on,160,0,6,,,,,,,,4,,,,80,92
133350,note_on,160,0,13,,,,,,,,12,,,,52,75
133350,note_on,160,0,2,,,,,,,,0,,,,40,60
133350,note_on,160,0,1,,,,,,,,0,,,,80,60
133350,note_on,0,0,1,,,,,,,,0,,,,83,60
133350,note_on,160,0,5,,,,,,,,3,,,,83,92
133430,note_off,80,0,11,,,,,,,,10,,,,80,64
133430,note_off,80,0,13,,,,,,,,12,,,,52,64
133430,note_off,80,0,1,,,,,,,,0,,,,83,64
133430,note_off,0,0,1,,,,,,,,0,,,,80,64
133430,note_off,80,0,8,,,,,,,,6,,,,52,64
133430,note_off,0,0,2,,,,,,,,0,,,,40,64
133430,note_off,80,0,7,,,,,,,,5,,,,59,64
133430,note_off,80,0,5,,,,,,,,3,,,,83,64
133430,note_off,80,0,10,,,,,,,,8,,,,83,64
133430,note_off,80,0,12,,,,,,,,11,,,,59,64
133430,note_off,80,0,6,,,,,,,,4,,,,80,64
133430,note_off,80,0,2,,,,,,,,0,,,,52,64
133430,note_off,80,0,9,,,,,,,,7,,,,40,64
133440,note_on,160,0,15,,,,,,,,14,,,,40,75
133440,note_on,160,0,14,,,,,,,,13,,,,40,75
133520,note_off,80,0,14,,,,,,,,13,,,,40,64
133520,note_off,80,0,15,,,,,,,,14,,,,40,64
133590,note_on,160,0,1,,,,,,,,0,,,,80,60
133590,note_on,160,0,13,,,,,,,,12,,,,52,75
133590,note_on,160,0,12,,,,,,,,11,,,,59,75
133590,note_on,160,0,7,,,,,,,,5,,,,59,75
133590,note_on,160,0,5,,,,,,,,3,,,,83,92
133590,note_on,160,0,11,,,,,,,,10,,,,80,75
133590,note_on,0,0,1,,,,,,,,0,,,,83,60
133590,note_on,160,0,6,,,,,,,,4,,,,80,92
133590,note_on,160,0,8,,,,,,,,6,,,,52,75
133590,note_on,160,0,9,,,,,,,,7,,,,40,75
133590,note_on,160,0,10,,,,,,,,8,,,,83,75
133590,note_on,160,0,2,,,,,,,,0,,,,40,60
133590,note_on,0,0,2,,,,,,,,0,,,,52,60
133670,note_off,0,0,1,,,,,,,,0,,,,80,64
133670,note_off,80,0,8,,,,,,,,6,,,,52,64
133670,note_off,80,0,11,,,,,,,,10,,,,80,64
133670,note_off,80,0,2,,,,,,,,0,,,,52,64
133670,note_off,80,0,9,,,,,,,,7,,,,40,64
133670,note_off,80,0,5,,,,,,,,3,,,,83,64
133670,note_off,80,0,10,,,,,,,,8,,,,83,64
133670,note_off,80,0,12,,,,,,,,11,,,,59,64
133670,note_off,80,0,1,,,,,,,,0,,,,83,64
133670,note_off,80,0,13,,,,,,,,12,,,,52,64
133670,note_off,0,0,2,,,,,,,,0,,,,40,64
133670,note_off,80,0,6,,,,,,,,4,,,,80,64
133670,note_off,80,0,7,,,,,,,,5,,,,59,64
133680,note_on,160,0,14,,,,,,,,13,,,,40,75
133680,note_on,160,0,15,,,,,,,,14,,,,40,75
133760,note_off,80,0,14,,,,,,,,13,,,,40,64
133760,note_off,80,0,15,,,,,,,,14,,,,40,64
133830,note_on,160,0,2,,,,,,,,0,,,,35,60
133830,note_on,160,0,7,,,,,,,,5,,,,59,75
133830,note_on,160,0,12,,,,,,,,11,,,,59,75
133830,note_on,160,0,6,,,,,,,,4,,,,78,92
133830,note_on,160,0,5,,,,,,,,3,,,,81,92
133830,note_on,0,0,1,,,,,,,,0,,,,81,60
133830,note_on,160,0,1,,,,,,,,0,,,,78,60
133830,note_on,160,0,9,,,,,,,,7,,,,35,75
133830,note_on,0,0,2,,,,,,,,0,,,,47,60
133830,note_on,160,0,13,,,,,,,,12,,,,47,75
133830,note_on,160,0,8,,,,,,,,6,,,,47,75
133830,note_on,160,0,10,,,,,,,,8,,,,81,75
133830,note_on,160,0,11,,,,,,,,10,,,,78,75
133910,note_off,0,0,2,,,,,,,,0,,,,35,64
133910,note_off,80,0,1,,,,,,,,0,,,,81,64
133910,note_off,80,0,6,,,,,,,,4,,,,78,64
133910,note_off,0,0,1,,,,,,,,0,,,,78,64
133910,note_off,80,0,11,,,,,,,,10,,,,78,64
133910,note_off,80,0,9,,,,,,,,7,,,,35,64
133910,note_off,80,0,2,,,,,,,,0,,,,47,64
133910,note_off,80,0,8,,,,,,,,6,,,,47,64
133910,note_off,80,0,13,,,,,,,,12,,,,47,64
133910,note_off,80,0,7,,,,,,,,5,,,,59,64
133910,note_off,80,0,12,,,,,,,,11,,,,59,64
133910,note_off,80,0,5,,,,,,,,3,,,,81,64
133910,note_off,80,0,10,,,,,,,,8,,,,81,64
133920,note_on,160,0,14,,,,,,,,13,,,,40,75
133920,note_on,160,0,15,,,,,,,,14,,,,40,75
133950,note_on,40,0,5,,,,,,,,3,,,,80,92
133950,note_on,0,0,1,,,,,,,,0,,,,80,60
133950,note_on,40,0,1,,,,,,,,0,,,,76,60
133950,note_on,40,0,11,,,,,,,,10,,,,76,75
133950,note_on,40,0,6,,,,,,,,4,,,,76,92
133950,note_on,40,0,10,,,,,,,,8,,,,80,75
134000,note_off,80,0,15,,,,,,,,14,,,,40,64
134000,note_off,80,0,14,,,,,,,,13,,,,40,64
134030,note_off,80,0,10,,,,,,,,8,,,,80,64
134030,note_off,80,0,5,,,,,,,,3,,,,80,64
134030,note_off,80,0,11,,,,,,,,10,,,,76,64
134030,note_off,80,0,6,,,,,,,,4,,,,76,64
134030,note_off,80,0,1,,,,,,,,0,,,,80,64
134030,note_off,0,0,1,,,,,,,,0,,,,76,64
134070,note_on,40,0,10,,,,,,,,8,,,,78,75
134070,note_on,0,0,2,,,,,,,,0,,,,47,60
134070,note_on,160,0,2,,,,,,,,0,,,,35,60
134070,note_on,160,0,13,,,,,,,,12,,,,47,45
134070,note_on,160,0,9,,,,,,,,7,,,,35,75
134070,note_on,40,0,11,,,,,,,,10,,,,75,75
134070,note_on,0,0,1,,,,,,,,0,,,,78,60
134070,note_on,40,0,1,,,,,,,,0,,,,75,60
134070,note_on,160,0,8,,,,,,,,6,,,,47,45
134070,note_on,160,0,7,,,,,,,,5,,,,59,75
134070,note_on,40,0,6,,,,,,,,4,,,,75,92
134070,note_on,160,0,12,,,,,,,,11,,,,59,75
134070,note_on,40,0,5,,,,,,,,3,,,,78,92
134150,note_off,0,0,1,,,,,,,,0,,,,75,64
134150,note_off,80,0,1,,,,,,,,0,,,,78,64
134150,note_off,80,0,11,,,,,,,,10,,,,75,64
134150,note_off,80,0,5,,,,,,,,3,,,,78,64
134150,note_off,80,0,10,,,,,,,,8,,,,78,64
134150,note_off,80,0,6,,,,,,,,4,,,,75,64
134160,note_on,160,0,14,,,,,,,,13,,,,35,75
134160,note_on,160,0,15,,,,,,,,14,,,,35,75
134190,note_on,8765,0,4,,,,,,,,2,,,,71,45
134190,set_tempo,134070,1,0,600000,,,,,,,,,,,,
134190,note_on,8760,0,3,,,,,,,,1,,,,71,60
134240,note_off,80,0,15,,,,,,,,14,,,,35,64
134240,note_off,80,0,14,,,,,,,,13,,,,35,64
134270,note_off,80,0,4,,,,,,,,2,,,,71,64
134270,note_off,80,0,3,,,,,,,,1,,,,71,64
134310,note_on,40,0,4,,,,,,,,2,,,,73,45
134310,note_on,40,0,3,,,,,,,,1,,,,73,60
134400,note_on,160,0,15,,,,,,,,14,,,,35,75
134400,note_on,160,0,14,,,,,,,,13,,,,35,75
134430,note_on,0,0,4,,,,,,,,2,,,,71,45
134430,note_off,120,0,4,,,,,,,,2,,,,73,64
134430,note_on,0,0,3,,,,,,,,1,,,,71,60
134430,note_off,120,0,3,,,,,,,,1,,,,73,64
134470,note_off,400,0,2,,,,,,,,0,,,,47,64
134470,note_off,0,0,2,,,,,,,,0,,,,35,64
134470,note_off,400,0,7,,,,,,,,5,,,,59,64
134470,note_off,400,0,9,,,,,,,,7,,,,35,64
134470,note_off,400,0,12,,,,,,,,11,,,,59,64
134510,note_off,80,0,3,,,,,,,,1,,,,71,64
134510,note_off,80,0,4,,,,,,,,2,,,,71,64
134550,note_on,40,0,3,,,,,,,,1,,,,75,60
134550,note_on,40,0,4,,,,,,,,2,,,,75,45
134670,note_off,120,0,3,,,,,,,,1,,,,75,64
134670,note_on,0,0,3,,,,,,,,1,,,,73,60
134670,note_on,0,0,4,,,,,,,,2,,,,73,45
134670,note_off,120,0,4,,,,,,,,2,,,,75,64
134750,note_off,80,0,4,,,,,,,,2,,,,73,64
134750,note_off,80,0,3,,,,,,,,1,,,,73,64
134790,note_on,40,0,3,,,,,,,,1,,,,76,60
134790,note_on,40,0,4,,,,,,,,2,,,,76,45
134800,note_off,400,0,15,,,,,,,,14,,,,35,64
134800,note_off,400,0,14,,,,,,,,13,,,,35,64
134910,note_off,120,0,3,,,,,,,,1,,,,76,64
134910,note_on,0,0,3,,,,,,,,1,,,,75,60
134910,note_on,0,0,4,,,,,,,,2,,,,75,45
134910,note_off,120,0,4,,,,,,,,2,,,,76,64
134990,note_off,80,0,3,,,,,,,,1,,,,75,64
134990,note_off,80,0,4,,,,,,,,2,,,,75,64
135030,note_on,40,0,4,,,,,,,,2,,,,78,45
135030,note_on,40,0,3,,,,,,,,1,,,,78,60
135150,note_on,0,0,3,,,,,,,,1,,,,76,59
135150,note_off,120,0,3,,,,,,,,1,,,,78,64
135150,note_on,0,0,4,,,,,,,,2,,,,76,44
135150,note_off,120,0,4,,,,,,,,2,,,,78,64
135230,note_off,80,0,3,,,,,,,,1,,,,76,64
135230,note_off,80,0,4,,,,,,,,2,,,,76,64
135270,note_on,40,0,4,,,,,,,,2,,,,80,42
135270,note_on,40,0,3,,,,,,,,1,,,,80,57
135390,note_off,120,0,4,,,,,,,,2,,,,80,64
135390,note_on,0,0,4,,,,,,,,2,,,,78,40
135390,note_off,120,0,3,,,,,,,,1,,,,80,64
135390,note_on,0,0,3,,,,,,,,1,,,,78,55
135470,note_off,80,0,4,,,,,,,,2,,,,78,64
135470,note_off,80,0,3,,,,,,,,1,,,,78,64
135510,note_on,40,0,3,,,,,,,,1,,,,81,53
135510,note_on,40,0,4,,,,,,,,2,,,,81,38
135630,note_on,0,0,4,,,,,,,,2,,,,80,36
135630,note_off,120,0,3,,,,,,,,1,,,,81,64
135630,note_off,120,0,4,,,,,,,,2,,,,81,64
135630,note_on,0,0,3,,,,,,,,1,,,,80,51
135710,note_off,80,0,4,,,,,,,,2,,,,80,64
135710,note_off,80,0,3,,,,,,,,1,,,,80,64
135750,note_on,40,0,3,,,,,,,,1,,,,83,49
135750,note_on,40,0,4,,,,,,,,2,,,,83,34
135870,note_off,120,0,3,,,,,,,,1,,,,83,64
135870,note_on,0,0,3,,,,,,,,1,,,,81,47
135870,note_off,120,0,4,,,,,,,,2,,,,83,64
135870,note_on,0,0,4,,,,,,,,2,,,,81,32
135950,note_off,80,0,3,,,,,,,,1,,,,81,64
135950,note_off,80,0,4,,,,,,,,2,,,,81,64
135990,note_on,40,0,3,,,,,,,,1,,,,71,45
135990,set_tempo,1800,1,0,652173,,,,,,,,,,,,
135990,note_on,40,0,4,,,,,,,,2,,,,71,30
136110,note_on,0,0,4,,,,,,,,2,,,,69,30
136110,set_tempo,120,1,0,600000,,,,,,,,,,,,
136110,note_off,120,0,3,,,,,,,,1,,,,71,64
136110,note_off,120,0,4,,,,,,,,2,,,,71,64
136110,note_on,0,0,3,,,,,,,,1,,,,69,45
136190,note_off,80,0,4,,,,,,,,2,,,,69,64
136190,note_off,80,0,3,,,,,,,,1,,,,69,64
136230,note_on,40,0,4,,,,,,,,2,,,,73,30
136230,note_on,40,0,3,,,,,,,,1,,,,73,45
136350,note_on,0,0,3,,,,,,,,1,,,,71,45
136350,note_off,120,0,3,,,,,,,,1,,,,73,64
136350,note_off,120,0,4,,,,,,,,2,,,,73,64
136350,note_on,0,0,4,,,,,,,,2,,,,71,30
136430,note_off,80,0,4,,,,,,,,2,,,,71,64
136430,note_off,80,0,3,,,,,,,,1,,,,71,64
136470,note_on,40,0,3,,,,,,,,1,,,,75,45
136470,note_on,40,0,4,,,,,,,,2,,,,75,30
136590,note_on,0,0,4,,,,,,,,2,,,,73,30
136590,note_off,120,0,4,,,,,,,,2,,,,75,64
136590,note_off,120,0,3,,,,,,,,1,,,,75,64
136590,note_on,0,0,3,,,,,,,,1,,,,73,45
136670,note_off,80,0,3,,,,,,,,1,,,,73,64
136670,note_off,80,0,4,,,,,,,,2,,,,73,64
136710,note_on,40,0,4,,,,,,,,2,,,,76,30
136710,note_on,40,0,3,,,,,,,,1,,,,76,45
136830,note_on,0,0,3,,,,,,,,1,,,,75,45
136830,note_on,0,0,4,,,,,,,,2,,,,75,30
136830,note_off,120,0,4,,,,,,,,2,,,,76,64
136830,note_off,120,0,3,,,,,,,,1,,,,76,64
136910,note_off,80,0,4,,,,,,,,2,,,,75,64
136910,note_off,80,0,3,,,,,,,,1,,,,75,64
136950,note_on,40,0,4,,,,,,,,2,,,,78,30
136950,note_on,40,0,3,,,,,,,,1,,,,78,45
137070,note_on,0,0,3,,,,,,,,1,,,,76,46
137070,note_off,120,0,4,,,,,,,,2,,,,78,64
137070,note_on,0,0,4,,,,,,,,2,,,,76,31
137070,note_off,120,0,3,,,,,,,,1,,,,78,64
137150,note_off,80,0,4,,,,,,,,2,,,,76,64
137150,note_off,80,0,3,,,,,,,,1,,,,76,64
137190,note_on,40,0,3,,,,,,,,1,,,,80,48
137190,note_on,40,0,4,,,,,,,,2,,,,80,33
137310,note_off,120,0,4,,,,,,,,2,,,,80,64
137310,note_on,0,0,4,,,,,,,,2,,,,78,35
137310,note_off,120,0,3,,,,,,,,1,,,,80,64
137310,note_on,0,0,3,,,,,,,,1,,,,78,50
137390,note_off,80,0,3,,,,,,,,1,,,,78,64
137390,note_off,80,0,4,,,,,,,,2,,,,78,64
137430,note_on,40,0,3,,,,,,,,1,,,,81,52
137430,note_on,40,0,4,,,,,,,,2,,,,81,37
137550,note_off,120,0,3,,,,,,,,1,,,,81,64
137550,note_on,0,0,3,,,,,,,,1,,,,80,54
137550,note_on,0,0,4,,,,,,,,2,,,,80,39
137550,note_off,120,0,4,,,,,,,,2,,,,81,64
137630,note_off,80,0,3,,,,,,,,1,,,,80,64
137630,note_off,80,0,4,,,,,,,,2,,,,80,64
137670,note_on,40,0,3,,,,,,,,1,,,,83,56
137670,note_on,40,0,4,,,,,,,,2,,,,83,41
137790,note_on,0,0,3,,,,,,,,1,,,,81,58
137790,note_off,120,0,3,,,,,,,,1,,,,83,64
137790,note_off,3720,0,13,,,,,,,,12,,,,47,64
137790,note_off,3720,0,8,,,,,,,,6,,,,47,64
137790,note_on,0,0,4,,,,,,,,2,,,,81,43
137790,note_off,120,0,4,,,,,,,,2,,,,83,64
137870,note_off,80,0,3,,,,,,,,1,,,,81,64
137870,note_off,80,0,4,,,,,,,,2,,,,81,64
137910,note_on,120,0,8,,,,,,,,6,,,,52,45
137910,note_on,120,0,13,,,,,,,,12,,,,52,45
137910,note_on,40,0,3,,,,,,,,1,,,,80,60
137910,note_on,40,0,4,,,,,,,,2,,,,80,45
138030,note_off,120,0,4,,,,,,,,2,,,,80,64
138030,note_on,0,0,3,,,,,,,,1,,,,76,60
138030,note_on,0,0,4,,,,,,,,2,,,,76,45
138030,note_off,120,0,3,,,,,,,,1,,,,80,64
138110,note_off,80,0,3,,,,,,,,1,,,,76,64
138110,note_off,80,0,4,,,,,,,,2,,,,76,64
138150,note_on,40,0,4,,,,,,,,2,,,,78,45
138150,note_on,40,0,3,,,,,,,,1,,,,78,60
138270,note_on,0,0,4,,,,,,,,2,,,,76,45
138270,note_off,120,0,4,,,,,,,,2,,,,78,64
138270,note_on,0,0,3,,,,,,,,1,,,,76,60
138270,note_off,120,0,3,,,,,,,,1,,,,78,64
138310,note_off,400,0,8,,,,,,,,6,,,,52,64
138310,note_off,400,0,13,,,,,,,,12,,,,52,64
138350,note_off,80,0,4,,,,,,,,2,,,,76,64
138350,note_off,80,0,3,,,,,,,,1,,,,76,64
138390,note_on,40,0,3,,,,,,,,1,,,,80,60
138390,note_on,80,0,8,,,,,,,,6,,,,52,45
138390,note_on,80,0,13,,,,,,,,12,,,,52,45
138390,note_on,40,0,4,,,,,,,,2,,,,80,45
138510,note_on,0,0,4,,,,,,,,2,,,,76,45
138510,note_off,120,0,4,,,,,,,,2,,,,80,64
138510,note_on,0,0,3,,,,,,,,1,,,,76,60
138510,note_off,120,0,3,,,,,,,,1,,,,80,64
138590,note_off,80,0,3,,,,,,,,1,,,,76,64
138590,note_off,80,0,4,,,,,,,,2,,,,76,64
138630,note_on,40,0,3,,,,,,,,1,,,,78,60
138630,note_on,40,0,4,,,,,,,,2,,,,78,45
138750,note_off,120,0,3,,,,,,,,1,,,,78,64
138750,note_on,0,0,3,,,,,,,,1,,,,76,60
138750,note_off,120,0,4,,,,,,,,2,,,,78,64
138750,note_on,0,0,4,,,,,,,,2,,,,76,45
138790,note_off,400,0,8,,,,,,,,6,,,,52,64
138790,note_off,400,0,13,,,,,,,,12,,,,52,64
138830,note_off,80,0,3,,,,,,,,1,,,,76,64
138830,note_off,80,0,4,,,,,,,,2,,,,76,64
138870,note_on,40,0,4,,,,,,,,2,,,,81,45
138870,note_on,80,0,8,,,,,,,,6,,,,54,45
138870,note_on,40,0,3,,,,,,,,1,,,,81,60
138870,note_on,80,0,13,,,,,,,,12,,,,54,45
138870,set_tempo,2760,1,0,612244,,,,,,,,,,,,
138990,note_on,0,0,4,,,,,,,,2,,,,76,45
138990,note_off,120,0,3,,,,,,,,1,,,,81,64
138990,note_off,120,0,4,,,,,,,,2,,,,81,64
138990,note_on,0,0,3,,,,,,,,1,,,,76,60
139070,note_off,80,0,3,,,,,,,,1,,,,76,64
139070,note_off,80,0,4,,,,,,,,2,,,,76,64
139110,note_on,40,0,3,,,,,,,,1,,,,78,60
139110,set_tempo,240,1,0,625000,,,,,,,,,,,,
139110,note_on,40,0,4,,,,,,,,2,,,,78,45
139230,note_off,120,0,3,,,,,,,,1,,,,78,64
139230,note_off,120,0,4,,,,,,,,2,,,,78,64
139230,note_on,0,0,3,,,,,,,,1,,,,76,60
139230,note_on,0,0,4,,,,,,,,2,,,,76,45
139270,note_off,400,0,13,,,,,,,,12,,,,54,64
139270,note_off,400,0,8,,,,,,,,6,,,,54,64
139310,note_off,80,0,4,,,,,,,,2,,,,76,64
139310,note_off,80,0,3,,,,,,,,1,,,,76,64
139350,note_on,80,0,13,,,,,,,,12,,,,54,45
139350,note_on,80,0,8,,,,,,,,6,,,,54,45
139350,note_on,40,0,4,,,,,,,,2,,,,81,45
139350,set_tempo,240,1,0,638297,,,,,,,,,,,,
139350,note_on,40,0,3,,,,,,,,1,,,,81,60
139470,note_on,0,0,3,,,,,,,,1,,,,76,60
139470,note_off,120,0,4,,,,,,,,2,,,,81,64
139470,note_on,0,0,4,,,,,,,,2,,,,76,45
139470,note_off,120,0,3,,,,,,,,1,,,,81,64
139550,note_off,80,0,3,,,,,,,,1,,,,76,64
139550,note_off,80,0,4,,,,,,,,2,,,,76,64
139590,note_on,40,0,3,,,,,,,,1,,,,78,60
139590,set_tempo,240,1,0,652173,,,,,,,,,,,,
139590,note_on,40,0,4,,,,,,,,2,,,,78,45
139710,note_off,120,0,4,,,,,,,,2,,,,78,64
139710,note_on,0,0,4,,,,,,,,2,,,,76,45
139710,note_on,0,0,3,,,,,,,,1,,,,76,60
139710,note_off,120,0,3,,,,,,,,1,,,,78,64
139750,note_off,400,0,8,,,,,,,,6,,,,54,64
139750,note_off,400,0,13,,,,,,,,12,,,,54,64
139790,note_off,80,0,4,,,,,,,,2,,,,76,64
139790,note_off,80,0,3,,,,,,,,1,,,,76,64
139830,note_on,80,0,13,,,,,,,,12,,,,56,45
139830,note_on,40,0,4,,,,,,,,2,,,,83,45
139830,set_tempo,240,1,0,666666,,,,,,,,,,,,
139830,note_on,80,0,8,,,,,,,,6,,,,56,45
139830,note_on,40,0,3,,,,,,,,1,,,,83,60
139950,note_on,0,0,4,,,,,,,,2,,,,76,45
139950,note_off,120,0,4,,,,,,,,2,,,,83,64
139950,note_on,0,0,3,,,,,,,,1,,,,76,60
139950,note_off,120,0,3,,,,,,,,1,,,,83,64
140030,note_off,80,0,4,,,,,,,,2,,,,76,64
140030,note_off,80,0,3,,,,,,,,1,,,,76,64
140070,note_on,40,0,3,,,,,,,,1,,,,78,60
140070,note_on,40,0,4,,,,,,,,2,,,,78,45
140190,note_on,0,0,3,,,,,,,,1,,,,76,60
140190,note_off,120,0,3,,,,,,,,1,,,,78,64
140190,note_off,120,0,4,,,,,,,,2,,,,78,64
140190,note_on,0,0,4,,,,,,,,2,,,,76,45
140230,note_off,400,0,8,,,,,,,,6,,,,56,64
140230,note_off,400,0,13,,,,,,,,12,,,,56,64
140270,note_off,80,0,3,,,,,,,,1,,,,76,64
140270,note_off,80,0,4,,,,,,,,2,,,,76,64
140310,note_on,80,0,13,,,,,,,,12,,,,56,45
140310,note_on,40,0,4,,,,,,,,2,,,,83,45
140310,note_on,40,0,3,,,,,,,,1,,,,83,60
140310,set_tempo,480,1,0,681818,,,,,,,,,,,,
140310,note_on,80,0,8,,,,,,,,6,,,,56,45
140430,note_off,120,0,3,,,,,,,,1,,,,83,64
140430,note_on,0,0,3,,,,,,,,1,,,,76,60
140430,note_off,120,0,4,,,,,,,,2,,,,83,64
140430,note_on,0,0,4,,,,,,,,2,,,,76,45
140510,note_off,80,0,3,,,,,,,,1,,,,76,64
140510,note_off,80,0,4,,,,,,,,2,,,,76,64
140550,note_on,40,0,4,,,,,,,,2,,,,78,45
140550,note_on,40,0,3,,,,,,,,1,,,,78,60
140670,note_off,120,0,3,,,,,,,,1,,,,78,64
140670,note_on,0,0,3,,,,,,,,1,,,,76,60
140670,note_on,0,0,4,,,,,,,,2,,,,76,45
140670,note_off,120,0,4,,,,,,,,2,,,,78,64
140710,note_off,400,0,13,,,,,,,,12,,,,56,64
140710,note_off,400,0,8,,,,,,,,6,,,,56,64
140750,note_off,80,0,4,,,,,,,,2,,,,76,64
140750,note_off,80,0,3,,,,,,,,1,,,,76,64
140790,note_on,40,0,4,,,,,,,,2,,,,85,45
140790,set_tempo,480,1,0,697674,,,,,,,,,,,,
140790,note_on,80,0,13,,,,,,,,12,,,,57,45
140790,note_on,80,0,8,,,,,,,,6,,,,57,45
140790,note_on,40,0,3,,,,,,,,1,,,,85,60
141030,note_on,0,0,3,,,,,,,,1,,,,87,60
141030,set_tempo,240,1,0,731707,,,,,,,,,,,,
141030,note_off,240,0,4,,,,,,,,2,,,,85,64
141030,note_on,0,0,4,,,,,,,,2,,,,87,45
141030,note_off,240,0,3,,,,,,,,1,,,,85,64
141190,note_off,400,0,8,,,,,,,,6,,,,57,64
141190,note_off,400,0,13,,,,,,,,12,,,,57,64
141270,note_on,80,0,13,,,,,,,,12,,,,56,45
141270,note_on,0,0,4,,,,,,,,2,,,,88,45
141270,note_off,240,0,4,,,,,,,,2,,,,87,64
141270,note_on,80,0,8,,,,,,,,6,,,,56,45
141270,set_tempo,240,1,0,789473,,,,,,,,,,,,
141270,note_off,240,0,3,,,,,,,,1,,,,87,64
141270,note_on,0,0,3,,,,,,,,1,,,,88,60
141505,note_off,235,0,13,,,,,,,,12,,,,56,64
141505,note_off,235,0,8,,,,,,,,6,,,,56,64
141510,note_on,5,0,8,,,,,,,,6,,,,54,45
141510,note_on,5,0,13,,,,,,,,12,,,,54,45
141745,note_off,235,0,13,,,,,,,,12,,,,54,64
141745,note_off,235,0,8,,,,,,,,6,,,,54,64
141750,note_on,5,0,13,,,,,,,,12,,,,52,45
141750,note_on,5,0,8,,,,,,,,6,,,,52,45
141870,set_tempo,600,1,0,652173,,,,,,,,,,,,
141990,note_on,0,0,3,,,,,,,,1,,,,83,60
141990,note_on,0,0,4,,,,,,,,2,,,,83,45
141990,note_off,720,0,4,,,,,,,,2,,,,88,64
141990,note_off,720,0,3,,,,,,,,1,,,,88,64
142070,note_off,80,0,3,,,,,,,,1,,,,83,64
142070,note_off,80,0,4,,,,,,,,2,,,,83,64
142110,note_on,40,0,4,,,,,,,,2,,,,88,45
142110,note_on,40,0,3,,,,,,,,1,,,,88,60
142150,note_off,400,0,13,,,,,,,,12,,,,52,64
142150,note_off,400,0,8,,,,,,,,6,,,,52,64
142230,note_on,0,0,4,,,,,,,,2,,,,83,45
142230,note_off,120,0,4,,,,,,,,2,,,,88,64
142230,note_off,120,0,3,,,,,,,,1,,,,88,64
142230,note_on,0,0,3,,,,,,,,1,,,,83,60
142310,note_off,80,0,4,,,,,,,,2,,,,83,64
142310,note_off,80,0,3,,,,,,,,1,,,,83,64
142350,note_on,40,0,4,,,,,,,,2,,,,85,45
142350,note_on,40,0,3,,,,,,,,1,,,,85,60
142470,note_off,120,0,4,,,,,,,,2,,,,85,64
142470,note_on,0,0,3,,,,,,,,1,,,,83,60
142470,note_on,0,0,4,,,,,,,,2,,,,83,45
142470,note_off,120,0,3,,,,,,,,1,,,,85,64
142550,note_off,80,0,4,,,,,,,,2,,,,83,64
142550,note_off,80,0,3,,,,,,,,1,,,,83,64
142590,note_on,40,0,3,,,,,,,,1,,,,88,60
142590,note_on,40,0,4,,,,,,,,2,,,,88,45
142710,note_off,120,0,4,,,,,,,,2,,,,88,64
142710,note_on,0,0,4,,,,,,,,2,,,,83,45
142710,note_on,0,0,3,,,,,,,,1,,,,83,60
142710,note_off,120,0,3,,,,,,,,1,,,,88,64
142790,note_off,80,0,4,,,,,,,,2,,,,83,64
142790,note_off,80,0,3,,,,,,,,1,,,,83,64
142830,note_on,680,0,8,,,,,,,,6,,,,52,45
142830,note_on,40,0,4,,,,,,,,2,,,,85,45
142830,note_on,40,0,3,,,,,,,,1,,,,85,60
142830,note_on,680,0,13,,,,,,,,12,,,,52,45
142950,note_off,120,0,4,,,,,,,,2,,,,85,64
142950,note_on,0,0,4,,,,,,,,2,,,,83,45
142950,note_on,0,0,3,,,,,,,,1,,,,83,60
142950,note_off,120,0,3,,,,,,,,1,,,,85,64
143030,note_off,80,0,3,,,,,,,,1,,,,83,64
143030,note_off,80,0,4,,,,,,,,2,,,,83,64
143070,note_on,40,0,4,,,,,,,,2,,,,88,45
143070,note_on,40,0,3,,,,,,,,1,,,,88,60
143190,note_on,0,0,3,,,,,,,,1,,,,83,60
143190,note_on,0,0,4,,,,,,,,2,,,,83,45
143190,note_off,120,0,4,,,,,,,,2,,,,88,64
143190,note_off,120,0,3,,,,,,,,1,,,,88,64
143230,note_off,400,0,13,,,,,,,,12,,,,52,64
143230,note_off,400,0,8,,,,,,,,6,,,,52,64
143270,note_off,80,0,3,,,,,,,,1,,,,83,64
143270,note_off,80,0,4,,,,,,,,2,,,,83,64
143310,note_on,40,0,4,,,,,,,,2,,,,85,45
143310,note_on,40,0,3,,,,,,,,1,,,,85,60
143430,note_on,0,0,3,,,,,,,,1,,,,83,60
143430,note_off,120,0,3,,,,,,,,1,,,,85,64
143430,note_on,0,0,4,,,,,,,,2,,,,83,45
143430,note_off,120,0,4,,,,,,,,2,,,,85,64
143510,note_off,80,0,4,,,,,,,,2,,,,83,64
143510,note_off,80,0,3,,,,,,,,1,,,,83,64
143550,note_on,40,0,4,,,,,,,,2,,,,88,45
143550,note_on,40,0,3,,,,,,,,1,,,,88,60
143670,note_off,120,0,4,,,,,,,,2,,,,88,64
143670,note_on,0,0,4,,,,,,,,2,,,,83,45
143670,note_off,120,0,3,,,,,,,,1,,,,88,64
143670,note_on,0,0,3,,,,,,,,1,,,,83,60
143750,note_off,80,0,4,,,,,,,,2,,,,83,64
143750,note_off,80,0,3,,,,,,,,1,,,,83,64
143790,set_tempo,1920,1,0,697674,,,,,,,,,,,,
143790,note_on,40,0,3,,,,,,,,1,,,,88,60
143790,note_on,560,0,8,,,,,,,,6,,,,52,45
143790,note_on,560,0,13,,,,,,,,12,,,,52,45
143790,note_on,40,0,4,,,,,,,,2,,,,88,45
143870,note_off,80,0,3,,,,,,,,1,,,,88,64
143870,note_off,80,0,4,,,,,,,,2,,,,88,64
144030,note_on,160,0,3,,,,,,,,1,,,,76,70
144030,note_on,160,0,4,,,,,,,,2,,,,76,50
144110,note_off,80,0,3,,,,,,,,1,,,,76,64
144110,note_off,80,0,4,,,,,,,,2,,,,76,64
144190,note_off,400,0,13,,,,,,,,12,,,,52,64
144190,note_off,400,0,8,,,,,,,,6,,,,52,64
144270,note_on,160,0,3,,,,,,,,1,,,,78,81
144270,set_tempo,480,1,0,625000,,,,,,,,,,,,
144270,note_on,80,0,8,,,,,,,,6,,,,47,75
144270,note_on,160,0,4,,,,,,,,2,,,,78,55
144270,note_on,80,0,13,,,,,,,,12,,,,47,75
144300,note_off,30,0,3,,,,,,,,1,,,,78,64
144300,note_off,30,0,4,,,,,,,,2,,,,78,64
144300,note_on,0,0,4,,,,,,,,2,,,,80,55
144300,note_on,0,0,3,,,,,,,,1,,,,80,82
144330,note_on,0,0,4,,,,,,,,2,,,,78,55
144330,note_off,30,0,4,,,,,,,,2,,,,80,64
144330,note_on,0,0,3,,,,,,,,1,,,,78,83
144330,note_off,30,0,3,,,,,,,,1,,,,80,64
144360,note_on,0,0,3,,,,,,,,1,,,,80,84
144360,note_on,0,0,4,,,,,,,,2,,,,80,55
144360,note_off,30,0,4,,,,,,,,2,,,,78,64
144360,note_off,30,0,3,,,,,,,,1,,,,78,64
144390,note_off,30,0,3,,,,,,,,1,,,,80,64
144390,note_on,0,0,3,,,,,,,,1,,,,78,85
144390,note_on,0,0,4,,,,,,,,2,,,,78,56
144390,note_off,30,0,4,,,,,,,,2,,,,80,64
144420,note_on,0,0,3,,,,,,,,1,,,,80,86
144420,note_off,30,0,4,,,,,,,,2,,,,78,64
144420,note_off,30,0,3,,,,,,,,1,,,,78,64
144420,note_on,0,0,4,,,,,,,,2,,,,80,57
144450,note_off,30,0,4,,,,,,,,2,,,,80,64
144450,note_on,0,0,4,,,,,,,,2,,,,78,58
144450,note_off,30,0,3,,,,,,,,1,,,,80,64
144450,note_on,0,0,3,,,,,,,,1,,,,78,88
144480,note_off,30,0,3,,,,,,,,1,,,,78,64
144480,note_on,0,0,3,,,,,,,,1,,,,80,90
144480,note_on,0,0,4,,,,,,,,2,,,,80,59
144480,note_off,30,0,4,,,,,,,,2,,,,78,64
144510,note_off,30,0,3,,,,,,,,1,,,,80,64
144510,note_on,0,0,4,,,,,,,,2,,,,78,60
144510,note_on,0,0,3,,,,,,,,1,,,,78,92
144510,note_off,30,0,4,,,,,,,,2,,,,80,64
144670,note_off,400,0,13,,,,,,,,12,,,,47,64
144670,note_off,400,0,8,,,,,,,,6,,,,47,64
144745,note_off,235,0,4,,,,,,,,2,,,,78,64
144745,end_of_track,0,1,3,,,,,,,,,,,,,
144745,end_of_track,0,1,4,,,,,,,,,,,,,
144745,note_off,235,0,3,,,,,,,,1,,,,78,64
144780,note_on,10310,0,12,,,,,,,,11,,,,64,75
144780,note_on,10630,0,11,,,,,,,,10,,,,80,75
144780,note_on,10630,0,1,,,,,,,,0,,,,64,60
144780,note_on,0,0,1,,,,,,,,0,,,,68,60
144780,note_on,0,0,1,,,,,,,,0,,,,71,60
144780,note_on,0,0,1,,,,,,,,0,,,,76,60
144780,note_on,10630,0,10,,,,,,,,8,,,,83,75
144780,note_on,10310,0,2,,,,,,,,0,,,,40,60
144780,note_on,0,0,2,,,,,,,,0,,,,52,60
144780,note_on,10630,0,6,,,,,,,,4,,,,80,92
144780,note_on,10310,0,9,,,,,,,,7,,,,40,75
144780,note_on,110,0,8,,,,,,,,6,,,,52,75
144780,note_on,10630,0,5,,,,,,,,3,,,,83,92
144780,set_tempo,510,1,0,555555,,,,,,,,,,,,
144780,note_on,10310,0,7,,,,,,,,5,,,,64,75
144780,note_on,110,0,13,,,,,,,,12,,,,52,75
144860,note_off,80,0,6,,,,,,,,4,,,,80,64
144860,note_off,80,0,5,,,,,,,,3,,,,83,64
144860,note_off,80,0,10,,,,,,,,8,,,,83,64
144860,note_off,80,0,11,,,,,,,,10,,,,80,64
145020,note_on,160,0,6,,,,,,,,4,,,,78,92
145020,note_on,160,0,5,,,,,,,,3,,,,81,92
145020,note_on,160,0,10,,,,,,,,8,,,,81,75
145020,note_on,160,0,11,,,,,,,,10,,,,78,75
145100,note_off,80,0,6,,,,,,,,4,,,,78,64
145100,note_off,80,0,5,,,,,,,,3,,,,81,64
145100,note_off,80,0,11,,,,,,,,10,,,,78,64
145100,note_off,80,0,10,,,,,,,,8,,,,81,64
145110,note_on,10310,0,14,,,,,,,,13,,,,40,75
145110,note_on,10310,0,15,,,,,,,,14,,,,40,75
145140,note_on,40,0,10,,,,,,,,8,,,,80,75
145140,note_on,40,0,11,,,,,,,,10,,,,76,75
145140,note_on,40,0,6,,,,,,,,4,,,,76,92
145140,note_on,40,0,5,,,,,,,,3,,,,80,92
145180,note_off,400,0,13,,,,,,,,12,,,,52,64
145180,note_off,400,0,8,,,,,,,,6,,,,52,64
145180,note_off,400,0,2,,,,,,,,0,,,,52,64
145180,note_off,0,0,2,,,,,,,,0,,,,40,64
145180,note_off,400,0,9,,,,,,,,7,,,,40,64
145180,note_off,0,0,1,,,,,,,,0,,,,64,64
145180,note_off,0,0,1,,,,,,,,0,,,,68,64
145180,note_off,0,0,1,,,,,,,,0,,,,71,64
145180,note_off,400,0,1,,,,,,,,0,,,,76,64
145180,note_off,400,0,7,,,,,,,,5,,,,64,64
145180,note_off,400,0,12,,,,,,,,11,,,,64,64
145220,note_off,80,0,10,,,,,,,,8,,,,80,64
145220,note_off,80,0,11,,,,,,,,10,,,,76,64
145220,note_off,80,0,6,,,,,,,,4,,,,76,64
145220,note_off,80,0,5,,,,,,,,3,,,,80,64
145260,note_on,40,0,5,,,,,,,,3,,,,81,92
145260,note_on,40,0,6,,,,,,,,4,,,,78,92
145260,note_on,80,0,8,,,,,,,,6,,,,52,75
145260,note_on,80,0,7,,,,,,,,5,,,,64,75
145260,note_on,80,0,13,,,,,,,,12,,,,52,75
145260,note_on,80,0,9,,,,,,,,7,,,,40,75
145260,note_on,80,0,1,,,,,,,,0,,,,64,60
145260,note_on,0,0,1,,,,,,,,0,,,,68,60
145260,note_on,40,0,11,,,,,,,,10,,,,78,75
145260,note_on,0,0,1,,,,,,,,0,,,,76,60
145260,note_on,80,0,12,,,,,,,,11,,,,64,75
145260,note_on,0,0,1,,,,,,,,0,,,,71,60
145260,note_on,40,0,10,,,,,,,,8,,,,81,75
145260,note_on,80,0,2,,,,,,,,0,,,,40,60
145260,note_on,0,0,2,,,,,,,,0,,,,52,60
145340,note_off,80,0,10,,,,,,,,8,,,,81,64
145340,note_off,80,0,5,,,,,,,,3,,,,81,64
145340,note_off,80,0,11,,,,,,,,10,,,,78,64
145340,note_off,80,0,6,,,,,,,,4,,,,78,64
145500,note_on,160,0,5,,,,,,,,3,,,,83,92
145500,note_on,160,0,11,,,,,,,,10,,,,80,75
145500,note_on,160,0,10,,,,,,,,8,,,,83,75
145500,note_on,160,0,6,,,,,,,,4,,,,80,92
145510,note_off,400,0,15,,,,,,,,14,,,,40,64
145510,note_off,400,0,14,,,,,,,,13,,,,40,64
145580,note_off,80,0,5,,,,,,,,3,,,,83,64
145580,note_off,80,0,11,,,,,,,,10,,,,80,64
145580,note_off,80,0,10,,,,,,,,8,,,,83,64
145580,note_off,80,0,6,,,,,,,,4,,,,80,64
145590,note_on,80,0,15,,,,,,,,14,,,,40,75
145590,note_on,80,0,14,,,,,,,,13,,,,40,75
145660,note_off,400,0,13,,,,,,,,12,,,,52,64
145660,note_off,0,0,2,,,,,,,,0,,,,40,64
145660,note_off,400,0,8,,,,,,,,6,,,,52,64
145660,note_off,400,0,2,,,,,,,,0,,,,52,64
145660,note_off,400,0,1,,,,,,,,0,,,,76,64
145660,note_off,400,0,7,,,,,,,,5,,,,64,64
145660,note_off,0,0,1,,,,,,,,0,,,,71,64
145660,note_off,0,0,1,,,,,,,,0,,,,68,64
145660,note_off,400,0,9,,,,,,,,7,,,,40,64
145660,note_off,0,0,1,,,,,,,,0,,,,64,64
145660,note_off,400,0,12,,,,,,,,11,,,,64,64
145740,note_on,160,0,5,,,,,,,,3,,,,85,92
145740,note_on,80,0,13,,,,,,,,12,,,,52,75
145740,note_on,160,0,11,,,,,,,,10,,,,81,75
145740,note_on,80,0,1,,,,,,,,0,,,,64,60
145740,note_on,0,0,1,,,,,,,,0,,,,68,60
145740,note_on,0,0,1,,,,,,,,0,,,,71,60
145740,note_on,80,0,8,,,,,,,,6,,,,52,75
145740,note_on,160,0,6,,,,,,,,4,,,,81,92
145740,note_on,0,0,1,,,,,,,,0,,,,76,60
145740,note_on,0,0,2,,,,,,,,0,,,,52,60
145740,note_on,80,0,9,,,,,,,,7,,,,40,75
145740,note_on,80,0,7,,,,,,,,5,,,,69,75
145740,note_on,160,0,10,,,,,,,,8,,,,85,75
145740,note_on,80,0,2,,,,,,,,0,,,,40,60
145740,note_on,0,0,2,,,,,,,,0,,,,47,60
145740,note_on,80,0,12,,,,,,,,11,,,,69,75
145820,note_off,80,0,5,,,,,,,,3,,,,85,64
145820,note_off,80,0,12,,,,,,,,11,,,,69,64
145820,note_off,80,0,10,,,,,,,,8,,,,85,64
145820,note_off,80,0,11,,,,,,,,10,,,,81,64
145820,note_off,80,0,7,,,,,,,,5,,,,69,64
145820,note_off,80,0,6,,,,,,,,4,,,,81,64
145975,note_off,0,0,2,,,,,,,,0,,,,47,64
145975,note_off,235,0,2,,,,,,,,0,,,,52,64
145975,note_off,0,0,2,,,,,,,,0,,,,40,64
145975,note_off,0,0,1,,,,,,,,0,,,,68,64
145975,note_off,0,0,1,,,,,,,,0,,,,71,64
145975,note_off,235,0,1,,,,,,,,0,,,,76,64
145975,note_off,0,0,1,,,,,,,,0,,,,64,64
145980,note_on,160,0,12,,,,,,,,11,,,,64,75
145980,note_on,0,0,1,,,,,,,,0,,,,71,45
145980,note_on,160,0,5,,,,,,,,3,,,,83,92
145980,note_on,160,0,11,,,,,,,,10,,,,80,75
145980,note_on,160,0,7,,,,,,,,5,,,,64,75
145980,note_on,5,0,2,,,,,,,,0,,,,56,45
145980,note_on,5,0,1,,,,,,,,0,,,,68,45
145980,note_on,160,0,6,,,,,,,,4,,,,80,92
145980,note_on,160,0,10,,,,,,,,8,,,,83,75
145990,note_off,400,0,15,,,,,,,,14,,,,40,64
145990,note_off,400,0,14,,,,,,,,13,,,,40,64
146060,note_off,0,0,1,,,,,,,,0,,,,68,64
146060,note_off,80,0,2,,,,,,,,0,,,,56,64
146060,note_off,80,0,1,,,,,,,,0,,,,71,64
146070,note_on,80,0,15,,,,,,,,14,,,,40,75
146070,note_on,80,0,14,,,,,,,,13,,,,40,75
146100,note_on,40,0,2,,,,,,,,0,,,,57,45
146100,note_on,40,0,1,,,,,,,,0,,,,69,45
146100,note_on,0,0,1,,,,,,,,0,,,,73,45
146140,note_off,400,0,8,,,,,,,,6,,,,52,64
146140,note_off,400,0,13,,,,,,,,12,,,,52,64
146140,note_off,400,0,9,,,,,,,,7,,,,40,64
146180,note_off,80,0,2,,,,,,,,0,,,,57,64
146180,note_off,80,0,1,,,,,,,,0,,,,73,64
146180,note_off,0,0,1,,,,,,,,0,,,,69,64
146220,note_on,80,0,8,,,,,,,,6,,,,52,75
146220,note_on,40,0,1,,,,,,,,0,,,,59,45
146220,note_on,80,0,9,,,,,,,,7,,,,40,75
146220,note_on,0,0,1,,,,,,,,0,,,,71,45
146220,note_on,40,0,2,,,,,,,,0,,,,40,45
146220,note_on,0,0,2,,,,,,,,0,,,,47,45
146220,note_on,0,0,2,,,,,,,,0,,,,56,45
146220,note_on,0,0,1,,,,,,,,0,,,,68,45
146220,note_on,80,0,13,,,,,,,,12,,,,52,75
146380,note_off,400,0,10,,,,,,,,8,,,,83,64
146380,note_off,400,0,7,,,,,,,,5,,,,64,64
146380,note_off,400,0,12,,,,,,,,11,,,,64,64
146380,note_off,400,0,11,,,,,,,,10,,,,80,64
146380,note_off,400,0,5,,,,,,,,3,,,,83,64
146380,note_off,400,0,6,,,,,,,,4,,,,80,64
146460,note_on,80,0,10,,,,,,,,8,,,,76,30
146460,note_on,80,0,6,,,,,,,,4,,,,71,45
146460,note_on,80,0,5,,,,,,,,3,,,,76,45
146460,note_on,80,0,11,,,,,,,,10,,,,71,30
146460,note_on,80,0,12,,,,,,,,11,,,,64,30
146460,note_on,80,0,7,,,,,,,,5,,,,64,30
146470,note_off,400,0,14,,,,,,,,13,,,,40,64
146470,note_off,400,0,15,,,,,,,,14,,,,40,64
146540,note_off,80,0,11,,,,,,,,10,,,,71,64
146540,note_off,80,0,10,,,,,,,,8,,,,76,64
146540,note_off,80,0,7,,,,,,,,5,,,,64,64
146540,note_off,80,0,12,,,,,,,,11,,,,64,64
146540,note_off,80,0,5,,,,,,,,3,,,,76,64
146540,note_off,80,0,6,,,,,,,,4,,,,71,64
146550,note_on,80,0,14,,,,,,,,13,,,,40,75
146620,note_off,400,0,13,,,,,,,,12,,,,52,64
146620,note_off,0,0,1,,,,,,,,0,,,,68,64
146620,note_off,0,0,1,,,,,,,,0,,,,59,64
146620,note_off,400,0,9,,,,,,,,7,,,,40,64
146620,note_off,400,0,1,,,,,,,,0,,,,71,64
146620,note_off,0,0,2,,,,,,,,0,,,,40,64
146620,note_off,0,0,2,,,,,,,,0,,,,47,64
146620,note_off,400,0,2,,,,,,,,0,,,,56,64
146620,note_off,400,0,8,,,,,,,,6,,,,52,64
146700,note_on,160,0,7,,,,,,,,5,,,,64,30
146700,note_on,0,0,2,,,,,,,,0,,,,52,30
146700,note_on,80,0,2,,,,,,,,0,,,,40,30
146700,note_on,160,0,6,,,,,,,,4,,,,80,45
146700,note_on,160,0,12,,,,,,,,11,,,,64,30
146700,note_on,80,0,8,,,,,,,,6,,,,52,30
146700,note_on,80,0,13,,,,,,,,12,,,,52,30
146700,note_on,0,0,1,,,,,,,,0,,,,76,30
146700,note_on,0,0,1,,,,,,,,0,,,,71,30
146700,note_on,0,0,1,,,,,,,,0,,,,68,30
146700,note_on,80,0,1,,,,,,,,0,,,,64,30
146700,note_on,160,0,5,,,,,,,,3,,,,83,45
146700,note_on,160,0,11,,,,,,,,10,,,,80,30
146700,note_on,160,0,10,,,,,,,,8,,,,83,30
146700,note_on,80,0,9,,,,,,,,7,,,,40,30
146780,note_off,80,0,5,,,,,,,,3,,,,83,64
146780,note_off,80,0,6,,,,,,,,4,,,,80,64
146780,note_off,80,0,11,,,,,,,,10,,,,80,64
146780,note_off,80,0,10,,,,,,,,8,,,,83,64
146940,note_on,160,0,6,,,,,,,,4,,,,78,45
146940,note_on,160,0,5,,,,,,,,3,,,,81,45
146940,note_on,160,0,10,,,,,,,,8,,,,81,30
146940,note_on,160,0,11,,,,,,,,10,,,,78,30
146950,note_off,400,0,14,,,,,,,,13,,,,40,64
147020,note_off,80,0,5,,,,,,,,3,,,,81,64
147020,note_off,80,0,11,,,,,,,,10,,,,78,64
147020,note_off,80,0,10,,,,,,,,8,,,,81,64
147020,note_off,80,0,6,,,,,,,,4,,,,78,64
147030,note_on,80,0,14,,,,,,,,13,,,,40,30
147030,note_on,560,0,15,,,,,,,,14,,,,40,30
147060,note_on,40,0,5,,,,,,,,3,,,,80,45
147060,note_on,40,0,10,,,,,,,,8,,,,80,30
147060,note_on,40,0,11,,,,,,,,10,,,,76,30
147060,note_on,40,0,6,,,,,,,,4,,,,76,45
147100,note_off,0,0,1,,,,,,,,0,,,,64,64
147100,note_off,0,0,1,,,,,,,,0,,,,68,64
147100,note_off,0,0,1,,,,,,,,0,,,,71,64
147100,note_off,400,0,1,,,,,,,,0,,,,76,64
147100,note_off,400,0,8,,,,,,,,6,,,,52,64
147100,note_off,0,0,2,,,,,,,,0,,,,40,64
147100,note_off,400,0,2,,,,,,,,0,,,,52,64
147100,note_off,400,0,9,,,,,,,,7,,,,40,64
147100,note_off,400,0,12,,,,,,,,11,,,,64,64
147100,note_off,400,0,13,,,,,,,,12,,,,52,64
147100,note_off,400,0,7,,,,,,,,5,,,,64,64
147140,note_off,80,0,11,,,,,,,,10,,,,76,64
147140,note_off,80,0,10,,,,,,,,8,,,,80,64
147140,note_off,80,0,6,,,,,,,,4,,,,76,64
147140,note_off,80,0,5,,,,,,,,3,,,,80,64
147180,note_on,80,0,12,,,,,,,,11,,,,64,30
147180,note_on,40,0,11,,,,,,,,10,,,,78,30
147180,note_on,80,0,7,,,,,,,,5,,,,64,30
147180,note_on,80,0,9,,,,,,,,7,,,,40,30
147180,note_on,40,0,5,,,,,,,,3,,,,81,45
147180,note_on,80,0,13,,,,,,,,12,,,,52,30
147180,note_on,80,0,2,,,,,,,,0,,,,40,30
147180,note_on,0,0,1,,,,,,,,0,,,,76,30
147180,note_on,0,0,1,,,,,,,,0,,,,71,30
147180,note_on,80,0,8,,,,,,,,6,,,,52,30
147180,note_on,0,0,1,,,,,,,,0,,,,68,30
147180,note_on,0,0,2,,,,,,,,0,,,,52,30
147180,note_on,40,0,10,,,,,,,,8,,,,81,30
147180,note_on,40,0,6,,,,,,,,4,,,,78,45
147180,note_on,80,0,1,,,,,,,,0,,,,64,30
147260,note_off,80,0,5,,,,,,,,3,,,,81,64
147260,note_off,80,0,11,,,,,,,,10,,,,78,64
147260,note_off,80,0,6,,,,,,,,4,,,,78,64
147260,note_off,80,0,10,,,,,,,,8,,,,81,64
147420,note_on,160,0,6,,,,,,,,4,,,,80,45
147420,note_on,160,0,10,,,,,,,,8,,,,83,30
147420,note_on,160,0,5,,,,,,,,3,,,,83,45
147420,note_on,160,0,11,,,,,,,,10,,,,80,30
147430,note_off,400,0,14,,,,,,,,13,,,,40,64
147430,note_off,400,0,15,,,,,,,,14,,,,40,64
147500,note_off,80,0,11,,,,,,,,10,,,,80,64
147500,note_off,80,0,5,,,,,,,,3,,,,83,64
147500,note_off,80,0,10,,,,,,,,8,,,,83,64
147500,note_off,80,0,6,,,,,,,,4,,,,80,64
147510,note_on,80,0,14,,,,,,,,13,,,,40,30
147510,note_on,80,0,15,,,,,,,,14,,,,40,30
147580,note_off,0,0,1,,,,,,,,0,,,,64,64
147580,note_off,400,0,1,,,,,,,,0,,,,76,64
147580,note_off,400,0,9,,,,,,,,7,,,,40,64
147580,note_off,400,0,8,,,,,,,,6,,,,52,64
147580,note_off,0,0,1,,,,,,,,0,,,,68,64
147580,note_off,0,0,1,,,,,,,,0,,,,71,64
147580,note_off,400,0,7,,,,,,,,5,,,,64,64
147580,note_off,400,0,13,,,,,,,,12,,,,52,64
147580,note_off,0,0,2,,,,,,,,0,,,,40,64
147580,note_off,400,0,2,,,,,,,,0,,,,52,64
147580,note_off,400,0,12,,,,,,,,11,,,,64,64
147660,note_on,0,0,2,,,,,,,,0,,,,52,30
147660,note_on,160,0,10,,,,,,,,8,,,,85,30
147660,note_on,0,0,2,,,,,,,,0,,,,47,30
147660,note_on,80,0,8,,,,,,,,6,,,,52,30
147660,note_on,80,0,2,,,,,,,,0,,,,40,30
147660,note_on,80,0,12,,,,,,,,11,,,,69,30
147660,note_on,160,0,5,,,,,,,,3,,,,85,45
147660,note_on,80,0,13,,,,,,,,12,,,,52,30
147660,note_on,0,0,1,,,,,,,,0,,,,68,30
147660,note_on,0,0,1,,,,,,,,0,,,,71,30
147660,note_on,0,0,1,,,,,,,,0,,,,76,30
147660,note_on,80,0,9,,,,,,,,7,,,,40,30
147660,note_on,160,0,6,,,,,,,,4,,,,81,45
147660,note_on,80,0,7,,,,,,,,5,,,,69,30
147660,note_on,160,0,11,,,,,,,,10,,,,81,30
147660,note_on,80,0,1,,,,,,,,0,,,,64,30
147740,note_off,80,0,6,,,,,,,,4,,,,81,64
147740,note_off,80,0,10,,,,,,,,8,,,,85,64
147740,note_off,80,0,7,,,,,,,,5,,,,69,64
147740,note_off,80,0,5,,,,,,,,3,,,,85,64
147740,note_off,80,0,11,,,,,,,,10,,,,81,64
147740,note_off,80,0,12,,,,,,,,11,,,,69,64
147895,note_off,0,0,1,,,,,,,,0,,,,68,64
147895,note_off,0,0,1,,,,,,,,0,,,,64,64
147895,note_off,0,0,1,,,,,,,,0,,,,71,64
147895,note_off,0,0,2,,,,,,,,0,,,,40,64
147895,note_off,0,0,2,,,,,,,,0,,,,47,64
147895,note_off,235,0,2,,,,,,,,0,,,,52,64
147895,note_off,235,0,1,,,,,,,,0,,,,76,64
147900,note_on,160,0,11,,,,,,,,10,,,,80,30
147900,note_on,160,0,6,,,,,,,,4,,,,80,45
147900,note_on,160,0,10,,,,,,,,8,,,,83,30
147900,note_on,160,0,12,,,,,,,,11,,,,64,30
147900,note_on,0,0,1,,,,,,,,0,,,,71,45
147900,note_on,5,0,1,,,,,,,,0,,,,68,45
147900,note_on,160,0,5,,,,,,,,3,,,,83,45
147900,note_on,160,0,7,,,,,,,,5,,,,64,30
147900,note_on,5,0,2,,,,,,,,0,,,,59,45
147910,note_off,400,0,14,,,,,,,,13,,,,40,64
147910,note_off,400,0,15,,,,,,,,14,,,,40,64
147980,note_off,80,0,2,,,,,,,,0,,,,59,64
147980,note_off,0,0,1,,,,,,,,0,,,,68,64
147980,note_off,80,0,1,,,,,,,,0,,,,71,64
147990,note_on,80,0,15,,,,,,,,14,,,,40,30
147990,note_on,80,0,14,,,,,,,,13,,,,40,30
148020,note_on,0,0,1,,,,,,,,0,,,,73,45
148020,note_on,40,0,2,,,,,,,,0,,,,57,45
148020,note_on,40,0,1,,,,,,,,0,,,,69,45
148060,note_off,400,0,8,,,,,,,,6,,,,52,64
148060,note_off,400,0,13,,,,,,,,12,,,,52,64
148060,note_off,400,0,9,,,,,,,,7,,,,40,64
148100,note_off,80,0,1,,,,,,,,0,,,,73,64
148100,note_off,0,0,1,,,,,,,,0,,,,69,64
148100,note_off,80,0,2,,,,,,,,0,,,,57,64
148140,note_on,80,0,13,,,,,,,,12,,,,52,30
148140,note_on,40,0,2,,,,,,,,0,,,,40,45
148140,note_on,80,0,8,,,,,,,,6,,,,52,30
148140,note_on,80,0,9,,,,,,,,7,,,,40,30
148140,note_on,0,0,2,,,,,,,,0,,,,47,45
148140,note_on,0,0,2,,,,,,,,0,,,,56,45
148140,note_on,40,0,1,,,,,,,,0,,,,59,45
148140,note_on,0,0,1,,,,,,,,0,,,,68,45
148300,note_off,400,0,7,,,,,,,,5,,,,64,64
148300,note_off,400,0,5,,,,,,,,3,,,,83,64
148300,note_off,400,0,6,,,,,,,,4,,,,80,64
148300,note_off,400,0,10,,,,,,,,8,,,,83,64
148300,note_off,400,0,11,,,,,,,,10,,,,80,64
148300,note_off,400,0,12,,,,,,,,11,,,,64,64
148380,note_on,80,0,6,,,,,,,,4,,,,71,92
148380,note_on,80,0,5,,,,,,,,3,,,,76,92
148380,note_on,80,0,10,,,,,,,,8,,,,76,75
148380,note_on,80,0,11,,,,,,,,10,,,,71,75
148380,note_on,80,0,7,,,,,,,,5,,,,64,75
148380,note_on,80,0,12,,,,,,,,11,,,,64,75
148390,note_off,400,0,15,,,,,,,,14,,,,40,64
148390,note_off,400,0,14,,,,,,,,13,,,,40,64
148460,note_off,80,0,12,,,,,,,,11,,,,64,64
148460,note_off,80,0,5,,,,,,,,3,,,,76,64
148460,note_off,80,0,6,,,,,,,,4,,,,71,64
148460,note_off,80,0,11,,,,,,,,10,,,,71,64
148460,note_off,80,0,10,,,,,,,,8,,,,76,64
148460,note_off,80,0,7,,,,,,,,5,,,,64,64
148470,note_on,80,0,14,,,,,,,,13,,,,40,30
148540,note_off,0,0,1,,,,,,,,0,,,,59,64
148540,note_off,400,0,1,,,,,,,,0,,,,68,64
148540,note_off,400,0,9,,,,,,,,7,,,,40,64
148540,note_off,0,0,2,,,,,,,,0,,,,40,64
148540,note_off,400,0,8,,,,,,,,6,,,,52,64
148540,note_off,400,0,13,,,,,,,,12,,,,52,64
148540,note_off,400,0,2,,,,,,,,0,,,,56,64
148540,note_off,0,0,2,,,,,,,,0,,,,47,64
148620,note_on,80,0,8,,,,,,,,6,,,,52,75
148620,note_on,0,0,1,,,,,,,,0,,,,73,60
148620,note_on,160,0,11,,,,,,,,10,,,,81,75
148620,note_on,160,0,7,,,,,,,,5,,,,69,75
148620,note_on,160,0,12,,,,,,,,11,,,,69,75
148620,note_on,0,0,1,,,,,,,,0,,,,69,60
148620,note_on,0,0,2,,,,,,,,0,,,,52,60
148620,note_on,160,0,6,,,,,,,,4,,,,81,92
148620,note_on,80,0,9,,,,,,,,7,,,,40,75
148620,note_on,80,0,13,,,,,,,,12,,,,52,75
148620,note_on,160,0,5,,,,,,,,3,,,,85,92
148620,note_on,160,0,10,,,,,,,,8,,,,85,75
148620,note_on,80,0,2,,,,,,,,0,,,,40,60
148620,note_on,80,0,1,,,,,,,,0,,,,64,60
148700,note_off,80,0,6,,,,,,,,4,,,,81,64
148700,note_off,80,0,12,,,,,,,,11,,,,69,64
148700,note_off,80,0,5,,,,,,,,3,,,,85,64
148700,note_off,80,0,7,,,,,,,,5,,,,69,64
148700,note_off,0,0,1,,,,,,,,0,,,,64,64
148700,note_off,0,0,1,,,,,,,,0,,,,69,64
148700,note_off,80,0,1,,,,,,,,0,,,,73,64
148700,note_off,80,0,10,,,,,,,,8,,,,85,64
148700,note_off,80,0,11,,,,,,,,10,,,,81,64
148860,note_on,160,0,10,,,,,,,,8,,,,83,75
148860,note_on,160,0,1,,,,,,,,0,,,,64,60
148860,note_on,160,0,7,,,,,,,,5,,,,64,75
148860,note_on,160,0,11,,,,,,,,10,,,,80,75
148860,note_on,160,0,12,,,,,,,,11,,,,64,75
148860,note_on,160,0,6,,,,,,,,4,,,,80,92
148860,note_on,0,0,1,,,,,,,,0,,,,68,60
148860,note_on,0,0,1,,,,,,,,0,,,,71,60
148860,note_on,160,0,5,,,,,,,,3,,,,83,92
148870,note_off,400,0,14,,,,,,,,13,,,,40,64
148950,note_on,560,0,15,,,,,,,,14,,,,40,75
148950,note_on,80,0,14,,,,,,,,13,,,,40,75
149020,note_off,400,0,9,,,,,,,,7,,,,40,64
149020,note_off,400,0,2,,,,,,,,0,,,,52,64
149020,note_off,400,0,13,,,,,,,,12,,,,52,64
149020,note_off,400,0,8,,,,,,,,6,,,,52,64
149020,note_off,0,0,2,,,,,,,,0,,,,40,64
149100,note_on,80,0,13,,,,,,,,12,,,,52,75
149100,note_on,0,0,2,,,,,,,,0,,,,52,60
149100,note_on,80,0,8,,,,,,,,6,,,,52,75
149100,note_on,80,0,9,,,,,,,,7,,,,40,75
149100,note_on,80,0,2,,,,,,,,0,,,,40,60
149180,note_off,80,0,2,,,,,,,,0,,,,52,64
149180,note_off,80,0,8,,,,,,,,6,,,,52,64
149180,note_off,80,0,13,,,,,,,,12,,,,52,64
149180,note_off,80,0,9,,,,,,,,7,,,,40,64
149180,note_off,0,0,2,,,,,,,,0,,,,40,64
149260,note_off,0,0,1,,,,,,,,0,,,,68,64
149260,note_off,400,0,12,,,,,,,,11,,,,64,64
149260,note_off,400,0,6,,,,,,,,4,,,,80,64
149260,note_off,400,0,1,,,,,,,,0,,,,71,64
149260,note_off,400,0,7,,,,,,,,5,,,,64,64
149260,note_off,400,0,5,,,,,,,,3,,,,83,64
149260,note_off,400,0,11,,,,,,,,10,,,,80,64
149260,note_off,0,0,1,,,,,,,,0,,,,64,64
149260,note_off,400,0,10,,,,,,,,8,,,,83,64
149340,note_on,80,0,5,,,,,,,,3,,,,81,92
149340,note_on,160,0,13,,,,,,,,12,,,,47,75
149340,note_on,80,0,11,,,,,,,,10,,,,78,75
149340,note_on,80,0,6,,,,,,,,4,,,,78,92
149340,note_on,80,0,10,,,,,,,,8,,,,81,75
149340,note_on,160,0,9,,,,,,,,7,,,,35,75
149340,note_on,80,0,12,,,,,,,,11,,,,75,75
149340,note_on,0,0,1,,,,,,,,0,,,,69,60
149340,note_on,80,0,1,,,,,,,,0,,,,63,60
149340,note_on,160,0,2,,,,,,,,0,,,,35,60
149340,note_on,0,0,1,,,,,,,,0,,,,66,60
149340,note_on,80,0,7,,,,,,,,5,,,,75,75
149340,note_on,0,0,2,,,,,,,,0,,,,47,60
149340,note_on,160,0,8,,,,,,,,6,,,,47,75
149350,note_off,400,0,15,,,,,,,,14,,,,40,64
149350,note_off,400,0,14,,,,,,,,13,,,,40,64
149420,note_off,80,0,5,,,,,,,,3,,,,81,64
149420,note_off,0,0,1,,,,,,,,0,,,,63,64
149420,note_off,80,0,7,,,,,,,,5,,,,75,64
149420,note_off,80,0,13,,,,,,,,12,,,,47,64
149420,note_off,80,0,1,,,,,,,,0,,,,69,64
149420,note_off,80,0,11,,,,,,,,10,,,,78,64
149420,note_off,0,0,1,,,,,,,,0,,,,66,64
149420,note_off,80,0,9,,,,,,,,7,,,,35,64
149420,note_off,80,0,8,,,,,,,,6,,,,47,64
149420,note_off,80,0,2,,,,,,,,0,,,,47,64
149420,note_off,80,0,10,,,,,,,,8,,,,81,64
149420,note_off,80,0,6,,,,,,,,4,,,,78,64
149420,note_off,80,0,12,,,,,,,,11,,,,75,64
149420,note_off,0,0,2,,,,,,,,0,,,,35,64
149430,note_on,80,0,15,,,,,,,,14,,,,40,75
149430,note_on,80,0,14,,,,,,,,13,,,,40,75
149510,note_off,80,0,15,,,,,,,,14,,,,40,64
149510,note_off,80,0,14,,,,,,,,13,,,,40,64
149580,note_on,160,0,13,,,,,,,,12,,,,52,75
149580,note_on,160,0,2,,,,,,,,0,,,,40,60
149580,note_on,160,0,7,,,,,,,,5,,,,71,75
149580,note_on,0,0,2,,,,,,,,0,,,,52,60
149580,note_on,160,0,12,,,,,,,,11,,,,71,75
149580,note_on,160,0,11,,,,,,,,10,,,,76,75
149580,note_on,160,0,8,,,,,,,,6,,,,52,75
149580,note_on,160,0,1,,,,,,,,0,,,,64,60
149580,note_on,160,0,10,,,,,,,,8,,,,80,75
149580,note_on,160,0,6,,,,,,,,4,,,,76,92
149580,note_on,160,0,5,,,,,,,,3,,,,80,92
149580,note_on,0,0,1,,,,,,,,0,,,,68,60
149580,note_on,160,0,9,,,,,,,,7,,,,40,75
149660,note_off,80,0,13,,,,,,,,12,,,,52,64
149660,note_off,80,0,10,,,,,,,,8,,,,80,64
149660,note_off,80,0,1,,,,,,,,0,,,,68,64
149660,note_off,80,0,2,,,,,,,,0,,,,52,64
149660,note_off,0,0,1,,,,,,,,0,,,,64,64
149660,note_off,0,0,2,,,,,,,,0,,,,40,64
149660,note_off,80,0,9,,,,,,,,7,,,,40,64
149660,note_off,80,0,5,,,,,,,,3,,,,80,64
149660,note_off,80,0,6,,,,,,,,4,,,,76,64
149660,note_off,80,0,11,,,,,,,,10,,,,76,64
149660,note_off,80,0,8,,,,,,,,6,,,,52,64
149670,note_on,160,0,15,,,,,,,,14,,,,35,75
149670,note_on,160,0,14,,,,,,,,13,,,,35,75
149750,note_off,80,0,14,,,,,,,,13,,,,35,64
149750,note_off,80,0,15,,,,,,,,14,,,,35,64
149820,note_on,0,0,2,,,,,,,,0,,,,40,60
149820,note_on,160,0,6,,,,,,,,4,,,,75,92
149820,note_on,160,0,2,,,,,,,,0,,,,28,60
149820,note_on,160,0,8,,,,,,,,6,,,,40,75
149820,note_on,160,0,5,,,,,,,,3,,,,78,92
149820,note_on,160,0,10,,,,,,,,8,,,,78,75
149820,note_on,160,0,9,,,,,,,,7,,,,28,75
149820,note_on,160,0,11,,,,,,,,10,,,,75,75
149820,note_on,0,0,1,,,,,,,,0,,,,66,60
149820,note_on,160,0,1,,,,,,,,0,,,,63,60
149820,note_on,160,0,13,,,,,,,,12,,,,40,75
149900,note_off,80,0,5,,,,,,,,3,,,,78,64
149900,note_off,80,0,1,,,,,,,,0,,,,66,64
149900,note_off,80,0,13,,,,,,,,12,,,,40,64
149900,note_off,80,0,11,,,,,,,,10,,,,75,64
149900,note_off,80,0,9,,,,,,,,7,,,,28,64
149900,note_off,80,0,8,,,,,,,,6,,,,40,64
149900,note_off,80,0,6,,,,,,,,4,,,,75,64
149900,note_off,80,0,10,,,,,,,,8,,,,78,64
149900,note_off,0,0,1,,,,,,,,0,,,,63,64
149900,note_off,80,0,2,,,,,,,,0,,,,40,64
149900,note_off,0,0,2,,,,,,,,0,,,,28,64
149910,note_on,160,0,14,,,,,,,,13,,,,40,75
149910,note_on,160,0,15,,,,,,,,14,,,,40,75
149940,note_on,0,0,1,,,,,,,,0,,,,64,60
149940,note_on,40,0,6,,,,,,,,4,,,,73,92
149940,note_on,40,0,1,,,,,,,,0,,,,61,60
149940,note_on,40,0,10,,,,,,,,8,,,,76,75
149940,note_on,40,0,5,,,,,,,,3,,,,76,92
149940,note_on,40,0,11,,,,,,,,10,,,,73,75
149980,note_off,400,0,7,,,,,,,,5,,,,71,64
149980,note_off,400,0,12,,,,,,,,11,,,,71,64
149990,note_off,80,0,15,,,,,,,,14,,,,40,64
149990,note_off,80,0,14,,,,,,,,13,,,,40,64
150020,note_off,80,0,10,,,,,,,,8,,,,76,64
150020,note_off,80,0,11,,,,,,,,10,,,,73,64
150020,note_off,80,0,6,,,,,,,,4,,,,73,64
150020,note_off,0,0,1,,,,,,,,0,,,,61,64
150020,note_off,80,0,1,,,,,,,,0,,,,64,64
150020,note_off,80,0,5,,,,,,,,3,,,,76,64
150060,note_on,40,0,5,,,,,,,,3,,,,80,92
150060,note_on,0,0,1,,,,,,,,0,,,,66,60
150060,note_on,0,0,1,,,,,,,,0,,,,64,60
150060,note_on,40,0,1,,,,,,,,0,,,,59,60
150060,note_on,160,0,9,,,,,,,,7,,,,47,75
150060,note_on,160,0,13,,,,,,,,12,,,,59,75
150060,note_on,160,0,2,,,,,,,,0,,,,47,60
150060,note_on,80,0,12,,,,,,,,11,,,,71,75
150060,note_on,80,0,7,,,,,,,,5,,,,71,75
150060,note_on,40,0,11,,,,,,,,10,,,,71,75
150060,note_on,160,0,8,,,,,,,,6,,,,59,75
150060,note_on,40,0,10,,,,,,,,8,,,,80,75
150060,note_on,0,0,2,,,,,,,,0,,,,59,60
150060,note_on,40,0,6,,,,,,,,4,,,,71,92
150090,note_on,0,0,6,,,,,,,,4,,,,73,92
150090,note_off,30,0,5,,,,,,,,3,,,,80,64
150090,note_on,0,0,5,,,,,,,,3,,,,81,92
150090,note_off,30,0,11,,,,,,,,10,,,,71,64
150090,note_on,0,0,11,,,,,,,,10,,,,73,75
150090,note_on,0,0,10,,,,,,,,8,,,,81,75
150090,note_off,30,0,10,,,,,,,,8,,,,80,64
150090,note_off,30,0,6,,,,,,,,4,,,,71,64
150120,note_off,30,0,6,,,,,,,,4,,,,73,64
150120,note_on,0,0,6,,,,,,,,4,,,,71,92
150120,note_on,0,0,10,,,,,,,,8,,,,80,75
150120,note_off,30,0,10,,,,,,,,8,,,,81,64
150120,note_off,30,0,5,,,,,,,,3,,,,81,64
150120,note_on,0,0,11,,,,,,,,10,,,,71,75
150120,note_off,30,0,11,,,,,,,,10,,,,73,64
150120,note_on,0,0,5,,,,,,,,3,,,,80,92
150140,note_off,80,0,8,,,,,,,,6,,,,59,64
150140,note_off,80,0,13,,,,,,,,12,,,,59,64
150140,note_off,80,0,9,,,,,,,,7,,,,47,64
150150,note_off,30,0,10,,,,,,,,8,,,,80,64
150150,note_on,0,0,10,,,,,,,,8,,,,81,75
150150,note_off,30,0,5,,,,,,,,3,,,,80,64
150150,note_on,0,0,5,,,,,,,,3,,,,81,92
150150,note_on,160,0,14,,,,,,,,13,,,,28,75
150150,note_on,160,0,15,,,,,,,,14,,,,28,75
150150,note_off,30,0,6,,,,,,,,4,,,,71,64
150150,note_on,0,0,6,,,,,,,,4,,,,73,92
150150,note_on,0,0,11,,,,,,,,10,,,,73,75
150150,note_off,30,0,11,,,,,,,,10,,,,71,64
150180,note_on,0,0,11,,,,,,,,10,,,,71,75
150180,note_off,30,0,11,,,,,,,,10,,,,73,64
150180,note_on,0,0,10,,,,,,,,8,,,,80,75
150180,note_on,0,0,6,,,,,,,,4,,,,71,92
150180,note_off,30,0,5,,,,,,,,3,,,,81,64
150180,note_on,0,0,5,,,,,,,,3,,,,80,92
150180,note_off,30,0,10,,,,,,,,8,,,,81,64
150180,note_off,30,0,6,,,,,,,,4,,,,73,64
150210,note_off,30,0,11,,,,,,,,10,,,,71,64
150210,note_off,30,0,5,,,,,,,,3,,,,80,64
150210,note_on,0,0,11,,,,,,,,10,,,,73,75
150210,note_on,0,0,5,,,,,,,,3,,,,81,92
150210,note_on,0,0,10,,,,,,,,8,,,,81,75
150210,note_on,0,0,6,,,,,,,,4,,,,73,92
150210,note_off,30,0,6,,,,,,,,4,,,,71,64
150210,note_off,30,0,10,,,,,,,,8,,,,80,64
150230,note_off,80,0,15,,,,,,,,14,,,,28,64
150230,note_off,80,0,14,,,,,,,,13,,,,28,64
150240,note_on,0,0,5,,,,,,,,3,,,,80,92
150240,note_on,0,0,6,,,,,,,,4,,,,71,92
150240,note_on,0,0,11,,,,,,,,10,,,,71,75
150240,note_off,30,0,6,,,,,,,,4,,,,73,64
150240,note_on,0,0,10,,,,,,,,8,,,,80,75
150240,note_off,30,0,10,,,,,,,,8,,,,81,64
150240,note_off,30,0,11,,,,,,,,10,,,,73,64
150240,note_off,30,0,5,,,,,,,,3,,,,81,64
150270,note_off,30,0,5,,,,,,,,3,,,,80,64
150270,note_on,0,0,5,,,,,,,,3,,,,81,92
150270,note_on,0,0,6,,,,,,,,4,,,,73,92
150270,note_off,30,0,6,,,,,,,,4,,,,71,64
150270,note_off,30,0,11,,,,,,,,10,,,,71,64
150270,note_on,0,0,11,,,,,,,,10,,,,73,75
150270,note_on,0,0,10,,,,,,,,8,,,,81,75
150270,note_off,30,0,10,,,,,,,,8,,,,80,64
150300,note_off,30,0,10,,,,,,,,8,,,,81,64
150300,note_on,0,0,10,,,,,,,,8,,,,80,75
150300,note_off,0,0,1,,,,,,,,0,,,,64,64
150300,note_on,0,0,1,,,,,,,,0,,,,59,60
150300,note_on,160,0,13,,,,,,,,12,,,,47,75
150300,note_off,240,0,1,,,,,,,,0,,,,66,64
150300,note_on,160,0,8,,,,,,,,6,,,,47,75
150300,note_off,0,0,1,,,,,,,,0,,,,59,64
150300,note_on,0,0,11,,,,,,,,10,,,,71,75
150300,note_on,0,0,1,,,,,,,,0,,,,63,60
150300,note_on,0,0,1,,,,,,,,0,,,,66,60
150300,note_off,30,0,5,,,,,,,,3,,,,81,64
150300,note_on,0,0,6,,,,,,,,4,,,,71,92
150300,note_on,160,0,9,,,,,,,,7,,,,35,75
150300,note_off,30,0,6,,,,,,,,4,,,,73,64
150300,note_off,240,0,2,,,,,,,,0,,,,59,64
150300,note_off,0,0,2,,,,,,,,0,,,,47,64
150300,note_on,0,0,2,,,,,,,,0,,,,35,60
150300,note_on,0,0,2,,,,,,,,0,,,,47,60
150300,note_off,30,0,11,,,,,,,,10,,,,73,64
150300,note_on,0,0,5,,,,,,,,3,,,,80,92
150330,note_on,0,0,11,,,,,,,,10,,,,73,75
150330,note_on,0,0,6,,,,,,,,4,,,,73,92
150330,note_on,0,0,5,,,,,,,,3,,,,81,92
150330,note_off,30,0,6,,,,,,,,4,,,,71,64
150330,note_off,30,0,10,,,,,,,,8,,,,80,64
150330,note_on,0,0,10,,,,,,,,8,,,,81,75
150330,note_off,30,0,5,,,,,,,,3,,,,80,64
150330,note_off,30,0,11,,,,,,,,10,,,,71,64
150360,note_off,30,0,10,,,,,,,,8,,,,81,64
150360,note_off,30,0,6,,,,,,,,4,,,,73,64
150360,note_on,0,0,11,,,,,,,,10,,,,71,75
150360,note_on,0,0,10,,,,,,,,8,,,,80,75
150360,note_off,30,0,11,,,,,,,,10,,,,73,64
150360,note_on,0,0,5,,,,,,,,3,,,,80,92
150360,note_on,0,0,6,,,,,,,,4,,,,71,92
150360,note_off,30,0,5,,,,,,,,3,,,,81,64
150380,note_off,80,0,8,,,,,,,,6,,,,47,64
150380,note_off,0,0,1,,,,,,,,0,,,,63,64
150380,note_off,80,0,13,,,,,,,,12,,,,47,64
150380,note_off,80,0,9,,,,,,,,7,,,,35,64
150380,note_off,0,0,1,,,,,,,,0,,,,59,64
150380,note_off,80,0,2,,,,,,,,0,,,,47,64
150380,note_off,80,0,1,,,,,,,,0,,,,66,64
150380,note_off,0,0,2,,,,,,,,0,,,,35,64
150390,note_on,160,0,15,,,,,,,,14,,,,47,75
150390,note_on,160,0,14,,,,,,,,13,,,,47,75
150400,note_off,40,0,6,,,,,,,,4,,,,71,64
150400,note_off,40,0,10,,,,,,,,8,,,,80,64
150400,note_off,40,0,11,,,,,,,,10,,,,71,64
150400,note_off,40,0,5,,,,,,,,3,,,,80,64
150420,note_on,20,0,5,,,,,,,,3,,,,78,92
150420,note_on,20,0,10,,,,,,,,8,,,,78,75
150420,note_on,20,0,11,,,,,,,,10,,,,71,75
150420,note_on,20,0,6,,,,,,,,4,,,,71,92
150460,note_off,400,0,7,,,,,,,,5,,,,71,64
150460,note_off,400,0,12,,,,,,,,11,,,,71,64
150470,note_off,80,0,14,,,,,,,,13,,,,47,64
150470,note_off,80,0,15,,,,,,,,14,,,,47,64
150500,note_off,80,0,10,,,,,,,,8,,,,78,64
150500,note_off,80,0,5,,,,,,,,3,,,,78,64
150500,note_off,80,0,6,,,,,,,,4,,,,71,64
150500,note_off,80,0,11,,,,,,,,10,,,,71,64
150540,note_on,80,0,12,,,,,,,,11,,,,68,75
150540,note_on,40,0,11,,,,,,,,10,,,,71,75
150540,note_on,40,0,6,,,,,,,,4,,,,71,92
150540,note_on,160,0,13,,,,,,,,12,,,,52,75
150540,note_on,160,0,9,,,,,,,,7,,,,40,75
150540,note_on,160,0,8,,,,,,,,6,,,,52,75
150540,note_on,160,0,1,,,,,,,,0,,,,64,60
150540,note_on,0,0,1,,,,,,,,0,,,,68,60
150540,note_on,0,0,2,,,,,,,,0,,,,52,60
150540,note_on,160,0,2,,,,,,,,0,,,,40,60
150540,note_on,0,0,1,,,,,,,,0,,,,71,60
150540,note_on,40,0,5,,,,,,,,3,,,,76,92
150540,note_on,80,0,7,,,,,,,,5,,,,68,75
150540,note_on,40,0,10,,,,,,,,8,,,,76,75
150630,note_on,160,0,15,,,,,,,,14,,,,35,75
150630,note_on,160,0,14,,,,,,,,13,,,,35,75
150710,note_off,80,0,14,,,,,,,,13,,,,35,64
150710,note_off,80,0,15,,,,,,,,14,,,,35,64
150870,note_on,160,0,15,,,,,,,,14,,,,40,75
150870,note_on,160,0,14,,,,,,,,13,,,,40,75
150940,note_off,0,0,1,,,,,,,,0,,,,68,64
150940,note_off,400,0,1,,,,,,,,0,,,,71,64
150940,note_off,0,0,1,,,,,,,,0,,,,64,64
150940,note_off,400,0,11,,,,,,,,10,,,,71,64
150940,note_off,400,0,9,,,,,,,,7,,,,40,64
150940,note_off,400,0,2,,,,,,,,0,,,,52,64
150940,note_off,400,0,5,,,,,,,,3,,,,76,64
150940,note_off,400,0,10,,,,,,,,8,,,,76,64
150940,note_off,400,0,6,,,,,,,,4,,,,71,64
150940,note_off,400,0,7,,,,,,,,5,,,,68,64
150940,note_off,0,0,2,,,,,,,,0,,,,40,64
150940,note_off,400,0,13,,,,,,,,12,,,,52,64
150940,note_off,400,0,12,,,,,,,,11,,,,68,64
150940,note_off,400,0,8,,,,,,,,6,,,,52,64
151270,note_off,400,0,15,,,,,,,,14,,,,40,64
151270,note_off,400,0,14,,,,,,,,13,,,,40,64
151290,note_on,350,0,5,,,,,,,,3,,,,80,45
151290,note_on,350,0,10,,,,,,,,8,,,,80,30
151290,note_on,350,0,11,,,,,,,,10,,,,76,30
151290,note_on,350,0,8,,,,,,,,6,,,,52,30
151290,note_on,350,0,12,,,,,,,,11,,,,71,30
151290,note_on,350,0,9,,,,,,,,7,,,,40,30
151290,note_on,350,0,13,,,,,,,,12,,,,52,30
151290,note_on,350,0,6,,,,,,,,4,,,,76,45
151290,note_on,350,0,7,,,,,,,,5,,,,71,30
151370,note_off,80,0,5,,,,,,,,3,,,,80,64
151370,note_off,80,0,12,,,,,,,,11,,,,71,64
151370,note_off,80,0,11,,,,,,,,10,,,,76,64
151370,note_off,80,0,7,,,,,,,,5,,,,71,64
151370,note_off,80,0,10,,,,,,,,8,,,,80,64
151370,note_off,80,0,6,,,,,,,,4,,,,76,64
151525,note_off,235,0,8,,,,,,,,6,,,,52,64
151525,note_off,235,0,9,,,,,,,,7,,,,40,64
151525,note_off,235,0,13,,,,,,,,12,,,,52,64
151530,note_on,160,0,7,,,,,,,,5,,,,64,30
151530,note_on,590,0,1,,,,,,,,0,,,,64,30
151530,note_on,0,0,1,,,,,,,,0,,,,68,30
151530,note_on,0,0,1,,,,,,,,0,,,,71,30
151530,note_on,0,0,1,,,,,,,,0,,,,76,30
151530,note_on,160,0,5,,,,,,,,3,,,,83,45
151530,note_on,590,0,2,,,,,,,,0,,,,40,30
151530,note_on,0,0,2,,,,,,,,0,,,,47,30
151530,note_on,160,0,12,,,,,,,,11,,,,64,30
151530,note_on,5,0,13,,,,,,,,12,,,,52,30
151530,note_on,0,0,2,,,,,,,,0,,,,52,30
151530,note_on,160,0,11,,,,,,,,10,,,,80,30
151530,note_on,5,0,9,,,,,,,,7,,,,40,30
151530,note_on,5,0,8,,,,,,,,6,,,,52,30
151530,note_on,160,0,10,,,,,,,,8,,,,83,30
151530,note_on,160,0,6,,,,,,,,4,,,,80,45
151610,note_off,80,0,6,,,,,,,,4,,,,80,64
151610,note_off,80,0,11,,,,,,,,10,,,,80,64
151610,note_off,80,0,10,,,,,,,,8,,,,83,64
151610,note_off,80,0,5,,,,,,,,3,,,,83,64
151620,note_on,350,0,14,,,,,,,,13,,,,40,30
151770,note_on,160,0,6,,,,,,,,4,,,,78,45
151770,note_on,160,0,5,,,,,,,,3,,,,81,45
151770,note_on,160,0,10,,,,,,,,8,,,,81,30
151770,note_on,160,0,11,,,,,,,,10,,,,78,30
151850,note_off,80,0,10,,,,,,,,8,,,,81,64
151850,note_off,80,0,5,,,,,,,,3,,,,81,64
151850,note_off,80,0,11,,,,,,,,10,,,,78,64
151850,note_off,80,0,6,,,,,,,,4,,,,78,64
151855,note_off,235,0,14,,,,,,,,13,,,,40,64
151860,note_on,5,0,14,,,,,,,,13,,,,40,30
151860,note_on,590,0,15,,,,,,,,14,,,,40,30
151890,note_on,40,0,10,,,,,,,,8,,,,80,30
151890,note_on,40,0,11,,,,,,,,10,,,,76,30
151890,note_on,40,0,5,,,,,,,,3,,,,80,45
151890,note_on,40,0,6,,,,,,,,4,,,,76,45
151930,note_off,0,0,2,,,,,,,,0,,,,40,64
151930,note_off,0,0,2,,,,,,,,0,,,,47,64
151930,note_off,400,0,2,,,,,,,,0,,,,52,64
151930,note_off,400,0,9,,,,,,,,7,,,,40,64
151930,note_off,400,0,8,,,,,,,,6,,,,52,64
151930,note_off,400,0,12,,,,,,,,11,,,,64,64
151930,note_off,0,0,1,,,,,,,,0,,,,64,64
151930,note_off,400,0,7,,,,,,,,5,,,,64,64
151930,note_off,0,0,1,,,,,,,,0,,,,68,64
151930,note_off,0,0,1,,,,,,,,0,,,,71,64
151930,note_off,400,0,1,,,,,,,,0,,,,76,64
151930,note_off,400,0,13,,,,,,,,12,,,,52,64
151970,note_off,80,0,10,,,,,,,,8,,,,80,64
151970,note_off,80,0,11,,,,,,,,10,,,,76,64
151970,note_off,80,0,5,,,,,,,,3,,,,80,64
151970,note_off,80,0,6,,,,,,,,4,,,,76,64
152010,note_on,80,0,8,,,,,,,,6,,,,52,30
152010,note_on,80,0,9,,,,,,,,7,,,,40,30
152010,note_on,40,0,10,,,,,,,,8,,,,81,30
152010,note_on,40,0,6,,,,,,,,4,,,,78,45
152010,note_on,80,0,12,,,,,,,,11,,,,64,30
152010,note_on,0,0,1,,,,,,,,0,,,,76,30
152010,note_on,80,0,2,,,,,,,,0,,,,40,30
152010,note_on,0,0,2,,,,,,,,0,,,,52,30
152010,note_on,0,0,1,,,,,,,,0,,,,71,30
152010,note_on,80,0,13,,,,,,,,12,,,,52,30
152010,note_on,80,0,1,,,,,,,,0,,,,64,30
152010,note_on,40,0,5,,,,,,,,3,,,,81,45
152010,note_on,0,0,1,,,,,,,,0,,,,68,30
152010,note_on,80,0,7,,,,,,,,5,,,,64,30
152010,note_on,0,0,2,,,,,,,,0,,,,47,30
152010,note_on,40,0,11,,,,,,,,10,,,,78,30
152090,note_off,80,0,5,,,,,,,,3,,,,81,64
152090,note_off,80,0,10,,,,,,,,8,,,,81,64
152090,note_off,80,0,11,,,,,,,,10,,,,78,64
152090,note_off,80,0,6,,,,,,,,4,,,,78,64
152250,note_on,160,0,11,,,,,,,,10,,,,80,30
152250,note_on,160,0,10,,,,,,,,8,,,,83,30
152250,note_on,160,0,6,,,,,,,,4,,,,80,45
152250,note_on,160,0,5,,,,,,,,3,,,,83,45
152260,note_off,400,0,14,,,,,,,,13,,,,40,64
152260,note_off,400,0,15,,,,,,,,14,,,,40,64
152330,note_off,80,0,11,,,,,,,,10,,,,80,64
152330,note_off,80,0,5,,,,,,,,3,,,,83,64
152330,note_off,80,0,10,,,,,,,,8,,,,83,64
152330,note_off,80,0,6,,,,,,,,4,,,,80,64
152340,note_on,80,0,14,,,,,,,,13,,,,40,30
152340,note_on,80,0,15,,,,,,,,14,,,,40,30
152410,note_off,400,0,9,,,,,,,,7,,,,40,64
152410,note_off,0,0,2,,,,,,,,0,,,,40,64
152410,note_off,0,0,2,,,,,,,,0,,,,47,64
152410,note_off,400,0,2,,,,,,,,0,,,,52,64
152410,note_off,400,0,12,,,,,,,,11,,,,64,64
152410,note_off,400,0,13,,,,,,,,12,,,,52,64
152410,note_off,400,0,8,,,,,,,,6,,,,52,64
152410,note_off,400,0,7,,,,,,,,5,,,,64,64
152410,note_off,0,0,1,,,,,,,,0,,,,68,64
152410,note_off,0,0,1,,,,,,,,0,,,,71,64
152410,note_off,400,0,1,,,,,,,,0,,,,76,64
152410,note_off,0,0,1,,,,,,,,0,,,,64,64
152490,note_on,80,0,1,,,,,,,,0,,,,64,30
152490,note_on,160,0,10,,,,,,,,8,,,,85,30
152490,note_on,0,0,2,,,,,,,,0,,,,52,30
152490,note_on,0,0,2,,,,,,,,0,,,,47,30
152490,note_on,80,0,2,,,,,,,,0,,,,40,30
152490,note_on,80,0,9,,,,,,,,7,,,,40,30
152490,note_on,80,0,7,,,,,,,,5,,,,69,30
152490,note_on,80,0,8,,,,,,,,6,,,,52,30
152490,note_on,160,0,5,,,,,,,,3,,,,85,45
152490,note_on,160,0,11,,,,,,,,10,,,,81,30
152490,note_on,80,0,12,,,,,,,,11,,,,69,30
152490,note_on,80,0,13,,,,,,,,12,,,,52,30
152490,note_on,0,0,1,,,,,,,,0,,,,68,30
152490,note_on,0,0,1,,,,,,,,0,,,,71,30
152490,note_on,0,0,1,,,,,,,,0,,,,76,30
152490,note_on,160,0,6,,,,,,,,4,,,,81,45
152570,note_off,80,0,12,,,,,,,,11,,,,69,64
152570,note_off,80,0,10,,,,,,,,8,,,,85,64
152570,note_off,80,0,5,,,,,,,,3,,,,85,64
152570,note_off,80,0,7,,,,,,,,5,,,,69,64
152570,note_off,80,0,11,,,,,,,,10,,,,81,64
152570,note_off,80,0,6,,,,,,,,4,,,,81,64
152725,note_off,0,0,1,,,,,,,,0,,,,64,64
152725,note_off,0,0,1,,,,,,,,0,,,,68,64
152725,note_off,235,0,1,,,,,,,,0,,,,76,64
152725,note_off,235,0,2,,,,,,,,0,,,,52,64
152725,note_off,0,0,2,,,,,,,,0,,,,47,64
152725,note_off,0,0,2,,,,,,,,0,,,,40,64
152725,note_off,0,0,1,,,,,,,,0,,,,71,64
152730,note_on,160,0,6,,,,,,,,4,,,,80,45
152730,note_on,160,0,11,,,,,,,,10,,,,80,30
152730,note_on,160,0,10,,,,,,,,8,,,,83,30
152730,note_on,160,0,5,,,,,,,,3,,,,83,45
152730,note_on,160,0,12,,,,,,,,11,,,,64,30
152730,note_on,160,0,7,,,,,,,,5,,,,64,30
152730,note_on,5,0,1,,,,,,,,0,,,,68,45
152730,note_on,5,0,2,,,,,,,,0,,,,56,45
152740,note_off,400,0,15,,,,,,,,14,,,,40,64
152740,note_off,400,0,14,,,,,,,,13,,,,40,64
152810,note_off,80,0,1,,,,,,,,0,,,,68,64
152810,note_off,80,0,2,,,,,,,,0,,,,56,64
152820,note_on,80,0,14,,,,,,,,13,,,,40,30
152820,note_on,80,0,15,,,,,,,,14,,,,40,30
152850,note_on,40,0,1,,,,,,,,0,,,,69,45
152850,note_on,40,0,2,,,,,,,,0,,,,57,45
152890,note_off,400,0,9,,,,,,,,7,,,,40,64
152890,note_off,400,0,13,,,,,,,,12,,,,52,64
152890,note_off,400,0,8,,,,,,,,6,,,,52,64
152930,note_off,80,0,2,,,,,,,,0,,,,57,64
152930,note_off,80,0,1,,,,,,,,0,,,,69,64
152970,note_on,40,0,1,,,,,,,,0,,,,71,45
152970,note_on,80,0,13,,,,,,,,12,,,,52,30
152970,note_on,40,0,2,,,,,,,,0,,,,59,45
152970,note_on,80,0,9,,,,,,,,7,,,,40,30
152970,note_on,80,0,8,,,,,,,,6,,,,52,30
153130,note_off,400,0,6,,,,,,,,4,,,,80,64
153130,note_off,400,0,11,,,,,,,,10,,,,80,64
153130,note_off,400,0,7,,,,,,,,5,,,,64,64
153130,note_off,400,0,5,,,,,,,,3,,,,83,64
153130,note_off,400,0,10,,,,,,,,8,,,,83,64
153130,note_off,400,0,12,,,,,,,,11,,,,64,64
153210,note_on,80,0,7,,,,,,,,5,,,,71,10
153210,note_on,80,0,11,,,,,,,,10,,,,76,10
153210,note_on,80,0,10,,,,,,,,8,,,,80,10
153210,note_on,80,0,5,,,,,,,,3,,,,80,30
153210,note_on,80,0,6,,,,,,,,4,,,,76,30
153210,note_on,80,0,12,,,,,,,,11,,,,71,10
153220,note_off,400,0,14,,,,,,,,13,,,,40,64
153220,note_off,400,0,15,,,,,,,,14,,,,40,64
153290,note_off,80,0,10,,,,,,,,8,,,,80,64
153290,note_off,80,0,12,,,,,,,,11,,,,71,64
153290,note_off,80,0,7,,,,,,,,5,,,,71,64
153290,note_off,80,0,5,,,,,,,,3,,,,80,64
153290,note_off,80,0,6,,,,,,,,4,,,,76,64
153290,note_off,80,0,11,,,,,,,,10,,,,76,64
153300,note_on,80,0,14,,,,,,,,13,,,,40,30
153300,note_on,80,0,15,,,,,,,,14,,,,40,30
153370,note_off,400,0,8,,,,,,,,6,,,,52,64
153370,note_off,400,0,9,,,,,,,,7,,,,40,64
153370,note_off,400,0,2,,,,,,,,0,,,,59,64
153370,note_off,400,0,1,,,,,,,,0,,,,71,64
153370,note_off,400,0,13,,,,,,,,12,,,,52,64
153450,note_on,80,0,13,,,,,,,,12,,,,52,10
153450,note_on,80,0,9,,,,,,,,7,,,,40,10
153450,note_on,160,0,11,,,,,,,,10,,,,80,10
153450,note_on,160,0,6,,,,,,,,4,,,,80,30
153450,note_on,160,0,7,,,,,,,,5,,,,64,10
153450,note_on,160,0,5,,,,,,,,3,,,,83,30
153450,note_on,160,0,12,,,,,,,,11,,,,64,10
153450,note_on,80,0,2,,,,,,,,0,,,,52,10
153450,note_on,80,0,1,,,,,,,,0,,,,64,10
153450,note_on,80,0,8,,,,,,,,6,,,,52,10
153450,note_on,0,0,1,,,,,,,,0,,,,76,10
153450,note_on,0,0,1,,,,,,,,0,,,,71,10
153450,note_on,0,0,1,,,,,,,,0,,,,68,10
153450,note_on,160,0,10,,,,,,,,8,,,,83,10
153530,note_off,80,0,10,,,,,,,,8,,,,83,64
153530,note_off,80,0,6,,,,,,,,4,,,,80,64
153530,note_off,80,0,11,,,,,,,,10,,,,80,64
153530,note_off,80,0,5,,,,,,,,3,,,,83,64
153690,note_on,160,0,11,,,,,,,,10,,,,78,10
153690,note_on,160,0,10,,,,,,,,8,,,,81,10
153690,note_on,160,0,6,,,,,,,,4,,,,78,30
153690,note_on,160,0,5,,,,,,,,3,,,,81,30
153700,note_off,400,0,14,,,,,,,,13,,,,40,64
153700,note_off,400,0,15,,,,,,,,14,,,,40,64
153770,note_off,80,0,5,,,,,,,,3,,,,81,64
153770,note_off,80,0,10,,,,,,,,8,,,,81,64
153770,note_off,80,0,6,,,,,,,,4,,,,78,64
153770,note_off,80,0,11,,,,,,,,10,,,,78,64
153780,note_on,80,0,15,,,,,,,,14,,,,40,10
153780,note_on,80,0,14,,,,,,,,13,,,,40,10
153810,note_on,40,0,6,,,,,,,,4,,,,76,30
153810,note_on,40,0,10,,,,,,,,8,,,,80,10
153810,note_on,40,0,5,,,,,,,,3,,,,80,30
153810,note_on,40,0,11,,,,,,,,10,,,,76,10
153850,note_off,400,0,2,,,,,,,,0,,,,52,64
153850,note_off,400,0,8,,,,,,,,6,,,,52,64
153850,note_off,400,0,1,,,,,,,,0,,,,76,64
153850,note_off,400,0,12,,,,,,,,11,,,,64,64
153850,note_off,400,0,7,,,,,,,,5,,,,64,64
153850,note_off,400,0,13,,,,,,,,12,,,,52,64
153850,note_off,0,0,1,,,,,,,,0,,,,71,64
153850,note_off,0,0,1,,,,,,,,0,,,,68,64
153850,note_off,0,0,1,,,,,,,,0,,,,64,64
153850,note_off,400,0,9,,,,,,,,7,,,,40,64
153890,note_off,80,0,11,,,,,,,,10,,,,76,64
153890,note_off,80,0,10,,,,,,,,8,,,,80,64
153890,note_off,80,0,6,,,,,,,,4,,,,76,64
153890,note_off,80,0,5,,,,,,,,3,,,,80,64
153930,note_on,80,0,12,,,,,,,,11,,,,64,10
153930,note_on,80,0,7,,,,,,,,5,,,,64,10
153930,note_on,80,0,8,,,,,,,,6,,,,52,10
153930,note_on,40,0,10,,,,,,,,8,,,,81,10
153930,note_on,80,0,9,,,,,,,,7,,,,40,10
153930,note_on,40,0,6,,,,,,,,4,,,,78,30
153930,note_on,40,0,5,,,,,,,,3,,,,81,30
153930,note_on,80,0,1,,,,,,,,0,,,,64,10
153930,note_on,0,0,1,,,,,,,,0,,,,68,10
153930,note_on,0,0,1,,,,,,,,0,,,,71,10
153930,note_on,80,0,2,,,,,,,,0,,,,52,10
153930,note_on,0,0,1,,,,,,,,0,,,,76,10
153930,note_on,80,0,13,,,,,,,,12,,,,52,10
153930,note_on,40,0,11,,,,,,,,10,,,,78,10
154010,note_off,80,0,11,,,,,,,,10,,,,78,64
154010,note_off,80,0,10,,,,,,,,8,,,,81,64
154010,note_off,80,0,6,,,,,,,,4,,,,78,64
154010,note_off,80,0,5,,,,,,,,3,,,,81,64
154170,note_on,160,0,10,,,,,,,,8,,,,83,10
154170,note_on,160,0,5,,,,,,,,3,,,,83,30
154170,note_on,160,0,6,,,,,,,,4,,,,80,30
154170,note_on,160,0,11,,,,,,,,10,,,,80,10
154180,note_off,400,0,14,,,,,,,,13,,,,40,64
154180,note_off,400,0,15,,,,,,,,14,,,,40,64
154250,note_off,80,0,10,,,,,,,,8,,,,83,64
154250,note_off,80,0,5,,,,,,,,3,,,,83,64
154250,note_off,80,0,11,,,,,,,,10,,,,80,64
154250,note_off,80,0,6,,,,,,,,4,,,,80,64
154260,note_on,80,0,14,,,,,,,,13,,,,40,10
154260,note_on,80,0,15,,,,,,,,14,,,,40,10
154330,note_off,400,0,7,,,,,,,,5,,,,64,64
154330,note_off,400,0,13,,,,,,,,12,,,,52,64
154330,note_off,400,0,12,,,,,,,,11,,,,64,64
154330,note_off,0,0,1,,,,,,,,0,,,,64,64
154330,note_off,0,0,1,,,,,,,,0,,,,71,64
154330,note_off,400,0,1,,,,,,,,0,,,,76,64
154330,note_off,400,0,8,,,,,,,,6,,,,52,64
154330,note_off,400,0,2,,,,,,,,0,,,,52,64
154330,note_off,400,0,9,,,,,,,,7,,,,40,64
154330,note_off,0,0,1,,,,,,,,0,,,,68,64
154410,note_on,0,0,2,,,,,,,,0,,,,47,10
154410,note_on,80,0,2,,,,,,,,0,,,,40,10
154410,note_on,160,0,11,,,,,,,,10,,,,81,10
154410,note_on,160,0,5,,,,,,,,3,,,,85,30
154410,note_on,80,0,9,,,,,,,,7,,,,40,10
154410,note_on,80,0,7,,,,,,,,5,,,,69,10
154410,set_tempo,9630,1,0,555555,,,,,,,,,,,,
154410,note_on,80,0,13,,,,,,,,12,,,,52,10
154410,note_on,160,0,6,,,,,,,,4,,,,81,30
154410,note_on,160,0,10,,,,,,,,8,,,,85,10
154410,note_on,0,0,2,,,,,,,,0,,,,52,10
154410,note_on,80,0,12,,,,,,,,11,,,,69,10
154410,note_on,80,0,8,,,,,,,,6,,,,52,10
154410,note_on,0,0,1,,,,,,,,0,,,,68,10
154410,note_on,0,0,1,,,,,,,,0,,,,71,10
154410,note_on,0,0,1,,,,,,,,0,,,,76,10
154410,note_on,80,0,1,,,,,,,,0,,,,64,10
154490,note_off,80,0,5,,,,,,,,3,,,,85,64
154490,note_off,80,0,11,,,,,,,,10,,,,81,64
154490,note_off,80,0,7,,,,,,,,5,,,,69,64
154490,note_off,80,0,6,,,,,,,,4,,,,81,64
154490,note_off,80,0,12,,,,,,,,11,,,,69,64
154490,note_off,80,0,10,,,,,,,,8,,,,85,64
154645,note_off,0,0,1,,,,,,,,0,,,,71,64
154645,note_off,235,0,2,,,,,,,,0,,,,52,64
154645,note_off,0,0,1,,,,,,,,0,,,,68,64
154645,note_off,0,0,2,,,,,,,,0,,,,40,64
154645,note_off,235,0,1,,,,,,,,0,,,,76,64
154645,note_off,0,0,1,,,,,,,,0,,,,64,64
154645,note_off,0,0,2,,,,,,,,0,,,,47,64
154650,note_on,5,0,2,,,,,,,,0,,,,59,30
154650,note_on,160,0,10,,,,,,,,8,,,,83,15
154650,set_tempo,240,1,0,588235,,,,,,,,,,,,
154650,note_on,5,0,1,,,,,,,,0,,,,71,30
154650,note_on,160,0,7,,,,,,,,5,,,,64,15
154650,note_on,160,0,11,,,,,,,,10,,,,80,15
154650,note_on,160,0,12,,,,,,,,11,,,,64,15
154650,note_on,160,0,6,,,,,,,,4,,,,80,35
154650,note_on,160,0,5,,,,,,,,3,,,,83,35
154660,note_off,400,0,15,,,,,,,,14,,,,40,64
154660,note_off,400,0,14,,,,,,,,13,,,,40,64
154730,note_off,80,0,2,,,,,,,,0,,,,59,64
154730,note_off,80,0,1,,,,,,,,0,,,,71,64
154740,note_on,80,0,15,,,,,,,,14,,,,40,10
154740,note_on,80,0,14,,,,,,,,13,,,,40,10
154770,note_on,40,0,2,,,,,,,,0,,,,57,30
154770,note_on,40,0,1,,,,,,,,0,,,,69,30
154810,note_off,400,0,9,,,,,,,,7,,,,40,64
154810,note_off,400,0,8,,,,,,,,6,,,,52,64
154810,note_off,400,0,13,,,,,,,,12,,,,52,64
154850,note_off,80,0,1,,,,,,,,0,,,,69,64
154850,note_off,80,0,2,,,,,,,,0,,,,57,64
154890,note_on,80,0,8,,,,,,,,6,,,,52,20
154890,note_on,40,0,1,,,,,,,,0,,,,64,30
154890,note_on,0,0,1,,,,,,,,0,,,,68,30
154890,note_on,40,0,2,,,,,,,,0,,,,44,30
154890,note_on,80,0,9,,,,,,,,7,,,,40,20
154890,note_on,80,0,13,,,,,,,,12,,,,52,20
154890,note_on,0,0,2,,,,,,,,0,,,,56,30
155050,note_off,400,0,7,,,,,,,,5,,,,64,64
155050,note_off,400,0,10,,,,,,,,8,,,,83,64
155050,note_off,400,0,5,,,,,,,,3,,,,83,64
155050,note_off,400,0,6,,,,,,,,4,,,,80,64
155050,note_off,400,0,12,,,,,,,,11,,,,64,64
155050,note_off,400,0,11,,,,,,,,10,,,,80,64
155130,note_on,80,0,7,,,,,,,,5,,,,64,25
155130,note_on,80,0,10,,,,,,,,8,,,,80,25
155130,note_on,80,0,5,,,,,,,,3,,,,80,45
155130,note_on,80,0,12,,,,,,,,11,,,,64,25
155130,note_on,80,0,6,,,,,,,,4,,,,76,45
155130,note_on,80,0,11,,,,,,,,10,,,,76,25
155130,set_tempo,480,1,0,625000,,,,,,,,,,,,
155140,note_off,400,0,14,,,,,,,,13,,,,40,64
155140,note_off,400,0,15,,,,,,,,14,,,,40,64
155210,note_off,80,0,5,,,,,,,,3,,,,80,64
155210,note_off,80,0,6,,,,,,,,4,,,,76,64
155210,note_off,80,0,11,,,,,,,,10,,,,76,64
155210,note_off,80,0,12,,,,,,,,11,,,,64,64
155210,note_off,80,0,10,,,,,,,,8,,,,80,64
155210,note_off,80,0,7,,,,,,,,5,,,,64,64
155220,note_on,80,0,14,,,,,,,,13,,,,40,20
155220,note_on,80,0,15,,,,,,,,14,,,,40,10
155290,note_off,400,0,1,,,,,,,,0,,,,68,64
155290,note_off,0,0,1,,,,,,,,0,,,,64,64
155290,note_off,0,0,2,,,,,,,,0,,,,44,64
155290,note_off,400,0,2,,,,,,,,0,,,,56,64
155290,note_off,400,0,9,,,,,,,,7,,,,40,64
155290,note_off,400,0,13,,,,,,,,12,,,,52,64
155290,note_off,400,0,8,,,,,,,,6,,,,52,64
155370,note_on,0,0,1,,,,,,,,0,,,,73,30
155370,note_on,160,0,10,,,,,,,,8,,,,85,30
155370,note_on,160,0,6,,,,,,,,4,,,,81,50
155370,note_on,80,0,2,,,,,,,,0,,,,40,30
155370,note_on,0,0,1,,,,,,,,0,,,,69,30
155370,note_on,80,0,1,,,,,,,,0,,,,64,30
155370,note_on,160,0,12,,,,,,,,11,,,,69,30
155370,note_on,80,0,13,,,,,,,,12,,,,52,31
155370,note_on,160,0,5,,,,,,,,3,,,,85,50
155370,note_on,0,0,2,,,,,,,,0,,,,52,30
155370,note_on,80,0,9,,,,,,,,7,,,,40,31
155370,note_on,80,0,8,,,,,,,,6,,,,52,31
155370,note_on,160,0,11,,,,,,,,10,,,,81,30
155370,note_on,160,0,7,,,,,,,,5,,,,69,30
155370,set_tempo,240,1,0,652173,,,,,,,,,,,,
155450,note_off,0,0,1,,,,,,,,0,,,,69,64
155450,note_off,80,0,12,,,,,,,,11,,,,69,64
155450,note_off,80,0,11,,,,,,,,10,,,,81,64
155450,note_off,0,0,1,,,,,,,,0,,,,64,64
155450,note_off,80,0,1,,,,,,,,0,,,,73,64
155450,note_off,80,0,5,,,,,,,,3,,,,85,64
155450,note_off,80,0,10,,,,,,,,8,,,,85,64
155450,note_off,80,0,7,,,,,,,,5,,,,69,64
155450,note_off,80,0,6,,,,,,,,4,,,,81,64
155610,note_on,160,0,5,,,,,,,,3,,,,83,55
155610,set_tempo,240,1,0,674157,,,,,,,,,,,,
155610,note_on,160,0,1,,,,,,,,0,,,,64,33
155610,note_on,160,0,11,,,,,,,,10,,,,80,35
155610,note_on,160,0,10,,,,,,,,8,,,,83,35
155610,note_on,0,0,1,,,,,,,,0,,,,68,33
155610,note_on,160,0,12,,,,,,,,11,,,,64,35
155610,note_on,0,0,1,,,,,,,,0,,,,71,33
155610,note_on,160,0,7,,,,,,,,5,,,,64,35
155610,note_on,160,0,6,,,,,,,,4,,,,80,55
155620,note_off,400,0,14,,,,,,,,13,,,,40,64
155620,note_off,400,0,15,,,,,,,,14,,,,40,64
155700,note_on,80,0,15,,,,,,,,14,,,,40,45
155700,note_on,80,0,14,,,,,,,,13,,,,40,31
155770,note_off,0,0,2,,,,,,,,0,,,,40,64
155770,note_off,400,0,8,,,,,,,,6,,,,52,64
155770,note_off,400,0,13,,,,,,,,12,,,,52,64
155770,note_off,400,0,9,,,,,,,,7,,,,40,64
155770,note_off,400,0,2,,,,,,,,0,,,,52,64
155850,note_on,80,0,13,,,,,,,,12,,,,52,42
155850,note_on,0,0,2,,,,,,,,0,,,,52,37
155850,note_on,80,0,2,,,,,,,,0,,,,40,37
155850,note_on,80,0,8,,,,,,,,6,,,,52,42
155850,note_on,80,0,9,,,,,,,,7,,,,40,42
156010,note_off,400,0,10,,,,,,,,8,,,,83,64
156010,note_off,400,0,7,,,,,,,,5,,,,64,64
156010,note_off,400,0,5,,,,,,,,3,,,,83,64
156010,note_off,400,0,11,,,,,,,,10,,,,80,64
156010,note_off,400,0,12,,,,,,,,11,,,,64,64
156010,note_off,400,0,1,,,,,,,,0,,,,71,64
156010,note_off,0,0,1,,,,,,,,0,,,,68,64
156010,note_off,400,0,6,,,,,,,,4,,,,80,64
156010,note_off,0,0,1,,,,,,,,0,,,,64,64
156090,note_on,80,0,7,,,,,,,,5,,,,75,46
156090,set_tempo,480,1,0,697674,,,,,,,,,,,,
156090,note_on,80,0,11,,,,,,,,10,,,,78,46
156090,note_on,0,0,1,,,,,,,,0,,,,69,40
156090,note_on,80,0,10,,,,,,,,8,,,,81,46
156090,note_on,80,0,6,,,,,,,,4,,,,78,65
156090,note_on,80,0,12,,,,,,,,11,,,,75,46
156090,note_on,0,0,1,,,,,,,,0,,,,66,40
156090,note_on,80,0,1,,,,,,,,0,,,,63,40
156090,note_on,80,0,5,,,,,,,,3,,,,81,65
156100,note_off,400,0,14,,,,,,,,13,,,,40,64
156100,note_off,400,0,15,,,,,,,,14,,,,40,64
156170,note_off,80,0,11,,,,,,,,10,,,,78,64
156170,note_off,0,0,1,,,,,,,,0,,,,63,64
156170,note_off,0,0,1,,,,,,,,0,,,,66,64
156170,note_off,80,0,1,,,,,,,,0,,,,69,64
156170,note_off,80,0,12,,,,,,,,11,,,,75,64
156170,note_off,80,0,6,,,,,,,,4,,,,78,64
156170,note_off,80,0,7,,,,,,,,5,,,,75,64
156170,note_off,80,0,5,,,,,,,,3,,,,81,64
156170,note_off,80,0,10,,,,,,,,8,,,,81,64
156180,note_on,80,0,14,,,,,,,,13,,,,40,42
156180,note_on,80,0,15,,,,,,,,14,,,,40,45
156250,note_off,400,0,8,,,,,,,,6,,,,52,64
156250,note_off,400,0,9,,,,,,,,7,,,,40,64
156250,note_off,400,0,2,,,,,,,,0,,,,52,64
156250,note_off,400,0,13,,,,,,,,12,,,,52,64
156250,note_off,0,0,2,,,,,,,,0,,,,40,64
156330,note_on,80,0,13,,,,,,,,12,,,,52,53
156330,note_on,160,0,6,,,,,,,,4,,,,76,70
156330,note_on,80,0,2,,,,,,,,0,,,,40,44
156330,note_on,80,0,8,,,,,,,,6,,,,52,53
156330,note_on,0,0,1,,,,,,,,0,,,,68,44
156330,note_on,160,0,1,,,,,,,,0,,,,64,44
156330,note_on,160,0,5,,,,,,,,3,,,,80,70
156330,note_on,160,0,11,,,,,,,,10,,,,76,51
156330,note_on,80,0,9,,,,,,,,7,,,,40,53
156330,note_on,160,0,7,,,,,,,,5,,,,71,51
156330,set_tempo,240,1,0,722891,,,,,,,,,,,,
156330,note_on,160,0,12,,,,,,,,11,,,,71,51
156330,note_on,160,0,10,,,,,,,,8,,,,80,51
156330,note_on,0,0,2,,,,,,,,0,,,,52,44
156410,note_off,80,0,9,,,,,,,,7,,,,40,64
156410,note_off,80,0,10,,,,,,,,8,,,,80,64
156410,note_off,80,0,5,,,,,,,,3,,,,80,64
156410,note_off,80,0,1,,,,,,,,0,,,,68,64
156410,note_off,0,0,1,,,,,,,,0,,,,64,64
156410,note_off,80,0,11,,,,,,,,10,,,,76,64
156410,note_off,80,0,2,,,,,,,,0,,,,52,64
156410,note_off,80,0,13,,,,,,,,12,,,,52,64
156410,note_off,80,0,8,,,,,,,,6,,,,52,64
156410,note_off,80,0,6,,,,,,,,4,,,,76,64
156410,note_off,0,0,2,,,,,,,,0,,,,40,64
156570,note_on,160,0,1,,,,,,,,0,,,,63,48
156570,note_on,0,0,1,,,,,,,,0,,,,66,48
156570,note_on,160,0,13,,,,,,,,12,,,,40,58
156570,note_on,160,0,8,,,,,,,,6,,,,40,58
156570,note_on,160,0,11,,,,,,,,10,,,,75,57
156570,note_on,160,0,10,,,,,,,,8,,,,78,57
156570,set_tempo,240,1,0,779220,,,,,,,,,,,,
156570,note_on,160,0,2,,,,,,,,0,,,,28,48
156570,note_on,160,0,6,,,,,,,,4,,,,75,75
156570,note_on,0,0,2,,,,,,,,0,,,,40,48
156570,note_on,160,0,5,,,,,,,,3,,,,78,75
156570,note_on,160,0,9,,,,,,,,7,,,,28,58
156580,note_off,400,0,14,,,,,,,,13,,,,40,64
156580,note_off,400,0,15,,,,,,,,14,,,,40,64
156650,note_off,80,0,5,,,,,,,,3,,,,78,64
156650,note_off,80,0,1,,,,,,,,0,,,,66,64
156650,note_off,80,0,13,,,,,,,,12,,,,40,64
156650,note_off,80,0,6,,,,,,,,4,,,,75,64
156650,note_off,80,0,9,,,,,,,,7,,,,28,64
156650,note_off,80,0,11,,,,,,,,10,,,,75,64
156650,note_off,80,0,2,,,,,,,,0,,,,40,64
156650,note_off,80,0,8,,,,,,,,6,,,,40,64
156650,note_off,80,0,10,,,,,,,,8,,,,78,64
156650,note_off,0,0,2,,,,,,,,0,,,,28,64
156650,note_off,0,0,1,,,,,,,,0,,,,63,64
156660,note_on,80,0,14,,,,,,,,13,,,,40,53
156660,note_on,80,0,15,,,,,,,,14,,,,40,45
156690,note_on,40,0,6,,,,,,,,4,,,,73,77
156690,note_on,40,0,11,,,,,,,,10,,,,73,60
156690,note_on,40,0,10,,,,,,,,8,,,,76,60
156690,note_on,40,0,1,,,,,,,,0,,,,61,50
156690,note_on,0,0,1,,,,,,,,0,,,,64,50
156690,note_on,40,0,5,,,,,,,,3,,,,76,77
156730,note_off,400,0,7,,,,,,,,5,,,,71,64
156730,note_off,400,0,12,,,,,,,,11,,,,71,64
156740,note_off,80,0,15,,,,,,,,14,,,,40,64
156740,note_off,80,0,14,,,,,,,,13,,,,40,64
156770,note_off,80,0,10,,,,,,,,8,,,,76,64
156770,note_off,80,0,5,,,,,,,,3,,,,76,64
156770,note_off,80,0,6,,,,,,,,4,,,,73,64
156770,note_off,0,0,1,,,,,,,,0,,,,61,64
156770,note_off,80,0,11,,,,,,,,10,,,,73,64
156770,note_off,80,0,1,,,,,,,,0,,,,64,64
156810,note_on,80,0,7,,,,,,,,5,,,,71,63
156810,note_on,40,0,5,,,,,,,,3,,,,80,80
156810,note_on,0,0,1,,,,,,,,0,,,,64,52
156810,note_on,0,0,1,,,,,,,,0,,,,68,52
156810,note_on,0,0,2,,,,,,,,0,,,,59,52
156810,note_on,160,0,2,,,,,,,,0,,,,47,52
156810,note_on,160,0,9,,,,,,,,7,,,,47,63
156810,note_on,160,0,13,,,,,,,,12,,,,59,63
156810,note_on,40,0,11,,,,,,,,10,,,,76,63
156810,note_on,40,0,10,,,,,,,,8,,,,80,63
156810,note_on,40,0,1,,,,,,,,0,,,,59,52
156810,note_on,40,0,6,,,,,,,,4,,,,76,80
156810,set_tempo,240,1,0,882352,,,,,,,,,,,,
156810,note_on,160,0,8,,,,,,,,6,,,,59,63
156810,note_on,80,0,12,,,,,,,,11,,,,71,63
156840,note_on,0,0,10,,,,,,,,8,,,,81,63
156840,note_on,0,0,6,,,,,,,,4,,,,78,80
156840,note_off,30,0,6,,,,,,,,4,,,,76,64
156840,note_off,30,0,11,,,,,,,,10,,,,76,64
156840,note_on,0,0,11,,,,,,,,10,,,,78,63
156840,note_off,30,0,5,,,,,,,,3,,,,80,64
156840,note_off,30,0,10,,,,,,,,8,,,,80,64
156840,note_on,0,0,5,,,,,,,,3,,,,81,80
156870,note_off,30,0,11,,,,,,,,10,,,,78,64
156870,note_on,0,0,11,,,,,,,,10,,,,76,63
156870,note_off,30,0,10,,,,,,,,8,,,,81,64
156870,note_on,0,0,10,,,,,,,,8,,,,80,63
156870,note_off,30,0,5,,,,,,,,3,,,,81,64
156870,note_on,0,0,5,,,,,,,,3,,,,80,80
156870,note_off,30,0,6,,,,,,,,4,,,,78,64
156870,note_on,0,0,6,,,,,,,,4,,,,76,80
156890,note_off,80,0,8,,,,,,,,6,,,,59,64
156890,note_off,80,0,9,,,,,,,,7,,,,47,64
156890,note_off,80,0,13,,,,,,,,12,,,,59,64
156900,note_on,0,0,10,,,,,,,,8,,,,81,63
156900,note_off,30,0,10,,,,,,,,8,,,,80,64
156900,note_off,30,0,6,,,,,,,,4,,,,76,64
156900,note_on,0,0,6,,,,,,,,4,,,,78,80
156900,note_on,0,0,11,,,,,,,,10,,,,78,63
156900,note_on,160,0,15,,,,,,,,14,,,,28,45
156900,note_off,30,0,11,,,,,,,,10,,,,76,64
156900,note_on,0,0,5,,,,,,,,3,,,,81,80
156900,note_on,160,0,14,,,,,,,,13,,,,28,58
156900,note_off,30,0,5,,,,,,,,3,,,,80,64
156930,note_off,30,0,6,,,,,,,,4,,,,78,64
156930,note_off,30,0,5,,,,,,,,3,,,,81,64
156930,note_on,0,0,10,,,,,,,,8,,,,80,63
156930,note_on,0,0,5,,,,,,,,3,,,,80,80
156930,note_on,0,0,6,,,,,,,,4,,,,76,80
156930,note_off,30,0,10,,,,,,,,8,,,,81,64
156930,note_on,0,0,11,,,,,,,,10,,,,76,63
156930,note_off,30,0,11,,,,,,,,10,,,,78,64
156960,note_off,30,0,6,,,,,,,,4,,,,76,64
156960,note_off,30,0,5,,,,,,,,3,,,,80,64
156960,note_on,0,0,10,,,,,,,,8,,,,81,64
156960,note_on,0,0,5,,,,,,,,3,,,,81,81
156960,note_on,0,0,6,,,,,,,,4,,,,78,81
156960,note_off,30,0,10,,,,,,,,8,,,,80,64
156960,note_off,30,0,11,,,,,,,,10,,,,76,64
156960,note_on,0,0,11,,,,,,,,10,,,,78,64
156980,note_off,80,0,14,,,,,,,,13,,,,28,64
156980,note_off,80,0,15,,,,,,,,14,,,,28,64
156990,note_off,30,0,11,,,,,,,,10,,,,78,64
156990,note_on,0,0,11,,,,,,,,10,,,,76,65
156990,note_off,30,0,10,,,,,,,,8,,,,81,64
156990,note_off,30,0,6,,,,,,,,4,,,,78,64
156990,note_on,0,0,10,,,,,,,,8,,,,80,65
156990,note_off,30,0,5,,,,,,,,3,,,,81,64
156990,note_on,0,0,6,,,,,,,,4,,,,76,82
156990,note_on,0,0,5,,,,,,,,3,,,,80,82
157020,note_off,30,0,10,,,,,,,,8,,,,80,64
157020,note_on,0,0,10,,,,,,,,8,,,,81,66
157020,note_off,30,0,6,,,,,,,,4,,,,76,64
157020,note_on,0,0,6,,,,,,,,4,,,,78,83
157020,note_off,30,0,11,,,,,,,,10,,,,76,64
157020,note_on,0,0,11,,,,,,,,10,,,,78,66
157020,note_on,0,0,5,,,,,,,,3,,,,81,83
157020,note_off,30,0,5,,,,,,,,3,,,,80,64
157050,note_on,0,0,1,,,,,,,,0,,,,66,56
157050,note_on,0,0,1,,,,,,,,0,,,,63,56
157050,note_off,0,0,1,,,,,,,,0,,,,59,64
157050,note_off,0,0,1,,,,,,,,0,,,,64,64
157050,note_off,240,0,1,,,,,,,,0,,,,68,64
157050,note_off,240,0,2,,,,,,,,0,,,,59,64
157050,note_off,0,0,2,,,,,,,,0,,,,47,64
157050,note_on,0,0,1,,,,,,,,0,,,,59,56
157050,note_on,160,0,9,,,,,,,,7,,,,35,69
157050,note_off,30,0,6,,,,,,,,4,,,,78,64
157050,note_on,160,0,8,,,,,,,,6,,,,47,69
157050,note_on,0,0,6,,,,,,,,4,,,,76,84
157050,note_off,30,0,5,,,,,,,,3,,,,81,64
157050,note_on,0,0,5,,,,,,,,3,,,,80,84
157050,note_off,30,0,11,,,,,,,,10,,,,78,64
157050,note_on,0,0,11,,,,,,,,10,,,,76,67
157050,note_on,0,0,2,,,,,,,,0,,,,47,56
157050,note_on,0,0,10,,,,,,,,8,,,,80,67
157050,note_off,30,0,10,,,,,,,,8,,,,81,64
157050,note_on,160,0,13,,,,,,,,12,,,,47,69
157050,note_on,0,0,2,,,,,,,,0,,,,35,56
157080,note_on,0,0,11,,,,,,,,10,,,,78,68
157080,note_off,30,0,11,,,,,,,,10,,,,76,64
157080,note_off,30,0,5,,,,,,,,3,,,,80,64
157080,note_off,30,0,10,,,,,,,,8,,,,80,64
157080,note_on,0,0,10,,,,,,,,8,,,,81,68
157080,note_on,0,0,6,,,,,,,,4,,,,78,85
157080,note_off,30,0,6,,,,,,,,4,,,,76,64
157080,note_on,0,0,5,,,,,,,,3,,,,81,85
157110,note_on,0,0,5,,,,,,,,3,,,,80,86
157110,note_off,30,0,10,,,,,,,,8,,,,81,64
157110,note_on,0,0,10,,,,,,,,8,,,,80,69
157110,note_off,30,0,5,,,,,,,,3,,,,81,64
157110,note_off,30,0,6,,,,,,,,4,,,,78,64
157110,note_on,0,0,6,,,,,,,,4,,,,76,86
157110,note_on,0,0,11,,,,,,,,10,,,,76,69
157110,note_off,30,0,11,,,,,,,,10,,,,78,64
157130,note_off,80,0,8,,,,,,,,6,,,,47,64
157130,note_off,80,0,1,,,,,,,,0,,,,66,64
157130,note_off,80,0,13,,,,,,,,12,,,,47,64
157130,note_off,80,0,2,,,,,,,,0,,,,47,64
157130,note_off,0,0,2,,,,,,,,0,,,,35,64
157130,note_off,0,0,1,,,,,,,,0,,,,63,64
157130,note_off,80,0,9,,,,,,,,7,,,,35,64
157130,note_off,0,0,1,,,,,,,,0,,,,59,64
157140,note_on,160,0,15,,,,,,,,14,,,,47,45
157140,note_on,160,0,14,,,,,,,,13,,,,47,63
157150,note_off,40,0,11,,,,,,,,10,,,,76,64
157150,note_off,40,0,6,,,,,,,,4,,,,76,64
157150,note_off,40,0,10,,,,,,,,8,,,,80,64
157150,note_off,40,0,5,,,,,,,,3,,,,80,64
157170,note_on,20,0,6,,,,,,,,4,,,,75,88
157170,note_on,20,0,5,,,,,,,,3,,,,78,88
157170,note_on,20,0,10,,,,,,,,8,,,,78,71
157170,note_on,20,0,11,,,,,,,,10,,,,75,71
157210,note_off,400,0,7,,,,,,,,5,,,,71,64
157210,note_off,400,0,12,,,,,,,,11,,,,71,64
157220,note_off,80,0,14,,,,,,,,13,,,,47,64
157220,note_off,80,0,15,,,,,,,,14,,,,47,64
157250,note_off,80,0,5,,,,,,,,3,,,,78,64
157250,note_off,80,0,11,,,,,,,,10,,,,75,64
157250,note_off,80,0,6,,,,,,,,4,,,,75,64
157250,note_off,80,0,10,,,,,,,,8,,,,78,64
157290,note_on,40,0,6,,,,,,,,4,,,,71,92
157290,note_on,160,0,13,,,,,,,,12,,,,52,75
157290,note_on,160,0,1,,,,,,,,0,,,,64,60
157290,note_on,80,0,12,,,,,,,,11,,,,68,75
157290,note_on,40,0,11,,,,,,,,10,,,,71,75
157290,note_on,40,0,5,,,,,,,,3,,,,76,92
157290,note_on,0,0,1,,,,,,,,0,,,,68,60
157290,note_on,0,0,1,,,,,,,,0,,,,71,60
157290,note_on,80,0,7,,,,,,,,5,,,,68,75
157290,note_on,160,0,8,,,,,,,,6,,,,52,75
157290,end_of_track,0,1,0,,,,,,,,,,,,,
157290,set_tempo,480,1,0,1304347,,,,,,,,,,,,
157290,note_on,0,0,2,,,,,,,,0,,,,52,60
157290,note_on,160,0,9,,,,,,,,7,,,,40,75
157290,note_on,160,0,2,,,,,,,,0,,,,40,60
157290,note_on,40,0,10,,,,,,,,8,,,,76,75
157380,note_on,160,0,15,,,,,,,,14,,,,35,45
157380,note_on,160,0,14,,,,,,,,13,,,,35,69
157460,note_off,80,0,15,,,,,,,,14,,,,35,64
157460,note_off,80,0,14,,,,,,,,13,,,,35,64
157620,note_on,160,0,14,,,,,,,,13,,,,40,75
157620,note_on,160,0,15,,,,,,,,14,,,,40,75
158130,note_off,840,0,12,,,,,,,,11,,,,68,64
158130,end_of_track,0,1,5,,,,,,,,,,,,,
158130,note_off,840,0,13,,,,,,,,12,,,,52,64
158130,end_of_track,0,1,13,,,,,,,,,,,,,
158130,end_of_track,0,1,11,,,,,,,,,,,,,
158130,note_off,840,0,11,,,,,,,,10,,,,71,64
158130,note_off,840,0,1,,,,,,,,0,,,,71,64
158130,note_off,0,0,1,,,,,,,,0,,,,68,64
158130,note_off,0,0,1,,,,,,,,0,,,,64,64
158130,end_of_track,0,1,1,,,,,,,,,,,,,
158130,end_of_track,0,1,10,,,,,,,,,,,,,
158130,note_off,840,0,10,,,,,,,,8,,,,76,64
158130,end_of_track,0,1,9,,,,,,,,,,,,,
158130,note_off,840,0,9,,,,,,,,7,,,,40,64
158130,end_of_track,0,1,12,,,,,,,,,,,,,
158130,note_off,840,0,2,,,,,,,,0,,,,52,64
158130,note_off,0,0,2,,,,,,,,0,,,,40,64
158130,end_of_track,0,1,2,,,,,,,,,,,,,
158130,end_of_track,0,1,8,,,,,,,,,,,,,
158130,note_off,840,0,8,,,,,,,,6,,,,52,64
158130,end_of_track,0,1,7,,,,,,,,,,,,,
158130,note_off,840,0,7,,,,,,,,5,,,,68,64
158130,end_of_track,0,1,6,,,,,,,,,,,,,
158130,note_off,840,0,6,,,,,,,,4,,,,71,64
158130,note_off,840,0,5,,,,,,,,3,,,,76,64
158460,note_off,840,0,14,,,,,,,,13,,,,40,64
158460,end_of_track,0,1,14,,,,,,,,,,,,,
158460,note_off,840,0,15,,,,,,,,14,,,,40,64
158460,end_of_track,0,1,15,,,,,,,,,,,,,
