tick,type,time,meta,track,tempo,numerator,denominator,clocks_per_click,notated_32nd_notes_per_beat,key,port,channel,control,value,program,note,velocity
0,track_name,0,1,0,,,,,,,,,,,,,
0,control_change,0,0,9,,,,,,,,7,7,127,,,
0,channel_prefix,0,1,9,,,,,,,,7,,,,,
0,midi_port,0,1,9,,,,,,,0,,,,,,
0,midi_port,0,1,6,,,,,,,0,,,,,,
0,channel_prefix,0,1,6,,,,,,,,4,,,,,
0,control_change,0,0,6,,,,,,,,4,7,127,,,
0,control_change,0,0,6,,,,,,,,4,10,32,,,
0,program_change,0,0,3,,,,,,,,1,,,48,,
0,program_change,0,0,1,,,,,,,,0,,,19,,
0,control_change,0,0,1,,,,,,,,0,91,127,,,
0,control_change,0,0,1,,,,,,,,0,10,6,,,
0,control_change,0,0,9,,,,,,,,7,10,127,,,
0,control_change,0,0,1,,,,,,,,0,7,127,,,
0,midi_port,0,1,1,,,,,,,0,,,,,,
0,track_name,0,1,1,,,,,,,,,,,,,
0,control_change,0,0,6,,,,,,,,4,91,127,,,
0,program_change,0,0,6,,,,,,,,4,,,45,,
0,midi_port,0,1,11,,,,,,,0,,,,,,
0,channel_prefix,0,1,11,,,,,,,,14,,,,,
0,control_change,0,0,11,,,,,,,,14,7,127,,,
0,control_change,0,0,11,,,,,,,,14,10,6,,,
0,control_change,0,0,11,,,,,,,,14,91,127,,,
0,program_change,0,0,11,,,,,,,,14,,,32,,
0,program_change,0,0,8,,,,,,,,6,,,45,,
0,channel_prefix,0,1,1,,,,,,,,0,,,,,
0,control_change,0,0,8,,,,,,,,6,91,127,,,
0,control_change,0,0,9,,,,,,,,7,91,127,,,
0,midi_port,0,1,3,,,,,,,0,,,,,,
0,midi_port,0,1,10,,,,,,,0,,,,,,
0,channel_prefix,0,1,10,,,,,,,,11,,,,,
0,control_change,0,0,10,,,,,,,,11,7,127,,,
0,control_change,0,0,10,,,,,,,,11,10,63,,,
0,control_change,0,0,10,,,,,,,,11,91,127,,,
0,program_change,0,0,10,,,,,,,,11,,,50,,
0,program_change,0,0,5,,,,,,,,3,,,45,,
0,control_change,0,0,5,,,,,,,,3,91,127,,,
0,control_change,0,0,5,,,,,,,,3,10,1,,,
0,control_change,0,0,5,,,,,,,,3,7,127,,,
0,channel_prefix,0,1,5,,,,,,,,3,,,,,
0,track_name,0,1,3,,,,,,,,,,,,,
0,midi_port,0,1,5,,,,,,,0,,,,,,
0,track_name,0,1,4,,,,,,,,,,,,,
0,midi_port,0,1,4,,,,,,,0,,,,,,
0,channel_prefix,0,1,4,,,,,,,,2,,,,,
0,control_change,0,0,4,,,,,,,,2,7,127,,,
0,control_change,0,0,4,,,,,,,,2,10,64,,,
0,control_change,0,0,4,,,,,,,,2,91,127,,,
0,program_change,0,0,4,,,,,,,,2,,,40,,
0,program_change,0,0,9,,,,,,,,7,,,45,,
0,control_change,0,0,3,,,,,,,,1,10,64,,,
0,control_change,0,0,3,,,,,,,,1,7,127,,,
0,channel_prefix,0,1,3,,,,,,,,1,,,,,
0,track_name,0,1,5,,,,,,,,,,,,,
0,control_change,0,0,8,,,,,,,,6,10,95,,,
0,control_change,0,0,3,,,,,,,,1,91,127,,,
0,channel_prefix,0,1,8,,,,,,,,6,,,,,
0,track_name,0,1,2,,,,,,,,,,,,,
0,midi_port,0,1,2,,,,,,,0,,,,,,
0,channel_prefix,0,1,2,,,,,,,,0,,,,,
0,control_change,0,0,2,,,,,,,,0,7,127,,,
0,control_change,0,0,2,,,,,,,,0,10,6,,,
0,control_change,0,0,2,,,,,,,,0,91,127,,,
0,program_change,0,0,2,,,,,,,,0,,,19,,
0,control_change,0,0,8,,,,,,,,6,7,127,,,
0,channel_prefix,0,1,7,,,,,,,,5,,,,,
0,control_change,0,0,7,,,,,,,,5,7,127,,,
0,control_change,0,0,7,,,,,,,,5,10,63,,,
0,control_change,0,0,7,,,,,,,,5,91,127,,,
0,program_change,0,0,7,,,,,,,,5,,,48,,
0,key_signature,0,1,0,,,,,,Eb,,,,,,,
0,midi_port,0,1,7,,,,,,,0,,,,,,
0,copyright,0,1,0,,,,,,,,,,,,,
0,midi_port,0,1,8,,,,,,,0,,,,,,
0,set_tempo,0,1,0,500000,,,,,,,,,,,,
0,time_signature,0,1,0,,4,4,24,8,,,,,,,,
120,note_on,120,0,10,,,,,,,,11,,,,70,45
120,note_on,120,0,4,,,,,,,,2,,,,75,45
120,note_on,0,0,1,,,,,,,,0,,,,70,30
120,note_on,0,0,1,,,,,,,,0,,,,67,30
120,note_on,120,0,1,,,,,,,,0,,,,63,30
120,note_on,120,0,7,,,,,,,,5,,,,70,45
120,note_on,0,0,2,,,,,,,,0,,,,51,30
120,note_on,0,0,2,,,,,,,,0,,,,46,30
120,note_on,120,0,2,,,,,,,,0,,,,39,30
120,note_on,120,0,3,,,,,,,,1,,,,75,60
120,note_on,120,0,6,,,,,,,,4,,,,70,30
120,note_on,120,0,5,,,,,,,,3,,,,75,30
120,note_on,120,0,9,,,,,,,,7,,,,39,45
120,set_tempo,120,1,0,1666666,,,,,,,,,,,,
120,note_on,120,0,8,,,,,,,,6,,,,51,45
120,note_on,120,0,11,,,,,,,,14,,,,39,45
235,note_off,115,0,6,,,,,,,,4,,,,70,64
235,note_off,115,0,5,,,,,,,,3,,,,75,64
240,note_on,5,0,6,,,,,,,,4,,,,75,30
240,note_on,5,0,5,,,,,,,,3,,,,79,30
355,note_off,115,0,6,,,,,,,,4,,,,75,64
355,note_off,235,0,4,,,,,,,,2,,,,75,64
355,note_off,235,0,8,,,,,,,,6,,,,51,64
355,note_off,235,0,3,,,,,,,,1,,,,75,64
355,note_off,115,0,5,,,,,,,,3,,,,79,64
360,note_on,5,0,6,,,,,,,,4,,,,79,30
360,note_on,5,0,5,,,,,,,,3,,,,82,30
360,note_on,5,0,4,,,,,,,,2,,,,82,45
360,set_tempo,240,1,0,1764705,,,,,,,,,,,,
360,note_on,5,0,3,,,,,,,,1,,,,82,60
360,note_on,5,0,8,,,,,,,,6,,,,51,45
475,note_off,115,0,5,,,,,,,,3,,,,82,64
475,note_off,115,0,3,,,,,,,,1,,,,82,64
475,note_off,115,0,4,,,,,,,,2,,,,82,64
475,note_off,115,0,6,,,,,,,,4,,,,79,64
480,note_on,5,0,4,,,,,,,,2,,,,80,44
480,note_on,5,0,5,,,,,,,,3,,,,79,30
480,note_on,5,0,3,,,,,,,,1,,,,80,59
480,note_on,5,0,6,,,,,,,,4,,,,75,30
520,note_off,400,0,11,,,,,,,,14,,,,39,64
520,note_off,400,0,9,,,,,,,,7,,,,39,64
595,note_off,115,0,5,,,,,,,,3,,,,79,64
595,note_off,115,0,3,,,,,,,,1,,,,80,64
595,note_off,235,0,8,,,,,,,,6,,,,51,64
595,note_off,115,0,6,,,,,,,,4,,,,75,64
595,note_off,115,0,4,,,,,,,,2,,,,80,64
600,note_on,5,0,3,,,,,,,,1,,,,79,58
600,note_on,5,0,4,,,,,,,,2,,,,79,43
600,note_on,5,0,5,,,,,,,,3,,,,75,30
600,note_on,5,0,6,,,,,,,,4,,,,70,30
600,set_tempo,240,1,0,1666666,,,,,,,,,,,,
600,note_on,5,0,8,,,,,,,,6,,,,51,45
715,note_off,115,0,5,,,,,,,,3,,,,75,64
715,note_off,115,0,6,,,,,,,,4,,,,70,64
720,note_on,5,0,5,,,,,,,,3,,,,79,30
720,note_on,5,0,6,,,,,,,,4,,,,75,30
835,note_off,115,0,5,,,,,,,,3,,,,79,64
835,note_off,235,0,8,,,,,,,,6,,,,51,64
835,note_off,115,0,6,,,,,,,,4,,,,75,64
835,note_off,235,0,3,,,,,,,,1,,,,79,64
835,note_off,235,0,4,,,,,,,,2,,,,79,64
840,note_on,320,0,9,,,,,,,,7,,,,39,45
840,note_on,5,0,4,,,,,,,,2,,,,77,41
840,note_on,5,0,3,,,,,,,,1,,,,77,56
840,note_on,320,0,11,,,,,,,,14,,,,39,45
840,note_on,5,0,6,,,,,,,,4,,,,79,30
840,note_on,5,0,5,,,,,,,,3,,,,82,30
840,note_on,5,0,8,,,,,,,,6,,,,51,45
955,note_off,115,0,4,,,,,,,,2,,,,77,64
955,note_off,115,0,3,,,,,,,,1,,,,77,64
955,note_off,115,0,6,,,,,,,,4,,,,79,64
955,note_off,115,0,5,,,,,,,,3,,,,82,64
960,note_on,5,0,3,,,,,,,,1,,,,75,55
960,note_on,5,0,4,,,,,,,,2,,,,75,40
960,note_on,5,0,5,,,,,,,,3,,,,79,30
960,note_on,5,0,6,,,,,,,,4,,,,75,30
1075,note_off,235,0,11,,,,,,,,14,,,,39,64
1075,note_off,115,0,4,,,,,,,,2,,,,75,64
1075,note_off,115,0,6,,,,,,,,4,,,,75,64
1075,note_off,235,0,8,,,,,,,,6,,,,51,64
1075,note_off,235,0,9,,,,,,,,7,,,,39,64
1075,note_off,115,0,3,,,,,,,,1,,,,75,64
1075,note_off,115,0,5,,,,,,,,3,,,,79,64
1080,note_on,5,0,6,,,,,,,,4,,,,70,30
1080,note_off,0,0,1,,,,,,,,0,,,,67,64
1080,note_off,960,0,2,,,,,,,,0,,,,51,64
1080,note_off,0,0,2,,,,,,,,0,,,,46,64
1080,note_off,960,0,1,,,,,,,,0,,,,70,64
1080,note_off,0,0,1,,,,,,,,0,,,,63,64
1080,note_on,0,0,2,,,,,,,,0,,,,34,30
1080,note_on,0,0,1,,,,,,,,0,,,,65,30
1080,note_on,0,0,1,,,,,,,,0,,,,70,30
1080,note_on,0,0,2,,,,,,,,0,,,,46,30
1080,note_on,0,0,2,,,,,,,,0,,,,41,30
1080,set_tempo,480,1,0,1818181,,,,,,,,,,,,
1080,note_on,5,0,4,,,,,,,,2,,,,77,39
1080,note_on,5,0,5,,,,,,,,3,,,,74,30
1080,note_on,5,0,8,,,,,,,,6,,,,46,45
1080,note_on,5,0,9,,,,,,,,7,,,,34,45
1080,note_on,5,0,3,,,,,,,,1,,,,77,54
1080,note_off,0,0,2,,,,,,,,0,,,,39,64
1080,note_on,0,0,1,,,,,,,,0,,,,62,30
1080,note_on,5,0,11,,,,,,,,14,,,,34,45
1195,note_off,115,0,6,,,,,,,,4,,,,70,64
1195,note_off,115,0,5,,,,,,,,3,,,,74,64
1200,note_on,5,0,6,,,,,,,,4,,,,74,30
1200,note_on,5,0,5,,,,,,,,3,,,,77,30
1315,note_off,115,0,5,,,,,,,,3,,,,77,64
1315,note_off,235,0,1,,,,,,,,0,,,,70,64
1315,note_off,235,0,8,,,,,,,,6,,,,46,64
1315,note_off,0,0,1,,,,,,,,0,,,,65,64
1315,note_off,0,0,1,,,,,,,,0,,,,62,64
1315,note_off,115,0,6,,,,,,,,4,,,,74,64
1315,note_off,235,0,3,,,,,,,,1,,,,77,64
1315,note_off,235,0,4,,,,,,,,2,,,,77,64
1320,note_on,5,0,4,,,,,,,,2,,,,70,36
1320,note_on,5,0,8,,,,,,,,6,,,,46,45
1320,note_on,5,0,5,,,,,,,,3,,,,82,30
1320,note_on,5,0,1,,,,,,,,0,,,,65,45
1320,note_on,5,0,6,,,,,,,,4,,,,77,30
1320,note_on,5,0,3,,,,,,,,1,,,,70,51
1435,note_off,115,0,5,,,,,,,,3,,,,82,64
1435,note_off,115,0,6,,,,,,,,4,,,,77,64
1440,note_off,120,0,1,,,,,,,,0,,,,65,64
1440,note_on,0,0,1,,,,,,,,0,,,,63,45
1440,note_on,5,0,6,,,,,,,,4,,,,74,30
1440,note_on,5,0,5,,,,,,,,3,,,,77,30
1480,note_off,400,0,9,,,,,,,,7,,,,34,64
1480,note_off,400,0,11,,,,,,,,14,,,,34,64
1555,note_off,115,0,6,,,,,,,,4,,,,74,64
1555,note_off,235,0,8,,,,,,,,6,,,,46,64
1555,note_off,235,0,3,,,,,,,,1,,,,70,64
1555,note_off,235,0,4,,,,,,,,2,,,,70,64
1555,note_off,115,0,5,,,,,,,,3,,,,77,64
1560,note_on,0,0,1,,,,,,,,0,,,,62,45
1560,note_on,5,0,8,,,,,,,,6,,,,46,45
1560,note_on,5,0,5,,,,,,,,3,,,,74,30
1560,note_on,5,0,6,,,,,,,,4,,,,70,30
1560,note_off,120,0,1,,,,,,,,0,,,,63,64
1675,note_off,115,0,6,,,,,,,,4,,,,70,64
1675,note_off,115,0,5,,,,,,,,3,,,,74,64
1680,note_on,5,0,6,,,,,,,,4,,,,74,30
1680,note_on,5,0,5,,,,,,,,3,,,,77,30
1795,note_off,235,0,1,,,,,,,,0,,,,62,64
1795,note_off,235,0,8,,,,,,,,6,,,,46,64
1795,note_off,115,0,5,,,,,,,,3,,,,77,64
1795,note_off,115,0,6,,,,,,,,4,,,,74,64
1800,note_on,5,0,8,,,,,,,,6,,,,46,45
1800,note_on,245,0,3,,,,,,,,1,,,,70,45
1800,note_on,5,0,1,,,,,,,,0,,,,60,45
1800,note_on,320,0,11,,,,,,,,14,,,,34,45
1800,note_on,5,0,5,,,,,,,,3,,,,82,30
1800,note_on,5,0,6,,,,,,,,4,,,,77,30
1800,note_on,320,0,9,,,,,,,,7,,,,34,45
1800,note_on,245,0,4,,,,,,,,2,,,,70,30
1800,set_tempo,720,1,0,1666666,,,,,,,,,,,,
1915,note_off,115,0,6,,,,,,,,4,,,,77,64
1915,note_off,115,0,5,,,,,,,,3,,,,82,64
1920,note_on,5,0,5,,,,,,,,3,,,,77,30
1920,note_on,5,0,6,,,,,,,,4,,,,74,30
1920,note_off,840,0,2,,,,,,,,0,,,,46,64
1920,note_on,0,0,1,,,,,,,,0,,,,58,38
1920,note_off,120,0,1,,,,,,,,0,,,,60,64
1920,note_off,0,0,2,,,,,,,,0,,,,41,64
1920,note_off,0,0,2,,,,,,,,0,,,,34,64
2035,note_off,235,0,8,,,,,,,,6,,,,46,64
2035,note_off,235,0,9,,,,,,,,7,,,,34,64
2035,note_off,235,0,3,,,,,,,,1,,,,70,64
2035,note_off,115,0,6,,,,,,,,4,,,,74,64
2035,note_off,235,0,4,,,,,,,,2,,,,70,64
2035,note_off,235,0,11,,,,,,,,14,,,,34,64
2035,note_off,115,0,5,,,,,,,,3,,,,77,64
2040,note_on,120,0,2,,,,,,,,0,,,,34,30
2040,note_on,5,0,8,,,,,,,,6,,,,46,45
2040,note_on,5,0,6,,,,,,,,4,,,,70,30
2040,note_on,0,0,2,,,,,,,,0,,,,41,30
2040,note_on,0,0,2,,,,,,,,0,,,,46,30
2040,note_on,5,0,9,,,,,,,,7,,,,34,45
2040,note_on,5,0,11,,,,,,,,14,,,,34,45
2040,note_on,5,0,5,,,,,,,,3,,,,74,30
2040,note_on,0,0,1,,,,,,,,0,,,,68,30
2040,note_on,0,0,1,,,,,,,,0,,,,65,30
2040,note_on,5,0,4,,,,,,,,2,,,,80,30
2040,note_on,0,0,1,,,,,,,,0,,,,62,30
2040,note_off,120,0,1,,,,,,,,0,,,,58,64
2040,note_on,5,0,3,,,,,,,,1,,,,80,45
2155,note_off,115,0,5,,,,,,,,3,,,,74,64
2155,note_off,115,0,6,,,,,,,,4,,,,70,64
2160,note_on,5,0,6,,,,,,,,4,,,,74,30
2160,note_on,5,0,5,,,,,,,,3,,,,77,30
2160,note_on,0,0,3,,,,,,,,1,,,,79,46
2160,note_off,120,0,3,,,,,,,,1,,,,80,64
2160,note_off,120,0,4,,,,,,,,2,,,,80,64
2160,note_on,0,0,4,,,,,,,,2,,,,79,31
2275,note_off,235,0,8,,,,,,,,6,,,,46,64
2275,note_off,115,0,5,,,,,,,,3,,,,77,64
2275,note_off,115,0,6,,,,,,,,4,,,,74,64
2280,note_off,120,0,4,,,,,,,,2,,,,79,64
2280,note_off,120,0,3,,,,,,,,1,,,,79,64
2280,note_on,0,0,3,,,,,,,,1,,,,77,48
2280,note_on,5,0,5,,,,,,,,3,,,,80,30
2280,note_on,5,0,6,,,,,,,,4,,,,77,30
2280,note_on,0,0,4,,,,,,,,2,,,,77,33
2280,note_on,5,0,8,,,,,,,,6,,,,46,45
2395,note_off,115,0,6,,,,,,,,4,,,,77,64
2395,note_off,115,0,5,,,,,,,,3,,,,80,64
2400,note_on,5,0,6,,,,,,,,4,,,,74,30
2400,note_on,0,0,3,,,,,,,,1,,,,75,50
2400,note_off,120,0,4,,,,,,,,2,,,,77,64
2400,note_on,0,0,4,,,,,,,,2,,,,75,35
2400,note_off,120,0,3,,,,,,,,1,,,,77,64
2400,note_on,5,0,5,,,,,,,,3,,,,77,30
2440,note_off,400,0,11,,,,,,,,14,,,,34,64
2440,note_off,400,0,9,,,,,,,,7,,,,34,64
2515,note_off,235,0,8,,,,,,,,6,,,,46,64
2515,note_off,115,0,5,,,,,,,,3,,,,77,64
2515,note_off,115,0,6,,,,,,,,4,,,,74,64
2520,note_on,5,0,6,,,,,,,,4,,,,70,30
2520,note_on,5,0,8,,,,,,,,6,,,,46,45
2520,set_tempo,720,1,0,1818181,,,,,,,,,,,,
2520,note_off,120,0,3,,,,,,,,1,,,,75,64
2520,note_on,0,0,3,,,,,,,,1,,,,74,52
2520,note_off,120,0,4,,,,,,,,2,,,,75,64
2520,note_on,0,0,4,,,,,,,,2,,,,74,37
2520,note_on,5,0,5,,,,,,,,3,,,,74,30
2635,note_off,115,0,5,,,,,,,,3,,,,74,64
2635,note_off,115,0,6,,,,,,,,4,,,,70,64
2640,note_on,5,0,5,,,,,,,,3,,,,77,30
2640,note_on,5,0,6,,,,,,,,4,,,,74,30
2755,note_off,235,0,3,,,,,,,,1,,,,74,64
2755,note_off,115,0,5,,,,,,,,3,,,,77,64
2755,note_off,235,0,8,,,,,,,,6,,,,46,64
2755,note_off,235,0,4,,,,,,,,2,,,,74,64
2755,note_off,115,0,6,,,,,,,,4,,,,74,64
2760,note_on,5,0,5,,,,,,,,3,,,,80,30
2760,note_on,5,0,8,,,,,,,,6,,,,46,45
2760,note_on,5,0,6,,,,,,,,4,,,,77,30
2760,note_on,320,0,9,,,,,,,,7,,,,34,45
2760,note_on,320,0,11,,,,,,,,14,,,,34,45
2760,note_on,5,0,3,,,,,,,,1,,,,80,56
2760,note_on,5,0,4,,,,,,,,2,,,,80,41
2875,note_off,115,0,6,,,,,,,,4,,,,77,64
2875,note_off,115,0,5,,,,,,,,3,,,,80,64
2880,note_on,5,0,6,,,,,,,,4,,,,74,30
2880,note_on,5,0,5,,,,,,,,3,,,,77,30
2995,note_off,235,0,3,,,,,,,,1,,,,80,64
2995,note_off,235,0,9,,,,,,,,7,,,,34,64
2995,note_off,115,0,6,,,,,,,,4,,,,74,64
2995,note_off,235,0,11,,,,,,,,14,,,,34,64
2995,note_off,235,0,8,,,,,,,,6,,,,46,64
2995,note_off,235,0,4,,,,,,,,2,,,,80,64
2995,note_off,115,0,5,,,,,,,,3,,,,77,64
3000,note_on,5,0,3,,,,,,,,1,,,,80,60
3000,note_on,5,0,11,,,,,,,,14,,,,39,45
3000,note_on,0,0,2,,,,,,,,0,,,,46,30
3000,note_on,0,0,2,,,,,,,,0,,,,39,30
3000,note_off,0,0,1,,,,,,,,0,,,,65,64
3000,note_off,0,0,1,,,,,,,,0,,,,62,64
3000,note_on,5,0,5,,,,,,,,3,,,,75,30
3000,note_on,5,0,6,,,,,,,,4,,,,70,30
3000,note_on,0,0,1,,,,,,,,0,,,,63,30
3000,note_on,0,0,1,,,,,,,,0,,,,67,30
3000,note_on,5,0,8,,,,,,,,6,,,,51,45
3000,note_on,5,0,4,,,,,,,,2,,,,80,45
3000,note_on,0,0,1,,,,,,,,0,,,,70,30
3000,note_off,960,0,1,,,,,,,,0,,,,68,64
3000,note_off,0,0,2,,,,,,,,0,,,,34,64
3000,note_off,0,0,2,,,,,,,,0,,,,41,64
3000,note_off,960,0,2,,,,,,,,0,,,,46,64
3000,set_tempo,480,1,0,1666666,,,,,,,,,,,,
3000,note_on,5,0,9,,,,,,,,7,,,,39,45
3000,note_on,0,0,2,,,,,,,,0,,,,51,30
3020,note_off,20,0,4,,,,,,,,2,,,,80,64
3020,note_on,0,0,4,,,,,,,,2,,,,82,45
3030,note_on,0,0,3,,,,,,,,1,,,,82,60
3030,note_off,30,0,3,,,,,,,,1,,,,80,64
3040,note_off,20,0,4,,,,,,,,2,,,,82,64
3040,note_on,0,0,4,,,,,,,,2,,,,80,45
3060,note_off,30,0,3,,,,,,,,1,,,,82,64
3060,note_off,20,0,4,,,,,,,,2,,,,80,64
3060,note_on,0,0,4,,,,,,,,2,,,,82,45
3060,note_on,0,0,3,,,,,,,,1,,,,80,60
3080,note_off,20,0,4,,,,,,,,2,,,,82,64
3080,note_on,0,0,4,,,,,,,,2,,,,80,45
3090,note_on,0,0,3,,,,,,,,1,,,,82,60
3090,note_off,30,0,3,,,,,,,,1,,,,80,64
3100,note_off,20,0,4,,,,,,,,2,,,,80,64
3100,note_on,0,0,4,,,,,,,,2,,,,82,45
3115,note_off,115,0,5,,,,,,,,3,,,,75,64
3115,note_off,115,0,6,,,,,,,,4,,,,70,64
3120,note_on,5,0,6,,,,,,,,4,,,,75,30
3120,note_off,30,0,3,,,,,,,,1,,,,82,64
3120,note_on,0,0,3,,,,,,,,1,,,,80,60
3120,note_on,0,0,4,,,,,,,,2,,,,80,45
3120,note_on,5,0,5,,,,,,,,3,,,,79,30
3120,note_off,20,0,4,,,,,,,,2,,,,82,64
3140,note_off,20,0,4,,,,,,,,2,,,,80,64
3140,note_on,0,0,4,,,,,,,,2,,,,82,45
3150,note_on,0,0,3,,,,,,,,1,,,,82,60
3150,note_off,30,0,3,,,,,,,,1,,,,80,64
3160,note_on,0,0,4,,,,,,,,2,,,,80,45
3160,note_off,20,0,4,,,,,,,,2,,,,82,64
3180,note_on,0,0,4,,,,,,,,2,,,,82,45
3180,note_off,20,0,4,,,,,,,,2,,,,80,64
3180,note_on,0,0,3,,,,,,,,1,,,,80,60
3180,note_off,30,0,3,,,,,,,,1,,,,82,64
3200,note_off,20,0,4,,,,,,,,2,,,,82,64
3200,note_on,0,0,4,,,,,,,,2,,,,80,45
3210,note_off,30,0,3,,,,,,,,1,,,,80,64
3210,note_on,0,0,3,,,,,,,,1,,,,82,60
3220,note_on,0,0,4,,,,,,,,2,,,,82,45
3220,note_off,20,0,4,,,,,,,,2,,,,80,64
3235,note_off,115,0,5,,,,,,,,3,,,,79,64
3235,note_off,235,0,8,,,,,,,,6,,,,51,64
3235,note_off,115,0,6,,,,,,,,4,,,,75,64
3240,note_on,0,0,4,,,,,,,,2,,,,79,45
3240,note_on,0,0,3,,,,,,,,1,,,,79,60
3240,note_off,30,0,3,,,,,,,,1,,,,82,64
3240,note_on,5,0,5,,,,,,,,3,,,,82,30
3240,note_on,5,0,6,,,,,,,,4,,,,79,30
3240,note_off,20,0,4,,,,,,,,2,,,,82,64
3240,note_on,5,0,8,,,,,,,,6,,,,51,45
3355,note_off,115,0,5,,,,,,,,3,,,,82,64
3355,note_off,115,0,6,,,,,,,,4,,,,79,64
3360,note_on,5,0,5,,,,,,,,3,,,,79,30
3360,note_on,5,0,6,,,,,,,,4,,,,75,30
3400,note_off,400,0,11,,,,,,,,14,,,,39,64
3400,note_off,400,0,9,,,,,,,,7,,,,39,64
3475,note_off,235,0,8,,,,,,,,6,,,,51,64
3475,note_off,115,0,5,,,,,,,,3,,,,79,64
3475,note_off,235,0,3,,,,,,,,1,,,,79,64
3475,note_off,115,0,6,,,,,,,,4,,,,75,64
3475,note_off,235,0,4,,,,,,,,2,,,,79,64
3480,set_tempo,480,1,0,1875000,,,,,,,,,,,,
3480,note_on,5,0,5,,,,,,,,3,,,,75,30
3480,note_on,5,0,6,,,,,,,,4,,,,70,30
3480,note_on,5,0,8,,,,,,,,6,,,,51,45
3595,note_off,115,0,5,,,,,,,,3,,,,75,64
3595,note_off,115,0,6,,,,,,,,4,,,,70,64
3600,note_on,5,0,6,,,,,,,,4,,,,75,30
3600,note_on,5,0,5,,,,,,,,3,,,,79,30
3715,note_off,235,0,8,,,,,,,,6,,,,51,64
3715,note_off,115,0,6,,,,,,,,4,,,,75,64
3715,note_off,115,0,5,,,,,,,,3,,,,79,64
3720,note_on,5,0,6,,,,,,,,4,,,,79,30
3720,note_on,245,0,4,,,,,,,,2,,,,79,30
3720,note_on,320,0,9,,,,,,,,7,,,,39,45
3720,note_on,320,0,11,,,,,,,,14,,,,39,45
3720,note_on,5,0,8,,,,,,,,6,,,,51,45
3720,note_on,5,0,5,,,,,,,,3,,,,82,30
3720,note_on,245,0,3,,,,,,,,1,,,,79,45
3835,note_off,115,0,6,,,,,,,,4,,,,79,64
3835,note_off,115,0,5,,,,,,,,3,,,,82,64
3840,note_on,5,0,6,,,,,,,,4,,,,75,30
3840,note_off,840,0,2,,,,,,,,0,,,,51,64
3840,note_off,0,0,2,,,,,,,,0,,,,46,64
3840,note_off,0,0,2,,,,,,,,0,,,,39,64
3840,note_on,5,0,5,,,,,,,,3,,,,79,30
3840,note_off,0,0,1,,,,,,,,0,,,,63,64
3840,note_off,0,0,1,,,,,,,,0,,,,67,64
3840,note_off,840,0,1,,,,,,,,0,,,,70,64
3955,note_off,235,0,11,,,,,,,,14,,,,39,64
3955,note_off,115,0,5,,,,,,,,3,,,,79,64
3955,note_off,235,0,3,,,,,,,,1,,,,79,64
3955,note_off,235,0,9,,,,,,,,7,,,,39,64
3955,note_off,235,0,8,,,,,,,,6,,,,51,64
3955,note_off,115,0,6,,,,,,,,4,,,,75,64
3955,note_off,235,0,4,,,,,,,,2,,,,79,64
3960,set_tempo,480,1,0,1818181,,,,,,,,,,,,
3960,note_on,5,0,4,,,,,,,,2,,,,77,30
3960,note_on,120,0,2,,,,,,,,0,,,,38,30
3960,note_on,5,0,3,,,,,,,,1,,,,77,45
3960,note_on,5,0,11,,,,,,,,14,,,,38,45
3960,note_on,120,0,1,,,,,,,,0,,,,62,30
3960,note_on,0,0,1,,,,,,,,0,,,,65,30
3960,note_on,0,0,1,,,,,,,,0,,,,70,30
3960,note_on,5,0,5,,,,,,,,3,,,,77,30
3960,note_on,0,0,2,,,,,,,,0,,,,50,30
3960,note_on,5,0,6,,,,,,,,4,,,,74,30
3960,note_on,5,0,9,,,,,,,,7,,,,38,45
3960,note_on,5,0,8,,,,,,,,6,,,,50,45
4075,note_off,115,0,6,,,,,,,,4,,,,74,64
4075,note_off,115,0,5,,,,,,,,3,,,,77,64
4080,note_on,5,0,6,,,,,,,,4,,,,80,30
4080,note_on,5,0,5,,,,,,,,3,,,,74,30
4195,note_off,235,0,8,,,,,,,,6,,,,50,64
4195,note_off,115,0,6,,,,,,,,4,,,,80,64
4195,note_off,115,0,5,,,,,,,,3,,,,74,64
4195,note_off,235,0,3,,,,,,,,1,,,,77,64
4195,note_off,235,0,4,,,,,,,,2,,,,77,64
4200,note_on,5,0,3,,,,,,,,1,,,,79,53
4200,note_on,5,0,4,,,,,,,,2,,,,79,38
4200,set_tempo,240,1,0,1714285,,,,,,,,,,,,
4200,note_on,5,0,8,,,,,,,,6,,,,50,45
4200,note_on,5,0,5,,,,,,,,3,,,,82,30
4200,note_on,5,0,6,,,,,,,,4,,,,79,30
4315,note_off,115,0,5,,,,,,,,3,,,,82,64
4315,note_off,115,0,6,,,,,,,,4,,,,79,64
4320,note_on,0,0,3,,,,,,,,1,,,,80,57
4320,note_off,120,0,3,,,,,,,,1,,,,79,64
4320,note_off,120,0,4,,,,,,,,2,,,,79,64
4320,note_on,0,0,4,,,,,,,,2,,,,80,42
4320,note_on,5,0,6,,,,,,,,4,,,,77,30
4320,note_on,5,0,5,,,,,,,,3,,,,80,30
4360,note_off,400,0,11,,,,,,,,14,,,,38,64
4360,note_off,400,0,9,,,,,,,,7,,,,38,64
4435,note_off,235,0,8,,,,,,,,6,,,,50,64
4435,note_off,115,0,3,,,,,,,,1,,,,80,64
4435,note_off,115,0,4,,,,,,,,2,,,,80,64
4435,note_off,115,0,5,,,,,,,,3,,,,80,64
4435,note_off,115,0,6,,,,,,,,4,,,,77,64
4440,note_on,5,0,5,,,,,,,,3,,,,79,30
4440,note_on,5,0,3,,,,,,,,1,,,,82,61
4440,note_on,5,0,6,,,,,,,,4,,,,82,30
4440,note_on,5,0,8,,,,,,,,6,,,,50,45
4440,note_on,5,0,4,,,,,,,,2,,,,82,46
4440,set_tempo,240,1,0,1818181,,,,,,,,,,,,
4555,note_off,115,0,6,,,,,,,,4,,,,82,64
4555,note_off,115,0,5,,,,,,,,3,,,,79,64
4560,note_on,5,0,6,,,,,,,,4,,,,80,30
4560,note_on,5,0,5,,,,,,,,3,,,,77,30
4675,note_off,115,0,5,,,,,,,,3,,,,77,64
4675,note_off,235,0,8,,,,,,,,6,,,,50,64
4675,note_off,235,0,3,,,,,,,,1,,,,82,64
4675,note_off,235,0,4,,,,,,,,2,,,,82,64
4675,note_off,115,0,6,,,,,,,,4,,,,80,64
4680,note_on,5,0,3,,,,,,,,1,,,,84,70
4680,note_on,5,0,4,,,,,,,,2,,,,84,55
4680,note_on,5,0,5,,,,,,,,3,,,,75,30
4680,note_on,5,0,6,,,,,,,,4,,,,79,30
4680,note_on,5,0,8,,,,,,,,6,,,,50,45
4680,set_tempo,240,1,0,1714285,,,,,,,,,,,,
4680,note_on,320,0,11,,,,,,,,14,,,,38,45
4680,note_on,320,0,9,,,,,,,,7,,,,38,45
4795,note_off,115,0,6,,,,,,,,4,,,,79,64
4795,note_off,115,0,5,,,,,,,,3,,,,75,64
4800,note_off,120,0,3,,,,,,,,1,,,,84,64
4800,note_on,0,0,3,,,,,,,,1,,,,86,75
4800,note_off,120,0,4,,,,,,,,2,,,,84,64
4800,note_on,5,0,6,,,,,,,,4,,,,77,30
4800,note_on,0,0,4,,,,,,,,2,,,,86,60
4800,note_on,5,0,5,,,,,,,,3,,,,74,30
4915,note_off,235,0,11,,,,,,,,14,,,,38,64
4915,note_off,115,0,5,,,,,,,,3,,,,74,64
4915,note_off,115,0,3,,,,,,,,1,,,,86,64
4915,note_off,115,0,4,,,,,,,,2,,,,86,64
4915,note_off,235,0,8,,,,,,,,6,,,,50,64
4915,note_off,235,0,9,,,,,,,,7,,,,38,64
4915,note_off,115,0,6,,,,,,,,4,,,,77,64
4920,note_on,5,0,6,,,,,,,,4,,,,75,30
4920,note_off,0,0,1,,,,,,,,0,,,,62,64
4920,note_on,5,0,5,,,,,,,,3,,,,79,30
4920,note_off,0,0,1,,,,,,,,0,,,,65,64
4920,note_on,0,0,1,,,,,,,,0,,,,60,30
4920,note_off,960,0,1,,,,,,,,0,,,,70,64
4920,note_on,0,0,1,,,,,,,,0,,,,63,30
4920,note_on,0,0,1,,,,,,,,0,,,,67,30
4920,note_on,5,0,3,,,,,,,,1,,,,75,60
4920,note_on,0,0,2,,,,,,,,0,,,,48,30
4920,note_on,5,0,9,,,,,,,,7,,,,36,45
4920,note_on,0,0,2,,,,,,,,0,,,,36,30
4920,set_tempo,240,1,0,1818181,,,,,,,,,,,,
4920,note_off,960,0,2,,,,,,,,0,,,,50,64
4920,note_on,5,0,4,,,,,,,,2,,,,75,45
4920,note_off,0,0,2,,,,,,,,0,,,,38,64
4920,note_on,5,0,11,,,,,,,,14,,,,36,45
4920,note_on,5,0,8,,,,,,,,6,,,,48,45
5035,note_off,115,0,5,,,,,,,,3,,,,79,64
5035,note_off,115,0,6,,,,,,,,4,,,,75,64
5040,note_on,5,0,5,,,,,,,,3,,,,72,30
5040,note_on,5,0,6,,,,,,,,4,,,,79,30
5155,note_off,115,0,5,,,,,,,,3,,,,72,64
5155,note_off,235,0,8,,,,,,,,6,,,,48,64
5155,note_off,235,0,4,,,,,,,,2,,,,75,64
5155,note_off,235,0,3,,,,,,,,1,,,,75,64
5155,note_off,115,0,6,,,,,,,,4,,,,79,64
5160,note_on,5,0,4,,,,,,,,2,,,,77,45
5160,set_tempo,240,1,0,1714285,,,,,,,,,,,,
5160,note_on,5,0,8,,,,,,,,6,,,,48,45
5160,note_on,5,0,5,,,,,,,,3,,,,80,30
5160,note_on,5,0,3,,,,,,,,1,,,,77,60
5160,note_on,5,0,6,,,,,,,,4,,,,77,30
5275,note_off,115,0,5,,,,,,,,3,,,,80,64
5275,note_off,115,0,6,,,,,,,,4,,,,77,64
5280,note_on,5,0,6,,,,,,,,4,,,,75,30
5280,note_on,0,0,3,,,,,,,,1,,,,79,63
5280,note_on,5,0,5,,,,,,,,3,,,,79,30
5280,note_off,120,0,4,,,,,,,,2,,,,77,64
5280,note_on,0,0,4,,,,,,,,2,,,,79,48
5280,note_off,120,0,3,,,,,,,,1,,,,77,64
5320,note_off,400,0,11,,,,,,,,14,,,,36,64
5320,note_off,400,0,9,,,,,,,,7,,,,36,64
5395,note_off,115,0,5,,,,,,,,3,,,,79,64
5395,note_off,235,0,8,,,,,,,,6,,,,48,64
5395,note_off,115,0,3,,,,,,,,1,,,,79,64
5395,note_off,115,0,6,,,,,,,,4,,,,75,64
5395,note_off,115,0,4,,,,,,,,2,,,,79,64
5400,note_on,5,0,8,,,,,,,,6,,,,48,45
5400,note_on,5,0,3,,,,,,,,1,,,,80,66
5400,note_on,5,0,4,,,,,,,,2,,,,80,51
5400,note_on,5,0,5,,,,,,,,3,,,,77,30
5400,note_on,0,0,7,,,,,,,,5,,,,68,45
5400,note_on,5,0,6,,,,,,,,4,,,,80,30
5400,note_off,5280,0,10,,,,,,,,11,,,,70,64
5400,note_on,0,0,10,,,,,,,,11,,,,68,45
5400,set_tempo,240,1,0,1875000,,,,,,,,,,,,
5400,note_off,5280,0,7,,,,,,,,5,,,,70,64
5515,note_off,115,0,6,,,,,,,,4,,,,80,64
5515,note_off,115,0,5,,,,,,,,3,,,,77,64
5520,note_on,5,0,6,,,,,,,,4,,,,79,30
5520,note_on,5,0,5,,,,,,,,3,,,,75,30
5635,note_off,235,0,8,,,,,,,,6,,,,48,64
5635,note_off,115,0,5,,,,,,,,3,,,,75,64
5635,note_off,235,0,3,,,,,,,,1,,,,80,64
5635,note_off,235,0,4,,,,,,,,2,,,,80,64
5635,note_off,115,0,6,,,,,,,,4,,,,79,64
5640,note_on,5,0,4,,,,,,,,2,,,,82,57
5640,note_on,5,0,6,,,,,,,,4,,,,77,30
5640,note_on,5,0,8,,,,,,,,6,,,,48,45
5640,set_tempo,240,1,0,1714285,,,,,,,,,,,,
5640,note_on,5,0,5,,,,,,,,3,,,,74,30
5640,note_on,320,0,11,,,,,,,,14,,,,36,45
5640,note_on,320,0,9,,,,,,,,7,,,,36,45
5640,note_on,5,0,3,,,,,,,,1,,,,82,72
5755,note_off,115,0,6,,,,,,,,4,,,,77,64
5755,note_off,115,0,5,,,,,,,,3,,,,74,64
5760,note_off,120,0,4,,,,,,,,2,,,,82,64
5760,note_off,120,0,3,,,,,,,,1,,,,82,64
5760,note_on,0,0,4,,,,,,,,2,,,,84,60
5760,note_on,0,0,3,,,,,,,,1,,,,84,75
5760,note_on,5,0,6,,,,,,,,4,,,,75,30
5760,note_on,5,0,5,,,,,,,,3,,,,72,30
5875,note_off,235,0,8,,,,,,,,6,,,,48,64
5875,note_off,115,0,5,,,,,,,,3,,,,72,64
5875,note_off,115,0,4,,,,,,,,2,,,,84,64
5875,note_off,235,0,11,,,,,,,,14,,,,36,64
5875,note_off,115,0,3,,,,,,,,1,,,,84,64
5875,note_off,235,0,9,,,,,,,,7,,,,36,64
5875,note_off,115,0,6,,,,,,,,4,,,,75,64
5880,note_on,5,0,3,,,,,,,,1,,,,74,45
5880,note_on,5,0,4,,,,,,,,2,,,,74,30
5880,note_on,5,0,6,,,,,,,,4,,,,74,30
5880,note_off,960,0,2,,,,,,,,0,,,,48,64
5880,note_off,0,0,2,,,,,,,,0,,,,36,64
5880,note_on,0,0,2,,,,,,,,0,,,,34,30
5880,note_on,0,0,2,,,,,,,,0,,,,46,30
5880,note_on,5,0,9,,,,,,,,7,,,,34,45
5880,note_on,5,0,5,,,,,,,,3,,,,77,30
5880,set_tempo,240,1,0,1818181,,,,,,,,,,,,
5880,note_on,5,0,8,,,,,,,,6,,,,46,45
5880,note_on,0,0,1,,,,,,,,0,,,,65,30
5880,note_on,0,0,1,,,,,,,,0,,,,62,30
5880,note_on,0,0,1,,,,,,,,0,,,,58,30
5880,note_off,0,0,1,,,,,,,,0,,,,60,64
5880,note_off,0,0,1,,,,,,,,0,,,,63,64
5880,note_on,5,0,11,,,,,,,,14,,,,34,45
5880,note_off,960,0,1,,,,,,,,0,,,,67,64
5995,note_off,115,0,5,,,,,,,,3,,,,77,64
5995,note_off,115,0,6,,,,,,,,4,,,,74,64
6000,note_on,5,0,6,,,,,,,,4,,,,77,30
6000,note_on,5,0,5,,,,,,,,3,,,,70,30
6115,note_off,115,0,5,,,,,,,,3,,,,70,64
6115,note_off,115,0,6,,,,,,,,4,,,,77,64
6115,note_off,235,0,8,,,,,,,,6,,,,46,64
6115,note_off,235,0,3,,,,,,,,1,,,,74,64
6115,note_off,235,0,4,,,,,,,,2,,,,74,64
6120,set_tempo,240,1,0,1714285,,,,,,,,,,,,
6120,note_on,5,0,4,,,,,,,,2,,,,75,30
6120,note_on,5,0,6,,,,,,,,4,,,,75,30
6120,note_on,5,0,5,,,,,,,,3,,,,79,30
6120,note_on,5,0,3,,,,,,,,1,,,,75,45
6120,note_on,5,0,8,,,,,,,,6,,,,46,45
6235,note_off,115,0,5,,,,,,,,3,,,,79,64
6235,note_off,115,0,6,,,,,,,,4,,,,75,64
6240,note_on,0,0,4,,,,,,,,2,,,,77,33
6240,note_on,0,0,3,,,,,,,,1,,,,77,48
6240,note_off,120,0,3,,,,,,,,1,,,,75,64
6240,note_off,120,0,4,,,,,,,,2,,,,75,64
6240,note_on,5,0,6,,,,,,,,4,,,,74,30
6240,note_on,5,0,5,,,,,,,,3,,,,77,30
6280,note_off,400,0,9,,,,,,,,7,,,,34,64
6280,note_off,400,0,11,,,,,,,,14,,,,34,64
6355,note_off,115,0,6,,,,,,,,4,,,,74,64
6355,note_off,115,0,5,,,,,,,,3,,,,77,64
6355,note_off,235,0,8,,,,,,,,6,,,,46,64
6355,note_off,115,0,3,,,,,,,,1,,,,77,64
6355,note_off,115,0,4,,,,,,,,2,,,,77,64
6360,note_on,5,0,8,,,,,,,,6,,,,46,45
6360,note_on,5,0,6,,,,,,,,4,,,,79,30
6360,note_on,0,0,10,,,,,,,,11,,,,67,45
6360,note_on,5,0,3,,,,,,,,1,,,,79,51
6360,note_off,960,0,7,,,,,,,,5,,,,68,64
6360,note_on,0,0,7,,,,,,,,5,,,,67,45
6360,note_off,960,0,10,,,,,,,,11,,,,68,64
6360,note_on,5,0,5,,,,,,,,3,,,,75,30
6360,note_on,5,0,4,,,,,,,,2,,,,79,36
6360,set_tempo,240,1,0,1818181,,,,,,,,,,,,
6475,note_off,115,0,5,,,,,,,,3,,,,75,64
6475,note_off,115,0,6,,,,,,,,4,,,,79,64
6480,note_on,5,0,6,,,,,,,,4,,,,77,30
6480,note_on,5,0,5,,,,,,,,3,,,,74,30
6595,note_off,235,0,4,,,,,,,,2,,,,79,64
6595,note_off,115,0,5,,,,,,,,3,,,,74,64
6595,note_off,235,0,3,,,,,,,,1,,,,79,64
6595,note_off,115,0,6,,,,,,,,4,,,,77,64
6595,note_off,235,0,8,,,,,,,,6,,,,46,64
6600,note_on,5,0,8,,,,,,,,6,,,,46,45
6600,note_on,320,0,9,,,,,,,,7,,,,34,45
6600,note_on,5,0,5,,,,,,,,3,,,,72,30
6600,note_on,5,0,4,,,,,,,,2,,,,80,42
6600,note_on,320,0,11,,,,,,,,14,,,,34,45
6600,note_on,5,0,6,,,,,,,,4,,,,75,30
6600,set_tempo,240,1,0,1714285,,,,,,,,,,,,
6600,note_on,5,0,3,,,,,,,,1,,,,80,57
6715,note_off,115,0,6,,,,,,,,4,,,,75,64
6715,note_off,115,0,5,,,,,,,,3,,,,72,64
6720,note_on,0,0,3,,,,,,,,1,,,,82,60
6720,note_on,5,0,5,,,,,,,,3,,,,70,30
6720,note_on,5,0,6,,,,,,,,4,,,,74,30
6720,note_off,120,0,3,,,,,,,,1,,,,80,64
6720,note_on,0,0,4,,,,,,,,2,,,,82,45
6720,note_off,120,0,4,,,,,,,,2,,,,80,64
6835,note_off,115,0,4,,,,,,,,2,,,,82,64
6835,note_off,115,0,5,,,,,,,,3,,,,70,64
6835,note_off,235,0,9,,,,,,,,7,,,,34,64
6835,note_off,235,0,8,,,,,,,,6,,,,46,64
6835,note_off,115,0,6,,,,,,,,4,,,,74,64
6835,note_off,235,0,11,,,,,,,,14,,,,34,64
6835,note_off,115,0,3,,,,,,,,1,,,,82,64
6840,note_on,0,0,1,,,,,,,,0,,,,56,37
6840,note_off,0,0,1,,,,,,,,0,,,,62,64
6840,note_off,960,0,1,,,,,,,,0,,,,65,64
6840,note_on,0,0,1,,,,,,,,0,,,,63,37
6840,note_on,0,0,2,,,,,,,,0,,,,44,30
6840,note_on,0,0,2,,,,,,,,0,,,,32,30
6840,note_on,5,0,5,,,,,,,,3,,,,75,30
6840,note_on,5,0,11,,,,,,,,14,,,,32,45
6840,set_tempo,240,1,0,1875000,,,,,,,,,,,,
6840,note_off,0,0,2,,,,,,,,0,,,,34,64
6840,note_off,0,0,1,,,,,,,,0,,,,58,64
6840,note_on,0,0,1,,,,,,,,0,,,,60,37
6840,note_off,960,0,2,,,,,,,,0,,,,46,64
6840,note_on,5,0,4,,,,,,,,2,,,,72,45
6840,note_on,5,0,3,,,,,,,,1,,,,72,60
6840,note_on,5,0,6,,,,,,,,4,,,,72,30
6840,note_on,5,0,9,,,,,,,,7,,,,32,45
6840,note_on,5,0,8,,,,,,,,6,,,,44,45
6955,note_off,115,0,6,,,,,,,,4,,,,72,64
6955,note_off,115,0,5,,,,,,,,3,,,,75,64
6960,note_on,5,0,5,,,,,,,,3,,,,68,30
6960,note_on,5,0,6,,,,,,,,4,,,,75,30
7075,note_off,115,0,6,,,,,,,,4,,,,75,64
7075,note_off,235,0,3,,,,,,,,1,,,,72,64
7075,note_off,235,0,4,,,,,,,,2,,,,72,64
7075,note_off,115,0,5,,,,,,,,3,,,,68,64
7075,note_off,235,0,8,,,,,,,,6,,,,44,64
7080,note_on,5,0,5,,,,,,,,3,,,,77,30
7080,note_on,5,0,4,,,,,,,,2,,,,74,45
7080,note_on,5,0,8,,,,,,,,6,,,,44,45
7080,note_on,5,0,6,,,,,,,,4,,,,74,30
7080,note_on,5,0,3,,,,,,,,1,,,,74,60
7080,set_tempo,240,1,0,1714285,,,,,,,,,,,,
7195,note_off,115,0,5,,,,,,,,3,,,,77,64
7195,note_off,115,0,6,,,,,,,,4,,,,74,64
7200,note_on,5,0,6,,,,,,,,4,,,,72,30
7200,note_on,5,0,5,,,,,,,,3,,,,75,30
7200,note_on,0,0,3,,,,,,,,1,,,,75,58
7200,note_off,120,0,3,,,,,,,,1,,,,74,64
7200,note_off,120,0,4,,,,,,,,2,,,,74,64
7200,note_on,0,0,4,,,,,,,,2,,,,75,43
7240,note_off,400,0,9,,,,,,,,7,,,,32,64
7240,note_off,400,0,11,,,,,,,,14,,,,32,64
7315,note_off,115,0,5,,,,,,,,3,,,,75,64
7315,note_off,115,0,4,,,,,,,,2,,,,75,64
7315,note_off,115,0,3,,,,,,,,1,,,,75,64
7315,note_off,235,0,8,,,,,,,,6,,,,44,64
7315,note_off,115,0,6,,,,,,,,4,,,,72,64
7320,note_off,960,0,7,,,,,,,,5,,,,67,64
7320,note_off,480,0,1,,,,,,,,0,,,,63,64
7320,note_off,0,0,1,,,,,,,,0,,,,60,64
7320,note_off,0,0,1,,,,,,,,0,,,,56,64
7320,note_on,0,0,1,,,,,,,,0,,,,57,41
7320,note_on,0,0,1,,,,,,,,0,,,,60,41
7320,note_on,80,0,11,,,,,,,,14,,,,33,45
7320,note_on,0,0,1,,,,,,,,0,,,,65,41
7320,note_off,0,0,2,,,,,,,,0,,,,32,64
7320,note_off,480,0,2,,,,,,,,0,,,,44,64
7320,note_on,80,0,9,,,,,,,,7,,,,33,45
7320,note_on,5,0,5,,,,,,,,3,,,,74,30
7320,note_on,5,0,6,,,,,,,,4,,,,77,30
7320,note_off,960,0,10,,,,,,,,11,,,,67,64
7320,note_on,5,0,3,,,,,,,,1,,,,77,56
7320,note_on,0,0,2,,,,,,,,0,,,,33,30
7320,note_on,0,0,10,,,,,,,,11,,,,65,45
7320,note_on,5,0,8,,,,,,,,6,,,,45,45
7320,set_tempo,240,1,0,1818181,,,,,,,,,,,,
7320,note_on,5,0,4,,,,,,,,2,,,,77,41
7320,note_on,0,0,7,,,,,,,,5,,,,65,45
7320,note_on,0,0,2,,,,,,,,0,,,,45,30
7435,note_off,115,0,5,,,,,,,,3,,,,74,64
7435,note_off,115,0,6,,,,,,,,4,,,,77,64
7440,note_on,5,0,5,,,,,,,,3,,,,72,30
7440,note_on,5,0,6,,,,,,,,4,,,,75,30
7555,note_off,235,0,3,,,,,,,,1,,,,77,64
7555,note_off,115,0,6,,,,,,,,4,,,,75,64
7555,note_off,235,0,4,,,,,,,,2,,,,77,64
7555,note_off,235,0,8,,,,,,,,6,,,,45,64
7555,note_off,115,0,5,,,,,,,,3,,,,72,64
7560,note_on,5,0,3,,,,,,,,1,,,,79,51
7560,note_on,5,0,8,,,,,,,,6,,,,45,45
7560,set_tempo,240,1,0,1666666,,,,,,,,,,,,
7560,note_on,5,0,4,,,,,,,,2,,,,79,36
7560,note_on,5,0,6,,,,,,,,4,,,,74,30
7560,note_on,5,0,5,,,,,,,,3,,,,70,30
7675,note_off,115,0,6,,,,,,,,4,,,,74,64
7675,note_off,115,0,5,,,,,,,,3,,,,70,64
7680,note_off,120,0,3,,,,,,,,1,,,,79,64
7680,set_tempo,120,1,0,1818181,,,,,,,,,,,,
7680,note_on,5,0,6,,,,,,,,4,,,,72,30
7680,note_on,0,0,3,,,,,,,,1,,,,75,48
7680,note_off,120,0,4,,,,,,,,2,,,,79,64
7680,note_on,5,0,5,,,,,,,,3,,,,69,30
7680,note_on,0,0,4,,,,,,,,2,,,,75,33
7720,note_off,400,0,9,,,,,,,,7,,,,33,64
7720,note_off,400,0,11,,,,,,,,14,,,,33,64
7720,note_off,400,0,1,,,,,,,,0,,,,65,64
7720,note_off,400,0,2,,,,,,,,0,,,,45,64
7720,note_off,0,0,1,,,,,,,,0,,,,60,64
7720,note_off,0,0,2,,,,,,,,0,,,,33,64
7720,note_off,0,0,1,,,,,,,,0,,,,57,64
7795,note_off,115,0,4,,,,,,,,2,,,,75,64
7795,note_off,115,0,5,,,,,,,,3,,,,69,64
7795,note_off,235,0,8,,,,,,,,6,,,,45,64
7795,note_off,115,0,6,,,,,,,,4,,,,72,64
7795,note_off,115,0,3,,,,,,,,1,,,,75,64
7800,note_on,5,0,3,,,,,,,,1,,,,74,45
7800,note_on,5,0,6,,,,,,,,4,,,,70,30
7800,note_on,0,0,2,,,,,,,,0,,,,41,30
7800,note_on,5,0,8,,,,,,,,6,,,,46,45
7800,note_off,480,0,10,,,,,,,,11,,,,65,64
7800,note_on,0,0,10,,,,,,,,11,,,,65,45
7800,set_tempo,120,1,0,1764705,,,,,,,,,,,,
7800,note_on,0,0,7,,,,,,,,5,,,,65,45
7800,note_off,480,0,7,,,,,,,,5,,,,65,64
7800,note_on,80,0,9,,,,,,,,7,,,,34,45
7800,note_on,5,0,4,,,,,,,,2,,,,74,30
7800,note_on,80,0,2,,,,,,,,0,,,,34,30
7800,note_on,5,0,5,,,,,,,,3,,,,74,30
7800,note_on,80,0,11,,,,,,,,14,,,,34,45
7800,note_on,0,0,2,,,,,,,,0,,,,46,30
7800,note_on,80,0,1,,,,,,,,0,,,,62,45
7915,note_off,115,0,5,,,,,,,,3,,,,74,64
7915,note_off,115,0,6,,,,,,,,4,,,,70,64
7920,note_on,0,0,1,,,,,,,,0,,,,65,45
7920,note_on,5,0,6,,,,,,,,4,,,,74,30
7920,note_on,5,0,5,,,,,,,,3,,,,77,30
7920,note_off,120,0,1,,,,,,,,0,,,,62,64
8035,note_off,115,0,5,,,,,,,,3,,,,77,64
8035,note_off,115,0,6,,,,,,,,4,,,,74,64
8035,note_off,235,0,8,,,,,,,,6,,,,46,64
8040,note_on,5,0,6,,,,,,,,4,,,,77,30
8040,note_off,120,0,1,,,,,,,,0,,,,65,64
8040,note_on,5,0,8,,,,,,,,6,,,,46,45
8040,note_on,0,0,1,,,,,,,,0,,,,70,45
8040,note_on,5,0,5,,,,,,,,3,,,,82,30
8155,note_off,115,0,6,,,,,,,,4,,,,77,64
8155,note_off,115,0,5,,,,,,,,3,,,,82,64
8160,note_on,0,0,1,,,,,,,,0,,,,65,45
8160,note_on,5,0,6,,,,,,,,4,,,,74,30
8160,note_off,120,0,1,,,,,,,,0,,,,70,64
8160,note_on,5,0,5,,,,,,,,3,,,,77,30
8200,note_off,400,0,11,,,,,,,,14,,,,34,64
8200,note_off,400,0,9,,,,,,,,7,,,,34,64
8275,note_off,115,0,6,,,,,,,,4,,,,74,64
8275,note_off,115,0,5,,,,,,,,3,,,,77,64
8275,note_off,235,0,8,,,,,,,,6,,,,46,64
8280,note_on,5,0,5,,,,,,,,3,,,,74,30
8280,note_on,5,0,8,,,,,,,,6,,,,46,46
8280,note_on,5,0,6,,,,,,,,4,,,,70,30
8280,note_off,120,0,1,,,,,,,,0,,,,65,64
8280,note_on,0,0,1,,,,,,,,0,,,,62,45
8395,note_off,595,0,4,,,,,,,,2,,,,74,64
8395,note_off,115,0,6,,,,,,,,4,,,,70,64
8395,note_off,595,0,3,,,,,,,,1,,,,74,64
8395,note_off,115,0,5,,,,,,,,3,,,,74,64
8400,note_on,5,0,5,,,,,,,,3,,,,77,30
8400,note_on,5,0,4,,,,,,,,2,,,,70,30
8400,note_on,5,0,6,,,,,,,,4,,,,74,30
8400,note_on,5,0,3,,,,,,,,1,,,,70,45
8400,set_tempo,600,1,0,1935483,,,,,,,,,,,,
8515,note_off,235,0,8,,,,,,,,6,,,,46,64
8515,note_off,115,0,5,,,,,,,,3,,,,77,64
8515,note_off,115,0,6,,,,,,,,4,,,,74,64
8520,note_on,5,0,8,,,,,,,,6,,,,46,47
8520,note_on,320,0,9,,,,,,,,7,,,,34,45
8520,note_on,0,0,3,,,,,,,,1,,,,69,46
8520,note_off,120,0,3,,,,,,,,1,,,,70,64
8520,note_on,5,0,6,,,,,,,,4,,,,77,30
8520,note_off,120,0,4,,,,,,,,2,,,,70,64
8520,note_on,0,0,4,,,,,,,,2,,,,69,31
8520,note_on,320,0,11,,,,,,,,14,,,,34,44
8520,note_on,5,0,5,,,,,,,,3,,,,82,30
8635,note_off,115,0,6,,,,,,,,4,,,,77,64
8635,note_off,115,0,5,,,,,,,,3,,,,82,64
8640,note_off,0,0,2,,,,,,,,0,,,,41,64
8640,note_off,120,0,4,,,,,,,,2,,,,69,64
8640,note_on,0,0,4,,,,,,,,2,,,,70,32
8640,note_off,0,0,2,,,,,,,,0,,,,34,64
8640,note_off,840,0,2,,,,,,,,0,,,,46,64
8640,note_off,120,0,3,,,,,,,,1,,,,69,64
8640,note_on,5,0,6,,,,,,,,4,,,,74,30
8640,note_on,5,0,5,,,,,,,,3,,,,77,30
8640,note_on,0,0,3,,,,,,,,1,,,,70,47
8680,note_off,400,0,1,,,,,,,,0,,,,62,64
8755,note_off,235,0,11,,,,,,,,14,,,,34,64
8755,note_off,115,0,3,,,,,,,,1,,,,70,64
8755,note_off,235,0,9,,,,,,,,7,,,,34,64
8755,note_off,235,0,8,,,,,,,,6,,,,46,64
8755,note_off,115,0,4,,,,,,,,2,,,,70,64
8755,note_off,115,0,6,,,,,,,,4,,,,74,64
8755,note_off,115,0,5,,,,,,,,3,,,,77,64
8760,note_on,120,0,2,,,,,,,,0,,,,34,30
8760,note_on,0,0,2,,,,,,,,0,,,,46,30
8760,note_on,5,0,4,,,,,,,,2,,,,77,33
8760,note_on,5,0,6,,,,,,,,4,,,,70,30
8760,set_tempo,360,1,0,1764705,,,,,,,,,,,,
8760,note_on,5,0,11,,,,,,,,14,,,,34,43
8760,note_on,80,0,1,,,,,,,,0,,,,65,47
8760,note_on,0,0,2,,,,,,,,0,,,,41,30
8760,note_on,5,0,9,,,,,,,,7,,,,34,45
8760,note_on,5,0,8,,,,,,,,6,,,,46,48
8760,note_on,5,0,5,,,,,,,,3,,,,74,30
8760,note_on,5,0,3,,,,,,,,1,,,,77,48
8875,note_off,115,0,5,,,,,,,,3,,,,74,64
8875,note_off,115,0,6,,,,,,,,4,,,,70,64
8880,note_off,120,0,1,,,,,,,,0,,,,65,64
8880,note_on,5,0,6,,,,,,,,4,,,,74,30
8880,note_on,0,0,1,,,,,,,,0,,,,63,47
8880,note_on,5,0,5,,,,,,,,3,,,,77,30
8995,note_off,115,0,6,,,,,,,,4,,,,74,64
8995,note_off,115,0,5,,,,,,,,3,,,,77,64
8995,note_off,235,0,8,,,,,,,,6,,,,46,64
9000,note_on,5,0,6,,,,,,,,4,,,,77,30
9000,note_on,5,0,8,,,,,,,,6,,,,46,49
9000,note_on,5,0,5,,,,,,,,3,,,,82,30
9000,note_off,120,0,1,,,,,,,,0,,,,63,64
9000,note_on,0,0,1,,,,,,,,0,,,,62,47
9115,note_off,115,0,6,,,,,,,,4,,,,77,64
9115,note_off,115,0,5,,,,,,,,3,,,,82,64
9120,note_on,5,0,5,,,,,,,,3,,,,77,30
9120,note_on,5,0,6,,,,,,,,4,,,,74,30
9120,note_off,120,0,1,,,,,,,,0,,,,62,64
9120,note_on,0,0,1,,,,,,,,0,,,,60,47
9160,note_off,400,0,11,,,,,,,,14,,,,34,64
9160,note_off,400,0,9,,,,,,,,7,,,,34,64
9235,note_off,115,0,5,,,,,,,,3,,,,77,64
9235,note_off,115,0,6,,,,,,,,4,,,,74,64
9235,note_off,235,0,8,,,,,,,,6,,,,46,64
9240,note_on,5,0,8,,,,,,,,6,,,,46,50
9240,note_off,120,0,1,,,,,,,,0,,,,60,64
9240,note_on,0,0,1,,,,,,,,0,,,,58,47
9240,note_off,1440,0,10,,,,,,,,11,,,,65,64
9240,note_on,5,0,6,,,,,,,,4,,,,70,30
9240,note_on,5,0,5,,,,,,,,3,,,,74,30
9240,note_off,1440,0,7,,,,,,,,5,,,,65,64
9240,note_on,0,0,7,,,,,,,,5,,,,70,45
9240,note_on,0,0,10,,,,,,,,11,,,,70,45
9355,note_off,595,0,3,,,,,,,,1,,,,77,64
9355,note_off,115,0,5,,,,,,,,3,,,,74,64
9355,note_off,595,0,4,,,,,,,,2,,,,77,64
9355,note_off,115,0,6,,,,,,,,4,,,,70,64
9360,note_on,5,0,6,,,,,,,,4,,,,74,30
9360,set_tempo,600,1,0,2000000,,,,,,,,,,,,
9360,note_on,5,0,5,,,,,,,,3,,,,77,30
9360,note_on,5,0,3,,,,,,,,1,,,,70,53
9360,note_on,5,0,4,,,,,,,,2,,,,70,38
9475,note_off,115,0,6,,,,,,,,4,,,,74,64
9475,note_off,235,0,8,,,,,,,,6,,,,46,64
9475,note_off,115,0,5,,,,,,,,3,,,,77,64
9480,note_on,5,0,8,,,,,,,,6,,,,46,51
9480,note_off,120,0,4,,,,,,,,2,,,,70,64
9480,note_on,5,0,5,,,,,,,,3,,,,82,30
9480,note_on,5,0,6,,,,,,,,4,,,,77,30
9480,note_on,0,0,3,,,,,,,,1,,,,69,54
9480,note_on,320,0,11,,,,,,,,14,,,,34,40
9480,note_on,0,0,4,,,,,,,,2,,,,69,39
9480,note_off,120,0,3,,,,,,,,1,,,,70,64
9480,note_on,320,0,9,,,,,,,,7,,,,34,45
9595,note_off,115,0,6,,,,,,,,4,,,,77,64
9595,note_off,115,0,5,,,,,,,,3,,,,82,64
9600,note_on,5,0,6,,,,,,,,4,,,,74,30
9600,note_off,0,0,2,,,,,,,,0,,,,34,64
9600,note_off,840,0,2,,,,,,,,0,,,,46,64
9600,note_on,5,0,5,,,,,,,,3,,,,77,30
9600,note_off,0,0,2,,,,,,,,0,,,,41,64
9600,note_on,0,0,3,,,,,,,,1,,,,70,55
9600,note_off,120,0,4,,,,,,,,2,,,,69,64
9600,note_on,0,0,4,,,,,,,,2,,,,70,40
9600,note_off,120,0,3,,,,,,,,1,,,,69,64
9640,note_off,400,0,1,,,,,,,,0,,,,58,64
9715,note_off,235,0,11,,,,,,,,14,,,,34,64
9715,note_off,115,0,3,,,,,,,,1,,,,70,64
9715,note_off,115,0,6,,,,,,,,4,,,,74,64
9715,note_off,115,0,5,,,,,,,,3,,,,77,64
9715,note_off,115,0,4,,,,,,,,2,,,,70,64
9715,note_off,235,0,9,,,,,,,,7,,,,34,64
9715,note_off,235,0,8,,,,,,,,6,,,,46,64
9720,note_on,5,0,3,,,,,,,,1,,,,79,56
9720,note_on,5,0,5,,,,,,,,3,,,,75,30
9720,note_off,480,0,10,,,,,,,,11,,,,70,64
9720,note_on,0,0,10,,,,,,,,11,,,,70,48
9720,note_on,5,0,4,,,,,,,,2,,,,79,41
9720,note_on,120,0,2,,,,,,,,0,,,,39,30
9720,note_off,480,0,7,,,,,,,,5,,,,70,64
9720,note_on,0,0,7,,,,,,,,5,,,,70,48
9720,set_tempo,360,1,0,1764705,,,,,,,,,,,,
9720,note_on,5,0,11,,,,,,,,14,,,,39,39
9720,note_on,5,0,8,,,,,,,,6,,,,51,52
9720,note_on,0,0,2,,,,,,,,0,,,,51,30
9720,note_on,5,0,9,,,,,,,,7,,,,39,45
9720,note_on,80,0,1,,,,,,,,0,,,,67,49
9720,note_on,5,0,6,,,,,,,,4,,,,70,30
9835,note_off,115,0,5,,,,,,,,3,,,,75,64
9835,note_off,115,0,6,,,,,,,,4,,,,70,64
9840,note_off,120,0,1,,,,,,,,0,,,,67,64
9840,note_on,0,0,1,,,,,,,,0,,,,65,49
9840,note_on,5,0,5,,,,,,,,3,,,,79,30
9840,note_on,5,0,6,,,,,,,,4,,,,75,30
9955,note_off,115,0,5,,,,,,,,3,,,,79,64
9955,note_off,235,0,8,,,,,,,,6,,,,51,64
9955,note_off,115,0,6,,,,,,,,4,,,,75,64
9960,note_on,5,0,5,,,,,,,,3,,,,82,31
9960,note_on,0,0,1,,,,,,,,0,,,,63,49
9960,note_on,5,0,6,,,,,,,,4,,,,79,31
9960,note_off,120,0,1,,,,,,,,0,,,,65,64
9960,note_on,5,0,8,,,,,,,,6,,,,51,53
10075,note_off,115,0,6,,,,,,,,4,,,,79,64
10075,note_off,115,0,5,,,,,,,,3,,,,82,64
10080,note_on,5,0,6,,,,,,,,4,,,,75,32
10080,note_off,120,0,1,,,,,,,,0,,,,63,64
10080,note_on,0,0,1,,,,,,,,0,,,,62,49
10080,note_on,5,0,5,,,,,,,,3,,,,79,32
10120,note_off,400,0,11,,,,,,,,14,,,,39,64
10120,note_off,400,0,9,,,,,,,,7,,,,39,64
10195,note_off,235,0,8,,,,,,,,6,,,,51,64
10195,note_off,115,0,6,,,,,,,,4,,,,75,64
10195,note_off,115,0,5,,,,,,,,3,,,,79,64
10200,note_on,5,0,5,,,,,,,,3,,,,75,33
10200,note_on,0,0,1,,,,,,,,0,,,,63,49
10200,note_off,120,0,1,,,,,,,,0,,,,62,64
10200,note_on,5,0,8,,,,,,,,6,,,,51,54
10200,note_on,5,0,6,,,,,,,,4,,,,70,33
10315,note_off,595,0,3,,,,,,,,1,,,,79,64
10315,note_off,115,0,5,,,,,,,,3,,,,75,64
10315,note_off,115,0,6,,,,,,,,4,,,,70,64
10315,note_off,595,0,4,,,,,,,,2,,,,79,64
10320,note_on,5,0,3,,,,,,,,1,,,,70,61
10320,note_on,5,0,5,,,,,,,,3,,,,79,34
10320,note_on,5,0,6,,,,,,,,4,,,,75,34
10320,set_tempo,600,1,0,2000000,,,,,,,,,,,,
10320,note_on,5,0,4,,,,,,,,2,,,,70,46
10435,note_off,115,0,5,,,,,,,,3,,,,79,64
10435,note_off,235,0,8,,,,,,,,6,,,,51,64
10435,note_off,115,0,6,,,,,,,,4,,,,75,64
10440,note_off,120,0,3,,,,,,,,1,,,,70,64
10440,note_on,0,0,3,,,,,,,,1,,,,69,62
10440,note_on,320,0,11,,,,,,,,14,,,,39,36
10440,note_off,120,0,4,,,,,,,,2,,,,70,64
10440,note_on,0,0,4,,,,,,,,2,,,,69,47
10440,note_on,5,0,6,,,,,,,,4,,,,79,35
10440,note_on,5,0,8,,,,,,,,6,,,,51,55
10440,note_on,320,0,9,,,,,,,,7,,,,39,45
10440,note_on,5,0,5,,,,,,,,3,,,,82,35
10555,note_off,115,0,6,,,,,,,,4,,,,79,64
10555,note_off,115,0,5,,,,,,,,3,,,,82,64
10560,note_off,120,0,4,,,,,,,,2,,,,69,64
10560,note_on,0,0,4,,,,,,,,2,,,,70,48
10560,note_on,0,0,3,,,,,,,,1,,,,70,63
10560,note_on,5,0,6,,,,,,,,4,,,,75,36
10560,note_off,120,0,3,,,,,,,,1,,,,69,64
10560,note_off,0,0,2,,,,,,,,0,,,,39,64
10560,note_off,840,0,2,,,,,,,,0,,,,51,64
10560,note_on,5,0,5,,,,,,,,3,,,,79,36
10600,note_off,400,0,1,,,,,,,,0,,,,63,64
10675,note_off,115,0,4,,,,,,,,2,,,,70,64
10675,note_off,115,0,3,,,,,,,,1,,,,70,64
10675,note_off,235,0,11,,,,,,,,14,,,,39,64
10675,note_off,115,0,6,,,,,,,,4,,,,75,64
10675,note_off,235,0,9,,,,,,,,7,,,,39,64
10675,note_off,115,0,5,,,,,,,,3,,,,79,64
10675,note_off,235,0,8,,,,,,,,6,,,,51,64
10680,note_on,5,0,8,,,,,,,,6,,,,51,56
10680,note_on,0,0,2,,,,,,,,0,,,,51,30
10680,note_on,120,0,2,,,,,,,,0,,,,39,30
10680,note_off,960,0,7,,,,,,,,5,,,,70,64
10680,note_on,0,0,7,,,,,,,,5,,,,72,54
10680,note_on,5,0,4,,,,,,,,2,,,,81,49
10680,note_on,5,0,6,,,,,,,,4,,,,72,37
10680,note_on,5,0,11,,,,,,,,14,,,,39,35
10680,note_on,5,0,3,,,,,,,,1,,,,81,64
10680,note_on,5,0,9,,,,,,,,7,,,,39,45
10680,note_on,0,0,10,,,,,,,,11,,,,72,54
10680,note_on,80,0,1,,,,,,,,0,,,,69,52
10680,note_off,960,0,10,,,,,,,,11,,,,70,64
10680,note_on,5,0,5,,,,,,,,3,,,,77,37
10680,set_tempo,360,1,0,1764705,,,,,,,,,,,,
10795,note_off,115,0,6,,,,,,,,4,,,,72,64
10795,note_off,115,0,5,,,,,,,,3,,,,77,64
10800,note_on,5,0,5,,,,,,,,3,,,,81,38
10800,note_on,5,0,6,,,,,,,,4,,,,77,38
10800,note_off,120,0,1,,,,,,,,0,,,,69,64
10800,note_on,0,0,1,,,,,,,,0,,,,67,53
10915,note_off,235,0,8,,,,,,,,6,,,,51,64
10915,note_off,115,0,5,,,,,,,,3,,,,81,64
10915,note_off,115,0,6,,,,,,,,4,,,,77,64
10920,note_on,5,0,6,,,,,,,,4,,,,81,39
10920,note_on,5,0,8,,,,,,,,6,,,,51,57
10920,note_on,5,0,5,,,,,,,,3,,,,84,39
10920,note_off,120,0,1,,,,,,,,0,,,,67,64
10920,note_on,0,0,1,,,,,,,,0,,,,65,54
11035,note_off,115,0,6,,,,,,,,4,,,,81,64
11035,note_off,115,0,5,,,,,,,,3,,,,84,64
11040,note_on,5,0,5,,,,,,,,3,,,,81,40
11040,note_off,120,0,1,,,,,,,,0,,,,65,64
11040,note_on,0,0,1,,,,,,,,0,,,,63,55
11040,note_on,5,0,6,,,,,,,,4,,,,77,40
11080,note_off,400,0,9,,,,,,,,7,,,,39,64
11080,note_off,400,0,11,,,,,,,,14,,,,39,64
11155,note_off,235,0,8,,,,,,,,6,,,,51,64
11155,note_off,115,0,6,,,,,,,,4,,,,77,64
11155,note_off,115,0,5,,,,,,,,3,,,,81,64
11160,note_on,5,0,6,,,,,,,,4,,,,72,41
11160,note_on,5,0,8,,,,,,,,6,,,,51,58
11160,note_on,5,0,5,,,,,,,,3,,,,77,41
11160,note_off,120,0,1,,,,,,,,0,,,,63,64
11160,note_on,0,0,1,,,,,,,,0,,,,62,56
11275,note_off,115,0,5,,,,,,,,3,,,,77,64
11275,note_off,595,0,3,,,,,,,,1,,,,81,64
11275,note_off,115,0,6,,,,,,,,4,,,,72,64
11275,note_off,595,0,4,,,,,,,,2,,,,81,64
11280,note_on,5,0,5,,,,,,,,3,,,,81,42
11280,note_on,5,0,4,,,,,,,,2,,,,77,55
11280,set_tempo,600,1,0,2000000,,,,,,,,,,,,
11280,note_on,5,0,3,,,,,,,,1,,,,77,70
11280,note_on,5,0,6,,,,,,,,4,,,,77,42
11395,note_off,235,0,8,,,,,,,,6,,,,51,64
11395,note_off,115,0,6,,,,,,,,4,,,,77,64
11395,note_off,115,0,5,,,,,,,,3,,,,81,64
11400,note_off,720,0,7,,,,,,,,5,,,,72,64
11400,note_on,0,0,4,,,,,,,,2,,,,75,56
11400,note_off,120,0,4,,,,,,,,2,,,,77,64
11400,note_on,0,0,7,,,,,,,,5,,,,69,58
11400,note_off,720,0,10,,,,,,,,11,,,,72,64
11400,note_off,120,0,3,,,,,,,,1,,,,77,64
11400,note_on,0,0,10,,,,,,,,11,,,,69,58
11400,note_on,5,0,5,,,,,,,,3,,,,84,43
11400,note_on,320,0,9,,,,,,,,7,,,,39,45
11400,note_on,5,0,6,,,,,,,,4,,,,81,43
11400,note_on,5,0,8,,,,,,,,6,,,,51,59
11400,note_on,320,0,11,,,,,,,,14,,,,39,32
11400,note_on,0,0,3,,,,,,,,1,,,,75,71
11400,note_on,0,0,1,,,,,,,,0,,,,60,58
11400,note_off,240,0,1,,,,,,,,0,,,,62,64
11515,note_off,115,0,5,,,,,,,,3,,,,84,64
11515,note_off,115,0,6,,,,,,,,4,,,,81,64
11520,note_on,5,0,5,,,,,,,,3,,,,81,44
11520,note_off,840,0,2,,,,,,,,0,,,,51,64
11520,note_on,0,0,3,,,,,,,,1,,,,77,73
11520,note_off,120,0,3,,,,,,,,1,,,,75,64
11520,note_on,5,0,6,,,,,,,,4,,,,77,44
11520,note_off,120,0,4,,,,,,,,2,,,,75,64
11520,note_on,0,0,4,,,,,,,,2,,,,77,58
11520,note_off,0,0,2,,,,,,,,0,,,,39,64
11635,note_off,115,0,5,,,,,,,,3,,,,81,64
11635,note_off,235,0,9,,,,,,,,7,,,,39,64
11635,note_off,115,0,3,,,,,,,,1,,,,77,64
11635,note_off,115,0,6,,,,,,,,4,,,,77,64
11635,note_off,235,0,11,,,,,,,,14,,,,39,64
11635,note_off,235,0,8,,,,,,,,6,,,,51,64
11635,note_off,115,0,4,,,,,,,,2,,,,77,64
11640,note_on,0,0,10,,,,,,,,11,,,,65,60
11640,note_off,240,0,7,,,,,,,,5,,,,69,64
11640,note_on,5,0,3,,,,,,,,1,,,,82,75
11640,note_on,0,0,7,,,,,,,,5,,,,65,60
11640,note_off,240,0,1,,,,,,,,0,,,,60,64
11640,note_on,0,0,1,,,,,,,,0,,,,58,60
11640,note_on,5,0,9,,,,,,,,7,,,,34,45
11640,note_on,5,0,11,,,,,,,,14,,,,34,30
11640,note_on,5,0,8,,,,,,,,6,,,,46,60
11640,note_off,240,0,10,,,,,,,,11,,,,69,64
11640,note_on,5,0,5,,,,,,,,3,,,,74,45
11640,note_on,5,0,6,,,,,,,,4,,,,70,45
11640,note_on,0,0,2,,,,,,,,0,,,,46,30
11640,note_on,120,0,2,,,,,,,,0,,,,34,30
11640,set_tempo,360,1,0,1875000,,,,,,,,,,,,
11640,note_on,5,0,4,,,,,,,,2,,,,82,60
11755,note_off,115,0,6,,,,,,,,4,,,,70,64
11755,note_off,115,0,5,,,,,,,,3,,,,74,64
11760,note_on,5,0,5,,,,,,,,3,,,,77,45
11760,note_on,5,0,6,,,,,,,,4,,,,74,45
11875,note_off,235,0,4,,,,,,,,2,,,,82,64
11875,note_off,235,0,8,,,,,,,,6,,,,46,64
11875,note_off,235,0,3,,,,,,,,1,,,,82,64
11875,note_off,115,0,5,,,,,,,,3,,,,77,64
11875,note_off,115,0,6,,,,,,,,4,,,,74,64
11880,note_on,5,0,4,,,,,,,,2,,,,70,60
11880,set_tempo,240,1,0,1764705,,,,,,,,,,,,
11880,note_on,5,0,8,,,,,,,,6,,,,46,60
11880,note_on,5,0,5,,,,,,,,3,,,,82,45
11880,note_on,5,0,6,,,,,,,,4,,,,77,45
11880,note_off,240,0,1,,,,,,,,0,,,,58,64
11880,note_on,0,0,1,,,,,,,,0,,,,65,60
11880,note_on,5,0,3,,,,,,,,1,,,,70,75
11995,note_off,115,0,5,,,,,,,,3,,,,82,64
11995,note_off,115,0,6,,,,,,,,4,,,,77,64
12000,note_on,0,0,1,,,,,,,,0,,,,62,60
12000,note_on,5,0,5,,,,,,,,3,,,,77,45
12000,note_on,5,0,6,,,,,,,,4,,,,74,45
12000,note_off,120,0,1,,,,,,,,0,,,,65,64
12040,note_off,400,0,11,,,,,,,,14,,,,34,64
12040,note_off,400,0,9,,,,,,,,7,,,,34,64
12115,note_off,235,0,8,,,,,,,,6,,,,46,64
12115,note_off,115,0,6,,,,,,,,4,,,,74,64
12115,note_off,115,0,5,,,,,,,,3,,,,77,64
12115,note_off,235,0,4,,,,,,,,2,,,,70,64
12115,note_off,235,0,3,,,,,,,,1,,,,70,64
12120,note_on,5,0,5,,,,,,,,3,,,,74,45
12120,note_off,120,0,1,,,,,,,,0,,,,62,64
12120,note_on,0,0,1,,,,,,,,0,,,,58,60
12120,note_on,5,0,6,,,,,,,,4,,,,70,45
12120,note_on,5,0,8,,,,,,,,6,,,,46,60
12235,note_off,115,0,6,,,,,,,,4,,,,70,64
12235,note_off,115,0,5,,,,,,,,3,,,,74,64
12240,note_on,5,0,6,,,,,,,,4,,,,74,45
12240,note_on,5,0,5,,,,,,,,3,,,,77,45
12355,note_off,235,0,8,,,,,,,,6,,,,46,64
12355,note_off,115,0,6,,,,,,,,4,,,,74,64
12355,note_off,115,0,5,,,,,,,,3,,,,77,64
12360,note_on,320,0,11,,,,,,,,14,,,,34,30
12360,note_on,5,0,5,,,,,,,,3,,,,82,45
12360,note_on,320,0,9,,,,,,,,7,,,,34,45
12360,note_on,245,0,4,,,,,,,,2,,,,82,60
12360,note_on,245,0,3,,,,,,,,1,,,,82,75
12360,note_on,5,0,6,,,,,,,,4,,,,77,45
12360,note_on,5,0,8,,,,,,,,6,,,,46,60
12360,set_tempo,480,1,0,1935483,,,,,,,,,,,,
12475,note_off,115,0,6,,,,,,,,4,,,,77,64
12475,note_off,115,0,5,,,,,,,,3,,,,82,64
12480,note_off,0,0,2,,,,,,,,0,,,,34,64
12480,note_off,840,0,2,,,,,,,,0,,,,46,64
12480,note_on,5,0,6,,,,,,,,4,,,,70,45
12480,note_on,5,0,5,,,,,,,,3,,,,77,45
12520,note_off,400,0,1,,,,,,,,0,,,,58,64
12595,note_off,235,0,4,,,,,,,,2,,,,82,64
12595,note_off,115,0,6,,,,,,,,4,,,,70,64
12595,note_off,235,0,3,,,,,,,,1,,,,82,64
12595,note_off,115,0,5,,,,,,,,3,,,,77,64
12595,note_off,235,0,9,,,,,,,,7,,,,34,64
12595,note_off,235,0,11,,,,,,,,14,,,,34,64
12595,note_off,235,0,8,,,,,,,,6,,,,46,64
12600,note_on,0,0,1,,,,,,,,0,,,,65,45
12600,note_on,80,0,1,,,,,,,,0,,,,60,45
12600,note_on,0,0,1,,,,,,,,0,,,,70,45
12600,set_tempo,240,1,0,1764705,,,,,,,,,,,,
12600,note_off,960,0,10,,,,,,,,11,,,,65,64
12600,note_on,5,0,9,,,,,,,,7,,,,41,45
12600,note_on,5,0,6,,,,,,,,4,,,,70,45
12600,note_off,960,0,7,,,,,,,,5,,,,65,64
12600,note_on,5,0,3,,,,,,,,1,,,,82,75
12600,note_on,0,0,10,,,,,,,,11,,,,65,60
12600,note_on,120,0,2,,,,,,,,0,,,,41,30
12600,note_on,0,0,2,,,,,,,,0,,,,53,30
12600,note_on,5,0,4,,,,,,,,2,,,,82,60
12600,note_on,5,0,11,,,,,,,,14,,,,41,30
12600,note_on,0,0,7,,,,,,,,5,,,,65,60
12600,note_on,5,0,5,,,,,,,,3,,,,72,45
12600,note_on,5,0,8,,,,,,,,6,,,,41,60
12715,note_off,115,0,6,,,,,,,,4,,,,70,64
12715,note_off,115,0,5,,,,,,,,3,,,,72,64
12720,note_off,120,0,4,,,,,,,,2,,,,82,64
12720,note_on,0,0,4,,,,,,,,2,,,,81,59
12720,note_on,5,0,5,,,,,,,,3,,,,77,45
12720,note_off,120,0,3,,,,,,,,1,,,,82,64
12720,note_on,0,0,3,,,,,,,,1,,,,81,74
12720,note_on,5,0,6,,,,,,,,4,,,,72,45
12835,note_off,235,0,8,,,,,,,,6,,,,41,64
12835,note_off,115,0,5,,,,,,,,3,,,,77,64
12835,note_off,115,0,6,,,,,,,,4,,,,72,64
12840,note_on,0,0,3,,,,,,,,1,,,,79,73
12840,note_on,5,0,6,,,,,,,,4,,,,77,45
12840,note_on,0,0,4,,,,,,,,2,,,,79,58
12840,note_on,5,0,5,,,,,,,,3,,,,82,45
12840,note_on,5,0,8,,,,,,,,6,,,,41,59
12840,note_off,120,0,4,,,,,,,,2,,,,81,64
12840,note_off,120,0,3,,,,,,,,1,,,,81,64
12955,note_off,115,0,5,,,,,,,,3,,,,82,64
12955,note_off,115,0,6,,,,,,,,4,,,,77,64
12960,note_on,0,0,3,,,,,,,,1,,,,77,71
12960,note_on,5,0,6,,,,,,,,4,,,,72,45
12960,note_on,5,0,5,,,,,,,,3,,,,77,45
12960,note_off,120,0,3,,,,,,,,1,,,,79,64
12960,note_on,0,0,4,,,,,,,,2,,,,77,56
12960,note_off,120,0,4,,,,,,,,2,,,,79,64
13000,note_off,400,0,11,,,,,,,,14,,,,41,64
13000,note_off,400,0,9,,,,,,,,7,,,,41,64
13075,note_off,115,0,6,,,,,,,,4,,,,72,64
13075,note_off,115,0,5,,,,,,,,3,,,,77,64
13075,note_off,235,0,8,,,,,,,,6,,,,41,64
13080,note_on,5,0,5,,,,,,,,3,,,,72,45
13080,note_on,0,0,3,,,,,,,,1,,,,75,69
13080,note_on,5,0,8,,,,,,,,6,,,,41,57
13080,note_on,0,0,4,,,,,,,,2,,,,75,54
13080,note_off,120,0,4,,,,,,,,2,,,,77,64
13080,note_on,5,0,6,,,,,,,,4,,,,68,45
13080,note_off,120,0,3,,,,,,,,1,,,,77,64
13195,note_off,115,0,6,,,,,,,,4,,,,68,64
13195,note_off,115,0,5,,,,,,,,3,,,,72,64
13200,note_on,0,0,4,,,,,,,,2,,,,74,52
13200,set_tempo,600,1,0,1875000,,,,,,,,,,,,
13200,note_on,5,0,5,,,,,,,,3,,,,77,45
13200,note_off,120,0,3,,,,,,,,1,,,,75,64
13200,note_on,0,0,3,,,,,,,,1,,,,74,67
13200,note_on,5,0,6,,,,,,,,4,,,,72,45
13200,note_off,120,0,4,,,,,,,,2,,,,75,64
13315,note_off,235,0,8,,,,,,,,6,,,,41,64
13315,note_off,115,0,5,,,,,,,,3,,,,77,64
13315,note_off,115,0,6,,,,,,,,4,,,,72,64
13320,note_on,5,0,5,,,,,,,,3,,,,82,45
13320,note_on,320,0,11,,,,,,,,14,,,,41,30
13320,note_on,0,0,3,,,,,,,,1,,,,72,65
13320,set_tempo,120,1,0,1935483,,,,,,,,,,,,
13320,note_off,120,0,4,,,,,,,,2,,,,74,64
13320,note_on,0,0,4,,,,,,,,2,,,,72,50
13320,note_on,5,0,8,,,,,,,,6,,,,41,55
13320,note_on,320,0,9,,,,,,,,7,,,,41,45
13320,note_off,120,0,3,,,,,,,,1,,,,74,64
13320,note_on,5,0,6,,,,,,,,4,,,,77,45
13435,note_off,115,0,5,,,,,,,,3,,,,82,64
13435,note_off,115,0,6,,,,,,,,4,,,,77,64
13440,note_off,120,0,3,,,,,,,,1,,,,72,64
13440,note_on,0,0,3,,,,,,,,1,,,,70,63
13440,note_on,5,0,6,,,,,,,,4,,,,72,45
13440,note_on,0,0,4,,,,,,,,2,,,,70,48
13440,note_off,120,0,4,,,,,,,,2,,,,72,64
13440,set_tempo,120,1,0,2000000,,,,,,,,,,,,
13440,note_on,5,0,5,,,,,,,,3,,,,77,45
13555,note_off,115,0,5,,,,,,,,3,,,,77,64
13555,note_off,115,0,4,,,,,,,,2,,,,70,64
13555,note_off,235,0,9,,,,,,,,7,,,,41,64
13555,note_off,115,0,6,,,,,,,,4,,,,72,64
13555,note_off,235,0,8,,,,,,,,6,,,,41,64
13555,note_off,235,0,11,,,,,,,,14,,,,41,64
13555,note_off,115,0,3,,,,,,,,1,,,,70,64
13560,note_on,0,0,7,,,,,,,,5,,,,65,53
13560,note_on,5,0,8,,,,,,,,6,,,,41,53
13560,note_on,5,0,6,,,,,,,,4,,,,69,45
13560,note_off,960,0,7,,,,,,,,5,,,,65,64
13560,note_off,960,0,1,,,,,,,,0,,,,70,64
13560,note_on,5,0,11,,,,,,,,14,,,,41,30
13560,note_on,0,0,1,,,,,,,,0,,,,69,45
13560,note_on,5,0,4,,,,,,,,2,,,,74,46
13560,note_off,960,0,2,,,,,,,,0,,,,53,64
13560,note_off,960,0,10,,,,,,,,11,,,,65,64
13560,note_on,0,0,1,,,,,,,,0,,,,65,45
13560,note_on,0,0,1,,,,,,,,0,,,,60,45
13560,note_off,0,0,1,,,,,,,,0,,,,60,64
13560,note_off,0,0,2,,,,,,,,0,,,,41,64
13560,note_on,0,0,2,,,,,,,,0,,,,41,30
13560,note_on,0,0,2,,,,,,,,0,,,,53,30
13560,note_off,0,0,1,,,,,,,,0,,,,65,64
13560,note_on,0,0,10,,,,,,,,11,,,,65,53
13560,note_on,5,0,5,,,,,,,,3,,,,72,45
13560,note_on,5,0,9,,,,,,,,7,,,,41,45
13560,note_on,5,0,3,,,,,,,,1,,,,74,61
13560,set_tempo,120,1,0,1875000,,,,,,,,,,,,
13560,note_on,0,0,1,,,,,,,,0,,,,74,45
13675,note_off,115,0,5,,,,,,,,3,,,,72,64
13675,note_off,115,0,6,,,,,,,,4,,,,69,64
13680,note_on,5,0,6,,,,,,,,4,,,,72,45
13680,note_on,5,0,5,,,,,,,,3,,,,77,45
13795,note_off,235,0,1,,,,,,,,0,,,,74,64
13795,note_off,0,0,1,,,,,,,,0,,,,65,64
13795,note_off,235,0,8,,,,,,,,6,,,,41,64
13795,note_off,115,0,6,,,,,,,,4,,,,72,64
13795,note_off,235,0,4,,,,,,,,2,,,,74,64
13795,note_off,115,0,5,,,,,,,,3,,,,77,64
13795,note_off,235,0,3,,,,,,,,1,,,,74,64
13795,note_off,0,0,1,,,,,,,,0,,,,69,64
13795,note_off,0,0,1,,,,,,,,0,,,,60,64
13800,note_on,5,0,4,,,,,,,,2,,,,72,42
13800,note_on,5,0,8,,,,,,,,6,,,,41,51
13800,note_on,5,0,3,,,,,,,,1,,,,72,57
13800,set_tempo,240,1,0,1666666,,,,,,,,,,,,
13800,note_on,5,0,1,,,,,,,,0,,,,65,42
13800,note_on,0,0,1,,,,,,,,0,,,,69,42
13800,note_on,0,0,1,,,,,,,,0,,,,72,42
13800,note_on,5,0,6,,,,,,,,4,,,,77,45
13800,note_on,5,0,5,,,,,,,,3,,,,81,45
13830,note_off,30,0,3,,,,,,,,1,,,,72,64
13830,note_on,0,0,3,,,,,,,,1,,,,74,57
13830,note_off,30,0,4,,,,,,,,2,,,,72,64
13830,note_on,0,0,4,,,,,,,,2,,,,74,42
13860,note_on,0,0,3,,,,,,,,1,,,,72,57
13860,note_off,30,0,3,,,,,,,,1,,,,74,64
13860,note_on,0,0,4,,,,,,,,2,,,,72,42
13860,note_off,30,0,4,,,,,,,,2,,,,74,64
13890,note_on,0,0,4,,,,,,,,2,,,,74,42
13890,note_off,30,0,4,,,,,,,,2,,,,72,64
13890,note_on,0,0,3,,,,,,,,1,,,,74,57
13890,note_off,30,0,3,,,,,,,,1,,,,72,64
13915,note_off,115,0,6,,,,,,,,4,,,,77,64
13915,note_off,115,0,5,,,,,,,,3,,,,81,64
13920,note_off,30,0,4,,,,,,,,2,,,,74,64
13920,note_on,0,0,3,,,,,,,,1,,,,72,57
13920,note_off,30,0,3,,,,,,,,1,,,,74,64
13920,note_on,5,0,5,,,,,,,,3,,,,77,45
13920,note_on,5,0,6,,,,,,,,4,,,,72,45
13920,note_on,0,0,4,,,,,,,,2,,,,72,42
13950,note_on,0,0,4,,,,,,,,2,,,,74,42
13950,note_off,30,0,4,,,,,,,,2,,,,72,64
13950,note_on,0,0,3,,,,,,,,1,,,,74,57
13950,note_off,30,0,3,,,,,,,,1,,,,72,64
13960,note_off,400,0,9,,,,,,,,7,,,,41,64
13960,note_off,400,0,11,,,,,,,,14,,,,41,64
13980,note_on,0,0,4,,,,,,,,2,,,,72,42
13980,note_off,30,0,4,,,,,,,,2,,,,74,64
13980,note_on,0,0,3,,,,,,,,1,,,,72,57
13980,note_off,30,0,3,,,,,,,,1,,,,74,64
14010,note_on,0,0,3,,,,,,,,1,,,,74,57
14010,note_off,30,0,3,,,,,,,,1,,,,72,64
14010,note_off,30,0,4,,,,,,,,2,,,,72,64
14010,note_on,0,0,4,,,,,,,,2,,,,74,42
14035,note_off,235,0,8,,,,,,,,6,,,,41,64
14035,note_off,115,0,5,,,,,,,,3,,,,77,64
14035,note_off,115,0,6,,,,,,,,4,,,,72,64
14040,note_on,5,0,5,,,,,,,,3,,,,72,45
14040,note_on,5,0,8,,,,,,,,6,,,,41,49
14040,note_on,0,0,3,,,,,,,,1,,,,72,57
14040,note_off,30,0,3,,,,,,,,1,,,,74,64
14040,note_on,5,0,6,,,,,,,,4,,,,69,45
14040,note_off,30,0,4,,,,,,,,2,,,,74,64
14040,note_on,0,0,4,,,,,,,,2,,,,72,42
14070,note_off,30,0,3,,,,,,,,1,,,,72,64
14070,note_off,30,0,4,,,,,,,,2,,,,72,64
14070,note_on,0,0,4,,,,,,,,2,,,,74,42
14070,note_on,0,0,3,,,,,,,,1,,,,74,57
14100,note_off,30,0,4,,,,,,,,2,,,,74,64
14100,note_on,0,0,3,,,,,,,,1,,,,72,57
14100,note_on,0,0,4,,,,,,,,2,,,,72,42
14100,note_off,30,0,3,,,,,,,,1,,,,74,64
14130,note_off,30,0,3,,,,,,,,1,,,,72,64
14130,note_on,0,0,3,,,,,,,,1,,,,74,57
14130,note_on,0,0,4,,,,,,,,2,,,,74,42
14130,note_off,30,0,4,,,,,,,,2,,,,72,64
14155,note_off,115,0,6,,,,,,,,4,,,,69,64
14155,note_off,115,0,5,,,,,,,,3,,,,72,64
14160,note_on,0,0,4,,,,,,,,2,,,,72,42
14160,note_off,30,0,3,,,,,,,,1,,,,74,64
14160,note_on,0,0,3,,,,,,,,1,,,,72,57
14160,note_off,30,0,4,,,,,,,,2,,,,74,64
14160,note_on,5,0,6,,,,,,,,4,,,,72,45
14160,note_on,5,0,5,,,,,,,,3,,,,77,45
14190,note_off,30,0,3,,,,,,,,1,,,,72,64
14190,note_on,0,0,3,,,,,,,,1,,,,74,56
14190,note_on,0,0,4,,,,,,,,2,,,,74,41
14190,note_off,30,0,4,,,,,,,,2,,,,72,64
14220,note_on,0,0,3,,,,,,,,1,,,,72,55
14220,note_off,30,0,4,,,,,,,,2,,,,74,64
14220,note_on,0,0,4,,,,,,,,2,,,,72,40
14220,note_off,30,0,3,,,,,,,,1,,,,74,64
14250,note_on,0,0,4,,,,,,,,2,,,,74,39
14250,note_off,30,0,4,,,,,,,,2,,,,72,64
14250,note_off,30,0,3,,,,,,,,1,,,,72,64
14250,note_on,0,0,3,,,,,,,,1,,,,74,54
14275,note_off,115,0,5,,,,,,,,3,,,,77,64
14275,note_off,235,0,8,,,,,,,,6,,,,41,64
14275,note_off,115,0,6,,,,,,,,4,,,,72,64
14280,note_off,30,0,3,,,,,,,,1,,,,74,64
14280,note_on,320,0,11,,,,,,,,14,,,,41,30
14280,note_on,0,0,4,,,,,,,,2,,,,70,38
14280,note_on,5,0,5,,,,,,,,3,,,,81,45
14280,set_tempo,480,1,0,1764705,,,,,,,,,,,,
14280,note_on,5,0,8,,,,,,,,6,,,,41,47
14280,note_off,30,0,4,,,,,,,,2,,,,74,64
14280,note_on,320,0,9,,,,,,,,7,,,,41,45
14280,note_on,0,0,3,,,,,,,,1,,,,70,53
14280,note_on,5,0,6,,,,,,,,4,,,,77,45
14395,note_off,115,0,5,,,,,,,,3,,,,81,64
14395,note_off,115,0,6,,,,,,,,4,,,,77,64
14400,note_on,5,0,5,,,,,,,,3,,,,77,45
14400,note_on,5,0,6,,,,,,,,4,,,,72,45
14515,note_off,235,0,8,,,,,,,,6,,,,41,64
14515,note_off,235,0,3,,,,,,,,1,,,,70,64
14515,note_off,115,0,5,,,,,,,,3,,,,77,64
14515,note_off,235,0,4,,,,,,,,2,,,,70,64
14515,note_off,235,0,9,,,,,,,,7,,,,41,64
14515,note_off,115,0,6,,,,,,,,4,,,,72,64
14515,note_off,235,0,11,,,,,,,,14,,,,41,64
14520,note_off,960,0,7,,,,,,,,5,,,,65,64
14520,note_on,0,0,2,,,,,,,,0,,,,34,30
14520,note_off,0,0,2,,,,,,,,0,,,,41,64
14520,note_off,960,0,2,,,,,,,,0,,,,53,64
14520,note_on,5,0,11,,,,,,,,14,,,,34,30
14520,set_tempo,240,1,0,1875000,,,,,,,,,,,,
14520,note_on,5,0,4,,,,,,,,2,,,,70,30
14520,note_on,5,0,9,,,,,,,,7,,,,34,45
14520,note_on,5,0,8,,,,,,,,6,,,,46,45
14520,note_on,0,0,2,,,,,,,,0,,,,46,30
14520,note_on,5,0,3,,,,,,,,1,,,,70,45
14520,note_on,0,0,7,,,,,,,,5,,,,65,45
14520,note_on,0,0,10,,,,,,,,11,,,,65,45
14520,note_off,960,0,10,,,,,,,,11,,,,65,64
14520,note_on,5,0,5,,,,,,,,3,,,,70,45
14520,note_on,5,0,6,,,,,,,,4,,,,65,45
14520,note_on,0,0,2,,,,,,,,0,,,,41,30
14520,note_off,0,0,1,,,,,,,,0,,,,65,64
14520,note_on,0,0,1,,,,,,,,0,,,,65,30
14520,note_on,0,0,1,,,,,,,,0,,,,62,30
14520,note_on,0,0,1,,,,,,,,0,,,,58,30
14520,note_off,0,0,1,,,,,,,,0,,,,69,64
14520,note_off,720,0,1,,,,,,,,0,,,,72,64
14635,note_off,115,0,6,,,,,,,,4,,,,65,64
14635,note_off,115,0,5,,,,,,,,3,,,,70,64
14640,note_on,5,0,6,,,,,,,,4,,,,70,45
14640,note_on,5,0,5,,,,,,,,3,,,,74,45
14755,note_off,235,0,8,,,,,,,,6,,,,46,64
14755,note_off,115,0,5,,,,,,,,3,,,,74,64
14755,note_off,115,0,6,,,,,,,,4,,,,70,64
14760,note_on,5,0,5,,,,,,,,3,,,,77,45
14760,note_on,5,0,6,,,,,,,,4,,,,74,45
14760,note_on,5,0,8,,,,,,,,6,,,,46,45
14875,note_off,115,0,6,,,,,,,,4,,,,74,64
14875,note_off,115,0,5,,,,,,,,3,,,,77,64
14880,note_on,5,0,6,,,,,,,,4,,,,70,45
14880,note_on,5,0,5,,,,,,,,3,,,,74,45
14920,note_off,400,0,11,,,,,,,,14,,,,34,64
14920,note_off,400,0,3,,,,,,,,1,,,,70,64
14920,note_off,400,0,4,,,,,,,,2,,,,70,64
14920,note_off,400,0,9,,,,,,,,7,,,,34,64
14995,note_off,235,0,8,,,,,,,,6,,,,46,64
14995,note_off,115,0,6,,,,,,,,4,,,,70,64
14995,note_off,115,0,5,,,,,,,,3,,,,74,64
15000,note_on,5,0,5,,,,,,,,3,,,,70,45
15000,note_on,5,0,6,,,,,,,,4,,,,65,45
15000,note_on,5,0,8,,,,,,,,6,,,,46,45
15115,note_off,115,0,6,,,,,,,,4,,,,65,64
15115,note_off,115,0,5,,,,,,,,3,,,,70,64
15120,note_on,5,0,6,,,,,,,,4,,,,70,45
15120,note_on,5,0,5,,,,,,,,3,,,,74,45
15235,note_off,115,0,6,,,,,,,,4,,,,70,64
15235,note_off,115,0,5,,,,,,,,3,,,,74,64
15235,note_off,235,0,8,,,,,,,,6,,,,46,64
15240,note_on,5,0,5,,,,,,,,3,,,,77,45
15240,note_on,5,0,8,,,,,,,,6,,,,46,45
15240,note_on,5,0,6,,,,,,,,4,,,,74,45
15240,note_on,320,0,9,,,,,,,,7,,,,34,44
15240,note_on,320,0,11,,,,,,,,14,,,,34,29
15355,note_off,115,0,5,,,,,,,,3,,,,77,64
15355,note_off,115,0,6,,,,,,,,4,,,,74,64
15360,note_off,840,0,1,,,,,,,,0,,,,65,64
15360,note_off,0,0,1,,,,,,,,0,,,,62,64
15360,note_off,0,0,1,,,,,,,,0,,,,58,64
15360,note_off,0,0,2,,,,,,,,0,,,,34,64
15360,note_off,0,0,2,,,,,,,,0,,,,41,64
15360,note_off,840,0,2,,,,,,,,0,,,,46,64
15360,note_on,5,0,6,,,,,,,,4,,,,70,45
15360,note_on,5,0,5,,,,,,,,3,,,,74,45
15475,note_off,115,0,6,,,,,,,,4,,,,70,64
15475,note_off,115,0,5,,,,,,,,3,,,,74,64
15475,note_off,235,0,8,,,,,,,,6,,,,46,64
15475,note_off,235,0,9,,,,,,,,7,,,,34,64
15475,note_off,235,0,11,,,,,,,,14,,,,34,64
15480,note_on,5,0,6,,,,,,,,4,,,,65,45
15480,note_off,960,0,10,,,,,,,,11,,,,65,64
15480,note_off,960,0,7,,,,,,,,5,,,,65,64
15480,set_tempo,960,1,0,1666666,,,,,,,,,,,,
15480,note_on,0,0,10,,,,,,,,11,,,,65,45
15480,note_on,560,0,3,,,,,,,,1,,,,70,45
15480,note_on,5,0,9,,,,,,,,7,,,,34,43
15480,note_on,0,0,1,,,,,,,,0,,,,62,30
15480,note_on,120,0,1,,,,,,,,0,,,,58,30
15480,note_on,0,0,7,,,,,,,,5,,,,65,45
15480,note_on,560,0,4,,,,,,,,2,,,,70,30
15480,note_on,0,0,2,,,,,,,,0,,,,41,30
15480,note_on,0,0,1,,,,,,,,0,,,,65,30
15480,note_on,5,0,5,,,,,,,,3,,,,70,45
15480,note_on,120,0,2,,,,,,,,0,,,,34,30
15480,note_on,5,0,11,,,,,,,,14,,,,34,28
15480,note_on,0,0,2,,,,,,,,0,,,,46,30
15480,note_on,5,0,8,,,,,,,,6,,,,46,45
15595,note_off,115,0,6,,,,,,,,4,,,,65,64
15595,note_off,115,0,5,,,,,,,,3,,,,70,64
15600,note_on,5,0,5,,,,,,,,3,,,,74,45
15600,note_on,5,0,6,,,,,,,,4,,,,70,45
15715,note_off,115,0,6,,,,,,,,4,,,,70,64
15715,note_off,115,0,5,,,,,,,,3,,,,74,64
15715,note_off,235,0,8,,,,,,,,6,,,,46,64
15715,note_off,235,0,3,,,,,,,,1,,,,70,64
15715,note_off,235,0,4,,,,,,,,2,,,,70,64
15720,note_on,5,0,3,,,,,,,,1,,,,77,45
15720,set_tempo,240,1,0,1875000,,,,,,,,,,,,
15720,note_on,5,0,8,,,,,,,,6,,,,46,45
15720,note_on,5,0,5,,,,,,,,3,,,,77,45
15720,note_on,5,0,6,,,,,,,,4,,,,74,45
15720,note_on,5,0,4,,,,,,,,2,,,,77,30
15835,note_off,115,0,3,,,,,,,,1,,,,77,64
15835,note_off,115,0,4,,,,,,,,2,,,,77,64
15835,note_off,115,0,5,,,,,,,,3,,,,77,64
15835,note_off,115,0,6,,,,,,,,4,,,,74,64
15840,note_on,5,0,6,,,,,,,,4,,,,70,45
15840,note_on,5,0,5,,,,,,,,3,,,,74,45
15840,note_on,5,0,3,,,,,,,,1,,,,75,45
15840,note_on,5,0,4,,,,,,,,2,,,,75,30
15880,note_off,400,0,9,,,,,,,,7,,,,34,64
15880,note_off,400,0,11,,,,,,,,14,,,,34,64
15955,note_off,235,0,8,,,,,,,,6,,,,46,64
15955,note_off,115,0,5,,,,,,,,3,,,,74,64
15955,note_off,115,0,6,,,,,,,,4,,,,70,64
15955,note_off,115,0,3,,,,,,,,1,,,,75,64
15955,note_off,115,0,4,,,,,,,,2,,,,75,64
15960,note_on,5,0,5,,,,,,,,3,,,,70,45
15960,note_on,5,0,4,,,,,,,,2,,,,74,30
15960,set_tempo,240,1,0,1666666,,,,,,,,,,,,
15960,note_on,5,0,8,,,,,,,,6,,,,46,45
15960,note_on,5,0,6,,,,,,,,4,,,,65,45
15960,note_on,5,0,3,,,,,,,,1,,,,74,45
16075,note_off,115,0,6,,,,,,,,4,,,,65,64
16075,note_off,115,0,5,,,,,,,,3,,,,70,64
16080,note_on,5,0,5,,,,,,,,3,,,,74,45
16080,note_on,5,0,6,,,,,,,,4,,,,70,45
16195,note_off,235,0,4,,,,,,,,2,,,,74,64
16195,note_off,115,0,5,,,,,,,,3,,,,74,64
16195,note_off,115,0,6,,,,,,,,4,,,,70,64
16195,note_off,235,0,3,,,,,,,,1,,,,74,64
16195,note_off,235,0,8,,,,,,,,6,,,,46,64
16200,note_on,5,0,8,,,,,,,,6,,,,46,45
16200,note_on,320,0,11,,,,,,,,14,,,,34,24
16200,note_on,5,0,3,,,,,,,,1,,,,72,45
16200,set_tempo,240,1,0,1875000,,,,,,,,,,,,
16200,note_on,5,0,4,,,,,,,,2,,,,72,30
16200,note_on,5,0,5,,,,,,,,3,,,,77,45
16200,note_on,5,0,6,,,,,,,,4,,,,74,45
16200,note_on,320,0,9,,,,,,,,7,,,,34,40
16315,note_off,115,0,4,,,,,,,,2,,,,72,64
16315,note_off,115,0,3,,,,,,,,1,,,,72,64
16315,note_off,115,0,5,,,,,,,,3,,,,77,64
16315,note_off,115,0,6,,,,,,,,4,,,,74,64
16320,note_on,5,0,4,,,,,,,,2,,,,70,30
16320,note_on,5,0,3,,,,,,,,1,,,,70,45
16320,note_on,5,0,6,,,,,,,,4,,,,70,45
16320,note_on,5,0,5,,,,,,,,3,,,,74,45
16435,note_off,115,0,4,,,,,,,,2,,,,70,64
16435,note_off,115,0,3,,,,,,,,1,,,,70,64
16435,note_off,115,0,6,,,,,,,,4,,,,70,64
16435,note_off,235,0,8,,,,,,,,6,,,,46,64
16435,note_off,235,0,9,,,,,,,,7,,,,34,64
16435,note_off,115,0,5,,,,,,,,3,,,,74,64
16435,note_off,235,0,11,,,,,,,,14,,,,34,64
16440,note_on,0,0,2,,,,,,,,0,,,,53,30
16440,note_on,5,0,9,,,,,,,,7,,,,41,39
16440,note_on,0,0,10,,,,,,,,11,,,,65,40
16440,note_off,960,0,10,,,,,,,,11,,,,65,64
16440,note_on,0,0,2,,,,,,,,0,,,,48,30
16440,note_off,0,0,1,,,,,,,,0,,,,58,64
16440,note_off,0,0,2,,,,,,,,0,,,,34,64
16440,note_off,0,0,2,,,,,,,,0,,,,41,64
16440,note_off,960,0,2,,,,,,,,0,,,,46,64
16440,note_on,5,0,4,,,,,,,,2,,,,72,30
16440,note_off,0,0,1,,,,,,,,0,,,,62,64
16440,set_tempo,240,1,0,1666666,,,,,,,,,,,,
16440,note_off,960,0,1,,,,,,,,0,,,,65,64
16440,note_on,5,0,5,,,,,,,,3,,,,69,45
16440,note_on,0,0,1,,,,,,,,0,,,,69,30
16440,note_on,0,0,1,,,,,,,,0,,,,65,30
16440,note_on,0,0,1,,,,,,,,0,,,,60,30
16440,note_on,0,0,2,,,,,,,,0,,,,41,30
16440,note_on,5,0,11,,,,,,,,14,,,,41,23
16440,note_on,5,0,6,,,,,,,,4,,,,65,45
16440,note_on,5,0,8,,,,,,,,6,,,,41,45
16440,note_on,5,0,3,,,,,,,,1,,,,72,45
16440,note_on,0,0,7,,,,,,,,5,,,,65,40
16440,note_off,960,0,7,,,,,,,,5,,,,65,64
16555,note_off,115,0,6,,,,,,,,4,,,,65,64
16555,note_off,115,0,5,,,,,,,,3,,,,69,64
16560,note_on,5,0,5,,,,,,,,3,,,,72,45
16560,note_on,5,0,6,,,,,,,,4,,,,69,45
16675,note_off,115,0,6,,,,,,,,4,,,,69,64
16675,note_off,235,0,8,,,,,,,,6,,,,41,64
16675,note_off,115,0,5,,,,,,,,3,,,,72,64
16675,note_off,235,0,4,,,,,,,,2,,,,72,64
16675,note_off,235,0,3,,,,,,,,1,,,,72,64
16680,note_on,5,0,6,,,,,,,,4,,,,72,45
16680,note_on,5,0,5,,,,,,,,3,,,,77,45
16680,note_on,5,0,4,,,,,,,,2,,,,65,30
16680,note_on,5,0,3,,,,,,,,1,,,,65,45
16680,note_on,5,0,8,,,,,,,,6,,,,41,45
16680,set_tempo,240,1,0,1875000,,,,,,,,,,,,
16795,note_off,115,0,5,,,,,,,,3,,,,77,64
16795,note_off,115,0,6,,,,,,,,4,,,,72,64
16800,note_on,5,0,6,,,,,,,,4,,,,69,45
16800,note_on,5,0,5,,,,,,,,3,,,,72,45
16840,note_off,400,0,11,,,,,,,,14,,,,41,64
16840,note_off,400,0,9,,,,,,,,7,,,,41,64
16915,note_off,235,0,4,,,,,,,,2,,,,65,64
16915,note_off,115,0,6,,,,,,,,4,,,,69,64
16915,note_off,115,0,5,,,,,,,,3,,,,72,64
16915,note_off,235,0,8,,,,,,,,6,,,,41,64
16915,note_off,235,0,3,,,,,,,,1,,,,65,64
16920,note_on,5,0,6,,,,,,,,4,,,,65,45
16920,note_on,5,0,5,,,,,,,,3,,,,69,45
16920,note_on,5,0,8,,,,,,,,6,,,,41,45
16920,set_tempo,240,1,0,1666666,,,,,,,,,,,,
17035,note_off,115,0,5,,,,,,,,3,,,,69,64
17035,note_off,115,0,6,,,,,,,,4,,,,65,64
17040,note_on,5,0,6,,,,,,,,4,,,,69,45
17040,note_on,5,0,5,,,,,,,,3,,,,72,45
17155,note_off,115,0,5,,,,,,,,3,,,,72,64
17155,note_off,115,0,6,,,,,,,,4,,,,69,64
17155,note_off,235,0,8,,,,,,,,6,,,,41,64
17160,note_on,5,0,6,,,,,,,,4,,,,72,45
17160,note_on,5,0,5,,,,,,,,3,,,,77,45
17160,note_on,5,0,8,,,,,,,,6,,,,41,45
17160,note_on,320,0,11,,,,,,,,14,,,,41,19
17160,note_on,320,0,9,,,,,,,,7,,,,41,36
17160,note_on,245,0,4,,,,,,,,2,,,,65,30
17160,note_on,245,0,3,,,,,,,,1,,,,65,45
17275,note_off,115,0,6,,,,,,,,4,,,,72,64
17275,note_off,115,0,5,,,,,,,,3,,,,77,64
17280,note_off,0,0,2,,,,,,,,0,,,,48,64
17280,note_off,840,0,2,,,,,,,,0,,,,53,64
17280,note_on,5,0,6,,,,,,,,4,,,,69,45
17280,note_off,840,0,1,,,,,,,,0,,,,69,64
17280,note_off,0,0,1,,,,,,,,0,,,,60,64
17280,note_off,0,0,1,,,,,,,,0,,,,65,64
17280,note_off,0,0,2,,,,,,,,0,,,,41,64
17280,note_on,5,0,5,,,,,,,,3,,,,72,45
17395,note_off,235,0,3,,,,,,,,1,,,,65,64
17395,note_off,115,0,6,,,,,,,,4,,,,69,64
17395,note_off,115,0,5,,,,,,,,3,,,,72,64
17395,note_off,235,0,11,,,,,,,,14,,,,41,64
17395,note_off,235,0,4,,,,,,,,2,,,,65,64
17395,note_off,235,0,9,,,,,,,,7,,,,41,64
17395,note_off,235,0,8,,,,,,,,6,,,,41,64
17400,note_on,5,0,11,,,,,,,,14,,,,41,18
17400,note_on,120,0,1,,,,,,,,0,,,,60,30
17400,note_on,0,0,1,,,,,,,,0,,,,63,30
17400,note_on,0,0,1,,,,,,,,0,,,,69,30
17400,note_on,5,0,6,,,,,,,,4,,,,65,45
17400,note_on,5,0,4,,,,,,,,2,,,,75,30
17400,note_on,120,0,2,,,,,,,,0,,,,41,30
17400,note_on,0,0,2,,,,,,,,0,,,,53,30
17400,note_on,0,0,2,,,,,,,,0,,,,48,30
17400,note_on,5,0,3,,,,,,,,1,,,,75,45
17400,note_on,5,0,9,,,,,,,,7,,,,41,35
17400,note_on,0,0,10,,,,,,,,11,,,,65,35
17400,note_on,5,0,5,,,,,,,,3,,,,69,45
17400,note_off,960,0,10,,,,,,,,11,,,,65,64
17400,note_off,960,0,7,,,,,,,,5,,,,65,64
17400,note_on,0,0,7,,,,,,,,5,,,,65,35
17400,note_on,5,0,8,,,,,,,,6,,,,41,45
17400,set_tempo,480,1,0,1764705,,,,,,,,,,,,
17515,note_off,115,0,5,,,,,,,,3,,,,69,64
17515,note_off,115,0,6,,,,,,,,4,,,,65,64
17520,note_on,5,0,5,,,,,,,,3,,,,72,44
17520,note_off,120,0,3,,,,,,,,1,,,,75,64
17520,note_on,0,0,3,,,,,,,,1,,,,74,45
17520,note_on,5,0,6,,,,,,,,4,,,,69,44
17520,note_on,0,0,4,,,,,,,,2,,,,74,30
17520,note_off,120,0,4,,,,,,,,2,,,,75,64
17635,note_off,235,0,8,,,,,,,,6,,,,41,64
17635,note_off,115,0,5,,,,,,,,3,,,,72,64
17635,note_off,115,0,6,,,,,,,,4,,,,69,64
17640,note_on,5,0,8,,,,,,,,6,,,,41,43
17640,note_off,120,0,3,,,,,,,,1,,,,74,64
17640,note_on,0,0,3,,,,,,,,1,,,,72,45
17640,set_tempo,240,1,0,1666666,,,,,,,,,,,,
17640,note_on,0,0,4,,,,,,,,2,,,,72,30
17640,note_on,5,0,5,,,,,,,,3,,,,75,43
17640,note_off,120,0,4,,,,,,,,2,,,,74,64
17640,note_on,5,0,6,,,,,,,,4,,,,72,43
17755,note_off,115,0,6,,,,,,,,4,,,,72,64
17755,note_off,115,0,5,,,,,,,,3,,,,75,64
17760,note_on,5,0,6,,,,,,,,4,,,,69,42
17760,note_off,120,0,4,,,,,,,,2,,,,72,64
17760,note_on,0,0,4,,,,,,,,2,,,,70,30
17760,note_on,0,0,3,,,,,,,,1,,,,70,45
17760,note_on,5,0,5,,,,,,,,3,,,,72,42
17760,note_off,120,0,3,,,,,,,,1,,,,72,64
17800,note_off,400,0,9,,,,,,,,7,,,,41,64
17800,note_off,400,0,11,,,,,,,,14,,,,41,64
17875,note_off,235,0,8,,,,,,,,6,,,,41,64
17875,note_off,115,0,5,,,,,,,,3,,,,72,64
17875,note_off,115,0,6,,,,,,,,4,,,,69,64
17880,note_on,5,0,5,,,,,,,,3,,,,69,41
17880,note_on,0,0,4,,,,,,,,2,,,,69,30
17880,note_off,120,0,4,,,,,,,,2,,,,70,64
17880,note_on,5,0,6,,,,,,,,4,,,,65,41
17880,note_off,120,0,3,,,,,,,,1,,,,70,64
17880,note_on,0,0,3,,,,,,,,1,,,,69,45
17880,note_on,5,0,8,,,,,,,,6,,,,41,41
17995,note_off,115,0,6,,,,,,,,4,,,,65,64
17995,note_off,115,0,5,,,,,,,,3,,,,69,64
18000,note_on,5,0,6,,,,,,,,4,,,,69,40
18000,note_on,5,0,5,,,,,,,,3,,,,72,40
18115,note_off,115,0,6,,,,,,,,4,,,,69,64
18115,note_off,115,0,5,,,,,,,,3,,,,72,64
18115,note_off,235,0,8,,,,,,,,6,,,,41,64
18115,note_off,235,0,4,,,,,,,,2,,,,69,64
18120,note_off,240,0,3,,,,,,,,1,,,,69,64
18120,note_on,320,0,11,,,,,,,,14,,,,41,12
18120,note_on,5,0,8,,,,,,,,6,,,,41,39
18120,note_on,320,0,9,,,,,,,,7,,,,41,32
18120,note_on,0,0,3,,,,,,,,1,,,,75,45
18120,note_on,5,0,5,,,,,,,,3,,,,75,39
18120,set_tempo,480,1,0,1875000,,,,,,,,,,,,
18120,note_on,5,0,4,,,,,,,,2,,,,75,30
18120,note_on,5,0,6,,,,,,,,4,,,,72,39
18235,note_off,115,0,5,,,,,,,,3,,,,75,64
18235,note_off,115,0,6,,,,,,,,4,,,,72,64
18240,note_on,5,0,5,,,,,,,,3,,,,72,38
18240,note_on,5,0,6,,,,,,,,4,,,,69,38
18355,note_off,235,0,4,,,,,,,,2,,,,75,64
18355,note_off,115,0,6,,,,,,,,4,,,,69,64
18355,note_off,115,0,5,,,,,,,,3,,,,72,64
18355,note_off,235,0,11,,,,,,,,14,,,,41,64
18355,note_off,235,0,8,,,,,,,,6,,,,41,64
18355,note_off,235,0,3,,,,,,,,1,,,,75,64
18355,note_off,235,0,9,,,,,,,,7,,,,41,64
18360,note_on,5,0,11,,,,,,,,14,,,,34,10
18360,note_on,5,0,9,,,,,,,,7,,,,34,30
18360,note_on,5,0,3,,,,,,,,1,,,,75,45
18360,note_on,0,0,2,,,,,,,,0,,,,46,30
18360,note_on,0,0,2,,,,,,,,0,,,,41,30
18360,note_on,0,0,2,,,,,,,,0,,,,34,30
18360,note_off,0,0,2,,,,,,,,0,,,,41,64
18360,note_off,960,0,2,,,,,,,,0,,,,53,64
18360,note_off,0,0,2,,,,,,,,0,,,,48,64
18360,note_off,960,0,10,,,,,,,,11,,,,65,64
18360,note_off,960,0,1,,,,,,,,0,,,,69,64
18360,note_on,5,0,4,,,,,,,,2,,,,75,30
18360,note_on,0,0,1,,,,,,,,0,,,,65,30
18360,note_on,0,0,1,,,,,,,,0,,,,62,30
18360,note_off,0,0,1,,,,,,,,0,,,,60,64
18360,note_off,0,0,1,,,,,,,,0,,,,63,64
18360,note_on,5,0,6,,,,,,,,4,,,,70,37
18360,note_on,0,0,10,,,,,,,,11,,,,65,30
18360,note_on,5,0,5,,,,,,,,3,,,,74,37
18360,note_on,0,0,1,,,,,,,,0,,,,70,30
18360,note_off,960,0,7,,,,,,,,5,,,,65,64
18360,note_on,0,0,7,,,,,,,,5,,,,65,30
18360,set_tempo,240,1,0,1666666,,,,,,,,,,,,
18360,note_on,5,0,8,,,,,,,,6,,,,46,36
18390,note_on,0,0,4,,,,,,,,2,,,,77,30
18390,note_on,0,0,3,,,,,,,,1,,,,77,45
18390,note_off,30,0,4,,,,,,,,2,,,,75,64
18390,note_off,30,0,3,,,,,,,,1,,,,75,64
18420,note_off,30,0,3,,,,,,,,1,,,,77,64
18420,note_on,0,0,3,,,,,,,,1,,,,75,45
18420,note_on,0,0,4,,,,,,,,2,,,,75,30
18420,note_off,30,0,4,,,,,,,,2,,,,77,64
18450,note_on,0,0,3,,,,,,,,1,,,,77,45
18450,note_on,0,0,4,,,,,,,,2,,,,77,30
18450,note_off,30,0,4,,,,,,,,2,,,,75,64
18450,note_off,30,0,3,,,,,,,,1,,,,75,64
18475,note_off,115,0,5,,,,,,,,3,,,,74,64
18475,note_off,115,0,6,,,,,,,,4,,,,70,64
18480,note_on,5,0,5,,,,,,,,3,,,,77,36
18480,note_on,5,0,6,,,,,,,,4,,,,74,36
18480,note_off,30,0,3,,,,,,,,1,,,,77,64
18480,note_off,30,0,4,,,,,,,,2,,,,77,64
18480,note_on,0,0,4,,,,,,,,2,,,,75,30
18480,note_on,0,0,3,,,,,,,,1,,,,75,45
18510,note_off,30,0,3,,,,,,,,1,,,,75,64
18510,note_on,0,0,3,,,,,,,,1,,,,77,45
18510,note_off,30,0,4,,,,,,,,2,,,,75,64
18510,note_on,0,0,4,,,,,,,,2,,,,77,30
18540,note_off,30,0,3,,,,,,,,1,,,,77,64
18540,note_on,0,0,3,,,,,,,,1,,,,75,45
18540,note_off,30,0,4,,,,,,,,2,,,,77,64
18540,note_on,0,0,4,,,,,,,,2,,,,75,30
18570,note_off,30,0,4,,,,,,,,2,,,,75,64
18570,note_on,0,0,4,,,,,,,,2,,,,77,30
18570,note_on,0,0,3,,,,,,,,1,,,,77,45
18570,note_off,30,0,3,,,,,,,,1,,,,75,64
18595,note_off,115,0,5,,,,,,,,3,,,,77,64
18595,note_off,235,0,8,,,,,,,,6,,,,46,64
18595,note_off,115,0,6,,,,,,,,4,,,,74,64
18600,note_on,5,0,5,,,,,,,,3,,,,82,34
18600,note_off,30,0,3,,,,,,,,1,,,,77,64
18600,note_on,5,0,8,,,,,,,,6,,,,46,33
18600,note_on,0,0,3,,,,,,,,1,,,,74,45
18600,note_off,30,0,4,,,,,,,,2,,,,77,64
18600,note_on,0,0,4,,,,,,,,2,,,,74,30
18600,note_on,5,0,6,,,,,,,,4,,,,77,34
18715,note_off,115,0,6,,,,,,,,4,,,,77,64
18715,note_off,115,0,5,,,,,,,,3,,,,82,64
18720,note_on,5,0,6,,,,,,,,4,,,,74,32
18720,note_on,5,0,5,,,,,,,,3,,,,77,32
18760,note_off,400,0,11,,,,,,,,14,,,,34,64
18760,note_off,400,0,9,,,,,,,,7,,,,34,64
18835,note_off,115,0,6,,,,,,,,4,,,,74,64
18835,note_off,235,0,8,,,,,,,,6,,,,46,64
18835,note_off,235,0,3,,,,,,,,1,,,,74,64
18835,note_off,115,0,5,,,,,,,,3,,,,77,64
18835,note_off,235,0,4,,,,,,,,2,,,,74,64
18840,note_on,5,0,5,,,,,,,,3,,,,74,30
18840,note_on,5,0,6,,,,,,,,4,,,,70,30
18840,note_on,5,0,8,,,,,,,,6,,,,46,30
18955,note_off,115,0,5,,,,,,,,3,,,,74,64
18955,note_off,115,0,6,,,,,,,,4,,,,70,64
18960,note_on,5,0,6,,,,,,,,4,,,,74,30
18960,note_on,5,0,5,,,,,,,,3,,,,77,30
19075,note_off,235,0,8,,,,,,,,6,,,,46,64
19075,note_off,115,0,6,,,,,,,,4,,,,74,64
19075,note_off,115,0,5,,,,,,,,3,,,,77,64
19080,note_on,320,0,9,,,,,,,,7,,,,34,31
19080,note_on,5,0,8,,,,,,,,6,,,,46,30
19080,note_on,320,0,11,,,,,,,,14,,,,34,12
19080,note_on,5,0,5,,,,,,,,3,,,,82,30
19080,note_on,5,0,6,,,,,,,,4,,,,77,30
19080,note_on,245,0,4,,,,,,,,2,,,,70,30
19080,note_on,245,0,3,,,,,,,,1,,,,70,30
19080,set_tempo,720,1,0,1875000,,,,,,,,,,,,
19195,note_off,115,0,5,,,,,,,,3,,,,82,64
19195,note_off,115,0,6,,,,,,,,4,,,,77,64
19200,note_on,5,0,6,,,,,,,,4,,,,74,30
19200,note_off,0,0,2,,,,,,,,0,,,,34,64
19200,note_off,840,0,1,,,,,,,,0,,,,70,64
19200,note_off,0,0,1,,,,,,,,0,,,,65,64
19200,note_off,0,0,1,,,,,,,,0,,,,62,64
19200,note_off,840,0,2,,,,,,,,0,,,,46,64
19200,note_off,0,0,2,,,,,,,,0,,,,41,64
19200,note_on,5,0,5,,,,,,,,3,,,,77,30
19315,note_off,235,0,8,,,,,,,,6,,,,46,64
19315,note_off,115,0,6,,,,,,,,4,,,,74,64
19315,note_off,235,0,9,,,,,,,,7,,,,34,64
19315,note_off,115,0,5,,,,,,,,3,,,,77,64
19315,note_off,235,0,11,,,,,,,,14,,,,34,64
19320,note_off,240,0,3,,,,,,,,1,,,,70,64
19320,note_on,5,0,8,,,,,,,,6,,,,46,30
19320,note_on,0,0,1,,,,,,,,0,,,,65,30
19320,note_on,0,0,1,,,,,,,,0,,,,68,30
19320,note_on,0,0,2,,,,,,,,0,,,,46,30
19320,note_on,0,0,2,,,,,,,,0,,,,41,30
19320,note_on,120,0,2,,,,,,,,0,,,,34,30
19320,note_on,5,0,9,,,,,,,,7,,,,34,32
19320,note_on,5,0,5,,,,,,,,3,,,,74,30
19320,note_on,0,0,4,,,,,,,,2,,,,80,30
19320,note_on,0,0,10,,,,,,,,11,,,,65,30
19320,note_off,960,0,10,,,,,,,,11,,,,65,64
19320,note_on,5,0,6,,,,,,,,4,,,,70,30
19320,note_on,0,0,7,,,,,,,,5,,,,65,30
19320,note_off,960,0,7,,,,,,,,5,,,,65,64
19320,note_on,120,0,1,,,,,,,,0,,,,62,30
19320,note_off,240,0,4,,,,,,,,2,,,,70,64
19320,note_on,0,0,3,,,,,,,,1,,,,80,30
19320,note_on,5,0,11,,,,,,,,14,,,,34,14
19435,note_off,115,0,5,,,,,,,,3,,,,74,64
19435,note_off,115,0,6,,,,,,,,4,,,,70,64
19440,note_off,120,0,3,,,,,,,,1,,,,80,64
19440,note_on,0,0,3,,,,,,,,1,,,,79,30
19440,note_on,5,0,5,,,,,,,,3,,,,77,31
19440,note_on,5,0,6,,,,,,,,4,,,,74,31
19440,note_on,0,0,4,,,,,,,,2,,,,79,30
19440,note_off,120,0,4,,,,,,,,2,,,,80,64
19555,note_off,115,0,6,,,,,,,,4,,,,74,64
19555,note_off,235,0,8,,,,,,,,6,,,,46,64
19555,note_off,115,0,5,,,,,,,,3,,,,77,64
19560,set_tempo,480,1,0,1666666,,,,,,,,,,,,
19560,note_off,120,0,3,,,,,,,,1,,,,79,64
19560,note_on,0,0,3,,,,,,,,1,,,,77,33
19560,note_on,5,0,6,,,,,,,,4,,,,77,32
19560,note_on,5,0,5,,,,,,,,3,,,,80,32
19560,note_on,0,0,4,,,,,,,,2,,,,77,31
19560,note_off,120,0,4,,,,,,,,2,,,,79,64
19560,note_on,5,0,8,,,,,,,,6,,,,46,31
19675,note_off,115,0,5,,,,,,,,3,,,,80,64
19675,note_off,115,0,6,,,,,,,,4,,,,77,64
19680,note_on,5,0,6,,,,,,,,4,,,,74,33
19680,note_on,0,0,4,,,,,,,,2,,,,75,32
19680,note_off,120,0,4,,,,,,,,2,,,,77,64
19680,note_on,0,0,3,,,,,,,,1,,,,75,36
19680,note_off,120,0,3,,,,,,,,1,,,,77,64
19680,note_on,5,0,5,,,,,,,,3,,,,77,33
19720,note_off,400,0,11,,,,,,,,14,,,,34,64
19720,note_off,400,0,9,,,,,,,,7,,,,34,64
19795,note_off,115,0,5,,,,,,,,3,,,,77,64
19795,note_off,115,0,6,,,,,,,,4,,,,74,64
19795,note_off,235,0,8,,,,,,,,6,,,,46,64
19800,note_on,5,0,8,,,,,,,,6,,,,46,33
19800,note_on,0,0,7,,,,,,,,5,,,,70,33
19800,note_off,480,0,7,,,,,,,,5,,,,65,64
19800,note_on,5,0,6,,,,,,,,4,,,,70,34
19800,note_off,120,0,3,,,,,,,,1,,,,75,64
19800,note_on,0,0,10,,,,,,,,11,,,,70,33
19800,note_off,480,0,10,,,,,,,,11,,,,65,64
19800,note_on,0,0,4,,,,,,,,2,,,,74,33
19800,note_off,120,0,4,,,,,,,,2,,,,75,64
19800,note_on,5,0,5,,,,,,,,3,,,,74,34
19800,note_on,0,0,3,,,,,,,,1,,,,74,39
19915,note_off,115,0,6,,,,,,,,4,,,,70,64
19915,note_off,115,0,5,,,,,,,,3,,,,74,64
19920,note_on,5,0,5,,,,,,,,3,,,,77,35
19920,note_on,5,0,6,,,,,,,,4,,,,74,35
20035,note_off,115,0,6,,,,,,,,4,,,,74,64
20035,note_off,235,0,8,,,,,,,,6,,,,46,64
20035,note_off,235,0,3,,,,,,,,1,,,,74,64
20035,note_off,235,0,4,,,,,,,,2,,,,74,64
20035,note_off,115,0,5,,,,,,,,3,,,,77,64
20040,note_on,320,0,9,,,,,,,,7,,,,34,36
20040,note_on,5,0,4,,,,,,,,2,,,,80,37
20040,note_on,5,0,8,,,,,,,,6,,,,46,35
20040,note_on,5,0,5,,,,,,,,3,,,,80,36
20040,note_on,5,0,6,,,,,,,,4,,,,77,36
20040,note_on,320,0,11,,,,,,,,14,,,,34,20
20040,note_on,5,0,3,,,,,,,,1,,,,80,46
20155,note_off,115,0,5,,,,,,,,3,,,,80,64
20155,note_off,115,0,6,,,,,,,,4,,,,77,64
20160,note_on,5,0,6,,,,,,,,4,,,,74,37
20160,note_on,5,0,5,,,,,,,,3,,,,77,37
20275,note_off,235,0,4,,,,,,,,2,,,,80,64
20275,note_off,235,0,9,,,,,,,,7,,,,34,64
20275,note_off,115,0,6,,,,,,,,4,,,,74,64
20275,note_off,115,0,5,,,,,,,,3,,,,77,64
20275,note_off,235,0,3,,,,,,,,1,,,,80,64
20275,note_off,235,0,8,,,,,,,,6,,,,46,64
20275,note_off,235,0,11,,,,,,,,14,,,,34,64
20280,note_off,0,0,2,,,,,,,,0,,,,41,64
20280,note_off,0,0,1,,,,,,,,0,,,,65,64
20280,note_off,960,0,1,,,,,,,,0,,,,68,64
20280,note_on,0,0,1,,,,,,,,0,,,,67,30
20280,note_on,0,0,1,,,,,,,,0,,,,70,30
20280,note_on,5,0,5,,,,,,,,3,,,,75,38
20280,note_off,0,0,1,,,,,,,,0,,,,62,64
20280,note_off,480,0,10,,,,,,,,11,,,,70,64
20280,note_on,0,0,10,,,,,,,,11,,,,70,37
20280,note_on,5,0,9,,,,,,,,7,,,,39,37
20280,note_on,0,0,2,,,,,,,,0,,,,51,30
20280,note_on,0,0,2,,,,,,,,0,,,,46,30
20280,note_on,0,0,2,,,,,,,,0,,,,39,30
20280,note_on,0,0,1,,,,,,,,0,,,,63,30
20280,note_off,960,0,2,,,,,,,,0,,,,46,64
20280,note_on,5,0,8,,,,,,,,6,,,,51,37
20280,note_on,5,0,4,,,,,,,,2,,,,80,41
20280,note_off,480,0,7,,,,,,,,5,,,,70,64
20280,note_on,0,0,7,,,,,,,,5,,,,70,37
20280,note_on,5,0,3,,,,,,,,1,,,,80,53
20280,note_on,5,0,6,,,,,,,,4,,,,70,38
20280,note_on,5,0,11,,,,,,,,14,,,,39,22
20280,note_off,0,0,2,,,,,,,,0,,,,34,64
20310,note_off,30,0,4,,,,,,,,2,,,,80,64
20310,note_on,0,0,4,,,,,,,,2,,,,82,41
20310,note_off,30,0,3,,,,,,,,1,,,,80,64
20310,note_on,0,0,3,,,,,,,,1,,,,82,53
20340,note_on,0,0,3,,,,,,,,1,,,,80,54
20340,note_off,30,0,3,,,,,,,,1,,,,82,64
20340,note_on,0,0,4,,,,,,,,2,,,,80,41
20340,note_off,30,0,4,,,,,,,,2,,,,82,64
20370,note_on,0,0,4,,,,,,,,2,,,,82,41
20370,note_off,30,0,4,,,,,,,,2,,,,80,64
20370,note_on,0,0,3,,,,,,,,1,,,,82,55
20370,note_off,30,0,3,,,,,,,,1,,,,80,64
20395,note_off,115,0,5,,,,,,,,3,,,,75,64
20395,note_off,115,0,6,,,,,,,,4,,,,70,64
20400,note_on,0,0,4,,,,,,,,2,,,,80,41
20400,note_off,30,0,4,,,,,,,,2,,,,82,64
20400,note_on,5,0,5,,,,,,,,3,,,,79,39
20400,note_off,30,0,3,,,,,,,,1,,,,82,64
20400,note_on,0,0,3,,,,,,,,1,,,,80,56
20400,note_on,5,0,6,,,,,,,,4,,,,75,39
20430,note_off,30,0,3,,,,,,,,1,,,,80,64
20430,note_on,0,0,3,,,,,,,,1,,,,82,57
20430,note_off,30,0,4,,,,,,,,2,,,,80,64
20430,note_on,0,0,4,,,,,,,,2,,,,82,42
20460,note_on,0,0,3,,,,,,,,1,,,,80,58
20460,note_off,30,0,4,,,,,,,,2,,,,82,64
20460,note_off,30,0,3,,,,,,,,1,,,,82,64
20460,note_on,0,0,4,,,,,,,,2,,,,80,43
20490,note_on,0,0,3,,,,,,,,1,,,,82,59
20490,note_off,30,0,4,,,,,,,,2,,,,80,64
20490,note_on,0,0,4,,,,,,,,2,,,,82,44
20490,note_off,30,0,3,,,,,,,,1,,,,80,64
20515,note_off,235,0,8,,,,,,,,6,,,,51,64
20515,note_off,115,0,5,,,,,,,,3,,,,79,64
20515,note_off,115,0,6,,,,,,,,4,,,,75,64
20520,note_on,0,0,4,,,,,,,,2,,,,79,45
20520,note_off,30,0,4,,,,,,,,2,,,,82,64
20520,note_on,5,0,5,,,,,,,,3,,,,82,41
20520,note_on,5,0,8,,,,,,,,6,,,,51,39
20520,note_off,30,0,3,,,,,,,,1,,,,82,64
20520,note_on,5,0,6,,,,,,,,4,,,,79,41
20520,note_on,0,0,3,,,,,,,,1,,,,79,60
20635,note_off,115,0,5,,,,,,,,3,,,,82,64
20635,note_off,115,0,6,,,,,,,,4,,,,79,64
20640,note_on,5,0,5,,,,,,,,3,,,,79,43
20640,note_on,5,0,6,,,,,,,,4,,,,75,43
20680,note_off,400,0,11,,,,,,,,14,,,,39,64
20680,note_off,400,0,9,,,,,,,,7,,,,39,64
20755,note_off,235,0,3,,,,,,,,1,,,,79,64
20755,note_off,235,0,8,,,,,,,,6,,,,51,64
20755,note_off,235,0,4,,,,,,,,2,,,,79,64
20755,note_off,115,0,5,,,,,,,,3,,,,79,64
20755,note_off,115,0,6,,,,,,,,4,,,,75,64
20760,note_on,5,0,5,,,,,,,,3,,,,75,45
20760,note_on,5,0,8,,,,,,,,6,,,,51,41
20760,note_on,5,0,6,,,,,,,,4,,,,70,45
20875,note_off,115,0,6,,,,,,,,4,,,,70,64
20875,note_off,115,0,5,,,,,,,,3,,,,75,64
20880,note_on,5,0,5,,,,,,,,3,,,,79,45
20880,note_on,5,0,6,,,,,,,,4,,,,75,45
20995,note_off,115,0,5,,,,,,,,3,,,,79,64
20995,note_off,235,0,8,,,,,,,,6,,,,51,64
20995,note_off,115,0,6,,,,,,,,4,,,,75,64
21000,note_on,320,0,11,,,,,,,,14,,,,39,28
21000,note_on,5,0,5,,,,,,,,3,,,,82,45
21000,set_tempo,1440,1,0,1875000,,,,,,,,,,,,
21000,note_on,320,0,9,,,,,,,,7,,,,39,43
21000,note_on,5,0,8,,,,,,,,6,,,,51,43
21000,note_on,5,0,6,,,,,,,,4,,,,79,45
21000,note_on,245,0,3,,,,,,,,1,,,,79,60
21000,note_on,245,0,4,,,,,,,,2,,,,79,45
21115,note_off,115,0,6,,,,,,,,4,,,,79,64
21115,note_off,115,0,5,,,,,,,,3,,,,82,64
21120,note_off,840,0,2,,,,,,,,0,,,,51,64
21120,note_off,0,0,2,,,,,,,,0,,,,46,64
21120,note_off,0,0,2,,,,,,,,0,,,,39,64
21120,note_on,5,0,6,,,,,,,,4,,,,75,45
21120,note_off,0,0,1,,,,,,,,0,,,,63,64
21120,note_on,5,0,5,,,,,,,,3,,,,79,45
21120,note_off,840,0,1,,,,,,,,0,,,,70,64
21120,note_off,0,0,1,,,,,,,,0,,,,67,64
21235,note_off,115,0,6,,,,,,,,4,,,,75,64
21235,note_off,235,0,11,,,,,,,,14,,,,39,64
21235,note_off,115,0,5,,,,,,,,3,,,,79,64
21235,note_off,235,0,4,,,,,,,,2,,,,79,64
21235,note_off,235,0,9,,,,,,,,7,,,,39,64
21235,note_off,235,0,3,,,,,,,,1,,,,79,64
21235,note_off,235,0,8,,,,,,,,6,,,,51,64
21240,note_on,5,0,11,,,,,,,,14,,,,32,30
21240,note_on,5,0,6,,,,,,,,4,,,,72,45
21240,note_off,960,0,7,,,,,,,,5,,,,70,64
21240,note_on,5,0,4,,,,,,,,2,,,,72,45
21240,note_on,120,0,2,,,,,,,,0,,,,32,30
21240,note_on,5,0,8,,,,,,,,6,,,,44,45
21240,note_on,5,0,3,,,,,,,,1,,,,72,60
21240,note_off,960,0,10,,,,,,,,11,,,,70,64
21240,note_on,0,0,10,,,,,,,,11,,,,72,45
21240,note_on,0,0,7,,,,,,,,5,,,,72,45
21240,note_on,0,0,1,,,,,,,,0,,,,68,30
21240,note_on,0,0,2,,,,,,,,0,,,,44,30
21240,note_on,0,0,1,,,,,,,,0,,,,63,30
21240,note_on,5,0,5,,,,,,,,3,,,,75,45
21240,note_on,5,0,9,,,,,,,,7,,,,32,45
21240,note_on,120,0,1,,,,,,,,0,,,,60,30
21355,note_off,115,0,6,,,,,,,,4,,,,72,64
21355,note_off,115,0,5,,,,,,,,3,,,,75,64
21360,note_on,5,0,6,,,,,,,,4,,,,75,45
21360,note_on,5,0,5,,,,,,,,3,,,,80,45
21475,note_off,115,0,5,,,,,,,,3,,,,80,64
21475,note_off,235,0,8,,,,,,,,6,,,,44,64
21475,note_off,235,0,3,,,,,,,,1,,,,72,64
21475,note_off,115,0,6,,,,,,,,4,,,,75,64
21475,note_off,235,0,4,,,,,,,,2,,,,72,64
21480,note_on,5,0,4,,,,,,,,2,,,,74,45
21480,note_on,5,0,3,,,,,,,,1,,,,74,60
21480,note_on,5,0,5,,,,,,,,3,,,,75,45
21480,note_on,5,0,6,,,,,,,,4,,,,72,45
21480,note_on,5,0,8,,,,,,,,6,,,,44,45
21480,set_tempo,480,1,0,1666666,,,,,,,,,,,,
21595,note_off,115,0,5,,,,,,,,3,,,,75,64
21595,note_off,115,0,6,,,,,,,,4,,,,72,64
21595,note_off,115,0,4,,,,,,,,2,,,,74,64
21595,note_off,115,0,3,,,,,,,,1,,,,74,64
21600,note_on,5,0,5,,,,,,,,3,,,,80,45
21600,note_on,5,0,4,,,,,,,,2,,,,75,45
21600,note_on,5,0,6,,,,,,,,4,,,,75,45
21600,note_on,5,0,3,,,,,,,,1,,,,75,60
21640,note_off,400,0,9,,,,,,,,7,,,,32,64
21640,note_off,400,0,11,,,,,,,,14,,,,32,64
21715,note_off,235,0,8,,,,,,,,6,,,,44,64
21715,note_off,115,0,6,,,,,,,,4,,,,75,64
21715,note_off,115,0,5,,,,,,,,3,,,,80,64
21715,note_off,115,0,3,,,,,,,,1,,,,75,64
21715,note_off,115,0,4,,,,,,,,2,,,,75,64
21720,note_on,5,0,8,,,,,,,,6,,,,44,45
21720,note_on,5,0,6,,,,,,,,4,,,,72,45
21720,note_on,0,0,1,,,,,,,,0,,,,65,30
21720,note_off,480,0,1,,,,,,,,0,,,,68,64
21720,note_off,0,0,1,,,,,,,,0,,,,63,64
21720,note_off,0,0,1,,,,,,,,0,,,,60,64
21720,note_on,0,0,1,,,,,,,,0,,,,62,30
21720,note_on,0,0,1,,,,,,,,0,,,,68,30
21720,note_on,5,0,3,,,,,,,,1,,,,77,60
21720,note_on,5,0,4,,,,,,,,2,,,,77,45
21720,note_on,5,0,5,,,,,,,,3,,,,77,45
21835,note_off,115,0,5,,,,,,,,3,,,,77,64
21835,note_off,115,0,6,,,,,,,,4,,,,72,64
21840,note_on,5,0,5,,,,,,,,3,,,,80,45
21840,note_on,5,0,6,,,,,,,,4,,,,77,45
21955,note_off,235,0,4,,,,,,,,2,,,,77,64
21955,note_off,235,0,3,,,,,,,,1,,,,77,64
21955,note_off,115,0,5,,,,,,,,3,,,,80,64
21955,note_off,115,0,6,,,,,,,,4,,,,77,64
21955,note_off,235,0,8,,,,,,,,6,,,,44,64
21960,note_on,320,0,11,,,,,,,,14,,,,32,30
21960,note_on,5,0,3,,,,,,,,1,,,,79,61
21960,note_on,320,0,9,,,,,,,,7,,,,32,45
21960,note_on,5,0,5,,,,,,,,3,,,,77,45
21960,note_on,5,0,8,,,,,,,,6,,,,44,45
21960,note_on,5,0,6,,,,,,,,4,,,,72,45
21960,note_on,5,0,4,,,,,,,,2,,,,79,46
22075,note_off,115,0,4,,,,,,,,2,,,,79,64
22075,note_off,115,0,5,,,,,,,,3,,,,77,64
22075,note_off,115,0,6,,,,,,,,4,,,,72,64
22075,note_off,115,0,3,,,,,,,,1,,,,79,64
22080,note_on,5,0,5,,,,,,,,3,,,,80,45
22080,note_on,5,0,4,,,,,,,,2,,,,80,46
22080,note_on,5,0,3,,,,,,,,1,,,,80,61
22080,note_on,5,0,6,,,,,,,,4,,,,77,45
22195,note_off,235,0,8,,,,,,,,6,,,,44,64
22195,note_off,235,0,11,,,,,,,,14,,,,32,64
22195,note_off,115,0,5,,,,,,,,3,,,,80,64
22195,note_off,115,0,3,,,,,,,,1,,,,80,64
22195,note_off,115,0,4,,,,,,,,2,,,,80,64
22195,note_off,235,0,9,,,,,,,,7,,,,32,64
22195,note_off,115,0,6,,,,,,,,4,,,,77,64
22200,note_on,5,0,3,,,,,,,,1,,,,74,61
22200,note_on,0,0,7,,,,,,,,5,,,,74,45
22200,note_on,0,0,1,,,,,,,,0,,,,62,33
22200,note_on,0,0,1,,,,,,,,0,,,,65,33
22200,note_on,5,0,5,,,,,,,,3,,,,77,45
22200,note_off,960,0,7,,,,,,,,5,,,,72,64
22200,note_off,0,0,1,,,,,,,,0,,,,62,64
22200,note_off,0,0,1,,,,,,,,0,,,,65,64
22200,note_off,480,0,1,,,,,,,,0,,,,68,64
22200,note_off,960,0,2,,,,,,,,0,,,,44,64
22200,note_off,0,0,2,,,,,,,,0,,,,32,64
22200,note_on,0,0,2,,,,,,,,0,,,,34,30
22200,note_on,0,0,2,,,,,,,,0,,,,46,30
22200,note_on,5,0,6,,,,,,,,4,,,,74,45
22200,note_on,5,0,9,,,,,,,,7,,,,34,45
22200,note_off,960,0,10,,,,,,,,11,,,,72,64
22200,note_on,0,0,10,,,,,,,,11,,,,74,45
22200,set_tempo,720,1,0,1875000,,,,,,,,,,,,
22200,note_on,5,0,8,,,,,,,,6,,,,46,45
22200,note_on,5,0,11,,,,,,,,14,,,,34,30
22200,note_on,0,0,1,,,,,,,,0,,,,70,33
22200,note_on,5,0,4,,,,,,,,2,,,,74,46
22315,note_off,115,0,5,,,,,,,,3,,,,77,64
22315,note_off,115,0,6,,,,,,,,4,,,,74,64
22320,note_on,5,0,5,,,,,,,,3,,,,82,45
22320,note_on,5,0,6,,,,,,,,4,,,,77,45
22435,note_off,235,0,4,,,,,,,,2,,,,74,64
22435,note_off,235,0,8,,,,,,,,6,,,,46,64
22435,note_off,115,0,5,,,,,,,,3,,,,82,64
22435,note_off,235,0,3,,,,,,,,1,,,,74,64
22435,note_off,115,0,6,,,,,,,,4,,,,77,64
22440,note_on,5,0,8,,,,,,,,6,,,,46,45
22440,note_on,5,0,5,,,,,,,,3,,,,77,45
22440,set_tempo,240,1,0,1666666,,,,,,,,,,,,
22440,note_on,5,0,4,,,,,,,,2,,,,75,47
22440,note_on,5,0,3,,,,,,,,1,,,,75,62
22440,note_on,5,0,6,,,,,,,,4,,,,74,45
22555,note_off,115,0,6,,,,,,,,4,,,,74,64
22555,note_off,115,0,3,,,,,,,,1,,,,75,64
22555,note_off,115,0,5,,,,,,,,3,,,,77,64
22555,note_off,115,0,4,,,,,,,,2,,,,75,64
22560,note_on,5,0,5,,,,,,,,3,,,,82,45
22560,note_on,5,0,3,,,,,,,,1,,,,77,62
22560,note_on,5,0,6,,,,,,,,4,,,,77,45
22560,note_on,5,0,4,,,,,,,,2,,,,77,47
22600,note_off,400,0,11,,,,,,,,14,,,,34,64
22600,note_off,400,0,9,,,,,,,,7,,,,34,64
22675,note_off,235,0,8,,,,,,,,6,,,,46,64
22675,note_off,115,0,6,,,,,,,,4,,,,77,64
22675,note_off,115,0,5,,,,,,,,3,,,,82,64
22675,note_off,115,0,3,,,,,,,,1,,,,77,64
22675,note_off,115,0,4,,,,,,,,2,,,,77,64
22680,note_on,5,0,4,,,,,,,,2,,,,79,48
22680,note_on,5,0,6,,,,,,,,4,,,,74,45
22680,note_on,5,0,8,,,,,,,,6,,,,46,45
22680,note_on,5,0,5,,,,,,,,3,,,,79,45
22680,note_on,0,0,1,,,,,,,,0,,,,62,36
22680,note_off,0,0,1,,,,,,,,0,,,,62,64
22680,note_off,0,0,1,,,,,,,,0,,,,65,64
22680,note_off,480,0,1,,,,,,,,0,,,,70,64
22680,note_on,0,0,1,,,,,,,,0,,,,70,36
22680,note_on,5,0,3,,,,,,,,1,,,,79,63
22680,note_on,0,0,1,,,,,,,,0,,,,67,36
22795,note_off,115,0,6,,,,,,,,4,,,,74,64
22795,note_off,115,0,5,,,,,,,,3,,,,79,64
22800,note_on,5,0,6,,,,,,,,4,,,,79,45
22800,note_on,5,0,5,,,,,,,,3,,,,82,45
22915,note_off,115,0,5,,,,,,,,3,,,,82,64
22915,note_off,235,0,3,,,,,,,,1,,,,79,64
22915,note_off,115,0,6,,,,,,,,4,,,,79,64
22915,note_off,235,0,4,,,,,,,,2,,,,79,64
22915,note_off,235,0,8,,,,,,,,6,,,,46,64
22920,note_on,5,0,5,,,,,,,,3,,,,79,45
22920,note_on,5,0,3,,,,,,,,1,,,,80,65
22920,note_on,5,0,6,,,,,,,,4,,,,74,45
22920,note_on,320,0,9,,,,,,,,7,,,,34,45
22920,note_on,5,0,8,,,,,,,,6,,,,46,45
22920,note_on,320,0,11,,,,,,,,14,,,,34,30
22920,note_on,5,0,4,,,,,,,,2,,,,80,50
23035,note_off,115,0,4,,,,,,,,2,,,,80,64
23035,note_off,115,0,5,,,,,,,,3,,,,79,64
23035,note_off,115,0,3,,,,,,,,1,,,,80,64
23035,note_off,115,0,6,,,,,,,,4,,,,74,64
23040,note_on,5,0,4,,,,,,,,2,,,,82,51
23040,note_on,5,0,5,,,,,,,,3,,,,82,45
23040,note_on,5,0,3,,,,,,,,1,,,,82,66
23040,note_on,5,0,6,,,,,,,,4,,,,79,45
23155,note_off,115,0,3,,,,,,,,1,,,,82,64
23155,note_off,115,0,6,,,,,,,,4,,,,79,64
23155,note_off,115,0,5,,,,,,,,3,,,,82,64
23155,note_off,235,0,11,,,,,,,,14,,,,34,64
23155,note_off,235,0,9,,,,,,,,7,,,,34,64
23155,note_off,115,0,4,,,,,,,,2,,,,82,64
23155,note_off,235,0,8,,,,,,,,6,,,,46,64
23160,note_off,960,0,7,,,,,,,,5,,,,74,64
23160,note_on,0,0,1,,,,,,,,0,,,,63,39
23160,note_off,0,0,1,,,,,,,,0,,,,62,64
23160,note_on,0,0,1,,,,,,,,0,,,,67,39
23160,note_on,5,0,11,,,,,,,,14,,,,36,30
23160,note_on,5,0,5,,,,,,,,3,,,,79,45
23160,note_on,5,0,4,,,,,,,,2,,,,75,52
23160,set_tempo,720,1,0,1875000,,,,,,,,,,,,
23160,note_on,0,0,1,,,,,,,,0,,,,72,39
23160,note_on,0,0,10,,,,,,,,11,,,,63,45
23160,note_on,0,0,7,,,,,,,,5,,,,63,45
23160,note_on,5,0,9,,,,,,,,7,,,,36,45
23160,note_off,960,0,10,,,,,,,,11,,,,74,64
23160,note_on,5,0,8,,,,,,,,6,,,,48,45
23160,note_off,0,0,1,,,,,,,,0,,,,67,64
23160,note_off,480,0,1,,,,,,,,0,,,,70,64
23160,note_on,0,0,2,,,,,,,,0,,,,48,37
23160,note_on,0,0,2,,,,,,,,0,,,,36,37
23160,note_off,0,0,2,,,,,,,,0,,,,34,64
23160,note_off,960,0,2,,,,,,,,0,,,,46,64
23160,note_on,5,0,6,,,,,,,,4,,,,75,45
23160,note_on,5,0,3,,,,,,,,1,,,,75,67
23275,note_off,115,0,6,,,,,,,,4,,,,75,64
23275,note_off,115,0,5,,,,,,,,3,,,,79,64
23280,note_on,5,0,5,,,,,,,,3,,,,84,45
23280,note_on,5,0,6,,,,,,,,4,,,,79,45
23395,note_off,115,0,5,,,,,,,,3,,,,84,64
23395,note_off,115,0,6,,,,,,,,4,,,,79,64
23395,note_off,235,0,8,,,,,,,,6,,,,48,64
23395,note_off,235,0,3,,,,,,,,1,,,,75,64
23395,note_off,235,0,4,,,,,,,,2,,,,75,64
23400,note_on,5,0,8,,,,,,,,6,,,,48,45
23400,note_on,5,0,3,,,,,,,,1,,,,77,69
23400,set_tempo,240,1,0,1666666,,,,,,,,,,,,
23400,note_on,5,0,5,,,,,,,,3,,,,79,45
23400,note_on,5,0,4,,,,,,,,2,,,,77,54
23400,note_on,5,0,6,,,,,,,,4,,,,75,45
23515,note_off,115,0,4,,,,,,,,2,,,,77,64
23515,note_off,115,0,5,,,,,,,,3,,,,79,64
23515,note_off,115,0,6,,,,,,,,4,,,,75,64
23515,note_off,115,0,3,,,,,,,,1,,,,77,64
23520,note_on,5,0,4,,,,,,,,2,,,,79,55
23520,note_on,5,0,3,,,,,,,,1,,,,79,70
23520,note_on,5,0,5,,,,,,,,3,,,,84,45
23520,note_on,5,0,6,,,,,,,,4,,,,79,45
23560,note_off,400,0,9,,,,,,,,7,,,,36,64
23560,note_off,400,0,11,,,,,,,,14,,,,36,64
23635,note_off,115,0,4,,,,,,,,2,,,,79,64
23635,note_off,115,0,5,,,,,,,,3,,,,84,64
23635,note_off,115,0,6,,,,,,,,4,,,,79,64
23635,note_off,115,0,3,,,,,,,,1,,,,79,64
23635,note_off,235,0,8,,,,,,,,6,,,,48,64
23640,note_on,5,0,6,,,,,,,,4,,,,75,45
23640,note_on,5,0,8,,,,,,,,6,,,,48,45
23640,note_on,5,0,3,,,,,,,,1,,,,80,71
23640,note_on,0,0,1,,,,,,,,0,,,,68,42
23640,note_on,0,0,1,,,,,,,,0,,,,63,42
23640,note_on,5,0,4,,,,,,,,2,,,,80,56
23640,note_off,0,0,1,,,,,,,,0,,,,67,64
23640,note_on,5,0,5,,,,,,,,3,,,,80,45
23640,note_off,480,0,1,,,,,,,,0,,,,72,64
23640,note_off,0,0,1,,,,,,,,0,,,,63,64
23640,note_on,0,0,1,,,,,,,,0,,,,72,42
23755,note_off,115,0,5,,,,,,,,3,,,,80,64
23755,note_off,115,0,6,,,,,,,,4,,,,75,64
23760,note_on,5,0,5,,,,,,,,3,,,,84,45
23760,note_on,5,0,6,,,,,,,,4,,,,80,45
23875,note_off,235,0,4,,,,,,,,2,,,,80,64
23875,note_off,115,0,6,,,,,,,,4,,,,80,64
23875,note_off,235,0,3,,,,,,,,1,,,,80,64
23875,note_off,115,0,5,,,,,,,,3,,,,84,64
23875,note_off,235,0,8,,,,,,,,6,,,,48,64
23880,note_on,5,0,4,,,,,,,,2,,,,82,58
23880,note_on,320,0,11,,,,,,,,14,,,,36,30
23880,note_on,5,0,3,,,,,,,,1,,,,82,73
23880,note_on,5,0,5,,,,,,,,3,,,,80,45
23880,note_on,320,0,9,,,,,,,,7,,,,36,45
23880,note_on,5,0,8,,,,,,,,6,,,,48,45
23880,note_on,5,0,6,,,,,,,,4,,,,75,45
23995,note_off,115,0,5,,,,,,,,3,,,,80,64
23995,note_off,115,0,6,,,,,,,,4,,,,75,64
23995,note_off,115,0,3,,,,,,,,1,,,,82,64
23995,note_off,115,0,4,,,,,,,,2,,,,82,64
24000,note_on,5,0,5,,,,,,,,3,,,,84,45
24000,note_on,5,0,3,,,,,,,,1,,,,84,74
24000,note_on,5,0,4,,,,,,,,2,,,,84,59
24000,note_on,5,0,6,,,,,,,,4,,,,80,45
24115,note_off,115,0,4,,,,,,,,2,,,,84,64
24115,note_off,235,0,11,,,,,,,,14,,,,36,64
24115,note_off,115,0,3,,,,,,,,1,,,,84,64
24115,note_off,115,0,6,,,,,,,,4,,,,80,64
24115,note_off,115,0,5,,,,,,,,3,,,,84,64
24115,note_off,235,0,8,,,,,,,,6,,,,48,64
24115,note_off,235,0,9,,,,,,,,7,,,,36,64
24120,note_on,5,0,11,,,,,,,,14,,,,34,30
24120,note_on,0,0,1,,,,,,,,0,,,,70,45
24120,note_on,0,0,1,,,,,,,,0,,,,65,45
24120,note_on,0,0,1,,,,,,,,0,,,,62,45
24120,note_off,0,0,1,,,,,,,,0,,,,63,64
24120,note_off,960,0,7,,,,,,,,5,,,,63,64
24120,note_off,0,0,1,,,,,,,,0,,,,68,64
24120,note_off,480,0,1,,,,,,,,0,,,,72,64
24120,note_off,960,0,2,,,,,,,,0,,,,48,64
24120,note_off,0,0,2,,,,,,,,0,,,,36,64
24120,note_on,0,0,2,,,,,,,,0,,,,34,45
24120,note_on,5,0,8,,,,,,,,6,,,,46,45
24120,set_tempo,720,1,0,1875000,,,,,,,,,,,,
24120,note_on,5,0,4,,,,,,,,2,,,,74,60
24120,note_on,5,0,9,,,,,,,,7,,,,34,45
24120,note_on,0,0,2,,,,,,,,0,,,,46,45
24120,note_on,5,0,3,,,,,,,,1,,,,74,75
24120,note_on,5,0,5,,,,,,,,3,,,,74,45
24120,note_on,0,0,7,,,,,,,,5,,,,65,38
24120,note_off,960,0,10,,,,,,,,11,,,,63,64
24120,note_on,5,0,6,,,,,,,,4,,,,70,45
24120,note_on,0,0,10,,,,,,,,11,,,,65,38
24235,note_off,115,0,6,,,,,,,,4,,,,70,64
24235,note_off,115,0,5,,,,,,,,3,,,,74,64
24240,note_on,5,0,6,,,,,,,,4,,,,74,45
24240,note_on,5,0,5,,,,,,,,3,,,,77,45
24355,note_off,115,0,5,,,,,,,,3,,,,77,64
24355,note_off,235,0,8,,,,,,,,6,,,,46,64
24355,note_off,115,0,6,,,,,,,,4,,,,74,64
24360,note_on,5,0,6,,,,,,,,4,,,,77,45
24360,note_on,5,0,8,,,,,,,,6,,,,46,45
24360,note_on,5,0,5,,,,,,,,3,,,,82,45
24475,note_off,115,0,6,,,,,,,,4,,,,77,64
24475,note_off,115,0,5,,,,,,,,3,,,,82,64
24480,note_on,5,0,5,,,,,,,,3,,,,77,45
24480,note_on,5,0,6,,,,,,,,4,,,,74,45
24520,note_off,400,0,3,,,,,,,,1,,,,74,64
24520,note_off,400,0,4,,,,,,,,2,,,,74,64
24520,note_off,400,0,11,,,,,,,,14,,,,34,64
24520,note_off,400,0,9,,,,,,,,7,,,,34,64
24595,note_off,235,0,8,,,,,,,,6,,,,46,64
24595,note_off,115,0,5,,,,,,,,3,,,,77,64
24595,note_off,115,0,6,,,,,,,,4,,,,74,64
24600,note_on,5,0,8,,,,,,,,6,,,,46,45
24600,note_on,5,0,5,,,,,,,,3,,,,74,45
24600,note_on,5,0,6,,,,,,,,4,,,,70,45
24715,note_off,115,0,6,,,,,,,,4,,,,70,64
24715,note_off,115,0,5,,,,,,,,3,,,,74,64
24720,note_on,5,0,6,,,,,,,,4,,,,74,45
24720,note_on,5,0,5,,,,,,,,3,,,,77,45
24835,note_off,115,0,6,,,,,,,,4,,,,74,64
24835,note_off,235,0,8,,,,,,,,6,,,,46,64
24835,note_off,115,0,5,,,,,,,,3,,,,77,64
24840,note_on,320,0,3,,,,,,,,1,,,,74,75
24840,note_on,5,0,8,,,,,,,,6,,,,46,45
24840,note_on,320,0,9,,,,,,,,7,,,,34,45
24840,note_on,320,0,4,,,,,,,,2,,,,74,60
24840,set_tempo,720,1,0,1666666,,,,,,,,,,,,
24840,note_on,5,0,6,,,,,,,,4,,,,77,45
24840,note_on,320,0,11,,,,,,,,14,,,,34,30
24840,note_on,5,0,5,,,,,,,,3,,,,82,45
24955,note_off,115,0,5,,,,,,,,3,,,,82,64
24955,note_off,115,0,6,,,,,,,,4,,,,77,64
24960,note_off,840,0,2,,,,,,,,0,,,,46,64
24960,note_off,0,0,2,,,,,,,,0,,,,34,64
24960,note_off,0,0,1,,,,,,,,0,,,,62,64
24960,note_on,5,0,6,,,,,,,,4,,,,74,45
24960,note_on,0,0,4,,,,,,,,2,,,,75,60
24960,note_off,120,0,3,,,,,,,,1,,,,74,64
24960,note_on,0,0,3,,,,,,,,1,,,,75,75
24960,note_off,0,0,1,,,,,,,,0,,,,65,64
24960,note_on,5,0,5,,,,,,,,3,,,,77,45
24960,note_off,120,0,4,,,,,,,,2,,,,74,64
24960,note_off,840,0,1,,,,,,,,0,,,,70,64
25075,note_off,235,0,11,,,,,,,,14,,,,34,64
25075,note_off,235,0,9,,,,,,,,7,,,,34,64
25075,note_off,115,0,5,,,,,,,,3,,,,77,64
25075,note_off,235,0,8,,,,,,,,6,,,,46,64
25075,note_off,115,0,6,,,,,,,,4,,,,74,64
25080,note_off,120,0,4,,,,,,,,2,,,,75,64
25080,note_on,0,0,4,,,,,,,,2,,,,77,60
25080,note_on,0,0,10,,,,,,,,11,,,,58,30
25080,note_on,0,0,1,,,,,,,,0,,,,65,45
25080,note_on,0,0,1,,,,,,,,0,,,,70,45
25080,note_on,0,0,7,,,,,,,,5,,,,58,30
25080,note_on,5,0,8,,,,,,,,6,,,,46,45
25080,note_off,960,0,7,,,,,,,,5,,,,65,64
25080,set_tempo,240,1,0,1875000,,,,,,,,,,,,
25080,note_on,120,0,1,,,,,,,,0,,,,62,45
25080,note_off,960,0,10,,,,,,,,11,,,,65,64
25080,note_on,5,0,5,,,,,,,,3,,,,74,45
25080,note_on,5,0,11,,,,,,,,14,,,,34,30
25080,note_off,120,0,3,,,,,,,,1,,,,75,64
25080,note_on,0,0,3,,,,,,,,1,,,,77,75
25080,note_on,5,0,9,,,,,,,,7,,,,34,45
25080,note_on,5,0,6,,,,,,,,4,,,,70,45
25080,note_on,0,0,2,,,,,,,,0,,,,46,45
25080,note_on,120,0,2,,,,,,,,0,,,,34,45
25195,note_off,115,0,6,,,,,,,,4,,,,70,64
25195,note_off,115,0,5,,,,,,,,3,,,,74,64
25200,note_on,5,0,6,,,,,,,,4,,,,74,45
25200,note_off,120,0,4,,,,,,,,2,,,,77,64
25200,note_on,5,0,5,,,,,,,,3,,,,77,45
25200,note_on,0,0,3,,,,,,,,1,,,,74,73
25200,note_off,120,0,3,,,,,,,,1,,,,77,64
25200,note_on,0,0,4,,,,,,,,2,,,,74,58
25315,note_off,235,0,8,,,,,,,,6,,,,46,64
25315,note_off,115,0,5,,,,,,,,3,,,,77,64
25315,note_off,115,0,6,,,,,,,,4,,,,74,64
25320,note_on,5,0,6,,,,,,,,4,,,,77,44
25320,note_on,0,0,4,,,,,,,,2,,,,72,56
25320,note_off,120,0,4,,,,,,,,2,,,,74,64
25320,note_on,0,0,3,,,,,,,,1,,,,72,71
25320,note_off,120,0,3,,,,,,,,1,,,,74,64
25320,note_on,5,0,5,,,,,,,,3,,,,82,44
25320,note_on,5,0,8,,,,,,,,6,,,,46,44
25320,set_tempo,240,1,0,1666666,,,,,,,,,,,,
25435,note_off,115,0,6,,,,,,,,4,,,,77,64
25435,note_off,115,0,5,,,,,,,,3,,,,82,64
25440,note_on,0,0,4,,,,,,,,2,,,,70,54
25440,note_on,5,0,5,,,,,,,,3,,,,77,43
25440,note_on,0,0,3,,,,,,,,1,,,,70,69
25440,note_off,120,0,3,,,,,,,,1,,,,72,64
25440,note_off,120,0,4,,,,,,,,2,,,,72,64
25440,note_on,5,0,6,,,,,,,,4,,,,74,43
25480,note_off,400,0,11,,,,,,,,14,,,,34,64
25480,note_off,400,0,9,,,,,,,,7,,,,34,64
25555,note_off,115,0,6,,,,,,,,4,,,,74,64
25555,note_off,235,0,8,,,,,,,,6,,,,46,64
25555,note_off,115,0,5,,,,,,,,3,,,,77,64
25560,note_on,0,0,1,,,,,,,,0,,,,67,42
25560,note_on,5,0,8,,,,,,,,6,,,,46,42
25560,note_on,0,0,1,,,,,,,,0,,,,63,42
25560,note_off,0,0,1,,,,,,,,0,,,,62,64
25560,note_off,480,0,1,,,,,,,,0,,,,70,64
25560,note_on,0,0,4,,,,,,,,2,,,,79,52
25560,note_off,120,0,4,,,,,,,,2,,,,70,64
25560,note_on,5,0,6,,,,,,,,4,,,,70,42
25560,note_on,0,0,1,,,,,,,,0,,,,70,42
25560,note_off,0,0,1,,,,,,,,0,,,,65,64
25560,note_on,0,0,3,,,,,,,,1,,,,79,67
25560,note_on,5,0,5,,,,,,,,3,,,,75,42
25560,note_off,120,0,3,,,,,,,,1,,,,70,64
25675,note_off,115,0,5,,,,,,,,3,,,,75,64
25675,note_off,115,0,6,,,,,,,,4,,,,70,64
25680,note_off,120,0,4,,,,,,,,2,,,,79,64
25680,note_on,0,0,3,,,,,,,,1,,,,80,65
25680,note_off,120,0,3,,,,,,,,1,,,,79,64
25680,note_on,5,0,6,,,,,,,,4,,,,75,41
25680,note_on,5,0,5,,,,,,,,3,,,,79,41
25680,note_on,0,0,4,,,,,,,,2,,,,80,50
25795,note_off,235,0,8,,,,,,,,6,,,,46,64
25795,note_off,115,0,5,,,,,,,,3,,,,79,64
25795,note_off,115,0,6,,,,,,,,4,,,,75,64
25800,note_on,5,0,8,,,,,,,,6,,,,46,40
25800,note_on,320,0,11,,,,,,,,14,,,,34,23
25800,note_on,5,0,6,,,,,,,,4,,,,79,40
25800,note_on,5,0,5,,,,,,,,3,,,,82,40
25800,set_tempo,480,1,0,1875000,,,,,,,,,,,,
25800,note_on,0,0,3,,,,,,,,1,,,,82,63
25800,note_off,120,0,3,,,,,,,,1,,,,80,64
25800,note_on,0,0,4,,,,,,,,2,,,,82,48
25800,note_off,120,0,4,,,,,,,,2,,,,80,64
25800,note_on,320,0,9,,,,,,,,7,,,,34,40
25915,note_off,115,0,5,,,,,,,,3,,,,82,64
25915,note_off,115,0,6,,,,,,,,4,,,,79,64
25920,note_on,5,0,6,,,,,,,,4,,,,70,39
25920,note_on,5,0,5,,,,,,,,3,,,,79,39
25920,note_off,840,0,2,,,,,,,,0,,,,46,64
25920,note_on,0,0,3,,,,,,,,1,,,,79,61
25920,note_off,120,0,3,,,,,,,,1,,,,82,64
25920,note_off,120,0,4,,,,,,,,2,,,,82,64
25920,note_off,0,0,2,,,,,,,,0,,,,34,64
25920,note_on,0,0,4,,,,,,,,2,,,,79,46
26035,note_off,115,0,6,,,,,,,,4,,,,70,64
26035,note_off,235,0,9,,,,,,,,7,,,,34,64
26035,note_off,235,0,11,,,,,,,,14,,,,34,64
26035,note_off,235,0,8,,,,,,,,6,,,,46,64
26035,note_off,115,0,5,,,,,,,,3,,,,79,64
26040,note_on,5,0,5,,,,,,,,3,,,,74,38
26040,note_on,120,0,2,,,,,,,,0,,,,22,38
26040,note_on,5,0,11,,,,,,,,14,,,,34,21
26040,note_off,120,0,3,,,,,,,,1,,,,79,64
26040,note_on,0,0,3,,,,,,,,1,,,,77,59
26040,note_on,0,0,2,,,,,,,,0,,,,34,38
26040,note_on,0,0,1,,,,,,,,0,,,,65,38
26040,note_on,0,0,1,,,,,,,,0,,,,62,38
26040,note_off,0,0,1,,,,,,,,0,,,,63,64
26040,note_off,0,0,1,,,,,,,,0,,,,67,64
26040,note_off,480,0,1,,,,,,,,0,,,,70,64
26040,note_on,5,0,8,,,,,,,,6,,,,46,38
26040,note_on,0,0,1,,,,,,,,0,,,,70,38
26040,set_tempo,240,1,0,1666666,,,,,,,,,,,,
26040,note_on,5,0,6,,,,,,,,4,,,,70,38
26040,note_on,5,0,9,,,,,,,,7,,,,34,38
26040,note_off,120,0,4,,,,,,,,2,,,,79,64
26040,note_on,0,0,4,,,,,,,,2,,,,77,44
26155,note_off,115,0,6,,,,,,,,4,,,,70,64
26155,note_off,115,0,5,,,,,,,,3,,,,74,64
26160,note_on,5,0,5,,,,,,,,3,,,,77,37
26160,note_on,5,0,6,,,,,,,,4,,,,74,37
26275,note_off,115,0,5,,,,,,,,3,,,,77,64
26275,note_off,115,0,6,,,,,,,,4,,,,74,64
26275,note_off,235,0,3,,,,,,,,1,,,,77,64
26275,note_off,235,0,4,,,,,,,,2,,,,77,64
26275,note_off,235,0,8,,,,,,,,6,,,,46,64
26280,note_on,5,0,5,,,,,,,,3,,,,82,36
26280,note_on,5,0,6,,,,,,,,4,,,,77,36
26280,note_on,5,0,3,,,,,,,,1,,,,70,55
26280,note_on,5,0,8,,,,,,,,6,,,,46,36
26280,set_tempo,240,1,0,1875000,,,,,,,,,,,,
26280,note_on,5,0,4,,,,,,,,2,,,,70,40
26395,note_off,115,0,6,,,,,,,,4,,,,77,64
26395,note_off,115,0,5,,,,,,,,3,,,,82,64
26400,note_on,5,0,5,,,,,,,,3,,,,77,35
26400,note_on,5,0,6,,,,,,,,4,,,,74,35
26440,note_off,400,0,9,,,,,,,,7,,,,34,64
26440,note_off,400,0,11,,,,,,,,14,,,,34,64
26515,note_off,115,0,5,,,,,,,,3,,,,77,64
26515,note_off,235,0,8,,,,,,,,6,,,,46,64
26515,note_off,115,0,6,,,,,,,,4,,,,74,64
26515,note_off,235,0,3,,,,,,,,1,,,,70,64
26515,note_off,235,0,4,,,,,,,,2,,,,70,64
26520,note_on,5,0,6,,,,,,,,4,,,,70,34
26520,note_on,5,0,8,,,,,,,,6,,,,46,34
26520,note_on,5,0,5,,,,,,,,3,,,,74,34
26635,note_off,115,0,5,,,,,,,,3,,,,74,64
26635,note_off,115,0,6,,,,,,,,4,,,,70,64
26640,note_on,5,0,5,,,,,,,,3,,,,77,33
26640,note_on,5,0,6,,,,,,,,4,,,,74,33
26755,note_off,235,0,8,,,,,,,,6,,,,46,64
26755,note_off,115,0,6,,,,,,,,4,,,,74,64
26755,note_off,115,0,5,,,,,,,,3,,,,77,64
26760,note_on,320,0,9,,,,,,,,7,,,,34,32
26760,note_on,320,0,11,,,,,,,,14,,,,34,13
26760,note_on,5,0,6,,,,,,,,4,,,,77,32
26760,set_tempo,480,1,0,1666666,,,,,,,,,,,,
26760,note_on,245,0,3,,,,,,,,1,,,,74,45
26760,note_on,5,0,5,,,,,,,,3,,,,82,32
26760,note_on,245,0,4,,,,,,,,2,,,,74,30
26760,note_on,5,0,8,,,,,,,,6,,,,46,32
26875,note_off,115,0,6,,,,,,,,4,,,,77,64
26875,note_off,115,0,5,,,,,,,,3,,,,82,64
26880,note_on,5,0,5,,,,,,,,3,,,,77,31
26880,note_off,120,0,3,,,,,,,,1,,,,74,64
26880,note_on,0,0,3,,,,,,,,1,,,,75,45
26880,note_off,840,0,2,,,,,,,,0,,,,34,64
26880,note_off,0,0,2,,,,,,,,0,,,,22,64
26880,note_on,5,0,6,,,,,,,,4,,,,74,31
26880,note_off,0,0,1,,,,,,,,0,,,,62,64
26880,note_off,0,0,1,,,,,,,,0,,,,65,64
26880,note_on,0,0,4,,,,,,,,2,,,,75,30
26880,note_off,120,0,4,,,,,,,,2,,,,74,64
26880,note_off,840,0,1,,,,,,,,0,,,,70,64
26995,note_off,115,0,5,,,,,,,,3,,,,77,64
26995,note_off,235,0,8,,,,,,,,6,,,,46,64
26995,note_off,235,0,11,,,,,,,,14,,,,34,64
26995,note_off,235,0,9,,,,,,,,7,,,,34,64
26995,note_off,115,0,6,,,,,,,,4,,,,74,64
27000,note_on,0,0,2,,,,,,,,0,,,,46,30
27000,note_off,120,0,4,,,,,,,,2,,,,75,64
27000,note_on,0,0,4,,,,,,,,2,,,,77,30
27000,note_on,5,0,9,,,,,,,,7,,,,46,30
27000,note_on,5,0,8,,,,,,,,6,,,,46,30
27000,note_on,5,0,5,,,,,,,,3,,,,74,30
27000,note_on,120,0,2,,,,,,,,0,,,,34,30
27000,note_on,5,0,11,,,,,,,,14,,,,46,10
27000,note_off,120,0,3,,,,,,,,1,,,,75,64
27000,note_on,5,0,6,,,,,,,,4,,,,70,30
27000,note_on,120,0,1,,,,,,,,0,,,,62,30
27000,note_on,0,0,1,,,,,,,,0,,,,65,30
27000,note_on,0,0,1,,,,,,,,0,,,,70,30
27000,note_on,0,0,3,,,,,,,,1,,,,77,45
27115,note_off,115,0,6,,,,,,,,4,,,,70,64
27115,note_off,115,0,5,,,,,,,,3,,,,74,64
27120,note_on,5,0,5,,,,,,,,3,,,,77,30
27120,note_on,5,0,6,,,,,,,,4,,,,74,30
27120,note_on,0,0,3,,,,,,,,1,,,,74,45
27120,note_off,120,0,4,,,,,,,,2,,,,77,64
27120,note_off,120,0,3,,,,,,,,1,,,,77,64
27120,note_on,0,0,4,,,,,,,,2,,,,74,30
27235,note_off,115,0,5,,,,,,,,3,,,,77,64
27235,note_off,115,0,6,,,,,,,,4,,,,74,64
27235,note_off,235,0,8,,,,,,,,6,,,,46,64
27240,note_on,5,0,5,,,,,,,,3,,,,82,30
27240,note_off,120,0,4,,,,,,,,2,,,,74,64
27240,set_tempo,480,1,0,1875000,,,,,,,,,,,,
27240,note_off,120,0,3,,,,,,,,1,,,,74,64
27240,note_on,0,0,4,,,,,,,,2,,,,72,30
27240,note_on,0,0,3,,,,,,,,1,,,,72,45
27240,note_on,5,0,6,,,,,,,,4,,,,77,30
27240,note_on,5,0,8,,,,,,,,6,,,,46,30
27355,note_off,115,0,6,,,,,,,,4,,,,77,64
27355,note_off,115,0,5,,,,,,,,3,,,,82,64
27360,note_on,0,0,4,,,,,,,,2,,,,70,30
27360,note_off,120,0,3,,,,,,,,1,,,,72,64
27360,note_on,5,0,5,,,,,,,,3,,,,77,30
27360,note_on,5,0,6,,,,,,,,4,,,,74,30
27360,note_off,120,0,4,,,,,,,,2,,,,72,64
27360,note_on,0,0,3,,,,,,,,1,,,,70,45
27400,note_off,400,0,9,,,,,,,,7,,,,46,64
27400,note_off,400,0,11,,,,,,,,14,,,,46,64
27475,note_off,115,0,6,,,,,,,,4,,,,74,64
27475,note_off,115,0,5,,,,,,,,3,,,,77,64
27475,note_off,235,0,8,,,,,,,,6,,,,46,64
27480,note_on,5,0,6,,,,,,,,4,,,,70,30
27480,note_on,5,0,5,,,,,,,,3,,,,75,30
27480,note_on,0,0,3,,,,,,,,1,,,,79,45
27480,note_on,5,0,8,,,,,,,,6,,,,46,30
27480,note_off,120,0,4,,,,,,,,2,,,,70,64
27480,note_on,0,0,4,,,,,,,,2,,,,79,30
27480,note_off,120,0,3,,,,,,,,1,,,,70,64
27480,note_on,0,0,1,,,,,,,,0,,,,70,30
27480,note_on,0,0,1,,,,,,,,0,,,,67,30
27480,note_off,0,0,1,,,,,,,,0,,,,62,64
27480,note_off,0,0,1,,,,,,,,0,,,,65,64
27480,note_on,0,0,1,,,,,,,,0,,,,63,30
27480,note_off,480,0,1,,,,,,,,0,,,,70,64
27595,note_off,115,0,5,,,,,,,,3,,,,75,64
27595,note_off,115,0,6,,,,,,,,4,,,,70,64
27600,note_on,5,0,6,,,,,,,,4,,,,75,30
27600,note_on,0,0,4,,,,,,,,2,,,,80,30
27600,note_off,120,0,4,,,,,,,,2,,,,79,64
27600,note_on,0,0,3,,,,,,,,1,,,,80,45
27600,note_off,120,0,3,,,,,,,,1,,,,79,64
27600,note_on,5,0,5,,,,,,,,3,,,,79,30
27715,note_off,115,0,6,,,,,,,,4,,,,75,64
27715,note_off,235,0,8,,,,,,,,6,,,,46,64
27715,note_off,115,0,5,,,,,,,,3,,,,79,64
27720,note_on,5,0,5,,,,,,,,3,,,,82,30
27720,note_off,120,0,3,,,,,,,,1,,,,80,64
27720,note_on,0,0,3,,,,,,,,1,,,,82,45
27720,note_off,120,0,4,,,,,,,,2,,,,80,64
27720,note_on,0,0,4,,,,,,,,2,,,,82,30
27720,note_on,320,0,9,,,,,,,,7,,,,46,30
27720,note_on,5,0,6,,,,,,,,4,,,,79,30
27720,set_tempo,480,1,0,1875000,,,,,,,,,,,,
27720,note_on,5,0,8,,,,,,,,6,,,,46,30
27720,note_on,320,0,11,,,,,,,,14,,,,46,10
27835,note_off,115,0,5,,,,,,,,3,,,,82,64
27835,note_off,115,0,6,,,,,,,,4,,,,79,64
27840,note_on,5,0,5,,,,,,,,3,,,,75,30
27840,note_on,5,0,6,,,,,,,,4,,,,70,30
27840,note_on,0,0,4,,,,,,,,2,,,,79,30
27840,note_off,120,0,3,,,,,,,,1,,,,82,64
27840,note_off,120,0,4,,,,,,,,2,,,,82,64
27840,note_on,0,0,3,,,,,,,,1,,,,79,45
27955,note_off,115,0,6,,,,,,,,4,,,,70,64
27955,note_off,115,0,5,,,,,,,,3,,,,75,64
27955,note_off,235,0,11,,,,,,,,14,,,,46,64
27955,note_off,235,0,8,,,,,,,,6,,,,46,64
27955,note_off,235,0,9,,,,,,,,7,,,,46,64
27960,note_on,0,0,4,,,,,,,,2,,,,77,30
27960,note_off,120,0,4,,,,,,,,2,,,,79,64
27960,note_on,5,0,5,,,,,,,,3,,,,74,30
27960,note_on,5,0,8,,,,,,,,6,,,,46,30
27960,note_on,5,0,9,,,,,,,,7,,,,46,30
27960,note_off,120,0,3,,,,,,,,1,,,,79,64
27960,note_off,480,0,1,,,,,,,,0,,,,70,64
27960,note_off,0,0,1,,,,,,,,0,,,,67,64
27960,note_on,5,0,11,,,,,,,,14,,,,46,10
27960,note_on,0,0,1,,,,,,,,0,,,,62,30
27960,note_on,0,0,1,,,,,,,,0,,,,65,30
27960,note_on,0,0,3,,,,,,,,1,,,,77,45
27960,set_tempo,240,1,0,1666666,,,,,,,,,,,,
27960,note_off,0,0,1,,,,,,,,0,,,,63,64
27960,note_on,0,0,1,,,,,,,,0,,,,70,30
27960,note_on,5,0,6,,,,,,,,4,,,,70,30
28075,note_off,115,0,6,,,,,,,,4,,,,70,64
28075,note_off,115,0,5,,,,,,,,3,,,,74,64
28080,note_on,5,0,6,,,,,,,,4,,,,74,30
28080,note_on,5,0,5,,,,,,,,3,,,,77,30
28195,note_off,235,0,8,,,,,,,,6,,,,46,64
28195,note_off,115,0,6,,,,,,,,4,,,,74,64
28195,note_off,115,0,5,,,,,,,,3,,,,77,64
28195,note_off,235,0,4,,,,,,,,2,,,,77,64
28195,note_off,235,0,3,,,,,,,,1,,,,77,64
28200,note_on,5,0,4,,,,,,,,2,,,,70,30
28200,note_on,5,0,5,,,,,,,,3,,,,82,30
28200,note_on,5,0,6,,,,,,,,4,,,,77,30
28200,note_on,5,0,3,,,,,,,,1,,,,70,45
28200,note_on,5,0,8,,,,,,,,6,,,,46,30
28200,set_tempo,240,1,0,1875000,,,,,,,,,,,,
28315,note_off,115,0,5,,,,,,,,3,,,,82,64
28315,note_off,115,0,6,,,,,,,,4,,,,77,64
28320,note_on,5,0,6,,,,,,,,4,,,,74,30
28320,note_on,5,0,5,,,,,,,,3,,,,77,30
28360,note_off,400,0,9,,,,,,,,7,,,,46,64
28360,note_off,400,0,11,,,,,,,,14,,,,46,64
28435,note_off,235,0,3,,,,,,,,1,,,,70,64
28435,note_off,235,0,4,,,,,,,,2,,,,70,64
28435,note_off,115,0,5,,,,,,,,3,,,,77,64
28435,note_off,115,0,6,,,,,,,,4,,,,74,64
28435,note_off,235,0,8,,,,,,,,6,,,,46,64
28440,note_on,5,0,8,,,,,,,,6,,,,46,30
28440,note_on,5,0,5,,,,,,,,3,,,,74,30
28440,note_on,5,0,6,,,,,,,,4,,,,70,30
28555,note_off,115,0,6,,,,,,,,4,,,,70,64
28555,note_off,115,0,5,,,,,,,,3,,,,74,64
28560,note_on,5,0,5,,,,,,,,3,,,,77,30
28560,note_on,5,0,6,,,,,,,,4,,,,74,30
28675,note_off,115,0,6,,,,,,,,4,,,,74,64
28675,note_off,235,0,8,,,,,,,,6,,,,46,64
28675,note_off,115,0,5,,,,,,,,3,,,,77,64
28680,note_on,5,0,8,,,,,,,,6,,,,46,30
28680,note_on,320,0,11,,,,,,,,14,,,,46,10
28680,note_on,245,0,3,,,,,,,,1,,,,77,75
28680,note_on,245,0,4,,,,,,,,2,,,,77,60
28680,set_tempo,480,1,0,1666666,,,,,,,,,,,,
28680,note_on,5,0,5,,,,,,,,3,,,,82,30
28680,note_on,5,0,6,,,,,,,,4,,,,77,30
28680,note_on,320,0,9,,,,,,,,7,,,,46,30
28795,note_off,115,0,5,,,,,,,,3,,,,82,64
28795,note_off,115,0,6,,,,,,,,4,,,,77,64
28800,note_off,0,0,2,,,,,,,,0,,,,34,64
28800,note_off,1800,0,2,,,,,,,,0,,,,46,64
28800,note_on,0,0,3,,,,,,,,1,,,,82,75
28800,note_on,5,0,5,,,,,,,,3,,,,77,30
28800,note_off,0,0,1,,,,,,,,0,,,,62,64
28800,note_off,840,0,1,,,,,,,,0,,,,70,64
28800,note_off,120,0,3,,,,,,,,1,,,,77,64
28800,note_on,5,0,6,,,,,,,,4,,,,74,30
28800,note_on,0,0,4,,,,,,,,2,,,,82,60
28800,note_off,120,0,4,,,,,,,,2,,,,77,64
28800,note_off,0,0,1,,,,,,,,0,,,,65,64
28915,note_off,115,0,5,,,,,,,,3,,,,77,64
28915,note_off,235,0,8,,,,,,,,6,,,,46,64
28915,note_off,115,0,6,,,,,,,,4,,,,74,64
28915,note_off,235,0,9,,,,,,,,7,,,,46,64
28915,note_off,235,0,11,,,,,,,,14,,,,46,64
28920,note_on,5,0,8,,,,,,,,6,,,,51,30
28920,note_off,120,0,4,,,,,,,,2,,,,82,64
28920,note_on,120,0,1,,,,,,,,0,,,,63,45
28920,note_on,5,0,11,,,,,,,,14,,,,39,45
28920,note_off,120,0,3,,,,,,,,1,,,,82,64
28920,note_on,0,0,1,,,,,,,,0,,,,70,45
28920,note_on,5,0,5,,,,,,,,3,,,,75,30
28920,note_on,0,0,2,,,,,,,,0,,,,51,45
28920,note_on,120,0,2,,,,,,,,0,,,,39,45
28920,note_on,0,0,1,,,,,,,,0,,,,67,45
28920,note_on,5,0,6,,,,,,,,4,,,,70,30
28920,note_on,5,0,9,,,,,,,,7,,,,39,45
28920,note_on,0,0,3,,,,,,,,1,,,,79,75
28920,note_on,0,0,4,,,,,,,,2,,,,79,60
28920,set_tempo,240,1,0,1875000,,,,,,,,,,,,
29035,note_off,115,0,5,,,,,,,,3,,,,75,64
29035,note_off,115,0,6,,,,,,,,4,,,,70,64
29040,note_on,5,0,6,,,,,,,,4,,,,75,30
29040,note_on,5,0,5,,,,,,,,3,,,,79,30
29155,note_off,235,0,3,,,,,,,,1,,,,79,64
29155,note_off,235,0,4,,,,,,,,2,,,,79,64
29155,note_off,235,0,8,,,,,,,,6,,,,51,64
29155,note_off,115,0,6,,,,,,,,4,,,,75,64
29155,note_off,115,0,5,,,,,,,,3,,,,79,64
29160,note_on,5,0,4,,,,,,,,2,,,,77,53
29160,note_on,5,0,8,,,,,,,,6,,,,51,30
29160,note_on,5,0,3,,,,,,,,1,,,,77,68
29160,note_on,5,0,6,,,,,,,,4,,,,79,30
29160,note_on,5,0,5,,,,,,,,3,,,,82,30
29275,note_off,115,0,5,,,,,,,,3,,,,82,64
29275,note_off,115,0,6,,,,,,,,4,,,,79,64
29280,note_off,120,0,3,,,,,,,,1,,,,77,64
29280,note_on,0,0,3,,,,,,,,1,,,,75,65
29280,note_on,5,0,5,,,,,,,,3,,,,75,30
29280,note_on,0,0,4,,,,,,,,2,,,,75,50
29280,note_off,120,0,4,,,,,,,,2,,,,77,64
29280,note_on,5,0,6,,,,,,,,4,,,,70,30
29320,note_off,400,0,11,,,,,,,,14,,,,39,64
29320,note_off,400,0,9,,,,,,,,7,,,,39,64
29395,note_off,235,0,8,,,,,,,,6,,,,51,64
29395,note_off,115,0,6,,,,,,,,4,,,,70,64
29395,note_off,115,0,3,,,,,,,,1,,,,75,64
29395,note_off,115,0,5,,,,,,,,3,,,,75,64
29395,note_off,115,0,4,,,,,,,,2,,,,75,64
29400,note_on,0,0,1,,,,,,,,0,,,,70,45
29400,note_on,0,0,1,,,,,,,,0,,,,68,45
29400,note_on,5,0,3,,,,,,,,1,,,,74,61
29400,note_on,0,0,2,,,,,,,,0,,,,34,45
29400,note_off,0,0,2,,,,,,,,0,,,,39,64
29400,note_on,5,0,5,,,,,,,,3,,,,74,30
29400,note_on,5,0,8,,,,,,,,6,,,,46,30
29400,note_on,0,0,2,,,,,,,,0,,,,46,45
29400,note_off,0,0,1,,,,,,,,0,,,,63,64
29400,note_on,5,0,6,,,,,,,,4,,,,70,30
29400,set_tempo,480,1,0,1666666,,,,,,,,,,,,
29400,note_on,5,0,4,,,,,,,,2,,,,74,46
29400,note_off,480,0,1,,,,,,,,0,,,,70,64
29400,note_off,0,0,1,,,,,,,,0,,,,67,64
29400,note_off,480,0,2,,,,,,,,0,,,,51,64
29400,note_on,0,0,1,,,,,,,,0,,,,62,45
29400,note_on,0,0,1,,,,,,,,0,,,,65,45
29430,note_off,30,0,3,,,,,,,,1,,,,74,64
29430,note_on,0,0,3,,,,,,,,1,,,,75,60
29430,note_off,30,0,4,,,,,,,,2,,,,74,64
29430,note_on,0,0,4,,,,,,,,2,,,,75,45
29460,note_off,30,0,3,,,,,,,,1,,,,75,64
29460,note_on,0,0,3,,,,,,,,1,,,,74,59
29460,note_on,0,0,4,,,,,,,,2,,,,74,44
29460,note_off,30,0,4,,,,,,,,2,,,,75,64
29490,note_on,0,0,4,,,,,,,,2,,,,75,43
29490,note_on,0,0,3,,,,,,,,1,,,,75,58
29490,note_off,30,0,3,,,,,,,,1,,,,74,64
29490,note_off,30,0,4,,,,,,,,2,,,,74,64
29515,note_off,115,0,6,,,,,,,,4,,,,70,64
29515,note_off,115,0,5,,,,,,,,3,,,,74,64
29520,note_on,5,0,6,,,,,,,,4,,,,74,30
29520,note_on,5,0,5,,,,,,,,3,,,,77,30
29520,note_on,0,0,3,,,,,,,,1,,,,74,57
29520,note_off,30,0,4,,,,,,,,2,,,,75,64
29520,note_on,0,0,4,,,,,,,,2,,,,74,42
29520,note_off,30,0,3,,,,,,,,1,,,,75,64
29550,note_off,30,0,4,,,,,,,,2,,,,74,64
29550,note_off,30,0,3,,,,,,,,1,,,,74,64
29550,note_on,0,0,3,,,,,,,,1,,,,75,56
29550,note_on,0,0,4,,,,,,,,2,,,,75,41
29580,note_off,30,0,4,,,,,,,,2,,,,75,64
29580,note_on,0,0,4,,,,,,,,2,,,,74,40
29580,note_off,30,0,3,,,,,,,,1,,,,75,64
29580,note_on,0,0,3,,,,,,,,1,,,,74,55
29610,note_off,30,0,4,,,,,,,,2,,,,74,64
29610,note_off,30,0,3,,,,,,,,1,,,,74,64
29610,note_on,0,0,3,,,,,,,,1,,,,75,54
29610,note_on,0,0,4,,,,,,,,2,,,,75,39
29635,note_off,115,0,5,,,,,,,,3,,,,77,64
29635,note_off,235,0,8,,,,,,,,6,,,,46,64
29635,note_off,115,0,6,,,,,,,,4,,,,74,64
29640,note_on,320,0,9,,,,,,,,7,,,,34,44
29640,note_on,5,0,5,,,,,,,,3,,,,82,30
29640,note_off,30,0,4,,,,,,,,2,,,,75,64
29640,note_on,5,0,8,,,,,,,,6,,,,46,30
29640,note_off,30,0,3,,,,,,,,1,,,,75,64
29640,note_on,0,0,3,,,,,,,,1,,,,74,53
29640,note_on,320,0,11,,,,,,,,14,,,,34,44
29640,note_on,5,0,6,,,,,,,,4,,,,77,30
29640,note_on,0,0,4,,,,,,,,2,,,,74,38
29670,note_off,30,0,4,,,,,,,,2,,,,74,64
29670,note_on,0,0,4,,,,,,,,2,,,,75,37
29670,note_off,30,0,3,,,,,,,,1,,,,74,64
29670,note_on,0,0,3,,,,,,,,1,,,,75,52
29700,note_on,0,0,4,,,,,,,,2,,,,74,36
29700,note_off,30,0,3,,,,,,,,1,,,,75,64
29700,note_on,0,0,3,,,,,,,,1,,,,74,51
29700,note_off,30,0,4,,,,,,,,2,,,,75,64
29730,note_off,30,0,4,,,,,,,,2,,,,74,64
29730,note_on,0,0,4,,,,,,,,2,,,,75,35
29730,note_on,0,0,3,,,,,,,,1,,,,75,50
29730,note_off,30,0,3,,,,,,,,1,,,,74,64
29755,note_off,115,0,6,,,,,,,,4,,,,77,64
29755,note_off,115,0,5,,,,,,,,3,,,,82,64
29760,note_off,30,0,3,,,,,,,,1,,,,75,64
29760,note_on,5,0,5,,,,,,,,3,,,,77,30
29760,note_on,5,0,6,,,,,,,,4,,,,74,30
29760,note_off,30,0,4,,,,,,,,2,,,,75,64
29760,note_on,0,0,4,,,,,,,,2,,,,75,34
29760,note_on,0,0,3,,,,,,,,1,,,,75,49
29875,note_off,115,0,6,,,,,,,,4,,,,74,64
29875,note_off,235,0,11,,,,,,,,14,,,,34,64
29875,note_off,235,0,8,,,,,,,,6,,,,46,64
29875,note_off,115,0,4,,,,,,,,2,,,,75,64
29875,note_off,235,0,9,,,,,,,,7,,,,34,64
29875,note_off,115,0,3,,,,,,,,1,,,,75,64
29875,note_off,115,0,5,,,,,,,,3,,,,77,64
29880,note_on,0,0,2,,,,,,,,0,,,,51,30
29880,note_on,0,0,2,,,,,,,,0,,,,46,30
29880,note_off,480,0,2,,,,,,,,0,,,,46,64
29880,note_on,0,0,2,,,,,,,,0,,,,39,30
29880,note_off,0,0,1,,,,,,,,0,,,,68,64
29880,note_on,5,0,4,,,,,,,,2,,,,75,30
29880,note_on,5,0,5,,,,,,,,3,,,,75,30
29880,note_off,480,0,1,,,,,,,,0,,,,70,64
29880,note_off,0,0,2,,,,,,,,0,,,,34,64
29880,note_on,5,0,9,,,,,,,,7,,,,39,43
29880,set_tempo,480,1,0,1666666,,,,,,,,,,,,
29880,note_on,0,0,1,,,,,,,,0,,,,67,45
29880,note_on,0,0,1,,,,,,,,0,,,,63,45
29880,note_off,0,0,1,,,,,,,,0,,,,62,64
29880,note_off,0,0,1,,,,,,,,0,,,,65,64
29880,note_on,5,0,11,,,,,,,,14,,,,39,43
29880,note_on,5,0,3,,,,,,,,1,,,,75,45
29880,note_on,5,0,8,,,,,,,,6,,,,51,30
29880,note_on,5,0,6,,,,,,,,4,,,,70,30
29880,note_on,0,0,1,,,,,,,,0,,,,70,45
29995,note_off,115,0,6,,,,,,,,4,,,,70,64
29995,note_off,115,0,5,,,,,,,,3,,,,75,64
30000,note_on,5,0,6,,,,,,,,4,,,,75,30
30000,note_on,5,0,5,,,,,,,,3,,,,79,30
30115,note_off,115,0,6,,,,,,,,4,,,,75,64
30115,note_off,115,0,5,,,,,,,,3,,,,79,64
30115,note_off,0,0,1,,,,,,,,0,,,,63,64
30115,note_off,0,0,1,,,,,,,,0,,,,67,64
30115,note_off,235,0,1,,,,,,,,0,,,,70,64
30115,note_off,235,0,8,,,,,,,,6,,,,51,64
30120,set_tempo,240,1,0,2000000,,,,,,,,,,,,
30120,note_on,5,0,8,,,,,,,,6,,,,51,30
30120,note_on,5,0,1,,,,,,,,0,,,,70,45
30120,note_on,5,0,6,,,,,,,,4,,,,79,30
30120,note_on,5,0,5,,,,,,,,3,,,,82,30
30120,note_on,0,0,1,,,,,,,,0,,,,82,45
30235,note_off,115,0,6,,,,,,,,4,,,,79,64
30235,note_off,115,0,5,,,,,,,,3,,,,82,64
30240,note_on,5,0,5,,,,,,,,3,,,,79,30
30240,note_on,5,0,6,,,,,,,,4,,,,75,30
30240,note_off,120,0,1,,,,,,,,0,,,,82,64
30240,note_off,0,0,1,,,,,,,,0,,,,70,64
30240,note_on,0,0,1,,,,,,,,0,,,,68,45
30240,note_on,0,0,1,,,,,,,,0,,,,80,45
30280,note_off,400,0,11,,,,,,,,14,,,,39,64
30280,note_off,400,0,9,,,,,,,,7,,,,39,64
30355,note_off,235,0,8,,,,,,,,6,,,,51,64
30355,note_off,115,0,5,,,,,,,,3,,,,79,64
30355,note_off,115,0,6,,,,,,,,4,,,,75,64
30360,note_on,5,0,8,,,,,,,,6,,,,51,30
30360,note_on,5,0,5,,,,,,,,3,,,,75,30
30360,note_on,5,0,6,,,,,,,,4,,,,70,30
30360,set_tempo,240,1,0,1818181,,,,,,,,,,,,
30360,note_on,0,0,1,,,,,,,,0,,,,67,45
30360,note_off,0,0,1,,,,,,,,0,,,,68,64
30360,note_on,0,0,1,,,,,,,,0,,,,79,45
30360,note_off,120,0,1,,,,,,,,0,,,,80,64
30475,note_off,115,0,5,,,,,,,,3,,,,75,64
30475,note_off,115,0,6,,,,,,,,4,,,,70,64
30480,note_on,5,0,6,,,,,,,,4,,,,75,30
30480,note_on,5,0,5,,,,,,,,3,,,,79,30
30595,note_off,235,0,8,,,,,,,,6,,,,51,64
30595,note_off,115,0,5,,,,,,,,3,,,,79,64
30595,note_off,115,0,6,,,,,,,,4,,,,75,64
30600,note_on,5,0,8,,,,,,,,6,,,,51,30
30600,note_on,5,0,5,,,,,,,,3,,,,82,30
30600,note_on,5,0,6,,,,,,,,4,,,,79,30
30600,note_on,0,0,1,,,,,,,,0,,,,65,45
30600,note_off,0,0,1,,,,,,,,0,,,,67,64
30600,note_on,320,0,9,,,,,,,,7,,,,39,40
30600,note_on,0,0,1,,,,,,,,0,,,,77,45
30600,note_on,320,0,11,,,,,,,,14,,,,39,40
30600,note_off,240,0,1,,,,,,,,0,,,,79,64
30715,note_off,115,0,5,,,,,,,,3,,,,82,64
30715,note_off,115,0,6,,,,,,,,4,,,,79,64
30720,note_on,5,0,5,,,,,,,,3,,,,75,30
30720,note_on,5,0,6,,,,,,,,4,,,,70,30
30835,note_off,235,0,9,,,,,,,,7,,,,39,64
30835,note_off,235,0,8,,,,,,,,6,,,,51,64
30835,note_off,235,0,11,,,,,,,,14,,,,39,64
30835,note_off,115,0,5,,,,,,,,3,,,,75,64
30835,note_off,115,0,6,,,,,,,,4,,,,70,64
30840,set_tempo,480,1,0,1764705,,,,,,,,,,,,
30840,note_off,0,0,1,,,,,,,,0,,,,65,64
30840,note_on,5,0,9,,,,,,,,7,,,,39,39
30840,note_off,240,0,1,,,,,,,,0,,,,77,64
30840,note_on,5,0,8,,,,,,,,6,,,,39,30
30840,note_on,5,0,6,,,,,,,,4,,,,67,30
30840,note_on,5,0,11,,,,,,,,14,,,,39,39
30840,note_on,0,0,1,,,,,,,,0,,,,75,45
30840,note_on,0,0,1,,,,,,,,0,,,,63,45
30840,note_on,5,0,5,,,,,,,,3,,,,70,30
30955,note_off,115,0,5,,,,,,,,3,,,,70,64
30955,note_off,115,0,6,,,,,,,,4,,,,67,64
30960,note_on,5,0,6,,,,,,,,4,,,,70,30
30960,note_on,5,0,5,,,,,,,,3,,,,75,30
31075,note_off,115,0,5,,,,,,,,3,,,,75,64
31075,note_off,0,0,1,,,,,,,,0,,,,63,64
31075,note_off,235,0,8,,,,,,,,6,,,,39,64
31075,note_off,115,0,6,,,,,,,,4,,,,70,64
31075,note_off,235,0,1,,,,,,,,0,,,,75,64
31080,note_on,5,0,5,,,,,,,,3,,,,79,30
31080,note_on,5,0,6,,,,,,,,4,,,,75,30
31080,note_on,5,0,8,,,,,,,,6,,,,39,30
31080,note_on,0,0,1,,,,,,,,0,,,,70,44
31080,note_on,5,0,1,,,,,,,,0,,,,58,44
31195,note_off,115,0,5,,,,,,,,3,,,,79,64
31195,note_off,115,0,6,,,,,,,,4,,,,75,64
31200,note_on,5,0,6,,,,,,,,4,,,,70,30
31200,note_on,0,0,1,,,,,,,,0,,,,68,43
31200,note_off,120,0,1,,,,,,,,0,,,,70,64
31200,note_off,0,0,1,,,,,,,,0,,,,58,64
31200,note_on,0,0,1,,,,,,,,0,,,,56,43
31200,note_on,5,0,5,,,,,,,,3,,,,75,30
31240,note_off,400,0,9,,,,,,,,7,,,,39,64
31240,note_off,400,0,11,,,,,,,,14,,,,39,64
31315,note_off,235,0,8,,,,,,,,6,,,,39,64
31315,note_off,115,0,5,,,,,,,,3,,,,75,64
31315,note_off,115,0,6,,,,,,,,4,,,,70,64
31320,note_off,120,0,1,,,,,,,,0,,,,68,64
31320,note_off,0,0,1,,,,,,,,0,,,,56,64
31320,note_on,0,0,1,,,,,,,,0,,,,67,42
31320,note_on,5,0,5,,,,,,,,3,,,,70,30
31320,note_on,5,0,6,,,,,,,,4,,,,67,30
31320,note_on,0,0,1,,,,,,,,0,,,,55,42
31320,set_tempo,480,1,0,1875000,,,,,,,,,,,,
31320,note_on,5,0,8,,,,,,,,6,,,,39,30
31435,note_off,115,0,5,,,,,,,,3,,,,70,64
31435,note_off,115,0,6,,,,,,,,4,,,,67,64
31440,note_on,5,0,5,,,,,,,,3,,,,75,30
31440,note_on,5,0,6,,,,,,,,4,,,,70,30
31555,note_off,235,0,8,,,,,,,,6,,,,39,64
31555,note_off,115,0,5,,,,,,,,3,,,,75,64
31555,note_off,115,0,6,,,,,,,,4,,,,70,64
31560,note_on,0,0,1,,,,,,,,0,,,,53,40
31560,note_off,0,0,1,,,,,,,,0,,,,55,64
31560,note_off,240,0,1,,,,,,,,0,,,,67,64
31560,note_on,320,0,11,,,,,,,,14,,,,39,36
31560,note_on,5,0,8,,,,,,,,6,,,,39,30
31560,note_on,5,0,5,,,,,,,,3,,,,79,30
31560,note_on,0,0,1,,,,,,,,0,,,,65,40
31560,note_on,320,0,9,,,,,,,,7,,,,39,36
31560,note_on,5,0,6,,,,,,,,4,,,,75,30
31675,note_off,115,0,6,,,,,,,,4,,,,75,64
31675,note_off,115,0,5,,,,,,,,3,,,,79,64
31680,note_on,5,0,6,,,,,,,,4,,,,70,30
31680,note_on,5,0,5,,,,,,,,3,,,,75,30
31795,note_off,235,0,9,,,,,,,,7,,,,39,64
31795,note_off,115,0,6,,,,,,,,4,,,,70,64
31795,note_off,235,0,11,,,,,,,,14,,,,39,64
31795,note_off,115,0,5,,,,,,,,3,,,,75,64
31795,note_off,235,0,8,,,,,,,,6,,,,39,64
31800,note_on,5,0,9,,,,,,,,7,,,,39,35
31800,note_on,5,0,5,,,,,,,,3,,,,67,30
31800,set_tempo,480,1,0,2000000,,,,,,,,,,,,
31800,note_off,0,0,1,,,,,,,,0,,,,53,64
31800,note_on,5,0,11,,,,,,,,14,,,,39,35
31800,note_on,5,0,8,,,,,,,,6,,,,39,30
31800,note_on,0,0,1,,,,,,,,0,,,,63,38
31800,note_on,5,0,6,,,,,,,,4,,,,63,30
31800,note_on,0,0,1,,,,,,,,0,,,,51,38
31800,note_off,240,0,1,,,,,,,,0,,,,65,64
31915,note_off,115,0,6,,,,,,,,4,,,,63,64
31915,note_off,115,0,5,,,,,,,,3,,,,67,64
31920,note_on,5,0,6,,,,,,,,4,,,,67,30
31920,note_on,5,0,5,,,,,,,,3,,,,70,30
32035,note_off,235,0,1,,,,,,,,0,,,,63,64
32035,note_off,0,0,1,,,,,,,,0,,,,51,64
32035,note_off,115,0,5,,,,,,,,3,,,,70,64
32035,note_off,235,0,8,,,,,,,,6,,,,39,64
32035,note_off,115,0,6,,,,,,,,4,,,,67,64
32040,note_on,5,0,6,,,,,,,,4,,,,70,30
32040,note_on,5,0,1,,,,,,,,0,,,,46,36
32040,note_on,0,0,1,,,,,,,,0,,,,58,36
32040,note_on,5,0,5,,,,,,,,3,,,,74,30
32040,note_on,5,0,8,,,,,,,,6,,,,39,30
32155,note_off,115,0,6,,,,,,,,4,,,,70,64
32155,note_off,115,0,5,,,,,,,,3,,,,74,64
32160,note_off,120,0,1,,,,,,,,0,,,,58,64
32160,note_off,0,0,1,,,,,,,,0,,,,46,64
32160,note_on,0,0,1,,,,,,,,0,,,,44,35
32160,note_on,0,0,1,,,,,,,,0,,,,56,35
32160,note_on,5,0,6,,,,,,,,4,,,,67,30
32160,note_on,5,0,5,,,,,,,,3,,,,70,30
32200,note_off,400,0,9,,,,,,,,7,,,,39,64
32200,note_off,400,0,11,,,,,,,,14,,,,39,64
32275,note_off,235,0,8,,,,,,,,6,,,,39,64
32275,note_off,115,0,5,,,,,,,,3,,,,70,64
32275,note_off,115,0,6,,,,,,,,4,,,,67,64
32280,note_on,5,0,5,,,,,,,,3,,,,67,30
32280,note_on,5,0,6,,,,,,,,4,,,,63,30
32280,note_off,120,0,1,,,,,,,,0,,,,56,64
32280,set_tempo,480,1,0,2142857,,,,,,,,,,,,
32280,note_on,5,0,8,,,,,,,,6,,,,39,30
32280,note_off,0,0,1,,,,,,,,0,,,,44,64
32280,note_on,0,0,1,,,,,,,,0,,,,43,34
32280,note_on,0,0,1,,,,,,,,0,,,,55,34
32395,note_off,115,0,6,,,,,,,,4,,,,63,64
32395,note_off,115,0,5,,,,,,,,3,,,,67,64
32400,note_on,5,0,5,,,,,,,,3,,,,70,30
32400,note_on,5,0,6,,,,,,,,4,,,,67,30
32515,note_off,115,0,6,,,,,,,,4,,,,67,64
32515,note_off,235,0,8,,,,,,,,6,,,,39,64
32515,note_off,115,0,5,,,,,,,,3,,,,70,64
32520,note_on,5,0,8,,,,,,,,6,,,,39,30
32520,note_on,5,0,6,,,,,,,,4,,,,70,30
32520,note_on,320,0,11,,,,,,,,14,,,,39,32
32520,note_on,320,0,9,,,,,,,,7,,,,39,32
32520,note_on,0,0,1,,,,,,,,0,,,,53,32
32520,note_off,0,0,1,,,,,,,,0,,,,43,64
32520,note_on,0,0,1,,,,,,,,0,,,,41,32
32520,note_on,5,0,5,,,,,,,,3,,,,74,30
32520,note_off,240,0,1,,,,,,,,0,,,,55,64
32635,note_off,115,0,6,,,,,,,,4,,,,70,64
32635,note_off,115,0,5,,,,,,,,3,,,,74,64
32640,note_on,5,0,6,,,,,,,,4,,,,67,30
32640,note_on,5,0,5,,,,,,,,3,,,,70,30
32755,note_off,235,0,9,,,,,,,,7,,,,39,64
32755,note_off,235,0,11,,,,,,,,14,,,,39,64
32755,note_off,115,0,6,,,,,,,,4,,,,67,64
32755,note_off,235,0,8,,,,,,,,6,,,,39,64
32755,note_off,115,0,5,,,,,,,,3,,,,70,64
32760,note_on,0,0,6,,,,,,,,4,,,,63,30
32760,note_on,0,0,1,,,,,,,,0,,,,58,30
32760,program_change,5,0,8,,,,,,,,6,,,48,,
32760,note_on,5,0,5,,,,,,,,3,,,,67,30
32760,note_off,240,0,1,,,,,,,,0,,,,53,64
32760,note_off,0,0,1,,,,,,,,0,,,,41,64
32760,program_change,5,0,9,,,,,,,,7,,,48,,
32760,note_on,0,0,9,,,,,,,,7,,,,39,30
32760,end_of_track,0,1,0,,,,,,,,,,,,,
32760,set_tempo,480,1,0,1714285,,,,,,,,,,,,
32760,note_on,0,0,1,,,,,,,,0,,,,55,30
32760,note_on,0,0,8,,,,,,,,6,,,,39,30
32760,note_on,5,0,11,,,,,,,,14,,,,39,30
32760,program_change,5,0,6,,,,,,,,4,,,48,,
32760,note_on,0,0,1,,,,,,,,0,,,,63,30
34560,note_off,4680,0,3,,,,,,,,1,,,,75,64
34560,note_off,9480,0,10,,,,,,,,11,,,,58,64
34560,note_off,4680,0,4,,,,,,,,2,,,,75,64
34560,end_of_track,0,1,4,,,,,,,,,,,,,
34560,note_off,1800,0,11,,,,,,,,14,,,,39,64
34560,note_off,1800,0,5,,,,,,,,3,,,,67,64
34560,end_of_track,0,1,5,,,,,,,,,,,,,
34560,end_of_track,0,1,2,,,,,,,,,,,,,
34560,note_off,0,0,2,,,,,,,,0,,,,39,64
34560,note_off,0,0,2,,,,,,,,0,,,,46,64
34560,note_off,4680,0,2,,,,,,,,0,,,,51,64
34560,end_of_track,0,1,1,,,,,,,,,,,,,
34560,end_of_track,0,1,10,,,,,,,,,,,,,
34560,note_off,0,0,1,,,,,,,,0,,,,55,64
34560,note_off,1800,0,1,,,,,,,,0,,,,63,64
34560,end_of_track,0,1,3,,,,,,,,,,,,,
34560,note_off,1800,0,6,,,,,,,,4,,,,63,64
34560,end_of_track,0,1,6,,,,,,,,,,,,,
34560,note_off,9480,0,7,,,,,,,,5,,,,58,64
34560,end_of_track,0,1,7,,,,,,,,,,,,,
34560,note_off,1800,0,8,,,,,,,,6,,,,39,64
34560,end_of_track,0,1,8,,,,,,,,,,,,,
34560,note_off,1800,0,9,,,,,,,,7,,,,39,64
34560,end_of_track,0,1,9,,,,,,,,,,,,,
34560,note_off,0,0,1,,,,,,,,0,,,,58,64
34560,end_of_track,0,1,11,,,,,,,,,,,,,
