tick,type,time,meta,track,tempo,numerator,denominator,clocks_per_click,notated_32nd_notes_per_beat,key,port,channel,control,value,program,note,velocity
0,track_name,0,1,0,,,,,,,,,,,,,
0,control_change,0,0,12,,,,,,,,13,91,127,,,
0,control_change,0,0,12,,,,,,,,13,10,127,,,
0,control_change,0,0,12,,,,,,,,13,7,127,,,
0,channel_prefix,0,1,12,,,,,,,,13,,,,,
0,midi_port,0,1,12,,,,,,,0,,,,,,
0,midi_port,0,1,7,,,,,,,0,,,,,,
0,control_change,0,0,7,,,,,,,,7,7,127,,,
0,control_change,0,0,7,,,,,,,,7,10,127,,,
0,control_change,0,0,7,,,,,,,,7,91,127,,,
0,program_change,0,0,7,,,,,,,,7,,,48,,
0,midi_port,0,1,8,,,,,,,0,,,,,,
0,channel_prefix,0,1,8,,,,,,,,8,,,,,
0,control_change,0,0,8,,,,,,,,8,7,127,,,
0,track_name,0,1,4,,,,,,,,,,,,,
0,control_change,0,0,8,,,,,,,,8,10,1,,,
0,program_change,0,0,8,,,,,,,,8,,,50,,
0,track_name,0,1,2,,,,,,,,,,,,,
0,midi_port,0,1,2,,,,,,,0,,,,,,
0,channel_prefix,0,1,2,,,,,,,,2,,,,,
0,control_change,0,0,2,,,,,,,,2,7,127,,,
0,control_change,0,0,2,,,,,,,,2,10,64,,,
0,control_change,0,0,2,,,,,,,,2,91,127,,,
0,program_change,0,0,2,,,,,,,,2,,,40,,
0,program_change,0,0,3,,,,,,,,3,,,48,,
0,control_change,0,0,3,,,,,,,,3,91,127,,,
0,control_change,0,0,3,,,,,,,,3,10,1,,,
0,control_change,0,0,3,,,,,,,,3,7,127,,,
0,channel_prefix,0,1,3,,,,,,,,3,,,,,
0,control_change,0,0,8,,,,,,,,8,91,127,,,
0,midi_port,0,1,4,,,,,,,0,,,,,,
0,channel_prefix,0,1,4,,,,,,,,4,,,,,
0,control_change,0,0,4,,,,,,,,4,7,127,,,
0,program_change,0,0,5,,,,,,,,5,,,48,,
0,control_change,0,0,5,,,,,,,,5,91,127,,,
0,control_change,0,0,5,,,,,,,,5,10,63,,,
0,control_change,0,0,5,,,,,,,,5,7,127,,,
0,channel_prefix,0,1,5,,,,,,,,5,,,,,
0,midi_port,0,1,5,,,,,,,0,,,,,,
0,track_name,0,1,5,,,,,,,,,,,,,
0,midi_port,0,1,13,,,,,,,0,,,,,,
0,channel_prefix,0,1,13,,,,,,,,14,,,,,
0,control_change,0,0,13,,,,,,,,14,7,127,,,
0,control_change,0,0,13,,,,,,,,14,10,6,,,
0,control_change,0,0,13,,,,,,,,14,91,127,,,
0,program_change,0,0,13,,,,,,,,14,,,32,,
0,program_change,0,0,12,,,,,,,,13,,,50,,
0,midi_port,0,1,6,,,,,,,0,,,,,,
0,program_change,0,0,10,,,,,,,,11,,,50,,
0,control_change,0,0,10,,,,,,,,11,91,127,,,
0,control_change,0,0,10,,,,,,,,11,10,63,,,
0,control_change,0,0,10,,,,,,,,11,7,127,,,
0,channel_prefix,0,1,10,,,,,,,,11,,,,,
0,midi_port,0,1,10,,,,,,,0,,,,,,
0,channel_prefix,0,1,6,,,,,,,,6,,,,,
0,control_change,0,0,6,,,,,,,,6,7,127,,,
0,control_change,0,0,6,,,,,,,,6,10,95,,,
0,control_change,0,0,6,,,,,,,,6,91,127,,,
0,program_change,0,0,6,,,,,,,,6,,,48,,
0,program_change,0,0,4,,,,,,,,4,,,48,,
0,control_change,0,0,4,,,,,,,,4,91,127,,,
0,control_change,0,0,4,,,,,,,,4,10,32,,,
0,midi_port,0,1,3,,,,,,,0,,,,,,
0,track_name,0,1,3,,,,,,,,,,,,,
0,channel_prefix,0,1,7,,,,,,,,7,,,,,
0,control_change,0,0,9,,,,,,,,10,10,32,,,
0,control_change,0,0,9,,,,,,,,10,91,127,,,
0,track_name,0,1,1,,,,,,,,,,,,,
0,midi_port,0,1,1,,,,,,,0,,,,,,
0,channel_prefix,0,1,1,,,,,,,,1,,,,,
0,control_change,0,0,1,,,,,,,,1,7,127,,,
0,control_change,0,0,1,,,,,,,,1,10,64,,,
0,control_change,0,0,9,,,,,,,,10,7,127,,,
0,control_change,0,0,1,,,,,,,,1,91,127,,,
0,program_change,0,0,11,,,,,,,,12,,,50,,
0,control_change,0,0,11,,,,,,,,12,91,127,,,
0,control_change,0,0,11,,,,,,,,12,10,95,,,
0,control_change,0,0,11,,,,,,,,12,7,127,,,
0,channel_prefix,0,1,11,,,,,,,,12,,,,,
0,midi_port,0,1,11,,,,,,,0,,,,,,
0,program_change,0,0,1,,,,,,,,1,,,48,,
0,midi_port,0,1,9,,,,,,,0,,,,,,
0,channel_prefix,0,1,9,,,,,,,,10,,,,,
0,program_change,0,0,9,,,,,,,,10,,,50,,
0,copyright,0,1,0,,,,,,,,,,,,,
0,set_tempo,0,1,0,500000,,,,,,,,,,,,
0,time_signature,0,1,0,,4,4,24,8,,,,,,,,
0,key_signature,0,1,0,,,,,,Ab,,,,,,,
120,note_on,120,0,11,,,,,,,,12,,,,53,45
120,note_on,120,0,12,,,,,,,,13,,,,41,45
120,note_on,120,0,6,,,,,,,,6,,,,53,45
120,note_on,120,0,13,,,,,,,,14,,,,41,30
120,set_tempo,120,1,0,810810,,,,,,,,,,,,
120,note_on,120,0,7,,,,,,,,7,,,,41,45
150,note_off,30,0,6,,,,,,,,6,,,,53,64
150,note_on,0,0,6,,,,,,,,6,,,,55,45
180,note_off,30,0,6,,,,,,,,6,,,,55,64
180,note_on,0,0,6,,,,,,,,6,,,,53,45
200,note_off,80,0,12,,,,,,,,13,,,,41,64
200,note_off,80,0,11,,,,,,,,12,,,,53,64
200,note_off,80,0,7,,,,,,,,7,,,,41,64
210,note_off,30,0,6,,,,,,,,6,,,,53,64
210,note_on,0,0,6,,,,,,,,6,,,,55,45
240,note_on,0,0,6,,,,,,,,6,,,,53,45
240,note_off,30,0,6,,,,,,,,6,,,,55,64
320,note_off,80,0,6,,,,,,,,6,,,,53,64
355,note_off,235,0,13,,,,,,,,14,,,,41,64
360,note_on,5,0,13,,,,,,,,14,,,,41,30
360,note_on,160,0,12,,,,,,,,13,,,,41,45
360,note_on,160,0,7,,,,,,,,7,,,,41,45
360,note_on,160,0,11,,,,,,,,12,,,,53,45
360,note_on,40,0,6,,,,,,,,6,,,,53,45
390,note_on,0,0,6,,,,,,,,6,,,,55,45
390,note_off,30,0,6,,,,,,,,6,,,,53,64
420,note_off,30,0,6,,,,,,,,6,,,,55,64
420,note_on,0,0,6,,,,,,,,6,,,,53,45
440,note_off,80,0,12,,,,,,,,13,,,,41,64
440,note_off,80,0,7,,,,,,,,7,,,,41,64
440,note_off,80,0,11,,,,,,,,12,,,,53,64
450,note_off,30,0,6,,,,,,,,6,,,,53,64
450,note_on,0,0,6,,,,,,,,6,,,,55,45
480,note_on,0,0,6,,,,,,,,6,,,,53,45
480,note_off,30,0,6,,,,,,,,6,,,,55,64
560,note_off,80,0,6,,,,,,,,6,,,,53,64
595,note_off,235,0,13,,,,,,,,14,,,,41,64
600,note_on,40,0,6,,,,,,,,6,,,,53,45
600,note_on,160,0,11,,,,,,,,12,,,,53,45
600,note_on,160,0,7,,,,,,,,7,,,,41,45
600,note_on,5,0,13,,,,,,,,14,,,,41,30
600,note_on,160,0,12,,,,,,,,13,,,,41,45
630,note_on,0,0,6,,,,,,,,6,,,,55,45
630,note_off,30,0,6,,,,,,,,6,,,,53,64
660,note_off,30,0,6,,,,,,,,6,,,,55,64
660,note_on,0,0,6,,,,,,,,6,,,,53,45
680,note_off,80,0,12,,,,,,,,13,,,,41,64
680,note_off,80,0,7,,,,,,,,7,,,,41,64
680,note_off,80,0,11,,,,,,,,12,,,,53,64
690,note_on,0,0,6,,,,,,,,6,,,,55,45
690,note_off,30,0,6,,,,,,,,6,,,,53,64
720,note_on,0,0,6,,,,,,,,6,,,,53,45
720,note_off,30,0,6,,,,,,,,6,,,,55,64
800,note_off,80,0,6,,,,,,,,6,,,,53,64
835,note_off,235,0,13,,,,,,,,14,,,,41,64
840,note_on,40,0,6,,,,,,,,6,,,,53,45
840,note_on,160,0,12,,,,,,,,13,,,,41,45
840,note_on,5,0,13,,,,,,,,14,,,,41,30
840,note_on,160,0,11,,,,,,,,12,,,,53,45
840,note_on,160,0,7,,,,,,,,7,,,,41,45
870,note_on,0,0,6,,,,,,,,6,,,,55,45
870,note_off,30,0,6,,,,,,,,6,,,,53,64
900,note_on,0,0,6,,,,,,,,6,,,,53,45
900,note_off,30,0,6,,,,,,,,6,,,,55,64
920,note_off,80,0,11,,,,,,,,12,,,,53,64
920,note_off,80,0,7,,,,,,,,7,,,,41,64
920,note_off,80,0,12,,,,,,,,13,,,,41,64
930,note_on,0,0,6,,,,,,,,6,,,,55,45
930,note_off,30,0,6,,,,,,,,6,,,,53,64
960,note_off,30,0,6,,,,,,,,6,,,,55,64
960,note_on,0,0,6,,,,,,,,6,,,,53,45
1040,note_off,80,0,6,,,,,,,,6,,,,53,64
1075,note_off,235,0,13,,,,,,,,14,,,,41,64
1080,note_on,160,0,12,,,,,,,,13,,,,41,45
1080,note_on,5,0,13,,,,,,,,14,,,,41,30
1080,note_on,160,0,11,,,,,,,,12,,,,53,45
1080,note_on,40,0,6,,,,,,,,6,,,,53,45
1080,note_on,160,0,7,,,,,,,,7,,,,41,45
1110,note_on,0,0,6,,,,,,,,6,,,,55,45
1110,note_off,30,0,6,,,,,,,,6,,,,53,64
1140,note_on,0,0,6,,,,,,,,6,,,,53,45
1140,note_off,30,0,6,,,,,,,,6,,,,55,64
1160,note_off,80,0,12,,,,,,,,13,,,,41,64
1160,note_off,80,0,11,,,,,,,,12,,,,53,64
1160,note_off,80,0,7,,,,,,,,7,,,,41,64
1170,note_off,30,0,6,,,,,,,,6,,,,53,64
1170,note_on,0,0,6,,,,,,,,6,,,,55,45
1200,note_off,30,0,6,,,,,,,,6,,,,55,64
1200,note_on,0,0,6,,,,,,,,6,,,,53,45
1280,note_off,80,0,6,,,,,,,,6,,,,53,64
1315,note_off,235,0,13,,,,,,,,14,,,,41,64
1320,note_on,5,0,13,,,,,,,,14,,,,41,30
1320,note_on,40,0,6,,,,,,,,6,,,,53,45
1320,note_on,160,0,11,,,,,,,,12,,,,53,45
1320,note_on,160,0,12,,,,,,,,13,,,,41,45
1320,note_on,160,0,7,,,,,,,,7,,,,41,45
1350,note_on,0,0,6,,,,,,,,6,,,,55,45
1350,note_off,30,0,6,,,,,,,,6,,,,53,64
1380,note_on,0,0,6,,,,,,,,6,,,,53,45
1380,note_off,30,0,6,,,,,,,,6,,,,55,64
1400,note_off,80,0,11,,,,,,,,12,,,,53,64
1400,note_off,80,0,7,,,,,,,,7,,,,41,64
1400,note_off,80,0,12,,,,,,,,13,,,,41,64
1410,note_off,30,0,6,,,,,,,,6,,,,53,64
1410,note_on,0,0,6,,,,,,,,6,,,,55,45
1440,note_off,30,0,6,,,,,,,,6,,,,55,64
1440,note_on,0,0,6,,,,,,,,6,,,,53,45
1520,note_off,80,0,6,,,,,,,,6,,,,53,64
1555,note_off,235,0,13,,,,,,,,14,,,,41,64
1560,note_on,5,0,13,,,,,,,,14,,,,41,30
1560,note_on,160,0,7,,,,,,,,7,,,,41,45
1560,note_on,40,0,6,,,,,,,,6,,,,53,45
1560,note_on,160,0,11,,,,,,,,12,,,,53,45
1560,note_on,160,0,12,,,,,,,,13,,,,41,45
1590,note_off,30,0,6,,,,,,,,6,,,,53,64
1590,note_on,0,0,6,,,,,,,,6,,,,55,45
1620,note_off,30,0,6,,,,,,,,6,,,,55,64
1620,note_on,0,0,6,,,,,,,,6,,,,53,45
1640,note_off,80,0,12,,,,,,,,13,,,,41,64
1640,note_off,80,0,11,,,,,,,,12,,,,53,64
1640,note_off,80,0,7,,,,,,,,7,,,,41,64
1650,note_off,30,0,6,,,,,,,,6,,,,53,64
1650,note_on,0,0,6,,,,,,,,6,,,,55,45
1680,note_off,30,0,6,,,,,,,,6,,,,55,64
1680,note_on,0,0,6,,,,,,,,6,,,,53,45
1760,note_off,80,0,6,,,,,,,,6,,,,53,64
1795,note_off,235,0,13,,,,,,,,14,,,,41,64
1800,note_on,160,0,11,,,,,,,,12,,,,53,45
1800,note_on,160,0,12,,,,,,,,13,,,,41,45
1800,note_on,5,0,13,,,,,,,,14,,,,41,30
1800,note_on,160,0,7,,,,,,,,7,,,,41,45
1800,note_on,40,0,6,,,,,,,,6,,,,53,45
1830,note_off,30,0,6,,,,,,,,6,,,,53,64
1830,note_on,0,0,6,,,,,,,,6,,,,55,45
1860,note_off,30,0,6,,,,,,,,6,,,,55,64
1860,note_on,0,0,6,,,,,,,,6,,,,53,45
1880,note_off,80,0,11,,,,,,,,12,,,,53,64
1880,note_off,80,0,7,,,,,,,,7,,,,41,64
1880,note_off,80,0,12,,,,,,,,13,,,,41,64
1890,note_off,30,0,6,,,,,,,,6,,,,53,64
1890,note_on,0,0,6,,,,,,,,6,,,,55,45
1920,note_off,30,0,6,,,,,,,,6,,,,55,64
1920,note_on,0,0,6,,,,,,,,6,,,,53,45
2000,note_off,80,0,6,,,,,,,,6,,,,53,64
2035,note_off,235,0,13,,,,,,,,14,,,,41,64
2040,note_on,2040,0,10,,,,,,,,11,,,,67,45
2040,note_on,2040,0,5,,,,,,,,5,,,,67,45
2040,note_on,160,0,7,,,,,,,,7,,,,41,45
2040,note_on,160,0,11,,,,,,,,12,,,,53,45
2040,note_on,160,0,12,,,,,,,,13,,,,41,45
2040,note_on,5,0,13,,,,,,,,14,,,,41,30
2040,note_on,40,0,6,,,,,,,,6,,,,53,45
2070,note_on,0,0,10,,,,,,,,11,,,,68,45
2070,note_off,30,0,10,,,,,,,,11,,,,67,64
2070,note_off,30,0,5,,,,,,,,5,,,,67,64
2070,note_on,0,0,5,,,,,,,,5,,,,68,45
2070,note_off,30,0,6,,,,,,,,6,,,,53,64
2070,note_on,0,0,6,,,,,,,,6,,,,55,45
2100,note_off,30,0,5,,,,,,,,5,,,,68,64
2100,note_on,0,0,5,,,,,,,,5,,,,67,45
2100,note_off,30,0,10,,,,,,,,11,,,,68,64
2100,note_on,0,0,6,,,,,,,,6,,,,53,45
2100,note_on,0,0,10,,,,,,,,11,,,,67,45
2100,note_off,30,0,6,,,,,,,,6,,,,55,64
2120,note_off,80,0,11,,,,,,,,12,,,,53,64
2120,note_off,80,0,7,,,,,,,,7,,,,41,64
2120,note_off,80,0,12,,,,,,,,13,,,,41,64
2130,note_off,30,0,6,,,,,,,,6,,,,53,64
2130,note_on,0,0,6,,,,,,,,6,,,,55,45
2130,note_off,30,0,10,,,,,,,,11,,,,67,64
2130,note_on,0,0,10,,,,,,,,11,,,,68,45
2130,note_on,0,0,5,,,,,,,,5,,,,68,45
2130,note_off,30,0,5,,,,,,,,5,,,,67,64
2160,note_on,0,0,6,,,,,,,,6,,,,53,45
2160,note_off,30,0,6,,,,,,,,6,,,,55,64
2160,note_off,30,0,10,,,,,,,,11,,,,68,64
2160,note_on,0,0,10,,,,,,,,11,,,,67,45
2160,note_off,30,0,5,,,,,,,,5,,,,68,64
2160,note_on,0,0,5,,,,,,,,5,,,,67,45
2240,note_off,80,0,6,,,,,,,,6,,,,53,64
2240,note_off,80,0,10,,,,,,,,11,,,,67,64
2240,note_off,80,0,5,,,,,,,,5,,,,67,64
2275,note_off,235,0,13,,,,,,,,14,,,,41,64
2280,note_on,5,0,13,,,,,,,,14,,,,41,30
2280,note_on,40,0,6,,,,,,,,6,,,,53,45
2280,note_on,40,0,5,,,,,,,,5,,,,67,45
2280,note_on,160,0,11,,,,,,,,12,,,,53,45
2280,note_on,160,0,12,,,,,,,,13,,,,41,45
2280,note_on,40,0,10,,,,,,,,11,,,,67,45
2280,note_on,160,0,7,,,,,,,,7,,,,41,45
2310,note_off,30,0,5,,,,,,,,5,,,,67,64
2310,note_on,0,0,5,,,,,,,,5,,,,68,45
2310,note_off,30,0,10,,,,,,,,11,,,,67,64
2310,note_on,0,0,10,,,,,,,,11,,,,68,45
2310,note_on,0,0,6,,,,,,,,6,,,,55,45
2310,note_off,30,0,6,,,,,,,,6,,,,53,64
2340,note_off,30,0,5,,,,,,,,5,,,,68,64
2340,note_on,0,0,5,,,,,,,,5,,,,67,45
2340,note_off,30,0,10,,,,,,,,11,,,,68,64
2340,note_on,0,0,6,,,,,,,,6,,,,53,45
2340,note_on,0,0,10,,,,,,,,11,,,,67,45
2340,note_off,30,0,6,,,,,,,,6,,,,55,64
2360,note_off,80,0,7,,,,,,,,7,,,,41,64
2360,note_off,80,0,12,,,,,,,,13,,,,41,64
2360,note_off,80,0,11,,,,,,,,12,,,,53,64
2370,note_off,30,0,5,,,,,,,,5,,,,67,64
2370,note_on,0,0,5,,,,,,,,5,,,,68,45
2370,note_on,0,0,6,,,,,,,,6,,,,55,45
2370,note_on,0,0,10,,,,,,,,11,,,,68,45
2370,note_off,30,0,6,,,,,,,,6,,,,53,64
2370,note_off,30,0,10,,,,,,,,11,,,,67,64
2400,note_on,0,0,5,,,,,,,,5,,,,67,45
2400,note_off,30,0,5,,,,,,,,5,,,,68,64
2400,note_on,0,0,6,,,,,,,,6,,,,53,45
2400,note_off,30,0,6,,,,,,,,6,,,,55,64
2400,note_on,0,0,10,,,,,,,,11,,,,67,45
2400,note_off,30,0,10,,,,,,,,11,,,,68,64
2480,note_off,80,0,5,,,,,,,,5,,,,67,64
2480,note_off,80,0,10,,,,,,,,11,,,,67,64
2480,note_off,80,0,6,,,,,,,,6,,,,53,64
2515,note_off,235,0,13,,,,,,,,14,,,,41,64
2520,note_on,40,0,5,,,,,,,,5,,,,67,45
2520,note_on,40,0,10,,,,,,,,11,,,,67,45
2520,note_on,160,0,12,,,,,,,,13,,,,41,45
2520,note_on,40,0,6,,,,,,,,6,,,,53,45
2520,note_on,160,0,7,,,,,,,,7,,,,41,45
2520,note_on,5,0,13,,,,,,,,14,,,,41,30
2520,note_on,160,0,11,,,,,,,,12,,,,53,45
2550,note_off,30,0,10,,,,,,,,11,,,,67,64
2550,note_on,0,0,10,,,,,,,,11,,,,68,45
2550,note_on,0,0,5,,,,,,,,5,,,,68,45
2550,note_on,0,0,6,,,,,,,,6,,,,55,45
2550,note_off,30,0,6,,,,,,,,6,,,,53,64
2550,note_off,30,0,5,,,,,,,,5,,,,67,64
2580,note_on,0,0,6,,,,,,,,6,,,,53,45
2580,note_on,0,0,5,,,,,,,,5,,,,67,45
2580,note_off,30,0,5,,,,,,,,5,,,,68,64
2580,note_off,30,0,10,,,,,,,,11,,,,68,64
2580,note_on,0,0,10,,,,,,,,11,,,,67,45
2580,note_off,30,0,6,,,,,,,,6,,,,55,64
2600,note_off,80,0,7,,,,,,,,7,,,,41,64
2600,note_off,80,0,11,,,,,,,,12,,,,53,64
2600,note_off,80,0,12,,,,,,,,13,,,,41,64
2610,note_on,0,0,5,,,,,,,,5,,,,68,45
2610,note_off,30,0,5,,,,,,,,5,,,,67,64
2610,note_off,30,0,6,,,,,,,,6,,,,53,64
2610,note_on,0,0,6,,,,,,,,6,,,,55,45
2610,note_on,0,0,10,,,,,,,,11,,,,68,45
2610,note_off,30,0,10,,,,,,,,11,,,,67,64
2640,note_on,0,0,10,,,,,,,,11,,,,67,45
2640,note_off,30,0,10,,,,,,,,11,,,,68,64
2640,note_off,30,0,5,,,,,,,,5,,,,68,64
2640,note_on,0,0,6,,,,,,,,6,,,,53,45
2640,note_off,30,0,6,,,,,,,,6,,,,55,64
2640,note_on,0,0,5,,,,,,,,5,,,,67,45
2720,note_off,80,0,5,,,,,,,,5,,,,67,64
2720,note_off,80,0,10,,,,,,,,11,,,,67,64
2720,note_off,80,0,6,,,,,,,,6,,,,53,64
2755,note_off,235,0,13,,,,,,,,14,,,,41,64
2760,note_on,40,0,5,,,,,,,,5,,,,67,45
2760,note_on,40,0,10,,,,,,,,11,,,,67,45
2760,note_on,160,0,11,,,,,,,,12,,,,53,45
2760,note_on,160,0,7,,,,,,,,7,,,,41,45
2760,note_on,40,0,6,,,,,,,,6,,,,53,45
2760,note_on,160,0,12,,,,,,,,13,,,,41,45
2760,note_on,5,0,13,,,,,,,,14,,,,41,30
2790,note_on,0,0,6,,,,,,,,6,,,,55,45
2790,note_off,30,0,5,,,,,,,,5,,,,67,64
2790,note_on,0,0,10,,,,,,,,11,,,,68,45
2790,note_off,30,0,10,,,,,,,,11,,,,67,64
2790,note_on,0,0,5,,,,,,,,5,,,,68,45
2790,note_off,30,0,6,,,,,,,,6,,,,53,64
2820,note_on,0,0,10,,,,,,,,11,,,,67,45
2820,note_on,0,0,6,,,,,,,,6,,,,53,45
2820,note_off,30,0,10,,,,,,,,11,,,,68,64
2820,note_off,30,0,6,,,,,,,,6,,,,55,64
2820,note_on,0,0,5,,,,,,,,5,,,,67,45
2820,note_off,30,0,5,,,,,,,,5,,,,68,64
2840,note_off,80,0,11,,,,,,,,12,,,,53,64
2840,note_off,80,0,7,,,,,,,,7,,,,41,64
2840,note_off,80,0,12,,,,,,,,13,,,,41,64
2850,note_off,30,0,5,,,,,,,,5,,,,67,64
2850,note_off,30,0,6,,,,,,,,6,,,,53,64
2850,note_on,0,0,10,,,,,,,,11,,,,68,45
2850,note_off,30,0,10,,,,,,,,11,,,,67,64
2850,note_on,0,0,5,,,,,,,,5,,,,68,45
2850,note_on,0,0,6,,,,,,,,6,,,,55,45
2880,note_off,30,0,5,,,,,,,,5,,,,68,64
2880,note_on,0,0,5,,,,,,,,5,,,,67,45
2880,note_off,30,0,10,,,,,,,,11,,,,68,64
2880,note_off,30,0,6,,,,,,,,6,,,,55,64
2880,note_on,0,0,6,,,,,,,,6,,,,53,45
2880,note_on,0,0,10,,,,,,,,11,,,,67,45
2960,note_off,80,0,10,,,,,,,,11,,,,67,64
2960,note_off,80,0,5,,,,,,,,5,,,,67,64
2960,note_off,80,0,6,,,,,,,,6,,,,53,64
2995,note_off,235,0,13,,,,,,,,14,,,,41,64
3000,note_on,40,0,10,,,,,,,,11,,,,67,45
3000,note_on,5,0,13,,,,,,,,14,,,,41,30
3000,note_on,40,0,6,,,,,,,,6,,,,53,45
3000,note_on,40,0,5,,,,,,,,5,,,,67,45
3000,note_on,160,0,12,,,,,,,,13,,,,41,45
3000,note_on,160,0,11,,,,,,,,12,,,,53,45
3000,note_on,160,0,7,,,,,,,,7,,,,41,45
3030,note_on,0,0,10,,,,,,,,11,,,,68,45
3030,note_off,30,0,10,,,,,,,,11,,,,67,64
3030,note_on,0,0,6,,,,,,,,6,,,,55,45
3030,note_off,30,0,5,,,,,,,,5,,,,67,64
3030,note_on,0,0,5,,,,,,,,5,,,,68,45
3030,note_off,30,0,6,,,,,,,,6,,,,53,64
3060,note_on,0,0,6,,,,,,,,6,,,,53,45
3060,note_on,0,0,5,,,,,,,,5,,,,67,45
3060,note_off,30,0,5,,,,,,,,5,,,,68,64
3060,note_on,0,0,10,,,,,,,,11,,,,67,45
3060,note_off,30,0,10,,,,,,,,11,,,,68,64
3060,note_off,30,0,6,,,,,,,,6,,,,55,64
3080,note_off,80,0,11,,,,,,,,12,,,,53,64
3080,note_off,80,0,12,,,,,,,,13,,,,41,64
3080,note_off,80,0,7,,,,,,,,7,,,,41,64
3090,note_on,0,0,5,,,,,,,,5,,,,68,45
3090,note_off,30,0,5,,,,,,,,5,,,,67,64
3090,note_off,30,0,10,,,,,,,,11,,,,67,64
3090,note_on,0,0,6,,,,,,,,6,,,,55,45
3090,note_off,30,0,6,,,,,,,,6,,,,53,64
3090,note_on,0,0,10,,,,,,,,11,,,,68,45
3120,note_off,30,0,10,,,,,,,,11,,,,68,64
3120,note_off,30,0,6,,,,,,,,6,,,,55,64
3120,note_off,30,0,5,,,,,,,,5,,,,68,64
3120,note_on,0,0,5,,,,,,,,5,,,,67,45
3120,note_on,0,0,10,,,,,,,,11,,,,67,45
3120,note_on,0,0,6,,,,,,,,6,,,,53,45
3200,note_off,80,0,5,,,,,,,,5,,,,67,64
3200,note_off,80,0,10,,,,,,,,11,,,,67,64
3200,note_off,80,0,6,,,,,,,,6,,,,53,64
3235,note_off,235,0,13,,,,,,,,14,,,,41,64
3240,note_on,160,0,11,,,,,,,,12,,,,53,45
3240,note_on,40,0,5,,,,,,,,5,,,,67,45
3240,note_on,160,0,12,,,,,,,,13,,,,41,45
3240,note_on,40,0,6,,,,,,,,6,,,,53,45
3240,note_on,40,0,10,,,,,,,,11,,,,67,45
3240,note_on,160,0,7,,,,,,,,7,,,,41,45
3240,note_on,5,0,13,,,,,,,,14,,,,41,30
3270,note_off,30,0,6,,,,,,,,6,,,,53,64
3270,note_off,30,0,10,,,,,,,,11,,,,67,64
3270,note_on,0,0,6,,,,,,,,6,,,,55,45
3270,note_off,30,0,5,,,,,,,,5,,,,67,64
3270,note_on,0,0,5,,,,,,,,5,,,,68,45
3270,note_on,0,0,10,,,,,,,,11,,,,68,45
3300,note_off,30,0,10,,,,,,,,11,,,,68,64
3300,note_on,0,0,10,,,,,,,,11,,,,67,45
3300,note_off,30,0,5,,,,,,,,5,,,,68,64
3300,note_on,0,0,5,,,,,,,,5,,,,67,45
3300,note_on,0,0,6,,,,,,,,6,,,,53,45
3300,note_off,30,0,6,,,,,,,,6,,,,55,64
3320,note_off,80,0,11,,,,,,,,12,,,,53,64
3320,note_off,80,0,12,,,,,,,,13,,,,41,64
3320,note_off,80,0,7,,,,,,,,7,,,,41,64
3330,note_off,30,0,6,,,,,,,,6,,,,53,64
3330,note_on,0,0,5,,,,,,,,5,,,,68,45
3330,note_off,30,0,10,,,,,,,,11,,,,67,64
3330,note_on,0,0,10,,,,,,,,11,,,,68,45
3330,note_on,0,0,6,,,,,,,,6,,,,55,45
3330,note_off,30,0,5,,,,,,,,5,,,,67,64
3360,note_on,0,0,10,,,,,,,,11,,,,67,45
3360,note_off,30,0,10,,,,,,,,11,,,,68,64
3360,note_off,30,0,6,,,,,,,,6,,,,55,64
3360,note_on,0,0,5,,,,,,,,5,,,,67,45
3360,note_on,0,0,6,,,,,,,,6,,,,53,45
3360,note_off,30,0,5,,,,,,,,5,,,,68,64
3440,note_off,80,0,10,,,,,,,,11,,,,67,64
3440,note_off,80,0,6,,,,,,,,6,,,,53,64
3440,note_off,80,0,5,,,,,,,,5,,,,67,64
3475,note_off,235,0,13,,,,,,,,14,,,,41,64
3480,note_on,40,0,6,,,,,,,,6,,,,53,45
3480,note_on,160,0,12,,,,,,,,13,,,,41,45
3480,note_on,40,0,10,,,,,,,,11,,,,67,45
3480,note_on,160,0,7,,,,,,,,7,,,,41,45
3480,note_on,5,0,13,,,,,,,,14,,,,41,30
3480,note_on,40,0,5,,,,,,,,5,,,,67,45
3480,note_on,160,0,11,,,,,,,,12,,,,53,45
3510,note_on,0,0,10,,,,,,,,11,,,,68,45
3510,note_off,30,0,10,,,,,,,,11,,,,67,64
3510,note_on,0,0,5,,,,,,,,5,,,,68,45
3510,note_off,30,0,6,,,,,,,,6,,,,53,64
3510,note_off,30,0,5,,,,,,,,5,,,,67,64
3510,note_on,0,0,6,,,,,,,,6,,,,55,45
3540,note_on,0,0,6,,,,,,,,6,,,,53,45
3540,note_on,0,0,10,,,,,,,,11,,,,67,45
3540,note_on,0,0,5,,,,,,,,5,,,,67,45
3540,note_off,30,0,5,,,,,,,,5,,,,68,64
3540,note_off,30,0,6,,,,,,,,6,,,,55,64
3540,note_off,30,0,10,,,,,,,,11,,,,68,64
3560,note_off,80,0,11,,,,,,,,12,,,,53,64
3560,note_off,80,0,7,,,,,,,,7,,,,41,64
3560,note_off,80,0,12,,,,,,,,13,,,,41,64
3570,note_on,0,0,6,,,,,,,,6,,,,55,45
3570,note_off,30,0,6,,,,,,,,6,,,,53,64
3570,note_off,30,0,5,,,,,,,,5,,,,67,64
3570,note_on,0,0,5,,,,,,,,5,,,,68,45
3570,note_off,30,0,10,,,,,,,,11,,,,67,64
3570,note_on,0,0,10,,,,,,,,11,,,,68,45
3600,note_on,0,0,10,,,,,,,,11,,,,67,45
3600,note_off,30,0,5,,,,,,,,5,,,,68,64
3600,note_on,0,0,5,,,,,,,,5,,,,67,45
3600,note_off,30,0,6,,,,,,,,6,,,,55,64
3600,note_off,30,0,10,,,,,,,,11,,,,68,64
3600,note_on,0,0,6,,,,,,,,6,,,,53,45
3680,note_off,80,0,5,,,,,,,,5,,,,67,64
3680,note_off,80,0,6,,,,,,,,6,,,,53,64
3680,note_off,80,0,10,,,,,,,,11,,,,67,64
3715,note_off,235,0,13,,,,,,,,14,,,,41,64
3720,note_on,40,0,6,,,,,,,,6,,,,53,45
3720,note_on,160,0,11,,,,,,,,12,,,,53,45
3720,note_on,160,0,12,,,,,,,,13,,,,41,45
3720,note_on,160,0,7,,,,,,,,7,,,,41,45
3720,note_on,40,0,5,,,,,,,,5,,,,67,45
3720,note_on,5,0,13,,,,,,,,14,,,,41,30
3720,note_on,40,0,10,,,,,,,,11,,,,67,45
3750,note_on,0,0,10,,,,,,,,11,,,,68,45
3750,note_off,30,0,10,,,,,,,,11,,,,67,64
3750,note_on,0,0,5,,,,,,,,5,,,,68,45
3750,note_on,0,0,6,,,,,,,,6,,,,55,45
3750,note_off,30,0,5,,,,,,,,5,,,,67,64
3750,note_off,30,0,6,,,,,,,,6,,,,53,64
3780,note_on,0,0,6,,,,,,,,6,,,,53,45
3780,note_off,30,0,6,,,,,,,,6,,,,55,64
3780,note_on,0,0,5,,,,,,,,5,,,,67,45
3780,note_off,30,0,10,,,,,,,,11,,,,68,64
3780,note_on,0,0,10,,,,,,,,11,,,,67,45
3780,note_off,30,0,5,,,,,,,,5,,,,68,64
3800,note_off,80,0,11,,,,,,,,12,,,,53,64
3800,note_off,80,0,12,,,,,,,,13,,,,41,64
3800,note_off,80,0,7,,,,,,,,7,,,,41,64
3810,note_off,30,0,10,,,,,,,,11,,,,67,64
3810,note_on,0,0,10,,,,,,,,11,,,,68,45
3810,note_on,0,0,6,,,,,,,,6,,,,55,45
3810,note_off,30,0,6,,,,,,,,6,,,,53,64
3810,note_off,30,0,5,,,,,,,,5,,,,67,64
3810,note_on,0,0,5,,,,,,,,5,,,,68,45
3840,note_off,30,0,6,,,,,,,,6,,,,55,64
3840,note_on,0,0,5,,,,,,,,5,,,,67,45
3840,note_off,30,0,5,,,,,,,,5,,,,68,64
3840,note_on,0,0,6,,,,,,,,6,,,,53,45
3840,note_on,0,0,10,,,,,,,,11,,,,67,45
3840,note_off,30,0,10,,,,,,,,11,,,,68,64
3920,note_off,80,0,5,,,,,,,,5,,,,67,64
3920,note_off,80,0,10,,,,,,,,11,,,,67,64
3920,note_off,80,0,6,,,,,,,,6,,,,53,64
3955,note_off,235,0,13,,,,,,,,14,,,,41,64
3960,note_on,3960,0,4,,,,,,,,4,,,,73,45
3960,note_on,160,0,7,,,,,,,,7,,,,41,45
3960,note_on,160,0,11,,,,,,,,12,,,,53,45
3960,note_on,160,0,12,,,,,,,,13,,,,41,45
3960,note_on,3960,0,9,,,,,,,,10,,,,73,45
3960,note_on,40,0,6,,,,,,,,6,,,,53,45
3960,note_on,40,0,5,,,,,,,,5,,,,67,45
3960,note_on,5,0,13,,,,,,,,14,,,,41,30
3960,note_on,40,0,10,,,,,,,,11,,,,67,45
3990,note_off,30,0,6,,,,,,,,6,,,,53,64
3990,note_on,0,0,9,,,,,,,,10,,,,75,45
3990,note_off,30,0,9,,,,,,,,10,,,,73,64
3990,note_on,0,0,5,,,,,,,,5,,,,68,45
3990,note_off,30,0,5,,,,,,,,5,,,,67,64
3990,note_off,30,0,4,,,,,,,,4,,,,73,64
3990,note_off,30,0,10,,,,,,,,11,,,,67,64
3990,note_on,0,0,4,,,,,,,,4,,,,75,45
3990,note_on,0,0,10,,,,,,,,11,,,,68,45
3990,note_on,0,0,6,,,,,,,,6,,,,55,45
4020,note_off,30,0,10,,,,,,,,11,,,,68,64
4020,note_on,0,0,10,,,,,,,,11,,,,67,45
4020,note_off,30,0,4,,,,,,,,4,,,,75,64
4020,note_on,0,0,4,,,,,,,,4,,,,73,45
4020,note_on,0,0,9,,,,,,,,10,,,,73,45
4020,note_off,30,0,9,,,,,,,,10,,,,75,64
4020,note_on,0,0,6,,,,,,,,6,,,,53,45
4020,note_off,30,0,5,,,,,,,,5,,,,68,64
4020,note_on,0,0,5,,,,,,,,5,,,,67,45
4020,note_off,30,0,6,,,,,,,,6,,,,55,64
4040,note_off,80,0,7,,,,,,,,7,,,,41,64
4040,note_off,80,0,12,,,,,,,,13,,,,41,64
4040,note_off,80,0,11,,,,,,,,12,,,,53,64
4050,note_off,30,0,10,,,,,,,,11,,,,67,64
4050,note_on,0,0,9,,,,,,,,10,,,,75,45
4050,note_off,30,0,5,,,,,,,,5,,,,67,64
4050,note_on,0,0,10,,,,,,,,11,,,,68,45
4050,note_on,0,0,5,,,,,,,,5,,,,68,45
4050,note_off,30,0,9,,,,,,,,10,,,,73,64
4050,note_off,30,0,6,,,,,,,,6,,,,53,64
4050,note_on,0,0,6,,,,,,,,6,,,,55,45
4050,note_on,0,0,4,,,,,,,,4,,,,75,45
4050,note_off,30,0,4,,,,,,,,4,,,,73,64
4080,note_on,0,0,5,,,,,,,,5,,,,67,45
4080,note_off,30,0,6,,,,,,,,6,,,,55,64
4080,note_on,0,0,6,,,,,,,,6,,,,53,45
4080,note_off,30,0,10,,,,,,,,11,,,,68,64
4080,note_off,30,0,5,,,,,,,,5,,,,68,64
4080,note_on,0,0,10,,,,,,,,11,,,,67,45
4080,note_on,0,0,9,,,,,,,,10,,,,73,45
4080,note_off,30,0,9,,,,,,,,10,,,,75,64
4080,note_off,30,0,4,,,,,,,,4,,,,75,64
4080,note_on,0,0,4,,,,,,,,4,,,,73,45
4160,note_off,80,0,10,,,,,,,,11,,,,67,64
4160,note_off,80,0,5,,,,,,,,5,,,,67,64
4160,note_off,80,0,6,,,,,,,,6,,,,53,64
4160,note_off,80,0,4,,,,,,,,4,,,,73,64
4160,note_off,80,0,9,,,,,,,,10,,,,73,64
4195,note_off,235,0,13,,,,,,,,14,,,,41,64
4200,note_on,40,0,10,,,,,,,,11,,,,67,45
4200,note_on,40,0,5,,,,,,,,5,,,,67,45
4200,note_on,160,0,7,,,,,,,,7,,,,41,45
4200,note_on,40,0,4,,,,,,,,4,,,,73,45
4200,note_on,160,0,12,,,,,,,,13,,,,41,45
4200,note_on,160,0,11,,,,,,,,12,,,,53,45
4200,note_on,40,0,9,,,,,,,,10,,,,73,45
4200,note_on,40,0,6,,,,,,,,6,,,,53,45
4200,note_on,5,0,13,,,,,,,,14,,,,41,30
4230,note_off,30,0,6,,,,,,,,6,,,,53,64
4230,note_on,0,0,5,,,,,,,,5,,,,68,45
4230,note_off,30,0,5,,,,,,,,5,,,,67,64
4230,note_on,0,0,10,,,,,,,,11,,,,68,45
4230,note_off,30,0,10,,,,,,,,11,,,,67,64
4230,note_on,0,0,6,,,,,,,,6,,,,55,45
4230,note_on,0,0,9,,,,,,,,10,,,,75,45
4230,note_off,30,0,9,,,,,,,,10,,,,73,64
4230,note_on,0,0,4,,,,,,,,4,,,,75,45
4230,note_off,30,0,4,,,,,,,,4,,,,73,64
4260,note_on,0,0,6,,,,,,,,6,,,,53,45
4260,note_off,30,0,10,,,,,,,,11,,,,68,64
4260,note_on,0,0,10,,,,,,,,11,,,,67,45
4260,note_on,0,0,5,,,,,,,,5,,,,67,45
4260,note_on,0,0,9,,,,,,,,10,,,,73,45
4260,note_off,30,0,9,,,,,,,,10,,,,75,64
4260,note_off,30,0,6,,,,,,,,6,,,,55,64
4260,note_off,30,0,4,,,,,,,,4,,,,75,64
4260,note_on,0,0,4,,,,,,,,4,,,,73,45
4260,note_off,30,0,5,,,,,,,,5,,,,68,64
4280,note_off,80,0,12,,,,,,,,13,,,,41,64
4280,note_off,80,0,7,,,,,,,,7,,,,41,64
4280,note_off,80,0,11,,,,,,,,12,,,,53,64
4290,note_on,0,0,5,,,,,,,,5,,,,68,45
4290,note_off,30,0,6,,,,,,,,6,,,,53,64
4290,note_on,0,0,6,,,,,,,,6,,,,55,45
4290,note_off,30,0,5,,,,,,,,5,,,,67,64
4290,note_off,30,0,9,,,,,,,,10,,,,73,64
4290,note_on,0,0,4,,,,,,,,4,,,,75,45
4290,note_off,30,0,10,,,,,,,,11,,,,67,64
4290,note_on,0,0,10,,,,,,,,11,,,,68,45
4290,note_off,30,0,4,,,,,,,,4,,,,73,64
4290,note_on,0,0,9,,,,,,,,10,,,,75,45
4320,note_on,0,0,6,,,,,,,,6,,,,53,45
4320,note_off,30,0,6,,,,,,,,6,,,,55,64
4320,note_off,30,0,10,,,,,,,,11,,,,68,64
4320,note_on,0,0,10,,,,,,,,11,,,,67,45
4320,note_off,30,0,4,,,,,,,,4,,,,75,64
4320,note_off,30,0,9,,,,,,,,10,,,,75,64
4320,note_off,30,0,5,,,,,,,,5,,,,68,64
4320,note_on,0,0,5,,,,,,,,5,,,,67,45
4320,note_on,0,0,9,,,,,,,,10,,,,73,45
4320,note_on,0,0,4,,,,,,,,4,,,,73,45
4400,note_off,80,0,9,,,,,,,,10,,,,73,64
4400,note_off,80,0,10,,,,,,,,11,,,,67,64
4400,note_off,80,0,5,,,,,,,,5,,,,67,64
4400,note_off,80,0,4,,,,,,,,4,,,,73,64
4400,note_off,80,0,6,,,,,,,,6,,,,53,64
4435,note_off,235,0,13,,,,,,,,14,,,,41,64
4440,note_on,40,0,4,,,,,,,,4,,,,73,45
4440,note_on,160,0,12,,,,,,,,13,,,,41,45
4440,note_on,40,0,5,,,,,,,,5,,,,67,45
4440,note_on,40,0,9,,,,,,,,10,,,,73,45
4440,note_on,160,0,7,,,,,,,,7,,,,41,45
4440,note_on,40,0,10,,,,,,,,11,,,,67,45
4440,note_on,5,0,13,,,,,,,,14,,,,41,30
4440,note_on,160,0,11,,,,,,,,12,,,,53,45
4440,note_on,40,0,6,,,,,,,,6,,,,53,45
4470,note_off,30,0,6,,,,,,,,6,,,,53,64
4470,note_on,0,0,5,,,,,,,,5,,,,68,45
4470,note_off,30,0,5,,,,,,,,5,,,,67,64
4470,note_on,0,0,6,,,,,,,,6,,,,55,45
4470,note_on,0,0,10,,,,,,,,11,,,,68,45
4470,note_on,0,0,9,,,,,,,,10,,,,75,45
4470,note_off,30,0,4,,,,,,,,4,,,,73,64
4470,note_on,0,0,4,,,,,,,,4,,,,75,45
4470,note_off,30,0,9,,,,,,,,10,,,,73,64
4470,note_off,30,0,10,,,,,,,,11,,,,67,64
4500,note_on,0,0,9,,,,,,,,10,,,,73,45
4500,note_off,30,0,6,,,,,,,,6,,,,55,64
4500,note_off,30,0,5,,,,,,,,5,,,,68,64
4500,note_on,0,0,10,,,,,,,,11,,,,67,45
4500,note_on,0,0,6,,,,,,,,6,,,,53,45
4500,note_on,0,0,5,,,,,,,,5,,,,67,45
4500,note_on,0,0,4,,,,,,,,4,,,,73,45
4500,note_off,30,0,4,,,,,,,,4,,,,75,64
4500,note_off,30,0,9,,,,,,,,10,,,,75,64
4500,note_off,30,0,10,,,,,,,,11,,,,68,64
4520,note_off,80,0,11,,,,,,,,12,,,,53,64
4520,note_off,80,0,7,,,,,,,,7,,,,41,64
4520,note_off,80,0,12,,,,,,,,13,,,,41,64
4530,note_off,30,0,10,,,,,,,,11,,,,67,64
4530,note_on,0,0,10,,,,,,,,11,,,,68,45
4530,note_on,0,0,9,,,,,,,,10,,,,75,45
4530,note_on,0,0,6,,,,,,,,6,,,,55,45
4530,note_off,30,0,6,,,,,,,,6,,,,53,64
4530,note_on,0,0,5,,,,,,,,5,,,,68,45
4530,note_off,30,0,5,,,,,,,,5,,,,67,64
4530,note_on,0,0,4,,,,,,,,4,,,,75,45
4530,note_off,30,0,9,,,,,,,,10,,,,73,64
4530,note_off,30,0,4,,,,,,,,4,,,,73,64
4560,note_off,30,0,9,,,,,,,,10,,,,75,64
4560,note_on,0,0,9,,,,,,,,10,,,,73,45
4560,note_on,0,0,5,,,,,,,,5,,,,67,45
4560,note_off,30,0,5,,,,,,,,5,,,,68,64
4560,note_on,0,0,4,,,,,,,,4,,,,73,45
4560,note_on,0,0,6,,,,,,,,6,,,,53,45
4560,note_off,30,0,4,,,,,,,,4,,,,75,64
4560,note_off,30,0,6,,,,,,,,6,,,,55,64
4560,note_off,30,0,10,,,,,,,,11,,,,68,64
4560,note_on,0,0,10,,,,,,,,11,,,,67,45
4640,note_off,80,0,9,,,,,,,,10,,,,73,64
4640,note_off,80,0,6,,,,,,,,6,,,,53,64
4640,note_off,80,0,4,,,,,,,,4,,,,73,64
4640,note_off,80,0,5,,,,,,,,5,,,,67,64
4640,note_off,80,0,10,,,,,,,,11,,,,67,64
4675,note_off,235,0,13,,,,,,,,14,,,,41,64
4680,note_on,160,0,12,,,,,,,,13,,,,41,45
4680,note_on,40,0,6,,,,,,,,6,,,,53,45
4680,note_on,160,0,7,,,,,,,,7,,,,41,45
4680,note_on,40,0,9,,,,,,,,10,,,,73,45
4680,note_on,40,0,10,,,,,,,,11,,,,67,45
4680,note_on,40,0,5,,,,,,,,5,,,,67,45
4680,note_on,5,0,13,,,,,,,,14,,,,41,30
4680,note_on,40,0,4,,,,,,,,4,,,,73,45
4680,note_on,160,0,11,,,,,,,,12,,,,53,45
4710,note_off,30,0,6,,,,,,,,6,,,,53,64
4710,note_on,0,0,10,,,,,,,,11,,,,68,45
4710,note_off,30,0,10,,,,,,,,11,,,,67,64
4710,note_on,0,0,5,,,,,,,,5,,,,68,45
4710,note_off,30,0,5,,,,,,,,5,,,,67,64
4710,note_off,30,0,4,,,,,,,,4,,,,73,64
4710,note_on,0,0,6,,,,,,,,6,,,,55,45
4710,note_off,30,0,9,,,,,,,,10,,,,73,64
4710,note_on,0,0,9,,,,,,,,10,,,,75,45
4710,note_on,0,0,4,,,,,,,,4,,,,75,45
4740,note_on,0,0,9,,,,,,,,10,,,,73,45
4740,note_off,30,0,9,,,,,,,,10,,,,75,64
4740,note_off,30,0,6,,,,,,,,6,,,,55,64
4740,note_off,30,0,5,,,,,,,,5,,,,68,64
4740,note_on,0,0,10,,,,,,,,11,,,,67,45
4740,note_off,30,0,10,,,,,,,,11,,,,68,64
4740,note_on,0,0,4,,,,,,,,4,,,,73,45
4740,note_off,30,0,4,,,,,,,,4,,,,75,64
4740,note_on,0,0,5,,,,,,,,5,,,,67,45
4740,note_on,0,0,6,,,,,,,,6,,,,53,45
4760,note_off,80,0,12,,,,,,,,13,,,,41,64
4760,note_off,80,0,7,,,,,,,,7,,,,41,64
4760,note_off,80,0,11,,,,,,,,12,,,,53,64
4770,note_off,30,0,6,,,,,,,,6,,,,53,64
4770,note_on,0,0,6,,,,,,,,6,,,,55,45
4770,note_off,30,0,10,,,,,,,,11,,,,67,64
4770,note_on,0,0,4,,,,,,,,4,,,,75,45
4770,note_off,30,0,4,,,,,,,,4,,,,73,64
4770,note_off,30,0,9,,,,,,,,10,,,,73,64
4770,note_on,0,0,9,,,,,,,,10,,,,75,45
4770,note_on,0,0,10,,,,,,,,11,,,,68,45
4770,note_on,0,0,5,,,,,,,,5,,,,68,45
4770,note_off,30,0,5,,,,,,,,5,,,,67,64
4800,note_off,30,0,6,,,,,,,,6,,,,55,64
4800,note_on,0,0,4,,,,,,,,4,,,,73,45
4800,note_off,30,0,4,,,,,,,,4,,,,75,64
4800,note_on,0,0,6,,,,,,,,6,,,,53,45
4800,note_off,30,0,9,,,,,,,,10,,,,75,64
4800,note_on,0,0,9,,,,,,,,10,,,,73,45
4800,note_on,0,0,5,,,,,,,,5,,,,67,45
4800,note_off,30,0,5,,,,,,,,5,,,,68,64
4800,note_on,0,0,10,,,,,,,,11,,,,67,45
4800,note_off,30,0,10,,,,,,,,11,,,,68,64
4880,note_off,80,0,4,,,,,,,,4,,,,73,64
4880,note_off,80,0,6,,,,,,,,6,,,,53,64
4880,note_off,80,0,5,,,,,,,,5,,,,67,64
4880,note_off,80,0,10,,,,,,,,11,,,,67,64
4880,note_off,80,0,9,,,,,,,,10,,,,73,64
4915,note_off,235,0,13,,,,,,,,14,,,,41,64
4920,note_on,40,0,9,,,,,,,,10,,,,73,45
4920,note_on,40,0,6,,,,,,,,6,,,,53,45
4920,note_on,5,0,13,,,,,,,,14,,,,41,30
4920,note_on,160,0,12,,,,,,,,13,,,,41,45
4920,note_on,160,0,11,,,,,,,,12,,,,53,45
4920,note_on,160,0,7,,,,,,,,7,,,,41,45
4920,note_on,40,0,4,,,,,,,,4,,,,73,45
4920,note_on,40,0,5,,,,,,,,5,,,,67,45
4920,note_on,40,0,10,,,,,,,,11,,,,67,45
4950,note_on,0,0,4,,,,,,,,4,,,,75,45
4950,note_on,0,0,9,,,,,,,,10,,,,75,45
4950,note_off,30,0,9,,,,,,,,10,,,,73,64
4950,note_on,0,0,5,,,,,,,,5,,,,68,45
4950,note_off,30,0,5,,,,,,,,5,,,,67,64
4950,note_on,0,0,6,,,,,,,,6,,,,55,45
4950,note_on,0,0,10,,,,,,,,11,,,,68,45
4950,note_off,30,0,4,,,,,,,,4,,,,73,64
4950,note_off,30,0,6,,,,,,,,6,,,,53,64
4950,note_off,30,0,10,,,,,,,,11,,,,67,64
4980,note_off,30,0,6,,,,,,,,6,,,,55,64
4980,note_on,0,0,6,,,,,,,,6,,,,53,45
4980,note_off,30,0,9,,,,,,,,10,,,,75,64
4980,note_on,0,0,9,,,,,,,,10,,,,73,45
4980,note_on,0,0,4,,,,,,,,4,,,,73,45
4980,note_on,0,0,10,,,,,,,,11,,,,67,45
4980,note_off,30,0,10,,,,,,,,11,,,,68,64
4980,note_off,30,0,5,,,,,,,,5,,,,68,64
4980,note_on,0,0,5,,,,,,,,5,,,,67,45
4980,note_off,30,0,4,,,,,,,,4,,,,75,64
5000,note_off,80,0,12,,,,,,,,13,,,,41,64
5000,note_off,80,0,11,,,,,,,,12,,,,53,64
5000,note_off,80,0,7,,,,,,,,7,,,,41,64
5010,note_on,0,0,9,,,,,,,,10,,,,75,45
5010,note_off,30,0,9,,,,,,,,10,,,,73,64
5010,note_on,0,0,10,,,,,,,,11,,,,68,45
5010,note_off,30,0,10,,,,,,,,11,,,,67,64
5010,note_on,0,0,5,,,,,,,,5,,,,68,45
5010,note_off,30,0,5,,,,,,,,5,,,,67,64
5010,note_on,0,0,6,,,,,,,,6,,,,55,45
5010,note_off,30,0,6,,,,,,,,6,,,,53,64
5010,note_off,30,0,4,,,,,,,,4,,,,73,64
5010,note_on,0,0,4,,,,,,,,4,,,,75,45
5040,note_off,30,0,6,,,,,,,,6,,,,55,64
5040,note_on,0,0,9,,,,,,,,10,,,,73,45
5040,note_off,30,0,9,,,,,,,,10,,,,75,64
5040,note_on,0,0,10,,,,,,,,11,,,,67,45
5040,note_off,30,0,10,,,,,,,,11,,,,68,64
5040,note_on,0,0,4,,,,,,,,4,,,,73,45
5040,note_off,30,0,4,,,,,,,,4,,,,75,64
5040,note_on,0,0,5,,,,,,,,5,,,,67,45
5040,note_off,30,0,5,,,,,,,,5,,,,68,64
5040,note_on,0,0,6,,,,,,,,6,,,,53,45
5120,note_off,80,0,10,,,,,,,,11,,,,67,64
5120,note_off,80,0,4,,,,,,,,4,,,,73,64
5120,note_off,80,0,5,,,,,,,,5,,,,67,64
5120,note_off,80,0,9,,,,,,,,10,,,,73,64
5120,note_off,80,0,6,,,,,,,,6,,,,53,64
5155,note_off,235,0,13,,,,,,,,14,,,,41,64
5160,note_on,40,0,5,,,,,,,,5,,,,67,45
5160,note_on,40,0,4,,,,,,,,4,,,,73,45
5160,note_on,160,0,11,,,,,,,,12,,,,53,45
5160,note_on,40,0,6,,,,,,,,6,,,,53,45
5160,note_on,160,0,7,,,,,,,,7,,,,41,45
5160,note_on,40,0,9,,,,,,,,10,,,,73,45
5160,note_on,5,0,13,,,,,,,,14,,,,41,30
5160,note_on,160,0,12,,,,,,,,13,,,,41,45
5160,note_on,40,0,10,,,,,,,,11,,,,67,45
5190,note_off,30,0,5,,,,,,,,5,,,,67,64
5190,note_on,0,0,6,,,,,,,,6,,,,55,45
5190,note_off,30,0,6,,,,,,,,6,,,,53,64
5190,note_off,30,0,9,,,,,,,,10,,,,73,64
5190,note_on,0,0,9,,,,,,,,10,,,,75,45
5190,note_off,30,0,10,,,,,,,,11,,,,67,64
5190,note_on,0,0,10,,,,,,,,11,,,,68,45
5190,note_on,0,0,5,,,,,,,,5,,,,68,45
5190,note_off,30,0,4,,,,,,,,4,,,,73,64
5190,note_on,0,0,4,,,,,,,,4,,,,75,45
5220,note_on,0,0,6,,,,,,,,6,,,,53,45
5220,note_off,30,0,6,,,,,,,,6,,,,55,64
5220,note_off,30,0,5,,,,,,,,5,,,,68,64
5220,note_off,30,0,4,,,,,,,,4,,,,75,64
5220,note_on,0,0,4,,,,,,,,4,,,,73,45
5220,note_off,30,0,9,,,,,,,,10,,,,75,64
5220,note_on,0,0,9,,,,,,,,10,,,,73,45
5220,note_on,0,0,10,,,,,,,,11,,,,67,45
5220,note_off,30,0,10,,,,,,,,11,,,,68,64
5220,note_on,0,0,5,,,,,,,,5,,,,67,45
5240,note_off,80,0,7,,,,,,,,7,,,,41,64
5240,note_off,80,0,12,,,,,,,,13,,,,41,64
5240,note_off,80,0,11,,,,,,,,12,,,,53,64
5250,note_off,30,0,5,,,,,,,,5,,,,67,64
5250,note_off,30,0,6,,,,,,,,6,,,,53,64
5250,note_on,0,0,5,,,,,,,,5,,,,68,45
5250,note_off,30,0,9,,,,,,,,10,,,,73,64
5250,note_off,30,0,4,,,,,,,,4,,,,73,64
5250,note_off,30,0,10,,,,,,,,11,,,,67,64
5250,note_on,0,0,10,,,,,,,,11,,,,68,45
5250,note_on,0,0,6,,,,,,,,6,,,,55,45
5250,note_on,0,0,4,,,,,,,,4,,,,75,45
5250,note_on,0,0,9,,,,,,,,10,,,,75,45
5280,note_off,30,0,5,,,,,,,,5,,,,68,64
5280,note_off,30,0,4,,,,,,,,4,,,,75,64
5280,note_on,0,0,9,,,,,,,,10,,,,73,45
5280,note_off,30,0,6,,,,,,,,6,,,,55,64
5280,note_on,0,0,4,,,,,,,,4,,,,73,45
5280,note_on,0,0,10,,,,,,,,11,,,,67,45
5280,note_off,30,0,10,,,,,,,,11,,,,68,64
5280,note_on,0,0,6,,,,,,,,6,,,,53,45
5280,note_off,30,0,9,,,,,,,,10,,,,75,64
5280,note_on,0,0,5,,,,,,,,5,,,,67,45
5360,note_off,80,0,10,,,,,,,,11,,,,67,64
5360,note_off,80,0,4,,,,,,,,4,,,,73,64
5360,note_off,80,0,9,,,,,,,,10,,,,73,64
5360,note_off,80,0,6,,,,,,,,6,,,,53,64
5360,note_off,80,0,5,,,,,,,,5,,,,67,64
5395,note_off,235,0,13,,,,,,,,14,,,,41,64
5400,note_on,160,0,12,,,,,,,,13,,,,41,45
5400,note_on,160,0,7,,,,,,,,7,,,,41,45
5400,note_on,40,0,6,,,,,,,,6,,,,53,45
5400,note_on,40,0,10,,,,,,,,11,,,,67,45
5400,note_on,40,0,9,,,,,,,,10,,,,73,45
5400,note_on,40,0,5,,,,,,,,5,,,,67,45
5400,note_on,40,0,4,,,,,,,,4,,,,73,45
5400,note_on,160,0,11,,,,,,,,12,,,,53,45
5400,note_on,5,0,13,,,,,,,,14,,,,41,30
5430,note_off,30,0,9,,,,,,,,10,,,,73,64
5430,note_off,30,0,6,,,,,,,,6,,,,53,64
5430,note_on,0,0,6,,,,,,,,6,,,,55,45
5430,note_off,30,0,4,,,,,,,,4,,,,73,64
5430,note_on,0,0,4,,,,,,,,4,,,,75,45
5430,note_off,30,0,10,,,,,,,,11,,,,67,64
5430,note_on,0,0,5,,,,,,,,5,,,,68,45
5430,note_off,30,0,5,,,,,,,,5,,,,67,64
5430,note_on,0,0,10,,,,,,,,11,,,,68,45
5430,note_on,0,0,9,,,,,,,,10,,,,75,45
5460,note_on,0,0,9,,,,,,,,10,,,,73,45
5460,note_on,0,0,6,,,,,,,,6,,,,53,45
5460,note_on,0,0,10,,,,,,,,11,,,,67,45
5460,note_off,30,0,9,,,,,,,,10,,,,75,64
5460,note_off,30,0,6,,,,,,,,6,,,,55,64
5460,note_on,0,0,4,,,,,,,,4,,,,73,45
5460,note_off,30,0,5,,,,,,,,5,,,,68,64
5460,note_on,0,0,5,,,,,,,,5,,,,67,45
5460,note_off,30,0,4,,,,,,,,4,,,,75,64
5460,note_off,30,0,10,,,,,,,,11,,,,68,64
5480,note_off,80,0,11,,,,,,,,12,,,,53,64
5480,note_off,80,0,12,,,,,,,,13,,,,41,64
5480,note_off,80,0,7,,,,,,,,7,,,,41,64
5490,note_off,30,0,10,,,,,,,,11,,,,67,64
5490,note_on,0,0,10,,,,,,,,11,,,,68,45
5490,note_off,30,0,4,,,,,,,,4,,,,73,64
5490,note_on,0,0,5,,,,,,,,5,,,,68,45
5490,note_on,0,0,4,,,,,,,,4,,,,75,45
5490,note_off,30,0,5,,,,,,,,5,,,,67,64
5490,note_on,0,0,6,,,,,,,,6,,,,55,45
5490,note_off,30,0,6,,,,,,,,6,,,,53,64
5490,note_on,0,0,9,,,,,,,,10,,,,75,45
5490,note_off,30,0,9,,,,,,,,10,,,,73,64
5520,note_off,30,0,9,,,,,,,,10,,,,75,64
5520,note_off,30,0,4,,,,,,,,4,,,,75,64
5520,note_on,0,0,9,,,,,,,,10,,,,73,45
5520,note_on,0,0,6,,,,,,,,6,,,,53,45
5520,note_off,30,0,5,,,,,,,,5,,,,68,64
5520,note_on,0,0,5,,,,,,,,5,,,,67,45
5520,note_off,30,0,6,,,,,,,,6,,,,55,64
5520,note_on,0,0,10,,,,,,,,11,,,,67,45
5520,note_off,30,0,10,,,,,,,,11,,,,68,64
5520,note_on,0,0,4,,,,,,,,4,,,,73,45
5600,note_off,80,0,4,,,,,,,,4,,,,73,64
5600,note_off,80,0,6,,,,,,,,6,,,,53,64
5600,note_off,80,0,5,,,,,,,,5,,,,67,64
5600,note_off,80,0,9,,,,,,,,10,,,,73,64
5600,note_off,80,0,10,,,,,,,,11,,,,67,64
5635,note_off,235,0,13,,,,,,,,14,,,,41,64
5640,note_on,40,0,6,,,,,,,,6,,,,53,45
5640,note_on,40,0,10,,,,,,,,11,,,,67,45
5640,note_on,40,0,9,,,,,,,,10,,,,73,45
5640,note_on,40,0,5,,,,,,,,5,,,,67,45
5640,note_on,160,0,7,,,,,,,,7,,,,41,45
5640,note_on,160,0,11,,,,,,,,12,,,,53,45
5640,note_on,5,0,13,,,,,,,,14,,,,41,30
5640,note_on,40,0,4,,,,,,,,4,,,,73,45
5640,note_on,160,0,12,,,,,,,,13,,,,41,45
5670,note_on,0,0,6,,,,,,,,6,,,,55,45
5670,note_on,0,0,10,,,,,,,,11,,,,68,45
5670,note_on,0,0,9,,,,,,,,10,,,,75,45
5670,note_off,30,0,9,,,,,,,,10,,,,73,64
5670,note_off,30,0,4,,,,,,,,4,,,,73,64
5670,note_off,30,0,6,,,,,,,,6,,,,53,64
5670,note_on,0,0,4,,,,,,,,4,,,,75,45
5670,note_off,30,0,10,,,,,,,,11,,,,67,64
5670,note_off,30,0,5,,,,,,,,5,,,,67,64
5670,note_on,0,0,5,,,,,,,,5,,,,68,45
5700,note_off,30,0,10,,,,,,,,11,,,,68,64
5700,note_on,0,0,9,,,,,,,,10,,,,73,45
5700,note_on,0,0,6,,,,,,,,6,,,,53,45
5700,note_off,30,0,4,,,,,,,,4,,,,75,64
5700,note_off,30,0,9,,,,,,,,10,,,,75,64
5700,note_on,0,0,10,,,,,,,,11,,,,67,45
5700,note_on,0,0,4,,,,,,,,4,,,,73,45
5700,note_off,30,0,6,,,,,,,,6,,,,55,64
5700,note_off,30,0,5,,,,,,,,5,,,,68,64
5700,note_on,0,0,5,,,,,,,,5,,,,67,45
5720,note_off,80,0,12,,,,,,,,13,,,,41,64
5720,note_off,80,0,11,,,,,,,,12,,,,53,64
5720,note_off,80,0,7,,,,,,,,7,,,,41,64
5730,note_on,0,0,4,,,,,,,,4,,,,75,45
5730,note_off,30,0,10,,,,,,,,11,,,,67,64
5730,note_on,0,0,10,,,,,,,,11,,,,68,45
5730,note_off,30,0,4,,,,,,,,4,,,,73,64
5730,note_off,30,0,6,,,,,,,,6,,,,53,64
5730,note_on,0,0,6,,,,,,,,6,,,,55,45
5730,note_off,30,0,9,,,,,,,,10,,,,73,64
5730,note_off,30,0,5,,,,,,,,5,,,,67,64
5730,note_on,0,0,5,,,,,,,,5,,,,68,45
5730,note_on,0,0,9,,,,,,,,10,,,,75,45
5760,note_on,0,0,6,,,,,,,,6,,,,53,45
5760,note_off,30,0,6,,,,,,,,6,,,,55,64
5760,note_off,30,0,9,,,,,,,,10,,,,75,64
5760,note_off,30,0,5,,,,,,,,5,,,,68,64
5760,note_on,0,0,10,,,,,,,,11,,,,67,45
5760,note_off,30,0,10,,,,,,,,11,,,,68,64
5760,note_on,0,0,9,,,,,,,,10,,,,73,45
5760,note_off,30,0,4,,,,,,,,4,,,,75,64
5760,note_on,0,0,4,,,,,,,,4,,,,73,45
5760,note_on,0,0,5,,,,,,,,5,,,,67,45
5840,note_off,80,0,6,,,,,,,,6,,,,53,64
5840,note_off,80,0,10,,,,,,,,11,,,,67,64
5840,note_off,80,0,5,,,,,,,,5,,,,67,64
5840,note_off,80,0,9,,,,,,,,10,,,,73,64
5840,note_off,80,0,4,,,,,,,,4,,,,73,64
5875,note_off,235,0,13,,,,,,,,14,,,,41,64
5880,note_on,160,0,11,,,,,,,,12,,,,53,45
5880,note_on,5880,0,3,,,,,,,,3,,,,82,45
5880,note_on,40,0,5,,,,,,,,5,,,,67,45
5880,note_on,40,0,4,,,,,,,,4,,,,73,45
5880,note_on,160,0,7,,,,,,,,7,,,,41,45
5880,note_on,5,0,13,,,,,,,,14,,,,41,30
5880,note_on,5880,0,8,,,,,,,,8,,,,82,45
5880,note_on,40,0,9,,,,,,,,10,,,,73,45
5880,note_on,40,0,10,,,,,,,,11,,,,67,45
5880,note_on,160,0,12,,,,,,,,13,,,,41,45
5880,note_on,40,0,6,,,,,,,,6,,,,53,45
5910,note_off,30,0,8,,,,,,,,8,,,,82,64
5910,note_off,30,0,4,,,,,,,,4,,,,73,64
5910,note_on,0,0,4,,,,,,,,4,,,,75,45
5910,note_on,0,0,9,,,,,,,,10,,,,75,45
5910,note_on,0,0,8,,,,,,,,8,,,,84,45
5910,note_off,30,0,9,,,,,,,,10,,,,73,64
5910,note_off,30,0,5,,,,,,,,5,,,,67,64
5910,note_on,0,0,10,,,,,,,,11,,,,68,45
5910,note_on,0,0,5,,,,,,,,5,,,,68,45
5910,note_off,30,0,3,,,,,,,,3,,,,82,64
5910,note_on,0,0,3,,,,,,,,3,,,,84,45
5910,note_off,30,0,10,,,,,,,,11,,,,67,64
5940,note_off,30,0,8,,,,,,,,8,,,,84,64
5940,note_on,0,0,5,,,,,,,,5,,,,67,45
5940,note_on,0,0,4,,,,,,,,4,,,,73,45
5940,note_off,30,0,3,,,,,,,,3,,,,84,64
5940,note_on,0,0,3,,,,,,,,3,,,,82,45
5940,note_off,30,0,5,,,,,,,,5,,,,68,64
5940,note_off,30,0,4,,,,,,,,4,,,,75,64
5940,note_on,0,0,9,,,,,,,,10,,,,73,45
5940,note_off,30,0,9,,,,,,,,10,,,,75,64
5940,note_on,0,0,10,,,,,,,,11,,,,67,45
5940,note_on,0,0,8,,,,,,,,8,,,,82,45
5940,note_off,30,0,10,,,,,,,,11,,,,68,64
5960,note_off,80,0,12,,,,,,,,13,,,,41,64
5960,note_off,80,0,7,,,,,,,,7,,,,41,64
5960,note_off,80,0,6,,,,,,,,6,,,,53,64
5960,note_off,80,0,11,,,,,,,,12,,,,53,64
5970,note_on,0,0,9,,,,,,,,10,,,,75,45
5970,note_off,30,0,9,,,,,,,,10,,,,73,64
5970,note_on,0,0,5,,,,,,,,5,,,,68,45
5970,note_off,30,0,4,,,,,,,,4,,,,73,64
5970,note_on,0,0,4,,,,,,,,4,,,,75,45
5970,note_off,30,0,5,,,,,,,,5,,,,67,64
5970,note_on,0,0,3,,,,,,,,3,,,,84,45
5970,note_on,0,0,10,,,,,,,,11,,,,68,45
5970,note_off,30,0,10,,,,,,,,11,,,,67,64
5970,note_on,0,0,8,,,,,,,,8,,,,84,45
5970,note_off,30,0,8,,,,,,,,8,,,,82,64
5970,note_off,30,0,3,,,,,,,,3,,,,82,64
6000,note_on,0,0,3,,,,,,,,3,,,,82,45
6000,note_off,30,0,3,,,,,,,,3,,,,84,64
6000,note_on,0,0,10,,,,,,,,11,,,,67,45
6000,note_on,0,0,5,,,,,,,,5,,,,67,45
6000,note_on,0,0,8,,,,,,,,8,,,,82,45
6000,note_off,30,0,8,,,,,,,,8,,,,84,64
6000,note_off,30,0,10,,,,,,,,11,,,,68,64
6000,note_off,30,0,9,,,,,,,,10,,,,75,64
6000,note_on,0,0,9,,,,,,,,10,,,,73,45
6000,note_off,30,0,5,,,,,,,,5,,,,68,64
6000,note_off,30,0,4,,,,,,,,4,,,,75,64
6000,note_on,0,0,4,,,,,,,,4,,,,73,45
6080,note_off,80,0,10,,,,,,,,11,,,,67,64
6080,note_off,80,0,4,,,,,,,,4,,,,73,64
6080,note_off,80,0,3,,,,,,,,3,,,,82,64
6080,note_off,80,0,8,,,,,,,,8,,,,82,64
6080,note_off,80,0,5,,,,,,,,5,,,,67,64
6080,note_off,80,0,9,,,,,,,,10,,,,73,64
6115,note_off,235,0,13,,,,,,,,14,,,,41,64
6120,note_on,160,0,11,,,,,,,,12,,,,53,45
6120,note_on,5,0,13,,,,,,,,14,,,,41,30
6120,note_on,40,0,4,,,,,,,,4,,,,73,45
6120,note_on,160,0,12,,,,,,,,13,,,,41,45
6120,note_on,40,0,5,,,,,,,,5,,,,67,45
6120,note_on,40,0,9,,,,,,,,10,,,,73,45
6120,note_on,40,0,10,,,,,,,,11,,,,67,45
6120,note_on,40,0,8,,,,,,,,8,,,,82,45
6120,note_on,160,0,6,,,,,,,,6,,,,53,45
6120,note_on,40,0,3,,,,,,,,3,,,,82,45
6120,note_on,160,0,7,,,,,,,,7,,,,41,45
6150,note_on,0,0,3,,,,,,,,3,,,,84,45
6150,note_off,30,0,4,,,,,,,,4,,,,73,64
6150,note_on,0,0,4,,,,,,,,4,,,,75,45
6150,note_on,0,0,9,,,,,,,,10,,,,75,45
6150,note_off,30,0,9,,,,,,,,10,,,,73,64
6150,note_off,30,0,3,,,,,,,,3,,,,82,64
6150,note_off,30,0,10,,,,,,,,11,,,,67,64
6150,note_off,30,0,5,,,,,,,,5,,,,67,64
6150,note_on,0,0,10,,,,,,,,11,,,,68,45
6150,note_off,30,0,8,,,,,,,,8,,,,82,64
6150,note_on,0,0,8,,,,,,,,8,,,,84,45
6150,note_on,0,0,5,,,,,,,,5,,,,68,45
6180,note_on,0,0,9,,,,,,,,10,,,,73,45
6180,note_on,0,0,3,,,,,,,,3,,,,82,45
6180,note_off,30,0,3,,,,,,,,3,,,,84,64
6180,note_off,30,0,8,,,,,,,,8,,,,84,64
6180,note_off,30,0,10,,,,,,,,11,,,,68,64
6180,note_on,0,0,10,,,,,,,,11,,,,67,45
6180,note_off,30,0,5,,,,,,,,5,,,,68,64
6180,note_on,0,0,8,,,,,,,,8,,,,82,45
6180,note_on,0,0,5,,,,,,,,5,,,,67,45
6180,note_off,30,0,4,,,,,,,,4,,,,75,64
6180,note_off,30,0,9,,,,,,,,10,,,,75,64
6180,note_on,0,0,4,,,,,,,,4,,,,73,45
6200,note_off,80,0,7,,,,,,,,7,,,,41,64
6200,note_off,80,0,6,,,,,,,,6,,,,53,64
6200,note_off,80,0,12,,,,,,,,13,,,,41,64
6200,note_off,80,0,11,,,,,,,,12,,,,53,64
6210,note_on,0,0,10,,,,,,,,11,,,,68,45
6210,note_off,30,0,10,,,,,,,,11,,,,67,64
6210,note_off,30,0,9,,,,,,,,10,,,,73,64
6210,note_on,0,0,8,,,,,,,,8,,,,84,45
6210,note_off,30,0,8,,,,,,,,8,,,,82,64
6210,note_on,0,0,9,,,,,,,,10,,,,75,45
6210,note_on,0,0,5,,,,,,,,5,,,,68,45
6210,note_on,0,0,3,,,,,,,,3,,,,84,45
6210,note_off,30,0,3,,,,,,,,3,,,,82,64
6210,note_off,30,0,4,,,,,,,,4,,,,73,64
6210,note_on,0,0,4,,,,,,,,4,,,,75,45
6210,note_off,30,0,5,,,,,,,,5,,,,67,64
6240,note_off,30,0,8,,,,,,,,8,,,,84,64
6240,note_off,30,0,5,,,,,,,,5,,,,68,64
6240,note_off,30,0,10,,,,,,,,11,,,,68,64
6240,note_on,0,0,8,,,,,,,,8,,,,82,45
6240,note_on,0,0,10,,,,,,,,11,,,,67,45
6240,note_on,0,0,5,,,,,,,,5,,,,67,45
6240,note_off,30,0,4,,,,,,,,4,,,,75,64
6240,note_on,0,0,4,,,,,,,,4,,,,73,45
6240,note_off,30,0,3,,,,,,,,3,,,,84,64
6240,note_off,30,0,9,,,,,,,,10,,,,75,64
6240,note_on,0,0,9,,,,,,,,10,,,,73,45
6240,note_on,0,0,3,,,,,,,,3,,,,82,45
6320,note_off,80,0,5,,,,,,,,5,,,,67,64
6320,note_off,80,0,10,,,,,,,,11,,,,67,64
6320,note_off,80,0,8,,,,,,,,8,,,,82,64
6320,note_off,80,0,3,,,,,,,,3,,,,82,64
6320,note_off,80,0,9,,,,,,,,10,,,,73,64
6320,note_off,80,0,4,,,,,,,,4,,,,73,64
6355,note_off,235,0,13,,,,,,,,14,,,,41,64
6360,note_on,40,0,8,,,,,,,,8,,,,82,45
6360,note_on,5,0,13,,,,,,,,14,,,,41,30
6360,note_on,40,0,5,,,,,,,,5,,,,67,45
6360,note_on,40,0,9,,,,,,,,10,,,,73,45
6360,note_on,160,0,11,,,,,,,,12,,,,53,45
6360,note_on,160,0,6,,,,,,,,6,,,,53,45
6360,note_on,40,0,10,,,,,,,,11,,,,67,45
6360,note_on,40,0,3,,,,,,,,3,,,,82,45
6360,note_on,40,0,4,,,,,,,,4,,,,73,45
6360,note_on,160,0,7,,,,,,,,7,,,,41,45
6360,note_on,160,0,12,,,,,,,,13,,,,41,45
6390,note_off,30,0,8,,,,,,,,8,,,,82,64
6390,note_off,30,0,3,,,,,,,,3,,,,82,64
6390,note_on,0,0,3,,,,,,,,3,,,,84,45
6390,note_off,30,0,4,,,,,,,,4,,,,73,64
6390,note_on,0,0,4,,,,,,,,4,,,,75,45
6390,note_off,30,0,5,,,,,,,,5,,,,67,64
6390,note_on,0,0,9,,,,,,,,10,,,,75,45
6390,note_off,30,0,9,,,,,,,,10,,,,73,64
6390,note_on,0,0,10,,,,,,,,11,,,,68,45
6390,note_on,0,0,5,,,,,,,,5,,,,68,45
6390,note_off,30,0,10,,,,,,,,11,,,,67,64
6390,note_on,0,0,8,,,,,,,,8,,,,84,45
6420,note_on,0,0,10,,,,,,,,11,,,,67,45
6420,note_off,30,0,10,,,,,,,,11,,,,68,64
6420,note_on,0,0,5,,,,,,,,5,,,,67,45
6420,note_off,30,0,9,,,,,,,,10,,,,75,64
6420,note_on,0,0,9,,,,,,,,10,,,,73,45
6420,note_off,30,0,8,,,,,,,,8,,,,84,64
6420,note_on,0,0,8,,,,,,,,8,,,,82,45
6420,note_off,30,0,5,,,,,,,,5,,,,68,64
6420,note_off,30,0,3,,,,,,,,3,,,,84,64
6420,note_on,0,0,3,,,,,,,,3,,,,82,45
6420,note_off,30,0,4,,,,,,,,4,,,,75,64
6420,note_on,0,0,4,,,,,,,,4,,,,73,45
6440,note_off,80,0,6,,,,,,,,6,,,,53,64
6440,note_off,80,0,7,,,,,,,,7,,,,41,64
6440,note_off,80,0,12,,,,,,,,13,,,,41,64
6440,note_off,80,0,11,,,,,,,,12,,,,53,64
6450,note_on,0,0,8,,,,,,,,8,,,,84,45
6450,note_on,0,0,5,,,,,,,,5,,,,68,45
6450,note_on,0,0,9,,,,,,,,10,,,,75,45
6450,note_off,30,0,9,,,,,,,,10,,,,73,64
6450,note_on,0,0,3,,,,,,,,3,,,,84,45
6450,note_off,30,0,5,,,,,,,,5,,,,67,64
6450,note_off,30,0,8,,,,,,,,8,,,,82,64
6450,note_off,30,0,10,,,,,,,,11,,,,67,64
6450,note_on,0,0,10,,,,,,,,11,,,,68,45
6450,note_off,30,0,4,,,,,,,,4,,,,73,64
6450,note_off,30,0,3,,,,,,,,3,,,,82,64
6450,note_on,0,0,4,,,,,,,,4,,,,75,45
6480,note_off,30,0,5,,,,,,,,5,,,,68,64
6480,note_on,0,0,5,,,,,,,,5,,,,67,45
6480,note_off,30,0,8,,,,,,,,8,,,,84,64
6480,note_on,0,0,8,,,,,,,,8,,,,82,45
6480,note_on,0,0,3,,,,,,,,3,,,,82,45
6480,note_off,30,0,9,,,,,,,,10,,,,75,64
6480,note_on,0,0,10,,,,,,,,11,,,,67,45
6480,note_on,0,0,4,,,,,,,,4,,,,73,45
6480,note_off,30,0,3,,,,,,,,3,,,,84,64
6480,note_off,30,0,10,,,,,,,,11,,,,68,64
6480,note_off,30,0,4,,,,,,,,4,,,,75,64
6480,note_on,0,0,9,,,,,,,,10,,,,73,45
6560,note_off,80,0,10,,,,,,,,11,,,,67,64
6560,note_off,80,0,5,,,,,,,,5,,,,67,64
6560,note_off,80,0,4,,,,,,,,4,,,,73,64
6560,note_off,80,0,9,,,,,,,,10,,,,73,64
6560,note_off,80,0,8,,,,,,,,8,,,,82,64
6560,note_off,80,0,3,,,,,,,,3,,,,82,64
6595,note_off,235,0,13,,,,,,,,14,,,,41,64
6600,note_on,160,0,11,,,,,,,,12,,,,53,45
6600,note_on,5,0,13,,,,,,,,14,,,,41,30
6600,note_on,160,0,6,,,,,,,,6,,,,53,45
6600,note_on,40,0,8,,,,,,,,8,,,,82,45
6600,note_on,40,0,10,,,,,,,,11,,,,67,45
6600,note_on,40,0,3,,,,,,,,3,,,,82,45
6600,note_on,160,0,7,,,,,,,,7,,,,41,45
6600,note_on,40,0,9,,,,,,,,10,,,,73,45
6600,note_on,160,0,12,,,,,,,,13,,,,41,45
6600,note_on,40,0,5,,,,,,,,5,,,,67,45
6600,note_on,40,0,4,,,,,,,,4,,,,73,45
6630,note_off,30,0,3,,,,,,,,3,,,,82,64
6630,note_on,0,0,10,,,,,,,,11,,,,68,45
6630,note_off,30,0,5,,,,,,,,5,,,,67,64
6630,note_on,0,0,5,,,,,,,,5,,,,68,45
6630,note_off,30,0,8,,,,,,,,8,,,,82,64
6630,note_on,0,0,8,,,,,,,,8,,,,84,45
6630,note_off,30,0,4,,,,,,,,4,,,,73,64
6630,note_on,0,0,4,,,,,,,,4,,,,75,45
6630,note_on,0,0,3,,,,,,,,3,,,,84,45
6630,note_on,0,0,9,,,,,,,,10,,,,75,45
6630,note_off,30,0,9,,,,,,,,10,,,,73,64
6630,note_off,30,0,10,,,,,,,,11,,,,67,64
6660,note_off,30,0,4,,,,,,,,4,,,,75,64
6660,note_on,0,0,4,,,,,,,,4,,,,73,45
6660,note_on,0,0,8,,,,,,,,8,,,,82,45
6660,note_off,30,0,8,,,,,,,,8,,,,84,64
6660,note_on,0,0,10,,,,,,,,11,,,,67,45
6660,note_on,0,0,3,,,,,,,,3,,,,82,45
6660,note_off,30,0,3,,,,,,,,3,,,,84,64
6660,note_off,30,0,5,,,,,,,,5,,,,68,64
6660,note_on,0,0,5,,,,,,,,5,,,,67,45
6660,note_on,0,0,9,,,,,,,,10,,,,73,45
6660,note_off,30,0,9,,,,,,,,10,,,,75,64
6660,note_off,30,0,10,,,,,,,,11,,,,68,64
6680,note_off,80,0,12,,,,,,,,13,,,,41,64
6680,note_off,80,0,7,,,,,,,,7,,,,41,64
6680,note_off,80,0,6,,,,,,,,6,,,,53,64
6680,note_off,80,0,11,,,,,,,,12,,,,53,64
6690,note_on,0,0,9,,,,,,,,10,,,,75,45
6690,note_off,30,0,9,,,,,,,,10,,,,73,64
6690,note_off,30,0,3,,,,,,,,3,,,,82,64
6690,note_on,0,0,3,,,,,,,,3,,,,84,45
6690,note_on,0,0,4,,,,,,,,4,,,,75,45
6690,note_off,30,0,4,,,,,,,,4,,,,73,64
6690,note_on,0,0,8,,,,,,,,8,,,,84,45
6690,note_off,30,0,10,,,,,,,,11,,,,67,64
6690,note_off,30,0,5,,,,,,,,5,,,,67,64
6690,note_on,0,0,5,,,,,,,,5,,,,68,45
6690,note_on,0,0,10,,,,,,,,11,,,,68,45
6690,note_off,30,0,8,,,,,,,,8,,,,82,64
6720,note_on,0,0,4,,,,,,,,4,,,,73,45
6720,note_off,30,0,10,,,,,,,,11,,,,68,64
6720,note_on,0,0,10,,,,,,,,11,,,,67,45
6720,note_off,30,0,4,,,,,,,,4,,,,75,64
6720,note_on,0,0,5,,,,,,,,5,,,,67,45
6720,note_on,0,0,8,,,,,,,,8,,,,82,45
6720,note_off,30,0,9,,,,,,,,10,,,,75,64
6720,note_off,30,0,5,,,,,,,,5,,,,68,64
6720,note_off,30,0,3,,,,,,,,3,,,,84,64
6720,note_on,0,0,3,,,,,,,,3,,,,82,45
6720,note_on,0,0,9,,,,,,,,10,,,,73,45
6720,note_off,30,0,8,,,,,,,,8,,,,84,64
6800,note_off,80,0,5,,,,,,,,5,,,,67,64
6800,note_off,80,0,10,,,,,,,,11,,,,67,64
6800,note_off,80,0,9,,,,,,,,10,,,,73,64
6800,note_off,80,0,4,,,,,,,,4,,,,73,64
6800,note_off,80,0,8,,,,,,,,8,,,,82,64
6800,note_off,80,0,3,,,,,,,,3,,,,82,64
6835,note_off,235,0,13,,,,,,,,14,,,,41,64
6840,note_on,40,0,8,,,,,,,,8,,,,82,45
6840,note_on,40,0,3,,,,,,,,3,,,,82,45
6840,note_on,40,0,9,,,,,,,,10,,,,73,45
6840,note_on,160,0,6,,,,,,,,6,,,,53,45
6840,note_on,40,0,5,,,,,,,,5,,,,67,45
6840,note_on,160,0,11,,,,,,,,12,,,,53,45
6840,note_on,40,0,10,,,,,,,,11,,,,67,45
6840,note_on,160,0,7,,,,,,,,7,,,,41,45
6840,note_on,160,0,12,,,,,,,,13,,,,41,45
6840,note_on,40,0,4,,,,,,,,4,,,,73,45
6840,note_on,5,0,13,,,,,,,,14,,,,41,30
6870,note_on,0,0,8,,,,,,,,8,,,,84,45
6870,note_off,30,0,9,,,,,,,,10,,,,73,64
6870,note_on,0,0,9,,,,,,,,10,,,,75,45
6870,note_on,0,0,5,,,,,,,,5,,,,68,45
6870,note_off,30,0,5,,,,,,,,5,,,,67,64
6870,note_off,30,0,10,,,,,,,,11,,,,67,64
6870,note_on,0,0,10,,,,,,,,11,,,,68,45
6870,note_off,30,0,3,,,,,,,,3,,,,82,64
6870,note_off,30,0,4,,,,,,,,4,,,,73,64
6870,note_on,0,0,3,,,,,,,,3,,,,84,45
6870,note_on,0,0,4,,,,,,,,4,,,,75,45
6870,note_off,30,0,8,,,,,,,,8,,,,82,64
6900,note_off,30,0,10,,,,,,,,11,,,,68,64
6900,note_on,0,0,3,,,,,,,,3,,,,82,45
6900,note_off,30,0,3,,,,,,,,3,,,,84,64
6900,note_off,30,0,4,,,,,,,,4,,,,75,64
6900,note_off,30,0,5,,,,,,,,5,,,,68,64
6900,note_on,0,0,5,,,,,,,,5,,,,67,45
6900,note_on,0,0,10,,,,,,,,11,,,,67,45
6900,note_on,0,0,8,,,,,,,,8,,,,82,45
6900,note_on,0,0,4,,,,,,,,4,,,,73,45
6900,note_on,0,0,9,,,,,,,,10,,,,73,45
6900,note_off,30,0,9,,,,,,,,10,,,,75,64
6900,note_off,30,0,8,,,,,,,,8,,,,84,64
6920,note_off,80,0,11,,,,,,,,12,,,,53,64
6920,note_off,80,0,6,,,,,,,,6,,,,53,64
6920,note_off,80,0,7,,,,,,,,7,,,,41,64
6920,note_off,80,0,12,,,,,,,,13,,,,41,64
6930,note_off,30,0,8,,,,,,,,8,,,,82,64
6930,note_on,0,0,9,,,,,,,,10,,,,75,45
6930,note_off,30,0,9,,,,,,,,10,,,,73,64
6930,note_off,30,0,5,,,,,,,,5,,,,67,64
6930,note_on,0,0,5,,,,,,,,5,,,,68,45
6930,note_off,30,0,4,,,,,,,,4,,,,73,64
6930,note_off,30,0,3,,,,,,,,3,,,,82,64
6930,note_off,30,0,10,,,,,,,,11,,,,67,64
6930,note_on,0,0,10,,,,,,,,11,,,,68,45
6930,note_on,0,0,4,,,,,,,,4,,,,75,45
6930,note_on,0,0,3,,,,,,,,3,,,,84,45
6930,note_on,0,0,8,,,,,,,,8,,,,84,45
6960,note_off,30,0,9,,,,,,,,10,,,,75,64
6960,note_off,30,0,3,,,,,,,,3,,,,84,64
6960,note_on,0,0,9,,,,,,,,10,,,,73,45
6960,note_on,0,0,3,,,,,,,,3,,,,82,45
6960,note_on,0,0,4,,,,,,,,4,,,,73,45
6960,note_off,30,0,4,,,,,,,,4,,,,75,64
6960,note_on,0,0,8,,,,,,,,8,,,,82,45
6960,note_off,30,0,5,,,,,,,,5,,,,68,64
6960,note_on,0,0,10,,,,,,,,11,,,,67,45
6960,note_off,30,0,10,,,,,,,,11,,,,68,64
6960,note_on,0,0,5,,,,,,,,5,,,,67,45
6960,note_off,30,0,8,,,,,,,,8,,,,84,64
7040,note_off,80,0,10,,,,,,,,11,,,,67,64
7040,note_off,80,0,8,,,,,,,,8,,,,82,64
7040,note_off,80,0,4,,,,,,,,4,,,,73,64
7040,note_off,80,0,3,,,,,,,,3,,,,82,64
7040,note_off,80,0,5,,,,,,,,5,,,,67,64
7040,note_off,80,0,9,,,,,,,,10,,,,73,64
7075,note_off,235,0,13,,,,,,,,14,,,,41,64
7080,note_on,40,0,4,,,,,,,,4,,,,73,45
7080,note_on,40,0,10,,,,,,,,11,,,,67,45
7080,note_on,40,0,9,,,,,,,,10,,,,73,45
7080,note_on,160,0,11,,,,,,,,12,,,,53,45
7080,note_on,160,0,12,,,,,,,,13,,,,41,45
7080,note_on,160,0,7,,,,,,,,7,,,,41,45
7080,note_on,40,0,3,,,,,,,,3,,,,82,45
7080,note_on,5,0,13,,,,,,,,14,,,,41,30
7080,note_on,40,0,8,,,,,,,,8,,,,82,45
7080,note_on,160,0,6,,,,,,,,6,,,,53,45
7080,note_on,40,0,5,,,,,,,,5,,,,67,45
7110,note_on,0,0,9,,,,,,,,10,,,,75,45
7110,note_off,30,0,10,,,,,,,,11,,,,67,64
7110,note_on,0,0,4,,,,,,,,4,,,,75,45
7110,note_off,30,0,8,,,,,,,,8,,,,82,64
7110,note_off,30,0,3,,,,,,,,3,,,,82,64
7110,note_on,0,0,3,,,,,,,,3,,,,84,45
7110,note_on,0,0,10,,,,,,,,11,,,,68,45
7110,note_off,30,0,5,,,,,,,,5,,,,67,64
7110,note_on,0,0,5,,,,,,,,5,,,,68,45
7110,note_on,0,0,8,,,,,,,,8,,,,84,45
7110,note_off,30,0,9,,,,,,,,10,,,,73,64
7110,note_off,30,0,4,,,,,,,,4,,,,73,64
7140,note_on,0,0,3,,,,,,,,3,,,,82,45
7140,note_off,30,0,8,,,,,,,,8,,,,84,64
7140,note_on,0,0,8,,,,,,,,8,,,,82,45
7140,note_on,0,0,9,,,,,,,,10,,,,73,45
7140,note_off,30,0,9,,,,,,,,10,,,,75,64
7140,note_off,30,0,3,,,,,,,,3,,,,84,64
7140,note_on,0,0,10,,,,,,,,11,,,,67,45
7140,note_off,30,0,10,,,,,,,,11,,,,68,64
7140,note_on,0,0,5,,,,,,,,5,,,,67,45
7140,note_off,30,0,5,,,,,,,,5,,,,68,64
7140,note_off,30,0,4,,,,,,,,4,,,,75,64
7140,note_on,0,0,4,,,,,,,,4,,,,73,45
7160,note_off,80,0,6,,,,,,,,6,,,,53,64
7160,note_off,80,0,12,,,,,,,,13,,,,41,64
7160,note_off,80,0,7,,,,,,,,7,,,,41,64
7160,note_off,80,0,11,,,,,,,,12,,,,53,64
7170,note_off,30,0,9,,,,,,,,10,,,,73,64
7170,note_on,0,0,9,,,,,,,,10,,,,75,45
7170,note_on,0,0,8,,,,,,,,8,,,,84,45
7170,note_off,30,0,8,,,,,,,,8,,,,82,64
7170,note_on,0,0,5,,,,,,,,5,,,,68,45
7170,note_on,0,0,3,,,,,,,,3,,,,84,45
7170,note_off,30,0,3,,,,,,,,3,,,,82,64
7170,note_off,30,0,10,,,,,,,,11,,,,67,64
7170,note_off,30,0,5,,,,,,,,5,,,,67,64
7170,note_on,0,0,10,,,,,,,,11,,,,68,45
7170,note_on,0,0,4,,,,,,,,4,,,,75,45
7170,note_off,30,0,4,,,,,,,,4,,,,73,64
7200,note_on,0,0,4,,,,,,,,4,,,,73,45
7200,note_on,0,0,5,,,,,,,,5,,,,67,45
7200,note_off,30,0,5,,,,,,,,5,,,,68,64
7200,note_off,30,0,3,,,,,,,,3,,,,84,64
7200,note_on,0,0,3,,,,,,,,3,,,,82,45
7200,note_on,0,0,10,,,,,,,,11,,,,67,45
7200,note_off,30,0,4,,,,,,,,4,,,,75,64
7200,note_on,0,0,9,,,,,,,,10,,,,73,45
7200,note_off,30,0,9,,,,,,,,10,,,,75,64
7200,note_off,30,0,10,,,,,,,,11,,,,68,64
7200,note_off,30,0,8,,,,,,,,8,,,,84,64
7200,note_on,0,0,8,,,,,,,,8,,,,82,45
7280,note_off,80,0,9,,,,,,,,10,,,,73,64
7280,note_off,80,0,5,,,,,,,,5,,,,67,64
7280,note_off,80,0,10,,,,,,,,11,,,,67,64
7280,note_off,80,0,8,,,,,,,,8,,,,82,64
7280,note_off,80,0,4,,,,,,,,4,,,,73,64
7280,note_off,80,0,3,,,,,,,,3,,,,82,64
7315,note_off,235,0,13,,,,,,,,14,,,,41,64
7320,note_on,40,0,8,,,,,,,,8,,,,82,45
7320,note_on,40,0,9,,,,,,,,10,,,,73,45
7320,note_on,40,0,10,,,,,,,,11,,,,67,45
7320,note_on,160,0,12,,,,,,,,13,,,,41,45
7320,note_on,160,0,7,,,,,,,,7,,,,41,45
7320,note_on,5,0,13,,,,,,,,14,,,,41,30
7320,note_on,160,0,6,,,,,,,,6,,,,53,45
7320,note_on,40,0,5,,,,,,,,5,,,,67,45
7320,note_on,40,0,3,,,,,,,,3,,,,82,45
7320,note_on,40,0,4,,,,,,,,4,,,,73,45
7320,note_on,160,0,11,,,,,,,,12,,,,53,45
7350,note_off,30,0,4,,,,,,,,4,,,,73,64
7350,note_on,0,0,3,,,,,,,,3,,,,84,45
7350,note_off,30,0,3,,,,,,,,3,,,,82,64
7350,note_on,0,0,4,,,,,,,,4,,,,75,45
7350,note_on,0,0,9,,,,,,,,10,,,,75,45
7350,note_off,30,0,5,,,,,,,,5,,,,67,64
7350,note_on,0,0,5,,,,,,,,5,,,,68,45
7350,note_on,0,0,10,,,,,,,,11,,,,68,45
7350,note_off,30,0,10,,,,,,,,11,,,,67,64
7350,note_off,30,0,8,,,,,,,,8,,,,82,64
7350,note_off,30,0,9,,,,,,,,10,,,,73,64
7350,note_on,0,0,8,,,,,,,,8,,,,84,45
7380,note_off,30,0,5,,,,,,,,5,,,,68,64
7380,note_off,30,0,8,,,,,,,,8,,,,84,64
7380,note_off,30,0,9,,,,,,,,10,,,,75,64
7380,note_on,0,0,9,,,,,,,,10,,,,73,45
7380,note_off,30,0,10,,,,,,,,11,,,,68,64
7380,note_off,30,0,3,,,,,,,,3,,,,84,64
7380,note_on,0,0,10,,,,,,,,11,,,,67,45
7380,note_on,0,0,3,,,,,,,,3,,,,82,45
7380,note_on,0,0,8,,,,,,,,8,,,,82,45
7380,note_on,0,0,5,,,,,,,,5,,,,67,45
7380,note_on,0,0,4,,,,,,,,4,,,,73,45
7380,note_off,30,0,4,,,,,,,,4,,,,75,64
7400,note_off,80,0,12,,,,,,,,13,,,,41,64
7400,note_off,80,0,7,,,,,,,,7,,,,41,64
7400,note_off,80,0,11,,,,,,,,12,,,,53,64
7400,note_off,80,0,6,,,,,,,,6,,,,53,64
7410,note_on,0,0,5,,,,,,,,5,,,,68,45
7410,note_on,0,0,9,,,,,,,,10,,,,75,45
7410,note_off,30,0,9,,,,,,,,10,,,,73,64
7410,note_off,30,0,4,,,,,,,,4,,,,73,64
7410,note_on,0,0,4,,,,,,,,4,,,,75,45
7410,note_off,30,0,5,,,,,,,,5,,,,67,64
7410,note_on,0,0,10,,,,,,,,11,,,,68,45
7410,note_off,30,0,8,,,,,,,,8,,,,82,64
7410,note_on,0,0,8,,,,,,,,8,,,,84,45
7410,note_on,0,0,3,,,,,,,,3,,,,84,45
7410,note_off,30,0,10,,,,,,,,11,,,,67,64
7410,note_off,30,0,3,,,,,,,,3,,,,82,64
7440,note_off,30,0,5,,,,,,,,5,,,,68,64
7440,note_on,0,0,9,,,,,,,,10,,,,73,45
7440,note_off,30,0,9,,,,,,,,10,,,,75,64
7440,note_on,0,0,8,,,,,,,,8,,,,82,45
7440,note_on,0,0,10,,,,,,,,11,,,,67,45
7440,note_off,30,0,4,,,,,,,,4,,,,75,64
7440,note_on,0,0,5,,,,,,,,5,,,,67,45
7440,note_off,30,0,8,,,,,,,,8,,,,84,64
7440,note_on,0,0,3,,,,,,,,3,,,,82,45
7440,note_off,30,0,3,,,,,,,,3,,,,84,64
7440,note_off,30,0,10,,,,,,,,11,,,,68,64
7440,note_on,0,0,4,,,,,,,,4,,,,73,45
7520,note_off,80,0,4,,,,,,,,4,,,,73,64
7520,note_off,80,0,5,,,,,,,,5,,,,67,64
7520,note_off,80,0,10,,,,,,,,11,,,,67,64
7520,note_off,80,0,8,,,,,,,,8,,,,82,64
7520,note_off,80,0,3,,,,,,,,3,,,,82,64
7520,note_off,80,0,9,,,,,,,,10,,,,73,64
7555,note_off,235,0,13,,,,,,,,14,,,,41,64
7560,note_on,40,0,10,,,,,,,,11,,,,67,45
7560,note_on,40,0,4,,,,,,,,4,,,,73,45
7560,note_on,40,0,3,,,,,,,,3,,,,82,45
7560,note_on,5,0,13,,,,,,,,14,,,,41,30
7560,note_on,160,0,11,,,,,,,,12,,,,53,45
7560,note_on,160,0,7,,,,,,,,7,,,,41,45
7560,note_on,40,0,5,,,,,,,,5,,,,67,45
7560,note_on,160,0,6,,,,,,,,6,,,,53,45
7560,note_on,160,0,12,,,,,,,,13,,,,41,45
7560,note_on,40,0,9,,,,,,,,10,,,,73,45
7560,note_on,40,0,8,,,,,,,,8,,,,82,45
7590,note_off,30,0,3,,,,,,,,3,,,,82,64
7590,note_off,30,0,4,,,,,,,,4,,,,73,64
7590,note_on,0,0,4,,,,,,,,4,,,,75,45
7590,note_on,0,0,9,,,,,,,,10,,,,75,45
7590,note_off,30,0,9,,,,,,,,10,,,,73,64
7590,note_off,30,0,5,,,,,,,,5,,,,67,64
7590,note_off,30,0,8,,,,,,,,8,,,,82,64
7590,note_on,0,0,8,,,,,,,,8,,,,84,45
7590,note_off,30,0,10,,,,,,,,11,,,,67,64
7590,note_on,0,0,5,,,,,,,,5,,,,68,45
7590,note_on,0,0,10,,,,,,,,11,,,,68,45
7590,note_on,0,0,3,,,,,,,,3,,,,84,45
7620,note_off,30,0,10,,,,,,,,11,,,,68,64
7620,note_on,0,0,10,,,,,,,,11,,,,67,45
7620,note_off,30,0,9,,,,,,,,10,,,,75,64
7620,note_on,0,0,3,,,,,,,,3,,,,82,45
7620,note_on,0,0,9,,,,,,,,10,,,,73,45
7620,note_on,0,0,8,,,,,,,,8,,,,82,45
7620,note_off,30,0,8,,,,,,,,8,,,,84,64
7620,note_on,0,0,5,,,,,,,,5,,,,67,45
7620,note_off,30,0,5,,,,,,,,5,,,,68,64
7620,note_off,30,0,3,,,,,,,,3,,,,84,64
7620,note_off,30,0,4,,,,,,,,4,,,,75,64
7620,note_on,0,0,4,,,,,,,,4,,,,73,45
7640,note_off,80,0,7,,,,,,,,7,,,,41,64
7640,note_off,80,0,12,,,,,,,,13,,,,41,64
7640,note_off,80,0,11,,,,,,,,12,,,,53,64
7640,note_off,80,0,6,,,,,,,,6,,,,53,64
7650,note_off,30,0,4,,,,,,,,4,,,,73,64
7650,note_on,0,0,8,,,,,,,,8,,,,84,45
7650,note_on,0,0,4,,,,,,,,4,,,,75,45
7650,note_off,30,0,9,,,,,,,,10,,,,73,64
7650,note_on,0,0,9,,,,,,,,10,,,,75,45
7650,note_off,30,0,5,,,,,,,,5,,,,67,64
7650,note_off,30,0,10,,,,,,,,11,,,,67,64
7650,note_on,0,0,10,,,,,,,,11,,,,68,45
7650,note_on,0,0,3,,,,,,,,3,,,,84,45
7650,note_off,30,0,3,,,,,,,,3,,,,82,64
7650,note_on,0,0,5,,,,,,,,5,,,,68,45
7650,note_off,30,0,8,,,,,,,,8,,,,82,64
7680,note_off,30,0,8,,,,,,,,8,,,,84,64
7680,note_on,0,0,3,,,,,,,,3,,,,82,45
7680,note_off,30,0,3,,,,,,,,3,,,,84,64
7680,note_off,30,0,5,,,,,,,,5,,,,68,64
7680,note_on,0,0,4,,,,,,,,4,,,,73,45
7680,note_on,0,0,10,,,,,,,,11,,,,67,45
7680,note_off,30,0,10,,,,,,,,11,,,,68,64
7680,note_off,30,0,4,,,,,,,,4,,,,75,64
7680,note_on,0,0,8,,,,,,,,8,,,,82,45
7680,note_off,30,0,9,,,,,,,,10,,,,75,64
7680,note_on,0,0,9,,,,,,,,10,,,,73,45
7680,note_on,0,0,5,,,,,,,,5,,,,67,45
7760,note_off,80,0,5,,,,,,,,5,,,,67,64
7760,note_off,80,0,8,,,,,,,,8,,,,82,64
7760,note_off,80,0,10,,,,,,,,11,,,,67,64
7760,note_off,80,0,3,,,,,,,,3,,,,82,64
7760,note_off,80,0,4,,,,,,,,4,,,,73,64
7760,note_off,80,0,9,,,,,,,,10,,,,73,64
7795,note_off,235,0,13,,,,,,,,14,,,,41,64
7800,note_on,40,0,3,,,,,,,,3,,,,82,45
7800,note_on,5,0,13,,,,,,,,14,,,,40,30
7800,note_on,160,0,6,,,,,,,,6,,,,52,45
7800,note_on,160,0,11,,,,,,,,12,,,,52,45
7800,note_on,40,0,8,,,,,,,,8,,,,82,45
7800,note_on,160,0,12,,,,,,,,13,,,,40,45
7800,note_on,160,0,7,,,,,,,,7,,,,40,45
7800,note_on,40,0,4,,,,,,,,4,,,,73,45
7800,note_on,40,0,10,,,,,,,,11,,,,67,45
7800,note_on,40,0,9,,,,,,,,10,,,,73,45
7800,note_on,40,0,5,,,,,,,,5,,,,67,45
7830,note_on,0,0,3,,,,,,,,3,,,,84,45
7830,note_on,0,0,4,,,,,,,,4,,,,75,45
7830,note_off,30,0,4,,,,,,,,4,,,,73,64
7830,note_off,30,0,5,,,,,,,,5,,,,67,64
7830,note_on,0,0,8,,,,,,,,8,,,,84,45
7830,note_off,30,0,3,,,,,,,,3,,,,82,64
7830,note_off,30,0,8,,,,,,,,8,,,,82,64
7830,note_on,0,0,9,,,,,,,,10,,,,75,45
7830,note_off,30,0,9,,,,,,,,10,,,,73,64
7830,note_off,30,0,10,,,,,,,,11,,,,67,64
7830,note_on,0,0,5,,,,,,,,5,,,,68,45
7830,note_on,0,0,10,,,,,,,,11,,,,68,45
7860,note_on,0,0,5,,,,,,,,5,,,,67,45
7860,note_off,30,0,8,,,,,,,,8,,,,84,64
7860,note_on,0,0,8,,,,,,,,8,,,,82,45
7860,note_on,0,0,3,,,,,,,,3,,,,82,45
7860,note_off,30,0,3,,,,,,,,3,,,,84,64
7860,note_off,30,0,4,,,,,,,,4,,,,75,64
7860,note_on,0,0,4,,,,,,,,4,,,,73,45
7860,note_off,30,0,5,,,,,,,,5,,,,68,64
7860,note_on,0,0,9,,,,,,,,10,,,,73,45
7860,note_off,30,0,9,,,,,,,,10,,,,75,64
7860,note_off,30,0,10,,,,,,,,11,,,,68,64
7860,note_on,0,0,10,,,,,,,,11,,,,67,45
7880,note_off,80,0,6,,,,,,,,6,,,,52,64
7880,note_off,80,0,11,,,,,,,,12,,,,52,64
7880,note_off,80,0,7,,,,,,,,7,,,,40,64
7880,note_off,80,0,12,,,,,,,,13,,,,40,64
7890,note_on,0,0,8,,,,,,,,8,,,,84,45
7890,note_off,30,0,8,,,,,,,,8,,,,82,64
7890,note_off,30,0,10,,,,,,,,11,,,,67,64
7890,note_on,0,0,10,,,,,,,,11,,,,68,45
7890,note_off,30,0,5,,,,,,,,5,,,,67,64
7890,note_on,0,0,3,,,,,,,,3,,,,84,45
7890,note_off,30,0,3,,,,,,,,3,,,,82,64
7890,note_on,0,0,5,,,,,,,,5,,,,68,45
7890,note_off,30,0,9,,,,,,,,10,,,,73,64
7890,note_off,30,0,4,,,,,,,,4,,,,73,64
7890,note_on,0,0,4,,,,,,,,4,,,,75,45
7890,note_on,0,0,9,,,,,,,,10,,,,75,45
7920,note_on,0,0,10,,,,,,,,11,,,,67,45
7920,note_off,30,0,9,,,,,,,,10,,,,75,64
7920,note_on,0,0,8,,,,,,,,8,,,,82,45
7920,note_on,0,0,4,,,,,,,,4,,,,73,45
7920,note_off,30,0,4,,,,,,,,4,,,,75,64
7920,note_off,30,0,3,,,,,,,,3,,,,84,64
7920,note_on,0,0,3,,,,,,,,3,,,,82,45
7920,note_off,30,0,10,,,,,,,,11,,,,68,64
7920,note_on,0,0,9,,,,,,,,10,,,,73,45
7920,note_off,30,0,8,,,,,,,,8,,,,84,64
7920,note_off,30,0,5,,,,,,,,5,,,,68,64
7920,note_on,0,0,5,,,,,,,,5,,,,67,45
8000,note_off,80,0,4,,,,,,,,4,,,,73,64
8000,note_off,80,0,10,,,,,,,,11,,,,67,64
8000,note_off,80,0,3,,,,,,,,3,,,,82,64
8000,note_off,80,0,8,,,,,,,,8,,,,82,64
8000,note_off,80,0,5,,,,,,,,5,,,,67,64
8000,note_off,80,0,9,,,,,,,,10,,,,73,64
8035,note_off,235,0,13,,,,,,,,14,,,,40,64
8040,note_on,160,0,11,,,,,,,,12,,,,52,45
8040,note_on,160,0,12,,,,,,,,13,,,,40,45
8040,note_on,160,0,6,,,,,,,,6,,,,52,45
8040,note_on,40,0,8,,,,,,,,8,,,,82,45
8040,note_on,5,0,13,,,,,,,,14,,,,40,30
8040,note_on,40,0,9,,,,,,,,10,,,,73,45
8040,note_on,40,0,4,,,,,,,,4,,,,73,45
8040,note_on,40,0,10,,,,,,,,11,,,,67,45
8040,note_on,160,0,7,,,,,,,,7,,,,40,45
8040,note_on,40,0,3,,,,,,,,3,,,,82,45
8040,note_on,40,0,5,,,,,,,,5,,,,67,45
8070,note_on,0,0,10,,,,,,,,11,,,,68,45
8070,note_on,0,0,3,,,,,,,,3,,,,84,45
8070,note_off,30,0,3,,,,,,,,3,,,,82,64
8070,note_off,30,0,8,,,,,,,,8,,,,82,64
8070,note_on,0,0,8,,,,,,,,8,,,,84,45
8070,note_off,30,0,4,,,,,,,,4,,,,73,64
8070,note_off,30,0,10,,,,,,,,11,,,,67,64
8070,note_on,0,0,4,,,,,,,,4,,,,75,45
8070,note_off,30,0,9,,,,,,,,10,,,,73,64
8070,note_on,0,0,9,,,,,,,,10,,,,75,45
8070,note_off,30,0,5,,,,,,,,5,,,,67,64
8070,note_on,0,0,5,,,,,,,,5,,,,68,45
8100,note_off,30,0,4,,,,,,,,4,,,,75,64
8100,note_on,0,0,3,,,,,,,,3,,,,82,45
8100,note_on,0,0,8,,,,,,,,8,,,,82,45
8100,note_on,0,0,10,,,,,,,,11,,,,67,45
8100,note_off,30,0,10,,,,,,,,11,,,,68,64
8100,note_on,0,0,5,,,,,,,,5,,,,67,45
8100,note_off,30,0,8,,,,,,,,8,,,,84,64
8100,note_off,30,0,3,,,,,,,,3,,,,84,64
8100,note_on,0,0,4,,,,,,,,4,,,,73,45
8100,note_off,30,0,5,,,,,,,,5,,,,68,64
8100,note_off,30,0,9,,,,,,,,10,,,,75,64
8100,note_on,0,0,9,,,,,,,,10,,,,73,45
8120,note_off,80,0,11,,,,,,,,12,,,,52,64
8120,note_off,80,0,7,,,,,,,,7,,,,40,64
8120,note_off,80,0,6,,,,,,,,6,,,,52,64
8120,note_off,80,0,12,,,,,,,,13,,,,40,64
8130,note_off,30,0,8,,,,,,,,8,,,,82,64
8130,note_on,0,0,4,,,,,,,,4,,,,75,45
8130,note_off,30,0,4,,,,,,,,4,,,,73,64
8130,note_on,0,0,8,,,,,,,,8,,,,84,45
8130,note_off,30,0,3,,,,,,,,3,,,,82,64
8130,note_on,0,0,9,,,,,,,,10,,,,75,45
8130,note_off,30,0,9,,,,,,,,10,,,,73,64
8130,note_off,30,0,10,,,,,,,,11,,,,67,64
8130,note_on,0,0,10,,,,,,,,11,,,,68,45
8130,note_off,30,0,5,,,,,,,,5,,,,67,64
8130,note_on,0,0,5,,,,,,,,5,,,,68,45
8130,note_on,0,0,3,,,,,,,,3,,,,84,45
8160,note_on,0,0,9,,,,,,,,10,,,,73,45
8160,note_on,0,0,8,,,,,,,,8,,,,82,45
8160,note_on,0,0,4,,,,,,,,4,,,,73,45
8160,note_off,30,0,4,,,,,,,,4,,,,75,64
8160,note_off,30,0,10,,,,,,,,11,,,,68,64
8160,note_off,30,0,8,,,,,,,,8,,,,84,64
8160,note_on,0,0,10,,,,,,,,11,,,,67,45
8160,note_off,30,0,5,,,,,,,,5,,,,68,64
8160,note_off,30,0,9,,,,,,,,10,,,,75,64
8160,note_on,0,0,3,,,,,,,,3,,,,82,45
8160,note_off,30,0,3,,,,,,,,3,,,,84,64
8160,note_on,0,0,5,,,,,,,,5,,,,67,45
8240,note_off,80,0,5,,,,,,,,5,,,,67,64
8240,note_off,80,0,4,,,,,,,,4,,,,73,64
8240,note_off,80,0,8,,,,,,,,8,,,,82,64
8240,note_off,80,0,3,,,,,,,,3,,,,82,64
8240,note_off,80,0,9,,,,,,,,10,,,,73,64
8240,note_off,80,0,10,,,,,,,,11,,,,67,64
8275,note_off,235,0,13,,,,,,,,14,,,,40,64
8280,note_on,160,0,7,,,,,,,,7,,,,40,45
8280,note_on,40,0,3,,,,,,,,3,,,,82,45
8280,note_on,40,0,5,,,,,,,,5,,,,67,45
8280,note_on,40,0,9,,,,,,,,10,,,,73,45
8280,note_on,40,0,10,,,,,,,,11,,,,67,45
8280,note_on,160,0,11,,,,,,,,12,,,,52,45
8280,note_on,5,0,13,,,,,,,,14,,,,40,30
8280,note_on,40,0,8,,,,,,,,8,,,,82,45
8280,note_on,160,0,12,,,,,,,,13,,,,40,45
8280,note_on,40,0,4,,,,,,,,4,,,,73,45
8280,note_on,160,0,6,,,,,,,,6,,,,52,45
8310,note_on,0,0,3,,,,,,,,3,,,,84,45
8310,note_off,30,0,3,,,,,,,,3,,,,82,64
8310,note_on,0,0,8,,,,,,,,8,,,,84,45
8310,note_off,30,0,8,,,,,,,,8,,,,82,64
8310,note_on,0,0,10,,,,,,,,11,,,,68,45
8310,note_off,30,0,10,,,,,,,,11,,,,67,64
8310,note_off,30,0,5,,,,,,,,5,,,,67,64
8310,note_off,30,0,4,,,,,,,,4,,,,73,64
8310,note_on,0,0,5,,,,,,,,5,,,,68,45
8310,note_on,0,0,4,,,,,,,,4,,,,75,45
8310,note_off,30,0,9,,,,,,,,10,,,,73,64
8310,note_on,0,0,9,,,,,,,,10,,,,75,45
8340,note_on,0,0,5,,,,,,,,5,,,,67,45
8340,note_off,30,0,5,,,,,,,,5,,,,68,64
8340,note_on,0,0,8,,,,,,,,8,,,,82,45
8340,note_off,30,0,8,,,,,,,,8,,,,84,64
8340,note_on,0,0,3,,,,,,,,3,,,,82,45
8340,note_off,30,0,4,,,,,,,,4,,,,75,64
8340,note_on,0,0,10,,,,,,,,11,,,,67,45
8340,note_off,30,0,10,,,,,,,,11,,,,68,64
8340,note_on,0,0,9,,,,,,,,10,,,,73,45
8340,note_off,30,0,3,,,,,,,,3,,,,84,64
8340,note_on,0,0,4,,,,,,,,4,,,,73,45
8340,note_off,30,0,9,,,,,,,,10,,,,75,64
8360,note_off,80,0,7,,,,,,,,7,,,,40,64
8360,note_off,80,0,6,,,,,,,,6,,,,52,64
8360,note_off,80,0,12,,,,,,,,13,,,,40,64
8360,note_off,80,0,11,,,,,,,,12,,,,52,64
8370,note_off,30,0,3,,,,,,,,3,,,,82,64
8370,note_off,30,0,8,,,,,,,,8,,,,82,64
8370,note_off,30,0,5,,,,,,,,5,,,,67,64
8370,note_on,0,0,5,,,,,,,,5,,,,68,45
8370,note_on,0,0,3,,,,,,,,3,,,,84,45
8370,note_on,0,0,8,,,,,,,,8,,,,84,45
8370,note_on,0,0,9,,,,,,,,10,,,,75,45
8370,note_off,30,0,9,,,,,,,,10,,,,73,64
8370,note_on,0,0,10,,,,,,,,11,,,,68,45
8370,note_off,30,0,10,,,,,,,,11,,,,67,64
8370,note_on,0,0,4,,,,,,,,4,,,,75,45
8370,note_off,30,0,4,,,,,,,,4,,,,73,64
8400,note_on,0,0,3,,,,,,,,3,,,,82,45
8400,note_off,30,0,9,,,,,,,,10,,,,75,64
8400,note_on,0,0,9,,,,,,,,10,,,,73,45
8400,note_on,0,0,10,,,,,,,,11,,,,67,45
8400,note_off,30,0,10,,,,,,,,11,,,,68,64
8400,note_off,30,0,3,,,,,,,,3,,,,84,64
8400,note_off,30,0,8,,,,,,,,8,,,,84,64
8400,note_off,30,0,4,,,,,,,,4,,,,75,64
8400,note_off,30,0,5,,,,,,,,5,,,,68,64
8400,note_on,0,0,8,,,,,,,,8,,,,82,45
8400,note_on,0,0,4,,,,,,,,4,,,,73,45
8400,note_on,0,0,5,,,,,,,,5,,,,67,45
8480,note_off,80,0,8,,,,,,,,8,,,,82,64
8480,note_off,80,0,10,,,,,,,,11,,,,67,64
8480,note_off,80,0,9,,,,,,,,10,,,,73,64
8480,note_off,80,0,4,,,,,,,,4,,,,73,64
8480,note_off,80,0,3,,,,,,,,3,,,,82,64
8480,note_off,80,0,5,,,,,,,,5,,,,67,64
8515,note_off,235,0,13,,,,,,,,14,,,,40,64
8520,note_on,160,0,7,,,,,,,,7,,,,40,45
8520,note_on,160,0,12,,,,,,,,13,,,,40,45
8520,note_on,40,0,4,,,,,,,,4,,,,73,45
8520,note_on,160,0,6,,,,,,,,6,,,,52,45
8520,note_on,40,0,3,,,,,,,,3,,,,82,45
8520,note_on,160,0,11,,,,,,,,12,,,,52,45
8520,note_on,40,0,5,,,,,,,,5,,,,67,45
8520,note_on,40,0,10,,,,,,,,11,,,,67,45
8520,note_on,40,0,9,,,,,,,,10,,,,73,45
8520,note_on,40,0,8,,,,,,,,8,,,,82,45
8520,note_on,5,0,13,,,,,,,,14,,,,40,30
8550,note_on,0,0,10,,,,,,,,11,,,,68,45
8550,note_off,30,0,5,,,,,,,,5,,,,67,64
8550,note_off,30,0,3,,,,,,,,3,,,,82,64
8550,note_on,0,0,3,,,,,,,,3,,,,84,45
8550,note_off,30,0,9,,,,,,,,10,,,,73,64
8550,note_on,0,0,4,,,,,,,,4,,,,75,45
8550,note_on,0,0,9,,,,,,,,10,,,,75,45
8550,note_on,0,0,5,,,,,,,,5,,,,68,45
8550,note_off,30,0,10,,,,,,,,11,,,,67,64
8550,note_off,30,0,4,,,,,,,,4,,,,73,64
8550,note_on,0,0,8,,,,,,,,8,,,,84,45
8550,note_off,30,0,8,,,,,,,,8,,,,82,64
8580,note_on,0,0,10,,,,,,,,11,,,,67,45
8580,note_off,30,0,5,,,,,,,,5,,,,68,64
8580,note_off,30,0,10,,,,,,,,11,,,,68,64
8580,note_on,0,0,8,,,,,,,,8,,,,82,45
8580,note_off,30,0,8,,,,,,,,8,,,,84,64
8580,note_on,0,0,4,,,,,,,,4,,,,73,45
8580,note_on,0,0,5,,,,,,,,5,,,,67,45
8580,note_off,30,0,4,,,,,,,,4,,,,75,64
8580,note_off,30,0,9,,,,,,,,10,,,,75,64
8580,note_off,30,0,3,,,,,,,,3,,,,84,64
8580,note_on,0,0,3,,,,,,,,3,,,,82,45
8580,note_on,0,0,9,,,,,,,,10,,,,73,45
8600,note_off,80,0,7,,,,,,,,7,,,,40,64
8600,note_off,80,0,12,,,,,,,,13,,,,40,64
8600,note_off,80,0,11,,,,,,,,12,,,,52,64
8600,note_off,80,0,6,,,,,,,,6,,,,52,64
8610,note_on,0,0,5,,,,,,,,5,,,,68,45
8610,note_on,0,0,3,,,,,,,,3,,,,84,45
8610,note_off,30,0,4,,,,,,,,4,,,,73,64
8610,note_on,0,0,4,,,,,,,,4,,,,75,45
8610,note_on,0,0,10,,,,,,,,11,,,,68,45
8610,note_off,30,0,5,,,,,,,,5,,,,67,64
8610,note_off,30,0,9,,,,,,,,10,,,,73,64
8610,note_on,0,0,9,,,,,,,,10,,,,75,45
8610,note_off,30,0,10,,,,,,,,11,,,,67,64
8610,note_off,30,0,8,,,,,,,,8,,,,82,64
8610,note_on,0,0,8,,,,,,,,8,,,,84,45
8610,note_off,30,0,3,,,,,,,,3,,,,82,64
8640,note_on,0,0,10,,,,,,,,11,,,,67,45
8640,note_off,30,0,4,,,,,,,,4,,,,75,64
8640,note_off,30,0,8,,,,,,,,8,,,,84,64
8640,note_on,0,0,8,,,,,,,,8,,,,82,45
8640,note_on,0,0,4,,,,,,,,4,,,,73,45
8640,note_off,30,0,10,,,,,,,,11,,,,68,64
8640,note_off,30,0,3,,,,,,,,3,,,,84,64
8640,note_off,30,0,5,,,,,,,,5,,,,68,64
8640,note_on,0,0,5,,,,,,,,5,,,,67,45
8640,note_off,30,0,9,,,,,,,,10,,,,75,64
8640,note_on,0,0,9,,,,,,,,10,,,,73,45
8640,note_on,0,0,3,,,,,,,,3,,,,82,45
8720,note_off,80,0,8,,,,,,,,8,,,,82,64
8720,note_off,80,0,5,,,,,,,,5,,,,67,64
8720,note_off,80,0,4,,,,,,,,4,,,,73,64
8720,note_off,80,0,9,,,,,,,,10,,,,73,64
8720,note_off,80,0,3,,,,,,,,3,,,,82,64
8720,note_off,80,0,10,,,,,,,,11,,,,67,64
8755,note_off,235,0,13,,,,,,,,14,,,,40,64
8760,note_on,40,0,9,,,,,,,,10,,,,73,45
8760,note_on,160,0,7,,,,,,,,7,,,,40,45
8760,note_on,160,0,12,,,,,,,,13,,,,40,45
8760,note_on,40,0,4,,,,,,,,4,,,,73,45
8760,note_on,160,0,11,,,,,,,,12,,,,52,45
8760,note_on,5,0,13,,,,,,,,14,,,,40,30
8760,note_on,40,0,8,,,,,,,,8,,,,82,45
8760,note_on,40,0,10,,,,,,,,11,,,,67,45
8760,note_on,160,0,6,,,,,,,,6,,,,52,45
8760,note_on,40,0,5,,,,,,,,5,,,,67,45
8760,note_on,40,0,3,,,,,,,,3,,,,82,45
8790,note_on,0,0,4,,,,,,,,4,,,,75,45
8790,note_off,30,0,3,,,,,,,,3,,,,82,64
8790,note_on,0,0,3,,,,,,,,3,,,,84,45
8790,note_off,30,0,5,,,,,,,,5,,,,67,64
8790,note_off,30,0,4,,,,,,,,4,,,,73,64
8790,note_off,30,0,9,,,,,,,,10,,,,73,64
8790,note_on,0,0,9,,,,,,,,10,,,,75,45
8790,note_off,30,0,10,,,,,,,,11,,,,67,64
8790,note_off,30,0,8,,,,,,,,8,,,,82,64
8790,note_on,0,0,8,,,,,,,,8,,,,84,45
8790,note_on,0,0,5,,,,,,,,5,,,,68,45
8790,note_on,0,0,10,,,,,,,,11,,,,68,45
8820,note_off,30,0,9,,,,,,,,10,,,,75,64
8820,note_on,0,0,4,,,,,,,,4,,,,73,45
8820,note_off,30,0,5,,,,,,,,5,,,,68,64
8820,note_on,0,0,5,,,,,,,,5,,,,67,45
8820,note_off,30,0,3,,,,,,,,3,,,,84,64
8820,note_on,0,0,8,,,,,,,,8,,,,82,45
8820,note_off,30,0,8,,,,,,,,8,,,,84,64
8820,note_on,0,0,9,,,,,,,,10,,,,73,45
8820,note_off,30,0,10,,,,,,,,11,,,,68,64
8820,note_on,0,0,10,,,,,,,,11,,,,67,45
8820,note_on,0,0,3,,,,,,,,3,,,,82,45
8820,note_off,30,0,4,,,,,,,,4,,,,75,64
8840,note_off,80,0,12,,,,,,,,13,,,,40,64
8840,note_off,80,0,11,,,,,,,,12,,,,52,64
8840,note_off,80,0,6,,,,,,,,6,,,,52,64
8840,note_off,80,0,7,,,,,,,,7,,,,40,64
8850,note_on,0,0,10,,,,,,,,11,,,,68,45
8850,note_on,0,0,3,,,,,,,,3,,,,84,45
8850,note_off,30,0,3,,,,,,,,3,,,,82,64
8850,note_off,30,0,10,,,,,,,,11,,,,67,64
8850,note_off,30,0,8,,,,,,,,8,,,,82,64
8850,note_on,0,0,8,,,,,,,,8,,,,84,45
8850,note_on,0,0,5,,,,,,,,5,,,,68,45
8850,note_on,0,0,4,,,,,,,,4,,,,75,45
8850,note_off,30,0,5,,,,,,,,5,,,,67,64
8850,note_off,30,0,4,,,,,,,,4,,,,73,64
8850,note_on,0,0,9,,,,,,,,10,,,,75,45
8850,note_off,30,0,9,,,,,,,,10,,,,73,64
8880,note_off,30,0,10,,,,,,,,11,,,,68,64
8880,note_on,0,0,10,,,,,,,,11,,,,67,45
8880,note_off,30,0,4,,,,,,,,4,,,,75,64
8880,note_off,30,0,3,,,,,,,,3,,,,84,64
8880,note_off,30,0,8,,,,,,,,8,,,,84,64
8880,note_on,0,0,8,,,,,,,,8,,,,82,45
8880,note_on,0,0,3,,,,,,,,3,,,,82,45
8880,note_on,0,0,9,,,,,,,,10,,,,73,45
8880,note_off,30,0,9,,,,,,,,10,,,,75,64
8880,note_on,0,0,4,,,,,,,,4,,,,73,45
8880,note_on,0,0,5,,,,,,,,5,,,,67,45
8880,note_off,30,0,5,,,,,,,,5,,,,68,64
8960,note_off,80,0,10,,,,,,,,11,,,,67,64
8960,note_off,80,0,4,,,,,,,,4,,,,73,64
8960,note_off,80,0,3,,,,,,,,3,,,,82,64
8960,note_off,80,0,8,,,,,,,,8,,,,82,64
8960,note_off,80,0,9,,,,,,,,10,,,,73,64
8960,note_off,80,0,5,,,,,,,,5,,,,67,64
8995,note_off,235,0,13,,,,,,,,14,,,,40,64
9000,note_on,40,0,5,,,,,,,,5,,,,67,45
9000,note_on,40,0,10,,,,,,,,11,,,,67,45
9000,note_on,40,0,3,,,,,,,,3,,,,82,45
9000,note_on,5,0,13,,,,,,,,14,,,,40,30
9000,note_on,160,0,12,,,,,,,,13,,,,40,45
9000,note_on,160,0,11,,,,,,,,12,,,,52,45
9000,note_on,40,0,9,,,,,,,,10,,,,73,45
9000,note_on,160,0,7,,,,,,,,7,,,,40,45
9000,note_on,160,0,6,,,,,,,,6,,,,52,45
9000,note_on,40,0,4,,,,,,,,4,,,,73,45
9000,note_on,40,0,8,,,,,,,,8,,,,82,45
9030,note_off,30,0,3,,,,,,,,3,,,,82,64
9030,note_off,30,0,4,,,,,,,,4,,,,73,64
9030,note_on,0,0,5,,,,,,,,5,,,,68,45
9030,note_on,0,0,10,,,,,,,,11,,,,68,45
9030,note_off,30,0,10,,,,,,,,11,,,,67,64
9030,note_on,0,0,8,,,,,,,,8,,,,84,45
9030,note_off,30,0,8,,,,,,,,8,,,,82,64
9030,note_off,30,0,5,,,,,,,,5,,,,67,64
9030,note_on,0,0,9,,,,,,,,10,,,,75,45
9030,note_off,30,0,9,,,,,,,,10,,,,73,64
9030,note_on,0,0,3,,,,,,,,3,,,,84,45
9030,note_on,0,0,4,,,,,,,,4,,,,75,45
9060,note_off,30,0,4,,,,,,,,4,,,,75,64
9060,note_on,0,0,4,,,,,,,,4,,,,73,45
9060,note_on,0,0,9,,,,,,,,10,,,,73,45
9060,note_on,0,0,3,,,,,,,,3,,,,82,45
9060,note_off,30,0,10,,,,,,,,11,,,,68,64
9060,note_on,0,0,10,,,,,,,,11,,,,67,45
9060,note_on,0,0,8,,,,,,,,8,,,,82,45
9060,note_on,0,0,5,,,,,,,,5,,,,67,45
9060,note_off,30,0,5,,,,,,,,5,,,,68,64
9060,note_off,30,0,9,,,,,,,,10,,,,75,64
9060,note_off,30,0,3,,,,,,,,3,,,,84,64
9060,note_off,30,0,8,,,,,,,,8,,,,84,64
9080,note_off,80,0,11,,,,,,,,12,,,,52,64
9080,note_off,80,0,6,,,,,,,,6,,,,52,64
9080,note_off,80,0,12,,,,,,,,13,,,,40,64
9080,note_off,80,0,7,,,,,,,,7,,,,40,64
9090,note_off,30,0,8,,,,,,,,8,,,,82,64
9090,note_off,30,0,5,,,,,,,,5,,,,67,64
9090,note_on,0,0,5,,,,,,,,5,,,,68,45
9090,note_off,30,0,9,,,,,,,,10,,,,73,64
9090,note_on,0,0,9,,,,,,,,10,,,,75,45
9090,note_on,0,0,4,,,,,,,,4,,,,75,45
9090,note_on,0,0,8,,,,,,,,8,,,,84,45
9090,note_off,30,0,3,,,,,,,,3,,,,82,64
9090,note_on,0,0,3,,,,,,,,3,,,,84,45
9090,note_off,30,0,4,,,,,,,,4,,,,73,64
9090,note_on,0,0,10,,,,,,,,11,,,,68,45
9090,note_off,30,0,10,,,,,,,,11,,,,67,64
9120,note_off,30,0,4,,,,,,,,4,,,,75,64
9120,note_off,30,0,5,,,,,,,,5,,,,68,64
9120,note_on,0,0,3,,,,,,,,3,,,,82,45
9120,note_off,30,0,3,,,,,,,,3,,,,84,64
9120,note_off,30,0,10,,,,,,,,11,,,,68,64
9120,note_on,0,0,10,,,,,,,,11,,,,67,45
9120,note_off,30,0,8,,,,,,,,8,,,,84,64
9120,note_on,0,0,4,,,,,,,,4,,,,73,45
9120,note_on,0,0,8,,,,,,,,8,,,,82,45
9120,note_off,30,0,9,,,,,,,,10,,,,75,64
9120,note_on,0,0,5,,,,,,,,5,,,,67,45
9120,note_on,0,0,9,,,,,,,,10,,,,73,45
9200,note_off,80,0,9,,,,,,,,10,,,,73,64
9200,note_off,80,0,10,,,,,,,,11,,,,67,64
9200,note_off,80,0,4,,,,,,,,4,,,,73,64
9200,note_off,80,0,8,,,,,,,,8,,,,82,64
9200,note_off,80,0,3,,,,,,,,3,,,,82,64
9200,note_off,80,0,5,,,,,,,,5,,,,67,64
9235,note_off,235,0,13,,,,,,,,14,,,,40,64
9240,note_on,160,0,12,,,,,,,,13,,,,40,45
9240,note_on,40,0,10,,,,,,,,11,,,,67,45
9240,note_on,160,0,6,,,,,,,,6,,,,52,45
9240,note_on,5,0,13,,,,,,,,14,,,,40,30
9240,note_on,40,0,3,,,,,,,,3,,,,82,45
9240,note_on,160,0,7,,,,,,,,7,,,,40,45
9240,note_on,40,0,9,,,,,,,,10,,,,73,45
9240,note_on,40,0,4,,,,,,,,4,,,,73,45
9240,note_on,160,0,11,,,,,,,,12,,,,52,45
9240,note_on,40,0,5,,,,,,,,5,,,,67,45
9240,note_on,40,0,8,,,,,,,,8,,,,82,45
9270,note_off,30,0,3,,,,,,,,3,,,,82,64
9270,note_off,30,0,9,,,,,,,,10,,,,73,64
9270,note_on,0,0,9,,,,,,,,10,,,,75,45
9270,note_on,0,0,8,,,,,,,,8,,,,84,45
9270,note_on,0,0,10,,,,,,,,11,,,,68,45
9270,note_on,0,0,3,,,,,,,,3,,,,84,45
9270,note_off,30,0,8,,,,,,,,8,,,,82,64
9270,note_off,30,0,10,,,,,,,,11,,,,67,64
9270,note_off,30,0,4,,,,,,,,4,,,,73,64
9270,note_on,0,0,4,,,,,,,,4,,,,75,45
9270,note_off,30,0,5,,,,,,,,5,,,,67,64
9270,note_on,0,0,5,,,,,,,,5,,,,68,45
9300,note_off,30,0,8,,,,,,,,8,,,,84,64
9300,note_off,30,0,4,,,,,,,,4,,,,75,64
9300,note_on,0,0,4,,,,,,,,4,,,,73,45
9300,note_on,0,0,9,,,,,,,,10,,,,73,45
9300,note_off,30,0,9,,,,,,,,10,,,,75,64
9300,note_off,30,0,10,,,,,,,,11,,,,68,64
9300,note_on,0,0,5,,,,,,,,5,,,,67,45
9300,note_off,30,0,5,,,,,,,,5,,,,68,64
9300,note_off,30,0,3,,,,,,,,3,,,,84,64
9300,note_on,0,0,3,,,,,,,,3,,,,82,45
9300,note_on,0,0,8,,,,,,,,8,,,,82,45
9300,note_on,0,0,10,,,,,,,,11,,,,67,45
9320,note_off,80,0,11,,,,,,,,12,,,,52,64
9320,note_off,80,0,7,,,,,,,,7,,,,40,64
9320,note_off,80,0,12,,,,,,,,13,,,,40,64
9320,note_off,80,0,6,,,,,,,,6,,,,52,64
9330,note_on,0,0,10,,,,,,,,11,,,,68,45
9330,note_on,0,0,9,,,,,,,,10,,,,75,45
9330,note_off,30,0,9,,,,,,,,10,,,,73,64
9330,note_off,30,0,4,,,,,,,,4,,,,73,64
9330,note_on,0,0,4,,,,,,,,4,,,,75,45
9330,note_on,0,0,8,,,,,,,,8,,,,84,45
9330,note_on,0,0,5,,,,,,,,5,,,,68,45
9330,note_off,30,0,5,,,,,,,,5,,,,67,64
9330,note_off,30,0,8,,,,,,,,8,,,,82,64
9330,note_on,0,0,3,,,,,,,,3,,,,84,45
9330,note_off,30,0,3,,,,,,,,3,,,,82,64
9330,note_off,30,0,10,,,,,,,,11,,,,67,64
9360,note_on,0,0,10,,,,,,,,11,,,,67,45
9360,note_on,0,0,8,,,,,,,,8,,,,82,45
9360,note_off,30,0,8,,,,,,,,8,,,,84,64
9360,note_off,30,0,10,,,,,,,,11,,,,68,64
9360,note_on,0,0,9,,,,,,,,10,,,,73,45
9360,note_off,30,0,3,,,,,,,,3,,,,84,64
9360,note_on,0,0,4,,,,,,,,4,,,,73,45
9360,note_off,30,0,4,,,,,,,,4,,,,75,64
9360,note_off,30,0,9,,,,,,,,10,,,,75,64
9360,note_on,0,0,3,,,,,,,,3,,,,82,45
9360,note_on,0,0,5,,,,,,,,5,,,,67,45
9360,note_off,30,0,5,,,,,,,,5,,,,68,64
9440,note_off,80,0,3,,,,,,,,3,,,,82,64
9440,note_off,80,0,10,,,,,,,,11,,,,67,64
9440,note_off,80,0,8,,,,,,,,8,,,,82,64
9440,note_off,80,0,4,,,,,,,,4,,,,73,64
9440,note_off,80,0,9,,,,,,,,10,,,,73,64
9440,note_off,80,0,5,,,,,,,,5,,,,67,64
9475,note_off,235,0,13,,,,,,,,14,,,,40,64
9480,note_on,160,0,11,,,,,,,,12,,,,52,45
9480,note_on,40,0,4,,,,,,,,4,,,,73,45
9480,note_on,160,0,7,,,,,,,,7,,,,40,45
9480,note_on,40,0,10,,,,,,,,11,,,,67,45
9480,note_on,40,0,5,,,,,,,,5,,,,67,45
9480,note_on,40,0,3,,,,,,,,3,,,,82,45
9480,note_on,160,0,12,,,,,,,,13,,,,40,45
9480,note_on,40,0,8,,,,,,,,8,,,,82,45
9480,note_on,40,0,9,,,,,,,,10,,,,73,45
9480,note_on,5,0,13,,,,,,,,14,,,,40,30
9480,note_on,160,0,6,,,,,,,,6,,,,52,45
9510,note_off,30,0,4,,,,,,,,4,,,,73,64
9510,note_on,0,0,4,,,,,,,,4,,,,75,45
9510,note_on,0,0,5,,,,,,,,5,,,,68,45
9510,note_off,30,0,5,,,,,,,,5,,,,67,64
9510,note_off,30,0,9,,,,,,,,10,,,,73,64
9510,note_on,0,0,9,,,,,,,,10,,,,75,45
9510,note_off,30,0,10,,,,,,,,11,,,,67,64
9510,note_on,0,0,10,,,,,,,,11,,,,68,45
9510,note_on,0,0,8,,,,,,,,8,,,,84,45
9510,note_on,0,0,3,,,,,,,,3,,,,84,45
9510,note_off,30,0,3,,,,,,,,3,,,,82,64
9510,note_off,30,0,8,,,,,,,,8,,,,82,64
9540,note_off,30,0,4,,,,,,,,4,,,,75,64
9540,note_on,0,0,4,,,,,,,,4,,,,73,45
9540,note_on,0,0,9,,,,,,,,10,,,,73,45
9540,note_off,30,0,9,,,,,,,,10,,,,75,64
9540,note_off,30,0,8,,,,,,,,8,,,,84,64
9540,note_off,30,0,5,,,,,,,,5,,,,68,64
9540,note_on,0,0,5,,,,,,,,5,,,,67,45
9540,note_on,0,0,8,,,,,,,,8,,,,82,45
9540,note_off,30,0,10,,,,,,,,11,,,,68,64
9540,note_on,0,0,10,,,,,,,,11,,,,67,45
9540,note_on,0,0,3,,,,,,,,3,,,,82,45
9540,note_off,30,0,3,,,,,,,,3,,,,84,64
9560,note_off,80,0,11,,,,,,,,12,,,,52,64
9560,note_off,80,0,6,,,,,,,,6,,,,52,64
9560,note_off,80,0,12,,,,,,,,13,,,,40,64
9560,note_off,80,0,7,,,,,,,,7,,,,40,64
9570,note_off,30,0,10,,,,,,,,11,,,,67,64
9570,note_on,0,0,4,,,,,,,,4,,,,75,45
9570,note_off,30,0,4,,,,,,,,4,,,,73,64
9570,note_off,30,0,3,,,,,,,,3,,,,82,64
9570,note_on,0,0,10,,,,,,,,11,,,,68,45
9570,note_on,0,0,5,,,,,,,,5,,,,68,45
9570,note_off,30,0,5,,,,,,,,5,,,,67,64
9570,note_off,30,0,8,,,,,,,,8,,,,82,64
9570,note_off,30,0,9,,,,,,,,10,,,,73,64
9570,note_on,0,0,9,,,,,,,,10,,,,75,45
9570,note_on,0,0,3,,,,,,,,3,,,,84,45
9570,note_on,0,0,8,,,,,,,,8,,,,84,45
9600,note_on,0,0,3,,,,,,,,3,,,,82,45
9600,note_off,30,0,8,,,,,,,,8,,,,84,64
9600,note_off,30,0,3,,,,,,,,3,,,,84,64
9600,note_off,30,0,10,,,,,,,,11,,,,68,64
9600,note_on,0,0,8,,,,,,,,8,,,,82,45
9600,note_on,0,0,5,,,,,,,,5,,,,67,45
9600,note_off,30,0,5,,,,,,,,5,,,,68,64
9600,note_off,30,0,4,,,,,,,,4,,,,75,64
9600,note_on,0,0,4,,,,,,,,4,,,,73,45
9600,note_off,30,0,9,,,,,,,,10,,,,75,64
9600,note_on,0,0,9,,,,,,,,10,,,,73,45
9600,note_on,0,0,10,,,,,,,,11,,,,67,45
9680,note_off,80,0,9,,,,,,,,10,,,,73,64
9680,note_off,80,0,10,,,,,,,,11,,,,67,64
9680,note_off,80,0,5,,,,,,,,5,,,,67,64
9680,note_off,80,0,8,,,,,,,,8,,,,82,64
9680,note_off,80,0,3,,,,,,,,3,,,,82,64
9680,note_off,80,0,4,,,,,,,,4,,,,73,64
9715,note_off,235,0,13,,,,,,,,14,,,,40,64
9720,note_on,160,0,7,,,,,,,,7,,,,41,45
9720,note_on,40,0,5,,,,,,,,5,,,,68,45
9720,note_on,160,0,12,,,,,,,,13,,,,41,45
9720,note_on,160,0,6,,,,,,,,6,,,,53,45
9720,note_on,5,0,13,,,,,,,,14,,,,41,30
9720,note_on,40,0,4,,,,,,,,4,,,,72,45
9720,note_on,40,0,9,,,,,,,,10,,,,72,45
9720,note_on,160,0,11,,,,,,,,12,,,,53,45
9720,note_on,40,0,3,,,,,,,,3,,,,80,45
9720,note_on,40,0,8,,,,,,,,8,,,,80,45
9720,note_on,40,0,10,,,,,,,,11,,,,68,45
9750,note_on,0,0,4,,,,,,,,4,,,,73,45
9750,note_off,30,0,9,,,,,,,,10,,,,72,64
9750,note_on,0,0,9,,,,,,,,10,,,,73,45
9750,note_on,0,0,3,,,,,,,,3,,,,82,45
9750,note_off,30,0,3,,,,,,,,3,,,,80,64
9750,note_off,30,0,5,,,,,,,,5,,,,68,64
9750,note_on,0,0,5,,,,,,,,5,,,,70,45
9750,note_off,30,0,4,,,,,,,,4,,,,72,64
9750,note_on,0,0,8,,,,,,,,8,,,,82,45
9750,note_off,30,0,8,,,,,,,,8,,,,80,64
9750,note_off,30,0,10,,,,,,,,11,,,,68,64
9750,note_on,0,0,10,,,,,,,,11,,,,70,45
9780,note_on,0,0,10,,,,,,,,11,,,,68,45
9780,note_off,30,0,4,,,,,,,,4,,,,73,64
9780,note_on,0,0,3,,,,,,,,3,,,,80,45
9780,note_off,30,0,3,,,,,,,,3,,,,82,64
9780,note_on,0,0,4,,,,,,,,4,,,,72,45
9780,note_off,30,0,9,,,,,,,,10,,,,73,64
9780,note_on,0,0,9,,,,,,,,10,,,,72,45
9780,note_off,30,0,10,,,,,,,,11,,,,70,64
9780,note_on,0,0,8,,,,,,,,8,,,,80,45
9780,note_on,0,0,5,,,,,,,,5,,,,68,45
9780,note_off,30,0,5,,,,,,,,5,,,,70,64
9780,note_off,30,0,8,,,,,,,,8,,,,82,64
9800,note_off,80,0,7,,,,,,,,7,,,,41,64
9800,note_off,80,0,11,,,,,,,,12,,,,53,64
9800,note_off,80,0,12,,,,,,,,13,,,,41,64
9800,note_off,80,0,6,,,,,,,,6,,,,53,64
9810,note_off,30,0,10,,,,,,,,11,,,,68,64
9810,note_on,0,0,3,,,,,,,,3,,,,82,45
9810,note_off,30,0,3,,,,,,,,3,,,,80,64
9810,note_on,0,0,4,,,,,,,,4,,,,73,45
9810,note_off,30,0,4,,,,,,,,4,,,,72,64
9810,note_on,0,0,5,,,,,,,,5,,,,70,45
9810,note_off,30,0,5,,,,,,,,5,,,,68,64
9810,note_off,30,0,9,,,,,,,,10,,,,72,64
9810,note_on,0,0,8,,,,,,,,8,,,,82,45
9810,note_off,30,0,8,,,,,,,,8,,,,80,64
9810,note_on,0,0,9,,,,,,,,10,,,,73,45
9810,note_on,0,0,10,,,,,,,,11,,,,70,45
9840,note_on,0,0,10,,,,,,,,11,,,,68,45
9840,note_off,30,0,10,,,,,,,,11,,,,70,64
9840,note_on,0,0,9,,,,,,,,10,,,,72,45
9840,note_off,30,0,9,,,,,,,,10,,,,73,64
9840,note_on,0,0,3,,,,,,,,3,,,,80,45
9840,note_on,0,0,5,,,,,,,,5,,,,68,45
9840,note_off,30,0,3,,,,,,,,3,,,,82,64
9840,note_off,30,0,5,,,,,,,,5,,,,70,64
9840,note_off,30,0,4,,,,,,,,4,,,,73,64
9840,note_on,0,0,4,,,,,,,,4,,,,72,45
9840,note_on,0,0,8,,,,,,,,8,,,,80,45
9840,note_off,30,0,8,,,,,,,,8,,,,82,64
9920,note_off,80,0,5,,,,,,,,5,,,,68,64
9920,note_off,80,0,4,,,,,,,,4,,,,72,64
9920,note_off,80,0,10,,,,,,,,11,,,,68,64
9920,note_off,80,0,9,,,,,,,,10,,,,72,64
9920,note_off,80,0,8,,,,,,,,8,,,,80,64
9920,note_off,80,0,3,,,,,,,,3,,,,80,64
9955,note_off,235,0,13,,,,,,,,14,,,,41,64
9960,note_on,40,0,8,,,,,,,,8,,,,80,45
9960,note_on,40,0,5,,,,,,,,5,,,,68,45
9960,note_on,160,0,11,,,,,,,,12,,,,53,45
9960,note_on,40,0,3,,,,,,,,3,,,,80,45
9960,note_on,160,0,12,,,,,,,,13,,,,41,45
9960,note_on,40,0,4,,,,,,,,4,,,,72,45
9960,note_on,5,0,13,,,,,,,,14,,,,41,30
9960,note_on,40,0,9,,,,,,,,10,,,,72,45
9960,note_on,40,0,10,,,,,,,,11,,,,68,45
9960,note_on,160,0,6,,,,,,,,6,,,,53,45
9960,note_on,160,0,7,,,,,,,,7,,,,41,45
9990,note_off,30,0,4,,,,,,,,4,,,,72,64
9990,note_off,30,0,3,,,,,,,,3,,,,80,64
9990,note_off,30,0,9,,,,,,,,10,,,,72,64
9990,note_on,0,0,9,,,,,,,,10,,,,73,45
9990,note_off,30,0,10,,,,,,,,11,,,,68,64
9990,note_on,0,0,5,,,,,,,,5,,,,70,45
9990,note_off,30,0,5,,,,,,,,5,,,,68,64
9990,note_on,0,0,3,,,,,,,,3,,,,82,45
9990,note_off,30,0,8,,,,,,,,8,,,,80,64
9990,note_on,0,0,8,,,,,,,,8,,,,82,45
9990,note_on,0,0,10,,,,,,,,11,,,,70,45
9990,note_on,0,0,4,,,,,,,,4,,,,73,45
10020,note_on,0,0,8,,,,,,,,8,,,,80,45
10020,note_off,30,0,5,,,,,,,,5,,,,70,64
10020,note_off,30,0,4,,,,,,,,4,,,,73,64
10020,note_on,0,0,5,,,,,,,,5,,,,68,45
10020,note_off,30,0,9,,,,,,,,10,,,,73,64
10020,note_on,0,0,9,,,,,,,,10,,,,72,45
10020,note_off,30,0,3,,,,,,,,3,,,,82,64
10020,note_on,0,0,3,,,,,,,,3,,,,80,45
10020,note_on,0,0,10,,,,,,,,11,,,,68,45
10020,note_off,30,0,10,,,,,,,,11,,,,70,64
10020,note_on,0,0,4,,,,,,,,4,,,,72,45
10020,note_off,30,0,8,,,,,,,,8,,,,82,64
10040,note_off,80,0,6,,,,,,,,6,,,,53,64
10040,note_off,80,0,12,,,,,,,,13,,,,41,64
10040,note_off,80,0,7,,,,,,,,7,,,,41,64
10040,note_off,80,0,11,,,,,,,,12,,,,53,64
10050,note_off,30,0,3,,,,,,,,3,,,,80,64
10050,note_off,30,0,9,,,,,,,,10,,,,72,64
10050,note_on,0,0,9,,,,,,,,10,,,,73,45
10050,note_on,0,0,3,,,,,,,,3,,,,82,45
10050,note_on,0,0,5,,,,,,,,5,,,,70,45
10050,note_on,0,0,8,,,,,,,,8,,,,82,45
10050,note_off,30,0,4,,,,,,,,4,,,,72,64
10050,note_off,30,0,10,,,,,,,,11,,,,68,64
10050,note_on,0,0,10,,,,,,,,11,,,,70,45
10050,note_off,30,0,5,,,,,,,,5,,,,68,64
10050,note_on,0,0,4,,,,,,,,4,,,,73,45
10050,note_off,30,0,8,,,,,,,,8,,,,80,64
10080,note_on,0,0,9,,,,,,,,10,,,,72,45
10080,note_off,30,0,9,,,,,,,,10,,,,73,64
10080,note_off,30,0,10,,,,,,,,11,,,,70,64
10080,note_on,0,0,10,,,,,,,,11,,,,68,45
10080,note_on,0,0,8,,,,,,,,8,,,,80,45
10080,note_off,30,0,8,,,,,,,,8,,,,82,64
10080,note_off,30,0,4,,,,,,,,4,,,,73,64
10080,note_off,30,0,3,,,,,,,,3,,,,82,64
10080,note_on,0,0,3,,,,,,,,3,,,,80,45
10080,note_off,30,0,5,,,,,,,,5,,,,70,64
10080,note_on,0,0,5,,,,,,,,5,,,,68,45
10080,note_on,0,0,4,,,,,,,,4,,,,72,45
10160,note_off,80,0,4,,,,,,,,4,,,,72,64
10160,note_off,80,0,8,,,,,,,,8,,,,80,64
10160,note_off,80,0,3,,,,,,,,3,,,,80,64
10160,note_off,80,0,5,,,,,,,,5,,,,68,64
10160,note_off,80,0,9,,,,,,,,10,,,,72,64
10160,note_off,80,0,10,,,,,,,,11,,,,68,64
10195,note_off,235,0,13,,,,,,,,14,,,,41,64
10200,note_on,40,0,3,,,,,,,,3,,,,80,45
10200,note_on,40,0,4,,,,,,,,4,,,,72,45
10200,note_on,40,0,8,,,,,,,,8,,,,80,45
10200,note_on,40,0,9,,,,,,,,10,,,,72,45
10200,note_on,5,0,13,,,,,,,,14,,,,41,30
10200,note_on,40,0,5,,,,,,,,5,,,,68,45
10200,note_on,160,0,7,,,,,,,,7,,,,41,45
10200,note_on,160,0,11,,,,,,,,12,,,,53,45
10200,note_on,160,0,6,,,,,,,,6,,,,53,45
10200,note_on,160,0,12,,,,,,,,13,,,,41,45
10200,note_on,40,0,10,,,,,,,,11,,,,68,45
10230,note_on,0,0,10,,,,,,,,11,,,,70,45
10230,note_off,30,0,10,,,,,,,,11,,,,68,64
10230,note_on,0,0,8,,,,,,,,8,,,,82,45
10230,note_off,30,0,4,,,,,,,,4,,,,72,64
10230,note_on,0,0,4,,,,,,,,4,,,,73,45
10230,note_off,30,0,3,,,,,,,,3,,,,80,64
10230,note_on,0,0,5,,,,,,,,5,,,,70,45
10230,note_off,30,0,9,,,,,,,,10,,,,72,64
10230,note_on,0,0,9,,,,,,,,10,,,,73,45
10230,note_off,30,0,8,,,,,,,,8,,,,80,64
10230,note_on,0,0,3,,,,,,,,3,,,,82,45
10230,note_off,30,0,5,,,,,,,,5,,,,68,64
10260,note_on,0,0,3,,,,,,,,3,,,,80,45
10260,note_on,0,0,9,,,,,,,,10,,,,72,45
10260,note_off,30,0,9,,,,,,,,10,,,,73,64
10260,note_off,30,0,10,,,,,,,,11,,,,70,64
10260,note_on,0,0,10,,,,,,,,11,,,,68,45
10260,note_on,0,0,8,,,,,,,,8,,,,80,45
10260,note_on,0,0,4,,,,,,,,4,,,,72,45
10260,note_off,30,0,4,,,,,,,,4,,,,73,64
10260,note_off,30,0,8,,,,,,,,8,,,,82,64
10260,note_off,30,0,3,,,,,,,,3,,,,82,64
10260,note_on,0,0,5,,,,,,,,5,,,,68,45
10260,note_off,30,0,5,,,,,,,,5,,,,70,64
10280,note_off,80,0,7,,,,,,,,7,,,,41,64
10280,note_off,80,0,11,,,,,,,,12,,,,53,64
10280,note_off,80,0,6,,,,,,,,6,,,,53,64
10280,note_off,80,0,12,,,,,,,,13,,,,41,64
10290,note_off,30,0,8,,,,,,,,8,,,,80,64
10290,note_on,0,0,8,,,,,,,,8,,,,82,45
10290,note_off,30,0,3,,,,,,,,3,,,,80,64
10290,note_on,0,0,9,,,,,,,,10,,,,73,45
10290,note_off,30,0,9,,,,,,,,10,,,,72,64
10290,note_on,0,0,3,,,,,,,,3,,,,82,45
10290,note_off,30,0,10,,,,,,,,11,,,,68,64
10290,note_on,0,0,5,,,,,,,,5,,,,70,45
10290,note_on,0,0,10,,,,,,,,11,,,,70,45
10290,note_off,30,0,5,,,,,,,,5,,,,68,64
10290,note_off,30,0,4,,,,,,,,4,,,,72,64
10290,note_on,0,0,4,,,,,,,,4,,,,73,45
10320,note_on,0,0,8,,,,,,,,8,,,,80,45
10320,note_off,30,0,8,,,,,,,,8,,,,82,64
10320,note_off,30,0,4,,,,,,,,4,,,,73,64
10320,note_on,0,0,9,,,,,,,,10,,,,72,45
10320,note_off,30,0,9,,,,,,,,10,,,,73,64
10320,note_on,0,0,4,,,,,,,,4,,,,72,45
10320,note_on,0,0,5,,,,,,,,5,,,,68,45
10320,note_off,30,0,3,,,,,,,,3,,,,82,64
10320,note_on,0,0,3,,,,,,,,3,,,,80,45
10320,note_off,30,0,5,,,,,,,,5,,,,70,64
10320,note_off,30,0,10,,,,,,,,11,,,,70,64
10320,note_on,0,0,10,,,,,,,,11,,,,68,45
10400,note_off,80,0,10,,,,,,,,11,,,,68,64
10400,note_off,80,0,8,,,,,,,,8,,,,80,64
10400,note_off,80,0,9,,,,,,,,10,,,,72,64
10400,note_off,80,0,3,,,,,,,,3,,,,80,64
10400,note_off,80,0,5,,,,,,,,5,,,,68,64
10400,note_off,80,0,4,,,,,,,,4,,,,72,64
10435,note_off,235,0,13,,,,,,,,14,,,,41,64
10440,note_on,40,0,8,,,,,,,,8,,,,80,45
10440,note_on,160,0,12,,,,,,,,13,,,,41,45
10440,note_on,5,0,13,,,,,,,,14,,,,41,30
10440,note_on,160,0,11,,,,,,,,12,,,,53,45
10440,note_on,40,0,4,,,,,,,,4,,,,72,45
10440,note_on,160,0,7,,,,,,,,7,,,,41,45
10440,note_on,40,0,5,,,,,,,,5,,,,68,45
10440,note_on,40,0,3,,,,,,,,3,,,,80,45
10440,note_on,40,0,10,,,,,,,,11,,,,68,45
10440,note_on,40,0,9,,,,,,,,10,,,,72,45
10440,note_on,160,0,6,,,,,,,,6,,,,53,45
10470,note_off,30,0,10,,,,,,,,11,,,,68,64
10470,note_on,0,0,5,,,,,,,,5,,,,70,45
10470,note_on,0,0,4,,,,,,,,4,,,,73,45
10470,note_off,30,0,4,,,,,,,,4,,,,72,64
10470,note_off,30,0,5,,,,,,,,5,,,,68,64
10470,note_off,30,0,8,,,,,,,,8,,,,80,64
10470,note_on,0,0,10,,,,,,,,11,,,,70,45
10470,note_on,0,0,8,,,,,,,,8,,,,82,45
10470,note_off,30,0,3,,,,,,,,3,,,,80,64
10470,note_on,0,0,3,,,,,,,,3,,,,82,45
10470,note_off,30,0,9,,,,,,,,10,,,,72,64
10470,note_on,0,0,9,,,,,,,,10,,,,73,45
10500,note_on,0,0,3,,,,,,,,3,,,,80,45
10500,note_on,0,0,5,,,,,,,,5,,,,68,45
10500,note_off,30,0,3,,,,,,,,3,,,,82,64
10500,note_off,30,0,8,,,,,,,,8,,,,82,64
10500,note_off,30,0,10,,,,,,,,11,,,,70,64
10500,note_on,0,0,8,,,,,,,,8,,,,80,45
10500,note_on,0,0,10,,,,,,,,11,,,,68,45
10500,note_on,0,0,9,,,,,,,,10,,,,72,45
10500,note_off,30,0,9,,,,,,,,10,,,,73,64
10500,note_on,0,0,4,,,,,,,,4,,,,72,45
10500,note_off,30,0,5,,,,,,,,5,,,,70,64
10500,note_off,30,0,4,,,,,,,,4,,,,73,64
10520,note_off,80,0,12,,,,,,,,13,,,,41,64
10520,note_off,80,0,6,,,,,,,,6,,,,53,64
10520,note_off,80,0,11,,,,,,,,12,,,,53,64
10520,note_off,80,0,7,,,,,,,,7,,,,41,64
10530,note_off,30,0,10,,,,,,,,11,,,,68,64
10530,note_on,0,0,10,,,,,,,,11,,,,70,45
10530,note_on,0,0,3,,,,,,,,3,,,,82,45
10530,note_off,30,0,3,,,,,,,,3,,,,80,64
10530,note_on,0,0,5,,,,,,,,5,,,,70,45
10530,note_off,30,0,8,,,,,,,,8,,,,80,64
10530,note_on,0,0,8,,,,,,,,8,,,,82,45
10530,note_off,30,0,5,,,,,,,,5,,,,68,64
10530,note_on,0,0,9,,,,,,,,10,,,,73,45
10530,note_off,30,0,9,,,,,,,,10,,,,72,64
10530,note_off,30,0,4,,,,,,,,4,,,,72,64
10530,note_on,0,0,4,,,,,,,,4,,,,73,45
10560,note_off,30,0,4,,,,,,,,4,,,,73,64
10560,note_on,0,0,5,,,,,,,,5,,,,68,45
10560,note_on,0,0,10,,,,,,,,11,,,,68,45
10560,note_on,0,0,9,,,,,,,,10,,,,72,45
10560,note_off,30,0,9,,,,,,,,10,,,,73,64
10560,note_off,30,0,5,,,,,,,,5,,,,70,64
10560,note_on,0,0,4,,,,,,,,4,,,,72,45
10560,note_off,30,0,3,,,,,,,,3,,,,82,64
10560,note_on,0,0,3,,,,,,,,3,,,,80,45
10560,note_on,0,0,8,,,,,,,,8,,,,80,45
10560,note_off,30,0,8,,,,,,,,8,,,,82,64
10560,note_off,30,0,10,,,,,,,,11,,,,70,64
10640,note_off,80,0,3,,,,,,,,3,,,,80,64
10640,note_off,80,0,10,,,,,,,,11,,,,68,64
10640,note_off,80,0,4,,,,,,,,4,,,,72,64
10640,note_off,80,0,8,,,,,,,,8,,,,80,64
10640,note_off,80,0,9,,,,,,,,10,,,,72,64
10640,note_off,80,0,5,,,,,,,,5,,,,68,64
10675,note_off,235,0,13,,,,,,,,14,,,,41,64
10680,note_on,40,0,4,,,,,,,,4,,,,72,45
10680,note_on,40,0,8,,,,,,,,8,,,,80,45
10680,note_on,160,0,7,,,,,,,,7,,,,41,45
10680,note_on,160,0,6,,,,,,,,6,,,,53,45
10680,note_on,5,0,13,,,,,,,,14,,,,41,30
10680,note_on,160,0,12,,,,,,,,13,,,,41,45
10680,note_on,160,0,11,,,,,,,,12,,,,53,45
10680,note_on,40,0,9,,,,,,,,10,,,,72,45
10680,note_on,40,0,3,,,,,,,,3,,,,80,45
10680,note_on,40,0,5,,,,,,,,5,,,,65,45
10680,note_on,40,0,10,,,,,,,,11,,,,65,45
10710,note_off,30,0,10,,,,,,,,11,,,,65,64
10710,note_on,0,0,5,,,,,,,,5,,,,67,45
10710,note_off,30,0,5,,,,,,,,5,,,,65,64
10710,note_off,30,0,8,,,,,,,,8,,,,80,64
10710,note_on,0,0,8,,,,,,,,8,,,,82,45
10710,note_on,0,0,3,,,,,,,,3,,,,82,45
10710,note_off,30,0,4,,,,,,,,4,,,,72,64
10710,note_on,0,0,4,,,,,,,,4,,,,73,45
10710,note_on,0,0,9,,,,,,,,10,,,,73,45
10710,note_on,0,0,10,,,,,,,,11,,,,67,45
10710,note_off,30,0,3,,,,,,,,3,,,,80,64
10710,note_off,30,0,9,,,,,,,,10,,,,72,64
10740,note_off,30,0,4,,,,,,,,4,,,,73,64
10740,note_off,30,0,5,,,,,,,,5,,,,67,64
10740,note_on,0,0,5,,,,,,,,5,,,,65,45
10740,note_on,0,0,10,,,,,,,,11,,,,65,45
10740,note_off,30,0,10,,,,,,,,11,,,,67,64
10740,note_on,0,0,4,,,,,,,,4,,,,72,45
10740,note_on,0,0,8,,,,,,,,8,,,,80,45
10740,note_off,30,0,3,,,,,,,,3,,,,82,64
10740,note_off,30,0,8,,,,,,,,8,,,,82,64
10740,note_off,30,0,9,,,,,,,,10,,,,73,64
10740,note_on,0,0,9,,,,,,,,10,,,,72,45
10740,note_on,0,0,3,,,,,,,,3,,,,80,45
10760,note_off,80,0,11,,,,,,,,12,,,,53,64
10760,note_off,80,0,6,,,,,,,,6,,,,53,64
10760,note_off,80,0,7,,,,,,,,7,,,,41,64
10760,note_off,80,0,12,,,,,,,,13,,,,41,64
10770,note_on,0,0,9,,,,,,,,10,,,,73,45
10770,note_on,0,0,5,,,,,,,,5,,,,67,45
10770,note_off,30,0,5,,,,,,,,5,,,,65,64
10770,note_off,30,0,10,,,,,,,,11,,,,65,64
10770,note_on,0,0,10,,,,,,,,11,,,,67,45
10770,note_on,0,0,3,,,,,,,,3,,,,82,45
10770,note_on,0,0,4,,,,,,,,4,,,,73,45
10770,note_off,30,0,9,,,,,,,,10,,,,72,64
10770,note_off,30,0,3,,,,,,,,3,,,,80,64
10770,note_off,30,0,8,,,,,,,,8,,,,80,64
10770,note_on,0,0,8,,,,,,,,8,,,,82,45
10770,note_off,30,0,4,,,,,,,,4,,,,72,64
10800,note_off,30,0,9,,,,,,,,10,,,,73,64
10800,note_off,30,0,3,,,,,,,,3,,,,82,64
10800,note_on,0,0,3,,,,,,,,3,,,,80,45
10800,note_off,30,0,10,,,,,,,,11,,,,67,64
10800,note_off,30,0,5,,,,,,,,5,,,,67,64
10800,note_on,0,0,9,,,,,,,,10,,,,72,45
10800,note_on,0,0,5,,,,,,,,5,,,,65,45
10800,note_on,0,0,10,,,,,,,,11,,,,65,45
10800,note_off,30,0,8,,,,,,,,8,,,,82,64
10800,note_on,0,0,8,,,,,,,,8,,,,80,45
10800,note_on,0,0,4,,,,,,,,4,,,,72,45
10800,note_off,30,0,4,,,,,,,,4,,,,73,64
10880,note_off,80,0,8,,,,,,,,8,,,,80,64
10880,note_off,80,0,10,,,,,,,,11,,,,65,64
10880,note_off,80,0,3,,,,,,,,3,,,,80,64
10880,note_off,80,0,4,,,,,,,,4,,,,72,64
10880,note_off,80,0,9,,,,,,,,10,,,,72,64
10880,note_off,80,0,5,,,,,,,,5,,,,65,64
10915,note_off,235,0,13,,,,,,,,14,,,,41,64
10920,note_on,40,0,4,,,,,,,,4,,,,72,45
10920,note_on,160,0,11,,,,,,,,12,,,,53,45
10920,note_on,160,0,6,,,,,,,,6,,,,53,45
10920,note_on,40,0,9,,,,,,,,10,,,,72,45
10920,note_on,40,0,10,,,,,,,,11,,,,65,45
10920,note_on,160,0,12,,,,,,,,13,,,,41,45
10920,note_on,160,0,7,,,,,,,,7,,,,41,45
10920,note_on,40,0,3,,,,,,,,3,,,,80,45
10920,note_on,5,0,13,,,,,,,,14,,,,41,30
10920,note_on,40,0,8,,,,,,,,8,,,,80,45
10920,note_on,40,0,5,,,,,,,,5,,,,65,45
10950,note_on,0,0,3,,,,,,,,3,,,,82,45
10950,note_off,30,0,10,,,,,,,,11,,,,65,64
10950,note_off,30,0,4,,,,,,,,4,,,,72,64
10950,note_on,0,0,4,,,,,,,,4,,,,73,45
10950,note_on,0,0,8,,,,,,,,8,,,,82,45
10950,note_off,30,0,8,,,,,,,,8,,,,80,64
10950,note_off,30,0,5,,,,,,,,5,,,,65,64
10950,note_on,0,0,5,,,,,,,,5,,,,67,45
10950,note_off,30,0,9,,,,,,,,10,,,,72,64
10950,note_on,0,0,9,,,,,,,,10,,,,73,45
10950,note_on,0,0,10,,,,,,,,11,,,,67,45
10950,note_off,30,0,3,,,,,,,,3,,,,80,64
10980,note_off,30,0,5,,,,,,,,5,,,,67,64
10980,note_off,30,0,9,,,,,,,,10,,,,73,64
10980,note_on,0,0,9,,,,,,,,10,,,,72,45
10980,note_on,0,0,5,,,,,,,,5,,,,65,45
10980,note_off,30,0,10,,,,,,,,11,,,,67,64
10980,note_off,30,0,4,,,,,,,,4,,,,73,64
10980,note_on,0,0,4,,,,,,,,4,,,,72,45
10980,note_off,30,0,8,,,,,,,,8,,,,82,64
10980,note_on,0,0,8,,,,,,,,8,,,,80,45
10980,note_on,0,0,3,,,,,,,,3,,,,80,45
10980,note_off,30,0,3,,,,,,,,3,,,,82,64
10980,note_on,0,0,10,,,,,,,,11,,,,65,45
11000,note_off,80,0,6,,,,,,,,6,,,,53,64
11000,note_off,80,0,12,,,,,,,,13,,,,41,64
11000,note_off,80,0,11,,,,,,,,12,,,,53,64
11000,note_off,80,0,7,,,,,,,,7,,,,41,64
11010,note_off,30,0,10,,,,,,,,11,,,,65,64
11010,note_on,0,0,5,,,,,,,,5,,,,67,45
11010,note_off,30,0,3,,,,,,,,3,,,,80,64
11010,note_on,0,0,3,,,,,,,,3,,,,82,45
11010,note_off,30,0,5,,,,,,,,5,,,,65,64
11010,note_on,0,0,10,,,,,,,,11,,,,67,45
11010,note_off,30,0,9,,,,,,,,10,,,,72,64
11010,note_off,30,0,4,,,,,,,,4,,,,72,64
11010,note_on,0,0,4,,,,,,,,4,,,,73,45
11010,note_off,30,0,8,,,,,,,,8,,,,80,64
11010,note_on,0,0,9,,,,,,,,10,,,,73,45
11010,note_on,0,0,8,,,,,,,,8,,,,82,45
11040,note_on,0,0,10,,,,,,,,11,,,,65,45
11040,note_on,0,0,3,,,,,,,,3,,,,80,45
11040,note_on,0,0,5,,,,,,,,5,,,,65,45
11040,note_off,30,0,5,,,,,,,,5,,,,67,64
11040,note_off,30,0,10,,,,,,,,11,,,,67,64
11040,note_on,0,0,9,,,,,,,,10,,,,72,45
11040,note_off,30,0,9,,,,,,,,10,,,,73,64
11040,note_on,0,0,8,,,,,,,,8,,,,80,45
11040,note_on,0,0,4,,,,,,,,4,,,,72,45
11040,note_off,30,0,4,,,,,,,,4,,,,73,64
11040,note_off,30,0,8,,,,,,,,8,,,,82,64
11040,note_off,30,0,3,,,,,,,,3,,,,82,64
11120,note_off,80,0,5,,,,,,,,5,,,,65,64
11120,note_off,80,0,8,,,,,,,,8,,,,80,64
11120,note_off,80,0,9,,,,,,,,10,,,,72,64
11120,note_off,80,0,3,,,,,,,,3,,,,80,64
11120,note_off,80,0,4,,,,,,,,4,,,,72,64
11120,note_off,80,0,10,,,,,,,,11,,,,65,64
11155,note_off,235,0,13,,,,,,,,14,,,,41,64
11160,note_on,40,0,5,,,,,,,,5,,,,65,45
11160,note_on,40,0,8,,,,,,,,8,,,,80,45
11160,note_on,160,0,7,,,,,,,,7,,,,41,45
11160,note_on,160,0,12,,,,,,,,13,,,,41,45
11160,note_on,40,0,3,,,,,,,,3,,,,80,45
11160,note_on,5,0,13,,,,,,,,14,,,,41,30
11160,note_on,160,0,6,,,,,,,,6,,,,53,45
11160,note_on,160,0,11,,,,,,,,12,,,,53,45
11160,note_on,40,0,4,,,,,,,,4,,,,72,45
11160,note_on,40,0,10,,,,,,,,11,,,,65,45
11160,note_on,40,0,9,,,,,,,,10,,,,72,45
11190,note_off,30,0,9,,,,,,,,10,,,,72,64
11190,note_on,0,0,9,,,,,,,,10,,,,73,45
11190,note_off,30,0,4,,,,,,,,4,,,,72,64
11190,note_on,0,0,3,,,,,,,,3,,,,82,45
11190,note_off,30,0,3,,,,,,,,3,,,,80,64
11190,note_on,0,0,4,,,,,,,,4,,,,73,45
11190,note_on,0,0,5,,,,,,,,5,,,,67,45
11190,note_off,30,0,10,,,,,,,,11,,,,65,64
11190,note_on,0,0,10,,,,,,,,11,,,,67,45
11190,note_off,30,0,5,,,,,,,,5,,,,65,64
11190,note_off,30,0,8,,,,,,,,8,,,,80,64
11190,note_on,0,0,8,,,,,,,,8,,,,82,45
11220,note_on,0,0,3,,,,,,,,3,,,,80,45
11220,note_off,30,0,4,,,,,,,,4,,,,73,64
11220,note_on,0,0,5,,,,,,,,5,,,,65,45
11220,note_off,30,0,5,,,,,,,,5,,,,67,64
11220,note_on,0,0,4,,,,,,,,4,,,,72,45
11220,note_off,30,0,3,,,,,,,,3,,,,82,64
11220,note_off,30,0,10,,,,,,,,11,,,,67,64
11220,note_on,0,0,8,,,,,,,,8,,,,80,45
11220,note_on,0,0,9,,,,,,,,10,,,,72,45
11220,note_off,30,0,9,,,,,,,,10,,,,73,64
11220,note_off,30,0,8,,,,,,,,8,,,,82,64
11220,note_on,0,0,10,,,,,,,,11,,,,65,45
11240,note_off,80,0,7,,,,,,,,7,,,,41,64
11240,note_off,80,0,6,,,,,,,,6,,,,53,64
11240,note_off,80,0,11,,,,,,,,12,,,,53,64
11240,note_off,80,0,12,,,,,,,,13,,,,41,64
11250,note_on,0,0,10,,,,,,,,11,,,,67,45
11250,note_off,30,0,10,,,,,,,,11,,,,65,64
11250,note_off,30,0,4,,,,,,,,4,,,,72,64
11250,note_on,0,0,4,,,,,,,,4,,,,73,45
11250,note_off,30,0,8,,,,,,,,8,,,,80,64
11250,note_on,0,0,5,,,,,,,,5,,,,67,45
11250,note_off,30,0,9,,,,,,,,10,,,,72,64
11250,note_off,30,0,5,,,,,,,,5,,,,65,64
11250,note_off,30,0,3,,,,,,,,3,,,,80,64
11250,note_on,0,0,3,,,,,,,,3,,,,82,45
11250,note_on,0,0,9,,,,,,,,10,,,,73,45
11250,note_on,0,0,8,,,,,,,,8,,,,82,45
11280,note_off,30,0,8,,,,,,,,8,,,,82,64
11280,note_off,30,0,3,,,,,,,,3,,,,82,64
11280,note_on,0,0,8,,,,,,,,8,,,,80,45
11280,note_on,0,0,3,,,,,,,,3,,,,80,45
11280,note_on,0,0,9,,,,,,,,10,,,,72,45
11280,note_off,30,0,9,,,,,,,,10,,,,73,64
11280,note_on,0,0,5,,,,,,,,5,,,,65,45
11280,note_on,0,0,10,,,,,,,,11,,,,65,45
11280,note_off,30,0,10,,,,,,,,11,,,,67,64
11280,note_off,30,0,4,,,,,,,,4,,,,73,64
11280,note_on,0,0,4,,,,,,,,4,,,,72,45
11280,note_off,30,0,5,,,,,,,,5,,,,67,64
11360,note_off,80,0,10,,,,,,,,11,,,,65,64
11360,note_off,80,0,4,,,,,,,,4,,,,72,64
11360,note_off,80,0,3,,,,,,,,3,,,,80,64
11360,note_off,80,0,8,,,,,,,,8,,,,80,64
11360,note_off,80,0,9,,,,,,,,10,,,,72,64
11360,note_off,80,0,5,,,,,,,,5,,,,65,64
11395,note_off,235,0,13,,,,,,,,14,,,,41,64
11400,note_on,40,0,4,,,,,,,,4,,,,72,45
11400,note_on,160,0,12,,,,,,,,13,,,,41,45
11400,note_on,160,0,6,,,,,,,,6,,,,53,45
11400,note_on,40,0,3,,,,,,,,3,,,,80,45
11400,note_on,40,0,10,,,,,,,,11,,,,65,45
11400,note_on,5,0,13,,,,,,,,14,,,,41,30
11400,note_on,40,0,9,,,,,,,,10,,,,72,45
11400,note_on,40,0,8,,,,,,,,8,,,,80,45
11400,note_on,160,0,7,,,,,,,,7,,,,41,45
11400,note_on,40,0,5,,,,,,,,5,,,,65,45
11400,note_on,160,0,11,,,,,,,,12,,,,53,45
11430,note_on,0,0,4,,,,,,,,4,,,,73,45
11430,note_off,30,0,3,,,,,,,,3,,,,80,64
11430,note_on,0,0,3,,,,,,,,3,,,,82,45
11430,note_on,0,0,10,,,,,,,,11,,,,67,45
11430,note_off,30,0,9,,,,,,,,10,,,,72,64
11430,note_on,0,0,8,,,,,,,,8,,,,82,45
11430,note_off,30,0,8,,,,,,,,8,,,,80,64
11430,note_off,30,0,5,,,,,,,,5,,,,65,64
11430,note_on,0,0,5,,,,,,,,5,,,,67,45
11430,note_on,0,0,9,,,,,,,,10,,,,73,45
11430,note_off,30,0,4,,,,,,,,4,,,,72,64
11430,note_off,30,0,10,,,,,,,,11,,,,65,64
11460,note_off,30,0,3,,,,,,,,3,,,,82,64
11460,note_on,0,0,4,,,,,,,,4,,,,72,45
11460,note_on,0,0,9,,,,,,,,10,,,,72,45
11460,note_off,30,0,9,,,,,,,,10,,,,73,64
11460,note_on,0,0,8,,,,,,,,8,,,,80,45
11460,note_on,0,0,10,,,,,,,,11,,,,65,45
11460,note_off,30,0,8,,,,,,,,8,,,,82,64
11460,note_off,30,0,10,,,,,,,,11,,,,67,64
11460,note_on,0,0,3,,,,,,,,3,,,,80,45
11460,note_off,30,0,4,,,,,,,,4,,,,73,64
11460,note_on,0,0,5,,,,,,,,5,,,,65,45
11460,note_off,30,0,5,,,,,,,,5,,,,67,64
11480,note_off,80,0,6,,,,,,,,6,,,,53,64
11480,note_off,80,0,12,,,,,,,,13,,,,41,64
11480,note_off,80,0,7,,,,,,,,7,,,,41,64
11480,note_off,80,0,11,,,,,,,,12,,,,53,64
11490,note_on,0,0,4,,,,,,,,4,,,,73,45
11490,note_off,30,0,3,,,,,,,,3,,,,80,64
11490,note_on,0,0,3,,,,,,,,3,,,,82,45
11490,note_on,0,0,9,,,,,,,,10,,,,73,45
11490,note_off,30,0,9,,,,,,,,10,,,,72,64
11490,note_on,0,0,10,,,,,,,,11,,,,67,45
11490,note_off,30,0,8,,,,,,,,8,,,,80,64
11490,note_off,30,0,10,,,,,,,,11,,,,65,64
11490,note_on,0,0,5,,,,,,,,5,,,,67,45
11490,note_off,30,0,5,,,,,,,,5,,,,65,64
11490,note_off,30,0,4,,,,,,,,4,,,,72,64
11490,note_on,0,0,8,,,,,,,,8,,,,82,45
11520,note_off,30,0,10,,,,,,,,11,,,,67,64
11520,note_off,30,0,9,,,,,,,,10,,,,73,64
11520,note_on,0,0,9,,,,,,,,10,,,,72,45
11520,note_on,0,0,10,,,,,,,,11,,,,65,45
11520,note_on,0,0,5,,,,,,,,5,,,,65,45
11520,note_off,30,0,8,,,,,,,,8,,,,82,64
11520,note_off,30,0,5,,,,,,,,5,,,,67,64
11520,note_off,30,0,4,,,,,,,,4,,,,73,64
11520,note_on,0,0,4,,,,,,,,4,,,,72,45
11520,note_on,0,0,3,,,,,,,,3,,,,80,45
11520,note_off,30,0,3,,,,,,,,3,,,,82,64
11520,note_on,0,0,8,,,,,,,,8,,,,80,45
11600,note_off,80,0,4,,,,,,,,4,,,,72,64
11600,note_off,80,0,3,,,,,,,,3,,,,80,64
11600,note_off,80,0,9,,,,,,,,10,,,,72,64
11600,note_off,80,0,10,,,,,,,,11,,,,65,64
11600,note_off,80,0,8,,,,,,,,8,,,,80,64
11600,note_off,80,0,5,,,,,,,,5,,,,65,64
11635,note_off,235,0,13,,,,,,,,14,,,,41,64
11640,note_on,40,0,9,,,,,,,,10,,,,70,45
11640,note_on,160,0,6,,,,,,,,6,,,,53,45
11640,note_on,40,0,4,,,,,,,,4,,,,70,45
11640,note_on,40,0,8,,,,,,,,8,,,,73,45
11640,note_on,160,0,12,,,,,,,,13,,,,41,45
11640,note_on,160,0,11,,,,,,,,12,,,,53,45
11640,note_on,40,0,3,,,,,,,,3,,,,73,45
11640,note_on,160,0,7,,,,,,,,7,,,,41,45
11640,note_on,40,0,5,,,,,,,,5,,,,65,45
11640,note_on,40,0,10,,,,,,,,11,,,,65,45
11640,note_on,5,0,13,,,,,,,,14,,,,41,30
11670,note_off,30,0,3,,,,,,,,3,,,,73,64
11670,note_on,0,0,8,,,,,,,,8,,,,75,45
11670,note_on,0,0,4,,,,,,,,4,,,,72,45
11670,note_off,30,0,4,,,,,,,,4,,,,70,64
11670,note_on,0,0,9,,,,,,,,10,,,,72,45
11670,note_off,30,0,5,,,,,,,,5,,,,65,64
11670,note_off,30,0,8,,,,,,,,8,,,,73,64
11670,note_off,30,0,10,,,,,,,,11,,,,65,64
11670,note_off,30,0,9,,,,,,,,10,,,,70,64
11670,note_on,0,0,10,,,,,,,,11,,,,67,45
11670,note_on,0,0,3,,,,,,,,3,,,,75,45
11670,note_on,0,0,5,,,,,,,,5,,,,67,45
11700,note_off,30,0,4,,,,,,,,4,,,,72,64
11700,note_off,30,0,5,,,,,,,,5,,,,67,64
11700,note_on,0,0,3,,,,,,,,3,,,,73,45
11700,note_off,30,0,8,,,,,,,,8,,,,75,64
11700,note_on,0,0,8,,,,,,,,8,,,,73,45
11700,note_on,0,0,5,,,,,,,,5,,,,65,45
11700,note_off,30,0,3,,,,,,,,3,,,,75,64
11700,note_off,30,0,9,,,,,,,,10,,,,72,64
11700,note_on,0,0,9,,,,,,,,10,,,,70,45
11700,note_on,0,0,10,,,,,,,,11,,,,65,45
11700,note_off,30,0,10,,,,,,,,11,,,,67,64
11700,note_on,0,0,4,,,,,,,,4,,,,70,45
11720,note_off,80,0,6,,,,,,,,6,,,,53,64
11720,note_off,80,0,12,,,,,,,,13,,,,41,64
11720,note_off,80,0,7,,,,,,,,7,,,,41,64
11720,note_off,80,0,11,,,,,,,,12,,,,53,64
11730,note_off,30,0,3,,,,,,,,3,,,,73,64
11730,note_on,0,0,3,,,,,,,,3,,,,75,45
11730,note_off,30,0,8,,,,,,,,8,,,,73,64
11730,note_on,0,0,8,,,,,,,,8,,,,75,45
11730,note_off,30,0,4,,,,,,,,4,,,,70,64
11730,note_on,0,0,4,,,,,,,,4,,,,72,45
11730,note_off,30,0,9,,,,,,,,10,,,,70,64
11730,note_on,0,0,9,,,,,,,,10,,,,72,45
11730,note_on,0,0,10,,,,,,,,11,,,,67,45
11730,note_off,30,0,10,,,,,,,,11,,,,65,64
11730,note_off,30,0,5,,,,,,,,5,,,,65,64
11730,note_on,0,0,5,,,,,,,,5,,,,67,45
11760,note_on,0,0,4,,,,,,,,4,,,,70,45
11760,note_on,0,0,10,,,,,,,,11,,,,65,45
11760,note_off,30,0,10,,,,,,,,11,,,,67,64
11760,note_on,0,0,5,,,,,,,,5,,,,65,45
11760,note_off,30,0,5,,,,,,,,5,,,,67,64
11760,note_off,30,0,4,,,,,,,,4,,,,72,64
11760,note_on,0,0,8,,,,,,,,8,,,,73,45
11760,note_off,30,0,3,,,,,,,,3,,,,75,64
11760,note_on,0,0,9,,,,,,,,10,,,,70,45
11760,note_off,30,0,8,,,,,,,,8,,,,75,64
11760,note_on,0,0,3,,,,,,,,3,,,,73,45
11760,note_off,30,0,9,,,,,,,,10,,,,72,64
11840,note_off,80,0,9,,,,,,,,10,,,,70,64
11840,note_off,80,0,3,,,,,,,,3,,,,73,64
11840,note_off,80,0,4,,,,,,,,4,,,,70,64
11840,note_off,80,0,8,,,,,,,,8,,,,73,64
11840,note_off,80,0,10,,,,,,,,11,,,,65,64
11840,note_off,80,0,5,,,,,,,,5,,,,65,64
11875,note_off,235,0,13,,,,,,,,14,,,,41,64
11880,note_on,40,0,4,,,,,,,,4,,,,70,45
11880,note_on,160,0,7,,,,,,,,7,,,,41,45
11880,note_on,160,0,6,,,,,,,,6,,,,53,45
11880,note_on,40,0,3,,,,,,,,3,,,,73,45
11880,note_on,5,0,13,,,,,,,,14,,,,41,30
11880,note_on,160,0,11,,,,,,,,12,,,,53,45
11880,note_on,40,0,9,,,,,,,,10,,,,70,45
11880,note_on,40,0,5,,,,,,,,5,,,,65,45
11880,note_on,40,0,8,,,,,,,,8,,,,73,45
11880,note_on,160,0,12,,,,,,,,13,,,,41,45
11880,note_on,40,0,10,,,,,,,,11,,,,65,45
11910,note_off,30,0,9,,,,,,,,10,,,,70,64
11910,note_on,0,0,9,,,,,,,,10,,,,72,45
11910,note_off,30,0,5,,,,,,,,5,,,,65,64
11910,note_off,30,0,8,,,,,,,,8,,,,73,64
11910,note_on,0,0,8,,,,,,,,8,,,,75,45
11910,note_off,30,0,4,,,,,,,,4,,,,70,64
11910,note_on,0,0,4,,,,,,,,4,,,,72,45
11910,note_off,30,0,10,,,,,,,,11,,,,65,64
11910,note_on,0,0,10,,,,,,,,11,,,,67,45
11910,note_on,0,0,5,,,,,,,,5,,,,67,45
11910,note_off,30,0,3,,,,,,,,3,,,,73,64
11910,note_on,0,0,3,,,,,,,,3,,,,75,45
11940,note_off,30,0,10,,,,,,,,11,,,,67,64
11940,note_on,0,0,8,,,,,,,,8,,,,73,45
11940,note_off,30,0,8,,,,,,,,8,,,,75,64
11940,note_on,0,0,5,,,,,,,,5,,,,65,45
11940,note_off,30,0,5,,,,,,,,5,,,,67,64
11940,note_on,0,0,4,,,,,,,,4,,,,70,45
11940,note_off,30,0,3,,,,,,,,3,,,,75,64
11940,note_on,0,0,9,,,,,,,,10,,,,70,45
11940,note_off,30,0,4,,,,,,,,4,,,,72,64
11940,note_on,0,0,3,,,,,,,,3,,,,73,45
11940,note_off,30,0,9,,,,,,,,10,,,,72,64
11940,note_on,0,0,10,,,,,,,,11,,,,65,45
11960,note_off,80,0,6,,,,,,,,6,,,,53,64
11960,note_off,80,0,12,,,,,,,,13,,,,41,64
11960,note_off,80,0,11,,,,,,,,12,,,,53,64
11960,note_off,80,0,7,,,,,,,,7,,,,41,64
11970,note_off,30,0,4,,,,,,,,4,,,,70,64
11970,note_on,0,0,8,,,,,,,,8,,,,75,45
11970,note_on,0,0,5,,,,,,,,5,,,,67,45
11970,note_off,30,0,8,,,,,,,,8,,,,73,64
11970,note_off,30,0,10,,,,,,,,11,,,,65,64
11970,note_on,0,0,10,,,,,,,,11,,,,67,45
11970,note_on,0,0,4,,,,,,,,4,,,,72,45
11970,note_on,0,0,9,,,,,,,,10,,,,72,45
11970,note_on,0,0,3,,,,,,,,3,,,,75,45
11970,note_off,30,0,3,,,,,,,,3,,,,73,64
11970,note_off,30,0,5,,,,,,,,5,,,,65,64
11970,note_off,30,0,9,,,,,,,,10,,,,70,64
12000,note_on,0,0,8,,,,,,,,8,,,,73,45
12000,note_off,30,0,10,,,,,,,,11,,,,67,64
12000,note_on,0,0,10,,,,,,,,11,,,,65,45
12000,note_on,0,0,9,,,,,,,,10,,,,70,45
12000,note_off,30,0,9,,,,,,,,10,,,,72,64
12000,note_on,0,0,4,,,,,,,,4,,,,70,45
12000,note_off,30,0,4,,,,,,,,4,,,,72,64
12000,note_off,30,0,8,,,,,,,,8,,,,75,64
12000,note_on,0,0,5,,,,,,,,5,,,,65,45
12000,note_off,30,0,5,,,,,,,,5,,,,67,64
12000,note_off,30,0,3,,,,,,,,3,,,,75,64
12000,note_on,0,0,3,,,,,,,,3,,,,73,45
12080,note_off,80,0,5,,,,,,,,5,,,,65,64
12080,note_off,80,0,9,,,,,,,,10,,,,70,64
12080,note_off,80,0,4,,,,,,,,4,,,,70,64
12080,note_off,80,0,8,,,,,,,,8,,,,73,64
12080,note_off,80,0,10,,,,,,,,11,,,,65,64
12080,note_off,80,0,3,,,,,,,,3,,,,73,64
12115,note_off,235,0,13,,,,,,,,14,,,,41,64
12120,note_on,40,0,3,,,,,,,,3,,,,73,45
12120,note_on,40,0,10,,,,,,,,11,,,,65,45
12120,note_on,160,0,7,,,,,,,,7,,,,41,45
12120,note_on,40,0,4,,,,,,,,4,,,,70,45
12120,note_on,160,0,12,,,,,,,,13,,,,41,45
12120,note_on,160,0,6,,,,,,,,6,,,,53,45
12120,note_on,5,0,13,,,,,,,,14,,,,41,30
12120,note_on,40,0,5,,,,,,,,5,,,,65,45
12120,note_on,40,0,9,,,,,,,,10,,,,70,45
12120,note_on,40,0,8,,,,,,,,8,,,,73,45
12120,note_on,160,0,11,,,,,,,,12,,,,53,45
12150,note_on,0,0,5,,,,,,,,5,,,,67,45
12150,note_on,0,0,9,,,,,,,,10,,,,72,45
12150,note_on,0,0,3,,,,,,,,3,,,,75,45
12150,note_on,0,0,10,,,,,,,,11,,,,67,45
12150,note_off,30,0,10,,,,,,,,11,,,,65,64
12150,note_off,30,0,4,,,,,,,,4,,,,70,64
12150,note_on,0,0,4,,,,,,,,4,,,,72,45
12150,note_off,30,0,8,,,,,,,,8,,,,73,64
12150,note_on,0,0,8,,,,,,,,8,,,,75,45
12150,note_off,30,0,3,,,,,,,,3,,,,73,64
12150,note_off,30,0,5,,,,,,,,5,,,,65,64
12150,note_off,30,0,9,,,,,,,,10,,,,70,64
12180,note_on,0,0,8,,,,,,,,8,,,,73,45
12180,note_on,0,0,3,,,,,,,,3,,,,73,45
12180,note_off,30,0,8,,,,,,,,8,,,,75,64
12180,note_off,30,0,3,,,,,,,,3,,,,75,64
12180,note_off,30,0,9,,,,,,,,10,,,,72,64
12180,note_off,30,0,4,,,,,,,,4,,,,72,64
12180,note_on,0,0,10,,,,,,,,11,,,,65,45
12180,note_off,30,0,10,,,,,,,,11,,,,67,64
12180,note_on,0,0,9,,,,,,,,10,,,,70,45
12180,note_off,30,0,5,,,,,,,,5,,,,67,64
12180,note_on,0,0,5,,,,,,,,5,,,,65,45
12180,note_on,0,0,4,,,,,,,,4,,,,70,45
12200,note_off,80,0,6,,,,,,,,6,,,,53,64
12200,note_off,80,0,7,,,,,,,,7,,,,41,64
12200,note_off,80,0,12,,,,,,,,13,,,,41,64
12200,note_off,80,0,11,,,,,,,,12,,,,53,64
12210,note_on,0,0,5,,,,,,,,5,,,,67,45
12210,note_on,0,0,10,,,,,,,,11,,,,67,45
12210,note_off,30,0,10,,,,,,,,11,,,,65,64
12210,note_off,30,0,9,,,,,,,,10,,,,70,64
12210,note_off,30,0,3,,,,,,,,3,,,,73,64
12210,note_on,0,0,4,,,,,,,,4,,,,72,45
12210,note_off,30,0,4,,,,,,,,4,,,,70,64
12210,note_on,0,0,3,,,,,,,,3,,,,75,45
12210,note_on,0,0,8,,,,,,,,8,,,,75,45
12210,note_on,0,0,9,,,,,,,,10,,,,72,45
12210,note_off,30,0,8,,,,,,,,8,,,,73,64
12210,note_off,30,0,5,,,,,,,,5,,,,65,64
12240,note_off,30,0,10,,,,,,,,11,,,,67,64
12240,note_off,30,0,3,,,,,,,,3,,,,75,64
12240,note_on,0,0,3,,,,,,,,3,,,,73,45
12240,note_off,30,0,9,,,,,,,,10,,,,72,64
12240,note_off,30,0,5,,,,,,,,5,,,,67,64
12240,note_on,0,0,5,,,,,,,,5,,,,65,45
12240,note_on,0,0,10,,,,,,,,11,,,,65,45
12240,note_off,30,0,8,,,,,,,,8,,,,75,64
12240,note_off,30,0,4,,,,,,,,4,,,,72,64
12240,note_on,0,0,8,,,,,,,,8,,,,73,45
12240,note_on,0,0,4,,,,,,,,4,,,,70,45
12240,note_on,0,0,9,,,,,,,,10,,,,70,45
12320,note_off,80,0,3,,,,,,,,3,,,,73,64
12320,note_off,80,0,5,,,,,,,,5,,,,65,64
12320,note_off,80,0,4,,,,,,,,4,,,,70,64
12320,note_off,80,0,9,,,,,,,,10,,,,70,64
12320,note_off,80,0,8,,,,,,,,8,,,,73,64
12320,note_off,80,0,10,,,,,,,,11,,,,65,64
12355,note_off,235,0,13,,,,,,,,14,,,,41,64
12360,note_on,160,0,11,,,,,,,,12,,,,53,45
12360,note_on,40,0,10,,,,,,,,11,,,,65,45
12360,note_on,160,0,7,,,,,,,,7,,,,41,45
12360,note_on,40,0,4,,,,,,,,4,,,,70,45
12360,note_on,40,0,5,,,,,,,,5,,,,65,45
12360,note_on,40,0,3,,,,,,,,3,,,,73,45
12360,note_on,5,0,13,,,,,,,,14,,,,41,30
12360,note_on,40,0,8,,,,,,,,8,,,,73,45
12360,note_on,160,0,12,,,,,,,,13,,,,41,45
12360,note_on,40,0,9,,,,,,,,10,,,,70,45
12360,note_on,160,0,6,,,,,,,,6,,,,53,45
12390,note_off,30,0,9,,,,,,,,10,,,,70,64
12390,note_on,0,0,8,,,,,,,,8,,,,75,45
12390,note_on,0,0,9,,,,,,,,10,,,,72,45
12390,note_on,0,0,4,,,,,,,,4,,,,72,45
12390,note_off,30,0,4,,,,,,,,4,,,,70,64
12390,note_off,30,0,8,,,,,,,,8,,,,73,64
12390,note_off,30,0,10,,,,,,,,11,,,,65,64
12390,note_on,0,0,10,,,,,,,,11,,,,67,45
12390,note_off,30,0,5,,,,,,,,5,,,,65,64
12390,note_off,30,0,3,,,,,,,,3,,,,73,64
12390,note_on,0,0,5,,,,,,,,5,,,,67,45
12390,note_on,0,0,3,,,,,,,,3,,,,75,45
12420,note_off,30,0,5,,,,,,,,5,,,,67,64
12420,note_off,30,0,10,,,,,,,,11,,,,67,64
12420,note_on,0,0,10,,,,,,,,11,,,,65,45
12420,note_off,30,0,9,,,,,,,,10,,,,72,64
12420,note_on,0,0,9,,,,,,,,10,,,,70,45
12420,note_on,0,0,4,,,,,,,,4,,,,70,45
12420,note_off,30,0,3,,,,,,,,3,,,,75,64
12420,note_on,0,0,3,,,,,,,,3,,,,73,45
12420,note_off,30,0,8,,,,,,,,8,,,,75,64
12420,note_off,30,0,4,,,,,,,,4,,,,72,64
12420,note_on,0,0,5,,,,,,,,5,,,,65,45
12420,note_on,0,0,8,,,,,,,,8,,,,73,45
12440,note_off,80,0,7,,,,,,,,7,,,,41,64
12440,note_off,80,0,11,,,,,,,,12,,,,53,64
12440,note_off,80,0,6,,,,,,,,6,,,,53,64
12440,note_off,80,0,12,,,,,,,,13,,,,41,64
12450,note_off,30,0,5,,,,,,,,5,,,,65,64
12450,note_off,30,0,10,,,,,,,,11,,,,65,64
12450,note_on,0,0,10,,,,,,,,11,,,,67,45
12450,note_on,0,0,5,,,,,,,,5,,,,67,45
12450,note_on,0,0,9,,,,,,,,10,,,,72,45
12450,note_off,30,0,9,,,,,,,,10,,,,70,64
12450,note_on,0,0,4,,,,,,,,4,,,,72,45
12450,note_off,30,0,4,,,,,,,,4,,,,70,64
12450,note_on,0,0,3,,,,,,,,3,,,,75,45
12450,note_off,30,0,8,,,,,,,,8,,,,73,64
12450,note_off,30,0,3,,,,,,,,3,,,,73,64
12450,note_on,0,0,8,,,,,,,,8,,,,75,45
12480,note_off,30,0,4,,,,,,,,4,,,,72,64
12480,note_on,0,0,3,,,,,,,,3,,,,73,45
12480,note_on,0,0,8,,,,,,,,8,,,,73,45
12480,note_off,30,0,8,,,,,,,,8,,,,75,64
12480,note_off,30,0,3,,,,,,,,3,,,,75,64
12480,note_on,0,0,5,,,,,,,,5,,,,65,45
12480,note_on,0,0,4,,,,,,,,4,,,,70,45
12480,note_off,30,0,5,,,,,,,,5,,,,67,64
12480,note_on,0,0,9,,,,,,,,10,,,,70,45
12480,note_off,30,0,9,,,,,,,,10,,,,72,64
12480,note_off,30,0,10,,,,,,,,11,,,,67,64
12480,note_on,0,0,10,,,,,,,,11,,,,65,45
12560,note_off,80,0,8,,,,,,,,8,,,,73,64
12560,note_off,80,0,10,,,,,,,,11,,,,65,64
12560,note_off,80,0,4,,,,,,,,4,,,,70,64
12560,note_off,80,0,5,,,,,,,,5,,,,65,64
12560,note_off,80,0,3,,,,,,,,3,,,,73,64
12560,note_off,80,0,9,,,,,,,,10,,,,70,64
12595,note_off,235,0,13,,,,,,,,14,,,,41,64
12600,note_on,160,0,11,,,,,,,,12,,,,53,45
12600,note_on,160,0,12,,,,,,,,13,,,,41,45
12600,note_on,160,0,6,,,,,,,,6,,,,53,45
12600,note_on,40,0,9,,,,,,,,10,,,,70,45
12600,note_on,160,0,7,,,,,,,,7,,,,41,45
12600,note_on,40,0,8,,,,,,,,8,,,,73,45
12600,note_on,40,0,5,,,,,,,,5,,,,65,45
12600,note_on,40,0,10,,,,,,,,11,,,,65,45
12600,note_on,40,0,4,,,,,,,,4,,,,70,45
12600,note_on,5,0,13,,,,,,,,14,,,,41,30
12600,note_on,40,0,3,,,,,,,,3,,,,73,45
12630,note_on,0,0,9,,,,,,,,10,,,,72,45
12630,note_on,0,0,5,,,,,,,,5,,,,67,45
12630,note_off,30,0,8,,,,,,,,8,,,,73,64
12630,note_off,30,0,5,,,,,,,,5,,,,65,64
12630,note_on,0,0,3,,,,,,,,3,,,,75,45
12630,note_off,30,0,3,,,,,,,,3,,,,73,64
12630,note_on,0,0,8,,,,,,,,8,,,,75,45
12630,note_off,30,0,10,,,,,,,,11,,,,65,64
12630,note_off,30,0,9,,,,,,,,10,,,,70,64
12630,note_on,0,0,4,,,,,,,,4,,,,72,45
12630,note_on,0,0,10,,,,,,,,11,,,,67,45
12630,note_off,30,0,4,,,,,,,,4,,,,70,64
12660,note_off,30,0,3,,,,,,,,3,,,,75,64
12660,note_on,0,0,3,,,,,,,,3,,,,73,45
12660,note_on,0,0,4,,,,,,,,4,,,,70,45
12660,note_off,30,0,4,,,,,,,,4,,,,72,64
12660,note_off,30,0,5,,,,,,,,5,,,,67,64
12660,note_on,0,0,5,,,,,,,,5,,,,65,45
12660,note_off,30,0,10,,,,,,,,11,,,,67,64
12660,note_on,0,0,8,,,,,,,,8,,,,73,45
12660,note_off,30,0,8,,,,,,,,8,,,,75,64
12660,note_on,0,0,10,,,,,,,,11,,,,65,45
12660,note_on,0,0,9,,,,,,,,10,,,,70,45
12660,note_off,30,0,9,,,,,,,,10,,,,72,64
12680,note_off,80,0,7,,,,,,,,7,,,,41,64
12680,note_off,80,0,6,,,,,,,,6,,,,53,64
12680,note_off,80,0,12,,,,,,,,13,,,,41,64
12680,note_off,80,0,11,,,,,,,,12,,,,53,64
12690,note_on,0,0,8,,,,,,,,8,,,,75,45
12690,note_off,30,0,8,,,,,,,,8,,,,73,64
12690,note_on,0,0,4,,,,,,,,4,,,,72,45
12690,note_on,0,0,5,,,,,,,,5,,,,67,45
12690,note_off,30,0,4,,,,,,,,4,,,,70,64
12690,note_off,30,0,10,,,,,,,,11,,,,65,64
12690,note_off,30,0,9,,,,,,,,10,,,,70,64
12690,note_on,0,0,10,,,,,,,,11,,,,67,45
12690,note_on,0,0,9,,,,,,,,10,,,,72,45
12690,note_off,30,0,5,,,,,,,,5,,,,65,64
12690,note_off,30,0,3,,,,,,,,3,,,,73,64
12690,note_on,0,0,3,,,,,,,,3,,,,75,45
12720,note_off,30,0,5,,,,,,,,5,,,,67,64
12720,note_on,0,0,3,,,,,,,,3,,,,73,45
12720,note_off,30,0,8,,,,,,,,8,,,,75,64
12720,note_on,0,0,5,,,,,,,,5,,,,65,45
12720,note_off,30,0,10,,,,,,,,11,,,,67,64
12720,note_on,0,0,10,,,,,,,,11,,,,65,45
12720,note_off,30,0,4,,,,,,,,4,,,,72,64
12720,note_on,0,0,4,,,,,,,,4,,,,70,45
12720,note_off,30,0,3,,,,,,,,3,,,,75,64
12720,note_on,0,0,8,,,,,,,,8,,,,73,45
12720,note_off,30,0,9,,,,,,,,10,,,,72,64
12720,note_on,0,0,9,,,,,,,,10,,,,70,45
12800,note_off,80,0,3,,,,,,,,3,,,,73,64
12800,note_off,80,0,8,,,,,,,,8,,,,73,64
12800,note_off,80,0,5,,,,,,,,5,,,,65,64
12800,note_off,80,0,4,,,,,,,,4,,,,70,64
12800,note_off,80,0,10,,,,,,,,11,,,,65,64
12800,note_off,80,0,9,,,,,,,,10,,,,70,64
12835,note_off,235,0,13,,,,,,,,14,,,,41,64
12840,note_on,40,0,9,,,,,,,,10,,,,70,45
12840,note_on,40,0,8,,,,,,,,8,,,,73,45
12840,note_on,40,0,5,,,,,,,,5,,,,65,45
12840,note_on,40,0,3,,,,,,,,3,,,,73,45
12840,note_on,160,0,12,,,,,,,,13,,,,41,45
12840,note_on,160,0,7,,,,,,,,7,,,,41,45
12840,note_on,40,0,4,,,,,,,,4,,,,70,45
12840,note_on,160,0,6,,,,,,,,6,,,,53,45
12840,note_on,160,0,11,,,,,,,,12,,,,53,45
12840,note_on,5,0,13,,,,,,,,14,,,,41,30
12840,note_on,40,0,10,,,,,,,,11,,,,65,45
12870,note_off,30,0,9,,,,,,,,10,,,,70,64
12870,note_off,30,0,8,,,,,,,,8,,,,73,64
12870,note_on,0,0,8,,,,,,,,8,,,,75,45
12870,note_on,0,0,3,,,,,,,,3,,,,75,45
12870,note_off,30,0,5,,,,,,,,5,,,,65,64
12870,note_on,0,0,5,,,,,,,,5,,,,67,45
12870,note_off,30,0,3,,,,,,,,3,,,,73,64
12870,note_on,0,0,10,,,,,,,,11,,,,67,45
12870,note_off,30,0,4,,,,,,,,4,,,,70,64
12870,note_off,30,0,10,,,,,,,,11,,,,65,64
12870,note_on,0,0,4,,,,,,,,4,,,,72,45
12870,note_on,0,0,9,,,,,,,,10,,,,72,45
12900,note_off,30,0,4,,,,,,,,4,,,,72,64
12900,note_on,0,0,10,,,,,,,,11,,,,65,45
12900,note_off,30,0,8,,,,,,,,8,,,,75,64
12900,note_on,0,0,8,,,,,,,,8,,,,73,45
12900,note_off,30,0,5,,,,,,,,5,,,,67,64
12900,note_on,0,0,5,,,,,,,,5,,,,65,45
12900,note_on,0,0,3,,,,,,,,3,,,,73,45
12900,note_on,0,0,4,,,,,,,,4,,,,70,45
12900,note_off,30,0,9,,,,,,,,10,,,,72,64
12900,note_on,0,0,9,,,,,,,,10,,,,70,45
12900,note_off,30,0,10,,,,,,,,11,,,,67,64
12900,note_off,30,0,3,,,,,,,,3,,,,75,64
12920,note_off,80,0,12,,,,,,,,13,,,,41,64
12920,note_off,80,0,11,,,,,,,,12,,,,53,64
12920,note_off,80,0,6,,,,,,,,6,,,,53,64
12920,note_off,80,0,7,,,,,,,,7,,,,41,64
12930,note_off,30,0,3,,,,,,,,3,,,,73,64
12930,note_on,0,0,4,,,,,,,,4,,,,72,45
12930,note_off,30,0,4,,,,,,,,4,,,,70,64
12930,note_on,0,0,3,,,,,,,,3,,,,75,45
12930,note_on,0,0,10,,,,,,,,11,,,,67,45
12930,note_off,30,0,8,,,,,,,,8,,,,73,64
12930,note_on,0,0,8,,,,,,,,8,,,,75,45
12930,note_off,30,0,5,,,,,,,,5,,,,65,64
12930,note_on,0,0,5,,,,,,,,5,,,,67,45
12930,note_on,0,0,9,,,,,,,,10,,,,72,45
12930,note_off,30,0,10,,,,,,,,11,,,,65,64
12930,note_off,30,0,9,,,,,,,,10,,,,70,64
12960,note_on,0,0,3,,,,,,,,3,,,,73,45
12960,note_off,30,0,10,,,,,,,,11,,,,67,64
12960,note_on,0,0,10,,,,,,,,11,,,,65,45
12960,note_on,0,0,9,,,,,,,,10,,,,70,45
12960,note_off,30,0,9,,,,,,,,10,,,,72,64
12960,note_on,0,0,5,,,,,,,,5,,,,65,45
12960,note_off,30,0,5,,,,,,,,5,,,,67,64
12960,note_on,0,0,4,,,,,,,,4,,,,70,45
12960,note_on,0,0,8,,,,,,,,8,,,,73,45
12960,note_off,30,0,8,,,,,,,,8,,,,75,64
12960,note_off,30,0,3,,,,,,,,3,,,,75,64
12960,note_off,30,0,4,,,,,,,,4,,,,72,64
13040,note_off,80,0,9,,,,,,,,10,,,,70,64
13040,note_off,80,0,10,,,,,,,,11,,,,65,64
13040,note_off,80,0,5,,,,,,,,5,,,,65,64
13040,note_off,80,0,3,,,,,,,,3,,,,73,64
13040,note_off,80,0,4,,,,,,,,4,,,,70,64
13040,note_off,80,0,8,,,,,,,,8,,,,73,64
13075,note_off,235,0,13,,,,,,,,14,,,,41,64
13080,note_on,40,0,8,,,,,,,,8,,,,73,45
13080,note_on,40,0,5,,,,,,,,5,,,,65,45
13080,note_on,160,0,12,,,,,,,,13,,,,41,45
13080,note_on,40,0,9,,,,,,,,10,,,,70,45
13080,note_on,40,0,10,,,,,,,,11,,,,65,45
13080,note_on,40,0,3,,,,,,,,3,,,,73,45
13080,note_on,160,0,11,,,,,,,,12,,,,53,45
13080,note_on,5,0,13,,,,,,,,14,,,,41,30
13080,note_on,160,0,6,,,,,,,,6,,,,53,45
13080,note_on,40,0,4,,,,,,,,4,,,,70,45
13080,note_on,160,0,7,,,,,,,,7,,,,41,45
13110,note_on,0,0,4,,,,,,,,4,,,,72,45
13110,note_on,0,0,3,,,,,,,,3,,,,75,45
13110,note_on,0,0,10,,,,,,,,11,,,,67,45
13110,note_off,30,0,10,,,,,,,,11,,,,65,64
13110,note_off,30,0,5,,,,,,,,5,,,,65,64
13110,note_on,0,0,5,,,,,,,,5,,,,67,45
13110,note_off,30,0,8,,,,,,,,8,,,,73,64
13110,note_on,0,0,9,,,,,,,,10,,,,72,45
13110,note_off,30,0,9,,,,,,,,10,,,,70,64
13110,note_off,30,0,4,,,,,,,,4,,,,70,64
13110,note_off,30,0,3,,,,,,,,3,,,,73,64
13110,note_on,0,0,8,,,,,,,,8,,,,75,45
13140,note_on,0,0,3,,,,,,,,3,,,,73,45
13140,note_off,30,0,3,,,,,,,,3,,,,75,64
13140,note_on,0,0,10,,,,,,,,11,,,,65,45
13140,note_on,0,0,8,,,,,,,,8,,,,73,45
13140,note_off,30,0,10,,,,,,,,11,,,,67,64
13140,note_on,0,0,4,,,,,,,,4,,,,70,45
13140,note_off,30,0,4,,,,,,,,4,,,,72,64
13140,note_on,0,0,9,,,,,,,,10,,,,70,45
13140,note_off,30,0,9,,,,,,,,10,,,,72,64
13140,note_off,30,0,5,,,,,,,,5,,,,67,64
13140,note_on,0,0,5,,,,,,,,5,,,,65,45
13140,note_off,30,0,8,,,,,,,,8,,,,75,64
13160,note_off,80,0,6,,,,,,,,6,,,,53,64
13160,note_off,80,0,12,,,,,,,,13,,,,41,64
13160,note_off,80,0,11,,,,,,,,12,,,,53,64
13160,note_off,80,0,7,,,,,,,,7,,,,41,64
13170,note_off,30,0,3,,,,,,,,3,,,,73,64
13170,note_on,0,0,9,,,,,,,,10,,,,72,45
13170,note_off,30,0,9,,,,,,,,10,,,,70,64
13170,note_off,30,0,10,,,,,,,,11,,,,65,64
13170,note_off,30,0,8,,,,,,,,8,,,,73,64
13170,note_on,0,0,8,,,,,,,,8,,,,75,45
13170,note_on,0,0,5,,,,,,,,5,,,,67,45
13170,note_on,0,0,10,,,,,,,,11,,,,67,45
13170,note_off,30,0,5,,,,,,,,5,,,,65,64
13170,note_on,0,0,3,,,,,,,,3,,,,75,45
13170,note_off,30,0,4,,,,,,,,4,,,,70,64
13170,note_on,0,0,4,,,,,,,,4,,,,72,45
13200,note_on,0,0,5,,,,,,,,5,,,,65,45
13200,note_off,30,0,5,,,,,,,,5,,,,67,64
13200,note_off,30,0,10,,,,,,,,11,,,,67,64
13200,note_on,0,0,9,,,,,,,,10,,,,70,45
13200,note_on,0,0,4,,,,,,,,4,,,,70,45
13200,note_on,0,0,10,,,,,,,,11,,,,65,45
13200,note_on,0,0,3,,,,,,,,3,,,,73,45
13200,note_on,0,0,8,,,,,,,,8,,,,73,45
13200,note_off,30,0,8,,,,,,,,8,,,,75,64
13200,note_off,30,0,9,,,,,,,,10,,,,72,64
13200,note_off,30,0,4,,,,,,,,4,,,,72,64
13200,note_off,30,0,3,,,,,,,,3,,,,75,64
13280,note_off,80,0,10,,,,,,,,11,,,,65,64
13280,note_off,80,0,5,,,,,,,,5,,,,65,64
13280,note_off,80,0,4,,,,,,,,4,,,,70,64
13280,note_off,80,0,8,,,,,,,,8,,,,73,64
13280,note_off,80,0,3,,,,,,,,3,,,,73,64
13280,note_off,80,0,9,,,,,,,,10,,,,70,64
13315,note_off,235,0,13,,,,,,,,14,,,,41,64
13320,note_on,5,0,13,,,,,,,,14,,,,41,30
13320,note_on,160,0,6,,,,,,,,6,,,,53,45
13320,note_on,160,0,7,,,,,,,,7,,,,41,45
13320,note_on,160,0,11,,,,,,,,12,,,,53,45
13320,note_on,40,0,3,,,,,,,,3,,,,73,45
13320,note_on,40,0,9,,,,,,,,10,,,,70,45
13320,note_on,40,0,4,,,,,,,,4,,,,70,45
13320,note_on,40,0,10,,,,,,,,11,,,,65,45
13320,note_on,160,0,12,,,,,,,,13,,,,41,45
13320,note_on,40,0,5,,,,,,,,5,,,,65,45
13320,note_on,40,0,8,,,,,,,,8,,,,73,45
13350,note_off,30,0,9,,,,,,,,10,,,,70,64
13350,note_off,30,0,10,,,,,,,,11,,,,65,64
13350,note_on,0,0,9,,,,,,,,10,,,,72,45
13350,note_off,30,0,5,,,,,,,,5,,,,65,64
13350,note_on,0,0,5,,,,,,,,5,,,,67,45
13350,note_off,30,0,3,,,,,,,,3,,,,73,64
13350,note_on,0,0,4,,,,,,,,4,,,,72,45
13350,note_off,30,0,4,,,,,,,,4,,,,70,64
13350,note_on,0,0,8,,,,,,,,8,,,,75,45
13350,note_off,30,0,8,,,,,,,,8,,,,73,64
13350,note_on,0,0,10,,,,,,,,11,,,,67,45
13350,note_on,0,0,3,,,,,,,,3,,,,75,45
13380,note_off,30,0,10,,,,,,,,11,,,,67,64
13380,note_off,30,0,9,,,,,,,,10,,,,72,64
13380,note_on,0,0,3,,,,,,,,3,,,,73,45
13380,note_off,30,0,3,,,,,,,,3,,,,75,64
13380,note_off,30,0,5,,,,,,,,5,,,,67,64
13380,note_on,0,0,5,,,,,,,,5,,,,65,45
13380,note_off,30,0,4,,,,,,,,4,,,,72,64
13380,note_off,30,0,8,,,,,,,,8,,,,75,64
13380,note_on,0,0,8,,,,,,,,8,,,,73,45
13380,note_on,0,0,10,,,,,,,,11,,,,65,45
13380,note_on,0,0,4,,,,,,,,4,,,,70,45
13380,note_on,0,0,9,,,,,,,,10,,,,70,45
13400,note_off,80,0,11,,,,,,,,12,,,,53,64
13400,note_off,80,0,7,,,,,,,,7,,,,41,64
13400,note_off,80,0,6,,,,,,,,6,,,,53,64
13400,note_off,80,0,12,,,,,,,,13,,,,41,64
13410,note_on,0,0,3,,,,,,,,3,,,,75,45
13410,note_off,30,0,10,,,,,,,,11,,,,65,64
13410,note_on,0,0,10,,,,,,,,11,,,,67,45
13410,note_on,0,0,8,,,,,,,,8,,,,75,45
13410,note_off,30,0,8,,,,,,,,8,,,,73,64
13410,note_on,0,0,9,,,,,,,,10,,,,72,45
13410,note_off,30,0,9,,,,,,,,10,,,,70,64
13410,note_off,30,0,5,,,,,,,,5,,,,65,64
13410,note_off,30,0,4,,,,,,,,4,,,,70,64
13410,note_on,0,0,4,,,,,,,,4,,,,72,45
13410,note_off,30,0,3,,,,,,,,3,,,,73,64
13410,note_on,0,0,5,,,,,,,,5,,,,67,45
13440,note_on,0,0,10,,,,,,,,11,,,,65,45
13440,note_off,30,0,4,,,,,,,,4,,,,72,64
13440,note_on,0,0,4,,,,,,,,4,,,,70,45
13440,note_off,30,0,8,,,,,,,,8,,,,75,64
13440,note_on,0,0,8,,,,,,,,8,,,,73,45
13440,note_off,30,0,10,,,,,,,,11,,,,67,64
13440,note_off,30,0,3,,,,,,,,3,,,,75,64
13440,note_on,0,0,9,,,,,,,,10,,,,70,45
13440,note_on,0,0,3,,,,,,,,3,,,,73,45
13440,note_on,0,0,5,,,,,,,,5,,,,65,45
13440,note_off,30,0,5,,,,,,,,5,,,,67,64
13440,note_off,30,0,9,,,,,,,,10,,,,72,64
13520,note_off,80,0,4,,,,,,,,4,,,,70,64
13520,note_off,80,0,8,,,,,,,,8,,,,73,64
13520,note_off,80,0,9,,,,,,,,10,,,,70,64
13520,note_off,80,0,10,,,,,,,,11,,,,65,64
13520,note_off,80,0,5,,,,,,,,5,,,,65,64
13520,note_off,80,0,3,,,,,,,,3,,,,73,64
13555,note_off,235,0,13,,,,,,,,14,,,,41,64
13560,note_on,40,0,9,,,,,,,,10,,,,72,45
13560,note_on,40,0,5,,,,,,,,5,,,,69,45
13560,note_on,40,0,8,,,,,,,,8,,,,75,45
13560,note_on,40,0,10,,,,,,,,11,,,,69,45
13560,note_on,160,0,6,,,,,,,,6,,,,53,45
13560,note_on,5,0,13,,,,,,,,14,,,,41,30
13560,note_on,160,0,12,,,,,,,,13,,,,41,45
13560,note_on,160,0,7,,,,,,,,7,,,,41,45
13560,note_on,40,0,4,,,,,,,,4,,,,72,45
13560,note_on,160,0,11,,,,,,,,12,,,,53,45
13560,note_on,40,0,3,,,,,,,,3,,,,75,45
13590,note_off,30,0,10,,,,,,,,11,,,,69,64
13590,note_on,0,0,10,,,,,,,,11,,,,70,45
13590,note_on,0,0,8,,,,,,,,8,,,,77,45
13590,note_off,30,0,4,,,,,,,,4,,,,72,64
13590,note_on,0,0,4,,,,,,,,4,,,,73,45
13590,note_off,30,0,3,,,,,,,,3,,,,75,64
13590,note_off,30,0,5,,,,,,,,5,,,,69,64
13590,note_on,0,0,9,,,,,,,,10,,,,73,45
13590,note_off,30,0,9,,,,,,,,10,,,,72,64
13590,note_on,0,0,3,,,,,,,,3,,,,77,45
13590,note_on,0,0,5,,,,,,,,5,,,,70,45
13590,note_off,30,0,8,,,,,,,,8,,,,75,64
13620,note_off,30,0,3,,,,,,,,3,,,,77,64
13620,note_off,30,0,9,,,,,,,,10,,,,73,64
13620,note_on,0,0,4,,,,,,,,4,,,,72,45
13620,note_off,30,0,4,,,,,,,,4,,,,73,64
13620,note_on,0,0,9,,,,,,,,10,,,,72,45
13620,note_off,30,0,8,,,,,,,,8,,,,77,64
13620,note_on,0,0,8,,,,,,,,8,,,,75,45
13620,note_on,0,0,3,,,,,,,,3,,,,75,45
13620,note_off,30,0,5,,,,,,,,5,,,,70,64
13620,note_on,0,0,5,,,,,,,,5,,,,69,45
13620,note_off,30,0,10,,,,,,,,11,,,,70,64
13620,note_on,0,0,10,,,,,,,,11,,,,69,45
13640,note_off,80,0,7,,,,,,,,7,,,,41,64
13640,note_off,80,0,6,,,,,,,,6,,,,53,64
13640,note_off,80,0,12,,,,,,,,13,,,,41,64
13640,note_off,80,0,11,,,,,,,,12,,,,53,64
13650,note_on,0,0,8,,,,,,,,8,,,,77,45
13650,note_off,30,0,8,,,,,,,,8,,,,75,64
13650,note_on,0,0,5,,,,,,,,5,,,,70,45
13650,note_off,30,0,5,,,,,,,,5,,,,69,64
13650,note_off,30,0,10,,,,,,,,11,,,,69,64
13650,note_on,0,0,10,,,,,,,,11,,,,70,45
13650,note_off,30,0,4,,,,,,,,4,,,,72,64
13650,note_on,0,0,9,,,,,,,,10,,,,73,45
13650,note_off,30,0,9,,,,,,,,10,,,,72,64
13650,note_off,30,0,3,,,,,,,,3,,,,75,64
13650,note_on,0,0,3,,,,,,,,3,,,,77,45
13650,note_on,0,0,4,,,,,,,,4,,,,73,45
13680,note_on,0,0,4,,,,,,,,4,,,,72,45
13680,note_off,30,0,4,,,,,,,,4,,,,73,64
13680,note_off,30,0,3,,,,,,,,3,,,,77,64
13680,note_on,0,0,3,,,,,,,,3,,,,75,45
13680,note_off,30,0,10,,,,,,,,11,,,,70,64
13680,note_on,0,0,5,,,,,,,,5,,,,69,45
13680,note_off,30,0,5,,,,,,,,5,,,,70,64
13680,note_on,0,0,9,,,,,,,,10,,,,72,45
13680,note_off,30,0,9,,,,,,,,10,,,,73,64
13680,note_on,0,0,10,,,,,,,,11,,,,69,45
13680,note_on,0,0,8,,,,,,,,8,,,,75,45
13680,note_off,30,0,8,,,,,,,,8,,,,77,64
13760,note_off,80,0,8,,,,,,,,8,,,,75,64
13760,note_off,80,0,5,,,,,,,,5,,,,69,64
13760,note_off,80,0,4,,,,,,,,4,,,,72,64
13760,note_off,80,0,3,,,,,,,,3,,,,75,64
13760,note_off,80,0,10,,,,,,,,11,,,,69,64
13760,note_off,80,0,9,,,,,,,,10,,,,72,64
13795,note_off,235,0,13,,,,,,,,14,,,,41,64
13800,note_on,40,0,10,,,,,,,,11,,,,69,45
13800,note_on,160,0,7,,,,,,,,7,,,,41,45
13800,note_on,40,0,4,,,,,,,,4,,,,72,45
13800,note_on,160,0,6,,,,,,,,6,,,,53,45
13800,note_on,160,0,12,,,,,,,,13,,,,41,45
13800,note_on,40,0,5,,,,,,,,5,,,,69,45
13800,note_on,160,0,11,,,,,,,,12,,,,53,45
13800,note_on,5,0,13,,,,,,,,14,,,,41,30
13800,note_on,40,0,8,,,,,,,,8,,,,75,45
13800,note_on,40,0,9,,,,,,,,10,,,,72,45
13800,note_on,40,0,3,,,,,,,,3,,,,75,45
13830,note_off,30,0,5,,,,,,,,5,,,,69,64
13830,note_off,30,0,8,,,,,,,,8,,,,75,64
13830,note_on,0,0,5,,,,,,,,5,,,,70,45
13830,note_on,0,0,8,,,,,,,,8,,,,77,45
13830,note_off,30,0,4,,,,,,,,4,,,,72,64
13830,note_on,0,0,4,,,,,,,,4,,,,73,45
13830,note_off,30,0,9,,,,,,,,10,,,,72,64
13830,note_on,0,0,10,,,,,,,,11,,,,70,45
13830,note_off,30,0,10,,,,,,,,11,,,,69,64
13830,note_off,30,0,3,,,,,,,,3,,,,75,64
13830,note_on,0,0,9,,,,,,,,10,,,,73,45
13830,note_on,0,0,3,,,,,,,,3,,,,77,45
13860,note_on,0,0,3,,,,,,,,3,,,,75,45
13860,note_off,30,0,3,,,,,,,,3,,,,77,64
13860,note_on,0,0,8,,,,,,,,8,,,,75,45
13860,note_on,0,0,5,,,,,,,,5,,,,69,45
13860,note_off,30,0,4,,,,,,,,4,,,,73,64
13860,note_on,0,0,10,,,,,,,,11,,,,69,45
13860,note_off,30,0,10,,,,,,,,11,,,,70,64
13860,note_on,0,0,9,,,,,,,,10,,,,72,45
13860,note_off,30,0,9,,,,,,,,10,,,,73,64
13860,note_off,30,0,5,,,,,,,,5,,,,70,64
13860,note_on,0,0,4,,,,,,,,4,,,,72,45
13860,note_off,30,0,8,,,,,,,,8,,,,77,64
13880,note_off,80,0,11,,,,,,,,12,,,,53,64
13880,note_off,80,0,7,,,,,,,,7,,,,41,64
13880,note_off,80,0,6,,,,,,,,6,,,,53,64
13880,note_off,80,0,12,,,,,,,,13,,,,41,64
13890,note_off,30,0,3,,,,,,,,3,,,,75,64
13890,note_off,30,0,5,,,,,,,,5,,,,69,64
13890,note_on,0,0,4,,,,,,,,4,,,,73,45
13890,note_on,0,0,8,,,,,,,,8,,,,77,45
13890,note_off,30,0,8,,,,,,,,8,,,,75,64
13890,note_on,0,0,5,,,,,,,,5,,,,70,45
13890,note_off,30,0,9,,,,,,,,10,,,,72,64
13890,note_on,0,0,9,,,,,,,,10,,,,73,45
13890,note_off,30,0,10,,,,,,,,11,,,,69,64
13890,note_on,0,0,10,,,,,,,,11,,,,70,45
13890,note_on,0,0,3,,,,,,,,3,,,,77,45
13890,note_off,30,0,4,,,,,,,,4,,,,72,64
13920,note_off,30,0,4,,,,,,,,4,,,,73,64
13920,note_on,0,0,4,,,,,,,,4,,,,72,45
13920,note_off,30,0,5,,,,,,,,5,,,,70,64
13920,note_on,0,0,3,,,,,,,,3,,,,75,45
13920,note_on,0,0,10,,,,,,,,11,,,,69,45
13920,note_off,30,0,10,,,,,,,,11,,,,70,64
13920,note_off,30,0,8,,,,,,,,8,,,,77,64
13920,note_on,0,0,8,,,,,,,,8,,,,75,45
13920,note_off,30,0,3,,,,,,,,3,,,,77,64
13920,note_on,0,0,9,,,,,,,,10,,,,72,45
13920,note_off,30,0,9,,,,,,,,10,,,,73,64
13920,note_on,0,0,5,,,,,,,,5,,,,69,45
14000,note_off,80,0,8,,,,,,,,8,,,,75,64
14000,note_off,80,0,5,,,,,,,,5,,,,69,64
14000,note_off,80,0,3,,,,,,,,3,,,,75,64
14000,note_off,80,0,4,,,,,,,,4,,,,72,64
14000,note_off,80,0,10,,,,,,,,11,,,,69,64
14000,note_off,80,0,9,,,,,,,,10,,,,72,64
14035,note_off,235,0,13,,,,,,,,14,,,,41,64
14040,note_on,160,0,11,,,,,,,,12,,,,53,45
14040,note_on,5,0,13,,,,,,,,14,,,,41,30
14040,note_on,40,0,5,,,,,,,,5,,,,69,45
14040,note_on,160,0,7,,,,,,,,7,,,,41,45
14040,note_on,40,0,4,,,,,,,,4,,,,72,45
14040,note_on,40,0,3,,,,,,,,3,,,,75,45
14040,note_on,160,0,12,,,,,,,,13,,,,41,45
14040,note_on,40,0,9,,,,,,,,10,,,,72,45
14040,note_on,160,0,6,,,,,,,,6,,,,53,45
14040,note_on,40,0,8,,,,,,,,8,,,,75,45
14040,note_on,40,0,10,,,,,,,,11,,,,69,45
14070,note_off,30,0,3,,,,,,,,3,,,,75,64
14070,note_on,0,0,3,,,,,,,,3,,,,77,45
14070,note_on,0,0,10,,,,,,,,11,,,,70,45
14070,note_off,30,0,4,,,,,,,,4,,,,72,64
14070,note_off,30,0,10,,,,,,,,11,,,,69,64
14070,note_on,0,0,4,,,,,,,,4,,,,73,45
14070,note_off,30,0,5,,,,,,,,5,,,,69,64
14070,note_on,0,0,5,,,,,,,,5,,,,70,45
14070,note_off,30,0,8,,,,,,,,8,,,,75,64
14070,note_off,30,0,9,,,,,,,,10,,,,72,64
14070,note_on,0,0,9,,,,,,,,10,,,,73,45
14070,note_on,0,0,8,,,,,,,,8,,,,77,45
14100,note_off,30,0,8,,,,,,,,8,,,,77,64
14100,note_on,0,0,8,,,,,,,,8,,,,75,45
14100,note_on,0,0,3,,,,,,,,3,,,,75,45
14100,note_off,30,0,3,,,,,,,,3,,,,77,64
14100,note_on,0,0,4,,,,,,,,4,,,,72,45
14100,note_off,30,0,4,,,,,,,,4,,,,73,64
14100,note_on,0,0,5,,,,,,,,5,,,,69,45
14100,note_off,30,0,5,,,,,,,,5,,,,70,64
14100,note_off,30,0,10,,,,,,,,11,,,,70,64
14100,note_on,0,0,10,,,,,,,,11,,,,69,45
14100,note_off,30,0,9,,,,,,,,10,,,,73,64
14100,note_on,0,0,9,,,,,,,,10,,,,72,45
14120,note_off,80,0,6,,,,,,,,6,,,,53,64
14120,note_off,80,0,11,,,,,,,,12,,,,53,64
14120,note_off,80,0,7,,,,,,,,7,,,,41,64
14120,note_off,80,0,12,,,,,,,,13,,,,41,64
14130,note_off,30,0,9,,,,,,,,10,,,,72,64
14130,note_off,30,0,10,,,,,,,,11,,,,69,64
14130,note_on,0,0,3,,,,,,,,3,,,,77,45
14130,note_off,30,0,3,,,,,,,,3,,,,75,64
14130,note_on,0,0,10,,,,,,,,11,,,,70,45
14130,note_on,0,0,4,,,,,,,,4,,,,73,45
14130,note_on,0,0,5,,,,,,,,5,,,,70,45
14130,note_off,30,0,5,,,,,,,,5,,,,69,64
14130,note_off,30,0,4,,,,,,,,4,,,,72,64
14130,note_on,0,0,9,,,,,,,,10,,,,73,45
14130,note_on,0,0,8,,,,,,,,8,,,,77,45
14130,note_off,30,0,8,,,,,,,,8,,,,75,64
14160,note_on,0,0,9,,,,,,,,10,,,,72,45
14160,note_off,30,0,5,,,,,,,,5,,,,70,64
14160,note_on,0,0,10,,,,,,,,11,,,,69,45
14160,note_off,30,0,9,,,,,,,,10,,,,73,64
14160,note_off,30,0,4,,,,,,,,4,,,,73,64
14160,note_on,0,0,4,,,,,,,,4,,,,72,45
14160,note_on,0,0,3,,,,,,,,3,,,,75,45
14160,note_off,30,0,3,,,,,,,,3,,,,77,64
14160,note_on,0,0,5,,,,,,,,5,,,,69,45
14160,note_off,30,0,10,,,,,,,,11,,,,70,64
14160,note_on,0,0,8,,,,,,,,8,,,,75,45
14160,note_off,30,0,8,,,,,,,,8,,,,77,64
14240,note_off,80,0,5,,,,,,,,5,,,,69,64
14240,note_off,80,0,8,,,,,,,,8,,,,75,64
14240,note_off,80,0,4,,,,,,,,4,,,,72,64
14240,note_off,80,0,10,,,,,,,,11,,,,69,64
14240,note_off,80,0,9,,,,,,,,10,,,,72,64
14240,note_off,80,0,3,,,,,,,,3,,,,75,64
14275,note_off,235,0,13,,,,,,,,14,,,,41,64
14280,note_on,40,0,4,,,,,,,,4,,,,72,45
14280,note_on,40,0,8,,,,,,,,8,,,,75,45
14280,note_on,160,0,12,,,,,,,,13,,,,41,45
14280,note_on,40,0,5,,,,,,,,5,,,,69,45
14280,note_on,5,0,13,,,,,,,,14,,,,41,30
14280,note_on,40,0,3,,,,,,,,3,,,,75,45
14280,note_on,40,0,10,,,,,,,,11,,,,69,45
14280,note_on,40,0,9,,,,,,,,10,,,,72,45
14280,note_on,160,0,11,,,,,,,,12,,,,53,45
14280,note_on,160,0,6,,,,,,,,6,,,,53,45
14280,note_on,160,0,7,,,,,,,,7,,,,41,45
14310,note_on,0,0,3,,,,,,,,3,,,,77,45
14310,note_off,30,0,10,,,,,,,,11,,,,69,64
14310,note_off,30,0,9,,,,,,,,10,,,,72,64
14310,note_on,0,0,9,,,,,,,,10,,,,73,45
14310,note_off,30,0,8,,,,,,,,8,,,,75,64
14310,note_on,0,0,8,,,,,,,,8,,,,77,45
14310,note_on,0,0,10,,,,,,,,11,,,,70,45
14310,note_on,0,0,4,,,,,,,,4,,,,73,45
14310,note_off,30,0,5,,,,,,,,5,,,,69,64
14310,note_on,0,0,5,,,,,,,,5,,,,70,45
14310,note_off,30,0,4,,,,,,,,4,,,,72,64
14310,note_off,30,0,3,,,,,,,,3,,,,75,64
14340,note_on,0,0,5,,,,,,,,5,,,,69,45
14340,note_on,0,0,9,,,,,,,,10,,,,72,45
14340,note_off,30,0,9,,,,,,,,10,,,,73,64
14340,note_off,30,0,10,,,,,,,,11,,,,70,64
14340,note_off,30,0,4,,,,,,,,4,,,,73,64
14340,note_on,0,0,4,,,,,,,,4,,,,72,45
14340,note_on,0,0,8,,,,,,,,8,,,,75,45
14340,note_on,0,0,10,,,,,,,,11,,,,69,45
14340,note_off,30,0,8,,,,,,,,8,,,,77,64
14340,note_off,30,0,5,,,,,,,,5,,,,70,64
14340,note_on,0,0,3,,,,,,,,3,,,,75,45
14340,note_off,30,0,3,,,,,,,,3,,,,77,64
14360,note_off,80,0,7,,,,,,,,7,,,,41,64
14360,note_off,80,0,11,,,,,,,,12,,,,53,64
14360,note_off,80,0,12,,,,,,,,13,,,,41,64
14360,note_off,80,0,6,,,,,,,,6,,,,53,64
14370,note_off,30,0,9,,,,,,,,10,,,,72,64
14370,note_on,0,0,9,,,,,,,,10,,,,73,45
14370,note_on,0,0,5,,,,,,,,5,,,,70,45
14370,note_off,30,0,3,,,,,,,,3,,,,75,64
14370,note_off,30,0,4,,,,,,,,4,,,,72,64
14370,note_on,0,0,4,,,,,,,,4,,,,73,45
14370,note_on,0,0,10,,,,,,,,11,,,,70,45
14370,note_off,30,0,5,,,,,,,,5,,,,69,64
14370,note_off,30,0,8,,,,,,,,8,,,,75,64
14370,note_on,0,0,3,,,,,,,,3,,,,77,45
14370,note_off,30,0,10,,,,,,,,11,,,,69,64
14370,note_on,0,0,8,,,,,,,,8,,,,77,45
14400,note_off,30,0,10,,,,,,,,11,,,,70,64
14400,note_on,0,0,10,,,,,,,,11,,,,69,45
14400,note_on,0,0,9,,,,,,,,10,,,,72,45
14400,note_on,0,0,4,,,,,,,,4,,,,72,45
14400,note_off,30,0,3,,,,,,,,3,,,,77,64
14400,note_on,0,0,3,,,,,,,,3,,,,75,45
14400,note_on,0,0,5,,,,,,,,5,,,,69,45
14400,note_off,30,0,4,,,,,,,,4,,,,73,64
14400,note_off,30,0,5,,,,,,,,5,,,,70,64
14400,note_off,30,0,8,,,,,,,,8,,,,77,64
14400,note_on,0,0,8,,,,,,,,8,,,,75,45
14400,note_off,30,0,9,,,,,,,,10,,,,73,64
14480,note_off,80,0,10,,,,,,,,11,,,,69,64
14480,note_off,80,0,4,,,,,,,,4,,,,72,64
14480,note_off,80,0,3,,,,,,,,3,,,,75,64
14480,note_off,80,0,8,,,,,,,,8,,,,75,64
14480,note_off,80,0,5,,,,,,,,5,,,,69,64
14480,note_off,80,0,9,,,,,,,,10,,,,72,64
14515,note_off,235,0,13,,,,,,,,14,,,,41,64
14520,note_on,5,0,13,,,,,,,,14,,,,41,30
14520,note_on,160,0,7,,,,,,,,7,,,,41,45
14520,note_on,40,0,5,,,,,,,,5,,,,69,45
14520,note_on,160,0,11,,,,,,,,12,,,,53,45
14520,note_on,160,0,12,,,,,,,,13,,,,41,45
14520,note_on,40,0,3,,,,,,,,3,,,,75,45
14520,note_on,40,0,9,,,,,,,,10,,,,72,45
14520,note_on,40,0,10,,,,,,,,11,,,,69,45
14520,note_on,40,0,4,,,,,,,,4,,,,72,45
14520,note_on,160,0,6,,,,,,,,6,,,,53,45
14520,note_on,40,0,8,,,,,,,,8,,,,75,45
14550,note_on,0,0,3,,,,,,,,3,,,,77,45
14550,note_off,30,0,3,,,,,,,,3,,,,75,64
14550,note_on,0,0,5,,,,,,,,5,,,,70,45
14550,note_off,30,0,9,,,,,,,,10,,,,72,64
14550,note_off,30,0,5,,,,,,,,5,,,,69,64
14550,note_on,0,0,8,,,,,,,,8,,,,77,45
14550,note_on,0,0,4,,,,,,,,4,,,,73,45
14550,note_off,30,0,8,,,,,,,,8,,,,75,64
14550,note_on,0,0,10,,,,,,,,11,,,,70,45
14550,note_off,30,0,10,,,,,,,,11,,,,69,64
14550,note_on,0,0,9,,,,,,,,10,,,,73,45
14550,note_off,30,0,4,,,,,,,,4,,,,72,64
14580,note_off,30,0,3,,,,,,,,3,,,,77,64
14580,note_off,30,0,8,,,,,,,,8,,,,77,64
14580,note_on,0,0,8,,,,,,,,8,,,,75,45
14580,note_on,0,0,5,,,,,,,,5,,,,69,45
14580,note_off,30,0,5,,,,,,,,5,,,,70,64
14580,note_on,0,0,10,,,,,,,,11,,,,69,45
14580,note_on,0,0,3,,,,,,,,3,,,,75,45
14580,note_off,30,0,10,,,,,,,,11,,,,70,64
14580,note_off,30,0,9,,,,,,,,10,,,,73,64
14580,note_on,0,0,9,,,,,,,,10,,,,72,45
14580,note_off,30,0,4,,,,,,,,4,,,,73,64
14580,note_on,0,0,4,,,,,,,,4,,,,72,45
14600,note_off,80,0,6,,,,,,,,6,,,,53,64
14600,note_off,80,0,12,,,,,,,,13,,,,41,64
14600,note_off,80,0,7,,,,,,,,7,,,,41,64
14600,note_off,80,0,11,,,,,,,,12,,,,53,64
14610,note_off,30,0,3,,,,,,,,3,,,,75,64
14610,note_on,0,0,3,,,,,,,,3,,,,77,45
14610,note_off,30,0,10,,,,,,,,11,,,,69,64
14610,note_on,0,0,10,,,,,,,,11,,,,70,45
14610,note_on,0,0,5,,,,,,,,5,,,,70,45
14610,note_on,0,0,4,,,,,,,,4,,,,73,45
14610,note_off,30,0,5,,,,,,,,5,,,,69,64
14610,note_off,30,0,8,,,,,,,,8,,,,75,64
14610,note_off,30,0,9,,,,,,,,10,,,,72,64
14610,note_off,30,0,4,,,,,,,,4,,,,72,64
14610,note_on,0,0,9,,,,,,,,10,,,,73,45
14610,note_on,0,0,8,,,,,,,,8,,,,77,45
14640,note_off,30,0,8,,,,,,,,8,,,,77,64
14640,note_on,0,0,4,,,,,,,,4,,,,72,45
14640,note_on,0,0,10,,,,,,,,11,,,,69,45
14640,note_off,30,0,10,,,,,,,,11,,,,70,64
14640,note_on,0,0,9,,,,,,,,10,,,,72,45
14640,note_off,30,0,5,,,,,,,,5,,,,70,64
14640,note_on,0,0,5,,,,,,,,5,,,,69,45
14640,note_off,30,0,3,,,,,,,,3,,,,77,64
14640,note_on,0,0,3,,,,,,,,3,,,,75,45
14640,note_off,30,0,9,,,,,,,,10,,,,73,64
14640,note_off,30,0,4,,,,,,,,4,,,,73,64
14640,note_on,0,0,8,,,,,,,,8,,,,75,45
14720,note_off,80,0,9,,,,,,,,10,,,,72,64
14720,note_off,80,0,10,,,,,,,,11,,,,69,64
14720,note_off,80,0,4,,,,,,,,4,,,,72,64
14720,note_off,80,0,5,,,,,,,,5,,,,69,64
14720,note_off,80,0,3,,,,,,,,3,,,,75,64
14720,note_off,80,0,8,,,,,,,,8,,,,75,64
14755,note_off,235,0,13,,,,,,,,14,,,,41,64
14760,note_on,160,0,7,,,,,,,,7,,,,41,45
14760,note_on,160,0,11,,,,,,,,12,,,,53,45
14760,note_on,40,0,8,,,,,,,,8,,,,75,45
14760,note_on,160,0,6,,,,,,,,6,,,,53,45
14760,note_on,40,0,3,,,,,,,,3,,,,75,45
14760,note_on,160,0,12,,,,,,,,13,,,,41,45
14760,note_on,40,0,9,,,,,,,,10,,,,72,45
14760,note_on,40,0,10,,,,,,,,11,,,,69,45
14760,note_on,40,0,4,,,,,,,,4,,,,72,45
14760,note_on,40,0,5,,,,,,,,5,,,,69,45
14760,note_on,5,0,13,,,,,,,,14,,,,41,30
14790,note_on,0,0,3,,,,,,,,3,,,,77,45
14790,note_off,30,0,3,,,,,,,,3,,,,75,64
14790,note_off,30,0,8,,,,,,,,8,,,,75,64
14790,note_on,0,0,8,,,,,,,,8,,,,77,45
14790,note_off,30,0,5,,,,,,,,5,,,,69,64
14790,note_off,30,0,10,,,,,,,,11,,,,69,64
14790,note_on,0,0,10,,,,,,,,11,,,,70,45
14790,note_on,0,0,9,,,,,,,,10,,,,73,45
14790,note_off,30,0,4,,,,,,,,4,,,,72,64
14790,note_on,0,0,4,,,,,,,,4,,,,73,45
14790,note_off,30,0,9,,,,,,,,10,,,,72,64
14790,note_on,0,0,5,,,,,,,,5,,,,70,45
14820,note_on,0,0,5,,,,,,,,5,,,,69,45
14820,note_off,30,0,5,,,,,,,,5,,,,70,64
14820,note_on,0,0,10,,,,,,,,11,,,,69,45
14820,note_off,30,0,10,,,,,,,,11,,,,70,64
14820,note_on,0,0,3,,,,,,,,3,,,,75,45
14820,note_on,0,0,4,,,,,,,,4,,,,72,45
14820,note_off,30,0,4,,,,,,,,4,,,,73,64
14820,note_on,0,0,8,,,,,,,,8,,,,75,45
14820,note_off,30,0,8,,,,,,,,8,,,,77,64
14820,note_off,30,0,3,,,,,,,,3,,,,77,64
14820,note_on,0,0,9,,,,,,,,10,,,,72,45
14820,note_off,30,0,9,,,,,,,,10,,,,73,64
14840,note_off,80,0,6,,,,,,,,6,,,,53,64
14840,note_off,80,0,11,,,,,,,,12,,,,53,64
14840,note_off,80,0,7,,,,,,,,7,,,,41,64
14840,note_off,80,0,12,,,,,,,,13,,,,41,64
14850,note_on,0,0,4,,,,,,,,4,,,,73,45
14850,note_off,30,0,4,,,,,,,,4,,,,72,64
14850,note_off,30,0,10,,,,,,,,11,,,,69,64
14850,note_on,0,0,3,,,,,,,,3,,,,77,45
14850,note_on,0,0,10,,,,,,,,11,,,,70,45
14850,note_on,0,0,5,,,,,,,,5,,,,70,45
14850,note_on,0,0,8,,,,,,,,8,,,,77,45
14850,note_off,30,0,8,,,,,,,,8,,,,75,64
14850,note_on,0,0,9,,,,,,,,10,,,,73,45
14850,note_off,30,0,9,,,,,,,,10,,,,72,64
14850,note_off,30,0,5,,,,,,,,5,,,,69,64
14850,note_off,30,0,3,,,,,,,,3,,,,75,64
14880,note_on,0,0,3,,,,,,,,3,,,,75,45
14880,note_off,30,0,3,,,,,,,,3,,,,77,64
14880,note_off,30,0,5,,,,,,,,5,,,,70,64
14880,note_off,30,0,9,,,,,,,,10,,,,73,64
14880,note_on,0,0,4,,,,,,,,4,,,,72,45
14880,note_off,30,0,4,,,,,,,,4,,,,73,64
14880,note_on,0,0,10,,,,,,,,11,,,,69,45
14880,note_off,30,0,10,,,,,,,,11,,,,70,64
14880,note_on,0,0,8,,,,,,,,8,,,,75,45
14880,note_on,0,0,5,,,,,,,,5,,,,69,45
14880,note_off,30,0,8,,,,,,,,8,,,,77,64
14880,note_on,0,0,9,,,,,,,,10,,,,72,45
14960,note_off,80,0,3,,,,,,,,3,,,,75,64
14960,note_off,80,0,8,,,,,,,,8,,,,75,64
14960,note_off,80,0,4,,,,,,,,4,,,,72,64
14960,note_off,80,0,9,,,,,,,,10,,,,72,64
14960,note_off,80,0,5,,,,,,,,5,,,,69,64
14960,note_off,80,0,10,,,,,,,,11,,,,69,64
14995,note_off,235,0,13,,,,,,,,14,,,,41,64
15000,note_on,160,0,12,,,,,,,,13,,,,41,45
15000,note_on,40,0,5,,,,,,,,5,,,,69,45
15000,note_on,160,0,7,,,,,,,,7,,,,41,45
15000,note_on,40,0,10,,,,,,,,11,,,,69,45
15000,note_on,40,0,4,,,,,,,,4,,,,72,45
15000,note_on,160,0,6,,,,,,,,6,,,,53,45
15000,note_on,40,0,8,,,,,,,,8,,,,75,45
15000,note_on,5,0,13,,,,,,,,14,,,,41,30
15000,note_on,160,0,11,,,,,,,,12,,,,53,45
15000,note_on,40,0,3,,,,,,,,3,,,,75,45
15000,note_on,40,0,9,,,,,,,,10,,,,72,45
15030,note_off,30,0,9,,,,,,,,10,,,,72,64
15030,note_on,0,0,9,,,,,,,,10,,,,73,45
15030,note_off,30,0,8,,,,,,,,8,,,,75,64
15030,note_on,0,0,3,,,,,,,,3,,,,77,45
15030,note_on,0,0,4,,,,,,,,4,,,,73,45
15030,note_off,30,0,4,,,,,,,,4,,,,72,64
15030,note_on,0,0,8,,,,,,,,8,,,,77,45
15030,note_off,30,0,10,,,,,,,,11,,,,69,64
15030,note_off,30,0,3,,,,,,,,3,,,,75,64
15030,note_on,0,0,5,,,,,,,,5,,,,70,45
15030,note_off,30,0,5,,,,,,,,5,,,,69,64
15030,note_on,0,0,10,,,,,,,,11,,,,70,45
15060,note_off,30,0,3,,,,,,,,3,,,,77,64
15060,note_on,0,0,9,,,,,,,,10,,,,72,45
15060,note_off,30,0,9,,,,,,,,10,,,,73,64
15060,note_on,0,0,5,,,,,,,,5,,,,69,45
15060,note_on,0,0,3,,,,,,,,3,,,,75,45
15060,note_off,30,0,5,,,,,,,,5,,,,70,64
15060,note_on,0,0,10,,,,,,,,11,,,,69,45
15060,note_off,30,0,8,,,,,,,,8,,,,77,64
15060,note_off,30,0,4,,,,,,,,4,,,,73,64
15060,note_on,0,0,4,,,,,,,,4,,,,72,45
15060,note_off,30,0,10,,,,,,,,11,,,,70,64
15060,note_on,0,0,8,,,,,,,,8,,,,75,45
15080,note_off,80,0,12,,,,,,,,13,,,,41,64
15080,note_off,80,0,7,,,,,,,,7,,,,41,64
15080,note_off,80,0,11,,,,,,,,12,,,,53,64
15080,note_off,80,0,6,,,,,,,,6,,,,53,64
15090,note_off,30,0,4,,,,,,,,4,,,,72,64
15090,note_on,0,0,4,,,,,,,,4,,,,73,45
15090,note_on,0,0,8,,,,,,,,8,,,,77,45
15090,note_on,0,0,5,,,,,,,,5,,,,70,45
15090,note_off,30,0,8,,,,,,,,8,,,,75,64
15090,note_on,0,0,3,,,,,,,,3,,,,77,45
15090,note_off,30,0,5,,,,,,,,5,,,,69,64
15090,note_on,0,0,9,,,,,,,,10,,,,73,45
15090,note_off,30,0,9,,,,,,,,10,,,,72,64
15090,note_on,0,0,10,,,,,,,,11,,,,70,45
15090,note_off,30,0,10,,,,,,,,11,,,,69,64
15090,note_off,30,0,3,,,,,,,,3,,,,75,64
15120,note_on,0,0,8,,,,,,,,8,,,,75,45
15120,note_off,30,0,8,,,,,,,,8,,,,77,64
15120,note_on,0,0,4,,,,,,,,4,,,,72,45
15120,note_off,30,0,3,,,,,,,,3,,,,77,64
15120,note_on,0,0,9,,,,,,,,10,,,,72,45
15120,note_off,30,0,9,,,,,,,,10,,,,73,64
15120,note_off,30,0,4,,,,,,,,4,,,,73,64
15120,note_off,30,0,5,,,,,,,,5,,,,70,64
15120,note_on,0,0,3,,,,,,,,3,,,,75,45
15120,note_on,0,0,10,,,,,,,,11,,,,69,45
15120,note_on,0,0,5,,,,,,,,5,,,,69,45
15120,note_off,30,0,10,,,,,,,,11,,,,70,64
15200,note_off,80,0,5,,,,,,,,5,,,,69,64
15200,note_off,80,0,10,,,,,,,,11,,,,69,64
15200,note_off,80,0,3,,,,,,,,3,,,,75,64
15200,note_off,80,0,8,,,,,,,,8,,,,75,64
15200,note_off,80,0,9,,,,,,,,10,,,,72,64
15200,note_off,80,0,4,,,,,,,,4,,,,72,64
15235,note_off,235,0,13,,,,,,,,14,,,,41,64
15240,note_on,160,0,7,,,,,,,,7,,,,41,45
15240,note_on,40,0,4,,,,,,,,4,,,,72,45
15240,note_on,5,0,13,,,,,,,,14,,,,41,30
15240,note_on,160,0,6,,,,,,,,6,,,,53,45
15240,note_on,40,0,3,,,,,,,,3,,,,75,45
15240,note_on,160,0,11,,,,,,,,12,,,,53,45
15240,note_on,40,0,8,,,,,,,,8,,,,75,45
15240,note_on,160,0,12,,,,,,,,13,,,,41,45
15240,note_on,40,0,10,,,,,,,,11,,,,69,45
15240,note_on,40,0,5,,,,,,,,5,,,,69,45
15240,note_on,40,0,9,,,,,,,,10,,,,72,45
15270,note_on,0,0,9,,,,,,,,10,,,,73,45
15270,note_off,30,0,9,,,,,,,,10,,,,72,64
15270,note_on,0,0,10,,,,,,,,11,,,,70,45
15270,note_off,30,0,10,,,,,,,,11,,,,69,64
15270,note_off,30,0,4,,,,,,,,4,,,,72,64
15270,note_on,0,0,5,,,,,,,,5,,,,70,45
15270,note_off,30,0,5,,,,,,,,5,,,,69,64
15270,note_off,30,0,3,,,,,,,,3,,,,75,64
15270,note_on,0,0,4,,,,,,,,4,,,,73,45
15270,note_on,0,0,8,,,,,,,,8,,,,77,45
15270,note_on,0,0,3,,,,,,,,3,,,,77,45
15270,note_off,30,0,8,,,,,,,,8,,,,75,64
15300,note_off,30,0,9,,,,,,,,10,,,,73,64
15300,note_on,0,0,10,,,,,,,,11,,,,69,45
15300,note_off,30,0,10,,,,,,,,11,,,,70,64
15300,note_off,30,0,4,,,,,,,,4,,,,73,64
15300,note_on,0,0,4,,,,,,,,4,,,,72,45
15300,note_on,0,0,9,,,,,,,,10,,,,72,45
15300,note_on,0,0,5,,,,,,,,5,,,,69,45
15300,note_on,0,0,3,,,,,,,,3,,,,75,45
15300,note_off,30,0,3,,,,,,,,3,,,,77,64
15300,note_off,30,0,5,,,,,,,,5,,,,70,64
15300,note_on,0,0,8,,,,,,,,8,,,,75,45
15300,note_off,30,0,8,,,,,,,,8,,,,77,64
15320,note_off,80,0,7,,,,,,,,7,,,,41,64
15320,note_off,80,0,6,,,,,,,,6,,,,53,64
15320,note_off,80,0,11,,,,,,,,12,,,,53,64
15320,note_off,80,0,12,,,,,,,,13,,,,41,64
15330,note_on,0,0,3,,,,,,,,3,,,,77,45
15330,note_off,30,0,8,,,,,,,,8,,,,75,64
15330,note_off,30,0,3,,,,,,,,3,,,,75,64
15330,note_off,30,0,4,,,,,,,,4,,,,72,64
15330,note_on,0,0,8,,,,,,,,8,,,,77,45
15330,note_off,30,0,10,,,,,,,,11,,,,69,64
15330,note_on,0,0,4,,,,,,,,4,,,,73,45
15330,note_off,30,0,5,,,,,,,,5,,,,69,64
15330,note_on,0,0,5,,,,,,,,5,,,,70,45
15330,note_on,0,0,10,,,,,,,,11,,,,70,45
15330,note_off,30,0,9,,,,,,,,10,,,,72,64
15330,note_on,0,0,9,,,,,,,,10,,,,73,45
15360,note_on,0,0,8,,,,,,,,8,,,,75,45
15360,note_on,0,0,5,,,,,,,,5,,,,69,45
15360,note_off,30,0,5,,,,,,,,5,,,,70,64
15360,note_on,0,0,9,,,,,,,,10,,,,72,45
15360,note_off,30,0,10,,,,,,,,11,,,,70,64
15360,note_off,30,0,8,,,,,,,,8,,,,77,64
15360,note_off,30,0,9,,,,,,,,10,,,,73,64
15360,note_off,30,0,3,,,,,,,,3,,,,77,64
15360,note_on,0,0,10,,,,,,,,11,,,,69,45
15360,note_on,0,0,4,,,,,,,,4,,,,72,45
15360,note_off,30,0,4,,,,,,,,4,,,,73,64
15360,note_on,0,0,3,,,,,,,,3,,,,75,45
15440,note_off,80,0,9,,,,,,,,10,,,,72,64
15440,note_off,80,0,10,,,,,,,,11,,,,69,64
15440,note_off,80,0,5,,,,,,,,5,,,,69,64
15440,note_off,80,0,8,,,,,,,,8,,,,75,64
15440,note_off,80,0,3,,,,,,,,3,,,,75,64
15440,note_off,80,0,4,,,,,,,,4,,,,72,64
15475,note_off,235,0,13,,,,,,,,14,,,,41,64
15480,note_on,160,0,11,,,,,,,,12,,,,53,45
15480,note_on,160,0,6,,,,,,,,6,,,,53,45
15480,note_on,40,0,3,,,,,,,,3,,,,74,45
15480,note_on,160,0,7,,,,,,,,7,,,,41,45
15480,note_on,40,0,9,,,,,,,,10,,,,71,45
15480,note_on,40,0,4,,,,,,,,4,,,,71,45
15480,note_on,160,0,12,,,,,,,,13,,,,41,45
15480,note_on,40,0,5,,,,,,,,5,,,,67,45
15480,note_on,40,0,8,,,,,,,,8,,,,74,45
15480,note_on,40,0,10,,,,,,,,11,,,,67,45
15480,note_on,5,0,13,,,,,,,,14,,,,41,30
15510,note_on,0,0,9,,,,,,,,10,,,,72,45
15510,note_off,30,0,9,,,,,,,,10,,,,71,64
15510,note_on,0,0,5,,,,,,,,5,,,,68,45
15510,note_on,0,0,8,,,,,,,,8,,,,75,45
15510,note_off,30,0,8,,,,,,,,8,,,,74,64
15510,note_on,0,0,3,,,,,,,,3,,,,75,45
15510,note_off,30,0,3,,,,,,,,3,,,,74,64
15510,note_off,30,0,5,,,,,,,,5,,,,67,64
15510,note_on,0,0,10,,,,,,,,11,,,,68,45
15510,note_off,30,0,10,,,,,,,,11,,,,67,64
15510,note_off,30,0,4,,,,,,,,4,,,,71,64
15510,note_on,0,0,4,,,,,,,,4,,,,72,45
15540,note_off,30,0,9,,,,,,,,10,,,,72,64
15540,note_off,30,0,5,,,,,,,,5,,,,68,64
15540,note_on,0,0,4,,,,,,,,4,,,,71,45
15540,note_on,0,0,9,,,,,,,,10,,,,71,45
15540,note_off,30,0,10,,,,,,,,11,,,,68,64
15540,note_off,30,0,8,,,,,,,,8,,,,75,64
15540,note_on,0,0,10,,,,,,,,11,,,,67,45
15540,note_on,0,0,8,,,,,,,,8,,,,74,45
15540,note_off,30,0,4,,,,,,,,4,,,,72,64
15540,note_on,0,0,5,,,,,,,,5,,,,67,45
15540,note_off,30,0,3,,,,,,,,3,,,,75,64
15540,note_on,0,0,3,,,,,,,,3,,,,74,45
15560,note_off,80,0,7,,,,,,,,7,,,,41,64
15560,note_off,80,0,11,,,,,,,,12,,,,53,64
15560,note_off,80,0,12,,,,,,,,13,,,,41,64
15560,note_off,80,0,6,,,,,,,,6,,,,53,64
15570,note_on,0,0,4,,,,,,,,4,,,,72,45
15570,note_off,30,0,4,,,,,,,,4,,,,71,64
15570,note_on,0,0,8,,,,,,,,8,,,,75,45
15570,note_on,0,0,9,,,,,,,,10,,,,72,45
15570,note_off,30,0,9,,,,,,,,10,,,,71,64
15570,note_off,30,0,10,,,,,,,,11,,,,67,64
15570,note_on,0,0,10,,,,,,,,11,,,,68,45
15570,note_on,0,0,5,,,,,,,,5,,,,68,45
15570,note_off,30,0,8,,,,,,,,8,,,,74,64
15570,note_on,0,0,3,,,,,,,,3,,,,75,45
15570,note_off,30,0,3,,,,,,,,3,,,,74,64
15570,note_off,30,0,5,,,,,,,,5,,,,67,64
15600,note_on,0,0,3,,,,,,,,3,,,,74,45
15600,note_on,0,0,10,,,,,,,,11,,,,67,45
15600,note_off,30,0,10,,,,,,,,11,,,,68,64
15600,note_off,30,0,9,,,,,,,,10,,,,72,64
15600,note_on,0,0,8,,,,,,,,8,,,,74,45
15600,note_off,30,0,8,,,,,,,,8,,,,75,64
15600,note_off,30,0,3,,,,,,,,3,,,,75,64
15600,note_on,0,0,5,,,,,,,,5,,,,67,45
15600,note_off,30,0,4,,,,,,,,4,,,,72,64
15600,note_on,0,0,4,,,,,,,,4,,,,71,45
15600,note_off,30,0,5,,,,,,,,5,,,,68,64
15600,note_on,0,0,9,,,,,,,,10,,,,71,45
15680,note_off,80,0,10,,,,,,,,11,,,,67,64
15680,note_off,80,0,8,,,,,,,,8,,,,74,64
15680,note_off,80,0,4,,,,,,,,4,,,,71,64
15680,note_off,80,0,9,,,,,,,,10,,,,71,64
15680,note_off,80,0,3,,,,,,,,3,,,,74,64
15680,note_off,80,0,5,,,,,,,,5,,,,67,64
15715,note_off,235,0,13,,,,,,,,14,,,,41,64
15720,note_on,160,0,6,,,,,,,,6,,,,53,45
15720,note_on,40,0,4,,,,,,,,4,,,,71,45
15720,note_on,5,0,13,,,,,,,,14,,,,41,30
15720,note_on,40,0,10,,,,,,,,11,,,,67,45
15720,note_on,160,0,11,,,,,,,,12,,,,53,45
15720,note_on,160,0,12,,,,,,,,13,,,,41,45
15720,note_on,40,0,3,,,,,,,,3,,,,74,45
15720,note_on,40,0,8,,,,,,,,8,,,,74,45
15720,note_on,40,0,5,,,,,,,,5,,,,67,45
15720,note_on,40,0,9,,,,,,,,10,,,,71,45
15720,note_on,160,0,7,,,,,,,,7,,,,41,45
15750,note_on,0,0,10,,,,,,,,11,,,,68,45
15750,note_on,0,0,4,,,,,,,,4,,,,72,45
15750,note_off,30,0,4,,,,,,,,4,,,,71,64
15750,note_off,30,0,9,,,,,,,,10,,,,71,64
15750,note_on,0,0,5,,,,,,,,5,,,,68,45
15750,note_off,30,0,5,,,,,,,,5,,,,67,64
15750,note_on,0,0,8,,,,,,,,8,,,,75,45
15750,note_on,0,0,9,,,,,,,,10,,,,72,45
15750,note_on,0,0,3,,,,,,,,3,,,,75,45
15750,note_off,30,0,3,,,,,,,,3,,,,74,64
15750,note_off,30,0,10,,,,,,,,11,,,,67,64
15750,note_off,30,0,8,,,,,,,,8,,,,74,64
15780,note_on,0,0,8,,,,,,,,8,,,,74,45
15780,note_on,0,0,3,,,,,,,,3,,,,74,45
15780,note_off,30,0,3,,,,,,,,3,,,,75,64
15780,note_off,30,0,8,,,,,,,,8,,,,75,64
15780,note_off,30,0,4,,,,,,,,4,,,,72,64
15780,note_on,0,0,4,,,,,,,,4,,,,71,45
15780,note_on,0,0,10,,,,,,,,11,,,,67,45
15780,note_off,30,0,10,,,,,,,,11,,,,68,64
15780,note_on,0,0,5,,,,,,,,5,,,,67,45
15780,note_off,30,0,5,,,,,,,,5,,,,68,64
15780,note_on,0,0,9,,,,,,,,10,,,,71,45
15780,note_off,30,0,9,,,,,,,,10,,,,72,64
15800,note_off,80,0,12,,,,,,,,13,,,,41,64
15800,note_off,80,0,11,,,,,,,,12,,,,53,64
15800,note_off,80,0,7,,,,,,,,7,,,,41,64
15800,note_off,80,0,6,,,,,,,,6,,,,53,64
15810,note_off,30,0,9,,,,,,,,10,,,,71,64
15810,note_off,30,0,3,,,,,,,,3,,,,74,64
15810,note_on,0,0,3,,,,,,,,3,,,,75,45
15810,note_on,0,0,9,,,,,,,,10,,,,72,45
15810,note_off,30,0,10,,,,,,,,11,,,,67,64
15810,note_off,30,0,8,,,,,,,,8,,,,74,64
15810,note_on,0,0,8,,,,,,,,8,,,,75,45
15810,note_on,0,0,10,,,,,,,,11,,,,68,45
15810,note_off,30,0,4,,,,,,,,4,,,,71,64
15810,note_off,30,0,5,,,,,,,,5,,,,67,64
15810,note_on,0,0,5,,,,,,,,5,,,,68,45
15810,note_on,0,0,4,,,,,,,,4,,,,72,45
15840,note_off,30,0,4,,,,,,,,4,,,,72,64
15840,note_off,30,0,9,,,,,,,,10,,,,72,64
15840,note_on,0,0,9,,,,,,,,10,,,,71,45
15840,note_on,0,0,5,,,,,,,,5,,,,67,45
15840,note_off,30,0,5,,,,,,,,5,,,,68,64
15840,note_off,30,0,3,,,,,,,,3,,,,75,64
15840,note_on,0,0,3,,,,,,,,3,,,,74,45
15840,note_on,0,0,10,,,,,,,,11,,,,67,45
15840,note_off,30,0,10,,,,,,,,11,,,,68,64
15840,note_off,30,0,8,,,,,,,,8,,,,75,64
15840,note_on,0,0,8,,,,,,,,8,,,,74,45
15840,note_on,0,0,4,,,,,,,,4,,,,71,45
15920,note_off,80,0,8,,,,,,,,8,,,,74,64
15920,note_off,80,0,10,,,,,,,,11,,,,67,64
15920,note_off,80,0,9,,,,,,,,10,,,,71,64
15920,note_off,80,0,3,,,,,,,,3,,,,74,64
15920,note_off,80,0,4,,,,,,,,4,,,,71,64
15920,note_off,80,0,5,,,,,,,,5,,,,67,64
15955,note_off,235,0,13,,,,,,,,14,,,,41,64
15960,note_on,40,0,10,,,,,,,,11,,,,67,45
15960,note_on,160,0,6,,,,,,,,6,,,,53,45
15960,note_on,40,0,9,,,,,,,,10,,,,71,45
15960,note_on,5,0,13,,,,,,,,14,,,,41,30
15960,note_on,160,0,11,,,,,,,,12,,,,53,45
15960,note_on,40,0,5,,,,,,,,5,,,,67,45
15960,note_on,160,0,12,,,,,,,,13,,,,41,45
15960,note_on,40,0,8,,,,,,,,8,,,,74,45
15960,note_on,160,0,7,,,,,,,,7,,,,41,45
15960,note_on,40,0,3,,,,,,,,3,,,,74,45
15960,note_on,40,0,4,,,,,,,,4,,,,71,45
15990,note_on,0,0,4,,,,,,,,4,,,,72,45
15990,note_off,30,0,10,,,,,,,,11,,,,67,64
15990,note_off,30,0,4,,,,,,,,4,,,,71,64
15990,note_on,0,0,9,,,,,,,,10,,,,72,45
15990,note_off,30,0,5,,,,,,,,5,,,,67,64
15990,note_off,30,0,8,,,,,,,,8,,,,74,64
15990,note_on,0,0,3,,,,,,,,3,,,,75,45
15990,note_on,0,0,5,,,,,,,,5,,,,68,45
15990,note_off,30,0,3,,,,,,,,3,,,,74,64
15990,note_on,0,0,8,,,,,,,,8,,,,75,45
15990,note_on,0,0,10,,,,,,,,11,,,,68,45
15990,note_off,30,0,9,,,,,,,,10,,,,71,64
16020,note_off,30,0,5,,,,,,,,5,,,,68,64
16020,note_on,0,0,5,,,,,,,,5,,,,67,45
16020,note_off,30,0,4,,,,,,,,4,,,,72,64
16020,note_on,0,0,4,,,,,,,,4,,,,71,45
16020,note_on,0,0,8,,,,,,,,8,,,,74,45
16020,note_on,0,0,3,,,,,,,,3,,,,74,45
16020,note_off,30,0,3,,,,,,,,3,,,,75,64
16020,note_off,30,0,8,,,,,,,,8,,,,75,64
16020,note_on,0,0,9,,,,,,,,10,,,,71,45
16020,note_off,30,0,9,,,,,,,,10,,,,72,64
16020,note_off,30,0,10,,,,,,,,11,,,,68,64
16020,note_on,0,0,10,,,,,,,,11,,,,67,45
16040,note_off,80,0,7,,,,,,,,7,,,,41,64
16040,note_off,80,0,12,,,,,,,,13,,,,41,64
16040,note_off,80,0,6,,,,,,,,6,,,,53,64
16040,note_off,80,0,11,,,,,,,,12,,,,53,64
16050,note_on,0,0,10,,,,,,,,11,,,,68,45
16050,note_off,30,0,5,,,,,,,,5,,,,67,64
16050,note_on,0,0,5,,,,,,,,5,,,,68,45
16050,note_off,30,0,10,,,,,,,,11,,,,67,64
16050,note_on,0,0,9,,,,,,,,10,,,,72,45
16050,note_off,30,0,4,,,,,,,,4,,,,71,64
16050,note_off,30,0,8,,,,,,,,8,,,,74,64
16050,note_on,0,0,8,,,,,,,,8,,,,75,45
16050,note_off,30,0,9,,,,,,,,10,,,,71,64
16050,note_on,0,0,3,,,,,,,,3,,,,75,45
16050,note_on,0,0,4,,,,,,,,4,,,,72,45
16050,note_off,30,0,3,,,,,,,,3,,,,74,64
16080,note_on,0,0,3,,,,,,,,3,,,,74,45
16080,note_off,30,0,3,,,,,,,,3,,,,75,64
16080,note_on,0,0,8,,,,,,,,8,,,,74,45
16080,note_off,30,0,8,,,,,,,,8,,,,75,64
16080,note_off,30,0,10,,,,,,,,11,,,,68,64
16080,note_on,0,0,10,,,,,,,,11,,,,67,45
16080,note_on,0,0,5,,,,,,,,5,,,,67,45
16080,note_off,30,0,9,,,,,,,,10,,,,72,64
16080,note_on,0,0,9,,,,,,,,10,,,,71,45
16080,note_on,0,0,4,,,,,,,,4,,,,71,45
16080,note_off,30,0,5,,,,,,,,5,,,,68,64
16080,note_off,30,0,4,,,,,,,,4,,,,72,64
16160,note_off,80,0,8,,,,,,,,8,,,,74,64
16160,note_off,80,0,5,,,,,,,,5,,,,67,64
16160,note_off,80,0,3,,,,,,,,3,,,,74,64
16160,note_off,80,0,10,,,,,,,,11,,,,67,64
16160,note_off,80,0,9,,,,,,,,10,,,,71,64
16160,note_off,80,0,4,,,,,,,,4,,,,71,64
16195,note_off,235,0,13,,,,,,,,14,,,,41,64
16200,note_on,160,0,12,,,,,,,,13,,,,41,45
16200,note_on,40,0,4,,,,,,,,4,,,,71,45
16200,note_on,160,0,11,,,,,,,,12,,,,53,45
16200,note_on,40,0,5,,,,,,,,5,,,,67,45
16200,note_on,160,0,7,,,,,,,,7,,,,41,45
16200,note_on,160,0,6,,,,,,,,6,,,,53,45
16200,note_on,40,0,8,,,,,,,,8,,,,74,45
16200,note_on,40,0,3,,,,,,,,3,,,,74,45
16200,note_on,5,0,13,,,,,,,,14,,,,41,30
16200,note_on,40,0,10,,,,,,,,11,,,,67,45
16200,note_on,40,0,9,,,,,,,,10,,,,71,45
16230,note_off,30,0,9,,,,,,,,10,,,,71,64
16230,note_on,0,0,9,,,,,,,,10,,,,72,45
16230,note_off,30,0,3,,,,,,,,3,,,,74,64
16230,note_on,0,0,3,,,,,,,,3,,,,75,45
16230,note_off,30,0,4,,,,,,,,4,,,,71,64
16230,note_off,30,0,5,,,,,,,,5,,,,67,64
16230,note_off,30,0,10,,,,,,,,11,,,,67,64
16230,note_on,0,0,10,,,,,,,,11,,,,68,45
16230,note_on,0,0,8,,,,,,,,8,,,,75,45
16230,note_off,30,0,8,,,,,,,,8,,,,74,64
16230,note_on,0,0,5,,,,,,,,5,,,,68,45
16230,note_on,0,0,4,,,,,,,,4,,,,72,45
16260,note_on,0,0,8,,,,,,,,8,,,,74,45
16260,note_off,30,0,3,,,,,,,,3,,,,75,64
16260,note_off,30,0,8,,,,,,,,8,,,,75,64
16260,note_on,0,0,3,,,,,,,,3,,,,74,45
16260,note_off,30,0,9,,,,,,,,10,,,,72,64
16260,note_on,0,0,10,,,,,,,,11,,,,67,45
16260,note_on,0,0,9,,,,,,,,10,,,,71,45
16260,note_off,30,0,4,,,,,,,,4,,,,72,64
16260,note_on,0,0,4,,,,,,,,4,,,,71,45
16260,note_off,30,0,10,,,,,,,,11,,,,68,64
16260,note_on,0,0,5,,,,,,,,5,,,,67,45
16260,note_off,30,0,5,,,,,,,,5,,,,68,64
16280,note_off,80,0,11,,,,,,,,12,,,,53,64
16280,note_off,80,0,7,,,,,,,,7,,,,41,64
16280,note_off,80,0,12,,,,,,,,13,,,,41,64
16280,note_off,80,0,6,,,,,,,,6,,,,53,64
16290,note_off,30,0,8,,,,,,,,8,,,,74,64
16290,note_on,0,0,8,,,,,,,,8,,,,75,45
16290,note_on,0,0,10,,,,,,,,11,,,,68,45
16290,note_off,30,0,3,,,,,,,,3,,,,74,64
16290,note_on,0,0,3,,,,,,,,3,,,,75,45
16290,note_on,0,0,4,,,,,,,,4,,,,72,45
16290,note_off,30,0,4,,,,,,,,4,,,,71,64
16290,note_off,30,0,5,,,,,,,,5,,,,67,64
16290,note_on,0,0,5,,,,,,,,5,,,,68,45
16290,note_off,30,0,10,,,,,,,,11,,,,67,64
16290,note_on,0,0,9,,,,,,,,10,,,,72,45
16290,note_off,30,0,9,,,,,,,,10,,,,71,64
16320,note_on,0,0,10,,,,,,,,11,,,,67,45
16320,note_on,0,0,5,,,,,,,,5,,,,67,45
16320,note_off,30,0,5,,,,,,,,5,,,,68,64
16320,note_off,30,0,8,,,,,,,,8,,,,75,64
16320,note_on,0,0,9,,,,,,,,10,,,,71,45
16320,note_on,0,0,3,,,,,,,,3,,,,74,45
16320,note_on,0,0,4,,,,,,,,4,,,,71,45
16320,note_off,30,0,4,,,,,,,,4,,,,72,64
16320,note_off,30,0,3,,,,,,,,3,,,,75,64
16320,note_on,0,0,8,,,,,,,,8,,,,74,45
16320,note_off,30,0,10,,,,,,,,11,,,,68,64
16320,note_off,30,0,9,,,,,,,,10,,,,72,64
16400,note_off,80,0,3,,,,,,,,3,,,,74,64
16400,note_off,80,0,10,,,,,,,,11,,,,67,64
16400,note_off,80,0,8,,,,,,,,8,,,,74,64
16400,note_off,80,0,4,,,,,,,,4,,,,71,64
16400,note_off,80,0,5,,,,,,,,5,,,,67,64
16400,note_off,80,0,9,,,,,,,,10,,,,71,64
16435,note_off,235,0,13,,,,,,,,14,,,,41,64
16440,note_on,160,0,7,,,,,,,,7,,,,41,45
16440,note_on,160,0,6,,,,,,,,6,,,,53,45
16440,note_on,5,0,13,,,,,,,,14,,,,41,30
16440,note_on,160,0,12,,,,,,,,13,,,,41,45
16440,note_on,40,0,5,,,,,,,,5,,,,67,45
16440,note_on,40,0,10,,,,,,,,11,,,,67,45
16440,note_on,160,0,11,,,,,,,,12,,,,53,45
16440,note_on,40,0,3,,,,,,,,3,,,,74,45
16440,note_on,40,0,4,,,,,,,,4,,,,71,45
16440,note_on,40,0,8,,,,,,,,8,,,,74,45
16440,note_on,40,0,9,,,,,,,,10,,,,71,45
16470,note_off,30,0,5,,,,,,,,5,,,,67,64
16470,note_on,0,0,4,,,,,,,,4,,,,72,45
16470,note_off,30,0,4,,,,,,,,4,,,,71,64
16470,note_on,0,0,9,,,,,,,,10,,,,72,45
16470,note_on,0,0,5,,,,,,,,5,,,,68,45
16470,note_on,0,0,10,,,,,,,,11,,,,68,45
16470,note_off,30,0,10,,,,,,,,11,,,,67,64
16470,note_on,0,0,3,,,,,,,,3,,,,75,45
16470,note_on,0,0,8,,,,,,,,8,,,,75,45
16470,note_off,30,0,8,,,,,,,,8,,,,74,64
16470,note_off,30,0,3,,,,,,,,3,,,,74,64
16470,note_off,30,0,9,,,,,,,,10,,,,71,64
16500,note_on,0,0,5,,,,,,,,5,,,,67,45
16500,note_on,0,0,10,,,,,,,,11,,,,67,45
16500,note_off,30,0,4,,,,,,,,4,,,,72,64
16500,note_on,0,0,3,,,,,,,,3,,,,74,45
16500,note_on,0,0,4,,,,,,,,4,,,,71,45
16500,note_off,30,0,5,,,,,,,,5,,,,68,64
16500,note_off,30,0,8,,,,,,,,8,,,,75,64
16500,note_on,0,0,8,,,,,,,,8,,,,74,45
16500,note_on,0,0,9,,,,,,,,10,,,,71,45
16500,note_off,30,0,9,,,,,,,,10,,,,72,64
16500,note_off,30,0,3,,,,,,,,3,,,,75,64
16500,note_off,30,0,10,,,,,,,,11,,,,68,64
16520,note_off,80,0,12,,,,,,,,13,,,,41,64
16520,note_off,80,0,11,,,,,,,,12,,,,53,64
16520,note_off,80,0,7,,,,,,,,7,,,,41,64
16520,note_off,80,0,6,,,,,,,,6,,,,53,64
16530,note_on,0,0,8,,,,,,,,8,,,,75,45
16530,note_on,0,0,3,,,,,,,,3,,,,75,45
16530,note_off,30,0,3,,,,,,,,3,,,,74,64
16530,note_off,30,0,8,,,,,,,,8,,,,74,64
16530,note_off,30,0,10,,,,,,,,11,,,,67,64
16530,note_on,0,0,10,,,,,,,,11,,,,68,45
16530,note_off,30,0,5,,,,,,,,5,,,,67,64
16530,note_on,0,0,4,,,,,,,,4,,,,72,45
16530,note_off,30,0,9,,,,,,,,10,,,,71,64
16530,note_on,0,0,9,,,,,,,,10,,,,72,45
16530,note_on,0,0,5,,,,,,,,5,,,,68,45
16530,note_off,30,0,4,,,,,,,,4,,,,71,64
16560,note_off,30,0,3,,,,,,,,3,,,,75,64
16560,note_off,30,0,9,,,,,,,,10,,,,72,64
16560,note_on,0,0,5,,,,,,,,5,,,,67,45
16560,note_off,30,0,5,,,,,,,,5,,,,68,64
16560,note_off,30,0,4,,,,,,,,4,,,,72,64
16560,note_off,30,0,10,,,,,,,,11,,,,68,64
16560,note_on,0,0,3,,,,,,,,3,,,,74,45
16560,note_off,30,0,8,,,,,,,,8,,,,75,64
16560,note_on,0,0,8,,,,,,,,8,,,,74,45
16560,note_on,0,0,9,,,,,,,,10,,,,71,45
16560,note_on,0,0,10,,,,,,,,11,,,,67,45
16560,note_on,0,0,4,,,,,,,,4,,,,71,45
16640,note_off,80,0,4,,,,,,,,4,,,,71,64
16640,note_off,80,0,9,,,,,,,,10,,,,71,64
16640,note_off,80,0,8,,,,,,,,8,,,,74,64
16640,note_off,80,0,10,,,,,,,,11,,,,67,64
16640,note_off,80,0,5,,,,,,,,5,,,,67,64
16640,note_off,80,0,3,,,,,,,,3,,,,74,64
16675,note_off,235,0,13,,,,,,,,14,,,,41,64
16680,note_on,40,0,8,,,,,,,,8,,,,74,45
16680,note_on,160,0,12,,,,,,,,13,,,,41,45
16680,note_on,40,0,4,,,,,,,,4,,,,71,45
16680,note_on,40,0,5,,,,,,,,5,,,,67,45
16680,note_on,40,0,3,,,,,,,,3,,,,74,45
16680,note_on,160,0,6,,,,,,,,6,,,,53,45
16680,note_on,40,0,9,,,,,,,,10,,,,71,45
16680,note_on,40,0,10,,,,,,,,11,,,,67,45
16680,note_on,160,0,11,,,,,,,,12,,,,53,45
16680,note_on,160,0,7,,,,,,,,7,,,,41,45
16680,note_on,5,0,13,,,,,,,,14,,,,41,30
16710,note_on,0,0,10,,,,,,,,11,,,,68,45
16710,note_off,30,0,3,,,,,,,,3,,,,74,64
16710,note_off,30,0,5,,,,,,,,5,,,,67,64
16710,note_on,0,0,8,,,,,,,,8,,,,75,45
16710,note_off,30,0,8,,,,,,,,8,,,,74,64
16710,note_on,0,0,3,,,,,,,,3,,,,75,45
16710,note_on,0,0,4,,,,,,,,4,,,,72,45
16710,note_off,30,0,4,,,,,,,,4,,,,71,64
16710,note_off,30,0,9,,,,,,,,10,,,,71,64
16710,note_on,0,0,9,,,,,,,,10,,,,72,45
16710,note_on,0,0,5,,,,,,,,5,,,,68,45
16710,note_off,30,0,10,,,,,,,,11,,,,67,64
16740,note_off,30,0,3,,,,,,,,3,,,,75,64
16740,note_on,0,0,5,,,,,,,,5,,,,67,45
16740,note_off,30,0,5,,,,,,,,5,,,,68,64
16740,note_on,0,0,9,,,,,,,,10,,,,71,45
16740,note_off,30,0,8,,,,,,,,8,,,,75,64
16740,note_off,30,0,10,,,,,,,,11,,,,68,64
16740,note_on,0,0,10,,,,,,,,11,,,,67,45
16740,note_on,0,0,4,,,,,,,,4,,,,71,45
16740,note_off,30,0,4,,,,,,,,4,,,,72,64
16740,note_off,30,0,9,,,,,,,,10,,,,72,64
16740,note_on,0,0,8,,,,,,,,8,,,,74,45
16740,note_on,0,0,3,,,,,,,,3,,,,74,45
16760,note_off,80,0,11,,,,,,,,12,,,,53,64
16760,note_off,80,0,6,,,,,,,,6,,,,53,64
16760,note_off,80,0,12,,,,,,,,13,,,,41,64
16760,note_off,80,0,7,,,,,,,,7,,,,41,64
16770,note_off,30,0,5,,,,,,,,5,,,,67,64
16770,note_on,0,0,10,,,,,,,,11,,,,68,45
16770,note_off,30,0,4,,,,,,,,4,,,,71,64
16770,note_on,0,0,4,,,,,,,,4,,,,72,45
16770,note_off,30,0,10,,,,,,,,11,,,,67,64
16770,note_on,0,0,9,,,,,,,,10,,,,72,45
16770,note_on,0,0,5,,,,,,,,5,,,,68,45
16770,note_on,0,0,3,,,,,,,,3,,,,75,45
16770,note_off,30,0,3,,,,,,,,3,,,,74,64
16770,note_off,30,0,8,,,,,,,,8,,,,74,64
16770,note_on,0,0,8,,,,,,,,8,,,,75,45
16770,note_off,30,0,9,,,,,,,,10,,,,71,64
16800,note_off,30,0,3,,,,,,,,3,,,,75,64
16800,note_off,30,0,10,,,,,,,,11,,,,68,64
16800,note_on,0,0,10,,,,,,,,11,,,,67,45
16800,note_on,0,0,3,,,,,,,,3,,,,74,45
16800,note_off,30,0,8,,,,,,,,8,,,,75,64
16800,note_off,30,0,9,,,,,,,,10,,,,72,64
16800,note_on,0,0,9,,,,,,,,10,,,,71,45
16800,note_off,30,0,5,,,,,,,,5,,,,68,64
16800,note_on,0,0,8,,,,,,,,8,,,,74,45
16800,note_off,30,0,4,,,,,,,,4,,,,72,64
16800,note_on,0,0,5,,,,,,,,5,,,,67,45
16800,note_on,0,0,4,,,,,,,,4,,,,71,45
16880,note_off,80,0,8,,,,,,,,8,,,,74,64
16880,note_off,80,0,5,,,,,,,,5,,,,67,64
16880,note_off,80,0,3,,,,,,,,3,,,,74,64
16880,note_off,80,0,10,,,,,,,,11,,,,67,64
16880,note_off,80,0,4,,,,,,,,4,,,,71,64
16880,note_off,80,0,9,,,,,,,,10,,,,71,64
16915,note_off,235,0,13,,,,,,,,14,,,,41,64
16920,note_on,40,0,4,,,,,,,,4,,,,71,45
16920,note_on,160,0,12,,,,,,,,13,,,,41,45
16920,note_on,40,0,5,,,,,,,,5,,,,67,45
16920,note_on,160,0,6,,,,,,,,6,,,,53,45
16920,note_on,5,0,13,,,,,,,,14,,,,41,30
16920,note_on,40,0,10,,,,,,,,11,,,,67,45
16920,note_on,160,0,7,,,,,,,,7,,,,41,45
16920,note_on,40,0,3,,,,,,,,3,,,,74,45
16920,note_on,40,0,9,,,,,,,,10,,,,71,45
16920,note_on,40,0,8,,,,,,,,8,,,,74,45
16920,note_on,160,0,11,,,,,,,,12,,,,53,45
16950,note_on,0,0,8,,,,,,,,8,,,,75,45
16950,note_off,30,0,8,,,,,,,,8,,,,74,64
16950,note_off,30,0,5,,,,,,,,5,,,,67,64
16950,note_on,0,0,5,,,,,,,,5,,,,68,45
16950,note_on,0,0,4,,,,,,,,4,,,,72,45
16950,note_off,30,0,4,,,,,,,,4,,,,71,64
16950,note_on,0,0,3,,,,,,,,3,,,,75,45
16950,note_on,0,0,10,,,,,,,,11,,,,68,45
16950,note_off,30,0,10,,,,,,,,11,,,,67,64
16950,note_off,30,0,9,,,,,,,,10,,,,71,64
16950,note_off,30,0,3,,,,,,,,3,,,,74,64
16950,note_on,0,0,9,,,,,,,,10,,,,72,45
16980,note_on,0,0,4,,,,,,,,4,,,,71,45
16980,note_on,0,0,8,,,,,,,,8,,,,74,45
16980,note_off,30,0,8,,,,,,,,8,,,,75,64
16980,note_off,30,0,9,,,,,,,,10,,,,72,64
16980,note_on,0,0,9,,,,,,,,10,,,,71,45
16980,note_off,30,0,4,,,,,,,,4,,,,72,64
16980,note_off,30,0,5,,,,,,,,5,,,,68,64
16980,note_on,0,0,5,,,,,,,,5,,,,67,45
16980,note_on,0,0,10,,,,,,,,11,,,,67,45
16980,note_off,30,0,3,,,,,,,,3,,,,75,64
16980,note_off,30,0,10,,,,,,,,11,,,,68,64
16980,note_on,0,0,3,,,,,,,,3,,,,74,45
17000,note_off,80,0,12,,,,,,,,13,,,,41,64
17000,note_off,80,0,6,,,,,,,,6,,,,53,64
17000,note_off,80,0,7,,,,,,,,7,,,,41,64
17000,note_off,80,0,11,,,,,,,,12,,,,53,64
17010,note_on,0,0,8,,,,,,,,8,,,,75,45
17010,note_off,30,0,8,,,,,,,,8,,,,74,64
17010,note_on,0,0,10,,,,,,,,11,,,,68,45
17010,note_off,30,0,5,,,,,,,,5,,,,67,64
17010,note_on,0,0,5,,,,,,,,5,,,,68,45
17010,note_on,0,0,4,,,,,,,,4,,,,72,45
17010,note_off,30,0,3,,,,,,,,3,,,,74,64
17010,note_on,0,0,9,,,,,,,,10,,,,72,45
17010,note_on,0,0,3,,,,,,,,3,,,,75,45
17010,note_off,30,0,4,,,,,,,,4,,,,71,64
17010,note_off,30,0,9,,,,,,,,10,,,,71,64
17010,note_off,30,0,10,,,,,,,,11,,,,67,64
17040,note_on,0,0,10,,,,,,,,11,,,,67,45
17040,note_off,30,0,10,,,,,,,,11,,,,68,64
17040,note_on,0,0,9,,,,,,,,10,,,,71,45
17040,note_off,30,0,9,,,,,,,,10,,,,72,64
17040,note_on,0,0,3,,,,,,,,3,,,,74,45
17040,note_off,30,0,8,,,,,,,,8,,,,75,64
17040,note_on,0,0,8,,,,,,,,8,,,,74,45
17040,note_on,0,0,5,,,,,,,,5,,,,67,45
17040,note_off,30,0,3,,,,,,,,3,,,,75,64
17040,note_on,0,0,4,,,,,,,,4,,,,71,45
17040,note_off,30,0,5,,,,,,,,5,,,,68,64
17040,note_off,30,0,4,,,,,,,,4,,,,72,64
17120,note_off,80,0,10,,,,,,,,11,,,,67,64
17120,note_off,80,0,5,,,,,,,,5,,,,67,64
17120,note_off,80,0,8,,,,,,,,8,,,,74,64
17120,note_off,80,0,9,,,,,,,,10,,,,71,64
17120,note_off,80,0,3,,,,,,,,3,,,,74,64
17120,note_off,80,0,4,,,,,,,,4,,,,71,64
17155,note_off,235,0,13,,,,,,,,14,,,,41,64
17160,note_on,40,0,8,,,,,,,,8,,,,74,45
17160,note_on,5,0,13,,,,,,,,14,,,,41,30
17160,note_on,160,0,11,,,,,,,,12,,,,53,45
17160,note_on,40,0,3,,,,,,,,3,,,,74,45
17160,note_on,40,0,10,,,,,,,,11,,,,67,45
17160,note_on,40,0,9,,,,,,,,10,,,,71,45
17160,note_on,40,0,4,,,,,,,,4,,,,71,45
17160,note_on,160,0,12,,,,,,,,13,,,,41,45
17160,note_on,40,0,5,,,,,,,,5,,,,67,45
17160,note_on,160,0,6,,,,,,,,6,,,,53,45
17160,note_on,160,0,7,,,,,,,,7,,,,41,45
17190,note_on,0,0,5,,,,,,,,5,,,,68,45
17190,note_off,30,0,10,,,,,,,,11,,,,67,64
17190,note_on,0,0,10,,,,,,,,11,,,,68,45
17190,note_off,30,0,8,,,,,,,,8,,,,74,64
17190,note_on,0,0,8,,,,,,,,8,,,,75,45
17190,note_off,30,0,5,,,,,,,,5,,,,67,64
17190,note_on,0,0,4,,,,,,,,4,,,,72,45
17190,note_on,0,0,3,,,,,,,,3,,,,75,45
17190,note_off,30,0,3,,,,,,,,3,,,,74,64
17190,note_on,0,0,9,,,,,,,,10,,,,72,45
17190,note_off,30,0,9,,,,,,,,10,,,,71,64
17190,note_off,30,0,4,,,,,,,,4,,,,71,64
17220,note_off,30,0,3,,,,,,,,3,,,,75,64
17220,note_off,30,0,9,,,,,,,,10,,,,72,64
17220,note_on,0,0,3,,,,,,,,3,,,,74,45
17220,note_on,0,0,8,,,,,,,,8,,,,74,45
17220,note_off,30,0,5,,,,,,,,5,,,,68,64
17220,note_off,30,0,10,,,,,,,,11,,,,68,64
17220,note_on,0,0,10,,,,,,,,11,,,,67,45
17220,note_off,30,0,4,,,,,,,,4,,,,72,64
17220,note_on,0,0,4,,,,,,,,4,,,,71,45
17220,note_on,0,0,9,,,,,,,,10,,,,71,45
17220,note_on,0,0,5,,,,,,,,5,,,,67,45
17220,note_off,30,0,8,,,,,,,,8,,,,75,64
17240,note_off,80,0,11,,,,,,,,12,,,,53,64
17240,note_off,80,0,7,,,,,,,,7,,,,41,64
17240,note_off,80,0,12,,,,,,,,13,,,,41,64
17240,note_off,80,0,6,,,,,,,,6,,,,53,64
17250,note_on,0,0,10,,,,,,,,11,,,,68,45
17250,note_off,30,0,4,,,,,,,,4,,,,71,64
17250,note_on,0,0,5,,,,,,,,5,,,,68,45
17250,note_off,30,0,5,,,,,,,,5,,,,67,64
17250,note_off,30,0,10,,,,,,,,11,,,,67,64
17250,note_off,30,0,9,,,,,,,,10,,,,71,64
17250,note_off,30,0,3,,,,,,,,3,,,,74,64
17250,note_on,0,0,9,,,,,,,,10,,,,72,45
17250,note_on,0,0,3,,,,,,,,3,,,,75,45
17250,note_off,30,0,8,,,,,,,,8,,,,74,64
17250,note_on,0,0,8,,,,,,,,8,,,,75,45
17250,note_on,0,0,4,,,,,,,,4,,,,72,45
17280,note_on,0,0,3,,,,,,,,3,,,,74,45
17280,note_on,0,0,8,,,,,,,,8,,,,74,45
17280,note_off,30,0,8,,,,,,,,8,,,,75,64
17280,note_off,30,0,5,,,,,,,,5,,,,68,64
17280,note_off,30,0,10,,,,,,,,11,,,,68,64
17280,note_on,0,0,10,,,,,,,,11,,,,67,45
17280,note_on,0,0,4,,,,,,,,4,,,,71,45
17280,note_off,30,0,9,,,,,,,,10,,,,72,64
17280,note_off,30,0,4,,,,,,,,4,,,,72,64
17280,note_on,0,0,5,,,,,,,,5,,,,67,45
17280,note_off,30,0,3,,,,,,,,3,,,,75,64
17280,note_on,0,0,9,,,,,,,,10,,,,71,45
17360,note_off,80,0,8,,,,,,,,8,,,,74,64
17360,note_off,80,0,9,,,,,,,,10,,,,71,64
17360,note_off,80,0,10,,,,,,,,11,,,,67,64
17360,note_off,80,0,3,,,,,,,,3,,,,74,64
17360,note_off,80,0,4,,,,,,,,4,,,,71,64
17360,note_off,80,0,5,,,,,,,,5,,,,67,64
17395,note_off,235,0,13,,,,,,,,14,,,,41,64
17400,note_on,40,0,9,,,,,,,,10,,,,72,45
17400,note_on,40,0,3,,,,,,,,3,,,,75,45
17400,note_on,5,0,13,,,,,,,,14,,,,42,30
17400,note_on,40,0,8,,,,,,,,8,,,,75,45
17400,note_on,160,0,7,,,,,,,,7,,,,42,45
17400,note_on,40,0,10,,,,,,,,11,,,,69,45
17400,note_on,40,0,5,,,,,,,,5,,,,69,45
17400,note_on,40,0,4,,,,,,,,4,,,,72,45
17400,note_on,160,0,12,,,,,,,,13,,,,42,45
17400,note_on,160,0,11,,,,,,,,12,,,,54,45
17400,note_on,160,0,6,,,,,,,,6,,,,54,45
17430,note_off,30,0,9,,,,,,,,10,,,,72,64
17430,note_on,0,0,9,,,,,,,,10,,,,73,45
17430,note_off,30,0,5,,,,,,,,5,,,,69,64
17430,note_on,0,0,5,,,,,,,,5,,,,70,45
17430,note_on,0,0,8,,,,,,,,8,,,,77,45
17430,note_on,0,0,3,,,,,,,,3,,,,77,45
17430,note_off,30,0,8,,,,,,,,8,,,,75,64
17430,note_on,0,0,10,,,,,,,,11,,,,70,45
17430,note_off,30,0,10,,,,,,,,11,,,,69,64
17430,note_on,0,0,4,,,,,,,,4,,,,73,45
17430,note_off,30,0,4,,,,,,,,4,,,,72,64
17430,note_off,30,0,3,,,,,,,,3,,,,75,64
17460,note_off,30,0,3,,,,,,,,3,,,,77,64
17460,note_on,0,0,3,,,,,,,,3,,,,75,45
17460,note_on,0,0,8,,,,,,,,8,,,,75,45
17460,note_off,30,0,8,,,,,,,,8,,,,77,64
17460,note_on,0,0,4,,,,,,,,4,,,,72,45
17460,note_off,30,0,4,,,,,,,,4,,,,73,64
17460,note_on,0,0,5,,,,,,,,5,,,,69,45
17460,note_off,30,0,5,,,,,,,,5,,,,70,64
17460,note_on,0,0,10,,,,,,,,11,,,,69,45
17460,note_off,30,0,9,,,,,,,,10,,,,73,64
17460,note_on,0,0,9,,,,,,,,10,,,,72,45
17460,note_off,30,0,10,,,,,,,,11,,,,70,64
17480,note_off,80,0,7,,,,,,,,7,,,,42,64
17480,note_off,80,0,12,,,,,,,,13,,,,42,64
17480,note_off,80,0,11,,,,,,,,12,,,,54,64
17480,note_off,80,0,6,,,,,,,,6,,,,54,64
17490,note_off,30,0,5,,,,,,,,5,,,,69,64
17490,note_off,30,0,9,,,,,,,,10,,,,72,64
17490,note_off,30,0,4,,,,,,,,4,,,,72,64
17490,note_on,0,0,5,,,,,,,,5,,,,70,45
17490,note_off,30,0,3,,,,,,,,3,,,,75,64
17490,note_on,0,0,4,,,,,,,,4,,,,73,45
17490,note_on,0,0,8,,,,,,,,8,,,,77,45
17490,note_on,0,0,3,,,,,,,,3,,,,77,45
17490,note_off,30,0,8,,,,,,,,8,,,,75,64
17490,note_off,30,0,10,,,,,,,,11,,,,69,64
17490,note_on,0,0,10,,,,,,,,11,,,,70,45
17490,note_on,0,0,9,,,,,,,,10,,,,73,45
17520,note_off,30,0,5,,,,,,,,5,,,,70,64
17520,note_on,0,0,5,,,,,,,,5,,,,69,45
17520,note_off,30,0,10,,,,,,,,11,,,,70,64
17520,note_off,30,0,3,,,,,,,,3,,,,77,64
17520,note_on,0,0,10,,,,,,,,11,,,,69,45
17520,note_on,0,0,3,,,,,,,,3,,,,75,45
17520,note_off,30,0,9,,,,,,,,10,,,,73,64
17520,note_on,0,0,9,,,,,,,,10,,,,72,45
17520,note_off,30,0,4,,,,,,,,4,,,,73,64
17520,note_on,0,0,4,,,,,,,,4,,,,72,45
17520,note_off,30,0,8,,,,,,,,8,,,,77,64
17520,note_on,0,0,8,,,,,,,,8,,,,75,45
17600,note_off,80,0,5,,,,,,,,5,,,,69,64
17600,note_off,80,0,3,,,,,,,,3,,,,75,64
17600,note_off,80,0,9,,,,,,,,10,,,,72,64
17600,note_off,80,0,8,,,,,,,,8,,,,75,64
17600,note_off,80,0,10,,,,,,,,11,,,,69,64
17600,note_off,80,0,4,,,,,,,,4,,,,72,64
17635,note_off,235,0,13,,,,,,,,14,,,,42,64
17640,note_on,40,0,10,,,,,,,,11,,,,69,45
17640,note_on,5,0,13,,,,,,,,14,,,,42,30
17640,note_on,40,0,3,,,,,,,,3,,,,75,45
17640,note_on,160,0,12,,,,,,,,13,,,,42,45
17640,note_on,160,0,11,,,,,,,,12,,,,54,45
17640,note_on,40,0,4,,,,,,,,4,,,,72,45
17640,note_on,160,0,6,,,,,,,,6,,,,54,45
17640,note_on,40,0,8,,,,,,,,8,,,,75,45
17640,note_on,40,0,9,,,,,,,,10,,,,72,45
17640,note_on,40,0,5,,,,,,,,5,,,,69,45
17640,note_on,160,0,7,,,,,,,,7,,,,42,45
17670,note_off,30,0,8,,,,,,,,8,,,,75,64
17670,note_on,0,0,5,,,,,,,,5,,,,70,45
17670,note_off,30,0,5,,,,,,,,5,,,,69,64
17670,note_on,0,0,10,,,,,,,,11,,,,70,45
17670,note_off,30,0,10,,,,,,,,11,,,,69,64
17670,note_off,30,0,9,,,,,,,,10,,,,72,64
17670,note_on,0,0,9,,,,,,,,10,,,,73,45
17670,note_off,30,0,4,,,,,,,,4,,,,72,64
17670,note_on,0,0,4,,,,,,,,4,,,,73,45
17670,note_off,30,0,3,,,,,,,,3,,,,75,64
17670,note_on,0,0,3,,,,,,,,3,,,,77,45
17670,note_on,0,0,8,,,,,,,,8,,,,77,45
17700,note_on,0,0,9,,,,,,,,10,,,,72,45
17700,note_on,0,0,5,,,,,,,,5,,,,69,45
17700,note_off,30,0,5,,,,,,,,5,,,,70,64
17700,note_off,30,0,8,,,,,,,,8,,,,77,64
17700,note_on,0,0,10,,,,,,,,11,,,,69,45
17700,note_off,30,0,10,,,,,,,,11,,,,70,64
17700,note_on,0,0,8,,,,,,,,8,,,,75,45
17700,note_off,30,0,3,,,,,,,,3,,,,77,64
17700,note_on,0,0,3,,,,,,,,3,,,,75,45
17700,note_on,0,0,4,,,,,,,,4,,,,72,45
17700,note_off,30,0,4,,,,,,,,4,,,,73,64
17700,note_off,30,0,9,,,,,,,,10,,,,73,64
17720,note_off,80,0,7,,,,,,,,7,,,,42,64
17720,note_off,80,0,12,,,,,,,,13,,,,42,64
17720,note_off,80,0,6,,,,,,,,6,,,,54,64
17720,note_off,80,0,11,,,,,,,,12,,,,54,64
17730,note_off,30,0,9,,,,,,,,10,,,,72,64
17730,note_on,0,0,3,,,,,,,,3,,,,77,45
17730,note_off,30,0,3,,,,,,,,3,,,,75,64
17730,note_on,0,0,9,,,,,,,,10,,,,73,45
17730,note_on,0,0,8,,,,,,,,8,,,,77,45
17730,note_off,30,0,8,,,,,,,,8,,,,75,64
17730,note_off,30,0,4,,,,,,,,4,,,,72,64
17730,note_on,0,0,4,,,,,,,,4,,,,73,45
17730,note_off,30,0,10,,,,,,,,11,,,,69,64
17730,note_on,0,0,10,,,,,,,,11,,,,70,45
17730,note_off,30,0,5,,,,,,,,5,,,,69,64
17730,note_on,0,0,5,,,,,,,,5,,,,70,45
17760,note_on,0,0,4,,,,,,,,4,,,,72,45
17760,note_off,30,0,5,,,,,,,,5,,,,70,64
17760,note_on,0,0,9,,,,,,,,10,,,,72,45
17760,note_off,30,0,9,,,,,,,,10,,,,73,64
17760,note_off,30,0,4,,,,,,,,4,,,,73,64
17760,note_off,30,0,8,,,,,,,,8,,,,77,64
17760,note_on,0,0,5,,,,,,,,5,,,,69,45
17760,note_on,0,0,3,,,,,,,,3,,,,75,45
17760,note_off,30,0,3,,,,,,,,3,,,,77,64
17760,note_off,30,0,10,,,,,,,,11,,,,70,64
17760,note_on,0,0,10,,,,,,,,11,,,,69,45
17760,note_on,0,0,8,,,,,,,,8,,,,75,45
17840,note_off,80,0,8,,,,,,,,8,,,,75,64
17840,note_off,80,0,3,,,,,,,,3,,,,75,64
17840,note_off,80,0,9,,,,,,,,10,,,,72,64
17840,note_off,80,0,10,,,,,,,,11,,,,69,64
17840,note_off,80,0,5,,,,,,,,5,,,,69,64
17840,note_off,80,0,4,,,,,,,,4,,,,72,64
17875,note_off,235,0,13,,,,,,,,14,,,,42,64
17880,note_on,40,0,9,,,,,,,,10,,,,72,45
17880,note_on,160,0,6,,,,,,,,6,,,,54,45
17880,note_on,160,0,7,,,,,,,,7,,,,42,45
17880,note_on,40,0,3,,,,,,,,3,,,,75,45
17880,note_on,40,0,4,,,,,,,,4,,,,72,45
17880,note_on,160,0,12,,,,,,,,13,,,,42,45
17880,note_on,40,0,8,,,,,,,,8,,,,75,45
17880,note_on,160,0,11,,,,,,,,12,,,,54,45
17880,note_on,5,0,13,,,,,,,,14,,,,42,30
17880,note_on,40,0,10,,,,,,,,11,,,,69,45
17880,note_on,40,0,5,,,,,,,,5,,,,69,45
17910,note_off,30,0,10,,,,,,,,11,,,,69,64
17910,note_off,30,0,8,,,,,,,,8,,,,75,64
17910,note_on,0,0,10,,,,,,,,11,,,,70,45
17910,note_off,30,0,4,,,,,,,,4,,,,72,64
17910,note_on,0,0,5,,,,,,,,5,,,,70,45
17910,note_on,0,0,8,,,,,,,,8,,,,77,45
17910,note_off,30,0,3,,,,,,,,3,,,,75,64
17910,note_on,0,0,3,,,,,,,,3,,,,77,45
17910,note_off,30,0,9,,,,,,,,10,,,,72,64
17910,note_on,0,0,4,,,,,,,,4,,,,73,45
17910,note_off,30,0,5,,,,,,,,5,,,,69,64
17910,note_on,0,0,9,,,,,,,,10,,,,73,45
17940,note_on,0,0,9,,,,,,,,10,,,,72,45
17940,note_off,30,0,9,,,,,,,,10,,,,73,64
17940,note_on,0,0,8,,,,,,,,8,,,,75,45
17940,note_on,0,0,4,,,,,,,,4,,,,72,45
17940,note_off,30,0,4,,,,,,,,4,,,,73,64
17940,note_on,0,0,10,,,,,,,,11,,,,69,45
17940,note_off,30,0,10,,,,,,,,11,,,,70,64
17940,note_off,30,0,8,,,,,,,,8,,,,77,64
17940,note_on,0,0,3,,,,,,,,3,,,,75,45
17940,note_on,0,0,5,,,,,,,,5,,,,69,45
17940,note_off,30,0,3,,,,,,,,3,,,,77,64
17940,note_off,30,0,5,,,,,,,,5,,,,70,64
17960,note_off,80,0,12,,,,,,,,13,,,,42,64
17960,note_off,80,0,11,,,,,,,,12,,,,54,64
17960,note_off,80,0,7,,,,,,,,7,,,,42,64
17960,note_off,80,0,6,,,,,,,,6,,,,54,64
17970,note_off,30,0,3,,,,,,,,3,,,,75,64
17970,note_off,30,0,5,,,,,,,,5,,,,69,64
17970,note_on,0,0,8,,,,,,,,8,,,,77,45
17970,note_off,30,0,8,,,,,,,,8,,,,75,64
17970,note_off,30,0,4,,,,,,,,4,,,,72,64
17970,note_on,0,0,4,,,,,,,,4,,,,73,45
17970,note_on,0,0,3,,,,,,,,3,,,,77,45
17970,note_on,0,0,5,,,,,,,,5,,,,70,45
17970,note_on,0,0,9,,,,,,,,10,,,,73,45
17970,note_on,0,0,10,,,,,,,,11,,,,70,45
17970,note_off,30,0,10,,,,,,,,11,,,,69,64
17970,note_off,30,0,9,,,,,,,,10,,,,72,64
18000,note_off,30,0,9,,,,,,,,10,,,,73,64
18000,note_on,0,0,3,,,,,,,,3,,,,75,45
18000,note_off,30,0,3,,,,,,,,3,,,,77,64
18000,note_off,30,0,4,,,,,,,,4,,,,73,64
18000,note_on,0,0,10,,,,,,,,11,,,,69,45
18000,note_off,30,0,10,,,,,,,,11,,,,70,64
18000,note_off,30,0,5,,,,,,,,5,,,,70,64
18000,note_on,0,0,4,,,,,,,,4,,,,72,45
18000,note_on,0,0,8,,,,,,,,8,,,,75,45
18000,note_on,0,0,5,,,,,,,,5,,,,69,45
18000,note_off,30,0,8,,,,,,,,8,,,,77,64
18000,note_on,0,0,9,,,,,,,,10,,,,72,45
18080,note_off,80,0,5,,,,,,,,5,,,,69,64
18080,note_off,80,0,8,,,,,,,,8,,,,75,64
18080,note_off,80,0,10,,,,,,,,11,,,,69,64
18080,note_off,80,0,9,,,,,,,,10,,,,72,64
18080,note_off,80,0,4,,,,,,,,4,,,,72,64
18080,note_off,80,0,3,,,,,,,,3,,,,75,64
18115,note_off,235,0,13,,,,,,,,14,,,,42,64
18120,note_on,160,0,6,,,,,,,,6,,,,54,45
18120,note_on,40,0,9,,,,,,,,10,,,,72,45
18120,note_on,40,0,10,,,,,,,,11,,,,69,45
18120,note_on,160,0,11,,,,,,,,12,,,,54,45
18120,note_on,40,0,5,,,,,,,,5,,,,69,45
18120,note_on,160,0,7,,,,,,,,7,,,,42,45
18120,note_on,40,0,3,,,,,,,,3,,,,75,45
18120,note_on,40,0,8,,,,,,,,8,,,,75,45
18120,note_on,5,0,13,,,,,,,,14,,,,42,30
18120,note_on,160,0,12,,,,,,,,13,,,,42,45
18120,note_on,40,0,4,,,,,,,,4,,,,72,45
18150,note_off,30,0,8,,,,,,,,8,,,,75,64
18150,note_on,0,0,8,,,,,,,,8,,,,77,45
18150,note_on,0,0,3,,,,,,,,3,,,,77,45
18150,note_off,30,0,10,,,,,,,,11,,,,69,64
18150,note_on,0,0,10,,,,,,,,11,,,,70,45
18150,note_off,30,0,3,,,,,,,,3,,,,75,64
18150,note_on,0,0,4,,,,,,,,4,,,,73,45
18150,note_off,30,0,4,,,,,,,,4,,,,72,64
18150,note_on,0,0,5,,,,,,,,5,,,,70,45
18150,note_off,30,0,5,,,,,,,,5,,,,69,64
18150,note_on,0,0,9,,,,,,,,10,,,,73,45
18150,note_off,30,0,9,,,,,,,,10,,,,72,64
18180,note_on,0,0,9,,,,,,,,10,,,,72,45
18180,note_on,0,0,5,,,,,,,,5,,,,69,45
18180,note_on,0,0,4,,,,,,,,4,,,,72,45
18180,note_off,30,0,10,,,,,,,,11,,,,70,64
18180,note_on,0,0,10,,,,,,,,11,,,,69,45
18180,note_off,30,0,5,,,,,,,,5,,,,70,64
18180,note_off,30,0,4,,,,,,,,4,,,,73,64
18180,note_off,30,0,3,,,,,,,,3,,,,77,64
18180,note_on,0,0,8,,,,,,,,8,,,,75,45
18180,note_off,30,0,8,,,,,,,,8,,,,77,64
18180,note_off,30,0,9,,,,,,,,10,,,,73,64
18180,note_on,0,0,3,,,,,,,,3,,,,75,45
18200,note_off,80,0,11,,,,,,,,12,,,,54,64
18200,note_off,80,0,12,,,,,,,,13,,,,42,64
18200,note_off,80,0,7,,,,,,,,7,,,,42,64
18200,note_off,80,0,6,,,,,,,,6,,,,54,64
18210,note_on,0,0,3,,,,,,,,3,,,,77,45
18210,note_off,30,0,3,,,,,,,,3,,,,75,64
18210,note_off,30,0,10,,,,,,,,11,,,,69,64
18210,note_on,0,0,10,,,,,,,,11,,,,70,45
18210,note_off,30,0,8,,,,,,,,8,,,,75,64
18210,note_on,0,0,8,,,,,,,,8,,,,77,45
18210,note_on,0,0,9,,,,,,,,10,,,,73,45
18210,note_off,30,0,9,,,,,,,,10,,,,72,64
18210,note_off,30,0,4,,,,,,,,4,,,,72,64
18210,note_on,0,0,4,,,,,,,,4,,,,73,45
18210,note_off,30,0,5,,,,,,,,5,,,,69,64
18210,note_on,0,0,5,,,,,,,,5,,,,70,45
18240,note_off,30,0,4,,,,,,,,4,,,,73,64
18240,note_on,0,0,4,,,,,,,,4,,,,72,45
18240,note_off,30,0,5,,,,,,,,5,,,,70,64
18240,note_off,30,0,9,,,,,,,,10,,,,73,64
18240,note_on,0,0,5,,,,,,,,5,,,,69,45
18240,note_on,0,0,10,,,,,,,,11,,,,69,45
18240,note_off,30,0,10,,,,,,,,11,,,,70,64
18240,note_on,0,0,9,,,,,,,,10,,,,72,45
18240,note_off,30,0,8,,,,,,,,8,,,,77,64
18240,note_on,0,0,3,,,,,,,,3,,,,75,45
18240,note_off,30,0,3,,,,,,,,3,,,,77,64
18240,note_on,0,0,8,,,,,,,,8,,,,75,45
18320,note_off,80,0,4,,,,,,,,4,,,,72,64
18320,note_off,80,0,3,,,,,,,,3,,,,75,64
18320,note_off,80,0,9,,,,,,,,10,,,,72,64
18320,note_off,80,0,5,,,,,,,,5,,,,69,64
18320,note_off,80,0,8,,,,,,,,8,,,,75,64
18320,note_off,80,0,10,,,,,,,,11,,,,69,64
18355,note_off,235,0,13,,,,,,,,14,,,,42,64
18360,note_on,40,0,8,,,,,,,,8,,,,75,45
18360,note_on,40,0,10,,,,,,,,11,,,,69,45
18360,note_on,5,0,13,,,,,,,,14,,,,42,30
18360,note_on,160,0,6,,,,,,,,6,,,,54,45
18360,note_on,160,0,11,,,,,,,,12,,,,54,45
18360,note_on,40,0,5,,,,,,,,5,,,,69,45
18360,note_on,40,0,9,,,,,,,,10,,,,72,45
18360,note_on,160,0,7,,,,,,,,7,,,,42,45
18360,note_on,160,0,12,,,,,,,,13,,,,42,45
18360,note_on,40,0,4,,,,,,,,4,,,,72,45
18360,note_on,40,0,3,,,,,,,,3,,,,75,45
18390,note_off,30,0,10,,,,,,,,11,,,,69,64
18390,note_on,0,0,3,,,,,,,,3,,,,77,45
18390,note_on,0,0,10,,,,,,,,11,,,,70,45
18390,note_on,0,0,9,,,,,,,,10,,,,73,45
18390,note_off,30,0,9,,,,,,,,10,,,,72,64
18390,note_off,30,0,3,,,,,,,,3,,,,75,64
18390,note_on,0,0,5,,,,,,,,5,,,,70,45
18390,note_off,30,0,5,,,,,,,,5,,,,69,64
18390,note_on,0,0,4,,,,,,,,4,,,,73,45
18390,note_off,30,0,4,,,,,,,,4,,,,72,64
18390,note_off,30,0,8,,,,,,,,8,,,,75,64
18390,note_on,0,0,8,,,,,,,,8,,,,77,45
18420,note_on,0,0,10,,,,,,,,11,,,,69,45
18420,note_on,0,0,3,,,,,,,,3,,,,75,45
18420,note_off,30,0,3,,,,,,,,3,,,,77,64
18420,note_off,30,0,9,,,,,,,,10,,,,73,64
18420,note_off,30,0,10,,,,,,,,11,,,,70,64
18420,note_on,0,0,8,,,,,,,,8,,,,75,45
18420,note_off,30,0,5,,,,,,,,5,,,,70,64
18420,note_on,0,0,5,,,,,,,,5,,,,69,45
18420,note_off,30,0,4,,,,,,,,4,,,,73,64
18420,note_on,0,0,4,,,,,,,,4,,,,72,45
18420,note_off,30,0,8,,,,,,,,8,,,,77,64
18420,note_on,0,0,9,,,,,,,,10,,,,72,45
18440,note_off,80,0,6,,,,,,,,6,,,,54,64
18440,note_off,80,0,11,,,,,,,,12,,,,54,64
18440,note_off,80,0,7,,,,,,,,7,,,,42,64
18440,note_off,80,0,12,,,,,,,,13,,,,42,64
18450,note_off,30,0,4,,,,,,,,4,,,,72,64
18450,note_off,30,0,3,,,,,,,,3,,,,75,64
18450,note_on,0,0,3,,,,,,,,3,,,,77,45
18450,note_on,0,0,9,,,,,,,,10,,,,73,45
18450,note_on,0,0,4,,,,,,,,4,,,,73,45
18450,note_on,0,0,5,,,,,,,,5,,,,70,45
18450,note_off,30,0,10,,,,,,,,11,,,,69,64
18450,note_on,0,0,10,,,,,,,,11,,,,70,45
18450,note_off,30,0,8,,,,,,,,8,,,,75,64
18450,note_on,0,0,8,,,,,,,,8,,,,77,45
18450,note_off,30,0,9,,,,,,,,10,,,,72,64
18450,note_off,30,0,5,,,,,,,,5,,,,69,64
18480,note_on,0,0,4,,,,,,,,4,,,,72,45
18480,note_off,30,0,4,,,,,,,,4,,,,73,64
18480,note_off,30,0,8,,,,,,,,8,,,,77,64
18480,note_on,0,0,8,,,,,,,,8,,,,75,45
18480,note_off,30,0,5,,,,,,,,5,,,,70,64
18480,note_off,30,0,3,,,,,,,,3,,,,77,64
18480,note_on,0,0,3,,,,,,,,3,,,,75,45
18480,note_off,30,0,9,,,,,,,,10,,,,73,64
18480,note_on,0,0,9,,,,,,,,10,,,,72,45
18480,note_on,0,0,10,,,,,,,,11,,,,69,45
18480,note_on,0,0,5,,,,,,,,5,,,,69,45
18480,note_off,30,0,10,,,,,,,,11,,,,70,64
18560,note_off,80,0,5,,,,,,,,5,,,,69,64
18560,note_off,80,0,8,,,,,,,,8,,,,75,64
18560,note_off,80,0,3,,,,,,,,3,,,,75,64
18560,note_off,80,0,4,,,,,,,,4,,,,72,64
18560,note_off,80,0,9,,,,,,,,10,,,,72,64
18560,note_off,80,0,10,,,,,,,,11,,,,69,64
18595,note_off,235,0,13,,,,,,,,14,,,,42,64
18600,note_on,5,0,13,,,,,,,,14,,,,42,30
18600,note_on,160,0,12,,,,,,,,13,,,,42,45
18600,note_on,40,0,4,,,,,,,,4,,,,72,45
18600,note_on,160,0,6,,,,,,,,6,,,,54,45
18600,note_on,40,0,3,,,,,,,,3,,,,75,45
18600,note_on,160,0,11,,,,,,,,12,,,,54,45
18600,note_on,40,0,10,,,,,,,,11,,,,69,45
18600,note_on,160,0,7,,,,,,,,7,,,,42,45
18600,note_on,40,0,8,,,,,,,,8,,,,75,45
18600,note_on,40,0,9,,,,,,,,10,,,,72,45
18600,note_on,40,0,5,,,,,,,,5,,,,69,45
18630,note_off,30,0,3,,,,,,,,3,,,,75,64
18630,note_off,30,0,4,,,,,,,,4,,,,72,64
18630,note_on,0,0,4,,,,,,,,4,,,,73,45
18630,note_on,0,0,8,,,,,,,,8,,,,77,45
18630,note_off,30,0,8,,,,,,,,8,,,,75,64
18630,note_on,0,0,3,,,,,,,,3,,,,77,45
18630,note_off,30,0,9,,,,,,,,10,,,,72,64
18630,note_on,0,0,9,,,,,,,,10,,,,73,45
18630,note_on,0,0,10,,,,,,,,11,,,,70,45
18630,note_off,30,0,5,,,,,,,,5,,,,69,64
18630,note_on,0,0,5,,,,,,,,5,,,,70,45
18630,note_off,30,0,10,,,,,,,,11,,,,69,64
18660,note_off,30,0,10,,,,,,,,11,,,,70,64
18660,note_off,30,0,8,,,,,,,,8,,,,77,64
18660,note_on,0,0,8,,,,,,,,8,,,,75,45
18660,note_on,0,0,4,,,,,,,,4,,,,72,45
18660,note_off,30,0,4,,,,,,,,4,,,,73,64
18660,note_on,0,0,10,,,,,,,,11,,,,69,45
18660,note_off,30,0,9,,,,,,,,10,,,,73,64
18660,note_on,0,0,9,,,,,,,,10,,,,72,45
18660,note_off,30,0,3,,,,,,,,3,,,,77,64
18660,note_on,0,0,5,,,,,,,,5,,,,69,45
18660,note_off,30,0,5,,,,,,,,5,,,,70,64
18660,note_on,0,0,3,,,,,,,,3,,,,75,45
18680,note_off,80,0,6,,,,,,,,6,,,,54,64
18680,note_off,80,0,7,,,,,,,,7,,,,42,64
18680,note_off,80,0,12,,,,,,,,13,,,,42,64
18680,note_off,80,0,11,,,,,,,,12,,,,54,64
18690,note_off,30,0,9,,,,,,,,10,,,,72,64
18690,note_on,0,0,9,,,,,,,,10,,,,73,45
18690,note_on,0,0,10,,,,,,,,11,,,,70,45
18690,note_on,0,0,8,,,,,,,,8,,,,77,45
18690,note_off,30,0,10,,,,,,,,11,,,,69,64
18690,note_off,30,0,8,,,,,,,,8,,,,75,64
18690,note_on,0,0,4,,,,,,,,4,,,,73,45
18690,note_off,30,0,5,,,,,,,,5,,,,69,64
18690,note_off,30,0,4,,,,,,,,4,,,,72,64
18690,note_on,0,0,5,,,,,,,,5,,,,70,45
18690,note_off,30,0,3,,,,,,,,3,,,,75,64
18690,note_on,0,0,3,,,,,,,,3,,,,77,45
18720,note_on,0,0,10,,,,,,,,11,,,,69,45
18720,note_on,0,0,4,,,,,,,,4,,,,72,45
18720,note_off,30,0,4,,,,,,,,4,,,,73,64
18720,note_on,0,0,5,,,,,,,,5,,,,69,45
18720,note_off,30,0,5,,,,,,,,5,,,,70,64
18720,note_off,30,0,9,,,,,,,,10,,,,73,64
18720,note_off,30,0,10,,,,,,,,11,,,,70,64
18720,note_on,0,0,9,,,,,,,,10,,,,72,45
18720,note_on,0,0,3,,,,,,,,3,,,,75,45
18720,note_on,0,0,8,,,,,,,,8,,,,75,45
18720,note_off,30,0,8,,,,,,,,8,,,,77,64
18720,note_off,30,0,3,,,,,,,,3,,,,77,64
18800,note_off,80,0,4,,,,,,,,4,,,,72,64
18800,note_off,80,0,10,,,,,,,,11,,,,69,64
18800,note_off,80,0,5,,,,,,,,5,,,,69,64
18800,note_off,80,0,3,,,,,,,,3,,,,75,64
18800,note_off,80,0,8,,,,,,,,8,,,,75,64
18800,note_off,80,0,9,,,,,,,,10,,,,72,64
18835,note_off,235,0,13,,,,,,,,14,,,,42,64
18840,note_on,40,0,9,,,,,,,,10,,,,72,45
18840,note_on,160,0,6,,,,,,,,6,,,,54,45
18840,note_on,40,0,4,,,,,,,,4,,,,72,45
18840,note_on,40,0,5,,,,,,,,5,,,,69,45
18840,note_on,40,0,8,,,,,,,,8,,,,75,45
18840,note_on,5,0,13,,,,,,,,14,,,,42,30
18840,note_on,160,0,7,,,,,,,,7,,,,42,45
18840,note_on,160,0,11,,,,,,,,12,,,,54,45
18840,note_on,160,0,12,,,,,,,,13,,,,42,45
18840,note_on,40,0,3,,,,,,,,3,,,,75,45
18840,note_on,40,0,10,,,,,,,,11,,,,69,45
18870,note_off,30,0,10,,,,,,,,11,,,,69,64
18870,note_on,0,0,10,,,,,,,,11,,,,70,45
18870,note_off,30,0,5,,,,,,,,5,,,,69,64
18870,note_on,0,0,5,,,,,,,,5,,,,70,45
18870,note_off,30,0,8,,,,,,,,8,,,,75,64
18870,note_off,30,0,9,,,,,,,,10,,,,72,64
18870,note_on,0,0,3,,,,,,,,3,,,,77,45
18870,note_off,30,0,3,,,,,,,,3,,,,75,64
18870,note_off,30,0,4,,,,,,,,4,,,,72,64
18870,note_on,0,0,8,,,,,,,,8,,,,77,45
18870,note_on,0,0,9,,,,,,,,10,,,,73,45
18870,note_on,0,0,4,,,,,,,,4,,,,73,45
18900,note_on,0,0,3,,,,,,,,3,,,,75,45
18900,note_off,30,0,3,,,,,,,,3,,,,77,64
18900,note_off,30,0,10,,,,,,,,11,,,,70,64
18900,note_on,0,0,10,,,,,,,,11,,,,69,45
18900,note_off,30,0,8,,,,,,,,8,,,,77,64
18900,note_on,0,0,8,,,,,,,,8,,,,75,45
18900,note_off,30,0,4,,,,,,,,4,,,,73,64
18900,note_off,30,0,5,,,,,,,,5,,,,70,64
18900,note_on,0,0,5,,,,,,,,5,,,,69,45
18900,note_on,0,0,4,,,,,,,,4,,,,72,45
18900,note_off,30,0,9,,,,,,,,10,,,,73,64
18900,note_on,0,0,9,,,,,,,,10,,,,72,45
18920,note_off,80,0,11,,,,,,,,12,,,,54,64
18920,note_off,80,0,12,,,,,,,,13,,,,42,64
18920,note_off,80,0,6,,,,,,,,6,,,,54,64
18920,note_off,80,0,7,,,,,,,,7,,,,42,64
18930,note_off,30,0,5,,,,,,,,5,,,,69,64
18930,note_on,0,0,5,,,,,,,,5,,,,70,45
18930,note_on,0,0,3,,,,,,,,3,,,,77,45
18930,note_off,30,0,10,,,,,,,,11,,,,69,64
18930,note_on,0,0,10,,,,,,,,11,,,,70,45
18930,note_off,30,0,3,,,,,,,,3,,,,75,64
18930,note_off,30,0,8,,,,,,,,8,,,,75,64
18930,note_on,0,0,8,,,,,,,,8,,,,77,45
18930,note_on,0,0,4,,,,,,,,4,,,,73,45
18930,note_off,30,0,4,,,,,,,,4,,,,72,64
18930,note_off,30,0,9,,,,,,,,10,,,,72,64
18930,note_on,0,0,9,,,,,,,,10,,,,73,45
18960,note_on,0,0,9,,,,,,,,10,,,,72,45
18960,note_off,30,0,8,,,,,,,,8,,,,77,64
18960,note_on,0,0,8,,,,,,,,8,,,,75,45
18960,note_on,0,0,5,,,,,,,,5,,,,69,45
18960,note_off,30,0,5,,,,,,,,5,,,,70,64
18960,note_off,30,0,3,,,,,,,,3,,,,77,64
18960,note_off,30,0,4,,,,,,,,4,,,,73,64
18960,note_on,0,0,4,,,,,,,,4,,,,72,45
18960,note_on,0,0,10,,,,,,,,11,,,,69,45
18960,note_off,30,0,10,,,,,,,,11,,,,70,64
18960,note_off,30,0,9,,,,,,,,10,,,,73,64
18960,note_on,0,0,3,,,,,,,,3,,,,75,45
19040,note_off,80,0,5,,,,,,,,5,,,,69,64
19040,note_off,80,0,8,,,,,,,,8,,,,75,64
19040,note_off,80,0,4,,,,,,,,4,,,,72,64
19040,note_off,80,0,10,,,,,,,,11,,,,69,64
19040,note_off,80,0,3,,,,,,,,3,,,,75,64
19040,note_off,80,0,9,,,,,,,,10,,,,72,64
19075,note_off,235,0,13,,,,,,,,14,,,,42,64
19080,note_on,40,0,3,,,,,,,,3,,,,75,45
19080,note_on,40,0,8,,,,,,,,8,,,,75,45
19080,note_on,5,0,13,,,,,,,,14,,,,42,30
19080,note_on,40,0,4,,,,,,,,4,,,,72,45
19080,note_on,40,0,5,,,,,,,,5,,,,69,45
19080,note_on,160,0,11,,,,,,,,12,,,,54,45
19080,note_on,160,0,7,,,,,,,,7,,,,42,45
19080,note_on,40,0,9,,,,,,,,10,,,,72,45
19080,note_on,160,0,6,,,,,,,,6,,,,54,45
19080,note_on,160,0,12,,,,,,,,13,,,,42,45
19080,note_on,40,0,10,,,,,,,,11,,,,69,45
19110,note_on,0,0,10,,,,,,,,11,,,,70,45
19110,note_on,0,0,4,,,,,,,,4,,,,73,45
19110,note_off,30,0,8,,,,,,,,8,,,,75,64
19110,note_on,0,0,8,,,,,,,,8,,,,77,45
19110,note_on,0,0,9,,,,,,,,10,,,,73,45
19110,note_off,30,0,9,,,,,,,,10,,,,72,64
19110,note_off,30,0,4,,,,,,,,4,,,,72,64
19110,note_off,30,0,3,,,,,,,,3,,,,75,64
19110,note_on,0,0,5,,,,,,,,5,,,,70,45
19110,note_off,30,0,10,,,,,,,,11,,,,69,64
19110,note_off,30,0,5,,,,,,,,5,,,,69,64
19110,note_on,0,0,3,,,,,,,,3,,,,77,45
19140,note_off,30,0,9,,,,,,,,10,,,,73,64
19140,note_on,0,0,8,,,,,,,,8,,,,75,45
19140,note_off,30,0,8,,,,,,,,8,,,,77,64
19140,note_off,30,0,5,,,,,,,,5,,,,70,64
19140,note_on,0,0,9,,,,,,,,10,,,,72,45
19140,note_on,0,0,5,,,,,,,,5,,,,69,45
19140,note_off,30,0,4,,,,,,,,4,,,,73,64
19140,note_on,0,0,3,,,,,,,,3,,,,75,45
19140,note_on,0,0,4,,,,,,,,4,,,,72,45
19140,note_off,30,0,10,,,,,,,,11,,,,70,64
19140,note_on,0,0,10,,,,,,,,11,,,,69,45
19140,note_off,30,0,3,,,,,,,,3,,,,77,64
19160,note_off,80,0,12,,,,,,,,13,,,,42,64
19160,note_off,80,0,7,,,,,,,,7,,,,42,64
19160,note_off,80,0,6,,,,,,,,6,,,,54,64
19160,note_off,80,0,11,,,,,,,,12,,,,54,64
19170,note_off,30,0,9,,,,,,,,10,,,,72,64
19170,note_on,0,0,5,,,,,,,,5,,,,70,45
19170,note_off,30,0,5,,,,,,,,5,,,,69,64
19170,note_off,30,0,4,,,,,,,,4,,,,72,64
19170,note_off,30,0,10,,,,,,,,11,,,,69,64
19170,note_on,0,0,10,,,,,,,,11,,,,70,45
19170,note_on,0,0,4,,,,,,,,4,,,,73,45
19170,note_on,0,0,9,,,,,,,,10,,,,73,45
19170,note_off,30,0,3,,,,,,,,3,,,,75,64
19170,note_on,0,0,8,,,,,,,,8,,,,77,45
19170,note_off,30,0,8,,,,,,,,8,,,,75,64
19170,note_on,0,0,3,,,,,,,,3,,,,77,45
19200,note_off,30,0,10,,,,,,,,11,,,,70,64
19200,note_on,0,0,9,,,,,,,,10,,,,72,45
19200,note_on,0,0,5,,,,,,,,5,,,,69,45
19200,note_off,30,0,5,,,,,,,,5,,,,70,64
19200,note_off,30,0,3,,,,,,,,3,,,,77,64
19200,note_on,0,0,3,,,,,,,,3,,,,75,45
19200,note_off,30,0,9,,,,,,,,10,,,,73,64
19200,note_off,30,0,8,,,,,,,,8,,,,77,64
19200,note_on,0,0,8,,,,,,,,8,,,,75,45
19200,note_on,0,0,4,,,,,,,,4,,,,72,45
19200,note_on,0,0,10,,,,,,,,11,,,,69,45
19200,note_off,30,0,4,,,,,,,,4,,,,73,64
19280,note_off,80,0,4,,,,,,,,4,,,,72,64
19280,note_off,80,0,5,,,,,,,,5,,,,69,64
19280,note_off,80,0,9,,,,,,,,10,,,,72,64
19280,note_off,80,0,3,,,,,,,,3,,,,75,64
19280,note_off,80,0,8,,,,,,,,8,,,,75,64
19280,note_off,80,0,10,,,,,,,,11,,,,69,64
19315,note_off,235,0,13,,,,,,,,14,,,,42,64
19320,note_on,5,0,13,,,,,,,,14,,,,43,30
19320,note_on,40,0,5,,,,,,,,5,,,,67,45
19320,note_on,40,0,4,,,,,,,,4,,,,72,45
19320,note_on,160,0,12,,,,,,,,13,,,,43,45
19320,note_on,40,0,3,,,,,,,,3,,,,74,45
19320,note_on,40,0,8,,,,,,,,8,,,,74,45
19320,note_on,40,0,10,,,,,,,,11,,,,67,45
19320,note_on,160,0,11,,,,,,,,12,,,,55,45
19320,note_on,160,0,7,,,,,,,,7,,,,43,45
19320,note_on,40,0,9,,,,,,,,10,,,,72,45
19320,note_on,160,0,6,,,,,,,,6,,,,55,45
19350,note_off,30,0,5,,,,,,,,5,,,,67,64
19350,note_off,30,0,4,,,,,,,,4,,,,72,64
19350,note_on,0,0,4,,,,,,,,4,,,,73,45
19350,note_on,0,0,5,,,,,,,,5,,,,68,45
19350,note_on,0,0,3,,,,,,,,3,,,,75,45
19350,note_off,30,0,3,,,,,,,,3,,,,74,64
19350,note_off,30,0,8,,,,,,,,8,,,,74,64
19350,note_off,30,0,10,,,,,,,,11,,,,67,64
19350,note_on,0,0,8,,,,,,,,8,,,,75,45
19350,note_on,0,0,10,,,,,,,,11,,,,68,45
19350,note_off,30,0,9,,,,,,,,10,,,,72,64
19350,note_on,0,0,9,,,,,,,,10,,,,73,45
19380,note_on,0,0,5,,,,,,,,5,,,,67,45
19380,note_off,30,0,9,,,,,,,,10,,,,73,64
19380,note_off,30,0,5,,,,,,,,5,,,,68,64
19380,note_off,30,0,4,,,,,,,,4,,,,73,64
19380,note_on,0,0,4,,,,,,,,4,,,,72,45
19380,note_on,0,0,3,,,,,,,,3,,,,74,45
19380,note_off,30,0,3,,,,,,,,3,,,,75,64
19380,note_on,0,0,9,,,,,,,,10,,,,72,45
19380,note_on,0,0,10,,,,,,,,11,,,,67,45
19380,note_off,30,0,8,,,,,,,,8,,,,75,64
19380,note_off,30,0,10,,,,,,,,11,,,,68,64
19380,note_on,0,0,8,,,,,,,,8,,,,74,45
19400,note_off,80,0,11,,,,,,,,12,,,,55,64
19400,note_off,80,0,6,,,,,,,,6,,,,55,64
19400,note_off,80,0,7,,,,,,,,7,,,,43,64
19400,note_off,80,0,12,,,,,,,,13,,,,43,64
19410,note_on,0,0,10,,,,,,,,11,,,,68,45
19410,note_off,30,0,4,,,,,,,,4,,,,72,64
19410,note_on,0,0,4,,,,,,,,4,,,,73,45
19410,note_on,0,0,3,,,,,,,,3,,,,75,45
19410,note_off,30,0,3,,,,,,,,3,,,,74,64
19410,note_off,30,0,5,,,,,,,,5,,,,67,64
19410,note_off,30,0,10,,,,,,,,11,,,,67,64
19410,note_on,0,0,8,,,,,,,,8,,,,75,45
19410,note_off,30,0,9,,,,,,,,10,,,,72,64
19410,note_off,30,0,8,,,,,,,,8,,,,74,64
19410,note_on,0,0,5,,,,,,,,5,,,,68,45
19410,note_on,0,0,9,,,,,,,,10,,,,73,45
19440,note_off,30,0,5,,,,,,,,5,,,,68,64
19440,note_on,0,0,5,,,,,,,,5,,,,67,45
19440,note_on,0,0,8,,,,,,,,8,,,,74,45
19440,note_off,30,0,9,,,,,,,,10,,,,73,64
19440,note_off,30,0,4,,,,,,,,4,,,,73,64
19440,note_on,0,0,9,,,,,,,,10,,,,72,45
19440,note_on,0,0,10,,,,,,,,11,,,,67,45
19440,note_on,0,0,3,,,,,,,,3,,,,74,45
19440,note_off,30,0,3,,,,,,,,3,,,,75,64
19440,note_off,30,0,8,,,,,,,,8,,,,75,64
19440,note_on,0,0,4,,,,,,,,4,,,,72,45
19440,note_off,30,0,10,,,,,,,,11,,,,68,64
19520,note_off,80,0,10,,,,,,,,11,,,,67,64
19520,note_off,80,0,9,,,,,,,,10,,,,72,64
19520,note_off,80,0,8,,,,,,,,8,,,,74,64
19520,note_off,80,0,5,,,,,,,,5,,,,67,64
19520,note_off,80,0,4,,,,,,,,4,,,,72,64
19520,note_off,80,0,3,,,,,,,,3,,,,74,64
19555,note_off,235,0,13,,,,,,,,14,,,,43,64
19560,note_on,40,0,8,,,,,,,,8,,,,74,45
19560,note_on,40,0,10,,,,,,,,11,,,,67,45
19560,note_on,40,0,3,,,,,,,,3,,,,74,45
19560,note_on,160,0,11,,,,,,,,12,,,,55,45
19560,note_on,40,0,5,,,,,,,,5,,,,67,45
19560,note_on,40,0,9,,,,,,,,10,,,,72,45
19560,note_on,160,0,12,,,,,,,,13,,,,43,45
19560,note_on,160,0,6,,,,,,,,6,,,,55,45
19560,note_on,40,0,4,,,,,,,,4,,,,72,45
19560,note_on,160,0,7,,,,,,,,7,,,,43,45
19560,note_on,5,0,13,,,,,,,,14,,,,43,30
19590,note_on,0,0,9,,,,,,,,10,,,,73,45
19590,note_off,30,0,3,,,,,,,,3,,,,74,64
19590,note_on,0,0,3,,,,,,,,3,,,,75,45
19590,note_on,0,0,5,,,,,,,,5,,,,68,45
19590,note_off,30,0,9,,,,,,,,10,,,,72,64
19590,note_on,0,0,8,,,,,,,,8,,,,75,45
19590,note_off,30,0,8,,,,,,,,8,,,,74,64
19590,note_off,30,0,10,,,,,,,,11,,,,67,64
19590,note_off,30,0,5,,,,,,,,5,,,,67,64
19590,note_off,30,0,4,,,,,,,,4,,,,72,64
19590,note_on,0,0,10,,,,,,,,11,,,,68,45
19590,note_on,0,0,4,,,,,,,,4,,,,73,45
19620,note_off,30,0,10,,,,,,,,11,,,,68,64
19620,note_on,0,0,5,,,,,,,,5,,,,67,45
19620,note_on,0,0,4,,,,,,,,4,,,,72,45
19620,note_off,30,0,5,,,,,,,,5,,,,68,64
19620,note_off,30,0,4,,,,,,,,4,,,,73,64
19620,note_off,30,0,9,,,,,,,,10,,,,73,64
19620,note_on,0,0,9,,,,,,,,10,,,,72,45
19620,note_off,30,0,3,,,,,,,,3,,,,75,64
19620,note_on,0,0,3,,,,,,,,3,,,,74,45
19620,note_off,30,0,8,,,,,,,,8,,,,75,64
19620,note_on,0,0,8,,,,,,,,8,,,,74,45
19620,note_on,0,0,10,,,,,,,,11,,,,67,45
19640,note_off,80,0,6,,,,,,,,6,,,,55,64
19640,note_off,80,0,7,,,,,,,,7,,,,43,64
19640,note_off,80,0,11,,,,,,,,12,,,,55,64
19640,note_off,80,0,12,,,,,,,,13,,,,43,64
19650,note_off,30,0,9,,,,,,,,10,,,,72,64
19650,note_off,30,0,8,,,,,,,,8,,,,74,64
19650,note_on,0,0,9,,,,,,,,10,,,,73,45
19650,note_on,0,0,8,,,,,,,,8,,,,75,45
19650,note_on,0,0,10,,,,,,,,11,,,,68,45
19650,note_off,30,0,5,,,,,,,,5,,,,67,64
19650,note_off,30,0,10,,,,,,,,11,,,,67,64
19650,note_on,0,0,4,,,,,,,,4,,,,73,45
19650,note_off,30,0,4,,,,,,,,4,,,,72,64
19650,note_on,0,0,3,,,,,,,,3,,,,75,45
19650,note_off,30,0,3,,,,,,,,3,,,,74,64
19650,note_on,0,0,5,,,,,,,,5,,,,68,45
19680,note_on,0,0,8,,,,,,,,8,,,,74,45
19680,note_off,30,0,8,,,,,,,,8,,,,75,64
19680,note_on,0,0,3,,,,,,,,3,,,,74,45
19680,note_off,30,0,3,,,,,,,,3,,,,75,64
19680,note_on,0,0,10,,,,,,,,11,,,,67,45
19680,note_off,30,0,9,,,,,,,,10,,,,73,64
19680,note_off,30,0,5,,,,,,,,5,,,,68,64
19680,note_off,30,0,4,,,,,,,,4,,,,73,64
19680,note_on,0,0,4,,,,,,,,4,,,,72,45
19680,note_off,30,0,10,,,,,,,,11,,,,68,64
19680,note_on,0,0,5,,,,,,,,5,,,,67,45
19680,note_on,0,0,9,,,,,,,,10,,,,72,45
19760,note_off,80,0,9,,,,,,,,10,,,,72,64
19760,note_off,80,0,10,,,,,,,,11,,,,67,64
19760,note_off,80,0,4,,,,,,,,4,,,,72,64
19760,note_off,80,0,3,,,,,,,,3,,,,74,64
19760,note_off,80,0,8,,,,,,,,8,,,,74,64
19760,note_off,80,0,5,,,,,,,,5,,,,67,64
19795,note_off,235,0,13,,,,,,,,14,,,,43,64
19800,note_on,160,0,6,,,,,,,,6,,,,55,45
19800,note_on,160,0,7,,,,,,,,7,,,,43,45
19800,note_on,40,0,4,,,,,,,,4,,,,72,45
19800,note_on,40,0,9,,,,,,,,10,,,,72,45
19800,note_on,40,0,10,,,,,,,,11,,,,67,45
19800,note_on,40,0,3,,,,,,,,3,,,,74,45
19800,note_on,40,0,8,,,,,,,,8,,,,74,45
19800,note_on,160,0,11,,,,,,,,12,,,,55,45
19800,note_on,40,0,5,,,,,,,,5,,,,67,45
19800,note_on,160,0,12,,,,,,,,13,,,,43,45
19800,note_on,5,0,13,,,,,,,,14,,,,43,30
19830,note_off,30,0,10,,,,,,,,11,,,,67,64
19830,note_on,0,0,5,,,,,,,,5,,,,68,45
19830,note_off,30,0,8,,,,,,,,8,,,,74,64
19830,note_off,30,0,5,,,,,,,,5,,,,67,64
19830,note_on,0,0,8,,,,,,,,8,,,,75,45
19830,note_on,0,0,3,,,,,,,,3,,,,75,45
19830,note_off,30,0,4,,,,,,,,4,,,,72,64
19830,note_on,0,0,9,,,,,,,,10,,,,73,45
19830,note_off,30,0,9,,,,,,,,10,,,,72,64
19830,note_on,0,0,4,,,,,,,,4,,,,73,45
19830,note_on,0,0,10,,,,,,,,11,,,,68,45
19830,note_off,30,0,3,,,,,,,,3,,,,74,64
19860,note_off,30,0,4,,,,,,,,4,,,,73,64
19860,note_on,0,0,4,,,,,,,,4,,,,72,45
19860,note_on,0,0,10,,,,,,,,11,,,,67,45
19860,note_off,30,0,5,,,,,,,,5,,,,68,64
19860,note_off,30,0,10,,,,,,,,11,,,,68,64
19860,note_on,0,0,9,,,,,,,,10,,,,72,45
19860,note_off,30,0,9,,,,,,,,10,,,,73,64
19860,note_off,30,0,3,,,,,,,,3,,,,75,64
19860,note_on,0,0,8,,,,,,,,8,,,,74,45
19860,note_off,30,0,8,,,,,,,,8,,,,75,64
19860,note_on,0,0,5,,,,,,,,5,,,,67,45
19860,note_on,0,0,3,,,,,,,,3,,,,74,45
19880,note_off,80,0,7,,,,,,,,7,,,,43,64
19880,note_off,80,0,11,,,,,,,,12,,,,55,64
19880,note_off,80,0,12,,,,,,,,13,,,,43,64
19880,note_off,80,0,6,,,,,,,,6,,,,55,64
19890,note_on,0,0,10,,,,,,,,11,,,,68,45
19890,note_on,0,0,8,,,,,,,,8,,,,75,45
19890,note_off,30,0,8,,,,,,,,8,,,,74,64
19890,note_off,30,0,3,,,,,,,,3,,,,74,64
19890,note_on,0,0,3,,,,,,,,3,,,,75,45
19890,note_on,0,0,5,,,,,,,,5,,,,68,45
19890,note_off,30,0,5,,,,,,,,5,,,,67,64
19890,note_off,30,0,10,,,,,,,,11,,,,67,64
19890,note_on,0,0,9,,,,,,,,10,,,,73,45
19890,note_off,30,0,9,,,,,,,,10,,,,72,64
19890,note_off,30,0,4,,,,,,,,4,,,,72,64
19890,note_on,0,0,4,,,,,,,,4,,,,73,45
19920,note_off,30,0,4,,,,,,,,4,,,,73,64
19920,note_on,0,0,4,,,,,,,,4,,,,72,45
19920,note_on,0,0,10,,,,,,,,11,,,,67,45
19920,note_off,30,0,10,,,,,,,,11,,,,68,64
19920,note_on,0,0,8,,,,,,,,8,,,,74,45
19920,note_off,30,0,8,,,,,,,,8,,,,75,64
19920,note_on,0,0,3,,,,,,,,3,,,,74,45
19920,note_on,0,0,5,,,,,,,,5,,,,67,45
19920,note_off,30,0,5,,,,,,,,5,,,,68,64
19920,note_off,30,0,3,,,,,,,,3,,,,75,64
19920,note_off,30,0,9,,,,,,,,10,,,,73,64
19920,note_on,0,0,9,,,,,,,,10,,,,72,45
20000,note_off,80,0,5,,,,,,,,5,,,,67,64
20000,note_off,80,0,9,,,,,,,,10,,,,72,64
20000,note_off,80,0,8,,,,,,,,8,,,,74,64
20000,note_off,80,0,4,,,,,,,,4,,,,72,64
20000,note_off,80,0,10,,,,,,,,11,,,,67,64
20000,note_off,80,0,3,,,,,,,,3,,,,74,64
20035,note_off,235,0,13,,,,,,,,14,,,,43,64
20040,note_on,160,0,7,,,,,,,,7,,,,43,45
20040,note_on,40,0,9,,,,,,,,10,,,,72,45
20040,note_on,40,0,4,,,,,,,,4,,,,72,45
20040,note_on,160,0,12,,,,,,,,13,,,,43,45
20040,note_on,5,0,13,,,,,,,,14,,,,43,30
20040,note_on,40,0,10,,,,,,,,11,,,,67,45
20040,note_on,40,0,5,,,,,,,,5,,,,67,45
20040,note_on,40,0,8,,,,,,,,8,,,,74,45
20040,note_on,160,0,11,,,,,,,,12,,,,55,45
20040,note_on,40,0,3,,,,,,,,3,,,,74,45
20040,note_on,160,0,6,,,,,,,,6,,,,55,45
20070,note_off,30,0,4,,,,,,,,4,,,,72,64
20070,note_on,0,0,4,,,,,,,,4,,,,73,45
20070,note_off,30,0,10,,,,,,,,11,,,,67,64
20070,note_off,30,0,8,,,,,,,,8,,,,74,64
20070,note_off,30,0,9,,,,,,,,10,,,,72,64
20070,note_on,0,0,10,,,,,,,,11,,,,68,45
20070,note_on,0,0,5,,,,,,,,5,,,,68,45
20070,note_off,30,0,5,,,,,,,,5,,,,67,64
20070,note_on,0,0,3,,,,,,,,3,,,,75,45
20070,note_off,30,0,3,,,,,,,,3,,,,74,64
20070,note_on,0,0,8,,,,,,,,8,,,,75,45
20070,note_on,0,0,9,,,,,,,,10,,,,73,45
20100,note_off,30,0,10,,,,,,,,11,,,,68,64
20100,note_on,0,0,4,,,,,,,,4,,,,72,45
20100,note_off,30,0,4,,,,,,,,4,,,,73,64
20100,note_on,0,0,10,,,,,,,,11,,,,67,45
20100,note_off,30,0,9,,,,,,,,10,,,,73,64
20100,note_on,0,0,3,,,,,,,,3,,,,74,45
20100,note_off,30,0,3,,,,,,,,3,,,,75,64
20100,note_off,30,0,8,,,,,,,,8,,,,75,64
20100,note_on,0,0,8,,,,,,,,8,,,,74,45
20100,note_off,30,0,5,,,,,,,,5,,,,68,64
20100,note_on,0,0,5,,,,,,,,5,,,,67,45
20100,note_on,0,0,9,,,,,,,,10,,,,72,45
20120,note_off,80,0,6,,,,,,,,6,,,,55,64
20120,note_off,80,0,7,,,,,,,,7,,,,43,64
20120,note_off,80,0,12,,,,,,,,13,,,,43,64
20120,note_off,80,0,11,,,,,,,,12,,,,55,64
20130,note_off,30,0,5,,,,,,,,5,,,,67,64
20130,note_off,30,0,9,,,,,,,,10,,,,72,64
20130,note_on,0,0,9,,,,,,,,10,,,,73,45
20130,note_off,30,0,4,,,,,,,,4,,,,72,64
20130,note_off,30,0,10,,,,,,,,11,,,,67,64
20130,note_on,0,0,10,,,,,,,,11,,,,68,45
20130,note_on,0,0,5,,,,,,,,5,,,,68,45
20130,note_on,0,0,3,,,,,,,,3,,,,75,45
20130,note_off,30,0,3,,,,,,,,3,,,,74,64
20130,note_on,0,0,4,,,,,,,,4,,,,73,45
20130,note_off,30,0,8,,,,,,,,8,,,,74,64
20130,note_on,0,0,8,,,,,,,,8,,,,75,45
20160,note_on,0,0,10,,,,,,,,11,,,,67,45
20160,note_off,30,0,5,,,,,,,,5,,,,68,64
20160,note_on,0,0,5,,,,,,,,5,,,,67,45
20160,note_off,30,0,4,,,,,,,,4,,,,73,64
20160,note_on,0,0,4,,,,,,,,4,,,,72,45
20160,note_off,30,0,9,,,,,,,,10,,,,73,64
20160,note_off,30,0,10,,,,,,,,11,,,,68,64
20160,note_off,30,0,3,,,,,,,,3,,,,75,64
20160,note_on,0,0,3,,,,,,,,3,,,,74,45
20160,note_off,30,0,8,,,,,,,,8,,,,75,64
20160,note_on,0,0,8,,,,,,,,8,,,,74,45
20160,note_on,0,0,9,,,,,,,,10,,,,72,45
20240,note_off,80,0,10,,,,,,,,11,,,,67,64
20240,note_off,80,0,8,,,,,,,,8,,,,74,64
20240,note_off,80,0,9,,,,,,,,10,,,,72,64
20240,note_off,80,0,4,,,,,,,,4,,,,72,64
20240,note_off,80,0,3,,,,,,,,3,,,,74,64
20240,note_off,80,0,5,,,,,,,,5,,,,67,64
20275,note_off,235,0,13,,,,,,,,14,,,,43,64
20280,note_on,40,0,3,,,,,,,,3,,,,74,45
20280,note_on,40,0,9,,,,,,,,10,,,,71,45
20280,note_on,40,0,8,,,,,,,,8,,,,74,45
20280,note_on,160,0,7,,,,,,,,7,,,,31,45
20280,note_on,160,0,6,,,,,,,,6,,,,43,45
20280,note_on,40,0,10,,,,,,,,11,,,,67,45
20280,note_on,40,0,5,,,,,,,,5,,,,67,45
20280,note_on,40,0,4,,,,,,,,4,,,,71,45
20280,note_on,160,0,12,,,,,,,,13,,,,31,45
20280,note_on,5,0,13,,,,,,,,14,,,,31,30
20280,note_on,160,0,11,,,,,,,,12,,,,43,45
20310,note_on,0,0,9,,,,,,,,10,,,,72,45
20310,note_off,30,0,9,,,,,,,,10,,,,71,64
20310,note_on,0,0,8,,,,,,,,8,,,,75,45
20310,note_off,30,0,8,,,,,,,,8,,,,74,64
20310,note_on,0,0,5,,,,,,,,5,,,,68,45
20310,note_off,30,0,5,,,,,,,,5,,,,67,64
20310,note_off,30,0,4,,,,,,,,4,,,,71,64
20310,note_on,0,0,4,,,,,,,,4,,,,72,45
20310,note_off,30,0,10,,,,,,,,11,,,,67,64
20310,note_on,0,0,10,,,,,,,,11,,,,68,45
20310,note_off,30,0,3,,,,,,,,3,,,,74,64
20310,note_on,0,0,3,,,,,,,,3,,,,75,45
20340,note_on,0,0,9,,,,,,,,10,,,,71,45
20340,note_off,30,0,9,,,,,,,,10,,,,72,64
20340,note_on,0,0,5,,,,,,,,5,,,,67,45
20340,note_on,0,0,8,,,,,,,,8,,,,74,45
20340,note_off,30,0,8,,,,,,,,8,,,,75,64
20340,note_on,0,0,3,,,,,,,,3,,,,74,45
20340,note_on,0,0,4,,,,,,,,4,,,,71,45
20340,note_off,30,0,5,,,,,,,,5,,,,68,64
20340,note_off,30,0,10,,,,,,,,11,,,,68,64
20340,note_on,0,0,10,,,,,,,,11,,,,67,45
20340,note_off,30,0,4,,,,,,,,4,,,,72,64
20340,note_off,30,0,3,,,,,,,,3,,,,75,64
20360,note_off,80,0,12,,,,,,,,13,,,,31,64
20360,note_off,80,0,7,,,,,,,,7,,,,31,64
20360,note_off,80,0,6,,,,,,,,6,,,,43,64
20360,note_off,80,0,11,,,,,,,,12,,,,43,64
20370,note_on,0,0,8,,,,,,,,8,,,,75,45
20370,note_off,30,0,5,,,,,,,,5,,,,67,64
20370,note_off,30,0,4,,,,,,,,4,,,,71,64
20370,note_on,0,0,4,,,,,,,,4,,,,72,45
20370,note_on,0,0,10,,,,,,,,11,,,,68,45
20370,note_off,30,0,10,,,,,,,,11,,,,67,64
20370,note_on,0,0,3,,,,,,,,3,,,,75,45
20370,note_off,30,0,3,,,,,,,,3,,,,74,64
20370,note_off,30,0,9,,,,,,,,10,,,,71,64
20370,note_on,0,0,9,,,,,,,,10,,,,72,45
20370,note_on,0,0,5,,,,,,,,5,,,,68,45
20370,note_off,30,0,8,,,,,,,,8,,,,74,64
20400,note_off,30,0,4,,,,,,,,4,,,,72,64
20400,note_on,0,0,4,,,,,,,,4,,,,71,45
20400,note_off,30,0,9,,,,,,,,10,,,,72,64
20400,note_on,0,0,9,,,,,,,,10,,,,71,45
20400,note_on,0,0,5,,,,,,,,5,,,,67,45
20400,note_off,30,0,3,,,,,,,,3,,,,75,64
20400,note_on,0,0,3,,,,,,,,3,,,,74,45
20400,note_on,0,0,8,,,,,,,,8,,,,74,45
20400,note_off,30,0,5,,,,,,,,5,,,,68,64
20400,note_off,30,0,10,,,,,,,,11,,,,68,64
20400,note_on,0,0,10,,,,,,,,11,,,,67,45
20400,note_off,30,0,8,,,,,,,,8,,,,75,64
20480,note_off,80,0,8,,,,,,,,8,,,,74,64
20480,note_off,80,0,3,,,,,,,,3,,,,74,64
20480,note_off,80,0,4,,,,,,,,4,,,,71,64
20480,note_off,80,0,5,,,,,,,,5,,,,67,64
20480,note_off,80,0,10,,,,,,,,11,,,,67,64
20480,note_off,80,0,9,,,,,,,,10,,,,71,64
20515,note_off,235,0,13,,,,,,,,14,,,,31,64
20520,note_on,40,0,8,,,,,,,,8,,,,74,45
20520,note_on,40,0,9,,,,,,,,10,,,,71,45
20520,note_on,40,0,3,,,,,,,,3,,,,74,45
20520,note_on,5,0,13,,,,,,,,14,,,,31,30
20520,note_on,160,0,6,,,,,,,,6,,,,43,45
20520,note_on,40,0,5,,,,,,,,5,,,,67,45
20520,note_on,160,0,12,,,,,,,,13,,,,31,45
20520,note_on,160,0,7,,,,,,,,7,,,,31,45
20520,note_on,160,0,11,,,,,,,,12,,,,43,45
20520,note_on,40,0,4,,,,,,,,4,,,,71,45
20520,note_on,40,0,10,,,,,,,,11,,,,67,45
20550,note_off,30,0,3,,,,,,,,3,,,,74,64
20550,note_on,0,0,9,,,,,,,,10,,,,72,45
20550,note_off,30,0,10,,,,,,,,11,,,,67,64
20550,note_off,30,0,4,,,,,,,,4,,,,71,64
20550,note_off,30,0,8,,,,,,,,8,,,,74,64
20550,note_on,0,0,8,,,,,,,,8,,,,75,45
20550,note_on,0,0,3,,,,,,,,3,,,,75,45
20550,note_on,0,0,5,,,,,,,,5,,,,68,45
20550,note_off,30,0,5,,,,,,,,5,,,,67,64
20550,note_on,0,0,10,,,,,,,,11,,,,68,45
20550,note_on,0,0,4,,,,,,,,4,,,,72,45
20550,note_off,30,0,9,,,,,,,,10,,,,71,64
20580,note_on,0,0,8,,,,,,,,8,,,,74,45
20580,note_on,0,0,10,,,,,,,,11,,,,67,45
20580,note_off,30,0,4,,,,,,,,4,,,,72,64
20580,note_off,30,0,8,,,,,,,,8,,,,75,64
20580,note_on,0,0,4,,,,,,,,4,,,,71,45
20580,note_on,0,0,3,,,,,,,,3,,,,74,45
20580,note_on,0,0,9,,,,,,,,10,,,,71,45
20580,note_off,30,0,10,,,,,,,,11,,,,68,64
20580,note_off,30,0,5,,,,,,,,5,,,,68,64
20580,note_on,0,0,5,,,,,,,,5,,,,67,45
20580,note_off,30,0,9,,,,,,,,10,,,,72,64
20580,note_off,30,0,3,,,,,,,,3,,,,75,64
20600,note_off,80,0,11,,,,,,,,12,,,,43,64
20600,note_off,80,0,7,,,,,,,,7,,,,31,64
20600,note_off,80,0,12,,,,,,,,13,,,,31,64
20600,note_off,80,0,6,,,,,,,,6,,,,43,64
20610,note_off,30,0,4,,,,,,,,4,,,,71,64
20610,note_on,0,0,10,,,,,,,,11,,,,68,45
20610,note_on,0,0,4,,,,,,,,4,,,,72,45
20610,note_off,30,0,8,,,,,,,,8,,,,74,64
20610,note_on,0,0,8,,,,,,,,8,,,,75,45
20610,note_off,30,0,5,,,,,,,,5,,,,67,64
20610,note_off,30,0,10,,,,,,,,11,,,,67,64
20610,note_on,0,0,5,,,,,,,,5,,,,68,45
20610,note_on,0,0,9,,,,,,,,10,,,,72,45
20610,note_off,30,0,3,,,,,,,,3,,,,74,64
20610,note_on,0,0,3,,,,,,,,3,,,,75,45
20610,note_off,30,0,9,,,,,,,,10,,,,71,64
20640,note_off,30,0,8,,,,,,,,8,,,,75,64
20640,note_on,0,0,8,,,,,,,,8,,,,74,45
20640,note_on,0,0,4,,,,,,,,4,,,,71,45
20640,note_off,30,0,3,,,,,,,,3,,,,75,64
20640,note_off,30,0,9,,,,,,,,10,,,,72,64
20640,note_off,30,0,10,,,,,,,,11,,,,68,64
20640,note_on,0,0,3,,,,,,,,3,,,,74,45
20640,note_on,0,0,9,,,,,,,,10,,,,71,45
20640,note_off,30,0,4,,,,,,,,4,,,,72,64
20640,note_off,30,0,5,,,,,,,,5,,,,68,64
20640,note_on,0,0,5,,,,,,,,5,,,,67,45
20640,note_on,0,0,10,,,,,,,,11,,,,67,45
20720,note_off,80,0,3,,,,,,,,3,,,,74,64
20720,note_off,80,0,9,,,,,,,,10,,,,71,64
20720,note_off,80,0,10,,,,,,,,11,,,,67,64
20720,note_off,80,0,8,,,,,,,,8,,,,74,64
20720,note_off,80,0,5,,,,,,,,5,,,,67,64
20720,note_off,80,0,4,,,,,,,,4,,,,71,64
20755,note_off,235,0,13,,,,,,,,14,,,,31,64
20760,note_on,40,0,10,,,,,,,,11,,,,67,45
20760,note_on,40,0,5,,,,,,,,5,,,,67,45
20760,note_on,160,0,12,,,,,,,,13,,,,31,45
20760,note_on,160,0,7,,,,,,,,7,,,,31,45
20760,note_on,40,0,4,,,,,,,,4,,,,71,45
20760,note_on,40,0,8,,,,,,,,8,,,,74,45
20760,note_on,160,0,11,,,,,,,,12,,,,43,45
20760,note_on,5,0,13,,,,,,,,14,,,,31,30
20760,note_on,40,0,9,,,,,,,,10,,,,71,45
20760,note_on,40,0,3,,,,,,,,3,,,,74,45
20760,note_on,160,0,6,,,,,,,,6,,,,43,45
20790,note_off,30,0,8,,,,,,,,8,,,,74,64
20790,note_off,30,0,5,,,,,,,,5,,,,67,64
20790,note_on,0,0,5,,,,,,,,5,,,,68,45
20790,note_off,30,0,3,,,,,,,,3,,,,74,64
20790,note_on,0,0,3,,,,,,,,3,,,,75,45
20790,note_on,0,0,8,,,,,,,,8,,,,75,45
20790,note_off,30,0,10,,,,,,,,11,,,,67,64
20790,note_off,30,0,4,,,,,,,,4,,,,71,64
20790,note_on,0,0,10,,,,,,,,11,,,,68,45
20790,note_on,0,0,4,,,,,,,,4,,,,72,45
20790,note_on,0,0,9,,,,,,,,10,,,,72,45
20790,note_off,30,0,9,,,,,,,,10,,,,71,64
20820,note_off,30,0,8,,,,,,,,8,,,,75,64
20820,note_on,0,0,3,,,,,,,,3,,,,74,45
20820,note_off,30,0,3,,,,,,,,3,,,,75,64
20820,note_off,30,0,10,,,,,,,,11,,,,68,64
20820,note_on,0,0,10,,,,,,,,11,,,,67,45
20820,note_on,0,0,5,,,,,,,,5,,,,67,45
20820,note_off,30,0,5,,,,,,,,5,,,,68,64
20820,note_off,30,0,4,,,,,,,,4,,,,72,64
20820,note_on,0,0,4,,,,,,,,4,,,,71,45
20820,note_off,30,0,9,,,,,,,,10,,,,72,64
20820,note_on,0,0,9,,,,,,,,10,,,,71,45
20820,note_on,0,0,8,,,,,,,,8,,,,74,45
20840,note_off,80,0,6,,,,,,,,6,,,,43,64
20840,note_off,80,0,12,,,,,,,,13,,,,31,64
20840,note_off,80,0,7,,,,,,,,7,,,,31,64
20840,note_off,80,0,11,,,,,,,,12,,,,43,64
20850,note_off,30,0,8,,,,,,,,8,,,,74,64
20850,note_on,0,0,3,,,,,,,,3,,,,75,45
20850,note_on,0,0,5,,,,,,,,5,,,,68,45
20850,note_on,0,0,9,,,,,,,,10,,,,72,45
20850,note_off,30,0,9,,,,,,,,10,,,,71,64
20850,note_on,0,0,4,,,,,,,,4,,,,72,45
20850,note_off,30,0,5,,,,,,,,5,,,,67,64
20850,note_off,30,0,10,,,,,,,,11,,,,67,64
20850,note_on,0,0,10,,,,,,,,11,,,,68,45
20850,note_on,0,0,8,,,,,,,,8,,,,75,45
20850,note_off,30,0,4,,,,,,,,4,,,,71,64
20850,note_off,30,0,3,,,,,,,,3,,,,74,64
20880,note_on,0,0,9,,,,,,,,10,,,,71,45
20880,note_off,30,0,9,,,,,,,,10,,,,72,64
20880,note_off,30,0,4,,,,,,,,4,,,,72,64
20880,note_off,30,0,3,,,,,,,,3,,,,75,64
20880,note_off,30,0,8,,,,,,,,8,,,,75,64
20880,note_on,0,0,8,,,,,,,,8,,,,74,45
20880,note_off,30,0,10,,,,,,,,11,,,,68,64
20880,note_on,0,0,10,,,,,,,,11,,,,67,45
20880,note_off,30,0,5,,,,,,,,5,,,,68,64
20880,note_on,0,0,4,,,,,,,,4,,,,71,45
20880,note_on,0,0,5,,,,,,,,5,,,,67,45
20880,note_on,0,0,3,,,,,,,,3,,,,74,45
20960,note_off,80,0,9,,,,,,,,10,,,,71,64
20960,note_off,80,0,10,,,,,,,,11,,,,67,64
20960,note_off,80,0,4,,,,,,,,4,,,,71,64
20960,note_off,80,0,3,,,,,,,,3,,,,74,64
20960,note_off,80,0,8,,,,,,,,8,,,,74,64
20960,note_off,80,0,5,,,,,,,,5,,,,67,64
20995,note_off,235,0,13,,,,,,,,14,,,,31,64
21000,note_on,40,0,3,,,,,,,,3,,,,74,45
21000,note_on,160,0,7,,,,,,,,7,,,,31,45
21000,note_on,40,0,10,,,,,,,,11,,,,67,45
21000,note_on,40,0,4,,,,,,,,4,,,,71,45
21000,note_on,160,0,6,,,,,,,,6,,,,43,45
21000,note_on,40,0,8,,,,,,,,8,,,,74,45
21000,note_on,160,0,12,,,,,,,,13,,,,31,45
21000,note_on,40,0,5,,,,,,,,5,,,,67,45
21000,note_on,40,0,9,,,,,,,,10,,,,71,45
21000,note_on,160,0,11,,,,,,,,12,,,,43,45
21000,note_on,5,0,13,,,,,,,,14,,,,31,30
21030,note_off,30,0,3,,,,,,,,3,,,,74,64
21030,note_off,30,0,5,,,,,,,,5,,,,67,64
21030,note_on,0,0,5,,,,,,,,5,,,,68,45
21030,note_on,0,0,3,,,,,,,,3,,,,75,45
21030,note_off,30,0,10,,,,,,,,11,,,,67,64
21030,note_on,0,0,9,,,,,,,,10,,,,72,45
21030,note_on,0,0,4,,,,,,,,4,,,,72,45
21030,note_on,0,0,8,,,,,,,,8,,,,75,45
21030,note_off,30,0,8,,,,,,,,8,,,,74,64
21030,note_off,30,0,4,,,,,,,,4,,,,71,64
21030,note_on,0,0,10,,,,,,,,11,,,,68,45
21030,note_off,30,0,9,,,,,,,,10,,,,71,64
21060,note_off,30,0,4,,,,,,,,4,,,,72,64
21060,note_on,0,0,4,,,,,,,,4,,,,71,45
21060,note_off,30,0,3,,,,,,,,3,,,,75,64
21060,note_on,0,0,10,,,,,,,,11,,,,67,45
21060,note_off,30,0,9,,,,,,,,10,,,,72,64
21060,note_off,30,0,5,,,,,,,,5,,,,68,64
21060,note_on,0,0,5,,,,,,,,5,,,,67,45
21060,note_on,0,0,9,,,,,,,,10,,,,71,45
21060,note_off,30,0,8,,,,,,,,8,,,,75,64
21060,note_on,0,0,8,,,,,,,,8,,,,74,45
21060,note_off,30,0,10,,,,,,,,11,,,,68,64
21060,note_on,0,0,3,,,,,,,,3,,,,74,45
21080,note_off,80,0,6,,,,,,,,6,,,,43,64
21080,note_off,80,0,12,,,,,,,,13,,,,31,64
21080,note_off,80,0,7,,,,,,,,7,,,,31,64
21080,note_off,80,0,11,,,,,,,,12,,,,43,64
21090,note_on,0,0,8,,,,,,,,8,,,,75,45
21090,note_off,30,0,8,,,,,,,,8,,,,74,64
21090,note_on,0,0,9,,,,,,,,10,,,,72,45
21090,note_off,30,0,9,,,,,,,,10,,,,71,64
21090,note_on,0,0,4,,,,,,,,4,,,,72,45
21090,note_off,30,0,4,,,,,,,,4,,,,71,64
21090,note_on,0,0,5,,,,,,,,5,,,,68,45
21090,note_off,30,0,5,,,,,,,,5,,,,67,64
21090,note_on,0,0,10,,,,,,,,11,,,,68,45
21090,note_off,30,0,10,,,,,,,,11,,,,67,64
21090,note_on,0,0,3,,,,,,,,3,,,,75,45
21090,note_off,30,0,3,,,,,,,,3,,,,74,64
21120,note_on,0,0,4,,,,,,,,4,,,,71,45
21120,note_on,0,0,5,,,,,,,,5,,,,67,45
21120,note_off,30,0,5,,,,,,,,5,,,,68,64
21120,note_off,30,0,9,,,,,,,,10,,,,72,64
21120,note_on,0,0,9,,,,,,,,10,,,,71,45
21120,note_on,0,0,8,,,,,,,,8,,,,74,45
21120,note_off,30,0,4,,,,,,,,4,,,,72,64
21120,note_on,0,0,10,,,,,,,,11,,,,67,45
21120,note_off,30,0,3,,,,,,,,3,,,,75,64
21120,note_on,0,0,3,,,,,,,,3,,,,74,45
21120,note_off,30,0,10,,,,,,,,11,,,,68,64
21120,note_off,30,0,8,,,,,,,,8,,,,75,64
21200,note_off,80,0,9,,,,,,,,10,,,,71,64
21200,note_off,80,0,8,,,,,,,,8,,,,74,64
21200,note_off,80,0,10,,,,,,,,11,,,,67,64
21200,note_off,80,0,4,,,,,,,,4,,,,71,64
21200,note_off,80,0,3,,,,,,,,3,,,,74,64
21200,note_off,80,0,5,,,,,,,,5,,,,67,64
21235,note_off,235,0,13,,,,,,,,14,,,,31,64
21240,note_on,160,0,6,,,,,,,,6,,,,48,45
21240,note_on,40,0,3,,,,,,,,3,,,,72,45
21240,note_on,40,0,9,,,,,,,,10,,,,63,45
21240,note_on,160,0,12,,,,,,,,13,,,,36,45
21240,note_on,40,0,8,,,,,,,,8,,,,72,45
21240,note_on,40,0,10,,,,,,,,11,,,,67,45
21240,note_on,5,0,13,,,,,,,,14,,,,36,30
21240,note_on,160,0,11,,,,,,,,12,,,,48,45
21240,note_on,160,0,7,,,,,,,,7,,,,36,45
21240,note_on,40,0,5,,,,,,,,5,,,,67,45
21240,note_on,40,0,4,,,,,,,,4,,,,63,45
21240,note_on,21240,0,1,,,,,,,,1,,,,72,75
21240,note_on,21240,0,2,,,,,,,,2,,,,72,60
21280,note_off,40,0,1,,,,,,,,1,,,,72,64
21280,note_off,40,0,2,,,,,,,,2,,,,72,64
21300,note_on,20,0,1,,,,,,,,1,,,,84,75
21300,note_on,20,0,2,,,,,,,,2,,,,84,60
21340,note_off,40,0,1,,,,,,,,1,,,,84,64
21340,note_off,40,0,2,,,,,,,,2,,,,84,64
21360,note_on,20,0,2,,,,,,,,2,,,,84,60
21360,note_on,20,0,1,,,,,,,,1,,,,84,75
21400,note_off,40,0,2,,,,,,,,2,,,,84,64
21400,note_off,40,0,1,,,,,,,,1,,,,84,64
21420,note_on,20,0,1,,,,,,,,1,,,,79,75
21420,note_on,20,0,2,,,,,,,,2,,,,79,60
21460,note_off,40,0,2,,,,,,,,2,,,,79,64
21460,note_off,40,0,1,,,,,,,,1,,,,79,64
21480,note_on,20,0,2,,,,,,,,2,,,,79,60
21480,note_on,20,0,1,,,,,,,,1,,,,79,75
21520,note_off,40,0,2,,,,,,,,2,,,,79,64
21520,note_off,40,0,1,,,,,,,,1,,,,79,64
21540,note_on,20,0,1,,,,,,,,1,,,,75,75
21540,note_on,20,0,2,,,,,,,,2,,,,75,60
21580,note_off,40,0,2,,,,,,,,2,,,,75,64
21580,note_off,40,0,1,,,,,,,,1,,,,75,64
21600,note_on,20,0,2,,,,,,,,2,,,,75,60
21600,note_on,20,0,1,,,,,,,,1,,,,75,75
21640,note_off,400,0,11,,,,,,,,12,,,,48,64
21640,note_off,400,0,13,,,,,,,,14,,,,36,64
21640,note_off,400,0,8,,,,,,,,8,,,,72,64
21640,note_off,400,0,10,,,,,,,,11,,,,67,64
21640,note_off,40,0,1,,,,,,,,1,,,,75,64
21640,note_off,400,0,4,,,,,,,,4,,,,63,64
21640,note_off,400,0,6,,,,,,,,6,,,,48,64
21640,note_off,40,0,2,,,,,,,,2,,,,75,64
21640,note_off,400,0,9,,,,,,,,10,,,,63,64
21640,note_off,400,0,7,,,,,,,,7,,,,36,64
21640,note_off,400,0,12,,,,,,,,13,,,,36,64
21640,note_off,400,0,3,,,,,,,,3,,,,72,64
21640,note_off,400,0,5,,,,,,,,5,,,,67,64
21660,note_on,20,0,2,,,,,,,,2,,,,72,60
21660,note_on,20,0,1,,,,,,,,1,,,,72,75
21700,note_off,40,0,2,,,,,,,,2,,,,72,64
21700,note_off,40,0,1,,,,,,,,1,,,,72,64
21720,note_on,20,0,2,,,,,,,,2,,,,72,60
21720,note_on,20,0,1,,,,,,,,1,,,,72,75
21760,note_off,40,0,1,,,,,,,,1,,,,72,64
21760,note_off,40,0,2,,,,,,,,2,,,,72,64
21780,note_on,20,0,2,,,,,,,,2,,,,84,60
21780,note_on,20,0,1,,,,,,,,1,,,,84,75
21820,note_off,40,0,2,,,,,,,,2,,,,84,64
21820,note_off,40,0,1,,,,,,,,1,,,,84,64
21840,note_on,20,0,1,,,,,,,,1,,,,84,75
21840,note_on,20,0,2,,,,,,,,2,,,,84,60
21880,note_off,40,0,2,,,,,,,,2,,,,84,64
21880,note_off,40,0,1,,,,,,,,1,,,,84,64
21900,note_on,20,0,2,,,,,,,,2,,,,79,60
21900,note_on,20,0,1,,,,,,,,1,,,,79,75
21940,note_off,40,0,2,,,,,,,,2,,,,79,64
21940,note_off,40,0,1,,,,,,,,1,,,,79,64
21960,note_on,20,0,1,,,,,,,,1,,,,79,75
21960,note_on,20,0,2,,,,,,,,2,,,,79,60
22000,note_off,40,0,1,,,,,,,,1,,,,79,64
22000,note_off,40,0,2,,,,,,,,2,,,,79,64
22020,note_on,20,0,2,,,,,,,,2,,,,75,60
22020,note_on,20,0,1,,,,,,,,1,,,,75,75
22060,note_off,40,0,1,,,,,,,,1,,,,75,64
22060,note_off,40,0,2,,,,,,,,2,,,,75,64
22080,note_on,20,0,1,,,,,,,,1,,,,75,75
22080,note_on,20,0,2,,,,,,,,2,,,,75,60
22120,note_off,40,0,1,,,,,,,,1,,,,75,64
22120,note_off,40,0,2,,,,,,,,2,,,,75,64
22140,note_on,20,0,2,,,,,,,,2,,,,72,60
22140,note_on,20,0,1,,,,,,,,1,,,,72,75
22180,note_off,40,0,2,,,,,,,,2,,,,72,64
22180,note_off,40,0,1,,,,,,,,1,,,,72,64
22200,note_on,20,0,1,,,,,,,,1,,,,72,75
22200,note_on,20,0,2,,,,,,,,2,,,,72,60
22240,note_off,40,0,1,,,,,,,,1,,,,72,64
22240,note_off,40,0,2,,,,,,,,2,,,,72,64
22260,note_on,20,0,1,,,,,,,,1,,,,84,75
22260,note_on,20,0,2,,,,,,,,2,,,,84,60
22300,note_off,40,0,1,,,,,,,,1,,,,84,64
22300,note_off,40,0,2,,,,,,,,2,,,,84,64
22320,note_on,20,0,2,,,,,,,,2,,,,82,60
22320,note_on,20,0,1,,,,,,,,1,,,,82,75
22360,note_off,40,0,1,,,,,,,,1,,,,82,64
22360,note_off,40,0,2,,,,,,,,2,,,,82,64
22380,note_on,20,0,1,,,,,,,,1,,,,80,75
22380,note_on,20,0,2,,,,,,,,2,,,,80,60
22420,note_off,40,0,1,,,,,,,,1,,,,80,64
22420,note_off,40,0,2,,,,,,,,2,,,,80,64
22440,note_on,20,0,2,,,,,,,,2,,,,79,60
22440,note_on,20,0,1,,,,,,,,1,,,,79,75
22480,note_off,40,0,2,,,,,,,,2,,,,79,64
22480,note_off,40,0,1,,,,,,,,1,,,,79,64
22500,note_on,20,0,2,,,,,,,,2,,,,77,60
22500,note_on,20,0,1,,,,,,,,1,,,,77,75
22540,note_off,40,0,2,,,,,,,,2,,,,77,64
22540,note_off,40,0,1,,,,,,,,1,,,,77,64
22560,note_on,20,0,2,,,,,,,,2,,,,75,60
22560,note_on,20,0,1,,,,,,,,1,,,,75,75
22600,note_off,40,0,1,,,,,,,,1,,,,75,64
22600,note_off,40,0,2,,,,,,,,2,,,,75,64
22620,note_on,20,0,1,,,,,,,,1,,,,74,75
22620,note_on,20,0,2,,,,,,,,2,,,,74,60
22660,note_off,40,0,2,,,,,,,,2,,,,74,64
22660,note_off,40,0,1,,,,,,,,1,,,,74,64
22680,note_on,20,0,2,,,,,,,,2,,,,72,60
22680,note_on,20,0,1,,,,,,,,1,,,,72,75
22720,note_off,40,0,2,,,,,,,,2,,,,72,64
22720,note_off,40,0,1,,,,,,,,1,,,,72,64
22740,note_on,20,0,1,,,,,,,,1,,,,84,75
22740,note_on,20,0,2,,,,,,,,2,,,,84,60
22780,note_off,40,0,1,,,,,,,,1,,,,84,64
22780,note_off,40,0,2,,,,,,,,2,,,,84,64
22800,note_on,20,0,1,,,,,,,,1,,,,82,75
22800,note_on,20,0,2,,,,,,,,2,,,,82,60
22840,note_off,40,0,1,,,,,,,,1,,,,82,64
22840,note_off,40,0,2,,,,,,,,2,,,,82,64
22860,note_on,20,0,1,,,,,,,,1,,,,80,75
22860,note_on,20,0,2,,,,,,,,2,,,,80,60
22900,note_off,40,0,1,,,,,,,,1,,,,80,64
22900,note_off,40,0,2,,,,,,,,2,,,,80,64
22920,note_on,20,0,2,,,,,,,,2,,,,79,60
22920,note_on,20,0,1,,,,,,,,1,,,,79,75
22960,note_off,40,0,1,,,,,,,,1,,,,79,64
22960,note_off,40,0,2,,,,,,,,2,,,,79,64
22980,note_on,20,0,2,,,,,,,,2,,,,77,60
22980,note_on,20,0,1,,,,,,,,1,,,,77,75
23020,note_off,40,0,2,,,,,,,,2,,,,77,64
23020,note_off,40,0,1,,,,,,,,1,,,,77,64
23040,note_on,20,0,2,,,,,,,,2,,,,75,60
23040,note_on,20,0,1,,,,,,,,1,,,,75,75
23080,note_off,40,0,2,,,,,,,,2,,,,75,64
23080,note_off,40,0,1,,,,,,,,1,,,,75,64
23100,note_on,20,0,2,,,,,,,,2,,,,74,60
23100,note_on,20,0,1,,,,,,,,1,,,,74,75
23140,note_off,40,0,2,,,,,,,,2,,,,74,64
23140,note_off,40,0,1,,,,,,,,1,,,,74,64
23160,note_on,20,0,2,,,,,,,,2,,,,72,60
23160,note_on,20,0,1,,,,,,,,1,,,,72,75
23200,note_off,40,0,1,,,,,,,,1,,,,72,64
23200,note_off,40,0,2,,,,,,,,2,,,,72,64
23220,note_on,20,0,1,,,,,,,,1,,,,67,75
23220,note_on,20,0,2,,,,,,,,2,,,,67,60
23260,note_off,40,0,2,,,,,,,,2,,,,67,64
23260,note_off,40,0,1,,,,,,,,1,,,,67,64
23280,note_on,20,0,2,,,,,,,,2,,,,72,60
23280,note_on,20,0,1,,,,,,,,1,,,,72,75
23320,note_off,40,0,2,,,,,,,,2,,,,72,64
23320,note_off,40,0,1,,,,,,,,1,,,,72,64
23340,note_on,20,0,2,,,,,,,,2,,,,75,60
23340,note_on,20,0,1,,,,,,,,1,,,,75,75
23380,note_off,40,0,2,,,,,,,,2,,,,75,64
23380,note_off,40,0,1,,,,,,,,1,,,,75,64
23400,note_on,20,0,1,,,,,,,,1,,,,72,75
23400,note_on,20,0,2,,,,,,,,2,,,,72,60
23440,note_off,40,0,1,,,,,,,,1,,,,72,64
23440,note_off,40,0,2,,,,,,,,2,,,,72,64
23460,note_on,20,0,1,,,,,,,,1,,,,67,75
23460,note_on,20,0,2,,,,,,,,2,,,,67,60
23500,note_off,40,0,1,,,,,,,,1,,,,67,64
23500,note_off,40,0,2,,,,,,,,2,,,,67,64
23520,note_on,20,0,1,,,,,,,,1,,,,72,75
23520,note_on,20,0,2,,,,,,,,2,,,,72,60
23560,note_off,40,0,2,,,,,,,,2,,,,72,64
23560,note_off,40,0,1,,,,,,,,1,,,,72,64
23580,note_on,20,0,1,,,,,,,,1,,,,75,75
23580,note_on,20,0,2,,,,,,,,2,,,,75,60
23620,note_off,40,0,1,,,,,,,,1,,,,75,64
23620,note_off,40,0,2,,,,,,,,2,,,,75,64
23640,note_on,20,0,1,,,,,,,,1,,,,72,75
23640,note_on,20,0,2,,,,,,,,2,,,,72,60
23680,note_off,40,0,1,,,,,,,,1,,,,72,64
23680,note_off,40,0,2,,,,,,,,2,,,,72,64
23700,note_on,20,0,1,,,,,,,,1,,,,67,72
23700,note_on,20,0,2,,,,,,,,2,,,,67,57
23740,note_off,40,0,2,,,,,,,,2,,,,67,64
23740,note_off,40,0,1,,,,,,,,1,,,,67,64
23760,note_on,20,0,1,,,,,,,,1,,,,72,69
23760,note_on,20,0,2,,,,,,,,2,,,,72,54
23800,note_off,40,0,2,,,,,,,,2,,,,72,64
23800,note_off,40,0,1,,,,,,,,1,,,,72,64
23820,note_on,20,0,1,,,,,,,,1,,,,75,65
23820,note_on,20,0,2,,,,,,,,2,,,,75,50
23860,note_off,40,0,1,,,,,,,,1,,,,75,64
23860,note_off,40,0,2,,,,,,,,2,,,,75,64
23880,note_on,20,0,1,,,,,,,,1,,,,72,61
23880,note_on,20,0,2,,,,,,,,2,,,,72,46
23920,note_off,40,0,2,,,,,,,,2,,,,72,64
23920,note_off,40,0,1,,,,,,,,1,,,,72,64
23940,note_on,20,0,1,,,,,,,,1,,,,67,57
23940,note_on,20,0,2,,,,,,,,2,,,,67,42
23980,note_off,40,0,1,,,,,,,,1,,,,67,64
23980,note_off,40,0,2,,,,,,,,2,,,,67,64
24000,note_on,20,0,2,,,,,,,,2,,,,72,38
24000,note_on,20,0,1,,,,,,,,1,,,,72,53
24040,note_off,40,0,1,,,,,,,,1,,,,72,64
24040,note_off,40,0,2,,,,,,,,2,,,,72,64
24060,note_on,20,0,2,,,,,,,,2,,,,75,34
24060,note_on,20,0,1,,,,,,,,1,,,,75,49
24100,note_off,40,0,2,,,,,,,,2,,,,75,64
24100,note_off,40,0,1,,,,,,,,1,,,,75,64
24120,note_on,20,0,2,,,,,,,,2,,,,60,30
24120,note_on,2480,0,13,,,,,,,,14,,,,36,30
24120,note_on,2480,0,12,,,,,,,,13,,,,36,45
24120,note_on,2480,0,7,,,,,,,,7,,,,36,45
24120,note_on,2480,0,11,,,,,,,,12,,,,48,45
24120,note_on,2480,0,4,,,,,,,,4,,,,63,45
24120,note_on,20,0,1,,,,,,,,1,,,,60,45
24120,note_on,2480,0,9,,,,,,,,10,,,,63,45
24120,note_on,2480,0,3,,,,,,,,3,,,,67,45
24120,note_on,2480,0,8,,,,,,,,8,,,,67,45
24120,note_on,2480,0,10,,,,,,,,11,,,,60,45
24120,note_on,2480,0,6,,,,,,,,6,,,,48,45
24120,note_on,2480,0,5,,,,,,,,5,,,,60,45
24150,note_on,0,0,5,,,,,,,,5,,,,61,45
24150,note_off,30,0,9,,,,,,,,10,,,,63,64
24150,note_on,0,0,10,,,,,,,,11,,,,61,45
24150,note_off,30,0,10,,,,,,,,11,,,,60,64
24150,note_off,30,0,5,,,,,,,,5,,,,60,64
24150,note_off,30,0,4,,,,,,,,4,,,,63,64
24150,note_on,0,0,9,,,,,,,,10,,,,65,45
24150,note_on,0,0,3,,,,,,,,3,,,,68,45
24150,note_on,0,0,8,,,,,,,,8,,,,68,45
24150,note_on,0,0,4,,,,,,,,4,,,,65,45
24150,note_off,30,0,8,,,,,,,,8,,,,67,64
24150,note_off,30,0,3,,,,,,,,3,,,,67,64
24160,note_on,0,0,2,,,,,,,,2,,,,61,30
24160,note_off,40,0,2,,,,,,,,2,,,,60,64
24160,note_on,0,0,1,,,,,,,,1,,,,61,45
24160,note_off,40,0,1,,,,,,,,1,,,,60,64
24180,note_off,30,0,9,,,,,,,,10,,,,65,64
24180,note_on,0,0,5,,,,,,,,5,,,,60,45
24180,note_on,0,0,4,,,,,,,,4,,,,63,45
24180,note_off,30,0,5,,,,,,,,5,,,,61,64
24180,note_on,0,0,9,,,,,,,,10,,,,63,45
24180,note_off,30,0,8,,,,,,,,8,,,,68,64
24180,note_on,0,0,8,,,,,,,,8,,,,67,45
24180,note_off,30,0,4,,,,,,,,4,,,,65,64
24180,note_off,30,0,10,,,,,,,,11,,,,61,64
24180,note_on,0,0,10,,,,,,,,11,,,,60,45
24180,note_off,30,0,3,,,,,,,,3,,,,68,64
24180,note_on,0,0,3,,,,,,,,3,,,,67,45
24200,note_on,0,0,1,,,,,,,,1,,,,60,45
24200,note_off,80,0,11,,,,,,,,12,,,,48,64
24200,note_off,40,0,1,,,,,,,,1,,,,61,64
24200,note_off,80,0,12,,,,,,,,13,,,,36,64
24200,note_off,80,0,6,,,,,,,,6,,,,48,64
24200,note_on,0,0,2,,,,,,,,2,,,,60,30
24200,note_off,80,0,7,,,,,,,,7,,,,36,64
24200,note_off,40,0,2,,,,,,,,2,,,,61,64
24210,note_off,30,0,3,,,,,,,,3,,,,67,64
24210,note_on,0,0,3,,,,,,,,3,,,,68,45
24210,note_on,0,0,10,,,,,,,,11,,,,61,45
24210,note_off,30,0,4,,,,,,,,4,,,,63,64
24210,note_on,0,0,4,,,,,,,,4,,,,65,45
24210,note_off,30,0,10,,,,,,,,11,,,,60,64
24210,note_on,0,0,8,,,,,,,,8,,,,68,45
24210,note_off,30,0,8,,,,,,,,8,,,,67,64
24210,note_on,0,0,5,,,,,,,,5,,,,61,45
24210,note_on,0,0,9,,,,,,,,10,,,,65,45
24210,note_off,30,0,9,,,,,,,,10,,,,63,64
24210,note_off,30,0,5,,,,,,,,5,,,,60,64
24240,note_off,30,0,4,,,,,,,,4,,,,65,64
24240,note_on,0,0,5,,,,,,,,5,,,,60,45
24240,note_on,0,0,9,,,,,,,,10,,,,63,45
24240,note_on,0,0,4,,,,,,,,4,,,,63,45
24240,note_on,0,0,2,,,,,,,,2,,,,60,30
24240,note_on,0,0,1,,,,,,,,1,,,,60,45
24240,note_off,40,0,1,,,,,,,,1,,,,60,64
24240,note_off,30,0,9,,,,,,,,10,,,,65,64
24240,note_off,40,0,2,,,,,,,,2,,,,60,64
24240,note_on,0,0,10,,,,,,,,11,,,,60,45
24240,note_off,30,0,3,,,,,,,,3,,,,68,64
24240,note_off,30,0,10,,,,,,,,11,,,,61,64
24240,note_on,0,0,8,,,,,,,,8,,,,67,45
24240,note_off,30,0,8,,,,,,,,8,,,,68,64
24240,note_off,30,0,5,,,,,,,,5,,,,61,64
24240,note_on,0,0,3,,,,,,,,3,,,,67,45
24280,note_on,0,0,2,,,,,,,,2,,,,61,30
24280,note_off,40,0,1,,,,,,,,1,,,,60,64
24280,note_off,40,0,2,,,,,,,,2,,,,60,64
24280,note_on,0,0,1,,,,,,,,1,,,,61,45
24320,note_off,80,0,9,,,,,,,,10,,,,63,64
24320,note_off,80,0,5,,,,,,,,5,,,,60,64
24320,note_off,80,0,10,,,,,,,,11,,,,60,64
24320,note_off,40,0,2,,,,,,,,2,,,,61,64
24320,note_off,80,0,4,,,,,,,,4,,,,63,64
24320,note_off,80,0,3,,,,,,,,3,,,,67,64
24320,note_on,0,0,1,,,,,,,,1,,,,60,45
24320,note_off,40,0,1,,,,,,,,1,,,,61,64
24320,note_off,80,0,8,,,,,,,,8,,,,67,64
24320,note_on,0,0,2,,,,,,,,2,,,,60,30
24355,note_off,235,0,13,,,,,,,,14,,,,36,64
24360,note_on,160,0,12,,,,,,,,13,,,,36,45
24360,note_on,0,0,1,,,,,,,,1,,,,61,45
24360,note_off,40,0,1,,,,,,,,1,,,,60,64
24360,note_on,0,0,2,,,,,,,,2,,,,61,30
24360,note_on,160,0,7,,,,,,,,7,,,,36,45
24360,note_off,40,0,2,,,,,,,,2,,,,60,64
24360,note_on,160,0,6,,,,,,,,6,,,,48,45
24360,note_on,40,0,10,,,,,,,,11,,,,60,45
24360,note_on,40,0,3,,,,,,,,3,,,,67,45
24360,note_on,40,0,8,,,,,,,,8,,,,67,45
24360,note_on,40,0,4,,,,,,,,4,,,,63,45
24360,note_on,5,0,13,,,,,,,,14,,,,36,30
24360,note_on,160,0,11,,,,,,,,12,,,,48,45
24360,note_on,40,0,9,,,,,,,,10,,,,63,45
24360,note_on,40,0,5,,,,,,,,5,,,,60,45
24390,note_on,0,0,3,,,,,,,,3,,,,68,45
24390,note_off,30,0,4,,,,,,,,4,,,,63,64
24390,note_off,30,0,10,,,,,,,,11,,,,60,64
24390,note_on,0,0,10,,,,,,,,11,,,,61,45
24390,note_off,30,0,3,,,,,,,,3,,,,67,64
24390,note_on,0,0,9,,,,,,,,10,,,,65,45
24390,note_off,30,0,9,,,,,,,,10,,,,63,64
24390,note_off,30,0,5,,,,,,,,5,,,,60,64
24390,note_on,0,0,8,,,,,,,,8,,,,68,45
24390,note_on,0,0,5,,,,,,,,5,,,,61,45
24390,note_off,30,0,8,,,,,,,,8,,,,67,64
24390,note_on,0,0,4,,,,,,,,4,,,,65,45
24400,note_off,40,0,1,,,,,,,,1,,,,61,64
24400,note_off,40,0,2,,,,,,,,2,,,,61,64
24400,note_on,0,0,1,,,,,,,,1,,,,60,45
24400,note_on,0,0,2,,,,,,,,2,,,,60,30
24420,note_off,30,0,9,,,,,,,,10,,,,65,64
24420,note_off,30,0,3,,,,,,,,3,,,,68,64
24420,note_off,30,0,4,,,,,,,,4,,,,65,64
24420,note_on,0,0,4,,,,,,,,4,,,,63,45
24420,note_on,0,0,3,,,,,,,,3,,,,67,45
24420,note_on,0,0,9,,,,,,,,10,,,,63,45
24420,note_off,30,0,5,,,,,,,,5,,,,61,64
24420,note_off,30,0,10,,,,,,,,11,,,,61,64
24420,note_on,0,0,10,,,,,,,,11,,,,60,45
24420,note_off,30,0,8,,,,,,,,8,,,,68,64
24420,note_on,0,0,8,,,,,,,,8,,,,67,45
24420,note_on,0,0,5,,,,,,,,5,,,,60,45
24440,note_on,0,0,2,,,,,,,,2,,,,61,30
24440,note_off,40,0,2,,,,,,,,2,,,,60,64
24440,note_off,40,0,1,,,,,,,,1,,,,60,64
24440,note_on,0,0,1,,,,,,,,1,,,,61,45
24440,note_off,80,0,11,,,,,,,,12,,,,48,64
24440,note_off,80,0,12,,,,,,,,13,,,,36,64
24440,note_off,80,0,6,,,,,,,,6,,,,48,64
24440,note_off,80,0,7,,,,,,,,7,,,,36,64
24450,note_on,0,0,9,,,,,,,,10,,,,65,45
24450,note_off,30,0,10,,,,,,,,11,,,,60,64
24450,note_on,0,0,10,,,,,,,,11,,,,61,45
24450,note_off,30,0,9,,,,,,,,10,,,,63,64
24450,note_off,30,0,4,,,,,,,,4,,,,63,64
24450,note_on,0,0,3,,,,,,,,3,,,,68,45
24450,note_off,30,0,3,,,,,,,,3,,,,67,64
24450,note_on,0,0,4,,,,,,,,4,,,,65,45
24450,note_off,30,0,8,,,,,,,,8,,,,67,64
24450,note_off,30,0,5,,,,,,,,5,,,,60,64
24450,note_on,0,0,8,,,,,,,,8,,,,68,45
24450,note_on,0,0,5,,,,,,,,5,,,,61,45
24480,note_off,30,0,5,,,,,,,,5,,,,61,64
24480,note_on,0,0,5,,,,,,,,5,,,,60,45
24480,note_off,30,0,8,,,,,,,,8,,,,68,64
24480,note_on,0,0,2,,,,,,,,2,,,,60,30
24480,note_off,40,0,2,,,,,,,,2,,,,61,64
24480,note_on,0,0,8,,,,,,,,8,,,,67,45
24480,note_off,30,0,9,,,,,,,,10,,,,65,64
24480,note_on,0,0,9,,,,,,,,10,,,,63,45
24480,note_on,0,0,10,,,,,,,,11,,,,60,45
24480,note_off,30,0,4,,,,,,,,4,,,,65,64
24480,note_off,30,0,10,,,,,,,,11,,,,61,64
24480,note_on,0,0,3,,,,,,,,3,,,,67,45
24480,note_off,30,0,3,,,,,,,,3,,,,68,64
24480,note_off,40,0,1,,,,,,,,1,,,,61,64
24480,note_on,0,0,1,,,,,,,,1,,,,60,45
24480,note_on,0,0,4,,,,,,,,4,,,,63,45
24520,note_on,0,0,1,,,,,,,,1,,,,61,45
24520,note_off,40,0,2,,,,,,,,2,,,,60,64
24520,note_on,0,0,2,,,,,,,,2,,,,61,30
24520,note_off,40,0,1,,,,,,,,1,,,,60,64
24560,note_off,80,0,10,,,,,,,,11,,,,60,64
24560,note_off,40,0,2,,,,,,,,2,,,,61,64
24560,note_on,0,0,2,,,,,,,,2,,,,60,30
24560,note_off,80,0,5,,,,,,,,5,,,,60,64
24560,note_off,80,0,9,,,,,,,,10,,,,63,64
24560,note_off,40,0,1,,,,,,,,1,,,,61,64
24560,note_on,0,0,1,,,,,,,,1,,,,60,45
24560,note_off,80,0,3,,,,,,,,3,,,,67,64
24560,note_off,80,0,8,,,,,,,,8,,,,67,64
24560,note_off,80,0,4,,,,,,,,4,,,,63,64
24595,note_off,235,0,13,,,,,,,,14,,,,36,64
24600,note_on,160,0,12,,,,,,,,13,,,,36,45
24600,note_on,160,0,6,,,,,,,,6,,,,48,45
24600,note_on,40,0,4,,,,,,,,4,,,,63,45
24600,note_on,40,0,10,,,,,,,,11,,,,60,45
24600,note_on,5,0,13,,,,,,,,14,,,,36,30
24600,note_on,160,0,11,,,,,,,,12,,,,48,45
24600,note_on,40,0,8,,,,,,,,8,,,,67,45
24600,note_on,40,0,9,,,,,,,,10,,,,63,45
24600,note_on,160,0,7,,,,,,,,7,,,,36,45
24600,note_on,0,0,2,,,,,,,,2,,,,60,30
24600,note_off,40,0,2,,,,,,,,2,,,,60,64
24600,note_on,40,0,3,,,,,,,,3,,,,67,45
24600,note_on,40,0,5,,,,,,,,5,,,,60,45
24600,note_on,0,0,1,,,,,,,,1,,,,60,45
24600,note_off,40,0,1,,,,,,,,1,,,,60,64
24630,note_on,0,0,9,,,,,,,,10,,,,65,45
24630,note_off,30,0,4,,,,,,,,4,,,,63,64
24630,note_off,30,0,3,,,,,,,,3,,,,67,64
24630,note_on,0,0,3,,,,,,,,3,,,,68,45
24630,note_on,0,0,10,,,,,,,,11,,,,61,45
24630,note_off,30,0,9,,,,,,,,10,,,,63,64
24630,note_off,30,0,5,,,,,,,,5,,,,60,64
24630,note_on,0,0,5,,,,,,,,5,,,,61,45
24630,note_on,0,0,4,,,,,,,,4,,,,65,45
24630,note_on,0,0,8,,,,,,,,8,,,,68,45
24630,note_off,30,0,8,,,,,,,,8,,,,67,64
24630,note_off,30,0,10,,,,,,,,11,,,,60,64
24640,note_off,40,0,1,,,,,,,,1,,,,60,64
24640,note_on,0,0,1,,,,,,,,1,,,,61,45
24640,note_off,40,0,2,,,,,,,,2,,,,60,64
24640,note_on,0,0,2,,,,,,,,2,,,,61,30
24660,note_on,0,0,10,,,,,,,,11,,,,60,45
24660,note_on,0,0,4,,,,,,,,4,,,,63,45
24660,note_off,30,0,3,,,,,,,,3,,,,68,64
24660,note_on,0,0,5,,,,,,,,5,,,,60,45
24660,note_off,30,0,5,,,,,,,,5,,,,61,64
24660,note_on,0,0,8,,,,,,,,8,,,,67,45
24660,note_off,30,0,8,,,,,,,,8,,,,68,64
24660,note_on,0,0,3,,,,,,,,3,,,,67,45
24660,note_on,0,0,9,,,,,,,,10,,,,63,45
24660,note_off,30,0,10,,,,,,,,11,,,,61,64
24660,note_off,30,0,4,,,,,,,,4,,,,65,64
24660,note_off,30,0,9,,,,,,,,10,,,,65,64
24680,note_off,40,0,1,,,,,,,,1,,,,61,64
24680,note_on,0,0,1,,,,,,,,1,,,,60,45
24680,note_on,0,0,2,,,,,,,,2,,,,60,30
24680,note_off,40,0,2,,,,,,,,2,,,,61,64
24680,note_off,80,0,6,,,,,,,,6,,,,48,64
24680,note_off,80,0,12,,,,,,,,13,,,,36,64
24680,note_off,80,0,7,,,,,,,,7,,,,36,64
24680,note_off,80,0,11,,,,,,,,12,,,,48,64
24690,note_on,0,0,9,,,,,,,,10,,,,65,45
24690,note_off,30,0,4,,,,,,,,4,,,,63,64
24690,note_on,0,0,8,,,,,,,,8,,,,68,45
24690,note_off,30,0,8,,,,,,,,8,,,,67,64
24690,note_off,30,0,3,,,,,,,,3,,,,67,64
24690,note_on,0,0,3,,,,,,,,3,,,,68,45
24690,note_on,0,0,4,,,,,,,,4,,,,65,45
24690,note_off,30,0,9,,,,,,,,10,,,,63,64
24690,note_off,30,0,10,,,,,,,,11,,,,60,64
24690,note_on,0,0,5,,,,,,,,5,,,,61,45
24690,note_on,0,0,10,,,,,,,,11,,,,61,45
24690,note_off,30,0,5,,,,,,,,5,,,,60,64
24720,note_on,0,0,3,,,,,,,,3,,,,67,45
24720,note_on,0,0,9,,,,,,,,10,,,,63,45
24720,note_off,30,0,10,,,,,,,,11,,,,61,64
24720,note_on,0,0,4,,,,,,,,4,,,,63,45
24720,note_on,0,0,8,,,,,,,,8,,,,67,45
24720,note_off,40,0,1,,,,,,,,1,,,,60,64
24720,note_off,30,0,8,,,,,,,,8,,,,68,64
24720,note_on,0,0,2,,,,,,,,2,,,,61,30
24720,note_off,30,0,4,,,,,,,,4,,,,65,64
24720,note_off,30,0,9,,,,,,,,10,,,,65,64
24720,note_on,0,0,10,,,,,,,,11,,,,60,45
24720,note_on,0,0,5,,,,,,,,5,,,,60,45
24720,note_on,0,0,1,,,,,,,,1,,,,61,45
24720,note_off,30,0,5,,,,,,,,5,,,,61,64
24720,note_off,30,0,3,,,,,,,,3,,,,68,64
24720,note_off,40,0,2,,,,,,,,2,,,,60,64
24760,note_off,40,0,1,,,,,,,,1,,,,61,64
24760,note_off,40,0,2,,,,,,,,2,,,,61,64
24760,note_on,0,0,1,,,,,,,,1,,,,60,45
24760,note_on,0,0,2,,,,,,,,2,,,,60,30
24800,note_off,80,0,10,,,,,,,,11,,,,60,64
24800,note_off,80,0,4,,,,,,,,4,,,,63,64
24800,note_off,80,0,3,,,,,,,,3,,,,67,64
24800,note_on,0,0,1,,,,,,,,1,,,,61,45
24800,note_off,40,0,1,,,,,,,,1,,,,60,64
24800,note_off,40,0,2,,,,,,,,2,,,,60,64
24800,note_on,0,0,2,,,,,,,,2,,,,61,30
24800,note_off,80,0,9,,,,,,,,10,,,,63,64
24800,note_off,80,0,5,,,,,,,,5,,,,60,64
24800,note_off,80,0,8,,,,,,,,8,,,,67,64
24835,note_off,235,0,13,,,,,,,,14,,,,36,64
24840,note_on,40,0,9,,,,,,,,10,,,,63,45
24840,note_off,40,0,1,,,,,,,,1,,,,61,64
24840,note_on,40,0,4,,,,,,,,4,,,,63,45
24840,note_on,40,0,8,,,,,,,,8,,,,67,45
24840,note_on,5,0,13,,,,,,,,14,,,,36,30
24840,note_on,160,0,6,,,,,,,,6,,,,48,45
24840,note_on,0,0,1,,,,,,,,1,,,,60,45
24840,note_on,40,0,3,,,,,,,,3,,,,67,45
24840,note_on,160,0,7,,,,,,,,7,,,,36,45
24840,note_on,160,0,11,,,,,,,,12,,,,48,45
24840,note_on,40,0,5,,,,,,,,5,,,,60,45
24840,note_on,0,0,2,,,,,,,,2,,,,60,30
24840,note_off,40,0,2,,,,,,,,2,,,,61,64
24840,note_on,40,0,10,,,,,,,,11,,,,60,45
24840,note_on,160,0,12,,,,,,,,13,,,,36,45
24870,note_on,0,0,5,,,,,,,,5,,,,61,45
24870,note_off,30,0,4,,,,,,,,4,,,,63,64
24870,note_on,0,0,4,,,,,,,,4,,,,65,45
24870,note_off,30,0,8,,,,,,,,8,,,,67,64
24870,note_off,30,0,5,,,,,,,,5,,,,60,64
24870,note_on,0,0,8,,,,,,,,8,,,,68,45
24870,note_on,0,0,3,,,,,,,,3,,,,68,45
24870,note_on,0,0,9,,,,,,,,10,,,,65,45
24870,note_on,0,0,10,,,,,,,,11,,,,61,45
24870,note_off,30,0,10,,,,,,,,11,,,,60,64
24870,note_off,30,0,9,,,,,,,,10,,,,63,64
24870,note_off,30,0,3,,,,,,,,3,,,,67,64
24880,note_off,40,0,1,,,,,,,,1,,,,60,64
24880,note_on,0,0,2,,,,,,,,2,,,,61,30
24880,note_on,0,0,1,,,,,,,,1,,,,61,45
24880,note_off,40,0,2,,,,,,,,2,,,,60,64
24900,note_on,0,0,3,,,,,,,,3,,,,67,45
24900,note_on,0,0,9,,,,,,,,10,,,,63,45
24900,note_off,30,0,9,,,,,,,,10,,,,65,64
24900,note_off,30,0,5,,,,,,,,5,,,,61,64
24900,note_on,0,0,5,,,,,,,,5,,,,60,45
24900,note_off,30,0,8,,,,,,,,8,,,,68,64
24900,note_off,30,0,10,,,,,,,,11,,,,61,64
24900,note_on,0,0,10,,,,,,,,11,,,,60,45
24900,note_off,30,0,4,,,,,,,,4,,,,65,64
24900,note_on,0,0,4,,,,,,,,4,,,,63,45
24900,note_on,0,0,8,,,,,,,,8,,,,67,45
24900,note_off,30,0,3,,,,,,,,3,,,,68,64
24920,note_on,0,0,1,,,,,,,,1,,,,60,45
24920,note_off,80,0,11,,,,,,,,12,,,,48,64
24920,note_off,80,0,7,,,,,,,,7,,,,36,64
24920,note_off,80,0,6,,,,,,,,6,,,,48,64
24920,note_off,40,0,2,,,,,,,,2,,,,61,64
24920,note_off,80,0,12,,,,,,,,13,,,,36,64
24920,note_off,40,0,1,,,,,,,,1,,,,61,64
24920,note_on,0,0,2,,,,,,,,2,,,,60,30
24930,note_on,0,0,9,,,,,,,,10,,,,65,45
24930,note_off,30,0,10,,,,,,,,11,,,,60,64
24930,note_off,30,0,9,,,,,,,,10,,,,63,64
24930,note_on,0,0,10,,,,,,,,11,,,,61,45
24930,note_off,30,0,4,,,,,,,,4,,,,63,64
24930,note_on,0,0,8,,,,,,,,8,,,,68,45
24930,note_off,30,0,8,,,,,,,,8,,,,67,64
24930,note_on,0,0,5,,,,,,,,5,,,,61,45
24930,note_off,30,0,5,,,,,,,,5,,,,60,64
24930,note_on,0,0,3,,,,,,,,3,,,,68,45
24930,note_on,0,0,4,,,,,,,,4,,,,65,45
24930,note_off,30,0,3,,,,,,,,3,,,,67,64
24960,note_off,30,0,3,,,,,,,,3,,,,68,64
24960,note_off,30,0,8,,,,,,,,8,,,,68,64
24960,note_on,0,0,5,,,,,,,,5,,,,60,45
24960,note_off,30,0,5,,,,,,,,5,,,,61,64
24960,note_on,0,0,8,,,,,,,,8,,,,67,45
24960,note_off,40,0,1,,,,,,,,1,,,,60,64
24960,note_on,0,0,1,,,,,,,,1,,,,60,45
24960,note_off,30,0,4,,,,,,,,4,,,,65,64
24960,note_on,0,0,9,,,,,,,,10,,,,63,45
24960,note_on,0,0,3,,,,,,,,3,,,,67,45
24960,note_off,40,0,2,,,,,,,,2,,,,60,64
24960,note_on,0,0,10,,,,,,,,11,,,,60,45
24960,note_off,30,0,10,,,,,,,,11,,,,61,64
24960,note_on,0,0,2,,,,,,,,2,,,,60,30
24960,note_off,30,0,9,,,,,,,,10,,,,65,64
24960,note_on,0,0,4,,,,,,,,4,,,,63,45
25000,note_off,40,0,1,,,,,,,,1,,,,60,64
25000,note_on,0,0,1,,,,,,,,1,,,,61,45
25000,note_off,40,0,2,,,,,,,,2,,,,60,64
25000,note_on,0,0,2,,,,,,,,2,,,,61,30
25040,note_off,80,0,5,,,,,,,,5,,,,60,64
25040,note_on,0,0,1,,,,,,,,1,,,,60,45
25040,note_off,40,0,1,,,,,,,,1,,,,61,64
25040,note_off,40,0,2,,,,,,,,2,,,,61,64
25040,note_on,0,0,2,,,,,,,,2,,,,60,30
25040,note_off,80,0,10,,,,,,,,11,,,,60,64
25040,note_off,80,0,4,,,,,,,,4,,,,63,64
25040,note_off,80,0,9,,,,,,,,10,,,,63,64
25040,note_off,80,0,8,,,,,,,,8,,,,67,64
25040,note_off,80,0,3,,,,,,,,3,,,,67,64
25075,note_off,235,0,13,,,,,,,,14,,,,36,64
25075,note_off,35,0,1,,,,,,,,1,,,,60,64
25075,note_off,35,0,2,,,,,,,,2,,,,60,64
25080,note_on,40,0,3,,,,,,,,3,,,,67,45
25080,note_on,160,0,11,,,,,,,,12,,,,48,45
25080,note_on,160,0,12,,,,,,,,13,,,,36,45
25080,note_on,160,0,7,,,,,,,,7,,,,36,45
25080,note_on,40,0,5,,,,,,,,5,,,,60,45
25080,note_on,40,0,8,,,,,,,,8,,,,67,45
25080,note_on,40,0,4,,,,,,,,4,,,,63,45
25080,note_on,5,0,13,,,,,,,,14,,,,36,30
25080,note_on,160,0,6,,,,,,,,6,,,,48,45
25080,note_on,40,0,9,,,,,,,,10,,,,63,45
25080,note_on,40,0,10,,,,,,,,11,,,,60,45
25110,note_off,30,0,8,,,,,,,,8,,,,67,64
25110,note_off,30,0,3,,,,,,,,3,,,,67,64
25110,note_on,0,0,3,,,,,,,,3,,,,68,45
25110,note_on,0,0,5,,,,,,,,5,,,,61,45
25110,note_on,0,0,8,,,,,,,,8,,,,68,45
25110,note_off,30,0,4,,,,,,,,4,,,,63,64
25110,note_off,30,0,10,,,,,,,,11,,,,60,64
25110,note_on,0,0,10,,,,,,,,11,,,,61,45
25110,note_on,0,0,4,,,,,,,,4,,,,65,45
25110,note_off,30,0,5,,,,,,,,5,,,,60,64
25110,note_on,0,0,9,,,,,,,,10,,,,65,45
25110,note_off,30,0,9,,,,,,,,10,,,,63,64
25140,note_off,30,0,8,,,,,,,,8,,,,68,64
25140,note_off,30,0,3,,,,,,,,3,,,,68,64
25140,note_on,0,0,3,,,,,,,,3,,,,67,45
25140,note_on,0,0,10,,,,,,,,11,,,,60,45
25140,note_off,30,0,5,,,,,,,,5,,,,61,64
25140,note_off,30,0,10,,,,,,,,11,,,,61,64
25140,note_on,0,0,5,,,,,,,,5,,,,60,45
25140,note_on,0,0,4,,,,,,,,4,,,,63,45
25140,note_off,30,0,4,,,,,,,,4,,,,65,64
25140,note_off,30,0,9,,,,,,,,10,,,,65,64
25140,note_on,0,0,9,,,,,,,,10,,,,63,45
25140,note_on,0,0,8,,,,,,,,8,,,,67,45
25160,note_off,80,0,12,,,,,,,,13,,,,36,64
25160,note_off,80,0,6,,,,,,,,6,,,,48,64
25160,note_off,80,0,7,,,,,,,,7,,,,36,64
25160,note_off,80,0,11,,,,,,,,12,,,,48,64
25170,note_off,30,0,3,,,,,,,,3,,,,67,64
25170,note_on,0,0,3,,,,,,,,3,,,,68,45
25170,note_on,0,0,8,,,,,,,,8,,,,68,45
25170,note_on,0,0,10,,,,,,,,11,,,,61,45
25170,note_on,0,0,5,,,,,,,,5,,,,61,45
25170,note_off,30,0,5,,,,,,,,5,,,,60,64
25170,note_on,0,0,4,,,,,,,,4,,,,65,45
25170,note_off,30,0,4,,,,,,,,4,,,,63,64
25170,note_on,0,0,9,,,,,,,,10,,,,65,45
25170,note_off,30,0,9,,,,,,,,10,,,,63,64
25170,note_off,30,0,8,,,,,,,,8,,,,67,64
25170,note_off,30,0,10,,,,,,,,11,,,,60,64
25200,note_on,0,0,5,,,,,,,,5,,,,60,45
25200,note_off,30,0,5,,,,,,,,5,,,,61,64
25200,note_off,30,0,3,,,,,,,,3,,,,68,64
25200,note_on,0,0,3,,,,,,,,3,,,,67,45
25200,note_off,30,0,10,,,,,,,,11,,,,61,64
25200,note_off,30,0,4,,,,,,,,4,,,,65,64
25200,note_on,0,0,4,,,,,,,,4,,,,63,45
25200,note_on,0,0,9,,,,,,,,10,,,,63,45
25200,note_off,30,0,9,,,,,,,,10,,,,65,64
25200,note_on,0,0,8,,,,,,,,8,,,,67,45
25200,note_on,0,0,10,,,,,,,,11,,,,60,45
25200,note_off,30,0,8,,,,,,,,8,,,,68,64
25280,note_off,80,0,8,,,,,,,,8,,,,67,64
25280,note_off,80,0,4,,,,,,,,4,,,,63,64
25280,note_off,80,0,10,,,,,,,,11,,,,60,64
25280,note_off,80,0,5,,,,,,,,5,,,,60,64
25280,note_off,80,0,9,,,,,,,,10,,,,63,64
25280,note_off,80,0,3,,,,,,,,3,,,,67,64
25315,note_off,235,0,13,,,,,,,,14,,,,36,64
25320,note_on,40,0,8,,,,,,,,8,,,,67,45
25320,note_on,160,0,6,,,,,,,,6,,,,48,45
25320,note_on,160,0,12,,,,,,,,13,,,,36,45
25320,note_on,40,0,9,,,,,,,,10,,,,63,45
25320,note_on,160,0,7,,,,,,,,7,,,,36,45
25320,note_on,5,0,13,,,,,,,,14,,,,36,30
25320,note_on,160,0,11,,,,,,,,12,,,,48,45
25320,note_on,40,0,10,,,,,,,,11,,,,60,45
25320,note_on,40,0,5,,,,,,,,5,,,,60,45
25320,note_on,40,0,3,,,,,,,,3,,,,67,45
25320,note_on,40,0,4,,,,,,,,4,,,,63,45
25350,note_off,30,0,4,,,,,,,,4,,,,63,64
25350,note_on,0,0,10,,,,,,,,11,,,,61,45
25350,note_off,30,0,10,,,,,,,,11,,,,60,64
25350,note_off,30,0,5,,,,,,,,5,,,,60,64
25350,note_on,0,0,5,,,,,,,,5,,,,61,45
25350,note_on,0,0,4,,,,,,,,4,,,,65,45
25350,note_on,0,0,9,,,,,,,,10,,,,65,45
25350,note_off,30,0,9,,,,,,,,10,,,,63,64
25350,note_on,0,0,3,,,,,,,,3,,,,68,45
25350,note_off,30,0,8,,,,,,,,8,,,,67,64
25350,note_on,0,0,8,,,,,,,,8,,,,68,45
25350,note_off,30,0,3,,,,,,,,3,,,,67,64
25380,note_on,0,0,8,,,,,,,,8,,,,67,45
25380,note_on,0,0,3,,,,,,,,3,,,,67,45
25380,note_off,30,0,3,,,,,,,,3,,,,68,64
25380,note_on,0,0,4,,,,,,,,4,,,,63,45
25380,note_off,30,0,4,,,,,,,,4,,,,65,64
25380,note_on,0,0,10,,,,,,,,11,,,,60,45
25380,note_off,30,0,8,,,,,,,,8,,,,68,64
25380,note_off,30,0,5,,,,,,,,5,,,,61,64
25380,note_on,0,0,5,,,,,,,,5,,,,60,45
25380,note_on,0,0,9,,,,,,,,10,,,,63,45
25380,note_off,30,0,9,,,,,,,,10,,,,65,64
25380,note_off,30,0,10,,,,,,,,11,,,,61,64
25400,note_off,80,0,12,,,,,,,,13,,,,36,64
25400,note_off,80,0,11,,,,,,,,12,,,,48,64
25400,note_off,80,0,6,,,,,,,,6,,,,48,64
25400,note_off,80,0,7,,,,,,,,7,,,,36,64
25410,note_on,0,0,10,,,,,,,,11,,,,61,45
25410,note_on,0,0,3,,,,,,,,3,,,,68,45
25410,note_off,30,0,3,,,,,,,,3,,,,67,64
25410,note_on,0,0,8,,,,,,,,8,,,,68,45
25410,note_on,0,0,4,,,,,,,,4,,,,65,45
25410,note_off,30,0,4,,,,,,,,4,,,,63,64
25410,note_off,30,0,8,,,,,,,,8,,,,67,64
25410,note_off,30,0,5,,,,,,,,5,,,,60,64
25410,note_on,0,0,9,,,,,,,,10,,,,65,45
25410,note_off,30,0,9,,,,,,,,10,,,,63,64
25410,note_off,30,0,10,,,,,,,,11,,,,60,64
25410,note_on,0,0,5,,,,,,,,5,,,,61,45
25440,note_on,0,0,5,,,,,,,,5,,,,60,45
25440,note_on,0,0,8,,,,,,,,8,,,,67,45
25440,note_off,30,0,9,,,,,,,,10,,,,65,64
25440,note_off,30,0,5,,,,,,,,5,,,,61,64
25440,note_off,30,0,8,,,,,,,,8,,,,68,64
25440,note_on,0,0,9,,,,,,,,10,,,,63,45
25440,note_off,30,0,4,,,,,,,,4,,,,65,64
25440,note_on,0,0,4,,,,,,,,4,,,,63,45
25440,note_off,30,0,3,,,,,,,,3,,,,68,64
25440,note_on,0,0,10,,,,,,,,11,,,,60,45
25440,note_off,30,0,10,,,,,,,,11,,,,61,64
25440,note_on,0,0,3,,,,,,,,3,,,,67,45
25520,note_off,80,0,3,,,,,,,,3,,,,67,64
25520,note_off,80,0,10,,,,,,,,11,,,,60,64
25520,note_off,80,0,9,,,,,,,,10,,,,63,64
25520,note_off,80,0,8,,,,,,,,8,,,,67,64
25520,note_off,80,0,4,,,,,,,,4,,,,63,64
25520,note_off,80,0,5,,,,,,,,5,,,,60,64
25555,note_off,235,0,13,,,,,,,,14,,,,36,64
25560,note_on,40,0,10,,,,,,,,11,,,,60,45
25560,note_on,40,0,4,,,,,,,,4,,,,63,45
25560,note_on,40,0,9,,,,,,,,10,,,,63,45
25560,note_on,160,0,12,,,,,,,,13,,,,36,45
25560,note_on,40,0,8,,,,,,,,8,,,,67,45
25560,note_on,160,0,7,,,,,,,,7,,,,36,45
25560,note_on,160,0,11,,,,,,,,12,,,,48,45
25560,note_on,40,0,3,,,,,,,,3,,,,67,45
25560,note_on,40,0,5,,,,,,,,5,,,,60,45
25560,note_on,160,0,6,,,,,,,,6,,,,48,45
25560,note_on,5,0,13,,,,,,,,14,,,,36,30
25590,note_on,0,0,3,,,,,,,,3,,,,68,45
25590,note_off,30,0,9,,,,,,,,10,,,,63,64
25590,note_on,0,0,9,,,,,,,,10,,,,65,45
25590,note_on,0,0,10,,,,,,,,11,,,,61,45
25590,note_off,30,0,10,,,,,,,,11,,,,60,64
25590,note_off,30,0,3,,,,,,,,3,,,,67,64
25590,note_on,0,0,5,,,,,,,,5,,,,61,45
25590,note_off,30,0,5,,,,,,,,5,,,,60,64
25590,note_off,30,0,8,,,,,,,,8,,,,67,64
25590,note_on,0,0,8,,,,,,,,8,,,,68,45
25590,note_off,30,0,4,,,,,,,,4,,,,63,64
25590,note_on,0,0,4,,,,,,,,4,,,,65,45
25620,note_off,30,0,8,,,,,,,,8,,,,68,64
25620,note_off,30,0,10,,,,,,,,11,,,,61,64
25620,note_off,30,0,4,,,,,,,,4,,,,65,64
25620,note_off,30,0,5,,,,,,,,5,,,,61,64
25620,note_on,0,0,5,,,,,,,,5,,,,60,45
25620,note_on,0,0,3,,,,,,,,3,,,,67,45
25620,note_off,30,0,3,,,,,,,,3,,,,68,64
25620,note_on,0,0,10,,,,,,,,11,,,,60,45
25620,note_off,30,0,9,,,,,,,,10,,,,65,64
25620,note_on,0,0,9,,,,,,,,10,,,,63,45
25620,note_on,0,0,4,,,,,,,,4,,,,63,45
25620,note_on,0,0,8,,,,,,,,8,,,,67,45
25640,note_off,80,0,11,,,,,,,,12,,,,48,64
25640,note_off,80,0,7,,,,,,,,7,,,,36,64
25640,note_off,80,0,12,,,,,,,,13,,,,36,64
25640,note_off,80,0,6,,,,,,,,6,,,,48,64
25650,note_on,0,0,8,,,,,,,,8,,,,68,45
25650,note_on,0,0,4,,,,,,,,4,,,,65,45
25650,note_off,30,0,4,,,,,,,,4,,,,63,64
25650,note_off,30,0,5,,,,,,,,5,,,,60,64
25650,note_on,0,0,9,,,,,,,,10,,,,65,45
25650,note_off,30,0,10,,,,,,,,11,,,,60,64
25650,note_off,30,0,8,,,,,,,,8,,,,67,64
25650,note_on,0,0,10,,,,,,,,11,,,,61,45
25650,note_off,30,0,9,,,,,,,,10,,,,63,64
25650,note_off,30,0,3,,,,,,,,3,,,,67,64
25650,note_on,0,0,3,,,,,,,,3,,,,68,45
25650,note_on,0,0,5,,,,,,,,5,,,,61,45
25680,note_on,0,0,9,,,,,,,,10,,,,63,45
25680,note_on,0,0,10,,,,,,,,11,,,,60,45
25680,note_off,30,0,10,,,,,,,,11,,,,61,64
25680,note_off,30,0,5,,,,,,,,5,,,,61,64
25680,note_on,0,0,8,,,,,,,,8,,,,67,45
25680,note_on,0,0,3,,,,,,,,3,,,,67,45
25680,note_on,0,0,5,,,,,,,,5,,,,60,45
25680,note_off,30,0,8,,,,,,,,8,,,,68,64
25680,note_on,0,0,4,,,,,,,,4,,,,63,45
25680,note_off,30,0,4,,,,,,,,4,,,,65,64
25680,note_off,30,0,3,,,,,,,,3,,,,68,64
25680,note_off,30,0,9,,,,,,,,10,,,,65,64
25760,note_off,80,0,8,,,,,,,,8,,,,67,64
25760,note_off,80,0,3,,,,,,,,3,,,,67,64
25760,note_off,80,0,4,,,,,,,,4,,,,63,64
25760,note_off,80,0,9,,,,,,,,10,,,,63,64
25760,note_off,80,0,5,,,,,,,,5,,,,60,64
25760,note_off,80,0,10,,,,,,,,11,,,,60,64
25795,note_off,235,0,13,,,,,,,,14,,,,36,64
25800,note_on,160,0,12,,,,,,,,13,,,,36,45
25800,note_on,40,0,3,,,,,,,,3,,,,67,45
25800,note_on,160,0,7,,,,,,,,7,,,,36,45
25800,note_on,40,0,8,,,,,,,,8,,,,67,45
25800,note_on,160,0,11,,,,,,,,12,,,,48,45
25800,note_on,5,0,13,,,,,,,,14,,,,36,30
25800,note_on,40,0,5,,,,,,,,5,,,,60,45
25800,note_on,160,0,6,,,,,,,,6,,,,48,45
25800,note_on,40,0,9,,,,,,,,10,,,,63,45
25800,note_on,40,0,10,,,,,,,,11,,,,60,45
25800,note_on,40,0,4,,,,,,,,4,,,,63,45
25830,note_off,30,0,5,,,,,,,,5,,,,60,64
25830,note_on,0,0,9,,,,,,,,10,,,,65,45
25830,note_off,30,0,8,,,,,,,,8,,,,67,64
25830,note_off,30,0,9,,,,,,,,10,,,,63,64
25830,note_off,30,0,4,,,,,,,,4,,,,63,64
25830,note_on,0,0,8,,,,,,,,8,,,,68,45
25830,note_on,0,0,4,,,,,,,,4,,,,65,45
25830,note_on,0,0,5,,,,,,,,5,,,,61,45
25830,note_off,30,0,10,,,,,,,,11,,,,60,64
25830,note_on,0,0,10,,,,,,,,11,,,,61,45
25830,note_on,0,0,3,,,,,,,,3,,,,68,45
25830,note_off,30,0,3,,,,,,,,3,,,,67,64
25860,note_off,30,0,9,,,,,,,,10,,,,65,64
25860,note_off,30,0,5,,,,,,,,5,,,,61,64
25860,note_on,0,0,9,,,,,,,,10,,,,63,45
25860,note_on,0,0,5,,,,,,,,5,,,,60,45
25860,note_off,30,0,3,,,,,,,,3,,,,68,64
25860,note_off,30,0,10,,,,,,,,11,,,,61,64
25860,note_on,0,0,3,,,,,,,,3,,,,67,45
25860,note_on,0,0,4,,,,,,,,4,,,,63,45
25860,note_off,30,0,8,,,,,,,,8,,,,68,64
25860,note_on,0,0,10,,,,,,,,11,,,,60,45
25860,note_off,30,0,4,,,,,,,,4,,,,65,64
25860,note_on,0,0,8,,,,,,,,8,,,,67,45
25880,note_off,80,0,6,,,,,,,,6,,,,48,64
25880,note_off,80,0,11,,,,,,,,12,,,,48,64
25880,note_off,80,0,12,,,,,,,,13,,,,36,64
25880,note_off,80,0,7,,,,,,,,7,,,,36,64
25890,note_on,0,0,9,,,,,,,,10,,,,65,45
25890,note_on,0,0,4,,,,,,,,4,,,,65,45
25890,note_off,30,0,4,,,,,,,,4,,,,63,64
25890,note_off,30,0,5,,,,,,,,5,,,,60,64
25890,note_on,0,0,5,,,,,,,,5,,,,61,45
25890,note_off,30,0,3,,,,,,,,3,,,,67,64
25890,note_on,0,0,3,,,,,,,,3,,,,68,45
25890,note_off,30,0,9,,,,,,,,10,,,,63,64
25890,note_on,0,0,10,,,,,,,,11,,,,61,45
25890,note_on,0,0,8,,,,,,,,8,,,,68,45
25890,note_off,30,0,8,,,,,,,,8,,,,67,64
25890,note_off,30,0,10,,,,,,,,11,,,,60,64
25920,note_on,0,0,10,,,,,,,,11,,,,60,45
25920,note_off,30,0,10,,,,,,,,11,,,,61,64
25920,note_on,0,0,3,,,,,,,,3,,,,67,45
25920,note_off,30,0,3,,,,,,,,3,,,,68,64
25920,note_on,0,0,4,,,,,,,,4,,,,63,45
25920,note_off,30,0,4,,,,,,,,4,,,,65,64
25920,note_on,0,0,5,,,,,,,,5,,,,60,45
25920,note_off,30,0,5,,,,,,,,5,,,,61,64
25920,note_on,0,0,8,,,,,,,,8,,,,67,45
25920,note_on,0,0,9,,,,,,,,10,,,,63,45
25920,note_off,30,0,9,,,,,,,,10,,,,65,64
25920,note_off,30,0,8,,,,,,,,8,,,,68,64
26000,note_off,80,0,3,,,,,,,,3,,,,67,64
26000,note_off,80,0,4,,,,,,,,4,,,,63,64
26000,note_off,80,0,8,,,,,,,,8,,,,67,64
26000,note_off,80,0,10,,,,,,,,11,,,,60,64
26000,note_off,80,0,5,,,,,,,,5,,,,60,64
26000,note_off,80,0,9,,,,,,,,10,,,,63,64
26035,note_off,235,0,13,,,,,,,,14,,,,36,64
26040,note_on,160,0,11,,,,,,,,12,,,,48,45
26040,note_on,160,0,7,,,,,,,,7,,,,36,45
26040,note_on,160,0,6,,,,,,,,6,,,,48,45
26040,note_on,965,0,2,,,,,,,,2,,,,75,60
26040,note_on,40,0,4,,,,,,,,4,,,,63,45
26040,note_on,40,0,3,,,,,,,,3,,,,67,45
26040,note_on,965,0,1,,,,,,,,1,,,,75,75
26040,note_on,40,0,9,,,,,,,,10,,,,63,45
26040,note_on,40,0,5,,,,,,,,5,,,,60,45
26040,note_on,160,0,12,,,,,,,,13,,,,36,45
26040,note_on,5,0,13,,,,,,,,14,,,,36,30
26040,note_on,40,0,8,,,,,,,,8,,,,67,45
26040,note_on,40,0,10,,,,,,,,11,,,,60,45
26080,note_off,40,0,1,,,,,,,,1,,,,75,64
26080,note_off,40,0,2,,,,,,,,2,,,,75,64
26100,note_on,20,0,1,,,,,,,,1,,,,87,75
26100,note_on,20,0,2,,,,,,,,2,,,,87,60
26140,note_off,40,0,2,,,,,,,,2,,,,87,64
26140,note_off,40,0,1,,,,,,,,1,,,,87,64
26160,note_on,20,0,1,,,,,,,,1,,,,87,75
26160,note_on,20,0,2,,,,,,,,2,,,,87,60
26200,note_off,40,0,1,,,,,,,,1,,,,87,64
26200,note_off,40,0,2,,,,,,,,2,,,,87,64
26220,note_on,20,0,2,,,,,,,,2,,,,84,60
26220,note_on,20,0,1,,,,,,,,1,,,,84,75
26260,note_off,40,0,2,,,,,,,,2,,,,84,64
26260,note_off,40,0,1,,,,,,,,1,,,,84,64
26280,note_on,20,0,2,,,,,,,,2,,,,84,60
26280,note_on,20,0,1,,,,,,,,1,,,,84,75
26320,note_off,40,0,2,,,,,,,,2,,,,84,64
26320,note_off,40,0,1,,,,,,,,1,,,,84,64
26340,note_on,20,0,2,,,,,,,,2,,,,79,60
26340,note_on,20,0,1,,,,,,,,1,,,,79,75
26380,note_off,40,0,2,,,,,,,,2,,,,79,64
26380,note_off,40,0,1,,,,,,,,1,,,,79,64
26400,note_on,20,0,2,,,,,,,,2,,,,79,60
26400,note_on,20,0,1,,,,,,,,1,,,,79,75
26440,note_off,40,0,1,,,,,,,,1,,,,79,64
26440,note_off,40,0,2,,,,,,,,2,,,,79,64
26440,note_off,400,0,4,,,,,,,,4,,,,63,64
26440,note_off,400,0,7,,,,,,,,7,,,,36,64
26440,note_off,400,0,10,,,,,,,,11,,,,60,64
26440,note_off,400,0,8,,,,,,,,8,,,,67,64
26440,note_off,400,0,5,,,,,,,,5,,,,60,64
26440,note_off,400,0,11,,,,,,,,12,,,,48,64
26440,note_off,400,0,13,,,,,,,,14,,,,36,64
26440,note_off,400,0,12,,,,,,,,13,,,,36,64
26440,note_off,400,0,3,,,,,,,,3,,,,67,64
26440,note_off,400,0,6,,,,,,,,6,,,,48,64
26440,note_off,400,0,9,,,,,,,,10,,,,63,64
26460,note_on,20,0,2,,,,,,,,2,,,,75,60
26460,note_on,20,0,1,,,,,,,,1,,,,75,75
26500,note_off,40,0,2,,,,,,,,2,,,,75,64
26500,note_off,40,0,1,,,,,,,,1,,,,75,64
26520,note_on,20,0,2,,,,,,,,2,,,,75,60
26520,note_on,20,0,1,,,,,,,,1,,,,75,75
26560,note_off,40,0,2,,,,,,,,2,,,,75,64
26560,note_off,40,0,1,,,,,,,,1,,,,75,64
26580,note_on,20,0,1,,,,,,,,1,,,,87,75
26580,note_on,20,0,2,,,,,,,,2,,,,87,60
26620,note_off,40,0,2,,,,,,,,2,,,,87,64
26620,note_off,40,0,1,,,,,,,,1,,,,87,64
26640,note_on,20,0,1,,,,,,,,1,,,,87,75
26640,note_on,20,0,2,,,,,,,,2,,,,87,60
26680,note_off,40,0,2,,,,,,,,2,,,,87,64
26680,note_off,40,0,1,,,,,,,,1,,,,87,64
26700,note_on,20,0,1,,,,,,,,1,,,,84,75
26700,note_on,20,0,2,,,,,,,,2,,,,84,60
26740,note_off,40,0,2,,,,,,,,2,,,,84,64
26740,note_off,40,0,1,,,,,,,,1,,,,84,64
26760,note_on,20,0,1,,,,,,,,1,,,,84,75
26760,note_on,20,0,2,,,,,,,,2,,,,84,60
26800,note_off,40,0,2,,,,,,,,2,,,,84,64
26800,note_off,40,0,1,,,,,,,,1,,,,84,64
26820,note_on,20,0,1,,,,,,,,1,,,,79,75
26820,note_on,20,0,2,,,,,,,,2,,,,79,60
26860,note_off,40,0,1,,,,,,,,1,,,,79,64
26860,note_off,40,0,2,,,,,,,,2,,,,79,64
26880,note_on,20,0,1,,,,,,,,1,,,,79,75
26880,note_on,20,0,2,,,,,,,,2,,,,79,60
26920,note_off,40,0,1,,,,,,,,1,,,,79,64
26920,note_off,40,0,2,,,,,,,,2,,,,79,64
26940,note_on,20,0,2,,,,,,,,2,,,,75,60
26940,note_on,20,0,1,,,,,,,,1,,,,75,75
26980,note_off,40,0,2,,,,,,,,2,,,,75,64
26980,note_off,40,0,1,,,,,,,,1,,,,75,64
27000,note_on,20,0,2,,,,,,,,2,,,,75,60
27000,note_on,20,0,1,,,,,,,,1,,,,75,75
27040,note_off,40,0,2,,,,,,,,2,,,,75,64
27040,note_off,40,0,1,,,,,,,,1,,,,75,64
27060,note_on,20,0,2,,,,,,,,2,,,,87,60
27060,note_on,20,0,1,,,,,,,,1,,,,87,75
27100,note_off,40,0,1,,,,,,,,1,,,,87,64
27100,note_off,40,0,2,,,,,,,,2,,,,87,64
27120,note_on,20,0,1,,,,,,,,1,,,,86,75
27120,note_on,20,0,2,,,,,,,,2,,,,86,60
27160,note_off,40,0,1,,,,,,,,1,,,,86,64
27160,note_off,40,0,2,,,,,,,,2,,,,86,64
27180,note_on,20,0,1,,,,,,,,1,,,,84,75
27180,note_on,20,0,2,,,,,,,,2,,,,84,60
27220,note_off,40,0,1,,,,,,,,1,,,,84,64
27220,note_off,40,0,2,,,,,,,,2,,,,84,64
27240,note_on,20,0,1,,,,,,,,1,,,,83,75
27240,note_on,20,0,2,,,,,,,,2,,,,83,60
27280,note_off,40,0,1,,,,,,,,1,,,,83,64
27280,note_off,40,0,2,,,,,,,,2,,,,83,64
27300,note_on,20,0,1,,,,,,,,1,,,,81,75
27300,note_on,20,0,2,,,,,,,,2,,,,81,60
27340,note_off,40,0,2,,,,,,,,2,,,,81,64
27340,note_off,40,0,1,,,,,,,,1,,,,81,64
27360,note_on,20,0,2,,,,,,,,2,,,,79,60
27360,note_on,20,0,1,,,,,,,,1,,,,79,75
27400,note_off,40,0,2,,,,,,,,2,,,,79,64
27400,note_off,40,0,1,,,,,,,,1,,,,79,64
27420,note_on,20,0,2,,,,,,,,2,,,,77,60
27420,note_on,20,0,1,,,,,,,,1,,,,77,75
27460,note_off,40,0,2,,,,,,,,2,,,,77,64
27460,note_off,40,0,1,,,,,,,,1,,,,77,64
27480,note_on,20,0,2,,,,,,,,2,,,,75,60
27480,note_on,20,0,1,,,,,,,,1,,,,75,75
27520,note_off,40,0,2,,,,,,,,2,,,,75,64
27520,note_off,40,0,1,,,,,,,,1,,,,75,64
27540,note_on,20,0,2,,,,,,,,2,,,,87,60
27540,note_on,20,0,1,,,,,,,,1,,,,87,75
27580,note_off,40,0,1,,,,,,,,1,,,,87,64
27580,note_off,40,0,2,,,,,,,,2,,,,87,64
27600,note_on,20,0,2,,,,,,,,2,,,,86,60
27600,note_on,20,0,1,,,,,,,,1,,,,86,75
27640,note_off,40,0,1,,,,,,,,1,,,,86,64
27640,note_off,40,0,2,,,,,,,,2,,,,86,64
27660,note_on,20,0,1,,,,,,,,1,,,,84,75
27660,note_on,20,0,2,,,,,,,,2,,,,84,60
27700,note_off,40,0,1,,,,,,,,1,,,,84,64
27700,note_off,40,0,2,,,,,,,,2,,,,84,64
27720,note_on,20,0,2,,,,,,,,2,,,,83,60
27720,note_on,20,0,1,,,,,,,,1,,,,83,75
27760,note_off,40,0,2,,,,,,,,2,,,,83,64
27760,note_off,40,0,1,,,,,,,,1,,,,83,64
27780,note_on,20,0,1,,,,,,,,1,,,,81,75
27780,note_on,20,0,2,,,,,,,,2,,,,81,60
27820,note_off,40,0,1,,,,,,,,1,,,,81,64
27820,note_off,40,0,2,,,,,,,,2,,,,81,64
27840,note_on,20,0,2,,,,,,,,2,,,,79,60
27840,note_on,20,0,1,,,,,,,,1,,,,79,75
27880,note_off,40,0,1,,,,,,,,1,,,,79,64
27880,note_off,40,0,2,,,,,,,,2,,,,79,64
27900,note_on,20,0,2,,,,,,,,2,,,,77,60
27900,note_on,20,0,1,,,,,,,,1,,,,77,75
27940,note_off,40,0,1,,,,,,,,1,,,,77,64
27940,note_off,40,0,2,,,,,,,,2,,,,77,64
27960,note_on,20,0,1,,,,,,,,1,,,,75,75
27960,note_on,20,0,2,,,,,,,,2,,,,75,60
28000,note_off,40,0,2,,,,,,,,2,,,,75,64
28000,note_off,40,0,1,,,,,,,,1,,,,75,64
28020,note_on,20,0,2,,,,,,,,2,,,,72,60
28020,note_on,20,0,1,,,,,,,,1,,,,72,75
28060,note_off,40,0,2,,,,,,,,2,,,,72,64
28060,note_off,40,0,1,,,,,,,,1,,,,72,64
28080,note_on,20,0,1,,,,,,,,1,,,,75,75
28080,note_on,20,0,2,,,,,,,,2,,,,75,60
28120,note_off,40,0,1,,,,,,,,1,,,,75,64
28120,note_off,40,0,2,,,,,,,,2,,,,75,64
28140,note_on,20,0,1,,,,,,,,1,,,,79,75
28140,note_on,20,0,2,,,,,,,,2,,,,79,60
28180,note_off,40,0,1,,,,,,,,1,,,,79,64
28180,note_off,40,0,2,,,,,,,,2,,,,79,64
28200,note_on,20,0,1,,,,,,,,1,,,,75,75
28200,note_on,20,0,2,,,,,,,,2,,,,75,60
28240,note_off,40,0,2,,,,,,,,2,,,,75,64
28240,note_off,40,0,1,,,,,,,,1,,,,75,64
28260,note_on,20,0,1,,,,,,,,1,,,,72,75
28260,note_on,20,0,2,,,,,,,,2,,,,72,60
28300,note_off,40,0,1,,,,,,,,1,,,,72,64
28300,note_off,40,0,2,,,,,,,,2,,,,72,64
28320,note_on,20,0,2,,,,,,,,2,,,,75,60
28320,note_on,20,0,1,,,,,,,,1,,,,75,75
28360,note_off,40,0,1,,,,,,,,1,,,,75,64
28360,note_off,40,0,2,,,,,,,,2,,,,75,64
28380,note_on,20,0,1,,,,,,,,1,,,,79,75
28380,note_on,20,0,2,,,,,,,,2,,,,79,60
28420,note_off,40,0,1,,,,,,,,1,,,,79,64
28420,note_off,40,0,2,,,,,,,,2,,,,79,64
28440,note_on,20,0,2,,,,,,,,2,,,,75,60
28440,note_on,20,0,1,,,,,,,,1,,,,75,75
28480,note_off,40,0,1,,,,,,,,1,,,,75,64
28480,note_off,40,0,2,,,,,,,,2,,,,75,64
28500,note_on,20,0,2,,,,,,,,2,,,,72,57
28500,note_on,20,0,1,,,,,,,,1,,,,72,72
28540,note_off,40,0,2,,,,,,,,2,,,,72,64
28540,note_off,40,0,1,,,,,,,,1,,,,72,64
28560,note_on,20,0,1,,,,,,,,1,,,,75,69
28560,note_on,20,0,2,,,,,,,,2,,,,75,54
28600,note_off,40,0,2,,,,,,,,2,,,,75,64
28600,note_off,40,0,1,,,,,,,,1,,,,75,64
28620,note_on,20,0,2,,,,,,,,2,,,,79,50
28620,note_on,20,0,1,,,,,,,,1,,,,79,65
28660,note_off,40,0,2,,,,,,,,2,,,,79,64
28660,note_off,40,0,1,,,,,,,,1,,,,79,64
28680,note_on,20,0,2,,,,,,,,2,,,,75,46
28680,note_on,20,0,1,,,,,,,,1,,,,75,61
28720,note_off,40,0,2,,,,,,,,2,,,,75,64
28720,note_off,40,0,1,,,,,,,,1,,,,75,64
28740,note_on,20,0,2,,,,,,,,2,,,,72,42
28740,note_on,20,0,1,,,,,,,,1,,,,72,57
28780,note_off,40,0,1,,,,,,,,1,,,,72,64
28780,note_off,40,0,2,,,,,,,,2,,,,72,64
28800,note_on,20,0,2,,,,,,,,2,,,,75,38
28800,note_on,20,0,1,,,,,,,,1,,,,75,53
28840,note_off,40,0,2,,,,,,,,2,,,,75,64
28840,note_off,40,0,1,,,,,,,,1,,,,75,64
28860,note_on,20,0,2,,,,,,,,2,,,,79,34
28860,note_on,20,0,1,,,,,,,,1,,,,79,49
28900,note_off,40,0,2,,,,,,,,2,,,,79,64
28900,note_off,40,0,1,,,,,,,,1,,,,79,64
28920,note_on,2480,0,9,,,,,,,,10,,,,63,45
28920,note_on,2480,0,4,,,,,,,,4,,,,63,45
28920,note_on,2480,0,3,,,,,,,,3,,,,67,45
28920,note_on,2480,0,13,,,,,,,,14,,,,36,30
28920,note_on,20,0,2,,,,,,,,2,,,,63,30
28920,note_on,2480,0,5,,,,,,,,5,,,,60,45
28920,note_on,2480,0,7,,,,,,,,7,,,,36,45
28920,note_on,2480,0,12,,,,,,,,13,,,,36,45
28920,note_on,20,0,1,,,,,,,,1,,,,63,45
28920,note_on,2480,0,8,,,,,,,,8,,,,67,45
28920,note_on,2480,0,6,,,,,,,,6,,,,48,45
28920,note_on,2480,0,10,,,,,,,,11,,,,60,45
28920,note_on,2480,0,11,,,,,,,,12,,,,48,45
28950,note_off,30,0,5,,,,,,,,5,,,,60,64
28950,note_on,0,0,5,,,,,,,,5,,,,61,45
28950,note_on,0,0,10,,,,,,,,11,,,,61,45
28950,note_on,0,0,9,,,,,,,,10,,,,65,45
28950,note_off,30,0,8,,,,,,,,8,,,,67,64
28950,note_off,30,0,10,,,,,,,,11,,,,60,64
28950,note_on,0,0,3,,,,,,,,3,,,,68,45
28950,note_off,30,0,4,,,,,,,,4,,,,63,64
28950,note_on,0,0,4,,,,,,,,4,,,,65,45
28950,note_off,30,0,3,,,,,,,,3,,,,67,64
28950,note_off,30,0,9,,,,,,,,10,,,,63,64
28950,note_on,0,0,8,,,,,,,,8,,,,68,45
28960,note_off,40,0,1,,,,,,,,1,,,,63,64
28960,note_on,0,0,2,,,,,,,,2,,,,65,30
28960,note_on,0,0,1,,,,,,,,1,,,,65,45
28960,note_off,40,0,2,,,,,,,,2,,,,63,64
28980,note_off,30,0,10,,,,,,,,11,,,,61,64
28980,note_on,0,0,10,,,,,,,,11,,,,60,45
28980,note_off,30,0,9,,,,,,,,10,,,,65,64
28980,note_on,0,0,9,,,,,,,,10,,,,63,45
28980,note_on,0,0,5,,,,,,,,5,,,,60,45
28980,note_on,0,0,3,,,,,,,,3,,,,67,45
28980,note_off,30,0,3,,,,,,,,3,,,,68,64
28980,note_off,30,0,4,,,,,,,,4,,,,65,64
28980,note_on,0,0,4,,,,,,,,4,,,,63,45
28980,note_on,0,0,8,,,,,,,,8,,,,67,45
28980,note_off,30,0,8,,,,,,,,8,,,,68,64
28980,note_off,30,0,5,,,,,,,,5,,,,61,64
29000,note_off,80,0,11,,,,,,,,12,,,,48,64
29000,note_off,80,0,12,,,,,,,,13,,,,36,64
29000,note_off,40,0,2,,,,,,,,2,,,,65,64
29000,note_off,80,0,7,,,,,,,,7,,,,36,64
29000,note_off,40,0,1,,,,,,,,1,,,,65,64
29000,note_on,0,0,1,,,,,,,,1,,,,63,45
29000,note_off,80,0,6,,,,,,,,6,,,,48,64
29000,note_on,0,0,2,,,,,,,,2,,,,63,30
29010,note_off,30,0,3,,,,,,,,3,,,,67,64
29010,note_on,0,0,8,,,,,,,,8,,,,68,45
29010,note_on,0,0,5,,,,,,,,5,,,,61,45
29010,note_on,0,0,10,,,,,,,,11,,,,61,45
29010,note_on,0,0,9,,,,,,,,10,,,,65,45
29010,note_on,0,0,3,,,,,,,,3,,,,68,45
29010,note_off,30,0,10,,,,,,,,11,,,,60,64
29010,note_off,30,0,4,,,,,,,,4,,,,63,64
29010,note_on,0,0,4,,,,,,,,4,,,,65,45
29010,note_off,30,0,8,,,,,,,,8,,,,67,64
29010,note_off,30,0,5,,,,,,,,5,,,,60,64
29010,note_off,30,0,9,,,,,,,,10,,,,63,64
29040,note_off,40,0,1,,,,,,,,1,,,,63,64
29040,note_on,0,0,1,,,,,,,,1,,,,65,45
29040,note_off,30,0,4,,,,,,,,4,,,,65,64
29040,note_on,0,0,8,,,,,,,,8,,,,67,45
29040,note_off,30,0,3,,,,,,,,3,,,,68,64
29040,note_on,0,0,5,,,,,,,,5,,,,60,45
29040,note_off,30,0,8,,,,,,,,8,,,,68,64
29040,note_on,0,0,4,,,,,,,,4,,,,63,45
29040,note_off,40,0,2,,,,,,,,2,,,,63,64
29040,note_on,0,0,2,,,,,,,,2,,,,65,30
29040,note_off,30,0,5,,,,,,,,5,,,,61,64
29040,note_off,30,0,9,,,,,,,,10,,,,65,64
29040,note_on,0,0,9,,,,,,,,10,,,,63,45
29040,note_on,0,0,10,,,,,,,,11,,,,60,45
29040,note_off,30,0,10,,,,,,,,11,,,,61,64
29040,note_on,0,0,3,,,,,,,,3,,,,67,45
29080,note_off,40,0,2,,,,,,,,2,,,,65,64
29080,note_on,0,0,2,,,,,,,,2,,,,63,30
29080,note_off,40,0,1,,,,,,,,1,,,,65,64
29080,note_on,0,0,1,,,,,,,,1,,,,63,45
29120,note_off,80,0,8,,,,,,,,8,,,,67,64
29120,note_off,80,0,9,,,,,,,,10,,,,63,64
29120,note_off,40,0,1,,,,,,,,1,,,,63,64
29120,note_off,80,0,3,,,,,,,,3,,,,67,64
29120,note_off,80,0,4,,,,,,,,4,,,,63,64
29120,note_on,0,0,1,,,,,,,,1,,,,65,45
29120,note_off,80,0,5,,,,,,,,5,,,,60,64
29120,note_on,0,0,2,,,,,,,,2,,,,65,30
29120,note_off,40,0,2,,,,,,,,2,,,,63,64
29120,note_off,80,0,10,,,,,,,,11,,,,60,64
29155,note_off,235,0,13,,,,,,,,14,,,,36,64
29160,note_on,0,0,2,,,,,,,,2,,,,63,30
29160,note_on,5,0,13,,,,,,,,14,,,,36,30
29160,note_off,40,0,2,,,,,,,,2,,,,65,64
29160,note_on,40,0,10,,,,,,,,11,,,,60,45
29160,note_on,40,0,4,,,,,,,,4,,,,63,45
29160,note_on,160,0,6,,,,,,,,6,,,,48,45
29160,note_on,160,0,11,,,,,,,,12,,,,48,45
29160,note_on,160,0,12,,,,,,,,13,,,,36,45
29160,note_on,160,0,7,,,,,,,,7,,,,36,45
29160,note_on,40,0,8,,,,,,,,8,,,,67,45
29160,note_on,40,0,5,,,,,,,,5,,,,60,45
29160,note_on,0,0,1,,,,,,,,1,,,,63,45
29160,note_off,40,0,1,,,,,,,,1,,,,65,64
29160,note_on,40,0,9,,,,,,,,10,,,,63,45
29160,note_on,40,0,3,,,,,,,,3,,,,67,45
29190,note_off,30,0,4,,,,,,,,4,,,,63,64
29190,note_off,30,0,9,,,,,,,,10,,,,63,64
29190,note_off,30,0,3,,,,,,,,3,,,,67,64
29190,note_on,0,0,4,,,,,,,,4,,,,65,45
29190,note_on,0,0,3,,,,,,,,3,,,,68,45
29190,note_on,0,0,9,,,,,,,,10,,,,65,45
29190,note_on,0,0,10,,,,,,,,11,,,,61,45
29190,note_off,30,0,5,,,,,,,,5,,,,60,64
29190,note_on,0,0,5,,,,,,,,5,,,,61,45
29190,note_on,0,0,8,,,,,,,,8,,,,68,45
29190,note_off,30,0,8,,,,,,,,8,,,,67,64
29190,note_off,30,0,10,,,,,,,,11,,,,60,64
29200,note_off,40,0,1,,,,,,,,1,,,,63,64
29200,note_on,0,0,1,,,,,,,,1,,,,65,45
29200,note_on,0,0,2,,,,,,,,2,,,,65,30
29200,note_off,40,0,2,,,,,,,,2,,,,63,64
29220,note_on,0,0,3,,,,,,,,3,,,,67,45
29220,note_off,30,0,3,,,,,,,,3,,,,68,64
29220,note_on,0,0,5,,,,,,,,5,,,,60,45
29220,note_off,30,0,5,,,,,,,,5,,,,61,64
29220,note_on,0,0,8,,,,,,,,8,,,,67,45
29220,note_off,30,0,9,,,,,,,,10,,,,65,64
29220,note_on,0,0,9,,,,,,,,10,,,,63,45
29220,note_off,30,0,8,,,,,,,,8,,,,68,64
29220,note_on,0,0,10,,,,,,,,11,,,,60,45
29220,note_off,30,0,10,,,,,,,,11,,,,61,64
29220,note_off,30,0,4,,,,,,,,4,,,,65,64
29220,note_on,0,0,4,,,,,,,,4,,,,63,45
29240,note_off,80,0,11,,,,,,,,12,,,,48,64
29240,note_off,80,0,6,,,,,,,,6,,,,48,64
29240,note_off,80,0,7,,,,,,,,7,,,,36,64
29240,note_off,80,0,12,,,,,,,,13,,,,36,64
29240,note_on,0,0,2,,,,,,,,2,,,,63,30
29240,note_off,40,0,1,,,,,,,,1,,,,65,64
29240,note_on,0,0,1,,,,,,,,1,,,,63,45
29240,note_off,40,0,2,,,,,,,,2,,,,65,64
29250,note_off,30,0,5,,,,,,,,5,,,,60,64
29250,note_off,30,0,4,,,,,,,,4,,,,63,64
29250,note_on,0,0,8,,,,,,,,8,,,,68,45
29250,note_off,30,0,8,,,,,,,,8,,,,67,64
29250,note_on,0,0,4,,,,,,,,4,,,,65,45
29250,note_off,30,0,3,,,,,,,,3,,,,67,64
29250,note_on,0,0,3,,,,,,,,3,,,,68,45
29250,note_on,0,0,10,,,,,,,,11,,,,61,45
29250,note_off,30,0,10,,,,,,,,11,,,,60,64
29250,note_off,30,0,9,,,,,,,,10,,,,63,64
29250,note_on,0,0,9,,,,,,,,10,,,,65,45
29250,note_on,0,0,5,,,,,,,,5,,,,61,45
29280,note_on,0,0,10,,,,,,,,11,,,,60,45
29280,note_off,30,0,10,,,,,,,,11,,,,61,64
29280,note_off,30,0,5,,,,,,,,5,,,,61,64
29280,note_on,0,0,5,,,,,,,,5,,,,60,45
29280,note_off,30,0,8,,,,,,,,8,,,,68,64
29280,note_off,40,0,2,,,,,,,,2,,,,63,64
29280,note_on,0,0,2,,,,,,,,2,,,,63,30
29280,note_off,30,0,4,,,,,,,,4,,,,65,64
29280,note_on,0,0,8,,,,,,,,8,,,,67,45
29280,note_on,0,0,1,,,,,,,,1,,,,63,45
29280,note_on,0,0,4,,,,,,,,4,,,,63,45
29280,note_on,0,0,9,,,,,,,,10,,,,63,45
29280,note_off,30,0,9,,,,,,,,10,,,,65,64
29280,note_off,40,0,1,,,,,,,,1,,,,63,64
29280,note_off,30,0,3,,,,,,,,3,,,,68,64
29280,note_on,0,0,3,,,,,,,,3,,,,67,45
29320,note_off,40,0,1,,,,,,,,1,,,,63,64
29320,note_on,0,0,1,,,,,,,,1,,,,65,45
29320,note_on,0,0,2,,,,,,,,2,,,,65,30
29320,note_off,40,0,2,,,,,,,,2,,,,63,64
29360,note_off,80,0,10,,,,,,,,11,,,,60,64
29360,note_off,80,0,9,,,,,,,,10,,,,63,64
29360,note_off,40,0,1,,,,,,,,1,,,,65,64
29360,note_on,0,0,1,,,,,,,,1,,,,63,45
29360,note_off,80,0,4,,,,,,,,4,,,,63,64
29360,note_off,80,0,5,,,,,,,,5,,,,60,64
29360,note_on,0,0,2,,,,,,,,2,,,,63,30
29360,note_off,40,0,2,,,,,,,,2,,,,65,64
29360,note_off,80,0,8,,,,,,,,8,,,,67,64
29360,note_off,80,0,3,,,,,,,,3,,,,67,64
29395,note_off,235,0,13,,,,,,,,14,,,,36,64
29400,note_on,40,0,8,,,,,,,,8,,,,67,45
29400,note_on,40,0,4,,,,,,,,4,,,,63,45
29400,note_on,0,0,2,,,,,,,,2,,,,63,30
29400,note_off,40,0,2,,,,,,,,2,,,,63,64
29400,note_on,40,0,10,,,,,,,,11,,,,60,45
29400,note_on,40,0,9,,,,,,,,10,,,,63,45
29400,note_on,160,0,12,,,,,,,,13,,,,36,45
29400,note_on,0,0,1,,,,,,,,1,,,,63,45
29400,note_on,160,0,11,,,,,,,,12,,,,48,45
29400,note_on,40,0,5,,,,,,,,5,,,,60,45
29400,note_on,160,0,7,,,,,,,,7,,,,36,45
29400,note_on,5,0,13,,,,,,,,14,,,,36,30
29400,note_on,40,0,3,,,,,,,,3,,,,67,45
29400,note_on,160,0,6,,,,,,,,6,,,,48,45
29400,note_off,40,0,1,,,,,,,,1,,,,63,64
29430,note_off,30,0,10,,,,,,,,11,,,,60,64
29430,note_on,0,0,10,,,,,,,,11,,,,61,45
29430,note_off,30,0,5,,,,,,,,5,,,,60,64
29430,note_off,30,0,4,,,,,,,,4,,,,63,64
29430,note_on,0,0,9,,,,,,,,10,,,,65,45
29430,note_off,30,0,9,,,,,,,,10,,,,63,64
29430,note_on,0,0,5,,,,,,,,5,,,,61,45
29430,note_on,0,0,4,,,,,,,,4,,,,65,45
29430,note_off,30,0,3,,,,,,,,3,,,,67,64
29430,note_on,0,0,8,,,,,,,,8,,,,68,45
29430,note_on,0,0,3,,,,,,,,3,,,,68,45
29430,note_off,30,0,8,,,,,,,,8,,,,67,64
29440,note_off,40,0,1,,,,,,,,1,,,,63,64
29440,note_on,0,0,1,,,,,,,,1,,,,65,45
29440,note_on,0,0,2,,,,,,,,2,,,,65,30
29440,note_off,40,0,2,,,,,,,,2,,,,63,64
29460,note_on,0,0,5,,,,,,,,5,,,,60,45
29460,note_off,30,0,5,,,,,,,,5,,,,61,64
29460,note_off,30,0,4,,,,,,,,4,,,,65,64
29460,note_off,30,0,3,,,,,,,,3,,,,68,64
29460,note_off,30,0,8,,,,,,,,8,,,,68,64
29460,note_on,0,0,8,,,,,,,,8,,,,67,45
29460,note_on,0,0,4,,,,,,,,4,,,,63,45
29460,note_on,0,0,10,,,,,,,,11,,,,60,45
29460,note_off,30,0,10,,,,,,,,11,,,,61,64
29460,note_off,30,0,9,,,,,,,,10,,,,65,64
29460,note_on,0,0,3,,,,,,,,3,,,,67,45
29460,note_on,0,0,9,,,,,,,,10,,,,63,45
29480,note_on,0,0,1,,,,,,,,1,,,,63,45
29480,note_off,40,0,1,,,,,,,,1,,,,65,64
29480,note_off,80,0,7,,,,,,,,7,,,,36,64
29480,note_off,40,0,2,,,,,,,,2,,,,65,64
29480,note_off,80,0,12,,,,,,,,13,,,,36,64
29480,note_on,0,0,2,,,,,,,,2,,,,63,30
29480,note_off,80,0,6,,,,,,,,6,,,,48,64
29480,note_off,80,0,11,,,,,,,,12,,,,48,64
29490,note_on,0,0,3,,,,,,,,3,,,,68,45
29490,note_on,0,0,4,,,,,,,,4,,,,65,45
29490,note_off,30,0,4,,,,,,,,4,,,,63,64
29490,note_off,30,0,9,,,,,,,,10,,,,63,64
29490,note_off,30,0,5,,,,,,,,5,,,,60,64
29490,note_on,0,0,5,,,,,,,,5,,,,61,45
29490,note_on,0,0,9,,,,,,,,10,,,,65,45
29490,note_off,30,0,8,,,,,,,,8,,,,67,64
29490,note_on,0,0,8,,,,,,,,8,,,,68,45
29490,note_on,0,0,10,,,,,,,,11,,,,61,45
29490,note_off,30,0,10,,,,,,,,11,,,,60,64
29490,note_off,30,0,3,,,,,,,,3,,,,67,64
29520,note_on,0,0,5,,,,,,,,5,,,,60,45
29520,note_on,0,0,4,,,,,,,,4,,,,63,45
29520,note_off,30,0,8,,,,,,,,8,,,,68,64
29520,note_off,30,0,9,,,,,,,,10,,,,65,64
29520,note_on,0,0,8,,,,,,,,8,,,,67,45
29520,note_on,0,0,9,,,,,,,,10,,,,63,45
29520,note_off,30,0,10,,,,,,,,11,,,,61,64
29520,note_off,30,0,4,,,,,,,,4,,,,65,64
29520,note_off,30,0,3,,,,,,,,3,,,,68,64
29520,note_on,0,0,3,,,,,,,,3,,,,67,45
29520,note_on,0,0,2,,,,,,,,2,,,,65,30
29520,note_off,40,0,2,,,,,,,,2,,,,63,64
29520,note_off,30,0,5,,,,,,,,5,,,,61,64
29520,note_off,40,0,1,,,,,,,,1,,,,63,64
29520,note_on,0,0,10,,,,,,,,11,,,,60,45
29520,note_on,0,0,1,,,,,,,,1,,,,65,45
29560,note_on,0,0,2,,,,,,,,2,,,,63,30
29560,note_off,40,0,2,,,,,,,,2,,,,65,64
29560,note_on,0,0,1,,,,,,,,1,,,,63,45
29560,note_off,40,0,1,,,,,,,,1,,,,65,64
29600,note_off,80,0,4,,,,,,,,4,,,,63,64
29600,note_on,0,0,1,,,,,,,,1,,,,65,45
29600,note_off,40,0,1,,,,,,,,1,,,,63,64
29600,note_on,0,0,2,,,,,,,,2,,,,65,30
29600,note_off,80,0,10,,,,,,,,11,,,,60,64
29600,note_off,80,0,5,,,,,,,,5,,,,60,64
29600,note_off,80,0,3,,,,,,,,3,,,,67,64
29600,note_off,80,0,9,,,,,,,,10,,,,63,64
29600,note_off,80,0,8,,,,,,,,8,,,,67,64
29600,note_off,40,0,2,,,,,,,,2,,,,63,64
29635,note_off,235,0,13,,,,,,,,14,,,,36,64
29640,note_off,40,0,2,,,,,,,,2,,,,65,64
29640,note_on,0,0,2,,,,,,,,2,,,,63,30
29640,note_on,40,0,10,,,,,,,,11,,,,60,45
29640,note_on,160,0,6,,,,,,,,6,,,,48,45
29640,note_on,40,0,9,,,,,,,,10,,,,63,45
29640,note_on,40,0,4,,,,,,,,4,,,,63,45
29640,note_on,40,0,3,,,,,,,,3,,,,67,45
29640,note_on,160,0,11,,,,,,,,12,,,,48,45
29640,note_on,40,0,5,,,,,,,,5,,,,60,45
29640,note_on,0,0,1,,,,,,,,1,,,,63,45
29640,note_on,160,0,12,,,,,,,,13,,,,36,45
29640,note_off,40,0,1,,,,,,,,1,,,,65,64
29640,note_on,160,0,7,,,,,,,,7,,,,36,45
29640,note_on,5,0,13,,,,,,,,14,,,,36,30
29640,note_on,40,0,8,,,,,,,,8,,,,67,45
29670,note_off,30,0,8,,,,,,,,8,,,,67,64
29670,note_on,0,0,4,,,,,,,,4,,,,65,45
29670,note_on,0,0,5,,,,,,,,5,,,,61,45
29670,note_off,30,0,3,,,,,,,,3,,,,67,64
29670,note_on,0,0,8,,,,,,,,8,,,,68,45
29670,note_off,30,0,5,,,,,,,,5,,,,60,64
29670,note_off,30,0,10,,,,,,,,11,,,,60,64
29670,note_on,0,0,10,,,,,,,,11,,,,61,45
29670,note_off,30,0,9,,,,,,,,10,,,,63,64
29670,note_on,0,0,9,,,,,,,,10,,,,65,45
29670,note_off,30,0,4,,,,,,,,4,,,,63,64
29670,note_on,0,0,3,,,,,,,,3,,,,68,45
29680,note_on,0,0,1,,,,,,,,1,,,,65,45
29680,note_off,40,0,1,,,,,,,,1,,,,63,64
29680,note_on,0,0,2,,,,,,,,2,,,,65,30
29680,note_off,40,0,2,,,,,,,,2,,,,63,64
29700,note_on,0,0,10,,,,,,,,11,,,,60,45
29700,note_on,0,0,9,,,,,,,,10,,,,63,45
29700,note_off,30,0,9,,,,,,,,10,,,,65,64
29700,note_off,30,0,10,,,,,,,,11,,,,61,64
29700,note_off,30,0,8,,,,,,,,8,,,,68,64
29700,note_off,30,0,3,,,,,,,,3,,,,68,64
29700,note_off,30,0,5,,,,,,,,5,,,,61,64
29700,note_on,0,0,4,,,,,,,,4,,,,63,45
29700,note_off,30,0,4,,,,,,,,4,,,,65,64
29700,note_on,0,0,5,,,,,,,,5,,,,60,45
29700,note_on,0,0,3,,,,,,,,3,,,,67,45
29700,note_on,0,0,8,,,,,,,,8,,,,67,45
29720,note_off,40,0,1,,,,,,,,1,,,,65,64
29720,note_on,0,0,2,,,,,,,,2,,,,63,30
29720,note_off,40,0,2,,,,,,,,2,,,,65,64
29720,note_off,80,0,6,,,,,,,,6,,,,48,64
29720,note_off,80,0,12,,,,,,,,13,,,,36,64
29720,note_off,80,0,7,,,,,,,,7,,,,36,64
29720,note_off,80,0,11,,,,,,,,12,,,,48,64
29720,note_on,0,0,1,,,,,,,,1,,,,63,45
29730,note_on,0,0,3,,,,,,,,3,,,,68,45
29730,note_on,0,0,10,,,,,,,,11,,,,61,45
29730,note_off,30,0,10,,,,,,,,11,,,,60,64
29730,note_off,30,0,3,,,,,,,,3,,,,67,64
29730,note_on,0,0,9,,,,,,,,10,,,,65,45
29730,note_off,30,0,9,,,,,,,,10,,,,63,64
29730,note_on,0,0,5,,,,,,,,5,,,,61,45
29730,note_off,30,0,5,,,,,,,,5,,,,60,64
29730,note_off,30,0,8,,,,,,,,8,,,,67,64
29730,note_on,0,0,4,,,,,,,,4,,,,65,45
29730,note_on,0,0,8,,,,,,,,8,,,,68,45
29730,note_off,30,0,4,,,,,,,,4,,,,63,64
29760,note_off,30,0,5,,,,,,,,5,,,,61,64
29760,note_off,40,0,1,,,,,,,,1,,,,63,64
29760,note_on,0,0,10,,,,,,,,11,,,,60,45
29760,note_off,30,0,10,,,,,,,,11,,,,61,64
29760,note_on,0,0,1,,,,,,,,1,,,,63,45
29760,note_on,0,0,4,,,,,,,,4,,,,63,45
29760,note_off,30,0,4,,,,,,,,4,,,,65,64
29760,note_on,0,0,8,,,,,,,,8,,,,67,45
29760,note_off,30,0,8,,,,,,,,8,,,,68,64
29760,note_on,0,0,9,,,,,,,,10,,,,63,45
29760,note_on,0,0,5,,,,,,,,5,,,,60,45
29760,note_off,40,0,2,,,,,,,,2,,,,63,64
29760,note_off,30,0,3,,,,,,,,3,,,,68,64
29760,note_on,0,0,3,,,,,,,,3,,,,67,45
29760,note_off,30,0,9,,,,,,,,10,,,,65,64
29760,note_on,0,0,2,,,,,,,,2,,,,63,30
29800,note_on,0,0,2,,,,,,,,2,,,,65,30
29800,note_on,0,0,1,,,,,,,,1,,,,65,45
29800,note_off,40,0,1,,,,,,,,1,,,,63,64
29800,note_off,40,0,2,,,,,,,,2,,,,63,64
29840,note_on,0,0,1,,,,,,,,1,,,,63,45
29840,note_off,40,0,1,,,,,,,,1,,,,65,64
29840,note_off,80,0,8,,,,,,,,8,,,,67,64
29840,note_off,80,0,4,,,,,,,,4,,,,63,64
29840,note_off,80,0,9,,,,,,,,10,,,,63,64
29840,note_off,40,0,2,,,,,,,,2,,,,65,64
29840,note_on,0,0,2,,,,,,,,2,,,,63,30
29840,note_off,80,0,5,,,,,,,,5,,,,60,64
29840,note_off,80,0,10,,,,,,,,11,,,,60,64
29840,note_off,80,0,3,,,,,,,,3,,,,67,64
29875,note_off,235,0,13,,,,,,,,14,,,,36,64
29875,note_off,35,0,1,,,,,,,,1,,,,63,64
29875,note_off,35,0,2,,,,,,,,2,,,,63,64
29880,note_on,40,0,9,,,,,,,,10,,,,63,45
29880,note_on,40,0,5,,,,,,,,5,,,,60,45
29880,note_on,160,0,6,,,,,,,,6,,,,48,45
29880,note_on,40,0,3,,,,,,,,3,,,,67,45
29880,note_on,40,0,10,,,,,,,,11,,,,60,45
29880,note_on,40,0,8,,,,,,,,8,,,,67,45
29880,note_on,160,0,12,,,,,,,,13,,,,36,45
29880,note_on,160,0,7,,,,,,,,7,,,,36,45
29880,note_on,5,0,13,,,,,,,,14,,,,36,30
29880,note_on,160,0,11,,,,,,,,12,,,,48,45
29880,note_on,40,0,4,,,,,,,,4,,,,63,45
29910,note_off,30,0,5,,,,,,,,5,,,,60,64
29910,note_on,0,0,5,,,,,,,,5,,,,61,45
29910,note_on,0,0,8,,,,,,,,8,,,,68,45
29910,note_on,0,0,10,,,,,,,,11,,,,61,45
29910,note_off,30,0,8,,,,,,,,8,,,,67,64
29910,note_off,30,0,4,,,,,,,,4,,,,63,64
29910,note_on,0,0,4,,,,,,,,4,,,,65,45
29910,note_on,0,0,3,,,,,,,,3,,,,68,45
29910,note_off,30,0,10,,,,,,,,11,,,,60,64
29910,note_off,30,0,3,,,,,,,,3,,,,67,64
29910,note_off,30,0,9,,,,,,,,10,,,,63,64
29910,note_on,0,0,9,,,,,,,,10,,,,65,45
29940,note_on,0,0,4,,,,,,,,4,,,,63,45
29940,note_off,30,0,5,,,,,,,,5,,,,61,64
29940,note_off,30,0,10,,,,,,,,11,,,,61,64
29940,note_on,0,0,10,,,,,,,,11,,,,60,45
29940,note_on,0,0,5,,,,,,,,5,,,,60,45
29940,note_on,0,0,3,,,,,,,,3,,,,67,45
29940,note_off,30,0,3,,,,,,,,3,,,,68,64
29940,note_off,30,0,4,,,,,,,,4,,,,65,64
29940,note_on,0,0,9,,,,,,,,10,,,,63,45
29940,note_off,30,0,9,,,,,,,,10,,,,65,64
29940,note_off,30,0,8,,,,,,,,8,,,,68,64
29940,note_on,0,0,8,,,,,,,,8,,,,67,45
29960,note_off,80,0,7,,,,,,,,7,,,,36,64
29960,note_off,80,0,12,,,,,,,,13,,,,36,64
29960,note_off,80,0,11,,,,,,,,12,,,,48,64
29960,note_off,80,0,6,,,,,,,,6,,,,48,64
29970,note_on,0,0,8,,,,,,,,8,,,,68,45
29970,note_off,30,0,3,,,,,,,,3,,,,67,64
29970,note_on,0,0,3,,,,,,,,3,,,,68,45
29970,note_off,30,0,9,,,,,,,,10,,,,63,64
29970,note_on,0,0,5,,,,,,,,5,,,,61,45
29970,note_off,30,0,10,,,,,,,,11,,,,60,64
29970,note_on,0,0,10,,,,,,,,11,,,,61,45
29970,note_off,30,0,4,,,,,,,,4,,,,63,64
29970,note_on,0,0,4,,,,,,,,4,,,,65,45
29970,note_off,30,0,8,,,,,,,,8,,,,67,64
29970,note_off,30,0,5,,,,,,,,5,,,,60,64
29970,note_on,0,0,9,,,,,,,,10,,,,65,45
30000,note_on,0,0,4,,,,,,,,4,,,,63,45
30000,note_off,30,0,10,,,,,,,,11,,,,61,64
30000,note_on,0,0,10,,,,,,,,11,,,,60,45
30000,note_off,30,0,4,,,,,,,,4,,,,65,64
30000,note_off,30,0,5,,,,,,,,5,,,,61,64
30000,note_on,0,0,3,,,,,,,,3,,,,67,45
30000,note_off,30,0,3,,,,,,,,3,,,,68,64
30000,note_on,0,0,9,,,,,,,,10,,,,63,45
30000,note_on,0,0,5,,,,,,,,5,,,,60,45
30000,note_off,30,0,9,,,,,,,,10,,,,65,64
30000,note_off,30,0,8,,,,,,,,8,,,,68,64
30000,note_on,0,0,8,,,,,,,,8,,,,67,45
30080,note_off,80,0,10,,,,,,,,11,,,,60,64
30080,note_off,80,0,9,,,,,,,,10,,,,63,64
30080,note_off,80,0,8,,,,,,,,8,,,,67,64
30080,note_off,80,0,4,,,,,,,,4,,,,63,64
30080,note_off,80,0,5,,,,,,,,5,,,,60,64
30080,note_off,80,0,3,,,,,,,,3,,,,67,64
30115,note_off,235,0,13,,,,,,,,14,,,,36,64
30120,note_on,160,0,12,,,,,,,,13,,,,36,45
30120,note_on,40,0,8,,,,,,,,8,,,,67,45
30120,note_on,40,0,3,,,,,,,,3,,,,67,45
30120,note_on,160,0,7,,,,,,,,7,,,,36,45
30120,note_on,40,0,5,,,,,,,,5,,,,60,45
30120,note_on,160,0,6,,,,,,,,6,,,,48,45
30120,note_on,40,0,10,,,,,,,,11,,,,60,45
30120,note_on,5,0,13,,,,,,,,14,,,,36,30
30120,note_on,160,0,11,,,,,,,,12,,,,48,45
30120,note_on,40,0,4,,,,,,,,4,,,,63,45
30120,note_on,40,0,9,,,,,,,,10,,,,63,45
30150,note_off,30,0,10,,,,,,,,11,,,,60,64
30150,note_off,30,0,5,,,,,,,,5,,,,60,64
30150,note_off,30,0,8,,,,,,,,8,,,,67,64
30150,note_on,0,0,5,,,,,,,,5,,,,61,45
30150,note_off,30,0,9,,,,,,,,10,,,,63,64
30150,note_off,30,0,4,,,,,,,,4,,,,63,64
30150,note_on,0,0,10,,,,,,,,11,,,,61,45
30150,note_off,30,0,3,,,,,,,,3,,,,67,64
30150,note_on,0,0,3,,,,,,,,3,,,,68,45
30150,note_on,0,0,4,,,,,,,,4,,,,65,45
30150,note_on,0,0,8,,,,,,,,8,,,,68,45
30150,note_on,0,0,9,,,,,,,,10,,,,65,45
30180,note_off,30,0,3,,,,,,,,3,,,,68,64
30180,note_on,0,0,3,,,,,,,,3,,,,67,45
30180,note_on,0,0,9,,,,,,,,10,,,,63,45
30180,note_on,0,0,10,,,,,,,,11,,,,60,45
30180,note_off,30,0,10,,,,,,,,11,,,,61,64
30180,note_off,30,0,8,,,,,,,,8,,,,68,64
30180,note_off,30,0,4,,,,,,,,4,,,,65,64
30180,note_on,0,0,4,,,,,,,,4,,,,63,45
30180,note_off,30,0,5,,,,,,,,5,,,,61,64
30180,note_on,0,0,8,,,,,,,,8,,,,67,45
30180,note_off,30,0,9,,,,,,,,10,,,,65,64
30180,note_on,0,0,5,,,,,,,,5,,,,60,45
30200,note_off,80,0,6,,,,,,,,6,,,,48,64
30200,note_off,80,0,7,,,,,,,,7,,,,36,64
30200,note_off,80,0,12,,,,,,,,13,,,,36,64
30200,note_off,80,0,11,,,,,,,,12,,,,48,64
30210,note_off,30,0,9,,,,,,,,10,,,,63,64
30210,note_on,0,0,8,,,,,,,,8,,,,68,45
30210,note_off,30,0,10,,,,,,,,11,,,,60,64
30210,note_on,0,0,5,,,,,,,,5,,,,61,45
30210,note_off,30,0,5,,,,,,,,5,,,,60,64
30210,note_on,0,0,3,,,,,,,,3,,,,68,45
30210,note_on,0,0,4,,,,,,,,4,,,,65,45
30210,note_on,0,0,10,,,,,,,,11,,,,61,45
30210,note_off,30,0,4,,,,,,,,4,,,,63,64
30210,note_on,0,0,9,,,,,,,,10,,,,65,45
30210,note_off,30,0,3,,,,,,,,3,,,,67,64
30210,note_off,30,0,8,,,,,,,,8,,,,67,64
30240,note_on,0,0,9,,,,,,,,10,,,,63,45
30240,note_on,0,0,8,,,,,,,,8,,,,67,45
30240,note_off,30,0,5,,,,,,,,5,,,,61,64
30240,note_on,0,0,5,,,,,,,,5,,,,60,45
30240,note_off,30,0,8,,,,,,,,8,,,,68,64
30240,note_on,0,0,4,,,,,,,,4,,,,63,45
30240,note_off,30,0,4,,,,,,,,4,,,,65,64
30240,note_on,0,0,3,,,,,,,,3,,,,67,45
30240,note_off,30,0,3,,,,,,,,3,,,,68,64
30240,note_on,0,0,10,,,,,,,,11,,,,60,45
30240,note_off,30,0,10,,,,,,,,11,,,,61,64
30240,note_off,30,0,9,,,,,,,,10,,,,65,64
30320,note_off,80,0,8,,,,,,,,8,,,,67,64
30320,note_off,80,0,5,,,,,,,,5,,,,60,64
30320,note_off,80,0,3,,,,,,,,3,,,,67,64
30320,note_off,80,0,10,,,,,,,,11,,,,60,64
30320,note_off,80,0,9,,,,,,,,10,,,,63,64
30320,note_off,80,0,4,,,,,,,,4,,,,63,64
30355,note_off,235,0,13,,,,,,,,14,,,,36,64
30360,note_on,40,0,10,,,,,,,,11,,,,60,45
30360,note_on,40,0,5,,,,,,,,5,,,,60,45
30360,note_on,160,0,12,,,,,,,,13,,,,36,45
30360,note_on,160,0,11,,,,,,,,12,,,,48,45
30360,note_on,40,0,3,,,,,,,,3,,,,67,45
30360,note_on,160,0,6,,,,,,,,6,,,,48,45
30360,note_on,40,0,4,,,,,,,,4,,,,63,45
30360,note_on,160,0,7,,,,,,,,7,,,,36,45
30360,note_on,40,0,8,,,,,,,,8,,,,67,45
30360,note_on,40,0,9,,,,,,,,10,,,,63,45
30360,note_on,5,0,13,,,,,,,,14,,,,36,30
30390,note_off,30,0,9,,,,,,,,10,,,,63,64
30390,note_off,30,0,10,,,,,,,,11,,,,60,64
30390,note_off,30,0,3,,,,,,,,3,,,,67,64
30390,note_on,0,0,3,,,,,,,,3,,,,68,45
30390,note_on,0,0,5,,,,,,,,5,,,,61,45
30390,note_off,30,0,5,,,,,,,,5,,,,60,64
30390,note_on,0,0,9,,,,,,,,10,,,,65,45
30390,note_off,30,0,4,,,,,,,,4,,,,63,64
30390,note_off,30,0,8,,,,,,,,8,,,,67,64
30390,note_on,0,0,8,,,,,,,,8,,,,68,45
30390,note_on,0,0,4,,,,,,,,4,,,,65,45
30390,note_on,0,0,10,,,,,,,,11,,,,61,45
30420,note_off,30,0,9,,,,,,,,10,,,,65,64
30420,note_on,0,0,9,,,,,,,,10,,,,63,45
30420,note_on,0,0,10,,,,,,,,11,,,,60,45
30420,note_off,30,0,8,,,,,,,,8,,,,68,64
30420,note_off,30,0,3,,,,,,,,3,,,,68,64
30420,note_on,0,0,3,,,,,,,,3,,,,67,45
30420,note_off,30,0,5,,,,,,,,5,,,,61,64
30420,note_on,0,0,5,,,,,,,,5,,,,60,45
30420,note_on,0,0,4,,,,,,,,4,,,,63,45
30420,note_off,30,0,4,,,,,,,,4,,,,65,64
30420,note_on,0,0,8,,,,,,,,8,,,,67,45
30420,note_off,30,0,10,,,,,,,,11,,,,61,64
30440,note_off,80,0,12,,,,,,,,13,,,,36,64
30440,note_off,80,0,7,,,,,,,,7,,,,36,64
30440,note_off,80,0,11,,,,,,,,12,,,,48,64
30440,note_off,80,0,6,,,,,,,,6,,,,48,64
30450,note_on,0,0,9,,,,,,,,10,,,,65,45
30450,note_off,30,0,8,,,,,,,,8,,,,67,64
30450,note_on,0,0,8,,,,,,,,8,,,,68,45
30450,note_off,30,0,10,,,,,,,,11,,,,60,64
30450,note_on,0,0,10,,,,,,,,11,,,,61,45
30450,note_off,30,0,5,,,,,,,,5,,,,60,64
30450,note_on,0,0,4,,,,,,,,4,,,,65,45
30450,note_off,30,0,4,,,,,,,,4,,,,63,64
30450,note_on,0,0,5,,,,,,,,5,,,,61,45
30450,note_off,30,0,3,,,,,,,,3,,,,67,64
30450,note_on,0,0,3,,,,,,,,3,,,,68,45
30450,note_off,30,0,9,,,,,,,,10,,,,63,64
30480,note_off,30,0,8,,,,,,,,8,,,,68,64
30480,note_on,0,0,10,,,,,,,,11,,,,60,45
30480,note_off,30,0,10,,,,,,,,11,,,,61,64
30480,note_off,30,0,3,,,,,,,,3,,,,68,64
30480,note_on,0,0,3,,,,,,,,3,,,,67,45
30480,note_off,30,0,9,,,,,,,,10,,,,65,64
30480,note_on,0,0,8,,,,,,,,8,,,,67,45
30480,note_on,0,0,9,,,,,,,,10,,,,63,45
30480,note_off,30,0,5,,,,,,,,5,,,,61,64
30480,note_on,0,0,4,,,,,,,,4,,,,63,45
30480,note_off,30,0,4,,,,,,,,4,,,,65,64
30480,note_on,0,0,5,,,,,,,,5,,,,60,45
30560,note_off,80,0,4,,,,,,,,4,,,,63,64
30560,note_off,80,0,5,,,,,,,,5,,,,60,64
30560,note_off,80,0,8,,,,,,,,8,,,,67,64
30560,note_off,80,0,10,,,,,,,,11,,,,60,64
30560,note_off,80,0,9,,,,,,,,10,,,,63,64
30560,note_off,80,0,3,,,,,,,,3,,,,67,64
30595,note_off,235,0,13,,,,,,,,14,,,,36,64
30600,note_on,40,0,8,,,,,,,,8,,,,67,45
30600,note_on,160,0,11,,,,,,,,12,,,,48,45
30600,note_on,40,0,9,,,,,,,,10,,,,63,45
30600,note_on,40,0,5,,,,,,,,5,,,,60,45
30600,note_on,40,0,4,,,,,,,,4,,,,63,45
30600,note_on,5,0,13,,,,,,,,14,,,,36,30
30600,note_on,160,0,7,,,,,,,,7,,,,36,45
30600,note_on,160,0,6,,,,,,,,6,,,,48,45
30600,note_on,40,0,3,,,,,,,,3,,,,67,45
30600,note_on,160,0,12,,,,,,,,13,,,,36,45
30600,note_on,40,0,10,,,,,,,,11,,,,60,45
30630,note_off,30,0,5,,,,,,,,5,,,,60,64
30630,note_on,0,0,5,,,,,,,,5,,,,61,45
30630,note_on,0,0,3,,,,,,,,3,,,,68,45
30630,note_on,0,0,9,,,,,,,,10,,,,65,45
30630,note_off,30,0,3,,,,,,,,3,,,,67,64
30630,note_on,0,0,10,,,,,,,,11,,,,61,45
30630,note_off,30,0,10,,,,,,,,11,,,,60,64
30630,note_on,0,0,4,,,,,,,,4,,,,65,45
30630,note_off,30,0,4,,,,,,,,4,,,,63,64
30630,note_off,30,0,8,,,,,,,,8,,,,67,64
30630,note_on,0,0,8,,,,,,,,8,,,,68,45
30630,note_off,30,0,9,,,,,,,,10,,,,63,64
30660,note_on,0,0,4,,,,,,,,4,,,,63,45
30660,note_off,30,0,5,,,,,,,,5,,,,61,64
30660,note_off,30,0,3,,,,,,,,3,,,,68,64
30660,note_on,0,0,3,,,,,,,,3,,,,67,45
30660,note_on,0,0,5,,,,,,,,5,,,,60,45
30660,note_on,0,0,8,,,,,,,,8,,,,67,45
30660,note_off,30,0,4,,,,,,,,4,,,,65,64
30660,note_off,30,0,10,,,,,,,,11,,,,61,64
30660,note_on,0,0,9,,,,,,,,10,,,,63,45
30660,note_off,30,0,9,,,,,,,,10,,,,65,64
30660,note_on,0,0,10,,,,,,,,11,,,,60,45
30660,note_off,30,0,8,,,,,,,,8,,,,68,64
30680,note_off,80,0,7,,,,,,,,7,,,,36,64
30680,note_off,80,0,11,,,,,,,,12,,,,48,64
30680,note_off,80,0,12,,,,,,,,13,,,,36,64
30680,note_off,80,0,6,,,,,,,,6,,,,48,64
30690,note_on,0,0,10,,,,,,,,11,,,,61,45
30690,note_off,30,0,10,,,,,,,,11,,,,60,64
30690,note_off,30,0,9,,,,,,,,10,,,,63,64
30690,note_on,0,0,9,,,,,,,,10,,,,65,45
30690,note_on,0,0,4,,,,,,,,4,,,,65,45
30690,note_off,30,0,4,,,,,,,,4,,,,63,64
30690,note_on,0,0,8,,,,,,,,8,,,,68,45
30690,note_on,0,0,3,,,,,,,,3,,,,68,45
30690,note_off,30,0,8,,,,,,,,8,,,,67,64
30690,note_on,0,0,5,,,,,,,,5,,,,61,45
30690,note_off,30,0,5,,,,,,,,5,,,,60,64
30690,note_off,30,0,3,,,,,,,,3,,,,67,64
30720,note_on,0,0,8,,,,,,,,8,,,,67,45
30720,note_off,30,0,8,,,,,,,,8,,,,68,64
30720,note_on,0,0,4,,,,,,,,4,,,,63,45
30720,note_off,30,0,4,,,,,,,,4,,,,65,64
30720,note_on,0,0,5,,,,,,,,5,,,,60,45
30720,note_on,0,0,10,,,,,,,,11,,,,60,45
30720,note_off,30,0,10,,,,,,,,11,,,,61,64
30720,note_off,30,0,5,,,,,,,,5,,,,61,64
30720,note_off,30,0,3,,,,,,,,3,,,,68,64
30720,note_on,0,0,3,,,,,,,,3,,,,67,45
30720,note_on,0,0,9,,,,,,,,10,,,,63,45
30720,note_off,30,0,9,,,,,,,,10,,,,65,64
30800,note_off,80,0,8,,,,,,,,8,,,,67,64
30800,note_off,80,0,5,,,,,,,,5,,,,60,64
30800,note_off,80,0,3,,,,,,,,3,,,,67,64
30800,note_off,80,0,4,,,,,,,,4,,,,63,64
30800,note_off,80,0,9,,,,,,,,10,,,,63,64
30800,note_off,80,0,10,,,,,,,,11,,,,60,64
30835,note_off,235,0,13,,,,,,,,14,,,,36,64
30840,note_on,40,0,4,,,,,,,,4,,,,63,45
30840,note_on,965,0,2,,,,,,,,2,,,,79,60
30840,note_on,40,0,5,,,,,,,,5,,,,60,45
30840,note_on,965,0,1,,,,,,,,1,,,,79,75
30840,note_on,40,0,3,,,,,,,,3,,,,67,45
30840,note_on,5,0,13,,,,,,,,14,,,,36,30
30840,note_on,160,0,7,,,,,,,,7,,,,36,45
30840,note_on,160,0,12,,,,,,,,13,,,,36,45
30840,note_on,40,0,8,,,,,,,,8,,,,67,45
30840,note_on,160,0,11,,,,,,,,12,,,,48,45
30840,note_on,40,0,10,,,,,,,,11,,,,60,45
30840,note_on,160,0,6,,,,,,,,6,,,,48,45
30840,note_on,40,0,9,,,,,,,,10,,,,63,45
30880,note_off,40,0,2,,,,,,,,2,,,,79,64
30880,note_off,40,0,1,,,,,,,,1,,,,79,64
30900,note_on,20,0,2,,,,,,,,2,,,,91,60
30900,note_on,20,0,1,,,,,,,,1,,,,91,75
30940,note_off,40,0,2,,,,,,,,2,,,,91,64
30940,note_off,40,0,1,,,,,,,,1,,,,91,64
30960,note_on,20,0,2,,,,,,,,2,,,,91,60
30960,note_on,20,0,1,,,,,,,,1,,,,91,75
31000,note_off,40,0,2,,,,,,,,2,,,,91,64
31000,note_off,40,0,1,,,,,,,,1,,,,91,64
31020,note_on,20,0,2,,,,,,,,2,,,,87,60
31020,note_on,20,0,1,,,,,,,,1,,,,87,75
31060,note_off,40,0,2,,,,,,,,2,,,,87,64
31060,note_off,40,0,1,,,,,,,,1,,,,87,64
31080,note_on,20,0,1,,,,,,,,1,,,,87,75
31080,note_on,20,0,2,,,,,,,,2,,,,87,60
31120,note_off,40,0,2,,,,,,,,2,,,,87,64
31120,note_off,40,0,1,,,,,,,,1,,,,87,64
31140,note_on,20,0,2,,,,,,,,2,,,,84,60
31140,note_on,20,0,1,,,,,,,,1,,,,84,75
31180,note_off,40,0,1,,,,,,,,1,,,,84,64
31180,note_off,40,0,2,,,,,,,,2,,,,84,64
31200,note_on,20,0,2,,,,,,,,2,,,,84,60
31200,note_on,20,0,1,,,,,,,,1,,,,84,75
31240,note_off,400,0,13,,,,,,,,14,,,,36,64
31240,note_off,40,0,2,,,,,,,,2,,,,84,64
31240,note_off,400,0,12,,,,,,,,13,,,,36,64
31240,note_off,400,0,6,,,,,,,,6,,,,48,64
31240,note_off,400,0,7,,,,,,,,7,,,,36,64
31240,note_off,400,0,3,,,,,,,,3,,,,67,64
31240,note_off,40,0,1,,,,,,,,1,,,,84,64
31240,note_off,400,0,4,,,,,,,,4,,,,63,64
31240,note_off,400,0,9,,,,,,,,10,,,,63,64
31240,note_off,400,0,5,,,,,,,,5,,,,60,64
31240,note_off,400,0,10,,,,,,,,11,,,,60,64
31240,note_off,400,0,8,,,,,,,,8,,,,67,64
31240,note_off,400,0,11,,,,,,,,12,,,,48,64
31260,note_on,20,0,2,,,,,,,,2,,,,79,60
31260,note_on,20,0,1,,,,,,,,1,,,,79,75
31300,note_off,40,0,2,,,,,,,,2,,,,79,64
31300,note_off,40,0,1,,,,,,,,1,,,,79,64
31320,note_on,20,0,2,,,,,,,,2,,,,79,60
31320,note_on,20,0,1,,,,,,,,1,,,,79,75
31360,note_off,40,0,2,,,,,,,,2,,,,79,64
31360,note_off,40,0,1,,,,,,,,1,,,,79,64
31380,note_on,20,0,1,,,,,,,,1,,,,91,75
31380,note_on,20,0,2,,,,,,,,2,,,,91,60
31420,note_off,40,0,2,,,,,,,,2,,,,91,64
31420,note_off,40,0,1,,,,,,,,1,,,,91,64
31440,note_on,20,0,2,,,,,,,,2,,,,91,60
31440,note_on,20,0,1,,,,,,,,1,,,,91,75
31480,note_off,40,0,2,,,,,,,,2,,,,91,64
31480,note_off,40,0,1,,,,,,,,1,,,,91,64
31500,note_on,20,0,2,,,,,,,,2,,,,87,60
31500,note_on,20,0,1,,,,,,,,1,,,,87,75
31540,note_off,40,0,2,,,,,,,,2,,,,87,64
31540,note_off,40,0,1,,,,,,,,1,,,,87,64
31560,note_on,20,0,2,,,,,,,,2,,,,87,60
31560,note_on,20,0,1,,,,,,,,1,,,,87,75
31600,note_off,40,0,1,,,,,,,,1,,,,87,64
31600,note_off,40,0,2,,,,,,,,2,,,,87,64
31620,note_on,20,0,1,,,,,,,,1,,,,84,75
31620,note_on,20,0,2,,,,,,,,2,,,,84,60
31660,note_off,40,0,2,,,,,,,,2,,,,84,64
31660,note_off,40,0,1,,,,,,,,1,,,,84,64
31680,note_on,20,0,1,,,,,,,,1,,,,84,75
31680,note_on,20,0,2,,,,,,,,2,,,,84,60
31720,note_off,40,0,2,,,,,,,,2,,,,84,64
31720,note_off,40,0,1,,,,,,,,1,,,,84,64
31740,note_on,20,0,1,,,,,,,,1,,,,79,75
31740,note_on,20,0,2,,,,,,,,2,,,,79,60
31780,note_off,40,0,1,,,,,,,,1,,,,79,64
31780,note_off,40,0,2,,,,,,,,2,,,,79,64
31800,note_on,20,0,1,,,,,,,,1,,,,79,75
31800,note_on,20,0,2,,,,,,,,2,,,,79,60
31840,note_off,40,0,1,,,,,,,,1,,,,79,64
31840,note_off,40,0,2,,,,,,,,2,,,,79,64
31860,note_on,20,0,2,,,,,,,,2,,,,91,60
31860,note_on,20,0,1,,,,,,,,1,,,,91,75
31900,note_off,40,0,2,,,,,,,,2,,,,91,64
31900,note_off,40,0,1,,,,,,,,1,,,,91,64
31920,note_on,20,0,2,,,,,,,,2,,,,89,60
31920,note_on,20,0,1,,,,,,,,1,,,,89,75
31960,note_off,40,0,2,,,,,,,,2,,,,89,64
31960,note_off,40,0,1,,,,,,,,1,,,,89,64
31980,note_on,20,0,2,,,,,,,,2,,,,87,60
31980,note_on,20,0,1,,,,,,,,1,,,,87,75
32020,note_off,40,0,1,,,,,,,,1,,,,87,64
32020,note_off,40,0,2,,,,,,,,2,,,,87,64
32040,note_on,20,0,2,,,,,,,,2,,,,86,60
32040,note_on,20,0,1,,,,,,,,1,,,,86,75
32080,note_off,40,0,1,,,,,,,,1,,,,86,64
32080,note_off,40,0,2,,,,,,,,2,,,,86,64
32100,note_on,20,0,1,,,,,,,,1,,,,84,75
32100,note_on,20,0,2,,,,,,,,2,,,,84,60
32140,note_off,40,0,1,,,,,,,,1,,,,84,64
32140,note_off,40,0,2,,,,,,,,2,,,,84,64
32160,note_on,20,0,1,,,,,,,,1,,,,83,75
32160,note_on,20,0,2,,,,,,,,2,,,,83,60
32200,note_off,40,0,1,,,,,,,,1,,,,83,64
32200,note_off,40,0,2,,,,,,,,2,,,,83,64
32220,note_on,20,0,1,,,,,,,,1,,,,81,75
32220,note_on,20,0,2,,,,,,,,2,,,,81,60
32260,note_off,40,0,2,,,,,,,,2,,,,81,64
32260,note_off,40,0,1,,,,,,,,1,,,,81,64
32280,note_on,20,0,2,,,,,,,,2,,,,79,60
32280,note_on,20,0,1,,,,,,,,1,,,,79,75
32320,note_off,40,0,1,,,,,,,,1,,,,79,64
32320,note_off,40,0,2,,,,,,,,2,,,,79,64
32340,note_on,20,0,1,,,,,,,,1,,,,91,75
32340,note_on,20,0,2,,,,,,,,2,,,,91,60
32380,note_off,40,0,2,,,,,,,,2,,,,91,64
32380,note_off,40,0,1,,,,,,,,1,,,,91,64
32400,note_on,20,0,2,,,,,,,,2,,,,89,60
32400,note_on,20,0,1,,,,,,,,1,,,,89,75
32440,note_off,40,0,1,,,,,,,,1,,,,89,64
32440,note_off,40,0,2,,,,,,,,2,,,,89,64
32460,note_on,20,0,2,,,,,,,,2,,,,87,60
32460,note_on,20,0,1,,,,,,,,1,,,,87,75
32500,note_off,40,0,2,,,,,,,,2,,,,87,64
32500,note_off,40,0,1,,,,,,,,1,,,,87,64
32520,note_on,20,0,1,,,,,,,,1,,,,86,75
32520,note_on,20,0,2,,,,,,,,2,,,,86,60
32560,note_off,40,0,2,,,,,,,,2,,,,86,64
32560,note_off,40,0,1,,,,,,,,1,,,,86,64
32580,note_on,20,0,1,,,,,,,,1,,,,84,75
32580,note_on,20,0,2,,,,,,,,2,,,,84,60
32620,note_off,40,0,1,,,,,,,,1,,,,84,64
32620,note_off,40,0,2,,,,,,,,2,,,,84,64
32640,note_on,20,0,2,,,,,,,,2,,,,83,60
32640,note_on,20,0,1,,,,,,,,1,,,,83,75
32680,note_off,40,0,2,,,,,,,,2,,,,83,64
32680,note_off,40,0,1,,,,,,,,1,,,,83,64
32700,note_on,20,0,2,,,,,,,,2,,,,81,60
32700,note_on,20,0,1,,,,,,,,1,,,,81,75
32740,note_off,40,0,2,,,,,,,,2,,,,81,64
32740,note_off,40,0,1,,,,,,,,1,,,,81,64
32760,note_on,20,0,1,,,,,,,,1,,,,79,75
32760,note_on,20,0,2,,,,,,,,2,,,,79,60
32800,note_off,40,0,1,,,,,,,,1,,,,79,64
32800,note_off,40,0,2,,,,,,,,2,,,,79,64
32820,note_on,20,0,1,,,,,,,,1,,,,75,75
32820,note_on,20,0,2,,,,,,,,2,,,,75,60
32860,note_off,40,0,1,,,,,,,,1,,,,75,64
32860,note_off,40,0,2,,,,,,,,2,,,,75,64
32880,note_on,20,0,1,,,,,,,,1,,,,79,75
32880,note_on,20,0,2,,,,,,,,2,,,,79,60
32920,note_off,40,0,1,,,,,,,,1,,,,79,64
32920,note_off,40,0,2,,,,,,,,2,,,,79,64
32940,note_on,20,0,2,,,,,,,,2,,,,84,60
32940,note_on,20,0,1,,,,,,,,1,,,,84,75
32980,note_off,40,0,2,,,,,,,,2,,,,84,64
32980,note_off,40,0,1,,,,,,,,1,,,,84,64
33000,note_on,20,0,2,,,,,,,,2,,,,79,60
33000,note_on,20,0,1,,,,,,,,1,,,,79,75
33040,note_off,40,0,2,,,,,,,,2,,,,79,64
33040,note_off,40,0,1,,,,,,,,1,,,,79,64
33060,note_on,20,0,1,,,,,,,,1,,,,75,75
33060,note_on,20,0,2,,,,,,,,2,,,,75,60
33100,note_off,40,0,2,,,,,,,,2,,,,75,64
33100,note_off,40,0,1,,,,,,,,1,,,,75,64
33120,note_on,20,0,2,,,,,,,,2,,,,79,60
33120,note_on,20,0,1,,,,,,,,1,,,,79,75
33160,note_off,40,0,1,,,,,,,,1,,,,79,64
33160,note_off,40,0,2,,,,,,,,2,,,,79,64
33180,note_on,20,0,1,,,,,,,,1,,,,84,75
33180,note_on,20,0,2,,,,,,,,2,,,,84,60
33220,note_off,40,0,1,,,,,,,,1,,,,84,64
33220,note_off,40,0,2,,,,,,,,2,,,,84,64
33240,note_on,20,0,2,,,,,,,,2,,,,79,60
33240,note_on,20,0,1,,,,,,,,1,,,,79,75
33280,note_off,40,0,1,,,,,,,,1,,,,79,64
33280,note_off,40,0,2,,,,,,,,2,,,,79,64
33300,note_on,20,0,1,,,,,,,,1,,,,75,72
33300,note_on,20,0,2,,,,,,,,2,,,,75,59
33340,note_off,40,0,1,,,,,,,,1,,,,75,64
33340,note_off,40,0,2,,,,,,,,2,,,,75,64
33360,note_on,20,0,1,,,,,,,,1,,,,79,69
33360,note_on,20,0,2,,,,,,,,2,,,,79,57
33400,note_off,40,0,2,,,,,,,,2,,,,79,64
33400,note_off,40,0,1,,,,,,,,1,,,,79,64
33420,note_on,20,0,1,,,,,,,,1,,,,84,65
33420,note_on,20,0,2,,,,,,,,2,,,,84,55
33460,note_off,40,0,1,,,,,,,,1,,,,84,64
33460,note_off,40,0,2,,,,,,,,2,,,,84,64
33480,note_on,20,0,1,,,,,,,,1,,,,79,61
33480,note_on,20,0,2,,,,,,,,2,,,,79,53
33520,note_off,40,0,2,,,,,,,,2,,,,79,64
33520,note_off,40,0,1,,,,,,,,1,,,,79,64
33540,note_on,20,0,1,,,,,,,,1,,,,75,57
33540,note_on,20,0,2,,,,,,,,2,,,,75,51
33580,note_off,40,0,1,,,,,,,,1,,,,75,64
33580,note_off,40,0,2,,,,,,,,2,,,,75,64
33600,note_on,20,0,2,,,,,,,,2,,,,79,49
33600,note_on,20,0,1,,,,,,,,1,,,,79,53
33640,note_off,40,0,2,,,,,,,,2,,,,79,64
33640,note_off,40,0,1,,,,,,,,1,,,,79,64
33660,note_on,20,0,2,,,,,,,,2,,,,84,47
33660,note_on,20,0,1,,,,,,,,1,,,,84,49
33700,note_off,40,0,1,,,,,,,,1,,,,84,64
33700,note_off,40,0,2,,,,,,,,2,,,,84,64
33720,note_on,20,0,1,,,,,,,,1,,,,72,45
33720,note_on,2480,0,9,,,,,,,,10,,,,72,45
33720,note_on,20,0,2,,,,,,,,2,,,,72,45
33720,note_on,2480,0,4,,,,,,,,4,,,,72,45
33750,note_off,30,0,9,,,,,,,,10,,,,72,64
33750,note_off,30,0,4,,,,,,,,4,,,,72,64
33750,note_on,0,0,4,,,,,,,,4,,,,73,45
33750,note_on,0,0,9,,,,,,,,10,,,,73,45
33760,note_on,0,0,2,,,,,,,,2,,,,73,45
33760,note_off,40,0,2,,,,,,,,2,,,,72,64
33760,note_off,40,0,1,,,,,,,,1,,,,72,64
33760,note_on,0,0,1,,,,,,,,1,,,,73,45
33780,note_on,0,0,9,,,,,,,,10,,,,72,45
33780,note_on,0,0,4,,,,,,,,4,,,,72,45
33780,note_off,30,0,4,,,,,,,,4,,,,73,64
33780,note_off,30,0,9,,,,,,,,10,,,,73,64
33800,note_off,40,0,2,,,,,,,,2,,,,73,64
33800,note_on,0,0,2,,,,,,,,2,,,,72,45
33800,note_off,40,0,1,,,,,,,,1,,,,73,64
33800,note_on,0,0,1,,,,,,,,1,,,,72,45
33810,note_on,0,0,9,,,,,,,,10,,,,73,45
33810,note_on,0,0,4,,,,,,,,4,,,,73,45
33810,note_off,30,0,4,,,,,,,,4,,,,72,64
33810,note_off,30,0,9,,,,,,,,10,,,,72,64
33840,note_off,30,0,9,,,,,,,,10,,,,73,64
33840,note_on,0,0,9,,,,,,,,10,,,,72,45
33840,note_off,40,0,2,,,,,,,,2,,,,72,64
33840,note_on,0,0,1,,,,,,,,1,,,,73,45
33840,note_off,40,0,1,,,,,,,,1,,,,72,64
33840,note_on,0,0,2,,,,,,,,2,,,,73,45
33840,note_on,0,0,4,,,,,,,,4,,,,72,45
33840,note_off,30,0,4,,,,,,,,4,,,,73,64
33880,note_off,40,0,1,,,,,,,,1,,,,73,64
33880,note_on,0,0,1,,,,,,,,1,,,,72,45
33880,note_off,40,0,2,,,,,,,,2,,,,73,64
33880,note_on,0,0,2,,,,,,,,2,,,,72,44
33920,note_on,0,0,2,,,,,,,,2,,,,73,43
33920,note_on,0,0,1,,,,,,,,1,,,,73,45
33920,note_off,40,0,1,,,,,,,,1,,,,72,64
33920,note_off,80,0,4,,,,,,,,4,,,,72,64
33920,note_off,40,0,2,,,,,,,,2,,,,72,64
33920,note_off,80,0,9,,,,,,,,10,,,,72,64
33960,note_on,0,0,1,,,,,,,,1,,,,72,45
33960,note_off,40,0,1,,,,,,,,1,,,,73,64
33960,note_on,40,0,4,,,,,,,,4,,,,72,45
33960,note_on,40,0,9,,,,,,,,10,,,,72,45
33960,note_on,0,0,2,,,,,,,,2,,,,72,42
33960,note_off,40,0,2,,,,,,,,2,,,,73,64
33990,note_off,30,0,9,,,,,,,,10,,,,72,64
33990,note_on,0,0,9,,,,,,,,10,,,,73,45
33990,note_off,30,0,4,,,,,,,,4,,,,72,64
33990,note_on,0,0,4,,,,,,,,4,,,,73,45
34000,note_off,40,0,2,,,,,,,,2,,,,72,64
34000,note_on,0,0,2,,,,,,,,2,,,,73,41
34000,note_off,40,0,1,,,,,,,,1,,,,72,64
34000,note_on,0,0,1,,,,,,,,1,,,,73,45
34020,note_off,30,0,9,,,,,,,,10,,,,73,64
34020,note_on,0,0,9,,,,,,,,10,,,,72,45
34020,note_off,30,0,4,,,,,,,,4,,,,73,64
34020,note_on,0,0,4,,,,,,,,4,,,,72,45
34040,note_off,40,0,1,,,,,,,,1,,,,73,64
34040,note_on,0,0,1,,,,,,,,1,,,,72,45
34040,note_off,40,0,2,,,,,,,,2,,,,73,64
34040,note_on,0,0,2,,,,,,,,2,,,,72,40
34050,note_off,30,0,9,,,,,,,,10,,,,72,64
34050,note_off,30,0,4,,,,,,,,4,,,,72,64
34050,note_on,0,0,9,,,,,,,,10,,,,73,45
34050,note_on,0,0,4,,,,,,,,4,,,,73,45
34080,note_off,30,0,4,,,,,,,,4,,,,73,64
34080,note_on,0,0,4,,,,,,,,4,,,,72,45
34080,note_on,0,0,1,,,,,,,,1,,,,72,44
34080,note_on,0,0,2,,,,,,,,2,,,,72,38
34080,note_off,40,0,2,,,,,,,,2,,,,72,64
34080,note_off,30,0,9,,,,,,,,10,,,,73,64
34080,note_on,0,0,9,,,,,,,,10,,,,72,45
34080,note_off,40,0,1,,,,,,,,1,,,,72,64
34120,note_on,0,0,2,,,,,,,,2,,,,73,36
34120,note_on,0,0,1,,,,,,,,1,,,,73,43
34120,note_off,40,0,1,,,,,,,,1,,,,72,64
34120,note_off,40,0,2,,,,,,,,2,,,,72,64
34160,note_off,80,0,4,,,,,,,,4,,,,72,64
34160,note_on,0,0,1,,,,,,,,1,,,,72,42
34160,note_off,40,0,2,,,,,,,,2,,,,73,64
34160,note_off,40,0,1,,,,,,,,1,,,,73,64
34160,note_off,80,0,9,,,,,,,,10,,,,72,64
34160,note_on,0,0,2,,,,,,,,2,,,,72,34
34200,note_on,0,0,1,,,,,,,,1,,,,72,41
34200,note_on,40,0,4,,,,,,,,4,,,,72,45
34200,note_on,40,0,9,,,,,,,,10,,,,72,45
34200,note_off,40,0,1,,,,,,,,1,,,,72,64
34200,note_off,40,0,2,,,,,,,,2,,,,72,64
34200,note_on,0,0,2,,,,,,,,2,,,,72,32
34230,note_on,0,0,9,,,,,,,,10,,,,73,45
34230,note_off,30,0,4,,,,,,,,4,,,,72,64
34230,note_on,0,0,4,,,,,,,,4,,,,73,45
34230,note_off,30,0,9,,,,,,,,10,,,,72,64
34240,note_off,40,0,2,,,,,,,,2,,,,72,64
34240,note_on,0,0,2,,,,,,,,2,,,,73,30
34240,note_off,40,0,1,,,,,,,,1,,,,72,64
34240,note_on,0,0,1,,,,,,,,1,,,,73,40
34260,note_on,0,0,9,,,,,,,,10,,,,72,45
34260,note_off,30,0,9,,,,,,,,10,,,,73,64
34260,note_off,30,0,4,,,,,,,,4,,,,73,64
34260,note_on,0,0,4,,,,,,,,4,,,,72,45
34280,note_on,0,0,2,,,,,,,,2,,,,72,28
34280,note_off,40,0,2,,,,,,,,2,,,,73,64
34280,note_on,0,0,1,,,,,,,,1,,,,72,39
34280,note_off,40,0,1,,,,,,,,1,,,,73,64
34290,note_off,30,0,9,,,,,,,,10,,,,72,64
34290,note_on,0,0,9,,,,,,,,10,,,,73,45
34290,note_on,0,0,4,,,,,,,,4,,,,73,45
34290,note_off,30,0,4,,,,,,,,4,,,,72,64
34320,note_on,0,0,9,,,,,,,,10,,,,72,45
34320,note_on,0,0,4,,,,,,,,4,,,,72,45
34320,note_off,30,0,9,,,,,,,,10,,,,73,64
34320,note_off,40,0,1,,,,,,,,1,,,,72,64
34320,note_off,30,0,4,,,,,,,,4,,,,73,64
34320,note_on,0,0,1,,,,,,,,1,,,,73,38
34320,note_on,0,0,2,,,,,,,,2,,,,73,26
34320,note_off,40,0,2,,,,,,,,2,,,,72,64
34360,note_on,0,0,2,,,,,,,,2,,,,72,24
34360,note_on,0,0,1,,,,,,,,1,,,,72,37
34360,note_off,40,0,2,,,,,,,,2,,,,73,64
34360,note_off,40,0,1,,,,,,,,1,,,,73,64
34400,note_off,40,0,1,,,,,,,,1,,,,72,64
34400,note_off,80,0,4,,,,,,,,4,,,,72,64
34400,note_off,40,0,2,,,,,,,,2,,,,72,64
34400,note_on,0,0,2,,,,,,,,2,,,,73,22
34400,note_off,80,0,9,,,,,,,,10,,,,72,64
34400,note_on,0,0,1,,,,,,,,1,,,,73,36
34440,note_off,40,0,2,,,,,,,,2,,,,73,64
34440,note_on,0,0,2,,,,,,,,2,,,,72,20
34440,note_on,40,0,4,,,,,,,,4,,,,72,45
34440,note_off,40,0,1,,,,,,,,1,,,,73,64
34440,note_on,0,0,1,,,,,,,,1,,,,72,35
34440,note_on,40,0,9,,,,,,,,10,,,,72,45
34470,note_on,0,0,4,,,,,,,,4,,,,73,45
34470,note_off,30,0,4,,,,,,,,4,,,,72,64
34470,note_off,30,0,9,,,,,,,,10,,,,72,64
34470,note_on,0,0,9,,,,,,,,10,,,,73,45
34480,note_on,0,0,2,,,,,,,,2,,,,73,18
34480,note_off,40,0,2,,,,,,,,2,,,,72,64
34480,note_off,40,0,1,,,,,,,,1,,,,72,64
34480,note_on,0,0,1,,,,,,,,1,,,,73,34
34500,note_off,30,0,9,,,,,,,,10,,,,73,64
34500,note_on,0,0,9,,,,,,,,10,,,,72,45
34500,note_on,0,0,4,,,,,,,,4,,,,72,45
34500,note_off,30,0,4,,,,,,,,4,,,,73,64
34520,note_off,40,0,2,,,,,,,,2,,,,73,64
34520,note_on,0,0,2,,,,,,,,2,,,,72,16
34520,note_on,0,0,1,,,,,,,,1,,,,72,33
34520,note_off,40,0,1,,,,,,,,1,,,,73,64
34530,note_off,30,0,9,,,,,,,,10,,,,72,64
34530,note_off,30,0,4,,,,,,,,4,,,,72,64
34530,note_on,0,0,9,,,,,,,,10,,,,73,45
34530,note_on,0,0,4,,,,,,,,4,,,,73,45
34560,note_on,0,0,2,,,,,,,,2,,,,72,14
34560,note_off,40,0,2,,,,,,,,2,,,,72,64
34560,note_on,0,0,4,,,,,,,,4,,,,72,45
34560,note_on,0,0,9,,,,,,,,10,,,,72,45
34560,note_off,40,0,1,,,,,,,,1,,,,72,64
34560,note_on,0,0,1,,,,,,,,1,,,,72,32
34560,note_off,30,0,9,,,,,,,,10,,,,73,64
34560,note_off,30,0,4,,,,,,,,4,,,,73,64
34600,note_off,40,0,1,,,,,,,,1,,,,72,64
34600,note_on,0,0,1,,,,,,,,1,,,,73,31
34600,note_off,40,0,2,,,,,,,,2,,,,72,64
34600,note_on,0,0,2,,,,,,,,2,,,,73,12
34640,note_off,40,0,1,,,,,,,,1,,,,73,64
34640,note_on,0,0,2,,,,,,,,2,,,,72,10
34640,note_off,40,0,2,,,,,,,,2,,,,73,64
34640,note_off,80,0,9,,,,,,,,10,,,,72,64
34640,note_on,0,0,1,,,,,,,,1,,,,72,30
34640,note_off,80,0,4,,,,,,,,4,,,,72,64
34675,note_off,35,0,1,,,,,,,,1,,,,72,64
34675,note_off,35,0,2,,,,,,,,2,,,,72,64
34680,note_on,40,0,9,,,,,,,,10,,,,72,45
34680,note_on,3440,0,8,,,,,,,,8,,,,73,45
34680,note_on,3440,0,3,,,,,,,,3,,,,73,45
34680,note_on,40,0,4,,,,,,,,4,,,,72,45
34710,note_off,30,0,8,,,,,,,,8,,,,73,64
34710,note_on,0,0,8,,,,,,,,8,,,,75,45
34710,note_on,0,0,9,,,,,,,,10,,,,73,45
34710,note_off,30,0,9,,,,,,,,10,,,,72,64
34710,note_off,30,0,4,,,,,,,,4,,,,72,64
34710,note_on,0,0,4,,,,,,,,4,,,,73,45
34710,note_on,0,0,3,,,,,,,,3,,,,75,45
34710,note_off,30,0,3,,,,,,,,3,,,,73,64
34740,note_on,0,0,3,,,,,,,,3,,,,73,45
34740,note_off,30,0,4,,,,,,,,4,,,,73,64
34740,note_on,0,0,4,,,,,,,,4,,,,72,45
34740,note_off,30,0,8,,,,,,,,8,,,,75,64
34740,note_on,0,0,8,,,,,,,,8,,,,73,45
34740,note_off,30,0,9,,,,,,,,10,,,,73,64
34740,note_on,0,0,9,,,,,,,,10,,,,72,45
34740,note_off,30,0,3,,,,,,,,3,,,,75,64
34770,note_off,30,0,8,,,,,,,,8,,,,73,64
34770,note_on,0,0,8,,,,,,,,8,,,,75,45
34770,note_off,30,0,9,,,,,,,,10,,,,72,64
34770,note_off,30,0,4,,,,,,,,4,,,,72,64
34770,note_on,0,0,4,,,,,,,,4,,,,73,45
34770,note_on,0,0,3,,,,,,,,3,,,,75,45
34770,note_off,30,0,3,,,,,,,,3,,,,73,64
34770,note_on,0,0,9,,,,,,,,10,,,,73,45
34800,note_on,0,0,3,,,,,,,,3,,,,73,45
34800,note_off,30,0,3,,,,,,,,3,,,,75,64
34800,note_on,0,0,9,,,,,,,,10,,,,72,45
34800,note_off,30,0,8,,,,,,,,8,,,,75,64
34800,note_off,30,0,9,,,,,,,,10,,,,73,64
34800,note_on,0,0,8,,,,,,,,8,,,,73,45
34800,note_on,0,0,4,,,,,,,,4,,,,72,45
34800,note_off,30,0,4,,,,,,,,4,,,,73,64
34880,note_off,80,0,4,,,,,,,,4,,,,72,64
34880,note_off,80,0,8,,,,,,,,8,,,,73,64
34880,note_off,80,0,3,,,,,,,,3,,,,73,64
34880,note_off,80,0,9,,,,,,,,10,,,,72,64
34920,note_on,40,0,8,,,,,,,,8,,,,73,45
34920,note_on,40,0,9,,,,,,,,10,,,,72,45
34920,note_on,40,0,3,,,,,,,,3,,,,73,45
34920,note_on,40,0,4,,,,,,,,4,,,,72,45
34950,note_on,0,0,3,,,,,,,,3,,,,75,45
34950,note_on,0,0,8,,,,,,,,8,,,,75,45
34950,note_off,30,0,8,,,,,,,,8,,,,73,64
34950,note_off,30,0,9,,,,,,,,10,,,,72,64
34950,note_on,0,0,9,,,,,,,,10,,,,73,45
34950,note_off,30,0,4,,,,,,,,4,,,,72,64
34950,note_off,30,0,3,,,,,,,,3,,,,73,64
34950,note_on,0,0,4,,,,,,,,4,,,,73,45
34980,note_on,0,0,9,,,,,,,,10,,,,72,45
34980,note_off,30,0,9,,,,,,,,10,,,,73,64
34980,note_off,30,0,8,,,,,,,,8,,,,75,64
34980,note_on,0,0,3,,,,,,,,3,,,,73,45
34980,note_off,30,0,3,,,,,,,,3,,,,75,64
34980,note_off,30,0,4,,,,,,,,4,,,,73,64
34980,note_on,0,0,8,,,,,,,,8,,,,73,45
34980,note_on,0,0,4,,,,,,,,4,,,,72,45
35010,note_off,30,0,8,,,,,,,,8,,,,73,64
35010,note_off,30,0,4,,,,,,,,4,,,,72,64
35010,note_on,0,0,4,,,,,,,,4,,,,73,45
35010,note_on,0,0,8,,,,,,,,8,,,,75,45
35010,note_on,0,0,3,,,,,,,,3,,,,75,45
35010,note_off,30,0,3,,,,,,,,3,,,,73,64
35010,note_off,30,0,9,,,,,,,,10,,,,72,64
35010,note_on,0,0,9,,,,,,,,10,,,,73,45
35040,note_off,30,0,8,,,,,,,,8,,,,75,64
35040,note_on,0,0,8,,,,,,,,8,,,,73,45
35040,note_on,0,0,3,,,,,,,,3,,,,73,45
35040,note_off,30,0,9,,,,,,,,10,,,,73,64
35040,note_on,0,0,9,,,,,,,,10,,,,72,45
35040,note_off,30,0,3,,,,,,,,3,,,,75,64
35040,note_off,30,0,4,,,,,,,,4,,,,73,64
35040,note_on,0,0,4,,,,,,,,4,,,,72,45
35120,note_off,80,0,4,,,,,,,,4,,,,72,64
35120,note_off,80,0,8,,,,,,,,8,,,,73,64
35120,note_off,80,0,9,,,,,,,,10,,,,72,64
35120,note_off,80,0,3,,,,,,,,3,,,,73,64
35160,note_on,40,0,8,,,,,,,,8,,,,73,45
35160,note_on,40,0,9,,,,,,,,10,,,,72,45
35160,note_on,40,0,3,,,,,,,,3,,,,73,45
35160,note_on,40,0,4,,,,,,,,4,,,,72,45
35190,note_off,30,0,9,,,,,,,,10,,,,72,64
35190,note_on,0,0,4,,,,,,,,4,,,,73,45
35190,note_on,0,0,3,,,,,,,,3,,,,75,45
35190,note_off,30,0,3,,,,,,,,3,,,,73,64
35190,note_on,0,0,9,,,,,,,,10,,,,73,45
35190,note_on,0,0,8,,,,,,,,8,,,,75,45
35190,note_off,30,0,8,,,,,,,,8,,,,73,64
35190,note_off,30,0,4,,,,,,,,4,,,,72,64
35220,note_off,30,0,4,,,,,,,,4,,,,73,64
35220,note_off,30,0,3,,,,,,,,3,,,,75,64
35220,note_on,0,0,4,,,,,,,,4,,,,72,45
35220,note_on,0,0,3,,,,,,,,3,,,,73,45
35220,note_off,30,0,8,,,,,,,,8,,,,75,64
35220,note_off,30,0,9,,,,,,,,10,,,,73,64
35220,note_on,0,0,9,,,,,,,,10,,,,72,45
35220,note_on,0,0,8,,,,,,,,8,,,,73,45
35250,note_on,0,0,8,,,,,,,,8,,,,75,45
35250,note_off,30,0,9,,,,,,,,10,,,,72,64
35250,note_on,0,0,9,,,,,,,,10,,,,73,45
35250,note_off,30,0,4,,,,,,,,4,,,,72,64
35250,note_off,30,0,8,,,,,,,,8,,,,73,64
35250,note_off,30,0,3,,,,,,,,3,,,,73,64
35250,note_on,0,0,3,,,,,,,,3,,,,75,45
35250,note_on,0,0,4,,,,,,,,4,,,,73,45
35280,note_off,30,0,9,,,,,,,,10,,,,73,64
35280,note_off,30,0,3,,,,,,,,3,,,,75,64
35280,note_on,0,0,3,,,,,,,,3,,,,73,45
35280,note_on,0,0,8,,,,,,,,8,,,,73,45
35280,note_off,30,0,8,,,,,,,,8,,,,75,64
35280,note_off,30,0,4,,,,,,,,4,,,,73,64
35280,note_on,0,0,4,,,,,,,,4,,,,72,45
35280,note_on,0,0,9,,,,,,,,10,,,,72,45
35360,note_off,80,0,4,,,,,,,,4,,,,72,64
35360,note_off,80,0,9,,,,,,,,10,,,,72,64
35360,note_off,80,0,3,,,,,,,,3,,,,73,64
35360,note_off,80,0,8,,,,,,,,8,,,,73,64
35400,note_on,40,0,9,,,,,,,,10,,,,72,45
35400,note_on,40,0,3,,,,,,,,3,,,,73,45
35400,note_on,40,0,4,,,,,,,,4,,,,72,45
35400,note_on,40,0,8,,,,,,,,8,,,,73,45
35430,note_off,30,0,3,,,,,,,,3,,,,73,64
35430,note_on,0,0,3,,,,,,,,3,,,,75,45
35430,note_off,30,0,4,,,,,,,,4,,,,72,64
35430,note_on,0,0,4,,,,,,,,4,,,,73,45
35430,note_off,30,0,9,,,,,,,,10,,,,72,64
35430,note_on,0,0,9,,,,,,,,10,,,,73,45
35430,note_on,0,0,8,,,,,,,,8,,,,75,45
35430,note_off,30,0,8,,,,,,,,8,,,,73,64
35460,note_off,30,0,4,,,,,,,,4,,,,73,64
35460,note_on,0,0,4,,,,,,,,4,,,,72,45
35460,note_off,30,0,9,,,,,,,,10,,,,73,64
35460,note_on,0,0,9,,,,,,,,10,,,,72,45
35460,note_off,30,0,8,,,,,,,,8,,,,75,64
35460,note_on,0,0,8,,,,,,,,8,,,,73,45
35460,note_off,30,0,3,,,,,,,,3,,,,75,64
35460,note_on,0,0,3,,,,,,,,3,,,,73,45
35490,note_on,0,0,9,,,,,,,,10,,,,73,45
35490,note_off,30,0,3,,,,,,,,3,,,,73,64
35490,note_on,0,0,3,,,,,,,,3,,,,75,45
35490,note_off,30,0,9,,,,,,,,10,,,,72,64
35490,note_off,30,0,4,,,,,,,,4,,,,72,64
35490,note_on,0,0,4,,,,,,,,4,,,,73,45
35490,note_on,0,0,8,,,,,,,,8,,,,75,45
35490,note_off,30,0,8,,,,,,,,8,,,,73,64
35520,note_on,0,0,9,,,,,,,,10,,,,72,45
35520,note_on,0,0,4,,,,,,,,4,,,,72,45
35520,note_off,30,0,3,,,,,,,,3,,,,75,64
35520,note_on,0,0,8,,,,,,,,8,,,,73,45
35520,note_off,30,0,8,,,,,,,,8,,,,75,64
35520,note_on,0,0,3,,,,,,,,3,,,,73,45
35520,note_off,30,0,4,,,,,,,,4,,,,73,64
35520,note_off,30,0,9,,,,,,,,10,,,,73,64
35600,note_off,80,0,8,,,,,,,,8,,,,73,64
35600,note_off,80,0,3,,,,,,,,3,,,,73,64
35600,note_off,80,0,4,,,,,,,,4,,,,72,64
35600,note_off,80,0,9,,,,,,,,10,,,,72,64
35640,note_on,40,0,8,,,,,,,,8,,,,76,45
35640,note_on,40,0,3,,,,,,,,3,,,,76,45
35640,note_on,40,0,4,,,,,,,,4,,,,70,45
35640,note_on,40,0,9,,,,,,,,10,,,,70,45
35670,note_on,0,0,4,,,,,,,,4,,,,72,45
35670,note_off,30,0,8,,,,,,,,8,,,,76,64
35670,note_on,0,0,8,,,,,,,,8,,,,77,45
35670,note_off,30,0,4,,,,,,,,4,,,,70,64
35670,note_off,30,0,9,,,,,,,,10,,,,70,64
35670,note_on,0,0,9,,,,,,,,10,,,,72,45
35670,note_on,0,0,3,,,,,,,,3,,,,77,45
35670,note_off,30,0,3,,,,,,,,3,,,,76,64
35700,note_on,0,0,8,,,,,,,,8,,,,76,45
35700,note_on,0,0,4,,,,,,,,4,,,,70,45
35700,note_off,30,0,4,,,,,,,,4,,,,72,64
35700,note_off,30,0,3,,,,,,,,3,,,,77,64
35700,note_off,30,0,8,,,,,,,,8,,,,77,64
35700,note_off,30,0,9,,,,,,,,10,,,,72,64
35700,note_on,0,0,9,,,,,,,,10,,,,70,45
35700,note_on,0,0,3,,,,,,,,3,,,,76,45
35730,note_off,30,0,3,,,,,,,,3,,,,76,64
35730,note_on,0,0,3,,,,,,,,3,,,,77,45
35730,note_on,0,0,8,,,,,,,,8,,,,77,45
35730,note_on,0,0,4,,,,,,,,4,,,,72,45
35730,note_off,30,0,4,,,,,,,,4,,,,70,64
35730,note_off,30,0,9,,,,,,,,10,,,,70,64
35730,note_on,0,0,9,,,,,,,,10,,,,72,45
35730,note_off,30,0,8,,,,,,,,8,,,,76,64
35760,note_off,30,0,9,,,,,,,,10,,,,72,64
35760,note_on,0,0,4,,,,,,,,4,,,,70,45
35760,note_on,0,0,9,,,,,,,,10,,,,70,45
35760,note_off,30,0,3,,,,,,,,3,,,,77,64
35760,note_on,0,0,3,,,,,,,,3,,,,76,45
35760,note_on,0,0,8,,,,,,,,8,,,,76,45
35760,note_off,30,0,4,,,,,,,,4,,,,72,64
35760,note_off,30,0,8,,,,,,,,8,,,,77,64
35840,note_off,80,0,4,,,,,,,,4,,,,70,64
35840,note_off,80,0,8,,,,,,,,8,,,,76,64
35840,note_off,80,0,3,,,,,,,,3,,,,76,64
35840,note_off,80,0,9,,,,,,,,10,,,,70,64
35880,note_on,40,0,8,,,,,,,,8,,,,76,45
35880,note_on,40,0,9,,,,,,,,10,,,,70,45
35880,note_on,40,0,3,,,,,,,,3,,,,76,45
35880,note_on,40,0,4,,,,,,,,4,,,,70,45
35910,note_on,0,0,8,,,,,,,,8,,,,77,45
35910,note_on,0,0,9,,,,,,,,10,,,,72,45
35910,note_on,0,0,3,,,,,,,,3,,,,77,45
35910,note_off,30,0,3,,,,,,,,3,,,,76,64
35910,note_off,30,0,9,,,,,,,,10,,,,70,64
35910,note_off,30,0,8,,,,,,,,8,,,,76,64
35910,note_on,0,0,4,,,,,,,,4,,,,72,45
35910,note_off,30,0,4,,,,,,,,4,,,,70,64
35940,note_on,0,0,9,,,,,,,,10,,,,70,45
35940,note_off,30,0,9,,,,,,,,10,,,,72,64
35940,note_off,30,0,4,,,,,,,,4,,,,72,64
35940,note_on,0,0,3,,,,,,,,3,,,,76,45
35940,note_off,30,0,3,,,,,,,,3,,,,77,64
35940,note_on,0,0,8,,,,,,,,8,,,,76,45
35940,note_off,30,0,8,,,,,,,,8,,,,77,64
35940,note_on,0,0,4,,,,,,,,4,,,,70,45
35970,note_on,0,0,4,,,,,,,,4,,,,72,45
35970,note_on,0,0,3,,,,,,,,3,,,,77,45
35970,note_off,30,0,4,,,,,,,,4,,,,70,64
35970,note_off,30,0,3,,,,,,,,3,,,,76,64
35970,note_on,0,0,9,,,,,,,,10,,,,72,45
35970,note_off,30,0,8,,,,,,,,8,,,,76,64
35970,note_on,0,0,8,,,,,,,,8,,,,77,45
35970,note_off,30,0,9,,,,,,,,10,,,,70,64
36000,note_on,0,0,9,,,,,,,,10,,,,70,45
36000,note_on,0,0,4,,,,,,,,4,,,,70,45
36000,note_off,30,0,9,,,,,,,,10,,,,72,64
36000,note_off,30,0,4,,,,,,,,4,,,,72,64
36000,note_on,0,0,3,,,,,,,,3,,,,76,45
36000,note_off,30,0,3,,,,,,,,3,,,,77,64
36000,note_on,0,0,8,,,,,,,,8,,,,76,45
36000,note_off,30,0,8,,,,,,,,8,,,,77,64
36080,note_off,80,0,3,,,,,,,,3,,,,76,64
36080,note_off,80,0,9,,,,,,,,10,,,,70,64
36080,note_off,80,0,4,,,,,,,,4,,,,70,64
36080,note_off,80,0,8,,,,,,,,8,,,,76,64
36120,note_on,40,0,3,,,,,,,,3,,,,76,45
36120,note_on,40,0,9,,,,,,,,10,,,,70,45
36120,note_on,40,0,8,,,,,,,,8,,,,76,45
36120,note_on,40,0,4,,,,,,,,4,,,,70,45
36150,note_on,0,0,4,,,,,,,,4,,,,72,45
36150,note_off,30,0,4,,,,,,,,4,,,,70,64
36150,note_off,30,0,8,,,,,,,,8,,,,76,64
36150,note_on,0,0,8,,,,,,,,8,,,,77,45
36150,note_on,0,0,9,,,,,,,,10,,,,72,45
36150,note_off,30,0,9,,,,,,,,10,,,,70,64
36150,note_off,30,0,3,,,,,,,,3,,,,76,64
36150,note_on,0,0,3,,,,,,,,3,,,,77,45
36180,note_off,30,0,4,,,,,,,,4,,,,72,64
36180,note_on,0,0,3,,,,,,,,3,,,,76,45
36180,note_off,30,0,3,,,,,,,,3,,,,77,64
36180,note_on,0,0,4,,,,,,,,4,,,,70,45
36180,note_on,0,0,9,,,,,,,,10,,,,70,45
36180,note_on,0,0,8,,,,,,,,8,,,,76,45
36180,note_off,30,0,8,,,,,,,,8,,,,77,64
36180,note_off,30,0,9,,,,,,,,10,,,,72,64
36210,note_off,30,0,3,,,,,,,,3,,,,76,64
36210,note_on,0,0,4,,,,,,,,4,,,,72,45
36210,note_off,30,0,4,,,,,,,,4,,,,70,64
36210,note_on,0,0,9,,,,,,,,10,,,,72,45
36210,note_off,30,0,9,,,,,,,,10,,,,70,64
36210,note_on,0,0,8,,,,,,,,8,,,,77,45
36210,note_off,30,0,8,,,,,,,,8,,,,76,64
36210,note_on,0,0,3,,,,,,,,3,,,,77,45
36240,note_off,30,0,4,,,,,,,,4,,,,72,64
36240,note_on,0,0,4,,,,,,,,4,,,,70,45
36240,note_on,0,0,9,,,,,,,,10,,,,70,45
36240,note_on,0,0,3,,,,,,,,3,,,,76,45
36240,note_off,30,0,3,,,,,,,,3,,,,77,64
36240,note_off,30,0,8,,,,,,,,8,,,,77,64
36240,note_on,0,0,8,,,,,,,,8,,,,76,45
36240,note_off,30,0,9,,,,,,,,10,,,,72,64
36320,note_off,80,0,3,,,,,,,,3,,,,76,64
36320,note_off,80,0,8,,,,,,,,8,,,,76,64
36320,note_off,80,0,9,,,,,,,,10,,,,70,64
36320,note_off,80,0,4,,,,,,,,4,,,,70,64
36360,note_on,40,0,8,,,,,,,,8,,,,76,45
36360,note_on,40,0,9,,,,,,,,10,,,,70,45
36360,note_on,40,0,3,,,,,,,,3,,,,76,45
36360,note_on,40,0,4,,,,,,,,4,,,,70,45
36390,note_on,0,0,9,,,,,,,,10,,,,72,45
36390,note_off,30,0,9,,,,,,,,10,,,,70,64
36390,note_on,0,0,4,,,,,,,,4,,,,72,45
36390,note_off,30,0,3,,,,,,,,3,,,,76,64
36390,note_off,30,0,4,,,,,,,,4,,,,70,64
36390,note_on,0,0,3,,,,,,,,3,,,,77,45
36390,note_on,0,0,8,,,,,,,,8,,,,77,45
36390,note_off,30,0,8,,,,,,,,8,,,,76,64
36420,note_off,30,0,9,,,,,,,,10,,,,72,64
36420,note_on,0,0,9,,,,,,,,10,,,,70,45
36420,note_off,30,0,4,,,,,,,,4,,,,72,64
36420,note_on,0,0,4,,,,,,,,4,,,,70,45
36420,note_on,0,0,3,,,,,,,,3,,,,76,45
36420,note_off,30,0,3,,,,,,,,3,,,,77,64
36420,note_off,30,0,8,,,,,,,,8,,,,77,64
36420,note_on,0,0,8,,,,,,,,8,,,,76,45
36450,note_on,0,0,3,,,,,,,,3,,,,77,45
36450,note_off,30,0,4,,,,,,,,4,,,,70,64
36450,note_on,0,0,4,,,,,,,,4,,,,72,45
36450,note_off,30,0,3,,,,,,,,3,,,,76,64
36450,note_on,0,0,9,,,,,,,,10,,,,72,45
36450,note_off,30,0,9,,,,,,,,10,,,,70,64
36450,note_off,30,0,8,,,,,,,,8,,,,76,64
36450,note_on,0,0,8,,,,,,,,8,,,,77,45
36480,note_off,30,0,8,,,,,,,,8,,,,77,64
36480,note_on,0,0,8,,,,,,,,8,,,,76,45
36480,note_on,0,0,3,,,,,,,,3,,,,76,45
36480,note_off,30,0,9,,,,,,,,10,,,,72,64
36480,note_on,0,0,4,,,,,,,,4,,,,70,45
36480,note_off,30,0,4,,,,,,,,4,,,,72,64
36480,note_on,0,0,9,,,,,,,,10,,,,70,45
36480,note_off,30,0,3,,,,,,,,3,,,,77,64
36560,note_off,80,0,3,,,,,,,,3,,,,76,64
36560,note_off,80,0,4,,,,,,,,4,,,,70,64
36560,note_off,80,0,9,,,,,,,,10,,,,70,64
36560,note_off,80,0,8,,,,,,,,8,,,,76,64
36600,note_on,40,0,3,,,,,,,,3,,,,77,45
36600,note_on,5360,0,7,,,,,,,,7,,,,41,45
36600,note_on,5360,0,11,,,,,,,,12,,,,53,45
36600,note_on,40,0,8,,,,,,,,8,,,,77,45
36600,note_on,5360,0,12,,,,,,,,13,,,,41,45
36600,note_on,5360,0,13,,,,,,,,14,,,,41,30
36600,note_on,5360,0,6,,,,,,,,6,,,,53,45
36600,note_on,40,0,9,,,,,,,,10,,,,68,45
36600,note_on,40,0,4,,,,,,,,4,,,,68,45
36630,note_off,30,0,4,,,,,,,,4,,,,68,64
36630,note_on,0,0,4,,,,,,,,4,,,,70,45
36630,note_off,30,0,9,,,,,,,,10,,,,68,64
36630,note_on,0,0,9,,,,,,,,10,,,,70,45
36660,note_on,0,0,9,,,,,,,,10,,,,68,45
36660,note_off,30,0,9,,,,,,,,10,,,,70,64
36660,note_on,0,0,4,,,,,,,,4,,,,68,45
36660,note_off,30,0,4,,,,,,,,4,,,,70,64
36680,note_off,80,0,6,,,,,,,,6,,,,53,64
36680,note_off,80,0,11,,,,,,,,12,,,,53,64
36680,note_off,80,0,3,,,,,,,,3,,,,77,64
36680,note_off,80,0,12,,,,,,,,13,,,,41,64
36680,note_off,80,0,7,,,,,,,,7,,,,41,64
36680,note_off,80,0,8,,,,,,,,8,,,,77,64
36690,note_on,0,0,9,,,,,,,,10,,,,70,45
36690,note_on,0,0,4,,,,,,,,4,,,,70,45
36690,note_off,30,0,9,,,,,,,,10,,,,68,64
36690,note_off,30,0,4,,,,,,,,4,,,,68,64
36720,note_on,0,0,9,,,,,,,,10,,,,68,45
36720,note_off,30,0,9,,,,,,,,10,,,,70,64
36720,note_on,0,0,4,,,,,,,,4,,,,68,45
36720,note_on,40,0,8,,,,,,,,8,,,,65,45
36720,note_off,30,0,4,,,,,,,,4,,,,70,64
36720,note_on,40,0,3,,,,,,,,3,,,,65,45
36800,note_off,80,0,3,,,,,,,,3,,,,65,64
36800,note_off,80,0,4,,,,,,,,4,,,,68,64
36800,note_off,80,0,9,,,,,,,,10,,,,68,64
36800,note_off,80,0,8,,,,,,,,8,,,,65,64
36835,note_off,235,0,13,,,,,,,,14,,,,41,64
36840,note_on,160,0,11,,,,,,,,12,,,,53,45
36840,note_on,160,0,6,,,,,,,,6,,,,53,45
36840,note_on,40,0,3,,,,,,,,3,,,,65,45
36840,note_on,40,0,4,,,,,,,,4,,,,68,45
36840,note_on,5,0,13,,,,,,,,14,,,,41,30
36840,note_on,160,0,12,,,,,,,,13,,,,41,45
36840,note_on,160,0,7,,,,,,,,7,,,,41,45
36840,note_on,40,0,9,,,,,,,,10,,,,68,45
36840,note_on,40,0,8,,,,,,,,8,,,,65,45
36870,note_off,30,0,4,,,,,,,,4,,,,68,64
36870,note_on,0,0,9,,,,,,,,10,,,,70,45
36870,note_on,0,0,4,,,,,,,,4,,,,70,45
36870,note_off,30,0,9,,,,,,,,10,,,,68,64
36900,note_on,0,0,4,,,,,,,,4,,,,68,45
36900,note_off,30,0,4,,,,,,,,4,,,,70,64
36900,note_off,30,0,9,,,,,,,,10,,,,70,64
36900,note_on,0,0,9,,,,,,,,10,,,,68,45
36920,note_off,80,0,7,,,,,,,,7,,,,41,64
36920,note_off,80,0,12,,,,,,,,13,,,,41,64
36920,note_off,80,0,3,,,,,,,,3,,,,65,64
36920,note_off,80,0,6,,,,,,,,6,,,,53,64
36920,note_off,80,0,11,,,,,,,,12,,,,53,64
36920,note_off,80,0,8,,,,,,,,8,,,,65,64
36930,note_off,30,0,4,,,,,,,,4,,,,68,64
36930,note_on,0,0,4,,,,,,,,4,,,,70,45
36930,note_on,0,0,9,,,,,,,,10,,,,70,45
36930,note_off,30,0,9,,,,,,,,10,,,,68,64
36960,note_on,40,0,8,,,,,,,,8,,,,65,45
36960,note_on,0,0,9,,,,,,,,10,,,,68,45
36960,note_on,40,0,3,,,,,,,,3,,,,65,45
36960,note_off,30,0,4,,,,,,,,4,,,,70,64
36960,note_on,0,0,4,,,,,,,,4,,,,68,45
36960,note_off,30,0,9,,,,,,,,10,,,,70,64
37040,note_off,80,0,8,,,,,,,,8,,,,65,64
37040,note_off,80,0,9,,,,,,,,10,,,,68,64
37040,note_off,80,0,3,,,,,,,,3,,,,65,64
37040,note_off,80,0,4,,,,,,,,4,,,,68,64
37075,note_off,235,0,13,,,,,,,,14,,,,41,64
37080,note_on,40,0,8,,,,,,,,8,,,,65,45
37080,note_on,160,0,12,,,,,,,,13,,,,41,45
37080,note_on,160,0,7,,,,,,,,7,,,,41,45
37080,note_on,160,0,6,,,,,,,,6,,,,53,45
37080,note_on,40,0,9,,,,,,,,10,,,,68,45
37080,note_on,40,0,4,,,,,,,,4,,,,68,45
37080,note_on,40,0,3,,,,,,,,3,,,,65,45
37080,note_on,5,0,13,,,,,,,,14,,,,41,30
37080,note_on,160,0,11,,,,,,,,12,,,,53,45
37110,note_off,30,0,9,,,,,,,,10,,,,68,64
37110,note_on,0,0,4,,,,,,,,4,,,,70,45
37110,note_off,30,0,4,,,,,,,,4,,,,68,64
37110,note_on,0,0,9,,,,,,,,10,,,,70,45
37140,note_off,30,0,4,,,,,,,,4,,,,70,64
37140,note_on,0,0,4,,,,,,,,4,,,,68,45
37140,note_on,0,0,9,,,,,,,,10,,,,68,45
37140,note_off,30,0,9,,,,,,,,10,,,,70,64
37160,note_off,80,0,3,,,,,,,,3,,,,65,64
37160,note_off,80,0,6,,,,,,,,6,,,,53,64
37160,note_off,80,0,12,,,,,,,,13,,,,41,64
37160,note_off,80,0,7,,,,,,,,7,,,,41,64
37160,note_off,80,0,11,,,,,,,,12,,,,53,64
37160,note_off,80,0,8,,,,,,,,8,,,,65,64
37170,note_off,30,0,4,,,,,,,,4,,,,68,64
37170,note_on,0,0,4,,,,,,,,4,,,,70,45
37170,note_off,30,0,9,,,,,,,,10,,,,68,64
37170,note_on,0,0,9,,,,,,,,10,,,,70,45
37200,note_off,30,0,9,,,,,,,,10,,,,70,64
37200,note_on,0,0,9,,,,,,,,10,,,,68,45
37200,note_on,40,0,8,,,,,,,,8,,,,65,45
37200,note_off,30,0,4,,,,,,,,4,,,,70,64
37200,note_on,0,0,4,,,,,,,,4,,,,68,45
37200,note_on,40,0,3,,,,,,,,3,,,,65,45
37280,note_off,80,0,8,,,,,,,,8,,,,65,64
37280,note_off,80,0,3,,,,,,,,3,,,,65,64
37280,note_off,80,0,4,,,,,,,,4,,,,68,64
37280,note_off,80,0,9,,,,,,,,10,,,,68,64
37315,note_off,235,0,13,,,,,,,,14,,,,41,64
37320,note_on,40,0,3,,,,,,,,3,,,,65,45
37320,note_on,40,0,8,,,,,,,,8,,,,65,45
37320,note_on,160,0,6,,,,,,,,6,,,,53,45
37320,note_on,160,0,12,,,,,,,,13,,,,41,45
37320,note_on,40,0,9,,,,,,,,10,,,,68,45
37320,note_on,5,0,13,,,,,,,,14,,,,41,30
37320,note_on,40,0,4,,,,,,,,4,,,,68,45
37320,note_on,160,0,11,,,,,,,,12,,,,53,45
37320,note_on,160,0,7,,,,,,,,7,,,,41,45
37350,note_off,30,0,4,,,,,,,,4,,,,68,64
37350,note_on,0,0,9,,,,,,,,10,,,,70,45
37350,note_off,30,0,9,,,,,,,,10,,,,68,64
37350,note_on,0,0,4,,,,,,,,4,,,,70,45
37380,note_off,30,0,9,,,,,,,,10,,,,70,64
37380,note_on,0,0,4,,,,,,,,4,,,,68,45
37380,note_off,30,0,4,,,,,,,,4,,,,70,64
37380,note_on,0,0,9,,,,,,,,10,,,,68,45
37400,note_off,80,0,6,,,,,,,,6,,,,53,64
37400,note_off,80,0,12,,,,,,,,13,,,,41,64
37400,note_off,80,0,8,,,,,,,,8,,,,65,64
37400,note_off,80,0,7,,,,,,,,7,,,,41,64
37400,note_off,80,0,11,,,,,,,,12,,,,53,64
37400,note_off,80,0,3,,,,,,,,3,,,,65,64
37410,note_off,30,0,9,,,,,,,,10,,,,68,64
37410,note_on,0,0,9,,,,,,,,10,,,,70,45
37410,note_off,30,0,4,,,,,,,,4,,,,68,64
37410,note_on,0,0,4,,,,,,,,4,,,,70,45
37440,note_on,40,0,3,,,,,,,,3,,,,65,45
37440,note_on,40,0,8,,,,,,,,8,,,,65,45
37440,note_off,30,0,9,,,,,,,,10,,,,70,64
37440,note_on,0,0,9,,,,,,,,10,,,,68,45
37440,note_off,30,0,4,,,,,,,,4,,,,70,64
37440,note_on,0,0,4,,,,,,,,4,,,,68,45
37520,note_off,80,0,3,,,,,,,,3,,,,65,64
37520,note_off,80,0,8,,,,,,,,8,,,,65,64
37520,note_off,80,0,4,,,,,,,,4,,,,68,64
37520,note_off,80,0,9,,,,,,,,10,,,,68,64
37555,note_off,235,0,13,,,,,,,,14,,,,41,64
37560,note_on,40,0,4,,,,,,,,4,,,,70,45
37560,note_on,6320,0,5,,,,,,,,5,,,,66,45
37560,note_on,160,0,7,,,,,,,,7,,,,41,45
37560,note_on,160,0,6,,,,,,,,6,,,,53,45
37560,note_on,40,0,3,,,,,,,,3,,,,65,45
37560,note_on,40,0,8,,,,,,,,8,,,,65,45
37560,note_on,6320,0,10,,,,,,,,11,,,,66,45
37560,note_on,5,0,13,,,,,,,,14,,,,41,30
37560,note_on,40,0,9,,,,,,,,10,,,,70,45
37560,note_on,160,0,11,,,,,,,,12,,,,53,45
37560,note_on,160,0,12,,,,,,,,13,,,,41,45
37590,note_on,0,0,9,,,,,,,,10,,,,72,45
37590,note_off,30,0,10,,,,,,,,11,,,,66,64
37590,note_off,30,0,9,,,,,,,,10,,,,70,64
37590,note_on,0,0,10,,,,,,,,11,,,,68,45
37590,note_on,0,0,4,,,,,,,,4,,,,72,45
37590,note_off,30,0,4,,,,,,,,4,,,,70,64
37590,note_off,30,0,5,,,,,,,,5,,,,66,64
37590,note_on,0,0,5,,,,,,,,5,,,,68,45
37620,note_off,30,0,9,,,,,,,,10,,,,72,64
37620,note_on,0,0,10,,,,,,,,11,,,,66,45
37620,note_off,30,0,10,,,,,,,,11,,,,68,64
37620,note_off,30,0,5,,,,,,,,5,,,,68,64
37620,note_on,0,0,9,,,,,,,,10,,,,70,45
37620,note_off,30,0,4,,,,,,,,4,,,,72,64
37620,note_on,0,0,4,,,,,,,,4,,,,70,45
37620,note_on,0,0,5,,,,,,,,5,,,,66,45
37640,note_off,80,0,7,,,,,,,,7,,,,41,64
37640,note_off,80,0,11,,,,,,,,12,,,,53,64
37640,note_off,80,0,12,,,,,,,,13,,,,41,64
37640,note_off,80,0,6,,,,,,,,6,,,,53,64
37640,note_off,80,0,3,,,,,,,,3,,,,65,64
37640,note_off,80,0,8,,,,,,,,8,,,,65,64
37650,note_on,0,0,9,,,,,,,,10,,,,72,45
37650,note_off,30,0,4,,,,,,,,4,,,,70,64
37650,note_on,0,0,4,,,,,,,,4,,,,72,45
37650,note_on,0,0,5,,,,,,,,5,,,,68,45
37650,note_off,30,0,9,,,,,,,,10,,,,70,64
37650,note_off,30,0,10,,,,,,,,11,,,,66,64
37650,note_on,0,0,10,,,,,,,,11,,,,68,45
37650,note_off,30,0,5,,,,,,,,5,,,,66,64
37680,note_on,0,0,4,,,,,,,,4,,,,70,45
37680,note_on,40,0,3,,,,,,,,3,,,,65,45
37680,note_on,40,0,8,,,,,,,,8,,,,65,45
37680,note_off,30,0,4,,,,,,,,4,,,,72,64
37680,note_off,30,0,10,,,,,,,,11,,,,68,64
37680,note_on,0,0,10,,,,,,,,11,,,,66,45
37680,note_on,0,0,9,,,,,,,,10,,,,70,45
37680,note_off,30,0,9,,,,,,,,10,,,,72,64
37680,note_on,0,0,5,,,,,,,,5,,,,66,45
37680,note_off,30,0,5,,,,,,,,5,,,,68,64
37760,note_off,80,0,5,,,,,,,,5,,,,66,64
37760,note_off,80,0,3,,,,,,,,3,,,,65,64
37760,note_off,80,0,9,,,,,,,,10,,,,70,64
37760,note_off,80,0,8,,,,,,,,8,,,,65,64
37760,note_off,80,0,10,,,,,,,,11,,,,66,64
37760,note_off,80,0,4,,,,,,,,4,,,,70,64
37795,note_off,235,0,13,,,,,,,,14,,,,41,64
37800,note_on,40,0,9,,,,,,,,10,,,,70,45
37800,note_on,40,0,8,,,,,,,,8,,,,65,45
37800,note_on,40,0,10,,,,,,,,11,,,,66,45
37800,note_on,40,0,3,,,,,,,,3,,,,65,45
37800,note_on,40,0,4,,,,,,,,4,,,,70,45
37800,note_on,160,0,11,,,,,,,,12,,,,53,45
37800,note_on,160,0,7,,,,,,,,7,,,,41,45
37800,note_on,160,0,12,,,,,,,,13,,,,41,45
37800,note_on,160,0,6,,,,,,,,6,,,,53,45
37800,note_on,40,0,5,,,,,,,,5,,,,66,45
37800,note_on,5,0,13,,,,,,,,14,,,,41,30
37830,note_on,0,0,4,,,,,,,,4,,,,72,45
37830,note_off,30,0,4,,,,,,,,4,,,,70,64
37830,note_off,30,0,5,,,,,,,,5,,,,66,64
37830,note_on,0,0,5,,,,,,,,5,,,,68,45
37830,note_on,0,0,10,,,,,,,,11,,,,68,45
37830,note_off,30,0,10,,,,,,,,11,,,,66,64
37830,note_off,30,0,9,,,,,,,,10,,,,70,64
37830,note_on,0,0,9,,,,,,,,10,,,,72,45
37860,note_off,30,0,4,,,,,,,,4,,,,72,64
37860,note_on,0,0,4,,,,,,,,4,,,,70,45
37860,note_off,30,0,5,,,,,,,,5,,,,68,64
37860,note_on,0,0,10,,,,,,,,11,,,,66,45
37860,note_off,30,0,10,,,,,,,,11,,,,68,64
37860,note_on,0,0,9,,,,,,,,10,,,,70,45
37860,note_on,0,0,5,,,,,,,,5,,,,66,45
37860,note_off,30,0,9,,,,,,,,10,,,,72,64
37880,note_off,80,0,8,,,,,,,,8,,,,65,64
37880,note_off,80,0,3,,,,,,,,3,,,,65,64
37880,note_off,80,0,12,,,,,,,,13,,,,41,64
37880,note_off,80,0,11,,,,,,,,12,,,,53,64
37880,note_off,80,0,6,,,,,,,,6,,,,53,64
37880,note_off,80,0,7,,,,,,,,7,,,,41,64
37890,note_on,0,0,4,,,,,,,,4,,,,72,45
37890,note_off,30,0,4,,,,,,,,4,,,,70,64
37890,note_on,0,0,9,,,,,,,,10,,,,72,45
37890,note_on,0,0,5,,,,,,,,5,,,,68,45
37890,note_off,30,0,9,,,,,,,,10,,,,70,64
37890,note_on,0,0,10,,,,,,,,11,,,,68,45
37890,note_off,30,0,5,,,,,,,,5,,,,66,64
37890,note_off,30,0,10,,,,,,,,11,,,,66,64
37920,note_on,40,0,8,,,,,,,,8,,,,65,45
37920,note_on,40,0,3,,,,,,,,3,,,,65,45
37920,note_on,0,0,4,,,,,,,,4,,,,70,45
37920,note_off,30,0,4,,,,,,,,4,,,,72,64
37920,note_on,0,0,5,,,,,,,,5,,,,66,45
37920,note_off,30,0,10,,,,,,,,11,,,,68,64
37920,note_off,30,0,5,,,,,,,,5,,,,68,64
37920,note_on,0,0,10,,,,,,,,11,,,,66,45
37920,note_off,30,0,9,,,,,,,,10,,,,72,64
37920,note_on,0,0,9,,,,,,,,10,,,,70,45
38000,note_off,80,0,4,,,,,,,,4,,,,70,64
38000,note_off,80,0,5,,,,,,,,5,,,,66,64
38000,note_off,80,0,10,,,,,,,,11,,,,66,64
38000,note_off,80,0,8,,,,,,,,8,,,,65,64
38000,note_off,80,0,3,,,,,,,,3,,,,65,64
38000,note_off,80,0,9,,,,,,,,10,,,,70,64
38035,note_off,235,0,13,,,,,,,,14,,,,41,64
38040,note_on,40,0,3,,,,,,,,3,,,,65,45
38040,note_on,160,0,12,,,,,,,,13,,,,41,45
38040,note_on,40,0,9,,,,,,,,10,,,,70,45
38040,note_on,160,0,6,,,,,,,,6,,,,53,45
38040,note_on,40,0,5,,,,,,,,5,,,,66,45
38040,note_on,160,0,7,,,,,,,,7,,,,41,45
38040,note_on,160,0,11,,,,,,,,12,,,,53,45
38040,note_on,5,0,13,,,,,,,,14,,,,41,30
38040,note_on,40,0,8,,,,,,,,8,,,,65,45
38040,note_on,40,0,4,,,,,,,,4,,,,70,45
38040,note_on,40,0,10,,,,,,,,11,,,,66,45
38070,note_off,30,0,4,,,,,,,,4,,,,70,64
38070,note_on,0,0,4,,,,,,,,4,,,,72,45
38070,note_on,0,0,5,,,,,,,,5,,,,68,45
38070,note_off,30,0,9,,,,,,,,10,,,,70,64
38070,note_off,30,0,5,,,,,,,,5,,,,66,64
38070,note_on,0,0,9,,,,,,,,10,,,,72,45
38070,note_on,0,0,10,,,,,,,,11,,,,68,45
38070,note_off,30,0,10,,,,,,,,11,,,,66,64
38100,note_off,30,0,5,,,,,,,,5,,,,68,64
38100,note_on,0,0,5,,,,,,,,5,,,,66,45
38100,note_off,30,0,10,,,,,,,,11,,,,68,64
38100,note_off,30,0,9,,,,,,,,10,,,,72,64
38100,note_on,0,0,4,,,,,,,,4,,,,70,45
38100,note_off,30,0,4,,,,,,,,4,,,,72,64
38100,note_on,0,0,10,,,,,,,,11,,,,66,45
38100,note_on,0,0,9,,,,,,,,10,,,,70,45
38120,note_off,80,0,3,,,,,,,,3,,,,65,64
38120,note_off,80,0,11,,,,,,,,12,,,,53,64
38120,note_off,80,0,7,,,,,,,,7,,,,41,64
38120,note_off,80,0,12,,,,,,,,13,,,,41,64
38120,note_off,80,0,6,,,,,,,,6,,,,53,64
38120,note_off,80,0,8,,,,,,,,8,,,,65,64
38130,note_on,0,0,5,,,,,,,,5,,,,68,45
38130,note_on,0,0,9,,,,,,,,10,,,,72,45
38130,note_off,30,0,5,,,,,,,,5,,,,66,64
38130,note_off,30,0,4,,,,,,,,4,,,,70,64
38130,note_on,0,0,4,,,,,,,,4,,,,72,45
38130,note_off,30,0,10,,,,,,,,11,,,,66,64
38130,note_off,30,0,9,,,,,,,,10,,,,70,64
38130,note_on,0,0,10,,,,,,,,11,,,,68,45
38160,note_off,30,0,9,,,,,,,,10,,,,72,64
38160,note_on,0,0,9,,,,,,,,10,,,,70,45
38160,note_on,0,0,10,,,,,,,,11,,,,66,45
38160,note_off,30,0,10,,,,,,,,11,,,,68,64
38160,note_off,30,0,4,,,,,,,,4,,,,72,64
38160,note_on,40,0,8,,,,,,,,8,,,,65,45
38160,note_on,0,0,5,,,,,,,,5,,,,66,45
38160,note_off,30,0,5,,,,,,,,5,,,,68,64
38160,note_on,40,0,3,,,,,,,,3,,,,65,45
38160,note_on,0,0,4,,,,,,,,4,,,,70,45
38240,note_off,80,0,9,,,,,,,,10,,,,70,64
38240,note_off,80,0,3,,,,,,,,3,,,,65,64
38240,note_off,80,0,10,,,,,,,,11,,,,66,64
38240,note_off,80,0,8,,,,,,,,8,,,,65,64
38240,note_off,80,0,5,,,,,,,,5,,,,66,64
38240,note_off,80,0,4,,,,,,,,4,,,,70,64
38275,note_off,235,0,13,,,,,,,,14,,,,41,64
38280,note_on,40,0,4,,,,,,,,4,,,,70,45
38280,note_on,40,0,3,,,,,,,,3,,,,65,45
38280,note_on,5,0,13,,,,,,,,14,,,,41,30
38280,note_on,160,0,11,,,,,,,,12,,,,53,45
38280,note_on,40,0,8,,,,,,,,8,,,,65,45
38280,note_on,160,0,12,,,,,,,,13,,,,41,45
38280,note_on,40,0,10,,,,,,,,11,,,,66,45
38280,note_on,160,0,7,,,,,,,,7,,,,41,45
38280,note_on,40,0,5,,,,,,,,5,,,,66,45
38280,note_on,40,0,9,,,,,,,,10,,,,70,45
38280,note_on,160,0,6,,,,,,,,6,,,,53,45
38310,note_on,0,0,4,,,,,,,,4,,,,72,45
38310,note_off,30,0,10,,,,,,,,11,,,,66,64
38310,note_on,0,0,10,,,,,,,,11,,,,68,45
38310,note_off,30,0,5,,,,,,,,5,,,,66,64
38310,note_on,0,0,5,,,,,,,,5,,,,68,45
38310,note_off,30,0,4,,,,,,,,4,,,,70,64
38310,note_off,30,0,9,,,,,,,,10,,,,70,64
38310,note_on,0,0,9,,,,,,,,10,,,,72,45
38340,note_off,30,0,4,,,,,,,,4,,,,72,64
38340,note_off,30,0,10,,,,,,,,11,,,,68,64
38340,note_on,0,0,10,,,,,,,,11,,,,66,45
38340,note_on,0,0,4,,,,,,,,4,,,,70,45
38340,note_off,30,0,9,,,,,,,,10,,,,72,64
38340,note_on,0,0,9,,,,,,,,10,,,,70,45
38340,note_off,30,0,5,,,,,,,,5,,,,68,64
38340,note_on,0,0,5,,,,,,,,5,,,,66,45
38360,note_off,80,0,6,,,,,,,,6,,,,53,64
38360,note_off,80,0,11,,,,,,,,12,,,,53,64
38360,note_off,80,0,8,,,,,,,,8,,,,65,64
38360,note_off,80,0,3,,,,,,,,3,,,,65,64
38360,note_off,80,0,12,,,,,,,,13,,,,41,64
38360,note_off,80,0,7,,,,,,,,7,,,,41,64
38370,note_off,30,0,9,,,,,,,,10,,,,70,64
38370,note_on,0,0,9,,,,,,,,10,,,,72,45
38370,note_on,0,0,5,,,,,,,,5,,,,68,45
38370,note_off,30,0,4,,,,,,,,4,,,,70,64
38370,note_on,0,0,4,,,,,,,,4,,,,72,45
38370,note_off,30,0,5,,,,,,,,5,,,,66,64
38370,note_off,30,0,10,,,,,,,,11,,,,66,64
38370,note_on,0,0,10,,,,,,,,11,,,,68,45
38400,note_off,30,0,9,,,,,,,,10,,,,72,64
38400,note_on,0,0,9,,,,,,,,10,,,,70,45
38400,note_on,0,0,5,,,,,,,,5,,,,66,45
38400,note_off,30,0,10,,,,,,,,11,,,,68,64
38400,note_on,0,0,10,,,,,,,,11,,,,66,45
38400,note_on,40,0,3,,,,,,,,3,,,,65,45
38400,note_off,30,0,4,,,,,,,,4,,,,72,64
38400,note_on,40,0,8,,,,,,,,8,,,,65,45
38400,note_off,30,0,5,,,,,,,,5,,,,68,64
38400,note_on,0,0,4,,,,,,,,4,,,,70,45
38480,note_off,80,0,9,,,,,,,,10,,,,70,64
38480,note_off,80,0,5,,,,,,,,5,,,,66,64
38480,note_off,80,0,10,,,,,,,,11,,,,66,64
38480,note_off,80,0,3,,,,,,,,3,,,,65,64
38480,note_off,80,0,8,,,,,,,,8,,,,65,64
38480,note_off,80,0,4,,,,,,,,4,,,,70,64
38515,note_off,235,0,13,,,,,,,,14,,,,41,64
38520,note_on,40,0,5,,,,,,,,5,,,,69,45
38520,note_on,40,0,9,,,,,,,,10,,,,72,45
38520,note_on,40,0,8,,,,,,,,8,,,,65,45
38520,note_on,160,0,12,,,,,,,,13,,,,39,45
38520,note_on,160,0,7,,,,,,,,7,,,,39,45
38520,note_on,5,0,13,,,,,,,,14,,,,39,30
38520,note_on,40,0,4,,,,,,,,4,,,,72,45
38520,note_on,40,0,3,,,,,,,,3,,,,65,45
38520,note_on,160,0,6,,,,,,,,6,,,,51,45
38520,note_on,40,0,10,,,,,,,,11,,,,69,45
38520,note_on,160,0,11,,,,,,,,12,,,,51,45
38550,note_on,0,0,4,,,,,,,,4,,,,73,45
38550,note_on,0,0,10,,,,,,,,11,,,,70,45
38550,note_off,30,0,10,,,,,,,,11,,,,69,64
38550,note_on,0,0,9,,,,,,,,10,,,,73,45
38550,note_on,0,0,5,,,,,,,,5,,,,70,45
38550,note_off,30,0,5,,,,,,,,5,,,,69,64
38550,note_off,30,0,9,,,,,,,,10,,,,72,64
38550,note_off,30,0,4,,,,,,,,4,,,,72,64
38580,note_off,30,0,4,,,,,,,,4,,,,73,64
38580,note_off,30,0,10,,,,,,,,11,,,,70,64
38580,note_on,0,0,10,,,,,,,,11,,,,69,45
38580,note_on,0,0,9,,,,,,,,10,,,,72,45
38580,note_off,30,0,9,,,,,,,,10,,,,73,64
38580,note_on,0,0,5,,,,,,,,5,,,,69,45
38580,note_off,30,0,5,,,,,,,,5,,,,70,64
38580,note_on,0,0,4,,,,,,,,4,,,,72,45
38600,note_off,80,0,11,,,,,,,,12,,,,51,64
38600,note_off,80,0,3,,,,,,,,3,,,,65,64
38600,note_off,80,0,8,,,,,,,,8,,,,65,64
38600,note_off,80,0,12,,,,,,,,13,,,,39,64
38600,note_off,80,0,6,,,,,,,,6,,,,51,64
38600,note_off,80,0,7,,,,,,,,7,,,,39,64
38610,note_off,30,0,9,,,,,,,,10,,,,72,64
38610,note_on,0,0,10,,,,,,,,11,,,,70,45
38610,note_off,30,0,10,,,,,,,,11,,,,69,64
38610,note_off,30,0,4,,,,,,,,4,,,,72,64
38610,note_on,0,0,5,,,,,,,,5,,,,70,45
38610,note_on,0,0,4,,,,,,,,4,,,,73,45
38610,note_off,30,0,5,,,,,,,,5,,,,69,64
38610,note_on,0,0,9,,,,,,,,10,,,,73,45
38640,note_on,0,0,10,,,,,,,,11,,,,69,45
38640,note_on,40,0,8,,,,,,,,8,,,,65,46
38640,note_on,0,0,5,,,,,,,,5,,,,69,45
38640,note_off,30,0,9,,,,,,,,10,,,,73,64
38640,note_off,30,0,5,,,,,,,,5,,,,70,64
38640,note_off,30,0,4,,,,,,,,4,,,,73,64
38640,note_on,40,0,3,,,,,,,,3,,,,65,46
38640,note_on,0,0,9,,,,,,,,10,,,,72,45
38640,note_off,30,0,10,,,,,,,,11,,,,70,64
38640,note_on,0,0,4,,,,,,,,4,,,,72,45
38720,note_off,80,0,4,,,,,,,,4,,,,72,64
38720,note_off,80,0,10,,,,,,,,11,,,,69,64
38720,note_off,80,0,5,,,,,,,,5,,,,69,64
38720,note_off,80,0,8,,,,,,,,8,,,,65,64
38720,note_off,80,0,9,,,,,,,,10,,,,72,64
38720,note_off,80,0,3,,,,,,,,3,,,,65,64
38755,note_off,235,0,13,,,,,,,,14,,,,39,64
38760,note_on,5,0,13,,,,,,,,14,,,,39,32
38760,note_on,160,0,12,,,,,,,,13,,,,39,48
38760,note_on,160,0,7,,,,,,,,7,,,,39,48
38760,note_on,40,0,10,,,,,,,,11,,,,69,47
38760,note_on,160,0,11,,,,,,,,12,,,,51,48
38760,note_on,40,0,4,,,,,,,,4,,,,72,47
38760,note_on,40,0,3,,,,,,,,3,,,,65,48
38760,note_on,40,0,8,,,,,,,,8,,,,65,48
38760,note_on,160,0,6,,,,,,,,6,,,,51,48
38760,note_on,40,0,9,,,,,,,,10,,,,72,47
38760,note_on,40,0,5,,,,,,,,5,,,,69,47
38790,note_off,30,0,5,,,,,,,,5,,,,69,64
38790,note_on,0,0,5,,,,,,,,5,,,,70,47
38790,note_off,30,0,4,,,,,,,,4,,,,72,64
38790,note_on,0,0,9,,,,,,,,10,,,,73,47
38790,note_off,30,0,10,,,,,,,,11,,,,69,64
38790,note_on,0,0,10,,,,,,,,11,,,,70,47
38790,note_off,30,0,9,,,,,,,,10,,,,72,64
38790,note_on,0,0,4,,,,,,,,4,,,,73,47
38820,note_on,0,0,9,,,,,,,,10,,,,72,47
38820,note_off,30,0,9,,,,,,,,10,,,,73,64
38820,note_on,0,0,10,,,,,,,,11,,,,69,47
38820,note_off,30,0,10,,,,,,,,11,,,,70,64
38820,note_off,30,0,5,,,,,,,,5,,,,70,64
38820,note_on,0,0,5,,,,,,,,5,,,,69,47
38820,note_off,30,0,4,,,,,,,,4,,,,73,64
38820,note_on,0,0,4,,,,,,,,4,,,,72,47
38840,note_off,80,0,6,,,,,,,,6,,,,51,64
38840,note_off,80,0,7,,,,,,,,7,,,,39,64
38840,note_off,80,0,11,,,,,,,,12,,,,51,64
38840,note_off,80,0,8,,,,,,,,8,,,,65,64
38840,note_off,80,0,12,,,,,,,,13,,,,39,64
38840,note_off,80,0,3,,,,,,,,3,,,,65,64
38850,note_on,0,0,10,,,,,,,,11,,,,70,47
38850,note_on,0,0,5,,,,,,,,5,,,,70,47
38850,note_off,30,0,5,,,,,,,,5,,,,69,64
38850,note_off,30,0,4,,,,,,,,4,,,,72,64
38850,note_off,30,0,10,,,,,,,,11,,,,69,64
38850,note_off,30,0,9,,,,,,,,10,,,,72,64
38850,note_on,0,0,4,,,,,,,,4,,,,73,47
38850,note_on,0,0,9,,,,,,,,10,,,,73,47
38880,note_off,30,0,4,,,,,,,,4,,,,73,64
38880,note_off,30,0,10,,,,,,,,11,,,,70,64
38880,note_on,0,0,10,,,,,,,,11,,,,69,47
38880,note_on,0,0,5,,,,,,,,5,,,,69,47
38880,note_off,30,0,5,,,,,,,,5,,,,70,64
38880,note_on,40,0,8,,,,,,,,8,,,,65,50
38880,note_on,0,0,9,,,,,,,,10,,,,72,47
38880,note_on,40,0,3,,,,,,,,3,,,,65,50
38880,note_on,0,0,4,,,,,,,,4,,,,72,47
38880,note_off,30,0,9,,,,,,,,10,,,,73,64
38960,note_off,80,0,8,,,,,,,,8,,,,65,64
38960,note_off,80,0,9,,,,,,,,10,,,,72,64
38960,note_off,80,0,5,,,,,,,,5,,,,69,64
38960,note_off,80,0,10,,,,,,,,11,,,,69,64
38960,note_off,80,0,4,,,,,,,,4,,,,72,64
38960,note_off,80,0,3,,,,,,,,3,,,,65,64
38995,note_off,235,0,13,,,,,,,,14,,,,39,64
39000,note_on,40,0,8,,,,,,,,8,,,,65,52
39000,note_on,40,0,3,,,,,,,,3,,,,65,52
39000,note_on,40,0,5,,,,,,,,5,,,,69,49
39000,note_on,40,0,4,,,,,,,,4,,,,72,49
39000,note_on,160,0,6,,,,,,,,6,,,,51,52
39000,note_on,160,0,7,,,,,,,,7,,,,39,52
39000,note_on,160,0,12,,,,,,,,13,,,,39,52
39000,note_on,40,0,9,,,,,,,,10,,,,72,49
39000,note_on,40,0,10,,,,,,,,11,,,,69,49
39000,note_on,5,0,13,,,,,,,,14,,,,39,34
39000,note_on,160,0,11,,,,,,,,12,,,,51,52
39030,note_off,30,0,9,,,,,,,,10,,,,72,64
39030,note_on,0,0,9,,,,,,,,10,,,,73,49
39030,note_on,0,0,5,,,,,,,,5,,,,70,49
39030,note_off,30,0,4,,,,,,,,4,,,,72,64
39030,note_off,30,0,5,,,,,,,,5,,,,69,64
39030,note_off,30,0,10,,,,,,,,11,,,,69,64
39030,note_on,0,0,10,,,,,,,,11,,,,70,49
39030,note_on,0,0,4,,,,,,,,4,,,,73,49
39060,note_on,0,0,5,,,,,,,,5,,,,69,49
39060,note_off,30,0,5,,,,,,,,5,,,,70,64
39060,note_on,0,0,4,,,,,,,,4,,,,72,49
39060,note_off,30,0,4,,,,,,,,4,,,,73,64
39060,note_off,30,0,9,,,,,,,,10,,,,73,64
39060,note_on,0,0,9,,,,,,,,10,,,,72,49
39060,note_off,30,0,10,,,,,,,,11,,,,70,64
39060,note_on,0,0,10,,,,,,,,11,,,,69,49
39080,note_off,80,0,12,,,,,,,,13,,,,39,64
39080,note_off,80,0,6,,,,,,,,6,,,,51,64
39080,note_off,80,0,8,,,,,,,,8,,,,65,64
39080,note_off,80,0,3,,,,,,,,3,,,,65,64
39080,note_off,80,0,11,,,,,,,,12,,,,51,64
39080,note_off,80,0,7,,,,,,,,7,,,,39,64
39090,note_on,0,0,9,,,,,,,,10,,,,73,49
39090,note_on,0,0,4,,,,,,,,4,,,,73,49
39090,note_off,30,0,5,,,,,,,,5,,,,69,64
39090,note_on,0,0,5,,,,,,,,5,,,,70,49
39090,note_off,30,0,4,,,,,,,,4,,,,72,64
39090,note_off,30,0,9,,,,,,,,10,,,,72,64
39090,note_off,30,0,10,,,,,,,,11,,,,69,64
39090,note_on,0,0,10,,,,,,,,11,,,,70,49
39120,note_off,30,0,10,,,,,,,,11,,,,70,64
39120,note_off,30,0,9,,,,,,,,10,,,,73,64
39120,note_on,0,0,9,,,,,,,,10,,,,72,49
39120,note_on,40,0,3,,,,,,,,3,,,,65,54
39120,note_on,0,0,10,,,,,,,,11,,,,69,49
39120,note_off,30,0,5,,,,,,,,5,,,,70,64
39120,note_on,0,0,5,,,,,,,,5,,,,69,49
39120,note_off,30,0,4,,,,,,,,4,,,,73,64
39120,note_on,0,0,4,,,,,,,,4,,,,72,49
39120,note_on,40,0,8,,,,,,,,8,,,,65,54
39200,note_off,80,0,3,,,,,,,,3,,,,65,64
39200,note_off,80,0,10,,,,,,,,11,,,,69,64
39200,note_off,80,0,5,,,,,,,,5,,,,69,64
39200,note_off,80,0,9,,,,,,,,10,,,,72,64
39200,note_off,80,0,8,,,,,,,,8,,,,65,64
39200,note_off,80,0,4,,,,,,,,4,,,,72,64
39235,note_off,235,0,13,,,,,,,,14,,,,39,64
39240,note_on,40,0,10,,,,,,,,11,,,,69,51
39240,note_on,40,0,5,,,,,,,,5,,,,69,51
39240,note_on,160,0,6,,,,,,,,6,,,,51,56
39240,note_on,160,0,7,,,,,,,,7,,,,39,56
39240,note_on,40,0,8,,,,,,,,8,,,,65,56
39240,note_on,160,0,12,,,,,,,,13,,,,39,56
39240,note_on,160,0,11,,,,,,,,12,,,,51,56
39240,note_on,40,0,4,,,,,,,,4,,,,72,51
39240,note_on,5,0,13,,,,,,,,14,,,,39,36
39240,note_on,40,0,9,,,,,,,,10,,,,72,51
39240,note_on,40,0,3,,,,,,,,3,,,,65,56
39270,note_off,30,0,9,,,,,,,,10,,,,72,64
39270,note_on,0,0,5,,,,,,,,5,,,,70,51
39270,note_off,30,0,4,,,,,,,,4,,,,72,64
39270,note_on,0,0,9,,,,,,,,10,,,,73,51
39270,note_on,0,0,4,,,,,,,,4,,,,73,51
39270,note_off,30,0,10,,,,,,,,11,,,,69,64
39270,note_on,0,0,10,,,,,,,,11,,,,70,51
39270,note_off,30,0,5,,,,,,,,5,,,,69,64
39300,note_off,30,0,4,,,,,,,,4,,,,73,64
39300,note_on,0,0,4,,,,,,,,4,,,,72,51
39300,note_on,0,0,9,,,,,,,,10,,,,72,51
39300,note_on,0,0,5,,,,,,,,5,,,,69,51
39300,note_off,30,0,5,,,,,,,,5,,,,70,64
39300,note_off,30,0,10,,,,,,,,11,,,,70,64
39300,note_off,30,0,9,,,,,,,,10,,,,73,64
39300,note_on,0,0,10,,,,,,,,11,,,,69,51
39320,note_off,80,0,8,,,,,,,,8,,,,65,64
39320,note_off,80,0,6,,,,,,,,6,,,,51,64
39320,note_off,80,0,3,,,,,,,,3,,,,65,64
39320,note_off,80,0,7,,,,,,,,7,,,,39,64
39320,note_off,80,0,12,,,,,,,,13,,,,39,64
39320,note_off,80,0,11,,,,,,,,12,,,,51,64
39330,note_on,0,0,5,,,,,,,,5,,,,70,51
39330,note_on,0,0,10,,,,,,,,11,,,,70,51
39330,note_off,30,0,10,,,,,,,,11,,,,69,64
39330,note_off,30,0,9,,,,,,,,10,,,,72,64
39330,note_on,0,0,9,,,,,,,,10,,,,73,51
39330,note_off,30,0,4,,,,,,,,4,,,,72,64
39330,note_on,0,0,4,,,,,,,,4,,,,73,51
39330,note_off,30,0,5,,,,,,,,5,,,,69,64
39360,note_on,40,0,8,,,,,,,,8,,,,65,58
39360,note_on,0,0,4,,,,,,,,4,,,,72,51
39360,note_on,40,0,3,,,,,,,,3,,,,65,58
39360,note_on,0,0,5,,,,,,,,5,,,,69,51
39360,note_off,30,0,5,,,,,,,,5,,,,70,64
39360,note_off,30,0,9,,,,,,,,10,,,,73,64
39360,note_on,0,0,9,,,,,,,,10,,,,72,51
39360,note_on,0,0,10,,,,,,,,11,,,,69,51
39360,note_off,30,0,10,,,,,,,,11,,,,70,64
39360,note_off,30,0,4,,,,,,,,4,,,,73,64
39440,note_off,80,0,3,,,,,,,,3,,,,65,64
39440,note_off,80,0,10,,,,,,,,11,,,,69,64
39440,note_off,80,0,4,,,,,,,,4,,,,72,64
39440,note_off,80,0,8,,,,,,,,8,,,,65,64
39440,note_off,80,0,9,,,,,,,,10,,,,72,64
39440,note_off,80,0,5,,,,,,,,5,,,,69,64
39475,note_off,235,0,13,,,,,,,,14,,,,39,64
39480,note_on,5,0,13,,,,,,,,14,,,,37,38
39480,note_on,160,0,12,,,,,,,,13,,,,37,60
39480,note_on,40,0,9,,,,,,,,10,,,,73,53
39480,note_on,40,0,4,,,,,,,,4,,,,73,53
39480,note_on,40,0,3,,,,,,,,3,,,,65,60
39480,note_on,40,0,5,,,,,,,,5,,,,70,53
39480,note_on,160,0,11,,,,,,,,12,,,,49,60
39480,note_on,160,0,7,,,,,,,,7,,,,37,60
39480,note_on,40,0,10,,,,,,,,11,,,,70,53
39480,note_on,40,0,8,,,,,,,,8,,,,65,60
39480,note_on,160,0,6,,,,,,,,6,,,,49,60
39510,note_off,30,0,10,,,,,,,,11,,,,70,64
39510,note_on,0,0,9,,,,,,,,10,,,,75,53
39510,note_on,0,0,4,,,,,,,,4,,,,75,53
39510,note_on,0,0,5,,,,,,,,5,,,,72,53
39510,note_off,30,0,5,,,,,,,,5,,,,70,64
39510,note_off,30,0,4,,,,,,,,4,,,,73,64
39510,note_on,0,0,10,,,,,,,,11,,,,72,53
39510,note_off,30,0,9,,,,,,,,10,,,,73,64
39540,note_on,0,0,5,,,,,,,,5,,,,70,53
39540,note_off,30,0,5,,,,,,,,5,,,,72,64
39540,note_off,30,0,9,,,,,,,,10,,,,75,64
39540,note_off,30,0,4,,,,,,,,4,,,,75,64
39540,note_on,0,0,4,,,,,,,,4,,,,73,53
39540,note_on,0,0,9,,,,,,,,10,,,,73,53
39540,note_off,30,0,10,,,,,,,,11,,,,72,64
39540,note_on,0,0,10,,,,,,,,11,,,,70,53
39560,note_off,80,0,6,,,,,,,,6,,,,49,64
39560,note_off,80,0,3,,,,,,,,3,,,,65,64
39560,note_off,80,0,7,,,,,,,,7,,,,37,64
39560,note_off,80,0,12,,,,,,,,13,,,,37,64
39560,note_off,80,0,11,,,,,,,,12,,,,49,64
39560,note_off,80,0,8,,,,,,,,8,,,,65,64
39570,note_off,30,0,10,,,,,,,,11,,,,70,64
39570,note_on,0,0,10,,,,,,,,11,,,,72,53
39570,note_off,30,0,5,,,,,,,,5,,,,70,64
39570,note_off,30,0,4,,,,,,,,4,,,,73,64
39570,note_off,30,0,9,,,,,,,,10,,,,73,64
39570,note_on,0,0,9,,,,,,,,10,,,,75,53
39570,note_on,0,0,5,,,,,,,,5,,,,72,53
39570,note_on,0,0,4,,,,,,,,4,,,,75,53
39600,note_on,0,0,9,,,,,,,,10,,,,73,53
39600,note_on,40,0,8,,,,,,,,8,,,,65,62
39600,note_off,30,0,5,,,,,,,,5,,,,72,64
39600,note_off,30,0,4,,,,,,,,4,,,,75,64
39600,note_on,0,0,4,,,,,,,,4,,,,73,53
39600,note_off,30,0,10,,,,,,,,11,,,,72,64
39600,note_on,40,0,3,,,,,,,,3,,,,65,62
39600,note_off,30,0,9,,,,,,,,10,,,,75,64
39600,note_on,0,0,5,,,,,,,,5,,,,70,53
39600,note_on,0,0,10,,,,,,,,11,,,,70,53
39680,note_off,80,0,8,,,,,,,,8,,,,65,64
39680,note_off,80,0,5,,,,,,,,5,,,,70,64
39680,note_off,80,0,4,,,,,,,,4,,,,73,64
39680,note_off,80,0,9,,,,,,,,10,,,,73,64
39680,note_off,80,0,10,,,,,,,,11,,,,70,64
39680,note_off,80,0,3,,,,,,,,3,,,,65,64
39715,note_off,235,0,13,,,,,,,,14,,,,37,64
39720,note_on,160,0,6,,,,,,,,6,,,,49,64
39720,note_on,40,0,5,,,,,,,,5,,,,70,55
39720,note_on,40,0,3,,,,,,,,3,,,,65,64
39720,note_on,40,0,10,,,,,,,,11,,,,70,55
39720,note_on,160,0,7,,,,,,,,7,,,,37,64
39720,note_on,160,0,12,,,,,,,,13,,,,37,64
39720,note_on,40,0,9,,,,,,,,10,,,,73,55
39720,note_on,5,0,13,,,,,,,,14,,,,37,40
39720,note_on,160,0,11,,,,,,,,12,,,,49,64
39720,note_on,40,0,8,,,,,,,,8,,,,65,64
39720,note_on,40,0,4,,,,,,,,4,,,,73,55
39750,note_off,30,0,9,,,,,,,,10,,,,73,64
39750,note_on,0,0,5,,,,,,,,5,,,,72,55
39750,note_on,0,0,10,,,,,,,,11,,,,72,55
39750,note_off,30,0,10,,,,,,,,11,,,,70,64
39750,note_on,0,0,9,,,,,,,,10,,,,75,55
39750,note_on,0,0,4,,,,,,,,4,,,,75,55
39750,note_off,30,0,5,,,,,,,,5,,,,70,64
39750,note_off,30,0,4,,,,,,,,4,,,,73,64
39780,note_off,30,0,10,,,,,,,,11,,,,72,64
39780,note_on,0,0,5,,,,,,,,5,,,,70,55
39780,note_off,30,0,5,,,,,,,,5,,,,72,64
39780,note_on,0,0,10,,,,,,,,11,,,,70,55
39780,note_on,0,0,4,,,,,,,,4,,,,73,55
39780,note_off,30,0,4,,,,,,,,4,,,,75,64
39780,note_on,0,0,9,,,,,,,,10,,,,73,55
39780,note_off,30,0,9,,,,,,,,10,,,,75,64
39800,note_off,80,0,8,,,,,,,,8,,,,65,64
39800,note_off,80,0,12,,,,,,,,13,,,,37,64
39800,note_off,80,0,11,,,,,,,,12,,,,49,64
39800,note_off,80,0,6,,,,,,,,6,,,,49,64
39800,note_off,80,0,3,,,,,,,,3,,,,65,64
39800,note_off,80,0,7,,,,,,,,7,,,,37,64
39810,note_off,30,0,5,,,,,,,,5,,,,70,64
39810,note_on,0,0,10,,,,,,,,11,,,,72,55
39810,note_on,0,0,4,,,,,,,,4,,,,75,55
39810,note_off,30,0,10,,,,,,,,11,,,,70,64
39810,note_on,0,0,5,,,,,,,,5,,,,72,55
39810,note_off,30,0,4,,,,,,,,4,,,,73,64
39810,note_off,30,0,9,,,,,,,,10,,,,73,64
39810,note_on,0,0,9,,,,,,,,10,,,,75,55
39840,note_off,30,0,9,,,,,,,,10,,,,75,64
39840,note_off,30,0,10,,,,,,,,11,,,,72,64
39840,note_on,40,0,8,,,,,,,,8,,,,65,66
39840,note_on,0,0,9,,,,,,,,10,,,,73,55
39840,note_off,30,0,4,,,,,,,,4,,,,75,64
39840,note_on,0,0,10,,,,,,,,11,,,,70,55
39840,note_on,0,0,4,,,,,,,,4,,,,73,55
39840,note_on,40,0,3,,,,,,,,3,,,,65,66
39840,note_off,30,0,5,,,,,,,,5,,,,72,64
39840,note_on,0,0,5,,,,,,,,5,,,,70,55
39920,note_off,80,0,8,,,,,,,,8,,,,65,64
39920,note_off,80,0,3,,,,,,,,3,,,,65,64
39920,note_off,80,0,5,,,,,,,,5,,,,70,64
39920,note_off,80,0,9,,,,,,,,10,,,,73,64
39920,note_off,80,0,10,,,,,,,,11,,,,70,64
39920,note_off,80,0,4,,,,,,,,4,,,,73,64
39955,note_off,235,0,13,,,,,,,,14,,,,37,64
39960,note_on,160,0,11,,,,,,,,12,,,,49,68
39960,note_on,160,0,6,,,,,,,,6,,,,49,68
39960,note_on,40,0,3,,,,,,,,3,,,,65,68
39960,note_on,40,0,9,,,,,,,,10,,,,73,57
39960,note_on,160,0,7,,,,,,,,7,,,,37,68
39960,note_on,40,0,5,,,,,,,,5,,,,70,57
39960,note_on,40,0,8,,,,,,,,8,,,,65,68
39960,note_on,160,0,12,,,,,,,,13,,,,37,68
39960,note_on,40,0,10,,,,,,,,11,,,,70,57
39960,note_on,5,0,13,,,,,,,,14,,,,37,42
39960,note_on,40,0,4,,,,,,,,4,,,,73,57
39990,note_off,30,0,5,,,,,,,,5,,,,70,64
39990,note_off,30,0,9,,,,,,,,10,,,,73,64
39990,note_on,0,0,10,,,,,,,,11,,,,72,57
39990,note_off,30,0,4,,,,,,,,4,,,,73,64
39990,note_on,0,0,4,,,,,,,,4,,,,75,57
39990,note_off,30,0,10,,,,,,,,11,,,,70,64
39990,note_on,0,0,5,,,,,,,,5,,,,72,57
39990,note_on,0,0,9,,,,,,,,10,,,,75,57
40020,note_on,0,0,9,,,,,,,,10,,,,73,57
40020,note_off,30,0,4,,,,,,,,4,,,,75,64
40020,note_on,0,0,4,,,,,,,,4,,,,73,57
40020,note_on,0,0,5,,,,,,,,5,,,,70,57
40020,note_on,0,0,10,,,,,,,,11,,,,70,57
40020,note_off,30,0,10,,,,,,,,11,,,,72,64
40020,note_off,30,0,9,,,,,,,,10,,,,75,64
40020,note_off,30,0,5,,,,,,,,5,,,,72,64
40040,note_off,80,0,11,,,,,,,,12,,,,49,64
40040,note_off,80,0,7,,,,,,,,7,,,,37,64
40040,note_off,80,0,8,,,,,,,,8,,,,65,64
40040,note_off,80,0,6,,,,,,,,6,,,,49,64
40040,note_off,80,0,3,,,,,,,,3,,,,65,64
40040,note_off,80,0,12,,,,,,,,13,,,,37,64
40050,note_off,30,0,5,,,,,,,,5,,,,70,64
40050,note_off,30,0,10,,,,,,,,11,,,,70,64
40050,note_on,0,0,4,,,,,,,,4,,,,75,57
40050,note_off,30,0,4,,,,,,,,4,,,,73,64
40050,note_off,30,0,9,,,,,,,,10,,,,73,64
40050,note_on,0,0,10,,,,,,,,11,,,,72,57
40050,note_on,0,0,9,,,,,,,,10,,,,75,57
40050,note_on,0,0,5,,,,,,,,5,,,,72,57
40080,note_off,30,0,10,,,,,,,,11,,,,72,64
40080,note_on,40,0,3,,,,,,,,3,,,,65,70
40080,note_on,0,0,4,,,,,,,,4,,,,73,57
40080,note_off,30,0,4,,,,,,,,4,,,,75,64
40080,note_off,30,0,5,,,,,,,,5,,,,72,64
40080,note_on,0,0,9,,,,,,,,10,,,,73,57
40080,note_on,0,0,5,,,,,,,,5,,,,70,57
40080,note_off,30,0,9,,,,,,,,10,,,,75,64
40080,note_on,40,0,8,,,,,,,,8,,,,65,70
40080,note_on,0,0,10,,,,,,,,11,,,,70,57
40160,note_off,80,0,9,,,,,,,,10,,,,73,64
40160,note_off,80,0,4,,,,,,,,4,,,,73,64
40160,note_off,80,0,10,,,,,,,,11,,,,70,64
40160,note_off,80,0,3,,,,,,,,3,,,,65,64
40160,note_off,80,0,5,,,,,,,,5,,,,70,64
40160,note_off,80,0,8,,,,,,,,8,,,,65,64
40195,note_off,235,0,13,,,,,,,,14,,,,37,64
40200,note_on,160,0,11,,,,,,,,12,,,,49,72
40200,note_on,5,0,13,,,,,,,,14,,,,37,45
40200,note_on,160,0,12,,,,,,,,13,,,,37,72
40200,note_on,40,0,8,,,,,,,,8,,,,65,72
40200,note_on,40,0,3,,,,,,,,3,,,,65,72
40200,note_on,160,0,7,,,,,,,,7,,,,37,72
40200,note_on,40,0,9,,,,,,,,10,,,,73,60
40200,note_on,40,0,4,,,,,,,,4,,,,73,60
40200,note_on,160,0,6,,,,,,,,6,,,,49,72
40200,note_on,40,0,10,,,,,,,,11,,,,70,60
40200,note_on,40,0,5,,,,,,,,5,,,,70,60
40230,note_off,30,0,9,,,,,,,,10,,,,73,64
40230,note_on,0,0,4,,,,,,,,4,,,,75,60
40230,note_on,0,0,10,,,,,,,,11,,,,72,60
40230,note_off,30,0,10,,,,,,,,11,,,,70,64
40230,note_on,0,0,5,,,,,,,,5,,,,72,60
40230,note_off,30,0,5,,,,,,,,5,,,,70,64
40230,note_on,0,0,9,,,,,,,,10,,,,75,60
40230,note_off,30,0,4,,,,,,,,4,,,,73,64
40260,note_off,30,0,9,,,,,,,,10,,,,75,64
40260,note_on,0,0,9,,,,,,,,10,,,,73,60
40260,note_on,0,0,5,,,,,,,,5,,,,70,60
40260,note_on,0,0,10,,,,,,,,11,,,,70,60
40260,note_on,0,0,4,,,,,,,,4,,,,73,60
40260,note_off,30,0,4,,,,,,,,4,,,,75,64
40260,note_off,30,0,10,,,,,,,,11,,,,72,64
40260,note_off,30,0,5,,,,,,,,5,,,,72,64
40280,note_off,80,0,12,,,,,,,,13,,,,37,64
40280,note_off,80,0,11,,,,,,,,12,,,,49,64
40280,note_off,80,0,8,,,,,,,,8,,,,65,64
40280,note_off,80,0,6,,,,,,,,6,,,,49,64
40280,note_off,80,0,7,,,,,,,,7,,,,37,64
40280,note_off,80,0,3,,,,,,,,3,,,,65,64
40290,note_on,0,0,9,,,,,,,,10,,,,75,60
40290,note_on,0,0,4,,,,,,,,4,,,,75,60
40290,note_off,30,0,4,,,,,,,,4,,,,73,64
40290,note_on,0,0,10,,,,,,,,11,,,,72,60
40290,note_off,30,0,10,,,,,,,,11,,,,70,64
40290,note_off,30,0,9,,,,,,,,10,,,,73,64
40290,note_off,30,0,5,,,,,,,,5,,,,70,64
40290,note_on,0,0,5,,,,,,,,5,,,,72,60
40320,note_off,30,0,5,,,,,,,,5,,,,72,64
40320,note_on,0,0,5,,,,,,,,5,,,,70,60
40320,note_off,30,0,10,,,,,,,,11,,,,72,64
40320,note_on,0,0,10,,,,,,,,11,,,,70,60
40320,note_on,40,0,3,,,,,,,,3,,,,65,74
40320,note_off,30,0,9,,,,,,,,10,,,,75,64
40320,note_on,0,0,9,,,,,,,,10,,,,73,60
40320,note_on,40,0,8,,,,,,,,8,,,,65,74
40320,note_off,30,0,4,,,,,,,,4,,,,75,64
40320,note_on,0,0,4,,,,,,,,4,,,,73,60
40400,note_off,80,0,3,,,,,,,,3,,,,65,64
40400,note_off,80,0,4,,,,,,,,4,,,,73,64
40400,note_off,80,0,9,,,,,,,,10,,,,73,64
40400,note_off,80,0,5,,,,,,,,5,,,,70,64
40400,note_off,80,0,8,,,,,,,,8,,,,65,64
40400,note_off,80,0,10,,,,,,,,11,,,,70,64
40435,note_off,235,0,13,,,,,,,,14,,,,37,64
40440,note_on,40,0,9,,,,,,,,10,,,,73,63
40440,note_on,160,0,7,,,,,,,,7,,,,37,76
40440,note_on,40,0,4,,,,,,,,4,,,,73,63
40440,note_on,40,0,3,,,,,,,,3,,,,65,76
40440,note_on,40,0,10,,,,,,,,11,,,,71,63
40440,note_on,40,0,5,,,,,,,,5,,,,71,63
40440,note_on,160,0,6,,,,,,,,6,,,,49,76
40440,note_on,40,0,8,,,,,,,,8,,,,65,76
40440,note_on,160,0,11,,,,,,,,12,,,,49,76
40440,note_on,160,0,12,,,,,,,,13,,,,37,76
40440,note_on,5,0,13,,,,,,,,14,,,,37,48
40470,note_off,30,0,4,,,,,,,,4,,,,73,64
40470,note_on,0,0,10,,,,,,,,11,,,,72,63
40470,note_on,0,0,9,,,,,,,,10,,,,75,63
40470,note_off,30,0,9,,,,,,,,10,,,,73,64
40470,note_on,0,0,4,,,,,,,,4,,,,75,63
40470,note_off,30,0,10,,,,,,,,11,,,,71,64
40470,note_off,30,0,5,,,,,,,,5,,,,71,64
40470,note_on,0,0,5,,,,,,,,5,,,,72,63
40500,note_on,0,0,4,,,,,,,,4,,,,73,63
40500,note_off,30,0,4,,,,,,,,4,,,,75,64
40500,note_off,30,0,5,,,,,,,,5,,,,72,64
40500,note_on,0,0,5,,,,,,,,5,,,,71,63
40500,note_on,0,0,10,,,,,,,,11,,,,71,63
40500,note_off,30,0,10,,,,,,,,11,,,,72,64
40500,note_on,0,0,9,,,,,,,,10,,,,73,63
40500,note_off,30,0,9,,,,,,,,10,,,,75,64
40520,note_off,80,0,11,,,,,,,,12,,,,49,64
40520,note_off,80,0,8,,,,,,,,8,,,,65,64
40520,note_off,80,0,12,,,,,,,,13,,,,37,64
40520,note_off,80,0,6,,,,,,,,6,,,,49,64
40520,note_off,80,0,3,,,,,,,,3,,,,65,64
40520,note_off,80,0,7,,,,,,,,7,,,,37,64
40530,note_off,30,0,5,,,,,,,,5,,,,71,64
40530,note_off,30,0,10,,,,,,,,11,,,,71,64
40530,note_on,0,0,10,,,,,,,,11,,,,72,63
40530,note_on,0,0,5,,,,,,,,5,,,,72,63
40530,note_on,0,0,4,,,,,,,,4,,,,75,63
40530,note_off,30,0,4,,,,,,,,4,,,,73,64
40530,note_on,0,0,9,,,,,,,,10,,,,75,63
40530,note_off,30,0,9,,,,,,,,10,,,,73,64
40560,note_on,0,0,10,,,,,,,,11,,,,71,63
40560,note_on,0,0,5,,,,,,,,5,,,,71,63
40560,note_off,30,0,4,,,,,,,,4,,,,75,64
40560,note_off,30,0,10,,,,,,,,11,,,,72,64
40560,note_on,0,0,9,,,,,,,,10,,,,73,63
40560,note_off,30,0,9,,,,,,,,10,,,,75,64
40560,note_on,0,0,4,,,,,,,,4,,,,73,63
40560,note_on,40,0,8,,,,,,,,8,,,,65,78
40560,note_on,40,0,3,,,,,,,,3,,,,65,78
40560,note_off,30,0,5,,,,,,,,5,,,,72,64
40640,note_off,80,0,5,,,,,,,,5,,,,71,64
40640,note_off,80,0,8,,,,,,,,8,,,,65,64
40640,note_off,80,0,4,,,,,,,,4,,,,73,64
40640,note_off,80,0,10,,,,,,,,11,,,,71,64
40640,note_off,80,0,3,,,,,,,,3,,,,65,64
40640,note_off,80,0,9,,,,,,,,10,,,,73,64
40675,note_off,235,0,13,,,,,,,,14,,,,37,64
40680,note_on,5,0,13,,,,,,,,14,,,,37,51
40680,note_on,160,0,11,,,,,,,,12,,,,49,80
40680,note_on,40,0,10,,,,,,,,11,,,,71,67
40680,note_on,40,0,8,,,,,,,,8,,,,65,80
40680,note_on,160,0,7,,,,,,,,7,,,,37,80
40680,note_on,40,0,3,,,,,,,,3,,,,65,80
40680,note_on,160,0,12,,,,,,,,13,,,,37,80
40680,note_on,40,0,9,,,,,,,,10,,,,73,67
40680,note_on,160,0,6,,,,,,,,6,,,,49,80
40680,note_on,40,0,5,,,,,,,,5,,,,71,67
40680,note_on,40,0,4,,,,,,,,4,,,,73,67
40710,note_on,0,0,10,,,,,,,,11,,,,72,68
40710,note_off,30,0,10,,,,,,,,11,,,,71,64
40710,note_on,0,0,4,,,,,,,,4,,,,75,68
40710,note_off,30,0,4,,,,,,,,4,,,,73,64
40710,note_off,30,0,9,,,,,,,,10,,,,73,64
40710,note_off,30,0,5,,,,,,,,5,,,,71,64
40710,note_on,0,0,5,,,,,,,,5,,,,72,68
40710,note_on,0,0,9,,,,,,,,10,,,,75,68
40740,note_on,0,0,10,,,,,,,,11,,,,71,69
40740,note_off,30,0,10,,,,,,,,11,,,,72,64
40740,note_on,0,0,9,,,,,,,,10,,,,73,69
40740,note_off,30,0,9,,,,,,,,10,,,,75,64
40740,note_off,30,0,5,,,,,,,,5,,,,72,64
40740,note_off,30,0,4,,,,,,,,4,,,,75,64
40740,note_on,0,0,5,,,,,,,,5,,,,71,69
40740,note_on,0,0,4,,,,,,,,4,,,,73,69
40760,note_off,80,0,11,,,,,,,,12,,,,49,64
40760,note_off,80,0,7,,,,,,,,7,,,,37,64
40760,note_off,80,0,3,,,,,,,,3,,,,65,64
40760,note_off,80,0,6,,,,,,,,6,,,,49,64
40760,note_off,80,0,8,,,,,,,,8,,,,65,64
40760,note_off,80,0,12,,,,,,,,13,,,,37,64
40770,note_on,0,0,9,,,,,,,,10,,,,75,70
40770,note_on,0,0,4,,,,,,,,4,,,,75,70
40770,note_off,30,0,4,,,,,,,,4,,,,73,64
40770,note_off,30,0,5,,,,,,,,5,,,,71,64
40770,note_off,30,0,10,,,,,,,,11,,,,71,64
40770,note_on,0,0,10,,,,,,,,11,,,,72,70
40770,note_on,0,0,5,,,,,,,,5,,,,72,70
40770,note_off,30,0,9,,,,,,,,10,,,,73,64
40800,note_off,30,0,10,,,,,,,,11,,,,72,64
40800,note_on,40,0,3,,,,,,,,3,,,,65,82
40800,note_off,30,0,9,,,,,,,,10,,,,75,64
40800,note_on,0,0,9,,,,,,,,10,,,,73,71
40800,note_on,0,0,5,,,,,,,,5,,,,71,71
40800,note_off,30,0,5,,,,,,,,5,,,,72,64
40800,note_on,40,0,8,,,,,,,,8,,,,65,82
40800,note_off,30,0,4,,,,,,,,4,,,,75,64
40800,note_on,0,0,10,,,,,,,,11,,,,71,71
40800,note_on,0,0,4,,,,,,,,4,,,,73,71
40880,note_off,80,0,9,,,,,,,,10,,,,73,64
40880,note_off,80,0,3,,,,,,,,3,,,,65,64
40880,note_off,80,0,8,,,,,,,,8,,,,65,64
40880,note_off,80,0,4,,,,,,,,4,,,,73,64
40880,note_off,80,0,10,,,,,,,,11,,,,71,64
40880,note_off,80,0,5,,,,,,,,5,,,,71,64
40915,note_off,235,0,13,,,,,,,,14,,,,37,64
40920,note_on,40,0,10,,,,,,,,11,,,,71,75
40920,note_on,40,0,4,,,,,,,,4,,,,73,75
40920,note_on,40,0,8,,,,,,,,8,,,,65,84
40920,note_on,160,0,6,,,,,,,,6,,,,49,84
40920,note_on,5,0,13,,,,,,,,14,,,,37,54
40920,note_on,40,0,5,,,,,,,,5,,,,71,75
40920,note_on,160,0,7,,,,,,,,7,,,,37,84
40920,note_on,160,0,11,,,,,,,,12,,,,49,84
40920,note_on,160,0,12,,,,,,,,13,,,,37,84
40920,note_on,40,0,3,,,,,,,,3,,,,65,84
40920,note_on,40,0,9,,,,,,,,10,,,,73,75
40950,note_on,0,0,4,,,,,,,,4,,,,75,76
40950,note_off,30,0,10,,,,,,,,11,,,,71,64
40950,note_off,30,0,4,,,,,,,,4,,,,73,64
40950,note_on,0,0,5,,,,,,,,5,,,,72,76
40950,note_off,30,0,5,,,,,,,,5,,,,71,64
40950,note_off,30,0,9,,,,,,,,10,,,,73,64
40950,note_on,0,0,9,,,,,,,,10,,,,75,76
40950,note_on,0,0,10,,,,,,,,11,,,,72,76
40980,note_on,0,0,4,,,,,,,,4,,,,73,77
40980,note_off,30,0,4,,,,,,,,4,,,,75,64
40980,note_off,30,0,5,,,,,,,,5,,,,72,64
40980,note_on,0,0,9,,,,,,,,10,,,,73,77
40980,note_on,0,0,5,,,,,,,,5,,,,71,77
40980,note_off,30,0,9,,,,,,,,10,,,,75,64
40980,note_on,0,0,10,,,,,,,,11,,,,71,77
40980,note_off,30,0,10,,,,,,,,11,,,,72,64
41000,note_off,80,0,6,,,,,,,,6,,,,49,64
41000,note_off,80,0,8,,,,,,,,8,,,,65,64
41000,note_off,80,0,11,,,,,,,,12,,,,49,64
41000,note_off,80,0,12,,,,,,,,13,,,,37,64
41000,note_off,80,0,3,,,,,,,,3,,,,65,64
41000,note_off,80,0,7,,,,,,,,7,,,,37,64
41010,note_off,30,0,9,,,,,,,,10,,,,73,64
41010,note_off,30,0,4,,,,,,,,4,,,,73,64
41010,note_on,0,0,5,,,,,,,,5,,,,72,78
41010,note_on,0,0,9,,,,,,,,10,,,,75,78
41010,note_on,0,0,10,,,,,,,,11,,,,72,78
41010,note_off,30,0,5,,,,,,,,5,,,,71,64
41010,note_off,30,0,10,,,,,,,,11,,,,71,64
41010,note_on,0,0,4,,,,,,,,4,,,,75,78
41040,note_off,30,0,5,,,,,,,,5,,,,72,64
41040,note_on,0,0,5,,,,,,,,5,,,,71,79
41040,note_on,0,0,10,,,,,,,,11,,,,71,79
41040,note_off,30,0,4,,,,,,,,4,,,,75,64
41040,note_off,30,0,10,,,,,,,,11,,,,72,64
41040,note_off,30,0,9,,,,,,,,10,,,,75,64
41040,note_on,40,0,8,,,,,,,,8,,,,65,86
41040,note_on,40,0,3,,,,,,,,3,,,,65,86
41040,note_on,0,0,9,,,,,,,,10,,,,73,79
41040,note_on,0,0,4,,,,,,,,4,,,,73,79
41120,note_off,80,0,5,,,,,,,,5,,,,71,64
41120,note_off,80,0,4,,,,,,,,4,,,,73,64
41120,note_off,80,0,10,,,,,,,,11,,,,71,64
41120,note_off,80,0,9,,,,,,,,10,,,,73,64
41120,note_off,80,0,3,,,,,,,,3,,,,65,64
41120,note_off,80,0,8,,,,,,,,8,,,,65,64
41155,note_off,235,0,13,,,,,,,,14,,,,37,64
41160,note_on,40,0,5,,,,,,,,5,,,,71,83
41160,note_on,160,0,12,,,,,,,,13,,,,37,88
41160,note_on,40,0,4,,,,,,,,4,,,,73,83
41160,note_on,40,0,10,,,,,,,,11,,,,71,83
41160,note_on,5,0,13,,,,,,,,14,,,,37,57
41160,note_on,160,0,6,,,,,,,,6,,,,49,88
41160,note_on,160,0,7,,,,,,,,7,,,,37,88
41160,note_on,160,0,11,,,,,,,,12,,,,49,88
41160,note_on,40,0,9,,,,,,,,10,,,,73,83
41160,note_on,40,0,3,,,,,,,,3,,,,65,88
41160,note_on,40,0,8,,,,,,,,8,,,,65,88
41190,note_on,0,0,4,,,,,,,,4,,,,75,84
41190,note_off,30,0,4,,,,,,,,4,,,,73,64
41190,note_on,0,0,9,,,,,,,,10,,,,75,84
41190,note_off,30,0,9,,,,,,,,10,,,,73,64
41190,note_off,30,0,5,,,,,,,,5,,,,71,64
41190,note_on,0,0,5,,,,,,,,5,,,,72,84
41190,note_off,30,0,10,,,,,,,,11,,,,71,64
41190,note_on,0,0,10,,,,,,,,11,,,,72,84
41220,note_off,30,0,10,,,,,,,,11,,,,72,64
41220,note_on,0,0,10,,,,,,,,11,,,,71,85
41220,note_on,0,0,4,,,,,,,,4,,,,73,85
41220,note_on,0,0,5,,,,,,,,5,,,,71,85
41220,note_off,30,0,9,,,,,,,,10,,,,75,64
41220,note_on,0,0,9,,,,,,,,10,,,,73,85
41220,note_off,30,0,4,,,,,,,,4,,,,75,64
41220,note_off,30,0,5,,,,,,,,5,,,,72,64
41240,note_off,80,0,7,,,,,,,,7,,,,37,64
41240,note_off,80,0,8,,,,,,,,8,,,,65,64
41240,note_off,80,0,11,,,,,,,,12,,,,49,64
41240,note_off,80,0,6,,,,,,,,6,,,,49,64
41240,note_off,80,0,3,,,,,,,,3,,,,65,64
41240,note_off,80,0,12,,,,,,,,13,,,,37,64
41250,note_off,30,0,4,,,,,,,,4,,,,73,64
41250,note_on,0,0,4,,,,,,,,4,,,,75,86
41250,note_on,0,0,10,,,,,,,,11,,,,72,86
41250,note_off,30,0,10,,,,,,,,11,,,,71,64
41250,note_on,0,0,5,,,,,,,,5,,,,72,86
41250,note_off,30,0,5,,,,,,,,5,,,,71,64
41250,note_on,0,0,9,,,,,,,,10,,,,75,86
41250,note_off,30,0,9,,,,,,,,10,,,,73,64
41280,note_off,30,0,9,,,,,,,,10,,,,75,64
41280,note_on,0,0,5,,,,,,,,5,,,,71,87
41280,note_off,30,0,5,,,,,,,,5,,,,72,64
41280,note_on,0,0,9,,,,,,,,10,,,,73,87
41280,note_on,40,0,3,,,,,,,,3,,,,65,90
41280,note_on,40,0,8,,,,,,,,8,,,,65,90
41280,note_off,30,0,10,,,,,,,,11,,,,72,64
41280,note_on,0,0,10,,,,,,,,11,,,,71,87
41280,note_off,30,0,4,,,,,,,,4,,,,75,64
41280,note_on,0,0,4,,,,,,,,4,,,,73,87
41360,note_off,80,0,9,,,,,,,,10,,,,73,64
41360,note_off,80,0,5,,,,,,,,5,,,,71,64
41360,note_off,80,0,10,,,,,,,,11,,,,71,64
41360,note_off,80,0,3,,,,,,,,3,,,,65,64
41360,note_off,80,0,8,,,,,,,,8,,,,65,64
41360,note_off,80,0,4,,,,,,,,4,,,,73,64
41395,note_off,235,0,13,,,,,,,,14,,,,37,64
41400,note_on,40,0,4,,,,,,,,4,,,,60,92
41400,note_on,40,0,9,,,,,,,,10,,,,60,92
41400,note_on,40,0,8,,,,,,,,8,,,,64,92
41400,note_on,160,0,6,,,,,,,,6,,,,48,92
41400,note_on,5,0,13,,,,,,,,14,,,,36,60
41400,note_on,160,0,12,,,,,,,,13,,,,36,92
41400,note_on,40,0,5,,,,,,,,5,,,,72,92
41400,note_on,160,0,11,,,,,,,,12,,,,48,92
41400,note_on,40,0,3,,,,,,,,3,,,,64,92
41400,note_on,160,0,7,,,,,,,,7,,,,36,92
41400,note_on,40,0,10,,,,,,,,11,,,,72,92
41480,note_off,80,0,3,,,,,,,,3,,,,64,64
41480,note_off,80,0,8,,,,,,,,8,,,,64,64
41480,note_off,80,0,4,,,,,,,,4,,,,60,64
41480,note_off,80,0,9,,,,,,,,10,,,,60,64
41520,note_on,40,0,3,,,,,,,,3,,,,79,92
41520,note_on,40,0,8,,,,,,,,8,,,,79,92
41520,note_on,40,0,4,,,,,,,,4,,,,76,92
41520,note_on,40,0,9,,,,,,,,10,,,,76,92
41560,note_off,40,0,3,,,,,,,,3,,,,79,64
41560,note_off,40,0,8,,,,,,,,8,,,,79,64
41560,note_off,40,0,4,,,,,,,,4,,,,76,64
41560,note_off,40,0,9,,,,,,,,10,,,,76,64
41580,note_on,20,0,9,,,,,,,,10,,,,76,92
41580,note_on,20,0,4,,,,,,,,4,,,,76,92
41580,note_on,20,0,8,,,,,,,,8,,,,79,92
41580,note_on,20,0,3,,,,,,,,3,,,,79,92
41620,note_off,40,0,4,,,,,,,,4,,,,76,64
41620,note_off,40,0,9,,,,,,,,10,,,,76,64
41620,note_off,40,0,8,,,,,,,,8,,,,79,64
41620,note_off,40,0,3,,,,,,,,3,,,,79,64
41640,note_on,20,0,3,,,,,,,,3,,,,79,92
41640,note_on,20,0,9,,,,,,,,10,,,,76,92
41640,note_on,20,0,8,,,,,,,,8,,,,79,92
41640,note_on,20,0,4,,,,,,,,4,,,,76,92
41680,note_off,40,0,3,,,,,,,,3,,,,79,64
41680,note_off,40,0,4,,,,,,,,4,,,,76,64
41680,note_off,40,0,8,,,,,,,,8,,,,79,64
41680,note_off,40,0,9,,,,,,,,10,,,,76,64
41700,note_on,20,0,4,,,,,,,,4,,,,76,92
41700,note_on,20,0,3,,,,,,,,3,,,,79,92
41700,note_on,20,0,9,,,,,,,,10,,,,76,92
41700,note_on,20,0,8,,,,,,,,8,,,,79,92
41740,note_off,40,0,8,,,,,,,,8,,,,79,64
41740,note_off,40,0,4,,,,,,,,4,,,,76,64
41740,note_off,40,0,9,,,,,,,,10,,,,76,64
41740,note_off,40,0,3,,,,,,,,3,,,,79,64
41760,note_on,20,0,9,,,,,,,,10,,,,76,92
41760,note_on,20,0,4,,,,,,,,4,,,,76,92
41760,note_on,20,0,3,,,,,,,,3,,,,79,92
41760,note_on,20,0,8,,,,,,,,8,,,,79,92
41800,note_off,40,0,8,,,,,,,,8,,,,79,64
41800,note_off,400,0,7,,,,,,,,7,,,,36,64
41800,note_off,400,0,10,,,,,,,,11,,,,72,64
41800,note_off,40,0,4,,,,,,,,4,,,,76,64
41800,note_off,40,0,9,,,,,,,,10,,,,76,64
41800,note_off,400,0,6,,,,,,,,6,,,,48,64
41800,note_off,400,0,12,,,,,,,,13,,,,36,64
41800,note_off,40,0,3,,,,,,,,3,,,,79,64
41800,note_off,400,0,13,,,,,,,,14,,,,36,64
41800,note_off,400,0,5,,,,,,,,5,,,,72,64
41800,note_off,400,0,11,,,,,,,,12,,,,48,64
41820,note_on,20,0,3,,,,,,,,3,,,,79,92
41820,note_on,20,0,9,,,,,,,,10,,,,76,92
41820,note_on,20,0,4,,,,,,,,4,,,,76,92
41820,note_on,20,0,8,,,,,,,,8,,,,79,92
41860,note_off,40,0,3,,,,,,,,3,,,,79,64
41860,note_off,40,0,4,,,,,,,,4,,,,76,64
41860,note_off,40,0,9,,,,,,,,10,,,,76,64
41860,note_off,40,0,8,,,,,,,,8,,,,79,64
41880,note_on,20,0,3,,,,,,,,3,,,,79,92
41880,note_on,20,0,4,,,,,,,,4,,,,76,92
41880,note_on,20,0,9,,,,,,,,10,,,,76,92
41880,note_on,20,0,8,,,,,,,,8,,,,79,92
41960,note_off,80,0,9,,,,,,,,10,,,,76,64
41960,note_off,80,0,3,,,,,,,,3,,,,79,64
41960,note_off,80,0,4,,,,,,,,4,,,,76,64
41960,note_off,80,0,8,,,,,,,,8,,,,79,64
42000,note_on,40,0,3,,,,,,,,3,,,,79,92
42000,note_on,40,0,8,,,,,,,,8,,,,79,92
42000,note_on,40,0,4,,,,,,,,4,,,,76,92
42000,note_on,40,0,9,,,,,,,,10,,,,76,92
42080,note_off,80,0,4,,,,,,,,4,,,,76,64
42080,note_off,80,0,3,,,,,,,,3,,,,79,64
42080,note_off,80,0,8,,,,,,,,8,,,,79,64
42080,note_off,80,0,9,,,,,,,,10,,,,76,64
42120,note_on,40,0,4,,,,,,,,4,,,,76,92
42120,note_on,40,0,9,,,,,,,,10,,,,76,92
42120,note_on,40,0,3,,,,,,,,3,,,,79,92
42120,note_on,40,0,8,,,,,,,,8,,,,79,92
42200,note_off,80,0,3,,,,,,,,3,,,,79,64
42200,note_off,80,0,4,,,,,,,,4,,,,76,64
42200,note_off,80,0,9,,,,,,,,10,,,,76,64
42200,note_off,80,0,8,,,,,,,,8,,,,79,64
42240,note_on,40,0,4,,,,,,,,4,,,,76,92
42240,note_on,40,0,9,,,,,,,,10,,,,76,92
42240,note_on,40,0,8,,,,,,,,8,,,,79,92
42240,note_on,40,0,3,,,,,,,,3,,,,79,92
42320,note_off,80,0,4,,,,,,,,4,,,,76,64
42320,note_off,80,0,9,,,,,,,,10,,,,76,64
42320,note_off,80,0,8,,,,,,,,8,,,,79,64
42320,note_off,80,0,3,,,,,,,,3,,,,79,64
42360,note_on,560,0,10,,,,,,,,11,,,,72,92
42360,note_on,40,0,3,,,,,,,,3,,,,80,92
42360,note_on,560,0,11,,,,,,,,12,,,,53,92
42360,note_on,560,0,6,,,,,,,,6,,,,53,92
42360,note_on,560,0,7,,,,,,,,7,,,,41,92
42360,note_on,560,0,5,,,,,,,,5,,,,72,92
42360,note_on,40,0,8,,,,,,,,8,,,,80,92
42360,note_on,560,0,12,,,,,,,,13,,,,41,92
42360,note_on,40,0,9,,,,,,,,10,,,,77,92
42360,note_on,40,0,4,,,,,,,,4,,,,77,92
42360,note_on,560,0,13,,,,,,,,14,,,,41,60
42440,note_off,80,0,9,,,,,,,,10,,,,77,64
42440,note_off,80,0,11,,,,,,,,12,,,,53,64
42440,note_off,80,0,6,,,,,,,,6,,,,53,64
42440,note_off,80,0,10,,,,,,,,11,,,,72,64
42440,note_off,80,0,12,,,,,,,,13,,,,41,64
42440,note_off,80,0,8,,,,,,,,8,,,,80,64
42440,note_off,80,0,3,,,,,,,,3,,,,80,64
42440,note_off,80,0,4,,,,,,,,4,,,,77,64
42440,note_off,80,0,7,,,,,,,,7,,,,41,64
42440,note_off,80,0,5,,,,,,,,5,,,,72,64
42480,note_on,40,0,9,,,,,,,,10,,,,68,92
42480,note_on,40,0,10,,,,,,,,11,,,,68,92
42480,note_on,40,0,12,,,,,,,,13,,,,29,92
42480,note_on,40,0,4,,,,,,,,4,,,,68,92
42480,note_on,40,0,11,,,,,,,,12,,,,41,92
42480,note_on,40,0,7,,,,,,,,7,,,,29,92
42480,note_on,40,0,8,,,,,,,,8,,,,72,92
42480,note_on,40,0,6,,,,,,,,6,,,,41,92
42480,note_on,40,0,3,,,,,,,,3,,,,72,92
42480,note_on,40,0,5,,,,,,,,5,,,,68,92
42560,note_off,80,0,12,,,,,,,,13,,,,29,64
42560,note_off,80,0,9,,,,,,,,10,,,,68,64
42560,note_off,80,0,8,,,,,,,,8,,,,72,64
42560,note_off,80,0,10,,,,,,,,11,,,,68,64
42560,note_off,80,0,5,,,,,,,,5,,,,68,64
42560,note_off,80,0,4,,,,,,,,4,,,,68,64
42560,note_off,80,0,6,,,,,,,,6,,,,41,64
42560,note_off,80,0,11,,,,,,,,12,,,,41,64
42560,note_off,80,0,7,,,,,,,,7,,,,29,64
42560,note_off,80,0,3,,,,,,,,3,,,,72,64
42595,note_off,235,0,13,,,,,,,,14,,,,41,64
42600,note_on,5,0,13,,,,,,,,14,,,,41,60
42600,note_on,40,0,4,,,,,,,,4,,,,77,92
42600,note_on,40,0,8,,,,,,,,8,,,,80,92
42600,note_on,40,0,3,,,,,,,,3,,,,80,92
42600,note_on,40,0,12,,,,,,,,13,,,,41,92
42600,note_on,40,0,9,,,,,,,,10,,,,77,92
42600,note_on,40,0,7,,,,,,,,7,,,,41,92
42600,note_on,40,0,11,,,,,,,,12,,,,53,92
42600,note_on,40,0,10,,,,,,,,11,,,,72,92
42600,note_on,40,0,6,,,,,,,,6,,,,53,92
42600,note_on,40,0,5,,,,,,,,5,,,,72,92
42680,note_off,80,0,6,,,,,,,,6,,,,53,64
42680,note_off,80,0,12,,,,,,,,13,,,,41,64
42680,note_off,80,0,9,,,,,,,,10,,,,77,64
42680,note_off,80,0,5,,,,,,,,5,,,,72,64
42680,note_off,80,0,3,,,,,,,,3,,,,80,64
42680,note_off,80,0,4,,,,,,,,4,,,,77,64
42680,note_off,80,0,10,,,,,,,,11,,,,72,64
42680,note_off,80,0,11,,,,,,,,12,,,,53,64
42680,note_off,80,0,8,,,,,,,,8,,,,80,64
42680,note_off,80,0,7,,,,,,,,7,,,,41,64
42720,note_on,40,0,8,,,,,,,,8,,,,72,92
42720,note_on,40,0,4,,,,,,,,4,,,,68,92
42720,note_on,40,0,10,,,,,,,,11,,,,68,92
42720,note_on,40,0,11,,,,,,,,12,,,,41,92
42720,note_on,40,0,9,,,,,,,,10,,,,68,92
42720,note_on,40,0,3,,,,,,,,3,,,,72,92
42720,note_on,40,0,6,,,,,,,,6,,,,41,92
42720,note_on,40,0,12,,,,,,,,13,,,,29,92
42720,note_on,40,0,5,,,,,,,,5,,,,68,92
42720,note_on,40,0,7,,,,,,,,7,,,,29,92
42800,note_off,80,0,7,,,,,,,,7,,,,29,64
42800,note_off,80,0,3,,,,,,,,3,,,,72,64
42800,note_off,80,0,8,,,,,,,,8,,,,72,64
42800,note_off,80,0,12,,,,,,,,13,,,,29,64
42800,note_off,80,0,11,,,,,,,,12,,,,41,64
42800,note_off,80,0,9,,,,,,,,10,,,,68,64
42800,note_off,80,0,10,,,,,,,,11,,,,68,64
42800,note_off,80,0,5,,,,,,,,5,,,,68,64
42800,note_off,80,0,6,,,,,,,,6,,,,41,64
42800,note_off,80,0,4,,,,,,,,4,,,,68,64
42835,note_off,235,0,13,,,,,,,,14,,,,41,64
42840,note_on,40,0,12,,,,,,,,13,,,,41,92
42840,note_on,5,0,13,,,,,,,,14,,,,41,60
42840,note_on,40,0,5,,,,,,,,5,,,,72,92
42840,note_on,40,0,3,,,,,,,,3,,,,80,92
42840,note_on,40,0,4,,,,,,,,4,,,,77,92
42840,note_on,40,0,7,,,,,,,,7,,,,41,92
42840,note_on,40,0,6,,,,,,,,6,,,,53,92
42840,note_on,40,0,10,,,,,,,,11,,,,72,92
42840,note_on,40,0,11,,,,,,,,12,,,,53,92
42840,note_on,40,0,8,,,,,,,,8,,,,80,92
42840,note_on,40,0,9,,,,,,,,10,,,,77,92
42920,note_off,80,0,5,,,,,,,,5,,,,72,64
42920,note_off,80,0,4,,,,,,,,4,,,,77,64
42920,note_off,80,0,6,,,,,,,,6,,,,53,64
42920,note_off,80,0,11,,,,,,,,12,,,,53,64
42920,note_off,80,0,8,,,,,,,,8,,,,80,64
42920,note_off,80,0,7,,,,,,,,7,,,,41,64
42920,note_off,80,0,12,,,,,,,,13,,,,41,64
42920,note_off,80,0,3,,,,,,,,3,,,,80,64
42920,note_off,80,0,10,,,,,,,,11,,,,72,64
42920,note_off,80,0,9,,,,,,,,10,,,,77,64
42960,note_on,40,0,12,,,,,,,,13,,,,29,92
42960,note_on,40,0,3,,,,,,,,3,,,,72,92
42960,note_on,40,0,5,,,,,,,,5,,,,68,92
42960,note_on,40,0,10,,,,,,,,11,,,,68,92
42960,note_on,40,0,8,,,,,,,,8,,,,72,92
42960,note_on,40,0,9,,,,,,,,10,,,,68,92
42960,note_on,40,0,7,,,,,,,,7,,,,29,92
42960,note_on,40,0,4,,,,,,,,4,,,,68,92
42960,note_on,40,0,11,,,,,,,,12,,,,41,92
42960,note_on,40,0,6,,,,,,,,6,,,,41,92
43040,note_off,80,0,8,,,,,,,,8,,,,72,64
43040,note_off,80,0,10,,,,,,,,11,,,,68,64
43040,note_off,80,0,7,,,,,,,,7,,,,29,64
43040,note_off,80,0,5,,,,,,,,5,,,,68,64
43040,note_off,80,0,3,,,,,,,,3,,,,72,64
43040,note_off,80,0,12,,,,,,,,13,,,,29,64
43040,note_off,80,0,6,,,,,,,,6,,,,41,64
43040,note_off,80,0,9,,,,,,,,10,,,,68,64
43040,note_off,80,0,11,,,,,,,,12,,,,41,64
43040,note_off,80,0,4,,,,,,,,4,,,,68,64
43075,note_off,235,0,13,,,,,,,,14,,,,41,64
43080,note_on,40,0,7,,,,,,,,7,,,,41,92
43080,note_on,40,0,3,,,,,,,,3,,,,80,92
43080,note_on,5,0,13,,,,,,,,14,,,,41,60
43080,note_on,40,0,5,,,,,,,,5,,,,72,92
43080,note_on,40,0,8,,,,,,,,8,,,,80,92
43080,note_on,40,0,6,,,,,,,,6,,,,53,92
43080,note_on,40,0,4,,,,,,,,4,,,,77,92
43080,note_on,40,0,12,,,,,,,,13,,,,41,92
43080,note_on,40,0,10,,,,,,,,11,,,,72,92
43080,note_on,40,0,9,,,,,,,,10,,,,77,92
43080,note_on,40,0,11,,,,,,,,12,,,,53,92
43160,note_off,80,0,7,,,,,,,,7,,,,41,64
43160,note_off,80,0,5,,,,,,,,5,,,,72,64
43160,note_off,80,0,10,,,,,,,,11,,,,72,64
43160,note_off,80,0,6,,,,,,,,6,,,,53,64
43160,note_off,80,0,4,,,,,,,,4,,,,77,64
43160,note_off,80,0,3,,,,,,,,3,,,,80,64
43160,note_off,80,0,9,,,,,,,,10,,,,77,64
43160,note_off,80,0,8,,,,,,,,8,,,,80,64
43160,note_off,80,0,11,,,,,,,,12,,,,53,64
43160,note_off,80,0,12,,,,,,,,13,,,,41,64
43200,note_on,40,0,6,,,,,,,,6,,,,41,92
43200,note_on,40,0,10,,,,,,,,11,,,,68,92
43200,note_on,40,0,12,,,,,,,,13,,,,29,92
43200,note_on,40,0,11,,,,,,,,12,,,,41,92
43200,note_on,40,0,8,,,,,,,,8,,,,72,92
43200,note_on,40,0,7,,,,,,,,7,,,,29,92
43200,note_on,40,0,5,,,,,,,,5,,,,68,92
43200,note_on,40,0,4,,,,,,,,4,,,,68,92
43200,note_on,40,0,3,,,,,,,,3,,,,72,92
43200,note_on,40,0,9,,,,,,,,10,,,,68,92
43280,note_off,80,0,12,,,,,,,,13,,,,29,64
43280,note_off,80,0,10,,,,,,,,11,,,,68,64
43280,note_off,80,0,8,,,,,,,,8,,,,72,64
43280,note_off,80,0,4,,,,,,,,4,,,,68,64
43280,note_off,80,0,11,,,,,,,,12,,,,41,64
43280,note_off,80,0,9,,,,,,,,10,,,,68,64
43280,note_off,80,0,6,,,,,,,,6,,,,41,64
43280,note_off,80,0,5,,,,,,,,5,,,,68,64
43280,note_off,80,0,7,,,,,,,,7,,,,29,64
43280,note_off,80,0,3,,,,,,,,3,,,,72,64
43315,note_off,235,0,13,,,,,,,,14,,,,41,64
43320,note_on,5,0,13,,,,,,,,14,,,,34,60
43320,note_on,40,0,12,,,,,,,,13,,,,34,92
43320,note_on,40,0,6,,,,,,,,6,,,,46,92
43320,note_on,40,0,8,,,,,,,,8,,,,73,92
43320,note_on,40,0,3,,,,,,,,3,,,,73,92
43320,note_on,40,0,7,,,,,,,,7,,,,34,92
43320,note_on,40,0,11,,,,,,,,12,,,,46,92
43320,note_on,40,0,5,,,,,,,,5,,,,68,92
43320,note_on,40,0,10,,,,,,,,11,,,,68,92
43320,note_on,40,0,9,,,,,,,,10,,,,77,92
43320,note_on,40,0,4,,,,,,,,4,,,,77,92
43400,note_off,80,0,4,,,,,,,,4,,,,77,64
43400,note_off,80,0,3,,,,,,,,3,,,,73,64
43400,note_off,80,0,9,,,,,,,,10,,,,77,64
43400,note_off,80,0,8,,,,,,,,8,,,,73,64
43440,note_on,40,0,3,,,,,,,,3,,,,73,92
43440,note_on,40,0,9,,,,,,,,10,,,,77,92
43440,note_on,40,0,8,,,,,,,,8,,,,73,92
43440,note_on,40,0,4,,,,,,,,4,,,,77,92
43480,note_off,40,0,8,,,,,,,,8,,,,73,64
43480,note_off,40,0,3,,,,,,,,3,,,,73,64
43480,note_off,40,0,9,,,,,,,,10,,,,77,64
43480,note_off,40,0,4,,,,,,,,4,,,,77,64
43500,note_on,20,0,8,,,,,,,,8,,,,73,92
43500,note_on,20,0,3,,,,,,,,3,,,,73,92
43500,note_on,20,0,4,,,,,,,,4,,,,77,92
43500,note_on,20,0,9,,,,,,,,10,,,,77,92
43540,note_off,40,0,8,,,,,,,,8,,,,73,64
43540,note_off,40,0,3,,,,,,,,3,,,,73,64
43540,note_off,40,0,9,,,,,,,,10,,,,77,64
43540,note_off,40,0,4,,,,,,,,4,,,,77,64
43560,note_on,20,0,4,,,,,,,,4,,,,77,92
43560,note_on,20,0,3,,,,,,,,3,,,,73,92
43560,note_on,20,0,9,,,,,,,,10,,,,77,92
43560,note_on,20,0,8,,,,,,,,8,,,,73,92
43600,note_off,40,0,8,,,,,,,,8,,,,73,64
43600,note_off,40,0,9,,,,,,,,10,,,,77,64
43600,note_off,40,0,4,,,,,,,,4,,,,77,64
43600,note_off,40,0,3,,,,,,,,3,,,,73,64
43620,note_on,20,0,9,,,,,,,,10,,,,77,92
43620,note_on,20,0,4,,,,,,,,4,,,,77,92
43620,note_on,20,0,8,,,,,,,,8,,,,73,92
43620,note_on,20,0,3,,,,,,,,3,,,,73,92
43660,note_off,40,0,9,,,,,,,,10,,,,77,64
43660,note_off,40,0,3,,,,,,,,3,,,,73,64
43660,note_off,40,0,4,,,,,,,,4,,,,77,64
43660,note_off,40,0,8,,,,,,,,8,,,,73,64
43680,note_on,20,0,9,,,,,,,,10,,,,77,92
43680,note_on,20,0,8,,,,,,,,8,,,,73,92
43680,note_on,20,0,3,,,,,,,,3,,,,73,92
43680,note_on,20,0,4,,,,,,,,4,,,,77,92
43720,note_off,400,0,10,,,,,,,,11,,,,68,64
43720,note_off,400,0,11,,,,,,,,12,,,,46,64
43720,note_off,400,0,6,,,,,,,,6,,,,46,64
43720,note_off,400,0,7,,,,,,,,7,,,,34,64
43720,note_off,40,0,8,,,,,,,,8,,,,73,64
43720,note_off,40,0,9,,,,,,,,10,,,,77,64
43720,note_off,400,0,5,,,,,,,,5,,,,68,64
43720,note_off,400,0,13,,,,,,,,14,,,,34,64
43720,note_off,40,0,3,,,,,,,,3,,,,73,64
43720,note_off,40,0,4,,,,,,,,4,,,,77,64
43720,note_off,400,0,12,,,,,,,,13,,,,34,64
43740,note_on,20,0,8,,,,,,,,8,,,,73,92
43740,note_on,20,0,3,,,,,,,,3,,,,73,92
43740,note_on,20,0,4,,,,,,,,4,,,,77,92
43740,note_on,20,0,9,,,,,,,,10,,,,77,92
43780,note_off,40,0,4,,,,,,,,4,,,,77,64
43780,note_off,40,0,8,,,,,,,,8,,,,73,64
43780,note_off,40,0,9,,,,,,,,10,,,,77,64
43780,note_off,40,0,3,,,,,,,,3,,,,73,64
43800,note_on,20,0,3,,,,,,,,3,,,,73,92
43800,note_on,20,0,8,,,,,,,,8,,,,73,92
43800,note_on,20,0,4,,,,,,,,4,,,,77,92
43800,note_on,20,0,9,,,,,,,,10,,,,77,92
43880,note_off,80,0,4,,,,,,,,4,,,,77,64
43880,note_off,80,0,9,,,,,,,,10,,,,77,64
43880,note_off,80,0,8,,,,,,,,8,,,,73,64
43880,note_off,80,0,3,,,,,,,,3,,,,73,64
43920,note_on,40,0,8,,,,,,,,8,,,,73,92
43920,note_on,40,0,9,,,,,,,,10,,,,77,92
43920,note_on,40,0,3,,,,,,,,3,,,,73,92
43920,note_on,40,0,4,,,,,,,,4,,,,77,92
44000,note_off,80,0,8,,,,,,,,8,,,,73,64
44000,note_off,80,0,3,,,,,,,,3,,,,73,64
44000,note_off,80,0,9,,,,,,,,10,,,,77,64
44000,note_off,80,0,4,,,,,,,,4,,,,77,64
44040,note_on,40,0,9,,,,,,,,10,,,,77,92
44040,note_on,40,0,4,,,,,,,,4,,,,77,92
44040,note_on,40,0,3,,,,,,,,3,,,,73,92
44040,note_on,40,0,8,,,,,,,,8,,,,73,92
44120,note_off,80,0,3,,,,,,,,3,,,,73,64
44120,note_off,80,0,4,,,,,,,,4,,,,77,64
44120,note_off,80,0,8,,,,,,,,8,,,,73,64
44120,note_off,80,0,9,,,,,,,,10,,,,77,64
44160,note_on,40,0,4,,,,,,,,4,,,,77,92
44160,note_on,40,0,3,,,,,,,,3,,,,73,92
44160,note_on,40,0,8,,,,,,,,8,,,,73,92
44160,note_on,40,0,9,,,,,,,,10,,,,77,92
44240,note_off,80,0,8,,,,,,,,8,,,,73,64
44240,note_off,80,0,4,,,,,,,,4,,,,77,64
44240,note_off,80,0,9,,,,,,,,10,,,,77,64
44240,note_off,80,0,3,,,,,,,,3,,,,73,64
44280,note_on,40,0,9,,,,,,,,10,,,,75,92
44280,note_on,560,0,13,,,,,,,,14,,,,39,60
44280,note_on,560,0,5,,,,,,,,5,,,,70,92
44280,note_on,560,0,6,,,,,,,,6,,,,51,92
44280,note_on,560,0,7,,,,,,,,7,,,,39,92
44280,note_on,560,0,11,,,,,,,,12,,,,51,92
44280,note_on,40,0,3,,,,,,,,3,,,,79,92
44280,note_on,40,0,8,,,,,,,,8,,,,79,92
44280,note_on,40,0,4,,,,,,,,4,,,,75,92
44280,note_on,560,0,10,,,,,,,,11,,,,70,92
44280,note_on,560,0,12,,,,,,,,13,,,,39,92
44360,note_off,80,0,3,,,,,,,,3,,,,79,64
44360,note_off,80,0,12,,,,,,,,13,,,,39,64
44360,note_off,80,0,8,,,,,,,,8,,,,79,64
44360,note_off,80,0,5,,,,,,,,5,,,,70,64
44360,note_off,80,0,6,,,,,,,,6,,,,51,64
44360,note_off,80,0,10,,,,,,,,11,,,,70,64
44360,note_off,80,0,7,,,,,,,,7,,,,39,64
44360,note_off,80,0,4,,,,,,,,4,,,,75,64
44360,note_off,80,0,9,,,,,,,,10,,,,75,64
44360,note_off,80,0,11,,,,,,,,12,,,,51,64
44400,note_on,40,0,3,,,,,,,,3,,,,73,92
44400,note_on,40,0,9,,,,,,,,10,,,,70,92
44400,note_on,40,0,7,,,,,,,,7,,,,27,92
44400,note_on,40,0,4,,,,,,,,4,,,,70,92
44400,note_on,40,0,5,,,,,,,,5,,,,67,92
44400,note_on,40,0,11,,,,,,,,12,,,,39,92
44400,note_on,40,0,8,,,,,,,,8,,,,73,92
44400,note_on,40,0,6,,,,,,,,6,,,,39,92
44400,note_on,40,0,12,,,,,,,,13,,,,27,92
44400,note_on,40,0,10,,,,,,,,11,,,,67,92
44480,note_off,80,0,11,,,,,,,,12,,,,39,64
44480,note_off,80,0,4,,,,,,,,4,,,,70,64
44480,note_off,80,0,6,,,,,,,,6,,,,39,64
44480,note_off,80,0,12,,,,,,,,13,,,,27,64
44480,note_off,80,0,10,,,,,,,,11,,,,67,64
44480,note_off,80,0,5,,,,,,,,5,,,,67,64
44480,note_off,80,0,7,,,,,,,,7,,,,27,64
44480,note_off,80,0,8,,,,,,,,8,,,,73,64
44480,note_off,80,0,9,,,,,,,,10,,,,70,64
44480,note_off,80,0,3,,,,,,,,3,,,,73,64
44515,note_off,235,0,13,,,,,,,,14,,,,39,64
44520,note_on,40,0,12,,,,,,,,13,,,,39,92
44520,note_on,40,0,8,,,,,,,,8,,,,79,92
44520,note_on,40,0,9,,,,,,,,10,,,,75,92
44520,note_on,40,0,3,,,,,,,,3,,,,79,92
44520,note_on,40,0,6,,,,,,,,6,,,,51,92
44520,note_on,40,0,10,,,,,,,,11,,,,70,92
44520,note_on,40,0,4,,,,,,,,4,,,,75,92
44520,note_on,40,0,5,,,,,,,,5,,,,70,92
44520,note_on,40,0,7,,,,,,,,7,,,,39,92
44520,note_on,40,0,11,,,,,,,,12,,,,51,92
44520,note_on,5,0,13,,,,,,,,14,,,,39,60
44600,note_off,80,0,8,,,,,,,,8,,,,79,64
44600,note_off,80,0,12,,,,,,,,13,,,,39,64
44600,note_off,80,0,7,,,,,,,,7,,,,39,64
44600,note_off,80,0,10,,,,,,,,11,,,,70,64
44600,note_off,80,0,5,,,,,,,,5,,,,70,64
44600,note_off,80,0,9,,,,,,,,10,,,,75,64
44600,note_off,80,0,3,,,,,,,,3,,,,79,64
44600,note_off,80,0,4,,,,,,,,4,,,,75,64
44600,note_off,80,0,11,,,,,,,,12,,,,51,64
44600,note_off,80,0,6,,,,,,,,6,,,,51,64
44640,note_on,40,0,7,,,,,,,,7,,,,27,92
44640,note_on,40,0,6,,,,,,,,6,,,,39,92
44640,note_on,40,0,8,,,,,,,,8,,,,73,92
44640,note_on,40,0,9,,,,,,,,10,,,,70,92
44640,note_on,40,0,3,,,,,,,,3,,,,73,92
44640,note_on,40,0,4,,,,,,,,4,,,,70,92
44640,note_on,40,0,10,,,,,,,,11,,,,67,92
44640,note_on,40,0,12,,,,,,,,13,,,,27,92
44640,note_on,40,0,5,,,,,,,,5,,,,67,92
44640,note_on,40,0,11,,,,,,,,12,,,,39,92
44720,note_off,80,0,12,,,,,,,,13,,,,27,64
44720,note_off,80,0,11,,,,,,,,12,,,,39,64
44720,note_off,80,0,9,,,,,,,,10,,,,70,64
44720,note_off,80,0,4,,,,,,,,4,,,,70,64
44720,note_off,80,0,6,,,,,,,,6,,,,39,64
44720,note_off,80,0,7,,,,,,,,7,,,,27,64
44720,note_off,80,0,8,,,,,,,,8,,,,73,64
44720,note_off,80,0,10,,,,,,,,11,,,,67,64
44720,note_off,80,0,5,,,,,,,,5,,,,67,64
44720,note_off,80,0,3,,,,,,,,3,,,,73,64
44755,note_off,235,0,13,,,,,,,,14,,,,39,64
44760,note_on,40,0,8,,,,,,,,8,,,,79,92
44760,note_on,40,0,6,,,,,,,,6,,,,51,92
44760,note_on,5,0,13,,,,,,,,14,,,,39,60
44760,note_on,40,0,3,,,,,,,,3,,,,79,92
44760,note_on,40,0,4,,,,,,,,4,,,,75,92
44760,note_on,40,0,12,,,,,,,,13,,,,39,92
44760,note_on,40,0,5,,,,,,,,5,,,,70,92
44760,note_on,40,0,9,,,,,,,,10,,,,75,92
44760,note_on,40,0,11,,,,,,,,12,,,,51,92
44760,note_on,40,0,7,,,,,,,,7,,,,39,92
44760,note_on,40,0,10,,,,,,,,11,,,,70,92
44840,note_off,80,0,6,,,,,,,,6,,,,51,64
44840,note_off,80,0,9,,,,,,,,10,,,,75,64
44840,note_off,80,0,10,,,,,,,,11,,,,70,64
44840,note_off,80,0,5,,,,,,,,5,,,,70,64
44840,note_off,80,0,3,,,,,,,,3,,,,79,64
44840,note_off,80,0,11,,,,,,,,12,,,,51,64
44840,note_off,80,0,7,,,,,,,,7,,,,39,64
44840,note_off,80,0,12,,,,,,,,13,,,,39,64
44840,note_off,80,0,4,,,,,,,,4,,,,75,64
44840,note_off,80,0,8,,,,,,,,8,,,,79,64
44880,note_on,40,0,7,,,,,,,,7,,,,27,92
44880,note_on,40,0,11,,,,,,,,12,,,,39,92
44880,note_on,40,0,5,,,,,,,,5,,,,67,92
44880,note_on,40,0,3,,,,,,,,3,,,,73,92
44880,note_on,40,0,8,,,,,,,,8,,,,73,92
44880,note_on,40,0,12,,,,,,,,13,,,,27,92
44880,note_on,40,0,9,,,,,,,,10,,,,70,92
44880,note_on,40,0,4,,,,,,,,4,,,,70,92
44880,note_on,40,0,6,,,,,,,,6,,,,39,92
44880,note_on,40,0,10,,,,,,,,11,,,,67,92
44960,note_off,80,0,8,,,,,,,,8,,,,73,64
44960,note_off,80,0,6,,,,,,,,6,,,,39,64
44960,note_off,80,0,9,,,,,,,,10,,,,70,64
44960,note_off,80,0,10,,,,,,,,11,,,,67,64
44960,note_off,80,0,11,,,,,,,,12,,,,39,64
44960,note_off,80,0,3,,,,,,,,3,,,,73,64
44960,note_off,80,0,5,,,,,,,,5,,,,67,64
44960,note_off,80,0,7,,,,,,,,7,,,,27,64
44960,note_off,80,0,4,,,,,,,,4,,,,70,64
44960,note_off,80,0,12,,,,,,,,13,,,,27,64
44995,note_off,235,0,13,,,,,,,,14,,,,39,64
45000,note_on,40,0,8,,,,,,,,8,,,,79,92
45000,note_on,40,0,10,,,,,,,,11,,,,70,92
45000,note_on,40,0,5,,,,,,,,5,,,,70,92
45000,note_on,40,0,11,,,,,,,,12,,,,51,92
45000,note_on,40,0,6,,,,,,,,6,,,,51,92
45000,note_on,40,0,9,,,,,,,,10,,,,75,92
45000,note_on,40,0,12,,,,,,,,13,,,,39,92
45000,note_on,40,0,3,,,,,,,,3,,,,79,92
45000,note_on,5,0,13,,,,,,,,14,,,,39,60
45000,note_on,40,0,7,,,,,,,,7,,,,39,92
45000,note_on,40,0,4,,,,,,,,4,,,,75,92
45080,note_off,80,0,10,,,,,,,,11,,,,70,64
45080,note_off,80,0,5,,,,,,,,5,,,,70,64
45080,note_off,80,0,8,,,,,,,,8,,,,79,64
45080,note_off,80,0,3,,,,,,,,3,,,,79,64
45080,note_off,80,0,6,,,,,,,,6,,,,51,64
45080,note_off,80,0,7,,,,,,,,7,,,,39,64
45080,note_off,80,0,4,,,,,,,,4,,,,75,64
45080,note_off,80,0,12,,,,,,,,13,,,,39,64
45080,note_off,80,0,9,,,,,,,,10,,,,75,64
45080,note_off,80,0,11,,,,,,,,12,,,,51,64
45120,note_on,40,0,8,,,,,,,,8,,,,73,92
45120,note_on,40,0,10,,,,,,,,11,,,,67,92
45120,note_on,40,0,9,,,,,,,,10,,,,70,92
45120,note_on,40,0,7,,,,,,,,7,,,,27,92
45120,note_on,40,0,6,,,,,,,,6,,,,39,92
45120,note_on,40,0,5,,,,,,,,5,,,,67,92
45120,note_on,40,0,3,,,,,,,,3,,,,73,92
45120,note_on,40,0,11,,,,,,,,12,,,,39,92
45120,note_on,40,0,12,,,,,,,,13,,,,27,92
45120,note_on,40,0,4,,,,,,,,4,,,,70,92
45200,note_off,80,0,7,,,,,,,,7,,,,27,64
45200,note_off,80,0,11,,,,,,,,12,,,,39,64
45200,note_off,80,0,9,,,,,,,,10,,,,70,64
45200,note_off,80,0,6,,,,,,,,6,,,,39,64
45200,note_off,80,0,8,,,,,,,,8,,,,73,64
45200,note_off,80,0,3,,,,,,,,3,,,,73,64
45200,note_off,80,0,4,,,,,,,,4,,,,70,64
45200,note_off,80,0,12,,,,,,,,13,,,,27,64
45200,note_off,80,0,10,,,,,,,,11,,,,67,64
45200,note_off,80,0,5,,,,,,,,5,,,,67,64
45235,note_off,235,0,13,,,,,,,,14,,,,39,64
45240,note_on,40,0,6,,,,,,,,6,,,,44,92
45240,note_on,40,0,10,,,,,,,,11,,,,67,92
45240,note_on,40,0,5,,,,,,,,5,,,,67,92
45240,note_on,40,0,9,,,,,,,,10,,,,75,92
45240,note_on,40,0,12,,,,,,,,13,,,,32,92
45240,note_on,40,0,11,,,,,,,,12,,,,44,92
45240,note_on,40,0,4,,,,,,,,4,,,,75,92
45240,note_on,40,0,8,,,,,,,,8,,,,72,92
45240,note_on,40,0,7,,,,,,,,7,,,,32,92
45240,note_on,40,0,3,,,,,,,,3,,,,72,92
45240,note_on,5,0,13,,,,,,,,14,,,,32,60
45320,note_off,80,0,8,,,,,,,,8,,,,72,64
45320,note_off,80,0,4,,,,,,,,4,,,,75,64
45320,note_off,80,0,9,,,,,,,,10,,,,75,64
45320,note_off,80,0,3,,,,,,,,3,,,,72,64
45360,note_on,40,0,3,,,,,,,,3,,,,72,92
45360,note_on,40,0,8,,,,,,,,8,,,,72,92
45360,note_on,40,0,9,,,,,,,,10,,,,75,92
45360,note_on,40,0,4,,,,,,,,4,,,,75,92
45400,note_off,40,0,4,,,,,,,,4,,,,75,64
45400,note_off,40,0,8,,,,,,,,8,,,,72,64
45400,note_off,40,0,3,,,,,,,,3,,,,72,64
45400,note_off,40,0,9,,,,,,,,10,,,,75,64
45420,note_on,20,0,4,,,,,,,,4,,,,75,92
45420,note_on,20,0,8,,,,,,,,8,,,,72,92
45420,note_on,20,0,9,,,,,,,,10,,,,75,92
45420,note_on,20,0,3,,,,,,,,3,,,,72,92
45460,note_off,40,0,4,,,,,,,,4,,,,75,64
45460,note_off,40,0,3,,,,,,,,3,,,,72,64
45460,note_off,40,0,8,,,,,,,,8,,,,72,64
45460,note_off,40,0,9,,,,,,,,10,,,,75,64
45480,note_on,20,0,4,,,,,,,,4,,,,75,92
45480,note_on,20,0,3,,,,,,,,3,,,,72,92
45480,note_on,20,0,8,,,,,,,,8,,,,72,92
45480,note_on,20,0,9,,,,,,,,10,,,,75,92
45520,note_off,40,0,8,,,,,,,,8,,,,72,64
45520,note_off,40,0,3,,,,,,,,3,,,,72,64
45520,note_off,40,0,4,,,,,,,,4,,,,75,64
45520,note_off,40,0,9,,,,,,,,10,,,,75,64
45540,note_on,20,0,4,,,,,,,,4,,,,75,92
45540,note_on,20,0,9,,,,,,,,10,,,,75,92
45540,note_on,20,0,8,,,,,,,,8,,,,72,92
45540,note_on,20,0,3,,,,,,,,3,,,,72,92
45580,note_off,40,0,4,,,,,,,,4,,,,75,64
45580,note_off,40,0,9,,,,,,,,10,,,,75,64
45580,note_off,40,0,8,,,,,,,,8,,,,72,64
45580,note_off,40,0,3,,,,,,,,3,,,,72,64
45600,note_on,20,0,4,,,,,,,,4,,,,75,92
45600,note_on,20,0,9,,,,,,,,10,,,,75,92
45600,note_on,20,0,8,,,,,,,,8,,,,72,92
45600,note_on,20,0,3,,,,,,,,3,,,,72,92
45640,note_off,40,0,8,,,,,,,,8,,,,72,64
45640,note_off,40,0,3,,,,,,,,3,,,,72,64
45640,note_off,400,0,12,,,,,,,,13,,,,32,64
45640,note_off,400,0,6,,,,,,,,6,,,,44,64
45640,note_off,400,0,13,,,,,,,,14,,,,32,64
45640,note_off,400,0,7,,,,,,,,7,,,,32,64
45640,note_off,400,0,11,,,,,,,,12,,,,44,64
45640,note_off,40,0,4,,,,,,,,4,,,,75,64
45640,note_off,400,0,10,,,,,,,,11,,,,67,64
45640,note_off,40,0,9,,,,,,,,10,,,,75,64
45640,note_off,400,0,5,,,,,,,,5,,,,67,64
45660,note_on,20,0,3,,,,,,,,3,,,,72,92
45660,note_on,20,0,4,,,,,,,,4,,,,75,92
45660,note_on,20,0,9,,,,,,,,10,,,,75,92
45660,note_on,20,0,8,,,,,,,,8,,,,72,92
45700,note_off,40,0,4,,,,,,,,4,,,,75,64
45700,note_off,40,0,8,,,,,,,,8,,,,72,64
45700,note_off,40,0,9,,,,,,,,10,,,,75,64
45700,note_off,40,0,3,,,,,,,,3,,,,72,64
45720,note_on,20,0,4,,,,,,,,4,,,,75,92
45720,note_on,20,0,3,,,,,,,,3,,,,72,92
45720,note_on,20,0,8,,,,,,,,8,,,,72,92
45720,note_on,20,0,9,,,,,,,,10,,,,75,92
45800,note_off,80,0,8,,,,,,,,8,,,,72,64
45800,note_off,80,0,9,,,,,,,,10,,,,75,64
45800,note_off,80,0,3,,,,,,,,3,,,,72,64
45800,note_off,80,0,4,,,,,,,,4,,,,75,64
45840,note_on,40,0,4,,,,,,,,4,,,,75,92
45840,note_on,40,0,3,,,,,,,,3,,,,72,92
45840,note_on,40,0,9,,,,,,,,10,,,,75,92
45840,note_on,40,0,8,,,,,,,,8,,,,72,92
45920,note_off,80,0,9,,,,,,,,10,,,,75,64
45920,note_off,80,0,8,,,,,,,,8,,,,72,64
45920,note_off,80,0,3,,,,,,,,3,,,,72,64
45920,note_off,80,0,4,,,,,,,,4,,,,75,64
45960,note_on,40,0,9,,,,,,,,10,,,,75,92
45960,note_on,40,0,3,,,,,,,,3,,,,72,92
45960,note_on,40,0,4,,,,,,,,4,,,,75,92
45960,note_on,40,0,8,,,,,,,,8,,,,72,92
46040,note_off,80,0,4,,,,,,,,4,,,,75,64
46040,note_off,80,0,9,,,,,,,,10,,,,75,64
46040,note_off,80,0,8,,,,,,,,8,,,,72,64
46040,note_off,80,0,3,,,,,,,,3,,,,72,64
46080,note_on,40,0,4,,,,,,,,4,,,,75,92
46080,note_on,40,0,9,,,,,,,,10,,,,75,92
46080,note_on,40,0,8,,,,,,,,8,,,,72,92
46080,note_on,40,0,3,,,,,,,,3,,,,72,92
46160,note_off,80,0,8,,,,,,,,8,,,,72,64
46160,note_off,80,0,9,,,,,,,,10,,,,75,64
46160,note_off,80,0,3,,,,,,,,3,,,,72,64
46160,note_off,80,0,4,,,,,,,,4,,,,75,64
46200,note_on,40,0,3,,,,,,,,3,,,,77,92
46200,note_on,40,0,8,,,,,,,,8,,,,77,92
46200,note_on,560,0,10,,,,,,,,11,,,,68,92
46200,note_on,560,0,13,,,,,,,,14,,,,37,60
46200,note_on,560,0,6,,,,,,,,6,,,,49,92
46200,note_on,560,0,7,,,,,,,,7,,,,37,92
46200,note_on,560,0,12,,,,,,,,13,,,,37,92
46200,note_on,40,0,9,,,,,,,,10,,,,73,92
46200,note_on,560,0,11,,,,,,,,12,,,,49,92
46200,note_on,40,0,4,,,,,,,,4,,,,73,92
46200,note_on,560,0,5,,,,,,,,5,,,,68,92
46280,note_off,80,0,3,,,,,,,,3,,,,77,64
46280,note_off,80,0,10,,,,,,,,11,,,,68,64
46280,note_off,80,0,12,,,,,,,,13,,,,37,64
46280,note_off,80,0,4,,,,,,,,4,,,,73,64
46280,note_off,80,0,9,,,,,,,,10,,,,73,64
46280,note_off,80,0,5,,,,,,,,5,,,,68,64
46280,note_off,80,0,6,,,,,,,,6,,,,49,64
46280,note_off,80,0,11,,,,,,,,12,,,,49,64
46280,note_off,80,0,8,,,,,,,,8,,,,77,64
46280,note_off,80,0,7,,,,,,,,7,,,,37,64
46320,note_on,40,0,3,,,,,,,,3,,,,72,92
46320,note_on,40,0,5,,,,,,,,5,,,,65,92
46320,note_on,40,0,10,,,,,,,,11,,,,65,92
46320,note_on,40,0,12,,,,,,,,13,,,,25,92
46320,note_on,40,0,7,,,,,,,,7,,,,25,92
46320,note_on,40,0,4,,,,,,,,4,,,,68,92
46320,note_on,40,0,11,,,,,,,,12,,,,37,92
46320,note_on,40,0,8,,,,,,,,8,,,,72,92
46320,note_on,40,0,6,,,,,,,,6,,,,37,92
46320,note_on,40,0,9,,,,,,,,10,,,,68,92
46400,note_off,80,0,6,,,,,,,,6,,,,37,64
46400,note_off,80,0,3,,,,,,,,3,,,,72,64
46400,note_off,80,0,5,,,,,,,,5,,,,65,64
46400,note_off,80,0,7,,,,,,,,7,,,,25,64
46400,note_off,80,0,8,,,,,,,,8,,,,72,64
46400,note_off,80,0,10,,,,,,,,11,,,,65,64
46400,note_off,80,0,9,,,,,,,,10,,,,68,64
46400,note_off,80,0,12,,,,,,,,13,,,,25,64
46400,note_off,80,0,4,,,,,,,,4,,,,68,64
46400,note_off,80,0,11,,,,,,,,12,,,,37,64
46435,note_off,235,0,13,,,,,,,,14,,,,37,64
46440,note_on,40,0,12,,,,,,,,13,,,,37,92
46440,note_on,40,0,6,,,,,,,,6,,,,49,92
46440,note_on,40,0,5,,,,,,,,5,,,,68,92
46440,note_on,40,0,4,,,,,,,,4,,,,73,92
46440,note_on,40,0,8,,,,,,,,8,,,,77,92
46440,note_on,5,0,13,,,,,,,,14,,,,37,60
46440,note_on,40,0,11,,,,,,,,12,,,,49,92
46440,note_on,40,0,10,,,,,,,,11,,,,68,92
46440,note_on,40,0,9,,,,,,,,10,,,,73,92
46440,note_on,40,0,3,,,,,,,,3,,,,77,92
46440,note_on,40,0,7,,,,,,,,7,,,,37,92
46520,note_off,80,0,12,,,,,,,,13,,,,37,64
46520,note_off,80,0,9,,,,,,,,10,,,,73,64
46520,note_off,80,0,3,,,,,,,,3,,,,77,64
46520,note_off,80,0,8,,,,,,,,8,,,,77,64
46520,note_off,80,0,10,,,,,,,,11,,,,68,64
46520,note_off,80,0,4,,,,,,,,4,,,,73,64
46520,note_off,80,0,6,,,,,,,,6,,,,49,64
46520,note_off,80,0,11,,,,,,,,12,,,,49,64
46520,note_off,80,0,7,,,,,,,,7,,,,37,64
46520,note_off,80,0,5,,,,,,,,5,,,,68,64
46560,note_on,40,0,7,,,,,,,,7,,,,25,92
46560,note_on,40,0,9,,,,,,,,10,,,,68,92
46560,note_on,40,0,8,,,,,,,,8,,,,72,92
46560,note_on,40,0,10,,,,,,,,11,,,,65,92
46560,note_on,40,0,4,,,,,,,,4,,,,68,92
46560,note_on,40,0,12,,,,,,,,13,,,,25,92
46560,note_on,40,0,11,,,,,,,,12,,,,37,92
46560,note_on,40,0,5,,,,,,,,5,,,,65,92
46560,note_on,40,0,3,,,,,,,,3,,,,72,92
46560,note_on,40,0,6,,,,,,,,6,,,,37,92
46640,note_off,80,0,4,,,,,,,,4,,,,68,64
46640,note_off,80,0,11,,,,,,,,12,,,,37,64
46640,note_off,80,0,5,,,,,,,,5,,,,65,64
46640,note_off,80,0,7,,,,,,,,7,,,,25,64
46640,note_off,80,0,10,,,,,,,,11,,,,65,64
46640,note_off,80,0,12,,,,,,,,13,,,,25,64
46640,note_off,80,0,3,,,,,,,,3,,,,72,64
46640,note_off,80,0,9,,,,,,,,10,,,,68,64
46640,note_off,80,0,8,,,,,,,,8,,,,72,64
46640,note_off,80,0,6,,,,,,,,6,,,,37,64
46675,note_off,235,0,13,,,,,,,,14,,,,37,64
46680,note_on,40,0,3,,,,,,,,3,,,,77,92
46680,note_on,40,0,5,,,,,,,,5,,,,68,92
46680,note_on,40,0,4,,,,,,,,4,,,,73,92
46680,note_on,40,0,12,,,,,,,,13,,,,37,92
46680,note_on,5,0,13,,,,,,,,14,,,,37,60
46680,note_on,40,0,11,,,,,,,,12,,,,49,92
46680,note_on,40,0,9,,,,,,,,10,,,,73,92
46680,note_on,40,0,6,,,,,,,,6,,,,49,92
46680,note_on,40,0,8,,,,,,,,8,,,,77,92
46680,note_on,40,0,7,,,,,,,,7,,,,37,92
46680,note_on,40,0,10,,,,,,,,11,,,,68,92
46760,note_off,80,0,10,,,,,,,,11,,,,68,64
46760,note_off,80,0,6,,,,,,,,6,,,,49,64
46760,note_off,80,0,5,,,,,,,,5,,,,68,64
46760,note_off,80,0,7,,,,,,,,7,,,,37,64
46760,note_off,80,0,3,,,,,,,,3,,,,77,64
46760,note_off,80,0,11,,,,,,,,12,,,,49,64
46760,note_off,80,0,12,,,,,,,,13,,,,37,64
46760,note_off,80,0,4,,,,,,,,4,,,,73,64
46760,note_off,80,0,8,,,,,,,,8,,,,77,64
46760,note_off,80,0,9,,,,,,,,10,,,,73,64
46800,note_on,40,0,3,,,,,,,,3,,,,72,92
46800,note_on,40,0,10,,,,,,,,11,,,,65,92
46800,note_on,40,0,8,,,,,,,,8,,,,72,92
46800,note_on,40,0,12,,,,,,,,13,,,,25,92
46800,note_on,40,0,4,,,,,,,,4,,,,68,92
46800,note_on,40,0,6,,,,,,,,6,,,,37,92
46800,note_on,40,0,11,,,,,,,,12,,,,37,92
46800,note_on,40,0,9,,,,,,,,10,,,,68,92
46800,note_on,40,0,5,,,,,,,,5,,,,65,92
46800,note_on,40,0,7,,,,,,,,7,,,,25,92
46880,note_off,80,0,11,,,,,,,,12,,,,37,64
46880,note_off,80,0,3,,,,,,,,3,,,,72,64
46880,note_off,80,0,12,,,,,,,,13,,,,25,64
46880,note_off,80,0,9,,,,,,,,10,,,,68,64
46880,note_off,80,0,7,,,,,,,,7,,,,25,64
46880,note_off,80,0,4,,,,,,,,4,,,,68,64
46880,note_off,80,0,6,,,,,,,,6,,,,37,64
46880,note_off,80,0,8,,,,,,,,8,,,,72,64
46880,note_off,80,0,5,,,,,,,,5,,,,65,64
46880,note_off,80,0,10,,,,,,,,11,,,,65,64
46915,note_off,235,0,13,,,,,,,,14,,,,37,64
46920,note_on,40,0,12,,,,,,,,13,,,,37,92
46920,note_on,40,0,9,,,,,,,,10,,,,73,92
46920,note_on,40,0,11,,,,,,,,12,,,,49,92
46920,note_on,40,0,4,,,,,,,,4,,,,73,92
46920,note_on,40,0,5,,,,,,,,5,,,,68,92
46920,note_on,40,0,8,,,,,,,,8,,,,77,92
46920,note_on,40,0,3,,,,,,,,3,,,,77,92
46920,note_on,5,0,13,,,,,,,,14,,,,37,60
46920,note_on,40,0,6,,,,,,,,6,,,,49,92
46920,note_on,40,0,10,,,,,,,,11,,,,68,92
46920,note_on,40,0,7,,,,,,,,7,,,,37,92
47000,note_off,80,0,8,,,,,,,,8,,,,77,64
47000,note_off,80,0,9,,,,,,,,10,,,,73,64
47000,note_off,80,0,12,,,,,,,,13,,,,37,64
47000,note_off,80,0,10,,,,,,,,11,,,,68,64
47000,note_off,80,0,4,,,,,,,,4,,,,73,64
47000,note_off,80,0,11,,,,,,,,12,,,,49,64
47000,note_off,80,0,7,,,,,,,,7,,,,37,64
47000,note_off,80,0,3,,,,,,,,3,,,,77,64
47000,note_off,80,0,5,,,,,,,,5,,,,68,64
47000,note_off,80,0,6,,,,,,,,6,,,,49,64
47040,note_on,40,0,9,,,,,,,,10,,,,68,92
47040,note_on,40,0,11,,,,,,,,12,,,,37,92
47040,note_on,40,0,5,,,,,,,,5,,,,65,92
47040,note_on,40,0,10,,,,,,,,11,,,,65,92
47040,note_on,40,0,6,,,,,,,,6,,,,37,92
47040,note_on,40,0,3,,,,,,,,3,,,,72,92
47040,note_on,40,0,8,,,,,,,,8,,,,72,92
47040,note_on,40,0,4,,,,,,,,4,,,,68,92
47040,note_on,40,0,12,,,,,,,,13,,,,25,92
47040,note_on,40,0,7,,,,,,,,7,,,,25,92
47120,note_off,80,0,6,,,,,,,,6,,,,37,64
47120,note_off,80,0,10,,,,,,,,11,,,,65,64
47120,note_off,80,0,8,,,,,,,,8,,,,72,64
47120,note_off,80,0,4,,,,,,,,4,,,,68,64
47120,note_off,80,0,7,,,,,,,,7,,,,25,64
47120,note_off,80,0,9,,,,,,,,10,,,,68,64
47120,note_off,80,0,5,,,,,,,,5,,,,65,64
47120,note_off,80,0,11,,,,,,,,12,,,,37,64
47120,note_off,80,0,12,,,,,,,,13,,,,25,64
47120,note_off,80,0,3,,,,,,,,3,,,,72,64
47155,note_off,235,0,13,,,,,,,,14,,,,37,64
47160,note_on,40,0,7,,,,,,,,7,,,,31,92
47160,note_on,40,0,10,,,,,,,,11,,,,65,92
47160,note_on,40,0,5,,,,,,,,5,,,,65,92
47160,note_on,40,0,8,,,,,,,,8,,,,70,92
47160,note_on,5,0,13,,,,,,,,14,,,,31,60
47160,note_on,40,0,4,,,,,,,,4,,,,73,92
47160,note_on,40,0,9,,,,,,,,10,,,,73,92
47160,note_on,40,0,3,,,,,,,,3,,,,70,92
47160,note_on,40,0,6,,,,,,,,6,,,,43,92
47160,note_on,40,0,11,,,,,,,,12,,,,43,92
47160,note_on,40,0,12,,,,,,,,13,,,,31,92
47240,note_off,80,0,8,,,,,,,,8,,,,70,64
47240,note_off,80,0,3,,,,,,,,3,,,,70,64
47240,note_off,80,0,4,,,,,,,,4,,,,73,64
47240,note_off,80,0,9,,,,,,,,10,,,,73,64
47280,note_on,40,0,8,,,,,,,,8,,,,70,92
47280,note_on,40,0,4,,,,,,,,4,,,,73,92
47280,note_on,40,0,3,,,,,,,,3,,,,70,92
47280,note_on,40,0,9,,,,,,,,10,,,,73,92
47320,note_off,40,0,9,,,,,,,,10,,,,73,64
47320,note_off,40,0,4,,,,,,,,4,,,,73,64
47320,note_off,40,0,3,,,,,,,,3,,,,70,64
47320,note_off,40,0,8,,,,,,,,8,,,,70,64
47340,note_on,20,0,4,,,,,,,,4,,,,73,92
47340,note_on,20,0,9,,,,,,,,10,,,,73,92
47340,note_on,20,0,3,,,,,,,,3,,,,70,92
47340,note_on,20,0,8,,,,,,,,8,,,,70,92
47380,note_off,40,0,4,,,,,,,,4,,,,73,64
47380,note_off,40,0,9,,,,,,,,10,,,,73,64
47380,note_off,40,0,3,,,,,,,,3,,,,70,64
47380,note_off,40,0,8,,,,,,,,8,,,,70,64
47400,note_on,20,0,4,,,,,,,,4,,,,73,92
47400,note_on,20,0,3,,,,,,,,3,,,,70,92
47400,note_on,20,0,8,,,,,,,,8,,,,70,92
47400,note_on,20,0,9,,,,,,,,10,,,,73,92
47440,note_off,40,0,9,,,,,,,,10,,,,73,64
47440,note_off,40,0,8,,,,,,,,8,,,,70,64
47440,note_off,40,0,3,,,,,,,,3,,,,70,64
47440,note_off,40,0,4,,,,,,,,4,,,,73,64
47460,note_on,20,0,9,,,,,,,,10,,,,73,92
47460,note_on,20,0,4,,,,,,,,4,,,,73,92
47460,note_on,20,0,3,,,,,,,,3,,,,70,92
47460,note_on,20,0,8,,,,,,,,8,,,,70,92
47500,note_off,40,0,8,,,,,,,,8,,,,70,64
47500,note_off,40,0,4,,,,,,,,4,,,,73,64
47500,note_off,40,0,3,,,,,,,,3,,,,70,64
47500,note_off,40,0,9,,,,,,,,10,,,,73,64
47520,note_on,20,0,3,,,,,,,,3,,,,70,92
47520,note_on,20,0,4,,,,,,,,4,,,,73,92
47520,note_on,20,0,8,,,,,,,,8,,,,70,92
47520,note_on,20,0,9,,,,,,,,10,,,,73,92
47560,note_off,400,0,5,,,,,,,,5,,,,65,64
47560,note_off,40,0,8,,,,,,,,8,,,,70,64
47560,note_off,40,0,3,,,,,,,,3,,,,70,64
47560,note_off,400,0,10,,,,,,,,11,,,,65,64
47560,note_off,40,0,4,,,,,,,,4,,,,73,64
47560,note_off,400,0,7,,,,,,,,7,,,,31,64
47560,note_off,400,0,13,,,,,,,,14,,,,31,64
47560,note_off,400,0,6,,,,,,,,6,,,,43,64
47560,note_off,40,0,9,,,,,,,,10,,,,73,64
47560,note_off,400,0,12,,,,,,,,13,,,,31,64
47560,note_off,400,0,11,,,,,,,,12,,,,43,64
47580,note_on,20,0,9,,,,,,,,10,,,,73,92
47580,note_on,20,0,4,,,,,,,,4,,,,73,92
47580,note_on,20,0,8,,,,,,,,8,,,,70,92
47580,note_on,20,0,3,,,,,,,,3,,,,70,92
47620,note_off,40,0,4,,,,,,,,4,,,,73,64
47620,note_off,40,0,8,,,,,,,,8,,,,70,64
47620,note_off,40,0,3,,,,,,,,3,,,,70,64
47620,note_off,40,0,9,,,,,,,,10,,,,73,64
47640,note_on,20,0,4,,,,,,,,4,,,,73,92
47640,note_on,20,0,3,,,,,,,,3,,,,70,92
47640,note_on,20,0,9,,,,,,,,10,,,,73,92
47640,note_on,20,0,8,,,,,,,,8,,,,70,92
47720,note_off,80,0,9,,,,,,,,10,,,,73,64
47720,note_off,80,0,4,,,,,,,,4,,,,73,64
47720,note_off,80,0,8,,,,,,,,8,,,,70,64
47720,note_off,80,0,3,,,,,,,,3,,,,70,64
47760,note_on,40,0,4,,,,,,,,4,,,,73,92
47760,note_on,40,0,8,,,,,,,,8,,,,70,92
47760,note_on,40,0,9,,,,,,,,10,,,,73,92
47760,note_on,40,0,3,,,,,,,,3,,,,70,92
47840,note_off,80,0,8,,,,,,,,8,,,,70,64
47840,note_off,80,0,4,,,,,,,,4,,,,73,64
47840,note_off,80,0,9,,,,,,,,10,,,,73,64
47840,note_off,80,0,3,,,,,,,,3,,,,70,64
47880,note_on,40,0,9,,,,,,,,10,,,,73,92
47880,note_on,40,0,4,,,,,,,,4,,,,73,92
47880,note_on,40,0,3,,,,,,,,3,,,,70,92
47880,note_on,40,0,8,,,,,,,,8,,,,70,92
47960,note_off,80,0,9,,,,,,,,10,,,,73,64
47960,note_off,80,0,3,,,,,,,,3,,,,70,64
47960,note_off,80,0,4,,,,,,,,4,,,,73,64
47960,note_off,80,0,8,,,,,,,,8,,,,70,64
48000,note_on,40,0,4,,,,,,,,4,,,,73,92
48000,note_on,40,0,8,,,,,,,,8,,,,70,92
48000,note_on,40,0,3,,,,,,,,3,,,,70,92
48000,note_on,40,0,9,,,,,,,,10,,,,73,92
48080,note_off,80,0,3,,,,,,,,3,,,,70,64
48080,note_off,80,0,8,,,,,,,,8,,,,70,64
48080,note_off,80,0,4,,,,,,,,4,,,,73,64
48080,note_off,80,0,9,,,,,,,,10,,,,73,64
48120,note_on,560,0,7,,,,,,,,7,,,,36,92
48120,note_on,40,0,8,,,,,,,,8,,,,76,92
48120,note_on,560,0,13,,,,,,,,14,,,,36,60
48120,note_on,560,0,10,,,,,,,,11,,,,67,92
48120,note_on,560,0,12,,,,,,,,13,,,,36,92
48120,note_on,40,0,9,,,,,,,,10,,,,72,92
48120,note_on,560,0,5,,,,,,,,5,,,,67,92
48120,note_on,40,0,4,,,,,,,,4,,,,72,92
48120,note_on,560,0,6,,,,,,,,6,,,,48,92
48120,note_on,560,0,11,,,,,,,,12,,,,48,92
48120,note_on,40,0,3,,,,,,,,3,,,,76,92
48200,note_off,80,0,8,,,,,,,,8,,,,76,64
48200,note_off,80,0,11,,,,,,,,12,,,,48,64
48200,note_off,80,0,7,,,,,,,,7,,,,36,64
48200,note_off,80,0,12,,,,,,,,13,,,,36,64
48200,note_off,80,0,10,,,,,,,,11,,,,67,64
48200,note_off,80,0,6,,,,,,,,6,,,,48,64
48200,note_off,80,0,5,,,,,,,,5,,,,67,64
48200,note_off,80,0,4,,,,,,,,4,,,,72,64
48200,note_off,80,0,9,,,,,,,,10,,,,72,64
48200,note_off,80,0,3,,,,,,,,3,,,,76,64
48240,note_on,40,0,4,,,,,,,,4,,,,67,92
48240,note_on,40,0,10,,,,,,,,11,,,,64,92
48240,note_on,40,0,9,,,,,,,,10,,,,67,92
48240,note_on,40,0,7,,,,,,,,7,,,,24,92
48240,note_on,40,0,3,,,,,,,,3,,,,70,92
48240,note_on,40,0,11,,,,,,,,12,,,,36,92
48240,note_on,40,0,5,,,,,,,,5,,,,64,92
48240,note_on,40,0,6,,,,,,,,6,,,,36,92
48240,note_on,40,0,8,,,,,,,,8,,,,70,92
48240,note_on,40,0,12,,,,,,,,13,,,,24,92
48320,note_off,80,0,10,,,,,,,,11,,,,64,64
48320,note_off,80,0,11,,,,,,,,12,,,,36,64
48320,note_off,80,0,7,,,,,,,,7,,,,24,64
48320,note_off,80,0,12,,,,,,,,13,,,,24,64
48320,note_off,80,0,5,,,,,,,,5,,,,64,64
48320,note_off,80,0,9,,,,,,,,10,,,,67,64
48320,note_off,80,0,8,,,,,,,,8,,,,70,64
48320,note_off,80,0,4,,,,,,,,4,,,,67,64
48320,note_off,80,0,3,,,,,,,,3,,,,70,64
48320,note_off,80,0,6,,,,,,,,6,,,,36,64
48355,note_off,235,0,13,,,,,,,,14,,,,36,64
48360,note_on,5,0,13,,,,,,,,14,,,,36,60
48360,note_on,40,0,5,,,,,,,,5,,,,67,92
48360,note_on,40,0,7,,,,,,,,7,,,,36,92
48360,note_on,40,0,9,,,,,,,,10,,,,72,92
48360,note_on,40,0,10,,,,,,,,11,,,,67,92
48360,note_on,40,0,3,,,,,,,,3,,,,76,92
48360,note_on,40,0,6,,,,,,,,6,,,,48,92
48360,note_on,40,0,4,,,,,,,,4,,,,72,92
48360,note_on,40,0,12,,,,,,,,13,,,,36,92
48360,note_on,40,0,8,,,,,,,,8,,,,76,92
48360,note_on,40,0,11,,,,,,,,12,,,,48,92
48440,note_off,80,0,5,,,,,,,,5,,,,67,64
48440,note_off,80,0,8,,,,,,,,8,,,,76,64
48440,note_off,80,0,3,,,,,,,,3,,,,76,64
48440,note_off,80,0,9,,,,,,,,10,,,,72,64
48440,note_off,80,0,11,,,,,,,,12,,,,48,64
48440,note_off,80,0,4,,,,,,,,4,,,,72,64
48440,note_off,80,0,6,,,,,,,,6,,,,48,64
48440,note_off,80,0,12,,,,,,,,13,,,,36,64
48440,note_off,80,0,7,,,,,,,,7,,,,36,64
48440,note_off,80,0,10,,,,,,,,11,,,,67,64
48480,note_on,40,0,7,,,,,,,,7,,,,24,92
48480,note_on,40,0,9,,,,,,,,10,,,,67,92
48480,note_on,40,0,3,,,,,,,,3,,,,70,92
48480,note_on,40,0,11,,,,,,,,12,,,,36,92
48480,note_on,40,0,12,,,,,,,,13,,,,24,92
48480,note_on,40,0,8,,,,,,,,8,,,,70,92
48480,note_on,40,0,10,,,,,,,,11,,,,64,92
48480,note_on,40,0,4,,,,,,,,4,,,,67,92
48480,note_on,40,0,6,,,,,,,,6,,,,36,92
48480,note_on,40,0,5,,,,,,,,5,,,,64,92
48560,note_off,80,0,5,,,,,,,,5,,,,64,64
48560,note_off,80,0,10,,,,,,,,11,,,,64,64
48560,note_off,80,0,4,,,,,,,,4,,,,67,64
48560,note_off,80,0,8,,,,,,,,8,,,,70,64
48560,note_off,80,0,12,,,,,,,,13,,,,24,64
48560,note_off,80,0,9,,,,,,,,10,,,,67,64
48560,note_off,80,0,11,,,,,,,,12,,,,36,64
48560,note_off,80,0,6,,,,,,,,6,,,,36,64
48560,note_off,80,0,3,,,,,,,,3,,,,70,64
48560,note_off,80,0,7,,,,,,,,7,,,,24,64
48595,note_off,235,0,13,,,,,,,,14,,,,36,64
48600,note_on,40,0,4,,,,,,,,4,,,,72,92
48600,note_on,40,0,12,,,,,,,,13,,,,36,92
48600,note_on,40,0,11,,,,,,,,12,,,,48,92
48600,note_on,40,0,10,,,,,,,,11,,,,67,92
48600,note_on,40,0,6,,,,,,,,6,,,,48,92
48600,note_on,40,0,3,,,,,,,,3,,,,76,92
48600,note_on,40,0,8,,,,,,,,8,,,,76,92
48600,note_on,40,0,5,,,,,,,,5,,,,67,92
48600,note_on,5,0,13,,,,,,,,14,,,,36,60
48600,note_on,40,0,7,,,,,,,,7,,,,36,92
48600,note_on,40,0,9,,,,,,,,10,,,,72,92
48680,note_off,80,0,4,,,,,,,,4,,,,72,64
48680,note_off,80,0,8,,,,,,,,8,,,,76,64
48680,note_off,80,0,5,,,,,,,,5,,,,67,64
48680,note_off,80,0,12,,,,,,,,13,,,,36,64
48680,note_off,80,0,11,,,,,,,,12,,,,48,64
48680,note_off,80,0,10,,,,,,,,11,,,,67,64
48680,note_off,80,0,9,,,,,,,,10,,,,72,64
48680,note_off,80,0,7,,,,,,,,7,,,,36,64
48680,note_off,80,0,6,,,,,,,,6,,,,48,64
48680,note_off,80,0,3,,,,,,,,3,,,,76,64
48720,note_on,40,0,12,,,,,,,,13,,,,24,92
48720,note_on,40,0,10,,,,,,,,11,,,,64,92
48720,note_on,40,0,4,,,,,,,,4,,,,67,92
48720,note_on,40,0,7,,,,,,,,7,,,,24,92
48720,note_on,40,0,9,,,,,,,,10,,,,67,92
48720,note_on,40,0,8,,,,,,,,8,,,,70,92
48720,note_on,40,0,11,,,,,,,,12,,,,36,92
48720,note_on,40,0,3,,,,,,,,3,,,,70,92
48720,note_on,40,0,5,,,,,,,,5,,,,64,92
48720,note_on,40,0,6,,,,,,,,6,,,,36,92
48800,note_off,80,0,8,,,,,,,,8,,,,70,64
48800,note_off,80,0,5,,,,,,,,5,,,,64,64
48800,note_off,80,0,7,,,,,,,,7,,,,24,64
48800,note_off,80,0,4,,,,,,,,4,,,,67,64
48800,note_off,80,0,12,,,,,,,,13,,,,24,64
48800,note_off,80,0,11,,,,,,,,12,,,,36,64
48800,note_off,80,0,9,,,,,,,,10,,,,67,64
48800,note_off,80,0,3,,,,,,,,3,,,,70,64
48800,note_off,80,0,10,,,,,,,,11,,,,64,64
48800,note_off,80,0,6,,,,,,,,6,,,,36,64
48835,note_off,235,0,13,,,,,,,,14,,,,36,64
48840,note_on,40,0,11,,,,,,,,12,,,,48,92
48840,note_on,40,0,3,,,,,,,,3,,,,76,92
48840,note_on,40,0,4,,,,,,,,4,,,,72,92
48840,note_on,40,0,7,,,,,,,,7,,,,36,92
48840,note_on,40,0,5,,,,,,,,5,,,,67,92
48840,note_on,5,0,13,,,,,,,,14,,,,36,60
48840,note_on,40,0,9,,,,,,,,10,,,,72,92
48840,note_on,40,0,8,,,,,,,,8,,,,76,92
48840,note_on,40,0,6,,,,,,,,6,,,,48,92
48840,note_on,40,0,10,,,,,,,,11,,,,67,92
48840,note_on,40,0,12,,,,,,,,13,,,,36,92
48920,note_off,80,0,4,,,,,,,,4,,,,72,64
48920,note_off,80,0,5,,,,,,,,5,,,,67,64
48920,note_off,80,0,9,,,,,,,,10,,,,72,64
48920,note_off,80,0,6,,,,,,,,6,,,,48,64
48920,note_off,80,0,10,,,,,,,,11,,,,67,64
48920,note_off,80,0,3,,,,,,,,3,,,,76,64
48920,note_off,80,0,7,,,,,,,,7,,,,36,64
48920,note_off,80,0,12,,,,,,,,13,,,,36,64
48920,note_off,80,0,11,,,,,,,,12,,,,48,64
48920,note_off,80,0,8,,,,,,,,8,,,,76,64
48960,note_on,40,0,5,,,,,,,,5,,,,64,92
48960,note_on,40,0,10,,,,,,,,11,,,,64,92
48960,note_on,40,0,7,,,,,,,,7,,,,24,92
48960,note_on,40,0,4,,,,,,,,4,,,,67,92
48960,note_on,40,0,3,,,,,,,,3,,,,70,92
48960,note_on,40,0,12,,,,,,,,13,,,,24,92
48960,note_on,40,0,11,,,,,,,,12,,,,36,92
48960,note_on,40,0,8,,,,,,,,8,,,,70,92
48960,note_on,40,0,6,,,,,,,,6,,,,36,92
48960,note_on,40,0,9,,,,,,,,10,,,,67,92
49040,note_off,80,0,4,,,,,,,,4,,,,67,64
49040,note_off,80,0,8,,,,,,,,8,,,,70,64
49040,note_off,80,0,5,,,,,,,,5,,,,64,64
49040,note_off,80,0,10,,,,,,,,11,,,,64,64
49040,note_off,80,0,6,,,,,,,,6,,,,36,64
49040,note_off,80,0,12,,,,,,,,13,,,,24,64
49040,note_off,80,0,3,,,,,,,,3,,,,70,64
49040,note_off,80,0,7,,,,,,,,7,,,,24,64
49040,note_off,80,0,9,,,,,,,,10,,,,67,64
49040,note_off,80,0,11,,,,,,,,12,,,,36,64
49075,note_off,235,0,13,,,,,,,,14,,,,36,64
49080,note_on,40,0,3,,,,,,,,3,,,,77,45
49080,note_on,14405,0,1,,,,,,,,1,,,,77,75
49080,note_on,40,0,11,,,,,,,,12,,,,53,45
49080,set_tempo,48960,1,0,882352,,,,,,,,,,,,
49080,note_on,40,0,10,,,,,,,,11,,,,60,45
49080,note_on,14405,0,2,,,,,,,,2,,,,77,60
49080,note_on,40,0,5,,,,,,,,5,,,,60,45
49080,note_on,40,0,9,,,,,,,,10,,,,68,45
49080,note_on,40,0,6,,,,,,,,6,,,,53,45
49080,note_on,40,0,4,,,,,,,,4,,,,68,45
49080,note_on,40,0,8,,,,,,,,8,,,,77,45
49120,note_off,40,0,2,,,,,,,,2,,,,77,64
49120,note_off,40,0,1,,,,,,,,1,,,,77,64
49140,note_on,20,0,2,,,,,,,,2,,,,75,60
49140,note_on,20,0,1,,,,,,,,1,,,,75,75
49160,note_off,80,0,11,,,,,,,,12,,,,53,64
49160,note_off,80,0,6,,,,,,,,6,,,,53,64
49180,note_off,40,0,1,,,,,,,,1,,,,75,64
49180,note_off,40,0,2,,,,,,,,2,,,,75,64
49200,note_on,20,0,2,,,,,,,,2,,,,77,60
49200,note_on,20,0,1,,,,,,,,1,,,,77,75
49240,note_off,40,0,1,,,,,,,,1,,,,77,64
49240,note_off,40,0,2,,,,,,,,2,,,,77,64
49260,note_on,20,0,2,,,,,,,,2,,,,79,60
49260,note_on,20,0,1,,,,,,,,1,,,,79,75
49300,note_off,40,0,2,,,,,,,,2,,,,79,64
49300,note_off,40,0,1,,,,,,,,1,,,,79,64
49320,note_on,20,0,1,,,,,,,,1,,,,77,75
49320,note_on,20,0,2,,,,,,,,2,,,,77,60
49320,note_on,160,0,11,,,,,,,,12,,,,53,45
49320,note_on,160,0,6,,,,,,,,6,,,,53,45
49360,note_off,40,0,1,,,,,,,,1,,,,77,64
49360,note_off,40,0,2,,,,,,,,2,,,,77,64
49380,note_on,20,0,2,,,,,,,,2,,,,79,60
49380,note_on,20,0,1,,,,,,,,1,,,,79,75
49400,note_off,80,0,11,,,,,,,,12,,,,53,64
49400,note_off,80,0,6,,,,,,,,6,,,,53,64
49420,note_off,40,0,2,,,,,,,,2,,,,79,64
49420,note_off,40,0,1,,,,,,,,1,,,,79,64
49440,note_on,20,0,2,,,,,,,,2,,,,75,60
49440,note_on,20,0,1,,,,,,,,1,,,,75,75
49480,note_off,40,0,1,,,,,,,,1,,,,75,64
49480,note_off,400,0,9,,,,,,,,10,,,,68,64
49480,note_off,40,0,2,,,,,,,,2,,,,75,64
49480,note_off,400,0,3,,,,,,,,3,,,,77,64
49480,note_off,400,0,5,,,,,,,,5,,,,60,64
49480,note_off,400,0,8,,,,,,,,8,,,,77,64
49480,note_off,400,0,4,,,,,,,,4,,,,68,64
49480,note_off,400,0,10,,,,,,,,11,,,,60,64
49500,note_on,20,0,1,,,,,,,,1,,,,77,75
49500,note_on,20,0,2,,,,,,,,2,,,,77,60
49540,note_off,40,0,2,,,,,,,,2,,,,77,64
49540,note_off,40,0,1,,,,,,,,1,,,,77,64
49560,note_on,160,0,11,,,,,,,,12,,,,52,45
49560,note_on,20,0,1,,,,,,,,1,,,,79,75
49560,note_on,160,0,6,,,,,,,,6,,,,52,45
49560,note_on,20,0,2,,,,,,,,2,,,,79,60
49600,note_off,40,0,1,,,,,,,,1,,,,79,64
49600,note_off,40,0,2,,,,,,,,2,,,,79,64
49620,note_on,20,0,1,,,,,,,,1,,,,77,75
49620,note_on,20,0,2,,,,,,,,2,,,,77,60
49640,note_off,80,0,11,,,,,,,,12,,,,52,64
49640,note_off,80,0,6,,,,,,,,6,,,,52,64
49660,note_off,40,0,2,,,,,,,,2,,,,77,64
49660,note_off,40,0,1,,,,,,,,1,,,,77,64
49680,note_on,20,0,2,,,,,,,,2,,,,79,60
49680,note_on,20,0,1,,,,,,,,1,,,,79,75
49720,note_off,40,0,2,,,,,,,,2,,,,79,64
49720,note_off,40,0,1,,,,,,,,1,,,,79,64
49740,note_on,20,0,2,,,,,,,,2,,,,80,60
49740,note_on,20,0,1,,,,,,,,1,,,,80,75
49780,note_off,40,0,1,,,,,,,,1,,,,80,64
49780,note_off,40,0,2,,,,,,,,2,,,,80,64
49800,note_on,160,0,6,,,,,,,,6,,,,52,45
49800,note_on,20,0,1,,,,,,,,1,,,,79,75
49800,note_on,160,0,11,,,,,,,,12,,,,52,45
49800,note_on,20,0,2,,,,,,,,2,,,,79,60
49840,note_off,40,0,1,,,,,,,,1,,,,79,64
49840,note_off,40,0,2,,,,,,,,2,,,,79,64
49860,note_on,20,0,2,,,,,,,,2,,,,80,60
49860,note_on,20,0,1,,,,,,,,1,,,,80,75
49880,note_off,80,0,6,,,,,,,,6,,,,52,64
49880,note_off,80,0,11,,,,,,,,12,,,,52,64
49900,note_off,40,0,1,,,,,,,,1,,,,80,64
49900,note_off,40,0,2,,,,,,,,2,,,,80,64
49920,note_on,20,0,1,,,,,,,,1,,,,77,75
49920,note_on,20,0,2,,,,,,,,2,,,,77,60
49960,note_off,40,0,2,,,,,,,,2,,,,77,64
49960,note_off,40,0,1,,,,,,,,1,,,,77,64
49980,note_on,20,0,2,,,,,,,,2,,,,79,60
49980,note_on,20,0,1,,,,,,,,1,,,,79,75
50020,note_off,40,0,2,,,,,,,,2,,,,79,64
50020,note_off,40,0,1,,,,,,,,1,,,,79,64
50040,note_on,20,0,2,,,,,,,,2,,,,80,60
50040,note_on,20,0,1,,,,,,,,1,,,,80,75
50040,note_on,160,0,11,,,,,,,,12,,,,53,45
50040,note_on,160,0,6,,,,,,,,6,,,,53,45
50080,note_off,40,0,1,,,,,,,,1,,,,80,64
50080,note_off,40,0,2,,,,,,,,2,,,,80,64
50100,note_on,20,0,1,,,,,,,,1,,,,79,75
50100,note_on,20,0,2,,,,,,,,2,,,,79,60
50120,note_off,80,0,6,,,,,,,,6,,,,53,64
50120,note_off,80,0,11,,,,,,,,12,,,,53,64
50140,note_off,40,0,1,,,,,,,,1,,,,79,64
50140,note_off,40,0,2,,,,,,,,2,,,,79,64
50160,note_on,20,0,1,,,,,,,,1,,,,80,75
50160,note_on,20,0,2,,,,,,,,2,,,,80,60
50200,note_off,40,0,2,,,,,,,,2,,,,80,64
50200,note_off,40,0,1,,,,,,,,1,,,,80,64
50220,note_on,20,0,2,,,,,,,,2,,,,82,60
50220,note_on,20,0,1,,,,,,,,1,,,,82,75
50260,note_off,40,0,2,,,,,,,,2,,,,82,64
50260,note_off,40,0,1,,,,,,,,1,,,,82,64
50280,note_on,20,0,1,,,,,,,,1,,,,80,75
50280,note_on,160,0,6,,,,,,,,6,,,,53,45
50280,note_on,20,0,2,,,,,,,,2,,,,80,60
50280,note_on,160,0,11,,,,,,,,12,,,,53,45
50320,note_off,40,0,1,,,,,,,,1,,,,80,64
50320,note_off,40,0,2,,,,,,,,2,,,,80,64
50340,note_on,20,0,2,,,,,,,,2,,,,82,60
50340,note_on,20,0,1,,,,,,,,1,,,,82,75
50360,note_off,80,0,11,,,,,,,,12,,,,53,64
50360,note_off,80,0,6,,,,,,,,6,,,,53,64
50380,note_off,40,0,1,,,,,,,,1,,,,82,64
50380,note_off,40,0,2,,,,,,,,2,,,,82,64
50400,note_on,20,0,1,,,,,,,,1,,,,79,75
50400,note_on,20,0,2,,,,,,,,2,,,,79,60
50440,note_off,40,0,1,,,,,,,,1,,,,79,64
50440,note_off,40,0,2,,,,,,,,2,,,,79,64
50460,note_on,20,0,1,,,,,,,,1,,,,80,75
50460,note_on,20,0,2,,,,,,,,2,,,,80,60
50500,note_off,40,0,1,,,,,,,,1,,,,80,64
50500,note_off,40,0,2,,,,,,,,2,,,,80,64
50520,note_on,160,0,6,,,,,,,,6,,,,55,45
50520,note_on,160,0,11,,,,,,,,12,,,,55,45
50520,note_on,20,0,1,,,,,,,,1,,,,82,75
50520,note_on,20,0,2,,,,,,,,2,,,,82,60
50560,note_off,40,0,2,,,,,,,,2,,,,82,64
50560,note_off,40,0,1,,,,,,,,1,,,,82,64
50580,note_on,20,0,2,,,,,,,,2,,,,80,60
50580,note_on,20,0,1,,,,,,,,1,,,,80,75
50600,note_off,80,0,6,,,,,,,,6,,,,55,64
50600,note_off,80,0,11,,,,,,,,12,,,,55,64
50620,note_off,40,0,1,,,,,,,,1,,,,80,64
50620,note_off,40,0,2,,,,,,,,2,,,,80,64
50640,note_on,20,0,2,,,,,,,,2,,,,82,60
50640,note_on,20,0,1,,,,,,,,1,,,,82,75
50680,note_off,40,0,2,,,,,,,,2,,,,82,64
50680,note_off,40,0,1,,,,,,,,1,,,,82,64
50700,note_on,20,0,1,,,,,,,,1,,,,84,75
50700,note_on,20,0,2,,,,,,,,2,,,,84,60
50740,note_off,40,0,2,,,,,,,,2,,,,84,64
50740,note_off,40,0,1,,,,,,,,1,,,,84,64
50760,note_on,20,0,2,,,,,,,,2,,,,82,60
50760,note_on,160,0,6,,,,,,,,6,,,,55,45
50760,note_on,20,0,1,,,,,,,,1,,,,82,75
50760,note_on,160,0,11,,,,,,,,12,,,,55,45
50800,note_off,40,0,2,,,,,,,,2,,,,82,64
50800,note_off,40,0,1,,,,,,,,1,,,,82,64
50820,note_on,20,0,2,,,,,,,,2,,,,84,60
50820,note_on,20,0,1,,,,,,,,1,,,,84,75
50840,note_off,80,0,6,,,,,,,,6,,,,55,64
50840,note_off,80,0,11,,,,,,,,12,,,,55,64
50860,note_off,40,0,1,,,,,,,,1,,,,84,64
50860,note_off,40,0,2,,,,,,,,2,,,,84,64
50880,note_on,20,0,2,,,,,,,,2,,,,80,60
50880,note_on,20,0,1,,,,,,,,1,,,,80,75
50920,note_off,40,0,2,,,,,,,,2,,,,80,64
50920,note_off,40,0,1,,,,,,,,1,,,,80,64
50940,note_on,20,0,1,,,,,,,,1,,,,82,75
50940,note_on,20,0,2,,,,,,,,2,,,,82,60
50980,note_off,40,0,1,,,,,,,,1,,,,82,64
50980,note_off,40,0,2,,,,,,,,2,,,,82,64
51000,note_on,160,0,6,,,,,,,,6,,,,56,45
51000,note_on,160,0,11,,,,,,,,12,,,,56,45
51000,note_on,20,0,1,,,,,,,,1,,,,84,75
51000,note_on,20,0,2,,,,,,,,2,,,,84,60
51080,note_off,80,0,6,,,,,,,,6,,,,56,64
51080,note_off,80,0,11,,,,,,,,12,,,,56,64
51240,note_off,240,0,1,,,,,,,,1,,,,84,64
51240,note_on,160,0,11,,,,,,,,12,,,,56,45
51240,note_on,160,0,6,,,,,,,,6,,,,56,45
51240,note_off,240,0,2,,,,,,,,2,,,,84,64
51300,note_on,60,0,1,,,,,,,,1,,,,84,75
51300,note_on,60,0,2,,,,,,,,2,,,,84,60
51320,note_off,80,0,11,,,,,,,,12,,,,56,64
51320,note_off,80,0,6,,,,,,,,6,,,,56,64
51340,note_off,40,0,2,,,,,,,,2,,,,84,64
51340,note_off,40,0,1,,,,,,,,1,,,,84,64
51360,note_on,20,0,1,,,,,,,,1,,,,85,75
51360,note_on,20,0,2,,,,,,,,2,,,,85,60
51400,note_off,40,0,1,,,,,,,,1,,,,85,64
51400,note_off,40,0,2,,,,,,,,2,,,,85,64
51420,note_on,20,0,2,,,,,,,,2,,,,87,60
51420,note_on,20,0,1,,,,,,,,1,,,,87,75
51460,note_off,40,0,2,,,,,,,,2,,,,87,64
51460,note_off,40,0,1,,,,,,,,1,,,,87,64
51480,note_on,160,0,6,,,,,,,,6,,,,56,45
51480,note_on,20,0,2,,,,,,,,2,,,,89,60
51480,note_on,160,0,11,,,,,,,,12,,,,56,45
51480,note_on,20,0,1,,,,,,,,1,,,,89,75
51520,note_off,40,0,2,,,,,,,,2,,,,89,64
51520,note_off,40,0,1,,,,,,,,1,,,,89,64
51540,note_on,20,0,2,,,,,,,,2,,,,84,60
51540,note_on,20,0,1,,,,,,,,1,,,,84,75
51560,note_off,80,0,6,,,,,,,,6,,,,56,64
51560,note_off,80,0,11,,,,,,,,12,,,,56,64
51580,note_off,40,0,1,,,,,,,,1,,,,84,64
51580,note_off,40,0,2,,,,,,,,2,,,,84,64
51600,note_on,20,0,1,,,,,,,,1,,,,85,75
51600,note_on,20,0,2,,,,,,,,2,,,,85,60
51640,note_off,40,0,1,,,,,,,,1,,,,85,64
51640,note_off,40,0,2,,,,,,,,2,,,,85,64
51660,note_on,20,0,1,,,,,,,,1,,,,87,75
51660,note_on,20,0,2,,,,,,,,2,,,,87,60
51700,note_off,40,0,1,,,,,,,,1,,,,87,64
51700,note_off,40,0,2,,,,,,,,2,,,,87,64
51720,note_on,160,0,6,,,,,,,,6,,,,56,45
51720,note_on,20,0,2,,,,,,,,2,,,,89,60
51720,note_on,160,0,11,,,,,,,,12,,,,56,45
51720,note_on,20,0,1,,,,,,,,1,,,,89,75
51760,note_off,40,0,1,,,,,,,,1,,,,89,64
51760,note_off,40,0,2,,,,,,,,2,,,,89,64
51780,note_on,20,0,2,,,,,,,,2,,,,84,60
51780,note_on,20,0,1,,,,,,,,1,,,,84,75
51800,note_off,80,0,6,,,,,,,,6,,,,56,64
51800,note_off,80,0,11,,,,,,,,12,,,,56,64
51820,note_off,40,0,2,,,,,,,,2,,,,84,64
51820,note_off,40,0,1,,,,,,,,1,,,,84,64
51840,note_on,20,0,2,,,,,,,,2,,,,85,60
51840,note_on,20,0,1,,,,,,,,1,,,,85,75
51880,note_off,40,0,1,,,,,,,,1,,,,85,64
51880,note_off,40,0,2,,,,,,,,2,,,,85,64
51900,note_on,20,0,2,,,,,,,,2,,,,87,60
51900,note_on,20,0,1,,,,,,,,1,,,,87,75
51940,note_off,40,0,2,,,,,,,,2,,,,87,64
51940,note_off,40,0,1,,,,,,,,1,,,,87,64
51960,note_on,20,0,1,,,,,,,,1,,,,89,75
51960,note_on,160,0,6,,,,,,,,6,,,,56,45
51960,note_on,20,0,2,,,,,,,,2,,,,89,60
51960,note_on,160,0,11,,,,,,,,12,,,,56,45
52020,note_off,60,0,2,,,,,,,,2,,,,89,64
52020,note_on,0,0,2,,,,,,,,2,,,,87,60
52020,note_off,60,0,1,,,,,,,,1,,,,89,64
52020,note_on,0,0,1,,,,,,,,1,,,,87,75
52040,note_off,80,0,11,,,,,,,,12,,,,56,64
52040,note_off,80,0,6,,,,,,,,6,,,,56,64
52060,note_off,40,0,2,,,,,,,,2,,,,87,64
52060,note_off,40,0,1,,,,,,,,1,,,,87,64
52080,note_on,20,0,2,,,,,,,,2,,,,85,60
52080,note_on,20,0,1,,,,,,,,1,,,,85,75
52140,note_on,0,0,2,,,,,,,,2,,,,84,60
52140,note_off,60,0,2,,,,,,,,2,,,,85,64
52140,note_off,60,0,1,,,,,,,,1,,,,85,64
52140,note_on,0,0,1,,,,,,,,1,,,,84,75
52180,note_off,40,0,1,,,,,,,,1,,,,84,64
52180,note_off,40,0,2,,,,,,,,2,,,,84,64
52200,note_on,160,0,6,,,,,,,,6,,,,56,45
52200,note_on,20,0,1,,,,,,,,1,,,,89,75
52200,note_on,160,0,11,,,,,,,,12,,,,56,45
52200,note_on,20,0,2,,,,,,,,2,,,,89,60
52260,note_off,60,0,1,,,,,,,,1,,,,89,64
52260,note_on,0,0,1,,,,,,,,1,,,,87,75
52260,note_on,0,0,2,,,,,,,,2,,,,87,60
52260,note_off,60,0,2,,,,,,,,2,,,,89,64
52280,note_off,80,0,6,,,,,,,,6,,,,56,64
52280,note_off,80,0,11,,,,,,,,12,,,,56,64
52300,note_off,40,0,1,,,,,,,,1,,,,87,64
52300,note_off,40,0,2,,,,,,,,2,,,,87,64
52320,note_on,20,0,2,,,,,,,,2,,,,85,60
52320,note_on,20,0,1,,,,,,,,1,,,,85,75
52380,note_on,0,0,1,,,,,,,,1,,,,84,75
52380,note_off,60,0,1,,,,,,,,1,,,,85,64
52380,note_on,0,0,2,,,,,,,,2,,,,84,60
52380,note_off,60,0,2,,,,,,,,2,,,,85,64
52420,note_off,40,0,1,,,,,,,,1,,,,84,64
52420,note_off,40,0,2,,,,,,,,2,,,,84,64
52440,note_on,160,0,11,,,,,,,,12,,,,56,45
52440,note_on,20,0,2,,,,,,,,2,,,,89,60
52440,note_on,20,0,1,,,,,,,,1,,,,89,75
52440,note_on,160,0,6,,,,,,,,6,,,,56,45
52500,note_off,60,0,1,,,,,,,,1,,,,89,64
52500,note_on,0,0,1,,,,,,,,1,,,,87,75
52500,note_off,60,0,2,,,,,,,,2,,,,89,64
52500,note_on,0,0,2,,,,,,,,2,,,,87,60
52520,note_off,80,0,11,,,,,,,,12,,,,56,64
52520,note_off,80,0,6,,,,,,,,6,,,,56,64
52540,note_off,40,0,2,,,,,,,,2,,,,87,64
52540,note_off,40,0,1,,,,,,,,1,,,,87,64
52560,note_on,20,0,2,,,,,,,,2,,,,85,60
52560,note_on,20,0,1,,,,,,,,1,,,,85,75
52620,note_on,0,0,2,,,,,,,,2,,,,84,60
52620,note_off,60,0,2,,,,,,,,2,,,,85,64
52620,note_off,60,0,1,,,,,,,,1,,,,85,64
52620,note_on,0,0,1,,,,,,,,1,,,,84,75
52660,note_off,40,0,2,,,,,,,,2,,,,84,64
52660,note_off,40,0,1,,,,,,,,1,,,,84,64
52680,note_on,160,0,6,,,,,,,,6,,,,56,45
52680,note_on,20,0,2,,,,,,,,2,,,,89,60
52680,note_on,20,0,1,,,,,,,,1,,,,89,75
52680,note_on,160,0,11,,,,,,,,12,,,,56,45
52740,note_off,60,0,2,,,,,,,,2,,,,89,64
52740,note_on,0,0,1,,,,,,,,1,,,,87,75
52740,note_off,60,0,1,,,,,,,,1,,,,89,64
52740,note_on,0,0,2,,,,,,,,2,,,,87,60
52760,note_off,80,0,6,,,,,,,,6,,,,56,64
52760,note_off,80,0,11,,,,,,,,12,,,,56,64
52780,note_off,40,0,1,,,,,,,,1,,,,87,64
52780,note_off,40,0,2,,,,,,,,2,,,,87,64
52800,note_on,20,0,1,,,,,,,,1,,,,85,75
52800,note_on,20,0,2,,,,,,,,2,,,,85,60
52860,note_off,60,0,1,,,,,,,,1,,,,85,64
52860,note_on,0,0,1,,,,,,,,1,,,,84,75
52860,note_off,60,0,2,,,,,,,,2,,,,85,64
52860,note_on,0,0,2,,,,,,,,2,,,,84,60
52900,note_off,40,0,2,,,,,,,,2,,,,84,64
52900,note_off,40,0,1,,,,,,,,1,,,,84,64
52920,note_on,160,0,11,,,,,,,,12,,,,56,45
52920,note_on,160,0,6,,,,,,,,6,,,,56,45
52920,note_on,20,0,2,,,,,,,,2,,,,77,60
52920,note_on,20,0,1,,,,,,,,1,,,,77,75
52980,note_off,60,0,1,,,,,,,,1,,,,77,64
52980,note_on,0,0,2,,,,,,,,2,,,,79,60
52980,note_on,0,0,1,,,,,,,,1,,,,79,75
52980,note_off,60,0,2,,,,,,,,2,,,,77,64
53000,note_off,80,0,11,,,,,,,,12,,,,56,64
53000,note_off,80,0,6,,,,,,,,6,,,,56,64
53040,note_on,0,0,1,,,,,,,,1,,,,80,75
53040,note_off,60,0,1,,,,,,,,1,,,,79,64
53040,note_off,60,0,2,,,,,,,,2,,,,79,64
53040,note_on,0,0,2,,,,,,,,2,,,,80,60
53100,note_on,0,0,1,,,,,,,,1,,,,82,75
53100,note_off,60,0,1,,,,,,,,1,,,,80,64
53100,note_on,0,0,2,,,,,,,,2,,,,82,60
53100,note_off,60,0,2,,,,,,,,2,,,,80,64
53160,note_on,160,0,6,,,,,,,,6,,,,56,45
53160,note_off,60,0,2,,,,,,,,2,,,,82,64
53160,note_on,0,0,1,,,,,,,,1,,,,84,75
53160,note_on,0,0,2,,,,,,,,2,,,,84,60
53160,note_off,60,0,1,,,,,,,,1,,,,82,64
53160,note_on,160,0,11,,,,,,,,12,,,,56,45
53220,note_off,60,0,2,,,,,,,,2,,,,84,64
53220,note_off,60,0,1,,,,,,,,1,,,,84,64
53220,note_on,0,0,1,,,,,,,,1,,,,85,75
53220,note_on,0,0,2,,,,,,,,2,,,,85,60
53240,note_off,80,0,11,,,,,,,,12,,,,56,64
53240,note_off,80,0,6,,,,,,,,6,,,,56,64
53280,note_on,0,0,2,,,,,,,,2,,,,87,60
53280,note_off,60,0,2,,,,,,,,2,,,,85,64
53280,note_on,0,0,1,,,,,,,,1,,,,87,75
53280,note_off,60,0,1,,,,,,,,1,,,,85,64
53340,note_off,60,0,1,,,,,,,,1,,,,87,64
53340,note_on,0,0,1,,,,,,,,1,,,,89,75
53340,note_off,60,0,2,,,,,,,,2,,,,87,64
53340,note_on,0,0,2,,,,,,,,2,,,,89,60
53395,note_off,55,0,1,,,,,,,,1,,,,89,64
53395,note_off,55,0,2,,,,,,,,2,,,,89,64
53400,note_on,160,0,6,,,,,,,,6,,,,56,45
53400,note_on,5,0,2,,,,,,,,2,,,,77,60
53400,note_on,5,0,1,,,,,,,,1,,,,77,75
53400,note_on,160,0,11,,,,,,,,12,,,,56,45
53460,note_off,60,0,1,,,,,,,,1,,,,77,64
53460,note_off,60,0,2,,,,,,,,2,,,,77,64
53460,note_on,0,0,2,,,,,,,,2,,,,79,60
53460,note_on,0,0,1,,,,,,,,1,,,,79,75
53480,note_off,80,0,6,,,,,,,,6,,,,56,64
53480,note_off,80,0,11,,,,,,,,12,,,,56,64
53520,note_on,0,0,1,,,,,,,,1,,,,80,75
53520,note_off,60,0,1,,,,,,,,1,,,,79,64
53520,note_off,60,0,2,,,,,,,,2,,,,79,64
53520,note_on,0,0,2,,,,,,,,2,,,,80,60
53580,note_off,60,0,2,,,,,,,,2,,,,80,64
53580,note_on,0,0,2,,,,,,,,2,,,,82,60
53580,note_on,0,0,1,,,,,,,,1,,,,82,75
53580,note_off,60,0,1,,,,,,,,1,,,,80,64
53640,note_on,0,0,1,,,,,,,,1,,,,84,75
53640,note_on,0,0,2,,,,,,,,2,,,,84,60
53640,note_off,60,0,2,,,,,,,,2,,,,82,64
53640,note_off,60,0,1,,,,,,,,1,,,,82,64
53640,note_on,160,0,11,,,,,,,,12,,,,56,45
53640,note_on,160,0,6,,,,,,,,6,,,,56,45
53700,note_off,60,0,1,,,,,,,,1,,,,84,64
53700,note_on,0,0,2,,,,,,,,2,,,,85,60
53700,note_off,60,0,2,,,,,,,,2,,,,84,64
53700,note_on,0,0,1,,,,,,,,1,,,,85,75
53720,note_off,80,0,6,,,,,,,,6,,,,56,64
53720,note_off,80,0,11,,,,,,,,12,,,,56,64
53760,note_on,0,0,2,,,,,,,,2,,,,87,60
53760,note_off,60,0,2,,,,,,,,2,,,,85,64
53760,note_on,0,0,1,,,,,,,,1,,,,87,75
53760,note_off,60,0,1,,,,,,,,1,,,,85,64
53820,note_off,60,0,2,,,,,,,,2,,,,87,64
53820,note_on,0,0,2,,,,,,,,2,,,,89,60
53820,note_on,0,0,1,,,,,,,,1,,,,89,75
53820,note_off,60,0,1,,,,,,,,1,,,,87,64
53875,note_off,55,0,2,,,,,,,,2,,,,89,64
53875,note_off,55,0,1,,,,,,,,1,,,,89,64
53880,note_on,5,0,2,,,,,,,,2,,,,85,60
53880,note_on,5,0,1,,,,,,,,1,,,,85,75
53880,note_on,160,0,11,,,,,,,,12,,,,58,45
53880,note_on,160,0,6,,,,,,,,6,,,,58,45
53960,note_off,80,0,11,,,,,,,,12,,,,58,64
53960,note_off,80,0,6,,,,,,,,6,,,,58,64
54120,note_on,160,0,6,,,,,,,,6,,,,58,45
54120,note_off,240,0,1,,,,,,,,1,,,,85,64
54120,note_on,160,0,11,,,,,,,,12,,,,58,45
54120,note_off,240,0,2,,,,,,,,2,,,,85,64
54180,note_on,60,0,2,,,,,,,,2,,,,82,60
54180,note_on,60,0,1,,,,,,,,1,,,,82,75
54200,note_off,80,0,6,,,,,,,,6,,,,58,64
54200,note_off,80,0,11,,,,,,,,12,,,,58,64
54220,note_off,40,0,2,,,,,,,,2,,,,82,64
54220,note_off,40,0,1,,,,,,,,1,,,,82,64
54240,note_on,20,0,1,,,,,,,,1,,,,84,75
54240,note_on,20,0,2,,,,,,,,2,,,,84,60
54280,note_off,40,0,1,,,,,,,,1,,,,84,64
54280,note_off,40,0,2,,,,,,,,2,,,,84,64
54300,note_on,20,0,1,,,,,,,,1,,,,85,75
54300,note_on,20,0,2,,,,,,,,2,,,,85,60
54340,note_off,40,0,1,,,,,,,,1,,,,85,64
54340,note_off,40,0,2,,,,,,,,2,,,,85,64
54360,note_on,20,0,1,,,,,,,,1,,,,87,75
54360,note_on,20,0,2,,,,,,,,2,,,,87,60
54360,note_on,160,0,11,,,,,,,,12,,,,55,45
54360,note_on,160,0,6,,,,,,,,6,,,,55,45
54400,note_off,40,0,2,,,,,,,,2,,,,87,64
54400,note_off,40,0,1,,,,,,,,1,,,,87,64
54420,note_on,20,0,2,,,,,,,,2,,,,82,60
54420,note_on,20,0,1,,,,,,,,1,,,,82,75
54440,note_off,80,0,11,,,,,,,,12,,,,55,64
54440,note_off,80,0,6,,,,,,,,6,,,,55,64
54460,note_off,40,0,1,,,,,,,,1,,,,82,64
54460,note_off,40,0,2,,,,,,,,2,,,,82,64
54480,note_on,20,0,1,,,,,,,,1,,,,84,75
54480,note_on,20,0,2,,,,,,,,2,,,,84,60
54520,note_off,40,0,1,,,,,,,,1,,,,84,64
54520,note_off,40,0,2,,,,,,,,2,,,,84,64
54540,note_on,20,0,2,,,,,,,,2,,,,85,60
54540,note_on,20,0,1,,,,,,,,1,,,,85,75
54580,note_off,40,0,2,,,,,,,,2,,,,85,64
54580,note_off,40,0,1,,,,,,,,1,,,,85,64
54600,note_on,160,0,11,,,,,,,,12,,,,55,45
54600,note_on,160,0,6,,,,,,,,6,,,,55,45
54600,note_on,20,0,1,,,,,,,,1,,,,87,75
54600,note_on,20,0,2,,,,,,,,2,,,,87,60
54640,note_off,40,0,2,,,,,,,,2,,,,87,64
54640,note_off,40,0,1,,,,,,,,1,,,,87,64
54660,note_on,20,0,1,,,,,,,,1,,,,82,75
54660,note_on,20,0,2,,,,,,,,2,,,,82,60
54680,note_off,80,0,11,,,,,,,,12,,,,55,64
54680,note_off,80,0,6,,,,,,,,6,,,,55,64
54700,note_off,40,0,1,,,,,,,,1,,,,82,64
54700,note_off,40,0,2,,,,,,,,2,,,,82,64
54720,note_on,20,0,2,,,,,,,,2,,,,84,60
54720,note_on,20,0,1,,,,,,,,1,,,,84,75
54760,note_off,40,0,1,,,,,,,,1,,,,84,64
54760,note_off,40,0,2,,,,,,,,2,,,,84,64
54780,note_on,20,0,1,,,,,,,,1,,,,85,75
54780,note_on,20,0,2,,,,,,,,2,,,,85,60
54820,note_off,40,0,1,,,,,,,,1,,,,85,64
54820,note_off,40,0,2,,,,,,,,2,,,,85,64
54840,note_on,160,0,11,,,,,,,,12,,,,55,45
54840,note_on,20,0,1,,,,,,,,1,,,,87,75
54840,note_on,160,0,6,,,,,,,,6,,,,55,45
54840,note_on,20,0,2,,,,,,,,2,,,,87,60
54900,note_off,60,0,2,,,,,,,,2,,,,87,64
54900,note_on,0,0,2,,,,,,,,2,,,,85,60
54900,note_off,60,0,1,,,,,,,,1,,,,87,64
54900,note_on,0,0,1,,,,,,,,1,,,,85,75
54920,note_off,80,0,6,,,,,,,,6,,,,55,64
54920,note_off,80,0,11,,,,,,,,12,,,,55,64
54955,note_off,55,0,2,,,,,,,,2,,,,85,64
54955,note_off,55,0,1,,,,,,,,1,,,,85,64
54960,note_on,5,0,2,,,,,,,,2,,,,84,60
54960,note_on,5,0,1,,,,,,,,1,,,,84,75
55020,note_off,60,0,2,,,,,,,,2,,,,84,64
55020,note_on,0,0,2,,,,,,,,2,,,,82,60
55020,note_off,60,0,1,,,,,,,,1,,,,84,64
55020,note_on,0,0,1,,,,,,,,1,,,,82,75
55075,note_off,55,0,1,,,,,,,,1,,,,82,64
55075,note_off,55,0,2,,,,,,,,2,,,,82,64
55080,note_on,160,0,6,,,,,,,,6,,,,55,45
55080,note_on,5,0,2,,,,,,,,2,,,,87,60
55080,note_on,5,0,1,,,,,,,,1,,,,87,75
55080,note_on,160,0,11,,,,,,,,12,,,,55,45
55140,note_on,0,0,1,,,,,,,,1,,,,85,75
55140,note_off,60,0,1,,,,,,,,1,,,,87,64
55140,note_off,60,0,2,,,,,,,,2,,,,87,64
55140,note_on,0,0,2,,,,,,,,2,,,,85,60
55160,note_off,80,0,11,,,,,,,,12,,,,55,64
55160,note_off,80,0,6,,,,,,,,6,,,,55,64
55195,note_off,55,0,2,,,,,,,,2,,,,85,64
55195,note_off,55,0,1,,,,,,,,1,,,,85,64
55200,note_on,5,0,1,,,,,,,,1,,,,84,75
55200,note_on,5,0,2,,,,,,,,2,,,,84,60
55260,note_off,60,0,1,,,,,,,,1,,,,84,64
55260,note_on,0,0,1,,,,,,,,1,,,,82,75
55260,note_on,0,0,2,,,,,,,,2,,,,82,60
55260,note_off,60,0,2,,,,,,,,2,,,,84,64
55315,note_off,55,0,1,,,,,,,,1,,,,82,64
55315,note_off,55,0,2,,,,,,,,2,,,,82,64
55320,note_on,160,0,6,,,,,,,,6,,,,55,45
55320,note_on,160,0,11,,,,,,,,12,,,,55,45
55320,note_on,5,0,1,,,,,,,,1,,,,87,75
55320,note_on,5,0,2,,,,,,,,2,,,,87,60
55380,note_on,0,0,1,,,,,,,,1,,,,85,75
55380,note_off,60,0,2,,,,,,,,2,,,,87,64
55380,note_off,60,0,1,,,,,,,,1,,,,87,64
55380,note_on,0,0,2,,,,,,,,2,,,,85,60
55400,note_off,80,0,11,,,,,,,,12,,,,55,64
55400,note_off,80,0,6,,,,,,,,6,,,,55,64
55435,note_off,55,0,1,,,,,,,,1,,,,85,64
55435,note_off,55,0,2,,,,,,,,2,,,,85,64
55440,note_on,5,0,2,,,,,,,,2,,,,84,60
55440,note_on,5,0,1,,,,,,,,1,,,,84,75
55500,note_off,60,0,2,,,,,,,,2,,,,84,64
55500,note_on,0,0,1,,,,,,,,1,,,,82,75
55500,note_off,60,0,1,,,,,,,,1,,,,84,64
55500,note_on,0,0,2,,,,,,,,2,,,,82,60
55555,note_off,55,0,1,,,,,,,,1,,,,82,64
55555,note_off,55,0,2,,,,,,,,2,,,,82,64
55560,note_on,160,0,6,,,,,,,,6,,,,55,45
55560,note_on,160,0,11,,,,,,,,12,,,,55,45
55560,note_on,5,0,2,,,,,,,,2,,,,87,60
55560,note_on,5,0,1,,,,,,,,1,,,,87,75
55620,note_off,60,0,2,,,,,,,,2,,,,87,64
55620,note_on,0,0,2,,,,,,,,2,,,,85,60
55620,note_off,60,0,1,,,,,,,,1,,,,87,64
55620,note_on,0,0,1,,,,,,,,1,,,,85,75
55640,note_off,80,0,11,,,,,,,,12,,,,55,64
55640,note_off,80,0,6,,,,,,,,6,,,,55,64
55675,note_off,55,0,2,,,,,,,,2,,,,85,64
55675,note_off,55,0,1,,,,,,,,1,,,,85,64
55680,note_on,5,0,2,,,,,,,,2,,,,84,60
55680,note_on,5,0,1,,,,,,,,1,,,,84,75
55740,note_off,60,0,2,,,,,,,,2,,,,84,64
55740,note_off,60,0,1,,,,,,,,1,,,,84,64
55740,note_on,0,0,1,,,,,,,,1,,,,82,75
55740,note_on,0,0,2,,,,,,,,2,,,,82,60
55795,note_off,55,0,1,,,,,,,,1,,,,82,64
55795,note_off,55,0,2,,,,,,,,2,,,,82,64
55800,note_on,5,0,1,,,,,,,,1,,,,75,75
55800,note_on,5,0,2,,,,,,,,2,,,,75,60
55800,note_on,160,0,11,,,,,,,,12,,,,55,45
55800,note_on,160,0,6,,,,,,,,6,,,,55,45
55860,note_off,60,0,1,,,,,,,,1,,,,75,64
55860,note_off,60,0,2,,,,,,,,2,,,,75,64
55860,note_on,0,0,2,,,,,,,,2,,,,77,60
55860,note_on,0,0,1,,,,,,,,1,,,,77,75
55880,note_off,80,0,11,,,,,,,,12,,,,55,64
55880,note_off,80,0,6,,,,,,,,6,,,,55,64
55920,note_on,0,0,2,,,,,,,,2,,,,79,60
55920,note_off,60,0,2,,,,,,,,2,,,,77,64
55920,note_on,0,0,1,,,,,,,,1,,,,79,75
55920,note_off,60,0,1,,,,,,,,1,,,,77,64
55980,note_on,0,0,2,,,,,,,,2,,,,80,60
55980,note_off,60,0,2,,,,,,,,2,,,,79,64
55980,note_on,0,0,1,,,,,,,,1,,,,80,75
55980,note_off,60,0,1,,,,,,,,1,,,,79,64
56040,note_on,160,0,11,,,,,,,,12,,,,55,45
56040,note_on,160,0,6,,,,,,,,6,,,,55,45
56040,note_off,60,0,1,,,,,,,,1,,,,80,64
56040,note_on,0,0,1,,,,,,,,1,,,,82,75
56040,note_off,60,0,2,,,,,,,,2,,,,80,64
56040,note_on,0,0,2,,,,,,,,2,,,,82,60
56100,note_on,0,0,2,,,,,,,,2,,,,84,60
56100,note_off,60,0,1,,,,,,,,1,,,,82,64
56100,note_on,0,0,1,,,,,,,,1,,,,84,75
56100,note_off,60,0,2,,,,,,,,2,,,,82,64
56120,note_off,80,0,11,,,,,,,,12,,,,55,64
56120,note_off,80,0,6,,,,,,,,6,,,,55,64
56160,note_off,60,0,2,,,,,,,,2,,,,84,64
56160,note_on,0,0,2,,,,,,,,2,,,,85,60
56160,note_on,0,0,1,,,,,,,,1,,,,85,75
56160,note_off,60,0,1,,,,,,,,1,,,,84,64
56220,note_off,60,0,1,,,,,,,,1,,,,85,64
56220,note_on,0,0,2,,,,,,,,2,,,,87,60
56220,note_on,0,0,1,,,,,,,,1,,,,87,75
56220,note_off,60,0,2,,,,,,,,2,,,,85,64
56275,note_off,55,0,1,,,,,,,,1,,,,87,64
56275,note_off,55,0,2,,,,,,,,2,,,,87,64
56280,note_on,5,0,1,,,,,,,,1,,,,75,75
56280,note_on,160,0,11,,,,,,,,12,,,,55,45
56280,note_on,5,0,2,,,,,,,,2,,,,75,60
56280,note_on,160,0,6,,,,,,,,6,,,,55,45
56340,note_on,0,0,2,,,,,,,,2,,,,77,60
56340,note_off,60,0,1,,,,,,,,1,,,,75,64
56340,note_on,0,0,1,,,,,,,,1,,,,77,75
56340,note_off,60,0,2,,,,,,,,2,,,,75,64
56360,note_off,80,0,11,,,,,,,,12,,,,55,64
56360,note_off,80,0,6,,,,,,,,6,,,,55,64
56400,note_off,60,0,2,,,,,,,,2,,,,77,64
56400,note_on,0,0,2,,,,,,,,2,,,,79,60
56400,note_on,0,0,1,,,,,,,,1,,,,79,75
56400,note_off,60,0,1,,,,,,,,1,,,,77,64
56460,note_off,60,0,2,,,,,,,,2,,,,79,64
56460,note_on,0,0,2,,,,,,,,2,,,,80,60
56460,note_on,0,0,1,,,,,,,,1,,,,80,75
56460,note_off,60,0,1,,,,,,,,1,,,,79,64
56520,note_off,60,0,2,,,,,,,,2,,,,80,64
56520,note_on,0,0,2,,,,,,,,2,,,,82,60
56520,note_off,60,0,1,,,,,,,,1,,,,80,64
56520,note_on,160,0,6,,,,,,,,6,,,,55,45
56520,note_on,160,0,11,,,,,,,,12,,,,55,45
56520,note_on,0,0,1,,,,,,,,1,,,,82,75
56580,note_off,60,0,1,,,,,,,,1,,,,82,64
56580,note_on,0,0,1,,,,,,,,1,,,,84,75
56580,note_off,60,0,2,,,,,,,,2,,,,82,64
56580,note_on,0,0,2,,,,,,,,2,,,,84,60
56600,note_off,80,0,6,,,,,,,,6,,,,55,64
56600,note_off,80,0,11,,,,,,,,12,,,,55,64
56640,note_off,60,0,1,,,,,,,,1,,,,84,64
56640,note_on,0,0,1,,,,,,,,1,,,,85,75
56640,note_off,60,0,2,,,,,,,,2,,,,84,64
56640,note_on,0,0,2,,,,,,,,2,,,,85,60
56700,note_on,0,0,2,,,,,,,,2,,,,87,60
56700,note_off,60,0,2,,,,,,,,2,,,,85,64
56700,note_on,0,0,1,,,,,,,,1,,,,87,75
56700,note_off,60,0,1,,,,,,,,1,,,,85,64
56755,note_off,55,0,1,,,,,,,,1,,,,87,64
56755,note_off,55,0,2,,,,,,,,2,,,,87,64
56760,note_on,160,0,11,,,,,,,,12,,,,56,45
56760,note_on,160,0,6,,,,,,,,6,,,,56,45
56760,note_on,5,0,1,,,,,,,,1,,,,84,75
56760,note_on,5,0,2,,,,,,,,2,,,,84,60
56840,note_off,80,0,6,,,,,,,,6,,,,56,64
56840,note_off,80,0,11,,,,,,,,12,,,,56,64
57000,note_off,240,0,2,,,,,,,,2,,,,84,64
57000,note_off,240,0,1,,,,,,,,1,,,,84,64
57000,note_on,160,0,6,,,,,,,,6,,,,56,45
57000,note_on,160,0,11,,,,,,,,12,,,,56,45
57060,note_on,60,0,2,,,,,,,,2,,,,80,60
57060,note_on,60,0,1,,,,,,,,1,,,,80,75
57080,note_off,80,0,11,,,,,,,,12,,,,56,64
57080,note_off,80,0,6,,,,,,,,6,,,,56,64
57100,note_off,40,0,1,,,,,,,,1,,,,80,64
57100,note_off,40,0,2,,,,,,,,2,,,,80,64
57120,note_on,20,0,1,,,,,,,,1,,,,82,75
57120,note_on,20,0,2,,,,,,,,2,,,,82,60
57160,note_off,40,0,1,,,,,,,,1,,,,82,64
57160,note_off,40,0,2,,,,,,,,2,,,,82,64
57180,note_on,20,0,2,,,,,,,,2,,,,84,60
57180,note_on,20,0,1,,,,,,,,1,,,,84,75
57220,note_off,40,0,2,,,,,,,,2,,,,84,64
57220,note_off,40,0,1,,,,,,,,1,,,,84,64
57240,note_on,160,0,6,,,,,,,,6,,,,53,45
57240,note_on,160,0,11,,,,,,,,12,,,,53,45
57240,note_on,20,0,2,,,,,,,,2,,,,85,60
57240,note_on,20,0,1,,,,,,,,1,,,,85,75
57280,note_off,40,0,1,,,,,,,,1,,,,85,64
57280,note_off,40,0,2,,,,,,,,2,,,,85,64
57300,note_on,20,0,1,,,,,,,,1,,,,80,75
57300,note_on,20,0,2,,,,,,,,2,,,,80,60
57320,note_off,80,0,6,,,,,,,,6,,,,53,64
57320,note_off,80,0,11,,,,,,,,12,,,,53,64
57340,note_off,40,0,1,,,,,,,,1,,,,80,64
57340,note_off,40,0,2,,,,,,,,2,,,,80,64
57360,note_on,20,0,1,,,,,,,,1,,,,82,75
57360,note_on,20,0,2,,,,,,,,2,,,,82,60
57400,note_off,40,0,2,,,,,,,,2,,,,82,64
57400,note_off,40,0,1,,,,,,,,1,,,,82,64
57420,note_on,20,0,2,,,,,,,,2,,,,84,60
57420,note_on,20,0,1,,,,,,,,1,,,,84,75
57460,note_off,40,0,2,,,,,,,,2,,,,84,64
57460,note_off,40,0,1,,,,,,,,1,,,,84,64
57480,note_on,160,0,6,,,,,,,,6,,,,53,45
57480,note_on,20,0,1,,,,,,,,1,,,,85,75
57480,note_on,20,0,2,,,,,,,,2,,,,85,60
57480,note_on,160,0,11,,,,,,,,12,,,,53,45
57520,note_off,40,0,1,,,,,,,,1,,,,85,64
57520,note_off,40,0,2,,,,,,,,2,,,,85,64
57540,note_on,20,0,1,,,,,,,,1,,,,80,75
57540,note_on,20,0,2,,,,,,,,2,,,,80,60
57560,note_off,80,0,6,,,,,,,,6,,,,53,64
57560,note_off,80,0,11,,,,,,,,12,,,,53,64
57580,note_off,40,0,1,,,,,,,,1,,,,80,64
57580,note_off,40,0,2,,,,,,,,2,,,,80,64
57600,note_on,20,0,2,,,,,,,,2,,,,82,60
57600,note_on,20,0,1,,,,,,,,1,,,,82,75
57640,note_off,40,0,2,,,,,,,,2,,,,82,64
57640,note_off,40,0,1,,,,,,,,1,,,,82,64
57660,note_on,20,0,2,,,,,,,,2,,,,84,60
57660,note_on,20,0,1,,,,,,,,1,,,,84,75
57700,note_off,40,0,2,,,,,,,,2,,,,84,64
57700,note_off,40,0,1,,,,,,,,1,,,,84,64
57720,note_on,20,0,2,,,,,,,,2,,,,85,60
57720,note_on,160,0,11,,,,,,,,12,,,,53,45
57720,note_on,20,0,1,,,,,,,,1,,,,85,75
57720,note_on,160,0,6,,,,,,,,6,,,,53,45
57780,note_off,60,0,1,,,,,,,,1,,,,85,64
57780,note_on,0,0,2,,,,,,,,2,,,,84,60
57780,note_off,60,0,2,,,,,,,,2,,,,85,64
57780,note_on,0,0,1,,,,,,,,1,,,,84,75
57800,note_off,80,0,6,,,,,,,,6,,,,53,64
57800,note_off,80,0,11,,,,,,,,12,,,,53,64
57820,note_off,40,0,1,,,,,,,,1,,,,84,64
57820,note_off,40,0,2,,,,,,,,2,,,,84,64
57840,note_on,20,0,1,,,,,,,,1,,,,82,75
57840,note_on,20,0,2,,,,,,,,2,,,,82,60
57900,note_off,60,0,1,,,,,,,,1,,,,82,64
57900,note_on,0,0,1,,,,,,,,1,,,,80,75
57900,note_off,60,0,2,,,,,,,,2,,,,82,64
57900,note_on,0,0,2,,,,,,,,2,,,,80,60
57940,note_off,40,0,2,,,,,,,,2,,,,80,64
57940,note_off,40,0,1,,,,,,,,1,,,,80,64
57960,note_on,20,0,2,,,,,,,,2,,,,85,60
57960,note_on,20,0,1,,,,,,,,1,,,,85,75
57960,note_on,160,0,11,,,,,,,,12,,,,53,45
57960,note_on,160,0,6,,,,,,,,6,,,,53,45
58020,note_on,0,0,2,,,,,,,,2,,,,84,60
58020,note_off,60,0,2,,,,,,,,2,,,,85,64
58020,note_off,60,0,1,,,,,,,,1,,,,85,64
58020,note_on,0,0,1,,,,,,,,1,,,,84,75
58040,note_off,80,0,6,,,,,,,,6,,,,53,64
58040,note_off,80,0,11,,,,,,,,12,,,,53,64
58060,note_off,40,0,2,,,,,,,,2,,,,84,64
58060,note_off,40,0,1,,,,,,,,1,,,,84,64
58080,note_on,20,0,1,,,,,,,,1,,,,82,75
58080,note_on,20,0,2,,,,,,,,2,,,,82,60
58140,note_off,60,0,1,,,,,,,,1,,,,82,64
58140,note_off,60,0,2,,,,,,,,2,,,,82,64
58140,note_on,0,0,2,,,,,,,,2,,,,80,60
58140,note_on,0,0,1,,,,,,,,1,,,,80,75
58180,note_off,40,0,2,,,,,,,,2,,,,80,64
58180,note_off,40,0,1,,,,,,,,1,,,,80,64
58200,note_on,160,0,11,,,,,,,,12,,,,53,45
58200,note_on,20,0,2,,,,,,,,2,,,,85,60
58200,note_on,20,0,1,,,,,,,,1,,,,85,75
58200,note_on,160,0,6,,,,,,,,6,,,,53,45
58260,note_on,0,0,1,,,,,,,,1,,,,84,75
58260,note_off,60,0,2,,,,,,,,2,,,,85,64
58260,note_on,0,0,2,,,,,,,,2,,,,84,60
58260,note_off,60,0,1,,,,,,,,1,,,,85,64
58280,note_off,80,0,11,,,,,,,,12,,,,53,64
58280,note_off,80,0,6,,,,,,,,6,,,,53,64
58300,note_off,40,0,1,,,,,,,,1,,,,84,64
58300,note_off,40,0,2,,,,,,,,2,,,,84,64
58320,note_on,20,0,1,,,,,,,,1,,,,82,75
58320,note_on,20,0,2,,,,,,,,2,,,,82,60
58380,note_on,0,0,2,,,,,,,,2,,,,80,60
58380,note_off,60,0,2,,,,,,,,2,,,,82,64
58380,note_off,60,0,1,,,,,,,,1,,,,82,64
58380,note_on,0,0,1,,,,,,,,1,,,,80,75
58420,note_off,40,0,1,,,,,,,,1,,,,80,64
58420,note_off,40,0,2,,,,,,,,2,,,,80,64
58440,note_on,20,0,2,,,,,,,,2,,,,85,60
58440,note_on,160,0,11,,,,,,,,12,,,,53,45
58440,note_on,160,0,6,,,,,,,,6,,,,53,45
58440,note_on,20,0,1,,,,,,,,1,,,,85,75
58500,note_on,0,0,2,,,,,,,,2,,,,84,60
58500,note_off,60,0,2,,,,,,,,2,,,,85,64
58500,note_off,60,0,1,,,,,,,,1,,,,85,64
58500,note_on,0,0,1,,,,,,,,1,,,,84,75
58520,note_off,80,0,6,,,,,,,,6,,,,53,64
58520,note_off,80,0,11,,,,,,,,12,,,,53,64
58540,note_off,40,0,1,,,,,,,,1,,,,84,64
58540,note_off,40,0,2,,,,,,,,2,,,,84,64
58560,note_on,20,0,1,,,,,,,,1,,,,82,75
58560,note_on,20,0,2,,,,,,,,2,,,,82,60
58620,note_off,60,0,2,,,,,,,,2,,,,82,64
58620,note_on,0,0,2,,,,,,,,2,,,,80,60
58620,note_off,60,0,1,,,,,,,,1,,,,82,64
58620,note_on,0,0,1,,,,,,,,1,,,,80,75
58660,note_off,40,0,1,,,,,,,,1,,,,80,64
58660,note_off,40,0,2,,,,,,,,2,,,,80,64
58680,note_on,20,0,1,,,,,,,,1,,,,85,75
58680,note_on,160,0,6,,,,,,,,6,,,,52,45
58680,note_on,160,0,11,,,,,,,,12,,,,52,45
58680,note_on,20,0,2,,,,,,,,2,,,,85,60
58720,note_off,40,0,1,,,,,,,,1,,,,85,64
58720,note_off,40,0,2,,,,,,,,2,,,,85,64
58740,note_on,20,0,2,,,,,,,,2,,,,84,60
58740,note_on,20,0,1,,,,,,,,1,,,,84,75
58760,note_off,80,0,11,,,,,,,,12,,,,52,64
58760,note_off,80,0,6,,,,,,,,6,,,,52,64
58780,note_off,40,0,2,,,,,,,,2,,,,84,64
58780,note_off,40,0,1,,,,,,,,1,,,,84,64
58800,note_on,20,0,2,,,,,,,,2,,,,82,60
58800,note_on,20,0,1,,,,,,,,1,,,,82,75
58840,note_off,40,0,2,,,,,,,,2,,,,82,64
58840,note_off,40,0,1,,,,,,,,1,,,,82,64
58860,note_on,20,0,1,,,,,,,,1,,,,80,75
58860,note_on,20,0,2,,,,,,,,2,,,,80,60
58900,note_off,40,0,2,,,,,,,,2,,,,80,64
58900,note_off,40,0,1,,,,,,,,1,,,,80,64
58920,note_on,20,0,2,,,,,,,,2,,,,79,60
58920,note_on,160,0,6,,,,,,,,6,,,,51,45
58920,note_on,160,0,11,,,,,,,,12,,,,51,45
58920,note_on,20,0,1,,,,,,,,1,,,,79,75
58960,note_off,40,0,2,,,,,,,,2,,,,79,64
58960,note_off,40,0,1,,,,,,,,1,,,,79,64
58980,note_on,20,0,2,,,,,,,,2,,,,82,60
58980,note_on,20,0,1,,,,,,,,1,,,,82,75
59000,note_off,80,0,11,,,,,,,,12,,,,51,64
59000,note_off,80,0,6,,,,,,,,6,,,,51,64
59020,note_off,40,0,1,,,,,,,,1,,,,82,64
59020,note_off,40,0,2,,,,,,,,2,,,,82,64
59040,note_on,20,0,1,,,,,,,,1,,,,80,75
59040,note_on,20,0,2,,,,,,,,2,,,,80,60
59080,note_off,40,0,2,,,,,,,,2,,,,80,64
59080,note_off,40,0,1,,,,,,,,1,,,,80,64
59100,note_on,20,0,2,,,,,,,,2,,,,79,60
59100,note_on,20,0,1,,,,,,,,1,,,,79,75
59140,note_off,40,0,2,,,,,,,,2,,,,79,64
59140,note_off,40,0,1,,,,,,,,1,,,,79,64
59160,note_on,20,0,1,,,,,,,,1,,,,84,75
59160,note_on,20,0,2,,,,,,,,2,,,,84,60
59160,note_on,160,0,11,,,,,,,,12,,,,50,45
59160,note_on,160,0,6,,,,,,,,6,,,,50,45
59200,note_off,40,0,1,,,,,,,,1,,,,84,64
59200,note_off,40,0,2,,,,,,,,2,,,,84,64
59220,note_on,20,0,2,,,,,,,,2,,,,82,60
59220,note_on,20,0,1,,,,,,,,1,,,,82,75
59240,note_off,80,0,6,,,,,,,,6,,,,50,64
59240,note_off,80,0,11,,,,,,,,12,,,,50,64
59260,note_off,40,0,1,,,,,,,,1,,,,82,64
59260,note_off,40,0,2,,,,,,,,2,,,,82,64
59280,note_on,20,0,2,,,,,,,,2,,,,80,60
59280,note_on,20,0,1,,,,,,,,1,,,,80,75
59320,note_off,40,0,1,,,,,,,,1,,,,80,64
59320,note_off,40,0,2,,,,,,,,2,,,,80,64
59340,note_on,20,0,2,,,,,,,,2,,,,79,60
59340,note_on,20,0,1,,,,,,,,1,,,,79,75
59380,note_off,40,0,1,,,,,,,,1,,,,79,64
59380,note_off,40,0,2,,,,,,,,2,,,,79,64
59400,note_on,160,0,6,,,,,,,,6,,,,49,45
59400,note_on,20,0,2,,,,,,,,2,,,,77,60
59400,note_on,160,0,11,,,,,,,,12,,,,49,45
59400,note_on,20,0,1,,,,,,,,1,,,,77,75
59440,note_off,40,0,2,,,,,,,,2,,,,77,64
59440,note_off,40,0,1,,,,,,,,1,,,,77,64
59460,note_on,20,0,2,,,,,,,,2,,,,80,60
59460,note_on,20,0,1,,,,,,,,1,,,,80,75
59480,note_off,80,0,6,,,,,,,,6,,,,49,64
59480,note_off,80,0,11,,,,,,,,12,,,,49,64
59500,note_off,40,0,2,,,,,,,,2,,,,80,64
59500,note_off,40,0,1,,,,,,,,1,,,,80,64
59520,note_on,20,0,1,,,,,,,,1,,,,79,75
59520,note_on,20,0,2,,,,,,,,2,,,,79,60
59560,note_off,40,0,1,,,,,,,,1,,,,79,64
59560,note_off,40,0,2,,,,,,,,2,,,,79,64
59580,note_on,20,0,2,,,,,,,,2,,,,77,60
59580,note_on,20,0,1,,,,,,,,1,,,,77,75
59620,note_off,40,0,2,,,,,,,,2,,,,77,64
59620,note_off,40,0,1,,,,,,,,1,,,,77,64
59640,note_on,20,0,1,,,,,,,,1,,,,76,75
59640,note_on,20,0,2,,,,,,,,2,,,,76,60
59640,note_on,160,0,11,,,,,,,,12,,,,48,45
59640,note_on,160,0,6,,,,,,,,6,,,,48,45
59680,note_off,40,0,2,,,,,,,,2,,,,76,64
59680,note_off,40,0,1,,,,,,,,1,,,,76,64
59700,note_on,20,0,2,,,,,,,,2,,,,72,60
59700,note_on,20,0,1,,,,,,,,1,,,,72,75
59720,note_off,80,0,6,,,,,,,,6,,,,48,64
59720,note_off,80,0,11,,,,,,,,12,,,,48,64
59760,note_off,60,0,1,,,,,,,,1,,,,72,64
59760,note_on,0,0,2,,,,,,,,2,,,,70,60
59760,note_off,60,0,2,,,,,,,,2,,,,72,64
59760,note_on,0,0,1,,,,,,,,1,,,,70,75
59820,note_off,60,0,1,,,,,,,,1,,,,70,64
59820,note_on,0,0,1,,,,,,,,1,,,,72,75
59820,note_off,60,0,2,,,,,,,,2,,,,70,64
59820,note_on,0,0,2,,,,,,,,2,,,,72,60
59875,note_off,55,0,2,,,,,,,,2,,,,72,64
59875,note_off,55,0,1,,,,,,,,1,,,,72,64
59880,note_on,160,0,11,,,,,,,,12,,,,48,46
59880,note_on,5,0,1,,,,,,,,1,,,,67,75
59880,note_on,160,0,6,,,,,,,,6,,,,48,46
59880,note_on,5,0,2,,,,,,,,2,,,,67,60
59920,note_off,40,0,2,,,,,,,,2,,,,67,64
59920,note_off,40,0,1,,,,,,,,1,,,,67,64
59940,note_on,20,0,2,,,,,,,,2,,,,72,60
59940,note_on,20,0,1,,,,,,,,1,,,,72,75
59960,note_off,80,0,6,,,,,,,,6,,,,48,64
59960,note_off,80,0,11,,,,,,,,12,,,,48,64
60000,note_on,0,0,2,,,,,,,,2,,,,70,60
60000,note_off,60,0,2,,,,,,,,2,,,,72,64
60000,note_off,60,0,1,,,,,,,,1,,,,72,64
60000,note_on,0,0,1,,,,,,,,1,,,,70,75
60060,note_off,60,0,1,,,,,,,,1,,,,70,64
60060,note_on,0,0,1,,,,,,,,1,,,,72,75
60060,note_off,60,0,2,,,,,,,,2,,,,70,64
60060,note_on,0,0,2,,,,,,,,2,,,,72,60
60115,note_off,55,0,1,,,,,,,,1,,,,72,64
60115,note_off,55,0,2,,,,,,,,2,,,,72,64
60120,note_on,160,0,11,,,,,,,,12,,,,48,47
60120,note_on,5,0,2,,,,,,,,2,,,,76,60
60120,note_on,5,0,1,,,,,,,,1,,,,76,75
60120,note_on,160,0,6,,,,,,,,6,,,,48,47
60160,note_off,40,0,1,,,,,,,,1,,,,76,64
60160,note_off,40,0,2,,,,,,,,2,,,,76,64
60180,note_on,20,0,1,,,,,,,,1,,,,79,75
60180,note_on,20,0,2,,,,,,,,2,,,,79,60
60200,note_off,80,0,11,,,,,,,,12,,,,48,64
60200,note_off,80,0,6,,,,,,,,6,,,,48,64
60240,note_on,0,0,2,,,,,,,,2,,,,77,60
60240,note_off,60,0,2,,,,,,,,2,,,,79,64
60240,note_off,60,0,1,,,,,,,,1,,,,79,64
60240,note_on,0,0,1,,,,,,,,1,,,,77,75
60300,note_off,60,0,1,,,,,,,,1,,,,77,64
60300,note_off,60,0,2,,,,,,,,2,,,,77,64
60300,note_on,0,0,2,,,,,,,,2,,,,79,60
60300,note_on,0,0,1,,,,,,,,1,,,,79,75
60355,note_off,55,0,1,,,,,,,,1,,,,79,64
60355,note_off,55,0,2,,,,,,,,2,,,,79,64
60360,note_on,5,0,1,,,,,,,,1,,,,82,75
60360,note_on,160,0,6,,,,,,,,6,,,,48,48
60360,note_on,5,0,2,,,,,,,,2,,,,82,60
60360,note_on,160,0,11,,,,,,,,12,,,,48,48
60400,note_off,40,0,2,,,,,,,,2,,,,82,64
60400,note_off,40,0,1,,,,,,,,1,,,,82,64
60420,note_on,20,0,2,,,,,,,,2,,,,79,60
60420,note_on,20,0,1,,,,,,,,1,,,,79,75
60440,note_off,80,0,11,,,,,,,,12,,,,48,64
60440,note_off,80,0,6,,,,,,,,6,,,,48,64
60480,note_on,0,0,2,,,,,,,,2,,,,77,60
60480,note_off,60,0,2,,,,,,,,2,,,,79,64
60480,note_off,60,0,1,,,,,,,,1,,,,79,64
60480,note_on,0,0,1,,,,,,,,1,,,,77,75
60540,note_off,60,0,2,,,,,,,,2,,,,77,64
60540,note_off,60,0,1,,,,,,,,1,,,,77,64
60540,note_on,0,0,2,,,,,,,,2,,,,79,60
60540,note_on,0,0,1,,,,,,,,1,,,,79,75
60595,note_off,55,0,1,,,,,,,,1,,,,79,64
60595,note_off,55,0,2,,,,,,,,2,,,,79,64
60600,note_on,160,0,11,,,,,,,,12,,,,48,49
60600,note_on,5,0,1,,,,,,,,1,,,,76,75
60600,note_on,5,0,2,,,,,,,,2,,,,76,60
60600,note_on,160,0,6,,,,,,,,6,,,,48,49
60640,note_off,40,0,1,,,,,,,,1,,,,76,64
60640,note_off,40,0,2,,,,,,,,2,,,,76,64
60660,note_on,20,0,1,,,,,,,,1,,,,72,75
60660,note_on,20,0,2,,,,,,,,2,,,,72,60
60680,note_off,80,0,6,,,,,,,,6,,,,48,64
60680,note_off,80,0,11,,,,,,,,12,,,,48,64
60720,note_off,60,0,2,,,,,,,,2,,,,72,64
60720,note_on,0,0,2,,,,,,,,2,,,,70,60
60720,note_off,60,0,1,,,,,,,,1,,,,72,64
60720,note_on,0,0,1,,,,,,,,1,,,,70,75
60780,note_on,0,0,2,,,,,,,,2,,,,72,60
60780,note_off,60,0,2,,,,,,,,2,,,,70,64
60780,note_off,60,0,1,,,,,,,,1,,,,70,64
60780,note_on,0,0,1,,,,,,,,1,,,,72,75
60835,note_off,55,0,2,,,,,,,,2,,,,72,64
60835,note_off,55,0,1,,,,,,,,1,,,,72,64
60840,note_on,5,0,1,,,,,,,,1,,,,67,75
60840,note_on,5,0,2,,,,,,,,2,,,,67,60
60840,note_on,160,0,6,,,,,,,,6,,,,48,50
60840,note_on,160,0,11,,,,,,,,12,,,,48,50
60880,note_off,40,0,1,,,,,,,,1,,,,67,64
60880,note_off,40,0,2,,,,,,,,2,,,,67,64
60900,note_on,20,0,1,,,,,,,,1,,,,72,75
60900,note_on,20,0,2,,,,,,,,2,,,,72,60
60920,note_off,80,0,11,,,,,,,,12,,,,48,64
60920,note_off,80,0,6,,,,,,,,6,,,,48,64
60960,note_off,60,0,1,,,,,,,,1,,,,72,64
60960,note_on,0,0,2,,,,,,,,2,,,,70,60
60960,note_on,0,0,1,,,,,,,,1,,,,70,75
60960,note_off,60,0,2,,,,,,,,2,,,,72,64
61020,note_on,0,0,1,,,,,,,,1,,,,72,75
61020,note_off,60,0,1,,,,,,,,1,,,,70,64
61020,note_on,0,0,2,,,,,,,,2,,,,72,60
61020,note_off,60,0,2,,,,,,,,2,,,,70,64
61075,note_off,55,0,1,,,,,,,,1,,,,72,64
61075,note_off,55,0,2,,,,,,,,2,,,,72,64
61080,note_on,5,0,2,,,,,,,,2,,,,76,60
61080,note_on,160,0,6,,,,,,,,6,,,,48,51
61080,note_on,160,0,11,,,,,,,,12,,,,48,51
61080,note_on,5,0,1,,,,,,,,1,,,,76,75
61120,note_off,40,0,2,,,,,,,,2,,,,76,64
61120,note_off,40,0,1,,,,,,,,1,,,,76,64
61140,note_on,20,0,2,,,,,,,,2,,,,79,60
61140,note_on,20,0,1,,,,,,,,1,,,,79,75
61160,note_off,80,0,6,,,,,,,,6,,,,48,64
61160,note_off,80,0,11,,,,,,,,12,,,,48,64
61200,note_off,60,0,1,,,,,,,,1,,,,79,64
61200,note_on,0,0,1,,,,,,,,1,,,,77,75
61200,note_on,0,0,2,,,,,,,,2,,,,77,60
61200,note_off,60,0,2,,,,,,,,2,,,,79,64
61260,note_on,0,0,1,,,,,,,,1,,,,79,75
61260,note_off,60,0,2,,,,,,,,2,,,,77,64
61260,note_off,60,0,1,,,,,,,,1,,,,77,64
61260,note_on,0,0,2,,,,,,,,2,,,,79,60
61315,note_off,55,0,2,,,,,,,,2,,,,79,64
61315,note_off,55,0,1,,,,,,,,1,,,,79,64
61320,note_on,5,0,1,,,,,,,,1,,,,82,75
61320,note_on,5,0,2,,,,,,,,2,,,,82,60
61320,note_on,160,0,6,,,,,,,,6,,,,48,52
61320,note_on,160,0,11,,,,,,,,12,,,,48,52
61360,note_off,40,0,1,,,,,,,,1,,,,82,64
61360,note_off,40,0,2,,,,,,,,2,,,,82,64
61380,note_on,20,0,2,,,,,,,,2,,,,79,60
61380,note_on,20,0,1,,,,,,,,1,,,,79,75
61400,note_off,80,0,11,,,,,,,,12,,,,48,64
61400,note_off,80,0,6,,,,,,,,6,,,,48,64
61440,note_off,60,0,2,,,,,,,,2,,,,79,64
61440,note_on,0,0,1,,,,,,,,1,,,,77,75
61440,note_off,60,0,1,,,,,,,,1,,,,79,64
61440,note_on,0,0,2,,,,,,,,2,,,,77,60
61500,note_on,0,0,1,,,,,,,,1,,,,79,76
61500,note_off,60,0,2,,,,,,,,2,,,,77,64
61500,note_on,0,0,2,,,,,,,,2,,,,79,60
61500,note_off,60,0,1,,,,,,,,1,,,,77,64
61555,note_off,55,0,1,,,,,,,,1,,,,79,64
61555,note_off,55,0,2,,,,,,,,2,,,,79,64
61560,set_tempo,12480,1,0,857142,,,,,,,,,,,,
61560,note_on,160,0,11,,,,,,,,12,,,,48,54
61560,note_on,5,0,2,,,,,,,,2,,,,76,60
61560,note_on,160,0,6,,,,,,,,6,,,,48,54
61560,note_on,5,0,1,,,,,,,,1,,,,76,77
61600,note_off,40,0,2,,,,,,,,2,,,,76,64
61600,note_off,40,0,1,,,,,,,,1,,,,76,64
61620,note_on,20,0,2,,,,,,,,2,,,,82,61
61620,note_on,20,0,1,,,,,,,,1,,,,82,78
61640,note_off,80,0,6,,,,,,,,6,,,,48,64
61640,note_off,80,0,11,,,,,,,,12,,,,48,64
61680,note_off,60,0,2,,,,,,,,2,,,,82,64
61680,note_on,0,0,2,,,,,,,,2,,,,80,62
61680,note_off,60,0,1,,,,,,,,1,,,,82,64
61680,note_on,0,0,1,,,,,,,,1,,,,80,79
61740,note_on,0,0,1,,,,,,,,1,,,,82,80
61740,note_off,60,0,1,,,,,,,,1,,,,80,64
61740,note_on,0,0,2,,,,,,,,2,,,,82,63
61740,note_off,60,0,2,,,,,,,,2,,,,80,64
61795,note_off,55,0,2,,,,,,,,2,,,,82,64
61795,note_off,55,0,1,,,,,,,,1,,,,82,64
61800,note_on,160,0,11,,,,,,,,12,,,,48,56
61800,note_on,160,0,6,,,,,,,,6,,,,48,56
61800,note_on,5,0,2,,,,,,,,2,,,,76,64
61800,note_on,5,0,1,,,,,,,,1,,,,76,81
61840,note_off,40,0,2,,,,,,,,2,,,,76,64
61840,note_off,40,0,1,,,,,,,,1,,,,76,64
61860,note_on,20,0,2,,,,,,,,2,,,,79,65
61860,note_on,20,0,1,,,,,,,,1,,,,79,82
61880,note_off,80,0,6,,,,,,,,6,,,,48,64
61880,note_off,80,0,11,,,,,,,,12,,,,48,64
61920,note_on,0,0,1,,,,,,,,1,,,,77,83
61920,note_on,0,0,2,,,,,,,,2,,,,77,66
61920,note_off,60,0,2,,,,,,,,2,,,,79,64
61920,note_off,60,0,1,,,,,,,,1,,,,79,64
61980,note_on,0,0,1,,,,,,,,1,,,,79,84
61980,note_off,60,0,1,,,,,,,,1,,,,77,64
61980,note_on,0,0,2,,,,,,,,2,,,,79,67
61980,note_off,60,0,2,,,,,,,,2,,,,77,64
62035,note_off,55,0,1,,,,,,,,1,,,,79,64
62035,note_off,55,0,2,,,,,,,,2,,,,79,64
62040,note_on,160,0,11,,,,,,,,12,,,,48,58
62040,note_on,160,0,6,,,,,,,,6,,,,48,58
62040,note_on,5,0,1,,,,,,,,1,,,,70,85
62040,note_on,5,0,2,,,,,,,,2,,,,70,68
62040,set_tempo,480,1,0,833333,,,,,,,,,,,,
62080,note_off,40,0,1,,,,,,,,1,,,,70,64
62080,note_off,40,0,2,,,,,,,,2,,,,70,64
62100,note_on,20,0,2,,,,,,,,2,,,,73,69
62100,note_on,20,0,1,,,,,,,,1,,,,73,86
62120,note_off,80,0,6,,,,,,,,6,,,,48,64
62120,note_off,80,0,11,,,,,,,,12,,,,48,64
62160,note_on,0,0,1,,,,,,,,1,,,,72,87
62160,note_off,60,0,1,,,,,,,,1,,,,73,64
62160,note_on,0,0,2,,,,,,,,2,,,,72,70
62160,note_off,60,0,2,,,,,,,,2,,,,73,64
62220,note_on,0,0,1,,,,,,,,1,,,,73,88
62220,note_off,60,0,1,,,,,,,,1,,,,72,64
62220,note_on,0,0,2,,,,,,,,2,,,,73,71
62220,note_off,60,0,2,,,,,,,,2,,,,72,64
62275,note_off,55,0,1,,,,,,,,1,,,,73,64
62275,note_off,55,0,2,,,,,,,,2,,,,73,64
62280,note_on,5,0,2,,,,,,,,2,,,,64,72
62280,note_on,160,0,6,,,,,,,,6,,,,48,60
62280,note_on,5,0,1,,,,,,,,1,,,,64,89
62280,note_on,160,0,11,,,,,,,,12,,,,48,60
62320,note_off,40,0,2,,,,,,,,2,,,,64,64
62320,note_off,40,0,1,,,,,,,,1,,,,64,64
62340,note_on,20,0,2,,,,,,,,2,,,,67,73
62340,note_on,20,0,1,,,,,,,,1,,,,67,90
62360,note_off,80,0,11,,,,,,,,12,,,,48,64
62360,note_off,80,0,6,,,,,,,,6,,,,48,64
62400,note_off,60,0,1,,,,,,,,1,,,,67,64
62400,note_on,0,0,1,,,,,,,,1,,,,65,91
62400,note_on,0,0,2,,,,,,,,2,,,,65,74
62400,note_off,60,0,2,,,,,,,,2,,,,67,64
62460,note_off,60,0,1,,,,,,,,1,,,,65,64
62460,note_on,0,0,1,,,,,,,,1,,,,67,92
62460,note_on,0,0,2,,,,,,,,2,,,,67,75
62460,note_off,60,0,2,,,,,,,,2,,,,65,64
62515,note_off,55,0,1,,,,,,,,1,,,,67,64
62515,note_off,55,0,2,,,,,,,,2,,,,67,64
62520,note_on,13040,0,8,,,,,,,,8,,,,64,92
62520,note_on,5,0,1,,,,,,,,1,,,,58,45
62520,note_on,5,0,2,,,,,,,,2,,,,58,45
62520,note_on,13040,0,5,,,,,,,,5,,,,67,92
62520,note_on,160,0,6,,,,,,,,6,,,,48,92
62520,note_on,13480,0,12,,,,,,,,13,,,,36,92
62520,note_on,13040,0,10,,,,,,,,11,,,,67,92
62520,set_tempo,480,1,0,810810,,,,,,,,,,,,
62520,note_on,13040,0,4,,,,,,,,4,,,,70,92
62520,note_on,160,0,11,,,,,,,,12,,,,48,92
62520,note_on,13480,0,7,,,,,,,,7,,,,36,92
62520,note_on,13040,0,9,,,,,,,,10,,,,70,92
62520,note_on,13040,0,3,,,,,,,,3,,,,64,92
62520,note_on,13445,0,13,,,,,,,,14,,,,36,60
62560,note_off,40,0,10,,,,,,,,11,,,,67,64
62560,note_off,40,0,8,,,,,,,,8,,,,64,64
62560,note_off,40,0,4,,,,,,,,4,,,,70,64
62560,note_off,40,0,5,,,,,,,,5,,,,67,64
62560,note_off,40,0,9,,,,,,,,10,,,,70,64
62560,note_off,40,0,3,,,,,,,,3,,,,64,64
62580,note_on,20,0,3,,,,,,,,3,,,,64,92
62580,note_on,20,0,10,,,,,,,,11,,,,67,92
62580,note_on,20,0,4,,,,,,,,4,,,,70,92
62580,note_on,20,0,9,,,,,,,,10,,,,70,92
62580,note_on,20,0,8,,,,,,,,8,,,,64,92
62580,note_on,20,0,5,,,,,,,,5,,,,67,92
62600,note_off,80,0,12,,,,,,,,13,,,,36,64
62600,note_off,80,0,6,,,,,,,,6,,,,48,64
62600,note_off,80,0,11,,,,,,,,12,,,,48,64
62600,note_off,80,0,7,,,,,,,,7,,,,36,64
62620,note_off,40,0,5,,,,,,,,5,,,,67,64
62620,note_off,40,0,8,,,,,,,,8,,,,64,64
62620,note_off,40,0,3,,,,,,,,3,,,,64,64
62620,note_off,40,0,9,,,,,,,,10,,,,70,64
62620,note_off,40,0,4,,,,,,,,4,,,,70,64
62620,note_off,40,0,10,,,,,,,,11,,,,67,64
62640,note_on,20,0,5,,,,,,,,5,,,,67,92
62640,note_on,20,0,4,,,,,,,,4,,,,70,92
62640,note_on,20,0,3,,,,,,,,3,,,,64,92
62640,note_on,20,0,10,,,,,,,,11,,,,67,92
62640,note_on,20,0,9,,,,,,,,10,,,,70,92
62640,note_on,20,0,8,,,,,,,,8,,,,64,92
62680,note_off,40,0,8,,,,,,,,8,,,,64,64
62680,note_off,40,0,4,,,,,,,,4,,,,70,64
62680,note_off,40,0,5,,,,,,,,5,,,,67,64
62680,note_off,40,0,3,,,,,,,,3,,,,64,64
62680,note_off,40,0,10,,,,,,,,11,,,,67,64
62680,note_off,40,0,9,,,,,,,,10,,,,70,64
62700,note_on,20,0,5,,,,,,,,5,,,,67,92
62700,note_on,20,0,3,,,,,,,,3,,,,64,92
62700,note_on,20,0,4,,,,,,,,4,,,,70,92
62700,note_on,20,0,10,,,,,,,,11,,,,67,92
62700,note_on,20,0,8,,,,,,,,8,,,,64,92
62700,note_on,20,0,9,,,,,,,,10,,,,70,92
62740,note_off,40,0,9,,,,,,,,10,,,,70,64
62740,note_off,40,0,4,,,,,,,,4,,,,70,64
62740,note_off,40,0,3,,,,,,,,3,,,,64,64
62740,note_off,40,0,5,,,,,,,,5,,,,67,64
62740,note_off,40,0,10,,,,,,,,11,,,,67,64
62740,note_off,40,0,8,,,,,,,,8,,,,64,64
62755,note_off,235,0,13,,,,,,,,14,,,,36,64
62760,note_on,20,0,4,,,,,,,,4,,,,70,92
62760,note_on,20,0,9,,,,,,,,10,,,,70,92
62760,note_on,160,0,7,,,,,,,,7,,,,36,92
62760,note_on,20,0,8,,,,,,,,8,,,,64,92
62760,note_on,5,0,13,,,,,,,,14,,,,36,60
62760,note_on,160,0,11,,,,,,,,12,,,,48,92
62760,note_on,20,0,3,,,,,,,,3,,,,64,92
62760,note_on,160,0,6,,,,,,,,6,,,,48,92
62760,note_on,20,0,5,,,,,,,,5,,,,67,92
62760,note_on,20,0,10,,,,,,,,11,,,,67,92
62760,note_on,160,0,12,,,,,,,,13,,,,36,92
62800,note_off,40,0,10,,,,,,,,11,,,,67,64
62800,note_off,40,0,3,,,,,,,,3,,,,64,64
62800,note_off,40,0,4,,,,,,,,4,,,,70,64
62800,note_off,40,0,5,,,,,,,,5,,,,67,64
62800,note_off,40,0,9,,,,,,,,10,,,,70,64
62800,note_off,40,0,8,,,,,,,,8,,,,64,64
62820,note_on,20,0,4,,,,,,,,4,,,,70,92
62820,note_on,20,0,3,,,,,,,,3,,,,64,92
62820,note_on,20,0,10,,,,,,,,11,,,,67,92
62820,note_on,20,0,5,,,,,,,,5,,,,67,92
62820,note_on,20,0,9,,,,,,,,10,,,,70,92
62820,note_on,20,0,8,,,,,,,,8,,,,64,92
62840,note_off,80,0,11,,,,,,,,12,,,,48,64
62840,note_off,80,0,12,,,,,,,,13,,,,36,64
62840,note_off,80,0,6,,,,,,,,6,,,,48,64
62840,note_off,80,0,7,,,,,,,,7,,,,36,64
62860,note_off,40,0,3,,,,,,,,3,,,,64,64
62860,note_off,40,0,9,,,,,,,,10,,,,70,64
62860,note_off,40,0,8,,,,,,,,8,,,,64,64
62860,note_off,40,0,5,,,,,,,,5,,,,67,64
62860,note_off,40,0,4,,,,,,,,4,,,,70,64
62860,note_off,40,0,10,,,,,,,,11,,,,67,64
62880,note_on,20,0,8,,,,,,,,8,,,,64,92
62880,note_on,20,0,3,,,,,,,,3,,,,64,92
62880,note_on,20,0,9,,,,,,,,10,,,,70,92
62880,note_on,20,0,10,,,,,,,,11,,,,67,92
62880,note_on,20,0,5,,,,,,,,5,,,,67,92
62880,note_on,20,0,4,,,,,,,,4,,,,70,92
62920,note_off,40,0,8,,,,,,,,8,,,,64,64
62920,note_off,400,0,1,,,,,,,,1,,,,58,64
62920,note_off,40,0,5,,,,,,,,5,,,,67,64
62920,note_off,40,0,9,,,,,,,,10,,,,70,64
62920,note_off,40,0,4,,,,,,,,4,,,,70,64
62920,note_off,400,0,2,,,,,,,,2,,,,58,64
62920,note_off,40,0,3,,,,,,,,3,,,,64,64
62920,note_off,40,0,10,,,,,,,,11,,,,67,64
62940,note_on,20,0,10,,,,,,,,11,,,,67,92
62940,note_on,20,0,8,,,,,,,,8,,,,64,92
62940,note_on,20,0,9,,,,,,,,10,,,,70,92
62940,note_on,20,0,5,,,,,,,,5,,,,67,92
62940,note_on,20,0,3,,,,,,,,3,,,,64,92
62940,note_on,20,0,4,,,,,,,,4,,,,70,92
62980,note_off,40,0,9,,,,,,,,10,,,,70,64
62980,note_off,40,0,3,,,,,,,,3,,,,64,64
62980,note_off,40,0,4,,,,,,,,4,,,,70,64
62980,note_off,40,0,8,,,,,,,,8,,,,64,64
62980,note_off,40,0,5,,,,,,,,5,,,,67,64
62980,note_off,40,0,10,,,,,,,,11,,,,67,64
62995,note_off,235,0,13,,,,,,,,14,,,,36,64
63000,note_on,20,0,3,,,,,,,,3,,,,64,92
63000,note_on,20,0,4,,,,,,,,4,,,,70,92
63000,note_on,20,0,10,,,,,,,,11,,,,67,92
63000,note_on,160,0,12,,,,,,,,13,,,,36,92
63000,note_on,160,0,6,,,,,,,,6,,,,48,92
63000,note_on,20,0,9,,,,,,,,10,,,,70,92
63000,note_on,160,0,7,,,,,,,,7,,,,36,92
63000,note_on,160,0,11,,,,,,,,12,,,,48,92
63000,note_on,5,0,13,,,,,,,,14,,,,36,60
63000,note_on,20,0,5,,,,,,,,5,,,,67,92
63000,note_on,20,0,8,,,,,,,,8,,,,64,92
63040,note_off,40,0,4,,,,,,,,4,,,,70,64
63040,note_off,40,0,8,,,,,,,,8,,,,64,64
63040,note_off,40,0,3,,,,,,,,3,,,,64,64
63040,note_off,40,0,10,,,,,,,,11,,,,67,64
63040,note_off,40,0,5,,,,,,,,5,,,,67,64
63040,note_off,40,0,9,,,,,,,,10,,,,70,64
63060,note_on,20,0,3,,,,,,,,3,,,,64,92
63060,note_on,20,0,9,,,,,,,,10,,,,70,92
63060,note_on,20,0,5,,,,,,,,5,,,,67,92
63060,note_on,20,0,4,,,,,,,,4,,,,70,92
63060,note_on,20,0,8,,,,,,,,8,,,,64,92
63060,note_on,20,0,10,,,,,,,,11,,,,67,92
63080,note_off,80,0,7,,,,,,,,7,,,,36,64
63080,note_off,80,0,6,,,,,,,,6,,,,48,64
63080,note_off,80,0,12,,,,,,,,13,,,,36,64
63080,note_off,80,0,11,,,,,,,,12,,,,48,64
63100,note_off,40,0,9,,,,,,,,10,,,,70,64
63100,note_off,40,0,4,,,,,,,,4,,,,70,64
63100,note_off,40,0,10,,,,,,,,11,,,,67,64
63100,note_off,40,0,8,,,,,,,,8,,,,64,64
63100,note_off,40,0,3,,,,,,,,3,,,,64,64
63100,note_off,40,0,5,,,,,,,,5,,,,67,64
63120,note_on,20,0,3,,,,,,,,3,,,,64,92
63120,note_on,20,0,10,,,,,,,,11,,,,67,92
63120,note_on,20,0,4,,,,,,,,4,,,,70,92
63120,note_on,20,0,5,,,,,,,,5,,,,67,92
63120,note_on,20,0,9,,,,,,,,10,,,,70,92
63120,note_on,20,0,8,,,,,,,,8,,,,64,92
63160,note_off,40,0,5,,,,,,,,5,,,,67,64
63160,note_off,40,0,9,,,,,,,,10,,,,70,64
63160,note_off,40,0,3,,,,,,,,3,,,,64,64
63160,note_off,40,0,8,,,,,,,,8,,,,64,64
63160,note_off,40,0,4,,,,,,,,4,,,,70,64
63160,note_off,40,0,10,,,,,,,,11,,,,67,64
63180,note_on,20,0,4,,,,,,,,4,,,,70,92
63180,note_on,20,0,8,,,,,,,,8,,,,64,92
63180,note_on,20,0,10,,,,,,,,11,,,,67,92
63180,note_on,20,0,9,,,,,,,,10,,,,70,92
63180,note_on,20,0,3,,,,,,,,3,,,,64,92
63180,note_on,20,0,5,,,,,,,,5,,,,67,92
63220,note_off,40,0,5,,,,,,,,5,,,,67,64
63220,note_off,40,0,4,,,,,,,,4,,,,70,64
63220,note_off,40,0,10,,,,,,,,11,,,,67,64
63220,note_off,40,0,3,,,,,,,,3,,,,64,64
63220,note_off,40,0,8,,,,,,,,8,,,,64,64
63220,note_off,40,0,9,,,,,,,,10,,,,70,64
63235,note_off,235,0,13,,,,,,,,14,,,,36,64
63240,note_on,20,0,10,,,,,,,,11,,,,67,92
63240,note_on,160,0,7,,,,,,,,7,,,,36,92
63240,note_on,5,0,13,,,,,,,,14,,,,36,60
63240,note_on,160,0,12,,,,,,,,13,,,,36,92
63240,note_on,20,0,4,,,,,,,,4,,,,70,92
63240,note_on,160,0,6,,,,,,,,6,,,,48,92
63240,note_on,20,0,9,,,,,,,,10,,,,70,92
63240,note_on,20,0,3,,,,,,,,3,,,,64,92
63240,note_on,160,0,11,,,,,,,,12,,,,48,92
63240,note_on,20,0,5,,,,,,,,5,,,,67,92
63240,note_on,20,0,8,,,,,,,,8,,,,64,92
63280,note_off,40,0,10,,,,,,,,11,,,,67,64
63280,note_off,40,0,4,,,,,,,,4,,,,70,64
63280,note_off,40,0,5,,,,,,,,5,,,,67,64
63280,note_off,40,0,8,,,,,,,,8,,,,64,64
63280,note_off,40,0,9,,,,,,,,10,,,,70,64
63280,note_off,40,0,3,,,,,,,,3,,,,64,64
63300,note_on,20,0,9,,,,,,,,10,,,,70,92
63300,note_on,20,0,5,,,,,,,,5,,,,67,92
63300,note_on,20,0,3,,,,,,,,3,,,,64,92
63300,note_on,20,0,8,,,,,,,,8,,,,64,92
63300,note_on,20,0,4,,,,,,,,4,,,,70,92
63300,note_on,20,0,10,,,,,,,,11,,,,67,92
63320,note_off,80,0,12,,,,,,,,13,,,,36,64
63320,note_off,80,0,7,,,,,,,,7,,,,36,64
63320,note_off,80,0,6,,,,,,,,6,,,,48,64
63320,note_off,80,0,11,,,,,,,,12,,,,48,64
63340,note_off,40,0,3,,,,,,,,3,,,,64,64
63340,note_off,40,0,10,,,,,,,,11,,,,67,64
63340,note_off,40,0,9,,,,,,,,10,,,,70,64
63340,note_off,40,0,5,,,,,,,,5,,,,67,64
63340,note_off,40,0,8,,,,,,,,8,,,,64,64
63340,note_off,40,0,4,,,,,,,,4,,,,70,64
63360,note_on,20,0,9,,,,,,,,10,,,,70,92
63360,note_on,20,0,3,,,,,,,,3,,,,64,92
63360,note_on,20,0,5,,,,,,,,5,,,,67,92
63360,note_on,20,0,10,,,,,,,,11,,,,67,92
63360,note_on,20,0,8,,,,,,,,8,,,,64,92
63360,note_on,20,0,4,,,,,,,,4,,,,70,92
63400,note_off,40,0,8,,,,,,,,8,,,,64,64
63400,note_off,40,0,4,,,,,,,,4,,,,70,64
63400,note_off,40,0,9,,,,,,,,10,,,,70,64
63400,note_off,40,0,5,,,,,,,,5,,,,67,64
63400,note_off,40,0,10,,,,,,,,11,,,,67,64
63400,note_off,40,0,3,,,,,,,,3,,,,64,64
63420,note_on,20,0,9,,,,,,,,10,,,,70,92
63420,note_on,20,0,4,,,,,,,,4,,,,70,92
63420,note_on,20,0,10,,,,,,,,11,,,,67,92
63420,note_on,20,0,3,,,,,,,,3,,,,64,92
63420,note_on,20,0,5,,,,,,,,5,,,,67,92
63420,note_on,20,0,8,,,,,,,,8,,,,64,92
63460,note_off,40,0,3,,,,,,,,3,,,,64,64
63460,note_off,40,0,4,,,,,,,,4,,,,70,64
63460,note_off,40,0,9,,,,,,,,10,,,,70,64
63460,note_off,40,0,10,,,,,,,,11,,,,67,64
63460,note_off,40,0,8,,,,,,,,8,,,,64,64
63460,note_off,40,0,5,,,,,,,,5,,,,67,64
63475,note_off,235,0,13,,,,,,,,14,,,,36,64
63480,note_on,20,0,8,,,,,,,,8,,,,65,45
63480,note_on,20,0,4,,,,,,,,4,,,,68,45
63480,note_on,160,0,12,,,,,,,,13,,,,41,45
63480,note_on,5,0,13,,,,,,,,14,,,,41,45
63480,note_on,160,0,11,,,,,,,,12,,,,53,45
63480,note_on,20,0,3,,,,,,,,3,,,,65,45
63480,note_on,20,0,5,,,,,,,,5,,,,60,45
63480,note_on,20,0,9,,,,,,,,10,,,,68,45
63480,note_on,20,0,10,,,,,,,,11,,,,60,45
63480,note_on,160,0,6,,,,,,,,6,,,,53,45
63480,note_on,160,0,7,,,,,,,,7,,,,41,45
63540,note_on,620,0,1,,,,,,,,1,,,,72,92
63540,note_on,620,0,2,,,,,,,,2,,,,72,75
63600,note_off,60,0,1,,,,,,,,1,,,,72,64
63600,note_on,0,0,1,,,,,,,,1,,,,70,92
63600,note_on,0,0,2,,,,,,,,2,,,,70,75
63600,note_off,60,0,2,,,,,,,,2,,,,72,64
63660,note_off,60,0,2,,,,,,,,2,,,,70,64
63660,note_off,60,0,1,,,,,,,,1,,,,70,64
63660,note_on,0,0,1,,,,,,,,1,,,,72,92
63660,note_on,0,0,2,,,,,,,,2,,,,72,75
63700,note_off,40,0,1,,,,,,,,1,,,,72,64
63700,note_off,40,0,2,,,,,,,,2,,,,72,64
63720,note_on,20,0,1,,,,,,,,1,,,,68,92
63720,note_on,20,0,2,,,,,,,,2,,,,68,75
63760,note_off,40,0,2,,,,,,,,2,,,,68,64
63760,note_off,40,0,1,,,,,,,,1,,,,68,64
63780,note_on,20,0,2,,,,,,,,2,,,,72,75
63780,note_on,20,0,1,,,,,,,,1,,,,72,92
63840,note_on,0,0,2,,,,,,,,2,,,,70,75
63840,note_off,60,0,2,,,,,,,,2,,,,72,64
63840,note_off,60,0,1,,,,,,,,1,,,,72,64
63840,note_on,0,0,1,,,,,,,,1,,,,70,92
63880,note_off,400,0,5,,,,,,,,5,,,,60,64
63880,note_off,400,0,10,,,,,,,,11,,,,60,64
63880,note_off,400,0,8,,,,,,,,8,,,,65,64
63880,note_off,400,0,6,,,,,,,,6,,,,53,64
63880,note_off,400,0,11,,,,,,,,12,,,,53,64
63880,note_off,400,0,12,,,,,,,,13,,,,41,64
63880,note_off,400,0,7,,,,,,,,7,,,,41,64
63880,note_off,400,0,3,,,,,,,,3,,,,65,64
63880,note_off,400,0,9,,,,,,,,10,,,,68,64
63880,note_off,400,0,4,,,,,,,,4,,,,68,64
63880,note_off,400,0,13,,,,,,,,14,,,,41,64
63900,note_off,60,0,1,,,,,,,,1,,,,70,64
63900,note_on,0,0,2,,,,,,,,2,,,,72,75
63900,note_on,0,0,1,,,,,,,,1,,,,72,92
63900,note_off,60,0,2,,,,,,,,2,,,,70,64
63940,note_off,40,0,2,,,,,,,,2,,,,72,64
63940,note_off,40,0,1,,,,,,,,1,,,,72,64
63960,note_on,20,0,1,,,,,,,,1,,,,77,92
63960,note_on,20,0,2,,,,,,,,2,,,,77,75
64000,note_off,40,0,1,,,,,,,,1,,,,77,64
64000,note_off,40,0,2,,,,,,,,2,,,,77,64
64020,note_on,20,0,1,,,,,,,,1,,,,72,92
64020,note_on,20,0,2,,,,,,,,2,,,,72,75
64080,note_off,60,0,1,,,,,,,,1,,,,72,64
64080,note_on,0,0,1,,,,,,,,1,,,,70,92
64080,note_on,0,0,2,,,,,,,,2,,,,70,75
64080,note_off,60,0,2,,,,,,,,2,,,,72,64
64140,note_on,0,0,2,,,,,,,,2,,,,72,75
64140,note_off,60,0,2,,,,,,,,2,,,,70,64
64140,note_on,0,0,1,,,,,,,,1,,,,72,92
64140,note_off,60,0,1,,,,,,,,1,,,,70,64
64180,note_off,40,0,1,,,,,,,,1,,,,72,64
64180,note_off,40,0,2,,,,,,,,2,,,,72,64
64200,note_on,20,0,2,,,,,,,,2,,,,68,75
64200,note_on,20,0,1,,,,,,,,1,,,,68,92
64240,note_off,40,0,2,,,,,,,,2,,,,68,64
64240,note_off,40,0,1,,,,,,,,1,,,,68,64
64260,note_on,20,0,1,,,,,,,,1,,,,72,92
64260,note_on,20,0,2,,,,,,,,2,,,,72,75
64320,note_on,0,0,2,,,,,,,,2,,,,70,75
64320,note_off,60,0,2,,,,,,,,2,,,,72,64
64320,note_on,0,0,1,,,,,,,,1,,,,70,92
64320,note_off,60,0,1,,,,,,,,1,,,,72,64
64380,note_off,60,0,2,,,,,,,,2,,,,70,64
64380,note_on,0,0,2,,,,,,,,2,,,,72,75
64380,note_on,0,0,1,,,,,,,,1,,,,72,92
64380,note_off,60,0,1,,,,,,,,1,,,,70,64
64420,note_off,40,0,2,,,,,,,,2,,,,72,64
64420,note_off,40,0,1,,,,,,,,1,,,,72,64
64440,note_on,560,0,13,,,,,,,,14,,,,41,60
64440,note_on,560,0,4,,,,,,,,4,,,,75,92
64440,note_on,560,0,6,,,,,,,,6,,,,53,92
64440,note_on,560,0,7,,,,,,,,7,,,,41,92
64440,note_on,560,0,12,,,,,,,,13,,,,41,75
64440,note_on,560,0,11,,,,,,,,12,,,,53,75
64440,note_on,560,0,3,,,,,,,,3,,,,81,92
64440,note_on,560,0,10,,,,,,,,11,,,,72,75
64440,note_on,560,0,5,,,,,,,,5,,,,72,92
64440,note_on,560,0,8,,,,,,,,8,,,,81,75
64440,note_on,560,0,9,,,,,,,,10,,,,75,75
64480,note_off,40,0,8,,,,,,,,8,,,,81,64
64480,note_off,40,0,5,,,,,,,,5,,,,72,64
64480,note_off,40,0,4,,,,,,,,4,,,,75,64
64480,note_off,40,0,3,,,,,,,,3,,,,81,64
64480,note_off,40,0,10,,,,,,,,11,,,,72,64
64480,note_off,40,0,9,,,,,,,,10,,,,75,64
64500,note_on,20,0,10,,,,,,,,11,,,,72,75
64500,note_on,20,0,3,,,,,,,,3,,,,81,92
64500,note_on,20,0,4,,,,,,,,4,,,,75,92
64500,note_on,20,0,9,,,,,,,,10,,,,75,75
64500,note_on,20,0,8,,,,,,,,8,,,,81,75
64500,note_on,20,0,5,,,,,,,,5,,,,72,92
64520,note_off,80,0,7,,,,,,,,7,,,,41,64
64520,note_off,80,0,6,,,,,,,,6,,,,53,64
64520,note_off,80,0,11,,,,,,,,12,,,,53,64
64520,note_off,80,0,12,,,,,,,,13,,,,41,64
64540,note_off,40,0,10,,,,,,,,11,,,,72,64
64540,note_off,40,0,8,,,,,,,,8,,,,81,64
64540,note_off,40,0,3,,,,,,,,3,,,,81,64
64540,note_off,40,0,4,,,,,,,,4,,,,75,64
64540,note_off,40,0,9,,,,,,,,10,,,,75,64
64540,note_off,40,0,5,,,,,,,,5,,,,72,64
64560,note_on,20,0,8,,,,,,,,8,,,,81,75
64560,note_on,20,0,5,,,,,,,,5,,,,72,92
64560,note_on,20,0,4,,,,,,,,4,,,,75,92
64560,note_on,20,0,3,,,,,,,,3,,,,81,92
64560,note_on,20,0,10,,,,,,,,11,,,,72,75
64560,note_on,20,0,9,,,,,,,,10,,,,75,75
64600,note_off,40,0,8,,,,,,,,8,,,,81,64
64600,note_off,40,0,5,,,,,,,,5,,,,72,64
64600,note_off,40,0,10,,,,,,,,11,,,,72,64
64600,note_off,40,0,3,,,,,,,,3,,,,81,64
64600,note_off,40,0,9,,,,,,,,10,,,,75,64
64600,note_off,40,0,4,,,,,,,,4,,,,75,64
64620,note_on,20,0,3,,,,,,,,3,,,,81,92
64620,note_on,20,0,9,,,,,,,,10,,,,75,75
64620,note_on,20,0,4,,,,,,,,4,,,,75,92
64620,note_on,20,0,10,,,,,,,,11,,,,72,75
64620,note_on,20,0,8,,,,,,,,8,,,,81,75
64620,note_on,20,0,5,,,,,,,,5,,,,72,92
64660,note_off,40,0,4,,,,,,,,4,,,,75,64
64660,note_off,40,0,9,,,,,,,,10,,,,75,64
64660,note_off,40,0,8,,,,,,,,8,,,,81,64
64660,note_off,40,0,3,,,,,,,,3,,,,81,64
64660,note_off,40,0,10,,,,,,,,11,,,,72,64
64660,note_off,40,0,5,,,,,,,,5,,,,72,64
64675,note_off,235,0,13,,,,,,,,14,,,,41,64
64680,note_on,20,0,4,,,,,,,,4,,,,75,92
64680,note_on,20,0,5,,,,,,,,5,,,,72,92
64680,note_on,160,0,12,,,,,,,,13,,,,41,75
64680,note_on,20,0,8,,,,,,,,8,,,,81,75
64680,note_on,20,0,10,,,,,,,,11,,,,72,75
64680,note_on,160,0,6,,,,,,,,6,,,,53,92
64680,note_on,20,0,3,,,,,,,,3,,,,81,92
64680,note_on,5,0,13,,,,,,,,14,,,,41,60
64680,note_on,20,0,9,,,,,,,,10,,,,75,75
64680,note_on,160,0,7,,,,,,,,7,,,,41,92
64680,note_on,160,0,11,,,,,,,,12,,,,53,75
64720,note_off,40,0,5,,,,,,,,5,,,,72,64
64720,note_off,40,0,3,,,,,,,,3,,,,81,64
64720,note_off,40,0,4,,,,,,,,4,,,,75,64
64720,note_off,40,0,8,,,,,,,,8,,,,81,64
64720,note_off,40,0,10,,,,,,,,11,,,,72,64
64720,note_off,40,0,9,,,,,,,,10,,,,75,64
64740,note_on,20,0,8,,,,,,,,8,,,,81,75
64740,note_on,20,0,3,,,,,,,,3,,,,81,92
64740,note_on,20,0,4,,,,,,,,4,,,,75,92
64740,note_on,20,0,9,,,,,,,,10,,,,75,75
64740,note_on,20,0,5,,,,,,,,5,,,,72,92
64740,note_on,20,0,10,,,,,,,,11,,,,72,75
64760,note_off,80,0,12,,,,,,,,13,,,,41,64
64760,note_off,80,0,7,,,,,,,,7,,,,41,64
64760,note_off,80,0,11,,,,,,,,12,,,,53,64
64760,note_off,80,0,6,,,,,,,,6,,,,53,64
64780,note_off,40,0,8,,,,,,,,8,,,,81,64
64780,note_off,40,0,10,,,,,,,,11,,,,72,64
64780,note_off,40,0,5,,,,,,,,5,,,,72,64
64780,note_off,40,0,3,,,,,,,,3,,,,81,64
64780,note_off,40,0,4,,,,,,,,4,,,,75,64
64780,note_off,40,0,9,,,,,,,,10,,,,75,64
64800,note_on,20,0,10,,,,,,,,11,,,,72,75
64800,note_on,20,0,5,,,,,,,,5,,,,72,92
64800,note_on,20,0,3,,,,,,,,3,,,,81,92
64800,note_on,20,0,8,,,,,,,,8,,,,81,75
64800,note_on,20,0,9,,,,,,,,10,,,,75,75
64800,note_on,20,0,4,,,,,,,,4,,,,75,92
64840,note_off,40,0,3,,,,,,,,3,,,,81,64
64840,note_off,40,0,8,,,,,,,,8,,,,81,64
64840,note_off,40,0,4,,,,,,,,4,,,,75,64
64840,note_off,40,0,9,,,,,,,,10,,,,75,64
64840,note_off,40,0,5,,,,,,,,5,,,,72,64
64840,note_off,40,0,10,,,,,,,,11,,,,72,64
64860,note_on,20,0,10,,,,,,,,11,,,,72,75
64860,note_on,20,0,9,,,,,,,,10,,,,75,75
64860,note_on,20,0,8,,,,,,,,8,,,,81,75
64860,note_on,20,0,5,,,,,,,,5,,,,72,92
64860,note_on,20,0,4,,,,,,,,4,,,,75,92
64860,note_on,20,0,3,,,,,,,,3,,,,81,92
64900,note_off,40,0,4,,,,,,,,4,,,,75,64
64900,note_off,40,0,3,,,,,,,,3,,,,81,64
64900,note_off,40,0,5,,,,,,,,5,,,,72,64
64900,note_off,40,0,9,,,,,,,,10,,,,75,64
64900,note_off,40,0,10,,,,,,,,11,,,,72,64
64900,note_off,40,0,8,,,,,,,,8,,,,81,64
64915,note_off,235,0,13,,,,,,,,14,,,,41,64
64920,note_on,5,0,13,,,,,,,,14,,,,41,60
64920,note_on,160,0,6,,,,,,,,6,,,,53,92
64920,note_on,20,0,5,,,,,,,,5,,,,69,92
64920,note_on,20,0,8,,,,,,,,8,,,,81,75
64920,note_on,160,0,11,,,,,,,,12,,,,53,75
64920,note_on,160,0,12,,,,,,,,13,,,,41,75
64920,note_on,160,0,7,,,,,,,,7,,,,41,92
64920,note_on,20,0,3,,,,,,,,3,,,,81,92
64920,note_on,20,0,9,,,,,,,,10,,,,75,75
64920,note_on,20,0,4,,,,,,,,4,,,,75,92
64920,note_on,20,0,10,,,,,,,,11,,,,69,75
64960,note_off,40,0,8,,,,,,,,8,,,,81,64
64960,note_off,40,0,9,,,,,,,,10,,,,75,64
64960,note_off,40,0,3,,,,,,,,3,,,,81,64
64960,note_off,40,0,5,,,,,,,,5,,,,69,64
64960,note_off,40,0,10,,,,,,,,11,,,,69,64
64960,note_off,40,0,4,,,,,,,,4,,,,75,64
64980,note_on,20,0,4,,,,,,,,4,,,,75,92
64980,note_on,20,0,9,,,,,,,,10,,,,75,75
64980,note_on,20,0,3,,,,,,,,3,,,,81,92
64980,note_on,20,0,5,,,,,,,,5,,,,69,92
64980,note_on,20,0,10,,,,,,,,11,,,,69,75
64980,note_on,20,0,8,,,,,,,,8,,,,81,75
65000,note_off,80,0,6,,,,,,,,6,,,,53,64
65000,note_off,80,0,7,,,,,,,,7,,,,41,64
65000,note_off,80,0,12,,,,,,,,13,,,,41,64
65000,note_off,80,0,11,,,,,,,,12,,,,53,64
65020,note_off,40,0,9,,,,,,,,10,,,,75,64
65020,note_off,40,0,3,,,,,,,,3,,,,81,64
65020,note_off,40,0,5,,,,,,,,5,,,,69,64
65020,note_off,40,0,8,,,,,,,,8,,,,81,64
65020,note_off,40,0,10,,,,,,,,11,,,,69,64
65020,note_off,40,0,4,,,,,,,,4,,,,75,64
65040,note_on,20,0,3,,,,,,,,3,,,,81,92
65040,note_on,20,0,4,,,,,,,,4,,,,75,92
65040,note_on,20,0,10,,,,,,,,11,,,,69,75
65040,note_on,20,0,9,,,,,,,,10,,,,75,75
65040,note_on,20,0,5,,,,,,,,5,,,,69,92
65040,note_on,20,0,8,,,,,,,,8,,,,81,75
65080,note_off,40,0,10,,,,,,,,11,,,,69,64
65080,note_off,40,0,4,,,,,,,,4,,,,75,64
65080,note_off,40,0,9,,,,,,,,10,,,,75,64
65080,note_off,40,0,8,,,,,,,,8,,,,81,64
65080,note_off,40,0,5,,,,,,,,5,,,,69,64
65080,note_off,40,0,3,,,,,,,,3,,,,81,64
65100,note_on,20,0,4,,,,,,,,4,,,,75,92
65100,note_on,20,0,9,,,,,,,,10,,,,75,75
65100,note_on,20,0,10,,,,,,,,11,,,,69,75
65100,note_on,20,0,5,,,,,,,,5,,,,69,92
65100,note_on,20,0,3,,,,,,,,3,,,,81,92
65100,note_on,20,0,8,,,,,,,,8,,,,81,75
65140,note_off,40,0,9,,,,,,,,10,,,,75,64
65140,note_off,40,0,3,,,,,,,,3,,,,81,64
65140,note_off,40,0,4,,,,,,,,4,,,,75,64
65140,note_off,40,0,5,,,,,,,,5,,,,69,64
65140,note_off,40,0,8,,,,,,,,8,,,,81,64
65140,note_off,40,0,10,,,,,,,,11,,,,69,64
65155,note_off,235,0,13,,,,,,,,14,,,,41,64
65160,note_on,20,0,9,,,,,,,,10,,,,75,75
65160,note_on,20,0,3,,,,,,,,3,,,,81,92
65160,note_on,5,0,13,,,,,,,,14,,,,41,60
65160,note_on,160,0,7,,,,,,,,7,,,,41,92
65160,note_on,20,0,5,,,,,,,,5,,,,69,92
65160,note_on,20,0,10,,,,,,,,11,,,,69,75
65160,note_on,160,0,11,,,,,,,,12,,,,53,75
65160,note_on,20,0,4,,,,,,,,4,,,,75,92
65160,note_on,160,0,12,,,,,,,,13,,,,41,75
65160,note_on,20,0,8,,,,,,,,8,,,,81,75
65160,note_on,160,0,6,,,,,,,,6,,,,53,92
65200,note_off,40,0,4,,,,,,,,4,,,,75,64
65200,note_off,40,0,5,,,,,,,,5,,,,69,64
65200,note_off,40,0,10,,,,,,,,11,,,,69,64
65200,note_off,40,0,3,,,,,,,,3,,,,81,64
65200,note_off,40,0,9,,,,,,,,10,,,,75,64
65200,note_off,40,0,8,,,,,,,,8,,,,81,64
65220,note_on,20,0,9,,,,,,,,10,,,,75,75
65220,note_on,20,0,10,,,,,,,,11,,,,69,75
65220,note_on,20,0,3,,,,,,,,3,,,,81,92
65220,note_on,20,0,5,,,,,,,,5,,,,69,92
65220,note_on,20,0,4,,,,,,,,4,,,,75,92
65220,note_on,20,0,8,,,,,,,,8,,,,81,75
65240,note_off,80,0,12,,,,,,,,13,,,,41,64
65240,note_off,80,0,6,,,,,,,,6,,,,53,64
65240,note_off,80,0,11,,,,,,,,12,,,,53,64
65240,note_off,80,0,7,,,,,,,,7,,,,41,64
65260,note_off,40,0,5,,,,,,,,5,,,,69,64
65260,note_off,40,0,10,,,,,,,,11,,,,69,64
65260,note_off,40,0,3,,,,,,,,3,,,,81,64
65260,note_off,40,0,8,,,,,,,,8,,,,81,64
65260,note_off,40,0,9,,,,,,,,10,,,,75,64
65260,note_off,40,0,4,,,,,,,,4,,,,75,64
65280,note_on,20,0,8,,,,,,,,8,,,,81,75
65280,note_on,20,0,10,,,,,,,,11,,,,69,75
65280,note_on,20,0,3,,,,,,,,3,,,,81,92
65280,note_on,20,0,9,,,,,,,,10,,,,75,75
65280,note_on,20,0,4,,,,,,,,4,,,,75,92
65280,note_on,20,0,5,,,,,,,,5,,,,69,92
65320,note_off,40,0,9,,,,,,,,10,,,,75,64
65320,note_off,40,0,5,,,,,,,,5,,,,69,64
65320,note_off,40,0,4,,,,,,,,4,,,,75,64
65320,note_off,40,0,3,,,,,,,,3,,,,81,64
65320,note_off,40,0,8,,,,,,,,8,,,,81,64
65320,note_off,40,0,10,,,,,,,,11,,,,69,64
65340,note_on,20,0,4,,,,,,,,4,,,,75,92
65340,note_on,20,0,10,,,,,,,,11,,,,69,75
65340,note_on,20,0,8,,,,,,,,8,,,,81,75
65340,note_on,20,0,9,,,,,,,,10,,,,75,75
65340,note_on,20,0,5,,,,,,,,5,,,,69,92
65340,note_on,20,0,3,,,,,,,,3,,,,81,92
65380,note_off,40,0,5,,,,,,,,5,,,,69,64
65380,note_off,40,0,10,,,,,,,,11,,,,69,64
65380,note_off,40,0,3,,,,,,,,3,,,,81,64
65380,note_off,40,0,8,,,,,,,,8,,,,81,64
65380,note_off,40,0,4,,,,,,,,4,,,,75,64
65380,note_off,40,0,9,,,,,,,,10,,,,75,64
65395,note_off,235,0,13,,,,,,,,14,,,,41,64
65400,note_on,20,0,9,,,,,,,,10,,,,74,45
65400,note_on,160,0,7,,,,,,,,7,,,,34,45
65400,note_on,160,0,11,,,,,,,,12,,,,46,45
65400,note_on,160,0,6,,,,,,,,6,,,,46,45
65400,note_on,20,0,4,,,,,,,,4,,,,74,45
65400,note_on,160,0,12,,,,,,,,13,,,,34,45
65400,note_on,5,0,13,,,,,,,,14,,,,34,60
65400,note_on,20,0,5,,,,,,,,5,,,,65,45
65400,note_on,20,0,10,,,,,,,,11,,,,65,45
65400,note_on,20,0,8,,,,,,,,8,,,,82,45
65400,note_on,20,0,3,,,,,,,,3,,,,82,45
65460,note_on,1040,0,1,,,,,,,,1,,,,74,92
65460,note_on,1040,0,2,,,,,,,,2,,,,74,75
65520,note_on,0,0,1,,,,,,,,1,,,,72,92
65520,note_on,0,0,2,,,,,,,,2,,,,72,75
65520,note_off,60,0,2,,,,,,,,2,,,,74,64
65520,note_off,60,0,1,,,,,,,,1,,,,74,64
65580,note_off,60,0,1,,,,,,,,1,,,,72,64
65580,note_on,0,0,2,,,,,,,,2,,,,74,75
65580,note_off,60,0,2,,,,,,,,2,,,,72,64
65580,note_on,0,0,1,,,,,,,,1,,,,74,92
65620,note_off,40,0,1,,,,,,,,1,,,,74,64
65620,note_off,40,0,2,,,,,,,,2,,,,74,64
65640,note_on,20,0,1,,,,,,,,1,,,,77,92
65640,note_on,20,0,2,,,,,,,,2,,,,77,75
65680,note_off,40,0,1,,,,,,,,1,,,,77,64
65680,note_off,40,0,2,,,,,,,,2,,,,77,64
65700,note_on,20,0,1,,,,,,,,1,,,,74,92
65700,note_on,20,0,2,,,,,,,,2,,,,74,75
65760,note_on,0,0,1,,,,,,,,1,,,,72,92
65760,note_on,0,0,2,,,,,,,,2,,,,72,75
65760,note_off,60,0,1,,,,,,,,1,,,,74,64
65760,note_off,60,0,2,,,,,,,,2,,,,74,64
65800,note_off,400,0,13,,,,,,,,14,,,,34,64
65800,note_off,400,0,12,,,,,,,,13,,,,34,64
65800,note_off,400,0,5,,,,,,,,5,,,,65,64
65800,note_off,400,0,10,,,,,,,,11,,,,65,64
65800,note_off,400,0,3,,,,,,,,3,,,,82,64
65800,note_off,400,0,9,,,,,,,,10,,,,74,64
65800,note_off,400,0,6,,,,,,,,6,,,,46,64
65800,note_off,400,0,11,,,,,,,,12,,,,46,64
65800,note_off,400,0,7,,,,,,,,7,,,,34,64
65800,note_off,400,0,8,,,,,,,,8,,,,82,64
65800,note_off,400,0,4,,,,,,,,4,,,,74,64
65820,note_off,60,0,2,,,,,,,,2,,,,72,64
65820,note_on,0,0,2,,,,,,,,2,,,,74,75
65820,note_off,60,0,1,,,,,,,,1,,,,72,64
65820,note_on,0,0,1,,,,,,,,1,,,,74,92
65860,note_off,40,0,2,,,,,,,,2,,,,74,64
65860,note_off,40,0,1,,,,,,,,1,,,,74,64
65880,note_on,20,0,1,,,,,,,,1,,,,70,92
65880,note_on,20,0,2,,,,,,,,2,,,,70,75
65920,note_off,40,0,1,,,,,,,,1,,,,70,64
65920,note_off,40,0,2,,,,,,,,2,,,,70,64
65940,note_on,20,0,1,,,,,,,,1,,,,74,92
65940,note_on,20,0,2,,,,,,,,2,,,,74,75
66000,note_off,60,0,2,,,,,,,,2,,,,74,64
66000,note_on,0,0,2,,,,,,,,2,,,,72,75
66000,note_on,0,0,1,,,,,,,,1,,,,72,92
66000,note_off,60,0,1,,,,,,,,1,,,,74,64
66060,note_on,0,0,1,,,,,,,,1,,,,74,92
66060,note_off,60,0,1,,,,,,,,1,,,,72,64
66060,note_off,60,0,2,,,,,,,,2,,,,72,64
66060,note_on,0,0,2,,,,,,,,2,,,,74,75
66100,note_off,40,0,2,,,,,,,,2,,,,74,64
66100,note_off,40,0,1,,,,,,,,1,,,,74,64
66120,note_on,20,0,2,,,,,,,,2,,,,77,75
66120,note_on,20,0,1,,,,,,,,1,,,,77,92
66160,note_off,40,0,1,,,,,,,,1,,,,77,64
66160,note_off,40,0,2,,,,,,,,2,,,,77,64
66180,note_on,20,0,1,,,,,,,,1,,,,74,92
66180,note_on,20,0,2,,,,,,,,2,,,,74,75
66240,note_off,60,0,1,,,,,,,,1,,,,74,64
66240,note_off,60,0,2,,,,,,,,2,,,,74,64
66240,note_on,0,0,1,,,,,,,,1,,,,72,92
66240,note_on,0,0,2,,,,,,,,2,,,,72,75
66300,note_off,60,0,2,,,,,,,,2,,,,72,64
66300,note_on,0,0,2,,,,,,,,2,,,,74,75
66300,note_on,0,0,1,,,,,,,,1,,,,74,92
66300,note_off,60,0,1,,,,,,,,1,,,,72,64
66340,note_off,40,0,2,,,,,,,,2,,,,74,64
66340,note_off,40,0,1,,,,,,,,1,,,,74,64
66360,note_on,560,0,3,,,,,,,,3,,,,83,92
66360,note_on,560,0,11,,,,,,,,12,,,,55,75
66360,note_on,560,0,9,,,,,,,,10,,,,77,75
66360,note_on,560,0,4,,,,,,,,4,,,,77,92
66360,note_on,560,0,6,,,,,,,,6,,,,55,92
66360,note_on,560,0,10,,,,,,,,11,,,,62,75
66360,note_on,560,0,8,,,,,,,,8,,,,83,75
66360,note_on,560,0,5,,,,,,,,5,,,,62,92
66360,note_on,560,0,13,,,,,,,,14,,,,43,60
66360,note_on,560,0,12,,,,,,,,13,,,,43,75
66360,note_on,560,0,7,,,,,,,,7,,,,43,92
66400,note_off,40,0,10,,,,,,,,11,,,,62,64
66400,note_off,40,0,3,,,,,,,,3,,,,83,64
66400,note_off,40,0,5,,,,,,,,5,,,,62,64
66400,note_off,40,0,9,,,,,,,,10,,,,77,64
66400,note_off,40,0,4,,,,,,,,4,,,,77,64
66400,note_off,40,0,8,,,,,,,,8,,,,83,64
66420,note_on,20,0,3,,,,,,,,3,,,,83,92
66420,note_on,20,0,9,,,,,,,,10,,,,77,75
66420,note_on,20,0,10,,,,,,,,11,,,,62,75
66420,note_on,20,0,5,,,,,,,,5,,,,62,92
66420,note_on,20,0,8,,,,,,,,8,,,,83,75
66420,note_on,20,0,4,,,,,,,,4,,,,77,92
66440,note_off,80,0,11,,,,,,,,12,,,,55,64
66440,note_off,80,0,12,,,,,,,,13,,,,43,64
66440,note_off,80,0,7,,,,,,,,7,,,,43,64
66440,note_off,80,0,6,,,,,,,,6,,,,55,64
66460,note_off,40,0,10,,,,,,,,11,,,,62,64
66460,note_off,40,0,8,,,,,,,,8,,,,83,64
66460,note_off,40,0,4,,,,,,,,4,,,,77,64
66460,note_off,40,0,3,,,,,,,,3,,,,83,64
66460,note_off,40,0,5,,,,,,,,5,,,,62,64
66460,note_off,40,0,9,,,,,,,,10,,,,77,64
66480,note_on,20,0,8,,,,,,,,8,,,,83,75
66480,note_on,20,0,5,,,,,,,,5,,,,62,92
66480,note_on,20,0,3,,,,,,,,3,,,,83,92
66480,note_on,20,0,4,,,,,,,,4,,,,77,92
66480,note_on,20,0,10,,,,,,,,11,,,,62,75
66480,note_on,20,0,9,,,,,,,,10,,,,77,75
66520,note_off,40,0,9,,,,,,,,10,,,,77,64
66520,note_off,40,0,3,,,,,,,,3,,,,83,64
66520,note_off,40,0,5,,,,,,,,5,,,,62,64
66520,note_off,40,0,10,,,,,,,,11,,,,62,64
66520,note_off,40,0,4,,,,,,,,4,,,,77,64
66520,note_off,40,0,8,,,,,,,,8,,,,83,64
66540,note_on,20,0,5,,,,,,,,5,,,,62,92
66540,note_on,20,0,10,,,,,,,,11,,,,62,75
66540,note_on,20,0,4,,,,,,,,4,,,,77,92
66540,note_on,20,0,3,,,,,,,,3,,,,83,92
66540,note_on,20,0,8,,,,,,,,8,,,,83,75
66540,note_on,20,0,9,,,,,,,,10,,,,77,75
66580,note_off,40,0,9,,,,,,,,10,,,,77,64
66580,note_off,40,0,4,,,,,,,,4,,,,77,64
66580,note_off,40,0,8,,,,,,,,8,,,,83,64
66580,note_off,40,0,10,,,,,,,,11,,,,62,64
66580,note_off,40,0,3,,,,,,,,3,,,,83,64
66580,note_off,40,0,5,,,,,,,,5,,,,62,64
66595,note_off,235,0,13,,,,,,,,14,,,,43,64
66600,note_on,160,0,12,,,,,,,,13,,,,43,75
66600,note_on,20,0,4,,,,,,,,4,,,,77,92
66600,note_on,5,0,13,,,,,,,,14,,,,43,60
66600,note_on,160,0,11,,,,,,,,12,,,,55,75
66600,note_on,20,0,8,,,,,,,,8,,,,83,75
66600,note_on,20,0,3,,,,,,,,3,,,,83,92
66600,note_on,160,0,7,,,,,,,,7,,,,43,92
66600,note_on,20,0,10,,,,,,,,11,,,,62,75
66600,note_on,20,0,9,,,,,,,,10,,,,77,75
66600,note_on,160,0,6,,,,,,,,6,,,,55,92
66600,note_on,20,0,5,,,,,,,,5,,,,62,92
66640,note_off,40,0,10,,,,,,,,11,,,,62,64
66640,note_off,40,0,9,,,,,,,,10,,,,77,64
66640,note_off,40,0,8,,,,,,,,8,,,,83,64
66640,note_off,40,0,5,,,,,,,,5,,,,62,64
66640,note_off,40,0,4,,,,,,,,4,,,,77,64
66640,note_off,40,0,3,,,,,,,,3,,,,83,64
66660,note_on,20,0,8,,,,,,,,8,,,,83,75
66660,note_on,20,0,9,,,,,,,,10,,,,77,75
66660,note_on,20,0,4,,,,,,,,4,,,,77,92
66660,note_on,20,0,3,,,,,,,,3,,,,83,92
66660,note_on,20,0,5,,,,,,,,5,,,,62,92
66660,note_on,20,0,10,,,,,,,,11,,,,62,75
66680,note_off,80,0,12,,,,,,,,13,,,,43,64
66680,note_off,80,0,6,,,,,,,,6,,,,55,64
66680,note_off,80,0,11,,,,,,,,12,,,,55,64
66680,note_off,80,0,7,,,,,,,,7,,,,43,64
66700,note_off,40,0,10,,,,,,,,11,,,,62,64
66700,note_off,40,0,9,,,,,,,,10,,,,77,64
66700,note_off,40,0,8,,,,,,,,8,,,,83,64
66700,note_off,40,0,3,,,,,,,,3,,,,83,64
66700,note_off,40,0,5,,,,,,,,5,,,,62,64
66700,note_off,40,0,4,,,,,,,,4,,,,77,64
66720,note_on,20,0,4,,,,,,,,4,,,,77,92
66720,note_on,20,0,9,,,,,,,,10,,,,77,75
66720,note_on,20,0,8,,,,,,,,8,,,,83,75
66720,note_on,20,0,3,,,,,,,,3,,,,83,92
66720,note_on,20,0,10,,,,,,,,11,,,,62,75
66720,note_on,20,0,5,,,,,,,,5,,,,62,92
66760,note_off,40,0,8,,,,,,,,8,,,,83,64
66760,note_off,40,0,3,,,,,,,,3,,,,83,64
66760,note_off,40,0,10,,,,,,,,11,,,,62,64
66760,note_off,40,0,9,,,,,,,,10,,,,77,64
66760,note_off,40,0,5,,,,,,,,5,,,,62,64
66760,note_off,40,0,4,,,,,,,,4,,,,77,64
66780,note_on,20,0,4,,,,,,,,4,,,,77,92
66780,note_on,20,0,8,,,,,,,,8,,,,83,75
66780,note_on,20,0,9,,,,,,,,10,,,,77,75
66780,note_on,20,0,10,,,,,,,,11,,,,62,75
66780,note_on,20,0,5,,,,,,,,5,,,,62,92
66780,note_on,20,0,3,,,,,,,,3,,,,83,92
66820,note_off,40,0,3,,,,,,,,3,,,,83,64
66820,note_off,40,0,9,,,,,,,,10,,,,77,64
66820,note_off,40,0,5,,,,,,,,5,,,,62,64
66820,note_off,40,0,10,,,,,,,,11,,,,62,64
66820,note_off,40,0,4,,,,,,,,4,,,,77,64
66820,note_off,40,0,8,,,,,,,,8,,,,83,64
66835,note_off,235,0,13,,,,,,,,14,,,,43,64
66840,note_on,20,0,8,,,,,,,,8,,,,83,75
66840,note_on,20,0,10,,,,,,,,11,,,,59,75
66840,note_on,160,0,12,,,,,,,,13,,,,43,75
66840,note_on,160,0,6,,,,,,,,6,,,,55,92
66840,note_on,20,0,4,,,,,,,,4,,,,77,92
66840,note_on,20,0,3,,,,,,,,3,,,,83,92
66840,note_on,20,0,5,,,,,,,,5,,,,59,92
66840,note_on,160,0,7,,,,,,,,7,,,,43,92
66840,note_on,5,0,13,,,,,,,,14,,,,43,60
66840,note_on,160,0,11,,,,,,,,12,,,,55,75
66840,note_on,20,0,9,,,,,,,,10,,,,77,75
66880,note_off,40,0,10,,,,,,,,11,,,,59,64
66880,note_off,40,0,8,,,,,,,,8,,,,83,64
66880,note_off,40,0,9,,,,,,,,10,,,,77,64
66880,note_off,40,0,3,,,,,,,,3,,,,83,64
66880,note_off,40,0,4,,,,,,,,4,,,,77,64
66880,note_off,40,0,5,,,,,,,,5,,,,59,64
66900,note_on,20,0,10,,,,,,,,11,,,,59,75
66900,note_on,20,0,8,,,,,,,,8,,,,83,75
66900,note_on,20,0,5,,,,,,,,5,,,,59,92
66900,note_on,20,0,3,,,,,,,,3,,,,83,92
66900,note_on,20,0,4,,,,,,,,4,,,,77,92
66900,note_on,20,0,9,,,,,,,,10,,,,77,75
66920,note_off,80,0,11,,,,,,,,12,,,,55,64
66920,note_off,80,0,7,,,,,,,,7,,,,43,64
66920,note_off,80,0,12,,,,,,,,13,,,,43,64
66920,note_off,80,0,6,,,,,,,,6,,,,55,64
66940,note_off,40,0,5,,,,,,,,5,,,,59,64
66940,note_off,40,0,10,,,,,,,,11,,,,59,64
66940,note_off,40,0,4,,,,,,,,4,,,,77,64
66940,note_off,40,0,8,,,,,,,,8,,,,83,64
66940,note_off,40,0,9,,,,,,,,10,,,,77,64
66940,note_off,40,0,3,,,,,,,,3,,,,83,64
66960,note_on,20,0,10,,,,,,,,11,,,,59,75
66960,note_on,20,0,9,,,,,,,,10,,,,77,75
66960,note_on,20,0,8,,,,,,,,8,,,,83,75
66960,note_on,20,0,4,,,,,,,,4,,,,77,92
66960,note_on,20,0,5,,,,,,,,5,,,,59,92
66960,note_on,20,0,3,,,,,,,,3,,,,83,92
67000,note_off,40,0,9,,,,,,,,10,,,,77,64
67000,note_off,40,0,4,,,,,,,,4,,,,77,64
67000,note_off,40,0,8,,,,,,,,8,,,,83,64
67000,note_off,40,0,5,,,,,,,,5,,,,59,64
67000,note_off,40,0,3,,,,,,,,3,,,,83,64
67000,note_off,40,0,10,,,,,,,,11,,,,59,64
67020,note_on,20,0,9,,,,,,,,10,,,,77,75
67020,note_on,20,0,5,,,,,,,,5,,,,59,92
67020,note_on,20,0,10,,,,,,,,11,,,,59,75
67020,note_on,20,0,4,,,,,,,,4,,,,77,92
67020,note_on,20,0,3,,,,,,,,3,,,,83,92
67020,note_on,20,0,8,,,,,,,,8,,,,83,75
67060,note_off,40,0,5,,,,,,,,5,,,,59,64
67060,note_off,40,0,3,,,,,,,,3,,,,83,64
67060,note_off,40,0,8,,,,,,,,8,,,,83,64
67060,note_off,40,0,9,,,,,,,,10,,,,77,64
67060,note_off,40,0,10,,,,,,,,11,,,,59,64
67060,note_off,40,0,4,,,,,,,,4,,,,77,64
67075,note_off,235,0,13,,,,,,,,14,,,,43,64
67080,note_on,20,0,8,,,,,,,,8,,,,83,75
67080,note_on,20,0,9,,,,,,,,10,,,,77,75
67080,note_on,160,0,7,,,,,,,,7,,,,43,92
67080,note_on,160,0,6,,,,,,,,6,,,,55,92
67080,note_on,20,0,5,,,,,,,,5,,,,59,92
67080,note_on,20,0,10,,,,,,,,11,,,,59,75
67080,note_on,5,0,13,,,,,,,,14,,,,43,60
67080,note_on,160,0,12,,,,,,,,13,,,,43,75
67080,note_on,20,0,4,,,,,,,,4,,,,77,92
67080,note_on,160,0,11,,,,,,,,12,,,,55,75
67080,note_on,20,0,3,,,,,,,,3,,,,83,92
67120,note_off,40,0,10,,,,,,,,11,,,,59,64
67120,note_off,40,0,3,,,,,,,,3,,,,83,64
67120,note_off,40,0,8,,,,,,,,8,,,,83,64
67120,note_off,40,0,9,,,,,,,,10,,,,77,64
67120,note_off,40,0,5,,,,,,,,5,,,,59,64
67120,note_off,40,0,4,,,,,,,,4,,,,77,64
67140,note_on,20,0,3,,,,,,,,3,,,,83,92
67140,note_on,20,0,5,,,,,,,,5,,,,59,92
67140,note_on,20,0,8,,,,,,,,8,,,,83,75
67140,note_on,20,0,9,,,,,,,,10,,,,77,75
67140,note_on,20,0,4,,,,,,,,4,,,,77,92
67140,note_on,20,0,10,,,,,,,,11,,,,59,75
67160,note_off,80,0,7,,,,,,,,7,,,,43,64
67160,note_off,80,0,6,,,,,,,,6,,,,55,64
67160,note_off,80,0,11,,,,,,,,12,,,,55,64
67160,note_off,80,0,12,,,,,,,,13,,,,43,64
67180,note_off,40,0,4,,,,,,,,4,,,,77,64
67180,note_off,40,0,8,,,,,,,,8,,,,83,64
67180,note_off,40,0,9,,,,,,,,10,,,,77,64
67180,note_off,40,0,10,,,,,,,,11,,,,59,64
67180,note_off,40,0,3,,,,,,,,3,,,,83,64
67180,note_off,40,0,5,,,,,,,,5,,,,59,64
67200,note_on,20,0,9,,,,,,,,10,,,,77,75
67200,note_on,20,0,5,,,,,,,,5,,,,59,92
67200,note_on,20,0,10,,,,,,,,11,,,,59,75
67200,note_on,20,0,8,,,,,,,,8,,,,83,75
67200,note_on,20,0,4,,,,,,,,4,,,,77,92
67200,note_on,20,0,3,,,,,,,,3,,,,83,92
67240,note_off,40,0,9,,,,,,,,10,,,,77,64
67240,note_off,40,0,5,,,,,,,,5,,,,59,64
67240,note_off,40,0,4,,,,,,,,4,,,,77,64
67240,note_off,40,0,8,,,,,,,,8,,,,83,64
67240,note_off,40,0,3,,,,,,,,3,,,,83,64
67240,note_off,40,0,10,,,,,,,,11,,,,59,64
67260,note_on,20,0,9,,,,,,,,10,,,,77,75
67260,note_on,20,0,10,,,,,,,,11,,,,59,75
67260,note_on,20,0,8,,,,,,,,8,,,,83,75
67260,note_on,20,0,3,,,,,,,,3,,,,83,92
67260,note_on,20,0,4,,,,,,,,4,,,,77,92
67260,note_on,20,0,5,,,,,,,,5,,,,59,92
67300,note_off,40,0,9,,,,,,,,10,,,,77,64
67300,note_off,40,0,4,,,,,,,,4,,,,77,64
67300,note_off,40,0,3,,,,,,,,3,,,,83,64
67300,note_off,40,0,5,,,,,,,,5,,,,59,64
67300,note_off,40,0,8,,,,,,,,8,,,,83,64
67300,note_off,40,0,10,,,,,,,,11,,,,59,64
67315,note_off,235,0,13,,,,,,,,14,,,,43,64
67320,note_on,5,0,13,,,,,,,,14,,,,36,60
67320,note_on,20,0,5,,,,,,,,5,,,,55,45
67320,note_on,20,0,10,,,,,,,,11,,,,55,45
67320,note_on,160,0,7,,,,,,,,7,,,,36,45
67320,note_on,160,0,11,,,,,,,,12,,,,48,45
67320,note_on,20,0,4,,,,,,,,4,,,,75,45
67320,note_on,20,0,8,,,,,,,,8,,,,84,45
67320,note_on,20,0,3,,,,,,,,3,,,,84,45
67320,note_on,160,0,12,,,,,,,,13,,,,36,45
67320,note_on,20,0,9,,,,,,,,10,,,,75,45
67320,note_on,160,0,6,,,,,,,,6,,,,48,45
67380,note_on,1040,0,2,,,,,,,,2,,,,75,75
67380,note_on,1040,0,1,,,,,,,,1,,,,75,92
67440,note_on,0,0,1,,,,,,,,1,,,,74,92
67440,note_off,60,0,2,,,,,,,,2,,,,75,64
67440,note_off,60,0,1,,,,,,,,1,,,,75,64
67440,note_on,0,0,2,,,,,,,,2,,,,74,75
67500,note_on,0,0,2,,,,,,,,2,,,,75,75
67500,note_off,60,0,2,,,,,,,,2,,,,74,64
67500,note_off,60,0,1,,,,,,,,1,,,,74,64
67500,note_on,0,0,1,,,,,,,,1,,,,75,92
67540,note_off,40,0,2,,,,,,,,2,,,,75,64
67540,note_off,40,0,1,,,,,,,,1,,,,75,64
67560,note_on,20,0,1,,,,,,,,1,,,,79,92
67560,note_on,20,0,2,,,,,,,,2,,,,79,75
67600,note_off,40,0,2,,,,,,,,2,,,,79,64
67600,note_off,40,0,1,,,,,,,,1,,,,79,64
67620,note_on,20,0,2,,,,,,,,2,,,,75,75
67620,note_on,20,0,1,,,,,,,,1,,,,75,92
67680,note_off,60,0,1,,,,,,,,1,,,,75,64
67680,note_on,0,0,2,,,,,,,,2,,,,74,75
67680,note_on,0,0,1,,,,,,,,1,,,,74,92
67680,note_off,60,0,2,,,,,,,,2,,,,75,64
67720,note_off,400,0,4,,,,,,,,4,,,,75,64
67720,note_off,400,0,9,,,,,,,,10,,,,75,64
67720,note_off,400,0,8,,,,,,,,8,,,,84,64
67720,note_off,400,0,12,,,,,,,,13,,,,36,64
67720,note_off,400,0,3,,,,,,,,3,,,,84,64
67720,note_off,400,0,5,,,,,,,,5,,,,55,64
67720,note_off,400,0,7,,,,,,,,7,,,,36,64
67720,note_off,400,0,10,,,,,,,,11,,,,55,64
67720,note_off,400,0,11,,,,,,,,12,,,,48,64
67720,note_off,400,0,13,,,,,,,,14,,,,36,64
67720,note_off,400,0,6,,,,,,,,6,,,,48,64
67740,note_off,60,0,1,,,,,,,,1,,,,74,64
67740,note_on,0,0,1,,,,,,,,1,,,,75,92
67740,note_on,0,0,2,,,,,,,,2,,,,75,75
67740,note_off,60,0,2,,,,,,,,2,,,,74,64
67780,note_off,40,0,1,,,,,,,,1,,,,75,64
67780,note_off,40,0,2,,,,,,,,2,,,,75,64
67800,note_on,20,0,2,,,,,,,,2,,,,84,75
67800,note_on,20,0,1,,,,,,,,1,,,,84,92
67840,note_off,40,0,2,,,,,,,,2,,,,84,64
67840,note_off,40,0,1,,,,,,,,1,,,,84,64
67860,note_on,20,0,1,,,,,,,,1,,,,75,92
67860,note_on,20,0,2,,,,,,,,2,,,,75,75
67920,note_off,60,0,2,,,,,,,,2,,,,75,64
67920,note_on,0,0,2,,,,,,,,2,,,,74,75
67920,note_off,60,0,1,,,,,,,,1,,,,75,64
67920,note_on,0,0,1,,,,,,,,1,,,,74,92
67980,note_on,0,0,2,,,,,,,,2,,,,75,75
67980,note_off,60,0,1,,,,,,,,1,,,,74,64
67980,note_off,60,0,2,,,,,,,,2,,,,74,64
67980,note_on,0,0,1,,,,,,,,1,,,,75,92
68020,note_off,40,0,1,,,,,,,,1,,,,75,64
68020,note_off,40,0,2,,,,,,,,2,,,,75,64
68040,note_on,20,0,1,,,,,,,,1,,,,79,92
68040,note_on,20,0,2,,,,,,,,2,,,,79,75
68080,note_off,40,0,1,,,,,,,,1,,,,79,64
68080,note_off,40,0,2,,,,,,,,2,,,,79,64
68100,note_on,20,0,1,,,,,,,,1,,,,75,92
68100,note_on,20,0,2,,,,,,,,2,,,,75,75
68160,note_on,0,0,1,,,,,,,,1,,,,74,92
68160,note_on,0,0,2,,,,,,,,2,,,,74,75
68160,note_off,60,0,1,,,,,,,,1,,,,75,64
68160,note_off,60,0,2,,,,,,,,2,,,,75,64
68220,note_off,60,0,1,,,,,,,,1,,,,74,64
68220,note_off,60,0,2,,,,,,,,2,,,,74,64
68220,note_on,0,0,2,,,,,,,,2,,,,72,75
68220,note_on,0,0,1,,,,,,,,1,,,,72,92
68260,note_off,40,0,2,,,,,,,,2,,,,72,64
68260,note_off,40,0,1,,,,,,,,1,,,,72,64
68280,note_on,560,0,6,,,,,,,,6,,,,46,92
68280,note_on,560,0,11,,,,,,,,12,,,,46,75
68280,note_on,560,0,5,,,,,,,,5,,,,65,92
68280,note_on,560,0,10,,,,,,,,11,,,,65,75
68280,note_on,560,0,3,,,,,,,,3,,,,74,92
68280,note_on,560,0,9,,,,,,,,10,,,,68,75
68280,note_on,560,0,8,,,,,,,,8,,,,74,75
68280,note_on,560,0,12,,,,,,,,13,,,,34,75
68280,note_on,560,0,7,,,,,,,,7,,,,34,92
68280,note_on,560,0,13,,,,,,,,14,,,,34,60
68280,note_on,560,0,4,,,,,,,,4,,,,68,92
68320,note_off,40,0,5,,,,,,,,5,,,,65,64
68320,note_off,40,0,8,,,,,,,,8,,,,74,64
68320,note_off,40,0,3,,,,,,,,3,,,,74,64
68320,note_off,40,0,4,,,,,,,,4,,,,68,64
68320,note_off,40,0,9,,,,,,,,10,,,,68,64
68320,note_off,40,0,10,,,,,,,,11,,,,65,64
68340,note_on,20,0,8,,,,,,,,8,,,,74,75
68340,note_on,20,0,10,,,,,,,,11,,,,65,75
68340,note_on,20,0,3,,,,,,,,3,,,,74,92
68340,note_on,20,0,9,,,,,,,,10,,,,68,75
68340,note_on,20,0,4,,,,,,,,4,,,,68,92
68340,note_on,20,0,5,,,,,,,,5,,,,65,92
68360,note_off,80,0,11,,,,,,,,12,,,,46,64
68360,note_off,80,0,7,,,,,,,,7,,,,34,64
68360,note_off,80,0,12,,,,,,,,13,,,,34,64
68360,note_off,80,0,6,,,,,,,,6,,,,46,64
68380,note_off,40,0,8,,,,,,,,8,,,,74,64
68380,note_off,40,0,9,,,,,,,,10,,,,68,64
68380,note_off,40,0,4,,,,,,,,4,,,,68,64
68380,note_off,40,0,3,,,,,,,,3,,,,74,64
68380,note_off,40,0,10,,,,,,,,11,,,,65,64
68380,note_off,40,0,5,,,,,,,,5,,,,65,64
68400,note_on,20,0,5,,,,,,,,5,,,,65,92
68400,note_on,20,0,4,,,,,,,,4,,,,68,92
68400,note_on,20,0,10,,,,,,,,11,,,,65,75
68400,note_on,20,0,8,,,,,,,,8,,,,74,75
68400,note_on,20,0,3,,,,,,,,3,,,,74,92
68400,note_on,20,0,9,,,,,,,,10,,,,68,75
68440,note_off,40,0,8,,,,,,,,8,,,,74,64
68440,note_off,40,0,4,,,,,,,,4,,,,68,64
68440,note_off,40,0,3,,,,,,,,3,,,,74,64
68440,note_off,40,0,10,,,,,,,,11,,,,65,64
68440,note_off,40,0,5,,,,,,,,5,,,,65,64
68440,note_off,40,0,9,,,,,,,,10,,,,68,64
68460,note_on,20,0,9,,,,,,,,10,,,,68,75
68460,note_on,20,0,8,,,,,,,,8,,,,74,75
68460,note_on,20,0,10,,,,,,,,11,,,,65,75
68460,note_on,20,0,3,,,,,,,,3,,,,74,92
68460,note_on,20,0,4,,,,,,,,4,,,,68,92
68460,note_on,20,0,5,,,,,,,,5,,,,65,92
68500,note_off,40,0,8,,,,,,,,8,,,,74,64
68500,note_off,40,0,10,,,,,,,,11,,,,65,64
68500,note_off,40,0,5,,,,,,,,5,,,,65,64
68500,note_off,40,0,4,,,,,,,,4,,,,68,64
68500,note_off,40,0,3,,,,,,,,3,,,,74,64
68500,note_off,40,0,9,,,,,,,,10,,,,68,64
68515,note_off,235,0,13,,,,,,,,14,,,,34,64
68520,note_on,20,0,4,,,,,,,,4,,,,68,92
68520,note_on,160,0,7,,,,,,,,7,,,,34,92
68520,note_on,20,0,8,,,,,,,,8,,,,74,75
68520,note_on,20,0,10,,,,,,,,11,,,,65,75
68520,note_on,160,0,6,,,,,,,,6,,,,46,92
68520,note_on,20,0,5,,,,,,,,5,,,,65,92
68520,note_on,20,0,9,,,,,,,,10,,,,68,75
68520,note_on,5,0,13,,,,,,,,14,,,,34,60
68520,note_on,160,0,12,,,,,,,,13,,,,34,75
68520,note_on,20,0,3,,,,,,,,3,,,,74,92
68520,note_on,160,0,11,,,,,,,,12,,,,46,75
68560,note_off,40,0,5,,,,,,,,5,,,,65,64
68560,note_off,40,0,10,,,,,,,,11,,,,65,64
68560,note_off,40,0,8,,,,,,,,8,,,,74,64
68560,note_off,40,0,3,,,,,,,,3,,,,74,64
68560,note_off,40,0,9,,,,,,,,10,,,,68,64
68560,note_off,40,0,4,,,,,,,,4,,,,68,64
68580,note_on,20,0,9,,,,,,,,10,,,,68,75
68580,note_on,20,0,3,,,,,,,,3,,,,74,92
68580,note_on,20,0,10,,,,,,,,11,,,,65,75
68580,note_on,20,0,4,,,,,,,,4,,,,68,92
68580,note_on,20,0,5,,,,,,,,5,,,,65,92
68580,note_on,20,0,8,,,,,,,,8,,,,74,75
68600,note_off,80,0,12,,,,,,,,13,,,,34,64
68600,note_off,80,0,11,,,,,,,,12,,,,46,64
68600,note_off,80,0,7,,,,,,,,7,,,,34,64
68600,note_off,80,0,6,,,,,,,,6,,,,46,64
68620,note_off,40,0,3,,,,,,,,3,,,,74,64
68620,note_off,40,0,8,,,,,,,,8,,,,74,64
68620,note_off,40,0,9,,,,,,,,10,,,,68,64
68620,note_off,40,0,4,,,,,,,,4,,,,68,64
68620,note_off,40,0,5,,,,,,,,5,,,,65,64
68620,note_off,40,0,10,,,,,,,,11,,,,65,64
68640,note_on,20,0,9,,,,,,,,10,,,,68,75
68640,note_on,20,0,10,,,,,,,,11,,,,65,75
68640,note_on,20,0,4,,,,,,,,4,,,,68,92
68640,note_on,20,0,5,,,,,,,,5,,,,65,92
68640,note_on,20,0,8,,,,,,,,8,,,,74,75
68640,note_on,20,0,3,,,,,,,,3,,,,74,92
68680,note_off,40,0,3,,,,,,,,3,,,,74,64
68680,note_off,40,0,4,,,,,,,,4,,,,68,64
68680,note_off,40,0,10,,,,,,,,11,,,,65,64
68680,note_off,40,0,9,,,,,,,,10,,,,68,64
68680,note_off,40,0,8,,,,,,,,8,,,,74,64
68680,note_off,40,0,5,,,,,,,,5,,,,65,64
68700,note_on,20,0,9,,,,,,,,10,,,,68,75
68700,note_on,20,0,10,,,,,,,,11,,,,65,75
68700,note_on,20,0,8,,,,,,,,8,,,,74,75
68700,note_on,20,0,4,,,,,,,,4,,,,68,92
68700,note_on,20,0,5,,,,,,,,5,,,,65,92
68700,note_on,20,0,3,,,,,,,,3,,,,74,92
68740,note_off,40,0,5,,,,,,,,5,,,,65,64
68740,note_off,40,0,3,,,,,,,,3,,,,74,64
68740,note_off,40,0,9,,,,,,,,10,,,,68,64
68740,note_off,40,0,8,,,,,,,,8,,,,74,64
68740,note_off,40,0,4,,,,,,,,4,,,,68,64
68740,note_off,40,0,10,,,,,,,,11,,,,65,64
68755,note_off,235,0,13,,,,,,,,14,,,,34,64
68760,note_on,160,0,11,,,,,,,,12,,,,46,75
68760,note_on,160,0,7,,,,,,,,7,,,,34,92
68760,note_on,160,0,6,,,,,,,,6,,,,46,92
68760,note_on,20,0,10,,,,,,,,11,,,,62,75
68760,note_on,20,0,9,,,,,,,,10,,,,68,75
68760,note_on,20,0,5,,,,,,,,5,,,,62,92
68760,note_on,20,0,4,,,,,,,,4,,,,68,92
68760,note_on,5,0,13,,,,,,,,14,,,,34,60
68760,note_on,160,0,12,,,,,,,,13,,,,34,75
68760,note_on,20,0,3,,,,,,,,3,,,,74,92
68760,note_on,20,0,8,,,,,,,,8,,,,74,75
68800,note_off,40,0,10,,,,,,,,11,,,,62,64
68800,note_off,40,0,5,,,,,,,,5,,,,62,64
68800,note_off,40,0,4,,,,,,,,4,,,,68,64
68800,note_off,40,0,9,,,,,,,,10,,,,68,64
68800,note_off,40,0,3,,,,,,,,3,,,,74,64
68800,note_off,40,0,8,,,,,,,,8,,,,74,64
68820,note_on,20,0,5,,,,,,,,5,,,,62,92
68820,note_on,20,0,4,,,,,,,,4,,,,68,92
68820,note_on,20,0,9,,,,,,,,10,,,,68,75
68820,note_on,20,0,3,,,,,,,,3,,,,74,92
68820,note_on,20,0,8,,,,,,,,8,,,,74,75
68820,note_on,20,0,10,,,,,,,,11,,,,62,75
68840,note_off,80,0,7,,,,,,,,7,,,,34,64
68840,note_off,80,0,12,,,,,,,,13,,,,34,64
68840,note_off,80,0,6,,,,,,,,6,,,,46,64
68840,note_off,80,0,11,,,,,,,,12,,,,46,64
68860,note_off,40,0,9,,,,,,,,10,,,,68,64
68860,note_off,40,0,8,,,,,,,,8,,,,74,64
68860,note_off,40,0,5,,,,,,,,5,,,,62,64
68860,note_off,40,0,3,,,,,,,,3,,,,74,64
68860,note_off,40,0,10,,,,,,,,11,,,,62,64
68860,note_off,40,0,4,,,,,,,,4,,,,68,64
68880,note_on,20,0,5,,,,,,,,5,,,,62,92
68880,note_on,20,0,10,,,,,,,,11,,,,62,75
68880,note_on,20,0,4,,,,,,,,4,,,,68,92
68880,note_on,20,0,9,,,,,,,,10,,,,68,75
68880,note_on,20,0,8,,,,,,,,8,,,,74,75
68880,note_on,20,0,3,,,,,,,,3,,,,74,92
68920,note_off,40,0,5,,,,,,,,5,,,,62,64
68920,note_off,40,0,8,,,,,,,,8,,,,74,64
68920,note_off,40,0,9,,,,,,,,10,,,,68,64
68920,note_off,40,0,3,,,,,,,,3,,,,74,64
68920,note_off,40,0,10,,,,,,,,11,,,,62,64
68920,note_off,40,0,4,,,,,,,,4,,,,68,64
68940,note_on,20,0,4,,,,,,,,4,,,,68,92
68940,note_on,20,0,8,,,,,,,,8,,,,74,75
68940,note_on,20,0,5,,,,,,,,5,,,,62,92
68940,note_on,20,0,9,,,,,,,,10,,,,68,75
68940,note_on,20,0,10,,,,,,,,11,,,,62,75
68940,note_on,20,0,3,,,,,,,,3,,,,74,92
68980,note_off,40,0,8,,,,,,,,8,,,,74,64
68980,note_off,40,0,10,,,,,,,,11,,,,62,64
68980,note_off,40,0,5,,,,,,,,5,,,,62,64
68980,note_off,40,0,3,,,,,,,,3,,,,74,64
68980,note_off,40,0,4,,,,,,,,4,,,,68,64
68980,note_off,40,0,9,,,,,,,,10,,,,68,64
68995,note_off,235,0,13,,,,,,,,14,,,,34,64
69000,note_on,20,0,9,,,,,,,,10,,,,68,75
69000,note_on,160,0,12,,,,,,,,13,,,,34,75
69000,note_on,20,0,10,,,,,,,,11,,,,62,75
69000,note_on,20,0,3,,,,,,,,3,,,,74,92
69000,note_on,20,0,5,,,,,,,,5,,,,62,92
69000,note_on,160,0,6,,,,,,,,6,,,,46,92
69000,note_on,160,0,11,,,,,,,,12,,,,46,75
69000,note_on,5,0,13,,,,,,,,14,,,,34,60
69000,note_on,160,0,7,,,,,,,,7,,,,34,92
69000,note_on,20,0,8,,,,,,,,8,,,,74,75
69000,note_on,20,0,4,,,,,,,,4,,,,68,92
69040,note_off,40,0,4,,,,,,,,4,,,,68,64
69040,note_off,40,0,9,,,,,,,,10,,,,68,64
69040,note_off,40,0,5,,,,,,,,5,,,,62,64
69040,note_off,40,0,8,,,,,,,,8,,,,74,64
69040,note_off,40,0,10,,,,,,,,11,,,,62,64
69040,note_off,40,0,3,,,,,,,,3,,,,74,64
69060,note_on,20,0,9,,,,,,,,10,,,,68,75
69060,note_on,20,0,5,,,,,,,,5,,,,62,92
69060,note_on,20,0,4,,,,,,,,4,,,,68,92
69060,note_on,20,0,3,,,,,,,,3,,,,74,92
69060,note_on,20,0,8,,,,,,,,8,,,,74,75
69060,note_on,20,0,10,,,,,,,,11,,,,62,75
69080,note_off,80,0,7,,,,,,,,7,,,,34,64
69080,note_off,80,0,12,,,,,,,,13,,,,34,64
69080,note_off,80,0,11,,,,,,,,12,,,,46,64
69080,note_off,80,0,6,,,,,,,,6,,,,46,64
69100,note_off,40,0,10,,,,,,,,11,,,,62,64
69100,note_off,40,0,3,,,,,,,,3,,,,74,64
69100,note_off,40,0,5,,,,,,,,5,,,,62,64
69100,note_off,40,0,4,,,,,,,,4,,,,68,64
69100,note_off,40,0,8,,,,,,,,8,,,,74,64
69100,note_off,40,0,9,,,,,,,,10,,,,68,64
69120,note_on,20,0,3,,,,,,,,3,,,,74,92
69120,note_on,20,0,10,,,,,,,,11,,,,62,75
69120,note_on,20,0,9,,,,,,,,10,,,,68,75
69120,note_on,20,0,8,,,,,,,,8,,,,74,75
69120,note_on,20,0,5,,,,,,,,5,,,,62,92
69120,note_on,20,0,4,,,,,,,,4,,,,68,92
69160,note_off,40,0,3,,,,,,,,3,,,,74,64
69160,note_off,40,0,8,,,,,,,,8,,,,74,64
69160,note_off,40,0,4,,,,,,,,4,,,,68,64
69160,note_off,40,0,5,,,,,,,,5,,,,62,64
69160,note_off,40,0,10,,,,,,,,11,,,,62,64
69160,note_off,40,0,9,,,,,,,,10,,,,68,64
69180,note_on,20,0,4,,,,,,,,4,,,,68,92
69180,note_on,20,0,10,,,,,,,,11,,,,62,75
69180,note_on,20,0,5,,,,,,,,5,,,,62,92
69180,note_on,20,0,3,,,,,,,,3,,,,74,92
69180,note_on,20,0,9,,,,,,,,10,,,,68,75
69180,note_on,20,0,8,,,,,,,,8,,,,74,75
69220,note_off,40,0,4,,,,,,,,4,,,,68,64
69220,note_off,40,0,5,,,,,,,,5,,,,62,64
69220,note_off,40,0,3,,,,,,,,3,,,,74,64
69220,note_off,40,0,8,,,,,,,,8,,,,74,64
69220,note_off,40,0,9,,,,,,,,10,,,,68,64
69220,note_off,40,0,10,,,,,,,,11,,,,62,64
69235,note_off,235,0,13,,,,,,,,14,,,,34,64
69240,note_on,20,0,10,,,,,,,,11,,,,58,45
69240,note_on,980,0,1,,,,,,,,1,,,,75,92
69240,note_on,5,0,13,,,,,,,,14,,,,39,60
69240,note_on,160,0,11,,,,,,,,12,,,,51,45
69240,note_on,20,0,8,,,,,,,,8,,,,75,45
69240,note_on,160,0,6,,,,,,,,6,,,,51,45
69240,note_on,20,0,4,,,,,,,,4,,,,67,45
69240,note_on,160,0,12,,,,,,,,13,,,,39,75
69240,note_on,20,0,5,,,,,,,,5,,,,58,45
69240,note_on,20,0,9,,,,,,,,10,,,,67,45
69240,note_on,980,0,2,,,,,,,,2,,,,75,75
69240,note_on,160,0,7,,,,,,,,7,,,,39,45
69240,note_on,20,0,3,,,,,,,,3,,,,75,45
69280,note_off,40,0,1,,,,,,,,1,,,,75,64
69280,note_off,40,0,2,,,,,,,,2,,,,75,64
69300,note_on,20,0,1,,,,,,,,1,,,,67,92
69300,note_on,20,0,2,,,,,,,,2,,,,67,75
69360,note_off,60,0,2,,,,,,,,2,,,,67,64
69360,note_on,0,0,2,,,,,,,,2,,,,65,75
69360,note_off,60,0,1,,,,,,,,1,,,,67,64
69360,note_on,0,0,1,,,,,,,,1,,,,65,92
69420,note_off,60,0,2,,,,,,,,2,,,,65,64
69420,note_off,60,0,1,,,,,,,,1,,,,65,64
69420,note_on,0,0,1,,,,,,,,1,,,,67,92
69420,note_on,0,0,2,,,,,,,,2,,,,67,75
69460,note_off,40,0,1,,,,,,,,1,,,,67,64
69460,note_off,40,0,2,,,,,,,,2,,,,67,64
69480,note_on,20,0,1,,,,,,,,1,,,,75,92
69480,note_on,20,0,2,,,,,,,,2,,,,75,75
69520,note_off,40,0,2,,,,,,,,2,,,,75,64
69520,note_off,40,0,1,,,,,,,,1,,,,75,64
69540,note_on,20,0,2,,,,,,,,2,,,,67,75
69540,note_on,20,0,1,,,,,,,,1,,,,67,92
69600,note_on,0,0,1,,,,,,,,1,,,,65,92
69600,note_off,60,0,2,,,,,,,,2,,,,67,64
69600,note_on,0,0,2,,,,,,,,2,,,,65,75
69600,note_off,60,0,1,,,,,,,,1,,,,67,64
69640,note_off,400,0,13,,,,,,,,14,,,,39,64
69640,note_off,400,0,11,,,,,,,,12,,,,51,64
69640,note_off,400,0,9,,,,,,,,10,,,,67,64
69640,note_off,400,0,6,,,,,,,,6,,,,51,64
69640,note_off,400,0,7,,,,,,,,7,,,,39,64
69640,note_off,400,0,4,,,,,,,,4,,,,67,64
69640,note_off,400,0,10,,,,,,,,11,,,,58,64
69640,note_off,400,0,3,,,,,,,,3,,,,75,64
69640,note_off,400,0,5,,,,,,,,5,,,,58,64
69640,note_off,400,0,8,,,,,,,,8,,,,75,64
69640,note_off,400,0,12,,,,,,,,13,,,,39,64
69660,note_on,0,0,2,,,,,,,,2,,,,67,75
69660,note_off,60,0,2,,,,,,,,2,,,,65,64
69660,note_off,60,0,1,,,,,,,,1,,,,65,64
69660,note_on,0,0,1,,,,,,,,1,,,,67,92
69700,note_off,40,0,2,,,,,,,,2,,,,67,64
69700,note_off,40,0,1,,,,,,,,1,,,,67,64
69720,note_on,20,0,2,,,,,,,,2,,,,75,75
69720,note_on,20,0,1,,,,,,,,1,,,,75,92
69760,note_off,40,0,2,,,,,,,,2,,,,75,64
69760,note_off,40,0,1,,,,,,,,1,,,,75,64
69780,note_on,20,0,2,,,,,,,,2,,,,67,75
69780,note_on,20,0,1,,,,,,,,1,,,,67,92
69840,note_off,60,0,1,,,,,,,,1,,,,67,64
69840,note_off,60,0,2,,,,,,,,2,,,,67,64
69840,note_on,0,0,2,,,,,,,,2,,,,65,75
69840,note_on,0,0,1,,,,,,,,1,,,,65,92
69900,note_off,60,0,1,,,,,,,,1,,,,65,64
69900,note_on,0,0,1,,,,,,,,1,,,,67,92
69900,note_off,60,0,2,,,,,,,,2,,,,65,64
69900,note_on,0,0,2,,,,,,,,2,,,,67,75
69940,note_off,40,0,1,,,,,,,,1,,,,67,64
69940,note_off,40,0,2,,,,,,,,2,,,,67,64
69960,note_on,20,0,1,,,,,,,,1,,,,75,92
69960,note_on,20,0,2,,,,,,,,2,,,,75,75
70000,note_off,40,0,1,,,,,,,,1,,,,75,64
70000,note_off,40,0,2,,,,,,,,2,,,,75,64
70020,note_on,20,0,2,,,,,,,,2,,,,67,75
70020,note_on,20,0,1,,,,,,,,1,,,,67,92
70080,note_off,60,0,2,,,,,,,,2,,,,67,64
70080,note_on,0,0,2,,,,,,,,2,,,,65,75
70080,note_off,60,0,1,,,,,,,,1,,,,67,64
70080,note_on,0,0,1,,,,,,,,1,,,,65,92
70140,note_on,0,0,2,,,,,,,,2,,,,67,75
70140,note_off,60,0,2,,,,,,,,2,,,,65,64
70140,note_off,60,0,1,,,,,,,,1,,,,65,64
70140,note_on,0,0,1,,,,,,,,1,,,,67,92
70180,note_off,40,0,2,,,,,,,,2,,,,67,64
70180,note_off,40,0,1,,,,,,,,1,,,,67,64
70200,note_on,560,0,11,,,,,,,,12,,,,44,75
70200,note_on,560,0,3,,,,,,,,3,,,,75,92
70200,note_on,560,0,8,,,,,,,,8,,,,75,75
70200,note_on,560,0,5,,,,,,,,5,,,,60,92
70200,note_on,560,0,10,,,,,,,,11,,,,60,75
70200,note_on,560,0,12,,,,,,,,13,,,,32,75
70200,note_on,560,0,7,,,,,,,,7,,,,32,92
70200,note_on,560,0,13,,,,,,,,14,,,,32,60
70200,note_on,560,0,6,,,,,,,,6,,,,44,92
70200,note_on,560,0,9,,,,,,,,10,,,,65,75
70200,note_on,560,0,4,,,,,,,,4,,,,65,92
70240,note_off,40,0,4,,,,,,,,4,,,,65,64
70240,note_off,40,0,8,,,,,,,,8,,,,75,64
70240,note_off,40,0,10,,,,,,,,11,,,,60,64
70240,note_off,40,0,9,,,,,,,,10,,,,65,64
70240,note_off,40,0,5,,,,,,,,5,,,,60,64
70240,note_off,40,0,3,,,,,,,,3,,,,75,64
70260,note_on,20,0,4,,,,,,,,4,,,,65,92
70260,note_on,20,0,9,,,,,,,,10,,,,65,75
70260,note_on,20,0,5,,,,,,,,5,,,,60,92
70260,note_on,20,0,8,,,,,,,,8,,,,75,75
70260,note_on,20,0,3,,,,,,,,3,,,,75,92
70260,note_on,20,0,10,,,,,,,,11,,,,60,75
70280,note_off,80,0,6,,,,,,,,6,,,,44,64
70280,note_off,80,0,11,,,,,,,,12,,,,44,64
70280,note_off,80,0,12,,,,,,,,13,,,,32,64
70280,note_off,80,0,7,,,,,,,,7,,,,32,64
70300,note_off,40,0,9,,,,,,,,10,,,,65,64
70300,note_off,40,0,5,,,,,,,,5,,,,60,64
70300,note_off,40,0,3,,,,,,,,3,,,,75,64
70300,note_off,40,0,8,,,,,,,,8,,,,75,64
70300,note_off,40,0,4,,,,,,,,4,,,,65,64
70300,note_off,40,0,10,,,,,,,,11,,,,60,64
70320,note_on,20,0,3,,,,,,,,3,,,,75,92
70320,note_on,20,0,9,,,,,,,,10,,,,65,75
70320,note_on,20,0,8,,,,,,,,8,,,,75,75
70320,note_on,20,0,5,,,,,,,,5,,,,60,92
70320,note_on,20,0,4,,,,,,,,4,,,,65,92
70320,note_on,20,0,10,,,,,,,,11,,,,60,75
70360,note_off,40,0,3,,,,,,,,3,,,,75,64
70360,note_off,40,0,8,,,,,,,,8,,,,75,64
70360,note_off,40,0,9,,,,,,,,10,,,,65,64
70360,note_off,40,0,4,,,,,,,,4,,,,65,64
70360,note_off,40,0,5,,,,,,,,5,,,,60,64
70360,note_off,40,0,10,,,,,,,,11,,,,60,64
70380,note_on,20,0,10,,,,,,,,11,,,,60,75
70380,note_on,20,0,3,,,,,,,,3,,,,75,92
70380,note_on,20,0,9,,,,,,,,10,,,,65,75
70380,note_on,20,0,4,,,,,,,,4,,,,65,92
70380,note_on,20,0,8,,,,,,,,8,,,,75,75
70380,note_on,20,0,5,,,,,,,,5,,,,60,92
70420,note_off,40,0,8,,,,,,,,8,,,,75,64
70420,note_off,40,0,3,,,,,,,,3,,,,75,64
70420,note_off,40,0,9,,,,,,,,10,,,,65,64
70420,note_off,40,0,5,,,,,,,,5,,,,60,64
70420,note_off,40,0,4,,,,,,,,4,,,,65,64
70420,note_off,40,0,10,,,,,,,,11,,,,60,64
70435,note_off,235,0,13,,,,,,,,14,,,,32,64
70440,note_on,160,0,7,,,,,,,,7,,,,32,92
70440,note_on,160,0,6,,,,,,,,6,,,,44,92
70440,note_on,20,0,4,,,,,,,,4,,,,65,92
70440,note_on,160,0,12,,,,,,,,13,,,,32,75
70440,note_on,20,0,9,,,,,,,,10,,,,65,75
70440,note_on,20,0,5,,,,,,,,5,,,,60,92
70440,note_on,20,0,3,,,,,,,,3,,,,75,92
70440,note_on,160,0,11,,,,,,,,12,,,,44,75
70440,note_on,20,0,8,,,,,,,,8,,,,75,75
70440,note_on,20,0,10,,,,,,,,11,,,,60,75
70440,note_on,5,0,13,,,,,,,,14,,,,32,60
70480,note_off,40,0,4,,,,,,,,4,,,,65,64
70480,note_off,40,0,5,,,,,,,,5,,,,60,64
70480,note_off,40,0,10,,,,,,,,11,,,,60,64
70480,note_off,40,0,3,,,,,,,,3,,,,75,64
70480,note_off,40,0,9,,,,,,,,10,,,,65,64
70480,note_off,40,0,8,,,,,,,,8,,,,75,64
70500,note_on,20,0,5,,,,,,,,5,,,,60,92
70500,note_on,20,0,10,,,,,,,,11,,,,60,75
70500,note_on,20,0,9,,,,,,,,10,,,,65,75
70500,note_on,20,0,3,,,,,,,,3,,,,75,92
70500,note_on,20,0,4,,,,,,,,4,,,,65,92
70500,note_on,20,0,8,,,,,,,,8,,,,75,75
70520,note_off,80,0,7,,,,,,,,7,,,,32,64
70520,note_off,80,0,11,,,,,,,,12,,,,44,64
70520,note_off,80,0,12,,,,,,,,13,,,,32,64
70520,note_off,80,0,6,,,,,,,,6,,,,44,64
70540,note_off,40,0,4,,,,,,,,4,,,,65,64
70540,note_off,40,0,9,,,,,,,,10,,,,65,64
70540,note_off,40,0,10,,,,,,,,11,,,,60,64
70540,note_off,40,0,3,,,,,,,,3,,,,75,64
70540,note_off,40,0,8,,,,,,,,8,,,,75,64
70540,note_off,40,0,5,,,,,,,,5,,,,60,64
70560,note_on,20,0,4,,,,,,,,4,,,,65,92
70560,note_on,20,0,9,,,,,,,,10,,,,65,75
70560,note_on,20,0,10,,,,,,,,11,,,,60,75
70560,note_on,20,0,8,,,,,,,,8,,,,75,75
70560,note_on,20,0,3,,,,,,,,3,,,,75,92
70560,note_on,20,0,5,,,,,,,,5,,,,60,92
70600,note_off,40,0,4,,,,,,,,4,,,,65,64
70600,note_off,40,0,8,,,,,,,,8,,,,75,64
70600,note_off,40,0,10,,,,,,,,11,,,,60,64
70600,note_off,40,0,3,,,,,,,,3,,,,75,64
70600,note_off,40,0,9,,,,,,,,10,,,,65,64
70600,note_off,40,0,5,,,,,,,,5,,,,60,64
70620,note_on,20,0,4,,,,,,,,4,,,,65,92
70620,note_on,20,0,3,,,,,,,,3,,,,75,92
70620,note_on,20,0,8,,,,,,,,8,,,,75,75
70620,note_on,20,0,10,,,,,,,,11,,,,60,75
70620,note_on,20,0,9,,,,,,,,10,,,,65,75
70620,note_on,20,0,5,,,,,,,,5,,,,60,92
70660,note_off,40,0,8,,,,,,,,8,,,,75,64
70660,note_off,40,0,3,,,,,,,,3,,,,75,64
70660,note_off,40,0,5,,,,,,,,5,,,,60,64
70660,note_off,40,0,10,,,,,,,,11,,,,60,64
70660,note_off,40,0,9,,,,,,,,10,,,,65,64
70660,note_off,40,0,4,,,,,,,,4,,,,65,64
70675,note_off,235,0,13,,,,,,,,14,,,,32,64
70680,note_on,20,0,8,,,,,,,,8,,,,75,75
70680,note_on,160,0,6,,,,,,,,6,,,,44,92
70680,note_on,20,0,3,,,,,,,,3,,,,75,92
70680,note_on,160,0,12,,,,,,,,13,,,,32,75
70680,note_on,5,0,13,,,,,,,,14,,,,32,60
70680,note_on,20,0,10,,,,,,,,11,,,,60,75
70680,note_on,20,0,9,,,,,,,,10,,,,65,75
70680,note_on,20,0,4,,,,,,,,4,,,,65,92
70680,note_on,20,0,5,,,,,,,,5,,,,60,92
70680,note_on,160,0,11,,,,,,,,12,,,,44,75
70680,note_on,160,0,7,,,,,,,,7,,,,32,92
70720,note_off,40,0,8,,,,,,,,8,,,,75,64
70720,note_off,40,0,5,,,,,,,,5,,,,60,64
70720,note_off,40,0,10,,,,,,,,11,,,,60,64
70720,note_off,40,0,9,,,,,,,,10,,,,65,64
70720,note_off,40,0,3,,,,,,,,3,,,,75,64
70720,note_off,40,0,4,,,,,,,,4,,,,65,64
70740,note_on,20,0,4,,,,,,,,4,,,,65,91
70740,note_on,20,0,10,,,,,,,,11,,,,60,74
70740,note_on,20,0,3,,,,,,,,3,,,,75,90
70740,note_on,20,0,9,,,,,,,,10,,,,65,74
70740,note_on,20,0,5,,,,,,,,5,,,,60,91
70740,note_on,20,0,8,,,,,,,,8,,,,75,74
70760,note_off,80,0,11,,,,,,,,12,,,,44,64
70760,note_off,80,0,6,,,,,,,,6,,,,44,64
70760,note_off,80,0,12,,,,,,,,13,,,,32,64
70760,note_off,80,0,7,,,,,,,,7,,,,32,64
70780,note_off,40,0,9,,,,,,,,10,,,,65,64
70780,note_off,40,0,4,,,,,,,,4,,,,65,64
70780,note_off,40,0,10,,,,,,,,11,,,,60,64
70780,note_off,40,0,8,,,,,,,,8,,,,75,64
70780,note_off,40,0,3,,,,,,,,3,,,,75,64
70780,note_off,40,0,5,,,,,,,,5,,,,60,64
70800,note_on,20,0,5,,,,,,,,5,,,,60,89
70800,note_on,20,0,9,,,,,,,,10,,,,65,73
70800,note_on,20,0,10,,,,,,,,11,,,,60,73
70800,note_on,20,0,4,,,,,,,,4,,,,65,89
70800,note_on,20,0,3,,,,,,,,3,,,,75,88
70800,note_on,20,0,8,,,,,,,,8,,,,75,73
70840,note_off,40,0,3,,,,,,,,3,,,,75,64
70840,note_off,40,0,10,,,,,,,,11,,,,60,64
70840,note_off,40,0,9,,,,,,,,10,,,,65,64
70840,note_off,40,0,5,,,,,,,,5,,,,60,64
70840,note_off,40,0,4,,,,,,,,4,,,,65,64
70840,note_off,40,0,8,,,,,,,,8,,,,75,64
70860,note_on,20,0,8,,,,,,,,8,,,,75,72
70860,note_on,20,0,9,,,,,,,,10,,,,65,72
70860,note_on,20,0,3,,,,,,,,3,,,,75,86
70860,note_on,20,0,5,,,,,,,,5,,,,60,87
70860,note_on,20,0,4,,,,,,,,4,,,,65,87
70860,note_on,20,0,10,,,,,,,,11,,,,60,72
70900,note_off,40,0,4,,,,,,,,4,,,,65,64
70900,note_off,40,0,8,,,,,,,,8,,,,75,64
70900,note_off,40,0,5,,,,,,,,5,,,,60,64
70900,note_off,40,0,10,,,,,,,,11,,,,60,64
70900,note_off,40,0,9,,,,,,,,10,,,,65,64
70900,note_off,40,0,3,,,,,,,,3,,,,75,64
70915,note_off,235,0,13,,,,,,,,14,,,,32,64
70920,note_on,20,0,3,,,,,,,,3,,,,75,84
70920,note_on,5,0,13,,,,,,,,14,,,,32,55
70920,note_on,20,0,4,,,,,,,,4,,,,65,85
70920,note_on,20,0,8,,,,,,,,8,,,,75,70
70920,note_on,160,0,7,,,,,,,,7,,,,32,85
70920,note_on,20,0,9,,,,,,,,10,,,,65,71
70920,note_on,160,0,11,,,,,,,,12,,,,44,70
70920,note_on,20,0,10,,,,,,,,11,,,,60,71
70920,note_on,160,0,12,,,,,,,,13,,,,32,70
70920,note_on,160,0,6,,,,,,,,6,,,,44,85
70920,note_on,20,0,5,,,,,,,,5,,,,60,85
70960,note_off,40,0,8,,,,,,,,8,,,,75,64
70960,note_off,40,0,3,,,,,,,,3,,,,75,64
70960,note_off,40,0,4,,,,,,,,4,,,,65,64
70960,note_off,40,0,5,,,,,,,,5,,,,60,64
70960,note_off,40,0,10,,,,,,,,11,,,,60,64
70960,note_off,40,0,9,,,,,,,,10,,,,65,64
70980,note_on,20,0,9,,,,,,,,10,,,,65,70
70980,note_on,20,0,3,,,,,,,,3,,,,75,82
70980,note_on,20,0,5,,,,,,,,5,,,,60,83
70980,note_on,20,0,10,,,,,,,,11,,,,60,70
70980,note_on,20,0,4,,,,,,,,4,,,,65,83
70980,note_on,20,0,8,,,,,,,,8,,,,75,68
71000,note_off,80,0,11,,,,,,,,12,,,,44,64
71000,note_off,80,0,12,,,,,,,,13,,,,32,64
71000,note_off,80,0,6,,,,,,,,6,,,,44,64
71000,note_off,80,0,7,,,,,,,,7,,,,32,64
71020,note_off,40,0,8,,,,,,,,8,,,,75,64
71020,note_off,40,0,3,,,,,,,,3,,,,75,64
71020,note_off,40,0,10,,,,,,,,11,,,,60,64
71020,note_off,40,0,4,,,,,,,,4,,,,65,64
71020,note_off,40,0,9,,,,,,,,10,,,,65,64
71020,note_off,40,0,5,,,,,,,,5,,,,60,64
71040,note_on,20,0,5,,,,,,,,5,,,,60,81
71040,note_on,20,0,8,,,,,,,,8,,,,75,66
71040,note_on,20,0,4,,,,,,,,4,,,,65,81
71040,note_on,20,0,9,,,,,,,,10,,,,65,69
71040,note_on,20,0,3,,,,,,,,3,,,,75,80
71040,note_on,20,0,10,,,,,,,,11,,,,60,69
71080,note_off,40,0,5,,,,,,,,5,,,,60,64
71080,note_off,40,0,8,,,,,,,,8,,,,75,64
71080,note_off,40,0,4,,,,,,,,4,,,,65,64
71080,note_off,40,0,9,,,,,,,,10,,,,65,64
71080,note_off,40,0,3,,,,,,,,3,,,,75,64
71080,note_off,40,0,10,,,,,,,,11,,,,60,64
71100,note_on,20,0,9,,,,,,,,10,,,,65,68
71100,note_on,20,0,8,,,,,,,,8,,,,75,64
71100,note_on,20,0,10,,,,,,,,11,,,,60,68
71100,note_on,20,0,3,,,,,,,,3,,,,75,78
71100,note_on,20,0,4,,,,,,,,4,,,,65,79
71100,note_on,20,0,5,,,,,,,,5,,,,60,79
71140,note_off,40,0,3,,,,,,,,3,,,,75,64
71140,note_off,40,0,10,,,,,,,,11,,,,60,64
71140,note_off,40,0,9,,,,,,,,10,,,,65,64
71140,note_off,40,0,8,,,,,,,,8,,,,75,64
71140,note_off,40,0,5,,,,,,,,5,,,,60,64
71140,note_off,40,0,4,,,,,,,,4,,,,65,64
71155,note_off,235,0,13,,,,,,,,14,,,,32,64
71160,note_on,20,0,5,,,,,,,,5,,,,58,77
71160,note_on,20,0,9,,,,,,,,10,,,,65,67
71160,note_on,20,0,8,,,,,,,,8,,,,74,62
71160,note_on,20,0,4,,,,,,,,4,,,,65,77
71160,note_on,160,0,7,,,,,,,,7,,,,34,77
71160,note_on,5,0,13,,,,,,,,14,,,,34,50
71160,note_on,20,0,10,,,,,,,,11,,,,58,67
71160,note_on,160,0,11,,,,,,,,12,,,,46,65
71160,note_on,20,0,3,,,,,,,,3,,,,74,76
71160,note_on,160,0,6,,,,,,,,6,,,,46,77
71160,note_on,160,0,12,,,,,,,,13,,,,34,65
71200,note_off,40,0,10,,,,,,,,11,,,,58,64
71200,note_off,40,0,3,,,,,,,,3,,,,74,64
71200,note_off,40,0,4,,,,,,,,4,,,,65,64
71200,note_off,40,0,9,,,,,,,,10,,,,65,64
71200,note_off,40,0,8,,,,,,,,8,,,,74,64
71200,note_off,40,0,5,,,,,,,,5,,,,58,64
71220,note_on,20,0,3,,,,,,,,3,,,,74,74
71220,note_on,20,0,4,,,,,,,,4,,,,65,75
71220,note_on,20,0,5,,,,,,,,5,,,,58,75
71220,note_on,20,0,9,,,,,,,,10,,,,65,66
71220,note_on,20,0,10,,,,,,,,11,,,,58,66
71220,note_on,20,0,8,,,,,,,,8,,,,74,60
71240,note_off,80,0,6,,,,,,,,6,,,,46,64
71240,note_off,80,0,12,,,,,,,,13,,,,34,64
71240,note_off,80,0,7,,,,,,,,7,,,,34,64
71240,note_off,80,0,11,,,,,,,,12,,,,46,64
71260,note_off,40,0,8,,,,,,,,8,,,,74,64
71260,note_off,40,0,4,,,,,,,,4,,,,65,64
71260,note_off,40,0,3,,,,,,,,3,,,,74,64
71260,note_off,40,0,9,,,,,,,,10,,,,65,64
71260,note_off,40,0,10,,,,,,,,11,,,,58,64
71260,note_off,40,0,5,,,,,,,,5,,,,58,64
71280,note_on,20,0,3,,,,,,,,3,,,,74,72
71280,note_on,20,0,10,,,,,,,,11,,,,58,65
71280,note_on,20,0,9,,,,,,,,10,,,,65,65
71280,note_on,20,0,4,,,,,,,,4,,,,65,73
71280,note_on,20,0,5,,,,,,,,5,,,,58,73
71280,note_on,20,0,8,,,,,,,,8,,,,74,58
71320,note_off,40,0,10,,,,,,,,11,,,,58,64
71320,note_off,40,0,5,,,,,,,,5,,,,58,64
71320,note_off,40,0,3,,,,,,,,3,,,,74,64
71320,note_off,40,0,8,,,,,,,,8,,,,74,64
71320,note_off,40,0,9,,,,,,,,10,,,,65,64
71320,note_off,40,0,4,,,,,,,,4,,,,65,64
71340,note_on,20,0,3,,,,,,,,3,,,,74,69
71340,note_on,20,0,10,,,,,,,,11,,,,58,64
71340,note_on,20,0,9,,,,,,,,10,,,,65,64
71340,note_on,20,0,8,,,,,,,,8,,,,74,56
71340,note_on,20,0,5,,,,,,,,5,,,,58,71
71340,note_on,20,0,4,,,,,,,,4,,,,65,71
71380,note_off,40,0,10,,,,,,,,11,,,,58,64
71380,note_off,40,0,3,,,,,,,,3,,,,74,64
71380,note_off,40,0,5,,,,,,,,5,,,,58,64
71380,note_off,40,0,9,,,,,,,,10,,,,65,64
71380,note_off,40,0,8,,,,,,,,8,,,,74,64
71380,note_off,40,0,4,,,,,,,,4,,,,65,64
71395,note_off,235,0,13,,,,,,,,14,,,,34,64
71400,note_on,160,0,6,,,,,,,,6,,,,46,69
71400,note_on,20,0,8,,,,,,,,8,,,,74,54
71400,note_on,160,0,7,,,,,,,,7,,,,34,69
71400,note_on,20,0,4,,,,,,,,4,,,,65,69
71400,note_on,5,0,13,,,,,,,,14,,,,34,45
71400,note_on,20,0,3,,,,,,,,3,,,,74,66
71400,note_on,160,0,11,,,,,,,,12,,,,46,60
71400,note_on,20,0,9,,,,,,,,10,,,,65,63
71400,note_on,20,0,5,,,,,,,,5,,,,58,69
71400,note_on,160,0,12,,,,,,,,13,,,,34,60
71400,note_on,20,0,10,,,,,,,,11,,,,58,63
71440,note_off,40,0,10,,,,,,,,11,,,,58,64
71440,note_off,40,0,9,,,,,,,,10,,,,65,64
71440,note_off,40,0,5,,,,,,,,5,,,,58,64
71440,note_off,40,0,4,,,,,,,,4,,,,65,64
71440,note_off,40,0,3,,,,,,,,3,,,,74,64
71440,note_off,40,0,8,,,,,,,,8,,,,74,64
71460,note_on,20,0,5,,,,,,,,5,,,,58,67
71460,note_on,20,0,10,,,,,,,,11,,,,58,62
71460,note_on,20,0,9,,,,,,,,10,,,,65,62
71460,note_on,20,0,8,,,,,,,,8,,,,74,52
71460,note_on,20,0,3,,,,,,,,3,,,,74,63
71460,note_on,20,0,4,,,,,,,,4,,,,65,67
71480,note_off,80,0,12,,,,,,,,13,,,,34,64
71480,note_off,80,0,11,,,,,,,,12,,,,46,64
71480,note_off,80,0,6,,,,,,,,6,,,,46,64
71480,note_off,80,0,7,,,,,,,,7,,,,34,64
71500,note_off,40,0,5,,,,,,,,5,,,,58,64
71500,note_off,40,0,3,,,,,,,,3,,,,74,64
71500,note_off,40,0,9,,,,,,,,10,,,,65,64
71500,note_off,40,0,8,,,,,,,,8,,,,74,64
71500,note_off,40,0,10,,,,,,,,11,,,,58,64
71500,note_off,40,0,4,,,,,,,,4,,,,65,64
71520,note_on,20,0,5,,,,,,,,5,,,,58,65
71520,note_on,20,0,3,,,,,,,,3,,,,74,60
71520,note_on,20,0,4,,,,,,,,4,,,,65,65
71520,note_on,20,0,9,,,,,,,,10,,,,65,61
71520,note_on,20,0,10,,,,,,,,11,,,,58,61
71520,note_on,20,0,8,,,,,,,,8,,,,74,50
71560,note_off,40,0,3,,,,,,,,3,,,,74,64
71560,note_off,40,0,5,,,,,,,,5,,,,58,64
71560,note_off,40,0,10,,,,,,,,11,,,,58,64
71560,note_off,40,0,4,,,,,,,,4,,,,65,64
71560,note_off,40,0,8,,,,,,,,8,,,,74,64
71560,note_off,40,0,9,,,,,,,,10,,,,65,64
71580,note_on,20,0,8,,,,,,,,8,,,,74,48
71580,note_on,20,0,5,,,,,,,,5,,,,58,63
71580,note_on,20,0,10,,,,,,,,11,,,,58,60
71580,note_on,20,0,3,,,,,,,,3,,,,74,57
71580,note_on,20,0,4,,,,,,,,4,,,,65,63
71580,note_on,20,0,9,,,,,,,,10,,,,65,60
71620,note_off,40,0,10,,,,,,,,11,,,,58,64
71620,note_off,40,0,3,,,,,,,,3,,,,74,64
71620,note_off,40,0,5,,,,,,,,5,,,,58,64
71620,note_off,40,0,4,,,,,,,,4,,,,65,64
71620,note_off,40,0,8,,,,,,,,8,,,,74,64
71620,note_off,40,0,9,,,,,,,,10,,,,65,64
71635,note_off,235,0,13,,,,,,,,14,,,,34,64
71640,note_on,160,0,6,,,,,,,,6,,,,46,61
71640,note_on,20,0,3,,,,,,,,3,,,,74,54
71640,note_on,20,0,5,,,,,,,,5,,,,58,61
71640,note_on,160,0,12,,,,,,,,13,,,,34,55
71640,note_on,20,0,4,,,,,,,,4,,,,65,61
71640,note_on,160,0,7,,,,,,,,7,,,,34,61
71640,note_on,20,0,10,,,,,,,,11,,,,58,59
71640,note_on,160,0,11,,,,,,,,12,,,,46,55
71640,note_on,5,0,13,,,,,,,,14,,,,34,40
71640,note_on,20,0,8,,,,,,,,8,,,,74,46
71640,note_on,20,0,9,,,,,,,,10,,,,65,59
71680,note_off,40,0,3,,,,,,,,3,,,,74,64
71680,note_off,40,0,4,,,,,,,,4,,,,65,64
71680,note_off,40,0,9,,,,,,,,10,,,,65,64
71680,note_off,40,0,8,,,,,,,,8,,,,74,64
71680,note_off,40,0,5,,,,,,,,5,,,,58,64
71680,note_off,40,0,10,,,,,,,,11,,,,58,64
71700,note_on,20,0,3,,,,,,,,3,,,,74,51
71700,note_on,20,0,4,,,,,,,,4,,,,65,59
71700,note_on,20,0,9,,,,,,,,10,,,,65,58
71700,note_on,20,0,5,,,,,,,,5,,,,58,59
71700,note_on,20,0,10,,,,,,,,11,,,,58,58
71700,note_on,20,0,8,,,,,,,,8,,,,74,44
71720,note_off,80,0,11,,,,,,,,12,,,,46,64
71720,note_off,80,0,12,,,,,,,,13,,,,34,64
71720,note_off,80,0,7,,,,,,,,7,,,,34,64
71720,note_off,80,0,6,,,,,,,,6,,,,46,64
71740,note_off,40,0,8,,,,,,,,8,,,,74,64
71740,note_off,40,0,5,,,,,,,,5,,,,58,64
71740,note_off,40,0,10,,,,,,,,11,,,,58,64
71740,note_off,40,0,9,,,,,,,,10,,,,65,64
71740,note_off,40,0,3,,,,,,,,3,,,,74,64
71740,note_off,40,0,4,,,,,,,,4,,,,65,64
71760,note_on,20,0,5,,,,,,,,5,,,,58,57
71760,note_on,20,0,9,,,,,,,,10,,,,65,57
71760,note_on,20,0,3,,,,,,,,3,,,,74,48
71760,note_on,20,0,8,,,,,,,,8,,,,74,42
71760,note_on,20,0,4,,,,,,,,4,,,,65,57
71760,note_on,20,0,10,,,,,,,,11,,,,58,57
71800,note_off,40,0,4,,,,,,,,4,,,,65,64
71800,note_off,40,0,3,,,,,,,,3,,,,74,64
71800,note_off,40,0,9,,,,,,,,10,,,,65,64
71800,note_off,40,0,10,,,,,,,,11,,,,58,64
71800,note_off,40,0,8,,,,,,,,8,,,,74,64
71800,note_off,40,0,5,,,,,,,,5,,,,58,64
71820,note_on,20,0,5,,,,,,,,5,,,,58,55
71820,note_on,20,0,8,,,,,,,,8,,,,74,40
71820,note_on,20,0,3,,,,,,,,3,,,,74,45
71820,note_on,20,0,4,,,,,,,,4,,,,65,55
71820,note_on,20,0,9,,,,,,,,10,,,,65,55
71820,note_on,20,0,10,,,,,,,,11,,,,58,55
71860,note_off,40,0,3,,,,,,,,3,,,,74,64
71860,note_off,40,0,8,,,,,,,,8,,,,74,64
71860,note_off,40,0,5,,,,,,,,5,,,,58,64
71860,note_off,40,0,10,,,,,,,,11,,,,58,64
71860,note_off,40,0,9,,,,,,,,10,,,,65,64
71860,note_off,40,0,4,,,,,,,,4,,,,65,64
71875,note_off,235,0,13,,,,,,,,14,,,,34,64
71880,note_on,160,0,11,,,,,,,,12,,,,46,50
71880,note_on,5,0,13,,,,,,,,14,,,,34,35
71880,note_on,160,0,7,,,,,,,,7,,,,34,53
71880,note_on,20,0,8,,,,,,,,8,,,,74,38
71880,note_on,20,0,3,,,,,,,,3,,,,74,42
71880,note_on,20,0,5,,,,,,,,5,,,,58,53
71880,note_on,160,0,12,,,,,,,,13,,,,34,50
71880,note_on,160,0,6,,,,,,,,6,,,,46,53
71880,note_on,20,0,9,,,,,,,,10,,,,65,53
71880,note_on,20,0,4,,,,,,,,4,,,,65,53
71880,note_on,20,0,10,,,,,,,,11,,,,58,53
71920,note_off,40,0,3,,,,,,,,3,,,,74,64
71920,note_off,40,0,9,,,,,,,,10,,,,65,64
71920,note_off,40,0,5,,,,,,,,5,,,,58,64
71920,note_off,40,0,8,,,,,,,,8,,,,74,64
71920,note_off,40,0,10,,,,,,,,11,,,,58,64
71920,note_off,40,0,4,,,,,,,,4,,,,65,64
71940,note_on,20,0,4,,,,,,,,4,,,,65,51
71940,note_on,20,0,8,,,,,,,,8,,,,74,36
71940,note_on,20,0,5,,,,,,,,5,,,,58,51
71940,note_on,20,0,3,,,,,,,,3,,,,74,39
71940,note_on,20,0,9,,,,,,,,10,,,,65,51
71940,note_on,20,0,10,,,,,,,,11,,,,58,51
71960,note_off,80,0,12,,,,,,,,13,,,,34,64
71960,note_off,80,0,7,,,,,,,,7,,,,34,64
71960,note_off,80,0,11,,,,,,,,12,,,,46,64
71960,note_off,80,0,6,,,,,,,,6,,,,46,64
71980,note_off,40,0,5,,,,,,,,5,,,,58,64
71980,note_off,40,0,10,,,,,,,,11,,,,58,64
71980,note_off,40,0,3,,,,,,,,3,,,,74,64
71980,note_off,40,0,9,,,,,,,,10,,,,65,64
71980,note_off,40,0,4,,,,,,,,4,,,,65,64
71980,note_off,40,0,8,,,,,,,,8,,,,74,64
72000,note_on,20,0,10,,,,,,,,11,,,,58,49
72000,note_on,20,0,8,,,,,,,,8,,,,74,34
72000,note_on,20,0,9,,,,,,,,10,,,,65,49
72000,note_on,20,0,5,,,,,,,,5,,,,58,49
72000,note_on,20,0,3,,,,,,,,3,,,,74,36
72000,note_on,20,0,4,,,,,,,,4,,,,65,49
72040,note_off,40,0,10,,,,,,,,11,,,,58,64
72040,note_off,40,0,5,,,,,,,,5,,,,58,64
72040,note_off,40,0,4,,,,,,,,4,,,,65,64
72040,note_off,40,0,8,,,,,,,,8,,,,74,64
72040,note_off,40,0,9,,,,,,,,10,,,,65,64
72040,note_off,40,0,3,,,,,,,,3,,,,74,64
72060,note_on,20,0,4,,,,,,,,4,,,,65,47
72060,note_on,20,0,10,,,,,,,,11,,,,58,47
72060,note_on,20,0,9,,,,,,,,10,,,,65,47
72060,note_on,20,0,5,,,,,,,,5,,,,58,47
72060,note_on,20,0,3,,,,,,,,3,,,,74,33
72060,note_on,20,0,8,,,,,,,,8,,,,74,32
72100,note_off,40,0,10,,,,,,,,11,,,,58,64
72100,note_off,40,0,3,,,,,,,,3,,,,74,64
72100,note_off,40,0,4,,,,,,,,4,,,,65,64
72100,note_off,40,0,8,,,,,,,,8,,,,74,64
72100,note_off,40,0,5,,,,,,,,5,,,,58,64
72100,note_off,40,0,9,,,,,,,,10,,,,65,64
72115,note_off,235,0,13,,,,,,,,14,,,,34,64
72120,note_on,20,0,10,,,,,,,,11,,,,58,45
72120,note_on,20,0,3,,,,,,,,3,,,,75,30
72120,note_on,160,0,6,,,,,,,,6,,,,51,45
72120,note_on,20,0,9,,,,,,,,10,,,,67,45
72120,note_on,160,0,11,,,,,,,,12,,,,51,45
72120,note_on,160,0,12,,,,,,,,13,,,,39,45
72120,note_on,20,0,8,,,,,,,,8,,,,75,30
72120,note_on,5,0,13,,,,,,,,14,,,,39,30
72120,note_on,20,0,4,,,,,,,,4,,,,67,45
72120,note_on,160,0,7,,,,,,,,7,,,,39,45
72120,note_on,20,0,5,,,,,,,,5,,,,58,45
72200,note_off,80,0,6,,,,,,,,6,,,,51,64
72200,note_off,80,0,12,,,,,,,,13,,,,39,64
72200,note_off,80,0,11,,,,,,,,12,,,,51,64
72200,note_off,80,0,7,,,,,,,,7,,,,39,64
72355,note_off,235,0,13,,,,,,,,14,,,,39,64
72360,note_on,5,0,13,,,,,,,,14,,,,39,30
72360,note_on,160,0,11,,,,,,,,12,,,,51,45
72360,note_on,160,0,12,,,,,,,,13,,,,39,45
72360,note_on,160,0,7,,,,,,,,7,,,,39,45
72360,note_on,160,0,6,,,,,,,,6,,,,51,45
72440,note_off,80,0,11,,,,,,,,12,,,,51,64
72440,note_off,80,0,12,,,,,,,,13,,,,39,64
72440,note_off,80,0,6,,,,,,,,6,,,,51,64
72440,note_off,80,0,7,,,,,,,,7,,,,39,64
72520,note_off,400,0,5,,,,,,,,5,,,,58,64
72520,note_off,400,0,3,,,,,,,,3,,,,75,64
72520,note_off,400,0,9,,,,,,,,10,,,,67,64
72520,note_off,400,0,4,,,,,,,,4,,,,67,64
72520,note_off,400,0,10,,,,,,,,11,,,,58,64
72520,note_off,400,0,8,,,,,,,,8,,,,75,64
72595,note_off,235,0,13,,,,,,,,14,,,,39,64
72600,note_on,160,0,11,,,,,,,,12,,,,51,45
72600,note_on,160,0,6,,,,,,,,6,,,,51,45
72600,note_on,160,0,7,,,,,,,,7,,,,39,45
72600,note_on,160,0,12,,,,,,,,13,,,,39,45
72600,note_on,5,0,13,,,,,,,,14,,,,39,30
72680,note_off,80,0,12,,,,,,,,13,,,,39,64
72680,note_off,80,0,6,,,,,,,,6,,,,51,64
72680,note_off,80,0,11,,,,,,,,12,,,,51,64
72680,note_off,80,0,7,,,,,,,,7,,,,39,64
72835,note_off,235,0,13,,,,,,,,14,,,,39,64
72840,note_on,160,0,7,,,,,,,,7,,,,39,45
72840,note_on,160,0,11,,,,,,,,12,,,,51,45
72840,note_on,5,0,13,,,,,,,,14,,,,39,30
72840,note_on,160,0,12,,,,,,,,13,,,,39,45
72840,note_on,160,0,6,,,,,,,,6,,,,51,45
72920,note_off,80,0,7,,,,,,,,7,,,,39,64
72920,note_off,80,0,11,,,,,,,,12,,,,51,64
72920,note_off,80,0,12,,,,,,,,13,,,,39,64
72920,note_off,80,0,6,,,,,,,,6,,,,51,64
73075,note_off,235,0,13,,,,,,,,14,,,,39,64
73080,note_on,160,0,7,,,,,,,,7,,,,39,45
73080,note_on,560,0,5,,,,,,,,5,,,,65,45
73080,note_on,5,0,13,,,,,,,,14,,,,39,30
73080,note_on,160,0,6,,,,,,,,6,,,,51,45
73080,note_on,160,0,11,,,,,,,,12,,,,51,45
73080,note_on,160,0,12,,,,,,,,13,,,,39,45
73080,note_on,560,0,10,,,,,,,,11,,,,65,45
73110,note_on,0,0,10,,,,,,,,11,,,,67,45
73110,note_off,30,0,10,,,,,,,,11,,,,65,64
73110,note_off,30,0,5,,,,,,,,5,,,,65,64
73110,note_on,0,0,5,,,,,,,,5,,,,67,45
73140,note_on,0,0,10,,,,,,,,11,,,,65,45
73140,note_off,30,0,10,,,,,,,,11,,,,67,64
73140,note_on,0,0,5,,,,,,,,5,,,,65,45
73140,note_off,30,0,5,,,,,,,,5,,,,67,64
73160,note_off,80,0,13,,,,,,,,14,,,,39,64
73160,note_off,80,0,11,,,,,,,,12,,,,51,64
73160,note_off,80,0,7,,,,,,,,7,,,,39,64
73160,note_off,80,0,6,,,,,,,,6,,,,51,64
73160,note_off,80,0,12,,,,,,,,13,,,,39,64
73170,note_on,0,0,10,,,,,,,,11,,,,67,45
73170,note_on,0,0,5,,,,,,,,5,,,,67,45
73170,note_off,30,0,5,,,,,,,,5,,,,65,64
73170,note_off,30,0,10,,,,,,,,11,,,,65,64
73200,note_off,30,0,10,,,,,,,,11,,,,67,64
73200,note_on,0,0,10,,,,,,,,11,,,,65,45
73200,note_on,0,0,5,,,,,,,,5,,,,65,45
73200,note_off,30,0,5,,,,,,,,5,,,,67,64
73280,note_off,80,0,10,,,,,,,,11,,,,65,64
73280,note_off,80,0,5,,,,,,,,5,,,,65,64
73320,note_on,160,0,11,,,,,,,,12,,,,51,45
73320,note_on,160,0,7,,,,,,,,7,,,,39,45
73320,note_on,40,0,10,,,,,,,,11,,,,65,45
73320,note_on,160,0,12,,,,,,,,13,,,,39,45
73320,note_on,160,0,6,,,,,,,,6,,,,51,45
73320,note_on,160,0,13,,,,,,,,14,,,,39,30
73320,note_on,40,0,5,,,,,,,,5,,,,65,45
73350,note_off,30,0,5,,,,,,,,5,,,,65,64
73350,note_on,0,0,5,,,,,,,,5,,,,67,45
73350,note_off,30,0,10,,,,,,,,11,,,,65,64
73350,note_on,0,0,10,,,,,,,,11,,,,67,45
73380,note_off,30,0,10,,,,,,,,11,,,,67,64
73380,note_on,0,0,10,,,,,,,,11,,,,65,45
73380,note_off,30,0,5,,,,,,,,5,,,,67,64
73380,note_on,0,0,5,,,,,,,,5,,,,65,45
73400,note_off,80,0,7,,,,,,,,7,,,,39,64
73400,note_off,80,0,13,,,,,,,,14,,,,39,64
73400,note_off,80,0,6,,,,,,,,6,,,,51,64
73400,note_off,80,0,12,,,,,,,,13,,,,39,64
73400,note_off,80,0,11,,,,,,,,12,,,,51,64
73410,note_off,30,0,10,,,,,,,,11,,,,65,64
73410,note_on,0,0,5,,,,,,,,5,,,,67,45
73410,note_off,30,0,5,,,,,,,,5,,,,65,64
73410,note_on,0,0,10,,,,,,,,11,,,,67,45
73440,note_off,30,0,10,,,,,,,,11,,,,67,64
73440,note_on,0,0,10,,,,,,,,11,,,,65,45
73440,note_off,30,0,5,,,,,,,,5,,,,67,64
73440,note_on,0,0,5,,,,,,,,5,,,,65,45
73520,note_off,80,0,10,,,,,,,,11,,,,65,64
73520,note_off,80,0,5,,,,,,,,5,,,,65,64
73560,note_on,160,0,7,,,,,,,,7,,,,39,45
73560,note_on,160,0,11,,,,,,,,12,,,,51,45
73560,note_on,160,0,6,,,,,,,,6,,,,51,45
73560,note_on,40,0,5,,,,,,,,5,,,,65,45
73560,note_on,40,0,10,,,,,,,,11,,,,65,45
73560,note_on,160,0,13,,,,,,,,14,,,,39,30
73560,note_on,160,0,12,,,,,,,,13,,,,39,45
73590,note_off,30,0,5,,,,,,,,5,,,,65,64
73590,note_off,30,0,10,,,,,,,,11,,,,65,64
73590,note_on,0,0,10,,,,,,,,11,,,,67,45
73590,note_on,0,0,5,,,,,,,,5,,,,67,45
73620,note_off,30,0,5,,,,,,,,5,,,,67,64
73620,note_on,0,0,5,,,,,,,,5,,,,65,45
73620,note_off,30,0,10,,,,,,,,11,,,,67,64
73620,note_on,0,0,10,,,,,,,,11,,,,65,45
73640,note_off,80,0,12,,,,,,,,13,,,,39,64
73640,note_off,80,0,7,,,,,,,,7,,,,39,64
73640,note_off,80,0,6,,,,,,,,6,,,,51,64
73640,note_off,80,0,11,,,,,,,,12,,,,51,64
73640,note_off,80,0,13,,,,,,,,14,,,,39,64
73650,note_on,0,0,10,,,,,,,,11,,,,67,45
73650,note_off,30,0,10,,,,,,,,11,,,,65,64
73650,note_on,0,0,5,,,,,,,,5,,,,67,45
73650,note_off,30,0,5,,,,,,,,5,,,,65,64
73680,note_off,30,0,10,,,,,,,,11,,,,67,64
73680,note_on,0,0,10,,,,,,,,11,,,,65,45
73680,note_on,0,0,5,,,,,,,,5,,,,65,45
73680,note_off,30,0,5,,,,,,,,5,,,,67,64
73760,note_off,80,0,10,,,,,,,,11,,,,65,64
73760,note_off,80,0,5,,,,,,,,5,,,,65,64
73800,note_on,40,0,10,,,,,,,,11,,,,65,45
73800,note_on,160,0,12,,,,,,,,13,,,,39,45
73800,note_on,40,0,5,,,,,,,,5,,,,65,45
73800,note_on,160,0,7,,,,,,,,7,,,,39,45
73800,note_on,160,0,11,,,,,,,,12,,,,51,45
73800,note_on,160,0,6,,,,,,,,6,,,,51,45
73800,note_on,160,0,13,,,,,,,,14,,,,39,30
73830,note_off,30,0,5,,,,,,,,5,,,,65,64
73830,note_on,0,0,10,,,,,,,,11,,,,67,45
73830,note_on,0,0,5,,,,,,,,5,,,,67,45
73830,note_off,30,0,10,,,,,,,,11,,,,65,64
73860,note_off,30,0,10,,,,,,,,11,,,,67,64
73860,note_on,0,0,10,,,,,,,,11,,,,65,45
73860,note_on,0,0,5,,,,,,,,5,,,,65,45
73860,note_off,30,0,5,,,,,,,,5,,,,67,64
73880,note_off,80,0,13,,,,,,,,14,,,,39,64
73880,note_off,80,0,6,,,,,,,,6,,,,51,64
73880,note_off,80,0,11,,,,,,,,12,,,,51,64
73880,note_off,80,0,12,,,,,,,,13,,,,39,64
73880,note_off,80,0,7,,,,,,,,7,,,,39,64
73890,note_off,30,0,10,,,,,,,,11,,,,65,64
73890,note_on,0,0,10,,,,,,,,11,,,,67,45
73890,note_on,0,0,5,,,,,,,,5,,,,67,45
73890,note_off,30,0,5,,,,,,,,5,,,,65,64
73920,note_off,30,0,5,,,,,,,,5,,,,67,64
73920,note_on,0,0,5,,,,,,,,5,,,,65,45
73920,note_off,30,0,10,,,,,,,,11,,,,67,64
73920,note_on,0,0,10,,,,,,,,11,,,,65,45
74000,note_off,80,0,5,,,,,,,,5,,,,65,64
74000,note_off,80,0,10,,,,,,,,11,,,,65,64
74040,note_on,160,0,13,,,,,,,,14,,,,39,30
74040,note_on,160,0,7,,,,,,,,7,,,,39,45
74040,note_on,1520,0,4,,,,,,,,4,,,,68,45
74040,note_on,160,0,6,,,,,,,,6,,,,51,45
74040,note_on,160,0,12,,,,,,,,13,,,,39,45
74040,note_on,160,0,11,,,,,,,,12,,,,51,45
74040,note_on,1520,0,9,,,,,,,,10,,,,68,45
74040,note_on,40,0,5,,,,,,,,5,,,,65,45
74040,note_on,40,0,10,,,,,,,,11,,,,65,45
74070,note_off,30,0,4,,,,,,,,4,,,,68,64
74070,note_on,0,0,5,,,,,,,,5,,,,67,45
74070,note_on,0,0,10,,,,,,,,11,,,,67,45
74070,note_off,30,0,5,,,,,,,,5,,,,65,64
74070,note_off,30,0,9,,,,,,,,10,,,,68,64
74070,note_on,0,0,9,,,,,,,,10,,,,70,45
74070,note_on,0,0,4,,,,,,,,4,,,,70,45
74070,note_off,30,0,10,,,,,,,,11,,,,65,64
74100,note_on,0,0,9,,,,,,,,10,,,,68,45
74100,note_off,30,0,9,,,,,,,,10,,,,70,64
74100,note_off,30,0,10,,,,,,,,11,,,,67,64
74100,note_on,0,0,10,,,,,,,,11,,,,65,45
74100,note_off,30,0,4,,,,,,,,4,,,,70,64
74100,note_on,0,0,5,,,,,,,,5,,,,65,45
74100,note_off,30,0,5,,,,,,,,5,,,,67,64
74100,note_on,0,0,4,,,,,,,,4,,,,68,45
74120,note_off,80,0,7,,,,,,,,7,,,,39,64
74120,note_off,80,0,11,,,,,,,,12,,,,51,64
74120,note_off,80,0,6,,,,,,,,6,,,,51,64
74120,note_off,80,0,13,,,,,,,,14,,,,39,64
74120,note_off,80,0,12,,,,,,,,13,,,,39,64
74130,note_on,0,0,10,,,,,,,,11,,,,67,45
74130,note_off,30,0,9,,,,,,,,10,,,,68,64
74130,note_on,0,0,9,,,,,,,,10,,,,70,45
74130,note_off,30,0,10,,,,,,,,11,,,,65,64
74130,note_on,0,0,4,,,,,,,,4,,,,70,45
74130,note_off,30,0,5,,,,,,,,5,,,,65,64
74130,note_on,0,0,5,,,,,,,,5,,,,67,45
74130,note_off,30,0,4,,,,,,,,4,,,,68,64
74160,note_off,30,0,10,,,,,,,,11,,,,67,64
74160,note_on,0,0,5,,,,,,,,5,,,,65,45
74160,note_on,0,0,9,,,,,,,,10,,,,68,45
74160,note_off,30,0,9,,,,,,,,10,,,,70,64
74160,note_off,30,0,4,,,,,,,,4,,,,70,64
74160,note_on,0,0,4,,,,,,,,4,,,,68,45
74160,note_on,0,0,10,,,,,,,,11,,,,65,45
74160,note_off,30,0,5,,,,,,,,5,,,,67,64
74240,note_off,80,0,5,,,,,,,,5,,,,65,64
74240,note_off,80,0,9,,,,,,,,10,,,,68,64
74240,note_off,80,0,10,,,,,,,,11,,,,65,64
74240,note_off,80,0,4,,,,,,,,4,,,,68,64
74280,note_on,160,0,12,,,,,,,,13,,,,39,45
74280,note_on,160,0,6,,,,,,,,6,,,,51,45
74280,note_on,160,0,11,,,,,,,,12,,,,51,45
74280,note_on,40,0,4,,,,,,,,4,,,,68,45
74280,note_on,160,0,13,,,,,,,,14,,,,39,30
74280,note_on,160,0,7,,,,,,,,7,,,,39,45
74280,note_on,40,0,9,,,,,,,,10,,,,68,45
74280,note_on,40,0,10,,,,,,,,11,,,,65,45
74280,note_on,40,0,5,,,,,,,,5,,,,65,45
74310,note_off,30,0,5,,,,,,,,5,,,,65,64
74310,note_on,0,0,9,,,,,,,,10,,,,70,45
74310,note_off,30,0,10,,,,,,,,11,,,,65,64
74310,note_off,30,0,9,,,,,,,,10,,,,68,64
74310,note_on,0,0,10,,,,,,,,11,,,,67,45
74310,note_on,0,0,5,,,,,,,,5,,,,67,45
74310,note_off,30,0,4,,,,,,,,4,,,,68,64
74310,note_on,0,0,4,,,,,,,,4,,,,70,45
74340,note_off,30,0,9,,,,,,,,10,,,,70,64
74340,note_on,0,0,4,,,,,,,,4,,,,68,45
74340,note_off,30,0,4,,,,,,,,4,,,,70,64
74340,note_on,0,0,10,,,,,,,,11,,,,65,45
74340,note_off,30,0,10,,,,,,,,11,,,,67,64
74340,note_on,0,0,9,,,,,,,,10,,,,68,45
74340,note_off,30,0,5,,,,,,,,5,,,,67,64
74340,note_on,0,0,5,,,,,,,,5,,,,65,45
74360,note_off,80,0,12,,,,,,,,13,,,,39,64
74360,note_off,80,0,13,,,,,,,,14,,,,39,64
74360,note_off,80,0,6,,,,,,,,6,,,,51,64
74360,note_off,80,0,11,,,,,,,,12,,,,51,64
74360,note_off,80,0,7,,,,,,,,7,,,,39,64
74370,note_on,0,0,4,,,,,,,,4,,,,70,45
74370,note_on,0,0,5,,,,,,,,5,,,,67,45
74370,note_on,0,0,9,,,,,,,,10,,,,70,45
74370,note_off,30,0,9,,,,,,,,10,,,,68,64
74370,note_off,30,0,10,,,,,,,,11,,,,65,64
74370,note_on,0,0,10,,,,,,,,11,,,,67,45
74370,note_off,30,0,4,,,,,,,,4,,,,68,64
74370,note_off,30,0,5,,,,,,,,5,,,,65,64
74400,note_on,0,0,9,,,,,,,,10,,,,68,45
74400,note_off,30,0,9,,,,,,,,10,,,,70,64
74400,note_off,30,0,10,,,,,,,,11,,,,67,64
74400,note_on,0,0,10,,,,,,,,11,,,,65,45
74400,note_off,30,0,5,,,,,,,,5,,,,67,64
74400,note_on,0,0,5,,,,,,,,5,,,,65,45
74400,note_off,30,0,4,,,,,,,,4,,,,70,64
74400,note_on,0,0,4,,,,,,,,4,,,,68,45
74480,note_off,80,0,4,,,,,,,,4,,,,68,64
74480,note_off,80,0,10,,,,,,,,11,,,,65,64
74480,note_off,80,0,9,,,,,,,,10,,,,68,64
74480,note_off,80,0,5,,,,,,,,5,,,,65,64
74520,note_on,160,0,13,,,,,,,,14,,,,39,30
74520,note_on,160,0,11,,,,,,,,12,,,,51,45
74520,note_on,160,0,6,,,,,,,,6,,,,51,45
74520,note_on,160,0,7,,,,,,,,7,,,,39,45
74520,note_on,40,0,10,,,,,,,,11,,,,65,45
74520,note_on,40,0,5,,,,,,,,5,,,,65,45
74520,note_on,40,0,4,,,,,,,,4,,,,68,45
74520,note_on,160,0,12,,,,,,,,13,,,,39,45
74520,note_on,40,0,9,,,,,,,,10,,,,68,45
74550,note_on,0,0,9,,,,,,,,10,,,,70,45
74550,note_on,0,0,4,,,,,,,,4,,,,70,45
74550,note_off,30,0,4,,,,,,,,4,,,,68,64
74550,note_off,30,0,10,,,,,,,,11,,,,65,64
74550,note_on,0,0,5,,,,,,,,5,,,,67,45
74550,note_off,30,0,5,,,,,,,,5,,,,65,64
74550,note_on,0,0,10,,,,,,,,11,,,,67,45
74550,note_off,30,0,9,,,,,,,,10,,,,68,64
74580,note_on,0,0,5,,,,,,,,5,,,,65,45
74580,note_off,30,0,5,,,,,,,,5,,,,67,64
74580,note_on,0,0,10,,,,,,,,11,,,,65,45
74580,note_on,0,0,4,,,,,,,,4,,,,68,45
74580,note_off,30,0,4,,,,,,,,4,,,,70,64
74580,note_on,0,0,9,,,,,,,,10,,,,68,45
74580,note_off,30,0,9,,,,,,,,10,,,,70,64
74580,note_off,30,0,10,,,,,,,,11,,,,67,64
74600,note_off,80,0,6,,,,,,,,6,,,,51,64
74600,note_off,80,0,12,,,,,,,,13,,,,39,64
74600,note_off,80,0,11,,,,,,,,12,,,,51,64
74600,note_off,80,0,7,,,,,,,,7,,,,39,64
74600,note_off,80,0,13,,,,,,,,14,,,,39,64
74610,note_off,30,0,4,,,,,,,,4,,,,68,64
74610,note_on,0,0,10,,,,,,,,11,,,,67,45
74610,note_off,30,0,10,,,,,,,,11,,,,65,64
74610,note_off,30,0,9,,,,,,,,10,,,,68,64
74610,note_on,0,0,9,,,,,,,,10,,,,70,45
74610,note_on,0,0,4,,,,,,,,4,,,,70,45
74610,note_off,30,0,5,,,,,,,,5,,,,65,64
74610,note_on,0,0,5,,,,,,,,5,,,,67,45
74640,note_on,0,0,4,,,,,,,,4,,,,68,45
74640,note_on,0,0,10,,,,,,,,11,,,,65,45
74640,note_off,30,0,10,,,,,,,,11,,,,67,64
74640,note_on,0,0,9,,,,,,,,10,,,,68,45
74640,note_off,30,0,4,,,,,,,,4,,,,70,64
74640,note_off,30,0,9,,,,,,,,10,,,,70,64
74640,note_off,30,0,5,,,,,,,,5,,,,67,64
74640,note_on,0,0,5,,,,,,,,5,,,,65,45
74720,note_off,80,0,4,,,,,,,,4,,,,68,64
74720,note_off,80,0,5,,,,,,,,5,,,,65,64
74720,note_off,80,0,9,,,,,,,,10,,,,68,64
74720,note_off,80,0,10,,,,,,,,11,,,,65,64
74760,note_on,40,0,5,,,,,,,,5,,,,65,45
74760,note_on,160,0,6,,,,,,,,6,,,,51,45
74760,note_on,40,0,10,,,,,,,,11,,,,65,45
74760,note_on,160,0,13,,,,,,,,14,,,,39,30
74760,note_on,160,0,11,,,,,,,,12,,,,51,45
74760,note_on,40,0,9,,,,,,,,10,,,,68,45
74760,note_on,160,0,12,,,,,,,,13,,,,39,45
74760,note_on,40,0,4,,,,,,,,4,,,,68,45
74760,note_on,160,0,7,,,,,,,,7,,,,39,45
74790,note_off,30,0,10,,,,,,,,11,,,,65,64
74790,note_on,0,0,4,,,,,,,,4,,,,70,45
74790,note_off,30,0,4,,,,,,,,4,,,,68,64
74790,note_on,0,0,5,,,,,,,,5,,,,67,45
74790,note_on,0,0,10,,,,,,,,11,,,,67,45
74790,note_off,30,0,5,,,,,,,,5,,,,65,64
74790,note_on,0,0,9,,,,,,,,10,,,,70,45
74790,note_off,30,0,9,,,,,,,,10,,,,68,64
74820,note_on,0,0,4,,,,,,,,4,,,,68,45
74820,note_on,0,0,9,,,,,,,,10,,,,68,45
74820,note_off,30,0,5,,,,,,,,5,,,,67,64
74820,note_on,0,0,5,,,,,,,,5,,,,65,45
74820,note_off,30,0,9,,,,,,,,10,,,,70,64
74820,note_off,30,0,4,,,,,,,,4,,,,70,64
74820,note_off,30,0,10,,,,,,,,11,,,,67,64
74820,note_on,0,0,10,,,,,,,,11,,,,65,45
74840,note_off,80,0,12,,,,,,,,13,,,,39,64
74840,note_off,80,0,13,,,,,,,,14,,,,39,64
74840,note_off,80,0,7,,,,,,,,7,,,,39,64
74840,note_off,80,0,6,,,,,,,,6,,,,51,64
74840,note_off,80,0,11,,,,,,,,12,,,,51,64
74850,note_off,30,0,10,,,,,,,,11,,,,65,64
74850,note_on,0,0,10,,,,,,,,11,,,,67,45
74850,note_on,0,0,4,,,,,,,,4,,,,70,45
74850,note_off,30,0,4,,,,,,,,4,,,,68,64
74850,note_on,0,0,5,,,,,,,,5,,,,67,45
74850,note_off,30,0,9,,,,,,,,10,,,,68,64
74850,note_off,30,0,5,,,,,,,,5,,,,65,64
74850,note_on,0,0,9,,,,,,,,10,,,,70,45
74880,note_on,0,0,5,,,,,,,,5,,,,65,45
74880,note_on,0,0,4,,,,,,,,4,,,,68,45
74880,note_off,30,0,4,,,,,,,,4,,,,70,64
74880,note_off,30,0,5,,,,,,,,5,,,,67,64
74880,note_on,0,0,9,,,,,,,,10,,,,68,45
74880,note_on,0,0,10,,,,,,,,11,,,,65,45
74880,note_off,30,0,10,,,,,,,,11,,,,67,64
74880,note_off,30,0,9,,,,,,,,10,,,,70,64
74960,note_off,80,0,9,,,,,,,,10,,,,68,64
74960,note_off,80,0,4,,,,,,,,4,,,,68,64
74960,note_off,80,0,5,,,,,,,,5,,,,65,64
74960,note_off,80,0,10,,,,,,,,11,,,,65,64
75000,note_on,40,0,4,,,,,,,,4,,,,68,45
75000,note_on,160,0,6,,,,,,,,6,,,,51,45
75000,note_on,40,0,9,,,,,,,,10,,,,68,45
75000,note_on,160,0,13,,,,,,,,14,,,,39,30
75000,note_on,160,0,7,,,,,,,,7,,,,39,45
75000,note_on,2480,0,8,,,,,,,,8,,,,70,45
75000,note_on,160,0,12,,,,,,,,13,,,,39,45
75000,note_on,40,0,10,,,,,,,,11,,,,65,45
75000,note_on,40,0,5,,,,,,,,5,,,,65,45
75000,note_on,160,0,11,,,,,,,,12,,,,51,45
75000,note_on,2480,0,3,,,,,,,,3,,,,70,45
75030,note_off,30,0,8,,,,,,,,8,,,,70,64
75030,note_on,0,0,8,,,,,,,,8,,,,72,45
75030,note_off,30,0,5,,,,,,,,5,,,,65,64
75030,note_on,0,0,10,,,,,,,,11,,,,67,45
75030,note_off,30,0,3,,,,,,,,3,,,,70,64
75030,note_on,0,0,3,,,,,,,,3,,,,72,45
75030,note_off,30,0,4,,,,,,,,4,,,,68,64
75030,note_off,30,0,9,,,,,,,,10,,,,68,64
75030,note_on,0,0,9,,,,,,,,10,,,,70,45
75030,note_on,0,0,5,,,,,,,,5,,,,67,45
75030,note_off,30,0,10,,,,,,,,11,,,,65,64
75030,note_on,0,0,4,,,,,,,,4,,,,70,45
75060,note_off,30,0,9,,,,,,,,10,,,,70,64
75060,note_on,0,0,9,,,,,,,,10,,,,68,45
75060,note_off,30,0,8,,,,,,,,8,,,,72,64
75060,note_off,30,0,10,,,,,,,,11,,,,67,64
75060,note_on,0,0,10,,,,,,,,11,,,,65,45
75060,note_off,30,0,5,,,,,,,,5,,,,67,64
75060,note_on,0,0,3,,,,,,,,3,,,,70,45
75060,note_off,30,0,3,,,,,,,,3,,,,72,64
75060,note_on,0,0,4,,,,,,,,4,,,,68,45
75060,note_off,30,0,4,,,,,,,,4,,,,70,64
75060,note_on,0,0,8,,,,,,,,8,,,,70,45
75060,note_on,0,0,5,,,,,,,,5,,,,65,45
75080,note_off,80,0,11,,,,,,,,12,,,,51,64
75080,note_off,80,0,7,,,,,,,,7,,,,39,64
75080,note_off,80,0,13,,,,,,,,14,,,,39,64
75080,note_off,80,0,6,,,,,,,,6,,,,51,64
75080,note_off,80,0,12,,,,,,,,13,,,,39,64
75090,note_off,30,0,3,,,,,,,,3,,,,70,64
75090,note_on,0,0,3,,,,,,,,3,,,,72,45
75090,note_off,30,0,5,,,,,,,,5,,,,65,64
75090,note_on,0,0,5,,,,,,,,5,,,,67,45
75090,note_on,0,0,9,,,,,,,,10,,,,70,45
75090,note_on,0,0,8,,,,,,,,8,,,,72,45
75090,note_off,30,0,10,,,,,,,,11,,,,65,64
75090,note_off,30,0,9,,,,,,,,10,,,,68,64
75090,note_off,30,0,4,,,,,,,,4,,,,68,64
75090,note_off,30,0,8,,,,,,,,8,,,,70,64
75090,note_on,0,0,10,,,,,,,,11,,,,67,45
75090,note_on,0,0,4,,,,,,,,4,,,,70,45
75120,note_on,0,0,4,,,,,,,,4,,,,68,45
75120,note_off,30,0,4,,,,,,,,4,,,,70,64
75120,note_off,30,0,3,,,,,,,,3,,,,72,64
75120,note_on,0,0,3,,,,,,,,3,,,,70,45
75120,note_on,0,0,8,,,,,,,,8,,,,70,45
75120,note_off,30,0,8,,,,,,,,8,,,,72,64
75120,note_on,0,0,9,,,,,,,,10,,,,68,45
75120,note_off,30,0,9,,,,,,,,10,,,,70,64
75120,note_off,30,0,5,,,,,,,,5,,,,67,64
75120,note_on,0,0,5,,,,,,,,5,,,,65,45
75120,note_off,30,0,10,,,,,,,,11,,,,67,64
75120,note_on,0,0,10,,,,,,,,11,,,,65,45
75200,note_off,80,0,4,,,,,,,,4,,,,68,64
75200,note_off,80,0,5,,,,,,,,5,,,,65,64
75200,note_off,80,0,10,,,,,,,,11,,,,65,64
75200,note_off,80,0,3,,,,,,,,3,,,,70,64
75200,note_off,80,0,8,,,,,,,,8,,,,70,64
75200,note_off,80,0,9,,,,,,,,10,,,,68,64
75240,note_on,160,0,12,,,,,,,,13,,,,39,45
75240,note_on,160,0,11,,,,,,,,12,,,,51,45
75240,note_on,40,0,3,,,,,,,,3,,,,70,45
75240,note_on,160,0,6,,,,,,,,6,,,,51,45
75240,note_on,40,0,9,,,,,,,,10,,,,68,45
75240,note_on,40,0,10,,,,,,,,11,,,,65,45
75240,note_on,40,0,8,,,,,,,,8,,,,70,45
75240,note_on,40,0,4,,,,,,,,4,,,,68,45
75240,note_on,160,0,13,,,,,,,,14,,,,39,30
75240,note_on,40,0,5,,,,,,,,5,,,,65,45
75240,note_on,160,0,7,,,,,,,,7,,,,39,45
75270,note_on,0,0,8,,,,,,,,8,,,,72,45
75270,note_on,0,0,5,,,,,,,,5,,,,67,45
75270,note_off,30,0,10,,,,,,,,11,,,,65,64
75270,note_off,30,0,3,,,,,,,,3,,,,70,64
75270,note_on,0,0,10,,,,,,,,11,,,,67,45
75270,note_off,30,0,4,,,,,,,,4,,,,68,64
75270,note_on,0,0,4,,,,,,,,4,,,,70,45
75270,note_on,0,0,3,,,,,,,,3,,,,72,45
75270,note_off,30,0,8,,,,,,,,8,,,,70,64
75270,note_off,30,0,9,,,,,,,,10,,,,68,64
75270,note_on,0,0,9,,,,,,,,10,,,,70,45
75270,note_off,30,0,5,,,,,,,,5,,,,65,64
75300,note_on,0,0,3,,,,,,,,3,,,,70,45
75300,note_off,30,0,3,,,,,,,,3,,,,72,64
75300,note_on,0,0,10,,,,,,,,11,,,,65,45
75300,note_off,30,0,10,,,,,,,,11,,,,67,64
75300,note_off,30,0,8,,,,,,,,8,,,,72,64
75300,note_on,0,0,8,,,,,,,,8,,,,70,45
75300,note_off,30,0,4,,,,,,,,4,,,,70,64
75300,note_on,0,0,4,,,,,,,,4,,,,68,45
75300,note_on,0,0,5,,,,,,,,5,,,,65,45
75300,note_off,30,0,5,,,,,,,,5,,,,67,64
75300,note_off,30,0,9,,,,,,,,10,,,,70,64
75300,note_on,0,0,9,,,,,,,,10,,,,68,45
75320,note_off,80,0,12,,,,,,,,13,,,,39,64
75320,note_off,80,0,7,,,,,,,,7,,,,39,64
75320,note_off,80,0,11,,,,,,,,12,,,,51,64
75320,note_off,80,0,13,,,,,,,,14,,,,39,64
75320,note_off,80,0,6,,,,,,,,6,,,,51,64
75330,note_on,0,0,4,,,,,,,,4,,,,70,45
75330,note_on,0,0,3,,,,,,,,3,,,,72,45
75330,note_off,30,0,3,,,,,,,,3,,,,70,64
75330,note_on,0,0,10,,,,,,,,11,,,,67,45
75330,note_off,30,0,10,,,,,,,,11,,,,65,64
75330,note_on,0,0,9,,,,,,,,10,,,,70,45
75330,note_off,30,0,9,,,,,,,,10,,,,68,64
75330,note_on,0,0,8,,,,,,,,8,,,,72,45
75330,note_off,30,0,4,,,,,,,,4,,,,68,64
75330,note_off,30,0,8,,,,,,,,8,,,,70,64
75330,note_on,0,0,5,,,,,,,,5,,,,67,45
75330,note_off,30,0,5,,,,,,,,5,,,,65,64
75360,note_on,0,0,4,,,,,,,,4,,,,68,45
75360,note_off,30,0,9,,,,,,,,10,,,,70,64
75360,note_off,30,0,8,,,,,,,,8,,,,72,64
75360,note_off,30,0,3,,,,,,,,3,,,,72,64
75360,note_on,0,0,3,,,,,,,,3,,,,70,45
75360,note_on,0,0,8,,,,,,,,8,,,,70,45
75360,note_off,30,0,5,,,,,,,,5,,,,67,64
75360,note_on,0,0,5,,,,,,,,5,,,,65,45
75360,note_on,0,0,9,,,,,,,,10,,,,68,45
75360,note_on,0,0,10,,,,,,,,11,,,,65,45
75360,note_off,30,0,10,,,,,,,,11,,,,67,64
75360,note_off,30,0,4,,,,,,,,4,,,,70,64
75440,note_off,80,0,10,,,,,,,,11,,,,65,64
75440,note_off,80,0,4,,,,,,,,4,,,,68,64
75440,note_off,80,0,8,,,,,,,,8,,,,70,64
75440,note_off,80,0,9,,,,,,,,10,,,,68,64
75440,note_off,80,0,5,,,,,,,,5,,,,65,64
75440,note_off,80,0,3,,,,,,,,3,,,,70,64
75480,note_on,160,0,6,,,,,,,,6,,,,51,45
75480,note_on,160,0,13,,,,,,,,14,,,,39,30
75480,note_on,160,0,11,,,,,,,,12,,,,51,45
75480,note_on,40,0,8,,,,,,,,8,,,,70,45
75480,note_on,40,0,5,,,,,,,,5,,,,65,45
75480,note_on,160,0,12,,,,,,,,13,,,,39,45
75480,note_on,40,0,10,,,,,,,,11,,,,65,45
75480,note_on,160,0,7,,,,,,,,7,,,,39,45
75480,note_on,40,0,3,,,,,,,,3,,,,70,45
75480,note_on,40,0,9,,,,,,,,10,,,,68,45
75480,note_on,40,0,4,,,,,,,,4,,,,68,45
75510,note_on,0,0,4,,,,,,,,4,,,,70,45
75510,note_off,30,0,4,,,,,,,,4,,,,68,64
75510,note_off,30,0,3,,,,,,,,3,,,,70,64
75510,note_on,0,0,3,,,,,,,,3,,,,72,45
75510,note_on,0,0,10,,,,,,,,11,,,,67,45
75510,note_off,30,0,9,,,,,,,,10,,,,68,64
75510,note_on,0,0,9,,,,,,,,10,,,,70,45
75510,note_on,0,0,8,,,,,,,,8,,,,72,45
75510,note_off,30,0,8,,,,,,,,8,,,,70,64
75510,note_off,30,0,10,,,,,,,,11,,,,65,64
75510,note_on,0,0,5,,,,,,,,5,,,,67,45
75510,note_off,30,0,5,,,,,,,,5,,,,65,64
75540,note_on,0,0,4,,,,,,,,4,,,,68,45
75540,note_on,0,0,10,,,,,,,,11,,,,65,45
75540,note_on,0,0,9,,,,,,,,10,,,,68,45
75540,note_off,30,0,10,,,,,,,,11,,,,67,64
75540,note_on,0,0,8,,,,,,,,8,,,,70,45
75540,note_off,30,0,8,,,,,,,,8,,,,72,64
75540,note_off,30,0,5,,,,,,,,5,,,,67,64
75540,note_off,30,0,9,,,,,,,,10,,,,70,64
75540,note_on,0,0,5,,,,,,,,5,,,,65,45
75540,note_on,0,0,3,,,,,,,,3,,,,70,45
75540,note_off,30,0,3,,,,,,,,3,,,,72,64
75540,note_off,30,0,4,,,,,,,,4,,,,70,64
75560,note_off,80,0,13,,,,,,,,14,,,,39,64
75560,note_off,80,0,12,,,,,,,,13,,,,39,64
75560,note_off,80,0,6,,,,,,,,6,,,,51,64
75560,note_off,80,0,11,,,,,,,,12,,,,51,64
75560,note_off,80,0,7,,,,,,,,7,,,,39,64
75570,note_on,0,0,9,,,,,,,,10,,,,70,45
75570,note_on,0,0,8,,,,,,,,8,,,,72,45
75570,note_off,30,0,8,,,,,,,,8,,,,70,64
75570,note_on,0,0,10,,,,,,,,11,,,,67,45
75570,note_on,0,0,4,,,,,,,,4,,,,70,45
75570,note_off,30,0,10,,,,,,,,11,,,,65,64
75570,note_off,30,0,3,,,,,,,,3,,,,70,64
75570,note_on,0,0,3,,,,,,,,3,,,,72,45
75570,note_off,30,0,5,,,,,,,,5,,,,65,64
75570,note_on,0,0,5,,,,,,,,5,,,,67,45
75570,note_off,30,0,9,,,,,,,,10,,,,68,64
75570,note_off,30,0,4,,,,,,,,4,,,,68,64
75600,note_off,30,0,8,,,,,,,,8,,,,72,64
75600,note_on,0,0,9,,,,,,,,10,,,,68,45
75600,note_off,30,0,9,,,,,,,,10,,,,70,64
75600,note_on,0,0,5,,,,,,,,5,,,,65,45
75600,note_off,30,0,5,,,,,,,,5,,,,67,64
75600,note_on,0,0,8,,,,,,,,8,,,,70,45
75600,note_on,0,0,4,,,,,,,,4,,,,68,45
75600,note_off,30,0,4,,,,,,,,4,,,,70,64
75600,note_on,0,0,10,,,,,,,,11,,,,65,45
75600,note_on,0,0,3,,,,,,,,3,,,,70,45
75600,note_off,30,0,3,,,,,,,,3,,,,72,64
75600,note_off,30,0,10,,,,,,,,11,,,,67,64
75680,note_off,80,0,10,,,,,,,,11,,,,65,64
75680,note_off,80,0,4,,,,,,,,4,,,,68,64
75680,note_off,80,0,8,,,,,,,,8,,,,70,64
75680,note_off,80,0,3,,,,,,,,3,,,,70,64
75680,note_off,80,0,9,,,,,,,,10,,,,68,64
75680,note_off,80,0,5,,,,,,,,5,,,,65,64
75720,note_on,40,0,10,,,,,,,,11,,,,65,45
75720,note_on,160,0,11,,,,,,,,12,,,,51,45
75720,note_on,160,0,6,,,,,,,,6,,,,51,45
75720,note_on,40,0,5,,,,,,,,5,,,,65,45
75720,note_on,40,0,9,,,,,,,,10,,,,68,45
75720,note_on,40,0,3,,,,,,,,3,,,,70,45
75720,note_on,160,0,12,,,,,,,,13,,,,39,45
75720,note_on,40,0,4,,,,,,,,4,,,,68,45
75720,note_on,160,0,7,,,,,,,,7,,,,39,45
75720,note_on,160,0,13,,,,,,,,14,,,,39,30
75720,note_on,40,0,8,,,,,,,,8,,,,70,45
75750,note_on,0,0,4,,,,,,,,4,,,,70,45
75750,note_off,30,0,4,,,,,,,,4,,,,68,64
75750,note_on,0,0,3,,,,,,,,3,,,,72,45
75750,note_off,30,0,3,,,,,,,,3,,,,70,64
75750,note_off,30,0,8,,,,,,,,8,,,,70,64
75750,note_on,0,0,5,,,,,,,,5,,,,67,45
75750,note_on,0,0,8,,,,,,,,8,,,,72,45
75750,note_on,0,0,9,,,,,,,,10,,,,70,45
75750,note_off,30,0,9,,,,,,,,10,,,,68,64
75750,note_on,0,0,10,,,,,,,,11,,,,67,45
75750,note_off,30,0,5,,,,,,,,5,,,,65,64
75750,note_off,30,0,10,,,,,,,,11,,,,65,64
75780,note_on,0,0,5,,,,,,,,5,,,,65,45
75780,note_off,30,0,3,,,,,,,,3,,,,72,64
75780,note_off,30,0,10,,,,,,,,11,,,,67,64
75780,note_on,0,0,8,,,,,,,,8,,,,70,45
75780,note_off,30,0,5,,,,,,,,5,,,,67,64
75780,note_off,30,0,8,,,,,,,,8,,,,72,64
75780,note_off,30,0,9,,,,,,,,10,,,,70,64
75780,note_off,30,0,4,,,,,,,,4,,,,70,64
75780,note_on,0,0,4,,,,,,,,4,,,,68,45
75780,note_on,0,0,9,,,,,,,,10,,,,68,45
75780,note_on,0,0,10,,,,,,,,11,,,,65,45
75780,note_on,0,0,3,,,,,,,,3,,,,70,45
75800,note_off,80,0,12,,,,,,,,13,,,,39,64
75800,note_off,80,0,13,,,,,,,,14,,,,39,64
75800,note_off,80,0,11,,,,,,,,12,,,,51,64
75800,note_off,80,0,7,,,,,,,,7,,,,39,64
75800,note_off,80,0,6,,,,,,,,6,,,,51,64
75810,note_off,30,0,10,,,,,,,,11,,,,65,64
75810,note_on,0,0,10,,,,,,,,11,,,,67,45
75810,note_on,0,0,9,,,,,,,,10,,,,70,45
75810,note_off,30,0,9,,,,,,,,10,,,,68,64
75810,note_off,30,0,5,,,,,,,,5,,,,65,64
75810,note_on,0,0,5,,,,,,,,5,,,,67,45
75810,note_off,30,0,8,,,,,,,,8,,,,70,64
75810,note_on,0,0,8,,,,,,,,8,,,,72,45
75810,note_off,30,0,4,,,,,,,,4,,,,68,64
75810,note_on,0,0,4,,,,,,,,4,,,,70,45
75810,note_off,30,0,3,,,,,,,,3,,,,70,64
75810,note_on,0,0,3,,,,,,,,3,,,,72,45
75840,note_off,30,0,4,,,,,,,,4,,,,70,64
75840,note_on,0,0,10,,,,,,,,11,,,,65,45
75840,note_off,30,0,10,,,,,,,,11,,,,67,64
75840,note_on,0,0,9,,,,,,,,10,,,,68,45
75840,note_off,30,0,9,,,,,,,,10,,,,70,64
75840,note_on,0,0,4,,,,,,,,4,,,,68,45
75840,note_on,0,0,5,,,,,,,,5,,,,65,45
75840,note_off,30,0,5,,,,,,,,5,,,,67,64
75840,note_on,0,0,3,,,,,,,,3,,,,70,45
75840,note_on,0,0,8,,,,,,,,8,,,,70,45
75840,note_off,30,0,3,,,,,,,,3,,,,72,64
75840,note_off,30,0,8,,,,,,,,8,,,,72,64
75920,note_off,80,0,4,,,,,,,,4,,,,68,64
75920,note_off,80,0,10,,,,,,,,11,,,,65,64
75920,note_off,80,0,3,,,,,,,,3,,,,70,64
75920,note_off,80,0,5,,,,,,,,5,,,,65,64
75920,note_off,80,0,8,,,,,,,,8,,,,70,64
75920,note_off,80,0,9,,,,,,,,10,,,,68,64
75960,note_on,40,0,9,,,,,,,,10,,,,68,45
75960,note_on,40,0,4,,,,,,,,4,,,,68,45
75960,note_on,160,0,13,,,,,,,,14,,,,38,30
75960,note_on,160,0,11,,,,,,,,12,,,,50,45
75960,note_on,40,0,3,,,,,,,,3,,,,70,45
75960,note_on,160,0,7,,,,,,,,7,,,,38,45
75960,note_on,40,0,5,,,,,,,,5,,,,65,45
75960,note_on,160,0,6,,,,,,,,6,,,,50,45
75960,note_on,160,0,12,,,,,,,,13,,,,38,45
75960,note_on,40,0,10,,,,,,,,11,,,,65,45
75960,note_on,40,0,8,,,,,,,,8,,,,70,45
75990,note_off,30,0,10,,,,,,,,11,,,,65,64
75990,note_on,0,0,9,,,,,,,,10,,,,70,45
75990,note_off,30,0,9,,,,,,,,10,,,,68,64
75990,note_on,0,0,8,,,,,,,,8,,,,72,45
75990,note_off,30,0,4,,,,,,,,4,,,,68,64
75990,note_on,0,0,4,,,,,,,,4,,,,70,45
75990,note_off,30,0,8,,,,,,,,8,,,,70,64
75990,note_off,30,0,5,,,,,,,,5,,,,65,64
75990,note_on,0,0,5,,,,,,,,5,,,,67,45
75990,note_off,30,0,3,,,,,,,,3,,,,70,64
75990,note_on,0,0,3,,,,,,,,3,,,,72,45
75990,note_on,0,0,10,,,,,,,,11,,,,67,45
76020,note_off,30,0,4,,,,,,,,4,,,,70,64
76020,note_off,30,0,5,,,,,,,,5,,,,67,64
76020,note_on,0,0,5,,,,,,,,5,,,,65,45
76020,note_off,30,0,9,,,,,,,,10,,,,70,64
76020,note_on,0,0,4,,,,,,,,4,,,,68,45
76020,note_on,0,0,9,,,,,,,,10,,,,68,45
76020,note_on,0,0,10,,,,,,,,11,,,,65,45
76020,note_off,30,0,8,,,,,,,,8,,,,72,64
76020,note_on,0,0,8,,,,,,,,8,,,,70,45
76020,note_on,0,0,3,,,,,,,,3,,,,70,45
76020,note_off,30,0,3,,,,,,,,3,,,,72,64
76020,note_off,30,0,10,,,,,,,,11,,,,67,64
76040,note_off,80,0,12,,,,,,,,13,,,,38,64
76040,note_off,80,0,7,,,,,,,,7,,,,38,64
76040,note_off,80,0,6,,,,,,,,6,,,,50,64
76040,note_off,80,0,11,,,,,,,,12,,,,50,64
76040,note_off,80,0,13,,,,,,,,14,,,,38,64
76050,note_on,0,0,10,,,,,,,,11,,,,67,45
76050,note_off,30,0,10,,,,,,,,11,,,,65,64
76050,note_on,0,0,9,,,,,,,,10,,,,70,45
76050,note_on,0,0,8,,,,,,,,8,,,,72,45
76050,note_on,0,0,3,,,,,,,,3,,,,72,45
76050,note_off,30,0,3,,,,,,,,3,,,,70,64
76050,note_off,30,0,8,,,,,,,,8,,,,70,64
76050,note_off,30,0,4,,,,,,,,4,,,,68,64
76050,note_on,0,0,4,,,,,,,,4,,,,70,45
76050,note_on,0,0,5,,,,,,,,5,,,,67,45
76050,note_off,30,0,5,,,,,,,,5,,,,65,64
76050,note_off,30,0,9,,,,,,,,10,,,,68,64
76080,note_on,0,0,5,,,,,,,,5,,,,65,45
76080,note_off,30,0,4,,,,,,,,4,,,,70,64
76080,note_on,0,0,4,,,,,,,,4,,,,68,45
76080,note_on,0,0,9,,,,,,,,10,,,,68,45
76080,note_off,30,0,3,,,,,,,,3,,,,72,64
76080,note_off,30,0,10,,,,,,,,11,,,,67,64
76080,note_on,0,0,10,,,,,,,,11,,,,65,45
76080,note_off,30,0,5,,,,,,,,5,,,,67,64
76080,note_on,0,0,8,,,,,,,,8,,,,70,45
76080,note_off,30,0,8,,,,,,,,8,,,,72,64
76080,note_off,30,0,9,,,,,,,,10,,,,70,64
76080,note_on,0,0,3,,,,,,,,3,,,,70,45
76160,note_off,80,0,9,,,,,,,,10,,,,68,64
76160,note_off,80,0,3,,,,,,,,3,,,,70,64
76160,note_off,80,0,10,,,,,,,,11,,,,65,64
76160,note_off,80,0,5,,,,,,,,5,,,,65,64
76160,note_off,80,0,8,,,,,,,,8,,,,70,64
76160,note_off,80,0,4,,,,,,,,4,,,,68,64
76200,note_on,40,0,3,,,,,,,,3,,,,70,45
76200,note_on,40,0,10,,,,,,,,11,,,,65,45
76200,note_on,160,0,13,,,,,,,,14,,,,38,30
76200,note_on,160,0,7,,,,,,,,7,,,,38,45
76200,note_on,40,0,9,,,,,,,,10,,,,68,45
76200,note_on,40,0,8,,,,,,,,8,,,,70,45
76200,note_on,40,0,4,,,,,,,,4,,,,68,45
76200,note_on,160,0,11,,,,,,,,12,,,,50,45
76200,note_on,160,0,6,,,,,,,,6,,,,50,45
76200,note_on,160,0,12,,,,,,,,13,,,,38,45
76200,note_on,40,0,5,,,,,,,,5,,,,65,45
76230,note_on,0,0,5,,,,,,,,5,,,,67,45
76230,note_on,0,0,10,,,,,,,,11,,,,67,45
76230,note_on,0,0,9,,,,,,,,10,,,,70,45
76230,note_off,30,0,5,,,,,,,,5,,,,65,64
76230,note_off,30,0,10,,,,,,,,11,,,,65,64
76230,note_on,0,0,8,,,,,,,,8,,,,72,45
76230,note_on,0,0,4,,,,,,,,4,,,,70,45
76230,note_off,30,0,9,,,,,,,,10,,,,68,64
76230,note_off,30,0,4,,,,,,,,4,,,,68,64
76230,note_off,30,0,3,,,,,,,,3,,,,70,64
76230,note_off,30,0,8,,,,,,,,8,,,,70,64
76230,note_on,0,0,3,,,,,,,,3,,,,72,45
76260,note_on,0,0,4,,,,,,,,4,,,,68,45
76260,note_off,30,0,9,,,,,,,,10,,,,70,64
76260,note_off,30,0,4,,,,,,,,4,,,,70,64
76260,note_on,0,0,9,,,,,,,,10,,,,68,45
76260,note_on,0,0,5,,,,,,,,5,,,,65,45
76260,note_off,30,0,5,,,,,,,,5,,,,67,64
76260,note_on,0,0,10,,,,,,,,11,,,,65,45
76260,note_off,30,0,3,,,,,,,,3,,,,72,64
76260,note_on,0,0,3,,,,,,,,3,,,,70,45
76260,note_off,30,0,8,,,,,,,,8,,,,72,64
76260,note_on,0,0,8,,,,,,,,8,,,,70,45
76260,note_off,30,0,10,,,,,,,,11,,,,67,64
76280,note_off,80,0,6,,,,,,,,6,,,,50,64
76280,note_off,80,0,11,,,,,,,,12,,,,50,64
76280,note_off,80,0,12,,,,,,,,13,,,,38,64
76280,note_off,80,0,13,,,,,,,,14,,,,38,64
76280,note_off,80,0,7,,,,,,,,7,,,,38,64
76290,note_off,30,0,3,,,,,,,,3,,,,70,64
76290,note_on,0,0,3,,,,,,,,3,,,,72,45
76290,note_off,30,0,10,,,,,,,,11,,,,65,64
76290,note_off,30,0,9,,,,,,,,10,,,,68,64
76290,note_on,0,0,8,,,,,,,,8,,,,72,45
76290,note_off,30,0,8,,,,,,,,8,,,,70,64
76290,note_on,0,0,5,,,,,,,,5,,,,67,45
76290,note_off,30,0,5,,,,,,,,5,,,,65,64
76290,note_on,0,0,10,,,,,,,,11,,,,67,45
76290,note_off,30,0,4,,,,,,,,4,,,,68,64
76290,note_on,0,0,4,,,,,,,,4,,,,70,45
76290,note_on,0,0,9,,,,,,,,10,,,,70,45
76320,note_off,30,0,8,,,,,,,,8,,,,72,64
76320,note_on,0,0,8,,,,,,,,8,,,,70,45
76320,note_off,30,0,3,,,,,,,,3,,,,72,64
76320,note_on,0,0,4,,,,,,,,4,,,,68,45
76320,note_on,0,0,3,,,,,,,,3,,,,70,45
76320,note_off,30,0,9,,,,,,,,10,,,,70,64
76320,note_on,0,0,9,,,,,,,,10,,,,68,45
76320,note_on,0,0,5,,,,,,,,5,,,,65,45
76320,note_off,30,0,5,,,,,,,,5,,,,67,64
76320,note_off,30,0,10,,,,,,,,11,,,,67,64
76320,note_on,0,0,10,,,,,,,,11,,,,65,45
76320,note_off,30,0,4,,,,,,,,4,,,,70,64
76400,note_off,80,0,9,,,,,,,,10,,,,68,64
76400,note_off,80,0,10,,,,,,,,11,,,,65,64
76400,note_off,80,0,8,,,,,,,,8,,,,70,64
76400,note_off,80,0,5,,,,,,,,5,,,,65,64
76400,note_off,80,0,3,,,,,,,,3,,,,70,64
76400,note_off,80,0,4,,,,,,,,4,,,,68,64
76440,note_on,160,0,7,,,,,,,,7,,,,38,45
76440,note_on,40,0,5,,,,,,,,5,,,,65,45
76440,note_on,40,0,3,,,,,,,,3,,,,70,45
76440,note_on,160,0,13,,,,,,,,14,,,,38,30
76440,note_on,160,0,12,,,,,,,,13,,,,38,45
76440,note_on,40,0,4,,,,,,,,4,,,,68,45
76440,note_on,160,0,11,,,,,,,,12,,,,50,45
76440,note_on,160,0,6,,,,,,,,6,,,,50,45
76440,note_on,40,0,10,,,,,,,,11,,,,65,45
76440,note_on,40,0,8,,,,,,,,8,,,,70,45
76440,note_on,40,0,9,,,,,,,,10,,,,68,45
76470,note_on,0,0,10,,,,,,,,11,,,,67,45
76470,note_off,30,0,3,,,,,,,,3,,,,70,64
76470,note_on,0,0,3,,,,,,,,3,,,,72,45
76470,note_on,0,0,4,,,,,,,,4,,,,70,45
76470,note_off,30,0,8,,,,,,,,8,,,,70,64
76470,note_on,0,0,9,,,,,,,,10,,,,70,45
76470,note_off,30,0,4,,,,,,,,4,,,,68,64
76470,note_off,30,0,5,,,,,,,,5,,,,65,64
76470,note_on,0,0,5,,,,,,,,5,,,,67,45
76470,note_on,0,0,8,,,,,,,,8,,,,72,45
76470,note_off,30,0,9,,,,,,,,10,,,,68,64
76470,note_off,30,0,10,,,,,,,,11,,,,65,64
76500,note_on,0,0,3,,,,,,,,3,,,,70,45
76500,note_off,30,0,3,,,,,,,,3,,,,72,64
76500,note_on,0,0,8,,,,,,,,8,,,,70,45
76500,note_off,30,0,8,,,,,,,,8,,,,72,64
76500,note_on,0,0,9,,,,,,,,10,,,,68,45
76500,note_on,0,0,10,,,,,,,,11,,,,65,45
76500,note_off,30,0,10,,,,,,,,11,,,,67,64
76500,note_on,0,0,5,,,,,,,,5,,,,65,45
76500,note_off,30,0,5,,,,,,,,5,,,,67,64
76500,note_off,30,0,9,,,,,,,,10,,,,70,64
76500,note_on,0,0,4,,,,,,,,4,,,,68,45
76500,note_off,30,0,4,,,,,,,,4,,,,70,64
76520,note_off,80,0,12,,,,,,,,13,,,,38,64
76520,note_off,80,0,6,,,,,,,,6,,,,50,64
76520,note_off,80,0,13,,,,,,,,14,,,,38,64
76520,note_off,80,0,7,,,,,,,,7,,,,38,64
76520,note_off,80,0,11,,,,,,,,12,,,,50,64
76530,note_on,0,0,5,,,,,,,,5,,,,67,45
76530,note_off,30,0,8,,,,,,,,8,,,,70,64
76530,note_on,0,0,8,,,,,,,,8,,,,72,45
76530,note_off,30,0,3,,,,,,,,3,,,,70,64
76530,note_on,0,0,3,,,,,,,,3,,,,72,45
76530,note_on,0,0,9,,,,,,,,10,,,,70,45
76530,note_off,30,0,9,,,,,,,,10,,,,68,64
76530,note_on,0,0,4,,,,,,,,4,,,,70,45
76530,note_off,30,0,5,,,,,,,,5,,,,65,64
76530,note_off,30,0,10,,,,,,,,11,,,,65,64
76530,note_off,30,0,4,,,,,,,,4,,,,68,64
76530,note_on,0,0,10,,,,,,,,11,,,,67,45
76560,note_off,30,0,3,,,,,,,,3,,,,72,64
76560,note_on,0,0,3,,,,,,,,3,,,,70,45
76560,note_off,30,0,9,,,,,,,,10,,,,70,64
76560,note_on,0,0,5,,,,,,,,5,,,,65,45
76560,note_on,0,0,9,,,,,,,,10,,,,68,45
76560,note_on,0,0,8,,,,,,,,8,,,,70,45
76560,note_off,30,0,8,,,,,,,,8,,,,72,64
76560,note_on,0,0,4,,,,,,,,4,,,,68,45
76560,note_off,30,0,4,,,,,,,,4,,,,70,64
76560,note_off,30,0,5,,,,,,,,5,,,,67,64
76560,note_off,30,0,10,,,,,,,,11,,,,67,64
76560,note_on,0,0,10,,,,,,,,11,,,,65,45
76640,note_off,80,0,5,,,,,,,,5,,,,65,64
76640,note_off,80,0,9,,,,,,,,10,,,,68,64
76640,note_off,80,0,3,,,,,,,,3,,,,70,64
76640,note_off,80,0,10,,,,,,,,11,,,,65,64
76640,note_off,80,0,4,,,,,,,,4,,,,68,64
76640,note_off,80,0,8,,,,,,,,8,,,,70,64
76680,note_on,160,0,7,,,,,,,,7,,,,38,45
76680,note_on,40,0,3,,,,,,,,3,,,,70,45
76680,note_on,160,0,13,,,,,,,,14,,,,38,30
76680,note_on,40,0,4,,,,,,,,4,,,,68,45
76680,note_on,160,0,12,,,,,,,,13,,,,38,45
76680,note_on,160,0,11,,,,,,,,12,,,,50,45
76680,note_on,160,0,6,,,,,,,,6,,,,50,45
76680,note_on,40,0,10,,,,,,,,11,,,,65,45
76680,note_on,40,0,5,,,,,,,,5,,,,65,45
76680,note_on,40,0,8,,,,,,,,8,,,,70,45
76680,note_on,40,0,9,,,,,,,,10,,,,68,45
76710,note_off,30,0,3,,,,,,,,3,,,,70,64
76710,note_on,0,0,3,,,,,,,,3,,,,72,45
76710,note_on,0,0,10,,,,,,,,11,,,,67,45
76710,note_off,30,0,10,,,,,,,,11,,,,65,64
76710,note_off,30,0,9,,,,,,,,10,,,,68,64
76710,note_on,0,0,9,,,,,,,,10,,,,70,45
76710,note_on,0,0,8,,,,,,,,8,,,,72,45
76710,note_off,30,0,4,,,,,,,,4,,,,68,64
76710,note_on,0,0,4,,,,,,,,4,,,,70,45
76710,note_off,30,0,8,,,,,,,,8,,,,70,64
76710,note_off,30,0,5,,,,,,,,5,,,,65,64
76710,note_on,0,0,5,,,,,,,,5,,,,67,45
76740,note_on,0,0,5,,,,,,,,5,,,,65,45
76740,note_on,0,0,8,,,,,,,,8,,,,70,45
76740,note_on,0,0,10,,,,,,,,11,,,,65,45
76740,note_off,30,0,10,,,,,,,,11,,,,67,64
76740,note_off,30,0,5,,,,,,,,5,,,,67,64
76740,note_off,30,0,9,,,,,,,,10,,,,70,64
76740,note_off,30,0,3,,,,,,,,3,,,,72,64
76740,note_on,0,0,4,,,,,,,,4,,,,68,45
76740,note_off,30,0,4,,,,,,,,4,,,,70,64
76740,note_on,0,0,3,,,,,,,,3,,,,70,45
76740,note_on,0,0,9,,,,,,,,10,,,,68,45
76740,note_off,30,0,8,,,,,,,,8,,,,72,64
76760,note_off,80,0,7,,,,,,,,7,,,,38,64
76760,note_off,80,0,11,,,,,,,,12,,,,50,64
76760,note_off,80,0,6,,,,,,,,6,,,,50,64
76760,note_off,80,0,12,,,,,,,,13,,,,38,64
76760,note_off,80,0,13,,,,,,,,14,,,,38,64
76770,note_on,0,0,4,,,,,,,,4,,,,70,45
76770,note_off,30,0,10,,,,,,,,11,,,,65,64
76770,note_off,30,0,4,,,,,,,,4,,,,68,64
76770,note_off,30,0,9,,,,,,,,10,,,,68,64
76770,note_off,30,0,3,,,,,,,,3,,,,70,64
76770,note_on,0,0,9,,,,,,,,10,,,,70,45
76770,note_on,0,0,10,,,,,,,,11,,,,67,45
76770,note_on,0,0,3,,,,,,,,3,,,,72,45
76770,note_on,0,0,5,,,,,,,,5,,,,67,45
76770,note_on,0,0,8,,,,,,,,8,,,,72,45
76770,note_off,30,0,5,,,,,,,,5,,,,65,64
76770,note_off,30,0,8,,,,,,,,8,,,,70,64
76800,note_off,30,0,8,,,,,,,,8,,,,72,64
76800,note_off,30,0,4,,,,,,,,4,,,,70,64
76800,note_on,0,0,4,,,,,,,,4,,,,68,45
76800,note_on,0,0,9,,,,,,,,10,,,,68,45
76800,note_off,30,0,9,,,,,,,,10,,,,70,64
76800,note_on,0,0,8,,,,,,,,8,,,,70,45
76800,note_on,0,0,5,,,,,,,,5,,,,65,45
76800,note_on,0,0,3,,,,,,,,3,,,,70,45
76800,note_off,30,0,3,,,,,,,,3,,,,72,64
76800,note_off,30,0,5,,,,,,,,5,,,,67,64
76800,note_off,30,0,10,,,,,,,,11,,,,67,64
76800,note_on,0,0,10,,,,,,,,11,,,,65,45
76880,note_off,80,0,3,,,,,,,,3,,,,70,64
76880,note_off,80,0,5,,,,,,,,5,,,,65,64
76880,note_off,80,0,8,,,,,,,,8,,,,70,64
76880,note_off,80,0,4,,,,,,,,4,,,,68,64
76880,note_off,80,0,10,,,,,,,,11,,,,65,64
76880,note_off,80,0,9,,,,,,,,10,,,,68,64
76920,note_on,40,0,3,,,,,,,,3,,,,70,45
76920,note_on,40,0,4,,,,,,,,4,,,,67,45
76920,note_on,160,0,13,,,,,,,,14,,,,39,30
76920,note_on,160,0,7,,,,,,,,7,,,,39,45
76920,note_on,40,0,10,,,,,,,,11,,,,67,45
76920,note_on,40,0,8,,,,,,,,8,,,,70,45
76920,note_on,160,0,12,,,,,,,,13,,,,39,45
76920,note_on,160,0,6,,,,,,,,6,,,,51,45
76920,note_on,40,0,9,,,,,,,,10,,,,67,45
76920,note_on,40,0,5,,,,,,,,5,,,,67,45
76920,note_on,160,0,11,,,,,,,,12,,,,51,45
76950,note_on,0,0,3,,,,,,,,3,,,,72,45
76950,note_off,30,0,4,,,,,,,,4,,,,67,64
76950,note_on,0,0,5,,,,,,,,5,,,,68,45
76950,note_off,30,0,5,,,,,,,,5,,,,67,64
76950,note_on,0,0,9,,,,,,,,10,,,,68,45
76950,note_on,0,0,10,,,,,,,,11,,,,68,45
76950,note_on,0,0,8,,,,,,,,8,,,,72,45
76950,note_off,30,0,9,,,,,,,,10,,,,67,64
76950,note_off,30,0,10,,,,,,,,11,,,,67,64
76950,note_off,30,0,8,,,,,,,,8,,,,70,64
76950,note_off,30,0,3,,,,,,,,3,,,,70,64
76950,note_on,0,0,4,,,,,,,,4,,,,68,45
76980,note_off,30,0,8,,,,,,,,8,,,,72,64
76980,note_on,0,0,5,,,,,,,,5,,,,67,45
76980,note_on,0,0,8,,,,,,,,8,,,,70,45
76980,note_off,30,0,4,,,,,,,,4,,,,68,64
76980,note_on,0,0,3,,,,,,,,3,,,,70,45
76980,note_on,0,0,9,,,,,,,,10,,,,67,45
76980,note_off,30,0,9,,,,,,,,10,,,,68,64
76980,note_off,30,0,10,,,,,,,,11,,,,68,64
76980,note_on,0,0,10,,,,,,,,11,,,,67,45
76980,note_off,30,0,3,,,,,,,,3,,,,72,64
76980,note_on,0,0,4,,,,,,,,4,,,,67,45
76980,note_off,30,0,5,,,,,,,,5,,,,68,64
77000,note_off,80,0,6,,,,,,,,6,,,,51,64
77000,note_off,80,0,11,,,,,,,,12,,,,51,64
77000,note_off,80,0,7,,,,,,,,7,,,,39,64
77000,note_off,80,0,12,,,,,,,,13,,,,39,64
77000,note_off,80,0,13,,,,,,,,14,,,,39,64
77010,note_off,30,0,4,,,,,,,,4,,,,67,64
77010,note_on,0,0,4,,,,,,,,4,,,,68,45
77010,note_on,0,0,9,,,,,,,,10,,,,68,45
77010,note_on,0,0,5,,,,,,,,5,,,,68,45
77010,note_on,0,0,8,,,,,,,,8,,,,72,45
77010,note_off,30,0,5,,,,,,,,5,,,,67,64
77010,note_off,30,0,9,,,,,,,,10,,,,67,64
77010,note_on,0,0,10,,,,,,,,11,,,,68,45
77010,note_off,30,0,3,,,,,,,,3,,,,70,64
77010,note_on,0,0,3,,,,,,,,3,,,,72,45
77010,note_off,30,0,10,,,,,,,,11,,,,67,64
77010,note_off,30,0,8,,,,,,,,8,,,,70,64
77040,note_off,30,0,8,,,,,,,,8,,,,72,64
77040,note_on,0,0,10,,,,,,,,11,,,,67,45
77040,note_off,30,0,10,,,,,,,,11,,,,68,64
77040,note_off,30,0,3,,,,,,,,3,,,,72,64
77040,note_on,0,0,8,,,,,,,,8,,,,70,45
77040,note_off,30,0,4,,,,,,,,4,,,,68,64
77040,note_off,30,0,9,,,,,,,,10,,,,68,64
77040,note_on,0,0,9,,,,,,,,10,,,,67,45
77040,note_on,0,0,4,,,,,,,,4,,,,67,45
77040,note_off,30,0,5,,,,,,,,5,,,,68,64
77040,note_on,0,0,3,,,,,,,,3,,,,70,45
77040,note_on,0,0,5,,,,,,,,5,,,,67,45
77120,note_off,80,0,4,,,,,,,,4,,,,67,64
77120,note_off,80,0,10,,,,,,,,11,,,,67,64
77120,note_off,80,0,8,,,,,,,,8,,,,70,64
77120,note_off,80,0,5,,,,,,,,5,,,,67,64
77120,note_off,80,0,3,,,,,,,,3,,,,70,64
77120,note_off,80,0,9,,,,,,,,10,,,,67,64
77160,note_on,40,0,4,,,,,,,,4,,,,67,45
77160,note_on,160,0,6,,,,,,,,6,,,,51,45
77160,note_on,40,0,9,,,,,,,,10,,,,67,45
77160,note_on,160,0,11,,,,,,,,12,,,,51,45
77160,note_on,40,0,5,,,,,,,,5,,,,67,45
77160,note_on,40,0,10,,,,,,,,11,,,,67,45
77160,note_on,160,0,13,,,,,,,,14,,,,39,30
77160,note_on,160,0,12,,,,,,,,13,,,,39,45
77160,note_on,40,0,3,,,,,,,,3,,,,70,45
77160,note_on,160,0,7,,,,,,,,7,,,,39,45
77160,note_on,40,0,8,,,,,,,,8,,,,70,45
77190,note_on,0,0,9,,,,,,,,10,,,,68,45
77190,note_on,0,0,4,,,,,,,,4,,,,68,45
77190,note_off,30,0,4,,,,,,,,4,,,,67,64
77190,note_off,30,0,3,,,,,,,,3,,,,70,64
77190,note_on,0,0,10,,,,,,,,11,,,,68,45
77190,note_off,30,0,8,,,,,,,,8,,,,70,64
77190,note_off,30,0,10,,,,,,,,11,,,,67,64
77190,note_off,30,0,9,,,,,,,,10,,,,67,64
77190,note_on,0,0,3,,,,,,,,3,,,,72,45
77190,note_on,0,0,8,,,,,,,,8,,,,72,45
77190,note_on,0,0,5,,,,,,,,5,,,,68,45
77190,note_off,30,0,5,,,,,,,,5,,,,67,64
77220,note_off,30,0,8,,,,,,,,8,,,,72,64
77220,note_on,0,0,4,,,,,,,,4,,,,67,45
77220,note_off,30,0,3,,,,,,,,3,,,,72,64
77220,note_on,0,0,3,,,,,,,,3,,,,70,45
77220,note_off,30,0,9,,,,,,,,10,,,,68,64
77220,note_on,0,0,8,,,,,,,,8,,,,70,45
77220,note_on,0,0,5,,,,,,,,5,,,,67,45
77220,note_on,0,0,9,,,,,,,,10,,,,67,45
77220,note_off,30,0,4,,,,,,,,4,,,,68,64
77220,note_off,30,0,5,,,,,,,,5,,,,68,64
77220,note_on,0,0,10,,,,,,,,11,,,,67,45
77220,note_off,30,0,10,,,,,,,,11,,,,68,64
77240,note_off,80,0,11,,,,,,,,12,,,,51,64
77240,note_off,80,0,13,,,,,,,,14,,,,39,64
77240,note_off,80,0,6,,,,,,,,6,,,,51,64
77240,note_off,80,0,7,,,,,,,,7,,,,39,64
77240,note_off,80,0,12,,,,,,,,13,,,,39,64
77250,note_on,0,0,9,,,,,,,,10,,,,68,45
77250,note_on,0,0,10,,,,,,,,11,,,,68,45
77250,note_off,30,0,8,,,,,,,,8,,,,70,64
77250,note_on,0,0,8,,,,,,,,8,,,,72,45
77250,note_off,30,0,10,,,,,,,,11,,,,67,64
77250,note_off,30,0,9,,,,,,,,10,,,,67,64
77250,note_off,30,0,3,,,,,,,,3,,,,70,64
77250,note_on,0,0,4,,,,,,,,4,,,,68,45
77250,note_off,30,0,4,,,,,,,,4,,,,67,64
77250,note_on,0,0,5,,,,,,,,5,,,,68,45
77250,note_off,30,0,5,,,,,,,,5,,,,67,64
77250,note_on,0,0,3,,,,,,,,3,,,,72,45
77280,note_off,30,0,10,,,,,,,,11,,,,68,64
77280,note_off,30,0,8,,,,,,,,8,,,,72,64
77280,note_on,0,0,8,,,,,,,,8,,,,70,45
77280,note_on,0,0,4,,,,,,,,4,,,,67,45
77280,note_off,30,0,3,,,,,,,,3,,,,72,64
77280,note_on,0,0,3,,,,,,,,3,,,,70,45
77280,note_off,30,0,4,,,,,,,,4,,,,68,64
77280,note_off,30,0,5,,,,,,,,5,,,,68,64
77280,note_on,0,0,5,,,,,,,,5,,,,67,45
77280,note_on,0,0,10,,,,,,,,11,,,,67,45
77280,note_off,30,0,9,,,,,,,,10,,,,68,64
77280,note_on,0,0,9,,,,,,,,10,,,,67,45
77360,note_off,80,0,10,,,,,,,,11,,,,67,64
77360,note_off,80,0,4,,,,,,,,4,,,,67,64
77360,note_off,80,0,3,,,,,,,,3,,,,70,64
77360,note_off,80,0,5,,,,,,,,5,,,,67,64
77360,note_off,80,0,9,,,,,,,,10,,,,67,64
77360,note_off,80,0,8,,,,,,,,8,,,,70,64
77400,note_on,40,0,4,,,,,,,,4,,,,67,45
77400,note_on,160,0,6,,,,,,,,6,,,,51,45
77400,note_on,160,0,7,,,,,,,,7,,,,39,45
77400,note_on,160,0,11,,,,,,,,12,,,,51,45
77400,note_on,160,0,13,,,,,,,,14,,,,39,30
77400,note_on,40,0,10,,,,,,,,11,,,,67,45
77400,note_on,40,0,5,,,,,,,,5,,,,67,45
77400,note_on,160,0,12,,,,,,,,13,,,,39,45
77400,note_on,40,0,8,,,,,,,,8,,,,70,45
77400,note_on,40,0,9,,,,,,,,10,,,,67,45
77400,note_on,40,0,3,,,,,,,,3,,,,70,45
77430,note_on,0,0,5,,,,,,,,5,,,,68,45
77430,note_off,30,0,5,,,,,,,,5,,,,67,64
77430,note_on,0,0,3,,,,,,,,3,,,,72,45
77430,note_off,30,0,9,,,,,,,,10,,,,67,64
77430,note_off,30,0,8,,,,,,,,8,,,,70,64
77430,note_on,0,0,8,,,,,,,,8,,,,72,45
77430,note_off,30,0,4,,,,,,,,4,,,,67,64
77430,note_on,0,0,9,,,,,,,,10,,,,68,45
77430,note_off,30,0,3,,,,,,,,3,,,,70,64
77430,note_on,0,0,4,,,,,,,,4,,,,68,45
77430,note_off,30,0,10,,,,,,,,11,,,,67,64
77430,note_on,0,0,10,,,,,,,,11,,,,68,45
77460,note_on,0,0,5,,,,,,,,5,,,,67,45
77460,note_off,30,0,3,,,,,,,,3,,,,72,64
77460,note_off,30,0,5,,,,,,,,5,,,,68,64
77460,note_off,30,0,9,,,,,,,,10,,,,68,64
77460,note_on,0,0,4,,,,,,,,4,,,,67,45
77460,note_on,0,0,9,,,,,,,,10,,,,67,45
77460,note_on,0,0,3,,,,,,,,3,,,,70,45
77460,note_off,30,0,8,,,,,,,,8,,,,72,64
77460,note_on,0,0,8,,,,,,,,8,,,,70,45
77460,note_off,30,0,4,,,,,,,,4,,,,68,64
77460,note_off,30,0,10,,,,,,,,11,,,,68,64
77460,note_on,0,0,10,,,,,,,,11,,,,67,45
77480,note_off,80,0,6,,,,,,,,6,,,,51,64
77480,note_off,80,0,11,,,,,,,,12,,,,51,64
77480,note_off,80,0,7,,,,,,,,7,,,,39,64
77480,note_off,80,0,13,,,,,,,,14,,,,39,64
77480,note_off,80,0,12,,,,,,,,13,,,,39,64
77490,note_off,30,0,4,,,,,,,,4,,,,67,64
77490,note_off,30,0,8,,,,,,,,8,,,,70,64
77490,note_on,0,0,8,,,,,,,,8,,,,72,45
77490,note_off,30,0,3,,,,,,,,3,,,,70,64
77490,note_on,0,0,5,,,,,,,,5,,,,68,45
77490,note_on,0,0,10,,,,,,,,11,,,,68,45
77490,note_off,30,0,10,,,,,,,,11,,,,67,64
77490,note_on,0,0,4,,,,,,,,4,,,,68,45
77490,note_on,0,0,3,,,,,,,,3,,,,72,45
77490,note_on,0,0,9,,,,,,,,10,,,,68,45
77490,note_off,30,0,9,,,,,,,,10,,,,67,64
77490,note_off,30,0,5,,,,,,,,5,,,,67,64
77520,note_on,0,0,9,,,,,,,,10,,,,67,45
77520,note_off,30,0,9,,,,,,,,10,,,,68,64
77520,note_off,30,0,4,,,,,,,,4,,,,68,64
77520,note_on,0,0,10,,,,,,,,11,,,,67,45
77520,note_off,30,0,3,,,,,,,,3,,,,72,64
77520,note_off,30,0,10,,,,,,,,11,,,,68,64
77520,note_off,30,0,8,,,,,,,,8,,,,72,64
77520,note_off,30,0,5,,,,,,,,5,,,,68,64
77520,note_on,0,0,5,,,,,,,,5,,,,67,45
77520,note_on,0,0,3,,,,,,,,3,,,,70,45
77520,note_on,0,0,8,,,,,,,,8,,,,70,45
77520,note_on,0,0,4,,,,,,,,4,,,,67,45
77600,note_off,80,0,8,,,,,,,,8,,,,70,64
77600,note_off,80,0,3,,,,,,,,3,,,,70,64
77600,note_off,80,0,10,,,,,,,,11,,,,67,64
77600,note_off,80,0,4,,,,,,,,4,,,,67,64
77600,note_off,80,0,5,,,,,,,,5,,,,67,64
77600,note_off,80,0,9,,,,,,,,10,,,,67,64
77640,note_on,40,0,9,,,,,,,,10,,,,67,45
77640,note_on,40,0,5,,,,,,,,5,,,,67,45
77640,note_on,40,0,10,,,,,,,,11,,,,67,45
77640,note_on,160,0,13,,,,,,,,14,,,,39,30
77640,note_on,160,0,6,,,,,,,,6,,,,51,45
77640,note_on,160,0,11,,,,,,,,12,,,,51,45
77640,note_on,40,0,3,,,,,,,,3,,,,70,45
77640,note_on,160,0,7,,,,,,,,7,,,,39,45
77640,note_on,40,0,8,,,,,,,,8,,,,70,45
77640,note_on,40,0,4,,,,,,,,4,,,,67,45
77640,note_on,160,0,12,,,,,,,,13,,,,39,45
77670,note_off,30,0,9,,,,,,,,10,,,,67,64
77670,note_off,30,0,3,,,,,,,,3,,,,70,64
77670,note_off,30,0,10,,,,,,,,11,,,,67,64
77670,note_off,30,0,5,,,,,,,,5,,,,67,64
77670,note_on,0,0,10,,,,,,,,11,,,,68,45
77670,note_on,0,0,9,,,,,,,,10,,,,68,45
77670,note_on,0,0,3,,,,,,,,3,,,,72,45
77670,note_on,0,0,5,,,,,,,,5,,,,68,45
77670,note_on,0,0,4,,,,,,,,4,,,,68,45
77670,note_on,0,0,8,,,,,,,,8,,,,72,45
77670,note_off,30,0,8,,,,,,,,8,,,,70,64
77670,note_off,30,0,4,,,,,,,,4,,,,67,64
77700,note_on,0,0,8,,,,,,,,8,,,,70,45
77700,note_off,30,0,8,,,,,,,,8,,,,72,64
77700,note_off,30,0,10,,,,,,,,11,,,,68,64
77700,note_on,0,0,4,,,,,,,,4,,,,67,45
77700,note_on,0,0,9,,,,,,,,10,,,,67,45
77700,note_off,30,0,9,,,,,,,,10,,,,68,64
77700,note_off,30,0,5,,,,,,,,5,,,,68,64
77700,note_on,0,0,5,,,,,,,,5,,,,67,45
77700,note_off,30,0,4,,,,,,,,4,,,,68,64
77700,note_on,0,0,3,,,,,,,,3,,,,70,45
77700,note_on,0,0,10,,,,,,,,11,,,,67,45
77700,note_off,30,0,3,,,,,,,,3,,,,72,64
77720,note_off,80,0,11,,,,,,,,12,,,,51,64
77720,note_off,80,0,12,,,,,,,,13,,,,39,64
77720,note_off,80,0,6,,,,,,,,6,,,,51,64
77720,note_off,80,0,7,,,,,,,,7,,,,39,64
77720,note_off,80,0,13,,,,,,,,14,,,,39,64
77730,note_off,30,0,4,,,,,,,,4,,,,67,64
77730,note_off,30,0,8,,,,,,,,8,,,,70,64
77730,note_on,0,0,8,,,,,,,,8,,,,72,45
77730,note_on,0,0,10,,,,,,,,11,,,,68,45
77730,note_on,0,0,9,,,,,,,,10,,,,68,45
77730,note_off,30,0,9,,,,,,,,10,,,,67,64
77730,note_off,30,0,5,,,,,,,,5,,,,67,64
77730,note_on,0,0,5,,,,,,,,5,,,,68,45
77730,note_off,30,0,10,,,,,,,,11,,,,67,64
77730,note_off,30,0,3,,,,,,,,3,,,,70,64
77730,note_on,0,0,4,,,,,,,,4,,,,68,45
77730,note_on,0,0,3,,,,,,,,3,,,,72,45
77760,note_on,0,0,9,,,,,,,,10,,,,67,45
77760,note_off,30,0,9,,,,,,,,10,,,,68,64
77760,note_off,30,0,10,,,,,,,,11,,,,68,64
77760,note_off,30,0,4,,,,,,,,4,,,,68,64
77760,note_on,0,0,8,,,,,,,,8,,,,70,45
77760,note_on,0,0,5,,,,,,,,5,,,,67,45
77760,note_off,30,0,5,,,,,,,,5,,,,68,64
77760,note_off,30,0,8,,,,,,,,8,,,,72,64
77760,note_off,30,0,3,,,,,,,,3,,,,72,64
77760,note_on,0,0,4,,,,,,,,4,,,,67,45
77760,note_on,0,0,3,,,,,,,,3,,,,70,45
77760,note_on,0,0,10,,,,,,,,11,,,,67,45
77840,note_off,80,0,10,,,,,,,,11,,,,67,64
77840,note_off,80,0,9,,,,,,,,10,,,,67,64
77840,note_off,80,0,4,,,,,,,,4,,,,67,64
77840,note_off,80,0,3,,,,,,,,3,,,,70,64
77840,note_off,80,0,5,,,,,,,,5,,,,67,64
77840,note_off,80,0,8,,,,,,,,8,,,,70,64
77880,note_on,40,0,4,,,,,,,,4,,,,67,45
77880,note_on,40,0,9,,,,,,,,10,,,,67,45
77880,note_on,160,0,12,,,,,,,,13,,,,39,45
77880,note_on,160,0,13,,,,,,,,14,,,,39,30
77880,note_on,160,0,11,,,,,,,,12,,,,51,45
77880,note_on,40,0,10,,,,,,,,11,,,,58,45
77880,note_on,160,0,6,,,,,,,,6,,,,51,45
77880,note_on,40,0,3,,,,,,,,3,,,,73,45
77880,note_on,40,0,5,,,,,,,,5,,,,58,45
77880,note_on,40,0,8,,,,,,,,8,,,,73,45
77880,note_on,160,0,7,,,,,,,,7,,,,39,45
77910,note_off,30,0,5,,,,,,,,5,,,,58,64
77910,note_on,0,0,5,,,,,,,,5,,,,60,45
77910,note_off,30,0,4,,,,,,,,4,,,,67,64
77910,note_on,0,0,4,,,,,,,,4,,,,68,45
77910,note_off,30,0,10,,,,,,,,11,,,,58,64
77910,note_on,0,0,10,,,,,,,,11,,,,60,45
77910,note_off,30,0,9,,,,,,,,10,,,,67,64
77910,note_on,0,0,9,,,,,,,,10,,,,68,45
77940,note_off,30,0,5,,,,,,,,5,,,,60,64
77940,note_on,0,0,5,,,,,,,,5,,,,58,45
77940,note_on,0,0,10,,,,,,,,11,,,,58,45
77940,note_off,30,0,10,,,,,,,,11,,,,60,64
77940,note_off,30,0,9,,,,,,,,10,,,,68,64
77940,note_on,0,0,4,,,,,,,,4,,,,67,45
77940,note_off,30,0,4,,,,,,,,4,,,,68,64
77940,note_on,0,0,9,,,,,,,,10,,,,67,45
77960,note_off,80,0,13,,,,,,,,14,,,,39,64
77960,note_off,80,0,7,,,,,,,,7,,,,39,64
77960,note_off,80,0,12,,,,,,,,13,,,,39,64
77960,note_off,80,0,11,,,,,,,,12,,,,51,64
77960,note_off,80,0,6,,,,,,,,6,,,,51,64
77960,note_off,80,0,3,,,,,,,,3,,,,73,64
77960,note_off,80,0,8,,,,,,,,8,,,,73,64
77970,note_off,30,0,9,,,,,,,,10,,,,67,64
77970,note_on,0,0,9,,,,,,,,10,,,,68,45
77970,note_on,0,0,4,,,,,,,,4,,,,68,45
77970,note_on,0,0,5,,,,,,,,5,,,,60,45
77970,note_off,30,0,5,,,,,,,,5,,,,58,64
77970,note_on,0,0,10,,,,,,,,11,,,,60,45
77970,note_off,30,0,4,,,,,,,,4,,,,67,64
77970,note_off,30,0,10,,,,,,,,11,,,,58,64
78000,note_off,30,0,10,,,,,,,,11,,,,60,64
78000,note_on,0,0,10,,,,,,,,11,,,,58,45
78000,note_on,40,0,3,,,,,,,,3,,,,73,45
78000,note_off,30,0,4,,,,,,,,4,,,,68,64
78000,note_off,30,0,5,,,,,,,,5,,,,60,64
78000,note_on,0,0,5,,,,,,,,5,,,,58,45
78000,note_on,0,0,9,,,,,,,,10,,,,67,45
78000,note_on,40,0,8,,,,,,,,8,,,,73,45
78000,note_on,0,0,4,,,,,,,,4,,,,67,45
78000,note_off,30,0,9,,,,,,,,10,,,,68,64
78080,note_off,80,0,3,,,,,,,,3,,,,73,64
78080,note_off,80,0,5,,,,,,,,5,,,,58,64
78080,note_off,80,0,9,,,,,,,,10,,,,67,64
78080,note_off,80,0,8,,,,,,,,8,,,,73,64
78080,note_off,80,0,4,,,,,,,,4,,,,67,64
78080,note_off,80,0,10,,,,,,,,11,,,,58,64
78120,note_on,40,0,4,,,,,,,,4,,,,67,45
78120,note_on,40,0,9,,,,,,,,10,,,,67,45
78120,note_on,40,0,5,,,,,,,,5,,,,58,45
78120,note_on,160,0,7,,,,,,,,7,,,,39,45
78120,note_on,160,0,6,,,,,,,,6,,,,51,45
78120,note_on,160,0,11,,,,,,,,12,,,,51,45
78120,note_on,160,0,12,,,,,,,,13,,,,39,45
78120,note_on,40,0,8,,,,,,,,8,,,,73,45
78120,note_on,160,0,13,,,,,,,,14,,,,39,30
78120,note_on,40,0,3,,,,,,,,3,,,,73,45
78120,note_on,40,0,10,,,,,,,,11,,,,58,45
78150,note_off,30,0,5,,,,,,,,5,,,,58,64
78150,note_off,30,0,10,,,,,,,,11,,,,58,64
78150,note_on,0,0,10,,,,,,,,11,,,,60,45
78150,note_on,0,0,5,,,,,,,,5,,,,60,45
78150,note_on,0,0,4,,,,,,,,4,,,,68,45
78150,note_on,0,0,9,,,,,,,,10,,,,68,45
78150,note_off,30,0,9,,,,,,,,10,,,,67,64
78150,note_off,30,0,4,,,,,,,,4,,,,67,64
78180,note_off,30,0,5,,,,,,,,5,,,,60,64
78180,note_on,0,0,10,,,,,,,,11,,,,58,45
78180,note_on,0,0,5,,,,,,,,5,,,,58,45
78180,note_off,30,0,10,,,,,,,,11,,,,60,64
78180,note_on,0,0,4,,,,,,,,4,,,,67,45
78180,note_off,30,0,4,,,,,,,,4,,,,68,64
78180,note_on,0,0,9,,,,,,,,10,,,,67,45
78180,note_off,30,0,9,,,,,,,,10,,,,68,64
78200,note_off,80,0,11,,,,,,,,12,,,,51,64
78200,note_off,80,0,13,,,,,,,,14,,,,39,64
78200,note_off,80,0,3,,,,,,,,3,,,,73,64
78200,note_off,80,0,7,,,,,,,,7,,,,39,64
78200,note_off,80,0,8,,,,,,,,8,,,,73,64
78200,note_off,80,0,6,,,,,,,,6,,,,51,64
78200,note_off,80,0,12,,,,,,,,13,,,,39,64
78210,note_on,0,0,4,,,,,,,,4,,,,68,45
78210,note_off,30,0,4,,,,,,,,4,,,,67,64
78210,note_off,30,0,9,,,,,,,,10,,,,67,64
78210,note_on,0,0,10,,,,,,,,11,,,,60,45
78210,note_off,30,0,10,,,,,,,,11,,,,58,64
78210,note_on,0,0,9,,,,,,,,10,,,,68,45
78210,note_on,0,0,5,,,,,,,,5,,,,60,45
78210,note_off,30,0,5,,,,,,,,5,,,,58,64
78240,note_off,30,0,10,,,,,,,,11,,,,60,64
78240,note_on,40,0,3,,,,,,,,3,,,,73,45
78240,note_off,30,0,9,,,,,,,,10,,,,68,64
78240,note_on,0,0,9,,,,,,,,10,,,,67,45
78240,note_off,30,0,5,,,,,,,,5,,,,60,64
78240,note_on,0,0,5,,,,,,,,5,,,,58,45
78240,note_on,0,0,4,,,,,,,,4,,,,67,45
78240,note_off,30,0,4,,,,,,,,4,,,,68,64
78240,note_on,0,0,10,,,,,,,,11,,,,58,45
78240,note_on,40,0,8,,,,,,,,8,,,,73,45
78320,note_off,80,0,10,,,,,,,,11,,,,58,64
78320,note_off,80,0,5,,,,,,,,5,,,,58,64
78320,note_off,80,0,4,,,,,,,,4,,,,67,64
78320,note_off,80,0,3,,,,,,,,3,,,,73,64
78320,note_off,80,0,9,,,,,,,,10,,,,67,64
78320,note_off,80,0,8,,,,,,,,8,,,,73,64
78360,note_on,40,0,9,,,,,,,,10,,,,67,45
78360,note_on,40,0,10,,,,,,,,11,,,,58,45
78360,note_on,40,0,3,,,,,,,,3,,,,73,45
78360,note_on,160,0,11,,,,,,,,12,,,,51,45
78360,note_on,160,0,13,,,,,,,,14,,,,39,30
78360,note_on,40,0,8,,,,,,,,8,,,,73,45
78360,note_on,160,0,6,,,,,,,,6,,,,51,45
78360,note_on,40,0,5,,,,,,,,5,,,,58,45
78360,note_on,40,0,4,,,,,,,,4,,,,67,45
78360,note_on,160,0,7,,,,,,,,7,,,,39,45
78360,note_on,160,0,12,,,,,,,,13,,,,39,45
78390,note_on,0,0,5,,,,,,,,5,,,,60,45
78390,note_off,30,0,5,,,,,,,,5,,,,58,64
78390,note_off,30,0,10,,,,,,,,11,,,,58,64
78390,note_on,0,0,9,,,,,,,,10,,,,68,45
78390,note_on,0,0,4,,,,,,,,4,,,,68,45
78390,note_off,30,0,9,,,,,,,,10,,,,67,64
78390,note_on,0,0,10,,,,,,,,11,,,,60,45
78390,note_off,30,0,4,,,,,,,,4,,,,67,64
78420,note_off,30,0,10,,,,,,,,11,,,,60,64
78420,note_off,30,0,4,,,,,,,,4,,,,68,64
78420,note_on,0,0,4,,,,,,,,4,,,,67,45
78420,note_on,0,0,5,,,,,,,,5,,,,58,45
78420,note_on,0,0,9,,,,,,,,10,,,,67,45
78420,note_on,0,0,10,,,,,,,,11,,,,58,45
78420,note_off,30,0,5,,,,,,,,5,,,,60,64
78420,note_off,30,0,9,,,,,,,,10,,,,68,64
78440,note_off,80,0,12,,,,,,,,13,,,,39,64
78440,note_off,80,0,6,,,,,,,,6,,,,51,64
78440,note_off,80,0,7,,,,,,,,7,,,,39,64
78440,note_off,80,0,8,,,,,,,,8,,,,73,64
78440,note_off,80,0,13,,,,,,,,14,,,,39,64
78440,note_off,80,0,3,,,,,,,,3,,,,73,64
78440,note_off,80,0,11,,,,,,,,12,,,,51,64
78450,note_off,30,0,4,,,,,,,,4,,,,67,64
78450,note_on,0,0,4,,,,,,,,4,,,,68,45
78450,note_off,30,0,10,,,,,,,,11,,,,58,64
78450,note_on,0,0,5,,,,,,,,5,,,,60,45
78450,note_off,30,0,5,,,,,,,,5,,,,58,64
78450,note_on,0,0,10,,,,,,,,11,,,,60,45
78450,note_on,0,0,9,,,,,,,,10,,,,68,45
78450,note_off,30,0,9,,,,,,,,10,,,,67,64
78480,note_on,40,0,8,,,,,,,,8,,,,73,45
78480,note_off,30,0,5,,,,,,,,5,,,,60,64
78480,note_on,0,0,5,,,,,,,,5,,,,58,45
78480,note_on,40,0,3,,,,,,,,3,,,,73,45
78480,note_on,0,0,4,,,,,,,,4,,,,67,45
78480,note_off,30,0,4,,,,,,,,4,,,,68,64
78480,note_on,0,0,9,,,,,,,,10,,,,67,45
78480,note_off,30,0,9,,,,,,,,10,,,,68,64
78480,note_on,0,0,10,,,,,,,,11,,,,58,45
78480,note_off,30,0,10,,,,,,,,11,,,,60,64
78560,note_off,80,0,10,,,,,,,,11,,,,58,64
78560,note_off,80,0,5,,,,,,,,5,,,,58,64
78560,note_off,80,0,9,,,,,,,,10,,,,67,64
78560,note_off,80,0,4,,,,,,,,4,,,,67,64
78560,note_off,80,0,3,,,,,,,,3,,,,73,64
78560,note_off,80,0,8,,,,,,,,8,,,,73,64
78600,note_on,160,0,6,,,,,,,,6,,,,51,45
78600,note_on,40,0,3,,,,,,,,3,,,,73,45
78600,note_on,40,0,8,,,,,,,,8,,,,73,45
78600,note_on,160,0,12,,,,,,,,13,,,,39,45
78600,note_on,40,0,4,,,,,,,,4,,,,67,45
78600,note_on,160,0,13,,,,,,,,14,,,,39,30
78600,note_on,160,0,7,,,,,,,,7,,,,39,45
78600,note_on,40,0,5,,,,,,,,5,,,,58,45
78600,note_on,40,0,9,,,,,,,,10,,,,67,45
78600,note_on,160,0,11,,,,,,,,12,,,,51,45
78600,note_on,40,0,10,,,,,,,,11,,,,58,45
78630,note_off,30,0,10,,,,,,,,11,,,,58,64
78630,note_off,30,0,9,,,,,,,,10,,,,67,64
78630,note_on,0,0,9,,,,,,,,10,,,,68,45
78630,note_off,30,0,4,,,,,,,,4,,,,67,64
78630,note_on,0,0,10,,,,,,,,11,,,,60,45
78630,note_off,30,0,5,,,,,,,,5,,,,58,64
78630,note_on,0,0,5,,,,,,,,5,,,,60,45
78630,note_on,0,0,4,,,,,,,,4,,,,68,45
78660,note_on,0,0,5,,,,,,,,5,,,,58,45
78660,note_off,30,0,5,,,,,,,,5,,,,60,64
78660,note_off,30,0,10,,,,,,,,11,,,,60,64
78660,note_on,0,0,4,,,,,,,,4,,,,67,45
78660,note_on,0,0,9,,,,,,,,10,,,,67,45
78660,note_off,30,0,9,,,,,,,,10,,,,68,64
78660,note_off,30,0,4,,,,,,,,4,,,,68,64
78660,note_on,0,0,10,,,,,,,,11,,,,58,45
78680,note_off,80,0,8,,,,,,,,8,,,,73,64
78680,note_off,80,0,6,,,,,,,,6,,,,51,64
78680,note_off,80,0,13,,,,,,,,14,,,,39,64
78680,note_off,80,0,3,,,,,,,,3,,,,73,64
78680,note_off,80,0,11,,,,,,,,12,,,,51,64
78680,note_off,80,0,12,,,,,,,,13,,,,39,64
78680,note_off,80,0,7,,,,,,,,7,,,,39,64
78690,note_on,0,0,9,,,,,,,,10,,,,68,45
78690,note_off,30,0,9,,,,,,,,10,,,,67,64
78690,note_off,30,0,4,,,,,,,,4,,,,67,64
78690,note_on,0,0,5,,,,,,,,5,,,,60,45
78690,note_off,30,0,10,,,,,,,,11,,,,58,64
78690,note_on,0,0,10,,,,,,,,11,,,,60,45
78690,note_on,0,0,4,,,,,,,,4,,,,68,45
78690,note_off,30,0,5,,,,,,,,5,,,,58,64
78720,note_off,30,0,4,,,,,,,,4,,,,68,64
78720,note_on,40,0,8,,,,,,,,8,,,,73,45
78720,note_on,0,0,5,,,,,,,,5,,,,58,45
78720,note_off,30,0,5,,,,,,,,5,,,,60,64
78720,note_off,30,0,10,,,,,,,,11,,,,60,64
78720,note_on,0,0,9,,,,,,,,10,,,,67,45
78720,note_off,30,0,9,,,,,,,,10,,,,68,64
78720,note_on,0,0,4,,,,,,,,4,,,,67,45
78720,note_on,0,0,10,,,,,,,,11,,,,58,45
78720,note_on,40,0,3,,,,,,,,3,,,,73,45
78800,note_off,80,0,3,,,,,,,,3,,,,73,64
78800,note_off,80,0,9,,,,,,,,10,,,,67,64
78800,note_off,80,0,10,,,,,,,,11,,,,58,64
78800,note_off,80,0,8,,,,,,,,8,,,,73,64
78800,note_off,80,0,4,,,,,,,,4,,,,67,64
78800,note_off,80,0,5,,,,,,,,5,,,,58,64
78840,note_on,40,0,8,,,,,,,,8,,,,72,45
78840,note_on,40,0,9,,,,,,,,10,,,,63,45
78840,note_on,40,0,4,,,,,,,,4,,,,63,45
78840,note_on,160,0,12,,,,,,,,13,,,,32,45
78840,note_on,160,0,6,,,,,,,,6,,,,44,45
78840,note_on,160,0,7,,,,,,,,7,,,,32,45
78840,note_on,40,0,3,,,,,,,,3,,,,72,45
78840,note_on,160,0,13,,,,,,,,14,,,,32,30
78840,note_on,160,0,11,,,,,,,,12,,,,44,45
78840,note_on,40,0,10,,,,,,,,11,,,,60,45
78840,note_on,40,0,5,,,,,,,,5,,,,60,45
78870,note_on,0,0,9,,,,,,,,10,,,,65,45
78870,note_off,30,0,9,,,,,,,,10,,,,63,64
78870,note_on,0,0,5,,,,,,,,5,,,,61,45
78870,note_off,30,0,8,,,,,,,,8,,,,72,64
78870,note_on,0,0,8,,,,,,,,8,,,,73,45
78870,note_off,30,0,5,,,,,,,,5,,,,60,64
78870,note_on,0,0,4,,,,,,,,4,,,,65,45
78870,note_off,30,0,4,,,,,,,,4,,,,63,64
78870,note_off,30,0,3,,,,,,,,3,,,,72,64
78870,note_on,0,0,3,,,,,,,,3,,,,73,45
78870,note_off,30,0,10,,,,,,,,11,,,,60,64
78870,note_on,0,0,10,,,,,,,,11,,,,61,45
78900,note_off,30,0,4,,,,,,,,4,,,,65,64
78900,note_on,0,0,4,,,,,,,,4,,,,63,45
78900,note_on,0,0,3,,,,,,,,3,,,,72,45
78900,note_off,30,0,3,,,,,,,,3,,,,73,64
78900,note_on,0,0,9,,,,,,,,10,,,,63,45
78900,note_off,30,0,9,,,,,,,,10,,,,65,64
78900,note_off,30,0,8,,,,,,,,8,,,,73,64
78900,note_on,0,0,5,,,,,,,,5,,,,60,45
78900,note_on,0,0,10,,,,,,,,11,,,,60,45
78900,note_off,30,0,10,,,,,,,,11,,,,61,64
78900,note_on,0,0,8,,,,,,,,8,,,,72,45
78900,note_off,30,0,5,,,,,,,,5,,,,61,64
78920,note_off,80,0,12,,,,,,,,13,,,,32,64
78920,note_off,80,0,11,,,,,,,,12,,,,44,64
78920,note_off,80,0,6,,,,,,,,6,,,,44,64
78920,note_off,80,0,13,,,,,,,,14,,,,32,64
78920,note_off,80,0,7,,,,,,,,7,,,,32,64
78930,note_off,30,0,10,,,,,,,,11,,,,60,64
78930,note_on,0,0,10,,,,,,,,11,,,,61,45
78930,note_off,30,0,5,,,,,,,,5,,,,60,64
78930,note_on,0,0,5,,,,,,,,5,,,,61,45
78930,note_on,0,0,3,,,,,,,,3,,,,73,45
78930,note_off,30,0,4,,,,,,,,4,,,,63,64
78930,note_off,30,0,3,,,,,,,,3,,,,72,64
78930,note_off,30,0,9,,,,,,,,10,,,,63,64
78930,note_on,0,0,9,,,,,,,,10,,,,65,45
78930,note_on,0,0,4,,,,,,,,4,,,,65,45
78930,note_on,0,0,8,,,,,,,,8,,,,73,45
78930,note_off,30,0,8,,,,,,,,8,,,,72,64
78960,note_off,30,0,4,,,,,,,,4,,,,65,64
78960,note_off,30,0,3,,,,,,,,3,,,,73,64
78960,note_on,0,0,3,,,,,,,,3,,,,72,45
78960,note_on,0,0,10,,,,,,,,11,,,,60,45
78960,note_off,30,0,10,,,,,,,,11,,,,61,64
78960,note_off,30,0,9,,,,,,,,10,,,,65,64
78960,note_on,0,0,5,,,,,,,,5,,,,60,45
78960,note_off,30,0,8,,,,,,,,8,,,,73,64
78960,note_on,0,0,8,,,,,,,,8,,,,72,45
78960,note_off,30,0,5,,,,,,,,5,,,,61,64
78960,note_on,0,0,4,,,,,,,,4,,,,63,45
78960,note_on,0,0,9,,,,,,,,10,,,,63,45
79040,note_off,80,0,8,,,,,,,,8,,,,72,64
79040,note_off,80,0,4,,,,,,,,4,,,,63,64
79040,note_off,80,0,9,,,,,,,,10,,,,63,64
79040,note_off,80,0,10,,,,,,,,11,,,,60,64
79040,note_off,80,0,3,,,,,,,,3,,,,72,64
79040,note_off,80,0,5,,,,,,,,5,,,,60,64
79080,note_on,160,0,6,,,,,,,,6,,,,44,45
79080,note_on,40,0,3,,,,,,,,3,,,,72,45
79080,note_on,40,0,4,,,,,,,,4,,,,63,45
79080,note_on,40,0,5,,,,,,,,5,,,,60,45
79080,note_on,160,0,7,,,,,,,,7,,,,32,45
79080,note_on,160,0,13,,,,,,,,14,,,,32,30
79080,note_on,160,0,12,,,,,,,,13,,,,32,45
79080,note_on,40,0,8,,,,,,,,8,,,,72,45
79080,note_on,160,0,11,,,,,,,,12,,,,44,45
79080,note_on,40,0,9,,,,,,,,10,,,,63,45
79080,note_on,40,0,10,,,,,,,,11,,,,60,45
79110,note_off,30,0,5,,,,,,,,5,,,,60,64
79110,note_on,0,0,5,,,,,,,,5,,,,61,45
79110,note_on,0,0,3,,,,,,,,3,,,,73,45
79110,note_on,0,0,8,,,,,,,,8,,,,73,45
79110,note_off,30,0,10,,,,,,,,11,,,,60,64
79110,note_off,30,0,8,,,,,,,,8,,,,72,64
79110,note_off,30,0,9,,,,,,,,10,,,,63,64
79110,note_off,30,0,4,,,,,,,,4,,,,63,64
79110,note_on,0,0,4,,,,,,,,4,,,,65,45
79110,note_on,0,0,10,,,,,,,,11,,,,61,45
79110,note_off,30,0,3,,,,,,,,3,,,,72,64
79110,note_on,0,0,9,,,,,,,,10,,,,65,45
79140,note_on,0,0,10,,,,,,,,11,,,,60,45
79140,note_on,0,0,8,,,,,,,,8,,,,72,45
79140,note_off,30,0,8,,,,,,,,8,,,,73,64
79140,note_off,30,0,5,,,,,,,,5,,,,61,64
79140,note_on,0,0,5,,,,,,,,5,,,,60,45
79140,note_off,30,0,9,,,,,,,,10,,,,65,64
79140,note_off,30,0,4,,,,,,,,4,,,,65,64
79140,note_on,0,0,9,,,,,,,,10,,,,63,45
79140,note_off,30,0,3,,,,,,,,3,,,,73,64
79140,note_on,0,0,3,,,,,,,,3,,,,72,45
79140,note_off,30,0,10,,,,,,,,11,,,,61,64
79140,note_on,0,0,4,,,,,,,,4,,,,63,45
79160,note_off,80,0,6,,,,,,,,6,,,,44,64
79160,note_off,80,0,11,,,,,,,,12,,,,44,64
79160,note_off,80,0,13,,,,,,,,14,,,,32,64
79160,note_off,80,0,7,,,,,,,,7,,,,32,64
79160,note_off,80,0,12,,,,,,,,13,,,,32,64
79170,note_off,30,0,9,,,,,,,,10,,,,63,64
79170,note_on,0,0,10,,,,,,,,11,,,,61,45
79170,note_on,0,0,5,,,,,,,,5,,,,61,45
79170,note_off,30,0,5,,,,,,,,5,,,,60,64
79170,note_on,0,0,9,,,,,,,,10,,,,65,45
79170,note_on,0,0,3,,,,,,,,3,,,,73,45
79170,note_off,30,0,4,,,,,,,,4,,,,63,64
79170,note_on,0,0,8,,,,,,,,8,,,,73,45
79170,note_off,30,0,3,,,,,,,,3,,,,72,64
79170,note_off,30,0,10,,,,,,,,11,,,,60,64
79170,note_off,30,0,8,,,,,,,,8,,,,72,64
79170,note_on,0,0,4,,,,,,,,4,,,,65,45
79200,note_on,0,0,3,,,,,,,,3,,,,72,45
79200,note_off,30,0,8,,,,,,,,8,,,,73,64
79200,note_off,30,0,10,,,,,,,,11,,,,61,64
79200,note_on,0,0,10,,,,,,,,11,,,,60,45
79200,note_off,30,0,3,,,,,,,,3,,,,73,64
79200,note_off,30,0,5,,,,,,,,5,,,,61,64
79200,note_off,30,0,4,,,,,,,,4,,,,65,64
79200,note_off,30,0,9,,,,,,,,10,,,,65,64
79200,note_on,0,0,9,,,,,,,,10,,,,63,45
79200,note_on,0,0,8,,,,,,,,8,,,,72,45
79200,note_on,0,0,5,,,,,,,,5,,,,60,45
79200,note_on,0,0,4,,,,,,,,4,,,,63,45
79280,note_off,80,0,9,,,,,,,,10,,,,63,64
79280,note_off,80,0,10,,,,,,,,11,,,,60,64
79280,note_off,80,0,4,,,,,,,,4,,,,63,64
79280,note_off,80,0,3,,,,,,,,3,,,,72,64
79280,note_off,80,0,5,,,,,,,,5,,,,60,64
79280,note_off,80,0,8,,,,,,,,8,,,,72,64
79320,note_on,40,0,5,,,,,,,,5,,,,60,45
79320,note_on,40,0,3,,,,,,,,3,,,,72,45
79320,note_on,160,0,6,,,,,,,,6,,,,44,45
79320,note_on,160,0,11,,,,,,,,12,,,,44,45
79320,note_on,160,0,12,,,,,,,,13,,,,32,45
79320,note_on,40,0,8,,,,,,,,8,,,,72,45
79320,note_on,40,0,9,,,,,,,,10,,,,63,45
79320,note_on,40,0,10,,,,,,,,11,,,,60,45
79320,note_on,160,0,13,,,,,,,,14,,,,32,30
79320,note_on,40,0,4,,,,,,,,4,,,,63,45
79320,note_on,160,0,7,,,,,,,,7,,,,32,45
79350,note_off,30,0,8,,,,,,,,8,,,,72,64
79350,note_on,0,0,8,,,,,,,,8,,,,73,45
79350,note_on,0,0,10,,,,,,,,11,,,,61,45
79350,note_off,30,0,10,,,,,,,,11,,,,60,64
79350,note_off,30,0,4,,,,,,,,4,,,,63,64
79350,note_on,0,0,5,,,,,,,,5,,,,61,45
79350,note_off,30,0,5,,,,,,,,5,,,,60,64
79350,note_off,30,0,9,,,,,,,,10,,,,63,64
79350,note_on,0,0,9,,,,,,,,10,,,,65,45
79350,note_on,0,0,3,,,,,,,,3,,,,73,45
79350,note_off,30,0,3,,,,,,,,3,,,,72,64
79350,note_on,0,0,4,,,,,,,,4,,,,65,45
79380,note_off,30,0,4,,,,,,,,4,,,,65,64
79380,note_on,0,0,4,,,,,,,,4,,,,63,45
79380,note_on,0,0,3,,,,,,,,3,,,,72,45
79380,note_off,30,0,3,,,,,,,,3,,,,73,64
79380,note_off,30,0,10,,,,,,,,11,,,,61,64
79380,note_on,0,0,10,,,,,,,,11,,,,60,45
79380,note_off,30,0,5,,,,,,,,5,,,,61,64
79380,note_on,0,0,5,,,,,,,,5,,,,60,45
79380,note_off,30,0,9,,,,,,,,10,,,,65,64
79380,note_on,0,0,9,,,,,,,,10,,,,63,45
79380,note_off,30,0,8,,,,,,,,8,,,,73,64
79380,note_on,0,0,8,,,,,,,,8,,,,72,45
79400,note_off,80,0,12,,,,,,,,13,,,,32,64
79400,note_off,80,0,7,,,,,,,,7,,,,32,64
79400,note_off,80,0,11,,,,,,,,12,,,,44,64
79400,note_off,80,0,13,,,,,,,,14,,,,32,64
79400,note_off,80,0,6,,,,,,,,6,,,,44,64
79410,note_off,30,0,4,,,,,,,,4,,,,63,64
79410,note_off,30,0,5,,,,,,,,5,,,,60,64
79410,note_on,0,0,5,,,,,,,,5,,,,61,45
79410,note_off,30,0,9,,,,,,,,10,,,,63,64
79410,note_on,0,0,8,,,,,,,,8,,,,73,45
79410,note_off,30,0,8,,,,,,,,8,,,,72,64
79410,note_off,30,0,3,,,,,,,,3,,,,72,64
79410,note_on,0,0,3,,,,,,,,3,,,,73,45
79410,note_on,0,0,10,,,,,,,,11,,,,61,45
79410,note_off,30,0,10,,,,,,,,11,,,,60,64
79410,note_on,0,0,9,,,,,,,,10,,,,65,45
79410,note_on,0,0,4,,,,,,,,4,,,,65,45
79440,note_off,30,0,9,,,,,,,,10,,,,65,64
79440,note_on,0,0,4,,,,,,,,4,,,,63,45
79440,note_off,30,0,4,,,,,,,,4,,,,65,64
79440,note_off,30,0,3,,,,,,,,3,,,,73,64
79440,note_off,30,0,8,,,,,,,,8,,,,73,64
79440,note_on,0,0,8,,,,,,,,8,,,,72,45
79440,note_on,0,0,3,,,,,,,,3,,,,72,45
79440,note_off,30,0,5,,,,,,,,5,,,,61,64
79440,note_on,0,0,5,,,,,,,,5,,,,60,45
79440,note_on,0,0,9,,,,,,,,10,,,,63,45
79440,note_on,0,0,10,,,,,,,,11,,,,60,45
79440,note_off,30,0,10,,,,,,,,11,,,,61,64
79520,note_off,80,0,4,,,,,,,,4,,,,63,64
79520,note_off,80,0,5,,,,,,,,5,,,,60,64
79520,note_off,80,0,9,,,,,,,,10,,,,63,64
79520,note_off,80,0,10,,,,,,,,11,,,,60,64
79520,note_off,80,0,8,,,,,,,,8,,,,72,64
79520,note_off,80,0,3,,,,,,,,3,,,,72,64
79560,note_on,160,0,13,,,,,,,,14,,,,32,30
79560,note_on,40,0,9,,,,,,,,10,,,,63,45
79560,note_on,40,0,4,,,,,,,,4,,,,63,45
79560,note_on,160,0,6,,,,,,,,6,,,,44,45
79560,note_on,40,0,3,,,,,,,,3,,,,72,45
79560,note_on,160,0,12,,,,,,,,13,,,,32,45
79560,note_on,40,0,8,,,,,,,,8,,,,72,45
79560,note_on,160,0,7,,,,,,,,7,,,,32,45
79560,note_on,40,0,10,,,,,,,,11,,,,60,45
79560,note_on,40,0,5,,,,,,,,5,,,,60,45
79560,note_on,160,0,11,,,,,,,,12,,,,44,45
79590,note_on,0,0,9,,,,,,,,10,,,,65,45
79590,note_off,30,0,9,,,,,,,,10,,,,63,64
79590,note_off,30,0,8,,,,,,,,8,,,,72,64
79590,note_on,0,0,8,,,,,,,,8,,,,73,45
79590,note_on,0,0,4,,,,,,,,4,,,,65,45
79590,note_off,30,0,4,,,,,,,,4,,,,63,64
79590,note_on,0,0,5,,,,,,,,5,,,,61,45
79590,note_off,30,0,5,,,,,,,,5,,,,60,64
79590,note_off,30,0,10,,,,,,,,11,,,,60,64
79590,note_on,0,0,10,,,,,,,,11,,,,61,45
79590,note_off,30,0,3,,,,,,,,3,,,,72,64
79590,note_on,0,0,3,,,,,,,,3,,,,73,45
79620,note_on,0,0,9,,,,,,,,10,,,,63,45
79620,note_on,0,0,5,,,,,,,,5,,,,60,45
79620,note_off,30,0,5,,,,,,,,5,,,,61,64
79620,note_off,30,0,10,,,,,,,,11,,,,61,64
79620,note_off,30,0,9,,,,,,,,10,,,,65,64
79620,note_on,0,0,4,,,,,,,,4,,,,63,45
79620,note_off,30,0,4,,,,,,,,4,,,,65,64
79620,note_on,0,0,10,,,,,,,,11,,,,60,45
79620,note_on,0,0,3,,,,,,,,3,,,,72,45
79620,note_on,0,0,8,,,,,,,,8,,,,72,45
79620,note_off,30,0,8,,,,,,,,8,,,,73,64
79620,note_off,30,0,3,,,,,,,,3,,,,73,64
79640,note_off,80,0,6,,,,,,,,6,,,,44,64
79640,note_off,80,0,11,,,,,,,,12,,,,44,64
79640,note_off,80,0,13,,,,,,,,14,,,,32,64
79640,note_off,80,0,12,,,,,,,,13,,,,32,64
79640,note_off,80,0,7,,,,,,,,7,,,,32,64
79650,note_on,0,0,5,,,,,,,,5,,,,61,45
79650,note_off,30,0,5,,,,,,,,5,,,,60,64
79650,note_on,0,0,8,,,,,,,,8,,,,73,45
79650,note_off,30,0,8,,,,,,,,8,,,,72,64
79650,note_off,30,0,9,,,,,,,,10,,,,63,64
79650,note_on,0,0,10,,,,,,,,11,,,,61,45
79650,note_off,30,0,10,,,,,,,,11,,,,60,64
79650,note_on,0,0,3,,,,,,,,3,,,,73,45
79650,note_off,30,0,3,,,,,,,,3,,,,72,64
79650,note_on,0,0,9,,,,,,,,10,,,,65,45
79650,note_on,0,0,4,,,,,,,,4,,,,65,45
79650,note_off,30,0,4,,,,,,,,4,,,,63,64
79680,note_on,0,0,10,,,,,,,,11,,,,60,45
79680,note_on,0,0,9,,,,,,,,10,,,,63,45
79680,note_off,30,0,10,,,,,,,,11,,,,61,64
79680,note_off,30,0,9,,,,,,,,10,,,,65,64
79680,note_on,0,0,5,,,,,,,,5,,,,60,45
79680,note_off,30,0,8,,,,,,,,8,,,,73,64
79680,note_off,30,0,4,,,,,,,,4,,,,65,64
79680,note_on,0,0,8,,,,,,,,8,,,,72,45
79680,note_on,0,0,3,,,,,,,,3,,,,72,45
79680,note_off,30,0,3,,,,,,,,3,,,,73,64
79680,note_on,0,0,4,,,,,,,,4,,,,63,45
79680,note_off,30,0,5,,,,,,,,5,,,,61,64
79760,note_off,80,0,3,,,,,,,,3,,,,72,64
79760,note_off,80,0,4,,,,,,,,4,,,,63,64
79760,note_off,80,0,8,,,,,,,,8,,,,72,64
79760,note_off,80,0,5,,,,,,,,5,,,,60,64
79760,note_off,80,0,9,,,,,,,,10,,,,63,64
79760,note_off,80,0,10,,,,,,,,11,,,,60,64
79800,note_on,160,0,7,,,,,,,,7,,,,29,45
79800,note_on,40,0,3,,,,,,,,3,,,,75,45
79800,note_on,40,0,8,,,,,,,,8,,,,75,45
79800,note_on,160,0,13,,,,,,,,14,,,,29,30
79800,note_on,160,0,11,,,,,,,,12,,,,41,45
79800,note_on,160,0,6,,,,,,,,6,,,,41,45
79800,note_on,40,0,5,,,,,,,,5,,,,60,45
79800,note_on,40,0,10,,,,,,,,11,,,,60,45
79800,note_on,40,0,9,,,,,,,,10,,,,69,45
79800,note_on,40,0,4,,,,,,,,4,,,,69,45
79800,note_on,160,0,12,,,,,,,,13,,,,29,45
79830,note_on,0,0,9,,,,,,,,10,,,,70,45
79830,note_off,30,0,5,,,,,,,,5,,,,60,64
79830,note_off,30,0,10,,,,,,,,11,,,,60,64
79830,note_on,0,0,5,,,,,,,,5,,,,61,45
79830,note_off,30,0,4,,,,,,,,4,,,,69,64
79830,note_on,0,0,4,,,,,,,,4,,,,70,45
79830,note_off,30,0,9,,,,,,,,10,,,,69,64
79830,note_on,0,0,10,,,,,,,,11,,,,61,45
79860,note_off,30,0,5,,,,,,,,5,,,,61,64
79860,note_on,0,0,5,,,,,,,,5,,,,60,45
79860,note_on,0,0,9,,,,,,,,10,,,,69,45
79860,note_off,30,0,10,,,,,,,,11,,,,61,64
79860,note_off,30,0,4,,,,,,,,4,,,,70,64
79860,note_off,30,0,9,,,,,,,,10,,,,70,64
79860,note_on,0,0,10,,,,,,,,11,,,,60,45
79860,note_on,0,0,4,,,,,,,,4,,,,69,45
79880,note_off,80,0,12,,,,,,,,13,,,,29,64
79880,note_off,80,0,8,,,,,,,,8,,,,75,64
79880,note_off,80,0,13,,,,,,,,14,,,,29,64
79880,note_off,80,0,3,,,,,,,,3,,,,75,64
79880,note_off,80,0,11,,,,,,,,12,,,,41,64
79880,note_off,80,0,6,,,,,,,,6,,,,41,64
79880,note_off,80,0,7,,,,,,,,7,,,,29,64
79890,note_off,30,0,5,,,,,,,,5,,,,60,64
79890,note_on,0,0,10,,,,,,,,11,,,,61,45
79890,note_on,0,0,4,,,,,,,,4,,,,70,45
79890,note_off,30,0,10,,,,,,,,11,,,,60,64
79890,note_off,30,0,9,,,,,,,,10,,,,69,64
79890,note_off,30,0,4,,,,,,,,4,,,,69,64
79890,note_on,0,0,5,,,,,,,,5,,,,61,45
79890,note_on,0,0,9,,,,,,,,10,,,,70,45
79920,note_off,30,0,9,,,,,,,,10,,,,70,64
79920,note_on,0,0,9,,,,,,,,10,,,,69,45
79920,note_on,40,0,8,,,,,,,,8,,,,75,45
79920,note_on,0,0,4,,,,,,,,4,,,,69,45
79920,note_off,30,0,4,,,,,,,,4,,,,70,64
79920,note_on,40,0,3,,,,,,,,3,,,,75,45
79920,note_off,30,0,5,,,,,,,,5,,,,61,64
79920,note_on,0,0,10,,,,,,,,11,,,,60,45
79920,note_off,30,0,10,,,,,,,,11,,,,61,64
79920,note_on,0,0,5,,,,,,,,5,,,,60,45
80000,note_off,80,0,10,,,,,,,,11,,,,60,64
80000,note_off,80,0,5,,,,,,,,5,,,,60,64
80000,note_off,80,0,9,,,,,,,,10,,,,69,64
80000,note_off,80,0,8,,,,,,,,8,,,,75,64
80000,note_off,80,0,3,,,,,,,,3,,,,75,64
80000,note_off,80,0,4,,,,,,,,4,,,,69,64
80040,note_on,160,0,7,,,,,,,,7,,,,29,45
80040,note_on,160,0,6,,,,,,,,6,,,,41,45
80040,note_on,40,0,9,,,,,,,,10,,,,69,45
80040,note_on,160,0,11,,,,,,,,12,,,,41,45
80040,note_on,40,0,5,,,,,,,,5,,,,60,45
80040,note_on,160,0,13,,,,,,,,14,,,,29,30
80040,note_on,40,0,10,,,,,,,,11,,,,60,45
80040,note_on,40,0,4,,,,,,,,4,,,,69,45
80040,note_on,160,0,12,,,,,,,,13,,,,29,45
80040,note_on,40,0,8,,,,,,,,8,,,,75,45
80040,note_on,40,0,3,,,,,,,,3,,,,75,45
80070,note_on,0,0,4,,,,,,,,4,,,,70,45
80070,note_off,30,0,5,,,,,,,,5,,,,60,64
80070,note_on,0,0,5,,,,,,,,5,,,,61,45
80070,note_on,0,0,9,,,,,,,,10,,,,70,45
80070,note_off,30,0,9,,,,,,,,10,,,,69,64
80070,note_on,0,0,10,,,,,,,,11,,,,61,45
80070,note_off,30,0,10,,,,,,,,11,,,,60,64
80070,note_off,30,0,4,,,,,,,,4,,,,69,64
80100,note_off,30,0,9,,,,,,,,10,,,,70,64
80100,note_on,0,0,9,,,,,,,,10,,,,69,45
80100,note_on,0,0,10,,,,,,,,11,,,,60,45
80100,note_on,0,0,4,,,,,,,,4,,,,69,45
80100,note_off,30,0,4,,,,,,,,4,,,,70,64
80100,note_off,30,0,5,,,,,,,,5,,,,61,64
80100,note_on,0,0,5,,,,,,,,5,,,,60,45
80100,note_off,30,0,10,,,,,,,,11,,,,61,64
80120,note_off,80,0,6,,,,,,,,6,,,,41,64
80120,note_off,80,0,7,,,,,,,,7,,,,29,64
80120,note_off,80,0,8,,,,,,,,8,,,,75,64
80120,note_off,80,0,3,,,,,,,,3,,,,75,64
80120,note_off,80,0,11,,,,,,,,12,,,,41,64
80120,note_off,80,0,12,,,,,,,,13,,,,29,64
80120,note_off,80,0,13,,,,,,,,14,,,,29,64
80130,note_on,0,0,5,,,,,,,,5,,,,61,45
80130,note_on,0,0,4,,,,,,,,4,,,,70,45
80130,note_off,30,0,4,,,,,,,,4,,,,69,64
80130,note_off,30,0,9,,,,,,,,10,,,,69,64
80130,note_on,0,0,9,,,,,,,,10,,,,70,45
80130,note_off,30,0,10,,,,,,,,11,,,,60,64
80130,note_on,0,0,10,,,,,,,,11,,,,61,45
80130,note_off,30,0,5,,,,,,,,5,,,,60,64
80160,note_off,30,0,4,,,,,,,,4,,,,70,64
80160,note_off,30,0,9,,,,,,,,10,,,,70,64
80160,note_off,30,0,5,,,,,,,,5,,,,61,64
80160,note_on,0,0,4,,,,,,,,4,,,,69,45
80160,note_on,0,0,5,,,,,,,,5,,,,60,45
80160,note_on,40,0,3,,,,,,,,3,,,,75,45
80160,note_on,0,0,9,,,,,,,,10,,,,69,45
80160,note_off,30,0,10,,,,,,,,11,,,,61,64
80160,note_on,40,0,8,,,,,,,,8,,,,75,45
80160,note_on,0,0,10,,,,,,,,11,,,,60,45
80240,note_off,80,0,10,,,,,,,,11,,,,60,64
80240,note_off,80,0,9,,,,,,,,10,,,,69,64
80240,note_off,80,0,4,,,,,,,,4,,,,69,64
80240,note_off,80,0,8,,,,,,,,8,,,,75,64
80240,note_off,80,0,5,,,,,,,,5,,,,60,64
80240,note_off,80,0,3,,,,,,,,3,,,,75,64
80280,note_on,160,0,7,,,,,,,,7,,,,29,45
80280,note_on,40,0,10,,,,,,,,11,,,,60,45
80280,note_on,160,0,12,,,,,,,,13,,,,29,45
80280,note_on,40,0,3,,,,,,,,3,,,,75,45
80280,note_on,40,0,8,,,,,,,,8,,,,75,45
80280,note_on,40,0,4,,,,,,,,4,,,,69,45
80280,note_on,160,0,11,,,,,,,,12,,,,41,45
80280,note_on,40,0,9,,,,,,,,10,,,,69,45
80280,note_on,160,0,13,,,,,,,,14,,,,29,30
80280,note_on,40,0,5,,,,,,,,5,,,,60,45
80280,note_on,160,0,6,,,,,,,,6,,,,41,45
80310,note_off,30,0,4,,,,,,,,4,,,,69,64
80310,note_on,0,0,9,,,,,,,,10,,,,70,45
80310,note_on,0,0,4,,,,,,,,4,,,,70,45
80310,note_on,0,0,10,,,,,,,,11,,,,61,45
80310,note_on,0,0,5,,,,,,,,5,,,,61,45
80310,note_off,30,0,5,,,,,,,,5,,,,60,64
80310,note_off,30,0,9,,,,,,,,10,,,,69,64
80310,note_off,30,0,10,,,,,,,,11,,,,60,64
80340,note_on,0,0,5,,,,,,,,5,,,,60,45
80340,note_on,0,0,4,,,,,,,,4,,,,69,45
80340,note_off,30,0,4,,,,,,,,4,,,,70,64
80340,note_on,0,0,10,,,,,,,,11,,,,60,45
80340,note_off,30,0,9,,,,,,,,10,,,,70,64
80340,note_off,30,0,5,,,,,,,,5,,,,61,64
80340,note_on,0,0,9,,,,,,,,10,,,,69,45
80340,note_off,30,0,10,,,,,,,,11,,,,61,64
80360,note_off,80,0,11,,,,,,,,12,,,,41,64
80360,note_off,80,0,13,,,,,,,,14,,,,29,64
80360,note_off,80,0,12,,,,,,,,13,,,,29,64
80360,note_off,80,0,8,,,,,,,,8,,,,75,64
80360,note_off,80,0,6,,,,,,,,6,,,,41,64
80360,note_off,80,0,7,,,,,,,,7,,,,29,64
80360,note_off,80,0,3,,,,,,,,3,,,,75,64
80370,note_on,0,0,9,,,,,,,,10,,,,70,45
80370,note_off,30,0,9,,,,,,,,10,,,,69,64
80370,note_on,0,0,4,,,,,,,,4,,,,70,45
80370,note_off,30,0,5,,,,,,,,5,,,,60,64
80370,note_on,0,0,5,,,,,,,,5,,,,61,45
80370,note_off,30,0,10,,,,,,,,11,,,,60,64
80370,note_off,30,0,4,,,,,,,,4,,,,69,64
80370,note_on,0,0,10,,,,,,,,11,,,,61,45
80400,note_off,30,0,9,,,,,,,,10,,,,70,64
80400,note_on,0,0,5,,,,,,,,5,,,,60,45
80400,note_off,30,0,10,,,,,,,,11,,,,61,64
80400,note_on,0,0,4,,,,,,,,4,,,,69,45
80400,note_off,30,0,4,,,,,,,,4,,,,70,64
80400,note_on,40,0,8,,,,,,,,8,,,,75,45
80400,note_on,0,0,9,,,,,,,,10,,,,69,45
80400,note_off,30,0,5,,,,,,,,5,,,,61,64
80400,note_on,0,0,10,,,,,,,,11,,,,60,45
80400,note_on,40,0,3,,,,,,,,3,,,,75,45
80480,note_off,80,0,10,,,,,,,,11,,,,60,64
80480,note_off,80,0,3,,,,,,,,3,,,,75,64
80480,note_off,80,0,9,,,,,,,,10,,,,69,64
80480,note_off,80,0,8,,,,,,,,8,,,,75,64
80480,note_off,80,0,5,,,,,,,,5,,,,60,64
80480,note_off,80,0,4,,,,,,,,4,,,,69,64
80520,note_on,40,0,5,,,,,,,,5,,,,60,45
80520,note_on,40,0,3,,,,,,,,3,,,,75,45
80520,note_on,40,0,8,,,,,,,,8,,,,75,45
80520,note_on,160,0,12,,,,,,,,13,,,,29,45
80520,note_on,160,0,13,,,,,,,,14,,,,29,30
80520,note_on,160,0,6,,,,,,,,6,,,,41,45
80520,note_on,160,0,7,,,,,,,,7,,,,29,45
80520,note_on,40,0,10,,,,,,,,11,,,,60,45
80520,note_on,40,0,9,,,,,,,,10,,,,69,45
80520,note_on,160,0,11,,,,,,,,12,,,,41,45
80520,note_on,40,0,4,,,,,,,,4,,,,69,45
80550,note_off,30,0,4,,,,,,,,4,,,,69,64
80550,note_off,30,0,5,,,,,,,,5,,,,60,64
80550,note_off,30,0,9,,,,,,,,10,,,,69,64
80550,note_on,0,0,9,,,,,,,,10,,,,70,45
80550,note_on,0,0,5,,,,,,,,5,,,,61,45
80550,note_on,0,0,4,,,,,,,,4,,,,70,45
80550,note_off,30,0,10,,,,,,,,11,,,,60,64
80550,note_on,0,0,10,,,,,,,,11,,,,61,45
80580,note_off,30,0,5,,,,,,,,5,,,,61,64
80580,note_on,0,0,5,,,,,,,,5,,,,60,45
80580,note_on,0,0,4,,,,,,,,4,,,,69,45
80580,note_on,0,0,10,,,,,,,,11,,,,60,45
80580,note_off,30,0,4,,,,,,,,4,,,,70,64
80580,note_on,0,0,9,,,,,,,,10,,,,69,45
80580,note_off,30,0,9,,,,,,,,10,,,,70,64
80580,note_off,30,0,10,,,,,,,,11,,,,61,64
80600,note_off,80,0,3,,,,,,,,3,,,,75,64
80600,note_off,80,0,6,,,,,,,,6,,,,41,64
80600,note_off,80,0,12,,,,,,,,13,,,,29,64
80600,note_off,80,0,11,,,,,,,,12,,,,41,64
80600,note_off,80,0,8,,,,,,,,8,,,,75,64
80600,note_off,80,0,7,,,,,,,,7,,,,29,64
80600,note_off,80,0,13,,,,,,,,14,,,,29,64
80610,note_off,30,0,9,,,,,,,,10,,,,69,64
80610,note_on,0,0,9,,,,,,,,10,,,,70,45
80610,note_off,30,0,4,,,,,,,,4,,,,69,64
80610,note_on,0,0,5,,,,,,,,5,,,,61,45
80610,note_on,0,0,4,,,,,,,,4,,,,70,45
80610,note_off,30,0,5,,,,,,,,5,,,,60,64
80610,note_on,0,0,10,,,,,,,,11,,,,61,45
80610,note_off,30,0,10,,,,,,,,11,,,,60,64
80640,note_off,30,0,4,,,,,,,,4,,,,70,64
80640,note_off,30,0,5,,,,,,,,5,,,,61,64
80640,note_off,30,0,10,,,,,,,,11,,,,61,64
80640,note_on,0,0,10,,,,,,,,11,,,,60,45
80640,note_on,0,0,5,,,,,,,,5,,,,60,45
80640,note_on,40,0,3,,,,,,,,3,,,,75,45
80640,note_off,30,0,9,,,,,,,,10,,,,70,64
80640,note_on,40,0,8,,,,,,,,8,,,,75,45
80640,note_on,0,0,9,,,,,,,,10,,,,69,45
80640,note_on,0,0,4,,,,,,,,4,,,,69,45
80720,note_off,80,0,8,,,,,,,,8,,,,75,64
80720,note_off,80,0,3,,,,,,,,3,,,,75,64
80720,note_off,80,0,10,,,,,,,,11,,,,60,64
80720,note_off,80,0,5,,,,,,,,5,,,,60,64
80720,note_off,80,0,4,,,,,,,,4,,,,69,64
80720,note_off,80,0,9,,,,,,,,10,,,,69,64
80760,note_on,40,0,9,,,,,,,,10,,,,65,45
80760,note_on,160,0,12,,,,,,,,13,,,,34,45
80760,note_on,40,0,3,,,,,,,,3,,,,74,45
80760,note_on,160,0,6,,,,,,,,6,,,,46,45
80760,note_on,40,0,4,,,,,,,,4,,,,65,45
80760,note_on,40,0,10,,,,,,,,11,,,,58,45
80760,note_on,160,0,13,,,,,,,,14,,,,34,30
80760,note_on,160,0,7,,,,,,,,7,,,,34,45
80760,note_on,40,0,8,,,,,,,,8,,,,74,45
80760,note_on,40,0,5,,,,,,,,5,,,,58,45
80760,note_on,160,0,11,,,,,,,,12,,,,46,45
80790,note_on,0,0,5,,,,,,,,5,,,,60,45
80790,note_off,30,0,8,,,,,,,,8,,,,74,64
80790,note_off,30,0,10,,,,,,,,11,,,,58,64
80790,note_on,0,0,10,,,,,,,,11,,,,60,45
80790,note_on,0,0,8,,,,,,,,8,,,,75,45
80790,note_off,30,0,3,,,,,,,,3,,,,74,64
80790,note_off,30,0,4,,,,,,,,4,,,,65,64
80790,note_on,0,0,4,,,,,,,,4,,,,67,45
80790,note_on,0,0,3,,,,,,,,3,,,,75,45
80790,note_on,0,0,9,,,,,,,,10,,,,67,45
80790,note_off,30,0,9,,,,,,,,10,,,,65,64
80790,note_off,30,0,5,,,,,,,,5,,,,58,64
80820,note_off,30,0,9,,,,,,,,10,,,,67,64
80820,note_on,0,0,9,,,,,,,,10,,,,65,45
80820,note_on,0,0,8,,,,,,,,8,,,,74,45
80820,note_on,0,0,4,,,,,,,,4,,,,65,45
80820,note_off,30,0,4,,,,,,,,4,,,,67,64
80820,note_off,30,0,8,,,,,,,,8,,,,75,64
80820,note_off,30,0,10,,,,,,,,11,,,,60,64
80820,note_on,0,0,10,,,,,,,,11,,,,58,45
80820,note_off,30,0,3,,,,,,,,3,,,,75,64
80820,note_off,30,0,5,,,,,,,,5,,,,60,64
80820,note_on,0,0,5,,,,,,,,5,,,,58,45
80820,note_on,0,0,3,,,,,,,,3,,,,74,45
80840,note_off,80,0,11,,,,,,,,12,,,,46,64
80840,note_off,80,0,13,,,,,,,,14,,,,34,64
80840,note_off,80,0,12,,,,,,,,13,,,,34,64
80840,note_off,80,0,6,,,,,,,,6,,,,46,64
80840,note_off,80,0,7,,,,,,,,7,,,,34,64
80850,note_off,30,0,10,,,,,,,,11,,,,58,64
80850,note_on,0,0,10,,,,,,,,11,,,,60,45
80850,note_off,30,0,4,,,,,,,,4,,,,65,64
80850,note_on,0,0,4,,,,,,,,4,,,,67,45
80850,note_off,30,0,8,,,,,,,,8,,,,74,64
80850,note_off,30,0,3,,,,,,,,3,,,,74,64
80850,note_on,0,0,5,,,,,,,,5,,,,60,45
80850,note_on,0,0,3,,,,,,,,3,,,,75,45
80850,note_off,30,0,5,,,,,,,,5,,,,58,64
80850,note_on,0,0,9,,,,,,,,10,,,,67,45
80850,note_on,0,0,8,,,,,,,,8,,,,75,45
80850,note_off,30,0,9,,,,,,,,10,,,,65,64
80880,note_off,30,0,8,,,,,,,,8,,,,75,64
80880,note_on,0,0,5,,,,,,,,5,,,,58,45
80880,note_off,30,0,5,,,,,,,,5,,,,60,64
80880,note_off,30,0,3,,,,,,,,3,,,,75,64
80880,note_on,0,0,3,,,,,,,,3,,,,74,45
80880,note_on,0,0,10,,,,,,,,11,,,,58,45
80880,note_off,30,0,4,,,,,,,,4,,,,67,64
80880,note_on,0,0,4,,,,,,,,4,,,,65,45
80880,note_on,0,0,9,,,,,,,,10,,,,65,45
80880,note_on,0,0,8,,,,,,,,8,,,,74,45
80880,note_off,30,0,9,,,,,,,,10,,,,67,64
80880,note_off,30,0,10,,,,,,,,11,,,,60,64
80960,note_off,80,0,10,,,,,,,,11,,,,58,64
80960,note_off,80,0,9,,,,,,,,10,,,,65,64
80960,note_off,80,0,5,,,,,,,,5,,,,58,64
80960,note_off,80,0,8,,,,,,,,8,,,,74,64
80960,note_off,80,0,4,,,,,,,,4,,,,65,64
80960,note_off,80,0,3,,,,,,,,3,,,,74,64
81000,note_on,40,0,8,,,,,,,,8,,,,74,47
81000,note_on,160,0,12,,,,,,,,13,,,,34,49
81000,note_on,40,0,10,,,,,,,,11,,,,58,47
81000,note_on,160,0,11,,,,,,,,12,,,,46,49
81000,note_on,40,0,5,,,,,,,,5,,,,58,47
81000,note_on,160,0,7,,,,,,,,7,,,,34,49
81000,note_on,40,0,3,,,,,,,,3,,,,74,47
81000,note_on,40,0,9,,,,,,,,10,,,,65,47
81000,note_on,160,0,13,,,,,,,,14,,,,34,34
81000,note_on,160,0,6,,,,,,,,6,,,,46,49
81000,note_on,40,0,4,,,,,,,,4,,,,65,47
81030,note_on,0,0,3,,,,,,,,3,,,,75,47
81030,note_off,30,0,10,,,,,,,,11,,,,58,64
81030,note_on,0,0,10,,,,,,,,11,,,,60,47
81030,note_off,30,0,3,,,,,,,,3,,,,74,64
81030,note_off,30,0,5,,,,,,,,5,,,,58,64
81030,note_off,30,0,4,,,,,,,,4,,,,65,64
81030,note_on,0,0,4,,,,,,,,4,,,,67,47
81030,note_on,0,0,5,,,,,,,,5,,,,60,47
81030,note_on,0,0,9,,,,,,,,10,,,,67,47
81030,note_off,30,0,9,,,,,,,,10,,,,65,64
81030,note_off,30,0,8,,,,,,,,8,,,,74,64
81030,note_on,0,0,8,,,,,,,,8,,,,75,47
81060,note_off,30,0,9,,,,,,,,10,,,,67,64
81060,note_off,30,0,3,,,,,,,,3,,,,75,64
81060,note_off,30,0,4,,,,,,,,4,,,,67,64
81060,note_on,0,0,4,,,,,,,,4,,,,65,47
81060,note_on,0,0,3,,,,,,,,3,,,,74,47
81060,note_on,0,0,5,,,,,,,,5,,,,58,47
81060,note_off,30,0,10,,,,,,,,11,,,,60,64
81060,note_on,0,0,8,,,,,,,,8,,,,74,47
81060,note_off,30,0,8,,,,,,,,8,,,,75,64
81060,note_on,0,0,9,,,,,,,,10,,,,65,47
81060,note_off,30,0,5,,,,,,,,5,,,,60,64
81060,note_on,0,0,10,,,,,,,,11,,,,58,47
81080,note_off,80,0,12,,,,,,,,13,,,,34,64
81080,note_off,80,0,13,,,,,,,,14,,,,34,64
81080,note_off,80,0,7,,,,,,,,7,,,,34,64
81080,note_off,80,0,6,,,,,,,,6,,,,46,64
81080,note_off,80,0,11,,,,,,,,12,,,,46,64
81090,note_on,0,0,9,,,,,,,,10,,,,67,47
81090,note_on,0,0,3,,,,,,,,3,,,,75,47
81090,note_off,30,0,3,,,,,,,,3,,,,74,64
81090,note_off,30,0,4,,,,,,,,4,,,,65,64
81090,note_on,0,0,8,,,,,,,,8,,,,75,47
81090,note_on,0,0,10,,,,,,,,11,,,,60,47
81090,note_on,0,0,4,,,,,,,,4,,,,67,47
81090,note_off,30,0,8,,,,,,,,8,,,,74,64
81090,note_off,30,0,9,,,,,,,,10,,,,65,64
81090,note_off,30,0,5,,,,,,,,5,,,,58,64
81090,note_on,0,0,5,,,,,,,,5,,,,60,47
81090,note_off,30,0,10,,,,,,,,11,,,,58,64
81120,note_on,0,0,3,,,,,,,,3,,,,74,47
81120,note_off,30,0,3,,,,,,,,3,,,,75,64
81120,note_on,0,0,5,,,,,,,,5,,,,58,47
81120,note_off,30,0,5,,,,,,,,5,,,,60,64
81120,note_on,0,0,4,,,,,,,,4,,,,65,47
81120,note_off,30,0,8,,,,,,,,8,,,,75,64
81120,note_off,30,0,9,,,,,,,,10,,,,67,64
81120,note_on,0,0,8,,,,,,,,8,,,,74,47
81120,note_off,30,0,4,,,,,,,,4,,,,67,64
81120,note_on,0,0,10,,,,,,,,11,,,,58,47
81120,note_off,30,0,10,,,,,,,,11,,,,60,64
81120,note_on,0,0,9,,,,,,,,10,,,,65,47
81200,note_off,80,0,4,,,,,,,,4,,,,65,64
81200,note_off,80,0,5,,,,,,,,5,,,,58,64
81200,note_off,80,0,9,,,,,,,,10,,,,65,64
81200,note_off,80,0,10,,,,,,,,11,,,,58,64
81200,note_off,80,0,8,,,,,,,,8,,,,74,64
81200,note_off,80,0,3,,,,,,,,3,,,,74,64
81240,note_on,40,0,4,,,,,,,,4,,,,65,49
81240,note_on,40,0,9,,,,,,,,10,,,,65,49
81240,note_on,40,0,10,,,,,,,,11,,,,58,49
81240,note_on,160,0,6,,,,,,,,6,,,,46,53
81240,note_on,160,0,11,,,,,,,,12,,,,46,53
81240,note_on,40,0,8,,,,,,,,8,,,,74,49
81240,note_on,160,0,13,,,,,,,,14,,,,34,38
81240,note_on,160,0,7,,,,,,,,7,,,,34,53
81240,note_on,160,0,12,,,,,,,,13,,,,34,53
81240,note_on,40,0,3,,,,,,,,3,,,,74,49
81240,note_on,40,0,5,,,,,,,,5,,,,58,49
81270,note_off,30,0,5,,,,,,,,5,,,,58,64
81270,note_on,0,0,5,,,,,,,,5,,,,60,49
81270,note_on,0,0,4,,,,,,,,4,,,,67,49
81270,note_off,30,0,4,,,,,,,,4,,,,65,64
81270,note_off,30,0,8,,,,,,,,8,,,,74,64
81270,note_on,0,0,8,,,,,,,,8,,,,75,49
81270,note_off,30,0,10,,,,,,,,11,,,,58,64
81270,note_on,0,0,10,,,,,,,,11,,,,60,49
81270,note_off,30,0,9,,,,,,,,10,,,,65,64
81270,note_on,0,0,9,,,,,,,,10,,,,67,49
81270,note_on,0,0,3,,,,,,,,3,,,,75,49
81270,note_off,30,0,3,,,,,,,,3,,,,74,64
81300,note_off,30,0,8,,,,,,,,8,,,,75,64
81300,note_on,0,0,8,,,,,,,,8,,,,74,49
81300,note_off,30,0,9,,,,,,,,10,,,,67,64
81300,note_on,0,0,9,,,,,,,,10,,,,65,49
81300,note_on,0,0,5,,,,,,,,5,,,,58,49
81300,note_off,30,0,3,,,,,,,,3,,,,75,64
81300,note_on,0,0,3,,,,,,,,3,,,,74,49
81300,note_on,0,0,4,,,,,,,,4,,,,65,49
81300,note_off,30,0,4,,,,,,,,4,,,,67,64
81300,note_off,30,0,10,,,,,,,,11,,,,60,64
81300,note_on,0,0,10,,,,,,,,11,,,,58,49
81300,note_off,30,0,5,,,,,,,,5,,,,60,64
81320,note_off,80,0,13,,,,,,,,14,,,,34,64
81320,note_off,80,0,12,,,,,,,,13,,,,34,64
81320,note_off,80,0,6,,,,,,,,6,,,,46,64
81320,note_off,80,0,11,,,,,,,,12,,,,46,64
81320,note_off,80,0,7,,,,,,,,7,,,,34,64
81330,note_on,0,0,9,,,,,,,,10,,,,67,49
81330,note_off,30,0,4,,,,,,,,4,,,,65,64
81330,note_on,0,0,4,,,,,,,,4,,,,67,49
81330,note_on,0,0,10,,,,,,,,11,,,,60,49
81330,note_off,30,0,3,,,,,,,,3,,,,74,64
81330,note_on,0,0,3,,,,,,,,3,,,,75,49
81330,note_on,0,0,5,,,,,,,,5,,,,60,49
81330,note_off,30,0,5,,,,,,,,5,,,,58,64
81330,note_off,30,0,9,,,,,,,,10,,,,65,64
81330,note_off,30,0,8,,,,,,,,8,,,,74,64
81330,note_on,0,0,8,,,,,,,,8,,,,75,49
81330,note_off,30,0,10,,,,,,,,11,,,,58,64
81360,note_off,30,0,5,,,,,,,,5,,,,60,64
81360,note_off,30,0,3,,,,,,,,3,,,,75,64
81360,note_on,0,0,3,,,,,,,,3,,,,74,49
81360,note_off,30,0,8,,,,,,,,8,,,,75,64
81360,note_on,0,0,4,,,,,,,,4,,,,65,49
81360,note_off,30,0,4,,,,,,,,4,,,,67,64
81360,note_on,0,0,10,,,,,,,,11,,,,58,49
81360,note_off,30,0,10,,,,,,,,11,,,,60,64
81360,note_on,0,0,5,,,,,,,,5,,,,58,49
81360,note_on,0,0,8,,,,,,,,8,,,,74,49
81360,note_off,30,0,9,,,,,,,,10,,,,67,64
81360,note_on,0,0,9,,,,,,,,10,,,,65,49
81440,note_off,80,0,9,,,,,,,,10,,,,65,64
81440,note_off,80,0,5,,,,,,,,5,,,,58,64
81440,note_off,80,0,8,,,,,,,,8,,,,74,64
81440,note_off,80,0,3,,,,,,,,3,,,,74,64
81440,note_off,80,0,10,,,,,,,,11,,,,58,64
81440,note_off,80,0,4,,,,,,,,4,,,,65,64
81480,note_on,40,0,4,,,,,,,,4,,,,65,51
81480,note_on,40,0,9,,,,,,,,10,,,,65,51
81480,note_on,40,0,8,,,,,,,,8,,,,74,51
81480,note_on,160,0,12,,,,,,,,13,,,,34,57
81480,note_on,40,0,3,,,,,,,,3,,,,74,51
81480,note_on,160,0,11,,,,,,,,12,,,,46,57
81480,note_on,160,0,7,,,,,,,,7,,,,34,57
81480,note_on,160,0,13,,,,,,,,14,,,,34,42
81480,note_on,40,0,5,,,,,,,,5,,,,58,51
81480,note_on,40,0,10,,,,,,,,11,,,,58,51
81480,note_on,160,0,6,,,,,,,,6,,,,46,57
81510,note_off,30,0,3,,,,,,,,3,,,,74,64
81510,note_on,0,0,8,,,,,,,,8,,,,75,51
81510,note_on,0,0,5,,,,,,,,5,,,,60,51
81510,note_off,30,0,8,,,,,,,,8,,,,74,64
81510,note_off,30,0,5,,,,,,,,5,,,,58,64
81510,note_on,0,0,9,,,,,,,,10,,,,67,51
81510,note_on,0,0,4,,,,,,,,4,,,,67,51
81510,note_off,30,0,4,,,,,,,,4,,,,65,64
81510,note_off,30,0,9,,,,,,,,10,,,,65,64
81510,note_on,0,0,3,,,,,,,,3,,,,75,51
81510,note_off,30,0,10,,,,,,,,11,,,,58,64
81510,note_on,0,0,10,,,,,,,,11,,,,60,51
81540,note_off,30,0,5,,,,,,,,5,,,,60,64
81540,note_on,0,0,8,,,,,,,,8,,,,74,51
81540,note_off,30,0,10,,,,,,,,11,,,,60,64
81540,note_on,0,0,4,,,,,,,,4,,,,65,51
81540,note_off,30,0,9,,,,,,,,10,,,,67,64
81540,note_on,0,0,9,,,,,,,,10,,,,65,51
81540,note_on,0,0,10,,,,,,,,11,,,,58,51
81540,note_on,0,0,5,,,,,,,,5,,,,58,51
81540,note_on,0,0,3,,,,,,,,3,,,,74,51
81540,note_off,30,0,8,,,,,,,,8,,,,75,64
81540,note_off,30,0,3,,,,,,,,3,,,,75,64
81540,note_off,30,0,4,,,,,,,,4,,,,67,64
81560,note_off,80,0,11,,,,,,,,12,,,,46,64
81560,note_off,80,0,12,,,,,,,,13,,,,34,64
81560,note_off,80,0,7,,,,,,,,7,,,,34,64
81560,note_off,80,0,6,,,,,,,,6,,,,46,64
81560,note_off,80,0,13,,,,,,,,14,,,,34,64
81570,note_on,0,0,10,,,,,,,,11,,,,60,51
81570,note_off,30,0,10,,,,,,,,11,,,,58,64
81570,note_on,0,0,3,,,,,,,,3,,,,75,51
81570,note_off,30,0,4,,,,,,,,4,,,,65,64
81570,note_on,0,0,4,,,,,,,,4,,,,67,51
81570,note_off,30,0,9,,,,,,,,10,,,,65,64
81570,note_off,30,0,5,,,,,,,,5,,,,58,64
81570,note_on,0,0,5,,,,,,,,5,,,,60,51
81570,note_on,0,0,9,,,,,,,,10,,,,67,51
81570,note_on,0,0,8,,,,,,,,8,,,,75,51
81570,note_off,30,0,8,,,,,,,,8,,,,74,64
81570,note_off,30,0,3,,,,,,,,3,,,,74,64
81600,note_on,0,0,3,,,,,,,,3,,,,74,51
81600,note_on,0,0,9,,,,,,,,10,,,,65,51
81600,note_off,30,0,4,,,,,,,,4,,,,67,64
81600,note_off,30,0,5,,,,,,,,5,,,,60,64
81600,note_off,30,0,8,,,,,,,,8,,,,75,64
81600,note_off,30,0,3,,,,,,,,3,,,,75,64
81600,note_on,0,0,4,,,,,,,,4,,,,65,51
81600,note_on,0,0,5,,,,,,,,5,,,,58,51
81600,note_on,0,0,8,,,,,,,,8,,,,74,51
81600,note_off,30,0,9,,,,,,,,10,,,,67,64
81600,note_on,0,0,10,,,,,,,,11,,,,58,51
81600,note_off,30,0,10,,,,,,,,11,,,,60,64
81680,note_off,80,0,5,,,,,,,,5,,,,58,64
81680,note_off,80,0,4,,,,,,,,4,,,,65,64
81680,note_off,80,0,8,,,,,,,,8,,,,74,64
81680,note_off,80,0,3,,,,,,,,3,,,,74,64
81680,note_off,80,0,9,,,,,,,,10,,,,65,64
81680,note_off,80,0,10,,,,,,,,11,,,,58,64
81720,note_on,40,0,9,,,,,,,,10,,,,77,54
81720,note_on,160,0,13,,,,,,,,14,,,,34,46
81720,note_on,40,0,5,,,,,,,,5,,,,62,54
81720,note_on,160,0,12,,,,,,,,13,,,,34,61
81720,note_on,40,0,10,,,,,,,,11,,,,62,54
81720,note_on,40,0,8,,,,,,,,8,,,,80,54
81720,note_on,160,0,11,,,,,,,,12,,,,46,61
81720,note_on,160,0,6,,,,,,,,6,,,,46,61
81720,note_on,40,0,3,,,,,,,,3,,,,80,54
81720,note_on,160,0,7,,,,,,,,7,,,,34,61
81720,note_on,40,0,4,,,,,,,,4,,,,77,54
81750,note_on,0,0,10,,,,,,,,11,,,,63,54
81750,note_off,30,0,10,,,,,,,,11,,,,62,64
81750,note_on,0,0,4,,,,,,,,4,,,,79,54
81750,note_on,0,0,9,,,,,,,,10,,,,79,54
81750,note_on,0,0,5,,,,,,,,5,,,,63,54
81750,note_off,30,0,5,,,,,,,,5,,,,62,64
81750,note_off,30,0,4,,,,,,,,4,,,,77,64
81750,note_off,30,0,9,,,,,,,,10,,,,77,64
81780,note_on,0,0,5,,,,,,,,5,,,,62,54
81780,note_off,30,0,5,,,,,,,,5,,,,63,64
81780,note_off,30,0,9,,,,,,,,10,,,,79,64
81780,note_on,0,0,9,,,,,,,,10,,,,77,54
81780,note_off,30,0,10,,,,,,,,11,,,,63,64
81780,note_on,0,0,4,,,,,,,,4,,,,77,54
81780,note_on,0,0,10,,,,,,,,11,,,,62,54
81780,note_off,30,0,4,,,,,,,,4,,,,79,64
81800,note_off,80,0,8,,,,,,,,8,,,,80,64
81800,note_off,80,0,13,,,,,,,,14,,,,34,64
81800,note_off,80,0,12,,,,,,,,13,,,,34,64
81800,note_off,80,0,3,,,,,,,,3,,,,80,64
81800,note_off,80,0,6,,,,,,,,6,,,,46,64
81800,note_off,80,0,11,,,,,,,,12,,,,46,64
81800,note_off,80,0,7,,,,,,,,7,,,,34,64
81810,note_off,30,0,4,,,,,,,,4,,,,77,64
81810,note_on,0,0,5,,,,,,,,5,,,,63,54
81810,note_off,30,0,9,,,,,,,,10,,,,77,64
81810,note_off,30,0,5,,,,,,,,5,,,,62,64
81810,note_on,0,0,9,,,,,,,,10,,,,79,54
81810,note_on,0,0,4,,,,,,,,4,,,,79,54
81810,note_off,30,0,10,,,,,,,,11,,,,62,64
81810,note_on,0,0,10,,,,,,,,11,,,,63,54
81840,note_on,0,0,9,,,,,,,,10,,,,77,54
81840,note_off,30,0,9,,,,,,,,10,,,,79,64
81840,note_off,30,0,10,,,,,,,,11,,,,63,64
81840,note_on,40,0,8,,,,,,,,8,,,,80,57
81840,note_on,0,0,5,,,,,,,,5,,,,62,54
81840,note_on,0,0,4,,,,,,,,4,,,,77,54
81840,note_off,30,0,4,,,,,,,,4,,,,79,64
81840,note_on,40,0,3,,,,,,,,3,,,,80,57
81840,note_on,0,0,10,,,,,,,,11,,,,62,54
81840,note_off,30,0,5,,,,,,,,5,,,,63,64
81920,note_off,80,0,3,,,,,,,,3,,,,80,64
81920,note_off,80,0,5,,,,,,,,5,,,,62,64
81920,note_off,80,0,8,,,,,,,,8,,,,80,64
81920,note_off,80,0,4,,,,,,,,4,,,,77,64
81920,note_off,80,0,10,,,,,,,,11,,,,62,64
81920,note_off,80,0,9,,,,,,,,10,,,,77,64
81960,note_on,160,0,6,,,,,,,,6,,,,46,65
81960,note_on,160,0,11,,,,,,,,12,,,,46,65
81960,note_on,40,0,9,,,,,,,,10,,,,77,57
81960,note_on,160,0,7,,,,,,,,7,,,,34,65
81960,note_on,160,0,13,,,,,,,,14,,,,34,50
81960,note_on,40,0,5,,,,,,,,5,,,,62,57
81960,note_on,40,0,3,,,,,,,,3,,,,80,60
81960,note_on,40,0,10,,,,,,,,11,,,,62,57
81960,note_on,160,0,12,,,,,,,,13,,,,34,65
81960,note_on,40,0,4,,,,,,,,4,,,,77,57
81960,note_on,40,0,8,,,,,,,,8,,,,80,60
81990,note_off,30,0,9,,,,,,,,10,,,,77,64
81990,note_on,0,0,9,,,,,,,,10,,,,79,57
81990,note_off,30,0,10,,,,,,,,11,,,,62,64
81990,note_on,0,0,10,,,,,,,,11,,,,63,57
81990,note_off,30,0,4,,,,,,,,4,,,,77,64
81990,note_on,0,0,5,,,,,,,,5,,,,63,57
81990,note_off,30,0,5,,,,,,,,5,,,,62,64
81990,note_on,0,0,4,,,,,,,,4,,,,79,57
82020,note_off,30,0,4,,,,,,,,4,,,,79,64
82020,note_on,0,0,10,,,,,,,,11,,,,62,57
82020,note_off,30,0,10,,,,,,,,11,,,,63,64
82020,note_on,0,0,4,,,,,,,,4,,,,77,57
82020,note_on,0,0,5,,,,,,,,5,,,,62,57
82020,note_off,30,0,5,,,,,,,,5,,,,63,64
82020,note_on,0,0,9,,,,,,,,10,,,,77,57
82020,note_off,30,0,9,,,,,,,,10,,,,79,64
82040,note_off,80,0,3,,,,,,,,3,,,,80,64
82040,note_off,80,0,12,,,,,,,,13,,,,34,64
82040,note_off,80,0,11,,,,,,,,12,,,,46,64
82040,note_off,80,0,7,,,,,,,,7,,,,34,64
82040,note_off,80,0,6,,,,,,,,6,,,,46,64
82040,note_off,80,0,13,,,,,,,,14,,,,34,64
82040,note_off,80,0,8,,,,,,,,8,,,,80,64
82050,note_off,30,0,10,,,,,,,,11,,,,62,64
82050,note_on,0,0,10,,,,,,,,11,,,,63,58
82050,note_on,0,0,9,,,,,,,,10,,,,79,58
82050,note_on,0,0,5,,,,,,,,5,,,,63,58
82050,note_off,30,0,9,,,,,,,,10,,,,77,64
82050,note_on,0,0,4,,,,,,,,4,,,,79,58
82050,note_off,30,0,4,,,,,,,,4,,,,77,64
82050,note_off,30,0,5,,,,,,,,5,,,,62,64
82080,note_off,30,0,5,,,,,,,,5,,,,63,64
82080,note_off,30,0,4,,,,,,,,4,,,,79,64
82080,note_on,0,0,4,,,,,,,,4,,,,77,59
82080,note_on,0,0,9,,,,,,,,10,,,,77,59
82080,note_on,0,0,10,,,,,,,,11,,,,62,59
82080,note_off,30,0,10,,,,,,,,11,,,,63,64
82080,note_on,40,0,8,,,,,,,,8,,,,80,63
82080,note_on,0,0,5,,,,,,,,5,,,,62,59
82080,note_off,30,0,9,,,,,,,,10,,,,79,64
82080,note_on,40,0,3,,,,,,,,3,,,,80,63
82160,note_off,80,0,4,,,,,,,,4,,,,77,64
82160,note_off,80,0,9,,,,,,,,10,,,,77,64
82160,note_off,80,0,5,,,,,,,,5,,,,62,64
82160,note_off,80,0,3,,,,,,,,3,,,,80,64
82160,note_off,80,0,10,,,,,,,,11,,,,62,64
82160,note_off,80,0,8,,,,,,,,8,,,,80,64
82200,note_on,40,0,5,,,,,,,,5,,,,62,63
82200,note_on,160,0,11,,,,,,,,12,,,,46,70
82200,note_on,160,0,7,,,,,,,,7,,,,34,70
82200,note_on,40,0,8,,,,,,,,8,,,,80,66
82200,note_on,40,0,3,,,,,,,,3,,,,80,66
82200,note_on,40,0,4,,,,,,,,4,,,,77,63
82200,note_on,40,0,10,,,,,,,,11,,,,62,63
82200,note_on,160,0,6,,,,,,,,6,,,,46,70
82200,note_on,40,0,9,,,,,,,,10,,,,77,63
82200,note_on,160,0,13,,,,,,,,14,,,,34,55
82200,note_on,160,0,12,,,,,,,,13,,,,34,70
82230,note_off,30,0,9,,,,,,,,10,,,,77,64
82230,note_on,0,0,9,,,,,,,,10,,,,79,64
82230,note_off,30,0,5,,,,,,,,5,,,,62,64
82230,note_on,0,0,4,,,,,,,,4,,,,79,64
82230,note_on,0,0,5,,,,,,,,5,,,,63,64
82230,note_off,30,0,10,,,,,,,,11,,,,62,64
82230,note_on,0,0,10,,,,,,,,11,,,,63,64
82230,note_off,30,0,4,,,,,,,,4,,,,77,64
82260,note_on,0,0,10,,,,,,,,11,,,,62,65
82260,note_on,0,0,5,,,,,,,,5,,,,62,65
82260,note_off,30,0,5,,,,,,,,5,,,,63,64
82260,note_off,30,0,9,,,,,,,,10,,,,79,64
82260,note_off,30,0,4,,,,,,,,4,,,,79,64
82260,note_on,0,0,4,,,,,,,,4,,,,77,65
82260,note_off,30,0,10,,,,,,,,11,,,,63,64
82260,note_on,0,0,9,,,,,,,,10,,,,77,65
82280,note_off,80,0,13,,,,,,,,14,,,,34,64
82280,note_off,80,0,6,,,,,,,,6,,,,46,64
82280,note_off,80,0,8,,,,,,,,8,,,,80,64
82280,note_off,80,0,12,,,,,,,,13,,,,34,64
82280,note_off,80,0,7,,,,,,,,7,,,,34,64
82280,note_off,80,0,3,,,,,,,,3,,,,80,64
82280,note_off,80,0,11,,,,,,,,12,,,,46,64
82290,note_on,0,0,9,,,,,,,,10,,,,79,66
82290,note_on,0,0,4,,,,,,,,4,,,,79,66
82290,note_off,30,0,4,,,,,,,,4,,,,77,64
82290,note_off,30,0,5,,,,,,,,5,,,,62,64
82290,note_off,30,0,9,,,,,,,,10,,,,77,64
82290,note_on,0,0,5,,,,,,,,5,,,,63,66
82290,note_off,30,0,10,,,,,,,,11,,,,62,64
82290,note_on,0,0,10,,,,,,,,11,,,,63,66
82320,note_off,30,0,9,,,,,,,,10,,,,79,64
82320,note_off,30,0,4,,,,,,,,4,,,,79,64
82320,note_on,0,0,4,,,,,,,,4,,,,77,67
82320,note_off,30,0,5,,,,,,,,5,,,,63,64
82320,note_on,0,0,5,,,,,,,,5,,,,62,67
82320,note_off,30,0,10,,,,,,,,11,,,,63,64
82320,note_on,0,0,10,,,,,,,,11,,,,62,67
82320,note_on,40,0,8,,,,,,,,8,,,,80,69
82320,note_on,40,0,3,,,,,,,,3,,,,80,69
82320,note_on,0,0,9,,,,,,,,10,,,,77,67
82400,note_off,80,0,4,,,,,,,,4,,,,77,64
82400,note_off,80,0,8,,,,,,,,8,,,,80,64
82400,note_off,80,0,9,,,,,,,,10,,,,77,64
82400,note_off,80,0,5,,,,,,,,5,,,,62,64
82400,note_off,80,0,3,,,,,,,,3,,,,80,64
82400,note_off,80,0,10,,,,,,,,11,,,,62,64
82440,note_on,160,0,13,,,,,,,,14,,,,34,60
82440,note_on,40,0,3,,,,,,,,3,,,,80,72
82440,note_on,40,0,9,,,,,,,,10,,,,77,71
82440,note_on,160,0,12,,,,,,,,13,,,,34,75
82440,note_on,40,0,5,,,,,,,,5,,,,62,71
82440,note_on,160,0,11,,,,,,,,12,,,,46,75
82440,note_on,160,0,6,,,,,,,,6,,,,46,75
82440,note_on,40,0,10,,,,,,,,11,,,,62,71
82440,note_on,160,0,7,,,,,,,,7,,,,34,75
82440,note_on,40,0,8,,,,,,,,8,,,,80,72
82440,note_on,40,0,4,,,,,,,,4,,,,77,71
82470,note_on,0,0,9,,,,,,,,10,,,,79,72
82470,note_off,30,0,10,,,,,,,,11,,,,62,64
82470,note_on,0,0,10,,,,,,,,11,,,,63,72
82470,note_off,30,0,5,,,,,,,,5,,,,62,64
82470,note_on,0,0,5,,,,,,,,5,,,,63,72
82470,note_on,0,0,4,,,,,,,,4,,,,79,72
82470,note_off,30,0,4,,,,,,,,4,,,,77,64
82470,note_off,30,0,9,,,,,,,,10,,,,77,64
82500,note_off,30,0,5,,,,,,,,5,,,,63,64
82500,note_on,0,0,5,,,,,,,,5,,,,62,73
82500,note_off,30,0,4,,,,,,,,4,,,,79,64
82500,note_on,0,0,4,,,,,,,,4,,,,77,73
82500,note_off,30,0,9,,,,,,,,10,,,,79,64
82500,note_on,0,0,9,,,,,,,,10,,,,77,73
82500,note_on,0,0,10,,,,,,,,11,,,,62,73
82500,note_off,30,0,10,,,,,,,,11,,,,63,64
82520,note_off,80,0,6,,,,,,,,6,,,,46,64
82520,note_off,80,0,13,,,,,,,,14,,,,34,64
82520,note_off,80,0,3,,,,,,,,3,,,,80,64
82520,note_off,80,0,8,,,,,,,,8,,,,80,64
82520,note_off,80,0,7,,,,,,,,7,,,,34,64
82520,note_off,80,0,12,,,,,,,,13,,,,34,64
82520,note_off,80,0,11,,,,,,,,12,,,,46,64
82530,note_off,30,0,10,,,,,,,,11,,,,62,64
82530,note_off,30,0,9,,,,,,,,10,,,,77,64
82530,note_on,0,0,10,,,,,,,,11,,,,63,74
82530,note_off,30,0,4,,,,,,,,4,,,,77,64
82530,note_on,0,0,4,,,,,,,,4,,,,79,74
82530,note_on,0,0,5,,,,,,,,5,,,,63,74
82530,note_off,30,0,5,,,,,,,,5,,,,62,64
82530,note_on,0,0,9,,,,,,,,10,,,,79,74
82560,note_on,0,0,5,,,,,,,,5,,,,62,75
82560,note_on,0,0,4,,,,,,,,4,,,,77,75
82560,note_on,40,0,3,,,,,,,,3,,,,80,75
82560,note_off,30,0,4,,,,,,,,4,,,,79,64
82560,note_on,40,0,8,,,,,,,,8,,,,80,75
82560,note_off,30,0,10,,,,,,,,11,,,,63,64
82560,note_off,30,0,9,,,,,,,,10,,,,79,64
82560,note_on,0,0,10,,,,,,,,11,,,,62,75
82560,note_off,30,0,5,,,,,,,,5,,,,63,64
82560,note_on,0,0,9,,,,,,,,10,,,,77,75
82640,note_off,80,0,3,,,,,,,,3,,,,80,64
82640,note_off,80,0,10,,,,,,,,11,,,,62,64
82640,note_off,80,0,4,,,,,,,,4,,,,77,64
82640,note_off,80,0,9,,,,,,,,10,,,,77,64
82640,note_off,80,0,8,,,,,,,,8,,,,80,64
82640,note_off,80,0,5,,,,,,,,5,,,,62,64
82680,note_on,40,0,10,,,,,,,,11,,,,58,45
82680,note_on,12500,0,2,,,,,,,,2,,,,79,60
82680,set_tempo,20160,1,0,857142,,,,,,,,,,,,
82680,note_on,40,0,3,,,,,,,,3,,,,79,45
82680,note_on,40,0,5,,,,,,,,5,,,,58,45
82680,note_on,40,0,4,,,,,,,,4,,,,75,45
82680,note_on,160,0,6,,,,,,,,6,,,,51,45
82680,note_on,40,0,9,,,,,,,,10,,,,75,45
82680,note_on,160,0,12,,,,,,,,13,,,,39,45
82680,note_on,160,0,11,,,,,,,,12,,,,51,45
82680,note_on,160,0,7,,,,,,,,7,,,,39,45
82680,note_on,12500,0,1,,,,,,,,1,,,,79,75
82680,note_on,40,0,8,,,,,,,,8,,,,79,45
82680,note_on,160,0,13,,,,,,,,14,,,,39,45
82795,note_off,115,0,2,,,,,,,,2,,,,79,64
82795,note_off,115,0,1,,,,,,,,1,,,,79,64
82800,note_on,5,0,2,,,,,,,,2,,,,87,60
82800,note_on,5,0,1,,,,,,,,1,,,,87,75
82915,note_off,115,0,2,,,,,,,,2,,,,87,64
82915,note_off,115,0,1,,,,,,,,1,,,,87,64
82920,note_on,5,0,1,,,,,,,,1,,,,87,75
82920,note_on,5,0,2,,,,,,,,2,,,,87,60
83035,note_off,115,0,2,,,,,,,,2,,,,87,64
83035,note_off,115,0,1,,,,,,,,1,,,,87,64
83040,note_on,5,0,2,,,,,,,,2,,,,82,60
83040,note_on,5,0,1,,,,,,,,1,,,,82,75
83080,note_off,400,0,11,,,,,,,,12,,,,51,64
83080,note_off,400,0,9,,,,,,,,10,,,,75,64
83080,note_off,400,0,12,,,,,,,,13,,,,39,64
83080,note_off,400,0,6,,,,,,,,6,,,,51,64
83080,note_off,400,0,5,,,,,,,,5,,,,58,64
83080,note_off,400,0,8,,,,,,,,8,,,,79,64
83080,note_off,400,0,3,,,,,,,,3,,,,79,64
83080,note_off,400,0,7,,,,,,,,7,,,,39,64
83080,note_off,400,0,4,,,,,,,,4,,,,75,64
83080,note_off,400,0,10,,,,,,,,11,,,,58,64
83080,note_off,400,0,13,,,,,,,,14,,,,39,64
83155,note_off,115,0,1,,,,,,,,1,,,,82,64
83155,note_off,115,0,2,,,,,,,,2,,,,82,64
83160,note_on,5,0,1,,,,,,,,1,,,,82,75
83160,note_on,5,0,2,,,,,,,,2,,,,82,60
83275,note_off,115,0,1,,,,,,,,1,,,,82,64
83275,note_off,115,0,2,,,,,,,,2,,,,82,64
83280,note_on,5,0,1,,,,,,,,1,,,,79,75
83280,note_on,5,0,2,,,,,,,,2,,,,79,60
83395,note_off,115,0,1,,,,,,,,1,,,,79,64
83395,note_off,115,0,2,,,,,,,,2,,,,79,64
83400,note_on,5,0,2,,,,,,,,2,,,,79,60
83400,note_on,5,0,1,,,,,,,,1,,,,79,75
83515,note_off,115,0,1,,,,,,,,1,,,,79,64
83515,note_off,115,0,2,,,,,,,,2,,,,79,64
83520,note_on,5,0,1,,,,,,,,1,,,,75,75
83520,note_on,5,0,2,,,,,,,,2,,,,75,60
83635,note_off,115,0,2,,,,,,,,2,,,,75,64
83635,note_off,115,0,1,,,,,,,,1,,,,75,64
83640,note_on,560,0,11,,,,,,,,12,,,,55,45
83640,note_on,5,0,1,,,,,,,,1,,,,75,75
83640,note_on,560,0,6,,,,,,,,6,,,,55,45
83640,note_on,5,0,2,,,,,,,,2,,,,75,60
83880,note_on,0,0,1,,,,,,,,1,,,,79,75
83880,set_tempo,1200,1,0,869565,,,,,,,,,,,,
83880,note_off,240,0,2,,,,,,,,2,,,,75,64
83880,note_on,0,0,2,,,,,,,,2,,,,79,60
83880,note_off,240,0,1,,,,,,,,1,,,,75,64
84040,note_off,400,0,11,,,,,,,,12,,,,55,64
84040,note_off,400,0,6,,,,,,,,6,,,,55,64
84120,note_on,80,0,6,,,,,,,,6,,,,51,45
84120,note_on,80,0,11,,,,,,,,12,,,,51,45
84120,set_tempo,240,1,0,882352,,,,,,,,,,,,
84120,note_on,0,0,2,,,,,,,,2,,,,82,60
84120,note_on,0,0,1,,,,,,,,1,,,,82,75
84120,note_off,240,0,1,,,,,,,,1,,,,79,64
84120,note_off,240,0,2,,,,,,,,2,,,,79,64
84360,note_on,0,0,2,,,,,,,,2,,,,85,60
84360,note_off,240,0,2,,,,,,,,2,,,,82,64
84360,set_tempo,240,1,0,895522,,,,,,,,,,,,
84360,note_off,240,0,1,,,,,,,,1,,,,82,64
84360,note_on,0,0,1,,,,,,,,1,,,,85,75
84520,note_off,400,0,6,,,,,,,,6,,,,51,64
84520,note_off,400,0,11,,,,,,,,12,,,,51,64
84595,note_off,235,0,1,,,,,,,,1,,,,85,64
84595,note_off,235,0,2,,,,,,,,2,,,,85,64
84600,note_on,80,0,11,,,,,,,,12,,,,44,45
84600,note_on,5,0,2,,,,,,,,2,,,,84,60
84600,note_on,5,0,1,,,,,,,,1,,,,84,75
84600,note_on,80,0,6,,,,,,,,6,,,,44,45
84600,set_tempo,240,1,0,857142,,,,,,,,,,,,
84715,note_off,115,0,1,,,,,,,,1,,,,84,64
84715,note_off,115,0,2,,,,,,,,2,,,,84,64
84720,note_on,5,0,1,,,,,,,,1,,,,89,75
84720,note_on,5,0,2,,,,,,,,2,,,,89,60
84835,note_off,115,0,1,,,,,,,,1,,,,89,64
84835,note_off,115,0,2,,,,,,,,2,,,,89,64
84840,note_on,5,0,1,,,,,,,,1,,,,89,75
84840,note_on,5,0,2,,,,,,,,2,,,,89,60
84955,note_off,115,0,1,,,,,,,,1,,,,89,64
84955,note_off,115,0,2,,,,,,,,2,,,,89,64
84960,note_on,5,0,1,,,,,,,,1,,,,84,75
84960,note_on,5,0,2,,,,,,,,2,,,,84,60
85000,note_off,400,0,6,,,,,,,,6,,,,44,64
85000,note_off,400,0,11,,,,,,,,12,,,,44,64
85075,note_off,115,0,2,,,,,,,,2,,,,84,64
85075,note_off,115,0,1,,,,,,,,1,,,,84,64
85080,note_on,5,0,2,,,,,,,,2,,,,84,60
85080,note_on,5,0,1,,,,,,,,1,,,,84,75
85195,note_off,115,0,1,,,,,,,,1,,,,84,64
85195,note_off,115,0,2,,,,,,,,2,,,,84,64
85200,note_on,5,0,2,,,,,,,,2,,,,81,60
85200,note_on,5,0,1,,,,,,,,1,,,,81,75
85315,note_off,115,0,2,,,,,,,,2,,,,81,64
85315,note_off,115,0,1,,,,,,,,1,,,,81,64
85320,note_on,5,0,2,,,,,,,,2,,,,81,60
85320,note_on,5,0,1,,,,,,,,1,,,,81,75
85435,note_off,115,0,2,,,,,,,,2,,,,81,64
85435,note_off,115,0,1,,,,,,,,1,,,,81,64
85440,note_on,5,0,2,,,,,,,,2,,,,77,60
85440,note_on,5,0,1,,,,,,,,1,,,,77,75
85555,note_off,115,0,2,,,,,,,,2,,,,77,64
85555,note_off,115,0,1,,,,,,,,1,,,,77,64
85560,note_on,5,0,1,,,,,,,,1,,,,77,75
85560,note_on,5,0,2,,,,,,,,2,,,,77,60
85560,note_on,560,0,6,,,,,,,,6,,,,57,45
85560,note_on,560,0,11,,,,,,,,12,,,,57,45
85800,note_off,240,0,2,,,,,,,,2,,,,77,64
85800,note_on,0,0,1,,,,,,,,1,,,,81,75
85800,set_tempo,1200,1,0,869565,,,,,,,,,,,,
85800,note_off,240,0,1,,,,,,,,1,,,,77,64
85800,note_on,0,0,2,,,,,,,,2,,,,81,60
85960,note_off,400,0,11,,,,,,,,12,,,,57,64
85960,note_off,400,0,6,,,,,,,,6,,,,57,64
86040,note_on,0,0,2,,,,,,,,2,,,,84,60
86040,set_tempo,240,1,0,882352,,,,,,,,,,,,
86040,note_off,240,0,1,,,,,,,,1,,,,81,64
86040,note_on,0,0,1,,,,,,,,1,,,,84,75
86040,note_off,240,0,2,,,,,,,,2,,,,81,64
86040,note_on,80,0,11,,,,,,,,12,,,,53,45
86040,note_on,80,0,6,,,,,,,,6,,,,53,45
86280,set_tempo,240,1,0,895522,,,,,,,,,,,,
86280,note_on,0,0,2,,,,,,,,2,,,,87,60
86280,note_off,240,0,1,,,,,,,,1,,,,84,64
86280,note_on,0,0,1,,,,,,,,1,,,,87,75
86280,note_off,240,0,2,,,,,,,,2,,,,84,64
86440,note_off,400,0,6,,,,,,,,6,,,,53,64
86440,note_off,400,0,11,,,,,,,,12,,,,53,64
86515,note_off,235,0,1,,,,,,,,1,,,,87,64
86515,note_off,235,0,2,,,,,,,,2,,,,87,64
86520,set_tempo,240,1,0,857142,,,,,,,,,,,,
86520,note_on,80,0,6,,,,,,,,6,,,,46,45
86520,note_on,5,0,1,,,,,,,,1,,,,86,75
86520,note_on,80,0,11,,,,,,,,12,,,,46,45
86520,note_on,5,0,2,,,,,,,,2,,,,86,60
86635,note_off,115,0,1,,,,,,,,1,,,,86,64
86635,note_off,115,0,2,,,,,,,,2,,,,86,64
86640,note_on,5,0,1,,,,,,,,1,,,,91,75
86640,note_on,5,0,2,,,,,,,,2,,,,91,60
86755,note_off,115,0,1,,,,,,,,1,,,,91,64
86755,note_off,115,0,2,,,,,,,,2,,,,91,64
86760,note_on,5,0,1,,,,,,,,1,,,,91,75
86760,note_on,5,0,2,,,,,,,,2,,,,91,60
86875,note_off,115,0,1,,,,,,,,1,,,,91,64
86875,note_off,115,0,2,,,,,,,,2,,,,91,64
86880,note_on,5,0,1,,,,,,,,1,,,,86,75
86880,note_on,5,0,2,,,,,,,,2,,,,86,60
86920,note_off,400,0,6,,,,,,,,6,,,,46,64
86920,note_off,400,0,11,,,,,,,,12,,,,46,64
86995,note_off,115,0,2,,,,,,,,2,,,,86,64
86995,note_off,115,0,1,,,,,,,,1,,,,86,64
87000,note_on,5,0,2,,,,,,,,2,,,,86,60
87000,note_on,5,0,1,,,,,,,,1,,,,86,75
87115,note_off,115,0,1,,,,,,,,1,,,,86,64
87115,note_off,115,0,2,,,,,,,,2,,,,86,64
87120,note_on,5,0,1,,,,,,,,1,,,,83,75
87120,note_on,5,0,2,,,,,,,,2,,,,83,60
87235,note_off,115,0,1,,,,,,,,1,,,,83,64
87235,note_off,115,0,2,,,,,,,,2,,,,83,64
87240,note_on,5,0,2,,,,,,,,2,,,,83,60
87240,note_on,5,0,1,,,,,,,,1,,,,83,75
87355,note_off,115,0,2,,,,,,,,2,,,,83,64
87355,note_off,115,0,1,,,,,,,,1,,,,83,64
87360,note_on,5,0,2,,,,,,,,2,,,,79,60
87360,note_on,5,0,1,,,,,,,,1,,,,79,75
87475,note_off,115,0,2,,,,,,,,2,,,,79,64
87475,note_off,115,0,1,,,,,,,,1,,,,79,64
87480,note_on,5,0,1,,,,,,,,1,,,,79,75
87480,note_on,560,0,6,,,,,,,,6,,,,59,45
87480,note_on,5,0,2,,,,,,,,2,,,,79,60
87480,note_on,560,0,11,,,,,,,,12,,,,59,45
87720,note_off,240,0,1,,,,,,,,1,,,,79,64
87720,note_on,0,0,1,,,,,,,,1,,,,83,72
87720,note_on,0,0,2,,,,,,,,2,,,,83,57
87720,note_off,240,0,2,,,,,,,,2,,,,79,64
87880,note_off,400,0,11,,,,,,,,12,,,,59,64
87880,note_off,400,0,6,,,,,,,,6,,,,59,64
87960,note_on,0,0,2,,,,,,,,2,,,,86,53
87960,note_off,240,0,2,,,,,,,,2,,,,83,64
87960,note_on,80,0,11,,,,,,,,12,,,,55,45
87960,note_on,80,0,6,,,,,,,,6,,,,55,45
87960,note_off,240,0,1,,,,,,,,1,,,,83,64
87960,note_on,0,0,1,,,,,,,,1,,,,86,68
88200,note_off,240,0,2,,,,,,,,2,,,,86,64
88200,note_on,0,0,1,,,,,,,,1,,,,89,64
88200,note_off,240,0,1,,,,,,,,1,,,,86,64
88200,note_on,0,0,2,,,,,,,,2,,,,89,49
88360,note_off,400,0,11,,,,,,,,12,,,,55,64
88360,note_off,400,0,6,,,,,,,,6,,,,55,64
88435,note_off,235,0,1,,,,,,,,1,,,,89,64
88435,note_off,235,0,2,,,,,,,,2,,,,89,64
88440,note_on,5360,0,5,,,,,,,,5,,,,60,45
88440,note_on,80,0,11,,,,,,,,12,,,,48,45
88440,note_on,5,0,2,,,,,,,,2,,,,84,45
88440,note_on,80,0,6,,,,,,,,6,,,,48,45
88440,note_on,5360,0,9,,,,,,,,10,,,,75,45
88440,note_on,0,0,2,,,,,,,,2,,,,87,45
88440,note_on,5360,0,4,,,,,,,,4,,,,75,45
88440,note_on,5360,0,10,,,,,,,,11,,,,60,45
88440,note_on,5360,0,7,,,,,,,,7,,,,36,45
88440,note_on,5,0,1,,,,,,,,1,,,,84,60
88440,note_on,0,0,1,,,,,,,,1,,,,87,60
88440,note_on,5360,0,3,,,,,,,,3,,,,84,45
88440,set_tempo,1920,1,0,810810,,,,,,,,,,,,
88440,note_on,5360,0,8,,,,,,,,8,,,,84,45
88470,note_on,0,0,10,,,,,,,,11,,,,61,45
88470,note_on,0,0,5,,,,,,,,5,,,,61,45
88470,note_off,30,0,5,,,,,,,,5,,,,60,64
88470,note_off,30,0,10,,,,,,,,11,,,,60,64
88480,note_off,40,0,1,,,,,,,,1,,,,87,64
88480,note_off,0,0,1,,,,,,,,1,,,,84,64
88480,note_off,40,0,2,,,,,,,,2,,,,87,64
88480,note_off,0,0,2,,,,,,,,2,,,,84,64
88500,note_off,30,0,5,,,,,,,,5,,,,61,64
88500,note_off,30,0,10,,,,,,,,11,,,,61,64
88500,note_on,0,0,10,,,,,,,,11,,,,60,45
88500,note_on,20,0,1,,,,,,,,1,,,,84,60
88500,note_on,0,0,1,,,,,,,,1,,,,87,60
88500,note_on,0,0,5,,,,,,,,5,,,,60,45
88500,note_on,20,0,2,,,,,,,,2,,,,84,45
88500,note_on,0,0,2,,,,,,,,2,,,,87,45
88520,note_off,80,0,9,,,,,,,,10,,,,75,64
88520,note_off,80,0,3,,,,,,,,3,,,,84,64
88520,note_off,80,0,8,,,,,,,,8,,,,84,64
88520,note_off,80,0,4,,,,,,,,4,,,,75,64
88530,note_off,30,0,10,,,,,,,,11,,,,60,64
88530,note_on,0,0,10,,,,,,,,11,,,,61,45
88530,note_on,0,0,5,,,,,,,,5,,,,61,45
88530,note_off,30,0,5,,,,,,,,5,,,,60,64
88540,note_off,0,0,2,,,,,,,,2,,,,84,64
88540,note_off,40,0,1,,,,,,,,1,,,,87,64
88540,note_off,40,0,2,,,,,,,,2,,,,87,64
88540,note_off,0,0,1,,,,,,,,1,,,,84,64
88560,note_off,30,0,5,,,,,,,,5,,,,61,64
88560,note_on,0,0,10,,,,,,,,11,,,,60,45
88560,note_off,30,0,10,,,,,,,,11,,,,61,64
88560,note_on,40,0,3,,,,,,,,3,,,,84,45
88560,note_on,20,0,1,,,,,,,,1,,,,84,60
88560,note_on,0,0,2,,,,,,,,2,,,,87,45
88560,note_on,0,0,5,,,,,,,,5,,,,60,45
88560,note_on,40,0,4,,,,,,,,4,,,,75,45
88560,note_on,40,0,9,,,,,,,,10,,,,75,45
88560,note_on,20,0,2,,,,,,,,2,,,,84,45
88560,note_on,40,0,8,,,,,,,,8,,,,84,45
88560,note_on,0,0,1,,,,,,,,1,,,,87,60
88600,note_off,0,0,2,,,,,,,,2,,,,84,64
88600,note_off,40,0,1,,,,,,,,1,,,,87,64
88600,note_off,0,0,1,,,,,,,,1,,,,84,64
88600,note_off,40,0,2,,,,,,,,2,,,,87,64
88620,note_on,0,0,1,,,,,,,,1,,,,87,60
88620,note_on,20,0,1,,,,,,,,1,,,,84,60
88620,note_on,20,0,2,,,,,,,,2,,,,84,45
88620,note_on,0,0,2,,,,,,,,2,,,,87,45
88640,note_off,80,0,10,,,,,,,,11,,,,60,64
88640,note_off,80,0,9,,,,,,,,10,,,,75,64
88640,note_off,80,0,3,,,,,,,,3,,,,84,64
88640,note_off,80,0,5,,,,,,,,5,,,,60,64
88640,note_off,80,0,8,,,,,,,,8,,,,84,64
88640,note_off,80,0,4,,,,,,,,4,,,,75,64
88660,note_off,0,0,2,,,,,,,,2,,,,84,64
88660,note_off,0,0,1,,,,,,,,1,,,,84,64
88660,note_off,40,0,1,,,,,,,,1,,,,87,64
88660,note_off,40,0,2,,,,,,,,2,,,,87,64
88680,note_on,40,0,10,,,,,,,,11,,,,60,45
88680,note_on,40,0,8,,,,,,,,8,,,,84,45
88680,note_on,20,0,1,,,,,,,,1,,,,84,60
88680,note_on,40,0,3,,,,,,,,3,,,,84,45
88680,note_on,0,0,1,,,,,,,,1,,,,87,60
88680,note_on,0,0,2,,,,,,,,2,,,,87,45
88680,note_on,40,0,5,,,,,,,,5,,,,60,45
88680,note_on,40,0,4,,,,,,,,4,,,,75,45
88680,note_on,20,0,2,,,,,,,,2,,,,84,45
88680,note_on,40,0,9,,,,,,,,10,,,,75,45
88710,note_on,0,0,5,,,,,,,,5,,,,61,45
88710,note_off,30,0,5,,,,,,,,5,,,,60,64
88710,note_on,0,0,10,,,,,,,,11,,,,61,45
88710,note_off,30,0,10,,,,,,,,11,,,,60,64
88720,note_off,40,0,1,,,,,,,,1,,,,87,64
88720,note_off,0,0,1,,,,,,,,1,,,,84,64
88720,note_off,40,0,2,,,,,,,,2,,,,87,64
88720,note_off,0,0,2,,,,,,,,2,,,,84,64
88740,note_on,20,0,1,,,,,,,,1,,,,84,60
88740,note_on,0,0,2,,,,,,,,2,,,,87,45
88740,note_on,0,0,5,,,,,,,,5,,,,60,45
88740,note_off,30,0,5,,,,,,,,5,,,,61,64
88740,note_off,30,0,10,,,,,,,,11,,,,61,64
88740,note_on,0,0,10,,,,,,,,11,,,,60,45
88740,note_on,0,0,1,,,,,,,,1,,,,87,60
88740,note_on,20,0,2,,,,,,,,2,,,,84,45
88760,note_off,80,0,3,,,,,,,,3,,,,84,64
88760,note_off,80,0,8,,,,,,,,8,,,,84,64
88760,note_off,80,0,4,,,,,,,,4,,,,75,64
88760,note_off,80,0,9,,,,,,,,10,,,,75,64
88770,note_off,30,0,10,,,,,,,,11,,,,60,64
88770,note_off,30,0,5,,,,,,,,5,,,,60,64
88770,note_on,0,0,5,,,,,,,,5,,,,61,45
88770,note_on,0,0,10,,,,,,,,11,,,,61,45
88780,note_off,40,0,1,,,,,,,,1,,,,87,64
88780,note_off,0,0,1,,,,,,,,1,,,,84,64
88780,note_off,40,0,2,,,,,,,,2,,,,87,64
88780,note_off,0,0,2,,,,,,,,2,,,,84,64
88800,note_on,40,0,3,,,,,,,,3,,,,84,45
88800,note_on,0,0,1,,,,,,,,1,,,,87,60
88800,note_on,0,0,2,,,,,,,,2,,,,87,45
88800,note_on,20,0,2,,,,,,,,2,,,,84,45
88800,note_on,40,0,8,,,,,,,,8,,,,84,45
88800,note_on,40,0,4,,,,,,,,4,,,,75,45
88800,note_on,20,0,1,,,,,,,,1,,,,84,60
88800,note_on,0,0,10,,,,,,,,11,,,,60,45
88800,note_off,30,0,10,,,,,,,,11,,,,61,64
88800,note_off,30,0,5,,,,,,,,5,,,,61,64
88800,note_on,40,0,9,,,,,,,,10,,,,75,45
88800,note_on,0,0,5,,,,,,,,5,,,,60,45
88840,note_off,400,0,6,,,,,,,,6,,,,48,64
88840,note_off,40,0,1,,,,,,,,1,,,,87,64
88840,note_off,0,0,1,,,,,,,,1,,,,84,64
88840,note_off,40,0,2,,,,,,,,2,,,,87,64
88840,note_off,400,0,11,,,,,,,,12,,,,48,64
88840,note_off,0,0,2,,,,,,,,2,,,,84,64
88840,note_off,400,0,7,,,,,,,,7,,,,36,64
88860,note_on,20,0,1,,,,,,,,1,,,,84,60
88860,note_on,20,0,2,,,,,,,,2,,,,84,45
88860,note_on,0,0,2,,,,,,,,2,,,,87,45
88860,note_on,0,0,1,,,,,,,,1,,,,87,60
88880,note_off,80,0,3,,,,,,,,3,,,,84,64
88880,note_off,80,0,9,,,,,,,,10,,,,75,64
88880,note_off,80,0,4,,,,,,,,4,,,,75,64
88880,note_off,80,0,5,,,,,,,,5,,,,60,64
88880,note_off,80,0,8,,,,,,,,8,,,,84,64
88880,note_off,80,0,10,,,,,,,,11,,,,60,64
88900,note_off,40,0,1,,,,,,,,1,,,,87,64
88900,note_off,0,0,1,,,,,,,,1,,,,84,64
88900,note_off,0,0,2,,,,,,,,2,,,,84,64
88900,note_off,40,0,2,,,,,,,,2,,,,87,64
88920,note_on,40,0,5,,,,,,,,5,,,,60,45
88920,note_on,40,0,10,,,,,,,,11,,,,60,45
88920,note_on,20,0,1,,,,,,,,1,,,,84,60
88920,note_on,40,0,3,,,,,,,,3,,,,84,45
88920,note_on,0,0,1,,,,,,,,1,,,,87,60
88920,note_on,40,0,4,,,,,,,,4,,,,75,45
88920,note_on,40,0,9,,,,,,,,10,,,,75,45
88920,note_on,0,0,2,,,,,,,,2,,,,87,45
88920,note_on,20,0,2,,,,,,,,2,,,,84,45
88920,note_on,40,0,8,,,,,,,,8,,,,84,45
88950,note_off,30,0,10,,,,,,,,11,,,,60,64
88950,note_on,0,0,10,,,,,,,,11,,,,61,45
88950,note_on,0,0,5,,,,,,,,5,,,,61,45
88950,note_off,30,0,5,,,,,,,,5,,,,60,64
88960,note_off,40,0,1,,,,,,,,1,,,,87,64
88960,note_off,0,0,1,,,,,,,,1,,,,84,64
88960,note_off,0,0,2,,,,,,,,2,,,,84,64
88960,note_off,40,0,2,,,,,,,,2,,,,87,64
88980,note_off,30,0,10,,,,,,,,11,,,,61,64
88980,note_on,0,0,10,,,,,,,,11,,,,60,45
88980,note_on,20,0,2,,,,,,,,2,,,,84,45
88980,note_on,0,0,2,,,,,,,,2,,,,87,45
88980,note_off,30,0,5,,,,,,,,5,,,,61,64
88980,note_on,0,0,5,,,,,,,,5,,,,60,45
88980,note_on,0,0,1,,,,,,,,1,,,,87,60
88980,note_on,20,0,1,,,,,,,,1,,,,84,60
89000,note_off,80,0,4,,,,,,,,4,,,,75,64
89000,note_off,80,0,9,,,,,,,,10,,,,75,64
89000,note_off,80,0,8,,,,,,,,8,,,,84,64
89000,note_off,80,0,3,,,,,,,,3,,,,84,64
89010,note_on,0,0,10,,,,,,,,11,,,,61,45
89010,note_on,0,0,5,,,,,,,,5,,,,61,45
89010,note_off,30,0,10,,,,,,,,11,,,,60,64
89010,note_off,30,0,5,,,,,,,,5,,,,60,64
89020,note_off,40,0,2,,,,,,,,2,,,,87,64
89020,note_off,0,0,2,,,,,,,,2,,,,84,64
89020,note_off,40,0,1,,,,,,,,1,,,,87,64
89020,note_off,0,0,1,,,,,,,,1,,,,84,64
89040,note_off,30,0,5,,,,,,,,5,,,,61,64
89040,note_on,0,0,5,,,,,,,,5,,,,60,45
89040,note_on,20,0,2,,,,,,,,2,,,,84,45
89040,note_on,40,0,3,,,,,,,,3,,,,84,45
89040,note_off,30,0,10,,,,,,,,11,,,,61,64
89040,note_on,40,0,8,,,,,,,,8,,,,84,45
89040,note_on,0,0,10,,,,,,,,11,,,,60,45
89040,note_on,40,0,9,,,,,,,,10,,,,75,45
89040,note_on,0,0,2,,,,,,,,2,,,,87,45
89040,note_on,40,0,4,,,,,,,,4,,,,75,45
89040,note_on,20,0,1,,,,,,,,1,,,,84,60
89040,note_on,0,0,1,,,,,,,,1,,,,87,60
89080,note_off,0,0,2,,,,,,,,2,,,,84,64
89080,note_off,40,0,2,,,,,,,,2,,,,87,64
89080,note_off,40,0,1,,,,,,,,1,,,,87,64
89080,note_off,0,0,1,,,,,,,,1,,,,84,64
89100,note_on,0,0,1,,,,,,,,1,,,,87,60
89100,note_on,20,0,2,,,,,,,,2,,,,84,45
89100,note_on,0,0,2,,,,,,,,2,,,,87,45
89100,note_on,20,0,1,,,,,,,,1,,,,84,60
89120,note_off,80,0,5,,,,,,,,5,,,,60,64
89120,note_off,80,0,4,,,,,,,,4,,,,75,64
89120,note_off,80,0,8,,,,,,,,8,,,,84,64
89120,note_off,80,0,10,,,,,,,,11,,,,60,64
89120,note_off,80,0,9,,,,,,,,10,,,,75,64
89120,note_off,80,0,3,,,,,,,,3,,,,84,64
89140,note_off,40,0,1,,,,,,,,1,,,,87,64
89140,note_off,40,0,2,,,,,,,,2,,,,87,64
89140,note_off,0,0,2,,,,,,,,2,,,,84,64
89140,note_off,0,0,1,,,,,,,,1,,,,84,64
89160,note_on,0,0,2,,,,,,,,2,,,,87,45
89160,note_on,40,0,5,,,,,,,,5,,,,60,45
89160,note_on,20,0,1,,,,,,,,1,,,,84,60
89160,note_on,40,0,8,,,,,,,,8,,,,84,45
89160,note_on,40,0,3,,,,,,,,3,,,,84,45
89160,note_on,40,0,10,,,,,,,,11,,,,60,45
89160,note_on,40,0,4,,,,,,,,4,,,,75,45
89160,note_on,40,0,9,,,,,,,,10,,,,75,45
89160,note_on,20,0,2,,,,,,,,2,,,,84,45
89160,note_on,0,0,1,,,,,,,,1,,,,87,60
89190,note_on,0,0,5,,,,,,,,5,,,,61,45
89190,note_off,30,0,5,,,,,,,,5,,,,60,64
89190,note_off,30,0,10,,,,,,,,11,,,,60,64
89190,note_on,0,0,10,,,,,,,,11,,,,61,45
89200,note_off,40,0,2,,,,,,,,2,,,,87,64
89200,note_off,0,0,2,,,,,,,,2,,,,84,64
89200,note_off,40,0,1,,,,,,,,1,,,,87,64
89200,note_off,0,0,1,,,,,,,,1,,,,84,64
89220,note_off,30,0,10,,,,,,,,11,,,,61,64
89220,note_on,0,0,5,,,,,,,,5,,,,60,45
89220,note_off,30,0,5,,,,,,,,5,,,,61,64
89220,note_on,20,0,2,,,,,,,,2,,,,84,45
89220,note_on,20,0,1,,,,,,,,1,,,,84,60
89220,note_on,0,0,1,,,,,,,,1,,,,87,60
89220,note_on,0,0,2,,,,,,,,2,,,,87,45
89220,note_on,0,0,10,,,,,,,,11,,,,60,45
89240,note_off,80,0,9,,,,,,,,10,,,,75,64
89240,note_off,80,0,8,,,,,,,,8,,,,84,64
89240,note_off,80,0,4,,,,,,,,4,,,,75,64
89240,note_off,80,0,3,,,,,,,,3,,,,84,64
89250,note_on,0,0,10,,,,,,,,11,,,,61,45
89250,note_on,0,0,5,,,,,,,,5,,,,61,45
89250,note_off,30,0,10,,,,,,,,11,,,,60,64
89250,note_off,30,0,5,,,,,,,,5,,,,60,64
89260,note_off,0,0,2,,,,,,,,2,,,,84,64
89260,note_off,0,0,1,,,,,,,,1,,,,84,64
89260,note_off,40,0,1,,,,,,,,1,,,,87,64
89260,note_off,40,0,2,,,,,,,,2,,,,87,64
89280,note_on,0,0,1,,,,,,,,1,,,,87,60
89280,note_on,20,0,1,,,,,,,,1,,,,84,60
89280,note_on,40,0,8,,,,,,,,8,,,,84,45
89280,note_off,30,0,10,,,,,,,,11,,,,61,64
89280,note_on,40,0,3,,,,,,,,3,,,,84,45
89280,note_on,40,0,4,,,,,,,,4,,,,75,45
89280,note_on,40,0,9,,,,,,,,10,,,,75,45
89280,note_on,0,0,10,,,,,,,,11,,,,60,45
89280,note_off,30,0,5,,,,,,,,5,,,,61,64
89280,note_on,0,0,5,,,,,,,,5,,,,60,45
89280,note_on,0,0,2,,,,,,,,2,,,,87,45
89280,note_on,20,0,2,,,,,,,,2,,,,84,45
89320,note_off,0,0,1,,,,,,,,1,,,,84,64
89320,note_off,40,0,1,,,,,,,,1,,,,87,64
89320,note_off,40,0,2,,,,,,,,2,,,,87,64
89320,note_off,0,0,2,,,,,,,,2,,,,84,64
89340,note_on,20,0,1,,,,,,,,1,,,,84,60
89340,note_on,0,0,2,,,,,,,,2,,,,87,45
89340,note_on,0,0,1,,,,,,,,1,,,,87,60
89340,note_on,20,0,2,,,,,,,,2,,,,84,45
89360,note_off,80,0,3,,,,,,,,3,,,,84,64
89360,note_off,80,0,4,,,,,,,,4,,,,75,64
89360,note_off,80,0,8,,,,,,,,8,,,,84,64
89360,note_off,80,0,9,,,,,,,,10,,,,75,64
89360,note_off,80,0,10,,,,,,,,11,,,,60,64
89360,note_off,80,0,5,,,,,,,,5,,,,60,64
89380,note_off,40,0,1,,,,,,,,1,,,,87,64
89380,note_off,0,0,2,,,,,,,,2,,,,84,64
89380,note_off,40,0,2,,,,,,,,2,,,,87,64
89380,note_off,0,0,1,,,,,,,,1,,,,84,64
89400,note_on,40,0,4,,,,,,,,4,,,,74,45
89400,note_on,40,0,9,,,,,,,,10,,,,74,45
89400,note_on,40,0,8,,,,,,,,8,,,,84,45
89400,note_on,40,0,10,,,,,,,,11,,,,65,45
89400,note_on,20,0,1,,,,,,,,1,,,,84,60
89400,note_on,0,0,1,,,,,,,,1,,,,86,60
89400,note_on,40,0,3,,,,,,,,3,,,,84,45
89400,note_on,40,0,5,,,,,,,,5,,,,65,45
89400,note_on,20,0,2,,,,,,,,2,,,,84,45
89400,note_on,0,0,2,,,,,,,,2,,,,86,45
89430,note_on,0,0,10,,,,,,,,11,,,,67,45
89430,note_off,30,0,10,,,,,,,,11,,,,65,64
89430,note_off,30,0,5,,,,,,,,5,,,,65,64
89430,note_on,0,0,5,,,,,,,,5,,,,67,45
89440,note_off,40,0,1,,,,,,,,1,,,,86,64
89440,note_off,40,0,2,,,,,,,,2,,,,86,64
89440,note_off,0,0,1,,,,,,,,1,,,,84,64
89440,note_off,0,0,2,,,,,,,,2,,,,84,64
89460,note_on,0,0,5,,,,,,,,5,,,,65,45
89460,note_off,30,0,5,,,,,,,,5,,,,67,64
89460,note_on,0,0,1,,,,,,,,1,,,,86,60
89460,note_on,0,0,2,,,,,,,,2,,,,86,45
89460,note_on,0,0,10,,,,,,,,11,,,,65,45
89460,note_off,30,0,10,,,,,,,,11,,,,67,64
89460,note_on,20,0,2,,,,,,,,2,,,,84,45
89460,note_on,20,0,1,,,,,,,,1,,,,84,60
89480,note_off,80,0,9,,,,,,,,10,,,,74,64
89480,note_off,80,0,4,,,,,,,,4,,,,74,64
89480,note_off,80,0,3,,,,,,,,3,,,,84,64
89480,note_off,80,0,8,,,,,,,,8,,,,84,64
89490,note_on,0,0,5,,,,,,,,5,,,,67,45
89490,note_off,30,0,10,,,,,,,,11,,,,65,64
89490,note_on,0,0,10,,,,,,,,11,,,,67,45
89490,note_off,30,0,5,,,,,,,,5,,,,65,64
89500,note_off,40,0,1,,,,,,,,1,,,,86,64
89500,note_off,0,0,2,,,,,,,,2,,,,84,64
89500,note_off,0,0,1,,,,,,,,1,,,,84,64
89500,note_off,40,0,2,,,,,,,,2,,,,86,64
89520,note_on,0,0,10,,,,,,,,11,,,,65,45
89520,note_off,30,0,10,,,,,,,,11,,,,67,64
89520,note_off,30,0,5,,,,,,,,5,,,,67,64
89520,note_on,0,0,5,,,,,,,,5,,,,65,45
89520,note_on,40,0,4,,,,,,,,4,,,,74,45
89520,note_on,40,0,8,,,,,,,,8,,,,84,45
89520,note_on,0,0,2,,,,,,,,2,,,,86,45
89520,note_on,40,0,3,,,,,,,,3,,,,84,45
89520,note_on,40,0,9,,,,,,,,10,,,,74,45
89520,note_on,20,0,2,,,,,,,,2,,,,84,45
89520,note_on,0,0,1,,,,,,,,1,,,,86,60
89520,note_on,20,0,1,,,,,,,,1,,,,84,60
89560,note_off,0,0,2,,,,,,,,2,,,,84,64
89560,note_off,40,0,2,,,,,,,,2,,,,86,64
89560,note_off,40,0,1,,,,,,,,1,,,,86,64
89560,note_off,0,0,1,,,,,,,,1,,,,84,64
89580,note_on,0,0,2,,,,,,,,2,,,,86,45
89580,note_on,20,0,2,,,,,,,,2,,,,84,45
89580,note_on,20,0,1,,,,,,,,1,,,,84,60
89580,note_on,0,0,1,,,,,,,,1,,,,86,60
89600,note_off,80,0,4,,,,,,,,4,,,,74,64
89600,note_off,80,0,3,,,,,,,,3,,,,84,64
89600,note_off,80,0,9,,,,,,,,10,,,,74,64
89600,note_off,80,0,8,,,,,,,,8,,,,84,64
89600,note_off,80,0,5,,,,,,,,5,,,,65,64
89600,note_off,80,0,10,,,,,,,,11,,,,65,64
89620,note_off,40,0,1,,,,,,,,1,,,,86,64
89620,note_off,40,0,2,,,,,,,,2,,,,86,64
89620,note_off,0,0,2,,,,,,,,2,,,,84,64
89620,note_off,0,0,1,,,,,,,,1,,,,84,64
89640,note_on,0,0,1,,,,,,,,1,,,,86,60
89640,note_on,40,0,9,,,,,,,,10,,,,74,45
89640,note_on,40,0,3,,,,,,,,3,,,,84,45
89640,note_on,40,0,4,,,,,,,,4,,,,74,45
89640,note_on,40,0,10,,,,,,,,11,,,,65,45
89640,note_on,20,0,1,,,,,,,,1,,,,84,60
89640,note_on,40,0,8,,,,,,,,8,,,,84,45
89640,note_on,0,0,2,,,,,,,,2,,,,86,45
89640,note_on,40,0,5,,,,,,,,5,,,,65,45
89640,note_on,20,0,2,,,,,,,,2,,,,84,45
89670,note_on,0,0,10,,,,,,,,11,,,,67,45
89670,note_on,0,0,5,,,,,,,,5,,,,67,45
89670,note_off,30,0,5,,,,,,,,5,,,,65,64
89670,note_off,30,0,10,,,,,,,,11,,,,65,64
89680,note_off,40,0,2,,,,,,,,2,,,,86,64
89680,note_off,0,0,2,,,,,,,,2,,,,84,64
89680,note_off,40,0,1,,,,,,,,1,,,,86,64
89680,note_off,0,0,1,,,,,,,,1,,,,84,64
89700,note_on,0,0,5,,,,,,,,5,,,,65,45
89700,note_on,0,0,10,,,,,,,,11,,,,65,45
89700,note_off,30,0,10,,,,,,,,11,,,,67,64
89700,note_off,30,0,5,,,,,,,,5,,,,67,64
89700,note_on,20,0,1,,,,,,,,1,,,,84,60
89700,note_on,0,0,1,,,,,,,,1,,,,86,60
89700,note_on,0,0,2,,,,,,,,2,,,,86,45
89700,note_on,20,0,2,,,,,,,,2,,,,84,45
89720,note_off,80,0,3,,,,,,,,3,,,,84,64
89720,note_off,80,0,8,,,,,,,,8,,,,84,64
89720,note_off,80,0,9,,,,,,,,10,,,,74,64
89720,note_off,80,0,4,,,,,,,,4,,,,74,64
89730,note_on,0,0,5,,,,,,,,5,,,,67,45
89730,note_off,30,0,5,,,,,,,,5,,,,65,64
89730,note_off,30,0,10,,,,,,,,11,,,,65,64
89730,note_on,0,0,10,,,,,,,,11,,,,67,45
89740,note_off,40,0,1,,,,,,,,1,,,,86,64
89740,note_off,40,0,2,,,,,,,,2,,,,86,64
89740,note_off,0,0,2,,,,,,,,2,,,,84,64
89740,note_off,0,0,1,,,,,,,,1,,,,84,64
89760,note_on,40,0,9,,,,,,,,10,,,,74,45
89760,note_on,40,0,3,,,,,,,,3,,,,84,45
89760,note_on,0,0,10,,,,,,,,11,,,,65,45
89760,note_on,40,0,8,,,,,,,,8,,,,84,45
89760,note_off,30,0,5,,,,,,,,5,,,,67,64
89760,note_on,20,0,2,,,,,,,,2,,,,84,45
89760,note_on,20,0,1,,,,,,,,1,,,,84,60
89760,note_on,0,0,1,,,,,,,,1,,,,86,60
89760,note_on,0,0,5,,,,,,,,5,,,,65,45
89760,note_on,40,0,4,,,,,,,,4,,,,74,45
89760,note_off,30,0,10,,,,,,,,11,,,,67,64
89760,note_on,0,0,2,,,,,,,,2,,,,86,45
89800,note_off,0,0,1,,,,,,,,1,,,,84,64
89800,note_off,0,0,2,,,,,,,,2,,,,84,64
89800,note_off,40,0,2,,,,,,,,2,,,,86,64
89800,note_off,40,0,1,,,,,,,,1,,,,86,64
89820,note_on,0,0,2,,,,,,,,2,,,,86,45
89820,note_on,20,0,2,,,,,,,,2,,,,84,45
89820,note_on,20,0,1,,,,,,,,1,,,,84,60
89820,note_on,0,0,1,,,,,,,,1,,,,86,60
89840,note_off,80,0,10,,,,,,,,11,,,,65,64
89840,note_off,80,0,4,,,,,,,,4,,,,74,64
89840,note_off,80,0,5,,,,,,,,5,,,,65,64
89840,note_off,80,0,3,,,,,,,,3,,,,84,64
89840,note_off,80,0,8,,,,,,,,8,,,,84,64
89840,note_off,80,0,9,,,,,,,,10,,,,74,64
89860,note_off,40,0,2,,,,,,,,2,,,,86,64
89860,note_off,0,0,2,,,,,,,,2,,,,84,64
89860,note_off,0,0,1,,,,,,,,1,,,,84,64
89860,note_off,40,0,1,,,,,,,,1,,,,86,64
89880,note_on,40,0,10,,,,,,,,11,,,,65,45
89880,note_on,20,0,1,,,,,,,,1,,,,84,60
89880,note_on,0,0,2,,,,,,,,2,,,,86,45
89880,note_on,20,0,2,,,,,,,,2,,,,84,45
89880,note_on,40,0,5,,,,,,,,5,,,,65,45
89880,note_on,40,0,4,,,,,,,,4,,,,74,45
89880,note_on,0,0,1,,,,,,,,1,,,,86,60
89880,note_on,40,0,8,,,,,,,,8,,,,84,45
89880,note_on,40,0,3,,,,,,,,3,,,,84,45
89880,note_on,40,0,9,,,,,,,,10,,,,74,45
89910,note_on,0,0,10,,,,,,,,11,,,,67,45
89910,note_off,30,0,5,,,,,,,,5,,,,65,64
89910,note_on,0,0,5,,,,,,,,5,,,,67,45
89910,note_off,30,0,10,,,,,,,,11,,,,65,64
89920,note_off,40,0,2,,,,,,,,2,,,,86,64
89920,note_off,0,0,2,,,,,,,,2,,,,84,64
89920,note_off,40,0,1,,,,,,,,1,,,,86,64
89920,note_off,0,0,1,,,,,,,,1,,,,84,64
89940,note_on,0,0,5,,,,,,,,5,,,,65,45
89940,note_on,0,0,10,,,,,,,,11,,,,65,45
89940,note_on,20,0,2,,,,,,,,2,,,,84,45
89940,note_on,0,0,2,,,,,,,,2,,,,86,45
89940,note_on,0,0,1,,,,,,,,1,,,,86,60
89940,note_off,30,0,10,,,,,,,,11,,,,67,64
89940,note_on,20,0,1,,,,,,,,1,,,,84,60
89940,note_off,30,0,5,,,,,,,,5,,,,67,64
89960,note_off,80,0,8,,,,,,,,8,,,,84,64
89960,note_off,80,0,9,,,,,,,,10,,,,74,64
89960,note_off,80,0,3,,,,,,,,3,,,,84,64
89960,note_off,80,0,4,,,,,,,,4,,,,74,64
89970,note_off,30,0,10,,,,,,,,11,,,,65,64
89970,note_on,0,0,10,,,,,,,,11,,,,67,45
89970,note_off,30,0,5,,,,,,,,5,,,,65,64
89970,note_on,0,0,5,,,,,,,,5,,,,67,45
89980,note_off,0,0,1,,,,,,,,1,,,,84,64
89980,note_off,0,0,2,,,,,,,,2,,,,84,64
89980,note_off,40,0,1,,,,,,,,1,,,,86,64
89980,note_off,40,0,2,,,,,,,,2,,,,86,64
90000,note_on,20,0,2,,,,,,,,2,,,,84,45
90000,note_off,30,0,5,,,,,,,,5,,,,67,64
90000,note_on,20,0,1,,,,,,,,1,,,,84,60
90000,note_on,40,0,9,,,,,,,,10,,,,74,45
90000,note_on,0,0,1,,,,,,,,1,,,,86,60
90000,note_on,0,0,10,,,,,,,,11,,,,65,45
90000,note_off,30,0,10,,,,,,,,11,,,,67,64
90000,note_on,0,0,5,,,,,,,,5,,,,65,45
90000,note_on,40,0,8,,,,,,,,8,,,,84,45
90000,note_on,40,0,3,,,,,,,,3,,,,84,45
90000,note_on,0,0,2,,,,,,,,2,,,,86,45
90000,note_on,40,0,4,,,,,,,,4,,,,74,45
90040,note_off,0,0,2,,,,,,,,2,,,,84,64
90040,note_off,40,0,2,,,,,,,,2,,,,86,64
90040,note_off,40,0,1,,,,,,,,1,,,,86,64
90040,note_off,0,0,1,,,,,,,,1,,,,84,64
90060,note_on,20,0,1,,,,,,,,1,,,,84,60
90060,note_on,0,0,2,,,,,,,,2,,,,86,45
90060,note_on,20,0,2,,,,,,,,2,,,,84,45
90060,note_on,0,0,1,,,,,,,,1,,,,86,60
90080,note_off,80,0,4,,,,,,,,4,,,,74,64
90080,note_off,80,0,3,,,,,,,,3,,,,84,64
90080,note_off,80,0,8,,,,,,,,8,,,,84,64
90080,note_off,80,0,5,,,,,,,,5,,,,65,64
90080,note_off,80,0,10,,,,,,,,11,,,,65,64
90080,note_off,80,0,9,,,,,,,,10,,,,74,64
90100,note_off,0,0,2,,,,,,,,2,,,,84,64
90100,note_off,40,0,2,,,,,,,,2,,,,86,64
90100,note_off,0,0,1,,,,,,,,1,,,,84,64
90100,note_off,40,0,1,,,,,,,,1,,,,86,64
90120,note_on,20,0,1,,,,,,,,1,,,,84,60
90120,note_on,40,0,10,,,,,,,,11,,,,65,45
90120,note_on,0,0,2,,,,,,,,2,,,,86,45
90120,note_on,20,0,2,,,,,,,,2,,,,84,45
90120,note_on,0,0,1,,,,,,,,1,,,,86,60
90120,note_on,40,0,4,,,,,,,,4,,,,74,45
90120,note_on,40,0,3,,,,,,,,3,,,,84,45
90120,note_on,40,0,8,,,,,,,,8,,,,84,45
90120,note_on,40,0,5,,,,,,,,5,,,,65,45
90120,note_on,40,0,9,,,,,,,,10,,,,74,45
90150,note_off,30,0,10,,,,,,,,11,,,,65,64
90150,note_off,30,0,5,,,,,,,,5,,,,65,64
90150,note_on,0,0,5,,,,,,,,5,,,,67,45
90150,note_on,0,0,10,,,,,,,,11,,,,67,45
90160,note_off,0,0,2,,,,,,,,2,,,,84,64
90160,note_off,0,0,1,,,,,,,,1,,,,84,64
90160,note_off,40,0,2,,,,,,,,2,,,,86,64
90160,note_off,40,0,1,,,,,,,,1,,,,86,64
90180,note_on,20,0,2,,,,,,,,2,,,,84,45
90180,note_on,0,0,2,,,,,,,,2,,,,86,45
90180,note_off,30,0,5,,,,,,,,5,,,,67,64
90180,note_on,0,0,10,,,,,,,,11,,,,65,45
90180,note_on,0,0,5,,,,,,,,5,,,,65,45
90180,note_off,30,0,10,,,,,,,,11,,,,67,64
90180,note_on,0,0,1,,,,,,,,1,,,,86,60
90180,note_on,20,0,1,,,,,,,,1,,,,84,60
90200,note_off,80,0,3,,,,,,,,3,,,,84,64
90200,note_off,80,0,8,,,,,,,,8,,,,84,64
90200,note_off,80,0,4,,,,,,,,4,,,,74,64
90200,note_off,80,0,9,,,,,,,,10,,,,74,64
90210,note_off,30,0,10,,,,,,,,11,,,,65,64
90210,note_on,0,0,10,,,,,,,,11,,,,67,45
90210,note_off,30,0,5,,,,,,,,5,,,,65,64
90210,note_on,0,0,5,,,,,,,,5,,,,67,45
90220,note_off,0,0,2,,,,,,,,2,,,,84,64
90220,note_off,40,0,2,,,,,,,,2,,,,86,64
90220,note_off,0,0,1,,,,,,,,1,,,,84,64
90220,note_off,40,0,1,,,,,,,,1,,,,86,64
90240,note_on,0,0,2,,,,,,,,2,,,,86,45
90240,note_on,20,0,2,,,,,,,,2,,,,84,45
90240,note_on,40,0,4,,,,,,,,4,,,,74,45
90240,note_off,30,0,5,,,,,,,,5,,,,67,64
90240,note_on,0,0,5,,,,,,,,5,,,,65,45
90240,note_on,40,0,8,,,,,,,,8,,,,84,45
90240,note_on,0,0,10,,,,,,,,11,,,,65,45
90240,note_off,30,0,10,,,,,,,,11,,,,67,64
90240,note_on,40,0,3,,,,,,,,3,,,,84,45
90240,note_on,20,0,1,,,,,,,,1,,,,84,60
90240,note_on,0,0,1,,,,,,,,1,,,,86,60
90240,note_on,40,0,9,,,,,,,,10,,,,74,45
90280,note_off,0,0,1,,,,,,,,1,,,,84,64
90280,note_off,40,0,2,,,,,,,,2,,,,86,64
90280,note_off,0,0,2,,,,,,,,2,,,,84,64
90280,note_off,40,0,1,,,,,,,,1,,,,86,64
90300,note_on,0,0,2,,,,,,,,2,,,,86,45
90300,note_on,20,0,1,,,,,,,,1,,,,84,60
90300,note_on,0,0,1,,,,,,,,1,,,,86,60
90300,note_on,20,0,2,,,,,,,,2,,,,84,45
90320,note_off,80,0,9,,,,,,,,10,,,,74,64
90320,note_off,80,0,5,,,,,,,,5,,,,65,64
90320,note_off,80,0,10,,,,,,,,11,,,,65,64
90320,note_off,80,0,3,,,,,,,,3,,,,84,64
90320,note_off,80,0,8,,,,,,,,8,,,,84,64
90320,note_off,80,0,4,,,,,,,,4,,,,74,64
90340,note_off,40,0,2,,,,,,,,2,,,,86,64
90340,note_off,0,0,2,,,,,,,,2,,,,84,64
90340,note_off,40,0,1,,,,,,,,1,,,,86,64
90340,note_off,0,0,1,,,,,,,,1,,,,84,64
90360,note_on,0,0,1,,,,,,,,1,,,,86,60
90360,note_on,40,0,4,,,,,,,,4,,,,74,45
90360,note_on,40,0,3,,,,,,,,3,,,,82,45
90360,note_on,40,0,8,,,,,,,,8,,,,82,45
90360,note_on,40,0,5,,,,,,,,5,,,,67,45
90360,note_on,20,0,1,,,,,,,,1,,,,82,60
90360,note_on,40,0,9,,,,,,,,10,,,,74,45
90360,note_on,40,0,10,,,,,,,,11,,,,67,45
90360,note_on,0,0,2,,,,,,,,2,,,,86,45
90360,note_on,20,0,2,,,,,,,,2,,,,82,45
90390,note_off,30,0,5,,,,,,,,5,,,,67,64
90390,note_on,0,0,5,,,,,,,,5,,,,68,45
90390,note_on,0,0,10,,,,,,,,11,,,,68,45
90390,note_off,30,0,10,,,,,,,,11,,,,67,64
90400,note_off,40,0,2,,,,,,,,2,,,,86,64
90400,note_off,40,0,1,,,,,,,,1,,,,86,64
90400,note_off,0,0,2,,,,,,,,2,,,,82,64
90400,note_off,0,0,1,,,,,,,,1,,,,82,64
90420,note_off,30,0,5,,,,,,,,5,,,,68,64
90420,note_on,0,0,2,,,,,,,,2,,,,86,45
90420,note_on,20,0,2,,,,,,,,2,,,,82,45
90420,note_on,0,0,1,,,,,,,,1,,,,86,60
90420,note_on,20,0,1,,,,,,,,1,,,,82,60
90420,note_on,0,0,10,,,,,,,,11,,,,67,45
90420,note_off,30,0,10,,,,,,,,11,,,,68,64
90420,note_on,0,0,5,,,,,,,,5,,,,67,45
90440,note_off,80,0,9,,,,,,,,10,,,,74,64
90440,note_off,80,0,3,,,,,,,,3,,,,82,64
90440,note_off,80,0,4,,,,,,,,4,,,,74,64
90440,note_off,80,0,8,,,,,,,,8,,,,82,64
90450,note_on,0,0,5,,,,,,,,5,,,,68,45
90450,note_on,0,0,10,,,,,,,,11,,,,68,45
90450,note_off,30,0,10,,,,,,,,11,,,,67,64
90450,note_off,30,0,5,,,,,,,,5,,,,67,64
90460,note_off,40,0,1,,,,,,,,1,,,,86,64
90460,note_off,0,0,2,,,,,,,,2,,,,82,64
90460,note_off,40,0,2,,,,,,,,2,,,,86,64
90460,note_off,0,0,1,,,,,,,,1,,,,82,64
90480,note_on,0,0,1,,,,,,,,1,,,,86,60
90480,note_on,0,0,2,,,,,,,,2,,,,86,45
90480,note_on,20,0,2,,,,,,,,2,,,,82,45
90480,note_on,40,0,9,,,,,,,,10,,,,74,45
90480,note_on,40,0,3,,,,,,,,3,,,,82,45
90480,note_on,40,0,8,,,,,,,,8,,,,82,45
90480,note_on,20,0,1,,,,,,,,1,,,,82,60
90480,note_off,30,0,10,,,,,,,,11,,,,68,64
90480,note_on,40,0,4,,,,,,,,4,,,,74,45
90480,note_on,0,0,10,,,,,,,,11,,,,67,45
90480,note_off,30,0,5,,,,,,,,5,,,,68,64
90480,note_on,0,0,5,,,,,,,,5,,,,67,45
90520,note_off,0,0,2,,,,,,,,2,,,,82,64
90520,note_off,40,0,1,,,,,,,,1,,,,86,64
90520,note_off,0,0,1,,,,,,,,1,,,,82,64
90520,note_off,40,0,2,,,,,,,,2,,,,86,64
90540,note_on,20,0,2,,,,,,,,2,,,,82,45
90540,note_on,0,0,2,,,,,,,,2,,,,86,45
90540,note_on,20,0,1,,,,,,,,1,,,,82,60
90540,note_on,0,0,1,,,,,,,,1,,,,86,60
90560,note_off,80,0,5,,,,,,,,5,,,,67,64
90560,note_off,80,0,10,,,,,,,,11,,,,67,64
90560,note_off,80,0,3,,,,,,,,3,,,,82,64
90560,note_off,80,0,8,,,,,,,,8,,,,82,64
90560,note_off,80,0,4,,,,,,,,4,,,,74,64
90560,note_off,80,0,9,,,,,,,,10,,,,74,64
90580,note_off,40,0,2,,,,,,,,2,,,,86,64
90580,note_off,0,0,2,,,,,,,,2,,,,82,64
90580,note_off,0,0,1,,,,,,,,1,,,,82,64
90580,note_off,40,0,1,,,,,,,,1,,,,86,64
90600,note_on,40,0,9,,,,,,,,10,,,,74,45
90600,note_on,40,0,10,,,,,,,,11,,,,67,45
90600,note_on,20,0,2,,,,,,,,2,,,,82,45
90600,note_on,40,0,8,,,,,,,,8,,,,82,45
90600,note_on,40,0,4,,,,,,,,4,,,,74,45
90600,note_on,0,0,1,,,,,,,,1,,,,86,60
90600,note_on,0,0,2,,,,,,,,2,,,,86,45
90600,note_on,40,0,3,,,,,,,,3,,,,82,45
90600,note_on,40,0,5,,,,,,,,5,,,,67,45
90600,note_on,20,0,1,,,,,,,,1,,,,82,60
90630,note_on,0,0,10,,,,,,,,11,,,,68,45
90630,note_off,30,0,10,,,,,,,,11,,,,67,64
90630,note_on,0,0,5,,,,,,,,5,,,,68,45
90630,note_off,30,0,5,,,,,,,,5,,,,67,64
90640,note_off,40,0,2,,,,,,,,2,,,,86,64
90640,note_off,0,0,2,,,,,,,,2,,,,82,64
90640,note_off,40,0,1,,,,,,,,1,,,,86,64
90640,note_off,0,0,1,,,,,,,,1,,,,82,64
90660,note_on,0,0,5,,,,,,,,5,,,,67,45
90660,note_off,30,0,5,,,,,,,,5,,,,68,64
90660,note_on,0,0,10,,,,,,,,11,,,,67,45
90660,note_off,30,0,10,,,,,,,,11,,,,68,64
90660,note_on,20,0,1,,,,,,,,1,,,,82,60
90660,note_on,20,0,2,,,,,,,,2,,,,82,45
90660,note_on,0,0,2,,,,,,,,2,,,,86,45
90660,note_on,0,0,1,,,,,,,,1,,,,86,60
90680,note_off,80,0,8,,,,,,,,8,,,,82,64
90680,note_off,80,0,9,,,,,,,,10,,,,74,64
90680,note_off,80,0,3,,,,,,,,3,,,,82,64
90680,note_off,80,0,4,,,,,,,,4,,,,74,64
90690,note_on,0,0,5,,,,,,,,5,,,,68,45
90690,note_off,30,0,5,,,,,,,,5,,,,67,64
90690,note_off,30,0,10,,,,,,,,11,,,,67,64
90690,note_on,0,0,10,,,,,,,,11,,,,68,45
90700,note_off,0,0,2,,,,,,,,2,,,,82,64
90700,note_off,40,0,2,,,,,,,,2,,,,86,64
90700,note_off,40,0,1,,,,,,,,1,,,,86,64
90700,note_off,0,0,1,,,,,,,,1,,,,82,64
90720,note_on,0,0,2,,,,,,,,2,,,,86,45
90720,note_on,0,0,1,,,,,,,,1,,,,86,60
90720,note_on,20,0,1,,,,,,,,1,,,,82,60
90720,note_on,0,0,10,,,,,,,,11,,,,67,45
90720,note_on,40,0,9,,,,,,,,10,,,,74,45
90720,note_on,40,0,8,,,,,,,,8,,,,82,45
90720,note_on,40,0,3,,,,,,,,3,,,,82,45
90720,note_on,0,0,5,,,,,,,,5,,,,67,45
90720,note_off,30,0,10,,,,,,,,11,,,,68,64
90720,note_on,20,0,2,,,,,,,,2,,,,82,45
90720,note_off,30,0,5,,,,,,,,5,,,,68,64
90720,note_on,40,0,4,,,,,,,,4,,,,74,45
90760,note_off,0,0,1,,,,,,,,1,,,,82,64
90760,note_off,0,0,2,,,,,,,,2,,,,82,64
90760,note_off,40,0,2,,,,,,,,2,,,,86,64
90760,note_off,40,0,1,,,,,,,,1,,,,86,64
90780,note_on,0,0,1,,,,,,,,1,,,,86,60
90780,note_on,20,0,1,,,,,,,,1,,,,82,60
90780,note_on,0,0,2,,,,,,,,2,,,,86,45
90780,note_on,20,0,2,,,,,,,,2,,,,82,45
90800,note_off,80,0,3,,,,,,,,3,,,,82,64
90800,note_off,80,0,10,,,,,,,,11,,,,67,64
90800,note_off,80,0,9,,,,,,,,10,,,,74,64
90800,note_off,80,0,5,,,,,,,,5,,,,67,64
90800,note_off,80,0,8,,,,,,,,8,,,,82,64
90800,note_off,80,0,4,,,,,,,,4,,,,74,64
90820,note_off,0,0,2,,,,,,,,2,,,,82,64
90820,note_off,40,0,1,,,,,,,,1,,,,86,64
90820,note_off,0,0,1,,,,,,,,1,,,,82,64
90820,note_off,40,0,2,,,,,,,,2,,,,86,64
90840,note_on,40,0,9,,,,,,,,10,,,,74,45
90840,note_on,40,0,5,,,,,,,,5,,,,67,45
90840,note_on,40,0,10,,,,,,,,11,,,,67,45
90840,note_on,20,0,1,,,,,,,,1,,,,82,60
90840,note_on,0,0,1,,,,,,,,1,,,,86,60
90840,note_on,40,0,8,,,,,,,,8,,,,82,45
90840,note_on,40,0,3,,,,,,,,3,,,,82,45
90840,note_on,0,0,2,,,,,,,,2,,,,86,45
90840,note_on,40,0,4,,,,,,,,4,,,,74,45
90840,note_on,20,0,2,,,,,,,,2,,,,82,45
90870,note_on,0,0,5,,,,,,,,5,,,,68,45
90870,note_on,0,0,10,,,,,,,,11,,,,68,45
90870,note_off,30,0,10,,,,,,,,11,,,,67,64
90870,note_off,30,0,5,,,,,,,,5,,,,67,64
90880,note_off,0,0,2,,,,,,,,2,,,,82,64
90880,note_off,0,0,1,,,,,,,,1,,,,82,64
90880,note_off,40,0,1,,,,,,,,1,,,,86,64
90880,note_off,40,0,2,,,,,,,,2,,,,86,64
90900,note_off,30,0,5,,,,,,,,5,,,,68,64
90900,note_on,0,0,5,,,,,,,,5,,,,67,45
90900,note_on,0,0,10,,,,,,,,11,,,,67,45
90900,note_on,20,0,1,,,,,,,,1,,,,82,60
90900,note_on,0,0,1,,,,,,,,1,,,,86,60
90900,note_off,30,0,10,,,,,,,,11,,,,68,64
90900,note_on,0,0,2,,,,,,,,2,,,,86,45
90900,note_on,20,0,2,,,,,,,,2,,,,82,45
90920,note_off,80,0,3,,,,,,,,3,,,,82,64
90920,note_off,80,0,9,,,,,,,,10,,,,74,64
90920,note_off,80,0,8,,,,,,,,8,,,,82,64
90920,note_off,80,0,4,,,,,,,,4,,,,74,64
90930,note_off,30,0,10,,,,,,,,11,,,,67,64
90930,note_on,0,0,10,,,,,,,,11,,,,68,45
90930,note_on,0,0,5,,,,,,,,5,,,,68,45
90930,note_off,30,0,5,,,,,,,,5,,,,67,64
90940,note_off,0,0,2,,,,,,,,2,,,,82,64
90940,note_off,40,0,2,,,,,,,,2,,,,86,64
90940,note_off,40,0,1,,,,,,,,1,,,,86,64
90940,note_off,0,0,1,,,,,,,,1,,,,82,64
90960,note_on,0,0,10,,,,,,,,11,,,,67,45
90960,note_off,30,0,10,,,,,,,,11,,,,68,64
90960,note_on,20,0,2,,,,,,,,2,,,,82,45
90960,note_on,40,0,4,,,,,,,,4,,,,74,45
90960,note_off,30,0,5,,,,,,,,5,,,,68,64
90960,note_on,0,0,5,,,,,,,,5,,,,67,45
90960,note_on,0,0,2,,,,,,,,2,,,,86,45
90960,note_on,40,0,8,,,,,,,,8,,,,82,45
90960,note_on,40,0,3,,,,,,,,3,,,,82,45
90960,note_on,0,0,1,,,,,,,,1,,,,86,60
90960,note_on,40,0,9,,,,,,,,10,,,,74,45
90960,note_on,20,0,1,,,,,,,,1,,,,82,60
91000,note_off,40,0,1,,,,,,,,1,,,,86,64
91000,note_off,0,0,2,,,,,,,,2,,,,82,64
91000,note_off,40,0,2,,,,,,,,2,,,,86,64
91000,note_off,0,0,1,,,,,,,,1,,,,82,64
91020,note_on,0,0,2,,,,,,,,2,,,,86,45
91020,note_on,20,0,2,,,,,,,,2,,,,82,45
91020,note_on,20,0,1,,,,,,,,1,,,,82,60
91020,note_on,0,0,1,,,,,,,,1,,,,86,60
91040,note_off,80,0,10,,,,,,,,11,,,,67,64
91040,note_off,80,0,4,,,,,,,,4,,,,74,64
91040,note_off,80,0,9,,,,,,,,10,,,,74,64
91040,note_off,80,0,5,,,,,,,,5,,,,67,64
91040,note_off,80,0,3,,,,,,,,3,,,,82,64
91040,note_off,80,0,8,,,,,,,,8,,,,82,64
91060,note_off,0,0,2,,,,,,,,2,,,,82,64
91060,note_off,0,0,1,,,,,,,,1,,,,82,64
91060,note_off,40,0,1,,,,,,,,1,,,,86,64
91060,note_off,40,0,2,,,,,,,,2,,,,86,64
91080,note_on,40,0,3,,,,,,,,3,,,,82,45
91080,note_on,40,0,8,,,,,,,,8,,,,82,45
91080,note_on,20,0,2,,,,,,,,2,,,,82,45
91080,note_on,0,0,2,,,,,,,,2,,,,86,45
91080,note_on,20,0,1,,,,,,,,1,,,,82,60
91080,note_on,40,0,9,,,,,,,,10,,,,74,45
91080,note_on,40,0,4,,,,,,,,4,,,,74,45
91080,note_on,40,0,10,,,,,,,,11,,,,67,45
91080,note_on,0,0,1,,,,,,,,1,,,,86,60
91080,note_on,40,0,5,,,,,,,,5,,,,67,45
91110,note_off,30,0,10,,,,,,,,11,,,,67,64
91110,note_on,0,0,10,,,,,,,,11,,,,68,45
91110,note_on,0,0,5,,,,,,,,5,,,,68,45
91110,note_off,30,0,5,,,,,,,,5,,,,67,64
91120,note_off,40,0,1,,,,,,,,1,,,,86,64
91120,note_off,0,0,1,,,,,,,,1,,,,82,64
91120,note_off,0,0,2,,,,,,,,2,,,,82,64
91120,note_off,40,0,2,,,,,,,,2,,,,86,64
91140,note_on,0,0,10,,,,,,,,11,,,,67,45
91140,note_off,30,0,10,,,,,,,,11,,,,68,64
91140,note_on,0,0,2,,,,,,,,2,,,,86,45
91140,note_on,20,0,2,,,,,,,,2,,,,82,45
91140,note_on,20,0,1,,,,,,,,1,,,,82,60
91140,note_on,0,0,1,,,,,,,,1,,,,86,60
91140,note_on,0,0,5,,,,,,,,5,,,,67,45
91140,note_off,30,0,5,,,,,,,,5,,,,68,64
91160,note_off,80,0,9,,,,,,,,10,,,,74,64
91160,note_off,80,0,4,,,,,,,,4,,,,74,64
91160,note_off,80,0,8,,,,,,,,8,,,,82,64
91160,note_off,80,0,3,,,,,,,,3,,,,82,64
91170,note_off,30,0,10,,,,,,,,11,,,,67,64
91170,note_on,0,0,10,,,,,,,,11,,,,68,45
91170,note_off,30,0,5,,,,,,,,5,,,,67,64
91170,note_on,0,0,5,,,,,,,,5,,,,68,45
91180,note_off,40,0,2,,,,,,,,2,,,,86,64
91180,note_off,0,0,1,,,,,,,,1,,,,82,64
91180,note_off,40,0,1,,,,,,,,1,,,,86,64
91180,note_off,0,0,2,,,,,,,,2,,,,82,64
91200,note_on,40,0,3,,,,,,,,3,,,,82,45
91200,note_on,0,0,2,,,,,,,,2,,,,86,45
91200,note_on,20,0,2,,,,,,,,2,,,,82,45
91200,note_on,40,0,9,,,,,,,,10,,,,74,45
91200,note_on,20,0,1,,,,,,,,1,,,,82,60
91200,note_on,0,0,5,,,,,,,,5,,,,67,45
91200,note_on,0,0,1,,,,,,,,1,,,,86,60
91200,note_off,30,0,10,,,,,,,,11,,,,68,64
91200,note_on,0,0,10,,,,,,,,11,,,,67,45
91200,note_on,40,0,4,,,,,,,,4,,,,74,45
91200,note_on,40,0,8,,,,,,,,8,,,,82,45
91200,note_off,30,0,5,,,,,,,,5,,,,68,64
91240,note_off,40,0,2,,,,,,,,2,,,,86,64
91240,note_off,40,0,1,,,,,,,,1,,,,86,64
91240,note_off,0,0,1,,,,,,,,1,,,,82,64
91240,note_off,0,0,2,,,,,,,,2,,,,82,64
91260,note_on,0,0,2,,,,,,,,2,,,,86,45
91260,note_on,20,0,1,,,,,,,,1,,,,82,60
91260,note_on,0,0,1,,,,,,,,1,,,,86,60
91260,note_on,20,0,2,,,,,,,,2,,,,82,45
91280,note_off,80,0,8,,,,,,,,8,,,,82,64
91280,note_off,80,0,10,,,,,,,,11,,,,67,64
91280,note_off,80,0,5,,,,,,,,5,,,,67,64
91280,note_off,80,0,9,,,,,,,,10,,,,74,64
91280,note_off,80,0,4,,,,,,,,4,,,,74,64
91280,note_off,80,0,3,,,,,,,,3,,,,82,64
91300,note_off,40,0,1,,,,,,,,1,,,,86,64
91300,note_off,0,0,2,,,,,,,,2,,,,82,64
91300,note_off,40,0,2,,,,,,,,2,,,,86,64
91300,note_off,0,0,1,,,,,,,,1,,,,82,64
91320,note_on,20,0,1,,,,,,,,1,,,,82,60
91320,note_on,0,0,2,,,,,,,,2,,,,87,45
91320,note_on,40,0,8,,,,,,,,8,,,,82,45
91320,note_on,40,0,5,,,,,,,,5,,,,67,45
91320,note_on,20,0,2,,,,,,,,2,,,,82,45
91320,note_on,40,0,4,,,,,,,,4,,,,79,45
91320,note_on,40,0,10,,,,,,,,11,,,,67,45
91320,note_on,0,0,1,,,,,,,,1,,,,87,60
91320,note_on,40,0,3,,,,,,,,3,,,,82,45
91320,note_on,40,0,9,,,,,,,,10,,,,79,45
91350,note_off,30,0,5,,,,,,,,5,,,,67,64
91350,note_on,0,0,10,,,,,,,,11,,,,68,45
91350,note_off,30,0,10,,,,,,,,11,,,,67,64
91350,note_on,0,0,5,,,,,,,,5,,,,68,45
91360,note_off,0,0,1,,,,,,,,1,,,,82,64
91360,note_off,40,0,2,,,,,,,,2,,,,87,64
91360,note_off,0,0,2,,,,,,,,2,,,,82,64
91360,note_off,40,0,1,,,,,,,,1,,,,87,64
91380,note_off,30,0,5,,,,,,,,5,,,,68,64
91380,note_on,0,0,5,,,,,,,,5,,,,67,45
91380,note_on,20,0,1,,,,,,,,1,,,,82,60
91380,note_on,20,0,2,,,,,,,,2,,,,82,45
91380,note_on,0,0,2,,,,,,,,2,,,,87,45
91380,note_on,0,0,10,,,,,,,,11,,,,67,45
91380,note_on,0,0,1,,,,,,,,1,,,,87,60
91380,note_off,30,0,10,,,,,,,,11,,,,68,64
91400,note_off,80,0,4,,,,,,,,4,,,,79,64
91400,note_off,80,0,8,,,,,,,,8,,,,82,64
91400,note_off,80,0,9,,,,,,,,10,,,,79,64
91400,note_off,80,0,3,,,,,,,,3,,,,82,64
91410,note_off,30,0,5,,,,,,,,5,,,,67,64
91410,note_on,0,0,5,,,,,,,,5,,,,68,45
91410,note_off,30,0,10,,,,,,,,11,,,,67,64
91410,note_on,0,0,10,,,,,,,,11,,,,68,45
91420,note_off,40,0,1,,,,,,,,1,,,,87,64
91420,note_off,0,0,2,,,,,,,,2,,,,82,64
91420,note_off,40,0,2,,,,,,,,2,,,,87,64
91420,note_off,0,0,1,,,,,,,,1,,,,82,64
91440,note_on,0,0,10,,,,,,,,11,,,,67,45
91440,note_off,30,0,5,,,,,,,,5,,,,68,64
91440,note_on,0,0,2,,,,,,,,2,,,,87,45
91440,note_on,20,0,2,,,,,,,,2,,,,82,45
91440,note_off,30,0,10,,,,,,,,11,,,,68,64
91440,note_on,0,0,5,,,,,,,,5,,,,67,45
91440,note_on,40,0,8,,,,,,,,8,,,,82,45
91440,note_on,40,0,4,,,,,,,,4,,,,79,45
91440,note_on,40,0,9,,,,,,,,10,,,,79,45
91440,note_on,40,0,3,,,,,,,,3,,,,82,45
91440,note_on,0,0,1,,,,,,,,1,,,,87,60
91440,note_on,20,0,1,,,,,,,,1,,,,82,60
91480,note_off,0,0,1,,,,,,,,1,,,,82,64
91480,note_off,40,0,1,,,,,,,,1,,,,87,64
91480,note_off,40,0,2,,,,,,,,2,,,,87,64
91480,note_off,0,0,2,,,,,,,,2,,,,82,64
91500,note_on,0,0,1,,,,,,,,1,,,,87,60
91500,note_on,20,0,1,,,,,,,,1,,,,82,60
91500,note_on,20,0,2,,,,,,,,2,,,,82,45
91500,note_on,0,0,2,,,,,,,,2,,,,87,45
91520,note_off,80,0,9,,,,,,,,10,,,,79,64
91520,note_off,80,0,3,,,,,,,,3,,,,82,64
91520,note_off,80,0,8,,,,,,,,8,,,,82,64
91520,note_off,80,0,4,,,,,,,,4,,,,79,64
91520,note_off,80,0,5,,,,,,,,5,,,,67,64
91520,note_off,80,0,10,,,,,,,,11,,,,67,64
91540,note_off,40,0,1,,,,,,,,1,,,,87,64
91540,note_off,0,0,1,,,,,,,,1,,,,82,64
91540,note_off,0,0,2,,,,,,,,2,,,,82,64
91540,note_off,40,0,2,,,,,,,,2,,,,87,64
91560,note_on,40,0,9,,,,,,,,10,,,,79,45
91560,note_on,40,0,4,,,,,,,,4,,,,79,45
91560,note_on,40,0,5,,,,,,,,5,,,,67,45
91560,note_on,40,0,3,,,,,,,,3,,,,82,45
91560,note_on,40,0,8,,,,,,,,8,,,,82,45
91560,note_on,20,0,2,,,,,,,,2,,,,82,45
91560,note_on,0,0,2,,,,,,,,2,,,,87,45
91560,note_on,0,0,1,,,,,,,,1,,,,87,60
91560,note_on,20,0,1,,,,,,,,1,,,,82,60
91560,note_on,40,0,10,,,,,,,,11,,,,67,45
91590,note_off,30,0,10,,,,,,,,11,,,,67,64
91590,note_on,0,0,10,,,,,,,,11,,,,68,45
91590,note_on,0,0,5,,,,,,,,5,,,,68,45
91590,note_off,30,0,5,,,,,,,,5,,,,67,64
91600,note_off,40,0,2,,,,,,,,2,,,,87,64
91600,note_off,0,0,2,,,,,,,,2,,,,82,64
91600,note_off,40,0,1,,,,,,,,1,,,,87,64
91600,note_off,0,0,1,,,,,,,,1,,,,82,64
91620,note_on,0,0,10,,,,,,,,11,,,,67,45
91620,note_on,0,0,2,,,,,,,,2,,,,87,45
91620,note_on,20,0,2,,,,,,,,2,,,,82,45
91620,note_on,20,0,1,,,,,,,,1,,,,82,60
91620,note_off,30,0,5,,,,,,,,5,,,,68,64
91620,note_on,0,0,5,,,,,,,,5,,,,67,45
91620,note_on,0,0,1,,,,,,,,1,,,,87,60
91620,note_off,30,0,10,,,,,,,,11,,,,68,64
91640,note_off,80,0,8,,,,,,,,8,,,,82,64
91640,note_off,80,0,4,,,,,,,,4,,,,79,64
91640,note_off,80,0,3,,,,,,,,3,,,,82,64
91640,note_off,80,0,9,,,,,,,,10,,,,79,64
91650,note_on,0,0,5,,,,,,,,5,,,,68,45
91650,note_off,30,0,10,,,,,,,,11,,,,67,64
91650,note_off,30,0,5,,,,,,,,5,,,,67,64
91650,note_on,0,0,10,,,,,,,,11,,,,68,45
91660,note_off,0,0,2,,,,,,,,2,,,,82,64
91660,note_off,40,0,1,,,,,,,,1,,,,87,64
91660,note_off,0,0,1,,,,,,,,1,,,,82,64
91660,note_off,40,0,2,,,,,,,,2,,,,87,64
91680,note_on,40,0,4,,,,,,,,4,,,,79,45
91680,note_on,0,0,5,,,,,,,,5,,,,67,45
91680,note_on,40,0,8,,,,,,,,8,,,,82,45
91680,note_off,30,0,10,,,,,,,,11,,,,68,64
91680,note_on,20,0,1,,,,,,,,1,,,,82,60
91680,note_on,0,0,1,,,,,,,,1,,,,87,60
91680,note_on,0,0,2,,,,,,,,2,,,,87,45
91680,note_on,40,0,3,,,,,,,,3,,,,82,45
91680,note_on,40,0,9,,,,,,,,10,,,,79,45
91680,note_off,30,0,5,,,,,,,,5,,,,68,64
91680,note_on,0,0,10,,,,,,,,11,,,,67,45
91680,note_on,20,0,2,,,,,,,,2,,,,82,45
91720,note_off,40,0,2,,,,,,,,2,,,,87,64
91720,note_off,0,0,2,,,,,,,,2,,,,82,64
91720,note_off,0,0,1,,,,,,,,1,,,,82,64
91720,note_off,40,0,1,,,,,,,,1,,,,87,64
91740,note_on,0,0,2,,,,,,,,2,,,,87,45
91740,note_on,20,0,2,,,,,,,,2,,,,82,45
91740,note_on,20,0,1,,,,,,,,1,,,,82,60
91740,note_on,0,0,1,,,,,,,,1,,,,87,60
91760,note_off,80,0,3,,,,,,,,3,,,,82,64
91760,note_off,80,0,10,,,,,,,,11,,,,67,64
91760,note_off,80,0,4,,,,,,,,4,,,,79,64
91760,note_off,80,0,9,,,,,,,,10,,,,79,64
91760,note_off,80,0,5,,,,,,,,5,,,,67,64
91760,note_off,80,0,8,,,,,,,,8,,,,82,64
91780,note_off,0,0,1,,,,,,,,1,,,,82,64
91780,note_off,0,0,2,,,,,,,,2,,,,82,64
91780,note_off,40,0,1,,,,,,,,1,,,,87,64
91780,note_off,40,0,2,,,,,,,,2,,,,87,64
91800,note_on,40,0,3,,,,,,,,3,,,,82,45
91800,note_on,40,0,5,,,,,,,,5,,,,67,45
91800,note_on,0,0,1,,,,,,,,1,,,,87,60
91800,note_on,0,0,2,,,,,,,,2,,,,87,45
91800,note_on,20,0,1,,,,,,,,1,,,,82,60
91800,note_on,20,0,2,,,,,,,,2,,,,82,45
91800,note_on,40,0,10,,,,,,,,11,,,,67,45
91800,note_on,40,0,4,,,,,,,,4,,,,79,45
91800,note_on,40,0,9,,,,,,,,10,,,,79,45
91800,note_on,40,0,8,,,,,,,,8,,,,82,45
91830,note_off,30,0,5,,,,,,,,5,,,,67,64
91830,note_on,0,0,5,,,,,,,,5,,,,68,45
91830,note_on,0,0,10,,,,,,,,11,,,,68,45
91830,note_off,30,0,10,,,,,,,,11,,,,67,64
91840,note_off,40,0,2,,,,,,,,2,,,,87,64
91840,note_off,40,0,1,,,,,,,,1,,,,87,64
91840,note_off,0,0,1,,,,,,,,1,,,,82,64
91840,note_off,0,0,2,,,,,,,,2,,,,82,64
91860,note_on,0,0,10,,,,,,,,11,,,,67,45
91860,note_on,20,0,1,,,,,,,,1,,,,82,60
91860,note_on,0,0,1,,,,,,,,1,,,,87,60
91860,note_off,30,0,10,,,,,,,,11,,,,68,64
91860,note_off,30,0,5,,,,,,,,5,,,,68,64
91860,note_on,0,0,2,,,,,,,,2,,,,87,45
91860,note_on,20,0,2,,,,,,,,2,,,,82,45
91860,note_on,0,0,5,,,,,,,,5,,,,67,45
91880,note_off,80,0,4,,,,,,,,4,,,,79,64
91880,note_off,80,0,8,,,,,,,,8,,,,82,64
91880,note_off,80,0,3,,,,,,,,3,,,,82,64
91880,note_off,80,0,9,,,,,,,,10,,,,79,64
91890,note_off,30,0,5,,,,,,,,5,,,,67,64
91890,note_on,0,0,5,,,,,,,,5,,,,68,45
91890,note_off,30,0,10,,,,,,,,11,,,,67,64
91890,note_on,0,0,10,,,,,,,,11,,,,68,45
91900,note_off,40,0,2,,,,,,,,2,,,,87,64
91900,note_off,0,0,2,,,,,,,,2,,,,82,64
91900,note_off,0,0,1,,,,,,,,1,,,,82,64
91900,note_off,40,0,1,,,,,,,,1,,,,87,64
91920,note_on,40,0,9,,,,,,,,10,,,,79,45
91920,note_on,40,0,8,,,,,,,,8,,,,82,45
91920,note_on,20,0,2,,,,,,,,2,,,,82,45
91920,note_on,0,0,2,,,,,,,,2,,,,87,45
91920,note_off,30,0,5,,,,,,,,5,,,,68,64
91920,note_on,40,0,3,,,,,,,,3,,,,82,45
91920,note_on,0,0,5,,,,,,,,5,,,,67,45
91920,note_off,30,0,10,,,,,,,,11,,,,68,64
91920,note_on,40,0,4,,,,,,,,4,,,,79,45
91920,note_on,20,0,1,,,,,,,,1,,,,82,60
91920,note_on,0,0,1,,,,,,,,1,,,,87,60
91920,note_on,0,0,10,,,,,,,,11,,,,67,45
91960,note_off,0,0,2,,,,,,,,2,,,,82,64
91960,note_off,40,0,2,,,,,,,,2,,,,87,64
91960,note_off,40,0,1,,,,,,,,1,,,,87,64
91960,note_off,0,0,1,,,,,,,,1,,,,82,64
91980,note_on,0,0,1,,,,,,,,1,,,,87,60
91980,note_on,20,0,2,,,,,,,,2,,,,82,45
91980,note_on,0,0,2,,,,,,,,2,,,,87,45
91980,note_on,20,0,1,,,,,,,,1,,,,82,60
92000,note_off,80,0,9,,,,,,,,10,,,,79,64
92000,note_off,80,0,3,,,,,,,,3,,,,82,64
92000,note_off,80,0,4,,,,,,,,4,,,,79,64
92000,note_off,80,0,5,,,,,,,,5,,,,67,64
92000,note_off,80,0,8,,,,,,,,8,,,,82,64
92000,note_off,80,0,10,,,,,,,,11,,,,67,64
92020,note_off,0,0,2,,,,,,,,2,,,,82,64
92020,note_off,40,0,1,,,,,,,,1,,,,87,64
92020,note_off,0,0,1,,,,,,,,1,,,,82,64
92020,note_off,40,0,2,,,,,,,,2,,,,87,64
92040,note_on,40,0,8,,,,,,,,8,,,,82,45
92040,note_on,0,0,1,,,,,,,,1,,,,87,60
92040,note_on,20,0,2,,,,,,,,2,,,,82,45
92040,note_on,0,0,2,,,,,,,,2,,,,87,45
92040,note_on,40,0,4,,,,,,,,4,,,,79,45
92040,note_on,40,0,10,,,,,,,,11,,,,67,45
92040,note_on,40,0,9,,,,,,,,10,,,,79,45
92040,note_on,40,0,5,,,,,,,,5,,,,67,45
92040,note_on,20,0,1,,,,,,,,1,,,,82,60
92040,note_on,40,0,3,,,,,,,,3,,,,82,45
92070,note_off,30,0,5,,,,,,,,5,,,,67,64
92070,note_on,0,0,5,,,,,,,,5,,,,68,45
92070,note_off,30,0,10,,,,,,,,11,,,,67,64
92070,note_on,0,0,10,,,,,,,,11,,,,68,45
92080,note_off,0,0,1,,,,,,,,1,,,,82,64
92080,note_off,40,0,1,,,,,,,,1,,,,87,64
92080,note_off,0,0,2,,,,,,,,2,,,,82,64
92080,note_off,40,0,2,,,,,,,,2,,,,87,64
92100,note_off,30,0,5,,,,,,,,5,,,,68,64
92100,note_on,0,0,1,,,,,,,,1,,,,87,60
92100,note_on,20,0,1,,,,,,,,1,,,,82,60
92100,note_on,0,0,2,,,,,,,,2,,,,87,45
92100,note_on,0,0,10,,,,,,,,11,,,,67,45
92100,note_off,30,0,10,,,,,,,,11,,,,68,64
92100,note_on,20,0,2,,,,,,,,2,,,,82,45
92100,note_on,0,0,5,,,,,,,,5,,,,67,45
92120,note_off,80,0,8,,,,,,,,8,,,,82,64
92120,note_off,80,0,4,,,,,,,,4,,,,79,64
92120,note_off,80,0,9,,,,,,,,10,,,,79,64
92120,note_off,80,0,3,,,,,,,,3,,,,82,64
92130,note_off,30,0,10,,,,,,,,11,,,,67,64
92130,note_on,0,0,10,,,,,,,,11,,,,68,45
92130,note_on,0,0,5,,,,,,,,5,,,,68,45
92130,note_off,30,0,5,,,,,,,,5,,,,67,64
92140,note_off,40,0,2,,,,,,,,2,,,,87,64
92140,note_off,0,0,2,,,,,,,,2,,,,82,64
92140,note_off,0,0,1,,,,,,,,1,,,,82,64
92140,note_off,40,0,1,,,,,,,,1,,,,87,64
92160,note_on,0,0,2,,,,,,,,2,,,,87,45
92160,note_on,40,0,4,,,,,,,,4,,,,79,45
92160,note_on,40,0,3,,,,,,,,3,,,,82,45
92160,note_on,40,0,9,,,,,,,,10,,,,79,45
92160,note_on,20,0,2,,,,,,,,2,,,,82,45
92160,note_off,30,0,5,,,,,,,,5,,,,68,64
92160,note_off,30,0,10,,,,,,,,11,,,,68,64
92160,note_on,40,0,8,,,,,,,,8,,,,82,45
92160,note_on,20,0,1,,,,,,,,1,,,,82,60
92160,note_on,0,0,1,,,,,,,,1,,,,87,60
92160,note_on,0,0,10,,,,,,,,11,,,,67,45
92160,note_on,0,0,5,,,,,,,,5,,,,67,45
92200,note_off,40,0,1,,,,,,,,1,,,,87,64
92200,note_off,0,0,1,,,,,,,,1,,,,82,64
92200,note_off,0,0,2,,,,,,,,2,,,,82,64
92200,note_off,40,0,2,,,,,,,,2,,,,87,64
92220,note_on,20,0,1,,,,,,,,1,,,,82,60
92220,note_on,0,0,2,,,,,,,,2,,,,87,45
92220,note_on,20,0,2,,,,,,,,2,,,,82,45
92220,note_on,0,0,1,,,,,,,,1,,,,87,60
92240,note_off,80,0,10,,,,,,,,11,,,,67,64
92240,note_off,80,0,9,,,,,,,,10,,,,79,64
92240,note_off,80,0,3,,,,,,,,3,,,,82,64
92240,note_off,80,0,8,,,,,,,,8,,,,82,64
92240,note_off,80,0,4,,,,,,,,4,,,,79,64
92240,note_off,80,0,5,,,,,,,,5,,,,67,64
92260,note_off,0,0,2,,,,,,,,2,,,,82,64
92260,note_off,40,0,2,,,,,,,,2,,,,87,64
92260,note_off,40,0,1,,,,,,,,1,,,,87,64
92260,note_off,0,0,1,,,,,,,,1,,,,82,64
92280,note_on,20,0,2,,,,,,,,2,,,,80,45
92280,note_on,40,0,4,,,,,,,,4,,,,79,45
92280,note_on,40,0,3,,,,,,,,3,,,,80,45
92280,note_on,0,0,2,,,,,,,,2,,,,91,45
92280,note_on,40,0,5,,,,,,,,5,,,,60,45
92280,note_on,20,0,1,,,,,,,,1,,,,80,60
92280,note_on,40,0,10,,,,,,,,11,,,,60,45
92280,note_on,0,0,1,,,,,,,,1,,,,91,60
92280,note_on,40,0,9,,,,,,,,10,,,,79,45
92280,note_on,40,0,8,,,,,,,,8,,,,80,45
92310,note_off,30,0,5,,,,,,,,5,,,,60,64
92310,note_on,0,0,5,,,,,,,,5,,,,61,45
92310,note_off,30,0,10,,,,,,,,11,,,,60,64
92310,note_on,0,0,10,,,,,,,,11,,,,61,45
92320,note_off,40,0,1,,,,,,,,1,,,,91,64
92320,note_off,0,0,1,,,,,,,,1,,,,80,64
92320,note_off,40,0,2,,,,,,,,2,,,,91,64
92320,note_off,0,0,2,,,,,,,,2,,,,80,64
92340,note_on,20,0,2,,,,,,,,2,,,,80,45
92340,note_on,0,0,2,,,,,,,,2,,,,91,45
92340,note_on,0,0,5,,,,,,,,5,,,,60,45
92340,note_on,20,0,1,,,,,,,,1,,,,80,60
92340,note_off,30,0,5,,,,,,,,5,,,,61,64
92340,note_off,30,0,10,,,,,,,,11,,,,61,64
92340,note_on,0,0,10,,,,,,,,11,,,,60,45
92340,note_on,0,0,1,,,,,,,,1,,,,91,60
92360,note_off,80,0,8,,,,,,,,8,,,,80,64
92360,note_off,80,0,4,,,,,,,,4,,,,79,64
92360,note_off,80,0,3,,,,,,,,3,,,,80,64
92360,note_off,80,0,9,,,,,,,,10,,,,79,64
92370,note_off,30,0,10,,,,,,,,11,,,,60,64
92370,note_on,0,0,10,,,,,,,,11,,,,61,45
92370,note_on,0,0,5,,,,,,,,5,,,,61,45
92370,note_off,30,0,5,,,,,,,,5,,,,60,64
92380,note_off,0,0,1,,,,,,,,1,,,,80,64
92380,note_off,40,0,1,,,,,,,,1,,,,91,64
92380,note_off,40,0,2,,,,,,,,2,,,,91,64
92380,note_off,0,0,2,,,,,,,,2,,,,80,64
92400,note_on,0,0,1,,,,,,,,1,,,,91,60
92400,note_off,30,0,10,,,,,,,,11,,,,61,64
92400,note_on,0,0,10,,,,,,,,11,,,,60,45
92400,note_on,40,0,9,,,,,,,,10,,,,79,45
92400,note_on,0,0,5,,,,,,,,5,,,,60,45
92400,note_off,30,0,5,,,,,,,,5,,,,61,64
92400,note_on,20,0,2,,,,,,,,2,,,,80,45
92400,note_on,40,0,8,,,,,,,,8,,,,80,45
92400,note_on,40,0,3,,,,,,,,3,,,,80,45
92400,note_on,20,0,1,,,,,,,,1,,,,80,60
92400,note_on,0,0,2,,,,,,,,2,,,,91,45
92400,note_on,40,0,4,,,,,,,,4,,,,79,45
92440,note_off,40,0,2,,,,,,,,2,,,,91,64
92440,note_off,0,0,2,,,,,,,,2,,,,80,64
92440,note_off,0,0,1,,,,,,,,1,,,,80,64
92440,note_off,40,0,1,,,,,,,,1,,,,91,64
92460,note_on,20,0,1,,,,,,,,1,,,,80,60
92460,note_on,20,0,2,,,,,,,,2,,,,80,45
92460,note_on,0,0,2,,,,,,,,2,,,,91,45
92460,note_on,0,0,1,,,,,,,,1,,,,91,60
92480,note_off,80,0,10,,,,,,,,11,,,,60,64
92480,note_off,80,0,5,,,,,,,,5,,,,60,64
92480,note_off,80,0,9,,,,,,,,10,,,,79,64
92480,note_off,80,0,3,,,,,,,,3,,,,80,64
92480,note_off,80,0,8,,,,,,,,8,,,,80,64
92480,note_off,80,0,4,,,,,,,,4,,,,79,64
92500,note_off,0,0,2,,,,,,,,2,,,,80,64
92500,note_off,40,0,2,,,,,,,,2,,,,91,64
92500,note_off,0,0,1,,,,,,,,1,,,,80,64
92500,note_off,40,0,1,,,,,,,,1,,,,91,64
92520,note_on,0,0,1,,,,,,,,1,,,,91,60
92520,note_on,20,0,1,,,,,,,,1,,,,80,60
92520,note_on,40,0,3,,,,,,,,3,,,,80,45
92520,note_on,40,0,10,,,,,,,,11,,,,60,45
92520,note_on,40,0,8,,,,,,,,8,,,,80,45
92520,note_on,40,0,4,,,,,,,,4,,,,79,45
92520,note_on,40,0,9,,,,,,,,10,,,,79,45
92520,note_on,0,0,2,,,,,,,,2,,,,91,45
92520,note_on,40,0,5,,,,,,,,5,,,,60,45
92520,note_on,20,0,2,,,,,,,,2,,,,80,45
92550,note_on,0,0,10,,,,,,,,11,,,,61,45
92550,note_on,0,0,5,,,,,,,,5,,,,61,45
92550,note_off,30,0,5,,,,,,,,5,,,,60,64
92550,note_off,30,0,10,,,,,,,,11,,,,60,64
92560,note_off,40,0,1,,,,,,,,1,,,,91,64
92560,note_off,0,0,1,,,,,,,,1,,,,80,64
92560,note_off,0,0,2,,,,,,,,2,,,,80,64
92560,note_off,40,0,2,,,,,,,,2,,,,91,64
92580,note_off,30,0,5,,,,,,,,5,,,,61,64
92580,note_on,0,0,2,,,,,,,,2,,,,91,45
92580,note_on,20,0,2,,,,,,,,2,,,,80,45
92580,note_on,0,0,5,,,,,,,,5,,,,60,45
92580,note_on,20,0,1,,,,,,,,1,,,,80,60
92580,note_on,0,0,1,,,,,,,,1,,,,91,60
92580,note_off,30,0,10,,,,,,,,11,,,,61,64
92580,note_on,0,0,10,,,,,,,,11,,,,60,45
92600,note_off,80,0,3,,,,,,,,3,,,,80,64
92600,note_off,80,0,8,,,,,,,,8,,,,80,64
92600,note_off,80,0,9,,,,,,,,10,,,,79,64
92600,note_off,80,0,4,,,,,,,,4,,,,79,64
92610,note_off,30,0,10,,,,,,,,11,,,,60,64
92610,note_off,30,0,5,,,,,,,,5,,,,60,64
92610,note_on,0,0,10,,,,,,,,11,,,,61,45
92610,note_on,0,0,5,,,,,,,,5,,,,61,45
92620,note_off,0,0,2,,,,,,,,2,,,,80,64
92620,note_off,0,0,1,,,,,,,,1,,,,80,64
92620,note_off,40,0,1,,,,,,,,1,,,,91,64
92620,note_off,40,0,2,,,,,,,,2,,,,91,64
92640,note_on,0,0,1,,,,,,,,1,,,,91,60
92640,note_on,0,0,5,,,,,,,,5,,,,60,45
92640,note_on,20,0,1,,,,,,,,1,,,,80,60
92640,note_off,30,0,5,,,,,,,,5,,,,61,64
92640,note_on,20,0,2,,,,,,,,2,,,,80,45
92640,note_on,40,0,3,,,,,,,,3,,,,80,45
92640,note_on,40,0,9,,,,,,,,10,,,,79,45
92640,note_off,30,0,10,,,,,,,,11,,,,61,64
92640,note_on,40,0,8,,,,,,,,8,,,,80,45
92640,note_on,40,0,4,,,,,,,,4,,,,79,45
92640,note_on,0,0,10,,,,,,,,11,,,,60,45
92640,note_on,0,0,2,,,,,,,,2,,,,91,45
92680,note_off,40,0,2,,,,,,,,2,,,,91,64
92680,note_off,0,0,2,,,,,,,,2,,,,80,64
92680,note_off,40,0,1,,,,,,,,1,,,,91,64
92680,note_off,0,0,1,,,,,,,,1,,,,80,64
92700,note_on,20,0,2,,,,,,,,2,,,,80,45
92700,note_on,0,0,2,,,,,,,,2,,,,91,45
92700,note_on,20,0,1,,,,,,,,1,,,,80,60
92700,note_on,0,0,1,,,,,,,,1,,,,91,60
92720,note_off,80,0,9,,,,,,,,10,,,,79,64
92720,note_off,80,0,3,,,,,,,,3,,,,80,64
92720,note_off,80,0,10,,,,,,,,11,,,,60,64
92720,note_off,80,0,4,,,,,,,,4,,,,79,64
92720,note_off,80,0,5,,,,,,,,5,,,,60,64
92720,note_off,80,0,8,,,,,,,,8,,,,80,64
92740,note_off,40,0,1,,,,,,,,1,,,,91,64
92740,note_off,0,0,2,,,,,,,,2,,,,80,64
92740,note_off,40,0,2,,,,,,,,2,,,,91,64
92740,note_off,0,0,1,,,,,,,,1,,,,80,64
92760,note_on,20,0,1,,,,,,,,1,,,,80,60
92760,note_on,40,0,5,,,,,,,,5,,,,60,45
92760,note_on,40,0,9,,,,,,,,10,,,,79,45
92760,note_on,0,0,1,,,,,,,,1,,,,91,60
92760,note_on,40,0,4,,,,,,,,4,,,,79,45
92760,note_on,20,0,2,,,,,,,,2,,,,80,45
92760,note_on,40,0,10,,,,,,,,11,,,,60,45
92760,note_on,40,0,3,,,,,,,,3,,,,80,45
92760,note_on,0,0,2,,,,,,,,2,,,,91,45
92760,note_on,40,0,8,,,,,,,,8,,,,80,45
92790,note_on,0,0,10,,,,,,,,11,,,,61,45
92790,note_off,30,0,5,,,,,,,,5,,,,60,64
92790,note_on,0,0,5,,,,,,,,5,,,,61,45
92790,note_off,30,0,10,,,,,,,,11,,,,60,64
92800,note_off,40,0,2,,,,,,,,2,,,,91,64
92800,note_off,0,0,2,,,,,,,,2,,,,80,64
92800,note_off,40,0,1,,,,,,,,1,,,,91,64
92800,note_off,0,0,1,,,,,,,,1,,,,80,64
92820,note_on,0,0,5,,,,,,,,5,,,,60,45
92820,note_on,20,0,2,,,,,,,,2,,,,80,45
92820,note_on,20,0,1,,,,,,,,1,,,,80,60
92820,note_on,0,0,1,,,,,,,,1,,,,91,60
92820,note_on,0,0,2,,,,,,,,2,,,,91,45
92820,note_on,0,0,10,,,,,,,,11,,,,60,45
92820,note_off,30,0,10,,,,,,,,11,,,,61,64
92820,note_off,30,0,5,,,,,,,,5,,,,61,64
92840,note_off,80,0,8,,,,,,,,8,,,,80,64
92840,note_off,80,0,3,,,,,,,,3,,,,80,64
92840,note_off,80,0,4,,,,,,,,4,,,,79,64
92840,note_off,80,0,9,,,,,,,,10,,,,79,64
92850,note_off,30,0,10,,,,,,,,11,,,,60,64
92850,note_on,0,0,10,,,,,,,,11,,,,61,45
92850,note_off,30,0,5,,,,,,,,5,,,,60,64
92850,note_on,0,0,5,,,,,,,,5,,,,61,45
92860,note_off,0,0,1,,,,,,,,1,,,,80,64
92860,note_off,40,0,1,,,,,,,,1,,,,91,64
92860,note_off,40,0,2,,,,,,,,2,,,,91,64
92860,note_off,0,0,2,,,,,,,,2,,,,80,64
92880,note_on,40,0,4,,,,,,,,4,,,,79,45
92880,note_on,40,0,3,,,,,,,,3,,,,80,45
92880,note_on,40,0,9,,,,,,,,10,,,,79,45
92880,note_off,30,0,10,,,,,,,,11,,,,61,64
92880,note_on,0,0,10,,,,,,,,11,,,,60,45
92880,note_off,30,0,5,,,,,,,,5,,,,61,64
92880,note_on,0,0,5,,,,,,,,5,,,,60,45
92880,note_on,20,0,2,,,,,,,,2,,,,80,45
92880,note_on,0,0,2,,,,,,,,2,,,,91,45
92880,note_on,40,0,8,,,,,,,,8,,,,80,45
92880,note_on,20,0,1,,,,,,,,1,,,,80,60
92880,note_on,0,0,1,,,,,,,,1,,,,91,60
92920,note_off,40,0,2,,,,,,,,2,,,,91,64
92920,note_off,0,0,2,,,,,,,,2,,,,80,64
92920,note_off,0,0,1,,,,,,,,1,,,,80,64
92920,note_off,40,0,1,,,,,,,,1,,,,91,64
92940,note_on,0,0,2,,,,,,,,2,,,,91,45
92940,note_on,20,0,1,,,,,,,,1,,,,80,60
92940,note_on,0,0,1,,,,,,,,1,,,,91,60
92940,note_on,20,0,2,,,,,,,,2,,,,80,45
92960,note_off,80,0,4,,,,,,,,4,,,,79,64
92960,note_off,80,0,10,,,,,,,,11,,,,60,64
92960,note_off,80,0,9,,,,,,,,10,,,,79,64
92960,note_off,80,0,3,,,,,,,,3,,,,80,64
92960,note_off,80,0,5,,,,,,,,5,,,,60,64
92960,note_off,80,0,8,,,,,,,,8,,,,80,64
92980,note_off,0,0,2,,,,,,,,2,,,,80,64
92980,note_off,40,0,1,,,,,,,,1,,,,91,64
92980,note_off,0,0,1,,,,,,,,1,,,,80,64
92980,note_off,40,0,2,,,,,,,,2,,,,91,64
93000,note_on,40,0,9,,,,,,,,10,,,,79,45
93000,note_on,40,0,5,,,,,,,,5,,,,60,45
93000,note_on,40,0,4,,,,,,,,4,,,,79,45
93000,note_on,20,0,2,,,,,,,,2,,,,80,45
93000,note_on,40,0,8,,,,,,,,8,,,,80,45
93000,note_on,40,0,3,,,,,,,,3,,,,80,45
93000,note_on,20,0,1,,,,,,,,1,,,,80,60
93000,note_on,0,0,1,,,,,,,,1,,,,91,60
93000,note_on,40,0,10,,,,,,,,11,,,,60,45
93000,note_on,0,0,2,,,,,,,,2,,,,91,45
93030,note_off,30,0,10,,,,,,,,11,,,,60,64
93030,note_off,30,0,5,,,,,,,,5,,,,60,64
93030,note_on,0,0,5,,,,,,,,5,,,,61,45
93030,note_on,0,0,10,,,,,,,,11,,,,61,45
93040,note_off,0,0,2,,,,,,,,2,,,,80,64
93040,note_off,40,0,2,,,,,,,,2,,,,91,64
93040,note_off,40,0,1,,,,,,,,1,,,,91,64
93040,note_off,0,0,1,,,,,,,,1,,,,80,64
93060,note_on,20,0,1,,,,,,,,1,,,,80,60
93060,note_on,20,0,2,,,,,,,,2,,,,80,45
93060,note_off,30,0,5,,,,,,,,5,,,,61,64
93060,note_off,30,0,10,,,,,,,,11,,,,61,64
93060,note_on,0,0,10,,,,,,,,11,,,,60,45
93060,note_on,0,0,1,,,,,,,,1,,,,91,60
93060,note_on,0,0,5,,,,,,,,5,,,,60,45
93060,note_on,0,0,2,,,,,,,,2,,,,91,45
93080,note_off,80,0,8,,,,,,,,8,,,,80,64
93080,note_off,80,0,3,,,,,,,,3,,,,80,64
93080,note_off,80,0,9,,,,,,,,10,,,,79,64
93080,note_off,80,0,4,,,,,,,,4,,,,79,64
93090,note_on,0,0,10,,,,,,,,11,,,,61,45
93090,note_off,30,0,10,,,,,,,,11,,,,60,64
93090,note_off,30,0,5,,,,,,,,5,,,,60,64
93090,note_on,0,0,5,,,,,,,,5,,,,61,45
93100,note_off,0,0,1,,,,,,,,1,,,,80,64
93100,note_off,40,0,1,,,,,,,,1,,,,91,64
93100,note_off,40,0,2,,,,,,,,2,,,,91,64
93100,note_off,0,0,2,,,,,,,,2,,,,80,64
93120,note_on,40,0,4,,,,,,,,4,,,,79,45
93120,note_on,40,0,8,,,,,,,,8,,,,80,45
93120,note_on,0,0,2,,,,,,,,2,,,,91,45
93120,note_on,20,0,2,,,,,,,,2,,,,80,45
93120,note_on,0,0,10,,,,,,,,11,,,,60,45
93120,note_on,40,0,9,,,,,,,,10,,,,79,45
93120,note_on,40,0,3,,,,,,,,3,,,,80,45
93120,note_off,30,0,5,,,,,,,,5,,,,61,64
93120,note_on,0,0,5,,,,,,,,5,,,,60,45
93120,note_off,30,0,10,,,,,,,,11,,,,61,64
93120,note_on,20,0,1,,,,,,,,1,,,,80,60
93120,note_on,0,0,1,,,,,,,,1,,,,91,60
93160,note_off,0,0,2,,,,,,,,2,,,,80,64
93160,note_off,40,0,2,,,,,,,,2,,,,91,64
93160,note_off,40,0,1,,,,,,,,1,,,,91,64
93160,note_off,0,0,1,,,,,,,,1,,,,80,64
93180,note_on,0,0,2,,,,,,,,2,,,,91,45
93180,note_on,20,0,2,,,,,,,,2,,,,80,45
93180,note_on,20,0,1,,,,,,,,1,,,,80,60
93180,note_on,0,0,1,,,,,,,,1,,,,91,60
93200,note_off,80,0,4,,,,,,,,4,,,,79,64
93200,note_off,80,0,5,,,,,,,,5,,,,60,64
93200,note_off,80,0,10,,,,,,,,11,,,,60,64
93200,note_off,80,0,8,,,,,,,,8,,,,80,64
93200,note_off,80,0,9,,,,,,,,10,,,,79,64
93200,note_off,80,0,3,,,,,,,,3,,,,80,64
93220,note_off,0,0,2,,,,,,,,2,,,,80,64
93220,note_off,0,0,1,,,,,,,,1,,,,80,64
93220,note_off,40,0,2,,,,,,,,2,,,,91,64
93220,note_off,40,0,1,,,,,,,,1,,,,91,64
93240,note_on,40,0,8,,,,,,,,8,,,,80,45
93240,note_on,40,0,9,,,,,,,,10,,,,77,45
93240,note_on,0,0,2,,,,,,,,2,,,,89,45
93240,note_on,40,0,4,,,,,,,,4,,,,77,45
93240,note_on,40,0,3,,,,,,,,3,,,,80,45
93240,note_on,40,0,10,,,,,,,,11,,,,62,45
93240,note_on,20,0,1,,,,,,,,1,,,,80,60
93240,note_on,20,0,2,,,,,,,,2,,,,80,45
93240,note_on,40,0,5,,,,,,,,5,,,,62,45
93240,note_on,0,0,1,,,,,,,,1,,,,89,60
93270,note_off,30,0,10,,,,,,,,11,,,,62,64
93270,note_off,30,0,5,,,,,,,,5,,,,62,64
93270,note_on,0,0,10,,,,,,,,11,,,,63,45
93270,note_on,0,0,5,,,,,,,,5,,,,63,45
93280,note_off,40,0,2,,,,,,,,2,,,,89,64
93280,note_off,0,0,2,,,,,,,,2,,,,80,64
93280,note_off,0,0,1,,,,,,,,1,,,,80,64
93280,note_off,40,0,1,,,,,,,,1,,,,89,64
93300,note_off,30,0,10,,,,,,,,11,,,,63,64
93300,note_on,0,0,10,,,,,,,,11,,,,62,45
93300,note_on,0,0,5,,,,,,,,5,,,,62,45
93300,note_on,20,0,2,,,,,,,,2,,,,80,45
93300,note_on,0,0,2,,,,,,,,2,,,,89,45
93300,note_off,30,0,5,,,,,,,,5,,,,63,64
93300,note_on,20,0,1,,,,,,,,1,,,,80,60
93300,note_on,0,0,1,,,,,,,,1,,,,89,60
93320,note_off,80,0,4,,,,,,,,4,,,,77,64
93320,note_off,80,0,8,,,,,,,,8,,,,80,64
93320,note_off,80,0,9,,,,,,,,10,,,,77,64
93320,note_off,80,0,3,,,,,,,,3,,,,80,64
93330,note_on,0,0,5,,,,,,,,5,,,,63,45
93330,note_on,0,0,10,,,,,,,,11,,,,63,45
93330,note_off,30,0,5,,,,,,,,5,,,,62,64
93330,note_off,30,0,10,,,,,,,,11,,,,62,64
93340,note_off,0,0,1,,,,,,,,1,,,,80,64
93340,note_off,40,0,1,,,,,,,,1,,,,89,64
93340,note_off,40,0,2,,,,,,,,2,,,,89,64
93340,note_off,0,0,2,,,,,,,,2,,,,80,64
93360,note_on,0,0,1,,,,,,,,1,,,,89,60
93360,note_on,20,0,1,,,,,,,,1,,,,80,60
93360,note_on,20,0,2,,,,,,,,2,,,,80,45
93360,note_on,40,0,4,,,,,,,,4,,,,77,45
93360,note_off,30,0,10,,,,,,,,11,,,,63,64
93360,note_on,0,0,10,,,,,,,,11,,,,62,45
93360,note_on,40,0,8,,,,,,,,8,,,,80,45
93360,note_on,40,0,9,,,,,,,,10,,,,77,45
93360,note_on,0,0,2,,,,,,,,2,,,,89,45
93360,note_on,40,0,3,,,,,,,,3,,,,80,45
93360,note_on,0,0,5,,,,,,,,5,,,,62,45
93360,note_off,30,0,5,,,,,,,,5,,,,63,64
93400,note_off,40,0,1,,,,,,,,1,,,,89,64
93400,note_off,0,0,1,,,,,,,,1,,,,80,64
93400,note_off,40,0,2,,,,,,,,2,,,,89,64
93400,note_off,0,0,2,,,,,,,,2,,,,80,64
93420,note_on,0,0,1,,,,,,,,1,,,,89,60
93420,note_on,20,0,1,,,,,,,,1,,,,80,60
93420,note_on,0,0,2,,,,,,,,2,,,,89,45
93420,note_on,20,0,2,,,,,,,,2,,,,80,45
93440,note_off,80,0,10,,,,,,,,11,,,,62,64
93440,note_off,80,0,4,,,,,,,,4,,,,77,64
93440,note_off,80,0,3,,,,,,,,3,,,,80,64
93440,note_off,80,0,9,,,,,,,,10,,,,77,64
93440,note_off,80,0,5,,,,,,,,5,,,,62,64
93440,note_off,80,0,8,,,,,,,,8,,,,80,64
93460,note_off,0,0,1,,,,,,,,1,,,,80,64
93460,note_off,0,0,2,,,,,,,,2,,,,80,64
93460,note_off,40,0,1,,,,,,,,1,,,,89,64
93460,note_off,40,0,2,,,,,,,,2,,,,89,64
93480,note_on,40,0,10,,,,,,,,11,,,,62,45
93480,note_on,20,0,1,,,,,,,,1,,,,80,60
93480,note_on,40,0,9,,,,,,,,10,,,,77,45
93480,note_on,20,0,2,,,,,,,,2,,,,80,45
93480,note_on,40,0,3,,,,,,,,3,,,,80,45
93480,note_on,40,0,8,,,,,,,,8,,,,80,45
93480,note_on,40,0,5,,,,,,,,5,,,,62,45
93480,note_on,0,0,1,,,,,,,,1,,,,89,60
93480,note_on,40,0,4,,,,,,,,4,,,,77,45
93480,note_on,0,0,2,,,,,,,,2,,,,89,45
93510,note_off,30,0,10,,,,,,,,11,,,,62,64
93510,note_on,0,0,10,,,,,,,,11,,,,63,45
93510,note_off,30,0,5,,,,,,,,5,,,,62,64
93510,note_on,0,0,5,,,,,,,,5,,,,63,45
93520,note_off,0,0,2,,,,,,,,2,,,,80,64
93520,note_off,40,0,2,,,,,,,,2,,,,89,64
93520,note_off,0,0,1,,,,,,,,1,,,,80,64
93520,note_off,40,0,1,,,,,,,,1,,,,89,64
93540,note_off,30,0,10,,,,,,,,11,,,,63,64
93540,note_on,0,0,2,,,,,,,,2,,,,89,45
93540,note_off,30,0,5,,,,,,,,5,,,,63,64
93540,note_on,0,0,1,,,,,,,,1,,,,89,60
93540,note_on,20,0,1,,,,,,,,1,,,,80,60
93540,note_on,0,0,10,,,,,,,,11,,,,62,45
93540,note_on,0,0,5,,,,,,,,5,,,,62,45
93540,note_on,20,0,2,,,,,,,,2,,,,80,45
93560,note_off,80,0,8,,,,,,,,8,,,,80,64
93560,note_off,80,0,9,,,,,,,,10,,,,77,64
93560,note_off,80,0,3,,,,,,,,3,,,,80,64
93560,note_off,80,0,4,,,,,,,,4,,,,77,64
93570,note_on,0,0,5,,,,,,,,5,,,,63,45
93570,note_off,30,0,5,,,,,,,,5,,,,62,64
93570,note_off,30,0,10,,,,,,,,11,,,,62,64
93570,note_on,0,0,10,,,,,,,,11,,,,63,45
93580,note_off,40,0,1,,,,,,,,1,,,,89,64
93580,note_off,0,0,1,,,,,,,,1,,,,80,64
93580,note_off,40,0,2,,,,,,,,2,,,,89,64
93580,note_off,0,0,2,,,,,,,,2,,,,80,64
93600,note_on,20,0,2,,,,,,,,2,,,,80,45
93600,note_on,0,0,2,,,,,,,,2,,,,89,45
93600,note_on,0,0,10,,,,,,,,11,,,,62,45
93600,note_off,30,0,5,,,,,,,,5,,,,63,64
93600,note_on,40,0,3,,,,,,,,3,,,,80,45
93600,note_on,0,0,1,,,,,,,,1,,,,89,60
93600,note_on,20,0,1,,,,,,,,1,,,,80,60
93600,note_on,40,0,4,,,,,,,,4,,,,77,45
93600,note_on,40,0,9,,,,,,,,10,,,,77,45
93600,note_on,40,0,8,,,,,,,,8,,,,80,45
93600,note_on,0,0,5,,,,,,,,5,,,,62,45
93600,note_off,30,0,10,,,,,,,,11,,,,63,64
93640,note_off,40,0,1,,,,,,,,1,,,,89,64
93640,note_off,0,0,1,,,,,,,,1,,,,80,64
93640,note_off,40,0,2,,,,,,,,2,,,,89,64
93640,note_off,0,0,2,,,,,,,,2,,,,80,64
93660,note_on,0,0,2,,,,,,,,2,,,,89,45
93660,note_on,20,0,1,,,,,,,,1,,,,80,60
93660,note_on,20,0,2,,,,,,,,2,,,,80,45
93660,note_on,0,0,1,,,,,,,,1,,,,89,60
93680,note_off,80,0,8,,,,,,,,8,,,,80,64
93680,note_off,80,0,9,,,,,,,,10,,,,77,64
93680,note_off,80,0,10,,,,,,,,11,,,,62,64
93680,note_off,80,0,4,,,,,,,,4,,,,77,64
93680,note_off,80,0,3,,,,,,,,3,,,,80,64
93680,note_off,80,0,5,,,,,,,,5,,,,62,64
93700,note_off,0,0,1,,,,,,,,1,,,,80,64
93700,note_off,40,0,1,,,,,,,,1,,,,89,64
93700,note_off,40,0,2,,,,,,,,2,,,,89,64
93700,note_off,0,0,2,,,,,,,,2,,,,80,64
93720,note_on,20,0,1,,,,,,,,1,,,,80,60
93720,note_on,0,0,1,,,,,,,,1,,,,89,60
93720,note_on,40,0,10,,,,,,,,11,,,,62,45
93720,note_on,40,0,4,,,,,,,,4,,,,77,45
93720,note_on,40,0,8,,,,,,,,8,,,,80,45
93720,note_on,40,0,3,,,,,,,,3,,,,80,45
93720,note_on,40,0,5,,,,,,,,5,,,,62,45
93720,note_on,40,0,9,,,,,,,,10,,,,77,45
93720,note_on,0,0,2,,,,,,,,2,,,,89,45
93720,note_on,20,0,2,,,,,,,,2,,,,80,45
93750,note_off,30,0,10,,,,,,,,11,,,,62,64
93750,note_off,30,0,5,,,,,,,,5,,,,62,64
93750,note_on,0,0,5,,,,,,,,5,,,,63,45
93750,note_on,0,0,10,,,,,,,,11,,,,63,45
93760,note_off,0,0,1,,,,,,,,1,,,,80,64
93760,note_off,40,0,1,,,,,,,,1,,,,89,64
93760,note_off,0,0,2,,,,,,,,2,,,,80,64
93760,note_off,40,0,2,,,,,,,,2,,,,89,64
93780,note_on,0,0,10,,,,,,,,11,,,,62,45
93780,note_off,30,0,5,,,,,,,,5,,,,63,64
93780,note_off,30,0,10,,,,,,,,11,,,,63,64
93780,note_on,20,0,1,,,,,,,,1,,,,80,60
93780,note_on,0,0,1,,,,,,,,1,,,,89,60
93780,note_on,20,0,2,,,,,,,,2,,,,80,45
93780,note_on,0,0,2,,,,,,,,2,,,,89,45
93780,note_on,0,0,5,,,,,,,,5,,,,62,45
93800,note_off,80,0,8,,,,,,,,8,,,,80,64
93800,note_off,80,0,3,,,,,,,,3,,,,80,64
93800,note_off,80,0,9,,,,,,,,10,,,,77,64
93800,note_off,80,0,4,,,,,,,,4,,,,77,64
93810,note_on,0,0,10,,,,,,,,11,,,,63,45
93810,note_off,30,0,5,,,,,,,,5,,,,62,64
93810,note_off,30,0,10,,,,,,,,11,,,,62,64
93810,note_on,0,0,5,,,,,,,,5,,,,63,45
93820,note_off,40,0,2,,,,,,,,2,,,,89,64
93820,note_off,0,0,2,,,,,,,,2,,,,80,64
93820,note_off,40,0,1,,,,,,,,1,,,,89,64
93820,note_off,0,0,1,,,,,,,,1,,,,80,64
93840,note_off,30,0,5,,,,,,,,5,,,,63,64
93840,note_on,40,0,3,,,,,,,,3,,,,80,45
93840,note_on,0,0,10,,,,,,,,11,,,,62,45
93840,note_on,40,0,8,,,,,,,,8,,,,80,45
93840,note_on,40,0,9,,,,,,,,10,,,,77,45
93840,note_on,0,0,5,,,,,,,,5,,,,62,45
93840,note_on,20,0,2,,,,,,,,2,,,,80,45
93840,note_on,40,0,4,,,,,,,,4,,,,77,45
93840,note_on,0,0,2,,,,,,,,2,,,,89,45
93840,note_on,0,0,1,,,,,,,,1,,,,89,60
93840,note_off,30,0,10,,,,,,,,11,,,,63,64
93840,note_on,20,0,1,,,,,,,,1,,,,80,60
93880,note_off,40,0,1,,,,,,,,1,,,,89,64
93880,note_off,0,0,1,,,,,,,,1,,,,80,64
93880,note_off,0,0,2,,,,,,,,2,,,,80,64
93880,note_off,40,0,2,,,,,,,,2,,,,89,64
93900,note_on,20,0,1,,,,,,,,1,,,,80,60
93900,note_on,0,0,1,,,,,,,,1,,,,89,60
93900,note_on,20,0,2,,,,,,,,2,,,,80,45
93900,note_on,0,0,2,,,,,,,,2,,,,89,45
93920,note_off,80,0,4,,,,,,,,4,,,,77,64
93920,note_off,80,0,9,,,,,,,,10,,,,77,64
93920,note_off,80,0,8,,,,,,,,8,,,,80,64
93920,note_off,80,0,10,,,,,,,,11,,,,62,64
93920,note_off,80,0,3,,,,,,,,3,,,,80,64
93920,note_off,80,0,5,,,,,,,,5,,,,62,64
93940,note_off,0,0,2,,,,,,,,2,,,,80,64
93940,note_off,40,0,2,,,,,,,,2,,,,89,64
93940,note_off,40,0,1,,,,,,,,1,,,,89,64
93940,note_off,0,0,1,,,,,,,,1,,,,80,64
93960,note_on,40,0,10,,,,,,,,11,,,,62,45
93960,note_on,0,0,1,,,,,,,,1,,,,89,60
93960,note_on,40,0,4,,,,,,,,4,,,,77,45
93960,note_on,20,0,1,,,,,,,,1,,,,80,60
93960,note_on,40,0,5,,,,,,,,5,,,,62,45
93960,note_on,0,0,2,,,,,,,,2,,,,89,45
93960,note_on,20,0,2,,,,,,,,2,,,,80,45
93960,note_on,40,0,3,,,,,,,,3,,,,80,45
93960,note_on,40,0,9,,,,,,,,10,,,,77,45
93960,note_on,40,0,8,,,,,,,,8,,,,80,45
93990,note_on,0,0,5,,,,,,,,5,,,,63,45
93990,note_on,0,0,10,,,,,,,,11,,,,63,45
93990,note_off,30,0,10,,,,,,,,11,,,,62,64
93990,note_off,30,0,5,,,,,,,,5,,,,62,64
94000,note_off,40,0,1,,,,,,,,1,,,,89,64
94000,note_off,40,0,2,,,,,,,,2,,,,89,64
94000,note_off,0,0,2,,,,,,,,2,,,,80,64
94000,note_off,0,0,1,,,,,,,,1,,,,80,64
94020,note_off,30,0,10,,,,,,,,11,,,,63,64
94020,note_on,0,0,10,,,,,,,,11,,,,62,45
94020,note_on,0,0,1,,,,,,,,1,,,,89,60
94020,note_on,20,0,1,,,,,,,,1,,,,80,60
94020,note_off,30,0,5,,,,,,,,5,,,,63,64
94020,note_on,0,0,2,,,,,,,,2,,,,89,45
94020,note_on,20,0,2,,,,,,,,2,,,,80,45
94020,note_on,0,0,5,,,,,,,,5,,,,62,45
94040,note_off,80,0,9,,,,,,,,10,,,,77,64
94040,note_off,80,0,8,,,,,,,,8,,,,80,64
94040,note_off,80,0,3,,,,,,,,3,,,,80,64
94040,note_off,80,0,4,,,,,,,,4,,,,77,64
94050,note_on,0,0,10,,,,,,,,11,,,,63,45
94050,note_off,30,0,10,,,,,,,,11,,,,62,64
94050,note_off,30,0,5,,,,,,,,5,,,,62,64
94050,note_on,0,0,5,,,,,,,,5,,,,63,45
94060,note_off,0,0,1,,,,,,,,1,,,,80,64
94060,note_off,40,0,1,,,,,,,,1,,,,89,64
94060,note_off,0,0,2,,,,,,,,2,,,,80,64
94060,note_off,40,0,2,,,,,,,,2,,,,89,64
94080,note_on,40,0,3,,,,,,,,3,,,,80,45
94080,note_on,40,0,8,,,,,,,,8,,,,80,45
94080,note_on,40,0,9,,,,,,,,10,,,,77,45
94080,note_on,20,0,1,,,,,,,,1,,,,80,60
94080,note_on,0,0,1,,,,,,,,1,,,,89,60
94080,note_on,40,0,4,,,,,,,,4,,,,77,45
94080,note_on,20,0,2,,,,,,,,2,,,,80,45
94080,note_on,0,0,2,,,,,,,,2,,,,89,45
94080,note_off,30,0,10,,,,,,,,11,,,,63,64
94080,note_on,0,0,10,,,,,,,,11,,,,62,45
94080,note_off,30,0,5,,,,,,,,5,,,,63,64
94080,note_on,0,0,5,,,,,,,,5,,,,62,45
94120,note_off,0,0,2,,,,,,,,2,,,,80,64
94120,note_off,40,0,2,,,,,,,,2,,,,89,64
94120,note_off,0,0,1,,,,,,,,1,,,,80,64
94120,note_off,40,0,1,,,,,,,,1,,,,89,64
94140,note_on,0,0,2,,,,,,,,2,,,,89,45
94140,note_on,20,0,2,,,,,,,,2,,,,80,45
94140,note_on,0,0,1,,,,,,,,1,,,,89,60
94140,note_on,20,0,1,,,,,,,,1,,,,80,60
94160,note_off,80,0,9,,,,,,,,10,,,,77,64
94160,note_off,80,0,10,,,,,,,,11,,,,62,64
94160,note_off,80,0,3,,,,,,,,3,,,,80,64
94160,note_off,80,0,8,,,,,,,,8,,,,80,64
94160,note_off,80,0,4,,,,,,,,4,,,,77,64
94160,note_off,80,0,5,,,,,,,,5,,,,62,64
94180,note_off,0,0,2,,,,,,,,2,,,,80,64
94180,note_off,40,0,2,,,,,,,,2,,,,89,64
94180,note_off,40,0,1,,,,,,,,1,,,,89,64
94180,note_off,0,0,1,,,,,,,,1,,,,80,64
94200,note_on,40,0,9,,,,,,,,10,,,,77,45
94200,note_on,40,0,3,,,,,,,,3,,,,79,45
94200,note_on,20,0,1,,,,,,,,1,,,,79,60
94200,note_on,0,0,1,,,,,,,,1,,,,89,60
94200,note_on,40,0,5,,,,,,,,5,,,,63,45
94200,note_on,20,0,2,,,,,,,,2,,,,79,45
94200,note_on,40,0,8,,,,,,,,8,,,,79,45
94200,note_on,40,0,4,,,,,,,,4,,,,77,45
94200,note_on,40,0,10,,,,,,,,11,,,,63,45
94200,note_on,0,0,2,,,,,,,,2,,,,89,45
94230,note_off,30,0,10,,,,,,,,11,,,,63,64
94230,note_off,30,0,5,,,,,,,,5,,,,63,64
94230,note_on,0,0,10,,,,,,,,11,,,,65,45
94230,note_on,0,0,5,,,,,,,,5,,,,65,45
94240,note_off,0,0,2,,,,,,,,2,,,,79,64
94240,note_off,40,0,2,,,,,,,,2,,,,89,64
94240,note_off,0,0,1,,,,,,,,1,,,,79,64
94240,note_off,40,0,1,,,,,,,,1,,,,89,64
94260,note_on,0,0,2,,,,,,,,2,,,,89,45
94260,note_on,0,0,5,,,,,,,,5,,,,63,45
94260,note_on,20,0,2,,,,,,,,2,,,,79,45
94260,note_off,30,0,10,,,,,,,,11,,,,65,64
94260,note_on,0,0,10,,,,,,,,11,,,,63,45
94260,note_on,20,0,1,,,,,,,,1,,,,79,60
94260,note_off,30,0,5,,,,,,,,5,,,,65,64
94260,note_on,0,0,1,,,,,,,,1,,,,89,60
94280,note_off,80,0,8,,,,,,,,8,,,,79,64
94280,note_off,80,0,3,,,,,,,,3,,,,79,64
94280,note_off,80,0,9,,,,,,,,10,,,,77,64
94280,note_off,80,0,4,,,,,,,,4,,,,77,64
94290,note_on,0,0,10,,,,,,,,11,,,,65,45
94290,note_off,30,0,10,,,,,,,,11,,,,63,64
94290,note_on,0,0,5,,,,,,,,5,,,,65,45
94290,note_off,30,0,5,,,,,,,,5,,,,63,64
94300,note_off,40,0,2,,,,,,,,2,,,,89,64
94300,note_off,0,0,2,,,,,,,,2,,,,79,64
94300,note_off,0,0,1,,,,,,,,1,,,,79,64
94300,note_off,40,0,1,,,,,,,,1,,,,89,64
94320,note_off,30,0,10,,,,,,,,11,,,,65,64
94320,note_on,20,0,1,,,,,,,,1,,,,79,60
94320,note_on,0,0,1,,,,,,,,1,,,,89,60
94320,note_on,40,0,4,,,,,,,,4,,,,77,45
94320,note_on,0,0,10,,,,,,,,11,,,,63,45
94320,note_on,40,0,9,,,,,,,,10,,,,77,45
94320,note_off,30,0,5,,,,,,,,5,,,,65,64
94320,note_on,0,0,2,,,,,,,,2,,,,89,45
94320,note_on,20,0,2,,,,,,,,2,,,,79,45
94320,note_on,40,0,8,,,,,,,,8,,,,79,45
94320,note_on,40,0,3,,,,,,,,3,,,,79,45
94320,note_on,0,0,5,,,,,,,,5,,,,63,45
94360,note_off,40,0,2,,,,,,,,2,,,,89,64
94360,note_off,0,0,1,,,,,,,,1,,,,79,64
94360,note_off,0,0,2,,,,,,,,2,,,,79,64
94360,note_off,40,0,1,,,,,,,,1,,,,89,64
94380,note_on,0,0,1,,,,,,,,1,,,,89,60
94380,note_on,0,0,2,,,,,,,,2,,,,89,45
94380,note_on,20,0,1,,,,,,,,1,,,,79,60
94380,note_on,20,0,2,,,,,,,,2,,,,79,45
94400,note_off,80,0,10,,,,,,,,11,,,,63,64
94400,note_off,80,0,5,,,,,,,,5,,,,63,64
94400,note_off,80,0,8,,,,,,,,8,,,,79,64
94400,note_off,80,0,9,,,,,,,,10,,,,77,64
94400,note_off,80,0,4,,,,,,,,4,,,,77,64
94400,note_off,80,0,3,,,,,,,,3,,,,79,64
94420,note_off,0,0,2,,,,,,,,2,,,,79,64
94420,note_off,40,0,2,,,,,,,,2,,,,89,64
94420,note_off,40,0,1,,,,,,,,1,,,,89,64
94420,note_off,0,0,1,,,,,,,,1,,,,79,64
94440,note_on,40,0,10,,,,,,,,11,,,,63,45
94440,note_on,20,0,1,,,,,,,,1,,,,79,60
94440,note_on,0,0,1,,,,,,,,1,,,,89,60
94440,note_on,40,0,5,,,,,,,,5,,,,63,45
94440,note_on,40,0,8,,,,,,,,8,,,,79,45
94440,note_on,40,0,4,,,,,,,,4,,,,77,45
94440,note_on,40,0,9,,,,,,,,10,,,,77,45
94440,note_on,40,0,3,,,,,,,,3,,,,79,45
94440,note_on,20,0,2,,,,,,,,2,,,,79,45
94440,note_on,0,0,2,,,,,,,,2,,,,89,45
94470,note_off,30,0,10,,,,,,,,11,,,,63,64
94470,note_off,30,0,5,,,,,,,,5,,,,63,64
94470,note_on,0,0,5,,,,,,,,5,,,,65,45
94470,note_on,0,0,10,,,,,,,,11,,,,65,45
94480,note_off,0,0,2,,,,,,,,2,,,,79,64
94480,note_off,40,0,1,,,,,,,,1,,,,89,64
94480,note_off,0,0,1,,,,,,,,1,,,,79,64
94480,note_off,40,0,2,,,,,,,,2,,,,89,64
94500,note_on,0,0,2,,,,,,,,2,,,,89,45
94500,note_on,20,0,1,,,,,,,,1,,,,79,60
94500,note_on,0,0,1,,,,,,,,1,,,,89,60
94500,note_off,30,0,5,,,,,,,,5,,,,65,64
94500,note_off,30,0,10,,,,,,,,11,,,,65,64
94500,note_on,0,0,10,,,,,,,,11,,,,63,45
94500,note_on,20,0,2,,,,,,,,2,,,,79,45
94500,note_on,0,0,5,,,,,,,,5,,,,63,45
94520,note_off,80,0,9,,,,,,,,10,,,,77,64
94520,note_off,80,0,8,,,,,,,,8,,,,79,64
94520,note_off,80,0,4,,,,,,,,4,,,,77,64
94520,note_off,80,0,3,,,,,,,,3,,,,79,64
94530,note_off,30,0,10,,,,,,,,11,,,,63,64
94530,note_on,0,0,10,,,,,,,,11,,,,65,45
94530,note_off,30,0,5,,,,,,,,5,,,,63,64
94530,note_on,0,0,5,,,,,,,,5,,,,65,45
94540,note_off,0,0,2,,,,,,,,2,,,,79,64
94540,note_off,0,0,1,,,,,,,,1,,,,79,64
94540,note_off,40,0,1,,,,,,,,1,,,,89,64
94540,note_off,40,0,2,,,,,,,,2,,,,89,64
94560,note_on,0,0,2,,,,,,,,2,,,,89,45
94560,note_on,40,0,8,,,,,,,,8,,,,79,45
94560,note_on,20,0,2,,,,,,,,2,,,,79,45
94560,note_on,40,0,3,,,,,,,,3,,,,79,45
94560,note_on,40,0,4,,,,,,,,4,,,,77,45
94560,note_on,20,0,1,,,,,,,,1,,,,79,60
94560,note_on,0,0,1,,,,,,,,1,,,,89,60
94560,note_on,0,0,5,,,,,,,,5,,,,63,45
94560,note_on,0,0,10,,,,,,,,11,,,,63,45
94560,note_off,30,0,10,,,,,,,,11,,,,65,64
94560,note_on,40,0,9,,,,,,,,10,,,,77,45
94560,note_off,30,0,5,,,,,,,,5,,,,65,64
94600,note_off,0,0,2,,,,,,,,2,,,,79,64
94600,note_off,40,0,2,,,,,,,,2,,,,89,64
94600,note_off,40,0,1,,,,,,,,1,,,,89,64
94600,note_off,0,0,1,,,,,,,,1,,,,79,64
94620,note_on,0,0,1,,,,,,,,1,,,,89,60
94620,note_on,20,0,2,,,,,,,,2,,,,79,45
94620,note_on,0,0,2,,,,,,,,2,,,,89,45
94620,note_on,20,0,1,,,,,,,,1,,,,79,60
94640,note_off,80,0,10,,,,,,,,11,,,,63,64
94640,note_off,80,0,3,,,,,,,,3,,,,79,64
94640,note_off,80,0,5,,,,,,,,5,,,,63,64
94640,note_off,80,0,9,,,,,,,,10,,,,77,64
94640,note_off,80,0,4,,,,,,,,4,,,,77,64
94640,note_off,80,0,8,,,,,,,,8,,,,79,64
94660,note_off,0,0,2,,,,,,,,2,,,,79,64
94660,note_off,0,0,1,,,,,,,,1,,,,79,64
94660,note_off,40,0,2,,,,,,,,2,,,,89,64
94660,note_off,40,0,1,,,,,,,,1,,,,89,64
94680,note_on,20,0,1,,,,,,,,1,,,,79,60
94680,note_on,0,0,1,,,,,,,,1,,,,89,60
94680,note_on,40,0,8,,,,,,,,8,,,,79,45
94680,note_on,40,0,3,,,,,,,,3,,,,79,45
94680,note_on,20,0,2,,,,,,,,2,,,,79,45
94680,note_on,0,0,2,,,,,,,,2,,,,89,45
94680,note_on,40,0,4,,,,,,,,4,,,,77,45
94680,note_on,40,0,9,,,,,,,,10,,,,77,45
94680,note_on,40,0,5,,,,,,,,5,,,,63,45
94680,note_on,40,0,10,,,,,,,,11,,,,63,45
94710,note_off,30,0,10,,,,,,,,11,,,,63,64
94710,note_on,0,0,5,,,,,,,,5,,,,65,45
94710,note_on,0,0,10,,,,,,,,11,,,,65,45
94710,note_off,30,0,5,,,,,,,,5,,,,63,64
94720,note_off,0,0,1,,,,,,,,1,,,,79,64
94720,note_off,40,0,1,,,,,,,,1,,,,89,64
94720,note_off,0,0,2,,,,,,,,2,,,,79,64
94720,note_off,40,0,2,,,,,,,,2,,,,89,64
94740,note_off,30,0,10,,,,,,,,11,,,,65,64
94740,note_on,0,0,10,,,,,,,,11,,,,63,45
94740,note_on,0,0,5,,,,,,,,5,,,,63,45
94740,note_on,0,0,2,,,,,,,,2,,,,89,45
94740,note_on,20,0,2,,,,,,,,2,,,,79,45
94740,note_off,30,0,5,,,,,,,,5,,,,65,64
94740,note_on,0,0,1,,,,,,,,1,,,,89,60
94740,note_on,20,0,1,,,,,,,,1,,,,79,60
94760,note_off,80,0,9,,,,,,,,10,,,,77,64
94760,note_off,80,0,8,,,,,,,,8,,,,79,64
94760,note_off,80,0,3,,,,,,,,3,,,,79,64
94760,note_off,80,0,4,,,,,,,,4,,,,77,64
94770,note_on,0,0,5,,,,,,,,5,,,,65,45
94770,note_off,30,0,10,,,,,,,,11,,,,63,64
94770,note_on,0,0,10,,,,,,,,11,,,,65,45
94770,note_off,30,0,5,,,,,,,,5,,,,63,64
94780,note_off,40,0,1,,,,,,,,1,,,,89,64
94780,note_off,0,0,1,,,,,,,,1,,,,79,64
94780,note_off,0,0,2,,,,,,,,2,,,,79,64
94780,note_off,40,0,2,,,,,,,,2,,,,89,64
94800,note_off,30,0,10,,,,,,,,11,,,,65,64
94800,note_on,0,0,10,,,,,,,,11,,,,63,45
94800,note_on,20,0,1,,,,,,,,1,,,,79,60
94800,note_on,0,0,5,,,,,,,,5,,,,63,45
94800,note_off,30,0,5,,,,,,,,5,,,,65,64
94800,note_on,0,0,1,,,,,,,,1,,,,89,60
94800,note_on,40,0,3,,,,,,,,3,,,,79,45
94800,note_on,40,0,8,,,,,,,,8,,,,79,45
94800,note_on,40,0,9,,,,,,,,10,,,,77,45
94800,note_on,20,0,2,,,,,,,,2,,,,79,45
94800,note_on,0,0,2,,,,,,,,2,,,,89,45
94800,note_on,40,0,4,,,,,,,,4,,,,77,45
94840,note_off,40,0,2,,,,,,,,2,,,,89,64
94840,note_off,40,0,1,,,,,,,,1,,,,89,64
94840,note_off,0,0,2,,,,,,,,2,,,,79,64
94840,note_off,0,0,1,,,,,,,,1,,,,79,64
94860,note_on,0,0,2,,,,,,,,2,,,,89,45
94860,note_on,20,0,2,,,,,,,,2,,,,79,45
94860,note_on,20,0,1,,,,,,,,1,,,,79,60
94860,note_on,0,0,1,,,,,,,,1,,,,89,60
94880,note_off,80,0,3,,,,,,,,3,,,,79,64
94880,note_off,80,0,9,,,,,,,,10,,,,77,64
94880,note_off,80,0,4,,,,,,,,4,,,,77,64
94880,note_off,80,0,10,,,,,,,,11,,,,63,64
94880,note_off,80,0,5,,,,,,,,5,,,,63,64
94880,note_off,80,0,8,,,,,,,,8,,,,79,64
94900,note_off,0,0,1,,,,,,,,1,,,,79,64
94900,note_off,40,0,2,,,,,,,,2,,,,89,64
94900,note_off,0,0,2,,,,,,,,2,,,,79,64
94900,note_off,40,0,1,,,,,,,,1,,,,89,64
94920,note_on,0,0,2,,,,,,,,2,,,,89,45
94920,note_on,0,0,1,,,,,,,,1,,,,89,60
94920,note_on,40,0,10,,,,,,,,11,,,,63,45
94920,note_on,20,0,2,,,,,,,,2,,,,79,45
94920,note_on,20,0,1,,,,,,,,1,,,,79,60
94920,note_on,40,0,9,,,,,,,,10,,,,77,45
94920,note_on,40,0,8,,,,,,,,8,,,,79,45
94920,note_on,40,0,3,,,,,,,,3,,,,79,45
94920,note_on,40,0,4,,,,,,,,4,,,,77,45
94920,note_on,40,0,5,,,,,,,,5,,,,63,45
94950,note_on,0,0,5,,,,,,,,5,,,,65,45
94950,note_off,30,0,5,,,,,,,,5,,,,63,64
94950,note_off,30,0,10,,,,,,,,11,,,,63,64
94950,note_on,0,0,10,,,,,,,,11,,,,65,45
94960,note_off,40,0,1,,,,,,,,1,,,,89,64
94960,note_off,0,0,2,,,,,,,,2,,,,79,64
94960,note_off,40,0,2,,,,,,,,2,,,,89,64
94960,note_off,0,0,1,,,,,,,,1,,,,79,64
94980,note_on,20,0,1,,,,,,,,1,,,,79,60
94980,note_on,0,0,1,,,,,,,,1,,,,89,60
94980,note_on,0,0,5,,,,,,,,5,,,,63,45
94980,note_on,0,0,10,,,,,,,,11,,,,63,45
94980,note_on,20,0,2,,,,,,,,2,,,,79,45
94980,note_on,0,0,2,,,,,,,,2,,,,89,45
94980,note_off,30,0,5,,,,,,,,5,,,,65,64
94980,note_off,30,0,10,,,,,,,,11,,,,65,64
95000,note_off,80,0,9,,,,,,,,10,,,,77,64
95000,note_off,80,0,3,,,,,,,,3,,,,79,64
95000,note_off,80,0,4,,,,,,,,4,,,,77,64
95000,note_off,80,0,8,,,,,,,,8,,,,79,64
95010,note_off,30,0,10,,,,,,,,11,,,,63,64
95010,note_on,0,0,5,,,,,,,,5,,,,65,45
95010,note_off,30,0,5,,,,,,,,5,,,,63,64
95010,note_on,0,0,10,,,,,,,,11,,,,65,45
95020,note_off,0,0,2,,,,,,,,2,,,,79,64
95020,note_off,40,0,2,,,,,,,,2,,,,89,64
95020,note_off,40,0,1,,,,,,,,1,,,,89,64
95020,note_off,0,0,1,,,,,,,,1,,,,79,64
95040,note_on,20,0,1,,,,,,,,1,,,,79,60
95040,note_on,0,0,10,,,,,,,,11,,,,63,45
95040,note_on,40,0,3,,,,,,,,3,,,,79,45
95040,note_on,40,0,9,,,,,,,,10,,,,77,45
95040,note_on,0,0,1,,,,,,,,1,,,,89,60
95040,note_on,0,0,2,,,,,,,,2,,,,89,45
95040,note_on,40,0,4,,,,,,,,4,,,,77,45
95040,note_on,0,0,5,,,,,,,,5,,,,63,45
95040,note_off,30,0,5,,,,,,,,5,,,,65,64
95040,note_on,40,0,8,,,,,,,,8,,,,79,45
95040,note_off,30,0,10,,,,,,,,11,,,,65,64
95040,note_on,20,0,2,,,,,,,,2,,,,79,45
95080,note_off,40,0,2,,,,,,,,2,,,,89,64
95080,note_off,0,0,1,,,,,,,,1,,,,79,64
95080,note_off,40,0,1,,,,,,,,1,,,,89,64
95080,note_off,0,0,2,,,,,,,,2,,,,79,64
95100,note_on,20,0,2,,,,,,,,2,,,,79,45
95100,note_on,0,0,2,,,,,,,,2,,,,89,45
95100,note_on,0,0,1,,,,,,,,1,,,,89,60
95100,note_on,20,0,1,,,,,,,,1,,,,79,60
95120,note_off,80,0,3,,,,,,,,3,,,,79,64
95120,note_off,80,0,9,,,,,,,,10,,,,77,64
95120,note_off,80,0,4,,,,,,,,4,,,,77,64
95120,note_off,80,0,10,,,,,,,,11,,,,63,64
95120,note_off,80,0,8,,,,,,,,8,,,,79,64
95120,note_off,80,0,5,,,,,,,,5,,,,63,64
95140,note_off,0,0,1,,,,,,,,1,,,,79,64
95140,note_off,40,0,1,,,,,,,,1,,,,89,64
95140,note_off,40,0,2,,,,,,,,2,,,,89,64
95140,note_off,0,0,2,,,,,,,,2,,,,79,64
95160,note_on,20,0,1,,,,,,,,1,,,,84,60
95160,note_on,0,0,1,,,,,,,,1,,,,87,60
95160,note_on,40,0,4,,,,,,,,4,,,,75,45
95160,note_on,40,0,3,,,,,,,,3,,,,84,45
95160,note_on,40,0,9,,,,,,,,10,,,,75,45
95160,note_on,0,0,2,,,,,,,,2,,,,87,45
95160,note_on,20,0,2,,,,,,,,2,,,,84,45
95160,note_on,40,0,5,,,,,,,,5,,,,63,45
95160,note_on,40,0,10,,,,,,,,11,,,,63,45
95160,note_on,40,0,8,,,,,,,,8,,,,84,45
95190,note_on,0,0,5,,,,,,,,5,,,,65,45
95190,note_off,30,0,5,,,,,,,,5,,,,63,64
95190,note_on,0,0,10,,,,,,,,11,,,,65,45
95190,note_off,30,0,10,,,,,,,,11,,,,63,64
95200,note_off,0,0,2,,,,,,,,2,,,,84,64
95200,note_off,0,0,1,,,,,,,,1,,,,84,64
95200,note_off,40,0,1,,,,,,,,1,,,,87,64
95200,note_off,40,0,2,,,,,,,,2,,,,87,64
95220,note_on,20,0,2,,,,,,,,2,,,,84,45
95220,note_on,0,0,2,,,,,,,,2,,,,87,45
95220,note_on,20,0,1,,,,,,,,1,,,,84,60
95220,note_on,0,0,1,,,,,,,,1,,,,87,60
95220,note_off,30,0,5,,,,,,,,5,,,,65,64
95220,note_on,0,0,5,,,,,,,,5,,,,63,45
95220,note_off,30,0,10,,,,,,,,11,,,,65,64
95220,note_on,0,0,10,,,,,,,,11,,,,63,45
95240,note_off,80,0,8,,,,,,,,8,,,,84,64
95240,note_off,80,0,4,,,,,,,,4,,,,75,64
95240,note_off,80,0,3,,,,,,,,3,,,,84,64
95240,note_off,80,0,9,,,,,,,,10,,,,75,64
95250,note_off,30,0,5,,,,,,,,5,,,,63,64
95250,note_on,0,0,5,,,,,,,,5,,,,65,45
95250,note_off,30,0,10,,,,,,,,11,,,,63,64
95250,note_on,0,0,10,,,,,,,,11,,,,65,45
95260,note_off,40,0,2,,,,,,,,2,,,,87,64
95260,note_off,0,0,2,,,,,,,,2,,,,84,64
95260,note_off,0,0,1,,,,,,,,1,,,,84,64
95260,note_off,40,0,1,,,,,,,,1,,,,87,64
95280,note_off,30,0,10,,,,,,,,11,,,,65,64
95280,note_on,0,0,10,,,,,,,,11,,,,63,45
95280,note_on,40,0,9,,,,,,,,10,,,,75,45
95280,note_on,40,0,4,,,,,,,,4,,,,75,45
95280,note_on,40,0,8,,,,,,,,8,,,,84,45
95280,note_on,0,0,2,,,,,,,,2,,,,87,45
95280,note_on,20,0,2,,,,,,,,2,,,,84,45
95280,note_off,30,0,5,,,,,,,,5,,,,65,64
95280,note_on,40,0,3,,,,,,,,3,,,,84,45
95280,note_on,0,0,5,,,,,,,,5,,,,63,45
95280,note_on,20,0,1,,,,,,,,1,,,,84,60
95280,note_on,0,0,1,,,,,,,,1,,,,87,60
95320,note_off,0,0,1,,,,,,,,1,,,,84,64
95320,note_off,40,0,1,,,,,,,,1,,,,87,64
95320,note_off,40,0,2,,,,,,,,2,,,,87,64
95320,note_off,0,0,2,,,,,,,,2,,,,84,64
95340,note_on,0,0,1,,,,,,,,1,,,,87,60
95340,note_on,0,0,2,,,,,,,,2,,,,87,45
95340,note_on,20,0,1,,,,,,,,1,,,,84,60
95340,note_on,20,0,2,,,,,,,,2,,,,84,45
95360,note_off,80,0,4,,,,,,,,4,,,,75,64
95360,note_off,80,0,10,,,,,,,,11,,,,63,64
95360,note_off,80,0,8,,,,,,,,8,,,,84,64
95360,note_off,80,0,3,,,,,,,,3,,,,84,64
95360,note_off,80,0,9,,,,,,,,10,,,,75,64
95360,note_off,80,0,5,,,,,,,,5,,,,63,64
95380,note_off,40,0,2,,,,,,,,2,,,,87,64
95380,note_off,0,0,2,,,,,,,,2,,,,84,64
95380,note_off,40,0,1,,,,,,,,1,,,,87,64
95380,note_off,0,0,1,,,,,,,,1,,,,84,64
95400,note_on,40,0,8,,,,,,,,8,,,,84,45
95400,note_on,40,0,3,,,,,,,,3,,,,84,45
95400,note_on,20,0,1,,,,,,,,1,,,,84,60
95400,note_on,0,0,1,,,,,,,,1,,,,87,60
95400,note_on,0,0,2,,,,,,,,2,,,,87,45
95400,note_on,40,0,10,,,,,,,,11,,,,63,45
95400,note_on,40,0,4,,,,,,,,4,,,,75,45
95400,note_on,40,0,9,,,,,,,,10,,,,75,45
95400,note_on,20,0,2,,,,,,,,2,,,,84,45
95400,note_on,40,0,5,,,,,,,,5,,,,63,45
95430,note_off,30,0,5,,,,,,,,5,,,,63,64
95430,note_on,0,0,10,,,,,,,,11,,,,65,45
95430,note_on,0,0,5,,,,,,,,5,,,,65,45
95430,note_off,30,0,10,,,,,,,,11,,,,63,64
95440,note_off,40,0,1,,,,,,,,1,,,,87,64
95440,note_off,0,0,1,,,,,,,,1,,,,84,64
95440,note_off,40,0,2,,,,,,,,2,,,,87,64
95440,note_off,0,0,2,,,,,,,,2,,,,84,64
95460,note_off,30,0,10,,,,,,,,11,,,,65,64
95460,note_on,0,0,1,,,,,,,,1,,,,87,60
95460,note_on,0,0,10,,,,,,,,11,,,,63,45
95460,note_on,20,0,2,,,,,,,,2,,,,84,45
95460,note_on,0,0,2,,,,,,,,2,,,,87,45
95460,note_on,0,0,5,,,,,,,,5,,,,63,45
95460,note_off,30,0,5,,,,,,,,5,,,,65,64
95460,note_on,20,0,1,,,,,,,,1,,,,84,60
95480,note_off,80,0,4,,,,,,,,4,,,,75,64
95480,note_off,80,0,9,,,,,,,,10,,,,75,64
95480,note_off,80,0,8,,,,,,,,8,,,,84,64
95480,note_off,80,0,3,,,,,,,,3,,,,84,64
95490,note_off,30,0,10,,,,,,,,11,,,,63,64
95490,note_on,0,0,10,,,,,,,,11,,,,65,45
95490,note_off,30,0,5,,,,,,,,5,,,,63,64
95490,note_on,0,0,5,,,,,,,,5,,,,65,45
95500,note_off,0,0,1,,,,,,,,1,,,,84,64
95500,note_off,40,0,1,,,,,,,,1,,,,87,64
95500,note_off,40,0,2,,,,,,,,2,,,,87,64
95500,note_off,0,0,2,,,,,,,,2,,,,84,64
95520,note_on,40,0,4,,,,,,,,4,,,,75,45
95520,note_on,40,0,8,,,,,,,,8,,,,84,45
95520,note_on,0,0,2,,,,,,,,2,,,,87,45
95520,note_on,0,0,1,,,,,,,,1,,,,87,60
95520,note_on,20,0,2,,,,,,,,2,,,,84,45
95520,note_off,30,0,5,,,,,,,,5,,,,65,64
95520,note_on,0,0,5,,,,,,,,5,,,,63,45
95520,note_off,30,0,10,,,,,,,,11,,,,65,64
95520,note_on,0,0,10,,,,,,,,11,,,,63,45
95520,note_on,40,0,9,,,,,,,,10,,,,75,45
95520,note_on,20,0,1,,,,,,,,1,,,,84,60
95520,note_on,40,0,3,,,,,,,,3,,,,84,45
95560,note_off,40,0,1,,,,,,,,1,,,,87,64
95560,note_off,0,0,1,,,,,,,,1,,,,84,64
95560,note_off,40,0,2,,,,,,,,2,,,,87,64
95560,note_off,0,0,2,,,,,,,,2,,,,84,64
95580,note_on,20,0,1,,,,,,,,1,,,,84,60
95580,note_on,0,0,1,,,,,,,,1,,,,87,60
95580,note_on,20,0,2,,,,,,,,2,,,,84,45
95580,note_on,0,0,2,,,,,,,,2,,,,87,45
95600,note_off,80,0,3,,,,,,,,3,,,,84,64
95600,note_off,80,0,4,,,,,,,,4,,,,75,64
95600,note_off,80,0,5,,,,,,,,5,,,,63,64
95600,note_off,80,0,9,,,,,,,,10,,,,75,64
95600,note_off,80,0,10,,,,,,,,11,,,,63,64
95600,note_off,80,0,8,,,,,,,,8,,,,84,64
95620,note_off,0,0,1,,,,,,,,1,,,,84,64
95620,note_off,40,0,2,,,,,,,,2,,,,87,64
95620,note_off,0,0,2,,,,,,,,2,,,,84,64
95620,note_off,40,0,1,,,,,,,,1,,,,87,64
95640,note_on,20,0,2,,,,,,,,2,,,,84,45
95640,note_on,0,0,2,,,,,,,,2,,,,87,45
95640,note_on,40,0,10,,,,,,,,11,,,,63,45
95640,note_on,20,0,1,,,,,,,,1,,,,84,60
95640,note_on,40,0,9,,,,,,,,10,,,,75,45
95640,note_on,40,0,4,,,,,,,,4,,,,75,45
95640,note_on,40,0,5,,,,,,,,5,,,,63,45
95640,note_on,40,0,8,,,,,,,,8,,,,84,45
95640,note_on,0,0,1,,,,,,,,1,,,,87,60
95640,note_on,40,0,3,,,,,,,,3,,,,84,45
95670,note_off,30,0,10,,,,,,,,11,,,,63,64
95670,note_on,0,0,10,,,,,,,,11,,,,65,45
95670,note_off,30,0,5,,,,,,,,5,,,,63,64
95670,note_on,0,0,5,,,,,,,,5,,,,65,45
95680,note_off,40,0,2,,,,,,,,2,,,,87,64
95680,note_off,40,0,1,,,,,,,,1,,,,87,64
95680,note_off,0,0,2,,,,,,,,2,,,,84,64
95680,note_off,0,0,1,,,,,,,,1,,,,84,64
95700,note_on,20,0,2,,,,,,,,2,,,,84,45
95700,note_on,0,0,2,,,,,,,,2,,,,87,45
95700,note_on,0,0,5,,,,,,,,5,,,,63,45
95700,note_off,30,0,5,,,,,,,,5,,,,65,64
95700,note_on,0,0,10,,,,,,,,11,,,,63,45
95700,note_off,30,0,10,,,,,,,,11,,,,65,64
95700,note_on,20,0,1,,,,,,,,1,,,,84,60
95700,note_on,0,0,1,,,,,,,,1,,,,87,60
95720,note_off,80,0,9,,,,,,,,10,,,,75,64
95720,note_off,80,0,8,,,,,,,,8,,,,84,64
95720,note_off,80,0,4,,,,,,,,4,,,,75,64
95720,note_off,80,0,3,,,,,,,,3,,,,84,64
95730,note_off,30,0,10,,,,,,,,11,,,,63,64
95730,note_on,0,0,10,,,,,,,,11,,,,65,45
95730,note_on,0,0,5,,,,,,,,5,,,,65,45
95730,note_off,30,0,5,,,,,,,,5,,,,63,64
95740,note_off,0,0,1,,,,,,,,1,,,,84,64
95740,note_off,40,0,2,,,,,,,,2,,,,87,64
95740,note_off,0,0,2,,,,,,,,2,,,,84,64
95740,note_off,40,0,1,,,,,,,,1,,,,87,64
95760,note_on,0,0,10,,,,,,,,11,,,,63,45
95760,note_on,20,0,2,,,,,,,,2,,,,84,45
95760,note_on,0,0,1,,,,,,,,1,,,,87,60
95760,note_off,30,0,10,,,,,,,,11,,,,65,64
95760,note_off,30,0,5,,,,,,,,5,,,,65,64
95760,note_on,0,0,5,,,,,,,,5,,,,63,45
95760,note_on,20,0,1,,,,,,,,1,,,,84,60
95760,note_on,0,0,2,,,,,,,,2,,,,87,45
95760,note_on,40,0,4,,,,,,,,4,,,,75,45
95760,note_on,40,0,3,,,,,,,,3,,,,84,45
95760,note_on,40,0,9,,,,,,,,10,,,,75,45
95760,note_on,40,0,8,,,,,,,,8,,,,84,45
95800,note_off,40,0,1,,,,,,,,1,,,,87,64
95800,note_off,0,0,1,,,,,,,,1,,,,84,64
95800,note_off,40,0,2,,,,,,,,2,,,,87,64
95800,note_off,0,0,2,,,,,,,,2,,,,84,64
95820,note_on,20,0,1,,,,,,,,1,,,,84,60
95820,note_on,0,0,1,,,,,,,,1,,,,87,60
95820,note_on,20,0,2,,,,,,,,2,,,,84,45
95820,note_on,0,0,2,,,,,,,,2,,,,87,45
95840,note_off,80,0,3,,,,,,,,3,,,,84,64
95840,note_off,80,0,10,,,,,,,,11,,,,63,64
95840,note_off,80,0,4,,,,,,,,4,,,,75,64
95840,note_off,80,0,9,,,,,,,,10,,,,75,64
95840,note_off,80,0,8,,,,,,,,8,,,,84,64
95840,note_off,80,0,5,,,,,,,,5,,,,63,64
95860,note_off,40,0,1,,,,,,,,1,,,,87,64
95860,note_off,0,0,2,,,,,,,,2,,,,84,64
95860,note_off,40,0,2,,,,,,,,2,,,,87,64
95860,note_off,0,0,1,,,,,,,,1,,,,84,64
95880,note_on,40,0,4,,,,,,,,4,,,,75,45
95880,note_on,0,0,2,,,,,,,,2,,,,87,45
95880,note_on,20,0,1,,,,,,,,1,,,,84,60
95880,note_on,40,0,9,,,,,,,,10,,,,75,45
95880,note_on,40,0,8,,,,,,,,8,,,,84,45
95880,note_on,40,0,5,,,,,,,,5,,,,63,45
95880,note_on,20,0,2,,,,,,,,2,,,,84,45
95880,note_on,40,0,3,,,,,,,,3,,,,84,45
95880,note_on,40,0,10,,,,,,,,11,,,,63,45
95880,note_on,0,0,1,,,,,,,,1,,,,87,60
95910,note_off,30,0,5,,,,,,,,5,,,,63,64
95910,note_on,0,0,5,,,,,,,,5,,,,65,45
95910,note_off,30,0,10,,,,,,,,11,,,,63,64
95910,note_on,0,0,10,,,,,,,,11,,,,65,45
95920,note_off,40,0,1,,,,,,,,1,,,,87,64
95920,note_off,40,0,2,,,,,,,,2,,,,87,64
95920,note_off,0,0,1,,,,,,,,1,,,,84,64
95920,note_off,0,0,2,,,,,,,,2,,,,84,64
95940,note_on,0,0,1,,,,,,,,1,,,,87,60
95940,note_on,0,0,5,,,,,,,,5,,,,63,45
95940,note_off,30,0,5,,,,,,,,5,,,,65,64
95940,note_on,0,0,2,,,,,,,,2,,,,87,45
95940,note_off,30,0,10,,,,,,,,11,,,,65,64
95940,note_on,0,0,10,,,,,,,,11,,,,63,45
95940,note_on,20,0,2,,,,,,,,2,,,,84,45
95940,note_on,20,0,1,,,,,,,,1,,,,84,60
95960,note_off,80,0,8,,,,,,,,8,,,,84,64
95960,note_off,80,0,4,,,,,,,,4,,,,75,64
95960,note_off,80,0,9,,,,,,,,10,,,,75,64
95960,note_off,80,0,3,,,,,,,,3,,,,84,64
95970,note_off,30,0,5,,,,,,,,5,,,,63,64
95970,note_on,0,0,10,,,,,,,,11,,,,65,45
95970,note_off,30,0,10,,,,,,,,11,,,,63,64
95970,note_on,0,0,5,,,,,,,,5,,,,65,45
95980,note_off,0,0,1,,,,,,,,1,,,,84,64
95980,note_off,0,0,2,,,,,,,,2,,,,84,64
95980,note_off,40,0,2,,,,,,,,2,,,,87,64
95980,note_off,40,0,1,,,,,,,,1,,,,87,64
96000,note_on,20,0,1,,,,,,,,1,,,,84,60
96000,note_on,0,0,1,,,,,,,,1,,,,87,60
96000,note_off,30,0,5,,,,,,,,5,,,,65,64
96000,note_on,0,0,5,,,,,,,,5,,,,65,45
96000,note_on,40,0,9,,,,,,,,10,,,,75,45
96000,note_on,40,0,3,,,,,,,,3,,,,84,45
96000,note_on,40,0,4,,,,,,,,4,,,,75,45
96000,note_on,0,0,10,,,,,,,,11,,,,63,45
96000,note_on,40,0,8,,,,,,,,8,,,,84,45
96000,note_off,30,0,10,,,,,,,,11,,,,65,64
96000,note_on,20,0,2,,,,,,,,2,,,,84,45
96000,note_on,0,0,2,,,,,,,,2,,,,87,45
96040,note_off,40,0,1,,,,,,,,1,,,,87,64
96040,note_off,40,0,2,,,,,,,,2,,,,87,64
96040,note_off,0,0,1,,,,,,,,1,,,,84,64
96040,note_off,0,0,2,,,,,,,,2,,,,84,64
96060,note_on,0,0,2,,,,,,,,2,,,,87,45
96060,note_on,0,0,1,,,,,,,,1,,,,87,60
96060,note_on,20,0,1,,,,,,,,1,,,,84,60
96060,note_on,20,0,2,,,,,,,,2,,,,84,45
96080,note_off,80,0,8,,,,,,,,8,,,,84,64
96080,note_off,80,0,9,,,,,,,,10,,,,75,64
96080,note_off,80,0,3,,,,,,,,3,,,,84,64
96080,note_off,80,0,10,,,,,,,,11,,,,63,64
96080,note_off,80,0,4,,,,,,,,4,,,,75,64
96080,note_off,80,0,5,,,,,,,,5,,,,65,64
96100,note_off,0,0,1,,,,,,,,1,,,,84,64
96100,note_off,40,0,1,,,,,,,,1,,,,87,64
96100,note_off,0,0,2,,,,,,,,2,,,,84,64
96100,note_off,40,0,2,,,,,,,,2,,,,87,64
96120,note_on,40,0,9,,,,,,,,10,,,,73,45
96120,note_on,0,0,2,,,,,,,,2,,,,85,45
96120,note_on,20,0,2,,,,,,,,2,,,,84,45
96120,note_on,40,0,4,,,,,,,,4,,,,73,45
96120,note_on,40,0,3,,,,,,,,3,,,,84,45
96120,note_on,40,0,10,,,,,,,,11,,,,65,45
96120,note_on,40,0,5,,,,,,,,5,,,,65,45
96120,note_on,40,0,8,,,,,,,,8,,,,84,45
96120,note_on,20,0,1,,,,,,,,1,,,,84,60
96120,note_on,0,0,1,,,,,,,,1,,,,85,60
96150,note_on,0,0,10,,,,,,,,11,,,,67,45
96150,note_off,30,0,10,,,,,,,,11,,,,65,64
96150,note_off,30,0,5,,,,,,,,5,,,,65,64
96150,note_on,0,0,5,,,,,,,,5,,,,67,45
96160,note_off,0,0,2,,,,,,,,2,,,,84,64
96160,note_off,0,0,1,,,,,,,,1,,,,84,64
96160,note_off,40,0,1,,,,,,,,1,,,,85,64
96160,note_off,40,0,2,,,,,,,,2,,,,85,64
96180,note_on,0,0,5,,,,,,,,5,,,,65,45
96180,note_on,0,0,2,,,,,,,,2,,,,85,45
96180,note_on,0,0,1,,,,,,,,1,,,,85,60
96180,note_on,20,0,2,,,,,,,,2,,,,84,45
96180,note_off,30,0,10,,,,,,,,11,,,,67,64
96180,note_on,0,0,10,,,,,,,,11,,,,65,45
96180,note_on,20,0,1,,,,,,,,1,,,,84,60
96180,note_off,30,0,5,,,,,,,,5,,,,67,64
96200,note_off,80,0,9,,,,,,,,10,,,,73,64
96200,note_off,80,0,3,,,,,,,,3,,,,84,64
96200,note_off,80,0,4,,,,,,,,4,,,,73,64
96200,note_off,80,0,8,,,,,,,,8,,,,84,64
96210,note_on,0,0,5,,,,,,,,5,,,,67,45
96210,note_off,30,0,5,,,,,,,,5,,,,65,64
96210,note_on,0,0,10,,,,,,,,11,,,,67,45
96210,note_off,30,0,10,,,,,,,,11,,,,65,64
96220,note_off,0,0,1,,,,,,,,1,,,,84,64
96220,note_off,40,0,1,,,,,,,,1,,,,85,64
96220,note_off,0,0,2,,,,,,,,2,,,,84,64
96220,note_off,40,0,2,,,,,,,,2,,,,85,64
96240,note_on,20,0,2,,,,,,,,2,,,,84,45
96240,note_on,0,0,2,,,,,,,,2,,,,85,45
96240,note_on,40,0,4,,,,,,,,4,,,,73,45
96240,note_on,0,0,10,,,,,,,,11,,,,65,45
96240,note_on,40,0,3,,,,,,,,3,,,,84,45
96240,note_off,30,0,5,,,,,,,,5,,,,67,64
96240,note_on,20,0,1,,,,,,,,1,,,,84,60
96240,note_on,0,0,1,,,,,,,,1,,,,85,60
96240,note_on,40,0,8,,,,,,,,8,,,,84,45
96240,note_on,40,0,9,,,,,,,,10,,,,73,45
96240,note_on,0,0,5,,,,,,,,5,,,,65,45
96240,note_off,30,0,10,,,,,,,,11,,,,67,64
96280,note_off,0,0,2,,,,,,,,2,,,,84,64
96280,note_off,0,0,1,,,,,,,,1,,,,84,64
96280,note_off,40,0,1,,,,,,,,1,,,,85,64
96280,note_off,40,0,2,,,,,,,,2,,,,85,64
96300,note_on,0,0,2,,,,,,,,2,,,,85,45
96300,note_on,20,0,2,,,,,,,,2,,,,84,45
96300,note_on,0,0,1,,,,,,,,1,,,,85,60
96300,note_on,20,0,1,,,,,,,,1,,,,84,60
96320,note_off,80,0,3,,,,,,,,3,,,,84,64
96320,note_off,80,0,4,,,,,,,,4,,,,73,64
96320,note_off,80,0,10,,,,,,,,11,,,,65,64
96320,note_off,80,0,5,,,,,,,,5,,,,65,64
96320,note_off,80,0,8,,,,,,,,8,,,,84,64
96320,note_off,80,0,9,,,,,,,,10,,,,73,64
96340,note_off,0,0,2,,,,,,,,2,,,,84,64
96340,note_off,40,0,2,,,,,,,,2,,,,85,64
96340,note_off,40,0,1,,,,,,,,1,,,,85,64
96340,note_off,0,0,1,,,,,,,,1,,,,84,64
96360,note_on,40,0,4,,,,,,,,4,,,,73,45
96360,note_on,40,0,3,,,,,,,,3,,,,84,45
96360,note_on,40,0,8,,,,,,,,8,,,,84,45
96360,note_on,0,0,1,,,,,,,,1,,,,85,60
96360,note_on,40,0,5,,,,,,,,5,,,,65,45
96360,note_on,20,0,2,,,,,,,,2,,,,84,45
96360,note_on,40,0,9,,,,,,,,10,,,,73,45
96360,note_on,20,0,1,,,,,,,,1,,,,84,60
96360,note_on,40,0,10,,,,,,,,11,,,,65,45
96360,note_on,0,0,2,,,,,,,,2,,,,85,45
96390,note_on,0,0,10,,,,,,,,11,,,,67,45
96390,note_off,30,0,10,,,,,,,,11,,,,65,64
96390,note_on,0,0,5,,,,,,,,5,,,,67,45
96390,note_off,30,0,5,,,,,,,,5,,,,65,64
96400,note_off,40,0,2,,,,,,,,2,,,,85,64
96400,note_off,40,0,1,,,,,,,,1,,,,85,64
96400,note_off,0,0,1,,,,,,,,1,,,,84,64
96400,note_off,0,0,2,,,,,,,,2,,,,84,64
96420,note_on,0,0,2,,,,,,,,2,,,,85,45
96420,note_on,20,0,1,,,,,,,,1,,,,84,60
96420,note_on,0,0,1,,,,,,,,1,,,,85,60
96420,note_on,0,0,5,,,,,,,,5,,,,65,45
96420,note_off,30,0,5,,,,,,,,5,,,,67,64
96420,note_on,20,0,2,,,,,,,,2,,,,84,45
96420,note_on,0,0,10,,,,,,,,11,,,,65,45
96420,note_off,30,0,10,,,,,,,,11,,,,67,64
96440,note_off,80,0,3,,,,,,,,3,,,,84,64
96440,note_off,80,0,8,,,,,,,,8,,,,84,64
96440,note_off,80,0,4,,,,,,,,4,,,,73,64
96440,note_off,80,0,9,,,,,,,,10,,,,73,64
96450,note_off,30,0,5,,,,,,,,5,,,,65,64
96450,note_on,0,0,5,,,,,,,,5,,,,67,45
96450,note_on,0,0,10,,,,,,,,11,,,,67,45
96450,note_off,30,0,10,,,,,,,,11,,,,65,64
96460,note_off,0,0,2,,,,,,,,2,,,,84,64
96460,note_off,40,0,2,,,,,,,,2,,,,85,64
96460,note_off,40,0,1,,,,,,,,1,,,,85,64
96460,note_off,0,0,1,,,,,,,,1,,,,84,64
96480,note_off,30,0,5,,,,,,,,5,,,,67,64
96480,note_on,20,0,1,,,,,,,,1,,,,84,60
96480,note_on,0,0,5,,,,,,,,5,,,,65,45
96480,note_on,20,0,2,,,,,,,,2,,,,84,45
96480,note_on,0,0,2,,,,,,,,2,,,,85,45
96480,note_on,0,0,1,,,,,,,,1,,,,85,60
96480,note_on,40,0,8,,,,,,,,8,,,,84,45
96480,note_on,40,0,9,,,,,,,,10,,,,73,45
96480,note_off,30,0,10,,,,,,,,11,,,,67,64
96480,note_on,0,0,10,,,,,,,,11,,,,65,45
96480,note_on,40,0,4,,,,,,,,4,,,,73,45
96480,note_on,40,0,3,,,,,,,,3,,,,84,45
96520,note_off,0,0,2,,,,,,,,2,,,,84,64
96520,note_off,40,0,2,,,,,,,,2,,,,85,64
96520,note_off,0,0,1,,,,,,,,1,,,,84,64
96520,note_off,40,0,1,,,,,,,,1,,,,85,64
96540,note_on,0,0,1,,,,,,,,1,,,,85,60
96540,note_on,20,0,2,,,,,,,,2,,,,84,45
96540,note_on,20,0,1,,,,,,,,1,,,,84,60
96540,note_on,0,0,2,,,,,,,,2,,,,85,45
96560,note_off,80,0,5,,,,,,,,5,,,,65,64
96560,note_off,80,0,4,,,,,,,,4,,,,73,64
96560,note_off,80,0,8,,,,,,,,8,,,,84,64
96560,note_off,80,0,10,,,,,,,,11,,,,65,64
96560,note_off,80,0,9,,,,,,,,10,,,,73,64
96560,note_off,80,0,3,,,,,,,,3,,,,84,64
96580,note_off,40,0,2,,,,,,,,2,,,,85,64
96580,note_off,0,0,2,,,,,,,,2,,,,84,64
96580,note_off,0,0,1,,,,,,,,1,,,,84,64
96580,note_off,40,0,1,,,,,,,,1,,,,85,64
96600,note_on,40,0,9,,,,,,,,10,,,,73,45
96600,note_on,40,0,10,,,,,,,,11,,,,67,45
96600,note_on,40,0,4,,,,,,,,4,,,,73,45
96600,note_on,0,0,1,,,,,,,,1,,,,85,60
96600,note_on,20,0,1,,,,,,,,1,,,,82,60
96600,note_on,40,0,8,,,,,,,,8,,,,82,45
96600,note_on,20,0,2,,,,,,,,2,,,,82,45
96600,note_on,40,0,3,,,,,,,,3,,,,82,45
96600,note_on,0,0,2,,,,,,,,2,,,,85,45
96600,note_on,40,0,5,,,,,,,,5,,,,67,45
96630,note_off,30,0,5,,,,,,,,5,,,,67,64
96630,note_off,30,0,10,,,,,,,,11,,,,67,64
96630,note_on,0,0,5,,,,,,,,5,,,,68,45
96630,note_on,0,0,10,,,,,,,,11,,,,68,45
96640,note_off,40,0,1,,,,,,,,1,,,,85,64
96640,note_off,0,0,1,,,,,,,,1,,,,82,64
96640,note_off,40,0,2,,,,,,,,2,,,,85,64
96640,note_off,0,0,2,,,,,,,,2,,,,82,64
96660,note_off,30,0,5,,,,,,,,5,,,,68,64
96660,note_on,20,0,1,,,,,,,,1,,,,82,60
96660,note_on,20,0,2,,,,,,,,2,,,,82,45
96660,note_on,0,0,5,,,,,,,,5,,,,67,45
96660,note_on,0,0,1,,,,,,,,1,,,,85,60
96660,note_off,30,0,10,,,,,,,,11,,,,68,64
96660,note_on,0,0,2,,,,,,,,2,,,,85,45
96660,note_on,0,0,10,,,,,,,,11,,,,67,45
96680,note_off,80,0,9,,,,,,,,10,,,,73,64
96680,note_off,80,0,3,,,,,,,,3,,,,82,64
96680,note_off,80,0,8,,,,,,,,8,,,,82,64
96680,note_off,80,0,4,,,,,,,,4,,,,73,64
96690,note_on,0,0,10,,,,,,,,11,,,,68,45
96690,note_off,30,0,10,,,,,,,,11,,,,67,64
96690,note_on,0,0,5,,,,,,,,5,,,,68,45
96690,note_off,30,0,5,,,,,,,,5,,,,67,64
96700,note_off,0,0,2,,,,,,,,2,,,,82,64
96700,note_off,0,0,1,,,,,,,,1,,,,82,64
96700,note_off,40,0,2,,,,,,,,2,,,,85,64
96700,note_off,40,0,1,,,,,,,,1,,,,85,64
96720,note_on,0,0,2,,,,,,,,2,,,,85,45
96720,note_on,0,0,1,,,,,,,,1,,,,85,60
96720,note_on,20,0,1,,,,,,,,1,,,,82,60
96720,note_on,40,0,8,,,,,,,,8,,,,82,45
96720,note_on,0,0,5,,,,,,,,5,,,,67,45
96720,note_off,30,0,5,,,,,,,,5,,,,68,64
96720,note_on,40,0,4,,,,,,,,4,,,,73,45
96720,note_on,40,0,3,,,,,,,,3,,,,82,45
96720,note_off,30,0,10,,,,,,,,11,,,,68,64
96720,note_on,0,0,10,,,,,,,,11,,,,67,45
96720,note_on,20,0,2,,,,,,,,2,,,,82,45
96720,note_on,40,0,9,,,,,,,,10,,,,73,45
96760,note_off,0,0,1,,,,,,,,1,,,,82,64
96760,note_off,40,0,2,,,,,,,,2,,,,85,64
96760,note_off,0,0,2,,,,,,,,2,,,,82,64
96760,note_off,40,0,1,,,,,,,,1,,,,85,64
96780,note_on,0,0,2,,,,,,,,2,,,,85,45
96780,note_on,20,0,2,,,,,,,,2,,,,82,45
96780,note_on,20,0,1,,,,,,,,1,,,,82,60
96780,note_on,0,0,1,,,,,,,,1,,,,85,60
96800,note_off,80,0,8,,,,,,,,8,,,,82,64
96800,note_off,80,0,10,,,,,,,,11,,,,67,64
96800,note_off,80,0,3,,,,,,,,3,,,,82,64
96800,note_off,80,0,5,,,,,,,,5,,,,67,64
96800,note_off,80,0,9,,,,,,,,10,,,,73,64
96800,note_off,80,0,4,,,,,,,,4,,,,73,64
96820,note_off,0,0,2,,,,,,,,2,,,,82,64
96820,note_off,0,0,1,,,,,,,,1,,,,82,64
96820,note_off,40,0,1,,,,,,,,1,,,,85,64
96820,note_off,40,0,2,,,,,,,,2,,,,85,64
96840,note_on,40,0,5,,,,,,,,5,,,,67,45
96840,note_on,0,0,2,,,,,,,,2,,,,85,45
96840,note_on,20,0,2,,,,,,,,2,,,,82,45
96840,note_on,20,0,1,,,,,,,,1,,,,82,60
96840,note_on,0,0,1,,,,,,,,1,,,,85,60
96840,note_on,40,0,9,,,,,,,,10,,,,73,45
96840,note_on,40,0,3,,,,,,,,3,,,,82,45
96840,note_on,40,0,10,,,,,,,,11,,,,67,45
96840,note_on,40,0,8,,,,,,,,8,,,,82,45
96840,note_on,40,0,4,,,,,,,,4,,,,73,45
96870,note_off,30,0,10,,,,,,,,11,,,,67,64
96870,note_off,30,0,5,,,,,,,,5,,,,67,64
96870,note_on,0,0,5,,,,,,,,5,,,,68,45
96870,note_on,0,0,10,,,,,,,,11,,,,68,45
96880,note_off,0,0,1,,,,,,,,1,,,,82,64
96880,note_off,40,0,2,,,,,,,,2,,,,85,64
96880,note_off,0,0,2,,,,,,,,2,,,,82,64
96880,note_off,40,0,1,,,,,,,,1,,,,85,64
96900,note_on,0,0,5,,,,,,,,5,,,,67,45
96900,note_off,30,0,5,,,,,,,,5,,,,68,64
96900,note_on,20,0,2,,,,,,,,2,,,,82,45
96900,note_on,0,0,1,,,,,,,,1,,,,85,60
96900,note_on,0,0,10,,,,,,,,11,,,,67,45
96900,note_on,20,0,1,,,,,,,,1,,,,82,60
96900,note_off,30,0,10,,,,,,,,11,,,,68,64
96900,note_on,0,0,2,,,,,,,,2,,,,85,45
96920,note_off,80,0,9,,,,,,,,10,,,,73,64
96920,note_off,80,0,3,,,,,,,,3,,,,82,64
96920,note_off,80,0,4,,,,,,,,4,,,,73,64
96920,note_off,80,0,8,,,,,,,,8,,,,82,64
96930,note_on,0,0,5,,,,,,,,5,,,,68,45
96930,note_off,30,0,5,,,,,,,,5,,,,67,64
96930,note_on,0,0,10,,,,,,,,11,,,,68,45
96930,note_off,30,0,10,,,,,,,,11,,,,67,64
96940,note_off,40,0,2,,,,,,,,2,,,,85,64
96940,note_off,40,0,1,,,,,,,,1,,,,85,64
96940,note_off,0,0,2,,,,,,,,2,,,,82,64
96940,note_off,0,0,1,,,,,,,,1,,,,82,64
96960,note_on,40,0,9,,,,,,,,10,,,,73,45
96960,note_on,0,0,5,,,,,,,,5,,,,67,45
96960,note_on,40,0,8,,,,,,,,8,,,,82,45
96960,note_on,40,0,4,,,,,,,,4,,,,73,45
96960,note_on,20,0,1,,,,,,,,1,,,,82,60
96960,note_off,30,0,5,,,,,,,,5,,,,68,64
96960,note_on,0,0,1,,,,,,,,1,,,,85,60
96960,note_on,20,0,2,,,,,,,,2,,,,82,45
96960,note_on,0,0,2,,,,,,,,2,,,,85,45
96960,note_on,0,0,10,,,,,,,,11,,,,67,45
96960,note_off,30,0,10,,,,,,,,11,,,,68,64
96960,note_on,40,0,3,,,,,,,,3,,,,82,45
97000,note_off,40,0,2,,,,,,,,2,,,,85,64
97000,note_off,0,0,2,,,,,,,,2,,,,82,64
97000,note_off,40,0,1,,,,,,,,1,,,,85,64
97000,note_off,0,0,1,,,,,,,,1,,,,82,64
97020,note_on,0,0,1,,,,,,,,1,,,,85,60
97020,note_on,0,0,2,,,,,,,,2,,,,85,45
97020,note_on,20,0,2,,,,,,,,2,,,,82,45
97020,note_on,20,0,1,,,,,,,,1,,,,82,60
97040,note_off,80,0,10,,,,,,,,11,,,,67,64
97040,note_off,80,0,3,,,,,,,,3,,,,82,64
97040,note_off,80,0,5,,,,,,,,5,,,,67,64
97040,note_off,80,0,4,,,,,,,,4,,,,73,64
97040,note_off,80,0,8,,,,,,,,8,,,,82,64
97040,note_off,80,0,9,,,,,,,,10,,,,73,64
97060,note_off,40,0,1,,,,,,,,1,,,,85,64
97060,note_off,0,0,2,,,,,,,,2,,,,82,64
97060,note_off,0,0,1,,,,,,,,1,,,,82,64
97060,note_off,40,0,2,,,,,,,,2,,,,85,64
97080,note_on,0,0,2,,,,,,,,2,,,,84,45
97080,note_on,20,0,2,,,,,,,,2,,,,82,45
97080,note_on,40,0,5,,,,,,,,5,,,,68,45
97080,note_on,40,0,3,,,,,,,,3,,,,82,45
97080,note_on,20,0,1,,,,,,,,1,,,,82,60
97080,note_on,0,0,1,,,,,,,,1,,,,84,60
97080,note_on,40,0,8,,,,,,,,8,,,,82,45
97080,note_on,40,0,9,,,,,,,,10,,,,72,45
97080,note_on,40,0,4,,,,,,,,4,,,,72,45
97080,note_on,40,0,10,,,,,,,,11,,,,68,45
97110,note_on,0,0,10,,,,,,,,11,,,,70,45
97110,note_off,30,0,10,,,,,,,,11,,,,68,64
97110,note_off,30,0,5,,,,,,,,5,,,,68,64
97110,note_on,0,0,5,,,,,,,,5,,,,70,45
97120,note_off,0,0,2,,,,,,,,2,,,,82,64
97120,note_off,40,0,1,,,,,,,,1,,,,84,64
97120,note_off,0,0,1,,,,,,,,1,,,,82,64
97120,note_off,40,0,2,,,,,,,,2,,,,84,64
97140,note_on,0,0,5,,,,,,,,5,,,,68,45
97140,note_off,30,0,10,,,,,,,,11,,,,70,64
97140,note_on,0,0,10,,,,,,,,11,,,,68,45
97140,note_on,20,0,2,,,,,,,,2,,,,82,45
97140,note_on,0,0,2,,,,,,,,2,,,,84,45
97140,note_on,20,0,1,,,,,,,,1,,,,82,60
97140,note_on,0,0,1,,,,,,,,1,,,,84,60
97140,note_off,30,0,5,,,,,,,,5,,,,70,64
97160,note_off,80,0,8,,,,,,,,8,,,,82,64
97160,note_off,80,0,3,,,,,,,,3,,,,82,64
97160,note_off,80,0,4,,,,,,,,4,,,,72,64
97160,note_off,80,0,9,,,,,,,,10,,,,72,64
97170,note_on,0,0,5,,,,,,,,5,,,,70,45
97170,note_off,30,0,10,,,,,,,,11,,,,68,64
97170,note_on,0,0,10,,,,,,,,11,,,,70,45
97170,note_off,30,0,5,,,,,,,,5,,,,68,64
97180,note_off,40,0,2,,,,,,,,2,,,,84,64
97180,note_off,0,0,2,,,,,,,,2,,,,82,64
97180,note_off,0,0,1,,,,,,,,1,,,,82,64
97180,note_off,40,0,1,,,,,,,,1,,,,84,64
97200,note_on,20,0,1,,,,,,,,1,,,,82,60
97200,note_on,40,0,4,,,,,,,,4,,,,72,45
97200,note_on,0,0,1,,,,,,,,1,,,,84,60
97200,note_on,40,0,8,,,,,,,,8,,,,82,45
97200,note_on,0,0,5,,,,,,,,5,,,,68,45
97200,note_on,40,0,9,,,,,,,,10,,,,72,45
97200,note_off,30,0,5,,,,,,,,5,,,,70,64
97200,note_on,0,0,2,,,,,,,,2,,,,84,45
97200,note_on,20,0,2,,,,,,,,2,,,,82,45
97200,note_off,30,0,10,,,,,,,,11,,,,70,64
97200,note_on,0,0,10,,,,,,,,11,,,,68,45
97200,note_on,40,0,3,,,,,,,,3,,,,82,45
97240,note_off,40,0,1,,,,,,,,1,,,,84,64
97240,note_off,0,0,1,,,,,,,,1,,,,82,64
97240,note_off,40,0,2,,,,,,,,2,,,,84,64
97240,note_off,0,0,2,,,,,,,,2,,,,82,64
97260,note_on,20,0,2,,,,,,,,2,,,,82,45
97260,note_on,0,0,2,,,,,,,,2,,,,84,45
97260,note_on,0,0,1,,,,,,,,1,,,,84,60
97260,note_on,20,0,1,,,,,,,,1,,,,82,60
97280,note_off,80,0,5,,,,,,,,5,,,,68,64
97280,note_off,80,0,4,,,,,,,,4,,,,72,64
97280,note_off,80,0,3,,,,,,,,3,,,,82,64
97280,note_off,80,0,10,,,,,,,,11,,,,68,64
97280,note_off,80,0,9,,,,,,,,10,,,,72,64
97280,note_off,80,0,8,,,,,,,,8,,,,82,64
97300,note_off,0,0,2,,,,,,,,2,,,,82,64
97300,note_off,40,0,1,,,,,,,,1,,,,84,64
97300,note_off,0,0,1,,,,,,,,1,,,,82,64
97300,note_off,40,0,2,,,,,,,,2,,,,84,64
97320,note_on,20,0,2,,,,,,,,2,,,,82,45
97320,note_on,0,0,2,,,,,,,,2,,,,84,45
97320,note_on,40,0,8,,,,,,,,8,,,,82,45
97320,note_on,40,0,5,,,,,,,,5,,,,68,45
97320,note_on,40,0,9,,,,,,,,10,,,,72,45
97320,note_on,40,0,3,,,,,,,,3,,,,82,45
97320,note_on,40,0,10,,,,,,,,11,,,,68,45
97320,note_on,20,0,1,,,,,,,,1,,,,82,60
97320,note_on,0,0,1,,,,,,,,1,,,,84,60
97320,note_on,40,0,4,,,,,,,,4,,,,72,45
97350,note_on,0,0,10,,,,,,,,11,,,,70,45
97350,note_on,0,0,5,,,,,,,,5,,,,70,45
97350,note_off,30,0,10,,,,,,,,11,,,,68,64
97350,note_off,30,0,5,,,,,,,,5,,,,68,64
97360,note_off,0,0,2,,,,,,,,2,,,,82,64
97360,note_off,40,0,2,,,,,,,,2,,,,84,64
97360,note_off,0,0,1,,,,,,,,1,,,,82,64
97360,note_off,40,0,1,,,,,,,,1,,,,84,64
97380,note_on,0,0,5,,,,,,,,5,,,,68,45
97380,note_on,0,0,2,,,,,,,,2,,,,84,45
97380,note_on,20,0,2,,,,,,,,2,,,,82,45
97380,note_off,30,0,5,,,,,,,,5,,,,70,64
97380,note_off,30,0,10,,,,,,,,11,,,,70,64
97380,note_on,0,0,1,,,,,,,,1,,,,84,60
97380,note_on,0,0,10,,,,,,,,11,,,,68,45
97380,note_on,20,0,1,,,,,,,,1,,,,82,60
97400,note_off,80,0,4,,,,,,,,4,,,,72,64
97400,note_off,80,0,3,,,,,,,,3,,,,82,64
97400,note_off,80,0,8,,,,,,,,8,,,,82,64
97400,note_off,80,0,9,,,,,,,,10,,,,72,64
97410,note_off,30,0,10,,,,,,,,11,,,,68,64
97410,note_on,0,0,5,,,,,,,,5,,,,70,45
97410,note_off,30,0,5,,,,,,,,5,,,,68,64
97410,note_on,0,0,10,,,,,,,,11,,,,70,45
97420,note_off,0,0,2,,,,,,,,2,,,,82,64
97420,note_off,0,0,1,,,,,,,,1,,,,82,64
97420,note_off,40,0,1,,,,,,,,1,,,,84,64
97420,note_off,40,0,2,,,,,,,,2,,,,84,64
97440,note_on,40,0,9,,,,,,,,10,,,,72,45
97440,note_on,40,0,3,,,,,,,,3,,,,82,45
97440,note_off,30,0,10,,,,,,,,11,,,,70,64
97440,note_on,40,0,8,,,,,,,,8,,,,82,45
97440,note_on,0,0,1,,,,,,,,1,,,,84,60
97440,note_on,0,0,2,,,,,,,,2,,,,84,45
97440,note_on,20,0,2,,,,,,,,2,,,,82,45
97440,note_on,20,0,1,,,,,,,,1,,,,82,60
97440,note_on,0,0,10,,,,,,,,11,,,,68,45
97440,note_off,30,0,5,,,,,,,,5,,,,70,64
97440,note_on,0,0,5,,,,,,,,5,,,,68,45
97440,note_on,40,0,4,,,,,,,,4,,,,72,45
97480,note_off,0,0,2,,,,,,,,2,,,,82,64
97480,note_off,0,0,1,,,,,,,,1,,,,82,64
97480,note_off,40,0,1,,,,,,,,1,,,,84,64
97480,note_off,40,0,2,,,,,,,,2,,,,84,64
97500,note_on,0,0,1,,,,,,,,1,,,,84,60
97500,note_on,20,0,1,,,,,,,,1,,,,82,60
97500,note_on,0,0,2,,,,,,,,2,,,,84,45
97500,note_on,20,0,2,,,,,,,,2,,,,82,45
97520,note_off,80,0,4,,,,,,,,4,,,,72,64
97520,note_off,80,0,8,,,,,,,,8,,,,82,64
97520,note_off,80,0,10,,,,,,,,11,,,,68,64
97520,note_off,80,0,9,,,,,,,,10,,,,72,64
97520,note_off,80,0,3,,,,,,,,3,,,,82,64
97520,note_off,80,0,5,,,,,,,,5,,,,68,64
97540,note_off,0,0,1,,,,,,,,1,,,,82,64
97540,note_off,40,0,1,,,,,,,,1,,,,84,64
97540,note_off,40,0,2,,,,,,,,2,,,,84,64
97540,note_off,0,0,2,,,,,,,,2,,,,82,64
97560,note_on,40,0,3,,,,,,,,3,,,,80,45
97560,note_on,20,0,2,,,,,,,,2,,,,80,45
97560,note_on,40,0,5,,,,,,,,5,,,,68,45
97560,note_on,40,0,10,,,,,,,,11,,,,68,45
97560,note_on,20,0,1,,,,,,,,1,,,,80,60
97560,note_on,0,0,1,,,,,,,,1,,,,84,60
97560,note_on,40,0,8,,,,,,,,8,,,,80,45
97560,note_on,40,0,4,,,,,,,,4,,,,72,45
97560,note_on,0,0,2,,,,,,,,2,,,,84,45
97560,note_on,40,0,9,,,,,,,,10,,,,72,45
97590,note_on,0,0,5,,,,,,,,5,,,,70,45
97590,note_off,30,0,5,,,,,,,,5,,,,68,64
97590,note_on,0,0,10,,,,,,,,11,,,,70,45
97590,note_off,30,0,10,,,,,,,,11,,,,68,64
97600,note_off,0,0,2,,,,,,,,2,,,,80,64
97600,note_off,0,0,1,,,,,,,,1,,,,80,64
97600,note_off,40,0,2,,,,,,,,2,,,,84,64
97600,note_off,40,0,1,,,,,,,,1,,,,84,64
97620,note_on,20,0,2,,,,,,,,2,,,,80,45
97620,note_on,0,0,2,,,,,,,,2,,,,84,45
97620,note_on,20,0,1,,,,,,,,1,,,,80,60
97620,note_on,0,0,1,,,,,,,,1,,,,84,60
97620,note_off,30,0,5,,,,,,,,5,,,,70,64
97620,note_on,0,0,5,,,,,,,,5,,,,68,45
97620,note_off,30,0,10,,,,,,,,11,,,,70,64
97620,note_on,0,0,10,,,,,,,,11,,,,68,45
97640,note_off,80,0,3,,,,,,,,3,,,,80,64
97640,note_off,80,0,9,,,,,,,,10,,,,72,64
97640,note_off,80,0,8,,,,,,,,8,,,,80,64
97640,note_off,80,0,4,,,,,,,,4,,,,72,64
97650,note_on,0,0,10,,,,,,,,11,,,,70,45
97650,note_on,0,0,5,,,,,,,,5,,,,70,45
97650,note_off,30,0,5,,,,,,,,5,,,,68,64
97650,note_off,30,0,10,,,,,,,,11,,,,68,64
97660,note_off,0,0,2,,,,,,,,2,,,,80,64
97660,note_off,40,0,2,,,,,,,,2,,,,84,64
97660,note_off,40,0,1,,,,,,,,1,,,,84,64
97660,note_off,0,0,1,,,,,,,,1,,,,80,64
97680,note_off,30,0,10,,,,,,,,11,,,,70,64
97680,note_on,20,0,1,,,,,,,,1,,,,80,60
97680,note_on,0,0,10,,,,,,,,11,,,,68,45
97680,note_on,40,0,3,,,,,,,,3,,,,80,45
97680,note_on,40,0,8,,,,,,,,8,,,,80,45
97680,note_on,0,0,1,,,,,,,,1,,,,84,60
97680,note_on,40,0,4,,,,,,,,4,,,,72,45
97680,note_on,20,0,2,,,,,,,,2,,,,80,45
97680,note_off,30,0,5,,,,,,,,5,,,,70,64
97680,note_on,0,0,5,,,,,,,,5,,,,68,45
97680,note_on,0,0,2,,,,,,,,2,,,,84,45
97680,note_on,40,0,9,,,,,,,,10,,,,72,45
97720,note_off,0,0,2,,,,,,,,2,,,,80,64
97720,note_off,40,0,2,,,,,,,,2,,,,84,64
97720,note_off,40,0,1,,,,,,,,1,,,,84,64
97720,note_off,0,0,1,,,,,,,,1,,,,80,64
97740,note_on,20,0,2,,,,,,,,2,,,,80,45
97740,note_on,0,0,2,,,,,,,,2,,,,84,45
97740,note_on,0,0,1,,,,,,,,1,,,,84,60
97740,note_on,20,0,1,,,,,,,,1,,,,80,60
97760,note_off,80,0,10,,,,,,,,11,,,,68,64
97760,note_off,80,0,3,,,,,,,,3,,,,80,64
97760,note_off,80,0,5,,,,,,,,5,,,,68,64
97760,note_off,80,0,4,,,,,,,,4,,,,72,64
97760,note_off,80,0,8,,,,,,,,8,,,,80,64
97760,note_off,80,0,9,,,,,,,,10,,,,72,64
97780,note_off,0,0,1,,,,,,,,1,,,,80,64
97780,note_off,0,0,2,,,,,,,,2,,,,80,64
97780,note_off,40,0,1,,,,,,,,1,,,,84,64
97780,note_off,40,0,2,,,,,,,,2,,,,84,64
97800,note_on,40,0,8,,,,,,,,8,,,,80,45
97800,note_on,20,0,1,,,,,,,,1,,,,80,60
97800,note_on,0,0,1,,,,,,,,1,,,,84,60
97800,note_on,40,0,3,,,,,,,,3,,,,80,45
97800,note_on,40,0,10,,,,,,,,11,,,,68,45
97800,note_on,20,0,2,,,,,,,,2,,,,80,45
97800,note_on,40,0,5,,,,,,,,5,,,,68,45
97800,note_on,0,0,2,,,,,,,,2,,,,84,45
97800,note_on,40,0,4,,,,,,,,4,,,,72,45
97800,note_on,40,0,9,,,,,,,,10,,,,72,45
97830,note_on,0,0,5,,,,,,,,5,,,,70,45
97830,note_on,0,0,10,,,,,,,,11,,,,70,45
97830,note_off,30,0,10,,,,,,,,11,,,,68,64
97830,note_off,30,0,5,,,,,,,,5,,,,68,64
97840,note_off,0,0,2,,,,,,,,2,,,,80,64
97840,note_off,0,0,1,,,,,,,,1,,,,80,64
97840,note_off,40,0,1,,,,,,,,1,,,,84,64
97840,note_off,40,0,2,,,,,,,,2,,,,84,64
97860,note_on,0,0,5,,,,,,,,5,,,,68,45
97860,note_on,0,0,2,,,,,,,,2,,,,84,45
97860,note_on,20,0,2,,,,,,,,2,,,,80,45
97860,note_off,30,0,5,,,,,,,,5,,,,70,64
97860,note_off,30,0,10,,,,,,,,11,,,,70,64
97860,note_on,0,0,10,,,,,,,,11,,,,68,45
97860,note_on,20,0,1,,,,,,,,1,,,,80,60
97860,note_on,0,0,1,,,,,,,,1,,,,84,60
97880,note_off,80,0,3,,,,,,,,3,,,,80,64
97880,note_off,80,0,8,,,,,,,,8,,,,80,64
97880,note_off,80,0,4,,,,,,,,4,,,,72,64
97880,note_off,80,0,9,,,,,,,,10,,,,72,64
97890,note_on,0,0,10,,,,,,,,11,,,,70,45
97890,note_off,30,0,5,,,,,,,,5,,,,68,64
97890,note_on,0,0,5,,,,,,,,5,,,,70,45
97890,note_off,30,0,10,,,,,,,,11,,,,68,64
97900,note_off,0,0,1,,,,,,,,1,,,,80,64
97900,note_off,40,0,2,,,,,,,,2,,,,84,64
97900,note_off,0,0,2,,,,,,,,2,,,,80,64
97900,note_off,40,0,1,,,,,,,,1,,,,84,64
97920,note_on,0,0,5,,,,,,,,5,,,,68,45
97920,note_off,30,0,10,,,,,,,,11,,,,70,64
97920,note_on,40,0,9,,,,,,,,10,,,,72,45
97920,note_off,30,0,5,,,,,,,,5,,,,70,64
97920,note_on,20,0,2,,,,,,,,2,,,,80,45
97920,note_on,0,0,2,,,,,,,,2,,,,84,45
97920,note_on,40,0,3,,,,,,,,3,,,,80,45
97920,note_on,40,0,8,,,,,,,,8,,,,80,45
97920,note_on,0,0,10,,,,,,,,11,,,,68,45
97920,note_on,20,0,1,,,,,,,,1,,,,80,60
97920,note_on,0,0,1,,,,,,,,1,,,,84,60
97920,note_on,40,0,4,,,,,,,,4,,,,72,45
97960,note_off,40,0,2,,,,,,,,2,,,,84,64
97960,note_off,0,0,2,,,,,,,,2,,,,80,64
97960,note_off,40,0,1,,,,,,,,1,,,,84,64
97960,note_off,0,0,1,,,,,,,,1,,,,80,64
97980,note_on,20,0,1,,,,,,,,1,,,,80,60
97980,note_on,0,0,1,,,,,,,,1,,,,84,60
97980,note_on,0,0,2,,,,,,,,2,,,,84,45
97980,note_on,20,0,2,,,,,,,,2,,,,80,45
98000,note_off,80,0,4,,,,,,,,4,,,,72,64
98000,note_off,80,0,3,,,,,,,,3,,,,80,64
98000,note_off,80,0,5,,,,,,,,5,,,,68,64
98000,note_off,80,0,9,,,,,,,,10,,,,72,64
98000,note_off,80,0,10,,,,,,,,11,,,,68,64
98000,note_off,80,0,8,,,,,,,,8,,,,80,64
98020,note_off,0,0,2,,,,,,,,2,,,,80,64
98020,note_off,40,0,2,,,,,,,,2,,,,84,64
98020,note_off,40,0,1,,,,,,,,1,,,,84,64
98020,note_off,0,0,1,,,,,,,,1,,,,80,64
98040,note_on,40,0,5,,,,,,,,5,,,,62,45
98040,note_on,40,0,3,,,,,,,,3,,,,80,45
98040,note_on,40,0,10,,,,,,,,11,,,,62,45
98040,note_on,40,0,9,,,,,,,,10,,,,70,45
98040,note_on,40,0,4,,,,,,,,4,,,,70,45
98040,note_on,20,0,1,,,,,,,,1,,,,80,60
98040,note_on,40,0,8,,,,,,,,8,,,,80,45
98040,note_on,0,0,1,,,,,,,,1,,,,82,60
98040,note_on,20,0,2,,,,,,,,2,,,,80,45
98040,note_on,0,0,2,,,,,,,,2,,,,82,45
98070,note_on,0,0,10,,,,,,,,11,,,,63,45
98070,note_off,30,0,5,,,,,,,,5,,,,62,64
98070,note_off,30,0,10,,,,,,,,11,,,,62,64
98070,note_on,0,0,5,,,,,,,,5,,,,63,45
98080,note_off,0,0,2,,,,,,,,2,,,,80,64
98080,note_off,0,0,1,,,,,,,,1,,,,80,64
98080,note_off,40,0,2,,,,,,,,2,,,,82,64
98080,note_off,40,0,1,,,,,,,,1,,,,82,64
98100,note_on,20,0,2,,,,,,,,2,,,,80,45
98100,note_on,0,0,1,,,,,,,,1,,,,82,60
98100,note_on,20,0,1,,,,,,,,1,,,,80,60
98100,note_off,30,0,10,,,,,,,,11,,,,63,64
98100,note_on,0,0,10,,,,,,,,11,,,,62,45
98100,note_on,0,0,5,,,,,,,,5,,,,62,45
98100,note_off,30,0,5,,,,,,,,5,,,,63,64
98100,note_on,0,0,2,,,,,,,,2,,,,82,45
98120,note_off,80,0,3,,,,,,,,3,,,,80,64
98120,note_off,80,0,8,,,,,,,,8,,,,80,64
98120,note_off,80,0,4,,,,,,,,4,,,,70,64
98120,note_off,80,0,9,,,,,,,,10,,,,70,64
98130,note_off,30,0,10,,,,,,,,11,,,,62,64
98130,note_on,0,0,10,,,,,,,,11,,,,63,45
98130,note_off,30,0,5,,,,,,,,5,,,,62,64
98130,note_on,0,0,5,,,,,,,,5,,,,63,45
98140,note_off,0,0,1,,,,,,,,1,,,,80,64
98140,note_off,40,0,1,,,,,,,,1,,,,82,64
98140,note_off,40,0,2,,,,,,,,2,,,,82,64
98140,note_off,0,0,2,,,,,,,,2,,,,80,64
98160,note_on,0,0,5,,,,,,,,5,,,,62,45
98160,note_on,0,0,1,,,,,,,,1,,,,82,60
98160,note_on,20,0,1,,,,,,,,1,,,,80,60
98160,note_on,20,0,2,,,,,,,,2,,,,80,45
98160,note_on,0,0,2,,,,,,,,2,,,,82,45
98160,note_off,30,0,5,,,,,,,,5,,,,63,64
98160,note_on,40,0,9,,,,,,,,10,,,,70,45
98160,note_on,40,0,4,,,,,,,,4,,,,70,45
98160,note_off,30,0,10,,,,,,,,11,,,,63,64
98160,note_on,40,0,3,,,,,,,,3,,,,80,45
98160,note_on,40,0,8,,,,,,,,8,,,,80,45
98160,note_on,0,0,10,,,,,,,,11,,,,62,45
98200,note_off,0,0,1,,,,,,,,1,,,,80,64
98200,note_off,40,0,1,,,,,,,,1,,,,82,64
98200,note_off,40,0,2,,,,,,,,2,,,,82,64
98200,note_off,0,0,2,,,,,,,,2,,,,80,64
98220,note_on,0,0,1,,,,,,,,1,,,,82,60
98220,note_on,20,0,1,,,,,,,,1,,,,80,60
98220,note_on,20,0,2,,,,,,,,2,,,,80,45
98220,note_on,0,0,2,,,,,,,,2,,,,82,45
98240,note_off,80,0,3,,,,,,,,3,,,,80,64
98240,note_off,80,0,10,,,,,,,,11,,,,62,64
98240,note_off,80,0,8,,,,,,,,8,,,,80,64
98240,note_off,80,0,5,,,,,,,,5,,,,62,64
98240,note_off,80,0,4,,,,,,,,4,,,,70,64
98240,note_off,80,0,9,,,,,,,,10,,,,70,64
98260,note_off,0,0,1,,,,,,,,1,,,,80,64
98260,note_off,40,0,1,,,,,,,,1,,,,82,64
98260,note_off,40,0,2,,,,,,,,2,,,,82,64
98260,note_off,0,0,2,,,,,,,,2,,,,80,64
98280,note_on,40,0,3,,,,,,,,3,,,,80,45
98280,note_on,40,0,5,,,,,,,,5,,,,62,45
98280,note_on,40,0,10,,,,,,,,11,,,,62,45
98280,note_on,40,0,8,,,,,,,,8,,,,80,45
98280,note_on,40,0,9,,,,,,,,10,,,,70,45
98280,note_on,20,0,2,,,,,,,,2,,,,80,45
98280,note_on,0,0,2,,,,,,,,2,,,,82,45
98280,note_on,40,0,4,,,,,,,,4,,,,70,45
98280,note_on,0,0,1,,,,,,,,1,,,,82,60
98280,note_on,20,0,1,,,,,,,,1,,,,80,60
98310,note_on,0,0,5,,,,,,,,5,,,,63,45
98310,note_off,30,0,5,,,,,,,,5,,,,62,64
98310,note_on,0,0,10,,,,,,,,11,,,,63,45
98310,note_off,30,0,10,,,,,,,,11,,,,62,64
98320,note_off,40,0,2,,,,,,,,2,,,,82,64
98320,note_off,40,0,1,,,,,,,,1,,,,82,64
98320,note_off,0,0,1,,,,,,,,1,,,,80,64
98320,note_off,0,0,2,,,,,,,,2,,,,80,64
98340,note_on,20,0,1,,,,,,,,1,,,,80,60
98340,note_on,0,0,5,,,,,,,,5,,,,62,45
98340,note_off,30,0,10,,,,,,,,11,,,,63,64
98340,note_on,0,0,10,,,,,,,,11,,,,62,45
98340,note_on,0,0,1,,,,,,,,1,,,,82,60
98340,note_on,0,0,2,,,,,,,,2,,,,82,45
98340,note_on,20,0,2,,,,,,,,2,,,,80,45
98340,note_off,30,0,5,,,,,,,,5,,,,63,64
98360,note_off,80,0,3,,,,,,,,3,,,,80,64
98360,note_off,80,0,4,,,,,,,,4,,,,70,64
98360,note_off,80,0,8,,,,,,,,8,,,,80,64
98360,note_off,80,0,9,,,,,,,,10,,,,70,64
98370,note_off,30,0,5,,,,,,,,5,,,,62,64
98370,note_on,0,0,5,,,,,,,,5,,,,63,45
98370,note_on,0,0,10,,,,,,,,11,,,,63,45
98370,note_off,30,0,10,,,,,,,,11,,,,62,64
98380,note_off,0,0,2,,,,,,,,2,,,,80,64
98380,note_off,40,0,2,,,,,,,,2,,,,82,64
98380,note_off,0,0,1,,,,,,,,1,,,,80,64
98380,note_off,40,0,1,,,,,,,,1,,,,82,64
98400,note_off,30,0,5,,,,,,,,5,,,,63,64
98400,note_on,40,0,9,,,,,,,,10,,,,70,45
98400,note_on,40,0,3,,,,,,,,3,,,,80,45
98400,note_on,0,0,1,,,,,,,,1,,,,82,60
98400,note_on,20,0,1,,,,,,,,1,,,,80,60
98400,note_on,40,0,8,,,,,,,,8,,,,80,45
98400,note_off,30,0,10,,,,,,,,11,,,,63,64
98400,note_on,0,0,10,,,,,,,,11,,,,62,45
98400,note_on,20,0,2,,,,,,,,2,,,,80,45
98400,note_on,0,0,2,,,,,,,,2,,,,82,45
98400,note_on,40,0,4,,,,,,,,4,,,,70,45
98400,note_on,0,0,5,,,,,,,,5,,,,62,45
98440,note_off,40,0,1,,,,,,,,1,,,,82,64
98440,note_off,0,0,1,,,,,,,,1,,,,80,64
98440,note_off,0,0,2,,,,,,,,2,,,,80,64
98440,note_off,40,0,2,,,,,,,,2,,,,82,64
98460,note_on,0,0,2,,,,,,,,2,,,,82,45
98460,note_on,20,0,2,,,,,,,,2,,,,80,45
98460,note_on,0,0,1,,,,,,,,1,,,,82,60
98460,note_on,20,0,1,,,,,,,,1,,,,80,60
98480,note_off,80,0,9,,,,,,,,10,,,,70,64
98480,note_off,80,0,4,,,,,,,,4,,,,70,64
98480,note_off,80,0,3,,,,,,,,3,,,,80,64
98480,note_off,80,0,5,,,,,,,,5,,,,62,64
98480,note_off,80,0,10,,,,,,,,11,,,,62,64
98480,note_off,80,0,8,,,,,,,,8,,,,80,64
98500,note_off,0,0,2,,,,,,,,2,,,,80,64
98500,note_off,40,0,1,,,,,,,,1,,,,82,64
98500,note_off,40,0,2,,,,,,,,2,,,,82,64
98500,note_off,0,0,1,,,,,,,,1,,,,80,64
98520,note_on,20,0,2,,,,,,,,2,,,,79,45
98520,note_on,40,0,10,,,,,,,,11,,,,63,45
98520,note_on,0,0,2,,,,,,,,2,,,,82,45
98520,note_on,40,0,9,,,,,,,,10,,,,70,45
98520,note_on,40,0,4,,,,,,,,4,,,,70,45
98520,note_on,40,0,3,,,,,,,,3,,,,79,45
98520,note_on,20,0,1,,,,,,,,1,,,,79,60
98520,note_on,0,0,1,,,,,,,,1,,,,82,60
98520,note_on,40,0,8,,,,,,,,8,,,,79,45
98520,note_on,40,0,5,,,,,,,,5,,,,63,45
98550,note_on,0,0,5,,,,,,,,5,,,,65,45
98550,note_off,30,0,10,,,,,,,,11,,,,63,64
98550,note_on,0,0,10,,,,,,,,11,,,,65,45
98550,note_off,30,0,5,,,,,,,,5,,,,63,64
98560,note_off,0,0,2,,,,,,,,2,,,,79,64
98560,note_off,40,0,2,,,,,,,,2,,,,82,64
98560,note_off,40,0,1,,,,,,,,1,,,,82,64
98560,note_off,0,0,1,,,,,,,,1,,,,79,64
98580,note_on,0,0,10,,,,,,,,11,,,,63,45
98580,note_off,30,0,10,,,,,,,,11,,,,65,64
98580,note_on,0,0,2,,,,,,,,2,,,,82,45
98580,note_on,20,0,2,,,,,,,,2,,,,79,45
98580,note_off,30,0,5,,,,,,,,5,,,,65,64
98580,note_on,0,0,5,,,,,,,,5,,,,63,45
98580,note_on,20,0,1,,,,,,,,1,,,,79,60
98580,note_on,0,0,1,,,,,,,,1,,,,82,60
98600,note_off,80,0,9,,,,,,,,10,,,,70,64
98600,note_off,80,0,4,,,,,,,,4,,,,70,64
98600,note_off,80,0,3,,,,,,,,3,,,,79,64
98600,note_off,80,0,8,,,,,,,,8,,,,79,64
98610,note_off,30,0,10,,,,,,,,11,,,,63,64
98610,note_on,0,0,10,,,,,,,,11,,,,65,45
98610,note_off,30,0,5,,,,,,,,5,,,,63,64
98610,note_on,0,0,5,,,,,,,,5,,,,65,45
98620,note_off,0,0,1,,,,,,,,1,,,,79,64
98620,note_off,0,0,2,,,,,,,,2,,,,79,64
98620,note_off,40,0,1,,,,,,,,1,,,,82,64
98620,note_off,40,0,2,,,,,,,,2,,,,82,64
98640,note_on,0,0,5,,,,,,,,5,,,,63,45
98640,note_off,30,0,5,,,,,,,,5,,,,65,64
98640,note_off,30,0,10,,,,,,,,11,,,,65,64
98640,note_on,40,0,8,,,,,,,,8,,,,79,45
98640,note_on,0,0,10,,,,,,,,11,,,,63,45
98640,note_on,40,0,4,,,,,,,,4,,,,70,45
98640,note_on,0,0,1,,,,,,,,1,,,,82,60
98640,note_on,40,0,9,,,,,,,,10,,,,70,45
98640,note_on,20,0,1,,,,,,,,1,,,,79,60
98640,note_on,20,0,2,,,,,,,,2,,,,79,45
98640,note_on,40,0,3,,,,,,,,3,,,,79,45
98640,note_on,0,0,2,,,,,,,,2,,,,82,45
98680,note_off,0,0,1,,,,,,,,1,,,,79,64
98680,note_off,40,0,1,,,,,,,,1,,,,82,64
98680,note_off,40,0,2,,,,,,,,2,,,,82,64
98680,note_off,0,0,2,,,,,,,,2,,,,79,64
98700,note_on,20,0,2,,,,,,,,2,,,,79,45
98700,note_on,20,0,1,,,,,,,,1,,,,79,60
98700,note_on,0,0,1,,,,,,,,1,,,,82,60
98700,note_on,0,0,2,,,,,,,,2,,,,82,45
98720,note_off,80,0,5,,,,,,,,5,,,,63,64
98720,note_off,80,0,10,,,,,,,,11,,,,63,64
98720,note_off,80,0,8,,,,,,,,8,,,,79,64
98720,note_off,80,0,3,,,,,,,,3,,,,79,64
98720,note_off,80,0,9,,,,,,,,10,,,,70,64
98720,note_off,80,0,4,,,,,,,,4,,,,70,64
98740,note_off,0,0,1,,,,,,,,1,,,,79,64
98740,note_off,40,0,1,,,,,,,,1,,,,82,64
98740,note_off,40,0,2,,,,,,,,2,,,,82,64
98740,note_off,0,0,2,,,,,,,,2,,,,79,64
98760,note_on,0,0,1,,,,,,,,1,,,,82,60
98760,note_on,40,0,8,,,,,,,,8,,,,79,45
98760,note_on,40,0,5,,,,,,,,5,,,,63,45
98760,note_on,40,0,4,,,,,,,,4,,,,70,45
98760,note_on,40,0,10,,,,,,,,11,,,,63,45
98760,note_on,20,0,2,,,,,,,,2,,,,79,45
98760,note_on,20,0,1,,,,,,,,1,,,,79,60
98760,note_on,40,0,9,,,,,,,,10,,,,70,45
98760,note_on,40,0,3,,,,,,,,3,,,,79,45
98760,note_on,0,0,2,,,,,,,,2,,,,82,45
98790,note_off,30,0,10,,,,,,,,11,,,,63,64
98790,note_on,0,0,10,,,,,,,,11,,,,65,45
98790,note_off,30,0,5,,,,,,,,5,,,,63,64
98790,note_on,0,0,5,,,,,,,,5,,,,65,45
98800,note_off,40,0,1,,,,,,,,1,,,,82,64
98800,note_off,0,0,1,,,,,,,,1,,,,79,64
98800,note_off,40,0,2,,,,,,,,2,,,,82,64
98800,note_off,0,0,2,,,,,,,,2,,,,79,64
98820,note_on,0,0,10,,,,,,,,11,,,,63,45
98820,note_on,20,0,1,,,,,,,,1,,,,79,60
98820,note_on,0,0,1,,,,,,,,1,,,,82,60
98820,note_off,30,0,5,,,,,,,,5,,,,65,64
98820,note_on,0,0,5,,,,,,,,5,,,,63,45
98820,note_off,30,0,10,,,,,,,,11,,,,65,64
98820,note_on,0,0,2,,,,,,,,2,,,,82,45
98820,note_on,20,0,2,,,,,,,,2,,,,79,45
98840,note_off,80,0,9,,,,,,,,10,,,,70,64
98840,note_off,80,0,3,,,,,,,,3,,,,79,64
98840,note_off,80,0,4,,,,,,,,4,,,,70,64
98840,note_off,80,0,8,,,,,,,,8,,,,79,64
98850,note_off,30,0,5,,,,,,,,5,,,,63,64
98850,note_on,0,0,5,,,,,,,,5,,,,65,45
98850,note_off,30,0,10,,,,,,,,11,,,,63,64
98850,note_on,0,0,10,,,,,,,,11,,,,65,45
98860,note_off,40,0,1,,,,,,,,1,,,,82,64
98860,note_off,0,0,1,,,,,,,,1,,,,79,64
98860,note_off,0,0,2,,,,,,,,2,,,,79,64
98860,note_off,40,0,2,,,,,,,,2,,,,82,64
98880,note_on,40,0,4,,,,,,,,4,,,,70,45
98880,note_on,0,0,5,,,,,,,,5,,,,63,45
98880,note_on,40,0,9,,,,,,,,10,,,,70,45
98880,note_on,40,0,3,,,,,,,,3,,,,79,45
98880,note_off,30,0,5,,,,,,,,5,,,,65,64
98880,note_off,30,0,10,,,,,,,,11,,,,65,64
98880,note_on,0,0,1,,,,,,,,1,,,,82,60
98880,note_on,0,0,10,,,,,,,,11,,,,63,45
98880,note_on,40,0,8,,,,,,,,8,,,,79,45
98880,note_on,0,0,2,,,,,,,,2,,,,82,45
98880,note_on,20,0,2,,,,,,,,2,,,,79,45
98880,note_on,20,0,1,,,,,,,,1,,,,79,60
98920,note_off,40,0,2,,,,,,,,2,,,,82,64
98920,note_off,40,0,1,,,,,,,,1,,,,82,64
98920,note_off,0,0,2,,,,,,,,2,,,,79,64
98920,note_off,0,0,1,,,,,,,,1,,,,79,64
98940,note_on,20,0,2,,,,,,,,2,,,,79,45
98940,note_on,0,0,2,,,,,,,,2,,,,82,45
98940,note_on,0,0,1,,,,,,,,1,,,,82,60
98940,note_on,20,0,1,,,,,,,,1,,,,79,60
98960,note_off,80,0,8,,,,,,,,8,,,,79,64
98960,note_off,80,0,10,,,,,,,,11,,,,63,64
98960,note_off,80,0,5,,,,,,,,5,,,,63,64
98960,note_off,80,0,3,,,,,,,,3,,,,79,64
98960,note_off,80,0,9,,,,,,,,10,,,,70,64
98960,note_off,80,0,4,,,,,,,,4,,,,70,64
98980,note_off,40,0,1,,,,,,,,1,,,,82,64
98980,note_off,0,0,1,,,,,,,,1,,,,79,64
98980,note_off,40,0,2,,,,,,,,2,,,,82,64
98980,note_off,0,0,2,,,,,,,,2,,,,79,64
99000,note_on,40,0,8,,,,,,,,8,,,,79,45
99000,note_on,40,0,9,,,,,,,,10,,,,68,45
99000,note_on,20,0,2,,,,,,,,2,,,,79,45
99000,note_on,40,0,5,,,,,,,,5,,,,65,45
99000,note_on,40,0,4,,,,,,,,4,,,,68,45
99000,note_on,40,0,3,,,,,,,,3,,,,79,45
99000,note_on,0,0,2,,,,,,,,2,,,,80,45
99000,note_on,40,0,10,,,,,,,,11,,,,65,45
99000,note_on,0,0,1,,,,,,,,1,,,,80,60
99000,note_on,20,0,1,,,,,,,,1,,,,79,60
99030,note_on,0,0,10,,,,,,,,11,,,,67,45
99030,note_off,30,0,5,,,,,,,,5,,,,65,64
99030,note_on,0,0,5,,,,,,,,5,,,,67,45
99030,note_off,30,0,10,,,,,,,,11,,,,65,64
99040,note_off,40,0,1,,,,,,,,1,,,,80,64
99040,note_off,0,0,1,,,,,,,,1,,,,79,64
99040,note_off,0,0,2,,,,,,,,2,,,,79,64
99040,note_off,40,0,2,,,,,,,,2,,,,80,64
99060,note_off,30,0,10,,,,,,,,11,,,,67,64
99060,note_on,0,0,10,,,,,,,,11,,,,65,45
99060,note_on,0,0,5,,,,,,,,5,,,,65,45
99060,note_on,0,0,1,,,,,,,,1,,,,80,60
99060,note_off,30,0,5,,,,,,,,5,,,,67,64
99060,note_on,20,0,2,,,,,,,,2,,,,79,45
99060,note_on,0,0,2,,,,,,,,2,,,,80,45
99060,note_on,20,0,1,,,,,,,,1,,,,79,60
99080,note_off,80,0,4,,,,,,,,4,,,,68,64
99080,note_off,80,0,8,,,,,,,,8,,,,79,64
99080,note_off,80,0,9,,,,,,,,10,,,,68,64
99080,note_off,80,0,3,,,,,,,,3,,,,79,64
99090,note_on,0,0,10,,,,,,,,11,,,,67,45
99090,note_off,30,0,5,,,,,,,,5,,,,65,64
99090,note_on,0,0,5,,,,,,,,5,,,,67,45
99090,note_off,30,0,10,,,,,,,,11,,,,65,64
99100,note_off,0,0,1,,,,,,,,1,,,,79,64
99100,note_off,40,0,1,,,,,,,,1,,,,80,64
99100,note_off,40,0,2,,,,,,,,2,,,,80,64
99100,note_off,0,0,2,,,,,,,,2,,,,79,64
99120,note_on,0,0,2,,,,,,,,2,,,,80,45
99120,note_on,0,0,1,,,,,,,,1,,,,80,60
99120,note_off,30,0,10,,,,,,,,11,,,,67,64
99120,note_on,40,0,3,,,,,,,,3,,,,79,45
99120,note_on,20,0,2,,,,,,,,2,,,,79,45
99120,note_on,20,0,1,,,,,,,,1,,,,79,60
99120,note_on,40,0,8,,,,,,,,8,,,,79,45
99120,note_on,0,0,10,,,,,,,,11,,,,65,45
99120,note_off,30,0,5,,,,,,,,5,,,,67,64
99120,note_on,40,0,9,,,,,,,,10,,,,68,45
99120,note_on,40,0,4,,,,,,,,4,,,,68,45
99120,note_on,0,0,5,,,,,,,,5,,,,65,45
99160,note_off,40,0,1,,,,,,,,1,,,,80,64
99160,note_off,0,0,1,,,,,,,,1,,,,79,64
99160,note_off,40,0,2,,,,,,,,2,,,,80,64
99160,note_off,0,0,2,,,,,,,,2,,,,79,64
99180,note_on,20,0,2,,,,,,,,2,,,,79,45
99180,note_on,0,0,2,,,,,,,,2,,,,80,45
99180,note_on,0,0,1,,,,,,,,1,,,,80,60
99180,note_on,20,0,1,,,,,,,,1,,,,79,60
99200,note_off,80,0,4,,,,,,,,4,,,,68,64
99200,note_off,80,0,8,,,,,,,,8,,,,79,64
99200,note_off,80,0,5,,,,,,,,5,,,,65,64
99200,note_off,80,0,9,,,,,,,,10,,,,68,64
99200,note_off,80,0,3,,,,,,,,3,,,,79,64
99200,note_off,80,0,10,,,,,,,,11,,,,65,64
99220,note_off,0,0,2,,,,,,,,2,,,,79,64
99220,note_off,40,0,2,,,,,,,,2,,,,80,64
99220,note_off,40,0,1,,,,,,,,1,,,,80,64
99220,note_off,0,0,1,,,,,,,,1,,,,79,64
99240,note_on,40,0,10,,,,,,,,11,,,,65,45
99240,note_on,40,0,5,,,,,,,,5,,,,65,45
99240,note_on,40,0,8,,,,,,,,8,,,,79,45
99240,note_on,40,0,9,,,,,,,,10,,,,68,45
99240,note_on,40,0,3,,,,,,,,3,,,,79,45
99240,note_on,20,0,1,,,,,,,,1,,,,79,60
99240,note_on,0,0,1,,,,,,,,1,,,,80,60
99240,note_on,0,0,2,,,,,,,,2,,,,80,45
99240,note_on,20,0,2,,,,,,,,2,,,,79,45
99240,note_on,40,0,4,,,,,,,,4,,,,68,45
99270,note_on,0,0,5,,,,,,,,5,,,,67,45
99270,note_off,30,0,5,,,,,,,,5,,,,65,64
99270,note_on,0,0,10,,,,,,,,11,,,,67,45
99270,note_off,30,0,10,,,,,,,,11,,,,65,64
99280,note_off,0,0,1,,,,,,,,1,,,,79,64
99280,note_off,0,0,2,,,,,,,,2,,,,79,64
99280,note_off,40,0,2,,,,,,,,2,,,,80,64
99280,note_off,40,0,1,,,,,,,,1,,,,80,64
99300,note_on,20,0,1,,,,,,,,1,,,,79,60
99300,note_off,30,0,5,,,,,,,,5,,,,67,64
99300,note_on,0,0,1,,,,,,,,1,,,,80,60
99300,note_off,30,0,10,,,,,,,,11,,,,67,64
99300,note_on,0,0,5,,,,,,,,5,,,,65,45
99300,note_on,20,0,2,,,,,,,,2,,,,79,45
99300,note_on,0,0,2,,,,,,,,2,,,,80,45
99300,note_on,0,0,10,,,,,,,,11,,,,65,45
99320,note_off,80,0,4,,,,,,,,4,,,,68,64
99320,note_off,80,0,8,,,,,,,,8,,,,79,64
99320,note_off,80,0,3,,,,,,,,3,,,,79,64
99320,note_off,80,0,9,,,,,,,,10,,,,68,64
99330,note_on,0,0,10,,,,,,,,11,,,,67,45
99330,note_on,0,0,5,,,,,,,,5,,,,67,45
99330,note_off,30,0,10,,,,,,,,11,,,,65,64
99330,note_off,30,0,5,,,,,,,,5,,,,65,64
99340,note_off,40,0,2,,,,,,,,2,,,,80,64
99340,note_off,0,0,1,,,,,,,,1,,,,79,64
99340,note_off,40,0,1,,,,,,,,1,,,,80,64
99340,note_off,0,0,2,,,,,,,,2,,,,79,64
99360,note_on,0,0,10,,,,,,,,11,,,,65,45
99360,note_off,30,0,5,,,,,,,,5,,,,67,64
99360,note_on,0,0,5,,,,,,,,5,,,,65,45
99360,note_on,40,0,4,,,,,,,,4,,,,68,45
99360,note_on,20,0,1,,,,,,,,1,,,,79,60
99360,note_on,0,0,1,,,,,,,,1,,,,80,60
99360,note_on,20,0,2,,,,,,,,2,,,,79,45
99360,note_on,0,0,2,,,,,,,,2,,,,80,45
99360,note_on,40,0,3,,,,,,,,3,,,,79,45
99360,note_on,40,0,8,,,,,,,,8,,,,79,45
99360,note_on,40,0,9,,,,,,,,10,,,,68,45
99360,note_off,30,0,10,,,,,,,,11,,,,67,64
99400,note_off,40,0,1,,,,,,,,1,,,,80,64
99400,note_off,0,0,1,,,,,,,,1,,,,79,64
99400,note_off,0,0,2,,,,,,,,2,,,,79,64
99400,note_off,40,0,2,,,,,,,,2,,,,80,64
99420,note_on,0,0,2,,,,,,,,2,,,,80,45
99420,note_on,20,0,2,,,,,,,,2,,,,79,45
99420,note_on,20,0,1,,,,,,,,1,,,,79,60
99420,note_on,0,0,1,,,,,,,,1,,,,80,60
99440,note_off,80,0,3,,,,,,,,3,,,,79,64
99440,note_off,80,0,4,,,,,,,,4,,,,68,64
99440,note_off,80,0,5,,,,,,,,5,,,,65,64
99440,note_off,80,0,9,,,,,,,,10,,,,68,64
99440,note_off,80,0,8,,,,,,,,8,,,,79,64
99440,note_off,80,0,10,,,,,,,,11,,,,65,64
99460,note_off,0,0,1,,,,,,,,1,,,,79,64
99460,note_off,40,0,1,,,,,,,,1,,,,80,64
99460,note_off,0,0,2,,,,,,,,2,,,,79,64
99460,note_off,40,0,2,,,,,,,,2,,,,80,64
99480,note_on,40,0,4,,,,,,,,4,,,,68,45
99480,note_on,20,0,2,,,,,,,,2,,,,77,45
99480,note_on,40,0,9,,,,,,,,10,,,,68,45
99480,note_on,0,0,2,,,,,,,,2,,,,80,45
99480,note_on,40,0,3,,,,,,,,3,,,,77,45
99480,note_on,0,0,1,,,,,,,,1,,,,80,60
99480,note_on,20,0,1,,,,,,,,1,,,,77,60
99480,note_on,40,0,8,,,,,,,,8,,,,77,45
99480,note_on,40,0,10,,,,,,,,11,,,,65,45
99480,note_on,40,0,5,,,,,,,,5,,,,65,45
99510,note_on,0,0,10,,,,,,,,11,,,,67,45
99510,note_off,30,0,10,,,,,,,,11,,,,65,64
99510,note_off,30,0,5,,,,,,,,5,,,,65,64
99510,note_on,0,0,5,,,,,,,,5,,,,67,45
99520,note_off,40,0,1,,,,,,,,1,,,,80,64
99520,note_off,40,0,2,,,,,,,,2,,,,80,64
99520,note_off,0,0,2,,,,,,,,2,,,,77,64
99520,note_off,0,0,1,,,,,,,,1,,,,77,64
99540,note_off,30,0,10,,,,,,,,11,,,,67,64
99540,note_on,0,0,10,,,,,,,,11,,,,65,45
99540,note_off,30,0,5,,,,,,,,5,,,,67,64
99540,note_on,0,0,5,,,,,,,,5,,,,65,45
99540,note_on,0,0,1,,,,,,,,1,,,,80,60
99540,note_on,20,0,1,,,,,,,,1,,,,77,60
99540,note_on,0,0,2,,,,,,,,2,,,,80,45
99540,note_on,20,0,2,,,,,,,,2,,,,77,45
99560,note_off,80,0,4,,,,,,,,4,,,,68,64
99560,note_off,80,0,9,,,,,,,,10,,,,68,64
99560,note_off,80,0,8,,,,,,,,8,,,,77,64
99560,note_off,80,0,3,,,,,,,,3,,,,77,64
99570,note_off,30,0,5,,,,,,,,5,,,,65,64
99570,note_on,0,0,10,,,,,,,,11,,,,67,45
99570,note_off,30,0,10,,,,,,,,11,,,,65,64
99570,note_on,0,0,5,,,,,,,,5,,,,67,45
99580,note_off,40,0,1,,,,,,,,1,,,,80,64
99580,note_off,0,0,1,,,,,,,,1,,,,77,64
99580,note_off,0,0,2,,,,,,,,2,,,,77,64
99580,note_off,40,0,2,,,,,,,,2,,,,80,64
99600,note_on,40,0,8,,,,,,,,8,,,,77,45
99600,note_on,20,0,1,,,,,,,,1,,,,77,60
99600,note_on,0,0,1,,,,,,,,1,,,,80,60
99600,note_on,0,0,2,,,,,,,,2,,,,80,45
99600,note_on,20,0,2,,,,,,,,2,,,,77,45
99600,note_on,40,0,9,,,,,,,,10,,,,68,45
99600,note_on,0,0,5,,,,,,,,5,,,,65,45
99600,note_off,30,0,5,,,,,,,,5,,,,67,64
99600,note_on,0,0,10,,,,,,,,11,,,,65,45
99600,note_on,40,0,3,,,,,,,,3,,,,77,45
99600,note_on,40,0,4,,,,,,,,4,,,,68,45
99600,note_off,30,0,10,,,,,,,,11,,,,67,64
99640,note_off,0,0,2,,,,,,,,2,,,,77,64
99640,note_off,40,0,2,,,,,,,,2,,,,80,64
99640,note_off,40,0,1,,,,,,,,1,,,,80,64
99640,note_off,0,0,1,,,,,,,,1,,,,77,64
99660,note_on,0,0,2,,,,,,,,2,,,,80,45
99660,note_on,20,0,2,,,,,,,,2,,,,77,45
99660,note_on,0,0,1,,,,,,,,1,,,,80,60
99660,note_on,20,0,1,,,,,,,,1,,,,77,60
99680,note_off,80,0,10,,,,,,,,11,,,,65,64
99680,note_off,80,0,3,,,,,,,,3,,,,77,64
99680,note_off,80,0,5,,,,,,,,5,,,,65,64
99680,note_off,80,0,8,,,,,,,,8,,,,77,64
99680,note_off,80,0,9,,,,,,,,10,,,,68,64
99680,note_off,80,0,4,,,,,,,,4,,,,68,64
99700,note_off,40,0,1,,,,,,,,1,,,,80,64
99700,note_off,40,0,2,,,,,,,,2,,,,80,64
99700,note_off,0,0,2,,,,,,,,2,,,,77,64
99700,note_off,0,0,1,,,,,,,,1,,,,77,64
99720,note_on,40,0,5,,,,,,,,5,,,,65,45
99720,note_on,40,0,3,,,,,,,,3,,,,77,45
99720,note_on,40,0,8,,,,,,,,8,,,,77,45
99720,note_on,40,0,10,,,,,,,,11,,,,65,45
99720,note_on,40,0,9,,,,,,,,10,,,,68,45
99720,note_on,20,0,1,,,,,,,,1,,,,77,60
99720,note_on,0,0,1,,,,,,,,1,,,,80,60
99720,note_on,0,0,2,,,,,,,,2,,,,80,45
99720,note_on,20,0,2,,,,,,,,2,,,,77,45
99720,note_on,40,0,4,,,,,,,,4,,,,68,45
99750,note_off,30,0,5,,,,,,,,5,,,,65,64
99750,note_on,0,0,10,,,,,,,,11,,,,67,45
99750,note_off,30,0,10,,,,,,,,11,,,,65,64
99750,note_on,0,0,5,,,,,,,,5,,,,67,45
99760,note_off,0,0,2,,,,,,,,2,,,,77,64
99760,note_off,40,0,2,,,,,,,,2,,,,80,64
99760,note_off,0,0,1,,,,,,,,1,,,,77,64
99760,note_off,40,0,1,,,,,,,,1,,,,80,64
99780,note_off,30,0,5,,,,,,,,5,,,,67,64
99780,note_on,0,0,1,,,,,,,,1,,,,80,60
99780,note_on,0,0,5,,,,,,,,5,,,,65,45
99780,note_on,20,0,1,,,,,,,,1,,,,77,60
99780,note_on,20,0,2,,,,,,,,2,,,,77,45
99780,note_off,30,0,10,,,,,,,,11,,,,67,64
99780,note_on,0,0,10,,,,,,,,11,,,,65,45
99780,note_on,0,0,2,,,,,,,,2,,,,80,45
99800,note_off,80,0,4,,,,,,,,4,,,,68,64
99800,note_off,80,0,3,,,,,,,,3,,,,77,64
99800,note_off,80,0,9,,,,,,,,10,,,,68,64
99800,note_off,80,0,8,,,,,,,,8,,,,77,64
99810,note_off,30,0,10,,,,,,,,11,,,,65,64
99810,note_on,0,0,10,,,,,,,,11,,,,67,45
99810,note_on,0,0,5,,,,,,,,5,,,,67,45
99810,note_off,30,0,5,,,,,,,,5,,,,65,64
99820,note_off,40,0,1,,,,,,,,1,,,,80,64
99820,note_off,0,0,2,,,,,,,,2,,,,77,64
99820,note_off,0,0,1,,,,,,,,1,,,,77,64
99820,note_off,40,0,2,,,,,,,,2,,,,80,64
99840,note_on,20,0,1,,,,,,,,1,,,,77,60
99840,note_on,0,0,1,,,,,,,,1,,,,80,60
99840,note_on,0,0,10,,,,,,,,11,,,,65,45
99840,note_off,30,0,10,,,,,,,,11,,,,67,64
99840,note_on,40,0,9,,,,,,,,10,,,,68,45
99840,note_on,20,0,2,,,,,,,,2,,,,77,45
99840,note_on,0,0,2,,,,,,,,2,,,,80,45
99840,note_off,30,0,5,,,,,,,,5,,,,67,64
99840,note_on,0,0,5,,,,,,,,5,,,,65,45
99840,note_on,40,0,4,,,,,,,,4,,,,68,45
99840,note_on,40,0,3,,,,,,,,3,,,,77,45
99840,note_on,40,0,8,,,,,,,,8,,,,77,45
99880,note_off,40,0,1,,,,,,,,1,,,,80,64
99880,note_off,0,0,1,,,,,,,,1,,,,77,64
99880,note_off,0,0,2,,,,,,,,2,,,,77,64
99880,note_off,40,0,2,,,,,,,,2,,,,80,64
99900,note_on,0,0,2,,,,,,,,2,,,,80,45
99900,note_on,0,0,1,,,,,,,,1,,,,80,60
99900,note_on,20,0,2,,,,,,,,2,,,,77,45
99900,note_on,20,0,1,,,,,,,,1,,,,77,60
99920,note_off,80,0,3,,,,,,,,3,,,,77,64
99920,note_off,80,0,5,,,,,,,,5,,,,65,64
99920,note_off,80,0,10,,,,,,,,11,,,,65,64
99920,note_off,80,0,9,,,,,,,,10,,,,68,64
99920,note_off,80,0,4,,,,,,,,4,,,,68,64
99920,note_off,80,0,8,,,,,,,,8,,,,77,64
99940,note_off,40,0,2,,,,,,,,2,,,,80,64
99940,note_off,0,0,2,,,,,,,,2,,,,77,64
99940,note_off,40,0,1,,,,,,,,1,,,,80,64
99940,note_off,0,0,1,,,,,,,,1,,,,77,64
99960,note_on,40,0,10,,,,,,,,11,,,,59,45
99960,note_on,40,0,8,,,,,,,,8,,,,77,45
99960,note_on,40,0,4,,,,,,,,4,,,,67,45
99960,note_on,20,0,1,,,,,,,,1,,,,77,60
99960,note_on,40,0,3,,,,,,,,3,,,,77,45
99960,note_on,40,0,9,,,,,,,,10,,,,67,45
99960,note_on,20,0,2,,,,,,,,2,,,,77,45
99960,note_on,40,0,5,,,,,,,,5,,,,59,45
99960,note_on,0,0,2,,,,,,,,2,,,,79,45
99960,note_on,0,0,1,,,,,,,,1,,,,79,60
99990,note_on,0,0,10,,,,,,,,11,,,,60,45
99990,note_on,0,0,5,,,,,,,,5,,,,60,45
99990,note_off,30,0,5,,,,,,,,5,,,,59,64
99990,note_off,30,0,10,,,,,,,,11,,,,59,64
100000,note_off,40,0,2,,,,,,,,2,,,,79,64
100000,note_off,0,0,1,,,,,,,,1,,,,77,64
100000,note_off,40,0,1,,,,,,,,1,,,,79,64
100000,note_off,0,0,2,,,,,,,,2,,,,77,64
100020,note_on,0,0,2,,,,,,,,2,,,,79,45
100020,note_on,20,0,2,,,,,,,,2,,,,77,45
100020,note_on,0,0,5,,,,,,,,5,,,,59,45
100020,note_on,20,0,1,,,,,,,,1,,,,77,60
100020,note_on,0,0,1,,,,,,,,1,,,,79,60
100020,note_off,30,0,5,,,,,,,,5,,,,60,64
100020,note_off,30,0,10,,,,,,,,11,,,,60,64
100020,note_on,0,0,10,,,,,,,,11,,,,59,45
100040,note_off,80,0,9,,,,,,,,10,,,,67,64
100040,note_off,80,0,4,,,,,,,,4,,,,67,64
100040,note_off,80,0,3,,,,,,,,3,,,,77,64
100040,note_off,80,0,8,,,,,,,,8,,,,77,64
100050,note_off,30,0,10,,,,,,,,11,,,,59,64
100050,note_on,0,0,10,,,,,,,,11,,,,60,45
100050,note_on,0,0,5,,,,,,,,5,,,,60,45
100050,note_off,30,0,5,,,,,,,,5,,,,59,64
100060,note_off,0,0,1,,,,,,,,1,,,,77,64
100060,note_off,40,0,1,,,,,,,,1,,,,79,64
100060,note_off,40,0,2,,,,,,,,2,,,,79,64
100060,note_off,0,0,2,,,,,,,,2,,,,77,64
100080,note_on,0,0,1,,,,,,,,1,,,,79,59
100080,note_on,40,0,9,,,,,,,,10,,,,67,44
100080,note_on,20,0,1,,,,,,,,1,,,,77,59
100080,note_on,40,0,8,,,,,,,,8,,,,77,44
100080,note_on,20,0,2,,,,,,,,2,,,,77,45
100080,note_on,40,0,4,,,,,,,,4,,,,67,44
100080,note_off,30,0,10,,,,,,,,11,,,,60,64
100080,note_on,0,0,2,,,,,,,,2,,,,79,45
100080,note_off,30,0,5,,,,,,,,5,,,,60,64
100080,note_on,0,0,5,,,,,,,,5,,,,59,45
100080,note_on,0,0,10,,,,,,,,11,,,,59,45
100080,note_on,40,0,3,,,,,,,,3,,,,77,44
100120,note_off,40,0,1,,,,,,,,1,,,,79,64
100120,note_off,0,0,1,,,,,,,,1,,,,77,64
100120,note_off,40,0,2,,,,,,,,2,,,,79,64
100120,note_off,0,0,2,,,,,,,,2,,,,77,64
100140,note_on,20,0,1,,,,,,,,1,,,,77,59
100140,note_on,0,0,1,,,,,,,,1,,,,79,59
100140,note_on,20,0,2,,,,,,,,2,,,,77,45
100140,note_on,0,0,2,,,,,,,,2,,,,79,45
100160,note_off,80,0,10,,,,,,,,11,,,,59,64
100160,note_off,80,0,3,,,,,,,,3,,,,77,64
100160,note_off,80,0,9,,,,,,,,10,,,,67,64
100160,note_off,80,0,5,,,,,,,,5,,,,59,64
100160,note_off,80,0,8,,,,,,,,8,,,,77,64
100160,note_off,80,0,4,,,,,,,,4,,,,67,64
100180,note_off,0,0,2,,,,,,,,2,,,,77,64
100180,note_off,0,0,1,,,,,,,,1,,,,77,64
100180,note_off,40,0,1,,,,,,,,1,,,,79,64
100180,note_off,40,0,2,,,,,,,,2,,,,79,64
100200,note_on,0,0,2,,,,,,,,2,,,,79,45
100200,note_on,40,0,10,,,,,,,,11,,,,59,44
100200,note_on,40,0,4,,,,,,,,4,,,,67,43
100200,note_on,20,0,2,,,,,,,,2,,,,77,45
100200,note_on,40,0,3,,,,,,,,3,,,,77,43
100200,note_on,20,0,1,,,,,,,,1,,,,77,58
100200,note_on,0,0,1,,,,,,,,1,,,,79,58
100200,note_on,40,0,9,,,,,,,,10,,,,67,43
100200,note_on,40,0,5,,,,,,,,5,,,,59,44
100200,note_on,40,0,8,,,,,,,,8,,,,77,43
100230,note_on,0,0,5,,,,,,,,5,,,,60,44
100230,note_off,30,0,5,,,,,,,,5,,,,59,64
100230,note_on,0,0,10,,,,,,,,11,,,,60,44
100230,note_off,30,0,10,,,,,,,,11,,,,59,64
100240,note_off,40,0,2,,,,,,,,2,,,,79,64
100240,note_off,40,0,1,,,,,,,,1,,,,79,64
100240,note_off,0,0,2,,,,,,,,2,,,,77,64
100240,note_off,0,0,1,,,,,,,,1,,,,77,64
100260,note_on,0,0,2,,,,,,,,2,,,,79,45
100260,note_off,30,0,10,,,,,,,,11,,,,60,64
100260,note_on,0,0,10,,,,,,,,11,,,,59,44
100260,note_on,20,0,2,,,,,,,,2,,,,77,45
100260,note_on,0,0,5,,,,,,,,5,,,,59,44
100260,note_off,30,0,5,,,,,,,,5,,,,60,64
100260,note_on,0,0,1,,,,,,,,1,,,,79,57
100260,note_on,20,0,1,,,,,,,,1,,,,77,57
100280,note_off,80,0,4,,,,,,,,4,,,,67,64
100280,note_off,80,0,8,,,,,,,,8,,,,77,64
100280,note_off,80,0,3,,,,,,,,3,,,,77,64
100280,note_off,80,0,9,,,,,,,,10,,,,67,64
100290,note_off,30,0,5,,,,,,,,5,,,,59,64
100290,note_off,30,0,10,,,,,,,,11,,,,59,64
100290,note_on,0,0,10,,,,,,,,11,,,,60,44
100290,note_on,0,0,5,,,,,,,,5,,,,60,44
100300,note_off,0,0,1,,,,,,,,1,,,,77,64
100300,note_off,40,0,1,,,,,,,,1,,,,79,64
100300,note_off,40,0,2,,,,,,,,2,,,,79,64
100300,note_off,0,0,2,,,,,,,,2,,,,77,64
100320,note_on,40,0,3,,,,,,,,3,,,,77,42
100320,note_on,0,0,2,,,,,,,,2,,,,79,45
100320,note_on,20,0,2,,,,,,,,2,,,,77,45
100320,note_on,40,0,8,,,,,,,,8,,,,77,42
100320,note_on,0,0,1,,,,,,,,1,,,,79,56
100320,note_on,40,0,9,,,,,,,,10,,,,67,42
100320,note_off,30,0,5,,,,,,,,5,,,,60,64
100320,note_on,0,0,5,,,,,,,,5,,,,59,44
100320,note_on,40,0,4,,,,,,,,4,,,,67,42
100320,note_on,20,0,1,,,,,,,,1,,,,77,56
100320,note_off,30,0,10,,,,,,,,11,,,,60,64
100320,note_on,0,0,10,,,,,,,,11,,,,59,44
100360,note_off,0,0,1,,,,,,,,1,,,,77,64
100360,note_off,40,0,1,,,,,,,,1,,,,79,64
100360,note_off,40,0,2,,,,,,,,2,,,,79,64
100360,note_off,0,0,2,,,,,,,,2,,,,77,64
100380,note_on,0,0,2,,,,,,,,2,,,,79,45
100380,note_on,20,0,2,,,,,,,,2,,,,77,45
100380,note_on,20,0,1,,,,,,,,1,,,,77,55
100380,note_on,0,0,1,,,,,,,,1,,,,79,55
100400,note_off,80,0,8,,,,,,,,8,,,,77,64
100400,note_off,80,0,5,,,,,,,,5,,,,59,64
100400,note_off,80,0,9,,,,,,,,10,,,,67,64
100400,note_off,80,0,10,,,,,,,,11,,,,59,64
100400,note_off,80,0,3,,,,,,,,3,,,,77,64
100400,note_off,80,0,4,,,,,,,,4,,,,67,64
100420,note_off,0,0,1,,,,,,,,1,,,,77,64
100420,note_off,40,0,1,,,,,,,,1,,,,79,64
100420,note_off,0,0,2,,,,,,,,2,,,,77,64
100420,note_off,40,0,2,,,,,,,,2,,,,79,64
100440,note_on,20,0,1,,,,,,,,1,,,,75,54
100440,note_on,40,0,8,,,,,,,,8,,,,75,41
100440,note_on,0,0,1,,,,,,,,1,,,,79,54
100440,note_on,40,0,5,,,,,,,,5,,,,60,43
100440,note_on,20,0,2,,,,,,,,2,,,,75,45
100440,note_on,40,0,9,,,,,,,,10,,,,79,41
100440,note_on,0,0,2,,,,,,,,2,,,,79,45
100440,note_on,40,0,4,,,,,,,,4,,,,79,41
100440,note_on,40,0,3,,,,,,,,3,,,,75,41
100440,note_on,40,0,10,,,,,,,,11,,,,60,43
100470,note_off,30,0,10,,,,,,,,11,,,,60,64
100470,note_on,0,0,10,,,,,,,,11,,,,61,43
100470,note_off,30,0,5,,,,,,,,5,,,,60,64
100470,note_on,0,0,5,,,,,,,,5,,,,61,43
100480,note_off,0,0,2,,,,,,,,2,,,,75,64
100480,note_off,40,0,2,,,,,,,,2,,,,79,64
100480,note_off,40,0,1,,,,,,,,1,,,,79,64
100480,note_off,0,0,1,,,,,,,,1,,,,75,64
100500,note_off,30,0,10,,,,,,,,11,,,,61,64
100500,note_on,0,0,10,,,,,,,,11,,,,60,43
100500,note_on,0,0,2,,,,,,,,2,,,,79,45
100500,note_off,30,0,5,,,,,,,,5,,,,61,64
100500,note_on,20,0,2,,,,,,,,2,,,,75,45
100500,note_on,0,0,1,,,,,,,,1,,,,79,53
100500,note_on,20,0,1,,,,,,,,1,,,,75,53
100500,note_on,0,0,5,,,,,,,,5,,,,60,43
100520,note_off,80,0,3,,,,,,,,3,,,,75,64
100520,note_off,80,0,9,,,,,,,,10,,,,79,64
100520,note_off,80,0,4,,,,,,,,4,,,,79,64
100520,note_off,80,0,8,,,,,,,,8,,,,75,64
100530,note_on,0,0,5,,,,,,,,5,,,,61,43
100530,note_off,30,0,5,,,,,,,,5,,,,60,64
100530,note_off,30,0,10,,,,,,,,11,,,,60,64
100530,note_on,0,0,10,,,,,,,,11,,,,61,43
100540,note_off,40,0,1,,,,,,,,1,,,,79,64
100540,note_off,0,0,1,,,,,,,,1,,,,75,64
100540,note_off,40,0,2,,,,,,,,2,,,,79,64
100540,note_off,0,0,2,,,,,,,,2,,,,75,64
100560,note_off,30,0,5,,,,,,,,5,,,,61,64
100560,note_on,0,0,10,,,,,,,,11,,,,60,43
100560,note_on,0,0,1,,,,,,,,1,,,,79,52
100560,note_on,20,0,1,,,,,,,,1,,,,75,52
100560,note_off,30,0,10,,,,,,,,11,,,,61,64
100560,note_on,40,0,3,,,,,,,,3,,,,75,40
100560,note_on,20,0,2,,,,,,,,2,,,,75,45
100560,note_on,0,0,2,,,,,,,,2,,,,79,45
100560,note_on,40,0,4,,,,,,,,4,,,,79,40
100560,note_on,40,0,9,,,,,,,,10,,,,79,40
100560,note_on,40,0,8,,,,,,,,8,,,,75,40
100560,note_on,0,0,5,,,,,,,,5,,,,60,43
100600,note_off,40,0,2,,,,,,,,2,,,,79,64
100600,note_off,0,0,2,,,,,,,,2,,,,75,64
100600,note_off,0,0,1,,,,,,,,1,,,,75,64
100600,note_off,40,0,1,,,,,,,,1,,,,79,64
100620,note_on,20,0,1,,,,,,,,1,,,,75,51
100620,note_on,0,0,2,,,,,,,,2,,,,79,45
100620,note_on,20,0,2,,,,,,,,2,,,,75,45
100620,note_on,0,0,1,,,,,,,,1,,,,79,51
100640,note_off,80,0,8,,,,,,,,8,,,,75,64
100640,note_off,80,0,9,,,,,,,,10,,,,79,64
100640,note_off,80,0,4,,,,,,,,4,,,,79,64
100640,note_off,80,0,5,,,,,,,,5,,,,60,64
100640,note_off,80,0,10,,,,,,,,11,,,,60,64
100640,note_off,80,0,3,,,,,,,,3,,,,75,64
100660,note_off,0,0,1,,,,,,,,1,,,,75,64
100660,note_off,0,0,2,,,,,,,,2,,,,75,64
100660,note_off,40,0,2,,,,,,,,2,,,,79,64
100660,note_off,40,0,1,,,,,,,,1,,,,79,64
100680,note_on,40,0,5,,,,,,,,5,,,,60,42
100680,note_on,40,0,10,,,,,,,,11,,,,60,42
100680,note_on,40,0,8,,,,,,,,8,,,,75,39
100680,note_on,40,0,3,,,,,,,,3,,,,75,39
100680,note_on,40,0,4,,,,,,,,4,,,,79,39
100680,note_on,40,0,9,,,,,,,,10,,,,79,39
100680,note_on,0,0,1,,,,,,,,1,,,,79,50
100680,note_on,20,0,1,,,,,,,,1,,,,75,50
100680,note_on,20,0,2,,,,,,,,2,,,,75,45
100680,note_on,0,0,2,,,,,,,,2,,,,79,45
100710,note_off,30,0,5,,,,,,,,5,,,,60,64
100710,note_on,0,0,10,,,,,,,,11,,,,61,42
100710,note_off,30,0,10,,,,,,,,11,,,,60,64
100710,note_on,0,0,5,,,,,,,,5,,,,61,42
100720,note_off,0,0,2,,,,,,,,2,,,,75,64
100720,note_off,40,0,2,,,,,,,,2,,,,79,64
100720,note_off,40,0,1,,,,,,,,1,,,,79,64
100720,note_off,0,0,1,,,,,,,,1,,,,75,64
100740,note_off,30,0,5,,,,,,,,5,,,,61,64
100740,note_on,0,0,10,,,,,,,,11,,,,60,42
100740,note_off,30,0,10,,,,,,,,11,,,,61,64
100740,note_on,0,0,5,,,,,,,,5,,,,60,42
100740,note_on,0,0,2,,,,,,,,2,,,,79,45
100740,note_on,20,0,2,,,,,,,,2,,,,75,45
100740,note_on,20,0,1,,,,,,,,1,,,,75,49
100740,note_on,0,0,1,,,,,,,,1,,,,79,49
100760,note_off,80,0,9,,,,,,,,10,,,,79,64
100760,note_off,80,0,3,,,,,,,,3,,,,75,64
100760,note_off,80,0,8,,,,,,,,8,,,,75,64
100760,note_off,80,0,4,,,,,,,,4,,,,79,64
100770,note_off,30,0,5,,,,,,,,5,,,,60,64
100770,note_on,0,0,5,,,,,,,,5,,,,61,42
100770,note_off,30,0,10,,,,,,,,11,,,,60,64
100770,note_on,0,0,10,,,,,,,,11,,,,61,42
100780,note_off,40,0,1,,,,,,,,1,,,,79,64
100780,note_off,0,0,1,,,,,,,,1,,,,75,64
100780,note_off,0,0,2,,,,,,,,2,,,,75,64
100780,note_off,40,0,2,,,,,,,,2,,,,79,64
100800,note_on,40,0,9,,,,,,,,10,,,,79,38
100800,note_on,20,0,1,,,,,,,,1,,,,75,48
100800,note_on,40,0,8,,,,,,,,8,,,,75,38
100800,note_on,40,0,4,,,,,,,,4,,,,79,38
100800,note_on,0,0,1,,,,,,,,1,,,,79,48
100800,note_off,30,0,5,,,,,,,,5,,,,61,64
100800,note_on,0,0,10,,,,,,,,11,,,,60,42
100800,note_on,0,0,2,,,,,,,,2,,,,79,45
100800,note_on,20,0,2,,,,,,,,2,,,,75,45
100800,note_off,30,0,10,,,,,,,,11,,,,61,64
100800,note_on,40,0,3,,,,,,,,3,,,,75,38
100800,note_on,0,0,5,,,,,,,,5,,,,60,42
100840,note_off,40,0,1,,,,,,,,1,,,,79,64
100840,note_off,0,0,2,,,,,,,,2,,,,75,64
100840,note_off,40,0,2,,,,,,,,2,,,,79,64
100840,note_off,0,0,1,,,,,,,,1,,,,75,64
100860,note_on,20,0,1,,,,,,,,1,,,,75,47
100860,note_on,0,0,2,,,,,,,,2,,,,79,45
100860,note_on,0,0,1,,,,,,,,1,,,,79,47
100860,note_on,20,0,2,,,,,,,,2,,,,75,45
100880,note_off,80,0,9,,,,,,,,10,,,,79,64
100880,note_off,80,0,3,,,,,,,,3,,,,75,64
100880,note_off,80,0,5,,,,,,,,5,,,,60,64
100880,note_off,80,0,4,,,,,,,,4,,,,79,64
100880,note_off,80,0,8,,,,,,,,8,,,,75,64
100880,note_off,80,0,10,,,,,,,,11,,,,60,64
100900,note_off,40,0,1,,,,,,,,1,,,,79,64
100900,note_off,0,0,2,,,,,,,,2,,,,75,64
100900,note_off,0,0,1,,,,,,,,1,,,,75,64
100900,note_off,40,0,2,,,,,,,,2,,,,79,64
100920,note_on,40,0,4,,,,,,,,4,,,,77,37
100920,note_on,0,0,1,,,,,,,,1,,,,77,46
100920,note_on,20,0,1,,,,,,,,1,,,,75,46
100920,note_on,40,0,8,,,,,,,,8,,,,75,37
100920,note_on,40,0,3,,,,,,,,3,,,,75,37
100920,note_on,20,0,2,,,,,,,,2,,,,75,45
100920,note_on,0,0,2,,,,,,,,2,,,,77,45
100920,note_on,40,0,9,,,,,,,,10,,,,77,37
100920,note_on,40,0,10,,,,,,,,11,,,,61,41
100920,note_on,40,0,5,,,,,,,,5,,,,61,41
100950,note_off,30,0,5,,,,,,,,5,,,,61,64
100950,note_on,0,0,5,,,,,,,,5,,,,63,41
100950,note_on,0,0,10,,,,,,,,11,,,,63,41
100950,note_off,30,0,10,,,,,,,,11,,,,61,64
100960,note_off,40,0,2,,,,,,,,2,,,,77,64
100960,note_off,0,0,2,,,,,,,,2,,,,75,64
100960,note_off,0,0,1,,,,,,,,1,,,,75,64
100960,note_off,40,0,1,,,,,,,,1,,,,77,64
100980,note_on,20,0,1,,,,,,,,1,,,,75,45
100980,note_on,0,0,1,,,,,,,,1,,,,77,45
100980,note_on,0,0,2,,,,,,,,2,,,,77,44
100980,note_on,20,0,2,,,,,,,,2,,,,75,44
100980,note_on,0,0,10,,,,,,,,11,,,,61,41
100980,note_on,0,0,5,,,,,,,,5,,,,61,41
100980,note_off,30,0,5,,,,,,,,5,,,,63,64
100980,note_off,30,0,10,,,,,,,,11,,,,63,64
101000,note_off,80,0,4,,,,,,,,4,,,,77,64
101000,note_off,80,0,9,,,,,,,,10,,,,77,64
101000,note_off,80,0,8,,,,,,,,8,,,,75,64
101000,note_off,80,0,3,,,,,,,,3,,,,75,64
101010,note_off,30,0,10,,,,,,,,11,,,,61,64
101010,note_on,0,0,5,,,,,,,,5,,,,63,41
101010,note_off,30,0,5,,,,,,,,5,,,,61,64
101010,note_on,0,0,10,,,,,,,,11,,,,63,41
101020,note_off,0,0,1,,,,,,,,1,,,,75,64
101020,note_off,40,0,1,,,,,,,,1,,,,77,64
101020,note_off,40,0,2,,,,,,,,2,,,,77,64
101020,note_off,0,0,2,,,,,,,,2,,,,75,64
101040,note_on,40,0,4,,,,,,,,4,,,,77,36
101040,note_on,0,0,1,,,,,,,,1,,,,77,44
101040,note_on,20,0,1,,,,,,,,1,,,,75,44
101040,note_on,40,0,3,,,,,,,,3,,,,75,36
101040,note_on,0,0,5,,,,,,,,5,,,,61,41
101040,note_on,0,0,2,,,,,,,,2,,,,77,43
101040,note_on,40,0,9,,,,,,,,10,,,,77,36
101040,note_off,30,0,10,,,,,,,,11,,,,63,64
101040,note_on,20,0,2,,,,,,,,2,,,,75,43
101040,note_on,40,0,8,,,,,,,,8,,,,75,36
101040,note_on,0,0,10,,,,,,,,11,,,,61,41
101040,note_off,30,0,5,,,,,,,,5,,,,63,64
101080,note_off,40,0,1,,,,,,,,1,,,,77,64
101080,note_off,0,0,1,,,,,,,,1,,,,75,64
101080,note_off,40,0,2,,,,,,,,2,,,,77,64
101080,note_off,0,0,2,,,,,,,,2,,,,75,64
101100,note_on,20,0,1,,,,,,,,1,,,,75,43
101100,note_on,0,0,1,,,,,,,,1,,,,77,43
101100,note_on,0,0,2,,,,,,,,2,,,,77,42
101100,note_on,20,0,2,,,,,,,,2,,,,75,42
101120,note_off,80,0,3,,,,,,,,3,,,,75,64
101120,note_off,80,0,5,,,,,,,,5,,,,61,64
101120,note_off,80,0,10,,,,,,,,11,,,,61,64
101120,note_off,80,0,4,,,,,,,,4,,,,77,64
101120,note_off,80,0,9,,,,,,,,10,,,,77,64
101120,note_off,80,0,8,,,,,,,,8,,,,75,64
101140,note_off,40,0,2,,,,,,,,2,,,,77,64
101140,note_off,0,0,1,,,,,,,,1,,,,75,64
101140,note_off,0,0,2,,,,,,,,2,,,,75,64
101140,note_off,40,0,1,,,,,,,,1,,,,77,64
101160,note_on,40,0,4,,,,,,,,4,,,,77,35
101160,note_on,40,0,9,,,,,,,,10,,,,77,35
101160,note_on,40,0,10,,,,,,,,11,,,,61,40
101160,note_on,40,0,8,,,,,,,,8,,,,75,35
101160,note_on,20,0,2,,,,,,,,2,,,,75,41
101160,note_on,0,0,2,,,,,,,,2,,,,77,41
101160,note_on,40,0,5,,,,,,,,5,,,,61,40
101160,note_on,20,0,1,,,,,,,,1,,,,75,42
101160,note_on,0,0,1,,,,,,,,1,,,,77,42
101160,note_on,40,0,3,,,,,,,,3,,,,75,35
101190,note_off,30,0,5,,,,,,,,5,,,,61,64
101190,note_on,0,0,5,,,,,,,,5,,,,63,40
101190,note_off,30,0,10,,,,,,,,11,,,,61,64
101190,note_on,0,0,10,,,,,,,,11,,,,63,40
101200,note_off,0,0,1,,,,,,,,1,,,,75,64
101200,note_off,40,0,2,,,,,,,,2,,,,77,64
101200,note_off,0,0,2,,,,,,,,2,,,,75,64
101200,note_off,40,0,1,,,,,,,,1,,,,77,64
101220,note_on,0,0,1,,,,,,,,1,,,,77,41
101220,note_on,0,0,10,,,,,,,,11,,,,61,40
101220,note_on,0,0,5,,,,,,,,5,,,,61,40
101220,note_off,30,0,5,,,,,,,,5,,,,63,64
101220,note_on,20,0,1,,,,,,,,1,,,,75,41
101220,note_on,20,0,2,,,,,,,,2,,,,75,40
101220,note_off,30,0,10,,,,,,,,11,,,,63,64
101220,note_on,0,0,2,,,,,,,,2,,,,77,40
101240,note_off,80,0,4,,,,,,,,4,,,,77,64
101240,note_off,80,0,9,,,,,,,,10,,,,77,64
101240,note_off,80,0,3,,,,,,,,3,,,,75,64
101240,note_off,80,0,8,,,,,,,,8,,,,75,64
101250,note_on,0,0,5,,,,,,,,5,,,,63,40
101250,note_off,30,0,10,,,,,,,,11,,,,61,64
101250,note_off,30,0,5,,,,,,,,5,,,,61,64
101250,note_on,0,0,10,,,,,,,,11,,,,63,40
101260,note_off,40,0,2,,,,,,,,2,,,,77,64
101260,note_off,0,0,2,,,,,,,,2,,,,75,64
101260,note_off,0,0,1,,,,,,,,1,,,,75,64
101260,note_off,40,0,1,,,,,,,,1,,,,77,64
101280,note_on,40,0,9,,,,,,,,10,,,,77,34
101280,note_on,40,0,4,,,,,,,,4,,,,77,34
101280,note_on,0,0,1,,,,,,,,1,,,,77,40
101280,note_on,20,0,1,,,,,,,,1,,,,75,40
101280,note_off,30,0,10,,,,,,,,11,,,,63,64
101280,note_on,20,0,2,,,,,,,,2,,,,75,39
101280,note_on,40,0,3,,,,,,,,3,,,,75,34
101280,note_on,0,0,5,,,,,,,,5,,,,61,40
101280,note_off,30,0,5,,,,,,,,5,,,,63,64
101280,note_on,0,0,10,,,,,,,,11,,,,61,40
101280,note_on,40,0,8,,,,,,,,8,,,,75,34
101280,note_on,0,0,2,,,,,,,,2,,,,77,39
101320,note_off,40,0,1,,,,,,,,1,,,,77,64
101320,note_off,0,0,2,,,,,,,,2,,,,75,64
101320,note_off,0,0,1,,,,,,,,1,,,,75,64
101320,note_off,40,0,2,,,,,,,,2,,,,77,64
101340,note_on,20,0,2,,,,,,,,2,,,,75,38
101340,note_on,0,0,2,,,,,,,,2,,,,77,38
101340,note_on,20,0,1,,,,,,,,1,,,,75,39
101340,note_on,0,0,1,,,,,,,,1,,,,77,39
101360,note_off,80,0,10,,,,,,,,11,,,,61,64
101360,note_off,80,0,3,,,,,,,,3,,,,75,64
101360,note_off,80,0,5,,,,,,,,5,,,,61,64
101360,note_off,80,0,8,,,,,,,,8,,,,75,64
101360,note_off,80,0,4,,,,,,,,4,,,,77,64
101360,note_off,80,0,9,,,,,,,,10,,,,77,64
101380,note_off,40,0,1,,,,,,,,1,,,,77,64
101380,note_off,0,0,1,,,,,,,,1,,,,75,64
101380,note_off,40,0,2,,,,,,,,2,,,,77,64
101380,note_off,0,0,2,,,,,,,,2,,,,75,64
101400,note_on,40,0,3,,,,,,,,3,,,,73,33
101400,note_on,20,0,2,,,,,,,,2,,,,73,37
101400,note_on,40,0,10,,,,,,,,11,,,,61,38
101400,note_on,40,0,5,,,,,,,,5,,,,61,38
101400,note_on,40,0,9,,,,,,,,10,,,,77,33
101400,note_on,40,0,8,,,,,,,,8,,,,73,33
101400,note_on,0,0,2,,,,,,,,2,,,,77,37
101400,note_on,20,0,1,,,,,,,,1,,,,73,38
101400,note_on,0,0,1,,,,,,,,1,,,,77,38
101400,note_on,40,0,4,,,,,,,,4,,,,77,33
101430,note_on,0,0,5,,,,,,,,5,,,,63,38
101430,note_on,0,0,10,,,,,,,,11,,,,63,38
101430,note_off,30,0,10,,,,,,,,11,,,,61,64
101430,note_off,30,0,5,,,,,,,,5,,,,61,64
101440,note_off,40,0,2,,,,,,,,2,,,,77,64
101440,note_off,40,0,1,,,,,,,,1,,,,77,64
101440,note_off,0,0,1,,,,,,,,1,,,,73,64
101440,note_off,0,0,2,,,,,,,,2,,,,73,64
101460,note_on,0,0,5,,,,,,,,5,,,,61,38
101460,note_off,30,0,5,,,,,,,,5,,,,63,64
101460,note_on,0,0,1,,,,,,,,1,,,,77,37
101460,note_on,20,0,2,,,,,,,,2,,,,73,36
101460,note_on,0,0,2,,,,,,,,2,,,,77,36
101460,note_on,20,0,1,,,,,,,,1,,,,73,37
101460,note_on,0,0,10,,,,,,,,11,,,,61,38
101460,note_off,30,0,10,,,,,,,,11,,,,63,64
101480,note_off,80,0,4,,,,,,,,4,,,,77,64
101480,note_off,80,0,3,,,,,,,,3,,,,73,64
101480,note_off,80,0,8,,,,,,,,8,,,,73,64
101480,note_off,80,0,9,,,,,,,,10,,,,77,64
101490,note_on,0,0,5,,,,,,,,5,,,,63,38
101490,note_off,30,0,5,,,,,,,,5,,,,61,64
101490,note_on,0,0,10,,,,,,,,11,,,,63,38
101490,note_off,30,0,10,,,,,,,,11,,,,61,64
101500,note_off,40,0,1,,,,,,,,1,,,,77,64
101500,note_off,0,0,1,,,,,,,,1,,,,73,64
101500,note_off,40,0,2,,,,,,,,2,,,,77,64
101500,note_off,0,0,2,,,,,,,,2,,,,73,64
101520,note_on,0,0,10,,,,,,,,11,,,,61,38
101520,note_on,40,0,4,,,,,,,,4,,,,77,32
101520,note_on,40,0,3,,,,,,,,3,,,,73,32
101520,note_off,30,0,10,,,,,,,,11,,,,63,64
101520,note_on,40,0,8,,,,,,,,8,,,,73,32
101520,note_off,30,0,5,,,,,,,,5,,,,63,64
101520,note_on,20,0,2,,,,,,,,2,,,,73,35
101520,note_on,0,0,2,,,,,,,,2,,,,77,35
101520,note_on,40,0,9,,,,,,,,10,,,,77,32
101520,note_on,0,0,5,,,,,,,,5,,,,61,38
101520,note_on,0,0,1,,,,,,,,1,,,,77,36
101520,note_on,20,0,1,,,,,,,,1,,,,73,36
101560,note_off,0,0,1,,,,,,,,1,,,,73,64
101560,note_off,40,0,2,,,,,,,,2,,,,77,64
101560,note_off,0,0,2,,,,,,,,2,,,,73,64
101560,note_off,40,0,1,,,,,,,,1,,,,77,64
101580,note_on,20,0,2,,,,,,,,2,,,,73,34
101580,note_on,0,0,2,,,,,,,,2,,,,77,34
101580,note_on,20,0,1,,,,,,,,1,,,,73,35
101580,note_on,0,0,1,,,,,,,,1,,,,77,35
101600,note_off,80,0,10,,,,,,,,11,,,,61,64
101600,note_off,80,0,4,,,,,,,,4,,,,77,64
101600,note_off,80,0,9,,,,,,,,10,,,,77,64
101600,note_off,80,0,8,,,,,,,,8,,,,73,64
101600,note_off,80,0,5,,,,,,,,5,,,,61,64
101600,note_off,80,0,3,,,,,,,,3,,,,73,64
101620,note_off,0,0,1,,,,,,,,1,,,,73,64
101620,note_off,40,0,1,,,,,,,,1,,,,77,64
101620,note_off,0,0,2,,,,,,,,2,,,,73,64
101620,note_off,40,0,2,,,,,,,,2,,,,77,64
101640,note_on,40,0,10,,,,,,,,11,,,,61,34
101640,note_on,0,0,1,,,,,,,,1,,,,77,34
101640,note_on,20,0,1,,,,,,,,1,,,,73,34
101640,note_on,0,0,2,,,,,,,,2,,,,77,33
101640,note_on,20,0,2,,,,,,,,2,,,,73,33
101640,note_on,40,0,8,,,,,,,,8,,,,73,31
101640,note_on,40,0,3,,,,,,,,3,,,,73,31
101640,note_on,40,0,4,,,,,,,,4,,,,77,31
101640,note_on,40,0,5,,,,,,,,5,,,,61,34
101640,note_on,40,0,9,,,,,,,,10,,,,77,31
101670,note_off,30,0,5,,,,,,,,5,,,,61,64
101670,note_on,0,0,5,,,,,,,,5,,,,63,33
101670,note_on,0,0,10,,,,,,,,11,,,,63,33
101670,note_off,30,0,10,,,,,,,,11,,,,61,64
101680,note_off,0,0,2,,,,,,,,2,,,,73,64
101680,note_off,40,0,2,,,,,,,,2,,,,77,64
101680,note_off,40,0,1,,,,,,,,1,,,,77,64
101680,note_off,0,0,1,,,,,,,,1,,,,73,64
101700,note_on,0,0,10,,,,,,,,11,,,,61,32
101700,note_off,30,0,10,,,,,,,,11,,,,63,64
101700,note_on,0,0,1,,,,,,,,1,,,,77,33
101700,note_on,0,0,5,,,,,,,,5,,,,61,32
101700,note_off,30,0,5,,,,,,,,5,,,,63,64
101700,note_on,20,0,1,,,,,,,,1,,,,73,33
101700,note_on,20,0,2,,,,,,,,2,,,,73,32
101700,note_on,0,0,2,,,,,,,,2,,,,77,32
101720,note_off,80,0,4,,,,,,,,4,,,,77,64
101720,note_off,80,0,8,,,,,,,,8,,,,73,64
101720,note_off,80,0,9,,,,,,,,10,,,,77,64
101720,note_off,80,0,3,,,,,,,,3,,,,73,64
101730,note_on,0,0,10,,,,,,,,11,,,,63,31
101730,note_on,0,0,5,,,,,,,,5,,,,63,31
101730,note_off,30,0,5,,,,,,,,5,,,,61,64
101730,note_off,30,0,10,,,,,,,,11,,,,61,64
101740,note_off,0,0,2,,,,,,,,2,,,,73,64
101740,note_off,40,0,1,,,,,,,,1,,,,77,64
101740,note_off,0,0,1,,,,,,,,1,,,,73,64
101740,note_off,40,0,2,,,,,,,,2,,,,77,64
101760,note_on,0,0,2,,,,,,,,2,,,,77,31
101760,note_on,40,0,3,,,,,,,,3,,,,73,30
101760,note_on,20,0,2,,,,,,,,2,,,,73,31
101760,note_on,40,0,8,,,,,,,,8,,,,73,30
101760,note_off,30,0,5,,,,,,,,5,,,,63,64
101760,note_on,0,0,5,,,,,,,,5,,,,61,30
101760,note_on,40,0,4,,,,,,,,4,,,,77,30
101760,note_on,20,0,1,,,,,,,,1,,,,73,32
101760,note_off,30,0,10,,,,,,,,11,,,,63,64
101760,note_on,0,0,10,,,,,,,,11,,,,61,30
101760,note_on,0,0,1,,,,,,,,1,,,,77,32
101760,note_on,40,0,9,,,,,,,,10,,,,77,30
101800,note_off,0,0,2,,,,,,,,2,,,,73,64
101800,note_off,40,0,2,,,,,,,,2,,,,77,64
101800,note_off,40,0,1,,,,,,,,1,,,,77,64
101800,note_off,0,0,1,,,,,,,,1,,,,73,64
101820,note_on,20,0,1,,,,,,,,1,,,,73,30
101820,note_on,0,0,1,,,,,,,,1,,,,77,30
101820,note_on,0,0,2,,,,,,,,2,,,,77,30
101820,note_on,20,0,2,,,,,,,,2,,,,73,30
101840,note_off,80,0,3,,,,,,,,3,,,,73,64
101840,note_off,80,0,4,,,,,,,,4,,,,77,64
101840,note_off,80,0,5,,,,,,,,5,,,,61,64
101840,note_off,80,0,8,,,,,,,,8,,,,73,64
101840,note_off,80,0,9,,,,,,,,10,,,,77,64
101840,note_off,80,0,10,,,,,,,,11,,,,61,64
101860,note_off,40,0,2,,,,,,,,2,,,,77,64
101860,note_off,0,0,1,,,,,,,,1,,,,73,64
101860,note_off,0,0,2,,,,,,,,2,,,,73,64
101860,note_off,40,0,1,,,,,,,,1,,,,77,64
101880,note_on,40,0,5,,,,,,,,5,,,,60,30
101880,note_on,40,0,9,,,,,,,,10,,,,79,30
101880,note_on,40,0,10,,,,,,,,11,,,,60,30
101880,note_on,40,0,3,,,,,,,,3,,,,76,30
101880,note_on,40,0,8,,,,,,,,8,,,,76,30
101880,note_on,20,0,2,,,,,,,,2,,,,72,30
101880,note_on,0,0,2,,,,,,,,2,,,,76,30
101880,note_on,0,0,1,,,,,,,,1,,,,76,30
101880,note_on,40,0,4,,,,,,,,4,,,,79,30
101880,note_on,20,0,1,,,,,,,,1,,,,72,30
101910,note_off,30,0,10,,,,,,,,11,,,,60,64
101910,note_on,0,0,10,,,,,,,,11,,,,61,30
101910,note_on,0,0,5,,,,,,,,5,,,,61,30
101910,note_off,30,0,5,,,,,,,,5,,,,60,64
101920,note_off,40,0,1,,,,,,,,1,,,,76,64
101920,note_off,40,0,2,,,,,,,,2,,,,76,64
101940,note_on,0,0,5,,,,,,,,5,,,,60,30
101940,note_off,30,0,5,,,,,,,,5,,,,61,64
101940,note_off,30,0,10,,,,,,,,11,,,,61,64
101940,note_on,20,0,2,,,,,,,,2,,,,76,30
101940,note_on,0,0,10,,,,,,,,11,,,,60,30
101940,note_on,20,0,1,,,,,,,,1,,,,76,30
101960,note_off,80,0,9,,,,,,,,10,,,,79,64
101960,note_off,80,0,3,,,,,,,,3,,,,76,64
101960,note_off,80,0,4,,,,,,,,4,,,,79,64
101960,note_off,80,0,8,,,,,,,,8,,,,76,64
101970,note_off,30,0,5,,,,,,,,5,,,,60,64
101970,note_off,30,0,10,,,,,,,,11,,,,60,64
101970,note_on,0,0,5,,,,,,,,5,,,,61,30
101970,note_on,0,0,10,,,,,,,,11,,,,61,30
101980,note_off,40,0,2,,,,,,,,2,,,,76,64
101980,note_off,40,0,1,,,,,,,,1,,,,76,64
102000,note_on,20,0,2,,,,,,,,2,,,,76,30
102000,note_off,30,0,5,,,,,,,,5,,,,61,64
102000,note_on,0,0,5,,,,,,,,5,,,,60,30
102000,note_off,30,0,10,,,,,,,,11,,,,61,64
102000,note_on,40,0,9,,,,,,,,10,,,,79,31
102000,note_on,40,0,8,,,,,,,,8,,,,76,31
102000,note_on,0,0,10,,,,,,,,11,,,,60,30
102000,note_on,40,0,3,,,,,,,,3,,,,76,31
102000,note_on,40,0,4,,,,,,,,4,,,,79,31
102000,note_on,20,0,1,,,,,,,,1,,,,76,30
102040,note_off,40,0,2,,,,,,,,2,,,,76,64
102040,note_off,40,0,1,,,,,,,,1,,,,76,64
102060,note_on,20,0,1,,,,,,,,1,,,,76,31
102060,note_on,20,0,2,,,,,,,,2,,,,76,30
102080,note_off,80,0,3,,,,,,,,3,,,,76,64
102080,note_off,80,0,4,,,,,,,,4,,,,79,64
102080,note_off,80,0,10,,,,,,,,11,,,,60,64
102080,note_off,80,0,5,,,,,,,,5,,,,60,64
102080,note_off,80,0,8,,,,,,,,8,,,,76,64
102080,note_off,80,0,9,,,,,,,,10,,,,79,64
102100,note_off,40,0,1,,,,,,,,1,,,,76,64
102100,note_off,40,0,2,,,,,,,,2,,,,76,64
102120,note_on,40,0,9,,,,,,,,10,,,,79,32
102120,note_on,20,0,1,,,,,,,,1,,,,76,32
102120,note_on,20,0,2,,,,,,,,2,,,,76,30
102120,note_on,40,0,10,,,,,,,,11,,,,60,31
102120,note_on,40,0,5,,,,,,,,5,,,,60,31
102120,note_on,40,0,8,,,,,,,,8,,,,76,32
102120,note_on,40,0,3,,,,,,,,3,,,,76,32
102120,note_on,40,0,4,,,,,,,,4,,,,79,32
102150,note_off,30,0,10,,,,,,,,11,,,,60,64
102150,note_on,0,0,10,,,,,,,,11,,,,61,31
102150,note_on,0,0,5,,,,,,,,5,,,,61,31
102150,note_off,30,0,5,,,,,,,,5,,,,60,64
102160,note_off,40,0,1,,,,,,,,1,,,,76,64
102160,note_off,40,0,2,,,,,,,,2,,,,76,64
102180,note_on,0,0,5,,,,,,,,5,,,,60,31
102180,note_on,20,0,2,,,,,,,,2,,,,76,30
102180,note_off,30,0,5,,,,,,,,5,,,,61,64
102180,note_on,20,0,1,,,,,,,,1,,,,76,33
102180,note_on,0,0,10,,,,,,,,11,,,,60,31
102180,note_off,30,0,10,,,,,,,,11,,,,61,64
102200,note_off,80,0,9,,,,,,,,10,,,,79,64
102200,note_off,80,0,8,,,,,,,,8,,,,76,64
102200,note_off,80,0,4,,,,,,,,4,,,,79,64
102200,note_off,80,0,3,,,,,,,,3,,,,76,64
102210,note_on,0,0,10,,,,,,,,11,,,,61,31
102210,note_off,30,0,10,,,,,,,,11,,,,60,64
102210,note_off,30,0,5,,,,,,,,5,,,,60,64
102210,note_on,0,0,5,,,,,,,,5,,,,61,31
102220,note_off,40,0,1,,,,,,,,1,,,,76,64
102220,note_off,40,0,2,,,,,,,,2,,,,76,64
102240,note_on,0,0,5,,,,,,,,5,,,,60,31
102240,note_on,40,0,4,,,,,,,,4,,,,79,34
102240,note_on,20,0,1,,,,,,,,1,,,,76,34
102240,note_on,20,0,2,,,,,,,,2,,,,76,30
102240,note_off,30,0,10,,,,,,,,11,,,,61,64
102240,note_on,40,0,8,,,,,,,,8,,,,76,34
102240,note_off,30,0,5,,,,,,,,5,,,,61,64
102240,note_on,40,0,9,,,,,,,,10,,,,79,34
102240,note_on,40,0,3,,,,,,,,3,,,,76,34
102240,note_on,0,0,10,,,,,,,,11,,,,60,31
102280,note_off,40,0,1,,,,,,,,1,,,,76,64
102280,note_off,40,0,2,,,,,,,,2,,,,76,64
102300,note_on,20,0,1,,,,,,,,1,,,,76,35
102300,note_on,20,0,2,,,,,,,,2,,,,76,30
102320,note_off,80,0,5,,,,,,,,5,,,,60,64
102320,note_off,80,0,9,,,,,,,,10,,,,79,64
102320,note_off,80,0,10,,,,,,,,11,,,,60,64
102320,note_off,80,0,4,,,,,,,,4,,,,79,64
102320,note_off,80,0,3,,,,,,,,3,,,,76,64
102320,note_off,80,0,8,,,,,,,,8,,,,76,64
102340,note_off,40,0,1,,,,,,,,1,,,,76,64
102340,note_off,40,0,2,,,,,,,,2,,,,76,64
102360,note_on,20,0,1,,,,,,,,1,,,,77,36
102360,note_on,40,0,8,,,,,,,,8,,,,77,35
102360,note_on,40,0,9,,,,,,,,10,,,,80,35
102360,note_on,40,0,10,,,,,,,,11,,,,60,32
102360,note_on,40,0,5,,,,,,,,5,,,,60,32
102360,note_on,40,0,3,,,,,,,,3,,,,77,35
102360,note_on,20,0,2,,,,,,,,2,,,,77,30
102360,note_on,40,0,4,,,,,,,,4,,,,80,35
102390,note_off,30,0,5,,,,,,,,5,,,,60,64
102390,note_on,0,0,5,,,,,,,,5,,,,61,32
102390,note_on,0,0,10,,,,,,,,11,,,,61,32
102390,note_off,30,0,10,,,,,,,,11,,,,60,64
102400,note_off,40,0,1,,,,,,,,1,,,,77,64
102400,note_off,40,0,2,,,,,,,,2,,,,77,64
102420,note_off,30,0,10,,,,,,,,11,,,,61,64
102420,note_on,20,0,1,,,,,,,,1,,,,77,37
102420,note_on,20,0,2,,,,,,,,2,,,,77,30
102420,note_off,30,0,5,,,,,,,,5,,,,61,64
102420,note_on,0,0,5,,,,,,,,5,,,,60,32
102420,note_on,0,0,10,,,,,,,,11,,,,60,32
102440,note_off,80,0,9,,,,,,,,10,,,,80,64
102440,note_off,80,0,4,,,,,,,,4,,,,80,64
102440,note_off,80,0,8,,,,,,,,8,,,,77,64
102440,note_off,80,0,3,,,,,,,,3,,,,77,64
102450,note_on,0,0,10,,,,,,,,11,,,,61,32
102450,note_off,30,0,10,,,,,,,,11,,,,60,64
102450,note_off,30,0,5,,,,,,,,5,,,,60,64
102450,note_on,0,0,5,,,,,,,,5,,,,61,32
102460,note_off,40,0,1,,,,,,,,1,,,,77,64
102460,note_off,40,0,2,,,,,,,,2,,,,77,64
102480,note_on,40,0,4,,,,,,,,4,,,,80,37
102480,note_on,20,0,1,,,,,,,,1,,,,77,38
102480,note_on,20,0,2,,,,,,,,2,,,,77,30
102480,note_on,0,0,5,,,,,,,,5,,,,60,32
102480,note_on,40,0,3,,,,,,,,3,,,,77,37
102480,note_off,30,0,10,,,,,,,,11,,,,61,64
102480,note_on,0,0,10,,,,,,,,11,,,,60,32
102480,note_on,40,0,9,,,,,,,,10,,,,80,37
102480,note_on,40,0,8,,,,,,,,8,,,,77,37
102480,note_off,30,0,5,,,,,,,,5,,,,61,64
102520,note_off,40,0,2,,,,,,,,2,,,,77,64
102520,note_off,40,0,1,,,,,,,,1,,,,77,64
102540,note_on,20,0,2,,,,,,,,2,,,,77,30
102540,note_on,20,0,1,,,,,,,,1,,,,77,39
102560,note_off,80,0,10,,,,,,,,11,,,,60,64
102560,note_off,80,0,9,,,,,,,,10,,,,80,64
102560,note_off,80,0,8,,,,,,,,8,,,,77,64
102560,note_off,80,0,5,,,,,,,,5,,,,60,64
102560,note_off,80,0,4,,,,,,,,4,,,,80,64
102560,note_off,80,0,3,,,,,,,,3,,,,77,64
102580,note_off,40,0,1,,,,,,,,1,,,,77,64
102580,note_off,40,0,2,,,,,,,,2,,,,77,64
102600,note_on,40,0,5,,,,,,,,5,,,,60,33
102600,note_on,40,0,8,,,,,,,,8,,,,77,39
102600,note_on,40,0,9,,,,,,,,10,,,,80,39
102600,note_on,40,0,10,,,,,,,,11,,,,60,33
102600,note_on,40,0,3,,,,,,,,3,,,,77,39
102600,note_on,20,0,1,,,,,,,,1,,,,77,40
102600,note_on,40,0,4,,,,,,,,4,,,,80,39
102600,note_on,20,0,2,,,,,,,,2,,,,77,30
102630,note_on,0,0,10,,,,,,,,11,,,,61,33
102630,note_off,30,0,5,,,,,,,,5,,,,60,64
102630,note_on,0,0,5,,,,,,,,5,,,,61,33
102630,note_off,30,0,10,,,,,,,,11,,,,60,64
102640,note_off,40,0,1,,,,,,,,1,,,,77,64
102640,note_off,40,0,2,,,,,,,,2,,,,77,64
102660,note_on,0,0,10,,,,,,,,11,,,,60,33
102660,note_off,30,0,10,,,,,,,,11,,,,61,64
102660,note_on,20,0,1,,,,,,,,1,,,,77,41
102660,note_on,0,0,5,,,,,,,,5,,,,60,33
102660,note_off,30,0,5,,,,,,,,5,,,,61,64
102660,note_on,20,0,2,,,,,,,,2,,,,77,30
102680,note_off,80,0,4,,,,,,,,4,,,,80,64
102680,note_off,80,0,3,,,,,,,,3,,,,77,64
102680,note_off,80,0,8,,,,,,,,8,,,,77,64
102680,note_off,80,0,9,,,,,,,,10,,,,80,64
102690,note_off,30,0,5,,,,,,,,5,,,,60,64
102690,note_on,0,0,10,,,,,,,,11,,,,61,33
102690,note_off,30,0,10,,,,,,,,11,,,,60,64
102690,note_on,0,0,5,,,,,,,,5,,,,61,33
102700,note_off,40,0,2,,,,,,,,2,,,,77,64
102700,note_off,40,0,1,,,,,,,,1,,,,77,64
102720,note_on,20,0,2,,,,,,,,2,,,,77,30
102720,note_off,30,0,10,,,,,,,,11,,,,61,64
102720,note_on,40,0,9,,,,,,,,10,,,,80,41
102720,note_on,20,0,1,,,,,,,,1,,,,77,42
102720,note_on,0,0,10,,,,,,,,11,,,,60,33
102720,note_off,30,0,5,,,,,,,,5,,,,61,64
102720,note_on,0,0,5,,,,,,,,5,,,,60,33
102720,note_on,40,0,3,,,,,,,,3,,,,77,41
102720,note_on,40,0,8,,,,,,,,8,,,,77,41
102720,note_on,40,0,4,,,,,,,,4,,,,80,41
102760,note_off,40,0,1,,,,,,,,1,,,,77,64
102760,note_off,40,0,2,,,,,,,,2,,,,77,64
102780,note_on,20,0,1,,,,,,,,1,,,,77,43
102780,note_on,20,0,2,,,,,,,,2,,,,77,30
102800,note_off,80,0,10,,,,,,,,11,,,,60,64
102800,note_off,80,0,4,,,,,,,,4,,,,80,64
102800,note_off,80,0,5,,,,,,,,5,,,,60,64
102800,note_off,80,0,9,,,,,,,,10,,,,80,64
102800,note_off,80,0,8,,,,,,,,8,,,,77,64
102800,note_off,80,0,3,,,,,,,,3,,,,77,64
102820,note_off,40,0,2,,,,,,,,2,,,,77,64
102820,note_off,40,0,1,,,,,,,,1,,,,77,64
102840,note_on,40,0,4,,,,,,,,4,,,,76,43
102840,note_on,40,0,10,,,,,,,,11,,,,60,34
102840,note_on,20,0,2,,,,,,,,2,,,,79,30
102840,note_on,40,0,8,,,,,,,,8,,,,79,43
102840,note_on,40,0,9,,,,,,,,10,,,,76,43
102840,note_on,20,0,1,,,,,,,,1,,,,79,44
102840,note_on,40,0,5,,,,,,,,5,,,,60,34
102840,note_on,40,0,3,,,,,,,,3,,,,79,43
102870,note_off,30,0,10,,,,,,,,11,,,,60,64
102870,note_on,0,0,10,,,,,,,,11,,,,61,34
102870,note_off,30,0,5,,,,,,,,5,,,,60,64
102870,note_on,0,0,5,,,,,,,,5,,,,61,34
102880,note_off,40,0,2,,,,,,,,2,,,,79,64
102880,note_off,40,0,1,,,,,,,,1,,,,79,64
102900,note_off,30,0,10,,,,,,,,11,,,,61,64
102900,note_on,0,0,10,,,,,,,,11,,,,60,34
102900,note_off,30,0,5,,,,,,,,5,,,,61,64
102900,note_on,0,0,5,,,,,,,,5,,,,60,34
102900,note_on,20,0,1,,,,,,,,1,,,,79,45
102900,note_on,20,0,2,,,,,,,,2,,,,79,30
102920,note_off,80,0,8,,,,,,,,8,,,,79,64
102920,note_off,80,0,9,,,,,,,,10,,,,76,64
102920,note_off,80,0,3,,,,,,,,3,,,,79,64
102920,note_off,80,0,4,,,,,,,,4,,,,76,64
102930,note_off,30,0,5,,,,,,,,5,,,,60,64
102930,note_on,0,0,5,,,,,,,,5,,,,61,34
102930,note_on,0,0,10,,,,,,,,11,,,,61,34
102930,note_off,30,0,10,,,,,,,,11,,,,60,64
102940,note_off,40,0,1,,,,,,,,1,,,,79,64
102940,note_off,40,0,2,,,,,,,,2,,,,79,64
102960,note_on,0,0,10,,,,,,,,11,,,,60,34
102960,note_off,30,0,10,,,,,,,,11,,,,61,64
102960,note_on,40,0,4,,,,,,,,4,,,,76,45
102960,note_on,20,0,2,,,,,,,,2,,,,79,30
102960,note_on,40,0,8,,,,,,,,8,,,,79,45
102960,note_off,30,0,5,,,,,,,,5,,,,61,64
102960,note_on,0,0,5,,,,,,,,5,,,,60,34
102960,note_on,40,0,3,,,,,,,,3,,,,79,45
102960,note_on,20,0,1,,,,,,,,1,,,,79,46
102960,note_on,40,0,9,,,,,,,,10,,,,76,45
103000,note_off,40,0,1,,,,,,,,1,,,,79,64
103000,note_off,40,0,2,,,,,,,,2,,,,79,64
103020,note_on,20,0,1,,,,,,,,1,,,,79,47
103020,note_on,20,0,2,,,,,,,,2,,,,79,31
103040,note_off,80,0,3,,,,,,,,3,,,,79,64
103040,note_off,80,0,5,,,,,,,,5,,,,60,64
103040,note_off,80,0,4,,,,,,,,4,,,,76,64
103040,note_off,80,0,9,,,,,,,,10,,,,76,64
103040,note_off,80,0,8,,,,,,,,8,,,,79,64
103040,note_off,80,0,10,,,,,,,,11,,,,60,64
103060,note_off,40,0,2,,,,,,,,2,,,,79,64
103060,note_off,40,0,1,,,,,,,,1,,,,79,64
103080,note_on,20,0,1,,,,,,,,1,,,,79,48
103080,note_on,40,0,5,,,,,,,,5,,,,60,35
103080,note_on,20,0,2,,,,,,,,2,,,,79,32
103080,note_on,40,0,10,,,,,,,,11,,,,60,35
103080,note_on,40,0,8,,,,,,,,8,,,,79,47
103080,note_on,40,0,9,,,,,,,,10,,,,76,47
103080,note_on,40,0,4,,,,,,,,4,,,,76,47
103080,note_on,40,0,3,,,,,,,,3,,,,79,47
103110,note_on,0,0,10,,,,,,,,11,,,,61,35
103110,note_off,30,0,5,,,,,,,,5,,,,60,64
103110,note_off,30,0,10,,,,,,,,11,,,,60,64
103110,note_on,0,0,5,,,,,,,,5,,,,61,35
103120,note_off,40,0,2,,,,,,,,2,,,,79,64
103120,note_off,40,0,1,,,,,,,,1,,,,79,64
103140,note_off,30,0,5,,,,,,,,5,,,,61,64
103140,note_on,0,0,10,,,,,,,,11,,,,60,35
103140,note_off,30,0,10,,,,,,,,11,,,,61,64
103140,note_on,20,0,1,,,,,,,,1,,,,79,49
103140,note_on,20,0,2,,,,,,,,2,,,,79,32
103140,note_on,0,0,5,,,,,,,,5,,,,60,35
103160,note_off,80,0,9,,,,,,,,10,,,,76,64
103160,note_off,80,0,4,,,,,,,,4,,,,76,64
103160,note_off,80,0,3,,,,,,,,3,,,,79,64
103160,note_off,80,0,8,,,,,,,,8,,,,79,64
103170,note_off,30,0,5,,,,,,,,5,,,,60,64
103170,note_on,0,0,5,,,,,,,,5,,,,61,35
103170,note_on,0,0,10,,,,,,,,11,,,,61,35
103170,note_off,30,0,10,,,,,,,,11,,,,60,64
103180,note_off,40,0,2,,,,,,,,2,,,,79,64
103180,note_off,40,0,1,,,,,,,,1,,,,79,64
103200,note_on,20,0,2,,,,,,,,2,,,,79,33
103200,note_on,0,0,10,,,,,,,,11,,,,60,35
103200,note_off,30,0,10,,,,,,,,11,,,,61,64
103200,note_on,40,0,9,,,,,,,,10,,,,76,49
103200,note_on,40,0,8,,,,,,,,8,,,,79,49
103200,note_on,40,0,3,,,,,,,,3,,,,79,49
103200,note_on,40,0,4,,,,,,,,4,,,,76,49
103200,note_on,0,0,5,,,,,,,,5,,,,60,35
103200,note_off,30,0,5,,,,,,,,5,,,,61,64
103200,note_on,20,0,1,,,,,,,,1,,,,79,50
103240,note_off,40,0,2,,,,,,,,2,,,,79,64
103240,note_off,40,0,1,,,,,,,,1,,,,79,64
103260,note_on,20,0,2,,,,,,,,2,,,,79,34
103260,note_on,20,0,1,,,,,,,,1,,,,79,51
103280,note_off,80,0,5,,,,,,,,5,,,,60,64
103280,note_off,80,0,4,,,,,,,,4,,,,76,64
103280,note_off,80,0,8,,,,,,,,8,,,,79,64
103280,note_off,80,0,9,,,,,,,,10,,,,76,64
103280,note_off,80,0,10,,,,,,,,11,,,,60,64
103280,note_off,80,0,3,,,,,,,,3,,,,79,64
103300,note_off,40,0,2,,,,,,,,2,,,,79,64
103300,note_off,40,0,1,,,,,,,,1,,,,79,64
103320,note_on,20,0,1,,,,,,,,1,,,,80,52
103320,note_on,40,0,10,,,,,,,,11,,,,60,36
103320,note_on,20,0,2,,,,,,,,2,,,,80,35
103320,note_on,40,0,9,,,,,,,,10,,,,77,51
103320,note_on,40,0,4,,,,,,,,4,,,,77,51
103320,note_on,40,0,8,,,,,,,,8,,,,80,51
103320,note_on,40,0,3,,,,,,,,3,,,,80,51
103320,note_on,40,0,5,,,,,,,,5,,,,60,36
103350,note_off,30,0,5,,,,,,,,5,,,,60,64
103350,note_on,0,0,5,,,,,,,,5,,,,61,36
103350,note_off,30,0,10,,,,,,,,11,,,,60,64
103350,note_on,0,0,10,,,,,,,,11,,,,61,36
103360,note_off,40,0,2,,,,,,,,2,,,,80,64
103360,note_off,40,0,1,,,,,,,,1,,,,80,64
103380,note_off,30,0,10,,,,,,,,11,,,,61,64
103380,note_on,20,0,2,,,,,,,,2,,,,80,36
103380,note_on,20,0,1,,,,,,,,1,,,,80,53
103380,note_off,30,0,5,,,,,,,,5,,,,61,64
103380,note_on,0,0,10,,,,,,,,11,,,,60,36
103380,note_on,0,0,5,,,,,,,,5,,,,60,36
103400,note_off,80,0,9,,,,,,,,10,,,,77,64
103400,note_off,80,0,3,,,,,,,,3,,,,80,64
103400,note_off,80,0,4,,,,,,,,4,,,,77,64
103400,note_off,80,0,8,,,,,,,,8,,,,80,64
103410,note_on,0,0,10,,,,,,,,11,,,,61,36
103410,note_off,30,0,5,,,,,,,,5,,,,60,64
103410,note_on,0,0,5,,,,,,,,5,,,,61,36
103410,note_off,30,0,10,,,,,,,,11,,,,60,64
103420,note_off,40,0,2,,,,,,,,2,,,,80,64
103420,note_off,40,0,1,,,,,,,,1,,,,80,64
103440,note_on,20,0,2,,,,,,,,2,,,,80,37
103440,note_off,30,0,5,,,,,,,,5,,,,61,64
103440,note_on,0,0,5,,,,,,,,5,,,,60,36
103440,note_on,20,0,1,,,,,,,,1,,,,80,54
103440,note_off,30,0,10,,,,,,,,11,,,,61,64
103440,note_on,40,0,9,,,,,,,,10,,,,77,53
103440,note_on,40,0,8,,,,,,,,8,,,,80,53
103440,note_on,40,0,4,,,,,,,,4,,,,77,53
103440,note_on,0,0,10,,,,,,,,11,,,,60,36
103440,note_on,40,0,3,,,,,,,,3,,,,80,53
103480,note_off,40,0,2,,,,,,,,2,,,,80,64
103480,note_off,40,0,1,,,,,,,,1,,,,80,64
103500,note_on,20,0,2,,,,,,,,2,,,,80,38
103500,note_on,20,0,1,,,,,,,,1,,,,80,55
103520,note_off,80,0,3,,,,,,,,3,,,,80,64
103520,note_off,80,0,4,,,,,,,,4,,,,77,64
103520,note_off,80,0,10,,,,,,,,11,,,,60,64
103520,note_off,80,0,8,,,,,,,,8,,,,80,64
103520,note_off,80,0,5,,,,,,,,5,,,,60,64
103520,note_off,80,0,9,,,,,,,,10,,,,77,64
103540,note_off,40,0,2,,,,,,,,2,,,,80,64
103540,note_off,40,0,1,,,,,,,,1,,,,80,64
103560,note_on,40,0,3,,,,,,,,3,,,,80,55
103560,note_on,20,0,2,,,,,,,,2,,,,80,39
103560,note_on,20,0,1,,,,,,,,1,,,,80,56
103560,note_on,40,0,5,,,,,,,,5,,,,60,38
103560,note_on,40,0,9,,,,,,,,10,,,,77,55
103560,note_on,40,0,8,,,,,,,,8,,,,80,55
103560,note_on,40,0,4,,,,,,,,4,,,,77,55
103560,note_on,40,0,10,,,,,,,,11,,,,60,38
103590,note_on,0,0,10,,,,,,,,11,,,,61,38
103590,note_off,30,0,5,,,,,,,,5,,,,60,64
103590,note_on,0,0,5,,,,,,,,5,,,,61,38
103590,note_off,30,0,10,,,,,,,,11,,,,60,64
103600,note_off,40,0,2,,,,,,,,2,,,,80,64
103600,note_off,40,0,1,,,,,,,,1,,,,80,64
103620,note_off,30,0,10,,,,,,,,11,,,,61,64
103620,note_on,20,0,1,,,,,,,,1,,,,80,57
103620,note_on,0,0,10,,,,,,,,11,,,,60,38
103620,note_on,0,0,5,,,,,,,,5,,,,60,38
103620,note_off,30,0,5,,,,,,,,5,,,,61,64
103620,note_on,20,0,2,,,,,,,,2,,,,80,40
103640,note_off,80,0,3,,,,,,,,3,,,,80,64
103640,note_off,80,0,4,,,,,,,,4,,,,77,64
103640,note_off,80,0,9,,,,,,,,10,,,,77,64
103640,note_off,80,0,8,,,,,,,,8,,,,80,64
103650,note_off,30,0,5,,,,,,,,5,,,,60,64
103650,note_off,30,0,10,,,,,,,,11,,,,60,64
103650,note_on,0,0,10,,,,,,,,11,,,,61,38
103650,note_on,0,0,5,,,,,,,,5,,,,61,38
103660,note_off,40,0,2,,,,,,,,2,,,,80,64
103660,note_off,40,0,1,,,,,,,,1,,,,80,64
103680,note_on,20,0,1,,,,,,,,1,,,,80,58
103680,note_on,0,0,10,,,,,,,,11,,,,60,38
103680,note_on,20,0,2,,,,,,,,2,,,,80,41
103680,note_on,40,0,8,,,,,,,,8,,,,80,57
103680,note_on,40,0,9,,,,,,,,10,,,,77,57
103680,note_on,40,0,3,,,,,,,,3,,,,80,57
103680,note_on,0,0,5,,,,,,,,5,,,,60,38
103680,note_off,30,0,5,,,,,,,,5,,,,61,64
103680,note_on,40,0,4,,,,,,,,4,,,,77,57
103680,note_off,30,0,10,,,,,,,,11,,,,61,64
103720,note_off,40,0,2,,,,,,,,2,,,,80,64
103720,note_off,40,0,1,,,,,,,,1,,,,80,64
103740,note_on,20,0,1,,,,,,,,1,,,,80,59
103740,note_on,20,0,2,,,,,,,,2,,,,80,42
103760,note_off,80,0,10,,,,,,,,11,,,,60,64
103760,note_off,80,0,9,,,,,,,,10,,,,77,64
103760,note_off,80,0,3,,,,,,,,3,,,,80,64
103760,note_off,80,0,4,,,,,,,,4,,,,77,64
103760,note_off,80,0,8,,,,,,,,8,,,,80,64
103760,note_off,80,0,5,,,,,,,,5,,,,60,64
103780,note_off,40,0,1,,,,,,,,1,,,,80,64
103780,note_off,40,0,2,,,,,,,,2,,,,80,64
103800,note_on,40,0,8,,,,,,,,8,,,,82,59
103800,note_on,20,0,1,,,,,,,,1,,,,82,60
103800,note_on,40,0,3,,,,,,,,3,,,,82,59
103800,note_on,40,0,10,,,,,,,,11,,,,60,40
103800,note_on,40,0,4,,,,,,,,4,,,,79,59
103800,note_on,40,0,5,,,,,,,,5,,,,60,40
103800,note_on,40,0,9,,,,,,,,10,,,,79,59
103800,note_on,20,0,2,,,,,,,,2,,,,82,43
103830,note_off,30,0,5,,,,,,,,5,,,,60,64
103830,note_off,30,0,10,,,,,,,,11,,,,60,64
103830,note_on,0,0,10,,,,,,,,11,,,,61,40
103830,note_on,0,0,5,,,,,,,,5,,,,61,40
103840,note_off,40,0,2,,,,,,,,2,,,,82,64
103840,note_off,40,0,1,,,,,,,,1,,,,82,64
103860,note_on,20,0,2,,,,,,,,2,,,,82,44
103860,note_on,0,0,5,,,,,,,,5,,,,60,40
103860,note_off,30,0,5,,,,,,,,5,,,,61,64
103860,note_off,30,0,10,,,,,,,,11,,,,61,64
103860,note_on,20,0,1,,,,,,,,1,,,,82,61
103860,note_on,0,0,10,,,,,,,,11,,,,60,40
103880,note_off,80,0,4,,,,,,,,4,,,,79,64
103880,note_off,80,0,3,,,,,,,,3,,,,82,64
103880,note_off,80,0,9,,,,,,,,10,,,,79,64
103880,note_off,80,0,8,,,,,,,,8,,,,82,64
103890,note_off,30,0,5,,,,,,,,5,,,,60,64
103890,note_on,0,0,5,,,,,,,,5,,,,61,40
103890,note_on,0,0,10,,,,,,,,11,,,,61,40
103890,note_off,30,0,10,,,,,,,,11,,,,60,64
103900,note_off,40,0,1,,,,,,,,1,,,,82,64
103900,note_off,40,0,2,,,,,,,,2,,,,82,64
103920,note_off,30,0,5,,,,,,,,5,,,,61,64
103920,note_on,0,0,5,,,,,,,,5,,,,60,40
103920,note_on,40,0,9,,,,,,,,10,,,,79,61
103920,note_on,40,0,3,,,,,,,,3,,,,82,61
103920,note_on,20,0,1,,,,,,,,1,,,,82,62
103920,note_on,40,0,8,,,,,,,,8,,,,82,61
103920,note_on,40,0,4,,,,,,,,4,,,,79,61
103920,note_off,30,0,10,,,,,,,,11,,,,61,64
103920,note_on,20,0,2,,,,,,,,2,,,,82,45
103920,note_on,0,0,10,,,,,,,,11,,,,60,40
103960,note_off,40,0,2,,,,,,,,2,,,,82,64
103960,note_off,40,0,1,,,,,,,,1,,,,82,64
103980,note_on,20,0,2,,,,,,,,2,,,,82,46
103980,note_on,20,0,1,,,,,,,,1,,,,82,63
104000,note_off,80,0,9,,,,,,,,10,,,,79,64
104000,note_off,80,0,4,,,,,,,,4,,,,79,64
104000,note_off,80,0,5,,,,,,,,5,,,,60,64
104000,note_off,80,0,8,,,,,,,,8,,,,82,64
104000,note_off,80,0,10,,,,,,,,11,,,,60,64
104000,note_off,80,0,3,,,,,,,,3,,,,82,64
104020,note_off,40,0,1,,,,,,,,1,,,,82,64
104020,note_off,40,0,2,,,,,,,,2,,,,82,64
104040,note_on,20,0,2,,,,,,,,2,,,,82,47
104040,note_on,40,0,8,,,,,,,,8,,,,82,63
104040,note_on,40,0,5,,,,,,,,5,,,,60,42
104040,note_on,20,0,1,,,,,,,,1,,,,82,64
104040,note_on,40,0,4,,,,,,,,4,,,,79,63
104040,note_on,40,0,3,,,,,,,,3,,,,82,63
104040,note_on,40,0,10,,,,,,,,11,,,,60,42
104040,note_on,40,0,9,,,,,,,,10,,,,79,63
104070,note_on,0,0,5,,,,,,,,5,,,,61,42
104070,note_off,30,0,5,,,,,,,,5,,,,60,64
104070,note_on,0,0,10,,,,,,,,11,,,,61,42
104070,note_off,30,0,10,,,,,,,,11,,,,60,64
104080,note_off,40,0,2,,,,,,,,2,,,,82,64
104080,note_off,40,0,1,,,,,,,,1,,,,82,64
104100,note_on,0,0,10,,,,,,,,11,,,,60,42
104100,note_on,20,0,2,,,,,,,,2,,,,82,48
104100,note_on,0,0,5,,,,,,,,5,,,,60,42
104100,note_on,20,0,1,,,,,,,,1,,,,82,65
104100,note_off,30,0,10,,,,,,,,11,,,,61,64
104100,note_off,30,0,5,,,,,,,,5,,,,61,64
104120,note_off,80,0,4,,,,,,,,4,,,,79,64
104120,note_off,80,0,9,,,,,,,,10,,,,79,64
104120,note_off,80,0,8,,,,,,,,8,,,,82,64
104120,note_off,80,0,3,,,,,,,,3,,,,82,64
104130,note_on,0,0,5,,,,,,,,5,,,,61,42
104130,note_off,30,0,10,,,,,,,,11,,,,60,64
104130,note_off,30,0,5,,,,,,,,5,,,,60,64
104130,note_on,0,0,10,,,,,,,,11,,,,61,42
104140,note_off,40,0,1,,,,,,,,1,,,,82,64
104140,note_off,40,0,2,,,,,,,,2,,,,82,64
104160,note_on,40,0,3,,,,,,,,3,,,,82,65
104160,note_on,0,0,5,,,,,,,,5,,,,60,42
104160,note_off,30,0,5,,,,,,,,5,,,,61,64
104160,note_on,20,0,2,,,,,,,,2,,,,82,49
104160,note_off,30,0,10,,,,,,,,11,,,,61,64
104160,note_on,0,0,10,,,,,,,,11,,,,60,42
104160,note_on,40,0,9,,,,,,,,10,,,,79,65
104160,note_on,40,0,8,,,,,,,,8,,,,82,65
104160,note_on,40,0,4,,,,,,,,4,,,,79,65
104160,note_on,20,0,1,,,,,,,,1,,,,82,66
104200,note_off,40,0,1,,,,,,,,1,,,,82,64
104200,note_off,40,0,2,,,,,,,,2,,,,82,64
104220,note_on,20,0,2,,,,,,,,2,,,,82,50
104220,note_on,20,0,1,,,,,,,,1,,,,82,67
104240,note_off,80,0,9,,,,,,,,10,,,,79,64
104240,note_off,80,0,4,,,,,,,,4,,,,79,64
104240,note_off,80,0,3,,,,,,,,3,,,,82,64
104240,note_off,80,0,10,,,,,,,,11,,,,60,64
104240,note_off,80,0,8,,,,,,,,8,,,,82,64
104240,note_off,80,0,5,,,,,,,,5,,,,60,64
104260,note_off,40,0,1,,,,,,,,1,,,,82,64
104260,note_off,40,0,2,,,,,,,,2,,,,82,64
104280,note_on,40,0,10,,,,,,,,11,,,,60,44
104280,note_on,20,0,2,,,,,,,,2,,,,80,51
104280,note_on,40,0,9,,,,,,,,10,,,,77,67
104280,note_on,40,0,3,,,,,,,,3,,,,80,67
104280,note_on,40,0,4,,,,,,,,4,,,,77,67
104280,note_on,40,0,8,,,,,,,,8,,,,80,67
104280,note_on,40,0,5,,,,,,,,5,,,,60,44
104280,note_on,20,0,1,,,,,,,,1,,,,80,68
104310,note_on,0,0,5,,,,,,,,5,,,,61,44
104310,note_off,30,0,10,,,,,,,,11,,,,60,64
104310,note_on,0,0,10,,,,,,,,11,,,,61,44
104310,note_off,30,0,5,,,,,,,,5,,,,60,64
104320,note_off,40,0,1,,,,,,,,1,,,,80,64
104320,note_off,40,0,2,,,,,,,,2,,,,80,64
104340,note_on,20,0,1,,,,,,,,1,,,,80,69
104340,note_on,0,0,5,,,,,,,,5,,,,60,44
104340,note_on,20,0,2,,,,,,,,2,,,,80,52
104340,note_off,30,0,5,,,,,,,,5,,,,61,64
104340,note_off,30,0,10,,,,,,,,11,,,,61,64
104340,note_on,0,0,10,,,,,,,,11,,,,60,44
104360,note_off,80,0,9,,,,,,,,10,,,,77,64
104360,note_off,80,0,8,,,,,,,,8,,,,80,64
104360,note_off,80,0,4,,,,,,,,4,,,,77,64
104360,note_off,80,0,3,,,,,,,,3,,,,80,64
104370,note_off,30,0,5,,,,,,,,5,,,,60,64
104370,note_on,0,0,5,,,,,,,,5,,,,61,44
104370,note_off,30,0,10,,,,,,,,11,,,,60,64
104370,note_on,0,0,10,,,,,,,,11,,,,61,44
104380,note_off,40,0,1,,,,,,,,1,,,,80,64
104380,note_off,40,0,2,,,,,,,,2,,,,80,64
104400,note_on,0,0,5,,,,,,,,5,,,,60,44
104400,note_off,30,0,10,,,,,,,,11,,,,61,64
104400,note_on,20,0,1,,,,,,,,1,,,,80,70
104400,note_on,0,0,10,,,,,,,,11,,,,60,44
104400,note_on,40,0,8,,,,,,,,8,,,,80,69
104400,note_on,40,0,4,,,,,,,,4,,,,77,69
104400,note_on,40,0,9,,,,,,,,10,,,,77,69
104400,note_on,20,0,2,,,,,,,,2,,,,80,53
104400,note_off,30,0,5,,,,,,,,5,,,,61,64
104400,note_on,40,0,3,,,,,,,,3,,,,80,69
104440,note_off,40,0,1,,,,,,,,1,,,,80,64
104440,note_off,40,0,2,,,,,,,,2,,,,80,64
104460,note_on,20,0,1,,,,,,,,1,,,,80,71
104460,note_on,20,0,2,,,,,,,,2,,,,80,54
104480,note_off,80,0,3,,,,,,,,3,,,,80,64
104480,note_off,80,0,9,,,,,,,,10,,,,77,64
104480,note_off,80,0,5,,,,,,,,5,,,,60,64
104480,note_off,80,0,8,,,,,,,,8,,,,80,64
104480,note_off,80,0,4,,,,,,,,4,,,,77,64
104480,note_off,80,0,10,,,,,,,,11,,,,60,64
104500,note_off,40,0,1,,,,,,,,1,,,,80,64
104500,note_off,40,0,2,,,,,,,,2,,,,80,64
104520,note_on,40,0,5,,,,,,,,5,,,,60,46
104520,note_on,20,0,2,,,,,,,,2,,,,80,55
104520,note_on,40,0,3,,,,,,,,3,,,,80,71
104520,note_on,40,0,4,,,,,,,,4,,,,77,71
104520,note_on,40,0,8,,,,,,,,8,,,,80,71
104520,note_on,40,0,9,,,,,,,,10,,,,77,71
104520,note_on,20,0,1,,,,,,,,1,,,,80,72
104520,note_on,40,0,10,,,,,,,,11,,,,60,46
104550,note_off,30,0,10,,,,,,,,11,,,,60,64
104550,note_on,0,0,10,,,,,,,,11,,,,61,46
104550,note_off,30,0,5,,,,,,,,5,,,,60,64
104550,note_on,0,0,5,,,,,,,,5,,,,61,46
104560,note_off,40,0,1,,,,,,,,1,,,,80,64
104560,note_off,40,0,2,,,,,,,,2,,,,80,64
104580,note_off,30,0,5,,,,,,,,5,,,,61,64
104580,note_off,30,0,10,,,,,,,,11,,,,61,64
104580,note_on,0,0,5,,,,,,,,5,,,,60,46
104580,note_on,20,0,2,,,,,,,,2,,,,80,56
104580,note_on,0,0,10,,,,,,,,11,,,,60,46
104580,note_on,20,0,1,,,,,,,,1,,,,80,73
104600,note_off,80,0,9,,,,,,,,10,,,,77,64
104600,note_off,80,0,8,,,,,,,,8,,,,80,64
104600,note_off,80,0,4,,,,,,,,4,,,,77,64
104600,note_off,80,0,3,,,,,,,,3,,,,80,64
104610,note_on,0,0,5,,,,,,,,5,,,,61,46
104610,note_off,30,0,5,,,,,,,,5,,,,60,64
104610,note_off,30,0,10,,,,,,,,11,,,,60,64
104610,note_on,0,0,10,,,,,,,,11,,,,61,46
104620,note_off,40,0,2,,,,,,,,2,,,,80,64
104620,note_off,40,0,1,,,,,,,,1,,,,80,64
104640,note_on,20,0,1,,,,,,,,1,,,,80,74
104640,note_on,20,0,2,,,,,,,,2,,,,80,57
104640,note_on,40,0,9,,,,,,,,10,,,,77,73
104640,note_on,0,0,10,,,,,,,,11,,,,60,46
104640,note_on,40,0,8,,,,,,,,8,,,,80,73
104640,note_on,40,0,4,,,,,,,,4,,,,77,73
104640,note_off,30,0,10,,,,,,,,11,,,,61,64
104640,note_off,30,0,5,,,,,,,,5,,,,61,64
104640,note_on,40,0,3,,,,,,,,3,,,,80,73
104640,note_on,0,0,5,,,,,,,,5,,,,60,46
104680,note_off,40,0,2,,,,,,,,2,,,,80,64
104680,note_off,40,0,1,,,,,,,,1,,,,80,64
104700,note_on,20,0,1,,,,,,,,1,,,,80,75
104700,note_on,20,0,2,,,,,,,,2,,,,80,58
104720,note_off,80,0,3,,,,,,,,3,,,,80,64
104720,note_off,80,0,4,,,,,,,,4,,,,77,64
104720,note_off,80,0,9,,,,,,,,10,,,,77,64
104720,note_off,80,0,10,,,,,,,,11,,,,60,64
104720,note_off,80,0,8,,,,,,,,8,,,,80,64
104720,note_off,80,0,5,,,,,,,,5,,,,60,64
104740,note_off,40,0,1,,,,,,,,1,,,,80,64
104740,note_off,40,0,2,,,,,,,,2,,,,80,64
104760,note_on,40,0,5,,,,,,,,5,,,,60,49
104760,note_on,40,0,10,,,,,,,,11,,,,60,49
104760,note_on,40,0,8,,,,,,,,8,,,,79,75
104760,note_on,20,0,1,,,,,,,,1,,,,79,76
104760,note_on,20,0,2,,,,,,,,2,,,,79,59
104760,note_on,40,0,3,,,,,,,,3,,,,79,75
104760,note_on,40,0,4,,,,,,,,4,,,,76,75
104760,note_on,40,0,9,,,,,,,,10,,,,76,75
104790,note_off,30,0,10,,,,,,,,11,,,,60,64
104790,note_on,0,0,10,,,,,,,,11,,,,61,49
104790,note_on,0,0,5,,,,,,,,5,,,,61,49
104790,note_off,30,0,5,,,,,,,,5,,,,60,64
104800,note_off,40,0,2,,,,,,,,2,,,,79,64
104800,note_off,40,0,1,,,,,,,,1,,,,79,64
104820,note_on,20,0,1,,,,,,,,1,,,,79,77
104820,note_off,30,0,5,,,,,,,,5,,,,61,64
104820,note_on,20,0,2,,,,,,,,2,,,,79,60
104820,note_on,0,0,10,,,,,,,,11,,,,60,49
104820,note_off,30,0,10,,,,,,,,11,,,,61,64
104820,note_on,0,0,5,,,,,,,,5,,,,60,49
104840,note_off,80,0,3,,,,,,,,3,,,,79,64
104840,note_off,80,0,4,,,,,,,,4,,,,76,64
104840,note_off,80,0,9,,,,,,,,10,,,,76,64
104840,note_off,80,0,8,,,,,,,,8,,,,79,64
104850,note_off,30,0,5,,,,,,,,5,,,,60,64
104850,note_on,0,0,10,,,,,,,,11,,,,61,49
104850,note_on,0,0,5,,,,,,,,5,,,,61,49
104850,note_off,30,0,10,,,,,,,,11,,,,60,64
104860,note_off,40,0,2,,,,,,,,2,,,,79,64
104860,note_off,40,0,1,,,,,,,,1,,,,79,64
104880,note_on,40,0,9,,,,,,,,10,,,,76,77
104880,note_on,20,0,2,,,,,,,,2,,,,79,61
104880,note_on,40,0,3,,,,,,,,3,,,,79,77
104880,note_off,30,0,10,,,,,,,,11,,,,61,64
104880,note_on,40,0,8,,,,,,,,8,,,,79,77
104880,note_on,20,0,1,,,,,,,,1,,,,79,78
104880,note_on,0,0,5,,,,,,,,5,,,,60,49
104880,note_off,30,0,5,,,,,,,,5,,,,61,64
104880,note_on,0,0,10,,,,,,,,11,,,,60,49
104880,note_on,40,0,4,,,,,,,,4,,,,76,77
104920,note_off,40,0,1,,,,,,,,1,,,,79,64
104920,note_off,40,0,2,,,,,,,,2,,,,79,64
104940,note_on,20,0,1,,,,,,,,1,,,,79,79
104940,note_on,20,0,2,,,,,,,,2,,,,79,62
104960,note_off,80,0,5,,,,,,,,5,,,,60,64
104960,note_off,80,0,4,,,,,,,,4,,,,76,64
104960,note_off,80,0,8,,,,,,,,8,,,,79,64
104960,note_off,80,0,10,,,,,,,,11,,,,60,64
104960,note_off,80,0,3,,,,,,,,3,,,,79,64
104960,note_off,80,0,9,,,,,,,,10,,,,76,64
104980,note_off,40,0,1,,,,,,,,1,,,,79,64
104980,note_off,40,0,2,,,,,,,,2,,,,79,64
105000,note_on,40,0,4,,,,,,,,4,,,,76,79
105000,note_on,40,0,5,,,,,,,,5,,,,60,52
105000,note_on,20,0,2,,,,,,,,2,,,,79,63
105000,note_on,40,0,3,,,,,,,,3,,,,79,79
105000,note_on,40,0,10,,,,,,,,11,,,,60,52
105000,note_on,40,0,9,,,,,,,,10,,,,76,79
105000,note_on,40,0,8,,,,,,,,8,,,,79,79
105000,note_on,20,0,1,,,,,,,,1,,,,79,80
105030,note_off,30,0,10,,,,,,,,11,,,,60,64
105030,note_on,0,0,10,,,,,,,,11,,,,61,52
105030,note_off,30,0,5,,,,,,,,5,,,,60,64
105030,note_on,0,0,5,,,,,,,,5,,,,61,52
105040,note_off,40,0,1,,,,,,,,1,,,,79,64
105040,note_off,40,0,2,,,,,,,,2,,,,79,64
105060,note_off,30,0,10,,,,,,,,11,,,,61,64
105060,note_on,0,0,10,,,,,,,,11,,,,60,53
105060,note_off,30,0,5,,,,,,,,5,,,,61,64
105060,note_on,0,0,5,,,,,,,,5,,,,60,53
105060,note_on,20,0,1,,,,,,,,1,,,,79,81
105060,note_on,20,0,2,,,,,,,,2,,,,79,64
105080,note_off,80,0,4,,,,,,,,4,,,,76,64
105080,note_off,80,0,9,,,,,,,,10,,,,76,64
105080,note_off,80,0,3,,,,,,,,3,,,,79,64
105080,note_off,80,0,8,,,,,,,,8,,,,79,64
105090,note_on,0,0,5,,,,,,,,5,,,,61,54
105090,note_off,30,0,10,,,,,,,,11,,,,60,64
105090,note_on,0,0,10,,,,,,,,11,,,,61,54
105090,note_off,30,0,5,,,,,,,,5,,,,60,64
105100,note_off,40,0,1,,,,,,,,1,,,,79,64
105100,note_off,40,0,2,,,,,,,,2,,,,79,64
105120,note_on,20,0,2,,,,,,,,2,,,,79,65
105120,note_off,30,0,5,,,,,,,,5,,,,61,64
105120,note_on,0,0,5,,,,,,,,5,,,,60,55
105120,note_on,20,0,1,,,,,,,,1,,,,79,82
105120,note_on,40,0,9,,,,,,,,10,,,,76,81
105120,note_on,0,0,10,,,,,,,,11,,,,60,55
105120,note_off,30,0,10,,,,,,,,11,,,,61,64
105120,note_on,40,0,4,,,,,,,,4,,,,76,81
105120,note_on,40,0,8,,,,,,,,8,,,,79,81
105120,note_on,40,0,3,,,,,,,,3,,,,79,81
105160,note_off,40,0,2,,,,,,,,2,,,,79,64
105160,note_off,40,0,1,,,,,,,,1,,,,79,64
105180,note_on,20,0,2,,,,,,,,2,,,,79,66
105180,note_on,20,0,1,,,,,,,,1,,,,79,83
105200,note_off,80,0,4,,,,,,,,4,,,,76,64
105200,note_off,80,0,3,,,,,,,,3,,,,79,64
105200,note_off,80,0,9,,,,,,,,10,,,,76,64
105200,note_off,80,0,10,,,,,,,,11,,,,60,64
105200,note_off,80,0,8,,,,,,,,8,,,,79,64
105200,note_off,80,0,5,,,,,,,,5,,,,60,64
105220,note_off,40,0,2,,,,,,,,2,,,,79,64
105220,note_off,40,0,1,,,,,,,,1,,,,79,64
105240,note_on,40,0,3,,,,,,,,3,,,,77,83
105240,note_on,20,0,2,,,,,,,,2,,,,77,67
105240,note_on,40,0,10,,,,,,,,11,,,,60,59
105240,note_on,20,0,1,,,,,,,,1,,,,77,84
105240,note_on,40,0,4,,,,,,,,4,,,,80,83
105240,note_on,40,0,8,,,,,,,,8,,,,77,83
105240,note_on,40,0,9,,,,,,,,10,,,,80,83
105240,note_on,40,0,5,,,,,,,,5,,,,60,59
105270,note_on,0,0,10,,,,,,,,11,,,,61,60
105270,note_off,30,0,10,,,,,,,,11,,,,60,64
105270,note_off,30,0,5,,,,,,,,5,,,,60,64
105270,note_on,0,0,5,,,,,,,,5,,,,61,60
105280,note_off,40,0,2,,,,,,,,2,,,,77,64
105280,note_off,40,0,1,,,,,,,,1,,,,77,64
105300,note_on,0,0,10,,,,,,,,11,,,,60,61
105300,note_on,0,0,5,,,,,,,,5,,,,60,61
105300,note_on,20,0,1,,,,,,,,1,,,,77,85
105300,note_on,20,0,2,,,,,,,,2,,,,77,68
105300,note_off,30,0,10,,,,,,,,11,,,,61,64
105300,note_off,30,0,5,,,,,,,,5,,,,61,64
105320,note_off,80,0,3,,,,,,,,3,,,,77,64
105320,note_off,80,0,8,,,,,,,,8,,,,77,64
105320,note_off,80,0,9,,,,,,,,10,,,,80,64
105320,note_off,80,0,4,,,,,,,,4,,,,80,64
105330,note_off,30,0,10,,,,,,,,11,,,,60,64
105330,note_off,30,0,5,,,,,,,,5,,,,60,64
105330,note_on,0,0,5,,,,,,,,5,,,,61,62
105330,note_on,0,0,10,,,,,,,,11,,,,61,62
105340,note_off,40,0,2,,,,,,,,2,,,,77,64
105340,note_off,40,0,1,,,,,,,,1,,,,77,64
105360,note_on,20,0,2,,,,,,,,2,,,,77,69
105360,note_on,40,0,8,,,,,,,,8,,,,77,85
105360,note_on,40,0,3,,,,,,,,3,,,,77,85
105360,note_on,40,0,9,,,,,,,,10,,,,80,85
105360,note_on,20,0,1,,,,,,,,1,,,,77,86
105360,note_off,30,0,10,,,,,,,,11,,,,61,64
105360,note_on,0,0,10,,,,,,,,11,,,,60,63
105360,note_off,30,0,5,,,,,,,,5,,,,61,64
105360,note_on,0,0,5,,,,,,,,5,,,,60,63
105360,note_on,40,0,4,,,,,,,,4,,,,80,85
105400,note_off,40,0,2,,,,,,,,2,,,,77,64
105400,note_off,40,0,1,,,,,,,,1,,,,77,64
105420,note_on,20,0,1,,,,,,,,1,,,,77,87
105420,note_on,20,0,2,,,,,,,,2,,,,77,70
105440,note_off,80,0,8,,,,,,,,8,,,,77,64
105440,note_off,80,0,4,,,,,,,,4,,,,80,64
105440,note_off,80,0,5,,,,,,,,5,,,,60,64
105440,note_off,80,0,9,,,,,,,,10,,,,80,64
105440,note_off,80,0,10,,,,,,,,11,,,,60,64
105440,note_off,80,0,3,,,,,,,,3,,,,77,64
105460,note_off,40,0,2,,,,,,,,2,,,,77,64
105460,note_off,40,0,1,,,,,,,,1,,,,77,64
105480,note_on,40,0,4,,,,,,,,4,,,,80,87
105480,note_on,40,0,10,,,,,,,,11,,,,60,67
105480,note_on,20,0,1,,,,,,,,1,,,,77,88
105480,note_on,40,0,5,,,,,,,,5,,,,60,67
105480,note_on,20,0,2,,,,,,,,2,,,,77,71
105480,note_on,40,0,3,,,,,,,,3,,,,77,87
105480,note_on,40,0,9,,,,,,,,10,,,,80,87
105480,note_on,40,0,8,,,,,,,,8,,,,77,87
105510,note_on,0,0,5,,,,,,,,5,,,,61,68
105510,note_off,30,0,5,,,,,,,,5,,,,60,64
105510,note_off,30,0,10,,,,,,,,11,,,,60,64
105510,note_on,0,0,10,,,,,,,,11,,,,61,68
105520,note_off,40,0,1,,,,,,,,1,,,,77,64
105520,note_off,40,0,2,,,,,,,,2,,,,77,64
105540,note_off,30,0,10,,,,,,,,11,,,,61,64
105540,note_on,20,0,2,,,,,,,,2,,,,77,72
105540,note_on,20,0,1,,,,,,,,1,,,,77,89
105540,note_off,30,0,5,,,,,,,,5,,,,61,64
105540,note_on,0,0,5,,,,,,,,5,,,,60,69
105540,note_on,0,0,10,,,,,,,,11,,,,60,69
105560,note_off,80,0,4,,,,,,,,4,,,,80,64
105560,note_off,80,0,9,,,,,,,,10,,,,80,64
105560,note_off,80,0,8,,,,,,,,8,,,,77,64
105560,note_off,80,0,3,,,,,,,,3,,,,77,64
105570,note_off,30,0,10,,,,,,,,11,,,,60,64
105570,note_on,0,0,10,,,,,,,,11,,,,61,70
105570,note_off,30,0,5,,,,,,,,5,,,,60,64
105570,note_on,0,0,5,,,,,,,,5,,,,61,70
105580,note_off,40,0,1,,,,,,,,1,,,,77,64
105580,note_off,40,0,2,,,,,,,,2,,,,77,64
105600,note_on,40,0,9,,,,,,,,10,,,,80,89
105600,note_on,40,0,8,,,,,,,,8,,,,77,89
105600,note_on,40,0,3,,,,,,,,3,,,,77,89
105600,note_on,0,0,2,,,,,,,,2,,,,77,73
105600,note_off,20,0,2,,,,,,,,2,,,,72,64
105600,note_off,30,0,5,,,,,,,,5,,,,61,64
105600,note_on,40,0,4,,,,,,,,4,,,,80,89
105600,note_on,0,0,1,,,,,,,,1,,,,77,90
105600,note_on,0,0,5,,,,,,,,5,,,,60,71
105600,note_off,30,0,10,,,,,,,,11,,,,61,64
105600,note_off,20,0,1,,,,,,,,1,,,,72,64
105600,note_on,0,0,10,,,,,,,,11,,,,60,71
105640,note_off,40,0,1,,,,,,,,1,,,,77,64
105640,note_off,40,0,2,,,,,,,,2,,,,77,64
105660,note_on,20,0,1,,,,,,,,1,,,,77,92
105660,note_on,20,0,2,,,,,,,,2,,,,77,75
105680,note_off,80,0,4,,,,,,,,4,,,,80,64
105680,note_off,80,0,9,,,,,,,,10,,,,80,64
105680,note_off,80,0,5,,,,,,,,5,,,,60,64
105680,note_off,80,0,3,,,,,,,,3,,,,77,64
105680,note_off,80,0,10,,,,,,,,11,,,,60,64
105680,note_off,80,0,8,,,,,,,,8,,,,77,64
105700,note_off,40,0,2,,,,,,,,2,,,,77,64
105700,note_off,40,0,1,,,,,,,,1,,,,77,64
105700,end_of_track,0,1,1,,,,,,,,,,,,,
105700,end_of_track,0,1,2,,,,,,,,,,,,,
105720,note_on,16880,0,7,,,,,,,,7,,,,36,75
105720,note_on,16880,0,11,,,,,,,,12,,,,48,75
105720,note_on,40,0,4,,,,,,,,4,,,,72,92
105720,note_on,22640,0,12,,,,,,,,13,,,,36,75
105720,note_on,40,0,8,,,,,,,,8,,,,76,92
105720,note_on,22640,0,13,,,,,,,,14,,,,36,45
105720,note_on,40,0,10,,,,,,,,11,,,,72,75
105720,note_on,16880,0,6,,,,,,,,6,,,,48,75
105720,note_on,40,0,5,,,,,,,,5,,,,72,75
105720,note_on,40,0,3,,,,,,,,3,,,,76,92
105720,note_on,40,0,9,,,,,,,,10,,,,72,92
105800,note_off,80,0,4,,,,,,,,4,,,,72,64
105800,note_off,80,0,8,,,,,,,,8,,,,76,64
105800,note_off,80,0,3,,,,,,,,3,,,,76,64
105800,note_off,80,0,9,,,,,,,,10,,,,72,64
105840,note_on,40,0,4,,,,,,,,4,,,,76,92
105840,note_on,40,0,8,,,,,,,,8,,,,79,92
105840,note_on,40,0,3,,,,,,,,3,,,,79,92
105840,note_on,40,0,9,,,,,,,,10,,,,76,92
105880,note_off,40,0,9,,,,,,,,10,,,,76,64
105880,note_off,40,0,8,,,,,,,,8,,,,79,64
105880,note_off,40,0,4,,,,,,,,4,,,,76,64
105880,note_off,40,0,3,,,,,,,,3,,,,79,64
105900,note_on,20,0,8,,,,,,,,8,,,,79,92
105900,note_on,20,0,9,,,,,,,,10,,,,76,92
105900,note_on,20,0,4,,,,,,,,4,,,,76,92
105900,note_on,20,0,3,,,,,,,,3,,,,79,92
105940,note_off,40,0,4,,,,,,,,4,,,,76,64
105940,note_off,40,0,3,,,,,,,,3,,,,79,64
105940,note_off,40,0,9,,,,,,,,10,,,,76,64
105940,note_off,40,0,8,,,,,,,,8,,,,79,64
105960,note_on,20,0,9,,,,,,,,10,,,,76,92
105960,note_on,20,0,3,,,,,,,,3,,,,79,92
105960,note_on,20,0,8,,,,,,,,8,,,,79,92
105960,note_on,20,0,4,,,,,,,,4,,,,76,92
106000,note_off,40,0,3,,,,,,,,3,,,,79,64
106000,note_off,40,0,9,,,,,,,,10,,,,76,64
106000,note_off,40,0,8,,,,,,,,8,,,,79,64
106000,note_off,40,0,4,,,,,,,,4,,,,76,64
106020,note_on,20,0,3,,,,,,,,3,,,,79,92
106020,note_on,20,0,4,,,,,,,,4,,,,76,92
106020,note_on,20,0,9,,,,,,,,10,,,,76,92
106020,note_on,20,0,8,,,,,,,,8,,,,79,92
106060,note_off,40,0,3,,,,,,,,3,,,,79,64
106060,note_off,40,0,8,,,,,,,,8,,,,79,64
106060,note_off,40,0,4,,,,,,,,4,,,,76,64
106060,note_off,40,0,9,,,,,,,,10,,,,76,64
106080,note_on,20,0,4,,,,,,,,4,,,,76,92
106080,note_on,20,0,8,,,,,,,,8,,,,79,92
106080,note_on,20,0,9,,,,,,,,10,,,,76,92
106080,note_on,20,0,3,,,,,,,,3,,,,79,92
106120,note_off,400,0,5,,,,,,,,5,,,,72,64
106120,note_off,40,0,9,,,,,,,,10,,,,76,64
106120,note_off,400,0,12,,,,,,,,13,,,,36,64
106120,note_off,400,0,7,,,,,,,,7,,,,36,64
106120,note_off,40,0,3,,,,,,,,3,,,,79,64
106120,note_off,400,0,13,,,,,,,,14,,,,36,64
106120,note_off,40,0,4,,,,,,,,4,,,,76,64
106120,note_off,40,0,8,,,,,,,,8,,,,79,64
106120,note_off,400,0,11,,,,,,,,12,,,,48,64
106120,note_off,400,0,10,,,,,,,,11,,,,72,64
106120,note_off,400,0,6,,,,,,,,6,,,,48,64
106140,note_on,20,0,3,,,,,,,,3,,,,79,92
106140,note_on,20,0,9,,,,,,,,10,,,,76,92
106140,note_on,20,0,4,,,,,,,,4,,,,76,92
106140,note_on,20,0,8,,,,,,,,8,,,,79,92
106180,note_off,40,0,9,,,,,,,,10,,,,76,64
106180,note_off,40,0,3,,,,,,,,3,,,,79,64
106180,note_off,40,0,4,,,,,,,,4,,,,76,64
106180,note_off,40,0,8,,,,,,,,8,,,,79,64
106200,note_on,20,0,9,,,,,,,,10,,,,76,92
106200,note_on,20,0,8,,,,,,,,8,,,,79,92
106200,note_on,20,0,4,,,,,,,,4,,,,76,92
106200,note_on,20,0,3,,,,,,,,3,,,,79,92
106280,note_off,80,0,9,,,,,,,,10,,,,76,64
106280,note_off,80,0,4,,,,,,,,4,,,,76,64
106280,note_off,80,0,8,,,,,,,,8,,,,79,64
106280,note_off,80,0,3,,,,,,,,3,,,,79,64
106320,note_on,40,0,4,,,,,,,,4,,,,76,92
106320,note_on,40,0,3,,,,,,,,3,,,,79,92
106320,note_on,40,0,9,,,,,,,,10,,,,76,92
106320,note_on,40,0,8,,,,,,,,8,,,,79,92
106400,note_off,80,0,8,,,,,,,,8,,,,79,64
106400,note_off,80,0,3,,,,,,,,3,,,,79,64
106400,note_off,80,0,9,,,,,,,,10,,,,76,64
106400,note_off,80,0,4,,,,,,,,4,,,,76,64
106440,note_on,40,0,9,,,,,,,,10,,,,76,92
106440,note_on,40,0,3,,,,,,,,3,,,,79,92
106440,note_on,40,0,4,,,,,,,,4,,,,76,92
106440,note_on,40,0,8,,,,,,,,8,,,,79,92
106520,note_off,80,0,9,,,,,,,,10,,,,76,64
106520,note_off,80,0,4,,,,,,,,4,,,,76,64
106520,note_off,80,0,3,,,,,,,,3,,,,79,64
106520,note_off,80,0,8,,,,,,,,8,,,,79,64
106560,note_on,40,0,9,,,,,,,,10,,,,76,92
106560,note_on,40,0,4,,,,,,,,4,,,,76,92
106560,note_on,40,0,3,,,,,,,,3,,,,79,92
106560,note_on,40,0,8,,,,,,,,8,,,,79,92
106640,note_off,80,0,9,,,,,,,,10,,,,76,64
106640,note_off,80,0,3,,,,,,,,3,,,,79,64
106640,note_off,80,0,4,,,,,,,,4,,,,76,64
106640,note_off,80,0,8,,,,,,,,8,,,,79,64
106680,note_on,560,0,12,,,,,,,,13,,,,41,75
106680,note_on,560,0,13,,,,,,,,14,,,,41,45
106680,note_on,40,0,8,,,,,,,,8,,,,80,92
106680,note_on,560,0,10,,,,,,,,11,,,,72,75
106680,note_on,40,0,9,,,,,,,,10,,,,77,92
106680,note_on,560,0,5,,,,,,,,5,,,,72,75
106680,note_on,560,0,6,,,,,,,,6,,,,53,75
106680,note_on,560,0,11,,,,,,,,12,,,,53,75
106680,note_on,40,0,4,,,,,,,,4,,,,77,92
106680,note_on,560,0,7,,,,,,,,7,,,,41,75
106680,note_on,40,0,3,,,,,,,,3,,,,80,92
106760,note_off,80,0,7,,,,,,,,7,,,,41,64
106760,note_off,80,0,5,,,,,,,,5,,,,72,64
106760,note_off,80,0,10,,,,,,,,11,,,,72,64
106760,note_off,80,0,9,,,,,,,,10,,,,77,64
106760,note_off,80,0,3,,,,,,,,3,,,,80,64
106760,note_off,80,0,8,,,,,,,,8,,,,80,64
106760,note_off,80,0,6,,,,,,,,6,,,,53,64
106760,note_off,80,0,11,,,,,,,,12,,,,53,64
106760,note_off,80,0,4,,,,,,,,4,,,,77,64
106760,note_off,80,0,12,,,,,,,,13,,,,41,64
106800,note_on,40,0,7,,,,,,,,7,,,,29,75
106800,note_on,40,0,12,,,,,,,,13,,,,29,75
106800,note_on,40,0,3,,,,,,,,3,,,,72,92
106800,note_on,40,0,5,,,,,,,,5,,,,68,75
106800,note_on,40,0,8,,,,,,,,8,,,,72,92
106800,note_on,40,0,11,,,,,,,,12,,,,41,75
106800,note_on,40,0,4,,,,,,,,4,,,,68,92
106800,note_on,40,0,10,,,,,,,,11,,,,68,75
106800,note_on,40,0,9,,,,,,,,10,,,,68,92
106800,note_on,40,0,6,,,,,,,,6,,,,41,75
106880,note_off,80,0,9,,,,,,,,10,,,,68,64
106880,note_off,80,0,8,,,,,,,,8,,,,72,64
106880,note_off,80,0,6,,,,,,,,6,,,,41,64
106880,note_off,80,0,11,,,,,,,,12,,,,41,64
106880,note_off,80,0,10,,,,,,,,11,,,,68,64
106880,note_off,80,0,3,,,,,,,,3,,,,72,64
106880,note_off,80,0,5,,,,,,,,5,,,,68,64
106880,note_off,80,0,4,,,,,,,,4,,,,68,64
106880,note_off,80,0,7,,,,,,,,7,,,,29,64
106880,note_off,80,0,12,,,,,,,,13,,,,29,64
106915,note_off,235,0,13,,,,,,,,14,,,,41,64
106920,note_on,5,0,13,,,,,,,,14,,,,41,45
106920,note_on,40,0,3,,,,,,,,3,,,,80,92
106920,note_on,40,0,10,,,,,,,,11,,,,72,75
106920,note_on,40,0,11,,,,,,,,12,,,,53,75
106920,note_on,40,0,5,,,,,,,,5,,,,72,75
106920,note_on,40,0,6,,,,,,,,6,,,,53,75
106920,note_on,40,0,9,,,,,,,,10,,,,77,92
106920,note_on,40,0,4,,,,,,,,4,,,,77,92
106920,note_on,40,0,12,,,,,,,,13,,,,41,75
106920,note_on,40,0,7,,,,,,,,7,,,,41,75
106920,note_on,40,0,8,,,,,,,,8,,,,80,92
107000,note_off,80,0,8,,,,,,,,8,,,,80,64
107000,note_off,80,0,11,,,,,,,,12,,,,53,64
107000,note_off,80,0,3,,,,,,,,3,,,,80,64
107000,note_off,80,0,12,,,,,,,,13,,,,41,64
107000,note_off,80,0,10,,,,,,,,11,,,,72,64
107000,note_off,80,0,7,,,,,,,,7,,,,41,64
107000,note_off,80,0,6,,,,,,,,6,,,,53,64
107000,note_off,80,0,5,,,,,,,,5,,,,72,64
107000,note_off,80,0,9,,,,,,,,10,,,,77,64
107000,note_off,80,0,4,,,,,,,,4,,,,77,64
107040,note_on,40,0,12,,,,,,,,13,,,,29,75
107040,note_on,40,0,8,,,,,,,,8,,,,72,92
107040,note_on,40,0,3,,,,,,,,3,,,,72,92
107040,note_on,40,0,10,,,,,,,,11,,,,68,75
107040,note_on,40,0,11,,,,,,,,12,,,,41,75
107040,note_on,40,0,4,,,,,,,,4,,,,68,92
107040,note_on,40,0,5,,,,,,,,5,,,,68,75
107040,note_on,40,0,7,,,,,,,,7,,,,29,75
107040,note_on,40,0,9,,,,,,,,10,,,,68,92
107040,note_on,40,0,6,,,,,,,,6,,,,41,75
107120,note_off,80,0,12,,,,,,,,13,,,,29,64
107120,note_off,80,0,9,,,,,,,,10,,,,68,64
107120,note_off,80,0,10,,,,,,,,11,,,,68,64
107120,note_off,80,0,6,,,,,,,,6,,,,41,64
107120,note_off,80,0,8,,,,,,,,8,,,,72,64
107120,note_off,80,0,11,,,,,,,,12,,,,41,64
107120,note_off,80,0,4,,,,,,,,4,,,,68,64
107120,note_off,80,0,7,,,,,,,,7,,,,29,64
107120,note_off,80,0,5,,,,,,,,5,,,,68,64
107120,note_off,80,0,3,,,,,,,,3,,,,72,64
107155,note_off,235,0,13,,,,,,,,14,,,,41,64
107160,note_on,40,0,9,,,,,,,,10,,,,77,92
107160,note_on,40,0,4,,,,,,,,4,,,,77,92
107160,note_on,40,0,6,,,,,,,,6,,,,53,75
107160,note_on,40,0,5,,,,,,,,5,,,,72,75
107160,note_on,40,0,10,,,,,,,,11,,,,72,75
107160,note_on,40,0,12,,,,,,,,13,,,,41,75
107160,note_on,40,0,8,,,,,,,,8,,,,80,92
107160,note_on,40,0,11,,,,,,,,12,,,,53,75
107160,note_on,40,0,3,,,,,,,,3,,,,80,92
107160,note_on,40,0,7,,,,,,,,7,,,,41,75
107160,note_on,5,0,13,,,,,,,,14,,,,41,45
107240,note_off,80,0,7,,,,,,,,7,,,,41,64
107240,note_off,80,0,3,,,,,,,,3,,,,80,64
107240,note_off,80,0,11,,,,,,,,12,,,,53,64
107240,note_off,80,0,4,,,,,,,,4,,,,77,64
107240,note_off,80,0,5,,,,,,,,5,,,,72,64
107240,note_off,80,0,12,,,,,,,,13,,,,41,64
107240,note_off,80,0,9,,,,,,,,10,,,,77,64
107240,note_off,80,0,10,,,,,,,,11,,,,72,64
107240,note_off,80,0,8,,,,,,,,8,,,,80,64
107240,note_off,80,0,6,,,,,,,,6,,,,53,64
107280,note_on,40,0,6,,,,,,,,6,,,,41,75
107280,note_on,40,0,8,,,,,,,,8,,,,72,92
107280,note_on,40,0,7,,,,,,,,7,,,,29,75
107280,note_on,40,0,10,,,,,,,,11,,,,68,75
107280,note_on,40,0,3,,,,,,,,3,,,,72,92
107280,note_on,40,0,12,,,,,,,,13,,,,29,75
107280,note_on,40,0,9,,,,,,,,10,,,,68,92
107280,note_on,40,0,5,,,,,,,,5,,,,68,75
107280,note_on,40,0,11,,,,,,,,12,,,,41,75
107280,note_on,40,0,4,,,,,,,,4,,,,68,92
107360,note_off,80,0,12,,,,,,,,13,,,,29,64
107360,note_off,80,0,7,,,,,,,,7,,,,29,64
107360,note_off,80,0,9,,,,,,,,10,,,,68,64
107360,note_off,80,0,3,,,,,,,,3,,,,72,64
107360,note_off,80,0,6,,,,,,,,6,,,,41,64
107360,note_off,80,0,4,,,,,,,,4,,,,68,64
107360,note_off,80,0,5,,,,,,,,5,,,,68,64
107360,note_off,80,0,10,,,,,,,,11,,,,68,64
107360,note_off,80,0,11,,,,,,,,12,,,,41,64
107360,note_off,80,0,8,,,,,,,,8,,,,72,64
107395,note_off,235,0,13,,,,,,,,14,,,,41,64
107400,note_on,40,0,8,,,,,,,,8,,,,80,92
107400,note_on,40,0,7,,,,,,,,7,,,,41,75
107400,note_on,40,0,6,,,,,,,,6,,,,53,75
107400,note_on,40,0,4,,,,,,,,4,,,,77,92
107400,note_on,40,0,10,,,,,,,,11,,,,72,75
107400,note_on,40,0,5,,,,,,,,5,,,,72,75
107400,note_on,40,0,11,,,,,,,,12,,,,53,75
107400,note_on,5,0,13,,,,,,,,14,,,,41,45
107400,note_on,40,0,3,,,,,,,,3,,,,80,92
107400,note_on,40,0,9,,,,,,,,10,,,,77,92
107400,note_on,40,0,12,,,,,,,,13,,,,41,75
107480,note_off,80,0,8,,,,,,,,8,,,,80,64
107480,note_off,80,0,3,,,,,,,,3,,,,80,64
107480,note_off,80,0,7,,,,,,,,7,,,,41,64
107480,note_off,80,0,4,,,,,,,,4,,,,77,64
107480,note_off,80,0,5,,,,,,,,5,,,,72,64
107480,note_off,80,0,11,,,,,,,,12,,,,53,64
107480,note_off,80,0,12,,,,,,,,13,,,,41,64
107480,note_off,80,0,9,,,,,,,,10,,,,77,64
107480,note_off,80,0,6,,,,,,,,6,,,,53,64
107480,note_off,80,0,10,,,,,,,,11,,,,72,64
107520,note_on,40,0,10,,,,,,,,11,,,,68,75
107520,note_on,40,0,5,,,,,,,,5,,,,68,75
107520,note_on,40,0,7,,,,,,,,7,,,,29,75
107520,note_on,40,0,3,,,,,,,,3,,,,72,92
107520,note_on,40,0,11,,,,,,,,12,,,,41,75
107520,note_on,40,0,9,,,,,,,,10,,,,68,92
107520,note_on,40,0,12,,,,,,,,13,,,,29,75
107520,note_on,40,0,8,,,,,,,,8,,,,72,92
107520,note_on,40,0,6,,,,,,,,6,,,,41,75
107520,note_on,40,0,4,,,,,,,,4,,,,68,92
107600,note_off,80,0,5,,,,,,,,5,,,,68,64
107600,note_off,80,0,12,,,,,,,,13,,,,29,64
107600,note_off,80,0,6,,,,,,,,6,,,,41,64
107600,note_off,80,0,4,,,,,,,,4,,,,68,64
107600,note_off,80,0,8,,,,,,,,8,,,,72,64
107600,note_off,80,0,9,,,,,,,,10,,,,68,64
107600,note_off,80,0,3,,,,,,,,3,,,,72,64
107600,note_off,80,0,11,,,,,,,,12,,,,41,64
107600,note_off,80,0,7,,,,,,,,7,,,,29,64
107600,note_off,80,0,10,,,,,,,,11,,,,68,64
107635,note_off,235,0,13,,,,,,,,14,,,,41,64
107640,note_on,40,0,6,,,,,,,,6,,,,46,75
107640,note_on,40,0,9,,,,,,,,10,,,,77,92
107640,note_on,40,0,3,,,,,,,,3,,,,73,92
107640,note_on,40,0,5,,,,,,,,5,,,,68,75
107640,note_on,40,0,10,,,,,,,,11,,,,68,75
107640,note_on,40,0,7,,,,,,,,7,,,,34,75
107640,note_on,40,0,12,,,,,,,,13,,,,34,75
107640,note_on,5,0,13,,,,,,,,14,,,,34,45
107640,note_on,40,0,8,,,,,,,,8,,,,73,92
107640,note_on,40,0,4,,,,,,,,4,,,,77,92
107640,note_on,40,0,11,,,,,,,,12,,,,46,75
107720,note_off,80,0,9,,,,,,,,10,,,,77,64
107720,note_off,80,0,4,,,,,,,,4,,,,77,64
107720,note_off,80,0,3,,,,,,,,3,,,,73,64
107720,note_off,80,0,8,,,,,,,,8,,,,73,64
107760,note_on,40,0,8,,,,,,,,8,,,,73,92
107760,note_on,40,0,4,,,,,,,,4,,,,77,92
107760,note_on,40,0,3,,,,,,,,3,,,,73,92
107760,note_on,40,0,9,,,,,,,,10,,,,77,92
107800,note_off,40,0,8,,,,,,,,8,,,,73,64
107800,note_off,40,0,4,,,,,,,,4,,,,77,64
107800,note_off,40,0,9,,,,,,,,10,,,,77,64
107800,note_off,40,0,3,,,,,,,,3,,,,73,64
107820,note_on,20,0,9,,,,,,,,10,,,,77,92
107820,note_on,20,0,8,,,,,,,,8,,,,73,92
107820,note_on,20,0,3,,,,,,,,3,,,,73,92
107820,note_on,20,0,4,,,,,,,,4,,,,77,92
107860,note_off,40,0,8,,,,,,,,8,,,,73,64
107860,note_off,40,0,9,,,,,,,,10,,,,77,64
107860,note_off,40,0,4,,,,,,,,4,,,,77,64
107860,note_off,40,0,3,,,,,,,,3,,,,73,64
107880,note_on,20,0,9,,,,,,,,10,,,,77,92
107880,note_on,20,0,4,,,,,,,,4,,,,77,92
107880,note_on,20,0,3,,,,,,,,3,,,,73,92
107880,note_on,20,0,8,,,,,,,,8,,,,73,92
107920,note_off,40,0,4,,,,,,,,4,,,,77,64
107920,note_off,40,0,3,,,,,,,,3,,,,73,64
107920,note_off,40,0,8,,,,,,,,8,,,,73,64
107920,note_off,40,0,9,,,,,,,,10,,,,77,64
107940,note_on,20,0,3,,,,,,,,3,,,,73,92
107940,note_on,20,0,8,,,,,,,,8,,,,73,92
107940,note_on,20,0,4,,,,,,,,4,,,,77,92
107940,note_on,20,0,9,,,,,,,,10,,,,77,92
107980,note_off,40,0,9,,,,,,,,10,,,,77,64
107980,note_off,40,0,3,,,,,,,,3,,,,73,64
107980,note_off,40,0,4,,,,,,,,4,,,,77,64
107980,note_off,40,0,8,,,,,,,,8,,,,73,64
108000,note_on,20,0,3,,,,,,,,3,,,,73,92
108000,note_on,20,0,4,,,,,,,,4,,,,77,92
108000,note_on,20,0,9,,,,,,,,10,,,,77,92
108000,note_on,20,0,8,,,,,,,,8,,,,73,92
108040,note_off,400,0,5,,,,,,,,5,,,,68,64
108040,note_off,40,0,8,,,,,,,,8,,,,73,64
108040,note_off,40,0,4,,,,,,,,4,,,,77,64
108040,note_off,400,0,11,,,,,,,,12,,,,46,64
108040,note_off,400,0,10,,,,,,,,11,,,,68,64
108040,note_off,400,0,12,,,,,,,,13,,,,34,64
108040,note_off,400,0,13,,,,,,,,14,,,,34,64
108040,note_off,400,0,7,,,,,,,,7,,,,34,64
108040,note_off,40,0,3,,,,,,,,3,,,,73,64
108040,note_off,40,0,9,,,,,,,,10,,,,77,64
108040,note_off,400,0,6,,,,,,,,6,,,,46,64
108060,note_on,20,0,8,,,,,,,,8,,,,73,92
108060,note_on,20,0,3,,,,,,,,3,,,,73,92
108060,note_on,20,0,4,,,,,,,,4,,,,77,92
108060,note_on,20,0,9,,,,,,,,10,,,,77,92
108100,note_off,40,0,3,,,,,,,,3,,,,73,64
108100,note_off,40,0,4,,,,,,,,4,,,,77,64
108100,note_off,40,0,8,,,,,,,,8,,,,73,64
108100,note_off,40,0,9,,,,,,,,10,,,,77,64
108120,note_on,20,0,3,,,,,,,,3,,,,73,92
108120,note_on,20,0,4,,,,,,,,4,,,,77,92
108120,note_on,20,0,8,,,,,,,,8,,,,73,92
108120,note_on,20,0,9,,,,,,,,10,,,,77,92
108200,note_off,80,0,9,,,,,,,,10,,,,77,64
108200,note_off,80,0,3,,,,,,,,3,,,,73,64
108200,note_off,80,0,8,,,,,,,,8,,,,73,64
108200,note_off,80,0,4,,,,,,,,4,,,,77,64
108240,note_on,40,0,8,,,,,,,,8,,,,73,92
108240,note_on,40,0,9,,,,,,,,10,,,,77,92
108240,note_on,40,0,3,,,,,,,,3,,,,73,92
108240,note_on,40,0,4,,,,,,,,4,,,,77,92
108320,note_off,80,0,9,,,,,,,,10,,,,77,64
108320,note_off,80,0,8,,,,,,,,8,,,,73,64
108320,note_off,80,0,4,,,,,,,,4,,,,77,64
108320,note_off,80,0,3,,,,,,,,3,,,,73,64
108360,note_on,40,0,4,,,,,,,,4,,,,77,92
108360,note_on,40,0,8,,,,,,,,8,,,,73,92
108360,note_on,40,0,9,,,,,,,,10,,,,77,92
108360,note_on,40,0,3,,,,,,,,3,,,,73,92
108440,note_off,80,0,3,,,,,,,,3,,,,73,64
108440,note_off,80,0,4,,,,,,,,4,,,,77,64
108440,note_off,80,0,9,,,,,,,,10,,,,77,64
108440,note_off,80,0,8,,,,,,,,8,,,,73,64
108480,note_on,40,0,9,,,,,,,,10,,,,77,92
108480,note_on,40,0,3,,,,,,,,3,,,,73,92
108480,note_on,40,0,4,,,,,,,,4,,,,77,92
108480,note_on,40,0,8,,,,,,,,8,,,,73,92
108560,note_off,80,0,3,,,,,,,,3,,,,73,64
108560,note_off,80,0,9,,,,,,,,10,,,,77,64
108560,note_off,80,0,8,,,,,,,,8,,,,73,64
108560,note_off,80,0,4,,,,,,,,4,,,,77,64
108600,note_on,40,0,4,,,,,,,,4,,,,75,92
108600,note_on,560,0,5,,,,,,,,5,,,,70,75
108600,note_on,560,0,6,,,,,,,,6,,,,51,75
108600,note_on,560,0,10,,,,,,,,11,,,,70,75
108600,note_on,560,0,12,,,,,,,,13,,,,39,75
108600,note_on,560,0,11,,,,,,,,12,,,,51,75
108600,note_on,40,0,8,,,,,,,,8,,,,79,92
108600,note_on,560,0,13,,,,,,,,14,,,,39,45
108600,note_on,40,0,9,,,,,,,,10,,,,75,92
108600,note_on,40,0,3,,,,,,,,3,,,,79,92
108600,note_on,560,0,7,,,,,,,,7,,,,39,75
108680,note_off,80,0,5,,,,,,,,5,,,,70,64
108680,note_off,80,0,9,,,,,,,,10,,,,75,64
108680,note_off,80,0,11,,,,,,,,12,,,,51,64
108680,note_off,80,0,3,,,,,,,,3,,,,79,64
108680,note_off,80,0,7,,,,,,,,7,,,,39,64
108680,note_off,80,0,10,,,,,,,,11,,,,70,64
108680,note_off,80,0,4,,,,,,,,4,,,,75,64
108680,note_off,80,0,12,,,,,,,,13,,,,39,64
108680,note_off,80,0,8,,,,,,,,8,,,,79,64
108680,note_off,80,0,6,,,,,,,,6,,,,51,64
108720,note_on,40,0,7,,,,,,,,7,,,,27,75
108720,note_on,40,0,6,,,,,,,,6,,,,39,75
108720,note_on,40,0,11,,,,,,,,12,,,,39,75
108720,note_on,40,0,3,,,,,,,,3,,,,73,92
108720,note_on,40,0,4,,,,,,,,4,,,,70,92
108720,note_on,40,0,10,,,,,,,,11,,,,67,75
108720,note_on,40,0,5,,,,,,,,5,,,,67,75
108720,note_on,40,0,9,,,,,,,,10,,,,70,92
108720,note_on,40,0,12,,,,,,,,13,,,,27,75
108720,note_on,40,0,8,,,,,,,,8,,,,73,92
108800,note_off,80,0,3,,,,,,,,3,,,,73,64
108800,note_off,80,0,4,,,,,,,,4,,,,70,64
108800,note_off,80,0,7,,,,,,,,7,,,,27,64
108800,note_off,80,0,9,,,,,,,,10,,,,70,64
108800,note_off,80,0,12,,,,,,,,13,,,,27,64
108800,note_off,80,0,10,,,,,,,,11,,,,67,64
108800,note_off,80,0,6,,,,,,,,6,,,,39,64
108800,note_off,80,0,11,,,,,,,,12,,,,39,64
108800,note_off,80,0,5,,,,,,,,5,,,,67,64
108800,note_off,80,0,8,,,,,,,,8,,,,73,64
108835,note_off,235,0,13,,,,,,,,14,,,,39,64
108840,note_on,40,0,11,,,,,,,,12,,,,51,75
108840,note_on,40,0,4,,,,,,,,4,,,,75,92
108840,note_on,40,0,9,,,,,,,,10,,,,75,92
108840,note_on,40,0,10,,,,,,,,11,,,,70,75
108840,note_on,40,0,7,,,,,,,,7,,,,39,75
108840,note_on,40,0,12,,,,,,,,13,,,,39,75
108840,note_on,40,0,8,,,,,,,,8,,,,79,92
108840,note_on,40,0,3,,,,,,,,3,,,,79,92
108840,note_on,40,0,5,,,,,,,,5,,,,70,75
108840,note_on,40,0,6,,,,,,,,6,,,,51,75
108840,note_on,5,0,13,,,,,,,,14,,,,39,45
108920,note_off,80,0,4,,,,,,,,4,,,,75,64
108920,note_off,80,0,5,,,,,,,,5,,,,70,64
108920,note_off,80,0,12,,,,,,,,13,,,,39,64
108920,note_off,80,0,8,,,,,,,,8,,,,79,64
108920,note_off,80,0,3,,,,,,,,3,,,,79,64
108920,note_off,80,0,11,,,,,,,,12,,,,51,64
108920,note_off,80,0,6,,,,,,,,6,,,,51,64
108920,note_off,80,0,7,,,,,,,,7,,,,39,64
108920,note_off,80,0,9,,,,,,,,10,,,,75,64
108920,note_off,80,0,10,,,,,,,,11,,,,70,64
108960,note_on,40,0,6,,,,,,,,6,,,,39,75
108960,note_on,40,0,7,,,,,,,,7,,,,27,75
108960,note_on,40,0,4,,,,,,,,4,,,,70,92
108960,note_on,40,0,8,,,,,,,,8,,,,73,92
108960,note_on,40,0,12,,,,,,,,13,,,,27,75
108960,note_on,40,0,9,,,,,,,,10,,,,70,92
108960,note_on,40,0,5,,,,,,,,5,,,,67,75
108960,note_on,40,0,3,,,,,,,,3,,,,73,92
108960,note_on,40,0,10,,,,,,,,11,,,,67,75
108960,note_on,40,0,11,,,,,,,,12,,,,39,75
109040,note_off,80,0,3,,,,,,,,3,,,,73,64
109040,note_off,80,0,5,,,,,,,,5,,,,67,64
109040,note_off,80,0,6,,,,,,,,6,,,,39,64
109040,note_off,80,0,7,,,,,,,,7,,,,27,64
109040,note_off,80,0,9,,,,,,,,10,,,,70,64
109040,note_off,80,0,11,,,,,,,,12,,,,39,64
109040,note_off,80,0,8,,,,,,,,8,,,,73,64
109040,note_off,80,0,12,,,,,,,,13,,,,27,64
109040,note_off,80,0,10,,,,,,,,11,,,,67,64
109040,note_off,80,0,4,,,,,,,,4,,,,70,64
109075,note_off,235,0,13,,,,,,,,14,,,,39,64
109080,note_on,40,0,6,,,,,,,,6,,,,51,75
109080,note_on,40,0,4,,,,,,,,4,,,,75,92
109080,note_on,40,0,7,,,,,,,,7,,,,39,75
109080,note_on,40,0,12,,,,,,,,13,,,,39,75
109080,note_on,5,0,13,,,,,,,,14,,,,39,45
109080,note_on,40,0,10,,,,,,,,11,,,,70,75
109080,note_on,40,0,3,,,,,,,,3,,,,79,92
109080,note_on,40,0,8,,,,,,,,8,,,,79,92
109080,note_on,40,0,11,,,,,,,,12,,,,51,75
109080,note_on,40,0,9,,,,,,,,10,,,,75,92
109080,note_on,40,0,5,,,,,,,,5,,,,70,75
109160,note_off,80,0,8,,,,,,,,8,,,,79,64
109160,note_off,80,0,12,,,,,,,,13,,,,39,64
109160,note_off,80,0,3,,,,,,,,3,,,,79,64
109160,note_off,80,0,5,,,,,,,,5,,,,70,64
109160,note_off,80,0,7,,,,,,,,7,,,,39,64
109160,note_off,80,0,4,,,,,,,,4,,,,75,64
109160,note_off,80,0,10,,,,,,,,11,,,,70,64
109160,note_off,80,0,11,,,,,,,,12,,,,51,64
109160,note_off,80,0,9,,,,,,,,10,,,,75,64
109160,note_off,80,0,6,,,,,,,,6,,,,51,64
109200,note_on,40,0,6,,,,,,,,6,,,,39,75
109200,note_on,40,0,8,,,,,,,,8,,,,73,92
109200,note_on,40,0,9,,,,,,,,10,,,,70,92
109200,note_on,40,0,7,,,,,,,,7,,,,27,75
109200,note_on,40,0,10,,,,,,,,11,,,,67,75
109200,note_on,40,0,11,,,,,,,,12,,,,39,75
109200,note_on,40,0,5,,,,,,,,5,,,,67,75
109200,note_on,40,0,4,,,,,,,,4,,,,70,92
109200,note_on,40,0,12,,,,,,,,13,,,,27,75
109200,note_on,40,0,3,,,,,,,,3,,,,73,92
109280,note_off,80,0,7,,,,,,,,7,,,,27,64
109280,note_off,80,0,10,,,,,,,,11,,,,67,64
109280,note_off,80,0,5,,,,,,,,5,,,,67,64
109280,note_off,80,0,4,,,,,,,,4,,,,70,64
109280,note_off,80,0,6,,,,,,,,6,,,,39,64
109280,note_off,80,0,11,,,,,,,,12,,,,39,64
109280,note_off,80,0,12,,,,,,,,13,,,,27,64
109280,note_off,80,0,8,,,,,,,,8,,,,73,64
109280,note_off,80,0,9,,,,,,,,10,,,,70,64
109280,note_off,80,0,3,,,,,,,,3,,,,73,64
109315,note_off,235,0,13,,,,,,,,14,,,,39,64
109320,note_on,40,0,7,,,,,,,,7,,,,39,75
109320,note_on,40,0,4,,,,,,,,4,,,,75,92
109320,note_on,40,0,11,,,,,,,,12,,,,51,75
109320,note_on,40,0,10,,,,,,,,11,,,,70,75
109320,note_on,40,0,8,,,,,,,,8,,,,79,92
109320,note_on,5,0,13,,,,,,,,14,,,,39,45
109320,note_on,40,0,5,,,,,,,,5,,,,70,75
109320,note_on,40,0,12,,,,,,,,13,,,,39,75
109320,note_on,40,0,6,,,,,,,,6,,,,51,75
109320,note_on,40,0,9,,,,,,,,10,,,,75,92
109320,note_on,40,0,3,,,,,,,,3,,,,79,92
109400,note_off,80,0,6,,,,,,,,6,,,,51,64
109400,note_off,80,0,4,,,,,,,,4,,,,75,64
109400,note_off,80,0,5,,,,,,,,5,,,,70,64
109400,note_off,80,0,12,,,,,,,,13,,,,39,64
109400,note_off,80,0,11,,,,,,,,12,,,,51,64
109400,note_off,80,0,7,,,,,,,,7,,,,39,64
109400,note_off,80,0,10,,,,,,,,11,,,,70,64
109400,note_off,80,0,8,,,,,,,,8,,,,79,64
109400,note_off,80,0,9,,,,,,,,10,,,,75,64
109400,note_off,80,0,3,,,,,,,,3,,,,79,64
109440,note_on,40,0,3,,,,,,,,3,,,,73,92
109440,note_on,40,0,7,,,,,,,,7,,,,27,75
109440,note_on,40,0,8,,,,,,,,8,,,,73,92
109440,note_on,40,0,6,,,,,,,,6,,,,39,75
109440,note_on,40,0,9,,,,,,,,10,,,,70,92
109440,note_on,40,0,5,,,,,,,,5,,,,67,75
109440,note_on,40,0,10,,,,,,,,11,,,,67,75
109440,note_on,40,0,4,,,,,,,,4,,,,70,92
109440,note_on,40,0,12,,,,,,,,13,,,,27,75
109440,note_on,40,0,11,,,,,,,,12,,,,39,75
109520,note_off,80,0,8,,,,,,,,8,,,,73,64
109520,note_off,80,0,4,,,,,,,,4,,,,70,64
109520,note_off,80,0,3,,,,,,,,3,,,,73,64
109520,note_off,80,0,12,,,,,,,,13,,,,27,64
109520,note_off,80,0,6,,,,,,,,6,,,,39,64
109520,note_off,80,0,7,,,,,,,,7,,,,27,64
109520,note_off,80,0,9,,,,,,,,10,,,,70,64
109520,note_off,80,0,11,,,,,,,,12,,,,39,64
109520,note_off,80,0,10,,,,,,,,11,,,,67,64
109520,note_off,80,0,5,,,,,,,,5,,,,67,64
109555,note_off,235,0,13,,,,,,,,14,,,,39,64
109560,note_on,5,0,13,,,,,,,,14,,,,32,45
109560,note_on,40,0,10,,,,,,,,11,,,,67,75
109560,note_on,40,0,4,,,,,,,,4,,,,75,92
109560,note_on,40,0,6,,,,,,,,6,,,,44,75
109560,note_on,40,0,8,,,,,,,,8,,,,72,92
109560,note_on,40,0,5,,,,,,,,5,,,,67,75
109560,note_on,40,0,9,,,,,,,,10,,,,75,92
109560,note_on,40,0,12,,,,,,,,13,,,,32,75
109560,note_on,40,0,7,,,,,,,,7,,,,32,75
109560,note_on,40,0,3,,,,,,,,3,,,,72,92
109560,note_on,40,0,11,,,,,,,,12,,,,44,75
109640,note_off,80,0,4,,,,,,,,4,,,,75,64
109640,note_off,80,0,8,,,,,,,,8,,,,72,64
109640,note_off,80,0,3,,,,,,,,3,,,,72,64
109640,note_off,80,0,9,,,,,,,,10,,,,75,64
109680,note_on,40,0,4,,,,,,,,4,,,,75,92
109680,note_on,40,0,8,,,,,,,,8,,,,72,92
109680,note_on,40,0,9,,,,,,,,10,,,,75,92
109680,note_on,40,0,3,,,,,,,,3,,,,72,92
109720,note_off,40,0,8,,,,,,,,8,,,,72,64
109720,note_off,40,0,9,,,,,,,,10,,,,75,64
109720,note_off,40,0,4,,,,,,,,4,,,,75,64
109720,note_off,40,0,3,,,,,,,,3,,,,72,64
109740,note_on,20,0,4,,,,,,,,4,,,,75,92
109740,note_on,20,0,8,,,,,,,,8,,,,72,92
109740,note_on,20,0,3,,,,,,,,3,,,,72,92
109740,note_on,20,0,9,,,,,,,,10,,,,75,92
109780,note_off,40,0,8,,,,,,,,8,,,,72,64
109780,note_off,40,0,4,,,,,,,,4,,,,75,64
109780,note_off,40,0,9,,,,,,,,10,,,,75,64
109780,note_off,40,0,3,,,,,,,,3,,,,72,64
109800,note_on,20,0,4,,,,,,,,4,,,,75,92
109800,note_on,20,0,9,,,,,,,,10,,,,75,92
109800,note_on,20,0,8,,,,,,,,8,,,,72,92
109800,note_on,20,0,3,,,,,,,,3,,,,72,92
109840,note_off,40,0,9,,,,,,,,10,,,,75,64
109840,note_off,40,0,8,,,,,,,,8,,,,72,64
109840,note_off,40,0,3,,,,,,,,3,,,,72,64
109840,note_off,40,0,4,,,,,,,,4,,,,75,64
109860,note_on,20,0,4,,,,,,,,4,,,,75,92
109860,note_on,20,0,8,,,,,,,,8,,,,72,92
109860,note_on,20,0,3,,,,,,,,3,,,,72,92
109860,note_on,20,0,9,,,,,,,,10,,,,75,92
109900,note_off,40,0,3,,,,,,,,3,,,,72,64
109900,note_off,40,0,4,,,,,,,,4,,,,75,64
109900,note_off,40,0,8,,,,,,,,8,,,,72,64
109900,note_off,40,0,9,,,,,,,,10,,,,75,64
109920,note_on,20,0,8,,,,,,,,8,,,,72,92
109920,note_on,20,0,4,,,,,,,,4,,,,75,92
109920,note_on,20,0,3,,,,,,,,3,,,,72,92
109920,note_on,20,0,9,,,,,,,,10,,,,75,92
109960,note_off,40,0,8,,,,,,,,8,,,,72,64
109960,note_off,400,0,10,,,,,,,,11,,,,67,64
109960,note_off,400,0,5,,,,,,,,5,,,,67,64
109960,note_off,40,0,9,,,,,,,,10,,,,75,64
109960,note_off,400,0,7,,,,,,,,7,,,,32,64
109960,note_off,400,0,11,,,,,,,,12,,,,44,64
109960,note_off,400,0,6,,,,,,,,6,,,,44,64
109960,note_off,40,0,4,,,,,,,,4,,,,75,64
109960,note_off,400,0,13,,,,,,,,14,,,,32,64
109960,note_off,400,0,12,,,,,,,,13,,,,32,64
109960,note_off,40,0,3,,,,,,,,3,,,,72,64
109980,note_on,20,0,3,,,,,,,,3,,,,72,92
109980,note_on,20,0,4,,,,,,,,4,,,,75,92
109980,note_on,20,0,9,,,,,,,,10,,,,75,92
109980,note_on,20,0,8,,,,,,,,8,,,,72,92
110020,note_off,40,0,4,,,,,,,,4,,,,75,64
110020,note_off,40,0,8,,,,,,,,8,,,,72,64
110020,note_off,40,0,3,,,,,,,,3,,,,72,64
110020,note_off,40,0,9,,,,,,,,10,,,,75,64
110040,note_on,20,0,3,,,,,,,,3,,,,72,92
110040,note_on,20,0,9,,,,,,,,10,,,,75,92
110040,note_on,20,0,8,,,,,,,,8,,,,72,92
110040,note_on,20,0,4,,,,,,,,4,,,,75,92
110120,note_off,80,0,9,,,,,,,,10,,,,75,64
110120,note_off,80,0,3,,,,,,,,3,,,,72,64
110120,note_off,80,0,4,,,,,,,,4,,,,75,64
110120,note_off,80,0,8,,,,,,,,8,,,,72,64
110160,note_on,40,0,3,,,,,,,,3,,,,72,92
110160,note_on,40,0,8,,,,,,,,8,,,,72,92
110160,note_on,40,0,4,,,,,,,,4,,,,75,92
110160,note_on,40,0,9,,,,,,,,10,,,,75,92
110240,note_off,80,0,3,,,,,,,,3,,,,72,64
110240,note_off,80,0,4,,,,,,,,4,,,,75,64
110240,note_off,80,0,9,,,,,,,,10,,,,75,64
110240,note_off,80,0,8,,,,,,,,8,,,,72,64
110280,note_on,40,0,3,,,,,,,,3,,,,72,92
110280,note_on,40,0,9,,,,,,,,10,,,,75,92
110280,note_on,40,0,4,,,,,,,,4,,,,75,92
110280,note_on,40,0,8,,,,,,,,8,,,,72,92
110360,note_off,80,0,9,,,,,,,,10,,,,75,64
110360,note_off,80,0,3,,,,,,,,3,,,,72,64
110360,note_off,80,0,8,,,,,,,,8,,,,72,64
110360,note_off,80,0,4,,,,,,,,4,,,,75,64
110400,note_on,40,0,9,,,,,,,,10,,,,75,92
110400,note_on,40,0,8,,,,,,,,8,,,,72,92
110400,note_on,40,0,4,,,,,,,,4,,,,75,92
110400,note_on,40,0,3,,,,,,,,3,,,,72,92
110480,note_off,80,0,8,,,,,,,,8,,,,72,64
110480,note_off,80,0,3,,,,,,,,3,,,,72,64
110480,note_off,80,0,4,,,,,,,,4,,,,75,64
110480,note_off,80,0,9,,,,,,,,10,,,,75,64
110520,note_on,40,0,4,,,,,,,,4,,,,73,92
110520,note_on,40,0,3,,,,,,,,3,,,,77,92
110520,note_on,560,0,6,,,,,,,,6,,,,49,80
110520,note_on,40,0,9,,,,,,,,10,,,,73,92
110520,note_on,560,0,10,,,,,,,,11,,,,68,80
110520,note_on,560,0,5,,,,,,,,5,,,,68,80
110520,note_on,560,0,11,,,,,,,,12,,,,49,80
110520,note_on,560,0,12,,,,,,,,13,,,,37,80
110520,note_on,40,0,8,,,,,,,,8,,,,77,92
110520,note_on,560,0,7,,,,,,,,7,,,,37,80
110520,note_on,560,0,13,,,,,,,,14,,,,37,49
110600,note_off,80,0,4,,,,,,,,4,,,,73,64
110600,note_off,80,0,3,,,,,,,,3,,,,77,64
110600,note_off,80,0,6,,,,,,,,6,,,,49,64
110600,note_off,80,0,12,,,,,,,,13,,,,37,64
110600,note_off,80,0,11,,,,,,,,12,,,,49,64
110600,note_off,80,0,8,,,,,,,,8,,,,77,64
110600,note_off,80,0,10,,,,,,,,11,,,,68,64
110600,note_off,80,0,9,,,,,,,,10,,,,73,64
110600,note_off,80,0,7,,,,,,,,7,,,,37,64
110600,note_off,80,0,5,,,,,,,,5,,,,68,64
110640,note_on,40,0,5,,,,,,,,5,,,,65,80
110640,note_on,40,0,7,,,,,,,,7,,,,25,80
110640,note_on,40,0,10,,,,,,,,11,,,,65,80
110640,note_on,40,0,11,,,,,,,,12,,,,37,80
110640,note_on,40,0,8,,,,,,,,8,,,,72,92
110640,note_on,40,0,12,,,,,,,,13,,,,25,80
110640,note_on,40,0,4,,,,,,,,4,,,,68,93
110640,note_on,40,0,6,,,,,,,,6,,,,37,80
110640,note_on,40,0,3,,,,,,,,3,,,,72,93
110640,note_on,40,0,9,,,,,,,,10,,,,68,92
110720,note_off,80,0,8,,,,,,,,8,,,,72,64
110720,note_off,80,0,6,,,,,,,,6,,,,37,64
110720,note_off,80,0,3,,,,,,,,3,,,,72,64
110720,note_off,80,0,12,,,,,,,,13,,,,25,64
110720,note_off,80,0,11,,,,,,,,12,,,,37,64
110720,note_off,80,0,10,,,,,,,,11,,,,65,64
110720,note_off,80,0,5,,,,,,,,5,,,,65,64
110720,note_off,80,0,7,,,,,,,,7,,,,25,64
110720,note_off,80,0,9,,,,,,,,10,,,,68,64
110720,note_off,80,0,4,,,,,,,,4,,,,68,64
110755,note_off,235,0,13,,,,,,,,14,,,,37,64
110760,note_on,40,0,9,,,,,,,,10,,,,73,92
110760,note_on,40,0,6,,,,,,,,6,,,,49,80
110760,note_on,40,0,4,,,,,,,,4,,,,73,94
110760,note_on,5,0,13,,,,,,,,14,,,,37,50
110760,note_on,40,0,8,,,,,,,,8,,,,77,92
110760,note_on,40,0,3,,,,,,,,3,,,,77,94
110760,note_on,40,0,12,,,,,,,,13,,,,37,80
110760,note_on,40,0,7,,,,,,,,7,,,,37,80
110760,note_on,40,0,11,,,,,,,,12,,,,49,80
110760,note_on,40,0,10,,,,,,,,11,,,,68,80
110760,note_on,40,0,5,,,,,,,,5,,,,68,80
110840,note_off,80,0,6,,,,,,,,6,,,,49,64
110840,note_off,80,0,4,,,,,,,,4,,,,73,64
110840,note_off,80,0,7,,,,,,,,7,,,,37,64
110840,note_off,80,0,9,,,,,,,,10,,,,73,64
110840,note_off,80,0,10,,,,,,,,11,,,,68,64
110840,note_off,80,0,12,,,,,,,,13,,,,37,64
110840,note_off,80,0,3,,,,,,,,3,,,,77,64
110840,note_off,80,0,11,,,,,,,,12,,,,49,64
110840,note_off,80,0,8,,,,,,,,8,,,,77,64
110840,note_off,80,0,5,,,,,,,,5,,,,68,64
110880,note_on,40,0,12,,,,,,,,13,,,,25,80
110880,note_on,40,0,9,,,,,,,,10,,,,68,92
110880,note_on,40,0,7,,,,,,,,7,,,,25,80
110880,note_on,40,0,6,,,,,,,,6,,,,37,80
110880,note_on,40,0,11,,,,,,,,12,,,,37,80
110880,note_on,40,0,10,,,,,,,,11,,,,65,80
110880,note_on,40,0,5,,,,,,,,5,,,,65,80
110880,note_on,40,0,8,,,,,,,,8,,,,72,92
110880,note_on,40,0,3,,,,,,,,3,,,,72,95
110880,note_on,40,0,4,,,,,,,,4,,,,68,95
110960,note_off,80,0,6,,,,,,,,6,,,,37,64
110960,note_off,80,0,11,,,,,,,,12,,,,37,64
110960,note_off,80,0,10,,,,,,,,11,,,,65,64
110960,note_off,80,0,12,,,,,,,,13,,,,25,64
110960,note_off,80,0,7,,,,,,,,7,,,,25,64
110960,note_off,80,0,3,,,,,,,,3,,,,72,64
110960,note_off,80,0,9,,,,,,,,10,,,,68,64
110960,note_off,80,0,4,,,,,,,,4,,,,68,64
110960,note_off,80,0,8,,,,,,,,8,,,,72,64
110960,note_off,80,0,5,,,,,,,,5,,,,65,64
110995,note_off,235,0,13,,,,,,,,14,,,,37,64
111000,note_on,40,0,9,,,,,,,,10,,,,73,92
111000,note_on,40,0,3,,,,,,,,3,,,,77,96
111000,note_on,40,0,6,,,,,,,,6,,,,49,80
111000,note_on,40,0,11,,,,,,,,12,,,,49,80
111000,note_on,5,0,13,,,,,,,,14,,,,37,51
111000,note_on,40,0,10,,,,,,,,11,,,,68,80
111000,note_on,40,0,5,,,,,,,,5,,,,68,80
111000,note_on,40,0,4,,,,,,,,4,,,,73,96
111000,note_on,40,0,8,,,,,,,,8,,,,77,92
111000,note_on,40,0,7,,,,,,,,7,,,,37,80
111000,note_on,40,0,12,,,,,,,,13,,,,37,80
111080,note_off,80,0,12,,,,,,,,13,,,,37,64
111080,note_off,80,0,4,,,,,,,,4,,,,73,64
111080,note_off,80,0,9,,,,,,,,10,,,,73,64
111080,note_off,80,0,3,,,,,,,,3,,,,77,64
111080,note_off,80,0,6,,,,,,,,6,,,,49,64
111080,note_off,80,0,10,,,,,,,,11,,,,68,64
111080,note_off,80,0,5,,,,,,,,5,,,,68,64
111080,note_off,80,0,7,,,,,,,,7,,,,37,64
111080,note_off,80,0,11,,,,,,,,12,,,,49,64
111080,note_off,80,0,8,,,,,,,,8,,,,77,64
111120,note_on,40,0,7,,,,,,,,7,,,,25,81
111120,note_on,40,0,4,,,,,,,,4,,,,68,97
111120,note_on,40,0,5,,,,,,,,5,,,,65,81
111120,note_on,40,0,6,,,,,,,,6,,,,37,81
111120,note_on,40,0,8,,,,,,,,8,,,,72,92
111120,note_on,40,0,12,,,,,,,,13,,,,25,81
111120,note_on,40,0,9,,,,,,,,10,,,,68,92
111120,note_on,40,0,11,,,,,,,,12,,,,37,81
111120,note_on,40,0,3,,,,,,,,3,,,,72,97
111120,note_on,40,0,10,,,,,,,,11,,,,65,81
111200,note_off,80,0,12,,,,,,,,13,,,,25,64
111200,note_off,80,0,7,,,,,,,,7,,,,25,64
111200,note_off,80,0,4,,,,,,,,4,,,,68,64
111200,note_off,80,0,9,,,,,,,,10,,,,68,64
111200,note_off,80,0,6,,,,,,,,6,,,,37,64
111200,note_off,80,0,11,,,,,,,,12,,,,37,64
111200,note_off,80,0,10,,,,,,,,11,,,,65,64
111200,note_off,80,0,8,,,,,,,,8,,,,72,64
111200,note_off,80,0,3,,,,,,,,3,,,,72,64
111200,note_off,80,0,5,,,,,,,,5,,,,65,64
111235,note_off,235,0,13,,,,,,,,14,,,,37,64
111240,note_on,40,0,11,,,,,,,,12,,,,49,82
111240,note_on,40,0,3,,,,,,,,3,,,,77,98
111240,note_on,5,0,13,,,,,,,,14,,,,37,52
111240,note_on,40,0,9,,,,,,,,10,,,,73,92
111240,note_on,40,0,4,,,,,,,,4,,,,73,98
111240,note_on,40,0,10,,,,,,,,11,,,,68,82
111240,note_on,40,0,12,,,,,,,,13,,,,37,82
111240,note_on,40,0,7,,,,,,,,7,,,,37,82
111240,note_on,40,0,6,,,,,,,,6,,,,49,82
111240,note_on,40,0,8,,,,,,,,8,,,,77,92
111240,note_on,40,0,5,,,,,,,,5,,,,68,82
111320,note_off,80,0,11,,,,,,,,12,,,,49,64
111320,note_off,80,0,5,,,,,,,,5,,,,68,64
111320,note_off,80,0,6,,,,,,,,6,,,,49,64
111320,note_off,80,0,8,,,,,,,,8,,,,77,64
111320,note_off,80,0,3,,,,,,,,3,,,,77,64
111320,note_off,80,0,4,,,,,,,,4,,,,73,64
111320,note_off,80,0,7,,,,,,,,7,,,,37,64
111320,note_off,80,0,9,,,,,,,,10,,,,73,64
111320,note_off,80,0,10,,,,,,,,11,,,,68,64
111320,note_off,80,0,12,,,,,,,,13,,,,37,64
111360,note_on,40,0,10,,,,,,,,11,,,,65,83
111360,note_on,40,0,8,,,,,,,,8,,,,72,92
111360,note_on,40,0,3,,,,,,,,3,,,,72,99
111360,note_on,40,0,7,,,,,,,,7,,,,25,83
111360,note_on,40,0,6,,,,,,,,6,,,,37,83
111360,note_on,40,0,12,,,,,,,,13,,,,25,83
111360,note_on,40,0,5,,,,,,,,5,,,,65,83
111360,note_on,40,0,11,,,,,,,,12,,,,37,83
111360,note_on,40,0,9,,,,,,,,10,,,,68,92
111360,note_on,40,0,4,,,,,,,,4,,,,68,99
111440,note_off,80,0,7,,,,,,,,7,,,,25,64
111440,note_off,80,0,12,,,,,,,,13,,,,25,64
111440,note_off,80,0,8,,,,,,,,8,,,,72,64
111440,note_off,80,0,10,,,,,,,,11,,,,65,64
111440,note_off,80,0,3,,,,,,,,3,,,,72,64
111440,note_off,80,0,5,,,,,,,,5,,,,65,64
111440,note_off,80,0,4,,,,,,,,4,,,,68,64
111440,note_off,80,0,6,,,,,,,,6,,,,37,64
111440,note_off,80,0,11,,,,,,,,12,,,,37,64
111440,note_off,80,0,9,,,,,,,,10,,,,68,64
111475,note_off,235,0,13,,,,,,,,14,,,,37,64
111480,note_on,40,0,4,,,,,,,,4,,,,73,100
111480,note_on,40,0,12,,,,,,,,13,,,,31,84
111480,note_on,40,0,9,,,,,,,,10,,,,73,92
111480,note_on,40,0,7,,,,,,,,7,,,,31,84
111480,note_on,40,0,3,,,,,,,,3,,,,70,100
111480,note_on,40,0,5,,,,,,,,5,,,,65,84
111480,note_on,40,0,8,,,,,,,,8,,,,70,92
111480,note_on,40,0,6,,,,,,,,6,,,,43,84
111480,note_on,40,0,11,,,,,,,,12,,,,43,84
111480,note_on,5,0,13,,,,,,,,14,,,,31,53
111480,note_on,40,0,10,,,,,,,,11,,,,65,84
111560,note_off,80,0,3,,,,,,,,3,,,,70,64
111560,note_off,80,0,9,,,,,,,,10,,,,73,64
111560,note_off,80,0,8,,,,,,,,8,,,,70,64
111560,note_off,80,0,4,,,,,,,,4,,,,73,64
111600,note_on,40,0,8,,,,,,,,8,,,,70,92
111600,note_on,40,0,3,,,,,,,,3,,,,70,101
111600,note_on,40,0,9,,,,,,,,10,,,,73,92
111600,note_on,40,0,4,,,,,,,,4,,,,73,101
111640,note_off,40,0,9,,,,,,,,10,,,,73,64
111640,note_off,40,0,3,,,,,,,,3,,,,70,64
111640,note_off,40,0,8,,,,,,,,8,,,,70,64
111640,note_off,40,0,4,,,,,,,,4,,,,73,64
111660,note_on,20,0,4,,,,,,,,4,,,,73,101
111660,note_on,20,0,9,,,,,,,,10,,,,73,92
111660,note_on,20,0,3,,,,,,,,3,,,,70,101
111660,note_on,20,0,8,,,,,,,,8,,,,70,92
111700,note_off,40,0,9,,,,,,,,10,,,,73,64
111700,note_off,40,0,3,,,,,,,,3,,,,70,64
111700,note_off,40,0,8,,,,,,,,8,,,,70,64
111700,note_off,40,0,4,,,,,,,,4,,,,73,64
111720,note_on,20,0,8,,,,,,,,8,,,,70,92
111720,note_on,20,0,3,,,,,,,,3,,,,70,101
111720,note_on,20,0,4,,,,,,,,4,,,,73,101
111720,note_on,20,0,9,,,,,,,,10,,,,73,92
111760,note_off,40,0,3,,,,,,,,3,,,,70,64
111760,note_off,40,0,8,,,,,,,,8,,,,70,64
111760,note_off,40,0,9,,,,,,,,10,,,,73,64
111760,note_off,40,0,4,,,,,,,,4,,,,73,64
111780,note_on,20,0,9,,,,,,,,10,,,,73,92
111780,note_on,20,0,8,,,,,,,,8,,,,70,92
111780,note_on,20,0,3,,,,,,,,3,,,,70,101
111780,note_on,20,0,4,,,,,,,,4,,,,73,101
111820,note_off,40,0,9,,,,,,,,10,,,,73,64
111820,note_off,40,0,8,,,,,,,,8,,,,70,64
111820,note_off,40,0,4,,,,,,,,4,,,,73,64
111820,note_off,40,0,3,,,,,,,,3,,,,70,64
111840,note_on,20,0,3,,,,,,,,3,,,,70,101
111840,note_on,20,0,9,,,,,,,,10,,,,73,92
111840,note_on,20,0,8,,,,,,,,8,,,,70,92
111840,note_on,20,0,4,,,,,,,,4,,,,73,101
111880,note_off,40,0,4,,,,,,,,4,,,,73,64
111880,note_off,400,0,6,,,,,,,,6,,,,43,64
111880,note_off,40,0,3,,,,,,,,3,,,,70,64
111880,note_off,400,0,13,,,,,,,,14,,,,31,64
111880,note_off,400,0,5,,,,,,,,5,,,,65,64
111880,note_off,40,0,8,,,,,,,,8,,,,70,64
111880,note_off,40,0,9,,,,,,,,10,,,,73,64
111880,note_off,400,0,12,,,,,,,,13,,,,31,64
111880,note_off,400,0,10,,,,,,,,11,,,,65,64
111880,note_off,400,0,11,,,,,,,,12,,,,43,64
111880,note_off,400,0,7,,,,,,,,7,,,,31,64
111900,note_on,20,0,3,,,,,,,,3,,,,70,101
111900,note_on,20,0,4,,,,,,,,4,,,,73,101
111900,note_on,20,0,8,,,,,,,,8,,,,70,92
111900,note_on,20,0,9,,,,,,,,10,,,,73,92
111940,note_off,40,0,4,,,,,,,,4,,,,73,64
111940,note_off,40,0,3,,,,,,,,3,,,,70,64
111940,note_off,40,0,8,,,,,,,,8,,,,70,64
111940,note_off,40,0,9,,,,,,,,10,,,,73,64
111960,note_on,20,0,8,,,,,,,,8,,,,70,92
111960,note_on,20,0,4,,,,,,,,4,,,,73,101
111960,note_on,20,0,3,,,,,,,,3,,,,70,101
111960,note_on,20,0,9,,,,,,,,10,,,,73,92
112040,note_off,80,0,4,,,,,,,,4,,,,73,64
112040,note_off,80,0,3,,,,,,,,3,,,,70,64
112040,note_off,80,0,8,,,,,,,,8,,,,70,64
112040,note_off,80,0,9,,,,,,,,10,,,,73,64
112080,note_on,40,0,9,,,,,,,,10,,,,73,92
112080,note_on,40,0,4,,,,,,,,4,,,,73,102
112080,note_on,40,0,3,,,,,,,,3,,,,70,102
112080,note_on,40,0,8,,,,,,,,8,,,,70,92
112160,note_off,80,0,8,,,,,,,,8,,,,70,64
112160,note_off,80,0,9,,,,,,,,10,,,,73,64
112160,note_off,80,0,4,,,,,,,,4,,,,73,64
112160,note_off,80,0,3,,,,,,,,3,,,,70,64
112200,note_on,40,0,4,,,,,,,,4,,,,73,104
112200,note_on,40,0,3,,,,,,,,3,,,,70,104
112200,note_on,40,0,8,,,,,,,,8,,,,70,92
112200,note_on,40,0,9,,,,,,,,10,,,,73,92
112280,note_off,80,0,9,,,,,,,,10,,,,73,64
112280,note_off,80,0,4,,,,,,,,4,,,,73,64
112280,note_off,80,0,3,,,,,,,,3,,,,70,64
112280,note_off,80,0,8,,,,,,,,8,,,,70,64
112320,note_on,40,0,9,,,,,,,,10,,,,73,92
112320,note_on,40,0,8,,,,,,,,8,,,,70,92
112320,note_on,40,0,3,,,,,,,,3,,,,70,106
112320,note_on,40,0,4,,,,,,,,4,,,,73,106
112400,note_off,80,0,4,,,,,,,,4,,,,73,64
112400,note_off,80,0,3,,,,,,,,3,,,,70,64
112400,note_off,80,0,8,,,,,,,,8,,,,70,64
112400,note_off,80,0,9,,,,,,,,10,,,,73,64
112440,note_on,560,0,5,,,,,,,,5,,,,67,92
112440,note_on,560,0,13,,,,,,,,14,,,,36,60
112440,note_on,40,0,4,,,,,,,,4,,,,72,108
112440,note_on,560,0,10,,,,,,,,11,,,,67,92
112440,note_on,560,0,6,,,,,,,,6,,,,60,92
112440,note_on,560,0,7,,,,,,,,7,,,,48,92
112440,note_on,560,0,11,,,,,,,,12,,,,60,92
112440,note_on,40,0,3,,,,,,,,3,,,,76,108
112440,note_on,40,0,8,,,,,,,,8,,,,76,92
112440,note_on,40,0,9,,,,,,,,10,,,,72,92
112440,note_on,560,0,12,,,,,,,,13,,,,48,92
112480,note_off,40,0,8,,,,,,,,8,,,,76,64
112480,note_off,40,0,3,,,,,,,,3,,,,76,64
112480,note_off,40,0,9,,,,,,,,10,,,,72,64
112480,note_off,40,0,4,,,,,,,,4,,,,72,64
112500,note_on,20,0,3,,,,,,,,3,,,,79,108
112500,note_on,20,0,9,,,,,,,,10,,,,76,92
112500,note_on,20,0,8,,,,,,,,8,,,,79,92
112500,note_on,20,0,4,,,,,,,,4,,,,76,108
112520,note_off,80,0,12,,,,,,,,13,,,,48,64
112520,note_off,80,0,10,,,,,,,,11,,,,67,64
112520,note_off,80,0,5,,,,,,,,5,,,,67,64
112520,note_off,80,0,7,,,,,,,,7,,,,48,64
112520,note_off,80,0,6,,,,,,,,6,,,,60,64
112520,note_off,80,0,11,,,,,,,,12,,,,60,64
112540,note_off,40,0,3,,,,,,,,3,,,,79,64
112540,note_off,40,0,9,,,,,,,,10,,,,76,64
112540,note_off,40,0,8,,,,,,,,8,,,,79,64
112540,note_off,40,0,4,,,,,,,,4,,,,76,64
112560,note_on,40,0,11,,,,,,,,12,,,,48,92
112560,note_on,20,0,3,,,,,,,,3,,,,82,108
112560,note_on,20,0,4,,,,,,,,4,,,,79,108
112560,note_on,40,0,12,,,,,,,,13,,,,36,92
112560,note_on,40,0,10,,,,,,,,11,,,,64,92
112560,note_on,40,0,6,,,,,,,,6,,,,48,92
112560,note_on,40,0,5,,,,,,,,5,,,,64,92
112560,note_on,20,0,8,,,,,,,,8,,,,82,92
112560,note_on,40,0,7,,,,,,,,7,,,,36,92
112560,note_on,20,0,9,,,,,,,,10,,,,79,92
112600,note_off,40,0,8,,,,,,,,8,,,,82,64
112600,note_off,40,0,3,,,,,,,,3,,,,82,64
112600,note_off,40,0,9,,,,,,,,10,,,,79,64
112600,note_off,40,0,4,,,,,,,,4,,,,79,64
112620,note_on,20,0,4,,,,,,,,4,,,,76,108
112620,note_on,20,0,3,,,,,,,,3,,,,79,108
112620,note_on,20,0,9,,,,,,,,10,,,,76,92
112620,note_on,20,0,8,,,,,,,,8,,,,79,92
112640,note_off,80,0,6,,,,,,,,6,,,,48,64
112640,note_off,80,0,10,,,,,,,,11,,,,64,64
112640,note_off,80,0,12,,,,,,,,13,,,,36,64
112640,note_off,80,0,7,,,,,,,,7,,,,36,64
112640,note_off,80,0,5,,,,,,,,5,,,,64,64
112640,note_off,80,0,11,,,,,,,,12,,,,48,64
112660,note_off,40,0,3,,,,,,,,3,,,,79,64
112660,note_off,40,0,9,,,,,,,,10,,,,76,64
112660,note_off,40,0,4,,,,,,,,4,,,,76,64
112660,note_off,40,0,8,,,,,,,,8,,,,79,64
112675,note_off,235,0,13,,,,,,,,14,,,,36,64
112680,note_on,20,0,9,,,,,,,,10,,,,72,92
112680,note_on,40,0,10,,,,,,,,11,,,,67,92
112680,note_on,40,0,11,,,,,,,,12,,,,60,92
112680,note_on,40,0,12,,,,,,,,13,,,,48,92
112680,note_on,20,0,3,,,,,,,,3,,,,76,108
112680,note_on,40,0,5,,,,,,,,5,,,,67,92
112680,note_on,5,0,13,,,,,,,,14,,,,36,60
112680,note_on,40,0,6,,,,,,,,6,,,,60,92
112680,note_on,20,0,4,,,,,,,,4,,,,72,108
112680,note_on,20,0,8,,,,,,,,8,,,,76,92
112680,note_on,40,0,7,,,,,,,,7,,,,48,92
112720,note_off,40,0,4,,,,,,,,4,,,,72,64
112720,note_off,40,0,3,,,,,,,,3,,,,76,64
112720,note_off,40,0,9,,,,,,,,10,,,,72,64
112720,note_off,40,0,8,,,,,,,,8,,,,76,64
112740,note_on,20,0,4,,,,,,,,4,,,,76,108
112740,note_on,20,0,8,,,,,,,,8,,,,79,92
112740,note_on,20,0,3,,,,,,,,3,,,,79,108
112740,note_on,20,0,9,,,,,,,,10,,,,76,92
112760,note_off,80,0,7,,,,,,,,7,,,,48,64
112760,note_off,80,0,10,,,,,,,,11,,,,67,64
112760,note_off,80,0,6,,,,,,,,6,,,,60,64
112760,note_off,80,0,12,,,,,,,,13,,,,48,64
112760,note_off,80,0,5,,,,,,,,5,,,,67,64
112760,note_off,80,0,11,,,,,,,,12,,,,60,64
112780,note_off,40,0,8,,,,,,,,8,,,,79,64
112780,note_off,40,0,3,,,,,,,,3,,,,79,64
112780,note_off,40,0,9,,,,,,,,10,,,,76,64
112780,note_off,40,0,4,,,,,,,,4,,,,76,64
112800,note_on,40,0,7,,,,,,,,7,,,,36,92
112800,note_on,20,0,8,,,,,,,,8,,,,82,92
112800,note_on,40,0,6,,,,,,,,6,,,,48,92
112800,note_on,40,0,12,,,,,,,,13,,,,36,92
112800,note_on,20,0,9,,,,,,,,10,,,,79,92
112800,note_on,40,0,5,,,,,,,,5,,,,64,92
112800,note_on,20,0,3,,,,,,,,3,,,,82,108
112800,note_on,40,0,10,,,,,,,,11,,,,64,92
112800,note_on,40,0,11,,,,,,,,12,,,,48,92
112800,note_on,20,0,4,,,,,,,,4,,,,79,108
112840,note_off,40,0,4,,,,,,,,4,,,,79,64
112840,note_off,40,0,3,,,,,,,,3,,,,82,64
112840,note_off,40,0,8,,,,,,,,8,,,,82,64
112840,note_off,40,0,9,,,,,,,,10,,,,79,64
112860,note_on,20,0,3,,,,,,,,3,,,,79,108
112860,note_on,20,0,8,,,,,,,,8,,,,79,92
112860,note_on,20,0,9,,,,,,,,10,,,,76,92
112860,note_on,20,0,4,,,,,,,,4,,,,76,108
112880,note_off,80,0,5,,,,,,,,5,,,,64,64
112880,note_off,80,0,6,,,,,,,,6,,,,48,64
112880,note_off,80,0,11,,,,,,,,12,,,,48,64
112880,note_off,80,0,7,,,,,,,,7,,,,36,64
112880,note_off,80,0,12,,,,,,,,13,,,,36,64
112880,note_off,80,0,10,,,,,,,,11,,,,64,64
112900,note_off,40,0,3,,,,,,,,3,,,,79,64
112900,note_off,40,0,9,,,,,,,,10,,,,76,64
112900,note_off,40,0,4,,,,,,,,4,,,,76,64
112900,note_off,40,0,8,,,,,,,,8,,,,79,64
112915,note_off,235,0,13,,,,,,,,14,,,,36,64
112920,note_on,40,0,5,,,,,,,,5,,,,67,92
112920,note_on,5,0,13,,,,,,,,14,,,,36,60
112920,note_on,20,0,9,,,,,,,,10,,,,72,92
112920,note_on,20,0,3,,,,,,,,3,,,,76,108
112920,note_on,40,0,6,,,,,,,,6,,,,60,92
112920,note_on,40,0,10,,,,,,,,11,,,,67,92
112920,note_on,20,0,4,,,,,,,,4,,,,72,108
112920,note_on,40,0,11,,,,,,,,12,,,,60,92
112920,note_on,40,0,12,,,,,,,,13,,,,48,92
112920,note_on,40,0,7,,,,,,,,7,,,,48,92
112920,note_on,20,0,8,,,,,,,,8,,,,76,92
112960,note_off,40,0,4,,,,,,,,4,,,,72,64
112960,note_off,40,0,3,,,,,,,,3,,,,76,64
112960,note_off,40,0,8,,,,,,,,8,,,,76,64
112960,note_off,40,0,9,,,,,,,,10,,,,72,64
112980,note_on,20,0,8,,,,,,,,8,,,,79,92
112980,note_on,20,0,9,,,,,,,,10,,,,76,92
112980,note_on,20,0,3,,,,,,,,3,,,,79,108
112980,note_on,20,0,4,,,,,,,,4,,,,76,108
113000,note_off,80,0,6,,,,,,,,6,,,,60,64
113000,note_off,80,0,12,,,,,,,,13,,,,48,64
113000,note_off,80,0,11,,,,,,,,12,,,,60,64
113000,note_off,80,0,10,,,,,,,,11,,,,67,64
113000,note_off,80,0,5,,,,,,,,5,,,,67,64
113000,note_off,80,0,7,,,,,,,,7,,,,48,64
113020,note_off,40,0,4,,,,,,,,4,,,,76,64
113020,note_off,40,0,3,,,,,,,,3,,,,79,64
113020,note_off,40,0,9,,,,,,,,10,,,,76,64
113020,note_off,40,0,8,,,,,,,,8,,,,79,64
113040,note_on,40,0,11,,,,,,,,12,,,,48,92
113040,note_on,40,0,5,,,,,,,,5,,,,64,92
113040,note_on,40,0,6,,,,,,,,6,,,,48,92
113040,note_on,20,0,8,,,,,,,,8,,,,82,92
113040,note_on,40,0,12,,,,,,,,13,,,,36,92
113040,note_on,40,0,10,,,,,,,,11,,,,64,92
113040,note_on,20,0,3,,,,,,,,3,,,,82,108
113040,note_on,20,0,9,,,,,,,,10,,,,79,92
113040,note_on,40,0,7,,,,,,,,7,,,,36,92
113040,note_on,20,0,4,,,,,,,,4,,,,79,108
113080,note_off,40,0,4,,,,,,,,4,,,,79,64
113080,note_off,40,0,8,,,,,,,,8,,,,82,64
113080,note_off,40,0,9,,,,,,,,10,,,,79,64
113080,note_off,40,0,3,,,,,,,,3,,,,82,64
113100,note_on,20,0,3,,,,,,,,3,,,,79,108
113100,note_on,20,0,8,,,,,,,,8,,,,79,92
113100,note_on,20,0,4,,,,,,,,4,,,,76,108
113100,note_on,20,0,9,,,,,,,,10,,,,76,92
113120,note_off,80,0,5,,,,,,,,5,,,,64,64
113120,note_off,80,0,6,,,,,,,,6,,,,48,64
113120,note_off,80,0,10,,,,,,,,11,,,,64,64
113120,note_off,80,0,7,,,,,,,,7,,,,36,64
113120,note_off,80,0,12,,,,,,,,13,,,,36,64
113120,note_off,80,0,11,,,,,,,,12,,,,48,64
113140,note_off,40,0,4,,,,,,,,4,,,,76,64
113140,note_off,40,0,3,,,,,,,,3,,,,79,64
113140,note_off,40,0,9,,,,,,,,10,,,,76,64
113140,note_off,40,0,8,,,,,,,,8,,,,79,64
113155,note_off,235,0,13,,,,,,,,14,,,,36,64
113160,note_on,20,0,3,,,,,,,,3,,,,76,108
113160,note_on,40,0,10,,,,,,,,11,,,,67,92
113160,note_on,40,0,11,,,,,,,,12,,,,60,92
113160,note_on,5,0,13,,,,,,,,14,,,,36,60
113160,note_on,20,0,4,,,,,,,,4,,,,72,108
113160,note_on,40,0,5,,,,,,,,5,,,,67,92
113160,note_on,20,0,8,,,,,,,,8,,,,76,92
113160,note_on,40,0,6,,,,,,,,6,,,,60,92
113160,note_on,40,0,12,,,,,,,,13,,,,48,92
113160,note_on,20,0,9,,,,,,,,10,,,,72,92
113160,note_on,40,0,7,,,,,,,,7,,,,48,92
113200,note_off,40,0,3,,,,,,,,3,,,,76,64
113200,note_off,40,0,8,,,,,,,,8,,,,76,64
113200,note_off,40,0,4,,,,,,,,4,,,,72,64
113200,note_off,40,0,9,,,,,,,,10,,,,72,64
113220,note_on,20,0,4,,,,,,,,4,,,,76,108
113220,note_on,20,0,8,,,,,,,,8,,,,79,92
113220,note_on,20,0,9,,,,,,,,10,,,,76,92
113220,note_on,20,0,3,,,,,,,,3,,,,79,108
113240,note_off,80,0,6,,,,,,,,6,,,,60,64
113240,note_off,80,0,5,,,,,,,,5,,,,67,64
113240,note_off,80,0,7,,,,,,,,7,,,,48,64
113240,note_off,80,0,12,,,,,,,,13,,,,48,64
113240,note_off,80,0,10,,,,,,,,11,,,,67,64
113240,note_off,80,0,11,,,,,,,,12,,,,60,64
113260,note_off,40,0,3,,,,,,,,3,,,,79,64
113260,note_off,40,0,9,,,,,,,,10,,,,76,64
113260,note_off,40,0,8,,,,,,,,8,,,,79,64
113260,note_off,40,0,4,,,,,,,,4,,,,76,64
113280,note_on,40,0,12,,,,,,,,13,,,,36,92
113280,note_on,20,0,9,,,,,,,,10,,,,79,92
113280,note_on,40,0,11,,,,,,,,12,,,,48,92
113280,note_on,40,0,5,,,,,,,,5,,,,64,92
113280,note_on,40,0,10,,,,,,,,11,,,,64,92
113280,note_on,20,0,3,,,,,,,,3,,,,82,108
113280,note_on,40,0,6,,,,,,,,6,,,,48,92
113280,note_on,40,0,7,,,,,,,,7,,,,36,92
113280,note_on,20,0,4,,,,,,,,4,,,,79,108
113280,note_on,20,0,8,,,,,,,,8,,,,82,92
113320,note_off,40,0,9,,,,,,,,10,,,,79,64
113320,note_off,40,0,3,,,,,,,,3,,,,82,64
113320,note_off,40,0,4,,,,,,,,4,,,,79,64
113320,note_off,40,0,8,,,,,,,,8,,,,82,64
113340,note_on,20,0,3,,,,,,,,3,,,,79,108
113340,note_on,20,0,9,,,,,,,,10,,,,76,92
113340,note_on,20,0,4,,,,,,,,4,,,,76,108
113340,note_on,20,0,8,,,,,,,,8,,,,79,92
113360,note_off,80,0,11,,,,,,,,12,,,,48,64
113360,note_off,80,0,6,,,,,,,,6,,,,48,64
113360,note_off,80,0,12,,,,,,,,13,,,,36,64
113360,note_off,80,0,10,,,,,,,,11,,,,64,64
113360,note_off,80,0,5,,,,,,,,5,,,,64,64
113360,note_off,80,0,7,,,,,,,,7,,,,36,64
113380,note_off,40,0,9,,,,,,,,10,,,,76,64
113380,note_off,40,0,3,,,,,,,,3,,,,79,64
113380,note_off,40,0,4,,,,,,,,4,,,,76,64
113380,note_off,40,0,8,,,,,,,,8,,,,79,64
113395,note_off,235,0,13,,,,,,,,14,,,,36,64
113400,note_on,40,0,11,,,,,,,,12,,,,53,92
113400,note_on,5,0,13,,,,,,,,14,,,,41,60
113400,note_on,40,0,5,,,,,,,,5,,,,60,92
113400,note_on,40,0,6,,,,,,,,6,,,,53,92
113400,note_on,40,0,10,,,,,,,,11,,,,60,92
113400,note_on,20,0,4,,,,,,,,4,,,,77,108
113400,note_on,20,0,9,,,,,,,,10,,,,77,92
113400,note_on,40,0,7,,,,,,,,7,,,,41,92
113400,note_on,20,0,3,,,,,,,,3,,,,80,108
113400,note_on,20,0,8,,,,,,,,8,,,,80,92
113400,note_on,40,0,12,,,,,,,,13,,,,41,92
113480,note_off,80,0,9,,,,,,,,10,,,,77,64
113480,note_off,80,0,10,,,,,,,,11,,,,60,64
113480,note_off,80,0,7,,,,,,,,7,,,,41,64
113480,note_off,80,0,12,,,,,,,,13,,,,41,64
113480,note_off,80,0,4,,,,,,,,4,,,,77,64
113480,note_off,80,0,6,,,,,,,,6,,,,53,64
113480,note_off,80,0,5,,,,,,,,5,,,,60,64
113480,note_off,80,0,11,,,,,,,,12,,,,53,64
113480,note_off,80,0,3,,,,,,,,3,,,,80,64
113480,note_off,80,0,8,,,,,,,,8,,,,80,64
113520,note_on,40,0,10,,,,,,,,11,,,,60,92
113520,note_on,40,0,6,,,,,,,,6,,,,53,92
113520,note_on,40,0,11,,,,,,,,12,,,,53,92
113520,note_on,40,0,12,,,,,,,,13,,,,41,92
113520,note_on,40,0,9,,,,,,,,10,,,,77,92
113520,note_on,40,0,8,,,,,,,,8,,,,80,92
113520,note_on,40,0,4,,,,,,,,4,,,,77,108
113520,note_on,40,0,3,,,,,,,,3,,,,80,108
113520,note_on,40,0,5,,,,,,,,5,,,,60,92
113520,note_on,40,0,7,,,,,,,,7,,,,41,92
113560,note_off,40,0,12,,,,,,,,13,,,,41,64
113560,note_off,40,0,10,,,,,,,,11,,,,60,64
113560,note_off,40,0,5,,,,,,,,5,,,,60,64
113560,note_off,40,0,9,,,,,,,,10,,,,77,64
113560,note_off,40,0,8,,,,,,,,8,,,,80,64
113560,note_off,40,0,11,,,,,,,,12,,,,53,64
113560,note_off,40,0,7,,,,,,,,7,,,,41,64
113560,note_off,40,0,3,,,,,,,,3,,,,80,64
113560,note_off,40,0,4,,,,,,,,4,,,,77,64
113560,note_off,40,0,6,,,,,,,,6,,,,53,64
113580,note_on,20,0,9,,,,,,,,10,,,,77,92
113580,note_on,20,0,11,,,,,,,,12,,,,53,92
113580,note_on,20,0,3,,,,,,,,3,,,,80,108
113580,note_on,20,0,6,,,,,,,,6,,,,53,92
113580,note_on,20,0,10,,,,,,,,11,,,,60,92
113580,note_on,20,0,5,,,,,,,,5,,,,60,92
113580,note_on,20,0,12,,,,,,,,13,,,,41,92
113580,note_on,20,0,4,,,,,,,,4,,,,77,108
113580,note_on,20,0,7,,,,,,,,7,,,,41,92
113580,note_on,20,0,8,,,,,,,,8,,,,80,92
113620,note_off,40,0,10,,,,,,,,11,,,,60,64
113620,note_off,40,0,12,,,,,,,,13,,,,41,64
113620,note_off,40,0,11,,,,,,,,12,,,,53,64
113620,note_off,40,0,5,,,,,,,,5,,,,60,64
113620,note_off,40,0,3,,,,,,,,3,,,,80,64
113620,note_off,40,0,9,,,,,,,,10,,,,77,64
113620,note_off,40,0,6,,,,,,,,6,,,,53,64
113620,note_off,40,0,8,,,,,,,,8,,,,80,64
113620,note_off,40,0,4,,,,,,,,4,,,,77,64
113620,note_off,40,0,7,,,,,,,,7,,,,41,64
113635,note_off,235,0,13,,,,,,,,14,,,,41,64
113640,note_on,20,0,5,,,,,,,,5,,,,60,92
113640,note_on,5,0,13,,,,,,,,14,,,,41,60
113640,note_on,20,0,9,,,,,,,,10,,,,77,92
113640,note_on,20,0,6,,,,,,,,6,,,,53,92
113640,note_on,20,0,12,,,,,,,,13,,,,41,92
113640,note_on,20,0,7,,,,,,,,7,,,,41,92
113640,note_on,20,0,10,,,,,,,,11,,,,60,92
113640,note_on,20,0,8,,,,,,,,8,,,,80,92
113640,note_on,20,0,4,,,,,,,,4,,,,77,108
113640,note_on,20,0,3,,,,,,,,3,,,,80,108
113640,note_on,20,0,11,,,,,,,,12,,,,53,92
113680,note_off,40,0,9,,,,,,,,10,,,,77,64
113680,note_off,40,0,3,,,,,,,,3,,,,80,64
113680,note_off,40,0,5,,,,,,,,5,,,,60,64
113680,note_off,40,0,11,,,,,,,,12,,,,53,64
113680,note_off,40,0,12,,,,,,,,13,,,,41,64
113680,note_off,40,0,4,,,,,,,,4,,,,77,64
113680,note_off,40,0,10,,,,,,,,11,,,,60,64
113680,note_off,40,0,8,,,,,,,,8,,,,80,64
113680,note_off,40,0,6,,,,,,,,6,,,,53,64
113680,note_off,40,0,7,,,,,,,,7,,,,41,64
113700,note_on,20,0,9,,,,,,,,10,,,,77,92
113700,note_on,20,0,3,,,,,,,,3,,,,80,108
113700,note_on,20,0,11,,,,,,,,12,,,,53,92
113700,note_on,20,0,5,,,,,,,,5,,,,60,92
113700,note_on,20,0,4,,,,,,,,4,,,,77,108
113700,note_on,20,0,8,,,,,,,,8,,,,80,92
113700,note_on,20,0,12,,,,,,,,13,,,,41,92
113700,note_on,20,0,10,,,,,,,,11,,,,60,92
113700,note_on,20,0,7,,,,,,,,7,,,,41,92
113700,note_on,20,0,6,,,,,,,,6,,,,53,92
113740,note_off,40,0,5,,,,,,,,5,,,,60,64
113740,note_off,40,0,4,,,,,,,,4,,,,77,64
113740,note_off,40,0,12,,,,,,,,13,,,,41,64
113740,note_off,40,0,3,,,,,,,,3,,,,80,64
113740,note_off,40,0,11,,,,,,,,12,,,,53,64
113740,note_off,40,0,6,,,,,,,,6,,,,53,64
113740,note_off,40,0,8,,,,,,,,8,,,,80,64
113740,note_off,40,0,7,,,,,,,,7,,,,41,64
113740,note_off,40,0,9,,,,,,,,10,,,,77,64
113740,note_off,40,0,10,,,,,,,,11,,,,60,64
113760,note_on,20,0,8,,,,,,,,8,,,,80,92
113760,note_on,20,0,5,,,,,,,,5,,,,60,92
113760,note_on,20,0,4,,,,,,,,4,,,,77,108
113760,note_on,20,0,12,,,,,,,,13,,,,41,92
113760,note_on,20,0,3,,,,,,,,3,,,,80,108
113760,note_on,20,0,9,,,,,,,,10,,,,77,92
113760,note_on,20,0,10,,,,,,,,11,,,,60,92
113760,note_on,20,0,6,,,,,,,,6,,,,53,92
113760,note_on,20,0,11,,,,,,,,12,,,,53,92
113760,note_on,20,0,7,,,,,,,,7,,,,41,92
113800,note_off,40,0,9,,,,,,,,10,,,,77,64
113800,note_off,40,0,8,,,,,,,,8,,,,80,64
113800,note_off,40,0,10,,,,,,,,11,,,,60,64
113800,note_off,40,0,4,,,,,,,,4,,,,77,64
113800,note_off,40,0,12,,,,,,,,13,,,,41,64
113800,note_off,40,0,3,,,,,,,,3,,,,80,64
113800,note_off,40,0,11,,,,,,,,12,,,,53,64
113800,note_off,40,0,6,,,,,,,,6,,,,53,64
113800,note_off,40,0,5,,,,,,,,5,,,,60,64
113800,note_off,40,0,7,,,,,,,,7,,,,41,64
113820,note_on,20,0,7,,,,,,,,7,,,,41,92
113820,note_on,20,0,6,,,,,,,,6,,,,53,92
113820,note_on,20,0,8,,,,,,,,8,,,,80,92
113820,note_on,20,0,11,,,,,,,,12,,,,53,92
113820,note_on,20,0,4,,,,,,,,4,,,,77,108
113820,note_on,20,0,10,,,,,,,,11,,,,60,92
113820,note_on,20,0,12,,,,,,,,13,,,,41,92
113820,note_on,20,0,5,,,,,,,,5,,,,60,92
113820,note_on,20,0,9,,,,,,,,10,,,,77,92
113820,note_on,20,0,3,,,,,,,,3,,,,80,108
113860,note_off,40,0,5,,,,,,,,5,,,,60,64
113860,note_off,40,0,10,,,,,,,,11,,,,60,64
113860,note_off,40,0,7,,,,,,,,7,,,,41,64
113860,note_off,40,0,3,,,,,,,,3,,,,80,64
113860,note_off,40,0,8,,,,,,,,8,,,,80,64
113860,note_off,40,0,9,,,,,,,,10,,,,77,64
113860,note_off,40,0,11,,,,,,,,12,,,,53,64
113860,note_off,40,0,4,,,,,,,,4,,,,77,64
113860,note_off,40,0,12,,,,,,,,13,,,,41,64
113860,note_off,40,0,6,,,,,,,,6,,,,53,64
113875,note_off,235,0,13,,,,,,,,14,,,,41,64
113880,note_on,20,0,6,,,,,,,,6,,,,53,92
113880,note_on,5,0,13,,,,,,,,14,,,,41,60
113880,note_on,20,0,10,,,,,,,,11,,,,60,92
113880,note_on,20,0,4,,,,,,,,4,,,,77,108
113880,note_on,20,0,8,,,,,,,,8,,,,80,92
113880,note_on,20,0,7,,,,,,,,7,,,,41,92
113880,note_on,20,0,3,,,,,,,,3,,,,80,108
113880,note_on,20,0,5,,,,,,,,5,,,,60,92
113880,note_on,20,0,11,,,,,,,,12,,,,53,92
113880,note_on,20,0,9,,,,,,,,10,,,,77,92
113880,note_on,20,0,12,,,,,,,,13,,,,41,92
113960,note_off,80,0,7,,,,,,,,7,,,,41,64
113960,note_off,80,0,3,,,,,,,,3,,,,80,64
113960,note_off,80,0,6,,,,,,,,6,,,,53,64
113960,note_off,80,0,9,,,,,,,,10,,,,77,64
113960,note_off,80,0,4,,,,,,,,4,,,,77,64
113960,note_off,80,0,11,,,,,,,,12,,,,53,64
113960,note_off,80,0,5,,,,,,,,5,,,,60,64
113960,note_off,80,0,10,,,,,,,,11,,,,60,64
113960,note_off,80,0,12,,,,,,,,13,,,,41,64
113960,note_off,80,0,8,,,,,,,,8,,,,80,64
114000,note_on,40,0,10,,,,,,,,11,,,,60,92
114000,note_on,40,0,9,,,,,,,,10,,,,77,92
114000,note_on,40,0,5,,,,,,,,5,,,,60,92
114000,note_on,40,0,3,,,,,,,,3,,,,80,108
114000,note_on,40,0,7,,,,,,,,7,,,,41,92
114000,note_on,40,0,6,,,,,,,,6,,,,53,92
114000,note_on,40,0,8,,,,,,,,8,,,,80,92
114000,note_on,40,0,12,,,,,,,,13,,,,41,92
114000,note_on,40,0,4,,,,,,,,4,,,,77,108
114000,note_on,40,0,11,,,,,,,,12,,,,53,92
114080,note_off,80,0,9,,,,,,,,10,,,,77,64
114080,note_off,80,0,11,,,,,,,,12,,,,53,64
114080,note_off,80,0,4,,,,,,,,4,,,,77,64
114080,note_off,80,0,8,,,,,,,,8,,,,80,64
114080,note_off,80,0,3,,,,,,,,3,,,,80,64
114080,note_off,80,0,6,,,,,,,,6,,,,53,64
114080,note_off,80,0,10,,,,,,,,11,,,,60,64
114080,note_off,80,0,12,,,,,,,,13,,,,41,64
114080,note_off,80,0,5,,,,,,,,5,,,,60,64
114080,note_off,80,0,7,,,,,,,,7,,,,41,64
114115,note_off,235,0,13,,,,,,,,14,,,,41,64
114120,note_on,40,0,8,,,,,,,,8,,,,80,92
114120,note_on,40,0,3,,,,,,,,3,,,,80,108
114120,note_on,40,0,12,,,,,,,,13,,,,41,92
114120,note_on,40,0,7,,,,,,,,7,,,,41,92
114120,note_on,5,0,13,,,,,,,,14,,,,41,60
114120,note_on,40,0,10,,,,,,,,11,,,,60,92
114120,note_on,40,0,9,,,,,,,,10,,,,77,92
114120,note_on,40,0,11,,,,,,,,12,,,,53,92
114120,note_on,40,0,6,,,,,,,,6,,,,53,92
114120,note_on,40,0,4,,,,,,,,4,,,,77,108
114120,note_on,40,0,5,,,,,,,,5,,,,60,92
114200,note_off,80,0,10,,,,,,,,11,,,,60,64
114200,note_off,80,0,11,,,,,,,,12,,,,53,64
114200,note_off,80,0,3,,,,,,,,3,,,,80,64
114200,note_off,80,0,9,,,,,,,,10,,,,77,64
114200,note_off,80,0,8,,,,,,,,8,,,,80,64
114200,note_off,80,0,4,,,,,,,,4,,,,77,64
114200,note_off,80,0,7,,,,,,,,7,,,,41,64
114200,note_off,80,0,6,,,,,,,,6,,,,53,64
114200,note_off,80,0,5,,,,,,,,5,,,,60,64
114200,note_off,80,0,12,,,,,,,,13,,,,41,64
114240,note_on,40,0,10,,,,,,,,11,,,,60,92
114240,note_on,40,0,5,,,,,,,,5,,,,60,92
114240,note_on,40,0,12,,,,,,,,13,,,,41,92
114240,note_on,40,0,3,,,,,,,,3,,,,80,108
114240,note_on,40,0,4,,,,,,,,4,,,,77,108
114240,note_on,40,0,7,,,,,,,,7,,,,41,92
114240,note_on,40,0,9,,,,,,,,10,,,,77,92
114240,note_on,40,0,11,,,,,,,,12,,,,53,92
114240,note_on,40,0,6,,,,,,,,6,,,,53,92
114240,note_on,40,0,8,,,,,,,,8,,,,80,92
114320,note_off,80,0,5,,,,,,,,5,,,,60,64
114320,note_off,80,0,3,,,,,,,,3,,,,80,64
114320,note_off,80,0,6,,,,,,,,6,,,,53,64
114320,note_off,80,0,11,,,,,,,,12,,,,53,64
114320,note_off,80,0,9,,,,,,,,10,,,,77,64
114320,note_off,80,0,8,,,,,,,,8,,,,80,64
114320,note_off,80,0,12,,,,,,,,13,,,,41,64
114320,note_off,80,0,4,,,,,,,,4,,,,77,64
114320,note_off,80,0,7,,,,,,,,7,,,,41,64
114320,note_off,80,0,10,,,,,,,,11,,,,60,64
114355,note_off,235,0,13,,,,,,,,14,,,,41,64
114360,note_on,40,0,9,,,,,,,,10,,,,77,92
114360,note_on,5,0,13,,,,,,,,14,,,,34,60
114360,note_on,40,0,8,,,,,,,,8,,,,79,92
114360,note_on,40,0,12,,,,,,,,13,,,,34,92
114360,note_on,40,0,7,,,,,,,,7,,,,34,92
114360,note_on,40,0,3,,,,,,,,3,,,,79,108
114360,note_on,40,0,4,,,,,,,,4,,,,77,108
114360,note_on,40,0,6,,,,,,,,6,,,,46,92
114360,note_on,40,0,11,,,,,,,,12,,,,46,92
114360,note_on,40,0,5,,,,,,,,5,,,,61,92
114360,note_on,40,0,10,,,,,,,,11,,,,61,92
114440,note_off,80,0,7,,,,,,,,7,,,,34,64
114440,note_off,80,0,3,,,,,,,,3,,,,79,64
114440,note_off,80,0,4,,,,,,,,4,,,,77,64
114440,note_off,80,0,9,,,,,,,,10,,,,77,64
114440,note_off,80,0,6,,,,,,,,6,,,,46,64
114440,note_off,80,0,5,,,,,,,,5,,,,61,64
114440,note_off,80,0,12,,,,,,,,13,,,,34,64
114440,note_off,80,0,8,,,,,,,,8,,,,79,64
114440,note_off,80,0,11,,,,,,,,12,,,,46,64
114440,note_off,80,0,10,,,,,,,,11,,,,61,64
114480,note_on,40,0,10,,,,,,,,11,,,,61,92
114480,note_on,40,0,7,,,,,,,,7,,,,34,92
114480,note_on,40,0,5,,,,,,,,5,,,,61,92
114480,note_on,40,0,12,,,,,,,,13,,,,34,92
114480,note_on,40,0,8,,,,,,,,8,,,,79,92
114480,note_on,40,0,11,,,,,,,,12,,,,46,92
114480,note_on,40,0,6,,,,,,,,6,,,,46,92
114480,note_on,40,0,9,,,,,,,,10,,,,77,92
114480,note_on,40,0,4,,,,,,,,4,,,,77,108
114480,note_on,40,0,3,,,,,,,,3,,,,79,108
114520,note_off,40,0,11,,,,,,,,12,,,,46,64
114520,note_off,40,0,8,,,,,,,,8,,,,79,64
114520,note_off,40,0,5,,,,,,,,5,,,,61,64
114520,note_off,40,0,9,,,,,,,,10,,,,77,64
114520,note_off,40,0,10,,,,,,,,11,,,,61,64
114520,note_off,40,0,6,,,,,,,,6,,,,46,64
114520,note_off,40,0,12,,,,,,,,13,,,,34,64
114520,note_off,40,0,4,,,,,,,,4,,,,77,64
114520,note_off,40,0,3,,,,,,,,3,,,,79,64
114520,note_off,40,0,7,,,,,,,,7,,,,34,64
114540,note_on,20,0,8,,,,,,,,8,,,,79,92
114540,note_on,20,0,10,,,,,,,,11,,,,61,92
114540,note_on,20,0,5,,,,,,,,5,,,,61,92
114540,note_on,20,0,11,,,,,,,,12,,,,46,92
114540,note_on,20,0,12,,,,,,,,13,,,,34,92
114540,note_on,20,0,3,,,,,,,,3,,,,79,108
114540,note_on,20,0,9,,,,,,,,10,,,,77,92
114540,note_on,20,0,6,,,,,,,,6,,,,46,92
114540,note_on,20,0,4,,,,,,,,4,,,,77,108
114540,note_on,20,0,7,,,,,,,,7,,,,34,92
114580,note_off,40,0,9,,,,,,,,10,,,,77,64
114580,note_off,40,0,8,,,,,,,,8,,,,79,64
114580,note_off,40,0,12,,,,,,,,13,,,,34,64
114580,note_off,40,0,11,,,,,,,,12,,,,46,64
114580,note_off,40,0,4,,,,,,,,4,,,,77,64
114580,note_off,40,0,7,,,,,,,,7,,,,34,64
114580,note_off,40,0,10,,,,,,,,11,,,,61,64
114580,note_off,40,0,5,,,,,,,,5,,,,61,64
114580,note_off,40,0,3,,,,,,,,3,,,,79,64
114580,note_off,40,0,6,,,,,,,,6,,,,46,64
114595,note_off,235,0,13,,,,,,,,14,,,,34,64
114600,note_on,20,0,5,,,,,,,,5,,,,61,92
114600,note_on,20,0,12,,,,,,,,13,,,,34,92
114600,note_on,5,0,13,,,,,,,,14,,,,34,60
114600,note_on,20,0,9,,,,,,,,10,,,,77,92
114600,note_on,20,0,4,,,,,,,,4,,,,77,108
114600,note_on,20,0,8,,,,,,,,8,,,,79,92
114600,note_on,20,0,6,,,,,,,,6,,,,46,92
114600,note_on,20,0,7,,,,,,,,7,,,,34,92
114600,note_on,20,0,3,,,,,,,,3,,,,79,108
114600,note_on,20,0,10,,,,,,,,11,,,,61,92
114600,note_on,20,0,11,,,,,,,,12,,,,46,92
114640,note_off,40,0,11,,,,,,,,12,,,,46,64
114640,note_off,40,0,7,,,,,,,,7,,,,34,64
114640,note_off,40,0,5,,,,,,,,5,,,,61,64
114640,note_off,40,0,6,,,,,,,,6,,,,46,64
114640,note_off,40,0,10,,,,,,,,11,,,,61,64
114640,note_off,40,0,8,,,,,,,,8,,,,79,64
114640,note_off,40,0,9,,,,,,,,10,,,,77,64
114640,note_off,40,0,12,,,,,,,,13,,,,34,64
114640,note_off,40,0,4,,,,,,,,4,,,,77,64
114640,note_off,40,0,3,,,,,,,,3,,,,79,64
114660,note_on,20,0,11,,,,,,,,12,,,,46,92
114660,note_on,20,0,12,,,,,,,,13,,,,34,92
114660,note_on,20,0,8,,,,,,,,8,,,,79,92
114660,note_on,20,0,7,,,,,,,,7,,,,34,92
114660,note_on,20,0,3,,,,,,,,3,,,,79,108
114660,note_on,20,0,4,,,,,,,,4,,,,77,108
114660,note_on,20,0,10,,,,,,,,11,,,,61,92
114660,note_on,20,0,5,,,,,,,,5,,,,61,92
114660,note_on,20,0,9,,,,,,,,10,,,,77,92
114660,note_on,20,0,6,,,,,,,,6,,,,46,92
114700,note_off,40,0,8,,,,,,,,8,,,,79,64
114700,note_off,40,0,4,,,,,,,,4,,,,77,64
114700,note_off,40,0,10,,,,,,,,11,,,,61,64
114700,note_off,40,0,7,,,,,,,,7,,,,34,64
114700,note_off,40,0,3,,,,,,,,3,,,,79,64
114700,note_off,40,0,11,,,,,,,,12,,,,46,64
114700,note_off,40,0,9,,,,,,,,10,,,,77,64
114700,note_off,40,0,12,,,,,,,,13,,,,34,64
114700,note_off,40,0,6,,,,,,,,6,,,,46,64
114700,note_off,40,0,5,,,,,,,,5,,,,61,64
114720,note_on,20,0,3,,,,,,,,3,,,,79,108
114720,note_on,20,0,7,,,,,,,,7,,,,34,92
114720,note_on,20,0,5,,,,,,,,5,,,,61,92
114720,note_on,20,0,6,,,,,,,,6,,,,46,92
114720,note_on,20,0,12,,,,,,,,13,,,,34,92
114720,note_on,20,0,10,,,,,,,,11,,,,61,92
114720,note_on,20,0,4,,,,,,,,4,,,,77,108
114720,note_on,20,0,9,,,,,,,,10,,,,77,92
114720,note_on,20,0,8,,,,,,,,8,,,,79,92
114720,note_on,20,0,11,,,,,,,,12,,,,46,92
114760,note_off,40,0,6,,,,,,,,6,,,,46,64
114760,note_off,40,0,4,,,,,,,,4,,,,77,64
114760,note_off,40,0,8,,,,,,,,8,,,,79,64
114760,note_off,40,0,10,,,,,,,,11,,,,61,64
114760,note_off,40,0,7,,,,,,,,7,,,,34,64
114760,note_off,40,0,5,,,,,,,,5,,,,61,64
114760,note_off,40,0,9,,,,,,,,10,,,,77,64
114760,note_off,40,0,11,,,,,,,,12,,,,46,64
114760,note_off,40,0,3,,,,,,,,3,,,,79,64
114760,note_off,40,0,12,,,,,,,,13,,,,34,64
114780,note_on,20,0,6,,,,,,,,6,,,,46,92
114780,note_on,20,0,10,,,,,,,,11,,,,61,92
114780,note_on,20,0,4,,,,,,,,4,,,,77,108
114780,note_on,20,0,11,,,,,,,,12,,,,46,92
114780,note_on,20,0,3,,,,,,,,3,,,,79,108
114780,note_on,20,0,8,,,,,,,,8,,,,79,92
114780,note_on,20,0,5,,,,,,,,5,,,,61,92
114780,note_on,20,0,9,,,,,,,,10,,,,77,92
114780,note_on,20,0,7,,,,,,,,7,,,,34,92
114780,note_on,20,0,12,,,,,,,,13,,,,34,92
114820,note_off,40,0,3,,,,,,,,3,,,,79,64
114820,note_off,40,0,4,,,,,,,,4,,,,77,64
114820,note_off,40,0,9,,,,,,,,10,,,,77,64
114820,note_off,40,0,7,,,,,,,,7,,,,34,64
114820,note_off,40,0,10,,,,,,,,11,,,,61,64
114820,note_off,40,0,12,,,,,,,,13,,,,34,64
114820,note_off,40,0,5,,,,,,,,5,,,,61,64
114820,note_off,40,0,8,,,,,,,,8,,,,79,64
114820,note_off,40,0,11,,,,,,,,12,,,,46,64
114820,note_off,40,0,6,,,,,,,,6,,,,46,64
114835,note_off,235,0,13,,,,,,,,14,,,,34,64
114840,note_on,20,0,7,,,,,,,,7,,,,34,92
114840,note_on,20,0,9,,,,,,,,10,,,,77,92
114840,note_on,5,0,13,,,,,,,,14,,,,34,60
114840,note_on,20,0,12,,,,,,,,13,,,,34,92
114840,note_on,20,0,6,,,,,,,,6,,,,46,92
114840,note_on,20,0,4,,,,,,,,4,,,,77,108
114840,note_on,20,0,8,,,,,,,,8,,,,79,92
114840,note_on,20,0,10,,,,,,,,11,,,,61,92
114840,note_on,20,0,11,,,,,,,,12,,,,46,92
114840,note_on,20,0,5,,,,,,,,5,,,,61,92
114840,note_on,20,0,3,,,,,,,,3,,,,79,108
114920,note_off,80,0,6,,,,,,,,6,,,,46,64
114920,note_off,80,0,8,,,,,,,,8,,,,79,64
114920,note_off,80,0,4,,,,,,,,4,,,,77,64
114920,note_off,80,0,7,,,,,,,,7,,,,34,64
114920,note_off,80,0,11,,,,,,,,12,,,,46,64
114920,note_off,80,0,10,,,,,,,,11,,,,61,64
114920,note_off,80,0,5,,,,,,,,5,,,,61,64
114920,note_off,80,0,3,,,,,,,,3,,,,79,64
114920,note_off,80,0,9,,,,,,,,10,,,,77,64
114920,note_off,80,0,12,,,,,,,,13,,,,34,64
114960,note_on,40,0,5,,,,,,,,5,,,,61,92
114960,note_on,40,0,12,,,,,,,,13,,,,34,92
114960,note_on,40,0,9,,,,,,,,10,,,,77,92
114960,note_on,40,0,11,,,,,,,,12,,,,46,92
114960,note_on,40,0,3,,,,,,,,3,,,,79,108
114960,note_on,40,0,7,,,,,,,,7,,,,34,92
114960,note_on,40,0,4,,,,,,,,4,,,,77,108
114960,note_on,40,0,8,,,,,,,,8,,,,79,92
114960,note_on,40,0,6,,,,,,,,6,,,,46,92
114960,note_on,40,0,10,,,,,,,,11,,,,61,92
115040,note_off,80,0,5,,,,,,,,5,,,,61,64
115040,note_off,80,0,3,,,,,,,,3,,,,79,64
115040,note_off,80,0,12,,,,,,,,13,,,,34,64
115040,note_off,80,0,8,,,,,,,,8,,,,79,64
115040,note_off,80,0,7,,,,,,,,7,,,,34,64
115040,note_off,80,0,6,,,,,,,,6,,,,46,64
115040,note_off,80,0,9,,,,,,,,10,,,,77,64
115040,note_off,80,0,4,,,,,,,,4,,,,77,64
115040,note_off,80,0,10,,,,,,,,11,,,,61,64
115040,note_off,80,0,11,,,,,,,,12,,,,46,64
115075,note_off,235,0,13,,,,,,,,14,,,,34,64
115080,note_on,5,0,13,,,,,,,,14,,,,34,60
115080,note_on,40,0,5,,,,,,,,5,,,,61,92
115080,note_on,40,0,11,,,,,,,,12,,,,46,92
115080,note_on,40,0,8,,,,,,,,8,,,,79,92
115080,note_on,40,0,12,,,,,,,,13,,,,34,92
115080,note_on,40,0,3,,,,,,,,3,,,,79,108
115080,note_on,40,0,7,,,,,,,,7,,,,34,92
115080,note_on,40,0,9,,,,,,,,10,,,,77,92
115080,note_on,40,0,10,,,,,,,,11,,,,61,92
115080,note_on,40,0,4,,,,,,,,4,,,,77,108
115080,note_on,40,0,6,,,,,,,,6,,,,46,92
115160,note_off,80,0,9,,,,,,,,10,,,,77,64
115160,note_off,80,0,6,,,,,,,,6,,,,46,64
115160,note_off,80,0,11,,,,,,,,12,,,,46,64
115160,note_off,80,0,3,,,,,,,,3,,,,79,64
115160,note_off,80,0,12,,,,,,,,13,,,,34,64
115160,note_off,80,0,8,,,,,,,,8,,,,79,64
115160,note_off,80,0,7,,,,,,,,7,,,,34,64
115160,note_off,80,0,10,,,,,,,,11,,,,61,64
115160,note_off,80,0,4,,,,,,,,4,,,,77,64
115160,note_off,80,0,5,,,,,,,,5,,,,61,64
115200,note_on,40,0,6,,,,,,,,6,,,,46,92
115200,note_on,40,0,12,,,,,,,,13,,,,34,92
115200,note_on,40,0,8,,,,,,,,8,,,,79,92
115200,note_on,40,0,4,,,,,,,,4,,,,77,108
115200,note_on,40,0,9,,,,,,,,10,,,,77,92
115200,note_on,40,0,11,,,,,,,,12,,,,46,92
115200,note_on,40,0,3,,,,,,,,3,,,,79,108
115200,note_on,40,0,5,,,,,,,,5,,,,61,92
115200,note_on,40,0,10,,,,,,,,11,,,,61,92
115200,note_on,40,0,7,,,,,,,,7,,,,34,92
115280,note_off,80,0,12,,,,,,,,13,,,,34,64
115280,note_off,80,0,4,,,,,,,,4,,,,77,64
115280,note_off,80,0,7,,,,,,,,7,,,,34,64
115280,note_off,80,0,10,,,,,,,,11,,,,61,64
115280,note_off,80,0,3,,,,,,,,3,,,,79,64
115280,note_off,80,0,11,,,,,,,,12,,,,46,64
115280,note_off,80,0,5,,,,,,,,5,,,,61,64
115280,note_off,80,0,9,,,,,,,,10,,,,77,64
115280,note_off,80,0,6,,,,,,,,6,,,,46,64
115280,note_off,80,0,8,,,,,,,,8,,,,79,64
115315,note_off,235,0,13,,,,,,,,14,,,,34,64
115320,note_on,40,0,9,,,,,,,,10,,,,76,92
115320,note_on,40,0,4,,,,,,,,4,,,,76,108
115320,note_on,40,0,7,,,,,,,,7,,,,36,92
115320,note_on,40,0,8,,,,,,,,8,,,,79,92
115320,note_on,5,0,13,,,,,,,,14,,,,36,60
115320,note_on,40,0,3,,,,,,,,3,,,,79,108
115320,note_on,40,0,6,,,,,,,,6,,,,48,92
115320,note_on,40,0,11,,,,,,,,12,,,,48,92
115320,note_on,40,0,12,,,,,,,,13,,,,36,92
115320,note_on,40,0,10,,,,,,,,11,,,,60,92
115320,note_on,40,0,5,,,,,,,,5,,,,60,92
115400,note_off,80,0,6,,,,,,,,6,,,,48,64
115400,note_off,80,0,9,,,,,,,,10,,,,76,64
115400,note_off,80,0,10,,,,,,,,11,,,,60,64
115400,note_off,80,0,3,,,,,,,,3,,,,79,64
115400,note_off,80,0,11,,,,,,,,12,,,,48,64
115400,note_off,80,0,12,,,,,,,,13,,,,36,64
115400,note_off,80,0,5,,,,,,,,5,,,,60,64
115400,note_off,80,0,4,,,,,,,,4,,,,76,64
115400,note_off,80,0,7,,,,,,,,7,,,,36,64
115400,note_off,80,0,8,,,,,,,,8,,,,79,64
115440,note_on,40,0,10,,,,,,,,11,,,,60,92
115440,note_on,40,0,8,,,,,,,,8,,,,79,92
115440,note_on,40,0,7,,,,,,,,7,,,,36,92
115440,note_on,40,0,6,,,,,,,,6,,,,48,92
115440,note_on,40,0,5,,,,,,,,5,,,,60,92
115440,note_on,40,0,11,,,,,,,,12,,,,48,92
115440,note_on,40,0,12,,,,,,,,13,,,,36,92
115440,note_on,40,0,3,,,,,,,,3,,,,79,108
115440,note_on,40,0,9,,,,,,,,10,,,,76,92
115440,note_on,40,0,4,,,,,,,,4,,,,76,108
115480,note_off,40,0,8,,,,,,,,8,,,,79,64
115480,note_off,40,0,12,,,,,,,,13,,,,36,64
115480,note_off,40,0,9,,,,,,,,10,,,,76,64
115480,note_off,40,0,7,,,,,,,,7,,,,36,64
115480,note_off,40,0,4,,,,,,,,4,,,,76,64
115480,note_off,40,0,5,,,,,,,,5,,,,60,64
115480,note_off,40,0,6,,,,,,,,6,,,,48,64
115480,note_off,40,0,3,,,,,,,,3,,,,79,64
115480,note_off,40,0,11,,,,,,,,12,,,,48,64
115480,note_off,40,0,10,,,,,,,,11,,,,60,64
115500,note_on,20,0,7,,,,,,,,7,,,,36,92
115500,note_on,20,0,6,,,,,,,,6,,,,48,92
115500,note_on,20,0,12,,,,,,,,13,,,,36,92
115500,note_on,20,0,3,,,,,,,,3,,,,79,108
115500,note_on,20,0,4,,,,,,,,4,,,,76,108
115500,note_on,20,0,5,,,,,,,,5,,,,60,92
115500,note_on,20,0,11,,,,,,,,12,,,,48,92
115500,note_on,20,0,10,,,,,,,,11,,,,60,92
115500,note_on,20,0,9,,,,,,,,10,,,,76,92
115500,note_on,20,0,8,,,,,,,,8,,,,79,92
115540,note_off,40,0,10,,,,,,,,11,,,,60,64
115540,note_off,40,0,8,,,,,,,,8,,,,79,64
115540,note_off,40,0,12,,,,,,,,13,,,,36,64
115540,note_off,40,0,7,,,,,,,,7,,,,36,64
115540,note_off,40,0,9,,,,,,,,10,,,,76,64
115540,note_off,40,0,11,,,,,,,,12,,,,48,64
115540,note_off,40,0,6,,,,,,,,6,,,,48,64
115540,note_off,40,0,5,,,,,,,,5,,,,60,64
115540,note_off,40,0,3,,,,,,,,3,,,,79,64
115540,note_off,40,0,4,,,,,,,,4,,,,76,64
115555,note_off,235,0,13,,,,,,,,14,,,,36,64
115560,note_on,20,0,9,,,,,,,,10,,,,76,92
115560,note_on,20,0,3,,,,,,,,3,,,,79,108
115560,note_on,20,0,4,,,,,,,,4,,,,76,108
115560,note_on,20,0,11,,,,,,,,12,,,,48,92
115560,note_on,20,0,8,,,,,,,,8,,,,79,92
115560,note_on,20,0,5,,,,,,,,5,,,,60,92
115560,note_on,20,0,7,,,,,,,,7,,,,36,92
115560,note_on,20,0,12,,,,,,,,13,,,,36,92
115560,note_on,20,0,10,,,,,,,,11,,,,60,92
115560,note_on,20,0,6,,,,,,,,6,,,,48,92
115560,note_on,5,0,13,,,,,,,,14,,,,36,60
115600,note_off,40,0,6,,,,,,,,6,,,,48,64
115600,note_off,40,0,12,,,,,,,,13,,,,36,64
115600,note_off,40,0,5,,,,,,,,5,,,,60,64
115600,note_off,40,0,11,,,,,,,,12,,,,48,64
115600,note_off,40,0,4,,,,,,,,4,,,,76,64
115600,note_off,40,0,9,,,,,,,,10,,,,76,64
115600,note_off,40,0,8,,,,,,,,8,,,,79,64
115600,note_off,40,0,3,,,,,,,,3,,,,79,64
115600,note_off,40,0,7,,,,,,,,7,,,,36,64
115600,note_off,40,0,10,,,,,,,,11,,,,60,64
115620,note_on,20,0,9,,,,,,,,10,,,,76,92
115620,note_on,20,0,12,,,,,,,,13,,,,36,92
115620,note_on,20,0,11,,,,,,,,12,,,,48,92
115620,note_on,20,0,10,,,,,,,,11,,,,60,92
115620,note_on,20,0,5,,,,,,,,5,,,,60,92
115620,note_on,20,0,3,,,,,,,,3,,,,79,108
115620,note_on,20,0,7,,,,,,,,7,,,,36,92
115620,note_on,20,0,4,,,,,,,,4,,,,76,108
115620,note_on,20,0,6,,,,,,,,6,,,,48,92
115620,note_on,20,0,8,,,,,,,,8,,,,79,92
115660,note_off,40,0,5,,,,,,,,5,,,,60,64
115660,note_off,40,0,9,,,,,,,,10,,,,76,64
115660,note_off,40,0,7,,,,,,,,7,,,,36,64
115660,note_off,40,0,8,,,,,,,,8,,,,79,64
115660,note_off,40,0,6,,,,,,,,6,,,,48,64
115660,note_off,40,0,12,,,,,,,,13,,,,36,64
115660,note_off,40,0,10,,,,,,,,11,,,,60,64
115660,note_off,40,0,11,,,,,,,,12,,,,48,64
115660,note_off,40,0,3,,,,,,,,3,,,,79,64
115660,note_off,40,0,4,,,,,,,,4,,,,76,64
115680,note_on,20,0,9,,,,,,,,10,,,,76,92
115680,note_on,20,0,8,,,,,,,,8,,,,79,92
115680,note_on,20,0,12,,,,,,,,13,,,,36,92
115680,note_on,20,0,3,,,,,,,,3,,,,79,108
115680,note_on,20,0,10,,,,,,,,11,,,,60,92
115680,note_on,20,0,4,,,,,,,,4,,,,76,108
115680,note_on,20,0,11,,,,,,,,12,,,,48,92
115680,note_on,20,0,5,,,,,,,,5,,,,60,92
115680,note_on,20,0,6,,,,,,,,6,,,,48,92
115680,note_on,20,0,7,,,,,,,,7,,,,36,92
115720,note_off,40,0,11,,,,,,,,12,,,,48,64
115720,note_off,40,0,7,,,,,,,,7,,,,36,64
115720,note_off,40,0,4,,,,,,,,4,,,,76,64
115720,note_off,40,0,12,,,,,,,,13,,,,36,64
115720,note_off,40,0,5,,,,,,,,5,,,,60,64
115720,note_off,40,0,3,,,,,,,,3,,,,79,64
115720,note_off,40,0,6,,,,,,,,6,,,,48,64
115720,note_off,40,0,10,,,,,,,,11,,,,60,64
115720,note_off,40,0,8,,,,,,,,8,,,,79,64
115720,note_off,40,0,9,,,,,,,,10,,,,76,64
115740,note_on,20,0,11,,,,,,,,12,,,,48,92
115740,note_on,20,0,10,,,,,,,,11,,,,60,92
115740,note_on,20,0,3,,,,,,,,3,,,,79,108
115740,note_on,20,0,12,,,,,,,,13,,,,36,92
115740,note_on,20,0,4,,,,,,,,4,,,,76,108
115740,note_on,20,0,6,,,,,,,,6,,,,48,92
115740,note_on,20,0,7,,,,,,,,7,,,,36,92
115740,note_on,20,0,5,,,,,,,,5,,,,60,92
115740,note_on,20,0,9,,,,,,,,10,,,,76,92
115740,note_on,20,0,8,,,,,,,,8,,,,79,92
115780,note_off,40,0,9,,,,,,,,10,,,,76,64
115780,note_off,40,0,12,,,,,,,,13,,,,36,64
115780,note_off,40,0,3,,,,,,,,3,,,,79,64
115780,note_off,40,0,10,,,,,,,,11,,,,60,64
115780,note_off,40,0,11,,,,,,,,12,,,,48,64
115780,note_off,40,0,7,,,,,,,,7,,,,36,64
115780,note_off,40,0,4,,,,,,,,4,,,,76,64
115780,note_off,40,0,8,,,,,,,,8,,,,79,64
115780,note_off,40,0,6,,,,,,,,6,,,,48,64
115780,note_off,40,0,5,,,,,,,,5,,,,60,64
115795,note_off,235,0,13,,,,,,,,14,,,,36,64
115800,note_on,20,0,10,,,,,,,,11,,,,60,92
115800,note_on,20,0,9,,,,,,,,10,,,,76,92
115800,note_on,20,0,3,,,,,,,,3,,,,79,108
115800,note_on,5,0,13,,,,,,,,14,,,,36,60
115800,note_on,20,0,6,,,,,,,,6,,,,48,92
115800,note_on,20,0,8,,,,,,,,8,,,,79,92
115800,note_on,20,0,11,,,,,,,,12,,,,48,92
115800,note_on,20,0,5,,,,,,,,5,,,,60,92
115800,note_on,20,0,4,,,,,,,,4,,,,76,108
115800,note_on,20,0,7,,,,,,,,7,,,,36,92
115800,note_on,20,0,12,,,,,,,,13,,,,36,92
115880,note_off,80,0,5,,,,,,,,5,,,,60,64
115880,note_off,80,0,7,,,,,,,,7,,,,36,64
115880,note_off,80,0,11,,,,,,,,12,,,,48,64
115880,note_off,80,0,12,,,,,,,,13,,,,36,64
115880,note_off,80,0,4,,,,,,,,4,,,,76,64
115880,note_off,80,0,3,,,,,,,,3,,,,79,64
115880,note_off,80,0,10,,,,,,,,11,,,,60,64
115880,note_off,80,0,9,,,,,,,,10,,,,76,64
115880,note_off,80,0,8,,,,,,,,8,,,,79,64
115880,note_off,80,0,6,,,,,,,,6,,,,48,64
115920,note_on,40,0,8,,,,,,,,8,,,,79,92
115920,note_on,40,0,10,,,,,,,,11,,,,60,92
115920,note_on,40,0,4,,,,,,,,4,,,,76,108
115920,note_on,40,0,6,,,,,,,,6,,,,48,92
115920,note_on,40,0,11,,,,,,,,12,,,,48,92
115920,note_on,40,0,12,,,,,,,,13,,,,36,92
115920,note_on,40,0,7,,,,,,,,7,,,,36,92
115920,note_on,40,0,3,,,,,,,,3,,,,79,108
115920,note_on,40,0,9,,,,,,,,10,,,,76,92
115920,note_on,40,0,5,,,,,,,,5,,,,60,92
116000,note_off,80,0,3,,,,,,,,3,,,,79,64
116000,note_off,80,0,7,,,,,,,,7,,,,36,64
116000,note_off,80,0,5,,,,,,,,5,,,,60,64
116000,note_off,80,0,8,,,,,,,,8,,,,79,64
116000,note_off,80,0,10,,,,,,,,11,,,,60,64
116000,note_off,80,0,12,,,,,,,,13,,,,36,64
116000,note_off,80,0,6,,,,,,,,6,,,,48,64
116000,note_off,80,0,9,,,,,,,,10,,,,76,64
116000,note_off,80,0,11,,,,,,,,12,,,,48,64
116000,note_off,80,0,4,,,,,,,,4,,,,76,64
116035,note_off,235,0,13,,,,,,,,14,,,,36,64
116040,note_on,40,0,9,,,,,,,,10,,,,76,92
116040,note_on,40,0,4,,,,,,,,4,,,,76,108
116040,note_on,40,0,11,,,,,,,,12,,,,48,92
116040,note_on,40,0,10,,,,,,,,11,,,,60,92
116040,note_on,40,0,7,,,,,,,,7,,,,36,92
116040,note_on,40,0,5,,,,,,,,5,,,,60,92
116040,note_on,40,0,12,,,,,,,,13,,,,36,92
116040,note_on,40,0,6,,,,,,,,6,,,,48,92
116040,note_on,40,0,3,,,,,,,,3,,,,79,108
116040,note_on,40,0,8,,,,,,,,8,,,,79,92
116040,note_on,5,0,13,,,,,,,,14,,,,36,60
116120,note_off,80,0,12,,,,,,,,13,,,,36,64
116120,note_off,80,0,7,,,,,,,,7,,,,36,64
116120,note_off,80,0,6,,,,,,,,6,,,,48,64
116120,note_off,80,0,10,,,,,,,,11,,,,60,64
116120,note_off,80,0,8,,,,,,,,8,,,,79,64
116120,note_off,80,0,5,,,,,,,,5,,,,60,64
116120,note_off,80,0,4,,,,,,,,4,,,,76,64
116120,note_off,80,0,9,,,,,,,,10,,,,76,64
116120,note_off,80,0,11,,,,,,,,12,,,,48,64
116120,note_off,80,0,3,,,,,,,,3,,,,79,64
116160,note_on,40,0,8,,,,,,,,8,,,,79,92
116160,note_on,40,0,6,,,,,,,,6,,,,48,92
116160,note_on,40,0,4,,,,,,,,4,,,,76,108
116160,note_on,40,0,7,,,,,,,,7,,,,36,92
116160,note_on,40,0,5,,,,,,,,5,,,,60,92
116160,note_on,40,0,12,,,,,,,,13,,,,36,92
116160,note_on,40,0,11,,,,,,,,12,,,,48,92
116160,note_on,40,0,10,,,,,,,,11,,,,60,92
116160,note_on,40,0,9,,,,,,,,10,,,,76,92
116160,note_on,40,0,3,,,,,,,,3,,,,79,108
116240,note_off,80,0,6,,,,,,,,6,,,,48,64
116240,note_off,80,0,12,,,,,,,,13,,,,36,64
116240,note_off,80,0,11,,,,,,,,12,,,,48,64
116240,note_off,80,0,8,,,,,,,,8,,,,79,64
116240,note_off,80,0,10,,,,,,,,11,,,,60,64
116240,note_off,80,0,3,,,,,,,,3,,,,79,64
116240,note_off,80,0,4,,,,,,,,4,,,,76,64
116240,note_off,80,0,5,,,,,,,,5,,,,60,64
116240,note_off,80,0,7,,,,,,,,7,,,,36,64
116240,note_off,80,0,9,,,,,,,,10,,,,76,64
116275,note_off,235,0,13,,,,,,,,14,,,,36,64
116280,note_on,5,0,13,,,,,,,,14,,,,41,60
116280,note_on,40,0,10,,,,,,,,11,,,,56,92
116280,note_on,40,0,11,,,,,,,,12,,,,41,92
116280,note_on,40,0,4,,,,,,,,4,,,,68,108
116280,note_on,40,0,3,,,,,,,,3,,,,77,108
116280,note_on,40,0,6,,,,,,,,6,,,,41,92
116280,note_on,40,0,9,,,,,,,,10,,,,68,92
116280,note_on,40,0,5,,,,,,,,5,,,,56,92
116280,note_on,40,0,8,,,,,,,,8,,,,77,92
116280,note_on,40,0,7,,,,,,,,7,,,,29,92
116280,note_on,40,0,12,,,,,,,,13,,,,29,92
116360,note_off,80,0,3,,,,,,,,3,,,,77,64
116360,note_off,80,0,4,,,,,,,,4,,,,68,64
116360,note_off,80,0,7,,,,,,,,7,,,,29,64
116360,note_off,80,0,12,,,,,,,,13,,,,29,64
116360,note_off,80,0,8,,,,,,,,8,,,,77,64
116360,note_off,80,0,5,,,,,,,,5,,,,56,64
116360,note_off,80,0,9,,,,,,,,10,,,,68,64
116360,note_off,80,0,6,,,,,,,,6,,,,41,64
116360,note_off,80,0,10,,,,,,,,11,,,,56,64
116360,note_off,80,0,11,,,,,,,,12,,,,41,64
116400,note_on,40,0,8,,,,,,,,8,,,,68,92
116400,note_on,40,0,5,,,,,,,,5,,,,60,92
116400,note_on,40,0,11,,,,,,,,12,,,,41,92
116400,note_on,40,0,12,,,,,,,,13,,,,29,92
116400,note_on,40,0,3,,,,,,,,3,,,,68,108
116400,note_on,40,0,7,,,,,,,,7,,,,29,92
116400,note_on,40,0,6,,,,,,,,6,,,,41,92
116400,note_on,40,0,9,,,,,,,,10,,,,65,92
116400,note_on,40,0,10,,,,,,,,11,,,,60,92
116400,note_on,40,0,4,,,,,,,,4,,,,65,108
116440,note_off,40,0,6,,,,,,,,6,,,,41,64
116440,note_off,40,0,10,,,,,,,,11,,,,60,64
116440,note_off,40,0,12,,,,,,,,13,,,,29,64
116440,note_off,40,0,11,,,,,,,,12,,,,41,64
116440,note_off,40,0,9,,,,,,,,10,,,,65,64
116440,note_off,40,0,4,,,,,,,,4,,,,65,64
116440,note_off,40,0,5,,,,,,,,5,,,,60,64
116440,note_off,40,0,8,,,,,,,,8,,,,68,64
116440,note_off,40,0,3,,,,,,,,3,,,,68,64
116440,note_off,40,0,7,,,,,,,,7,,,,29,64
116460,note_on,20,0,12,,,,,,,,13,,,,29,92
116460,note_on,20,0,10,,,,,,,,11,,,,60,92
116460,note_on,20,0,6,,,,,,,,6,,,,41,92
116460,note_on,20,0,8,,,,,,,,8,,,,68,92
116460,note_on,20,0,7,,,,,,,,7,,,,29,92
116460,note_on,20,0,5,,,,,,,,5,,,,60,92
116460,note_on,20,0,4,,,,,,,,4,,,,65,108
116460,note_on,20,0,11,,,,,,,,12,,,,41,92
116460,note_on,20,0,3,,,,,,,,3,,,,68,108
116460,note_on,20,0,9,,,,,,,,10,,,,65,92
116500,note_off,40,0,9,,,,,,,,10,,,,65,64
116500,note_off,40,0,11,,,,,,,,12,,,,41,64
116500,note_off,40,0,7,,,,,,,,7,,,,29,64
116500,note_off,40,0,10,,,,,,,,11,,,,60,64
116500,note_off,40,0,3,,,,,,,,3,,,,68,64
116500,note_off,40,0,5,,,,,,,,5,,,,60,64
116500,note_off,40,0,6,,,,,,,,6,,,,41,64
116500,note_off,40,0,8,,,,,,,,8,,,,68,64
116500,note_off,40,0,12,,,,,,,,13,,,,29,64
116500,note_off,40,0,4,,,,,,,,4,,,,65,64
116515,note_off,235,0,13,,,,,,,,14,,,,41,64
116520,note_on,20,0,6,,,,,,,,6,,,,41,92
116520,note_on,20,0,11,,,,,,,,12,,,,41,92
116520,note_on,20,0,8,,,,,,,,8,,,,68,92
116520,note_on,20,0,5,,,,,,,,5,,,,60,92
116520,note_on,5,0,13,,,,,,,,14,,,,41,60
116520,note_on,20,0,9,,,,,,,,10,,,,65,92
116520,note_on,20,0,12,,,,,,,,13,,,,29,92
116520,note_on,20,0,7,,,,,,,,7,,,,29,92
116520,note_on,20,0,3,,,,,,,,3,,,,68,108
116520,note_on,20,0,10,,,,,,,,11,,,,60,92
116520,note_on,20,0,4,,,,,,,,4,,,,65,108
116560,note_off,40,0,5,,,,,,,,5,,,,60,64
116560,note_off,40,0,6,,,,,,,,6,,,,41,64
116560,note_off,40,0,12,,,,,,,,13,,,,29,64
116560,note_off,40,0,8,,,,,,,,8,,,,68,64
116560,note_off,40,0,7,,,,,,,,7,,,,29,64
116560,note_off,40,0,3,,,,,,,,3,,,,68,64
116560,note_off,40,0,4,,,,,,,,4,,,,65,64
116560,note_off,40,0,10,,,,,,,,11,,,,60,64
116560,note_off,40,0,9,,,,,,,,10,,,,65,64
116560,note_off,40,0,11,,,,,,,,12,,,,41,64
116580,note_on,20,0,4,,,,,,,,4,,,,65,108
116580,note_on,20,0,3,,,,,,,,3,,,,68,108
116580,note_on,20,0,10,,,,,,,,11,,,,60,92
116580,note_on,20,0,9,,,,,,,,10,,,,65,92
116580,note_on,20,0,8,,,,,,,,8,,,,68,92
116580,note_on,20,0,7,,,,,,,,7,,,,29,92
116580,note_on,20,0,11,,,,,,,,12,,,,41,92
116580,note_on,20,0,6,,,,,,,,6,,,,41,92
116580,note_on,20,0,5,,,,,,,,5,,,,60,92
116580,note_on,20,0,12,,,,,,,,13,,,,29,92
116620,note_off,40,0,12,,,,,,,,13,,,,29,64
116620,note_off,40,0,10,,,,,,,,11,,,,60,64
116620,note_off,40,0,6,,,,,,,,6,,,,41,64
116620,note_off,40,0,8,,,,,,,,8,,,,68,64
116620,note_off,40,0,11,,,,,,,,12,,,,41,64
116620,note_off,40,0,5,,,,,,,,5,,,,60,64
116620,note_off,40,0,9,,,,,,,,10,,,,65,64
116620,note_off,40,0,3,,,,,,,,3,,,,68,64
116620,note_off,40,0,7,,,,,,,,7,,,,29,64
116620,note_off,40,0,4,,,,,,,,4,,,,65,64
116640,note_on,20,0,11,,,,,,,,12,,,,41,92
116640,note_on,20,0,8,,,,,,,,8,,,,68,92
116640,note_on,20,0,9,,,,,,,,10,,,,65,92
116640,note_on,20,0,12,,,,,,,,13,,,,29,92
116640,note_on,20,0,6,,,,,,,,6,,,,41,92
116640,note_on,20,0,5,,,,,,,,5,,,,60,92
116640,note_on,20,0,7,,,,,,,,7,,,,29,92
116640,note_on,20,0,4,,,,,,,,4,,,,65,108
116640,note_on,20,0,3,,,,,,,,3,,,,68,108
116640,note_on,20,0,10,,,,,,,,11,,,,60,92
116680,note_off,40,0,7,,,,,,,,7,,,,29,64
116680,note_off,40,0,11,,,,,,,,12,,,,41,64
116680,note_off,40,0,8,,,,,,,,8,,,,68,64
116680,note_off,40,0,10,,,,,,,,11,,,,60,64
116680,note_off,40,0,12,,,,,,,,13,,,,29,64
116680,note_off,40,0,6,,,,,,,,6,,,,41,64
116680,note_off,40,0,4,,,,,,,,4,,,,65,64
116680,note_off,40,0,9,,,,,,,,10,,,,65,64
116680,note_off,40,0,3,,,,,,,,3,,,,68,64
116680,note_off,40,0,5,,,,,,,,5,,,,60,64
116700,note_on,20,0,6,,,,,,,,6,,,,41,92
116700,note_on,20,0,10,,,,,,,,11,,,,60,92
116700,note_on,20,0,12,,,,,,,,13,,,,29,92
116700,note_on,20,0,4,,,,,,,,4,,,,65,108
116700,note_on,20,0,8,,,,,,,,8,,,,68,92
116700,note_on,20,0,11,,,,,,,,12,,,,41,92
116700,note_on,20,0,3,,,,,,,,3,,,,68,108
116700,note_on,20,0,9,,,,,,,,10,,,,65,92
116700,note_on,20,0,7,,,,,,,,7,,,,29,92
116700,note_on,20,0,5,,,,,,,,5,,,,60,92
116740,note_off,40,0,5,,,,,,,,5,,,,60,64
116740,note_off,40,0,11,,,,,,,,12,,,,41,64
116740,note_off,40,0,4,,,,,,,,4,,,,65,64
116740,note_off,40,0,3,,,,,,,,3,,,,68,64
116740,note_off,40,0,9,,,,,,,,10,,,,65,64
116740,note_off,40,0,12,,,,,,,,13,,,,29,64
116740,note_off,40,0,10,,,,,,,,11,,,,60,64
116740,note_off,40,0,6,,,,,,,,6,,,,41,64
116740,note_off,40,0,8,,,,,,,,8,,,,68,64
116740,note_off,40,0,7,,,,,,,,7,,,,29,64
116755,note_off,235,0,13,,,,,,,,14,,,,41,64
116760,note_on,20,0,9,,,,,,,,10,,,,65,92
116760,note_on,20,0,8,,,,,,,,8,,,,68,92
116760,note_on,20,0,3,,,,,,,,3,,,,68,108
116760,note_on,20,0,10,,,,,,,,11,,,,60,92
116760,note_on,5,0,13,,,,,,,,14,,,,41,60
116760,note_on,20,0,7,,,,,,,,7,,,,29,92
116760,note_on,20,0,5,,,,,,,,5,,,,60,92
116760,note_on,20,0,4,,,,,,,,4,,,,65,108
116760,note_on,20,0,11,,,,,,,,12,,,,41,92
116760,note_on,20,0,6,,,,,,,,6,,,,41,92
116760,note_on,20,0,12,,,,,,,,13,,,,29,92
116840,note_off,80,0,6,,,,,,,,6,,,,41,64
116840,note_off,80,0,3,,,,,,,,3,,,,68,64
116840,note_off,80,0,9,,,,,,,,10,,,,65,64
116840,note_off,80,0,10,,,,,,,,11,,,,60,64
116840,note_off,80,0,7,,,,,,,,7,,,,29,64
116840,note_off,80,0,5,,,,,,,,5,,,,60,64
116840,note_off,80,0,4,,,,,,,,4,,,,65,64
116840,note_off,80,0,11,,,,,,,,12,,,,41,64
116840,note_off,80,0,8,,,,,,,,8,,,,68,64
116840,note_off,80,0,12,,,,,,,,13,,,,29,64
116880,note_on,40,0,8,,,,,,,,8,,,,68,92
116880,note_on,40,0,3,,,,,,,,3,,,,68,108
116880,note_on,40,0,10,,,,,,,,11,,,,60,92
116880,note_on,40,0,12,,,,,,,,13,,,,29,92
116880,note_on,40,0,4,,,,,,,,4,,,,65,108
116880,note_on,40,0,7,,,,,,,,7,,,,29,92
116880,note_on,40,0,6,,,,,,,,6,,,,41,92
116880,note_on,40,0,9,,,,,,,,10,,,,65,92
116880,note_on,40,0,5,,,,,,,,5,,,,60,92
116880,note_on,40,0,11,,,,,,,,12,,,,41,92
116960,note_off,80,0,12,,,,,,,,13,,,,29,64
116960,note_off,80,0,5,,,,,,,,5,,,,60,64
116960,note_off,80,0,8,,,,,,,,8,,,,68,64
116960,note_off,80,0,6,,,,,,,,6,,,,41,64
116960,note_off,80,0,11,,,,,,,,12,,,,41,64
116960,note_off,80,0,7,,,,,,,,7,,,,29,64
116960,note_off,80,0,3,,,,,,,,3,,,,68,64
116960,note_off,80,0,4,,,,,,,,4,,,,65,64
116960,note_off,80,0,10,,,,,,,,11,,,,60,64
116960,note_off,80,0,9,,,,,,,,10,,,,65,64
116995,note_off,235,0,13,,,,,,,,14,,,,41,64
117000,note_on,40,0,4,,,,,,,,4,,,,65,108
117000,note_on,40,0,12,,,,,,,,13,,,,29,92
117000,note_on,40,0,5,,,,,,,,5,,,,60,92
117000,note_on,40,0,10,,,,,,,,11,,,,60,92
117000,note_on,40,0,8,,,,,,,,8,,,,68,92
117000,note_on,40,0,3,,,,,,,,3,,,,68,108
117000,note_on,40,0,9,,,,,,,,10,,,,65,92
117000,note_on,40,0,7,,,,,,,,7,,,,29,92
117000,note_on,5,0,13,,,,,,,,14,,,,41,60
117000,note_on,40,0,6,,,,,,,,6,,,,41,92
117000,note_on,40,0,11,,,,,,,,12,,,,41,92
117080,note_off,80,0,4,,,,,,,,4,,,,65,64
117080,note_off,80,0,6,,,,,,,,6,,,,41,64
117080,note_off,80,0,7,,,,,,,,7,,,,29,64
117080,note_off,80,0,11,,,,,,,,12,,,,41,64
117080,note_off,80,0,10,,,,,,,,11,,,,60,64
117080,note_off,80,0,12,,,,,,,,13,,,,29,64
117080,note_off,80,0,5,,,,,,,,5,,,,60,64
117080,note_off,80,0,9,,,,,,,,10,,,,65,64
117080,note_off,80,0,3,,,,,,,,3,,,,68,64
117080,note_off,80,0,8,,,,,,,,8,,,,68,64
117120,note_on,40,0,7,,,,,,,,7,,,,29,92
117120,note_on,40,0,9,,,,,,,,10,,,,65,92
117120,note_on,40,0,11,,,,,,,,12,,,,41,92
117120,note_on,40,0,6,,,,,,,,6,,,,41,92
117120,note_on,40,0,8,,,,,,,,8,,,,68,92
117120,note_on,40,0,12,,,,,,,,13,,,,29,92
117120,note_on,40,0,10,,,,,,,,11,,,,60,92
117120,note_on,40,0,4,,,,,,,,4,,,,65,108
117120,note_on,40,0,3,,,,,,,,3,,,,68,108
117120,note_on,40,0,5,,,,,,,,5,,,,60,92
117200,note_off,80,0,12,,,,,,,,13,,,,29,64
117200,note_off,80,0,10,,,,,,,,11,,,,60,64
117200,note_off,80,0,9,,,,,,,,10,,,,65,64
117200,note_off,80,0,6,,,,,,,,6,,,,41,64
117200,note_off,80,0,8,,,,,,,,8,,,,68,64
117200,note_off,80,0,3,,,,,,,,3,,,,68,64
117200,note_off,80,0,11,,,,,,,,12,,,,41,64
117200,note_off,80,0,7,,,,,,,,7,,,,29,64
117200,note_off,80,0,5,,,,,,,,5,,,,60,64
117200,note_off,80,0,4,,,,,,,,4,,,,65,64
117235,note_off,235,0,13,,,,,,,,14,,,,41,64
117240,note_on,40,0,12,,,,,,,,13,,,,34,92
117240,note_on,40,0,11,,,,,,,,12,,,,46,92
117240,note_on,40,0,5,,,,,,,,5,,,,61,92
117240,note_on,40,0,10,,,,,,,,11,,,,61,92
117240,note_on,40,0,8,,,,,,,,8,,,,67,92
117240,note_on,40,0,7,,,,,,,,7,,,,34,92
117240,note_on,40,0,6,,,,,,,,6,,,,46,92
117240,note_on,5,0,13,,,,,,,,14,,,,34,60
117240,note_on,40,0,4,,,,,,,,4,,,,65,108
117240,note_on,40,0,3,,,,,,,,3,,,,67,108
117240,set_tempo,28800,1,0,810810,,,,,,,,,,,,
117240,note_on,40,0,9,,,,,,,,10,,,,65,92
117320,note_off,80,0,6,,,,,,,,6,,,,46,64
117320,note_off,80,0,4,,,,,,,,4,,,,65,64
117320,note_off,80,0,7,,,,,,,,7,,,,34,64
117320,note_off,80,0,10,,,,,,,,11,,,,61,64
117320,note_off,80,0,9,,,,,,,,10,,,,65,64
117320,note_off,80,0,8,,,,,,,,8,,,,67,64
117320,note_off,80,0,12,,,,,,,,13,,,,34,64
117320,note_off,80,0,5,,,,,,,,5,,,,61,64
117320,note_off,80,0,11,,,,,,,,12,,,,46,64
117320,note_off,80,0,3,,,,,,,,3,,,,67,64
117360,note_on,40,0,9,,,,,,,,10,,,,65,92
117360,note_on,40,0,8,,,,,,,,8,,,,67,92
117360,note_on,40,0,6,,,,,,,,6,,,,46,92
117360,note_on,40,0,3,,,,,,,,3,,,,67,108
117360,note_on,40,0,5,,,,,,,,5,,,,61,92
117360,note_on,40,0,11,,,,,,,,12,,,,46,92
117360,note_on,40,0,10,,,,,,,,11,,,,61,92
117360,note_on,40,0,7,,,,,,,,7,,,,34,92
117360,note_on,40,0,12,,,,,,,,13,,,,34,92
117360,note_on,40,0,4,,,,,,,,4,,,,65,108
117400,note_off,40,0,7,,,,,,,,7,,,,34,64
117400,note_off,40,0,3,,,,,,,,3,,,,67,64
117400,note_off,40,0,4,,,,,,,,4,,,,65,64
117400,note_off,40,0,11,,,,,,,,12,,,,46,64
117400,note_off,40,0,6,,,,,,,,6,,,,46,64
117400,note_off,40,0,10,,,,,,,,11,,,,61,64
117400,note_off,40,0,8,,,,,,,,8,,,,67,64
117400,note_off,40,0,9,,,,,,,,10,,,,65,64
117400,note_off,40,0,5,,,,,,,,5,,,,61,64
117400,note_off,40,0,12,,,,,,,,13,,,,34,64
117420,note_on,20,0,7,,,,,,,,7,,,,34,92
117420,note_on,20,0,3,,,,,,,,3,,,,67,108
117420,note_on,20,0,10,,,,,,,,11,,,,61,92
117420,note_on,20,0,6,,,,,,,,6,,,,46,92
117420,note_on,20,0,4,,,,,,,,4,,,,65,108
117420,note_on,20,0,9,,,,,,,,10,,,,65,92
117420,note_on,20,0,8,,,,,,,,8,,,,67,92
117420,note_on,20,0,12,,,,,,,,13,,,,34,92
117420,note_on,20,0,5,,,,,,,,5,,,,61,92
117420,note_on,20,0,11,,,,,,,,12,,,,46,92
117460,note_off,40,0,6,,,,,,,,6,,,,46,64
117460,note_off,40,0,11,,,,,,,,12,,,,46,64
117460,note_off,40,0,8,,,,,,,,8,,,,67,64
117460,note_off,40,0,12,,,,,,,,13,,,,34,64
117460,note_off,40,0,5,,,,,,,,5,,,,61,64
117460,note_off,40,0,9,,,,,,,,10,,,,65,64
117460,note_off,40,0,10,,,,,,,,11,,,,61,64
117460,note_off,40,0,3,,,,,,,,3,,,,67,64
117460,note_off,40,0,4,,,,,,,,4,,,,65,64
117460,note_off,40,0,7,,,,,,,,7,,,,34,64
117475,note_off,235,0,13,,,,,,,,14,,,,34,64
117480,note_on,20,0,11,,,,,,,,12,,,,46,92
117480,note_on,20,0,5,,,,,,,,5,,,,61,92
117480,note_on,20,0,8,,,,,,,,8,,,,67,92
117480,note_on,20,0,6,,,,,,,,6,,,,46,92
117480,note_on,20,0,7,,,,,,,,7,,,,34,92
117480,note_on,5,0,13,,,,,,,,14,,,,34,60
117480,note_on,20,0,9,,,,,,,,10,,,,65,92
117480,note_on,20,0,3,,,,,,,,3,,,,67,108
117480,note_on,20,0,4,,,,,,,,4,,,,65,108
117480,note_on,20,0,10,,,,,,,,11,,,,61,92
117480,note_on,20,0,12,,,,,,,,13,,,,34,92
117520,note_off,40,0,8,,,,,,,,8,,,,67,64
117520,note_off,40,0,7,,,,,,,,7,,,,34,64
117520,note_off,40,0,10,,,,,,,,11,,,,61,64
117520,note_off,40,0,3,,,,,,,,3,,,,67,64
117520,note_off,40,0,12,,,,,,,,13,,,,34,64
117520,note_off,40,0,6,,,,,,,,6,,,,46,64
117520,note_off,40,0,11,,,,,,,,12,,,,46,64
117520,note_off,40,0,5,,,,,,,,5,,,,61,64
117520,note_off,40,0,4,,,,,,,,4,,,,65,64
117520,note_off,40,0,9,,,,,,,,10,,,,65,64
117540,note_on,20,0,8,,,,,,,,8,,,,67,92
117540,note_on,20,0,4,,,,,,,,4,,,,65,108
117540,note_on,20,0,7,,,,,,,,7,,,,34,92
117540,note_on,20,0,6,,,,,,,,6,,,,46,92
117540,note_on,20,0,5,,,,,,,,5,,,,61,92
117540,note_on,20,0,11,,,,,,,,12,,,,46,92
117540,note_on,20,0,3,,,,,,,,3,,,,67,108
117540,note_on,20,0,10,,,,,,,,11,,,,61,92
117540,note_on,20,0,12,,,,,,,,13,,,,34,92
117540,note_on,20,0,9,,,,,,,,10,,,,65,92
117580,note_off,40,0,8,,,,,,,,8,,,,67,64
117580,note_off,40,0,11,,,,,,,,12,,,,46,64
117580,note_off,40,0,12,,,,,,,,13,,,,34,64
117580,note_off,40,0,3,,,,,,,,3,,,,67,64
117580,note_off,40,0,9,,,,,,,,10,,,,65,64
117580,note_off,40,0,4,,,,,,,,4,,,,65,64
117580,note_off,40,0,7,,,,,,,,7,,,,34,64
117580,note_off,40,0,10,,,,,,,,11,,,,61,64
117580,note_off,40,0,6,,,,,,,,6,,,,46,64
117580,note_off,40,0,5,,,,,,,,5,,,,61,64
117600,note_on,20,0,4,,,,,,,,4,,,,65,108
117600,note_on,20,0,11,,,,,,,,12,,,,46,92
117600,note_on,20,0,12,,,,,,,,13,,,,34,92
117600,note_on,20,0,10,,,,,,,,11,,,,61,92
117600,note_on,20,0,7,,,,,,,,7,,,,34,92
117600,note_on,20,0,8,,,,,,,,8,,,,67,92
117600,note_on,20,0,3,,,,,,,,3,,,,67,108
117600,note_on,20,0,5,,,,,,,,5,,,,61,92
117600,note_on,20,0,9,,,,,,,,10,,,,65,92
117600,note_on,20,0,6,,,,,,,,6,,,,46,92
117640,note_off,40,0,12,,,,,,,,13,,,,34,64
117640,note_off,40,0,4,,,,,,,,4,,,,65,64
117640,note_off,40,0,3,,,,,,,,3,,,,67,64
117640,note_off,40,0,11,,,,,,,,12,,,,46,64
117640,note_off,40,0,6,,,,,,,,6,,,,46,64
117640,note_off,40,0,10,,,,,,,,11,,,,61,64
117640,note_off,40,0,9,,,,,,,,10,,,,65,64
117640,note_off,40,0,5,,,,,,,,5,,,,61,64
117640,note_off,40,0,7,,,,,,,,7,,,,34,64
117640,note_off,40,0,8,,,,,,,,8,,,,67,64
117660,note_on,20,0,5,,,,,,,,5,,,,61,92
117660,note_on,20,0,10,,,,,,,,11,,,,61,92
117660,note_on,20,0,7,,,,,,,,7,,,,34,92
117660,note_on,20,0,12,,,,,,,,13,,,,34,92
117660,note_on,20,0,9,,,,,,,,10,,,,65,92
117660,note_on,20,0,4,,,,,,,,4,,,,65,108
117660,note_on,20,0,11,,,,,,,,12,,,,46,92
117660,note_on,20,0,8,,,,,,,,8,,,,67,92
117660,note_on,20,0,6,,,,,,,,6,,,,46,92
117660,note_on,20,0,3,,,,,,,,3,,,,67,108
117700,note_off,40,0,3,,,,,,,,3,,,,67,64
117700,note_off,40,0,8,,,,,,,,8,,,,67,64
117700,note_off,40,0,7,,,,,,,,7,,,,34,64
117700,note_off,40,0,6,,,,,,,,6,,,,46,64
117700,note_off,40,0,5,,,,,,,,5,,,,61,64
117700,note_off,40,0,11,,,,,,,,12,,,,46,64
117700,note_off,40,0,9,,,,,,,,10,,,,65,64
117700,note_off,40,0,12,,,,,,,,13,,,,34,64
117700,note_off,40,0,10,,,,,,,,11,,,,61,64
117700,note_off,40,0,4,,,,,,,,4,,,,65,64
117715,note_off,235,0,13,,,,,,,,14,,,,34,64
117720,note_on,20,0,3,,,,,,,,3,,,,67,108
117720,note_on,20,0,4,,,,,,,,4,,,,65,108
117720,note_on,20,0,6,,,,,,,,6,,,,46,92
117720,note_on,20,0,7,,,,,,,,7,,,,34,92
117720,note_on,20,0,10,,,,,,,,11,,,,61,92
117720,note_on,20,0,11,,,,,,,,12,,,,46,92
117720,note_on,20,0,9,,,,,,,,10,,,,65,92
117720,set_tempo,480,1,0,857142,,,,,,,,,,,,
117720,note_on,20,0,8,,,,,,,,8,,,,67,92
117720,note_on,20,0,12,,,,,,,,13,,,,34,92
117720,note_on,5,0,13,,,,,,,,14,,,,34,60
117720,note_on,20,0,5,,,,,,,,5,,,,61,92
117800,note_off,80,0,9,,,,,,,,10,,,,65,64
117800,note_off,80,0,12,,,,,,,,13,,,,34,64
117800,note_off,80,0,8,,,,,,,,8,,,,67,64
117800,note_off,80,0,3,,,,,,,,3,,,,67,64
117800,note_off,80,0,11,,,,,,,,12,,,,46,64
117800,note_off,80,0,4,,,,,,,,4,,,,65,64
117800,note_off,80,0,5,,,,,,,,5,,,,61,64
117800,note_off,80,0,6,,,,,,,,6,,,,46,64
117800,note_off,80,0,10,,,,,,,,11,,,,61,64
117800,note_off,80,0,7,,,,,,,,7,,,,34,64
117840,note_on,40,0,5,,,,,,,,5,,,,61,92
117840,note_on,40,0,6,,,,,,,,6,,,,46,92
117840,note_on,40,0,10,,,,,,,,11,,,,61,92
117840,note_on,40,0,4,,,,,,,,4,,,,65,108
117840,note_on,40,0,11,,,,,,,,12,,,,46,92
117840,note_on,40,0,9,,,,,,,,10,,,,65,92
117840,note_on,40,0,3,,,,,,,,3,,,,67,108
117840,note_on,40,0,12,,,,,,,,13,,,,34,92
117840,note_on,40,0,7,,,,,,,,7,,,,34,92
117840,note_on,40,0,8,,,,,,,,8,,,,67,92
117920,note_off,80,0,5,,,,,,,,5,,,,61,64
117920,note_off,80,0,4,,,,,,,,4,,,,65,64
117920,note_off,80,0,11,,,,,,,,12,,,,46,64
117920,note_off,80,0,12,,,,,,,,13,,,,34,64
117920,note_off,80,0,8,,,,,,,,8,,,,67,64
117920,note_off,80,0,7,,,,,,,,7,,,,34,64
117920,note_off,80,0,6,,,,,,,,6,,,,46,64
117920,note_off,80,0,10,,,,,,,,11,,,,61,64
117920,note_off,80,0,3,,,,,,,,3,,,,67,64
117920,note_off,80,0,9,,,,,,,,10,,,,65,64
117955,note_off,235,0,13,,,,,,,,14,,,,34,64
117960,note_on,40,0,9,,,,,,,,10,,,,65,92
117960,note_on,40,0,10,,,,,,,,11,,,,61,92
117960,note_on,40,0,4,,,,,,,,4,,,,65,108
117960,note_on,40,0,11,,,,,,,,12,,,,46,92
117960,note_on,40,0,5,,,,,,,,5,,,,61,92
117960,note_on,5,0,13,,,,,,,,14,,,,34,60
117960,note_on,40,0,6,,,,,,,,6,,,,46,92
117960,note_on,40,0,12,,,,,,,,13,,,,34,92
117960,note_on,40,0,3,,,,,,,,3,,,,67,108
117960,note_on,40,0,8,,,,,,,,8,,,,67,92
117960,note_on,40,0,7,,,,,,,,7,,,,34,92
118040,note_off,80,0,7,,,,,,,,7,,,,34,64
118040,note_off,80,0,4,,,,,,,,4,,,,65,64
118040,note_off,80,0,10,,,,,,,,11,,,,61,64
118040,note_off,80,0,8,,,,,,,,8,,,,67,64
118040,note_off,80,0,5,,,,,,,,5,,,,61,64
118040,note_off,80,0,6,,,,,,,,6,,,,46,64
118040,note_off,80,0,12,,,,,,,,13,,,,34,64
118040,note_off,80,0,3,,,,,,,,3,,,,67,64
118040,note_off,80,0,11,,,,,,,,12,,,,46,64
118040,note_off,80,0,9,,,,,,,,10,,,,65,64
118080,note_on,40,0,12,,,,,,,,13,,,,34,92
118080,note_on,40,0,8,,,,,,,,8,,,,67,92
118080,note_on,40,0,3,,,,,,,,3,,,,67,108
118080,note_on,40,0,9,,,,,,,,10,,,,65,92
118080,note_on,40,0,4,,,,,,,,4,,,,65,108
118080,note_on,40,0,5,,,,,,,,5,,,,61,92
118080,note_on,40,0,6,,,,,,,,6,,,,46,92
118080,note_on,40,0,7,,,,,,,,7,,,,34,92
118080,note_on,40,0,10,,,,,,,,11,,,,61,92
118080,note_on,40,0,11,,,,,,,,12,,,,46,92
118160,note_off,80,0,7,,,,,,,,7,,,,34,64
118160,note_off,80,0,3,,,,,,,,3,,,,67,64
118160,note_off,80,0,5,,,,,,,,5,,,,61,64
118160,note_off,80,0,8,,,,,,,,8,,,,67,64
118160,note_off,80,0,4,,,,,,,,4,,,,65,64
118160,note_off,80,0,11,,,,,,,,12,,,,46,64
118160,note_off,80,0,6,,,,,,,,6,,,,46,64
118160,note_off,80,0,9,,,,,,,,10,,,,65,64
118160,note_off,80,0,12,,,,,,,,13,,,,34,64
118160,note_off,80,0,10,,,,,,,,11,,,,61,64
118195,note_off,235,0,13,,,,,,,,14,,,,34,64
118200,note_on,40,0,12,,,,,,,,13,,,,36,92
118200,note_on,40,0,3,,,,,,,,3,,,,67,108
118200,note_on,40,0,7,,,,,,,,7,,,,36,92
118200,set_tempo,480,1,0,909090,,,,,,,,,,,,
118200,note_on,40,0,8,,,,,,,,8,,,,67,92
118200,note_on,40,0,11,,,,,,,,12,,,,48,92
118200,note_on,5,0,13,,,,,,,,14,,,,36,60
118200,note_on,40,0,10,,,,,,,,11,,,,60,92
118200,note_on,40,0,5,,,,,,,,5,,,,60,92
118200,note_on,40,0,9,,,,,,,,10,,,,64,92
118200,note_on,40,0,6,,,,,,,,6,,,,48,92
118200,note_on,40,0,4,,,,,,,,4,,,,64,108
118280,note_off,80,0,12,,,,,,,,13,,,,36,64
118280,note_off,80,0,6,,,,,,,,6,,,,48,64
118280,note_off,80,0,10,,,,,,,,11,,,,60,64
118280,note_off,80,0,7,,,,,,,,7,,,,36,64
118280,note_off,80,0,9,,,,,,,,10,,,,64,64
118280,note_off,80,0,4,,,,,,,,4,,,,64,64
118280,note_off,80,0,3,,,,,,,,3,,,,67,64
118280,note_off,80,0,8,,,,,,,,8,,,,67,64
118280,note_off,80,0,11,,,,,,,,12,,,,48,64
118280,note_off,80,0,5,,,,,,,,5,,,,60,64
118320,note_on,40,0,10,,,,,,,,11,,,,60,92
118320,note_on,40,0,8,,,,,,,,8,,,,67,92
118320,note_on,40,0,4,,,,,,,,4,,,,64,108
118320,note_on,40,0,7,,,,,,,,7,,,,36,92
118320,note_on,40,0,9,,,,,,,,10,,,,64,92
118320,note_on,40,0,12,,,,,,,,13,,,,36,92
118320,note_on,40,0,11,,,,,,,,12,,,,48,92
118320,note_on,40,0,6,,,,,,,,6,,,,48,92
118320,note_on,40,0,3,,,,,,,,3,,,,67,108
118320,note_on,40,0,5,,,,,,,,5,,,,60,92
118360,note_off,40,0,11,,,,,,,,12,,,,48,64
118360,note_off,40,0,7,,,,,,,,7,,,,36,64
118360,note_off,40,0,4,,,,,,,,4,,,,64,64
118360,note_off,40,0,3,,,,,,,,3,,,,67,64
118360,note_off,40,0,12,,,,,,,,13,,,,36,64
118360,note_off,40,0,5,,,,,,,,5,,,,60,64
118360,note_off,40,0,8,,,,,,,,8,,,,67,64
118360,note_off,40,0,6,,,,,,,,6,,,,48,64
118360,note_off,40,0,9,,,,,,,,10,,,,64,64
118360,note_off,40,0,10,,,,,,,,11,,,,60,64
118380,note_on,20,0,10,,,,,,,,11,,,,60,92
118380,note_on,20,0,6,,,,,,,,6,,,,48,92
118380,note_on,20,0,11,,,,,,,,12,,,,48,92
118380,note_on,20,0,9,,,,,,,,10,,,,64,92
118380,note_on,20,0,3,,,,,,,,3,,,,67,108
118380,note_on,20,0,7,,,,,,,,7,,,,36,92
118380,note_on,20,0,12,,,,,,,,13,,,,36,92
118380,note_on,20,0,8,,,,,,,,8,,,,67,92
118380,note_on,20,0,5,,,,,,,,5,,,,60,92
118380,note_on,20,0,4,,,,,,,,4,,,,64,108
118420,note_off,40,0,8,,,,,,,,8,,,,67,64
118420,note_off,40,0,11,,,,,,,,12,,,,48,64
118420,note_off,40,0,3,,,,,,,,3,,,,67,64
118420,note_off,40,0,12,,,,,,,,13,,,,36,64
118420,note_off,40,0,5,,,,,,,,5,,,,60,64
118420,note_off,40,0,4,,,,,,,,4,,,,64,64
118420,note_off,40,0,9,,,,,,,,10,,,,64,64
118420,note_off,40,0,7,,,,,,,,7,,,,36,64
118420,note_off,40,0,10,,,,,,,,11,,,,60,64
118420,note_off,40,0,6,,,,,,,,6,,,,48,64
118435,note_off,235,0,13,,,,,,,,14,,,,36,64
118440,note_on,20,0,3,,,,,,,,3,,,,67,108
118440,note_on,20,0,7,,,,,,,,7,,,,36,92
118440,note_on,5,0,13,,,,,,,,14,,,,36,60
118440,note_on,20,0,10,,,,,,,,11,,,,60,92
118440,note_on,20,0,9,,,,,,,,10,,,,64,92
118440,note_on,20,0,8,,,,,,,,8,,,,67,92
118440,note_on,20,0,6,,,,,,,,6,,,,48,92
118440,note_on,20,0,5,,,,,,,,5,,,,60,92
118440,note_on,20,0,11,,,,,,,,12,,,,48,92
118440,note_on,20,0,4,,,,,,,,4,,,,64,108
118440,note_on,20,0,12,,,,,,,,13,,,,36,92
118480,note_off,40,0,6,,,,,,,,6,,,,48,64
118480,note_off,40,0,5,,,,,,,,5,,,,60,64
118480,note_off,40,0,11,,,,,,,,12,,,,48,64
118480,note_off,40,0,9,,,,,,,,10,,,,64,64
118480,note_off,40,0,10,,,,,,,,11,,,,60,64
118480,note_off,40,0,3,,,,,,,,3,,,,67,64
118480,note_off,40,0,12,,,,,,,,13,,,,36,64
118480,note_off,40,0,7,,,,,,,,7,,,,36,64
118480,note_off,40,0,8,,,,,,,,8,,,,67,64
118480,note_off,40,0,4,,,,,,,,4,,,,64,64
118500,note_on,20,0,9,,,,,,,,10,,,,64,92
118500,note_on,20,0,11,,,,,,,,12,,,,48,92
118500,note_on,20,0,4,,,,,,,,4,,,,64,108
118500,note_on,20,0,6,,,,,,,,6,,,,48,92
118500,note_on,20,0,5,,,,,,,,5,,,,60,92
118500,note_on,20,0,3,,,,,,,,3,,,,67,108
118500,note_on,20,0,8,,,,,,,,8,,,,67,92
118500,note_on,20,0,10,,,,,,,,11,,,,60,92
118500,note_on,20,0,12,,,,,,,,13,,,,36,92
118500,note_on,20,0,7,,,,,,,,7,,,,36,92
118540,note_off,40,0,7,,,,,,,,7,,,,36,64
118540,note_off,40,0,12,,,,,,,,13,,,,36,64
118540,note_off,40,0,9,,,,,,,,10,,,,64,64
118540,note_off,40,0,11,,,,,,,,12,,,,48,64
118540,note_off,40,0,4,,,,,,,,4,,,,64,64
118540,note_off,40,0,6,,,,,,,,6,,,,48,64
118540,note_off,40,0,10,,,,,,,,11,,,,60,64
118540,note_off,40,0,5,,,,,,,,5,,,,60,64
118540,note_off,40,0,3,,,,,,,,3,,,,67,64
118540,note_off,40,0,8,,,,,,,,8,,,,67,64
118560,note_on,20,0,7,,,,,,,,7,,,,36,92
118560,note_on,20,0,10,,,,,,,,11,,,,60,92
118560,note_on,20,0,9,,,,,,,,10,,,,64,92
118560,note_on,20,0,3,,,,,,,,3,,,,67,108
118560,note_on,20,0,4,,,,,,,,4,,,,64,108
118560,note_on,20,0,8,,,,,,,,8,,,,67,92
118560,note_on,20,0,11,,,,,,,,12,,,,48,92
118560,note_on,20,0,5,,,,,,,,5,,,,60,92
118560,note_on,20,0,12,,,,,,,,13,,,,36,92
118560,note_on,20,0,6,,,,,,,,6,,,,48,92
118600,note_off,40,0,7,,,,,,,,7,,,,36,64
118600,note_off,40,0,3,,,,,,,,3,,,,67,64
118600,note_off,40,0,9,,,,,,,,10,,,,64,64
118600,note_off,40,0,11,,,,,,,,12,,,,48,64
118600,note_off,40,0,6,,,,,,,,6,,,,48,64
118600,note_off,40,0,12,,,,,,,,13,,,,36,64
118600,note_off,40,0,5,,,,,,,,5,,,,60,64
118600,note_off,40,0,10,,,,,,,,11,,,,60,64
118600,note_off,40,0,8,,,,,,,,8,,,,67,64
118600,note_off,40,0,4,,,,,,,,4,,,,64,64
118620,note_on,20,0,3,,,,,,,,3,,,,67,108
118620,note_on,20,0,11,,,,,,,,12,,,,48,92
118620,note_on,20,0,6,,,,,,,,6,,,,48,92
118620,note_on,20,0,10,,,,,,,,11,,,,60,92
118620,note_on,20,0,5,,,,,,,,5,,,,60,92
118620,note_on,20,0,4,,,,,,,,4,,,,64,108
118620,note_on,20,0,9,,,,,,,,10,,,,64,92
118620,note_on,20,0,8,,,,,,,,8,,,,67,92
118620,note_on,20,0,12,,,,,,,,13,,,,36,92
118620,note_on,20,0,7,,,,,,,,7,,,,36,92
118660,note_off,40,0,11,,,,,,,,12,,,,48,64
118660,note_off,40,0,12,,,,,,,,13,,,,36,64
118660,note_off,40,0,7,,,,,,,,7,,,,36,64
118660,note_off,40,0,6,,,,,,,,6,,,,48,64
118660,note_off,40,0,8,,,,,,,,8,,,,67,64
118660,note_off,40,0,3,,,,,,,,3,,,,67,64
118660,note_off,40,0,4,,,,,,,,4,,,,64,64
118660,note_off,40,0,9,,,,,,,,10,,,,64,64
118660,note_off,40,0,10,,,,,,,,11,,,,60,64
118660,note_off,40,0,5,,,,,,,,5,,,,60,64
118675,note_off,235,0,13,,,,,,,,14,,,,36,64
118680,note_on,20,0,7,,,,,,,,7,,,,36,92
118680,note_on,20,0,12,,,,,,,,13,,,,36,92
118680,set_tempo,480,1,0,967741,,,,,,,,,,,,
118680,note_on,20,0,9,,,,,,,,10,,,,64,92
118680,note_on,20,0,4,,,,,,,,4,,,,64,108
118680,note_on,20,0,6,,,,,,,,6,,,,48,92
118680,note_on,20,0,8,,,,,,,,8,,,,67,92
118680,note_on,20,0,10,,,,,,,,11,,,,60,92
118680,note_on,20,0,3,,,,,,,,3,,,,67,108
118680,note_on,20,0,11,,,,,,,,12,,,,48,92
118680,note_on,5,0,13,,,,,,,,14,,,,36,60
118680,note_on,20,0,5,,,,,,,,5,,,,60,92
118760,note_off,80,0,11,,,,,,,,12,,,,48,64
118760,note_off,80,0,10,,,,,,,,11,,,,60,64
118760,note_off,80,0,12,,,,,,,,13,,,,36,64
118760,note_off,80,0,9,,,,,,,,10,,,,64,64
118760,note_off,80,0,5,,,,,,,,5,,,,60,64
118760,note_off,80,0,4,,,,,,,,4,,,,64,64
118760,note_off,80,0,7,,,,,,,,7,,,,36,64
118760,note_off,80,0,8,,,,,,,,8,,,,67,64
118760,note_off,80,0,6,,,,,,,,6,,,,48,64
118760,note_off,80,0,3,,,,,,,,3,,,,67,64
118800,note_on,40,0,12,,,,,,,,13,,,,36,92
118800,note_on,40,0,4,,,,,,,,4,,,,64,108
118800,note_on,40,0,7,,,,,,,,7,,,,36,92
118800,set_tempo,120,1,0,1000000,,,,,,,,,,,,
118800,note_on,40,0,3,,,,,,,,3,,,,67,108
118800,note_on,40,0,8,,,,,,,,8,,,,67,92
118800,note_on,40,0,5,,,,,,,,5,,,,60,92
118800,note_on,40,0,11,,,,,,,,12,,,,48,92
118800,note_on,40,0,10,,,,,,,,11,,,,60,92
118800,note_on,40,0,9,,,,,,,,10,,,,64,92
118800,note_on,40,0,6,,,,,,,,6,,,,48,92
118880,note_off,80,0,6,,,,,,,,6,,,,48,64
118880,note_off,80,0,10,,,,,,,,11,,,,60,64
118880,note_off,80,0,4,,,,,,,,4,,,,64,64
118880,note_off,80,0,7,,,,,,,,7,,,,36,64
118880,note_off,80,0,5,,,,,,,,5,,,,60,64
118880,note_off,80,0,8,,,,,,,,8,,,,67,64
118880,note_off,80,0,12,,,,,,,,13,,,,36,64
118880,note_off,80,0,9,,,,,,,,10,,,,64,64
118880,note_off,80,0,11,,,,,,,,12,,,,48,64
118880,note_off,80,0,3,,,,,,,,3,,,,67,64
118915,note_off,235,0,13,,,,,,,,14,,,,36,64
118920,note_on,40,0,4,,,,,,,,4,,,,64,108
118920,note_on,40,0,5,,,,,,,,5,,,,60,92
118920,note_on,40,0,3,,,,,,,,3,,,,67,108
118920,note_on,40,0,10,,,,,,,,11,,,,60,92
118920,note_on,40,0,7,,,,,,,,7,,,,36,92
118920,note_on,5,0,13,,,,,,,,14,,,,36,60
118920,note_on,40,0,12,,,,,,,,13,,,,36,92
118920,note_on,40,0,9,,,,,,,,10,,,,64,92
118920,set_tempo,120,1,0,1034482,,,,,,,,,,,,
118920,note_on,40,0,8,,,,,,,,8,,,,67,92
118920,note_on,40,0,6,,,,,,,,6,,,,48,92
118920,note_on,40,0,11,,,,,,,,12,,,,48,92
119000,note_off,80,0,9,,,,,,,,10,,,,64,64
119000,note_off,80,0,12,,,,,,,,13,,,,36,64
119000,note_off,80,0,8,,,,,,,,8,,,,67,64
119000,note_off,80,0,3,,,,,,,,3,,,,67,64
119000,note_off,80,0,11,,,,,,,,12,,,,48,64
119000,note_off,80,0,7,,,,,,,,7,,,,36,64
119000,note_off,80,0,10,,,,,,,,11,,,,60,64
119000,note_off,80,0,4,,,,,,,,4,,,,64,64
119000,note_off,80,0,6,,,,,,,,6,,,,48,64
119000,note_off,80,0,5,,,,,,,,5,,,,60,64
119040,note_on,40,0,7,,,,,,,,7,,,,36,92
119040,note_on,40,0,4,,,,,,,,4,,,,64,108
119040,set_tempo,120,1,0,1071428,,,,,,,,,,,,
119040,note_on,40,0,6,,,,,,,,6,,,,48,92
119040,note_on,40,0,9,,,,,,,,10,,,,64,92
119040,note_on,40,0,12,,,,,,,,13,,,,36,92
119040,note_on,40,0,8,,,,,,,,8,,,,67,92
119040,note_on,40,0,10,,,,,,,,11,,,,60,92
119040,note_on,40,0,11,,,,,,,,12,,,,48,92
119040,note_on,40,0,3,,,,,,,,3,,,,67,108
119040,note_on,40,0,5,,,,,,,,5,,,,60,92
119120,note_off,80,0,4,,,,,,,,4,,,,64,64
119120,note_off,80,0,11,,,,,,,,12,,,,48,64
119120,note_off,80,0,10,,,,,,,,11,,,,60,64
119120,note_off,80,0,3,,,,,,,,3,,,,67,64
119120,note_off,80,0,8,,,,,,,,8,,,,67,64
119120,note_off,80,0,7,,,,,,,,7,,,,36,64
119120,note_off,80,0,12,,,,,,,,13,,,,36,64
119120,note_off,80,0,9,,,,,,,,10,,,,64,64
119120,note_off,80,0,6,,,,,,,,6,,,,48,64
119120,note_off,80,0,5,,,,,,,,5,,,,60,64
119155,note_off,235,0,13,,,,,,,,14,,,,36,64
119160,note_on,40,0,3,,,,,,,,3,,,,65,108
119160,note_on,0,0,6,,,,,,,,6,,,,53,92
119160,note_on,40,0,6,,,,,,,,6,,,,41,92
119160,set_tempo,120,1,0,833333,,,,,,,,,,,,
119160,note_on,5,0,13,,,,,,,,14,,,,29,60
119160,note_on,40,0,10,,,,,,,,11,,,,56,92
119160,note_on,40,0,12,,,,,,,,13,,,,29,92
119160,note_on,40,0,9,,,,,,,,10,,,,60,92
119160,note_on,40,0,8,,,,,,,,8,,,,65,92
119160,note_on,0,0,13,,,,,,,,14,,,,41,60
119160,note_on,40,0,5,,,,,,,,5,,,,56,92
119160,note_on,0,0,11,,,,,,,,12,,,,53,92
119160,note_on,40,0,11,,,,,,,,12,,,,41,92
119160,end_of_track,0,1,0,,,,,,,,,,,,,
119160,note_on,40,0,7,,,,,,,,7,,,,29,92
119160,note_on,40,0,4,,,,,,,,4,,,,60,108
120960,note_off,1800,0,13,,,,,,,,14,,,,41,64
120960,note_off,1800,0,9,,,,,,,,10,,,,60,64
120960,end_of_track,0,1,3,,,,,,,,,,,,,
120960,end_of_track,0,1,8,,,,,,,,,,,,,
120960,note_off,1800,0,8,,,,,,,,8,,,,65,64
120960,note_off,1800,0,10,,,,,,,,11,,,,56,64
120960,end_of_track,0,1,10,,,,,,,,,,,,,
120960,end_of_track,0,1,7,,,,,,,,,,,,,
120960,note_off,1800,0,7,,,,,,,,7,,,,29,64
120960,end_of_track,0,1,6,,,,,,,,,,,,,
120960,note_off,0,0,6,,,,,,,,6,,,,41,64
120960,note_off,1800,0,6,,,,,,,,6,,,,53,64
120960,note_off,1800,0,3,,,,,,,,3,,,,65,64
120960,end_of_track,0,1,9,,,,,,,,,,,,,
120960,note_off,0,0,11,,,,,,,,12,,,,41,64
120960,end_of_track,0,1,11,,,,,,,,,,,,,
120960,end_of_track,0,1,5,,,,,,,,,,,,,
120960,note_off,1800,0,5,,,,,,,,5,,,,56,64
120960,note_off,0,0,13,,,,,,,,14,,,,29,64
120960,end_of_track,0,1,4,,,,,,,,,,,,,
120960,note_off,1800,0,4,,,,,,,,4,,,,60,64
120960,note_off,1800,0,12,,,,,,,,13,,,,29,64
120960,end_of_track,0,1,12,,,,,,,,,,,,,
120960,note_off,1800,0,11,,,,,,,,12,,,,53,64
120960,end_of_track,0,1,13,,,,,,,,,,,,,
