tick,type,time,meta,track,tempo,numerator,denominator,clocks_per_click,notated_32nd_notes_per_beat,key,port,channel,control,value,program,note,velocity
0,track_name,0,1,0,,,,,,,,,,,,,
0,control_change,0,0,1,,,,,,,,0,10,6,,,
0,control_change,0,0,1,,,,,,,,0,7,127,,,
0,channel_prefix,0,1,1,,,,,,,,0,,,,,
0,midi_port,0,1,1,,,,,,,0,,,,,,
0,track_name,0,1,1,,,,,,,,,,,,,
0,control_change,0,0,10,,,,,,,,8,7,127,,,
0,control_change,0,0,10,,,,,,,,8,10,1,,,
0,control_change,0,0,10,,,,,,,,8,91,127,,,
0,program_change,0,0,10,,,,,,,,8,,,50,,
0,program_change,0,0,12,,,,,,,,11,,,50,,
0,control_change,0,0,1,,,,,,,,0,91,124,,,
0,control_change,0,0,12,,,,,,,,11,91,127,,,
0,program_change,0,0,6,,,,,,,,4,,,48,,
0,control_change,0,0,6,,,,,,,,4,91,127,,,
0,control_change,0,0,6,,,,,,,,4,10,32,,,
0,control_change,0,0,6,,,,,,,,4,7,127,,,
0,channel_prefix,0,1,6,,,,,,,,4,,,,,
0,midi_port,0,1,6,,,,,,,0,,,,,,
0,control_change,0,0,12,,,,,,,,11,7,127,,,
0,channel_prefix,0,1,12,,,,,,,,11,,,,,
0,control_change,0,0,13,,,,,,,,12,91,127,,,
0,program_change,0,0,13,,,,,,,,12,,,50,,
0,control_change,0,0,12,,,,,,,,11,10,63,,,
0,program_change,0,0,7,,,,,,,,5,,,48,,
0,program_change,0,0,1,,,,,,,,0,,,6,,
0,midi_port,0,1,10,,,,,,,0,,,,,,
0,control_change,0,0,7,,,,,,,,5,91,127,,,
0,control_change,0,0,7,,,,,,,,5,10,63,,,
0,control_change,0,0,7,,,,,,,,5,7,127,,,
0,channel_prefix,0,1,7,,,,,,,,5,,,,,
0,midi_port,0,1,7,,,,,,,0,,,,,,
0,midi_port,0,1,9,,,,,,,0,,,,,,
0,channel_prefix,0,1,9,,,,,,,,7,,,,,
0,control_change,0,0,9,,,,,,,,7,7,127,,,
0,control_change,0,0,9,,,,,,,,7,10,127,,,
0,control_change,0,0,9,,,,,,,,7,91,127,,,
0,channel_prefix,0,1,10,,,,,,,,8,,,,,
0,program_change,0,0,9,,,,,,,,7,,,48,,
0,control_change,0,0,13,,,,,,,,12,7,127,,,
0,channel_prefix,0,1,13,,,,,,,,12,,,,,
0,midi_port,0,1,13,,,,,,,0,,,,,,
0,track_name,0,1,3,,,,,,,,,,,,,
0,midi_port,0,1,3,,,,,,,0,,,,,,
0,channel_prefix,0,1,3,,,,,,,,1,,,,,
0,control_change,0,0,3,,,,,,,,1,7,127,,,
0,control_change,0,0,3,,,,,,,,1,10,64,,,
0,control_change,0,0,3,,,,,,,,1,91,127,,,
0,program_change,0,0,3,,,,,,,,1,,,48,,
0,control_change,0,0,13,,,,,,,,12,10,95,,,
0,track_name,0,1,4,,,,,,,,,,,,,
0,midi_port,0,1,12,,,,,,,0,,,,,,
0,channel_prefix,0,1,4,,,,,,,,2,,,,,
0,channel_prefix,0,1,11,,,,,,,,10,,,,,
0,control_change,0,0,11,,,,,,,,10,7,127,,,
0,control_change,0,0,11,,,,,,,,10,10,32,,,
0,control_change,0,0,11,,,,,,,,10,91,127,,,
0,program_change,0,0,11,,,,,,,,10,,,50,,
0,program_change,0,0,14,,,,,,,,13,,,50,,
0,control_change,0,0,14,,,,,,,,13,91,124,,,
0,control_change,0,0,14,,,,,,,,13,10,127,,,
0,control_change,0,0,14,,,,,,,,13,7,127,,,
0,channel_prefix,0,1,14,,,,,,,,13,,,,,
0,midi_port,0,1,4,,,,,,,0,,,,,,
0,midi_port,0,1,14,,,,,,,0,,,,,,
0,midi_port,0,1,2,,,,,,,0,,,,,,
0,channel_prefix,0,1,2,,,,,,,,0,,,,,
0,control_change,0,0,2,,,,,,,,0,7,127,,,
0,control_change,0,0,2,,,,,,,,0,10,6,,,
0,control_change,0,0,2,,,,,,,,0,91,124,,,
0,program_change,0,0,2,,,,,,,,0,,,6,,
0,key_signature,0,1,0,,,,,,E,,,,,,,
0,time_signature,0,1,0,,12,8,24,8,,,,,,,,
0,set_tempo,0,1,0,500000,,,,,,,,,,,,
0,copyright,0,1,0,,,,,,,,,,,,,
0,track_name,0,1,2,,,,,,,,,,,,,
0,track_name,0,1,5,,,,,,,,,,,,,
0,midi_port,0,1,11,,,,,,,0,,,,,,
0,channel_prefix,0,1,5,,,,,,,,3,,,,,
0,control_change,0,0,4,,,,,,,,2,7,127,,,
0,control_change,0,0,4,,,,,,,,2,10,64,,,
0,control_change,0,0,4,,,,,,,,2,91,127,,,
0,program_change,0,0,4,,,,,,,,2,,,40,,
0,program_change,0,0,15,,,,,,,,14,,,32,,
0,control_change,0,0,15,,,,,,,,14,91,127,,,
0,control_change,0,0,15,,,,,,,,14,10,6,,,
0,midi_port,0,1,8,,,,,,,0,,,,,,
0,channel_prefix,0,1,8,,,,,,,,6,,,,,
0,control_change,0,0,8,,,,,,,,6,7,127,,,
0,control_change,0,0,8,,,,,,,,6,10,95,,,
0,midi_port,0,1,5,,,,,,,0,,,,,,
0,control_change,0,0,8,,,,,,,,6,91,127,,,
0,control_change,0,0,15,,,,,,,,14,7,127,,,
0,channel_prefix,0,1,15,,,,,,,,14,,,,,
0,midi_port,0,1,15,,,,,,,0,,,,,,
0,program_change,0,0,5,,,,,,,,3,,,48,,
0,control_change,0,0,5,,,,,,,,3,91,127,,,
0,control_change,0,0,5,,,,,,,,3,10,1,,,
0,control_change,0,0,5,,,,,,,,3,7,127,,,
0,program_change,0,0,8,,,,,,,,6,,,48,,
120,note_on,120,0,9,,,,,,,,7,,,,40,92
120,note_on,120,0,12,,,,,,,,11,,,,71,75
120,note_on,120,0,10,,,,,,,,8,,,,80,75
120,note_on,120,0,14,,,,,,,,13,,,,40,75
120,note_on,120,0,11,,,,,,,,10,,,,76,75
120,note_on,120,0,5,,,,,,,,3,,,,80,108
120,note_on,120,0,7,,,,,,,,5,,,,71,92
120,note_on,120,0,6,,,,,,,,4,,,,76,108
120,note_on,120,0,8,,,,,,,,6,,,,52,92
120,set_tempo,120,1,0,491803,,,,,,,,,,,,
120,note_on,120,0,13,,,,,,,,12,,,,52,75
480,note_on,0,0,11,,,,,,,,10,,,,78,75
480,note_on,0,0,10,,,,,,,,8,,,,81,75
480,note_off,360,0,5,,,,,,,,3,,,,80,64
480,note_off,360,0,11,,,,,,,,10,,,,76,64
480,note_off,360,0,10,,,,,,,,8,,,,80,64
480,note_on,0,0,5,,,,,,,,3,,,,81,108
480,note_off,360,0,6,,,,,,,,4,,,,76,64
480,note_on,0,0,6,,,,,,,,4,,,,78,108
595,note_off,115,0,11,,,,,,,,10,,,,78,64
595,note_off,115,0,6,,,,,,,,4,,,,78,64
595,note_off,115,0,5,,,,,,,,3,,,,81,64
595,note_off,115,0,10,,,,,,,,8,,,,81,64
600,note_on,5,0,6,,,,,,,,4,,,,76,108
600,note_on,5,0,10,,,,,,,,8,,,,80,75
600,note_on,5,0,11,,,,,,,,10,,,,76,75
600,note_on,5,0,5,,,,,,,,3,,,,80,108
680,note_off,80,0,5,,,,,,,,3,,,,80,64
680,note_off,80,0,6,,,,,,,,4,,,,76,64
835,note_off,235,0,11,,,,,,,,10,,,,76,64
835,note_off,235,0,10,,,,,,,,8,,,,80,64
840,note_on,5,0,11,,,,,,,,10,,,,76,75
840,note_on,160,0,5,,,,,,,,3,,,,80,108
840,note_on,160,0,6,,,,,,,,4,,,,76,108
840,note_on,5,0,10,,,,,,,,8,,,,80,75
1320,note_on,0,0,5,,,,,,,,3,,,,81,108
1320,note_on,0,0,6,,,,,,,,4,,,,78,108
1320,note_off,480,0,5,,,,,,,,3,,,,80,64
1320,note_off,480,0,6,,,,,,,,4,,,,76,64
1320,note_on,0,0,11,,,,,,,,10,,,,78,75
1320,note_off,480,0,11,,,,,,,,10,,,,76,64
1320,note_off,480,0,10,,,,,,,,8,,,,80,64
1320,note_on,0,0,10,,,,,,,,8,,,,81,75
1400,note_off,80,0,11,,,,,,,,10,,,,78,64
1400,note_off,80,0,6,,,,,,,,4,,,,78,64
1400,note_off,80,0,10,,,,,,,,8,,,,81,64
1400,note_off,80,0,5,,,,,,,,3,,,,81,64
1560,note_on,160,0,11,,,,,,,,10,,,,78,75
1560,note_on,160,0,6,,,,,,,,4,,,,78,108
1560,note_on,160,0,10,,,,,,,,8,,,,81,75
1560,note_on,160,0,5,,,,,,,,3,,,,81,108
2040,note_on,2040,0,15,,,,,,,,14,,,,47,60
2040,note_on,2040,0,1,,,,,,,,0,,,,59,92
2040,note_on,2040,0,2,,,,,,,,0,,,,47,92
2275,note_off,235,0,2,,,,,,,,0,,,,47,64
2275,note_off,235,0,1,,,,,,,,0,,,,59,64
2275,note_off,235,0,15,,,,,,,,14,,,,47,64
2280,note_off,720,0,10,,,,,,,,8,,,,81,64
2280,note_on,5,0,2,,,,,,,,0,,,,52,92
2280,note_off,720,0,11,,,,,,,,10,,,,78,64
2280,note_off,720,0,6,,,,,,,,4,,,,78,64
2280,note_on,0,0,6,,,,,,,,4,,,,80,108
2280,note_on,5,0,15,,,,,,,,14,,,,52,60
2280,note_on,0,0,11,,,,,,,,10,,,,80,75
2280,note_on,0,0,10,,,,,,,,8,,,,83,75
2280,note_on,5,0,1,,,,,,,,0,,,,64,92
2280,note_off,720,0,5,,,,,,,,3,,,,81,64
2280,note_on,0,0,5,,,,,,,,3,,,,83,108
2680,note_off,400,0,11,,,,,,,,10,,,,80,64
2680,note_off,400,0,2,,,,,,,,0,,,,52,64
2680,note_off,400,0,6,,,,,,,,4,,,,80,64
2680,note_off,400,0,10,,,,,,,,8,,,,83,64
2680,note_off,400,0,1,,,,,,,,0,,,,64,64
2680,note_off,400,0,15,,,,,,,,14,,,,52,64
2680,note_off,400,0,5,,,,,,,,3,,,,83,64
2760,note_on,80,0,2,,,,,,,,0,,,,47,92
2760,note_on,80,0,1,,,,,,,,0,,,,59,92
2760,note_on,80,0,6,,,,,,,,4,,,,78,108
2760,note_on,80,0,11,,,,,,,,10,,,,78,75
2760,note_on,80,0,10,,,,,,,,8,,,,81,75
2760,note_on,80,0,15,,,,,,,,14,,,,47,60
2760,note_on,80,0,5,,,,,,,,3,,,,81,108
2840,note_off,80,0,11,,,,,,,,10,,,,78,64
2840,note_off,80,0,10,,,,,,,,8,,,,81,64
2840,note_off,80,0,5,,,,,,,,3,,,,81,64
2840,note_off,80,0,6,,,,,,,,4,,,,78,64
2995,note_off,235,0,2,,,,,,,,0,,,,47,64
2995,note_off,235,0,15,,,,,,,,14,,,,47,64
2995,note_off,235,0,1,,,,,,,,0,,,,59,64
3000,note_on,0,0,9,,,,,,,,7,,,,40,92
3000,note_on,160,0,6,,,,,,,,4,,,,76,108
3000,note_off,2880,0,12,,,,,,,,11,,,,71,64
3000,note_on,0,0,12,,,,,,,,11,,,,71,75
3000,note_off,2880,0,9,,,,,,,,7,,,,40,64
3000,note_on,5,0,1,,,,,,,,0,,,,52,92
3000,note_off,2880,0,13,,,,,,,,12,,,,52,64
3000,note_on,0,0,13,,,,,,,,12,,,,52,75
3000,note_on,5,0,2,,,,,,,,0,,,,40,92
3000,note_off,2880,0,14,,,,,,,,13,,,,40,64
3000,note_on,0,0,14,,,,,,,,13,,,,40,75
3000,note_on,160,0,11,,,,,,,,10,,,,76,75
3000,note_on,160,0,5,,,,,,,,3,,,,80,108
3000,note_on,0,0,8,,,,,,,,6,,,,52,92
3000,note_on,160,0,10,,,,,,,,8,,,,80,75
3000,note_off,2880,0,7,,,,,,,,5,,,,71,64
3000,note_on,5,0,15,,,,,,,,14,,,,40,60
3000,note_on,0,0,7,,,,,,,,5,,,,71,92
3000,note_off,2880,0,8,,,,,,,,6,,,,52,64
3360,note_on,0,0,5,,,,,,,,3,,,,81,105
3360,note_on,0,0,10,,,,,,,,8,,,,81,73
3360,note_off,360,0,10,,,,,,,,8,,,,80,64
3360,note_on,0,0,11,,,,,,,,10,,,,78,73
3360,note_off,360,0,11,,,,,,,,10,,,,76,64
3360,note_on,0,0,6,,,,,,,,4,,,,78,105
3360,note_off,360,0,6,,,,,,,,4,,,,76,64
3360,note_off,360,0,5,,,,,,,,3,,,,80,64
3475,note_off,115,0,11,,,,,,,,10,,,,78,64
3475,note_off,115,0,6,,,,,,,,4,,,,78,64
3475,note_off,115,0,10,,,,,,,,8,,,,81,64
3475,note_off,115,0,5,,,,,,,,3,,,,81,64
3480,note_on,5,0,11,,,,,,,,10,,,,76,73
3480,note_on,5,0,6,,,,,,,,4,,,,76,104
3480,note_on,5,0,10,,,,,,,,8,,,,80,73
3480,note_on,5,0,5,,,,,,,,3,,,,80,104
3560,note_off,80,0,6,,,,,,,,4,,,,76,64
3560,note_off,80,0,5,,,,,,,,3,,,,80,64
3715,note_off,235,0,10,,,,,,,,8,,,,80,64
3715,note_off,235,0,11,,,,,,,,10,,,,76,64
3720,note_on,5,0,11,,,,,,,,10,,,,76,72
3720,note_on,160,0,5,,,,,,,,3,,,,80,102
3720,note_on,5,0,10,,,,,,,,8,,,,80,72
3720,note_on,160,0,6,,,,,,,,4,,,,76,102
4200,note_on,0,0,6,,,,,,,,4,,,,78,98
4200,note_off,480,0,10,,,,,,,,8,,,,80,64
4200,note_on,0,0,10,,,,,,,,8,,,,81,69
4200,note_off,480,0,5,,,,,,,,3,,,,80,64
4200,note_on,0,0,5,,,,,,,,3,,,,81,98
4200,note_off,480,0,6,,,,,,,,4,,,,76,64
4200,note_off,480,0,11,,,,,,,,10,,,,76,64
4200,note_on,0,0,11,,,,,,,,10,,,,78,69
4280,note_off,80,0,10,,,,,,,,8,,,,81,64
4280,note_off,80,0,5,,,,,,,,3,,,,81,64
4280,note_off,80,0,11,,,,,,,,10,,,,78,64
4280,note_off,80,0,6,,,,,,,,4,,,,78,64
4320,note_off,1320,0,15,,,,,,,,14,,,,40,64
4320,note_off,1320,0,2,,,,,,,,0,,,,40,64
4320,note_off,1320,0,1,,,,,,,,0,,,,52,64
4440,note_on,160,0,11,,,,,,,,10,,,,78,68
4440,note_on,160,0,10,,,,,,,,8,,,,81,68
4440,note_on,160,0,6,,,,,,,,4,,,,78,96
4440,note_on,160,0,5,,,,,,,,3,,,,81,96
4920,note_on,600,0,15,,,,,,,,14,,,,47,47
4920,note_on,600,0,2,,,,,,,,0,,,,47,72
4920,note_on,600,0,1,,,,,,,,0,,,,59,72
5155,note_off,235,0,2,,,,,,,,0,,,,47,64
5155,note_off,235,0,1,,,,,,,,0,,,,59,64
5155,note_off,235,0,15,,,,,,,,14,,,,47,64
5160,note_off,720,0,11,,,,,,,,10,,,,78,64
5160,note_on,0,0,11,,,,,,,,10,,,,80,64
5160,note_off,720,0,5,,,,,,,,3,,,,81,64
5160,note_on,0,0,5,,,,,,,,3,,,,83,89
5160,note_on,5,0,15,,,,,,,,14,,,,52,46
5160,note_on,0,0,6,,,,,,,,4,,,,80,89
5160,note_off,720,0,6,,,,,,,,4,,,,78,64
5160,note_off,720,0,10,,,,,,,,8,,,,81,64
5160,note_on,0,0,10,,,,,,,,8,,,,83,64
5160,note_on,5,0,1,,,,,,,,0,,,,64,70
5160,note_on,5,0,2,,,,,,,,0,,,,52,70
5560,note_off,400,0,2,,,,,,,,0,,,,52,64
5560,note_off,400,0,5,,,,,,,,3,,,,83,64
5560,note_off,400,0,1,,,,,,,,0,,,,64,64
5560,note_off,400,0,15,,,,,,,,14,,,,52,64
5560,note_off,400,0,11,,,,,,,,10,,,,80,64
5560,note_off,400,0,10,,,,,,,,8,,,,83,64
5560,note_off,400,0,6,,,,,,,,4,,,,80,64
5640,note_on,80,0,2,,,,,,,,0,,,,47,65
5640,note_on,80,0,10,,,,,,,,8,,,,81,61
5640,note_on,80,0,6,,,,,,,,4,,,,78,85
5640,note_on,80,0,15,,,,,,,,14,,,,47,43
5640,note_on,80,0,1,,,,,,,,0,,,,59,65
5640,note_on,80,0,5,,,,,,,,3,,,,81,85
5640,note_on,80,0,11,,,,,,,,10,,,,78,61
5720,note_off,80,0,10,,,,,,,,8,,,,81,64
5720,note_off,80,0,5,,,,,,,,3,,,,81,64
5720,note_off,80,0,11,,,,,,,,10,,,,78,64
5720,note_off,80,0,6,,,,,,,,4,,,,78,64
5875,note_off,235,0,2,,,,,,,,0,,,,47,64
5875,note_off,235,0,15,,,,,,,,14,,,,47,64
5875,note_off,235,0,1,,,,,,,,0,,,,59,64
5880,note_on,0,0,8,,,,,,,,6,,,,52,61
5880,note_off,2880,0,14,,,,,,,,13,,,,40,64
5880,note_on,0,0,13,,,,,,,,12,,,,52,55
5880,note_on,160,0,11,,,,,,,,10,,,,76,60
5880,note_on,160,0,5,,,,,,,,3,,,,80,83
5880,note_off,2880,0,9,,,,,,,,7,,,,40,64
5880,note_on,5,0,1,,,,,,,,0,,,,52,63
5880,note_off,2880,0,13,,,,,,,,12,,,,52,64
5880,note_on,0,0,12,,,,,,,,11,,,,71,55
5880,note_off,2880,0,12,,,,,,,,11,,,,71,64
5880,note_on,5,0,2,,,,,,,,0,,,,40,63
5880,note_off,2880,0,8,,,,,,,,6,,,,52,64
5880,note_on,0,0,9,,,,,,,,7,,,,40,61
5880,note_on,0,0,14,,,,,,,,13,,,,40,55
5880,note_on,160,0,10,,,,,,,,8,,,,80,60
5880,note_off,2880,0,7,,,,,,,,5,,,,71,64
5880,note_on,0,0,7,,,,,,,,5,,,,71,61
5880,note_on,5,0,15,,,,,,,,14,,,,40,42
5880,note_on,160,0,6,,,,,,,,4,,,,76,83
6240,note_off,360,0,6,,,,,,,,4,,,,76,64
6240,note_on,0,0,5,,,,,,,,3,,,,81,80
6240,note_off,360,0,5,,,,,,,,3,,,,80,64
6240,note_off,360,0,11,,,,,,,,10,,,,76,64
6240,note_on,0,0,11,,,,,,,,10,,,,78,58
6240,note_on,0,0,10,,,,,,,,8,,,,81,58
6240,note_off,360,0,10,,,,,,,,8,,,,80,64
6240,note_on,0,0,6,,,,,,,,4,,,,78,80
6355,note_off,115,0,5,,,,,,,,3,,,,81,64
6355,note_off,115,0,10,,,,,,,,8,,,,81,64
6355,note_off,115,0,11,,,,,,,,10,,,,78,64
6355,note_off,115,0,6,,,,,,,,4,,,,78,64
6360,note_on,5,0,11,,,,,,,,10,,,,80,58
6360,note_on,5,0,6,,,,,,,,4,,,,80,79
6360,note_on,5,0,10,,,,,,,,8,,,,83,58
6360,note_on,5,0,5,,,,,,,,3,,,,83,79
6440,note_off,80,0,5,,,,,,,,3,,,,83,64
6440,note_off,80,0,6,,,,,,,,4,,,,80,64
6520,note_off,640,0,15,,,,,,,,14,,,,40,64
6520,note_off,640,0,2,,,,,,,,0,,,,40,64
6520,note_off,640,0,1,,,,,,,,0,,,,52,64
6595,note_off,235,0,10,,,,,,,,8,,,,83,64
6595,note_off,235,0,11,,,,,,,,10,,,,80,64
6600,note_on,80,0,1,,,,,,,,0,,,,64,54
6600,note_on,5,0,10,,,,,,,,8,,,,83,57
6600,note_on,160,0,6,,,,,,,,4,,,,80,77
6600,note_on,80,0,2,,,,,,,,0,,,,52,54
6600,note_on,80,0,15,,,,,,,,14,,,,40,36
6600,note_on,5,0,11,,,,,,,,10,,,,80,57
6600,note_on,160,0,5,,,,,,,,3,,,,83,77
6960,note_on,0,0,10,,,,,,,,8,,,,81,54
6960,note_on,0,0,6,,,,,,,,4,,,,78,73
6960,note_on,0,0,11,,,,,,,,10,,,,78,54
6960,note_off,360,0,5,,,,,,,,3,,,,83,64
6960,note_on,0,0,5,,,,,,,,3,,,,81,73
6960,note_off,360,0,6,,,,,,,,4,,,,80,64
6960,note_off,360,0,11,,,,,,,,10,,,,80,64
6960,note_off,360,0,10,,,,,,,,8,,,,83,64
7075,note_off,115,0,5,,,,,,,,3,,,,81,64
7075,note_off,115,0,10,,,,,,,,8,,,,81,64
7075,note_off,115,0,6,,,,,,,,4,,,,78,64
7075,note_off,115,0,11,,,,,,,,10,,,,78,64
7080,note_on,5,0,11,,,,,,,,10,,,,76,53
7080,note_on,5,0,5,,,,,,,,3,,,,80,72
7080,note_on,5,0,6,,,,,,,,4,,,,76,72
7080,note_on,5,0,10,,,,,,,,8,,,,80,53
7160,note_off,80,0,6,,,,,,,,4,,,,76,64
7160,note_off,80,0,5,,,,,,,,3,,,,80,64
7240,note_off,640,0,15,,,,,,,,14,,,,40,64
7240,note_off,640,0,2,,,,,,,,0,,,,52,64
7240,note_off,640,0,1,,,,,,,,0,,,,64,64
7315,note_off,235,0,10,,,,,,,,8,,,,80,64
7315,note_off,235,0,11,,,,,,,,10,,,,76,64
7320,note_off,1440,0,14,,,,,,,,13,,,,40,64
7320,note_on,80,0,15,,,,,,,,14,,,,35,30
7320,note_on,5,0,10,,,,,,,,8,,,,80,51
7320,note_off,1440,0,7,,,,,,,,5,,,,71,64
7320,note_on,0,0,7,,,,,,,,5,,,,71,45
7320,note_on,0,0,8,,,,,,,,6,,,,47,45
7320,note_on,5,0,11,,,,,,,,10,,,,76,51
7320,note_off,1440,0,8,,,,,,,,6,,,,52,64
7320,note_on,0,0,14,,,,,,,,13,,,,35,45
7320,note_on,160,0,6,,,,,,,,4,,,,76,69
7320,note_on,0,0,9,,,,,,,,7,,,,35,45
7320,note_on,0,0,12,,,,,,,,11,,,,71,45
7320,note_on,80,0,2,,,,,,,,0,,,,47,45
7320,note_on,80,0,1,,,,,,,,0,,,,59,45
7320,note_off,1440,0,9,,,,,,,,7,,,,40,64
7320,note_off,1440,0,13,,,,,,,,12,,,,52,64
7320,note_on,160,0,5,,,,,,,,3,,,,80,69
7320,note_off,1440,0,12,,,,,,,,11,,,,71,64
7320,note_on,0,0,13,,,,,,,,12,,,,47,45
7380,note_on,0,0,5,,,,,,,,3,,,,81,69
7380,note_off,60,0,5,,,,,,,,3,,,,80,64
7380,note_off,60,0,6,,,,,,,,4,,,,76,64
7380,note_on,0,0,6,,,,,,,,4,,,,78,69
7380,note_on,0,0,10,,,,,,,,8,,,,81,51
7380,note_off,60,0,10,,,,,,,,8,,,,80,64
7380,note_on,0,0,11,,,,,,,,10,,,,78,51
7380,note_off,60,0,11,,,,,,,,10,,,,76,64
7440,note_off,60,0,10,,,,,,,,8,,,,81,64
7440,note_on,0,0,10,,,,,,,,8,,,,80,51
7440,note_on,0,0,5,,,,,,,,3,,,,80,69
7440,note_off,60,0,5,,,,,,,,3,,,,81,64
7440,note_on,0,0,6,,,,,,,,4,,,,76,69
7440,note_off,60,0,6,,,,,,,,4,,,,78,64
7440,note_on,0,0,11,,,,,,,,10,,,,76,51
7440,note_off,60,0,11,,,,,,,,10,,,,78,64
7500,note_off,60,0,6,,,,,,,,4,,,,76,64
7500,note_on,0,0,6,,,,,,,,4,,,,78,69
7500,note_on,0,0,5,,,,,,,,3,,,,81,69
7500,note_off,60,0,5,,,,,,,,3,,,,80,64
7500,note_off,60,0,11,,,,,,,,10,,,,76,64
7500,note_on,0,0,11,,,,,,,,10,,,,78,51
7500,note_off,60,0,10,,,,,,,,8,,,,80,64
7500,note_on,0,0,10,,,,,,,,8,,,,81,51
7560,note_on,0,0,10,,,,,,,,8,,,,80,51
7560,note_off,60,0,5,,,,,,,,3,,,,81,64
7560,note_on,0,0,5,,,,,,,,3,,,,80,68
7560,note_off,60,0,11,,,,,,,,10,,,,78,64
7560,note_off,60,0,6,,,,,,,,4,,,,78,64
7560,note_on,0,0,6,,,,,,,,4,,,,76,68
7560,note_off,60,0,10,,,,,,,,8,,,,81,64
7560,note_on,0,0,11,,,,,,,,10,,,,76,51
7620,note_on,0,0,10,,,,,,,,8,,,,81,51
7620,note_off,60,0,10,,,,,,,,8,,,,80,64
7620,note_on,0,0,11,,,,,,,,10,,,,78,51
7620,note_off,60,0,11,,,,,,,,10,,,,76,64
7620,note_off,60,0,5,,,,,,,,3,,,,80,64
7620,note_on,0,0,6,,,,,,,,4,,,,78,67
7620,note_off,60,0,6,,,,,,,,4,,,,76,64
7620,note_on,0,0,5,,,,,,,,3,,,,81,67
7680,note_on,0,0,6,,,,,,,,4,,,,76,66
7680,note_off,60,0,5,,,,,,,,3,,,,81,64
7680,note_on,0,0,5,,,,,,,,3,,,,80,66
7680,note_on,0,0,11,,,,,,,,10,,,,76,51
7680,note_off,60,0,10,,,,,,,,8,,,,81,64
7680,note_off,60,0,6,,,,,,,,4,,,,78,64
7680,note_off,60,0,11,,,,,,,,10,,,,78,64
7680,note_on,0,0,10,,,,,,,,8,,,,80,51
7740,note_off,60,0,6,,,,,,,,4,,,,76,64
7740,note_on,0,0,10,,,,,,,,8,,,,81,50
7740,note_on,0,0,11,,,,,,,,10,,,,78,50
7740,note_off,60,0,11,,,,,,,,10,,,,76,64
7740,note_off,60,0,10,,,,,,,,8,,,,80,64
7740,note_off,60,0,5,,,,,,,,3,,,,80,64
7740,note_on,0,0,6,,,,,,,,4,,,,78,65
7740,note_on,0,0,5,,,,,,,,3,,,,81,65
7800,note_on,0,0,6,,,,,,,,4,,,,76,64
7800,note_off,60,0,6,,,,,,,,4,,,,78,64
7800,note_off,60,0,11,,,,,,,,10,,,,78,64
7800,note_on,0,0,10,,,,,,,,8,,,,80,49
7800,note_off,60,0,10,,,,,,,,8,,,,81,64
7800,note_on,0,0,11,,,,,,,,10,,,,76,49
7800,note_on,0,0,5,,,,,,,,3,,,,80,64
7800,note_off,60,0,5,,,,,,,,3,,,,81,64
7860,note_on,0,0,10,,,,,,,,8,,,,81,48
7860,note_off,60,0,10,,,,,,,,8,,,,80,64
7860,note_off,60,0,11,,,,,,,,10,,,,76,64
7860,note_on,0,0,5,,,,,,,,3,,,,81,63
7860,note_on,0,0,11,,,,,,,,10,,,,78,48
7860,note_on,0,0,6,,,,,,,,4,,,,78,63
7860,note_off,60,0,6,,,,,,,,4,,,,76,64
7860,note_off,60,0,5,,,,,,,,3,,,,80,64
7920,note_off,60,0,5,,,,,,,,3,,,,81,64
7920,note_on,0,0,6,,,,,,,,4,,,,76,62
7920,note_off,60,0,6,,,,,,,,4,,,,78,64
7920,note_on,0,0,10,,,,,,,,8,,,,80,47
7920,note_off,60,0,10,,,,,,,,8,,,,81,64
7920,note_on,0,0,11,,,,,,,,10,,,,76,47
7920,note_off,60,0,11,,,,,,,,10,,,,78,64
7920,note_on,0,0,5,,,,,,,,3,,,,80,62
7980,note_off,60,0,10,,,,,,,,8,,,,80,64
7980,note_on,0,0,10,,,,,,,,8,,,,81,46
7980,note_off,60,0,5,,,,,,,,3,,,,80,64
7980,note_on,0,0,11,,,,,,,,10,,,,78,46
7980,note_on,0,0,5,,,,,,,,3,,,,81,61
7980,note_on,0,0,6,,,,,,,,4,,,,78,61
7980,note_off,60,0,6,,,,,,,,4,,,,76,64
7980,note_off,60,0,11,,,,,,,,10,,,,76,64
8040,note_off,60,0,11,,,,,,,,10,,,,78,64
8040,note_off,60,0,10,,,,,,,,8,,,,81,64
8040,note_off,60,0,5,,,,,,,,3,,,,81,64
8040,note_on,0,0,5,,,,,,,,3,,,,78,60
8040,note_on,0,0,6,,,,,,,,4,,,,75,60
8040,note_off,60,0,6,,,,,,,,4,,,,78,64
8040,note_on,0,0,11,,,,,,,,10,,,,75,45
8040,note_on,0,0,10,,,,,,,,8,,,,78,45
8640,note_off,1320,0,15,,,,,,,,14,,,,35,64
8640,note_off,1320,0,2,,,,,,,,0,,,,47,64
8640,note_off,1320,0,1,,,,,,,,0,,,,59,64
8680,note_off,640,0,6,,,,,,,,4,,,,75,64
8680,note_off,640,0,11,,,,,,,,10,,,,75,64
8680,note_off,640,0,5,,,,,,,,3,,,,78,64
8680,note_off,640,0,10,,,,,,,,8,,,,78,64
8760,note_off,1440,0,7,,,,,,,,5,,,,71,64
8760,note_off,1440,0,14,,,,,,,,13,,,,35,64
8760,note_off,1440,0,8,,,,,,,,6,,,,47,64
8760,note_off,1440,0,13,,,,,,,,12,,,,47,64
8760,note_off,1440,0,12,,,,,,,,11,,,,71,64
8760,note_off,1440,0,9,,,,,,,,7,,,,35,64
8820,note_on,140,0,6,,,,,,,,4,,,,76,60
8820,note_on,140,0,11,,,,,,,,10,,,,76,45
8820,note_on,140,0,5,,,,,,,,3,,,,80,60
8820,note_on,60,0,14,,,,,,,,13,,,,40,45
8820,note_on,60,0,12,,,,,,,,11,,,,71,45
8820,note_on,60,0,13,,,,,,,,12,,,,52,45
8820,note_on,60,0,9,,,,,,,,7,,,,40,45
8820,note_on,60,0,7,,,,,,,,5,,,,71,45
8820,note_on,140,0,10,,,,,,,,8,,,,80,45
8820,note_on,60,0,8,,,,,,,,6,,,,52,45
9180,note_off,360,0,6,,,,,,,,4,,,,76,64
9180,note_on,0,0,6,,,,,,,,4,,,,78,60
9180,note_on,0,0,10,,,,,,,,8,,,,81,45
9180,note_off,360,0,10,,,,,,,,8,,,,80,64
9180,note_off,360,0,11,,,,,,,,10,,,,76,64
9180,note_off,360,0,5,,,,,,,,3,,,,80,64
9180,note_on,0,0,11,,,,,,,,10,,,,78,45
9180,note_on,0,0,5,,,,,,,,3,,,,81,60
9295,note_off,115,0,5,,,,,,,,3,,,,81,64
9295,note_off,115,0,10,,,,,,,,8,,,,81,64
9295,note_off,115,0,6,,,,,,,,4,,,,78,64
9295,note_off,115,0,11,,,,,,,,10,,,,78,64
9300,note_on,5,0,6,,,,,,,,4,,,,76,60
9300,note_on,5,0,11,,,,,,,,10,,,,76,45
9300,note_on,5,0,10,,,,,,,,8,,,,80,45
9300,note_on,5,0,5,,,,,,,,3,,,,80,60
9380,note_off,80,0,5,,,,,,,,3,,,,80,64
9380,note_off,80,0,6,,,,,,,,4,,,,76,64
9535,note_off,235,0,10,,,,,,,,8,,,,80,64
9535,note_off,235,0,11,,,,,,,,10,,,,76,64
9540,note_on,5,0,11,,,,,,,,10,,,,76,45
9540,note_on,5,0,10,,,,,,,,8,,,,80,45
9540,note_on,160,0,6,,,,,,,,4,,,,76,60
9540,note_on,160,0,5,,,,,,,,3,,,,80,60
10020,note_on,0,0,10,,,,,,,,8,,,,81,45
10020,note_on,0,0,11,,,,,,,,10,,,,78,45
10020,note_on,0,0,6,,,,,,,,4,,,,78,60
10020,note_off,480,0,6,,,,,,,,4,,,,76,64
10020,note_off,480,0,11,,,,,,,,10,,,,76,64
10020,note_on,0,0,5,,,,,,,,3,,,,81,60
10020,note_off,480,0,5,,,,,,,,3,,,,80,64
10020,note_off,480,0,10,,,,,,,,8,,,,80,64
10100,note_off,80,0,5,,,,,,,,3,,,,81,64
10100,note_off,80,0,6,,,,,,,,4,,,,78,64
10255,note_off,235,0,11,,,,,,,,10,,,,78,64
10255,note_off,235,0,10,,,,,,,,8,,,,81,64
10260,note_on,5,0,11,,,,,,,,10,,,,78,45
10260,note_on,5,0,10,,,,,,,,8,,,,81,45
10260,note_on,160,0,5,,,,,,,,3,,,,81,60
10260,note_on,160,0,6,,,,,,,,4,,,,78,60
10740,note_on,2100,0,2,,,,,,,,0,,,,47,45
10740,note_on,2100,0,1,,,,,,,,0,,,,59,45
10740,note_on,2100,0,15,,,,,,,,14,,,,47,30
10975,note_off,235,0,1,,,,,,,,0,,,,59,64
10975,note_off,235,0,2,,,,,,,,0,,,,47,64
10975,note_off,235,0,15,,,,,,,,14,,,,47,64
10980,note_on,5,0,1,,,,,,,,0,,,,64,45
10980,note_on,5,0,2,,,,,,,,0,,,,52,45
10980,note_off,720,0,6,,,,,,,,4,,,,78,64
10980,note_off,720,0,11,,,,,,,,10,,,,78,64
10980,note_on,0,0,11,,,,,,,,10,,,,80,45
10980,note_on,5,0,15,,,,,,,,14,,,,52,30
10980,note_on,0,0,5,,,,,,,,3,,,,83,60
10980,note_on,0,0,6,,,,,,,,4,,,,80,60
10980,note_on,0,0,10,,,,,,,,8,,,,83,45
10980,note_off,720,0,10,,,,,,,,8,,,,81,64
10980,note_off,720,0,5,,,,,,,,3,,,,81,64
11380,note_off,400,0,5,,,,,,,,3,,,,83,64
11380,note_off,400,0,15,,,,,,,,14,,,,52,64
11380,note_off,400,0,11,,,,,,,,10,,,,80,64
11380,note_off,400,0,10,,,,,,,,8,,,,83,64
11380,note_off,400,0,1,,,,,,,,0,,,,64,64
11380,note_off,400,0,6,,,,,,,,4,,,,80,64
11380,note_off,400,0,2,,,,,,,,0,,,,52,64
11460,note_on,80,0,5,,,,,,,,3,,,,81,60
11460,note_on,80,0,2,,,,,,,,0,,,,47,45
11460,note_on,80,0,10,,,,,,,,8,,,,81,45
11460,note_on,80,0,15,,,,,,,,14,,,,47,30
11460,note_on,80,0,11,,,,,,,,10,,,,78,45
11460,note_on,80,0,1,,,,,,,,0,,,,59,45
11460,note_on,80,0,6,,,,,,,,4,,,,78,60
11540,note_off,80,0,6,,,,,,,,4,,,,78,64
11540,note_off,80,0,5,,,,,,,,3,,,,81,64
11695,note_off,235,0,2,,,,,,,,0,,,,47,64
11695,note_off,235,0,11,,,,,,,,10,,,,78,64
11695,note_off,235,0,10,,,,,,,,8,,,,81,64
11695,note_off,235,0,15,,,,,,,,14,,,,47,64
11695,note_off,235,0,1,,,,,,,,0,,,,59,64
11700,note_off,2880,0,9,,,,,,,,7,,,,40,64
11700,note_off,2880,0,12,,,,,,,,11,,,,71,64
11700,note_on,0,0,12,,,,,,,,11,,,,71,45
11700,note_on,5,0,1,,,,,,,,0,,,,52,45
11700,note_off,2880,0,7,,,,,,,,5,,,,71,64
11700,note_on,160,0,5,,,,,,,,3,,,,80,60
11700,note_on,0,0,9,,,,,,,,7,,,,40,45
11700,note_on,0,0,7,,,,,,,,5,,,,71,45
11700,note_on,5,0,10,,,,,,,,8,,,,80,45
11700,note_on,160,0,6,,,,,,,,4,,,,76,60
11700,note_off,2880,0,13,,,,,,,,12,,,,52,64
11700,note_on,0,0,8,,,,,,,,6,,,,52,45
11700,note_on,0,0,13,,,,,,,,12,,,,52,45
11700,note_on,5,0,15,,,,,,,,14,,,,40,30
11700,note_on,5,0,11,,,,,,,,10,,,,76,45
11700,note_on,0,0,14,,,,,,,,13,,,,40,45
11700,note_off,2880,0,8,,,,,,,,6,,,,52,64
11700,note_off,2880,0,14,,,,,,,,13,,,,40,64
11700,note_on,5,0,2,,,,,,,,0,,,,40,45
12060,note_off,360,0,11,,,,,,,,10,,,,76,64
12060,note_on,0,0,11,,,,,,,,10,,,,78,45
12060,note_off,360,0,6,,,,,,,,4,,,,76,64
12060,note_on,0,0,6,,,,,,,,4,,,,78,60
12060,note_off,360,0,10,,,,,,,,8,,,,80,64
12060,note_on,0,0,10,,,,,,,,8,,,,81,45
12060,note_on,0,0,5,,,,,,,,3,,,,81,60
12060,note_off,360,0,5,,,,,,,,3,,,,80,64
12175,note_off,115,0,5,,,,,,,,3,,,,81,64
12175,note_off,115,0,6,,,,,,,,4,,,,78,64
12175,note_off,115,0,10,,,,,,,,8,,,,81,64
12175,note_off,115,0,11,,,,,,,,10,,,,78,64
12180,note_on,5,0,11,,,,,,,,10,,,,76,45
12180,note_on,5,0,6,,,,,,,,4,,,,76,60
12180,note_on,5,0,10,,,,,,,,8,,,,80,45
12180,note_on,5,0,5,,,,,,,,3,,,,80,60
12260,note_off,80,0,6,,,,,,,,4,,,,76,64
12260,note_off,80,0,5,,,,,,,,3,,,,80,64
12415,note_off,235,0,10,,,,,,,,8,,,,80,64
12415,note_off,235,0,11,,,,,,,,10,,,,76,64
12420,note_on,5,0,10,,,,,,,,8,,,,80,45
12420,note_on,5,0,11,,,,,,,,10,,,,76,45
12420,note_on,160,0,6,,,,,,,,4,,,,76,60
12420,note_on,160,0,5,,,,,,,,3,,,,80,60
12900,note_off,480,0,10,,,,,,,,8,,,,80,64
12900,note_off,480,0,6,,,,,,,,4,,,,76,64
12900,note_on,0,0,6,,,,,,,,4,,,,78,60
12900,note_on,0,0,10,,,,,,,,8,,,,81,45
12900,note_on,0,0,11,,,,,,,,10,,,,78,45
12900,note_off,480,0,5,,,,,,,,3,,,,80,64
12900,note_on,0,0,5,,,,,,,,3,,,,81,60
12900,note_off,480,0,11,,,,,,,,10,,,,76,64
12980,note_off,80,0,5,,,,,,,,3,,,,81,64
12980,note_off,80,0,6,,,,,,,,4,,,,78,64
13020,note_off,1320,0,2,,,,,,,,0,,,,40,64
13020,note_off,1320,0,1,,,,,,,,0,,,,52,64
13020,note_off,1320,0,15,,,,,,,,14,,,,40,64
13135,note_off,235,0,11,,,,,,,,10,,,,78,64
13135,note_off,235,0,10,,,,,,,,8,,,,81,64
13140,note_on,5,0,10,,,,,,,,8,,,,81,45
13140,note_on,5,0,11,,,,,,,,10,,,,78,45
13140,note_on,160,0,5,,,,,,,,3,,,,81,60
13140,note_on,160,0,6,,,,,,,,4,,,,78,60
13620,note_on,600,0,2,,,,,,,,0,,,,47,45
13620,note_on,600,0,15,,,,,,,,14,,,,47,30
13620,note_on,600,0,1,,,,,,,,0,,,,59,45
13855,note_off,235,0,1,,,,,,,,0,,,,59,64
13855,note_off,235,0,2,,,,,,,,0,,,,47,64
13855,note_off,235,0,15,,,,,,,,14,,,,47,64
13860,note_on,0,0,5,,,,,,,,3,,,,83,60
13860,note_off,720,0,11,,,,,,,,10,,,,78,64
13860,note_on,5,0,15,,,,,,,,14,,,,52,30
13860,note_on,0,0,11,,,,,,,,10,,,,80,45
13860,note_off,720,0,6,,,,,,,,4,,,,78,64
13860,note_on,0,0,6,,,,,,,,4,,,,80,60
13860,note_off,720,0,5,,,,,,,,3,,,,81,64
13860,note_off,720,0,10,,,,,,,,8,,,,81,64
13860,note_on,5,0,2,,,,,,,,0,,,,52,45
13860,note_on,5,0,1,,,,,,,,0,,,,64,45
13860,note_on,0,0,10,,,,,,,,8,,,,83,45
14260,note_off,400,0,2,,,,,,,,0,,,,52,64
14260,note_off,400,0,15,,,,,,,,14,,,,52,64
14260,note_off,400,0,11,,,,,,,,10,,,,80,64
14260,note_off,400,0,6,,,,,,,,4,,,,80,64
14260,note_off,400,0,1,,,,,,,,0,,,,64,64
14260,note_off,400,0,5,,,,,,,,3,,,,83,64
14260,note_off,400,0,10,,,,,,,,8,,,,83,64
14340,note_on,80,0,5,,,,,,,,3,,,,81,60
14340,note_on,80,0,15,,,,,,,,14,,,,47,30
14340,note_on,80,0,2,,,,,,,,0,,,,47,45
14340,note_on,80,0,6,,,,,,,,4,,,,78,60
14340,note_on,80,0,11,,,,,,,,10,,,,78,45
14340,note_on,80,0,1,,,,,,,,0,,,,59,45
14340,note_on,80,0,10,,,,,,,,8,,,,81,45
14420,note_off,80,0,5,,,,,,,,3,,,,81,64
14420,note_off,80,0,6,,,,,,,,4,,,,78,64
14575,note_off,235,0,2,,,,,,,,0,,,,47,64
14575,note_off,235,0,1,,,,,,,,0,,,,59,64
14575,note_off,235,0,11,,,,,,,,10,,,,78,64
14575,note_off,235,0,15,,,,,,,,14,,,,47,64
14575,note_off,235,0,10,,,,,,,,8,,,,81,64
14580,note_on,0,0,8,,,,,,,,6,,,,52,45
14580,note_off,2880,0,8,,,,,,,,6,,,,52,64
14580,note_on,0,0,12,,,,,,,,11,,,,71,45
14580,note_on,0,0,14,,,,,,,,13,,,,40,45
14580,note_on,5,0,15,,,,,,,,14,,,,40,30
14580,note_off,2880,0,14,,,,,,,,13,,,,40,64
14580,note_on,5,0,1,,,,,,,,0,,,,52,45
14580,note_on,160,0,6,,,,,,,,4,,,,76,60
14580,note_off,2880,0,13,,,,,,,,12,,,,52,64
14580,note_off,2880,0,7,,,,,,,,5,,,,71,64
14580,note_on,5,0,11,,,,,,,,10,,,,76,45
14580,note_on,5,0,10,,,,,,,,8,,,,80,45
14580,note_on,0,0,2,,,,,,,,0,,,,40,45
14580,note_on,5,0,2,,,,,,,,0,,,,28,45
14580,note_on,0,0,13,,,,,,,,12,,,,52,45
14580,note_off,2880,0,12,,,,,,,,11,,,,71,64
14580,note_on,0,0,7,,,,,,,,5,,,,71,45
14580,note_on,160,0,5,,,,,,,,3,,,,80,60
14580,note_on,0,0,9,,,,,,,,7,,,,40,45
14580,note_off,2880,0,9,,,,,,,,7,,,,40,64
14940,note_off,360,0,10,,,,,,,,8,,,,80,64
14940,note_on,0,0,10,,,,,,,,8,,,,81,45
14940,note_off,360,0,6,,,,,,,,4,,,,76,64
14940,note_off,360,0,11,,,,,,,,10,,,,76,64
14940,note_off,360,0,5,,,,,,,,3,,,,80,64
14940,note_on,0,0,11,,,,,,,,10,,,,78,45
14940,note_on,0,0,6,,,,,,,,4,,,,78,60
14940,note_on,0,0,5,,,,,,,,3,,,,81,60
15055,note_off,115,0,6,,,,,,,,4,,,,78,64
15055,note_off,115,0,5,,,,,,,,3,,,,81,64
15055,note_off,115,0,10,,,,,,,,8,,,,81,64
15055,note_off,115,0,11,,,,,,,,10,,,,78,64
15060,note_on,5,0,5,,,,,,,,3,,,,83,60
15060,note_on,5,0,11,,,,,,,,10,,,,80,45
15060,note_on,5,0,10,,,,,,,,8,,,,83,45
15060,note_on,5,0,6,,,,,,,,4,,,,80,60
15140,note_off,80,0,5,,,,,,,,3,,,,83,64
15140,note_off,80,0,6,,,,,,,,4,,,,80,64
15220,note_off,640,0,1,,,,,,,,0,,,,52,64
15220,note_off,640,0,15,,,,,,,,14,,,,40,64
15220,note_off,0,0,2,,,,,,,,0,,,,28,64
15220,note_off,640,0,2,,,,,,,,0,,,,40,64
15295,note_off,235,0,11,,,,,,,,10,,,,80,64
15295,note_off,235,0,10,,,,,,,,8,,,,83,64
15300,note_on,160,0,5,,,,,,,,3,,,,83,60
15300,note_on,5,0,11,,,,,,,,10,,,,80,45
15300,note_on,5,0,10,,,,,,,,8,,,,83,45
15300,note_on,160,0,6,,,,,,,,4,,,,80,60
15300,note_on,80,0,2,,,,,,,,0,,,,40,45
15300,note_on,80,0,1,,,,,,,,0,,,,64,45
15300,note_on,80,0,15,,,,,,,,14,,,,40,30
15300,note_on,0,0,2,,,,,,,,0,,,,52,45
15660,note_off,360,0,6,,,,,,,,4,,,,80,64
15660,note_on,0,0,11,,,,,,,,10,,,,78,45
15660,note_on,0,0,6,,,,,,,,4,,,,78,60
15660,note_off,360,0,5,,,,,,,,3,,,,83,64
15660,note_off,360,0,10,,,,,,,,8,,,,83,64
15660,note_on,0,0,10,,,,,,,,8,,,,81,45
15660,note_on,0,0,5,,,,,,,,3,,,,81,60
15660,note_off,360,0,11,,,,,,,,10,,,,80,64
15775,note_off,115,0,10,,,,,,,,8,,,,81,64
15775,note_off,115,0,5,,,,,,,,3,,,,81,64
15775,note_off,115,0,6,,,,,,,,4,,,,78,64
15775,note_off,115,0,11,,,,,,,,10,,,,78,64
15780,note_on,5,0,11,,,,,,,,10,,,,76,45
15780,note_on,5,0,5,,,,,,,,3,,,,80,60
15780,note_on,5,0,10,,,,,,,,8,,,,80,45
15780,note_on,5,0,6,,,,,,,,4,,,,76,60
15860,note_off,80,0,6,,,,,,,,4,,,,76,64
15860,note_off,80,0,5,,,,,,,,3,,,,80,64
15900,note_off,1320,0,13,,,,,,,,12,,,,52,64
15900,note_off,1320,0,9,,,,,,,,7,,,,40,64
15900,note_off,1320,0,8,,,,,,,,6,,,,52,64
15900,note_off,1320,0,14,,,,,,,,13,,,,40,64
15940,note_off,640,0,1,,,,,,,,0,,,,64,64
15940,note_off,640,0,15,,,,,,,,14,,,,40,64
15940,note_off,0,0,2,,,,,,,,0,,,,40,64
15940,note_off,640,0,2,,,,,,,,0,,,,52,64
16015,note_off,235,0,11,,,,,,,,10,,,,76,64
16015,note_off,235,0,10,,,,,,,,8,,,,80,64
16020,note_on,160,0,5,,,,,,,,3,,,,78,60
16020,note_on,80,0,1,,,,,,,,0,,,,59,75
16020,note_on,120,0,14,,,,,,,,13,,,,35,75
16020,note_on,120,0,8,,,,,,,,6,,,,47,92
16020,note_on,5,0,11,,,,,,,,10,,,,75,45
16020,note_on,5,0,10,,,,,,,,8,,,,78,45
16020,note_on,0,0,2,,,,,,,,0,,,,47,75
16020,note_on,80,0,2,,,,,,,,0,,,,35,75
16020,note_on,120,0,9,,,,,,,,7,,,,35,92
16020,note_on,160,0,6,,,,,,,,4,,,,75,60
16020,note_on,120,0,13,,,,,,,,12,,,,47,75
16020,note_on,80,0,15,,,,,,,,14,,,,35,60
16660,note_off,640,0,5,,,,,,,,3,,,,78,64
16660,note_off,2080,0,12,,,,,,,,11,,,,71,64
16660,note_off,640,0,6,,,,,,,,4,,,,75,64
16660,note_off,640,0,11,,,,,,,,10,,,,75,64
16660,note_off,640,0,10,,,,,,,,8,,,,78,64
16660,note_off,2080,0,7,,,,,,,,5,,,,71,64
16740,note_on,80,0,5,,,,,,,,3,,,,83,108
16740,note_on,80,0,10,,,,,,,,8,,,,83,75
16740,note_on,80,0,12,,,,,,,,11,,,,66,75
16740,note_on,80,0,7,,,,,,,,5,,,,66,92
17140,note_off,400,0,5,,,,,,,,3,,,,83,64
17140,note_off,400,0,12,,,,,,,,11,,,,66,64
17140,note_off,400,0,7,,,,,,,,5,,,,66,64
17140,note_off,400,0,10,,,,,,,,8,,,,83,64
17220,note_on,80,0,7,,,,,,,,5,,,,63,92
17220,note_on,80,0,12,,,,,,,,11,,,,63,75
17220,note_on,80,0,5,,,,,,,,3,,,,78,108
17220,note_on,80,0,10,,,,,,,,8,,,,78,75
17340,note_off,1320,0,15,,,,,,,,14,,,,35,64
17340,note_off,1320,0,1,,,,,,,,0,,,,59,64
17340,note_off,1320,0,2,,,,,,,,0,,,,47,64
17340,note_off,0,0,2,,,,,,,,0,,,,35,64
17455,note_off,235,0,5,,,,,,,,3,,,,78,64
17455,note_off,235,0,7,,,,,,,,5,,,,63,64
17455,note_off,235,0,10,,,,,,,,8,,,,78,64
17455,note_off,235,0,12,,,,,,,,11,,,,63,64
17460,note_on,0,0,8,,,,,,,,6,,,,47,92
17460,note_on,120,0,2,,,,,,,,0,,,,35,75
17460,note_on,0,0,14,,,,,,,,13,,,,35,75
17460,note_off,1440,0,14,,,,,,,,13,,,,35,64
17460,note_on,5,0,12,,,,,,,,11,,,,66,75
17460,note_on,120,0,15,,,,,,,,14,,,,35,60
17460,note_on,5,0,7,,,,,,,,5,,,,66,92
17460,note_on,800,0,11,,,,,,,,10,,,,83,75
17460,note_on,0,0,2,,,,,,,,0,,,,47,75
17460,note_on,800,0,6,,,,,,,,4,,,,83,108
17460,note_off,1440,0,9,,,,,,,,7,,,,35,64
17460,note_on,0,0,9,,,,,,,,7,,,,35,92
17460,note_off,1440,0,13,,,,,,,,12,,,,47,64
17460,note_on,0,0,13,,,,,,,,12,,,,47,75
17460,note_off,1440,0,8,,,,,,,,6,,,,47,64
17460,note_on,120,0,1,,,,,,,,0,,,,59,75
17460,note_on,5,0,10,,,,,,,,8,,,,75,75
17460,note_on,5,0,5,,,,,,,,3,,,,75,108
17460,note_on,0,0,1,,,,,,,,0,,,,71,75
17815,note_off,355,0,10,,,,,,,,8,,,,75,64
17815,note_off,355,0,5,,,,,,,,3,,,,75,64
17820,note_on,5,0,5,,,,,,,,3,,,,73,108
17820,note_on,5,0,10,,,,,,,,8,,,,73,75
17860,note_off,400,0,1,,,,,,,,0,,,,71,64
17860,note_off,400,0,15,,,,,,,,14,,,,35,64
17860,note_off,0,0,1,,,,,,,,0,,,,59,64
17860,note_off,400,0,11,,,,,,,,10,,,,83,64
17860,note_off,0,0,2,,,,,,,,0,,,,35,64
17860,note_off,400,0,2,,,,,,,,0,,,,47,64
17860,note_off,400,0,6,,,,,,,,4,,,,83,64
17860,note_off,400,0,12,,,,,,,,11,,,,66,64
17860,note_off,400,0,7,,,,,,,,5,,,,66,64
17935,note_off,115,0,5,,,,,,,,3,,,,73,64
17935,note_off,115,0,10,,,,,,,,8,,,,73,64
17940,note_on,5,0,10,,,,,,,,8,,,,71,75
17940,note_on,80,0,7,,,,,,,,5,,,,63,92
17940,note_on,5,0,5,,,,,,,,3,,,,71,108
17940,note_on,80,0,12,,,,,,,,11,,,,63,75
18020,note_off,80,0,7,,,,,,,,5,,,,63,64
18020,note_off,80,0,5,,,,,,,,3,,,,71,64
18175,note_off,235,0,12,,,,,,,,11,,,,63,64
18175,note_off,235,0,10,,,,,,,,8,,,,71,64
18180,note_on,320,0,1,,,,,,,,0,,,,59,75
18180,note_on,5,0,12,,,,,,,,11,,,,68,75
18180,note_on,0,0,1,,,,,,,,0,,,,71,75
18180,note_on,5,0,10,,,,,,,,8,,,,83,75
18180,note_on,160,0,5,,,,,,,,3,,,,83,108
18180,note_on,320,0,15,,,,,,,,14,,,,35,60
18180,note_on,160,0,7,,,,,,,,5,,,,68,92
18180,note_on,320,0,11,,,,,,,,10,,,,83,75
18180,note_on,0,0,2,,,,,,,,0,,,,47,75
18180,note_on,320,0,2,,,,,,,,0,,,,35,75
18180,note_on,320,0,6,,,,,,,,4,,,,83,108
18535,note_off,355,0,10,,,,,,,,8,,,,83,64
18535,note_off,355,0,7,,,,,,,,5,,,,68,64
18535,note_off,355,0,12,,,,,,,,11,,,,68,64
18535,note_off,355,0,5,,,,,,,,3,,,,83,64
18540,note_on,5,0,10,,,,,,,,8,,,,81,75
18540,note_on,5,0,12,,,,,,,,11,,,,66,75
18540,note_on,5,0,5,,,,,,,,3,,,,81,108
18540,note_on,5,0,7,,,,,,,,5,,,,66,92
18580,note_off,400,0,2,,,,,,,,0,,,,47,64
18580,note_off,400,0,6,,,,,,,,4,,,,83,64
18580,note_off,400,0,11,,,,,,,,10,,,,83,64
18580,note_off,0,0,2,,,,,,,,0,,,,35,64
18580,note_off,400,0,15,,,,,,,,14,,,,35,64
18580,note_off,400,0,1,,,,,,,,0,,,,71,64
18580,note_off,0,0,1,,,,,,,,0,,,,59,64
18655,note_off,115,0,10,,,,,,,,8,,,,81,64
18655,note_off,115,0,7,,,,,,,,5,,,,66,64
18655,note_off,115,0,12,,,,,,,,11,,,,66,64
18655,note_off,115,0,5,,,,,,,,3,,,,81,64
18660,note_on,5,0,10,,,,,,,,8,,,,80,75
18660,note_on,5,0,12,,,,,,,,11,,,,64,75
18660,note_on,5,0,7,,,,,,,,5,,,,64,92
18660,note_on,5,0,5,,,,,,,,3,,,,80,108
18740,note_off,80,0,7,,,,,,,,5,,,,64,64
18740,note_off,80,0,5,,,,,,,,3,,,,80,64
18895,note_off,235,0,12,,,,,,,,11,,,,64,64
18895,note_off,235,0,10,,,,,,,,8,,,,80,64
18900,note_on,0,0,2,,,,,,,,0,,,,47,75
18900,note_on,160,0,7,,,,,,,,5,,,,64,92
18900,note_on,320,0,11,,,,,,,,10,,,,83,75
18900,note_on,320,0,2,,,,,,,,0,,,,35,75
18900,note_on,160,0,5,,,,,,,,3,,,,80,108
18900,note_on,320,0,1,,,,,,,,0,,,,59,75
18900,note_on,5,0,10,,,,,,,,8,,,,80,75
18900,note_on,320,0,15,,,,,,,,14,,,,35,60
18900,note_on,5,0,12,,,,,,,,11,,,,64,75
18900,note_on,320,0,6,,,,,,,,4,,,,83,108
18900,note_on,0,0,1,,,,,,,,0,,,,71,75
18960,note_on,0,0,5,,,,,,,,3,,,,81,108
18960,note_off,60,0,5,,,,,,,,3,,,,80,64
18960,note_on,0,0,10,,,,,,,,8,,,,81,75
18960,note_off,60,0,10,,,,,,,,8,,,,80,64
19020,note_off,60,0,10,,,,,,,,8,,,,81,64
19020,note_off,60,0,5,,,,,,,,3,,,,81,64
19020,note_on,0,0,10,,,,,,,,8,,,,80,75
19020,note_on,0,0,5,,,,,,,,3,,,,80,108
19080,note_off,60,0,10,,,,,,,,8,,,,80,64
19080,note_on,0,0,5,,,,,,,,3,,,,81,108
19080,note_off,60,0,5,,,,,,,,3,,,,80,64
19080,note_on,0,0,10,,,,,,,,8,,,,81,75
19140,note_on,0,0,5,,,,,,,,3,,,,80,108
19140,note_off,60,0,5,,,,,,,,3,,,,81,64
19140,note_off,60,0,10,,,,,,,,8,,,,81,64
19140,note_on,0,0,10,,,,,,,,8,,,,80,75
19200,note_on,0,0,10,,,,,,,,8,,,,81,75
19200,note_on,0,0,5,,,,,,,,3,,,,81,108
19200,note_off,60,0,5,,,,,,,,3,,,,80,64
19200,note_off,60,0,10,,,,,,,,8,,,,80,64
19260,note_on,0,0,10,,,,,,,,8,,,,80,75
19260,note_off,60,0,10,,,,,,,,8,,,,81,64
19260,note_on,0,0,5,,,,,,,,3,,,,80,108
19260,note_off,60,0,5,,,,,,,,3,,,,81,64
19300,note_off,400,0,6,,,,,,,,4,,,,83,64
19300,note_off,400,0,11,,,,,,,,10,,,,83,64
19300,note_off,0,0,1,,,,,,,,0,,,,59,64
19300,note_off,400,0,1,,,,,,,,0,,,,71,64
19300,note_off,400,0,15,,,,,,,,14,,,,35,64
19300,note_off,400,0,2,,,,,,,,0,,,,47,64
19300,note_off,0,0,2,,,,,,,,0,,,,35,64
19320,note_off,60,0,10,,,,,,,,8,,,,80,64
19320,note_on,0,0,5,,,,,,,,3,,,,81,108
19320,note_off,60,0,5,,,,,,,,3,,,,80,64
19320,note_on,0,0,10,,,,,,,,8,,,,81,75
19380,note_off,60,0,10,,,,,,,,8,,,,81,64
19380,note_on,0,0,12,,,,,,,,11,,,,63,75
19380,note_on,0,0,7,,,,,,,,5,,,,63,92
19380,note_off,480,0,7,,,,,,,,5,,,,64,64
19380,note_on,0,0,5,,,,,,,,3,,,,78,108
19380,note_off,60,0,5,,,,,,,,3,,,,81,64
19380,note_off,480,0,12,,,,,,,,11,,,,64,64
19380,note_on,0,0,10,,,,,,,,8,,,,78,75
19615,note_off,235,0,7,,,,,,,,5,,,,63,64
19615,note_off,235,0,12,,,,,,,,11,,,,63,64
19615,note_off,235,0,5,,,,,,,,3,,,,78,64
19615,note_off,235,0,10,,,,,,,,8,,,,78,64
19620,note_on,0,0,1,,,,,,,,0,,,,71,75
19620,note_on,5,0,7,,,,,,,,5,,,,66,92
19620,note_on,320,0,1,,,,,,,,0,,,,59,75
19620,note_on,0,0,2,,,,,,,,0,,,,47,75
19620,note_on,320,0,11,,,,,,,,10,,,,83,75
19620,note_on,320,0,15,,,,,,,,14,,,,35,60
19620,note_on,5,0,10,,,,,,,,8,,,,83,75
19620,note_on,5,0,5,,,,,,,,3,,,,83,108
19620,note_on,320,0,6,,,,,,,,4,,,,83,108
19620,note_on,320,0,2,,,,,,,,0,,,,35,75
19620,note_on,5,0,12,,,,,,,,11,,,,66,75
20020,note_off,400,0,15,,,,,,,,14,,,,35,64
20020,note_off,400,0,11,,,,,,,,10,,,,83,64
20020,note_off,0,0,1,,,,,,,,0,,,,59,64
20020,note_off,400,0,1,,,,,,,,0,,,,71,64
20020,note_off,400,0,10,,,,,,,,8,,,,83,64
20020,note_off,400,0,7,,,,,,,,5,,,,66,64
20020,note_off,0,0,2,,,,,,,,0,,,,35,64
20020,note_off,400,0,6,,,,,,,,4,,,,83,64
20020,note_off,400,0,12,,,,,,,,11,,,,66,64
20020,note_off,400,0,2,,,,,,,,0,,,,47,64
20020,note_off,400,0,5,,,,,,,,3,,,,83,64
20100,note_on,80,0,12,,,,,,,,11,,,,63,75
20100,note_on,80,0,7,,,,,,,,5,,,,63,92
20100,note_on,80,0,6,,,,,,,,4,,,,78,108
20100,note_on,80,0,11,,,,,,,,10,,,,78,75
20335,note_off,235,0,7,,,,,,,,5,,,,63,64
20335,note_off,235,0,6,,,,,,,,4,,,,78,64
20335,note_off,235,0,12,,,,,,,,11,,,,63,64
20335,note_off,235,0,11,,,,,,,,10,,,,78,64
20340,note_on,5,0,7,,,,,,,,5,,,,66,92
20340,note_on,0,0,9,,,,,,,,7,,,,35,92
20340,note_on,0,0,13,,,,,,,,12,,,,47,75
20340,note_on,320,0,15,,,,,,,,14,,,,35,60
20340,note_off,2880,0,13,,,,,,,,12,,,,47,64
20340,note_on,5,0,11,,,,,,,,10,,,,75,75
20340,note_off,2880,0,8,,,,,,,,6,,,,47,64
20340,note_on,0,0,1,,,,,,,,0,,,,71,75
20340,note_on,320,0,1,,,,,,,,0,,,,59,75
20340,note_on,320,0,10,,,,,,,,8,,,,83,75
20340,note_off,2880,0,9,,,,,,,,7,,,,35,64
20340,note_on,0,0,2,,,,,,,,0,,,,47,75
20340,note_on,320,0,2,,,,,,,,0,,,,35,75
20340,note_on,320,0,5,,,,,,,,3,,,,83,108
20340,note_on,5,0,12,,,,,,,,11,,,,66,75
20340,note_on,0,0,8,,,,,,,,6,,,,47,92
20340,note_on,5,0,6,,,,,,,,4,,,,75,108
20340,note_off,2880,0,14,,,,,,,,13,,,,35,64
20340,note_on,0,0,14,,,,,,,,13,,,,35,75
20695,note_off,355,0,11,,,,,,,,10,,,,75,64
20695,note_off,355,0,6,,,,,,,,4,,,,75,64
20700,note_on,5,0,11,,,,,,,,10,,,,73,73
20700,note_on,5,0,6,,,,,,,,4,,,,73,101
20740,note_off,0,0,2,,,,,,,,0,,,,35,64
20740,note_off,400,0,15,,,,,,,,14,,,,35,64
20740,note_off,0,0,1,,,,,,,,0,,,,59,64
20740,note_off,400,0,2,,,,,,,,0,,,,47,64
20740,note_off,400,0,7,,,,,,,,5,,,,66,64
20740,note_off,400,0,10,,,,,,,,8,,,,83,64
20740,note_off,400,0,12,,,,,,,,11,,,,66,64
20740,note_off,400,0,5,,,,,,,,3,,,,83,64
20740,note_off,400,0,1,,,,,,,,0,,,,71,64
20815,note_off,115,0,11,,,,,,,,10,,,,73,64
20815,note_off,115,0,6,,,,,,,,4,,,,73,64
20820,note_on,5,0,6,,,,,,,,4,,,,71,99
20820,note_on,5,0,11,,,,,,,,10,,,,71,73
20820,note_on,80,0,12,,,,,,,,11,,,,63,72
20820,note_on,80,0,7,,,,,,,,5,,,,63,82
20900,note_off,80,0,6,,,,,,,,4,,,,71,64
20900,note_off,80,0,7,,,,,,,,5,,,,63,64
21055,note_off,235,0,12,,,,,,,,11,,,,63,64
21055,note_off,235,0,11,,,,,,,,10,,,,71,64
21060,note_on,320,0,1,,,,,,,,0,,,,59,68
21060,note_on,320,0,10,,,,,,,,8,,,,83,71
21060,note_on,0,0,2,,,,,,,,0,,,,47,68
21060,note_on,320,0,2,,,,,,,,0,,,,35,68
21060,note_on,160,0,7,,,,,,,,5,,,,68,77
21060,note_on,0,0,1,,,,,,,,0,,,,71,68
21060,note_on,160,0,6,,,,,,,,4,,,,83,94
21060,note_on,320,0,15,,,,,,,,14,,,,35,56
21060,note_on,320,0,5,,,,,,,,3,,,,83,93
21060,note_on,5,0,12,,,,,,,,11,,,,68,71
21060,note_on,5,0,11,,,,,,,,10,,,,83,72
21415,note_off,355,0,7,,,,,,,,5,,,,68,64
21415,note_off,355,0,12,,,,,,,,11,,,,68,64
21415,note_off,355,0,11,,,,,,,,10,,,,83,64
21415,note_off,355,0,6,,,,,,,,4,,,,83,64
21420,note_on,5,0,12,,,,,,,,11,,,,66,69
21420,note_on,5,0,11,,,,,,,,10,,,,81,70
21420,note_on,5,0,7,,,,,,,,5,,,,66,70
21420,note_on,5,0,6,,,,,,,,4,,,,81,86
21460,note_off,400,0,15,,,,,,,,14,,,,35,64
21460,note_off,0,0,1,,,,,,,,0,,,,59,64
21460,note_off,400,0,2,,,,,,,,0,,,,47,64
21460,note_off,400,0,5,,,,,,,,3,,,,83,64
21460,note_off,0,0,2,,,,,,,,0,,,,35,64
21460,note_off,400,0,1,,,,,,,,0,,,,71,64
21460,note_off,400,0,10,,,,,,,,8,,,,83,64
21535,note_off,115,0,6,,,,,,,,4,,,,81,64
21535,note_off,115,0,7,,,,,,,,5,,,,66,64
21535,note_off,115,0,12,,,,,,,,11,,,,66,64
21535,note_off,115,0,11,,,,,,,,10,,,,81,64
21540,note_on,5,0,6,,,,,,,,4,,,,80,84
21540,note_on,5,0,11,,,,,,,,10,,,,80,69
21540,note_on,5,0,7,,,,,,,,5,,,,64,68
21540,note_on,5,0,12,,,,,,,,11,,,,64,69
21620,note_off,80,0,7,,,,,,,,5,,,,64,64
21620,note_off,80,0,6,,,,,,,,4,,,,80,64
21775,note_off,235,0,11,,,,,,,,10,,,,80,64
21775,note_off,235,0,12,,,,,,,,11,,,,64,64
21780,note_on,160,0,7,,,,,,,,5,,,,64,63
21780,note_on,320,0,2,,,,,,,,0,,,,35,60
21780,note_on,160,0,6,,,,,,,,4,,,,80,79
21780,note_on,0,0,1,,,,,,,,0,,,,71,60
21780,note_on,320,0,10,,,,,,,,8,,,,83,67
21780,note_on,5,0,12,,,,,,,,11,,,,64,67
21780,note_on,5,0,11,,,,,,,,10,,,,80,67
21780,note_on,320,0,5,,,,,,,,3,,,,83,78
21780,note_on,0,0,2,,,,,,,,0,,,,47,60
21780,note_on,320,0,1,,,,,,,,0,,,,59,60
21780,note_on,320,0,15,,,,,,,,14,,,,35,51
21840,note_on,0,0,6,,,,,,,,4,,,,81,78
21840,note_off,60,0,6,,,,,,,,4,,,,80,64
21840,note_off,60,0,11,,,,,,,,10,,,,80,64
21840,note_on,0,0,11,,,,,,,,10,,,,81,67
21900,note_off,60,0,6,,,,,,,,4,,,,81,64
21900,note_on,0,0,11,,,,,,,,10,,,,80,67
21900,note_on,0,0,6,,,,,,,,4,,,,80,77
21900,note_off,60,0,11,,,,,,,,10,,,,81,64
21960,note_off,60,0,6,,,,,,,,4,,,,80,64
21960,note_on,0,0,6,,,,,,,,4,,,,81,76
21960,note_off,60,0,11,,,,,,,,10,,,,80,64
21960,note_on,0,0,11,,,,,,,,10,,,,81,67
22020,note_off,60,0,6,,,,,,,,4,,,,81,64
22020,note_on,0,0,6,,,,,,,,4,,,,80,75
22020,note_off,60,0,11,,,,,,,,10,,,,81,64
22020,note_on,0,0,11,,,,,,,,10,,,,80,67
22080,note_on,0,0,6,,,,,,,,4,,,,81,74
22080,note_on,0,0,11,,,,,,,,10,,,,81,67
22080,note_off,60,0,6,,,,,,,,4,,,,80,64
22080,note_off,60,0,11,,,,,,,,10,,,,80,64
22140,note_off,60,0,6,,,,,,,,4,,,,81,64
22140,note_on,0,0,6,,,,,,,,4,,,,80,73
22140,note_on,0,0,11,,,,,,,,10,,,,80,67
22140,note_off,60,0,11,,,,,,,,10,,,,81,64
22180,note_off,0,0,2,,,,,,,,0,,,,35,64
22180,note_off,400,0,2,,,,,,,,0,,,,47,64
22180,note_off,400,0,10,,,,,,,,8,,,,83,64
22180,note_off,400,0,5,,,,,,,,3,,,,83,64
22180,note_off,0,0,1,,,,,,,,0,,,,59,64
22180,note_off,400,0,15,,,,,,,,14,,,,35,64
22180,note_off,400,0,1,,,,,,,,0,,,,71,64
22200,note_off,60,0,11,,,,,,,,10,,,,80,64
22200,note_on,0,0,6,,,,,,,,4,,,,81,72
22200,note_off,60,0,6,,,,,,,,4,,,,80,64
22200,note_on,0,0,11,,,,,,,,10,,,,81,66
22260,note_off,60,0,6,,,,,,,,4,,,,81,64
22260,note_off,60,0,11,,,,,,,,10,,,,81,64
22260,note_on,0,0,12,,,,,,,,11,,,,63,63
22260,note_off,480,0,7,,,,,,,,5,,,,64,64
22260,note_on,0,0,11,,,,,,,,10,,,,78,65
22260,note_on,0,0,7,,,,,,,,5,,,,63,52
22260,note_off,480,0,12,,,,,,,,11,,,,64,64
22260,note_on,0,0,6,,,,,,,,4,,,,78,70
22495,note_off,235,0,6,,,,,,,,4,,,,78,64
22495,note_off,235,0,11,,,,,,,,10,,,,78,64
22495,note_off,235,0,12,,,,,,,,11,,,,63,64
22495,note_off,235,0,7,,,,,,,,5,,,,63,64
22500,note_on,320,0,15,,,,,,,,14,,,,35,45
22560,note_on,65,0,7,,,,,,,,5,,,,71,45
22560,note_on,65,0,12,,,,,,,,11,,,,71,60
22560,note_on,65,0,11,,,,,,,,10,,,,71,60
22560,note_on,380,0,10,,,,,,,,8,,,,75,60
22560,note_on,65,0,6,,,,,,,,4,,,,71,60
22560,note_on,380,0,5,,,,,,,,3,,,,75,60
22900,note_off,400,0,15,,,,,,,,14,,,,35,64
22920,note_on,0,0,5,,,,,,,,3,,,,76,60
22920,note_on,0,0,6,,,,,,,,4,,,,73,60
22920,note_off,360,0,6,,,,,,,,4,,,,71,64
22920,note_on,0,0,10,,,,,,,,8,,,,76,60
22920,note_off,360,0,5,,,,,,,,3,,,,75,64
22920,note_off,360,0,10,,,,,,,,8,,,,75,64
22920,note_off,360,0,11,,,,,,,,10,,,,71,64
22920,note_on,0,0,11,,,,,,,,10,,,,73,60
23040,note_on,0,0,6,,,,,,,,4,,,,75,60
23040,note_off,120,0,6,,,,,,,,4,,,,73,64
23040,note_on,0,0,10,,,,,,,,8,,,,78,60
23040,note_off,120,0,10,,,,,,,,8,,,,76,64
23040,note_off,120,0,5,,,,,,,,3,,,,76,64
23040,note_on,0,0,5,,,,,,,,3,,,,78,60
23040,note_off,120,0,11,,,,,,,,10,,,,73,64
23040,note_on,0,0,11,,,,,,,,10,,,,75,60
23220,note_off,2880,0,9,,,,,,,,7,,,,35,64
23220,note_off,2880,0,14,,,,,,,,13,,,,35,64
23220,note_off,2880,0,8,,,,,,,,6,,,,47,64
23220,note_off,2880,0,13,,,,,,,,12,,,,47,64
23275,note_off,235,0,11,,,,,,,,10,,,,75,64
23275,note_off,235,0,10,,,,,,,,8,,,,78,64
23275,note_off,235,0,6,,,,,,,,4,,,,75,64
23275,note_off,235,0,5,,,,,,,,3,,,,78,64
23280,note_on,0,0,7,,,,,,,,5,,,,69,45
23280,note_off,720,0,12,,,,,,,,11,,,,71,64
23280,note_on,0,0,12,,,,,,,,11,,,,69,60
23280,note_on,5,0,6,,,,,,,,4,,,,75,60
23280,note_on,60,0,8,,,,,,,,6,,,,47,45
23280,note_on,5,0,11,,,,,,,,10,,,,75,60
23280,note_off,720,0,7,,,,,,,,5,,,,71,64
23280,note_on,5,0,10,,,,,,,,8,,,,78,60
23280,note_on,60,0,9,,,,,,,,7,,,,35,45
23280,note_on,60,0,14,,,,,,,,13,,,,35,60
23280,note_on,60,0,13,,,,,,,,12,,,,47,60
23280,note_on,5,0,5,,,,,,,,3,,,,78,60
23640,note_on,0,0,10,,,,,,,,8,,,,80,60
23640,note_on,0,0,11,,,,,,,,10,,,,76,60
23640,note_off,360,0,5,,,,,,,,3,,,,78,64
23640,note_on,0,0,6,,,,,,,,4,,,,76,60
23640,note_off,360,0,6,,,,,,,,4,,,,75,64
23640,note_off,360,0,11,,,,,,,,10,,,,75,64
23640,note_off,360,0,10,,,,,,,,8,,,,78,64
23640,note_on,0,0,5,,,,,,,,3,,,,80,60
23760,note_on,0,0,5,,,,,,,,3,,,,81,60
23760,note_on,0,0,6,,,,,,,,4,,,,78,60
23760,note_off,120,0,6,,,,,,,,4,,,,76,64
23760,note_off,120,0,5,,,,,,,,3,,,,80,64
23760,note_off,120,0,11,,,,,,,,10,,,,76,64
23760,note_on,0,0,11,,,,,,,,10,,,,78,60
23760,note_off,120,0,10,,,,,,,,8,,,,80,64
23760,note_on,0,0,10,,,,,,,,8,,,,81,60
23995,note_off,235,0,6,,,,,,,,4,,,,78,64
23995,note_off,235,0,11,,,,,,,,10,,,,78,64
23995,note_off,235,0,10,,,,,,,,8,,,,81,64
23995,note_off,235,0,5,,,,,,,,3,,,,81,64
24000,note_on,5,0,11,,,,,,,,10,,,,78,60
24000,note_on,5,0,6,,,,,,,,4,,,,78,60
24000,note_on,5,0,5,,,,,,,,3,,,,81,60
24000,note_on,5,0,10,,,,,,,,8,,,,81,60
24360,note_off,360,0,11,,,,,,,,10,,,,78,64
24360,note_on,0,0,11,,,,,,,,10,,,,76,60
24360,note_off,360,0,5,,,,,,,,3,,,,81,64
24360,note_off,360,0,10,,,,,,,,8,,,,81,64
24360,note_on,0,0,10,,,,,,,,8,,,,80,60
24360,note_off,360,0,6,,,,,,,,4,,,,78,64
24360,note_on,0,0,6,,,,,,,,4,,,,76,60
24360,note_on,0,0,5,,,,,,,,3,,,,80,60
24480,note_off,120,0,11,,,,,,,,10,,,,76,64
24480,note_on,0,0,10,,,,,,,,8,,,,78,60
24480,note_off,120,0,10,,,,,,,,8,,,,80,64
24480,note_off,120,0,6,,,,,,,,4,,,,76,64
24480,note_on,0,0,5,,,,,,,,3,,,,78,60
24480,note_off,120,0,5,,,,,,,,3,,,,80,64
24480,note_on,0,0,6,,,,,,,,4,,,,75,60
24480,note_on,0,0,11,,,,,,,,10,,,,75,60
24715,note_off,235,0,6,,,,,,,,4,,,,75,64
24715,note_off,235,0,11,,,,,,,,10,,,,75,64
24715,note_off,235,0,5,,,,,,,,3,,,,78,64
24715,note_off,235,0,10,,,,,,,,8,,,,78,64
24720,note_on,5,0,6,,,,,,,,4,,,,75,60
24720,note_on,5,0,11,,,,,,,,10,,,,75,60
24720,note_on,5,0,5,,,,,,,,3,,,,78,60
24720,note_on,5,0,10,,,,,,,,8,,,,78,60
25080,note_off,360,0,11,,,,,,,,10,,,,75,64
25080,note_on,0,0,11,,,,,,,,10,,,,73,60
25080,note_on,0,0,10,,,,,,,,8,,,,76,60
25080,note_off,360,0,6,,,,,,,,4,,,,75,64
25080,note_off,360,0,10,,,,,,,,8,,,,78,64
25080,note_off,360,0,5,,,,,,,,3,,,,78,64
25080,note_on,0,0,6,,,,,,,,4,,,,73,60
25080,note_on,0,0,5,,,,,,,,3,,,,76,60
25200,note_off,120,0,6,,,,,,,,4,,,,73,64
25200,note_on,0,0,6,,,,,,,,4,,,,71,60
25200,note_off,120,0,11,,,,,,,,10,,,,73,64
25200,note_on,0,0,11,,,,,,,,10,,,,71,60
25200,note_on,0,0,10,,,,,,,,8,,,,75,60
25200,note_off,120,0,10,,,,,,,,8,,,,76,64
25200,note_on,0,0,5,,,,,,,,3,,,,75,60
25200,note_off,120,0,5,,,,,,,,3,,,,76,64
25435,note_off,235,0,6,,,,,,,,4,,,,71,64
25435,note_off,235,0,11,,,,,,,,10,,,,71,64
25435,note_off,235,0,5,,,,,,,,3,,,,75,64
25435,note_off,235,0,10,,,,,,,,8,,,,75,64
25440,note_on,5,0,5,,,,,,,,3,,,,75,60
25440,note_on,5,0,11,,,,,,,,10,,,,71,60
25440,note_on,5,0,10,,,,,,,,8,,,,75,60
25440,note_on,5,0,6,,,,,,,,4,,,,71,60
25800,note_on,0,0,6,,,,,,,,4,,,,73,60
25800,note_off,360,0,10,,,,,,,,8,,,,75,64
25800,note_off,360,0,5,,,,,,,,3,,,,75,64
25800,note_on,0,0,10,,,,,,,,8,,,,76,60
25800,note_on,0,0,5,,,,,,,,3,,,,76,60
25800,note_on,0,0,11,,,,,,,,10,,,,73,60
25800,note_off,360,0,11,,,,,,,,10,,,,71,64
25800,note_off,360,0,6,,,,,,,,4,,,,71,64
25920,note_off,120,0,5,,,,,,,,3,,,,76,64
25920,note_on,0,0,5,,,,,,,,3,,,,78,60
25920,note_on,0,0,6,,,,,,,,4,,,,75,60
25920,note_off,120,0,11,,,,,,,,10,,,,73,64
25920,note_on,0,0,11,,,,,,,,10,,,,75,60
25920,note_off,120,0,10,,,,,,,,8,,,,76,64
25920,note_off,120,0,6,,,,,,,,4,,,,73,64
25920,note_on,0,0,10,,,,,,,,8,,,,78,60
26155,note_off,235,0,5,,,,,,,,3,,,,78,64
26155,note_off,235,0,11,,,,,,,,10,,,,75,64
26155,note_off,235,0,10,,,,,,,,8,,,,78,64
26155,note_off,235,0,6,,,,,,,,4,,,,75,64
26160,note_on,5,0,11,,,,,,,,10,,,,75,60
26160,note_off,2880,0,14,,,,,,,,13,,,,35,64
26160,note_off,2880,0,9,,,,,,,,7,,,,35,64
26160,note_on,0,0,9,,,,,,,,7,,,,35,45
26160,note_on,5,0,6,,,,,,,,4,,,,75,60
26160,note_on,5,0,10,,,,,,,,8,,,,78,60
26160,note_on,0,0,14,,,,,,,,13,,,,35,60
26160,note_off,2880,0,13,,,,,,,,12,,,,47,64
26160,note_on,5,0,5,,,,,,,,3,,,,78,60
26160,note_on,0,0,13,,,,,,,,12,,,,47,60
26160,note_on,0,0,8,,,,,,,,6,,,,47,45
26160,note_off,2880,0,8,,,,,,,,6,,,,47,64
26520,note_on,0,0,10,,,,,,,,8,,,,80,60
26520,note_on,0,0,6,,,,,,,,4,,,,76,60
26520,note_off,360,0,10,,,,,,,,8,,,,78,64
26520,note_off,360,0,11,,,,,,,,10,,,,75,64
26520,note_on,0,0,5,,,,,,,,3,,,,80,60
26520,note_on,0,0,11,,,,,,,,10,,,,76,60
26520,note_off,360,0,5,,,,,,,,3,,,,78,64
26520,note_off,360,0,6,,,,,,,,4,,,,75,64
26640,note_on,0,0,5,,,,,,,,3,,,,81,60
26640,note_off,120,0,10,,,,,,,,8,,,,80,64
26640,note_off,120,0,11,,,,,,,,10,,,,76,64
26640,note_on,0,0,6,,,,,,,,4,,,,78,60
26640,note_off,120,0,6,,,,,,,,4,,,,76,64
26640,note_on,0,0,11,,,,,,,,10,,,,78,60
26640,note_on,0,0,10,,,,,,,,8,,,,81,60
26640,note_off,120,0,5,,,,,,,,3,,,,80,64
26800,note_off,3520,0,7,,,,,,,,5,,,,69,64
26800,note_off,3520,0,12,,,,,,,,11,,,,69,64
26875,note_off,235,0,6,,,,,,,,4,,,,78,64
26875,note_off,235,0,5,,,,,,,,3,,,,81,64
26875,note_off,235,0,11,,,,,,,,10,,,,78,64
26875,note_off,235,0,10,,,,,,,,8,,,,81,64
26880,note_on,5,0,6,,,,,,,,4,,,,78,60
26880,note_on,5,0,10,,,,,,,,8,,,,81,60
26880,note_on,5,0,11,,,,,,,,10,,,,78,60
26880,note_on,80,0,7,,,,,,,,5,,,,63,45
26880,note_on,5,0,5,,,,,,,,3,,,,81,60
26880,note_on,80,0,12,,,,,,,,11,,,,63,60
27240,note_on,0,0,10,,,,,,,,8,,,,80,60
27240,note_off,360,0,11,,,,,,,,10,,,,78,64
27240,note_on,0,0,11,,,,,,,,10,,,,76,60
27240,note_off,360,0,5,,,,,,,,3,,,,81,64
27240,note_off,360,0,6,,,,,,,,4,,,,78,64
27240,note_on,0,0,5,,,,,,,,3,,,,80,60
27240,note_on,0,0,6,,,,,,,,4,,,,76,60
27240,note_off,360,0,10,,,,,,,,8,,,,81,64
27360,note_on,0,0,11,,,,,,,,10,,,,75,60
27360,note_off,120,0,5,,,,,,,,3,,,,80,64
27360,note_on,0,0,5,,,,,,,,3,,,,78,60
27360,note_off,120,0,6,,,,,,,,4,,,,76,64
27360,note_on,0,0,6,,,,,,,,4,,,,75,60
27360,note_off,120,0,11,,,,,,,,10,,,,76,64
27360,note_off,120,0,10,,,,,,,,8,,,,80,64
27360,note_on,0,0,10,,,,,,,,8,,,,78,60
27480,note_off,1320,0,13,,,,,,,,12,,,,47,64
27480,note_off,1320,0,9,,,,,,,,7,,,,35,64
27480,note_off,1320,0,14,,,,,,,,13,,,,35,64
27480,note_off,1320,0,8,,,,,,,,6,,,,47,64
27595,note_off,235,0,6,,,,,,,,4,,,,75,64
27595,note_off,235,0,10,,,,,,,,8,,,,78,64
27595,note_off,235,0,5,,,,,,,,3,,,,78,64
27595,note_off,235,0,11,,,,,,,,10,,,,75,64
27600,note_on,0,0,7,,,,,,,,5,,,,59,45
27600,note_off,720,0,7,,,,,,,,5,,,,63,64
27600,note_on,5,0,6,,,,,,,,4,,,,76,60
27600,note_on,0,0,12,,,,,,,,11,,,,59,60
27600,note_off,720,0,12,,,,,,,,11,,,,63,64
27600,note_on,5,0,5,,,,,,,,3,,,,80,60
27600,note_on,5,0,10,,,,,,,,8,,,,80,60
27600,note_on,5,0,11,,,,,,,,10,,,,76,60
27660,note_on,180,0,14,,,,,,,,13,,,,40,60
27660,note_on,180,0,9,,,,,,,,7,,,,40,45
27660,note_on,180,0,13,,,,,,,,12,,,,52,60
27660,note_on,4760,0,15,,,,,,,,14,,,,40,45
27660,note_on,180,0,8,,,,,,,,6,,,,52,45
27955,note_off,355,0,11,,,,,,,,10,,,,76,64
27955,note_off,355,0,5,,,,,,,,3,,,,80,64
27955,note_off,355,0,6,,,,,,,,4,,,,76,64
27955,note_off,355,0,10,,,,,,,,8,,,,80,64
27960,note_on,5,0,11,,,,,,,,10,,,,78,60
27960,note_on,5,0,5,,,,,,,,3,,,,81,60
27960,note_on,5,0,6,,,,,,,,4,,,,78,60
27960,note_on,5,0,10,,,,,,,,8,,,,81,60
28075,note_off,115,0,11,,,,,,,,10,,,,78,64
28075,note_off,115,0,6,,,,,,,,4,,,,78,64
28075,note_off,115,0,5,,,,,,,,3,,,,81,64
28075,note_off,115,0,10,,,,,,,,8,,,,81,64
28080,note_on,5,0,6,,,,,,,,4,,,,76,60
28080,note_on,5,0,5,,,,,,,,3,,,,80,60
28080,note_on,5,0,11,,,,,,,,10,,,,76,60
28080,note_on,5,0,10,,,,,,,,8,,,,80,60
28240,note_off,640,0,7,,,,,,,,5,,,,59,64
28240,note_off,640,0,12,,,,,,,,11,,,,59,64
28315,note_off,235,0,6,,,,,,,,4,,,,76,64
28315,note_off,235,0,11,,,,,,,,10,,,,76,64
28315,note_off,235,0,5,,,,,,,,3,,,,80,64
28315,note_off,235,0,10,,,,,,,,8,,,,80,64
28380,note_on,65,0,10,,,,,,,,8,,,,85,60
28380,note_on,65,0,6,,,,,,,,4,,,,81,60
28380,note_on,140,0,7,,,,,,,,5,,,,64,45
28380,note_on,140,0,12,,,,,,,,11,,,,64,60
28380,note_on,65,0,11,,,,,,,,10,,,,81,60
28380,note_on,65,0,5,,,,,,,,3,,,,85,60
28980,note_off,1320,0,15,,,,,,,,14,,,,40,64
29100,note_on,0,0,9,,,,,,,,7,,,,40,45
29100,note_on,120,0,15,,,,,,,,14,,,,40,45
29100,note_on,0,0,13,,,,,,,,12,,,,52,60
29100,note_off,1440,0,13,,,,,,,,12,,,,52,64
29100,note_off,720,0,11,,,,,,,,10,,,,81,64
29100,note_on,0,0,6,,,,,,,,4,,,,80,60
29100,note_off,720,0,6,,,,,,,,4,,,,81,64
29100,note_on,0,0,11,,,,,,,,10,,,,80,60
29100,note_off,1440,0,8,,,,,,,,6,,,,52,64
29100,note_off,720,0,10,,,,,,,,8,,,,85,64
29100,note_on,0,0,10,,,,,,,,8,,,,83,60
29100,note_off,1440,0,9,,,,,,,,7,,,,40,64
29100,note_on,0,0,14,,,,,,,,13,,,,40,60
29100,note_on,0,0,8,,,,,,,,6,,,,52,45
29100,note_off,1440,0,14,,,,,,,,13,,,,40,64
29100,note_off,720,0,5,,,,,,,,3,,,,85,64
29100,note_on,0,0,5,,,,,,,,3,,,,83,60
29820,note_off,720,0,6,,,,,,,,4,,,,80,64
29820,note_on,0,0,5,,,,,,,,3,,,,81,60
29820,note_off,720,0,5,,,,,,,,3,,,,83,64
29820,note_on,0,0,6,,,,,,,,4,,,,78,60
29820,note_on,0,0,11,,,,,,,,10,,,,78,60
29820,note_off,720,0,11,,,,,,,,10,,,,80,64
29820,note_on,0,0,10,,,,,,,,8,,,,81,60
29820,note_off,720,0,10,,,,,,,,8,,,,83,64
30420,note_off,2040,0,7,,,,,,,,5,,,,64,64
30420,note_off,2040,0,12,,,,,,,,11,,,,64,64
30420,note_off,1320,0,15,,,,,,,,14,,,,40,64
30540,note_off,1440,0,14,,,,,,,,13,,,,40,64
30540,note_on,0,0,13,,,,,,,,12,,,,52,45
30540,note_on,0,0,14,,,,,,,,13,,,,40,45
30540,note_on,120,0,7,,,,,,,,5,,,,71,45
30540,note_on,0,0,5,,,,,,,,3,,,,80,60
30540,note_on,0,0,10,,,,,,,,8,,,,80,60
30540,note_off,720,0,10,,,,,,,,8,,,,81,64
30540,note_off,1440,0,8,,,,,,,,6,,,,52,64
30540,note_on,0,0,8,,,,,,,,6,,,,52,45
30540,note_off,720,0,6,,,,,,,,4,,,,78,64
30540,note_off,1440,0,13,,,,,,,,12,,,,52,64
30540,note_off,720,0,5,,,,,,,,3,,,,81,64
30540,note_off,720,0,11,,,,,,,,10,,,,78,64
30540,note_on,0,0,11,,,,,,,,10,,,,76,60
30540,note_on,0,0,6,,,,,,,,4,,,,76,60
30540,note_on,120,0,12,,,,,,,,11,,,,71,60
30540,note_off,1440,0,9,,,,,,,,7,,,,40,64
30540,note_on,0,0,9,,,,,,,,7,,,,40,45
30895,note_off,355,0,10,,,,,,,,8,,,,80,64
30895,note_off,355,0,5,,,,,,,,3,,,,80,64
30895,note_off,355,0,11,,,,,,,,10,,,,76,64
30895,note_off,355,0,6,,,,,,,,4,,,,76,64
30900,note_on,5,0,5,,,,,,,,3,,,,81,60
30900,note_on,5,0,11,,,,,,,,10,,,,78,59
30900,note_on,5,0,6,,,,,,,,4,,,,78,60
30900,note_on,5,0,10,,,,,,,,8,,,,81,59
31015,note_off,115,0,5,,,,,,,,3,,,,81,64
31015,note_off,115,0,6,,,,,,,,4,,,,78,64
31015,note_off,115,0,11,,,,,,,,10,,,,78,64
31015,note_off,115,0,10,,,,,,,,8,,,,81,64
31020,note_on,5,0,5,,,,,,,,3,,,,80,60
31020,note_on,5,0,6,,,,,,,,4,,,,76,60
31020,note_on,5,0,10,,,,,,,,8,,,,80,59
31020,note_on,5,0,11,,,,,,,,10,,,,76,59
31255,note_off,235,0,6,,,,,,,,4,,,,76,64
31255,note_off,235,0,11,,,,,,,,10,,,,76,64
31255,note_off,235,0,5,,,,,,,,3,,,,80,64
31255,note_off,235,0,10,,,,,,,,8,,,,80,64
31260,note_off,720,0,12,,,,,,,,11,,,,71,64
31260,note_on,5,0,5,,,,,,,,3,,,,85,60
31260,note_on,5,0,6,,,,,,,,4,,,,81,60
31260,note_on,5,0,10,,,,,,,,8,,,,85,58
31260,note_off,720,0,7,,,,,,,,5,,,,71,64
31260,note_on,0,0,7,,,,,,,,5,,,,64,45
31260,note_on,0,0,12,,,,,,,,11,,,,64,57
31260,note_on,5,0,11,,,,,,,,10,,,,81,58
31980,note_off,720,0,10,,,,,,,,8,,,,85,64
31980,note_on,0,0,10,,,,,,,,8,,,,83,54
31980,note_off,1440,0,14,,,,,,,,13,,,,40,64
31980,note_on,0,0,11,,,,,,,,10,,,,80,54
31980,note_off,1440,0,13,,,,,,,,12,,,,52,64
31980,note_on,1560,0,15,,,,,,,,14,,,,40,30
31980,note_on,0,0,14,,,,,,,,13,,,,40,30
31980,note_off,1440,0,9,,,,,,,,7,,,,40,64
31980,note_off,720,0,5,,,,,,,,3,,,,85,64
31980,note_off,720,0,6,,,,,,,,4,,,,81,64
31980,note_on,0,0,6,,,,,,,,4,,,,80,60
31980,note_on,0,0,9,,,,,,,,7,,,,40,30
31980,note_off,1440,0,8,,,,,,,,6,,,,52,64
31980,note_on,0,0,8,,,,,,,,6,,,,52,30
31980,note_on,0,0,13,,,,,,,,12,,,,52,30
31980,note_on,0,0,5,,,,,,,,3,,,,83,60
31980,note_off,720,0,11,,,,,,,,10,,,,81,64
32700,note_off,720,0,11,,,,,,,,10,,,,80,64
32700,note_on,0,0,6,,,,,,,,4,,,,78,60
32700,note_on,0,0,10,,,,,,,,8,,,,81,50
32700,note_off,720,0,10,,,,,,,,8,,,,83,64
32700,note_off,720,0,6,,,,,,,,4,,,,80,64
32700,note_off,720,0,5,,,,,,,,3,,,,83,64
32700,note_on,0,0,11,,,,,,,,10,,,,78,50
32700,note_on,0,0,5,,,,,,,,3,,,,81,60
33300,note_off,1320,0,15,,,,,,,,14,,,,40,64
33420,note_off,720,0,11,,,,,,,,10,,,,78,64
33420,note_off,2160,0,7,,,,,,,,5,,,,64,64
33420,note_on,0,0,7,,,,,,,,5,,,,59,45
33420,note_on,0,0,10,,,,,,,,8,,,,80,45
33420,note_on,0,0,5,,,,,,,,3,,,,80,60
33420,note_off,720,0,5,,,,,,,,3,,,,81,64
33420,note_off,720,0,10,,,,,,,,8,,,,81,64
33420,note_on,0,0,11,,,,,,,,10,,,,76,45
33420,note_on,33420,0,3,,,,,,,,1,,,,80,75
33420,note_on,33420,0,4,,,,,,,,2,,,,80,45
33420,note_off,720,0,6,,,,,,,,4,,,,78,64
33420,note_on,0,0,6,,,,,,,,4,,,,76,60
33420,note_off,2160,0,12,,,,,,,,11,,,,64,64
33420,note_on,0,0,12,,,,,,,,11,,,,59,45
33655,note_off,235,0,6,,,,,,,,4,,,,76,64
33655,note_off,235,0,5,,,,,,,,3,,,,80,64
33655,note_off,235,0,10,,,,,,,,8,,,,80,64
33655,note_off,235,0,11,,,,,,,,10,,,,76,64
33655,note_off,235,0,4,,,,,,,,2,,,,80,64
33655,note_off,235,0,3,,,,,,,,1,,,,80,64
33660,note_on,5,0,4,,,,,,,,2,,,,76,45
33660,note_on,5,0,3,,,,,,,,1,,,,76,75
33895,note_off,235,0,3,,,,,,,,1,,,,76,64
33895,note_off,235,0,4,,,,,,,,2,,,,76,64
33900,note_on,5,0,4,,,,,,,,2,,,,78,45
33900,note_on,5,0,3,,,,,,,,1,,,,78,75
34060,note_off,640,0,12,,,,,,,,11,,,,59,64
34060,note_off,640,0,7,,,,,,,,5,,,,59,64
34135,note_off,235,0,4,,,,,,,,2,,,,78,64
34135,note_off,235,0,3,,,,,,,,1,,,,78,64
34140,note_on,5,0,4,,,,,,,,2,,,,80,45
34140,note_on,5,0,3,,,,,,,,1,,,,80,75
34375,note_off,235,0,4,,,,,,,,2,,,,80,64
34375,note_off,235,0,3,,,,,,,,1,,,,80,64
34380,note_on,5,0,3,,,,,,,,1,,,,78,75
34380,note_on,5,0,4,,,,,,,,2,,,,78,45
34615,note_off,235,0,3,,,,,,,,1,,,,78,64
34615,note_off,235,0,4,,,,,,,,2,,,,78,64
34620,note_on,5,0,3,,,,,,,,1,,,,76,75
34620,note_on,5,0,4,,,,,,,,2,,,,76,45
34855,note_off,235,0,3,,,,,,,,1,,,,76,64
34855,note_off,235,0,4,,,,,,,,2,,,,76,64
34860,note_off,2880,0,8,,,,,,,,6,,,,52,64
34860,note_off,2880,0,9,,,,,,,,7,,,,40,64
34860,note_on,5,0,3,,,,,,,,1,,,,83,75
34860,note_on,5,0,4,,,,,,,,2,,,,83,45
34860,note_on,0,0,9,,,,,,,,7,,,,40,30
34860,note_off,2880,0,13,,,,,,,,12,,,,52,64
34860,note_on,0,0,13,,,,,,,,12,,,,52,30
34860,note_on,0,0,8,,,,,,,,6,,,,52,30
34860,note_off,2880,0,14,,,,,,,,13,,,,40,64
34860,note_on,0,0,14,,,,,,,,13,,,,40,30
35095,note_off,235,0,3,,,,,,,,1,,,,83,64
35095,note_off,235,0,4,,,,,,,,2,,,,83,64
35100,note_on,5,0,3,,,,,,,,1,,,,85,75
35100,note_on,5,0,4,,,,,,,,2,,,,85,45
35335,note_off,235,0,3,,,,,,,,1,,,,85,64
35335,note_off,235,0,4,,,,,,,,2,,,,85,64
35340,note_on,5,0,3,,,,,,,,1,,,,83,75
35340,note_on,5,0,4,,,,,,,,2,,,,83,45
35575,note_off,235,0,3,,,,,,,,1,,,,83,64
35575,note_off,235,0,4,,,,,,,,2,,,,83,64
35580,note_on,5,0,4,,,,,,,,2,,,,88,45
35580,note_on,5,0,3,,,,,,,,1,,,,88,75
35815,note_off,235,0,3,,,,,,,,1,,,,88,64
35815,note_off,235,0,4,,,,,,,,2,,,,88,64
35820,note_on,5,0,3,,,,,,,,1,,,,87,75
35820,note_on,5,0,4,,,,,,,,2,,,,87,45
36055,note_off,235,0,4,,,,,,,,2,,,,87,64
36055,note_off,235,0,3,,,,,,,,1,,,,87,64
36060,note_on,5,0,4,,,,,,,,2,,,,85,45
36060,note_on,5,0,3,,,,,,,,1,,,,85,75
36295,note_off,235,0,4,,,,,,,,2,,,,85,64
36295,note_off,235,0,3,,,,,,,,1,,,,85,64
36300,note_on,5,0,4,,,,,,,,2,,,,83,45
36300,note_on,5,0,3,,,,,,,,1,,,,83,75
36535,note_off,235,0,4,,,,,,,,2,,,,83,64
36535,note_off,235,0,3,,,,,,,,1,,,,83,64
36540,note_on,5,0,4,,,,,,,,2,,,,80,43
36540,note_on,5,0,3,,,,,,,,1,,,,80,71
36775,note_off,235,0,4,,,,,,,,2,,,,80,64
36775,note_off,235,0,3,,,,,,,,1,,,,80,64
36780,note_on,5,0,3,,,,,,,,1,,,,78,67
36780,note_on,5,0,4,,,,,,,,2,,,,78,41
37015,note_off,235,0,3,,,,,,,,1,,,,78,64
37015,note_off,235,0,4,,,,,,,,2,,,,78,64
37020,note_on,5,0,4,,,,,,,,2,,,,76,39
37020,note_on,5,0,3,,,,,,,,1,,,,76,62
37660,note_off,640,0,4,,,,,,,,2,,,,76,64
37660,note_off,640,0,3,,,,,,,,1,,,,76,64
37740,note_on,0,0,13,,,,,,,,12,,,,52,30
37740,note_off,2880,0,13,,,,,,,,12,,,,52,64
37740,note_off,2880,0,9,,,,,,,,7,,,,40,64
37740,note_on,0,0,8,,,,,,,,6,,,,52,30
37740,note_off,2880,0,8,,,,,,,,6,,,,52,64
37740,note_on,0,0,9,,,,,,,,7,,,,40,30
37740,note_on,0,0,14,,,,,,,,13,,,,40,30
37740,note_off,2880,0,14,,,,,,,,13,,,,40,64
37800,note_on,140,0,3,,,,,,,,1,,,,83,45
37800,note_on,140,0,4,,,,,,,,2,,,,83,30
37800,set_tempo,37680,1,0,526315,,,,,,,,,,,,
38035,note_off,235,0,4,,,,,,,,2,,,,83,64
38035,note_off,235,0,3,,,,,,,,1,,,,83,64
38040,note_on,5,0,3,,,,,,,,1,,,,85,45
38040,note_on,5,0,4,,,,,,,,2,,,,85,30
38275,note_off,235,0,3,,,,,,,,1,,,,85,64
38275,note_off,235,0,4,,,,,,,,2,,,,85,64
38280,note_on,5,0,3,,,,,,,,1,,,,83,45
38280,note_on,5,0,4,,,,,,,,2,,,,83,30
38515,note_off,235,0,4,,,,,,,,2,,,,83,64
38515,note_off,235,0,3,,,,,,,,1,,,,83,64
38520,note_on,5,0,3,,,,,,,,1,,,,88,45
38520,note_on,5,0,4,,,,,,,,2,,,,88,30
38755,note_off,235,0,3,,,,,,,,1,,,,88,64
38755,note_off,235,0,4,,,,,,,,2,,,,88,64
38760,note_on,5,0,3,,,,,,,,1,,,,87,45
38760,note_on,5,0,4,,,,,,,,2,,,,87,30
38995,note_off,235,0,4,,,,,,,,2,,,,87,64
38995,note_off,235,0,3,,,,,,,,1,,,,87,64
39000,note_on,5,0,4,,,,,,,,2,,,,85,30
39000,note_on,5,0,3,,,,,,,,1,,,,85,45
39235,note_off,235,0,3,,,,,,,,1,,,,85,64
39235,note_off,235,0,4,,,,,,,,2,,,,85,64
39240,note_on,5,0,4,,,,,,,,2,,,,83,30
39240,note_on,5,0,3,,,,,,,,1,,,,83,45
39475,note_off,235,0,4,,,,,,,,2,,,,83,64
39475,note_off,235,0,3,,,,,,,,1,,,,83,64
39480,note_on,5,0,3,,,,,,,,1,,,,80,45
39480,note_on,5,0,4,,,,,,,,2,,,,80,30
39715,note_off,235,0,3,,,,,,,,1,,,,80,64
39715,note_off,235,0,4,,,,,,,,2,,,,80,64
39720,note_on,5,0,4,,,,,,,,2,,,,78,30
39720,note_on,5,0,3,,,,,,,,1,,,,78,45
39955,note_off,235,0,4,,,,,,,,2,,,,78,64
39955,note_off,235,0,3,,,,,,,,1,,,,78,64
39960,note_on,5,0,3,,,,,,,,1,,,,76,45
39960,note_on,5,0,4,,,,,,,,2,,,,76,30
40560,note_off,2820,0,9,,,,,,,,7,,,,40,64
40560,note_off,2820,0,13,,,,,,,,12,,,,52,64
40560,note_off,2820,0,8,,,,,,,,6,,,,52,64
40560,note_off,2820,0,14,,,,,,,,13,,,,40,64
40600,note_off,640,0,3,,,,,,,,1,,,,76,64
40600,note_off,640,0,4,,,,,,,,2,,,,76,64
40740,note_on,18560,0,2,,,,,,,,0,,,,56,45
40740,note_on,0,0,2,,,,,,,,0,,,,59,45
40740,note_on,0,0,2,,,,,,,,0,,,,63,45
40740,note_on,180,0,8,,,,,,,,6,,,,56,60
40740,note_on,140,0,3,,,,,,,,1,,,,83,75
40740,note_on,140,0,4,,,,,,,,2,,,,83,60
40740,set_tempo,2940,1,0,491803,,,,,,,,,,,,
40740,note_on,7440,0,15,,,,,,,,14,,,,44,45
40740,note_on,180,0,13,,,,,,,,12,,,,56,60
40740,note_on,180,0,14,,,,,,,,13,,,,44,60
40740,note_on,180,0,9,,,,,,,,7,,,,44,60
40860,note_off,120,0,4,,,,,,,,2,,,,83,64
40860,note_on,0,0,4,,,,,,,,2,,,,81,60
40860,note_off,120,0,3,,,,,,,,1,,,,83,64
40860,note_on,0,0,3,,,,,,,,1,,,,81,75
40980,note_off,120,0,3,,,,,,,,1,,,,81,64
40980,note_on,0,0,3,,,,,,,,1,,,,80,75
40980,note_on,0,0,4,,,,,,,,2,,,,80,60
40980,note_off,120,0,4,,,,,,,,2,,,,81,64
41100,note_on,0,0,4,,,,,,,,2,,,,78,60
41100,note_off,120,0,4,,,,,,,,2,,,,80,64
41100,note_on,0,0,3,,,,,,,,1,,,,78,75
41100,note_off,120,0,3,,,,,,,,1,,,,80,64
41220,note_on,0,0,4,,,,,,,,2,,,,76,60
41220,note_off,120,0,4,,,,,,,,2,,,,78,64
41220,note_on,0,0,3,,,,,,,,1,,,,76,75
41220,note_off,120,0,3,,,,,,,,1,,,,78,64
41300,note_off,80,0,4,,,,,,,,2,,,,76,64
41300,note_off,80,0,3,,,,,,,,1,,,,76,64
41380,note_off,640,0,9,,,,,,,,7,,,,44,64
41380,note_off,640,0,14,,,,,,,,13,,,,44,64
41380,note_off,0,0,2,,,,,,,,0,,,,56,64
41380,note_off,0,0,2,,,,,,,,0,,,,59,64
41380,note_off,640,0,8,,,,,,,,6,,,,56,64
41380,note_off,640,0,2,,,,,,,,0,,,,63,64
41380,note_off,640,0,13,,,,,,,,12,,,,56,64
41380,note_off,640,0,15,,,,,,,,14,,,,44,64
41460,note_on,80,0,15,,,,,,,,14,,,,40,45
41460,note_on,80,0,9,,,,,,,,7,,,,40,60
41460,note_on,80,0,13,,,,,,,,12,,,,52,60
41460,note_on,160,0,4,,,,,,,,2,,,,86,60
41460,note_on,160,0,3,,,,,,,,1,,,,86,75
41460,note_on,19280,0,1,,,,,,,,0,,,,64,60
41460,note_on,0,0,2,,,,,,,,0,,,,56,45
41460,note_on,80,0,8,,,,,,,,6,,,,52,60
41460,note_on,0,0,2,,,,,,,,0,,,,59,45
41460,note_on,80,0,2,,,,,,,,0,,,,52,45
41460,note_on,80,0,14,,,,,,,,13,,,,40,60
41580,note_off,120,0,1,,,,,,,,0,,,,64,64
41580,note_on,0,0,1,,,,,,,,0,,,,66,60
41695,note_off,235,0,4,,,,,,,,2,,,,86,64
41695,note_off,235,0,3,,,,,,,,1,,,,86,64
41700,note_on,5,0,4,,,,,,,,2,,,,85,60
41700,note_off,120,0,1,,,,,,,,0,,,,66,64
41700,note_on,0,0,1,,,,,,,,0,,,,68,60
41700,note_on,5,0,3,,,,,,,,1,,,,85,75
41820,note_on,0,0,1,,,,,,,,0,,,,69,60
41820,note_off,120,0,1,,,,,,,,0,,,,68,64
41935,note_off,235,0,3,,,,,,,,1,,,,85,64
41935,note_off,235,0,4,,,,,,,,2,,,,85,64
41940,note_off,120,0,1,,,,,,,,0,,,,69,64
41940,note_on,0,0,1,,,,,,,,0,,,,71,60
41940,note_on,5,0,4,,,,,,,,2,,,,83,60
41940,note_on,5,0,3,,,,,,,,1,,,,83,75
42100,note_off,640,0,2,,,,,,,,0,,,,59,64
42100,note_off,640,0,8,,,,,,,,6,,,,52,64
42100,note_off,0,0,2,,,,,,,,0,,,,56,64
42100,note_off,0,0,2,,,,,,,,0,,,,52,64
42100,note_off,640,0,13,,,,,,,,12,,,,52,64
42100,note_off,640,0,14,,,,,,,,13,,,,40,64
42100,note_off,640,0,9,,,,,,,,7,,,,40,64
42100,note_off,640,0,15,,,,,,,,14,,,,40,64
42175,note_off,235,0,3,,,,,,,,1,,,,83,64
42175,note_off,235,0,4,,,,,,,,2,,,,83,64
42175,note_off,235,0,1,,,,,,,,0,,,,71,64
42180,note_on,5,0,3,,,,,,,,1,,,,85,75
42180,note_on,80,0,9,,,,,,,,7,,,,45,60
42180,note_on,0,0,2,,,,,,,,0,,,,64,45
42180,note_on,80,0,13,,,,,,,,12,,,,57,60
42180,note_on,0,0,2,,,,,,,,0,,,,61,45
42180,note_on,80,0,15,,,,,,,,14,,,,45,45
42180,note_on,80,0,2,,,,,,,,0,,,,57,45
42180,note_on,80,0,8,,,,,,,,6,,,,57,60
42180,note_on,80,0,14,,,,,,,,13,,,,45,60
42180,note_on,5,0,4,,,,,,,,2,,,,85,60
42415,note_off,235,0,3,,,,,,,,1,,,,85,64
42415,note_off,235,0,4,,,,,,,,2,,,,85,64
42420,note_on,5,0,4,,,,,,,,2,,,,88,60
42420,note_on,5,0,3,,,,,,,,1,,,,88,75
42655,note_off,235,0,3,,,,,,,,1,,,,88,64
42655,note_off,235,0,4,,,,,,,,2,,,,88,64
42660,note_on,5,0,4,,,,,,,,2,,,,86,60
42660,note_on,5,0,3,,,,,,,,1,,,,86,75
42820,note_off,640,0,15,,,,,,,,14,,,,45,64
42820,note_off,0,0,2,,,,,,,,0,,,,57,64
42820,note_off,0,0,2,,,,,,,,0,,,,61,64
42820,note_off,640,0,14,,,,,,,,13,,,,45,64
42820,note_off,640,0,2,,,,,,,,0,,,,64,64
42820,note_off,640,0,8,,,,,,,,6,,,,57,64
42820,note_off,640,0,13,,,,,,,,12,,,,57,64
42820,note_off,640,0,9,,,,,,,,7,,,,45,64
42895,note_off,235,0,3,,,,,,,,1,,,,86,64
42895,note_off,235,0,4,,,,,,,,2,,,,86,64
42900,note_on,5,0,3,,,,,,,,1,,,,85,75
42900,note_on,5,0,4,,,,,,,,2,,,,85,60
43135,note_off,235,0,3,,,,,,,,1,,,,85,64
43135,note_off,235,0,4,,,,,,,,2,,,,85,64
43140,note_on,5,0,3,,,,,,,,1,,,,83,75
43140,note_on,5,0,4,,,,,,,,2,,,,83,60
43375,note_off,235,0,4,,,,,,,,2,,,,83,64
43375,note_off,235,0,3,,,,,,,,1,,,,83,64
43380,note_on,5,0,4,,,,,,,,2,,,,81,60
43380,note_on,5,0,3,,,,,,,,1,,,,81,75
43615,note_off,235,0,4,,,,,,,,2,,,,81,64
43615,note_off,235,0,3,,,,,,,,1,,,,81,64
43620,note_on,0,0,2,,,,,,,,0,,,,61,45
43620,note_on,5,0,4,,,,,,,,2,,,,85,60
43620,note_on,800,0,9,,,,,,,,7,,,,46,60
43620,note_on,5,0,3,,,,,,,,1,,,,85,75
43620,note_on,800,0,8,,,,,,,,6,,,,58,60
43620,note_on,800,0,13,,,,,,,,12,,,,58,60
43620,note_on,800,0,14,,,,,,,,13,,,,46,60
43620,note_on,800,0,2,,,,,,,,0,,,,54,45
43620,note_on,800,0,15,,,,,,,,14,,,,46,45
43620,note_on,0,0,2,,,,,,,,0,,,,58,45
43740,note_on,0,0,3,,,,,,,,1,,,,83,75
43740,note_on,0,0,4,,,,,,,,2,,,,83,60
43740,note_off,120,0,4,,,,,,,,2,,,,85,64
43740,note_off,120,0,3,,,,,,,,1,,,,85,64
43860,note_off,120,0,3,,,,,,,,1,,,,83,64
43860,note_on,0,0,3,,,,,,,,1,,,,82,75
43860,note_on,0,0,4,,,,,,,,2,,,,82,60
43860,note_off,120,0,4,,,,,,,,2,,,,83,64
43980,note_on,0,0,4,,,,,,,,2,,,,80,60
43980,note_off,120,0,4,,,,,,,,2,,,,82,64
43980,note_off,120,0,3,,,,,,,,1,,,,82,64
43980,note_on,0,0,3,,,,,,,,1,,,,80,75
44100,note_off,120,0,4,,,,,,,,2,,,,80,64
44100,note_off,120,0,3,,,,,,,,1,,,,80,64
44100,note_on,0,0,3,,,,,,,,1,,,,78,75
44100,note_on,0,0,4,,,,,,,,2,,,,78,60
44180,note_off,80,0,4,,,,,,,,2,,,,78,64
44180,note_off,80,0,3,,,,,,,,1,,,,78,64
44260,note_off,640,0,15,,,,,,,,14,,,,46,64
44260,note_off,640,0,14,,,,,,,,13,,,,46,64
44260,note_off,640,0,9,,,,,,,,7,,,,46,64
44260,note_off,640,0,13,,,,,,,,12,,,,58,64
44260,note_off,640,0,2,,,,,,,,0,,,,61,64
44260,note_off,0,0,2,,,,,,,,0,,,,58,64
44260,note_off,0,0,2,,,,,,,,0,,,,54,64
44260,note_off,640,0,8,,,,,,,,6,,,,58,64
44340,note_on,2165,0,1,,,,,,,,0,,,,66,60
44340,note_on,80,0,9,,,,,,,,7,,,,42,60
44340,note_on,160,0,3,,,,,,,,1,,,,88,75
44340,note_on,80,0,15,,,,,,,,14,,,,42,45
44340,note_on,80,0,8,,,,,,,,6,,,,54,60
44340,note_on,80,0,2,,,,,,,,0,,,,54,45
44340,note_on,160,0,4,,,,,,,,2,,,,88,60
44340,note_on,0,0,2,,,,,,,,0,,,,58,45
44340,note_on,0,0,2,,,,,,,,0,,,,61,45
44340,note_on,80,0,14,,,,,,,,13,,,,42,60
44340,note_on,80,0,13,,,,,,,,12,,,,54,60
44460,note_on,0,0,1,,,,,,,,0,,,,68,60
44460,note_off,120,0,1,,,,,,,,0,,,,66,64
44575,note_off,235,0,4,,,,,,,,2,,,,88,64
44575,note_off,235,0,3,,,,,,,,1,,,,88,64
44580,note_on,5,0,4,,,,,,,,2,,,,87,60
44580,note_on,0,0,1,,,,,,,,0,,,,70,60
44580,note_off,120,0,1,,,,,,,,0,,,,68,64
44580,note_on,5,0,3,,,,,,,,1,,,,87,75
44700,note_off,120,0,1,,,,,,,,0,,,,70,64
44700,note_on,0,0,1,,,,,,,,0,,,,71,60
44815,note_off,235,0,3,,,,,,,,1,,,,87,64
44815,note_off,235,0,4,,,,,,,,2,,,,87,64
44820,note_on,5,0,3,,,,,,,,1,,,,85,75
44820,note_on,0,0,1,,,,,,,,0,,,,73,60
44820,note_off,120,0,1,,,,,,,,0,,,,71,64
44820,note_on,5,0,4,,,,,,,,2,,,,85,60
44980,note_off,640,0,13,,,,,,,,12,,,,54,64
44980,note_off,640,0,2,,,,,,,,0,,,,61,64
44980,note_off,640,0,8,,,,,,,,6,,,,54,64
44980,note_off,640,0,14,,,,,,,,13,,,,42,64
44980,note_off,0,0,2,,,,,,,,0,,,,58,64
44980,note_off,640,0,15,,,,,,,,14,,,,42,64
44980,note_off,0,0,2,,,,,,,,0,,,,54,64
44980,note_off,640,0,9,,,,,,,,7,,,,42,64
45055,note_off,235,0,3,,,,,,,,1,,,,85,64
45055,note_off,235,0,4,,,,,,,,2,,,,85,64
45055,note_off,235,0,1,,,,,,,,0,,,,73,64
45060,note_on,80,0,8,,,,,,,,6,,,,59,60
45060,note_on,80,0,14,,,,,,,,13,,,,47,60
45060,note_on,80,0,15,,,,,,,,14,,,,47,45
45060,note_on,5,0,3,,,,,,,,1,,,,87,75
45060,note_on,80,0,9,,,,,,,,7,,,,47,60
45060,note_on,80,0,13,,,,,,,,12,,,,59,60
45060,note_on,5,0,4,,,,,,,,2,,,,87,60
45060,note_on,0,0,2,,,,,,,,0,,,,59,45
45060,note_on,0,0,2,,,,,,,,0,,,,63,45
45060,note_on,80,0,2,,,,,,,,0,,,,54,45
45295,note_off,235,0,4,,,,,,,,2,,,,87,64
45295,note_off,235,0,3,,,,,,,,1,,,,87,64
45300,note_on,5,0,4,,,,,,,,2,,,,90,60
45300,note_on,5,0,3,,,,,,,,1,,,,90,75
45535,note_off,235,0,3,,,,,,,,1,,,,90,64
45535,note_off,235,0,4,,,,,,,,2,,,,90,64
45540,note_on,5,0,3,,,,,,,,1,,,,88,75
45540,note_on,5,0,4,,,,,,,,2,,,,88,60
45700,note_off,640,0,8,,,,,,,,6,,,,59,64
45700,note_off,0,0,2,,,,,,,,0,,,,54,64
45700,note_off,0,0,2,,,,,,,,0,,,,59,64
45700,note_off,640,0,15,,,,,,,,14,,,,47,64
45700,note_off,640,0,2,,,,,,,,0,,,,63,64
45700,note_off,640,0,13,,,,,,,,12,,,,59,64
45700,note_off,640,0,9,,,,,,,,7,,,,47,64
45700,note_off,640,0,14,,,,,,,,13,,,,47,64
45775,note_off,235,0,4,,,,,,,,2,,,,88,64
45775,note_off,235,0,3,,,,,,,,1,,,,88,64
45780,note_on,5,0,4,,,,,,,,2,,,,87,60
45780,note_on,5,0,3,,,,,,,,1,,,,87,75
46015,note_off,235,0,3,,,,,,,,1,,,,87,64
46015,note_off,235,0,4,,,,,,,,2,,,,87,64
46020,note_on,5,0,4,,,,,,,,2,,,,85,60
46020,note_on,5,0,3,,,,,,,,1,,,,85,75
46255,note_off,235,0,4,,,,,,,,2,,,,85,64
46255,note_off,235,0,3,,,,,,,,1,,,,85,64
46260,note_on,5,0,4,,,,,,,,2,,,,83,60
46260,note_on,5,0,3,,,,,,,,1,,,,83,75
46495,note_off,235,0,4,,,,,,,,2,,,,83,64
46495,note_off,235,0,3,,,,,,,,1,,,,83,64
46500,note_on,800,0,8,,,,,,,,6,,,,60,60
46500,note_on,0,0,2,,,,,,,,0,,,,60,45
46500,note_on,800,0,2,,,,,,,,0,,,,56,45
46500,note_on,5,0,4,,,,,,,,2,,,,87,60
46500,note_on,5,0,3,,,,,,,,1,,,,87,75
46500,note_on,0,0,2,,,,,,,,0,,,,63,45
46500,note_on,800,0,15,,,,,,,,14,,,,48,45
46500,note_on,800,0,9,,,,,,,,7,,,,48,60
46500,note_on,800,0,14,,,,,,,,13,,,,48,60
46500,note_on,800,0,13,,,,,,,,12,,,,60,60
46620,note_off,120,0,3,,,,,,,,1,,,,87,64
46620,note_off,120,0,4,,,,,,,,2,,,,87,64
46620,note_on,0,0,4,,,,,,,,2,,,,85,60
46620,note_on,0,0,3,,,,,,,,1,,,,85,75
46740,note_on,0,0,3,,,,,,,,1,,,,84,75
46740,note_off,120,0,4,,,,,,,,2,,,,85,64
46740,note_on,0,0,4,,,,,,,,2,,,,84,60
46740,note_off,120,0,3,,,,,,,,1,,,,85,64
46860,note_off,120,0,4,,,,,,,,2,,,,84,64
46860,note_on,0,0,4,,,,,,,,2,,,,82,60
46860,note_on,0,0,3,,,,,,,,1,,,,82,75
46860,note_off,120,0,3,,,,,,,,1,,,,84,64
46980,note_off,120,0,3,,,,,,,,1,,,,82,64
46980,note_on,0,0,3,,,,,,,,1,,,,80,75
46980,note_off,120,0,4,,,,,,,,2,,,,82,64
46980,note_on,0,0,4,,,,,,,,2,,,,80,60
47060,note_off,80,0,3,,,,,,,,1,,,,80,64
47060,note_off,80,0,4,,,,,,,,2,,,,80,64
47140,note_off,640,0,15,,,,,,,,14,,,,48,64
47140,note_off,640,0,2,,,,,,,,0,,,,63,64
47140,note_off,0,0,2,,,,,,,,0,,,,60,64
47140,note_off,640,0,9,,,,,,,,7,,,,48,64
47140,note_off,640,0,14,,,,,,,,13,,,,48,64
47140,note_off,640,0,13,,,,,,,,12,,,,60,64
47140,note_off,640,0,8,,,,,,,,6,,,,60,64
47140,note_off,0,0,2,,,,,,,,0,,,,56,64
47220,note_on,160,0,3,,,,,,,,1,,,,90,75
47220,note_on,80,0,8,,,,,,,,6,,,,56,60
47220,note_on,2165,0,1,,,,,,,,0,,,,68,60
47220,note_on,160,0,4,,,,,,,,2,,,,90,60
47220,note_on,80,0,9,,,,,,,,7,,,,44,60
47220,note_on,80,0,13,,,,,,,,12,,,,56,60
47220,note_on,80,0,15,,,,,,,,14,,,,44,45
47220,note_on,0,0,2,,,,,,,,0,,,,63,45
47220,note_on,0,0,2,,,,,,,,0,,,,60,45
47220,note_on,80,0,2,,,,,,,,0,,,,56,45
47220,note_on,80,0,14,,,,,,,,13,,,,44,60
47340,note_off,120,0,1,,,,,,,,0,,,,68,64
47340,note_on,0,0,1,,,,,,,,0,,,,70,60
47455,note_off,235,0,3,,,,,,,,1,,,,90,64
47455,note_off,235,0,4,,,,,,,,2,,,,90,64
47460,note_on,5,0,3,,,,,,,,1,,,,88,75
47460,note_off,120,0,1,,,,,,,,0,,,,70,64
47460,note_on,0,0,1,,,,,,,,0,,,,72,60
47460,note_on,5,0,4,,,,,,,,2,,,,88,60
47580,note_off,120,0,1,,,,,,,,0,,,,72,64
47580,note_on,0,0,1,,,,,,,,0,,,,73,60
47695,note_off,235,0,4,,,,,,,,2,,,,88,64
47695,note_off,235,0,3,,,,,,,,1,,,,88,64
47700,note_on,5,0,3,,,,,,,,1,,,,87,75
47700,note_off,120,0,1,,,,,,,,0,,,,73,64
47700,note_on,5,0,4,,,,,,,,2,,,,87,60
47700,note_on,0,0,1,,,,,,,,0,,,,75,60
47860,note_off,640,0,15,,,,,,,,14,,,,44,64
47860,note_off,0,0,2,,,,,,,,0,,,,56,64
47860,note_off,0,0,2,,,,,,,,0,,,,60,64
47860,note_off,640,0,14,,,,,,,,13,,,,44,64
47860,note_off,640,0,13,,,,,,,,12,,,,56,64
47860,note_off,640,0,8,,,,,,,,6,,,,56,64
47860,note_off,640,0,9,,,,,,,,7,,,,44,64
47860,note_off,640,0,2,,,,,,,,0,,,,63,64
47935,note_off,235,0,3,,,,,,,,1,,,,87,64
47935,note_off,235,0,1,,,,,,,,0,,,,75,64
47935,note_off,235,0,4,,,,,,,,2,,,,87,64
47940,note_on,80,0,9,,,,,,,,7,,,,49,60
47940,note_on,80,0,8,,,,,,,,6,,,,61,60
47940,note_on,5,0,4,,,,,,,,2,,,,88,60
47940,note_on,0,0,1,,,,,,,,0,,,,76,60
47940,note_on,5,0,1,,,,,,,,0,,,,68,60
47940,note_on,80,0,14,,,,,,,,13,,,,49,60
47940,note_on,80,0,15,,,,,,,,14,,,,49,45
47940,note_on,80,0,2,,,,,,,,0,,,,56,45
47940,note_on,0,0,2,,,,,,,,0,,,,61,45
47940,note_on,5,0,3,,,,,,,,1,,,,88,75
47940,note_on,0,0,2,,,,,,,,0,,,,64,45
47940,note_on,80,0,13,,,,,,,,12,,,,61,60
48175,note_off,235,0,3,,,,,,,,1,,,,88,64
48175,note_off,235,0,4,,,,,,,,2,,,,88,64
48180,note_on,5,0,3,,,,,,,,1,,,,92,75
48180,note_on,5,0,4,,,,,,,,2,,,,92,60
48300,note_on,0,0,3,,,,,,,,1,,,,90,75
48300,note_on,0,0,4,,,,,,,,2,,,,90,60
48300,note_off,120,0,3,,,,,,,,1,,,,92,64
48300,note_off,120,0,4,,,,,,,,2,,,,92,64
48340,note_off,0,0,1,,,,,,,,0,,,,68,64
48340,note_off,400,0,1,,,,,,,,0,,,,76,64
48420,note_off,120,0,3,,,,,,,,1,,,,90,64
48420,note_on,0,0,3,,,,,,,,1,,,,88,75
48420,note_off,120,0,4,,,,,,,,2,,,,90,64
48420,note_on,0,0,4,,,,,,,,2,,,,88,60
48580,note_off,0,0,2,,,,,,,,0,,,,56,64
48580,note_off,0,0,2,,,,,,,,0,,,,61,64
48580,note_off,640,0,14,,,,,,,,13,,,,49,64
48580,note_off,640,0,13,,,,,,,,12,,,,61,64
48580,note_off,640,0,8,,,,,,,,6,,,,61,64
48580,note_off,640,0,2,,,,,,,,0,,,,64,64
48580,note_off,640,0,15,,,,,,,,14,,,,49,64
48580,note_off,640,0,9,,,,,,,,7,,,,49,64
48655,note_off,235,0,3,,,,,,,,1,,,,88,64
48655,note_off,235,0,4,,,,,,,,2,,,,88,64
48660,note_on,0,0,2,,,,,,,,0,,,,61,45
48660,note_on,5,0,4,,,,,,,,2,,,,92,60
48660,note_on,80,0,13,,,,,,,,12,,,,61,60
48660,note_on,80,0,2,,,,,,,,0,,,,56,45
48660,note_on,0,0,1,,,,,,,,0,,,,76,45
48660,note_on,0,0,2,,,,,,,,0,,,,64,45
48660,note_on,80,0,8,,,,,,,,6,,,,61,60
48660,note_on,320,0,1,,,,,,,,0,,,,68,45
48660,note_on,80,0,15,,,,,,,,14,,,,49,45
48660,note_on,80,0,9,,,,,,,,7,,,,49,60
48660,note_on,80,0,14,,,,,,,,13,,,,49,60
48660,note_on,5,0,3,,,,,,,,1,,,,92,75
48895,note_off,235,0,3,,,,,,,,1,,,,92,64
48895,note_off,235,0,4,,,,,,,,2,,,,92,64
48900,note_on,5,0,3,,,,,,,,1,,,,90,75
48900,note_on,5,0,4,,,,,,,,2,,,,90,60
49060,note_off,0,0,1,,,,,,,,0,,,,68,64
49060,note_off,400,0,1,,,,,,,,0,,,,76,64
49135,note_off,235,0,4,,,,,,,,2,,,,90,64
49135,note_off,235,0,3,,,,,,,,1,,,,90,64
49140,note_on,5,0,3,,,,,,,,1,,,,88,75
49140,note_on,5,0,4,,,,,,,,2,,,,88,60
49300,note_off,640,0,15,,,,,,,,14,,,,49,64
49300,note_off,640,0,9,,,,,,,,7,,,,49,64
49300,note_off,640,0,14,,,,,,,,13,,,,49,64
49300,note_off,640,0,8,,,,,,,,6,,,,61,64
49300,note_off,0,0,2,,,,,,,,0,,,,61,64
49300,note_off,640,0,2,,,,,,,,0,,,,64,64
49300,note_off,640,0,13,,,,,,,,12,,,,61,64
49300,note_off,0,0,2,,,,,,,,0,,,,56,64
49375,note_off,235,0,3,,,,,,,,1,,,,88,64
49375,note_off,235,0,4,,,,,,,,2,,,,88,64
49380,note_on,80,0,9,,,,,,,,7,,,,48,60
49380,note_on,5,0,3,,,,,,,,1,,,,87,75
49380,note_on,80,0,13,,,,,,,,12,,,,60,60
49380,note_on,0,0,2,,,,,,,,0,,,,66,45
49380,note_on,80,0,14,,,,,,,,13,,,,48,60
49380,note_on,0,0,2,,,,,,,,0,,,,63,45
49380,note_on,320,0,1,,,,,,,,0,,,,66,45
49380,note_on,0,0,1,,,,,,,,0,,,,75,45
49380,note_on,80,0,8,,,,,,,,6,,,,60,60
49380,note_on,80,0,2,,,,,,,,0,,,,60,45
49380,note_on,5,0,4,,,,,,,,2,,,,87,60
49380,note_on,80,0,15,,,,,,,,14,,,,48,45
49615,note_off,235,0,3,,,,,,,,1,,,,87,64
49615,note_off,235,0,4,,,,,,,,2,,,,87,64
49620,note_on,5,0,4,,,,,,,,2,,,,90,60
49620,note_on,5,0,3,,,,,,,,1,,,,90,75
49740,note_off,120,0,3,,,,,,,,1,,,,90,64
49740,note_off,120,0,4,,,,,,,,2,,,,90,64
49740,note_on,0,0,3,,,,,,,,1,,,,88,75
49740,note_on,0,0,4,,,,,,,,2,,,,88,60
49780,note_off,0,0,1,,,,,,,,0,,,,66,64
49780,note_off,400,0,1,,,,,,,,0,,,,75,64
49860,note_on,0,0,3,,,,,,,,1,,,,87,75
49860,note_off,120,0,4,,,,,,,,2,,,,88,64
49860,note_on,0,0,4,,,,,,,,2,,,,87,60
49860,note_off,120,0,3,,,,,,,,1,,,,88,64
50020,note_off,640,0,13,,,,,,,,12,,,,60,64
50020,note_off,640,0,14,,,,,,,,13,,,,48,64
50020,note_off,0,0,2,,,,,,,,0,,,,60,64
50020,note_off,0,0,2,,,,,,,,0,,,,63,64
50020,note_off,640,0,2,,,,,,,,0,,,,66,64
50020,note_off,640,0,8,,,,,,,,6,,,,60,64
50020,note_off,640,0,9,,,,,,,,7,,,,48,64
50020,note_off,640,0,15,,,,,,,,14,,,,48,64
50095,note_off,235,0,3,,,,,,,,1,,,,87,64
50095,note_off,235,0,4,,,,,,,,2,,,,87,64
50100,note_on,80,0,14,,,,,,,,13,,,,47,60
50100,note_on,80,0,8,,,,,,,,6,,,,59,60
50100,note_on,80,0,15,,,,,,,,14,,,,47,45
50100,note_on,0,0,2,,,,,,,,0,,,,63,45
50100,note_on,320,0,1,,,,,,,,0,,,,66,45
50100,note_on,0,0,2,,,,,,,,0,,,,66,45
50100,note_on,0,0,1,,,,,,,,0,,,,75,45
50100,note_on,80,0,9,,,,,,,,7,,,,47,60
50100,note_on,5,0,4,,,,,,,,2,,,,90,60
50100,note_on,5,0,3,,,,,,,,1,,,,90,75
50100,note_on,80,0,2,,,,,,,,0,,,,59,45
50100,note_on,80,0,13,,,,,,,,12,,,,59,60
50335,note_off,235,0,4,,,,,,,,2,,,,90,64
50335,note_off,235,0,3,,,,,,,,1,,,,90,64
50340,note_on,5,0,3,,,,,,,,1,,,,88,75
50340,note_on,5,0,4,,,,,,,,2,,,,88,60
50500,note_off,0,0,1,,,,,,,,0,,,,66,64
50500,note_off,400,0,1,,,,,,,,0,,,,75,64
50575,note_off,235,0,3,,,,,,,,1,,,,88,64
50575,note_off,235,0,4,,,,,,,,2,,,,88,64
50580,note_on,5,0,4,,,,,,,,2,,,,87,60
50580,note_on,5,0,3,,,,,,,,1,,,,87,75
50740,note_off,640,0,8,,,,,,,,6,,,,59,64
50740,note_off,0,0,2,,,,,,,,0,,,,63,64
50740,note_off,0,0,2,,,,,,,,0,,,,59,64
50740,note_off,640,0,15,,,,,,,,14,,,,47,64
50740,note_off,640,0,13,,,,,,,,12,,,,59,64
50740,note_off,640,0,9,,,,,,,,7,,,,47,64
50740,note_off,640,0,2,,,,,,,,0,,,,66,64
50740,note_off,640,0,14,,,,,,,,13,,,,47,64
50815,note_off,235,0,3,,,,,,,,1,,,,87,64
50815,note_off,235,0,4,,,,,,,,2,,,,87,64
50820,note_on,5,0,3,,,,,,,,1,,,,85,75
50820,note_on,5,0,4,,,,,,,,2,,,,85,60
50820,note_on,320,0,1,,,,,,,,0,,,,64,45
50820,note_on,0,0,1,,,,,,,,0,,,,73,45
50820,note_on,0,0,2,,,,,,,,0,,,,64,45
50820,note_on,80,0,9,,,,,,,,7,,,,46,60
50820,note_on,80,0,2,,,,,,,,0,,,,58,45
50820,note_on,80,0,13,,,,,,,,12,,,,58,60
50820,note_on,0,0,2,,,,,,,,0,,,,61,45
50820,note_on,80,0,14,,,,,,,,13,,,,46,60
50820,note_on,80,0,8,,,,,,,,6,,,,58,60
50820,note_on,80,0,15,,,,,,,,14,,,,46,45
51055,note_off,235,0,4,,,,,,,,2,,,,85,64
51055,note_off,235,0,3,,,,,,,,1,,,,85,64
51060,note_on,5,0,4,,,,,,,,2,,,,88,60
51060,note_on,5,0,3,,,,,,,,1,,,,88,75
51180,note_on,0,0,4,,,,,,,,2,,,,87,60
51180,note_on,0,0,3,,,,,,,,1,,,,87,75
51180,note_off,120,0,3,,,,,,,,1,,,,88,64
51180,note_off,120,0,4,,,,,,,,2,,,,88,64
51220,note_off,400,0,1,,,,,,,,0,,,,73,64
51220,note_off,0,0,1,,,,,,,,0,,,,64,64
51300,note_off,120,0,3,,,,,,,,1,,,,87,64
51300,note_on,0,0,3,,,,,,,,1,,,,85,75
51300,note_on,0,0,4,,,,,,,,2,,,,85,60
51300,note_off,120,0,4,,,,,,,,2,,,,87,64
51460,note_off,640,0,15,,,,,,,,14,,,,46,64
51460,note_off,640,0,8,,,,,,,,6,,,,58,64
51460,note_off,640,0,14,,,,,,,,13,,,,46,64
51460,note_off,640,0,13,,,,,,,,12,,,,58,64
51460,note_off,0,0,2,,,,,,,,0,,,,58,64
51460,note_off,0,0,2,,,,,,,,0,,,,61,64
51460,note_off,640,0,9,,,,,,,,7,,,,46,64
51460,note_off,640,0,2,,,,,,,,0,,,,64,64
51535,note_off,235,0,3,,,,,,,,1,,,,85,64
51535,note_off,235,0,4,,,,,,,,2,,,,85,64
51540,note_on,80,0,13,,,,,,,,12,,,,57,60
51540,note_on,0,0,2,,,,,,,,0,,,,61,45
51540,note_on,5,0,4,,,,,,,,2,,,,88,60
51540,note_on,80,0,2,,,,,,,,0,,,,57,45
51540,note_on,0,0,2,,,,,,,,0,,,,64,45
51540,note_on,5,0,3,,,,,,,,1,,,,88,75
51540,note_on,80,0,15,,,,,,,,14,,,,45,45
51540,note_on,320,0,1,,,,,,,,0,,,,64,45
51540,note_on,80,0,8,,,,,,,,6,,,,57,60
51540,note_on,0,0,1,,,,,,,,0,,,,73,45
51540,note_on,80,0,14,,,,,,,,13,,,,45,60
51540,note_on,80,0,9,,,,,,,,7,,,,45,60
51775,note_off,235,0,3,,,,,,,,1,,,,88,64
51775,note_off,235,0,4,,,,,,,,2,,,,88,64
51780,note_on,5,0,4,,,,,,,,2,,,,87,60
51780,note_on,5,0,3,,,,,,,,1,,,,87,75
51940,note_off,400,0,1,,,,,,,,0,,,,73,64
51940,note_off,0,0,1,,,,,,,,0,,,,64,64
52015,note_off,235,0,4,,,,,,,,2,,,,87,64
52015,note_off,235,0,3,,,,,,,,1,,,,87,64
52020,note_on,5,0,3,,,,,,,,1,,,,85,75
52020,note_on,5,0,4,,,,,,,,2,,,,85,60
52180,note_off,640,0,13,,,,,,,,12,,,,57,64
52180,note_off,640,0,2,,,,,,,,0,,,,64,64
52180,note_off,0,0,2,,,,,,,,0,,,,61,64
52180,note_off,0,0,2,,,,,,,,0,,,,57,64
52180,note_off,640,0,9,,,,,,,,7,,,,45,64
52180,note_off,640,0,14,,,,,,,,13,,,,45,64
52180,note_off,640,0,8,,,,,,,,6,,,,57,64
52180,note_off,640,0,15,,,,,,,,14,,,,45,64
52255,note_off,235,0,4,,,,,,,,2,,,,85,64
52255,note_off,235,0,3,,,,,,,,1,,,,85,64
52260,note_on,0,0,1,,,,,,,,0,,,,71,45
52260,note_on,320,0,1,,,,,,,,0,,,,63,45
52260,note_on,80,0,8,,,,,,,,6,,,,56,60
52260,note_on,80,0,14,,,,,,,,13,,,,44,60
52260,note_on,80,0,15,,,,,,,,14,,,,44,45
52260,note_on,80,0,13,,,,,,,,12,,,,56,60
52260,note_on,5,0,4,,,,,,,,2,,,,83,60
52260,note_on,80,0,9,,,,,,,,7,,,,44,60
52260,note_on,0,0,2,,,,,,,,0,,,,63,45
52260,note_on,0,0,2,,,,,,,,0,,,,59,45
52260,note_on,80,0,2,,,,,,,,0,,,,56,45
52260,note_on,5,0,3,,,,,,,,1,,,,83,75
52495,note_off,235,0,4,,,,,,,,2,,,,83,64
52495,note_off,235,0,3,,,,,,,,1,,,,83,64
52500,note_on,5,0,4,,,,,,,,2,,,,87,59
52500,note_on,5,0,3,,,,,,,,1,,,,87,74
52620,note_off,120,0,3,,,,,,,,1,,,,87,64
52620,note_off,120,0,4,,,,,,,,2,,,,87,64
52620,note_on,0,0,4,,,,,,,,2,,,,85,59
52620,note_on,0,0,3,,,,,,,,1,,,,85,74
52660,note_off,0,0,1,,,,,,,,0,,,,63,64
52660,note_off,400,0,1,,,,,,,,0,,,,71,64
52740,note_off,120,0,4,,,,,,,,2,,,,85,64
52740,note_on,0,0,4,,,,,,,,2,,,,83,59
52740,note_off,120,0,3,,,,,,,,1,,,,85,64
52740,note_on,0,0,3,,,,,,,,1,,,,83,74
52900,note_off,640,0,2,,,,,,,,0,,,,63,64
52900,note_off,640,0,13,,,,,,,,12,,,,56,64
52900,note_off,640,0,8,,,,,,,,6,,,,56,64
52900,note_off,640,0,14,,,,,,,,13,,,,44,64
52900,note_off,0,0,2,,,,,,,,0,,,,56,64
52900,note_off,640,0,9,,,,,,,,7,,,,44,64
52900,note_off,0,0,2,,,,,,,,0,,,,59,64
52900,note_off,640,0,15,,,,,,,,14,,,,44,64
52975,note_off,235,0,3,,,,,,,,1,,,,83,64
52975,note_off,235,0,4,,,,,,,,2,,,,83,64
52980,note_on,80,0,2,,,,,,,,0,,,,56,45
52980,note_on,5,0,4,,,,,,,,2,,,,87,58
52980,note_on,80,0,9,,,,,,,,7,,,,44,58
52980,note_on,5,0,3,,,,,,,,1,,,,87,73
52980,note_on,80,0,8,,,,,,,,6,,,,56,58
52980,note_on,0,0,2,,,,,,,,0,,,,63,45
52980,note_on,80,0,15,,,,,,,,14,,,,44,43
52980,note_on,0,0,2,,,,,,,,0,,,,59,45
52980,note_on,80,0,14,,,,,,,,13,,,,44,58
52980,note_on,0,0,1,,,,,,,,0,,,,71,45
52980,note_on,320,0,1,,,,,,,,0,,,,63,45
52980,note_on,80,0,13,,,,,,,,12,,,,56,58
53215,note_off,235,0,3,,,,,,,,1,,,,87,64
53215,note_off,235,0,4,,,,,,,,2,,,,87,64
53220,note_on,5,0,3,,,,,,,,1,,,,85,72
53220,note_on,5,0,4,,,,,,,,2,,,,85,57
53380,note_off,400,0,1,,,,,,,,0,,,,71,64
53380,note_off,0,0,1,,,,,,,,0,,,,63,64
53455,note_off,235,0,4,,,,,,,,2,,,,85,64
53455,note_off,235,0,3,,,,,,,,1,,,,85,64
53460,note_on,5,0,4,,,,,,,,2,,,,83,56
53460,note_on,5,0,3,,,,,,,,1,,,,83,71
53620,note_off,640,0,15,,,,,,,,14,,,,44,64
53620,note_off,0,0,2,,,,,,,,0,,,,59,64
53620,note_off,640,0,2,,,,,,,,0,,,,63,64
53620,note_off,0,0,2,,,,,,,,0,,,,56,64
53620,note_off,640,0,9,,,,,,,,7,,,,44,64
53620,note_off,640,0,13,,,,,,,,12,,,,56,64
53620,note_off,640,0,8,,,,,,,,6,,,,56,64
53620,note_off,640,0,14,,,,,,,,13,,,,44,64
53695,note_off,235,0,4,,,,,,,,2,,,,83,64
53695,note_off,235,0,3,,,,,,,,1,,,,83,64
53700,note_on,80,0,9,,,,,,,,7,,,,42,56
53700,note_on,80,0,14,,,,,,,,13,,,,42,56
53700,note_on,80,0,15,,,,,,,,14,,,,42,41
53700,note_on,80,0,8,,,,,,,,6,,,,54,56
53700,note_on,320,0,1,,,,,,,,0,,,,61,45
53700,note_on,5,0,3,,,,,,,,1,,,,81,70
53700,note_on,80,0,13,,,,,,,,12,,,,54,56
53700,note_on,5,0,4,,,,,,,,2,,,,81,55
53700,note_on,0,0,1,,,,,,,,0,,,,69,45
53700,note_on,0,0,2,,,,,,,,0,,,,61,45
53700,note_on,0,0,2,,,,,,,,0,,,,57,45
53700,note_on,80,0,2,,,,,,,,0,,,,54,45
53935,note_off,235,0,3,,,,,,,,1,,,,81,64
53935,note_off,235,0,4,,,,,,,,2,,,,81,64
53940,note_on,5,0,4,,,,,,,,2,,,,85,53
53940,note_on,5,0,3,,,,,,,,1,,,,85,68
54060,note_on,0,0,3,,,,,,,,1,,,,83,67
54060,note_on,0,0,4,,,,,,,,2,,,,83,52
54060,note_off,120,0,3,,,,,,,,1,,,,85,64
54060,note_off,120,0,4,,,,,,,,2,,,,85,64
54100,note_off,400,0,1,,,,,,,,0,,,,69,64
54100,note_off,0,0,1,,,,,,,,0,,,,61,64
54180,note_on,0,0,4,,,,,,,,2,,,,81,51
54180,note_off,120,0,3,,,,,,,,1,,,,83,64
54180,note_on,0,0,3,,,,,,,,1,,,,81,66
54180,note_off,120,0,4,,,,,,,,2,,,,83,64
54340,note_off,640,0,9,,,,,,,,7,,,,42,64
54340,note_off,640,0,8,,,,,,,,6,,,,54,64
54340,note_off,640,0,13,,,,,,,,12,,,,54,64
54340,note_off,640,0,2,,,,,,,,0,,,,61,64
54340,note_off,640,0,14,,,,,,,,13,,,,42,64
54340,note_off,0,0,2,,,,,,,,0,,,,57,64
54340,note_off,640,0,15,,,,,,,,14,,,,42,64
54340,note_off,0,0,2,,,,,,,,0,,,,54,64
54415,note_off,235,0,4,,,,,,,,2,,,,81,64
54415,note_off,235,0,3,,,,,,,,1,,,,81,64
54420,note_on,5,0,4,,,,,,,,2,,,,85,49
54420,note_on,80,0,13,,,,,,,,12,,,,54,54
54420,note_on,320,0,1,,,,,,,,0,,,,61,45
54420,note_on,80,0,9,,,,,,,,7,,,,42,54
54420,note_on,0,0,1,,,,,,,,0,,,,69,45
54420,note_on,0,0,2,,,,,,,,0,,,,61,45
54420,note_on,5,0,3,,,,,,,,1,,,,85,64
54420,note_on,80,0,14,,,,,,,,13,,,,42,54
54420,note_on,80,0,2,,,,,,,,0,,,,54,45
54420,note_on,0,0,2,,,,,,,,0,,,,57,45
54420,note_on,80,0,15,,,,,,,,14,,,,42,39
54420,note_on,80,0,8,,,,,,,,6,,,,54,54
54655,note_off,235,0,4,,,,,,,,2,,,,85,64
54655,note_off,235,0,3,,,,,,,,1,,,,85,64
54660,note_on,5,0,4,,,,,,,,2,,,,83,47
54660,note_on,5,0,3,,,,,,,,1,,,,83,62
54820,note_off,400,0,1,,,,,,,,0,,,,69,64
54820,note_off,0,0,1,,,,,,,,0,,,,61,64
54895,note_off,235,0,4,,,,,,,,2,,,,83,64
54895,note_off,235,0,3,,,,,,,,1,,,,83,64
54900,note_on,5,0,4,,,,,,,,2,,,,81,45
54900,note_on,5,0,3,,,,,,,,1,,,,81,60
55060,note_off,640,0,14,,,,,,,,13,,,,42,64
55060,note_off,640,0,8,,,,,,,,6,,,,54,64
55060,note_off,640,0,9,,,,,,,,7,,,,42,64
55060,note_off,640,0,15,,,,,,,,14,,,,42,64
55060,note_off,0,0,2,,,,,,,,0,,,,54,64
55060,note_off,0,0,2,,,,,,,,0,,,,57,64
55060,note_off,640,0,2,,,,,,,,0,,,,61,64
55060,note_off,640,0,13,,,,,,,,12,,,,54,64
55135,note_off,235,0,3,,,,,,,,1,,,,81,64
55135,note_off,235,0,4,,,,,,,,2,,,,81,64
55140,note_on,80,0,9,,,,,,,,7,,,,37,52
55140,note_on,0,0,2,,,,,,,,0,,,,56,45
55140,note_on,80,0,13,,,,,,,,12,,,,49,52
55140,set_tempo,14400,1,0,512820,,,,,,,,,,,,
55140,note_on,80,0,14,,,,,,,,13,,,,37,52
55140,note_on,320,0,1,,,,,,,,0,,,,61,45
55140,note_on,0,0,1,,,,,,,,0,,,,68,45
55140,note_on,80,0,15,,,,,,,,14,,,,37,37
55140,note_on,0,0,2,,,,,,,,0,,,,64,45
55140,note_on,5,0,3,,,,,,,,1,,,,80,58
55140,note_on,80,0,2,,,,,,,,0,,,,49,45
55140,note_on,80,0,8,,,,,,,,6,,,,49,52
55140,note_on,5,0,4,,,,,,,,2,,,,80,43
55260,note_off,120,0,4,,,,,,,,2,,,,80,64
55260,note_off,120,0,3,,,,,,,,1,,,,80,64
55260,note_on,0,0,4,,,,,,,,2,,,,84,42
55260,note_on,0,0,3,,,,,,,,1,,,,84,57
55375,note_off,115,0,4,,,,,,,,2,,,,84,64
55375,note_off,115,0,3,,,,,,,,1,,,,84,64
55380,note_on,5,0,3,,,,,,,,1,,,,85,56
55380,note_on,5,0,4,,,,,,,,2,,,,85,41
55540,note_off,400,0,1,,,,,,,,0,,,,68,64
55540,note_off,0,0,1,,,,,,,,0,,,,61,64
55780,note_off,640,0,2,,,,,,,,0,,,,64,64
55780,note_off,0,0,2,,,,,,,,0,,,,56,64
55780,note_off,0,0,2,,,,,,,,0,,,,49,64
55780,note_off,640,0,15,,,,,,,,14,,,,37,64
56260,note_off,880,0,3,,,,,,,,1,,,,85,64
56260,note_off,880,0,4,,,,,,,,2,,,,85,64
56340,set_tempo,1200,1,0,530973,,,,,,,,,,,,
56400,note_on,140,0,3,,,,,,,,1,,,,81,48
56400,note_on,140,0,4,,,,,,,,2,,,,81,33
56460,note_off,1320,0,9,,,,,,,,7,,,,37,64
56460,note_off,1320,0,13,,,,,,,,12,,,,49,64
56460,note_off,1320,0,14,,,,,,,,13,,,,37,64
56460,note_off,1320,0,8,,,,,,,,6,,,,49,64
56635,note_off,235,0,4,,,,,,,,2,,,,81,64
56635,note_off,235,0,3,,,,,,,,1,,,,81,64
56640,note_on,0,0,1,,,,,,,,0,,,,68,45
56640,note_on,1100,0,1,,,,,,,,0,,,,61,45
56640,note_on,5,0,4,,,,,,,,2,,,,80,30
56640,note_on,0,0,2,,,,,,,,0,,,,64,45
56640,note_on,860,0,15,,,,,,,,14,,,,37,30
56640,note_on,180,0,14,,,,,,,,13,,,,37,45
56640,note_on,860,0,2,,,,,,,,0,,,,49,45
56640,note_on,180,0,9,,,,,,,,7,,,,37,45
56640,note_on,180,0,13,,,,,,,,12,,,,49,45
56640,note_on,5,0,3,,,,,,,,1,,,,80,45
56640,note_on,0,0,2,,,,,,,,0,,,,56,45
56640,note_on,180,0,8,,,,,,,,6,,,,49,45
56760,note_off,120,0,4,,,,,,,,2,,,,80,64
56760,note_on,0,0,4,,,,,,,,2,,,,84,30
56760,note_off,120,0,3,,,,,,,,1,,,,80,64
56760,note_on,0,0,3,,,,,,,,1,,,,84,45
56875,note_off,115,0,4,,,,,,,,2,,,,84,64
56875,note_off,115,0,3,,,,,,,,1,,,,84,64
56880,note_on,5,0,4,,,,,,,,2,,,,85,30
56880,note_on,5,0,3,,,,,,,,1,,,,85,45
57040,note_off,400,0,1,,,,,,,,0,,,,68,64
57040,note_off,0,0,1,,,,,,,,0,,,,61,64
57280,note_off,0,0,2,,,,,,,,0,,,,56,64
57280,note_off,640,0,2,,,,,,,,0,,,,64,64
57280,note_off,640,0,9,,,,,,,,7,,,,37,64
57280,note_off,640,0,8,,,,,,,,6,,,,49,64
57280,note_off,0,0,2,,,,,,,,0,,,,49,64
57280,note_off,640,0,13,,,,,,,,12,,,,49,64
57280,note_off,640,0,15,,,,,,,,14,,,,37,64
57280,note_off,640,0,14,,,,,,,,13,,,,37,64
57420,note_on,140,0,13,,,,,,,,12,,,,49,45
57420,note_on,140,0,8,,,,,,,,6,,,,49,45
57420,note_on,140,0,14,,,,,,,,13,,,,37,45
57420,note_on,140,0,9,,,,,,,,7,,,,37,45
57760,note_off,880,0,3,,,,,,,,1,,,,85,64
57760,note_off,880,0,4,,,,,,,,2,,,,85,64
57900,note_on,140,0,3,,,,,,,,1,,,,81,45
57900,note_on,140,0,4,,,,,,,,2,,,,81,30
58060,note_off,640,0,8,,,,,,,,6,,,,49,64
58060,note_off,640,0,13,,,,,,,,12,,,,49,64
58060,note_off,640,0,14,,,,,,,,13,,,,37,64
58060,note_off,640,0,9,,,,,,,,7,,,,37,64
58135,note_off,235,0,4,,,,,,,,2,,,,81,64
58135,note_off,235,0,3,,,,,,,,1,,,,81,64
58140,note_on,80,0,9,,,,,,,,7,,,,37,45
58140,note_on,5,0,4,,,,,,,,2,,,,80,30
58140,set_tempo,1800,1,0,530973,,,,,,,,,,,,
58140,note_on,80,0,8,,,,,,,,6,,,,49,45
58140,note_on,860,0,15,,,,,,,,14,,,,37,30
58140,note_on,0,0,2,,,,,,,,0,,,,61,45
58140,note_on,0,0,2,,,,,,,,0,,,,56,45
58140,note_on,860,0,2,,,,,,,,0,,,,49,45
58140,note_on,80,0,14,,,,,,,,13,,,,37,45
58140,note_on,1100,0,1,,,,,,,,0,,,,68,45
58140,note_on,5,0,3,,,,,,,,1,,,,80,45
58140,note_on,80,0,13,,,,,,,,12,,,,49,45
58380,note_on,0,0,1,,,,,,,,0,,,,73,46
58380,note_off,240,0,1,,,,,,,,0,,,,68,64
58380,note_off,240,0,3,,,,,,,,1,,,,80,64
58380,note_off,240,0,4,,,,,,,,2,,,,80,64
58380,note_on,0,0,3,,,,,,,,1,,,,85,50
58380,note_on,0,0,4,,,,,,,,2,,,,85,35
58460,note_off,80,0,3,,,,,,,,1,,,,85,64
58460,note_off,80,0,1,,,,,,,,0,,,,73,64
58460,note_off,80,0,4,,,,,,,,2,,,,85,64
58620,note_on,160,0,4,,,,,,,,2,,,,83,40
58620,note_on,160,0,3,,,,,,,,1,,,,83,55
58620,note_on,160,0,1,,,,,,,,0,,,,71,47
58700,note_off,80,0,4,,,,,,,,2,,,,83,64
58700,note_off,80,0,1,,,,,,,,0,,,,71,64
58700,note_off,80,0,3,,,,,,,,1,,,,83,64
58780,note_off,640,0,2,,,,,,,,0,,,,61,64
58780,note_off,640,0,15,,,,,,,,14,,,,37,64
58780,note_off,0,0,2,,,,,,,,0,,,,56,64
58780,note_off,0,0,2,,,,,,,,0,,,,49,64
58780,note_off,640,0,14,,,,,,,,13,,,,37,64
58780,note_off,640,0,13,,,,,,,,12,,,,49,64
58780,note_off,640,0,8,,,,,,,,6,,,,49,64
58780,note_off,640,0,9,,,,,,,,7,,,,37,64
58860,note_on,80,0,2,,,,,,,,0,,,,54,50
58860,note_on,80,0,15,,,,,,,,14,,,,42,40
58860,note_on,80,0,13,,,,,,,,12,,,,54,55
58860,set_tempo,720,1,0,517241,,,,,,,,,,,,
58860,note_on,160,0,1,,,,,,,,0,,,,69,48
58860,note_on,0,0,2,,,,,,,,0,,,,57,50
58860,note_on,0,0,2,,,,,,,,0,,,,61,50
58860,note_on,160,0,4,,,,,,,,2,,,,81,45
58860,note_on,80,0,9,,,,,,,,7,,,,42,55
58860,note_on,80,0,8,,,,,,,,6,,,,54,55
58860,note_on,160,0,3,,,,,,,,1,,,,81,60
58860,note_on,80,0,14,,,,,,,,13,,,,42,55
58940,note_off,80,0,4,,,,,,,,2,,,,81,64
58940,note_off,80,0,3,,,,,,,,1,,,,81,64
58940,note_off,80,0,1,,,,,,,,0,,,,69,64
59100,note_on,160,0,1,,,,,,,,0,,,,68,49
59100,note_on,160,0,4,,,,,,,,2,,,,80,50
59100,note_on,160,0,3,,,,,,,,1,,,,80,66
59180,note_off,80,0,4,,,,,,,,2,,,,80,64
59180,note_off,80,0,3,,,,,,,,1,,,,80,64
59180,note_off,80,0,1,,,,,,,,0,,,,68,64
59340,note_on,160,0,4,,,,,,,,2,,,,78,56
59340,note_on,160,0,1,,,,,,,,0,,,,66,50
59340,note_on,160,0,3,,,,,,,,1,,,,78,72
59420,note_off,80,0,1,,,,,,,,0,,,,66,64
59420,note_off,80,0,4,,,,,,,,2,,,,78,64
59420,note_off,80,0,3,,,,,,,,1,,,,78,64
59500,note_off,0,0,2,,,,,,,,0,,,,57,64
59500,note_off,0,0,2,,,,,,,,0,,,,54,64
59500,note_off,640,0,2,,,,,,,,0,,,,61,64
59500,note_off,640,0,13,,,,,,,,12,,,,54,64
59500,note_off,640,0,15,,,,,,,,14,,,,42,64
59500,note_off,640,0,14,,,,,,,,13,,,,42,64
59500,note_off,640,0,9,,,,,,,,7,,,,42,64
59500,note_off,640,0,8,,,,,,,,6,,,,54,64
59580,note_on,160,0,4,,,,,,,,2,,,,76,62
59580,set_tempo,720,1,0,500000,,,,,,,,,,,,
59580,note_on,0,0,2,,,,,,,,0,,,,64,55
59580,note_on,80,0,14,,,,,,,,13,,,,44,65
59580,note_on,80,0,9,,,,,,,,7,,,,44,65
59580,note_on,80,0,15,,,,,,,,14,,,,44,50
59580,note_on,80,0,8,,,,,,,,6,,,,56,65
59580,note_on,80,0,2,,,,,,,,0,,,,56,55
59580,note_on,80,0,13,,,,,,,,12,,,,56,65
59580,note_on,160,0,1,,,,,,,,0,,,,64,51
59580,note_on,160,0,3,,,,,,,,1,,,,76,78
59580,note_on,0,0,2,,,,,,,,0,,,,61,55
59820,note_off,240,0,3,,,,,,,,1,,,,76,64
59820,note_on,0,0,3,,,,,,,,1,,,,80,84
59820,note_on,0,0,1,,,,,,,,0,,,,68,52
59820,note_off,240,0,1,,,,,,,,0,,,,64,64
59820,note_off,240,0,4,,,,,,,,2,,,,76,64
59820,note_on,0,0,4,,,,,,,,2,,,,80,68
59900,note_off,80,0,1,,,,,,,,0,,,,68,64
59900,note_off,80,0,4,,,,,,,,2,,,,80,64
59900,note_off,80,0,3,,,,,,,,1,,,,80,64
60060,note_on,160,0,1,,,,,,,,0,,,,73,54
60060,note_on,160,0,4,,,,,,,,2,,,,85,74
60060,note_on,160,0,3,,,,,,,,1,,,,85,90
60140,note_off,80,0,1,,,,,,,,0,,,,73,64
60140,note_off,80,0,4,,,,,,,,2,,,,85,64
60140,note_off,80,0,3,,,,,,,,1,,,,85,64
60220,note_off,640,0,15,,,,,,,,14,,,,44,64
60220,note_off,640,0,13,,,,,,,,12,,,,56,64
60220,note_off,640,0,9,,,,,,,,7,,,,44,64
60220,note_off,640,0,2,,,,,,,,0,,,,64,64
60220,note_off,0,0,2,,,,,,,,0,,,,61,64
60220,note_off,0,0,2,,,,,,,,0,,,,56,64
60220,note_off,640,0,14,,,,,,,,13,,,,44,64
60220,note_off,640,0,8,,,,,,,,6,,,,56,64
60300,note_on,80,0,2,,,,,,,,0,,,,44,60
60300,note_on,80,0,15,,,,,,,,14,,,,32,60
60300,note_on,80,0,14,,,,,,,,13,,,,32,75
60300,note_on,160,0,4,,,,,,,,2,,,,75,80
60300,note_on,80,0,13,,,,,,,,12,,,,44,75
60300,note_on,0,0,2,,,,,,,,0,,,,60,60
60300,note_on,160,0,3,,,,,,,,1,,,,75,96
60300,note_on,80,0,9,,,,,,,,7,,,,32,75
60300,note_on,80,0,8,,,,,,,,6,,,,44,75
60300,note_on,0,0,2,,,,,,,,0,,,,63,60
60300,note_on,160,0,1,,,,,,,,0,,,,63,56
60300,set_tempo,720,1,0,483870,,,,,,,,,,,,
60300,note_on,0,0,2,,,,,,,,0,,,,56,60
60540,note_off,240,0,1,,,,,,,,0,,,,63,64
60540,note_on,0,0,3,,,,,,,,1,,,,80,102
60540,note_off,240,0,3,,,,,,,,1,,,,75,64
60540,note_off,240,0,4,,,,,,,,2,,,,75,64
60540,note_on,0,0,4,,,,,,,,2,,,,80,86
60540,note_on,0,0,1,,,,,,,,0,,,,68,58
60620,note_off,80,0,4,,,,,,,,2,,,,80,64
60620,note_off,80,0,1,,,,,,,,0,,,,68,64
60775,note_off,235,0,3,,,,,,,,1,,,,80,64
60780,note_on,5,0,3,,,,,,,,1,,,,84,108
60780,note_on,160,0,4,,,,,,,,2,,,,84,92
60780,note_on,160,0,1,,,,,,,,0,,,,72,60
60860,note_off,80,0,3,,,,,,,,1,,,,84,64
60860,note_off,80,0,1,,,,,,,,0,,,,72,64
60860,note_off,80,0,4,,,,,,,,2,,,,84,64
60940,note_off,640,0,13,,,,,,,,12,,,,44,64
60940,note_off,0,0,2,,,,,,,,0,,,,44,64
60940,note_off,0,0,2,,,,,,,,0,,,,56,64
60940,note_off,640,0,8,,,,,,,,6,,,,44,64
60940,note_off,640,0,2,,,,,,,,0,,,,63,64
60940,note_off,640,0,9,,,,,,,,7,,,,32,64
60940,note_off,640,0,15,,,,,,,,14,,,,32,64
60940,note_off,640,0,14,,,,,,,,13,,,,32,64
60940,note_off,0,0,2,,,,,,,,0,,,,60,64
61080,note_on,140,0,13,,,,,,,,12,,,,49,75
61080,note_on,140,0,8,,,,,,,,6,,,,49,92
61080,note_on,140,0,9,,,,,,,,7,,,,37,92
61080,note_on,27020,0,12,,,,,,,,11,,,,68,75
61080,note_on,27425,0,11,,,,,,,,10,,,,73,75
61080,note_on,27425,0,5,,,,,,,,3,,,,76,108
61080,note_on,27425,0,6,,,,,,,,4,,,,73,108
61080,note_on,27425,0,10,,,,,,,,8,,,,76,75
61080,note_on,140,0,14,,,,,,,,13,,,,37,75
61080,set_tempo,780,1,0,491803,,,,,,,,,,,,
61080,note_on,27020,0,7,,,,,,,,5,,,,68,92
61440,note_on,0,0,11,,,,,,,,10,,,,75,75
61440,note_off,360,0,11,,,,,,,,10,,,,73,64
61440,note_off,360,0,5,,,,,,,,3,,,,76,64
61440,note_off,360,0,6,,,,,,,,4,,,,73,64
61440,note_off,360,0,10,,,,,,,,8,,,,76,64
61440,note_on,0,0,10,,,,,,,,8,,,,78,75
61440,note_on,0,0,6,,,,,,,,4,,,,75,108
61440,note_on,0,0,5,,,,,,,,3,,,,78,108
61555,note_off,115,0,10,,,,,,,,8,,,,78,64
61555,note_off,115,0,11,,,,,,,,10,,,,75,64
61555,note_off,115,0,6,,,,,,,,4,,,,75,64
61555,note_off,115,0,5,,,,,,,,3,,,,78,64
61560,note_on,5,0,11,,,,,,,,10,,,,73,75
61560,note_on,5,0,10,,,,,,,,8,,,,76,75
61560,note_on,5,0,6,,,,,,,,4,,,,73,108
61560,note_on,5,0,5,,,,,,,,3,,,,76,108
61795,note_off,235,0,6,,,,,,,,4,,,,73,64
61795,note_off,235,0,11,,,,,,,,10,,,,73,64
61795,note_off,235,0,5,,,,,,,,3,,,,76,64
61795,note_off,235,0,10,,,,,,,,8,,,,76,64
61800,note_on,5,0,5,,,,,,,,3,,,,76,108
61800,note_on,5,0,11,,,,,,,,10,,,,73,75
61800,note_on,5,0,10,,,,,,,,8,,,,76,75
61800,note_on,5,0,6,,,,,,,,4,,,,73,108
62280,note_off,480,0,10,,,,,,,,8,,,,76,64
62280,note_on,0,0,10,,,,,,,,8,,,,78,75
62280,note_on,0,0,5,,,,,,,,3,,,,78,108
62280,note_on,0,0,11,,,,,,,,10,,,,75,75
62280,note_on,0,0,6,,,,,,,,4,,,,75,108
62280,note_off,480,0,5,,,,,,,,3,,,,76,64
62280,note_off,480,0,11,,,,,,,,10,,,,73,64
62280,note_off,480,0,6,,,,,,,,4,,,,73,64
62360,note_off,80,0,5,,,,,,,,3,,,,78,64
62360,note_off,80,0,6,,,,,,,,4,,,,75,64
62360,note_off,80,0,10,,,,,,,,8,,,,78,64
62360,note_off,80,0,11,,,,,,,,10,,,,75,64
62520,note_on,160,0,5,,,,,,,,3,,,,78,108
62520,note_on,160,0,6,,,,,,,,4,,,,75,108
62520,note_on,160,0,11,,,,,,,,10,,,,75,75
62520,note_on,160,0,10,,,,,,,,8,,,,78,75
63000,note_on,2060,0,2,,,,,,,,0,,,,44,92
63000,note_on,2060,0,15,,,,,,,,14,,,,44,60
63000,note_on,2140,0,1,,,,,,,,0,,,,56,92
63235,note_off,235,0,15,,,,,,,,14,,,,44,64
63235,note_off,235,0,1,,,,,,,,0,,,,56,64
63235,note_off,235,0,2,,,,,,,,0,,,,44,64
63240,note_on,0,0,11,,,,,,,,10,,,,76,75
63240,note_on,0,0,5,,,,,,,,3,,,,80,108
63240,note_on,5,0,2,,,,,,,,0,,,,49,92
63240,note_on,5,0,15,,,,,,,,14,,,,49,60
63240,note_off,720,0,5,,,,,,,,3,,,,78,64
63240,note_off,720,0,11,,,,,,,,10,,,,75,64
63240,note_on,5,0,1,,,,,,,,0,,,,61,92
63240,note_on,0,0,6,,,,,,,,4,,,,76,108
63240,note_off,720,0,10,,,,,,,,8,,,,78,64
63240,note_off,720,0,6,,,,,,,,4,,,,75,64
63240,note_on,0,0,10,,,,,,,,8,,,,80,75
63640,note_off,400,0,15,,,,,,,,14,,,,49,64
63640,note_off,400,0,2,,,,,,,,0,,,,49,64
63640,note_off,400,0,10,,,,,,,,8,,,,80,64
63640,note_off,400,0,11,,,,,,,,10,,,,76,64
63640,note_off,400,0,5,,,,,,,,3,,,,80,64
63640,note_off,400,0,6,,,,,,,,4,,,,76,64
63640,note_off,400,0,1,,,,,,,,0,,,,61,64
63720,note_on,80,0,15,,,,,,,,14,,,,44,60
63720,note_on,80,0,5,,,,,,,,3,,,,78,108
63720,note_on,80,0,2,,,,,,,,0,,,,44,92
63720,note_on,80,0,1,,,,,,,,0,,,,56,92
63720,note_on,80,0,10,,,,,,,,8,,,,78,75
63720,note_on,80,0,6,,,,,,,,4,,,,75,108
63720,note_on,80,0,11,,,,,,,,10,,,,75,75
63800,note_off,80,0,10,,,,,,,,8,,,,78,64
63800,note_off,80,0,11,,,,,,,,10,,,,75,64
63800,note_off,80,0,5,,,,,,,,3,,,,78,64
63800,note_off,80,0,6,,,,,,,,4,,,,75,64
63955,note_off,235,0,15,,,,,,,,14,,,,44,64
63955,note_off,235,0,1,,,,,,,,0,,,,56,64
63955,note_off,235,0,2,,,,,,,,0,,,,44,64
63960,note_on,160,0,6,,,,,,,,4,,,,73,108
63960,note_on,0,0,13,,,,,,,,12,,,,49,75
63960,note_on,160,0,10,,,,,,,,8,,,,76,75
63960,note_on,5,0,1,,,,,,,,0,,,,49,92
63960,note_on,160,0,11,,,,,,,,10,,,,73,75
63960,note_on,160,0,5,,,,,,,,3,,,,76,108
63960,note_on,5,0,15,,,,,,,,14,,,,37,60
63960,note_off,2880,0,12,,,,,,,,11,,,,68,64
63960,note_on,5,0,2,,,,,,,,0,,,,37,92
63960,note_off,2880,0,13,,,,,,,,12,,,,49,64
63960,note_off,2880,0,9,,,,,,,,7,,,,37,64
63960,note_on,0,0,12,,,,,,,,11,,,,68,75
63960,note_off,2880,0,7,,,,,,,,5,,,,68,64
63960,note_on,0,0,7,,,,,,,,5,,,,68,92
63960,note_on,0,0,9,,,,,,,,7,,,,37,92
63960,note_off,2880,0,14,,,,,,,,13,,,,37,64
63960,note_on,0,0,8,,,,,,,,6,,,,49,92
63960,note_on,0,0,14,,,,,,,,13,,,,37,75
63960,note_off,2880,0,8,,,,,,,,6,,,,49,64
64320,note_off,360,0,10,,,,,,,,8,,,,76,64
64320,note_on,0,0,6,,,,,,,,4,,,,75,105
64320,note_on,0,0,10,,,,,,,,8,,,,78,73
64320,note_off,360,0,11,,,,,,,,10,,,,73,64
64320,note_off,360,0,6,,,,,,,,4,,,,73,64
64320,note_off,360,0,5,,,,,,,,3,,,,76,64
64320,note_on,0,0,5,,,,,,,,3,,,,78,105
64320,note_on,0,0,11,,,,,,,,10,,,,75,73
64435,note_off,115,0,10,,,,,,,,8,,,,78,64
64435,note_off,115,0,6,,,,,,,,4,,,,75,64
64435,note_off,115,0,11,,,,,,,,10,,,,75,64
64435,note_off,115,0,5,,,,,,,,3,,,,78,64
64440,note_on,5,0,11,,,,,,,,10,,,,73,73
64440,note_on,5,0,5,,,,,,,,3,,,,76,104
64440,note_on,5,0,10,,,,,,,,8,,,,76,73
64440,note_on,5,0,6,,,,,,,,4,,,,73,104
64675,note_off,235,0,11,,,,,,,,10,,,,73,64
64675,note_off,235,0,6,,,,,,,,4,,,,73,64
64675,note_off,235,0,5,,,,,,,,3,,,,76,64
64675,note_off,235,0,10,,,,,,,,8,,,,76,64
64680,note_on,5,0,5,,,,,,,,3,,,,76,102
64680,note_on,5,0,11,,,,,,,,10,,,,73,72
64680,note_on,5,0,6,,,,,,,,4,,,,73,102
64680,note_on,5,0,10,,,,,,,,8,,,,76,72
65160,note_off,480,0,6,,,,,,,,4,,,,73,64
65160,note_on,0,0,6,,,,,,,,4,,,,75,98
65160,note_off,480,0,10,,,,,,,,8,,,,76,64
65160,note_on,0,0,10,,,,,,,,8,,,,78,69
65160,note_on,0,0,5,,,,,,,,3,,,,78,98
65160,note_off,480,0,5,,,,,,,,3,,,,76,64
65160,note_off,480,0,11,,,,,,,,10,,,,73,64
65160,note_on,0,0,11,,,,,,,,10,,,,75,69
65240,note_off,80,0,6,,,,,,,,4,,,,75,64
65240,note_off,80,0,11,,,,,,,,10,,,,75,64
65240,note_off,80,0,10,,,,,,,,8,,,,78,64
65240,note_off,80,0,5,,,,,,,,3,,,,78,64
65280,note_off,1320,0,15,,,,,,,,14,,,,37,64
65280,note_off,1320,0,1,,,,,,,,0,,,,49,64
65280,note_off,1320,0,2,,,,,,,,0,,,,37,64
65400,note_off,1440,0,13,,,,,,,,12,,,,49,64
65400,note_on,0,0,13,,,,,,,,12,,,,49,65
65400,note_on,0,0,7,,,,,,,,5,,,,68,77
65400,note_off,1440,0,7,,,,,,,,5,,,,68,64
65400,note_on,160,0,5,,,,,,,,3,,,,78,96
65400,note_on,160,0,6,,,,,,,,4,,,,75,96
65400,note_off,1440,0,14,,,,,,,,13,,,,37,64
65400,note_off,1440,0,12,,,,,,,,11,,,,68,64
65400,note_off,1440,0,9,,,,,,,,7,,,,37,64
65400,note_on,0,0,9,,,,,,,,7,,,,37,77
65400,note_on,160,0,10,,,,,,,,8,,,,78,68
65400,note_on,0,0,8,,,,,,,,6,,,,49,77
65400,note_off,1440,0,8,,,,,,,,6,,,,49,64
65400,note_on,0,0,12,,,,,,,,11,,,,68,65
65400,note_on,0,0,14,,,,,,,,13,,,,37,65
65400,note_on,160,0,11,,,,,,,,10,,,,75,68
65880,note_on,600,0,15,,,,,,,,14,,,,44,47
65880,note_on,600,0,1,,,,,,,,0,,,,56,72
65880,note_on,600,0,2,,,,,,,,0,,,,44,72
66115,note_off,235,0,1,,,,,,,,0,,,,56,64
66115,note_off,235,0,2,,,,,,,,0,,,,44,64
66115,note_off,235,0,15,,,,,,,,14,,,,44,64
66120,note_off,720,0,10,,,,,,,,8,,,,78,64
66120,note_on,0,0,10,,,,,,,,8,,,,80,64
66120,note_on,0,0,6,,,,,,,,4,,,,76,89
66120,note_off,720,0,6,,,,,,,,4,,,,75,64
66120,note_on,5,0,15,,,,,,,,14,,,,49,46
66120,note_on,5,0,1,,,,,,,,0,,,,61,70
66120,note_on,0,0,5,,,,,,,,3,,,,80,89
66120,note_off,720,0,11,,,,,,,,10,,,,75,64
66120,note_on,0,0,11,,,,,,,,10,,,,76,64
66120,note_off,720,0,5,,,,,,,,3,,,,78,64
66120,note_on,5,0,2,,,,,,,,0,,,,49,70
66520,note_off,400,0,15,,,,,,,,14,,,,49,64
66520,note_off,400,0,10,,,,,,,,8,,,,80,64
66520,note_off,400,0,5,,,,,,,,3,,,,80,64
66520,note_off,400,0,1,,,,,,,,0,,,,61,64
66520,note_off,400,0,2,,,,,,,,0,,,,49,64
66520,note_off,400,0,11,,,,,,,,10,,,,76,64
66520,note_off,400,0,6,,,,,,,,4,,,,76,64
66600,note_on,80,0,1,,,,,,,,0,,,,56,65
66600,note_on,80,0,5,,,,,,,,3,,,,78,85
66600,note_on,80,0,11,,,,,,,,10,,,,75,61
66600,note_on,80,0,15,,,,,,,,14,,,,44,43
66600,note_on,80,0,6,,,,,,,,4,,,,75,85
66600,note_on,80,0,2,,,,,,,,0,,,,44,65
66600,note_on,80,0,10,,,,,,,,8,,,,78,61
66680,note_off,80,0,5,,,,,,,,3,,,,78,64
66680,note_off,80,0,10,,,,,,,,8,,,,78,64
66680,note_off,80,0,11,,,,,,,,10,,,,75,64
66680,note_off,80,0,6,,,,,,,,4,,,,75,64
66835,note_off,235,0,1,,,,,,,,0,,,,56,64
66835,note_off,235,0,2,,,,,,,,0,,,,44,64
66835,note_off,235,0,15,,,,,,,,14,,,,44,64
66840,note_on,5,0,15,,,,,,,,14,,,,37,42
66840,note_on,0,0,9,,,,,,,,7,,,,37,61
66840,note_on,160,0,6,,,,,,,,4,,,,73,83
66840,note_off,1440,0,14,,,,,,,,13,,,,37,64
66840,note_on,0,0,7,,,,,,,,5,,,,68,61
66840,note_on,5,0,1,,,,,,,,0,,,,49,63
66840,note_on,5,0,2,,,,,,,,0,,,,37,63
66840,note_off,1440,0,13,,,,,,,,12,,,,49,64
66840,note_on,160,0,10,,,,,,,,8,,,,76,60
66840,note_on,160,0,11,,,,,,,,10,,,,73,60
66840,note_on,0,0,12,,,,,,,,11,,,,68,55
66840,note_off,1440,0,12,,,,,,,,11,,,,68,64
66840,note_on,160,0,5,,,,,,,,3,,,,76,83
66840,note_off,1440,0,7,,,,,,,,5,,,,68,64
66840,note_off,1440,0,9,,,,,,,,7,,,,37,64
66840,note_off,1440,0,8,,,,,,,,6,,,,49,64
66840,note_on,0,0,8,,,,,,,,6,,,,49,61
66840,note_on,0,0,14,,,,,,,,13,,,,37,55
66840,note_on,0,0,13,,,,,,,,12,,,,49,55
67200,note_off,360,0,11,,,,,,,,10,,,,73,64
67200,note_off,360,0,10,,,,,,,,8,,,,76,64
67200,note_on,0,0,5,,,,,,,,3,,,,78,80
67200,note_off,360,0,5,,,,,,,,3,,,,76,64
67200,note_on,0,0,11,,,,,,,,10,,,,75,58
67200,note_on,0,0,10,,,,,,,,8,,,,78,58
67200,note_off,360,0,6,,,,,,,,4,,,,73,64
67200,note_on,0,0,6,,,,,,,,4,,,,75,80
67315,note_off,115,0,10,,,,,,,,8,,,,78,64
67315,note_off,115,0,5,,,,,,,,3,,,,78,64
67315,note_off,115,0,11,,,,,,,,10,,,,75,64
67315,note_off,115,0,6,,,,,,,,4,,,,75,64
67320,note_on,5,0,10,,,,,,,,8,,,,80,58
67320,note_on,5,0,11,,,,,,,,10,,,,76,58
67320,note_on,5,0,5,,,,,,,,3,,,,80,79
67320,note_on,5,0,6,,,,,,,,4,,,,76,79
67400,note_off,80,0,5,,,,,,,,3,,,,80,64
67400,note_off,80,0,6,,,,,,,,4,,,,76,64
67480,note_off,640,0,1,,,,,,,,0,,,,49,64
67480,note_off,640,0,2,,,,,,,,0,,,,37,64
67480,note_off,640,0,15,,,,,,,,14,,,,37,64
67555,note_off,235,0,10,,,,,,,,8,,,,80,64
67555,note_off,235,0,11,,,,,,,,10,,,,76,64
67560,note_on,160,0,6,,,,,,,,4,,,,76,77
67560,note_on,80,0,2,,,,,,,,0,,,,49,54
67560,note_on,80,0,1,,,,,,,,0,,,,61,54
67560,note_on,80,0,15,,,,,,,,14,,,,37,36
67560,note_on,160,0,5,,,,,,,,3,,,,80,77
67560,note_on,5,0,10,,,,,,,,8,,,,80,57
67560,note_on,5,0,11,,,,,,,,10,,,,76,57
67920,note_off,360,0,6,,,,,,,,4,,,,76,64
67920,note_off,360,0,5,,,,,,,,3,,,,80,64
67920,note_on,0,0,5,,,,,,,,3,,,,78,73
67920,note_off,360,0,11,,,,,,,,10,,,,76,64
67920,note_off,360,0,10,,,,,,,,8,,,,80,64
67920,note_on,0,0,11,,,,,,,,10,,,,75,54
67920,note_on,0,0,10,,,,,,,,8,,,,78,54
67920,note_on,0,0,6,,,,,,,,4,,,,75,73
68035,note_off,115,0,11,,,,,,,,10,,,,75,64
68035,note_off,115,0,5,,,,,,,,3,,,,78,64
68035,note_off,115,0,10,,,,,,,,8,,,,78,64
68035,note_off,115,0,6,,,,,,,,4,,,,75,64
68040,note_on,5,0,11,,,,,,,,10,,,,73,53
68040,note_on,5,0,5,,,,,,,,3,,,,76,72
68040,note_on,5,0,10,,,,,,,,8,,,,76,53
68040,note_on,5,0,6,,,,,,,,4,,,,73,72
68120,note_off,80,0,6,,,,,,,,4,,,,73,64
68120,note_off,80,0,5,,,,,,,,3,,,,76,64
68200,note_off,640,0,15,,,,,,,,14,,,,37,64
68200,note_off,640,0,1,,,,,,,,0,,,,61,64
68200,note_off,640,0,2,,,,,,,,0,,,,49,64
68275,note_off,235,0,11,,,,,,,,10,,,,73,64
68275,note_off,235,0,10,,,,,,,,8,,,,76,64
68280,note_off,1440,0,13,,,,,,,,12,,,,49,64
68280,note_on,5,0,11,,,,,,,,10,,,,73,51
68280,note_on,0,0,7,,,,,,,,5,,,,68,45
68280,note_off,1440,0,9,,,,,,,,7,,,,37,64
68280,note_on,0,0,15,,,,,,,,14,,,,44,30
68280,note_on,80,0,15,,,,,,,,14,,,,32,30
68280,note_on,0,0,9,,,,,,,,7,,,,37,45
68280,note_on,160,0,6,,,,,,,,4,,,,73,69
68280,note_off,1440,0,7,,,,,,,,5,,,,68,64
68280,note_on,0,0,13,,,,,,,,12,,,,49,45
68280,note_off,1440,0,14,,,,,,,,13,,,,37,64
68280,note_on,5,0,10,,,,,,,,8,,,,76,51
68280,note_off,1440,0,12,,,,,,,,11,,,,68,64
68280,note_on,0,0,14,,,,,,,,13,,,,37,45
68280,note_on,0,0,8,,,,,,,,6,,,,49,45
68280,note_off,1440,0,8,,,,,,,,6,,,,49,64
68280,note_on,0,0,12,,,,,,,,11,,,,68,45
68280,note_on,80,0,1,,,,,,,,0,,,,56,45
68280,note_on,160,0,5,,,,,,,,3,,,,76,69
68280,note_on,80,0,2,,,,,,,,0,,,,44,45
68340,note_on,0,0,5,,,,,,,,3,,,,78,69
68340,note_off,60,0,5,,,,,,,,3,,,,76,64
68340,note_off,60,0,6,,,,,,,,4,,,,73,64
68340,note_off,60,0,11,,,,,,,,10,,,,73,64
68340,note_on,0,0,6,,,,,,,,4,,,,75,69
68340,note_on,0,0,11,,,,,,,,10,,,,75,51
68340,note_on,0,0,10,,,,,,,,8,,,,78,51
68340,note_off,60,0,10,,,,,,,,8,,,,76,64
68400,note_on,0,0,5,,,,,,,,3,,,,76,69
68400,note_on,0,0,10,,,,,,,,8,,,,76,51
68400,note_off,60,0,10,,,,,,,,8,,,,78,64
68400,note_off,60,0,6,,,,,,,,4,,,,75,64
68400,note_off,60,0,11,,,,,,,,10,,,,75,64
68400,note_on,0,0,11,,,,,,,,10,,,,73,51
68400,note_on,0,0,6,,,,,,,,4,,,,73,69
68400,note_off,60,0,5,,,,,,,,3,,,,78,64
68460,note_off,60,0,6,,,,,,,,4,,,,73,64
68460,note_off,60,0,11,,,,,,,,10,,,,73,64
68460,note_on,0,0,10,,,,,,,,8,,,,78,51
68460,note_off,60,0,5,,,,,,,,3,,,,76,64
68460,note_on,0,0,5,,,,,,,,3,,,,78,69
68460,note_off,60,0,10,,,,,,,,8,,,,76,64
68460,note_on,0,0,6,,,,,,,,4,,,,75,69
68460,note_on,0,0,11,,,,,,,,10,,,,75,51
68520,note_on,0,0,11,,,,,,,,10,,,,73,51
68520,note_off,60,0,5,,,,,,,,3,,,,78,64
68520,note_on,0,0,10,,,,,,,,8,,,,76,51
68520,note_off,60,0,10,,,,,,,,8,,,,78,64
68520,note_on,0,0,6,,,,,,,,4,,,,73,68
68520,note_off,60,0,6,,,,,,,,4,,,,75,64
68520,note_on,0,0,5,,,,,,,,3,,,,76,68
68520,note_off,60,0,11,,,,,,,,10,,,,75,64
68580,note_on,0,0,10,,,,,,,,8,,,,78,51
68580,note_on,0,0,11,,,,,,,,10,,,,75,51
68580,note_off,60,0,10,,,,,,,,8,,,,76,64
68580,note_off,60,0,11,,,,,,,,10,,,,73,64
68580,note_off,60,0,6,,,,,,,,4,,,,73,64
68580,note_on,0,0,5,,,,,,,,3,,,,78,67
68580,note_off,60,0,5,,,,,,,,3,,,,76,64
68580,note_on,0,0,6,,,,,,,,4,,,,75,67
68640,note_off,60,0,5,,,,,,,,3,,,,78,64
68640,note_off,60,0,6,,,,,,,,4,,,,75,64
68640,note_on,0,0,6,,,,,,,,4,,,,73,66
68640,note_on,0,0,10,,,,,,,,8,,,,76,51
68640,note_off,60,0,10,,,,,,,,8,,,,78,64
68640,note_on,0,0,5,,,,,,,,3,,,,76,66
68640,note_off,60,0,11,,,,,,,,10,,,,75,64
68640,note_on,0,0,11,,,,,,,,10,,,,73,51
68700,note_on,0,0,10,,,,,,,,8,,,,78,50
68700,note_off,60,0,10,,,,,,,,8,,,,76,64
68700,note_on,0,0,5,,,,,,,,3,,,,78,65
68700,note_on,0,0,11,,,,,,,,10,,,,75,50
68700,note_off,60,0,11,,,,,,,,10,,,,73,64
68700,note_off,60,0,5,,,,,,,,3,,,,76,64
68700,note_off,60,0,6,,,,,,,,4,,,,73,64
68700,note_on,0,0,6,,,,,,,,4,,,,75,65
68760,note_off,60,0,11,,,,,,,,10,,,,75,64
68760,note_on,0,0,11,,,,,,,,10,,,,73,49
68760,note_on,0,0,10,,,,,,,,8,,,,76,49
68760,note_off,60,0,10,,,,,,,,8,,,,78,64
68760,note_off,60,0,5,,,,,,,,3,,,,78,64
68760,note_on,0,0,5,,,,,,,,3,,,,76,64
68760,note_off,60,0,6,,,,,,,,4,,,,75,64
68760,note_on,0,0,6,,,,,,,,4,,,,73,64
68820,note_off,60,0,10,,,,,,,,8,,,,76,64
68820,note_off,60,0,6,,,,,,,,4,,,,73,64
68820,note_on,0,0,10,,,,,,,,8,,,,78,48
68820,note_off,60,0,5,,,,,,,,3,,,,76,64
68820,note_on,0,0,6,,,,,,,,4,,,,75,63
68820,note_on,0,0,11,,,,,,,,10,,,,75,48
68820,note_off,60,0,11,,,,,,,,10,,,,73,64
68820,note_on,0,0,5,,,,,,,,3,,,,78,63
68880,note_off,60,0,5,,,,,,,,3,,,,78,64
68880,note_on,0,0,5,,,,,,,,3,,,,76,62
68880,note_off,60,0,6,,,,,,,,4,,,,75,64
68880,note_off,60,0,10,,,,,,,,8,,,,78,64
68880,note_on,0,0,6,,,,,,,,4,,,,73,62
68880,note_on,0,0,11,,,,,,,,10,,,,73,47
68880,note_on,0,0,10,,,,,,,,8,,,,76,47
68880,note_off,60,0,11,,,,,,,,10,,,,75,64
68940,note_off,60,0,5,,,,,,,,3,,,,76,64
68940,note_on,0,0,11,,,,,,,,10,,,,75,46
68940,note_off,60,0,11,,,,,,,,10,,,,73,64
68940,note_on,0,0,5,,,,,,,,3,,,,78,61
68940,note_on,0,0,6,,,,,,,,4,,,,75,61
68940,note_off,60,0,10,,,,,,,,8,,,,76,64
68940,note_on,0,0,10,,,,,,,,8,,,,78,46
68940,note_off,60,0,6,,,,,,,,4,,,,73,64
69000,note_on,0,0,5,,,,,,,,3,,,,75,60
69000,note_on,0,0,11,,,,,,,,10,,,,72,45
69000,note_off,60,0,11,,,,,,,,10,,,,75,64
69000,note_off,60,0,5,,,,,,,,3,,,,78,64
69000,note_off,60,0,6,,,,,,,,4,,,,75,64
69000,note_on,0,0,6,,,,,,,,4,,,,72,60
69000,note_off,60,0,10,,,,,,,,8,,,,78,64
69000,note_on,0,0,10,,,,,,,,8,,,,75,45
69600,note_off,1320,0,9,,,,,,,,7,,,,37,64
69600,note_off,1320,0,14,,,,,,,,13,,,,37,64
69600,note_off,0,0,15,,,,,,,,14,,,,32,64
69600,note_off,1320,0,8,,,,,,,,6,,,,49,64
69600,note_off,1320,0,13,,,,,,,,12,,,,49,64
69600,note_off,1320,0,1,,,,,,,,0,,,,56,64
69600,note_off,1320,0,2,,,,,,,,0,,,,44,64
69600,note_off,1320,0,15,,,,,,,,14,,,,44,64
69640,note_off,640,0,10,,,,,,,,8,,,,75,64
69640,note_off,640,0,6,,,,,,,,4,,,,72,64
69640,note_off,640,0,5,,,,,,,,3,,,,75,64
69640,note_off,640,0,11,,,,,,,,10,,,,72,64
69720,note_off,1440,0,12,,,,,,,,11,,,,68,64
69720,note_off,1440,0,7,,,,,,,,5,,,,68,64
69840,note_on,120,0,12,,,,,,,,11,,,,68,75
69840,note_on,240,0,9,,,,,,,,7,,,,37,92
69840,note_on,240,0,14,,,,,,,,13,,,,37,75
69840,note_on,120,0,7,,,,,,,,5,,,,68,92
69840,note_on,240,0,1,,,,,,,,0,,,,68,92
69840,note_on,200,0,5,,,,,,,,3,,,,80,108
69840,note_on,240,0,8,,,,,,,,6,,,,49,92
69840,note_on,240,0,2,,,,,,,,0,,,,49,92
69840,note_on,200,0,6,,,,,,,,4,,,,76,108
69840,note_on,200,0,10,,,,,,,,8,,,,80,75
69840,note_on,240,0,13,,,,,,,,12,,,,49,75
69840,note_on,200,0,11,,,,,,,,10,,,,76,75
69840,note_on,240,0,15,,,,,,,,14,,,,37,60
70560,note_off,720,0,5,,,,,,,,3,,,,80,64
70560,note_on,0,0,12,,,,,,,,11,,,,64,75
70560,note_off,720,0,1,,,,,,,,0,,,,68,64
70560,note_on,0,0,1,,,,,,,,0,,,,69,92
70560,note_off,720,0,12,,,,,,,,11,,,,68,64
70560,note_on,0,0,10,,,,,,,,8,,,,81,75
70560,note_off,720,0,10,,,,,,,,8,,,,80,64
70560,note_on,0,0,7,,,,,,,,5,,,,64,92
70560,note_off,720,0,7,,,,,,,,5,,,,68,64
70560,note_on,0,0,5,,,,,,,,3,,,,81,108
71280,note_off,1440,0,8,,,,,,,,6,,,,49,64
71280,note_on,0,0,8,,,,,,,,6,,,,51,92
71280,note_on,0,0,9,,,,,,,,7,,,,39,92
71280,note_on,0,0,5,,,,,,,,3,,,,78,108
71280,note_on,0,0,1,,,,,,,,0,,,,66,92
71280,note_off,720,0,1,,,,,,,,0,,,,69,64
71280,note_off,1440,0,14,,,,,,,,13,,,,37,64
71280,note_on,0,0,14,,,,,,,,13,,,,39,75
71280,note_off,720,0,5,,,,,,,,3,,,,81,64
71280,note_off,1440,0,9,,,,,,,,7,,,,37,64
71280,note_on,0,0,10,,,,,,,,8,,,,78,75
71280,note_on,0,0,7,,,,,,,,5,,,,71,92
71280,note_on,0,0,12,,,,,,,,11,,,,71,75
71280,note_off,720,0,12,,,,,,,,11,,,,64,64
71280,note_on,0,0,13,,,,,,,,12,,,,51,75
71280,note_off,1440,0,13,,,,,,,,12,,,,49,64
71280,note_on,0,0,15,,,,,,,,14,,,,39,60
71280,note_on,0,0,2,,,,,,,,0,,,,51,92
71280,note_off,1440,0,2,,,,,,,,0,,,,49,64
71280,note_off,720,0,7,,,,,,,,5,,,,64,64
71280,note_off,1440,0,15,,,,,,,,14,,,,37,64
71280,note_off,720,0,10,,,,,,,,8,,,,81,64
72000,note_on,0,0,10,,,,,,,,8,,,,80,75
72000,note_on,0,0,2,,,,,,,,0,,,,48,92
72000,note_off,720,0,14,,,,,,,,13,,,,39,64
72000,note_on,0,0,14,,,,,,,,13,,,,36,75
72000,note_off,720,0,1,,,,,,,,0,,,,66,64
72000,note_on,0,0,1,,,,,,,,0,,,,68,92
72000,note_off,720,0,15,,,,,,,,14,,,,39,64
72000,note_off,720,0,10,,,,,,,,8,,,,78,64
72000,note_on,0,0,15,,,,,,,,14,,,,36,60
72000,note_off,720,0,2,,,,,,,,0,,,,51,64
72000,note_off,720,0,8,,,,,,,,6,,,,51,64
72000,note_off,2160,0,6,,,,,,,,4,,,,76,64
72000,note_off,720,0,7,,,,,,,,5,,,,71,64
72000,note_off,720,0,12,,,,,,,,11,,,,71,64
72000,note_on,0,0,12,,,,,,,,11,,,,68,75
72000,note_on,0,0,13,,,,,,,,12,,,,48,75
72000,note_off,720,0,13,,,,,,,,12,,,,51,64
72000,note_on,0,0,7,,,,,,,,5,,,,68,92
72000,note_off,720,0,9,,,,,,,,7,,,,39,64
72000,note_on,0,0,9,,,,,,,,7,,,,36,92
72000,note_on,0,0,11,,,,,,,,10,,,,75,75
72000,note_on,0,0,8,,,,,,,,6,,,,48,92
72000,note_off,2160,0,11,,,,,,,,10,,,,76,64
72000,note_on,0,0,6,,,,,,,,4,,,,75,108
72000,note_off,720,0,5,,,,,,,,3,,,,78,64
72000,note_on,0,0,5,,,,,,,,3,,,,80,108
72720,note_on,0,0,14,,,,,,,,13,,,,37,75
72720,note_on,0,0,5,,,,,,,,3,,,,76,108
72720,note_off,720,0,15,,,,,,,,14,,,,36,64
72720,note_off,720,0,5,,,,,,,,3,,,,80,64
72720,note_off,720,0,14,,,,,,,,13,,,,36,64
72720,note_on,0,0,15,,,,,,,,14,,,,37,60
72720,note_on,0,0,2,,,,,,,,0,,,,49,92
72720,note_off,720,0,13,,,,,,,,12,,,,48,64
72720,note_off,720,0,1,,,,,,,,0,,,,68,64
72720,note_on,0,0,1,,,,,,,,0,,,,64,92
72720,note_off,720,0,8,,,,,,,,6,,,,48,64
72720,note_on,0,0,8,,,,,,,,6,,,,49,92
72720,note_off,720,0,2,,,,,,,,0,,,,48,64
72720,note_off,720,0,9,,,,,,,,7,,,,36,64
72720,note_on,0,0,13,,,,,,,,12,,,,49,75
72720,note_off,720,0,10,,,,,,,,8,,,,80,64
72720,note_on,0,0,10,,,,,,,,8,,,,76,75
72720,note_on,0,0,9,,,,,,,,7,,,,37,92
73440,note_off,1440,0,12,,,,,,,,11,,,,68,64
73440,note_off,720,0,5,,,,,,,,3,,,,76,64
73440,note_on,0,0,2,,,,,,,,0,,,,54,80
73440,note_on,0,0,10,,,,,,,,8,,,,78,60
73440,note_off,720,0,10,,,,,,,,8,,,,76,64
73440,note_off,1440,0,6,,,,,,,,4,,,,75,64
73440,note_off,720,0,2,,,,,,,,0,,,,49,64
73440,note_on,0,0,5,,,,,,,,3,,,,78,84
73440,note_on,0,0,14,,,,,,,,13,,,,42,67
73440,note_off,720,0,14,,,,,,,,13,,,,37,64
73440,note_on,0,0,13,,,,,,,,12,,,,54,67
73440,note_off,720,0,13,,,,,,,,12,,,,49,64
73440,note_on,0,0,6,,,,,,,,4,,,,73,92
73440,note_on,0,0,12,,,,,,,,11,,,,69,60
73440,note_on,0,0,11,,,,,,,,10,,,,73,65
73440,note_on,0,0,15,,,,,,,,14,,,,42,52
73440,note_on,0,0,9,,,,,,,,7,,,,42,80
73440,note_on,0,0,7,,,,,,,,5,,,,69,69
73440,note_off,1440,0,11,,,,,,,,10,,,,75,64
73440,note_off,720,0,1,,,,,,,,0,,,,64,64
73440,note_on,0,0,1,,,,,,,,0,,,,66,69
73440,note_off,720,0,9,,,,,,,,7,,,,37,64
73440,note_off,1440,0,7,,,,,,,,5,,,,68,64
73440,note_off,720,0,15,,,,,,,,14,,,,37,64
73440,note_off,720,0,8,,,,,,,,6,,,,49,64
73440,note_on,0,0,8,,,,,,,,6,,,,54,80
74160,note_off,720,0,7,,,,,,,,5,,,,69,64
74160,note_on,0,0,7,,,,,,,,5,,,,68,45
74160,note_off,720,0,9,,,,,,,,7,,,,42,64
74160,note_off,720,0,15,,,,,,,,14,,,,42,64
74160,note_off,720,0,12,,,,,,,,11,,,,69,64
74160,note_on,0,0,12,,,,,,,,11,,,,68,45
74160,note_off,720,0,2,,,,,,,,0,,,,54,64
74160,note_on,0,0,2,,,,,,,,0,,,,56,67
74160,note_on,0,0,14,,,,,,,,13,,,,44,59
74160,note_on,0,0,15,,,,,,,,14,,,,44,44
74160,note_on,0,0,9,,,,,,,,7,,,,44,67
74160,note_off,720,0,14,,,,,,,,13,,,,42,64
74160,note_on,0,0,13,,,,,,,,12,,,,56,59
74160,note_off,720,0,5,,,,,,,,3,,,,78,64
74160,note_on,0,0,1,,,,,,,,0,,,,63,45
74160,note_off,720,0,1,,,,,,,,0,,,,66,64
74160,note_off,720,0,10,,,,,,,,8,,,,78,64
74160,note_off,720,0,8,,,,,,,,6,,,,54,64
74160,note_on,0,0,8,,,,,,,,6,,,,56,67
74160,note_on,0,0,10,,,,,,,,8,,,,75,45
74160,note_on,0,0,5,,,,,,,,3,,,,75,60
74160,note_off,720,0,13,,,,,,,,12,,,,54,64
74560,note_off,400,0,15,,,,,,,,14,,,,44,64
74560,note_off,400,0,8,,,,,,,,6,,,,56,64
74560,note_off,400,0,14,,,,,,,,13,,,,44,64
74560,note_off,400,0,9,,,,,,,,7,,,,44,64
74560,note_off,400,0,13,,,,,,,,12,,,,56,64
74560,note_off,400,0,2,,,,,,,,0,,,,56,64
74640,note_on,80,0,9,,,,,,,,7,,,,42,59
74640,note_on,80,0,2,,,,,,,,0,,,,54,59
74640,note_on,80,0,13,,,,,,,,12,,,,54,54
74640,note_on,80,0,15,,,,,,,,14,,,,42,39
74640,note_on,80,0,8,,,,,,,,6,,,,54,59
74640,note_on,80,0,14,,,,,,,,13,,,,42,54
74875,note_off,235,0,9,,,,,,,,7,,,,42,64
74875,note_off,235,0,8,,,,,,,,6,,,,54,64
74875,note_off,235,0,14,,,,,,,,13,,,,42,64
74875,note_off,235,0,13,,,,,,,,12,,,,54,64
74875,note_off,235,0,15,,,,,,,,14,,,,42,64
74875,note_off,235,0,2,,,,,,,,0,,,,54,64
74880,note_on,0,0,11,,,,,,,,10,,,,72,45
74880,note_on,5,0,8,,,,,,,,6,,,,52,55
74880,note_on,5,0,13,,,,,,,,12,,,,52,51
74880,note_on,5,0,15,,,,,,,,14,,,,40,36
74880,note_off,1440,0,6,,,,,,,,4,,,,73,64
74880,note_on,0,0,6,,,,,,,,4,,,,72,60
74880,note_on,5,0,9,,,,,,,,7,,,,40,55
74880,note_on,5,0,14,,,,,,,,13,,,,40,51
74880,note_off,1440,0,11,,,,,,,,10,,,,73,64
74880,note_on,5,0,2,,,,,,,,0,,,,52,55
75280,note_off,400,0,15,,,,,,,,14,,,,40,64
75280,note_off,400,0,13,,,,,,,,12,,,,52,64
75280,note_off,400,0,2,,,,,,,,0,,,,52,64
75280,note_off,400,0,9,,,,,,,,7,,,,40,64
75280,note_off,400,0,14,,,,,,,,13,,,,40,64
75280,note_off,400,0,8,,,,,,,,6,,,,52,64
75360,note_on,80,0,9,,,,,,,,7,,,,39,45
75360,note_on,80,0,8,,,,,,,,6,,,,51,45
75360,note_on,80,0,13,,,,,,,,12,,,,51,45
75360,note_on,80,0,14,,,,,,,,13,,,,39,45
75360,note_on,80,0,2,,,,,,,,0,,,,51,45
75360,note_on,80,0,15,,,,,,,,14,,,,39,30
75480,note_off,1320,0,10,,,,,,,,8,,,,75,64
75480,note_off,1320,0,5,,,,,,,,3,,,,75,64
75480,note_off,1320,0,7,,,,,,,,5,,,,68,64
75480,note_off,1320,0,1,,,,,,,,0,,,,63,64
75480,note_off,1320,0,12,,,,,,,,11,,,,68,64
75520,note_off,640,0,6,,,,,,,,4,,,,72,64
75520,note_off,640,0,11,,,,,,,,10,,,,72,64
75595,note_off,235,0,9,,,,,,,,7,,,,39,64
75595,note_off,235,0,2,,,,,,,,0,,,,51,64
75595,note_off,235,0,13,,,,,,,,12,,,,51,64
75595,note_off,235,0,14,,,,,,,,13,,,,39,64
75595,note_off,235,0,8,,,,,,,,6,,,,51,64
75595,note_off,235,0,15,,,,,,,,14,,,,39,64
75660,note_on,180,0,10,,,,,,,,8,,,,80,45
75660,note_on,65,0,2,,,,,,,,0,,,,49,45
75660,note_on,65,0,13,,,,,,,,12,,,,49,45
75660,note_on,65,0,8,,,,,,,,6,,,,49,45
75660,note_on,140,0,6,,,,,,,,4,,,,76,60
75660,note_on,65,0,9,,,,,,,,7,,,,37,45
75660,note_on,140,0,11,,,,,,,,10,,,,76,45
75660,note_on,180,0,5,,,,,,,,3,,,,80,60
75660,note_on,180,0,7,,,,,,,,5,,,,68,45
75660,note_on,180,0,12,,,,,,,,11,,,,68,45
75660,note_on,180,0,1,,,,,,,,0,,,,68,45
75660,note_on,65,0,15,,,,,,,,14,,,,37,30
75660,note_on,65,0,14,,,,,,,,13,,,,37,45
76380,note_off,720,0,1,,,,,,,,0,,,,68,64
76380,note_on,0,0,1,,,,,,,,0,,,,69,45
76380,note_on,0,0,7,,,,,,,,5,,,,64,45
76380,note_off,720,0,10,,,,,,,,8,,,,80,64
76380,note_off,720,0,7,,,,,,,,5,,,,68,64
76380,note_on,0,0,12,,,,,,,,11,,,,64,45
76380,note_off,720,0,12,,,,,,,,11,,,,68,64
76380,note_off,720,0,5,,,,,,,,3,,,,80,64
76380,note_on,0,0,5,,,,,,,,3,,,,81,60
76380,note_on,0,0,10,,,,,,,,8,,,,81,45
77100,note_off,1440,0,14,,,,,,,,13,,,,37,64
77100,note_on,0,0,15,,,,,,,,14,,,,39,30
77100,note_on,0,0,7,,,,,,,,5,,,,71,45
77100,note_off,720,0,7,,,,,,,,5,,,,64,64
77100,note_off,1440,0,8,,,,,,,,6,,,,49,64
77100,note_on,0,0,8,,,,,,,,6,,,,51,45
77100,note_off,720,0,10,,,,,,,,8,,,,81,64
77100,note_off,1440,0,13,,,,,,,,12,,,,49,64
77100,note_on,0,0,10,,,,,,,,8,,,,78,45
77100,note_on,0,0,5,,,,,,,,3,,,,78,60
77100,note_off,720,0,5,,,,,,,,3,,,,81,64
77100,note_off,720,0,12,,,,,,,,11,,,,64,64
77100,note_on,0,0,9,,,,,,,,7,,,,39,45
77100,note_off,1440,0,9,,,,,,,,7,,,,37,64
77100,note_on,0,0,14,,,,,,,,13,,,,39,45
77100,note_on,0,0,13,,,,,,,,12,,,,51,45
77100,note_on,0,0,12,,,,,,,,11,,,,71,45
77100,note_off,1440,0,15,,,,,,,,14,,,,37,64
77100,note_on,0,0,1,,,,,,,,0,,,,66,45
77100,note_off,1440,0,2,,,,,,,,0,,,,49,64
77100,note_on,0,0,2,,,,,,,,0,,,,51,45
77100,note_off,720,0,1,,,,,,,,0,,,,69,64
77820,note_on,0,0,5,,,,,,,,3,,,,80,60
77820,note_off,720,0,5,,,,,,,,3,,,,78,64
77820,note_on,0,0,9,,,,,,,,7,,,,36,45
77820,note_off,720,0,9,,,,,,,,7,,,,39,64
77820,note_off,720,0,7,,,,,,,,5,,,,71,64
77820,note_on,0,0,7,,,,,,,,5,,,,68,45
77820,note_on,0,0,15,,,,,,,,14,,,,36,30
77820,note_off,720,0,15,,,,,,,,14,,,,39,64
77820,note_on,0,0,12,,,,,,,,11,,,,68,45
77820,note_on,0,0,14,,,,,,,,13,,,,36,45
77820,note_off,720,0,14,,,,,,,,13,,,,39,64
77820,note_on,0,0,2,,,,,,,,0,,,,48,45
77820,note_off,720,0,2,,,,,,,,0,,,,51,64
77820,note_on,0,0,6,,,,,,,,4,,,,75,60
77820,note_off,2160,0,6,,,,,,,,4,,,,76,64
77820,note_off,720,0,13,,,,,,,,12,,,,51,64
77820,note_on,0,0,13,,,,,,,,12,,,,48,45
77820,note_on,0,0,8,,,,,,,,6,,,,48,45
77820,note_off,720,0,8,,,,,,,,6,,,,51,64
77820,note_on,0,0,11,,,,,,,,10,,,,75,45
77820,note_off,2160,0,11,,,,,,,,10,,,,76,64
77820,note_on,0,0,10,,,,,,,,8,,,,80,45
77820,note_off,720,0,10,,,,,,,,8,,,,78,64
77820,note_off,720,0,12,,,,,,,,11,,,,71,64
77820,note_off,720,0,1,,,,,,,,0,,,,66,64
77820,note_on,0,0,1,,,,,,,,0,,,,68,45
78540,note_on,0,0,2,,,,,,,,0,,,,49,45
78540,note_on,0,0,5,,,,,,,,3,,,,76,60
78540,note_off,720,0,5,,,,,,,,3,,,,80,64
78540,note_on,0,0,9,,,,,,,,7,,,,37,45
78540,note_off,720,0,9,,,,,,,,7,,,,36,64
78540,note_on,0,0,14,,,,,,,,13,,,,37,45
78540,note_off,720,0,10,,,,,,,,8,,,,80,64
78540,note_off,720,0,14,,,,,,,,13,,,,36,64
78540,note_on,0,0,15,,,,,,,,14,,,,37,30
78540,note_off,720,0,1,,,,,,,,0,,,,68,64
78540,note_on,0,0,1,,,,,,,,0,,,,64,45
78540,note_off,720,0,8,,,,,,,,6,,,,48,64
78540,note_on,0,0,8,,,,,,,,6,,,,49,45
78540,note_on,0,0,13,,,,,,,,12,,,,49,45
78540,note_off,720,0,13,,,,,,,,12,,,,48,64
78540,note_off,720,0,15,,,,,,,,14,,,,36,64
78540,note_off,720,0,2,,,,,,,,0,,,,48,64
78540,note_on,0,0,10,,,,,,,,8,,,,76,45
79260,note_off,720,0,8,,,,,,,,6,,,,49,64
79260,note_off,720,0,9,,,,,,,,7,,,,37,64
79260,note_on,0,0,9,,,,,,,,7,,,,42,56
79260,note_on,0,0,8,,,,,,,,6,,,,54,56
79260,note_off,1440,0,11,,,,,,,,10,,,,75,64
79260,note_on,0,0,5,,,,,,,,3,,,,78,72
79260,note_on,0,0,12,,,,,,,,11,,,,69,52
79260,note_on,0,0,11,,,,,,,,10,,,,73,52
79260,note_on,0,0,14,,,,,,,,13,,,,42,52
79260,note_off,720,0,14,,,,,,,,13,,,,37,64
79260,note_on,0,0,2,,,,,,,,0,,,,54,52
79260,note_off,720,0,2,,,,,,,,0,,,,49,64
79260,note_off,720,0,5,,,,,,,,3,,,,76,64
79260,note_off,1440,0,12,,,,,,,,11,,,,68,64
79260,note_off,1440,0,6,,,,,,,,4,,,,75,64
79260,note_off,720,0,15,,,,,,,,14,,,,37,64
79260,note_on,0,0,6,,,,,,,,4,,,,73,72
79260,note_off,720,0,13,,,,,,,,12,,,,49,64
79260,note_on,0,0,13,,,,,,,,12,,,,54,52
79260,note_off,720,0,10,,,,,,,,8,,,,76,64
79260,note_off,1440,0,7,,,,,,,,5,,,,68,64
79260,note_on,0,0,7,,,,,,,,5,,,,69,56
79260,note_on,0,0,15,,,,,,,,14,,,,42,37
79260,note_off,720,0,1,,,,,,,,0,,,,64,64
79260,note_on,0,0,1,,,,,,,,0,,,,66,52
79260,note_on,0,0,10,,,,,,,,8,,,,78,52
79980,note_on,0,0,1,,,,,,,,0,,,,63,59
79980,note_off,720,0,1,,,,,,,,0,,,,66,64
79980,note_on,0,0,14,,,,,,,,13,,,,44,59
79980,note_on,0,0,5,,,,,,,,3,,,,75,84
79980,note_off,720,0,15,,,,,,,,14,,,,42,64
79980,note_on,0,0,2,,,,,,,,0,,,,56,59
79980,note_off,720,0,2,,,,,,,,0,,,,54,64
79980,note_on,0,0,13,,,,,,,,12,,,,56,59
79980,note_off,720,0,13,,,,,,,,12,,,,54,64
79980,note_off,720,0,14,,,,,,,,13,,,,42,64
79980,note_off,720,0,5,,,,,,,,3,,,,78,64
79980,note_off,720,0,12,,,,,,,,11,,,,69,64
79980,note_on,0,0,10,,,,,,,,8,,,,75,59
79980,note_on,0,0,8,,,,,,,,6,,,,56,68
79980,note_off,720,0,8,,,,,,,,6,,,,54,64
79980,note_on,0,0,12,,,,,,,,11,,,,68,59
79980,note_off,720,0,7,,,,,,,,5,,,,69,64
79980,note_on,0,0,7,,,,,,,,5,,,,68,68
79980,note_on,0,0,15,,,,,,,,14,,,,44,44
79980,note_on,0,0,9,,,,,,,,7,,,,44,68
79980,note_off,720,0,9,,,,,,,,7,,,,42,64
79980,note_off,720,0,10,,,,,,,,8,,,,78,64
80380,note_off,400,0,13,,,,,,,,12,,,,56,64
80380,note_off,400,0,2,,,,,,,,0,,,,56,64
80380,note_off,400,0,15,,,,,,,,14,,,,44,64
80380,note_off,400,0,9,,,,,,,,7,,,,44,64
80380,note_off,400,0,14,,,,,,,,13,,,,44,64
80380,note_off,400,0,8,,,,,,,,6,,,,56,64
80460,note_on,80,0,13,,,,,,,,12,,,,54,64
80460,note_on,80,0,14,,,,,,,,13,,,,42,64
80460,note_on,80,0,9,,,,,,,,7,,,,42,76
80460,note_on,80,0,15,,,,,,,,14,,,,42,49
80460,note_on,80,0,2,,,,,,,,0,,,,54,64
80460,note_on,80,0,8,,,,,,,,6,,,,54,76
80695,note_off,235,0,15,,,,,,,,14,,,,42,64
80695,note_off,235,0,9,,,,,,,,7,,,,42,64
80695,note_off,235,0,8,,,,,,,,6,,,,54,64
80695,note_off,235,0,14,,,,,,,,13,,,,42,64
80695,note_off,235,0,2,,,,,,,,0,,,,54,64
80695,note_off,235,0,13,,,,,,,,12,,,,54,64
80700,note_on,5,0,2,,,,,,,,0,,,,52,66
80700,note_on,0,0,6,,,,,,,,4,,,,72,96
80700,note_on,5,0,13,,,,,,,,12,,,,52,66
80700,note_on,5,0,9,,,,,,,,7,,,,40,80
80700,note_on,5,0,14,,,,,,,,13,,,,40,66
80700,note_on,5,0,8,,,,,,,,6,,,,52,80
80700,note_off,1440,0,11,,,,,,,,10,,,,73,64
80700,note_on,0,0,11,,,,,,,,10,,,,72,67
80700,note_off,1440,0,6,,,,,,,,4,,,,73,64
80700,note_on,5,0,15,,,,,,,,14,,,,40,51
81100,note_off,400,0,2,,,,,,,,0,,,,52,64
81100,note_off,400,0,14,,,,,,,,13,,,,40,64
81100,note_off,400,0,8,,,,,,,,6,,,,52,64
81100,note_off,400,0,9,,,,,,,,7,,,,40,64
81100,note_off,400,0,13,,,,,,,,12,,,,52,64
81100,note_off,400,0,15,,,,,,,,14,,,,40,64
81180,note_on,80,0,8,,,,,,,,6,,,,51,88
81180,note_on,80,0,2,,,,,,,,0,,,,51,72
81180,note_on,80,0,9,,,,,,,,7,,,,39,88
81180,note_on,80,0,13,,,,,,,,12,,,,51,72
81180,note_on,80,0,15,,,,,,,,14,,,,39,57
81180,note_on,80,0,14,,,,,,,,13,,,,39,72
81300,note_off,1320,0,1,,,,,,,,0,,,,63,64
81300,note_off,1320,0,12,,,,,,,,11,,,,68,64
81300,note_off,1320,0,7,,,,,,,,5,,,,68,64
81300,note_off,1320,0,10,,,,,,,,8,,,,75,64
81300,note_off,1320,0,5,,,,,,,,3,,,,75,64
81340,note_off,640,0,11,,,,,,,,10,,,,72,64
81340,note_off,640,0,6,,,,,,,,4,,,,72,64
81415,note_off,235,0,13,,,,,,,,12,,,,51,64
81415,note_off,235,0,14,,,,,,,,13,,,,39,64
81415,note_off,235,0,8,,,,,,,,6,,,,51,64
81415,note_off,235,0,15,,,,,,,,14,,,,39,64
81415,note_off,235,0,2,,,,,,,,0,,,,51,64
81415,note_off,235,0,9,,,,,,,,7,,,,39,64
81420,note_on,120,0,10,,,,,,,,8,,,,80,75
81420,note_on,5,0,9,,,,,,,,7,,,,37,92
81420,note_on,5,0,13,,,,,,,,12,,,,49,75
81420,note_on,5,0,15,,,,,,,,14,,,,37,60
81420,note_on,120,0,1,,,,,,,,0,,,,68,75
81420,note_on,120,0,12,,,,,,,,11,,,,68,75
81420,note_on,120,0,7,,,,,,,,5,,,,68,92
81420,note_on,5,0,14,,,,,,,,13,,,,37,75
81420,note_on,80,0,6,,,,,,,,4,,,,76,108
81420,note_on,80,0,11,,,,,,,,10,,,,76,75
81420,note_on,5,0,2,,,,,,,,0,,,,49,75
81420,note_on,120,0,5,,,,,,,,3,,,,80,108
81420,note_on,5,0,8,,,,,,,,6,,,,49,92
81660,note_off,240,0,5,,,,,,,,3,,,,80,64
81660,note_on,0,0,5,,,,,,,,3,,,,81,108
81660,note_on,0,0,10,,,,,,,,8,,,,81,75
81660,note_off,240,0,10,,,,,,,,8,,,,80,64
81660,note_off,240,0,1,,,,,,,,0,,,,68,64
81660,note_on,0,0,1,,,,,,,,0,,,,69,75
81900,note_off,240,0,1,,,,,,,,0,,,,69,64
81900,note_off,240,0,5,,,,,,,,3,,,,81,64
81900,note_on,0,0,1,,,,,,,,0,,,,71,75
81900,note_on,0,0,5,,,,,,,,3,,,,83,108
81900,note_on,0,0,10,,,,,,,,8,,,,83,75
81900,note_off,240,0,10,,,,,,,,8,,,,81,64
81980,note_off,80,0,1,,,,,,,,0,,,,71,64
81980,note_off,80,0,5,,,,,,,,3,,,,83,64
81980,note_off,80,0,10,,,,,,,,8,,,,83,64
82140,note_on,160,0,5,,,,,,,,3,,,,83,108
82140,note_on,160,0,10,,,,,,,,8,,,,83,75
82140,note_on,0,0,7,,,,,,,,5,,,,73,92
82140,note_on,0,0,12,,,,,,,,11,,,,73,75
82140,note_off,720,0,12,,,,,,,,11,,,,68,64
82140,note_on,160,0,1,,,,,,,,0,,,,71,75
82140,note_off,720,0,7,,,,,,,,5,,,,68,64
82380,note_off,240,0,5,,,,,,,,3,,,,83,64
82380,note_on,0,0,1,,,,,,,,0,,,,69,75
82380,note_on,0,0,10,,,,,,,,8,,,,81,75
82380,note_off,240,0,10,,,,,,,,8,,,,83,64
82380,note_off,240,0,1,,,,,,,,0,,,,71,64
82380,note_on,0,0,5,,,,,,,,3,,,,81,108
82620,note_on,0,0,10,,,,,,,,8,,,,80,75
82620,note_off,240,0,10,,,,,,,,8,,,,81,64
82620,note_on,0,0,1,,,,,,,,0,,,,68,75
82620,note_on,0,0,5,,,,,,,,3,,,,80,108
82620,note_off,240,0,5,,,,,,,,3,,,,81,64
82620,note_off,240,0,1,,,,,,,,0,,,,69,64
82700,note_off,80,0,5,,,,,,,,3,,,,80,64
82700,note_off,80,0,10,,,,,,,,8,,,,80,64
82700,note_off,80,0,1,,,,,,,,0,,,,68,64
82740,note_off,1320,0,15,,,,,,,,14,,,,37,64
82860,note_on,0,0,6,,,,,,,,4,,,,78,108
82860,note_off,720,0,7,,,,,,,,5,,,,73,64
82860,note_off,1440,0,2,,,,,,,,0,,,,49,64
82860,note_on,0,0,7,,,,,,,,5,,,,73,92
82860,note_on,160,0,10,,,,,,,,8,,,,81,75
82860,note_on,0,0,8,,,,,,,,6,,,,54,92
82860,note_off,1440,0,8,,,,,,,,6,,,,49,64
82860,note_on,0,0,2,,,,,,,,0,,,,54,75
82860,note_off,1440,0,6,,,,,,,,4,,,,76,64
82860,note_on,0,0,12,,,,,,,,11,,,,73,75
82860,note_on,0,0,11,,,,,,,,10,,,,78,75
82860,note_off,1440,0,11,,,,,,,,10,,,,76,64
82860,note_on,160,0,5,,,,,,,,3,,,,81,108
82860,note_off,720,0,12,,,,,,,,11,,,,73,64
82860,note_on,0,0,14,,,,,,,,13,,,,42,75
82860,note_on,0,0,9,,,,,,,,7,,,,42,92
82860,note_off,1440,0,9,,,,,,,,7,,,,37,64
82860,note_on,0,0,13,,,,,,,,12,,,,54,75
82860,note_off,1440,0,13,,,,,,,,12,,,,49,64
82860,note_off,1440,0,14,,,,,,,,13,,,,37,64
82860,note_on,160,0,1,,,,,,,,0,,,,69,75
83100,note_off,240,0,7,,,,,,,,5,,,,73,64
83100,note_off,240,0,12,,,,,,,,11,,,,73,64
83100,note_off,240,0,2,,,,,,,,0,,,,54,64
83100,note_off,240,0,14,,,,,,,,13,,,,42,64
83100,note_on,0,0,14,,,,,,,,13,,,,44,75
83100,note_off,240,0,8,,,,,,,,6,,,,54,64
83100,note_on,0,0,7,,,,,,,,5,,,,71,92
83100,note_on,0,0,9,,,,,,,,7,,,,44,92
83100,note_off,240,0,9,,,,,,,,7,,,,42,64
83100,note_on,0,0,8,,,,,,,,6,,,,56,92
83100,note_on,0,0,12,,,,,,,,11,,,,71,75
83100,note_off,240,0,13,,,,,,,,12,,,,54,64
83100,note_on,0,0,13,,,,,,,,12,,,,56,75
83100,note_on,0,0,2,,,,,,,,0,,,,56,75
83340,note_off,240,0,8,,,,,,,,6,,,,56,64
83340,note_on,0,0,8,,,,,,,,6,,,,57,92
83340,note_off,240,0,13,,,,,,,,12,,,,56,64
83340,note_off,240,0,12,,,,,,,,11,,,,71,64
83340,note_on,0,0,13,,,,,,,,12,,,,57,75
83340,note_on,0,0,7,,,,,,,,5,,,,73,92
83340,note_off,240,0,14,,,,,,,,13,,,,44,64
83340,note_on,0,0,2,,,,,,,,0,,,,57,75
83340,note_off,240,0,2,,,,,,,,0,,,,56,64
83340,note_off,240,0,7,,,,,,,,5,,,,71,64
83340,note_on,0,0,9,,,,,,,,7,,,,45,92
83340,note_off,240,0,9,,,,,,,,7,,,,44,64
83340,note_on,0,0,14,,,,,,,,13,,,,45,75
83340,note_on,0,0,12,,,,,,,,11,,,,73,75
83580,note_on,0,0,2,,,,,,,,0,,,,57,75
83580,note_off,240,0,2,,,,,,,,0,,,,57,64
83580,note_on,0,0,8,,,,,,,,6,,,,57,92
83580,note_off,240,0,8,,,,,,,,6,,,,57,64
83580,note_on,0,0,7,,,,,,,,5,,,,73,92
83580,note_off,240,0,7,,,,,,,,5,,,,73,64
83580,note_on,0,0,12,,,,,,,,11,,,,73,75
83580,note_on,0,0,9,,,,,,,,7,,,,45,92
83580,note_off,240,0,13,,,,,,,,12,,,,57,64
83580,note_on,0,0,13,,,,,,,,12,,,,57,75
83580,note_on,0,0,14,,,,,,,,13,,,,45,75
83580,note_off,240,0,9,,,,,,,,7,,,,45,64
83580,note_off,240,0,14,,,,,,,,13,,,,45,64
83580,note_off,240,0,12,,,,,,,,11,,,,73,64
83820,note_on,0,0,2,,,,,,,,0,,,,56,75
83820,note_on,0,0,9,,,,,,,,7,,,,44,92
83820,note_off,240,0,9,,,,,,,,7,,,,45,64
83820,note_off,240,0,12,,,,,,,,11,,,,73,64
83820,note_on,0,0,8,,,,,,,,6,,,,56,92
83820,note_off,240,0,8,,,,,,,,6,,,,57,64
83820,note_on,0,0,13,,,,,,,,12,,,,56,75
83820,note_off,240,0,13,,,,,,,,12,,,,57,64
83820,note_off,240,0,7,,,,,,,,5,,,,73,64
83820,note_on,0,0,7,,,,,,,,5,,,,71,92
83820,note_off,240,0,14,,,,,,,,13,,,,45,64
83820,note_on,0,0,14,,,,,,,,13,,,,44,75
83820,note_off,240,0,2,,,,,,,,0,,,,57,64
83820,note_on,0,0,12,,,,,,,,11,,,,71,75
84060,note_on,0,0,14,,,,,,,,13,,,,42,75
84060,note_off,240,0,2,,,,,,,,0,,,,56,64
84060,note_off,240,0,12,,,,,,,,11,,,,71,64
84060,note_on,0,0,12,,,,,,,,11,,,,69,75
84060,note_off,240,0,13,,,,,,,,12,,,,56,64
84060,note_on,0,0,2,,,,,,,,0,,,,54,75
84060,note_on,0,0,13,,,,,,,,12,,,,54,75
84060,note_off,240,0,14,,,,,,,,13,,,,44,64
84060,note_on,0,0,7,,,,,,,,5,,,,69,92
84060,note_off,240,0,7,,,,,,,,5,,,,71,64
84060,note_on,0,0,8,,,,,,,,6,,,,54,92
84060,note_off,240,0,8,,,,,,,,6,,,,56,64
84060,note_off,240,0,9,,,,,,,,7,,,,44,64
84060,note_on,0,0,9,,,,,,,,7,,,,42,92
84180,note_off,1320,0,10,,,,,,,,8,,,,81,64
84180,note_off,1320,0,1,,,,,,,,0,,,,69,64
84180,note_off,1320,0,5,,,,,,,,3,,,,81,64
84300,note_off,240,0,9,,,,,,,,7,,,,42,64
84300,note_on,0,0,8,,,,,,,,6,,,,47,92
84300,note_off,240,0,8,,,,,,,,6,,,,54,64
84300,note_off,1440,0,11,,,,,,,,10,,,,78,64
84300,note_off,240,0,13,,,,,,,,12,,,,54,64
84300,note_off,240,0,2,,,,,,,,0,,,,54,64
84300,note_on,0,0,2,,,,,,,,0,,,,47,75
84300,note_on,0,0,6,,,,,,,,4,,,,75,108
84300,note_on,0,0,9,,,,,,,,7,,,,35,92
84300,note_off,1440,0,6,,,,,,,,4,,,,78,64
84300,note_on,120,0,10,,,,,,,,8,,,,78,75
84300,note_on,0,0,14,,,,,,,,13,,,,35,75
84300,note_on,0,0,13,,,,,,,,12,,,,47,75
84300,note_on,120,0,1,,,,,,,,0,,,,66,75
84300,note_off,240,0,12,,,,,,,,11,,,,69,64
84300,note_on,0,0,12,,,,,,,,11,,,,71,75
84300,note_on,120,0,5,,,,,,,,3,,,,78,108
84300,note_on,1560,0,15,,,,,,,,14,,,,35,60
84300,note_off,240,0,14,,,,,,,,13,,,,42,64
84300,note_on,0,0,11,,,,,,,,10,,,,75,75
84300,note_on,0,0,7,,,,,,,,5,,,,71,92
84300,note_off,240,0,7,,,,,,,,5,,,,69,64
84540,note_on,0,0,1,,,,,,,,0,,,,68,75
84540,note_off,240,0,1,,,,,,,,0,,,,66,64
84540,note_off,240,0,5,,,,,,,,3,,,,78,64
84540,note_on,0,0,5,,,,,,,,3,,,,80,108
84540,note_on,0,0,10,,,,,,,,8,,,,80,75
84540,note_off,240,0,10,,,,,,,,8,,,,78,64
84780,note_on,0,0,10,,,,,,,,8,,,,81,75
84780,note_off,240,0,5,,,,,,,,3,,,,80,64
84780,note_on,0,0,5,,,,,,,,3,,,,81,108
84780,note_off,240,0,10,,,,,,,,8,,,,80,64
84780,note_on,0,0,1,,,,,,,,0,,,,69,75
84780,note_off,240,0,1,,,,,,,,0,,,,68,64
84860,note_off,80,0,10,,,,,,,,8,,,,81,64
84860,note_off,80,0,1,,,,,,,,0,,,,69,64
84860,note_off,80,0,5,,,,,,,,3,,,,81,64
85020,note_on,160,0,5,,,,,,,,3,,,,81,108
85020,note_on,160,0,1,,,,,,,,0,,,,69,75
85020,note_on,160,0,10,,,,,,,,8,,,,81,75
85260,note_on,0,0,5,,,,,,,,3,,,,80,108
85260,note_off,240,0,1,,,,,,,,0,,,,69,64
85260,note_on,0,0,1,,,,,,,,0,,,,68,75
85260,note_off,240,0,5,,,,,,,,3,,,,81,64
85260,note_off,240,0,10,,,,,,,,8,,,,81,64
85260,note_on,0,0,10,,,,,,,,8,,,,80,75
85500,note_off,240,0,10,,,,,,,,8,,,,80,64
85500,note_off,240,0,5,,,,,,,,3,,,,80,64
85500,note_on,0,0,5,,,,,,,,3,,,,78,108
85500,note_on,0,0,10,,,,,,,,8,,,,78,75
85500,note_on,0,0,1,,,,,,,,0,,,,66,75
85500,note_off,240,0,1,,,,,,,,0,,,,68,64
85580,note_off,80,0,10,,,,,,,,8,,,,78,64
85580,note_off,80,0,5,,,,,,,,3,,,,78,64
85580,note_off,80,0,1,,,,,,,,0,,,,66,64
85620,note_off,1320,0,15,,,,,,,,14,,,,35,64
85740,note_on,0,0,2,,,,,,,,0,,,,52,75
85740,note_on,0,0,14,,,,,,,,13,,,,40,75
85740,note_off,1440,0,9,,,,,,,,7,,,,35,64
85740,note_on,0,0,9,,,,,,,,7,,,,40,92
85740,note_on,0,0,11,,,,,,,,10,,,,76,75
85740,note_on,0,0,13,,,,,,,,12,,,,52,75
85740,note_off,1440,0,2,,,,,,,,0,,,,47,64
85740,note_on,160,0,1,,,,,,,,0,,,,68,75
85740,note_on,160,0,10,,,,,,,,8,,,,80,75
85740,note_off,1440,0,8,,,,,,,,6,,,,47,64
85740,note_on,0,0,6,,,,,,,,4,,,,76,108
85740,note_off,1440,0,11,,,,,,,,10,,,,75,64
85740,note_off,1440,0,14,,,,,,,,13,,,,35,64
85740,note_on,160,0,5,,,,,,,,3,,,,80,108
85740,note_off,1440,0,13,,,,,,,,12,,,,47,64
85740,note_on,0,0,8,,,,,,,,6,,,,52,92
85740,note_off,1440,0,6,,,,,,,,4,,,,75,64
85980,note_off,240,0,14,,,,,,,,13,,,,40,64
85980,note_on,0,0,14,,,,,,,,13,,,,42,75
85980,note_off,1680,0,7,,,,,,,,5,,,,71,64
85980,note_on,0,0,7,,,,,,,,5,,,,69,92
85980,note_off,240,0,2,,,,,,,,0,,,,52,64
85980,note_off,240,0,9,,,,,,,,7,,,,40,64
85980,note_on,0,0,13,,,,,,,,12,,,,54,75
85980,note_on,0,0,8,,,,,,,,6,,,,54,92
85980,note_off,240,0,8,,,,,,,,6,,,,52,64
85980,note_on,0,0,12,,,,,,,,11,,,,69,75
85980,note_on,0,0,2,,,,,,,,0,,,,54,75
85980,note_off,1680,0,12,,,,,,,,11,,,,71,64
85980,note_on,0,0,9,,,,,,,,7,,,,42,92
85980,note_off,240,0,13,,,,,,,,12,,,,52,64
86220,note_off,240,0,9,,,,,,,,7,,,,42,64
86220,note_on,0,0,12,,,,,,,,11,,,,71,75
86220,note_off,240,0,8,,,,,,,,6,,,,54,64
86220,note_on,0,0,8,,,,,,,,6,,,,56,92
86220,note_off,240,0,12,,,,,,,,11,,,,69,64
86220,note_on,0,0,13,,,,,,,,12,,,,56,75
86220,note_on,0,0,2,,,,,,,,0,,,,56,75
86220,note_off,240,0,14,,,,,,,,13,,,,42,64
86220,note_on,0,0,14,,,,,,,,13,,,,44,75
86220,note_off,240,0,7,,,,,,,,5,,,,69,64
86220,note_on,0,0,7,,,,,,,,5,,,,71,92
86220,note_off,240,0,13,,,,,,,,12,,,,54,64
86220,note_on,0,0,9,,,,,,,,7,,,,44,92
86220,note_off,240,0,2,,,,,,,,0,,,,54,64
86460,note_on,0,0,13,,,,,,,,12,,,,56,75
86460,note_off,240,0,13,,,,,,,,12,,,,56,64
86460,note_off,240,0,2,,,,,,,,0,,,,56,64
86460,note_off,240,0,9,,,,,,,,7,,,,44,64
86460,note_on,0,0,7,,,,,,,,5,,,,71,92
86460,note_off,240,0,12,,,,,,,,11,,,,71,64
86460,note_on,0,0,9,,,,,,,,7,,,,44,92
86460,note_off,240,0,7,,,,,,,,5,,,,71,64
86460,note_on,0,0,14,,,,,,,,13,,,,44,75
86460,note_off,240,0,14,,,,,,,,13,,,,44,64
86460,note_off,240,0,8,,,,,,,,6,,,,56,64
86460,note_on,0,0,8,,,,,,,,6,,,,56,92
86460,note_on,0,0,12,,,,,,,,11,,,,71,75
86460,note_on,0,0,2,,,,,,,,0,,,,56,75
86700,note_off,240,0,9,,,,,,,,7,,,,44,64
86700,note_on,0,0,7,,,,,,,,5,,,,69,92
86700,note_off,240,0,7,,,,,,,,5,,,,71,64
86700,note_off,240,0,2,,,,,,,,0,,,,56,64
86700,note_on,0,0,2,,,,,,,,0,,,,54,75
86700,note_on,0,0,13,,,,,,,,12,,,,54,75
86700,note_on,0,0,9,,,,,,,,7,,,,42,92
86700,note_off,240,0,13,,,,,,,,12,,,,56,64
86700,note_on,0,0,12,,,,,,,,11,,,,69,75
86700,note_on,0,0,14,,,,,,,,13,,,,42,75
86700,note_off,240,0,14,,,,,,,,13,,,,44,64
86700,note_off,240,0,8,,,,,,,,6,,,,56,64
86700,note_on,0,0,8,,,,,,,,6,,,,54,92
86700,note_off,240,0,12,,,,,,,,11,,,,71,64
86940,note_on,0,0,8,,,,,,,,6,,,,52,92
86940,note_on,0,0,12,,,,,,,,11,,,,68,75
86940,note_off,240,0,12,,,,,,,,11,,,,69,64
86940,note_off,240,0,2,,,,,,,,0,,,,54,64
86940,note_off,240,0,9,,,,,,,,7,,,,42,64
86940,note_on,0,0,2,,,,,,,,0,,,,52,75
86940,note_on,0,0,9,,,,,,,,7,,,,40,92
86940,note_off,240,0,8,,,,,,,,6,,,,54,64
86940,note_on,0,0,7,,,,,,,,5,,,,68,92
86940,note_off,240,0,7,,,,,,,,5,,,,69,64
86940,note_on,0,0,13,,,,,,,,12,,,,52,75
86940,note_off,240,0,13,,,,,,,,12,,,,54,64
86940,note_on,0,0,14,,,,,,,,13,,,,40,75
86940,note_off,240,0,14,,,,,,,,13,,,,42,64
87060,note_off,1320,0,6,,,,,,,,4,,,,76,64
87060,note_off,1320,0,10,,,,,,,,8,,,,80,64
87060,note_off,1320,0,11,,,,,,,,10,,,,76,64
87060,note_off,1320,0,5,,,,,,,,3,,,,80,64
87060,note_off,1320,0,1,,,,,,,,0,,,,68,64
87180,note_off,240,0,7,,,,,,,,5,,,,68,64
87180,note_on,0,0,7,,,,,,,,5,,,,63,92
87180,note_on,120,0,6,,,,,,,,4,,,,78,108
87180,note_on,120,0,1,,,,,,,,0,,,,71,75
87180,note_off,240,0,9,,,,,,,,7,,,,40,64
87180,note_off,240,0,13,,,,,,,,12,,,,52,64
87180,note_on,0,0,13,,,,,,,,12,,,,47,75
87180,note_on,0,0,2,,,,,,,,0,,,,47,75
87180,note_off,240,0,2,,,,,,,,0,,,,52,64
87180,note_on,0,0,8,,,,,,,,6,,,,47,92
87180,note_off,240,0,12,,,,,,,,11,,,,68,64
87180,note_on,0,0,14,,,,,,,,13,,,,35,75
87180,note_off,240,0,14,,,,,,,,13,,,,40,64
87180,note_on,0,0,9,,,,,,,,7,,,,35,92
87180,note_off,240,0,8,,,,,,,,6,,,,52,64
87180,note_on,120,0,5,,,,,,,,3,,,,83,108
87180,note_on,120,0,11,,,,,,,,10,,,,78,75
87180,note_on,120,0,10,,,,,,,,8,,,,83,75
87180,note_on,0,0,12,,,,,,,,11,,,,63,75
87420,note_on,0,0,8,,,,,,,,6,,,,49,92
87420,note_off,240,0,8,,,,,,,,6,,,,47,64
87420,note_off,240,0,2,,,,,,,,0,,,,47,64
87420,note_on,0,0,13,,,,,,,,12,,,,49,75
87420,note_on,0,0,2,,,,,,,,0,,,,49,75
87420,note_off,240,0,13,,,,,,,,12,,,,47,64
87420,note_off,240,0,9,,,,,,,,7,,,,35,64
87420,note_on,0,0,9,,,,,,,,7,,,,37,92
87420,note_on,0,0,14,,,,,,,,13,,,,37,75
87420,note_off,240,0,14,,,,,,,,13,,,,35,64
87660,note_on,0,0,9,,,,,,,,7,,,,39,92
87660,note_on,0,0,13,,,,,,,,12,,,,51,75
87660,note_off,240,0,13,,,,,,,,12,,,,49,64
87660,note_off,240,0,9,,,,,,,,7,,,,37,64
87660,note_on,0,0,2,,,,,,,,0,,,,51,75
87660,note_off,240,0,14,,,,,,,,13,,,,37,64
87660,note_off,240,0,8,,,,,,,,6,,,,49,64
87660,note_on,0,0,8,,,,,,,,6,,,,51,92
87660,note_on,0,0,14,,,,,,,,13,,,,39,75
87660,note_off,240,0,2,,,,,,,,0,,,,49,64
87900,note_on,0,0,1,,,,,,,,0,,,,69,75
87900,note_off,720,0,1,,,,,,,,0,,,,71,64
87900,note_off,240,0,2,,,,,,,,0,,,,51,64
87900,note_on,0,0,2,,,,,,,,0,,,,51,75
87900,note_on,0,0,10,,,,,,,,8,,,,81,75
87900,note_off,240,0,9,,,,,,,,7,,,,39,64
87900,note_on,0,0,13,,,,,,,,12,,,,51,75
87900,note_on,0,0,9,,,,,,,,7,,,,39,92
87900,note_off,240,0,13,,,,,,,,12,,,,51,64
87900,note_off,240,0,8,,,,,,,,6,,,,51,64
87900,note_on,0,0,8,,,,,,,,6,,,,51,92
87900,note_off,720,0,10,,,,,,,,8,,,,83,64
87900,note_on,0,0,5,,,,,,,,3,,,,81,108
87900,note_off,720,0,5,,,,,,,,3,,,,83,64
87900,note_off,240,0,14,,,,,,,,13,,,,39,64
87900,note_on,0,0,14,,,,,,,,13,,,,39,75
88140,note_off,240,0,14,,,,,,,,13,,,,39,64
88140,note_off,240,0,9,,,,,,,,7,,,,39,64
88140,note_on,0,0,13,,,,,,,,12,,,,49,75
88140,note_on,0,0,14,,,,,,,,13,,,,37,75
88140,note_off,240,0,13,,,,,,,,12,,,,51,64
88140,note_on,0,0,9,,,,,,,,7,,,,37,92
88140,note_on,0,0,2,,,,,,,,0,,,,49,75
88140,note_off,240,0,2,,,,,,,,0,,,,51,64
88140,note_off,240,0,8,,,,,,,,6,,,,51,64
88140,note_on,0,0,8,,,,,,,,6,,,,49,92
88380,note_off,240,0,8,,,,,,,,6,,,,49,64
88380,note_off,240,0,9,,,,,,,,7,,,,37,64
88380,note_on,0,0,9,,,,,,,,7,,,,35,92
88380,note_on,0,0,2,,,,,,,,0,,,,47,75
88380,note_off,240,0,2,,,,,,,,0,,,,49,64
88380,note_off,240,0,14,,,,,,,,13,,,,37,64
88380,note_on,0,0,13,,,,,,,,12,,,,47,75
88380,note_off,240,0,13,,,,,,,,12,,,,49,64
88380,note_on,0,0,14,,,,,,,,13,,,,35,75
88380,note_on,0,0,8,,,,,,,,6,,,,47,92
88620,note_on,0,0,13,,,,,,,,12,,,,52,75
88620,note_off,240,0,13,,,,,,,,12,,,,47,64
88620,note_off,1440,0,11,,,,,,,,10,,,,78,64
88620,note_on,0,0,11,,,,,,,,10,,,,76,75
88620,note_off,240,0,14,,,,,,,,13,,,,35,64
88620,note_on,0,0,2,,,,,,,,0,,,,52,75
88620,note_off,1440,0,12,,,,,,,,11,,,,63,64
88620,note_on,0,0,12,,,,,,,,11,,,,59,75
88620,note_off,1440,0,6,,,,,,,,4,,,,78,64
88620,note_on,0,0,6,,,,,,,,4,,,,76,108
88620,note_on,0,0,8,,,,,,,,6,,,,52,92
88620,note_off,240,0,8,,,,,,,,6,,,,47,64
88620,note_off,240,0,2,,,,,,,,0,,,,47,64
88620,note_on,0,0,14,,,,,,,,13,,,,40,75
88620,note_off,1440,0,7,,,,,,,,5,,,,63,64
88620,note_on,0,0,1,,,,,,,,0,,,,68,75
88620,note_on,0,0,7,,,,,,,,5,,,,59,92
88620,note_off,720,0,1,,,,,,,,0,,,,69,64
88620,note_on,0,0,5,,,,,,,,3,,,,80,108
88620,note_off,720,0,5,,,,,,,,3,,,,81,64
88620,note_off,720,0,10,,,,,,,,8,,,,81,64
88620,note_on,0,0,10,,,,,,,,8,,,,80,75
88620,note_on,0,0,9,,,,,,,,7,,,,40,92
88620,note_off,240,0,9,,,,,,,,7,,,,35,64
88860,note_off,240,0,10,,,,,,,,8,,,,80,64
88860,note_on,0,0,5,,,,,,,,3,,,,78,108
88860,note_off,240,0,5,,,,,,,,3,,,,80,64
88860,note_off,240,0,6,,,,,,,,4,,,,76,64
88860,note_on,0,0,6,,,,,,,,4,,,,71,108
88860,note_on,0,0,13,,,,,,,,12,,,,54,75
88860,note_off,240,0,13,,,,,,,,12,,,,52,64
88860,note_on,0,0,8,,,,,,,,6,,,,54,92
88860,note_off,240,0,8,,,,,,,,6,,,,52,64
88860,note_on,0,0,11,,,,,,,,10,,,,71,75
88860,note_off,240,0,2,,,,,,,,0,,,,52,64
88860,note_on,0,0,2,,,,,,,,0,,,,54,75
88860,note_on,0,0,10,,,,,,,,8,,,,78,75
88860,note_off,240,0,11,,,,,,,,10,,,,76,64
88860,note_off,240,0,9,,,,,,,,7,,,,40,64
88860,note_off,240,0,14,,,,,,,,13,,,,40,64
88860,note_on,0,0,14,,,,,,,,13,,,,42,75
88860,note_on,0,0,1,,,,,,,,0,,,,66,75
88860,note_off,240,0,1,,,,,,,,0,,,,68,64
88860,note_on,0,0,9,,,,,,,,7,,,,42,92
89100,note_off,240,0,5,,,,,,,,3,,,,78,64
89100,note_off,240,0,13,,,,,,,,12,,,,54,64
89100,note_off,240,0,6,,,,,,,,4,,,,71,64
89100,note_on,0,0,6,,,,,,,,4,,,,68,108
89100,note_on,0,0,10,,,,,,,,8,,,,76,75
89100,note_on,0,0,9,,,,,,,,7,,,,44,92
89100,note_off,240,0,9,,,,,,,,7,,,,42,64
89100,note_on,0,0,1,,,,,,,,0,,,,64,75
89100,note_off,240,0,1,,,,,,,,0,,,,66,64
89100,note_on,0,0,13,,,,,,,,12,,,,56,75
89100,note_off,240,0,10,,,,,,,,8,,,,78,64
89100,note_on,0,0,5,,,,,,,,3,,,,76,108
89100,note_on,0,0,11,,,,,,,,10,,,,68,75
89100,note_off,240,0,11,,,,,,,,10,,,,71,64
89100,note_on,0,0,2,,,,,,,,0,,,,56,75
89100,note_off,240,0,2,,,,,,,,0,,,,54,64
89100,note_on,0,0,14,,,,,,,,13,,,,44,75
89100,note_off,240,0,14,,,,,,,,13,,,,42,64
89100,note_off,240,0,8,,,,,,,,6,,,,54,64
89100,note_on,0,0,8,,,,,,,,6,,,,56,92
89340,note_on,0,0,14,,,,,,,,13,,,,44,75
89340,note_on,0,0,2,,,,,,,,0,,,,56,75
89340,note_off,240,0,2,,,,,,,,0,,,,56,64
89340,note_off,240,0,8,,,,,,,,6,,,,56,64
89340,note_on,0,0,8,,,,,,,,6,,,,56,92
89340,note_off,240,0,14,,,,,,,,13,,,,44,64
89340,note_on,0,0,13,,,,,,,,12,,,,56,75
89340,note_off,240,0,13,,,,,,,,12,,,,56,64
89340,note_on,0,0,9,,,,,,,,7,,,,44,92
89340,note_off,240,0,9,,,,,,,,7,,,,44,64
89580,note_off,240,0,9,,,,,,,,7,,,,44,64
89580,note_off,240,0,14,,,,,,,,13,,,,44,64
89580,note_on,0,0,14,,,,,,,,13,,,,42,75
89580,note_on,0,0,2,,,,,,,,0,,,,54,75
89580,note_off,240,0,13,,,,,,,,12,,,,56,64
89580,note_on,0,0,13,,,,,,,,12,,,,54,75
89580,note_off,240,0,2,,,,,,,,0,,,,56,64
89580,note_on,0,0,9,,,,,,,,7,,,,42,92
89580,note_off,240,0,8,,,,,,,,6,,,,56,64
89580,note_on,0,0,8,,,,,,,,6,,,,54,92
89740,note_off,640,0,11,,,,,,,,10,,,,68,64
89740,note_off,640,0,1,,,,,,,,0,,,,64,64
89740,note_off,640,0,6,,,,,,,,4,,,,68,64
89740,note_off,640,0,10,,,,,,,,8,,,,76,64
89740,note_off,640,0,5,,,,,,,,3,,,,76,64
89820,note_on,80,0,1,,,,,,,,0,,,,68,75
89820,note_on,80,0,11,,,,,,,,10,,,,76,75
89820,note_on,80,0,10,,,,,,,,8,,,,80,75
89820,note_on,0,0,9,,,,,,,,7,,,,40,92
89820,note_on,0,0,8,,,,,,,,6,,,,52,92
89820,note_on,0,0,2,,,,,,,,0,,,,52,75
89820,note_off,240,0,2,,,,,,,,0,,,,54,64
89820,note_off,240,0,8,,,,,,,,6,,,,54,64
89820,note_off,240,0,13,,,,,,,,12,,,,54,64
89820,note_on,0,0,13,,,,,,,,12,,,,52,75
89820,note_off,240,0,14,,,,,,,,13,,,,42,64
89820,note_on,0,0,14,,,,,,,,13,,,,40,75
89820,note_on,80,0,6,,,,,,,,4,,,,76,108
89820,note_off,240,0,9,,,,,,,,7,,,,42,64
89820,note_on,80,0,5,,,,,,,,3,,,,80,108
89900,note_off,80,0,5,,,,,,,,3,,,,80,64
89900,note_off,80,0,6,,,,,,,,4,,,,76,64
89900,note_off,80,0,11,,,,,,,,10,,,,76,64
89900,note_off,80,0,1,,,,,,,,0,,,,68,64
89900,note_off,80,0,9,,,,,,,,7,,,,40,64
89900,note_off,80,0,14,,,,,,,,13,,,,40,64
89900,note_off,80,0,10,,,,,,,,8,,,,80,64
89900,note_off,80,0,13,,,,,,,,12,,,,52,64
89900,note_off,80,0,8,,,,,,,,6,,,,52,64
89940,note_off,1320,0,7,,,,,,,,5,,,,59,64
89940,note_off,1320,0,12,,,,,,,,11,,,,59,64
90055,note_off,235,0,2,,,,,,,,0,,,,52,64
90060,note_on,160,0,10,,,,,,,,8,,,,83,45
90060,note_on,160,0,9,,,,,,,,7,,,,35,45
90060,note_on,160,0,14,,,,,,,,13,,,,35,45
90060,note_on,5,0,2,,,,,,,,0,,,,47,45
90060,note_on,160,0,5,,,,,,,,3,,,,83,60
90060,note_on,120,0,7,,,,,,,,5,,,,63,45
90060,note_on,160,0,8,,,,,,,,6,,,,47,45
90060,note_on,160,0,1,,,,,,,,0,,,,71,45
90060,note_on,160,0,6,,,,,,,,4,,,,78,60
90060,note_on,160,0,11,,,,,,,,10,,,,78,45
90060,note_on,120,0,12,,,,,,,,11,,,,63,45
90060,note_on,160,0,13,,,,,,,,12,,,,47,45
90300,note_on,0,0,9,,,,,,,,7,,,,37,45
90300,note_on,0,0,8,,,,,,,,6,,,,49,45
90300,note_off,240,0,8,,,,,,,,6,,,,47,64
90300,note_on,0,0,13,,,,,,,,12,,,,49,45
90300,note_off,240,0,13,,,,,,,,12,,,,47,64
90300,note_off,240,0,9,,,,,,,,7,,,,35,64
90300,note_on,0,0,14,,,,,,,,13,,,,37,45
90300,note_off,240,0,14,,,,,,,,13,,,,35,64
90300,note_on,0,0,2,,,,,,,,0,,,,49,45
90300,note_off,240,0,2,,,,,,,,0,,,,47,64
90540,note_off,240,0,8,,,,,,,,6,,,,49,64
90540,note_on,0,0,14,,,,,,,,13,,,,39,45
90540,note_on,0,0,9,,,,,,,,7,,,,39,45
90540,note_off,240,0,9,,,,,,,,7,,,,37,64
90540,note_on,0,0,8,,,,,,,,6,,,,51,45
90540,note_off,240,0,14,,,,,,,,13,,,,37,64
90540,note_off,240,0,2,,,,,,,,0,,,,49,64
90540,note_on,0,0,2,,,,,,,,0,,,,51,45
90540,note_on,0,0,13,,,,,,,,12,,,,51,45
90540,note_off,240,0,13,,,,,,,,12,,,,49,64
90780,note_off,720,0,5,,,,,,,,3,,,,83,64
90780,note_on,0,0,8,,,,,,,,6,,,,51,45
90780,note_off,240,0,8,,,,,,,,6,,,,51,64
90780,note_off,240,0,9,,,,,,,,7,,,,39,64
90780,note_on,0,0,9,,,,,,,,7,,,,39,45
90780,note_on,0,0,5,,,,,,,,3,,,,81,60
90780,note_on,0,0,2,,,,,,,,0,,,,51,45
90780,note_off,240,0,2,,,,,,,,0,,,,51,64
90780,note_on,0,0,14,,,,,,,,13,,,,39,45
90780,note_off,240,0,13,,,,,,,,12,,,,51,64
90780,note_on,0,0,13,,,,,,,,12,,,,51,45
90780,note_off,720,0,1,,,,,,,,0,,,,71,64
90780,note_on,0,0,1,,,,,,,,0,,,,69,45
90780,note_on,0,0,10,,,,,,,,8,,,,81,45
90780,note_off,720,0,10,,,,,,,,8,,,,83,64
90780,note_off,240,0,14,,,,,,,,13,,,,39,64
91020,note_off,240,0,8,,,,,,,,6,,,,51,64
91020,note_off,240,0,13,,,,,,,,12,,,,51,64
91020,note_off,240,0,14,,,,,,,,13,,,,39,64
91020,note_on,0,0,14,,,,,,,,13,,,,37,48
91020,note_on,0,0,13,,,,,,,,12,,,,49,48
91020,note_off,240,0,9,,,,,,,,7,,,,39,64
91020,note_on,0,0,8,,,,,,,,6,,,,49,50
91020,note_on,0,0,9,,,,,,,,7,,,,37,50
91020,note_off,240,0,2,,,,,,,,0,,,,51,64
91020,note_on,0,0,2,,,,,,,,0,,,,49,48
91260,note_off,240,0,14,,,,,,,,13,,,,37,64
91260,note_on,0,0,14,,,,,,,,13,,,,35,51
91260,note_off,240,0,2,,,,,,,,0,,,,49,64
91260,note_off,240,0,13,,,,,,,,12,,,,49,64
91260,note_on,0,0,13,,,,,,,,12,,,,47,51
91260,note_off,240,0,9,,,,,,,,7,,,,37,64
91260,note_on,0,0,2,,,,,,,,0,,,,47,51
91260,note_on,0,0,9,,,,,,,,7,,,,35,55
91260,note_off,240,0,8,,,,,,,,6,,,,49,64
91260,note_on,0,0,8,,,,,,,,6,,,,47,55
91500,note_off,240,0,13,,,,,,,,12,,,,47,64
91500,note_on,0,0,10,,,,,,,,8,,,,80,55
91500,note_off,720,0,10,,,,,,,,8,,,,81,64
91500,note_off,720,0,1,,,,,,,,0,,,,69,64
91500,note_on,0,0,1,,,,,,,,0,,,,68,55
91500,note_off,720,0,5,,,,,,,,3,,,,81,64
91500,note_on,0,0,5,,,,,,,,3,,,,80,76
91500,note_off,1440,0,11,,,,,,,,10,,,,78,64
91500,note_off,1440,0,6,,,,,,,,4,,,,78,64
91500,note_on,0,0,6,,,,,,,,4,,,,76,60
91500,note_on,0,0,12,,,,,,,,11,,,,59,45
91500,note_on,0,0,13,,,,,,,,12,,,,52,54
91500,note_off,1440,0,12,,,,,,,,11,,,,63,64
91500,note_off,240,0,8,,,,,,,,6,,,,47,64
91500,note_on,0,0,11,,,,,,,,10,,,,76,45
91500,note_on,0,0,8,,,,,,,,6,,,,52,60
91500,note_off,240,0,14,,,,,,,,13,,,,35,64
91500,note_on,0,0,14,,,,,,,,13,,,,40,54
91500,note_on,0,0,7,,,,,,,,5,,,,59,45
91500,note_off,1440,0,7,,,,,,,,5,,,,63,64
91500,note_on,0,0,9,,,,,,,,7,,,,40,60
91500,note_off,240,0,9,,,,,,,,7,,,,35,64
91500,note_on,0,0,2,,,,,,,,0,,,,52,54
91500,note_off,240,0,2,,,,,,,,0,,,,47,64
91740,note_off,240,0,8,,,,,,,,6,,,,52,64
91740,note_off,240,0,1,,,,,,,,0,,,,68,64
91740,note_on,0,0,8,,,,,,,,6,,,,54,65
91740,note_on,0,0,13,,,,,,,,12,,,,54,57
91740,note_off,240,0,6,,,,,,,,4,,,,76,64
91740,note_on,0,0,6,,,,,,,,4,,,,71,68
91740,note_off,240,0,9,,,,,,,,7,,,,40,64
91740,note_on,0,0,9,,,,,,,,7,,,,42,65
91740,note_off,240,0,5,,,,,,,,3,,,,80,64
91740,note_on,0,0,5,,,,,,,,3,,,,78,81
91740,note_off,240,0,14,,,,,,,,13,,,,40,64
91740,note_off,240,0,13,,,,,,,,12,,,,52,64
91740,note_on,0,0,1,,,,,,,,0,,,,66,58
91740,note_on,0,0,14,,,,,,,,13,,,,42,57
91740,note_off,240,0,2,,,,,,,,0,,,,52,64
91740,note_on,0,0,10,,,,,,,,8,,,,78,58
91740,note_off,240,0,10,,,,,,,,8,,,,80,64
91740,note_on,0,0,2,,,,,,,,0,,,,54,57
91740,note_off,240,0,11,,,,,,,,10,,,,76,64
91740,note_on,0,0,11,,,,,,,,10,,,,71,50
91980,note_off,240,0,8,,,,,,,,6,,,,54,64
91980,note_on,0,0,8,,,,,,,,6,,,,56,70
91980,note_on,0,0,1,,,,,,,,0,,,,64,61
91980,note_off,240,0,1,,,,,,,,0,,,,66,64
91980,note_on,0,0,14,,,,,,,,13,,,,44,60
91980,note_off,240,0,2,,,,,,,,0,,,,54,64
91980,note_on,0,0,2,,,,,,,,0,,,,56,60
91980,note_off,240,0,6,,,,,,,,4,,,,71,64
91980,note_on,0,0,6,,,,,,,,4,,,,68,76
91980,note_on,0,0,13,,,,,,,,12,,,,56,60
91980,note_off,240,0,13,,,,,,,,12,,,,54,64
91980,note_off,240,0,14,,,,,,,,13,,,,42,64
91980,note_on,0,0,5,,,,,,,,3,,,,76,86
91980,note_off,240,0,11,,,,,,,,10,,,,71,64
91980,note_on,0,0,10,,,,,,,,8,,,,76,61
91980,note_off,240,0,10,,,,,,,,8,,,,78,64
91980,note_on,0,0,11,,,,,,,,10,,,,68,55
91980,note_off,240,0,9,,,,,,,,7,,,,42,64
91980,note_on,0,0,9,,,,,,,,7,,,,44,70
91980,note_off,240,0,5,,,,,,,,3,,,,78,64
92220,note_off,240,0,13,,,,,,,,12,,,,56,64
92220,note_on,0,0,13,,,,,,,,12,,,,56,63
92220,note_on,0,0,2,,,,,,,,0,,,,56,63
92220,note_off,240,0,2,,,,,,,,0,,,,56,64
92220,note_on,0,0,9,,,,,,,,7,,,,44,75
92220,note_off,240,0,14,,,,,,,,13,,,,44,64
92220,note_on,0,0,14,,,,,,,,13,,,,44,63
92220,note_off,240,0,9,,,,,,,,7,,,,44,64
92220,note_on,0,0,8,,,,,,,,6,,,,56,75
92220,note_off,240,0,8,,,,,,,,6,,,,56,64
92460,note_on,0,0,14,,,,,,,,13,,,,42,67
92460,note_off,240,0,8,,,,,,,,6,,,,56,64
92460,note_on,0,0,8,,,,,,,,6,,,,54,80
92460,note_off,240,0,9,,,,,,,,7,,,,44,64
92460,note_off,240,0,14,,,,,,,,13,,,,44,64
92460,note_off,240,0,2,,,,,,,,0,,,,56,64
92460,note_on,0,0,2,,,,,,,,0,,,,54,67
92460,note_off,240,0,13,,,,,,,,12,,,,56,64
92460,note_on,0,0,9,,,,,,,,7,,,,42,80
92460,note_on,0,0,13,,,,,,,,12,,,,54,67
92620,note_off,640,0,5,,,,,,,,3,,,,76,64
92620,note_off,640,0,6,,,,,,,,4,,,,68,64
92620,note_off,640,0,10,,,,,,,,8,,,,76,64
92620,note_off,640,0,11,,,,,,,,10,,,,68,64
92620,note_off,640,0,1,,,,,,,,0,,,,64,64
92700,note_off,240,0,13,,,,,,,,12,,,,54,64
92700,note_on,0,0,13,,,,,,,,12,,,,52,71
92700,note_on,80,0,11,,,,,,,,10,,,,76,70
92700,note_on,0,0,2,,,,,,,,0,,,,52,71
92700,note_on,80,0,10,,,,,,,,8,,,,80,71
92700,note_on,80,0,6,,,,,,,,4,,,,76,100
92700,note_on,80,0,1,,,,,,,,0,,,,68,71
92700,note_off,240,0,2,,,,,,,,0,,,,54,64
92700,note_off,240,0,8,,,,,,,,6,,,,54,64
92700,note_on,0,0,9,,,,,,,,7,,,,40,86
92700,note_off,240,0,9,,,,,,,,7,,,,42,64
92700,note_on,80,0,5,,,,,,,,3,,,,80,102
92700,note_on,0,0,14,,,,,,,,13,,,,40,71
92700,note_off,240,0,14,,,,,,,,13,,,,42,64
92700,note_on,0,0,8,,,,,,,,6,,,,52,86
92780,note_off,80,0,5,,,,,,,,3,,,,80,64
92780,note_off,80,0,2,,,,,,,,0,,,,52,64
92780,note_off,80,0,6,,,,,,,,4,,,,76,64
92780,note_off,80,0,13,,,,,,,,12,,,,52,64
92780,note_off,80,0,1,,,,,,,,0,,,,68,64
92780,note_off,80,0,11,,,,,,,,10,,,,76,64
92780,note_off,80,0,14,,,,,,,,13,,,,40,64
92780,note_off,80,0,8,,,,,,,,6,,,,52,64
92780,note_off,80,0,9,,,,,,,,7,,,,40,64
92780,note_off,80,0,10,,,,,,,,8,,,,80,64
92940,note_on,0,0,12,,,,,,,,11,,,,66,75
92940,note_on,160,0,14,,,,,,,,13,,,,40,75
92940,note_on,160,0,8,,,,,,,,6,,,,52,92
92940,note_off,1440,0,12,,,,,,,,11,,,,59,64
92940,note_on,160,0,2,,,,,,,,0,,,,52,75
92940,note_on,160,0,9,,,,,,,,7,,,,40,92
92940,note_on,7320,0,15,,,,,,,,14,,,,40,60
92940,note_on,0,0,7,,,,,,,,5,,,,66,92
92940,note_on,160,0,10,,,,,,,,8,,,,85,75
92940,note_on,160,0,11,,,,,,,,10,,,,82,75
92940,note_on,160,0,13,,,,,,,,12,,,,52,75
92940,note_off,1440,0,7,,,,,,,,5,,,,59,64
92940,note_on,160,0,1,,,,,,,,0,,,,73,75
92940,note_on,160,0,5,,,,,,,,3,,,,85,108
92940,note_on,160,0,6,,,,,,,,4,,,,82,108
93180,note_on,0,0,10,,,,,,,,8,,,,83,75
93180,note_on,0,0,5,,,,,,,,3,,,,83,108
93180,note_on,0,0,11,,,,,,,,10,,,,80,75
93180,note_off,240,0,11,,,,,,,,10,,,,82,64
93180,note_on,0,0,1,,,,,,,,0,,,,71,75
93180,note_on,0,0,6,,,,,,,,4,,,,80,108
93180,note_off,240,0,6,,,,,,,,4,,,,82,64
93180,note_off,240,0,10,,,,,,,,8,,,,85,64
93180,note_off,240,0,1,,,,,,,,0,,,,73,64
93180,note_off,240,0,5,,,,,,,,3,,,,85,64
93420,note_on,0,0,1,,,,,,,,0,,,,70,75
93420,note_off,240,0,1,,,,,,,,0,,,,71,64
93420,note_off,240,0,5,,,,,,,,3,,,,83,64
93420,note_off,240,0,10,,,,,,,,8,,,,83,64
93420,note_on,0,0,10,,,,,,,,8,,,,82,75
93420,note_on,0,0,5,,,,,,,,3,,,,82,108
93420,note_on,0,0,11,,,,,,,,10,,,,78,75
93420,note_off,240,0,11,,,,,,,,10,,,,80,64
93420,note_off,240,0,6,,,,,,,,4,,,,80,64
93420,note_on,0,0,6,,,,,,,,4,,,,78,108
93500,note_off,80,0,11,,,,,,,,10,,,,78,64
93500,note_off,80,0,10,,,,,,,,8,,,,82,64
93500,note_off,80,0,5,,,,,,,,3,,,,82,64
93500,note_off,80,0,1,,,,,,,,0,,,,70,64
93500,note_off,80,0,6,,,,,,,,4,,,,78,64
93660,note_on,160,0,5,,,,,,,,3,,,,85,108
93660,note_on,160,0,10,,,,,,,,8,,,,85,75
93660,note_on,160,0,1,,,,,,,,0,,,,73,75
93660,note_on,160,0,11,,,,,,,,10,,,,82,75
93660,note_on,160,0,6,,,,,,,,4,,,,82,108
93900,note_off,240,0,11,,,,,,,,10,,,,82,64
93900,note_off,240,0,1,,,,,,,,0,,,,73,64
93900,note_on,0,0,11,,,,,,,,10,,,,80,75
93900,note_on,0,0,6,,,,,,,,4,,,,80,108
93900,note_on,0,0,1,,,,,,,,0,,,,71,75
93900,note_off,240,0,10,,,,,,,,8,,,,85,64
93900,note_on,0,0,10,,,,,,,,8,,,,83,75
93900,note_off,240,0,5,,,,,,,,3,,,,85,64
93900,note_on,0,0,5,,,,,,,,3,,,,83,108
93900,note_off,240,0,6,,,,,,,,4,,,,82,64
94140,note_off,240,0,1,,,,,,,,0,,,,71,64
94140,note_on,0,0,1,,,,,,,,0,,,,70,75
94140,note_off,240,0,10,,,,,,,,8,,,,83,64
94140,note_on,0,0,11,,,,,,,,10,,,,78,75
94140,note_off,240,0,11,,,,,,,,10,,,,80,64
94140,note_off,240,0,5,,,,,,,,3,,,,83,64
94140,note_on,0,0,5,,,,,,,,3,,,,82,108
94140,note_on,0,0,6,,,,,,,,4,,,,78,108
94140,note_off,240,0,6,,,,,,,,4,,,,80,64
94140,note_on,0,0,10,,,,,,,,8,,,,82,75
94220,note_off,80,0,10,,,,,,,,8,,,,82,64
94220,note_off,80,0,1,,,,,,,,0,,,,70,64
94220,note_off,80,0,11,,,,,,,,10,,,,78,64
94220,note_off,80,0,5,,,,,,,,3,,,,82,64
94220,note_off,80,0,6,,,,,,,,4,,,,78,64
94260,note_off,1320,0,15,,,,,,,,14,,,,40,64
94380,note_on,0,0,9,,,,,,,,7,,,,39,92
94380,note_off,1440,0,9,,,,,,,,7,,,,40,64
94380,note_off,1440,0,14,,,,,,,,13,,,,40,64
94380,note_on,0,0,8,,,,,,,,6,,,,51,92
94380,note_on,0,0,2,,,,,,,,0,,,,51,75
94380,note_off,1440,0,2,,,,,,,,0,,,,52,64
94380,note_off,1440,0,13,,,,,,,,12,,,,52,64
94380,note_on,160,0,6,,,,,,,,4,,,,78,108
94380,note_off,1440,0,8,,,,,,,,6,,,,52,64
94380,note_on,160,0,1,,,,,,,,0,,,,71,75
94380,note_on,0,0,13,,,,,,,,12,,,,51,75
94380,note_on,160,0,11,,,,,,,,10,,,,78,75
94380,note_on,0,0,14,,,,,,,,13,,,,39,75
94380,note_on,160,0,5,,,,,,,,3,,,,83,108
94380,note_on,160,0,10,,,,,,,,8,,,,83,75
94620,note_on,0,0,6,,,,,,,,4,,,,76,104
94620,note_off,240,0,6,,,,,,,,4,,,,78,64
94620,note_on,0,0,8,,,,,,,,6,,,,49,89
94620,note_off,240,0,8,,,,,,,,6,,,,51,64
94620,note_on,0,0,11,,,,,,,,10,,,,76,73
94620,note_off,240,0,9,,,,,,,,7,,,,39,64
94620,note_on,0,0,14,,,,,,,,13,,,,37,73
94620,note_off,240,0,14,,,,,,,,13,,,,39,64
94620,note_off,240,0,13,,,,,,,,12,,,,51,64
94620,note_on,0,0,2,,,,,,,,0,,,,49,73
94620,note_off,240,0,2,,,,,,,,0,,,,51,64
94620,note_on,0,0,9,,,,,,,,7,,,,37,89
94620,note_on,0,0,13,,,,,,,,12,,,,49,73
94620,note_off,240,0,11,,,,,,,,10,,,,78,64
94860,note_off,240,0,11,,,,,,,,10,,,,76,64
94860,note_on,0,0,11,,,,,,,,10,,,,75,71
94860,note_on,0,0,13,,,,,,,,12,,,,47,71
94860,note_off,240,0,13,,,,,,,,12,,,,49,64
94860,note_off,240,0,9,,,,,,,,7,,,,37,64
94860,note_on,0,0,9,,,,,,,,7,,,,35,85
94860,note_on,0,0,14,,,,,,,,13,,,,35,71
94860,note_off,240,0,14,,,,,,,,13,,,,37,64
94860,note_on,0,0,6,,,,,,,,4,,,,75,100
94860,note_off,240,0,2,,,,,,,,0,,,,49,64
94860,note_on,0,0,2,,,,,,,,0,,,,47,71
94860,note_off,240,0,8,,,,,,,,6,,,,49,64
94860,note_on,0,0,8,,,,,,,,6,,,,47,85
94860,note_off,240,0,6,,,,,,,,4,,,,76,64
95100,note_on,0,0,13,,,,,,,,12,,,,47,69
95100,note_on,0,0,2,,,,,,,,0,,,,47,69
95100,note_on,0,0,8,,,,,,,,6,,,,47,81
95100,note_on,0,0,6,,,,,,,,4,,,,75,96
95100,note_off,240,0,6,,,,,,,,4,,,,75,64
95100,note_off,240,0,14,,,,,,,,13,,,,35,64
95100,note_off,240,0,8,,,,,,,,6,,,,47,64
95100,note_on,0,0,14,,,,,,,,13,,,,35,69
95100,note_off,240,0,13,,,,,,,,12,,,,47,64
95100,note_off,240,0,2,,,,,,,,0,,,,47,64
95100,note_off,240,0,11,,,,,,,,10,,,,75,64
95100,note_on,0,0,11,,,,,,,,10,,,,75,69
95100,note_off,240,0,9,,,,,,,,7,,,,35,64
95100,note_on,0,0,9,,,,,,,,7,,,,35,81
95340,note_on,0,0,14,,,,,,,,13,,,,37,67
95340,note_off,240,0,13,,,,,,,,12,,,,47,64
95340,note_on,0,0,2,,,,,,,,0,,,,49,67
95340,note_off,240,0,6,,,,,,,,4,,,,75,64
95340,note_on,0,0,6,,,,,,,,4,,,,76,92
95340,note_on,0,0,13,,,,,,,,12,,,,49,67
95340,note_on,0,0,11,,,,,,,,10,,,,76,67
95340,note_off,240,0,14,,,,,,,,13,,,,35,64
95340,note_off,240,0,9,,,,,,,,7,,,,35,64
95340,note_on,0,0,9,,,,,,,,7,,,,37,77
95340,note_off,240,0,11,,,,,,,,10,,,,75,64
95340,note_off,240,0,2,,,,,,,,0,,,,47,64
95340,note_on,0,0,8,,,,,,,,6,,,,49,77
95340,note_off,240,0,8,,,,,,,,6,,,,47,64
95580,note_on,0,0,6,,,,,,,,4,,,,78,88
95580,note_off,240,0,6,,,,,,,,4,,,,76,64
95580,note_off,240,0,14,,,,,,,,13,,,,37,64
95580,note_on,0,0,14,,,,,,,,13,,,,39,65
95580,note_off,240,0,2,,,,,,,,0,,,,49,64
95580,note_off,240,0,13,,,,,,,,12,,,,49,64
95580,note_on,0,0,13,,,,,,,,12,,,,51,65
95580,note_off,240,0,9,,,,,,,,7,,,,37,64
95580,note_on,0,0,2,,,,,,,,0,,,,51,65
95580,note_on,0,0,11,,,,,,,,10,,,,78,65
95580,note_off,240,0,11,,,,,,,,10,,,,76,64
95580,note_off,240,0,8,,,,,,,,6,,,,49,64
95580,note_on,0,0,8,,,,,,,,6,,,,51,73
95580,note_on,0,0,9,,,,,,,,7,,,,39,73
95820,note_off,2880,0,12,,,,,,,,11,,,,66,64
95820,note_on,0,0,7,,,,,,,,5,,,,68,92
95820,note_off,2880,0,7,,,,,,,,5,,,,66,64
95820,note_on,0,0,12,,,,,,,,11,,,,68,75
95820,note_off,240,0,2,,,,,,,,0,,,,51,64
95820,note_on,1560,0,15,,,,,,,,14,,,,40,60
95820,note_off,240,0,9,,,,,,,,7,,,,39,64
95820,note_on,0,0,9,,,,,,,,7,,,,40,69
95820,note_on,0,0,2,,,,,,,,0,,,,52,63
95820,note_on,0,0,13,,,,,,,,12,,,,52,63
95820,note_off,240,0,13,,,,,,,,12,,,,51,64
95820,note_off,240,0,6,,,,,,,,4,,,,78,64
95820,note_off,240,0,14,,,,,,,,13,,,,39,64
95820,note_off,240,0,8,,,,,,,,6,,,,51,64
95820,note_on,0,0,14,,,,,,,,13,,,,40,63
95820,note_on,0,0,6,,,,,,,,4,,,,73,84
95820,note_off,240,0,11,,,,,,,,10,,,,78,64
95820,note_on,0,0,11,,,,,,,,10,,,,73,63
95820,note_on,0,0,8,,,,,,,,6,,,,52,69
96460,note_off,640,0,15,,,,,,,,14,,,,40,64
96540,note_on,0,0,1,,,,,,,,0,,,,70,53
96540,note_off,720,0,13,,,,,,,,12,,,,52,64
96540,note_on,0,0,13,,,,,,,,12,,,,54,54
96540,note_off,2160,0,1,,,,,,,,0,,,,71,64
96540,note_off,720,0,2,,,,,,,,0,,,,52,64
96540,note_on,0,0,2,,,,,,,,0,,,,54,54
96540,note_off,2160,0,5,,,,,,,,3,,,,83,64
96540,note_on,0,0,5,,,,,,,,3,,,,82,72
96540,note_off,2160,0,10,,,,,,,,8,,,,83,64
96540,note_on,0,0,8,,,,,,,,6,,,,54,57
96540,note_on,0,0,14,,,,,,,,13,,,,42,54
96540,note_off,720,0,7,,,,,,,,5,,,,68,64
96540,note_off,720,0,8,,,,,,,,6,,,,52,64
96540,note_on,0,0,10,,,,,,,,8,,,,82,53
96540,note_off,720,0,9,,,,,,,,7,,,,40,64
96540,note_off,720,0,14,,,,,,,,13,,,,40,64
96540,note_on,0,0,12,,,,,,,,11,,,,66,45
96540,note_on,0,0,9,,,,,,,,7,,,,42,57
96540,note_on,80,0,15,,,,,,,,14,,,,42,60
96540,note_on,0,0,7,,,,,,,,5,,,,66,45
96540,note_off,720,0,12,,,,,,,,11,,,,68,64
97180,note_off,640,0,15,,,,,,,,14,,,,42,64
97260,note_off,720,0,10,,,,,,,,8,,,,82,64
97260,note_on,0,0,9,,,,,,,,7,,,,35,45
97260,note_off,720,0,9,,,,,,,,7,,,,42,64
97260,note_on,0,0,13,,,,,,,,12,,,,47,45
97260,note_off,720,0,13,,,,,,,,12,,,,54,64
97260,note_on,36400,0,4,,,,,,,,2,,,,83,45
97260,note_on,0,0,14,,,,,,,,13,,,,35,45
97260,note_off,720,0,14,,,,,,,,13,,,,42,64
97260,note_on,0,0,10,,,,,,,,8,,,,83,45
97260,set_tempo,36180,1,0,476190,,,,,,,,,,,,
97260,note_on,0,0,5,,,,,,,,3,,,,83,60
97260,note_off,720,0,5,,,,,,,,3,,,,82,64
97260,note_off,1440,0,6,,,,,,,,4,,,,73,64
97260,note_off,720,0,8,,,,,,,,6,,,,54,64
97260,note_on,0,0,1,,,,,,,,0,,,,71,45
97260,note_off,720,0,1,,,,,,,,0,,,,70,64
97260,note_on,0,0,8,,,,,,,,6,,,,47,45
97260,note_off,1440,0,11,,,,,,,,10,,,,73,64
97260,note_on,0,0,11,,,,,,,,10,,,,75,45
97260,note_off,720,0,2,,,,,,,,0,,,,54,64
97260,note_on,36400,0,3,,,,,,,,1,,,,83,75
97260,note_on,80,0,15,,,,,,,,14,,,,35,30
97260,note_on,0,0,6,,,,,,,,4,,,,75,60
97260,note_on,0,0,2,,,,,,,,0,,,,47,45
97340,note_off,80,0,3,,,,,,,,1,,,,83,64
97340,note_off,80,0,4,,,,,,,,2,,,,83,64
97495,note_off,235,0,5,,,,,,,,3,,,,83,64
97495,note_off,235,0,1,,,,,,,,0,,,,71,64
97495,note_off,235,0,10,,,,,,,,8,,,,83,64
97500,note_on,160,0,3,,,,,,,,1,,,,87,75
97500,note_on,160,0,4,,,,,,,,2,,,,87,45
97620,note_on,0,0,4,,,,,,,,2,,,,85,45
97620,note_off,120,0,4,,,,,,,,2,,,,87,64
97620,note_on,0,0,3,,,,,,,,1,,,,85,75
97620,note_off,120,0,3,,,,,,,,1,,,,87,64
97740,note_off,120,0,3,,,,,,,,1,,,,85,64
97740,note_off,120,0,4,,,,,,,,2,,,,85,64
97740,note_on,0,0,4,,,,,,,,2,,,,83,45
97740,note_on,0,0,3,,,,,,,,1,,,,83,75
97820,note_off,80,0,3,,,,,,,,1,,,,83,64
97820,note_off,80,0,4,,,,,,,,2,,,,83,64
97860,note_off,1320,0,7,,,,,,,,5,,,,66,64
97860,note_off,1320,0,12,,,,,,,,11,,,,66,64
97900,note_off,640,0,8,,,,,,,,6,,,,47,64
97900,note_off,640,0,11,,,,,,,,10,,,,75,64
97900,note_off,640,0,2,,,,,,,,0,,,,47,64
97900,note_off,640,0,14,,,,,,,,13,,,,35,64
97900,note_off,640,0,13,,,,,,,,12,,,,47,64
97900,note_off,640,0,9,,,,,,,,7,,,,35,64
97900,note_off,640,0,6,,,,,,,,4,,,,75,64
97900,note_off,640,0,15,,,,,,,,14,,,,35,64
97980,note_on,160,0,3,,,,,,,,1,,,,78,75
97980,note_on,160,0,4,,,,,,,,2,,,,78,45
98060,note_off,80,0,3,,,,,,,,1,,,,78,64
98060,note_off,80,0,4,,,,,,,,2,,,,78,64
98220,note_on,160,0,4,,,,,,,,2,,,,83,45
98220,note_on,160,0,3,,,,,,,,1,,,,83,75
98300,note_off,80,0,4,,,,,,,,2,,,,83,64
98300,note_off,80,0,3,,,,,,,,1,,,,83,64
98460,note_on,160,0,4,,,,,,,,2,,,,78,45
98460,note_on,160,0,3,,,,,,,,1,,,,78,75
98540,note_off,80,0,3,,,,,,,,1,,,,78,64
98540,note_off,80,0,4,,,,,,,,2,,,,78,64
98700,note_on,800,0,9,,,,,,,,7,,,,35,45
98700,note_on,160,0,4,,,,,,,,2,,,,75,45
98700,note_on,160,0,3,,,,,,,,1,,,,75,75
98700,note_on,800,0,13,,,,,,,,12,,,,47,45
98700,note_on,800,0,2,,,,,,,,0,,,,47,45
98700,note_on,800,0,8,,,,,,,,6,,,,47,45
98700,note_on,800,0,15,,,,,,,,14,,,,35,30
98700,note_on,800,0,14,,,,,,,,13,,,,35,45
98780,note_off,80,0,3,,,,,,,,1,,,,75,64
98780,note_off,80,0,4,,,,,,,,2,,,,75,64
98940,note_on,160,0,3,,,,,,,,1,,,,87,75
98940,note_on,160,0,4,,,,,,,,2,,,,87,45
99060,note_off,120,0,4,,,,,,,,2,,,,87,64
99060,note_on,0,0,4,,,,,,,,2,,,,85,45
99060,note_on,0,0,3,,,,,,,,1,,,,85,75
99060,note_off,120,0,3,,,,,,,,1,,,,87,64
99180,note_on,0,0,4,,,,,,,,2,,,,83,45
99180,note_on,0,0,3,,,,,,,,1,,,,83,75
99180,note_off,120,0,3,,,,,,,,1,,,,85,64
99180,note_off,120,0,4,,,,,,,,2,,,,85,64
99260,note_off,80,0,3,,,,,,,,1,,,,83,64
99260,note_off,80,0,4,,,,,,,,2,,,,83,64
99340,note_off,640,0,8,,,,,,,,6,,,,47,64
99340,note_off,640,0,15,,,,,,,,14,,,,35,64
99340,note_off,640,0,2,,,,,,,,0,,,,47,64
99340,note_off,640,0,13,,,,,,,,12,,,,47,64
99340,note_off,640,0,9,,,,,,,,7,,,,35,64
99340,note_off,640,0,14,,,,,,,,13,,,,35,64
99420,note_on,160,0,3,,,,,,,,1,,,,78,75
99420,note_on,160,0,4,,,,,,,,2,,,,78,45
99500,note_off,80,0,4,,,,,,,,2,,,,78,64
99500,note_off,80,0,3,,,,,,,,1,,,,78,64
99660,note_on,160,0,4,,,,,,,,2,,,,83,45
99660,note_on,160,0,3,,,,,,,,1,,,,83,75
99740,note_off,80,0,3,,,,,,,,1,,,,83,64
99740,note_off,80,0,4,,,,,,,,2,,,,83,64
99900,note_on,160,0,3,,,,,,,,1,,,,78,75
99900,note_on,160,0,4,,,,,,,,2,,,,78,45
99980,note_off,80,0,3,,,,,,,,1,,,,78,64
99980,note_off,80,0,4,,,,,,,,2,,,,78,64
100140,note_on,800,0,8,,,,,,,,6,,,,47,45
100140,note_on,800,0,15,,,,,,,,14,,,,35,30
100140,note_on,160,0,4,,,,,,,,2,,,,75,45
100140,note_on,800,0,13,,,,,,,,12,,,,47,45
100140,note_on,800,0,2,,,,,,,,0,,,,47,45
100140,note_on,800,0,14,,,,,,,,13,,,,35,45
100140,note_on,800,0,9,,,,,,,,7,,,,35,45
100140,note_on,160,0,3,,,,,,,,1,,,,75,75
100220,note_off,80,0,3,,,,,,,,1,,,,75,64
100220,note_off,80,0,4,,,,,,,,2,,,,75,64
100380,note_on,160,0,3,,,,,,,,1,,,,78,75
100380,note_on,160,0,4,,,,,,,,2,,,,78,45
100500,note_off,120,0,3,,,,,,,,1,,,,78,64
100500,note_on,0,0,3,,,,,,,,1,,,,76,75
100500,note_off,120,0,4,,,,,,,,2,,,,78,64
100500,note_on,0,0,4,,,,,,,,2,,,,76,45
100620,note_off,120,0,4,,,,,,,,2,,,,76,64
100620,note_on,0,0,3,,,,,,,,1,,,,75,75
100620,note_off,120,0,3,,,,,,,,1,,,,76,64
100620,note_on,0,0,4,,,,,,,,2,,,,75,45
100700,note_off,80,0,3,,,,,,,,1,,,,75,64
100700,note_off,80,0,4,,,,,,,,2,,,,75,64
100780,note_off,640,0,15,,,,,,,,14,,,,35,64
100780,note_off,640,0,13,,,,,,,,12,,,,47,64
100780,note_off,640,0,2,,,,,,,,0,,,,47,64
100780,note_off,640,0,14,,,,,,,,13,,,,35,64
100780,note_off,640,0,9,,,,,,,,7,,,,35,64
100780,note_off,640,0,8,,,,,,,,6,,,,47,64
100860,note_on,160,0,4,,,,,,,,2,,,,71,45
100860,note_on,160,0,3,,,,,,,,1,,,,71,75
101095,note_off,235,0,4,,,,,,,,2,,,,71,64
101095,note_off,235,0,3,,,,,,,,1,,,,71,64
101100,note_on,5,0,4,,,,,,,,2,,,,75,45
101100,note_on,5,0,3,,,,,,,,1,,,,75,75
101335,note_off,235,0,3,,,,,,,,1,,,,75,64
101335,note_off,235,0,4,,,,,,,,2,,,,75,64
101340,note_on,5,0,4,,,,,,,,2,,,,78,45
101340,note_on,5,0,3,,,,,,,,1,,,,78,75
101575,note_off,235,0,4,,,,,,,,2,,,,78,64
101575,note_off,235,0,3,,,,,,,,1,,,,78,64
101580,note_on,5,0,4,,,,,,,,2,,,,83,45
101580,note_on,800,0,9,,,,,,,,7,,,,35,45
101580,note_on,800,0,14,,,,,,,,13,,,,35,45
101580,note_on,5,0,3,,,,,,,,1,,,,83,75
101580,note_on,800,0,15,,,,,,,,14,,,,35,30
101580,note_on,800,0,13,,,,,,,,12,,,,47,45
101580,note_on,800,0,8,,,,,,,,6,,,,47,45
101580,note_on,800,0,2,,,,,,,,0,,,,47,45
101815,note_off,235,0,4,,,,,,,,2,,,,83,64
101815,note_off,235,0,3,,,,,,,,1,,,,83,64
101820,note_on,5,0,3,,,,,,,,1,,,,71,75
101820,note_on,5,0,4,,,,,,,,2,,,,71,45
101935,note_off,115,0,4,,,,,,,,2,,,,71,64
101935,note_off,115,0,3,,,,,,,,1,,,,71,64
101940,note_on,5,0,4,,,,,,,,2,,,,73,45
101940,note_on,5,0,3,,,,,,,,1,,,,73,75
102055,note_off,115,0,4,,,,,,,,2,,,,73,64
102055,note_off,115,0,3,,,,,,,,1,,,,73,64
102060,note_on,5,0,4,,,,,,,,2,,,,75,45
102060,note_on,5,0,3,,,,,,,,1,,,,75,75
102175,note_off,115,0,3,,,,,,,,1,,,,75,64
102175,note_off,115,0,4,,,,,,,,2,,,,75,64
102180,note_on,5,0,4,,,,,,,,2,,,,76,45
102180,note_on,5,0,3,,,,,,,,1,,,,76,75
102220,note_off,640,0,9,,,,,,,,7,,,,35,64
102220,note_off,640,0,8,,,,,,,,6,,,,47,64
102220,note_off,640,0,13,,,,,,,,12,,,,47,64
102220,note_off,640,0,2,,,,,,,,0,,,,47,64
102220,note_off,640,0,14,,,,,,,,13,,,,35,64
102220,note_off,640,0,15,,,,,,,,14,,,,35,64
102295,note_off,115,0,3,,,,,,,,1,,,,76,64
102295,note_off,115,0,4,,,,,,,,2,,,,76,64
102300,note_on,5,0,4,,,,,,,,2,,,,78,45
102300,note_on,5,0,3,,,,,,,,1,,,,78,75
102535,note_off,235,0,4,,,,,,,,2,,,,78,64
102535,note_off,235,0,3,,,,,,,,1,,,,78,64
102540,note_on,5,0,3,,,,,,,,1,,,,80,75
102540,note_on,5,0,4,,,,,,,,2,,,,80,45
102775,note_off,235,0,4,,,,,,,,2,,,,80,64
102775,note_off,235,0,3,,,,,,,,1,,,,80,64
102780,note_on,5,0,4,,,,,,,,2,,,,81,45
102780,note_on,5,0,3,,,,,,,,1,,,,81,75
103015,note_off,235,0,4,,,,,,,,2,,,,81,64
103015,note_off,235,0,3,,,,,,,,1,,,,81,64
103020,note_on,5525,0,5,,,,,,,,3,,,,78,60
103020,note_on,0,0,4,,,,,,,,2,,,,81,45
103020,note_on,5525,0,10,,,,,,,,8,,,,78,45
103020,note_on,800,0,9,,,,,,,,7,,,,39,45
103020,note_on,5,0,4,,,,,,,,2,,,,71,45
103020,note_on,800,0,15,,,,,,,,14,,,,39,30
103020,note_on,800,0,8,,,,,,,,6,,,,51,45
103020,note_on,800,0,2,,,,,,,,0,,,,51,45
103020,note_on,800,0,13,,,,,,,,12,,,,51,45
103020,note_on,0,0,3,,,,,,,,1,,,,81,75
103020,note_on,800,0,14,,,,,,,,13,,,,39,45
103020,note_on,5,0,3,,,,,,,,1,,,,71,75
103260,note_on,0,0,3,,,,,,,,1,,,,80,75
103260,note_off,240,0,3,,,,,,,,1,,,,81,64
103260,note_on,0,0,5,,,,,,,,3,,,,76,60
103260,note_off,240,0,5,,,,,,,,3,,,,78,64
103260,note_off,240,0,10,,,,,,,,8,,,,78,64
103260,note_on,0,0,10,,,,,,,,8,,,,76,45
103260,note_off,240,0,4,,,,,,,,2,,,,81,64
103260,note_on,0,0,4,,,,,,,,2,,,,80,45
103500,note_off,240,0,5,,,,,,,,3,,,,76,64
103500,note_on,0,0,5,,,,,,,,3,,,,75,60
103500,note_on,0,0,3,,,,,,,,1,,,,78,75
103500,note_off,240,0,3,,,,,,,,1,,,,80,64
103500,note_on,0,0,10,,,,,,,,8,,,,75,45
103500,note_on,0,0,4,,,,,,,,2,,,,78,45
103500,note_off,240,0,10,,,,,,,,8,,,,76,64
103500,note_off,240,0,4,,,,,,,,2,,,,80,64
103660,note_off,640,0,13,,,,,,,,12,,,,51,64
103660,note_off,640,0,14,,,,,,,,13,,,,39,64
103660,note_off,640,0,15,,,,,,,,14,,,,39,64
103660,note_off,640,0,2,,,,,,,,0,,,,51,64
103660,note_off,640,0,8,,,,,,,,6,,,,51,64
103660,note_off,640,0,9,,,,,,,,7,,,,39,64
103740,note_on,80,0,8,,,,,,,,6,,,,47,45
103740,note_off,240,0,3,,,,,,,,1,,,,78,64
103740,note_on,0,0,1,,,,,,,,0,,,,71,60
103740,note_on,6245,0,1,,,,,,,,0,,,,59,60
103740,note_on,0,0,3,,,,,,,,1,,,,81,75
103740,note_off,240,0,10,,,,,,,,8,,,,75,64
103740,note_on,0,0,10,,,,,,,,8,,,,78,45
103740,note_on,80,0,14,,,,,,,,13,,,,35,45
103740,note_on,0,0,4,,,,,,,,2,,,,81,45
103740,note_on,80,0,2,,,,,,,,0,,,,47,45
103740,note_off,240,0,4,,,,,,,,2,,,,78,64
103740,note_on,0,0,5,,,,,,,,3,,,,78,60
103740,note_on,80,0,15,,,,,,,,14,,,,35,30
103740,note_on,80,0,13,,,,,,,,12,,,,47,45
103740,note_on,80,0,9,,,,,,,,7,,,,35,45
103740,note_off,240,0,5,,,,,,,,3,,,,75,64
103980,note_on,0,0,1,,,,,,,,0,,,,73,60
103980,note_on,0,0,10,,,,,,,,8,,,,76,45
103980,note_off,240,0,10,,,,,,,,8,,,,78,64
103980,note_on,0,0,5,,,,,,,,3,,,,76,60
103980,note_off,240,0,5,,,,,,,,3,,,,78,64
103980,note_on,0,0,4,,,,,,,,2,,,,80,45
103980,note_off,240,0,3,,,,,,,,1,,,,81,64
103980,note_on,0,0,1,,,,,,,,0,,,,61,60
103980,note_off,0,0,1,,,,,,,,0,,,,59,64
103980,note_off,240,0,4,,,,,,,,2,,,,81,64
103980,note_on,0,0,3,,,,,,,,1,,,,80,75
103980,note_off,240,0,1,,,,,,,,0,,,,71,64
104220,note_on,0,0,5,,,,,,,,3,,,,75,60
104220,note_off,240,0,5,,,,,,,,3,,,,76,64
104220,note_on,0,0,3,,,,,,,,1,,,,78,75
104220,note_off,240,0,3,,,,,,,,1,,,,80,64
104220,note_off,0,0,1,,,,,,,,0,,,,61,64
104220,note_off,240,0,1,,,,,,,,0,,,,73,64
104220,note_on,0,0,1,,,,,,,,0,,,,75,60
104220,note_on,0,0,4,,,,,,,,2,,,,78,45
104220,note_off,240,0,4,,,,,,,,2,,,,80,64
104220,note_on,0,0,1,,,,,,,,0,,,,63,60
104220,note_on,0,0,10,,,,,,,,8,,,,75,45
104220,note_off,240,0,10,,,,,,,,8,,,,76,64
104340,note_off,120,0,3,,,,,,,,1,,,,71,64
104340,note_off,120,0,4,,,,,,,,2,,,,71,64
104380,note_off,640,0,15,,,,,,,,14,,,,35,64
104380,note_off,640,0,13,,,,,,,,12,,,,47,64
104380,note_off,640,0,2,,,,,,,,0,,,,47,64
104380,note_off,640,0,14,,,,,,,,13,,,,35,64
104380,note_off,640,0,9,,,,,,,,7,,,,35,64
104380,note_off,640,0,8,,,,,,,,6,,,,47,64
104455,note_off,115,0,4,,,,,,,,2,,,,78,64
104455,note_off,115,0,3,,,,,,,,1,,,,78,64
104460,note_off,240,0,10,,,,,,,,8,,,,75,64
104460,note_on,0,0,10,,,,,,,,8,,,,76,45
104460,note_on,0,0,3,,,,,,,,1,,,,80,75
104460,note_on,5,0,3,,,,,,,,1,,,,71,75
104460,note_on,80,0,15,,,,,,,,14,,,,28,30
104460,note_off,240,0,1,,,,,,,,0,,,,75,64
104460,note_on,0,0,5,,,,,,,,3,,,,76,60
104460,note_off,240,0,5,,,,,,,,3,,,,75,64
104460,note_on,80,0,13,,,,,,,,12,,,,40,45
104460,note_on,80,0,9,,,,,,,,7,,,,28,45
104460,note_on,80,0,14,,,,,,,,13,,,,28,45
104460,note_on,80,0,8,,,,,,,,6,,,,40,45
104460,note_on,5,0,4,,,,,,,,2,,,,71,45
104460,note_on,0,0,4,,,,,,,,2,,,,80,45
104460,note_on,80,0,2,,,,,,,,0,,,,40,45
104460,note_off,0,0,1,,,,,,,,0,,,,63,64
104460,note_on,0,0,1,,,,,,,,0,,,,64,60
104460,note_on,0,0,1,,,,,,,,0,,,,76,60
104540,note_off,80,0,4,,,,,,,,2,,,,80,64
104540,note_off,80,0,3,,,,,,,,1,,,,80,64
104700,note_on,160,0,4,,,,,,,,2,,,,64,45
104700,note_on,160,0,3,,,,,,,,1,,,,64,75
104820,note_off,120,0,4,,,,,,,,2,,,,64,64
104820,note_on,0,0,4,,,,,,,,2,,,,66,45
104820,note_off,120,0,3,,,,,,,,1,,,,64,64
104820,note_on,0,0,3,,,,,,,,1,,,,66,75
104860,note_off,40,0,4,,,,,,,,2,,,,71,64
104860,note_off,40,0,3,,,,,,,,1,,,,71,64
104940,note_on,0,0,3,,,,,,,,1,,,,68,75
104940,note_on,0,0,4,,,,,,,,2,,,,68,45
104940,note_off,80,0,4,,,,,,,,2,,,,66,64
104940,note_off,80,0,3,,,,,,,,1,,,,66,64
105060,note_on,0,0,4,,,,,,,,2,,,,69,45
105060,note_off,120,0,3,,,,,,,,1,,,,68,64
105060,note_on,0,0,3,,,,,,,,1,,,,69,75
105060,note_off,120,0,4,,,,,,,,2,,,,68,64
105100,note_off,640,0,1,,,,,,,,0,,,,76,64
105100,note_off,0,0,1,,,,,,,,0,,,,64,64
105100,note_off,640,0,5,,,,,,,,3,,,,76,64
105100,note_off,640,0,2,,,,,,,,0,,,,40,64
105100,note_off,640,0,9,,,,,,,,7,,,,28,64
105100,note_off,640,0,15,,,,,,,,14,,,,28,64
105100,note_off,640,0,8,,,,,,,,6,,,,40,64
105100,note_off,640,0,13,,,,,,,,12,,,,40,64
105100,note_off,640,0,14,,,,,,,,13,,,,28,64
105100,note_off,640,0,10,,,,,,,,8,,,,76,64
105180,note_off,120,0,3,,,,,,,,1,,,,69,64
105180,note_on,0,0,3,,,,,,,,1,,,,71,75
105180,note_off,120,0,4,,,,,,,,2,,,,69,64
105180,note_on,0,0,4,,,,,,,,2,,,,71,45
105415,note_off,235,0,4,,,,,,,,2,,,,71,64
105415,note_off,235,0,3,,,,,,,,1,,,,71,64
105420,note_on,5,0,3,,,,,,,,1,,,,73,75
105420,note_on,5,0,4,,,,,,,,2,,,,73,45
105655,note_off,235,0,4,,,,,,,,2,,,,73,64
105655,note_off,235,0,3,,,,,,,,1,,,,73,64
105660,note_on,5,0,4,,,,,,,,2,,,,74,45
105660,note_on,5,0,3,,,,,,,,1,,,,74,75
105895,note_off,235,0,4,,,,,,,,2,,,,74,64
105895,note_off,235,0,3,,,,,,,,1,,,,74,64
105900,note_on,800,0,13,,,,,,,,12,,,,56,45
105900,note_on,5,0,3,,,,,,,,1,,,,64,75
105900,note_on,800,0,15,,,,,,,,14,,,,44,30
105900,note_on,800,0,9,,,,,,,,7,,,,44,45
105900,note_on,0,0,3,,,,,,,,1,,,,74,75
105900,note_on,800,0,2,,,,,,,,0,,,,56,45
105900,note_on,5,0,4,,,,,,,,2,,,,64,45
105900,note_on,0,0,4,,,,,,,,2,,,,74,45
105900,note_on,800,0,5,,,,,,,,3,,,,71,60
105900,note_on,800,0,8,,,,,,,,6,,,,56,45
105900,note_on,800,0,10,,,,,,,,8,,,,71,45
105900,note_on,800,0,14,,,,,,,,13,,,,44,45
106140,note_on,0,0,3,,,,,,,,1,,,,73,75
106140,note_on,0,0,5,,,,,,,,3,,,,69,60
106140,note_on,0,0,10,,,,,,,,8,,,,69,45
106140,note_on,0,0,4,,,,,,,,2,,,,73,45
106140,note_off,240,0,4,,,,,,,,2,,,,74,64
106140,note_off,240,0,3,,,,,,,,1,,,,74,64
106140,note_off,240,0,10,,,,,,,,8,,,,71,64
106140,note_off,240,0,5,,,,,,,,3,,,,71,64
106380,note_off,240,0,4,,,,,,,,2,,,,73,64
106380,note_off,240,0,10,,,,,,,,8,,,,69,64
106380,note_on,0,0,4,,,,,,,,2,,,,71,45
106380,note_off,240,0,3,,,,,,,,1,,,,73,64
106380,note_on,0,0,5,,,,,,,,3,,,,68,60
106380,note_on,0,0,3,,,,,,,,1,,,,71,75
106380,note_off,240,0,5,,,,,,,,3,,,,69,64
106380,note_on,0,0,10,,,,,,,,8,,,,68,45
106540,note_off,640,0,13,,,,,,,,12,,,,56,64
106540,note_off,640,0,8,,,,,,,,6,,,,56,64
106540,note_off,640,0,14,,,,,,,,13,,,,44,64
106540,note_off,640,0,2,,,,,,,,0,,,,56,64
106540,note_off,640,0,9,,,,,,,,7,,,,44,64
106540,note_off,640,0,15,,,,,,,,14,,,,44,64
106620,note_on,80,0,2,,,,,,,,0,,,,52,45
106620,note_on,0,0,10,,,,,,,,8,,,,71,45
106620,note_on,80,0,13,,,,,,,,12,,,,52,45
106620,note_on,80,0,8,,,,,,,,6,,,,52,45
106620,note_on,80,0,9,,,,,,,,7,,,,40,45
106620,note_on,80,0,14,,,,,,,,13,,,,40,45
106620,note_off,240,0,10,,,,,,,,8,,,,68,64
106620,note_on,0,0,1,,,,,,,,0,,,,76,60
106620,note_on,1520,0,1,,,,,,,,0,,,,64,60
106620,note_on,0,0,5,,,,,,,,3,,,,71,60
106620,note_off,240,0,5,,,,,,,,3,,,,68,64
106620,note_on,0,0,4,,,,,,,,2,,,,74,45
106620,note_on,0,0,3,,,,,,,,1,,,,74,75
106620,note_off,240,0,4,,,,,,,,2,,,,71,64
106620,note_on,80,0,15,,,,,,,,14,,,,40,30
106620,note_off,240,0,3,,,,,,,,1,,,,71,64
106860,note_off,240,0,4,,,,,,,,2,,,,74,64
106860,note_off,240,0,1,,,,,,,,0,,,,76,64
106860,note_off,0,0,1,,,,,,,,0,,,,64,64
106860,note_on,0,0,4,,,,,,,,2,,,,73,45
106860,note_off,240,0,5,,,,,,,,3,,,,71,64
106860,note_on,0,0,5,,,,,,,,3,,,,69,60
106860,note_on,0,0,1,,,,,,,,0,,,,78,60
106860,note_on,0,0,1,,,,,,,,0,,,,66,60
106860,note_off,240,0,10,,,,,,,,8,,,,71,64
106860,note_on,0,0,10,,,,,,,,8,,,,69,45
106860,note_on,0,0,3,,,,,,,,1,,,,73,75
106860,note_off,240,0,3,,,,,,,,1,,,,74,64
107100,note_on,0,0,4,,,,,,,,2,,,,71,45
107100,note_on,0,0,10,,,,,,,,8,,,,68,45
107100,note_off,240,0,10,,,,,,,,8,,,,69,64
107100,note_off,240,0,4,,,,,,,,2,,,,73,64
107100,note_off,240,0,3,,,,,,,,1,,,,73,64
107100,note_on,0,0,3,,,,,,,,1,,,,71,75
107100,note_off,240,0,5,,,,,,,,3,,,,69,64
107100,note_on,0,0,5,,,,,,,,3,,,,68,60
107100,note_off,240,0,1,,,,,,,,0,,,,78,64
107100,note_off,0,0,1,,,,,,,,0,,,,66,64
107100,note_on,0,0,1,,,,,,,,0,,,,68,60
107100,note_on,0,0,1,,,,,,,,0,,,,80,60
107220,note_off,120,0,4,,,,,,,,2,,,,64,64
107220,note_off,120,0,3,,,,,,,,1,,,,64,64
107260,note_off,640,0,8,,,,,,,,6,,,,52,64
107260,note_off,640,0,2,,,,,,,,0,,,,52,64
107260,note_off,640,0,15,,,,,,,,14,,,,40,64
107260,note_off,640,0,13,,,,,,,,12,,,,52,64
107260,note_off,640,0,14,,,,,,,,13,,,,40,64
107260,note_off,640,0,9,,,,,,,,7,,,,40,64
107335,note_off,115,0,4,,,,,,,,2,,,,71,64
107335,note_off,115,0,3,,,,,,,,1,,,,71,64
107340,note_on,5,0,3,,,,,,,,1,,,,64,75
107340,note_on,0,0,3,,,,,,,,1,,,,73,75
107340,note_on,80,0,13,,,,,,,,12,,,,45,45
107340,note_off,240,0,5,,,,,,,,3,,,,68,64
107340,note_on,0,0,5,,,,,,,,3,,,,69,60
107340,note_on,80,0,14,,,,,,,,13,,,,33,45
107340,note_on,80,0,9,,,,,,,,7,,,,33,45
107340,note_on,80,0,8,,,,,,,,6,,,,45,45
107340,note_on,80,0,2,,,,,,,,0,,,,45,45
107340,note_on,80,0,15,,,,,,,,14,,,,33,30
107340,note_on,0,0,1,,,,,,,,0,,,,81,60
107340,note_off,240,0,10,,,,,,,,8,,,,68,64
107340,note_on,0,0,1,,,,,,,,0,,,,69,60
107340,note_off,0,0,1,,,,,,,,0,,,,68,64
107340,note_on,0,0,10,,,,,,,,8,,,,69,45
107340,note_on,0,0,4,,,,,,,,2,,,,73,45
107340,note_off,240,0,1,,,,,,,,0,,,,80,64
107340,note_on,5,0,4,,,,,,,,2,,,,64,45
107575,note_off,235,0,3,,,,,,,,1,,,,73,64
107575,note_off,235,0,4,,,,,,,,2,,,,73,64
107580,note_on,5,0,4,,,,,,,,2,,,,69,45
107580,note_on,5,0,3,,,,,,,,1,,,,69,75
107700,note_off,120,0,3,,,,,,,,1,,,,69,64
107700,note_on,0,0,3,,,,,,,,1,,,,71,75
107700,note_off,120,0,4,,,,,,,,2,,,,69,64
107700,note_on,0,0,4,,,,,,,,2,,,,71,45
107740,note_off,40,0,4,,,,,,,,2,,,,64,64
107740,note_off,40,0,3,,,,,,,,1,,,,64,64
107820,note_off,80,0,4,,,,,,,,2,,,,71,64
107820,note_on,0,0,4,,,,,,,,2,,,,73,45
107820,note_on,0,0,3,,,,,,,,1,,,,73,75
107820,note_off,80,0,3,,,,,,,,1,,,,71,64
107940,note_on,0,0,3,,,,,,,,1,,,,74,75
107940,note_off,120,0,4,,,,,,,,2,,,,73,64
107940,note_on,0,0,4,,,,,,,,2,,,,74,45
107940,note_off,120,0,3,,,,,,,,1,,,,73,64
107980,note_off,640,0,13,,,,,,,,12,,,,45,64
107980,note_off,640,0,5,,,,,,,,3,,,,69,64
107980,note_off,640,0,14,,,,,,,,13,,,,33,64
107980,note_off,640,0,1,,,,,,,,0,,,,81,64
107980,note_off,640,0,9,,,,,,,,7,,,,33,64
107980,note_off,640,0,10,,,,,,,,8,,,,69,64
107980,note_off,640,0,15,,,,,,,,14,,,,33,64
107980,note_off,640,0,8,,,,,,,,6,,,,45,64
107980,note_off,640,0,2,,,,,,,,0,,,,45,64
107980,note_off,0,0,1,,,,,,,,0,,,,69,64
108060,note_off,120,0,3,,,,,,,,1,,,,74,64
108060,note_on,0,0,3,,,,,,,,1,,,,76,75
108060,note_off,120,0,4,,,,,,,,2,,,,74,64
108060,note_on,0,0,4,,,,,,,,2,,,,76,45
108295,note_off,235,0,4,,,,,,,,2,,,,76,64
108295,note_off,235,0,3,,,,,,,,1,,,,76,64
108300,note_on,5,0,4,,,,,,,,2,,,,78,45
108300,note_on,5,0,3,,,,,,,,1,,,,78,75
108535,note_off,235,0,4,,,,,,,,2,,,,78,64
108535,note_off,235,0,3,,,,,,,,1,,,,78,64
108540,note_on,5,0,4,,,,,,,,2,,,,79,45
108540,note_on,5,0,3,,,,,,,,1,,,,79,75
108775,note_off,235,0,4,,,,,,,,2,,,,79,64
108775,note_off,235,0,3,,,,,,,,1,,,,79,64
108780,note_on,5,0,3,,,,,,,,1,,,,69,75
108780,note_on,800,0,5,,,,,,,,3,,,,76,60
108780,note_on,800,0,9,,,,,,,,7,,,,49,45
108780,note_on,800,0,10,,,,,,,,8,,,,76,45
108780,note_on,800,0,15,,,,,,,,14,,,,49,30
108780,note_on,5,0,4,,,,,,,,2,,,,69,45
108780,note_on,0,0,4,,,,,,,,2,,,,79,45
108780,note_on,800,0,13,,,,,,,,12,,,,61,45
108780,note_on,800,0,2,,,,,,,,0,,,,61,45
108780,note_on,0,0,3,,,,,,,,1,,,,79,75
108780,note_on,800,0,8,,,,,,,,6,,,,61,45
108780,note_on,800,0,14,,,,,,,,13,,,,49,45
109020,note_on,0,0,10,,,,,,,,8,,,,74,45
109020,note_on,0,0,5,,,,,,,,3,,,,74,60
109020,note_off,240,0,5,,,,,,,,3,,,,76,64
109020,note_off,240,0,10,,,,,,,,8,,,,76,64
109020,note_on,0,0,3,,,,,,,,1,,,,78,75
109020,note_off,240,0,3,,,,,,,,1,,,,79,64
109020,note_off,240,0,4,,,,,,,,2,,,,79,64
109020,note_on,0,0,4,,,,,,,,2,,,,78,45
109260,note_on,0,0,3,,,,,,,,1,,,,76,75
109260,note_off,240,0,5,,,,,,,,3,,,,74,64
109260,note_on,0,0,5,,,,,,,,3,,,,73,60
109260,note_off,240,0,3,,,,,,,,1,,,,78,64
109260,note_on,0,0,4,,,,,,,,2,,,,76,45
109260,note_off,240,0,10,,,,,,,,8,,,,74,64
109260,note_on,0,0,10,,,,,,,,8,,,,73,45
109260,note_off,240,0,4,,,,,,,,2,,,,78,64
109420,note_off,640,0,9,,,,,,,,7,,,,49,64
109420,note_off,640,0,8,,,,,,,,6,,,,61,64
109420,note_off,640,0,2,,,,,,,,0,,,,61,64
109420,note_off,640,0,15,,,,,,,,14,,,,49,64
109420,note_off,640,0,13,,,,,,,,12,,,,61,64
109420,note_off,640,0,14,,,,,,,,13,,,,49,64
109500,note_on,0,0,1,,,,,,,,0,,,,81,60
109500,note_on,80,0,14,,,,,,,,13,,,,45,45
109500,note_on,80,0,15,,,,,,,,14,,,,45,30
109500,note_on,80,0,8,,,,,,,,6,,,,57,45
109500,note_on,0,0,3,,,,,,,,1,,,,79,75
109500,note_on,0,0,10,,,,,,,,8,,,,76,45
109500,note_off,240,0,3,,,,,,,,1,,,,76,64
109500,note_on,1520,0,1,,,,,,,,0,,,,69,60
109500,note_on,80,0,2,,,,,,,,0,,,,57,45
109500,note_off,240,0,10,,,,,,,,8,,,,73,64
109500,note_on,80,0,9,,,,,,,,7,,,,45,45
109500,note_on,0,0,4,,,,,,,,2,,,,79,45
109500,note_off,240,0,4,,,,,,,,2,,,,76,64
109500,note_on,0,0,5,,,,,,,,3,,,,76,60
109500,note_off,240,0,5,,,,,,,,3,,,,73,64
109500,note_on,80,0,13,,,,,,,,12,,,,57,45
109740,note_off,240,0,10,,,,,,,,8,,,,76,64
109740,note_off,240,0,4,,,,,,,,2,,,,79,64
109740,note_on,0,0,1,,,,,,,,0,,,,71,60
109740,note_on,0,0,10,,,,,,,,8,,,,74,45
109740,note_on,0,0,1,,,,,,,,0,,,,83,60
109740,note_off,240,0,5,,,,,,,,3,,,,76,64
109740,note_off,240,0,3,,,,,,,,1,,,,79,64
109740,note_on,0,0,3,,,,,,,,1,,,,78,75
109740,note_off,0,0,1,,,,,,,,0,,,,69,64
109740,note_off,240,0,1,,,,,,,,0,,,,81,64
109740,note_on,0,0,4,,,,,,,,2,,,,78,45
109740,note_on,0,0,5,,,,,,,,3,,,,74,60
109980,note_off,0,0,1,,,,,,,,0,,,,71,64
109980,note_on,0,0,5,,,,,,,,3,,,,73,60
109980,note_off,240,0,5,,,,,,,,3,,,,74,64
109980,note_off,240,0,10,,,,,,,,8,,,,74,64
109980,note_on,0,0,1,,,,,,,,0,,,,85,60
109980,note_off,240,0,3,,,,,,,,1,,,,78,64
109980,note_on,0,0,4,,,,,,,,2,,,,76,45
109980,note_on,0,0,1,,,,,,,,0,,,,73,60
109980,note_off,240,0,1,,,,,,,,0,,,,83,64
109980,note_on,0,0,10,,,,,,,,8,,,,73,45
109980,note_off,240,0,4,,,,,,,,2,,,,78,64
109980,note_on,0,0,3,,,,,,,,1,,,,76,75
110100,note_off,120,0,3,,,,,,,,1,,,,69,64
110100,note_off,120,0,4,,,,,,,,2,,,,69,64
110140,note_off,640,0,2,,,,,,,,0,,,,57,64
110140,note_off,640,0,9,,,,,,,,7,,,,45,64
110140,note_off,640,0,15,,,,,,,,14,,,,45,64
110140,note_off,640,0,14,,,,,,,,13,,,,45,64
110140,note_off,640,0,13,,,,,,,,12,,,,57,64
110140,note_off,640,0,8,,,,,,,,6,,,,57,64
110215,note_off,115,0,4,,,,,,,,2,,,,76,64
110215,note_off,115,0,3,,,,,,,,1,,,,76,64
110220,note_on,0,0,4,,,,,,,,2,,,,78,45
110220,note_off,240,0,10,,,,,,,,8,,,,73,64
110220,note_on,80,0,13,,,,,,,,12,,,,50,45
110220,note_on,0,0,3,,,,,,,,1,,,,78,75
110220,note_on,80,0,15,,,,,,,,14,,,,38,30
110220,note_on,5,0,4,,,,,,,,2,,,,69,45
110220,note_on,5,0,3,,,,,,,,1,,,,69,75
110220,note_on,0,0,10,,,,,,,,8,,,,74,45
110220,note_on,80,0,9,,,,,,,,7,,,,38,45
110220,note_off,240,0,1,,,,,,,,0,,,,85,64
110220,note_off,0,0,1,,,,,,,,0,,,,73,64
110220,note_on,0,0,1,,,,,,,,0,,,,74,60
110220,note_on,0,0,1,,,,,,,,0,,,,86,60
110220,note_on,80,0,2,,,,,,,,0,,,,50,45
110220,note_on,80,0,8,,,,,,,,6,,,,50,45
110220,note_off,240,0,5,,,,,,,,3,,,,73,64
110220,note_on,0,0,5,,,,,,,,3,,,,74,60
110220,note_on,80,0,14,,,,,,,,13,,,,38,45
110455,note_off,235,0,3,,,,,,,,1,,,,78,64
110455,note_off,235,0,4,,,,,,,,2,,,,78,64
110460,note_on,5,0,4,,,,,,,,2,,,,71,45
110460,note_on,5,0,3,,,,,,,,1,,,,71,75
110580,note_on,0,0,4,,,,,,,,2,,,,73,45
110580,note_off,120,0,4,,,,,,,,2,,,,71,64
110580,note_off,120,0,3,,,,,,,,1,,,,71,64
110580,note_on,0,0,3,,,,,,,,1,,,,73,75
110620,note_off,40,0,4,,,,,,,,2,,,,69,64
110620,note_off,40,0,3,,,,,,,,1,,,,69,64
110700,note_on,0,0,4,,,,,,,,2,,,,74,45
110700,note_off,80,0,4,,,,,,,,2,,,,73,64
110700,note_on,0,0,3,,,,,,,,1,,,,74,75
110700,note_off,80,0,3,,,,,,,,1,,,,73,64
110820,note_on,0,0,3,,,,,,,,1,,,,76,75
110820,note_off,120,0,3,,,,,,,,1,,,,74,64
110820,note_off,120,0,4,,,,,,,,2,,,,74,64
110820,note_on,0,0,4,,,,,,,,2,,,,76,45
110860,note_off,0,0,1,,,,,,,,0,,,,74,64
110860,note_off,640,0,1,,,,,,,,0,,,,86,64
110860,note_off,640,0,15,,,,,,,,14,,,,38,64
110860,note_off,640,0,13,,,,,,,,12,,,,50,64
110860,note_off,640,0,9,,,,,,,,7,,,,38,64
110860,note_off,640,0,14,,,,,,,,13,,,,38,64
110860,note_off,640,0,10,,,,,,,,8,,,,74,64
110860,note_off,640,0,8,,,,,,,,6,,,,50,64
110860,note_off,640,0,5,,,,,,,,3,,,,74,64
110860,note_off,640,0,2,,,,,,,,0,,,,50,64
110940,note_off,120,0,4,,,,,,,,2,,,,76,64
110940,note_off,120,0,3,,,,,,,,1,,,,76,64
110940,note_on,0,0,3,,,,,,,,1,,,,78,75
110940,note_on,0,0,4,,,,,,,,2,,,,78,45
111175,note_off,235,0,3,,,,,,,,1,,,,78,64
111175,note_off,235,0,4,,,,,,,,2,,,,78,64
111180,note_on,5,0,3,,,,,,,,1,,,,80,75
111180,note_on,5,0,4,,,,,,,,2,,,,80,45
111415,note_off,235,0,3,,,,,,,,1,,,,80,64
111415,note_off,235,0,4,,,,,,,,2,,,,80,64
111420,note_on,5,0,4,,,,,,,,2,,,,81,45
111420,note_on,5,0,3,,,,,,,,1,,,,81,75
111655,note_off,235,0,4,,,,,,,,2,,,,81,64
111655,note_off,235,0,3,,,,,,,,1,,,,81,64
111660,note_on,5,0,4,,,,,,,,2,,,,71,45
111660,note_on,800,0,5,,,,,,,,3,,,,78,60
111660,note_on,800,0,15,,,,,,,,14,,,,39,30
111660,note_on,800,0,2,,,,,,,,0,,,,51,45
111660,note_on,0,0,4,,,,,,,,2,,,,81,45
111660,note_on,800,0,8,,,,,,,,6,,,,51,45
111660,note_on,800,0,14,,,,,,,,13,,,,39,45
111660,note_on,5,0,3,,,,,,,,1,,,,71,75
111660,note_on,0,0,3,,,,,,,,1,,,,81,75
111660,set_tempo,14400,1,0,491803,,,,,,,,,,,,
111660,note_on,800,0,9,,,,,,,,7,,,,39,45
111660,note_on,800,0,10,,,,,,,,8,,,,78,45
111660,note_on,800,0,13,,,,,,,,12,,,,51,45
111900,note_on,0,0,4,,,,,,,,2,,,,80,45
111900,note_off,240,0,5,,,,,,,,3,,,,78,64
111900,note_on,0,0,5,,,,,,,,3,,,,76,60
111900,note_off,240,0,4,,,,,,,,2,,,,81,64
111900,note_off,240,0,10,,,,,,,,8,,,,78,64
111900,note_on,0,0,10,,,,,,,,8,,,,76,45
111900,note_on,0,0,3,,,,,,,,1,,,,80,75
111900,note_off,240,0,3,,,,,,,,1,,,,81,64
112140,note_on,0,0,5,,,,,,,,3,,,,75,60
112140,note_off,240,0,5,,,,,,,,3,,,,76,64
112140,note_on,0,0,10,,,,,,,,8,,,,75,45
112140,note_off,240,0,10,,,,,,,,8,,,,76,64
112140,note_off,240,0,4,,,,,,,,2,,,,80,64
112140,note_off,240,0,3,,,,,,,,1,,,,80,64
112140,note_on,0,0,4,,,,,,,,2,,,,78,45
112140,note_on,0,0,3,,,,,,,,1,,,,78,75
112300,note_off,640,0,2,,,,,,,,0,,,,51,64
112300,note_off,640,0,9,,,,,,,,7,,,,39,64
112300,note_off,640,0,13,,,,,,,,12,,,,51,64
112300,note_off,640,0,14,,,,,,,,13,,,,39,64
112300,note_off,640,0,8,,,,,,,,6,,,,51,64
112300,note_off,640,0,15,,,,,,,,14,,,,39,64
112380,note_on,80,0,15,,,,,,,,14,,,,35,30
112380,note_on,0,0,10,,,,,,,,8,,,,78,45
112380,note_on,80,0,8,,,,,,,,6,,,,47,45
112380,note_on,0,0,4,,,,,,,,2,,,,81,45
112380,note_on,80,0,14,,,,,,,,13,,,,35,45
112380,note_on,80,0,2,,,,,,,,0,,,,47,45
112380,note_on,80,0,9,,,,,,,,7,,,,35,45
112380,note_off,240,0,5,,,,,,,,3,,,,75,64
112380,note_off,240,0,3,,,,,,,,1,,,,78,64
112380,note_on,80,0,13,,,,,,,,12,,,,47,45
112380,note_on,0,0,5,,,,,,,,3,,,,78,60
112380,note_on,0,0,3,,,,,,,,1,,,,81,75
112380,note_on,1520,0,1,,,,,,,,0,,,,71,60
112380,set_tempo,720,1,0,500000,,,,,,,,,,,,
112380,note_off,240,0,4,,,,,,,,2,,,,78,64
112380,note_off,240,0,10,,,,,,,,8,,,,75,64
112620,note_off,240,0,5,,,,,,,,3,,,,78,64
112620,note_on,0,0,5,,,,,,,,3,,,,76,60
112620,note_off,240,0,4,,,,,,,,2,,,,81,64
112620,note_off,240,0,1,,,,,,,,0,,,,71,64
112620,note_on,0,0,1,,,,,,,,0,,,,73,60
112620,note_on,0,0,4,,,,,,,,2,,,,80,45
112620,note_off,240,0,10,,,,,,,,8,,,,78,64
112620,note_off,240,0,3,,,,,,,,1,,,,81,64
112620,note_on,0,0,3,,,,,,,,1,,,,80,75
112620,note_on,0,0,10,,,,,,,,8,,,,76,45
112860,note_on,0,0,3,,,,,,,,1,,,,78,75
112860,note_off,240,0,3,,,,,,,,1,,,,80,64
112860,note_on,0,0,10,,,,,,,,8,,,,75,45
112860,note_off,240,0,10,,,,,,,,8,,,,76,64
112860,note_off,240,0,4,,,,,,,,2,,,,80,64
112860,note_on,0,0,4,,,,,,,,2,,,,78,45
112860,note_on,0,0,5,,,,,,,,3,,,,75,60
112860,note_off,240,0,5,,,,,,,,3,,,,76,64
112860,note_on,0,0,1,,,,,,,,0,,,,75,60
112860,note_off,240,0,1,,,,,,,,0,,,,73,64
112980,note_off,120,0,4,,,,,,,,2,,,,71,64
112980,note_off,120,0,3,,,,,,,,1,,,,71,64
113020,note_off,640,0,2,,,,,,,,0,,,,47,64
113020,note_off,640,0,13,,,,,,,,12,,,,47,64
113020,note_off,640,0,9,,,,,,,,7,,,,35,64
113020,note_off,640,0,14,,,,,,,,13,,,,35,64
113020,note_off,640,0,15,,,,,,,,14,,,,35,64
113020,note_off,640,0,8,,,,,,,,6,,,,47,64
113095,note_off,115,0,4,,,,,,,,2,,,,78,64
113095,note_off,115,0,3,,,,,,,,1,,,,78,64
113100,note_on,5,0,4,,,,,,,,2,,,,71,45
113100,note_on,0,0,4,,,,,,,,2,,,,80,45
113100,note_on,0,0,5,,,,,,,,3,,,,76,60
113100,note_on,80,0,13,,,,,,,,12,,,,52,45
113100,set_tempo,720,1,0,512820,,,,,,,,,,,,
113100,note_on,80,0,15,,,,,,,,14,,,,40,30
113100,note_on,0,0,1,,,,,,,,0,,,,76,60
113100,note_off,240,0,10,,,,,,,,8,,,,75,64
113100,note_on,0,0,10,,,,,,,,8,,,,76,45
113100,note_on,5,0,3,,,,,,,,1,,,,71,75
113100,note_on,0,0,3,,,,,,,,1,,,,80,75
113100,note_on,80,0,14,,,,,,,,13,,,,40,45
113100,note_on,80,0,8,,,,,,,,6,,,,52,45
113100,note_on,80,0,9,,,,,,,,7,,,,40,45
113100,note_off,240,0,5,,,,,,,,3,,,,75,64
113100,note_off,240,0,1,,,,,,,,0,,,,75,64
113100,note_on,80,0,2,,,,,,,,0,,,,52,30
113740,note_off,640,0,1,,,,,,,,0,,,,76,64
113740,note_off,0,0,4,,,,,,,,2,,,,71,64
113740,note_off,640,0,4,,,,,,,,2,,,,80,64
113740,note_off,640,0,5,,,,,,,,3,,,,76,64
113740,note_off,0,0,3,,,,,,,,1,,,,71,64
113740,note_off,640,0,3,,,,,,,,1,,,,80,64
113740,note_off,640,0,10,,,,,,,,8,,,,76,64
113820,note_on,80,0,10,,,,,,,,8,,,,80,45
113820,note_on,80,0,5,,,,,,,,3,,,,80,60
113820,note_on,80,0,4,,,,,,,,2,,,,71,45
113820,note_on,0,0,4,,,,,,,,2,,,,83,45
113820,note_on,80,0,3,,,,,,,,1,,,,71,75
113820,note_on,0,0,3,,,,,,,,1,,,,83,75
114420,note_off,1320,0,13,,,,,,,,12,,,,52,64
114420,note_off,1320,0,2,,,,,,,,0,,,,52,64
114420,note_off,1320,0,9,,,,,,,,7,,,,40,64
114420,note_off,1320,0,14,,,,,,,,13,,,,40,64
114420,note_off,1320,0,8,,,,,,,,6,,,,52,64
114420,note_off,1320,0,15,,,,,,,,14,,,,40,64
114540,note_off,0,0,4,,,,,,,,2,,,,71,64
114540,note_on,0,0,4,,,,,,,,2,,,,71,45
114540,note_off,720,0,4,,,,,,,,2,,,,83,64
114540,note_off,720,0,5,,,,,,,,3,,,,80,64
114540,note_off,720,0,3,,,,,,,,1,,,,83,64
114540,note_off,0,0,3,,,,,,,,1,,,,71,64
114540,note_on,0,0,5,,,,,,,,3,,,,78,60
114540,note_on,0,0,3,,,,,,,,1,,,,81,75
114540,note_on,0,0,4,,,,,,,,2,,,,81,45
114540,note_on,120,0,9,,,,,,,,7,,,,35,45
114540,note_off,720,0,10,,,,,,,,8,,,,80,64
114540,note_on,0,0,10,,,,,,,,8,,,,78,45
114540,note_on,120,0,13,,,,,,,,12,,,,47,45
114540,note_on,120,0,15,,,,,,,,14,,,,35,30
114540,note_on,120,0,2,,,,,,,,0,,,,47,30
114540,note_on,120,0,14,,,,,,,,13,,,,35,45
114540,note_on,0,0,3,,,,,,,,1,,,,71,75
114540,note_on,120,0,8,,,,,,,,6,,,,47,45
115260,note_on,0,0,5,,,,,,,,3,,,,76,60
115260,note_off,720,0,3,,,,,,,,1,,,,81,64
115260,note_on,0,0,3,,,,,,,,1,,,,80,75
115260,note_off,720,0,5,,,,,,,,3,,,,78,64
115260,note_off,720,0,4,,,,,,,,2,,,,81,64
115260,note_on,0,0,4,,,,,,,,2,,,,80,45
115260,note_on,0,0,10,,,,,,,,8,,,,76,45
115260,note_off,720,0,10,,,,,,,,8,,,,78,64
115860,note_off,600,0,3,,,,,,,,1,,,,71,64
115860,note_off,600,0,4,,,,,,,,2,,,,71,64
115860,note_off,1320,0,2,,,,,,,,0,,,,47,64
115860,note_off,1320,0,15,,,,,,,,14,,,,35,64
115980,note_off,720,0,5,,,,,,,,3,,,,76,64
115980,note_on,0,0,4,,,,,,,,2,,,,71,45
115980,note_on,0,0,4,,,,,,,,2,,,,78,45
115980,set_tempo,2880,1,0,526315,,,,,,,,,,,,
115980,note_off,120,0,4,,,,,,,,2,,,,80,64
115980,note_on,0,0,5,,,,,,,,3,,,,75,60
115980,note_on,0,0,3,,,,,,,,1,,,,71,75
115980,note_on,0,0,10,,,,,,,,8,,,,75,45
115980,note_off,720,0,10,,,,,,,,8,,,,76,64
115980,note_off,120,0,3,,,,,,,,1,,,,80,64
115980,note_on,0,0,3,,,,,,,,1,,,,78,75
116620,note_off,640,0,5,,,,,,,,3,,,,75,64
116620,note_off,640,0,3,,,,,,,,1,,,,78,64
116620,note_off,640,0,10,,,,,,,,8,,,,75,64
116620,note_off,640,0,4,,,,,,,,2,,,,78,64
116700,note_on,80,0,4,,,,,,,,2,,,,83,45
116700,note_on,80,0,10,,,,,,,,8,,,,80,45
116700,note_on,80,0,3,,,,,,,,1,,,,83,75
116700,note_on,80,0,5,,,,,,,,3,,,,80,60
117420,note_off,720,0,4,,,,,,,,2,,,,83,64
117420,note_on,0,0,4,,,,,,,,2,,,,81,45
117420,note_off,720,0,5,,,,,,,,3,,,,80,64
117420,note_off,720,0,3,,,,,,,,1,,,,83,64
117420,note_off,720,0,10,,,,,,,,8,,,,80,64
117420,note_on,0,0,3,,,,,,,,1,,,,81,75
117420,note_on,0,0,10,,,,,,,,8,,,,78,45
117420,note_on,0,0,5,,,,,,,,3,,,,78,60
118140,note_off,720,0,5,,,,,,,,3,,,,78,64
118140,note_off,720,0,4,,,,,,,,2,,,,81,64
118140,note_on,0,0,4,,,,,,,,2,,,,80,45
118140,note_on,0,0,3,,,,,,,,1,,,,80,75
118140,note_on,0,0,10,,,,,,,,8,,,,76,45
118140,note_off,720,0,10,,,,,,,,8,,,,78,64
118140,note_off,720,0,3,,,,,,,,1,,,,81,64
118140,note_on,0,0,5,,,,,,,,3,,,,76,60
118740,note_off,600,0,4,,,,,,,,2,,,,71,64
118740,note_off,600,0,3,,,,,,,,1,,,,71,64
118860,note_on,0,0,10,,,,,,,,8,,,,75,45
118860,note_on,0,0,4,,,,,,,,2,,,,71,45
118860,note_off,120,0,4,,,,,,,,2,,,,80,64
118860,set_tempo,2880,1,0,540540,,,,,,,,,,,,
118860,note_off,720,0,10,,,,,,,,8,,,,76,64
118860,note_on,0,0,4,,,,,,,,2,,,,78,45
118860,note_on,0,0,5,,,,,,,,3,,,,75,60
118860,note_off,720,0,5,,,,,,,,3,,,,76,64
118860,note_off,120,0,3,,,,,,,,1,,,,80,64
118860,note_on,0,0,3,,,,,,,,1,,,,71,75
118860,note_on,0,0,3,,,,,,,,1,,,,78,75
119500,note_off,640,0,10,,,,,,,,8,,,,75,64
119500,note_off,640,0,5,,,,,,,,3,,,,75,64
119500,note_off,640,0,3,,,,,,,,1,,,,78,64
119500,note_off,640,0,4,,,,,,,,2,,,,78,64
119580,note_on,80,0,5,,,,,,,,3,,,,80,60
119580,note_on,80,0,10,,,,,,,,8,,,,80,45
119580,note_on,80,0,3,,,,,,,,1,,,,83,75
119580,note_on,80,0,4,,,,,,,,2,,,,83,45
120300,note_on,0,0,5,,,,,,,,3,,,,78,60
120300,note_off,720,0,5,,,,,,,,3,,,,80,64
120300,note_on,0,0,4,,,,,,,,2,,,,81,45
120300,note_on,0,0,3,,,,,,,,1,,,,81,75
120300,note_off,720,0,3,,,,,,,,1,,,,83,64
120300,note_on,0,0,10,,,,,,,,8,,,,78,45
120300,note_off,720,0,4,,,,,,,,2,,,,83,64
120300,note_off,720,0,10,,,,,,,,8,,,,80,64
121020,note_off,720,0,10,,,,,,,,8,,,,78,64
121020,note_on,0,0,10,,,,,,,,8,,,,75,45
121020,note_on,0,0,4,,,,,,,,2,,,,78,45
121020,note_off,720,0,3,,,,,,,,1,,,,81,64
121020,note_on,0,0,3,,,,,,,,1,,,,78,75
121020,note_off,720,0,5,,,,,,,,3,,,,78,64
121020,note_on,0,0,5,,,,,,,,3,,,,75,60
121020,note_off,720,0,4,,,,,,,,2,,,,81,64
121620,note_off,600,0,4,,,,,,,,2,,,,71,64
121620,note_off,7080,0,14,,,,,,,,13,,,,35,64
121620,note_off,600,0,3,,,,,,,,1,,,,71,64
121620,note_off,7080,0,13,,,,,,,,12,,,,47,64
121620,note_off,7080,0,9,,,,,,,,7,,,,35,64
121620,note_off,7080,0,8,,,,,,,,6,,,,47,64
121740,note_on,120,0,9,,,,,,,,7,,,,40,45
121740,note_on,0,0,3,,,,,,,,1,,,,71,75
121740,note_on,0,0,3,,,,,,,,1,,,,80,75
121740,note_off,120,0,3,,,,,,,,1,,,,78,64
121740,note_on,120,0,8,,,,,,,,6,,,,52,45
121740,note_on,120,0,13,,,,,,,,12,,,,52,45
121740,note_on,0,0,4,,,,,,,,2,,,,80,45
121740,note_on,0,0,5,,,,,,,,3,,,,76,60
121740,note_on,0,0,10,,,,,,,,8,,,,76,45
121740,note_off,720,0,10,,,,,,,,8,,,,75,64
121740,note_on,120,0,14,,,,,,,,13,,,,40,45
121740,note_off,120,0,4,,,,,,,,2,,,,78,64
121740,note_off,720,0,5,,,,,,,,3,,,,75,64
121740,note_on,0,0,4,,,,,,,,2,,,,71,45
121980,note_on,0,0,4,,,,,,,,2,,,,78,45
121980,note_off,240,0,3,,,,,,,,1,,,,80,64
121980,note_on,0,0,3,,,,,,,,1,,,,78,75
121980,note_off,240,0,4,,,,,,,,2,,,,80,64
122140,note_off,160,0,4,,,,,,,,2,,,,71,64
122140,note_off,160,0,3,,,,,,,,1,,,,71,64
122220,note_on,0,0,4,,,,,,,,2,,,,76,45
122220,note_on,0,0,3,,,,,,,,1,,,,76,75
122220,note_off,80,0,4,,,,,,,,2,,,,78,64
122220,note_off,80,0,3,,,,,,,,1,,,,78,64
122380,note_off,640,0,5,,,,,,,,3,,,,76,64
122380,note_off,640,0,10,,,,,,,,8,,,,76,64
122455,note_off,235,0,3,,,,,,,,1,,,,76,64
122455,note_off,235,0,4,,,,,,,,2,,,,76,64
122460,note_on,80,0,5,,,,,,,,3,,,,85,60
122460,note_on,5,0,4,,,,,,,,2,,,,88,45
122460,note_on,5,0,3,,,,,,,,1,,,,88,75
122460,note_on,80,0,10,,,,,,,,8,,,,85,45
123180,note_on,0,0,5,,,,,,,,3,,,,83,60
123180,note_on,0,0,4,,,,,,,,2,,,,87,45
123180,note_off,720,0,10,,,,,,,,8,,,,85,64
123180,note_on,0,0,3,,,,,,,,1,,,,87,75
123180,note_off,720,0,4,,,,,,,,2,,,,88,64
123180,note_off,720,0,5,,,,,,,,3,,,,85,64
123180,note_off,720,0,3,,,,,,,,1,,,,88,64
123180,note_on,0,0,10,,,,,,,,8,,,,83,45
123900,note_on,0,0,10,,,,,,,,8,,,,81,45
123900,note_off,720,0,4,,,,,,,,2,,,,87,64
123900,note_off,720,0,5,,,,,,,,3,,,,83,64
123900,note_off,720,0,10,,,,,,,,8,,,,83,64
123900,note_on,0,0,5,,,,,,,,3,,,,81,60
123900,note_off,720,0,3,,,,,,,,1,,,,87,64
123900,note_on,0,0,3,,,,,,,,1,,,,85,75
123900,note_on,0,0,4,,,,,,,,2,,,,85,45
124620,note_off,720,0,5,,,,,,,,3,,,,81,64
124620,note_off,720,0,3,,,,,,,,1,,,,85,64
124620,note_on,0,0,3,,,,,,,,1,,,,83,75
124620,note_off,720,0,10,,,,,,,,8,,,,81,64
124620,note_on,0,0,5,,,,,,,,3,,,,80,60
124620,note_on,0,0,10,,,,,,,,8,,,,80,45
124620,note_on,0,0,4,,,,,,,,2,,,,83,45
124620,note_off,720,0,4,,,,,,,,2,,,,85,64
125260,note_off,640,0,4,,,,,,,,2,,,,83,64
125260,note_off,640,0,10,,,,,,,,8,,,,80,64
125260,note_off,640,0,5,,,,,,,,3,,,,80,64
125260,note_off,640,0,3,,,,,,,,1,,,,83,64
125340,note_on,80,0,10,,,,,,,,8,,,,85,45
125340,note_on,80,0,3,,,,,,,,1,,,,76,75
125340,note_on,80,0,5,,,,,,,,3,,,,85,60
125340,note_on,0,0,3,,,,,,,,1,,,,88,75
125340,note_on,0,0,4,,,,,,,,2,,,,88,45
125340,note_on,80,0,4,,,,,,,,2,,,,76,45
126060,note_off,0,0,4,,,,,,,,2,,,,76,64
126060,note_on,0,0,4,,,,,,,,2,,,,76,45
126060,note_on,0,0,4,,,,,,,,2,,,,87,45
126060,note_off,720,0,10,,,,,,,,8,,,,85,64
126060,note_on,0,0,10,,,,,,,,8,,,,83,45
126060,note_off,720,0,5,,,,,,,,3,,,,85,64
126060,note_on,0,0,3,,,,,,,,1,,,,87,75
126060,note_on,0,0,3,,,,,,,,1,,,,76,75
126060,note_off,0,0,3,,,,,,,,1,,,,76,64
126060,note_off,720,0,3,,,,,,,,1,,,,88,64
126060,note_on,0,0,5,,,,,,,,3,,,,83,60
126060,note_off,720,0,4,,,,,,,,2,,,,88,64
126780,note_on,0,0,10,,,,,,,,8,,,,81,45
126780,note_off,720,0,10,,,,,,,,8,,,,83,64
126780,note_on,0,0,3,,,,,,,,1,,,,85,75
126780,note_off,720,0,3,,,,,,,,1,,,,87,64
126780,note_off,720,0,5,,,,,,,,3,,,,83,64
126780,note_off,720,0,4,,,,,,,,2,,,,87,64
126780,note_on,0,0,4,,,,,,,,2,,,,85,45
126780,note_on,0,0,5,,,,,,,,3,,,,81,60
127380,note_off,600,0,4,,,,,,,,2,,,,76,64
127380,note_off,600,0,3,,,,,,,,1,,,,76,64
127420,note_off,40,0,4,,,,,,,,2,,,,85,64
127420,note_off,40,0,3,,,,,,,,1,,,,85,64
127500,note_on,0,0,5,,,,,,,,3,,,,80,60
127500,note_on,0,0,4,,,,,,,,2,,,,83,45
127500,note_on,80,0,3,,,,,,,,1,,,,76,75
127500,note_on,0,0,3,,,,,,,,1,,,,83,75
127500,note_off,720,0,5,,,,,,,,3,,,,81,64
127500,note_on,80,0,4,,,,,,,,2,,,,76,45
127500,note_on,0,0,10,,,,,,,,8,,,,80,45
127500,note_off,720,0,10,,,,,,,,8,,,,81,64
128140,note_off,640,0,10,,,,,,,,8,,,,80,64
128140,note_off,640,0,5,,,,,,,,3,,,,80,64
128140,note_off,0,0,3,,,,,,,,1,,,,76,64
128140,note_off,640,0,3,,,,,,,,1,,,,83,64
128140,note_off,0,0,4,,,,,,,,2,,,,76,64
128140,note_off,640,0,4,,,,,,,,2,,,,83,64
128220,note_on,0,0,4,,,,,,,,2,,,,85,45
128220,note_on,80,0,4,,,,,,,,2,,,,81,45
128220,note_on,80,0,3,,,,,,,,1,,,,81,75
128220,note_on,0,0,3,,,,,,,,1,,,,85,75
128940,note_off,720,0,4,,,,,,,,2,,,,85,64
128940,note_on,0,0,4,,,,,,,,2,,,,83,45
128940,note_on,0,0,3,,,,,,,,1,,,,80,75
128940,note_off,720,0,3,,,,,,,,1,,,,85,64
128940,note_off,0,0,3,,,,,,,,1,,,,81,64
128940,note_off,0,0,4,,,,,,,,2,,,,81,64
128940,note_on,0,0,3,,,,,,,,1,,,,83,75
128940,note_on,0,0,4,,,,,,,,2,,,,80,45
129660,note_on,0,0,4,,,,,,,,2,,,,83,45
129660,note_on,0,0,4,,,,,,,,2,,,,78,45
129660,note_off,0,0,4,,,,,,,,2,,,,80,64
129660,note_off,0,0,3,,,,,,,,1,,,,80,64
129660,note_on,0,0,3,,,,,,,,1,,,,78,75
129660,note_on,0,0,3,,,,,,,,1,,,,83,75
129660,note_off,720,0,3,,,,,,,,1,,,,83,64
129660,note_off,720,0,4,,,,,,,,2,,,,83,64
130300,note_off,0,0,3,,,,,,,,1,,,,78,64
130300,note_off,0,0,4,,,,,,,,2,,,,78,64
130300,note_off,640,0,4,,,,,,,,2,,,,83,64
130300,note_off,640,0,3,,,,,,,,1,,,,83,64
130380,note_on,80,0,3,,,,,,,,1,,,,80,75
130380,note_on,0,0,3,,,,,,,,1,,,,83,75
130380,note_on,0,0,4,,,,,,,,2,,,,83,45
130380,note_on,80,0,4,,,,,,,,2,,,,80,45
130380,set_tempo,11520,1,0,526315,,,,,,,,,,,,
130620,note_off,240,0,4,,,,,,,,2,,,,80,64
130620,note_on,0,0,4,,,,,,,,2,,,,78,45
130620,note_on,0,0,3,,,,,,,,1,,,,78,75
130620,note_off,240,0,3,,,,,,,,1,,,,80,64
130860,note_on,0,0,4,,,,,,,,2,,,,76,45
130860,note_off,240,0,3,,,,,,,,1,,,,78,64
130860,note_on,0,0,3,,,,,,,,1,,,,76,75
130860,note_off,240,0,4,,,,,,,,2,,,,78,64
131020,note_off,160,0,3,,,,,,,,1,,,,83,64
131020,note_off,160,0,4,,,,,,,,2,,,,83,64
131095,note_off,75,0,3,,,,,,,,1,,,,76,64
131095,note_off,75,0,4,,,,,,,,2,,,,76,64
131100,note_on,0,0,4,,,,,,,,2,,,,88,45
131100,note_on,5,0,4,,,,,,,,2,,,,76,45
131100,note_on,2960,0,5,,,,,,,,3,,,,85,60
131100,note_on,2960,0,10,,,,,,,,8,,,,85,45
131100,note_on,5,0,3,,,,,,,,1,,,,76,75
131100,note_on,0,0,3,,,,,,,,1,,,,88,75
131100,set_tempo,720,1,0,517241,,,,,,,,,,,,
131740,note_off,0,0,3,,,,,,,,1,,,,76,64
131740,note_off,640,0,4,,,,,,,,2,,,,88,64
131740,note_off,0,0,4,,,,,,,,2,,,,76,64
131740,note_off,640,0,3,,,,,,,,1,,,,88,64
131820,note_on,80,0,4,,,,,,,,2,,,,76,45
131820,note_on,0,0,4,,,,,,,,2,,,,87,45
131820,note_on,0,0,5,,,,,,,,3,,,,83,60
131820,note_off,720,0,5,,,,,,,,3,,,,85,64
131820,note_on,0,0,10,,,,,,,,8,,,,83,45
131820,note_off,720,0,10,,,,,,,,8,,,,85,64
131820,note_on,80,0,3,,,,,,,,1,,,,76,75
131820,note_on,0,0,3,,,,,,,,1,,,,87,75
132540,note_off,720,0,4,,,,,,,,2,,,,87,64
132540,note_on,0,0,10,,,,,,,,8,,,,81,45
132540,note_off,720,0,10,,,,,,,,8,,,,83,64
132540,note_on,0,0,5,,,,,,,,3,,,,81,60
132540,note_off,720,0,5,,,,,,,,3,,,,83,64
132540,note_on,0,0,4,,,,,,,,2,,,,85,45
132540,note_off,720,0,3,,,,,,,,1,,,,87,64
132540,note_on,0,0,3,,,,,,,,1,,,,85,75
133260,note_off,720,0,10,,,,,,,,8,,,,81,64
133260,note_on,0,0,4,,,,,,,,2,,,,83,45
133260,note_off,720,0,4,,,,,,,,2,,,,85,64
133260,note_off,720,0,3,,,,,,,,1,,,,85,64
133260,note_on,0,0,5,,,,,,,,3,,,,80,60
133260,note_off,720,0,5,,,,,,,,3,,,,81,64
133260,note_on,0,0,3,,,,,,,,1,,,,83,75
133260,set_tempo,2160,1,0,508474,,,,,,,,,,,,
133260,note_on,0,0,10,,,,,,,,8,,,,80,45
133900,note_off,640,0,3,,,,,,,,1,,,,76,64
133900,note_off,0,0,3,,,,,,,,1,,,,83,64
133900,note_off,640,0,4,,,,,,,,2,,,,76,64
133900,note_off,640,0,10,,,,,,,,8,,,,80,64
133900,note_off,0,0,4,,,,,,,,2,,,,83,64
133900,note_off,640,0,5,,,,,,,,3,,,,80,64
133980,note_on,80,0,4,,,,,,,,2,,,,81,45
133980,note_on,80,0,3,,,,,,,,1,,,,81,75
133980,note_on,0,0,4,,,,,,,,2,,,,85,45
133980,note_on,0,0,3,,,,,,,,1,,,,85,75
134700,note_on,0,0,3,,,,,,,,1,,,,83,75
134700,note_on,0,0,3,,,,,,,,1,,,,80,75
134700,note_off,0,0,3,,,,,,,,1,,,,81,64
134700,note_off,720,0,3,,,,,,,,1,,,,85,64
134700,note_on,0,0,4,,,,,,,,2,,,,83,45
134700,note_off,0,0,4,,,,,,,,2,,,,81,64
134700,note_off,720,0,4,,,,,,,,2,,,,85,64
134700,set_tempo,1440,1,0,500000,,,,,,,,,,,,
134700,note_on,0,0,4,,,,,,,,2,,,,80,45
135420,note_off,0,0,3,,,,,,,,1,,,,80,64
135420,note_off,720,0,3,,,,,,,,1,,,,83,64
135420,note_on,0,0,4,,,,,,,,2,,,,78,45
135420,note_on,0,0,3,,,,,,,,1,,,,78,75
135420,note_on,0,0,3,,,,,,,,1,,,,83,75
135420,note_off,720,0,4,,,,,,,,2,,,,83,64
135420,note_on,0,0,4,,,,,,,,2,,,,83,45
135420,note_off,0,0,4,,,,,,,,2,,,,80,64
136060,note_off,640,0,3,,,,,,,,1,,,,83,64
136060,note_off,0,0,3,,,,,,,,1,,,,78,64
136060,note_off,0,0,4,,,,,,,,2,,,,78,64
136060,note_off,640,0,4,,,,,,,,2,,,,83,64
136140,note_on,80,0,3,,,,,,,,1,,,,80,75
136140,note_on,0,0,3,,,,,,,,1,,,,83,75
136140,note_on,0,0,4,,,,,,,,2,,,,83,45
136140,note_on,80,0,4,,,,,,,,2,,,,80,45
136140,set_tempo,1440,1,0,483870,,,,,,,,,,,,
136380,note_off,240,0,4,,,,,,,,2,,,,80,64
136380,note_on,0,0,4,,,,,,,,2,,,,78,45
136380,note_off,240,0,3,,,,,,,,1,,,,80,64
136380,note_on,0,0,3,,,,,,,,1,,,,78,75
136620,note_off,240,0,3,,,,,,,,1,,,,78,64
136620,note_on,0,0,4,,,,,,,,2,,,,76,45
136620,note_off,240,0,4,,,,,,,,2,,,,78,64
136620,note_on,0,0,3,,,,,,,,1,,,,76,75
136780,note_off,160,0,4,,,,,,,,2,,,,83,64
136780,note_off,160,0,3,,,,,,,,1,,,,83,64
136855,note_off,75,0,4,,,,,,,,2,,,,76,64
136855,note_off,75,0,3,,,,,,,,1,,,,76,64
136860,note_on,0,0,4,,,,,,,,2,,,,83,45
136860,note_on,5,0,4,,,,,,,,2,,,,80,45
136860,set_tempo,720,1,0,476190,,,,,,,,,,,,
136860,note_on,5,0,3,,,,,,,,1,,,,80,75
136860,note_on,0,0,3,,,,,,,,1,,,,83,75
137100,note_off,240,0,3,,,,,,,,1,,,,80,64
137100,note_on,0,0,3,,,,,,,,1,,,,78,75
137100,note_on,0,0,4,,,,,,,,2,,,,78,45
137100,note_off,240,0,4,,,,,,,,2,,,,80,64
137340,note_off,240,0,3,,,,,,,,1,,,,78,64
137340,note_on,0,0,4,,,,,,,,2,,,,76,45
137340,note_on,0,0,3,,,,,,,,1,,,,76,75
137340,note_off,240,0,4,,,,,,,,2,,,,78,64
137460,note_off,15720,0,14,,,,,,,,13,,,,40,64
137460,note_off,15720,0,8,,,,,,,,6,,,,52,64
137460,note_off,15720,0,13,,,,,,,,12,,,,52,64
137460,note_off,15720,0,9,,,,,,,,7,,,,40,64
137500,note_off,160,0,4,,,,,,,,2,,,,83,64
137500,note_off,160,0,3,,,,,,,,1,,,,83,64
137575,note_off,75,0,3,,,,,,,,1,,,,76,64
137575,note_off,75,0,4,,,,,,,,2,,,,76,64
137580,note_on,0,0,1,,,,,,,,0,,,,71,30
137580,note_on,5,0,3,,,,,,,,1,,,,83,75
137580,note_on,39680,0,6,,,,,,,,4,,,,80,45
137580,note_on,3680,0,5,,,,,,,,3,,,,83,45
137580,note_on,39680,0,11,,,,,,,,10,,,,80,45
137580,note_on,23840,0,1,,,,,,,,0,,,,68,30
137580,note_on,3680,0,10,,,,,,,,8,,,,83,45
137580,note_on,5,0,4,,,,,,,,2,,,,83,45
137580,set_tempo,720,1,0,461538,,,,,,,,,,,,
137660,note_off,80,0,4,,,,,,,,2,,,,83,64
137660,note_off,80,0,5,,,,,,,,3,,,,83,64
137660,note_off,80,0,10,,,,,,,,8,,,,83,64
137660,note_off,80,0,3,,,,,,,,1,,,,83,64
137660,note_off,0,0,1,,,,,,,,0,,,,68,64
137660,note_off,80,0,1,,,,,,,,0,,,,71,64
137660,note_off,80,0,6,,,,,,,,4,,,,80,64
137660,note_off,80,0,11,,,,,,,,10,,,,80,64
137820,note_on,160,0,11,,,,,,,,10,,,,80,45
137820,note_on,160,0,4,,,,,,,,2,,,,80,45
137820,note_on,160,0,5,,,,,,,,3,,,,83,45
137820,note_on,160,0,10,,,,,,,,8,,,,83,45
137820,note_on,160,0,6,,,,,,,,4,,,,80,45
137820,note_on,160,0,1,,,,,,,,0,,,,68,30
137820,note_on,160,0,3,,,,,,,,1,,,,80,75
137820,note_on,0,0,1,,,,,,,,0,,,,71,30
137900,note_off,80,0,6,,,,,,,,4,,,,80,64
137900,note_off,80,0,11,,,,,,,,10,,,,80,64
137900,note_off,0,0,1,,,,,,,,0,,,,68,64
137900,note_off,80,0,1,,,,,,,,0,,,,71,64
137900,note_off,80,0,5,,,,,,,,3,,,,83,64
137900,note_off,80,0,4,,,,,,,,2,,,,80,64
137900,note_off,80,0,10,,,,,,,,8,,,,83,64
137900,note_off,80,0,3,,,,,,,,1,,,,80,64
138060,note_on,0,0,1,,,,,,,,0,,,,71,30
138060,note_on,160,0,3,,,,,,,,1,,,,83,75
138060,note_on,160,0,4,,,,,,,,2,,,,83,45
138060,note_on,160,0,6,,,,,,,,4,,,,80,45
138060,note_on,160,0,11,,,,,,,,10,,,,80,45
138060,note_on,160,0,1,,,,,,,,0,,,,68,30
138060,note_on,160,0,10,,,,,,,,8,,,,83,45
138060,note_on,160,0,5,,,,,,,,3,,,,83,45
138140,note_off,0,0,1,,,,,,,,0,,,,68,64
138140,note_off,80,0,11,,,,,,,,10,,,,80,64
138140,note_off,80,0,4,,,,,,,,2,,,,83,64
138140,note_off,80,0,3,,,,,,,,1,,,,83,64
138140,note_off,80,0,5,,,,,,,,3,,,,83,64
138140,note_off,80,0,6,,,,,,,,4,,,,80,64
138140,note_off,80,0,1,,,,,,,,0,,,,71,64
138140,note_off,80,0,10,,,,,,,,8,,,,83,64
138300,note_on,160,0,5,,,,,,,,3,,,,83,45
138300,note_on,160,0,6,,,,,,,,4,,,,80,45
138300,note_on,160,0,3,,,,,,,,1,,,,83,75
138300,note_on,160,0,10,,,,,,,,8,,,,83,45
138300,note_on,160,0,4,,,,,,,,2,,,,83,45
138300,note_on,0,0,1,,,,,,,,0,,,,71,30
138300,note_on,160,0,1,,,,,,,,0,,,,68,30
138300,note_on,160,0,11,,,,,,,,10,,,,80,45
138380,note_off,80,0,11,,,,,,,,10,,,,80,64
138380,note_off,80,0,5,,,,,,,,3,,,,83,64
138380,note_off,80,0,6,,,,,,,,4,,,,80,64
138380,note_off,0,0,1,,,,,,,,0,,,,68,64
138380,note_off,80,0,1,,,,,,,,0,,,,71,64
138380,note_off,80,0,10,,,,,,,,8,,,,83,64
138420,note_off,120,0,4,,,,,,,,2,,,,83,64
138420,note_off,120,0,3,,,,,,,,1,,,,83,64
138420,note_on,0,0,3,,,,,,,,1,,,,85,75
138420,note_on,0,0,4,,,,,,,,2,,,,85,45
138540,note_on,160,0,6,,,,,,,,4,,,,80,45
138540,note_off,120,0,3,,,,,,,,1,,,,85,64
138540,note_on,0,0,3,,,,,,,,1,,,,87,75
138540,note_on,160,0,1,,,,,,,,0,,,,68,30
138540,note_on,0,0,1,,,,,,,,0,,,,71,30
138540,note_on,0,0,4,,,,,,,,2,,,,87,45
138540,note_on,160,0,5,,,,,,,,3,,,,83,45
138540,note_off,120,0,4,,,,,,,,2,,,,85,64
138540,note_on,160,0,11,,,,,,,,10,,,,80,45
138540,note_on,160,0,10,,,,,,,,8,,,,83,45
138620,note_off,80,0,6,,,,,,,,4,,,,80,64
138620,note_off,80,0,4,,,,,,,,2,,,,87,64
138620,note_off,80,0,5,,,,,,,,3,,,,83,64
138620,note_off,80,0,1,,,,,,,,0,,,,71,64
138620,note_off,80,0,11,,,,,,,,10,,,,80,64
138620,note_off,80,0,3,,,,,,,,1,,,,87,64
138620,note_off,80,0,10,,,,,,,,8,,,,83,64
138620,note_off,0,0,1,,,,,,,,0,,,,68,64
138780,note_on,160,0,10,,,,,,,,8,,,,83,45
138780,note_on,0,0,1,,,,,,,,0,,,,71,30
138780,note_on,160,0,1,,,,,,,,0,,,,68,30
138780,note_on,160,0,11,,,,,,,,10,,,,80,45
138780,note_on,160,0,6,,,,,,,,4,,,,80,45
138780,note_on,160,0,4,,,,,,,,2,,,,88,45
138780,note_on,160,0,3,,,,,,,,1,,,,88,75
138780,note_on,160,0,5,,,,,,,,3,,,,83,45
138860,note_off,80,0,10,,,,,,,,8,,,,83,64
138860,note_off,80,0,4,,,,,,,,2,,,,88,64
138860,note_off,80,0,3,,,,,,,,1,,,,88,64
138860,note_off,80,0,6,,,,,,,,4,,,,80,64
138860,note_off,80,0,5,,,,,,,,3,,,,83,64
138860,note_off,80,0,11,,,,,,,,10,,,,80,64
138860,note_off,80,0,1,,,,,,,,0,,,,71,64
138860,note_off,0,0,1,,,,,,,,0,,,,68,64
139020,note_on,160,0,5,,,,,,,,3,,,,83,45
139020,note_on,160,0,6,,,,,,,,4,,,,80,45
139020,note_on,160,0,3,,,,,,,,1,,,,83,75
139020,note_on,160,0,4,,,,,,,,2,,,,83,45
139020,note_on,160,0,11,,,,,,,,10,,,,80,45
139020,note_on,0,0,1,,,,,,,,0,,,,71,30
139020,note_on,160,0,1,,,,,,,,0,,,,68,30
139020,note_on,160,0,10,,,,,,,,8,,,,83,45
139100,note_off,80,0,10,,,,,,,,8,,,,83,64
139100,note_off,80,0,3,,,,,,,,1,,,,83,64
139100,note_off,80,0,11,,,,,,,,10,,,,80,64
139100,note_off,80,0,5,,,,,,,,3,,,,83,64
139100,note_off,80,0,1,,,,,,,,0,,,,71,64
139100,note_off,0,0,1,,,,,,,,0,,,,68,64
139100,note_off,80,0,4,,,,,,,,2,,,,83,64
139100,note_off,80,0,6,,,,,,,,4,,,,80,64
139260,note_on,160,0,10,,,,,,,,8,,,,83,45
139260,note_on,160,0,1,,,,,,,,0,,,,68,30
139260,note_on,160,0,4,,,,,,,,2,,,,80,45
139260,note_on,160,0,11,,,,,,,,10,,,,80,45
139260,note_on,0,0,1,,,,,,,,0,,,,71,30
139260,note_on,160,0,5,,,,,,,,3,,,,83,45
139260,note_on,160,0,3,,,,,,,,1,,,,80,75
139260,note_on,160,0,6,,,,,,,,4,,,,80,45
139340,note_off,80,0,10,,,,,,,,8,,,,83,64
139340,note_off,80,0,11,,,,,,,,10,,,,80,64
139340,note_off,80,0,5,,,,,,,,3,,,,83,64
139340,note_off,80,0,6,,,,,,,,4,,,,80,64
139340,note_off,80,0,3,,,,,,,,1,,,,80,64
139340,note_off,80,0,4,,,,,,,,2,,,,80,64
139340,note_off,80,0,1,,,,,,,,0,,,,71,64
139340,note_off,0,0,1,,,,,,,,0,,,,68,64
139500,note_on,160,0,11,,,,,,,,10,,,,80,45
139500,note_on,160,0,4,,,,,,,,2,,,,83,45
139500,note_on,160,0,10,,,,,,,,8,,,,83,45
139500,note_on,160,0,6,,,,,,,,4,,,,80,45
139500,note_on,160,0,3,,,,,,,,1,,,,83,75
139500,note_on,160,0,5,,,,,,,,3,,,,83,45
139500,note_on,160,0,1,,,,,,,,0,,,,68,30
139500,note_on,0,0,1,,,,,,,,0,,,,71,30
139580,note_off,80,0,11,,,,,,,,10,,,,80,64
139580,note_off,80,0,4,,,,,,,,2,,,,83,64
139580,note_off,80,0,6,,,,,,,,4,,,,80,64
139580,note_off,80,0,10,,,,,,,,8,,,,83,64
139580,note_off,80,0,1,,,,,,,,0,,,,71,64
139580,note_off,0,0,1,,,,,,,,0,,,,68,64
139580,note_off,80,0,3,,,,,,,,1,,,,83,64
139580,note_off,80,0,5,,,,,,,,3,,,,83,64
139740,note_on,0,0,1,,,,,,,,0,,,,71,30
139740,note_on,160,0,6,,,,,,,,4,,,,80,45
139740,note_on,160,0,10,,,,,,,,8,,,,83,45
139740,note_on,160,0,11,,,,,,,,10,,,,80,45
139740,note_on,160,0,1,,,,,,,,0,,,,68,30
139740,note_on,160,0,5,,,,,,,,3,,,,83,45
139740,note_on,160,0,3,,,,,,,,1,,,,83,75
139740,note_on,160,0,4,,,,,,,,2,,,,83,45
139820,note_off,0,0,1,,,,,,,,0,,,,68,64
139820,note_off,80,0,5,,,,,,,,3,,,,83,64
139820,note_off,80,0,6,,,,,,,,4,,,,80,64
139820,note_off,80,0,10,,,,,,,,8,,,,83,64
139820,note_off,80,0,11,,,,,,,,10,,,,80,64
139820,note_off,80,0,1,,,,,,,,0,,,,71,64
139860,note_off,120,0,3,,,,,,,,1,,,,83,64
139860,note_off,120,0,4,,,,,,,,2,,,,83,64
139860,note_on,0,0,4,,,,,,,,2,,,,85,45
139860,note_on,0,0,3,,,,,,,,1,,,,85,75
139980,note_on,160,0,1,,,,,,,,0,,,,68,30
139980,note_on,160,0,5,,,,,,,,3,,,,83,45
139980,note_on,0,0,1,,,,,,,,0,,,,71,30
139980,note_on,160,0,6,,,,,,,,4,,,,80,45
139980,note_on,160,0,11,,,,,,,,10,,,,80,45
139980,note_off,120,0,4,,,,,,,,2,,,,85,64
139980,note_on,0,0,4,,,,,,,,2,,,,87,45
139980,note_on,0,0,3,,,,,,,,1,,,,87,75
139980,note_off,120,0,3,,,,,,,,1,,,,85,64
139980,note_on,160,0,10,,,,,,,,8,,,,83,45
140060,note_off,80,0,6,,,,,,,,4,,,,80,64
140060,note_off,80,0,4,,,,,,,,2,,,,87,64
140060,note_off,80,0,1,,,,,,,,0,,,,71,64
140060,note_off,80,0,5,,,,,,,,3,,,,83,64
140060,note_off,0,0,1,,,,,,,,0,,,,68,64
140060,note_off,80,0,3,,,,,,,,1,,,,87,64
140060,note_off,80,0,11,,,,,,,,10,,,,80,64
140060,note_off,80,0,10,,,,,,,,8,,,,83,64
140220,note_on,160,0,6,,,,,,,,4,,,,80,45
140220,note_on,160,0,1,,,,,,,,0,,,,68,30
140220,note_on,160,0,4,,,,,,,,2,,,,88,45
140220,note_on,160,0,10,,,,,,,,8,,,,83,45
140220,note_on,0,0,1,,,,,,,,0,,,,71,30
140220,note_on,160,0,5,,,,,,,,3,,,,83,45
140220,note_on,160,0,11,,,,,,,,10,,,,80,45
140220,note_on,160,0,3,,,,,,,,1,,,,88,75
140300,note_off,80,0,1,,,,,,,,0,,,,71,64
140300,note_off,0,0,1,,,,,,,,0,,,,68,64
140300,note_off,80,0,5,,,,,,,,3,,,,83,64
140300,note_off,80,0,3,,,,,,,,1,,,,88,64
140300,note_off,80,0,11,,,,,,,,10,,,,80,64
140300,note_off,80,0,4,,,,,,,,2,,,,88,64
140300,note_off,80,0,6,,,,,,,,4,,,,80,64
140300,note_off,80,0,10,,,,,,,,8,,,,83,64
140460,note_on,160,0,1,,,,,,,,0,,,,66,30
140460,note_on,0,0,1,,,,,,,,0,,,,69,30
140460,note_on,160,0,3,,,,,,,,1,,,,81,75
140460,note_on,160,0,10,,,,,,,,8,,,,81,45
140460,note_on,160,0,4,,,,,,,,2,,,,81,45
140460,note_on,160,0,5,,,,,,,,3,,,,81,45
140460,note_on,160,0,11,,,,,,,,10,,,,78,45
140460,note_on,160,0,6,,,,,,,,4,,,,78,45
140540,note_off,80,0,1,,,,,,,,0,,,,69,64
140540,note_off,0,0,1,,,,,,,,0,,,,66,64
140540,note_off,80,0,11,,,,,,,,10,,,,78,64
140540,note_off,80,0,4,,,,,,,,2,,,,81,64
140540,note_off,80,0,5,,,,,,,,3,,,,81,64
140540,note_off,80,0,10,,,,,,,,8,,,,81,64
140540,note_off,80,0,3,,,,,,,,1,,,,81,64
140540,note_off,80,0,6,,,,,,,,4,,,,78,64
140700,note_on,160,0,5,,,,,,,,3,,,,81,45
140700,note_on,160,0,3,,,,,,,,1,,,,78,75
140700,note_on,0,0,1,,,,,,,,0,,,,69,30
140700,note_on,160,0,4,,,,,,,,2,,,,78,45
140700,note_on,160,0,6,,,,,,,,4,,,,78,45
140700,note_on,160,0,1,,,,,,,,0,,,,66,30
140700,note_on,160,0,10,,,,,,,,8,,,,81,45
140700,note_on,160,0,11,,,,,,,,10,,,,78,45
140780,note_off,80,0,10,,,,,,,,8,,,,81,64
140780,note_off,80,0,6,,,,,,,,4,,,,78,64
140780,note_off,80,0,11,,,,,,,,10,,,,78,64
140780,note_off,80,0,5,,,,,,,,3,,,,81,64
140780,note_off,80,0,1,,,,,,,,0,,,,69,64
140780,note_off,80,0,4,,,,,,,,2,,,,78,64
140780,note_off,80,0,3,,,,,,,,1,,,,78,64
140780,note_off,0,0,1,,,,,,,,0,,,,66,64
140940,note_on,160,0,6,,,,,,,,4,,,,78,45
140940,note_on,160,0,1,,,,,,,,0,,,,66,30
140940,note_on,160,0,11,,,,,,,,10,,,,78,45
140940,note_on,0,0,1,,,,,,,,0,,,,69,30
140940,note_on,160,0,3,,,,,,,,1,,,,81,75
140940,note_on,160,0,5,,,,,,,,3,,,,81,45
140940,note_on,160,0,4,,,,,,,,2,,,,81,45
140940,note_on,160,0,10,,,,,,,,8,,,,81,45
141020,note_off,80,0,11,,,,,,,,10,,,,78,64
141020,note_off,80,0,1,,,,,,,,0,,,,69,64
141020,note_off,80,0,4,,,,,,,,2,,,,81,64
141020,note_off,80,0,6,,,,,,,,4,,,,78,64
141020,note_off,80,0,3,,,,,,,,1,,,,81,64
141020,note_off,80,0,5,,,,,,,,3,,,,81,64
141020,note_off,80,0,10,,,,,,,,8,,,,81,64
141020,note_off,0,0,1,,,,,,,,0,,,,66,64
141180,note_on,160,0,10,,,,,,,,8,,,,81,45
141180,note_on,160,0,3,,,,,,,,1,,,,81,75
141180,note_on,160,0,1,,,,,,,,0,,,,66,30
141180,note_on,0,0,1,,,,,,,,0,,,,69,30
141180,note_on,160,0,4,,,,,,,,2,,,,81,45
141180,note_on,160,0,5,,,,,,,,3,,,,81,45
141180,note_on,160,0,11,,,,,,,,10,,,,78,45
141180,note_on,160,0,6,,,,,,,,4,,,,78,45
141260,note_off,80,0,11,,,,,,,,10,,,,78,64
141260,note_off,80,0,6,,,,,,,,4,,,,78,64
141260,note_off,80,0,10,,,,,,,,8,,,,81,64
141260,note_off,80,0,5,,,,,,,,3,,,,81,64
141260,note_off,80,0,1,,,,,,,,0,,,,69,64
141260,note_off,0,0,1,,,,,,,,0,,,,66,64
141300,note_off,120,0,3,,,,,,,,1,,,,81,64
141300,note_off,120,0,4,,,,,,,,2,,,,81,64
141300,note_on,0,0,4,,,,,,,,2,,,,83,45
141300,note_on,0,0,3,,,,,,,,1,,,,83,75
141420,note_on,0,0,3,,,,,,,,1,,,,85,75
141420,note_off,120,0,3,,,,,,,,1,,,,83,64
141420,note_on,0,0,4,,,,,,,,2,,,,85,45
141420,note_off,120,0,4,,,,,,,,2,,,,83,64
141420,note_on,160,0,6,,,,,,,,4,,,,78,45
141420,note_on,160,0,5,,,,,,,,3,,,,81,45
141420,note_on,160,0,1,,,,,,,,0,,,,66,30
141420,note_on,0,0,1,,,,,,,,0,,,,69,30
141420,note_on,160,0,11,,,,,,,,10,,,,78,45
141420,note_on,160,0,10,,,,,,,,8,,,,81,45
141500,note_off,80,0,6,,,,,,,,4,,,,78,64
141500,note_off,80,0,11,,,,,,,,10,,,,78,64
141500,note_off,80,0,10,,,,,,,,8,,,,81,64
141500,note_off,80,0,4,,,,,,,,2,,,,85,64
141500,note_off,80,0,1,,,,,,,,0,,,,69,64
141500,note_off,0,0,1,,,,,,,,0,,,,66,64
141500,note_off,80,0,5,,,,,,,,3,,,,81,64
141500,note_off,80,0,3,,,,,,,,1,,,,85,64
141660,note_on,160,0,1,,,,,,,,0,,,,66,30
141660,note_on,0,0,1,,,,,,,,0,,,,69,30
141660,note_on,160,0,4,,,,,,,,2,,,,87,45
141660,note_on,160,0,3,,,,,,,,1,,,,87,75
141660,note_on,160,0,5,,,,,,,,3,,,,81,45
141660,note_on,160,0,11,,,,,,,,10,,,,78,45
141660,note_on,160,0,6,,,,,,,,4,,,,78,45
141660,note_on,160,0,10,,,,,,,,8,,,,81,45
141740,note_off,80,0,10,,,,,,,,8,,,,81,64
141740,note_off,80,0,5,,,,,,,,3,,,,81,64
141740,note_off,80,0,11,,,,,,,,10,,,,78,64
141740,note_off,80,0,1,,,,,,,,0,,,,69,64
141740,note_off,80,0,3,,,,,,,,1,,,,87,64
141740,note_off,80,0,6,,,,,,,,4,,,,78,64
141740,note_off,80,0,4,,,,,,,,2,,,,87,64
141740,note_off,0,0,1,,,,,,,,0,,,,66,64
141900,note_on,160,0,6,,,,,,,,4,,,,78,45
141900,note_on,160,0,4,,,,,,,,2,,,,81,45
141900,note_on,0,0,1,,,,,,,,0,,,,69,30
141900,note_on,160,0,5,,,,,,,,3,,,,81,45
141900,note_on,160,0,10,,,,,,,,8,,,,81,45
141900,note_on,160,0,1,,,,,,,,0,,,,66,30
141900,note_on,160,0,11,,,,,,,,10,,,,78,45
141900,note_on,160,0,3,,,,,,,,1,,,,81,75
141980,note_off,80,0,4,,,,,,,,2,,,,81,64
141980,note_off,80,0,10,,,,,,,,8,,,,81,64
141980,note_off,0,0,1,,,,,,,,0,,,,66,64
141980,note_off,80,0,6,,,,,,,,4,,,,78,64
141980,note_off,80,0,1,,,,,,,,0,,,,69,64
141980,note_off,80,0,5,,,,,,,,3,,,,81,64
141980,note_off,80,0,11,,,,,,,,10,,,,78,64
141980,note_off,80,0,3,,,,,,,,1,,,,81,64
142140,note_on,160,0,1,,,,,,,,0,,,,66,30
142140,note_on,0,0,1,,,,,,,,0,,,,69,30
142140,note_on,160,0,6,,,,,,,,4,,,,78,45
142140,note_on,160,0,10,,,,,,,,8,,,,81,45
142140,note_on,160,0,3,,,,,,,,1,,,,78,75
142140,note_on,160,0,4,,,,,,,,2,,,,78,45
142140,note_on,160,0,11,,,,,,,,10,,,,78,45
142140,note_on,160,0,5,,,,,,,,3,,,,81,45
142220,note_off,80,0,11,,,,,,,,10,,,,78,64
142220,note_off,80,0,10,,,,,,,,8,,,,81,64
142220,note_off,80,0,3,,,,,,,,1,,,,78,64
142220,note_off,80,0,4,,,,,,,,2,,,,78,64
142220,note_off,80,0,5,,,,,,,,3,,,,81,64
142220,note_off,0,0,1,,,,,,,,0,,,,66,64
142220,note_off,80,0,1,,,,,,,,0,,,,69,64
142220,note_off,80,0,6,,,,,,,,4,,,,78,64
142380,note_on,160,0,10,,,,,,,,8,,,,81,45
142380,note_on,160,0,6,,,,,,,,4,,,,78,45
142380,note_on,160,0,5,,,,,,,,3,,,,81,45
142380,note_on,160,0,3,,,,,,,,1,,,,81,75
142380,note_on,0,0,1,,,,,,,,0,,,,69,30
142380,note_on,160,0,1,,,,,,,,0,,,,66,30
142380,note_on,160,0,11,,,,,,,,10,,,,78,45
142380,note_on,160,0,4,,,,,,,,2,,,,81,45
142460,note_off,80,0,11,,,,,,,,10,,,,78,64
142460,note_off,80,0,1,,,,,,,,0,,,,69,64
142460,note_off,80,0,4,,,,,,,,2,,,,81,64
142460,note_off,0,0,1,,,,,,,,0,,,,66,64
142460,note_off,80,0,5,,,,,,,,3,,,,81,64
142460,note_off,80,0,3,,,,,,,,1,,,,81,64
142460,note_off,80,0,10,,,,,,,,8,,,,81,64
142460,note_off,80,0,6,,,,,,,,4,,,,78,64
142620,note_on,160,0,6,,,,,,,,4,,,,78,45
142620,note_on,0,0,1,,,,,,,,0,,,,69,30
142620,note_on,160,0,1,,,,,,,,0,,,,66,30
142620,note_on,160,0,4,,,,,,,,2,,,,81,45
142620,note_on,160,0,5,,,,,,,,3,,,,81,45
142620,note_on,160,0,3,,,,,,,,1,,,,81,75
142620,note_on,160,0,11,,,,,,,,10,,,,78,45
142620,note_on,160,0,10,,,,,,,,8,,,,81,45
142700,note_off,80,0,10,,,,,,,,8,,,,81,64
142700,note_off,0,0,1,,,,,,,,0,,,,66,64
142700,note_off,80,0,5,,,,,,,,3,,,,81,64
142700,note_off,80,0,1,,,,,,,,0,,,,69,64
142700,note_off,80,0,6,,,,,,,,4,,,,78,64
142700,note_off,80,0,11,,,,,,,,10,,,,78,64
142740,note_on,0,0,4,,,,,,,,2,,,,83,45
142740,note_off,120,0,3,,,,,,,,1,,,,81,64
142740,note_on,0,0,3,,,,,,,,1,,,,83,75
142740,note_off,120,0,4,,,,,,,,2,,,,81,64
142860,note_on,160,0,10,,,,,,,,8,,,,81,45
142860,note_off,120,0,4,,,,,,,,2,,,,83,64
142860,note_on,0,0,4,,,,,,,,2,,,,85,45
142860,note_on,0,0,1,,,,,,,,0,,,,69,30
142860,note_on,160,0,1,,,,,,,,0,,,,66,30
142860,note_off,120,0,3,,,,,,,,1,,,,83,64
142860,note_on,160,0,6,,,,,,,,4,,,,78,45
142860,note_on,0,0,3,,,,,,,,1,,,,85,75
142860,note_on,160,0,11,,,,,,,,10,,,,78,45
142860,note_on,160,0,5,,,,,,,,3,,,,81,45
142940,note_off,0,0,1,,,,,,,,0,,,,66,64
142940,note_off,80,0,1,,,,,,,,0,,,,69,64
142940,note_off,80,0,6,,,,,,,,4,,,,78,64
142940,note_off,80,0,3,,,,,,,,1,,,,85,64
142940,note_off,80,0,11,,,,,,,,10,,,,78,64
142940,note_off,80,0,4,,,,,,,,2,,,,85,64
142940,note_off,80,0,5,,,,,,,,3,,,,81,64
142940,note_off,80,0,10,,,,,,,,8,,,,81,64
143100,note_on,160,0,3,,,,,,,,1,,,,87,75
143100,note_on,160,0,1,,,,,,,,0,,,,66,30
143100,note_on,160,0,4,,,,,,,,2,,,,87,45
143100,note_on,160,0,5,,,,,,,,3,,,,81,45
143100,note_on,0,0,1,,,,,,,,0,,,,69,30
143100,note_on,160,0,6,,,,,,,,4,,,,78,45
143100,note_on,160,0,11,,,,,,,,10,,,,78,45
143100,note_on,160,0,10,,,,,,,,8,,,,81,45
143180,note_off,0,0,1,,,,,,,,0,,,,66,64
143180,note_off,80,0,11,,,,,,,,10,,,,78,64
143180,note_off,80,0,6,,,,,,,,4,,,,78,64
143180,note_off,80,0,4,,,,,,,,2,,,,87,64
143180,note_off,80,0,5,,,,,,,,3,,,,81,64
143180,note_off,80,0,3,,,,,,,,1,,,,87,64
143180,note_off,80,0,10,,,,,,,,8,,,,81,64
143180,note_off,80,0,1,,,,,,,,0,,,,69,64
143340,note_on,160,0,5,,,,,,,,3,,,,80,45
143340,note_on,160,0,6,,,,,,,,4,,,,76,45
143340,note_on,160,0,3,,,,,,,,1,,,,80,75
143340,note_on,0,0,1,,,,,,,,0,,,,68,30
143340,note_on,160,0,11,,,,,,,,10,,,,76,45
143340,note_on,160,0,1,,,,,,,,0,,,,64,30
143340,note_on,160,0,10,,,,,,,,8,,,,80,45
143340,note_on,160,0,4,,,,,,,,2,,,,80,45
143420,note_off,80,0,3,,,,,,,,1,,,,80,64
143420,note_off,80,0,4,,,,,,,,2,,,,80,64
143420,note_off,80,0,10,,,,,,,,8,,,,80,64
143420,note_off,80,0,6,,,,,,,,4,,,,76,64
143420,note_off,80,0,5,,,,,,,,3,,,,80,64
143420,note_off,0,0,1,,,,,,,,0,,,,64,64
143420,note_off,80,0,1,,,,,,,,0,,,,68,64
143420,note_off,80,0,11,,,,,,,,10,,,,76,64
143580,note_on,160,0,4,,,,,,,,2,,,,76,45
143580,note_on,160,0,5,,,,,,,,3,,,,80,45
143580,note_on,160,0,10,,,,,,,,8,,,,80,45
143580,note_on,160,0,11,,,,,,,,10,,,,76,45
143580,note_on,160,0,6,,,,,,,,4,,,,76,45
143580,note_on,160,0,3,,,,,,,,1,,,,76,75
143580,note_on,160,0,1,,,,,,,,0,,,,64,30
143580,note_on,0,0,1,,,,,,,,0,,,,68,30
143660,note_off,80,0,4,,,,,,,,2,,,,76,64
143660,note_off,80,0,11,,,,,,,,10,,,,76,64
143660,note_off,80,0,1,,,,,,,,0,,,,68,64
143660,note_off,0,0,1,,,,,,,,0,,,,64,64
143660,note_off,80,0,5,,,,,,,,3,,,,80,64
143660,note_off,80,0,6,,,,,,,,4,,,,76,64
143660,note_off,80,0,10,,,,,,,,8,,,,80,64
143660,note_off,80,0,3,,,,,,,,1,,,,76,64
143820,note_on,0,0,1,,,,,,,,0,,,,68,30
143820,note_on,160,0,5,,,,,,,,3,,,,80,45
143820,note_on,160,0,10,,,,,,,,8,,,,80,45
143820,note_on,160,0,4,,,,,,,,2,,,,80,45
143820,note_on,160,0,3,,,,,,,,1,,,,80,75
143820,note_on,160,0,11,,,,,,,,10,,,,76,45
143820,note_on,160,0,6,,,,,,,,4,,,,76,45
143820,note_on,160,0,1,,,,,,,,0,,,,64,30
143900,note_off,80,0,6,,,,,,,,4,,,,76,64
143900,note_off,80,0,4,,,,,,,,2,,,,80,64
143900,note_off,80,0,10,,,,,,,,8,,,,80,64
143900,note_off,80,0,3,,,,,,,,1,,,,80,64
143900,note_off,0,0,1,,,,,,,,0,,,,64,64
143900,note_off,80,0,5,,,,,,,,3,,,,80,64
143900,note_off,80,0,1,,,,,,,,0,,,,68,64
143900,note_off,80,0,11,,,,,,,,10,,,,76,64
144060,note_on,160,0,6,,,,,,,,4,,,,76,45
144060,note_on,160,0,1,,,,,,,,0,,,,64,30
144060,note_on,160,0,10,,,,,,,,8,,,,80,45
144060,note_on,160,0,3,,,,,,,,1,,,,80,75
144060,note_on,0,0,1,,,,,,,,0,,,,68,30
144060,note_on,160,0,11,,,,,,,,10,,,,76,45
144060,note_on,160,0,5,,,,,,,,3,,,,80,45
144060,note_on,160,0,4,,,,,,,,2,,,,80,45
144140,note_off,80,0,10,,,,,,,,8,,,,80,64
144140,note_off,80,0,11,,,,,,,,10,,,,76,64
144140,note_off,80,0,1,,,,,,,,0,,,,68,64
144140,note_off,80,0,5,,,,,,,,3,,,,80,64
144140,note_off,0,0,1,,,,,,,,0,,,,64,64
144140,note_off,80,0,6,,,,,,,,4,,,,76,64
144180,note_off,120,0,4,,,,,,,,2,,,,80,64
144180,note_on,0,0,4,,,,,,,,2,,,,81,45
144180,note_off,120,0,3,,,,,,,,1,,,,80,64
144180,note_on,0,0,3,,,,,,,,1,,,,81,75
144300,note_on,0,0,4,,,,,,,,2,,,,83,45
144300,note_on,160,0,1,,,,,,,,0,,,,64,30
144300,note_off,120,0,4,,,,,,,,2,,,,81,64
144300,note_on,160,0,10,,,,,,,,8,,,,80,45
144300,note_on,0,0,3,,,,,,,,1,,,,83,75
144300,note_off,120,0,3,,,,,,,,1,,,,81,64
144300,note_on,160,0,6,,,,,,,,4,,,,76,45
144300,note_on,160,0,11,,,,,,,,10,,,,76,45
144300,note_on,160,0,5,,,,,,,,3,,,,80,45
144300,note_on,0,0,1,,,,,,,,0,,,,68,30
144380,note_off,80,0,1,,,,,,,,0,,,,68,64
144380,note_off,80,0,11,,,,,,,,10,,,,76,64
144380,note_off,0,0,1,,,,,,,,0,,,,64,64
144380,note_off,80,0,3,,,,,,,,1,,,,83,64
144380,note_off,80,0,4,,,,,,,,2,,,,83,64
144380,note_off,80,0,10,,,,,,,,8,,,,80,64
144380,note_off,80,0,6,,,,,,,,4,,,,76,64
144380,note_off,80,0,5,,,,,,,,3,,,,80,64
144540,note_on,160,0,4,,,,,,,,2,,,,85,45
144540,note_on,160,0,3,,,,,,,,1,,,,85,75
144540,note_on,160,0,1,,,,,,,,0,,,,64,30
144540,note_on,160,0,6,,,,,,,,4,,,,76,45
144540,note_on,160,0,10,,,,,,,,8,,,,80,45
144540,note_on,0,0,1,,,,,,,,0,,,,68,30
144540,note_on,160,0,11,,,,,,,,10,,,,76,45
144540,note_on,160,0,5,,,,,,,,3,,,,80,45
144620,note_off,80,0,10,,,,,,,,8,,,,80,64
144620,note_off,80,0,11,,,,,,,,10,,,,76,64
144620,note_off,80,0,4,,,,,,,,2,,,,85,64
144620,note_off,80,0,1,,,,,,,,0,,,,68,64
144620,note_off,0,0,1,,,,,,,,0,,,,64,64
144620,note_off,80,0,5,,,,,,,,3,,,,80,64
144620,note_off,80,0,3,,,,,,,,1,,,,85,64
144620,note_off,80,0,6,,,,,,,,4,,,,76,64
144780,note_on,160,0,6,,,,,,,,4,,,,76,45
144780,note_on,160,0,11,,,,,,,,10,,,,76,45
144780,note_on,160,0,5,,,,,,,,3,,,,80,45
144780,note_on,160,0,10,,,,,,,,8,,,,80,45
144780,note_on,160,0,1,,,,,,,,0,,,,64,30
144780,note_on,0,0,1,,,,,,,,0,,,,68,30
144780,note_on,160,0,3,,,,,,,,1,,,,80,75
144780,note_on,160,0,4,,,,,,,,2,,,,80,45
144860,note_off,80,0,1,,,,,,,,0,,,,68,64
144860,note_off,0,0,1,,,,,,,,0,,,,64,64
144860,note_off,80,0,4,,,,,,,,2,,,,80,64
144860,note_off,80,0,11,,,,,,,,10,,,,76,64
144860,note_off,80,0,3,,,,,,,,1,,,,80,64
144860,note_off,80,0,5,,,,,,,,3,,,,80,64
144860,note_off,80,0,10,,,,,,,,8,,,,80,64
144860,note_off,80,0,6,,,,,,,,4,,,,76,64
145020,note_on,160,0,4,,,,,,,,2,,,,76,45
145020,note_on,0,0,1,,,,,,,,0,,,,68,30
145020,note_on,160,0,1,,,,,,,,0,,,,64,30
145020,note_on,160,0,5,,,,,,,,3,,,,80,45
145020,note_on,160,0,10,,,,,,,,8,,,,80,45
145020,note_on,160,0,6,,,,,,,,4,,,,76,45
145020,note_on,160,0,11,,,,,,,,10,,,,76,45
145020,note_on,160,0,3,,,,,,,,1,,,,76,75
145100,note_off,80,0,5,,,,,,,,3,,,,80,64
145100,note_off,80,0,4,,,,,,,,2,,,,76,64
145100,note_off,0,0,1,,,,,,,,0,,,,64,64
145100,note_off,80,0,6,,,,,,,,4,,,,76,64
145100,note_off,80,0,3,,,,,,,,1,,,,76,64
145100,note_off,80,0,10,,,,,,,,8,,,,80,64
145100,note_off,80,0,1,,,,,,,,0,,,,68,64
145100,note_off,80,0,11,,,,,,,,10,,,,76,64
145260,note_on,160,0,5,,,,,,,,3,,,,80,45
145260,note_on,160,0,6,,,,,,,,4,,,,76,45
145260,note_on,160,0,3,,,,,,,,1,,,,80,75
145260,note_on,160,0,10,,,,,,,,8,,,,80,45
145260,note_on,160,0,11,,,,,,,,10,,,,76,45
145260,note_on,160,0,4,,,,,,,,2,,,,80,45
145260,note_on,160,0,1,,,,,,,,0,,,,64,30
145260,note_on,0,0,1,,,,,,,,0,,,,68,30
145340,note_off,80,0,11,,,,,,,,10,,,,76,64
145340,note_off,80,0,1,,,,,,,,0,,,,68,64
145340,note_off,0,0,1,,,,,,,,0,,,,64,64
145340,note_off,80,0,6,,,,,,,,4,,,,76,64
145340,note_off,80,0,5,,,,,,,,3,,,,80,64
145340,note_off,80,0,4,,,,,,,,2,,,,80,64
145340,note_off,80,0,10,,,,,,,,8,,,,80,64
145340,note_off,80,0,3,,,,,,,,1,,,,80,64
145500,note_on,160,0,5,,,,,,,,3,,,,80,45
145500,note_on,160,0,1,,,,,,,,0,,,,64,30
145500,note_on,0,0,1,,,,,,,,0,,,,68,30
145500,note_on,160,0,10,,,,,,,,8,,,,80,45
145500,note_on,160,0,6,,,,,,,,4,,,,76,45
145500,note_on,160,0,3,,,,,,,,1,,,,80,75
145500,note_on,160,0,4,,,,,,,,2,,,,80,45
145500,note_on,160,0,11,,,,,,,,10,,,,76,45
145580,note_off,80,0,10,,,,,,,,8,,,,80,64
145580,note_off,80,0,5,,,,,,,,3,,,,80,64
145580,note_off,80,0,11,,,,,,,,10,,,,76,64
145580,note_off,80,0,6,,,,,,,,4,,,,76,64
145580,note_off,0,0,1,,,,,,,,0,,,,64,64
145580,note_off,80,0,1,,,,,,,,0,,,,68,64
145620,note_off,120,0,3,,,,,,,,1,,,,80,64
145620,note_on,0,0,4,,,,,,,,2,,,,81,45
145620,note_off,120,0,4,,,,,,,,2,,,,80,64
145620,note_on,0,0,3,,,,,,,,1,,,,81,75
145740,note_on,160,0,1,,,,,,,,0,,,,64,30
145740,note_on,160,0,5,,,,,,,,3,,,,80,45
145740,note_on,160,0,6,,,,,,,,4,,,,76,45
145740,note_on,0,0,4,,,,,,,,2,,,,83,45
145740,note_off,120,0,4,,,,,,,,2,,,,81,64
145740,note_on,0,0,1,,,,,,,,0,,,,68,30
145740,note_on,160,0,10,,,,,,,,8,,,,80,45
145740,note_off,120,0,3,,,,,,,,1,,,,81,64
145740,note_on,0,0,3,,,,,,,,1,,,,83,75
145740,note_on,160,0,11,,,,,,,,10,,,,76,45
145820,note_off,80,0,5,,,,,,,,3,,,,80,64
145820,note_off,80,0,3,,,,,,,,1,,,,83,64
145820,note_off,80,0,4,,,,,,,,2,,,,83,64
145820,note_off,80,0,10,,,,,,,,8,,,,80,64
145820,note_off,80,0,6,,,,,,,,4,,,,76,64
145820,note_off,80,0,11,,,,,,,,10,,,,76,64
145820,note_off,80,0,1,,,,,,,,0,,,,68,64
145820,note_off,0,0,1,,,,,,,,0,,,,64,64
145980,note_on,160,0,4,,,,,,,,2,,,,85,45
145980,note_on,160,0,5,,,,,,,,3,,,,80,45
145980,note_on,160,0,11,,,,,,,,10,,,,76,45
145980,note_on,160,0,1,,,,,,,,0,,,,64,30
145980,note_on,160,0,3,,,,,,,,1,,,,85,75
145980,note_on,0,0,1,,,,,,,,0,,,,68,30
145980,note_on,160,0,10,,,,,,,,8,,,,80,45
145980,note_on,160,0,6,,,,,,,,4,,,,76,45
146060,note_off,0,0,1,,,,,,,,0,,,,64,64
146060,note_off,80,0,5,,,,,,,,3,,,,80,64
146060,note_off,80,0,10,,,,,,,,8,,,,80,64
146060,note_off,80,0,4,,,,,,,,2,,,,85,64
146060,note_off,80,0,3,,,,,,,,1,,,,85,64
146060,note_off,80,0,11,,,,,,,,10,,,,76,64
146060,note_off,80,0,1,,,,,,,,0,,,,68,64
146060,note_off,80,0,6,,,,,,,,4,,,,76,64
146220,note_on,160,0,6,,,,,,,,4,,,,75,45
146220,note_on,160,0,11,,,,,,,,10,,,,75,45
146220,note_on,160,0,3,,,,,,,,1,,,,78,75
146220,note_on,0,0,1,,,,,,,,0,,,,66,30
146220,note_on,160,0,1,,,,,,,,0,,,,63,30
146220,note_on,160,0,5,,,,,,,,3,,,,78,45
146220,note_on,160,0,4,,,,,,,,2,,,,78,45
146220,note_on,160,0,10,,,,,,,,8,,,,78,45
146300,note_off,80,0,4,,,,,,,,2,,,,78,64
146300,note_off,80,0,10,,,,,,,,8,,,,78,64
146300,note_off,80,0,5,,,,,,,,3,,,,78,64
146300,note_off,0,0,1,,,,,,,,0,,,,63,64
146300,note_off,80,0,1,,,,,,,,0,,,,66,64
146300,note_off,80,0,6,,,,,,,,4,,,,75,64
146300,note_off,80,0,3,,,,,,,,1,,,,78,64
146300,note_off,80,0,11,,,,,,,,10,,,,75,64
146460,note_on,160,0,5,,,,,,,,3,,,,78,45
146460,note_on,160,0,11,,,,,,,,10,,,,75,45
146460,note_on,160,0,6,,,,,,,,4,,,,75,45
146460,note_on,0,0,1,,,,,,,,0,,,,66,30
146460,note_on,160,0,1,,,,,,,,0,,,,63,30
146460,note_on,160,0,10,,,,,,,,8,,,,78,45
146460,note_on,160,0,3,,,,,,,,1,,,,75,75
146460,note_on,160,0,4,,,,,,,,2,,,,75,45
146540,note_off,80,0,1,,,,,,,,0,,,,66,64
146540,note_off,80,0,11,,,,,,,,10,,,,75,64
146540,note_off,80,0,5,,,,,,,,3,,,,78,64
146540,note_off,80,0,6,,,,,,,,4,,,,75,64
146540,note_off,80,0,4,,,,,,,,2,,,,75,64
146540,note_off,0,0,1,,,,,,,,0,,,,63,64
146540,note_off,80,0,10,,,,,,,,8,,,,78,64
146540,note_off,80,0,3,,,,,,,,1,,,,75,64
146700,note_on,160,0,11,,,,,,,,10,,,,75,45
146700,note_on,160,0,6,,,,,,,,4,,,,75,45
146700,note_on,160,0,4,,,,,,,,2,,,,78,45
146700,note_on,160,0,5,,,,,,,,3,,,,78,45
146700,note_on,160,0,1,,,,,,,,0,,,,63,30
146700,note_on,0,0,1,,,,,,,,0,,,,66,30
146700,note_on,160,0,10,,,,,,,,8,,,,78,45
146700,note_on,160,0,3,,,,,,,,1,,,,78,75
146780,note_off,80,0,4,,,,,,,,2,,,,78,64
146780,note_off,80,0,5,,,,,,,,3,,,,78,64
146780,note_off,80,0,6,,,,,,,,4,,,,75,64
146780,note_off,0,0,1,,,,,,,,0,,,,63,64
146780,note_off,80,0,3,,,,,,,,1,,,,78,64
146780,note_off,80,0,1,,,,,,,,0,,,,66,64
146780,note_off,80,0,10,,,,,,,,8,,,,78,64
146780,note_off,80,0,11,,,,,,,,10,,,,75,64
146940,note_on,160,0,3,,,,,,,,1,,,,78,75
146940,note_on,160,0,6,,,,,,,,4,,,,75,45
146940,note_on,160,0,11,,,,,,,,10,,,,75,45
146940,note_on,160,0,10,,,,,,,,8,,,,78,45
146940,note_on,160,0,5,,,,,,,,3,,,,78,45
146940,note_on,0,0,1,,,,,,,,0,,,,66,30
146940,note_on,160,0,1,,,,,,,,0,,,,63,30
146940,note_on,160,0,4,,,,,,,,2,,,,78,45
147020,note_off,80,0,5,,,,,,,,3,,,,78,64
147020,note_off,80,0,11,,,,,,,,10,,,,75,64
147020,note_off,0,0,1,,,,,,,,0,,,,63,64
147020,note_off,80,0,1,,,,,,,,0,,,,66,64
147020,note_off,80,0,6,,,,,,,,4,,,,75,64
147020,note_off,80,0,10,,,,,,,,8,,,,78,64
147060,note_on,0,0,4,,,,,,,,2,,,,80,45
147060,note_off,120,0,4,,,,,,,,2,,,,78,64
147060,note_off,120,0,3,,,,,,,,1,,,,78,64
147060,note_on,0,0,3,,,,,,,,1,,,,80,75
147180,note_on,160,0,6,,,,,,,,4,,,,75,45
147180,note_on,160,0,10,,,,,,,,8,,,,78,45
147180,note_on,160,0,5,,,,,,,,3,,,,78,45
147180,note_on,0,0,4,,,,,,,,2,,,,81,45
147180,note_off,120,0,4,,,,,,,,2,,,,80,64
147180,note_off,120,0,3,,,,,,,,1,,,,80,64
147180,note_on,0,0,3,,,,,,,,1,,,,81,75
147180,note_on,160,0,1,,,,,,,,0,,,,63,30
147180,note_on,160,0,11,,,,,,,,10,,,,75,45
147180,note_on,0,0,1,,,,,,,,0,,,,66,30
147260,note_off,80,0,6,,,,,,,,4,,,,75,64
147260,note_off,80,0,1,,,,,,,,0,,,,66,64
147260,note_off,0,0,1,,,,,,,,0,,,,63,64
147260,note_off,80,0,4,,,,,,,,2,,,,81,64
147260,note_off,80,0,5,,,,,,,,3,,,,78,64
147260,note_off,80,0,11,,,,,,,,10,,,,75,64
147260,note_off,80,0,3,,,,,,,,1,,,,81,64
147260,note_off,80,0,10,,,,,,,,8,,,,78,64
147420,note_on,0,0,1,,,,,,,,0,,,,66,30
147420,note_on,160,0,1,,,,,,,,0,,,,63,30
147420,note_on,160,0,6,,,,,,,,4,,,,75,45
147420,note_on,160,0,3,,,,,,,,1,,,,83,75
147420,note_on,160,0,10,,,,,,,,8,,,,78,45
147420,note_on,160,0,4,,,,,,,,2,,,,83,45
147420,note_on,160,0,5,,,,,,,,3,,,,78,45
147420,note_on,160,0,11,,,,,,,,10,,,,75,45
147500,note_off,80,0,6,,,,,,,,4,,,,75,64
147500,note_off,0,0,1,,,,,,,,0,,,,63,64
147500,note_off,80,0,4,,,,,,,,2,,,,83,64
147500,note_off,80,0,5,,,,,,,,3,,,,78,64
147500,note_off,80,0,3,,,,,,,,1,,,,83,64
147500,note_off,80,0,10,,,,,,,,8,,,,78,64
147500,note_off,80,0,11,,,,,,,,10,,,,75,64
147500,note_off,80,0,1,,,,,,,,0,,,,66,64
147660,note_on,160,0,4,,,,,,,,2,,,,78,45
147660,note_on,160,0,6,,,,,,,,4,,,,75,45
147660,note_on,160,0,3,,,,,,,,1,,,,78,75
147660,note_on,160,0,11,,,,,,,,10,,,,75,45
147660,note_on,160,0,5,,,,,,,,3,,,,78,45
147660,note_on,0,0,1,,,,,,,,0,,,,66,30
147660,note_on,160,0,10,,,,,,,,8,,,,78,45
147660,note_on,160,0,1,,,,,,,,0,,,,63,30
147740,note_off,80,0,10,,,,,,,,8,,,,78,64
147740,note_off,80,0,11,,,,,,,,10,,,,75,64
147740,note_off,80,0,5,,,,,,,,3,,,,78,64
147740,note_off,80,0,4,,,,,,,,2,,,,78,64
147740,note_off,80,0,3,,,,,,,,1,,,,78,64
147740,note_off,80,0,6,,,,,,,,4,,,,75,64
147740,note_off,0,0,1,,,,,,,,0,,,,63,64
147740,note_off,80,0,1,,,,,,,,0,,,,66,64
147900,note_on,160,0,10,,,,,,,,8,,,,78,45
147900,note_on,160,0,11,,,,,,,,10,,,,75,45
147900,note_on,160,0,4,,,,,,,,2,,,,75,45
147900,note_on,160,0,6,,,,,,,,4,,,,75,45
147900,note_on,160,0,1,,,,,,,,0,,,,63,30
147900,note_on,0,0,1,,,,,,,,0,,,,66,30
147900,note_on,160,0,5,,,,,,,,3,,,,78,45
147900,note_on,160,0,3,,,,,,,,1,,,,75,75
147980,note_off,80,0,3,,,,,,,,1,,,,75,64
147980,note_off,80,0,5,,,,,,,,3,,,,78,64
147980,note_off,80,0,4,,,,,,,,2,,,,75,64
147980,note_off,80,0,11,,,,,,,,10,,,,75,64
147980,note_off,80,0,6,,,,,,,,4,,,,75,64
147980,note_off,80,0,10,,,,,,,,8,,,,78,64
147980,note_off,0,0,1,,,,,,,,0,,,,63,64
147980,note_off,80,0,1,,,,,,,,0,,,,66,64
148140,note_on,0,0,1,,,,,,,,0,,,,66,30
148140,note_on,160,0,1,,,,,,,,0,,,,63,30
148140,note_on,160,0,3,,,,,,,,1,,,,78,75
148140,note_on,160,0,4,,,,,,,,2,,,,78,45
148140,note_on,160,0,6,,,,,,,,4,,,,75,45
148140,note_on,160,0,10,,,,,,,,8,,,,78,45
148140,note_on,160,0,5,,,,,,,,3,,,,78,45
148140,note_on,160,0,11,,,,,,,,10,,,,75,45
148220,note_off,80,0,3,,,,,,,,1,,,,78,64
148220,note_off,80,0,6,,,,,,,,4,,,,75,64
148220,note_off,80,0,10,,,,,,,,8,,,,78,64
148220,note_off,80,0,5,,,,,,,,3,,,,78,64
148220,note_off,80,0,4,,,,,,,,2,,,,78,64
148220,note_off,0,0,1,,,,,,,,0,,,,63,64
148220,note_off,80,0,1,,,,,,,,0,,,,66,64
148220,note_off,80,0,11,,,,,,,,10,,,,75,64
148380,note_on,160,0,3,,,,,,,,1,,,,78,75
148380,note_on,160,0,6,,,,,,,,4,,,,75,45
148380,note_on,160,0,4,,,,,,,,2,,,,78,45
148380,note_on,160,0,1,,,,,,,,0,,,,63,30
148380,note_on,0,0,1,,,,,,,,0,,,,66,30
148380,note_on,160,0,10,,,,,,,,8,,,,78,45
148380,note_on,160,0,5,,,,,,,,3,,,,78,45
148380,note_on,160,0,11,,,,,,,,10,,,,75,45
148460,note_off,80,0,5,,,,,,,,3,,,,78,64
148460,note_off,80,0,10,,,,,,,,8,,,,78,64
148460,note_off,80,0,6,,,,,,,,4,,,,75,64
148460,note_off,0,0,1,,,,,,,,0,,,,63,64
148460,note_off,80,0,1,,,,,,,,0,,,,66,64
148460,note_off,80,0,11,,,,,,,,10,,,,75,64
148500,note_on,0,0,3,,,,,,,,1,,,,80,75
148500,note_off,120,0,4,,,,,,,,2,,,,78,64
148500,note_on,0,0,4,,,,,,,,2,,,,80,45
148500,note_off,120,0,3,,,,,,,,1,,,,78,64
148620,note_on,160,0,5,,,,,,,,3,,,,78,45
148620,note_on,160,0,11,,,,,,,,10,,,,75,45
148620,note_on,160,0,10,,,,,,,,8,,,,78,45
148620,note_on,0,0,4,,,,,,,,2,,,,81,45
148620,note_off,120,0,4,,,,,,,,2,,,,80,64
148620,note_on,160,0,6,,,,,,,,4,,,,75,45
148620,note_on,0,0,1,,,,,,,,0,,,,66,30
148620,note_on,160,0,1,,,,,,,,0,,,,63,30
148620,note_off,120,0,3,,,,,,,,1,,,,80,64
148620,note_on,0,0,3,,,,,,,,1,,,,81,75
148700,note_off,80,0,11,,,,,,,,10,,,,75,64
148700,note_off,80,0,10,,,,,,,,8,,,,78,64
148700,note_off,80,0,4,,,,,,,,2,,,,81,64
148700,note_off,80,0,5,,,,,,,,3,,,,78,64
148700,note_off,80,0,3,,,,,,,,1,,,,81,64
148700,note_off,80,0,6,,,,,,,,4,,,,75,64
148700,note_off,80,0,1,,,,,,,,0,,,,66,64
148700,note_off,0,0,1,,,,,,,,0,,,,63,64
148860,note_on,160,0,3,,,,,,,,1,,,,83,75
148860,note_on,160,0,11,,,,,,,,10,,,,75,45
148860,note_on,160,0,5,,,,,,,,3,,,,78,45
148860,note_on,160,0,6,,,,,,,,4,,,,75,45
148860,note_on,160,0,1,,,,,,,,0,,,,63,30
148860,note_on,160,0,10,,,,,,,,8,,,,78,45
148860,note_on,160,0,4,,,,,,,,2,,,,83,45
148860,note_on,0,0,1,,,,,,,,0,,,,66,30
148940,note_off,80,0,11,,,,,,,,10,,,,75,64
148940,note_off,80,0,5,,,,,,,,3,,,,78,64
148940,note_off,0,0,1,,,,,,,,0,,,,63,64
148940,note_off,80,0,6,,,,,,,,4,,,,75,64
148940,note_off,80,0,10,,,,,,,,8,,,,78,64
148940,note_off,80,0,1,,,,,,,,0,,,,66,64
148940,note_off,80,0,4,,,,,,,,2,,,,83,64
148940,note_off,80,0,3,,,,,,,,1,,,,83,64
149100,note_on,160,0,3,,,,,,,,1,,,,80,75
149100,note_on,160,0,5,,,,,,,,3,,,,80,45
149100,note_on,0,0,1,,,,,,,,0,,,,68,30
149100,note_on,160,0,1,,,,,,,,0,,,,64,30
149100,note_on,160,0,11,,,,,,,,10,,,,76,45
149100,note_on,160,0,6,,,,,,,,4,,,,76,45
149100,note_on,160,0,4,,,,,,,,2,,,,80,45
149100,note_on,160,0,10,,,,,,,,8,,,,80,45
149180,note_off,80,0,1,,,,,,,,0,,,,68,64
149180,note_off,0,0,1,,,,,,,,0,,,,64,64
149180,note_off,80,0,11,,,,,,,,10,,,,76,64
149180,note_off,80,0,3,,,,,,,,1,,,,80,64
149180,note_off,80,0,6,,,,,,,,4,,,,76,64
149180,note_off,80,0,4,,,,,,,,2,,,,80,64
149180,note_off,80,0,5,,,,,,,,3,,,,80,64
149180,note_off,80,0,10,,,,,,,,8,,,,80,64
149340,note_on,160,0,3,,,,,,,,1,,,,76,75
149340,note_on,160,0,4,,,,,,,,2,,,,76,45
149340,note_on,160,0,11,,,,,,,,10,,,,76,45
149340,note_on,160,0,6,,,,,,,,4,,,,76,45
149340,note_on,160,0,10,,,,,,,,8,,,,80,45
149340,note_on,0,0,1,,,,,,,,0,,,,68,30
149340,note_on,160,0,5,,,,,,,,3,,,,80,45
149340,note_on,160,0,1,,,,,,,,0,,,,64,30
149420,note_off,80,0,1,,,,,,,,0,,,,68,64
149420,note_off,80,0,4,,,,,,,,2,,,,76,64
149420,note_off,0,0,1,,,,,,,,0,,,,64,64
149420,note_off,80,0,11,,,,,,,,10,,,,76,64
149420,note_off,80,0,6,,,,,,,,4,,,,76,64
149420,note_off,80,0,10,,,,,,,,8,,,,80,64
149420,note_off,80,0,3,,,,,,,,1,,,,76,64
149420,note_off,80,0,5,,,,,,,,3,,,,80,64
149580,note_on,160,0,6,,,,,,,,4,,,,76,45
149580,note_on,160,0,10,,,,,,,,8,,,,80,45
149580,note_on,160,0,1,,,,,,,,0,,,,64,30
149580,note_on,160,0,5,,,,,,,,3,,,,80,45
149580,note_on,0,0,1,,,,,,,,0,,,,68,30
149580,note_on,160,0,3,,,,,,,,1,,,,83,75
149580,note_on,160,0,4,,,,,,,,2,,,,83,45
149580,note_on,160,0,11,,,,,,,,10,,,,76,45
149660,note_off,80,0,11,,,,,,,,10,,,,76,64
149660,note_off,80,0,1,,,,,,,,0,,,,68,64
149660,note_off,0,0,1,,,,,,,,0,,,,64,64
149660,note_off,80,0,3,,,,,,,,1,,,,83,64
149660,note_off,80,0,10,,,,,,,,8,,,,80,64
149660,note_off,80,0,5,,,,,,,,3,,,,80,64
149660,note_off,80,0,4,,,,,,,,2,,,,83,64
149660,note_off,80,0,6,,,,,,,,4,,,,76,64
149820,note_on,160,0,1,,,,,,,,0,,,,64,30
149820,note_on,160,0,10,,,,,,,,8,,,,80,45
149820,note_on,0,0,1,,,,,,,,0,,,,68,30
149820,note_on,160,0,3,,,,,,,,1,,,,83,75
149820,note_on,160,0,6,,,,,,,,4,,,,76,45
149820,note_on,160,0,4,,,,,,,,2,,,,83,45
149820,note_on,160,0,11,,,,,,,,10,,,,76,45
149820,note_on,160,0,5,,,,,,,,3,,,,80,45
149900,note_off,80,0,5,,,,,,,,3,,,,80,64
149900,note_off,80,0,6,,,,,,,,4,,,,76,64
149900,note_off,80,0,1,,,,,,,,0,,,,68,64
149900,note_off,0,0,1,,,,,,,,0,,,,64,64
149900,note_off,80,0,11,,,,,,,,10,,,,76,64
149900,note_off,80,0,10,,,,,,,,8,,,,80,64
149940,note_off,120,0,4,,,,,,,,2,,,,83,64
149940,note_on,0,0,3,,,,,,,,1,,,,85,75
149940,note_on,0,0,4,,,,,,,,2,,,,85,45
149940,note_off,120,0,3,,,,,,,,1,,,,83,64
150060,note_on,160,0,10,,,,,,,,8,,,,80,45
150060,note_off,120,0,3,,,,,,,,1,,,,85,64
150060,note_on,0,0,3,,,,,,,,1,,,,87,75
150060,note_on,160,0,11,,,,,,,,10,,,,76,45
150060,note_on,0,0,1,,,,,,,,0,,,,68,30
150060,note_on,160,0,1,,,,,,,,0,,,,64,30
150060,note_on,0,0,4,,,,,,,,2,,,,87,45
150060,note_off,120,0,4,,,,,,,,2,,,,85,64
150060,note_on,160,0,6,,,,,,,,4,,,,76,45
150060,note_on,160,0,5,,,,,,,,3,,,,80,45
150140,note_off,80,0,10,,,,,,,,8,,,,80,64
150140,note_off,80,0,3,,,,,,,,1,,,,87,64
150140,note_off,0,0,1,,,,,,,,0,,,,64,64
150140,note_off,80,0,4,,,,,,,,2,,,,87,64
150140,note_off,80,0,1,,,,,,,,0,,,,68,64
150140,note_off,80,0,11,,,,,,,,10,,,,76,64
150140,note_off,80,0,5,,,,,,,,3,,,,80,64
150140,note_off,80,0,6,,,,,,,,4,,,,76,64
150300,note_on,160,0,1,,,,,,,,0,,,,64,30
150300,note_on,160,0,6,,,,,,,,4,,,,76,45
150300,note_on,160,0,4,,,,,,,,2,,,,88,45
150300,note_on,160,0,11,,,,,,,,10,,,,76,45
150300,note_on,160,0,5,,,,,,,,3,,,,80,45
150300,note_on,160,0,3,,,,,,,,1,,,,88,75
150300,note_on,0,0,1,,,,,,,,0,,,,68,30
150300,note_on,160,0,10,,,,,,,,8,,,,80,45
150380,note_off,80,0,10,,,,,,,,8,,,,80,64
150380,note_off,80,0,3,,,,,,,,1,,,,88,64
150380,note_off,0,0,1,,,,,,,,0,,,,64,64
150380,note_off,80,0,1,,,,,,,,0,,,,68,64
150380,note_off,80,0,11,,,,,,,,10,,,,76,64
150380,note_off,80,0,6,,,,,,,,4,,,,76,64
150380,note_off,80,0,4,,,,,,,,2,,,,88,64
150380,note_off,80,0,5,,,,,,,,3,,,,80,64
150540,note_on,160,0,6,,,,,,,,4,,,,76,45
150540,note_on,160,0,3,,,,,,,,1,,,,83,75
150540,note_on,160,0,10,,,,,,,,8,,,,80,45
150540,note_on,160,0,11,,,,,,,,10,,,,76,45
150540,note_on,160,0,5,,,,,,,,3,,,,80,45
150540,note_on,160,0,4,,,,,,,,2,,,,83,45
150540,note_on,160,0,1,,,,,,,,0,,,,64,30
150540,note_on,0,0,1,,,,,,,,0,,,,68,30
150620,note_off,80,0,5,,,,,,,,3,,,,80,64
150620,note_off,80,0,6,,,,,,,,4,,,,76,64
150620,note_off,80,0,10,,,,,,,,8,,,,80,64
150620,note_off,80,0,1,,,,,,,,0,,,,68,64
150620,note_off,80,0,11,,,,,,,,10,,,,76,64
150620,note_off,80,0,3,,,,,,,,1,,,,83,64
150620,note_off,0,0,1,,,,,,,,0,,,,64,64
150620,note_off,80,0,4,,,,,,,,2,,,,83,64
150780,note_on,160,0,1,,,,,,,,0,,,,64,30
150780,note_on,160,0,10,,,,,,,,8,,,,80,45
150780,note_on,160,0,6,,,,,,,,4,,,,76,45
150780,note_on,160,0,3,,,,,,,,1,,,,80,75
150780,note_on,160,0,5,,,,,,,,3,,,,80,45
150780,note_on,160,0,11,,,,,,,,10,,,,76,45
150780,note_on,160,0,4,,,,,,,,2,,,,80,45
150780,note_on,0,0,1,,,,,,,,0,,,,68,30
150860,note_off,80,0,6,,,,,,,,4,,,,76,64
150860,note_off,80,0,3,,,,,,,,1,,,,80,64
150860,note_off,80,0,11,,,,,,,,10,,,,76,64
150860,note_off,80,0,4,,,,,,,,2,,,,80,64
150860,note_off,80,0,1,,,,,,,,0,,,,68,64
150860,note_off,0,0,1,,,,,,,,0,,,,64,64
150860,note_off,80,0,5,,,,,,,,3,,,,80,64
150860,note_off,80,0,10,,,,,,,,8,,,,80,64
151020,note_on,160,0,1,,,,,,,,0,,,,64,30
151020,note_on,0,0,1,,,,,,,,0,,,,68,30
151020,note_on,160,0,4,,,,,,,,2,,,,83,45
151020,note_on,160,0,11,,,,,,,,10,,,,76,45
151020,note_on,160,0,3,,,,,,,,1,,,,83,75
151020,note_on,160,0,6,,,,,,,,4,,,,76,45
151020,note_on,160,0,10,,,,,,,,8,,,,80,45
151020,note_on,160,0,5,,,,,,,,3,,,,80,45
151100,note_off,80,0,4,,,,,,,,2,,,,83,64
151100,note_off,80,0,10,,,,,,,,8,,,,80,64
151100,note_off,80,0,3,,,,,,,,1,,,,83,64
151100,note_off,80,0,5,,,,,,,,3,,,,80,64
151100,note_off,80,0,11,,,,,,,,10,,,,76,64
151100,note_off,0,0,1,,,,,,,,0,,,,64,64
151100,note_off,80,0,6,,,,,,,,4,,,,76,64
151100,note_off,80,0,1,,,,,,,,0,,,,68,64
151260,note_on,160,0,3,,,,,,,,1,,,,83,75
151260,note_on,160,0,5,,,,,,,,3,,,,80,45
151260,note_on,160,0,10,,,,,,,,8,,,,80,45
151260,note_on,0,0,1,,,,,,,,0,,,,68,30
151260,note_on,160,0,1,,,,,,,,0,,,,64,30
151260,note_on,160,0,4,,,,,,,,2,,,,83,45
151260,note_on,160,0,11,,,,,,,,10,,,,76,45
151260,note_on,160,0,6,,,,,,,,4,,,,76,45
151340,note_off,80,0,6,,,,,,,,4,,,,76,64
151340,note_off,0,0,1,,,,,,,,0,,,,64,64
151340,note_off,80,0,1,,,,,,,,0,,,,68,64
151340,note_off,80,0,10,,,,,,,,8,,,,80,64
151340,note_off,80,0,11,,,,,,,,10,,,,76,64
151340,note_off,80,0,5,,,,,,,,3,,,,80,64
151380,note_off,120,0,4,,,,,,,,2,,,,83,64
151380,note_on,0,0,4,,,,,,,,2,,,,85,45
151380,note_off,120,0,3,,,,,,,,1,,,,83,64
151380,note_on,0,0,3,,,,,,,,1,,,,85,75
151500,note_on,0,0,1,,,,,,,,0,,,,68,30
151500,note_on,160,0,1,,,,,,,,0,,,,64,30
151500,note_on,160,0,5,,,,,,,,3,,,,80,45
151500,note_on,160,0,11,,,,,,,,10,,,,76,45
151500,note_off,120,0,3,,,,,,,,1,,,,85,64
151500,note_on,0,0,3,,,,,,,,1,,,,87,75
151500,note_on,160,0,6,,,,,,,,4,,,,76,45
151500,note_off,120,0,4,,,,,,,,2,,,,85,64
151500,note_on,160,0,10,,,,,,,,8,,,,80,45
151500,note_on,0,0,4,,,,,,,,2,,,,87,45
151580,note_off,80,0,5,,,,,,,,3,,,,80,64
151580,note_off,80,0,11,,,,,,,,10,,,,76,64
151580,note_off,0,0,1,,,,,,,,0,,,,64,64
151580,note_off,80,0,10,,,,,,,,8,,,,80,64
151580,note_off,80,0,4,,,,,,,,2,,,,87,64
151580,note_off,80,0,3,,,,,,,,1,,,,87,64
151580,note_off,80,0,6,,,,,,,,4,,,,76,64
151580,note_off,80,0,1,,,,,,,,0,,,,68,64
151740,note_on,160,0,10,,,,,,,,8,,,,80,45
151740,note_on,160,0,5,,,,,,,,3,,,,80,45
151740,note_on,160,0,4,,,,,,,,2,,,,88,45
151740,note_on,0,0,1,,,,,,,,0,,,,68,30
151740,note_on,160,0,3,,,,,,,,1,,,,88,75
151740,note_on,160,0,6,,,,,,,,4,,,,76,45
151740,note_on,160,0,11,,,,,,,,10,,,,76,45
151740,note_on,160,0,1,,,,,,,,0,,,,64,30
151820,note_off,80,0,10,,,,,,,,8,,,,80,64
151820,note_off,80,0,6,,,,,,,,4,,,,76,64
151820,note_off,80,0,4,,,,,,,,2,,,,88,64
151820,note_off,80,0,5,,,,,,,,3,,,,80,64
151820,note_off,80,0,1,,,,,,,,0,,,,68,64
151820,note_off,80,0,3,,,,,,,,1,,,,88,64
151820,note_off,0,0,1,,,,,,,,0,,,,64,64
151820,note_off,80,0,11,,,,,,,,10,,,,76,64
151980,note_on,54120,0,12,,,,,,,,11,,,,66,45
151980,note_on,160,0,3,,,,,,,,1,,,,82,75
151980,note_on,54120,0,7,,,,,,,,5,,,,66,45
151980,note_on,160,0,1,,,,,,,,0,,,,64,30
151980,note_on,160,0,5,,,,,,,,3,,,,82,45
151980,note_on,0,0,1,,,,,,,,0,,,,66,30
151980,note_on,160,0,6,,,,,,,,4,,,,76,45
151980,note_on,160,0,4,,,,,,,,2,,,,82,45
151980,note_on,160,0,11,,,,,,,,10,,,,76,45
151980,note_on,0,0,1,,,,,,,,0,,,,70,30
151980,note_on,160,0,10,,,,,,,,8,,,,82,45
152060,note_off,80,0,1,,,,,,,,0,,,,70,64
152060,note_off,80,0,10,,,,,,,,8,,,,82,64
152060,note_off,0,0,1,,,,,,,,0,,,,66,64
152060,note_off,80,0,3,,,,,,,,1,,,,82,64
152060,note_off,80,0,6,,,,,,,,4,,,,76,64
152060,note_off,80,0,4,,,,,,,,2,,,,82,64
152060,note_off,80,0,12,,,,,,,,11,,,,66,64
152060,note_off,80,0,7,,,,,,,,5,,,,66,64
152060,note_off,0,0,1,,,,,,,,0,,,,64,64
152060,note_off,80,0,5,,,,,,,,3,,,,82,64
152060,note_off,80,0,11,,,,,,,,10,,,,76,64
152220,note_on,160,0,1,,,,,,,,0,,,,64,30
152220,note_on,160,0,7,,,,,,,,5,,,,66,45
152220,note_on,160,0,5,,,,,,,,3,,,,82,45
152220,note_on,160,0,6,,,,,,,,4,,,,76,45
152220,note_on,160,0,12,,,,,,,,11,,,,66,45
152220,note_on,160,0,3,,,,,,,,1,,,,78,75
152220,note_on,160,0,4,,,,,,,,2,,,,78,45
152220,note_on,0,0,1,,,,,,,,0,,,,66,30
152220,note_on,0,0,1,,,,,,,,0,,,,70,30
152220,note_on,160,0,11,,,,,,,,10,,,,76,45
152220,note_on,160,0,10,,,,,,,,8,,,,82,45
152300,note_off,0,0,1,,,,,,,,0,,,,66,64
152300,note_off,80,0,10,,,,,,,,8,,,,82,64
152300,note_off,80,0,11,,,,,,,,10,,,,76,64
152300,note_off,80,0,5,,,,,,,,3,,,,82,64
152300,note_off,80,0,6,,,,,,,,4,,,,76,64
152300,note_off,80,0,1,,,,,,,,0,,,,70,64
152300,note_off,80,0,12,,,,,,,,11,,,,66,64
152300,note_off,80,0,3,,,,,,,,1,,,,78,64
152300,note_off,80,0,4,,,,,,,,2,,,,78,64
152300,note_off,0,0,1,,,,,,,,0,,,,64,64
152300,note_off,80,0,7,,,,,,,,5,,,,66,64
152460,note_on,0,0,1,,,,,,,,0,,,,70,30
152460,note_on,160,0,11,,,,,,,,10,,,,76,45
152460,note_on,160,0,5,,,,,,,,3,,,,82,45
152460,note_on,0,0,1,,,,,,,,0,,,,66,30
152460,note_on,160,0,1,,,,,,,,0,,,,64,30
152460,note_on,160,0,7,,,,,,,,5,,,,66,45
152460,note_on,160,0,6,,,,,,,,4,,,,76,45
152460,note_on,160,0,4,,,,,,,,2,,,,82,45
152460,note_on,160,0,12,,,,,,,,11,,,,66,45
152460,note_on,160,0,10,,,,,,,,8,,,,82,45
152460,note_on,160,0,3,,,,,,,,1,,,,82,75
152540,note_off,80,0,10,,,,,,,,8,,,,82,64
152540,note_off,0,0,1,,,,,,,,0,,,,64,64
152540,note_off,80,0,12,,,,,,,,11,,,,66,64
152540,note_off,80,0,11,,,,,,,,10,,,,76,64
152540,note_off,80,0,1,,,,,,,,0,,,,70,64
152540,note_off,80,0,6,,,,,,,,4,,,,76,64
152540,note_off,0,0,1,,,,,,,,0,,,,66,64
152540,note_off,80,0,4,,,,,,,,2,,,,82,64
152540,note_off,80,0,5,,,,,,,,3,,,,82,64
152540,note_off,80,0,3,,,,,,,,1,,,,82,64
152540,note_off,80,0,7,,,,,,,,5,,,,66,64
152700,note_on,160,0,3,,,,,,,,1,,,,82,75
152700,note_on,160,0,1,,,,,,,,0,,,,64,30
152700,note_on,160,0,7,,,,,,,,5,,,,66,45
152700,note_on,0,0,1,,,,,,,,0,,,,66,30
152700,note_on,0,0,1,,,,,,,,0,,,,70,30
152700,note_on,160,0,4,,,,,,,,2,,,,82,45
152700,note_on,160,0,10,,,,,,,,8,,,,82,45
152700,note_on,160,0,11,,,,,,,,10,,,,76,45
152700,note_on,160,0,5,,,,,,,,3,,,,82,45
152700,note_on,160,0,6,,,,,,,,4,,,,76,45
152700,note_on,160,0,12,,,,,,,,11,,,,66,45
152780,note_off,0,0,1,,,,,,,,0,,,,64,64
152780,note_off,0,0,1,,,,,,,,0,,,,66,64
152780,note_off,80,0,1,,,,,,,,0,,,,70,64
152780,note_off,80,0,7,,,,,,,,5,,,,66,64
152780,note_off,80,0,11,,,,,,,,10,,,,76,64
152780,note_off,80,0,12,,,,,,,,11,,,,66,64
152780,note_off,80,0,6,,,,,,,,4,,,,76,64
152780,note_off,80,0,10,,,,,,,,8,,,,82,64
152780,note_off,80,0,5,,,,,,,,3,,,,82,64
152820,note_on,0,0,4,,,,,,,,2,,,,83,45
152820,note_off,120,0,4,,,,,,,,2,,,,82,64
152820,note_off,120,0,3,,,,,,,,1,,,,82,64
152820,note_on,0,0,3,,,,,,,,1,,,,83,75
152940,note_on,160,0,11,,,,,,,,10,,,,76,45
152940,note_on,160,0,10,,,,,,,,8,,,,82,45
152940,note_on,0,0,1,,,,,,,,0,,,,70,30
152940,note_on,0,0,1,,,,,,,,0,,,,66,30
152940,note_on,160,0,1,,,,,,,,0,,,,64,30
152940,note_on,0,0,4,,,,,,,,2,,,,85,45
152940,note_on,160,0,12,,,,,,,,11,,,,66,45
152940,note_off,120,0,4,,,,,,,,2,,,,83,64
152940,note_on,160,0,6,,,,,,,,4,,,,76,45
152940,note_off,120,0,3,,,,,,,,1,,,,83,64
152940,note_on,0,0,3,,,,,,,,1,,,,85,75
152940,note_on,160,0,5,,,,,,,,3,,,,82,45
152940,note_on,160,0,7,,,,,,,,5,,,,66,45
153020,note_off,80,0,1,,,,,,,,0,,,,70,64
153020,note_off,0,0,1,,,,,,,,0,,,,66,64
153020,note_off,0,0,1,,,,,,,,0,,,,64,64
153020,note_off,80,0,11,,,,,,,,10,,,,76,64
153020,note_off,80,0,6,,,,,,,,4,,,,76,64
153020,note_off,80,0,3,,,,,,,,1,,,,85,64
153020,note_off,80,0,10,,,,,,,,8,,,,82,64
153020,note_off,80,0,12,,,,,,,,11,,,,66,64
153020,note_off,80,0,4,,,,,,,,2,,,,85,64
153020,note_off,80,0,5,,,,,,,,3,,,,82,64
153020,note_off,80,0,7,,,,,,,,5,,,,66,64
153180,note_on,160,0,1,,,,,,,,0,,,,64,30
153180,note_on,160,0,4,,,,,,,,2,,,,83,45
153180,note_on,160,0,5,,,,,,,,3,,,,82,45
153180,note_on,160,0,6,,,,,,,,4,,,,76,45
153180,note_on,160,0,3,,,,,,,,1,,,,83,75
153180,note_on,0,0,1,,,,,,,,0,,,,66,30
153180,note_on,160,0,12,,,,,,,,11,,,,66,45
153180,note_on,160,0,10,,,,,,,,8,,,,82,45
153180,note_on,160,0,7,,,,,,,,5,,,,66,45
153180,note_on,0,0,1,,,,,,,,0,,,,70,30
153180,note_on,160,0,11,,,,,,,,10,,,,76,45
153260,note_off,80,0,6,,,,,,,,4,,,,76,64
153260,note_off,80,0,5,,,,,,,,3,,,,82,64
153260,note_off,80,0,3,,,,,,,,1,,,,83,64
153260,note_off,80,0,1,,,,,,,,0,,,,70,64
153260,note_off,80,0,10,,,,,,,,8,,,,82,64
153260,note_off,0,0,1,,,,,,,,0,,,,66,64
153260,note_off,0,0,1,,,,,,,,0,,,,64,64
153260,note_off,80,0,12,,,,,,,,11,,,,66,64
153260,note_off,80,0,4,,,,,,,,2,,,,83,64
153260,note_off,80,0,11,,,,,,,,10,,,,76,64
153260,note_off,80,0,7,,,,,,,,5,,,,66,64
153420,note_on,160,0,11,,,,,,,,10,,,,76,45
153420,note_on,160,0,10,,,,,,,,8,,,,82,45
153420,note_on,160,0,12,,,,,,,,11,,,,66,45
153420,note_on,160,0,6,,,,,,,,4,,,,76,45
153420,note_on,160,0,5,,,,,,,,3,,,,82,45
153420,note_on,160,0,1,,,,,,,,0,,,,64,30
153420,note_on,0,0,1,,,,,,,,0,,,,66,30
153420,note_on,0,0,1,,,,,,,,0,,,,70,30
153420,note_on,160,0,7,,,,,,,,5,,,,66,45
153420,note_on,160,0,3,,,,,,,,1,,,,82,75
153420,note_on,160,0,4,,,,,,,,2,,,,82,45
153500,note_off,80,0,3,,,,,,,,1,,,,82,64
153500,note_off,80,0,12,,,,,,,,11,,,,66,64
153500,note_off,80,0,11,,,,,,,,10,,,,76,64
153500,note_off,80,0,4,,,,,,,,2,,,,82,64
153500,note_off,80,0,7,,,,,,,,5,,,,66,64
153500,note_off,80,0,5,,,,,,,,3,,,,82,64
153500,note_off,80,0,10,,,,,,,,8,,,,82,64
153500,note_off,80,0,1,,,,,,,,0,,,,70,64
153500,note_off,0,0,1,,,,,,,,0,,,,66,64
153500,note_off,0,0,1,,,,,,,,0,,,,64,64
153500,note_off,80,0,6,,,,,,,,4,,,,76,64
153660,note_on,160,0,5,,,,,,,,3,,,,82,45
153660,note_on,160,0,3,,,,,,,,1,,,,78,75
153660,note_on,160,0,1,,,,,,,,0,,,,64,30
153660,note_on,160,0,11,,,,,,,,10,,,,76,45
153660,note_on,0,0,1,,,,,,,,0,,,,66,30
153660,note_on,0,0,1,,,,,,,,0,,,,70,30
153660,note_on,160,0,4,,,,,,,,2,,,,78,45
153660,note_on,160,0,12,,,,,,,,11,,,,66,45
153660,note_on,160,0,10,,,,,,,,8,,,,82,45
153660,note_on,160,0,6,,,,,,,,4,,,,76,45
153660,note_on,160,0,7,,,,,,,,5,,,,66,45
153740,note_off,80,0,12,,,,,,,,11,,,,66,64
153740,note_off,80,0,10,,,,,,,,8,,,,82,64
153740,note_off,80,0,3,,,,,,,,1,,,,78,64
153740,note_off,80,0,6,,,,,,,,4,,,,76,64
153740,note_off,80,0,5,,,,,,,,3,,,,82,64
153740,note_off,80,0,7,,,,,,,,5,,,,66,64
153740,note_off,80,0,11,,,,,,,,10,,,,76,64
153740,note_off,80,0,1,,,,,,,,0,,,,70,64
153740,note_off,0,0,1,,,,,,,,0,,,,66,64
153740,note_off,0,0,1,,,,,,,,0,,,,64,64
153740,note_off,80,0,4,,,,,,,,2,,,,78,64
153900,note_on,0,0,1,,,,,,,,0,,,,70,30
153900,note_on,0,0,1,,,,,,,,0,,,,66,30
153900,note_on,160,0,1,,,,,,,,0,,,,64,30
153900,note_on,160,0,12,,,,,,,,11,,,,66,45
153900,note_on,160,0,4,,,,,,,,2,,,,82,45
153900,note_on,160,0,7,,,,,,,,5,,,,66,45
153900,note_on,160,0,11,,,,,,,,10,,,,76,45
153900,note_on,160,0,6,,,,,,,,4,,,,76,45
153900,note_on,160,0,3,,,,,,,,1,,,,82,75
153900,note_on,160,0,5,,,,,,,,3,,,,82,45
153900,note_on,160,0,10,,,,,,,,8,,,,82,45
153980,note_off,80,0,6,,,,,,,,4,,,,76,64
153980,note_off,80,0,1,,,,,,,,0,,,,70,64
153980,note_off,80,0,4,,,,,,,,2,,,,82,64
153980,note_off,80,0,10,,,,,,,,8,,,,82,64
153980,note_off,0,0,1,,,,,,,,0,,,,64,64
153980,note_off,80,0,5,,,,,,,,3,,,,82,64
153980,note_off,80,0,12,,,,,,,,11,,,,66,64
153980,note_off,80,0,11,,,,,,,,10,,,,76,64
153980,note_off,80,0,3,,,,,,,,1,,,,82,64
153980,note_off,80,0,7,,,,,,,,5,,,,66,64
153980,note_off,0,0,1,,,,,,,,0,,,,66,64
154140,note_on,160,0,10,,,,,,,,8,,,,82,45
154140,note_on,160,0,12,,,,,,,,11,,,,66,45
154140,note_on,160,0,11,,,,,,,,10,,,,76,45
154140,note_on,160,0,7,,,,,,,,5,,,,66,45
154140,note_on,160,0,3,,,,,,,,1,,,,82,75
154140,note_on,160,0,5,,,,,,,,3,,,,82,45
154140,note_on,160,0,4,,,,,,,,2,,,,82,45
154140,note_on,0,0,1,,,,,,,,0,,,,66,30
154140,note_on,160,0,1,,,,,,,,0,,,,64,30
154140,note_on,160,0,6,,,,,,,,4,,,,76,45
154140,note_on,0,0,1,,,,,,,,0,,,,70,30
154220,note_off,80,0,11,,,,,,,,10,,,,76,64
154220,note_off,80,0,12,,,,,,,,11,,,,66,64
154220,note_off,0,0,1,,,,,,,,0,,,,66,64
154220,note_off,80,0,10,,,,,,,,8,,,,82,64
154220,note_off,80,0,6,,,,,,,,4,,,,76,64
154220,note_off,80,0,1,,,,,,,,0,,,,70,64
154220,note_off,80,0,5,,,,,,,,3,,,,82,64
154220,note_off,0,0,1,,,,,,,,0,,,,64,64
154220,note_off,80,0,7,,,,,,,,5,,,,66,64
154260,note_on,0,0,3,,,,,,,,1,,,,83,75
154260,note_off,120,0,4,,,,,,,,2,,,,82,64
154260,note_off,120,0,3,,,,,,,,1,,,,82,64
154260,note_on,0,0,4,,,,,,,,2,,,,83,45
154380,note_on,160,0,12,,,,,,,,11,,,,66,45
154380,note_on,0,0,4,,,,,,,,2,,,,85,45
154380,note_on,160,0,11,,,,,,,,10,,,,76,45
154380,note_off,120,0,4,,,,,,,,2,,,,83,64
154380,note_on,0,0,3,,,,,,,,1,,,,85,75
154380,note_on,0,0,1,,,,,,,,0,,,,70,30
154380,note_on,160,0,10,,,,,,,,8,,,,82,45
154380,note_on,160,0,1,,,,,,,,0,,,,64,30
154380,note_on,0,0,1,,,,,,,,0,,,,66,30
154380,note_on,160,0,7,,,,,,,,5,,,,66,45
154380,note_on,160,0,5,,,,,,,,3,,,,82,45
154380,note_on,160,0,6,,,,,,,,4,,,,76,45
154380,note_off,120,0,3,,,,,,,,1,,,,83,64
154460,note_off,80,0,1,,,,,,,,0,,,,70,64
154460,note_off,0,0,1,,,,,,,,0,,,,66,64
154460,note_off,80,0,7,,,,,,,,5,,,,66,64
154460,note_off,80,0,6,,,,,,,,4,,,,76,64
154460,note_off,80,0,10,,,,,,,,8,,,,82,64
154460,note_off,0,0,1,,,,,,,,0,,,,64,64
154460,note_off,80,0,4,,,,,,,,2,,,,85,64
154460,note_off,80,0,3,,,,,,,,1,,,,85,64
154460,note_off,80,0,5,,,,,,,,3,,,,82,64
154460,note_off,80,0,12,,,,,,,,11,,,,66,64
154460,note_off,80,0,11,,,,,,,,10,,,,76,64
154620,note_on,0,0,1,,,,,,,,0,,,,70,30
154620,note_on,160,0,1,,,,,,,,0,,,,64,30
154620,note_on,160,0,3,,,,,,,,1,,,,76,75
154620,note_on,0,0,1,,,,,,,,0,,,,66,30
154620,note_on,160,0,7,,,,,,,,5,,,,66,45
154620,note_on,160,0,5,,,,,,,,3,,,,82,45
154620,note_on,160,0,4,,,,,,,,2,,,,76,45
154620,note_on,160,0,6,,,,,,,,4,,,,76,45
154620,note_on,160,0,11,,,,,,,,10,,,,76,45
154620,note_on,160,0,12,,,,,,,,11,,,,66,45
154620,note_on,160,0,10,,,,,,,,8,,,,82,45
154700,note_off,80,0,10,,,,,,,,8,,,,82,64
154700,note_off,80,0,5,,,,,,,,3,,,,82,64
154700,note_off,80,0,4,,,,,,,,2,,,,76,64
154700,note_off,80,0,6,,,,,,,,4,,,,76,64
154700,note_off,80,0,1,,,,,,,,0,,,,70,64
154700,note_off,0,0,1,,,,,,,,0,,,,64,64
154700,note_off,80,0,12,,,,,,,,11,,,,66,64
154700,note_off,80,0,7,,,,,,,,5,,,,66,64
154700,note_off,80,0,11,,,,,,,,10,,,,76,64
154700,note_off,0,0,1,,,,,,,,0,,,,66,64
154700,note_off,80,0,3,,,,,,,,1,,,,76,64
154860,note_on,160,0,7,,,,,,,,5,,,,59,45
154860,note_on,160,0,11,,,,,,,,10,,,,75,45
154860,note_on,160,0,10,,,,,,,,8,,,,78,45
154860,note_on,160,0,5,,,,,,,,3,,,,78,45
154860,note_on,160,0,12,,,,,,,,11,,,,59,45
154860,note_on,160,0,3,,,,,,,,1,,,,75,75
154860,note_on,160,0,4,,,,,,,,2,,,,75,45
154860,note_on,160,0,1,,,,,,,,0,,,,59,30
154860,note_on,0,0,1,,,,,,,,0,,,,63,30
154860,note_on,0,0,1,,,,,,,,0,,,,66,30
154860,note_on,160,0,6,,,,,,,,4,,,,75,45
154940,note_off,80,0,12,,,,,,,,11,,,,59,64
154940,note_off,80,0,10,,,,,,,,8,,,,78,64
154940,note_off,80,0,6,,,,,,,,4,,,,75,64
154940,note_off,0,0,1,,,,,,,,0,,,,59,64
154940,note_off,80,0,3,,,,,,,,1,,,,75,64
154940,note_off,80,0,4,,,,,,,,2,,,,75,64
154940,note_off,80,0,1,,,,,,,,0,,,,66,64
154940,note_off,80,0,5,,,,,,,,3,,,,78,64
154940,note_off,80,0,7,,,,,,,,5,,,,59,64
154940,note_off,0,0,1,,,,,,,,0,,,,63,64
154940,note_off,80,0,11,,,,,,,,10,,,,75,64
155100,note_on,160,0,6,,,,,,,,4,,,,75,45
155100,note_on,160,0,12,,,,,,,,11,,,,59,45
155100,note_on,160,0,5,,,,,,,,3,,,,78,45
155100,note_on,0,0,1,,,,,,,,0,,,,63,30
155100,note_on,160,0,10,,,,,,,,8,,,,78,45
155100,note_on,0,0,1,,,,,,,,0,,,,66,30
155100,note_on,160,0,3,,,,,,,,1,,,,71,75
155100,note_on,160,0,1,,,,,,,,0,,,,59,30
155100,note_on,160,0,11,,,,,,,,10,,,,75,45
155100,note_on,160,0,7,,,,,,,,5,,,,59,45
155100,note_on,160,0,4,,,,,,,,2,,,,71,45
155180,note_off,80,0,4,,,,,,,,2,,,,71,64
155180,note_off,80,0,12,,,,,,,,11,,,,59,64
155180,note_off,80,0,7,,,,,,,,5,,,,59,64
155180,note_off,80,0,3,,,,,,,,1,,,,71,64
155180,note_off,80,0,10,,,,,,,,8,,,,78,64
155180,note_off,80,0,5,,,,,,,,3,,,,78,64
155180,note_off,80,0,6,,,,,,,,4,,,,75,64
155180,note_off,0,0,1,,,,,,,,0,,,,59,64
155180,note_off,0,0,1,,,,,,,,0,,,,63,64
155180,note_off,80,0,1,,,,,,,,0,,,,66,64
155180,note_off,80,0,11,,,,,,,,10,,,,75,64
155340,note_on,160,0,7,,,,,,,,5,,,,59,45
155340,note_on,160,0,5,,,,,,,,3,,,,78,45
155340,note_on,160,0,6,,,,,,,,4,,,,75,45
155340,note_on,160,0,10,,,,,,,,8,,,,78,45
155340,note_on,160,0,11,,,,,,,,10,,,,75,45
155340,note_on,160,0,3,,,,,,,,1,,,,78,75
155340,note_on,160,0,4,,,,,,,,2,,,,78,45
155340,note_on,160,0,1,,,,,,,,0,,,,59,30
155340,note_on,0,0,1,,,,,,,,0,,,,63,30
155340,note_on,0,0,1,,,,,,,,0,,,,66,30
155340,note_on,160,0,12,,,,,,,,11,,,,59,45
155420,note_off,80,0,10,,,,,,,,8,,,,78,64
155420,note_off,80,0,5,,,,,,,,3,,,,78,64
155420,note_off,80,0,11,,,,,,,,10,,,,75,64
155420,note_off,80,0,4,,,,,,,,2,,,,78,64
155420,note_off,80,0,12,,,,,,,,11,,,,59,64
155420,note_off,80,0,7,,,,,,,,5,,,,59,64
155420,note_off,0,0,1,,,,,,,,0,,,,59,64
155420,note_off,80,0,3,,,,,,,,1,,,,78,64
155420,note_off,0,0,1,,,,,,,,0,,,,63,64
155420,note_off,80,0,1,,,,,,,,0,,,,66,64
155420,note_off,80,0,6,,,,,,,,4,,,,75,64
155580,note_on,160,0,5,,,,,,,,3,,,,78,45
155580,note_on,160,0,12,,,,,,,,11,,,,59,45
155580,note_on,0,0,1,,,,,,,,0,,,,66,30
155580,note_on,160,0,11,,,,,,,,10,,,,75,45
155580,note_on,160,0,6,,,,,,,,4,,,,75,45
155580,note_on,0,0,1,,,,,,,,0,,,,63,30
155580,note_on,160,0,4,,,,,,,,2,,,,78,45
155580,note_on,160,0,7,,,,,,,,5,,,,59,45
155580,note_on,160,0,10,,,,,,,,8,,,,78,45
155580,note_on,160,0,1,,,,,,,,0,,,,59,30
155580,note_on,160,0,3,,,,,,,,1,,,,78,75
155660,note_off,80,0,12,,,,,,,,11,,,,59,64
155660,note_off,80,0,5,,,,,,,,3,,,,78,64
155660,note_off,80,0,1,,,,,,,,0,,,,66,64
155660,note_off,80,0,7,,,,,,,,5,,,,59,64
155660,note_off,0,0,1,,,,,,,,0,,,,59,64
155660,note_off,0,0,1,,,,,,,,0,,,,63,64
155660,note_off,80,0,10,,,,,,,,8,,,,78,64
155660,note_off,80,0,6,,,,,,,,4,,,,75,64
155660,note_off,80,0,11,,,,,,,,10,,,,75,64
155700,note_on,0,0,4,,,,,,,,2,,,,80,45
155700,note_off,120,0,3,,,,,,,,1,,,,78,64
155700,note_off,120,0,4,,,,,,,,2,,,,78,64
155700,note_on,0,0,3,,,,,,,,1,,,,80,75
155820,note_on,0,0,1,,,,,,,,0,,,,63,30
155820,note_on,0,0,1,,,,,,,,0,,,,66,30
155820,note_on,160,0,5,,,,,,,,3,,,,78,45
155820,note_on,160,0,1,,,,,,,,0,,,,59,30
155820,note_on,160,0,6,,,,,,,,4,,,,75,45
155820,note_off,120,0,4,,,,,,,,2,,,,80,64
155820,note_on,160,0,12,,,,,,,,11,,,,59,45
155820,note_on,0,0,3,,,,,,,,1,,,,82,75
155820,note_on,0,0,4,,,,,,,,2,,,,82,45
155820,note_on,160,0,10,,,,,,,,8,,,,78,45
155820,note_on,160,0,7,,,,,,,,5,,,,59,45
155820,note_on,160,0,11,,,,,,,,10,,,,75,45
155820,note_off,120,0,3,,,,,,,,1,,,,80,64
155900,note_off,80,0,6,,,,,,,,4,,,,75,64
155900,note_off,80,0,4,,,,,,,,2,,,,82,64
155900,note_off,80,0,10,,,,,,,,8,,,,78,64
155900,note_off,80,0,7,,,,,,,,5,,,,59,64
155900,note_off,80,0,11,,,,,,,,10,,,,75,64
155900,note_off,80,0,1,,,,,,,,0,,,,66,64
155900,note_off,0,0,1,,,,,,,,0,,,,63,64
155900,note_off,0,0,1,,,,,,,,0,,,,59,64
155900,note_off,80,0,5,,,,,,,,3,,,,78,64
155900,note_off,80,0,12,,,,,,,,11,,,,59,64
155900,note_off,80,0,3,,,,,,,,1,,,,82,64
156060,note_on,160,0,11,,,,,,,,10,,,,75,45
156060,note_on,160,0,7,,,,,,,,5,,,,59,45
156060,note_on,160,0,12,,,,,,,,11,,,,59,45
156060,note_on,160,0,10,,,,,,,,8,,,,78,45
156060,note_on,0,0,1,,,,,,,,0,,,,66,30
156060,note_on,0,0,1,,,,,,,,0,,,,63,30
156060,note_on,160,0,1,,,,,,,,0,,,,59,30
156060,note_on,160,0,6,,,,,,,,4,,,,75,45
156060,note_on,160,0,3,,,,,,,,1,,,,83,75
156060,note_on,160,0,4,,,,,,,,2,,,,83,45
156060,note_on,160,0,5,,,,,,,,3,,,,78,45
156140,note_off,80,0,10,,,,,,,,8,,,,78,64
156140,note_off,80,0,4,,,,,,,,2,,,,83,64
156140,note_off,80,0,5,,,,,,,,3,,,,78,64
156140,note_off,80,0,12,,,,,,,,11,,,,59,64
156140,note_off,80,0,11,,,,,,,,10,,,,75,64
156140,note_off,80,0,3,,,,,,,,1,,,,83,64
156140,note_off,80,0,1,,,,,,,,0,,,,66,64
156140,note_off,0,0,1,,,,,,,,0,,,,63,64
156140,note_off,0,0,1,,,,,,,,0,,,,59,64
156140,note_off,80,0,6,,,,,,,,4,,,,75,64
156140,note_off,80,0,7,,,,,,,,5,,,,59,64
156300,note_on,160,0,4,,,,,,,,2,,,,78,45
156300,note_on,160,0,10,,,,,,,,8,,,,83,45
156300,note_on,160,0,3,,,,,,,,1,,,,78,75
156300,note_on,0,0,1,,,,,,,,0,,,,63,30
156300,note_on,160,0,7,,,,,,,,5,,,,59,45
156300,note_on,0,0,1,,,,,,,,0,,,,71,30
156300,note_on,160,0,12,,,,,,,,11,,,,59,45
156300,note_on,160,0,5,,,,,,,,3,,,,83,45
156300,note_on,160,0,11,,,,,,,,10,,,,75,45
156300,note_on,160,0,1,,,,,,,,0,,,,59,30
156300,note_on,160,0,6,,,,,,,,4,,,,75,45
156380,note_off,80,0,3,,,,,,,,1,,,,78,64
156380,note_off,80,0,12,,,,,,,,11,,,,59,64
156380,note_off,80,0,10,,,,,,,,8,,,,83,64
156380,note_off,80,0,5,,,,,,,,3,,,,83,64
156380,note_off,0,0,1,,,,,,,,0,,,,59,64
156380,note_off,80,0,11,,,,,,,,10,,,,75,64
156380,note_off,0,0,1,,,,,,,,0,,,,63,64
156380,note_off,80,0,1,,,,,,,,0,,,,71,64
156380,note_off,80,0,6,,,,,,,,4,,,,75,64
156380,note_off,80,0,4,,,,,,,,2,,,,78,64
156380,note_off,80,0,7,,,,,,,,5,,,,59,64
156540,note_on,160,0,6,,,,,,,,4,,,,75,46
156540,note_on,160,0,3,,,,,,,,1,,,,75,75
156540,note_on,160,0,5,,,,,,,,3,,,,83,46
156540,note_on,160,0,7,,,,,,,,5,,,,59,46
156540,note_on,160,0,11,,,,,,,,10,,,,75,46
156540,note_on,160,0,1,,,,,,,,0,,,,59,31
156540,note_on,160,0,4,,,,,,,,2,,,,75,46
156540,note_on,0,0,1,,,,,,,,0,,,,71,31
156540,note_on,160,0,10,,,,,,,,8,,,,83,46
156540,note_on,0,0,1,,,,,,,,0,,,,63,31
156540,note_on,160,0,12,,,,,,,,11,,,,59,46
156620,note_off,80,0,7,,,,,,,,5,,,,59,64
156620,note_off,80,0,6,,,,,,,,4,,,,75,64
156620,note_off,80,0,1,,,,,,,,0,,,,71,64
156620,note_off,80,0,12,,,,,,,,11,,,,59,64
156620,note_off,80,0,3,,,,,,,,1,,,,75,64
156620,note_off,80,0,4,,,,,,,,2,,,,75,64
156620,note_off,0,0,1,,,,,,,,0,,,,63,64
156620,note_off,80,0,10,,,,,,,,8,,,,83,64
156620,note_off,0,0,1,,,,,,,,0,,,,59,64
156620,note_off,80,0,11,,,,,,,,10,,,,75,64
156620,note_off,80,0,5,,,,,,,,3,,,,83,64
156780,note_on,160,0,3,,,,,,,,1,,,,78,75
156780,note_on,160,0,10,,,,,,,,8,,,,83,46
156780,note_on,0,0,1,,,,,,,,0,,,,63,31
156780,note_on,0,0,1,,,,,,,,0,,,,71,31
156780,note_on,160,0,1,,,,,,,,0,,,,59,31
156780,note_on,160,0,6,,,,,,,,4,,,,75,46
156780,note_on,160,0,12,,,,,,,,11,,,,59,46
156780,note_on,160,0,11,,,,,,,,10,,,,75,46
156780,note_on,160,0,4,,,,,,,,2,,,,78,46
156780,note_on,160,0,5,,,,,,,,3,,,,83,46
156780,note_on,160,0,7,,,,,,,,5,,,,59,46
156860,note_off,80,0,7,,,,,,,,5,,,,59,64
156860,note_off,80,0,12,,,,,,,,11,,,,59,64
156860,note_off,80,0,5,,,,,,,,3,,,,83,64
156860,note_off,80,0,6,,,,,,,,4,,,,75,64
156860,note_off,80,0,3,,,,,,,,1,,,,78,64
156860,note_off,80,0,11,,,,,,,,10,,,,75,64
156860,note_off,80,0,10,,,,,,,,8,,,,83,64
156860,note_off,80,0,1,,,,,,,,0,,,,71,64
156860,note_off,0,0,1,,,,,,,,0,,,,63,64
156860,note_off,80,0,4,,,,,,,,2,,,,78,64
156860,note_off,0,0,1,,,,,,,,0,,,,59,64
157020,note_on,160,0,12,,,,,,,,11,,,,59,47
157020,note_on,160,0,11,,,,,,,,10,,,,75,47
157020,note_on,160,0,1,,,,,,,,0,,,,59,32
157020,note_on,160,0,4,,,,,,,,2,,,,78,47
157020,note_on,160,0,6,,,,,,,,4,,,,75,47
157020,note_on,160,0,7,,,,,,,,5,,,,59,47
157020,note_on,0,0,1,,,,,,,,0,,,,71,32
157020,note_on,160,0,10,,,,,,,,8,,,,83,47
157020,note_on,160,0,3,,,,,,,,1,,,,78,75
157020,note_on,160,0,5,,,,,,,,3,,,,83,47
157020,note_on,0,0,1,,,,,,,,0,,,,63,32
157100,note_off,80,0,10,,,,,,,,8,,,,83,64
157100,note_off,80,0,5,,,,,,,,3,,,,83,64
157100,note_off,80,0,6,,,,,,,,4,,,,75,64
157100,note_off,80,0,11,,,,,,,,10,,,,75,64
157100,note_off,80,0,1,,,,,,,,0,,,,71,64
157100,note_off,80,0,7,,,,,,,,5,,,,59,64
157100,note_off,0,0,1,,,,,,,,0,,,,63,64
157100,note_off,80,0,12,,,,,,,,11,,,,59,64
157100,note_off,0,0,1,,,,,,,,0,,,,59,64
157140,note_off,120,0,4,,,,,,,,2,,,,78,64
157140,note_on,0,0,4,,,,,,,,2,,,,80,47
157140,note_on,0,0,3,,,,,,,,1,,,,80,75
157140,note_off,120,0,3,,,,,,,,1,,,,78,64
157260,note_off,120,0,3,,,,,,,,1,,,,80,64
157260,note_on,160,0,5,,,,,,,,3,,,,83,48
157260,note_on,160,0,6,,,,,,,,4,,,,75,48
157260,note_on,160,0,12,,,,,,,,11,,,,59,48
157260,note_on,160,0,10,,,,,,,,8,,,,83,48
157260,note_on,160,0,1,,,,,,,,0,,,,59,33
157260,note_on,160,0,11,,,,,,,,10,,,,75,48
157260,note_on,0,0,1,,,,,,,,0,,,,63,33
157260,note_on,0,0,1,,,,,,,,0,,,,71,33
157260,note_on,0,0,4,,,,,,,,2,,,,82,47
157260,note_off,120,0,4,,,,,,,,2,,,,80,64
157260,note_on,0,0,3,,,,,,,,1,,,,82,75
157260,note_on,160,0,7,,,,,,,,5,,,,59,48
157340,note_off,0,0,1,,,,,,,,0,,,,59,64
157340,note_off,80,0,7,,,,,,,,5,,,,59,64
157340,note_off,80,0,1,,,,,,,,0,,,,71,64
157340,note_off,80,0,12,,,,,,,,11,,,,59,64
157340,note_off,80,0,10,,,,,,,,8,,,,83,64
157340,note_off,80,0,3,,,,,,,,1,,,,82,64
157340,note_off,80,0,6,,,,,,,,4,,,,75,64
157340,note_off,80,0,5,,,,,,,,3,,,,83,64
157340,note_off,80,0,11,,,,,,,,10,,,,75,64
157340,note_off,80,0,4,,,,,,,,2,,,,82,64
157340,note_off,0,0,1,,,,,,,,0,,,,63,64
157500,note_on,160,0,12,,,,,,,,11,,,,59,49
157500,note_on,0,0,1,,,,,,,,0,,,,71,34
157500,note_on,0,0,1,,,,,,,,0,,,,63,34
157500,note_on,160,0,3,,,,,,,,1,,,,83,75
157500,note_on,160,0,11,,,,,,,,10,,,,75,49
157500,note_on,160,0,4,,,,,,,,2,,,,83,48
157500,note_on,160,0,10,,,,,,,,8,,,,83,49
157500,note_on,160,0,7,,,,,,,,5,,,,59,49
157500,note_on,160,0,6,,,,,,,,4,,,,75,49
157500,note_on,160,0,5,,,,,,,,3,,,,83,49
157500,note_on,160,0,1,,,,,,,,0,,,,59,34
157580,note_off,80,0,1,,,,,,,,0,,,,71,64
157580,note_off,0,0,1,,,,,,,,0,,,,63,64
157580,note_off,0,0,1,,,,,,,,0,,,,59,64
157580,note_off,80,0,6,,,,,,,,4,,,,75,64
157580,note_off,80,0,11,,,,,,,,10,,,,75,64
157580,note_off,80,0,5,,,,,,,,3,,,,83,64
157580,note_off,80,0,12,,,,,,,,11,,,,59,64
157580,note_off,80,0,7,,,,,,,,5,,,,59,64
157580,note_off,80,0,3,,,,,,,,1,,,,83,64
157580,note_off,80,0,4,,,,,,,,2,,,,83,64
157580,note_off,80,0,10,,,,,,,,8,,,,83,64
157740,note_on,160,0,3,,,,,,,,1,,,,78,75
157740,note_on,160,0,4,,,,,,,,2,,,,78,49
157740,note_on,160,0,6,,,,,,,,4,,,,73,50
157740,note_on,160,0,10,,,,,,,,8,,,,83,50
157740,note_on,160,0,5,,,,,,,,3,,,,83,50
157740,note_on,160,0,12,,,,,,,,11,,,,66,50
157740,note_on,160,0,1,,,,,,,,0,,,,61,35
157740,note_on,0,0,1,,,,,,,,0,,,,66,35
157740,note_on,0,0,1,,,,,,,,0,,,,71,35
157740,note_on,160,0,7,,,,,,,,5,,,,66,50
157740,note_on,160,0,11,,,,,,,,10,,,,73,50
157820,note_off,80,0,1,,,,,,,,0,,,,71,64
157820,note_off,80,0,12,,,,,,,,11,,,,66,64
157820,note_off,80,0,5,,,,,,,,3,,,,83,64
157820,note_off,80,0,10,,,,,,,,8,,,,83,64
157820,note_off,80,0,4,,,,,,,,2,,,,78,64
157820,note_off,80,0,3,,,,,,,,1,,,,78,64
157820,note_off,80,0,7,,,,,,,,5,,,,66,64
157820,note_off,0,0,1,,,,,,,,0,,,,66,64
157820,note_off,80,0,11,,,,,,,,10,,,,73,64
157820,note_off,80,0,6,,,,,,,,4,,,,73,64
157820,note_off,0,0,1,,,,,,,,0,,,,61,64
157980,note_on,160,0,3,,,,,,,,1,,,,73,75
157980,note_on,160,0,11,,,,,,,,10,,,,73,51
157980,note_on,160,0,6,,,,,,,,4,,,,73,51
157980,note_on,160,0,10,,,,,,,,8,,,,83,51
157980,note_on,160,0,12,,,,,,,,11,,,,66,51
157980,note_on,0,0,1,,,,,,,,0,,,,71,36
157980,note_on,0,0,1,,,,,,,,0,,,,66,36
157980,note_on,160,0,5,,,,,,,,3,,,,83,51
157980,note_on,160,0,7,,,,,,,,5,,,,66,51
157980,note_on,160,0,1,,,,,,,,0,,,,61,36
157980,note_on,160,0,4,,,,,,,,2,,,,73,50
158060,note_off,80,0,7,,,,,,,,5,,,,66,64
158060,note_off,80,0,10,,,,,,,,8,,,,83,64
158060,note_off,80,0,6,,,,,,,,4,,,,73,64
158060,note_off,80,0,11,,,,,,,,10,,,,73,64
158060,note_off,80,0,4,,,,,,,,2,,,,73,64
158060,note_off,0,0,1,,,,,,,,0,,,,61,64
158060,note_off,0,0,1,,,,,,,,0,,,,66,64
158060,note_off,80,0,3,,,,,,,,1,,,,73,64
158060,note_off,80,0,1,,,,,,,,0,,,,71,64
158060,note_off,80,0,5,,,,,,,,3,,,,83,64
158060,note_off,80,0,12,,,,,,,,11,,,,66,64
158220,note_on,160,0,6,,,,,,,,4,,,,73,52
158220,note_on,160,0,5,,,,,,,,3,,,,83,52
158220,note_on,160,0,12,,,,,,,,11,,,,66,52
158220,note_on,160,0,7,,,,,,,,5,,,,66,52
158220,note_on,0,0,1,,,,,,,,0,,,,71,37
158220,note_on,160,0,11,,,,,,,,10,,,,73,52
158220,note_on,160,0,3,,,,,,,,1,,,,78,75
158220,note_on,160,0,10,,,,,,,,8,,,,83,52
158220,note_on,0,0,1,,,,,,,,0,,,,66,37
158220,note_on,160,0,4,,,,,,,,2,,,,78,51
158220,note_on,160,0,1,,,,,,,,0,,,,61,37
158300,note_off,80,0,11,,,,,,,,10,,,,73,64
158300,note_off,80,0,3,,,,,,,,1,,,,78,64
158300,note_off,80,0,10,,,,,,,,8,,,,83,64
158300,note_off,80,0,4,,,,,,,,2,,,,78,64
158300,note_off,0,0,1,,,,,,,,0,,,,61,64
158300,note_off,0,0,1,,,,,,,,0,,,,66,64
158300,note_off,80,0,1,,,,,,,,0,,,,71,64
158300,note_off,80,0,12,,,,,,,,11,,,,66,64
158300,note_off,80,0,5,,,,,,,,3,,,,83,64
158300,note_off,80,0,7,,,,,,,,5,,,,66,64
158300,note_off,80,0,6,,,,,,,,4,,,,73,64
158460,note_on,0,0,1,,,,,,,,0,,,,71,38
158460,note_on,0,0,1,,,,,,,,0,,,,66,38
158460,note_on,160,0,1,,,,,,,,0,,,,61,38
158460,note_on,160,0,11,,,,,,,,10,,,,73,53
158460,note_on,160,0,4,,,,,,,,2,,,,78,52
158460,note_on,160,0,7,,,,,,,,5,,,,66,53
158460,note_on,160,0,3,,,,,,,,1,,,,78,75
158460,note_on,160,0,5,,,,,,,,3,,,,83,53
158460,note_on,160,0,12,,,,,,,,11,,,,66,53
158460,note_on,160,0,6,,,,,,,,4,,,,73,53
158460,note_on,160,0,10,,,,,,,,8,,,,83,53
158540,note_off,0,0,1,,,,,,,,0,,,,61,64
158540,note_off,0,0,1,,,,,,,,0,,,,66,64
158540,note_off,80,0,1,,,,,,,,0,,,,71,64
158540,note_off,80,0,7,,,,,,,,5,,,,66,64
158540,note_off,80,0,12,,,,,,,,11,,,,66,64
158540,note_off,80,0,10,,,,,,,,8,,,,83,64
158540,note_off,80,0,5,,,,,,,,3,,,,83,64
158540,note_off,80,0,6,,,,,,,,4,,,,73,64
158540,note_off,80,0,11,,,,,,,,10,,,,73,64
158580,note_off,120,0,3,,,,,,,,1,,,,78,64
158580,note_on,0,0,3,,,,,,,,1,,,,80,75
158580,note_on,0,0,4,,,,,,,,2,,,,80,52
158580,note_off,120,0,4,,,,,,,,2,,,,78,64
158700,note_on,0,0,1,,,,,,,,0,,,,71,39
158700,note_on,0,0,1,,,,,,,,0,,,,66,39
158700,note_on,160,0,1,,,,,,,,0,,,,61,39
158700,note_off,120,0,3,,,,,,,,1,,,,80,64
158700,note_on,0,0,3,,,,,,,,1,,,,82,75
158700,note_on,160,0,11,,,,,,,,10,,,,73,54
158700,note_on,160,0,12,,,,,,,,11,,,,66,54
158700,note_on,160,0,5,,,,,,,,3,,,,83,54
158700,note_on,160,0,7,,,,,,,,5,,,,66,54
158700,note_on,0,0,4,,,,,,,,2,,,,82,52
158700,note_on,160,0,10,,,,,,,,8,,,,83,54
158700,note_on,160,0,6,,,,,,,,4,,,,73,54
158700,note_off,120,0,4,,,,,,,,2,,,,80,64
158780,note_off,80,0,10,,,,,,,,8,,,,83,64
158780,note_off,80,0,4,,,,,,,,2,,,,82,64
158780,note_off,80,0,11,,,,,,,,10,,,,73,64
158780,note_off,80,0,12,,,,,,,,11,,,,66,64
158780,note_off,80,0,1,,,,,,,,0,,,,71,64
158780,note_off,80,0,6,,,,,,,,4,,,,73,64
158780,note_off,80,0,7,,,,,,,,5,,,,66,64
158780,note_off,80,0,3,,,,,,,,1,,,,82,64
158780,note_off,80,0,5,,,,,,,,3,,,,83,64
158780,note_off,0,0,1,,,,,,,,0,,,,61,64
158780,note_off,0,0,1,,,,,,,,0,,,,66,64
158940,note_on,160,0,1,,,,,,,,0,,,,61,40
158940,note_on,160,0,4,,,,,,,,2,,,,83,53
158940,note_on,0,0,1,,,,,,,,0,,,,66,40
158940,note_on,0,0,1,,,,,,,,0,,,,71,40
158940,note_on,160,0,10,,,,,,,,8,,,,83,55
158940,note_on,160,0,12,,,,,,,,11,,,,66,55
158940,note_on,160,0,7,,,,,,,,5,,,,66,55
158940,note_on,160,0,11,,,,,,,,10,,,,73,55
158940,note_on,160,0,3,,,,,,,,1,,,,83,75
158940,note_on,160,0,5,,,,,,,,3,,,,83,55
158940,note_on,160,0,6,,,,,,,,4,,,,73,55
159020,note_off,80,0,10,,,,,,,,8,,,,83,64
159020,note_off,80,0,11,,,,,,,,10,,,,73,64
159020,note_off,80,0,4,,,,,,,,2,,,,83,64
159020,note_off,80,0,1,,,,,,,,0,,,,71,64
159020,note_off,80,0,6,,,,,,,,4,,,,73,64
159020,note_off,80,0,5,,,,,,,,3,,,,83,64
159020,note_off,80,0,3,,,,,,,,1,,,,83,64
159020,note_off,80,0,7,,,,,,,,5,,,,66,64
159020,note_off,0,0,1,,,,,,,,0,,,,61,64
159020,note_off,80,0,12,,,,,,,,11,,,,66,64
159020,note_off,0,0,1,,,,,,,,0,,,,66,64
159180,note_on,160,0,1,,,,,,,,0,,,,61,41
159180,note_on,160,0,6,,,,,,,,4,,,,73,56
159180,note_on,160,0,7,,,,,,,,5,,,,66,56
159180,note_on,160,0,12,,,,,,,,11,,,,66,56
159180,note_on,160,0,5,,,,,,,,3,,,,83,56
159180,note_on,160,0,11,,,,,,,,10,,,,73,56
159180,note_on,160,0,10,,,,,,,,8,,,,83,56
159180,note_on,160,0,3,,,,,,,,1,,,,78,75
159180,note_on,160,0,4,,,,,,,,2,,,,78,54
159180,note_on,0,0,1,,,,,,,,0,,,,71,41
159180,note_on,0,0,1,,,,,,,,0,,,,66,41
159260,note_off,80,0,11,,,,,,,,10,,,,73,64
159260,note_off,80,0,12,,,,,,,,11,,,,66,64
159260,note_off,80,0,7,,,,,,,,5,,,,66,64
159260,note_off,80,0,3,,,,,,,,1,,,,78,64
159260,note_off,80,0,5,,,,,,,,3,,,,83,64
159260,note_off,80,0,6,,,,,,,,4,,,,73,64
159260,note_off,80,0,4,,,,,,,,2,,,,78,64
159260,note_off,80,0,10,,,,,,,,8,,,,83,64
159260,note_off,80,0,1,,,,,,,,0,,,,71,64
159260,note_off,0,0,1,,,,,,,,0,,,,66,64
159260,note_off,0,0,1,,,,,,,,0,,,,61,64
159420,note_on,0,0,1,,,,,,,,0,,,,71,42
159420,note_on,160,0,11,,,,,,,,10,,,,73,57
159420,note_on,160,0,5,,,,,,,,3,,,,83,57
159420,note_on,160,0,12,,,,,,,,11,,,,66,57
159420,note_on,0,0,1,,,,,,,,0,,,,66,42
159420,note_on,160,0,7,,,,,,,,5,,,,66,57
159420,note_on,160,0,10,,,,,,,,8,,,,83,57
159420,note_on,160,0,6,,,,,,,,4,,,,73,57
159420,note_on,160,0,3,,,,,,,,1,,,,73,75
159420,note_on,160,0,1,,,,,,,,0,,,,61,42
159420,note_on,160,0,4,,,,,,,,2,,,,73,55
159500,note_off,0,0,1,,,,,,,,0,,,,61,64
159500,note_off,0,0,1,,,,,,,,0,,,,66,64
159500,note_off,80,0,1,,,,,,,,0,,,,71,64
159500,note_off,80,0,3,,,,,,,,1,,,,73,64
159500,note_off,80,0,4,,,,,,,,2,,,,73,64
159500,note_off,80,0,6,,,,,,,,4,,,,73,64
159500,note_off,80,0,7,,,,,,,,5,,,,66,64
159500,note_off,80,0,10,,,,,,,,8,,,,83,64
159500,note_off,80,0,5,,,,,,,,3,,,,83,64
159500,note_off,80,0,11,,,,,,,,10,,,,73,64
159500,note_off,80,0,12,,,,,,,,11,,,,66,64
159660,note_on,160,0,7,,,,,,,,5,,,,66,58
159660,note_on,160,0,12,,,,,,,,11,,,,66,58
159660,note_on,160,0,11,,,,,,,,10,,,,73,58
159660,note_on,0,0,1,,,,,,,,0,,,,66,43
159660,note_on,160,0,10,,,,,,,,8,,,,83,58
159660,note_on,160,0,5,,,,,,,,3,,,,83,58
159660,note_on,160,0,3,,,,,,,,1,,,,78,76
159660,note_on,0,0,1,,,,,,,,0,,,,71,43
159660,note_on,160,0,4,,,,,,,,2,,,,78,56
159660,note_on,160,0,1,,,,,,,,0,,,,61,43
159660,note_on,160,0,6,,,,,,,,4,,,,73,58
159740,note_off,80,0,1,,,,,,,,0,,,,71,64
159740,note_off,0,0,1,,,,,,,,0,,,,66,64
159740,note_off,80,0,4,,,,,,,,2,,,,78,64
159740,note_off,0,0,1,,,,,,,,0,,,,61,64
159740,note_off,80,0,11,,,,,,,,10,,,,73,64
159740,note_off,80,0,5,,,,,,,,3,,,,83,64
159740,note_off,80,0,7,,,,,,,,5,,,,66,64
159740,note_off,80,0,10,,,,,,,,8,,,,83,64
159740,note_off,80,0,3,,,,,,,,1,,,,78,64
159740,note_off,80,0,6,,,,,,,,4,,,,73,64
159740,note_off,80,0,12,,,,,,,,11,,,,66,64
159900,note_on,160,0,6,,,,,,,,4,,,,73,59
159900,note_on,160,0,1,,,,,,,,0,,,,61,44
159900,note_on,160,0,4,,,,,,,,2,,,,78,57
159900,note_on,0,0,1,,,,,,,,0,,,,71,44
159900,note_on,160,0,3,,,,,,,,1,,,,78,77
159900,note_on,160,0,12,,,,,,,,11,,,,66,59
159900,note_on,0,0,1,,,,,,,,0,,,,66,44
159900,note_on,160,0,11,,,,,,,,10,,,,73,59
159900,note_on,160,0,7,,,,,,,,5,,,,66,59
159900,note_on,160,0,5,,,,,,,,3,,,,83,59
159900,note_on,160,0,10,,,,,,,,8,,,,83,59
159980,note_off,80,0,1,,,,,,,,0,,,,71,64
159980,note_off,80,0,6,,,,,,,,4,,,,73,64
159980,note_off,0,0,1,,,,,,,,0,,,,61,64
159980,note_off,80,0,10,,,,,,,,8,,,,83,64
159980,note_off,80,0,5,,,,,,,,3,,,,83,64
159980,note_off,0,0,1,,,,,,,,0,,,,66,64
159980,note_off,80,0,11,,,,,,,,10,,,,73,64
159980,note_off,80,0,7,,,,,,,,5,,,,66,64
159980,note_off,80,0,12,,,,,,,,11,,,,66,64
160020,note_off,120,0,4,,,,,,,,2,,,,78,64
160020,note_on,0,0,4,,,,,,,,2,,,,80,57
160020,note_on,0,0,3,,,,,,,,1,,,,80,77
160020,note_off,120,0,3,,,,,,,,1,,,,78,64
160140,note_on,160,0,10,,,,,,,,8,,,,83,60
160140,note_on,160,0,12,,,,,,,,11,,,,66,60
160140,note_on,160,0,1,,,,,,,,0,,,,61,45
160140,note_on,160,0,5,,,,,,,,3,,,,83,60
160140,note_on,160,0,11,,,,,,,,10,,,,73,60
160140,note_on,160,0,6,,,,,,,,4,,,,73,60
160140,note_on,0,0,3,,,,,,,,1,,,,82,77
160140,note_on,0,0,1,,,,,,,,0,,,,66,45
160140,note_off,120,0,3,,,,,,,,1,,,,80,64
160140,note_on,160,0,7,,,,,,,,5,,,,66,60
160140,note_on,0,0,4,,,,,,,,2,,,,82,57
160140,note_on,0,0,1,,,,,,,,0,,,,71,45
160140,note_off,120,0,4,,,,,,,,2,,,,80,64
160220,note_off,80,0,5,,,,,,,,3,,,,83,64
160220,note_off,0,0,1,,,,,,,,0,,,,66,64
160220,note_off,80,0,1,,,,,,,,0,,,,71,64
160220,note_off,80,0,7,,,,,,,,5,,,,66,64
160220,note_off,80,0,11,,,,,,,,10,,,,73,64
160220,note_off,80,0,4,,,,,,,,2,,,,82,64
160220,note_off,80,0,6,,,,,,,,4,,,,73,64
160220,note_off,80,0,3,,,,,,,,1,,,,82,64
160220,note_off,80,0,12,,,,,,,,11,,,,66,64
160220,note_off,0,0,1,,,,,,,,0,,,,61,64
160220,note_off,80,0,10,,,,,,,,8,,,,83,64
160380,note_on,160,0,12,,,,,,,,11,,,,66,61
160380,note_on,160,0,1,,,,,,,,0,,,,61,46
160380,note_on,160,0,5,,,,,,,,3,,,,83,61
160380,note_on,160,0,7,,,,,,,,5,,,,66,61
160380,note_on,160,0,4,,,,,,,,2,,,,83,58
160380,note_on,160,0,11,,,,,,,,10,,,,73,61
160380,note_on,160,0,6,,,,,,,,4,,,,73,61
160380,note_on,0,0,1,,,,,,,,0,,,,71,46
160380,note_on,0,0,1,,,,,,,,0,,,,66,46
160380,note_on,160,0,3,,,,,,,,1,,,,83,78
160380,note_on,160,0,10,,,,,,,,8,,,,83,61
160460,note_off,80,0,10,,,,,,,,8,,,,83,64
160460,note_off,80,0,6,,,,,,,,4,,,,73,64
160460,note_off,80,0,11,,,,,,,,10,,,,73,64
160460,note_off,80,0,7,,,,,,,,5,,,,66,64
160460,note_off,80,0,5,,,,,,,,3,,,,83,64
160460,note_off,80,0,12,,,,,,,,11,,,,66,64
160460,note_off,80,0,1,,,,,,,,0,,,,71,64
160460,note_off,0,0,1,,,,,,,,0,,,,66,64
160460,note_off,0,0,1,,,,,,,,0,,,,61,64
160460,note_off,80,0,4,,,,,,,,2,,,,83,64
160460,note_off,80,0,3,,,,,,,,1,,,,83,64
160620,note_on,160,0,10,,,,,,,,8,,,,82,62
160620,note_on,160,0,6,,,,,,,,4,,,,73,62
160620,note_on,0,0,1,,,,,,,,0,,,,70,47
160620,note_on,160,0,5,,,,,,,,3,,,,82,62
160620,note_on,0,0,1,,,,,,,,0,,,,66,47
160620,note_on,160,0,7,,,,,,,,5,,,,66,62
160620,note_on,160,0,11,,,,,,,,10,,,,73,62
160620,note_on,160,0,4,,,,,,,,2,,,,78,59
160620,note_on,160,0,3,,,,,,,,1,,,,78,79
160620,note_on,160,0,1,,,,,,,,0,,,,61,47
160620,note_on,160,0,12,,,,,,,,11,,,,66,62
160700,note_off,80,0,11,,,,,,,,10,,,,73,64
160700,note_off,80,0,7,,,,,,,,5,,,,66,64
160700,note_off,80,0,5,,,,,,,,3,,,,82,64
160700,note_off,80,0,4,,,,,,,,2,,,,78,64
160700,note_off,0,0,1,,,,,,,,0,,,,61,64
160700,note_off,0,0,1,,,,,,,,0,,,,66,64
160700,note_off,80,0,12,,,,,,,,11,,,,66,64
160700,note_off,80,0,6,,,,,,,,4,,,,73,64
160700,note_off,80,0,10,,,,,,,,8,,,,82,64
160700,note_off,80,0,1,,,,,,,,0,,,,70,64
160700,note_off,80,0,3,,,,,,,,1,,,,78,64
160860,note_on,160,0,3,,,,,,,,1,,,,73,80
160860,note_on,160,0,5,,,,,,,,3,,,,82,63
160860,note_on,160,0,7,,,,,,,,5,,,,66,63
160860,note_on,0,0,1,,,,,,,,0,,,,66,48
160860,note_on,160,0,4,,,,,,,,2,,,,73,60
160860,note_on,160,0,1,,,,,,,,0,,,,61,48
160860,note_on,160,0,12,,,,,,,,11,,,,66,63
160860,note_on,160,0,10,,,,,,,,8,,,,82,63
160860,note_on,160,0,11,,,,,,,,10,,,,73,63
160860,note_on,160,0,6,,,,,,,,4,,,,73,63
160860,note_on,0,0,1,,,,,,,,0,,,,70,48
160940,note_off,0,0,1,,,,,,,,0,,,,61,64
160940,note_off,80,0,4,,,,,,,,2,,,,73,64
160940,note_off,0,0,1,,,,,,,,0,,,,66,64
160940,note_off,80,0,1,,,,,,,,0,,,,70,64
160940,note_off,80,0,12,,,,,,,,11,,,,66,64
160940,note_off,80,0,3,,,,,,,,1,,,,73,64
160940,note_off,80,0,6,,,,,,,,4,,,,73,64
160940,note_off,80,0,7,,,,,,,,5,,,,66,64
160940,note_off,80,0,5,,,,,,,,3,,,,82,64
160940,note_off,80,0,10,,,,,,,,8,,,,82,64
160940,note_off,80,0,11,,,,,,,,10,,,,73,64
161100,note_on,160,0,6,,,,,,,,4,,,,73,64
161100,note_on,160,0,12,,,,,,,,11,,,,66,64
161100,note_on,160,0,4,,,,,,,,2,,,,78,61
161100,note_on,0,0,1,,,,,,,,0,,,,70,49
161100,note_on,0,0,1,,,,,,,,0,,,,66,49
161100,note_on,160,0,11,,,,,,,,10,,,,73,64
161100,note_on,160,0,5,,,,,,,,3,,,,82,64
161100,note_on,160,0,1,,,,,,,,0,,,,61,49
161100,note_on,160,0,10,,,,,,,,8,,,,82,64
161100,note_on,160,0,7,,,,,,,,5,,,,66,64
161100,note_on,160,0,3,,,,,,,,1,,,,78,81
161180,note_off,80,0,5,,,,,,,,3,,,,82,64
161180,note_off,80,0,10,,,,,,,,8,,,,82,64
161180,note_off,80,0,1,,,,,,,,0,,,,70,64
161180,note_off,0,0,1,,,,,,,,0,,,,66,64
161180,note_off,80,0,4,,,,,,,,2,,,,78,64
161180,note_off,80,0,7,,,,,,,,5,,,,66,64
161180,note_off,0,0,1,,,,,,,,0,,,,61,64
161180,note_off,80,0,12,,,,,,,,11,,,,66,64
161180,note_off,80,0,3,,,,,,,,1,,,,78,64
161180,note_off,80,0,11,,,,,,,,10,,,,73,64
161180,note_off,80,0,6,,,,,,,,4,,,,73,64
161340,note_on,160,0,6,,,,,,,,4,,,,73,65
161340,note_on,160,0,5,,,,,,,,3,,,,82,65
161340,note_on,160,0,10,,,,,,,,8,,,,82,65
161340,note_on,160,0,4,,,,,,,,2,,,,78,62
161340,note_on,160,0,11,,,,,,,,10,,,,73,65
161340,note_on,160,0,7,,,,,,,,5,,,,66,65
161340,note_on,160,0,12,,,,,,,,11,,,,66,65
161340,note_on,160,0,1,,,,,,,,0,,,,61,50
161340,note_on,0,0,1,,,,,,,,0,,,,66,50
161340,note_on,0,0,1,,,,,,,,0,,,,70,50
161340,note_on,160,0,3,,,,,,,,1,,,,78,82
161420,note_off,80,0,10,,,,,,,,8,,,,82,64
161420,note_off,80,0,5,,,,,,,,3,,,,82,64
161420,note_off,80,0,7,,,,,,,,5,,,,66,64
161420,note_off,80,0,1,,,,,,,,0,,,,70,64
161420,note_off,80,0,12,,,,,,,,11,,,,66,64
161420,note_off,80,0,6,,,,,,,,4,,,,73,64
161420,note_off,0,0,1,,,,,,,,0,,,,61,64
161420,note_off,0,0,1,,,,,,,,0,,,,66,64
161420,note_off,80,0,11,,,,,,,,10,,,,73,64
161460,note_on,0,0,4,,,,,,,,2,,,,80,62
161460,note_off,120,0,4,,,,,,,,2,,,,78,64
161460,note_off,120,0,3,,,,,,,,1,,,,78,64
161460,note_on,0,0,3,,,,,,,,1,,,,80,82
161580,note_on,160,0,6,,,,,,,,4,,,,73,66
161580,note_on,160,0,5,,,,,,,,3,,,,82,66
161580,note_on,160,0,11,,,,,,,,10,,,,73,66
161580,note_on,160,0,1,,,,,,,,0,,,,61,51
161580,note_on,0,0,1,,,,,,,,0,,,,70,51
161580,note_on,0,0,1,,,,,,,,0,,,,66,51
161580,note_on,160,0,7,,,,,,,,5,,,,66,66
161580,note_on,160,0,12,,,,,,,,11,,,,66,66
161580,note_on,0,0,4,,,,,,,,2,,,,82,62
161580,note_off,120,0,4,,,,,,,,2,,,,80,64
161580,note_on,0,0,3,,,,,,,,1,,,,82,82
161580,note_off,120,0,3,,,,,,,,1,,,,80,64
161580,note_on,160,0,10,,,,,,,,8,,,,82,66
161660,note_off,80,0,12,,,,,,,,11,,,,66,64
161660,note_off,80,0,11,,,,,,,,10,,,,73,64
161660,note_off,80,0,4,,,,,,,,2,,,,82,64
161660,note_off,80,0,3,,,,,,,,1,,,,82,64
161660,note_off,80,0,5,,,,,,,,3,,,,82,64
161660,note_off,80,0,1,,,,,,,,0,,,,70,64
161660,note_off,0,0,1,,,,,,,,0,,,,66,64
161660,note_off,0,0,1,,,,,,,,0,,,,61,64
161660,note_off,80,0,10,,,,,,,,8,,,,82,64
161660,note_off,80,0,6,,,,,,,,4,,,,73,64
161660,note_off,80,0,7,,,,,,,,5,,,,66,64
161820,note_on,160,0,3,,,,,,,,1,,,,80,83
161820,note_on,160,0,4,,,,,,,,2,,,,80,63
161820,note_on,160,0,7,,,,,,,,5,,,,66,67
161820,note_on,160,0,5,,,,,,,,3,,,,82,67
161820,note_on,160,0,11,,,,,,,,10,,,,73,67
161820,note_on,160,0,1,,,,,,,,0,,,,61,52
161820,note_on,0,0,1,,,,,,,,0,,,,66,52
161820,note_on,0,0,1,,,,,,,,0,,,,70,52
161820,note_on,160,0,10,,,,,,,,8,,,,82,67
161820,note_on,160,0,12,,,,,,,,11,,,,66,67
161820,note_on,160,0,6,,,,,,,,4,,,,73,67
161900,note_off,0,0,1,,,,,,,,0,,,,66,64
161900,note_off,80,0,3,,,,,,,,1,,,,80,64
161900,note_off,80,0,6,,,,,,,,4,,,,73,64
161900,note_off,80,0,4,,,,,,,,2,,,,80,64
161900,note_off,80,0,12,,,,,,,,11,,,,66,64
161900,note_off,80,0,7,,,,,,,,5,,,,66,64
161900,note_off,80,0,5,,,,,,,,3,,,,82,64
161900,note_off,0,0,1,,,,,,,,0,,,,61,64
161900,note_off,80,0,11,,,,,,,,10,,,,73,64
161900,note_off,80,0,10,,,,,,,,8,,,,82,64
161900,note_off,80,0,1,,,,,,,,0,,,,70,64
162060,note_on,160,0,6,,,,,,,,4,,,,73,68
162060,note_on,160,0,1,,,,,,,,0,,,,61,53
162060,note_on,0,0,1,,,,,,,,0,,,,66,53
162060,note_on,0,0,1,,,,,,,,0,,,,70,53
162060,note_on,160,0,10,,,,,,,,8,,,,82,68
162060,note_on,160,0,12,,,,,,,,11,,,,66,68
162060,note_on,160,0,5,,,,,,,,3,,,,82,68
162060,note_on,160,0,4,,,,,,,,2,,,,78,64
162060,note_on,160,0,11,,,,,,,,10,,,,73,68
162060,note_on,160,0,3,,,,,,,,1,,,,78,84
162060,note_on,160,0,7,,,,,,,,5,,,,66,68
162140,note_off,80,0,10,,,,,,,,8,,,,82,64
162140,note_off,80,0,12,,,,,,,,11,,,,66,64
162140,note_off,80,0,11,,,,,,,,10,,,,73,64
162140,note_off,80,0,6,,,,,,,,4,,,,73,64
162140,note_off,80,0,5,,,,,,,,3,,,,82,64
162140,note_off,80,0,1,,,,,,,,0,,,,70,64
162140,note_off,80,0,3,,,,,,,,1,,,,78,64
162140,note_off,80,0,4,,,,,,,,2,,,,78,64
162140,note_off,0,0,1,,,,,,,,0,,,,61,64
162140,note_off,80,0,7,,,,,,,,5,,,,66,64
162140,note_off,0,0,1,,,,,,,,0,,,,66,64
162300,note_on,0,0,1,,,,,,,,0,,,,66,54
162300,note_on,160,0,7,,,,,,,,5,,,,66,69
162300,note_on,160,0,3,,,,,,,,1,,,,73,85
162300,note_on,160,0,5,,,,,,,,3,,,,82,69
162300,note_on,160,0,11,,,,,,,,10,,,,73,69
162300,note_on,160,0,10,,,,,,,,8,,,,82,69
162300,note_on,160,0,1,,,,,,,,0,,,,61,54
162300,note_on,0,0,1,,,,,,,,0,,,,70,54
162300,note_on,160,0,6,,,,,,,,4,,,,73,69
162300,note_on,160,0,4,,,,,,,,2,,,,73,65
162300,note_on,160,0,12,,,,,,,,11,,,,66,69
162380,note_off,80,0,4,,,,,,,,2,,,,73,64
162380,note_off,0,0,1,,,,,,,,0,,,,66,64
162380,note_off,80,0,1,,,,,,,,0,,,,70,64
162380,note_off,80,0,3,,,,,,,,1,,,,73,64
162380,note_off,80,0,7,,,,,,,,5,,,,66,64
162380,note_off,80,0,5,,,,,,,,3,,,,82,64
162380,note_off,80,0,11,,,,,,,,10,,,,73,64
162380,note_off,80,0,12,,,,,,,,11,,,,66,64
162380,note_off,80,0,6,,,,,,,,4,,,,73,64
162380,note_off,0,0,1,,,,,,,,0,,,,61,64
162380,note_off,80,0,10,,,,,,,,8,,,,82,64
162540,note_on,160,0,12,,,,,,,,11,,,,66,70
162540,note_on,160,0,6,,,,,,,,4,,,,73,70
162540,note_on,160,0,7,,,,,,,,5,,,,66,70
162540,note_on,160,0,1,,,,,,,,0,,,,61,55
162540,note_on,160,0,4,,,,,,,,2,,,,78,67
162540,note_on,160,0,3,,,,,,,,1,,,,78,86
162540,note_on,0,0,1,,,,,,,,0,,,,66,55
162540,note_on,0,0,1,,,,,,,,0,,,,70,55
162540,note_on,160,0,10,,,,,,,,8,,,,82,70
162540,note_on,160,0,11,,,,,,,,10,,,,73,70
162540,note_on,160,0,5,,,,,,,,3,,,,82,70
162620,note_off,0,0,1,,,,,,,,0,,,,61,64
162620,note_off,80,0,7,,,,,,,,5,,,,66,64
162620,note_off,80,0,5,,,,,,,,3,,,,82,64
162620,note_off,0,0,1,,,,,,,,0,,,,66,64
162620,note_off,80,0,10,,,,,,,,8,,,,82,64
162620,note_off,80,0,11,,,,,,,,10,,,,73,64
162620,note_off,80,0,6,,,,,,,,4,,,,73,64
162620,note_off,80,0,1,,,,,,,,0,,,,70,64
162620,note_off,80,0,3,,,,,,,,1,,,,78,64
162620,note_off,80,0,4,,,,,,,,2,,,,78,64
162620,note_off,80,0,12,,,,,,,,11,,,,66,64
162780,note_on,160,0,5,,,,,,,,3,,,,82,71
162780,note_on,160,0,6,,,,,,,,4,,,,73,71
162780,note_on,160,0,7,,,,,,,,5,,,,66,71
162780,note_on,160,0,3,,,,,,,,1,,,,78,87
162780,note_on,160,0,4,,,,,,,,2,,,,78,69
162780,note_on,160,0,12,,,,,,,,11,,,,66,71
162780,note_on,160,0,10,,,,,,,,8,,,,82,71
162780,note_on,160,0,11,,,,,,,,10,,,,73,71
162780,note_on,160,0,1,,,,,,,,0,,,,61,56
162780,note_on,0,0,1,,,,,,,,0,,,,66,56
162780,note_on,0,0,1,,,,,,,,0,,,,70,56
162860,note_off,80,0,1,,,,,,,,0,,,,70,64
162860,note_off,80,0,12,,,,,,,,11,,,,66,64
162860,note_off,80,0,5,,,,,,,,3,,,,82,64
162860,note_off,0,0,1,,,,,,,,0,,,,66,64
162860,note_off,80,0,6,,,,,,,,4,,,,73,64
162860,note_off,80,0,10,,,,,,,,8,,,,82,64
162860,note_off,0,0,1,,,,,,,,0,,,,61,64
162860,note_off,80,0,11,,,,,,,,10,,,,73,64
162860,note_off,80,0,7,,,,,,,,5,,,,66,64
162900,note_off,120,0,4,,,,,,,,2,,,,78,64
162900,note_on,0,0,3,,,,,,,,1,,,,80,87
162900,note_on,0,0,4,,,,,,,,2,,,,80,70
162900,note_off,120,0,3,,,,,,,,1,,,,78,64
163020,note_on,160,0,7,,,,,,,,5,,,,66,72
163020,note_on,160,0,10,,,,,,,,8,,,,82,72
163020,note_on,0,0,4,,,,,,,,2,,,,82,71
163020,note_off,120,0,4,,,,,,,,2,,,,80,64
163020,note_on,160,0,1,,,,,,,,0,,,,61,57
163020,note_on,0,0,1,,,,,,,,0,,,,66,57
163020,note_on,0,0,1,,,,,,,,0,,,,70,57
163020,note_on,0,0,3,,,,,,,,1,,,,82,88
163020,note_on,160,0,11,,,,,,,,10,,,,73,72
163020,note_off,120,0,3,,,,,,,,1,,,,80,64
163020,note_on,160,0,5,,,,,,,,3,,,,82,72
163020,note_on,160,0,6,,,,,,,,4,,,,73,72
163020,note_on,160,0,12,,,,,,,,11,,,,66,72
163100,note_off,80,0,10,,,,,,,,8,,,,82,64
163100,note_off,80,0,6,,,,,,,,4,,,,73,64
163100,note_off,80,0,12,,,,,,,,11,,,,66,64
163100,note_off,80,0,5,,,,,,,,3,,,,82,64
163100,note_off,80,0,4,,,,,,,,2,,,,82,64
163100,note_off,0,0,1,,,,,,,,0,,,,66,64
163100,note_off,80,0,3,,,,,,,,1,,,,82,64
163100,note_off,80,0,7,,,,,,,,5,,,,66,64
163100,note_off,0,0,1,,,,,,,,0,,,,61,64
163100,note_off,80,0,11,,,,,,,,10,,,,73,64
163100,note_off,80,0,1,,,,,,,,0,,,,70,64
163260,note_on,0,0,1,,,,,,,,0,,,,70,58
163260,note_on,160,0,6,,,,,,,,4,,,,73,73
163260,note_on,0,0,1,,,,,,,,0,,,,66,58
163260,note_on,160,0,12,,,,,,,,11,,,,66,73
163260,note_on,160,0,4,,,,,,,,2,,,,78,73
163260,note_on,160,0,1,,,,,,,,0,,,,61,58
163260,note_on,160,0,5,,,,,,,,3,,,,82,73
163260,note_on,160,0,10,,,,,,,,8,,,,82,73
163260,note_on,160,0,11,,,,,,,,10,,,,73,73
163260,note_on,160,0,3,,,,,,,,1,,,,78,90
163260,note_on,160,0,7,,,,,,,,5,,,,66,73
163340,note_off,80,0,10,,,,,,,,8,,,,82,64
163340,note_off,80,0,4,,,,,,,,2,,,,78,64
163340,note_off,80,0,11,,,,,,,,10,,,,73,64
163340,note_off,80,0,6,,,,,,,,4,,,,73,64
163340,note_off,80,0,12,,,,,,,,11,,,,66,64
163340,note_off,0,0,1,,,,,,,,0,,,,66,64
163340,note_off,80,0,1,,,,,,,,0,,,,70,64
163340,note_off,0,0,1,,,,,,,,0,,,,61,64
163340,note_off,80,0,7,,,,,,,,5,,,,66,64
163340,note_off,80,0,3,,,,,,,,1,,,,78,64
163340,note_off,80,0,5,,,,,,,,3,,,,82,64
163500,note_on,160,0,11,,,,,,,,10,,,,75,75
163500,note_on,160,0,12,,,,,,,,11,,,,59,75
163500,note_on,160,0,5,,,,,,,,3,,,,83,75
163500,note_on,160,0,4,,,,,,,,2,,,,83,75
163500,note_on,160,0,6,,,,,,,,4,,,,75,75
163500,note_on,160,0,10,,,,,,,,8,,,,83,75
163500,note_on,160,0,3,,,,,,,,1,,,,83,92
163500,note_on,0,0,1,,,,,,,,0,,,,71,60
163500,note_on,0,0,1,,,,,,,,0,,,,66,60
163500,note_on,160,0,1,,,,,,,,0,,,,63,60
163500,note_on,160,0,7,,,,,,,,5,,,,59,75
163580,note_off,80,0,4,,,,,,,,2,,,,83,64
163580,note_off,80,0,3,,,,,,,,1,,,,83,64
163740,note_on,160,0,4,,,,,,,,2,,,,82,75
163740,note_on,160,0,3,,,,,,,,1,,,,82,92
163860,note_on,0,0,4,,,,,,,,2,,,,80,75
163860,note_off,120,0,3,,,,,,,,1,,,,82,64
163860,note_on,0,0,3,,,,,,,,1,,,,80,92
163860,note_off,120,0,4,,,,,,,,2,,,,82,64
163980,note_on,0,0,4,,,,,,,,2,,,,78,75
163980,note_off,120,0,4,,,,,,,,2,,,,80,64
163980,note_off,120,0,3,,,,,,,,1,,,,80,64
163980,note_on,0,0,3,,,,,,,,1,,,,78,92
164100,note_on,0,0,4,,,,,,,,2,,,,76,75
164100,note_off,120,0,4,,,,,,,,2,,,,78,64
164100,note_off,120,0,3,,,,,,,,1,,,,78,64
164100,note_on,0,0,3,,,,,,,,1,,,,76,92
164140,note_off,640,0,6,,,,,,,,4,,,,75,64
164140,note_off,640,0,5,,,,,,,,3,,,,83,64
164140,note_off,640,0,12,,,,,,,,11,,,,59,64
164140,note_off,0,0,1,,,,,,,,0,,,,66,64
164140,note_off,0,0,1,,,,,,,,0,,,,63,64
164140,note_off,640,0,7,,,,,,,,5,,,,59,64
164140,note_off,640,0,1,,,,,,,,0,,,,71,64
164140,note_off,640,0,10,,,,,,,,8,,,,83,64
164140,note_off,640,0,11,,,,,,,,10,,,,75,64
164220,note_on,0,0,3,,,,,,,,1,,,,75,92
164220,note_off,120,0,3,,,,,,,,1,,,,76,64
164220,note_off,120,0,4,,,,,,,,2,,,,76,64
164220,note_on,0,0,4,,,,,,,,2,,,,75,75
164300,note_off,80,0,4,,,,,,,,2,,,,75,64
164300,note_off,80,0,3,,,,,,,,1,,,,75,64
164460,note_on,160,0,4,,,,,,,,2,,,,78,75
164460,note_on,160,0,3,,,,,,,,1,,,,78,92
164540,note_off,80,0,4,,,,,,,,2,,,,78,64
164540,note_off,80,0,3,,,,,,,,1,,,,78,64
164700,note_on,160,0,4,,,,,,,,2,,,,75,75
164700,note_on,160,0,3,,,,,,,,1,,,,75,92
164780,note_off,80,0,4,,,,,,,,2,,,,75,64
164780,note_off,80,0,3,,,,,,,,1,,,,75,64
164940,note_on,800,0,5,,,,,,,,3,,,,66,60
164940,note_on,800,0,11,,,,,,,,10,,,,75,60
164940,note_on,800,0,10,,,,,,,,8,,,,66,60
164940,note_on,800,0,7,,,,,,,,5,,,,59,60
164940,note_on,800,0,12,,,,,,,,11,,,,59,60
164940,note_on,160,0,3,,,,,,,,1,,,,71,92
164940,note_on,160,0,4,,,,,,,,2,,,,71,75
164940,note_on,800,0,6,,,,,,,,4,,,,75,60
165020,note_off,80,0,4,,,,,,,,2,,,,71,64
165020,note_off,80,0,3,,,,,,,,1,,,,71,64
165180,note_on,160,0,3,,,,,,,,1,,,,66,92
165180,note_on,160,0,4,,,,,,,,2,,,,66,75
165260,note_off,80,0,3,,,,,,,,1,,,,66,64
165260,note_off,80,0,4,,,,,,,,2,,,,66,64
165420,note_on,160,0,4,,,,,,,,2,,,,63,75
165420,note_on,160,0,3,,,,,,,,1,,,,63,92
165500,note_off,80,0,4,,,,,,,,2,,,,63,64
165500,note_off,80,0,3,,,,,,,,1,,,,63,64
165580,note_off,640,0,12,,,,,,,,11,,,,59,64
165580,note_off,640,0,11,,,,,,,,10,,,,75,64
165580,note_off,640,0,5,,,,,,,,3,,,,66,64
165580,note_off,640,0,10,,,,,,,,8,,,,66,64
165580,note_off,640,0,6,,,,,,,,4,,,,75,64
165580,note_off,640,0,7,,,,,,,,5,,,,59,64
165660,note_on,160,0,3,,,,,,,,1,,,,59,92
165660,note_on,160,0,4,,,,,,,,2,,,,59,75
165660,set_tempo,28080,1,0,588235,,,,,,,,,,,,
166140,note_off,480,0,3,,,,,,,,1,,,,59,64
166140,note_off,480,0,4,,,,,,,,2,,,,59,64
166260,note_on,680,0,12,,,,,,,,11,,,,71,75
166260,note_on,680,0,5,,,,,,,,3,,,,80,108
166260,note_on,680,0,6,,,,,,,,4,,,,76,108
166260,note_on,680,0,7,,,,,,,,5,,,,71,92
166260,note_on,28800,0,9,,,,,,,,7,,,,40,92
166260,note_on,680,0,11,,,,,,,,10,,,,76,75
166260,note_on,28800,0,8,,,,,,,,6,,,,52,92
166260,note_on,28800,0,13,,,,,,,,12,,,,52,75
166260,set_tempo,600,1,0,491803,,,,,,,,,,,,
166260,note_on,680,0,10,,,,,,,,8,,,,80,60
166260,note_on,28800,0,14,,,,,,,,13,,,,40,75
166620,note_on,0,0,6,,,,,,,,4,,,,78,108
166620,note_on,0,0,10,,,,,,,,8,,,,81,60
166620,note_on,0,0,11,,,,,,,,10,,,,78,75
166620,note_on,0,0,5,,,,,,,,3,,,,81,108
166620,note_off,360,0,6,,,,,,,,4,,,,76,64
166620,note_off,360,0,11,,,,,,,,10,,,,76,64
166620,note_off,360,0,5,,,,,,,,3,,,,80,64
166620,note_off,360,0,10,,,,,,,,8,,,,80,64
166735,note_off,115,0,10,,,,,,,,8,,,,81,64
166735,note_off,115,0,11,,,,,,,,10,,,,78,64
166735,note_off,115,0,5,,,,,,,,3,,,,81,64
166735,note_off,115,0,6,,,,,,,,4,,,,78,64
166740,note_on,5,0,5,,,,,,,,3,,,,80,108
166740,note_on,5,0,11,,,,,,,,10,,,,76,75
166740,note_on,5,0,10,,,,,,,,8,,,,80,60
166740,note_on,5,0,6,,,,,,,,4,,,,76,108
166975,note_off,235,0,5,,,,,,,,3,,,,80,64
166975,note_off,235,0,11,,,,,,,,10,,,,76,64
166975,note_off,235,0,6,,,,,,,,4,,,,76,64
166975,note_off,235,0,10,,,,,,,,8,,,,80,64
166980,note_on,5,0,10,,,,,,,,8,,,,80,60
166980,note_on,5,0,11,,,,,,,,10,,,,76,75
166980,note_on,5,0,6,,,,,,,,4,,,,76,108
166980,note_on,5,0,5,,,,,,,,3,,,,80,108
167460,note_on,0,0,6,,,,,,,,4,,,,78,108
167460,note_off,480,0,5,,,,,,,,3,,,,80,64
167460,note_on,0,0,5,,,,,,,,3,,,,81,108
167460,note_off,480,0,11,,,,,,,,10,,,,76,64
167460,note_on,0,0,11,,,,,,,,10,,,,78,75
167460,note_off,480,0,10,,,,,,,,8,,,,80,64
167460,note_off,480,0,6,,,,,,,,4,,,,76,64
167460,note_on,0,0,10,,,,,,,,8,,,,81,60
167540,note_off,80,0,6,,,,,,,,4,,,,78,64
167540,note_off,80,0,10,,,,,,,,8,,,,81,64
167540,note_off,80,0,5,,,,,,,,3,,,,81,64
167540,note_off,80,0,11,,,,,,,,10,,,,78,64
167700,note_on,0,0,8,,,,,,,,6,,,,52,92
167700,note_on,160,0,11,,,,,,,,10,,,,78,75
167700,note_off,1440,0,14,,,,,,,,13,,,,40,64
167700,note_off,1440,0,9,,,,,,,,7,,,,40,64
167700,note_on,0,0,9,,,,,,,,7,,,,40,92
167700,note_on,160,0,5,,,,,,,,3,,,,81,108
167700,note_off,1440,0,13,,,,,,,,12,,,,52,64
167700,note_on,0,0,13,,,,,,,,12,,,,52,75
167700,note_off,1440,0,8,,,,,,,,6,,,,52,64
167700,note_on,0,0,14,,,,,,,,13,,,,40,75
167700,note_on,0,0,12,,,,,,,,11,,,,71,75
167700,note_on,0,0,7,,,,,,,,5,,,,71,92
167700,note_on,160,0,10,,,,,,,,8,,,,81,60
167700,note_off,1440,0,7,,,,,,,,5,,,,71,64
167700,note_on,160,0,6,,,,,,,,4,,,,78,108
167700,note_off,1440,0,12,,,,,,,,11,,,,71,64
168180,note_on,52320,0,2,,,,,,,,0,,,,47,92
168180,note_on,52320,0,15,,,,,,,,14,,,,47,60
168180,note_on,4040,0,1,,,,,,,,0,,,,59,92
168415,note_off,235,0,1,,,,,,,,0,,,,59,64
168415,note_off,235,0,2,,,,,,,,0,,,,47,64
168415,note_off,235,0,15,,,,,,,,14,,,,47,64
168420,note_on,0,0,5,,,,,,,,3,,,,83,103
168420,note_off,720,0,5,,,,,,,,3,,,,81,64
168420,note_on,0,0,10,,,,,,,,8,,,,83,59
168420,note_off,720,0,10,,,,,,,,8,,,,81,64
168420,note_off,720,0,11,,,,,,,,10,,,,78,64
168420,note_on,0,0,11,,,,,,,,10,,,,80,72
168420,note_on,5,0,15,,,,,,,,14,,,,52,60
168420,note_on,5,0,2,,,,,,,,0,,,,52,92
168420,note_off,720,0,6,,,,,,,,4,,,,78,64
168420,note_on,5,0,1,,,,,,,,0,,,,64,92
168420,note_on,0,0,6,,,,,,,,4,,,,80,103
168820,note_off,400,0,6,,,,,,,,4,,,,80,64
168820,note_off,400,0,15,,,,,,,,14,,,,52,64
168820,note_off,400,0,2,,,,,,,,0,,,,52,64
168820,note_off,400,0,10,,,,,,,,8,,,,83,64
168820,note_off,400,0,5,,,,,,,,3,,,,83,64
168820,note_off,400,0,11,,,,,,,,10,,,,80,64
168820,note_off,400,0,1,,,,,,,,0,,,,64,64
168900,note_on,80,0,5,,,,,,,,3,,,,81,100
168900,note_on,80,0,11,,,,,,,,10,,,,78,70
168900,note_on,80,0,1,,,,,,,,0,,,,59,88
168900,note_on,80,0,2,,,,,,,,0,,,,47,88
168900,note_on,80,0,15,,,,,,,,14,,,,47,58
168900,note_on,80,0,10,,,,,,,,8,,,,81,58
168900,note_on,80,0,6,,,,,,,,4,,,,78,100
168980,note_off,80,0,6,,,,,,,,4,,,,78,64
168980,note_off,80,0,5,,,,,,,,3,,,,81,64
168980,note_off,80,0,10,,,,,,,,8,,,,81,64
168980,note_off,80,0,11,,,,,,,,10,,,,78,64
169135,note_off,235,0,2,,,,,,,,0,,,,47,64
169135,note_off,235,0,1,,,,,,,,0,,,,59,64
169135,note_off,235,0,15,,,,,,,,14,,,,47,64
169140,note_on,5,0,1,,,,,,,,0,,,,52,86
169140,note_on,160,0,10,,,,,,,,8,,,,80,58
169140,note_on,5,0,15,,,,,,,,14,,,,40,57
169140,note_on,160,0,11,,,,,,,,10,,,,76,69
169140,note_on,160,0,5,,,,,,,,3,,,,80,99
169140,note_on,160,0,6,,,,,,,,4,,,,76,99
169140,note_on,5,0,2,,,,,,,,0,,,,40,86
169500,note_off,360,0,10,,,,,,,,8,,,,80,64
169500,note_off,360,0,11,,,,,,,,10,,,,76,64
169500,note_on,0,0,10,,,,,,,,8,,,,81,58
169500,note_on,0,0,11,,,,,,,,10,,,,78,68
169500,note_on,0,0,5,,,,,,,,3,,,,81,97
169500,note_off,360,0,5,,,,,,,,3,,,,80,64
169500,note_off,360,0,6,,,,,,,,4,,,,76,64
169500,note_on,0,0,6,,,,,,,,4,,,,78,97
169615,note_off,115,0,11,,,,,,,,10,,,,78,64
169615,note_off,115,0,10,,,,,,,,8,,,,81,64
169615,note_off,115,0,5,,,,,,,,3,,,,81,64
169615,note_off,115,0,6,,,,,,,,4,,,,78,64
169620,note_on,5,0,11,,,,,,,,10,,,,76,68
169620,note_on,5,0,10,,,,,,,,8,,,,80,58
169620,note_on,5,0,5,,,,,,,,3,,,,80,97
169620,note_on,5,0,6,,,,,,,,4,,,,76,97
169700,note_off,80,0,6,,,,,,,,4,,,,76,64
169700,note_off,80,0,5,,,,,,,,3,,,,80,64
169855,note_off,235,0,10,,,,,,,,8,,,,80,64
169855,note_off,235,0,11,,,,,,,,10,,,,76,64
169860,note_on,160,0,6,,,,,,,,4,,,,76,96
169860,note_on,5,0,10,,,,,,,,8,,,,80,58
169860,note_on,5,0,11,,,,,,,,10,,,,76,67
169860,note_on,160,0,5,,,,,,,,3,,,,80,96
170340,note_off,480,0,6,,,,,,,,4,,,,76,64
170340,note_on,0,0,6,,,,,,,,4,,,,78,92
170340,note_off,480,0,10,,,,,,,,8,,,,80,64
170340,note_on,0,0,10,,,,,,,,8,,,,81,57
170340,note_on,0,0,11,,,,,,,,10,,,,78,65
170340,note_off,480,0,11,,,,,,,,10,,,,76,64
170340,note_on,0,0,5,,,,,,,,3,,,,81,92
170340,note_off,480,0,5,,,,,,,,3,,,,80,64
170420,note_off,80,0,11,,,,,,,,10,,,,78,64
170420,note_off,80,0,10,,,,,,,,8,,,,81,64
170420,note_off,80,0,5,,,,,,,,3,,,,81,64
170420,note_off,80,0,6,,,,,,,,4,,,,78,64
170460,note_off,1320,0,1,,,,,,,,0,,,,52,64
170460,note_off,1320,0,15,,,,,,,,14,,,,40,64
170460,note_off,1320,0,2,,,,,,,,0,,,,40,64
170580,note_off,2880,0,8,,,,,,,,6,,,,52,64
170580,note_on,160,0,10,,,,,,,,8,,,,81,57
170580,note_on,160,0,5,,,,,,,,3,,,,81,90
170580,note_on,0,0,14,,,,,,,,13,,,,40,60
170580,note_off,2880,0,14,,,,,,,,13,,,,40,64
170580,note_on,160,0,6,,,,,,,,4,,,,78,90
170580,note_off,2880,0,9,,,,,,,,7,,,,40,64
170580,note_on,0,0,9,,,,,,,,7,,,,40,69
170580,note_on,0,0,12,,,,,,,,11,,,,71,60
170580,note_on,0,0,8,,,,,,,,6,,,,52,69
170580,note_on,160,0,11,,,,,,,,10,,,,78,64
170580,note_off,2880,0,12,,,,,,,,11,,,,71,64
170580,note_on,0,0,13,,,,,,,,12,,,,52,60
170580,note_off,2880,0,13,,,,,,,,12,,,,52,64
170580,note_off,2880,0,7,,,,,,,,5,,,,71,64
170580,note_on,0,0,7,,,,,,,,5,,,,71,69
171060,note_on,600,0,2,,,,,,,,0,,,,47,69
171060,note_on,600,0,1,,,,,,,,0,,,,59,69
171060,note_on,600,0,15,,,,,,,,14,,,,47,45
171295,note_off,235,0,1,,,,,,,,0,,,,59,64
171295,note_off,235,0,15,,,,,,,,14,,,,47,64
171295,note_off,235,0,2,,,,,,,,0,,,,47,64
171300,note_off,720,0,6,,,,,,,,4,,,,78,64
171300,note_off,720,0,11,,,,,,,,10,,,,78,64
171300,note_on,0,0,10,,,,,,,,8,,,,83,55
171300,note_off,720,0,5,,,,,,,,3,,,,81,64
171300,note_on,5,0,1,,,,,,,,0,,,,64,67
171300,note_on,0,0,6,,,,,,,,4,,,,80,84
171300,note_on,0,0,5,,,,,,,,3,,,,83,84
171300,note_on,5,0,15,,,,,,,,14,,,,52,44
171300,note_off,720,0,10,,,,,,,,8,,,,81,64
171300,note_on,0,0,11,,,,,,,,10,,,,80,61
171300,note_on,5,0,2,,,,,,,,0,,,,52,67
171700,note_off,400,0,11,,,,,,,,10,,,,80,64
171700,note_off,400,0,1,,,,,,,,0,,,,64,64
171700,note_off,400,0,15,,,,,,,,14,,,,52,64
171700,note_off,400,0,6,,,,,,,,4,,,,80,64
171700,note_off,400,0,2,,,,,,,,0,,,,52,64
171700,note_off,400,0,5,,,,,,,,3,,,,83,64
171700,note_off,400,0,10,,,,,,,,8,,,,83,64
171780,note_on,80,0,11,,,,,,,,10,,,,78,59
171780,note_on,80,0,1,,,,,,,,0,,,,59,63
171780,note_on,80,0,15,,,,,,,,14,,,,47,41
171780,note_on,80,0,10,,,,,,,,8,,,,81,54
171780,note_on,80,0,2,,,,,,,,0,,,,47,63
171780,note_on,80,0,5,,,,,,,,3,,,,81,80
171780,note_on,80,0,6,,,,,,,,4,,,,78,80
171860,note_off,80,0,5,,,,,,,,3,,,,81,64
171860,note_off,80,0,10,,,,,,,,8,,,,81,64
171860,note_off,80,0,6,,,,,,,,4,,,,78,64
171860,note_off,80,0,11,,,,,,,,10,,,,78,64
172015,note_off,235,0,2,,,,,,,,0,,,,47,64
172015,note_off,235,0,1,,,,,,,,0,,,,59,64
172015,note_off,235,0,15,,,,,,,,14,,,,47,64
172020,note_on,160,0,5,,,,,,,,3,,,,80,78
172020,note_on,5,0,1,,,,,,,,0,,,,52,61
172020,note_on,160,0,11,,,,,,,,10,,,,76,58
172020,note_on,160,0,10,,,,,,,,8,,,,80,54
172020,note_on,5,0,2,,,,,,,,0,,,,40,61
172020,note_on,160,0,6,,,,,,,,4,,,,76,78
172020,note_on,5,0,15,,,,,,,,14,,,,40,40
172380,note_off,360,0,5,,,,,,,,3,,,,80,64
172380,note_on,0,0,5,,,,,,,,3,,,,81,75
172380,note_on,0,0,11,,,,,,,,10,,,,78,56
172380,note_off,360,0,6,,,,,,,,4,,,,76,64
172380,note_on,0,0,6,,,,,,,,4,,,,78,75
172380,note_off,360,0,11,,,,,,,,10,,,,76,64
172380,note_on,0,0,10,,,,,,,,8,,,,81,53
172380,note_off,360,0,10,,,,,,,,8,,,,80,64
172495,note_off,115,0,11,,,,,,,,10,,,,78,64
172495,note_off,115,0,6,,,,,,,,4,,,,78,64
172495,note_off,115,0,10,,,,,,,,8,,,,81,64
172495,note_off,115,0,5,,,,,,,,3,,,,81,64
172500,note_on,5,0,6,,,,,,,,4,,,,80,74
172500,note_on,5,0,10,,,,,,,,8,,,,83,53
172500,note_on,5,0,11,,,,,,,,10,,,,80,56
172500,note_on,5,0,5,,,,,,,,3,,,,83,74
172580,note_off,80,0,5,,,,,,,,3,,,,83,64
172580,note_off,80,0,6,,,,,,,,4,,,,80,64
172660,note_off,640,0,1,,,,,,,,0,,,,52,64
172660,note_off,640,0,2,,,,,,,,0,,,,40,64
172660,note_off,640,0,15,,,,,,,,14,,,,40,64
172735,note_off,235,0,11,,,,,,,,10,,,,80,64
172735,note_off,235,0,10,,,,,,,,8,,,,83,64
172740,note_on,5,0,11,,,,,,,,10,,,,80,55
172740,note_on,80,0,1,,,,,,,,0,,,,64,53
172740,note_on,160,0,5,,,,,,,,3,,,,83,72
172740,note_on,5,0,10,,,,,,,,8,,,,83,52
172740,note_on,80,0,2,,,,,,,,0,,,,52,53
172740,note_on,80,0,15,,,,,,,,14,,,,40,35
172740,note_on,160,0,6,,,,,,,,4,,,,80,72
172800,key_signature,6540,1,0,,,,,,G,,,,,,,
173100,note_off,360,0,6,,,,,,,,4,,,,80,64
173100,note_on,0,0,11,,,,,,,,10,,,,78,53
173100,note_off,360,0,10,,,,,,,,8,,,,83,64
173100,note_on,0,0,10,,,,,,,,8,,,,81,51
173100,note_on,0,0,5,,,,,,,,3,,,,81,69
173100,note_off,360,0,5,,,,,,,,3,,,,83,64
173100,note_off,360,0,11,,,,,,,,10,,,,80,64
173100,note_on,0,0,6,,,,,,,,4,,,,78,69
173215,note_off,115,0,11,,,,,,,,10,,,,78,64
173215,note_off,115,0,10,,,,,,,,8,,,,81,64
173215,note_off,115,0,5,,,,,,,,3,,,,81,64
173215,note_off,115,0,6,,,,,,,,4,,,,78,64
173220,note_on,5,0,5,,,,,,,,3,,,,80,68
173220,note_on,5,0,6,,,,,,,,4,,,,76,68
173220,note_on,5,0,11,,,,,,,,10,,,,76,53
173220,note_on,5,0,10,,,,,,,,8,,,,80,51
173300,note_off,80,0,5,,,,,,,,3,,,,80,64
173300,note_off,80,0,6,,,,,,,,4,,,,76,64
173380,note_off,640,0,1,,,,,,,,0,,,,64,64
173380,note_off,640,0,15,,,,,,,,14,,,,40,64
173380,note_off,640,0,2,,,,,,,,0,,,,52,64
173455,note_off,235,0,11,,,,,,,,10,,,,76,64
173455,note_off,235,0,10,,,,,,,,8,,,,80,64
173460,note_off,2880,0,8,,,,,,,,6,,,,52,64
173460,note_on,80,0,2,,,,,,,,0,,,,47,45
173460,note_on,5,0,10,,,,,,,,8,,,,80,50
173460,note_off,2880,0,13,,,,,,,,12,,,,52,64
173460,note_on,0,0,13,,,,,,,,12,,,,52,45
173460,note_on,0,0,8,,,,,,,,6,,,,47,45
173460,note_on,160,0,5,,,,,,,,3,,,,80,66
173460,note_on,0,0,14,,,,,,,,13,,,,35,45
173460,note_off,2880,0,14,,,,,,,,13,,,,40,64
173460,note_on,0,0,7,,,,,,,,5,,,,71,45
173460,note_on,80,0,15,,,,,,,,14,,,,35,30
173460,note_off,2880,0,12,,,,,,,,11,,,,71,64
173460,note_on,0,0,12,,,,,,,,11,,,,71,45
173460,note_on,5,0,11,,,,,,,,10,,,,76,51
173460,note_on,80,0,1,,,,,,,,0,,,,59,45
173460,note_on,160,0,6,,,,,,,,4,,,,76,66
173460,note_off,2880,0,7,,,,,,,,5,,,,71,64
173460,note_on,0,0,9,,,,,,,,7,,,,35,45
173460,note_off,2880,0,9,,,,,,,,7,,,,40,64
173520,note_on,0,0,11,,,,,,,,10,,,,78,51
173520,note_on,0,0,6,,,,,,,,4,,,,78,66
173520,note_off,60,0,6,,,,,,,,4,,,,76,64
173520,note_off,60,0,5,,,,,,,,3,,,,80,64
173520,note_on,0,0,5,,,,,,,,3,,,,81,66
173520,note_off,60,0,10,,,,,,,,8,,,,80,64
173520,note_on,0,0,10,,,,,,,,8,,,,81,50
173520,note_off,60,0,11,,,,,,,,10,,,,76,64
173580,note_on,0,0,10,,,,,,,,8,,,,80,50
173580,note_on,0,0,6,,,,,,,,4,,,,76,66
173580,note_off,60,0,11,,,,,,,,10,,,,78,64
173580,note_on,0,0,11,,,,,,,,10,,,,76,51
173580,note_off,60,0,5,,,,,,,,3,,,,81,64
173580,note_on,0,0,5,,,,,,,,3,,,,80,66
173580,note_off,60,0,6,,,,,,,,4,,,,78,64
173580,note_off,60,0,10,,,,,,,,8,,,,81,64
173640,note_off,60,0,11,,,,,,,,10,,,,76,64
173640,note_on,0,0,5,,,,,,,,3,,,,81,66
173640,note_off,60,0,5,,,,,,,,3,,,,80,64
173640,note_on,0,0,6,,,,,,,,4,,,,78,66
173640,note_off,60,0,10,,,,,,,,8,,,,80,64
173640,note_off,60,0,6,,,,,,,,4,,,,76,64
173640,note_on,0,0,11,,,,,,,,10,,,,78,51
173640,note_on,0,0,10,,,,,,,,8,,,,81,50
173700,note_on,0,0,6,,,,,,,,4,,,,76,66
173700,note_off,60,0,6,,,,,,,,4,,,,78,64
173700,note_on,0,0,10,,,,,,,,8,,,,80,50
173700,note_off,60,0,5,,,,,,,,3,,,,81,64
173700,note_on,0,0,5,,,,,,,,3,,,,80,66
173700,note_off,60,0,11,,,,,,,,10,,,,78,64
173700,note_on,0,0,11,,,,,,,,10,,,,76,51
173700,note_off,60,0,10,,,,,,,,8,,,,81,64
173760,note_on,0,0,10,,,,,,,,8,,,,81,50
173760,note_on,0,0,5,,,,,,,,3,,,,81,66
173760,note_off,60,0,5,,,,,,,,3,,,,80,64
173760,note_on,0,0,6,,,,,,,,4,,,,78,66
173760,note_off,60,0,6,,,,,,,,4,,,,76,64
173760,note_off,60,0,10,,,,,,,,8,,,,80,64
173760,note_off,60,0,11,,,,,,,,10,,,,76,64
173760,note_on,0,0,11,,,,,,,,10,,,,78,51
173820,note_off,60,0,6,,,,,,,,4,,,,78,64
173820,note_on,0,0,11,,,,,,,,10,,,,76,51
173820,note_off,60,0,11,,,,,,,,10,,,,78,64
173820,note_on,0,0,6,,,,,,,,4,,,,76,66
173820,note_on,0,0,5,,,,,,,,3,,,,80,66
173820,note_on,0,0,10,,,,,,,,8,,,,80,50
173820,note_off,60,0,10,,,,,,,,8,,,,81,64
173820,note_off,60,0,5,,,,,,,,3,,,,81,64
173880,note_off,60,0,10,,,,,,,,8,,,,80,64
173880,note_on,0,0,5,,,,,,,,3,,,,81,65
173880,note_on,0,0,6,,,,,,,,4,,,,78,65
173880,note_off,60,0,6,,,,,,,,4,,,,76,64
173880,note_off,60,0,11,,,,,,,,10,,,,76,64
173880,note_on,0,0,11,,,,,,,,10,,,,78,50
173880,note_off,60,0,5,,,,,,,,3,,,,80,64
173880,note_on,0,0,10,,,,,,,,8,,,,81,50
173940,note_on,0,0,5,,,,,,,,3,,,,80,64
173940,note_on,0,0,6,,,,,,,,4,,,,76,64
173940,note_off,60,0,10,,,,,,,,8,,,,81,64
173940,note_on,0,0,10,,,,,,,,8,,,,80,49
173940,note_off,60,0,6,,,,,,,,4,,,,78,64
173940,note_off,60,0,11,,,,,,,,10,,,,78,64
173940,note_on,0,0,11,,,,,,,,10,,,,76,49
173940,note_off,60,0,5,,,,,,,,3,,,,81,64
174000,note_off,60,0,10,,,,,,,,8,,,,80,64
174000,note_off,60,0,11,,,,,,,,10,,,,76,64
174000,note_on,0,0,10,,,,,,,,8,,,,81,48
174000,note_off,60,0,5,,,,,,,,3,,,,80,64
174000,note_on,0,0,6,,,,,,,,4,,,,78,63
174000,note_on,0,0,11,,,,,,,,10,,,,78,48
174000,note_on,0,0,5,,,,,,,,3,,,,81,63
174000,note_off,60,0,6,,,,,,,,4,,,,76,64
174060,note_off,60,0,11,,,,,,,,10,,,,78,64
174060,note_on,0,0,6,,,,,,,,4,,,,76,62
174060,note_off,60,0,6,,,,,,,,4,,,,78,64
174060,note_on,0,0,10,,,,,,,,8,,,,80,47
174060,note_on,0,0,5,,,,,,,,3,,,,80,62
174060,note_off,60,0,5,,,,,,,,3,,,,81,64
174060,note_off,60,0,10,,,,,,,,8,,,,81,64
174060,note_on,0,0,11,,,,,,,,10,,,,76,47
174120,note_on,0,0,10,,,,,,,,8,,,,81,46
174120,note_on,0,0,11,,,,,,,,10,,,,78,46
174120,note_off,60,0,11,,,,,,,,10,,,,76,64
174120,note_off,60,0,6,,,,,,,,4,,,,76,64
174120,note_on,0,0,6,,,,,,,,4,,,,78,61
174120,note_off,60,0,5,,,,,,,,3,,,,80,64
174120,note_on,0,0,5,,,,,,,,3,,,,81,61
174120,note_off,60,0,10,,,,,,,,8,,,,80,64
174180,note_off,60,0,10,,,,,,,,8,,,,81,64
174180,note_on,0,0,5,,,,,,,,3,,,,78,60
174180,note_on,0,0,10,,,,,,,,8,,,,78,45
174180,note_off,60,0,5,,,,,,,,3,,,,81,64
174180,note_off,60,0,11,,,,,,,,10,,,,78,64
174180,note_on,0,0,11,,,,,,,,10,,,,75,45
174180,note_off,60,0,6,,,,,,,,4,,,,78,64
174180,note_on,0,0,6,,,,,,,,4,,,,75,60
174780,note_off,1320,0,14,,,,,,,,13,,,,35,64
174780,note_off,1320,0,9,,,,,,,,7,,,,35,64
174780,note_off,1320,0,8,,,,,,,,6,,,,47,64
174780,note_off,1320,0,1,,,,,,,,0,,,,59,64
174780,note_off,1320,0,15,,,,,,,,14,,,,35,64
174780,note_off,1320,0,7,,,,,,,,5,,,,71,64
174780,note_off,1320,0,13,,,,,,,,12,,,,52,64
174780,note_off,1320,0,12,,,,,,,,11,,,,71,64
174780,note_off,1320,0,2,,,,,,,,0,,,,47,64
174820,note_off,640,0,5,,,,,,,,3,,,,78,64
174820,note_off,640,0,10,,,,,,,,8,,,,78,64
174820,note_off,640,0,11,,,,,,,,10,,,,75,64
174820,note_off,640,0,6,,,,,,,,4,,,,75,64
174960,note_on,180,0,7,,,,,,,,5,,,,71,45
174960,note_on,180,0,2,,,,,,,,0,,,,64,60
174960,note_on,0,0,2,,,,,,,,0,,,,76,60
174960,note_on,180,0,13,,,,,,,,12,,,,52,45
174960,note_on,140,0,6,,,,,,,,4,,,,76,60
174960,note_on,140,0,10,,,,,,,,8,,,,79,45
174960,note_on,180,0,9,,,,,,,,7,,,,40,45
174960,note_on,140,0,5,,,,,,,,3,,,,79,60
174960,note_on,180,0,1,,,,,,,,0,,,,88,75
174960,note_on,180,0,8,,,,,,,,6,,,,52,45
174960,note_on,180,0,12,,,,,,,,11,,,,71,45
174960,note_on,180,0,14,,,,,,,,13,,,,40,45
174960,note_on,140,0,11,,,,,,,,10,,,,76,45
175080,note_off,120,0,1,,,,,,,,0,,,,88,64
175080,note_on,0,0,1,,,,,,,,0,,,,83,75
175080,note_off,0,0,2,,,,,,,,0,,,,64,64
175080,note_on,0,0,2,,,,,,,,0,,,,59,60
175080,note_on,0,0,2,,,,,,,,0,,,,71,60
175080,note_off,120,0,2,,,,,,,,0,,,,76,64
175200,note_off,120,0,1,,,,,,,,0,,,,83,64
175200,note_off,120,0,2,,,,,,,,0,,,,71,64
175200,note_on,0,0,2,,,,,,,,0,,,,55,60
175200,note_on,0,0,2,,,,,,,,0,,,,67,60
175200,note_on,0,0,1,,,,,,,,0,,,,79,75
175200,note_off,0,0,2,,,,,,,,0,,,,59,64
175320,note_on,0,0,1,,,,,,,,0,,,,83,75
175320,note_off,360,0,5,,,,,,,,3,,,,79,64
175320,note_on,0,0,5,,,,,,,,3,,,,81,60
175320,note_on,0,0,10,,,,,,,,8,,,,81,45
175320,note_off,360,0,10,,,,,,,,8,,,,79,64
175320,note_on,0,0,6,,,,,,,,4,,,,78,60
175320,note_off,360,0,6,,,,,,,,4,,,,76,64
175320,note_off,120,0,2,,,,,,,,0,,,,67,64
175320,note_off,0,0,2,,,,,,,,0,,,,55,64
175320,note_on,0,0,2,,,,,,,,0,,,,59,60
175320,note_on,0,0,11,,,,,,,,10,,,,78,45
175320,note_off,360,0,11,,,,,,,,10,,,,76,64
175320,note_on,0,0,2,,,,,,,,0,,,,71,60
175320,note_off,120,0,1,,,,,,,,0,,,,79,64
175435,note_off,115,0,6,,,,,,,,4,,,,78,64
175435,note_off,115,0,5,,,,,,,,3,,,,81,64
175435,note_off,115,0,10,,,,,,,,8,,,,81,64
175435,note_off,115,0,11,,,,,,,,10,,,,78,64
175440,note_on,5,0,11,,,,,,,,10,,,,76,45
175440,note_on,5,0,6,,,,,,,,4,,,,76,60
175440,note_off,120,0,1,,,,,,,,0,,,,83,64
175440,note_off,0,0,2,,,,,,,,0,,,,59,64
175440,note_on,0,0,2,,,,,,,,0,,,,64,60
175440,note_on,0,0,1,,,,,,,,0,,,,88,75
175440,note_on,0,0,2,,,,,,,,0,,,,76,60
175440,note_on,5,0,5,,,,,,,,3,,,,79,60
175440,note_off,120,0,2,,,,,,,,0,,,,71,64
175440,note_on,5,0,10,,,,,,,,8,,,,79,45
175560,note_off,120,0,1,,,,,,,,0,,,,88,64
175560,note_on,0,0,1,,,,,,,,0,,,,83,75
175560,note_off,0,0,2,,,,,,,,0,,,,64,64
175560,note_on,0,0,2,,,,,,,,0,,,,71,60
175560,note_on,0,0,2,,,,,,,,0,,,,59,60
175560,note_off,120,0,2,,,,,,,,0,,,,76,64
175675,note_off,235,0,10,,,,,,,,8,,,,79,64
175675,note_off,235,0,6,,,,,,,,4,,,,76,64
175675,note_off,235,0,11,,,,,,,,10,,,,76,64
175675,note_off,235,0,5,,,,,,,,3,,,,79,64
175680,note_off,0,0,2,,,,,,,,0,,,,59,64
175680,note_off,120,0,2,,,,,,,,0,,,,71,64
175680,note_on,5,0,5,,,,,,,,3,,,,79,60
175680,note_on,0,0,2,,,,,,,,0,,,,76,60
175680,note_on,0,0,2,,,,,,,,0,,,,64,60
175680,note_on,5,0,10,,,,,,,,8,,,,79,45
175680,note_on,0,0,1,,,,,,,,0,,,,88,75
175680,note_on,5,0,11,,,,,,,,10,,,,76,45
175680,note_on,5,0,6,,,,,,,,4,,,,76,60
175680,note_off,120,0,1,,,,,,,,0,,,,83,64
176080,note_off,1120,0,9,,,,,,,,7,,,,40,64
176080,note_off,1120,0,13,,,,,,,,12,,,,52,64
176080,note_off,1120,0,8,,,,,,,,6,,,,52,64
176080,note_off,1120,0,14,,,,,,,,13,,,,40,64
176160,note_on,80,0,9,,,,,,,,7,,,,45,45
176160,note_off,480,0,11,,,,,,,,10,,,,76,64
176160,note_on,0,0,11,,,,,,,,10,,,,78,45
176160,note_on,0,0,5,,,,,,,,3,,,,81,60
176160,note_off,480,0,5,,,,,,,,3,,,,79,64
176160,note_off,480,0,10,,,,,,,,8,,,,79,64
176160,note_on,80,0,13,,,,,,,,12,,,,57,45
176160,note_on,0,0,10,,,,,,,,8,,,,81,45
176160,note_off,480,0,6,,,,,,,,4,,,,76,64
176160,note_off,1200,0,12,,,,,,,,11,,,,71,64
176160,note_on,0,0,12,,,,,,,,11,,,,72,45
176160,note_off,1200,0,7,,,,,,,,5,,,,71,64
176160,note_on,0,0,7,,,,,,,,5,,,,72,45
176160,note_on,0,0,6,,,,,,,,4,,,,78,60
176160,note_on,80,0,8,,,,,,,,6,,,,57,45
176160,note_on,80,0,14,,,,,,,,13,,,,45,45
176240,note_off,80,0,11,,,,,,,,10,,,,78,64
176240,note_off,80,0,5,,,,,,,,3,,,,81,64
176240,note_off,80,0,6,,,,,,,,4,,,,78,64
176240,note_off,80,0,10,,,,,,,,8,,,,81,64
176320,note_off,640,0,1,,,,,,,,0,,,,88,64
176320,note_off,640,0,2,,,,,,,,0,,,,76,64
176320,note_off,0,0,2,,,,,,,,0,,,,64,64
176395,note_off,235,0,13,,,,,,,,12,,,,57,64
176395,note_off,235,0,9,,,,,,,,7,,,,45,64
176395,note_off,235,0,8,,,,,,,,6,,,,57,64
176395,note_off,235,0,14,,,,,,,,13,,,,45,64
176400,note_on,5,0,9,,,,,,,,7,,,,47,45
176400,note_on,160,0,5,,,,,,,,3,,,,79,60
176400,note_on,5,0,8,,,,,,,,6,,,,59,45
176400,note_on,160,0,6,,,,,,,,4,,,,76,60
176400,note_off,240,0,12,,,,,,,,11,,,,72,64
176400,note_on,0,0,12,,,,,,,,11,,,,66,45
176400,note_on,160,0,10,,,,,,,,8,,,,79,45
176400,note_on,160,0,11,,,,,,,,10,,,,76,45
176400,note_on,0,0,7,,,,,,,,5,,,,66,45
176400,note_off,240,0,7,,,,,,,,5,,,,72,64
176400,note_on,5,0,14,,,,,,,,13,,,,47,45
176400,note_on,5,0,13,,,,,,,,12,,,,59,45
176760,note_off,360,0,8,,,,,,,,6,,,,59,64
176760,note_on,0,0,9,,,,,,,,7,,,,45,45
176760,note_off,360,0,9,,,,,,,,7,,,,47,64
176760,note_on,0,0,13,,,,,,,,12,,,,57,45
176760,note_on,0,0,8,,,,,,,,6,,,,57,45
176760,note_off,360,0,14,,,,,,,,13,,,,47,64
176760,note_on,0,0,14,,,,,,,,13,,,,45,45
176760,note_off,360,0,13,,,,,,,,12,,,,59,64
176880,note_off,120,0,14,,,,,,,,13,,,,45,64
176880,note_on,0,0,8,,,,,,,,6,,,,59,45
176880,note_on,0,0,13,,,,,,,,12,,,,59,45
176880,note_off,120,0,13,,,,,,,,12,,,,57,64
176880,note_off,120,0,9,,,,,,,,7,,,,45,64
176880,note_on,0,0,9,,,,,,,,7,,,,47,45
176880,note_off,120,0,8,,,,,,,,6,,,,57,64
176880,note_on,0,0,14,,,,,,,,13,,,,47,45
176960,note_off,80,0,14,,,,,,,,13,,,,47,64
176960,note_off,80,0,13,,,,,,,,12,,,,59,64
176960,note_off,80,0,8,,,,,,,,6,,,,59,64
176960,note_off,80,0,9,,,,,,,,7,,,,47,64
177120,note_on,0,0,11,,,,,,,,10,,,,75,45
177120,note_on,160,0,9,,,,,,,,7,,,,47,45
177120,note_off,720,0,5,,,,,,,,3,,,,79,64
177120,note_on,160,0,13,,,,,,,,12,,,,59,45
177120,note_off,720,0,6,,,,,,,,4,,,,76,64
177120,note_on,0,0,6,,,,,,,,4,,,,75,60
177120,note_on,0,0,5,,,,,,,,3,,,,78,60
177120,note_off,720,0,11,,,,,,,,10,,,,76,64
177120,note_on,160,0,14,,,,,,,,13,,,,47,45
177120,note_on,0,0,10,,,,,,,,8,,,,78,45
177120,note_off,720,0,10,,,,,,,,8,,,,79,64
177120,note_on,160,0,8,,,,,,,,6,,,,59,45
177480,note_on,0,0,9,,,,,,,,7,,,,45,45
177480,note_on,0,0,14,,,,,,,,13,,,,45,45
177480,note_off,360,0,13,,,,,,,,12,,,,59,64
177480,note_on,0,0,8,,,,,,,,6,,,,57,45
177480,note_off,360,0,9,,,,,,,,7,,,,47,64
177480,note_off,360,0,14,,,,,,,,13,,,,47,64
177480,note_on,0,0,13,,,,,,,,12,,,,57,45
177480,note_off,360,0,8,,,,,,,,6,,,,59,64
177600,note_on,0,0,9,,,,,,,,7,,,,47,45
177600,note_on,0,0,8,,,,,,,,6,,,,59,45
177600,note_off,120,0,14,,,,,,,,13,,,,45,64
177600,note_on,0,0,14,,,,,,,,13,,,,47,45
177600,note_off,120,0,9,,,,,,,,7,,,,45,64
177600,note_off,120,0,13,,,,,,,,12,,,,57,64
177600,note_on,0,0,13,,,,,,,,12,,,,59,45
177600,note_off,120,0,8,,,,,,,,6,,,,57,64
177680,note_off,80,0,9,,,,,,,,7,,,,47,64
177680,note_off,80,0,14,,,,,,,,13,,,,47,64
177680,note_off,80,0,13,,,,,,,,12,,,,59,64
177680,note_off,80,0,8,,,,,,,,6,,,,59,64
177720,note_off,1320,0,7,,,,,,,,5,,,,66,64
177720,note_off,1320,0,12,,,,,,,,11,,,,66,64
177760,note_off,640,0,10,,,,,,,,8,,,,78,64
177760,note_off,640,0,5,,,,,,,,3,,,,78,64
177760,note_off,640,0,6,,,,,,,,4,,,,75,64
177760,note_off,640,0,11,,,,,,,,10,,,,75,64
177840,note_on,80,0,5,,,,,,,,3,,,,78,60
177840,note_on,0,0,2,,,,,,,,0,,,,74,60
177840,note_on,1520,0,1,,,,,,,,0,,,,86,75
177840,note_on,80,0,11,,,,,,,,10,,,,74,45
177840,note_on,80,0,6,,,,,,,,4,,,,74,60
177840,note_on,120,0,7,,,,,,,,5,,,,69,45
177840,note_on,1520,0,2,,,,,,,,0,,,,62,60
177840,note_on,160,0,8,,,,,,,,6,,,,50,45
177840,note_on,160,0,13,,,,,,,,12,,,,50,45
177840,note_on,80,0,10,,,,,,,,8,,,,78,45
177840,note_on,160,0,14,,,,,,,,13,,,,38,45
177840,note_on,160,0,9,,,,,,,,7,,,,38,45
177840,note_on,120,0,12,,,,,,,,11,,,,69,45
177960,note_off,120,0,1,,,,,,,,0,,,,86,64
177960,note_off,0,0,2,,,,,,,,0,,,,62,64
177960,note_on,0,0,1,,,,,,,,0,,,,81,75
177960,note_off,120,0,2,,,,,,,,0,,,,74,64
177960,note_on,0,0,2,,,,,,,,0,,,,57,60
177960,note_on,0,0,2,,,,,,,,0,,,,69,60
178080,note_on,0,0,2,,,,,,,,0,,,,66,60
178080,note_on,0,0,1,,,,,,,,0,,,,78,75
178080,note_off,120,0,1,,,,,,,,0,,,,81,64
178080,note_off,120,0,2,,,,,,,,0,,,,69,64
178080,note_off,0,0,2,,,,,,,,0,,,,57,64
178080,note_on,0,0,2,,,,,,,,0,,,,54,60
178200,note_off,120,0,1,,,,,,,,0,,,,78,64
178200,note_on,0,0,1,,,,,,,,0,,,,81,75
178200,note_off,120,0,2,,,,,,,,0,,,,66,64
178200,note_off,0,0,2,,,,,,,,0,,,,54,64
178200,note_off,360,0,5,,,,,,,,3,,,,78,64
178200,note_on,0,0,5,,,,,,,,3,,,,79,60
178200,note_off,360,0,10,,,,,,,,8,,,,78,64
178200,note_on,0,0,10,,,,,,,,8,,,,79,45
178200,note_on,0,0,6,,,,,,,,4,,,,76,60
178200,note_off,360,0,6,,,,,,,,4,,,,74,64
178200,note_on,0,0,11,,,,,,,,10,,,,76,45
178200,note_off,360,0,11,,,,,,,,10,,,,74,64
178200,note_on,0,0,2,,,,,,,,0,,,,57,60
178200,note_on,0,0,2,,,,,,,,0,,,,69,60
178315,note_off,115,0,10,,,,,,,,8,,,,79,64
178315,note_off,115,0,6,,,,,,,,4,,,,76,64
178315,note_off,115,0,11,,,,,,,,10,,,,76,64
178315,note_off,115,0,5,,,,,,,,3,,,,79,64
178320,note_on,5,0,10,,,,,,,,8,,,,78,45
178320,note_on,5,0,6,,,,,,,,4,,,,74,60
178320,note_on,5,0,11,,,,,,,,10,,,,74,45
178320,note_on,0,0,2,,,,,,,,0,,,,74,60
178320,note_on,5,0,5,,,,,,,,3,,,,78,60
178320,note_on,0,0,1,,,,,,,,0,,,,86,75
178320,note_off,120,0,1,,,,,,,,0,,,,81,64
178320,note_off,120,0,2,,,,,,,,0,,,,69,64
178320,note_off,0,0,2,,,,,,,,0,,,,57,64
178320,note_on,0,0,2,,,,,,,,0,,,,62,60
178440,note_on,0,0,2,,,,,,,,0,,,,69,60
178440,note_off,120,0,2,,,,,,,,0,,,,74,64
178440,note_off,0,0,2,,,,,,,,0,,,,62,64
178440,note_off,120,0,1,,,,,,,,0,,,,86,64
178440,note_on,0,0,1,,,,,,,,0,,,,81,75
178440,note_on,0,0,2,,,,,,,,0,,,,57,60
178555,note_off,235,0,5,,,,,,,,3,,,,78,64
178555,note_off,235,0,10,,,,,,,,8,,,,78,64
178555,note_off,235,0,6,,,,,,,,4,,,,74,64
178555,note_off,235,0,11,,,,,,,,10,,,,74,64
178560,note_off,0,0,2,,,,,,,,0,,,,57,64
178560,note_on,0,0,2,,,,,,,,0,,,,74,60
178560,note_on,5,0,6,,,,,,,,4,,,,74,60
178560,note_on,5,0,11,,,,,,,,10,,,,74,45
178560,note_on,5,0,5,,,,,,,,3,,,,78,60
178560,note_off,120,0,2,,,,,,,,0,,,,69,64
178560,note_on,5,0,10,,,,,,,,8,,,,78,45
178560,note_off,120,0,1,,,,,,,,0,,,,81,64
178560,note_on,0,0,1,,,,,,,,0,,,,86,75
178960,note_off,1120,0,13,,,,,,,,12,,,,50,64
178960,note_off,1120,0,14,,,,,,,,13,,,,38,64
178960,note_off,1120,0,9,,,,,,,,7,,,,38,64
178960,note_off,1120,0,8,,,,,,,,6,,,,50,64
179040,note_on,80,0,13,,,,,,,,12,,,,55,45
179040,note_on,0,0,6,,,,,,,,4,,,,76,60
179040,note_off,1200,0,7,,,,,,,,5,,,,69,64
179040,note_on,80,0,8,,,,,,,,6,,,,55,45
179040,note_off,480,0,6,,,,,,,,4,,,,74,64
179040,note_on,0,0,12,,,,,,,,11,,,,71,45
179040,note_on,0,0,7,,,,,,,,5,,,,71,45
179040,note_on,0,0,11,,,,,,,,10,,,,76,45
179040,note_off,480,0,11,,,,,,,,10,,,,74,64
179040,note_off,480,0,5,,,,,,,,3,,,,78,64
179040,note_on,80,0,9,,,,,,,,7,,,,43,45
179040,note_off,480,0,10,,,,,,,,8,,,,78,64
179040,note_on,0,0,10,,,,,,,,8,,,,79,45
179040,note_on,0,0,5,,,,,,,,3,,,,79,60
179040,note_off,1200,0,12,,,,,,,,11,,,,69,64
179040,note_on,80,0,14,,,,,,,,13,,,,43,45
179120,note_off,80,0,6,,,,,,,,4,,,,76,64
179120,note_off,80,0,11,,,,,,,,10,,,,76,64
179120,note_off,80,0,10,,,,,,,,8,,,,79,64
179120,note_off,80,0,5,,,,,,,,3,,,,79,64
179200,note_off,640,0,2,,,,,,,,0,,,,74,64
179200,note_off,640,0,1,,,,,,,,0,,,,86,64
179275,note_off,235,0,14,,,,,,,,13,,,,43,64
179275,note_off,235,0,9,,,,,,,,7,,,,43,64
179275,note_off,235,0,8,,,,,,,,6,,,,55,64
179275,note_off,235,0,13,,,,,,,,12,,,,55,64
179280,note_on,0,0,12,,,,,,,,11,,,,64,45
179280,note_on,5,0,13,,,,,,,,12,,,,57,45
179280,note_on,160,0,5,,,,,,,,3,,,,78,60
179280,note_on,160,0,10,,,,,,,,8,,,,78,45
179280,note_on,5,0,9,,,,,,,,7,,,,45,45
179280,note_on,160,0,11,,,,,,,,10,,,,74,45
179280,note_on,0,0,7,,,,,,,,5,,,,64,45
179280,note_on,5,0,8,,,,,,,,6,,,,57,45
179280,note_on,160,0,6,,,,,,,,4,,,,74,60
179280,note_off,240,0,7,,,,,,,,5,,,,71,64
179280,note_on,5,0,14,,,,,,,,13,,,,45,45
179280,note_off,240,0,12,,,,,,,,11,,,,71,64
179640,note_off,360,0,8,,,,,,,,6,,,,57,64
179640,note_on,0,0,9,,,,,,,,7,,,,43,45
179640,note_off,360,0,9,,,,,,,,7,,,,45,64
179640,note_on,0,0,8,,,,,,,,6,,,,55,45
179640,note_on,0,0,13,,,,,,,,12,,,,55,45
179640,note_off,360,0,14,,,,,,,,13,,,,45,64
179640,note_on,0,0,14,,,,,,,,13,,,,43,45
179640,note_off,360,0,13,,,,,,,,12,,,,57,64
179760,note_on,0,0,13,,,,,,,,12,,,,57,45
179760,note_off,120,0,13,,,,,,,,12,,,,55,64
179760,note_off,120,0,8,,,,,,,,6,,,,55,64
179760,note_off,120,0,14,,,,,,,,13,,,,43,64
179760,note_on,0,0,9,,,,,,,,7,,,,45,45
179760,note_off,120,0,9,,,,,,,,7,,,,43,64
179760,note_on,0,0,14,,,,,,,,13,,,,45,45
179760,note_on,0,0,8,,,,,,,,6,,,,57,45
179840,note_off,80,0,8,,,,,,,,6,,,,57,64
179840,note_off,80,0,14,,,,,,,,13,,,,45,64
179840,note_off,80,0,9,,,,,,,,7,,,,45,64
179840,note_off,80,0,13,,,,,,,,12,,,,57,64
180000,note_on,160,0,8,,,,,,,,6,,,,57,45
180000,note_off,720,0,6,,,,,,,,4,,,,74,64
180000,note_on,0,0,6,,,,,,,,4,,,,73,60
180000,note_on,0,0,11,,,,,,,,10,,,,73,45
180000,note_on,160,0,9,,,,,,,,7,,,,45,45
180000,note_on,160,0,14,,,,,,,,13,,,,45,45
180000,note_off,720,0,10,,,,,,,,8,,,,78,64
180000,note_on,0,0,10,,,,,,,,8,,,,76,45
180000,note_off,720,0,5,,,,,,,,3,,,,78,64
180000,note_on,0,0,5,,,,,,,,3,,,,76,60
180000,note_off,720,0,11,,,,,,,,10,,,,74,64
180000,note_on,160,0,13,,,,,,,,12,,,,57,45
180360,note_on,0,0,13,,,,,,,,12,,,,55,45
180360,note_on,0,0,9,,,,,,,,7,,,,43,45
180360,note_off,360,0,9,,,,,,,,7,,,,45,64
180360,note_on,0,0,8,,,,,,,,6,,,,55,45
180360,note_off,360,0,8,,,,,,,,6,,,,57,64
180360,note_on,0,0,14,,,,,,,,13,,,,43,45
180360,note_off,360,0,14,,,,,,,,13,,,,45,64
180360,note_off,360,0,13,,,,,,,,12,,,,57,64
180480,note_off,120,0,13,,,,,,,,12,,,,55,64
180480,note_off,120,0,9,,,,,,,,7,,,,43,64
180480,note_on,0,0,13,,,,,,,,12,,,,57,45
180480,note_on,0,0,8,,,,,,,,6,,,,57,45
180480,note_off,120,0,8,,,,,,,,6,,,,55,64
180480,note_on,0,0,14,,,,,,,,13,,,,45,45
180480,note_off,120,0,14,,,,,,,,13,,,,43,64
180480,note_on,0,0,9,,,,,,,,7,,,,45,45
180560,note_off,80,0,8,,,,,,,,6,,,,57,64
180560,note_off,80,0,9,,,,,,,,7,,,,45,64
180560,note_off,80,0,14,,,,,,,,13,,,,45,64
180560,note_off,80,0,13,,,,,,,,12,,,,57,64
180640,note_off,640,0,6,,,,,,,,4,,,,73,64
180640,note_off,640,0,10,,,,,,,,8,,,,76,64
180640,note_off,640,0,5,,,,,,,,3,,,,76,64
180640,note_off,640,0,11,,,,,,,,10,,,,73,64
180720,note_on,1520,0,1,,,,,,,,0,,,,84,75
180720,note_on,1520,0,2,,,,,,,,0,,,,60,60
180720,note_on,0,0,2,,,,,,,,0,,,,72,60
180780,note_on,140,0,10,,,,,,,,8,,,,76,45
180780,note_on,220,0,9,,,,,,,,7,,,,45,45
180780,note_on,220,0,8,,,,,,,,6,,,,57,45
180780,note_on,220,0,14,,,,,,,,13,,,,45,45
180780,note_on,220,0,13,,,,,,,,12,,,,57,45
180780,note_on,140,0,6,,,,,,,,4,,,,72,60
180780,note_on,140,0,11,,,,,,,,10,,,,72,45
180780,note_on,140,0,5,,,,,,,,3,,,,76,60
180840,note_off,120,0,2,,,,,,,,0,,,,72,64
180840,note_off,120,0,1,,,,,,,,0,,,,84,64
180840,note_off,0,0,2,,,,,,,,0,,,,60,64
180840,note_on,0,0,2,,,,,,,,0,,,,55,60
180840,note_on,0,0,2,,,,,,,,0,,,,67,60
180840,note_on,0,0,1,,,,,,,,0,,,,79,75
180960,note_off,120,0,1,,,,,,,,0,,,,79,64
180960,note_on,0,0,1,,,,,,,,0,,,,76,75
180960,note_on,0,0,2,,,,,,,,0,,,,64,60
180960,note_off,120,0,2,,,,,,,,0,,,,67,64
180960,note_on,0,0,2,,,,,,,,0,,,,52,60
180960,note_off,0,0,2,,,,,,,,0,,,,55,64
181080,note_off,120,0,2,,,,,,,,0,,,,64,64
181080,note_on,0,0,2,,,,,,,,0,,,,55,60
181080,note_on,0,0,2,,,,,,,,0,,,,67,60
181080,note_off,0,0,2,,,,,,,,0,,,,52,64
181080,note_on,0,0,1,,,,,,,,0,,,,79,75
181080,note_off,120,0,1,,,,,,,,0,,,,76,64
181140,note_on,0,0,6,,,,,,,,4,,,,74,60
181140,note_off,360,0,6,,,,,,,,4,,,,72,64
181140,note_off,360,0,11,,,,,,,,10,,,,72,64
181140,note_on,0,0,11,,,,,,,,10,,,,74,45
181140,note_off,360,0,10,,,,,,,,8,,,,76,64
181140,note_on,0,0,10,,,,,,,,8,,,,78,45
181140,note_on,0,0,5,,,,,,,,3,,,,78,60
181140,note_off,360,0,5,,,,,,,,3,,,,76,64
181200,note_on,0,0,1,,,,,,,,0,,,,84,75
181200,note_off,120,0,1,,,,,,,,0,,,,79,64
181200,note_off,120,0,2,,,,,,,,0,,,,67,64
181200,note_off,0,0,2,,,,,,,,0,,,,55,64
181200,note_on,0,0,2,,,,,,,,0,,,,60,60
181200,note_on,0,0,2,,,,,,,,0,,,,72,60
181255,note_off,115,0,10,,,,,,,,8,,,,78,64
181255,note_off,115,0,11,,,,,,,,10,,,,74,64
181255,note_off,115,0,5,,,,,,,,3,,,,78,64
181255,note_off,115,0,6,,,,,,,,4,,,,74,64
181260,note_on,5,0,11,,,,,,,,10,,,,72,45
181260,note_on,5,0,5,,,,,,,,3,,,,76,60
181260,note_on,5,0,6,,,,,,,,4,,,,72,60
181260,note_on,5,0,10,,,,,,,,8,,,,76,45
181320,note_on,0,0,2,,,,,,,,0,,,,67,60
181320,note_off,0,0,2,,,,,,,,0,,,,60,64
181320,note_on,0,0,2,,,,,,,,0,,,,55,60
181320,note_off,120,0,2,,,,,,,,0,,,,72,64
181320,note_off,120,0,1,,,,,,,,0,,,,84,64
181320,note_on,0,0,1,,,,,,,,0,,,,79,75
181360,note_off,2080,0,12,,,,,,,,11,,,,64,64
181360,note_off,2080,0,7,,,,,,,,5,,,,64,64
181440,note_off,120,0,2,,,,,,,,0,,,,67,64
181440,note_off,0,0,2,,,,,,,,0,,,,55,64
181440,note_on,0,0,1,,,,,,,,0,,,,84,75
181440,note_on,0,0,2,,,,,,,,0,,,,72,60
181440,note_off,120,0,1,,,,,,,,0,,,,79,64
181495,note_off,235,0,6,,,,,,,,4,,,,72,64
181495,note_off,235,0,11,,,,,,,,10,,,,72,64
181495,note_off,235,0,5,,,,,,,,3,,,,76,64
181495,note_off,235,0,10,,,,,,,,8,,,,76,64
181500,note_on,140,0,12,,,,,,,,11,,,,72,45
181500,note_on,140,0,7,,,,,,,,5,,,,72,45
181500,note_on,5,0,5,,,,,,,,3,,,,76,60
181500,note_on,5,0,6,,,,,,,,4,,,,72,60
181500,note_on,5,0,11,,,,,,,,10,,,,72,45
181500,note_on,5,0,10,,,,,,,,8,,,,76,45
181900,note_off,1120,0,13,,,,,,,,12,,,,57,64
181900,note_off,1120,0,14,,,,,,,,13,,,,45,64
181900,note_off,1120,0,8,,,,,,,,6,,,,57,64
181900,note_off,1120,0,9,,,,,,,,7,,,,45,64
181980,note_on,80,0,14,,,,,,,,13,,,,45,45
181980,note_on,80,0,13,,,,,,,,12,,,,57,45
181980,note_off,480,0,6,,,,,,,,4,,,,72,64
181980,note_on,80,0,9,,,,,,,,7,,,,45,45
181980,note_on,0,0,10,,,,,,,,8,,,,78,45
181980,note_on,0,0,6,,,,,,,,4,,,,74,60
181980,note_off,480,0,10,,,,,,,,8,,,,76,64
181980,note_off,480,0,11,,,,,,,,10,,,,72,64
181980,note_on,0,0,5,,,,,,,,3,,,,78,60
181980,note_off,480,0,5,,,,,,,,3,,,,76,64
181980,note_on,0,0,11,,,,,,,,10,,,,74,45
181980,note_on,80,0,8,,,,,,,,6,,,,57,45
182060,note_off,80,0,5,,,,,,,,3,,,,78,64
182060,note_off,80,0,6,,,,,,,,4,,,,74,64
182060,note_off,80,0,10,,,,,,,,8,,,,78,64
182060,note_off,80,0,11,,,,,,,,10,,,,74,64
182080,note_off,640,0,1,,,,,,,,0,,,,84,64
182080,note_off,640,0,2,,,,,,,,0,,,,72,64
182215,note_off,235,0,14,,,,,,,,13,,,,45,64
182215,note_off,235,0,13,,,,,,,,12,,,,57,64
182215,note_off,235,0,9,,,,,,,,7,,,,45,64
182215,note_off,235,0,8,,,,,,,,6,,,,57,64
182220,note_on,5,0,8,,,,,,,,6,,,,59,45
182220,note_on,5,0,13,,,,,,,,12,,,,59,45
182220,note_on,160,0,5,,,,,,,,3,,,,76,60
182220,note_on,5,0,14,,,,,,,,13,,,,47,45
182220,note_on,5,0,9,,,,,,,,7,,,,47,45
182220,note_off,720,0,7,,,,,,,,5,,,,72,64
182220,note_on,0,0,7,,,,,,,,5,,,,66,45
182220,note_on,160,0,6,,,,,,,,4,,,,72,60
182220,note_off,720,0,12,,,,,,,,11,,,,72,64
182220,note_on,0,0,12,,,,,,,,11,,,,66,45
182220,note_on,160,0,11,,,,,,,,10,,,,72,45
182220,note_on,160,0,10,,,,,,,,8,,,,76,45
182700,note_on,0,0,14,,,,,,,,13,,,,35,45
182700,note_off,480,0,14,,,,,,,,13,,,,47,64
182700,note_off,480,0,8,,,,,,,,6,,,,59,64
182700,note_on,0,0,8,,,,,,,,6,,,,47,45
182700,note_off,480,0,13,,,,,,,,12,,,,59,64
182700,note_on,0,0,13,,,,,,,,12,,,,47,45
182700,note_on,0,0,9,,,,,,,,7,,,,35,45
182700,note_off,480,0,9,,,,,,,,7,,,,47,64
182935,note_off,235,0,9,,,,,,,,7,,,,35,64
182935,note_off,235,0,8,,,,,,,,6,,,,47,64
182935,note_off,235,0,14,,,,,,,,13,,,,35,64
182935,note_off,235,0,13,,,,,,,,12,,,,47,64
182940,note_off,720,0,5,,,,,,,,3,,,,76,64
182940,note_on,0,0,11,,,,,,,,10,,,,71,45
182940,note_on,0,0,5,,,,,,,,3,,,,75,60
182940,note_off,720,0,11,,,,,,,,10,,,,72,64
182940,note_off,720,0,6,,,,,,,,4,,,,72,64
182940,note_on,5,0,14,,,,,,,,13,,,,35,45
182940,note_on,5,0,13,,,,,,,,12,,,,47,45
182940,note_on,0,0,10,,,,,,,,8,,,,75,45
182940,note_on,5,0,8,,,,,,,,6,,,,47,45
182940,note_off,720,0,10,,,,,,,,8,,,,76,64
182940,note_on,0,0,6,,,,,,,,4,,,,71,60
182940,note_on,5,0,9,,,,,,,,7,,,,35,45
183420,note_off,1200,0,12,,,,,,,,11,,,,66,64
183420,note_off,480,0,14,,,,,,,,13,,,,35,64
183420,note_on,0,0,9,,,,,,,,7,,,,47,45
183420,note_off,1200,0,7,,,,,,,,5,,,,66,64
183420,note_on,0,0,7,,,,,,,,5,,,,71,45
183420,note_off,480,0,9,,,,,,,,7,,,,35,64
183420,note_on,0,0,14,,,,,,,,13,,,,47,45
183420,note_on,0,0,12,,,,,,,,11,,,,71,45
183420,note_on,0,0,8,,,,,,,,6,,,,59,45
183420,note_off,480,0,8,,,,,,,,6,,,,47,64
183420,note_on,0,0,13,,,,,,,,12,,,,59,45
183420,note_off,480,0,13,,,,,,,,12,,,,47,64
183580,note_off,640,0,6,,,,,,,,4,,,,71,64
183580,note_off,640,0,11,,,,,,,,10,,,,71,64
183580,note_off,640,0,10,,,,,,,,8,,,,75,64
183580,note_off,640,0,5,,,,,,,,3,,,,75,64
183655,note_off,235,0,7,,,,,,,,5,,,,71,64
183655,note_off,235,0,8,,,,,,,,6,,,,59,64
183655,note_off,235,0,9,,,,,,,,7,,,,47,64
183655,note_off,235,0,13,,,,,,,,12,,,,59,64
183655,note_off,235,0,12,,,,,,,,11,,,,71,64
183655,note_off,235,0,14,,,,,,,,13,,,,47,64
183720,note_on,140,0,6,,,,,,,,4,,,,74,45
183720,note_on,1640,0,1,,,,,,,,0,,,,76,45
183720,note_on,140,0,5,,,,,,,,3,,,,80,45
183720,note_on,65,0,9,,,,,,,,7,,,,52,60
183720,note_on,1640,0,2,,,,,,,,0,,,,64,45
183720,note_on,140,0,10,,,,,,,,8,,,,80,45
183720,note_on,65,0,13,,,,,,,,12,,,,64,45
183720,note_on,140,0,11,,,,,,,,10,,,,74,45
183720,set_tempo,10920,1,0,500000,,,,,,,,,,,,
183720,note_on,65,0,7,,,,,,,,5,,,,71,45
183720,note_on,65,0,8,,,,,,,,6,,,,64,60
183720,note_on,65,0,14,,,,,,,,13,,,,52,45
183720,note_on,65,0,12,,,,,,,,11,,,,71,45
183960,note_on,0,0,13,,,,,,,,12,,,,62,45
183960,note_on,0,0,8,,,,,,,,6,,,,62,60
183960,note_on,0,0,9,,,,,,,,7,,,,50,60
183960,note_off,240,0,8,,,,,,,,6,,,,64,64
183960,note_off,240,0,2,,,,,,,,0,,,,64,64
183960,note_off,240,0,1,,,,,,,,0,,,,76,64
183960,note_on,0,0,1,,,,,,,,0,,,,74,45
183960,note_on,0,0,2,,,,,,,,0,,,,62,45
183960,note_off,240,0,14,,,,,,,,13,,,,52,64
183960,note_on,0,0,14,,,,,,,,13,,,,50,45
183960,note_off,240,0,9,,,,,,,,7,,,,52,64
183960,note_off,240,0,13,,,,,,,,12,,,,64,64
184200,note_on,0,0,8,,,,,,,,6,,,,64,60
184200,note_on,0,0,2,,,,,,,,0,,,,64,45
184200,note_on,0,0,1,,,,,,,,0,,,,76,45
184200,note_off,240,0,1,,,,,,,,0,,,,74,64
184200,note_off,240,0,14,,,,,,,,13,,,,50,64
184200,note_on,0,0,13,,,,,,,,12,,,,64,45
184200,note_off,240,0,8,,,,,,,,6,,,,62,64
184200,note_off,240,0,2,,,,,,,,0,,,,62,64
184200,note_on,0,0,9,,,,,,,,7,,,,52,60
184200,note_off,240,0,9,,,,,,,,7,,,,50,64
184200,note_on,0,0,14,,,,,,,,13,,,,52,45
184200,note_off,240,0,13,,,,,,,,12,,,,62,64
184280,note_off,80,0,13,,,,,,,,12,,,,64,64
184280,note_off,80,0,1,,,,,,,,0,,,,76,64
184280,note_off,80,0,8,,,,,,,,6,,,,64,64
184280,note_off,80,0,9,,,,,,,,7,,,,52,64
184280,note_off,80,0,14,,,,,,,,13,,,,52,64
184280,note_off,80,0,2,,,,,,,,0,,,,64,64
184440,note_on,160,0,14,,,,,,,,13,,,,44,45
184440,note_on,160,0,9,,,,,,,,7,,,,44,60
184440,note_on,160,0,8,,,,,,,,6,,,,56,60
184440,note_on,160,0,13,,,,,,,,12,,,,56,45
184440,note_on,160,0,1,,,,,,,,0,,,,68,45
184440,note_on,160,0,2,,,,,,,,0,,,,56,45
184680,note_on,0,0,14,,,,,,,,13,,,,42,45
184680,note_off,240,0,8,,,,,,,,6,,,,56,64
184680,note_off,240,0,14,,,,,,,,13,,,,44,64
184680,note_off,240,0,1,,,,,,,,0,,,,68,64
184680,note_on,0,0,2,,,,,,,,0,,,,54,45
184680,note_on,0,0,8,,,,,,,,6,,,,54,60
184680,note_on,0,0,9,,,,,,,,7,,,,42,60
184680,note_off,240,0,9,,,,,,,,7,,,,44,64
184680,note_off,240,0,13,,,,,,,,12,,,,56,64
184680,note_on,0,0,13,,,,,,,,12,,,,54,45
184680,note_off,240,0,2,,,,,,,,0,,,,56,64
184680,note_on,0,0,1,,,,,,,,0,,,,66,45
184920,note_off,1200,0,7,,,,,,,,5,,,,71,64
184920,note_on,0,0,7,,,,,,,,5,,,,68,45
184920,note_off,240,0,2,,,,,,,,0,,,,54,64
184920,note_on,0,0,2,,,,,,,,0,,,,52,45
184920,note_on,0,0,12,,,,,,,,11,,,,68,45
184920,note_off,1200,0,12,,,,,,,,11,,,,71,64
184920,note_off,240,0,13,,,,,,,,12,,,,54,64
184920,note_on,0,0,13,,,,,,,,12,,,,52,45
184920,note_off,240,0,8,,,,,,,,6,,,,54,64
184920,note_on,0,0,1,,,,,,,,0,,,,64,45
184920,note_on,0,0,8,,,,,,,,6,,,,52,60
184920,note_on,0,0,9,,,,,,,,7,,,,40,60
184920,note_on,0,0,14,,,,,,,,13,,,,40,45
184920,note_off,240,0,9,,,,,,,,7,,,,42,64
184920,note_off,240,0,1,,,,,,,,0,,,,66,64
184920,note_off,240,0,14,,,,,,,,13,,,,42,64
185000,note_off,80,0,9,,,,,,,,7,,,,40,64
185000,note_off,80,0,13,,,,,,,,12,,,,52,64
185000,note_off,80,0,2,,,,,,,,0,,,,52,64
185000,note_off,80,0,1,,,,,,,,0,,,,64,64
185000,note_off,80,0,8,,,,,,,,6,,,,52,64
185000,note_off,80,0,14,,,,,,,,13,,,,40,64
185160,note_on,0,0,12,,,,,,,,11,,,,64,45
185160,note_on,0,0,7,,,,,,,,5,,,,64,45
185160,note_off,240,0,7,,,,,,,,5,,,,68,64
185160,note_on,160,0,8,,,,,,,,6,,,,57,60
185160,note_off,1440,0,5,,,,,,,,3,,,,80,64
185160,note_on,0,0,5,,,,,,,,3,,,,81,45
185160,note_on,0,0,11,,,,,,,,10,,,,72,45
185160,note_off,1440,0,11,,,,,,,,10,,,,74,64
185160,note_on,160,0,2,,,,,,,,0,,,,57,45
185160,note_off,1440,0,6,,,,,,,,4,,,,74,64
185160,note_on,160,0,13,,,,,,,,12,,,,57,45
185160,note_on,160,0,1,,,,,,,,0,,,,69,45
185160,note_on,160,0,9,,,,,,,,7,,,,45,60
185160,note_off,1440,0,10,,,,,,,,8,,,,80,64
185160,note_on,0,0,10,,,,,,,,8,,,,81,45
185160,note_on,0,0,6,,,,,,,,4,,,,72,45
185160,note_off,240,0,12,,,,,,,,11,,,,68,64
185160,note_on,160,0,14,,,,,,,,13,,,,45,45
185400,note_off,240,0,1,,,,,,,,0,,,,69,64
185400,note_on,0,0,1,,,,,,,,0,,,,68,45
185400,note_off,240,0,9,,,,,,,,7,,,,45,64
185400,note_off,240,0,13,,,,,,,,12,,,,57,64
185400,note_off,240,0,14,,,,,,,,13,,,,45,64
185400,note_on,0,0,2,,,,,,,,0,,,,56,45
185400,note_off,240,0,8,,,,,,,,6,,,,57,64
185400,note_on,0,0,9,,,,,,,,7,,,,44,60
185400,note_on,0,0,8,,,,,,,,6,,,,56,60
185400,note_on,0,0,14,,,,,,,,13,,,,44,45
185400,note_on,0,0,13,,,,,,,,12,,,,56,45
185400,note_off,240,0,2,,,,,,,,0,,,,57,64
185640,note_off,240,0,8,,,,,,,,6,,,,56,64
185640,note_on,0,0,8,,,,,,,,6,,,,57,60
185640,note_on,0,0,14,,,,,,,,13,,,,45,45
185640,note_on,0,0,2,,,,,,,,0,,,,57,45
185640,note_off,240,0,2,,,,,,,,0,,,,56,64
185640,note_off,240,0,13,,,,,,,,12,,,,56,64
185640,note_on,0,0,1,,,,,,,,0,,,,69,45
185640,note_off,240,0,1,,,,,,,,0,,,,68,64
185640,note_on,0,0,9,,,,,,,,7,,,,45,60
185640,note_off,240,0,9,,,,,,,,7,,,,44,64
185640,note_on,0,0,13,,,,,,,,12,,,,57,45
185640,note_off,240,0,14,,,,,,,,13,,,,44,64
185720,note_off,80,0,1,,,,,,,,0,,,,69,64
185720,note_off,80,0,2,,,,,,,,0,,,,57,64
185720,note_off,80,0,14,,,,,,,,13,,,,45,64
185720,note_off,80,0,8,,,,,,,,6,,,,57,64
185720,note_off,80,0,9,,,,,,,,7,,,,45,64
185720,note_off,80,0,13,,,,,,,,12,,,,57,64
185880,note_on,160,0,2,,,,,,,,0,,,,48,45
185880,note_on,160,0,9,,,,,,,,7,,,,36,60
185880,note_on,160,0,14,,,,,,,,13,,,,36,45
185880,note_on,160,0,8,,,,,,,,6,,,,48,60
185880,note_on,160,0,1,,,,,,,,0,,,,60,45
185880,note_on,160,0,13,,,,,,,,12,,,,48,45
186120,note_off,240,0,1,,,,,,,,0,,,,60,64
186120,note_on,0,0,8,,,,,,,,6,,,,47,60
186120,note_on,0,0,9,,,,,,,,7,,,,35,60
186120,note_off,240,0,9,,,,,,,,7,,,,36,64
186120,note_off,240,0,2,,,,,,,,0,,,,48,64
186120,note_on,0,0,2,,,,,,,,0,,,,47,45
186120,note_on,0,0,13,,,,,,,,12,,,,47,45
186120,note_off,240,0,8,,,,,,,,6,,,,48,64
186120,note_off,240,0,14,,,,,,,,13,,,,36,64
186120,note_on,0,0,14,,,,,,,,13,,,,35,45
186120,note_off,240,0,13,,,,,,,,12,,,,48,64
186120,note_on,0,0,1,,,,,,,,0,,,,59,45
186360,note_off,240,0,2,,,,,,,,0,,,,47,64
186360,note_on,0,0,2,,,,,,,,0,,,,45,45
186360,note_off,240,0,14,,,,,,,,13,,,,35,64
186360,note_off,240,0,8,,,,,,,,6,,,,47,64
186360,note_on,0,0,1,,,,,,,,0,,,,57,45
186360,note_off,240,0,1,,,,,,,,0,,,,59,64
186360,note_off,1200,0,12,,,,,,,,11,,,,64,64
186360,note_off,1200,0,7,,,,,,,,5,,,,64,64
186360,note_on,0,0,14,,,,,,,,13,,,,33,45
186360,note_on,0,0,8,,,,,,,,6,,,,45,60
186360,note_on,0,0,9,,,,,,,,7,,,,33,60
186360,note_off,240,0,9,,,,,,,,7,,,,35,64
186360,note_on,0,0,13,,,,,,,,12,,,,45,45
186360,note_off,240,0,13,,,,,,,,12,,,,47,64
186360,note_on,0,0,7,,,,,,,,5,,,,69,45
186360,note_on,0,0,12,,,,,,,,11,,,,69,45
186440,note_off,80,0,8,,,,,,,,6,,,,45,64
186440,note_off,80,0,13,,,,,,,,12,,,,45,64
186440,note_off,80,0,1,,,,,,,,0,,,,57,64
186440,note_off,80,0,9,,,,,,,,7,,,,33,64
186440,note_off,80,0,2,,,,,,,,0,,,,45,64
186440,note_off,80,0,14,,,,,,,,13,,,,33,64
186600,note_on,160,0,2,,,,,,,,0,,,,62,45
186600,note_on,160,0,1,,,,,,,,0,,,,74,45
186600,note_off,1440,0,5,,,,,,,,3,,,,81,64
186600,note_on,0,0,5,,,,,,,,3,,,,78,45
186600,note_on,0,0,10,,,,,,,,8,,,,78,45
186600,note_off,240,0,12,,,,,,,,11,,,,69,64
186600,note_on,160,0,9,,,,,,,,7,,,,50,60
186600,note_on,0,0,12,,,,,,,,11,,,,69,45
186600,note_on,160,0,14,,,,,,,,13,,,,50,45
186600,note_on,160,0,13,,,,,,,,12,,,,62,45
186600,note_on,160,0,8,,,,,,,,6,,,,62,60
186600,note_off,240,0,7,,,,,,,,5,,,,69,64
186600,note_on,0,0,7,,,,,,,,5,,,,69,45
186600,note_off,1440,0,10,,,,,,,,8,,,,81,64
186840,note_off,240,0,13,,,,,,,,12,,,,62,64
186840,note_on,0,0,9,,,,,,,,7,,,,48,60
186840,note_off,240,0,8,,,,,,,,6,,,,62,64
186840,note_on,0,0,8,,,,,,,,6,,,,60,60
186840,note_off,240,0,1,,,,,,,,0,,,,74,64
186840,note_on,0,0,1,,,,,,,,0,,,,72,45
186840,note_off,240,0,9,,,,,,,,7,,,,50,64
186840,note_on,0,0,13,,,,,,,,12,,,,60,45
186840,note_off,240,0,14,,,,,,,,13,,,,50,64
186840,note_on,0,0,14,,,,,,,,13,,,,48,45
186840,note_off,240,0,2,,,,,,,,0,,,,62,64
186840,note_on,0,0,2,,,,,,,,0,,,,60,45
187080,note_off,240,0,9,,,,,,,,7,,,,48,64
187080,note_off,240,0,8,,,,,,,,6,,,,60,64
187080,note_on,0,0,1,,,,,,,,0,,,,74,45
187080,note_off,240,0,1,,,,,,,,0,,,,72,64
187080,note_off,240,0,14,,,,,,,,13,,,,48,64
187080,note_on,0,0,14,,,,,,,,13,,,,50,45
187080,note_on,0,0,2,,,,,,,,0,,,,62,45
187080,note_on,0,0,9,,,,,,,,7,,,,50,60
187080,note_on,0,0,8,,,,,,,,6,,,,62,60
187080,note_off,240,0,2,,,,,,,,0,,,,60,64
187080,note_on,0,0,13,,,,,,,,12,,,,62,45
187080,note_off,240,0,13,,,,,,,,12,,,,60,64
187160,note_off,80,0,2,,,,,,,,0,,,,62,64
187160,note_off,80,0,14,,,,,,,,13,,,,50,64
187160,note_off,80,0,1,,,,,,,,0,,,,74,64
187160,note_off,80,0,13,,,,,,,,12,,,,62,64
187160,note_off,80,0,8,,,,,,,,6,,,,62,64
187160,note_off,80,0,9,,,,,,,,7,,,,50,64
187320,note_on,160,0,8,,,,,,,,6,,,,54,60
187320,note_on,160,0,1,,,,,,,,0,,,,66,45
187320,note_on,160,0,2,,,,,,,,0,,,,54,45
187320,note_on,160,0,9,,,,,,,,7,,,,42,60
187320,note_on,160,0,13,,,,,,,,12,,,,54,45
187320,note_on,160,0,14,,,,,,,,13,,,,42,45
187560,note_on,0,0,1,,,,,,,,0,,,,64,45
187560,note_off,240,0,1,,,,,,,,0,,,,66,64
187560,note_on,0,0,9,,,,,,,,7,,,,40,60
187560,note_off,240,0,9,,,,,,,,7,,,,42,64
187560,note_off,240,0,14,,,,,,,,13,,,,42,64
187560,note_off,240,0,8,,,,,,,,6,,,,54,64
187560,note_off,240,0,13,,,,,,,,12,,,,54,64
187560,note_on,0,0,13,,,,,,,,12,,,,52,45
187560,note_on,0,0,2,,,,,,,,0,,,,52,45
187560,note_off,240,0,2,,,,,,,,0,,,,54,64
187560,note_on,0,0,14,,,,,,,,13,,,,40,45
187560,note_on,0,0,8,,,,,,,,6,,,,52,60
187800,note_off,1200,0,12,,,,,,,,11,,,,69,64
187800,note_off,1200,0,7,,,,,,,,5,,,,69,64
187800,note_on,0,0,14,,,,,,,,13,,,,38,45
187800,note_on,0,0,1,,,,,,,,0,,,,62,45
187800,note_off,240,0,1,,,,,,,,0,,,,64,64
187800,note_on,0,0,8,,,,,,,,6,,,,50,60
187800,note_on,0,0,12,,,,,,,,11,,,,66,45
187800,note_on,0,0,9,,,,,,,,7,,,,38,60
187800,note_off,240,0,9,,,,,,,,7,,,,40,64
187800,note_off,240,0,2,,,,,,,,0,,,,52,64
187800,note_on,0,0,2,,,,,,,,0,,,,50,45
187800,note_off,240,0,8,,,,,,,,6,,,,52,64
187800,note_off,240,0,14,,,,,,,,13,,,,40,64
187800,note_on,0,0,7,,,,,,,,5,,,,66,45
187800,note_off,240,0,13,,,,,,,,12,,,,52,64
187800,note_on,0,0,13,,,,,,,,12,,,,50,45
187880,note_off,80,0,2,,,,,,,,0,,,,50,64
187880,note_off,80,0,14,,,,,,,,13,,,,38,64
187880,note_off,80,0,13,,,,,,,,12,,,,50,64
187880,note_off,80,0,1,,,,,,,,0,,,,62,64
187880,note_off,80,0,8,,,,,,,,6,,,,50,64
187880,note_off,80,0,9,,,,,,,,7,,,,38,64
188040,note_on,160,0,1,,,,,,,,0,,,,67,45
188040,note_on,160,0,13,,,,,,,,12,,,,55,45
188040,note_on,160,0,8,,,,,,,,6,,,,55,60
188040,note_on,0,0,5,,,,,,,,3,,,,79,45
188040,note_on,160,0,2,,,,,,,,0,,,,55,45
188040,note_off,1440,0,5,,,,,,,,3,,,,78,64
188040,note_on,0,0,11,,,,,,,,10,,,,71,45
188040,note_on,0,0,7,,,,,,,,5,,,,62,45
188040,note_off,240,0,12,,,,,,,,11,,,,66,64
188040,note_on,0,0,10,,,,,,,,8,,,,79,45
188040,note_off,1440,0,10,,,,,,,,8,,,,78,64
188040,note_on,160,0,14,,,,,,,,13,,,,43,45
188040,note_on,0,0,12,,,,,,,,11,,,,62,45
188040,note_on,160,0,9,,,,,,,,7,,,,43,60
188040,note_off,240,0,7,,,,,,,,5,,,,66,64
188040,note_on,0,0,6,,,,,,,,4,,,,71,45
188040,note_off,2880,0,6,,,,,,,,4,,,,72,64
188040,note_off,2880,0,11,,,,,,,,10,,,,72,64
188280,note_off,240,0,8,,,,,,,,6,,,,55,64
188280,note_on,0,0,2,,,,,,,,0,,,,54,46
188280,note_off,240,0,2,,,,,,,,0,,,,55,64
188280,note_on,0,0,1,,,,,,,,0,,,,66,46
188280,note_on,0,0,9,,,,,,,,7,,,,42,61
188280,note_off,240,0,1,,,,,,,,0,,,,67,64
188280,note_off,240,0,9,,,,,,,,7,,,,43,64
188280,note_on,0,0,8,,,,,,,,6,,,,54,61
188280,note_off,240,0,13,,,,,,,,12,,,,55,64
188280,note_off,240,0,14,,,,,,,,13,,,,43,64
188280,note_on,0,0,14,,,,,,,,13,,,,42,46
188280,note_on,0,0,13,,,,,,,,12,,,,54,46
188520,note_on,0,0,2,,,,,,,,0,,,,55,47
188520,note_on,0,0,9,,,,,,,,7,,,,43,62
188520,note_off,240,0,9,,,,,,,,7,,,,42,64
188520,note_off,240,0,1,,,,,,,,0,,,,66,64
188520,note_on,0,0,1,,,,,,,,0,,,,67,47
188520,note_off,240,0,2,,,,,,,,0,,,,54,64
188520,note_on,0,0,14,,,,,,,,13,,,,43,47
188520,note_on,0,0,8,,,,,,,,6,,,,55,62
188520,note_off,240,0,8,,,,,,,,6,,,,54,64
188520,note_on,0,0,13,,,,,,,,12,,,,55,47
188520,note_off,240,0,14,,,,,,,,13,,,,42,64
188520,note_off,240,0,13,,,,,,,,12,,,,54,64
188600,note_off,80,0,13,,,,,,,,12,,,,55,64
188600,note_off,80,0,2,,,,,,,,0,,,,55,64
188600,note_off,80,0,8,,,,,,,,6,,,,55,64
188600,note_off,80,0,14,,,,,,,,13,,,,43,64
188600,note_off,80,0,9,,,,,,,,7,,,,43,64
188600,note_off,80,0,1,,,,,,,,0,,,,67,64
188760,note_on,160,0,13,,,,,,,,12,,,,47,48
188760,note_on,160,0,1,,,,,,,,0,,,,59,48
188760,note_on,160,0,14,,,,,,,,13,,,,35,48
188760,note_on,160,0,9,,,,,,,,7,,,,35,63
188760,note_on,160,0,8,,,,,,,,6,,,,47,63
188760,note_on,160,0,2,,,,,,,,0,,,,47,48
189000,note_on,0,0,14,,,,,,,,13,,,,33,49
189000,note_off,240,0,1,,,,,,,,0,,,,59,64
189000,note_off,240,0,14,,,,,,,,13,,,,35,64
189000,note_on,0,0,1,,,,,,,,0,,,,57,49
189000,note_off,240,0,13,,,,,,,,12,,,,47,64
189000,note_on,0,0,2,,,,,,,,0,,,,45,49
189000,note_off,240,0,2,,,,,,,,0,,,,47,64
189000,note_on,0,0,9,,,,,,,,7,,,,33,64
189000,note_on,0,0,8,,,,,,,,6,,,,45,64
189000,note_off,240,0,8,,,,,,,,6,,,,47,64
189000,note_on,0,0,13,,,,,,,,12,,,,45,49
189000,note_off,240,0,9,,,,,,,,7,,,,35,64
189240,note_on,0,0,12,,,,,,,,11,,,,67,50
189240,note_on,0,0,7,,,,,,,,5,,,,67,54
189240,note_off,1200,0,12,,,,,,,,11,,,,62,64
189240,note_on,0,0,13,,,,,,,,12,,,,43,50
189240,note_off,1200,0,7,,,,,,,,5,,,,62,64
189240,note_on,0,0,14,,,,,,,,13,,,,31,50
189240,note_on,0,0,9,,,,,,,,7,,,,31,65
189240,note_off,240,0,14,,,,,,,,13,,,,33,64
189240,note_on,0,0,2,,,,,,,,0,,,,43,50
189240,note_off,240,0,2,,,,,,,,0,,,,45,64
189240,note_off,240,0,8,,,,,,,,6,,,,45,64
189240,note_off,240,0,13,,,,,,,,12,,,,45,64
189240,note_on,0,0,1,,,,,,,,0,,,,55,50
189240,note_off,240,0,1,,,,,,,,0,,,,57,64
189240,note_off,240,0,9,,,,,,,,7,,,,33,64
189240,note_on,0,0,8,,,,,,,,6,,,,43,65
189320,note_off,80,0,2,,,,,,,,0,,,,43,64
189320,note_off,80,0,8,,,,,,,,6,,,,43,64
189320,note_off,80,0,13,,,,,,,,12,,,,43,64
189320,note_off,80,0,9,,,,,,,,7,,,,31,64
189320,note_off,80,0,14,,,,,,,,13,,,,31,64
189320,note_off,80,0,1,,,,,,,,0,,,,55,64
189480,note_on,0,0,12,,,,,,,,11,,,,67,51
189480,note_off,240,0,12,,,,,,,,11,,,,67,64
189480,note_on,160,0,1,,,,,,,,0,,,,72,51
189480,note_on,160,0,13,,,,,,,,12,,,,60,51
189480,note_off,1440,0,10,,,,,,,,8,,,,79,64
189480,note_off,240,0,7,,,,,,,,5,,,,67,64
189480,note_on,0,0,7,,,,,,,,5,,,,67,56
189480,note_on,160,0,14,,,,,,,,13,,,,48,51
189480,note_on,160,0,2,,,,,,,,0,,,,60,51
189480,note_on,160,0,8,,,,,,,,6,,,,60,66
189480,note_off,1440,0,5,,,,,,,,3,,,,79,64
189480,note_on,0,0,10,,,,,,,,8,,,,76,52
189480,note_off,1440,0,6,,,,,,,,4,,,,71,64
189480,note_on,0,0,6,,,,,,,,4,,,,79,60
189480,note_off,1440,0,11,,,,,,,,10,,,,71,64
189480,note_on,0,0,11,,,,,,,,10,,,,79,52
189480,note_on,0,0,5,,,,,,,,3,,,,76,60
189480,note_on,160,0,9,,,,,,,,7,,,,48,66
189720,note_off,240,0,9,,,,,,,,7,,,,48,64
189720,note_on,0,0,9,,,,,,,,7,,,,47,67
189720,note_off,240,0,2,,,,,,,,0,,,,60,64
189720,note_on,0,0,2,,,,,,,,0,,,,59,52
189720,note_on,0,0,14,,,,,,,,13,,,,47,52
189720,note_off,240,0,14,,,,,,,,13,,,,48,64
189720,note_off,240,0,1,,,,,,,,0,,,,72,64
189720,note_on,0,0,1,,,,,,,,0,,,,71,52
189720,note_off,240,0,13,,,,,,,,12,,,,60,64
189720,note_off,240,0,8,,,,,,,,6,,,,60,64
189720,note_on,0,0,8,,,,,,,,6,,,,59,67
189720,note_on,0,0,13,,,,,,,,12,,,,59,52
189960,note_off,240,0,2,,,,,,,,0,,,,59,64
189960,note_on,0,0,9,,,,,,,,7,,,,48,68
189960,note_off,240,0,9,,,,,,,,7,,,,47,64
189960,note_on,0,0,1,,,,,,,,0,,,,72,53
189960,note_on,0,0,14,,,,,,,,13,,,,48,53
189960,note_off,240,0,14,,,,,,,,13,,,,47,64
189960,note_off,240,0,8,,,,,,,,6,,,,59,64
189960,note_on,0,0,8,,,,,,,,6,,,,60,68
189960,note_off,240,0,1,,,,,,,,0,,,,71,64
189960,note_on,0,0,13,,,,,,,,12,,,,60,53
189960,note_on,0,0,2,,,,,,,,0,,,,60,53
189960,note_off,240,0,13,,,,,,,,12,,,,59,64
190040,note_off,80,0,9,,,,,,,,7,,,,48,64
190040,note_off,80,0,13,,,,,,,,12,,,,60,64
190040,note_off,80,0,2,,,,,,,,0,,,,60,64
190040,note_off,80,0,14,,,,,,,,13,,,,48,64
190040,note_off,80,0,8,,,,,,,,6,,,,60,64
190040,note_off,80,0,1,,,,,,,,0,,,,72,64
190200,note_on,160,0,13,,,,,,,,12,,,,52,54
190200,note_on,160,0,1,,,,,,,,0,,,,64,54
190200,note_on,160,0,9,,,,,,,,7,,,,40,69
190200,note_on,160,0,14,,,,,,,,13,,,,40,54
190200,note_on,160,0,2,,,,,,,,0,,,,52,54
190200,note_on,160,0,8,,,,,,,,6,,,,52,69
190440,note_off,240,0,9,,,,,,,,7,,,,40,64
190440,note_on,0,0,9,,,,,,,,7,,,,38,70
190440,note_off,240,0,14,,,,,,,,13,,,,40,64
190440,note_on,0,0,14,,,,,,,,13,,,,38,55
190440,note_off,240,0,8,,,,,,,,6,,,,52,64
190440,note_off,240,0,13,,,,,,,,12,,,,52,64
190440,note_on,0,0,1,,,,,,,,0,,,,62,55
190440,note_off,240,0,1,,,,,,,,0,,,,64,64
190440,note_off,240,0,2,,,,,,,,0,,,,52,64
190440,note_on,0,0,13,,,,,,,,12,,,,50,55
190440,note_on,0,0,2,,,,,,,,0,,,,50,55
190440,note_on,0,0,8,,,,,,,,6,,,,50,70
190680,note_off,240,0,8,,,,,,,,6,,,,50,64
190680,note_on,0,0,2,,,,,,,,0,,,,48,56
190680,note_on,0,0,13,,,,,,,,12,,,,48,56
190680,note_on,0,0,8,,,,,,,,6,,,,48,71
190680,note_off,240,0,2,,,,,,,,0,,,,50,64
190680,note_on,0,0,9,,,,,,,,7,,,,36,71
190680,note_off,240,0,14,,,,,,,,13,,,,38,64
190680,note_off,240,0,9,,,,,,,,7,,,,38,64
190680,note_off,240,0,13,,,,,,,,12,,,,50,64
190680,note_off,1200,0,7,,,,,,,,5,,,,67,64
190680,note_on,0,0,1,,,,,,,,0,,,,60,56
190680,note_off,240,0,1,,,,,,,,0,,,,62,64
190680,note_on,0,0,7,,,,,,,,5,,,,64,66
190680,note_on,0,0,12,,,,,,,,11,,,,64,57
190680,note_on,0,0,14,,,,,,,,13,,,,36,56
190680,note_off,1200,0,12,,,,,,,,11,,,,67,64
190760,note_off,80,0,9,,,,,,,,7,,,,36,64
190760,note_off,80,0,14,,,,,,,,13,,,,36,64
190760,note_off,80,0,8,,,,,,,,6,,,,48,64
190760,note_off,80,0,1,,,,,,,,0,,,,60,64
190760,note_off,80,0,2,,,,,,,,0,,,,48,64
190760,note_off,80,0,13,,,,,,,,12,,,,48,64
190920,note_on,160,0,13,,,,,,,,12,,,,57,57
190920,note_off,1440,0,10,,,,,,,,8,,,,76,64
190920,note_on,160,0,8,,,,,,,,6,,,,57,72
190920,note_on,160,0,9,,,,,,,,7,,,,45,72
190920,note_on,0,0,10,,,,,,,,8,,,,77,59
190920,note_on,0,0,6,,,,,,,,4,,,,72,76
190920,note_on,160,0,1,,,,,,,,0,,,,69,57
190920,note_on,160,0,14,,,,,,,,13,,,,45,57
190920,note_on,0,0,7,,,,,,,,5,,,,60,68
190920,note_off,240,0,7,,,,,,,,5,,,,64,64
190920,set_tempo,7200,1,0,508474,,,,,,,,,,,,
190920,note_off,1440,0,5,,,,,,,,3,,,,76,64
190920,note_on,0,0,5,,,,,,,,3,,,,77,76
190920,note_off,1440,0,6,,,,,,,,4,,,,79,64
190920,note_on,0,0,12,,,,,,,,11,,,,60,58
190920,note_on,160,0,2,,,,,,,,0,,,,57,57
190920,note_off,240,0,12,,,,,,,,11,,,,64,64
190920,note_on,0,0,11,,,,,,,,10,,,,72,59
190920,note_off,1440,0,11,,,,,,,,10,,,,79,64
191160,note_on,0,0,1,,,,,,,,0,,,,68,58
191160,note_off,240,0,9,,,,,,,,7,,,,45,64
191160,note_on,0,0,9,,,,,,,,7,,,,44,73
191160,note_off,240,0,1,,,,,,,,0,,,,69,64
191160,note_on,0,0,2,,,,,,,,0,,,,56,58
191160,note_off,240,0,8,,,,,,,,6,,,,57,64
191160,note_on,0,0,8,,,,,,,,6,,,,56,73
191160,note_off,240,0,14,,,,,,,,13,,,,45,64
191160,note_on,0,0,14,,,,,,,,13,,,,44,58
191160,note_on,0,0,13,,,,,,,,12,,,,56,58
191160,note_off,240,0,13,,,,,,,,12,,,,57,64
191160,note_off,240,0,2,,,,,,,,0,,,,57,64
191400,note_off,240,0,14,,,,,,,,13,,,,44,64
191400,note_on,0,0,14,,,,,,,,13,,,,45,59
191400,note_off,240,0,9,,,,,,,,7,,,,44,64
191400,note_on,0,0,9,,,,,,,,7,,,,45,74
191400,note_on,0,0,1,,,,,,,,0,,,,69,59
191400,note_off,240,0,2,,,,,,,,0,,,,56,64
191400,note_off,240,0,1,,,,,,,,0,,,,68,64
191400,note_off,240,0,13,,,,,,,,12,,,,56,64
191400,note_on,0,0,13,,,,,,,,12,,,,57,59
191400,note_on,0,0,8,,,,,,,,6,,,,57,74
191400,note_on,0,0,2,,,,,,,,0,,,,57,59
191400,note_off,240,0,8,,,,,,,,6,,,,56,64
191480,note_off,80,0,14,,,,,,,,13,,,,45,64
191480,note_off,80,0,8,,,,,,,,6,,,,57,64
191480,note_off,80,0,13,,,,,,,,12,,,,57,64
191480,note_off,80,0,2,,,,,,,,0,,,,57,64
191480,note_off,80,0,1,,,,,,,,0,,,,69,64
191480,note_off,80,0,9,,,,,,,,7,,,,45,64
191640,note_on,160,0,13,,,,,,,,12,,,,59,60
191640,note_on,160,0,2,,,,,,,,0,,,,59,60
191640,note_off,720,0,7,,,,,,,,5,,,,60,64
191640,note_on,0,0,7,,,,,,,,5,,,,59,74
191640,note_on,160,0,14,,,,,,,,13,,,,47,60
191640,note_on,160,0,1,,,,,,,,0,,,,71,60
191640,note_off,720,0,10,,,,,,,,8,,,,77,64
191640,note_off,720,0,11,,,,,,,,10,,,,72,64
191640,note_on,0,0,12,,,,,,,,11,,,,59,62
191640,note_off,720,0,12,,,,,,,,11,,,,60,64
191640,note_off,720,0,5,,,,,,,,3,,,,77,64
191640,note_on,0,0,5,,,,,,,,3,,,,80,84
191640,set_tempo,720,1,0,517241,,,,,,,,,,,,
191640,note_on,0,0,10,,,,,,,,8,,,,80,63
191640,note_on,0,0,6,,,,,,,,4,,,,74,84
191640,note_off,720,0,6,,,,,,,,4,,,,72,64
191640,note_on,160,0,8,,,,,,,,6,,,,59,75
191640,note_on,160,0,9,,,,,,,,7,,,,47,75
191640,note_on,0,0,11,,,,,,,,10,,,,74,63
191880,note_off,240,0,9,,,,,,,,7,,,,47,64
191880,note_off,240,0,1,,,,,,,,0,,,,71,64
191880,note_on,0,0,13,,,,,,,,12,,,,57,61
191880,note_off,240,0,13,,,,,,,,12,,,,59,64
191880,note_on,0,0,14,,,,,,,,13,,,,45,61
191880,note_on,0,0,2,,,,,,,,0,,,,57,61
191880,note_off,240,0,2,,,,,,,,0,,,,59,64
191880,note_on,0,0,9,,,,,,,,7,,,,45,76
191880,note_on,0,0,8,,,,,,,,6,,,,57,76
191880,note_off,240,0,14,,,,,,,,13,,,,47,64
191880,note_off,240,0,8,,,,,,,,6,,,,59,64
191880,note_on,0,0,1,,,,,,,,0,,,,69,61
192120,note_on,0,0,9,,,,,,,,7,,,,47,78
192120,note_on,0,0,14,,,,,,,,13,,,,47,62
192120,note_off,240,0,9,,,,,,,,7,,,,45,64
192120,note_on,0,0,13,,,,,,,,12,,,,59,62
192120,note_off,240,0,13,,,,,,,,12,,,,57,64
192120,note_off,240,0,14,,,,,,,,13,,,,45,64
192120,note_on,0,0,2,,,,,,,,0,,,,59,62
192120,note_on,0,0,1,,,,,,,,0,,,,71,62
192120,note_off,240,0,1,,,,,,,,0,,,,69,64
192120,note_off,240,0,2,,,,,,,,0,,,,57,64
192120,note_off,240,0,8,,,,,,,,6,,,,57,64
192120,note_on,0,0,8,,,,,,,,6,,,,59,78
192200,note_off,80,0,1,,,,,,,,0,,,,71,64
192200,note_off,80,0,14,,,,,,,,13,,,,47,64
192200,note_off,80,0,13,,,,,,,,12,,,,59,64
192200,note_off,80,0,8,,,,,,,,6,,,,59,64
192200,note_off,80,0,9,,,,,,,,7,,,,47,64
192200,note_off,80,0,2,,,,,,,,0,,,,59,64
192360,note_on,0,0,7,,,,,,,,5,,,,69,80
192360,note_on,160,0,14,,,,,,,,13,,,,48,63
192360,note_on,0,0,10,,,,,,,,8,,,,81,67
192360,note_on,0,0,12,,,,,,,,11,,,,69,66
192360,note_off,720,0,12,,,,,,,,11,,,,59,64
192360,note_on,160,0,13,,,,,,,,12,,,,60,63
192360,note_on,160,0,8,,,,,,,,6,,,,60,80
192360,note_on,160,0,1,,,,,,,,0,,,,72,63
192360,note_on,0,0,5,,,,,,,,3,,,,81,92
192360,note_off,720,0,7,,,,,,,,5,,,,59,64
192360,note_off,720,0,10,,,,,,,,8,,,,80,64
192360,note_on,0,0,11,,,,,,,,10,,,,76,67
192360,note_off,720,0,11,,,,,,,,10,,,,74,64
192360,note_on,160,0,9,,,,,,,,7,,,,48,80
192360,note_off,720,0,6,,,,,,,,4,,,,74,64
192360,note_off,720,0,5,,,,,,,,3,,,,80,64
192360,note_on,160,0,2,,,,,,,,0,,,,60,63
192360,note_on,0,0,6,,,,,,,,4,,,,76,92
192600,note_off,240,0,9,,,,,,,,7,,,,48,64
192600,note_on,0,0,9,,,,,,,,7,,,,47,82
192600,note_off,240,0,2,,,,,,,,0,,,,60,64
192600,note_off,240,0,13,,,,,,,,12,,,,60,64
192600,note_on,0,0,8,,,,,,,,6,,,,59,82
192600,note_on,0,0,1,,,,,,,,0,,,,71,65
192600,note_off,240,0,1,,,,,,,,0,,,,72,64
192600,note_off,240,0,8,,,,,,,,6,,,,60,64
192600,note_off,240,0,14,,,,,,,,13,,,,48,64
192600,note_on,0,0,2,,,,,,,,0,,,,59,65
192600,note_on,0,0,13,,,,,,,,12,,,,59,65
192600,note_on,0,0,14,,,,,,,,13,,,,47,65
192840,note_off,240,0,9,,,,,,,,7,,,,47,64
192840,note_off,240,0,8,,,,,,,,6,,,,59,64
192840,note_on,0,0,13,,,,,,,,12,,,,60,67
192840,note_on,0,0,14,,,,,,,,13,,,,48,67
192840,note_off,240,0,14,,,,,,,,13,,,,47,64
192840,note_on,0,0,8,,,,,,,,6,,,,60,84
192840,note_off,240,0,13,,,,,,,,12,,,,59,64
192840,note_on,0,0,9,,,,,,,,7,,,,48,84
192840,note_off,240,0,2,,,,,,,,0,,,,59,64
192840,note_on,0,0,2,,,,,,,,0,,,,60,67
192840,note_off,240,0,1,,,,,,,,0,,,,71,64
192840,note_on,0,0,1,,,,,,,,0,,,,72,67
192920,note_off,80,0,13,,,,,,,,12,,,,60,64
192920,note_off,80,0,9,,,,,,,,7,,,,48,64
192920,note_off,80,0,14,,,,,,,,13,,,,48,64
192920,note_off,80,0,2,,,,,,,,0,,,,60,64
192920,note_off,80,0,1,,,,,,,,0,,,,72,64
192920,note_off,80,0,8,,,,,,,,6,,,,60,64
193080,note_off,720,0,7,,,,,,,,5,,,,69,64
193080,note_on,160,0,14,,,,,,,,13,,,,47,69
193080,note_on,160,0,9,,,,,,,,7,,,,47,86
193080,note_on,0,0,11,,,,,,,,10,,,,75,71
193080,note_on,0,0,6,,,,,,,,4,,,,75,100
193080,note_off,720,0,6,,,,,,,,4,,,,76,64
193080,note_on,160,0,2,,,,,,,,0,,,,59,69
193080,note_on,160,0,13,,,,,,,,12,,,,59,69
193080,note_on,0,0,7,,,,,,,,5,,,,66,86
193080,note_on,160,0,8,,,,,,,,6,,,,59,86
193080,note_on,160,0,1,,,,,,,,0,,,,71,69
193080,note_off,720,0,11,,,,,,,,10,,,,76,64
193080,note_off,720,0,12,,,,,,,,11,,,,69,64
193080,note_on,0,0,12,,,,,,,,11,,,,66,70
193320,note_off,240,0,8,,,,,,,,6,,,,59,64
193320,note_off,240,0,13,,,,,,,,12,,,,59,64
193320,note_on,0,0,14,,,,,,,,13,,,,45,71
193320,note_off,240,0,14,,,,,,,,13,,,,47,64
193320,note_on,0,0,13,,,,,,,,12,,,,57,71
193320,note_on,0,0,2,,,,,,,,0,,,,57,71
193320,note_off,240,0,9,,,,,,,,7,,,,47,64
193320,note_off,240,0,2,,,,,,,,0,,,,59,64
193320,note_on,0,0,9,,,,,,,,7,,,,45,88
193320,note_off,240,0,1,,,,,,,,0,,,,71,64
193320,note_on,0,0,8,,,,,,,,6,,,,57,88
193320,note_on,0,0,1,,,,,,,,0,,,,69,71
193560,note_on,0,0,1,,,,,,,,0,,,,71,73
193560,note_off,240,0,9,,,,,,,,7,,,,45,64
193560,note_on,0,0,9,,,,,,,,7,,,,47,90
193560,note_on,0,0,2,,,,,,,,0,,,,59,73
193560,note_off,240,0,1,,,,,,,,0,,,,69,64
193560,note_off,240,0,13,,,,,,,,12,,,,57,64
193560,note_on,0,0,13,,,,,,,,12,,,,59,73
193560,note_on,0,0,8,,,,,,,,6,,,,59,90
193560,note_off,240,0,8,,,,,,,,6,,,,57,64
193560,note_off,240,0,2,,,,,,,,0,,,,57,64
193560,note_on,0,0,14,,,,,,,,13,,,,47,73
193560,note_off,240,0,14,,,,,,,,13,,,,45,64
193640,note_off,80,0,9,,,,,,,,7,,,,47,64
193640,note_off,80,0,1,,,,,,,,0,,,,71,64
193640,note_off,80,0,2,,,,,,,,0,,,,59,64
193640,note_off,80,0,13,,,,,,,,12,,,,59,64
193640,note_off,80,0,14,,,,,,,,13,,,,47,64
193640,note_off,80,0,8,,,,,,,,6,,,,59,64
193800,note_on,160,0,14,,,,,,,,13,,,,40,75
193800,note_on,160,0,13,,,,,,,,12,,,,52,75
193800,note_off,720,0,7,,,,,,,,5,,,,66,64
193800,note_on,0,0,7,,,,,,,,5,,,,59,92
193800,note_off,720,0,6,,,,,,,,4,,,,75,64
193800,note_on,0,0,6,,,,,,,,4,,,,76,108
193800,note_on,160,0,2,,,,,,,,0,,,,52,75
193800,note_off,1440,0,5,,,,,,,,3,,,,81,64
193800,note_off,720,0,12,,,,,,,,11,,,,66,64
193800,note_on,0,0,12,,,,,,,,11,,,,59,75
193800,note_on,0,0,11,,,,,,,,10,,,,76,75
193800,note_off,720,0,11,,,,,,,,10,,,,75,64
193800,note_off,1440,0,10,,,,,,,,8,,,,81,64
193800,note_on,0,0,5,,,,,,,,3,,,,79,108
193800,note_on,0,0,10,,,,,,,,8,,,,79,75
193800,note_on,19020,0,15,,,,,,,,14,,,,40,60
193800,note_on,160,0,9,,,,,,,,7,,,,40,92
193800,note_on,160,0,8,,,,,,,,6,,,,52,92
193800,note_on,160,0,1,,,,,,,,0,,,,67,75
194040,note_on,0,0,5,,,,,,,,3,,,,78,108
194040,note_on,0,0,10,,,,,,,,8,,,,78,75
194040,note_off,240,0,10,,,,,,,,8,,,,79,64
194040,note_on,0,0,1,,,,,,,,0,,,,66,75
194040,note_off,240,0,5,,,,,,,,3,,,,79,64
194040,note_off,240,0,1,,,,,,,,0,,,,67,64
194280,note_on,0,0,10,,,,,,,,8,,,,76,75
194280,note_off,240,0,10,,,,,,,,8,,,,78,64
194280,note_off,240,0,5,,,,,,,,3,,,,78,64
194280,note_on,0,0,1,,,,,,,,0,,,,64,75
194280,note_on,0,0,5,,,,,,,,3,,,,76,108
194280,note_off,240,0,1,,,,,,,,0,,,,66,64
194360,note_off,80,0,10,,,,,,,,8,,,,76,64
194360,note_off,80,0,5,,,,,,,,3,,,,76,64
194360,note_off,80,0,1,,,,,,,,0,,,,64,64
194440,note_off,640,0,6,,,,,,,,4,,,,76,64
194440,note_off,640,0,11,,,,,,,,10,,,,76,64
194520,note_on,160,0,1,,,,,,,,0,,,,71,75
194520,note_on,80,0,6,,,,,,,,4,,,,79,108
194520,note_on,0,0,2,,,,,,,,0,,,,64,75
194520,note_off,720,0,8,,,,,,,,6,,,,52,64
194520,note_on,0,0,8,,,,,,,,6,,,,64,92
194520,note_on,0,0,15,,,,,,,,14,,,,52,60
194520,note_off,720,0,15,,,,,,,,14,,,,40,64
194520,note_on,160,0,10,,,,,,,,8,,,,83,75
194520,note_off,720,0,12,,,,,,,,11,,,,59,64
194520,note_on,0,0,12,,,,,,,,11,,,,64,75
194520,note_on,80,0,11,,,,,,,,10,,,,79,75
194520,note_off,720,0,2,,,,,,,,0,,,,52,64
194520,note_off,720,0,14,,,,,,,,13,,,,40,64
194520,note_on,0,0,14,,,,,,,,13,,,,52,75
194520,note_off,720,0,9,,,,,,,,7,,,,40,64
194520,note_off,720,0,13,,,,,,,,12,,,,52,64
194520,note_on,0,0,13,,,,,,,,12,,,,64,75
194520,note_off,720,0,7,,,,,,,,5,,,,59,64
194520,note_on,0,0,7,,,,,,,,5,,,,64,92
194520,note_on,160,0,5,,,,,,,,3,,,,83,108
194520,note_on,0,0,9,,,,,,,,7,,,,52,92
194760,note_off,240,0,11,,,,,,,,10,,,,79,64
194760,note_on,0,0,11,,,,,,,,10,,,,78,75
194760,note_on,0,0,6,,,,,,,,4,,,,78,108
194760,note_off,240,0,6,,,,,,,,4,,,,79,64
195000,note_on,0,0,6,,,,,,,,4,,,,76,108
195000,note_off,240,0,6,,,,,,,,4,,,,78,64
195000,note_on,0,0,11,,,,,,,,10,,,,76,75
195000,note_off,240,0,11,,,,,,,,10,,,,78,64
195080,note_off,80,0,6,,,,,,,,4,,,,76,64
195080,note_off,80,0,11,,,,,,,,10,,,,76,64
195160,note_off,640,0,1,,,,,,,,0,,,,71,64
195160,note_off,640,0,5,,,,,,,,3,,,,83,64
195160,note_off,640,0,10,,,,,,,,8,,,,83,64
195240,note_on,0,0,13,,,,,,,,12,,,,63,75
195240,note_on,160,0,6,,,,,,,,4,,,,83,108
195240,note_off,720,0,7,,,,,,,,5,,,,64,64
195240,note_on,0,0,2,,,,,,,,0,,,,63,75
195240,note_off,720,0,2,,,,,,,,0,,,,64,64
195240,note_on,160,0,11,,,,,,,,10,,,,83,75
195240,note_off,720,0,15,,,,,,,,14,,,,52,64
195240,note_on,0,0,15,,,,,,,,14,,,,51,60
195240,note_off,720,0,8,,,,,,,,6,,,,64,64
195240,note_on,0,0,8,,,,,,,,6,,,,63,92
195240,note_off,720,0,14,,,,,,,,13,,,,52,64
195240,note_on,80,0,5,,,,,,,,3,,,,78,108
195240,note_on,80,0,1,,,,,,,,0,,,,66,75
195240,note_off,720,0,13,,,,,,,,12,,,,64,64
195240,note_on,0,0,7,,,,,,,,5,,,,66,92
195240,note_off,720,0,9,,,,,,,,7,,,,52,64
195240,note_on,0,0,9,,,,,,,,7,,,,51,92
195240,note_off,720,0,12,,,,,,,,11,,,,64,64
195240,note_on,80,0,10,,,,,,,,8,,,,78,75
195240,note_on,0,0,14,,,,,,,,13,,,,51,75
195240,note_on,0,0,12,,,,,,,,11,,,,66,75
195480,note_off,240,0,10,,,,,,,,8,,,,78,64
195480,note_on,0,0,10,,,,,,,,8,,,,79,73
195480,note_off,240,0,1,,,,,,,,0,,,,66,64
195480,note_on,0,0,1,,,,,,,,0,,,,67,72
195480,note_off,240,0,5,,,,,,,,3,,,,78,64
195480,note_on,0,0,5,,,,,,,,3,,,,79,105
195720,note_on,0,0,5,,,,,,,,3,,,,81,102
195720,note_off,240,0,10,,,,,,,,8,,,,79,64
195720,note_on,0,0,10,,,,,,,,8,,,,81,71
195720,note_on,0,0,1,,,,,,,,0,,,,69,69
195720,note_off,240,0,1,,,,,,,,0,,,,67,64
195720,note_off,240,0,5,,,,,,,,3,,,,79,64
195800,note_off,80,0,5,,,,,,,,3,,,,81,64
195800,note_off,80,0,1,,,,,,,,0,,,,69,64
195800,note_off,80,0,10,,,,,,,,8,,,,81,64
195880,note_off,640,0,11,,,,,,,,10,,,,83,64
195880,note_off,640,0,6,,,,,,,,4,,,,83,64
195960,note_on,0,0,7,,,,,,,,5,,,,62,83
195960,note_on,160,0,10,,,,,,,,8,,,,83,69
195960,note_on,0,0,14,,,,,,,,13,,,,50,68
195960,note_on,160,0,5,,,,,,,,3,,,,83,99
195960,note_off,720,0,14,,,,,,,,13,,,,51,64
195960,note_off,720,0,15,,,,,,,,14,,,,51,64
195960,note_on,0,0,15,,,,,,,,14,,,,50,53
195960,note_off,720,0,12,,,,,,,,11,,,,66,64
195960,note_on,0,0,8,,,,,,,,6,,,,62,81
195960,note_on,80,0,6,,,,,,,,4,,,,78,99
195960,note_off,720,0,2,,,,,,,,0,,,,63,64
195960,note_on,0,0,2,,,,,,,,0,,,,62,64
195960,note_on,0,0,13,,,,,,,,12,,,,62,68
195960,note_off,720,0,13,,,,,,,,12,,,,63,64
195960,note_on,0,0,9,,,,,,,,7,,,,50,81
195960,note_on,160,0,1,,,,,,,,0,,,,71,66
195960,note_off,720,0,9,,,,,,,,7,,,,51,64
195960,note_off,720,0,7,,,,,,,,5,,,,66,64
195960,note_on,0,0,12,,,,,,,,11,,,,62,69
195960,note_on,80,0,11,,,,,,,,10,,,,78,69
195960,note_off,720,0,8,,,,,,,,6,,,,63,64
196200,note_on,0,0,6,,,,,,,,4,,,,76,96
196200,note_off,240,0,6,,,,,,,,4,,,,78,64
196200,note_off,240,0,11,,,,,,,,10,,,,78,64
196200,note_on,0,0,11,,,,,,,,10,,,,76,67
196440,note_on,0,0,6,,,,,,,,4,,,,74,93
196440,note_off,240,0,6,,,,,,,,4,,,,76,64
196440,note_on,0,0,11,,,,,,,,10,,,,74,65
196440,note_off,240,0,11,,,,,,,,10,,,,76,64
196520,note_off,80,0,6,,,,,,,,4,,,,74,64
196520,note_off,80,0,11,,,,,,,,10,,,,74,64
196600,note_off,640,0,5,,,,,,,,3,,,,83,64
196600,note_off,640,0,1,,,,,,,,0,,,,71,64
196600,note_off,640,0,10,,,,,,,,8,,,,83,64
196680,note_on,0,0,2,,,,,,,,0,,,,61,53
196680,note_on,160,0,6,,,,,,,,4,,,,81,90
196680,note_on,0,0,8,,,,,,,,6,,,,61,69
196680,note_on,0,0,15,,,,,,,,14,,,,49,46
196680,note_off,720,0,15,,,,,,,,14,,,,50,64
196680,set_tempo,5040,1,0,600000,,,,,,,,,,,,
196680,note_on,160,0,11,,,,,,,,10,,,,81,63
196680,note_off,720,0,2,,,,,,,,0,,,,62,64
196680,note_on,0,0,7,,,,,,,,5,,,,64,74
196680,note_off,720,0,7,,,,,,,,5,,,,62,64
196680,note_on,0,0,12,,,,,,,,11,,,,64,63
196680,note_off,720,0,12,,,,,,,,11,,,,62,64
196680,note_on,0,0,14,,,,,,,,13,,,,49,61
196680,note_on,80,0,10,,,,,,,,8,,,,76,63
196680,note_off,720,0,8,,,,,,,,6,,,,62,64
196680,note_on,80,0,5,,,,,,,,3,,,,76,90
196680,note_off,720,0,14,,,,,,,,13,,,,50,64
196680,note_on,0,0,9,,,,,,,,7,,,,49,69
196680,note_on,80,0,1,,,,,,,,0,,,,64,57
196680,note_off,720,0,9,,,,,,,,7,,,,50,64
196680,note_off,720,0,13,,,,,,,,12,,,,62,64
196680,note_on,0,0,13,,,,,,,,12,,,,61,61
196920,note_off,240,0,1,,,,,,,,0,,,,64,64
196920,note_on,0,0,1,,,,,,,,0,,,,66,54
196920,note_on,0,0,5,,,,,,,,3,,,,78,87
196920,note_off,240,0,5,,,,,,,,3,,,,76,64
196920,note_off,240,0,10,,,,,,,,8,,,,76,64
196920,note_on,0,0,10,,,,,,,,8,,,,78,61
197160,note_off,240,0,1,,,,,,,,0,,,,66,64
197160,note_on,0,0,5,,,,,,,,3,,,,79,84
197160,note_off,240,0,10,,,,,,,,8,,,,78,64
197160,note_on,0,0,10,,,,,,,,8,,,,79,59
197160,note_on,0,0,1,,,,,,,,0,,,,67,51
197160,note_off,240,0,5,,,,,,,,3,,,,78,64
197240,note_off,80,0,1,,,,,,,,0,,,,67,64
197240,note_off,80,0,5,,,,,,,,3,,,,79,64
197240,note_off,80,0,10,,,,,,,,8,,,,79,64
197320,note_off,640,0,6,,,,,,,,4,,,,81,64
197320,note_off,640,0,11,,,,,,,,10,,,,81,64
197400,note_off,720,0,15,,,,,,,,14,,,,49,64
197400,note_on,80,0,6,,,,,,,,4,,,,76,80
197400,note_off,720,0,2,,,,,,,,0,,,,61,64
197400,note_on,160,0,5,,,,,,,,3,,,,81,81
197400,note_on,0,0,14,,,,,,,,13,,,,48,53
197400,note_on,160,0,10,,,,,,,,8,,,,81,57
197400,note_on,80,0,11,,,,,,,,10,,,,76,57
197400,note_on,0,0,2,,,,,,,,0,,,,60,42
197400,note_off,720,0,13,,,,,,,,12,,,,61,64
197400,note_off,720,0,9,,,,,,,,7,,,,49,64
197400,note_off,720,0,8,,,,,,,,6,,,,61,64
197400,note_on,0,0,8,,,,,,,,6,,,,60,57
197400,note_on,0,0,13,,,,,,,,12,,,,60,53
197400,note_on,160,0,1,,,,,,,,0,,,,69,48
197400,note_on,0,0,9,,,,,,,,7,,,,48,57
197400,note_off,720,0,14,,,,,,,,13,,,,49,64
197400,note_on,0,0,15,,,,,,,,14,,,,48,38
197640,note_on,0,0,6,,,,,,,,4,,,,74,77
197640,note_on,0,0,11,,,,,,,,10,,,,74,55
197640,note_off,240,0,11,,,,,,,,10,,,,76,64
197640,note_off,240,0,6,,,,,,,,4,,,,76,64
197880,note_on,0,0,6,,,,,,,,4,,,,72,74
197880,note_on,0,0,11,,,,,,,,10,,,,72,53
197880,note_off,240,0,6,,,,,,,,4,,,,74,64
197880,note_off,240,0,11,,,,,,,,10,,,,74,64
198040,note_off,640,0,5,,,,,,,,3,,,,81,64
198040,note_off,640,0,10,,,,,,,,8,,,,81,64
198040,note_off,640,0,1,,,,,,,,0,,,,69,64
198115,note_off,235,0,11,,,,,,,,10,,,,72,64
198115,note_off,235,0,6,,,,,,,,4,,,,72,64
198120,note_off,720,0,14,,,,,,,,13,,,,48,64
198120,note_on,0,0,7,,,,,,,,5,,,,59,55
198120,note_on,0,0,15,,,,,,,,14,,,,47,30
198120,note_off,720,0,9,,,,,,,,7,,,,48,64
198120,note_on,0,0,12,,,,,,,,11,,,,59,51
198120,note_off,720,0,15,,,,,,,,14,,,,48,64
198120,note_on,5,0,11,,,,,,,,10,,,,78,51
198120,note_on,0,0,14,,,,,,,,13,,,,47,45
198120,note_off,1440,0,12,,,,,,,,11,,,,64,64
198120,note_off,1440,0,7,,,,,,,,5,,,,64,64
198120,note_on,0,0,2,,,,,,,,0,,,,59,30
198120,note_on,0,0,13,,,,,,,,12,,,,59,45
198120,note_on,0,0,8,,,,,,,,6,,,,59,45
198120,note_off,720,0,8,,,,,,,,6,,,,60,64
198120,note_off,720,0,13,,,,,,,,12,,,,60,64
198120,note_on,0,0,9,,,,,,,,7,,,,47,45
198120,note_on,80,0,5,,,,,,,,3,,,,75,71
198120,note_on,80,0,1,,,,,,,,0,,,,63,39
198120,note_on,80,0,10,,,,,,,,8,,,,75,51
198120,note_off,720,0,2,,,,,,,,0,,,,60,64
198120,note_on,5,0,6,,,,,,,,4,,,,78,71
198360,note_on,0,0,11,,,,,,,,10,,,,76,49
198360,note_off,240,0,1,,,,,,,,0,,,,63,64
198360,note_on,0,0,10,,,,,,,,8,,,,72,49
198360,note_off,240,0,10,,,,,,,,8,,,,75,64
198360,note_on,0,0,6,,,,,,,,4,,,,76,68
198360,note_off,240,0,11,,,,,,,,10,,,,78,64
198360,note_on,0,0,1,,,,,,,,0,,,,60,36
198360,note_off,240,0,5,,,,,,,,3,,,,75,64
198360,note_on,0,0,5,,,,,,,,3,,,,72,68
198360,note_off,240,0,6,,,,,,,,4,,,,78,64
198600,note_off,240,0,1,,,,,,,,0,,,,60,64
198600,note_on,0,0,1,,,,,,,,0,,,,59,33
198600,note_off,240,0,10,,,,,,,,8,,,,72,64
198600,note_on,0,0,5,,,,,,,,3,,,,71,64
198600,note_on,0,0,11,,,,,,,,10,,,,75,47
198600,note_off,240,0,11,,,,,,,,10,,,,76,64
198600,note_off,240,0,5,,,,,,,,3,,,,72,64
198600,note_off,240,0,6,,,,,,,,4,,,,76,64
198600,note_on,0,0,6,,,,,,,,4,,,,75,64
198600,note_on,0,0,10,,,,,,,,8,,,,71,47
198680,note_off,80,0,11,,,,,,,,10,,,,75,64
198680,note_off,80,0,5,,,,,,,,3,,,,71,64
198680,note_off,80,0,6,,,,,,,,4,,,,75,64
198680,note_off,80,0,1,,,,,,,,0,,,,59,64
198680,note_off,80,0,10,,,,,,,,8,,,,71,64
198840,note_off,720,0,7,,,,,,,,5,,,,59,64
198840,note_on,160,0,11,,,,,,,,10,,,,78,45
198840,note_off,720,0,12,,,,,,,,11,,,,59,64
198840,note_on,0,0,12,,,,,,,,11,,,,63,45
198840,note_on,0,0,7,,,,,,,,5,,,,63,45
198840,note_on,160,0,1,,,,,,,,0,,,,69,30
198840,note_on,160,0,6,,,,,,,,4,,,,78,60
198840,note_on,160,0,10,,,,,,,,8,,,,81,45
198840,set_tempo,2160,1,0,600000,,,,,,,,,,,,
198840,note_on,160,0,5,,,,,,,,3,,,,81,60
199440,note_off,1320,0,15,,,,,,,,14,,,,47,64
199440,note_off,1320,0,13,,,,,,,,12,,,,59,64
199440,note_off,1320,0,2,,,,,,,,0,,,,59,64
199440,note_off,1320,0,9,,,,,,,,7,,,,47,64
199440,note_off,1320,0,8,,,,,,,,6,,,,59,64
199440,note_off,1320,0,14,,,,,,,,13,,,,47,64
199480,note_off,640,0,6,,,,,,,,4,,,,78,64
199480,note_off,640,0,7,,,,,,,,5,,,,63,64
199480,note_off,640,0,11,,,,,,,,10,,,,78,64
199480,note_off,640,0,5,,,,,,,,3,,,,81,64
199480,note_off,640,0,10,,,,,,,,8,,,,81,64
199480,note_off,640,0,12,,,,,,,,11,,,,63,64
199480,note_off,640,0,1,,,,,,,,0,,,,69,64
199560,note_on,80,0,10,,,,,,,,8,,,,79,45
199560,note_on,120,0,13,,,,,,,,12,,,,52,45
199560,note_on,80,0,6,,,,,,,,4,,,,76,60
199560,note_on,120,0,9,,,,,,,,7,,,,40,45
199560,note_on,80,0,7,,,,,,,,5,,,,59,45
199560,note_on,80,0,5,,,,,,,,3,,,,79,60
199560,note_on,120,0,14,,,,,,,,13,,,,40,45
199560,note_on,80,0,11,,,,,,,,10,,,,76,45
199560,note_on,80,0,12,,,,,,,,11,,,,59,45
199560,note_on,120,0,8,,,,,,,,6,,,,52,45
199800,note_on,0,0,10,,,,,,,,8,,,,78,45
199800,note_on,0,0,5,,,,,,,,3,,,,78,60
199800,note_off,240,0,10,,,,,,,,8,,,,79,64
199800,note_off,240,0,5,,,,,,,,3,,,,79,64
200040,note_off,240,0,5,,,,,,,,3,,,,78,64
200040,note_on,0,0,5,,,,,,,,3,,,,76,60
200040,note_off,240,0,10,,,,,,,,8,,,,78,64
200040,note_on,0,0,10,,,,,,,,8,,,,76,45
200280,note_on,0,0,10,,,,,,,,8,,,,84,45
200280,note_off,240,0,10,,,,,,,,8,,,,76,64
200280,note_off,720,0,9,,,,,,,,7,,,,40,64
200280,note_on,0,0,9,,,,,,,,7,,,,52,45
200280,note_on,0,0,14,,,,,,,,13,,,,52,45
200280,note_off,720,0,14,,,,,,,,13,,,,40,64
200280,note_on,0,0,12,,,,,,,,11,,,,64,45
200280,note_off,720,0,12,,,,,,,,11,,,,59,64
200280,note_on,0,0,6,,,,,,,,4,,,,79,60
200280,note_on,0,0,7,,,,,,,,5,,,,64,45
200280,note_on,0,0,8,,,,,,,,6,,,,64,45
200280,note_off,240,0,5,,,,,,,,3,,,,76,64
200280,note_off,720,0,13,,,,,,,,12,,,,52,64
200280,note_off,720,0,8,,,,,,,,6,,,,52,64
200280,note_off,720,0,7,,,,,,,,5,,,,59,64
200280,note_on,0,0,5,,,,,,,,3,,,,84,60
200280,note_off,720,0,6,,,,,,,,4,,,,76,64
200280,note_on,0,0,13,,,,,,,,12,,,,64,45
200280,note_on,0,0,11,,,,,,,,10,,,,79,45
200280,note_off,720,0,11,,,,,,,,10,,,,76,64
201000,note_off,720,0,6,,,,,,,,4,,,,79,64
201000,note_on,0,0,14,,,,,,,,13,,,,51,45
201000,note_off,720,0,14,,,,,,,,13,,,,52,64
201000,set_tempo,2160,1,0,612244,,,,,,,,,,,,
201000,note_on,0,0,6,,,,,,,,4,,,,78,60
201000,note_off,720,0,9,,,,,,,,7,,,,52,64
201000,note_on,0,0,13,,,,,,,,12,,,,63,45
201000,note_off,720,0,8,,,,,,,,6,,,,64,64
201000,note_off,720,0,13,,,,,,,,12,,,,64,64
201000,note_off,720,0,11,,,,,,,,10,,,,79,64
201000,note_on,0,0,11,,,,,,,,10,,,,78,45
201000,note_on,0,0,7,,,,,,,,5,,,,69,45
201000,note_off,720,0,7,,,,,,,,5,,,,64,64
201000,note_off,720,0,12,,,,,,,,11,,,,64,64
201000,note_on,0,0,12,,,,,,,,11,,,,69,45
201000,note_on,0,0,9,,,,,,,,7,,,,51,45
201000,note_on,0,0,8,,,,,,,,6,,,,63,45
201720,note_off,720,0,13,,,,,,,,12,,,,63,64
201720,note_on,0,0,13,,,,,,,,12,,,,62,45
201720,note_off,720,0,9,,,,,,,,7,,,,51,64
201720,note_on,0,0,9,,,,,,,,7,,,,50,45
201720,note_on,0,0,5,,,,,,,,3,,,,83,60
201720,note_on,0,0,8,,,,,,,,6,,,,62,45
201720,note_on,0,0,12,,,,,,,,11,,,,66,45
201720,note_off,720,0,12,,,,,,,,11,,,,69,64
201720,note_off,1440,0,5,,,,,,,,3,,,,84,64
201720,note_off,720,0,7,,,,,,,,5,,,,69,64
201720,note_on,0,0,7,,,,,,,,5,,,,66,45
201720,note_off,720,0,8,,,,,,,,6,,,,63,64
201720,note_on,0,0,10,,,,,,,,8,,,,83,45
201720,note_off,1440,0,10,,,,,,,,8,,,,84,64
201720,note_on,0,0,14,,,,,,,,13,,,,50,45
201720,note_off,720,0,14,,,,,,,,13,,,,51,64
201720,set_tempo,720,1,0,625000,,,,,,,,,,,,
202440,note_off,720,0,14,,,,,,,,13,,,,50,64
202440,note_off,720,0,7,,,,,,,,5,,,,66,64
202440,note_on,0,0,8,,,,,,,,6,,,,61,45
202440,note_off,720,0,8,,,,,,,,6,,,,62,64
202440,note_on,0,0,14,,,,,,,,13,,,,49,45
202440,note_on,0,0,7,,,,,,,,5,,,,67,45
202440,set_tempo,720,1,0,638297,,,,,,,,,,,,
202440,note_off,720,0,9,,,,,,,,7,,,,50,64
202440,note_off,720,0,13,,,,,,,,12,,,,62,64
202440,note_off,1440,0,11,,,,,,,,10,,,,78,64
202440,note_on,0,0,11,,,,,,,,10,,,,76,45
202440,note_on,0,0,9,,,,,,,,7,,,,49,45
202440,note_on,0,0,12,,,,,,,,11,,,,67,45
202440,note_off,720,0,12,,,,,,,,11,,,,66,64
202440,note_on,0,0,13,,,,,,,,12,,,,61,45
202440,note_on,0,0,6,,,,,,,,4,,,,76,60
202440,note_off,1440,0,6,,,,,,,,4,,,,78,64
203160,set_tempo,720,1,0,652173,,,,,,,,,,,,
203160,note_on,0,0,7,,,,,,,,5,,,,64,45
203160,note_on,0,0,8,,,,,,,,6,,,,60,45
203160,note_off,720,0,8,,,,,,,,6,,,,61,64
203160,note_on,0,0,5,,,,,,,,3,,,,81,60
203160,note_off,1440,0,5,,,,,,,,3,,,,83,64
203160,note_off,720,0,13,,,,,,,,12,,,,61,64
203160,note_on,0,0,13,,,,,,,,12,,,,60,45
203160,note_on,0,0,12,,,,,,,,11,,,,64,45
203160,note_off,720,0,12,,,,,,,,11,,,,67,64
203160,note_off,720,0,7,,,,,,,,5,,,,67,64
203160,note_on,0,0,14,,,,,,,,13,,,,48,45
203160,note_off,720,0,14,,,,,,,,13,,,,49,64
203160,note_on,0,0,9,,,,,,,,7,,,,48,45
203160,note_off,720,0,9,,,,,,,,7,,,,49,64
203160,note_off,1440,0,10,,,,,,,,8,,,,83,64
203160,note_on,0,0,10,,,,,,,,8,,,,81,45
203880,note_off,720,0,13,,,,,,,,12,,,,60,64
203880,note_on,0,0,6,,,,,,,,4,,,,75,60
203880,note_on,0,0,7,,,,,,,,5,,,,66,45
203880,note_off,720,0,7,,,,,,,,5,,,,64,64
203880,set_tempo,720,1,0,666666,,,,,,,,,,,,
203880,note_off,1440,0,6,,,,,,,,4,,,,76,64
203880,note_on,0,0,13,,,,,,,,12,,,,47,45
203880,note_on,0,0,8,,,,,,,,6,,,,47,45
203880,note_on,0,0,9,,,,,,,,7,,,,35,45
203880,note_off,720,0,9,,,,,,,,7,,,,48,64
203880,note_off,1440,0,11,,,,,,,,10,,,,76,64
203880,note_on,0,0,11,,,,,,,,10,,,,75,45
203880,note_on,0,0,12,,,,,,,,11,,,,66,45
203880,note_off,720,0,12,,,,,,,,11,,,,64,64
203880,note_on,0,0,14,,,,,,,,13,,,,35,45
203880,note_off,720,0,14,,,,,,,,13,,,,48,64
203880,note_off,720,0,8,,,,,,,,6,,,,60,64
204480,note_off,1320,0,5,,,,,,,,3,,,,81,64
204480,note_off,1320,0,10,,,,,,,,8,,,,81,64
204520,note_off,640,0,7,,,,,,,,5,,,,66,64
204520,note_off,640,0,11,,,,,,,,10,,,,75,64
204520,note_off,640,0,12,,,,,,,,11,,,,66,64
204520,note_off,640,0,6,,,,,,,,4,,,,75,64
204600,note_on,38460,0,3,,,,,,,,1,,,,71,60
204600,set_tempo,720,1,0,517241,,,,,,,,,,,,
204600,note_on,38460,0,4,,,,,,,,2,,,,71,45
204840,note_off,240,0,3,,,,,,,,1,,,,71,64
204840,note_on,0,0,3,,,,,,,,1,,,,72,60
204840,note_off,240,0,4,,,,,,,,2,,,,71,64
204840,note_on,0,0,4,,,,,,,,2,,,,72,45
205080,note_off,240,0,3,,,,,,,,1,,,,72,64
205080,note_off,240,0,4,,,,,,,,2,,,,72,64
205080,note_on,0,0,4,,,,,,,,2,,,,73,45
205080,note_on,0,0,3,,,,,,,,1,,,,73,60
205320,note_off,240,0,3,,,,,,,,1,,,,73,64
205320,note_on,0,0,3,,,,,,,,1,,,,74,60
205320,note_off,240,0,4,,,,,,,,2,,,,73,64
205320,note_on,0,0,4,,,,,,,,2,,,,74,45
205560,note_off,240,0,3,,,,,,,,1,,,,74,64
205560,note_on,0,0,3,,,,,,,,1,,,,75,60
205560,note_on,0,0,4,,,,,,,,2,,,,75,45
205560,note_off,240,0,4,,,,,,,,2,,,,74,64
205800,note_off,240,0,4,,,,,,,,2,,,,75,64
205800,note_on,0,0,4,,,,,,,,2,,,,76,45
205800,note_on,0,0,3,,,,,,,,1,,,,76,60
205800,note_off,240,0,3,,,,,,,,1,,,,75,64
206040,note_on,0,0,3,,,,,,,,1,,,,78,60
206040,note_off,240,0,4,,,,,,,,2,,,,76,64
206040,note_on,0,0,4,,,,,,,,2,,,,78,45
206040,note_off,240,0,3,,,,,,,,1,,,,76,64
206280,note_on,0,0,3,,,,,,,,1,,,,79,60
206280,note_off,240,0,3,,,,,,,,1,,,,78,64
206280,note_off,240,0,4,,,,,,,,2,,,,78,64
206280,note_on,0,0,4,,,,,,,,2,,,,79,45
206520,note_on,0,0,4,,,,,,,,2,,,,81,45
206520,note_on,0,0,3,,,,,,,,1,,,,81,60
206520,note_off,240,0,3,,,,,,,,1,,,,79,64
206520,note_off,240,0,4,,,,,,,,2,,,,79,64
206760,note_on,0,0,4,,,,,,,,2,,,,71,45
206760,note_off,240,0,4,,,,,,,,2,,,,81,64
206760,note_off,240,0,3,,,,,,,,1,,,,81,64
206760,note_on,0,0,3,,,,,,,,1,,,,71,60
207400,note_off,640,0,4,,,,,,,,2,,,,71,64
207400,note_off,640,0,3,,,,,,,,1,,,,71,64
207600,note_on,200,0,4,,,,,,,,2,,,,71,30
207600,note_on,200,0,3,,,,,,,,1,,,,71,45
207600,set_tempo,3000,1,0,535714,,,,,,,,,,,,
207840,note_off,240,0,3,,,,,,,,1,,,,71,64
207840,note_on,0,0,3,,,,,,,,1,,,,72,45
207840,note_on,0,0,4,,,,,,,,2,,,,72,30
207840,note_off,240,0,4,,,,,,,,2,,,,71,64
208080,note_off,240,0,3,,,,,,,,1,,,,72,64
208080,note_on,0,0,3,,,,,,,,1,,,,73,45
208080,note_on,0,0,4,,,,,,,,2,,,,73,30
208080,note_off,240,0,4,,,,,,,,2,,,,72,64
208320,note_on,0,0,4,,,,,,,,2,,,,74,30
208320,note_on,0,0,3,,,,,,,,1,,,,74,45
208320,note_off,240,0,3,,,,,,,,1,,,,73,64
208320,note_off,240,0,4,,,,,,,,2,,,,73,64
208560,note_off,240,0,3,,,,,,,,1,,,,74,64
208560,note_on,0,0,4,,,,,,,,2,,,,75,30
208560,note_off,240,0,4,,,,,,,,2,,,,74,64
208560,note_on,0,0,3,,,,,,,,1,,,,75,45
208800,note_on,0,0,3,,,,,,,,1,,,,76,45
208800,note_off,240,0,4,,,,,,,,2,,,,75,64
208800,note_on,0,0,4,,,,,,,,2,,,,76,30
208800,note_off,240,0,3,,,,,,,,1,,,,75,64
209040,note_off,240,0,3,,,,,,,,1,,,,76,64
209040,note_on,0,0,3,,,,,,,,1,,,,78,45
209040,note_off,240,0,4,,,,,,,,2,,,,76,64
209040,note_on,0,0,4,,,,,,,,2,,,,78,30
209280,note_off,240,0,3,,,,,,,,1,,,,78,64
209280,note_on,0,0,3,,,,,,,,1,,,,79,45
209280,note_off,240,0,4,,,,,,,,2,,,,78,64
209280,note_on,0,0,4,,,,,,,,2,,,,79,30
209520,note_on,0,0,4,,,,,,,,2,,,,81,30
209520,note_off,240,0,4,,,,,,,,2,,,,79,64
209520,note_off,240,0,3,,,,,,,,1,,,,79,64
209520,note_on,0,0,3,,,,,,,,1,,,,81,45
209760,note_on,0,0,4,,,,,,,,2,,,,71,30
209760,note_off,240,0,3,,,,,,,,1,,,,81,64
209760,note_on,0,0,3,,,,,,,,1,,,,71,45
209760,note_off,240,0,4,,,,,,,,2,,,,81,64
210400,note_off,640,0,3,,,,,,,,1,,,,71,64
210400,note_off,640,0,4,,,,,,,,2,,,,71,64
210600,set_tempo,3000,1,0,500000,,,,,,,,,,,,
210600,note_on,200,0,3,,,,,,,,1,,,,83,30
210600,note_on,200,0,4,,,,,,,,2,,,,83,10
210840,note_on,0,0,3,,,,,,,,1,,,,81,30
210840,note_off,240,0,4,,,,,,,,2,,,,83,64
210840,note_off,240,0,3,,,,,,,,1,,,,83,64
210840,note_on,0,0,4,,,,,,,,2,,,,81,10
211080,note_on,0,0,3,,,,,,,,1,,,,79,30
211080,note_off,240,0,4,,,,,,,,2,,,,81,64
211080,note_off,240,0,3,,,,,,,,1,,,,81,64
211080,note_on,0,0,4,,,,,,,,2,,,,79,10
211320,note_on,0,0,3,,,,,,,,1,,,,77,30
211320,note_on,0,0,4,,,,,,,,2,,,,77,10
211320,note_off,240,0,4,,,,,,,,2,,,,79,64
211320,note_off,240,0,3,,,,,,,,1,,,,79,64
211960,note_off,640,0,4,,,,,,,,2,,,,77,64
211960,note_off,640,0,3,,,,,,,,1,,,,77,64
212040,note_on,80,0,3,,,,,,,,1,,,,81,37
212040,note_on,80,0,4,,,,,,,,2,,,,81,18
212280,note_on,0,0,3,,,,,,,,1,,,,79,39
212280,note_off,240,0,4,,,,,,,,2,,,,81,64
212280,note_on,0,0,4,,,,,,,,2,,,,79,21
212280,note_off,240,0,3,,,,,,,,1,,,,81,64
212520,note_off,240,0,3,,,,,,,,1,,,,79,64
212520,note_on,0,0,3,,,,,,,,1,,,,77,41
212520,note_off,240,0,4,,,,,,,,2,,,,79,64
212520,note_on,0,0,4,,,,,,,,2,,,,77,24
212760,note_on,0,0,4,,,,,,,,2,,,,76,27
212760,note_off,240,0,4,,,,,,,,2,,,,77,64
212760,note_off,240,0,3,,,,,,,,1,,,,77,64
212760,note_on,0,0,3,,,,,,,,1,,,,76,43
213400,note_off,640,0,3,,,,,,,,1,,,,76,64
213400,note_off,640,0,4,,,,,,,,2,,,,76,64
213480,note_on,80,0,3,,,,,,,,1,,,,79,51
213480,note_on,80,0,4,,,,,,,,2,,,,79,36
213720,note_on,0,0,4,,,,,,,,2,,,,77,39
213720,note_off,240,0,4,,,,,,,,2,,,,79,64
213720,note_off,240,0,3,,,,,,,,1,,,,79,64
213720,note_on,0,0,3,,,,,,,,1,,,,77,54
213960,note_off,240,0,4,,,,,,,,2,,,,77,64
213960,note_on,0,0,3,,,,,,,,1,,,,76,57
213960,note_off,240,0,3,,,,,,,,1,,,,77,64
213960,note_on,0,0,4,,,,,,,,2,,,,76,42
214200,note_on,0,0,3,,,,,,,,1,,,,87,60
214200,note_off,240,0,3,,,,,,,,1,,,,76,64
214200,set_tempo,3600,1,0,606060,,,,,,,,,,,,
214200,note_on,0,0,4,,,,,,,,2,,,,87,45
214200,note_off,240,0,4,,,,,,,,2,,,,76,64
214840,note_off,640,0,4,,,,,,,,2,,,,87,64
214840,note_off,640,0,3,,,,,,,,1,,,,87,64
214920,note_on,80,0,4,,,,,,,,2,,,,88,45
214920,note_on,80,0,3,,,,,,,,1,,,,88,60
214920,set_tempo,720,1,0,588235,,,,,,,,,,,,
215160,note_off,240,0,3,,,,,,,,1,,,,88,64
215160,note_off,240,0,4,,,,,,,,2,,,,88,64
215160,note_on,0,0,4,,,,,,,,2,,,,86,44
215160,note_on,0,0,3,,,,,,,,1,,,,86,59
215400,note_on,0,0,3,,,,,,,,1,,,,84,58
215400,note_off,240,0,4,,,,,,,,2,,,,86,64
215400,note_on,0,0,4,,,,,,,,2,,,,84,43
215400,set_tempo,480,1,0,566037,,,,,,,,,,,,
215400,note_off,240,0,3,,,,,,,,1,,,,86,64
215640,note_off,240,0,3,,,,,,,,1,,,,84,64
215640,note_on,0,0,3,,,,,,,,1,,,,83,57
215640,note_on,0,0,4,,,,,,,,2,,,,83,42
215640,note_off,240,0,4,,,,,,,,2,,,,84,64
215640,set_tempo,240,1,0,612244,,,,,,,,,,,,
216360,note_off,720,0,3,,,,,,,,1,,,,83,64
216360,note_on,0,0,3,,,,,,,,1,,,,82,52
216360,note_on,0,0,4,,,,,,,,2,,,,82,37
216360,note_off,720,0,4,,,,,,,,2,,,,83,64
216360,set_tempo,720,1,0,659340,,,,,,,,,,,,
217000,note_off,640,0,3,,,,,,,,1,,,,82,64
217000,note_off,640,0,4,,,,,,,,2,,,,82,64
217080,note_off,13200,0,13,,,,,,,,12,,,,47,64
217080,note_off,13200,0,8,,,,,,,,6,,,,47,64
217080,note_on,0,0,14,,,,,,,,13,,,,35,45
217080,note_off,13200,0,14,,,,,,,,13,,,,35,64
217080,note_on,0,0,13,,,,,,,,12,,,,47,45
217080,note_on,0,0,8,,,,,,,,6,,,,47,45
217080,note_off,13200,0,9,,,,,,,,7,,,,35,64
217080,note_on,0,0,9,,,,,,,,7,,,,35,45
217140,set_tempo,780,1,0,545454,,,,,,,,,,,,
217140,note_on,140,0,3,,,,,,,,1,,,,71,45
217140,note_on,140,0,4,,,,,,,,2,,,,71,30
217375,note_off,235,0,3,,,,,,,,1,,,,71,64
217375,note_off,235,0,4,,,,,,,,2,,,,71,64
217380,note_on,5,0,3,,,,,,,,1,,,,83,45
217380,note_on,5,0,4,,,,,,,,2,,,,83,30
217620,note_off,240,0,3,,,,,,,,1,,,,83,64
217620,note_on,0,0,3,,,,,,,,1,,,,81,45
217620,note_off,240,0,4,,,,,,,,2,,,,83,64
217620,note_on,0,0,4,,,,,,,,2,,,,81,30
217855,note_off,235,0,3,,,,,,,,1,,,,81,64
217855,note_off,235,0,4,,,,,,,,2,,,,81,64
217860,note_on,5,0,3,,,,,,,,1,,,,71,45
217860,note_on,5,0,4,,,,,,,,2,,,,71,30
218095,note_off,235,0,3,,,,,,,,1,,,,71,64
218095,note_off,235,0,4,,,,,,,,2,,,,71,64
218100,note_on,5,0,3,,,,,,,,1,,,,81,45
218100,note_on,5,0,4,,,,,,,,2,,,,81,30
218340,note_off,240,0,3,,,,,,,,1,,,,81,64
218340,note_on,0,0,3,,,,,,,,1,,,,79,45
218340,note_off,240,0,4,,,,,,,,2,,,,81,64
218340,note_on,0,0,4,,,,,,,,2,,,,79,30
218575,note_off,235,0,3,,,,,,,,1,,,,79,64
218575,note_off,235,0,4,,,,,,,,2,,,,79,64
218580,note_on,5,0,3,,,,,,,,1,,,,71,45
218580,note_on,5,0,4,,,,,,,,2,,,,71,30
218815,note_off,235,0,4,,,,,,,,2,,,,71,64
218815,note_off,235,0,3,,,,,,,,1,,,,71,64
218820,note_on,5,0,4,,,,,,,,2,,,,79,30
218820,note_on,5,0,3,,,,,,,,1,,,,79,45
219060,note_off,240,0,3,,,,,,,,1,,,,79,64
219060,note_off,240,0,4,,,,,,,,2,,,,79,64
219060,note_on,0,0,4,,,,,,,,2,,,,78,30
219060,note_on,0,0,3,,,,,,,,1,,,,78,45
219295,note_off,235,0,3,,,,,,,,1,,,,78,64
219295,note_off,235,0,4,,,,,,,,2,,,,78,64
219300,note_on,5,0,3,,,,,,,,1,,,,71,45
219300,note_on,5,0,4,,,,,,,,2,,,,71,30
219535,note_off,235,0,3,,,,,,,,1,,,,71,64
219535,note_off,235,0,4,,,,,,,,2,,,,71,64
219540,note_on,5,0,4,,,,,,,,2,,,,78,30
219540,note_on,5,0,3,,,,,,,,1,,,,78,45
219780,note_off,240,0,3,,,,,,,,1,,,,78,64
219780,note_on,0,0,3,,,,,,,,1,,,,76,45
219780,note_off,240,0,4,,,,,,,,2,,,,78,64
219780,note_on,0,0,4,,,,,,,,2,,,,76,30
220015,note_off,235,0,3,,,,,,,,1,,,,76,64
220015,note_off,235,0,4,,,,,,,,2,,,,76,64
220020,note_off,2940,0,14,,,,,,,,13,,,,35,64
220020,note_on,0,0,14,,,,,,,,13,,,,35,53
220020,note_on,0,0,13,,,,,,,,12,,,,47,53
220020,note_off,2940,0,13,,,,,,,,12,,,,47,64
220020,note_off,2940,0,8,,,,,,,,6,,,,47,64
220020,note_on,0,0,9,,,,,,,,7,,,,35,58
220020,note_off,2940,0,9,,,,,,,,7,,,,35,64
220020,note_on,0,0,8,,,,,,,,6,,,,47,58
220080,note_on,65,0,4,,,,,,,,2,,,,71,30
220080,set_tempo,2940,1,0,555555,,,,,,,,,,,,
220080,note_on,65,0,3,,,,,,,,1,,,,71,45
220315,note_off,235,0,3,,,,,,,,1,,,,71,64
220315,note_off,235,0,4,,,,,,,,2,,,,71,64
220320,note_on,5,0,3,,,,,,,,1,,,,83,45
220320,note_on,5,0,4,,,,,,,,2,,,,83,30
220560,note_on,0,0,3,,,,,,,,1,,,,81,45
220560,note_off,240,0,3,,,,,,,,1,,,,83,64
220560,note_off,240,0,4,,,,,,,,2,,,,83,64
220560,note_on,0,0,4,,,,,,,,2,,,,81,30
220795,note_off,235,0,3,,,,,,,,1,,,,81,64
220795,note_off,235,0,4,,,,,,,,2,,,,81,64
220800,note_on,5,0,3,,,,,,,,1,,,,71,45
220800,note_on,5,0,4,,,,,,,,2,,,,71,30
221035,note_off,235,0,3,,,,,,,,1,,,,71,64
221035,note_off,235,0,4,,,,,,,,2,,,,71,64
221040,note_on,5,0,4,,,,,,,,2,,,,81,30
221040,note_on,5,0,3,,,,,,,,1,,,,81,45
221280,note_on,0,0,4,,,,,,,,2,,,,79,30
221280,note_off,240,0,4,,,,,,,,2,,,,81,64
221280,note_off,240,0,3,,,,,,,,1,,,,81,64
221280,note_on,0,0,3,,,,,,,,1,,,,79,45
221515,note_off,235,0,4,,,,,,,,2,,,,79,64
221515,note_off,235,0,3,,,,,,,,1,,,,79,64
221520,note_on,5,0,4,,,,,,,,2,,,,71,30
221520,note_on,5,0,3,,,,,,,,1,,,,71,45
221755,note_off,235,0,4,,,,,,,,2,,,,71,64
221755,note_off,235,0,3,,,,,,,,1,,,,71,64
221760,note_on,5,0,3,,,,,,,,1,,,,79,45
221760,note_on,5,0,4,,,,,,,,2,,,,79,30
222000,note_on,0,0,4,,,,,,,,2,,,,78,30
222000,note_off,240,0,4,,,,,,,,2,,,,79,64
222000,note_off,240,0,3,,,,,,,,1,,,,79,64
222000,note_on,0,0,3,,,,,,,,1,,,,78,45
222235,note_off,235,0,4,,,,,,,,2,,,,78,64
222235,note_off,235,0,3,,,,,,,,1,,,,78,64
222240,note_on,5,0,3,,,,,,,,1,,,,71,45
222240,note_on,5,0,4,,,,,,,,2,,,,71,30
222475,note_off,235,0,4,,,,,,,,2,,,,71,64
222475,note_off,235,0,3,,,,,,,,1,,,,71,64
222480,note_on,5,0,4,,,,,,,,2,,,,78,30
222480,note_on,5,0,3,,,,,,,,1,,,,78,45
222720,note_off,240,0,4,,,,,,,,2,,,,78,64
222720,note_on,0,0,3,,,,,,,,1,,,,76,45
222720,note_off,240,0,3,,,,,,,,1,,,,78,64
222720,note_on,0,0,4,,,,,,,,2,,,,76,30
222955,note_off,235,0,3,,,,,,,,1,,,,76,64
222955,note_off,235,0,4,,,,,,,,2,,,,76,64
222960,note_off,2940,0,8,,,,,,,,6,,,,47,64
222960,note_on,0,0,9,,,,,,,,7,,,,35,71
222960,note_on,0,0,8,,,,,,,,6,,,,47,71
222960,note_off,2940,0,13,,,,,,,,12,,,,47,64
222960,set_tempo,2880,1,0,545454,,,,,,,,,,,,
222960,note_off,2940,0,9,,,,,,,,7,,,,35,64
222960,note_on,5,0,4,,,,,,,,2,,,,71,30
222960,note_on,0,0,13,,,,,,,,12,,,,47,61
222960,note_on,0,0,14,,,,,,,,13,,,,35,61
222960,note_on,5,0,3,,,,,,,,1,,,,71,45
222960,note_off,2940,0,14,,,,,,,,13,,,,35,64
223080,note_off,120,0,3,,,,,,,,1,,,,71,64
223080,note_on,0,0,4,,,,,,,,2,,,,69,31
223080,note_off,120,0,4,,,,,,,,2,,,,71,64
223080,note_on,0,0,3,,,,,,,,1,,,,69,46
223200,note_on,0,0,3,,,,,,,,1,,,,71,47
223200,note_on,0,0,4,,,,,,,,2,,,,71,32
223200,note_off,120,0,4,,,,,,,,2,,,,69,64
223200,note_off,120,0,3,,,,,,,,1,,,,69,64
223440,note_off,240,0,4,,,,,,,,2,,,,71,64
223440,note_on,0,0,4,,,,,,,,2,,,,72,34
223440,note_off,240,0,3,,,,,,,,1,,,,71,64
223440,note_on,0,0,3,,,,,,,,1,,,,72,49
223520,note_off,80,0,4,,,,,,,,2,,,,72,64
223520,note_off,80,0,3,,,,,,,,1,,,,72,64
223680,note_on,160,0,4,,,,,,,,2,,,,74,36
223680,set_tempo,720,1,0,535714,,,,,,,,,,,,
223680,note_on,160,0,3,,,,,,,,1,,,,74,51
223800,note_off,120,0,4,,,,,,,,2,,,,74,64
223800,note_on,0,0,4,,,,,,,,2,,,,72,37
223800,note_on,0,0,3,,,,,,,,1,,,,72,52
223800,note_off,120,0,3,,,,,,,,1,,,,74,64
223920,note_on,0,0,3,,,,,,,,1,,,,74,53
223920,note_off,120,0,3,,,,,,,,1,,,,72,64
223920,note_on,0,0,4,,,,,,,,2,,,,74,38
223920,note_off,120,0,4,,,,,,,,2,,,,72,64
224160,note_off,240,0,4,,,,,,,,2,,,,74,64
224160,note_off,240,0,3,,,,,,,,1,,,,74,64
224160,note_on,0,0,3,,,,,,,,1,,,,76,55
224160,note_on,0,0,4,,,,,,,,2,,,,76,40
224240,note_off,80,0,3,,,,,,,,1,,,,76,64
224240,note_off,80,0,4,,,,,,,,2,,,,76,64
224400,note_on,160,0,3,,,,,,,,1,,,,78,57
224400,set_tempo,720,1,0,526315,,,,,,,,,,,,
224400,note_on,160,0,4,,,,,,,,2,,,,78,42
224520,note_on,0,0,4,,,,,,,,2,,,,76,43
224520,note_off,120,0,4,,,,,,,,2,,,,78,64
224520,note_off,120,0,3,,,,,,,,1,,,,78,64
224520,note_on,0,0,3,,,,,,,,1,,,,76,58
224640,note_on,0,0,3,,,,,,,,1,,,,78,59
224640,note_off,120,0,4,,,,,,,,2,,,,76,64
224640,note_off,120,0,3,,,,,,,,1,,,,76,64
224640,key_signature,240,1,0,,,,,,E,,,,,,,
224640,note_on,0,0,4,,,,,,,,2,,,,78,44
224880,note_on,0,0,4,,,,,,,,2,,,,79,46
224880,note_on,0,0,3,,,,,,,,1,,,,79,62
224880,note_off,240,0,3,,,,,,,,1,,,,78,64
224880,note_off,240,0,4,,,,,,,,2,,,,78,64
224960,note_off,80,0,3,,,,,,,,1,,,,79,64
224960,note_off,80,0,4,,,,,,,,2,,,,79,64
225120,note_on,160,0,3,,,,,,,,1,,,,81,65
225120,set_tempo,480,1,0,500000,,,,,,,,,,,,
225120,note_on,160,0,4,,,,,,,,2,,,,81,48
225240,note_on,0,0,3,,,,,,,,1,,,,79,66
225240,note_off,120,0,3,,,,,,,,1,,,,81,64
225240,note_off,120,0,4,,,,,,,,2,,,,81,64
225240,note_on,0,0,4,,,,,,,,2,,,,79,49
225360,note_off,120,0,4,,,,,,,,2,,,,79,64
225360,note_on,0,0,3,,,,,,,,1,,,,81,67
225360,note_off,120,0,3,,,,,,,,1,,,,79,64
225360,note_on,0,0,4,,,,,,,,2,,,,81,50
225600,note_on,0,0,4,,,,,,,,2,,,,78,53
225600,note_off,240,0,4,,,,,,,,2,,,,81,64
225600,note_on,0,0,3,,,,,,,,1,,,,78,70
225600,note_off,240,0,3,,,,,,,,1,,,,81,64
225680,note_off,80,0,3,,,,,,,,1,,,,78,64
225680,note_off,80,0,4,,,,,,,,2,,,,78,64
225720,note_off,2760,0,14,,,,,,,,13,,,,35,64
225720,note_off,2760,0,13,,,,,,,,12,,,,47,64
225720,note_off,2760,0,8,,,,,,,,6,,,,47,64
225720,note_off,2760,0,9,,,,,,,,7,,,,35,64
225840,note_on,26400,0,15,,,,,,,,14,,,,40,45
225840,note_on,26400,0,2,,,,,,,,0,,,,52,45
225840,note_on,160,0,4,,,,,,,,2,,,,79,56
225840,note_on,120,0,9,,,,,,,,7,,,,40,85
225840,note_on,120,0,8,,,,,,,,6,,,,52,85
225840,note_on,120,0,13,,,,,,,,12,,,,52,70
225840,note_on,120,0,14,,,,,,,,13,,,,40,70
225840,note_on,160,0,3,,,,,,,,1,,,,79,73
226080,note_on,0,0,3,,,,,,,,1,,,,78,76
226080,note_off,240,0,3,,,,,,,,1,,,,79,64
226080,note_on,0,0,4,,,,,,,,2,,,,78,59
226080,note_off,240,0,4,,,,,,,,2,,,,79,64
226320,note_off,240,0,4,,,,,,,,2,,,,78,64
226320,note_off,240,0,3,,,,,,,,1,,,,78,64
226320,note_on,0,0,4,,,,,,,,2,,,,76,62
226320,note_on,0,0,3,,,,,,,,1,,,,76,79
226400,note_off,80,0,4,,,,,,,,2,,,,76,64
226400,note_off,80,0,3,,,,,,,,1,,,,76,64
226480,note_off,640,0,8,,,,,,,,6,,,,52,64
226480,note_off,640,0,15,,,,,,,,14,,,,40,64
226480,note_off,640,0,13,,,,,,,,12,,,,52,64
226480,note_off,640,0,2,,,,,,,,0,,,,52,64
226480,note_off,640,0,14,,,,,,,,13,,,,40,64
226480,note_off,640,0,9,,,,,,,,7,,,,40,64
226560,note_on,80,0,9,,,,,,,,7,,,,35,88
226560,note_on,160,0,4,,,,,,,,2,,,,71,65
226560,note_on,0,0,4,,,,,,,,2,,,,79,65
226560,note_on,80,0,15,,,,,,,,14,,,,35,45
226560,note_on,160,0,3,,,,,,,,1,,,,71,82
226560,note_on,80,0,2,,,,,,,,0,,,,47,45
226560,note_on,0,0,3,,,,,,,,1,,,,79,82
226560,note_on,80,0,13,,,,,,,,12,,,,47,72
226560,note_on,80,0,8,,,,,,,,6,,,,47,88
226560,note_on,80,0,14,,,,,,,,13,,,,35,72
226620,note_on,0,0,4,,,,,,,,2,,,,81,65
226620,note_off,60,0,4,,,,,,,,2,,,,79,64
226620,note_on,0,0,3,,,,,,,,1,,,,81,82
226620,note_off,60,0,3,,,,,,,,1,,,,79,64
226680,note_on,0,0,3,,,,,,,,1,,,,79,82
226680,note_off,60,0,4,,,,,,,,2,,,,81,64
226680,note_on,0,0,4,,,,,,,,2,,,,79,65
226680,note_off,60,0,3,,,,,,,,1,,,,81,64
226740,note_on,0,0,3,,,,,,,,1,,,,81,83
226740,note_off,60,0,3,,,,,,,,1,,,,79,64
226740,note_off,60,0,4,,,,,,,,2,,,,79,64
226740,note_on,0,0,4,,,,,,,,2,,,,81,66
226800,note_off,60,0,3,,,,,,,,1,,,,81,64
226800,note_on,0,0,3,,,,,,,,1,,,,79,84
226800,note_off,60,0,4,,,,,,,,2,,,,81,64
226800,note_on,0,0,4,,,,,,,,2,,,,79,67
226860,note_off,60,0,3,,,,,,,,1,,,,79,64
226860,note_off,60,0,4,,,,,,,,2,,,,79,64
226860,note_on,0,0,4,,,,,,,,2,,,,81,68
226860,note_on,0,0,3,,,,,,,,1,,,,81,85
226920,note_on,0,0,4,,,,,,,,2,,,,79,69
226920,note_off,60,0,4,,,,,,,,2,,,,81,64
226920,note_off,60,0,3,,,,,,,,1,,,,81,64
226920,note_on,0,0,3,,,,,,,,1,,,,79,86
226980,note_on,0,0,3,,,,,,,,1,,,,81,87
226980,note_off,60,0,3,,,,,,,,1,,,,79,64
226980,note_off,60,0,4,,,,,,,,2,,,,79,64
226980,note_on,0,0,4,,,,,,,,2,,,,81,70
227040,note_off,60,0,3,,,,,,,,1,,,,81,64
227040,note_on,0,0,4,,,,,,,,2,,,,79,71
227040,note_off,60,0,4,,,,,,,,2,,,,81,64
227040,note_on,0,0,3,,,,,,,,1,,,,79,88
227100,note_on,0,0,4,,,,,,,,2,,,,81,72
227100,note_on,0,0,3,,,,,,,,1,,,,81,89
227100,note_off,60,0,4,,,,,,,,2,,,,79,64
227100,note_off,60,0,3,,,,,,,,1,,,,79,64
227160,note_on,0,0,3,,,,,,,,1,,,,79,90
227160,note_off,60,0,4,,,,,,,,2,,,,81,64
227160,note_on,0,0,4,,,,,,,,2,,,,79,73
227160,note_off,60,0,3,,,,,,,,1,,,,81,64
227200,note_off,640,0,8,,,,,,,,6,,,,47,64
227200,note_off,40,0,3,,,,,,,,1,,,,71,64
227200,note_off,640,0,13,,,,,,,,12,,,,47,64
227200,note_off,640,0,2,,,,,,,,0,,,,47,64
227200,note_off,640,0,9,,,,,,,,7,,,,35,64
227200,note_off,640,0,14,,,,,,,,13,,,,35,64
227200,note_off,40,0,4,,,,,,,,2,,,,71,64
227200,note_off,640,0,15,,,,,,,,14,,,,35,64
227220,note_on,0,0,3,,,,,,,,1,,,,81,91
227220,note_off,20,0,4,,,,,,,,2,,,,79,64
227220,note_off,20,0,3,,,,,,,,1,,,,79,64
227220,note_on,0,0,4,,,,,,,,2,,,,81,74
227280,note_off,60,0,3,,,,,,,,1,,,,81,64
227280,note_on,22760,0,7,,,,,,,,5,,,,71,92
227280,note_on,0,0,3,,,,,,,,1,,,,80,92
227280,note_on,22760,0,11,,,,,,,,10,,,,76,92
227280,note_on,80,0,14,,,,,,,,13,,,,40,75
227280,note_on,80,0,13,,,,,,,,12,,,,52,75
227280,note_on,22800,0,5,,,,,,,,3,,,,80,108
227280,note_off,60,0,4,,,,,,,,2,,,,81,64
227280,set_tempo,2160,1,0,491803,,,,,,,,,,,,
227280,note_on,22760,0,6,,,,,,,,4,,,,76,108
227280,note_on,0,0,4,,,,,,,,2,,,,80,75
227280,note_on,80,0,9,,,,,,,,7,,,,40,92
227280,note_on,80,0,8,,,,,,,,6,,,,52,92
227280,note_on,22800,0,10,,,,,,,,8,,,,80,92
227280,note_on,22760,0,12,,,,,,,,11,,,,71,75
227395,end_of_track,0,1,4,,,,,,,,,,,,,
227395,note_off,115,0,4,,,,,,,,2,,,,80,64
227395,note_off,115,0,3,,,,,,,,1,,,,80,64
227395,end_of_track,0,1,3,,,,,,,,,,,,,
227640,note_on,0,0,5,,,,,,,,3,,,,81,108
227640,note_on,0,0,10,,,,,,,,8,,,,81,92
227640,note_off,360,0,10,,,,,,,,8,,,,80,64
227640,note_on,0,0,6,,,,,,,,4,,,,78,108
227640,note_off,360,0,6,,,,,,,,4,,,,76,64
227640,note_off,360,0,5,,,,,,,,3,,,,80,64
227640,note_on,0,0,11,,,,,,,,10,,,,78,92
227640,note_off,360,0,11,,,,,,,,10,,,,76,64
227755,note_off,115,0,11,,,,,,,,10,,,,78,64
227755,note_off,115,0,5,,,,,,,,3,,,,81,64
227755,note_off,115,0,6,,,,,,,,4,,,,78,64
227755,note_off,115,0,10,,,,,,,,8,,,,81,64
227760,note_on,5,0,5,,,,,,,,3,,,,80,108
227760,note_on,5,0,6,,,,,,,,4,,,,76,108
227760,note_on,5,0,10,,,,,,,,8,,,,80,92
227760,note_on,5,0,11,,,,,,,,10,,,,76,92
227840,note_off,80,0,6,,,,,,,,4,,,,76,64
227840,note_off,80,0,5,,,,,,,,3,,,,80,64
227995,note_off,235,0,10,,,,,,,,8,,,,80,64
227995,note_off,235,0,11,,,,,,,,10,,,,76,64
228000,note_on,160,0,5,,,,,,,,3,,,,80,108
228000,note_on,5,0,10,,,,,,,,8,,,,80,92
228000,note_on,160,0,6,,,,,,,,4,,,,76,108
228000,note_on,5,0,11,,,,,,,,10,,,,76,92
228480,note_on,0,0,6,,,,,,,,4,,,,78,108
228480,note_on,0,0,5,,,,,,,,3,,,,81,108
228480,note_off,480,0,6,,,,,,,,4,,,,76,64
228480,note_on,0,0,10,,,,,,,,8,,,,81,92
228480,note_off,480,0,10,,,,,,,,8,,,,80,64
228480,note_off,480,0,11,,,,,,,,10,,,,76,64
228480,note_on,0,0,11,,,,,,,,10,,,,78,92
228480,note_off,480,0,5,,,,,,,,3,,,,80,64
228560,note_off,80,0,10,,,,,,,,8,,,,81,64
228560,note_off,80,0,6,,,,,,,,4,,,,78,64
228560,note_off,80,0,5,,,,,,,,3,,,,81,64
228560,note_off,80,0,11,,,,,,,,10,,,,78,64
228720,note_off,1440,0,12,,,,,,,,11,,,,71,64
228720,note_on,0,0,14,,,,,,,,13,,,,40,75
228720,note_off,1440,0,14,,,,,,,,13,,,,40,64
228720,note_on,160,0,6,,,,,,,,4,,,,78,108
228720,note_on,0,0,9,,,,,,,,7,,,,40,92
228720,note_off,1440,0,13,,,,,,,,12,,,,52,64
228720,note_off,1440,0,9,,,,,,,,7,,,,40,64
228720,note_on,0,0,8,,,,,,,,6,,,,52,92
228720,note_off,1440,0,8,,,,,,,,6,,,,52,64
228720,note_on,0,0,13,,,,,,,,12,,,,52,75
228720,note_on,0,0,12,,,,,,,,11,,,,71,75
228720,note_on,160,0,11,,,,,,,,10,,,,78,92
228720,note_on,160,0,10,,,,,,,,8,,,,81,92
228720,note_off,1440,0,7,,,,,,,,5,,,,71,64
228720,note_on,0,0,7,,,,,,,,5,,,,71,92
228720,note_on,160,0,5,,,,,,,,3,,,,81,108
229200,note_on,29720,0,1,,,,,,,,0,,,,59,92
229200,note_on,2000,0,15,,,,,,,,14,,,,35,60
229200,note_on,2000,0,2,,,,,,,,0,,,,47,92
229435,note_off,235,0,1,,,,,,,,0,,,,59,64
229435,note_off,235,0,15,,,,,,,,14,,,,35,64
229435,note_off,235,0,2,,,,,,,,0,,,,47,64
229440,note_on,0,0,11,,,,,,,,10,,,,80,87
229440,note_on,5,0,1,,,,,,,,0,,,,64,92
229440,note_off,720,0,10,,,,,,,,8,,,,81,64
229440,note_on,0,0,10,,,,,,,,8,,,,83,88
229440,note_on,0,0,5,,,,,,,,3,,,,83,102
229440,note_off,720,0,6,,,,,,,,4,,,,78,64
229440,note_on,0,0,6,,,,,,,,4,,,,80,102
229440,note_off,720,0,5,,,,,,,,3,,,,81,64
229440,note_off,720,0,11,,,,,,,,10,,,,78,64
229440,note_on,5,0,15,,,,,,,,14,,,,40,60
229440,note_on,5,0,2,,,,,,,,0,,,,52,92
229840,note_off,400,0,5,,,,,,,,3,,,,83,64
229840,note_off,400,0,1,,,,,,,,0,,,,64,64
229840,note_off,400,0,15,,,,,,,,14,,,,40,64
229840,note_off,400,0,11,,,,,,,,10,,,,80,64
229840,note_off,400,0,6,,,,,,,,4,,,,80,64
229840,note_off,400,0,10,,,,,,,,8,,,,83,64
229840,note_off,400,0,2,,,,,,,,0,,,,52,64
229920,note_on,80,0,2,,,,,,,,0,,,,47,92
229920,note_on,80,0,10,,,,,,,,8,,,,81,86
229920,note_on,80,0,6,,,,,,,,4,,,,78,98
229920,note_on,80,0,1,,,,,,,,0,,,,59,92
229920,note_on,80,0,15,,,,,,,,14,,,,35,60
229920,note_on,80,0,5,,,,,,,,3,,,,81,98
229920,note_on,80,0,11,,,,,,,,10,,,,78,83
230000,note_off,80,0,5,,,,,,,,3,,,,81,64
230000,note_off,80,0,10,,,,,,,,8,,,,81,64
230000,note_off,80,0,6,,,,,,,,4,,,,78,64
230000,note_off,80,0,11,,,,,,,,10,,,,78,64
230155,note_off,235,0,15,,,,,,,,14,,,,35,64
230155,note_off,235,0,1,,,,,,,,0,,,,59,64
230155,note_off,235,0,2,,,,,,,,0,,,,47,64
230160,note_on,160,0,11,,,,,,,,10,,,,76,81
230160,note_on,160,0,10,,,,,,,,8,,,,80,85
230160,note_on,5,0,15,,,,,,,,14,,,,28,60
230160,note_on,5,0,1,,,,,,,,0,,,,52,92
230160,note_off,1440,0,9,,,,,,,,7,,,,40,64
230160,note_on,0,0,9,,,,,,,,7,,,,40,81
230160,note_off,1440,0,14,,,,,,,,13,,,,40,64
230160,note_on,0,0,14,,,,,,,,13,,,,40,68
230160,note_on,0,0,13,,,,,,,,12,,,,52,68
230160,note_off,1440,0,13,,,,,,,,12,,,,52,64
230160,note_on,5,0,2,,,,,,,,0,,,,40,92
230160,note_on,160,0,6,,,,,,,,4,,,,76,96
230160,note_on,0,0,7,,,,,,,,5,,,,71,81
230160,note_off,1440,0,12,,,,,,,,11,,,,71,64
230160,note_on,0,0,12,,,,,,,,11,,,,71,68
230160,note_on,0,0,8,,,,,,,,6,,,,52,81
230160,note_off,1440,0,8,,,,,,,,6,,,,52,64
230160,note_on,160,0,5,,,,,,,,3,,,,80,96
230160,note_off,1440,0,7,,,,,,,,5,,,,71,64
230520,note_off,360,0,11,,,,,,,,10,,,,76,64
230520,note_on,0,0,5,,,,,,,,3,,,,81,93
230520,note_on,0,0,10,,,,,,,,8,,,,81,83
230520,note_off,360,0,5,,,,,,,,3,,,,80,64
230520,note_off,360,0,10,,,,,,,,8,,,,80,64
230520,note_off,360,0,6,,,,,,,,4,,,,76,64
230520,note_on,0,0,6,,,,,,,,4,,,,78,93
230520,note_on,0,0,11,,,,,,,,10,,,,78,78
230635,note_off,115,0,11,,,,,,,,10,,,,78,64
230635,note_off,115,0,10,,,,,,,,8,,,,81,64
230635,note_off,115,0,6,,,,,,,,4,,,,78,64
230635,note_off,115,0,5,,,,,,,,3,,,,81,64
230640,note_on,5,0,6,,,,,,,,4,,,,76,92
230640,note_on,5,0,10,,,,,,,,8,,,,80,83
230640,note_on,5,0,11,,,,,,,,10,,,,76,77
230640,note_on,5,0,5,,,,,,,,3,,,,80,92
230720,note_off,80,0,5,,,,,,,,3,,,,80,64
230720,note_off,80,0,6,,,,,,,,4,,,,76,64
230875,note_off,235,0,10,,,,,,,,8,,,,80,64
230875,note_off,235,0,11,,,,,,,,10,,,,76,64
230880,note_on,160,0,5,,,,,,,,3,,,,80,90
230880,note_on,5,0,11,,,,,,,,10,,,,76,75
230880,note_on,160,0,6,,,,,,,,4,,,,76,90
230880,note_on,5,0,10,,,,,,,,8,,,,80,82
231360,note_off,480,0,5,,,,,,,,3,,,,80,64
231360,note_off,480,0,6,,,,,,,,4,,,,76,64
231360,note_on,0,0,5,,,,,,,,3,,,,81,86
231360,note_off,480,0,10,,,,,,,,8,,,,80,64
231360,note_on,0,0,10,,,,,,,,8,,,,81,80
231360,note_on,0,0,11,,,,,,,,10,,,,78,71
231360,note_off,480,0,11,,,,,,,,10,,,,76,64
231360,note_on,0,0,6,,,,,,,,4,,,,78,86
231440,note_off,80,0,5,,,,,,,,3,,,,81,64
231440,note_off,80,0,6,,,,,,,,4,,,,78,64
231440,note_off,80,0,11,,,,,,,,10,,,,78,64
231440,note_off,80,0,10,,,,,,,,8,,,,81,64
231480,note_off,1320,0,15,,,,,,,,14,,,,28,64
231480,note_off,1320,0,1,,,,,,,,0,,,,52,64
231480,note_off,1320,0,2,,,,,,,,0,,,,40,64
231600,note_on,160,0,11,,,,,,,,10,,,,78,69
231600,note_on,0,0,13,,,,,,,,12,,,,52,61
231600,note_off,1440,0,9,,,,,,,,7,,,,40,64
231600,note_on,0,0,9,,,,,,,,7,,,,40,69
231600,note_off,1440,0,14,,,,,,,,13,,,,40,64
231600,note_on,0,0,14,,,,,,,,13,,,,40,61
231600,note_on,0,0,8,,,,,,,,6,,,,52,69
231600,note_on,160,0,5,,,,,,,,3,,,,81,84
231600,note_off,1440,0,7,,,,,,,,5,,,,71,64
231600,note_on,160,0,6,,,,,,,,4,,,,78,84
231600,note_off,1440,0,13,,,,,,,,12,,,,52,64
231600,note_on,0,0,7,,,,,,,,5,,,,71,69
231600,note_on,160,0,10,,,,,,,,8,,,,81,79
231600,note_off,1440,0,8,,,,,,,,6,,,,52,64
231600,note_on,0,0,12,,,,,,,,11,,,,71,61
231600,note_off,1440,0,12,,,,,,,,11,,,,71,64
232080,note_on,600,0,1,,,,,,,,0,,,,59,72
232080,note_on,600,0,2,,,,,,,,0,,,,47,72
232080,note_on,600,0,15,,,,,,,,14,,,,35,47
232315,note_off,235,0,2,,,,,,,,0,,,,47,64
232315,note_off,235,0,1,,,,,,,,0,,,,59,64
232315,note_off,235,0,15,,,,,,,,14,,,,35,64
232320,note_on,5,0,15,,,,,,,,14,,,,40,46
232320,note_off,720,0,11,,,,,,,,10,,,,78,64
232320,note_off,720,0,6,,,,,,,,4,,,,78,64
232320,note_on,0,0,11,,,,,,,,10,,,,80,63
232320,note_on,5,0,2,,,,,,,,0,,,,52,70
232320,note_on,0,0,5,,,,,,,,3,,,,83,78
232320,note_off,720,0,5,,,,,,,,3,,,,81,64
232320,note_on,0,0,6,,,,,,,,4,,,,80,78
232320,note_on,0,0,10,,,,,,,,8,,,,83,75
232320,note_on,5,0,1,,,,,,,,0,,,,64,70
232320,note_off,720,0,10,,,,,,,,8,,,,81,64
232720,note_off,400,0,5,,,,,,,,3,,,,83,64
232720,note_off,400,0,15,,,,,,,,14,,,,40,64
232720,note_off,400,0,11,,,,,,,,10,,,,80,64
232720,note_off,400,0,6,,,,,,,,4,,,,80,64
232720,note_off,400,0,1,,,,,,,,0,,,,64,64
232720,note_off,400,0,10,,,,,,,,8,,,,83,64
232720,note_off,400,0,2,,,,,,,,0,,,,52,64
232800,note_on,80,0,11,,,,,,,,10,,,,78,59
232800,note_on,80,0,6,,,,,,,,4,,,,78,74
232800,note_on,80,0,5,,,,,,,,3,,,,81,74
232800,note_on,80,0,1,,,,,,,,0,,,,59,65
232800,note_on,80,0,10,,,,,,,,8,,,,81,72
232800,note_on,80,0,15,,,,,,,,14,,,,35,43
232800,note_on,80,0,2,,,,,,,,0,,,,47,65
232880,note_off,80,0,6,,,,,,,,4,,,,78,64
232880,note_off,80,0,10,,,,,,,,8,,,,81,64
232880,note_off,80,0,5,,,,,,,,3,,,,81,64
232880,note_off,80,0,11,,,,,,,,10,,,,78,64
233035,note_off,235,0,15,,,,,,,,14,,,,35,64
233035,note_off,235,0,2,,,,,,,,0,,,,47,64
233035,note_off,235,0,1,,,,,,,,0,,,,59,64
233040,note_on,0,0,8,,,,,,,,6,,,,52,57
233040,note_off,1440,0,7,,,,,,,,5,,,,71,64
233040,note_on,5,0,15,,,,,,,,14,,,,28,42
233040,note_on,5,0,2,,,,,,,,0,,,,40,63
233040,note_on,160,0,10,,,,,,,,8,,,,80,71
233040,note_off,1440,0,8,,,,,,,,6,,,,52,64
233040,note_on,0,0,12,,,,,,,,11,,,,71,53
233040,note_off,1440,0,12,,,,,,,,11,,,,71,64
233040,note_on,160,0,6,,,,,,,,4,,,,76,72
233040,note_off,1440,0,9,,,,,,,,7,,,,40,64
233040,note_on,0,0,9,,,,,,,,7,,,,40,57
233040,note_on,0,0,14,,,,,,,,13,,,,40,53
233040,note_off,1440,0,14,,,,,,,,13,,,,40,64
233040,note_on,0,0,13,,,,,,,,12,,,,52,53
233040,note_off,1440,0,13,,,,,,,,12,,,,52,64
233040,note_on,160,0,11,,,,,,,,10,,,,76,57
233040,note_on,0,0,7,,,,,,,,5,,,,71,57
233040,note_on,5,0,1,,,,,,,,0,,,,52,63
233040,note_on,160,0,5,,,,,,,,3,,,,80,72
233400,note_off,360,0,11,,,,,,,,10,,,,76,64
233400,note_on,0,0,5,,,,,,,,3,,,,81,69
233400,note_on,0,0,6,,,,,,,,4,,,,78,69
233400,note_on,0,0,11,,,,,,,,10,,,,78,54
233400,note_off,360,0,5,,,,,,,,3,,,,80,64
233400,note_on,0,0,10,,,,,,,,8,,,,81,69
233400,note_off,360,0,6,,,,,,,,4,,,,76,64
233400,note_off,360,0,10,,,,,,,,8,,,,80,64
233515,note_off,115,0,5,,,,,,,,3,,,,81,64
233515,note_off,115,0,10,,,,,,,,8,,,,81,64
233515,note_off,115,0,6,,,,,,,,4,,,,78,64
233515,note_off,115,0,11,,,,,,,,10,,,,78,64
233520,note_on,5,0,5,,,,,,,,3,,,,83,68
233520,note_on,5,0,10,,,,,,,,8,,,,83,68
233520,note_on,5,0,11,,,,,,,,10,,,,80,53
233520,note_on,5,0,6,,,,,,,,4,,,,80,68
233600,note_off,80,0,6,,,,,,,,4,,,,80,64
233600,note_off,80,0,5,,,,,,,,3,,,,83,64
233680,note_off,640,0,15,,,,,,,,14,,,,28,64
233680,note_off,640,0,1,,,,,,,,0,,,,52,64
233680,note_off,640,0,2,,,,,,,,0,,,,40,64
233755,note_off,235,0,11,,,,,,,,10,,,,80,64
233755,note_off,235,0,10,,,,,,,,8,,,,83,64
233760,note_on,80,0,15,,,,,,,,14,,,,28,36
233760,note_on,160,0,6,,,,,,,,4,,,,80,66
233760,note_on,5,0,10,,,,,,,,8,,,,83,66
233760,note_on,5,0,11,,,,,,,,10,,,,80,51
233760,note_on,80,0,1,,,,,,,,0,,,,52,54
233760,note_on,160,0,5,,,,,,,,3,,,,83,66
233760,note_on,80,0,2,,,,,,,,0,,,,40,54
234120,note_off,360,0,6,,,,,,,,4,,,,80,64
234120,note_on,0,0,6,,,,,,,,4,,,,78,63
234120,note_off,360,0,10,,,,,,,,8,,,,83,64
234120,note_on,0,0,10,,,,,,,,8,,,,81,63
234120,note_on,0,0,11,,,,,,,,10,,,,78,48
234120,note_off,360,0,5,,,,,,,,3,,,,83,64
234120,note_on,0,0,5,,,,,,,,3,,,,81,63
234120,note_off,360,0,11,,,,,,,,10,,,,80,64
234235,note_off,115,0,11,,,,,,,,10,,,,78,64
234235,note_off,115,0,6,,,,,,,,4,,,,78,64
234235,note_off,115,0,10,,,,,,,,8,,,,81,64
234235,note_off,115,0,5,,,,,,,,3,,,,81,64
234240,note_on,5,0,10,,,,,,,,8,,,,80,62
234240,note_on,5,0,11,,,,,,,,10,,,,76,47
234240,note_on,5,0,5,,,,,,,,3,,,,80,62
234240,note_on,5,0,6,,,,,,,,4,,,,76,62
234320,note_off,80,0,6,,,,,,,,4,,,,76,64
234320,note_off,80,0,5,,,,,,,,3,,,,80,64
234400,note_off,640,0,2,,,,,,,,0,,,,40,64
234400,end_of_track,0,1,1,,,,,,,,,,,,,
234400,note_off,640,0,1,,,,,,,,0,,,,52,64
234400,note_off,640,0,15,,,,,,,,14,,,,28,64
234475,note_off,235,0,10,,,,,,,,8,,,,80,64
234475,note_off,235,0,11,,,,,,,,10,,,,76,64
234480,note_on,0,0,7,,,,,,,,5,,,,71,45
234480,note_off,1440,0,12,,,,,,,,11,,,,71,64
234480,note_on,0,0,12,,,,,,,,11,,,,71,45
234480,note_on,160,0,6,,,,,,,,4,,,,75,60
234480,note_on,160,0,5,,,,,,,,3,,,,78,60
234480,note_on,0,0,9,,,,,,,,7,,,,35,45
234480,note_on,0,0,8,,,,,,,,6,,,,47,45
234480,note_on,0,0,14,,,,,,,,13,,,,35,45
234480,note_off,1440,0,14,,,,,,,,13,,,,40,64
234480,note_on,80,0,15,,,,,,,,14,,,,35,30
234480,note_off,1440,0,7,,,,,,,,5,,,,71,64
234480,note_on,0,0,13,,,,,,,,12,,,,47,45
234480,note_off,1440,0,9,,,,,,,,7,,,,40,64
234480,note_off,1440,0,8,,,,,,,,6,,,,52,64
234480,note_off,1440,0,13,,,,,,,,12,,,,52,64
234480,note_on,5,0,10,,,,,,,,8,,,,78,60
234480,note_on,5,0,11,,,,,,,,10,,,,75,45
234840,note_off,360,0,6,,,,,,,,4,,,,75,64
234840,note_on,0,0,6,,,,,,,,4,,,,73,60
234840,note_off,360,0,11,,,,,,,,10,,,,75,64
234840,note_on,0,0,5,,,,,,,,3,,,,76,60
234840,note_off,360,0,10,,,,,,,,8,,,,78,64
234840,note_on,0,0,10,,,,,,,,8,,,,76,60
234840,note_off,360,0,5,,,,,,,,3,,,,78,64
234840,note_on,0,0,11,,,,,,,,10,,,,73,45
234960,note_on,0,0,10,,,,,,,,8,,,,75,60
234960,note_off,120,0,10,,,,,,,,8,,,,76,64
234960,note_off,120,0,11,,,,,,,,10,,,,73,64
234960,note_on,0,0,5,,,,,,,,3,,,,75,60
234960,note_off,120,0,5,,,,,,,,3,,,,76,64
234960,note_off,120,0,6,,,,,,,,4,,,,73,64
234960,note_on,0,0,6,,,,,,,,4,,,,71,60
234960,note_on,0,0,11,,,,,,,,10,,,,71,45
234960,note_on,560,0,2,,,,,,,,0,,,,35,45
235040,note_off,80,0,5,,,,,,,,3,,,,75,64
235040,note_off,80,0,6,,,,,,,,4,,,,71,64
235040,note_off,80,0,10,,,,,,,,8,,,,75,64
235040,note_off,80,0,11,,,,,,,,10,,,,71,64
235195,note_off,235,0,2,,,,,,,,0,,,,35,64
235200,note_on,160,0,11,,,,,,,,10,,,,71,45
235200,note_on,160,0,6,,,,,,,,4,,,,71,60
235200,note_on,160,0,5,,,,,,,,3,,,,75,60
235200,note_on,5,0,2,,,,,,,,0,,,,47,45
235200,note_on,160,0,10,,,,,,,,8,,,,75,60
235560,note_on,0,0,6,,,,,,,,4,,,,73,60
235560,note_on,0,0,5,,,,,,,,3,,,,76,60
235560,note_off,360,0,5,,,,,,,,3,,,,75,64
235560,note_off,360,0,6,,,,,,,,4,,,,71,64
235560,note_on,0,0,10,,,,,,,,8,,,,76,60
235560,note_off,360,0,10,,,,,,,,8,,,,75,64
235560,note_off,360,0,11,,,,,,,,10,,,,71,64
235560,note_on,0,0,11,,,,,,,,10,,,,73,45
235600,note_off,400,0,2,,,,,,,,0,,,,47,64
235680,note_on,0,0,5,,,,,,,,3,,,,78,60
235680,note_on,80,0,2,,,,,,,,0,,,,35,45
235680,note_on,0,0,10,,,,,,,,8,,,,78,60
235680,note_off,120,0,10,,,,,,,,8,,,,76,64
235680,note_on,0,0,6,,,,,,,,4,,,,75,60
235680,note_off,120,0,11,,,,,,,,10,,,,73,64
235680,note_on,0,0,11,,,,,,,,10,,,,75,45
235680,note_off,120,0,5,,,,,,,,3,,,,76,64
235680,note_off,120,0,6,,,,,,,,4,,,,73,64
235760,note_off,80,0,5,,,,,,,,3,,,,78,64
235760,note_off,80,0,6,,,,,,,,4,,,,75,64
235760,note_off,80,0,10,,,,,,,,8,,,,78,64
235760,note_off,80,0,11,,,,,,,,10,,,,75,64
235800,note_off,1320,0,12,,,,,,,,11,,,,71,64
235800,note_off,1320,0,15,,,,,,,,14,,,,35,64
235800,note_off,1320,0,7,,,,,,,,5,,,,71,64
235915,note_off,235,0,2,,,,,,,,0,,,,35,64
235920,note_off,1440,0,9,,,,,,,,7,,,,35,64
235920,note_on,160,0,10,,,,,,,,8,,,,78,60
235920,note_on,120,0,15,,,,,,,,14,,,,35,30
235920,note_on,160,0,11,,,,,,,,10,,,,75,45
235920,note_off,1440,0,8,,,,,,,,6,,,,47,64
235920,note_on,0,0,8,,,,,,,,6,,,,47,45
235920,note_off,1440,0,14,,,,,,,,13,,,,35,64
235920,note_on,0,0,14,,,,,,,,13,,,,35,45
235920,note_on,120,0,7,,,,,,,,5,,,,69,45
235920,note_on,160,0,5,,,,,,,,3,,,,78,60
235920,note_on,0,0,13,,,,,,,,12,,,,47,45
235920,note_off,1440,0,13,,,,,,,,12,,,,47,64
235920,note_on,160,0,6,,,,,,,,4,,,,75,60
235920,note_on,120,0,12,,,,,,,,11,,,,69,45
235920,note_on,0,0,9,,,,,,,,7,,,,35,45
235920,note_on,5,0,2,,,,,,,,0,,,,47,45
236280,note_off,360,0,5,,,,,,,,3,,,,78,64
236280,note_on,0,0,5,,,,,,,,3,,,,80,60
236280,note_on,0,0,11,,,,,,,,10,,,,76,45
236280,note_off,360,0,10,,,,,,,,8,,,,78,64
236280,note_on,0,0,10,,,,,,,,8,,,,80,60
236280,note_off,360,0,11,,,,,,,,10,,,,75,64
236280,note_on,0,0,6,,,,,,,,4,,,,76,60
236280,note_off,360,0,6,,,,,,,,4,,,,75,64
236320,note_off,400,0,2,,,,,,,,0,,,,47,64
236400,note_on,0,0,11,,,,,,,,10,,,,78,45
236400,note_off,120,0,11,,,,,,,,10,,,,76,64
236400,note_on,0,0,6,,,,,,,,4,,,,78,60
236400,note_off,120,0,10,,,,,,,,8,,,,80,64
236400,note_on,80,0,2,,,,,,,,0,,,,35,45
236400,note_off,120,0,6,,,,,,,,4,,,,76,64
236400,note_off,120,0,5,,,,,,,,3,,,,80,64
236400,note_on,0,0,5,,,,,,,,3,,,,81,60
236400,note_on,0,0,10,,,,,,,,8,,,,81,60
236480,note_off,80,0,5,,,,,,,,3,,,,81,64
236480,note_off,80,0,6,,,,,,,,4,,,,78,64
236480,note_off,80,0,11,,,,,,,,10,,,,78,64
236480,note_off,80,0,10,,,,,,,,8,,,,81,64
236635,note_off,235,0,2,,,,,,,,0,,,,35,64
236640,note_on,160,0,11,,,,,,,,10,,,,78,45
236640,note_on,160,0,10,,,,,,,,8,,,,81,60
236640,note_on,5,0,2,,,,,,,,0,,,,47,45
236640,note_on,160,0,6,,,,,,,,4,,,,78,60
236640,note_on,160,0,5,,,,,,,,3,,,,81,60
237000,note_off,360,0,10,,,,,,,,8,,,,81,64
237000,note_on,0,0,5,,,,,,,,3,,,,80,64
237000,note_off,360,0,5,,,,,,,,3,,,,81,64
237000,note_on,0,0,10,,,,,,,,8,,,,80,63
237000,note_off,360,0,6,,,,,,,,4,,,,78,64
237000,note_on,0,0,6,,,,,,,,4,,,,76,64
237000,note_on,0,0,11,,,,,,,,10,,,,76,48
237000,note_off,360,0,11,,,,,,,,10,,,,78,64
237040,note_off,400,0,2,,,,,,,,0,,,,47,64
237120,note_off,120,0,6,,,,,,,,4,,,,76,64
237120,note_off,120,0,5,,,,,,,,3,,,,80,64
237120,note_on,0,0,5,,,,,,,,3,,,,78,65
237120,note_on,0,0,10,,,,,,,,8,,,,78,64
237120,note_on,0,0,6,,,,,,,,4,,,,75,65
237120,note_on,0,0,11,,,,,,,,10,,,,75,49
237120,note_off,120,0,11,,,,,,,,10,,,,76,64
237120,note_off,120,0,10,,,,,,,,8,,,,80,64
237120,note_on,80,0,2,,,,,,,,0,,,,35,47
237200,note_off,80,0,11,,,,,,,,10,,,,75,64
237200,note_off,80,0,10,,,,,,,,8,,,,78,64
237200,note_off,80,0,5,,,,,,,,3,,,,78,64
237200,note_off,80,0,6,,,,,,,,4,,,,75,64
237240,note_off,1320,0,15,,,,,,,,14,,,,35,64
237355,note_off,235,0,2,,,,,,,,0,,,,35,64
237360,note_off,1440,0,12,,,,,,,,11,,,,69,64
237360,note_on,160,0,11,,,,,,,,10,,,,75,51
237360,note_on,0,0,14,,,,,,,,13,,,,35,55
237360,note_off,1440,0,14,,,,,,,,13,,,,35,64
237360,note_on,160,0,10,,,,,,,,8,,,,78,66
237360,note_off,1440,0,9,,,,,,,,7,,,,35,64
237360,note_on,0,0,9,,,,,,,,7,,,,35,60
237360,note_on,0,0,12,,,,,,,,11,,,,69,45
237360,note_off,1440,0,7,,,,,,,,5,,,,69,64
237360,note_on,160,0,5,,,,,,,,3,,,,78,68
237360,note_off,1440,0,8,,,,,,,,6,,,,47,64
237360,note_on,120,0,15,,,,,,,,14,,,,35,40
237360,note_off,1440,0,13,,,,,,,,12,,,,47,64
237360,note_on,0,0,7,,,,,,,,5,,,,69,45
237360,note_on,160,0,6,,,,,,,,4,,,,75,68
237360,note_on,0,0,8,,,,,,,,6,,,,47,60
237360,note_on,0,0,13,,,,,,,,12,,,,47,55
237720,note_off,360,0,10,,,,,,,,8,,,,78,64
237720,note_on,0,0,11,,,,,,,,10,,,,73,54
237720,note_on,0,0,10,,,,,,,,8,,,,76,69
237720,note_off,360,0,11,,,,,,,,10,,,,75,64
237720,note_on,0,0,6,,,,,,,,4,,,,73,73
237720,note_off,360,0,6,,,,,,,,4,,,,75,64
237720,note_off,360,0,5,,,,,,,,3,,,,78,64
237720,note_on,0,0,5,,,,,,,,3,,,,76,73
237840,note_on,0,0,11,,,,,,,,10,,,,71,55
237840,note_on,0,0,10,,,,,,,,8,,,,75,70
237840,note_off,120,0,11,,,,,,,,10,,,,73,64
237840,note_on,0,0,6,,,,,,,,4,,,,71,74
237840,note_off,120,0,5,,,,,,,,3,,,,76,64
237840,note_on,485,0,2,,,,,,,,0,,,,35,50
237840,note_on,0,0,5,,,,,,,,3,,,,75,74
237840,note_off,120,0,6,,,,,,,,4,,,,73,64
237840,note_off,120,0,10,,,,,,,,8,,,,76,64
237920,note_off,80,0,5,,,,,,,,3,,,,75,64
237920,note_off,80,0,10,,,,,,,,8,,,,75,64
237920,note_off,80,0,6,,,,,,,,4,,,,71,64
237920,note_off,80,0,11,,,,,,,,10,,,,71,64
238075,note_off,235,0,2,,,,,,,,0,,,,35,64
238080,note_on,5,0,2,,,,,,,,0,,,,47,51
238080,note_on,160,0,6,,,,,,,,4,,,,71,77
238080,note_on,160,0,11,,,,,,,,10,,,,71,57
238080,note_on,160,0,10,,,,,,,,8,,,,75,72
238080,note_on,160,0,5,,,,,,,,3,,,,75,77
238440,note_off,360,0,11,,,,,,,,10,,,,71,64
238440,note_on,0,0,5,,,,,,,,3,,,,76,82
238440,note_off,360,0,6,,,,,,,,4,,,,71,64
238440,note_on,0,0,6,,,,,,,,4,,,,73,82
238440,note_off,360,0,10,,,,,,,,8,,,,75,64
238440,note_on,0,0,11,,,,,,,,10,,,,73,60
238440,note_on,0,0,10,,,,,,,,8,,,,76,75
238440,note_off,360,0,5,,,,,,,,3,,,,75,64
238480,note_off,400,0,2,,,,,,,,0,,,,47,64
238560,note_on,0,0,6,,,,,,,,4,,,,75,83
238560,note_off,120,0,6,,,,,,,,4,,,,73,64
238560,note_off,120,0,10,,,,,,,,8,,,,76,64
238560,note_on,80,0,2,,,,,,,,0,,,,35,53
238560,note_on,0,0,5,,,,,,,,3,,,,78,83
238560,note_off,120,0,5,,,,,,,,3,,,,76,64
238560,note_on,0,0,10,,,,,,,,8,,,,78,76
238560,note_off,120,0,11,,,,,,,,10,,,,73,64
238560,note_on,0,0,11,,,,,,,,10,,,,75,61
238640,note_off,80,0,10,,,,,,,,8,,,,78,64
238640,note_off,80,0,5,,,,,,,,3,,,,78,64
238640,note_off,80,0,11,,,,,,,,10,,,,75,64
238640,note_off,80,0,6,,,,,,,,4,,,,75,64
238680,note_off,1320,0,15,,,,,,,,14,,,,35,64
238795,note_off,235,0,2,,,,,,,,0,,,,35,64
238800,note_off,1440,0,12,,,,,,,,11,,,,69,64
238800,note_on,0,0,12,,,,,,,,11,,,,69,60
238800,note_on,160,0,11,,,,,,,,10,,,,75,63
238800,note_on,0,0,7,,,,,,,,5,,,,69,68
238800,note_on,120,0,15,,,,,,,,14,,,,35,50
238800,note_on,5,0,2,,,,,,,,0,,,,47,54
238800,note_on,0,0,9,,,,,,,,7,,,,35,76
238800,note_off,1440,0,9,,,,,,,,7,,,,35,64
238800,note_on,160,0,10,,,,,,,,8,,,,78,78
238800,note_off,1440,0,7,,,,,,,,5,,,,69,64
238800,note_on,0,0,8,,,,,,,,6,,,,47,76
238800,note_off,1440,0,8,,,,,,,,6,,,,47,64
238800,note_on,160,0,6,,,,,,,,4,,,,75,86
238800,note_on,0,0,13,,,,,,,,12,,,,47,65
238800,note_off,1440,0,13,,,,,,,,12,,,,47,64
238800,note_on,160,0,5,,,,,,,,3,,,,78,86
238800,note_on,0,0,14,,,,,,,,13,,,,35,65
238800,note_off,1440,0,14,,,,,,,,13,,,,35,64
239160,note_off,360,0,10,,,,,,,,8,,,,78,64
239160,note_on,0,0,10,,,,,,,,8,,,,80,81
239160,note_on,0,0,6,,,,,,,,4,,,,76,91
239160,note_off,360,0,5,,,,,,,,3,,,,78,64
239160,note_off,360,0,6,,,,,,,,4,,,,75,64
239160,note_on,0,0,11,,,,,,,,10,,,,76,66
239160,note_off,360,0,11,,,,,,,,10,,,,75,64
239160,note_on,0,0,5,,,,,,,,3,,,,80,91
239200,note_off,400,0,2,,,,,,,,0,,,,47,64
239280,note_on,0,0,10,,,,,,,,8,,,,81,82
239280,note_off,120,0,11,,,,,,,,10,,,,76,64
239280,note_on,0,0,11,,,,,,,,10,,,,78,67
239280,note_off,120,0,6,,,,,,,,4,,,,76,64
239280,note_off,120,0,10,,,,,,,,8,,,,80,64
239280,note_on,0,0,6,,,,,,,,4,,,,78,92
239280,note_on,0,0,5,,,,,,,,3,,,,81,92
239280,note_on,80,0,2,,,,,,,,0,,,,35,56
239280,note_off,120,0,5,,,,,,,,3,,,,80,64
239360,note_off,80,0,10,,,,,,,,8,,,,81,64
239360,note_off,80,0,6,,,,,,,,4,,,,78,64
239360,note_off,80,0,5,,,,,,,,3,,,,81,64
239360,note_off,80,0,11,,,,,,,,10,,,,78,64
239440,note_off,640,0,12,,,,,,,,11,,,,69,64
239440,note_off,640,0,7,,,,,,,,5,,,,69,64
239515,note_off,235,0,2,,,,,,,,0,,,,35,64
239520,note_on,80,0,7,,,,,,,,5,,,,63,80
239520,note_on,160,0,11,,,,,,,,10,,,,78,69
239520,note_on,160,0,10,,,,,,,,8,,,,81,84
239520,note_on,160,0,5,,,,,,,,3,,,,81,96
239520,note_on,5,0,2,,,,,,,,0,,,,47,57
239520,note_on,160,0,6,,,,,,,,4,,,,78,96
239520,note_on,80,0,12,,,,,,,,11,,,,63,67
239880,note_on,0,0,6,,,,,,,,4,,,,76,102
239880,note_on,0,0,11,,,,,,,,10,,,,76,72
239880,note_on,0,0,5,,,,,,,,3,,,,80,102
239880,note_off,360,0,5,,,,,,,,3,,,,81,64
239880,note_off,360,0,10,,,,,,,,8,,,,81,64
239880,note_on,0,0,10,,,,,,,,8,,,,80,88
239880,note_off,360,0,6,,,,,,,,4,,,,78,64
239880,note_off,360,0,11,,,,,,,,10,,,,78,64
239920,note_off,400,0,2,,,,,,,,0,,,,47,64
240000,note_off,120,0,5,,,,,,,,3,,,,80,64
240000,note_off,120,0,6,,,,,,,,4,,,,76,64
240000,note_on,0,0,5,,,,,,,,3,,,,78,104
240000,note_on,0,0,6,,,,,,,,4,,,,75,104
240000,note_on,0,0,11,,,,,,,,10,,,,75,73
240000,note_off,120,0,10,,,,,,,,8,,,,80,64
240000,note_on,0,0,10,,,,,,,,8,,,,78,89
240000,note_on,80,0,2,,,,,,,,0,,,,35,59
240000,note_off,120,0,11,,,,,,,,10,,,,76,64
240080,note_off,80,0,11,,,,,,,,10,,,,75,64
240080,note_off,80,0,6,,,,,,,,4,,,,75,64
240080,note_off,80,0,10,,,,,,,,8,,,,78,64
240080,note_off,80,0,5,,,,,,,,3,,,,78,64
240120,note_off,1320,0,15,,,,,,,,14,,,,35,64
240160,note_off,640,0,12,,,,,,,,11,,,,63,64
240160,note_off,640,0,7,,,,,,,,5,,,,63,64
240235,note_off,235,0,2,,,,,,,,0,,,,35,64
240240,note_on,160,0,10,,,,,,,,8,,,,80,92
240240,note_on,0,0,8,,,,,,,,6,,,,52,92
240240,note_on,160,0,6,,,,,,,,4,,,,76,108
240240,note_on,0,0,13,,,,,,,,12,,,,52,75
240240,note_on,0,0,9,,,,,,,,7,,,,40,92
240240,note_on,120,0,15,,,,,,,,14,,,,40,60
240240,note_off,1440,0,9,,,,,,,,7,,,,35,64
240240,note_off,1440,0,8,,,,,,,,6,,,,47,64
240240,note_on,0,0,14,,,,,,,,13,,,,40,75
240240,note_off,1440,0,14,,,,,,,,13,,,,35,64
240240,note_off,1440,0,13,,,,,,,,12,,,,47,64
240240,note_on,80,0,12,,,,,,,,11,,,,59,75
240240,note_on,160,0,11,,,,,,,,10,,,,76,75
240240,note_on,80,0,7,,,,,,,,5,,,,59,92
240240,note_on,160,0,5,,,,,,,,3,,,,80,108
240720,note_on,485,0,2,,,,,,,,0,,,,40,60
240880,note_off,640,0,12,,,,,,,,11,,,,59,64
240880,note_off,640,0,11,,,,,,,,10,,,,76,64
240880,note_off,640,0,6,,,,,,,,4,,,,76,64
240880,note_off,640,0,5,,,,,,,,3,,,,80,64
240880,note_off,640,0,10,,,,,,,,8,,,,80,64
240880,note_off,640,0,7,,,,,,,,5,,,,59,64
240955,note_off,235,0,2,,,,,,,,0,,,,40,64
240960,note_on,80,0,7,,,,,,,,5,,,,64,92
240960,note_on,80,0,5,,,,,,,,3,,,,85,108
240960,note_on,80,0,11,,,,,,,,10,,,,81,75
240960,note_on,80,0,12,,,,,,,,11,,,,64,75
240960,note_on,80,0,10,,,,,,,,8,,,,85,92
240960,note_on,5,0,2,,,,,,,,0,,,,52,60
240960,note_on,80,0,6,,,,,,,,4,,,,81,108
241360,note_off,400,0,2,,,,,,,,0,,,,52,64
241440,note_on,80,0,2,,,,,,,,0,,,,40,60
241560,note_off,1320,0,15,,,,,,,,14,,,,40,64
241675,note_off,235,0,2,,,,,,,,0,,,,40,64
241680,note_on,0,0,13,,,,,,,,12,,,,52,75
241680,note_off,720,0,12,,,,,,,,11,,,,64,64
241680,note_on,0,0,6,,,,,,,,4,,,,80,108
241680,note_on,0,0,5,,,,,,,,3,,,,83,108
241680,note_off,720,0,10,,,,,,,,8,,,,85,64
241680,note_on,0,0,8,,,,,,,,6,,,,52,92
241680,note_off,720,0,11,,,,,,,,10,,,,81,64
241680,note_off,1440,0,8,,,,,,,,6,,,,52,64
241680,note_on,0,0,11,,,,,,,,10,,,,80,75
241680,note_on,0,0,10,,,,,,,,8,,,,83,92
241680,note_off,1440,0,13,,,,,,,,12,,,,52,64
241680,note_off,720,0,5,,,,,,,,3,,,,85,64
241680,note_on,0,0,7,,,,,,,,5,,,,64,92
241680,note_on,0,0,12,,,,,,,,11,,,,64,75
241680,note_off,720,0,6,,,,,,,,4,,,,81,64
241680,note_on,120,0,15,,,,,,,,14,,,,40,60
241680,note_off,1440,0,14,,,,,,,,13,,,,40,64
241680,note_on,0,0,14,,,,,,,,13,,,,40,75
241680,note_off,720,0,7,,,,,,,,5,,,,64,64
241680,note_on,5,0,2,,,,,,,,0,,,,52,60
241680,note_on,0,0,9,,,,,,,,7,,,,40,92
241680,note_off,1440,0,9,,,,,,,,7,,,,40,64
242080,note_off,400,0,2,,,,,,,,0,,,,52,64
242160,note_on,80,0,2,,,,,,,,0,,,,40,59
242395,note_off,235,0,2,,,,,,,,0,,,,40,64
242400,note_off,720,0,11,,,,,,,,10,,,,80,64
242400,note_off,720,0,6,,,,,,,,4,,,,80,64
242400,note_off,720,0,12,,,,,,,,11,,,,64,64
242400,note_on,0,0,12,,,,,,,,11,,,,64,72
242400,note_on,0,0,6,,,,,,,,4,,,,78,103
242400,note_on,0,0,10,,,,,,,,8,,,,81,87
242400,note_on,0,0,11,,,,,,,,10,,,,78,72
242400,note_on,0,0,5,,,,,,,,3,,,,81,103
242400,note_off,720,0,10,,,,,,,,8,,,,83,64
242400,note_off,720,0,7,,,,,,,,5,,,,64,64
242400,note_on,0,0,7,,,,,,,,5,,,,64,87
242400,note_on,5,0,2,,,,,,,,0,,,,52,59
242400,note_off,720,0,5,,,,,,,,3,,,,83,64
242800,note_off,400,0,2,,,,,,,,0,,,,52,64
242880,note_on,80,0,2,,,,,,,,0,,,,40,58
243000,note_off,1320,0,15,,,,,,,,14,,,,40,64
243115,note_off,235,0,2,,,,,,,,0,,,,40,64
243120,note_off,1440,0,13,,,,,,,,12,,,,52,64
243120,note_off,720,0,5,,,,,,,,3,,,,81,64
243120,note_on,0,0,13,,,,,,,,12,,,,52,69
243120,note_off,1440,0,14,,,,,,,,13,,,,40,64
243120,note_on,0,0,14,,,,,,,,13,,,,40,69
243120,note_on,120,0,15,,,,,,,,14,,,,40,54
243120,note_on,0,0,12,,,,,,,,11,,,,71,69
243120,note_off,720,0,12,,,,,,,,11,,,,64,64
243120,note_off,1440,0,9,,,,,,,,7,,,,40,64
243120,note_on,5,0,2,,,,,,,,0,,,,52,58
243120,note_on,0,0,5,,,,,,,,3,,,,80,98
243120,note_on,0,0,9,,,,,,,,7,,,,40,82
243120,note_off,720,0,6,,,,,,,,4,,,,78,64
243120,note_off,720,0,11,,,,,,,,10,,,,78,64
243120,note_on,0,0,11,,,,,,,,10,,,,76,69
243120,note_on,0,0,6,,,,,,,,4,,,,76,98
243120,note_on,0,0,10,,,,,,,,8,,,,80,82
243120,note_off,720,0,10,,,,,,,,8,,,,81,64
243120,note_off,1440,0,8,,,,,,,,6,,,,52,64
243120,note_on,0,0,8,,,,,,,,6,,,,52,82
243120,note_on,0,0,7,,,,,,,,5,,,,71,82
243120,note_off,720,0,7,,,,,,,,5,,,,64,64
243480,note_off,360,0,6,,,,,,,,4,,,,76,64
243480,note_on,0,0,6,,,,,,,,4,,,,78,96
243480,note_off,360,0,5,,,,,,,,3,,,,80,64
243480,note_on,0,0,10,,,,,,,,8,,,,81,80
243480,note_off,360,0,11,,,,,,,,10,,,,76,64
243480,note_on,0,0,11,,,,,,,,10,,,,78,68
243480,note_off,360,0,10,,,,,,,,8,,,,80,64
243480,note_on,0,0,5,,,,,,,,3,,,,81,96
243520,note_off,400,0,8,,,,,,,,6,,,,52,64
243520,note_off,400,0,2,,,,,,,,0,,,,52,64
243520,note_off,400,0,15,,,,,,,,14,,,,40,64
243520,note_off,400,0,14,,,,,,,,13,,,,40,64
243520,note_off,400,0,13,,,,,,,,12,,,,52,64
243520,note_off,400,0,9,,,,,,,,7,,,,40,64
243595,note_off,115,0,5,,,,,,,,3,,,,81,64
243595,note_off,115,0,6,,,,,,,,4,,,,78,64
243595,note_off,115,0,10,,,,,,,,8,,,,81,64
243595,note_off,115,0,11,,,,,,,,10,,,,78,64
243600,note_on,5,0,6,,,,,,,,4,,,,76,96
243600,note_on,80,0,15,,,,,,,,14,,,,28,52
243600,note_on,80,0,14,,,,,,,,13,,,,28,67
243600,note_on,5,0,10,,,,,,,,8,,,,80,80
243600,note_on,5,0,11,,,,,,,,10,,,,76,68
243600,note_on,5,0,5,,,,,,,,3,,,,80,96
243600,note_on,80,0,13,,,,,,,,12,,,,40,67
243600,note_on,80,0,8,,,,,,,,6,,,,40,79
243600,note_on,80,0,9,,,,,,,,7,,,,28,79
243600,note_on,80,0,2,,,,,,,,0,,,,40,57
243680,note_off,80,0,6,,,,,,,,4,,,,76,64
243680,note_off,80,0,5,,,,,,,,3,,,,80,64
243835,note_off,235,0,15,,,,,,,,14,,,,28,64
243835,note_off,235,0,2,,,,,,,,0,,,,40,64
243835,note_off,235,0,14,,,,,,,,13,,,,28,64
243835,note_off,235,0,9,,,,,,,,7,,,,28,64
243835,note_off,235,0,13,,,,,,,,12,,,,40,64
243835,note_off,235,0,11,,,,,,,,10,,,,76,64
243835,note_off,235,0,10,,,,,,,,8,,,,80,64
243835,note_off,235,0,8,,,,,,,,6,,,,40,64
243840,note_on,5,0,15,,,,,,,,14,,,,47,51
243840,note_on,5,0,2,,,,,,,,0,,,,59,57
243840,note_on,5,0,9,,,,,,,,7,,,,47,78
243840,note_off,720,0,12,,,,,,,,11,,,,71,64
243840,note_on,0,0,12,,,,,,,,11,,,,64,66
243840,note_off,720,0,7,,,,,,,,5,,,,71,64
243840,note_on,0,0,7,,,,,,,,5,,,,64,77
243840,note_on,5,0,14,,,,,,,,13,,,,47,66
243840,note_on,5,0,10,,,,,,,,8,,,,85,79
243840,set_tempo,16560,1,0,500000,,,,,,,,,,,,
243840,note_on,5,0,8,,,,,,,,6,,,,59,78
243840,note_on,5,0,11,,,,,,,,10,,,,81,67
243840,note_on,160,0,6,,,,,,,,4,,,,81,95
243840,note_on,5,0,13,,,,,,,,12,,,,59,66
243840,note_on,160,0,5,,,,,,,,3,,,,85,95
244240,note_off,400,0,13,,,,,,,,12,,,,59,64
244240,note_off,400,0,9,,,,,,,,7,,,,47,64
244240,note_off,400,0,14,,,,,,,,13,,,,47,64
244240,note_off,400,0,2,,,,,,,,0,,,,59,64
244240,note_off,400,0,15,,,,,,,,14,,,,47,64
244240,note_off,400,0,8,,,,,,,,6,,,,59,64
244320,note_on,80,0,9,,,,,,,,7,,,,35,75
244320,note_on,80,0,14,,,,,,,,13,,,,35,64
244320,note_on,80,0,13,,,,,,,,12,,,,47,64
244320,note_on,80,0,15,,,,,,,,14,,,,35,49
244320,note_on,80,0,8,,,,,,,,6,,,,47,75
244320,note_on,80,0,2,,,,,,,,0,,,,47,56
244555,note_off,235,0,9,,,,,,,,7,,,,35,64
244555,note_off,235,0,14,,,,,,,,13,,,,35,64
244555,note_off,235,0,15,,,,,,,,14,,,,35,64
244555,note_off,235,0,13,,,,,,,,12,,,,47,64
244555,note_off,235,0,8,,,,,,,,6,,,,47,64
244555,note_off,235,0,2,,,,,,,,0,,,,47,64
244560,note_off,720,0,6,,,,,,,,4,,,,81,64
244560,note_on,5,0,14,,,,,,,,13,,,,40,63
244560,note_off,720,0,7,,,,,,,,5,,,,64,64
244560,note_on,0,0,7,,,,,,,,5,,,,64,72
244560,set_tempo,720,1,0,508474,,,,,,,,,,,,
244560,note_on,5,0,8,,,,,,,,6,,,,52,74
244560,note_on,0,0,6,,,,,,,,4,,,,80,90
244560,note_on,5,0,9,,,,,,,,7,,,,40,74
244560,note_on,5,0,15,,,,,,,,14,,,,40,48
244560,note_off,720,0,10,,,,,,,,8,,,,85,64
244560,note_off,720,0,5,,,,,,,,3,,,,85,64
244560,note_on,0,0,5,,,,,,,,3,,,,83,90
244560,note_on,5,0,13,,,,,,,,12,,,,52,63
244560,note_on,0,0,11,,,,,,,,10,,,,80,64
244560,note_off,720,0,11,,,,,,,,10,,,,81,64
244560,note_off,720,0,12,,,,,,,,11,,,,64,64
244560,note_on,0,0,12,,,,,,,,11,,,,64,63
244560,note_on,0,0,10,,,,,,,,8,,,,83,74
244560,note_on,5,0,2,,,,,,,,0,,,,52,56
244960,note_off,400,0,2,,,,,,,,0,,,,52,64
245040,note_on,80,0,2,,,,,,,,0,,,,40,55
245275,note_off,235,0,2,,,,,,,,0,,,,40,64
245280,note_off,720,0,7,,,,,,,,5,,,,64,64
245280,note_on,0,0,10,,,,,,,,8,,,,81,69
245280,note_on,0,0,12,,,,,,,,11,,,,64,60
245280,note_off,720,0,12,,,,,,,,11,,,,64,64
245280,note_off,720,0,11,,,,,,,,10,,,,80,64
245280,note_on,0,0,11,,,,,,,,10,,,,78,61
245280,set_tempo,720,1,0,517241,,,,,,,,,,,,
245280,note_off,720,0,6,,,,,,,,4,,,,80,64
245280,note_on,0,0,6,,,,,,,,4,,,,78,85
245280,note_off,720,0,10,,,,,,,,8,,,,83,64
245280,note_off,720,0,5,,,,,,,,3,,,,83,64
245280,note_on,0,0,5,,,,,,,,3,,,,81,85
245280,note_on,0,0,7,,,,,,,,5,,,,64,67
245280,note_on,5,0,2,,,,,,,,0,,,,52,55
245680,note_off,400,0,2,,,,,,,,0,,,,52,64
245760,note_on,80,0,2,,,,,,,,0,,,,40,54
245880,note_off,1320,0,15,,,,,,,,14,,,,40,64
245995,note_off,235,0,2,,,,,,,,0,,,,40,64
246000,note_on,120,0,15,,,,,,,,14,,,,40,41
246000,note_off,1440,0,14,,,,,,,,13,,,,40,64
246000,note_off,1440,0,9,,,,,,,,7,,,,40,64
246000,note_on,0,0,10,,,,,,,,8,,,,80,64
246000,note_off,720,0,5,,,,,,,,3,,,,81,64
246000,note_off,720,0,10,,,,,,,,8,,,,81,64
246000,note_off,1440,0,13,,,,,,,,12,,,,52,64
246000,note_on,0,0,13,,,,,,,,12,,,,52,56
246000,note_on,0,0,11,,,,,,,,10,,,,76,58
246000,note_off,720,0,11,,,,,,,,10,,,,78,64
246000,note_off,1440,0,8,,,,,,,,6,,,,52,64
246000,note_on,0,0,8,,,,,,,,6,,,,52,63
246000,note_on,0,0,5,,,,,,,,3,,,,80,79
246000,note_on,0,0,14,,,,,,,,13,,,,40,56
246000,note_on,0,0,9,,,,,,,,7,,,,40,63
246000,note_on,0,0,6,,,,,,,,4,,,,76,79
246000,note_on,0,0,7,,,,,,,,5,,,,71,62
246000,note_off,720,0,7,,,,,,,,5,,,,64,64
246000,note_off,720,0,6,,,,,,,,4,,,,78,64
246000,set_tempo,720,1,0,526315,,,,,,,,,,,,
246000,note_on,0,0,12,,,,,,,,11,,,,71,57
246000,note_off,720,0,12,,,,,,,,11,,,,64,64
246360,note_off,360,0,5,,,,,,,,3,,,,80,64
246360,note_on,0,0,5,,,,,,,,3,,,,78,76
246360,note_off,360,0,10,,,,,,,,8,,,,80,64
246360,note_on,0,0,10,,,,,,,,8,,,,78,61
246475,note_off,115,0,10,,,,,,,,8,,,,78,64
246475,note_off,115,0,5,,,,,,,,3,,,,78,64
246480,note_on,485,0,2,,,,,,,,0,,,,40,53
246480,note_on,5,0,10,,,,,,,,8,,,,76,60
246480,note_on,5,0,5,,,,,,,,3,,,,76,75
246715,note_off,235,0,2,,,,,,,,0,,,,40,64
246715,note_off,235,0,10,,,,,,,,8,,,,76,64
246715,note_off,235,0,5,,,,,,,,3,,,,76,64
246720,note_on,5,0,10,,,,,,,,8,,,,78,58
246720,note_on,5,0,5,,,,,,,,3,,,,78,73
246720,note_on,0,0,12,,,,,,,,11,,,,71,54
246720,note_off,720,0,12,,,,,,,,11,,,,71,64
246720,note_off,720,0,6,,,,,,,,4,,,,76,64
246720,note_on,0,0,6,,,,,,,,4,,,,75,73
246720,note_off,720,0,11,,,,,,,,10,,,,76,64
246720,note_off,720,0,7,,,,,,,,5,,,,71,64
246720,note_on,0,0,7,,,,,,,,5,,,,71,57
246720,note_on,0,0,11,,,,,,,,10,,,,75,54
246720,note_on,5,0,2,,,,,,,,0,,,,52,53
246780,note_off,60,0,10,,,,,,,,8,,,,78,64
246780,note_off,60,0,5,,,,,,,,3,,,,78,64
246780,note_on,0,0,10,,,,,,,,8,,,,80,58
246780,note_on,0,0,5,,,,,,,,3,,,,80,73
246840,note_on,0,0,10,,,,,,,,8,,,,78,58
246840,note_off,60,0,10,,,,,,,,8,,,,80,64
246840,note_on,0,0,5,,,,,,,,3,,,,78,73
246840,note_off,60,0,5,,,,,,,,3,,,,80,64
246900,note_on,0,0,10,,,,,,,,8,,,,80,58
246900,note_off,60,0,10,,,,,,,,8,,,,78,64
246900,note_off,60,0,5,,,,,,,,3,,,,78,64
246900,note_on,0,0,5,,,,,,,,3,,,,80,73
246960,note_on,0,0,10,,,,,,,,8,,,,78,58
246960,note_off,60,0,10,,,,,,,,8,,,,80,64
246960,note_on,0,0,5,,,,,,,,3,,,,78,73
246960,note_off,60,0,5,,,,,,,,3,,,,80,64
247020,note_on,0,0,10,,,,,,,,8,,,,80,58
247020,note_on,0,0,5,,,,,,,,3,,,,80,73
247020,note_off,60,0,5,,,,,,,,3,,,,78,64
247020,note_off,60,0,10,,,,,,,,8,,,,78,64
247080,note_off,60,0,5,,,,,,,,3,,,,80,64
247080,note_off,60,0,10,,,,,,,,8,,,,80,64
247080,note_on,0,0,10,,,,,,,,8,,,,78,58
247080,note_on,0,0,5,,,,,,,,3,,,,78,73
247120,note_off,400,0,2,,,,,,,,0,,,,52,64
247140,note_on,0,0,10,,,,,,,,8,,,,80,58
247140,note_off,60,0,10,,,,,,,,8,,,,78,64
247140,note_off,60,0,5,,,,,,,,3,,,,78,64
247140,note_on,0,0,5,,,,,,,,3,,,,80,73
247200,note_on,0,0,10,,,,,,,,8,,,,78,58
247200,note_on,80,0,2,,,,,,,,0,,,,40,51
247200,note_off,60,0,10,,,,,,,,8,,,,80,64
247200,note_on,0,0,5,,,,,,,,3,,,,78,73
247200,note_off,60,0,5,,,,,,,,3,,,,80,64
247260,note_on,0,0,10,,,,,,,,8,,,,80,58
247260,note_on,0,0,5,,,,,,,,3,,,,80,73
247260,note_off,60,0,5,,,,,,,,3,,,,78,64
247260,note_off,60,0,10,,,,,,,,8,,,,78,64
247320,note_off,1320,0,15,,,,,,,,14,,,,40,64
247320,note_on,0,0,5,,,,,,,,3,,,,78,73
247320,note_off,60,0,10,,,,,,,,8,,,,80,64
247320,note_on,0,0,10,,,,,,,,8,,,,78,58
247320,note_off,60,0,5,,,,,,,,3,,,,80,64
247380,note_off,60,0,5,,,,,,,,3,,,,78,64
247380,note_on,0,0,5,,,,,,,,3,,,,80,73
247380,note_off,60,0,10,,,,,,,,8,,,,78,64
247380,note_on,0,0,10,,,,,,,,8,,,,80,58
247435,note_off,235,0,2,,,,,,,,0,,,,40,64
247440,note_on,0,0,7,,,,,,,,5,,,,68,52
247440,note_off,1440,0,8,,,,,,,,6,,,,52,64
247440,note_on,0,0,8,,,,,,,,6,,,,52,52
247440,note_on,0,0,10,,,,,,,,8,,,,76,58
247440,note_on,0,0,11,,,,,,,,10,,,,76,50
247440,note_off,720,0,12,,,,,,,,11,,,,71,64
247440,note_off,720,0,6,,,,,,,,4,,,,75,64
247440,note_on,0,0,6,,,,,,,,4,,,,76,67
247440,note_on,0,0,12,,,,,,,,11,,,,68,50
247440,note_off,1440,0,13,,,,,,,,12,,,,52,64
247440,note_off,1440,0,14,,,,,,,,13,,,,40,64
247440,note_on,0,0,14,,,,,,,,13,,,,40,49
247440,note_off,720,0,11,,,,,,,,10,,,,75,64
247440,note_off,60,0,10,,,,,,,,8,,,,80,64
247440,note_off,720,0,7,,,,,,,,5,,,,71,64
247440,note_on,0,0,13,,,,,,,,12,,,,52,49
247440,note_on,5,0,2,,,,,,,,0,,,,52,50
247440,note_on,0,0,9,,,,,,,,7,,,,40,52
247440,note_off,1440,0,9,,,,,,,,7,,,,40,64
247440,note_on,0,0,5,,,,,,,,3,,,,76,73
247440,note_off,60,0,5,,,,,,,,3,,,,80,64
247440,note_on,120,0,15,,,,,,,,14,,,,40,34
247840,note_off,400,0,2,,,,,,,,0,,,,52,64
247920,note_on,80,0,2,,,,,,,,0,,,,40,48
248080,note_off,640,0,9,,,,,,,,7,,,,40,64
248080,note_off,640,0,14,,,,,,,,13,,,,40,64
248080,note_off,640,0,10,,,,,,,,8,,,,76,64
248080,note_off,640,0,12,,,,,,,,11,,,,68,64
248080,note_off,640,0,11,,,,,,,,10,,,,76,64
248080,note_off,640,0,8,,,,,,,,6,,,,52,64
248080,note_off,640,0,5,,,,,,,,3,,,,76,64
248080,note_off,640,0,13,,,,,,,,12,,,,52,64
248080,note_off,640,0,7,,,,,,,,5,,,,68,64
248080,note_off,640,0,15,,,,,,,,14,,,,40,64
248080,note_off,640,0,6,,,,,,,,4,,,,76,64
248155,note_off,235,0,2,,,,,,,,0,,,,40,64
248160,note_on,5,0,2,,,,,,,,0,,,,52,47
248220,note_on,140,0,12,,,,,,,,11,,,,64,45
248220,note_on,140,0,9,,,,,,,,7,,,,40,45
248220,note_on,140,0,14,,,,,,,,13,,,,40,45
248220,note_on,140,0,10,,,,,,,,8,,,,85,45
248220,note_on,140,0,7,,,,,,,,5,,,,64,45
248220,note_on,140,0,15,,,,,,,,14,,,,40,30
248220,note_on,140,0,13,,,,,,,,12,,,,52,45
248220,note_on,140,0,11,,,,,,,,10,,,,81,45
248220,note_on,140,0,8,,,,,,,,6,,,,52,45
248220,note_on,140,0,6,,,,,,,,4,,,,81,60
248220,note_on,140,0,5,,,,,,,,3,,,,85,60
248560,note_off,400,0,2,,,,,,,,0,,,,52,64
248640,note_on,80,0,2,,,,,,,,0,,,,40,45
248860,note_off,640,0,9,,,,,,,,7,,,,40,64
248860,note_off,640,0,15,,,,,,,,14,,,,40,64
248875,note_off,235,0,2,,,,,,,,0,,,,40,64
248940,note_off,720,0,11,,,,,,,,10,,,,81,64
248940,note_off,720,0,8,,,,,,,,6,,,,52,64
248940,note_on,0,0,8,,,,,,,,6,,,,52,45
248940,set_tempo,2940,1,0,535714,,,,,,,,,,,,
248940,note_off,720,0,12,,,,,,,,11,,,,64,64
248940,note_off,720,0,14,,,,,,,,13,,,,40,64
248940,note_on,0,0,6,,,,,,,,4,,,,80,60
248940,note_on,0,0,14,,,,,,,,13,,,,40,45
248940,note_on,0,0,12,,,,,,,,11,,,,64,45
248940,note_on,80,0,15,,,,,,,,14,,,,40,30
248940,note_off,720,0,10,,,,,,,,8,,,,85,64
248940,note_on,0,0,10,,,,,,,,8,,,,83,45
248940,note_on,0,0,7,,,,,,,,5,,,,64,45
248940,note_off,720,0,7,,,,,,,,5,,,,64,64
248940,note_on,80,0,9,,,,,,,,7,,,,40,45
248940,note_off,720,0,6,,,,,,,,4,,,,81,64
248940,note_on,0,0,11,,,,,,,,10,,,,80,45
248940,note_off,720,0,13,,,,,,,,12,,,,52,64
248940,note_off,720,0,5,,,,,,,,3,,,,85,64
248940,note_on,0,0,5,,,,,,,,3,,,,83,60
248940,note_on,0,0,13,,,,,,,,12,,,,52,45
249420,note_on,545,0,2,,,,,,,,0,,,,40,43
249655,note_off,235,0,2,,,,,,,,0,,,,40,64
249660,note_on,0,0,5,,,,,,,,3,,,,81,59
249660,set_tempo,720,1,0,545454,,,,,,,,,,,,
249660,note_off,720,0,11,,,,,,,,10,,,,80,64
249660,note_on,0,0,11,,,,,,,,10,,,,78,44
249660,note_off,720,0,10,,,,,,,,8,,,,83,64
249660,note_on,5,0,2,,,,,,,,0,,,,52,42
249660,note_off,720,0,6,,,,,,,,4,,,,80,64
249660,note_on,0,0,6,,,,,,,,4,,,,78,59
249660,note_on,0,0,10,,,,,,,,8,,,,81,44
249660,note_off,720,0,5,,,,,,,,3,,,,83,64
250060,note_off,400,0,2,,,,,,,,0,,,,52,64
250140,note_on,80,0,2,,,,,,,,0,,,,40,39
250260,note_off,1320,0,15,,,,,,,,14,,,,40,64
250375,note_off,235,0,2,,,,,,,,0,,,,40,64
250380,note_off,1440,0,7,,,,,,,,5,,,,64,64
250380,note_on,0,0,6,,,,,,,,4,,,,76,57
250380,note_on,0,0,13,,,,,,,,12,,,,52,42
250380,note_off,1440,0,13,,,,,,,,12,,,,52,64
250380,note_on,5,0,2,,,,,,,,0,,,,52,38
250380,note_on,0,0,8,,,,,,,,6,,,,52,42
250380,note_on,0,0,11,,,,,,,,10,,,,76,42
250380,note_off,720,0,11,,,,,,,,10,,,,78,64
250380,note_on,0,0,10,,,,,,,,8,,,,80,42
250380,note_off,720,0,10,,,,,,,,8,,,,81,64
250380,note_off,720,0,6,,,,,,,,4,,,,78,64
250380,note_on,0,0,14,,,,,,,,13,,,,40,42
250380,note_on,0,0,7,,,,,,,,5,,,,71,42
250380,note_on,120,0,15,,,,,,,,14,,,,40,25
250380,note_off,1440,0,8,,,,,,,,6,,,,52,64
250380,note_on,0,0,5,,,,,,,,3,,,,80,57
250380,note_off,720,0,5,,,,,,,,3,,,,81,64
250380,note_off,1440,0,12,,,,,,,,11,,,,64,64
250380,note_on,0,0,9,,,,,,,,7,,,,40,42
250380,note_off,1440,0,9,,,,,,,,7,,,,40,64
250380,set_tempo,720,1,0,555555,,,,,,,,,,,,
250380,note_off,1440,0,14,,,,,,,,13,,,,40,64
250380,note_on,0,0,12,,,,,,,,11,,,,71,42
250740,note_on,0,0,5,,,,,,,,3,,,,81,56
250740,note_off,360,0,5,,,,,,,,3,,,,80,64
250740,note_off,360,0,11,,,,,,,,10,,,,76,64
250740,note_on,0,0,11,,,,,,,,10,,,,78,41
250740,note_off,360,0,6,,,,,,,,4,,,,76,64
250740,note_on,0,0,10,,,,,,,,8,,,,81,41
250740,note_on,0,0,6,,,,,,,,4,,,,78,56
250740,note_off,360,0,10,,,,,,,,8,,,,80,64
250780,note_off,400,0,2,,,,,,,,0,,,,52,64
250855,note_off,115,0,5,,,,,,,,3,,,,81,64
250855,note_off,115,0,6,,,,,,,,4,,,,78,64
250855,note_off,115,0,10,,,,,,,,8,,,,81,64
250855,note_off,115,0,11,,,,,,,,10,,,,78,64
250860,note_on,5,0,5,,,,,,,,3,,,,80,56
250860,note_on,5,0,6,,,,,,,,4,,,,76,56
250860,note_on,80,0,2,,,,,,,,0,,,,40,35
250860,note_on,5,0,10,,,,,,,,8,,,,80,41
250860,note_on,5,0,11,,,,,,,,10,,,,76,41
251095,note_off,235,0,11,,,,,,,,10,,,,76,64
251095,note_off,235,0,5,,,,,,,,3,,,,80,64
251095,note_off,235,0,10,,,,,,,,8,,,,80,64
251095,note_off,235,0,2,,,,,,,,0,,,,40,64
251095,note_off,235,0,6,,,,,,,,4,,,,76,64
251100,note_on,5,0,11,,,,,,,,10,,,,81,41
251100,note_on,5,0,5,,,,,,,,3,,,,85,56
251100,note_off,720,0,12,,,,,,,,11,,,,71,64
251100,set_tempo,720,1,0,566037,,,,,,,,,,,,
251100,note_on,5,0,10,,,,,,,,8,,,,85,41
251100,note_on,5,0,2,,,,,,,,0,,,,52,34
251100,note_on,0,0,12,,,,,,,,11,,,,64,40
251100,note_off,720,0,7,,,,,,,,5,,,,71,64
251100,note_on,0,0,7,,,,,,,,5,,,,64,40
251100,note_on,5,0,6,,,,,,,,4,,,,81,56
251500,note_off,400,0,2,,,,,,,,0,,,,52,64
251580,note_on,80,0,2,,,,,,,,0,,,,40,31
251700,note_off,1320,0,15,,,,,,,,14,,,,40,64
251815,note_off,235,0,2,,,,,,,,0,,,,40,64
251820,note_off,720,0,6,,,,,,,,4,,,,81,64
251820,note_on,0,0,6,,,,,,,,4,,,,80,54
251820,note_off,1440,0,8,,,,,,,,6,,,,52,64
251820,note_on,0,0,8,,,,,,,,6,,,,52,38
251820,set_tempo,720,1,0,576923,,,,,,,,,,,,
251820,note_off,1440,0,13,,,,,,,,12,,,,52,64
251820,note_on,120,0,15,,,,,,,,14,,,,40,20
251820,note_on,0,0,13,,,,,,,,12,,,,52,38
251820,note_on,0,0,12,,,,,,,,11,,,,64,38
251820,note_on,0,0,7,,,,,,,,5,,,,64,38
251820,note_off,720,0,11,,,,,,,,10,,,,81,64
251820,note_on,0,0,11,,,,,,,,10,,,,80,39
251820,note_off,720,0,5,,,,,,,,3,,,,85,64
251820,note_off,720,0,7,,,,,,,,5,,,,64,64
251820,note_on,0,0,5,,,,,,,,3,,,,83,54
251820,note_on,0,0,9,,,,,,,,7,,,,40,38
251820,note_off,1440,0,9,,,,,,,,7,,,,40,64
251820,note_on,0,0,10,,,,,,,,8,,,,83,39
251820,note_on,0,0,14,,,,,,,,13,,,,40,38
251820,note_off,1440,0,14,,,,,,,,13,,,,40,64
251820,note_off,720,0,10,,,,,,,,8,,,,85,64
251820,note_off,720,0,12,,,,,,,,11,,,,64,64
252300,note_on,485,0,2,,,,,,,,0,,,,40,27
252535,note_off,235,0,2,,,,,,,,0,,,,40,64
252540,note_off,720,0,6,,,,,,,,4,,,,80,64
252540,note_on,0,0,11,,,,,,,,10,,,,78,37
252540,note_off,720,0,11,,,,,,,,10,,,,80,64
252540,note_on,0,0,5,,,,,,,,3,,,,81,52
252540,note_off,720,0,10,,,,,,,,8,,,,83,64
252540,note_on,0,0,6,,,,,,,,4,,,,78,52
252540,note_on,5,0,2,,,,,,,,0,,,,52,26
252540,set_tempo,720,1,0,588235,,,,,,,,,,,,
252540,note_off,720,0,5,,,,,,,,3,,,,83,64
252540,note_on,0,0,10,,,,,,,,8,,,,81,37
252940,note_off,400,0,2,,,,,,,,0,,,,52,64
253020,note_on,80,0,2,,,,,,,,0,,,,40,23
253140,note_off,1320,0,15,,,,,,,,14,,,,40,64
253255,note_off,235,0,2,,,,,,,,0,,,,40,64
253260,note_on,0,0,11,,,,,,,,10,,,,76,35
253260,note_off,720,0,11,,,,,,,,10,,,,78,64
253260,note_off,1440,0,14,,,,,,,,13,,,,40,64
253260,note_off,1440,0,7,,,,,,,,5,,,,64,64
253260,set_tempo,720,1,0,612244,,,,,,,,,,,,
253260,note_on,0,0,7,,,,,,,,5,,,,71,34
253260,note_on,0,0,13,,,,,,,,12,,,,52,34
253260,note_on,0,0,14,,,,,,,,13,,,,40,34
253260,note_on,0,0,8,,,,,,,,6,,,,52,34
253260,note_off,1440,0,12,,,,,,,,11,,,,64,64
253260,note_on,0,0,6,,,,,,,,4,,,,76,50
253260,note_off,1440,0,8,,,,,,,,6,,,,52,64
253260,note_on,120,0,15,,,,,,,,14,,,,40,15
253260,note_on,5,0,2,,,,,,,,0,,,,52,22
253260,note_off,1440,0,13,,,,,,,,12,,,,52,64
253260,note_off,720,0,10,,,,,,,,8,,,,81,64
253260,note_off,720,0,5,,,,,,,,3,,,,81,64
253260,note_on,0,0,10,,,,,,,,8,,,,80,35
253260,note_on,0,0,9,,,,,,,,7,,,,40,34
253260,note_off,1440,0,9,,,,,,,,7,,,,40,64
253260,note_on,0,0,12,,,,,,,,11,,,,71,34
253260,note_off,720,0,6,,,,,,,,4,,,,78,64
253260,note_on,0,0,5,,,,,,,,3,,,,80,50
253620,set_tempo,360,1,0,638297,,,,,,,,,,,,
253620,note_off,360,0,5,,,,,,,,3,,,,80,64
253620,note_off,360,0,10,,,,,,,,8,,,,80,64
253620,note_on,0,0,10,,,,,,,,8,,,,78,34
253620,note_on,0,0,5,,,,,,,,3,,,,78,49
253660,note_off,400,0,2,,,,,,,,0,,,,52,64
253660,note_off,400,0,15,,,,,,,,14,,,,40,64
253735,note_off,115,0,5,,,,,,,,3,,,,78,64
253735,note_off,115,0,10,,,,,,,,8,,,,78,64
253740,note_on,0,0,13,,,,,,,,12,,,,40,33
253740,set_tempo,120,1,0,681818,,,,,,,,,,,,
253740,note_off,480,0,8,,,,,,,,6,,,,52,64
253740,note_on,5,0,5,,,,,,,,3,,,,76,49
253740,note_off,480,0,14,,,,,,,,13,,,,40,64
253740,note_on,0,0,14,,,,,,,,13,,,,28,33
253740,note_off,480,0,13,,,,,,,,12,,,,52,64
253740,note_off,480,0,9,,,,,,,,7,,,,40,64
253740,note_on,5,0,10,,,,,,,,8,,,,76,34
253740,note_on,80,0,15,,,,,,,,14,,,,28,14
253740,note_on,80,0,2,,,,,,,,0,,,,40,18
253740,note_on,0,0,8,,,,,,,,6,,,,40,33
253740,note_on,0,0,9,,,,,,,,7,,,,28,33
253975,note_off,235,0,10,,,,,,,,8,,,,76,64
253975,note_off,235,0,2,,,,,,,,0,,,,40,64
253975,note_off,235,0,5,,,,,,,,3,,,,76,64
253975,note_off,235,0,15,,,,,,,,14,,,,28,64
253980,note_off,720,0,7,,,,,,,,5,,,,71,64
253980,note_on,0,0,7,,,,,,,,5,,,,71,32
253980,note_on,0,0,11,,,,,,,,10,,,,75,33
253980,note_on,0,0,12,,,,,,,,11,,,,71,32
253980,note_off,720,0,11,,,,,,,,10,,,,76,64
253980,note_on,0,0,13,,,,,,,,12,,,,59,33
253980,note_off,240,0,13,,,,,,,,12,,,,40,64
253980,note_on,5,0,5,,,,,,,,3,,,,78,48
253980,note_off,240,0,14,,,,,,,,13,,,,28,64
253980,note_on,0,0,14,,,,,,,,13,,,,47,33
253980,note_on,5,0,10,,,,,,,,8,,,,78,33
253980,note_off,720,0,12,,,,,,,,11,,,,71,64
253980,set_tempo,240,1,0,882352,,,,,,,,,,,,
253980,note_off,240,0,9,,,,,,,,7,,,,28,64
253980,note_on,0,0,9,,,,,,,,7,,,,47,33
253980,note_on,5,0,2,,,,,,,,0,,,,59,16
253980,note_on,5,0,15,,,,,,,,14,,,,47,13
253980,note_off,720,0,6,,,,,,,,4,,,,76,64
253980,note_on,0,0,6,,,,,,,,4,,,,75,48
253980,note_on,0,0,8,,,,,,,,6,,,,59,33
253980,note_off,240,0,8,,,,,,,,6,,,,40,64
254010,note_off,30,0,10,,,,,,,,8,,,,78,64
254010,note_on,0,0,5,,,,,,,,3,,,,80,48
254010,note_off,30,0,5,,,,,,,,3,,,,78,64
254010,note_on,0,0,10,,,,,,,,8,,,,80,33
254040,note_on,0,0,10,,,,,,,,8,,,,78,33
254040,note_off,30,0,10,,,,,,,,8,,,,80,64
254040,note_off,30,0,5,,,,,,,,3,,,,80,64
254040,note_on,0,0,5,,,,,,,,3,,,,78,48
254070,note_off,30,0,5,,,,,,,,3,,,,78,64
254070,note_on,0,0,5,,,,,,,,3,,,,80,48
254070,note_on,0,0,10,,,,,,,,8,,,,80,33
254070,note_off,30,0,10,,,,,,,,8,,,,78,64
254100,note_on,0,0,10,,,,,,,,8,,,,78,33
254100,note_off,30,0,5,,,,,,,,3,,,,80,64
254100,note_on,0,0,5,,,,,,,,3,,,,78,48
254100,note_off,30,0,10,,,,,,,,8,,,,80,64
254130,note_off,30,0,10,,,,,,,,8,,,,78,64
254130,note_on,0,0,10,,,,,,,,8,,,,80,33
254130,note_on,0,0,5,,,,,,,,3,,,,80,48
254130,note_off,30,0,5,,,,,,,,3,,,,78,64
254160,note_on,0,0,10,,,,,,,,8,,,,78,33
254160,note_off,30,0,5,,,,,,,,3,,,,80,64
254160,note_on,0,0,5,,,,,,,,3,,,,78,48
254160,note_off,30,0,10,,,,,,,,8,,,,80,64
254190,note_off,30,0,10,,,,,,,,8,,,,78,64
254190,note_on,0,0,10,,,,,,,,8,,,,80,33
254190,note_off,30,0,5,,,,,,,,3,,,,78,64
254190,note_on,0,0,5,,,,,,,,3,,,,80,48
254220,note_on,0,0,10,,,,,,,,8,,,,78,33
254220,note_off,30,0,5,,,,,,,,3,,,,80,64
254220,note_on,0,0,5,,,,,,,,3,,,,78,48
254220,note_off,30,0,10,,,,,,,,8,,,,80,64
254250,note_on,0,0,10,,,,,,,,8,,,,80,33
254250,note_off,30,0,10,,,,,,,,8,,,,78,64
254250,note_off,30,0,5,,,,,,,,3,,,,78,64
254250,note_on,0,0,5,,,,,,,,3,,,,80,48
254280,note_off,30,0,5,,,,,,,,3,,,,80,64
254280,note_on,0,0,10,,,,,,,,8,,,,78,33
254280,note_on,0,0,5,,,,,,,,3,,,,78,48
254280,note_off,30,0,10,,,,,,,,8,,,,80,64
254310,note_off,30,0,5,,,,,,,,3,,,,78,64
254310,note_on,0,0,5,,,,,,,,3,,,,80,48
254310,note_on,0,0,10,,,,,,,,8,,,,80,33
254310,note_off,30,0,10,,,,,,,,8,,,,78,64
254340,note_off,30,0,5,,,,,,,,3,,,,80,64
254340,note_on,0,0,10,,,,,,,,8,,,,78,33
254340,note_off,30,0,10,,,,,,,,8,,,,80,64
254340,note_on,0,0,5,,,,,,,,3,,,,78,48
254370,note_on,0,0,5,,,,,,,,3,,,,80,48
254370,note_off,30,0,5,,,,,,,,3,,,,78,64
254370,note_on,0,0,10,,,,,,,,8,,,,80,33
254370,note_off,30,0,10,,,,,,,,8,,,,78,64
254380,note_off,400,0,15,,,,,,,,14,,,,47,64
254380,note_off,400,0,2,,,,,,,,0,,,,59,64
254400,note_off,30,0,10,,,,,,,,8,,,,80,64
254400,note_on,0,0,5,,,,,,,,3,,,,78,48
254400,note_off,30,0,5,,,,,,,,3,,,,80,64
254400,note_on,0,0,10,,,,,,,,8,,,,78,33
254430,note_off,30,0,10,,,,,,,,8,,,,78,64
254430,note_on,0,0,10,,,,,,,,8,,,,80,33
254430,note_off,30,0,5,,,,,,,,3,,,,78,64
254430,note_on,0,0,5,,,,,,,,3,,,,80,48
254460,note_on,0,0,13,,,,,,,,12,,,,47,31
254460,note_on,80,0,2,,,,,,,,0,,,,47,12
254460,note_on,0,0,9,,,,,,,,7,,,,35,31
254460,note_off,480,0,13,,,,,,,,12,,,,59,64
254460,note_on,0,0,5,,,,,,,,3,,,,78,48
254460,note_off,30,0,5,,,,,,,,3,,,,80,64
254460,note_off,480,0,9,,,,,,,,7,,,,47,64
254460,note_off,480,0,14,,,,,,,,13,,,,47,64
254460,note_on,0,0,14,,,,,,,,13,,,,35,31
254460,note_on,80,0,15,,,,,,,,14,,,,35,11
254460,note_off,480,0,8,,,,,,,,6,,,,59,64
254460,note_on,0,0,8,,,,,,,,6,,,,47,31
254460,note_off,30,0,10,,,,,,,,8,,,,80,64
254460,note_on,0,0,10,,,,,,,,8,,,,78,33
254490,note_off,30,0,5,,,,,,,,3,,,,78,64
254490,note_on,0,0,5,,,,,,,,3,,,,80,48
254490,note_off,30,0,10,,,,,,,,8,,,,78,64
254490,note_on,0,0,10,,,,,,,,8,,,,80,33
254520,note_on,0,0,10,,,,,,,,8,,,,78,33
254520,note_off,30,0,10,,,,,,,,8,,,,80,64
254520,note_off,30,0,5,,,,,,,,3,,,,80,64
254520,note_on,0,0,5,,,,,,,,3,,,,78,48
254550,note_off,30,0,10,,,,,,,,8,,,,78,64
254550,note_off,30,0,5,,,,,,,,3,,,,78,64
254550,note_on,0,0,5,,,,,,,,3,,,,80,48
254550,note_on,0,0,10,,,,,,,,8,,,,80,33
254580,note_off,30,0,10,,,,,,,,8,,,,80,64
254580,note_off,30,0,5,,,,,,,,3,,,,80,64
254580,note_on,0,0,10,,,,,,,,8,,,,78,33
254580,note_on,0,0,5,,,,,,,,3,,,,78,48
254610,note_on,0,0,10,,,,,,,,8,,,,80,33
254610,note_off,30,0,10,,,,,,,,8,,,,78,64
254610,note_on,0,0,5,,,,,,,,3,,,,80,48
254610,note_off,30,0,5,,,,,,,,3,,,,78,64
254640,note_off,30,0,5,,,,,,,,3,,,,80,64
254640,note_on,0,0,5,,,,,,,,3,,,,78,47
254640,note_off,30,0,10,,,,,,,,8,,,,80,64
254640,note_on,0,0,10,,,,,,,,8,,,,78,32
254670,note_off,30,0,5,,,,,,,,3,,,,78,64
254670,note_on,0,0,5,,,,,,,,3,,,,80,46
254670,note_off,30,0,10,,,,,,,,8,,,,78,64
254670,note_on,0,0,10,,,,,,,,8,,,,80,31
254695,note_off,235,0,15,,,,,,,,14,,,,35,64
254695,note_off,235,0,2,,,,,,,,0,,,,47,64
254700,note_on,0,0,12,,,,,,,,11,,,,68,30
254700,note_off,720,0,12,,,,,,,,11,,,,71,64
254700,note_off,720,0,7,,,,,,,,5,,,,71,64
254700,note_on,0,0,7,,,,,,,,5,,,,68,30
254700,note_off,30,0,10,,,,,,,,8,,,,80,64
254700,note_on,0,0,10,,,,,,,,8,,,,76,30
254700,note_off,240,0,8,,,,,,,,6,,,,47,64
254700,note_off,240,0,14,,,,,,,,13,,,,35,64
254700,note_on,5,0,15,,,,,,,,14,,,,40,10
254700,note_on,0,0,6,,,,,,,,4,,,,71,45
254700,note_off,720,0,6,,,,,,,,4,,,,75,64
254700,end_of_track,0,1,0,,,,,,,,,,,,,
254700,note_off,30,0,5,,,,,,,,3,,,,80,64
254700,note_on,0,0,5,,,,,,,,3,,,,76,45
254700,note_on,0,0,9,,,,,,,,7,,,,40,30
254700,note_off,240,0,9,,,,,,,,7,,,,35,64
254700,note_on,5,0,2,,,,,,,,0,,,,40,10
254700,note_on,0,0,13,,,,,,,,12,,,,52,30
254700,note_off,240,0,13,,,,,,,,12,,,,47,64
254700,note_on,0,0,11,,,,,,,,10,,,,71,30
254700,note_off,720,0,11,,,,,,,,10,,,,75,64
254700,note_on,0,0,14,,,,,,,,13,,,,40,30
254700,note_on,0,0,8,,,,,,,,6,,,,52,30
254700,set_tempo,720,1,0,750000,,,,,,,,,,,,
257460,note_off,2760,0,7,,,,,,,,5,,,,68,64
257460,note_off,2760,0,14,,,,,,,,13,,,,40,64
257460,note_off,2760,0,8,,,,,,,,6,,,,52,64
257460,end_of_track,0,1,8,,,,,,,,,,,,,
257460,end_of_track,0,1,6,,,,,,,,,,,,,
257460,note_off,2760,0,6,,,,,,,,4,,,,71,64
257460,note_off,2760,0,9,,,,,,,,7,,,,40,64
257460,end_of_track,0,1,9,,,,,,,,,,,,,
257460,note_off,2760,0,15,,,,,,,,14,,,,40,64
257460,end_of_track,0,1,5,,,,,,,,,,,,,
257460,note_off,2760,0,5,,,,,,,,3,,,,76,64
257460,end_of_track,0,1,14,,,,,,,,,,,,,
257460,note_off,2760,0,10,,,,,,,,8,,,,76,64
257460,end_of_track,0,1,7,,,,,,,,,,,,,
257460,note_off,2760,0,11,,,,,,,,10,,,,71,64
257460,end_of_track,0,1,11,,,,,,,,,,,,,
257460,end_of_track,0,1,2,,,,,,,,,,,,,
257460,note_off,2760,0,2,,,,,,,,0,,,,40,64
257460,note_off,2760,0,12,,,,,,,,11,,,,68,64
257460,end_of_track,0,1,12,,,,,,,,,,,,,
257460,note_off,2760,0,13,,,,,,,,12,,,,52,64
257460,end_of_track,0,1,13,,,,,,,,,,,,,
257460,end_of_track,0,1,10,,,,,,,,,,,,,
257460,end_of_track,0,1,15,,,,,,,,,,,,,
