tick,type,time,meta,track,tempo,numerator,denominator,clocks_per_click,notated_32nd_notes_per_beat,key,port,channel,control,value,program,note,velocity
0,text,0,1,0,,,,,,,,,,,,,
0,program_change,0,0,13,,,,,,,,12,,,49,,
0,control_change,0,0,13,,,,,,,,12,91,127,,,
0,control_change,0,0,13,,,,,,,,12,10,95,,,
0,control_change,0,0,13,,,,,,,,12,7,127,,,
0,channel_prefix,0,1,13,,,,,,,,12,,,,,
0,midi_port,0,1,13,,,,,,,0,,,,,,
0,track_name,0,1,3,,,,,,,,,,,,,
0,midi_port,0,1,3,,,,,,,0,,,,,,
0,channel_prefix,0,1,3,,,,,,,,1,,,,,
0,program_change,0,0,2,,,,,,,,0,,,6,,
0,control_change,0,0,3,,,,,,,,1,7,127,,,
0,control_change,0,0,3,,,,,,,,1,91,127,,,
0,program_change,0,0,3,,,,,,,,1,,,48,,
0,program_change,0,0,12,,,,,,,,11,,,49,,
0,control_change,0,0,12,,,,,,,,11,91,127,,,
0,control_change,0,0,12,,,,,,,,11,10,63,,,
0,control_change,0,0,12,,,,,,,,11,7,127,,,
0,channel_prefix,0,1,12,,,,,,,,11,,,,,
0,midi_port,0,1,12,,,,,,,0,,,,,,
0,track_name,0,1,4,,,,,,,,,,,,,
0,control_change,0,0,3,,,,,,,,1,10,64,,,
0,midi_port,0,1,4,,,,,,,0,,,,,,
0,control_change,0,0,2,,,,,,,,0,91,127,,,
0,control_change,0,0,2,,,,,,,,0,7,127,,,
0,control_change,0,0,15,,,,,,,,14,7,127,,,
0,track_name,0,1,1,,,,,,,,,,,,,
0,midi_port,0,1,1,,,,,,,0,,,,,,
0,channel_prefix,0,1,1,,,,,,,,0,,,,,
0,control_change,0,0,1,,,,,,,,0,7,127,,,
0,control_change,0,0,1,,,,,,,,0,10,6,,,
0,control_change,0,0,1,,,,,,,,0,91,127,,,
0,program_change,0,0,1,,,,,,,,0,,,6,,
0,channel_prefix,0,1,15,,,,,,,,14,,,,,
0,control_change,0,0,2,,,,,,,,0,10,6,,,
0,midi_port,0,1,15,,,,,,,0,,,,,,
0,program_change,0,0,14,,,,,,,,13,,,49,,
0,control_change,0,0,14,,,,,,,,13,91,127,,,
0,control_change,0,0,14,,,,,,,,13,10,127,,,
0,control_change,0,0,14,,,,,,,,13,7,127,,,
0,channel_prefix,0,1,14,,,,,,,,13,,,,,
0,midi_port,0,1,14,,,,,,,0,,,,,,
0,track_name,0,1,2,,,,,,,,,,,,,
0,midi_port,0,1,2,,,,,,,0,,,,,,
0,channel_prefix,0,1,2,,,,,,,,0,,,,,
0,track_name,0,1,15,,,,,,,,,,,,,
0,control_change,0,0,15,,,,,,,,14,10,6,,,
0,channel_prefix,0,1,4,,,,,,,,2,,,,,
0,control_change,0,0,4,,,,,,,,2,10,64,,,
0,control_change,0,0,7,,,,,,,,5,7,127,,,
0,control_change,0,0,7,,,,,,,,5,10,63,,,
0,control_change,0,0,7,,,,,,,,5,91,127,,,
0,program_change,0,0,7,,,,,,,,5,,,48,,
0,midi_port,0,1,8,,,,,,,0,,,,,,
0,channel_prefix,0,1,8,,,,,,,,6,,,,,
0,control_change,0,0,8,,,,,,,,6,7,127,,,
0,control_change,0,0,8,,,,,,,,6,10,95,,,
0,control_change,0,0,8,,,,,,,,6,91,127,,,
0,channel_prefix,0,1,7,,,,,,,,5,,,,,
0,program_change,0,0,8,,,,,,,,6,,,48,,
0,channel_prefix,0,1,9,,,,,,,,7,,,,,
0,control_change,0,0,9,,,,,,,,7,7,127,,,
0,control_change,0,0,9,,,,,,,,7,10,127,,,
0,control_change,0,0,9,,,,,,,,7,91,127,,,
0,program_change,0,0,9,,,,,,,,7,,,48,,
0,program_change,0,0,10,,,,,,,,8,,,49,,
0,control_change,0,0,10,,,,,,,,8,91,127,,,
0,control_change,0,0,10,,,,,,,,8,10,1,,,
0,control_change,0,0,10,,,,,,,,8,7,127,,,
0,midi_port,0,1,9,,,,,,,0,,,,,,
0,control_change,0,0,4,,,,,,,,2,7,127,,,
0,midi_port,0,1,7,,,,,,,0,,,,,,
0,channel_prefix,0,1,11,,,,,,,,10,,,,,
0,control_change,0,0,4,,,,,,,,2,91,127,,,
0,program_change,0,0,4,,,,,,,,2,,,40,,
0,track_name,0,1,5,,,,,,,,,,,,,
0,midi_port,0,1,5,,,,,,,0,,,,,,
0,channel_prefix,0,1,5,,,,,,,,3,,,,,
0,control_change,0,0,5,,,,,,,,3,7,127,,,
0,control_change,0,0,5,,,,,,,,3,10,1,,,
0,control_change,0,0,5,,,,,,,,3,91,127,,,
0,program_change,0,0,5,,,,,,,,3,,,48,,
0,midi_port,0,1,11,,,,,,,0,,,,,,
0,channel_prefix,0,1,10,,,,,,,,8,,,,,
0,channel_prefix,0,1,6,,,,,,,,4,,,,,
0,control_change,0,0,6,,,,,,,,4,7,127,,,
0,control_change,0,0,6,,,,,,,,4,10,32,,,
0,control_change,0,0,6,,,,,,,,4,91,127,,,
0,program_change,0,0,6,,,,,,,,4,,,48,,
0,program_change,0,0,11,,,,,,,,10,,,49,,
0,control_change,0,0,11,,,,,,,,10,91,127,,,
0,control_change,0,0,11,,,,,,,,10,10,32,,,
0,control_change,0,0,11,,,,,,,,10,7,127,,,
0,midi_port,0,1,6,,,,,,,0,,,,,,
0,control_change,0,0,15,,,,,,,,14,91,127,,,
0,midi_port,0,1,10,,,,,,,0,,,,,,
0,key_signature,0,1,0,,,,,,Bb,,,,,,,
0,program_change,0,0,15,,,,,,,,14,,,32,,
0,track_name,0,1,0,,,,,,,,,,,,,
0,copyright,0,1,0,,,,,,,,,,,,,
0,set_tempo,0,1,0,500000,,,,,,,,,,,,
0,time_signature,0,1,0,,4,4,24,8,,,,,,,,
120,note_on,120,0,4,,,,,,,,2,,,,79,30
120,note_on,120,0,11,,,,,,,,10,,,,55,30
120,note_on,120,0,5,,,,,,,,3,,,,58,30
120,set_tempo,120,1,0,1500000,,,,,,,,,,,,
120,note_on,120,0,6,,,,,,,,4,,,,55,30
120,note_on,120,0,10,,,,,,,,8,,,,58,30
120,note_on,120,0,3,,,,,,,,1,,,,79,45
295,note_off,175,0,6,,,,,,,,4,,,,55,64
295,note_off,175,0,10,,,,,,,,8,,,,58,64
295,note_off,175,0,11,,,,,,,,10,,,,55,64
295,note_off,175,0,5,,,,,,,,3,,,,58,64
300,note_on,5,0,11,,,,,,,,10,,,,55,30
300,note_on,5,0,5,,,,,,,,3,,,,58,30
300,note_on,5,0,10,,,,,,,,8,,,,58,30
300,note_on,5,0,6,,,,,,,,4,,,,55,30
355,note_off,55,0,11,,,,,,,,10,,,,55,64
355,note_off,55,0,10,,,,,,,,8,,,,58,64
355,note_off,55,0,6,,,,,,,,4,,,,55,64
355,note_off,55,0,5,,,,,,,,3,,,,58,64
360,note_on,5,0,11,,,,,,,,10,,,,55,30
360,note_on,5,0,5,,,,,,,,3,,,,58,30
360,note_on,5,0,10,,,,,,,,8,,,,58,30
360,note_on,5,0,6,,,,,,,,4,,,,55,30
360,set_tempo,240,1,0,1621621,,,,,,,,,,,,
535,note_off,175,0,11,,,,,,,,10,,,,55,64
535,note_off,175,0,6,,,,,,,,4,,,,55,64
535,note_off,175,0,10,,,,,,,,8,,,,58,64
535,note_off,175,0,5,,,,,,,,3,,,,58,64
540,note_on,5,0,11,,,,,,,,10,,,,55,30
540,note_on,5,0,6,,,,,,,,4,,,,55,30
540,note_on,5,0,10,,,,,,,,8,,,,58,30
540,note_on,5,0,5,,,,,,,,3,,,,58,30
595,note_off,55,0,5,,,,,,,,3,,,,58,64
595,note_off,55,0,6,,,,,,,,4,,,,55,64
595,note_off,55,0,11,,,,,,,,10,,,,55,64
595,note_off,55,0,10,,,,,,,,8,,,,58,64
600,set_tempo,240,1,0,1714285,,,,,,,,,,,,
600,note_on,600,0,2,,,,,,,,0,,,,55,45
600,note_on,5,0,5,,,,,,,,3,,,,58,30
600,note_on,5,0,11,,,,,,,,10,,,,55,30
600,note_on,5,0,10,,,,,,,,8,,,,58,30
600,note_on,5,0,6,,,,,,,,4,,,,55,30
600,note_on,600,0,1,,,,,,,,0,,,,67,45
720,note_off,120,0,2,,,,,,,,0,,,,55,64
720,note_on,0,0,2,,,,,,,,0,,,,58,45
720,note_on,0,0,1,,,,,,,,0,,,,70,45
720,note_off,120,0,1,,,,,,,,0,,,,67,64
835,note_off,235,0,10,,,,,,,,8,,,,58,64
835,note_off,235,0,11,,,,,,,,10,,,,55,64
835,note_off,235,0,6,,,,,,,,4,,,,55,64
835,note_off,235,0,5,,,,,,,,3,,,,58,64
840,note_off,120,0,1,,,,,,,,0,,,,70,64
840,note_on,0,0,1,,,,,,,,0,,,,74,45
840,note_off,120,0,2,,,,,,,,0,,,,58,64
840,note_on,0,0,2,,,,,,,,0,,,,62,45
960,note_off,120,0,1,,,,,,,,0,,,,74,64
960,note_on,0,0,1,,,,,,,,0,,,,77,45
960,note_off,120,0,2,,,,,,,,0,,,,62,64
960,note_on,0,0,2,,,,,,,,0,,,,65,45
1080,set_tempo,480,1,0,1500000,,,,,,,,,,,,
1080,note_off,120,0,1,,,,,,,,0,,,,77,64
1080,note_on,0,0,1,,,,,,,,0,,,,79,45
1080,note_on,245,0,6,,,,,,,,4,,,,55,30
1080,note_on,245,0,5,,,,,,,,3,,,,58,30
1080,note_off,120,0,2,,,,,,,,0,,,,65,64
1080,note_on,245,0,10,,,,,,,,8,,,,58,30
1080,note_on,245,0,11,,,,,,,,10,,,,55,30
1080,note_on,0,0,2,,,,,,,,0,,,,67,45
1255,note_off,175,0,6,,,,,,,,4,,,,55,64
1255,note_off,175,0,5,,,,,,,,3,,,,58,64
1255,note_off,175,0,10,,,,,,,,8,,,,58,64
1255,note_off,175,0,11,,,,,,,,10,,,,55,64
1260,note_on,5,0,11,,,,,,,,10,,,,55,30
1260,note_on,5,0,10,,,,,,,,8,,,,58,30
1260,note_on,5,0,6,,,,,,,,4,,,,55,30
1260,note_on,5,0,5,,,,,,,,3,,,,58,30
1315,note_off,55,0,10,,,,,,,,8,,,,58,64
1315,note_off,55,0,11,,,,,,,,10,,,,55,64
1315,note_off,55,0,6,,,,,,,,4,,,,55,64
1315,note_off,55,0,5,,,,,,,,3,,,,58,64
1320,note_on,5,0,6,,,,,,,,4,,,,55,30
1320,set_tempo,240,1,0,1578947,,,,,,,,,,,,
1320,note_on,5,0,11,,,,,,,,10,,,,55,30
1320,note_on,5,0,10,,,,,,,,8,,,,58,30
1320,note_on,5,0,5,,,,,,,,3,,,,58,30
1495,note_off,175,0,11,,,,,,,,10,,,,55,64
1495,note_off,175,0,6,,,,,,,,4,,,,55,64
1495,note_off,175,0,10,,,,,,,,8,,,,58,64
1495,note_off,175,0,5,,,,,,,,3,,,,58,64
1500,note_on,5,0,5,,,,,,,,3,,,,58,30
1500,note_on,5,0,6,,,,,,,,4,,,,55,30
1500,note_on,5,0,10,,,,,,,,8,,,,58,30
1500,note_on,5,0,11,,,,,,,,10,,,,55,30
1555,note_off,55,0,6,,,,,,,,4,,,,55,64
1555,note_off,55,0,11,,,,,,,,10,,,,55,64
1555,note_off,55,0,5,,,,,,,,3,,,,58,64
1555,note_off,55,0,10,,,,,,,,8,,,,58,64
1560,note_on,5,0,6,,,,,,,,4,,,,55,30
1560,note_on,5,0,11,,,,,,,,10,,,,55,30
1560,set_tempo,240,1,0,1764705,,,,,,,,,,,,
1560,note_on,5,0,5,,,,,,,,3,,,,58,30
1560,note_on,5,0,10,,,,,,,,8,,,,58,30
1795,note_off,235,0,5,,,,,,,,3,,,,58,64
1795,note_off,235,0,10,,,,,,,,8,,,,58,64
1795,note_off,235,0,11,,,,,,,,10,,,,55,64
1795,note_off,235,0,6,,,,,,,,4,,,,55,64
1800,note_on,0,0,3,,,,,,,,1,,,,82,45
1800,note_off,1680,0,4,,,,,,,,2,,,,79,64
1800,note_on,0,0,4,,,,,,,,2,,,,82,30
1800,note_off,1680,0,3,,,,,,,,1,,,,79,64
1920,note_off,840,0,1,,,,,,,,0,,,,79,64
1920,note_off,840,0,2,,,,,,,,0,,,,67,64
2040,note_on,245,0,5,,,,,,,,3,,,,66,30
2040,note_on,245,0,10,,,,,,,,8,,,,66,30
2040,note_off,240,0,3,,,,,,,,1,,,,82,64
2040,note_on,245,0,6,,,,,,,,4,,,,57,30
2040,note_on,0,0,3,,,,,,,,1,,,,72,45
2040,note_on,245,0,11,,,,,,,,10,,,,57,30
2040,set_tempo,480,1,0,1500000,,,,,,,,,,,,
2040,note_on,0,0,4,,,,,,,,2,,,,72,30
2040,note_off,240,0,4,,,,,,,,2,,,,82,64
2215,note_off,175,0,11,,,,,,,,10,,,,57,64
2215,note_off,175,0,10,,,,,,,,8,,,,66,64
2215,note_off,175,0,6,,,,,,,,4,,,,57,64
2215,note_off,175,0,5,,,,,,,,3,,,,66,64
2220,note_on,5,0,6,,,,,,,,4,,,,57,30
2220,note_on,5,0,10,,,,,,,,8,,,,66,30
2220,note_on,5,0,5,,,,,,,,3,,,,66,30
2220,note_on,5,0,11,,,,,,,,10,,,,57,30
2275,note_off,55,0,5,,,,,,,,3,,,,66,64
2275,note_off,55,0,11,,,,,,,,10,,,,57,64
2275,note_off,55,0,6,,,,,,,,4,,,,57,64
2275,note_off,55,0,10,,,,,,,,8,,,,66,64
2280,note_on,5,0,5,,,,,,,,3,,,,66,30
2280,note_on,5,0,11,,,,,,,,10,,,,57,30
2280,note_on,5,0,10,,,,,,,,8,,,,66,30
2280,note_on,5,0,6,,,,,,,,4,,,,57,30
2455,note_off,175,0,6,,,,,,,,4,,,,57,64
2455,note_off,175,0,11,,,,,,,,10,,,,57,64
2455,note_off,175,0,10,,,,,,,,8,,,,66,64
2455,note_off,175,0,5,,,,,,,,3,,,,66,64
2460,note_on,5,0,6,,,,,,,,4,,,,57,30
2460,note_on,5,0,11,,,,,,,,10,,,,57,30
2460,note_on,5,0,5,,,,,,,,3,,,,66,30
2460,note_on,5,0,10,,,,,,,,8,,,,66,30
2515,note_off,55,0,6,,,,,,,,4,,,,57,64
2515,note_off,55,0,10,,,,,,,,8,,,,66,64
2515,note_off,55,0,5,,,,,,,,3,,,,66,64
2515,note_off,55,0,11,,,,,,,,10,,,,57,64
2520,note_on,5,0,11,,,,,,,,10,,,,57,30
2520,note_on,600,0,2,,,,,,,,0,,,,50,45
2520,set_tempo,480,1,0,1764705,,,,,,,,,,,,
2520,note_on,5,0,5,,,,,,,,3,,,,66,30
2520,note_on,5,0,10,,,,,,,,8,,,,66,30
2520,note_on,5,0,6,,,,,,,,4,,,,57,30
2520,note_on,600,0,1,,,,,,,,0,,,,62,45
2640,note_off,120,0,1,,,,,,,,0,,,,62,64
2640,note_off,120,0,2,,,,,,,,0,,,,50,64
2640,note_on,0,0,1,,,,,,,,0,,,,66,45
2640,note_on,0,0,2,,,,,,,,0,,,,54,45
2755,note_off,235,0,5,,,,,,,,3,,,,66,64
2755,note_off,235,0,6,,,,,,,,4,,,,57,64
2755,note_off,235,0,10,,,,,,,,8,,,,66,64
2755,note_off,235,0,11,,,,,,,,10,,,,57,64
2760,note_on,0,0,2,,,,,,,,0,,,,57,45
2760,note_off,120,0,2,,,,,,,,0,,,,54,64
2760,note_on,0,0,1,,,,,,,,0,,,,69,45
2760,note_off,120,0,1,,,,,,,,0,,,,66,64
2880,note_off,840,0,3,,,,,,,,1,,,,72,64
2880,note_off,840,0,4,,,,,,,,2,,,,72,64
2880,note_on,0,0,2,,,,,,,,0,,,,60,45
2880,note_off,120,0,2,,,,,,,,0,,,,57,64
2880,note_on,0,0,1,,,,,,,,0,,,,72,45
2880,note_off,120,0,1,,,,,,,,0,,,,69,64
3000,note_off,120,0,2,,,,,,,,0,,,,60,64
3000,note_on,120,0,3,,,,,,,,1,,,,81,45
3000,set_tempo,480,1,0,1500000,,,,,,,,,,,,
3000,note_on,245,0,10,,,,,,,,8,,,,66,30
3000,note_off,120,0,1,,,,,,,,0,,,,72,64
3000,note_on,0,0,1,,,,,,,,0,,,,74,45
3000,note_on,245,0,6,,,,,,,,4,,,,62,30
3000,note_on,120,0,4,,,,,,,,2,,,,81,30
3000,note_on,245,0,5,,,,,,,,3,,,,66,30
3000,note_on,245,0,11,,,,,,,,10,,,,62,30
3000,note_on,0,0,2,,,,,,,,0,,,,62,45
3115,note_off,115,0,1,,,,,,,,0,,,,74,64
3115,note_off,115,0,2,,,,,,,,0,,,,62,64
3120,note_on,5,0,1,,,,,,,,0,,,,62,45
3120,note_on,5,0,2,,,,,,,,0,,,,50,45
3175,note_off,175,0,11,,,,,,,,10,,,,62,64
3175,note_off,175,0,10,,,,,,,,8,,,,66,64
3175,note_off,175,0,6,,,,,,,,4,,,,62,64
3175,note_off,175,0,5,,,,,,,,3,,,,66,64
3180,note_on,5,0,10,,,,,,,,8,,,,66,30
3180,note_on,5,0,6,,,,,,,,4,,,,62,30
3180,note_on,5,0,11,,,,,,,,10,,,,62,30
3180,note_on,5,0,5,,,,,,,,3,,,,66,30
3235,note_off,55,0,11,,,,,,,,10,,,,62,64
3235,note_off,55,0,5,,,,,,,,3,,,,66,64
3235,note_off,55,0,6,,,,,,,,4,,,,62,64
3235,note_off,55,0,10,,,,,,,,8,,,,66,64
3240,note_on,0,0,2,,,,,,,,0,,,,54,45
3240,note_off,120,0,2,,,,,,,,0,,,,50,64
3240,note_on,5,0,5,,,,,,,,3,,,,66,30
3240,set_tempo,240,1,0,1621621,,,,,,,,,,,,
3240,note_on,5,0,11,,,,,,,,10,,,,62,30
3240,note_off,120,0,1,,,,,,,,0,,,,62,64
3240,note_on,0,0,1,,,,,,,,0,,,,66,45
3240,note_on,5,0,10,,,,,,,,8,,,,66,30
3240,note_on,5,0,6,,,,,,,,4,,,,62,30
3360,note_off,120,0,1,,,,,,,,0,,,,66,64
3360,note_on,0,0,1,,,,,,,,0,,,,69,45
3360,note_off,120,0,2,,,,,,,,0,,,,54,64
3360,note_on,0,0,2,,,,,,,,0,,,,57,45
3415,note_off,175,0,6,,,,,,,,4,,,,62,64
3415,note_off,175,0,11,,,,,,,,10,,,,62,64
3415,note_off,175,0,5,,,,,,,,3,,,,66,64
3415,note_off,175,0,10,,,,,,,,8,,,,66,64
3420,note_on,5,0,5,,,,,,,,3,,,,66,30
3420,note_on,5,0,11,,,,,,,,10,,,,62,30
3420,note_on,5,0,6,,,,,,,,4,,,,62,30
3420,note_on,5,0,10,,,,,,,,8,,,,66,30
3475,note_off,55,0,10,,,,,,,,8,,,,66,64
3475,note_off,55,0,5,,,,,,,,3,,,,66,64
3475,note_off,55,0,11,,,,,,,,10,,,,62,64
3475,note_off,55,0,6,,,,,,,,4,,,,62,64
3480,set_tempo,240,1,0,1714285,,,,,,,,,,,,
3480,note_on,5,0,11,,,,,,,,10,,,,62,30
3480,note_on,5,0,10,,,,,,,,8,,,,66,30
3480,note_off,120,0,1,,,,,,,,0,,,,69,64
3480,note_on,5,0,5,,,,,,,,3,,,,66,30
3480,note_off,120,0,2,,,,,,,,0,,,,57,64
3480,note_on,0,0,2,,,,,,,,0,,,,62,45
3480,note_on,0,0,1,,,,,,,,0,,,,74,45
3480,note_on,5,0,6,,,,,,,,4,,,,62,30
3715,note_off,235,0,5,,,,,,,,3,,,,66,64
3715,note_off,235,0,10,,,,,,,,8,,,,66,64
3715,note_off,235,0,6,,,,,,,,4,,,,62,64
3715,note_off,235,0,11,,,,,,,,10,,,,62,64
3720,note_off,720,0,3,,,,,,,,1,,,,81,64
3720,note_on,0,0,4,,,,,,,,2,,,,74,30
3720,note_on,0,0,3,,,,,,,,1,,,,74,45
3720,note_off,720,0,4,,,,,,,,2,,,,81,64
3880,note_off,400,0,1,,,,,,,,0,,,,74,64
3880,note_off,400,0,2,,,,,,,,0,,,,62,64
3960,set_tempo,480,1,0,1500000,,,,,,,,,,,,
3960,note_on,80,0,2,,,,,,,,0,,,,55,45
3960,note_on,245,0,10,,,,,,,,8,,,,58,30
3960,note_on,80,0,1,,,,,,,,0,,,,67,45
3960,note_on,245,0,5,,,,,,,,3,,,,58,30
3960,note_off,240,0,4,,,,,,,,2,,,,74,64
3960,note_on,0,0,4,,,,,,,,2,,,,82,30
3960,note_on,0,0,3,,,,,,,,1,,,,82,45
3960,note_on,245,0,6,,,,,,,,4,,,,55,30
3960,note_off,240,0,3,,,,,,,,1,,,,74,64
3960,note_on,245,0,11,,,,,,,,10,,,,55,30
4080,note_off,120,0,1,,,,,,,,0,,,,67,64
4080,note_on,0,0,1,,,,,,,,0,,,,70,45
4080,note_off,120,0,2,,,,,,,,0,,,,55,64
4080,note_on,0,0,2,,,,,,,,0,,,,58,45
4135,note_off,175,0,10,,,,,,,,8,,,,58,64
4135,note_off,175,0,6,,,,,,,,4,,,,55,64
4135,note_off,175,0,5,,,,,,,,3,,,,58,64
4135,note_off,175,0,11,,,,,,,,10,,,,55,64
4140,note_on,5,0,6,,,,,,,,4,,,,55,30
4140,note_on,5,0,10,,,,,,,,8,,,,58,30
4140,note_on,5,0,11,,,,,,,,10,,,,55,30
4140,note_on,5,0,5,,,,,,,,3,,,,58,30
4195,note_off,55,0,10,,,,,,,,8,,,,58,64
4195,note_off,55,0,11,,,,,,,,10,,,,55,64
4195,note_off,55,0,6,,,,,,,,4,,,,55,64
4195,note_off,55,0,5,,,,,,,,3,,,,58,64
4200,note_on,5,0,5,,,,,,,,3,,,,58,30
4200,note_on,0,0,2,,,,,,,,0,,,,62,45
4200,note_off,120,0,2,,,,,,,,0,,,,58,64
4200,note_on,0,0,1,,,,,,,,0,,,,74,45
4200,note_off,120,0,1,,,,,,,,0,,,,70,64
4200,note_on,5,0,11,,,,,,,,10,,,,55,30
4200,note_on,5,0,6,,,,,,,,4,,,,55,30
4200,set_tempo,240,1,0,1621621,,,,,,,,,,,,
4200,note_on,5,0,10,,,,,,,,8,,,,58,30
4320,note_on,0,0,2,,,,,,,,0,,,,65,45
4320,note_on,0,0,4,,,,,,,,2,,,,81,30
4320,note_on,0,0,1,,,,,,,,0,,,,77,45
4320,note_off,360,0,4,,,,,,,,2,,,,82,64
4320,note_off,120,0,2,,,,,,,,0,,,,62,64
4320,note_off,120,0,1,,,,,,,,0,,,,74,64
4320,note_off,360,0,3,,,,,,,,1,,,,82,64
4320,note_on,0,0,3,,,,,,,,1,,,,81,45
4375,note_off,175,0,6,,,,,,,,4,,,,55,64
4375,note_off,175,0,5,,,,,,,,3,,,,58,64
4375,note_off,175,0,11,,,,,,,,10,,,,55,64
4375,note_off,175,0,10,,,,,,,,8,,,,58,64
4380,note_on,5,0,11,,,,,,,,10,,,,55,30
4380,note_on,5,0,5,,,,,,,,3,,,,58,30
4380,note_on,5,0,6,,,,,,,,4,,,,55,30
4380,note_on,5,0,10,,,,,,,,8,,,,58,30
4435,note_off,55,0,6,,,,,,,,4,,,,55,64
4435,note_off,55,0,11,,,,,,,,10,,,,55,64
4435,note_off,55,0,5,,,,,,,,3,,,,58,64
4435,note_off,55,0,10,,,,,,,,8,,,,58,64
4440,note_off,120,0,2,,,,,,,,0,,,,65,64
4440,note_on,0,0,3,,,,,,,,1,,,,79,45
4440,set_tempo,240,1,0,1714285,,,,,,,,,,,,
4440,note_off,120,0,4,,,,,,,,2,,,,81,64
4440,note_on,5,0,10,,,,,,,,8,,,,58,30
4440,note_off,120,0,3,,,,,,,,1,,,,81,64
4440,note_on,0,0,4,,,,,,,,2,,,,79,30
4440,note_on,0,0,2,,,,,,,,0,,,,67,45
4440,note_on,5,0,11,,,,,,,,10,,,,55,30
4440,note_on,5,0,6,,,,,,,,4,,,,55,30
4440,note_on,5,0,5,,,,,,,,3,,,,58,30
4440,note_off,120,0,1,,,,,,,,0,,,,77,64
4440,note_on,0,0,1,,,,,,,,0,,,,79,45
4675,note_off,235,0,5,,,,,,,,3,,,,58,64
4675,note_off,235,0,11,,,,,,,,10,,,,55,64
4675,note_off,235,0,10,,,,,,,,8,,,,58,64
4675,note_off,235,0,6,,,,,,,,4,,,,55,64
4840,note_off,400,0,2,,,,,,,,0,,,,67,64
4840,note_off,400,0,4,,,,,,,,2,,,,79,64
4840,note_off,400,0,3,,,,,,,,1,,,,79,64
4840,note_off,400,0,1,,,,,,,,0,,,,79,64
4920,note_on,4920,0,12,,,,,,,,11,,,,55,75
4920,note_on,4920,0,13,,,,,,,,12,,,,43,75
4920,note_on,245,0,11,,,,,,,,10,,,,55,75
4920,note_on,245,0,5,,,,,,,,3,,,,58,92
4920,note_on,4920,0,15,,,,,,,,14,,,,31,60
4920,note_on,4920,0,8,,,,,,,,6,,,,43,92
4920,set_tempo,480,1,0,476190,,,,,,,,,,,,
4920,program_change,4920,0,7,,,,,,,,5,,,49,,
4920,note_on,0,0,7,,,,,,,,5,,,,55,75
4920,note_on,4920,0,14,,,,,,,,13,,,,31,75
4920,note_on,4920,0,9,,,,,,,,7,,,,31,92
4920,note_on,245,0,6,,,,,,,,4,,,,55,92
4920,note_on,245,0,10,,,,,,,,8,,,,58,75
5000,note_off,80,0,12,,,,,,,,11,,,,55,64
5000,note_off,80,0,6,,,,,,,,4,,,,55,64
5000,note_off,80,0,7,,,,,,,,5,,,,55,64
5000,note_off,80,0,10,,,,,,,,8,,,,58,64
5000,note_off,80,0,13,,,,,,,,12,,,,43,64
5000,note_off,80,0,5,,,,,,,,3,,,,58,64
5000,note_off,80,0,11,,,,,,,,10,,,,55,64
5000,note_off,80,0,9,,,,,,,,7,,,,31,64
5000,note_off,80,0,14,,,,,,,,13,,,,31,64
5000,note_off,80,0,8,,,,,,,,6,,,,43,64
5160,note_on,160,0,6,,,,,,,,4,,,,55,92
5160,note_on,160,0,8,,,,,,,,6,,,,43,92
5160,note_on,160,0,11,,,,,,,,10,,,,55,75
5160,note_on,160,0,14,,,,,,,,13,,,,31,75
5160,note_on,160,0,7,,,,,,,,5,,,,55,75
5160,note_on,160,0,9,,,,,,,,7,,,,31,92
5160,note_on,160,0,13,,,,,,,,12,,,,43,75
5160,note_on,160,0,5,,,,,,,,3,,,,58,92
5160,note_on,160,0,10,,,,,,,,8,,,,58,75
5160,note_on,160,0,12,,,,,,,,11,,,,55,75
5240,note_off,80,0,14,,,,,,,,13,,,,31,64
5240,note_off,80,0,8,,,,,,,,6,,,,43,64
5240,note_off,80,0,5,,,,,,,,3,,,,58,64
5240,note_off,80,0,13,,,,,,,,12,,,,43,64
5240,note_off,80,0,12,,,,,,,,11,,,,55,64
5240,note_off,80,0,10,,,,,,,,8,,,,58,64
5240,note_off,80,0,9,,,,,,,,7,,,,31,64
5240,note_off,80,0,11,,,,,,,,10,,,,55,64
5240,note_off,80,0,6,,,,,,,,4,,,,55,64
5240,note_off,80,0,7,,,,,,,,5,,,,55,64
5280,note_on,40,0,8,,,,,,,,6,,,,43,92
5280,note_on,40,0,13,,,,,,,,12,,,,43,75
5280,note_on,40,0,10,,,,,,,,8,,,,58,75
5280,note_on,40,0,9,,,,,,,,7,,,,31,92
5280,note_on,40,0,11,,,,,,,,10,,,,55,75
5280,note_on,40,0,12,,,,,,,,11,,,,55,75
5280,note_on,40,0,6,,,,,,,,4,,,,55,92
5280,note_on,40,0,14,,,,,,,,13,,,,31,75
5280,note_on,40,0,5,,,,,,,,3,,,,58,92
5280,note_on,40,0,7,,,,,,,,5,,,,55,75
5320,note_off,400,0,15,,,,,,,,14,,,,31,64
5360,note_off,80,0,14,,,,,,,,13,,,,31,64
5360,note_off,80,0,12,,,,,,,,11,,,,55,64
5360,note_off,80,0,6,,,,,,,,4,,,,55,64
5360,note_off,80,0,13,,,,,,,,12,,,,43,64
5360,note_off,80,0,7,,,,,,,,5,,,,55,64
5360,note_off,80,0,8,,,,,,,,6,,,,43,64
5360,note_off,80,0,9,,,,,,,,7,,,,31,64
5360,note_off,80,0,10,,,,,,,,8,,,,58,64
5360,note_off,80,0,11,,,,,,,,10,,,,55,64
5360,note_off,80,0,5,,,,,,,,3,,,,58,64
5400,note_on,40,0,7,,,,,,,,5,,,,55,75
5400,note_on,40,0,8,,,,,,,,6,,,,43,92
5400,note_on,40,0,9,,,,,,,,7,,,,31,92
5400,note_on,40,0,14,,,,,,,,13,,,,31,75
5400,note_on,40,0,12,,,,,,,,11,,,,55,75
5400,note_on,40,0,10,,,,,,,,8,,,,58,75
5400,note_on,40,0,11,,,,,,,,10,,,,55,75
5400,note_on,40,0,6,,,,,,,,4,,,,55,92
5400,note_on,80,0,15,,,,,,,,14,,,,31,60
5400,note_on,40,0,13,,,,,,,,12,,,,43,75
5400,note_on,40,0,5,,,,,,,,3,,,,58,92
5480,note_off,80,0,12,,,,,,,,11,,,,55,64
5480,note_off,80,0,9,,,,,,,,7,,,,31,64
5480,note_off,80,0,10,,,,,,,,8,,,,58,64
5480,note_off,80,0,14,,,,,,,,13,,,,31,64
5480,note_off,80,0,11,,,,,,,,10,,,,55,64
5480,note_off,80,0,6,,,,,,,,4,,,,55,64
5480,note_off,80,0,7,,,,,,,,5,,,,55,64
5480,note_off,80,0,5,,,,,,,,3,,,,58,64
5480,note_off,80,0,8,,,,,,,,6,,,,43,64
5480,note_off,80,0,13,,,,,,,,12,,,,43,64
5520,note_on,40,0,12,,,,,,,,11,,,,55,75
5520,note_on,40,0,8,,,,,,,,6,,,,43,92
5520,note_on,40,0,10,,,,,,,,8,,,,58,75
5520,note_on,40,0,13,,,,,,,,12,,,,43,75
5520,note_on,40,0,11,,,,,,,,10,,,,55,75
5520,note_on,40,0,14,,,,,,,,13,,,,31,75
5520,note_on,40,0,9,,,,,,,,7,,,,31,92
5520,note_on,40,0,5,,,,,,,,3,,,,58,92
5520,note_on,40,0,6,,,,,,,,4,,,,55,92
5520,note_on,40,0,7,,,,,,,,5,,,,55,75
5600,note_off,80,0,14,,,,,,,,13,,,,31,64
5600,note_off,80,0,12,,,,,,,,11,,,,55,64
5600,note_off,80,0,10,,,,,,,,8,,,,58,64
5600,note_off,80,0,6,,,,,,,,4,,,,55,64
5600,note_off,80,0,11,,,,,,,,10,,,,55,64
5600,note_off,80,0,13,,,,,,,,12,,,,43,64
5600,note_off,80,0,8,,,,,,,,6,,,,43,64
5600,note_off,80,0,7,,,,,,,,5,,,,55,64
5600,note_off,80,0,9,,,,,,,,7,,,,31,64
5600,note_off,80,0,5,,,,,,,,3,,,,58,64
5640,note_on,40,0,13,,,,,,,,12,,,,43,75
5640,note_on,40,0,9,,,,,,,,7,,,,31,92
5640,note_on,40,0,12,,,,,,,,11,,,,55,75
5640,note_on,40,0,10,,,,,,,,8,,,,58,75
5640,note_on,40,0,8,,,,,,,,6,,,,43,92
5640,note_on,40,0,11,,,,,,,,10,,,,55,75
5640,note_on,40,0,5,,,,,,,,3,,,,58,92
5640,note_on,40,0,6,,,,,,,,4,,,,55,92
5640,note_on,40,0,14,,,,,,,,13,,,,31,75
5640,note_on,40,0,7,,,,,,,,5,,,,55,75
5720,note_off,80,0,10,,,,,,,,8,,,,58,64
5720,note_off,80,0,13,,,,,,,,12,,,,43,64
5720,note_off,80,0,11,,,,,,,,10,,,,55,64
5720,note_off,80,0,5,,,,,,,,3,,,,58,64
5720,note_off,80,0,6,,,,,,,,4,,,,55,64
5720,note_off,80,0,12,,,,,,,,11,,,,55,64
5720,note_off,80,0,14,,,,,,,,13,,,,31,64
5720,note_off,80,0,7,,,,,,,,5,,,,55,64
5720,note_off,80,0,9,,,,,,,,7,,,,31,64
5720,note_off,80,0,8,,,,,,,,6,,,,43,64
5760,note_on,40,0,6,,,,,,,,4,,,,55,92
5760,note_on,40,0,5,,,,,,,,3,,,,58,92
5760,note_on,40,0,9,,,,,,,,7,,,,31,92
5760,note_on,40,0,10,,,,,,,,8,,,,58,75
5760,note_on,40,0,11,,,,,,,,10,,,,55,75
5760,note_on,40,0,13,,,,,,,,12,,,,43,75
5760,note_on,40,0,12,,,,,,,,11,,,,55,75
5760,note_on,40,0,8,,,,,,,,6,,,,43,92
5760,note_on,40,0,14,,,,,,,,13,,,,31,75
5760,note_on,40,0,7,,,,,,,,5,,,,55,75
5800,note_off,400,0,15,,,,,,,,14,,,,31,64
5840,note_off,80,0,14,,,,,,,,13,,,,31,64
5840,note_off,80,0,10,,,,,,,,8,,,,58,64
5840,note_off,80,0,8,,,,,,,,6,,,,43,64
5840,note_off,80,0,6,,,,,,,,4,,,,55,64
5840,note_off,80,0,12,,,,,,,,11,,,,55,64
5840,note_off,80,0,13,,,,,,,,12,,,,43,64
5840,note_off,80,0,11,,,,,,,,10,,,,55,64
5840,note_off,80,0,7,,,,,,,,5,,,,55,64
5840,note_off,80,0,9,,,,,,,,7,,,,31,64
5840,note_off,80,0,5,,,,,,,,3,,,,58,64
5880,note_on,40,0,11,,,,,,,,10,,,,55,75
5880,note_on,40,0,13,,,,,,,,12,,,,43,75
5880,note_on,80,0,15,,,,,,,,14,,,,31,60
5880,note_on,40,0,10,,,,,,,,8,,,,58,75
5880,note_on,40,0,5,,,,,,,,3,,,,58,92
5880,note_on,40,0,14,,,,,,,,13,,,,31,75
5880,note_on,40,0,7,,,,,,,,5,,,,55,75
5880,note_on,40,0,6,,,,,,,,4,,,,55,92
5880,note_on,40,0,8,,,,,,,,6,,,,43,92
5880,note_on,40,0,9,,,,,,,,7,,,,31,92
5880,note_on,40,0,12,,,,,,,,11,,,,55,75
5960,note_off,80,0,6,,,,,,,,4,,,,55,64
5960,note_off,80,0,7,,,,,,,,5,,,,55,64
5960,note_off,80,0,13,,,,,,,,12,,,,43,64
5960,note_off,80,0,9,,,,,,,,7,,,,31,64
5960,note_off,80,0,5,,,,,,,,3,,,,58,64
5960,note_off,80,0,14,,,,,,,,13,,,,31,64
5960,note_off,80,0,11,,,,,,,,10,,,,55,64
5960,note_off,80,0,8,,,,,,,,6,,,,43,64
5960,note_off,80,0,12,,,,,,,,11,,,,55,64
5960,note_off,80,0,10,,,,,,,,8,,,,58,64
6000,note_on,40,0,8,,,,,,,,6,,,,43,92
6000,note_on,40,0,7,,,,,,,,5,,,,55,75
6000,note_on,40,0,6,,,,,,,,4,,,,55,92
6000,note_on,40,0,12,,,,,,,,11,,,,55,75
6000,note_on,40,0,9,,,,,,,,7,,,,31,92
6000,note_on,40,0,10,,,,,,,,8,,,,58,75
6000,note_on,40,0,11,,,,,,,,10,,,,55,75
6000,note_on,40,0,13,,,,,,,,12,,,,43,75
6000,note_on,40,0,5,,,,,,,,3,,,,58,92
6000,note_on,40,0,14,,,,,,,,13,,,,31,75
6080,note_off,80,0,9,,,,,,,,7,,,,31,64
6080,note_off,80,0,10,,,,,,,,8,,,,58,64
6080,note_off,80,0,11,,,,,,,,10,,,,55,64
6080,note_off,80,0,12,,,,,,,,11,,,,55,64
6080,note_off,80,0,13,,,,,,,,12,,,,43,64
6080,note_off,80,0,14,,,,,,,,13,,,,31,64
6080,note_off,80,0,5,,,,,,,,3,,,,58,64
6080,note_off,80,0,8,,,,,,,,6,,,,43,64
6080,note_off,80,0,7,,,,,,,,5,,,,55,64
6080,note_off,80,0,6,,,,,,,,4,,,,55,64
6120,note_on,40,0,8,,,,,,,,6,,,,43,92
6120,note_on,40,0,12,,,,,,,,11,,,,55,75
6120,note_on,40,0,7,,,,,,,,5,,,,55,75
6120,note_on,40,0,11,,,,,,,,10,,,,55,75
6120,note_on,40,0,10,,,,,,,,8,,,,58,75
6120,note_on,40,0,6,,,,,,,,4,,,,55,92
6120,note_on,40,0,9,,,,,,,,7,,,,31,92
6120,note_on,40,0,14,,,,,,,,13,,,,31,75
6120,note_on,40,0,13,,,,,,,,12,,,,43,75
6120,note_on,40,0,5,,,,,,,,3,,,,58,92
6200,note_off,80,0,11,,,,,,,,10,,,,55,64
6200,note_off,80,0,10,,,,,,,,8,,,,58,64
6200,note_off,80,0,14,,,,,,,,13,,,,31,64
6200,note_off,80,0,9,,,,,,,,7,,,,31,64
6200,note_off,80,0,6,,,,,,,,4,,,,55,64
6200,note_off,80,0,7,,,,,,,,5,,,,55,64
6200,note_off,80,0,8,,,,,,,,6,,,,43,64
6200,note_off,80,0,13,,,,,,,,12,,,,43,64
6200,note_off,80,0,12,,,,,,,,11,,,,55,64
6200,note_off,80,0,5,,,,,,,,3,,,,58,64
6240,note_on,40,0,10,,,,,,,,8,,,,58,75
6240,note_on,40,0,5,,,,,,,,3,,,,58,92
6240,note_on,40,0,9,,,,,,,,7,,,,31,92
6240,note_on,40,0,14,,,,,,,,13,,,,31,75
6240,note_on,40,0,12,,,,,,,,11,,,,55,75
6240,note_on,40,0,13,,,,,,,,12,,,,43,75
6240,note_on,40,0,8,,,,,,,,6,,,,43,92
6240,note_on,40,0,7,,,,,,,,5,,,,55,75
6240,note_on,40,0,6,,,,,,,,4,,,,55,92
6240,note_on,40,0,11,,,,,,,,10,,,,55,75
6280,note_off,400,0,15,,,,,,,,14,,,,31,64
6320,note_off,80,0,6,,,,,,,,4,,,,55,64
6320,note_off,80,0,5,,,,,,,,3,,,,58,64
6320,note_off,80,0,12,,,,,,,,11,,,,55,64
6320,note_off,80,0,14,,,,,,,,13,,,,31,64
6320,note_off,80,0,8,,,,,,,,6,,,,43,64
6320,note_off,80,0,10,,,,,,,,8,,,,58,64
6320,note_off,80,0,7,,,,,,,,5,,,,55,64
6320,note_off,80,0,13,,,,,,,,12,,,,43,64
6320,note_off,80,0,11,,,,,,,,10,,,,55,64
6320,note_off,80,0,9,,,,,,,,7,,,,31,64
6360,note_on,40,0,5,,,,,,,,3,,,,58,92
6360,note_on,40,0,6,,,,,,,,4,,,,55,92
6360,note_on,40,0,11,,,,,,,,10,,,,55,75
6360,note_on,40,0,13,,,,,,,,12,,,,43,75
6360,note_on,80,0,15,,,,,,,,14,,,,31,60
6360,note_on,40,0,14,,,,,,,,13,,,,31,75
6360,note_on,40,0,12,,,,,,,,11,,,,55,75
6360,note_on,40,0,8,,,,,,,,6,,,,43,92
6360,note_on,40,0,7,,,,,,,,5,,,,55,75
6360,note_on,40,0,9,,,,,,,,7,,,,31,92
6360,note_on,40,0,10,,,,,,,,8,,,,58,75
6440,note_off,80,0,10,,,,,,,,8,,,,58,64
6440,note_off,80,0,5,,,,,,,,3,,,,58,64
6440,note_off,80,0,12,,,,,,,,11,,,,55,64
6440,note_off,80,0,14,,,,,,,,13,,,,31,64
6440,note_off,80,0,11,,,,,,,,10,,,,55,64
6440,note_off,80,0,8,,,,,,,,6,,,,43,64
6440,note_off,80,0,13,,,,,,,,12,,,,43,64
6440,note_off,80,0,7,,,,,,,,5,,,,55,64
6440,note_off,80,0,6,,,,,,,,4,,,,55,64
6440,note_off,80,0,9,,,,,,,,7,,,,31,64
6480,note_on,40,0,14,,,,,,,,13,,,,31,75
6480,note_on,40,0,8,,,,,,,,6,,,,43,92
6480,note_on,40,0,7,,,,,,,,5,,,,55,75
6480,note_on,40,0,5,,,,,,,,3,,,,58,92
6480,note_on,40,0,6,,,,,,,,4,,,,55,92
6480,note_on,40,0,11,,,,,,,,10,,,,55,75
6480,note_on,40,0,12,,,,,,,,11,,,,55,75
6480,note_on,40,0,10,,,,,,,,8,,,,58,75
6480,note_on,40,0,9,,,,,,,,7,,,,31,92
6480,note_on,40,0,13,,,,,,,,12,,,,43,75
6560,note_off,80,0,5,,,,,,,,3,,,,58,64
6560,note_off,80,0,10,,,,,,,,8,,,,58,64
6560,note_off,80,0,13,,,,,,,,12,,,,43,64
6560,note_off,80,0,7,,,,,,,,5,,,,55,64
6560,note_off,80,0,8,,,,,,,,6,,,,43,64
6560,note_off,80,0,12,,,,,,,,11,,,,55,64
6560,note_off,80,0,9,,,,,,,,7,,,,31,64
6560,note_off,80,0,14,,,,,,,,13,,,,31,64
6560,note_off,80,0,11,,,,,,,,10,,,,55,64
6560,note_off,80,0,6,,,,,,,,4,,,,55,64
6600,note_on,40,0,12,,,,,,,,11,,,,55,75
6600,note_on,40,0,8,,,,,,,,6,,,,43,92
6600,note_on,40,0,7,,,,,,,,5,,,,55,75
6600,note_on,40,0,9,,,,,,,,7,,,,31,92
6600,note_on,40,0,14,,,,,,,,13,,,,31,75
6600,note_on,40,0,11,,,,,,,,10,,,,55,75
6600,note_on,40,0,13,,,,,,,,12,,,,43,75
6600,note_on,40,0,10,,,,,,,,8,,,,58,75
6600,note_on,40,0,6,,,,,,,,4,,,,55,92
6600,note_on,40,0,5,,,,,,,,3,,,,58,92
6680,note_off,80,0,12,,,,,,,,11,,,,55,64
6680,note_off,80,0,14,,,,,,,,13,,,,31,64
6680,note_off,80,0,9,,,,,,,,7,,,,31,64
6680,note_off,80,0,6,,,,,,,,4,,,,55,64
6680,note_off,80,0,8,,,,,,,,6,,,,43,64
6680,note_off,80,0,7,,,,,,,,5,,,,55,64
6680,note_off,80,0,11,,,,,,,,10,,,,55,64
6680,note_off,80,0,10,,,,,,,,8,,,,58,64
6680,note_off,80,0,13,,,,,,,,12,,,,43,64
6680,note_off,80,0,5,,,,,,,,3,,,,58,64
6720,note_on,40,0,12,,,,,,,,11,,,,55,75
6720,note_on,40,0,11,,,,,,,,10,,,,55,75
6720,note_on,40,0,9,,,,,,,,7,,,,31,92
6720,note_on,40,0,6,,,,,,,,4,,,,55,92
6720,note_on,40,0,14,,,,,,,,13,,,,31,75
6720,note_on,40,0,7,,,,,,,,5,,,,55,75
6720,note_on,40,0,13,,,,,,,,12,,,,43,75
6720,note_on,40,0,5,,,,,,,,3,,,,58,92
6720,note_on,40,0,8,,,,,,,,6,,,,43,92
6720,note_on,40,0,10,,,,,,,,8,,,,58,75
6760,note_off,400,0,15,,,,,,,,14,,,,31,64
6800,note_off,80,0,11,,,,,,,,10,,,,55,64
6800,note_off,80,0,7,,,,,,,,5,,,,55,64
6800,note_off,80,0,6,,,,,,,,4,,,,55,64
6800,note_off,80,0,13,,,,,,,,12,,,,43,64
6800,note_off,80,0,14,,,,,,,,13,,,,31,64
6800,note_off,80,0,10,,,,,,,,8,,,,58,64
6800,note_off,80,0,12,,,,,,,,11,,,,55,64
6800,note_off,80,0,5,,,,,,,,3,,,,58,64
6800,note_off,80,0,9,,,,,,,,7,,,,31,64
6800,note_off,80,0,8,,,,,,,,6,,,,43,64
6840,note_on,40,0,12,,,,,,,,11,,,,55,75
6840,note_on,80,0,15,,,,,,,,14,,,,31,60
6840,note_on,40,0,10,,,,,,,,8,,,,58,75
6840,note_on,40,0,8,,,,,,,,6,,,,43,92
6840,note_on,40,0,9,,,,,,,,7,,,,31,92
6840,note_on,40,0,7,,,,,,,,5,,,,55,75
6840,note_on,40,0,14,,,,,,,,13,,,,31,75
6840,note_on,40,0,5,,,,,,,,3,,,,58,92
6840,note_on,40,0,11,,,,,,,,10,,,,55,75
6840,note_on,40,0,13,,,,,,,,12,,,,43,75
6840,note_on,40,0,6,,,,,,,,4,,,,55,92
7240,note_off,400,0,14,,,,,,,,13,,,,31,64
7240,note_off,400,0,15,,,,,,,,14,,,,31,64
7240,note_off,400,0,13,,,,,,,,12,,,,43,64
7240,note_off,400,0,12,,,,,,,,11,,,,55,64
7240,note_off,400,0,11,,,,,,,,10,,,,55,64
7240,note_off,400,0,8,,,,,,,,6,,,,43,64
7240,note_off,400,0,7,,,,,,,,5,,,,55,64
7240,note_off,400,0,6,,,,,,,,4,,,,55,64
7240,note_off,400,0,5,,,,,,,,3,,,,58,64
7240,note_off,400,0,9,,,,,,,,7,,,,31,64
7240,note_off,400,0,10,,,,,,,,8,,,,58,64
9720,note_on,2480,0,10,,,,,,,,8,,,,62,30
9720,note_on,2480,0,6,,,,,,,,4,,,,58,30
9720,note_on,4880,0,4,,,,,,,,2,,,,79,30
9720,set_tempo,4800,1,0,1500000,,,,,,,,,,,,
9720,note_on,2480,0,11,,,,,,,,10,,,,58,30
9720,note_on,4880,0,3,,,,,,,,1,,,,79,45
9720,note_on,2480,0,5,,,,,,,,3,,,,62,30
9840,note_on,5000,0,2,,,,,,,,0,,,,46,45
9840,note_on,5000,0,1,,,,,,,,0,,,,58,45
9895,note_off,175,0,5,,,,,,,,3,,,,62,64
9895,note_off,175,0,10,,,,,,,,8,,,,62,64
9895,note_off,175,0,6,,,,,,,,4,,,,58,64
9895,note_off,175,0,11,,,,,,,,10,,,,58,64
9900,note_on,5,0,11,,,,,,,,10,,,,58,30
9900,note_on,5,0,10,,,,,,,,8,,,,62,30
9900,note_on,5,0,6,,,,,,,,4,,,,58,30
9900,note_on,5,0,5,,,,,,,,3,,,,62,30
9955,note_off,55,0,5,,,,,,,,3,,,,62,64
9955,note_off,55,0,6,,,,,,,,4,,,,58,64
9955,note_off,55,0,11,,,,,,,,10,,,,58,64
9955,note_off,55,0,10,,,,,,,,8,,,,62,64
9960,set_tempo,240,1,0,1578947,,,,,,,,,,,,
9960,note_off,120,0,1,,,,,,,,0,,,,58,64
9960,note_on,0,0,1,,,,,,,,0,,,,62,45
9960,note_on,5,0,5,,,,,,,,3,,,,62,30
9960,note_on,0,0,2,,,,,,,,0,,,,50,45
9960,note_off,120,0,2,,,,,,,,0,,,,46,64
9960,note_on,5,0,11,,,,,,,,10,,,,58,30
9960,note_on,5,0,6,,,,,,,,4,,,,58,30
9960,note_on,5,0,10,,,,,,,,8,,,,62,30
10080,note_off,120,0,1,,,,,,,,0,,,,62,64
10080,note_on,0,0,1,,,,,,,,0,,,,65,45
10080,note_off,120,0,2,,,,,,,,0,,,,50,64
10080,note_on,0,0,2,,,,,,,,0,,,,53,45
10135,note_off,175,0,6,,,,,,,,4,,,,58,64
10135,note_off,175,0,5,,,,,,,,3,,,,62,64
10135,note_off,175,0,10,,,,,,,,8,,,,62,64
10135,note_off,175,0,11,,,,,,,,10,,,,58,64
10140,note_on,5,0,11,,,,,,,,10,,,,58,30
10140,note_on,5,0,5,,,,,,,,3,,,,62,30
10140,note_on,5,0,10,,,,,,,,8,,,,62,30
10140,note_on,5,0,6,,,,,,,,4,,,,58,30
10195,note_off,55,0,10,,,,,,,,8,,,,62,64
10195,note_off,55,0,5,,,,,,,,3,,,,62,64
10195,note_off,55,0,6,,,,,,,,4,,,,58,64
10195,note_off,55,0,11,,,,,,,,10,,,,58,64
10200,note_on,5,0,6,,,,,,,,4,,,,58,30
10200,note_on,5,0,10,,,,,,,,8,,,,62,30
10200,set_tempo,240,1,0,1666666,,,,,,,,,,,,
10200,note_on,5,0,5,,,,,,,,3,,,,62,30
10200,note_on,0,0,1,,,,,,,,0,,,,70,45
10200,note_off,120,0,1,,,,,,,,0,,,,65,64
10200,note_on,0,0,2,,,,,,,,0,,,,58,45
10200,note_off,120,0,2,,,,,,,,0,,,,53,64
10200,note_on,5,0,11,,,,,,,,10,,,,58,30
10435,note_off,235,0,5,,,,,,,,3,,,,62,64
10435,note_off,235,0,10,,,,,,,,8,,,,62,64
10435,note_off,235,0,6,,,,,,,,4,,,,58,64
10435,note_off,235,0,11,,,,,,,,10,,,,58,64
10440,note_on,0,0,4,,,,,,,,2,,,,82,30
10440,note_off,720,0,4,,,,,,,,2,,,,79,64
10440,note_on,0,0,3,,,,,,,,1,,,,82,45
10440,note_off,720,0,3,,,,,,,,1,,,,79,64
10600,note_off,400,0,2,,,,,,,,0,,,,58,64
10600,note_off,400,0,1,,,,,,,,0,,,,70,64
10675,note_off,235,0,3,,,,,,,,1,,,,82,64
10675,note_off,235,0,4,,,,,,,,2,,,,82,64
10680,note_on,245,0,5,,,,,,,,3,,,,63,30
10680,note_on,245,0,6,,,,,,,,4,,,,60,30
10680,note_on,245,0,10,,,,,,,,8,,,,63,30
10680,note_on,5,0,3,,,,,,,,1,,,,81,45
10680,note_on,245,0,11,,,,,,,,10,,,,60,30
10680,note_on,5,0,4,,,,,,,,2,,,,81,30
10680,set_tempo,480,1,0,1500000,,,,,,,,,,,,
10800,note_on,200,0,1,,,,,,,,0,,,,60,45
10800,note_on,200,0,2,,,,,,,,0,,,,48,45
10855,note_off,175,0,6,,,,,,,,4,,,,60,64
10855,note_off,175,0,10,,,,,,,,8,,,,63,64
10855,note_off,175,0,5,,,,,,,,3,,,,63,64
10855,note_off,175,0,11,,,,,,,,10,,,,60,64
10860,note_on,5,0,5,,,,,,,,3,,,,63,30
10860,note_on,5,0,10,,,,,,,,8,,,,63,30
10860,note_on,5,0,11,,,,,,,,10,,,,60,30
10860,note_on,5,0,6,,,,,,,,4,,,,60,30
10915,note_off,55,0,5,,,,,,,,3,,,,63,64
10915,note_off,55,0,11,,,,,,,,10,,,,60,64
10915,note_off,55,0,6,,,,,,,,4,,,,60,64
10915,note_off,55,0,10,,,,,,,,8,,,,63,64
10920,note_on,0,0,2,,,,,,,,0,,,,51,45
10920,note_off,120,0,2,,,,,,,,0,,,,48,64
10920,note_on,5,0,10,,,,,,,,8,,,,63,30
10920,note_on,5,0,11,,,,,,,,10,,,,60,30
10920,note_on,5,0,6,,,,,,,,4,,,,60,30
10920,set_tempo,240,1,0,1578947,,,,,,,,,,,,
10920,note_off,120,0,1,,,,,,,,0,,,,60,64
10920,note_on,0,0,1,,,,,,,,0,,,,63,45
10920,note_on,5,0,5,,,,,,,,3,,,,63,30
11040,note_off,120,0,2,,,,,,,,0,,,,51,64
11040,note_on,0,0,2,,,,,,,,0,,,,57,45
11040,note_off,120,0,1,,,,,,,,0,,,,63,64
11040,note_on,0,0,1,,,,,,,,0,,,,69,45
11095,note_off,175,0,5,,,,,,,,3,,,,63,64
11095,note_off,175,0,6,,,,,,,,4,,,,60,64
11095,note_off,175,0,10,,,,,,,,8,,,,63,64
11095,note_off,175,0,11,,,,,,,,10,,,,60,64
11100,note_on,5,0,5,,,,,,,,3,,,,63,30
11100,note_on,5,0,11,,,,,,,,10,,,,60,30
11100,note_on,5,0,6,,,,,,,,4,,,,60,30
11100,note_on,5,0,10,,,,,,,,8,,,,63,30
11155,note_off,55,0,5,,,,,,,,3,,,,63,64
11155,note_off,55,0,11,,,,,,,,10,,,,60,64
11155,note_off,55,0,6,,,,,,,,4,,,,60,64
11155,note_off,55,0,10,,,,,,,,8,,,,63,64
11160,note_on,5,0,11,,,,,,,,10,,,,60,30
11160,note_off,120,0,2,,,,,,,,0,,,,57,64
11160,note_on,0,0,2,,,,,,,,0,,,,60,45
11160,note_on,0,0,1,,,,,,,,0,,,,72,45
11160,note_on,5,0,10,,,,,,,,8,,,,63,30
11160,set_tempo,240,1,0,1714285,,,,,,,,,,,,
11160,note_on,5,0,6,,,,,,,,4,,,,60,30
11160,note_off,120,0,1,,,,,,,,0,,,,69,64
11160,note_on,5,0,5,,,,,,,,3,,,,63,30
11395,note_off,235,0,11,,,,,,,,10,,,,60,64
11395,note_off,235,0,10,,,,,,,,8,,,,63,64
11395,note_off,235,0,5,,,,,,,,3,,,,63,64
11395,note_off,235,0,6,,,,,,,,4,,,,60,64
11400,note_off,720,0,3,,,,,,,,1,,,,81,64
11400,note_on,0,0,4,,,,,,,,2,,,,84,30
11400,note_on,0,0,3,,,,,,,,1,,,,84,45
11400,note_off,720,0,4,,,,,,,,2,,,,81,64
11560,note_off,400,0,1,,,,,,,,0,,,,72,64
11560,note_off,400,0,2,,,,,,,,0,,,,60,64
11635,note_off,235,0,4,,,,,,,,2,,,,84,64
11635,note_off,235,0,3,,,,,,,,1,,,,84,64
11640,note_on,5,0,3,,,,,,,,1,,,,75,45
11640,note_on,245,0,5,,,,,,,,3,,,,65,30
11640,note_on,245,0,10,,,,,,,,8,,,,65,30
11640,note_on,5,0,4,,,,,,,,2,,,,75,30
11640,note_on,245,0,11,,,,,,,,10,,,,57,30
11640,note_on,245,0,6,,,,,,,,4,,,,57,30
11640,set_tempo,480,1,0,1500000,,,,,,,,,,,,
11760,note_on,200,0,2,,,,,,,,0,,,,45,45
11760,note_on,200,0,1,,,,,,,,0,,,,57,45
11815,note_off,175,0,10,,,,,,,,8,,,,65,64
11815,note_off,175,0,6,,,,,,,,4,,,,57,64
11815,note_off,175,0,11,,,,,,,,10,,,,57,64
11815,note_off,175,0,5,,,,,,,,3,,,,65,64
11820,note_on,5,0,6,,,,,,,,4,,,,57,30
11820,note_on,5,0,11,,,,,,,,10,,,,57,30
11820,note_on,5,0,10,,,,,,,,8,,,,65,30
11820,note_on,5,0,5,,,,,,,,3,,,,65,30
11875,note_off,55,0,10,,,,,,,,8,,,,65,64
11875,note_off,55,0,5,,,,,,,,3,,,,65,64
11875,note_off,55,0,6,,,,,,,,4,,,,57,64
11875,note_off,55,0,11,,,,,,,,10,,,,57,64
11880,note_on,5,0,5,,,,,,,,3,,,,65,30
11880,note_on,5,0,10,,,,,,,,8,,,,65,30
11880,note_on,5,0,6,,,,,,,,4,,,,57,30
11880,note_on,0,0,1,,,,,,,,0,,,,63,45
11880,set_tempo,240,1,0,1621621,,,,,,,,,,,,
11880,note_off,120,0,2,,,,,,,,0,,,,45,64
11880,note_on,0,0,2,,,,,,,,0,,,,51,45
11880,note_on,5,0,11,,,,,,,,10,,,,57,30
11880,note_off,120,0,1,,,,,,,,0,,,,57,64
12000,note_on,0,0,2,,,,,,,,0,,,,53,45
12000,note_off,120,0,1,,,,,,,,0,,,,63,64
12000,note_on,0,0,1,,,,,,,,0,,,,65,45
12000,note_off,120,0,2,,,,,,,,0,,,,51,64
12055,note_off,175,0,11,,,,,,,,10,,,,57,64
12055,note_off,175,0,5,,,,,,,,3,,,,65,64
12055,note_off,175,0,6,,,,,,,,4,,,,57,64
12055,note_off,175,0,10,,,,,,,,8,,,,65,64
12060,note_on,5,0,11,,,,,,,,10,,,,57,30
12060,note_on,5,0,5,,,,,,,,3,,,,65,30
12060,note_on,5,0,10,,,,,,,,8,,,,65,30
12060,note_on,5,0,6,,,,,,,,4,,,,57,30
12115,note_off,55,0,10,,,,,,,,8,,,,65,64
12115,note_off,55,0,6,,,,,,,,4,,,,57,64
12115,note_off,55,0,5,,,,,,,,3,,,,65,64
12115,note_off,55,0,11,,,,,,,,10,,,,57,64
12120,note_on,5,0,5,,,,,,,,3,,,,65,30
12120,note_on,5,0,6,,,,,,,,4,,,,57,30
12120,note_on,0,0,2,,,,,,,,0,,,,57,45
12120,note_off,120,0,2,,,,,,,,0,,,,53,64
12120,note_on,5,0,10,,,,,,,,8,,,,65,30
12120,note_on,0,0,1,,,,,,,,0,,,,69,45
12120,note_off,120,0,1,,,,,,,,0,,,,65,64
12120,set_tempo,240,1,0,1714285,,,,,,,,,,,,
12120,note_on,5,0,11,,,,,,,,10,,,,57,30
12355,note_off,235,0,6,,,,,,,,4,,,,57,64
12355,note_off,235,0,5,,,,,,,,3,,,,65,64
12355,note_off,235,0,10,,,,,,,,8,,,,65,64
12355,note_off,235,0,11,,,,,,,,10,,,,57,64
12360,note_on,0,0,3,,,,,,,,1,,,,84,45
12360,note_off,720,0,3,,,,,,,,1,,,,75,64
12360,note_off,720,0,4,,,,,,,,2,,,,75,64
12360,note_on,0,0,4,,,,,,,,2,,,,84,30
12520,note_off,400,0,2,,,,,,,,0,,,,57,64
12520,note_off,400,0,1,,,,,,,,0,,,,69,64
12595,note_off,235,0,4,,,,,,,,2,,,,84,64
12595,note_off,235,0,3,,,,,,,,1,,,,84,64
12600,note_on,245,0,6,,,,,,,,4,,,,58,30
12600,note_on,5,0,4,,,,,,,,2,,,,74,30
12600,note_on,5,0,3,,,,,,,,1,,,,74,45
12600,note_on,245,0,10,,,,,,,,8,,,,65,30
12600,set_tempo,480,1,0,1500000,,,,,,,,,,,,
12600,note_on,245,0,11,,,,,,,,10,,,,58,30
12600,note_on,245,0,5,,,,,,,,3,,,,65,30
12720,note_on,200,0,1,,,,,,,,0,,,,58,45
12720,note_on,200,0,2,,,,,,,,0,,,,46,45
12775,note_off,175,0,10,,,,,,,,8,,,,65,64
12775,note_off,175,0,6,,,,,,,,4,,,,58,64
12775,note_off,175,0,5,,,,,,,,3,,,,65,64
12775,note_off,175,0,11,,,,,,,,10,,,,58,64
12780,note_on,5,0,11,,,,,,,,10,,,,58,30
12780,note_on,5,0,10,,,,,,,,8,,,,65,30
12780,note_on,5,0,6,,,,,,,,4,,,,58,30
12780,note_on,5,0,5,,,,,,,,3,,,,65,30
12835,note_off,55,0,10,,,,,,,,8,,,,65,64
12835,note_off,55,0,6,,,,,,,,4,,,,58,64
12835,note_off,55,0,11,,,,,,,,10,,,,58,64
12835,note_off,55,0,5,,,,,,,,3,,,,65,64
12840,note_on,5,0,6,,,,,,,,4,,,,58,30
12840,set_tempo,240,1,0,1578947,,,,,,,,,,,,
12840,note_off,120,0,2,,,,,,,,0,,,,46,64
12840,note_on,5,0,10,,,,,,,,8,,,,65,30
12840,note_on,0,0,2,,,,,,,,0,,,,50,45
12840,note_on,0,0,1,,,,,,,,0,,,,62,45
12840,note_off,120,0,1,,,,,,,,0,,,,58,64
12840,note_on,5,0,5,,,,,,,,3,,,,65,30
12840,note_on,5,0,11,,,,,,,,10,,,,58,30
12960,note_on,0,0,2,,,,,,,,0,,,,53,45
12960,note_off,120,0,2,,,,,,,,0,,,,50,64
12960,note_on,0,0,1,,,,,,,,0,,,,65,45
12960,note_off,120,0,1,,,,,,,,0,,,,62,64
13015,note_off,175,0,11,,,,,,,,10,,,,58,64
13015,note_off,175,0,5,,,,,,,,3,,,,65,64
13015,note_off,175,0,6,,,,,,,,4,,,,58,64
13015,note_off,175,0,10,,,,,,,,8,,,,65,64
13020,note_on,5,0,11,,,,,,,,10,,,,58,30
13020,note_on,5,0,5,,,,,,,,3,,,,65,30
13020,note_on,5,0,10,,,,,,,,8,,,,65,30
13020,note_on,5,0,6,,,,,,,,4,,,,58,30
13075,note_off,55,0,11,,,,,,,,10,,,,58,64
13075,note_off,55,0,10,,,,,,,,8,,,,65,64
13075,note_off,55,0,5,,,,,,,,3,,,,65,64
13075,note_off,55,0,6,,,,,,,,4,,,,58,64
13080,note_on,0,0,1,,,,,,,,0,,,,70,45
13080,note_off,120,0,1,,,,,,,,0,,,,65,64
13080,note_on,0,0,2,,,,,,,,0,,,,58,45
13080,note_on,5,0,5,,,,,,,,3,,,,65,30
13080,note_on,5,0,6,,,,,,,,4,,,,58,30
13080,note_off,120,0,2,,,,,,,,0,,,,53,64
13080,note_on,5,0,10,,,,,,,,8,,,,65,30
13080,note_on,5,0,11,,,,,,,,10,,,,58,30
13080,set_tempo,240,1,0,1714285,,,,,,,,,,,,
13315,note_off,235,0,11,,,,,,,,10,,,,58,64
13315,note_off,235,0,10,,,,,,,,8,,,,65,64
13315,note_off,235,0,6,,,,,,,,4,,,,58,64
13315,note_off,235,0,5,,,,,,,,3,,,,65,64
13320,note_off,720,0,4,,,,,,,,2,,,,74,64
13320,note_on,0,0,4,,,,,,,,2,,,,70,30
13320,note_off,720,0,3,,,,,,,,1,,,,74,64
13320,note_on,0,0,3,,,,,,,,1,,,,70,45
13480,note_off,400,0,1,,,,,,,,0,,,,70,64
13480,note_off,400,0,2,,,,,,,,0,,,,58,64
13555,note_off,235,0,4,,,,,,,,2,,,,70,64
13555,note_off,235,0,3,,,,,,,,1,,,,70,64
13560,note_on,245,0,5,,,,,,,,3,,,,62,30
13560,note_on,5,0,3,,,,,,,,1,,,,77,45
13560,note_on,5,0,4,,,,,,,,2,,,,77,30
13560,note_on,245,0,6,,,,,,,,4,,,,58,30
13560,note_on,245,0,10,,,,,,,,8,,,,62,30
13560,set_tempo,480,1,0,1500000,,,,,,,,,,,,
13560,note_on,245,0,11,,,,,,,,10,,,,58,30
13680,note_on,200,0,2,,,,,,,,0,,,,46,45
13680,note_on,200,0,1,,,,,,,,0,,,,58,45
13735,note_off,175,0,10,,,,,,,,8,,,,62,64
13735,note_off,175,0,11,,,,,,,,10,,,,58,64
13735,note_off,175,0,5,,,,,,,,3,,,,62,64
13735,note_off,175,0,6,,,,,,,,4,,,,58,64
13740,note_on,5,0,11,,,,,,,,10,,,,58,30
13740,note_on,5,0,10,,,,,,,,8,,,,62,30
13740,note_on,5,0,6,,,,,,,,4,,,,58,30
13740,note_on,5,0,5,,,,,,,,3,,,,62,30
13795,note_off,55,0,10,,,,,,,,8,,,,62,64
13795,note_off,55,0,6,,,,,,,,4,,,,58,64
13795,note_off,55,0,5,,,,,,,,3,,,,62,64
13795,note_off,55,0,11,,,,,,,,10,,,,58,64
13800,note_off,120,0,2,,,,,,,,0,,,,46,64
13800,note_on,5,0,5,,,,,,,,3,,,,62,30
13800,note_on,5,0,11,,,,,,,,10,,,,58,30
13800,note_on,5,0,10,,,,,,,,8,,,,62,30
13800,note_off,120,0,1,,,,,,,,0,,,,58,64
13800,note_on,5,0,6,,,,,,,,4,,,,58,30
13800,set_tempo,240,1,0,1621621,,,,,,,,,,,,
13800,note_on,0,0,1,,,,,,,,0,,,,62,45
13800,note_on,0,0,2,,,,,,,,0,,,,50,45
13920,note_on,0,0,2,,,,,,,,0,,,,53,45
13920,note_off,120,0,2,,,,,,,,0,,,,50,64
13920,note_on,0,0,1,,,,,,,,0,,,,65,45
13920,note_off,120,0,1,,,,,,,,0,,,,62,64
13975,note_off,175,0,11,,,,,,,,10,,,,58,64
13975,note_off,175,0,6,,,,,,,,4,,,,58,64
13975,note_off,175,0,10,,,,,,,,8,,,,62,64
13975,note_off,175,0,5,,,,,,,,3,,,,62,64
13980,note_on,5,0,6,,,,,,,,4,,,,58,30
13980,note_on,5,0,11,,,,,,,,10,,,,58,30
13980,note_on,5,0,10,,,,,,,,8,,,,62,30
13980,note_on,5,0,5,,,,,,,,3,,,,62,30
14035,note_off,55,0,6,,,,,,,,4,,,,58,64
14035,note_off,55,0,11,,,,,,,,10,,,,58,64
14035,note_off,55,0,10,,,,,,,,8,,,,62,64
14035,note_off,55,0,5,,,,,,,,3,,,,62,64
14040,note_on,5,0,6,,,,,,,,4,,,,58,30
14040,note_off,120,0,1,,,,,,,,0,,,,65,64
14040,note_off,120,0,2,,,,,,,,0,,,,53,64
14040,note_on,0,0,2,,,,,,,,0,,,,58,45
14040,note_on,5,0,10,,,,,,,,8,,,,62,30
14040,note_on,0,0,1,,,,,,,,0,,,,70,45
14040,note_on,5,0,5,,,,,,,,3,,,,62,30
14040,note_on,5,0,11,,,,,,,,10,,,,58,30
14040,set_tempo,240,1,0,1621621,,,,,,,,,,,,
14275,note_off,235,0,6,,,,,,,,4,,,,58,64
14275,note_off,235,0,5,,,,,,,,3,,,,62,64
14275,note_off,235,0,10,,,,,,,,8,,,,62,64
14275,note_off,235,0,11,,,,,,,,10,,,,58,64
14280,note_off,720,0,4,,,,,,,,2,,,,77,64
14280,note_on,0,0,3,,,,,,,,1,,,,82,45
14280,note_off,720,0,3,,,,,,,,1,,,,77,64
14280,note_on,0,0,4,,,,,,,,2,,,,82,30
14440,note_off,400,0,2,,,,,,,,0,,,,58,64
14440,note_off,400,0,1,,,,,,,,0,,,,70,64
14515,note_off,235,0,3,,,,,,,,1,,,,82,64
14515,note_off,235,0,4,,,,,,,,2,,,,82,64
14520,note_on,245,0,11,,,,,,,,10,,,,58,30
14520,note_on,245,0,10,,,,,,,,8,,,,63,30
14520,note_on,245,0,6,,,,,,,,4,,,,58,30
14520,note_on,5,0,3,,,,,,,,1,,,,79,45
14520,note_on,5,0,4,,,,,,,,2,,,,79,30
14520,note_on,245,0,5,,,,,,,,3,,,,63,30
14640,note_on,200,0,2,,,,,,,,0,,,,46,45
14640,note_on,200,0,1,,,,,,,,0,,,,58,45
14695,note_off,175,0,10,,,,,,,,8,,,,63,64
14695,note_off,175,0,11,,,,,,,,10,,,,58,64
14695,note_off,175,0,6,,,,,,,,4,,,,58,64
14695,note_off,175,0,5,,,,,,,,3,,,,63,64
14700,note_on,5,0,11,,,,,,,,10,,,,58,30
14700,note_on,5,0,6,,,,,,,,4,,,,58,30
14700,note_on,5,0,5,,,,,,,,3,,,,63,30
14700,note_on,5,0,10,,,,,,,,8,,,,63,30
14755,note_off,55,0,11,,,,,,,,10,,,,58,64
14755,note_off,55,0,6,,,,,,,,4,,,,58,64
14755,note_off,55,0,5,,,,,,,,3,,,,63,64
14755,note_off,55,0,10,,,,,,,,8,,,,63,64
14760,note_on,5,0,11,,,,,,,,10,,,,58,30
14760,set_tempo,720,1,0,1666666,,,,,,,,,,,,
14760,note_off,120,0,2,,,,,,,,0,,,,46,64
14760,note_on,0,0,2,,,,,,,,0,,,,51,45
14760,note_on,5,0,6,,,,,,,,4,,,,58,30
14760,note_off,120,0,1,,,,,,,,0,,,,58,64
14760,note_on,0,0,1,,,,,,,,0,,,,63,45
14760,note_on,5,0,5,,,,,,,,3,,,,63,30
14760,note_on,5,0,10,,,,,,,,8,,,,63,30
14880,note_on,0,0,1,,,,,,,,0,,,,67,45
14880,note_off,120,0,1,,,,,,,,0,,,,63,64
14880,note_off,120,0,2,,,,,,,,0,,,,51,64
14880,note_on,0,0,2,,,,,,,,0,,,,55,45
14935,note_off,175,0,11,,,,,,,,10,,,,58,64
14935,note_off,175,0,5,,,,,,,,3,,,,63,64
14935,note_off,175,0,6,,,,,,,,4,,,,58,64
14935,note_off,175,0,10,,,,,,,,8,,,,63,64
14940,note_on,5,0,5,,,,,,,,3,,,,63,30
14940,note_on,5,0,10,,,,,,,,8,,,,63,30
14940,note_on,5,0,6,,,,,,,,4,,,,58,30
14940,note_on,5,0,11,,,,,,,,10,,,,58,30
14995,note_off,55,0,6,,,,,,,,4,,,,58,64
14995,note_off,55,0,11,,,,,,,,10,,,,58,64
14995,note_off,55,0,5,,,,,,,,3,,,,63,64
14995,note_off,55,0,10,,,,,,,,8,,,,63,64
15000,note_on,5,0,10,,,,,,,,8,,,,63,30
15000,note_on,5,0,11,,,,,,,,10,,,,58,30
15000,note_on,5,0,5,,,,,,,,3,,,,63,30
15000,note_off,120,0,1,,,,,,,,0,,,,67,64
15000,note_on,0,0,1,,,,,,,,0,,,,70,45
15000,set_tempo,240,1,0,1714285,,,,,,,,,,,,
15000,note_off,120,0,2,,,,,,,,0,,,,55,64
15000,note_on,0,0,2,,,,,,,,0,,,,58,45
15000,note_on,5,0,6,,,,,,,,4,,,,58,30
15235,note_off,235,0,6,,,,,,,,4,,,,58,64
15235,note_off,235,0,11,,,,,,,,10,,,,58,64
15235,note_off,235,0,10,,,,,,,,8,,,,63,64
15235,note_off,235,0,5,,,,,,,,3,,,,63,64
15240,note_on,0,0,3,,,,,,,,1,,,,82,45
15240,note_off,720,0,4,,,,,,,,2,,,,79,64
15240,note_on,0,0,4,,,,,,,,2,,,,82,30
15240,note_off,720,0,3,,,,,,,,1,,,,79,64
15400,note_off,400,0,1,,,,,,,,0,,,,70,64
15400,note_off,400,0,2,,,,,,,,0,,,,58,64
15480,note_on,245,0,11,,,,,,,,10,,,,58,30
15480,note_off,240,0,4,,,,,,,,2,,,,82,64
15480,note_on,245,0,6,,,,,,,,4,,,,58,30
15480,note_on,0,0,4,,,,,,,,2,,,,74,30
15480,note_on,245,0,10,,,,,,,,8,,,,65,30
15480,note_off,240,0,3,,,,,,,,1,,,,82,64
15480,note_on,0,0,3,,,,,,,,1,,,,74,45
15480,note_on,245,0,5,,,,,,,,3,,,,65,30
15600,note_on,200,0,2,,,,,,,,0,,,,46,45
15600,note_on,200,0,1,,,,,,,,0,,,,58,45
15655,note_off,175,0,10,,,,,,,,8,,,,65,64
15655,note_off,175,0,6,,,,,,,,4,,,,58,64
15655,note_off,175,0,5,,,,,,,,3,,,,65,64
15655,note_off,175,0,11,,,,,,,,10,,,,58,64
15660,note_on,5,0,5,,,,,,,,3,,,,65,30
15660,note_on,5,0,11,,,,,,,,10,,,,58,30
15660,note_on,5,0,6,,,,,,,,4,,,,58,30
15660,note_on,5,0,10,,,,,,,,8,,,,65,30
15715,note_off,55,0,5,,,,,,,,3,,,,65,64
15715,note_off,55,0,6,,,,,,,,4,,,,58,64
15715,note_off,55,0,10,,,,,,,,8,,,,65,64
15715,note_off,55,0,11,,,,,,,,10,,,,58,64
15720,note_off,120,0,2,,,,,,,,0,,,,46,64
15720,note_on,0,0,2,,,,,,,,0,,,,50,45
15720,note_off,120,0,1,,,,,,,,0,,,,58,64
15720,set_tempo,720,1,0,1666666,,,,,,,,,,,,
15720,note_on,5,0,10,,,,,,,,8,,,,65,30
15720,note_on,5,0,5,,,,,,,,3,,,,65,30
15720,note_on,0,0,1,,,,,,,,0,,,,62,45
15720,note_on,5,0,11,,,,,,,,10,,,,58,30
15720,note_on,5,0,6,,,,,,,,4,,,,58,30
15840,note_off,120,0,2,,,,,,,,0,,,,50,64
15840,note_off,120,0,1,,,,,,,,0,,,,62,64
15840,note_on,0,0,1,,,,,,,,0,,,,65,45
15840,note_on,0,0,2,,,,,,,,0,,,,53,45
15880,note_off,400,0,3,,,,,,,,1,,,,74,64
15880,note_off,400,0,4,,,,,,,,2,,,,74,64
15895,note_off,175,0,6,,,,,,,,4,,,,58,64
15895,note_off,175,0,11,,,,,,,,10,,,,58,64
15895,note_off,175,0,10,,,,,,,,8,,,,65,64
15895,note_off,175,0,5,,,,,,,,3,,,,65,64
15900,note_on,5,0,5,,,,,,,,3,,,,65,30
15900,note_on,5,0,6,,,,,,,,4,,,,58,30
15900,note_on,5,0,10,,,,,,,,8,,,,65,30
15900,note_on,5,0,11,,,,,,,,10,,,,58,30
15955,note_off,55,0,6,,,,,,,,4,,,,58,64
15955,note_off,55,0,10,,,,,,,,8,,,,65,64
15955,note_off,55,0,11,,,,,,,,10,,,,58,64
15955,note_off,55,0,5,,,,,,,,3,,,,65,64
15960,note_off,120,0,1,,,,,,,,0,,,,65,64
15960,note_on,80,0,4,,,,,,,,2,,,,72,30
15960,note_on,5,0,10,,,,,,,,8,,,,65,30
15960,note_on,0,0,2,,,,,,,,0,,,,57,45
15960,note_on,80,0,3,,,,,,,,1,,,,72,45
15960,note_off,120,0,2,,,,,,,,0,,,,53,64
15960,note_on,0,0,2,,,,,,,,0,,,,53,45
15960,note_on,5,0,6,,,,,,,,4,,,,57,30
15960,note_on,5,0,11,,,,,,,,10,,,,57,30
15960,note_on,0,0,1,,,,,,,,0,,,,69,45
15960,note_on,5,0,5,,,,,,,,3,,,,65,30
15960,set_tempo,240,1,0,1818181,,,,,,,,,,,,
15990,note_on,0,0,3,,,,,,,,1,,,,74,45
15990,note_off,30,0,3,,,,,,,,1,,,,72,64
15990,note_on,0,0,4,,,,,,,,2,,,,74,30
15990,note_off,30,0,4,,,,,,,,2,,,,72,64
16020,note_on,0,0,3,,,,,,,,1,,,,72,45
16020,note_off,30,0,3,,,,,,,,1,,,,74,64
16020,note_on,0,0,4,,,,,,,,2,,,,72,30
16020,note_off,30,0,4,,,,,,,,2,,,,74,64
16050,note_off,30,0,3,,,,,,,,1,,,,72,64
16050,note_on,0,0,4,,,,,,,,2,,,,74,30
16050,note_on,0,0,3,,,,,,,,1,,,,74,45
16050,note_off,30,0,4,,,,,,,,2,,,,72,64
16080,note_on,0,0,4,,,,,,,,2,,,,72,30
16080,note_on,0,0,3,,,,,,,,1,,,,72,45
16080,note_off,30,0,3,,,,,,,,1,,,,74,64
16080,note_off,30,0,4,,,,,,,,2,,,,74,64
16110,note_on,0,0,3,,,,,,,,1,,,,74,45
16110,note_off,30,0,4,,,,,,,,2,,,,72,64
16110,note_on,0,0,4,,,,,,,,2,,,,74,30
16110,note_off,30,0,3,,,,,,,,1,,,,72,64
16140,note_off,30,0,4,,,,,,,,2,,,,74,64
16140,note_on,0,0,4,,,,,,,,2,,,,72,30
16140,note_on,0,0,3,,,,,,,,1,,,,72,45
16140,note_off,30,0,3,,,,,,,,1,,,,74,64
16170,note_off,30,0,4,,,,,,,,2,,,,72,64
16170,note_on,0,0,4,,,,,,,,2,,,,74,30
16170,note_on,0,0,3,,,,,,,,1,,,,74,45
16170,note_off,30,0,3,,,,,,,,1,,,,72,64
16195,note_off,235,0,10,,,,,,,,8,,,,65,64
16195,note_off,235,0,6,,,,,,,,4,,,,57,64
16195,note_off,235,0,5,,,,,,,,3,,,,65,64
16195,note_off,235,0,11,,,,,,,,10,,,,57,64
16200,note_off,240,0,2,,,,,,,,0,,,,57,64
16200,note_on,0,0,3,,,,,,,,1,,,,72,45
16200,note_on,0,0,2,,,,,,,,0,,,,29,45
16200,note_on,0,0,2,,,,,,,,0,,,,41,45
16200,note_on,0,0,2,,,,,,,,0,,,,53,45
16200,note_on,0,0,4,,,,,,,,2,,,,72,30
16200,note_off,30,0,3,,,,,,,,1,,,,74,64
16200,note_off,0,0,2,,,,,,,,0,,,,53,64
16200,note_off,30,0,4,,,,,,,,2,,,,74,64
16230,note_off,30,0,4,,,,,,,,2,,,,72,64
16230,note_on,0,0,4,,,,,,,,2,,,,74,30
16230,note_on,0,0,3,,,,,,,,1,,,,74,45
16230,note_off,30,0,3,,,,,,,,1,,,,72,64
16260,note_on,0,0,3,,,,,,,,1,,,,72,45
16260,note_off,30,0,3,,,,,,,,1,,,,74,64
16260,note_off,30,0,4,,,,,,,,2,,,,74,64
16260,note_on,0,0,4,,,,,,,,2,,,,72,30
16290,note_off,30,0,3,,,,,,,,1,,,,72,64
16290,note_on,0,0,3,,,,,,,,1,,,,74,45
16290,note_off,30,0,4,,,,,,,,2,,,,72,64
16290,note_on,0,0,4,,,,,,,,2,,,,74,30
16320,note_on,0,0,3,,,,,,,,1,,,,72,45
16320,note_off,30,0,4,,,,,,,,2,,,,74,64
16320,note_off,30,0,3,,,,,,,,1,,,,74,64
16320,note_on,0,0,4,,,,,,,,2,,,,72,30
16350,note_off,30,0,3,,,,,,,,1,,,,72,64
16350,note_off,30,0,4,,,,,,,,2,,,,72,64
16350,note_on,0,0,4,,,,,,,,2,,,,74,30
16350,note_on,0,0,3,,,,,,,,1,,,,74,45
16360,note_off,400,0,1,,,,,,,,0,,,,69,64
16380,note_off,30,0,3,,,,,,,,1,,,,74,64
16380,note_on,0,0,3,,,,,,,,1,,,,72,45
16380,note_on,0,0,4,,,,,,,,2,,,,72,30
16380,note_off,30,0,4,,,,,,,,2,,,,74,64
16410,note_on,0,0,3,,,,,,,,1,,,,74,45
16410,note_off,30,0,3,,,,,,,,1,,,,72,64
16410,note_off,30,0,4,,,,,,,,2,,,,72,64
16410,note_on,0,0,4,,,,,,,,2,,,,74,30
16435,note_off,235,0,2,,,,,,,,0,,,,53,64
16435,note_off,0,0,2,,,,,,,,0,,,,41,64
16435,note_off,0,0,2,,,,,,,,0,,,,29,64
16440,note_on,245,0,11,,,,,,,,10,,,,58,92
16440,note_on,80,0,1,,,,,,,,0,,,,70,45
16440,note_on,9200,0,12,,,,,,,,11,,,,58,92
16440,note_on,9200,0,9,,,,,,,,7,,,,34,92
16440,note_on,9200,0,7,,,,,,,,5,,,,58,92
16440,note_on,9200,0,14,,,,,,,,13,,,,34,92
16440,set_tempo,480,1,0,476190,,,,,,,,,,,,
16440,note_on,245,0,10,,,,,,,,8,,,,62,92
16440,note_on,0,0,4,,,,,,,,2,,,,70,30
16440,note_off,30,0,4,,,,,,,,2,,,,74,64
16440,note_on,9200,0,8,,,,,,,,6,,,,46,92
16440,note_on,0,0,3,,,,,,,,1,,,,70,45
16440,note_on,5,0,2,,,,,,,,0,,,,38,45
16440,note_on,9200,0,13,,,,,,,,12,,,,46,92
16440,note_on,9200,0,15,,,,,,,,14,,,,34,60
16440,note_on,0,0,2,,,,,,,,0,,,,50,45
16440,note_off,30,0,3,,,,,,,,1,,,,74,64
16440,note_on,245,0,6,,,,,,,,4,,,,58,92
16440,note_on,245,0,5,,,,,,,,3,,,,62,92
16520,note_off,80,0,11,,,,,,,,10,,,,58,64
16520,note_off,80,0,8,,,,,,,,6,,,,46,64
16520,note_off,80,0,7,,,,,,,,5,,,,58,64
16520,note_off,80,0,9,,,,,,,,7,,,,34,64
16520,note_off,80,0,14,,,,,,,,13,,,,34,64
16520,note_off,80,0,12,,,,,,,,11,,,,58,64
16520,note_off,80,0,5,,,,,,,,3,,,,62,64
16520,note_off,80,0,10,,,,,,,,8,,,,62,64
16520,note_off,80,0,13,,,,,,,,12,,,,46,64
16520,note_off,80,0,6,,,,,,,,4,,,,58,64
16680,note_on,160,0,13,,,,,,,,12,,,,46,92
16680,note_on,160,0,7,,,,,,,,5,,,,58,92
16680,note_on,160,0,11,,,,,,,,10,,,,58,92
16680,note_on,160,0,14,,,,,,,,13,,,,34,92
16680,note_on,160,0,8,,,,,,,,6,,,,46,92
16680,note_on,160,0,10,,,,,,,,8,,,,62,92
16680,note_on,160,0,6,,,,,,,,4,,,,58,92
16680,note_on,160,0,9,,,,,,,,7,,,,34,92
16680,note_on,160,0,5,,,,,,,,3,,,,62,92
16680,note_on,160,0,12,,,,,,,,11,,,,58,92
16760,note_off,80,0,14,,,,,,,,13,,,,34,64
16760,note_off,80,0,8,,,,,,,,6,,,,46,64
16760,note_off,80,0,12,,,,,,,,11,,,,58,64
16760,note_off,80,0,13,,,,,,,,12,,,,46,64
16760,note_off,80,0,5,,,,,,,,3,,,,62,64
16760,note_off,80,0,10,,,,,,,,8,,,,62,64
16760,note_off,80,0,7,,,,,,,,5,,,,58,64
16760,note_off,80,0,9,,,,,,,,7,,,,34,64
16760,note_off,80,0,11,,,,,,,,10,,,,58,64
16760,note_off,80,0,6,,,,,,,,4,,,,58,64
16800,note_on,40,0,8,,,,,,,,6,,,,46,92
16800,note_on,40,0,10,,,,,,,,8,,,,62,92
16800,note_on,40,0,13,,,,,,,,12,,,,46,92
16800,note_on,40,0,14,,,,,,,,13,,,,34,92
16800,note_on,40,0,11,,,,,,,,10,,,,58,92
16800,note_on,40,0,6,,,,,,,,4,,,,58,92
16800,note_on,40,0,7,,,,,,,,5,,,,58,92
16800,note_on,40,0,9,,,,,,,,7,,,,34,92
16800,note_on,40,0,5,,,,,,,,3,,,,62,92
16800,note_on,40,0,12,,,,,,,,11,,,,58,92
16840,note_off,400,0,15,,,,,,,,14,,,,34,64
16880,note_off,80,0,6,,,,,,,,4,,,,58,64
16880,note_off,80,0,13,,,,,,,,12,,,,46,64
16880,note_off,80,0,7,,,,,,,,5,,,,58,64
16880,note_off,80,0,11,,,,,,,,10,,,,58,64
16880,note_off,80,0,10,,,,,,,,8,,,,62,64
16880,note_off,80,0,5,,,,,,,,3,,,,62,64
16880,note_off,80,0,9,,,,,,,,7,,,,34,64
16880,note_off,80,0,12,,,,,,,,11,,,,58,64
16880,note_off,80,0,8,,,,,,,,6,,,,46,64
16880,note_off,80,0,14,,,,,,,,13,,,,34,64
16920,note_on,40,0,6,,,,,,,,4,,,,58,92
16920,note_on,40,0,13,,,,,,,,12,,,,46,92
16920,note_on,40,0,7,,,,,,,,5,,,,58,92
16920,note_on,40,0,8,,,,,,,,6,,,,46,92
16920,note_on,40,0,12,,,,,,,,11,,,,58,92
16920,note_on,40,0,14,,,,,,,,13,,,,34,92
16920,note_on,40,0,5,,,,,,,,3,,,,62,92
16920,note_on,40,0,9,,,,,,,,7,,,,34,92
16920,note_on,40,0,10,,,,,,,,8,,,,62,92
16920,note_on,80,0,15,,,,,,,,14,,,,34,60
16920,note_on,40,0,11,,,,,,,,10,,,,58,92
17000,note_off,80,0,5,,,,,,,,3,,,,62,64
17000,note_off,80,0,11,,,,,,,,10,,,,58,64
17000,note_off,80,0,13,,,,,,,,12,,,,46,64
17000,note_off,80,0,14,,,,,,,,13,,,,34,64
17000,note_off,80,0,9,,,,,,,,7,,,,34,64
17000,note_off,80,0,7,,,,,,,,5,,,,58,64
17000,note_off,80,0,6,,,,,,,,4,,,,58,64
17000,note_off,80,0,8,,,,,,,,6,,,,46,64
17000,note_off,80,0,12,,,,,,,,11,,,,58,64
17000,note_off,80,0,10,,,,,,,,8,,,,62,64
17040,note_on,40,0,12,,,,,,,,11,,,,58,92
17040,note_on,40,0,8,,,,,,,,6,,,,46,92
17040,note_on,40,0,11,,,,,,,,10,,,,58,92
17040,note_on,40,0,7,,,,,,,,5,,,,58,92
17040,note_on,40,0,13,,,,,,,,12,,,,46,92
17040,note_on,40,0,5,,,,,,,,3,,,,62,92
17040,note_on,40,0,10,,,,,,,,8,,,,62,92
17040,note_on,40,0,9,,,,,,,,7,,,,34,92
17040,note_on,40,0,6,,,,,,,,4,,,,58,92
17040,note_on,40,0,14,,,,,,,,13,,,,34,92
17120,note_off,80,0,14,,,,,,,,13,,,,34,64
17120,note_off,80,0,13,,,,,,,,12,,,,46,64
17120,note_off,80,0,10,,,,,,,,8,,,,62,64
17120,note_off,80,0,11,,,,,,,,10,,,,58,64
17120,note_off,80,0,7,,,,,,,,5,,,,58,64
17120,note_off,80,0,12,,,,,,,,11,,,,58,64
17120,note_off,80,0,9,,,,,,,,7,,,,34,64
17120,note_off,80,0,6,,,,,,,,4,,,,58,64
17120,note_off,80,0,8,,,,,,,,6,,,,46,64
17120,note_off,80,0,5,,,,,,,,3,,,,62,64
17160,note_on,40,0,9,,,,,,,,7,,,,34,92
17160,note_on,40,0,13,,,,,,,,12,,,,46,92
17160,note_on,40,0,6,,,,,,,,4,,,,58,92
17160,note_on,40,0,7,,,,,,,,5,,,,58,92
17160,note_on,40,0,5,,,,,,,,3,,,,62,92
17160,note_on,40,0,8,,,,,,,,6,,,,46,92
17160,note_on,40,0,12,,,,,,,,11,,,,58,92
17160,note_on,40,0,11,,,,,,,,10,,,,58,92
17160,note_on,40,0,14,,,,,,,,13,,,,34,92
17160,note_on,40,0,10,,,,,,,,8,,,,62,92
17240,note_off,80,0,14,,,,,,,,13,,,,34,64
17240,note_off,80,0,10,,,,,,,,8,,,,62,64
17240,note_off,80,0,7,,,,,,,,5,,,,58,64
17240,note_off,80,0,6,,,,,,,,4,,,,58,64
17240,note_off,80,0,5,,,,,,,,3,,,,62,64
17240,note_off,80,0,11,,,,,,,,10,,,,58,64
17240,note_off,80,0,12,,,,,,,,11,,,,58,64
17240,note_off,80,0,13,,,,,,,,12,,,,46,64
17240,note_off,80,0,8,,,,,,,,6,,,,46,64
17240,note_off,80,0,9,,,,,,,,7,,,,34,64
17280,note_on,40,0,5,,,,,,,,3,,,,62,92
17280,note_off,840,0,1,,,,,,,,0,,,,70,64
17280,note_on,40,0,14,,,,,,,,13,,,,34,92
17280,note_off,840,0,4,,,,,,,,2,,,,70,64
17280,note_on,40,0,10,,,,,,,,8,,,,62,92
17280,note_off,840,0,2,,,,,,,,0,,,,50,64
17280,note_on,40,0,12,,,,,,,,11,,,,58,92
17280,note_on,40,0,11,,,,,,,,10,,,,58,92
17280,note_on,40,0,9,,,,,,,,7,,,,34,92
17280,note_off,0,0,2,,,,,,,,0,,,,38,64
17280,note_on,40,0,7,,,,,,,,5,,,,58,92
17280,note_on,40,0,8,,,,,,,,6,,,,46,92
17280,note_on,40,0,13,,,,,,,,12,,,,46,92
17280,note_on,40,0,6,,,,,,,,4,,,,58,92
17280,note_off,840,0,3,,,,,,,,1,,,,70,64
17320,note_off,400,0,15,,,,,,,,14,,,,34,64
17360,note_off,80,0,10,,,,,,,,8,,,,62,64
17360,note_off,80,0,5,,,,,,,,3,,,,62,64
17360,note_off,80,0,13,,,,,,,,12,,,,46,64
17360,note_off,80,0,12,,,,,,,,11,,,,58,64
17360,note_off,80,0,6,,,,,,,,4,,,,58,64
17360,note_off,80,0,7,,,,,,,,5,,,,58,64
17360,note_off,80,0,14,,,,,,,,13,,,,34,64
17360,note_off,80,0,9,,,,,,,,7,,,,34,64
17360,note_off,80,0,8,,,,,,,,6,,,,46,64
17360,note_off,80,0,11,,,,,,,,10,,,,58,64
17400,note_on,40,0,10,,,,,,,,8,,,,62,92
17400,note_on,40,0,11,,,,,,,,10,,,,58,92
17400,note_on,40,0,9,,,,,,,,7,,,,34,92
17400,note_on,40,0,7,,,,,,,,5,,,,58,92
17400,note_on,40,0,13,,,,,,,,12,,,,46,92
17400,note_on,40,0,6,,,,,,,,4,,,,58,92
17400,note_on,80,0,15,,,,,,,,14,,,,34,60
17400,note_on,40,0,14,,,,,,,,13,,,,34,92
17400,note_on,40,0,5,,,,,,,,3,,,,62,92
17400,note_on,40,0,8,,,,,,,,6,,,,46,92
17400,note_on,40,0,12,,,,,,,,11,,,,58,92
17480,note_off,80,0,12,,,,,,,,11,,,,58,64
17480,note_off,80,0,9,,,,,,,,7,,,,34,64
17480,note_off,80,0,13,,,,,,,,12,,,,46,64
17480,note_off,80,0,5,,,,,,,,3,,,,62,64
17480,note_off,80,0,11,,,,,,,,10,,,,58,64
17480,note_off,80,0,10,,,,,,,,8,,,,62,64
17480,note_off,80,0,6,,,,,,,,4,,,,58,64
17480,note_off,80,0,7,,,,,,,,5,,,,58,64
17480,note_off,80,0,8,,,,,,,,6,,,,46,64
17480,note_off,80,0,14,,,,,,,,13,,,,34,64
17520,note_on,40,0,11,,,,,,,,10,,,,58,92
17520,note_on,40,0,8,,,,,,,,6,,,,46,92
17520,note_on,40,0,6,,,,,,,,4,,,,58,92
17520,note_on,40,0,13,,,,,,,,12,,,,46,92
17520,note_on,40,0,12,,,,,,,,11,,,,58,92
17520,note_on,40,0,5,,,,,,,,3,,,,62,92
17520,note_on,40,0,7,,,,,,,,5,,,,58,92
17520,note_on,40,0,9,,,,,,,,7,,,,34,92
17520,note_on,40,0,14,,,,,,,,13,,,,34,92
17520,note_on,40,0,10,,,,,,,,8,,,,62,92
17600,note_off,80,0,11,,,,,,,,10,,,,58,64
17600,note_off,80,0,14,,,,,,,,13,,,,34,64
17600,note_off,80,0,5,,,,,,,,3,,,,62,64
17600,note_off,80,0,7,,,,,,,,5,,,,58,64
17600,note_off,80,0,8,,,,,,,,6,,,,46,64
17600,note_off,80,0,13,,,,,,,,12,,,,46,64
17600,note_off,80,0,12,,,,,,,,11,,,,58,64
17600,note_off,80,0,9,,,,,,,,7,,,,34,64
17600,note_off,80,0,6,,,,,,,,4,,,,58,64
17600,note_off,80,0,10,,,,,,,,8,,,,62,64
17640,note_on,40,0,5,,,,,,,,3,,,,62,92
17640,note_on,40,0,13,,,,,,,,12,,,,46,92
17640,note_on,40,0,12,,,,,,,,11,,,,58,92
17640,note_on,40,0,6,,,,,,,,4,,,,58,92
17640,note_on,40,0,11,,,,,,,,10,,,,58,92
17640,note_on,40,0,7,,,,,,,,5,,,,58,92
17640,note_on,40,0,14,,,,,,,,13,,,,34,92
17640,note_on,40,0,9,,,,,,,,7,,,,34,92
17640,note_on,40,0,8,,,,,,,,6,,,,46,92
17640,note_on,40,0,10,,,,,,,,8,,,,62,92
17720,note_off,80,0,7,,,,,,,,5,,,,58,64
17720,note_off,80,0,11,,,,,,,,10,,,,58,64
17720,note_off,80,0,8,,,,,,,,6,,,,46,64
17720,note_off,80,0,13,,,,,,,,12,,,,46,64
17720,note_off,80,0,14,,,,,,,,13,,,,34,64
17720,note_off,80,0,9,,,,,,,,7,,,,34,64
17720,note_off,80,0,12,,,,,,,,11,,,,58,64
17720,note_off,80,0,5,,,,,,,,3,,,,62,64
17720,note_off,80,0,10,,,,,,,,8,,,,62,64
17720,note_off,80,0,6,,,,,,,,4,,,,58,64
17760,note_on,40,0,12,,,,,,,,11,,,,58,92
17760,note_on,40,0,7,,,,,,,,5,,,,58,92
17760,note_on,40,0,14,,,,,,,,13,,,,34,92
17760,note_on,40,0,5,,,,,,,,3,,,,62,92
17760,note_on,40,0,8,,,,,,,,6,,,,46,92
17760,note_on,40,0,10,,,,,,,,8,,,,62,92
17760,note_on,40,0,13,,,,,,,,12,,,,46,92
17760,note_on,40,0,9,,,,,,,,7,,,,34,92
17760,note_on,40,0,11,,,,,,,,10,,,,58,92
17760,note_on,40,0,6,,,,,,,,4,,,,58,92
17800,note_off,400,0,15,,,,,,,,14,,,,34,64
17840,note_off,80,0,11,,,,,,,,10,,,,58,64
17840,note_off,80,0,9,,,,,,,,7,,,,34,64
17840,note_off,80,0,10,,,,,,,,8,,,,62,64
17840,note_off,80,0,12,,,,,,,,11,,,,58,64
17840,note_off,80,0,7,,,,,,,,5,,,,58,64
17840,note_off,80,0,6,,,,,,,,4,,,,58,64
17840,note_off,80,0,14,,,,,,,,13,,,,34,64
17840,note_off,80,0,5,,,,,,,,3,,,,62,64
17840,note_off,80,0,8,,,,,,,,6,,,,46,64
17840,note_off,80,0,13,,,,,,,,12,,,,46,64
17880,note_on,40,0,10,,,,,,,,8,,,,62,92
17880,note_on,40,0,13,,,,,,,,12,,,,46,92
17880,note_on,40,0,7,,,,,,,,5,,,,58,92
17880,note_on,80,0,15,,,,,,,,14,,,,34,60
17880,note_on,40,0,11,,,,,,,,10,,,,58,92
17880,note_on,40,0,14,,,,,,,,13,,,,34,92
17880,note_on,40,0,9,,,,,,,,7,,,,34,92
17880,note_on,40,0,12,,,,,,,,11,,,,58,92
17880,note_on,40,0,6,,,,,,,,4,,,,58,92
17880,note_on,40,0,8,,,,,,,,6,,,,46,92
17880,note_on,40,0,5,,,,,,,,3,,,,62,92
17960,note_off,80,0,10,,,,,,,,8,,,,62,64
17960,note_off,80,0,7,,,,,,,,5,,,,58,64
17960,note_off,80,0,8,,,,,,,,6,,,,46,64
17960,note_off,80,0,13,,,,,,,,12,,,,46,64
17960,note_off,80,0,9,,,,,,,,7,,,,34,64
17960,note_off,80,0,11,,,,,,,,10,,,,58,64
17960,note_off,80,0,6,,,,,,,,4,,,,58,64
17960,note_off,80,0,14,,,,,,,,13,,,,34,64
17960,note_off,80,0,5,,,,,,,,3,,,,62,64
17960,note_off,80,0,12,,,,,,,,11,,,,58,64
18000,note_on,40,0,10,,,,,,,,8,,,,62,92
18000,note_on,40,0,12,,,,,,,,11,,,,58,92
18000,note_on,40,0,9,,,,,,,,7,,,,34,92
18000,note_on,40,0,14,,,,,,,,13,,,,34,92
18000,note_on,40,0,6,,,,,,,,4,,,,58,92
18000,note_on,40,0,13,,,,,,,,12,,,,46,92
18000,note_on,40,0,11,,,,,,,,10,,,,58,92
18000,note_on,40,0,8,,,,,,,,6,,,,46,92
18000,note_on,40,0,7,,,,,,,,5,,,,58,92
18000,note_on,40,0,5,,,,,,,,3,,,,62,92
18080,note_off,80,0,10,,,,,,,,8,,,,62,64
18080,note_off,80,0,9,,,,,,,,7,,,,34,64
18080,note_off,80,0,7,,,,,,,,5,,,,58,64
18080,note_off,80,0,14,,,,,,,,13,,,,34,64
18080,note_off,80,0,6,,,,,,,,4,,,,58,64
18080,note_off,80,0,5,,,,,,,,3,,,,62,64
18080,note_off,80,0,8,,,,,,,,6,,,,46,64
18080,note_off,80,0,12,,,,,,,,11,,,,58,64
18080,note_off,80,0,13,,,,,,,,12,,,,46,64
18080,note_off,80,0,11,,,,,,,,10,,,,58,64
18120,note_on,40,0,6,,,,,,,,4,,,,58,92
18120,note_on,40,0,5,,,,,,,,3,,,,62,92
18120,note_on,40,0,8,,,,,,,,6,,,,46,92
18120,note_on,40,0,12,,,,,,,,11,,,,58,92
18120,note_on,40,0,14,,,,,,,,13,,,,34,92
18120,note_on,40,0,9,,,,,,,,7,,,,34,92
18120,note_on,40,0,7,,,,,,,,5,,,,58,92
18120,note_on,40,0,13,,,,,,,,12,,,,46,92
18120,note_on,40,0,10,,,,,,,,8,,,,62,92
18120,note_on,40,0,11,,,,,,,,10,,,,58,92
18200,note_off,80,0,11,,,,,,,,10,,,,58,64
18200,note_off,80,0,10,,,,,,,,8,,,,62,64
18200,note_off,80,0,8,,,,,,,,6,,,,46,64
18200,note_off,80,0,5,,,,,,,,3,,,,62,64
18200,note_off,80,0,9,,,,,,,,7,,,,34,64
18200,note_off,80,0,13,,,,,,,,12,,,,46,64
18200,note_off,80,0,12,,,,,,,,11,,,,58,64
18200,note_off,80,0,14,,,,,,,,13,,,,34,64
18200,note_off,80,0,6,,,,,,,,4,,,,58,64
18200,note_off,80,0,7,,,,,,,,5,,,,58,64
18240,note_on,40,0,12,,,,,,,,11,,,,58,92
18240,note_on,40,0,9,,,,,,,,7,,,,34,92
18240,note_on,40,0,10,,,,,,,,8,,,,62,92
18240,note_on,40,0,14,,,,,,,,13,,,,34,92
18240,note_on,40,0,5,,,,,,,,3,,,,62,92
18240,note_on,40,0,6,,,,,,,,4,,,,58,92
18240,note_on,40,0,8,,,,,,,,6,,,,46,92
18240,note_on,40,0,13,,,,,,,,12,,,,46,92
18240,note_on,40,0,7,,,,,,,,5,,,,58,92
18240,note_on,40,0,11,,,,,,,,10,,,,58,92
18280,note_off,400,0,15,,,,,,,,14,,,,34,64
18320,note_off,80,0,8,,,,,,,,6,,,,46,64
18320,note_off,80,0,11,,,,,,,,10,,,,58,64
18320,note_off,80,0,10,,,,,,,,8,,,,62,64
18320,note_off,80,0,14,,,,,,,,13,,,,34,64
18320,note_off,80,0,12,,,,,,,,11,,,,58,64
18320,note_off,80,0,13,,,,,,,,12,,,,46,64
18320,note_off,80,0,7,,,,,,,,5,,,,58,64
18320,note_off,80,0,5,,,,,,,,3,,,,62,64
18320,note_off,80,0,9,,,,,,,,7,,,,34,64
18320,note_off,80,0,6,,,,,,,,4,,,,58,64
18360,note_on,40,0,5,,,,,,,,3,,,,62,92
18360,note_on,40,0,8,,,,,,,,6,,,,46,92
18360,note_on,80,0,15,,,,,,,,14,,,,34,60
18360,note_on,40,0,9,,,,,,,,7,,,,34,92
18360,note_on,40,0,14,,,,,,,,13,,,,34,92
18360,note_on,40,0,11,,,,,,,,10,,,,58,92
18360,note_on,40,0,6,,,,,,,,4,,,,58,92
18360,note_on,40,0,13,,,,,,,,12,,,,46,92
18360,note_on,40,0,10,,,,,,,,8,,,,62,92
18360,note_on,40,0,7,,,,,,,,5,,,,58,92
18360,note_on,40,0,12,,,,,,,,11,,,,58,92
18760,note_off,400,0,7,,,,,,,,5,,,,58,64
18760,note_off,400,0,15,,,,,,,,14,,,,34,64
18760,note_off,400,0,14,,,,,,,,13,,,,34,64
18760,note_off,400,0,13,,,,,,,,12,,,,46,64
18760,note_off,400,0,6,,,,,,,,4,,,,58,64
18760,note_off,400,0,12,,,,,,,,11,,,,58,64
18760,note_off,400,0,11,,,,,,,,10,,,,58,64
18760,note_off,400,0,5,,,,,,,,3,,,,62,64
18760,note_off,400,0,9,,,,,,,,7,,,,34,64
18760,note_off,400,0,8,,,,,,,,6,,,,46,64
18760,note_off,400,0,10,,,,,,,,8,,,,62,64
21240,note_on,2480,0,10,,,,,,,,8,,,,62,30
21240,note_on,3960,0,4,,,,,,,,2,,,,77,30
21240,note_on,2480,0,5,,,,,,,,3,,,,62,30
21240,set_tempo,4800,1,0,1500000,,,,,,,,,,,,
21240,note_on,3960,0,3,,,,,,,,1,,,,77,45
21240,note_on,2480,0,6,,,,,,,,4,,,,58,30
21240,note_on,2480,0,11,,,,,,,,10,,,,58,30
21360,note_on,4080,0,2,,,,,,,,0,,,,46,45
21360,note_on,4080,0,1,,,,,,,,0,,,,58,45
21415,note_off,175,0,5,,,,,,,,3,,,,62,64
21415,note_off,175,0,11,,,,,,,,10,,,,58,64
21415,note_off,175,0,10,,,,,,,,8,,,,62,64
21415,note_off,175,0,6,,,,,,,,4,,,,58,64
21420,note_on,5,0,10,,,,,,,,8,,,,62,30
21420,note_on,5,0,11,,,,,,,,10,,,,58,30
21420,note_on,5,0,6,,,,,,,,4,,,,58,30
21420,note_on,5,0,5,,,,,,,,3,,,,62,30
21475,note_off,55,0,6,,,,,,,,4,,,,58,64
21475,note_off,55,0,10,,,,,,,,8,,,,62,64
21475,note_off,55,0,11,,,,,,,,10,,,,58,64
21475,note_off,55,0,5,,,,,,,,3,,,,62,64
21480,note_on,5,0,10,,,,,,,,8,,,,62,30
21480,note_on,5,0,11,,,,,,,,10,,,,58,30
21480,note_off,120,0,1,,,,,,,,0,,,,58,64
21480,note_on,5,0,6,,,,,,,,4,,,,58,30
21480,set_tempo,240,1,0,1578947,,,,,,,,,,,,
21480,note_on,0,0,1,,,,,,,,0,,,,62,45
21480,note_on,0,0,2,,,,,,,,0,,,,50,45
21480,note_off,120,0,2,,,,,,,,0,,,,46,64
21480,note_on,5,0,5,,,,,,,,3,,,,62,30
21600,note_on,0,0,1,,,,,,,,0,,,,65,45
21600,note_on,0,0,2,,,,,,,,0,,,,53,45
21600,note_off,120,0,2,,,,,,,,0,,,,50,64
21600,note_off,120,0,1,,,,,,,,0,,,,62,64
21655,note_off,175,0,5,,,,,,,,3,,,,62,64
21655,note_off,175,0,10,,,,,,,,8,,,,62,64
21655,note_off,175,0,6,,,,,,,,4,,,,58,64
21655,note_off,175,0,11,,,,,,,,10,,,,58,64
21660,note_on,5,0,11,,,,,,,,10,,,,58,30
21660,note_on,5,0,6,,,,,,,,4,,,,58,30
21660,note_on,5,0,10,,,,,,,,8,,,,62,30
21660,note_on,5,0,5,,,,,,,,3,,,,62,30
21715,note_off,55,0,10,,,,,,,,8,,,,62,64
21715,note_off,55,0,11,,,,,,,,10,,,,58,64
21715,note_off,55,0,6,,,,,,,,4,,,,58,64
21715,note_off,55,0,5,,,,,,,,3,,,,62,64
21720,note_on,0,0,2,,,,,,,,0,,,,58,45
21720,note_on,5,0,6,,,,,,,,4,,,,58,30
21720,note_off,120,0,2,,,,,,,,0,,,,53,64
21720,note_on,5,0,10,,,,,,,,8,,,,62,30
21720,note_off,120,0,1,,,,,,,,0,,,,65,64
21720,note_on,5,0,5,,,,,,,,3,,,,62,30
21720,note_on,0,0,1,,,,,,,,0,,,,70,45
21720,set_tempo,240,1,0,1714285,,,,,,,,,,,,
21720,note_on,5,0,11,,,,,,,,10,,,,58,30
21955,note_off,235,0,11,,,,,,,,10,,,,58,64
21955,note_off,235,0,10,,,,,,,,8,,,,62,64
21955,note_off,235,0,5,,,,,,,,3,,,,62,64
21955,note_off,235,0,6,,,,,,,,4,,,,58,64
21960,note_off,720,0,3,,,,,,,,1,,,,77,64
21960,note_off,720,0,4,,,,,,,,2,,,,77,64
21960,note_on,0,0,3,,,,,,,,1,,,,70,45
21960,note_on,0,0,4,,,,,,,,2,,,,70,30
22120,note_off,400,0,2,,,,,,,,0,,,,58,64
22120,note_off,400,0,1,,,,,,,,0,,,,70,64
22195,note_off,235,0,3,,,,,,,,1,,,,70,64
22195,note_off,235,0,4,,,,,,,,2,,,,70,64
22200,note_on,245,0,10,,,,,,,,8,,,,62,30
22200,note_on,5,0,4,,,,,,,,2,,,,80,30
22200,note_on,245,0,11,,,,,,,,10,,,,59,30
22200,set_tempo,480,1,0,1500000,,,,,,,,,,,,
22200,note_on,5,0,3,,,,,,,,1,,,,80,45
22200,note_on,245,0,6,,,,,,,,4,,,,59,30
22200,note_on,245,0,5,,,,,,,,3,,,,62,30
22320,note_on,200,0,2,,,,,,,,0,,,,47,45
22320,note_on,200,0,1,,,,,,,,0,,,,59,45
22375,note_off,175,0,6,,,,,,,,4,,,,59,64
22375,note_off,175,0,5,,,,,,,,3,,,,62,64
22375,note_off,175,0,10,,,,,,,,8,,,,62,64
22375,note_off,175,0,11,,,,,,,,10,,,,59,64
22380,note_on,5,0,6,,,,,,,,4,,,,59,30
22380,note_on,5,0,11,,,,,,,,10,,,,59,30
22380,note_on,5,0,5,,,,,,,,3,,,,62,30
22380,note_on,5,0,10,,,,,,,,8,,,,62,30
22435,note_off,55,0,10,,,,,,,,8,,,,62,64
22435,note_off,55,0,5,,,,,,,,3,,,,62,64
22435,note_off,55,0,6,,,,,,,,4,,,,59,64
22435,note_off,55,0,11,,,,,,,,10,,,,59,64
22440,note_off,120,0,2,,,,,,,,0,,,,47,64
22440,note_on,0,0,2,,,,,,,,0,,,,50,45
22440,note_on,5,0,5,,,,,,,,3,,,,62,30
22440,note_on,5,0,10,,,,,,,,8,,,,62,30
22440,note_on,0,0,1,,,,,,,,0,,,,62,45
22440,set_tempo,240,1,0,1621621,,,,,,,,,,,,
22440,note_on,5,0,11,,,,,,,,10,,,,59,30
22440,note_on,5,0,6,,,,,,,,4,,,,59,30
22440,note_off,120,0,1,,,,,,,,0,,,,59,64
22560,note_off,120,0,1,,,,,,,,0,,,,62,64
22560,note_on,0,0,1,,,,,,,,0,,,,65,45
22560,note_off,120,0,2,,,,,,,,0,,,,50,64
22560,note_on,0,0,2,,,,,,,,0,,,,53,45
22615,note_off,175,0,6,,,,,,,,4,,,,59,64
22615,note_off,175,0,11,,,,,,,,10,,,,59,64
22615,note_off,175,0,10,,,,,,,,8,,,,62,64
22615,note_off,175,0,5,,,,,,,,3,,,,62,64
22620,note_on,5,0,10,,,,,,,,8,,,,62,30
22620,note_on,5,0,5,,,,,,,,3,,,,62,30
22620,note_on,5,0,6,,,,,,,,4,,,,59,30
22620,note_on,5,0,11,,,,,,,,10,,,,59,30
22675,note_off,55,0,11,,,,,,,,10,,,,59,64
22675,note_off,55,0,10,,,,,,,,8,,,,62,64
22675,note_off,55,0,6,,,,,,,,4,,,,59,64
22675,note_off,55,0,5,,,,,,,,3,,,,62,64
22680,note_on,5,0,11,,,,,,,,10,,,,59,30
22680,note_on,0,0,2,,,,,,,,0,,,,56,45
22680,note_on,5,0,6,,,,,,,,4,,,,59,30
22680,note_off,120,0,2,,,,,,,,0,,,,53,64
22680,note_off,120,0,1,,,,,,,,0,,,,65,64
22680,note_on,0,0,1,,,,,,,,0,,,,68,45
22680,note_on,5,0,5,,,,,,,,3,,,,62,30
22680,note_on,5,0,10,,,,,,,,8,,,,62,30
22680,set_tempo,240,1,0,1714285,,,,,,,,,,,,
22915,note_off,235,0,11,,,,,,,,10,,,,59,64
22915,note_off,235,0,5,,,,,,,,3,,,,62,64
22915,note_off,235,0,6,,,,,,,,4,,,,59,64
22915,note_off,235,0,10,,,,,,,,8,,,,62,64
22920,note_off,720,0,3,,,,,,,,1,,,,80,64
22920,note_off,720,0,4,,,,,,,,2,,,,80,64
22920,note_on,0,0,4,,,,,,,,2,,,,77,30
22920,note_on,0,0,3,,,,,,,,1,,,,77,45
23080,note_off,400,0,1,,,,,,,,0,,,,68,64
23080,note_off,400,0,2,,,,,,,,0,,,,56,64
23155,note_off,235,0,4,,,,,,,,2,,,,77,64
23155,note_off,235,0,3,,,,,,,,1,,,,77,64
23160,note_on,245,0,6,,,,,,,,4,,,,60,30
23160,note_on,5,0,3,,,,,,,,1,,,,75,45
23160,note_on,245,0,5,,,,,,,,3,,,,63,30
23160,set_tempo,480,1,0,1500000,,,,,,,,,,,,
23160,note_on,245,0,10,,,,,,,,8,,,,63,30
23160,note_on,5,0,4,,,,,,,,2,,,,75,30
23160,note_on,80,0,2,,,,,,,,0,,,,51,45
23160,note_on,80,0,1,,,,,,,,0,,,,63,45
23160,note_on,245,0,11,,,,,,,,10,,,,60,30
23280,note_off,120,0,1,,,,,,,,0,,,,63,64
23280,note_off,120,0,2,,,,,,,,0,,,,51,64
23280,note_on,0,0,2,,,,,,,,0,,,,57,45
23280,note_on,0,0,1,,,,,,,,0,,,,69,45
23335,note_off,175,0,10,,,,,,,,8,,,,63,64
23335,note_off,175,0,6,,,,,,,,4,,,,60,64
23335,note_off,175,0,11,,,,,,,,10,,,,60,64
23335,note_off,175,0,5,,,,,,,,3,,,,63,64
23340,note_on,5,0,5,,,,,,,,3,,,,63,30
23340,note_on,5,0,6,,,,,,,,4,,,,60,30
23340,note_on,5,0,11,,,,,,,,10,,,,60,30
23340,note_on,5,0,10,,,,,,,,8,,,,63,30
23395,note_off,55,0,5,,,,,,,,3,,,,63,64
23395,note_off,55,0,6,,,,,,,,4,,,,60,64
23395,note_off,55,0,10,,,,,,,,8,,,,63,64
23395,note_off,55,0,11,,,,,,,,10,,,,60,64
23400,note_on,5,0,5,,,,,,,,3,,,,63,30
23400,note_off,120,0,1,,,,,,,,0,,,,69,64
23400,note_on,5,0,11,,,,,,,,10,,,,60,30
23400,note_on,5,0,10,,,,,,,,8,,,,63,30
23400,note_on,0,0,1,,,,,,,,0,,,,72,45
23400,note_off,120,0,2,,,,,,,,0,,,,57,64
23400,note_on,5,0,6,,,,,,,,4,,,,60,30
23400,note_on,0,0,2,,,,,,,,0,,,,60,45
23400,set_tempo,240,1,0,1578947,,,,,,,,,,,,
23520,note_off,360,0,4,,,,,,,,2,,,,75,64
23520,note_off,120,0,2,,,,,,,,0,,,,60,64
23520,note_on,0,0,3,,,,,,,,1,,,,74,45
23520,note_off,360,0,3,,,,,,,,1,,,,75,64
23520,note_on,0,0,4,,,,,,,,2,,,,74,30
23520,note_on,0,0,1,,,,,,,,0,,,,69,45
23520,note_off,120,0,1,,,,,,,,0,,,,72,64
23520,note_on,0,0,2,,,,,,,,0,,,,57,45
23575,note_off,175,0,11,,,,,,,,10,,,,60,64
23575,note_off,175,0,10,,,,,,,,8,,,,63,64
23575,note_off,175,0,5,,,,,,,,3,,,,63,64
23575,note_off,175,0,6,,,,,,,,4,,,,60,64
23580,note_on,5,0,11,,,,,,,,10,,,,60,30
23580,note_on,5,0,5,,,,,,,,3,,,,63,30
23580,note_on,5,0,10,,,,,,,,8,,,,63,30
23580,note_on,5,0,6,,,,,,,,4,,,,60,30
23635,note_off,55,0,11,,,,,,,,10,,,,60,64
23635,note_off,55,0,5,,,,,,,,3,,,,63,64
23635,note_off,55,0,10,,,,,,,,8,,,,63,64
23635,note_off,55,0,6,,,,,,,,4,,,,60,64
23640,note_on,0,0,2,,,,,,,,0,,,,51,45
23640,note_off,120,0,4,,,,,,,,2,,,,74,64
23640,note_on,0,0,4,,,,,,,,2,,,,72,30
23640,set_tempo,240,1,0,1666666,,,,,,,,,,,,
23640,note_off,120,0,2,,,,,,,,0,,,,57,64
23640,note_on,0,0,3,,,,,,,,1,,,,72,45
23640,note_on,5,0,6,,,,,,,,4,,,,60,30
23640,note_on,5,0,11,,,,,,,,10,,,,60,30
23640,note_on,5,0,10,,,,,,,,8,,,,63,30
23640,note_off,120,0,3,,,,,,,,1,,,,74,64
23640,note_on,5,0,5,,,,,,,,3,,,,63,30
23640,note_off,120,0,1,,,,,,,,0,,,,69,64
23640,note_on,0,0,1,,,,,,,,0,,,,63,45
23760,note_on,0,0,2,,,,,,,,0,,,,57,45
23760,note_off,120,0,1,,,,,,,,0,,,,63,64
23760,note_on,0,0,1,,,,,,,,0,,,,69,45
23760,note_off,120,0,2,,,,,,,,0,,,,51,64
23875,note_off,235,0,6,,,,,,,,4,,,,60,64
23875,note_off,235,0,10,,,,,,,,8,,,,63,64
23875,note_off,235,0,5,,,,,,,,3,,,,63,64
23875,note_off,235,0,11,,,,,,,,10,,,,60,64
23880,note_on,0,0,2,,,,,,,,0,,,,60,45
23880,note_on,0,0,1,,,,,,,,0,,,,72,45
23880,note_off,120,0,2,,,,,,,,0,,,,57,64
23880,note_off,120,0,1,,,,,,,,0,,,,69,64
24000,note_on,0,0,1,,,,,,,,0,,,,69,45
24000,note_off,120,0,2,,,,,,,,0,,,,60,64
24000,note_on,0,0,2,,,,,,,,0,,,,57,45
24000,note_off,120,0,1,,,,,,,,0,,,,72,64
24040,note_off,400,0,3,,,,,,,,1,,,,72,64
24040,note_off,400,0,4,,,,,,,,2,,,,72,64
24115,note_off,115,0,1,,,,,,,,0,,,,69,64
24115,note_off,115,0,2,,,,,,,,0,,,,57,64
24120,note_on,245,0,5,,,,,,,,3,,,,63,30
24120,note_on,245,0,11,,,,,,,,10,,,,60,30
24120,note_on,80,0,3,,,,,,,,1,,,,79,45
24120,note_on,80,0,4,,,,,,,,2,,,,79,30
24120,set_tempo,480,1,0,1500000,,,,,,,,,,,,
24120,note_on,245,0,10,,,,,,,,8,,,,63,30
24120,note_on,245,0,6,,,,,,,,4,,,,60,30
24240,note_on,125,0,2,,,,,,,,0,,,,48,45
24240,note_on,125,0,1,,,,,,,,0,,,,60,45
24295,note_off,175,0,11,,,,,,,,10,,,,60,64
24295,note_off,175,0,10,,,,,,,,8,,,,63,64
24295,note_off,175,0,6,,,,,,,,4,,,,60,64
24295,note_off,175,0,5,,,,,,,,3,,,,63,64
24300,note_on,5,0,10,,,,,,,,8,,,,63,30
24300,note_on,5,0,5,,,,,,,,3,,,,63,30
24300,note_on,5,0,6,,,,,,,,4,,,,60,30
24300,note_on,5,0,11,,,,,,,,10,,,,60,30
24355,note_off,55,0,11,,,,,,,,10,,,,60,64
24355,note_off,55,0,10,,,,,,,,8,,,,63,64
24355,note_off,55,0,5,,,,,,,,3,,,,63,64
24355,note_off,55,0,6,,,,,,,,4,,,,60,64
24360,note_on,0,0,1,,,,,,,,0,,,,63,45
24360,note_on,5,0,5,,,,,,,,3,,,,63,30
24360,note_on,5,0,6,,,,,,,,4,,,,60,30
24360,note_off,120,0,1,,,,,,,,0,,,,60,64
24360,note_on,5,0,11,,,,,,,,10,,,,60,30
24360,set_tempo,240,1,0,1578947,,,,,,,,,,,,
24360,note_off,120,0,2,,,,,,,,0,,,,48,64
24360,note_on,5,0,10,,,,,,,,8,,,,63,30
24360,note_on,0,0,2,,,,,,,,0,,,,51,45
24480,note_on,0,0,1,,,,,,,,0,,,,67,45
24480,note_off,120,0,1,,,,,,,,0,,,,63,64
24480,note_on,0,0,2,,,,,,,,0,,,,55,45
24480,note_off,120,0,2,,,,,,,,0,,,,51,64
24535,note_off,175,0,6,,,,,,,,4,,,,60,64
24535,note_off,175,0,11,,,,,,,,10,,,,60,64
24535,note_off,175,0,10,,,,,,,,8,,,,63,64
24535,note_off,175,0,5,,,,,,,,3,,,,63,64
24540,note_on,5,0,5,,,,,,,,3,,,,63,30
24540,note_on,5,0,6,,,,,,,,4,,,,60,30
24540,note_on,5,0,11,,,,,,,,10,,,,60,30
24540,note_on,5,0,10,,,,,,,,8,,,,63,30
24595,note_off,55,0,6,,,,,,,,4,,,,60,64
24595,note_off,55,0,10,,,,,,,,8,,,,63,64
24595,note_off,55,0,11,,,,,,,,10,,,,60,64
24595,note_off,55,0,5,,,,,,,,3,,,,63,64
24600,note_off,120,0,2,,,,,,,,0,,,,55,64
24600,note_on,0,0,2,,,,,,,,0,,,,60,45
24600,note_on,5,0,11,,,,,,,,10,,,,60,30
24600,note_on,5,0,6,,,,,,,,4,,,,60,30
24600,note_off,120,0,1,,,,,,,,0,,,,67,64
24600,note_on,0,0,1,,,,,,,,0,,,,72,45
24600,note_on,5,0,10,,,,,,,,8,,,,63,30
24600,set_tempo,240,1,0,1666666,,,,,,,,,,,,
24600,note_on,5,0,5,,,,,,,,3,,,,63,30
24835,note_off,235,0,5,,,,,,,,3,,,,63,64
24835,note_off,235,0,10,,,,,,,,8,,,,63,64
24835,note_off,235,0,11,,,,,,,,10,,,,60,64
24835,note_off,235,0,6,,,,,,,,4,,,,60,64
24840,note_on,0,0,3,,,,,,,,1,,,,72,45
24840,note_off,720,0,3,,,,,,,,1,,,,79,64
24840,note_off,720,0,4,,,,,,,,2,,,,79,64
24840,note_on,0,0,4,,,,,,,,2,,,,72,30
25000,note_off,400,0,2,,,,,,,,0,,,,60,64
25000,note_off,400,0,1,,,,,,,,0,,,,72,64
25075,note_off,235,0,3,,,,,,,,1,,,,72,64
25075,note_off,235,0,4,,,,,,,,2,,,,72,64
25080,set_tempo,480,1,0,1500000,,,,,,,,,,,,
25080,note_on,245,0,5,,,,,,,,3,,,,64,30
25080,note_on,5,0,3,,,,,,,,1,,,,82,45
25080,note_on,245,0,10,,,,,,,,8,,,,64,30
25080,note_on,245,0,11,,,,,,,,10,,,,61,30
25080,note_on,5,0,4,,,,,,,,2,,,,82,30
25080,note_on,245,0,6,,,,,,,,4,,,,61,30
25200,note_on,200,0,2,,,,,,,,0,,,,49,45
25200,note_on,200,0,1,,,,,,,,0,,,,61,45
25255,note_off,175,0,10,,,,,,,,8,,,,64,64
25255,note_off,175,0,5,,,,,,,,3,,,,64,64
25255,note_off,175,0,11,,,,,,,,10,,,,61,64
25255,note_off,175,0,6,,,,,,,,4,,,,61,64
25260,note_on,5,0,6,,,,,,,,4,,,,61,30
25260,note_on,5,0,10,,,,,,,,8,,,,64,30
25260,note_on,5,0,5,,,,,,,,3,,,,64,30
25260,note_on,5,0,11,,,,,,,,10,,,,61,30
25315,note_off,55,0,10,,,,,,,,8,,,,64,64
25315,note_off,55,0,6,,,,,,,,4,,,,61,64
25315,note_off,55,0,5,,,,,,,,3,,,,64,64
25315,note_off,55,0,11,,,,,,,,10,,,,61,64
25320,note_on,5,0,11,,,,,,,,10,,,,61,30
25320,note_off,120,0,2,,,,,,,,0,,,,49,64
25320,note_off,120,0,1,,,,,,,,0,,,,61,64
25320,note_on,0,0,1,,,,,,,,0,,,,64,45
25320,note_on,0,0,2,,,,,,,,0,,,,52,45
25320,note_on,5,0,5,,,,,,,,3,,,,64,30
25320,note_on,5,0,10,,,,,,,,8,,,,64,30
25320,set_tempo,240,1,0,1578947,,,,,,,,,,,,
25320,note_on,5,0,6,,,,,,,,4,,,,61,30
25440,note_on,0,0,2,,,,,,,,0,,,,55,45
25440,note_off,120,0,1,,,,,,,,0,,,,64,64
25440,note_off,120,0,2,,,,,,,,0,,,,52,64
25440,note_on,0,0,1,,,,,,,,0,,,,67,45
25495,note_off,175,0,5,,,,,,,,3,,,,64,64
25495,note_off,175,0,10,,,,,,,,8,,,,64,64
25495,note_off,175,0,6,,,,,,,,4,,,,61,64
25495,note_off,175,0,11,,,,,,,,10,,,,61,64
25500,note_on,5,0,5,,,,,,,,3,,,,64,30
25500,note_on,5,0,10,,,,,,,,8,,,,64,30
25500,note_on,5,0,6,,,,,,,,4,,,,61,30
25500,note_on,5,0,11,,,,,,,,10,,,,61,30
25555,note_off,55,0,6,,,,,,,,4,,,,61,64
25555,note_off,55,0,11,,,,,,,,10,,,,61,64
25555,note_off,55,0,5,,,,,,,,3,,,,64,64
25555,note_off,55,0,10,,,,,,,,8,,,,64,64
25560,note_on,0,0,1,,,,,,,,0,,,,70,45
25560,note_off,120,0,1,,,,,,,,0,,,,67,64
25560,note_on,5,0,11,,,,,,,,10,,,,61,30
25560,note_on,0,0,2,,,,,,,,0,,,,58,45
25560,set_tempo,240,1,0,1714285,,,,,,,,,,,,
25560,note_on,5,0,10,,,,,,,,8,,,,64,30
25560,note_off,120,0,2,,,,,,,,0,,,,55,64
25560,note_on,5,0,5,,,,,,,,3,,,,64,30
25560,note_on,5,0,6,,,,,,,,4,,,,61,30
25795,note_off,235,0,10,,,,,,,,8,,,,64,64
25795,note_off,235,0,5,,,,,,,,3,,,,64,64
25795,note_off,235,0,6,,,,,,,,4,,,,61,64
25795,note_off,235,0,11,,,,,,,,10,,,,61,64
25800,note_on,0,0,3,,,,,,,,1,,,,79,45
25800,note_off,720,0,4,,,,,,,,2,,,,82,64
25800,note_on,0,0,4,,,,,,,,2,,,,79,30
25800,note_off,720,0,3,,,,,,,,1,,,,82,64
25960,note_off,400,0,1,,,,,,,,0,,,,70,64
25960,note_off,400,0,2,,,,,,,,0,,,,58,64
26040,note_on,245,0,6,,,,,,,,4,,,,62,30
26040,note_on,245,0,5,,,,,,,,3,,,,69,30
26040,note_on,80,0,2,,,,,,,,0,,,,50,45
26040,set_tempo,480,1,0,1500000,,,,,,,,,,,,
26040,note_on,245,0,11,,,,,,,,10,,,,62,30
26040,note_on,80,0,1,,,,,,,,0,,,,62,45
26040,note_off,240,0,4,,,,,,,,2,,,,79,64
26040,note_on,245,0,10,,,,,,,,8,,,,69,30
26040,note_on,0,0,4,,,,,,,,2,,,,78,30
26040,note_off,240,0,3,,,,,,,,1,,,,79,64
26040,note_on,0,0,3,,,,,,,,1,,,,78,45
26160,note_off,120,0,1,,,,,,,,0,,,,62,64
26160,note_on,0,0,1,,,,,,,,0,,,,66,45
26160,note_off,120,0,2,,,,,,,,0,,,,50,64
26160,note_on,0,0,2,,,,,,,,0,,,,54,45
26215,note_off,175,0,5,,,,,,,,3,,,,69,64
26215,note_off,175,0,6,,,,,,,,4,,,,62,64
26215,note_off,175,0,11,,,,,,,,10,,,,62,64
26215,note_off,175,0,10,,,,,,,,8,,,,69,64
26220,note_on,5,0,5,,,,,,,,3,,,,69,30
26220,note_on,5,0,11,,,,,,,,10,,,,62,30
26220,note_on,5,0,10,,,,,,,,8,,,,69,30
26220,note_on,5,0,6,,,,,,,,4,,,,62,30
26275,note_off,55,0,10,,,,,,,,8,,,,69,64
26275,note_off,55,0,5,,,,,,,,3,,,,69,64
26275,note_off,55,0,11,,,,,,,,10,,,,62,64
26275,note_off,55,0,6,,,,,,,,4,,,,62,64
26280,note_on,5,0,10,,,,,,,,8,,,,69,30
26280,note_on,5,0,6,,,,,,,,4,,,,62,30
26280,note_on,0,0,2,,,,,,,,0,,,,57,45
26280,note_off,120,0,2,,,,,,,,0,,,,54,64
26280,note_on,0,0,1,,,,,,,,0,,,,69,45
26280,note_off,120,0,1,,,,,,,,0,,,,66,64
26280,note_on,5,0,5,,,,,,,,3,,,,69,30
26280,note_on,5,0,11,,,,,,,,10,,,,62,30
26280,set_tempo,240,1,0,1578947,,,,,,,,,,,,
26400,note_off,120,0,2,,,,,,,,0,,,,57,64
26400,note_on,0,0,2,,,,,,,,0,,,,63,45
26400,note_off,120,0,1,,,,,,,,0,,,,69,64
26400,note_on,0,0,3,,,,,,,,1,,,,75,45
26400,note_off,360,0,3,,,,,,,,1,,,,78,64
26400,note_on,0,0,1,,,,,,,,0,,,,75,45
26400,note_on,0,0,4,,,,,,,,2,,,,75,30
26400,note_off,360,0,4,,,,,,,,2,,,,78,64
26455,note_off,175,0,11,,,,,,,,10,,,,62,64
26455,note_off,175,0,10,,,,,,,,8,,,,69,64
26455,note_off,175,0,6,,,,,,,,4,,,,62,64
26455,note_off,175,0,5,,,,,,,,3,,,,69,64
26460,note_on,5,0,10,,,,,,,,8,,,,69,30
26460,note_on,5,0,6,,,,,,,,4,,,,62,30
26460,note_on,5,0,5,,,,,,,,3,,,,69,30
26460,note_on,5,0,11,,,,,,,,10,,,,62,30
26515,note_off,55,0,6,,,,,,,,4,,,,62,64
26515,note_off,55,0,5,,,,,,,,3,,,,69,64
26515,note_off,55,0,11,,,,,,,,10,,,,62,64
26515,note_off,55,0,10,,,,,,,,8,,,,69,64
26520,note_on,0,0,3,,,,,,,,1,,,,74,45
26520,note_on,5,0,5,,,,,,,,3,,,,69,30
26520,note_on,5,0,10,,,,,,,,8,,,,69,30
26520,note_off,120,0,2,,,,,,,,0,,,,63,64
26520,note_off,120,0,1,,,,,,,,0,,,,75,64
26520,note_on,0,0,2,,,,,,,,0,,,,57,45
26520,note_off,120,0,3,,,,,,,,1,,,,75,64
26520,note_on,0,0,1,,,,,,,,0,,,,69,45
26520,note_on,5,0,6,,,,,,,,4,,,,62,30
26520,note_on,5,0,11,,,,,,,,10,,,,62,30
26520,note_off,120,0,4,,,,,,,,2,,,,75,64
26520,set_tempo,240,1,0,1714285,,,,,,,,,,,,
26520,note_on,0,0,4,,,,,,,,2,,,,74,30
26640,note_off,120,0,1,,,,,,,,0,,,,69,64
26640,note_on,0,0,1,,,,,,,,0,,,,66,45
26640,note_on,0,0,2,,,,,,,,0,,,,54,45
26640,note_off,120,0,2,,,,,,,,0,,,,57,64
26755,note_off,235,0,10,,,,,,,,8,,,,69,64
26755,note_off,235,0,6,,,,,,,,4,,,,62,64
26755,note_off,235,0,5,,,,,,,,3,,,,69,64
26755,note_off,235,0,11,,,,,,,,10,,,,62,64
26760,note_off,120,0,2,,,,,,,,0,,,,54,64
26760,note_off,120,0,1,,,,,,,,0,,,,66,64
26760,note_on,0,0,1,,,,,,,,0,,,,62,45
26760,note_on,0,0,2,,,,,,,,0,,,,50,45
26920,note_off,400,0,4,,,,,,,,2,,,,74,64
26920,note_off,400,0,3,,,,,,,,1,,,,74,64
26995,note_off,235,0,1,,,,,,,,0,,,,62,64
26995,note_off,235,0,2,,,,,,,,0,,,,50,64
27000,note_on,245,0,10,,,,,,,,8,,,,67,30
27000,note_on,80,0,3,,,,,,,,1,,,,82,45
27000,note_on,245,0,5,,,,,,,,3,,,,67,30
27000,set_tempo,480,1,0,1500000,,,,,,,,,,,,
27000,note_on,245,0,11,,,,,,,,10,,,,55,30
27000,note_on,245,0,6,,,,,,,,4,,,,55,30
27000,note_on,80,0,4,,,,,,,,2,,,,82,30
27120,note_on,125,0,1,,,,,,,,0,,,,58,45
27120,note_on,125,0,2,,,,,,,,0,,,,46,45
27175,note_off,175,0,11,,,,,,,,10,,,,55,64
27175,note_off,175,0,6,,,,,,,,4,,,,55,64
27175,note_off,175,0,5,,,,,,,,3,,,,67,64
27175,note_off,175,0,10,,,,,,,,8,,,,67,64
27180,note_on,5,0,10,,,,,,,,8,,,,67,30
27180,note_on,5,0,11,,,,,,,,10,,,,55,30
27180,note_on,5,0,6,,,,,,,,4,,,,55,30
27180,note_on,5,0,5,,,,,,,,3,,,,67,30
27235,note_off,55,0,11,,,,,,,,10,,,,55,64
27235,note_off,55,0,6,,,,,,,,4,,,,55,64
27235,note_off,55,0,5,,,,,,,,3,,,,67,64
27235,note_off,55,0,10,,,,,,,,8,,,,67,64
27240,note_on,5,0,5,,,,,,,,3,,,,67,30
27240,note_on,5,0,11,,,,,,,,10,,,,55,30
27240,note_off,120,0,2,,,,,,,,0,,,,46,64
27240,note_on,0,0,2,,,,,,,,0,,,,50,45
27240,note_on,0,0,1,,,,,,,,0,,,,62,45
27240,note_on,5,0,10,,,,,,,,8,,,,67,30
27240,set_tempo,240,1,0,1578947,,,,,,,,,,,,
27240,note_off,120,0,1,,,,,,,,0,,,,58,64
27240,note_on,5,0,6,,,,,,,,4,,,,55,30
27360,note_off,120,0,1,,,,,,,,0,,,,62,64
27360,note_on,0,0,1,,,,,,,,0,,,,67,45
27360,note_off,120,0,2,,,,,,,,0,,,,50,64
27360,note_on,0,0,2,,,,,,,,0,,,,55,45
27415,note_off,175,0,5,,,,,,,,3,,,,67,64
27415,note_off,175,0,6,,,,,,,,4,,,,55,64
27415,note_off,175,0,10,,,,,,,,8,,,,67,64
27415,note_off,175,0,11,,,,,,,,10,,,,55,64
27420,note_on,5,0,6,,,,,,,,4,,,,55,30
27420,note_on,5,0,11,,,,,,,,10,,,,55,30
27420,note_on,5,0,10,,,,,,,,8,,,,67,30
27420,note_on,5,0,5,,,,,,,,3,,,,67,30
27475,note_off,55,0,11,,,,,,,,10,,,,55,64
27475,note_off,55,0,5,,,,,,,,3,,,,67,64
27475,note_off,55,0,10,,,,,,,,8,,,,67,64
27475,note_off,55,0,6,,,,,,,,4,,,,55,64
27480,note_off,120,0,2,,,,,,,,0,,,,55,64
27480,note_on,0,0,2,,,,,,,,0,,,,58,45
27480,note_on,5,0,5,,,,,,,,3,,,,67,30
27480,set_tempo,240,1,0,1666666,,,,,,,,,,,,
27480,note_on,0,0,1,,,,,,,,0,,,,70,45
27480,note_off,120,0,1,,,,,,,,0,,,,67,64
27480,note_on,5,0,11,,,,,,,,10,,,,55,30
27480,note_on,5,0,6,,,,,,,,4,,,,55,30
27480,note_on,5,0,10,,,,,,,,8,,,,67,30
27715,note_off,235,0,11,,,,,,,,10,,,,55,64
27715,note_off,235,0,6,,,,,,,,4,,,,55,64
27715,note_off,235,0,10,,,,,,,,8,,,,67,64
27715,note_off,235,0,5,,,,,,,,3,,,,67,64
27720,note_off,720,0,3,,,,,,,,1,,,,82,64
27720,note_on,0,0,3,,,,,,,,1,,,,79,45
27720,note_off,720,0,4,,,,,,,,2,,,,82,64
27720,note_on,0,0,4,,,,,,,,2,,,,79,30
27880,note_off,400,0,2,,,,,,,,0,,,,58,64
27880,note_off,400,0,1,,,,,,,,0,,,,70,64
27960,note_off,240,0,3,,,,,,,,1,,,,79,64
27960,note_on,0,0,4,,,,,,,,2,,,,80,30
27960,note_off,240,0,4,,,,,,,,2,,,,79,64
27960,note_on,0,0,3,,,,,,,,1,,,,80,45
27960,set_tempo,480,1,0,1500000,,,,,,,,,,,,
27960,note_on,245,0,5,,,,,,,,3,,,,63,30
27960,note_on,245,0,10,,,,,,,,8,,,,63,30
27960,note_on,245,0,11,,,,,,,,10,,,,60,30
27960,note_on,245,0,6,,,,,,,,4,,,,60,30
28080,note_on,200,0,1,,,,,,,,0,,,,60,45
28080,note_on,200,0,2,,,,,,,,0,,,,48,45
28135,note_off,175,0,10,,,,,,,,8,,,,63,64
28135,note_off,175,0,5,,,,,,,,3,,,,63,64
28135,note_off,175,0,11,,,,,,,,10,,,,60,64
28135,note_off,175,0,6,,,,,,,,4,,,,60,64
28140,note_on,5,0,11,,,,,,,,10,,,,60,30
28140,note_on,5,0,6,,,,,,,,4,,,,60,30
28140,note_on,5,0,5,,,,,,,,3,,,,63,30
28140,note_on,5,0,10,,,,,,,,8,,,,63,30
28195,note_off,55,0,5,,,,,,,,3,,,,63,64
28195,note_off,55,0,11,,,,,,,,10,,,,60,64
28195,note_off,55,0,6,,,,,,,,4,,,,60,64
28195,note_off,55,0,10,,,,,,,,8,,,,63,64
28200,note_on,5,0,10,,,,,,,,8,,,,63,30
28200,note_on,0,0,2,,,,,,,,0,,,,51,45
28200,note_off,120,0,1,,,,,,,,0,,,,60,64
28200,note_on,0,0,1,,,,,,,,0,,,,63,45
28200,note_off,120,0,2,,,,,,,,0,,,,48,64
28200,set_tempo,240,1,0,1538461,,,,,,,,,,,,
28200,note_on,5,0,5,,,,,,,,3,,,,63,30
28200,note_on,5,0,6,,,,,,,,4,,,,60,30
28200,note_on,5,0,11,,,,,,,,10,,,,60,30
28320,note_off,120,0,1,,,,,,,,0,,,,63,64
28320,note_off,120,0,2,,,,,,,,0,,,,51,64
28320,note_on,0,0,1,,,,,,,,0,,,,68,45
28320,note_on,0,0,2,,,,,,,,0,,,,56,45
28375,note_off,175,0,10,,,,,,,,8,,,,63,64
28375,note_off,175,0,6,,,,,,,,4,,,,60,64
28375,note_off,175,0,5,,,,,,,,3,,,,63,64
28375,note_off,175,0,11,,,,,,,,10,,,,60,64
28380,note_on,5,0,5,,,,,,,,3,,,,63,30
28380,note_on,5,0,10,,,,,,,,8,,,,63,30
28380,note_on,5,0,11,,,,,,,,10,,,,60,30
28380,note_on,5,0,6,,,,,,,,4,,,,60,30
28435,note_off,55,0,11,,,,,,,,10,,,,60,64
28435,note_off,55,0,10,,,,,,,,8,,,,63,64
28435,note_off,55,0,5,,,,,,,,3,,,,63,64
28435,note_off,55,0,6,,,,,,,,4,,,,60,64
28440,note_on,5,0,11,,,,,,,,10,,,,60,30
28440,note_on,5,0,10,,,,,,,,8,,,,63,30
28440,note_on,0,0,1,,,,,,,,0,,,,72,45
28440,set_tempo,240,1,0,1666666,,,,,,,,,,,,
28440,note_off,120,0,1,,,,,,,,0,,,,68,64
28440,note_on,0,0,2,,,,,,,,0,,,,60,45
28440,note_on,5,0,5,,,,,,,,3,,,,63,30
28440,note_off,120,0,2,,,,,,,,0,,,,56,64
28440,note_on,5,0,6,,,,,,,,4,,,,60,30
28675,note_off,235,0,6,,,,,,,,4,,,,60,64
28675,note_off,235,0,11,,,,,,,,10,,,,60,64
28675,note_off,235,0,10,,,,,,,,8,,,,63,64
28675,note_off,235,0,5,,,,,,,,3,,,,63,64
28680,note_on,0,0,3,,,,,,,,1,,,,79,45
28680,note_off,720,0,3,,,,,,,,1,,,,80,64
28680,note_on,0,0,4,,,,,,,,2,,,,79,30
28680,note_off,720,0,4,,,,,,,,2,,,,80,64
28840,note_off,400,0,1,,,,,,,,0,,,,72,64
28840,note_off,400,0,2,,,,,,,,0,,,,60,64
28915,note_off,235,0,4,,,,,,,,2,,,,79,64
28915,note_off,235,0,3,,,,,,,,1,,,,79,64
28920,note_on,245,0,11,,,,,,,,10,,,,60,30
28920,note_on,245,0,5,,,,,,,,3,,,,62,30
28920,note_on,245,0,6,,,,,,,,4,,,,60,30
28920,set_tempo,480,1,0,1500000,,,,,,,,,,,,
28920,note_on,5,0,3,,,,,,,,1,,,,78,45
28920,note_on,5,0,4,,,,,,,,2,,,,78,30
28920,note_on,245,0,10,,,,,,,,8,,,,62,30
29040,note_on,200,0,2,,,,,,,,0,,,,48,45
29040,note_on,200,0,1,,,,,,,,0,,,,60,45
29095,note_off,175,0,6,,,,,,,,4,,,,60,64
29095,note_off,175,0,11,,,,,,,,10,,,,60,64
29095,note_off,175,0,5,,,,,,,,3,,,,62,64
29095,note_off,175,0,10,,,,,,,,8,,,,62,64
29100,note_on,5,0,6,,,,,,,,4,,,,60,30
29100,note_on,5,0,11,,,,,,,,10,,,,60,30
29100,note_on,5,0,5,,,,,,,,3,,,,62,30
29100,note_on,5,0,10,,,,,,,,8,,,,62,30
29155,note_off,55,0,6,,,,,,,,4,,,,60,64
29155,note_off,55,0,11,,,,,,,,10,,,,60,64
29155,note_off,55,0,5,,,,,,,,3,,,,62,64
29155,note_off,55,0,10,,,,,,,,8,,,,62,64
29160,note_off,120,0,1,,,,,,,,0,,,,60,64
29160,note_on,5,0,11,,,,,,,,10,,,,60,30
29160,note_on,0,0,1,,,,,,,,0,,,,62,45
29160,set_tempo,240,1,0,1578947,,,,,,,,,,,,
29160,note_on,5,0,10,,,,,,,,8,,,,62,30
29160,note_on,5,0,6,,,,,,,,4,,,,60,30
29160,note_on,5,0,5,,,,,,,,3,,,,62,30
29160,note_on,0,0,2,,,,,,,,0,,,,50,45
29160,note_off,120,0,2,,,,,,,,0,,,,48,64
29280,note_on,0,0,2,,,,,,,,0,,,,54,45
29280,note_off,120,0,2,,,,,,,,0,,,,50,64
29280,note_off,120,0,1,,,,,,,,0,,,,62,64
29280,note_on,0,0,1,,,,,,,,0,,,,66,45
29335,note_off,175,0,11,,,,,,,,10,,,,60,64
29335,note_off,175,0,5,,,,,,,,3,,,,62,64
29335,note_off,175,0,10,,,,,,,,8,,,,62,64
29335,note_off,175,0,6,,,,,,,,4,,,,60,64
29340,note_on,5,0,11,,,,,,,,10,,,,60,30
29340,note_on,5,0,5,,,,,,,,3,,,,62,30
29340,note_on,5,0,6,,,,,,,,4,,,,60,30
29340,note_on,5,0,10,,,,,,,,8,,,,62,30
29395,note_off,55,0,11,,,,,,,,10,,,,60,64
29395,note_off,55,0,5,,,,,,,,3,,,,62,64
29395,note_off,55,0,6,,,,,,,,4,,,,60,64
29395,note_off,55,0,10,,,,,,,,8,,,,62,64
29400,note_on,0,0,1,,,,,,,,0,,,,69,45
29400,note_off,120,0,1,,,,,,,,0,,,,66,64
29400,note_on,0,0,2,,,,,,,,0,,,,57,45
29400,note_off,120,0,2,,,,,,,,0,,,,54,64
29400,set_tempo,240,1,0,1666666,,,,,,,,,,,,
29400,note_on,5,0,5,,,,,,,,3,,,,62,30
29400,note_on,5,0,10,,,,,,,,8,,,,62,30
29400,note_on,5,0,6,,,,,,,,4,,,,60,30
29400,note_on,5,0,11,,,,,,,,10,,,,60,30
29635,note_off,235,0,10,,,,,,,,8,,,,62,64
29635,note_off,235,0,11,,,,,,,,10,,,,60,64
29635,note_off,235,0,6,,,,,,,,4,,,,60,64
29635,note_off,235,0,5,,,,,,,,3,,,,62,64
29640,note_off,720,0,4,,,,,,,,2,,,,78,64
29640,note_off,720,0,3,,,,,,,,1,,,,78,64
29640,note_on,0,0,3,,,,,,,,1,,,,74,45
29640,note_on,0,0,4,,,,,,,,2,,,,74,30
29800,note_off,400,0,1,,,,,,,,0,,,,69,64
29800,note_off,400,0,2,,,,,,,,0,,,,57,64
29880,set_tempo,480,1,0,1500000,,,,,,,,,,,,
29880,note_on,245,0,11,,,,,,,,10,,,,66,30
29880,note_off,240,0,4,,,,,,,,2,,,,74,64
29880,note_on,0,0,4,,,,,,,,2,,,,75,30
29880,note_on,245,0,6,,,,,,,,4,,,,66,30
29880,note_on,245,0,10,,,,,,,,8,,,,69,30
29880,note_on,245,0,5,,,,,,,,3,,,,69,30
29880,note_on,0,0,3,,,,,,,,1,,,,75,45
29880,note_off,240,0,3,,,,,,,,1,,,,74,64
30000,note_on,200,0,1,,,,,,,,0,,,,63,45
30000,note_on,200,0,2,,,,,,,,0,,,,51,45
30055,note_off,175,0,10,,,,,,,,8,,,,69,64
30055,note_off,175,0,6,,,,,,,,4,,,,66,64
30055,note_off,175,0,11,,,,,,,,10,,,,66,64
30055,note_off,175,0,5,,,,,,,,3,,,,69,64
30060,note_on,5,0,5,,,,,,,,3,,,,69,30
30060,note_on,5,0,10,,,,,,,,8,,,,69,30
30060,note_on,5,0,6,,,,,,,,4,,,,66,30
30060,note_on,5,0,11,,,,,,,,10,,,,66,30
30115,note_off,55,0,10,,,,,,,,8,,,,69,64
30115,note_off,55,0,11,,,,,,,,10,,,,66,64
30115,note_off,55,0,6,,,,,,,,4,,,,66,64
30115,note_off,55,0,5,,,,,,,,3,,,,69,64
30120,note_on,5,0,5,,,,,,,,3,,,,69,30
30120,set_tempo,240,1,0,1578947,,,,,,,,,,,,
30120,note_on,5,0,11,,,,,,,,10,,,,66,30
30120,note_on,0,0,2,,,,,,,,0,,,,54,45
30120,note_on,5,0,6,,,,,,,,4,,,,66,30
30120,note_on,5,0,10,,,,,,,,8,,,,69,30
30120,note_on,0,0,1,,,,,,,,0,,,,66,45
30120,note_off,120,0,1,,,,,,,,0,,,,63,64
30120,note_off,120,0,2,,,,,,,,0,,,,51,64
30240,note_off,120,0,2,,,,,,,,0,,,,54,64
30240,note_on,0,0,2,,,,,,,,0,,,,57,45
30240,note_on,0,0,1,,,,,,,,0,,,,69,45
30240,note_off,120,0,1,,,,,,,,0,,,,66,64
30295,note_off,175,0,6,,,,,,,,4,,,,66,64
30295,note_off,175,0,11,,,,,,,,10,,,,66,64
30295,note_off,175,0,10,,,,,,,,8,,,,69,64
30295,note_off,175,0,5,,,,,,,,3,,,,69,64
30300,note_on,5,0,11,,,,,,,,10,,,,66,30
30300,note_on,5,0,5,,,,,,,,3,,,,69,30
30300,note_on,5,0,10,,,,,,,,8,,,,69,30
30300,note_on,5,0,6,,,,,,,,4,,,,66,30
30355,note_off,55,0,11,,,,,,,,10,,,,66,64
30355,note_off,55,0,10,,,,,,,,8,,,,69,64
30355,note_off,55,0,6,,,,,,,,4,,,,66,64
30355,note_off,55,0,5,,,,,,,,3,,,,69,64
30360,note_on,5,0,10,,,,,,,,8,,,,69,30
30360,note_on,5,0,5,,,,,,,,3,,,,69,30
30360,note_on,5,0,6,,,,,,,,4,,,,66,30
30360,note_off,120,0,1,,,,,,,,0,,,,69,64
30360,note_on,0,0,1,,,,,,,,0,,,,75,45
30360,note_on,0,0,2,,,,,,,,0,,,,63,45
30360,note_off,120,0,2,,,,,,,,0,,,,57,64
30360,note_on,5,0,11,,,,,,,,10,,,,66,30
30360,set_tempo,240,1,0,1714285,,,,,,,,,,,,
30595,note_off,235,0,10,,,,,,,,8,,,,69,64
30595,note_off,235,0,5,,,,,,,,3,,,,69,64
30595,note_off,235,0,11,,,,,,,,10,,,,66,64
30595,note_off,235,0,6,,,,,,,,4,,,,66,64
30600,note_off,240,0,1,,,,,,,,0,,,,75,64
30600,note_off,720,0,3,,,,,,,,1,,,,75,64
30600,note_on,0,0,3,,,,,,,,1,,,,74,45
30600,note_off,240,0,2,,,,,,,,0,,,,63,64
30600,note_on,0,0,2,,,,,,,,0,,,,62,45
30600,note_on,0,0,1,,,,,,,,0,,,,74,45
30600,note_off,720,0,4,,,,,,,,2,,,,75,64
30600,note_on,0,0,4,,,,,,,,2,,,,74,30
30835,note_off,235,0,3,,,,,,,,1,,,,74,64
30835,note_off,235,0,4,,,,,,,,2,,,,74,64
30840,note_off,240,0,2,,,,,,,,0,,,,62,64
30840,note_on,0,0,1,,,,,,,,0,,,,72,45
30840,note_on,245,0,6,,,,,,,,4,,,,66,30
30840,note_on,245,0,5,,,,,,,,3,,,,69,30
30840,note_on,245,0,10,,,,,,,,8,,,,69,30
30840,note_on,245,0,11,,,,,,,,10,,,,66,30
30840,note_on,0,0,2,,,,,,,,0,,,,60,45
30840,note_on,5,0,3,,,,,,,,1,,,,84,45
30840,note_on,5,0,4,,,,,,,,2,,,,84,30
30840,note_off,240,0,1,,,,,,,,0,,,,74,64
30840,set_tempo,480,1,0,1500000,,,,,,,,,,,,
30955,note_off,115,0,2,,,,,,,,0,,,,60,64
30955,note_off,115,0,1,,,,,,,,0,,,,72,64
30960,note_on,5,0,1,,,,,,,,0,,,,62,45
30960,note_on,5,0,2,,,,,,,,0,,,,50,45
31015,note_off,175,0,11,,,,,,,,10,,,,66,64
31015,note_off,175,0,5,,,,,,,,3,,,,69,64
31015,note_off,175,0,6,,,,,,,,4,,,,66,64
31015,note_off,175,0,10,,,,,,,,8,,,,69,64
31020,note_on,5,0,6,,,,,,,,4,,,,66,30
31020,note_on,5,0,11,,,,,,,,10,,,,66,30
31020,note_on,5,0,10,,,,,,,,8,,,,69,30
31020,note_on,5,0,5,,,,,,,,3,,,,69,30
31075,note_off,55,0,10,,,,,,,,8,,,,69,64
31075,note_off,55,0,5,,,,,,,,3,,,,69,64
31075,note_off,55,0,6,,,,,,,,4,,,,66,64
31075,note_off,55,0,11,,,,,,,,10,,,,66,64
31080,note_on,5,0,6,,,,,,,,4,,,,66,30
31080,set_tempo,240,1,0,1578947,,,,,,,,,,,,
31080,note_on,0,0,1,,,,,,,,0,,,,66,45
31080,note_on,5,0,10,,,,,,,,8,,,,69,30
31080,note_on,5,0,11,,,,,,,,10,,,,66,30
31080,note_off,120,0,1,,,,,,,,0,,,,62,64
31080,note_off,120,0,2,,,,,,,,0,,,,50,64
31080,note_on,5,0,5,,,,,,,,3,,,,69,30
31080,note_on,0,0,2,,,,,,,,0,,,,54,45
31200,note_on,0,0,2,,,,,,,,0,,,,57,45
31200,note_off,120,0,2,,,,,,,,0,,,,54,64
31200,note_on,0,0,1,,,,,,,,0,,,,69,45
31200,note_off,120,0,1,,,,,,,,0,,,,66,64
31255,note_off,175,0,11,,,,,,,,10,,,,66,64
31255,note_off,175,0,10,,,,,,,,8,,,,69,64
31255,note_off,175,0,5,,,,,,,,3,,,,69,64
31255,note_off,175,0,6,,,,,,,,4,,,,66,64
31260,note_on,5,0,11,,,,,,,,10,,,,66,30
31260,note_on,5,0,6,,,,,,,,4,,,,66,30
31260,note_on,5,0,5,,,,,,,,3,,,,69,30
31260,note_on,5,0,10,,,,,,,,8,,,,69,30
31315,note_off,55,0,6,,,,,,,,4,,,,66,64
31315,note_off,55,0,5,,,,,,,,3,,,,69,64
31315,note_off,55,0,11,,,,,,,,10,,,,66,64
31315,note_off,55,0,10,,,,,,,,8,,,,69,64
31320,note_on,5,0,6,,,,,,,,4,,,,66,30
31320,note_on,5,0,10,,,,,,,,8,,,,69,30
31320,note_off,120,0,1,,,,,,,,0,,,,69,64
31320,note_on,0,0,1,,,,,,,,0,,,,72,45
31320,note_on,5,0,5,,,,,,,,3,,,,69,30
31320,note_on,5,0,11,,,,,,,,10,,,,66,30
31320,note_on,0,0,2,,,,,,,,0,,,,60,45
31320,note_off,120,0,2,,,,,,,,0,,,,57,64
31320,set_tempo,240,1,0,1714285,,,,,,,,,,,,
31555,note_off,235,0,11,,,,,,,,10,,,,66,64
31555,note_off,235,0,10,,,,,,,,8,,,,69,64
31555,note_off,235,0,6,,,,,,,,4,,,,66,64
31555,note_off,235,0,5,,,,,,,,3,,,,69,64
31560,note_on,0,0,3,,,,,,,,1,,,,74,45
31560,note_off,720,0,4,,,,,,,,2,,,,84,64
31560,note_off,720,0,3,,,,,,,,1,,,,84,64
31560,note_on,0,0,4,,,,,,,,2,,,,74,30
31800,set_tempo,480,1,0,1500000,,,,,,,,,,,,
31800,note_off,240,0,3,,,,,,,,1,,,,74,64
31800,note_on,245,0,6,,,,,,,,4,,,,61,30
31800,note_on,0,0,1,,,,,,,,0,,,,70,45
31800,note_off,480,0,1,,,,,,,,0,,,,72,64
31800,note_on,245,0,11,,,,,,,,10,,,,61,30
31800,note_on,0,0,3,,,,,,,,1,,,,82,45
31800,note_on,0,0,4,,,,,,,,2,,,,82,30
31800,note_on,0,0,2,,,,,,,,0,,,,58,45
31800,note_off,480,0,2,,,,,,,,0,,,,60,64
31800,note_off,240,0,4,,,,,,,,2,,,,74,64
31800,note_on,245,0,10,,,,,,,,8,,,,64,30
31800,note_on,245,0,5,,,,,,,,3,,,,64,30
31975,note_off,175,0,5,,,,,,,,3,,,,64,64
31975,note_off,175,0,6,,,,,,,,4,,,,61,64
31975,note_off,175,0,10,,,,,,,,8,,,,64,64
31975,note_off,175,0,11,,,,,,,,10,,,,61,64
31980,note_on,5,0,11,,,,,,,,10,,,,61,30
31980,note_on,5,0,10,,,,,,,,8,,,,64,30
31980,note_on,5,0,6,,,,,,,,4,,,,61,30
31980,note_on,5,0,5,,,,,,,,3,,,,64,30
32035,note_off,55,0,10,,,,,,,,8,,,,64,64
32035,note_off,55,0,6,,,,,,,,4,,,,61,64
32035,note_off,55,0,5,,,,,,,,3,,,,64,64
32035,note_off,55,0,11,,,,,,,,10,,,,61,64
32040,note_off,240,0,1,,,,,,,,0,,,,70,64
32040,note_on,5,0,11,,,,,,,,10,,,,61,30
32040,note_on,0,0,3,,,,,,,,1,,,,81,45
32040,note_on,5,0,6,,,,,,,,4,,,,61,30
32040,note_off,240,0,4,,,,,,,,2,,,,82,64
32040,note_on,0,0,4,,,,,,,,2,,,,81,30
32040,note_off,240,0,3,,,,,,,,1,,,,82,64
32040,note_on,0,0,1,,,,,,,,0,,,,69,45
32040,note_on,5,0,5,,,,,,,,3,,,,64,30
32040,note_on,5,0,10,,,,,,,,8,,,,64,30
32040,set_tempo,240,1,0,1621621,,,,,,,,,,,,
32040,note_off,240,0,2,,,,,,,,0,,,,58,64
32040,note_on,0,0,2,,,,,,,,0,,,,57,45
32160,note_on,0,0,4,,,,,,,,2,,,,79,30
32160,note_on,0,0,1,,,,,,,,0,,,,67,45
32160,note_off,120,0,1,,,,,,,,0,,,,69,64
32160,note_off,120,0,4,,,,,,,,2,,,,81,64
32160,note_on,0,0,3,,,,,,,,1,,,,79,45
32160,note_off,120,0,3,,,,,,,,1,,,,81,64
32160,note_off,120,0,2,,,,,,,,0,,,,57,64
32160,note_on,0,0,2,,,,,,,,0,,,,55,45
32215,note_off,175,0,6,,,,,,,,4,,,,61,64
32215,note_off,175,0,10,,,,,,,,8,,,,64,64
32215,note_off,175,0,11,,,,,,,,10,,,,61,64
32215,note_off,175,0,5,,,,,,,,3,,,,64,64
32220,note_on,5,0,10,,,,,,,,8,,,,64,30
32220,note_on,5,0,5,,,,,,,,3,,,,64,30
32220,note_on,5,0,6,,,,,,,,4,,,,61,30
32220,note_on,5,0,11,,,,,,,,10,,,,61,30
32275,note_off,55,0,5,,,,,,,,3,,,,64,64
32275,note_off,55,0,6,,,,,,,,4,,,,61,64
32275,note_off,55,0,10,,,,,,,,8,,,,64,64
32275,note_off,55,0,11,,,,,,,,10,,,,61,64
32280,note_on,0,0,1,,,,,,,,0,,,,66,45
32280,note_on,0,0,2,,,,,,,,0,,,,50,45
32280,note_on,5,0,11,,,,,,,,10,,,,57,30
32280,note_off,120,0,4,,,,,,,,2,,,,79,64
32280,note_on,0,0,4,,,,,,,,2,,,,78,30
32280,note_off,120,0,2,,,,,,,,0,,,,55,64
32280,note_on,0,0,1,,,,,,,,0,,,,62,45
32280,note_on,0,0,2,,,,,,,,0,,,,54,45
32280,note_on,5,0,10,,,,,,,,8,,,,62,30
32280,note_off,120,0,1,,,,,,,,0,,,,67,64
32280,set_tempo,240,1,0,1764705,,,,,,,,,,,,
32280,note_on,0,0,3,,,,,,,,1,,,,78,45
32280,note_on,5,0,6,,,,,,,,4,,,,57,30
32280,note_on,5,0,5,,,,,,,,3,,,,62,30
32280,note_off,120,0,3,,,,,,,,1,,,,79,64
32310,note_off,30,0,3,,,,,,,,1,,,,78,64
32310,note_off,30,0,4,,,,,,,,2,,,,78,64
32310,note_on,0,0,3,,,,,,,,1,,,,79,45
32310,note_on,0,0,4,,,,,,,,2,,,,79,30
32340,note_on,0,0,4,,,,,,,,2,,,,78,30
32340,note_on,0,0,3,,,,,,,,1,,,,78,45
32340,note_off,30,0,3,,,,,,,,1,,,,79,64
32340,note_off,30,0,4,,,,,,,,2,,,,79,64
32370,note_off,30,0,3,,,,,,,,1,,,,78,64
32370,note_off,30,0,4,,,,,,,,2,,,,78,64
32370,note_on,0,0,4,,,,,,,,2,,,,79,30
32370,note_on,0,0,3,,,,,,,,1,,,,79,45
32400,note_off,30,0,3,,,,,,,,1,,,,79,64
32400,note_on,0,0,3,,,,,,,,1,,,,78,45
32400,note_off,30,0,4,,,,,,,,2,,,,79,64
32400,note_on,0,0,4,,,,,,,,2,,,,78,30
32430,note_on,0,0,4,,,,,,,,2,,,,79,30
32430,note_on,0,0,3,,,,,,,,1,,,,79,45
32430,note_off,30,0,4,,,,,,,,2,,,,78,64
32430,note_off,30,0,3,,,,,,,,1,,,,78,64
32460,note_off,30,0,4,,,,,,,,2,,,,79,64
32460,note_on,0,0,4,,,,,,,,2,,,,78,30
32460,note_on,0,0,3,,,,,,,,1,,,,78,45
32460,note_off,30,0,3,,,,,,,,1,,,,79,64
32490,note_off,30,0,4,,,,,,,,2,,,,78,64
32490,note_off,30,0,3,,,,,,,,1,,,,78,64
32490,note_on,0,0,3,,,,,,,,1,,,,79,45
32490,note_on,0,0,4,,,,,,,,2,,,,79,30
32515,note_off,235,0,6,,,,,,,,4,,,,57,64
32515,note_off,235,0,10,,,,,,,,8,,,,62,64
32515,note_off,235,0,5,,,,,,,,3,,,,62,64
32515,note_off,235,0,11,,,,,,,,10,,,,57,64
32520,note_off,30,0,4,,,,,,,,2,,,,79,64
32520,note_on,0,0,4,,,,,,,,2,,,,78,30
32520,note_off,30,0,3,,,,,,,,1,,,,79,64
32520,note_on,0,0,3,,,,,,,,1,,,,78,45
32550,note_on,0,0,3,,,,,,,,1,,,,79,45
32550,note_off,30,0,4,,,,,,,,2,,,,78,64
32550,note_on,0,0,4,,,,,,,,2,,,,79,30
32550,note_off,30,0,3,,,,,,,,1,,,,78,64
32580,note_on,0,0,4,,,,,,,,2,,,,78,30
32580,note_off,30,0,3,,,,,,,,1,,,,79,64
32580,note_on,0,0,3,,,,,,,,1,,,,78,45
32580,note_off,30,0,4,,,,,,,,2,,,,79,64
32610,note_off,30,0,4,,,,,,,,2,,,,78,64
32610,note_off,30,0,3,,,,,,,,1,,,,78,64
32610,note_on,0,0,3,,,,,,,,1,,,,79,45
32610,note_on,0,0,4,,,,,,,,2,,,,79,30
32640,note_on,0,0,4,,,,,,,,2,,,,79,30
32640,note_off,0,0,1,,,,,,,,0,,,,62,64
32640,note_off,360,0,1,,,,,,,,0,,,,66,64
32640,note_off,30,0,4,,,,,,,,2,,,,79,64
32640,note_off,0,0,2,,,,,,,,0,,,,50,64
32640,note_on,0,0,1,,,,,,,,0,,,,67,45
32640,note_off,360,0,2,,,,,,,,0,,,,54,64
32640,note_on,0,0,2,,,,,,,,0,,,,48,45
32640,note_on,0,0,2,,,,,,,,0,,,,55,45
32640,note_off,30,0,3,,,,,,,,1,,,,79,64
32640,note_on,0,0,3,,,,,,,,1,,,,79,45
32640,note_on,0,0,1,,,,,,,,0,,,,60,45
32755,note_off,0,0,2,,,,,,,,0,,,,48,64
32755,note_off,115,0,4,,,,,,,,2,,,,79,64
32755,note_off,0,0,1,,,,,,,,0,,,,60,64
32755,note_off,115,0,3,,,,,,,,1,,,,79,64
32755,note_off,115,0,1,,,,,,,,0,,,,67,64
32755,note_off,115,0,2,,,,,,,,0,,,,55,64
32760,note_on,245,0,5,,,,,,,,3,,,,67,92
32760,note_on,14000,0,7,,,,,,,,5,,,,55,92
32760,set_tempo,480,1,0,476190,,,,,,,,,,,,
32760,note_on,245,0,10,,,,,,,,8,,,,67,92
32760,note_on,245,0,6,,,,,,,,4,,,,55,92
32760,note_on,5,0,4,,,,,,,,2,,,,79,30
32760,note_on,14000,0,14,,,,,,,,13,,,,31,92
32760,note_on,14000,0,13,,,,,,,,12,,,,43,92
32760,note_on,5,0,2,,,,,,,,0,,,,46,45
32760,note_on,0,0,2,,,,,,,,0,,,,50,45
32760,note_on,0,0,2,,,,,,,,0,,,,55,45
32760,note_on,0,0,1,,,,,,,,0,,,,67,45
32760,note_on,14000,0,12,,,,,,,,11,,,,55,92
32760,note_on,0,0,1,,,,,,,,0,,,,62,45
32760,note_on,5,0,1,,,,,,,,0,,,,58,45
32760,note_on,14000,0,8,,,,,,,,6,,,,43,92
32760,note_on,14000,0,9,,,,,,,,7,,,,31,92
32760,note_on,14000,0,15,,,,,,,,14,,,,31,60
32760,note_on,245,0,11,,,,,,,,10,,,,55,92
32760,note_on,5,0,3,,,,,,,,1,,,,79,45
32840,note_off,80,0,8,,,,,,,,6,,,,43,64
32840,note_off,80,0,12,,,,,,,,11,,,,55,64
32840,note_off,80,0,10,,,,,,,,8,,,,67,64
32840,note_off,80,0,11,,,,,,,,10,,,,55,64
32840,note_off,80,0,14,,,,,,,,13,,,,31,64
32840,note_off,80,0,7,,,,,,,,5,,,,55,64
32840,note_off,80,0,5,,,,,,,,3,,,,67,64
32840,note_off,80,0,6,,,,,,,,4,,,,55,64
32840,note_off,80,0,13,,,,,,,,12,,,,43,64
32840,note_off,80,0,9,,,,,,,,7,,,,31,64
33000,note_on,160,0,8,,,,,,,,6,,,,43,92
33000,note_on,160,0,14,,,,,,,,13,,,,31,92
33000,note_on,160,0,11,,,,,,,,10,,,,55,92
33000,note_on,160,0,10,,,,,,,,8,,,,67,92
33000,note_on,160,0,13,,,,,,,,12,,,,43,92
33000,note_on,160,0,5,,,,,,,,3,,,,67,92
33000,note_on,160,0,9,,,,,,,,7,,,,31,92
33000,note_on,160,0,12,,,,,,,,11,,,,55,92
33000,note_on,160,0,6,,,,,,,,4,,,,55,92
33000,note_on,160,0,7,,,,,,,,5,,,,55,92
33080,note_off,80,0,7,,,,,,,,5,,,,55,64
33080,note_off,80,0,8,,,,,,,,6,,,,43,64
33080,note_off,80,0,13,,,,,,,,12,,,,43,64
33080,note_off,80,0,5,,,,,,,,3,,,,67,64
33080,note_off,80,0,12,,,,,,,,11,,,,55,64
33080,note_off,80,0,10,,,,,,,,8,,,,67,64
33080,note_off,80,0,11,,,,,,,,10,,,,55,64
33080,note_off,80,0,6,,,,,,,,4,,,,55,64
33080,note_off,80,0,14,,,,,,,,13,,,,31,64
33080,note_off,80,0,9,,,,,,,,7,,,,31,64
33120,note_on,40,0,10,,,,,,,,8,,,,67,92
33120,note_on,40,0,6,,,,,,,,4,,,,55,92
33120,note_on,40,0,14,,,,,,,,13,,,,31,92
33120,note_on,40,0,13,,,,,,,,12,,,,43,92
33120,note_on,40,0,12,,,,,,,,11,,,,55,92
33120,note_on,40,0,11,,,,,,,,10,,,,55,92
33120,note_on,40,0,5,,,,,,,,3,,,,67,92
33120,note_on,40,0,8,,,,,,,,6,,,,43,92
33120,note_on,40,0,9,,,,,,,,7,,,,31,92
33120,note_on,40,0,7,,,,,,,,5,,,,55,92
33160,note_off,400,0,4,,,,,,,,2,,,,79,64
33160,note_off,400,0,3,,,,,,,,1,,,,79,64
33160,note_off,0,0,1,,,,,,,,0,,,,62,64
33160,note_off,400,0,2,,,,,,,,0,,,,55,64
33160,note_off,0,0,1,,,,,,,,0,,,,58,64
33160,note_off,400,0,15,,,,,,,,14,,,,31,64
33160,note_off,0,0,2,,,,,,,,0,,,,46,64
33160,note_off,400,0,1,,,,,,,,0,,,,67,64
33160,note_off,0,0,2,,,,,,,,0,,,,50,64
33200,note_off,80,0,7,,,,,,,,5,,,,55,64
33200,note_off,80,0,6,,,,,,,,4,,,,55,64
33200,note_off,80,0,5,,,,,,,,3,,,,67,64
33200,note_off,80,0,14,,,,,,,,13,,,,31,64
33200,note_off,80,0,13,,,,,,,,12,,,,43,64
33200,note_off,80,0,9,,,,,,,,7,,,,31,64
33200,note_off,80,0,10,,,,,,,,8,,,,67,64
33200,note_off,80,0,11,,,,,,,,10,,,,55,64
33200,note_off,80,0,8,,,,,,,,6,,,,43,64
33200,note_off,80,0,12,,,,,,,,11,,,,55,64
33240,note_on,40,0,13,,,,,,,,12,,,,43,92
33240,note_on,40,0,5,,,,,,,,3,,,,67,92
33240,note_on,40,0,14,,,,,,,,13,,,,31,92
33240,note_on,40,0,10,,,,,,,,8,,,,67,92
33240,note_on,40,0,12,,,,,,,,11,,,,55,92
33240,note_on,40,0,9,,,,,,,,7,,,,31,92
33240,note_on,40,0,11,,,,,,,,10,,,,55,92
33240,note_on,40,0,7,,,,,,,,5,,,,55,92
33240,note_on,80,0,15,,,,,,,,14,,,,31,60
33240,note_on,40,0,6,,,,,,,,4,,,,55,92
33240,note_on,40,0,8,,,,,,,,6,,,,43,92
33320,note_off,80,0,8,,,,,,,,6,,,,43,64
33320,note_off,80,0,5,,,,,,,,3,,,,67,64
33320,note_off,80,0,9,,,,,,,,7,,,,31,64
33320,note_off,80,0,11,,,,,,,,10,,,,55,64
33320,note_off,80,0,14,,,,,,,,13,,,,31,64
33320,note_off,80,0,7,,,,,,,,5,,,,55,64
33320,note_off,80,0,12,,,,,,,,11,,,,55,64
33320,note_off,80,0,10,,,,,,,,8,,,,67,64
33320,note_off,80,0,13,,,,,,,,12,,,,43,64
33320,note_off,80,0,6,,,,,,,,4,,,,55,64
33360,note_on,40,0,7,,,,,,,,5,,,,55,92
33360,note_on,40,0,11,,,,,,,,10,,,,55,92
33360,note_on,40,0,8,,,,,,,,6,,,,43,92
33360,note_on,40,0,13,,,,,,,,12,,,,43,92
33360,note_on,40,0,9,,,,,,,,7,,,,31,92
33360,note_on,40,0,5,,,,,,,,3,,,,67,92
33360,note_on,40,0,14,,,,,,,,13,,,,31,92
33360,note_on,40,0,12,,,,,,,,11,,,,55,92
33360,note_on,40,0,6,,,,,,,,4,,,,55,92
33360,note_on,40,0,10,,,,,,,,8,,,,67,92
33440,note_off,80,0,11,,,,,,,,10,,,,55,64
33440,note_off,80,0,9,,,,,,,,7,,,,31,64
33440,note_off,80,0,8,,,,,,,,6,,,,43,64
33440,note_off,80,0,12,,,,,,,,11,,,,55,64
33440,note_off,80,0,10,,,,,,,,8,,,,67,64
33440,note_off,80,0,14,,,,,,,,13,,,,31,64
33440,note_off,80,0,5,,,,,,,,3,,,,67,64
33440,note_off,80,0,7,,,,,,,,5,,,,55,64
33440,note_off,80,0,13,,,,,,,,12,,,,43,64
33440,note_off,80,0,6,,,,,,,,4,,,,55,64
33480,note_on,40,0,5,,,,,,,,3,,,,67,92
33480,note_on,40,0,7,,,,,,,,5,,,,55,92
33480,note_on,40,0,10,,,,,,,,8,,,,67,92
33480,note_on,40,0,6,,,,,,,,4,,,,55,92
33480,note_on,40,0,14,,,,,,,,13,,,,31,92
33480,note_on,40,0,9,,,,,,,,7,,,,31,92
33480,note_on,40,0,11,,,,,,,,10,,,,55,92
33480,note_on,40,0,12,,,,,,,,11,,,,55,92
33480,note_on,40,0,8,,,,,,,,6,,,,43,92
33480,note_on,40,0,13,,,,,,,,12,,,,43,92
33560,note_off,80,0,9,,,,,,,,7,,,,31,64
33560,note_off,80,0,14,,,,,,,,13,,,,31,64
33560,note_off,80,0,8,,,,,,,,6,,,,43,64
33560,note_off,80,0,10,,,,,,,,8,,,,67,64
33560,note_off,80,0,5,,,,,,,,3,,,,67,64
33560,note_off,80,0,13,,,,,,,,12,,,,43,64
33560,note_off,80,0,11,,,,,,,,10,,,,55,64
33560,note_off,80,0,6,,,,,,,,4,,,,55,64
33560,note_off,80,0,12,,,,,,,,11,,,,55,64
33560,note_off,80,0,7,,,,,,,,5,,,,55,64
33600,note_on,40,0,8,,,,,,,,6,,,,43,92
33600,note_on,40,0,6,,,,,,,,4,,,,55,92
33600,note_on,40,0,9,,,,,,,,7,,,,31,92
33600,note_on,40,0,13,,,,,,,,12,,,,43,92
33600,note_on,40,0,7,,,,,,,,5,,,,55,92
33600,note_on,40,0,12,,,,,,,,11,,,,55,92
33600,note_on,40,0,11,,,,,,,,10,,,,55,92
33600,note_on,40,0,5,,,,,,,,3,,,,67,92
33600,note_on,40,0,14,,,,,,,,13,,,,31,92
33600,note_on,40,0,10,,,,,,,,8,,,,67,92
33640,note_off,400,0,15,,,,,,,,14,,,,31,64
33680,note_off,80,0,7,,,,,,,,5,,,,55,64
33680,note_off,80,0,6,,,,,,,,4,,,,55,64
33680,note_off,80,0,11,,,,,,,,10,,,,55,64
33680,note_off,80,0,8,,,,,,,,6,,,,43,64
33680,note_off,80,0,5,,,,,,,,3,,,,67,64
33680,note_off,80,0,14,,,,,,,,13,,,,31,64
33680,note_off,80,0,9,,,,,,,,7,,,,31,64
33680,note_off,80,0,12,,,,,,,,11,,,,55,64
33680,note_off,80,0,10,,,,,,,,8,,,,67,64
33680,note_off,80,0,13,,,,,,,,12,,,,43,64
33720,note_on,40,0,10,,,,,,,,8,,,,67,92
33720,note_on,80,0,15,,,,,,,,14,,,,31,60
33720,note_on,40,0,5,,,,,,,,3,,,,67,92
33720,note_on,40,0,12,,,,,,,,11,,,,55,92
33720,note_on,40,0,7,,,,,,,,5,,,,55,92
33720,note_on,40,0,13,,,,,,,,12,,,,43,92
33720,note_on,40,0,9,,,,,,,,7,,,,31,92
33720,note_on,40,0,11,,,,,,,,10,,,,55,92
33720,note_on,40,0,14,,,,,,,,13,,,,31,92
33720,note_on,40,0,6,,,,,,,,4,,,,55,92
33720,note_on,40,0,8,,,,,,,,6,,,,43,92
33800,note_off,80,0,10,,,,,,,,8,,,,67,64
33800,note_off,80,0,14,,,,,,,,13,,,,31,64
33800,note_off,80,0,11,,,,,,,,10,,,,55,64
33800,note_off,80,0,9,,,,,,,,7,,,,31,64
33800,note_off,80,0,5,,,,,,,,3,,,,67,64
33800,note_off,80,0,7,,,,,,,,5,,,,55,64
33800,note_off,80,0,6,,,,,,,,4,,,,55,64
33800,note_off,80,0,8,,,,,,,,6,,,,43,64
33800,note_off,80,0,13,,,,,,,,12,,,,43,64
33800,note_off,80,0,12,,,,,,,,11,,,,55,64
33840,note_on,40,0,6,,,,,,,,4,,,,55,92
33840,note_on,40,0,13,,,,,,,,12,,,,43,92
33840,note_on,40,0,11,,,,,,,,10,,,,55,92
33840,note_on,40,0,5,,,,,,,,3,,,,67,92
33840,note_on,40,0,12,,,,,,,,11,,,,55,92
33840,note_on,40,0,7,,,,,,,,5,,,,55,92
33840,note_on,40,0,9,,,,,,,,7,,,,31,92
33840,note_on,40,0,8,,,,,,,,6,,,,43,92
33840,note_on,40,0,10,,,,,,,,8,,,,67,92
33840,note_on,40,0,14,,,,,,,,13,,,,31,92
33920,note_off,80,0,8,,,,,,,,6,,,,43,64
33920,note_off,80,0,6,,,,,,,,4,,,,55,64
33920,note_off,80,0,13,,,,,,,,12,,,,43,64
33920,note_off,80,0,9,,,,,,,,7,,,,31,64
33920,note_off,80,0,14,,,,,,,,13,,,,31,64
33920,note_off,80,0,11,,,,,,,,10,,,,55,64
33920,note_off,80,0,5,,,,,,,,3,,,,67,64
33920,note_off,80,0,10,,,,,,,,8,,,,67,64
33920,note_off,80,0,7,,,,,,,,5,,,,55,64
33920,note_off,80,0,12,,,,,,,,11,,,,55,64
33960,note_on,40,0,7,,,,,,,,5,,,,55,92
33960,note_on,40,0,8,,,,,,,,6,,,,43,92
33960,note_on,40,0,11,,,,,,,,10,,,,55,92
33960,note_on,40,0,5,,,,,,,,3,,,,67,92
33960,note_on,40,0,10,,,,,,,,8,,,,67,92
33960,note_on,40,0,13,,,,,,,,12,,,,43,92
33960,note_on,40,0,12,,,,,,,,11,,,,55,92
33960,note_on,40,0,14,,,,,,,,13,,,,31,92
33960,note_on,40,0,9,,,,,,,,7,,,,31,92
33960,note_on,40,0,6,,,,,,,,4,,,,55,92
34040,note_off,80,0,14,,,,,,,,13,,,,31,64
34040,note_off,80,0,13,,,,,,,,12,,,,43,64
34040,note_off,80,0,7,,,,,,,,5,,,,55,64
34040,note_off,80,0,5,,,,,,,,3,,,,67,64
34040,note_off,80,0,12,,,,,,,,11,,,,55,64
34040,note_off,80,0,8,,,,,,,,6,,,,43,64
34040,note_off,80,0,6,,,,,,,,4,,,,55,64
34040,note_off,80,0,10,,,,,,,,8,,,,67,64
34040,note_off,80,0,11,,,,,,,,10,,,,55,64
34040,note_off,80,0,9,,,,,,,,7,,,,31,64
34080,note_on,40,0,8,,,,,,,,6,,,,43,92
34080,note_on,40,0,13,,,,,,,,12,,,,43,92
34080,note_on,40,0,11,,,,,,,,10,,,,55,92
34080,note_on,40,0,5,,,,,,,,3,,,,67,92
34080,note_on,40,0,7,,,,,,,,5,,,,55,92
34080,note_on,40,0,12,,,,,,,,11,,,,55,92
34080,note_on,40,0,14,,,,,,,,13,,,,31,92
34080,note_on,40,0,6,,,,,,,,4,,,,55,92
34080,note_on,40,0,9,,,,,,,,7,,,,31,92
34080,note_on,40,0,10,,,,,,,,8,,,,67,92
34120,note_off,400,0,15,,,,,,,,14,,,,31,64
34160,note_off,80,0,14,,,,,,,,13,,,,31,64
34160,note_off,80,0,13,,,,,,,,12,,,,43,64
34160,note_off,80,0,7,,,,,,,,5,,,,55,64
34160,note_off,80,0,8,,,,,,,,6,,,,43,64
34160,note_off,80,0,9,,,,,,,,7,,,,31,64
34160,note_off,80,0,10,,,,,,,,8,,,,67,64
34160,note_off,80,0,6,,,,,,,,4,,,,55,64
34160,note_off,80,0,5,,,,,,,,3,,,,67,64
34160,note_off,80,0,11,,,,,,,,10,,,,55,64
34160,note_off,80,0,12,,,,,,,,11,,,,55,64
34200,note_on,40,0,8,,,,,,,,6,,,,43,92
34200,note_on,40,0,6,,,,,,,,4,,,,55,92
34200,note_on,40,0,5,,,,,,,,3,,,,67,92
34200,note_on,80,0,15,,,,,,,,14,,,,31,60
34200,note_on,40,0,7,,,,,,,,5,,,,55,92
34200,note_on,40,0,10,,,,,,,,8,,,,67,92
34200,note_on,40,0,12,,,,,,,,11,,,,55,92
34200,note_on,40,0,14,,,,,,,,13,,,,31,92
34200,note_on,40,0,11,,,,,,,,10,,,,55,92
34200,note_on,40,0,9,,,,,,,,7,,,,31,92
34200,note_on,40,0,13,,,,,,,,12,,,,43,92
34280,note_off,80,0,9,,,,,,,,7,,,,31,64
34280,note_off,80,0,12,,,,,,,,11,,,,55,64
34280,note_off,80,0,14,,,,,,,,13,,,,31,64
34280,note_off,80,0,5,,,,,,,,3,,,,67,64
34280,note_off,80,0,11,,,,,,,,10,,,,55,64
34280,note_off,80,0,6,,,,,,,,4,,,,55,64
34280,note_off,80,0,8,,,,,,,,6,,,,43,64
34280,note_off,80,0,10,,,,,,,,8,,,,67,64
34280,note_off,80,0,7,,,,,,,,5,,,,55,64
34280,note_off,80,0,13,,,,,,,,12,,,,43,64
34320,note_on,40,0,6,,,,,,,,4,,,,55,92
34320,note_on,40,0,10,,,,,,,,8,,,,67,92
34320,note_on,40,0,14,,,,,,,,13,,,,31,92
34320,note_on,40,0,5,,,,,,,,3,,,,67,92
34320,note_on,40,0,7,,,,,,,,5,,,,55,92
34320,note_on,40,0,11,,,,,,,,10,,,,55,92
34320,note_on,40,0,9,,,,,,,,7,,,,31,92
34320,note_on,40,0,8,,,,,,,,6,,,,43,92
34320,note_on,40,0,13,,,,,,,,12,,,,43,92
34320,note_on,40,0,12,,,,,,,,11,,,,55,92
34400,note_off,80,0,10,,,,,,,,8,,,,67,64
34400,note_off,80,0,7,,,,,,,,5,,,,55,64
34400,note_off,80,0,11,,,,,,,,10,,,,55,64
34400,note_off,80,0,5,,,,,,,,3,,,,67,64
34400,note_off,80,0,6,,,,,,,,4,,,,55,64
34400,note_off,80,0,14,,,,,,,,13,,,,31,64
34400,note_off,80,0,13,,,,,,,,12,,,,43,64
34400,note_off,80,0,9,,,,,,,,7,,,,31,64
34400,note_off,80,0,8,,,,,,,,6,,,,43,64
34400,note_off,80,0,12,,,,,,,,11,,,,55,64
34440,note_on,40,0,5,,,,,,,,3,,,,67,92
34440,note_on,40,0,7,,,,,,,,5,,,,55,92
34440,note_on,40,0,13,,,,,,,,12,,,,43,92
34440,note_on,40,0,9,,,,,,,,7,,,,31,92
34440,note_on,40,0,12,,,,,,,,11,,,,55,92
34440,note_on,40,0,10,,,,,,,,8,,,,67,92
34440,note_on,40,0,14,,,,,,,,13,,,,31,92
34440,note_on,40,0,11,,,,,,,,10,,,,55,92
34440,note_on,40,0,6,,,,,,,,4,,,,55,92
34440,note_on,40,0,8,,,,,,,,6,,,,43,92
34520,note_off,80,0,12,,,,,,,,11,,,,55,64
34520,note_off,80,0,7,,,,,,,,5,,,,55,64
34520,note_off,80,0,10,,,,,,,,8,,,,67,64
34520,note_off,80,0,11,,,,,,,,10,,,,55,64
34520,note_off,80,0,13,,,,,,,,12,,,,43,64
34520,note_off,80,0,8,,,,,,,,6,,,,43,64
34520,note_off,80,0,6,,,,,,,,4,,,,55,64
34520,note_off,80,0,14,,,,,,,,13,,,,31,64
34520,note_off,80,0,9,,,,,,,,7,,,,31,64
34520,note_off,80,0,5,,,,,,,,3,,,,67,64
34560,note_on,40,0,12,,,,,,,,11,,,,55,92
34560,note_on,40,0,13,,,,,,,,12,,,,43,92
34560,note_on,40,0,8,,,,,,,,6,,,,43,92
34560,note_on,40,0,11,,,,,,,,10,,,,55,92
34560,note_on,40,0,6,,,,,,,,4,,,,55,92
34560,note_on,40,0,7,,,,,,,,5,,,,55,92
34560,note_on,40,0,10,,,,,,,,8,,,,67,92
34560,note_on,40,0,9,,,,,,,,7,,,,31,92
34560,note_on,40,0,14,,,,,,,,13,,,,31,92
34560,note_on,40,0,5,,,,,,,,3,,,,67,92
34600,note_off,400,0,15,,,,,,,,14,,,,31,64
34640,note_off,80,0,12,,,,,,,,11,,,,55,64
34640,note_off,80,0,8,,,,,,,,6,,,,43,64
34640,note_off,80,0,9,,,,,,,,7,,,,31,64
34640,note_off,80,0,14,,,,,,,,13,,,,31,64
34640,note_off,80,0,10,,,,,,,,8,,,,67,64
34640,note_off,80,0,11,,,,,,,,10,,,,55,64
34640,note_off,80,0,13,,,,,,,,12,,,,43,64
34640,note_off,80,0,6,,,,,,,,4,,,,55,64
34640,note_off,80,0,7,,,,,,,,5,,,,55,64
34640,note_off,80,0,5,,,,,,,,3,,,,67,64
34680,note_on,40,0,12,,,,,,,,11,,,,55,92
34680,note_on,40,0,10,,,,,,,,8,,,,67,92
34680,note_on,40,0,13,,,,,,,,12,,,,43,92
34680,note_on,40,0,6,,,,,,,,4,,,,55,92
34680,note_on,40,0,5,,,,,,,,3,,,,67,92
34680,note_on,40,0,7,,,,,,,,5,,,,55,92
34680,note_on,40,0,9,,,,,,,,7,,,,31,92
34680,note_on,40,0,11,,,,,,,,10,,,,55,92
34680,note_on,80,0,15,,,,,,,,14,,,,31,60
34680,note_on,40,0,14,,,,,,,,13,,,,31,92
34680,note_on,40,0,8,,,,,,,,6,,,,43,92
35080,note_off,400,0,6,,,,,,,,4,,,,55,64
35080,note_off,400,0,9,,,,,,,,7,,,,31,64
35080,note_off,400,0,10,,,,,,,,8,,,,67,64
35080,note_off,400,0,12,,,,,,,,11,,,,55,64
35080,note_off,400,0,5,,,,,,,,3,,,,67,64
35080,note_off,400,0,14,,,,,,,,13,,,,31,64
35080,note_off,400,0,7,,,,,,,,5,,,,55,64
35080,note_off,400,0,15,,,,,,,,14,,,,31,64
35080,note_off,400,0,13,,,,,,,,12,,,,43,64
35080,note_off,400,0,8,,,,,,,,6,,,,43,64
35080,note_off,400,0,11,,,,,,,,10,,,,55,64
36600,set_tempo,3840,1,0,1500000,,,,,,,,,,,,
36600,note_on,3440,0,3,,,,,,,,1,,,,74,45
36600,note_on,3440,0,4,,,,,,,,2,,,,74,30
37560,note_on,2480,0,6,,,,,,,,4,,,,65,30
37560,set_tempo,960,1,0,1500000,,,,,,,,,,,,
37560,note_on,2480,0,5,,,,,,,,3,,,,69,30
37560,note_on,2480,0,10,,,,,,,,8,,,,69,30
37560,note_on,2480,0,11,,,,,,,,10,,,,65,30
37560,note_on,0,0,2,,,,,,,,0,,,,50,45
37560,note_on,0,0,2,,,,,,,,0,,,,45,45
37560,note_on,4400,0,2,,,,,,,,0,,,,38,45
37735,note_off,175,0,5,,,,,,,,3,,,,69,64
37735,note_off,175,0,10,,,,,,,,8,,,,69,64
37735,note_off,175,0,11,,,,,,,,10,,,,65,64
37735,note_off,175,0,6,,,,,,,,4,,,,65,64
37740,note_on,5,0,11,,,,,,,,10,,,,65,30
37740,note_on,5,0,6,,,,,,,,4,,,,65,30
37740,note_on,5,0,10,,,,,,,,8,,,,69,30
37740,note_on,5,0,5,,,,,,,,3,,,,69,30
37795,note_off,55,0,11,,,,,,,,10,,,,65,64
37795,note_off,55,0,5,,,,,,,,3,,,,69,64
37795,note_off,55,0,10,,,,,,,,8,,,,69,64
37795,note_off,55,0,6,,,,,,,,4,,,,65,64
37800,note_on,5,0,5,,,,,,,,3,,,,69,30
37800,note_on,5,0,11,,,,,,,,10,,,,65,30
37800,note_on,5,0,6,,,,,,,,4,,,,65,30
37800,note_on,5,0,10,,,,,,,,8,,,,69,30
37800,note_on,4640,0,1,,,,,,,,0,,,,62,45
37800,set_tempo,240,1,0,1621621,,,,,,,,,,,,
37975,note_off,175,0,11,,,,,,,,10,,,,65,64
37975,note_off,175,0,6,,,,,,,,4,,,,65,64
37975,note_off,175,0,10,,,,,,,,8,,,,69,64
37975,note_off,175,0,5,,,,,,,,3,,,,69,64
37980,note_on,5,0,6,,,,,,,,4,,,,65,30
37980,note_on,5,0,5,,,,,,,,3,,,,69,30
37980,note_on,5,0,11,,,,,,,,10,,,,65,30
37980,note_on,5,0,10,,,,,,,,8,,,,69,30
38035,note_off,55,0,11,,,,,,,,10,,,,65,64
38035,note_off,55,0,5,,,,,,,,3,,,,69,64
38035,note_off,55,0,6,,,,,,,,4,,,,65,64
38035,note_off,55,0,10,,,,,,,,8,,,,69,64
38040,note_on,0,0,1,,,,,,,,0,,,,65,45
38040,note_on,5,0,5,,,,,,,,3,,,,69,30
38040,note_on,5,0,10,,,,,,,,8,,,,69,30
38040,note_on,5,0,11,,,,,,,,10,,,,65,30
38040,note_on,5,0,6,,,,,,,,4,,,,65,30
38040,set_tempo,240,1,0,1764705,,,,,,,,,,,,
38040,note_off,240,0,1,,,,,,,,0,,,,62,64
38275,note_off,235,0,11,,,,,,,,10,,,,65,64
38275,note_off,235,0,10,,,,,,,,8,,,,69,64
38275,note_off,235,0,5,,,,,,,,3,,,,69,64
38275,note_off,235,0,6,,,,,,,,4,,,,65,64
38280,note_on,0,0,1,,,,,,,,0,,,,69,45
38280,note_off,240,0,1,,,,,,,,0,,,,65,64
38400,note_off,1800,0,4,,,,,,,,2,,,,74,64
38400,note_off,0,0,2,,,,,,,,0,,,,38,64
38400,note_off,0,0,2,,,,,,,,0,,,,45,64
38400,note_off,840,0,2,,,,,,,,0,,,,50,64
38515,note_off,235,0,1,,,,,,,,0,,,,69,64
38520,note_on,0,0,2,,,,,,,,0,,,,46,45
38520,note_on,0,0,2,,,,,,,,0,,,,51,45
38520,note_on,245,0,6,,,,,,,,4,,,,63,30
38520,note_on,245,0,10,,,,,,,,8,,,,67,30
38520,note_on,120,0,2,,,,,,,,0,,,,39,45
38520,set_tempo,480,1,0,1500000,,,,,,,,,,,,
38520,note_on,120,0,4,,,,,,,,2,,,,79,30
38520,note_on,245,0,5,,,,,,,,3,,,,67,30
38520,note_on,0,0,3,,,,,,,,1,,,,79,45
38520,note_off,1920,0,3,,,,,,,,1,,,,74,64
38520,note_on,245,0,11,,,,,,,,10,,,,63,30
38695,note_off,175,0,10,,,,,,,,8,,,,67,64
38695,note_off,175,0,5,,,,,,,,3,,,,67,64
38695,note_off,175,0,6,,,,,,,,4,,,,63,64
38695,note_off,175,0,11,,,,,,,,10,,,,63,64
38700,note_on,5,0,10,,,,,,,,8,,,,67,30
38700,note_on,5,0,5,,,,,,,,3,,,,67,30
38700,note_on,5,0,11,,,,,,,,10,,,,63,30
38700,note_on,5,0,6,,,,,,,,4,,,,63,30
38755,note_off,55,0,10,,,,,,,,8,,,,67,64
38755,note_off,55,0,11,,,,,,,,10,,,,63,64
38755,note_off,55,0,6,,,,,,,,4,,,,63,64
38755,note_off,55,0,5,,,,,,,,3,,,,67,64
38760,note_on,5,0,10,,,,,,,,8,,,,67,30
38760,note_on,5,0,5,,,,,,,,3,,,,67,30
38760,set_tempo,240,1,0,1621621,,,,,,,,,,,,
38760,note_on,5,0,11,,,,,,,,10,,,,63,30
38760,note_on,245,0,1,,,,,,,,0,,,,63,45
38760,note_on,5,0,6,,,,,,,,4,,,,63,30
38935,note_off,175,0,6,,,,,,,,4,,,,63,64
38935,note_off,175,0,10,,,,,,,,8,,,,67,64
38935,note_off,175,0,5,,,,,,,,3,,,,67,64
38935,note_off,175,0,11,,,,,,,,10,,,,63,64
38940,note_on,5,0,5,,,,,,,,3,,,,67,30
38940,note_on,5,0,11,,,,,,,,10,,,,63,30
38940,note_on,5,0,10,,,,,,,,8,,,,67,30
38940,note_on,5,0,6,,,,,,,,4,,,,63,30
38995,note_off,55,0,6,,,,,,,,4,,,,63,64
38995,note_off,55,0,11,,,,,,,,10,,,,63,64
38995,note_off,55,0,5,,,,,,,,3,,,,67,64
38995,note_off,55,0,10,,,,,,,,8,,,,67,64
39000,note_on,5,0,6,,,,,,,,4,,,,63,30
39000,note_off,240,0,1,,,,,,,,0,,,,63,64
39000,note_on,5,0,10,,,,,,,,8,,,,67,30
39000,note_on,0,0,1,,,,,,,,0,,,,67,45
39000,set_tempo,240,1,0,1714285,,,,,,,,,,,,
39000,note_on,5,0,11,,,,,,,,10,,,,63,30
39000,note_on,5,0,5,,,,,,,,3,,,,67,30
39235,note_off,235,0,10,,,,,,,,8,,,,67,64
39235,note_off,235,0,11,,,,,,,,10,,,,63,64
39235,note_off,235,0,5,,,,,,,,3,,,,67,64
39235,note_off,235,0,6,,,,,,,,4,,,,63,64
39240,note_on,0,0,1,,,,,,,,0,,,,72,45
39240,note_off,240,0,1,,,,,,,,0,,,,67,64
39240,note_off,720,0,3,,,,,,,,1,,,,79,64
39240,note_on,0,0,3,,,,,,,,1,,,,84,45
39240,note_off,720,0,4,,,,,,,,2,,,,79,64
39240,note_on,0,0,4,,,,,,,,2,,,,84,30
39360,note_off,840,0,2,,,,,,,,0,,,,51,64
39360,note_off,0,0,2,,,,,,,,0,,,,39,64
39360,note_off,0,0,2,,,,,,,,0,,,,46,64
39475,note_off,235,0,1,,,,,,,,0,,,,72,64
39480,set_tempo,480,1,0,1500000,,,,,,,,,,,,
39480,note_on,245,0,10,,,,,,,,8,,,,66,30
39480,note_on,245,0,11,,,,,,,,10,,,,62,30
39480,note_on,245,0,5,,,,,,,,3,,,,66,30
39480,note_on,0,0,4,,,,,,,,2,,,,72,30
39480,note_on,0,0,3,,,,,,,,1,,,,72,45
39480,note_off,240,0,3,,,,,,,,1,,,,84,64
39480,note_on,120,0,2,,,,,,,,0,,,,38,45
39480,note_on,0,0,2,,,,,,,,0,,,,45,45
39480,note_on,0,0,2,,,,,,,,0,,,,50,45
39480,note_off,240,0,4,,,,,,,,2,,,,84,64
39480,note_on,245,0,6,,,,,,,,4,,,,62,30
39655,note_off,175,0,10,,,,,,,,8,,,,66,64
39655,note_off,175,0,6,,,,,,,,4,,,,62,64
39655,note_off,175,0,11,,,,,,,,10,,,,62,64
39655,note_off,175,0,5,,,,,,,,3,,,,66,64
39660,note_on,5,0,10,,,,,,,,8,,,,66,30
39660,note_on,5,0,11,,,,,,,,10,,,,62,30
39660,note_on,5,0,6,,,,,,,,4,,,,62,30
39660,note_on,5,0,5,,,,,,,,3,,,,66,30
39715,note_off,55,0,11,,,,,,,,10,,,,62,64
39715,note_off,55,0,10,,,,,,,,8,,,,66,64
39715,note_off,55,0,6,,,,,,,,4,,,,62,64
39715,note_off,55,0,5,,,,,,,,3,,,,66,64
39720,set_tempo,240,1,0,1621621,,,,,,,,,,,,
39720,note_on,5,0,6,,,,,,,,4,,,,62,30
39720,note_on,5,0,10,,,,,,,,8,,,,66,30
39720,note_on,5,0,11,,,,,,,,10,,,,62,30
39720,note_on,5,0,5,,,,,,,,3,,,,66,30
39720,note_on,245,0,1,,,,,,,,0,,,,62,45
39895,note_off,175,0,11,,,,,,,,10,,,,62,64
39895,note_off,175,0,10,,,,,,,,8,,,,66,64
39895,note_off,175,0,6,,,,,,,,4,,,,62,64
39895,note_off,175,0,5,,,,,,,,3,,,,66,64
39900,note_on,5,0,6,,,,,,,,4,,,,62,30
39900,note_on,5,0,11,,,,,,,,10,,,,62,30
39900,note_on,5,0,10,,,,,,,,8,,,,66,30
39900,note_on,5,0,5,,,,,,,,3,,,,66,30
39955,note_off,55,0,5,,,,,,,,3,,,,66,64
39955,note_off,55,0,10,,,,,,,,8,,,,66,64
39955,note_off,55,0,11,,,,,,,,10,,,,62,64
39955,note_off,55,0,6,,,,,,,,4,,,,62,64
39960,note_on,5,0,5,,,,,,,,3,,,,66,30
39960,note_on,5,0,11,,,,,,,,10,,,,62,30
39960,note_on,5,0,6,,,,,,,,4,,,,62,30
39960,note_on,5,0,10,,,,,,,,8,,,,66,30
39960,note_on,0,0,1,,,,,,,,0,,,,66,45
39960,set_tempo,240,1,0,1714285,,,,,,,,,,,,
39960,note_off,240,0,1,,,,,,,,0,,,,62,64
40120,note_off,640,0,4,,,,,,,,2,,,,72,64
40120,note_off,640,0,3,,,,,,,,1,,,,72,64
40195,note_off,235,0,10,,,,,,,,8,,,,66,64
40195,note_off,235,0,11,,,,,,,,10,,,,62,64
40195,note_off,235,0,5,,,,,,,,3,,,,66,64
40195,note_off,235,0,6,,,,,,,,4,,,,62,64
40200,note_off,240,0,1,,,,,,,,0,,,,66,64
40200,note_on,80,0,4,,,,,,,,2,,,,81,30
40200,note_on,0,0,1,,,,,,,,0,,,,69,45
40200,note_on,80,0,3,,,,,,,,1,,,,81,45
40320,note_off,0,0,2,,,,,,,,0,,,,38,64
40320,note_off,0,0,2,,,,,,,,0,,,,45,64
40320,note_off,840,0,2,,,,,,,,0,,,,50,64
40440,note_on,245,0,6,,,,,,,,4,,,,61,30
40440,note_on,120,0,2,,,,,,,,0,,,,37,45
40440,note_on,0,0,3,,,,,,,,1,,,,82,45
40440,note_off,240,0,1,,,,,,,,0,,,,69,64
40440,set_tempo,480,1,0,1500000,,,,,,,,,,,,
40440,note_on,245,0,10,,,,,,,,8,,,,64,30
40440,note_on,245,0,5,,,,,,,,3,,,,64,30
40440,note_on,0,0,2,,,,,,,,0,,,,63,45
40440,note_on,0,0,1,,,,,,,,0,,,,70,45
40440,note_on,0,0,2,,,,,,,,0,,,,55,45
40440,note_off,240,0,3,,,,,,,,1,,,,81,64
40440,note_on,0,0,2,,,,,,,,0,,,,43,45
40440,note_on,0,0,2,,,,,,,,0,,,,49,45
40440,note_off,240,0,4,,,,,,,,2,,,,81,64
40440,note_on,0,0,4,,,,,,,,2,,,,82,30
40440,note_on,245,0,11,,,,,,,,10,,,,61,30
40440,note_on,0,0,2,,,,,,,,0,,,,58,45
40615,note_off,175,0,10,,,,,,,,8,,,,64,64
40615,note_off,175,0,5,,,,,,,,3,,,,64,64
40615,note_off,175,0,11,,,,,,,,10,,,,61,64
40615,note_off,175,0,6,,,,,,,,4,,,,61,64
40620,note_on,5,0,5,,,,,,,,3,,,,64,30
40620,note_on,5,0,6,,,,,,,,4,,,,61,30
40620,note_on,5,0,11,,,,,,,,10,,,,61,30
40620,note_on,5,0,10,,,,,,,,8,,,,64,30
40675,note_off,55,0,11,,,,,,,,10,,,,61,64
40675,note_off,55,0,10,,,,,,,,8,,,,64,64
40675,note_off,55,0,5,,,,,,,,3,,,,64,64
40675,note_off,55,0,6,,,,,,,,4,,,,61,64
40680,note_off,240,0,3,,,,,,,,1,,,,82,64
40680,note_off,240,0,1,,,,,,,,0,,,,70,64
40680,note_on,0,0,1,,,,,,,,0,,,,69,45
40680,note_on,0,0,3,,,,,,,,1,,,,81,45
40680,set_tempo,240,1,0,1621621,,,,,,,,,,,,
40680,note_off,240,0,4,,,,,,,,2,,,,82,64
40680,note_on,0,0,4,,,,,,,,2,,,,81,30
40680,note_on,5,0,11,,,,,,,,10,,,,61,30
40680,note_on,5,0,6,,,,,,,,4,,,,61,30
40680,note_on,5,0,5,,,,,,,,3,,,,64,30
40680,note_on,5,0,10,,,,,,,,8,,,,64,30
40800,note_off,120,0,3,,,,,,,,1,,,,81,64
40800,note_on,0,0,3,,,,,,,,1,,,,79,45
40800,note_off,120,0,1,,,,,,,,0,,,,69,64
40800,note_off,120,0,4,,,,,,,,2,,,,81,64
40800,note_on,0,0,4,,,,,,,,2,,,,79,30
40800,note_on,0,0,1,,,,,,,,0,,,,67,45
40840,note_off,0,0,2,,,,,,,,0,,,,49,64
40840,note_off,0,0,2,,,,,,,,0,,,,55,64
40840,note_off,0,0,2,,,,,,,,0,,,,58,64
40840,note_off,400,0,2,,,,,,,,0,,,,63,64
40840,note_off,0,0,2,,,,,,,,0,,,,43,64
40840,note_off,0,0,2,,,,,,,,0,,,,37,64
40855,note_off,175,0,5,,,,,,,,3,,,,64,64
40855,note_off,175,0,6,,,,,,,,4,,,,61,64
40855,note_off,175,0,10,,,,,,,,8,,,,64,64
40855,note_off,175,0,11,,,,,,,,10,,,,61,64
40860,note_on,5,0,6,,,,,,,,4,,,,61,30
40860,note_on,5,0,10,,,,,,,,8,,,,64,30
40860,note_on,5,0,11,,,,,,,,10,,,,61,30
40860,note_on,5,0,5,,,,,,,,3,,,,64,30
40915,note_off,55,0,10,,,,,,,,8,,,,64,64
40915,note_off,55,0,6,,,,,,,,4,,,,61,64
40915,note_off,55,0,5,,,,,,,,3,,,,64,64
40915,note_off,55,0,11,,,,,,,,10,,,,61,64
40920,note_on,0,0,2,,,,,,,,0,,,,45,45
40920,note_off,120,0,4,,,,,,,,2,,,,79,64
40920,note_on,0,0,4,,,,,,,,2,,,,78,30
40920,note_off,120,0,1,,,,,,,,0,,,,67,64
40920,note_on,5,0,11,,,,,,,,10,,,,62,30
40920,note_on,80,0,2,,,,,,,,0,,,,38,45
40920,note_on,5,0,10,,,,,,,,8,,,,66,30
40920,set_tempo,240,1,0,1714285,,,,,,,,,,,,
40920,note_on,5,0,5,,,,,,,,3,,,,66,30
40920,note_on,0,0,1,,,,,,,,0,,,,66,45
40920,note_on,0,0,2,,,,,,,,0,,,,61,45
40920,note_on,0,0,3,,,,,,,,1,,,,78,45
40920,note_off,120,0,3,,,,,,,,1,,,,79,64
40920,note_on,5,0,6,,,,,,,,4,,,,62,30
40920,note_on,0,0,2,,,,,,,,0,,,,50,45
40920,note_on,0,0,2,,,,,,,,0,,,,57,45
40920,note_on,0,0,1,,,,,,,,0,,,,62,45
40940,note_on,0,0,4,,,,,,,,2,,,,79,30
40940,note_off,20,0,4,,,,,,,,2,,,,78,64
40950,note_off,30,0,3,,,,,,,,1,,,,78,64
40950,note_on,0,0,3,,,,,,,,1,,,,79,45
40960,note_off,20,0,4,,,,,,,,2,,,,79,64
40960,note_on,0,0,4,,,,,,,,2,,,,78,30
40980,note_on,0,0,3,,,,,,,,1,,,,78,45
40980,note_off,30,0,3,,,,,,,,1,,,,79,64
40980,note_on,0,0,4,,,,,,,,2,,,,79,30
40980,note_off,20,0,4,,,,,,,,2,,,,78,64
41000,note_on,0,0,4,,,,,,,,2,,,,78,30
41000,note_off,20,0,4,,,,,,,,2,,,,79,64
41010,note_on,0,0,3,,,,,,,,1,,,,79,45
41010,note_off,30,0,3,,,,,,,,1,,,,78,64
41020,note_on,0,0,4,,,,,,,,2,,,,79,30
41020,note_off,20,0,4,,,,,,,,2,,,,78,64
41040,note_on,0,0,3,,,,,,,,1,,,,78,45
41040,note_off,20,0,4,,,,,,,,2,,,,79,64
41040,note_on,0,0,4,,,,,,,,2,,,,78,30
41040,note_off,30,0,3,,,,,,,,1,,,,79,64
41060,note_off,20,0,4,,,,,,,,2,,,,78,64
41060,note_on,0,0,4,,,,,,,,2,,,,79,30
41070,note_on,0,0,3,,,,,,,,1,,,,79,45
41070,note_off,30,0,3,,,,,,,,1,,,,78,64
41080,note_on,0,0,4,,,,,,,,2,,,,78,30
41080,note_off,20,0,4,,,,,,,,2,,,,79,64
41100,note_on,0,0,3,,,,,,,,1,,,,78,45
41100,note_off,20,0,4,,,,,,,,2,,,,78,64
41100,note_on,0,0,4,,,,,,,,2,,,,79,30
41100,note_off,30,0,3,,,,,,,,1,,,,79,64
41120,note_off,20,0,4,,,,,,,,2,,,,79,64
41120,note_on,0,0,4,,,,,,,,2,,,,78,30
41130,note_off,30,0,3,,,,,,,,1,,,,78,64
41130,note_on,0,0,3,,,,,,,,1,,,,79,45
41140,note_off,20,0,4,,,,,,,,2,,,,78,64
41140,note_on,0,0,4,,,,,,,,2,,,,79,30
41155,note_off,235,0,10,,,,,,,,8,,,,66,64
41155,note_off,235,0,6,,,,,,,,4,,,,62,64
41155,note_off,235,0,5,,,,,,,,3,,,,66,64
41155,note_off,235,0,11,,,,,,,,10,,,,62,64
41160,note_off,20,0,4,,,,,,,,2,,,,79,64
41160,note_on,0,0,4,,,,,,,,2,,,,78,30
41160,note_on,0,0,3,,,,,,,,1,,,,78,45
41160,note_off,30,0,3,,,,,,,,1,,,,79,64
41180,note_off,20,0,4,,,,,,,,2,,,,78,64
41180,note_on,0,0,4,,,,,,,,2,,,,79,30
41190,note_on,0,0,3,,,,,,,,1,,,,79,45
41190,note_off,30,0,3,,,,,,,,1,,,,78,64
41200,note_off,20,0,4,,,,,,,,2,,,,79,64
41200,note_on,0,0,4,,,,,,,,2,,,,78,30
41220,note_off,20,0,4,,,,,,,,2,,,,78,64
41220,note_on,0,0,3,,,,,,,,1,,,,78,45
41220,note_off,30,0,3,,,,,,,,1,,,,79,64
41220,note_on,0,0,4,,,,,,,,2,,,,78,30
41240,note_on,0,0,4,,,,,,,,2,,,,79,30
41240,note_off,20,0,4,,,,,,,,2,,,,78,64
41250,note_on,0,0,3,,,,,,,,1,,,,79,45
41250,note_off,30,0,3,,,,,,,,1,,,,78,64
41260,note_on,0,0,4,,,,,,,,2,,,,78,30
41260,note_off,20,0,4,,,,,,,,2,,,,79,64
41280,note_on,0,0,1,,,,,,,,0,,,,67,45
41280,note_off,30,0,3,,,,,,,,1,,,,79,64
41280,note_off,360,0,1,,,,,,,,0,,,,66,64
41280,note_off,0,0,1,,,,,,,,0,,,,62,64
41280,note_on,0,0,3,,,,,,,,1,,,,79,45
41280,note_on,0,0,4,,,,,,,,2,,,,79,30
41280,note_off,20,0,4,,,,,,,,2,,,,78,64
41280,note_on,0,0,1,,,,,,,,0,,,,60,45
41320,note_off,0,0,2,,,,,,,,0,,,,38,64
41320,note_off,0,0,2,,,,,,,,0,,,,45,64
41320,note_off,0,0,2,,,,,,,,0,,,,50,64
41320,note_off,400,0,2,,,,,,,,0,,,,61,64
41320,note_off,0,0,2,,,,,,,,0,,,,57,64
41395,note_off,115,0,1,,,,,,,,0,,,,67,64
41395,note_off,0,0,1,,,,,,,,0,,,,60,64
41400,note_on,6320,0,15,,,,,,,,14,,,,31,60
41400,note_on,0,0,4,,,,,,,,2,,,,79,60
41400,note_on,5,0,1,,,,,,,,0,,,,58,45
41400,note_on,0,0,2,,,,,,,,0,,,,55,45
41400,note_on,6320,0,9,,,,,,,,7,,,,31,92
41400,set_tempo,480,1,0,476190,,,,,,,,,,,,
41400,note_on,6320,0,14,,,,,,,,13,,,,31,92
41400,note_on,6320,0,12,,,,,,,,11,,,,55,92
41400,note_on,245,0,5,,,,,,,,3,,,,67,92
41400,note_on,245,0,6,,,,,,,,4,,,,55,92
41400,note_on,0,0,3,,,,,,,,1,,,,79,75
41400,note_on,6320,0,8,,,,,,,,6,,,,43,92
41400,note_on,0,0,2,,,,,,,,0,,,,50,45
41400,note_on,80,0,2,,,,,,,,0,,,,43,45
41400,note_off,120,0,3,,,,,,,,1,,,,79,64
41400,note_on,0,0,1,,,,,,,,0,,,,62,45
41400,note_on,245,0,11,,,,,,,,10,,,,55,92
41400,note_on,0,0,1,,,,,,,,0,,,,67,45
41400,note_on,245,0,10,,,,,,,,8,,,,67,92
41400,note_on,6320,0,13,,,,,,,,12,,,,43,92
41400,note_on,6320,0,7,,,,,,,,5,,,,55,92
41400,note_off,120,0,4,,,,,,,,2,,,,79,64
41480,note_off,80,0,9,,,,,,,,7,,,,31,64
41480,note_off,80,0,10,,,,,,,,8,,,,67,64
41480,note_off,80,0,8,,,,,,,,6,,,,43,64
41480,note_off,80,0,5,,,,,,,,3,,,,67,64
41480,note_off,80,0,6,,,,,,,,4,,,,55,64
41480,note_off,80,0,12,,,,,,,,11,,,,55,64
41480,note_off,80,0,14,,,,,,,,13,,,,31,64
41480,note_off,80,0,7,,,,,,,,5,,,,55,64
41480,note_off,80,0,13,,,,,,,,12,,,,43,64
41480,note_off,80,0,11,,,,,,,,10,,,,55,64
41640,note_on,160,0,13,,,,,,,,12,,,,43,92
41640,note_on,160,0,11,,,,,,,,10,,,,55,92
41640,note_on,160,0,6,,,,,,,,4,,,,55,92
41640,note_on,160,0,8,,,,,,,,6,,,,43,92
41640,note_on,160,0,5,,,,,,,,3,,,,67,92
41640,note_on,160,0,10,,,,,,,,8,,,,67,92
41640,note_on,160,0,14,,,,,,,,13,,,,31,92
41640,note_on,160,0,12,,,,,,,,11,,,,55,92
41640,note_on,160,0,9,,,,,,,,7,,,,31,92
41640,note_on,160,0,7,,,,,,,,5,,,,55,92
41720,note_off,80,0,7,,,,,,,,5,,,,55,64
41720,note_off,80,0,9,,,,,,,,7,,,,31,64
41720,note_off,80,0,14,,,,,,,,13,,,,31,64
41720,note_off,80,0,8,,,,,,,,6,,,,43,64
41720,note_off,80,0,13,,,,,,,,12,,,,43,64
41720,note_off,80,0,6,,,,,,,,4,,,,55,64
41720,note_off,80,0,5,,,,,,,,3,,,,67,64
41720,note_off,80,0,11,,,,,,,,10,,,,55,64
41720,note_off,80,0,10,,,,,,,,8,,,,67,64
41720,note_off,80,0,12,,,,,,,,11,,,,55,64
41760,note_on,40,0,14,,,,,,,,13,,,,31,92
41760,note_on,40,0,7,,,,,,,,5,,,,55,92
41760,note_on,40,0,6,,,,,,,,4,,,,55,92
41760,note_on,40,0,5,,,,,,,,3,,,,67,92
41760,note_on,40,0,8,,,,,,,,6,,,,43,92
41760,note_on,40,0,12,,,,,,,,11,,,,55,92
41760,note_on,40,0,9,,,,,,,,7,,,,31,92
41760,note_on,40,0,13,,,,,,,,12,,,,43,92
41760,note_on,40,0,10,,,,,,,,8,,,,67,92
41760,note_on,40,0,11,,,,,,,,10,,,,55,92
41800,note_off,400,0,1,,,,,,,,0,,,,67,64
41800,note_off,0,0,1,,,,,,,,0,,,,62,64
41800,note_off,0,0,1,,,,,,,,0,,,,58,64
41800,note_off,400,0,15,,,,,,,,14,,,,31,64
41800,note_off,0,0,2,,,,,,,,0,,,,43,64
41800,note_off,0,0,2,,,,,,,,0,,,,50,64
41800,note_off,400,0,2,,,,,,,,0,,,,55,64
41840,note_off,80,0,6,,,,,,,,4,,,,55,64
41840,note_off,80,0,10,,,,,,,,8,,,,67,64
41840,note_off,80,0,12,,,,,,,,11,,,,55,64
41840,note_off,80,0,8,,,,,,,,6,,,,43,64
41840,note_off,80,0,14,,,,,,,,13,,,,31,64
41840,note_off,80,0,7,,,,,,,,5,,,,55,64
41840,note_off,80,0,13,,,,,,,,12,,,,43,64
41840,note_off,80,0,5,,,,,,,,3,,,,67,64
41840,note_off,80,0,9,,,,,,,,7,,,,31,64
41840,note_off,80,0,11,,,,,,,,10,,,,55,64
41880,note_on,40,0,10,,,,,,,,8,,,,67,92
41880,note_on,40,0,8,,,,,,,,6,,,,43,92
41880,note_on,80,0,15,,,,,,,,14,,,,31,60
41880,note_on,40,0,9,,,,,,,,7,,,,31,92
41880,note_on,40,0,14,,,,,,,,13,,,,31,92
41880,note_on,40,0,13,,,,,,,,12,,,,43,92
41880,note_on,40,0,12,,,,,,,,11,,,,55,92
41880,note_on,40,0,5,,,,,,,,3,,,,67,92
41880,note_on,40,0,7,,,,,,,,5,,,,55,92
41880,note_on,40,0,6,,,,,,,,4,,,,55,92
41880,note_on,40,0,11,,,,,,,,10,,,,55,92
41960,note_off,80,0,8,,,,,,,,6,,,,43,64
41960,note_off,80,0,10,,,,,,,,8,,,,67,64
41960,note_off,80,0,13,,,,,,,,12,,,,43,64
41960,note_off,80,0,6,,,,,,,,4,,,,55,64
41960,note_off,80,0,14,,,,,,,,13,,,,31,64
41960,note_off,80,0,7,,,,,,,,5,,,,55,64
41960,note_off,80,0,12,,,,,,,,11,,,,55,64
41960,note_off,80,0,5,,,,,,,,3,,,,67,64
41960,note_off,80,0,9,,,,,,,,7,,,,31,64
41960,note_off,80,0,11,,,,,,,,10,,,,55,64
42000,note_on,40,0,11,,,,,,,,10,,,,55,92
42000,note_on,40,0,8,,,,,,,,6,,,,43,92
42000,note_on,40,0,13,,,,,,,,12,,,,43,92
42000,note_on,40,0,6,,,,,,,,4,,,,55,92
42000,note_on,40,0,14,,,,,,,,13,,,,31,92
42000,note_on,40,0,7,,,,,,,,5,,,,55,92
42000,note_on,40,0,10,,,,,,,,8,,,,67,92
42000,note_on,40,0,5,,,,,,,,3,,,,67,92
42000,note_on,40,0,9,,,,,,,,7,,,,31,92
42000,note_on,40,0,12,,,,,,,,11,,,,55,92
42080,note_off,80,0,14,,,,,,,,13,,,,31,64
42080,note_off,80,0,13,,,,,,,,12,,,,43,64
42080,note_off,80,0,8,,,,,,,,6,,,,43,64
42080,note_off,80,0,10,,,,,,,,8,,,,67,64
42080,note_off,80,0,11,,,,,,,,10,,,,55,64
42080,note_off,80,0,5,,,,,,,,3,,,,67,64
42080,note_off,80,0,6,,,,,,,,4,,,,55,64
42080,note_off,80,0,9,,,,,,,,7,,,,31,64
42080,note_off,80,0,7,,,,,,,,5,,,,55,64
42080,note_off,80,0,12,,,,,,,,11,,,,55,64
42120,note_on,40,0,14,,,,,,,,13,,,,31,92
42120,note_on,40,0,10,,,,,,,,8,,,,67,92
42120,note_on,40,0,5,,,,,,,,3,,,,67,92
42120,note_on,40,0,11,,,,,,,,10,,,,55,92
42120,note_on,40,0,12,,,,,,,,11,,,,55,92
42120,note_on,40,0,8,,,,,,,,6,,,,43,92
42120,note_on,40,0,6,,,,,,,,4,,,,55,92
42120,note_on,40,0,13,,,,,,,,12,,,,43,92
42120,note_on,40,0,9,,,,,,,,7,,,,31,92
42120,note_on,40,0,7,,,,,,,,5,,,,55,92
42200,note_off,80,0,9,,,,,,,,7,,,,31,64
42200,note_off,80,0,8,,,,,,,,6,,,,43,64
42200,note_off,80,0,12,,,,,,,,11,,,,55,64
42200,note_off,80,0,13,,,,,,,,12,,,,43,64
42200,note_off,80,0,14,,,,,,,,13,,,,31,64
42200,note_off,80,0,7,,,,,,,,5,,,,55,64
42200,note_off,80,0,11,,,,,,,,10,,,,55,64
42200,note_off,80,0,6,,,,,,,,4,,,,55,64
42200,note_off,80,0,5,,,,,,,,3,,,,67,64
42200,note_off,80,0,10,,,,,,,,8,,,,67,64
42240,note_on,40,0,8,,,,,,,,6,,,,43,92
42240,note_on,40,0,13,,,,,,,,12,,,,43,92
42240,note_on,40,0,9,,,,,,,,7,,,,31,92
42240,note_on,40,0,5,,,,,,,,3,,,,67,92
42240,note_on,40,0,12,,,,,,,,11,,,,55,92
42240,note_on,40,0,6,,,,,,,,4,,,,55,92
42240,note_on,40,0,10,,,,,,,,8,,,,67,92
42240,note_on,40,0,11,,,,,,,,10,,,,55,92
42240,note_on,40,0,14,,,,,,,,13,,,,31,92
42240,note_on,40,0,7,,,,,,,,5,,,,55,92
42280,note_off,400,0,15,,,,,,,,14,,,,31,64
42320,note_off,80,0,14,,,,,,,,13,,,,31,64
42320,note_off,80,0,11,,,,,,,,10,,,,55,64
42320,note_off,80,0,7,,,,,,,,5,,,,55,64
42320,note_off,80,0,12,,,,,,,,11,,,,55,64
42320,note_off,80,0,6,,,,,,,,4,,,,55,64
42320,note_off,80,0,10,,,,,,,,8,,,,67,64
42320,note_off,80,0,13,,,,,,,,12,,,,43,64
42320,note_off,80,0,5,,,,,,,,3,,,,67,64
42320,note_off,80,0,8,,,,,,,,6,,,,43,64
42320,note_off,80,0,9,,,,,,,,7,,,,31,64
42360,note_on,40,0,12,,,,,,,,11,,,,55,92
42360,note_on,40,0,13,,,,,,,,12,,,,43,92
42360,note_on,40,0,11,,,,,,,,10,,,,55,92
42360,note_on,40,0,14,,,,,,,,13,,,,31,92
42360,note_on,40,0,10,,,,,,,,8,,,,67,92
42360,note_on,40,0,9,,,,,,,,7,,,,31,92
42360,note_on,40,0,6,,,,,,,,4,,,,55,92
42360,note_on,40,0,5,,,,,,,,3,,,,67,92
42360,note_on,40,0,8,,,,,,,,6,,,,43,92
42360,note_on,40,0,7,,,,,,,,5,,,,55,92
42360,note_on,80,0,15,,,,,,,,14,,,,31,60
42440,note_off,80,0,8,,,,,,,,6,,,,43,64
42440,note_off,80,0,11,,,,,,,,10,,,,55,64
42440,note_off,80,0,7,,,,,,,,5,,,,55,64
42440,note_off,80,0,9,,,,,,,,7,,,,31,64
42440,note_off,80,0,5,,,,,,,,3,,,,67,64
42440,note_off,80,0,14,,,,,,,,13,,,,31,64
42440,note_off,80,0,10,,,,,,,,8,,,,67,64
42440,note_off,80,0,6,,,,,,,,4,,,,55,64
42440,note_off,80,0,13,,,,,,,,12,,,,43,64
42440,note_off,80,0,12,,,,,,,,11,,,,55,64
42480,note_on,40,0,11,,,,,,,,10,,,,55,92
42480,note_on,40,0,14,,,,,,,,13,,,,31,92
42480,note_on,40,0,9,,,,,,,,7,,,,31,92
42480,note_on,40,0,8,,,,,,,,6,,,,43,92
42480,note_on,40,0,10,,,,,,,,8,,,,67,92
42480,note_on,40,0,13,,,,,,,,12,,,,43,92
42480,note_on,40,0,6,,,,,,,,4,,,,55,92
42480,note_on,40,0,7,,,,,,,,5,,,,55,92
42480,note_on,40,0,5,,,,,,,,3,,,,67,92
42480,note_on,40,0,12,,,,,,,,11,,,,55,92
42560,note_off,80,0,5,,,,,,,,3,,,,67,64
42560,note_off,80,0,7,,,,,,,,5,,,,55,64
42560,note_off,80,0,10,,,,,,,,8,,,,67,64
42560,note_off,80,0,9,,,,,,,,7,,,,31,64
42560,note_off,80,0,14,,,,,,,,13,,,,31,64
42560,note_off,80,0,12,,,,,,,,11,,,,55,64
42560,note_off,80,0,6,,,,,,,,4,,,,55,64
42560,note_off,80,0,13,,,,,,,,12,,,,43,64
42560,note_off,80,0,8,,,,,,,,6,,,,43,64
42560,note_off,80,0,11,,,,,,,,10,,,,55,64
42600,note_on,40,0,14,,,,,,,,13,,,,31,92
42600,note_on,40,0,13,,,,,,,,12,,,,43,92
42600,note_on,40,0,7,,,,,,,,5,,,,55,92
42600,note_on,40,0,5,,,,,,,,3,,,,67,92
42600,note_on,40,0,11,,,,,,,,10,,,,55,92
42600,note_on,40,0,10,,,,,,,,8,,,,67,92
42600,note_on,40,0,12,,,,,,,,11,,,,55,92
42600,note_on,40,0,9,,,,,,,,7,,,,31,92
42600,note_on,40,0,8,,,,,,,,6,,,,43,92
42600,note_on,40,0,6,,,,,,,,4,,,,55,92
42680,note_off,80,0,7,,,,,,,,5,,,,55,64
42680,note_off,80,0,6,,,,,,,,4,,,,55,64
42680,note_off,80,0,13,,,,,,,,12,,,,43,64
42680,note_off,80,0,9,,,,,,,,7,,,,31,64
42680,note_off,80,0,14,,,,,,,,13,,,,31,64
42680,note_off,80,0,10,,,,,,,,8,,,,67,64
42680,note_off,80,0,12,,,,,,,,11,,,,55,64
42680,note_off,80,0,8,,,,,,,,6,,,,43,64
42680,note_off,80,0,5,,,,,,,,3,,,,67,64
42680,note_off,80,0,11,,,,,,,,10,,,,55,64
42720,note_on,40,0,10,,,,,,,,8,,,,67,92
42720,note_on,40,0,7,,,,,,,,5,,,,55,92
42720,note_on,40,0,8,,,,,,,,6,,,,43,92
42720,note_on,40,0,13,,,,,,,,12,,,,43,92
42720,note_on,40,0,12,,,,,,,,11,,,,55,92
42720,note_on,40,0,5,,,,,,,,3,,,,67,92
42720,note_on,40,0,14,,,,,,,,13,,,,31,92
42720,note_on,40,0,11,,,,,,,,10,,,,55,92
42720,note_on,40,0,6,,,,,,,,4,,,,55,92
42720,note_on,40,0,9,,,,,,,,7,,,,31,92
42760,note_off,400,0,15,,,,,,,,14,,,,31,64
42800,note_off,80,0,14,,,,,,,,13,,,,31,64
42800,note_off,80,0,6,,,,,,,,4,,,,55,64
42800,note_off,80,0,7,,,,,,,,5,,,,55,64
42800,note_off,80,0,13,,,,,,,,12,,,,43,64
42800,note_off,80,0,8,,,,,,,,6,,,,43,64
42800,note_off,80,0,11,,,,,,,,10,,,,55,64
42800,note_off,80,0,12,,,,,,,,11,,,,55,64
42800,note_off,80,0,5,,,,,,,,3,,,,67,64
42800,note_off,80,0,10,,,,,,,,8,,,,67,64
42800,note_off,80,0,9,,,,,,,,7,,,,31,64
42840,note_on,40,0,9,,,,,,,,7,,,,31,92
42840,note_on,40,0,14,,,,,,,,13,,,,31,92
42840,note_on,40,0,11,,,,,,,,10,,,,55,92
42840,note_on,40,0,6,,,,,,,,4,,,,55,92
42840,note_on,40,0,13,,,,,,,,12,,,,43,92
42840,note_on,80,0,15,,,,,,,,14,,,,31,60
42840,note_on,40,0,5,,,,,,,,3,,,,67,92
42840,note_on,40,0,10,,,,,,,,8,,,,67,92
42840,note_on,40,0,7,,,,,,,,5,,,,55,92
42840,note_on,40,0,12,,,,,,,,11,,,,55,92
42840,note_on,40,0,8,,,,,,,,6,,,,43,92
42920,note_off,80,0,9,,,,,,,,7,,,,31,64
42920,note_off,80,0,8,,,,,,,,6,,,,43,64
42920,note_off,80,0,10,,,,,,,,8,,,,67,64
42920,note_off,80,0,7,,,,,,,,5,,,,55,64
42920,note_off,80,0,13,,,,,,,,12,,,,43,64
42920,note_off,80,0,6,,,,,,,,4,,,,55,64
42920,note_off,80,0,11,,,,,,,,10,,,,55,64
42920,note_off,80,0,12,,,,,,,,11,,,,55,64
42920,note_off,80,0,5,,,,,,,,3,,,,67,64
42920,note_off,80,0,14,,,,,,,,13,,,,31,64
42960,note_on,40,0,5,,,,,,,,3,,,,67,92
42960,note_on,40,0,13,,,,,,,,12,,,,43,92
42960,note_on,40,0,11,,,,,,,,10,,,,55,92
42960,note_on,40,0,8,,,,,,,,6,,,,43,92
42960,note_on,40,0,14,,,,,,,,13,,,,31,92
42960,note_on,40,0,12,,,,,,,,11,,,,55,92
42960,note_on,40,0,7,,,,,,,,5,,,,55,92
42960,note_on,40,0,6,,,,,,,,4,,,,55,92
42960,note_on,40,0,10,,,,,,,,8,,,,67,92
42960,note_on,40,0,9,,,,,,,,7,,,,31,92
43040,note_off,80,0,8,,,,,,,,6,,,,43,64
43040,note_off,80,0,5,,,,,,,,3,,,,67,64
43040,note_off,80,0,14,,,,,,,,13,,,,31,64
43040,note_off,80,0,9,,,,,,,,7,,,,31,64
43040,note_off,80,0,10,,,,,,,,8,,,,67,64
43040,note_off,80,0,13,,,,,,,,12,,,,43,64
43040,note_off,80,0,11,,,,,,,,10,,,,55,64
43040,note_off,80,0,6,,,,,,,,4,,,,55,64
43040,note_off,80,0,12,,,,,,,,11,,,,55,64
43040,note_off,80,0,7,,,,,,,,5,,,,55,64
43080,note_on,40,0,8,,,,,,,,6,,,,43,92
43080,note_on,40,0,13,,,,,,,,12,,,,43,92
43080,note_on,40,0,7,,,,,,,,5,,,,55,92
43080,note_on,40,0,14,,,,,,,,13,,,,31,92
43080,note_on,40,0,12,,,,,,,,11,,,,55,92
43080,note_on,40,0,9,,,,,,,,7,,,,31,92
43080,note_on,40,0,10,,,,,,,,8,,,,67,92
43080,note_on,40,0,11,,,,,,,,10,,,,55,92
43080,note_on,40,0,5,,,,,,,,3,,,,67,92
43080,note_on,40,0,6,,,,,,,,4,,,,55,92
43160,note_off,80,0,10,,,,,,,,8,,,,67,64
43160,note_off,80,0,14,,,,,,,,13,,,,31,64
43160,note_off,80,0,12,,,,,,,,11,,,,55,64
43160,note_off,80,0,9,,,,,,,,7,,,,31,64
43160,note_off,80,0,7,,,,,,,,5,,,,55,64
43160,note_off,80,0,6,,,,,,,,4,,,,55,64
43160,note_off,80,0,8,,,,,,,,6,,,,43,64
43160,note_off,80,0,11,,,,,,,,10,,,,55,64
43160,note_off,80,0,5,,,,,,,,3,,,,67,64
43160,note_off,80,0,13,,,,,,,,12,,,,43,64
43200,note_on,40,0,10,,,,,,,,8,,,,67,92
43200,note_on,40,0,9,,,,,,,,7,,,,31,92
43200,note_on,40,0,5,,,,,,,,3,,,,67,92
43200,note_on,40,0,11,,,,,,,,10,,,,55,92
43200,note_off,1800,0,4,,,,,,,,2,,,,79,64
43200,note_on,40,0,7,,,,,,,,5,,,,55,92
43200,note_on,40,0,12,,,,,,,,11,,,,55,92
43200,note_off,1800,0,3,,,,,,,,1,,,,79,64
43200,note_on,40,0,14,,,,,,,,13,,,,31,92
43200,note_on,40,0,8,,,,,,,,6,,,,43,92
43200,note_on,40,0,13,,,,,,,,12,,,,43,92
43200,note_on,40,0,6,,,,,,,,4,,,,55,92
43240,note_off,400,0,15,,,,,,,,14,,,,31,64
43280,note_off,80,0,6,,,,,,,,4,,,,55,64
43280,note_off,80,0,14,,,,,,,,13,,,,31,64
43280,note_off,80,0,12,,,,,,,,11,,,,55,64
43280,note_off,80,0,8,,,,,,,,6,,,,43,64
43280,note_off,80,0,7,,,,,,,,5,,,,55,64
43280,note_off,80,0,11,,,,,,,,10,,,,55,64
43280,note_off,80,0,13,,,,,,,,12,,,,43,64
43280,note_off,80,0,5,,,,,,,,3,,,,67,64
43280,note_off,80,0,9,,,,,,,,7,,,,31,64
43280,note_off,80,0,10,,,,,,,,8,,,,67,64
43320,note_on,40,0,10,,,,,,,,8,,,,67,92
43320,note_on,80,0,15,,,,,,,,14,,,,31,60
43320,note_on,40,0,14,,,,,,,,13,,,,31,92
43320,note_on,120,0,3,,,,,,,,1,,,,79,30
43320,note_on,40,0,12,,,,,,,,11,,,,55,92
43320,note_on,40,0,8,,,,,,,,6,,,,43,92
43320,note_on,120,0,4,,,,,,,,2,,,,79,10
43320,note_on,40,0,7,,,,,,,,5,,,,55,92
43320,note_on,40,0,9,,,,,,,,7,,,,31,92
43320,note_on,40,0,6,,,,,,,,4,,,,55,92
43320,note_on,40,0,11,,,,,,,,10,,,,55,92
43320,note_on,40,0,5,,,,,,,,3,,,,67,92
43320,note_on,40,0,13,,,,,,,,12,,,,43,92
43720,note_off,400,0,14,,,,,,,,13,,,,31,64
43720,end_of_track,0,1,14,,,,,,,,,,,,,
43720,end_of_track,0,1,9,,,,,,,,,,,,,
43720,end_of_track,0,1,15,,,,,,,,,,,,,
43720,note_off,400,0,12,,,,,,,,11,,,,55,64
43720,end_of_track,0,1,12,,,,,,,,,,,,,
43720,note_off,400,0,11,,,,,,,,10,,,,55,64
43720,note_off,400,0,9,,,,,,,,7,,,,31,64
43720,note_off,400,0,5,,,,,,,,3,,,,67,64
43720,note_off,400,0,15,,,,,,,,14,,,,31,64
43720,note_off,400,0,13,,,,,,,,12,,,,43,64
43720,note_off,400,0,10,,,,,,,,8,,,,67,64
43720,end_of_track,0,1,13,,,,,,,,,,,,,
43720,end_of_track,0,1,8,,,,,,,,,,,,,
43720,note_off,400,0,8,,,,,,,,6,,,,43,64
43720,end_of_track,0,1,7,,,,,,,,,,,,,
43720,note_off,400,0,7,,,,,,,,5,,,,55,64
43720,note_off,400,0,6,,,,,,,,4,,,,55,64
46200,note_on,2480,0,10,,,,,,,,8,,,,58,30
46200,note_on,2480,0,11,,,,,,,,10,,,,55,30
46200,note_on,2480,0,5,,,,,,,,3,,,,58,30
46200,set_tempo,4800,1,0,1500000,,,,,,,,,,,,
46200,note_on,2480,0,6,,,,,,,,4,,,,55,30
46375,note_off,175,0,6,,,,,,,,4,,,,55,64
46375,note_off,175,0,11,,,,,,,,10,,,,55,64
46375,note_off,175,0,10,,,,,,,,8,,,,58,64
46375,note_off,175,0,5,,,,,,,,3,,,,58,64
46380,note_on,5,0,6,,,,,,,,4,,,,55,30
46380,note_on,5,0,10,,,,,,,,8,,,,58,30
46380,note_on,5,0,11,,,,,,,,10,,,,55,30
46380,note_on,5,0,5,,,,,,,,3,,,,58,30
46435,note_off,55,0,5,,,,,,,,3,,,,58,64
46435,note_off,55,0,11,,,,,,,,10,,,,55,64
46435,note_off,55,0,10,,,,,,,,8,,,,58,64
46435,note_off,55,0,6,,,,,,,,4,,,,55,64
46440,note_on,4640,0,1,,,,,,,,0,,,,55,45
46440,note_on,5,0,5,,,,,,,,3,,,,58,30
46440,note_on,4640,0,2,,,,,,,,0,,,,43,45
46440,set_tempo,240,1,0,1578947,,,,,,,,,,,,
46440,note_on,5,0,6,,,,,,,,4,,,,55,30
46440,note_on,5,0,10,,,,,,,,8,,,,58,30
46440,note_on,5,0,11,,,,,,,,10,,,,55,30
46615,note_off,175,0,10,,,,,,,,8,,,,58,64
46615,note_off,175,0,11,,,,,,,,10,,,,55,64
46615,note_off,175,0,6,,,,,,,,4,,,,55,64
46615,note_off,175,0,5,,,,,,,,3,,,,58,64
46620,note_on,5,0,6,,,,,,,,4,,,,55,30
46620,note_on,5,0,5,,,,,,,,3,,,,58,30
46620,note_on,5,0,10,,,,,,,,8,,,,58,30
46620,note_on,5,0,11,,,,,,,,10,,,,55,30
46675,note_off,55,0,6,,,,,,,,4,,,,55,64
46675,note_off,55,0,10,,,,,,,,8,,,,58,64
46675,note_off,55,0,11,,,,,,,,10,,,,55,64
46675,note_off,55,0,5,,,,,,,,3,,,,58,64
46680,note_on,5,0,11,,,,,,,,10,,,,55,30
46680,note_on,0,0,2,,,,,,,,0,,,,46,45
46680,note_off,240,0,2,,,,,,,,0,,,,43,64
46680,note_off,240,0,1,,,,,,,,0,,,,55,64
46680,note_on,5,0,10,,,,,,,,8,,,,58,30
46680,note_on,5,0,6,,,,,,,,4,,,,55,30
46680,note_on,0,0,1,,,,,,,,0,,,,58,45
46680,note_on,5,0,5,,,,,,,,3,,,,58,30
46680,set_tempo,240,1,0,1666666,,,,,,,,,,,,
46915,note_off,235,0,5,,,,,,,,3,,,,58,64
46915,note_off,235,0,11,,,,,,,,10,,,,55,64
46915,note_off,235,0,10,,,,,,,,8,,,,58,64
46915,note_off,235,0,6,,,,,,,,4,,,,55,64
46920,note_off,240,0,2,,,,,,,,0,,,,46,64
46920,note_on,0,0,1,,,,,,,,0,,,,62,45
46920,note_off,240,0,1,,,,,,,,0,,,,58,64
46920,note_on,0,0,2,,,,,,,,0,,,,50,45
47160,note_on,245,0,11,,,,,,,,10,,,,55,30
47160,note_on,245,0,5,,,,,,,,3,,,,58,30
47160,set_tempo,480,1,0,1764705,,,,,,,,,,,,
47160,note_on,0,0,1,,,,,,,,0,,,,67,45
47160,note_on,245,0,6,,,,,,,,4,,,,55,30
47160,note_on,245,0,10,,,,,,,,8,,,,58,30
47160,note_off,240,0,1,,,,,,,,0,,,,62,64
47160,note_on,0,0,2,,,,,,,,0,,,,55,45
47160,note_off,240,0,2,,,,,,,,0,,,,50,64
47335,note_off,175,0,5,,,,,,,,3,,,,58,64
47335,note_off,175,0,11,,,,,,,,10,,,,55,64
47335,note_off,175,0,6,,,,,,,,4,,,,55,64
47335,note_off,175,0,10,,,,,,,,8,,,,58,64
47340,note_on,5,0,10,,,,,,,,8,,,,58,30
47340,note_on,5,0,11,,,,,,,,10,,,,55,30
47340,note_on,5,0,6,,,,,,,,4,,,,55,30
47340,note_on,5,0,5,,,,,,,,3,,,,58,30
47395,note_off,55,0,6,,,,,,,,4,,,,55,64
47395,note_off,55,0,10,,,,,,,,8,,,,58,64
47395,note_off,55,0,11,,,,,,,,10,,,,55,64
47395,note_off,235,0,1,,,,,,,,0,,,,67,64
47395,note_off,235,0,2,,,,,,,,0,,,,55,64
47395,note_off,55,0,5,,,,,,,,3,,,,58,64
47400,note_on,5,0,5,,,,,,,,3,,,,58,30
47400,set_tempo,240,1,0,1875000,,,,,,,,,,,,
47400,end_of_track,0,1,0,,,,,,,,,,,,,
47400,note_on,5,0,10,,,,,,,,8,,,,58,30
47400,note_on,5,0,6,,,,,,,,4,,,,55,30
47400,note_on,5,0,11,,,,,,,,10,,,,55,30
47400,note_on,5,0,2,,,,,,,,0,,,,43,45
47400,note_on,5,0,1,,,,,,,,0,,,,55,45
47575,note_off,175,0,5,,,,,,,,3,,,,58,64
47575,note_off,175,0,11,,,,,,,,10,,,,55,64
47575,note_off,175,0,10,,,,,,,,8,,,,58,64
47575,note_off,175,0,6,,,,,,,,4,,,,55,64
47580,note_on,5,0,5,,,,,,,,3,,,,58,30
47580,note_on,5,0,11,,,,,,,,10,,,,55,30
47580,note_on,5,0,6,,,,,,,,4,,,,55,30
47580,note_on,5,0,10,,,,,,,,8,,,,58,30
47635,note_off,55,0,10,,,,,,,,8,,,,58,64
47635,note_off,55,0,5,,,,,,,,3,,,,58,64
47635,note_off,55,0,11,,,,,,,,10,,,,55,64
47635,note_off,55,0,6,,,,,,,,4,,,,55,64
47640,note_off,240,0,1,,,,,,,,0,,,,55,64
47640,note_off,240,0,2,,,,,,,,0,,,,43,64
47640,note_on,0,0,2,,,,,,,,0,,,,46,34
47640,note_on,5,0,6,,,,,,,,4,,,,55,30
47640,note_on,0,0,1,,,,,,,,0,,,,58,34
47640,note_on,5,0,11,,,,,,,,10,,,,55,30
47640,note_on,5,0,10,,,,,,,,8,,,,58,30
47640,note_on,5,0,5,,,,,,,,3,,,,58,30
47875,end_of_track,0,1,6,,,,,,,,,,,,,
47875,note_off,235,0,6,,,,,,,,4,,,,55,64
47875,note_off,235,0,5,,,,,,,,3,,,,58,64
47875,end_of_track,0,1,11,,,,,,,,,,,,,
47875,end_of_track,0,1,5,,,,,,,,,,,,,
47875,end_of_track,0,1,10,,,,,,,,,,,,,
47875,note_off,235,0,11,,,,,,,,10,,,,55,64
47875,note_off,235,0,10,,,,,,,,8,,,,58,64
47880,note_on,0,0,1,,,,,,,,0,,,,62,22
47880,note_off,240,0,1,,,,,,,,0,,,,58,64
47880,note_on,0,0,2,,,,,,,,0,,,,50,22
47880,note_off,240,0,2,,,,,,,,0,,,,46,64
48120,note_on,0,0,1,,,,,,,,0,,,,67,10
48120,note_on,0,0,1,,,,,,,,0,,,,62,10
48120,note_on,0,0,2,,,,,,,,0,,,,55,10
48120,note_off,240,0,2,,,,,,,,0,,,,50,64
48120,note_on,0,0,2,,,,,,,,0,,,,43,10
48120,note_on,0,0,1,,,,,,,,0,,,,58,10
48120,note_on,0,0,2,,,,,,,,0,,,,50,10
48120,note_off,240,0,1,,,,,,,,0,,,,62,64
48960,note_off,5640,0,3,,,,,,,,1,,,,79,64
48960,note_off,0,0,1,,,,,,,,0,,,,58,64
48960,note_off,5640,0,4,,,,,,,,2,,,,79,64
48960,end_of_track,0,1,4,,,,,,,,,,,,,
48960,note_off,0,0,1,,,,,,,,0,,,,62,64
48960,note_off,840,0,1,,,,,,,,0,,,,67,64
48960,note_off,0,0,2,,,,,,,,0,,,,50,64
48960,end_of_track,0,1,1,,,,,,,,,,,,,
48960,note_off,0,0,2,,,,,,,,0,,,,43,64
48960,end_of_track,0,1,2,,,,,,,,,,,,,
48960,note_off,840,0,2,,,,,,,,0,,,,55,64
48960,end_of_track,0,1,3,,,,,,,,,,,,,
