tick,type,time,meta,track,tempo,numerator,denominator,clocks_per_click,notated_32nd_notes_per_beat,key,port,channel,control,value,program,note,velocity
0,track_name,0,1,0,,,,,,,,,,,,,
0,control_change,0,0,10,,,,,,,,6,10,75,,,
0,control_change,0,0,10,,,,,,,,6,7,127,,,
0,channel_prefix,0,1,10,,,,,,,,6,,,,,
0,midi_port,0,1,10,,,,,,,0,,,,,,
0,track_name,0,1,3,,,,,,,,,,,,,
0,midi_port,0,1,3,,,,,,,0,,,,,,
0,channel_prefix,0,1,3,,,,,,,,0,,,,,
0,control_change,0,0,3,,,,,,,,0,7,127,,,
0,control_change,0,0,3,,,,,,,,0,10,64,,,
0,control_change,0,0,3,,,,,,,,0,91,127,,,
0,program_change,0,0,3,,,,,,,,0,,,48,,
0,midi_port,0,1,4,,,,,,,0,,,,,,
0,program_change,0,0,9,,,,,,,,5,,,50,,
0,control_change,0,0,9,,,,,,,,5,91,127,,,
0,control_change,0,0,9,,,,,,,,5,10,15,,,
0,control_change,0,0,10,,,,,,,,6,91,127,,,
0,control_change,0,0,9,,,,,,,,5,7,127,,,
0,program_change,0,0,10,,,,,,,,6,,,50,,
0,control_change,0,0,2,,,,,,,,10,91,127,,,
0,control_change,0,0,12,,,,,,,,8,10,119,,,
0,control_change,0,0,12,,,,,,,,8,7,127,,,
0,channel_prefix,0,1,12,,,,,,,,8,,,,,
0,midi_port,0,1,12,,,,,,,0,,,,,,
0,program_change,0,0,11,,,,,,,,7,,,50,,
0,control_change,0,0,11,,,,,,,,7,91,127,,,
0,control_change,0,0,11,,,,,,,,7,10,105,,,
0,control_change,0,0,11,,,,,,,,7,7,127,,,
0,channel_prefix,0,1,11,,,,,,,,7,,,,,
0,midi_port,0,1,11,,,,,,,0,,,,,,
0,track_name,0,1,2,,,,,,,,,,,,,
0,midi_port,0,1,2,,,,,,,0,,,,,,
0,channel_prefix,0,1,2,,,,,,,,10,,,,,
0,control_change,0,0,2,,,,,,,,10,7,127,,,
0,control_change,0,0,2,,,,,,,,10,10,6,,,
0,program_change,0,0,2,,,,,,,,10,,,6,,
0,channel_prefix,0,1,9,,,,,,,,5,,,,,
0,midi_port,0,1,9,,,,,,,0,,,,,,
0,program_change,0,0,8,,,,,,,,4,,,48,,
0,control_change,0,0,13,,,,,,,,11,10,6,,,
0,control_change,0,0,13,,,,,,,,11,91,127,,,
0,program_change,0,0,13,,,,,,,,11,,,32,,
0,program_change,0,0,5,,,,,,,,1,,,48,,
0,control_change,0,0,5,,,,,,,,1,91,127,,,
0,control_change,0,0,5,,,,,,,,1,10,1,,,
0,control_change,0,0,5,,,,,,,,1,7,127,,,
0,channel_prefix,0,1,5,,,,,,,,1,,,,,
0,midi_port,0,1,5,,,,,,,0,,,,,,
0,track_name,0,1,5,,,,,,,,,,,,,
0,program_change,0,0,4,,,,,,,,12,,,40,,
0,control_change,0,0,4,,,,,,,,12,91,127,,,
0,control_change,0,0,4,,,,,,,,12,10,64,,,
0,control_change,0,0,4,,,,,,,,12,7,127,,,
0,channel_prefix,0,1,4,,,,,,,,12,,,,,
0,control_change,0,0,13,,,,,,,,11,7,127,,,
0,channel_prefix,0,1,13,,,,,,,,11,,,,,
0,midi_port,0,1,13,,,,,,,0,,,,,,
0,midi_port,0,1,6,,,,,,,0,,,,,,
0,control_change,0,0,8,,,,,,,,4,91,127,,,
0,control_change,0,0,8,,,,,,,,4,10,127,,,
0,control_change,0,0,8,,,,,,,,4,7,127,,,
0,channel_prefix,0,1,8,,,,,,,,4,,,,,
0,midi_port,0,1,8,,,,,,,0,,,,,,
0,program_change,0,0,7,,,,,,,,3,,,48,,
0,control_change,0,0,7,,,,,,,,3,91,127,,,
0,control_change,0,0,12,,,,,,,,8,91,127,,,
0,control_change,0,0,7,,,,,,,,3,10,95,,,
0,channel_prefix,0,1,7,,,,,,,,3,,,,,
0,midi_port,0,1,7,,,,,,,0,,,,,,
0,program_change,0,0,6,,,,,,,,2,,,48,,
0,control_change,0,0,6,,,,,,,,2,91,127,,,
0,control_change,0,0,6,,,,,,,,2,10,63,,,
0,control_change,0,0,6,,,,,,,,2,7,127,,,
0,channel_prefix,0,1,6,,,,,,,,2,,,,,
0,control_change,0,0,7,,,,,,,,3,7,127,,,
0,program_change,0,0,12,,,,,,,,8,,,50,,
0,track_name,0,1,4,,,,,,,,,,,,,
0,track_name,0,1,1,,,,,,,,,,,,,
0,midi_port,0,1,1,,,,,,,0,,,,,,
0,channel_prefix,0,1,1,,,,,,,,10,,,,,
0,control_change,0,0,1,,,,,,,,10,7,127,,,
0,control_change,0,0,1,,,,,,,,10,10,6,,,
0,control_change,0,0,1,,,,,,,,10,91,127,,,
0,program_change,0,0,1,,,,,,,,10,,,6,,
0,time_signature,0,1,0,,3,8,36,8,,,,,,,,
0,copyright,0,1,0,,,,,,,,,,,,,
0,key_signature,0,1,0,,,,,,F,,,,,,,
0,set_tempo,0,1,0,833333,,,,,,,,,,,,
120,note_on,120,0,9,,,,,,,,5,,,,65,75
120,note_on,120,0,11,,,,,,,,7,,,,41,75
120,note_on,120,0,10,,,,,,,,6,,,,57,75
120,note_on,120,0,13,,,,,,,,11,,,,41,75
120,note_on,120,0,8,,,,,,,,4,,,,29,92
120,note_on,120,0,12,,,,,,,,8,,,,29,75
120,note_on,120,0,5,,,,,,,,1,,,,65,108
120,note_on,120,0,6,,,,,,,,2,,,,57,92
120,note_on,120,0,7,,,,,,,,3,,,,41,92
295,note_off,175,0,5,,,,,,,,1,,,,65,64
295,note_off,175,0,9,,,,,,,,5,,,,65,64
300,note_on,5,0,5,,,,,,,,1,,,,72,108
300,note_on,5,0,9,,,,,,,,5,,,,72,75
340,note_off,40,0,9,,,,,,,,5,,,,72,64
340,note_off,40,0,5,,,,,,,,1,,,,72,64
355,note_off,235,0,6,,,,,,,,2,,,,57,64
355,note_off,235,0,10,,,,,,,,6,,,,57,64
355,note_off,235,0,12,,,,,,,,8,,,,29,64
355,note_off,235,0,11,,,,,,,,7,,,,41,64
355,note_off,235,0,8,,,,,,,,4,,,,29,64
355,note_off,235,0,7,,,,,,,,3,,,,41,64
360,note_on,20,0,5,,,,,,,,1,,,,65,108
360,note_on,5,0,11,,,,,,,,7,,,,53,75
360,note_on,5,0,6,,,,,,,,2,,,,60,92
360,note_on,5,0,12,,,,,,,,8,,,,41,75
360,note_on,20,0,9,,,,,,,,5,,,,65,75
360,note_on,5,0,8,,,,,,,,4,,,,41,92
360,note_on,5,0,7,,,,,,,,3,,,,53,92
360,note_on,5,0,10,,,,,,,,6,,,,60,75
440,note_off,80,0,9,,,,,,,,5,,,,65,64
440,note_off,80,0,8,,,,,,,,4,,,,41,64
440,note_off,80,0,6,,,,,,,,2,,,,60,64
440,note_off,80,0,10,,,,,,,,6,,,,60,64
440,note_off,80,0,5,,,,,,,,1,,,,65,64
440,note_off,80,0,11,,,,,,,,7,,,,53,64
440,note_off,80,0,7,,,,,,,,3,,,,53,64
440,note_off,80,0,12,,,,,,,,8,,,,41,64
520,note_off,400,0,13,,,,,,,,11,,,,41,64
600,note_on,160,0,6,,,,,,,,2,,,,57,92
600,note_on,160,0,9,,,,,,,,5,,,,65,75
600,note_on,160,0,12,,,,,,,,8,,,,41,75
600,note_on,160,0,7,,,,,,,,3,,,,53,92
600,note_on,160,0,10,,,,,,,,6,,,,57,75
600,note_on,160,0,8,,,,,,,,4,,,,41,92
600,note_on,160,0,5,,,,,,,,1,,,,65,108
600,note_on,160,0,11,,,,,,,,7,,,,53,75
680,note_off,80,0,8,,,,,,,,4,,,,41,64
680,note_off,80,0,5,,,,,,,,1,,,,65,64
680,note_off,80,0,10,,,,,,,,6,,,,57,64
680,note_off,80,0,6,,,,,,,,2,,,,57,64
680,note_off,80,0,11,,,,,,,,7,,,,53,64
680,note_off,80,0,9,,,,,,,,5,,,,65,64
680,note_off,80,0,12,,,,,,,,8,,,,41,64
680,note_off,80,0,7,,,,,,,,3,,,,53,64
840,note_on,160,0,6,,,,,,,,2,,,,57,92
840,note_on,160,0,8,,,,,,,,4,,,,29,92
840,note_on,160,0,10,,,,,,,,6,,,,57,75
840,note_on,160,0,12,,,,,,,,8,,,,29,75
840,note_on,320,0,13,,,,,,,,11,,,,41,75
840,note_on,160,0,7,,,,,,,,3,,,,41,92
840,note_on,160,0,5,,,,,,,,1,,,,65,108
840,note_on,160,0,11,,,,,,,,7,,,,41,75
840,note_on,160,0,9,,,,,,,,5,,,,65,75
1015,note_off,175,0,5,,,,,,,,1,,,,65,64
1015,note_off,175,0,9,,,,,,,,5,,,,65,64
1020,note_on,5,0,5,,,,,,,,1,,,,72,108
1020,note_on,5,0,9,,,,,,,,5,,,,72,75
1060,note_off,40,0,9,,,,,,,,5,,,,72,64
1060,note_off,40,0,5,,,,,,,,1,,,,72,64
1075,note_off,235,0,6,,,,,,,,2,,,,57,64
1075,note_off,235,0,12,,,,,,,,8,,,,29,64
1075,note_off,235,0,7,,,,,,,,3,,,,41,64
1075,note_off,235,0,8,,,,,,,,4,,,,29,64
1075,note_off,235,0,10,,,,,,,,6,,,,57,64
1075,note_off,235,0,11,,,,,,,,7,,,,41,64
1080,note_on,5,0,7,,,,,,,,3,,,,53,92
1080,note_on,5,0,11,,,,,,,,7,,,,53,75
1080,note_on,5,0,8,,,,,,,,4,,,,41,92
1080,note_on,5,0,12,,,,,,,,8,,,,41,75
1080,note_on,20,0,9,,,,,,,,5,,,,65,75
1080,note_on,20,0,5,,,,,,,,1,,,,65,108
1080,note_on,5,0,10,,,,,,,,6,,,,60,75
1080,note_on,5,0,6,,,,,,,,2,,,,60,92
1160,note_off,80,0,9,,,,,,,,5,,,,65,64
1160,note_off,80,0,7,,,,,,,,3,,,,53,64
1160,note_off,80,0,6,,,,,,,,2,,,,60,64
1160,note_off,80,0,8,,,,,,,,4,,,,41,64
1160,note_off,80,0,10,,,,,,,,6,,,,60,64
1160,note_off,80,0,12,,,,,,,,8,,,,41,64
1160,note_off,80,0,5,,,,,,,,1,,,,65,64
1160,note_off,80,0,11,,,,,,,,7,,,,53,64
1240,note_off,400,0,13,,,,,,,,11,,,,41,64
1320,note_on,160,0,8,,,,,,,,4,,,,41,92
1320,note_on,160,0,7,,,,,,,,3,,,,53,92
1320,note_on,160,0,11,,,,,,,,7,,,,53,75
1320,note_on,160,0,9,,,,,,,,5,,,,65,75
1320,note_on,160,0,5,,,,,,,,1,,,,65,108
1320,note_on,160,0,10,,,,,,,,6,,,,57,75
1320,note_on,160,0,6,,,,,,,,2,,,,57,92
1320,note_on,160,0,12,,,,,,,,8,,,,41,75
1400,note_off,80,0,12,,,,,,,,8,,,,41,64
1400,note_off,80,0,6,,,,,,,,2,,,,57,64
1400,note_off,80,0,8,,,,,,,,4,,,,41,64
1400,note_off,80,0,11,,,,,,,,7,,,,53,64
1400,note_off,80,0,10,,,,,,,,6,,,,57,64
1400,note_off,80,0,7,,,,,,,,3,,,,53,64
1400,note_off,80,0,5,,,,,,,,1,,,,65,64
1400,note_off,80,0,9,,,,,,,,5,,,,65,64
1560,note_on,160,0,7,,,,,,,,3,,,,41,92
1560,note_on,160,0,10,,,,,,,,6,,,,57,75
1560,note_on,160,0,5,,,,,,,,1,,,,65,108
1560,note_on,160,0,12,,,,,,,,8,,,,29,75
1560,note_on,160,0,8,,,,,,,,4,,,,29,92
1560,note_on,160,0,6,,,,,,,,2,,,,57,92
1560,note_on,320,0,13,,,,,,,,11,,,,41,75
1560,note_on,160,0,11,,,,,,,,7,,,,41,75
1560,note_on,160,0,9,,,,,,,,5,,,,65,75
1640,note_off,80,0,10,,,,,,,,6,,,,57,64
1640,note_off,80,0,6,,,,,,,,2,,,,57,64
1735,note_off,175,0,5,,,,,,,,1,,,,65,64
1735,note_off,175,0,7,,,,,,,,3,,,,41,64
1735,note_off,175,0,9,,,,,,,,5,,,,65,64
1735,note_off,175,0,12,,,,,,,,8,,,,29,64
1735,note_off,175,0,11,,,,,,,,7,,,,41,64
1735,note_off,175,0,8,,,,,,,,4,,,,29,64
1740,note_on,5,0,11,,,,,,,,7,,,,53,75
1740,note_on,5,0,5,,,,,,,,1,,,,72,108
1740,note_on,5,0,8,,,,,,,,4,,,,41,92
1740,note_on,5,0,7,,,,,,,,3,,,,53,92
1740,note_on,5,0,9,,,,,,,,5,,,,72,75
1740,note_on,5,0,12,,,,,,,,8,,,,41,75
1780,note_off,40,0,9,,,,,,,,5,,,,72,64
1780,note_off,40,0,12,,,,,,,,8,,,,41,64
1780,note_off,40,0,5,,,,,,,,1,,,,72,64
1780,note_off,40,0,8,,,,,,,,4,,,,41,64
1780,note_off,40,0,7,,,,,,,,3,,,,53,64
1780,note_off,40,0,11,,,,,,,,7,,,,53,64
1795,note_off,235,0,13,,,,,,,,11,,,,41,64
1800,note_on,20,0,7,,,,,,,,3,,,,46,92
1800,note_on,20,0,12,,,,,,,,8,,,,34,75
1800,note_on,160,0,6,,,,,,,,2,,,,62,92
1800,note_on,20,0,11,,,,,,,,7,,,,46,75
1800,note_on,160,0,10,,,,,,,,6,,,,62,75
1800,note_on,20,0,8,,,,,,,,4,,,,34,92
1800,note_on,5,0,13,,,,,,,,11,,,,34,75
1800,note_on,20,0,9,,,,,,,,5,,,,70,75
1800,note_on,20,0,5,,,,,,,,1,,,,70,108
1880,note_off,80,0,10,,,,,,,,6,,,,62,64
1880,note_off,80,0,9,,,,,,,,5,,,,70,64
1880,note_off,80,0,11,,,,,,,,7,,,,46,64
1880,note_off,80,0,6,,,,,,,,2,,,,62,64
1880,note_off,80,0,5,,,,,,,,1,,,,70,64
1880,note_off,80,0,7,,,,,,,,3,,,,46,64
1880,note_off,80,0,12,,,,,,,,8,,,,34,64
1880,note_off,80,0,8,,,,,,,,4,,,,34,64
2035,note_off,235,0,13,,,,,,,,11,,,,34,64
2040,note_on,160,0,7,,,,,,,,3,,,,47,92
2040,note_on,160,0,6,,,,,,,,2,,,,62,92
2040,note_on,160,0,11,,,,,,,,7,,,,47,75
2040,note_on,5,0,13,,,,,,,,11,,,,35,75
2040,note_on,160,0,9,,,,,,,,5,,,,69,75
2040,note_on,160,0,8,,,,,,,,4,,,,35,92
2040,note_on,160,0,5,,,,,,,,1,,,,69,108
2040,note_on,160,0,10,,,,,,,,6,,,,62,75
2040,note_on,160,0,12,,,,,,,,8,,,,35,75
2120,note_off,80,0,8,,,,,,,,4,,,,35,64
2120,note_off,80,0,10,,,,,,,,6,,,,62,64
2120,note_off,80,0,6,,,,,,,,2,,,,62,64
2120,note_off,80,0,7,,,,,,,,3,,,,47,64
2120,note_off,80,0,5,,,,,,,,1,,,,69,64
2120,note_off,80,0,9,,,,,,,,5,,,,69,64
2120,note_off,80,0,11,,,,,,,,7,,,,47,64
2120,note_off,80,0,12,,,,,,,,8,,,,35,64
2275,note_off,235,0,13,,,,,,,,11,,,,35,64
2280,note_on,2280,0,2,,,,,,,,10,,,,48,60
2280,note_on,2280,0,1,,,,,,,,10,,,,60,60
2280,note_on,160,0,11,,,,,,,,7,,,,48,75
2280,note_on,0,0,9,,,,,,,,5,,,,67,75
2280,note_on,160,0,9,,,,,,,,5,,,,60,75
2280,note_on,5,0,13,,,,,,,,11,,,,36,75
2280,note_on,160,0,6,,,,,,,,2,,,,64,92
2280,note_on,160,0,12,,,,,,,,8,,,,36,75
2280,note_on,160,0,10,,,,,,,,6,,,,64,75
2280,note_on,0,0,1,,,,,,,,10,,,,72,60
2280,note_on,0,0,1,,,,,,,,10,,,,64,60
2280,note_on,0,0,5,,,,,,,,1,,,,67,108
2280,note_on,160,0,5,,,,,,,,1,,,,60,108
2280,note_on,160,0,8,,,,,,,,4,,,,36,92
2280,note_on,160,0,7,,,,,,,,3,,,,48,92
2360,note_off,80,0,1,,,,,,,,10,,,,72,64
2360,note_off,0,0,9,,,,,,,,5,,,,60,64
2360,note_off,80,0,8,,,,,,,,4,,,,36,64
2360,note_off,80,0,11,,,,,,,,7,,,,48,64
2360,note_off,80,0,12,,,,,,,,8,,,,36,64
2360,note_off,80,0,2,,,,,,,,10,,,,48,64
2360,note_off,80,0,10,,,,,,,,6,,,,64,64
2360,note_off,0,0,1,,,,,,,,10,,,,60,64
2360,note_off,0,0,1,,,,,,,,10,,,,64,64
2360,note_off,80,0,9,,,,,,,,5,,,,67,64
2360,note_off,80,0,5,,,,,,,,1,,,,67,64
2360,note_off,0,0,5,,,,,,,,1,,,,60,64
2360,note_off,80,0,6,,,,,,,,2,,,,64,64
2360,note_off,80,0,7,,,,,,,,3,,,,48,64
2400,note_on,40,0,7,,,,,,,,3,,,,46,85
2400,note_on,40,0,6,,,,,,,,2,,,,62,85
2400,note_on,40,0,11,,,,,,,,7,,,,46,70
2400,note_on,40,0,2,,,,,,,,10,,,,46,55
2400,note_on,40,0,10,,,,,,,,6,,,,62,70
2400,note_on,40,0,8,,,,,,,,4,,,,34,85
2400,note_on,0,0,1,,,,,,,,10,,,,62,55
2400,note_on,0,0,1,,,,,,,,10,,,,70,55
2400,note_on,40,0,1,,,,,,,,10,,,,58,55
2400,note_on,40,0,12,,,,,,,,8,,,,34,70
2480,note_off,80,0,6,,,,,,,,2,,,,62,64
2480,note_off,80,0,11,,,,,,,,7,,,,46,64
2480,note_off,80,0,2,,,,,,,,10,,,,46,64
2480,note_off,80,0,1,,,,,,,,10,,,,70,64
2480,note_off,80,0,10,,,,,,,,6,,,,62,64
2480,note_off,80,0,7,,,,,,,,3,,,,46,64
2480,note_off,0,0,1,,,,,,,,10,,,,62,64
2480,note_off,80,0,12,,,,,,,,8,,,,34,64
2480,note_off,0,0,1,,,,,,,,10,,,,58,64
2480,note_off,80,0,8,,,,,,,,4,,,,34,64
2515,note_off,235,0,13,,,,,,,,11,,,,36,64
2520,note_on,40,0,6,,,,,,,,2,,,,60,77
2520,note_on,160,0,5,,,,,,,,1,,,,60,92
2520,note_on,40,0,2,,,,,,,,10,,,,45,50
2520,note_on,40,0,11,,,,,,,,7,,,,45,65
2520,note_on,0,0,5,,,,,,,,1,,,,67,92
2520,note_on,40,0,7,,,,,,,,3,,,,45,77
2520,note_on,160,0,9,,,,,,,,5,,,,60,65
2520,note_on,40,0,12,,,,,,,,8,,,,33,65
2520,note_on,40,0,1,,,,,,,,10,,,,57,50
2520,note_on,40,0,10,,,,,,,,6,,,,60,65
2520,note_on,40,0,8,,,,,,,,4,,,,33,77
2520,note_on,0,0,1,,,,,,,,10,,,,69,50
2520,note_on,0,0,1,,,,,,,,10,,,,60,50
2520,note_on,0,0,9,,,,,,,,5,,,,67,65
2600,note_off,80,0,12,,,,,,,,8,,,,33,64
2600,note_off,80,0,7,,,,,,,,3,,,,45,64
2600,note_off,80,0,1,,,,,,,,10,,,,69,64
2600,note_off,80,0,2,,,,,,,,10,,,,45,64
2600,note_off,0,0,1,,,,,,,,10,,,,60,64
2600,note_off,80,0,6,,,,,,,,2,,,,60,64
2600,note_off,80,0,11,,,,,,,,7,,,,45,64
2600,note_off,0,0,9,,,,,,,,5,,,,60,64
2600,note_off,80,0,10,,,,,,,,6,,,,60,64
2600,note_off,80,0,8,,,,,,,,4,,,,33,64
2600,note_off,0,0,1,,,,,,,,10,,,,57,64
2600,note_off,0,0,5,,,,,,,,1,,,,60,64
2600,note_off,80,0,5,,,,,,,,1,,,,67,64
2600,note_off,80,0,9,,,,,,,,5,,,,67,64
2640,note_on,40,0,2,,,,,,,,10,,,,43,45
2640,note_on,40,0,10,,,,,,,,6,,,,58,60
2640,note_on,0,0,1,,,,,,,,10,,,,67,45
2640,note_on,0,0,1,,,,,,,,10,,,,58,45
2640,note_on,40,0,1,,,,,,,,10,,,,55,45
2640,note_on,40,0,7,,,,,,,,3,,,,43,69
2640,note_on,40,0,6,,,,,,,,2,,,,58,69
2640,note_on,40,0,12,,,,,,,,8,,,,31,60
2640,note_on,40,0,8,,,,,,,,4,,,,31,69
2640,note_on,40,0,11,,,,,,,,7,,,,43,60
2720,note_off,80,0,10,,,,,,,,6,,,,58,64
2720,note_off,80,0,8,,,,,,,,4,,,,31,64
2720,note_off,80,0,2,,,,,,,,10,,,,43,64
2720,note_off,80,0,12,,,,,,,,8,,,,31,64
2720,note_off,80,0,7,,,,,,,,3,,,,43,64
2720,note_off,80,0,6,,,,,,,,2,,,,58,64
2720,note_off,80,0,1,,,,,,,,10,,,,67,64
2720,note_off,80,0,11,,,,,,,,7,,,,43,64
2720,note_off,0,0,1,,,,,,,,10,,,,55,64
2720,note_off,0,0,1,,,,,,,,10,,,,58,64
2760,note_on,160,0,9,,,,,,,,5,,,,60,55
2760,note_on,40,0,1,,,,,,,,10,,,,53,40
2760,note_on,40,0,8,,,,,,,,4,,,,29,61
2760,note_on,40,0,2,,,,,,,,10,,,,41,40
2760,note_on,0,0,1,,,,,,,,10,,,,65,40
2760,note_on,40,0,10,,,,,,,,6,,,,57,55
2760,note_on,0,0,1,,,,,,,,10,,,,57,40
2760,note_on,160,0,5,,,,,,,,1,,,,60,76
2760,note_on,0,0,5,,,,,,,,1,,,,67,76
2760,note_on,0,0,9,,,,,,,,5,,,,67,55
2760,note_on,40,0,11,,,,,,,,7,,,,41,55
2760,note_on,40,0,7,,,,,,,,3,,,,41,61
2760,note_on,40,0,12,,,,,,,,8,,,,29,55
2760,note_on,40,0,6,,,,,,,,2,,,,57,61
2840,note_off,80,0,6,,,,,,,,2,,,,57,64
2840,note_off,80,0,5,,,,,,,,1,,,,67,64
2840,note_off,80,0,7,,,,,,,,3,,,,41,64
2840,note_off,80,0,1,,,,,,,,10,,,,65,64
2840,note_off,0,0,1,,,,,,,,10,,,,57,64
2840,note_off,0,0,1,,,,,,,,10,,,,53,64
2840,note_off,80,0,9,,,,,,,,5,,,,67,64
2840,note_off,80,0,8,,,,,,,,4,,,,29,64
2840,note_off,80,0,12,,,,,,,,8,,,,29,64
2840,note_off,80,0,2,,,,,,,,10,,,,41,64
2840,note_off,0,0,9,,,,,,,,5,,,,60,64
2840,note_off,80,0,11,,,,,,,,7,,,,41,64
2840,note_off,0,0,5,,,,,,,,1,,,,60,64
2840,note_off,80,0,10,,,,,,,,6,,,,57,64
2880,note_on,40,0,2,,,,,,,,10,,,,40,35
2880,note_on,40,0,11,,,,,,,,7,,,,40,50
2880,note_on,40,0,6,,,,,,,,2,,,,55,53
2880,note_on,40,0,10,,,,,,,,6,,,,55,50
2880,note_on,0,0,1,,,,,,,,10,,,,55,35
2880,note_on,40,0,1,,,,,,,,10,,,,52,35
2880,note_on,40,0,12,,,,,,,,8,,,,28,50
2880,note_on,40,0,8,,,,,,,,4,,,,28,53
2880,note_on,40,0,7,,,,,,,,3,,,,40,53
2880,note_on,0,0,1,,,,,,,,10,,,,64,35
2960,note_off,80,0,1,,,,,,,,10,,,,64,64
2960,note_off,80,0,12,,,,,,,,8,,,,28,64
2960,note_off,80,0,7,,,,,,,,3,,,,40,64
2960,note_off,80,0,2,,,,,,,,10,,,,40,64
2960,note_off,0,0,1,,,,,,,,10,,,,52,64
2960,note_off,0,0,1,,,,,,,,10,,,,55,64
2960,note_off,80,0,10,,,,,,,,6,,,,55,64
2960,note_off,80,0,8,,,,,,,,4,,,,28,64
2960,note_off,80,0,11,,,,,,,,7,,,,40,64
2960,note_off,80,0,6,,,,,,,,2,,,,55,64
3000,note_on,160,0,5,,,,,,,,1,,,,65,60
3000,note_on,40,0,12,,,,,,,,8,,,,29,45
3000,note_on,40,0,11,,,,,,,,7,,,,41,45
3000,note_on,40,0,7,,,,,,,,3,,,,41,45
3000,note_on,160,0,9,,,,,,,,5,,,,65,45
3000,note_on,40,0,10,,,,,,,,6,,,,57,45
3000,note_on,40,0,8,,,,,,,,4,,,,29,45
3000,note_on,40,0,6,,,,,,,,2,,,,57,45
3000,note_on,485,0,13,,,,,,,,11,,,,41,45
3175,note_off,175,0,5,,,,,,,,1,,,,65,64
3175,note_off,175,0,9,,,,,,,,5,,,,65,64
3180,note_on,5,0,5,,,,,,,,1,,,,72,60
3180,note_on,5,0,9,,,,,,,,5,,,,72,45
3220,note_off,40,0,5,,,,,,,,1,,,,72,64
3220,note_off,40,0,9,,,,,,,,5,,,,72,64
3235,note_off,235,0,8,,,,,,,,4,,,,29,64
3235,note_off,235,0,10,,,,,,,,6,,,,57,64
3235,note_off,235,0,6,,,,,,,,2,,,,57,64
3235,note_off,235,0,11,,,,,,,,7,,,,41,64
3235,note_off,235,0,7,,,,,,,,3,,,,41,64
3235,note_off,235,0,12,,,,,,,,8,,,,29,64
3240,note_on,5,0,6,,,,,,,,2,,,,60,45
3240,note_on,20,0,9,,,,,,,,5,,,,65,45
3240,note_on,5,0,7,,,,,,,,3,,,,53,45
3240,note_on,5,0,10,,,,,,,,6,,,,60,45
3240,note_on,5,0,12,,,,,,,,8,,,,41,45
3240,note_on,20,0,5,,,,,,,,1,,,,65,60
3240,note_on,5,0,8,,,,,,,,4,,,,41,45
3240,note_on,5,0,11,,,,,,,,7,,,,53,45
3320,note_off,80,0,11,,,,,,,,7,,,,53,64
3320,note_off,80,0,7,,,,,,,,3,,,,53,64
3320,note_off,80,0,9,,,,,,,,5,,,,65,64
3320,note_off,80,0,5,,,,,,,,1,,,,65,64
3320,note_off,80,0,10,,,,,,,,6,,,,60,64
3320,note_off,80,0,8,,,,,,,,4,,,,41,64
3320,note_off,80,0,6,,,,,,,,2,,,,60,64
3320,note_off,80,0,12,,,,,,,,8,,,,41,64
3400,note_off,400,0,13,,,,,,,,11,,,,41,64
3480,note_on,160,0,11,,,,,,,,7,,,,53,45
3480,note_on,160,0,8,,,,,,,,4,,,,41,45
3480,note_on,160,0,12,,,,,,,,8,,,,41,45
3480,note_on,160,0,7,,,,,,,,3,,,,53,45
3480,note_on,160,0,9,,,,,,,,5,,,,65,45
3480,note_on,160,0,6,,,,,,,,2,,,,57,45
3480,note_on,160,0,5,,,,,,,,1,,,,65,60
3480,note_on,160,0,10,,,,,,,,6,,,,57,45
3560,note_off,80,0,12,,,,,,,,8,,,,41,64
3560,note_off,80,0,9,,,,,,,,5,,,,65,64
3560,note_off,80,0,11,,,,,,,,7,,,,53,64
3560,note_off,80,0,6,,,,,,,,2,,,,57,64
3560,note_off,80,0,7,,,,,,,,3,,,,53,64
3560,note_off,80,0,5,,,,,,,,1,,,,65,64
3560,note_off,80,0,8,,,,,,,,4,,,,41,64
3560,note_off,80,0,10,,,,,,,,6,,,,57,64
3720,note_on,160,0,7,,,,,,,,3,,,,41,45
3720,note_on,320,0,13,,,,,,,,11,,,,41,45
3720,note_on,160,0,8,,,,,,,,4,,,,29,45
3720,note_on,160,0,12,,,,,,,,8,,,,29,45
3720,note_on,160,0,9,,,,,,,,5,,,,65,45
3720,note_on,160,0,6,,,,,,,,2,,,,57,45
3720,note_on,160,0,5,,,,,,,,1,,,,65,60
3720,note_on,160,0,11,,,,,,,,7,,,,41,45
3720,note_on,160,0,10,,,,,,,,6,,,,57,45
3895,note_off,175,0,5,,,,,,,,1,,,,65,64
3895,note_off,175,0,9,,,,,,,,5,,,,65,64
3900,note_on,5,0,5,,,,,,,,1,,,,72,60
3900,note_on,5,0,9,,,,,,,,5,,,,72,45
3940,note_off,40,0,5,,,,,,,,1,,,,72,64
3940,note_off,40,0,9,,,,,,,,5,,,,72,64
3955,note_off,235,0,12,,,,,,,,8,,,,29,64
3955,note_off,235,0,11,,,,,,,,7,,,,41,64
3955,note_off,235,0,6,,,,,,,,2,,,,57,64
3955,note_off,235,0,8,,,,,,,,4,,,,29,64
3955,note_off,235,0,7,,,,,,,,3,,,,41,64
3955,note_off,235,0,10,,,,,,,,6,,,,57,64
3960,note_on,20,0,9,,,,,,,,5,,,,65,45
3960,note_on,20,0,5,,,,,,,,1,,,,65,60
3960,note_on,5,0,7,,,,,,,,3,,,,53,45
3960,note_on,5,0,8,,,,,,,,4,,,,41,45
3960,note_on,5,0,10,,,,,,,,6,,,,60,45
3960,note_on,5,0,11,,,,,,,,7,,,,53,45
3960,note_on,5,0,12,,,,,,,,8,,,,41,45
3960,note_on,5,0,6,,,,,,,,2,,,,60,45
4040,note_off,80,0,5,,,,,,,,1,,,,65,64
4040,note_off,80,0,10,,,,,,,,6,,,,60,64
4040,note_off,80,0,9,,,,,,,,5,,,,65,64
4040,note_off,80,0,12,,,,,,,,8,,,,41,64
4040,note_off,80,0,6,,,,,,,,2,,,,60,64
4040,note_off,80,0,7,,,,,,,,3,,,,53,64
4040,note_off,80,0,8,,,,,,,,4,,,,41,64
4040,note_off,80,0,11,,,,,,,,7,,,,53,64
4120,note_off,400,0,13,,,,,,,,11,,,,41,64
4200,note_on,160,0,7,,,,,,,,3,,,,53,45
4200,note_on,160,0,8,,,,,,,,4,,,,41,45
4200,note_on,160,0,11,,,,,,,,7,,,,53,45
4200,note_on,160,0,10,,,,,,,,6,,,,57,45
4200,note_on,160,0,6,,,,,,,,2,,,,57,45
4200,note_on,160,0,12,,,,,,,,8,,,,41,45
4200,note_on,160,0,9,,,,,,,,5,,,,65,45
4200,note_on,160,0,5,,,,,,,,1,,,,65,60
4280,note_off,80,0,9,,,,,,,,5,,,,65,64
4280,note_off,80,0,12,,,,,,,,8,,,,41,64
4280,note_off,80,0,11,,,,,,,,7,,,,53,64
4280,note_off,80,0,8,,,,,,,,4,,,,41,64
4280,note_off,80,0,6,,,,,,,,2,,,,57,64
4280,note_off,80,0,5,,,,,,,,1,,,,65,64
4280,note_off,80,0,7,,,,,,,,3,,,,53,64
4280,note_off,80,0,10,,,,,,,,6,,,,57,64
4440,note_on,160,0,12,,,,,,,,8,,,,29,45
4440,note_on,160,0,11,,,,,,,,7,,,,41,45
4440,note_on,160,0,8,,,,,,,,4,,,,29,45
4440,note_on,160,0,6,,,,,,,,2,,,,57,45
4440,note_on,160,0,7,,,,,,,,3,,,,41,45
4440,note_on,160,0,9,,,,,,,,5,,,,65,45
4440,note_on,160,0,10,,,,,,,,6,,,,57,45
4440,note_on,320,0,13,,,,,,,,11,,,,41,45
4440,note_on,160,0,5,,,,,,,,1,,,,65,60
4615,note_off,175,0,11,,,,,,,,7,,,,41,64
4615,note_off,175,0,8,,,,,,,,4,,,,29,64
4615,note_off,175,0,7,,,,,,,,3,,,,41,64
4615,note_off,175,0,5,,,,,,,,1,,,,65,64
4615,note_off,175,0,12,,,,,,,,8,,,,29,64
4615,note_off,175,0,9,,,,,,,,5,,,,65,64
4620,note_on,5,0,8,,,,,,,,4,,,,41,45
4620,note_on,5,0,5,,,,,,,,1,,,,72,60
4620,note_on,5,0,11,,,,,,,,7,,,,53,45
4620,note_on,5,0,9,,,,,,,,5,,,,72,45
4620,note_on,5,0,7,,,,,,,,3,,,,53,45
4620,note_on,5,0,12,,,,,,,,8,,,,41,45
4660,note_off,40,0,8,,,,,,,,4,,,,41,64
4660,note_off,40,0,9,,,,,,,,5,,,,72,64
4660,note_off,40,0,5,,,,,,,,1,,,,72,64
4660,note_off,40,0,7,,,,,,,,3,,,,53,64
4660,note_off,40,0,11,,,,,,,,7,,,,53,64
4660,note_off,40,0,12,,,,,,,,8,,,,41,64
4675,note_off,235,0,10,,,,,,,,6,,,,57,64
4675,note_off,235,0,13,,,,,,,,11,,,,41,64
4675,note_off,235,0,6,,,,,,,,2,,,,57,64
4680,note_on,20,0,8,,,,,,,,4,,,,34,45
4680,note_on,5,0,13,,,,,,,,11,,,,34,45
4680,note_on,5,0,6,,,,,,,,2,,,,62,45
4680,note_on,20,0,9,,,,,,,,5,,,,70,45
4680,note_on,20,0,7,,,,,,,,3,,,,46,45
4680,note_on,20,0,5,,,,,,,,1,,,,70,60
4680,note_on,5,0,10,,,,,,,,6,,,,62,45
4680,note_on,20,0,11,,,,,,,,7,,,,46,45
4680,note_on,20,0,12,,,,,,,,8,,,,34,45
4760,note_off,80,0,6,,,,,,,,2,,,,62,64
4760,note_off,80,0,11,,,,,,,,7,,,,46,64
4760,note_off,80,0,7,,,,,,,,3,,,,46,64
4760,note_off,80,0,8,,,,,,,,4,,,,34,64
4760,note_off,80,0,5,,,,,,,,1,,,,70,64
4760,note_off,80,0,12,,,,,,,,8,,,,34,64
4760,note_off,80,0,10,,,,,,,,6,,,,62,64
4760,note_off,80,0,9,,,,,,,,5,,,,70,64
4915,note_off,235,0,13,,,,,,,,11,,,,34,64
4920,note_on,160,0,12,,,,,,,,8,,,,35,45
4920,note_on,160,0,5,,,,,,,,1,,,,69,60
4920,note_on,5,0,13,,,,,,,,11,,,,35,45
4920,note_on,160,0,6,,,,,,,,2,,,,62,45
4920,note_on,160,0,7,,,,,,,,3,,,,47,45
4920,note_on,160,0,10,,,,,,,,6,,,,62,45
4920,note_on,160,0,9,,,,,,,,5,,,,69,45
4920,note_on,160,0,11,,,,,,,,7,,,,47,45
4920,note_on,160,0,8,,,,,,,,4,,,,35,45
5000,note_off,80,0,6,,,,,,,,2,,,,62,64
5000,note_off,80,0,9,,,,,,,,5,,,,69,64
5000,note_off,80,0,10,,,,,,,,6,,,,62,64
5000,note_off,80,0,5,,,,,,,,1,,,,69,64
5000,note_off,80,0,12,,,,,,,,8,,,,35,64
5000,note_off,80,0,11,,,,,,,,7,,,,47,64
5000,note_off,80,0,8,,,,,,,,4,,,,35,64
5000,note_off,80,0,7,,,,,,,,3,,,,47,64
5155,note_off,235,0,13,,,,,,,,11,,,,35,64
5160,note_on,160,0,12,,,,,,,,8,,,,36,45
5160,note_on,160,0,7,,,,,,,,3,,,,48,45
5160,note_on,160,0,9,,,,,,,,5,,,,60,45
5160,note_on,160,0,6,,,,,,,,2,,,,64,45
5160,note_on,5,0,13,,,,,,,,11,,,,36,45
5160,note_on,160,0,11,,,,,,,,7,,,,48,45
5160,note_on,0,0,5,,,,,,,,1,,,,67,60
5160,note_on,160,0,5,,,,,,,,1,,,,60,60
5160,note_on,0,0,1,,,,,,,,10,,,,72,30
5160,note_on,2200,0,1,,,,,,,,10,,,,64,30
5160,note_on,0,0,9,,,,,,,,5,,,,67,45
5160,note_on,160,0,10,,,,,,,,6,,,,64,45
5160,note_on,160,0,8,,,,,,,,4,,,,36,45
5160,note_on,2200,0,2,,,,,,,,10,,,,48,30
5240,note_off,80,0,6,,,,,,,,2,,,,64,64
5240,note_off,80,0,10,,,,,,,,6,,,,64,64
5240,note_off,80,0,2,,,,,,,,10,,,,48,64
5240,note_off,80,0,7,,,,,,,,3,,,,48,64
5240,note_off,80,0,8,,,,,,,,4,,,,36,64
5240,note_off,80,0,12,,,,,,,,8,,,,36,64
5240,note_off,80,0,1,,,,,,,,10,,,,72,64
5240,note_off,80,0,11,,,,,,,,7,,,,48,64
5240,note_off,0,0,1,,,,,,,,10,,,,64,64
5280,note_on,40,0,2,,,,,,,,10,,,,46,35
5280,note_on,40,0,10,,,,,,,,6,,,,62,50
5280,note_on,40,0,1,,,,,,,,10,,,,62,35
5280,note_on,40,0,7,,,,,,,,3,,,,46,52
5280,note_on,40,0,6,,,,,,,,2,,,,62,52
5280,note_on,40,0,8,,,,,,,,4,,,,34,52
5280,note_on,0,0,1,,,,,,,,10,,,,70,35
5280,note_on,40,0,11,,,,,,,,7,,,,46,50
5280,note_on,40,0,12,,,,,,,,8,,,,34,50
5360,note_off,80,0,11,,,,,,,,7,,,,46,64
5360,note_off,80,0,7,,,,,,,,3,,,,46,64
5360,note_off,80,0,2,,,,,,,,10,,,,46,64
5360,note_off,80,0,1,,,,,,,,10,,,,70,64
5360,note_off,0,0,1,,,,,,,,10,,,,62,64
5360,note_off,80,0,6,,,,,,,,2,,,,62,64
5360,note_off,80,0,12,,,,,,,,8,,,,34,64
5360,note_off,80,0,8,,,,,,,,4,,,,34,64
5360,note_off,80,0,10,,,,,,,,6,,,,62,64
5400,note_on,40,0,12,,,,,,,,8,,,,33,55
5400,note_on,40,0,2,,,,,,,,10,,,,45,40
5400,note_on,40,0,6,,,,,,,,2,,,,60,60
5400,note_on,40,0,7,,,,,,,,3,,,,45,60
5400,note_on,40,0,10,,,,,,,,6,,,,60,55
5400,note_on,40,0,8,,,,,,,,4,,,,33,60
5400,note_on,40,0,11,,,,,,,,7,,,,45,55
5400,note_on,40,0,1,,,,,,,,10,,,,60,40
5400,note_on,0,0,1,,,,,,,,10,,,,69,40
5480,note_off,80,0,6,,,,,,,,2,,,,60,64
5480,note_off,80,0,11,,,,,,,,7,,,,45,64
5480,note_off,80,0,12,,,,,,,,8,,,,33,64
5480,note_off,80,0,2,,,,,,,,10,,,,45,64
5480,note_off,80,0,1,,,,,,,,10,,,,69,64
5480,note_off,0,0,1,,,,,,,,10,,,,60,64
5480,note_off,80,0,7,,,,,,,,3,,,,45,64
5480,note_off,80,0,10,,,,,,,,6,,,,60,64
5480,note_off,80,0,8,,,,,,,,4,,,,33,64
5520,note_on,0,0,1,,,,,,,,10,,,,67,45
5520,note_on,40,0,7,,,,,,,,3,,,,43,68
5520,note_on,40,0,12,,,,,,,,8,,,,31,60
5520,note_on,40,0,11,,,,,,,,7,,,,43,60
5520,note_on,40,0,2,,,,,,,,10,,,,43,45
5520,note_on,40,0,6,,,,,,,,2,,,,58,68
5520,note_on,40,0,10,,,,,,,,6,,,,58,60
5520,note_on,40,0,1,,,,,,,,10,,,,58,45
5520,note_on,40,0,8,,,,,,,,4,,,,31,68
5560,note_off,0,0,9,,,,,,,,5,,,,60,64
5560,note_off,400,0,5,,,,,,,,1,,,,67,64
5560,note_off,0,0,5,,,,,,,,1,,,,60,64
5560,note_off,400,0,13,,,,,,,,11,,,,36,64
5560,note_off,400,0,9,,,,,,,,5,,,,67,64
5600,note_off,80,0,7,,,,,,,,3,,,,43,64
5600,note_off,0,0,1,,,,,,,,10,,,,58,64
5600,note_off,80,0,12,,,,,,,,8,,,,31,64
5600,note_off,80,0,10,,,,,,,,6,,,,58,64
5600,note_off,80,0,8,,,,,,,,4,,,,31,64
5600,note_off,80,0,11,,,,,,,,7,,,,43,64
5600,note_off,80,0,6,,,,,,,,2,,,,58,64
5600,note_off,80,0,2,,,,,,,,10,,,,43,64
5600,note_off,80,0,1,,,,,,,,10,,,,67,64
5640,note_on,40,0,12,,,,,,,,8,,,,29,65
5640,note_on,40,0,7,,,,,,,,3,,,,41,76
5640,note_on,40,0,10,,,,,,,,6,,,,57,65
5640,note_on,40,0,8,,,,,,,,4,,,,29,76
5640,note_on,40,0,6,,,,,,,,2,,,,57,76
5640,note_on,40,0,11,,,,,,,,7,,,,41,65
5640,note_on,40,0,1,,,,,,,,10,,,,57,50
5640,note_on,0,0,1,,,,,,,,10,,,,65,50
5640,note_on,40,0,2,,,,,,,,10,,,,41,50
5720,note_off,80,0,8,,,,,,,,4,,,,29,64
5720,note_off,80,0,7,,,,,,,,3,,,,41,64
5720,note_off,80,0,10,,,,,,,,6,,,,57,64
5720,note_off,80,0,6,,,,,,,,2,,,,57,64
5720,note_off,80,0,1,,,,,,,,10,,,,65,64
5720,note_off,80,0,12,,,,,,,,8,,,,29,64
5720,note_off,80,0,11,,,,,,,,7,,,,41,64
5720,note_off,0,0,1,,,,,,,,10,,,,57,64
5720,note_off,80,0,2,,,,,,,,10,,,,41,64
5760,note_on,40,0,1,,,,,,,,10,,,,55,55
5760,note_on,0,0,1,,,,,,,,10,,,,64,55
5760,note_on,40,0,8,,,,,,,,4,,,,28,84
5760,note_on,40,0,11,,,,,,,,7,,,,40,70
5760,note_on,40,0,2,,,,,,,,10,,,,40,55
5760,note_on,40,0,12,,,,,,,,8,,,,28,70
5760,note_on,40,0,10,,,,,,,,6,,,,55,70
5760,note_on,40,0,7,,,,,,,,3,,,,40,84
5760,note_on,40,0,6,,,,,,,,2,,,,55,84
5840,note_off,80,0,8,,,,,,,,4,,,,28,64
5840,note_off,80,0,11,,,,,,,,7,,,,40,64
5840,note_off,80,0,6,,,,,,,,2,,,,55,64
5840,note_off,80,0,1,,,,,,,,10,,,,64,64
5840,note_off,0,0,1,,,,,,,,10,,,,55,64
5840,note_off,80,0,2,,,,,,,,10,,,,40,64
5840,note_off,80,0,10,,,,,,,,6,,,,55,64
5840,note_off,80,0,12,,,,,,,,8,,,,28,64
5840,note_off,80,0,7,,,,,,,,3,,,,40,64
5880,note_on,40,0,8,,,,,,,,4,,,,29,92
5880,note_on,320,0,5,,,,,,,,1,,,,65,108
5880,note_on,320,0,9,,,,,,,,5,,,,65,75
5880,note_on,40,0,11,,,,,,,,7,,,,41,75
5880,note_on,320,0,13,,,,,,,,11,,,,41,75
5880,note_on,40,0,12,,,,,,,,8,,,,29,75
5880,note_on,40,0,7,,,,,,,,3,,,,41,92
5880,note_on,40,0,6,,,,,,,,2,,,,57,92
5880,note_on,40,0,10,,,,,,,,6,,,,57,75
6055,note_off,175,0,5,,,,,,,,1,,,,65,64
6055,note_off,175,0,9,,,,,,,,5,,,,65,64
6060,note_on,5,0,5,,,,,,,,1,,,,77,108
6060,note_on,5,0,9,,,,,,,,5,,,,77,75
6100,note_off,40,0,9,,,,,,,,5,,,,77,64
6100,note_off,40,0,5,,,,,,,,1,,,,77,64
6115,note_off,235,0,11,,,,,,,,7,,,,41,64
6115,note_off,235,0,10,,,,,,,,6,,,,57,64
6115,note_off,235,0,12,,,,,,,,8,,,,29,64
6115,note_off,235,0,8,,,,,,,,4,,,,29,64
6115,note_off,235,0,6,,,,,,,,2,,,,57,64
6115,note_off,235,0,7,,,,,,,,3,,,,41,64
6120,note_on,5,0,8,,,,,,,,4,,,,41,92
6120,note_on,5,0,12,,,,,,,,8,,,,41,75
6120,note_on,20,0,5,,,,,,,,1,,,,65,108
6120,note_on,20,0,9,,,,,,,,5,,,,65,75
6120,note_on,5,0,11,,,,,,,,7,,,,53,75
6120,note_on,5,0,7,,,,,,,,3,,,,53,92
6200,note_off,80,0,12,,,,,,,,8,,,,41,64
6200,note_off,80,0,5,,,,,,,,1,,,,65,64
6200,note_off,80,0,11,,,,,,,,7,,,,53,64
6200,note_off,80,0,9,,,,,,,,5,,,,65,64
6200,note_off,80,0,8,,,,,,,,4,,,,41,64
6200,note_off,80,0,7,,,,,,,,3,,,,53,64
6280,note_off,400,0,13,,,,,,,,11,,,,41,64
6360,note_on,160,0,11,,,,,,,,7,,,,53,75
6360,note_on,160,0,12,,,,,,,,8,,,,41,75
6360,note_on,160,0,9,,,,,,,,5,,,,65,75
6360,note_on,160,0,5,,,,,,,,1,,,,65,108
6360,note_on,160,0,8,,,,,,,,4,,,,41,92
6360,note_on,160,0,7,,,,,,,,3,,,,53,92
6440,note_off,80,0,9,,,,,,,,5,,,,65,64
6440,note_off,80,0,8,,,,,,,,4,,,,41,64
6440,note_off,80,0,12,,,,,,,,8,,,,41,64
6440,note_off,80,0,11,,,,,,,,7,,,,53,64
6440,note_off,80,0,7,,,,,,,,3,,,,53,64
6440,note_off,80,0,5,,,,,,,,1,,,,65,64
6600,note_on,160,0,12,,,,,,,,8,,,,29,75
6600,note_on,160,0,8,,,,,,,,4,,,,29,92
6600,note_on,160,0,9,,,,,,,,5,,,,65,75
6600,note_on,485,0,6,,,,,,,,2,,,,60,92
6600,note_on,320,0,13,,,,,,,,11,,,,41,75
6600,note_on,485,0,10,,,,,,,,6,,,,60,75
6600,note_on,160,0,7,,,,,,,,3,,,,41,92
6600,note_on,160,0,11,,,,,,,,7,,,,41,75
6600,note_on,160,0,5,,,,,,,,1,,,,65,108
6775,note_off,175,0,9,,,,,,,,5,,,,65,64
6775,note_off,175,0,5,,,,,,,,1,,,,65,64
6780,note_on,5,0,5,,,,,,,,1,,,,75,108
6780,note_on,5,0,9,,,,,,,,5,,,,75,75
6820,note_off,40,0,9,,,,,,,,5,,,,75,64
6820,note_off,40,0,5,,,,,,,,1,,,,75,64
6835,note_off,235,0,12,,,,,,,,8,,,,29,64
6835,note_off,235,0,10,,,,,,,,6,,,,60,64
6835,note_off,235,0,7,,,,,,,,3,,,,41,64
6835,note_off,235,0,11,,,,,,,,7,,,,41,64
6835,note_off,235,0,8,,,,,,,,4,,,,29,64
6835,note_off,235,0,6,,,,,,,,2,,,,60,64
6840,note_on,20,0,5,,,,,,,,1,,,,65,108
6840,note_on,5,0,7,,,,,,,,3,,,,53,92
6840,note_on,5,0,8,,,,,,,,4,,,,41,92
6840,note_on,5,0,11,,,,,,,,7,,,,53,75
6840,note_on,5,0,12,,,,,,,,8,,,,41,75
6840,note_on,20,0,9,,,,,,,,5,,,,65,75
6920,note_off,80,0,7,,,,,,,,3,,,,53,64
6920,note_off,80,0,5,,,,,,,,1,,,,65,64
6920,note_off,80,0,12,,,,,,,,8,,,,41,64
6920,note_off,80,0,8,,,,,,,,4,,,,41,64
6920,note_off,80,0,11,,,,,,,,7,,,,53,64
6920,note_off,80,0,9,,,,,,,,5,,,,65,64
7000,note_off,400,0,13,,,,,,,,11,,,,41,64
7080,note_on,160,0,11,,,,,,,,7,,,,53,75
7080,note_on,160,0,8,,,,,,,,4,,,,41,92
7080,note_on,160,0,7,,,,,,,,3,,,,53,92
7080,note_on,160,0,5,,,,,,,,1,,,,65,108
7080,note_on,160,0,9,,,,,,,,5,,,,65,75
7080,note_on,160,0,12,,,,,,,,8,,,,41,75
7160,note_off,80,0,9,,,,,,,,5,,,,65,64
7160,note_off,80,0,8,,,,,,,,4,,,,41,64
7160,note_off,80,0,7,,,,,,,,3,,,,53,64
7160,note_off,80,0,11,,,,,,,,7,,,,53,64
7160,note_off,80,0,12,,,,,,,,8,,,,41,64
7160,note_off,80,0,5,,,,,,,,1,,,,65,64
7320,note_on,320,0,13,,,,,,,,11,,,,41,75
7320,note_on,160,0,9,,,,,,,,5,,,,65,75
7320,note_on,160,0,7,,,,,,,,3,,,,41,92
7320,note_on,160,0,11,,,,,,,,7,,,,41,75
7320,note_on,160,0,8,,,,,,,,4,,,,29,92
7320,note_on,160,0,12,,,,,,,,8,,,,29,75
7320,note_on,485,0,6,,,,,,,,2,,,,58,92
7320,note_on,485,0,10,,,,,,,,6,,,,58,75
7320,note_on,160,0,5,,,,,,,,1,,,,65,108
7495,note_off,175,0,9,,,,,,,,5,,,,65,64
7495,note_off,175,0,5,,,,,,,,1,,,,65,64
7500,note_on,5,0,9,,,,,,,,5,,,,74,75
7500,note_on,5,0,5,,,,,,,,1,,,,74,108
7540,note_off,40,0,9,,,,,,,,5,,,,74,64
7540,note_off,40,0,5,,,,,,,,1,,,,74,64
7555,note_off,235,0,7,,,,,,,,3,,,,41,64
7555,note_off,235,0,8,,,,,,,,4,,,,29,64
7555,note_off,235,0,10,,,,,,,,6,,,,58,64
7555,note_off,235,0,6,,,,,,,,2,,,,58,64
7555,note_off,235,0,12,,,,,,,,8,,,,29,64
7555,note_off,235,0,11,,,,,,,,7,,,,41,64
7560,note_on,5,0,11,,,,,,,,7,,,,53,75
7560,note_on,5,0,7,,,,,,,,3,,,,53,92
7560,note_on,20,0,9,,,,,,,,5,,,,65,75
7560,note_on,5,0,8,,,,,,,,4,,,,41,92
7560,note_on,20,0,5,,,,,,,,1,,,,65,108
7560,note_on,5,0,12,,,,,,,,8,,,,41,75
7640,note_off,80,0,5,,,,,,,,1,,,,65,64
7640,note_off,80,0,7,,,,,,,,3,,,,53,64
7640,note_off,80,0,9,,,,,,,,5,,,,65,64
7640,note_off,80,0,11,,,,,,,,7,,,,53,64
7640,note_off,80,0,8,,,,,,,,4,,,,41,64
7640,note_off,80,0,12,,,,,,,,8,,,,41,64
7720,note_off,400,0,13,,,,,,,,11,,,,41,64
7800,note_on,160,0,7,,,,,,,,3,,,,53,92
7800,note_on,160,0,9,,,,,,,,5,,,,65,75
7800,note_on,160,0,11,,,,,,,,7,,,,53,75
7800,note_on,160,0,5,,,,,,,,1,,,,65,108
7800,note_on,160,0,8,,,,,,,,4,,,,41,92
7800,note_on,160,0,12,,,,,,,,8,,,,41,75
7880,note_off,80,0,12,,,,,,,,8,,,,41,64
7880,note_off,80,0,8,,,,,,,,4,,,,41,64
7880,note_off,80,0,7,,,,,,,,3,,,,53,64
7880,note_off,80,0,5,,,,,,,,1,,,,65,64
7880,note_off,80,0,11,,,,,,,,7,,,,53,64
7880,note_off,80,0,9,,,,,,,,5,,,,65,64
8040,note_on,160,0,9,,,,,,,,5,,,,65,75
8040,note_on,485,0,6,,,,,,,,2,,,,57,92
8040,note_on,160,0,11,,,,,,,,7,,,,41,75
8040,note_on,160,0,5,,,,,,,,1,,,,65,108
8040,note_on,160,0,7,,,,,,,,3,,,,41,92
8040,note_on,160,0,8,,,,,,,,4,,,,29,92
8040,note_on,485,0,10,,,,,,,,6,,,,57,75
8040,note_on,160,0,12,,,,,,,,8,,,,29,75
8040,note_on,320,0,13,,,,,,,,11,,,,41,75
8160,note_off,120,0,5,,,,,,,,1,,,,65,64
8160,note_off,120,0,9,,,,,,,,5,,,,65,64
8220,note_on,60,0,5,,,,,,,,1,,,,72,108
8220,note_on,60,0,9,,,,,,,,5,,,,72,75
8260,note_off,40,0,5,,,,,,,,1,,,,72,64
8260,note_off,40,0,9,,,,,,,,5,,,,72,64
8275,note_off,235,0,10,,,,,,,,6,,,,57,64
8275,note_off,235,0,6,,,,,,,,2,,,,57,64
8275,note_off,235,0,11,,,,,,,,7,,,,41,64
8275,note_off,235,0,7,,,,,,,,3,,,,41,64
8275,note_off,235,0,12,,,,,,,,8,,,,29,64
8275,note_off,235,0,8,,,,,,,,4,,,,29,64
8280,note_on,5,0,8,,,,,,,,4,,,,41,92
8280,note_on,5,0,11,,,,,,,,7,,,,53,75
8280,note_on,5,0,12,,,,,,,,8,,,,41,75
8280,note_on,20,0,9,,,,,,,,5,,,,65,75
8280,note_on,5,0,7,,,,,,,,3,,,,53,92
8280,note_on,20,0,5,,,,,,,,1,,,,65,108
8360,note_off,80,0,12,,,,,,,,8,,,,41,64
8360,note_off,80,0,7,,,,,,,,3,,,,53,64
8360,note_off,80,0,11,,,,,,,,7,,,,53,64
8360,note_off,80,0,8,,,,,,,,4,,,,41,64
8360,note_off,80,0,9,,,,,,,,5,,,,65,64
8360,note_off,80,0,5,,,,,,,,1,,,,65,64
8440,note_off,400,0,13,,,,,,,,11,,,,41,64
8520,note_on,160,0,7,,,,,,,,3,,,,53,92
8520,note_on,160,0,12,,,,,,,,8,,,,41,75
8520,note_on,160,0,9,,,,,,,,5,,,,65,75
8520,note_on,160,0,8,,,,,,,,4,,,,41,92
8520,note_on,160,0,5,,,,,,,,1,,,,65,108
8520,note_on,160,0,11,,,,,,,,7,,,,53,75
8600,note_off,80,0,12,,,,,,,,8,,,,41,64
8600,note_off,80,0,5,,,,,,,,1,,,,65,64
8600,note_off,80,0,7,,,,,,,,3,,,,53,64
8600,note_off,80,0,8,,,,,,,,4,,,,41,64
8600,note_off,80,0,9,,,,,,,,5,,,,65,64
8600,note_off,80,0,11,,,,,,,,7,,,,53,64
8760,note_on,160,0,8,,,,,,,,4,,,,29,92
8760,note_on,320,0,13,,,,,,,,11,,,,41,75
8760,note_on,485,0,10,,,,,,,,6,,,,57,75
8760,note_on,160,0,9,,,,,,,,5,,,,65,75
8760,note_on,160,0,5,,,,,,,,1,,,,65,108
8760,note_on,160,0,11,,,,,,,,7,,,,41,75
8760,note_on,485,0,6,,,,,,,,2,,,,57,92
8760,note_on,160,0,12,,,,,,,,8,,,,29,75
8760,note_on,160,0,7,,,,,,,,3,,,,41,92
9160,note_off,400,0,6,,,,,,,,2,,,,57,64
9160,note_off,400,0,9,,,,,,,,5,,,,65,64
9160,note_off,400,0,5,,,,,,,,1,,,,65,64
9160,note_off,400,0,12,,,,,,,,8,,,,29,64
9160,note_off,400,0,8,,,,,,,,4,,,,29,64
9160,note_off,400,0,13,,,,,,,,11,,,,41,64
9160,note_off,400,0,10,,,,,,,,6,,,,57,64
9160,note_off,400,0,11,,,,,,,,7,,,,41,64
9160,note_off,400,0,7,,,,,,,,3,,,,41,64
9540,note_on,0,0,5,,,,,,,,1,,,,81,108
9540,note_on,0,0,9,,,,,,,,5,,,,81,75
9540,note_on,380,0,9,,,,,,,,5,,,,77,75
9540,note_on,380,0,5,,,,,,,,1,,,,77,108
9540,note_on,380,0,11,,,,,,,,7,,,,53,75
9540,note_on,380,0,10,,,,,,,,6,,,,72,75
9540,note_on,380,0,13,,,,,,,,11,,,,41,75
9540,note_on,380,0,8,,,,,,,,4,,,,41,92
9540,note_on,380,0,7,,,,,,,,3,,,,53,92
9540,note_on,380,0,6,,,,,,,,2,,,,72,92
9540,note_on,380,0,12,,,,,,,,8,,,,41,75
9775,note_off,0,0,9,,,,,,,,5,,,,77,64
9775,note_off,235,0,12,,,,,,,,8,,,,41,64
9775,note_off,235,0,9,,,,,,,,5,,,,81,64
9775,note_off,0,0,5,,,,,,,,1,,,,77,64
9775,note_off,235,0,10,,,,,,,,6,,,,72,64
9775,note_off,235,0,5,,,,,,,,1,,,,81,64
9775,note_off,235,0,8,,,,,,,,4,,,,41,64
9775,note_off,235,0,6,,,,,,,,2,,,,72,64
9775,note_off,235,0,11,,,,,,,,7,,,,53,64
9775,note_off,235,0,7,,,,,,,,3,,,,53,64
9780,note_on,0,0,9,,,,,,,,5,,,,81,75
9780,note_on,5,0,10,,,,,,,,6,,,,72,75
9780,note_on,5,0,6,,,,,,,,2,,,,72,92
9780,note_on,5,0,11,,,,,,,,7,,,,53,75
9780,note_on,5,0,8,,,,,,,,4,,,,41,92
9780,note_on,5,0,9,,,,,,,,5,,,,77,75
9780,note_on,5,0,12,,,,,,,,8,,,,41,75
9780,note_on,5,0,5,,,,,,,,1,,,,77,108
9780,note_on,5,0,7,,,,,,,,3,,,,53,92
9780,note_on,0,0,5,,,,,,,,1,,,,81,108
9860,note_off,80,0,9,,,,,,,,5,,,,81,64
9860,note_off,0,0,9,,,,,,,,5,,,,77,64
9860,note_off,80,0,10,,,,,,,,6,,,,72,64
9860,note_off,80,0,12,,,,,,,,8,,,,41,64
9860,note_off,80,0,5,,,,,,,,1,,,,81,64
9860,note_off,80,0,11,,,,,,,,7,,,,53,64
9860,note_off,80,0,7,,,,,,,,3,,,,53,64
9860,note_off,80,0,6,,,,,,,,2,,,,72,64
9860,note_off,0,0,5,,,,,,,,1,,,,77,64
9860,note_off,80,0,8,,,,,,,,4,,,,41,64
9900,note_on,40,0,9,,,,,,,,5,,,,77,75
9900,note_on,0,0,9,,,,,,,,5,,,,81,75
9900,note_on,40,0,8,,,,,,,,4,,,,41,92
9900,note_on,40,0,6,,,,,,,,2,,,,72,92
9900,note_on,40,0,10,,,,,,,,6,,,,72,75
9900,note_on,0,0,5,,,,,,,,1,,,,81,108
9900,note_on,40,0,5,,,,,,,,1,,,,77,108
9900,note_on,40,0,12,,,,,,,,8,,,,41,75
9900,note_on,40,0,11,,,,,,,,7,,,,53,75
9900,note_on,40,0,7,,,,,,,,3,,,,53,92
9940,note_off,400,0,13,,,,,,,,11,,,,41,64
9980,note_off,80,0,10,,,,,,,,6,,,,72,64
9980,note_off,80,0,6,,,,,,,,2,,,,72,64
9980,note_off,80,0,7,,,,,,,,3,,,,53,64
9980,note_off,80,0,11,,,,,,,,7,,,,53,64
9980,note_off,80,0,12,,,,,,,,8,,,,41,64
9980,note_off,80,0,8,,,,,,,,4,,,,41,64
9980,note_off,80,0,9,,,,,,,,5,,,,81,64
9980,note_off,0,0,5,,,,,,,,1,,,,77,64
9980,note_off,80,0,5,,,,,,,,1,,,,81,64
9980,note_off,0,0,9,,,,,,,,5,,,,77,64
10020,note_on,40,0,6,,,,,,,,2,,,,72,92
10020,note_on,0,0,5,,,,,,,,1,,,,81,108
10020,note_on,40,0,7,,,,,,,,3,,,,53,92
10020,note_on,40,0,5,,,,,,,,1,,,,77,108
10020,note_on,40,0,9,,,,,,,,5,,,,77,75
10020,note_on,0,0,9,,,,,,,,5,,,,81,75
10020,note_on,40,0,12,,,,,,,,8,,,,41,75
10020,note_on,40,0,10,,,,,,,,6,,,,72,75
10020,note_on,40,0,8,,,,,,,,4,,,,41,92
10020,note_on,40,0,11,,,,,,,,7,,,,53,75
10100,note_off,80,0,9,,,,,,,,5,,,,81,64
10100,note_off,80,0,5,,,,,,,,1,,,,81,64
10100,note_off,0,0,5,,,,,,,,1,,,,77,64
10100,note_off,80,0,11,,,,,,,,7,,,,53,64
10100,note_off,80,0,6,,,,,,,,2,,,,72,64
10100,note_off,0,0,9,,,,,,,,5,,,,77,64
10100,note_off,80,0,8,,,,,,,,4,,,,41,64
10100,note_off,80,0,10,,,,,,,,6,,,,72,64
10100,note_off,80,0,7,,,,,,,,3,,,,53,64
10100,note_off,80,0,12,,,,,,,,8,,,,41,64
10140,note_on,40,0,11,,,,,,,,7,,,,48,75
10140,note_on,40,0,10,,,,,,,,6,,,,64,75
10140,note_on,40,0,7,,,,,,,,3,,,,48,92
10140,note_on,40,0,9,,,,,,,,5,,,,79,75
10140,note_on,0,0,9,,,,,,,,5,,,,82,75
10140,note_on,40,0,5,,,,,,,,1,,,,79,108
10140,note_on,0,0,5,,,,,,,,1,,,,82,108
10140,note_on,40,0,6,,,,,,,,2,,,,64,92
10140,note_on,40,0,12,,,,,,,,8,,,,36,75
10140,note_on,40,0,8,,,,,,,,4,,,,36,92
10220,note_off,80,0,8,,,,,,,,4,,,,36,64
10220,note_off,80,0,12,,,,,,,,8,,,,36,64
10220,note_off,80,0,10,,,,,,,,6,,,,64,64
10220,note_off,80,0,11,,,,,,,,7,,,,48,64
10220,note_off,80,0,6,,,,,,,,2,,,,64,64
10220,note_off,80,0,5,,,,,,,,1,,,,82,64
10220,note_off,80,0,7,,,,,,,,3,,,,48,64
10220,note_off,0,0,5,,,,,,,,1,,,,79,64
10220,note_off,80,0,9,,,,,,,,5,,,,82,64
10220,note_off,0,0,9,,,,,,,,5,,,,79,64
10260,note_on,0,0,9,,,,,,,,5,,,,84,75
10260,note_on,40,0,9,,,,,,,,5,,,,81,75
10260,note_on,40,0,6,,,,,,,,2,,,,60,92
10260,note_on,40,0,5,,,,,,,,1,,,,81,108
10260,note_on,40,0,8,,,,,,,,4,,,,41,92
10260,note_on,320,0,13,,,,,,,,11,,,,41,75
10260,note_on,40,0,10,,,,,,,,6,,,,60,75
10260,note_on,40,0,11,,,,,,,,7,,,,53,75
10260,note_on,40,0,7,,,,,,,,3,,,,53,92
10260,note_on,0,0,5,,,,,,,,1,,,,84,108
10260,note_on,40,0,12,,,,,,,,8,,,,41,75
10340,note_off,80,0,9,,,,,,,,5,,,,84,64
10340,note_off,80,0,12,,,,,,,,8,,,,41,64
10340,note_off,80,0,10,,,,,,,,6,,,,60,64
10340,note_off,80,0,7,,,,,,,,3,,,,53,64
10340,note_off,0,0,9,,,,,,,,5,,,,81,64
10340,note_off,0,0,5,,,,,,,,1,,,,81,64
10340,note_off,80,0,6,,,,,,,,2,,,,60,64
10340,note_off,80,0,8,,,,,,,,4,,,,41,64
10340,note_off,80,0,11,,,,,,,,7,,,,53,64
10340,note_off,80,0,5,,,,,,,,1,,,,84,64
10500,note_on,160,0,12,,,,,,,,8,,,,29,75
10500,note_on,0,0,5,,,,,,,,1,,,,81,108
10500,note_on,160,0,8,,,,,,,,4,,,,29,92
10500,note_on,160,0,5,,,,,,,,1,,,,77,108
10500,note_on,160,0,7,,,,,,,,3,,,,41,92
10500,note_on,0,0,1,,,,,,,,10,,,,81,75
10500,note_on,160,0,10,,,,,,,,6,,,,60,75
10500,note_on,160,0,11,,,,,,,,7,,,,41,75
10500,note_on,4660,0,2,,,,,,,,10,,,,41,60
10500,note_on,160,0,9,,,,,,,,5,,,,77,75
10500,note_on,0,0,9,,,,,,,,5,,,,81,75
10500,note_on,160,0,6,,,,,,,,2,,,,60,92
10500,note_on,4660,0,1,,,,,,,,10,,,,77,75
10580,note_off,80,0,9,,,,,,,,5,,,,81,64
10580,note_off,80,0,7,,,,,,,,3,,,,41,64
10580,note_off,80,0,2,,,,,,,,10,,,,41,64
10580,note_off,80,0,6,,,,,,,,2,,,,60,64
10580,note_off,80,0,12,,,,,,,,8,,,,29,64
10580,note_off,0,0,5,,,,,,,,1,,,,77,64
10580,note_off,80,0,10,,,,,,,,6,,,,60,64
10580,note_off,0,0,9,,,,,,,,5,,,,77,64
10580,note_off,80,0,5,,,,,,,,1,,,,81,64
10580,note_off,80,0,11,,,,,,,,7,,,,41,64
10580,note_off,80,0,8,,,,,,,,4,,,,29,64
10615,note_off,115,0,1,,,,,,,,10,,,,81,64
10615,note_off,0,0,1,,,,,,,,10,,,,77,64
10620,note_on,0,0,1,,,,,,,,10,,,,82,75
10620,note_on,5,0,1,,,,,,,,10,,,,79,75
10620,note_on,40,0,11,,,,,,,,7,,,,41,75
10620,note_on,40,0,7,,,,,,,,3,,,,41,92
10620,note_on,40,0,2,,,,,,,,10,,,,41,60
10620,note_on,40,0,12,,,,,,,,8,,,,29,75
10620,note_on,40,0,8,,,,,,,,4,,,,29,92
10660,note_off,400,0,13,,,,,,,,11,,,,41,64
10700,note_off,80,0,12,,,,,,,,8,,,,29,64
10700,note_off,80,0,7,,,,,,,,3,,,,41,64
10700,note_off,80,0,8,,,,,,,,4,,,,29,64
10700,note_off,80,0,11,,,,,,,,7,,,,41,64
10700,note_off,80,0,2,,,,,,,,10,,,,41,64
10735,note_off,0,0,1,,,,,,,,10,,,,79,64
10735,note_off,115,0,1,,,,,,,,10,,,,82,64
10740,note_on,160,0,10,,,,,,,,6,,,,60,75
10740,note_on,40,0,2,,,,,,,,10,,,,41,60
10740,note_on,160,0,9,,,,,,,,5,,,,77,75
10740,note_on,0,0,9,,,,,,,,5,,,,81,75
10740,note_on,40,0,11,,,,,,,,7,,,,41,75
10740,note_on,40,0,12,,,,,,,,8,,,,29,75
10740,note_on,160,0,5,,,,,,,,1,,,,77,108
10740,note_on,0,0,5,,,,,,,,1,,,,81,108
10740,note_on,40,0,8,,,,,,,,4,,,,29,92
10740,note_on,160,0,6,,,,,,,,2,,,,60,92
10740,note_on,40,0,7,,,,,,,,3,,,,41,92
10740,note_on,5,0,1,,,,,,,,10,,,,81,75
10740,note_on,0,0,1,,,,,,,,10,,,,84,75
10820,note_off,0,0,9,,,,,,,,5,,,,77,64
10820,note_off,80,0,11,,,,,,,,7,,,,41,64
10820,note_off,80,0,9,,,,,,,,5,,,,81,64
10820,note_off,80,0,5,,,,,,,,1,,,,81,64
10820,note_off,0,0,5,,,,,,,,1,,,,77,64
10820,note_off,80,0,8,,,,,,,,4,,,,29,64
10820,note_off,80,0,2,,,,,,,,10,,,,41,64
10820,note_off,80,0,10,,,,,,,,6,,,,60,64
10820,note_off,80,0,6,,,,,,,,2,,,,60,64
10820,note_off,80,0,7,,,,,,,,3,,,,41,64
10820,note_off,80,0,12,,,,,,,,8,,,,29,64
10855,note_off,0,0,1,,,,,,,,10,,,,81,64
10855,note_off,115,0,1,,,,,,,,10,,,,84,64
10860,note_on,0,0,1,,,,,,,,10,,,,82,75
10860,note_on,5,0,1,,,,,,,,10,,,,79,75
10860,note_on,40,0,11,,,,,,,,7,,,,41,75
10860,note_on,40,0,12,,,,,,,,8,,,,29,75
10860,note_on,40,0,7,,,,,,,,3,,,,41,92
10860,note_on,40,0,2,,,,,,,,10,,,,41,60
10860,note_on,40,0,8,,,,,,,,4,,,,29,92
10940,note_off,80,0,8,,,,,,,,4,,,,29,64
10940,note_off,80,0,7,,,,,,,,3,,,,41,64
10940,note_off,80,0,11,,,,,,,,7,,,,41,64
10940,note_off,80,0,2,,,,,,,,10,,,,41,64
10940,note_off,80,0,12,,,,,,,,8,,,,29,64
10975,note_off,115,0,1,,,,,,,,10,,,,82,64
10975,note_off,0,0,1,,,,,,,,10,,,,79,64
11010,note_on,0,0,5,,,,,,,,1,,,,81,60
11010,note_on,70,0,8,,,,,,,,4,,,,41,45
11010,note_on,0,0,9,,,,,,,,5,,,,81,45
11010,note_on,190,0,10,,,,,,,,6,,,,72,45
11010,note_on,70,0,11,,,,,,,,7,,,,53,45
11010,note_on,190,0,6,,,,,,,,2,,,,72,45
11010,note_on,350,0,13,,,,,,,,11,,,,41,45
11010,note_on,70,0,12,,,,,,,,8,,,,41,45
11010,note_on,190,0,5,,,,,,,,1,,,,77,60
11010,note_on,190,0,9,,,,,,,,5,,,,77,45
11010,note_on,70,0,7,,,,,,,,3,,,,53,45
11245,note_off,235,0,8,,,,,,,,4,,,,41,64
11245,note_off,235,0,5,,,,,,,,1,,,,81,64
11245,note_off,0,0,5,,,,,,,,1,,,,77,64
11245,note_off,235,0,10,,,,,,,,6,,,,72,64
11245,note_off,235,0,6,,,,,,,,2,,,,72,64
11245,note_off,235,0,12,,,,,,,,8,,,,41,64
11245,note_off,235,0,11,,,,,,,,7,,,,53,64
11245,note_off,0,0,9,,,,,,,,5,,,,77,64
11245,note_off,235,0,9,,,,,,,,5,,,,81,64
11245,note_off,235,0,7,,,,,,,,3,,,,53,64
11250,note_on,5,0,11,,,,,,,,7,,,,53,45
11250,note_on,5,0,12,,,,,,,,8,,,,41,45
11250,note_on,5,0,7,,,,,,,,3,,,,53,45
11250,note_on,0,0,5,,,,,,,,1,,,,81,60
11250,note_on,5,0,5,,,,,,,,1,,,,77,60
11250,note_on,5,0,6,,,,,,,,2,,,,72,45
11250,note_on,5,0,10,,,,,,,,6,,,,72,45
11250,note_on,5,0,8,,,,,,,,4,,,,41,45
11250,note_on,5,0,9,,,,,,,,5,,,,77,45
11250,note_on,0,0,9,,,,,,,,5,,,,81,45
11330,note_off,80,0,8,,,,,,,,4,,,,41,64
11330,note_off,80,0,10,,,,,,,,6,,,,72,64
11330,note_off,80,0,11,,,,,,,,7,,,,53,64
11330,note_off,80,0,5,,,,,,,,1,,,,81,64
11330,note_off,0,0,5,,,,,,,,1,,,,77,64
11330,note_off,80,0,7,,,,,,,,3,,,,53,64
11330,note_off,80,0,9,,,,,,,,5,,,,81,64
11330,note_off,80,0,12,,,,,,,,8,,,,41,64
11330,note_off,80,0,6,,,,,,,,2,,,,72,64
11330,note_off,0,0,9,,,,,,,,5,,,,77,64
11370,note_on,40,0,7,,,,,,,,3,,,,53,45
11370,note_on,40,0,6,,,,,,,,2,,,,72,45
11370,note_on,40,0,10,,,,,,,,6,,,,72,45
11370,note_on,0,0,5,,,,,,,,1,,,,81,60
11370,note_on,40,0,11,,,,,,,,7,,,,53,45
11370,note_on,40,0,5,,,,,,,,1,,,,77,60
11370,note_on,40,0,8,,,,,,,,4,,,,41,45
11370,note_on,40,0,12,,,,,,,,8,,,,41,45
11370,note_on,0,0,9,,,,,,,,5,,,,81,45
11370,note_on,40,0,9,,,,,,,,5,,,,77,45
11410,note_off,400,0,13,,,,,,,,11,,,,41,64
11450,note_off,0,0,5,,,,,,,,1,,,,77,64
11450,note_off,80,0,8,,,,,,,,4,,,,41,64
11450,note_off,80,0,7,,,,,,,,3,,,,53,64
11450,note_off,80,0,12,,,,,,,,8,,,,41,64
11450,note_off,80,0,5,,,,,,,,1,,,,81,64
11450,note_off,80,0,6,,,,,,,,2,,,,72,64
11450,note_off,0,0,9,,,,,,,,5,,,,77,64
11450,note_off,80,0,9,,,,,,,,5,,,,81,64
11450,note_off,80,0,11,,,,,,,,7,,,,53,64
11450,note_off,80,0,10,,,,,,,,6,,,,72,64
11490,note_on,40,0,9,,,,,,,,5,,,,77,45
11490,note_on,0,0,5,,,,,,,,1,,,,81,60
11490,note_on,40,0,8,,,,,,,,4,,,,41,45
11490,note_on,0,0,9,,,,,,,,5,,,,81,45
11490,note_on,40,0,6,,,,,,,,2,,,,72,45
11490,note_on,40,0,11,,,,,,,,7,,,,53,45
11490,note_on,40,0,7,,,,,,,,3,,,,53,45
11490,note_on,40,0,10,,,,,,,,6,,,,72,45
11490,note_on,40,0,12,,,,,,,,8,,,,41,45
11490,note_on,40,0,5,,,,,,,,1,,,,77,60
11570,note_off,80,0,6,,,,,,,,2,,,,72,64
11570,note_off,80,0,5,,,,,,,,1,,,,81,64
11570,note_off,80,0,10,,,,,,,,6,,,,72,64
11570,note_off,80,0,8,,,,,,,,4,,,,41,64
11570,note_off,80,0,12,,,,,,,,8,,,,41,64
11570,note_off,0,0,9,,,,,,,,5,,,,77,64
11570,note_off,80,0,9,,,,,,,,5,,,,81,64
11570,note_off,0,0,5,,,,,,,,1,,,,77,64
11570,note_off,80,0,7,,,,,,,,3,,,,53,64
11570,note_off,80,0,11,,,,,,,,7,,,,53,64
11610,note_on,0,0,9,,,,,,,,5,,,,82,45
11610,note_on,40,0,7,,,,,,,,3,,,,48,45
11610,note_on,0,0,5,,,,,,,,1,,,,82,60
11610,note_on,40,0,10,,,,,,,,6,,,,64,45
11610,note_on,40,0,11,,,,,,,,7,,,,48,45
11610,note_on,40,0,12,,,,,,,,8,,,,36,45
11610,note_on,40,0,8,,,,,,,,4,,,,36,45
11610,note_on,40,0,6,,,,,,,,2,,,,64,45
11610,note_on,40,0,9,,,,,,,,5,,,,79,45
11610,note_on,40,0,5,,,,,,,,1,,,,79,60
11690,note_off,80,0,9,,,,,,,,5,,,,82,64
11690,note_off,0,0,5,,,,,,,,1,,,,79,64
11690,note_off,80,0,5,,,,,,,,1,,,,82,64
11690,note_off,80,0,10,,,,,,,,6,,,,64,64
11690,note_off,0,0,9,,,,,,,,5,,,,79,64
11690,note_off,80,0,11,,,,,,,,7,,,,48,64
11690,note_off,80,0,8,,,,,,,,4,,,,36,64
11690,note_off,80,0,12,,,,,,,,8,,,,36,64
11690,note_off,80,0,7,,,,,,,,3,,,,48,64
11690,note_off,80,0,6,,,,,,,,2,,,,64,64
11730,note_on,40,0,11,,,,,,,,7,,,,53,45
11730,note_on,40,0,10,,,,,,,,6,,,,60,45
11730,note_on,40,0,5,,,,,,,,1,,,,81,60
11730,note_on,0,0,5,,,,,,,,1,,,,84,60
11730,note_on,40,0,12,,,,,,,,8,,,,41,45
11730,note_on,320,0,13,,,,,,,,11,,,,41,45
11730,note_on,40,0,8,,,,,,,,4,,,,41,45
11730,note_on,0,0,9,,,,,,,,5,,,,84,45
11730,note_on,40,0,9,,,,,,,,5,,,,81,45
11730,note_on,40,0,6,,,,,,,,2,,,,60,45
11730,note_on,40,0,7,,,,,,,,3,,,,53,45
11810,note_off,80,0,12,,,,,,,,8,,,,41,64
11810,note_off,0,0,9,,,,,,,,5,,,,81,64
11810,note_off,80,0,7,,,,,,,,3,,,,53,64
11810,note_off,80,0,11,,,,,,,,7,,,,53,64
11810,note_off,80,0,9,,,,,,,,5,,,,84,64
11810,note_off,80,0,8,,,,,,,,4,,,,41,64
11810,note_off,0,0,5,,,,,,,,1,,,,81,64
11810,note_off,80,0,5,,,,,,,,1,,,,84,64
11810,note_off,80,0,6,,,,,,,,2,,,,60,64
11810,note_off,80,0,10,,,,,,,,6,,,,60,64
11970,note_on,160,0,12,,,,,,,,8,,,,29,45
11970,note_on,160,0,8,,,,,,,,4,,,,29,45
11970,note_on,160,0,7,,,,,,,,3,,,,41,45
11970,note_on,160,0,9,,,,,,,,5,,,,77,45
11970,note_on,0,0,9,,,,,,,,5,,,,81,45
11970,note_on,160,0,10,,,,,,,,6,,,,60,45
11970,note_on,160,0,5,,,,,,,,1,,,,77,60
11970,note_on,160,0,11,,,,,,,,7,,,,41,45
11970,note_on,1030,0,2,,,,,,,,10,,,,41,30
11970,note_on,0,0,1,,,,,,,,10,,,,69,45
11970,note_on,995,0,1,,,,,,,,10,,,,65,45
11970,note_on,0,0,5,,,,,,,,1,,,,81,60
11970,note_on,160,0,6,,,,,,,,2,,,,60,45
12050,note_off,80,0,2,,,,,,,,10,,,,41,64
12050,note_off,80,0,7,,,,,,,,3,,,,41,64
12050,note_off,80,0,11,,,,,,,,7,,,,41,64
12050,note_off,80,0,6,,,,,,,,2,,,,60,64
12050,note_off,80,0,5,,,,,,,,1,,,,81,64
12050,note_off,0,0,9,,,,,,,,5,,,,77,64
12050,note_off,80,0,12,,,,,,,,8,,,,29,64
12050,note_off,80,0,9,,,,,,,,5,,,,81,64
12050,note_off,0,0,5,,,,,,,,1,,,,77,64
12050,note_off,80,0,10,,,,,,,,6,,,,60,64
12050,note_off,80,0,8,,,,,,,,4,,,,29,64
12085,note_off,0,0,1,,,,,,,,10,,,,65,64
12085,note_off,115,0,1,,,,,,,,10,,,,69,64
12090,note_on,0,0,1,,,,,,,,10,,,,70,45
12090,note_on,5,0,1,,,,,,,,10,,,,67,45
12090,note_on,40,0,7,,,,,,,,3,,,,41,45
12090,note_on,40,0,12,,,,,,,,8,,,,29,45
12090,note_on,40,0,2,,,,,,,,10,,,,41,30
12090,note_on,40,0,8,,,,,,,,4,,,,29,45
12090,note_on,40,0,11,,,,,,,,7,,,,41,45
12130,note_off,400,0,13,,,,,,,,11,,,,41,64
12170,note_off,80,0,12,,,,,,,,8,,,,29,64
12170,note_off,80,0,8,,,,,,,,4,,,,29,64
12170,note_off,80,0,7,,,,,,,,3,,,,41,64
12170,note_off,80,0,2,,,,,,,,10,,,,41,64
12170,note_off,80,0,11,,,,,,,,7,,,,41,64
12205,note_off,0,0,1,,,,,,,,10,,,,67,64
12205,note_off,115,0,1,,,,,,,,10,,,,70,64
12210,note_on,40,0,7,,,,,,,,3,,,,41,45
12210,note_on,0,0,9,,,,,,,,5,,,,81,45
12210,note_on,5,0,1,,,,,,,,10,,,,69,45
12210,note_on,40,0,12,,,,,,,,8,,,,29,45
12210,note_on,160,0,10,,,,,,,,6,,,,60,45
12210,note_on,0,0,5,,,,,,,,1,,,,81,60
12210,note_on,160,0,9,,,,,,,,5,,,,77,45
12210,note_on,160,0,6,,,,,,,,2,,,,60,45
12210,note_on,160,0,5,,,,,,,,1,,,,77,60
12210,note_on,40,0,2,,,,,,,,10,,,,41,30
12210,note_on,0,0,1,,,,,,,,10,,,,72,45
12210,note_on,40,0,11,,,,,,,,7,,,,41,45
12210,note_on,40,0,8,,,,,,,,4,,,,29,45
12290,note_off,80,0,2,,,,,,,,10,,,,41,64
12290,note_off,80,0,10,,,,,,,,6,,,,60,64
12290,note_off,80,0,5,,,,,,,,1,,,,81,64
12290,note_off,0,0,5,,,,,,,,1,,,,77,64
12290,note_off,80,0,11,,,,,,,,7,,,,41,64
12290,note_off,80,0,8,,,,,,,,4,,,,29,64
12290,note_off,0,0,9,,,,,,,,5,,,,77,64
12290,note_off,80,0,9,,,,,,,,5,,,,81,64
12290,note_off,80,0,7,,,,,,,,3,,,,41,64
12290,note_off,80,0,6,,,,,,,,2,,,,60,64
12290,note_off,80,0,12,,,,,,,,8,,,,29,64
12325,note_off,0,0,1,,,,,,,,10,,,,69,64
12325,note_off,115,0,1,,,,,,,,10,,,,72,64
12330,note_on,40,0,8,,,,,,,,4,,,,29,45
12330,note_on,40,0,12,,,,,,,,8,,,,29,45
12330,note_on,40,0,11,,,,,,,,7,,,,41,45
12330,note_on,40,0,7,,,,,,,,3,,,,41,45
12330,note_on,40,0,2,,,,,,,,10,,,,41,30
12330,note_on,5,0,1,,,,,,,,10,,,,67,45
12330,note_on,0,0,1,,,,,,,,10,,,,70,45
12410,note_off,80,0,12,,,,,,,,8,,,,29,64
12410,note_off,80,0,7,,,,,,,,3,,,,41,64
12410,note_off,80,0,2,,,,,,,,10,,,,41,64
12410,note_off,80,0,11,,,,,,,,7,,,,41,64
12410,note_off,80,0,8,,,,,,,,4,,,,29,64
12445,note_off,0,0,1,,,,,,,,10,,,,67,64
12445,note_off,115,0,1,,,,,,,,10,,,,70,64
12480,note_on,70,0,12,,,,,,,,8,,,,41,75
12480,note_on,70,0,8,,,,,,,,4,,,,41,92
12480,note_on,70,0,7,,,,,,,,3,,,,53,92
12480,note_on,190,0,9,,,,,,,,5,,,,65,75
12480,note_on,70,0,11,,,,,,,,7,,,,53,75
12480,note_on,190,0,6,,,,,,,,2,,,,60,92
12480,note_on,0,0,9,,,,,,,,5,,,,69,75
12480,note_on,350,0,13,,,,,,,,11,,,,41,75
12480,note_on,190,0,5,,,,,,,,1,,,,65,108
12480,note_on,0,0,5,,,,,,,,1,,,,69,108
12480,note_on,190,0,10,,,,,,,,6,,,,60,75
12715,note_off,235,0,11,,,,,,,,7,,,,53,64
12715,note_off,235,0,7,,,,,,,,3,,,,53,64
12715,note_off,235,0,6,,,,,,,,2,,,,60,64
12715,note_off,235,0,5,,,,,,,,1,,,,69,64
12715,note_off,0,0,5,,,,,,,,1,,,,65,64
12715,note_off,235,0,12,,,,,,,,8,,,,41,64
12715,note_off,0,0,9,,,,,,,,5,,,,65,64
12715,note_off,235,0,8,,,,,,,,4,,,,41,64
12715,note_off,235,0,9,,,,,,,,5,,,,69,64
12715,note_off,235,0,10,,,,,,,,6,,,,60,64
12720,note_on,5,0,6,,,,,,,,2,,,,60,92
12720,note_on,5,0,12,,,,,,,,8,,,,41,75
12720,note_on,0,0,9,,,,,,,,5,,,,69,75
12720,note_on,5,0,5,,,,,,,,1,,,,65,108
12720,note_on,5,0,11,,,,,,,,7,,,,53,75
12720,note_on,5,0,8,,,,,,,,4,,,,41,92
12720,note_on,5,0,10,,,,,,,,6,,,,60,75
12720,note_on,0,0,5,,,,,,,,1,,,,69,108
12720,note_on,5,0,9,,,,,,,,5,,,,65,75
12720,note_on,5,0,7,,,,,,,,3,,,,53,92
12800,note_off,80,0,10,,,,,,,,6,,,,60,64
12800,note_off,80,0,5,,,,,,,,1,,,,69,64
12800,note_off,0,0,5,,,,,,,,1,,,,65,64
12800,note_off,80,0,6,,,,,,,,2,,,,60,64
12800,note_off,80,0,9,,,,,,,,5,,,,69,64
12800,note_off,80,0,11,,,,,,,,7,,,,53,64
12800,note_off,80,0,7,,,,,,,,3,,,,53,64
12800,note_off,80,0,12,,,,,,,,8,,,,41,64
12800,note_off,0,0,9,,,,,,,,5,,,,65,64
12800,note_off,80,0,8,,,,,,,,4,,,,41,64
12840,note_on,40,0,6,,,,,,,,2,,,,60,92
12840,note_on,40,0,7,,,,,,,,3,,,,53,92
12840,note_on,40,0,9,,,,,,,,5,,,,65,75
12840,note_on,40,0,10,,,,,,,,6,,,,60,75
12840,note_on,40,0,11,,,,,,,,7,,,,53,75
12840,note_on,40,0,8,,,,,,,,4,,,,41,92
12840,note_on,0,0,5,,,,,,,,1,,,,69,108
12840,note_on,40,0,5,,,,,,,,1,,,,65,108
12840,note_on,40,0,12,,,,,,,,8,,,,41,75
12840,note_on,0,0,9,,,,,,,,5,,,,69,75
12880,note_off,400,0,13,,,,,,,,11,,,,41,64
12920,note_off,80,0,6,,,,,,,,2,,,,60,64
12920,note_off,80,0,8,,,,,,,,4,,,,41,64
12920,note_off,0,0,9,,,,,,,,5,,,,65,64
12920,note_off,80,0,7,,,,,,,,3,,,,53,64
12920,note_off,80,0,11,,,,,,,,7,,,,53,64
12920,note_off,0,0,5,,,,,,,,1,,,,65,64
12920,note_off,80,0,5,,,,,,,,1,,,,69,64
12920,note_off,80,0,10,,,,,,,,6,,,,60,64
12920,note_off,80,0,12,,,,,,,,8,,,,41,64
12920,note_off,80,0,9,,,,,,,,5,,,,69,64
12960,note_on,40,0,9,,,,,,,,5,,,,65,75
12960,note_on,0,0,9,,,,,,,,5,,,,69,75
12960,note_on,40,0,5,,,,,,,,1,,,,65,108
12960,note_on,0,0,5,,,,,,,,1,,,,69,108
12960,note_on,40,0,7,,,,,,,,3,,,,53,92
12960,note_on,40,0,8,,,,,,,,4,,,,41,92
12960,note_on,40,0,12,,,,,,,,8,,,,41,75
12960,note_on,40,0,11,,,,,,,,7,,,,53,75
12960,note_on,40,0,6,,,,,,,,2,,,,60,92
12960,note_on,40,0,10,,,,,,,,6,,,,60,75
13040,note_off,80,0,8,,,,,,,,4,,,,41,64
13040,note_off,0,0,9,,,,,,,,5,,,,65,64
13040,note_off,80,0,9,,,,,,,,5,,,,69,64
13040,note_off,80,0,7,,,,,,,,3,,,,53,64
13040,note_off,80,0,11,,,,,,,,7,,,,53,64
13040,note_off,80,0,10,,,,,,,,6,,,,60,64
13040,note_off,80,0,6,,,,,,,,2,,,,60,64
13040,note_off,0,0,5,,,,,,,,1,,,,65,64
13040,note_off,80,0,12,,,,,,,,8,,,,41,64
13040,note_off,80,0,5,,,,,,,,1,,,,69,64
13080,note_on,40,0,7,,,,,,,,3,,,,48,92
13080,note_on,40,0,12,,,,,,,,8,,,,36,75
13080,note_on,40,0,6,,,,,,,,2,,,,64,92
13080,note_on,40,0,11,,,,,,,,7,,,,48,75
13080,note_on,40,0,9,,,,,,,,5,,,,67,75
13080,note_on,0,0,9,,,,,,,,5,,,,70,75
13080,note_on,0,0,5,,,,,,,,1,,,,70,108
13080,note_on,40,0,8,,,,,,,,4,,,,36,92
13080,note_on,40,0,10,,,,,,,,6,,,,64,75
13080,note_on,40,0,5,,,,,,,,1,,,,67,108
13160,note_off,80,0,10,,,,,,,,6,,,,64,64
13160,note_off,80,0,8,,,,,,,,4,,,,36,64
13160,note_off,80,0,12,,,,,,,,8,,,,36,64
13160,note_off,80,0,9,,,,,,,,5,,,,70,64
13160,note_off,80,0,11,,,,,,,,7,,,,48,64
13160,note_off,80,0,5,,,,,,,,1,,,,70,64
13160,note_off,0,0,9,,,,,,,,5,,,,67,64
13160,note_off,0,0,5,,,,,,,,1,,,,67,64
13160,note_off,80,0,7,,,,,,,,3,,,,48,64
13160,note_off,80,0,6,,,,,,,,2,,,,64,64
13200,note_on,40,0,6,,,,,,,,2,,,,60,92
13200,note_on,40,0,5,,,,,,,,1,,,,69,108
13200,note_on,0,0,5,,,,,,,,1,,,,72,108
13200,note_on,40,0,10,,,,,,,,6,,,,60,75
13200,note_on,40,0,7,,,,,,,,3,,,,53,92
13200,note_on,40,0,11,,,,,,,,7,,,,53,75
13200,note_on,40,0,8,,,,,,,,4,,,,41,92
13200,note_on,40,0,9,,,,,,,,5,,,,69,75
13200,note_on,0,0,9,,,,,,,,5,,,,72,75
13200,note_on,40,0,12,,,,,,,,8,,,,41,75
13200,note_on,320,0,13,,,,,,,,11,,,,41,75
13280,note_off,0,0,5,,,,,,,,1,,,,69,64
13280,note_off,80,0,11,,,,,,,,7,,,,53,64
13280,note_off,80,0,12,,,,,,,,8,,,,41,64
13280,note_off,80,0,7,,,,,,,,3,,,,53,64
13280,note_off,0,0,9,,,,,,,,5,,,,69,64
13280,note_off,80,0,9,,,,,,,,5,,,,72,64
13280,note_off,80,0,5,,,,,,,,1,,,,72,64
13280,note_off,80,0,6,,,,,,,,2,,,,60,64
13280,note_off,80,0,8,,,,,,,,4,,,,41,64
13280,note_off,80,0,10,,,,,,,,6,,,,60,64
13440,note_on,160,0,12,,,,,,,,8,,,,29,75
13440,note_on,995,0,1,,,,,,,,10,,,,65,75
13440,note_on,0,0,1,,,,,,,,10,,,,69,75
13440,note_on,160,0,8,,,,,,,,4,,,,29,92
13440,note_on,160,0,6,,,,,,,,2,,,,60,92
13440,note_on,160,0,11,,,,,,,,7,,,,41,75
13440,note_on,0,0,5,,,,,,,,1,,,,69,108
13440,note_on,160,0,5,,,,,,,,1,,,,65,108
13440,note_on,0,0,9,,,,,,,,5,,,,69,75
13440,note_on,160,0,9,,,,,,,,5,,,,65,75
13440,note_on,160,0,7,,,,,,,,3,,,,41,92
13440,note_on,160,0,10,,,,,,,,6,,,,60,75
13440,note_on,1030,0,2,,,,,,,,10,,,,41,60
13520,note_off,80,0,11,,,,,,,,7,,,,41,64
13520,note_off,80,0,7,,,,,,,,3,,,,41,64
13520,note_off,80,0,6,,,,,,,,2,,,,60,64
13520,note_off,80,0,5,,,,,,,,1,,,,69,64
13520,note_off,0,0,5,,,,,,,,1,,,,65,64
13520,note_off,80,0,10,,,,,,,,6,,,,60,64
13520,note_off,80,0,2,,,,,,,,10,,,,41,64
13520,note_off,0,0,9,,,,,,,,5,,,,65,64
13520,note_off,80,0,9,,,,,,,,5,,,,69,64
13520,note_off,80,0,12,,,,,,,,8,,,,29,64
13520,note_off,80,0,8,,,,,,,,4,,,,29,64
13560,note_on,40,0,2,,,,,,,,10,,,,41,60
13560,note_on,40,0,11,,,,,,,,7,,,,41,75
13560,note_on,40,0,7,,,,,,,,3,,,,41,92
13560,note_on,40,0,8,,,,,,,,4,,,,29,92
13560,note_on,40,0,12,,,,,,,,8,,,,29,75
13560,note_on,0,0,1,,,,,,,,10,,,,70,75
13560,note_off,120,0,1,,,,,,,,10,,,,69,64
13560,note_off,0,0,1,,,,,,,,10,,,,65,64
13560,note_on,0,0,1,,,,,,,,10,,,,67,75
13600,note_off,400,0,13,,,,,,,,11,,,,41,64
13640,note_off,80,0,11,,,,,,,,7,,,,41,64
13640,note_off,80,0,2,,,,,,,,10,,,,41,64
13640,note_off,80,0,7,,,,,,,,3,,,,41,64
13640,note_off,80,0,8,,,,,,,,4,,,,29,64
13640,note_off,80,0,12,,,,,,,,8,,,,29,64
13680,note_on,160,0,10,,,,,,,,6,,,,60,75
13680,note_on,40,0,8,,,,,,,,4,,,,29,92
13680,note_on,0,0,1,,,,,,,,10,,,,69,75
13680,note_on,40,0,11,,,,,,,,7,,,,41,75
13680,note_on,40,0,7,,,,,,,,3,,,,41,92
13680,note_on,0,0,1,,,,,,,,10,,,,72,75
13680,note_on,0,0,9,,,,,,,,5,,,,69,75
13680,note_on,40,0,2,,,,,,,,10,,,,41,60
13680,note_on,160,0,6,,,,,,,,2,,,,60,92
13680,note_on,40,0,12,,,,,,,,8,,,,29,75
13680,note_off,0,0,1,,,,,,,,10,,,,67,64
13680,note_on,160,0,5,,,,,,,,1,,,,65,108
13680,note_on,0,0,5,,,,,,,,1,,,,69,108
13680,note_on,160,0,9,,,,,,,,5,,,,65,75
13680,note_off,120,0,1,,,,,,,,10,,,,70,64
13760,note_off,80,0,7,,,,,,,,3,,,,41,64
13760,note_off,80,0,11,,,,,,,,7,,,,41,64
13760,note_off,80,0,10,,,,,,,,6,,,,60,64
13760,note_off,0,0,5,,,,,,,,1,,,,65,64
13760,note_off,80,0,12,,,,,,,,8,,,,29,64
13760,note_off,80,0,2,,,,,,,,10,,,,41,64
13760,note_off,80,0,5,,,,,,,,1,,,,69,64
13760,note_off,80,0,6,,,,,,,,2,,,,60,64
13760,note_off,0,0,9,,,,,,,,5,,,,65,64
13760,note_off,80,0,9,,,,,,,,5,,,,69,64
13760,note_off,80,0,8,,,,,,,,4,,,,29,64
13800,note_on,40,0,12,,,,,,,,8,,,,29,75
13800,note_on,40,0,7,,,,,,,,3,,,,41,92
13800,note_on,40,0,11,,,,,,,,7,,,,41,75
13800,note_on,0,0,1,,,,,,,,10,,,,70,75
13800,note_on,0,0,1,,,,,,,,10,,,,67,75
13800,note_off,0,0,1,,,,,,,,10,,,,69,64
13800,note_off,120,0,1,,,,,,,,10,,,,72,64
13800,note_on,40,0,8,,,,,,,,4,,,,29,92
13800,note_on,40,0,2,,,,,,,,10,,,,41,60
13880,note_off,80,0,11,,,,,,,,7,,,,41,64
13880,note_off,80,0,8,,,,,,,,4,,,,29,64
13880,note_off,80,0,2,,,,,,,,10,,,,41,64
13880,note_off,80,0,12,,,,,,,,8,,,,29,64
13880,note_off,80,0,7,,,,,,,,3,,,,41,64
13915,note_off,115,0,1,,,,,,,,10,,,,70,64
13915,note_off,0,0,1,,,,,,,,10,,,,67,64
13950,note_on,70,0,11,,,,,,,,7,,,,53,45
13950,note_on,0,0,5,,,,,,,,1,,,,69,60
13950,note_on,190,0,5,,,,,,,,1,,,,65,60
13950,note_on,190,0,10,,,,,,,,6,,,,60,45
13950,note_on,70,0,7,,,,,,,,3,,,,53,45
13950,note_on,70,0,12,,,,,,,,8,,,,41,45
13950,note_on,0,0,9,,,,,,,,5,,,,69,45
13950,note_on,190,0,9,,,,,,,,5,,,,65,45
13950,note_on,350,0,13,,,,,,,,11,,,,41,45
13950,note_on,190,0,6,,,,,,,,2,,,,60,45
13950,note_on,70,0,8,,,,,,,,4,,,,41,45
14185,note_off,235,0,6,,,,,,,,2,,,,60,64
14185,note_off,235,0,11,,,,,,,,7,,,,53,64
14185,note_off,235,0,12,,,,,,,,8,,,,41,64
14185,note_off,0,0,5,,,,,,,,1,,,,65,64
14185,note_off,235,0,8,,,,,,,,4,,,,41,64
14185,note_off,235,0,5,,,,,,,,1,,,,69,64
14185,note_off,235,0,10,,,,,,,,6,,,,60,64
14185,note_off,235,0,9,,,,,,,,5,,,,69,64
14185,note_off,0,0,9,,,,,,,,5,,,,65,64
14185,note_off,235,0,7,,,,,,,,3,,,,53,64
14190,note_on,5,0,11,,,,,,,,7,,,,53,45
14190,note_on,5,0,9,,,,,,,,5,,,,65,45
14190,note_on,5,0,5,,,,,,,,1,,,,65,60
14190,note_on,0,0,5,,,,,,,,1,,,,69,60
14190,note_on,5,0,6,,,,,,,,2,,,,60,45
14190,note_on,5,0,10,,,,,,,,6,,,,60,45
14190,note_on,0,0,9,,,,,,,,5,,,,69,45
14190,note_on,5,0,8,,,,,,,,4,,,,41,45
14190,note_on,5,0,7,,,,,,,,3,,,,53,45
14190,note_on,5,0,12,,,,,,,,8,,,,41,45
14270,note_off,80,0,6,,,,,,,,2,,,,60,64
14270,note_off,80,0,10,,,,,,,,6,,,,60,64
14270,note_off,80,0,7,,,,,,,,3,,,,53,64
14270,note_off,80,0,5,,,,,,,,1,,,,69,64
14270,note_off,80,0,9,,,,,,,,5,,,,69,64
14270,note_off,0,0,9,,,,,,,,5,,,,65,64
14270,note_off,80,0,8,,,,,,,,4,,,,41,64
14270,note_off,80,0,12,,,,,,,,8,,,,41,64
14270,note_off,80,0,11,,,,,,,,7,,,,53,64
14270,note_off,0,0,5,,,,,,,,1,,,,65,64
14310,note_on,40,0,10,,,,,,,,6,,,,60,45
14310,note_on,40,0,9,,,,,,,,5,,,,65,45
14310,note_on,0,0,9,,,,,,,,5,,,,69,45
14310,note_on,40,0,8,,,,,,,,4,,,,41,45
14310,note_on,40,0,12,,,,,,,,8,,,,41,45
14310,note_on,40,0,7,,,,,,,,3,,,,53,45
14310,note_on,40,0,11,,,,,,,,7,,,,53,45
14310,note_on,40,0,6,,,,,,,,2,,,,60,45
14310,note_on,0,0,5,,,,,,,,1,,,,69,60
14310,note_on,40,0,5,,,,,,,,1,,,,65,60
14350,note_off,400,0,13,,,,,,,,11,,,,41,64
14390,note_off,80,0,9,,,,,,,,5,,,,69,64
14390,note_off,0,0,9,,,,,,,,5,,,,65,64
14390,note_off,80,0,10,,,,,,,,6,,,,60,64
14390,note_off,80,0,5,,,,,,,,1,,,,69,64
14390,note_off,0,0,5,,,,,,,,1,,,,65,64
14390,note_off,80,0,11,,,,,,,,7,,,,53,64
14390,note_off,80,0,6,,,,,,,,2,,,,60,64
14390,note_off,80,0,8,,,,,,,,4,,,,41,64
14390,note_off,80,0,7,,,,,,,,3,,,,53,64
14390,note_off,80,0,12,,,,,,,,8,,,,41,64
14430,note_on,40,0,8,,,,,,,,4,,,,41,45
14430,note_on,40,0,5,,,,,,,,1,,,,65,60
14430,note_on,0,0,5,,,,,,,,1,,,,69,60
14430,note_on,40,0,12,,,,,,,,8,,,,41,45
14430,note_on,40,0,10,,,,,,,,6,,,,60,45
14430,note_on,40,0,9,,,,,,,,5,,,,65,45
14430,note_on,0,0,9,,,,,,,,5,,,,69,45
14430,note_on,40,0,11,,,,,,,,7,,,,53,45
14430,note_on,40,0,6,,,,,,,,2,,,,60,45
14430,note_on,40,0,7,,,,,,,,3,,,,53,45
14510,note_off,80,0,12,,,,,,,,8,,,,41,64
14510,note_off,80,0,11,,,,,,,,7,,,,53,64
14510,note_off,80,0,5,,,,,,,,1,,,,69,64
14510,note_off,0,0,5,,,,,,,,1,,,,65,64
14510,note_off,0,0,9,,,,,,,,5,,,,65,64
14510,note_off,80,0,6,,,,,,,,2,,,,60,64
14510,note_off,80,0,7,,,,,,,,3,,,,53,64
14510,note_off,80,0,10,,,,,,,,6,,,,60,64
14510,note_off,80,0,9,,,,,,,,5,,,,69,64
14510,note_off,80,0,8,,,,,,,,4,,,,41,64
14550,note_on,40,0,5,,,,,,,,1,,,,67,60
14550,note_on,40,0,7,,,,,,,,3,,,,48,45
14550,note_on,0,0,9,,,,,,,,5,,,,70,45
14550,note_on,40,0,9,,,,,,,,5,,,,67,45
14550,note_on,40,0,8,,,,,,,,4,,,,36,45
14550,note_on,0,0,5,,,,,,,,1,,,,70,60
14550,note_on,40,0,6,,,,,,,,2,,,,64,45
14550,note_on,40,0,10,,,,,,,,6,,,,64,45
14550,note_on,40,0,12,,,,,,,,8,,,,36,45
14550,note_on,40,0,11,,,,,,,,7,,,,48,45
14630,note_off,80,0,8,,,,,,,,4,,,,36,64
14630,note_off,0,0,9,,,,,,,,5,,,,67,64
14630,note_off,80,0,9,,,,,,,,5,,,,70,64
14630,note_off,80,0,6,,,,,,,,2,,,,64,64
14630,note_off,0,0,5,,,,,,,,1,,,,67,64
14630,note_off,80,0,12,,,,,,,,8,,,,36,64
14630,note_off,80,0,11,,,,,,,,7,,,,48,64
14630,note_off,80,0,10,,,,,,,,6,,,,64,64
14630,note_off,80,0,7,,,,,,,,3,,,,48,64
14630,note_off,80,0,5,,,,,,,,1,,,,70,64
14670,note_on,40,0,6,,,,,,,,2,,,,60,45
14670,note_on,40,0,10,,,,,,,,6,,,,60,45
14670,note_on,40,0,8,,,,,,,,4,,,,41,45
14670,note_on,320,0,13,,,,,,,,11,,,,41,45
14670,note_on,0,0,9,,,,,,,,5,,,,72,45
14670,note_on,40,0,9,,,,,,,,5,,,,69,45
14670,note_on,40,0,7,,,,,,,,3,,,,53,45
14670,note_on,40,0,12,,,,,,,,8,,,,41,45
14670,note_on,0,0,5,,,,,,,,1,,,,72,60
14670,note_on,40,0,5,,,,,,,,1,,,,69,60
14670,note_on,40,0,11,,,,,,,,7,,,,53,45
14750,note_off,80,0,9,,,,,,,,5,,,,72,64
14750,note_off,0,0,9,,,,,,,,5,,,,69,64
14750,note_off,80,0,12,,,,,,,,8,,,,41,64
14750,note_off,80,0,11,,,,,,,,7,,,,53,64
14750,note_off,80,0,7,,,,,,,,3,,,,53,64
14750,note_off,80,0,6,,,,,,,,2,,,,60,64
14750,note_off,80,0,8,,,,,,,,4,,,,41,64
14750,note_off,80,0,10,,,,,,,,6,,,,60,64
14750,note_off,80,0,5,,,,,,,,1,,,,72,64
14750,note_off,0,0,5,,,,,,,,1,,,,69,64
14910,note_on,160,0,6,,,,,,,,2,,,,60,45
14910,note_on,160,0,7,,,,,,,,3,,,,41,45
14910,note_on,0,0,9,,,,,,,,5,,,,69,45
14910,note_on,160,0,10,,,,,,,,6,,,,60,45
14910,note_on,160,0,11,,,,,,,,7,,,,41,45
14910,note_on,160,0,8,,,,,,,,4,,,,29,45
14910,note_on,160,0,9,,,,,,,,5,,,,65,45
14910,note_on,1030,0,2,,,,,,,,10,,,,41,30
14910,note_on,160,0,5,,,,,,,,1,,,,65,60
14910,note_on,0,0,5,,,,,,,,1,,,,69,60
14910,note_on,0,0,1,,,,,,,,10,,,,57,45
14910,note_on,995,0,1,,,,,,,,10,,,,53,45
14910,note_on,160,0,12,,,,,,,,8,,,,29,45
14990,note_off,80,0,11,,,,,,,,7,,,,41,64
14990,note_off,80,0,5,,,,,,,,1,,,,69,64
14990,note_off,80,0,6,,,,,,,,2,,,,60,64
14990,note_off,80,0,10,,,,,,,,6,,,,60,64
14990,note_off,0,0,5,,,,,,,,1,,,,65,64
14990,note_off,80,0,8,,,,,,,,4,,,,29,64
14990,note_off,80,0,7,,,,,,,,3,,,,41,64
14990,note_off,80,0,2,,,,,,,,10,,,,41,64
14990,note_off,80,0,9,,,,,,,,5,,,,69,64
14990,note_off,80,0,12,,,,,,,,8,,,,29,64
14990,note_off,0,0,9,,,,,,,,5,,,,65,64
15030,note_on,40,0,11,,,,,,,,7,,,,41,45
15030,note_on,40,0,7,,,,,,,,3,,,,41,45
15030,note_on,40,0,12,,,,,,,,8,,,,29,45
15030,note_on,40,0,2,,,,,,,,10,,,,41,30
15030,note_off,120,0,1,,,,,,,,10,,,,57,64
15030,note_on,40,0,8,,,,,,,,4,,,,29,45
15030,note_on,0,0,1,,,,,,,,10,,,,55,45
15030,note_on,0,0,1,,,,,,,,10,,,,58,45
15030,note_off,0,0,1,,,,,,,,10,,,,53,64
15070,note_off,400,0,13,,,,,,,,11,,,,41,64
15110,note_off,80,0,8,,,,,,,,4,,,,29,64
15110,note_off,80,0,12,,,,,,,,8,,,,29,64
15110,note_off,80,0,2,,,,,,,,10,,,,41,64
15110,note_off,80,0,7,,,,,,,,3,,,,41,64
15110,note_off,80,0,11,,,,,,,,7,,,,41,64
15150,note_on,40,0,12,,,,,,,,8,,,,29,45
15150,note_on,40,0,8,,,,,,,,4,,,,29,45
15150,note_off,0,0,1,,,,,,,,10,,,,55,64
15150,note_off,120,0,1,,,,,,,,10,,,,58,64
15150,note_on,0,0,5,,,,,,,,1,,,,69,60
15150,note_on,160,0,5,,,,,,,,1,,,,65,60
15150,note_on,40,0,11,,,,,,,,7,,,,41,45
15150,note_on,0,0,1,,,,,,,,10,,,,60,45
15150,note_on,0,0,1,,,,,,,,10,,,,57,45
15150,note_on,160,0,9,,,,,,,,5,,,,65,45
15150,note_on,160,0,10,,,,,,,,6,,,,60,45
15150,note_on,40,0,2,,,,,,,,10,,,,41,30
15150,note_on,40,0,7,,,,,,,,3,,,,41,45
15150,note_on,160,0,6,,,,,,,,2,,,,60,45
15150,note_on,0,0,9,,,,,,,,5,,,,69,45
15230,note_off,80,0,2,,,,,,,,10,,,,41,64
15230,note_off,80,0,7,,,,,,,,3,,,,41,64
15230,note_off,80,0,5,,,,,,,,1,,,,69,64
15230,note_off,0,0,5,,,,,,,,1,,,,65,64
15230,note_off,80,0,10,,,,,,,,6,,,,60,64
15230,note_off,80,0,6,,,,,,,,2,,,,60,64
15230,note_off,80,0,8,,,,,,,,4,,,,29,64
15230,note_off,80,0,11,,,,,,,,7,,,,41,64
15230,note_off,80,0,9,,,,,,,,5,,,,69,64
15230,note_off,0,0,9,,,,,,,,5,,,,65,64
15230,note_off,80,0,12,,,,,,,,8,,,,29,64
15270,note_on,0,0,1,,,,,,,,10,,,,58,45
15270,note_on,40,0,8,,,,,,,,4,,,,29,45
15270,note_on,0,0,1,,,,,,,,10,,,,55,45
15270,note_off,0,0,1,,,,,,,,10,,,,57,64
15270,note_off,120,0,1,,,,,,,,10,,,,60,64
15270,note_on,40,0,2,,,,,,,,10,,,,41,30
15270,note_on,40,0,11,,,,,,,,7,,,,41,45
15270,note_on,40,0,7,,,,,,,,3,,,,41,45
15270,note_on,40,0,12,,,,,,,,8,,,,29,45
15350,note_off,80,0,11,,,,,,,,7,,,,41,64
15350,note_off,80,0,2,,,,,,,,10,,,,41,64
15350,note_off,80,0,8,,,,,,,,4,,,,29,64
15350,note_off,80,0,7,,,,,,,,3,,,,41,64
15350,note_off,80,0,12,,,,,,,,8,,,,29,64
15385,note_off,115,0,1,,,,,,,,10,,,,58,64
15385,note_off,0,0,1,,,,,,,,10,,,,55,64
15420,note_on,190,0,6,,,,,,,,2,,,,57,92
15420,note_on,70,0,12,,,,,,,,8,,,,29,75
15420,note_on,190,0,10,,,,,,,,6,,,,57,75
15420,note_on,350,0,13,,,,,,,,11,,,,41,75
15420,note_on,70,0,7,,,,,,,,3,,,,41,92
15420,note_on,190,0,9,,,,,,,,5,,,,65,75
15420,note_on,70,0,11,,,,,,,,7,,,,41,75
15420,note_on,190,0,5,,,,,,,,1,,,,65,108
15420,note_on,70,0,8,,,,,,,,4,,,,29,92
15595,note_off,175,0,5,,,,,,,,1,,,,65,64
15595,note_off,175,0,9,,,,,,,,5,,,,65,64
15600,note_on,5,0,9,,,,,,,,5,,,,72,75
15600,note_on,5,0,5,,,,,,,,1,,,,72,108
15640,note_off,40,0,9,,,,,,,,5,,,,72,64
15640,note_off,40,0,5,,,,,,,,1,,,,72,64
15655,note_off,235,0,8,,,,,,,,4,,,,29,64
15655,note_off,235,0,6,,,,,,,,2,,,,57,64
15655,note_off,235,0,10,,,,,,,,6,,,,57,64
15655,note_off,235,0,12,,,,,,,,8,,,,29,64
15655,note_off,235,0,7,,,,,,,,3,,,,41,64
15655,note_off,235,0,11,,,,,,,,7,,,,41,64
15660,note_on,5,0,7,,,,,,,,3,,,,53,92
15660,note_on,5,0,6,,,,,,,,2,,,,60,92
15660,note_on,5,0,10,,,,,,,,6,,,,60,75
15660,note_on,5,0,11,,,,,,,,7,,,,53,75
15660,note_on,20,0,9,,,,,,,,5,,,,65,75
15660,note_on,20,0,5,,,,,,,,1,,,,65,108
15660,note_on,5,0,8,,,,,,,,4,,,,41,92
15660,note_on,5,0,12,,,,,,,,8,,,,41,75
15740,note_off,80,0,12,,,,,,,,8,,,,41,64
15740,note_off,80,0,7,,,,,,,,3,,,,53,64
15740,note_off,80,0,10,,,,,,,,6,,,,60,64
15740,note_off,80,0,9,,,,,,,,5,,,,65,64
15740,note_off,80,0,11,,,,,,,,7,,,,53,64
15740,note_off,80,0,6,,,,,,,,2,,,,60,64
15740,note_off,80,0,8,,,,,,,,4,,,,41,64
15740,note_off,80,0,5,,,,,,,,1,,,,65,64
15820,note_off,400,0,13,,,,,,,,11,,,,41,64
15900,note_on,160,0,11,,,,,,,,7,,,,53,75
15900,note_on,160,0,6,,,,,,,,2,,,,57,92
15900,note_on,160,0,9,,,,,,,,5,,,,65,75
15900,note_on,160,0,7,,,,,,,,3,,,,53,92
15900,note_on,160,0,12,,,,,,,,8,,,,41,75
15900,note_on,160,0,10,,,,,,,,6,,,,57,75
15900,note_on,160,0,5,,,,,,,,1,,,,65,108
15900,note_on,160,0,8,,,,,,,,4,,,,41,92
15980,note_off,80,0,9,,,,,,,,5,,,,65,64
15980,note_off,80,0,7,,,,,,,,3,,,,53,64
15980,note_off,80,0,10,,,,,,,,6,,,,57,64
15980,note_off,80,0,11,,,,,,,,7,,,,53,64
15980,note_off,80,0,6,,,,,,,,2,,,,57,64
15980,note_off,80,0,5,,,,,,,,1,,,,65,64
15980,note_off,80,0,8,,,,,,,,4,,,,41,64
15980,note_off,80,0,12,,,,,,,,8,,,,41,64
16140,note_on,160,0,11,,,,,,,,7,,,,41,75
16140,note_on,160,0,5,,,,,,,,1,,,,65,108
16140,note_on,160,0,8,,,,,,,,4,,,,29,92
16140,note_on,160,0,9,,,,,,,,5,,,,65,75
16140,note_on,160,0,12,,,,,,,,8,,,,29,75
16140,note_on,160,0,6,,,,,,,,2,,,,57,92
16140,note_on,320,0,13,,,,,,,,11,,,,41,75
16140,note_on,160,0,10,,,,,,,,6,,,,57,75
16140,note_on,160,0,7,,,,,,,,3,,,,41,92
16315,note_off,175,0,9,,,,,,,,5,,,,65,64
16315,note_off,175,0,5,,,,,,,,1,,,,65,64
16320,note_on,5,0,9,,,,,,,,5,,,,72,75
16320,note_on,5,0,5,,,,,,,,1,,,,72,108
16360,note_off,40,0,5,,,,,,,,1,,,,72,64
16360,note_off,40,0,9,,,,,,,,5,,,,72,64
16375,note_off,235,0,7,,,,,,,,3,,,,41,64
16375,note_off,235,0,11,,,,,,,,7,,,,41,64
16375,note_off,235,0,6,,,,,,,,2,,,,57,64
16375,note_off,235,0,10,,,,,,,,6,,,,57,64
16375,note_off,235,0,8,,,,,,,,4,,,,29,64
16375,note_off,235,0,12,,,,,,,,8,,,,29,64
16380,note_on,5,0,8,,,,,,,,4,,,,41,92
16380,note_on,5,0,11,,,,,,,,7,,,,53,75
16380,note_on,5,0,7,,,,,,,,3,,,,53,92
16380,note_on,5,0,12,,,,,,,,8,,,,41,75
16380,note_on,20,0,9,,,,,,,,5,,,,65,75
16380,note_on,5,0,6,,,,,,,,2,,,,60,92
16380,note_on,20,0,5,,,,,,,,1,,,,65,108
16380,note_on,5,0,10,,,,,,,,6,,,,60,75
16460,note_off,80,0,12,,,,,,,,8,,,,41,64
16460,note_off,80,0,5,,,,,,,,1,,,,65,64
16460,note_off,80,0,10,,,,,,,,6,,,,60,64
16460,note_off,80,0,8,,,,,,,,4,,,,41,64
16460,note_off,80,0,6,,,,,,,,2,,,,60,64
16460,note_off,80,0,11,,,,,,,,7,,,,53,64
16460,note_off,80,0,9,,,,,,,,5,,,,65,64
16460,note_off,80,0,7,,,,,,,,3,,,,53,64
16540,note_off,400,0,13,,,,,,,,11,,,,41,64
16620,note_on,160,0,5,,,,,,,,1,,,,65,108
16620,note_on,160,0,8,,,,,,,,4,,,,41,92
16620,note_on,160,0,12,,,,,,,,8,,,,41,75
16620,note_on,160,0,11,,,,,,,,7,,,,53,75
16620,note_on,160,0,9,,,,,,,,5,,,,65,75
16620,note_on,160,0,10,,,,,,,,6,,,,57,75
16620,note_on,160,0,7,,,,,,,,3,,,,53,92
16620,note_on,160,0,6,,,,,,,,2,,,,57,92
16700,note_off,80,0,12,,,,,,,,8,,,,41,64
16700,note_off,80,0,10,,,,,,,,6,,,,57,64
16700,note_off,80,0,9,,,,,,,,5,,,,65,64
16700,note_off,80,0,8,,,,,,,,4,,,,41,64
16700,note_off,80,0,7,,,,,,,,3,,,,53,64
16700,note_off,80,0,11,,,,,,,,7,,,,53,64
16700,note_off,80,0,5,,,,,,,,1,,,,65,64
16700,note_off,80,0,6,,,,,,,,2,,,,57,64
16860,note_on,160,0,8,,,,,,,,4,,,,29,92
16860,note_on,160,0,9,,,,,,,,5,,,,65,75
16860,note_on,160,0,11,,,,,,,,7,,,,41,75
16860,note_on,160,0,5,,,,,,,,1,,,,65,108
16860,note_on,160,0,10,,,,,,,,6,,,,57,75
16860,note_on,160,0,7,,,,,,,,3,,,,41,92
16860,note_on,320,0,13,,,,,,,,11,,,,41,75
16860,note_on,160,0,12,,,,,,,,8,,,,29,75
16860,note_on,160,0,6,,,,,,,,2,,,,57,92
17035,note_off,175,0,9,,,,,,,,5,,,,65,64
17035,note_off,175,0,7,,,,,,,,3,,,,41,64
17035,note_off,175,0,12,,,,,,,,8,,,,29,64
17035,note_off,175,0,8,,,,,,,,4,,,,29,64
17035,note_off,175,0,5,,,,,,,,1,,,,65,64
17035,note_off,175,0,11,,,,,,,,7,,,,41,64
17040,note_on,5,0,12,,,,,,,,8,,,,41,75
17040,note_on,5,0,5,,,,,,,,1,,,,69,108
17040,note_on,5,0,7,,,,,,,,3,,,,53,92
17040,note_on,5,0,11,,,,,,,,7,,,,53,75
17040,note_on,5,0,9,,,,,,,,5,,,,69,75
17040,note_on,5,0,8,,,,,,,,4,,,,41,92
17080,note_off,40,0,12,,,,,,,,8,,,,41,64
17080,note_off,40,0,11,,,,,,,,7,,,,53,64
17080,note_off,40,0,9,,,,,,,,5,,,,69,64
17080,note_off,40,0,7,,,,,,,,3,,,,53,64
17080,note_off,40,0,5,,,,,,,,1,,,,69,64
17080,note_off,40,0,8,,,,,,,,4,,,,41,64
17095,note_off,235,0,13,,,,,,,,11,,,,41,64
17095,note_off,235,0,6,,,,,,,,2,,,,57,64
17095,note_off,235,0,10,,,,,,,,6,,,,57,64
17100,note_on,5,0,13,,,,,,,,11,,,,34,75
17100,note_on,20,0,11,,,,,,,,7,,,,46,75
17100,note_on,20,0,5,,,,,,,,1,,,,70,108
17100,note_on,20,0,8,,,,,,,,4,,,,34,92
17100,note_on,20,0,12,,,,,,,,8,,,,34,75
17100,note_on,20,0,7,,,,,,,,3,,,,46,92
17100,note_on,5,0,6,,,,,,,,2,,,,62,92
17100,note_on,20,0,9,,,,,,,,5,,,,70,75
17100,note_on,5,0,10,,,,,,,,6,,,,62,75
17180,note_off,80,0,6,,,,,,,,2,,,,62,64
17180,note_off,80,0,12,,,,,,,,8,,,,34,64
17180,note_off,80,0,5,,,,,,,,1,,,,70,64
17180,note_off,80,0,8,,,,,,,,4,,,,34,64
17180,note_off,80,0,10,,,,,,,,6,,,,62,64
17180,note_off,80,0,9,,,,,,,,5,,,,70,64
17180,note_off,80,0,11,,,,,,,,7,,,,46,64
17180,note_off,80,0,7,,,,,,,,3,,,,46,64
17335,note_off,235,0,13,,,,,,,,11,,,,34,64
17340,note_on,160,0,5,,,,,,,,1,,,,64,108
17340,note_on,160,0,9,,,,,,,,5,,,,64,75
17340,note_on,5,0,13,,,,,,,,11,,,,36,75
17340,note_on,160,0,12,,,,,,,,8,,,,36,75
17340,note_on,0,0,9,,,,,,,,5,,,,67,75
17340,note_on,160,0,7,,,,,,,,3,,,,48,92
17340,note_on,160,0,10,,,,,,,,6,,,,60,75
17340,note_on,160,0,6,,,,,,,,2,,,,60,92
17340,note_on,160,0,11,,,,,,,,7,,,,48,75
17340,note_on,0,0,5,,,,,,,,1,,,,67,108
17340,note_on,160,0,8,,,,,,,,4,,,,36,92
17420,note_off,80,0,7,,,,,,,,3,,,,48,64
17420,note_off,80,0,5,,,,,,,,1,,,,67,64
17420,note_off,80,0,9,,,,,,,,5,,,,67,64
17420,note_off,0,0,5,,,,,,,,1,,,,64,64
17420,note_off,0,0,9,,,,,,,,5,,,,64,64
17420,note_off,80,0,12,,,,,,,,8,,,,36,64
17420,note_off,80,0,10,,,,,,,,6,,,,60,64
17420,note_off,80,0,6,,,,,,,,2,,,,60,64
17420,note_off,80,0,11,,,,,,,,7,,,,48,64
17420,note_off,80,0,8,,,,,,,,4,,,,36,64
17575,note_off,235,0,13,,,,,,,,11,,,,36,64
17580,note_on,0,0,5,,,,,,,,1,,,,69,108
17580,note_on,5,0,13,,,,,,,,11,,,,41,75
17580,note_on,160,0,5,,,,,,,,1,,,,65,108
17580,note_on,160,0,10,,,,,,,,6,,,,57,75
17580,note_on,160,0,11,,,,,,,,7,,,,41,75
17580,note_on,160,0,6,,,,,,,,2,,,,57,92
17580,note_on,160,0,12,,,,,,,,8,,,,29,75
17580,note_on,0,0,9,,,,,,,,5,,,,69,75
17580,note_on,160,0,9,,,,,,,,5,,,,65,75
17580,note_on,160,0,7,,,,,,,,3,,,,41,92
17580,note_on,160,0,8,,,,,,,,4,,,,29,92
17980,note_off,0,0,9,,,,,,,,5,,,,65,64
17980,note_off,400,0,6,,,,,,,,2,,,,57,64
17980,note_off,400,0,12,,,,,,,,8,,,,29,64
17980,note_off,400,0,7,,,,,,,,3,,,,41,64
17980,note_off,400,0,13,,,,,,,,11,,,,41,64
17980,note_off,0,0,5,,,,,,,,1,,,,65,64
17980,note_off,400,0,5,,,,,,,,1,,,,69,64
17980,note_off,400,0,8,,,,,,,,4,,,,29,64
17980,note_off,400,0,11,,,,,,,,7,,,,41,64
17980,note_off,400,0,10,,,,,,,,6,,,,57,64
17980,note_off,400,0,9,,,,,,,,5,,,,69,64
18360,note_on,380,0,5,,,,,,,,1,,,,65,60
18360,note_on,380,0,8,,,,,,,,4,,,,29,45
18360,note_on,380,0,10,,,,,,,,6,,,,57,45
18360,note_on,380,0,9,,,,,,,,5,,,,65,45
18360,note_on,380,0,13,,,,,,,,11,,,,41,45
18360,note_on,380,0,11,,,,,,,,7,,,,41,45
18360,note_on,380,0,7,,,,,,,,3,,,,41,45
18360,note_on,380,0,12,,,,,,,,8,,,,29,45
18360,note_on,380,0,6,,,,,,,,2,,,,57,45
18535,note_off,175,0,9,,,,,,,,5,,,,65,64
18535,note_off,175,0,5,,,,,,,,1,,,,65,64
18540,note_on,5,0,5,,,,,,,,1,,,,72,60
18540,note_on,5,0,9,,,,,,,,5,,,,72,45
18580,note_off,40,0,9,,,,,,,,5,,,,72,64
18580,note_off,40,0,5,,,,,,,,1,,,,72,64
18595,note_off,235,0,7,,,,,,,,3,,,,41,64
18595,note_off,235,0,6,,,,,,,,2,,,,57,64
18595,note_off,235,0,10,,,,,,,,6,,,,57,64
18595,note_off,235,0,12,,,,,,,,8,,,,29,64
18595,note_off,235,0,11,,,,,,,,7,,,,41,64
18595,note_off,235,0,8,,,,,,,,4,,,,29,64
18600,note_on,20,0,5,,,,,,,,1,,,,65,60
18600,note_on,5,0,12,,,,,,,,8,,,,41,45
18600,note_on,5,0,8,,,,,,,,4,,,,41,45
18600,note_on,5,0,6,,,,,,,,2,,,,60,45
18600,note_on,5,0,11,,,,,,,,7,,,,53,45
18600,note_on,20,0,9,,,,,,,,5,,,,65,45
18600,note_on,5,0,7,,,,,,,,3,,,,53,45
18600,note_on,5,0,10,,,,,,,,6,,,,60,45
18680,note_off,80,0,6,,,,,,,,2,,,,60,64
18680,note_off,80,0,7,,,,,,,,3,,,,53,64
18680,note_off,80,0,5,,,,,,,,1,,,,65,64
18680,note_off,80,0,10,,,,,,,,6,,,,60,64
18680,note_off,80,0,12,,,,,,,,8,,,,41,64
18680,note_off,80,0,11,,,,,,,,7,,,,53,64
18680,note_off,80,0,8,,,,,,,,4,,,,41,64
18680,note_off,80,0,9,,,,,,,,5,,,,65,64
18760,note_off,400,0,13,,,,,,,,11,,,,41,64
18840,note_on,160,0,12,,,,,,,,8,,,,41,45
18840,note_on,160,0,10,,,,,,,,6,,,,57,45
18840,note_on,160,0,7,,,,,,,,3,,,,53,45
18840,note_on,160,0,8,,,,,,,,4,,,,41,45
18840,note_on,160,0,11,,,,,,,,7,,,,53,45
18840,note_on,160,0,6,,,,,,,,2,,,,57,45
18840,note_on,160,0,5,,,,,,,,1,,,,65,60
18840,note_on,160,0,9,,,,,,,,5,,,,65,45
18920,note_off,80,0,10,,,,,,,,6,,,,57,64
18920,note_off,80,0,5,,,,,,,,1,,,,65,64
18920,note_off,80,0,7,,,,,,,,3,,,,53,64
18920,note_off,80,0,8,,,,,,,,4,,,,41,64
18920,note_off,80,0,12,,,,,,,,8,,,,41,64
18920,note_off,80,0,6,,,,,,,,2,,,,57,64
18920,note_off,80,0,9,,,,,,,,5,,,,65,64
18920,note_off,80,0,11,,,,,,,,7,,,,53,64
19080,note_on,160,0,5,,,,,,,,1,,,,65,60
19080,note_on,160,0,7,,,,,,,,3,,,,41,45
19080,note_on,160,0,9,,,,,,,,5,,,,65,45
19080,note_on,160,0,10,,,,,,,,6,,,,57,45
19080,note_on,160,0,6,,,,,,,,2,,,,57,45
19080,note_on,160,0,12,,,,,,,,8,,,,29,45
19080,note_on,160,0,11,,,,,,,,7,,,,41,45
19080,note_on,160,0,8,,,,,,,,4,,,,29,45
19080,note_on,320,0,13,,,,,,,,11,,,,41,45
19255,note_off,175,0,5,,,,,,,,1,,,,65,64
19255,note_off,175,0,9,,,,,,,,5,,,,65,64
19260,note_on,5,0,5,,,,,,,,1,,,,72,60
19260,note_on,5,0,9,,,,,,,,5,,,,72,45
19300,note_off,40,0,5,,,,,,,,1,,,,72,64
19300,note_off,40,0,9,,,,,,,,5,,,,72,64
19315,note_off,235,0,10,,,,,,,,6,,,,57,64
19315,note_off,235,0,7,,,,,,,,3,,,,41,64
19315,note_off,235,0,8,,,,,,,,4,,,,29,64
19315,note_off,235,0,12,,,,,,,,8,,,,29,64
19315,note_off,235,0,11,,,,,,,,7,,,,41,64
19315,note_off,235,0,6,,,,,,,,2,,,,57,64
19320,note_on,5,0,12,,,,,,,,8,,,,41,45
19320,note_on,5,0,10,,,,,,,,6,,,,60,45
19320,note_on,20,0,9,,,,,,,,5,,,,65,45
19320,note_on,5,0,6,,,,,,,,2,,,,60,45
19320,note_on,20,0,5,,,,,,,,1,,,,65,60
19320,note_on,5,0,8,,,,,,,,4,,,,41,45
19320,note_on,5,0,11,,,,,,,,7,,,,53,45
19320,note_on,5,0,7,,,,,,,,3,,,,53,45
19400,note_off,80,0,8,,,,,,,,4,,,,41,64
19400,note_off,80,0,9,,,,,,,,5,,,,65,64
19400,note_off,80,0,11,,,,,,,,7,,,,53,64
19400,note_off,80,0,12,,,,,,,,8,,,,41,64
19400,note_off,80,0,6,,,,,,,,2,,,,60,64
19400,note_off,80,0,7,,,,,,,,3,,,,53,64
19400,note_off,80,0,10,,,,,,,,6,,,,60,64
19400,note_off,80,0,5,,,,,,,,1,,,,65,64
19480,note_off,400,0,13,,,,,,,,11,,,,41,64
19560,note_on,160,0,8,,,,,,,,4,,,,41,45
19560,note_on,160,0,9,,,,,,,,5,,,,65,45
19560,note_on,160,0,5,,,,,,,,1,,,,65,60
19560,note_on,160,0,6,,,,,,,,2,,,,57,45
19560,note_on,160,0,12,,,,,,,,8,,,,41,45
19560,note_on,160,0,10,,,,,,,,6,,,,57,45
19560,note_on,160,0,11,,,,,,,,7,,,,53,45
19560,note_on,160,0,7,,,,,,,,3,,,,53,45
19640,note_off,80,0,9,,,,,,,,5,,,,65,64
19640,note_off,80,0,5,,,,,,,,1,,,,65,64
19640,note_off,80,0,8,,,,,,,,4,,,,41,64
19640,note_off,80,0,7,,,,,,,,3,,,,53,64
19640,note_off,80,0,11,,,,,,,,7,,,,53,64
19640,note_off,80,0,10,,,,,,,,6,,,,57,64
19640,note_off,80,0,6,,,,,,,,2,,,,57,64
19640,note_off,80,0,12,,,,,,,,8,,,,41,64
19800,note_on,160,0,9,,,,,,,,5,,,,65,45
19800,note_on,160,0,12,,,,,,,,8,,,,29,45
19800,note_on,320,0,13,,,,,,,,11,,,,41,45
19800,note_on,160,0,5,,,,,,,,1,,,,65,60
19800,note_on,160,0,6,,,,,,,,2,,,,57,45
19800,note_on,160,0,10,,,,,,,,6,,,,57,45
19800,note_on,160,0,11,,,,,,,,7,,,,41,45
19800,note_on,160,0,7,,,,,,,,3,,,,41,45
19800,note_on,160,0,8,,,,,,,,4,,,,29,45
19975,note_off,175,0,11,,,,,,,,7,,,,41,64
19975,note_off,175,0,8,,,,,,,,4,,,,29,64
19975,note_off,175,0,7,,,,,,,,3,,,,41,64
19975,note_off,175,0,9,,,,,,,,5,,,,65,64
19975,note_off,175,0,5,,,,,,,,1,,,,65,64
19975,note_off,175,0,12,,,,,,,,8,,,,29,64
19980,note_on,5,0,5,,,,,,,,1,,,,69,60
19980,note_on,5,0,12,,,,,,,,8,,,,41,45
19980,note_on,5,0,8,,,,,,,,4,,,,41,45
19980,note_on,5,0,11,,,,,,,,7,,,,53,45
19980,note_on,5,0,9,,,,,,,,5,,,,69,45
19980,note_on,5,0,7,,,,,,,,3,,,,53,45
20020,note_off,40,0,12,,,,,,,,8,,,,41,64
20020,note_off,40,0,5,,,,,,,,1,,,,69,64
20020,note_off,40,0,8,,,,,,,,4,,,,41,64
20020,note_off,40,0,11,,,,,,,,7,,,,53,64
20020,note_off,40,0,9,,,,,,,,5,,,,69,64
20020,note_off,40,0,7,,,,,,,,3,,,,53,64
20035,note_off,235,0,13,,,,,,,,11,,,,41,64
20035,note_off,235,0,10,,,,,,,,6,,,,57,64
20035,note_off,235,0,6,,,,,,,,2,,,,57,64
20040,note_on,20,0,5,,,,,,,,1,,,,70,60
20040,note_on,20,0,7,,,,,,,,3,,,,46,45
20040,note_on,5,0,13,,,,,,,,11,,,,34,45
20040,note_on,20,0,8,,,,,,,,4,,,,34,45
20040,note_on,5,0,10,,,,,,,,6,,,,62,45
20040,note_on,5,0,6,,,,,,,,2,,,,62,45
20040,note_on,20,0,12,,,,,,,,8,,,,34,45
20040,note_on,20,0,11,,,,,,,,7,,,,46,45
20040,note_on,20,0,9,,,,,,,,5,,,,70,45
20120,note_off,80,0,6,,,,,,,,2,,,,62,64
20120,note_off,80,0,8,,,,,,,,4,,,,34,64
20120,note_off,80,0,12,,,,,,,,8,,,,34,64
20120,note_off,80,0,5,,,,,,,,1,,,,70,64
20120,note_off,80,0,7,,,,,,,,3,,,,46,64
20120,note_off,80,0,10,,,,,,,,6,,,,62,64
20120,note_off,80,0,9,,,,,,,,5,,,,70,64
20120,note_off,80,0,11,,,,,,,,7,,,,46,64
20275,note_off,235,0,13,,,,,,,,11,,,,34,64
20280,note_on,160,0,7,,,,,,,,3,,,,48,45
20280,note_on,160,0,12,,,,,,,,8,,,,36,45
20280,note_on,160,0,10,,,,,,,,6,,,,60,45
20280,note_on,160,0,6,,,,,,,,2,,,,60,45
20280,note_on,160,0,8,,,,,,,,4,,,,36,45
20280,note_on,160,0,11,,,,,,,,7,,,,48,45
20280,note_on,5,0,13,,,,,,,,11,,,,36,45
20280,note_on,0,0,5,,,,,,,,1,,,,67,60
20280,note_on,160,0,5,,,,,,,,1,,,,64,60
20280,note_on,160,0,9,,,,,,,,5,,,,64,45
20280,note_on,0,0,9,,,,,,,,5,,,,67,45
20360,note_off,80,0,11,,,,,,,,7,,,,48,64
20360,note_off,0,0,5,,,,,,,,1,,,,64,64
20360,note_off,80,0,5,,,,,,,,1,,,,67,64
20360,note_off,80,0,6,,,,,,,,2,,,,60,64
20360,note_off,80,0,12,,,,,,,,8,,,,36,64
20360,note_off,80,0,10,,,,,,,,6,,,,60,64
20360,note_off,80,0,8,,,,,,,,4,,,,36,64
20360,note_off,80,0,9,,,,,,,,5,,,,67,64
20360,note_off,0,0,9,,,,,,,,5,,,,64,64
20360,note_off,80,0,7,,,,,,,,3,,,,48,64
20515,note_off,235,0,13,,,,,,,,11,,,,36,64
20520,note_on,160,0,7,,,,,,,,3,,,,41,45
20520,note_on,160,0,10,,,,,,,,6,,,,57,45
20520,note_on,160,0,5,,,,,,,,1,,,,65,60
20520,note_on,160,0,9,,,,,,,,5,,,,65,45
20520,note_on,160,0,6,,,,,,,,2,,,,57,45
20520,note_on,5,0,13,,,,,,,,11,,,,41,45
20520,note_on,160,0,12,,,,,,,,8,,,,29,45
20520,note_on,160,0,8,,,,,,,,4,,,,29,45
20520,note_on,160,0,11,,,,,,,,7,,,,41,45
20920,note_off,400,0,12,,,,,,,,8,,,,29,64
20920,note_off,400,0,13,,,,,,,,11,,,,41,64
20920,note_off,400,0,7,,,,,,,,3,,,,41,64
20920,note_off,400,0,5,,,,,,,,1,,,,65,64
20920,note_off,400,0,8,,,,,,,,4,,,,29,64
20920,note_off,400,0,6,,,,,,,,2,,,,57,64
20920,note_off,400,0,11,,,,,,,,7,,,,41,64
20920,note_off,400,0,9,,,,,,,,5,,,,65,64
20920,note_off,400,0,10,,,,,,,,6,,,,57,64
21240,note_on,0,0,4,,,,,,,,12,,,,77,75
21240,note_on,0,0,3,,,,,,,,0,,,,77,92
21240,note_on,21240,0,4,,,,,,,,12,,,,72,75
21240,note_on,21240,0,3,,,,,,,,0,,,,72,92
21475,note_off,235,0,4,,,,,,,,12,,,,77,64
21475,note_off,0,0,3,,,,,,,,0,,,,72,64
21475,note_off,235,0,3,,,,,,,,0,,,,77,64
21475,note_off,0,0,4,,,,,,,,12,,,,72,64
21480,note_on,5,0,4,,,,,,,,12,,,,72,75
21480,note_on,0,0,3,,,,,,,,0,,,,77,92
21480,note_on,5,0,3,,,,,,,,0,,,,72,92
21480,note_on,0,0,4,,,,,,,,12,,,,77,75
21560,note_off,80,0,3,,,,,,,,0,,,,77,64
21560,note_off,0,0,3,,,,,,,,0,,,,72,64
21560,note_off,80,0,4,,,,,,,,12,,,,77,64
21560,note_off,0,0,4,,,,,,,,12,,,,72,64
21600,note_on,40,0,4,,,,,,,,12,,,,72,75
21600,note_on,40,0,3,,,,,,,,0,,,,72,92
21600,note_on,0,0,4,,,,,,,,12,,,,77,75
21600,note_on,0,0,3,,,,,,,,0,,,,77,92
21680,note_off,80,0,3,,,,,,,,0,,,,77,64
21680,note_off,0,0,4,,,,,,,,12,,,,72,64
21680,note_off,0,0,3,,,,,,,,0,,,,72,64
21680,note_off,80,0,4,,,,,,,,12,,,,77,64
21720,note_on,0,0,4,,,,,,,,12,,,,77,75
21720,note_on,0,0,3,,,,,,,,0,,,,77,92
21720,note_on,40,0,3,,,,,,,,0,,,,72,92
21720,note_on,40,0,4,,,,,,,,12,,,,72,75
21800,note_off,0,0,3,,,,,,,,0,,,,72,64
21800,note_off,80,0,4,,,,,,,,12,,,,77,64
21800,note_off,80,0,3,,,,,,,,0,,,,77,64
21800,note_off,0,0,4,,,,,,,,12,,,,72,64
21840,note_on,40,0,3,,,,,,,,0,,,,72,92
21840,note_on,0,0,3,,,,,,,,0,,,,77,92
21840,note_on,0,0,4,,,,,,,,12,,,,77,75
21840,note_on,40,0,4,,,,,,,,12,,,,72,75
21920,note_off,80,0,4,,,,,,,,12,,,,77,64
21920,note_off,0,0,4,,,,,,,,12,,,,72,64
21920,note_off,80,0,3,,,,,,,,0,,,,77,64
21920,note_off,0,0,3,,,,,,,,0,,,,72,64
21960,note_on,40,0,3,,,,,,,,0,,,,72,92
21960,note_on,0,0,4,,,,,,,,12,,,,77,75
21960,note_on,1040,0,8,,,,,,,,4,,,,45,75
21960,note_on,1040,0,7,,,,,,,,3,,,,57,75
21960,note_on,40,0,4,,,,,,,,12,,,,72,75
21960,note_on,0,0,3,,,,,,,,0,,,,77,92
21960,note_on,1040,0,11,,,,,,,,7,,,,57,75
21960,note_on,1040,0,12,,,,,,,,8,,,,45,75
22040,note_off,0,0,4,,,,,,,,12,,,,72,64
22040,note_off,80,0,4,,,,,,,,12,,,,77,64
22040,note_off,80,0,3,,,,,,,,0,,,,77,64
22040,note_off,0,0,3,,,,,,,,0,,,,72,64
22195,note_off,235,0,8,,,,,,,,4,,,,45,64
22195,note_off,235,0,7,,,,,,,,3,,,,57,64
22195,note_off,235,0,11,,,,,,,,7,,,,57,64
22195,note_off,235,0,12,,,,,,,,8,,,,45,64
22200,note_on,5,0,8,,,,,,,,4,,,,41,75
22200,note_on,5,0,12,,,,,,,,8,,,,41,75
22200,note_on,5,0,11,,,,,,,,7,,,,53,75
22200,note_on,160,0,4,,,,,,,,12,,,,69,75
22200,note_on,5,0,7,,,,,,,,3,,,,53,75
22200,note_on,160,0,3,,,,,,,,0,,,,69,92
22200,note_on,0,0,3,,,,,,,,0,,,,72,92
22200,note_on,0,0,4,,,,,,,,12,,,,72,75
22280,note_off,80,0,7,,,,,,,,3,,,,53,64
22280,note_off,0,0,3,,,,,,,,0,,,,69,64
22280,note_off,80,0,12,,,,,,,,8,,,,41,64
22280,note_off,80,0,8,,,,,,,,4,,,,41,64
22280,note_off,80,0,11,,,,,,,,7,,,,53,64
22280,note_off,0,0,4,,,,,,,,12,,,,69,64
22280,note_off,80,0,4,,,,,,,,12,,,,72,64
22280,note_off,80,0,3,,,,,,,,0,,,,72,64
22320,note_on,40,0,8,,,,,,,,4,,,,41,75
22320,note_on,40,0,7,,,,,,,,3,,,,53,75
22320,note_on,40,0,12,,,,,,,,8,,,,41,75
22320,note_on,40,0,11,,,,,,,,7,,,,53,75
22400,note_off,80,0,7,,,,,,,,3,,,,53,64
22400,note_off,80,0,12,,,,,,,,8,,,,41,64
22400,note_off,80,0,11,,,,,,,,7,,,,53,64
22400,note_off,80,0,8,,,,,,,,4,,,,41,64
22440,note_on,0,0,3,,,,,,,,0,,,,72,92
22440,note_on,160,0,3,,,,,,,,0,,,,69,92
22440,note_on,160,0,4,,,,,,,,12,,,,69,75
22440,note_on,0,0,4,,,,,,,,12,,,,72,75
22440,note_on,40,0,7,,,,,,,,3,,,,53,75
22440,note_on,40,0,12,,,,,,,,8,,,,41,75
22440,note_on,40,0,11,,,,,,,,7,,,,53,75
22440,note_on,40,0,8,,,,,,,,4,,,,41,75
22520,note_off,80,0,4,,,,,,,,12,,,,72,64
22520,note_off,80,0,7,,,,,,,,3,,,,53,64
22520,note_off,80,0,8,,,,,,,,4,,,,41,64
22520,note_off,80,0,11,,,,,,,,7,,,,53,64
22520,note_off,0,0,4,,,,,,,,12,,,,69,64
22520,note_off,0,0,3,,,,,,,,0,,,,69,64
22520,note_off,80,0,3,,,,,,,,0,,,,72,64
22520,note_off,80,0,12,,,,,,,,8,,,,41,64
22560,note_on,40,0,7,,,,,,,,3,,,,53,75
22560,note_on,40,0,8,,,,,,,,4,,,,41,75
22560,note_on,40,0,11,,,,,,,,7,,,,53,75
22560,note_on,40,0,12,,,,,,,,8,,,,41,75
22640,note_off,80,0,7,,,,,,,,3,,,,53,64
22640,note_off,80,0,8,,,,,,,,4,,,,41,64
22640,note_off,80,0,11,,,,,,,,7,,,,53,64
22640,note_off,80,0,12,,,,,,,,8,,,,41,64
22680,note_on,0,0,4,,,,,,,,12,,,,77,30
22680,note_on,40,0,8,,,,,,,,4,,,,29,45
22680,note_on,160,0,4,,,,,,,,12,,,,72,30
22680,note_on,40,0,11,,,,,,,,7,,,,41,45
22680,note_on,40,0,7,,,,,,,,3,,,,41,45
22680,note_on,40,0,12,,,,,,,,8,,,,29,45
22680,note_on,1760,0,13,,,,,,,,11,,,,41,45
22680,note_on,160,0,3,,,,,,,,0,,,,72,45
22680,note_on,0,0,3,,,,,,,,0,,,,77,45
22915,note_off,235,0,3,,,,,,,,0,,,,77,64
22915,note_off,0,0,3,,,,,,,,0,,,,72,64
22915,note_off,235,0,4,,,,,,,,12,,,,77,64
22915,note_off,0,0,4,,,,,,,,12,,,,72,64
22920,note_on,0,0,4,,,,,,,,12,,,,77,30
22920,note_on,0,0,3,,,,,,,,0,,,,77,45
22920,note_on,5,0,3,,,,,,,,0,,,,72,45
22920,note_on,5,0,4,,,,,,,,12,,,,72,30
23000,note_off,0,0,4,,,,,,,,12,,,,72,64
23000,note_off,0,0,3,,,,,,,,0,,,,72,64
23000,note_off,80,0,4,,,,,,,,12,,,,77,64
23000,note_off,80,0,3,,,,,,,,0,,,,77,64
23040,note_on,40,0,4,,,,,,,,12,,,,72,30
23040,note_on,0,0,4,,,,,,,,12,,,,77,30
23040,note_on,0,0,3,,,,,,,,0,,,,77,45
23040,note_on,40,0,3,,,,,,,,0,,,,72,45
23080,note_off,400,0,11,,,,,,,,7,,,,41,64
23080,note_off,400,0,12,,,,,,,,8,,,,29,64
23080,note_off,400,0,7,,,,,,,,3,,,,41,64
23080,note_off,400,0,13,,,,,,,,11,,,,41,64
23080,note_off,400,0,8,,,,,,,,4,,,,29,64
23120,note_off,0,0,3,,,,,,,,0,,,,72,64
23120,note_off,80,0,3,,,,,,,,0,,,,77,64
23120,note_off,80,0,4,,,,,,,,12,,,,77,64
23120,note_off,0,0,4,,,,,,,,12,,,,72,64
23160,note_on,0,0,3,,,,,,,,0,,,,77,45
23160,note_on,40,0,3,,,,,,,,0,,,,72,45
23160,note_on,40,0,4,,,,,,,,12,,,,72,30
23160,note_on,0,0,4,,,,,,,,12,,,,77,30
23240,note_off,0,0,3,,,,,,,,0,,,,72,64
23240,note_off,80,0,3,,,,,,,,0,,,,77,64
23240,note_off,80,0,4,,,,,,,,12,,,,77,64
23240,note_off,0,0,4,,,,,,,,12,,,,72,64
23280,note_on,40,0,4,,,,,,,,12,,,,72,30
23280,note_on,0,0,4,,,,,,,,12,,,,77,30
23280,note_on,40,0,3,,,,,,,,0,,,,72,45
23280,note_on,0,0,3,,,,,,,,0,,,,77,45
23360,note_off,80,0,3,,,,,,,,0,,,,77,64
23360,note_off,0,0,3,,,,,,,,0,,,,72,64
23360,note_off,0,0,4,,,,,,,,12,,,,72,64
23360,note_off,80,0,4,,,,,,,,12,,,,77,64
23400,note_on,320,0,7,,,,,,,,3,,,,57,45
23400,note_on,320,0,8,,,,,,,,4,,,,45,45
23400,note_on,320,0,12,,,,,,,,8,,,,45,45
23400,note_on,320,0,11,,,,,,,,7,,,,57,45
23400,note_on,0,0,4,,,,,,,,12,,,,77,30
23400,note_on,40,0,4,,,,,,,,12,,,,72,30
23400,note_on,40,0,3,,,,,,,,0,,,,72,45
23400,note_on,0,0,3,,,,,,,,0,,,,77,45
23480,note_off,0,0,3,,,,,,,,0,,,,72,64
23480,note_off,80,0,4,,,,,,,,12,,,,77,64
23480,note_off,0,0,4,,,,,,,,12,,,,72,64
23480,note_off,80,0,3,,,,,,,,0,,,,77,64
23635,note_off,235,0,7,,,,,,,,3,,,,57,64
23635,note_off,235,0,8,,,,,,,,4,,,,45,64
23635,note_off,235,0,12,,,,,,,,8,,,,45,64
23635,note_off,235,0,11,,,,,,,,7,,,,57,64
23640,note_on,160,0,3,,,,,,,,0,,,,69,45
23640,note_on,0,0,3,,,,,,,,0,,,,72,45
23640,note_on,5,0,8,,,,,,,,4,,,,41,45
23640,note_on,5,0,11,,,,,,,,7,,,,53,45
23640,note_on,5,0,7,,,,,,,,3,,,,53,45
23640,note_on,160,0,4,,,,,,,,12,,,,69,30
23640,note_on,0,0,4,,,,,,,,12,,,,72,30
23640,note_on,5,0,12,,,,,,,,8,,,,41,45
23720,note_off,80,0,11,,,,,,,,7,,,,53,64
23720,note_off,80,0,7,,,,,,,,3,,,,53,64
23720,note_off,0,0,4,,,,,,,,12,,,,69,64
23720,note_off,80,0,8,,,,,,,,4,,,,41,64
23720,note_off,80,0,4,,,,,,,,12,,,,72,64
23720,note_off,0,0,3,,,,,,,,0,,,,69,64
23720,note_off,80,0,3,,,,,,,,0,,,,72,64
23720,note_off,80,0,12,,,,,,,,8,,,,41,64
23760,note_on,40,0,7,,,,,,,,3,,,,53,45
23760,note_on,40,0,8,,,,,,,,4,,,,41,45
23760,note_on,40,0,12,,,,,,,,8,,,,41,45
23760,note_on,40,0,11,,,,,,,,7,,,,53,45
23840,note_off,80,0,11,,,,,,,,7,,,,53,64
23840,note_off,80,0,7,,,,,,,,3,,,,53,64
23840,note_off,80,0,8,,,,,,,,4,,,,41,64
23840,note_off,80,0,12,,,,,,,,8,,,,41,64
23880,note_on,0,0,4,,,,,,,,12,,,,72,30
23880,note_on,40,0,7,,,,,,,,3,,,,53,45
23880,note_on,40,0,11,,,,,,,,7,,,,53,45
23880,note_on,160,0,3,,,,,,,,0,,,,69,45
23880,note_on,160,0,4,,,,,,,,12,,,,69,30
23880,note_on,0,0,3,,,,,,,,0,,,,72,45
23880,note_on,40,0,12,,,,,,,,8,,,,41,45
23880,note_on,40,0,8,,,,,,,,4,,,,41,45
23960,note_off,80,0,3,,,,,,,,0,,,,72,64
23960,note_off,0,0,3,,,,,,,,0,,,,69,64
23960,note_off,80,0,4,,,,,,,,12,,,,72,64
23960,note_off,0,0,4,,,,,,,,12,,,,69,64
23960,note_off,80,0,12,,,,,,,,8,,,,41,64
23960,note_off,80,0,8,,,,,,,,4,,,,41,64
23960,note_off,80,0,11,,,,,,,,7,,,,53,64
23960,note_off,80,0,7,,,,,,,,3,,,,53,64
24000,note_on,40,0,8,,,,,,,,4,,,,41,45
24000,note_on,40,0,7,,,,,,,,3,,,,53,45
24000,note_on,40,0,11,,,,,,,,7,,,,53,45
24000,note_on,40,0,12,,,,,,,,8,,,,41,45
24080,note_off,80,0,7,,,,,,,,3,,,,53,64
24080,note_off,80,0,11,,,,,,,,7,,,,53,64
24080,note_off,80,0,12,,,,,,,,8,,,,41,64
24115,note_off,115,0,8,,,,,,,,4,,,,41,64
24120,note_on,160,0,4,,,,,,,,12,,,,77,60
24120,note_on,40,0,11,,,,,,,,7,,,,41,75
24120,note_on,1040,0,13,,,,,,,,11,,,,41,75
24120,note_on,0,0,4,,,,,,,,12,,,,81,60
24120,note_on,0,0,3,,,,,,,,0,,,,81,75
24120,note_on,5,0,8,,,,,,,,4,,,,29,75
24120,note_on,160,0,3,,,,,,,,0,,,,77,75
24120,note_on,40,0,12,,,,,,,,8,,,,29,75
24120,note_on,40,0,7,,,,,,,,3,,,,41,75
24355,note_off,235,0,4,,,,,,,,12,,,,81,64
24355,note_off,0,0,3,,,,,,,,0,,,,77,64
24355,note_off,235,0,3,,,,,,,,0,,,,81,64
24355,note_off,0,0,4,,,,,,,,12,,,,77,64
24360,note_on,5,0,4,,,,,,,,12,,,,77,60
24360,note_on,0,0,4,,,,,,,,12,,,,81,60
24360,note_on,0,0,3,,,,,,,,0,,,,81,75
24360,note_on,5,0,3,,,,,,,,0,,,,77,75
24440,note_off,0,0,4,,,,,,,,12,,,,77,64
24440,note_off,80,0,4,,,,,,,,12,,,,81,64
24440,note_off,80,0,3,,,,,,,,0,,,,81,64
24440,note_off,0,0,3,,,,,,,,0,,,,77,64
24480,note_on,0,0,3,,,,,,,,0,,,,81,75
24480,note_on,0,0,4,,,,,,,,12,,,,81,60
24480,note_on,40,0,4,,,,,,,,12,,,,77,60
24480,note_on,40,0,3,,,,,,,,0,,,,77,75
24520,note_off,400,0,13,,,,,,,,11,,,,41,64
24520,note_off,400,0,7,,,,,,,,3,,,,41,64
24520,note_off,400,0,8,,,,,,,,4,,,,29,64
24520,note_off,400,0,11,,,,,,,,7,,,,41,64
24520,note_off,400,0,12,,,,,,,,8,,,,29,64
24560,note_off,0,0,4,,,,,,,,12,,,,77,64
24560,note_off,0,0,3,,,,,,,,0,,,,77,64
24560,note_off,80,0,3,,,,,,,,0,,,,81,64
24560,note_off,80,0,4,,,,,,,,12,,,,81,64
24600,note_on,40,0,3,,,,,,,,0,,,,77,75
24600,note_on,0,0,4,,,,,,,,12,,,,81,60
24600,note_on,40,0,4,,,,,,,,12,,,,77,60
24600,note_on,0,0,3,,,,,,,,0,,,,81,75
24680,note_off,0,0,4,,,,,,,,12,,,,77,64
24680,note_off,80,0,4,,,,,,,,12,,,,81,64
24680,note_off,80,0,3,,,,,,,,0,,,,81,64
24680,note_off,0,0,3,,,,,,,,0,,,,77,64
24720,note_on,40,0,3,,,,,,,,0,,,,77,75
24720,note_on,0,0,3,,,,,,,,0,,,,81,75
24720,note_on,40,0,4,,,,,,,,12,,,,77,60
24720,note_on,0,0,4,,,,,,,,12,,,,81,60
24800,note_off,80,0,3,,,,,,,,0,,,,81,64
24800,note_off,0,0,3,,,,,,,,0,,,,77,64
24800,note_off,80,0,4,,,,,,,,12,,,,81,64
24800,note_off,0,0,4,,,,,,,,12,,,,77,64
24840,note_on,320,0,7,,,,,,,,3,,,,53,75
24840,note_on,0,0,3,,,,,,,,0,,,,81,75
24840,note_on,40,0,3,,,,,,,,0,,,,77,75
24840,note_on,320,0,12,,,,,,,,8,,,,41,75
24840,note_on,320,0,8,,,,,,,,4,,,,41,75
24840,note_on,0,0,4,,,,,,,,12,,,,81,60
24840,note_on,40,0,4,,,,,,,,12,,,,77,60
24840,note_on,320,0,11,,,,,,,,7,,,,53,75
24920,note_off,0,0,3,,,,,,,,0,,,,77,64
24920,note_off,80,0,4,,,,,,,,12,,,,81,64
24920,note_off,80,0,3,,,,,,,,0,,,,81,64
24920,note_off,0,0,4,,,,,,,,12,,,,77,64
25075,note_off,235,0,8,,,,,,,,4,,,,41,64
25075,note_off,235,0,12,,,,,,,,8,,,,41,64
25075,note_off,235,0,11,,,,,,,,7,,,,53,64
25075,note_off,235,0,7,,,,,,,,3,,,,53,64
25080,note_on,5,0,8,,,,,,,,4,,,,33,75
25080,note_on,0,0,3,,,,,,,,0,,,,77,75
25080,note_on,160,0,3,,,,,,,,0,,,,72,75
25080,note_on,5,0,11,,,,,,,,7,,,,45,75
25080,note_on,160,0,4,,,,,,,,12,,,,72,60
25080,note_on,5,0,7,,,,,,,,3,,,,45,75
25080,note_on,0,0,4,,,,,,,,12,,,,77,60
25080,note_on,5,0,12,,,,,,,,8,,,,33,75
25160,note_off,80,0,7,,,,,,,,3,,,,45,64
25160,note_off,80,0,8,,,,,,,,4,,,,33,64
25160,note_off,0,0,3,,,,,,,,0,,,,72,64
25160,note_off,80,0,3,,,,,,,,0,,,,77,64
25160,note_off,80,0,4,,,,,,,,12,,,,77,64
25160,note_off,0,0,4,,,,,,,,12,,,,72,64
25160,note_off,80,0,11,,,,,,,,7,,,,45,64
25160,note_off,80,0,12,,,,,,,,8,,,,33,64
25200,note_on,40,0,11,,,,,,,,7,,,,45,75
25200,note_on,40,0,8,,,,,,,,4,,,,33,75
25200,note_on,40,0,12,,,,,,,,8,,,,33,75
25200,note_on,40,0,7,,,,,,,,3,,,,45,75
25280,note_off,80,0,12,,,,,,,,8,,,,33,64
25280,note_off,80,0,8,,,,,,,,4,,,,33,64
25280,note_off,80,0,7,,,,,,,,3,,,,45,64
25280,note_off,80,0,11,,,,,,,,7,,,,45,64
25320,note_on,40,0,7,,,,,,,,3,,,,45,75
25320,note_on,160,0,4,,,,,,,,12,,,,72,60
25320,note_on,0,0,4,,,,,,,,12,,,,77,60
25320,note_on,0,0,3,,,,,,,,0,,,,77,75
25320,note_on,160,0,3,,,,,,,,0,,,,72,75
25320,note_on,40,0,8,,,,,,,,4,,,,33,75
25320,note_on,40,0,11,,,,,,,,7,,,,45,75
25320,note_on,40,0,12,,,,,,,,8,,,,33,75
25400,note_off,80,0,11,,,,,,,,7,,,,45,64
25400,note_off,80,0,4,,,,,,,,12,,,,77,64
25400,note_off,0,0,4,,,,,,,,12,,,,72,64
25400,note_off,80,0,12,,,,,,,,8,,,,33,64
25400,note_off,80,0,7,,,,,,,,3,,,,45,64
25400,note_off,80,0,8,,,,,,,,4,,,,33,64
25400,note_off,80,0,3,,,,,,,,0,,,,77,64
25400,note_off,0,0,3,,,,,,,,0,,,,72,64
25440,note_on,40,0,12,,,,,,,,8,,,,33,75
25440,note_on,40,0,8,,,,,,,,4,,,,33,75
25440,note_on,40,0,11,,,,,,,,7,,,,45,75
25440,note_on,40,0,7,,,,,,,,3,,,,45,75
25520,note_off,80,0,8,,,,,,,,4,,,,33,64
25520,note_off,80,0,11,,,,,,,,7,,,,45,64
25520,note_off,80,0,12,,,,,,,,8,,,,33,64
25520,note_off,80,0,7,,,,,,,,3,,,,45,64
25560,note_on,0,0,3,,,,,,,,0,,,,81,45
25560,note_on,40,0,11,,,,,,,,7,,,,41,45
25560,note_on,1040,0,13,,,,,,,,11,,,,41,45
25560,note_on,160,0,3,,,,,,,,0,,,,77,45
25560,note_on,40,0,7,,,,,,,,3,,,,41,45
25560,note_on,40,0,8,,,,,,,,4,,,,29,45
25560,note_on,0,0,4,,,,,,,,12,,,,81,30
25560,note_on,160,0,4,,,,,,,,12,,,,77,30
25560,note_on,40,0,12,,,,,,,,8,,,,29,45
25795,note_off,0,0,4,,,,,,,,12,,,,77,64
25795,note_off,235,0,3,,,,,,,,0,,,,81,64
25795,note_off,235,0,4,,,,,,,,12,,,,81,64
25795,note_off,0,0,3,,,,,,,,0,,,,77,64
25800,note_on,5,0,4,,,,,,,,12,,,,77,30
25800,note_on,0,0,4,,,,,,,,12,,,,81,30
25800,note_on,0,0,3,,,,,,,,0,,,,81,45
25800,note_on,5,0,3,,,,,,,,0,,,,77,45
25880,note_off,80,0,3,,,,,,,,0,,,,81,64
25880,note_off,0,0,3,,,,,,,,0,,,,77,64
25880,note_off,80,0,4,,,,,,,,12,,,,81,64
25880,note_off,0,0,4,,,,,,,,12,,,,77,64
25920,note_on,0,0,3,,,,,,,,0,,,,81,45
25920,note_on,40,0,3,,,,,,,,0,,,,77,45
25920,note_on,40,0,4,,,,,,,,12,,,,77,30
25920,note_on,0,0,4,,,,,,,,12,,,,81,30
25960,note_off,400,0,11,,,,,,,,7,,,,41,64
25960,note_off,400,0,12,,,,,,,,8,,,,29,64
25960,note_off,400,0,13,,,,,,,,11,,,,41,64
25960,note_off,400,0,8,,,,,,,,4,,,,29,64
25960,note_off,400,0,7,,,,,,,,3,,,,41,64
26000,note_off,0,0,4,,,,,,,,12,,,,77,64
26000,note_off,80,0,4,,,,,,,,12,,,,81,64
26000,note_off,0,0,3,,,,,,,,0,,,,77,64
26000,note_off,80,0,3,,,,,,,,0,,,,81,64
26040,note_on,40,0,3,,,,,,,,0,,,,77,45
26040,note_on,0,0,3,,,,,,,,0,,,,81,45
26040,note_on,40,0,4,,,,,,,,12,,,,77,30
26040,note_on,0,0,4,,,,,,,,12,,,,81,30
26120,note_off,0,0,4,,,,,,,,12,,,,77,64
26120,note_off,80,0,4,,,,,,,,12,,,,81,64
26120,note_off,80,0,3,,,,,,,,0,,,,81,64
26120,note_off,0,0,3,,,,,,,,0,,,,77,64
26160,note_on,40,0,4,,,,,,,,12,,,,77,30
26160,note_on,40,0,3,,,,,,,,0,,,,77,45
26160,note_on,0,0,3,,,,,,,,0,,,,81,45
26160,note_on,0,0,4,,,,,,,,12,,,,81,30
26240,note_off,80,0,3,,,,,,,,0,,,,81,64
26240,note_off,0,0,3,,,,,,,,0,,,,77,64
26240,note_off,80,0,4,,,,,,,,12,,,,81,64
26240,note_off,0,0,4,,,,,,,,12,,,,77,64
26280,note_on,320,0,11,,,,,,,,7,,,,53,45
26280,note_on,0,0,4,,,,,,,,12,,,,81,30
26280,note_on,320,0,12,,,,,,,,8,,,,41,45
26280,note_on,320,0,13,,,,,,,,11,,,,41,45
26280,note_on,320,0,8,,,,,,,,4,,,,41,45
26280,note_on,40,0,4,,,,,,,,12,,,,77,30
26280,note_on,40,0,3,,,,,,,,0,,,,77,45
26280,note_on,320,0,7,,,,,,,,3,,,,53,45
26280,note_on,0,0,3,,,,,,,,0,,,,81,45
26360,note_off,80,0,4,,,,,,,,12,,,,81,64
26360,note_off,0,0,3,,,,,,,,0,,,,77,64
26360,note_off,0,0,4,,,,,,,,12,,,,77,64
26360,note_off,80,0,3,,,,,,,,0,,,,81,64
26515,note_off,235,0,7,,,,,,,,3,,,,53,64
26515,note_off,235,0,11,,,,,,,,7,,,,53,64
26515,note_off,235,0,12,,,,,,,,8,,,,41,64
26515,note_off,235,0,13,,,,,,,,11,,,,41,64
26515,note_off,235,0,8,,,,,,,,4,,,,41,64
26520,note_on,5,0,11,,,,,,,,7,,,,48,45
26520,note_on,0,0,3,,,,,,,,0,,,,77,45
26520,note_on,160,0,3,,,,,,,,0,,,,72,45
26520,note_on,5,0,12,,,,,,,,8,,,,36,45
26520,note_on,5,0,8,,,,,,,,4,,,,36,45
26520,note_on,0,0,4,,,,,,,,12,,,,77,30
26520,note_on,160,0,4,,,,,,,,12,,,,72,30
26520,note_on,5,0,7,,,,,,,,3,,,,48,45
26600,note_off,0,0,4,,,,,,,,12,,,,72,64
26600,note_off,80,0,8,,,,,,,,4,,,,36,64
26600,note_off,0,0,3,,,,,,,,0,,,,72,64
26600,note_off,80,0,12,,,,,,,,8,,,,36,64
26600,note_off,80,0,4,,,,,,,,12,,,,77,64
26600,note_off,80,0,11,,,,,,,,7,,,,48,64
26600,note_off,80,0,7,,,,,,,,3,,,,48,64
26600,note_off,80,0,3,,,,,,,,0,,,,77,64
26640,note_on,40,0,8,,,,,,,,4,,,,36,45
26640,note_on,40,0,11,,,,,,,,7,,,,48,45
26640,note_on,40,0,7,,,,,,,,3,,,,48,45
26640,note_on,40,0,12,,,,,,,,8,,,,36,45
26720,note_off,80,0,11,,,,,,,,7,,,,48,64
26720,note_off,80,0,12,,,,,,,,8,,,,36,64
26720,note_off,80,0,7,,,,,,,,3,,,,48,64
26720,note_off,80,0,8,,,,,,,,4,,,,36,64
26760,note_on,40,0,12,,,,,,,,8,,,,33,45
26760,note_on,160,0,4,,,,,,,,12,,,,72,30
26760,note_on,40,0,7,,,,,,,,3,,,,45,45
26760,note_on,40,0,8,,,,,,,,4,,,,33,45
26760,note_on,160,0,3,,,,,,,,0,,,,72,45
26760,note_on,0,0,4,,,,,,,,12,,,,77,30
26760,note_on,40,0,11,,,,,,,,7,,,,45,45
26760,note_on,0,0,3,,,,,,,,0,,,,77,45
26840,note_off,80,0,8,,,,,,,,4,,,,33,64
26840,note_off,80,0,11,,,,,,,,7,,,,45,64
26840,note_off,80,0,3,,,,,,,,0,,,,77,64
26840,note_off,0,0,3,,,,,,,,0,,,,72,64
26840,note_off,80,0,7,,,,,,,,3,,,,45,64
26840,note_off,80,0,12,,,,,,,,8,,,,33,64
26840,note_off,0,0,4,,,,,,,,12,,,,72,64
26840,note_off,80,0,4,,,,,,,,12,,,,77,64
26880,note_on,40,0,8,,,,,,,,4,,,,33,45
26880,note_on,40,0,7,,,,,,,,3,,,,45,45
26880,note_on,40,0,12,,,,,,,,8,,,,33,45
26880,note_on,40,0,11,,,,,,,,7,,,,45,45
26960,note_off,80,0,7,,,,,,,,3,,,,45,64
26960,note_off,80,0,12,,,,,,,,8,,,,33,64
26960,note_off,80,0,11,,,,,,,,7,,,,45,64
26960,note_off,80,0,8,,,,,,,,4,,,,33,64
27060,note_on,220,0,4,,,,,,,,12,,,,77,30
27060,note_on,0,0,3,,,,,,,,0,,,,81,45
27060,note_on,220,0,3,,,,,,,,0,,,,77,45
27060,note_on,0,0,4,,,,,,,,12,,,,81,30
27415,note_off,355,0,3,,,,,,,,0,,,,81,64
27415,note_off,0,0,3,,,,,,,,0,,,,77,64
27415,note_off,0,0,4,,,,,,,,12,,,,77,64
27415,note_off,355,0,4,,,,,,,,12,,,,81,64
27420,note_on,0,0,4,,,,,,,,12,,,,82,30
27420,note_on,0,0,3,,,,,,,,0,,,,82,45
27420,note_on,5,0,4,,,,,,,,12,,,,79,30
27420,note_on,5,0,3,,,,,,,,0,,,,79,45
27540,note_off,120,0,4,,,,,,,,12,,,,82,64
27540,note_off,0,0,4,,,,,,,,12,,,,79,64
27540,note_off,120,0,3,,,,,,,,0,,,,82,64
27540,note_on,0,0,3,,,,,,,,0,,,,81,45
27540,note_on,0,0,3,,,,,,,,0,,,,77,45
27540,note_off,0,0,3,,,,,,,,0,,,,79,64
27540,note_on,0,0,4,,,,,,,,12,,,,77,30
27540,note_on,0,0,4,,,,,,,,12,,,,81,30
27660,note_on,0,0,3,,,,,,,,0,,,,79,45
27660,note_off,120,0,3,,,,,,,,0,,,,81,64
27660,note_off,0,0,4,,,,,,,,12,,,,77,64
27660,note_on,0,0,4,,,,,,,,12,,,,82,30
27660,note_on,0,0,4,,,,,,,,12,,,,79,30
27660,note_off,0,0,3,,,,,,,,0,,,,77,64
27660,note_on,0,0,3,,,,,,,,0,,,,82,45
27660,note_off,120,0,4,,,,,,,,12,,,,81,64
27775,note_off,115,0,3,,,,,,,,0,,,,82,64
27775,note_off,0,0,3,,,,,,,,0,,,,79,64
27775,note_off,115,0,4,,,,,,,,12,,,,82,64
27775,note_off,0,0,4,,,,,,,,12,,,,79,64
27780,note_on,5,0,3,,,,,,,,0,,,,77,45
27780,note_on,0,0,3,,,,,,,,0,,,,81,45
27780,note_on,0,0,4,,,,,,,,12,,,,81,30
27780,note_on,5,0,4,,,,,,,,12,,,,77,30
28135,note_off,355,0,3,,,,,,,,0,,,,81,64
28135,note_off,0,0,3,,,,,,,,0,,,,77,64
28135,note_off,0,0,4,,,,,,,,12,,,,77,64
28135,note_off,355,0,4,,,,,,,,12,,,,81,64
28140,note_on,5,0,4,,,,,,,,12,,,,79,30
28140,note_on,0,0,4,,,,,,,,12,,,,82,30
28140,note_on,0,0,3,,,,,,,,0,,,,82,45
28140,note_on,5,0,3,,,,,,,,0,,,,79,45
28260,note_on,0,0,3,,,,,,,,0,,,,81,45
28260,note_on,0,0,3,,,,,,,,0,,,,77,45
28260,note_off,0,0,3,,,,,,,,0,,,,79,64
28260,note_off,120,0,4,,,,,,,,12,,,,82,64
28260,note_on,0,0,4,,,,,,,,12,,,,81,30
28260,note_on,0,0,4,,,,,,,,12,,,,77,30
28260,note_off,0,0,4,,,,,,,,12,,,,79,64
28260,note_off,120,0,3,,,,,,,,0,,,,82,64
28380,note_off,0,0,4,,,,,,,,12,,,,77,64
28380,note_off,0,0,3,,,,,,,,0,,,,77,64
28380,note_on,0,0,4,,,,,,,,12,,,,79,30
28380,note_off,120,0,4,,,,,,,,12,,,,81,64
28380,note_on,0,0,3,,,,,,,,0,,,,79,45
28380,note_on,0,0,3,,,,,,,,0,,,,82,45
28380,note_on,0,0,4,,,,,,,,12,,,,82,30
28380,note_off,120,0,3,,,,,,,,0,,,,81,64
28495,note_off,115,0,3,,,,,,,,0,,,,82,64
28495,note_off,0,0,4,,,,,,,,12,,,,79,64
28495,note_off,115,0,4,,,,,,,,12,,,,82,64
28495,note_off,0,0,3,,,,,,,,0,,,,79,64
28500,note_on,5,0,4,,,,,,,,12,,,,77,30
28500,note_on,0,0,4,,,,,,,,12,,,,81,30
28500,note_on,5,0,3,,,,,,,,0,,,,77,45
28500,note_on,0,0,3,,,,,,,,0,,,,81,45
28620,note_off,120,0,3,,,,,,,,0,,,,81,64
28620,note_off,0,0,3,,,,,,,,0,,,,77,64
28620,note_on,0,0,3,,,,,,,,0,,,,79,49
28620,note_on,0,0,3,,,,,,,,0,,,,82,49
28620,note_off,120,0,4,,,,,,,,12,,,,81,64
28620,note_off,0,0,4,,,,,,,,12,,,,77,64
28620,note_on,0,0,4,,,,,,,,12,,,,79,33
28620,note_on,0,0,4,,,,,,,,12,,,,82,33
28740,note_off,120,0,4,,,,,,,,12,,,,82,64
28740,note_off,0,0,4,,,,,,,,12,,,,79,64
28740,note_on,0,0,4,,,,,,,,12,,,,77,37
28740,note_on,0,0,4,,,,,,,,12,,,,81,37
28740,note_on,0,0,3,,,,,,,,0,,,,77,53
28740,note_on,0,0,3,,,,,,,,0,,,,81,53
28740,note_off,0,0,3,,,,,,,,0,,,,79,64
28740,note_off,120,0,3,,,,,,,,0,,,,82,64
28860,note_on,0,0,4,,,,,,,,12,,,,82,41
28860,note_on,0,0,3,,,,,,,,0,,,,82,57
28860,note_on,0,0,3,,,,,,,,0,,,,79,57
28860,note_off,0,0,3,,,,,,,,0,,,,77,64
28860,note_off,120,0,3,,,,,,,,0,,,,81,64
28860,note_off,120,0,4,,,,,,,,12,,,,81,64
28860,note_off,0,0,4,,,,,,,,12,,,,77,64
28860,note_on,0,0,4,,,,,,,,12,,,,79,41
28980,note_on,0,0,4,,,,,,,,12,,,,77,45
28980,note_off,0,0,4,,,,,,,,12,,,,79,64
28980,note_off,120,0,3,,,,,,,,0,,,,82,64
28980,note_off,0,0,3,,,,,,,,0,,,,79,64
28980,note_on,0,0,3,,,,,,,,0,,,,77,61
28980,note_on,0,0,3,,,,,,,,0,,,,81,61
28980,note_off,120,0,4,,,,,,,,12,,,,82,64
28980,note_on,0,0,4,,,,,,,,12,,,,81,45
29100,note_on,0,0,3,,,,,,,,0,,,,79,65
29100,note_off,0,0,3,,,,,,,,0,,,,77,64
29100,note_on,0,0,3,,,,,,,,0,,,,82,65
29100,note_off,120,0,3,,,,,,,,0,,,,81,64
29100,note_on,0,0,4,,,,,,,,12,,,,82,49
29100,note_off,120,0,4,,,,,,,,12,,,,81,64
29100,note_off,0,0,4,,,,,,,,12,,,,77,64
29100,note_on,0,0,4,,,,,,,,12,,,,79,49
29215,note_off,115,0,4,,,,,,,,12,,,,82,64
29215,note_off,0,0,4,,,,,,,,12,,,,79,64
29215,note_off,0,0,3,,,,,,,,0,,,,79,64
29215,note_off,115,0,3,,,,,,,,0,,,,82,64
29220,note_on,2260,0,7,,,,,,,,3,,,,53,45
29220,note_on,13835,0,1,,,,,,,,10,,,,65,60
29220,note_on,2260,0,11,,,,,,,,7,,,,53,45
29220,note_on,2260,0,8,,,,,,,,4,,,,41,45
29220,note_on,0,0,3,,,,,,,,0,,,,81,69
29220,note_on,13870,0,2,,,,,,,,10,,,,53,60
29220,note_on,2705,0,13,,,,,,,,11,,,,41,45
29220,note_on,2260,0,12,,,,,,,,8,,,,41,45
29220,note_on,5,0,3,,,,,,,,0,,,,77,69
29220,note_on,5,0,4,,,,,,,,12,,,,77,53
29220,note_on,0,0,4,,,,,,,,12,,,,81,53
29280,note_off,0,0,4,,,,,,,,12,,,,77,64
29280,note_off,60,0,3,,,,,,,,0,,,,81,64
29280,note_off,60,0,4,,,,,,,,12,,,,81,64
29280,note_on,0,0,4,,,,,,,,12,,,,79,55
29280,note_on,0,0,4,,,,,,,,12,,,,82,55
29280,note_off,0,0,3,,,,,,,,0,,,,77,64
29280,note_on,0,0,3,,,,,,,,0,,,,79,71
29280,note_on,0,0,3,,,,,,,,0,,,,82,71
29340,note_on,0,0,4,,,,,,,,12,,,,81,57
29340,note_off,60,0,4,,,,,,,,12,,,,82,64
29340,note_on,0,0,3,,,,,,,,0,,,,77,73
29340,note_on,0,0,3,,,,,,,,0,,,,81,73
29340,note_on,0,0,4,,,,,,,,12,,,,77,57
29340,note_off,0,0,4,,,,,,,,12,,,,79,64
29340,note_off,60,0,3,,,,,,,,0,,,,82,64
29340,note_off,0,0,3,,,,,,,,0,,,,79,64
29400,note_on,0,0,4,,,,,,,,12,,,,82,59
29400,note_off,0,0,4,,,,,,,,12,,,,77,64
29400,note_on,0,0,3,,,,,,,,0,,,,79,75
29400,note_off,0,0,3,,,,,,,,0,,,,77,64
29400,note_off,60,0,3,,,,,,,,0,,,,81,64
29400,note_off,60,0,4,,,,,,,,12,,,,81,64
29400,note_on,0,0,3,,,,,,,,0,,,,82,75
29400,note_on,0,0,4,,,,,,,,12,,,,79,59
29455,note_off,235,0,13,,,,,,,,11,,,,41,64
29455,note_off,235,0,7,,,,,,,,3,,,,53,64
29455,note_off,235,0,12,,,,,,,,8,,,,41,64
29455,note_off,235,0,8,,,,,,,,4,,,,41,64
29455,note_off,235,0,2,,,,,,,,10,,,,53,64
29455,note_off,235,0,1,,,,,,,,10,,,,65,64
29455,note_off,235,0,11,,,,,,,,7,,,,53,64
29460,note_on,5,0,8,,,,,,,,4,,,,36,60
29460,note_on,5,0,12,,,,,,,,8,,,,36,55
29460,note_off,60,0,3,,,,,,,,0,,,,82,64
29460,note_off,0,0,3,,,,,,,,0,,,,79,64
29460,note_on,0,0,3,,,,,,,,0,,,,77,77
29460,note_on,5,0,7,,,,,,,,3,,,,48,60
29460,note_off,60,0,4,,,,,,,,12,,,,82,64
29460,note_on,0,0,3,,,,,,,,0,,,,81,77
29460,note_on,0,0,4,,,,,,,,12,,,,81,61
29460,note_on,0,0,4,,,,,,,,12,,,,77,61
29460,note_on,5,0,13,,,,,,,,11,,,,36,55
29460,note_on,5,0,2,,,,,,,,10,,,,48,65
29460,note_on,5,0,1,,,,,,,,10,,,,60,65
29460,note_on,5,0,11,,,,,,,,7,,,,48,55
29460,note_off,0,0,4,,,,,,,,12,,,,79,64
29520,note_on,0,0,3,,,,,,,,0,,,,79,79
29520,note_on,0,0,3,,,,,,,,0,,,,82,79
29520,note_off,60,0,3,,,,,,,,0,,,,81,64
29520,note_off,0,0,3,,,,,,,,0,,,,77,64
29520,note_off,60,0,4,,,,,,,,12,,,,81,64
29520,note_off,0,0,4,,,,,,,,12,,,,77,64
29520,note_on,0,0,4,,,,,,,,12,,,,79,63
29520,note_on,0,0,4,,,,,,,,12,,,,82,63
29575,note_off,115,0,7,,,,,,,,3,,,,48,64
29575,note_off,115,0,11,,,,,,,,7,,,,48,64
29575,note_off,115,0,8,,,,,,,,4,,,,36,64
29575,note_off,115,0,12,,,,,,,,8,,,,36,64
29580,note_on,5,0,12,,,,,,,,8,,,,36,60
29580,note_on,5,0,7,,,,,,,,3,,,,48,68
29580,note_on,5,0,11,,,,,,,,7,,,,48,60
29580,note_off,60,0,4,,,,,,,,12,,,,82,64
29580,note_on,5,0,8,,,,,,,,4,,,,36,68
29580,note_on,0,0,4,,,,,,,,12,,,,77,65
29580,note_on,0,0,3,,,,,,,,0,,,,81,81
29580,note_on,0,0,3,,,,,,,,0,,,,77,81
29580,note_off,0,0,4,,,,,,,,12,,,,79,64
29580,note_off,60,0,3,,,,,,,,0,,,,82,64
29580,note_on,0,0,4,,,,,,,,12,,,,81,65
29580,note_off,0,0,3,,,,,,,,0,,,,79,64
29640,note_off,0,0,3,,,,,,,,0,,,,77,64
29640,note_on,0,0,3,,,,,,,,0,,,,82,83
29640,note_on,0,0,4,,,,,,,,12,,,,82,67
29640,note_on,0,0,4,,,,,,,,12,,,,79,67
29640,note_on,0,0,3,,,,,,,,0,,,,79,83
29640,note_off,60,0,3,,,,,,,,0,,,,81,64
29640,note_off,60,0,4,,,,,,,,12,,,,81,64
29640,note_off,0,0,4,,,,,,,,12,,,,77,64
29695,note_off,235,0,13,,,,,,,,11,,,,36,64
29695,note_off,115,0,11,,,,,,,,7,,,,48,64
29695,note_off,115,0,7,,,,,,,,3,,,,48,64
29695,note_off,235,0,2,,,,,,,,10,,,,48,64
29695,note_off,235,0,1,,,,,,,,10,,,,60,64
29695,note_off,115,0,8,,,,,,,,4,,,,36,64
29695,note_off,115,0,12,,,,,,,,8,,,,36,64
29700,note_on,0,0,4,,,,,,,,12,,,,81,69
29700,note_on,5,0,8,,,,,,,,4,,,,33,76
29700,note_off,0,0,4,,,,,,,,12,,,,79,64
29700,note_on,5,0,2,,,,,,,,10,,,,45,70
29700,note_on,5,0,13,,,,,,,,11,,,,33,65
29700,note_on,5,0,7,,,,,,,,3,,,,45,76
29700,note_on,0,0,4,,,,,,,,12,,,,77,69
29700,note_off,60,0,4,,,,,,,,12,,,,82,64
29700,note_on,5,0,11,,,,,,,,7,,,,45,65
29700,note_on,5,0,12,,,,,,,,8,,,,33,65
29700,note_off,60,0,3,,,,,,,,0,,,,82,64
29700,note_off,0,0,3,,,,,,,,0,,,,79,64
29700,note_on,0,0,3,,,,,,,,0,,,,77,85
29700,note_on,0,0,3,,,,,,,,0,,,,81,85
29700,note_on,5,0,1,,,,,,,,10,,,,57,70
29760,note_on,0,0,4,,,,,,,,12,,,,82,71
29760,note_off,60,0,4,,,,,,,,12,,,,81,64
29760,note_on,0,0,4,,,,,,,,12,,,,79,71
29760,note_on,0,0,3,,,,,,,,0,,,,82,87
29760,note_off,0,0,4,,,,,,,,12,,,,77,64
29760,note_off,60,0,3,,,,,,,,0,,,,81,64
29760,note_off,0,0,3,,,,,,,,0,,,,77,64
29760,note_on,0,0,3,,,,,,,,0,,,,79,87
29815,note_off,115,0,7,,,,,,,,3,,,,45,64
29815,note_off,115,0,12,,,,,,,,8,,,,33,64
29815,note_off,115,0,8,,,,,,,,4,,,,33,64
29815,note_off,115,0,11,,,,,,,,7,,,,45,64
29820,note_on,5,0,11,,,,,,,,7,,,,45,70
29820,note_off,0,0,4,,,,,,,,12,,,,79,64
29820,note_on,0,0,4,,,,,,,,12,,,,77,73
29820,note_on,0,0,4,,,,,,,,12,,,,81,73
29820,note_off,60,0,4,,,,,,,,12,,,,82,64
29820,note_on,0,0,3,,,,,,,,0,,,,81,89
29820,note_on,0,0,3,,,,,,,,0,,,,77,89
29820,note_on,5,0,8,,,,,,,,4,,,,33,84
29820,note_on,5,0,7,,,,,,,,3,,,,45,84
29820,note_on,5,0,12,,,,,,,,8,,,,33,70
29820,note_off,0,0,3,,,,,,,,0,,,,79,64
29820,note_off,60,0,3,,,,,,,,0,,,,82,64
29880,note_on,0,0,3,,,,,,,,0,,,,79,92
29880,note_on,0,0,3,,,,,,,,0,,,,82,92
29880,note_off,60,0,3,,,,,,,,0,,,,81,64
29880,note_off,0,0,3,,,,,,,,0,,,,77,64
29880,note_off,60,0,4,,,,,,,,12,,,,81,64
29880,note_on,0,0,4,,,,,,,,12,,,,79,75
29880,note_on,0,0,4,,,,,,,,12,,,,82,75
29880,note_off,0,0,4,,,,,,,,12,,,,77,64
29935,note_off,55,0,3,,,,,,,,0,,,,82,64
29935,note_off,55,0,4,,,,,,,,12,,,,82,64
29935,note_off,0,0,4,,,,,,,,12,,,,79,64
29935,note_off,235,0,13,,,,,,,,11,,,,33,64
29935,note_off,235,0,1,,,,,,,,10,,,,57,64
29935,note_off,115,0,8,,,,,,,,4,,,,33,64
29935,note_off,115,0,12,,,,,,,,8,,,,33,64
29935,note_off,115,0,11,,,,,,,,7,,,,45,64
29935,note_off,0,0,3,,,,,,,,0,,,,79,64
29935,note_off,115,0,7,,,,,,,,3,,,,45,64
29935,note_off,235,0,2,,,,,,,,10,,,,45,64
29940,note_on,9020,0,10,,,,,,,,6,,,,57,75
29940,note_on,5,0,12,,,,,,,,8,,,,29,75
29940,note_on,5,0,7,,,,,,,,3,,,,41,92
29940,note_on,9020,0,5,,,,,,,,1,,,,65,108
29940,note_on,5,0,8,,,,,,,,4,,,,29,92
29940,note_on,5,0,2,,,,,,,,10,,,,41,75
29940,set_tempo,29940,1,0,833333,,,,,,,,,,,,
29940,note_on,9020,0,6,,,,,,,,2,,,,57,92
29940,note_on,9020,0,9,,,,,,,,5,,,,65,75
29940,note_on,5,0,13,,,,,,,,11,,,,41,75
29940,note_on,5,0,11,,,,,,,,7,,,,41,75
30115,note_off,175,0,5,,,,,,,,1,,,,65,64
30115,note_off,175,0,9,,,,,,,,5,,,,65,64
30120,note_on,5,0,5,,,,,,,,1,,,,72,108
30120,note_on,5,0,9,,,,,,,,5,,,,72,75
30160,note_off,40,0,9,,,,,,,,5,,,,72,64
30160,note_off,40,0,5,,,,,,,,1,,,,72,64
30175,note_off,235,0,11,,,,,,,,7,,,,41,64
30175,note_off,235,0,10,,,,,,,,6,,,,57,64
30175,note_off,235,0,2,,,,,,,,10,,,,41,64
30175,note_off,235,0,8,,,,,,,,4,,,,29,64
30175,note_off,235,0,6,,,,,,,,2,,,,57,64
30175,note_off,235,0,7,,,,,,,,3,,,,41,64
30175,note_off,235,0,12,,,,,,,,8,,,,29,64
30180,note_on,5,0,2,,,,,,,,10,,,,53,75
30180,note_on,20,0,9,,,,,,,,5,,,,65,75
30180,note_on,5,0,7,,,,,,,,3,,,,53,92
30180,note_on,5,0,6,,,,,,,,2,,,,60,92
30180,note_on,5,0,11,,,,,,,,7,,,,53,75
30180,note_on,5,0,10,,,,,,,,6,,,,60,75
30180,note_on,5,0,12,,,,,,,,8,,,,41,75
30180,note_on,20,0,5,,,,,,,,1,,,,65,108
30180,note_on,245,0,1,,,,,,,,10,,,,57,75
30180,note_on,5,0,8,,,,,,,,4,,,,41,92
30260,note_off,80,0,2,,,,,,,,10,,,,53,64
30260,note_off,80,0,12,,,,,,,,8,,,,41,64
30260,note_off,80,0,8,,,,,,,,4,,,,41,64
30260,note_off,80,0,9,,,,,,,,5,,,,65,64
30260,note_off,80,0,10,,,,,,,,6,,,,60,64
30260,note_off,80,0,5,,,,,,,,1,,,,65,64
30260,note_off,80,0,11,,,,,,,,7,,,,53,64
30260,note_off,80,0,1,,,,,,,,10,,,,57,64
30260,note_off,80,0,6,,,,,,,,2,,,,60,64
30260,note_off,80,0,7,,,,,,,,3,,,,53,64
30300,note_on,40,0,1,,,,,,,,10,,,,60,75
30340,note_off,400,0,13,,,,,,,,11,,,,41,64
30380,note_off,80,0,1,,,,,,,,10,,,,60,64
30420,note_on,160,0,7,,,,,,,,3,,,,53,92
30420,note_on,160,0,6,,,,,,,,2,,,,57,92
30420,note_on,40,0,1,,,,,,,,10,,,,57,75
30420,note_on,160,0,11,,,,,,,,7,,,,53,75
30420,note_on,160,0,5,,,,,,,,1,,,,65,108
30420,note_on,160,0,2,,,,,,,,10,,,,53,75
30420,note_on,160,0,10,,,,,,,,6,,,,57,75
30420,note_on,160,0,8,,,,,,,,4,,,,41,92
30420,note_on,160,0,9,,,,,,,,5,,,,65,75
30420,note_on,160,0,12,,,,,,,,8,,,,41,75
30500,note_off,80,0,6,,,,,,,,2,,,,57,64
30500,note_off,80,0,1,,,,,,,,10,,,,57,64
30500,note_off,80,0,10,,,,,,,,6,,,,57,64
30500,note_off,80,0,7,,,,,,,,3,,,,53,64
30500,note_off,80,0,9,,,,,,,,5,,,,65,64
30500,note_off,80,0,8,,,,,,,,4,,,,41,64
30500,note_off,80,0,2,,,,,,,,10,,,,53,64
30500,note_off,80,0,11,,,,,,,,7,,,,53,64
30500,note_off,80,0,12,,,,,,,,8,,,,41,64
30500,note_off,80,0,5,,,,,,,,1,,,,65,64
30540,note_on,40,0,1,,,,,,,,10,,,,60,75
30620,note_off,80,0,1,,,,,,,,10,,,,60,64
30660,note_on,160,0,11,,,,,,,,7,,,,41,75
30660,note_on,160,0,10,,,,,,,,6,,,,57,75
30660,note_on,160,0,12,,,,,,,,8,,,,29,75
30660,note_on,160,0,8,,,,,,,,4,,,,29,92
30660,note_on,160,0,2,,,,,,,,10,,,,41,75
30660,note_on,160,0,9,,,,,,,,5,,,,65,75
30660,note_on,160,0,6,,,,,,,,2,,,,57,92
30660,note_on,160,0,7,,,,,,,,3,,,,41,92
30660,note_on,320,0,13,,,,,,,,11,,,,41,75
30660,note_on,160,0,5,,,,,,,,1,,,,65,108
30835,note_off,175,0,5,,,,,,,,1,,,,65,64
30835,note_off,175,0,9,,,,,,,,5,,,,65,64
30840,note_on,5,0,5,,,,,,,,1,,,,72,108
30840,note_on,5,0,9,,,,,,,,5,,,,72,75
30880,note_off,40,0,5,,,,,,,,1,,,,72,64
30880,note_off,40,0,9,,,,,,,,5,,,,72,64
30895,note_off,235,0,10,,,,,,,,6,,,,57,64
30895,note_off,235,0,8,,,,,,,,4,,,,29,64
30895,note_off,235,0,12,,,,,,,,8,,,,29,64
30895,note_off,235,0,11,,,,,,,,7,,,,41,64
30895,note_off,235,0,6,,,,,,,,2,,,,57,64
30895,note_off,235,0,7,,,,,,,,3,,,,41,64
30895,note_off,235,0,2,,,,,,,,10,,,,41,64
30900,note_on,5,0,8,,,,,,,,4,,,,41,92
30900,note_on,5,0,7,,,,,,,,3,,,,53,92
30900,note_on,5,0,11,,,,,,,,7,,,,53,75
30900,note_on,280,0,1,,,,,,,,10,,,,57,75
30900,note_on,20,0,5,,,,,,,,1,,,,65,108
30900,note_on,5,0,2,,,,,,,,10,,,,53,75
30900,note_on,20,0,9,,,,,,,,5,,,,65,75
30900,note_on,5,0,6,,,,,,,,2,,,,60,92
30900,note_on,5,0,12,,,,,,,,8,,,,41,75
30900,note_on,5,0,10,,,,,,,,6,,,,60,75
30980,note_off,80,0,2,,,,,,,,10,,,,53,64
30980,note_off,80,0,12,,,,,,,,8,,,,41,64
30980,note_off,80,0,1,,,,,,,,10,,,,57,64
30980,note_off,80,0,10,,,,,,,,6,,,,60,64
30980,note_off,80,0,6,,,,,,,,2,,,,60,64
30980,note_off,80,0,8,,,,,,,,4,,,,41,64
30980,note_off,80,0,11,,,,,,,,7,,,,53,64
30980,note_off,80,0,9,,,,,,,,5,,,,65,64
30980,note_off,80,0,5,,,,,,,,1,,,,65,64
30980,note_off,80,0,7,,,,,,,,3,,,,53,64
31020,note_on,40,0,1,,,,,,,,10,,,,60,75
31060,note_off,400,0,13,,,,,,,,11,,,,41,64
31100,note_off,80,0,1,,,,,,,,10,,,,60,64
31140,note_on,160,0,9,,,,,,,,5,,,,65,75
31140,note_on,160,0,11,,,,,,,,7,,,,53,75
31140,note_on,160,0,12,,,,,,,,8,,,,41,75
31140,note_on,160,0,7,,,,,,,,3,,,,53,92
31140,note_on,160,0,8,,,,,,,,4,,,,41,92
31140,note_on,160,0,10,,,,,,,,6,,,,57,75
31140,note_on,160,0,2,,,,,,,,10,,,,53,75
31140,note_on,40,0,1,,,,,,,,10,,,,57,75
31140,note_on,160,0,6,,,,,,,,2,,,,57,92
31140,note_on,160,0,5,,,,,,,,1,,,,65,108
31220,note_off,80,0,7,,,,,,,,3,,,,53,64
31220,note_off,80,0,6,,,,,,,,2,,,,57,64
31220,note_off,80,0,8,,,,,,,,4,,,,41,64
31220,note_off,80,0,11,,,,,,,,7,,,,53,64
31220,note_off,80,0,2,,,,,,,,10,,,,53,64
31220,note_off,80,0,5,,,,,,,,1,,,,65,64
31220,note_off,80,0,9,,,,,,,,5,,,,65,64
31220,note_off,80,0,1,,,,,,,,10,,,,57,64
31220,note_off,80,0,12,,,,,,,,8,,,,41,64
31220,note_off,80,0,10,,,,,,,,6,,,,57,64
31260,note_on,40,0,1,,,,,,,,10,,,,60,75
31340,note_off,80,0,1,,,,,,,,10,,,,60,64
31380,note_on,320,0,13,,,,,,,,11,,,,41,75
31380,note_on,160,0,5,,,,,,,,1,,,,65,108
31380,note_on,160,0,8,,,,,,,,4,,,,29,92
31380,note_on,160,0,6,,,,,,,,2,,,,57,92
31380,note_on,160,0,2,,,,,,,,10,,,,41,75
31380,note_on,160,0,7,,,,,,,,3,,,,41,92
31380,note_on,160,0,11,,,,,,,,7,,,,41,75
31380,note_on,160,0,12,,,,,,,,8,,,,29,75
31380,note_on,160,0,9,,,,,,,,5,,,,65,75
31380,note_on,160,0,10,,,,,,,,6,,,,57,75
31460,note_off,80,0,10,,,,,,,,6,,,,57,64
31460,note_off,80,0,6,,,,,,,,2,,,,57,64
31555,note_off,175,0,2,,,,,,,,10,,,,41,64
31555,note_off,175,0,8,,,,,,,,4,,,,29,64
31555,note_off,175,0,11,,,,,,,,7,,,,41,64
31555,note_off,175,0,9,,,,,,,,5,,,,65,64
31555,note_off,175,0,7,,,,,,,,3,,,,41,64
31555,note_off,175,0,12,,,,,,,,8,,,,29,64
31555,note_off,175,0,5,,,,,,,,1,,,,65,64
31560,note_on,5,0,7,,,,,,,,3,,,,53,92
31560,note_on,5,0,12,,,,,,,,8,,,,41,75
31560,note_on,5,0,8,,,,,,,,4,,,,41,92
31560,note_on,5,0,5,,,,,,,,1,,,,72,108
31560,note_on,5,0,2,,,,,,,,10,,,,53,75
31560,note_on,5,0,11,,,,,,,,7,,,,53,75
31560,note_on,5,0,9,,,,,,,,5,,,,72,75
31600,note_off,40,0,2,,,,,,,,10,,,,53,64
31600,note_off,40,0,5,,,,,,,,1,,,,72,64
31600,note_off,40,0,7,,,,,,,,3,,,,53,64
31600,note_off,40,0,12,,,,,,,,8,,,,41,64
31600,note_off,40,0,8,,,,,,,,4,,,,41,64
31600,note_off,40,0,11,,,,,,,,7,,,,53,64
31600,note_off,40,0,9,,,,,,,,5,,,,72,64
31615,note_off,235,0,13,,,,,,,,11,,,,41,64
31620,note_on,20,0,12,,,,,,,,8,,,,34,75
31620,note_on,160,0,10,,,,,,,,6,,,,62,75
31620,note_on,5,0,13,,,,,,,,11,,,,34,75
31620,note_on,20,0,7,,,,,,,,3,,,,46,92
31620,note_on,20,0,5,,,,,,,,1,,,,70,108
31620,note_on,160,0,6,,,,,,,,2,,,,62,92
31620,note_on,20,0,8,,,,,,,,4,,,,34,92
31620,note_on,20,0,11,,,,,,,,7,,,,46,75
31620,note_on,20,0,2,,,,,,,,10,,,,46,75
31620,note_on,20,0,9,,,,,,,,5,,,,70,75
31700,note_off,80,0,11,,,,,,,,7,,,,46,64
31700,note_off,80,0,12,,,,,,,,8,,,,34,64
31700,note_off,80,0,7,,,,,,,,3,,,,46,64
31700,note_off,80,0,2,,,,,,,,10,,,,46,64
31700,note_off,80,0,9,,,,,,,,5,,,,70,64
31700,note_off,80,0,8,,,,,,,,4,,,,34,64
31700,note_off,80,0,6,,,,,,,,2,,,,62,64
31700,note_off,80,0,5,,,,,,,,1,,,,70,64
31700,note_off,80,0,10,,,,,,,,6,,,,62,64
31855,note_off,235,0,13,,,,,,,,11,,,,34,64
31860,note_on,160,0,11,,,,,,,,7,,,,47,75
31860,note_on,160,0,9,,,,,,,,5,,,,69,75
31860,note_on,5,0,13,,,,,,,,11,,,,35,75
31860,note_on,160,0,2,,,,,,,,10,,,,47,75
31860,note_on,160,0,6,,,,,,,,2,,,,62,92
31860,note_on,160,0,5,,,,,,,,1,,,,69,108
31860,note_on,160,0,10,,,,,,,,6,,,,62,75
31860,note_on,160,0,8,,,,,,,,4,,,,35,92
31860,note_on,160,0,12,,,,,,,,8,,,,35,75
31860,note_on,160,0,7,,,,,,,,3,,,,47,92
31940,note_off,80,0,10,,,,,,,,6,,,,62,64
31940,note_off,80,0,9,,,,,,,,5,,,,69,64
31940,note_off,80,0,2,,,,,,,,10,,,,47,64
31940,note_off,80,0,5,,,,,,,,1,,,,69,64
31940,note_off,80,0,12,,,,,,,,8,,,,35,64
31940,note_off,80,0,8,,,,,,,,4,,,,35,64
31940,note_off,80,0,6,,,,,,,,2,,,,62,64
31940,note_off,80,0,11,,,,,,,,7,,,,47,64
31940,note_off,80,0,7,,,,,,,,3,,,,47,64
32095,note_off,235,0,13,,,,,,,,11,,,,35,64
32100,note_on,5,0,13,,,,,,,,11,,,,36,75
32100,note_on,760,0,1,,,,,,,,10,,,,64,75
32100,note_on,160,0,8,,,,,,,,4,,,,36,92
32100,note_on,160,0,6,,,,,,,,2,,,,64,92
32100,note_on,160,0,5,,,,,,,,1,,,,60,108
32100,note_on,0,0,5,,,,,,,,1,,,,67,108
32100,note_on,160,0,2,,,,,,,,10,,,,48,75
32100,note_on,160,0,11,,,,,,,,7,,,,48,75
32100,note_on,160,0,9,,,,,,,,5,,,,60,75
32100,note_on,160,0,12,,,,,,,,8,,,,36,75
32100,note_on,0,0,9,,,,,,,,5,,,,67,75
32100,note_on,160,0,7,,,,,,,,3,,,,48,92
32100,note_on,160,0,10,,,,,,,,6,,,,64,75
32180,note_off,80,0,2,,,,,,,,10,,,,48,64
32180,note_off,80,0,5,,,,,,,,1,,,,67,64
32180,note_off,0,0,5,,,,,,,,1,,,,60,64
32180,note_off,80,0,6,,,,,,,,2,,,,64,64
32180,note_off,80,0,12,,,,,,,,8,,,,36,64
32180,note_off,80,0,1,,,,,,,,10,,,,64,64
32180,note_off,0,0,9,,,,,,,,5,,,,60,64
32180,note_off,80,0,10,,,,,,,,6,,,,64,64
32180,note_off,80,0,7,,,,,,,,3,,,,48,64
32180,note_off,80,0,9,,,,,,,,5,,,,67,64
32180,note_off,80,0,11,,,,,,,,7,,,,48,64
32180,note_off,80,0,8,,,,,,,,4,,,,36,64
32220,note_on,40,0,11,,,,,,,,7,,,,46,70
32220,note_on,40,0,10,,,,,,,,6,,,,62,70
32220,note_on,40,0,8,,,,,,,,4,,,,34,85
32220,note_on,40,0,12,,,,,,,,8,,,,34,70
32220,note_on,40,0,1,,,,,,,,10,,,,62,70
32220,note_on,40,0,6,,,,,,,,2,,,,62,85
32220,note_on,40,0,7,,,,,,,,3,,,,46,85
32220,note_on,40,0,2,,,,,,,,10,,,,46,70
32300,note_off,80,0,2,,,,,,,,10,,,,46,64
32300,note_off,80,0,12,,,,,,,,8,,,,34,64
32300,note_off,80,0,6,,,,,,,,2,,,,62,64
32300,note_off,80,0,8,,,,,,,,4,,,,34,64
32300,note_off,80,0,1,,,,,,,,10,,,,62,64
32300,note_off,80,0,10,,,,,,,,6,,,,62,64
32300,note_off,80,0,11,,,,,,,,7,,,,46,64
32300,note_off,80,0,7,,,,,,,,3,,,,46,64
32340,note_on,40,0,8,,,,,,,,4,,,,33,77
32340,note_on,40,0,6,,,,,,,,2,,,,60,77
32340,note_on,40,0,10,,,,,,,,6,,,,60,65
32340,note_on,40,0,11,,,,,,,,7,,,,45,65
32340,note_on,0,0,9,,,,,,,,5,,,,67,65
32340,note_on,40,0,12,,,,,,,,8,,,,33,65
32340,note_on,40,0,1,,,,,,,,10,,,,60,65
32340,note_on,160,0,9,,,,,,,,5,,,,60,65
32340,note_on,160,0,5,,,,,,,,1,,,,60,92
32340,note_on,0,0,5,,,,,,,,1,,,,67,92
32340,note_on,40,0,2,,,,,,,,10,,,,45,65
32340,note_on,40,0,7,,,,,,,,3,,,,45,77
32420,note_off,80,0,10,,,,,,,,6,,,,60,64
32420,note_off,80,0,8,,,,,,,,4,,,,33,64
32420,note_off,80,0,5,,,,,,,,1,,,,67,64
32420,note_off,80,0,6,,,,,,,,2,,,,60,64
32420,note_off,80,0,1,,,,,,,,10,,,,60,64
32420,note_off,80,0,2,,,,,,,,10,,,,45,64
32420,note_off,80,0,11,,,,,,,,7,,,,45,64
32420,note_off,80,0,12,,,,,,,,8,,,,33,64
32420,note_off,80,0,9,,,,,,,,5,,,,67,64
32420,note_off,0,0,5,,,,,,,,1,,,,60,64
32420,note_off,80,0,7,,,,,,,,3,,,,45,64
32420,note_off,0,0,9,,,,,,,,5,,,,60,64
32460,note_on,40,0,12,,,,,,,,8,,,,31,60
32460,note_on,40,0,8,,,,,,,,4,,,,31,69
32460,note_on,40,0,1,,,,,,,,10,,,,58,60
32460,note_on,40,0,10,,,,,,,,6,,,,58,60
32460,note_on,40,0,11,,,,,,,,7,,,,43,60
32460,note_on,40,0,6,,,,,,,,2,,,,58,69
32460,note_on,40,0,7,,,,,,,,3,,,,43,69
32460,note_on,40,0,2,,,,,,,,10,,,,43,60
32500,note_off,400,0,13,,,,,,,,11,,,,36,64
32540,note_off,80,0,7,,,,,,,,3,,,,43,64
32540,note_off,80,0,10,,,,,,,,6,,,,58,64
32540,note_off,80,0,1,,,,,,,,10,,,,58,64
32540,note_off,80,0,2,,,,,,,,10,,,,43,64
32540,note_off,80,0,11,,,,,,,,7,,,,43,64
32540,note_off,80,0,6,,,,,,,,2,,,,58,64
32540,note_off,80,0,12,,,,,,,,8,,,,31,64
32540,note_off,80,0,8,,,,,,,,4,,,,31,64
32580,note_on,40,0,11,,,,,,,,7,,,,41,55
32580,note_on,40,0,7,,,,,,,,3,,,,41,61
32580,note_on,160,0,5,,,,,,,,1,,,,60,76
32580,note_on,40,0,8,,,,,,,,4,,,,29,61
32580,note_on,0,0,5,,,,,,,,1,,,,67,76
32580,note_on,160,0,9,,,,,,,,5,,,,60,55
32580,note_on,0,0,9,,,,,,,,5,,,,67,55
32580,note_on,40,0,10,,,,,,,,6,,,,57,55
32580,note_on,40,0,6,,,,,,,,2,,,,57,61
32580,note_on,40,0,2,,,,,,,,10,,,,41,55
32580,note_on,40,0,12,,,,,,,,8,,,,29,55
32580,note_on,40,0,1,,,,,,,,10,,,,57,55
32660,note_off,80,0,8,,,,,,,,4,,,,29,64
32660,note_off,0,0,5,,,,,,,,1,,,,60,64
32660,note_off,80,0,5,,,,,,,,1,,,,67,64
32660,note_off,0,0,9,,,,,,,,5,,,,60,64
32660,note_off,80,0,6,,,,,,,,2,,,,57,64
32660,note_off,80,0,2,,,,,,,,10,,,,41,64
32660,note_off,80,0,11,,,,,,,,7,,,,41,64
32660,note_off,80,0,9,,,,,,,,5,,,,67,64
32660,note_off,80,0,12,,,,,,,,8,,,,29,64
32660,note_off,80,0,10,,,,,,,,6,,,,57,64
32660,note_off,80,0,1,,,,,,,,10,,,,57,64
32660,note_off,80,0,7,,,,,,,,3,,,,41,64
32700,note_on,40,0,7,,,,,,,,3,,,,40,53
32700,note_on,40,0,12,,,,,,,,8,,,,28,50
32700,note_on,40,0,2,,,,,,,,10,,,,40,50
32700,note_on,40,0,10,,,,,,,,6,,,,55,50
32700,note_on,40,0,6,,,,,,,,2,,,,55,53
32700,note_on,40,0,1,,,,,,,,10,,,,55,50
32700,note_on,40,0,8,,,,,,,,4,,,,28,53
32700,note_on,40,0,11,,,,,,,,7,,,,40,50
32780,note_off,80,0,7,,,,,,,,3,,,,40,64
32780,note_off,80,0,6,,,,,,,,2,,,,55,64
32780,note_off,80,0,2,,,,,,,,10,,,,40,64
32780,note_off,80,0,11,,,,,,,,7,,,,40,64
32780,note_off,80,0,8,,,,,,,,4,,,,28,64
32780,note_off,80,0,1,,,,,,,,10,,,,55,64
32780,note_off,80,0,12,,,,,,,,8,,,,28,64
32780,note_off,80,0,10,,,,,,,,6,,,,55,64
32820,note_on,320,0,13,,,,,,,,11,,,,41,45
32820,note_on,40,0,6,,,,,,,,2,,,,57,45
32820,note_on,40,0,2,,,,,,,,10,,,,41,45
32820,note_on,40,0,12,,,,,,,,8,,,,29,45
32820,note_on,160,0,5,,,,,,,,1,,,,65,60
32820,note_on,160,0,9,,,,,,,,5,,,,65,45
32820,note_on,40,0,7,,,,,,,,3,,,,41,45
32820,note_on,40,0,8,,,,,,,,4,,,,29,45
32820,note_on,40,0,11,,,,,,,,7,,,,41,45
32820,note_on,40,0,10,,,,,,,,6,,,,57,45
32995,note_off,175,0,9,,,,,,,,5,,,,65,64
32995,note_off,175,0,5,,,,,,,,1,,,,65,64
33000,note_on,5,0,9,,,,,,,,5,,,,72,45
33000,note_on,5,0,5,,,,,,,,1,,,,72,60
33040,note_off,40,0,5,,,,,,,,1,,,,72,64
33040,note_off,40,0,9,,,,,,,,5,,,,72,64
33055,note_off,235,0,11,,,,,,,,7,,,,41,64
33055,note_off,235,0,6,,,,,,,,2,,,,57,64
33055,note_off,235,0,2,,,,,,,,10,,,,41,64
33055,note_off,235,0,10,,,,,,,,6,,,,57,64
33055,note_off,235,0,8,,,,,,,,4,,,,29,64
33055,note_off,235,0,12,,,,,,,,8,,,,29,64
33055,note_off,235,0,7,,,,,,,,3,,,,41,64
33060,note_on,20,0,5,,,,,,,,1,,,,65,60
33060,note_on,5,0,6,,,,,,,,2,,,,60,45
33060,note_on,20,0,9,,,,,,,,5,,,,65,45
33060,note_on,5,0,2,,,,,,,,10,,,,53,45
33060,note_on,280,0,1,,,,,,,,10,,,,57,45
33060,note_on,5,0,11,,,,,,,,7,,,,53,45
33060,note_on,5,0,10,,,,,,,,6,,,,60,45
33060,note_on,5,0,7,,,,,,,,3,,,,53,45
33060,note_on,5,0,8,,,,,,,,4,,,,41,45
33060,note_on,5,0,12,,,,,,,,8,,,,41,45
33140,note_off,80,0,1,,,,,,,,10,,,,57,64
33140,note_off,80,0,11,,,,,,,,7,,,,53,64
33140,note_off,80,0,9,,,,,,,,5,,,,65,64
33140,note_off,80,0,10,,,,,,,,6,,,,60,64
33140,note_off,80,0,7,,,,,,,,3,,,,53,64
33140,note_off,80,0,5,,,,,,,,1,,,,65,64
33140,note_off,80,0,6,,,,,,,,2,,,,60,64
33140,note_off,80,0,8,,,,,,,,4,,,,41,64
33140,note_off,80,0,2,,,,,,,,10,,,,53,64
33140,note_off,80,0,12,,,,,,,,8,,,,41,64
33180,note_on,40,0,1,,,,,,,,10,,,,60,45
33220,note_off,400,0,13,,,,,,,,11,,,,41,64
33260,note_off,80,0,1,,,,,,,,10,,,,60,64
33300,note_on,160,0,12,,,,,,,,8,,,,41,45
33300,note_on,160,0,5,,,,,,,,1,,,,65,60
33300,note_on,40,0,1,,,,,,,,10,,,,57,45
33300,note_on,160,0,9,,,,,,,,5,,,,65,45
33300,note_on,160,0,7,,,,,,,,3,,,,53,45
33300,note_on,160,0,10,,,,,,,,6,,,,57,45
33300,note_on,160,0,8,,,,,,,,4,,,,41,45
33300,note_on,160,0,11,,,,,,,,7,,,,53,45
33300,note_on,160,0,2,,,,,,,,10,,,,53,45
33300,note_on,160,0,6,,,,,,,,2,,,,57,45
33380,note_off,80,0,8,,,,,,,,4,,,,41,64
33380,note_off,80,0,7,,,,,,,,3,,,,53,64
33380,note_off,80,0,2,,,,,,,,10,,,,53,64
33380,note_off,80,0,6,,,,,,,,2,,,,57,64
33380,note_off,80,0,9,,,,,,,,5,,,,65,64
33380,note_off,80,0,1,,,,,,,,10,,,,57,64
33380,note_off,80,0,10,,,,,,,,6,,,,57,64
33380,note_off,80,0,5,,,,,,,,1,,,,65,64
33380,note_off,80,0,11,,,,,,,,7,,,,53,64
33380,note_off,80,0,12,,,,,,,,8,,,,41,64
33420,note_on,40,0,1,,,,,,,,10,,,,60,45
33500,note_off,80,0,1,,,,,,,,10,,,,60,64
33540,note_on,160,0,10,,,,,,,,6,,,,57,45
33540,note_on,160,0,7,,,,,,,,3,,,,41,45
33540,note_on,160,0,8,,,,,,,,4,,,,29,45
33540,note_on,320,0,13,,,,,,,,11,,,,41,45
33540,note_on,160,0,2,,,,,,,,10,,,,41,45
33540,note_on,160,0,5,,,,,,,,1,,,,65,60
33540,note_on,160,0,6,,,,,,,,2,,,,57,45
33540,note_on,160,0,11,,,,,,,,7,,,,41,45
33540,note_on,160,0,12,,,,,,,,8,,,,29,45
33540,note_on,160,0,9,,,,,,,,5,,,,65,45
33715,note_off,175,0,5,,,,,,,,1,,,,65,64
33715,note_off,175,0,9,,,,,,,,5,,,,65,64
33720,note_on,5,0,5,,,,,,,,1,,,,72,60
33720,note_on,5,0,9,,,,,,,,5,,,,72,45
33760,note_off,40,0,5,,,,,,,,1,,,,72,64
33760,note_off,40,0,9,,,,,,,,5,,,,72,64
33775,note_off,235,0,10,,,,,,,,6,,,,57,64
33775,note_off,235,0,2,,,,,,,,10,,,,41,64
33775,note_off,235,0,12,,,,,,,,8,,,,29,64
33775,note_off,235,0,8,,,,,,,,4,,,,29,64
33775,note_off,235,0,7,,,,,,,,3,,,,41,64
33775,note_off,235,0,11,,,,,,,,7,,,,41,64
33775,note_off,235,0,6,,,,,,,,2,,,,57,64
33780,note_on,5,0,10,,,,,,,,6,,,,60,45
33780,note_on,280,0,1,,,,,,,,10,,,,57,45
33780,note_on,5,0,2,,,,,,,,10,,,,53,45
33780,note_on,5,0,7,,,,,,,,3,,,,53,45
33780,note_on,5,0,11,,,,,,,,7,,,,53,45
33780,note_on,20,0,5,,,,,,,,1,,,,65,60
33780,note_on,5,0,12,,,,,,,,8,,,,41,45
33780,note_on,5,0,6,,,,,,,,2,,,,60,45
33780,note_on,5,0,8,,,,,,,,4,,,,41,45
33780,note_on,20,0,9,,,,,,,,5,,,,65,45
33860,note_off,80,0,12,,,,,,,,8,,,,41,64
33860,note_off,80,0,11,,,,,,,,7,,,,53,64
33860,note_off,80,0,1,,,,,,,,10,,,,57,64
33860,note_off,80,0,7,,,,,,,,3,,,,53,64
33860,note_off,80,0,6,,,,,,,,2,,,,60,64
33860,note_off,80,0,9,,,,,,,,5,,,,65,64
33860,note_off,80,0,2,,,,,,,,10,,,,53,64
33860,note_off,80,0,8,,,,,,,,4,,,,41,64
33860,note_off,80,0,5,,,,,,,,1,,,,65,64
33860,note_off,80,0,10,,,,,,,,6,,,,60,64
33900,note_on,40,0,1,,,,,,,,10,,,,60,45
33940,note_off,400,0,13,,,,,,,,11,,,,41,64
33980,note_off,80,0,1,,,,,,,,10,,,,60,64
34020,note_on,160,0,11,,,,,,,,7,,,,53,45
34020,note_on,160,0,10,,,,,,,,6,,,,57,45
34020,note_on,160,0,12,,,,,,,,8,,,,41,45
34020,note_on,160,0,8,,,,,,,,4,,,,41,45
34020,note_on,160,0,5,,,,,,,,1,,,,65,60
34020,note_on,160,0,9,,,,,,,,5,,,,65,45
34020,note_on,40,0,1,,,,,,,,10,,,,57,45
34020,note_on,160,0,6,,,,,,,,2,,,,57,45
34020,note_on,160,0,7,,,,,,,,3,,,,53,45
34020,note_on,160,0,2,,,,,,,,10,,,,53,45
34100,note_off,80,0,9,,,,,,,,5,,,,65,64
34100,note_off,80,0,7,,,,,,,,3,,,,53,64
34100,note_off,80,0,12,,,,,,,,8,,,,41,64
34100,note_off,80,0,11,,,,,,,,7,,,,53,64
34100,note_off,80,0,1,,,,,,,,10,,,,57,64
34100,note_off,80,0,6,,,,,,,,2,,,,57,64
34100,note_off,80,0,8,,,,,,,,4,,,,41,64
34100,note_off,80,0,2,,,,,,,,10,,,,53,64
34100,note_off,80,0,10,,,,,,,,6,,,,57,64
34100,note_off,80,0,5,,,,,,,,1,,,,65,64
34140,note_on,40,0,1,,,,,,,,10,,,,60,45
34220,note_off,80,0,1,,,,,,,,10,,,,60,64
34260,note_on,320,0,13,,,,,,,,11,,,,41,45
34260,note_on,160,0,7,,,,,,,,3,,,,41,45
34260,note_on,160,0,2,,,,,,,,10,,,,41,45
34260,note_on,160,0,10,,,,,,,,6,,,,57,45
34260,note_on,160,0,12,,,,,,,,8,,,,29,45
34260,note_on,160,0,11,,,,,,,,7,,,,41,45
34260,note_on,0,0,1,,,,,,,,10,,,,65,45
34260,note_on,0,0,1,,,,,,,,10,,,,60,45
34260,note_on,160,0,9,,,,,,,,5,,,,65,45
34260,note_on,160,0,6,,,,,,,,2,,,,57,45
34260,note_on,160,0,8,,,,,,,,4,,,,29,45
34260,note_on,160,0,5,,,,,,,,1,,,,65,60
34260,note_on,40,0,1,,,,,,,,10,,,,57,45
34435,note_off,175,0,9,,,,,,,,5,,,,65,64
34435,note_off,175,0,8,,,,,,,,4,,,,29,64
34435,note_off,175,0,11,,,,,,,,7,,,,41,64
34435,note_off,175,0,12,,,,,,,,8,,,,29,64
34435,note_off,175,0,5,,,,,,,,1,,,,65,64
34435,note_off,175,0,7,,,,,,,,3,,,,41,64
34435,note_off,175,0,2,,,,,,,,10,,,,41,64
34440,note_on,5,0,12,,,,,,,,8,,,,41,45
34440,note_on,5,0,8,,,,,,,,4,,,,41,45
34440,note_on,5,0,2,,,,,,,,10,,,,53,45
34440,note_on,5,0,9,,,,,,,,5,,,,69,45
34440,note_on,5,0,11,,,,,,,,7,,,,53,45
34440,note_on,5,0,7,,,,,,,,3,,,,53,45
34440,note_on,5,0,5,,,,,,,,1,,,,69,60
34480,note_off,40,0,5,,,,,,,,1,,,,69,64
34480,note_off,40,0,8,,,,,,,,4,,,,41,64
34480,note_off,40,0,7,,,,,,,,3,,,,53,64
34480,note_off,40,0,9,,,,,,,,5,,,,69,64
34480,note_off,40,0,2,,,,,,,,10,,,,53,64
34480,note_off,40,0,11,,,,,,,,7,,,,53,64
34480,note_off,40,0,12,,,,,,,,8,,,,41,64
34495,note_off,235,0,6,,,,,,,,2,,,,57,64
34495,note_off,0,0,1,,,,,,,,10,,,,60,64
34495,note_off,0,0,1,,,,,,,,10,,,,57,64
34495,note_off,235,0,10,,,,,,,,6,,,,57,64
34495,note_off,235,0,13,,,,,,,,11,,,,41,64
34495,note_off,235,0,1,,,,,,,,10,,,,65,64
34500,note_on,5,0,6,,,,,,,,2,,,,62,45
34500,note_on,5,0,13,,,,,,,,11,,,,34,45
34500,note_on,20,0,8,,,,,,,,4,,,,34,45
34500,note_on,20,0,11,,,,,,,,7,,,,46,45
34500,note_on,20,0,5,,,,,,,,1,,,,70,60
34500,note_on,20,0,2,,,,,,,,10,,,,46,45
34500,note_on,5,0,1,,,,,,,,10,,,,62,45
34500,note_on,5,0,10,,,,,,,,6,,,,62,45
34500,note_on,20,0,9,,,,,,,,5,,,,70,45
34500,note_on,20,0,7,,,,,,,,3,,,,46,45
34500,note_on,20,0,12,,,,,,,,8,,,,34,45
34580,note_off,80,0,1,,,,,,,,10,,,,62,64
34580,note_off,80,0,7,,,,,,,,3,,,,46,64
34580,note_off,80,0,11,,,,,,,,7,,,,46,64
34580,note_off,80,0,5,,,,,,,,1,,,,70,64
34580,note_off,80,0,8,,,,,,,,4,,,,34,64
34580,note_off,80,0,2,,,,,,,,10,,,,46,64
34580,note_off,80,0,12,,,,,,,,8,,,,34,64
34580,note_off,80,0,10,,,,,,,,6,,,,62,64
34580,note_off,80,0,9,,,,,,,,5,,,,70,64
34580,note_off,80,0,6,,,,,,,,2,,,,62,64
34735,note_off,235,0,13,,,,,,,,11,,,,34,64
34740,note_on,160,0,5,,,,,,,,1,,,,64,60
34740,note_on,160,0,1,,,,,,,,10,,,,60,45
34740,note_on,160,0,8,,,,,,,,4,,,,36,45
34740,note_on,160,0,2,,,,,,,,10,,,,48,45
34740,note_on,0,0,5,,,,,,,,1,,,,67,60
34740,note_on,160,0,7,,,,,,,,3,,,,48,45
34740,note_on,160,0,6,,,,,,,,2,,,,60,45
34740,note_on,160,0,9,,,,,,,,5,,,,64,45
34740,note_on,160,0,12,,,,,,,,8,,,,36,45
34740,note_on,160,0,11,,,,,,,,7,,,,48,45
34740,note_on,160,0,10,,,,,,,,6,,,,60,45
34740,note_on,5,0,13,,,,,,,,11,,,,36,45
34740,note_on,0,0,9,,,,,,,,5,,,,67,45
34820,note_off,0,0,9,,,,,,,,5,,,,64,64
34820,note_off,0,0,5,,,,,,,,1,,,,64,64
34820,note_off,80,0,7,,,,,,,,3,,,,48,64
34820,note_off,80,0,5,,,,,,,,1,,,,67,64
34820,note_off,80,0,6,,,,,,,,2,,,,60,64
34820,note_off,80,0,9,,,,,,,,5,,,,67,64
34820,note_off,80,0,1,,,,,,,,10,,,,60,64
34820,note_off,80,0,10,,,,,,,,6,,,,60,64
34820,note_off,80,0,12,,,,,,,,8,,,,36,64
34820,note_off,80,0,11,,,,,,,,7,,,,48,64
34820,note_off,80,0,8,,,,,,,,4,,,,36,64
34820,note_off,80,0,2,,,,,,,,10,,,,48,64
34975,note_off,235,0,13,,,,,,,,11,,,,36,64
34980,note_on,160,0,6,,,,,,,,2,,,,57,45
34980,note_on,160,0,11,,,,,,,,7,,,,41,45
34980,note_on,160,0,5,,,,,,,,1,,,,65,60
34980,note_on,0,0,5,,,,,,,,1,,,,69,60
34980,note_on,160,0,9,,,,,,,,5,,,,65,45
34980,note_on,5,0,13,,,,,,,,11,,,,41,45
34980,note_on,160,0,10,,,,,,,,6,,,,57,45
34980,note_on,160,0,2,,,,,,,,10,,,,41,30
34980,note_on,0,0,9,,,,,,,,5,,,,69,45
34980,note_on,160,0,8,,,,,,,,4,,,,29,45
34980,note_on,160,0,1,,,,,,,,10,,,,57,30
34980,note_on,160,0,12,,,,,,,,8,,,,29,45
34980,note_on,5045,0,4,,,,,,,,12,,,,72,60
34980,note_on,0,0,4,,,,,,,,12,,,,77,60
34980,note_on,5045,0,3,,,,,,,,0,,,,72,75
34980,note_on,0,0,3,,,,,,,,0,,,,77,75
34980,note_on,160,0,7,,,,,,,,3,,,,41,45
34980,note_on,0,0,1,,,,,,,,10,,,,60,30
34980,note_on,0,0,1,,,,,,,,10,,,,65,30
35215,note_off,0,0,3,,,,,,,,0,,,,72,64
35215,note_off,235,0,3,,,,,,,,0,,,,77,64
35215,note_off,235,0,4,,,,,,,,12,,,,77,64
35215,note_off,0,0,4,,,,,,,,12,,,,72,64
35220,note_on,0,0,3,,,,,,,,0,,,,72,75
35220,note_on,5,0,4,,,,,,,,12,,,,69,60
35220,note_on,0,0,4,,,,,,,,12,,,,72,60
35220,note_on,5,0,3,,,,,,,,0,,,,69,75
35300,note_off,80,0,4,,,,,,,,12,,,,72,64
35300,note_off,80,0,3,,,,,,,,0,,,,72,64
35300,note_off,0,0,4,,,,,,,,12,,,,69,64
35300,note_off,0,0,3,,,,,,,,0,,,,69,64
35340,note_on,40,0,3,,,,,,,,0,,,,69,75
35340,note_on,0,0,3,,,,,,,,0,,,,72,75
35340,note_on,40,0,4,,,,,,,,12,,,,69,60
35340,note_on,0,0,4,,,,,,,,12,,,,72,60
35380,note_off,400,0,10,,,,,,,,6,,,,57,64
35380,note_off,400,0,2,,,,,,,,10,,,,41,64
35380,note_off,400,0,8,,,,,,,,4,,,,29,64
35380,note_off,400,0,11,,,,,,,,7,,,,41,64
35380,note_off,400,0,7,,,,,,,,3,,,,41,64
35380,note_off,0,0,1,,,,,,,,10,,,,60,64
35380,note_off,400,0,13,,,,,,,,11,,,,41,64
35380,note_off,400,0,5,,,,,,,,1,,,,69,64
35380,note_off,400,0,6,,,,,,,,2,,,,57,64
35380,note_off,0,0,9,,,,,,,,5,,,,65,64
35380,note_off,400,0,9,,,,,,,,5,,,,69,64
35380,note_off,400,0,1,,,,,,,,10,,,,65,64
35380,note_off,400,0,12,,,,,,,,8,,,,29,64
35380,note_off,0,0,5,,,,,,,,1,,,,65,64
35380,note_off,0,0,1,,,,,,,,10,,,,57,64
35420,note_off,0,0,4,,,,,,,,12,,,,69,64
35420,note_off,80,0,4,,,,,,,,12,,,,72,64
35420,note_off,80,0,3,,,,,,,,0,,,,72,64
35420,note_off,0,0,3,,,,,,,,0,,,,69,64
35460,note_on,0,0,3,,,,,,,,0,,,,69,75
35460,note_on,40,0,3,,,,,,,,0,,,,65,75
35460,note_on,0,0,4,,,,,,,,12,,,,69,60
35460,note_on,40,0,4,,,,,,,,12,,,,65,60
35540,note_off,80,0,3,,,,,,,,0,,,,69,64
35540,note_off,0,0,3,,,,,,,,0,,,,65,64
35540,note_off,80,0,4,,,,,,,,12,,,,69,64
35540,note_off,0,0,4,,,,,,,,12,,,,65,64
35580,note_on,40,0,3,,,,,,,,0,,,,60,75
35580,note_on,0,0,4,,,,,,,,12,,,,65,60
35580,note_on,0,0,3,,,,,,,,0,,,,65,75
35580,note_on,40,0,4,,,,,,,,12,,,,60,60
35660,note_off,80,0,4,,,,,,,,12,,,,65,64
35660,note_off,0,0,4,,,,,,,,12,,,,60,64
35660,note_off,0,0,3,,,,,,,,0,,,,60,64
35660,note_off,80,0,3,,,,,,,,0,,,,65,64
35700,note_on,0,0,6,,,,,,,,2,,,,69,60
35700,note_on,0,0,3,,,,,,,,0,,,,65,75
35700,note_on,40,0,3,,,,,,,,0,,,,57,75
35700,note_on,320,0,10,,,,,,,,6,,,,65,60
35700,note_on,0,0,10,,,,,,,,6,,,,69,60
35700,note_on,320,0,6,,,,,,,,2,,,,65,60
35700,note_on,320,0,8,,,,,,,,4,,,,29,60
35700,note_on,320,0,12,,,,,,,,8,,,,29,60
35700,note_on,40,0,4,,,,,,,,12,,,,57,60
35700,note_on,0,0,4,,,,,,,,12,,,,65,60
35700,note_on,320,0,13,,,,,,,,11,,,,41,60
35700,note_on,320,0,11,,,,,,,,7,,,,41,60
35700,note_on,320,0,7,,,,,,,,3,,,,41,60
35780,note_off,0,0,3,,,,,,,,0,,,,57,64
35780,note_off,80,0,3,,,,,,,,0,,,,65,64
35780,note_off,80,0,4,,,,,,,,12,,,,65,64
35780,note_off,0,0,4,,,,,,,,12,,,,57,64
35780,note_off,80,0,12,,,,,,,,8,,,,29,64
35780,note_off,80,0,7,,,,,,,,3,,,,41,64
35780,note_off,80,0,11,,,,,,,,7,,,,41,64
35780,note_off,80,0,8,,,,,,,,4,,,,29,64
35820,note_on,40,0,3,,,,,,,,0,,,,60,75
35820,note_on,40,0,4,,,,,,,,12,,,,60,60
35820,note_on,0,0,3,,,,,,,,0,,,,65,75
35820,note_on,0,0,4,,,,,,,,12,,,,65,60
35900,note_off,80,0,3,,,,,,,,0,,,,65,64
35900,note_off,0,0,4,,,,,,,,12,,,,60,64
35900,note_off,0,0,3,,,,,,,,0,,,,60,64
35900,note_off,80,0,4,,,,,,,,12,,,,65,64
35935,note_off,235,0,10,,,,,,,,6,,,,69,64
35935,note_off,0,0,10,,,,,,,,6,,,,65,64
35935,note_off,235,0,13,,,,,,,,11,,,,41,64
35935,note_off,235,0,6,,,,,,,,2,,,,69,64
35935,note_off,0,0,6,,,,,,,,2,,,,65,64
35940,note_on,160,0,12,,,,,,,,8,,,,41,60
35940,note_on,0,0,10,,,,,,,,6,,,,69,60
35940,note_on,0,0,3,,,,,,,,0,,,,65,75
35940,note_on,5,0,6,,,,,,,,2,,,,65,60
35940,note_on,0,0,6,,,,,,,,2,,,,69,60
35940,note_on,40,0,3,,,,,,,,0,,,,57,75
35940,note_on,5,0,13,,,,,,,,11,,,,29,60
35940,note_on,5,0,10,,,,,,,,6,,,,65,60
35940,note_on,160,0,11,,,,,,,,7,,,,53,60
35940,note_on,0,0,4,,,,,,,,12,,,,65,60
35940,note_on,160,0,7,,,,,,,,3,,,,53,60
35940,note_on,160,0,8,,,,,,,,4,,,,41,60
35940,note_on,40,0,4,,,,,,,,12,,,,57,60
36020,note_off,80,0,11,,,,,,,,7,,,,53,64
36020,note_off,0,0,6,,,,,,,,2,,,,65,64
36020,note_off,80,0,6,,,,,,,,2,,,,69,64
36020,note_off,80,0,7,,,,,,,,3,,,,53,64
36020,note_off,80,0,8,,,,,,,,4,,,,41,64
36020,note_off,0,0,4,,,,,,,,12,,,,57,64
36020,note_off,80,0,4,,,,,,,,12,,,,65,64
36020,note_off,80,0,3,,,,,,,,0,,,,65,64
36020,note_off,80,0,12,,,,,,,,8,,,,41,64
36020,note_off,80,0,10,,,,,,,,6,,,,69,64
36020,note_off,0,0,10,,,,,,,,6,,,,65,64
36020,note_off,0,0,3,,,,,,,,0,,,,57,64
36060,note_on,40,0,3,,,,,,,,0,,,,60,75
36060,note_on,0,0,3,,,,,,,,0,,,,65,75
36060,note_on,40,0,4,,,,,,,,12,,,,60,60
36060,note_on,0,0,4,,,,,,,,12,,,,65,60
36060,note_on,0,0,6,,,,,,,,2,,,,69,60
36060,note_on,40,0,6,,,,,,,,2,,,,65,60
36060,note_on,40,0,10,,,,,,,,6,,,,65,60
36060,note_on,0,0,10,,,,,,,,6,,,,69,60
36140,note_off,0,0,3,,,,,,,,0,,,,60,64
36140,note_off,0,0,10,,,,,,,,6,,,,65,64
36140,note_off,0,0,6,,,,,,,,2,,,,65,64
36140,note_off,0,0,4,,,,,,,,12,,,,60,64
36140,note_off,80,0,3,,,,,,,,0,,,,65,64
36140,note_off,80,0,4,,,,,,,,12,,,,65,64
36140,note_off,80,0,6,,,,,,,,2,,,,69,64
36140,note_off,80,0,10,,,,,,,,6,,,,69,64
36175,note_off,235,0,13,,,,,,,,11,,,,29,64
36180,note_on,0,0,3,,,,,,,,0,,,,65,75
36180,note_on,40,0,3,,,,,,,,0,,,,57,75
36180,note_on,160,0,8,,,,,,,,4,,,,29,60
36180,note_on,40,0,6,,,,,,,,2,,,,65,60
36180,note_on,0,0,6,,,,,,,,2,,,,69,60
36180,note_on,160,0,12,,,,,,,,8,,,,29,60
36180,note_on,0,0,4,,,,,,,,12,,,,65,60
36180,note_on,40,0,4,,,,,,,,12,,,,57,60
36180,note_on,160,0,11,,,,,,,,7,,,,41,60
36180,note_on,5,0,13,,,,,,,,11,,,,41,60
36180,note_on,160,0,7,,,,,,,,3,,,,41,60
36180,note_on,40,0,10,,,,,,,,6,,,,65,60
36180,note_on,0,0,10,,,,,,,,6,,,,69,60
36260,note_off,0,0,4,,,,,,,,12,,,,57,64
36260,note_off,80,0,4,,,,,,,,12,,,,65,64
36260,note_off,80,0,11,,,,,,,,7,,,,41,64
36260,note_off,80,0,3,,,,,,,,0,,,,65,64
36260,note_off,0,0,3,,,,,,,,0,,,,57,64
36260,note_off,0,0,10,,,,,,,,6,,,,65,64
36260,note_off,80,0,7,,,,,,,,3,,,,41,64
36260,note_off,80,0,10,,,,,,,,6,,,,69,64
36260,note_off,80,0,12,,,,,,,,8,,,,29,64
36260,note_off,80,0,8,,,,,,,,4,,,,29,64
36260,note_off,80,0,6,,,,,,,,2,,,,69,64
36260,note_off,0,0,6,,,,,,,,2,,,,65,64
36300,note_on,0,0,3,,,,,,,,0,,,,65,75
36300,note_on,40,0,3,,,,,,,,0,,,,60,75
36300,note_on,0,0,4,,,,,,,,12,,,,65,60
36300,note_on,40,0,6,,,,,,,,2,,,,65,60
36300,note_on,40,0,10,,,,,,,,6,,,,65,60
36300,note_on,40,0,4,,,,,,,,12,,,,60,60
36300,note_on,0,0,10,,,,,,,,6,,,,69,60
36300,note_on,0,0,6,,,,,,,,2,,,,69,60
36380,note_off,80,0,10,,,,,,,,6,,,,69,64
36380,note_off,0,0,4,,,,,,,,12,,,,60,64
36380,note_off,80,0,3,,,,,,,,0,,,,65,64
36380,note_off,0,0,3,,,,,,,,0,,,,60,64
36380,note_off,0,0,6,,,,,,,,2,,,,65,64
36380,note_off,80,0,6,,,,,,,,2,,,,69,64
36380,note_off,0,0,10,,,,,,,,6,,,,65,64
36380,note_off,80,0,4,,,,,,,,12,,,,65,64
36415,note_off,235,0,13,,,,,,,,11,,,,41,64
36420,note_on,160,0,11,,,,,,,,7,,,,41,60
36420,note_on,0,0,4,,,,,,,,12,,,,77,60
36420,note_on,40,0,4,,,,,,,,12,,,,72,60
36420,note_on,160,0,12,,,,,,,,8,,,,29,60
36420,note_on,160,0,8,,,,,,,,4,,,,29,60
36420,note_on,160,0,7,,,,,,,,3,,,,41,60
36420,note_on,40,0,3,,,,,,,,0,,,,72,75
36420,note_on,5,0,13,,,,,,,,11,,,,41,60
36420,note_on,0,0,3,,,,,,,,0,,,,77,75
36655,note_off,0,0,4,,,,,,,,12,,,,72,64
36655,note_off,235,0,4,,,,,,,,12,,,,77,64
36655,note_off,0,0,3,,,,,,,,0,,,,72,64
36655,note_off,235,0,3,,,,,,,,0,,,,77,64
36660,note_on,5,0,4,,,,,,,,12,,,,69,60
36660,note_on,0,0,4,,,,,,,,12,,,,72,60
36660,note_on,0,0,3,,,,,,,,0,,,,72,75
36660,note_on,5,0,3,,,,,,,,0,,,,69,75
36740,note_off,80,0,4,,,,,,,,12,,,,72,64
36740,note_off,0,0,4,,,,,,,,12,,,,69,64
36740,note_off,80,0,3,,,,,,,,0,,,,72,64
36740,note_off,0,0,3,,,,,,,,0,,,,69,64
36780,note_on,0,0,4,,,,,,,,12,,,,72,60
36780,note_on,40,0,4,,,,,,,,12,,,,69,60
36780,note_on,40,0,3,,,,,,,,0,,,,69,75
36780,note_on,0,0,3,,,,,,,,0,,,,72,75
36820,note_off,400,0,7,,,,,,,,3,,,,41,64
36820,note_off,400,0,11,,,,,,,,7,,,,41,64
36820,note_off,400,0,12,,,,,,,,8,,,,29,64
36820,note_off,400,0,13,,,,,,,,11,,,,41,64
36820,note_off,400,0,8,,,,,,,,4,,,,29,64
36860,note_off,80,0,3,,,,,,,,0,,,,72,64
36860,note_off,80,0,4,,,,,,,,12,,,,72,64
36860,note_off,0,0,4,,,,,,,,12,,,,69,64
36860,note_off,0,0,3,,,,,,,,0,,,,69,64
36900,note_on,40,0,3,,,,,,,,0,,,,65,75
36900,note_on,0,0,4,,,,,,,,12,,,,69,60
36900,note_on,40,0,4,,,,,,,,12,,,,65,60
36900,note_on,0,0,3,,,,,,,,0,,,,69,75
36980,note_off,80,0,3,,,,,,,,0,,,,69,64
36980,note_off,80,0,4,,,,,,,,12,,,,69,64
36980,note_off,0,0,4,,,,,,,,12,,,,65,64
36980,note_off,0,0,3,,,,,,,,0,,,,65,64
37020,note_on,0,0,4,,,,,,,,12,,,,65,60
37020,note_on,40,0,3,,,,,,,,0,,,,60,75
37020,note_on,0,0,3,,,,,,,,0,,,,65,75
37020,note_on,40,0,4,,,,,,,,12,,,,60,60
37100,note_off,80,0,4,,,,,,,,12,,,,65,64
37100,note_off,0,0,3,,,,,,,,0,,,,60,64
37100,note_off,0,0,4,,,,,,,,12,,,,60,64
37100,note_off,80,0,3,,,,,,,,0,,,,65,64
37140,note_on,0,0,10,,,,,,,,6,,,,69,60
37140,note_on,320,0,13,,,,,,,,11,,,,41,60
37140,note_on,760,0,6,,,,,,,,2,,,,65,60
37140,note_on,0,0,4,,,,,,,,12,,,,65,60
37140,note_on,40,0,4,,,,,,,,12,,,,57,60
37140,note_on,320,0,7,,,,,,,,3,,,,41,60
37140,note_on,320,0,12,,,,,,,,8,,,,29,60
37140,note_on,0,0,3,,,,,,,,0,,,,65,75
37140,note_on,760,0,10,,,,,,,,6,,,,65,60
37140,note_on,320,0,8,,,,,,,,4,,,,29,60
37140,note_on,40,0,3,,,,,,,,0,,,,57,75
37140,note_on,320,0,11,,,,,,,,7,,,,41,60
37140,note_on,0,0,6,,,,,,,,2,,,,69,60
37220,note_off,80,0,12,,,,,,,,8,,,,29,64
37220,note_off,80,0,4,,,,,,,,12,,,,65,64
37220,note_off,0,0,4,,,,,,,,12,,,,57,64
37220,note_off,80,0,8,,,,,,,,4,,,,29,64
37220,note_off,80,0,11,,,,,,,,7,,,,41,64
37220,note_off,80,0,7,,,,,,,,3,,,,41,64
37220,note_off,80,0,3,,,,,,,,0,,,,65,64
37220,note_off,0,0,3,,,,,,,,0,,,,57,64
37260,note_on,0,0,4,,,,,,,,12,,,,65,60
37260,note_on,40,0,4,,,,,,,,12,,,,60,60
37260,note_on,40,0,3,,,,,,,,0,,,,60,75
37260,note_on,0,0,3,,,,,,,,0,,,,65,75
37340,note_off,80,0,4,,,,,,,,12,,,,65,64
37340,note_off,0,0,3,,,,,,,,0,,,,60,64
37340,note_off,80,0,3,,,,,,,,0,,,,65,64
37340,note_off,0,0,4,,,,,,,,12,,,,60,64
37375,note_off,0,0,10,,,,,,,,6,,,,65,64
37375,note_off,235,0,13,,,,,,,,11,,,,41,64
37375,note_off,235,0,10,,,,,,,,6,,,,69,64
37375,note_off,235,0,6,,,,,,,,2,,,,69,64
37375,note_off,0,0,6,,,,,,,,2,,,,65,64
37380,note_on,0,0,4,,,,,,,,12,,,,65,60
37380,note_on,160,0,11,,,,,,,,7,,,,53,60
37380,note_on,160,0,12,,,,,,,,8,,,,41,60
37380,note_on,160,0,7,,,,,,,,3,,,,53,60
37380,note_on,5,0,10,,,,,,,,6,,,,65,60
37380,note_on,160,0,8,,,,,,,,4,,,,41,60
37380,note_on,5,0,6,,,,,,,,2,,,,65,60
37380,note_on,40,0,4,,,,,,,,12,,,,57,60
37380,note_on,40,0,3,,,,,,,,0,,,,57,75
37380,note_on,0,0,10,,,,,,,,6,,,,69,60
37380,note_on,0,0,3,,,,,,,,0,,,,65,75
37380,note_on,5,0,13,,,,,,,,11,,,,29,60
37380,note_on,0,0,6,,,,,,,,2,,,,69,60
37460,note_off,80,0,11,,,,,,,,7,,,,53,64
37460,note_off,80,0,6,,,,,,,,2,,,,69,64
37460,note_off,80,0,12,,,,,,,,8,,,,41,64
37460,note_off,0,0,6,,,,,,,,2,,,,65,64
37460,note_off,80,0,4,,,,,,,,12,,,,65,64
37460,note_off,80,0,7,,,,,,,,3,,,,53,64
37460,note_off,0,0,3,,,,,,,,0,,,,57,64
37460,note_off,80,0,3,,,,,,,,0,,,,65,64
37460,note_off,80,0,8,,,,,,,,4,,,,41,64
37460,note_off,0,0,10,,,,,,,,6,,,,65,64
37460,note_off,0,0,4,,,,,,,,12,,,,57,64
37460,note_off,80,0,10,,,,,,,,6,,,,69,64
37500,note_on,40,0,6,,,,,,,,2,,,,65,60
37500,note_on,40,0,4,,,,,,,,12,,,,60,60
37500,note_on,0,0,4,,,,,,,,12,,,,65,60
37500,note_on,0,0,6,,,,,,,,2,,,,69,60
37500,note_on,40,0,3,,,,,,,,0,,,,60,75
37500,note_on,0,0,3,,,,,,,,0,,,,65,75
37500,note_on,40,0,10,,,,,,,,6,,,,65,60
37500,note_on,0,0,10,,,,,,,,6,,,,69,60
37580,note_off,80,0,3,,,,,,,,0,,,,65,64
37580,note_off,0,0,4,,,,,,,,12,,,,60,64
37580,note_off,80,0,4,,,,,,,,12,,,,65,64
37580,note_off,0,0,6,,,,,,,,2,,,,65,64
37580,note_off,80,0,6,,,,,,,,2,,,,69,64
37580,note_off,0,0,10,,,,,,,,6,,,,65,64
37580,note_off,0,0,3,,,,,,,,0,,,,60,64
37580,note_off,80,0,10,,,,,,,,6,,,,69,64
37615,note_off,235,0,13,,,,,,,,11,,,,29,64
37620,note_on,0,0,10,,,,,,,,6,,,,69,60
37620,note_on,40,0,10,,,,,,,,6,,,,65,60
37620,note_on,160,0,8,,,,,,,,4,,,,29,60
37620,note_on,40,0,4,,,,,,,,12,,,,57,60
37620,note_on,40,0,3,,,,,,,,0,,,,57,75
37620,note_on,40,0,6,,,,,,,,2,,,,65,60
37620,note_on,0,0,6,,,,,,,,2,,,,69,60
37620,note_on,5,0,13,,,,,,,,11,,,,41,60
37620,note_on,160,0,7,,,,,,,,3,,,,41,60
37620,note_on,160,0,11,,,,,,,,7,,,,41,60
37620,note_on,0,0,4,,,,,,,,12,,,,65,60
37620,note_on,0,0,3,,,,,,,,0,,,,65,75
37620,note_on,160,0,12,,,,,,,,8,,,,29,60
37700,note_off,0,0,10,,,,,,,,6,,,,65,64
37700,note_off,0,0,3,,,,,,,,0,,,,57,64
37700,note_off,80,0,12,,,,,,,,8,,,,29,64
37700,note_off,80,0,8,,,,,,,,4,,,,29,64
37700,note_off,80,0,3,,,,,,,,0,,,,65,64
37700,note_off,80,0,10,,,,,,,,6,,,,69,64
37700,note_off,80,0,7,,,,,,,,3,,,,41,64
37700,note_off,80,0,11,,,,,,,,7,,,,41,64
37700,note_off,80,0,6,,,,,,,,2,,,,69,64
37700,note_off,0,0,6,,,,,,,,2,,,,65,64
37700,note_off,80,0,4,,,,,,,,12,,,,65,64
37700,note_off,0,0,4,,,,,,,,12,,,,57,64
37740,note_on,40,0,10,,,,,,,,6,,,,65,60
37740,note_on,0,0,10,,,,,,,,6,,,,69,60
37740,note_on,40,0,6,,,,,,,,2,,,,65,60
37740,note_on,0,0,6,,,,,,,,2,,,,69,60
37740,note_on,40,0,4,,,,,,,,12,,,,60,60
37740,note_on,0,0,4,,,,,,,,12,,,,65,60
37740,note_on,40,0,3,,,,,,,,0,,,,60,75
37740,note_on,0,0,3,,,,,,,,0,,,,65,75
37820,note_off,80,0,4,,,,,,,,12,,,,65,64
37820,note_off,0,0,10,,,,,,,,6,,,,65,64
37820,note_off,80,0,10,,,,,,,,6,,,,69,64
37820,note_off,0,0,4,,,,,,,,12,,,,60,64
37820,note_off,80,0,3,,,,,,,,0,,,,65,64
37820,note_off,80,0,6,,,,,,,,2,,,,69,64
37820,note_off,0,0,6,,,,,,,,2,,,,65,64
37820,note_off,0,0,3,,,,,,,,0,,,,60,64
37855,note_off,235,0,13,,,,,,,,11,,,,41,64
37860,note_on,160,0,7,,,,,,,,3,,,,53,60
37860,note_on,0,0,6,,,,,,,,2,,,,69,60
37860,note_on,2480,0,2,,,,,,,,10,,,,53,60
37860,note_on,5,0,13,,,,,,,,11,,,,41,60
37860,note_on,160,0,12,,,,,,,,8,,,,41,60
37860,note_on,40,0,3,,,,,,,,0,,,,72,75
37860,note_on,0,0,3,,,,,,,,0,,,,77,75
37860,note_on,40,0,6,,,,,,,,2,,,,65,60
37860,note_on,40,0,10,,,,,,,,6,,,,65,60
37860,note_on,0,0,6,,,,,,,,2,,,,72,60
37860,note_on,0,0,10,,,,,,,,6,,,,72,60
37860,note_on,160,0,11,,,,,,,,7,,,,53,60
37860,note_on,40,0,4,,,,,,,,12,,,,72,60
37860,note_on,0,0,4,,,,,,,,12,,,,77,60
37860,note_on,0,0,10,,,,,,,,6,,,,69,60
37860,note_on,160,0,8,,,,,,,,4,,,,41,60
38095,note_off,235,0,3,,,,,,,,0,,,,77,64
38095,note_off,0,0,3,,,,,,,,0,,,,72,64
38095,note_off,0,0,4,,,,,,,,12,,,,72,64
38095,note_off,235,0,4,,,,,,,,12,,,,77,64
38100,note_on,5,0,3,,,,,,,,0,,,,69,75
38100,note_on,0,0,3,,,,,,,,0,,,,77,75
38100,note_on,2720,0,1,,,,,,,,10,,,,65,92
38100,note_on,0,0,4,,,,,,,,12,,,,77,60
38100,note_on,5,0,4,,,,,,,,12,,,,69,60
38180,note_off,80,0,4,,,,,,,,12,,,,77,64
38180,note_off,80,0,3,,,,,,,,0,,,,77,64
38180,note_off,0,0,4,,,,,,,,12,,,,69,64
38180,note_off,0,0,3,,,,,,,,0,,,,69,64
38220,note_on,40,0,3,,,,,,,,0,,,,69,75
38220,note_on,0,0,3,,,,,,,,0,,,,77,75
38220,note_off,120,0,1,,,,,,,,10,,,,65,64
38220,note_on,0,0,4,,,,,,,,12,,,,77,60
38220,note_on,0,0,1,,,,,,,,10,,,,69,92
38220,note_on,40,0,4,,,,,,,,12,,,,69,60
38260,note_off,400,0,7,,,,,,,,3,,,,53,64
38260,note_off,0,0,10,,,,,,,,6,,,,65,64
38260,note_off,400,0,12,,,,,,,,8,,,,41,64
38260,note_off,400,0,13,,,,,,,,11,,,,41,64
38260,note_off,400,0,8,,,,,,,,4,,,,41,64
38260,note_off,0,0,10,,,,,,,,6,,,,69,64
38260,note_off,400,0,6,,,,,,,,2,,,,72,64
38260,note_off,400,0,11,,,,,,,,7,,,,53,64
38260,note_off,0,0,6,,,,,,,,2,,,,69,64
38260,note_off,0,0,6,,,,,,,,2,,,,65,64
38260,note_off,400,0,2,,,,,,,,10,,,,53,64
38260,note_off,400,0,10,,,,,,,,6,,,,72,64
38300,note_off,80,0,3,,,,,,,,0,,,,77,64
38300,note_off,80,0,4,,,,,,,,12,,,,77,64
38300,note_off,0,0,4,,,,,,,,12,,,,69,64
38300,note_off,0,0,3,,,,,,,,0,,,,69,64
38340,note_off,120,0,1,,,,,,,,10,,,,69,64
38340,note_on,0,0,1,,,,,,,,10,,,,72,92
38340,note_on,0,0,4,,,,,,,,12,,,,69,60
38340,note_on,40,0,3,,,,,,,,0,,,,65,75
38340,note_on,0,0,3,,,,,,,,0,,,,69,75
38340,note_on,40,0,4,,,,,,,,12,,,,65,60
38420,note_off,0,0,4,,,,,,,,12,,,,65,64
38420,note_off,0,0,3,,,,,,,,0,,,,65,64
38420,note_off,80,0,3,,,,,,,,0,,,,69,64
38420,note_off,80,0,4,,,,,,,,12,,,,69,64
38460,note_on,0,0,3,,,,,,,,0,,,,69,75
38460,note_on,40,0,4,,,,,,,,12,,,,65,60
38460,note_on,40,0,3,,,,,,,,0,,,,65,75
38460,note_on,0,0,4,,,,,,,,12,,,,69,60
38460,note_on,0,0,1,,,,,,,,10,,,,77,92
38460,note_off,120,0,1,,,,,,,,10,,,,72,64
38540,note_off,0,0,3,,,,,,,,0,,,,65,64
38540,note_off,80,0,3,,,,,,,,0,,,,69,64
38540,note_off,80,0,4,,,,,,,,12,,,,69,64
38540,note_off,0,0,4,,,,,,,,12,,,,65,64
38580,note_on,320,0,7,,,,,,,,3,,,,46,60
38580,note_on,320,0,13,,,,,,,,11,,,,34,60
38580,note_on,320,0,8,,,,,,,,4,,,,34,60
38580,note_on,320,0,11,,,,,,,,7,,,,46,60
38580,note_on,40,0,4,,,,,,,,12,,,,74,60
38580,note_on,0,0,4,,,,,,,,12,,,,77,60
38580,note_on,0,0,10,,,,,,,,6,,,,70,60
38580,note_on,0,0,10,,,,,,,,6,,,,74,60
38580,note_on,320,0,12,,,,,,,,8,,,,34,60
38580,note_off,120,0,1,,,,,,,,10,,,,77,64
38580,note_on,320,0,6,,,,,,,,2,,,,67,60
38580,note_on,0,0,6,,,,,,,,2,,,,74,60
38580,note_on,320,0,2,,,,,,,,10,,,,46,60
38580,note_on,40,0,3,,,,,,,,0,,,,74,75
38580,note_on,0,0,3,,,,,,,,0,,,,77,75
38580,note_on,0,0,6,,,,,,,,2,,,,70,60
38580,note_on,320,0,10,,,,,,,,6,,,,67,60
38695,note_off,0,0,4,,,,,,,,12,,,,74,64
38695,note_off,115,0,4,,,,,,,,12,,,,77,64
38695,note_off,115,0,3,,,,,,,,0,,,,77,64
38695,note_off,0,0,3,,,,,,,,0,,,,74,64
38700,note_on,5,0,3,,,,,,,,0,,,,72,75
38700,note_on,0,0,3,,,,,,,,0,,,,77,75
38700,note_on,0,0,4,,,,,,,,12,,,,77,60
38700,note_on,5,0,4,,,,,,,,12,,,,72,60
38780,note_off,0,0,3,,,,,,,,0,,,,72,64
38780,note_off,80,0,3,,,,,,,,0,,,,77,64
38780,note_off,0,0,4,,,,,,,,12,,,,72,64
38780,note_off,80,0,4,,,,,,,,12,,,,77,64
38820,note_on,40,0,3,,,,,,,,0,,,,70,75
38820,note_on,0,0,3,,,,,,,,0,,,,77,75
38820,note_on,240,0,1,,,,,,,,10,,,,67,92
38820,note_on,0,0,4,,,,,,,,12,,,,77,60
38820,note_on,40,0,4,,,,,,,,12,,,,70,60
38900,note_off,80,0,3,,,,,,,,0,,,,77,64
38900,note_off,0,0,3,,,,,,,,0,,,,70,64
38900,note_off,0,0,4,,,,,,,,12,,,,70,64
38900,note_off,80,0,4,,,,,,,,12,,,,77,64
38940,note_on,0,0,1,,,,,,,,10,,,,70,92
38940,note_on,0,0,3,,,,,,,,0,,,,77,75
38940,note_on,40,0,4,,,,,,,,12,,,,70,60
38940,note_on,0,0,4,,,,,,,,12,,,,77,60
38940,note_off,120,0,1,,,,,,,,10,,,,67,64
38940,note_on,40,0,3,,,,,,,,0,,,,70,75
38980,note_off,400,0,7,,,,,,,,3,,,,46,64
38980,note_off,400,0,10,,,,,,,,6,,,,74,64
38980,note_off,0,0,10,,,,,,,,6,,,,70,64
38980,note_off,400,0,8,,,,,,,,4,,,,34,64
38980,note_off,0,0,10,,,,,,,,6,,,,67,64
38980,note_off,400,0,13,,,,,,,,11,,,,34,64
38980,note_off,0,0,6,,,,,,,,2,,,,67,64
38980,note_off,400,0,2,,,,,,,,10,,,,46,64
38980,note_off,400,0,6,,,,,,,,2,,,,74,64
38980,note_off,0,0,6,,,,,,,,2,,,,70,64
38980,note_off,400,0,11,,,,,,,,7,,,,46,64
38980,note_off,400,0,12,,,,,,,,8,,,,34,64
39020,note_off,0,0,4,,,,,,,,12,,,,70,64
39020,note_off,80,0,4,,,,,,,,12,,,,77,64
39020,note_off,0,0,3,,,,,,,,0,,,,70,64
39020,note_off,80,0,3,,,,,,,,0,,,,77,64
39060,note_on,0,0,3,,,,,,,,0,,,,70,75
39060,note_on,0,0,4,,,,,,,,12,,,,70,60
39060,note_on,40,0,4,,,,,,,,12,,,,65,60
39060,note_on,0,0,1,,,,,,,,10,,,,74,92
39060,note_off,120,0,1,,,,,,,,10,,,,70,64
39060,note_on,40,0,3,,,,,,,,0,,,,65,75
39140,note_off,0,0,4,,,,,,,,12,,,,65,64
39140,note_off,80,0,4,,,,,,,,12,,,,70,64
39140,note_off,0,0,3,,,,,,,,0,,,,65,64
39140,note_off,80,0,3,,,,,,,,0,,,,70,64
39180,note_on,0,0,4,,,,,,,,12,,,,70,60
39180,note_on,40,0,4,,,,,,,,12,,,,65,60
39180,note_on,0,0,1,,,,,,,,10,,,,79,92
39180,note_off,120,0,1,,,,,,,,10,,,,74,64
39180,note_on,0,0,3,,,,,,,,0,,,,70,75
39180,note_on,40,0,3,,,,,,,,0,,,,65,75
39260,note_off,80,0,4,,,,,,,,12,,,,70,64
39260,note_off,0,0,3,,,,,,,,0,,,,65,64
39260,note_off,0,0,4,,,,,,,,12,,,,65,64
39260,note_off,80,0,3,,,,,,,,0,,,,70,64
39300,note_on,0,0,6,,,,,,,,2,,,,74,60
39300,note_on,320,0,7,,,,,,,,3,,,,47,60
39300,note_on,320,0,13,,,,,,,,11,,,,35,60
39300,note_off,120,0,1,,,,,,,,10,,,,79,64
39300,note_on,320,0,6,,,,,,,,2,,,,67,60
39300,note_on,40,0,3,,,,,,,,0,,,,74,75
39300,note_on,320,0,11,,,,,,,,7,,,,47,60
39300,note_on,320,0,10,,,,,,,,6,,,,67,60
39300,note_on,0,0,10,,,,,,,,6,,,,74,60
39300,note_on,320,0,12,,,,,,,,8,,,,35,60
39300,note_on,320,0,8,,,,,,,,4,,,,35,60
39300,note_on,0,0,4,,,,,,,,12,,,,79,60
39300,note_on,40,0,4,,,,,,,,12,,,,74,60
39300,note_on,320,0,2,,,,,,,,10,,,,47,60
39300,note_on,0,0,3,,,,,,,,0,,,,79,75
39535,note_off,0,0,4,,,,,,,,12,,,,74,64
39535,note_off,235,0,4,,,,,,,,12,,,,79,64
39535,note_off,0,0,3,,,,,,,,0,,,,74,64
39535,note_off,235,0,3,,,,,,,,0,,,,79,64
39540,note_on,0,0,4,,,,,,,,12,,,,79,60
39540,note_on,5,0,4,,,,,,,,12,,,,71,60
39540,note_on,5,0,3,,,,,,,,0,,,,71,75
39540,note_on,240,0,1,,,,,,,,10,,,,67,92
39540,note_on,0,0,3,,,,,,,,0,,,,79,75
39620,note_off,0,0,4,,,,,,,,12,,,,71,64
39620,note_off,80,0,4,,,,,,,,12,,,,79,64
39620,note_off,80,0,3,,,,,,,,0,,,,79,64
39620,note_off,0,0,3,,,,,,,,0,,,,71,64
39660,note_on,0,0,3,,,,,,,,0,,,,79,75
39660,note_on,0,0,1,,,,,,,,10,,,,71,92
39660,note_off,120,0,1,,,,,,,,10,,,,67,64
39660,note_on,40,0,4,,,,,,,,12,,,,71,60
39660,note_on,0,0,4,,,,,,,,12,,,,79,60
39660,note_on,40,0,3,,,,,,,,0,,,,71,75
39700,note_off,400,0,13,,,,,,,,11,,,,35,64
39700,note_off,400,0,8,,,,,,,,4,,,,35,64
39700,note_off,400,0,10,,,,,,,,6,,,,74,64
39700,note_off,0,0,10,,,,,,,,6,,,,67,64
39700,note_off,400,0,12,,,,,,,,8,,,,35,64
39700,note_off,400,0,7,,,,,,,,3,,,,47,64
39700,note_off,0,0,6,,,,,,,,2,,,,67,64
39700,note_off,400,0,6,,,,,,,,2,,,,74,64
39700,note_off,400,0,11,,,,,,,,7,,,,47,64
39700,note_off,400,0,2,,,,,,,,10,,,,47,64
39740,note_off,0,0,3,,,,,,,,0,,,,71,64
39740,note_off,80,0,4,,,,,,,,12,,,,79,64
39740,note_off,0,0,4,,,,,,,,12,,,,71,64
39740,note_off,80,0,3,,,,,,,,0,,,,79,64
39780,note_on,40,0,4,,,,,,,,12,,,,67,60
39780,note_on,0,0,4,,,,,,,,12,,,,71,60
39780,note_on,40,0,3,,,,,,,,0,,,,67,75
39780,note_off,120,0,1,,,,,,,,10,,,,71,64
39780,note_on,0,0,3,,,,,,,,0,,,,71,75
39780,note_on,0,0,1,,,,,,,,10,,,,74,92
39860,note_off,0,0,4,,,,,,,,12,,,,67,64
39860,note_off,80,0,4,,,,,,,,12,,,,71,64
39860,note_off,0,0,3,,,,,,,,0,,,,67,64
39860,note_off,80,0,3,,,,,,,,0,,,,71,64
39900,note_on,0,0,4,,,,,,,,12,,,,71,60
39900,note_on,40,0,4,,,,,,,,12,,,,67,60
39900,note_on,40,0,3,,,,,,,,0,,,,67,75
39900,note_on,0,0,1,,,,,,,,10,,,,79,92
39900,note_on,0,0,3,,,,,,,,0,,,,71,75
39900,note_off,120,0,1,,,,,,,,10,,,,74,64
39980,note_off,80,0,3,,,,,,,,0,,,,71,64
39980,note_off,0,0,3,,,,,,,,0,,,,67,64
39980,note_off,0,0,4,,,,,,,,12,,,,67,64
39980,note_off,80,0,4,,,,,,,,12,,,,71,64
40020,note_on,0,0,3,,,,,,,,0,,,,79,75
40020,note_on,320,0,7,,,,,,,,3,,,,48,60
40020,note_on,0,0,6,,,,,,,,2,,,,76,60
40020,note_on,320,0,8,,,,,,,,4,,,,36,60
40020,note_on,320,0,2,,,,,,,,10,,,,48,60
40020,note_on,320,0,12,,,,,,,,8,,,,36,60
40020,note_on,0,0,10,,,,,,,,6,,,,76,60
40020,note_on,320,0,10,,,,,,,,6,,,,67,60
40020,note_on,320,0,13,,,,,,,,11,,,,36,60
40020,note_on,40,0,3,,,,,,,,0,,,,76,75
40020,note_on,320,0,6,,,,,,,,2,,,,67,60
40020,note_on,320,0,11,,,,,,,,7,,,,48,60
40020,note_off,120,0,1,,,,,,,,10,,,,79,64
40020,note_on,40,0,4,,,,,,,,12,,,,76,60
40020,note_on,0,0,4,,,,,,,,12,,,,79,60
40100,note_off,0,0,3,,,,,,,,0,,,,76,64
40100,note_off,80,0,3,,,,,,,,0,,,,79,64
40100,note_off,0,0,4,,,,,,,,12,,,,76,64
40100,note_off,80,0,4,,,,,,,,12,,,,79,64
40140,note_on,40,0,4,,,,,,,,12,,,,76,60
40140,note_on,40,0,3,,,,,,,,0,,,,76,75
40140,note_on,0,0,3,,,,,,,,0,,,,79,75
40140,note_on,0,0,4,,,,,,,,12,,,,79,60
40220,note_off,80,0,4,,,,,,,,12,,,,79,64
40220,note_off,0,0,3,,,,,,,,0,,,,76,64
40220,note_off,80,0,3,,,,,,,,0,,,,79,64
40220,note_off,0,0,4,,,,,,,,12,,,,76,64
40260,note_on,40,0,3,,,,,,,,0,,,,72,75
40260,note_on,0,0,3,,,,,,,,0,,,,79,75
40260,note_on,40,0,4,,,,,,,,12,,,,72,60
40260,note_on,0,0,4,,,,,,,,12,,,,79,60
40260,note_on,240,0,1,,,,,,,,10,,,,67,92
40340,note_off,80,0,4,,,,,,,,12,,,,79,64
40340,note_off,0,0,4,,,,,,,,12,,,,72,64
40340,note_off,0,0,3,,,,,,,,0,,,,72,64
40340,note_off,80,0,3,,,,,,,,0,,,,79,64
40380,note_on,40,0,4,,,,,,,,12,,,,72,60
40380,note_on,0,0,4,,,,,,,,12,,,,79,60
40380,note_off,120,0,1,,,,,,,,10,,,,67,64
40380,note_on,40,0,3,,,,,,,,0,,,,72,75
40380,note_on,0,0,1,,,,,,,,10,,,,72,92
40380,note_on,0,0,3,,,,,,,,0,,,,79,75
40420,note_off,400,0,11,,,,,,,,7,,,,48,64
40420,note_off,0,0,10,,,,,,,,6,,,,67,64
40420,note_off,400,0,10,,,,,,,,6,,,,76,64
40420,note_off,400,0,7,,,,,,,,3,,,,48,64
40420,note_off,400,0,13,,,,,,,,11,,,,36,64
40420,note_off,0,0,6,,,,,,,,2,,,,67,64
40420,note_off,400,0,6,,,,,,,,2,,,,76,64
40420,note_off,400,0,8,,,,,,,,4,,,,36,64
40420,note_off,400,0,12,,,,,,,,8,,,,36,64
40420,note_off,400,0,2,,,,,,,,10,,,,48,64
40460,note_off,80,0,4,,,,,,,,12,,,,79,64
40460,note_off,0,0,4,,,,,,,,12,,,,72,64
40460,note_off,0,0,3,,,,,,,,0,,,,72,64
40460,note_off,80,0,3,,,,,,,,0,,,,79,64
40500,note_on,40,0,4,,,,,,,,12,,,,67,60
40500,note_on,0,0,4,,,,,,,,12,,,,72,60
40500,note_on,0,0,3,,,,,,,,0,,,,72,75
40500,note_off,120,0,1,,,,,,,,10,,,,72,64
40500,note_on,0,0,1,,,,,,,,10,,,,76,92
40500,note_on,40,0,3,,,,,,,,0,,,,67,75
40580,note_off,0,0,4,,,,,,,,12,,,,67,64
40580,note_off,80,0,4,,,,,,,,12,,,,72,64
40580,note_off,0,0,3,,,,,,,,0,,,,67,64
40580,note_off,80,0,3,,,,,,,,0,,,,72,64
40620,note_on,0,0,3,,,,,,,,0,,,,72,75
40620,note_on,40,0,3,,,,,,,,0,,,,67,75
40620,note_off,120,0,1,,,,,,,,10,,,,76,64
40620,note_on,40,0,4,,,,,,,,12,,,,67,60
40620,note_on,0,0,4,,,,,,,,12,,,,72,60
40620,note_on,0,0,1,,,,,,,,10,,,,79,92
40700,note_off,0,0,3,,,,,,,,0,,,,67,64
40700,note_off,80,0,4,,,,,,,,12,,,,72,64
40700,note_off,0,0,4,,,,,,,,12,,,,67,64
40700,note_off,80,0,3,,,,,,,,0,,,,72,64
40740,note_on,0,0,6,,,,,,,,2,,,,76,60
40740,note_off,120,0,1,,,,,,,,10,,,,79,64
40740,note_on,320,0,12,,,,,,,,8,,,,37,60
40740,note_on,40,0,4,,,,,,,,12,,,,76,60
40740,note_on,0,0,4,,,,,,,,12,,,,81,60
40740,note_on,320,0,8,,,,,,,,4,,,,37,60
40740,note_on,320,0,6,,,,,,,,2,,,,69,60
40740,note_on,320,0,2,,,,,,,,10,,,,49,60
40740,note_on,40,0,3,,,,,,,,0,,,,76,75
40740,note_on,0,0,3,,,,,,,,0,,,,81,75
40740,note_on,320,0,13,,,,,,,,11,,,,37,60
40740,note_on,0,0,10,,,,,,,,6,,,,76,60
40740,note_on,320,0,7,,,,,,,,3,,,,49,60
40740,note_on,320,0,11,,,,,,,,7,,,,49,60
40740,note_on,320,0,10,,,,,,,,6,,,,69,60
40975,note_off,235,0,3,,,,,,,,0,,,,81,64
40975,note_off,0,0,3,,,,,,,,0,,,,76,64
40975,note_off,0,0,4,,,,,,,,12,,,,76,64
40975,note_off,235,0,4,,,,,,,,12,,,,81,64
40980,note_on,240,0,1,,,,,,,,10,,,,69,92
40980,note_on,5,0,3,,,,,,,,0,,,,73,75
40980,note_on,0,0,3,,,,,,,,0,,,,81,75
40980,note_on,0,0,4,,,,,,,,12,,,,81,60
40980,note_on,5,0,4,,,,,,,,12,,,,73,60
41060,note_off,80,0,4,,,,,,,,12,,,,81,64
41060,note_off,0,0,3,,,,,,,,0,,,,73,64
41060,note_off,80,0,3,,,,,,,,0,,,,81,64
41060,note_off,0,0,4,,,,,,,,12,,,,73,64
41100,note_on,40,0,3,,,,,,,,0,,,,73,75
41100,note_off,120,0,1,,,,,,,,10,,,,69,64
41100,note_on,40,0,4,,,,,,,,12,,,,73,60
41100,note_on,0,0,4,,,,,,,,12,,,,81,60
41100,note_on,0,0,3,,,,,,,,0,,,,81,75
41100,note_on,0,0,1,,,,,,,,10,,,,73,92
41140,note_off,0,0,10,,,,,,,,6,,,,69,64
41140,note_off,400,0,8,,,,,,,,4,,,,37,64
41140,note_off,400,0,12,,,,,,,,8,,,,37,64
41140,note_off,400,0,11,,,,,,,,7,,,,49,64
41140,note_off,0,0,6,,,,,,,,2,,,,69,64
41140,note_off,400,0,13,,,,,,,,11,,,,37,64
41140,note_off,400,0,6,,,,,,,,2,,,,76,64
41140,note_off,400,0,2,,,,,,,,10,,,,49,64
41140,note_off,400,0,7,,,,,,,,3,,,,49,64
41140,note_off,400,0,10,,,,,,,,6,,,,76,64
41180,note_off,0,0,3,,,,,,,,0,,,,73,64
41180,note_off,80,0,3,,,,,,,,0,,,,81,64
41180,note_off,80,0,4,,,,,,,,12,,,,81,64
41180,note_off,0,0,4,,,,,,,,12,,,,73,64
41220,note_on,0,0,3,,,,,,,,0,,,,73,75
41220,note_on,40,0,4,,,,,,,,12,,,,69,60
41220,note_on,0,0,4,,,,,,,,12,,,,73,60
41220,note_on,40,0,3,,,,,,,,0,,,,69,75
41220,note_off,120,0,1,,,,,,,,10,,,,73,64
41220,note_on,0,0,1,,,,,,,,10,,,,76,92
41300,note_off,80,0,3,,,,,,,,0,,,,73,64
41300,note_off,0,0,3,,,,,,,,0,,,,69,64
41300,note_off,80,0,4,,,,,,,,12,,,,73,64
41300,note_off,0,0,4,,,,,,,,12,,,,69,64
41340,note_on,0,0,3,,,,,,,,0,,,,73,75
41340,note_on,0,0,4,,,,,,,,12,,,,73,60
41340,note_on,40,0,4,,,,,,,,12,,,,69,60
41340,note_on,0,0,1,,,,,,,,10,,,,81,92
41340,note_off,120,0,1,,,,,,,,10,,,,76,64
41340,note_on,40,0,3,,,,,,,,0,,,,69,75
41420,note_off,0,0,4,,,,,,,,12,,,,69,64
41420,note_off,80,0,3,,,,,,,,0,,,,73,64
41420,note_off,0,0,3,,,,,,,,0,,,,69,64
41420,note_off,80,0,4,,,,,,,,12,,,,73,64
41460,note_on,40,0,3,,,,,,,,0,,,,77,75
41460,note_on,0,0,3,,,,,,,,0,,,,81,75
41460,note_on,0,0,4,,,,,,,,12,,,,81,60
41460,note_on,320,0,11,,,,,,,,7,,,,50,60
41460,note_on,320,0,7,,,,,,,,3,,,,50,60
41460,note_on,320,0,10,,,,,,,,6,,,,69,60
41460,note_on,0,0,10,,,,,,,,6,,,,76,60
41460,note_on,320,0,2,,,,,,,,10,,,,50,60
41460,note_on,40,0,4,,,,,,,,12,,,,77,60
41460,note_on,320,0,6,,,,,,,,2,,,,69,60
41460,note_on,320,0,12,,,,,,,,8,,,,38,60
41460,note_on,320,0,13,,,,,,,,11,,,,38,60
41460,note_on,0,0,6,,,,,,,,2,,,,76,60
41460,note_on,320,0,8,,,,,,,,4,,,,38,60
41460,note_off,120,0,1,,,,,,,,10,,,,81,64
41540,note_off,80,0,3,,,,,,,,0,,,,81,64
41540,note_off,0,0,3,,,,,,,,0,,,,77,64
41540,note_off,80,0,4,,,,,,,,12,,,,81,64
41540,note_off,0,0,4,,,,,,,,12,,,,77,64
41580,note_on,0,0,3,,,,,,,,0,,,,81,75
41580,note_on,40,0,4,,,,,,,,12,,,,77,60
41580,note_on,0,0,4,,,,,,,,12,,,,81,60
41580,note_on,40,0,3,,,,,,,,0,,,,77,75
41660,note_off,0,0,3,,,,,,,,0,,,,77,64
41660,note_off,80,0,3,,,,,,,,0,,,,81,64
41660,note_off,80,0,4,,,,,,,,12,,,,81,64
41660,note_off,0,0,4,,,,,,,,12,,,,77,64
41700,note_on,40,0,3,,,,,,,,0,,,,74,75
41700,note_on,240,0,1,,,,,,,,10,,,,69,92
41700,note_on,40,0,4,,,,,,,,12,,,,74,60
41700,note_on,0,0,3,,,,,,,,0,,,,81,75
41700,note_on,0,0,4,,,,,,,,12,,,,81,60
41780,note_off,0,0,3,,,,,,,,0,,,,74,64
41780,note_off,0,0,4,,,,,,,,12,,,,74,64
41780,note_off,80,0,4,,,,,,,,12,,,,81,64
41780,note_off,80,0,3,,,,,,,,0,,,,81,64
41820,note_on,40,0,3,,,,,,,,0,,,,74,75
41820,note_on,0,0,3,,,,,,,,0,,,,81,75
41820,note_on,0,0,1,,,,,,,,10,,,,74,92
41820,note_off,120,0,1,,,,,,,,10,,,,69,64
41820,note_on,0,0,4,,,,,,,,12,,,,81,60
41820,note_on,40,0,4,,,,,,,,12,,,,74,60
41860,note_off,0,0,6,,,,,,,,2,,,,69,64
41860,note_off,400,0,6,,,,,,,,2,,,,76,64
41860,note_off,400,0,8,,,,,,,,4,,,,38,64
41860,note_off,400,0,2,,,,,,,,10,,,,50,64
41860,note_off,400,0,10,,,,,,,,6,,,,76,64
41860,note_off,400,0,12,,,,,,,,8,,,,38,64
41860,note_off,400,0,11,,,,,,,,7,,,,50,64
41860,note_off,400,0,7,,,,,,,,3,,,,50,64
41860,note_off,400,0,13,,,,,,,,11,,,,38,64
41860,note_off,0,0,10,,,,,,,,6,,,,69,64
41900,note_off,0,0,3,,,,,,,,0,,,,74,64
41900,note_off,80,0,4,,,,,,,,12,,,,81,64
41900,note_off,0,0,4,,,,,,,,12,,,,74,64
41900,note_off,80,0,3,,,,,,,,0,,,,81,64
41940,note_off,120,0,1,,,,,,,,10,,,,74,64
41940,note_on,40,0,3,,,,,,,,0,,,,62,75
41940,note_on,0,0,3,,,,,,,,0,,,,74,75
41940,note_on,40,0,4,,,,,,,,12,,,,62,60
41940,note_on,0,0,4,,,,,,,,12,,,,74,60
41940,note_on,0,0,1,,,,,,,,10,,,,77,92
42020,note_off,0,0,4,,,,,,,,12,,,,62,64
42020,note_off,80,0,4,,,,,,,,12,,,,74,64
42020,note_off,80,0,3,,,,,,,,0,,,,74,64
42020,note_off,0,0,3,,,,,,,,0,,,,62,64
42060,note_on,0,0,4,,,,,,,,12,,,,74,60
42060,note_on,0,0,1,,,,,,,,10,,,,81,92
42060,note_on,40,0,3,,,,,,,,0,,,,62,75
42060,note_on,40,0,4,,,,,,,,12,,,,62,60
42060,note_on,0,0,3,,,,,,,,0,,,,74,75
42060,note_off,120,0,1,,,,,,,,10,,,,77,64
42140,note_off,80,0,3,,,,,,,,0,,,,74,64
42140,note_off,0,0,4,,,,,,,,12,,,,62,64
42140,note_off,0,0,3,,,,,,,,0,,,,62,64
42140,note_off,80,0,4,,,,,,,,12,,,,74,64
42175,note_off,115,0,1,,,,,,,,10,,,,81,64
42180,note_on,40,0,3,,,,,,,,0,,,,83,75
42180,note_on,0,0,10,,,,,,,,6,,,,71,60
42180,note_on,40,0,4,,,,,,,,12,,,,83,60
42180,note_on,320,0,8,,,,,,,,4,,,,31,60
42180,note_on,320,0,7,,,,,,,,3,,,,55,60
42180,note_on,0,0,10,,,,,,,,6,,,,67,60
42180,note_on,320,0,2,,,,,,,,10,,,,55,60
42180,note_on,320,0,11,,,,,,,,7,,,,55,60
42180,note_on,5,0,1,,,,,,,,10,,,,62,60
42180,note_on,0,0,1,,,,,,,,10,,,,67,60
42180,note_on,0,0,1,,,,,,,,10,,,,71,60
42180,note_on,320,0,10,,,,,,,,6,,,,62,60
42180,note_on,0,0,6,,,,,,,,2,,,,71,60
42180,note_on,0,0,6,,,,,,,,2,,,,67,60
42180,note_on,320,0,6,,,,,,,,2,,,,62,60
42180,note_on,320,0,13,,,,,,,,11,,,,31,45
42180,note_on,320,0,12,,,,,,,,8,,,,31,60
42220,note_on,0,0,3,,,,,,,,0,,,,77,75
42220,note_off,40,0,3,,,,,,,,0,,,,83,64
42220,note_off,40,0,4,,,,,,,,12,,,,83,64
42220,note_on,0,0,4,,,,,,,,12,,,,77,60
42260,note_on,0,0,4,,,,,,,,12,,,,67,60
42260,note_off,40,0,3,,,,,,,,0,,,,77,64
42260,note_on,0,0,3,,,,,,,,0,,,,67,75
42260,note_off,40,0,4,,,,,,,,12,,,,77,64
42300,note_off,40,0,3,,,,,,,,0,,,,67,64
42300,note_on,0,0,4,,,,,,,,12,,,,55,60
42300,note_on,0,0,3,,,,,,,,0,,,,55,75
42300,note_off,40,0,4,,,,,,,,12,,,,67,64
42340,note_on,0,0,3,,,,,,,,0,,,,67,75
42340,note_off,40,0,3,,,,,,,,0,,,,55,64
42340,note_on,0,0,4,,,,,,,,12,,,,67,60
42340,note_off,40,0,4,,,,,,,,12,,,,55,64
42380,note_on,0,0,3,,,,,,,,0,,,,77,75
42380,note_on,0,0,4,,,,,,,,12,,,,77,60
42380,note_off,40,0,3,,,,,,,,0,,,,67,64
42380,note_off,40,0,4,,,,,,,,12,,,,67,64
42415,note_off,35,0,4,,,,,,,,12,,,,77,64
42415,note_off,235,0,11,,,,,,,,7,,,,55,64
42415,note_off,35,0,3,,,,,,,,0,,,,77,64
42415,note_off,235,0,2,,,,,,,,10,,,,55,64
42415,note_off,235,0,7,,,,,,,,3,,,,55,64
42420,note_on,5,0,2,,,,,,,,10,,,,43,60
42420,note_on,5,0,11,,,,,,,,7,,,,43,60
42420,note_on,5,0,3,,,,,,,,0,,,,83,75
42420,note_on,5,0,7,,,,,,,,3,,,,43,60
42420,note_on,5,0,4,,,,,,,,12,,,,83,60
42460,note_off,40,0,3,,,,,,,,0,,,,83,64
42460,note_off,40,0,4,,,,,,,,12,,,,83,64
42460,note_on,0,0,4,,,,,,,,12,,,,77,60
42460,note_on,0,0,3,,,,,,,,0,,,,77,75
42500,note_on,0,0,3,,,,,,,,0,,,,67,75
42500,note_off,40,0,3,,,,,,,,0,,,,77,64
42500,note_off,40,0,4,,,,,,,,12,,,,77,64
42500,note_on,0,0,4,,,,,,,,12,,,,67,60
42535,note_off,115,0,11,,,,,,,,7,,,,43,64
42535,note_off,115,0,7,,,,,,,,3,,,,43,64
42535,note_off,115,0,2,,,,,,,,10,,,,43,64
42540,note_on,0,0,4,,,,,,,,12,,,,55,60
42540,note_on,5,0,2,,,,,,,,10,,,,43,60
42540,note_on,5,0,7,,,,,,,,3,,,,43,60
42540,note_on,0,0,3,,,,,,,,0,,,,55,75
42540,note_on,5,0,11,,,,,,,,7,,,,43,60
42540,note_off,40,0,3,,,,,,,,0,,,,67,64
42540,note_off,40,0,4,,,,,,,,12,,,,67,64
42580,note_on,0,0,3,,,,,,,,0,,,,67,75
42580,note_off,40,0,3,,,,,,,,0,,,,55,64
42580,note_off,40,0,4,,,,,,,,12,,,,55,64
42580,note_off,400,0,13,,,,,,,,11,,,,31,64
42580,note_on,0,0,4,,,,,,,,12,,,,67,60
42620,note_off,40,0,4,,,,,,,,12,,,,67,64
42620,note_on,0,0,3,,,,,,,,0,,,,77,75
42620,note_off,40,0,3,,,,,,,,0,,,,67,64
42620,note_on,0,0,4,,,,,,,,12,,,,77,60
42655,note_off,35,0,3,,,,,,,,0,,,,77,64
42655,note_off,115,0,11,,,,,,,,7,,,,43,64
42655,note_off,115,0,2,,,,,,,,10,,,,43,64
42655,note_off,35,0,4,,,,,,,,12,,,,77,64
42655,note_off,115,0,7,,,,,,,,3,,,,43,64
42660,note_on,5,0,7,,,,,,,,3,,,,43,60
42660,note_on,5,0,11,,,,,,,,7,,,,43,60
42660,note_on,5,0,2,,,,,,,,10,,,,43,60
42660,note_on,5,0,3,,,,,,,,0,,,,83,75
42660,note_on,5,0,4,,,,,,,,12,,,,83,60
42700,note_off,40,0,3,,,,,,,,0,,,,83,64
42700,note_on,0,0,4,,,,,,,,12,,,,77,60
42700,note_off,40,0,4,,,,,,,,12,,,,83,64
42700,note_on,0,0,3,,,,,,,,0,,,,77,75
42740,note_on,0,0,3,,,,,,,,0,,,,67,75
42740,note_off,40,0,3,,,,,,,,0,,,,77,64
42740,note_on,0,0,4,,,,,,,,12,,,,67,60
42740,note_off,40,0,4,,,,,,,,12,,,,77,64
42775,note_off,115,0,11,,,,,,,,7,,,,43,64
42775,note_off,115,0,2,,,,,,,,10,,,,43,64
42775,note_off,115,0,7,,,,,,,,3,,,,43,64
42780,note_on,0,0,4,,,,,,,,12,,,,55,60
42780,note_on,5,0,7,,,,,,,,3,,,,43,60
42780,note_off,40,0,3,,,,,,,,0,,,,67,64
42780,note_on,5,0,11,,,,,,,,7,,,,43,60
42780,note_on,5,0,2,,,,,,,,10,,,,43,60
42780,note_on,0,0,3,,,,,,,,0,,,,55,75
42780,note_off,40,0,4,,,,,,,,12,,,,67,64
42820,note_on,0,0,3,,,,,,,,0,,,,67,75
42820,note_off,40,0,3,,,,,,,,0,,,,55,64
42820,note_on,0,0,4,,,,,,,,12,,,,67,60
42820,note_off,40,0,4,,,,,,,,12,,,,55,64
42860,note_on,0,0,3,,,,,,,,0,,,,77,75
42860,note_on,0,0,4,,,,,,,,12,,,,77,60
42860,note_off,40,0,4,,,,,,,,12,,,,67,64
42860,note_off,40,0,3,,,,,,,,0,,,,67,64
42895,note_off,35,0,4,,,,,,,,12,,,,77,64
42895,note_off,115,0,11,,,,,,,,7,,,,43,64
42895,note_off,35,0,3,,,,,,,,0,,,,77,64
42895,note_off,115,0,7,,,,,,,,3,,,,43,64
42895,note_off,115,0,2,,,,,,,,10,,,,43,64
42900,note_on,5,0,3,,,,,,,,0,,,,86,75
42900,note_off,0,0,10,,,,,,,,6,,,,67,64
42900,note_off,720,0,1,,,,,,,,10,,,,71,64
42900,note_off,0,0,10,,,,,,,,6,,,,62,64
42900,note_on,0,0,10,,,,,,,,6,,,,62,60
42900,note_on,0,0,10,,,,,,,,6,,,,67,60
42900,note_on,0,0,10,,,,,,,,6,,,,71,60
42900,note_off,720,0,10,,,,,,,,6,,,,71,64
42900,note_on,0,0,6,,,,,,,,2,,,,67,60
42900,note_on,5,0,11,,,,,,,,7,,,,43,60
42900,note_off,0,0,6,,,,,,,,2,,,,62,64
42900,note_on,0,0,6,,,,,,,,2,,,,71,60
42900,note_on,0,0,6,,,,,,,,2,,,,62,60
42900,note_on,5,0,4,,,,,,,,12,,,,86,60
42900,note_on,5,0,2,,,,,,,,10,,,,43,60
42900,note_on,5,0,7,,,,,,,,3,,,,43,60
42900,note_off,0,0,6,,,,,,,,2,,,,67,64
42900,note_off,720,0,6,,,,,,,,2,,,,71,64
42900,note_on,0,0,1,,,,,,,,10,,,,62,92
42900,note_off,0,0,1,,,,,,,,10,,,,62,64
42900,note_off,0,0,1,,,,,,,,10,,,,67,64
42940,note_off,40,0,3,,,,,,,,0,,,,86,64
42940,note_off,40,0,4,,,,,,,,12,,,,86,64
42940,note_on,0,0,4,,,,,,,,12,,,,77,60
42940,note_on,0,0,3,,,,,,,,0,,,,77,75
42980,note_on,0,0,4,,,,,,,,12,,,,67,60
42980,note_off,40,0,4,,,,,,,,12,,,,77,64
42980,note_on,0,0,3,,,,,,,,0,,,,67,75
42980,note_off,40,0,3,,,,,,,,0,,,,77,64
43020,note_on,0,0,1,,,,,,,,10,,,,67,92
43020,note_off,40,0,4,,,,,,,,12,,,,67,64
43020,note_on,0,0,4,,,,,,,,12,,,,55,60
43020,note_off,120,0,1,,,,,,,,10,,,,62,64
43020,note_on,0,0,3,,,,,,,,0,,,,55,75
43020,note_off,40,0,3,,,,,,,,0,,,,67,64
43060,note_off,40,0,3,,,,,,,,0,,,,55,64
43060,note_on,0,0,3,,,,,,,,0,,,,67,75
43060,note_off,40,0,4,,,,,,,,12,,,,55,64
43060,note_on,0,0,4,,,,,,,,12,,,,67,60
43100,note_off,40,0,4,,,,,,,,12,,,,67,64
43100,note_off,40,0,3,,,,,,,,0,,,,67,64
43100,note_on,0,0,3,,,,,,,,0,,,,77,75
43100,note_on,0,0,4,,,,,,,,12,,,,77,60
43135,note_off,35,0,3,,,,,,,,0,,,,77,64
43135,note_off,35,0,4,,,,,,,,12,,,,77,64
43140,note_off,120,0,1,,,,,,,,10,,,,67,64
43140,note_on,5,0,3,,,,,,,,0,,,,86,75
43140,note_on,0,0,1,,,,,,,,10,,,,71,92
43140,note_on,5,0,4,,,,,,,,12,,,,86,60
43180,note_on,0,0,3,,,,,,,,0,,,,77,75
43180,note_off,40,0,4,,,,,,,,12,,,,86,64
43180,note_off,40,0,3,,,,,,,,0,,,,86,64
43180,note_on,0,0,4,,,,,,,,12,,,,77,60
43220,note_off,40,0,4,,,,,,,,12,,,,77,64
43220,note_on,0,0,4,,,,,,,,12,,,,67,60
43220,note_off,40,0,3,,,,,,,,0,,,,77,64
43220,note_on,0,0,3,,,,,,,,0,,,,67,75
43260,note_off,40,0,4,,,,,,,,12,,,,67,64
43260,note_on,0,0,4,,,,,,,,12,,,,55,60
43260,note_off,120,0,1,,,,,,,,10,,,,71,64
43260,note_on,0,0,1,,,,,,,,10,,,,74,92
43260,note_off,40,0,3,,,,,,,,0,,,,67,64
43260,note_on,0,0,3,,,,,,,,0,,,,55,75
43300,note_off,400,0,11,,,,,,,,7,,,,43,64
43300,note_off,400,0,2,,,,,,,,10,,,,43,64
43300,note_off,400,0,7,,,,,,,,3,,,,43,64
43300,note_on,0,0,3,,,,,,,,0,,,,67,75
43300,note_on,0,0,4,,,,,,,,12,,,,67,60
43300,note_off,40,0,4,,,,,,,,12,,,,55,64
43300,note_off,40,0,3,,,,,,,,0,,,,55,64
43340,note_on,0,0,3,,,,,,,,0,,,,77,75
43340,note_on,0,0,4,,,,,,,,12,,,,77,60
43340,note_off,40,0,4,,,,,,,,12,,,,67,64
43340,note_off,40,0,3,,,,,,,,0,,,,67,64
43375,note_off,35,0,3,,,,,,,,0,,,,77,64
43375,note_off,35,0,4,,,,,,,,12,,,,77,64
43380,note_on,5,0,3,,,,,,,,0,,,,86,75
43380,note_off,120,0,1,,,,,,,,10,,,,74,64
43380,note_on,0,0,1,,,,,,,,10,,,,71,92
43380,note_on,5,0,4,,,,,,,,12,,,,86,60
43420,note_off,40,0,3,,,,,,,,0,,,,86,64
43420,note_off,40,0,4,,,,,,,,12,,,,86,64
43420,note_on,0,0,3,,,,,,,,0,,,,77,75
43420,note_on,0,0,4,,,,,,,,12,,,,77,60
43460,note_on,0,0,4,,,,,,,,12,,,,67,60
43460,note_on,0,0,3,,,,,,,,0,,,,67,75
43460,note_off,40,0,3,,,,,,,,0,,,,77,64
43460,note_off,40,0,4,,,,,,,,12,,,,77,64
43500,note_on,0,0,3,,,,,,,,0,,,,55,75
43500,note_off,120,0,1,,,,,,,,10,,,,71,64
43500,note_off,40,0,3,,,,,,,,0,,,,67,64
43500,note_on,0,0,1,,,,,,,,10,,,,67,92
43500,note_off,40,0,4,,,,,,,,12,,,,67,64
43500,note_on,0,0,4,,,,,,,,12,,,,55,60
43540,note_on,0,0,4,,,,,,,,12,,,,67,60
43540,note_off,40,0,4,,,,,,,,12,,,,55,64
43540,note_off,40,0,3,,,,,,,,0,,,,55,64
43540,note_on,0,0,3,,,,,,,,0,,,,67,75
43580,note_on,0,0,3,,,,,,,,0,,,,77,75
43580,note_off,40,0,3,,,,,,,,0,,,,67,64
43580,note_on,0,0,4,,,,,,,,12,,,,77,60
43580,note_off,40,0,4,,,,,,,,12,,,,67,64
43615,note_off,35,0,3,,,,,,,,0,,,,77,64
43615,note_off,35,0,4,,,,,,,,12,,,,77,64
43615,note_off,115,0,1,,,,,,,,10,,,,67,64
43620,note_on,0,0,10,,,,,,,,6,,,,72,60
43620,note_off,0,0,10,,,,,,,,6,,,,62,64
43620,note_off,0,0,10,,,,,,,,6,,,,67,64
43620,note_on,0,0,10,,,,,,,,6,,,,64,60
43620,note_on,0,0,10,,,,,,,,6,,,,67,60
43620,note_on,320,0,11,,,,,,,,7,,,,55,60
43620,note_on,0,0,1,,,,,,,,10,,,,72,60
43620,note_on,0,0,6,,,,,,,,2,,,,67,60
43620,note_on,320,0,2,,,,,,,,10,,,,55,60
43620,note_on,5,0,4,,,,,,,,12,,,,86,60
43620,note_on,320,0,7,,,,,,,,3,,,,55,60
43620,note_on,0,0,6,,,,,,,,2,,,,72,60
43620,note_on,5,0,3,,,,,,,,0,,,,86,75
43620,note_on,0,0,6,,,,,,,,2,,,,64,60
43620,note_on,5,0,1,,,,,,,,10,,,,64,60
43620,note_off,0,0,6,,,,,,,,2,,,,67,64
43620,note_off,720,0,6,,,,,,,,2,,,,71,64
43620,note_on,0,0,1,,,,,,,,10,,,,67,60
43620,note_off,720,0,10,,,,,,,,6,,,,71,64
43620,note_off,0,0,6,,,,,,,,2,,,,62,64
43660,note_on,0,0,3,,,,,,,,0,,,,76,75
43660,note_off,40,0,4,,,,,,,,12,,,,86,64
43660,note_on,0,0,4,,,,,,,,12,,,,76,60
43660,note_off,40,0,3,,,,,,,,0,,,,86,64
43700,note_on,0,0,4,,,,,,,,12,,,,67,60
43700,note_off,40,0,3,,,,,,,,0,,,,76,64
43700,note_on,0,0,3,,,,,,,,0,,,,67,75
43700,note_off,40,0,4,,,,,,,,12,,,,76,64
43740,note_off,40,0,4,,,,,,,,12,,,,67,64
43740,note_on,0,0,4,,,,,,,,12,,,,55,60
43740,note_off,40,0,3,,,,,,,,0,,,,67,64
43740,note_on,0,0,3,,,,,,,,0,,,,55,75
43780,note_off,40,0,3,,,,,,,,0,,,,55,64
43780,note_on,0,0,3,,,,,,,,0,,,,67,75
43780,note_off,40,0,4,,,,,,,,12,,,,55,64
43780,note_on,0,0,4,,,,,,,,12,,,,67,60
43820,note_off,40,0,3,,,,,,,,0,,,,67,64
43820,note_on,0,0,3,,,,,,,,0,,,,76,75
43820,note_off,40,0,4,,,,,,,,12,,,,67,64
43820,note_on,0,0,4,,,,,,,,12,,,,76,60
43855,note_off,35,0,4,,,,,,,,12,,,,76,64
43855,note_off,235,0,11,,,,,,,,7,,,,55,64
43855,note_off,235,0,2,,,,,,,,10,,,,55,64
43855,note_off,235,0,7,,,,,,,,3,,,,55,64
43855,note_off,35,0,3,,,,,,,,0,,,,76,64
43860,note_on,5,0,2,,,,,,,,10,,,,43,60
43860,note_on,5,0,3,,,,,,,,0,,,,86,75
43860,note_on,5,0,11,,,,,,,,7,,,,43,60
43860,note_on,5,0,4,,,,,,,,12,,,,86,60
43860,note_on,5,0,7,,,,,,,,3,,,,43,60
43900,note_off,40,0,3,,,,,,,,0,,,,86,64
43900,note_off,40,0,4,,,,,,,,12,,,,86,64
43900,note_on,0,0,4,,,,,,,,12,,,,76,60
43900,note_on,0,0,3,,,,,,,,0,,,,76,75
43940,note_off,40,0,4,,,,,,,,12,,,,76,64
43940,note_on,0,0,4,,,,,,,,12,,,,67,60
43940,note_on,0,0,3,,,,,,,,0,,,,67,75
43940,note_off,40,0,3,,,,,,,,0,,,,76,64
43975,note_off,115,0,11,,,,,,,,7,,,,43,64
43975,note_off,115,0,7,,,,,,,,3,,,,43,64
43975,note_off,115,0,2,,,,,,,,10,,,,43,64
43980,note_on,5,0,11,,,,,,,,7,,,,43,60
43980,note_on,0,0,3,,,,,,,,0,,,,55,75
43980,note_on,5,0,2,,,,,,,,10,,,,43,60
43980,note_off,40,0,3,,,,,,,,0,,,,67,64
43980,note_off,40,0,4,,,,,,,,12,,,,67,64
43980,note_on,0,0,4,,,,,,,,12,,,,55,60
43980,note_on,5,0,7,,,,,,,,3,,,,43,60
44020,note_off,40,0,3,,,,,,,,0,,,,55,64
44020,note_on,0,0,3,,,,,,,,0,,,,67,75
44020,note_off,40,0,4,,,,,,,,12,,,,55,64
44020,note_on,0,0,4,,,,,,,,12,,,,67,60
44060,note_on,0,0,4,,,,,,,,12,,,,76,60
44060,note_off,40,0,3,,,,,,,,0,,,,67,64
44060,note_on,0,0,3,,,,,,,,0,,,,76,75
44060,note_off,40,0,4,,,,,,,,12,,,,67,64
44095,note_off,115,0,11,,,,,,,,7,,,,43,64
44095,note_off,35,0,4,,,,,,,,12,,,,76,64
44095,note_off,115,0,7,,,,,,,,3,,,,43,64
44095,note_off,35,0,3,,,,,,,,0,,,,76,64
44095,note_off,115,0,2,,,,,,,,10,,,,43,64
44100,note_on,5,0,3,,,,,,,,0,,,,86,75
44100,note_on,5,0,11,,,,,,,,7,,,,43,60
44100,note_on,5,0,7,,,,,,,,3,,,,43,60
44100,note_on,5,0,2,,,,,,,,10,,,,43,60
44100,note_on,5,0,4,,,,,,,,12,,,,86,60
44140,note_off,40,0,3,,,,,,,,0,,,,86,64
44140,note_on,0,0,3,,,,,,,,0,,,,76,75
44140,note_on,0,0,4,,,,,,,,12,,,,76,60
44140,note_off,40,0,4,,,,,,,,12,,,,86,64
44180,note_off,40,0,4,,,,,,,,12,,,,76,64
44180,note_on,0,0,4,,,,,,,,12,,,,67,60
44180,note_on,0,0,3,,,,,,,,0,,,,67,75
44180,note_off,40,0,3,,,,,,,,0,,,,76,64
44215,note_off,115,0,2,,,,,,,,10,,,,43,64
44215,note_off,115,0,11,,,,,,,,7,,,,43,64
44215,note_off,115,0,7,,,,,,,,3,,,,43,64
44220,note_on,5,0,2,,,,,,,,10,,,,43,60
44220,note_off,40,0,4,,,,,,,,12,,,,67,64
44220,note_on,0,0,3,,,,,,,,0,,,,55,75
44220,note_off,40,0,3,,,,,,,,0,,,,67,64
44220,note_on,0,0,4,,,,,,,,12,,,,55,60
44220,note_on,5,0,7,,,,,,,,3,,,,43,60
44220,note_on,5,0,11,,,,,,,,7,,,,43,60
44260,note_off,40,0,4,,,,,,,,12,,,,55,64
44260,note_off,40,0,3,,,,,,,,0,,,,55,64
44260,note_on,0,0,3,,,,,,,,0,,,,67,75
44260,note_on,0,0,4,,,,,,,,12,,,,67,60
44300,note_off,40,0,4,,,,,,,,12,,,,67,64
44300,note_off,40,0,3,,,,,,,,0,,,,67,64
44300,note_on,0,0,3,,,,,,,,0,,,,76,75
44300,note_on,0,0,4,,,,,,,,12,,,,76,60
44335,note_off,115,0,7,,,,,,,,3,,,,43,64
44335,note_off,115,0,11,,,,,,,,7,,,,43,64
44335,note_off,35,0,3,,,,,,,,0,,,,76,64
44335,note_off,35,0,4,,,,,,,,12,,,,76,64
44335,note_off,115,0,2,,,,,,,,10,,,,43,64
44340,note_on,5,0,3,,,,,,,,0,,,,84,75
44340,note_on,0,0,6,,,,,,,,2,,,,64,60
44340,note_on,5,0,7,,,,,,,,3,,,,43,60
44340,note_off,0,0,1,,,,,,,,10,,,,64,64
44340,note_on,0,0,1,,,,,,,,10,,,,64,92
44340,note_on,5,0,2,,,,,,,,10,,,,43,60
44340,note_on,0,0,10,,,,,,,,6,,,,72,60
44340,note_on,0,0,10,,,,,,,,6,,,,67,60
44340,note_on,0,0,10,,,,,,,,6,,,,64,60
44340,note_off,0,0,10,,,,,,,,6,,,,64,64
44340,note_off,0,0,10,,,,,,,,6,,,,67,64
44340,note_off,720,0,10,,,,,,,,6,,,,72,64
44340,note_off,720,0,6,,,,,,,,2,,,,72,64
44340,note_off,0,0,6,,,,,,,,2,,,,67,64
44340,note_off,0,0,6,,,,,,,,2,,,,64,64
44340,note_on,0,0,6,,,,,,,,2,,,,67,60
44340,note_on,0,0,6,,,,,,,,2,,,,72,60
44340,note_on,5,0,4,,,,,,,,12,,,,84,60
44340,note_off,0,0,1,,,,,,,,10,,,,67,64
44340,note_off,720,0,1,,,,,,,,10,,,,72,64
44340,note_on,5,0,11,,,,,,,,7,,,,43,60
44380,note_on,0,0,3,,,,,,,,0,,,,76,75
44380,note_off,40,0,3,,,,,,,,0,,,,84,64
44380,note_off,40,0,4,,,,,,,,12,,,,84,64
44380,note_on,0,0,4,,,,,,,,12,,,,76,60
44420,note_on,0,0,3,,,,,,,,0,,,,67,75
44420,note_off,40,0,3,,,,,,,,0,,,,76,64
44420,note_off,40,0,4,,,,,,,,12,,,,76,64
44420,note_on,0,0,4,,,,,,,,12,,,,67,60
44460,note_on,0,0,4,,,,,,,,12,,,,55,60
44460,note_on,0,0,3,,,,,,,,0,,,,55,75
44460,note_off,40,0,3,,,,,,,,0,,,,67,64
44460,note_off,40,0,4,,,,,,,,12,,,,67,64
44460,note_off,120,0,1,,,,,,,,10,,,,64,64
44460,note_on,0,0,1,,,,,,,,10,,,,67,92
44500,note_off,40,0,3,,,,,,,,0,,,,55,64
44500,note_off,40,0,4,,,,,,,,12,,,,55,64
44500,note_on,0,0,4,,,,,,,,12,,,,67,60
44500,note_on,0,0,3,,,,,,,,0,,,,67,75
44540,note_on,0,0,4,,,,,,,,12,,,,76,60
44540,note_off,40,0,4,,,,,,,,12,,,,67,64
44540,note_on,0,0,3,,,,,,,,0,,,,76,75
44540,note_off,40,0,3,,,,,,,,0,,,,67,64
44575,note_off,35,0,3,,,,,,,,0,,,,76,64
44575,note_off,35,0,4,,,,,,,,12,,,,76,64
44580,note_on,0,0,1,,,,,,,,10,,,,72,92
44580,note_on,5,0,3,,,,,,,,0,,,,84,75
44580,note_off,120,0,1,,,,,,,,10,,,,67,64
44580,note_on,5,0,4,,,,,,,,12,,,,84,60
44620,note_off,40,0,4,,,,,,,,12,,,,84,64
44620,note_on,0,0,4,,,,,,,,12,,,,76,60
44620,note_off,40,0,3,,,,,,,,0,,,,84,64
44620,note_on,0,0,3,,,,,,,,0,,,,76,75
44660,note_on,0,0,4,,,,,,,,12,,,,67,60
44660,note_off,40,0,4,,,,,,,,12,,,,76,64
44660,note_on,0,0,3,,,,,,,,0,,,,67,75
44660,note_off,40,0,3,,,,,,,,0,,,,76,64
44700,note_off,120,0,1,,,,,,,,10,,,,72,64
44700,note_on,0,0,1,,,,,,,,10,,,,76,92
44700,note_on,0,0,3,,,,,,,,0,,,,55,75
44700,note_on,0,0,4,,,,,,,,12,,,,55,60
44700,note_off,40,0,4,,,,,,,,12,,,,67,64
44700,note_off,40,0,3,,,,,,,,0,,,,67,64
44740,note_off,40,0,4,,,,,,,,12,,,,55,64
44740,note_on,0,0,4,,,,,,,,12,,,,67,60
44740,note_off,400,0,2,,,,,,,,10,,,,43,64
44740,note_off,400,0,11,,,,,,,,7,,,,43,64
44740,note_off,40,0,3,,,,,,,,0,,,,55,64
44740,note_on,0,0,3,,,,,,,,0,,,,67,75
44740,note_off,400,0,7,,,,,,,,3,,,,43,64
44780,note_on,0,0,3,,,,,,,,0,,,,76,75
44780,note_off,40,0,3,,,,,,,,0,,,,67,64
44780,note_on,0,0,4,,,,,,,,12,,,,76,60
44780,note_off,40,0,4,,,,,,,,12,,,,67,64
44815,note_off,35,0,3,,,,,,,,0,,,,76,64
44815,note_off,35,0,4,,,,,,,,12,,,,76,64
44820,note_off,120,0,1,,,,,,,,10,,,,76,64
44820,note_on,5,0,4,,,,,,,,12,,,,84,60
44820,note_on,0,0,1,,,,,,,,10,,,,72,92
44820,note_on,5,0,3,,,,,,,,0,,,,84,75
44860,note_off,40,0,3,,,,,,,,0,,,,84,64
44860,note_on,0,0,3,,,,,,,,0,,,,76,75
44860,note_off,40,0,4,,,,,,,,12,,,,84,64
44860,note_on,0,0,4,,,,,,,,12,,,,76,60
44900,note_on,0,0,3,,,,,,,,0,,,,67,75
44900,note_off,40,0,3,,,,,,,,0,,,,76,64
44900,note_on,0,0,4,,,,,,,,12,,,,67,60
44900,note_off,40,0,4,,,,,,,,12,,,,76,64
44940,note_on,0,0,3,,,,,,,,0,,,,55,75
44940,note_off,120,0,1,,,,,,,,10,,,,72,64
44940,note_on,0,0,1,,,,,,,,10,,,,67,92
44940,note_off,40,0,3,,,,,,,,0,,,,67,64
44940,note_off,40,0,4,,,,,,,,12,,,,67,64
44940,note_on,0,0,4,,,,,,,,12,,,,55,60
44980,note_off,40,0,4,,,,,,,,12,,,,55,64
44980,note_on,0,0,4,,,,,,,,12,,,,67,60
44980,note_off,40,0,3,,,,,,,,0,,,,55,64
44980,note_on,0,0,3,,,,,,,,0,,,,67,75
45020,note_off,40,0,4,,,,,,,,12,,,,67,64
45020,note_on,0,0,4,,,,,,,,12,,,,76,60
45020,note_on,0,0,3,,,,,,,,0,,,,76,75
45020,note_off,40,0,3,,,,,,,,0,,,,67,64
45055,note_off,115,0,1,,,,,,,,10,,,,67,64
45055,note_off,35,0,4,,,,,,,,12,,,,76,64
45055,note_off,35,0,3,,,,,,,,0,,,,76,64
45060,note_on,5,0,3,,,,,,,,0,,,,83,75
45060,note_on,320,0,11,,,,,,,,7,,,,55,60
45060,note_off,0,0,10,,,,,,,,6,,,,67,64
45060,note_on,0,0,1,,,,,,,,10,,,,67,60
45060,note_on,0,0,1,,,,,,,,10,,,,71,60
45060,note_on,320,0,2,,,,,,,,10,,,,55,60
45060,note_on,0,0,10,,,,,,,,6,,,,71,60
45060,note_on,0,0,10,,,,,,,,6,,,,67,60
45060,note_on,0,0,10,,,,,,,,6,,,,62,60
45060,note_off,0,0,10,,,,,,,,6,,,,64,64
45060,note_off,720,0,10,,,,,,,,6,,,,72,64
45060,note_on,5,0,1,,,,,,,,10,,,,62,60
45060,note_on,0,0,6,,,,,,,,2,,,,71,60
45060,note_on,5,0,4,,,,,,,,12,,,,83,60
45060,note_on,0,0,6,,,,,,,,2,,,,62,60
45060,note_off,0,0,6,,,,,,,,2,,,,64,64
45060,note_off,0,0,6,,,,,,,,2,,,,67,64
45060,note_off,720,0,6,,,,,,,,2,,,,72,64
45060,note_on,0,0,6,,,,,,,,2,,,,67,60
45060,note_on,320,0,7,,,,,,,,3,,,,55,60
45100,note_on,0,0,4,,,,,,,,12,,,,74,60
45100,note_on,0,0,3,,,,,,,,0,,,,74,75
45100,note_off,40,0,3,,,,,,,,0,,,,83,64
45100,note_off,40,0,4,,,,,,,,12,,,,83,64
45140,note_on,0,0,4,,,,,,,,12,,,,67,60
45140,note_off,40,0,3,,,,,,,,0,,,,74,64
45140,note_on,0,0,3,,,,,,,,0,,,,67,75
45140,note_off,40,0,4,,,,,,,,12,,,,74,64
45180,note_off,40,0,4,,,,,,,,12,,,,67,64
45180,note_on,0,0,3,,,,,,,,0,,,,55,75
45180,note_off,40,0,3,,,,,,,,0,,,,67,64
45180,note_on,0,0,4,,,,,,,,12,,,,55,60
45220,note_on,0,0,3,,,,,,,,0,,,,67,75
45220,note_off,40,0,3,,,,,,,,0,,,,55,64
45220,note_off,40,0,4,,,,,,,,12,,,,55,64
45220,note_on,0,0,4,,,,,,,,12,,,,67,60
45260,note_on,0,0,3,,,,,,,,0,,,,74,75
45260,note_off,40,0,3,,,,,,,,0,,,,67,64
45260,note_on,0,0,4,,,,,,,,12,,,,74,60
45260,note_off,40,0,4,,,,,,,,12,,,,67,64
45295,note_off,235,0,2,,,,,,,,10,,,,55,64
45295,note_off,235,0,7,,,,,,,,3,,,,55,64
45295,note_off,35,0,3,,,,,,,,0,,,,74,64
45295,note_off,235,0,11,,,,,,,,7,,,,55,64
45295,note_off,35,0,4,,,,,,,,12,,,,74,64
45300,note_on,5,0,7,,,,,,,,3,,,,43,60
45300,note_on,5,0,3,,,,,,,,0,,,,83,75
45300,note_on,5,0,11,,,,,,,,7,,,,43,60
45300,note_on,5,0,4,,,,,,,,12,,,,83,60
45300,note_on,5,0,2,,,,,,,,10,,,,43,60
45340,note_off,40,0,4,,,,,,,,12,,,,83,64
45340,note_on,0,0,4,,,,,,,,12,,,,74,60
45340,note_off,40,0,3,,,,,,,,0,,,,83,64
45340,note_on,0,0,3,,,,,,,,0,,,,74,75
45380,note_off,40,0,4,,,,,,,,12,,,,74,64
45380,note_on,0,0,4,,,,,,,,12,,,,67,60
45380,note_off,40,0,3,,,,,,,,0,,,,74,64
45380,note_on,0,0,3,,,,,,,,0,,,,67,75
45415,note_off,115,0,2,,,,,,,,10,,,,43,64
45415,note_off,115,0,11,,,,,,,,7,,,,43,64
45415,note_off,115,0,7,,,,,,,,3,,,,43,64
45420,note_on,5,0,2,,,,,,,,10,,,,43,60
45420,note_on,5,0,7,,,,,,,,3,,,,43,60
45420,note_on,0,0,4,,,,,,,,12,,,,55,60
45420,note_on,5,0,11,,,,,,,,7,,,,43,60
45420,note_off,40,0,4,,,,,,,,12,,,,67,64
45420,note_on,0,0,3,,,,,,,,0,,,,55,75
45420,note_off,40,0,3,,,,,,,,0,,,,67,64
45460,note_on,0,0,4,,,,,,,,12,,,,67,60
45460,note_off,40,0,3,,,,,,,,0,,,,55,64
45460,note_on,0,0,3,,,,,,,,0,,,,67,75
45460,note_off,40,0,4,,,,,,,,12,,,,55,64
45500,note_on,0,0,4,,,,,,,,12,,,,74,60
45500,note_off,40,0,3,,,,,,,,0,,,,67,64
45500,note_on,0,0,3,,,,,,,,0,,,,74,75
45500,note_off,40,0,4,,,,,,,,12,,,,67,64
45535,note_off,35,0,4,,,,,,,,12,,,,74,64
45535,note_off,115,0,2,,,,,,,,10,,,,43,64
45535,note_off,35,0,3,,,,,,,,0,,,,74,64
45535,note_off,115,0,7,,,,,,,,3,,,,43,64
45535,note_off,115,0,11,,,,,,,,7,,,,43,64
45540,note_on,5,0,2,,,,,,,,10,,,,43,60
45540,note_on,5,0,3,,,,,,,,0,,,,83,75
45540,note_on,5,0,4,,,,,,,,12,,,,83,60
45540,note_on,5,0,11,,,,,,,,7,,,,43,60
45540,note_on,5,0,7,,,,,,,,3,,,,43,60
45580,note_on,0,0,4,,,,,,,,12,,,,74,60
45580,note_off,40,0,4,,,,,,,,12,,,,83,64
45580,note_off,40,0,3,,,,,,,,0,,,,83,64
45580,note_on,0,0,3,,,,,,,,0,,,,74,75
45620,note_on,0,0,4,,,,,,,,12,,,,67,60
45620,note_off,40,0,4,,,,,,,,12,,,,74,64
45620,note_on,0,0,3,,,,,,,,0,,,,67,75
45620,note_off,40,0,3,,,,,,,,0,,,,74,64
45655,note_off,115,0,11,,,,,,,,7,,,,43,64
45655,note_off,115,0,2,,,,,,,,10,,,,43,64
45655,note_off,115,0,7,,,,,,,,3,,,,43,64
45660,note_on,5,0,7,,,,,,,,3,,,,43,60
45660,note_off,40,0,4,,,,,,,,12,,,,67,64
45660,note_on,0,0,4,,,,,,,,12,,,,55,60
45660,note_on,5,0,2,,,,,,,,10,,,,43,60
45660,note_on,5,0,11,,,,,,,,7,,,,43,60
45660,note_on,0,0,3,,,,,,,,0,,,,55,75
45660,note_off,40,0,3,,,,,,,,0,,,,67,64
45700,note_off,40,0,4,,,,,,,,12,,,,55,64
45700,note_on,0,0,4,,,,,,,,12,,,,67,60
45700,note_off,40,0,3,,,,,,,,0,,,,55,64
45700,note_on,0,0,3,,,,,,,,0,,,,67,75
45740,note_off,40,0,3,,,,,,,,0,,,,67,64
45740,note_on,0,0,3,,,,,,,,0,,,,74,75
45740,note_off,40,0,4,,,,,,,,12,,,,67,64
45740,note_on,0,0,4,,,,,,,,12,,,,74,60
45775,note_off,35,0,3,,,,,,,,0,,,,74,64
45775,note_off,115,0,11,,,,,,,,7,,,,43,64
45775,note_off,115,0,2,,,,,,,,10,,,,43,64
45775,note_off,115,0,7,,,,,,,,3,,,,43,64
45775,note_off,35,0,4,,,,,,,,12,,,,74,64
45780,note_on,0,0,6,,,,,,,,2,,,,64,60
45780,note_on,0,0,6,,,,,,,,2,,,,67,60
45780,note_off,3600,0,12,,,,,,,,8,,,,31,64
45780,note_on,0,0,12,,,,,,,,8,,,,31,60
45780,note_off,720,0,1,,,,,,,,10,,,,71,64
45780,note_off,0,0,6,,,,,,,,2,,,,62,64
45780,note_off,0,0,1,,,,,,,,10,,,,62,64
45780,note_on,0,0,1,,,,,,,,10,,,,64,92
45780,note_on,0,0,6,,,,,,,,2,,,,72,60
45780,note_on,5,0,7,,,,,,,,3,,,,43,60
45780,note_off,720,0,10,,,,,,,,6,,,,71,64
45780,note_off,0,0,10,,,,,,,,6,,,,67,64
45780,note_off,0,0,10,,,,,,,,6,,,,62,64
45780,note_on,0,0,10,,,,,,,,6,,,,64,60
45780,note_on,0,0,10,,,,,,,,6,,,,67,60
45780,note_on,0,0,10,,,,,,,,6,,,,72,60
45780,note_on,0,0,8,,,,,,,,4,,,,31,60
45780,note_off,3600,0,8,,,,,,,,4,,,,31,64
45780,note_on,5,0,2,,,,,,,,10,,,,43,60
45780,note_off,720,0,6,,,,,,,,2,,,,71,64
45780,note_off,0,0,1,,,,,,,,10,,,,67,64
45780,note_off,0,0,6,,,,,,,,2,,,,67,64
45780,note_on,5,0,4,,,,,,,,12,,,,84,60
45780,note_on,5,0,3,,,,,,,,0,,,,84,75
45780,note_on,5,0,11,,,,,,,,7,,,,43,60
45820,note_off,40,0,4,,,,,,,,12,,,,84,64
45820,note_on,0,0,3,,,,,,,,0,,,,76,74
45820,note_off,40,0,3,,,,,,,,0,,,,84,64
45820,note_on,0,0,4,,,,,,,,12,,,,76,59
45860,note_off,40,0,4,,,,,,,,12,,,,76,64
45860,note_on,0,0,4,,,,,,,,12,,,,67,58
45860,note_on,0,0,3,,,,,,,,0,,,,67,73
45860,note_off,40,0,3,,,,,,,,0,,,,76,64
45900,note_on,0,0,3,,,,,,,,0,,,,55,72
45900,note_off,40,0,3,,,,,,,,0,,,,67,64
45900,note_on,0,0,1,,,,,,,,10,,,,67,82
45900,note_off,120,0,1,,,,,,,,10,,,,64,64
45900,note_off,40,0,4,,,,,,,,12,,,,67,64
45900,note_on,0,0,4,,,,,,,,12,,,,55,57
45940,note_off,40,0,4,,,,,,,,12,,,,55,64
45940,note_on,0,0,3,,,,,,,,0,,,,67,71
45940,note_off,40,0,3,,,,,,,,0,,,,55,64
45940,note_on,0,0,4,,,,,,,,12,,,,67,56
45980,note_on,0,0,3,,,,,,,,0,,,,76,70
45980,note_off,40,0,3,,,,,,,,0,,,,67,64
45980,note_off,40,0,4,,,,,,,,12,,,,67,64
45980,note_on,0,0,4,,,,,,,,12,,,,76,55
46015,note_off,35,0,4,,,,,,,,12,,,,76,64
46015,note_off,35,0,3,,,,,,,,0,,,,76,64
46020,note_on,5,0,3,,,,,,,,0,,,,84,69
46020,note_on,5,0,4,,,,,,,,12,,,,84,54
46020,note_off,120,0,1,,,,,,,,10,,,,67,64
46020,note_on,0,0,1,,,,,,,,10,,,,72,72
46060,note_off,40,0,4,,,,,,,,12,,,,84,64
46060,note_on,0,0,4,,,,,,,,12,,,,76,52
46060,note_on,0,0,3,,,,,,,,0,,,,76,67
46060,note_off,40,0,3,,,,,,,,0,,,,84,64
46100,note_off,40,0,3,,,,,,,,0,,,,76,64
46100,note_on,0,0,3,,,,,,,,0,,,,67,65
46100,note_on,0,0,4,,,,,,,,12,,,,67,50
46100,note_off,40,0,4,,,,,,,,12,,,,76,64
46140,note_on,0,0,4,,,,,,,,12,,,,55,48
46140,note_off,40,0,4,,,,,,,,12,,,,67,64
46140,note_off,120,0,1,,,,,,,,10,,,,72,64
46140,note_on,0,0,1,,,,,,,,10,,,,76,62
46140,note_on,0,0,3,,,,,,,,0,,,,55,63
46140,note_off,40,0,3,,,,,,,,0,,,,67,64
46180,note_on,0,0,4,,,,,,,,12,,,,67,46
46180,note_off,400,0,7,,,,,,,,3,,,,43,64
46180,note_off,40,0,4,,,,,,,,12,,,,55,64
46180,note_off,40,0,3,,,,,,,,0,,,,55,64
46180,note_on,0,0,3,,,,,,,,0,,,,67,61
46180,note_off,400,0,11,,,,,,,,7,,,,43,64
46180,note_off,400,0,2,,,,,,,,10,,,,43,64
46220,note_on,0,0,3,,,,,,,,0,,,,76,59
46220,note_off,40,0,4,,,,,,,,12,,,,67,64
46220,note_on,0,0,4,,,,,,,,12,,,,76,44
46220,note_off,40,0,3,,,,,,,,0,,,,67,64
46255,note_off,35,0,3,,,,,,,,0,,,,76,64
46255,note_off,35,0,4,,,,,,,,12,,,,76,64
46260,note_off,120,0,1,,,,,,,,10,,,,76,64
46260,note_on,0,0,1,,,,,,,,10,,,,72,52
46260,note_on,5,0,4,,,,,,,,12,,,,84,42
46260,note_on,5,0,3,,,,,,,,0,,,,84,57
46300,note_on,0,0,4,,,,,,,,12,,,,76,40
46300,note_on,0,0,3,,,,,,,,0,,,,76,55
46300,note_off,40,0,3,,,,,,,,0,,,,84,64
46300,note_off,40,0,4,,,,,,,,12,,,,84,64
46340,note_off,40,0,4,,,,,,,,12,,,,76,64
46340,note_on,0,0,4,,,,,,,,12,,,,67,38
46340,note_on,0,0,3,,,,,,,,0,,,,67,53
46340,note_off,40,0,3,,,,,,,,0,,,,76,64
46380,note_on,0,0,1,,,,,,,,10,,,,67,41
46380,note_on,0,0,3,,,,,,,,0,,,,55,51
46380,note_off,40,0,4,,,,,,,,12,,,,67,64
46380,note_on,0,0,4,,,,,,,,12,,,,55,36
46380,note_off,40,0,3,,,,,,,,0,,,,67,64
46380,note_off,120,0,1,,,,,,,,10,,,,72,64
46420,note_off,40,0,3,,,,,,,,0,,,,55,64
46420,note_on,0,0,3,,,,,,,,0,,,,67,49
46420,note_off,40,0,4,,,,,,,,12,,,,55,64
46420,note_on,0,0,4,,,,,,,,12,,,,67,34
46460,note_off,40,0,3,,,,,,,,0,,,,67,64
46460,note_off,40,0,4,,,,,,,,12,,,,67,64
46460,note_on,0,0,3,,,,,,,,0,,,,76,47
46460,note_on,0,0,4,,,,,,,,12,,,,76,32
46495,note_off,35,0,3,,,,,,,,0,,,,76,64
46495,note_off,35,0,4,,,,,,,,12,,,,76,64
46495,note_off,115,0,1,,,,,,,,10,,,,67,64
46500,note_on,0,0,10,,,,,,,,6,,,,71,30
46500,note_on,5,0,3,,,,,,,,0,,,,83,45
46500,note_on,0,0,1,,,,,,,,10,,,,67,30
46500,note_on,0,0,1,,,,,,,,10,,,,71,30
46500,note_off,720,0,8,,,,,,,,4,,,,31,64
46500,note_on,0,0,8,,,,,,,,4,,,,31,30
46500,note_on,5,0,1,,,,,,,,10,,,,62,30
46500,note_on,0,0,10,,,,,,,,6,,,,67,30
46500,note_off,0,0,6,,,,,,,,2,,,,67,64
46500,note_off,0,0,10,,,,,,,,6,,,,64,64
46500,note_off,0,0,10,,,,,,,,6,,,,67,64
46500,note_off,720,0,10,,,,,,,,6,,,,72,64
46500,note_off,720,0,6,,,,,,,,2,,,,72,64
46500,note_on,0,0,6,,,,,,,,2,,,,71,30
46500,note_on,0,0,6,,,,,,,,2,,,,67,30
46500,note_on,5,0,4,,,,,,,,12,,,,83,30
46500,note_on,0,0,6,,,,,,,,2,,,,62,30
46500,note_on,0,0,12,,,,,,,,8,,,,31,30
46500,note_off,720,0,12,,,,,,,,8,,,,31,64
46500,note_on,320,0,11,,,,,,,,7,,,,55,30
46500,note_on,320,0,7,,,,,,,,3,,,,55,30
46500,note_off,0,0,6,,,,,,,,2,,,,64,64
46500,note_on,0,0,10,,,,,,,,6,,,,62,30
46500,note_on,320,0,2,,,,,,,,10,,,,55,30
46540,note_on,0,0,3,,,,,,,,0,,,,74,45
46540,note_off,40,0,3,,,,,,,,0,,,,83,64
46540,note_off,40,0,4,,,,,,,,12,,,,83,64
46540,note_on,0,0,4,,,,,,,,12,,,,74,30
46580,note_on,0,0,3,,,,,,,,0,,,,67,45
46580,note_off,40,0,3,,,,,,,,0,,,,74,64
46580,note_off,40,0,4,,,,,,,,12,,,,74,64
46580,note_on,0,0,4,,,,,,,,12,,,,67,30
46620,note_on,0,0,4,,,,,,,,12,,,,55,30
46620,note_on,0,0,3,,,,,,,,0,,,,55,45
46620,note_off,40,0,3,,,,,,,,0,,,,67,64
46620,note_off,40,0,4,,,,,,,,12,,,,67,64
46660,note_on,0,0,3,,,,,,,,0,,,,67,45
46660,note_off,40,0,3,,,,,,,,0,,,,55,64
46660,note_on,0,0,4,,,,,,,,12,,,,67,30
46660,note_off,40,0,4,,,,,,,,12,,,,55,64
46700,note_off,40,0,4,,,,,,,,12,,,,67,64
46700,note_on,0,0,4,,,,,,,,12,,,,74,30
46700,note_off,40,0,3,,,,,,,,0,,,,67,64
46700,note_on,0,0,3,,,,,,,,0,,,,74,45
46735,note_off,235,0,11,,,,,,,,7,,,,55,64
46735,note_off,235,0,2,,,,,,,,10,,,,55,64
46735,note_off,35,0,4,,,,,,,,12,,,,74,64
46735,note_off,35,0,3,,,,,,,,0,,,,74,64
46735,note_off,235,0,7,,,,,,,,3,,,,55,64
46740,note_on,5,0,2,,,,,,,,10,,,,43,30
46740,note_on,5,0,4,,,,,,,,12,,,,83,30
46740,note_on,5,0,11,,,,,,,,7,,,,43,30
46740,note_on,5,0,3,,,,,,,,0,,,,83,45
46740,note_on,5,0,7,,,,,,,,3,,,,43,30
46780,note_off,40,0,3,,,,,,,,0,,,,83,64
46780,note_on,0,0,3,,,,,,,,0,,,,74,45
46780,note_off,40,0,4,,,,,,,,12,,,,83,64
46780,note_on,0,0,4,,,,,,,,12,,,,74,30
46820,note_off,40,0,3,,,,,,,,0,,,,74,64
46820,note_on,0,0,3,,,,,,,,0,,,,67,45
46820,note_off,40,0,4,,,,,,,,12,,,,74,64
46820,note_on,0,0,4,,,,,,,,12,,,,67,30
46855,note_off,115,0,7,,,,,,,,3,,,,43,64
46855,note_off,115,0,11,,,,,,,,7,,,,43,64
46855,note_off,115,0,2,,,,,,,,10,,,,43,64
46860,note_on,5,0,11,,,,,,,,7,,,,43,30
46860,note_on,5,0,7,,,,,,,,3,,,,43,30
46860,note_on,5,0,2,,,,,,,,10,,,,43,30
46860,note_off,40,0,4,,,,,,,,12,,,,67,64
46860,note_on,0,0,4,,,,,,,,12,,,,55,30
46860,note_on,0,0,3,,,,,,,,0,,,,55,45
46860,note_off,40,0,3,,,,,,,,0,,,,67,64
46900,note_off,40,0,4,,,,,,,,12,,,,55,64
46900,note_on,0,0,4,,,,,,,,12,,,,67,30
46900,note_on,0,0,3,,,,,,,,0,,,,67,45
46900,note_off,40,0,3,,,,,,,,0,,,,55,64
46940,note_off,40,0,4,,,,,,,,12,,,,67,64
46940,note_off,40,0,3,,,,,,,,0,,,,67,64
46940,note_on,0,0,4,,,,,,,,12,,,,74,30
46940,note_on,0,0,3,,,,,,,,0,,,,74,45
46975,note_off,115,0,11,,,,,,,,7,,,,43,64
46975,note_off,115,0,2,,,,,,,,10,,,,43,64
46975,note_off,35,0,4,,,,,,,,12,,,,74,64
46975,note_off,115,0,7,,,,,,,,3,,,,43,64
46975,note_off,35,0,3,,,,,,,,0,,,,74,64
46980,note_on,5,0,4,,,,,,,,12,,,,83,30
46980,note_on,5,0,7,,,,,,,,3,,,,43,30
46980,note_on,5,0,3,,,,,,,,0,,,,83,45
46980,note_on,5,0,11,,,,,,,,7,,,,43,30
46980,note_on,5,0,2,,,,,,,,10,,,,43,30
47020,note_off,40,0,3,,,,,,,,0,,,,83,64
47020,note_on,0,0,4,,,,,,,,12,,,,74,30
47020,note_on,0,0,3,,,,,,,,0,,,,74,45
47020,note_off,40,0,4,,,,,,,,12,,,,83,64
47060,note_off,40,0,4,,,,,,,,12,,,,74,64
47060,note_off,40,0,3,,,,,,,,0,,,,74,64
47060,note_on,0,0,3,,,,,,,,0,,,,67,45
47060,note_on,0,0,4,,,,,,,,12,,,,67,30
47095,note_off,115,0,2,,,,,,,,10,,,,43,64
47095,note_off,115,0,7,,,,,,,,3,,,,43,64
47095,note_off,115,0,11,,,,,,,,7,,,,43,64
47100,note_off,40,0,3,,,,,,,,0,,,,67,64
47100,note_on,0,0,3,,,,,,,,0,,,,55,45
47100,note_on,5,0,7,,,,,,,,3,,,,43,30
47100,note_on,5,0,11,,,,,,,,7,,,,43,30
47100,note_on,0,0,4,,,,,,,,12,,,,55,30
47100,note_on,5,0,2,,,,,,,,10,,,,43,30
47100,note_off,40,0,4,,,,,,,,12,,,,67,64
47140,note_off,40,0,3,,,,,,,,0,,,,55,64
47140,note_on,0,0,3,,,,,,,,0,,,,67,45
47140,note_on,0,0,4,,,,,,,,12,,,,67,30
47140,note_off,40,0,4,,,,,,,,12,,,,55,64
47180,note_off,40,0,4,,,,,,,,12,,,,67,64
47180,note_on,0,0,3,,,,,,,,0,,,,74,45
47180,note_off,40,0,3,,,,,,,,0,,,,67,64
47180,note_on,0,0,4,,,,,,,,12,,,,74,30
47215,note_off,35,0,4,,,,,,,,12,,,,74,64
47215,note_off,115,0,2,,,,,,,,10,,,,43,64
47215,note_off,35,0,3,,,,,,,,0,,,,74,64
47215,note_off,115,0,7,,,,,,,,3,,,,43,64
47215,note_off,115,0,11,,,,,,,,7,,,,43,64
47220,note_off,720,0,6,,,,,,,,2,,,,71,64
47220,note_off,0,0,6,,,,,,,,2,,,,62,64
47220,note_on,0,0,6,,,,,,,,2,,,,64,30
47220,note_on,0,0,6,,,,,,,,2,,,,72,30
47220,note_on,5,0,4,,,,,,,,12,,,,84,30
47220,note_off,720,0,1,,,,,,,,10,,,,71,64
47220,note_off,0,0,1,,,,,,,,10,,,,67,64
47220,note_on,5,0,3,,,,,,,,0,,,,84,45
47220,note_on,5,0,2,,,,,,,,10,,,,43,30
47220,note_on,0,0,1,,,,,,,,10,,,,64,60
47220,note_off,0,0,1,,,,,,,,10,,,,62,64
47220,note_on,5,0,7,,,,,,,,3,,,,43,30
47220,note_on,0,0,6,,,,,,,,2,,,,67,30
47220,note_off,0,0,6,,,,,,,,2,,,,67,64
47220,note_on,0,0,10,,,,,,,,6,,,,72,30
47220,note_on,5,0,11,,,,,,,,7,,,,43,30
47220,note_off,720,0,10,,,,,,,,6,,,,71,64
47220,note_off,0,0,10,,,,,,,,6,,,,67,64
47220,note_off,0,0,10,,,,,,,,6,,,,62,64
47220,note_on,0,0,10,,,,,,,,6,,,,64,30
47220,note_on,0,0,10,,,,,,,,6,,,,67,30
47260,note_on,0,0,4,,,,,,,,12,,,,76,30
47260,note_off,40,0,4,,,,,,,,12,,,,84,64
47260,note_off,40,0,3,,,,,,,,0,,,,84,64
47260,note_on,0,0,3,,,,,,,,0,,,,76,45
47300,note_on,0,0,3,,,,,,,,0,,,,67,45
47300,note_off,40,0,3,,,,,,,,0,,,,76,64
47300,note_off,40,0,4,,,,,,,,12,,,,76,64
47300,note_on,0,0,4,,,,,,,,12,,,,67,30
47340,note_off,40,0,3,,,,,,,,0,,,,67,64
47340,note_off,40,0,4,,,,,,,,12,,,,67,64
47340,note_on,0,0,3,,,,,,,,0,,,,55,45
47340,note_on,0,0,4,,,,,,,,12,,,,55,30
47340,note_on,0,0,1,,,,,,,,10,,,,67,60
47340,note_off,120,0,1,,,,,,,,10,,,,64,64
47380,note_on,0,0,4,,,,,,,,12,,,,67,30
47380,note_off,40,0,3,,,,,,,,0,,,,55,64
47380,note_on,0,0,3,,,,,,,,0,,,,67,45
47380,note_off,40,0,4,,,,,,,,12,,,,55,64
47420,note_off,40,0,4,,,,,,,,12,,,,67,64
47420,note_off,40,0,3,,,,,,,,0,,,,67,64
47420,note_on,0,0,3,,,,,,,,0,,,,76,45
47420,note_on,0,0,4,,,,,,,,12,,,,76,30
47455,note_off,35,0,4,,,,,,,,12,,,,76,64
47455,note_off,35,0,3,,,,,,,,0,,,,76,64
47460,note_off,120,0,1,,,,,,,,10,,,,67,64
47460,note_on,0,0,1,,,,,,,,10,,,,72,60
47460,note_on,5,0,4,,,,,,,,12,,,,84,30
47460,note_on,5,0,3,,,,,,,,0,,,,84,45
47500,note_off,40,0,3,,,,,,,,0,,,,84,64
47500,note_on,0,0,4,,,,,,,,12,,,,76,30
47500,note_off,40,0,4,,,,,,,,12,,,,84,64
47500,note_on,0,0,3,,,,,,,,0,,,,76,45
47540,note_off,40,0,4,,,,,,,,12,,,,76,64
47540,note_on,0,0,4,,,,,,,,12,,,,67,30
47540,note_on,0,0,3,,,,,,,,0,,,,67,45
47540,note_off,40,0,3,,,,,,,,0,,,,76,64
47580,note_on,0,0,1,,,,,,,,10,,,,76,60
47580,note_off,120,0,1,,,,,,,,10,,,,72,64
47580,note_on,0,0,4,,,,,,,,12,,,,55,30
47580,note_off,40,0,3,,,,,,,,0,,,,67,64
47580,note_off,40,0,4,,,,,,,,12,,,,67,64
47580,note_on,0,0,3,,,,,,,,0,,,,55,45
47620,note_off,400,0,7,,,,,,,,3,,,,43,64
47620,note_on,0,0,4,,,,,,,,12,,,,67,30
47620,note_off,40,0,4,,,,,,,,12,,,,55,64
47620,note_on,0,0,3,,,,,,,,0,,,,67,45
47620,note_off,400,0,2,,,,,,,,10,,,,43,64
47620,note_off,400,0,11,,,,,,,,7,,,,43,64
47620,note_off,40,0,3,,,,,,,,0,,,,55,64
47660,note_on,0,0,3,,,,,,,,0,,,,76,45
47660,note_on,0,0,4,,,,,,,,12,,,,76,30
47660,note_off,40,0,4,,,,,,,,12,,,,67,64
47660,note_off,40,0,3,,,,,,,,0,,,,67,64
47695,note_off,35,0,4,,,,,,,,12,,,,76,64
47695,note_off,35,0,3,,,,,,,,0,,,,76,64
47700,note_on,0,0,1,,,,,,,,10,,,,72,60
47700,note_on,5,0,4,,,,,,,,12,,,,84,30
47700,note_on,5,0,3,,,,,,,,0,,,,84,45
47700,note_off,120,0,1,,,,,,,,10,,,,76,64
47740,note_off,40,0,4,,,,,,,,12,,,,84,64
47740,note_on,0,0,3,,,,,,,,0,,,,76,45
47740,note_off,40,0,3,,,,,,,,0,,,,84,64
47740,note_on,0,0,4,,,,,,,,12,,,,76,30
47780,note_on,0,0,3,,,,,,,,0,,,,67,45
47780,note_off,40,0,3,,,,,,,,0,,,,76,64
47780,note_off,40,0,4,,,,,,,,12,,,,76,64
47780,note_on,0,0,4,,,,,,,,12,,,,67,30
47820,note_off,40,0,4,,,,,,,,12,,,,67,64
47820,note_off,40,0,3,,,,,,,,0,,,,67,64
47820,note_on,0,0,4,,,,,,,,12,,,,55,30
47820,note_on,0,0,1,,,,,,,,10,,,,67,60
47820,note_on,0,0,3,,,,,,,,0,,,,55,45
47820,note_off,120,0,1,,,,,,,,10,,,,72,64
47860,note_on,0,0,3,,,,,,,,0,,,,67,45
47860,note_off,40,0,3,,,,,,,,0,,,,55,64
47860,note_off,40,0,4,,,,,,,,12,,,,55,64
47860,note_on,0,0,4,,,,,,,,12,,,,67,30
47900,note_on,0,0,3,,,,,,,,0,,,,76,45
47900,note_off,40,0,3,,,,,,,,0,,,,67,64
47900,note_off,40,0,4,,,,,,,,12,,,,67,64
47900,note_on,0,0,4,,,,,,,,12,,,,76,30
47935,note_off,115,0,1,,,,,,,,10,,,,67,64
47935,note_off,35,0,3,,,,,,,,0,,,,76,64
47935,note_off,35,0,4,,,,,,,,12,,,,76,64
47940,note_off,720,0,10,,,,,,,,6,,,,72,64
47940,note_off,0,0,10,,,,,,,,6,,,,64,64
47940,note_off,0,0,10,,,,,,,,6,,,,67,64
47940,note_on,0,0,10,,,,,,,,6,,,,62,30
47940,note_off,720,0,6,,,,,,,,2,,,,72,64
47940,note_off,0,0,6,,,,,,,,2,,,,67,64
47940,note_off,1440,0,12,,,,,,,,8,,,,31,64
47940,note_off,0,0,6,,,,,,,,2,,,,64,64
47940,note_on,0,0,6,,,,,,,,2,,,,62,30
47940,note_on,0,0,6,,,,,,,,2,,,,67,30
47940,note_on,0,0,6,,,,,,,,2,,,,72,30
47940,note_off,1440,0,8,,,,,,,,4,,,,31,64
47940,note_on,0,0,8,,,,,,,,4,,,,31,30
47940,note_on,320,0,7,,,,,,,,3,,,,55,30
47940,note_on,320,0,11,,,,,,,,7,,,,55,30
47940,note_on,5,0,3,,,,,,,,0,,,,84,45
47940,note_on,5,0,4,,,,,,,,12,,,,84,30
47940,note_on,0,0,12,,,,,,,,8,,,,31,30
47940,note_on,0,0,10,,,,,,,,6,,,,67,30
47940,note_on,0,0,1,,,,,,,,10,,,,72,60
47940,note_on,0,0,10,,,,,,,,6,,,,72,30
47940,note_on,5,0,1,,,,,,,,10,,,,62,60
47940,note_on,0,0,1,,,,,,,,10,,,,67,60
47940,note_on,320,0,2,,,,,,,,10,,,,55,30
47980,note_on,0,0,4,,,,,,,,12,,,,74,31
47980,note_off,40,0,3,,,,,,,,0,,,,84,64
47980,note_on,0,0,3,,,,,,,,0,,,,74,46
47980,note_off,40,0,4,,,,,,,,12,,,,84,64
48020,note_off,40,0,4,,,,,,,,12,,,,74,64
48020,note_on,0,0,3,,,,,,,,0,,,,67,47
48020,note_off,40,0,3,,,,,,,,0,,,,74,64
48020,note_on,0,0,4,,,,,,,,12,,,,67,32
48060,note_on,0,0,3,,,,,,,,0,,,,55,48
48060,note_off,40,0,3,,,,,,,,0,,,,67,64
48060,note_off,40,0,4,,,,,,,,12,,,,67,64
48060,note_on,0,0,4,,,,,,,,12,,,,55,33
48100,note_off,40,0,4,,,,,,,,12,,,,55,64
48100,note_on,0,0,3,,,,,,,,0,,,,67,49
48100,note_off,40,0,3,,,,,,,,0,,,,55,64
48100,note_on,0,0,4,,,,,,,,12,,,,67,34
48140,note_on,0,0,4,,,,,,,,12,,,,74,35
48140,note_on,0,0,3,,,,,,,,0,,,,74,50
48140,note_off,40,0,3,,,,,,,,0,,,,67,64
48140,note_off,40,0,4,,,,,,,,12,,,,67,64
48175,note_off,235,0,7,,,,,,,,3,,,,55,64
48175,note_off,35,0,4,,,,,,,,12,,,,74,64
48175,note_off,35,0,3,,,,,,,,0,,,,74,64
48175,note_off,235,0,11,,,,,,,,7,,,,55,64
48175,note_off,235,0,2,,,,,,,,10,,,,55,64
48180,note_on,5,0,2,,,,,,,,10,,,,43,40
48180,note_on,5,0,3,,,,,,,,0,,,,84,51
48180,note_on,5,0,7,,,,,,,,3,,,,43,45
48180,note_on,5,0,4,,,,,,,,12,,,,84,36
48180,note_on,5,0,11,,,,,,,,7,,,,43,45
48220,note_on,0,0,4,,,,,,,,12,,,,74,37
48220,note_off,40,0,3,,,,,,,,0,,,,84,64
48220,note_on,0,0,3,,,,,,,,0,,,,74,52
48220,note_off,40,0,4,,,,,,,,12,,,,84,64
48260,note_on,0,0,4,,,,,,,,12,,,,67,38
48260,note_off,40,0,4,,,,,,,,12,,,,74,64
48260,note_off,40,0,3,,,,,,,,0,,,,74,64
48260,note_on,0,0,3,,,,,,,,0,,,,67,54
48295,note_off,115,0,2,,,,,,,,10,,,,43,64
48295,note_off,115,0,11,,,,,,,,7,,,,43,64
48295,note_off,115,0,7,,,,,,,,3,,,,43,64
48300,note_on,5,0,11,,,,,,,,7,,,,43,52
48300,note_on,0,0,3,,,,,,,,0,,,,55,56
48300,note_off,40,0,3,,,,,,,,0,,,,67,64
48300,note_off,40,0,4,,,,,,,,12,,,,67,64
48300,note_on,5,0,2,,,,,,,,10,,,,43,45
48300,note_on,0,0,4,,,,,,,,12,,,,55,40
48300,note_on,5,0,7,,,,,,,,3,,,,43,52
48340,note_off,40,0,3,,,,,,,,0,,,,55,64
48340,note_on,0,0,3,,,,,,,,0,,,,67,58
48340,note_on,0,0,4,,,,,,,,12,,,,67,42
48340,note_off,40,0,4,,,,,,,,12,,,,55,64
48380,note_off,40,0,3,,,,,,,,0,,,,67,64
48380,note_on,0,0,3,,,,,,,,0,,,,74,59
48380,note_on,0,0,4,,,,,,,,12,,,,74,43
48380,note_off,40,0,4,,,,,,,,12,,,,67,64
48415,note_off,115,0,2,,,,,,,,10,,,,43,64
48415,note_off,35,0,4,,,,,,,,12,,,,74,64
48415,note_off,115,0,11,,,,,,,,7,,,,43,64
48415,note_off,35,0,3,,,,,,,,0,,,,74,64
48415,note_off,115,0,7,,,,,,,,3,,,,43,64
48420,note_on,5,0,11,,,,,,,,7,,,,43,59
48420,note_on,5,0,3,,,,,,,,0,,,,84,61
48420,note_on,5,0,2,,,,,,,,10,,,,43,50
48420,note_on,5,0,4,,,,,,,,12,,,,84,45
48420,note_on,5,0,7,,,,,,,,3,,,,43,59
48460,note_on,0,0,4,,,,,,,,12,,,,74,47
48460,note_off,40,0,4,,,,,,,,12,,,,84,64
48460,note_off,40,0,3,,,,,,,,0,,,,84,64
48460,note_on,0,0,3,,,,,,,,0,,,,74,63
48500,note_on,0,0,4,,,,,,,,12,,,,67,49
48500,note_off,40,0,4,,,,,,,,12,,,,74,64
48500,note_on,0,0,3,,,,,,,,0,,,,67,65
48500,note_off,40,0,3,,,,,,,,0,,,,74,64
48535,note_off,115,0,2,,,,,,,,10,,,,43,64
48535,note_off,115,0,7,,,,,,,,3,,,,43,64
48535,note_off,115,0,11,,,,,,,,7,,,,43,64
48540,note_on,5,0,2,,,,,,,,10,,,,43,55
48540,note_on,0,0,4,,,,,,,,12,,,,55,51
48540,note_off,40,0,4,,,,,,,,12,,,,67,64
48540,note_on,5,0,11,,,,,,,,7,,,,43,67
48540,note_on,5,0,7,,,,,,,,3,,,,43,67
48540,note_off,40,0,3,,,,,,,,0,,,,67,64
48540,note_on,0,0,3,,,,,,,,0,,,,55,67
48580,note_off,40,0,3,,,,,,,,0,,,,55,64
48580,note_on,0,0,3,,,,,,,,0,,,,67,69
48580,note_on,0,0,4,,,,,,,,12,,,,67,53
48580,note_off,40,0,4,,,,,,,,12,,,,55,64
48620,note_on,0,0,3,,,,,,,,0,,,,74,71
48620,note_on,0,0,4,,,,,,,,12,,,,74,55
48620,note_off,40,0,4,,,,,,,,12,,,,67,64
48620,note_off,40,0,3,,,,,,,,0,,,,67,64
48655,note_off,35,0,4,,,,,,,,12,,,,74,64
48655,note_off,115,0,2,,,,,,,,10,,,,43,64
48655,note_off,115,0,7,,,,,,,,3,,,,43,64
48655,note_off,35,0,3,,,,,,,,0,,,,74,64
48655,note_off,115,0,11,,,,,,,,7,,,,43,64
48660,note_on,5,0,2,,,,,,,,10,,,,43,60
48660,note_off,0,0,10,,,,,,,,6,,,,62,64
48660,note_on,0,0,10,,,,,,,,6,,,,62,75
48660,note_on,0,0,10,,,,,,,,6,,,,67,75
48660,note_on,0,0,10,,,,,,,,6,,,,71,75
48660,note_on,5,0,7,,,,,,,,3,,,,43,75
48660,note_on,0,0,8,,,,,,,,4,,,,31,75
48660,note_off,720,0,8,,,,,,,,4,,,,31,64
48660,note_off,720,0,12,,,,,,,,8,,,,31,64
48660,note_on,0,0,6,,,,,,,,2,,,,71,75
48660,note_on,5,0,11,,,,,,,,7,,,,43,75
48660,note_on,5,0,4,,,,,,,,12,,,,83,57
48660,note_on,5,0,3,,,,,,,,0,,,,83,73
48660,note_on,0,0,6,,,,,,,,2,,,,67,75
48660,note_on,0,0,1,,,,,,,,10,,,,62,92
48660,note_off,0,0,1,,,,,,,,10,,,,62,64
48660,note_off,0,0,1,,,,,,,,10,,,,67,64
48660,note_off,720,0,1,,,,,,,,10,,,,72,64
48660,note_on,0,0,12,,,,,,,,8,,,,31,75
48660,note_on,0,0,6,,,,,,,,2,,,,62,75
48660,note_off,0,0,6,,,,,,,,2,,,,62,64
48660,note_off,0,0,6,,,,,,,,2,,,,67,64
48660,note_off,720,0,6,,,,,,,,2,,,,72,64
48660,note_off,0,0,10,,,,,,,,6,,,,67,64
48660,note_off,720,0,10,,,,,,,,6,,,,72,64
48700,note_on,0,0,4,,,,,,,,12,,,,74,59
48700,note_on,0,0,3,,,,,,,,0,,,,74,75
48700,note_off,40,0,3,,,,,,,,0,,,,83,64
48700,note_off,40,0,4,,,,,,,,12,,,,83,64
48740,note_off,40,0,4,,,,,,,,12,,,,74,64
48740,note_on,0,0,3,,,,,,,,0,,,,67,77
48740,note_on,0,0,4,,,,,,,,12,,,,67,61
48740,note_off,40,0,3,,,,,,,,0,,,,74,64
48780,note_on,0,0,1,,,,,,,,10,,,,67,92
48780,note_off,40,0,4,,,,,,,,12,,,,67,64
48780,note_on,0,0,4,,,,,,,,12,,,,55,63
48780,note_on,0,0,3,,,,,,,,0,,,,55,79
48780,note_off,40,0,3,,,,,,,,0,,,,67,64
48780,note_off,120,0,1,,,,,,,,10,,,,62,64
48820,note_on,0,0,3,,,,,,,,0,,,,67,81
48820,note_off,40,0,3,,,,,,,,0,,,,55,64
48820,note_off,40,0,4,,,,,,,,12,,,,55,64
48820,note_on,0,0,4,,,,,,,,12,,,,67,65
48860,note_on,0,0,3,,,,,,,,0,,,,74,83
48860,note_on,0,0,4,,,,,,,,12,,,,74,67
48860,note_off,40,0,4,,,,,,,,12,,,,67,64
48860,note_off,40,0,3,,,,,,,,0,,,,67,64
48895,note_off,35,0,4,,,,,,,,12,,,,74,64
48895,note_off,35,0,3,,,,,,,,0,,,,74,64
48900,note_off,120,0,1,,,,,,,,10,,,,67,64
48900,note_on,0,0,1,,,,,,,,10,,,,71,92
48900,note_on,5,0,4,,,,,,,,12,,,,83,69
48900,note_on,5,0,3,,,,,,,,0,,,,83,85
48940,note_on,0,0,4,,,,,,,,12,,,,74,71
48940,note_off,40,0,4,,,,,,,,12,,,,83,64
48940,note_on,0,0,3,,,,,,,,0,,,,74,87
48940,note_off,40,0,3,,,,,,,,0,,,,83,64
48980,note_on,0,0,4,,,,,,,,12,,,,67,73
48980,note_off,40,0,3,,,,,,,,0,,,,74,64
48980,note_on,0,0,3,,,,,,,,0,,,,67,89
48980,note_off,40,0,4,,,,,,,,12,,,,74,64
49020,note_off,40,0,4,,,,,,,,12,,,,67,64
49020,note_off,40,0,3,,,,,,,,0,,,,67,64
49020,note_on,0,0,3,,,,,,,,0,,,,55,91
49020,note_on,0,0,4,,,,,,,,12,,,,55,75
49020,note_on,0,0,1,,,,,,,,10,,,,74,92
49020,note_off,120,0,1,,,,,,,,10,,,,71,64
49060,note_off,40,0,4,,,,,,,,12,,,,55,64
49060,note_on,0,0,4,,,,,,,,12,,,,67,77
49060,note_off,40,0,3,,,,,,,,0,,,,55,64
49060,note_off,400,0,7,,,,,,,,3,,,,43,64
49060,note_off,400,0,2,,,,,,,,10,,,,43,64
49060,note_off,400,0,11,,,,,,,,7,,,,43,64
49060,note_on,0,0,3,,,,,,,,0,,,,67,93
49100,note_on,0,0,3,,,,,,,,0,,,,74,95
49100,note_off,40,0,3,,,,,,,,0,,,,67,64
49100,note_on,0,0,4,,,,,,,,12,,,,74,79
49100,note_off,40,0,4,,,,,,,,12,,,,67,64
49135,note_off,35,0,4,,,,,,,,12,,,,74,64
49135,note_off,35,0,3,,,,,,,,0,,,,74,64
49140,note_on,5,0,3,,,,,,,,0,,,,83,97
49140,note_on,0,0,1,,,,,,,,10,,,,71,92
49140,note_on,5,0,4,,,,,,,,12,,,,83,81
49140,note_off,120,0,1,,,,,,,,10,,,,74,64
49180,note_on,0,0,3,,,,,,,,0,,,,74,99
49180,note_off,40,0,3,,,,,,,,0,,,,83,64
49180,note_off,40,0,4,,,,,,,,12,,,,83,64
49180,note_on,0,0,4,,,,,,,,12,,,,74,83
49220,note_on,0,0,3,,,,,,,,0,,,,67,101
49220,note_off,40,0,3,,,,,,,,0,,,,74,64
49220,note_off,40,0,4,,,,,,,,12,,,,74,64
49220,note_on,0,0,4,,,,,,,,12,,,,67,85
49260,note_off,40,0,3,,,,,,,,0,,,,67,64
49260,note_on,0,0,3,,,,,,,,0,,,,55,103
49260,note_off,120,0,1,,,,,,,,10,,,,71,64
49260,note_on,0,0,1,,,,,,,,10,,,,67,92
49260,note_off,40,0,4,,,,,,,,12,,,,67,64
49260,note_on,0,0,4,,,,,,,,12,,,,55,87
49300,note_off,640,0,6,,,,,,,,2,,,,71,64
49300,note_off,0,0,6,,,,,,,,2,,,,67,64
49300,note_off,0,0,6,,,,,,,,2,,,,62,64
49300,note_off,640,0,12,,,,,,,,8,,,,31,64
49300,note_off,0,0,10,,,,,,,,6,,,,62,64
49300,note_off,0,0,10,,,,,,,,6,,,,67,64
49300,note_off,640,0,10,,,,,,,,6,,,,71,64
49300,note_on,0,0,4,,,,,,,,12,,,,67,89
49300,note_off,40,0,3,,,,,,,,0,,,,55,64
49300,note_on,0,0,3,,,,,,,,0,,,,67,105
49300,note_off,640,0,8,,,,,,,,4,,,,31,64
49300,note_off,40,0,4,,,,,,,,12,,,,55,64
49340,note_on,0,0,3,,,,,,,,0,,,,74,108
49340,note_on,0,0,4,,,,,,,,12,,,,74,92
49340,note_off,40,0,4,,,,,,,,12,,,,67,64
49340,note_off,40,0,3,,,,,,,,0,,,,67,64
49375,note_off,35,0,3,,,,,,,,0,,,,74,64
49375,note_off,115,0,1,,,,,,,,10,,,,67,64
49375,note_off,35,0,4,,,,,,,,12,,,,74,64
49380,note_on,14000,0,9,,,,,,,,5,,,,72,75
49380,note_on,14000,0,5,,,,,,,,1,,,,72,108
49380,note_on,80,0,10,,,,,,,,6,,,,64,75
49380,note_on,80,0,12,,,,,,,,8,,,,36,75
49380,note_on,320,0,7,,,,,,,,3,,,,48,92
49380,note_on,320,0,2,,,,,,,,10,,,,48,60
49380,note_on,6800,0,13,,,,,,,,11,,,,36,75
49380,note_on,80,0,8,,,,,,,,4,,,,36,92
49380,note_on,320,0,11,,,,,,,,7,,,,48,75
49380,note_on,80,0,6,,,,,,,,2,,,,64,92
49555,note_off,175,0,5,,,,,,,,1,,,,72,64
49555,note_off,175,0,9,,,,,,,,5,,,,72,64
49560,note_on,5,0,9,,,,,,,,5,,,,79,75
49560,note_on,5,0,5,,,,,,,,1,,,,79,108
49600,note_off,40,0,5,,,,,,,,1,,,,79,64
49600,note_off,40,0,9,,,,,,,,5,,,,79,64
49615,note_off,235,0,11,,,,,,,,7,,,,48,64
49615,note_off,235,0,7,,,,,,,,3,,,,48,64
49615,note_off,235,0,2,,,,,,,,10,,,,48,64
49615,note_off,235,0,6,,,,,,,,2,,,,64,64
49615,note_off,235,0,12,,,,,,,,8,,,,36,64
49615,note_off,235,0,8,,,,,,,,4,,,,36,64
49615,note_off,235,0,10,,,,,,,,6,,,,64,64
49620,note_on,5,0,12,,,,,,,,8,,,,48,75
49620,note_on,5,0,2,,,,,,,,10,,,,60,60
49620,note_on,245,0,1,,,,,,,,10,,,,64,75
49620,note_on,5,0,10,,,,,,,,6,,,,67,75
49620,note_on,5,0,6,,,,,,,,2,,,,67,92
49620,note_on,5,0,8,,,,,,,,4,,,,48,92
49620,note_on,20,0,9,,,,,,,,5,,,,72,75
49620,note_on,5,0,7,,,,,,,,3,,,,60,92
49620,note_on,5,0,11,,,,,,,,7,,,,60,75
49620,note_on,20,0,5,,,,,,,,1,,,,72,108
49700,note_off,80,0,6,,,,,,,,2,,,,67,64
49700,note_off,80,0,12,,,,,,,,8,,,,48,64
49700,note_off,80,0,10,,,,,,,,6,,,,67,64
49700,note_off,80,0,11,,,,,,,,7,,,,60,64
49700,note_off,80,0,5,,,,,,,,1,,,,72,64
49700,note_off,80,0,9,,,,,,,,5,,,,72,64
49700,note_off,80,0,2,,,,,,,,10,,,,60,64
49700,note_off,80,0,7,,,,,,,,3,,,,60,64
49700,note_off,80,0,8,,,,,,,,4,,,,48,64
49735,note_off,115,0,1,,,,,,,,10,,,,64,64
49740,note_on,5,0,1,,,,,,,,10,,,,67,75
49780,note_off,400,0,13,,,,,,,,11,,,,36,64
49855,note_off,115,0,1,,,,,,,,10,,,,67,64
49860,note_on,160,0,12,,,,,,,,8,,,,48,75
49860,note_on,160,0,7,,,,,,,,3,,,,60,92
49860,note_on,160,0,9,,,,,,,,5,,,,72,75
49860,note_on,160,0,11,,,,,,,,7,,,,60,75
49860,note_on,160,0,5,,,,,,,,1,,,,72,108
49860,note_on,160,0,6,,,,,,,,2,,,,64,92
49860,note_on,160,0,8,,,,,,,,4,,,,48,92
49860,note_on,160,0,10,,,,,,,,6,,,,64,75
49860,note_on,160,0,2,,,,,,,,10,,,,60,60
49860,note_on,5,0,1,,,,,,,,10,,,,72,75
49940,note_off,80,0,5,,,,,,,,1,,,,72,64
49940,note_off,80,0,11,,,,,,,,7,,,,60,64
49940,note_off,80,0,12,,,,,,,,8,,,,48,64
49940,note_off,80,0,8,,,,,,,,4,,,,48,64
49940,note_off,80,0,6,,,,,,,,2,,,,64,64
49940,note_off,80,0,2,,,,,,,,10,,,,60,64
49940,note_off,80,0,7,,,,,,,,3,,,,60,64
49940,note_off,80,0,9,,,,,,,,5,,,,72,64
49940,note_off,80,0,10,,,,,,,,6,,,,64,64
49975,note_off,115,0,1,,,,,,,,10,,,,72,64
49980,note_on,5,0,1,,,,,,,,10,,,,67,75
50095,note_off,115,0,1,,,,,,,,10,,,,67,64
50100,note_on,160,0,12,,,,,,,,8,,,,36,75
50100,note_on,160,0,9,,,,,,,,5,,,,72,75
50100,note_on,160,0,5,,,,,,,,1,,,,72,108
50100,note_on,160,0,11,,,,,,,,7,,,,48,75
50100,note_on,160,0,8,,,,,,,,4,,,,36,92
50100,note_on,160,0,10,,,,,,,,6,,,,64,75
50100,note_on,160,0,2,,,,,,,,10,,,,48,60
50100,note_on,320,0,13,,,,,,,,11,,,,36,75
50100,note_on,160,0,6,,,,,,,,2,,,,64,92
50100,note_on,160,0,7,,,,,,,,3,,,,48,92
50275,note_off,175,0,5,,,,,,,,1,,,,72,64
50275,note_off,175,0,9,,,,,,,,5,,,,72,64
50280,note_on,5,0,5,,,,,,,,1,,,,79,108
50280,note_on,5,0,9,,,,,,,,5,,,,79,75
50320,note_off,40,0,9,,,,,,,,5,,,,79,64
50320,note_off,40,0,5,,,,,,,,1,,,,79,64
50335,note_off,235,0,7,,,,,,,,3,,,,48,64
50335,note_off,235,0,11,,,,,,,,7,,,,48,64
50335,note_off,235,0,2,,,,,,,,10,,,,48,64
50335,note_off,235,0,6,,,,,,,,2,,,,64,64
50335,note_off,235,0,8,,,,,,,,4,,,,36,64
50335,note_off,235,0,12,,,,,,,,8,,,,36,64
50335,note_off,235,0,10,,,,,,,,6,,,,64,64
50340,note_on,5,0,7,,,,,,,,3,,,,60,92
50340,note_on,5,0,11,,,,,,,,7,,,,60,75
50340,note_on,5,0,10,,,,,,,,6,,,,67,75
50340,note_on,20,0,9,,,,,,,,5,,,,72,75
50340,note_on,5,0,6,,,,,,,,2,,,,67,92
50340,note_on,20,0,5,,,,,,,,1,,,,72,108
50340,note_on,5,0,12,,,,,,,,8,,,,48,75
50340,note_on,245,0,1,,,,,,,,10,,,,64,75
50340,note_on,5,0,8,,,,,,,,4,,,,48,92
50340,note_on,5,0,2,,,,,,,,10,,,,60,60
50420,note_off,80,0,8,,,,,,,,4,,,,48,64
50420,note_off,80,0,2,,,,,,,,10,,,,60,64
50420,note_off,80,0,11,,,,,,,,7,,,,60,64
50420,note_off,80,0,12,,,,,,,,8,,,,48,64
50420,note_off,80,0,6,,,,,,,,2,,,,67,64
50420,note_off,80,0,7,,,,,,,,3,,,,60,64
50420,note_off,80,0,10,,,,,,,,6,,,,67,64
50420,note_off,80,0,9,,,,,,,,5,,,,72,64
50420,note_off,80,0,5,,,,,,,,1,,,,72,64
50455,note_off,115,0,1,,,,,,,,10,,,,64,64
50460,note_on,5,0,1,,,,,,,,10,,,,67,75
50500,note_off,400,0,13,,,,,,,,11,,,,36,64
50575,note_off,115,0,1,,,,,,,,10,,,,67,64
50580,note_on,160,0,7,,,,,,,,3,,,,60,92
50580,note_on,160,0,6,,,,,,,,2,,,,64,92
50580,note_on,5,0,1,,,,,,,,10,,,,72,75
50580,note_on,160,0,12,,,,,,,,8,,,,48,75
50580,note_on,160,0,5,,,,,,,,1,,,,72,108
50580,note_on,160,0,11,,,,,,,,7,,,,60,75
50580,note_on,160,0,2,,,,,,,,10,,,,60,60
50580,note_on,160,0,9,,,,,,,,5,,,,72,75
50580,note_on,160,0,10,,,,,,,,6,,,,64,75
50580,note_on,160,0,8,,,,,,,,4,,,,48,92
50660,note_off,80,0,12,,,,,,,,8,,,,48,64
50660,note_off,80,0,11,,,,,,,,7,,,,60,64
50660,note_off,80,0,10,,,,,,,,6,,,,64,64
50660,note_off,80,0,8,,,,,,,,4,,,,48,64
50660,note_off,80,0,6,,,,,,,,2,,,,64,64
50660,note_off,80,0,9,,,,,,,,5,,,,72,64
50660,note_off,80,0,7,,,,,,,,3,,,,60,64
50660,note_off,80,0,5,,,,,,,,1,,,,72,64
50660,note_off,80,0,2,,,,,,,,10,,,,60,64
50695,note_off,115,0,1,,,,,,,,10,,,,72,64
50700,note_on,5,0,1,,,,,,,,10,,,,67,75
50815,note_off,115,0,1,,,,,,,,10,,,,67,64
50820,note_on,320,0,13,,,,,,,,11,,,,36,75
50820,note_on,160,0,6,,,,,,,,2,,,,64,92
50820,note_on,160,0,5,,,,,,,,1,,,,72,108
50820,note_on,160,0,8,,,,,,,,4,,,,36,92
50820,note_on,160,0,12,,,,,,,,8,,,,36,75
50820,note_on,160,0,7,,,,,,,,3,,,,48,92
50820,note_on,160,0,10,,,,,,,,6,,,,64,75
50820,note_on,160,0,2,,,,,,,,10,,,,48,60
50820,note_on,160,0,11,,,,,,,,7,,,,48,75
50820,note_on,160,0,9,,,,,,,,5,,,,72,75
50995,note_off,175,0,9,,,,,,,,5,,,,72,64
50995,note_off,175,0,5,,,,,,,,1,,,,72,64
51000,note_on,5,0,9,,,,,,,,5,,,,79,75
51000,note_on,5,0,5,,,,,,,,1,,,,79,108
51040,note_off,40,0,5,,,,,,,,1,,,,79,64
51040,note_off,40,0,9,,,,,,,,5,,,,79,64
51055,note_off,235,0,7,,,,,,,,3,,,,48,64
51055,note_off,235,0,8,,,,,,,,4,,,,36,64
51055,note_off,235,0,2,,,,,,,,10,,,,48,64
51055,note_off,235,0,12,,,,,,,,8,,,,36,64
51055,note_off,235,0,11,,,,,,,,7,,,,48,64
51055,note_off,235,0,13,,,,,,,,11,,,,36,64
51055,note_off,235,0,6,,,,,,,,2,,,,64,64
51055,note_off,235,0,10,,,,,,,,6,,,,64,64
51060,note_on,20,0,5,,,,,,,,1,,,,77,108
51060,note_on,5,0,12,,,,,,,,8,,,,41,75
51060,note_on,5,0,7,,,,,,,,3,,,,53,92
51060,note_on,245,0,1,,,,,,,,10,,,,69,75
51060,note_on,5,0,11,,,,,,,,7,,,,53,75
51060,note_on,5,0,10,,,,,,,,6,,,,69,75
51060,note_on,5,0,8,,,,,,,,4,,,,41,92
51060,note_on,5,0,6,,,,,,,,2,,,,69,92
51060,note_on,5,0,13,,,,,,,,11,,,,41,75
51060,note_on,5,0,2,,,,,,,,10,,,,53,60
51060,note_on,20,0,9,,,,,,,,5,,,,77,75
51140,note_off,80,0,5,,,,,,,,1,,,,77,64
51140,note_off,80,0,2,,,,,,,,10,,,,53,64
51140,note_off,80,0,9,,,,,,,,5,,,,77,64
51140,note_off,80,0,6,,,,,,,,2,,,,69,64
51140,note_off,80,0,1,,,,,,,,10,,,,69,64
51140,note_off,80,0,8,,,,,,,,4,,,,41,64
51140,note_off,80,0,11,,,,,,,,7,,,,53,64
51140,note_off,80,0,10,,,,,,,,6,,,,69,64
51140,note_off,80,0,7,,,,,,,,3,,,,53,64
51140,note_off,80,0,12,,,,,,,,8,,,,41,64
51295,note_off,235,0,13,,,,,,,,11,,,,41,64
51300,note_on,160,0,11,,,,,,,,7,,,,54,75
51300,note_on,160,0,12,,,,,,,,8,,,,42,75
51300,note_on,5,0,13,,,,,,,,11,,,,42,75
51300,note_on,160,0,5,,,,,,,,1,,,,76,108
51300,note_on,160,0,6,,,,,,,,2,,,,69,92
51300,note_on,160,0,10,,,,,,,,6,,,,69,75
51300,note_on,160,0,9,,,,,,,,5,,,,76,75
51300,note_on,160,0,2,,,,,,,,10,,,,54,60
51300,note_on,160,0,7,,,,,,,,3,,,,54,92
51300,note_on,160,0,8,,,,,,,,4,,,,42,92
51300,note_on,160,0,1,,,,,,,,10,,,,69,75
51380,note_off,80,0,10,,,,,,,,6,,,,69,64
51380,note_off,80,0,2,,,,,,,,10,,,,54,64
51380,note_off,80,0,8,,,,,,,,4,,,,42,64
51380,note_off,80,0,11,,,,,,,,7,,,,54,64
51380,note_off,80,0,12,,,,,,,,8,,,,42,64
51380,note_off,80,0,6,,,,,,,,2,,,,69,64
51380,note_off,80,0,9,,,,,,,,5,,,,76,64
51380,note_off,80,0,7,,,,,,,,3,,,,54,64
51380,note_off,80,0,1,,,,,,,,10,,,,69,64
51380,note_off,80,0,5,,,,,,,,1,,,,76,64
51535,note_off,235,0,13,,,,,,,,11,,,,42,64
51540,note_on,160,0,6,,,,,,,,2,,,,71,81
51540,note_on,160,0,7,,,,,,,,3,,,,55,81
51540,note_on,160,0,2,,,,,,,,10,,,,55,57
51540,note_on,5,0,13,,,,,,,,11,,,,43,75
51540,note_on,160,0,12,,,,,,,,8,,,,43,68
51540,note_on,160,0,10,,,,,,,,6,,,,71,68
51540,note_on,160,0,5,,,,,,,,1,,,,74,96
51540,note_on,160,0,8,,,,,,,,4,,,,43,81
51540,note_on,160,0,1,,,,,,,,10,,,,71,68
51540,note_on,160,0,9,,,,,,,,5,,,,74,68
51540,note_on,160,0,11,,,,,,,,7,,,,55,68
51620,note_off,80,0,7,,,,,,,,3,,,,55,64
51620,note_off,80,0,8,,,,,,,,4,,,,43,64
51620,note_off,80,0,6,,,,,,,,2,,,,71,64
51620,note_off,80,0,12,,,,,,,,8,,,,43,64
51620,note_off,80,0,9,,,,,,,,5,,,,74,64
51620,note_off,80,0,11,,,,,,,,7,,,,55,64
51620,note_off,80,0,5,,,,,,,,1,,,,74,64
51620,note_off,80,0,10,,,,,,,,6,,,,71,64
51620,note_off,80,0,1,,,,,,,,10,,,,71,64
51620,note_off,80,0,2,,,,,,,,10,,,,55,64
51660,note_on,40,0,1,,,,,,,,10,,,,69,65
51660,note_on,40,0,10,,,,,,,,6,,,,69,65
51660,note_on,40,0,11,,,,,,,,7,,,,53,65
51660,note_on,40,0,7,,,,,,,,3,,,,53,75
51660,note_on,40,0,2,,,,,,,,10,,,,53,55
51660,note_on,40,0,12,,,,,,,,8,,,,41,65
51660,note_on,40,0,8,,,,,,,,4,,,,41,75
51660,note_on,40,0,6,,,,,,,,2,,,,69,75
51740,note_off,80,0,6,,,,,,,,2,,,,69,64
51740,note_off,80,0,1,,,,,,,,10,,,,69,64
51740,note_off,80,0,11,,,,,,,,7,,,,53,64
51740,note_off,80,0,10,,,,,,,,6,,,,69,64
51740,note_off,80,0,12,,,,,,,,8,,,,41,64
51740,note_off,80,0,2,,,,,,,,10,,,,53,64
51740,note_off,80,0,8,,,,,,,,4,,,,41,64
51740,note_off,80,0,7,,,,,,,,3,,,,53,64
51780,note_on,40,0,12,,,,,,,,8,,,,40,61
51780,note_on,40,0,6,,,,,,,,2,,,,67,69
51780,note_on,40,0,11,,,,,,,,7,,,,52,61
51780,note_on,40,0,1,,,,,,,,10,,,,67,61
51780,note_on,40,0,2,,,,,,,,10,,,,52,53
51780,note_on,40,0,7,,,,,,,,3,,,,52,69
51780,note_on,160,0,9,,,,,,,,5,,,,74,61
51780,note_on,160,0,5,,,,,,,,1,,,,74,84
51780,note_on,40,0,8,,,,,,,,4,,,,40,69
51780,note_on,40,0,10,,,,,,,,6,,,,67,61
51860,note_off,80,0,9,,,,,,,,5,,,,74,64
51860,note_off,80,0,2,,,,,,,,10,,,,52,64
51860,note_off,80,0,10,,,,,,,,6,,,,67,64
51860,note_off,80,0,12,,,,,,,,8,,,,40,64
51860,note_off,80,0,8,,,,,,,,4,,,,40,64
51860,note_off,80,0,7,,,,,,,,3,,,,52,64
51860,note_off,80,0,6,,,,,,,,2,,,,67,64
51860,note_off,80,0,5,,,,,,,,1,,,,74,64
51860,note_off,80,0,1,,,,,,,,10,,,,67,64
51860,note_off,80,0,11,,,,,,,,7,,,,52,64
51900,note_on,40,0,6,,,,,,,,2,,,,65,63
51900,note_on,40,0,10,,,,,,,,6,,,,65,57
51900,note_on,40,0,1,,,,,,,,10,,,,65,57
51900,note_on,40,0,12,,,,,,,,8,,,,38,57
51900,note_on,40,0,2,,,,,,,,10,,,,50,51
51900,note_on,40,0,8,,,,,,,,4,,,,38,63
51900,note_on,40,0,7,,,,,,,,3,,,,50,63
51900,note_on,40,0,11,,,,,,,,7,,,,50,57
51940,note_off,400,0,13,,,,,,,,11,,,,43,64
51980,note_off,80,0,11,,,,,,,,7,,,,50,64
51980,note_off,80,0,2,,,,,,,,10,,,,50,64
51980,note_off,80,0,8,,,,,,,,4,,,,38,64
51980,note_off,80,0,7,,,,,,,,3,,,,50,64
51980,note_off,80,0,10,,,,,,,,6,,,,65,64
51980,note_off,80,0,1,,,,,,,,10,,,,65,64
51980,note_off,80,0,12,,,,,,,,8,,,,38,64
51980,note_off,80,0,6,,,,,,,,2,,,,65,64
52020,note_on,40,0,8,,,,,,,,4,,,,36,57
52020,note_on,40,0,7,,,,,,,,3,,,,48,57
52020,note_on,40,0,1,,,,,,,,10,,,,64,53
52020,note_on,40,0,6,,,,,,,,2,,,,64,57
52020,note_on,160,0,9,,,,,,,,5,,,,74,53
52020,note_on,40,0,12,,,,,,,,8,,,,36,53
52020,note_on,160,0,5,,,,,,,,1,,,,74,72
52020,note_on,40,0,10,,,,,,,,6,,,,64,53
52020,note_on,40,0,11,,,,,,,,7,,,,48,53
52020,note_on,40,0,2,,,,,,,,10,,,,48,49
52100,note_off,80,0,6,,,,,,,,2,,,,64,64
52100,note_off,80,0,5,,,,,,,,1,,,,74,64
52100,note_off,80,0,11,,,,,,,,7,,,,48,64
52100,note_off,80,0,8,,,,,,,,4,,,,36,64
52100,note_off,80,0,9,,,,,,,,5,,,,74,64
52100,note_off,80,0,7,,,,,,,,3,,,,48,64
52100,note_off,80,0,10,,,,,,,,6,,,,64,64
52100,note_off,80,0,12,,,,,,,,8,,,,36,64
52100,note_off,80,0,2,,,,,,,,10,,,,48,64
52100,note_off,80,0,1,,,,,,,,10,,,,64,64
52140,note_on,40,0,2,,,,,,,,10,,,,47,47
52140,note_on,40,0,10,,,,,,,,6,,,,62,49
52140,note_on,40,0,8,,,,,,,,4,,,,35,51
52140,note_on,40,0,12,,,,,,,,8,,,,35,49
52140,note_on,40,0,7,,,,,,,,3,,,,47,51
52140,note_on,40,0,11,,,,,,,,7,,,,47,49
52140,note_on,40,0,6,,,,,,,,2,,,,62,51
52140,note_on,40,0,1,,,,,,,,10,,,,62,49
52220,note_off,80,0,11,,,,,,,,7,,,,47,64
52220,note_off,80,0,1,,,,,,,,10,,,,62,64
52220,note_off,80,0,2,,,,,,,,10,,,,47,64
52220,note_off,80,0,7,,,,,,,,3,,,,47,64
52220,note_off,80,0,10,,,,,,,,6,,,,62,64
52220,note_off,80,0,12,,,,,,,,8,,,,35,64
52220,note_off,80,0,6,,,,,,,,2,,,,62,64
52220,note_off,80,0,8,,,,,,,,4,,,,35,64
52260,note_on,40,0,2,,,,,,,,10,,,,48,45
52260,note_on,40,0,8,,,,,,,,4,,,,36,45
52260,note_on,40,0,10,,,,,,,,6,,,,64,45
52260,note_on,40,0,12,,,,,,,,8,,,,36,45
52260,note_on,160,0,5,,,,,,,,1,,,,72,60
52260,note_on,40,0,11,,,,,,,,7,,,,48,45
52260,note_on,40,0,6,,,,,,,,2,,,,64,45
52260,note_on,40,0,7,,,,,,,,3,,,,48,45
52260,note_on,320,0,13,,,,,,,,11,,,,36,45
52260,note_on,160,0,9,,,,,,,,5,,,,72,45
52435,note_off,175,0,9,,,,,,,,5,,,,72,64
52435,note_off,175,0,5,,,,,,,,1,,,,72,64
52440,note_on,5,0,9,,,,,,,,5,,,,79,45
52440,note_on,5,0,5,,,,,,,,1,,,,79,60
52480,note_off,40,0,9,,,,,,,,5,,,,79,64
52480,note_off,40,0,5,,,,,,,,1,,,,79,64
52495,note_off,235,0,2,,,,,,,,10,,,,48,64
52495,note_off,235,0,10,,,,,,,,6,,,,64,64
52495,note_off,235,0,12,,,,,,,,8,,,,36,64
52495,note_off,235,0,11,,,,,,,,7,,,,48,64
52495,note_off,235,0,7,,,,,,,,3,,,,48,64
52495,note_off,235,0,6,,,,,,,,2,,,,64,64
52495,note_off,235,0,8,,,,,,,,4,,,,36,64
52500,note_on,5,0,11,,,,,,,,7,,,,60,45
52500,note_on,5,0,6,,,,,,,,2,,,,67,45
52500,note_on,20,0,5,,,,,,,,1,,,,72,60
52500,note_on,5,0,2,,,,,,,,10,,,,60,45
52500,note_on,5,0,7,,,,,,,,3,,,,60,45
52500,note_on,5,0,12,,,,,,,,8,,,,48,45
52500,note_on,5,0,8,,,,,,,,4,,,,48,45
52500,note_on,5,0,10,,,,,,,,6,,,,67,45
52500,note_on,20,0,9,,,,,,,,5,,,,72,45
52500,note_on,280,0,1,,,,,,,,10,,,,64,45
52580,note_off,80,0,11,,,,,,,,7,,,,60,64
52580,note_off,80,0,8,,,,,,,,4,,,,48,64
52580,note_off,80,0,12,,,,,,,,8,,,,48,64
52580,note_off,80,0,6,,,,,,,,2,,,,67,64
52580,note_off,80,0,10,,,,,,,,6,,,,67,64
52580,note_off,80,0,9,,,,,,,,5,,,,72,64
52580,note_off,80,0,2,,,,,,,,10,,,,60,64
52580,note_off,80,0,7,,,,,,,,3,,,,60,64
52580,note_off,80,0,5,,,,,,,,1,,,,72,64
52615,note_off,115,0,1,,,,,,,,10,,,,64,64
52620,note_on,5,0,1,,,,,,,,10,,,,67,45
52660,note_off,400,0,13,,,,,,,,11,,,,36,64
52735,note_off,115,0,1,,,,,,,,10,,,,67,64
52740,note_on,160,0,11,,,,,,,,7,,,,60,45
52740,note_on,160,0,5,,,,,,,,1,,,,72,60
52740,note_on,160,0,10,,,,,,,,6,,,,64,45
52740,note_on,160,0,7,,,,,,,,3,,,,60,45
52740,note_on,160,0,12,,,,,,,,8,,,,48,45
52740,note_on,5,0,1,,,,,,,,10,,,,72,45
52740,note_on,160,0,2,,,,,,,,10,,,,60,45
52740,note_on,160,0,8,,,,,,,,4,,,,48,45
52740,note_on,160,0,9,,,,,,,,5,,,,72,45
52740,note_on,160,0,6,,,,,,,,2,,,,64,45
52820,note_off,80,0,9,,,,,,,,5,,,,72,64
52820,note_off,80,0,12,,,,,,,,8,,,,48,64
52820,note_off,80,0,6,,,,,,,,2,,,,64,64
52820,note_off,80,0,2,,,,,,,,10,,,,60,64
52820,note_off,80,0,7,,,,,,,,3,,,,60,64
52820,note_off,80,0,11,,,,,,,,7,,,,60,64
52820,note_off,80,0,8,,,,,,,,4,,,,48,64
52820,note_off,80,0,10,,,,,,,,6,,,,64,64
52820,note_off,80,0,5,,,,,,,,1,,,,72,64
52855,note_off,115,0,1,,,,,,,,10,,,,72,64
52860,note_on,5,0,1,,,,,,,,10,,,,67,45
52975,note_off,115,0,1,,,,,,,,10,,,,67,64
52980,note_on,160,0,2,,,,,,,,10,,,,48,45
52980,note_on,160,0,9,,,,,,,,5,,,,72,45
52980,note_on,160,0,10,,,,,,,,6,,,,64,45
52980,note_on,160,0,11,,,,,,,,7,,,,48,45
52980,note_on,320,0,13,,,,,,,,11,,,,36,45
52980,note_on,160,0,12,,,,,,,,8,,,,36,45
52980,note_on,160,0,5,,,,,,,,1,,,,72,60
52980,note_on,160,0,8,,,,,,,,4,,,,36,45
52980,note_on,160,0,7,,,,,,,,3,,,,48,45
52980,note_on,160,0,6,,,,,,,,2,,,,64,45
53155,note_off,175,0,5,,,,,,,,1,,,,72,64
53155,note_off,175,0,9,,,,,,,,5,,,,72,64
53160,note_on,5,0,5,,,,,,,,1,,,,79,60
53160,note_on,5,0,9,,,,,,,,5,,,,79,45
53200,note_off,40,0,9,,,,,,,,5,,,,79,64
53200,note_off,40,0,5,,,,,,,,1,,,,79,64
53215,note_off,235,0,10,,,,,,,,6,,,,64,64
53215,note_off,235,0,12,,,,,,,,8,,,,36,64
53215,note_off,235,0,11,,,,,,,,7,,,,48,64
53215,note_off,235,0,8,,,,,,,,4,,,,36,64
53215,note_off,235,0,2,,,,,,,,10,,,,48,64
53215,note_off,235,0,6,,,,,,,,2,,,,64,64
53215,note_off,235,0,7,,,,,,,,3,,,,48,64
53220,note_on,5,0,10,,,,,,,,6,,,,67,45
53220,note_on,5,0,7,,,,,,,,3,,,,60,45
53220,note_on,5,0,11,,,,,,,,7,,,,60,45
53220,note_on,245,0,1,,,,,,,,10,,,,64,45
53220,note_on,5,0,8,,,,,,,,4,,,,48,45
53220,note_on,20,0,5,,,,,,,,1,,,,72,60
53220,note_on,5,0,6,,,,,,,,2,,,,67,45
53220,note_on,20,0,9,,,,,,,,5,,,,72,45
53220,note_on,5,0,2,,,,,,,,10,,,,60,45
53220,note_on,5,0,12,,,,,,,,8,,,,48,45
53300,note_off,80,0,7,,,,,,,,3,,,,60,64
53300,note_off,80,0,6,,,,,,,,2,,,,67,64
53300,note_off,80,0,8,,,,,,,,4,,,,48,64
53300,note_off,80,0,11,,,,,,,,7,,,,60,64
53300,note_off,80,0,5,,,,,,,,1,,,,72,64
53300,note_off,80,0,9,,,,,,,,5,,,,72,64
53300,note_off,80,0,10,,,,,,,,6,,,,67,64
53300,note_off,80,0,2,,,,,,,,10,,,,60,64
53300,note_off,80,0,12,,,,,,,,8,,,,48,64
53340,note_off,120,0,1,,,,,,,,10,,,,64,64
53340,note_on,0,0,1,,,,,,,,10,,,,67,45
53380,note_off,400,0,13,,,,,,,,11,,,,36,64
53460,note_on,0,0,1,,,,,,,,10,,,,72,45
53460,note_on,160,0,9,,,,,,,,5,,,,72,45
53460,note_on,160,0,2,,,,,,,,10,,,,60,45
53460,note_on,160,0,5,,,,,,,,1,,,,72,60
53460,note_on,160,0,7,,,,,,,,3,,,,60,45
53460,note_on,160,0,10,,,,,,,,6,,,,64,45
53460,note_on,160,0,11,,,,,,,,7,,,,60,45
53460,note_off,120,0,1,,,,,,,,10,,,,67,64
53460,note_on,160,0,12,,,,,,,,8,,,,48,45
53460,note_on,160,0,8,,,,,,,,4,,,,48,45
53460,note_on,160,0,6,,,,,,,,2,,,,64,45
53540,note_off,80,0,2,,,,,,,,10,,,,60,64
53540,note_off,80,0,12,,,,,,,,8,,,,48,64
53540,note_off,80,0,8,,,,,,,,4,,,,48,64
53540,note_off,80,0,11,,,,,,,,7,,,,60,64
53540,note_off,80,0,9,,,,,,,,5,,,,72,64
53540,note_off,80,0,10,,,,,,,,6,,,,64,64
53540,note_off,80,0,7,,,,,,,,3,,,,60,64
53540,note_off,80,0,6,,,,,,,,2,,,,64,64
53540,note_off,80,0,5,,,,,,,,1,,,,72,64
53580,note_on,0,0,1,,,,,,,,10,,,,67,45
53580,note_off,120,0,1,,,,,,,,10,,,,72,64
53700,note_on,160,0,9,,,,,,,,5,,,,72,45
53700,note_on,160,0,10,,,,,,,,6,,,,64,45
53700,note_off,120,0,1,,,,,,,,10,,,,67,64
53700,note_on,160,0,6,,,,,,,,2,,,,64,45
53700,note_on,160,0,11,,,,,,,,7,,,,48,45
53700,note_on,160,0,7,,,,,,,,3,,,,48,45
53700,note_on,160,0,8,,,,,,,,4,,,,36,45
53700,note_on,320,0,13,,,,,,,,11,,,,36,45
53700,note_on,160,0,2,,,,,,,,10,,,,48,45
53700,note_on,160,0,5,,,,,,,,1,,,,72,60
53700,note_on,160,0,12,,,,,,,,8,,,,36,45
53875,note_off,175,0,7,,,,,,,,3,,,,48,64
53875,note_off,175,0,8,,,,,,,,4,,,,36,64
53875,note_off,175,0,2,,,,,,,,10,,,,48,64
53875,note_off,175,0,12,,,,,,,,8,,,,36,64
53875,note_off,175,0,11,,,,,,,,7,,,,48,64
53875,note_off,175,0,9,,,,,,,,5,,,,72,64
53875,note_off,175,0,5,,,,,,,,1,,,,72,64
53880,note_on,5,0,12,,,,,,,,8,,,,48,45
53880,note_on,5,0,8,,,,,,,,4,,,,48,45
53880,note_on,5,0,11,,,,,,,,7,,,,60,45
53880,note_on,5,0,7,,,,,,,,3,,,,60,45
53880,note_on,5,0,9,,,,,,,,5,,,,76,45
53880,note_on,5,0,2,,,,,,,,10,,,,60,45
53880,note_on,5,0,5,,,,,,,,1,,,,76,60
53920,note_off,40,0,2,,,,,,,,10,,,,60,64
53920,note_off,40,0,12,,,,,,,,8,,,,48,64
53920,note_off,40,0,8,,,,,,,,4,,,,48,64
53920,note_off,40,0,11,,,,,,,,7,,,,60,64
53920,note_off,40,0,5,,,,,,,,1,,,,76,64
53920,note_off,40,0,9,,,,,,,,5,,,,76,64
53920,note_off,40,0,7,,,,,,,,3,,,,60,64
53935,note_off,235,0,6,,,,,,,,2,,,,64,64
53935,note_off,235,0,13,,,,,,,,11,,,,36,64
53935,note_off,235,0,10,,,,,,,,6,,,,64,64
53940,note_on,20,0,12,,,,,,,,8,,,,41,45
53940,note_on,20,0,11,,,,,,,,7,,,,53,45
53940,note_on,20,0,8,,,,,,,,4,,,,41,45
53940,note_on,5,0,13,,,,,,,,11,,,,41,45
53940,note_on,240,0,1,,,,,,,,10,,,,69,45
53940,note_on,20,0,7,,,,,,,,3,,,,53,45
53940,note_on,20,0,5,,,,,,,,1,,,,77,60
53940,note_on,5,0,6,,,,,,,,2,,,,69,45
53940,note_on,20,0,2,,,,,,,,10,,,,53,45
53940,note_on,20,0,9,,,,,,,,5,,,,77,45
53940,note_on,5,0,10,,,,,,,,6,,,,69,45
54020,note_off,80,0,9,,,,,,,,5,,,,77,64
54020,note_off,80,0,2,,,,,,,,10,,,,53,64
54020,note_off,80,0,12,,,,,,,,8,,,,41,64
54020,note_off,80,0,7,,,,,,,,3,,,,53,64
54020,note_off,80,0,11,,,,,,,,7,,,,53,64
54020,note_off,80,0,8,,,,,,,,4,,,,41,64
54020,note_off,80,0,10,,,,,,,,6,,,,69,64
54020,note_off,80,0,1,,,,,,,,10,,,,69,64
54020,note_off,80,0,5,,,,,,,,1,,,,77,64
54020,note_off,80,0,6,,,,,,,,2,,,,69,64
54175,note_off,235,0,13,,,,,,,,11,,,,41,64
54180,note_on,160,0,11,,,,,,,,7,,,,55,45
54180,note_on,5,0,13,,,,,,,,11,,,,43,45
54180,note_on,160,0,2,,,,,,,,10,,,,55,45
54180,note_on,160,0,5,,,,,,,,1,,,,74,60
54180,note_on,160,0,12,,,,,,,,8,,,,43,45
54180,note_on,160,0,7,,,,,,,,3,,,,55,45
54180,note_on,160,0,1,,,,,,,,10,,,,67,45
54180,note_on,160,0,6,,,,,,,,2,,,,67,45
54180,note_on,160,0,8,,,,,,,,4,,,,43,45
54180,note_on,160,0,10,,,,,,,,6,,,,67,45
54180,note_on,160,0,9,,,,,,,,5,,,,74,45
54260,note_off,80,0,9,,,,,,,,5,,,,74,64
54260,note_off,80,0,6,,,,,,,,2,,,,67,64
54260,note_off,80,0,1,,,,,,,,10,,,,67,64
54260,note_off,80,0,7,,,,,,,,3,,,,55,64
54260,note_off,80,0,12,,,,,,,,8,,,,43,64
54260,note_off,80,0,2,,,,,,,,10,,,,55,64
54260,note_off,80,0,10,,,,,,,,6,,,,67,64
54260,note_off,80,0,8,,,,,,,,4,,,,43,64
54260,note_off,80,0,11,,,,,,,,7,,,,55,64
54260,note_off,80,0,5,,,,,,,,1,,,,74,64
54415,note_off,235,0,13,,,,,,,,11,,,,43,64
54420,note_on,160,0,8,,,,,,,,4,,,,36,45
54420,note_on,160,0,11,,,,,,,,7,,,,48,45
54420,note_on,160,0,10,,,,,,,,6,,,,64,45
54420,note_on,5,0,13,,,,,,,,11,,,,36,45
54420,note_on,160,0,6,,,,,,,,2,,,,64,45
54420,note_on,5045,0,3,,,,,,,,0,,,,60,60
54420,note_on,160,0,7,,,,,,,,3,,,,48,45
54420,note_on,160,0,9,,,,,,,,5,,,,76,45
54420,set_tempo,24480,1,0,882352,,,,,,,,,,,,
54420,note_on,160,0,5,,,,,,,,1,,,,76,45
54420,note_on,160,0,12,,,,,,,,8,,,,36,45
54420,note_on,5045,0,4,,,,,,,,12,,,,60,45
54500,note_off,80,0,4,,,,,,,,12,,,,60,64
54500,note_on,0,0,4,,,,,,,,12,,,,55,45
54500,note_on,0,0,3,,,,,,,,0,,,,55,60
54500,note_off,80,0,3,,,,,,,,0,,,,60,64
54580,note_off,80,0,4,,,,,,,,12,,,,55,64
54580,note_on,0,0,4,,,,,,,,12,,,,60,45
54580,note_off,80,0,3,,,,,,,,0,,,,55,64
54580,note_on,0,0,3,,,,,,,,0,,,,60,60
54632,note_off,52,0,4,,,,,,,,12,,,,60,64
54632,note_off,52,0,3,,,,,,,,0,,,,60,64
54660,note_on,28,0,3,,,,,,,,0,,,,64,60
54660,note_on,28,0,4,,,,,,,,12,,,,64,45
54740,note_off,80,0,3,,,,,,,,0,,,,64,64
54740,note_on,0,0,4,,,,,,,,12,,,,60,45
54740,note_on,0,0,3,,,,,,,,0,,,,60,60
54740,note_off,80,0,4,,,,,,,,12,,,,64,64
54820,note_on,0,0,3,,,,,,,,0,,,,64,60
54820,note_off,400,0,7,,,,,,,,3,,,,48,64
54820,note_off,80,0,3,,,,,,,,0,,,,60,64
54820,note_off,400,0,5,,,,,,,,1,,,,76,64
54820,note_off,400,0,12,,,,,,,,8,,,,36,64
54820,note_off,400,0,6,,,,,,,,2,,,,64,64
54820,note_off,400,0,11,,,,,,,,7,,,,48,64
54820,note_off,400,0,13,,,,,,,,11,,,,36,64
54820,note_off,400,0,8,,,,,,,,4,,,,36,64
54820,note_off,80,0,4,,,,,,,,12,,,,60,64
54820,note_on,0,0,4,,,,,,,,12,,,,64,45
54820,note_off,400,0,10,,,,,,,,6,,,,64,64
54820,note_off,400,0,9,,,,,,,,5,,,,76,64
54872,note_off,52,0,3,,,,,,,,0,,,,64,64
54872,note_off,52,0,4,,,,,,,,12,,,,64,64
54900,note_on,28,0,3,,,,,,,,0,,,,67,60
54900,note_on,28,0,4,,,,,,,,12,,,,67,45
54980,note_off,80,0,3,,,,,,,,0,,,,67,64
54980,note_off,80,0,4,,,,,,,,12,,,,67,64
54980,note_on,0,0,3,,,,,,,,0,,,,64,60
54980,note_on,0,0,4,,,,,,,,12,,,,64,45
55060,note_off,80,0,4,,,,,,,,12,,,,64,64
55060,note_on,0,0,3,,,,,,,,0,,,,67,60
55060,note_off,80,0,3,,,,,,,,0,,,,64,64
55060,note_on,0,0,4,,,,,,,,12,,,,67,45
55112,note_off,52,0,4,,,,,,,,12,,,,67,64
55112,note_off,52,0,3,,,,,,,,0,,,,67,64
55140,note_on,28,0,3,,,,,,,,0,,,,64,60
55140,note_on,28,0,4,,,,,,,,12,,,,64,45
55220,note_off,80,0,3,,,,,,,,0,,,,64,64
55220,note_on,0,0,3,,,,,,,,0,,,,60,60
55220,note_on,0,0,4,,,,,,,,12,,,,60,45
55220,note_off,80,0,4,,,,,,,,12,,,,64,64
55300,note_on,0,0,4,,,,,,,,12,,,,64,45
55300,note_off,80,0,4,,,,,,,,12,,,,60,64
55300,note_on,0,0,3,,,,,,,,0,,,,64,60
55300,note_off,80,0,3,,,,,,,,0,,,,60,64
55352,note_off,52,0,4,,,,,,,,12,,,,64,64
55352,note_off,52,0,3,,,,,,,,0,,,,64,64
55380,note_on,28,0,3,,,,,,,,0,,,,60,60
55380,note_on,28,0,4,,,,,,,,12,,,,60,45
55460,note_off,80,0,3,,,,,,,,0,,,,60,64
55460,note_on,0,0,4,,,,,,,,12,,,,55,45
55460,note_off,80,0,4,,,,,,,,12,,,,60,64
55460,note_on,0,0,3,,,,,,,,0,,,,55,60
55540,note_on,0,0,3,,,,,,,,0,,,,60,60
55540,note_off,80,0,3,,,,,,,,0,,,,55,64
55540,note_off,80,0,4,,,,,,,,12,,,,55,64
55540,note_on,0,0,4,,,,,,,,12,,,,60,45
55592,note_off,52,0,3,,,,,,,,0,,,,60,64
55592,note_off,52,0,4,,,,,,,,12,,,,60,64
55620,note_on,28,0,4,,,,,,,,12,,,,64,45
55620,note_on,28,0,3,,,,,,,,0,,,,64,60
55700,note_off,80,0,4,,,,,,,,12,,,,64,64
55700,note_on,0,0,4,,,,,,,,12,,,,60,45
55700,note_on,0,0,3,,,,,,,,0,,,,60,60
55700,note_off,80,0,3,,,,,,,,0,,,,64,64
55780,note_off,80,0,3,,,,,,,,0,,,,60,64
55780,note_off,80,0,4,,,,,,,,12,,,,60,64
55780,note_on,0,0,4,,,,,,,,12,,,,64,45
55780,note_on,0,0,3,,,,,,,,0,,,,64,60
55832,note_off,52,0,4,,,,,,,,12,,,,64,64
55832,note_off,52,0,3,,,,,,,,0,,,,64,64
55860,note_on,1040,0,9,,,,,,,,5,,,,60,45
55860,note_on,1040,0,5,,,,,,,,1,,,,60,45
55860,note_on,1040,0,8,,,,,,,,4,,,,36,45
55860,note_on,1040,0,11,,,,,,,,7,,,,48,45
55860,note_on,1040,0,13,,,,,,,,11,,,,36,45
55860,note_on,1040,0,10,,,,,,,,6,,,,60,45
55860,note_on,1040,0,6,,,,,,,,2,,,,60,45
55860,note_on,28,0,3,,,,,,,,0,,,,67,60
55860,note_on,1040,0,12,,,,,,,,8,,,,36,45
55860,note_on,28,0,4,,,,,,,,12,,,,67,45
55860,note_on,1040,0,7,,,,,,,,3,,,,48,45
55940,note_off,80,0,3,,,,,,,,0,,,,67,64
55940,note_on,0,0,3,,,,,,,,0,,,,64,60
55940,note_on,0,0,4,,,,,,,,12,,,,64,45
55940,note_off,80,0,4,,,,,,,,12,,,,67,64
56020,note_off,80,0,3,,,,,,,,0,,,,64,64
56020,note_off,80,0,4,,,,,,,,12,,,,64,64
56020,note_on,0,0,4,,,,,,,,12,,,,67,45
56020,note_on,0,0,3,,,,,,,,0,,,,67,60
56072,note_off,52,0,3,,,,,,,,0,,,,67,64
56072,note_off,52,0,4,,,,,,,,12,,,,67,64
56100,note_on,28,0,3,,,,,,,,0,,,,72,60
56100,note_on,28,0,4,,,,,,,,12,,,,72,45
56180,note_on,0,0,3,,,,,,,,0,,,,67,60
56180,note_off,80,0,4,,,,,,,,12,,,,72,64
56180,note_on,0,0,4,,,,,,,,12,,,,67,45
56180,note_off,80,0,3,,,,,,,,0,,,,72,64
56260,note_off,400,0,11,,,,,,,,7,,,,48,64
56260,note_on,0,0,3,,,,,,,,0,,,,72,60
56260,note_off,400,0,10,,,,,,,,6,,,,60,64
56260,note_off,400,0,13,,,,,,,,11,,,,36,64
56260,note_off,400,0,8,,,,,,,,4,,,,36,64
56260,note_off,80,0,4,,,,,,,,12,,,,67,64
56260,note_off,80,0,3,,,,,,,,0,,,,67,64
56260,note_on,0,0,4,,,,,,,,12,,,,72,45
56260,note_off,400,0,9,,,,,,,,5,,,,60,64
56260,note_off,400,0,7,,,,,,,,3,,,,48,64
56260,note_off,400,0,5,,,,,,,,1,,,,60,64
56260,note_off,400,0,6,,,,,,,,2,,,,60,64
56260,note_off,400,0,12,,,,,,,,8,,,,36,64
56312,note_off,52,0,4,,,,,,,,12,,,,72,64
56312,note_off,52,0,3,,,,,,,,0,,,,72,64
56340,note_on,28,0,4,,,,,,,,12,,,,76,45
56340,note_on,28,0,3,,,,,,,,0,,,,76,60
56420,note_off,80,0,4,,,,,,,,12,,,,76,64
56420,note_on,0,0,4,,,,,,,,12,,,,72,45
56420,note_off,80,0,3,,,,,,,,0,,,,76,64
56420,note_on,0,0,3,,,,,,,,0,,,,72,60
56500,note_off,80,0,4,,,,,,,,12,,,,72,64
56500,note_on,0,0,4,,,,,,,,12,,,,76,45
56500,note_on,0,0,3,,,,,,,,0,,,,76,60
56500,note_off,80,0,3,,,,,,,,0,,,,72,64
56552,note_off,52,0,3,,,,,,,,0,,,,76,64
56552,note_off,52,0,4,,,,,,,,12,,,,76,64
56580,note_on,28,0,3,,,,,,,,0,,,,72,60
56580,note_on,28,0,4,,,,,,,,12,,,,72,45
56660,note_off,80,0,3,,,,,,,,0,,,,72,64
56660,note_on,0,0,4,,,,,,,,12,,,,67,45
56660,note_off,80,0,4,,,,,,,,12,,,,72,64
56660,note_on,0,0,3,,,,,,,,0,,,,67,60
56740,note_off,80,0,3,,,,,,,,0,,,,67,64
56740,note_on,0,0,3,,,,,,,,0,,,,72,60
56740,note_on,0,0,4,,,,,,,,12,,,,72,45
56740,note_off,80,0,4,,,,,,,,12,,,,67,64
56792,note_off,52,0,3,,,,,,,,0,,,,72,64
56792,note_off,52,0,4,,,,,,,,12,,,,72,64
56820,note_on,28,0,3,,,,,,,,0,,,,67,60
56820,note_on,28,0,4,,,,,,,,12,,,,67,45
56900,note_off,80,0,3,,,,,,,,0,,,,67,64
56900,note_on,0,0,3,,,,,,,,0,,,,64,60
56900,note_off,80,0,4,,,,,,,,12,,,,67,64
56900,note_on,0,0,4,,,,,,,,12,,,,64,45
56980,note_off,80,0,4,,,,,,,,12,,,,64,64
56980,note_on,0,0,4,,,,,,,,12,,,,67,45
56980,note_off,80,0,3,,,,,,,,0,,,,64,64
56980,note_on,0,0,3,,,,,,,,0,,,,67,60
57032,note_off,52,0,4,,,,,,,,12,,,,67,64
57032,note_off,52,0,3,,,,,,,,0,,,,67,64
57060,note_on,28,0,4,,,,,,,,12,,,,72,45
57060,note_on,28,0,3,,,,,,,,0,,,,72,60
57140,note_off,80,0,4,,,,,,,,12,,,,72,64
57140,note_on,0,0,4,,,,,,,,12,,,,67,45
57140,note_on,0,0,3,,,,,,,,0,,,,67,60
57140,note_off,80,0,3,,,,,,,,0,,,,72,64
57220,note_on,0,0,4,,,,,,,,12,,,,72,45
57220,note_off,80,0,4,,,,,,,,12,,,,67,64
57220,note_on,0,0,3,,,,,,,,0,,,,72,60
57220,note_off,80,0,3,,,,,,,,0,,,,67,64
57272,note_off,52,0,3,,,,,,,,0,,,,72,64
57272,note_off,52,0,4,,,,,,,,12,,,,72,64
57300,note_on,1040,0,5,,,,,,,,1,,,,60,45
57300,note_on,1040,0,6,,,,,,,,2,,,,60,45
57300,note_on,1040,0,12,,,,,,,,8,,,,36,45
57300,note_on,1040,0,11,,,,,,,,7,,,,48,45
57300,note_on,1040,0,13,,,,,,,,11,,,,36,45
57300,note_on,1040,0,9,,,,,,,,5,,,,60,45
57300,note_on,1040,0,10,,,,,,,,6,,,,60,45
57300,note_on,1040,0,7,,,,,,,,3,,,,48,45
57300,note_on,1040,0,8,,,,,,,,4,,,,36,45
57300,note_on,28,0,3,,,,,,,,0,,,,76,60
57300,note_on,28,0,4,,,,,,,,12,,,,76,45
57380,note_off,80,0,3,,,,,,,,0,,,,76,64
57380,note_on,0,0,3,,,,,,,,0,,,,72,60
57380,note_off,80,0,4,,,,,,,,12,,,,76,64
57380,note_on,0,0,4,,,,,,,,12,,,,72,45
57460,note_on,0,0,3,,,,,,,,0,,,,76,60
57460,note_off,80,0,4,,,,,,,,12,,,,72,64
57460,note_on,0,0,4,,,,,,,,12,,,,76,45
57460,note_off,80,0,3,,,,,,,,0,,,,72,64
57512,note_off,52,0,3,,,,,,,,0,,,,76,64
57512,note_off,52,0,4,,,,,,,,12,,,,76,64
57540,note_on,28,0,3,,,,,,,,0,,,,72,61
57540,note_on,28,0,4,,,,,,,,12,,,,72,46
57620,note_off,80,0,3,,,,,,,,0,,,,72,64
57620,note_on,0,0,3,,,,,,,,0,,,,67,62
57620,note_on,0,0,4,,,,,,,,12,,,,67,47
57620,note_off,80,0,4,,,,,,,,12,,,,72,64
57700,note_off,400,0,8,,,,,,,,4,,,,36,64
57700,note_off,400,0,10,,,,,,,,6,,,,60,64
57700,note_off,400,0,5,,,,,,,,1,,,,60,64
57700,note_off,400,0,6,,,,,,,,2,,,,60,64
57700,note_off,400,0,12,,,,,,,,8,,,,36,64
57700,note_on,0,0,3,,,,,,,,0,,,,72,63
57700,note_off,400,0,11,,,,,,,,7,,,,48,64
57700,note_off,80,0,3,,,,,,,,0,,,,67,64
57700,note_off,400,0,13,,,,,,,,11,,,,36,64
57700,note_off,400,0,9,,,,,,,,5,,,,60,64
57700,note_off,400,0,7,,,,,,,,3,,,,48,64
57700,note_off,80,0,4,,,,,,,,12,,,,67,64
57700,note_on,0,0,4,,,,,,,,12,,,,72,48
57752,note_off,52,0,3,,,,,,,,0,,,,72,64
57752,note_off,52,0,4,,,,,,,,12,,,,72,64
57780,note_on,28,0,3,,,,,,,,0,,,,67,64
57780,note_on,28,0,4,,,,,,,,12,,,,67,49
57860,note_on,0,0,4,,,,,,,,12,,,,64,50
57860,note_off,80,0,4,,,,,,,,12,,,,67,64
57860,note_off,80,0,3,,,,,,,,0,,,,67,64
57860,note_on,0,0,3,,,,,,,,0,,,,64,65
57940,note_on,0,0,4,,,,,,,,12,,,,67,51
57940,note_off,80,0,3,,,,,,,,0,,,,64,64
57940,note_on,0,0,3,,,,,,,,0,,,,67,66
57940,note_off,80,0,4,,,,,,,,12,,,,64,64
57992,note_off,52,0,4,,,,,,,,12,,,,67,64
57992,note_off,52,0,3,,,,,,,,0,,,,67,64
58020,note_on,28,0,4,,,,,,,,12,,,,72,52
58020,note_on,28,0,3,,,,,,,,0,,,,72,67
58100,note_off,80,0,3,,,,,,,,0,,,,72,64
58100,note_on,0,0,3,,,,,,,,0,,,,67,68
58100,note_off,80,0,4,,,,,,,,12,,,,72,64
58100,note_on,0,0,4,,,,,,,,12,,,,67,53
58180,note_on,0,0,4,,,,,,,,12,,,,72,54
58180,note_on,0,0,3,,,,,,,,0,,,,72,69
58180,note_off,80,0,4,,,,,,,,12,,,,67,64
58180,note_off,80,0,3,,,,,,,,0,,,,67,64
58232,note_off,52,0,3,,,,,,,,0,,,,72,64
58232,note_off,52,0,4,,,,,,,,12,,,,72,64
58260,note_on,28,0,3,,,,,,,,0,,,,76,70
58260,note_on,28,0,4,,,,,,,,12,,,,76,55
58340,note_off,80,0,3,,,,,,,,0,,,,76,64
58340,note_on,0,0,3,,,,,,,,0,,,,72,71
58340,note_on,0,0,4,,,,,,,,12,,,,72,56
58340,note_off,80,0,4,,,,,,,,12,,,,76,64
58420,note_off,80,0,3,,,,,,,,0,,,,72,64
58420,note_on,0,0,3,,,,,,,,0,,,,76,72
58420,note_on,0,0,4,,,,,,,,12,,,,76,57
58420,note_off,80,0,4,,,,,,,,12,,,,72,64
58472,note_off,52,0,3,,,,,,,,0,,,,76,64
58472,note_off,52,0,4,,,,,,,,12,,,,76,64
58500,note_on,28,0,3,,,,,,,,0,,,,79,73
58500,note_on,28,0,4,,,,,,,,12,,,,79,58
58580,note_on,0,0,4,,,,,,,,12,,,,76,59
58580,note_off,80,0,4,,,,,,,,12,,,,79,64
58580,note_on,0,0,3,,,,,,,,0,,,,76,74
58580,note_off,80,0,3,,,,,,,,0,,,,79,64
58660,note_on,0,0,4,,,,,,,,12,,,,79,60
58660,note_off,80,0,4,,,,,,,,12,,,,76,64
58660,note_on,0,0,3,,,,,,,,0,,,,79,75
58660,note_off,80,0,3,,,,,,,,0,,,,76,64
58712,note_off,52,0,4,,,,,,,,12,,,,79,64
58712,note_off,52,0,3,,,,,,,,0,,,,79,64
58740,note_on,1040,0,11,,,,,,,,7,,,,48,59
58740,note_on,28,0,3,,,,,,,,0,,,,84,60
58740,note_on,1040,0,12,,,,,,,,8,,,,36,59
58740,note_on,1040,0,8,,,,,,,,4,,,,36,59
58740,note_on,1040,0,7,,,,,,,,3,,,,48,59
58740,note_on,28,0,4,,,,,,,,12,,,,84,45
58820,note_off,80,0,11,,,,,,,,7,,,,48,64
58820,note_off,80,0,12,,,,,,,,8,,,,36,64
58820,note_off,80,0,4,,,,,,,,12,,,,84,64
58975,note_off,235,0,8,,,,,,,,4,,,,36,64
58975,note_off,235,0,7,,,,,,,,3,,,,48,64
58975,note_off,235,0,3,,,,,,,,0,,,,84,64
58980,note_on,1280,0,10,,,,,,,,6,,,,60,61
58980,note_on,1280,0,6,,,,,,,,2,,,,60,61
59060,note_off,80,0,6,,,,,,,,2,,,,60,64
59060,note_off,80,0,10,,,,,,,,6,,,,60,64
59220,note_on,1520,0,9,,,,,,,,5,,,,60,63
59220,note_on,1520,0,5,,,,,,,,1,,,,60,63
59300,note_off,80,0,9,,,,,,,,5,,,,60,64
59300,note_off,80,0,5,,,,,,,,1,,,,60,64
59400,note_on,425,0,7,,,,,,,,3,,,,48,64
59400,note_on,425,0,8,,,,,,,,4,,,,36,64
59400,note_on,580,0,11,,,,,,,,7,,,,48,64
59400,note_on,580,0,12,,,,,,,,8,,,,36,64
59440,note_off,40,0,12,,,,,,,,8,,,,36,64
59440,note_off,40,0,11,,,,,,,,7,,,,48,64
59440,note_off,40,0,8,,,,,,,,4,,,,36,64
59440,note_off,40,0,7,,,,,,,,3,,,,48,64
59460,note_on,20,0,8,,,,,,,,4,,,,36,64
59460,note_on,20,0,7,,,,,,,,3,,,,48,64
59460,note_on,20,0,12,,,,,,,,8,,,,36,64
59460,note_on,20,0,11,,,,,,,,7,,,,48,64
59540,note_off,80,0,12,,,,,,,,8,,,,36,64
59540,note_off,80,0,11,,,,,,,,7,,,,48,64
59540,note_off,80,0,7,,,,,,,,3,,,,48,64
59540,note_off,80,0,8,,,,,,,,4,,,,36,64
59640,note_on,580,0,10,,,,,,,,6,,,,60,68
59640,note_on,580,0,6,,,,,,,,2,,,,60,68
59680,note_off,40,0,10,,,,,,,,6,,,,60,64
59680,note_off,40,0,6,,,,,,,,2,,,,60,64
59700,note_on,20,0,10,,,,,,,,6,,,,60,68
59700,note_on,20,0,6,,,,,,,,2,,,,60,68
59880,note_on,580,0,9,,,,,,,,5,,,,60,71
59880,note_on,580,0,5,,,,,,,,1,,,,60,71
59920,note_off,40,0,9,,,,,,,,5,,,,60,64
59920,note_off,40,0,5,,,,,,,,1,,,,60,64
59940,note_on,20,0,9,,,,,,,,5,,,,60,72
59940,note_on,20,0,5,,,,,,,,1,,,,60,72
60020,note_off,80,0,5,,,,,,,,1,,,,60,64
60020,note_off,80,0,9,,,,,,,,5,,,,60,64
60055,note_off,355,0,10,,,,,,,,6,,,,60,64
60055,note_off,355,0,6,,,,,,,,2,,,,60,64
60120,note_on,580,0,11,,,,,,,,7,,,,48,75
60120,note_on,65,0,6,,,,,,,,2,,,,55,75
60120,note_on,100,0,5,,,,,,,,1,,,,60,75
60120,note_on,100,0,9,,,,,,,,5,,,,60,75
60120,note_on,580,0,12,,,,,,,,8,,,,36,75
60120,note_on,580,0,8,,,,,,,,4,,,,36,75
60120,note_on,65,0,10,,,,,,,,6,,,,55,75
60120,note_on,580,0,7,,,,,,,,3,,,,48,75
60160,note_off,40,0,9,,,,,,,,5,,,,60,64
60160,note_off,40,0,8,,,,,,,,4,,,,36,64
60160,note_off,40,0,7,,,,,,,,3,,,,48,64
60160,note_off,40,0,12,,,,,,,,8,,,,36,64
60160,note_off,40,0,11,,,,,,,,7,,,,48,64
60160,note_off,40,0,6,,,,,,,,2,,,,55,64
60160,note_off,40,0,5,,,,,,,,1,,,,60,64
60160,note_off,40,0,10,,,,,,,,6,,,,55,64
60180,note_on,20,0,8,,,,,,,,4,,,,36,75
60180,note_on,0,0,9,,,,,,,,5,,,,64,75
60180,note_on,20,0,6,,,,,,,,2,,,,55,75
60180,note_on,20,0,7,,,,,,,,3,,,,48,75
60180,note_on,20,0,9,,,,,,,,5,,,,60,75
60180,note_on,20,0,10,,,,,,,,6,,,,55,75
60180,note_on,20,0,12,,,,,,,,8,,,,36,75
60180,note_on,20,0,5,,,,,,,,1,,,,60,75
60180,note_on,0,0,5,,,,,,,,1,,,,64,75
60180,note_on,20,0,11,,,,,,,,7,,,,48,75
60220,note_off,40,0,9,,,,,,,,5,,,,64,64
60220,note_off,0,0,9,,,,,,,,5,,,,60,64
60220,note_off,40,0,7,,,,,,,,3,,,,48,64
60220,note_off,40,0,12,,,,,,,,8,,,,36,64
60220,note_off,40,0,11,,,,,,,,7,,,,48,64
60220,note_off,40,0,8,,,,,,,,4,,,,36,64
60220,note_off,40,0,10,,,,,,,,6,,,,55,64
60220,note_off,40,0,6,,,,,,,,2,,,,55,64
60220,note_off,0,0,5,,,,,,,,1,,,,60,64
60220,note_off,40,0,5,,,,,,,,1,,,,64,64
60240,note_on,20,0,11,,,,,,,,7,,,,43,75
60240,note_on,20,0,10,,,,,,,,6,,,,59,75
60240,note_on,20,0,8,,,,,,,,4,,,,31,75
60240,note_on,0,0,5,,,,,,,,1,,,,67,75
60240,note_on,20,0,5,,,,,,,,1,,,,62,75
60240,note_on,20,0,12,,,,,,,,8,,,,31,75
60240,note_on,20,0,6,,,,,,,,2,,,,59,75
60240,note_on,20,0,7,,,,,,,,3,,,,43,75
60240,note_on,0,0,9,,,,,,,,5,,,,67,75
60240,note_on,20,0,9,,,,,,,,5,,,,62,75
60280,note_off,40,0,6,,,,,,,,2,,,,59,64
60280,note_off,40,0,7,,,,,,,,3,,,,43,64
60280,note_off,40,0,12,,,,,,,,8,,,,31,64
60280,note_off,40,0,5,,,,,,,,1,,,,67,64
60280,note_off,0,0,5,,,,,,,,1,,,,62,64
60280,note_off,40,0,10,,,,,,,,6,,,,59,64
60280,note_off,40,0,9,,,,,,,,5,,,,67,64
60280,note_off,40,0,11,,,,,,,,7,,,,43,64
60280,note_off,40,0,8,,,,,,,,4,,,,31,64
60280,note_off,0,0,9,,,,,,,,5,,,,62,64
60300,note_on,20,0,7,,,,,,,,3,,,,48,75
60300,note_on,20,0,5,,,,,,,,1,,,,60,75
60300,note_on,20,0,12,,,,,,,,8,,,,36,75
60300,note_on,20,0,10,,,,,,,,6,,,,55,75
60300,note_on,0,0,9,,,,,,,,5,,,,64,75
60300,note_on,20,0,8,,,,,,,,4,,,,36,75
60300,note_on,20,0,11,,,,,,,,7,,,,48,75
60300,note_on,20,0,6,,,,,,,,2,,,,55,75
60300,note_on,0,0,5,,,,,,,,1,,,,64,75
60300,note_on,20,0,9,,,,,,,,5,,,,60,75
60340,note_off,40,0,8,,,,,,,,4,,,,36,64
60340,note_off,0,0,5,,,,,,,,1,,,,60,64
60340,note_off,0,0,9,,,,,,,,5,,,,60,64
60340,note_off,40,0,12,,,,,,,,8,,,,36,64
60340,note_off,40,0,5,,,,,,,,1,,,,64,64
60340,note_off,40,0,10,,,,,,,,6,,,,55,64
60340,note_off,40,0,7,,,,,,,,3,,,,48,64
60340,note_off,40,0,11,,,,,,,,7,,,,48,64
60340,note_off,40,0,6,,,,,,,,2,,,,55,64
60340,note_off,40,0,9,,,,,,,,5,,,,64,64
60360,note_on,20,0,10,,,,,,,,6,,,,59,75
60360,note_on,20,0,7,,,,,,,,3,,,,43,75
60360,note_on,20,0,11,,,,,,,,7,,,,43,75
60360,note_on,20,0,8,,,,,,,,4,,,,31,75
60360,note_on,20,0,9,,,,,,,,5,,,,62,75
60360,note_on,20,0,6,,,,,,,,2,,,,59,75
60360,note_on,20,0,5,,,,,,,,1,,,,62,75
60360,note_on,0,0,5,,,,,,,,1,,,,67,75
60360,note_on,0,0,9,,,,,,,,5,,,,67,75
60360,note_on,20,0,12,,,,,,,,8,,,,31,75
60400,note_off,0,0,9,,,,,,,,5,,,,62,64
60400,note_off,40,0,9,,,,,,,,5,,,,67,64
60400,note_off,40,0,8,,,,,,,,4,,,,31,64
60400,note_off,40,0,12,,,,,,,,8,,,,31,64
60400,note_off,40,0,6,,,,,,,,2,,,,59,64
60400,note_off,40,0,5,,,,,,,,1,,,,67,64
60400,note_off,0,0,5,,,,,,,,1,,,,62,64
60400,note_off,40,0,10,,,,,,,,6,,,,59,64
60400,note_off,40,0,7,,,,,,,,3,,,,43,64
60400,note_off,40,0,11,,,,,,,,7,,,,43,64
60420,note_on,20,0,8,,,,,,,,4,,,,36,75
60420,note_on,20,0,10,,,,,,,,6,,,,55,75
60420,note_on,20,0,12,,,,,,,,8,,,,36,75
60420,note_on,20,0,7,,,,,,,,3,,,,48,75
60420,note_on,20,0,11,,,,,,,,7,,,,48,75
60420,note_on,0,0,9,,,,,,,,5,,,,64,75
60420,note_on,20,0,6,,,,,,,,2,,,,55,75
60420,note_on,20,0,9,,,,,,,,5,,,,60,75
60420,note_on,20,0,5,,,,,,,,1,,,,60,75
60420,note_on,0,0,5,,,,,,,,1,,,,64,75
60460,note_off,40,0,11,,,,,,,,7,,,,48,64
60460,note_off,40,0,9,,,,,,,,5,,,,64,64
60460,note_off,0,0,9,,,,,,,,5,,,,60,64
60460,note_off,40,0,8,,,,,,,,4,,,,36,64
60460,note_off,40,0,10,,,,,,,,6,,,,55,64
60460,note_off,40,0,6,,,,,,,,2,,,,55,64
60460,note_off,40,0,12,,,,,,,,8,,,,36,64
60460,note_off,0,0,5,,,,,,,,1,,,,60,64
60460,note_off,40,0,5,,,,,,,,1,,,,64,64
60460,note_off,40,0,7,,,,,,,,3,,,,48,64
60480,note_on,20,0,12,,,,,,,,8,,,,31,75
60480,note_on,20,0,5,,,,,,,,1,,,,62,75
60480,note_on,0,0,5,,,,,,,,1,,,,67,75
60480,note_on,20,0,6,,,,,,,,2,,,,59,75
60480,note_on,20,0,8,,,,,,,,4,,,,31,75
60480,note_on,20,0,7,,,,,,,,3,,,,43,75
60480,note_on,20,0,11,,,,,,,,7,,,,43,75
60480,note_on,20,0,10,,,,,,,,6,,,,59,75
60480,note_on,20,0,9,,,,,,,,5,,,,62,75
60480,note_on,0,0,9,,,,,,,,5,,,,67,75
60520,note_off,40,0,6,,,,,,,,2,,,,59,64
60520,note_off,40,0,5,,,,,,,,1,,,,67,64
60520,note_off,0,0,5,,,,,,,,1,,,,62,64
60520,note_off,40,0,8,,,,,,,,4,,,,31,64
60520,note_off,40,0,10,,,,,,,,6,,,,59,64
60520,note_off,40,0,7,,,,,,,,3,,,,43,64
60520,note_off,40,0,12,,,,,,,,8,,,,31,64
60520,note_off,40,0,11,,,,,,,,7,,,,43,64
60520,note_off,0,0,9,,,,,,,,5,,,,62,64
60520,note_off,40,0,9,,,,,,,,5,,,,67,64
60540,note_on,20,0,11,,,,,,,,7,,,,48,75
60540,note_on,0,0,5,,,,,,,,1,,,,64,75
60540,note_on,20,0,5,,,,,,,,1,,,,60,75
60540,note_on,20,0,9,,,,,,,,5,,,,60,75
60540,note_on,20,0,10,,,,,,,,6,,,,55,75
60540,note_on,20,0,8,,,,,,,,4,,,,36,75
60540,note_on,20,0,6,,,,,,,,2,,,,55,75
60540,note_on,20,0,7,,,,,,,,3,,,,48,75
60540,note_on,20,0,12,,,,,,,,8,,,,36,75
60540,note_on,0,0,9,,,,,,,,5,,,,64,75
60580,note_off,0,0,9,,,,,,,,5,,,,60,64
60580,note_off,40,0,9,,,,,,,,5,,,,64,64
60580,note_off,40,0,11,,,,,,,,7,,,,48,64
60580,note_off,40,0,8,,,,,,,,4,,,,36,64
60580,note_off,40,0,7,,,,,,,,3,,,,48,64
60580,note_off,40,0,10,,,,,,,,6,,,,55,64
60580,note_off,0,0,5,,,,,,,,1,,,,60,64
60580,note_off,40,0,12,,,,,,,,8,,,,36,64
60580,note_off,40,0,5,,,,,,,,1,,,,64,64
60580,note_off,40,0,6,,,,,,,,2,,,,55,64
60600,note_on,0,0,5,,,,,,,,1,,,,67,75
60600,note_on,20,0,12,,,,,,,,8,,,,31,75
60600,note_on,20,0,5,,,,,,,,1,,,,62,75
60600,note_on,20,0,10,,,,,,,,6,,,,59,75
60600,note_on,20,0,8,,,,,,,,4,,,,31,75
60600,note_on,20,0,11,,,,,,,,7,,,,43,75
60600,note_on,20,0,9,,,,,,,,5,,,,62,75
60600,note_on,0,0,9,,,,,,,,5,,,,67,75
60600,note_on,20,0,6,,,,,,,,2,,,,59,75
60600,note_on,20,0,7,,,,,,,,3,,,,43,75
60640,note_off,40,0,10,,,,,,,,6,,,,59,64
60640,note_off,0,0,5,,,,,,,,1,,,,62,64
60640,note_off,40,0,5,,,,,,,,1,,,,67,64
60640,note_off,40,0,6,,,,,,,,2,,,,59,64
60640,note_off,40,0,7,,,,,,,,3,,,,43,64
60640,note_off,40,0,11,,,,,,,,7,,,,43,64
60640,note_off,0,0,9,,,,,,,,5,,,,62,64
60640,note_off,40,0,9,,,,,,,,5,,,,67,64
60640,note_off,40,0,12,,,,,,,,8,,,,31,64
60640,note_off,40,0,8,,,,,,,,4,,,,31,64
60660,note_on,0,0,9,,,,,,,,5,,,,64,75
60660,note_on,20,0,9,,,,,,,,5,,,,60,75
60660,note_on,20,0,5,,,,,,,,1,,,,60,75
60660,note_on,0,0,5,,,,,,,,1,,,,64,75
60660,note_on,20,0,10,,,,,,,,6,,,,55,75
60660,note_on,20,0,11,,,,,,,,7,,,,48,75
60660,note_on,20,0,7,,,,,,,,3,,,,48,75
60660,note_on,20,0,8,,,,,,,,4,,,,36,75
60660,note_on,20,0,6,,,,,,,,2,,,,55,75
60660,note_on,20,0,12,,,,,,,,8,,,,36,75
60700,note_off,40,0,12,,,,,,,,8,,,,36,64
60700,note_off,40,0,6,,,,,,,,2,,,,55,64
60700,note_off,40,0,10,,,,,,,,6,,,,55,64
60700,note_off,40,0,8,,,,,,,,4,,,,36,64
60700,note_off,0,0,5,,,,,,,,1,,,,60,64
60700,note_off,40,0,7,,,,,,,,3,,,,48,64
60700,note_off,40,0,5,,,,,,,,1,,,,64,64
60700,note_off,0,0,9,,,,,,,,5,,,,60,64
60700,note_off,40,0,11,,,,,,,,7,,,,48,64
60700,note_off,40,0,9,,,,,,,,5,,,,64,64
60720,note_on,20,0,7,,,,,,,,3,,,,43,75
60720,note_on,20,0,5,,,,,,,,1,,,,62,75
60720,note_on,20,0,12,,,,,,,,8,,,,31,75
60720,note_on,0,0,5,,,,,,,,1,,,,67,75
60720,note_on,20,0,6,,,,,,,,2,,,,59,75
60720,note_on,0,0,9,,,,,,,,5,,,,67,75
60720,note_on,20,0,9,,,,,,,,5,,,,62,75
60720,note_on,20,0,10,,,,,,,,6,,,,59,75
60720,note_on,20,0,11,,,,,,,,7,,,,43,75
60720,note_on,20,0,8,,,,,,,,4,,,,31,75
60760,note_off,40,0,9,,,,,,,,5,,,,67,64
60760,note_off,0,0,9,,,,,,,,5,,,,62,64
60760,note_off,40,0,7,,,,,,,,3,,,,43,64
60760,note_off,0,0,5,,,,,,,,1,,,,62,64
60760,note_off,40,0,12,,,,,,,,8,,,,31,64
60760,note_off,40,0,11,,,,,,,,7,,,,43,64
60760,note_off,40,0,6,,,,,,,,2,,,,59,64
60760,note_off,40,0,5,,,,,,,,1,,,,67,64
60760,note_off,40,0,10,,,,,,,,6,,,,59,64
60760,note_off,40,0,8,,,,,,,,4,,,,31,64
60780,note_on,20,0,12,,,,,,,,8,,,,36,75
60780,note_on,20,0,11,,,,,,,,7,,,,48,75
60780,note_on,20,0,7,,,,,,,,3,,,,48,75
60780,note_on,20,0,9,,,,,,,,5,,,,60,75
60780,note_on,0,0,9,,,,,,,,5,,,,64,75
60780,note_on,20,0,8,,,,,,,,4,,,,36,75
60780,note_on,20,0,10,,,,,,,,6,,,,55,75
60780,note_on,0,0,5,,,,,,,,1,,,,64,75
60780,note_on,20,0,5,,,,,,,,1,,,,60,75
60780,note_on,20,0,6,,,,,,,,2,,,,55,75
60820,note_off,0,0,9,,,,,,,,5,,,,60,64
60820,note_off,40,0,8,,,,,,,,4,,,,36,64
60820,note_off,40,0,9,,,,,,,,5,,,,64,64
60820,note_off,40,0,6,,,,,,,,2,,,,55,64
60820,note_off,40,0,10,,,,,,,,6,,,,55,64
60820,note_off,40,0,7,,,,,,,,3,,,,48,64
60820,note_off,40,0,12,,,,,,,,8,,,,36,64
60820,note_off,0,0,5,,,,,,,,1,,,,60,64
60820,note_off,40,0,5,,,,,,,,1,,,,64,64
60820,note_off,40,0,11,,,,,,,,7,,,,48,64
60840,note_on,20,0,8,,,,,,,,4,,,,31,75
60840,note_on,20,0,10,,,,,,,,6,,,,59,75
60840,note_on,20,0,9,,,,,,,,5,,,,62,75
60840,note_on,20,0,5,,,,,,,,1,,,,62,75
60840,note_on,0,0,5,,,,,,,,1,,,,67,75
60840,note_on,20,0,11,,,,,,,,7,,,,43,75
60840,note_on,0,0,9,,,,,,,,5,,,,67,75
60840,note_on,20,0,7,,,,,,,,3,,,,43,75
60840,note_on,20,0,6,,,,,,,,2,,,,59,75
60840,note_on,20,0,12,,,,,,,,8,,,,31,75
60880,note_off,0,0,5,,,,,,,,1,,,,62,64
60880,note_off,40,0,11,,,,,,,,7,,,,43,64
60880,note_off,40,0,10,,,,,,,,6,,,,59,64
60880,note_off,40,0,6,,,,,,,,2,,,,59,64
60880,note_off,0,0,9,,,,,,,,5,,,,62,64
60880,note_off,40,0,9,,,,,,,,5,,,,67,64
60880,note_off,40,0,7,,,,,,,,3,,,,43,64
60880,note_off,40,0,12,,,,,,,,8,,,,31,64
60880,note_off,40,0,8,,,,,,,,4,,,,31,64
60880,note_off,40,0,5,,,,,,,,1,,,,67,64
60900,note_on,20,0,9,,,,,,,,5,,,,60,75
60900,note_on,20,0,5,,,,,,,,1,,,,60,75
60900,note_on,20,0,11,,,,,,,,7,,,,48,75
60900,note_on,20,0,7,,,,,,,,3,,,,48,75
60900,note_on,20,0,10,,,,,,,,6,,,,55,75
60900,note_on,0,0,5,,,,,,,,1,,,,64,75
60900,note_on,0,0,9,,,,,,,,5,,,,64,75
60900,note_on,20,0,12,,,,,,,,8,,,,36,75
60900,note_on,20,0,8,,,,,,,,4,,,,36,75
60900,note_on,20,0,6,,,,,,,,2,,,,55,75
60940,note_off,40,0,6,,,,,,,,2,,,,55,64
60940,note_off,40,0,7,,,,,,,,3,,,,48,64
60940,note_off,40,0,8,,,,,,,,4,,,,36,64
60940,note_off,40,0,11,,,,,,,,7,,,,48,64
60940,note_off,40,0,12,,,,,,,,8,,,,36,64
60940,note_off,40,0,5,,,,,,,,1,,,,64,64
60940,note_off,40,0,9,,,,,,,,5,,,,64,64
60940,note_off,40,0,10,,,,,,,,6,,,,55,64
60940,note_off,0,0,5,,,,,,,,1,,,,60,64
60940,note_off,0,0,9,,,,,,,,5,,,,60,64
60960,note_on,20,0,6,,,,,,,,2,,,,59,75
60960,note_on,20,0,5,,,,,,,,1,,,,62,75
60960,note_on,20,0,10,,,,,,,,6,,,,59,75
60960,note_on,0,0,9,,,,,,,,5,,,,67,75
60960,note_on,0,0,5,,,,,,,,1,,,,67,75
60960,note_on,20,0,9,,,,,,,,5,,,,62,75
60960,note_on,20,0,8,,,,,,,,4,,,,31,75
60960,note_on,20,0,7,,,,,,,,3,,,,43,75
60960,note_on,20,0,12,,,,,,,,8,,,,31,75
60960,note_on,20,0,11,,,,,,,,7,,,,43,75
61000,note_off,0,0,9,,,,,,,,5,,,,62,64
61000,note_off,40,0,11,,,,,,,,7,,,,43,64
61000,note_off,40,0,6,,,,,,,,2,,,,59,64
61000,note_off,40,0,10,,,,,,,,6,,,,59,64
61000,note_off,40,0,12,,,,,,,,8,,,,31,64
61000,note_off,0,0,5,,,,,,,,1,,,,62,64
61000,note_off,40,0,7,,,,,,,,3,,,,43,64
61000,note_off,40,0,5,,,,,,,,1,,,,67,64
61000,note_off,40,0,9,,,,,,,,5,,,,67,64
61000,note_off,40,0,8,,,,,,,,4,,,,31,64
61020,note_on,20,0,10,,,,,,,,6,,,,55,75
61020,note_on,20,0,8,,,,,,,,4,,,,36,75
61020,note_on,20,0,7,,,,,,,,3,,,,48,75
61020,note_on,20,0,9,,,,,,,,5,,,,60,75
61020,note_on,20,0,5,,,,,,,,1,,,,60,75
61020,note_on,20,0,6,,,,,,,,2,,,,55,75
61020,note_on,0,0,9,,,,,,,,5,,,,64,75
61020,note_on,20,0,12,,,,,,,,8,,,,36,75
61020,note_on,0,0,5,,,,,,,,1,,,,64,75
61020,note_on,20,0,11,,,,,,,,7,,,,48,75
61060,note_off,40,0,9,,,,,,,,5,,,,64,64
61060,note_off,40,0,11,,,,,,,,7,,,,48,64
61060,note_off,0,0,9,,,,,,,,5,,,,60,64
61060,note_off,0,0,5,,,,,,,,1,,,,60,64
61060,note_off,40,0,10,,,,,,,,6,,,,55,64
61060,note_off,40,0,6,,,,,,,,2,,,,55,64
61060,note_off,40,0,5,,,,,,,,1,,,,64,64
61060,note_off,40,0,7,,,,,,,,3,,,,48,64
61060,note_off,40,0,8,,,,,,,,4,,,,36,64
61060,note_off,40,0,12,,,,,,,,8,,,,36,64
61080,note_on,20,0,9,,,,,,,,5,,,,62,75
61080,note_on,20,0,5,,,,,,,,1,,,,62,75
61080,note_on,0,0,5,,,,,,,,1,,,,67,75
61080,note_on,20,0,8,,,,,,,,4,,,,31,75
61080,note_on,20,0,12,,,,,,,,8,,,,31,75
61080,note_on,20,0,7,,,,,,,,3,,,,43,75
61080,note_on,0,0,9,,,,,,,,5,,,,67,75
61080,note_on,20,0,11,,,,,,,,7,,,,43,75
61080,note_on,20,0,6,,,,,,,,2,,,,59,75
61080,note_on,20,0,10,,,,,,,,6,,,,59,75
61120,note_off,40,0,8,,,,,,,,4,,,,31,64
61120,note_off,40,0,9,,,,,,,,5,,,,67,64
61120,note_off,40,0,6,,,,,,,,2,,,,59,64
61120,note_off,40,0,5,,,,,,,,1,,,,67,64
61120,note_off,0,0,5,,,,,,,,1,,,,62,64
61120,note_off,40,0,11,,,,,,,,7,,,,43,64
61120,note_off,40,0,12,,,,,,,,8,,,,31,64
61120,note_off,40,0,7,,,,,,,,3,,,,43,64
61120,note_off,40,0,10,,,,,,,,6,,,,59,64
61120,note_off,0,0,9,,,,,,,,5,,,,62,64
61140,note_on,20,0,9,,,,,,,,5,,,,60,75
61140,note_on,20,0,8,,,,,,,,4,,,,36,75
61140,note_on,20,0,5,,,,,,,,1,,,,60,75
61140,note_on,0,0,5,,,,,,,,1,,,,64,75
61140,note_on,20,0,7,,,,,,,,3,,,,48,75
61140,note_on,20,0,12,,,,,,,,8,,,,36,75
61140,note_on,20,0,6,,,,,,,,2,,,,55,75
61140,note_on,20,0,10,,,,,,,,6,,,,55,75
61140,note_on,20,0,11,,,,,,,,7,,,,48,75
61140,note_on,0,0,9,,,,,,,,5,,,,64,75
61180,note_off,40,0,7,,,,,,,,3,,,,48,64
61180,note_off,40,0,10,,,,,,,,6,,,,55,64
61180,note_off,40,0,6,,,,,,,,2,,,,55,64
61180,note_off,0,0,5,,,,,,,,1,,,,60,64
61180,note_off,40,0,5,,,,,,,,1,,,,64,64
61180,note_off,40,0,11,,,,,,,,7,,,,48,64
61180,note_off,0,0,9,,,,,,,,5,,,,60,64
61180,note_off,40,0,9,,,,,,,,5,,,,64,64
61180,note_off,40,0,12,,,,,,,,8,,,,36,64
61180,note_off,40,0,8,,,,,,,,4,,,,36,64
61200,note_on,20,0,7,,,,,,,,3,,,,43,75
61200,note_on,20,0,9,,,,,,,,5,,,,62,75
61200,note_on,20,0,6,,,,,,,,2,,,,59,75
61200,note_on,0,0,5,,,,,,,,1,,,,67,75
61200,note_on,20,0,5,,,,,,,,1,,,,62,75
61200,note_on,20,0,10,,,,,,,,6,,,,59,75
61200,note_on,20,0,11,,,,,,,,7,,,,43,75
61200,note_on,20,0,8,,,,,,,,4,,,,31,75
61200,note_on,20,0,12,,,,,,,,8,,,,31,75
61200,note_on,0,0,9,,,,,,,,5,,,,67,75
61240,note_off,0,0,5,,,,,,,,1,,,,62,64
61240,note_off,40,0,7,,,,,,,,3,,,,43,64
61240,note_off,0,0,9,,,,,,,,5,,,,62,64
61240,note_off,40,0,12,,,,,,,,8,,,,31,64
61240,note_off,40,0,10,,,,,,,,6,,,,59,64
61240,note_off,40,0,9,,,,,,,,5,,,,67,64
61240,note_off,40,0,6,,,,,,,,2,,,,59,64
61240,note_off,40,0,11,,,,,,,,7,,,,43,64
61240,note_off,40,0,5,,,,,,,,1,,,,67,64
61240,note_off,40,0,8,,,,,,,,4,,,,31,64
61260,note_on,20,0,6,,,,,,,,2,,,,55,75
61260,note_on,20,0,7,,,,,,,,3,,,,48,75
61260,note_on,0,0,5,,,,,,,,1,,,,64,75
61260,note_on,0,0,9,,,,,,,,5,,,,64,75
61260,note_on,20,0,9,,,,,,,,5,,,,60,75
61260,note_on,20,0,5,,,,,,,,1,,,,60,75
61260,note_on,20,0,10,,,,,,,,6,,,,55,75
61260,note_on,20,0,8,,,,,,,,4,,,,36,75
61260,note_on,20,0,11,,,,,,,,7,,,,48,75
61260,note_on,20,0,12,,,,,,,,8,,,,36,75
61300,note_off,0,0,9,,,,,,,,5,,,,60,64
61300,note_off,0,0,5,,,,,,,,1,,,,60,64
61300,note_off,40,0,10,,,,,,,,6,,,,55,64
61300,note_off,40,0,5,,,,,,,,1,,,,64,64
61300,note_off,40,0,11,,,,,,,,7,,,,48,64
61300,note_off,40,0,12,,,,,,,,8,,,,36,64
61300,note_off,40,0,6,,,,,,,,2,,,,55,64
61300,note_off,40,0,7,,,,,,,,3,,,,48,64
61300,note_off,40,0,9,,,,,,,,5,,,,64,64
61300,note_off,40,0,8,,,,,,,,4,,,,36,64
61320,note_on,20,0,12,,,,,,,,8,,,,31,75
61320,note_on,20,0,8,,,,,,,,4,,,,31,75
61320,note_on,20,0,6,,,,,,,,2,,,,59,75
61320,note_on,20,0,9,,,,,,,,5,,,,62,75
61320,note_on,20,0,5,,,,,,,,1,,,,62,75
61320,note_on,20,0,11,,,,,,,,7,,,,43,75
61320,note_on,20,0,7,,,,,,,,3,,,,43,75
61320,note_on,20,0,10,,,,,,,,6,,,,59,75
61320,note_on,0,0,9,,,,,,,,5,,,,67,75
61320,note_on,0,0,5,,,,,,,,1,,,,67,75
61360,note_off,40,0,9,,,,,,,,5,,,,67,64
61360,note_off,0,0,9,,,,,,,,5,,,,62,64
61360,note_off,0,0,5,,,,,,,,1,,,,62,64
61360,note_off,40,0,5,,,,,,,,1,,,,67,64
61360,note_off,40,0,10,,,,,,,,6,,,,59,64
61360,note_off,40,0,6,,,,,,,,2,,,,59,64
61360,note_off,40,0,11,,,,,,,,7,,,,43,64
61360,note_off,40,0,8,,,,,,,,4,,,,31,64
61360,note_off,40,0,7,,,,,,,,3,,,,43,64
61360,note_off,40,0,12,,,,,,,,8,,,,31,64
61380,note_on,20,0,10,,,,,,,,6,,,,55,75
61380,note_on,20,0,12,,,,,,,,8,,,,36,75
61380,note_on,20,0,9,,,,,,,,5,,,,60,75
61380,note_on,0,0,9,,,,,,,,5,,,,64,75
61380,note_on,20,0,11,,,,,,,,7,,,,48,75
61380,note_on,20,0,6,,,,,,,,2,,,,55,75
61380,note_on,20,0,7,,,,,,,,3,,,,48,75
61380,note_on,0,0,5,,,,,,,,1,,,,64,75
61380,note_on,20,0,5,,,,,,,,1,,,,60,75
61380,note_on,20,0,8,,,,,,,,4,,,,36,75
61420,note_off,40,0,10,,,,,,,,6,,,,55,64
61420,note_off,40,0,12,,,,,,,,8,,,,36,64
61420,note_off,40,0,6,,,,,,,,2,,,,55,64
61420,note_off,0,0,9,,,,,,,,5,,,,60,64
61420,note_off,40,0,8,,,,,,,,4,,,,36,64
61420,note_off,40,0,5,,,,,,,,1,,,,64,64
61420,note_off,0,0,5,,,,,,,,1,,,,60,64
61420,note_off,40,0,9,,,,,,,,5,,,,64,64
61420,note_off,40,0,7,,,,,,,,3,,,,48,64
61420,note_off,40,0,11,,,,,,,,7,,,,48,64
61440,note_on,20,0,6,,,,,,,,2,,,,59,75
61440,note_on,20,0,11,,,,,,,,7,,,,43,75
61440,note_on,20,0,10,,,,,,,,6,,,,59,75
61440,note_on,0,0,5,,,,,,,,1,,,,67,75
61440,note_on,20,0,5,,,,,,,,1,,,,62,75
61440,note_on,20,0,12,,,,,,,,8,,,,31,75
61440,note_on,20,0,7,,,,,,,,3,,,,43,75
61440,note_on,20,0,8,,,,,,,,4,,,,31,75
61440,note_on,20,0,9,,,,,,,,5,,,,62,75
61440,note_on,0,0,9,,,,,,,,5,,,,67,75
61480,note_off,40,0,8,,,,,,,,4,,,,31,64
61480,note_off,40,0,12,,,,,,,,8,,,,31,64
61480,note_off,40,0,9,,,,,,,,5,,,,67,64
61480,note_off,0,0,9,,,,,,,,5,,,,62,64
61480,note_off,40,0,10,,,,,,,,6,,,,59,64
61480,note_off,40,0,7,,,,,,,,3,,,,43,64
61480,note_off,40,0,6,,,,,,,,2,,,,59,64
61480,note_off,40,0,5,,,,,,,,1,,,,67,64
61480,note_off,0,0,5,,,,,,,,1,,,,62,64
61480,note_off,40,0,11,,,,,,,,7,,,,43,64
61500,note_on,20,0,6,,,,,,,,2,,,,55,75
61500,note_on,20,0,12,,,,,,,,8,,,,36,75
61500,note_on,0,0,5,,,,,,,,1,,,,64,75
61500,note_on,20,0,8,,,,,,,,4,,,,36,75
61500,note_on,0,0,9,,,,,,,,5,,,,64,75
61500,note_on,20,0,9,,,,,,,,5,,,,60,75
61500,note_on,20,0,7,,,,,,,,3,,,,48,75
61500,note_on,20,0,5,,,,,,,,1,,,,60,75
61500,note_on,20,0,10,,,,,,,,6,,,,55,75
61500,note_on,20,0,11,,,,,,,,7,,,,48,75
61540,note_off,40,0,6,,,,,,,,2,,,,55,64
61540,note_off,40,0,10,,,,,,,,6,,,,55,64
61540,note_off,40,0,9,,,,,,,,5,,,,64,64
61540,note_off,40,0,12,,,,,,,,8,,,,36,64
61540,note_off,40,0,8,,,,,,,,4,,,,36,64
61540,note_off,0,0,9,,,,,,,,5,,,,60,64
61540,note_off,40,0,5,,,,,,,,1,,,,64,64
61540,note_off,0,0,5,,,,,,,,1,,,,60,64
61540,note_off,40,0,7,,,,,,,,3,,,,48,64
61540,note_off,40,0,11,,,,,,,,7,,,,48,64
61560,note_on,20,0,11,,,,,,,,7,,,,43,75
61560,note_on,20,0,12,,,,,,,,8,,,,31,75
61560,note_on,20,0,8,,,,,,,,4,,,,31,75
61560,note_on,20,0,5,,,,,,,,1,,,,62,75
61560,note_on,20,0,10,,,,,,,,6,,,,59,75
61560,note_on,20,0,7,,,,,,,,3,,,,43,75
61560,note_on,0,0,5,,,,,,,,1,,,,67,75
61560,note_on,20,0,6,,,,,,,,2,,,,59,75
61560,note_on,20,0,9,,,,,,,,5,,,,62,75
61560,note_on,0,0,9,,,,,,,,5,,,,67,75
61600,note_off,0,0,9,,,,,,,,5,,,,62,64
61600,note_off,40,0,7,,,,,,,,3,,,,43,64
61600,note_off,40,0,5,,,,,,,,1,,,,67,64
61600,note_off,0,0,5,,,,,,,,1,,,,62,64
61600,note_off,40,0,11,,,,,,,,7,,,,43,64
61600,note_off,40,0,9,,,,,,,,5,,,,67,64
61600,note_off,40,0,6,,,,,,,,2,,,,59,64
61600,note_off,40,0,8,,,,,,,,4,,,,31,64
61600,note_off,40,0,12,,,,,,,,8,,,,31,64
61600,note_off,40,0,10,,,,,,,,6,,,,59,64
61620,note_on,20,0,6,,,,,,,,2,,,,55,75
61620,note_on,20,0,11,,,,,,,,7,,,,48,75
61620,note_on,20,0,12,,,,,,,,8,,,,36,75
61620,note_on,20,0,9,,,,,,,,5,,,,60,75
61620,note_on,20,0,8,,,,,,,,4,,,,36,75
61620,note_on,2645,0,3,,,,,,,,0,,,,84,75
61620,note_on,0,0,5,,,,,,,,1,,,,64,75
61620,note_on,20,0,5,,,,,,,,1,,,,60,75
61620,note_on,20,0,7,,,,,,,,3,,,,48,75
61620,note_on,0,0,9,,,,,,,,5,,,,64,75
61620,note_on,3920,0,13,,,,,,,,11,,,,36,45
61620,note_on,20,0,10,,,,,,,,6,,,,55,75
61620,note_on,2800,0,4,,,,,,,,12,,,,84,60
61695,note_off,75,0,4,,,,,,,,12,,,,84,64
61695,note_off,75,0,3,,,,,,,,0,,,,84,64
61700,note_on,5,0,4,,,,,,,,12,,,,83,60
61700,note_on,5,0,3,,,,,,,,0,,,,83,75
61740,note_off,40,0,4,,,,,,,,12,,,,83,64
61740,note_on,0,0,3,,,,,,,,0,,,,81,75
61740,note_off,40,0,3,,,,,,,,0,,,,83,64
61740,note_on,0,0,4,,,,,,,,12,,,,81,60
61780,note_off,40,0,4,,,,,,,,12,,,,81,64
61780,note_on,0,0,3,,,,,,,,0,,,,79,75
61780,note_on,0,0,4,,,,,,,,12,,,,79,60
61780,note_off,40,0,3,,,,,,,,0,,,,81,64
61820,note_off,40,0,3,,,,,,,,0,,,,79,64
61820,note_on,0,0,3,,,,,,,,0,,,,77,75
61820,note_off,40,0,4,,,,,,,,12,,,,79,64
61820,note_on,0,0,4,,,,,,,,12,,,,77,60
61860,note_on,0,0,4,,,,,,,,12,,,,76,60
61860,note_off,40,0,4,,,,,,,,12,,,,77,64
61860,note_on,0,0,3,,,,,,,,0,,,,76,75
61860,note_off,40,0,3,,,,,,,,0,,,,77,64
61940,note_on,0,0,4,,,,,,,,12,,,,74,60
61940,note_off,80,0,4,,,,,,,,12,,,,76,64
61940,note_on,0,0,3,,,,,,,,0,,,,74,75
61940,note_off,80,0,3,,,,,,,,0,,,,76,64
62020,note_off,80,0,4,,,,,,,,12,,,,74,64
62020,note_off,0,0,5,,,,,,,,1,,,,60,64
62020,note_off,400,0,13,,,,,,,,11,,,,36,64
62020,note_off,400,0,7,,,,,,,,3,,,,48,64
62020,note_on,0,0,4,,,,,,,,12,,,,72,60
62020,note_off,400,0,5,,,,,,,,1,,,,64,64
62020,note_on,0,0,3,,,,,,,,0,,,,72,75
62020,note_off,400,0,8,,,,,,,,4,,,,36,64
62020,note_off,400,0,11,,,,,,,,7,,,,48,64
62020,note_off,80,0,3,,,,,,,,0,,,,74,64
62020,note_off,400,0,9,,,,,,,,5,,,,64,64
62020,note_off,0,0,9,,,,,,,,5,,,,60,64
62020,note_off,400,0,12,,,,,,,,8,,,,36,64
62020,note_off,400,0,10,,,,,,,,6,,,,55,64
62020,note_off,400,0,6,,,,,,,,2,,,,55,64
62095,note_off,75,0,3,,,,,,,,0,,,,72,64
62095,note_off,75,0,4,,,,,,,,12,,,,72,64
62100,note_on,5,0,3,,,,,,,,0,,,,76,75
62100,note_on,5,0,4,,,,,,,,12,,,,76,60
62152,note_off,52,0,3,,,,,,,,0,,,,76,64
62152,note_off,52,0,4,,,,,,,,12,,,,76,64
62180,note_on,28,0,4,,,,,,,,12,,,,79,60
62180,note_on,28,0,3,,,,,,,,0,,,,79,75
62232,note_off,52,0,4,,,,,,,,12,,,,79,64
62232,note_off,52,0,3,,,,,,,,0,,,,79,64
62260,note_on,28,0,4,,,,,,,,12,,,,82,60
62260,note_on,28,0,3,,,,,,,,0,,,,82,75
62312,note_off,52,0,3,,,,,,,,0,,,,82,64
62312,note_off,52,0,4,,,,,,,,12,,,,82,64
62340,note_on,28,0,4,,,,,,,,12,,,,81,60
62340,note_on,320,0,7,,,,,,,,3,,,,53,75
62340,note_on,28,0,3,,,,,,,,0,,,,81,75
62340,note_on,320,0,9,,,,,,,,5,,,,65,75
62340,note_on,320,0,13,,,,,,,,11,,,,41,45
62340,note_on,320,0,5,,,,,,,,1,,,,65,75
62340,note_on,320,0,11,,,,,,,,7,,,,53,75
62340,note_on,320,0,12,,,,,,,,8,,,,41,75
62340,note_on,320,0,8,,,,,,,,4,,,,41,75
62392,note_off,52,0,3,,,,,,,,0,,,,81,64
62392,note_off,52,0,4,,,,,,,,12,,,,81,64
62420,note_on,28,0,3,,,,,,,,0,,,,77,75
62420,note_on,28,0,4,,,,,,,,12,,,,77,60
62472,note_off,52,0,4,,,,,,,,12,,,,77,64
62472,note_off,52,0,3,,,,,,,,0,,,,77,64
62500,note_on,28,0,4,,,,,,,,12,,,,72,60
62500,note_on,28,0,3,,,,,,,,0,,,,72,75
62552,note_off,52,0,4,,,,,,,,12,,,,72,64
62552,note_off,52,0,3,,,,,,,,0,,,,72,64
62580,note_on,28,0,3,,,,,,,,0,,,,69,75
62580,note_on,28,0,4,,,,,,,,12,,,,69,60
62632,note_off,52,0,4,,,,,,,,12,,,,69,64
62632,note_off,52,0,3,,,,,,,,0,,,,69,64
62660,note_on,28,0,4,,,,,,,,12,,,,65,60
62660,note_on,28,0,3,,,,,,,,0,,,,65,75
62712,note_off,52,0,4,,,,,,,,12,,,,65,64
62712,note_off,52,0,3,,,,,,,,0,,,,65,64
62740,note_off,400,0,9,,,,,,,,5,,,,65,64
62740,note_off,400,0,7,,,,,,,,3,,,,53,64
62740,note_off,400,0,11,,,,,,,,7,,,,53,64
62740,note_on,28,0,3,,,,,,,,0,,,,60,75
62740,note_off,400,0,5,,,,,,,,1,,,,65,64
62740,note_on,28,0,4,,,,,,,,12,,,,60,60
62740,note_off,400,0,8,,,,,,,,4,,,,41,64
62740,note_off,400,0,13,,,,,,,,11,,,,41,64
62740,note_off,400,0,12,,,,,,,,8,,,,41,64
62792,note_off,52,0,4,,,,,,,,12,,,,60,64
62792,note_off,52,0,3,,,,,,,,0,,,,60,64
62820,note_on,28,0,3,,,,,,,,0,,,,65,75
62820,note_on,28,0,4,,,,,,,,12,,,,65,60
62900,note_off,80,0,4,,,,,,,,12,,,,65,64
62900,note_off,80,0,3,,,,,,,,0,,,,65,64
63060,note_on,160,0,3,,,,,,,,0,,,,86,75
63060,note_on,160,0,4,,,,,,,,12,,,,86,60
63060,note_on,320,0,7,,,,,,,,3,,,,54,75
63060,note_on,320,0,8,,,,,,,,4,,,,42,75
63060,note_on,320,0,12,,,,,,,,8,,,,42,75
63060,note_on,320,0,13,,,,,,,,11,,,,42,45
63060,note_on,320,0,9,,,,,,,,5,,,,66,75
63060,note_on,320,0,5,,,,,,,,1,,,,66,75
63060,note_on,320,0,11,,,,,,,,7,,,,54,75
63135,note_off,75,0,3,,,,,,,,0,,,,86,64
63135,note_off,75,0,4,,,,,,,,12,,,,86,64
63140,note_on,5,0,4,,,,,,,,12,,,,84,60
63140,note_on,5,0,3,,,,,,,,0,,,,84,75
63180,note_on,0,0,3,,,,,,,,0,,,,82,75
63180,note_off,40,0,3,,,,,,,,0,,,,84,64
63180,note_off,40,0,4,,,,,,,,12,,,,84,64
63180,note_on,0,0,4,,,,,,,,12,,,,82,60
63220,note_off,40,0,3,,,,,,,,0,,,,82,64
63220,note_on,0,0,3,,,,,,,,0,,,,81,75
63220,note_on,0,0,4,,,,,,,,12,,,,81,60
63220,note_off,40,0,4,,,,,,,,12,,,,82,64
63260,note_off,40,0,3,,,,,,,,0,,,,81,64
63260,note_on,0,0,3,,,,,,,,0,,,,79,75
63260,note_on,0,0,4,,,,,,,,12,,,,79,60
63260,note_off,40,0,4,,,,,,,,12,,,,81,64
63300,note_on,0,0,4,,,,,,,,12,,,,78,60
63300,note_on,0,0,3,,,,,,,,0,,,,78,75
63300,note_off,40,0,3,,,,,,,,0,,,,79,64
63300,note_off,40,0,4,,,,,,,,12,,,,79,64
63380,note_on,0,0,3,,,,,,,,0,,,,76,75
63380,note_off,80,0,3,,,,,,,,0,,,,78,64
63380,note_on,0,0,4,,,,,,,,12,,,,76,60
63380,note_off,80,0,4,,,,,,,,12,,,,78,64
63460,note_on,0,0,3,,,,,,,,0,,,,74,75
63460,note_off,80,0,3,,,,,,,,0,,,,76,64
63460,note_off,400,0,8,,,,,,,,4,,,,42,64
63460,note_off,400,0,11,,,,,,,,7,,,,54,64
63460,note_off,80,0,4,,,,,,,,12,,,,76,64
63460,note_on,0,0,4,,,,,,,,12,,,,74,60
63460,note_off,400,0,7,,,,,,,,3,,,,54,64
63460,note_off,400,0,12,,,,,,,,8,,,,42,64
63460,note_off,400,0,5,,,,,,,,1,,,,66,64
63460,note_off,400,0,13,,,,,,,,11,,,,42,64
63460,note_off,400,0,9,,,,,,,,5,,,,66,64
63535,note_off,75,0,4,,,,,,,,12,,,,74,64
63535,note_off,75,0,3,,,,,,,,0,,,,74,64
63540,note_on,5,0,3,,,,,,,,0,,,,78,75
63540,note_on,5,0,4,,,,,,,,12,,,,78,60
63592,note_off,52,0,3,,,,,,,,0,,,,78,64
63592,note_off,52,0,4,,,,,,,,12,,,,78,64
63620,note_on,28,0,4,,,,,,,,12,,,,81,60
63620,note_on,28,0,3,,,,,,,,0,,,,81,75
63672,note_off,52,0,3,,,,,,,,0,,,,81,64
63672,note_off,52,0,4,,,,,,,,12,,,,81,64
63700,note_on,28,0,3,,,,,,,,0,,,,84,75
63700,note_on,28,0,4,,,,,,,,12,,,,84,60
63752,note_off,52,0,3,,,,,,,,0,,,,84,64
63752,note_off,52,0,4,,,,,,,,12,,,,84,64
63780,note_on,320,0,8,,,,,,,,4,,,,43,75
63780,note_on,320,0,5,,,,,,,,1,,,,67,75
63780,note_on,320,0,12,,,,,,,,8,,,,43,75
63780,note_on,320,0,13,,,,,,,,11,,,,43,45
63780,note_on,320,0,9,,,,,,,,5,,,,67,75
63780,note_on,320,0,11,,,,,,,,7,,,,55,75
63780,note_on,28,0,4,,,,,,,,12,,,,83,60
63780,note_on,28,0,3,,,,,,,,0,,,,83,75
63780,note_on,320,0,7,,,,,,,,3,,,,55,75
63860,note_off,80,0,4,,,,,,,,12,,,,83,64
63860,note_off,80,0,3,,,,,,,,0,,,,83,64
63900,note_on,40,0,4,,,,,,,,12,,,,79,60
63900,note_on,40,0,3,,,,,,,,0,,,,79,75
63940,note_off,40,0,3,,,,,,,,0,,,,79,64
63940,note_off,40,0,4,,,,,,,,12,,,,79,64
63960,note_on,20,0,4,,,,,,,,12,,,,74,60
63960,note_on,20,0,3,,,,,,,,0,,,,74,75
64000,note_off,40,0,4,,,,,,,,12,,,,74,64
64000,note_off,40,0,3,,,,,,,,0,,,,74,64
64020,note_on,20,0,3,,,,,,,,0,,,,71,75
64020,note_on,20,0,4,,,,,,,,12,,,,71,60
64072,note_off,52,0,3,,,,,,,,0,,,,71,64
64072,note_off,52,0,4,,,,,,,,12,,,,71,64
64100,note_on,28,0,4,,,,,,,,12,,,,67,60
64100,note_on,28,0,3,,,,,,,,0,,,,67,75
64152,note_off,52,0,3,,,,,,,,0,,,,67,64
64152,note_off,52,0,4,,,,,,,,12,,,,67,64
64180,note_on,28,0,4,,,,,,,,12,,,,62,60
64180,note_off,400,0,13,,,,,,,,11,,,,43,64
64180,note_off,400,0,8,,,,,,,,4,,,,43,64
64180,note_on,28,0,3,,,,,,,,0,,,,62,75
64180,note_off,400,0,11,,,,,,,,7,,,,55,64
64180,note_off,400,0,12,,,,,,,,8,,,,43,64
64180,note_off,400,0,5,,,,,,,,1,,,,67,64
64180,note_off,400,0,7,,,,,,,,3,,,,55,64
64180,note_off,400,0,9,,,,,,,,5,,,,67,64
64232,note_off,52,0,3,,,,,,,,0,,,,62,64
64232,note_off,52,0,4,,,,,,,,12,,,,62,64
64260,note_on,28,0,4,,,,,,,,12,,,,67,60
64260,note_on,28,0,3,,,,,,,,0,,,,67,75
64340,note_off,80,0,3,,,,,,,,0,,,,67,64
64340,note_off,80,0,4,,,,,,,,12,,,,67,64
64500,note_on,320,0,12,,,,,,,,8,,,,44,75
64500,note_on,160,0,3,,,,,,,,0,,,,88,75
64500,note_on,320,0,11,,,,,,,,7,,,,56,75
64500,note_on,320,0,7,,,,,,,,3,,,,56,75
64500,note_on,160,0,4,,,,,,,,12,,,,88,60
64500,note_on,320,0,13,,,,,,,,11,,,,44,45
64500,note_on,320,0,5,,,,,,,,1,,,,68,75
64500,note_on,320,0,9,,,,,,,,5,,,,68,75
64500,note_on,320,0,8,,,,,,,,4,,,,44,75
64575,note_off,75,0,4,,,,,,,,12,,,,88,64
64575,note_off,75,0,3,,,,,,,,0,,,,88,64
64580,note_on,5,0,4,,,,,,,,12,,,,86,60
64580,note_on,5,0,3,,,,,,,,0,,,,86,75
64620,note_off,40,0,4,,,,,,,,12,,,,86,64
64620,note_on,0,0,4,,,,,,,,12,,,,84,60
64620,note_off,40,0,3,,,,,,,,0,,,,86,64
64620,note_on,0,0,3,,,,,,,,0,,,,84,75
64660,note_off,40,0,4,,,,,,,,12,,,,84,64
64660,note_on,0,0,4,,,,,,,,12,,,,83,60
64660,note_off,40,0,3,,,,,,,,0,,,,84,64
64660,note_on,0,0,3,,,,,,,,0,,,,83,75
64700,note_on,0,0,4,,,,,,,,12,,,,81,60
64700,note_off,40,0,3,,,,,,,,0,,,,83,64
64700,note_on,0,0,3,,,,,,,,0,,,,81,75
64700,note_off,40,0,4,,,,,,,,12,,,,83,64
64740,note_on,0,0,3,,,,,,,,0,,,,80,75
64740,note_off,40,0,3,,,,,,,,0,,,,81,64
64740,note_off,40,0,4,,,,,,,,12,,,,81,64
64740,note_on,0,0,4,,,,,,,,12,,,,80,60
64820,note_off,80,0,3,,,,,,,,0,,,,80,64
64820,note_off,80,0,4,,,,,,,,12,,,,80,64
64820,note_on,0,0,4,,,,,,,,12,,,,78,60
64820,note_on,0,0,3,,,,,,,,0,,,,78,75
64900,note_off,400,0,8,,,,,,,,4,,,,44,64
64900,note_off,400,0,11,,,,,,,,7,,,,56,64
64900,note_off,400,0,12,,,,,,,,8,,,,44,64
64900,note_off,400,0,9,,,,,,,,5,,,,68,64
64900,note_off,80,0,4,,,,,,,,12,,,,78,64
64900,note_off,400,0,5,,,,,,,,1,,,,68,64
64900,note_off,400,0,7,,,,,,,,3,,,,56,64
64900,note_off,400,0,13,,,,,,,,11,,,,44,64
64900,note_on,0,0,4,,,,,,,,12,,,,76,60
64900,note_off,80,0,3,,,,,,,,0,,,,78,64
64900,note_on,0,0,3,,,,,,,,0,,,,76,75
64975,note_off,75,0,3,,,,,,,,0,,,,76,64
64975,note_off,75,0,4,,,,,,,,12,,,,76,64
64980,note_on,5,0,4,,,,,,,,12,,,,80,60
64980,note_on,5,0,3,,,,,,,,0,,,,80,75
65032,note_off,52,0,4,,,,,,,,12,,,,80,64
65032,note_off,52,0,3,,,,,,,,0,,,,80,64
65060,note_on,28,0,4,,,,,,,,12,,,,83,60
65060,note_on,28,0,3,,,,,,,,0,,,,83,75
65112,note_off,52,0,4,,,,,,,,12,,,,83,64
65112,note_off,52,0,3,,,,,,,,0,,,,83,64
65140,note_on,28,0,4,,,,,,,,12,,,,86,60
65140,note_on,28,0,3,,,,,,,,0,,,,86,75
65192,note_off,52,0,3,,,,,,,,0,,,,86,64
65192,note_off,52,0,4,,,,,,,,12,,,,86,64
65220,note_on,320,0,11,,,,,,,,7,,,,57,75
65220,note_on,320,0,12,,,,,,,,8,,,,45,75
65220,note_on,28,0,4,,,,,,,,12,,,,84,60
65220,note_on,320,0,8,,,,,,,,4,,,,45,75
65220,note_on,320,0,7,,,,,,,,3,,,,57,75
65220,note_on,320,0,13,,,,,,,,11,,,,45,45
65220,note_on,320,0,9,,,,,,,,5,,,,69,75
65220,note_on,28,0,3,,,,,,,,0,,,,84,75
65220,note_on,320,0,5,,,,,,,,1,,,,69,75
65272,note_off,52,0,3,,,,,,,,0,,,,84,64
65272,note_off,52,0,4,,,,,,,,12,,,,84,64
65300,note_on,28,0,3,,,,,,,,0,,,,81,75
65300,note_on,28,0,4,,,,,,,,12,,,,81,60
65352,note_off,52,0,3,,,,,,,,0,,,,81,64
65352,note_off,52,0,4,,,,,,,,12,,,,81,64
65380,note_on,28,0,3,,,,,,,,0,,,,76,75
65380,note_on,28,0,4,,,,,,,,12,,,,76,60
65432,note_off,52,0,3,,,,,,,,0,,,,76,64
65432,note_off,52,0,4,,,,,,,,12,,,,76,64
65460,note_on,28,0,4,,,,,,,,12,,,,72,60
65460,note_on,28,0,3,,,,,,,,0,,,,72,75
65512,note_off,52,0,4,,,,,,,,12,,,,72,64
65512,note_off,52,0,3,,,,,,,,0,,,,72,64
65540,note_on,28,0,3,,,,,,,,0,,,,69,75
65540,note_on,28,0,4,,,,,,,,12,,,,69,60
65592,note_off,52,0,4,,,,,,,,12,,,,69,64
65592,note_off,52,0,3,,,,,,,,0,,,,69,64
65620,note_off,400,0,9,,,,,,,,5,,,,69,64
65620,note_off,400,0,12,,,,,,,,8,,,,45,64
65620,note_off,400,0,8,,,,,,,,4,,,,45,64
65620,note_off,400,0,13,,,,,,,,11,,,,45,64
65620,note_on,28,0,4,,,,,,,,12,,,,64,60
65620,note_off,400,0,11,,,,,,,,7,,,,57,64
65620,note_off,400,0,7,,,,,,,,3,,,,57,64
65620,note_off,400,0,5,,,,,,,,1,,,,69,64
65620,note_on,28,0,3,,,,,,,,0,,,,64,75
65672,note_off,52,0,4,,,,,,,,12,,,,64,64
65672,note_off,52,0,3,,,,,,,,0,,,,64,64
65700,note_on,28,0,3,,,,,,,,0,,,,69,75
65700,note_on,28,0,4,,,,,,,,12,,,,69,60
65815,note_off,115,0,3,,,,,,,,0,,,,69,64
65815,note_off,115,0,4,,,,,,,,12,,,,69,64
65940,set_tempo,11520,1,0,909090,,,,,,,,,,,,
65940,note_on,320,0,11,,,,,,,,7,,,,43,45
65940,note_on,125,0,4,,,,,,,,12,,,,86,45
65940,note_on,125,0,3,,,,,,,,0,,,,86,60
65940,note_on,320,0,12,,,,,,,,8,,,,31,45
65940,note_on,320,0,8,,,,,,,,4,,,,31,45
65940,note_on,320,0,7,,,,,,,,3,,,,43,45
65940,note_on,320,0,13,,,,,,,,11,,,,31,45
66020,note_off,80,0,4,,,,,,,,12,,,,86,64
66020,note_on,0,0,4,,,,,,,,12,,,,89,45
66020,note_off,80,0,3,,,,,,,,0,,,,86,64
66020,note_on,0,0,3,,,,,,,,0,,,,89,60
66072,note_off,52,0,4,,,,,,,,12,,,,89,64
66072,note_off,52,0,3,,,,,,,,0,,,,89,64
66100,note_on,28,0,4,,,,,,,,12,,,,86,45
66100,note_on,28,0,3,,,,,,,,0,,,,86,60
66152,note_off,52,0,3,,,,,,,,0,,,,86,64
66152,note_off,52,0,4,,,,,,,,12,,,,86,64
66175,note_off,235,0,8,,,,,,,,4,,,,31,64
66175,note_off,235,0,12,,,,,,,,8,,,,31,64
66175,note_off,235,0,7,,,,,,,,3,,,,43,64
66175,note_off,235,0,11,,,,,,,,7,,,,43,64
66180,note_on,28,0,4,,,,,,,,12,,,,83,45
66180,note_on,28,0,3,,,,,,,,0,,,,83,60
66260,note_off,80,0,3,,,,,,,,0,,,,83,64
66260,note_on,0,0,4,,,,,,,,12,,,,86,45
66260,note_on,0,0,3,,,,,,,,0,,,,86,60
66260,note_off,80,0,4,,,,,,,,12,,,,83,64
66312,note_off,52,0,4,,,,,,,,12,,,,86,64
66312,note_off,52,0,3,,,,,,,,0,,,,86,64
66340,note_on,28,0,3,,,,,,,,0,,,,83,60
66340,note_on,28,0,4,,,,,,,,12,,,,83,45
66340,note_off,400,0,13,,,,,,,,11,,,,31,64
66392,note_off,52,0,3,,,,,,,,0,,,,83,64
66392,note_off,52,0,4,,,,,,,,12,,,,83,64
66420,note_on,28,0,3,,,,,,,,0,,,,79,60
66420,note_on,800,0,9,,,,,,,,5,,,,55,45
66420,note_on,800,0,5,,,,,,,,1,,,,55,45
66420,note_on,28,0,4,,,,,,,,12,,,,79,45
66500,note_on,0,0,3,,,,,,,,0,,,,83,60
66500,note_on,0,0,4,,,,,,,,12,,,,83,45
66500,note_off,80,0,4,,,,,,,,12,,,,79,64
66500,note_off,80,0,3,,,,,,,,0,,,,79,64
66540,note_on,365,0,12,,,,,,,,8,,,,31,45
66540,note_on,365,0,11,,,,,,,,7,,,,43,45
66540,note_on,365,0,7,,,,,,,,3,,,,43,45
66540,note_on,365,0,8,,,,,,,,4,,,,31,45
66552,note_off,52,0,4,,,,,,,,12,,,,83,64
66552,note_off,52,0,3,,,,,,,,0,,,,83,64
66580,note_on,28,0,3,,,,,,,,0,,,,79,60
66580,note_on,28,0,4,,,,,,,,12,,,,79,45
66632,note_off,52,0,3,,,,,,,,0,,,,79,64
66632,note_off,52,0,4,,,,,,,,12,,,,79,64
66655,note_off,115,0,11,,,,,,,,7,,,,43,64
66655,note_off,115,0,7,,,,,,,,3,,,,43,64
66655,note_off,115,0,12,,,,,,,,8,,,,31,64
66655,note_off,235,0,5,,,,,,,,1,,,,55,64
66655,note_off,115,0,8,,,,,,,,4,,,,31,64
66655,note_off,235,0,9,,,,,,,,5,,,,55,64
66660,note_on,5,0,11,,,,,,,,7,,,,43,45
66660,note_on,5,0,7,,,,,,,,3,,,,43,45
66660,note_on,5,0,8,,,,,,,,4,,,,31,45
66660,note_on,28,0,4,,,,,,,,12,,,,74,45
66660,note_on,28,0,3,,,,,,,,0,,,,74,60
66660,note_on,5,0,12,,,,,,,,8,,,,31,45
66740,note_off,80,0,4,,,,,,,,12,,,,74,64
66740,note_off,80,0,3,,,,,,,,0,,,,74,64
66740,note_on,0,0,4,,,,,,,,12,,,,79,50
66740,note_on,0,0,3,,,,,,,,0,,,,79,65
66792,note_off,52,0,3,,,,,,,,0,,,,79,64
66792,note_off,52,0,4,,,,,,,,12,,,,79,64
66820,note_on,28,0,3,,,,,,,,0,,,,74,70
66820,note_on,28,0,4,,,,,,,,12,,,,74,55
66872,note_off,52,0,4,,,,,,,,12,,,,74,64
66872,note_off,52,0,3,,,,,,,,0,,,,74,64
66895,note_off,235,0,8,,,,,,,,4,,,,31,64
66895,note_off,235,0,12,,,,,,,,8,,,,31,64
66895,note_off,235,0,11,,,,,,,,7,,,,43,64
66895,note_off,235,0,7,,,,,,,,3,,,,43,64
66900,note_on,28,0,3,,,,,,,,0,,,,71,75
66900,note_on,28,0,4,,,,,,,,12,,,,71,60
66980,note_on,0,0,4,,,,,,,,12,,,,74,65
66980,note_on,0,0,3,,,,,,,,0,,,,74,80
66980,note_off,80,0,4,,,,,,,,12,,,,71,64
66980,note_off,80,0,3,,,,,,,,0,,,,71,64
67020,note_on,365,0,9,,,,,,,,5,,,,55,61
67020,note_on,365,0,5,,,,,,,,1,,,,55,61
67032,note_off,52,0,3,,,,,,,,0,,,,74,64
67032,note_off,52,0,4,,,,,,,,12,,,,74,64
67060,note_on,28,0,4,,,,,,,,12,,,,71,70
67060,note_on,28,0,3,,,,,,,,0,,,,71,85
67100,note_off,80,0,9,,,,,,,,5,,,,55,64
67100,note_off,80,0,5,,,,,,,,1,,,,55,64
67112,note_off,52,0,3,,,,,,,,0,,,,71,64
67112,note_off,52,0,4,,,,,,,,12,,,,71,64
67140,note_on,40,0,5,,,,,,,,1,,,,55,66
67140,note_on,28,0,3,,,,,,,,0,,,,67,90
67140,note_on,40,0,9,,,,,,,,5,,,,55,66
67140,note_on,28,0,4,,,,,,,,12,,,,67,75
67220,note_on,0,0,4,,,,,,,,12,,,,71,80
67220,note_off,80,0,4,,,,,,,,12,,,,67,64
67220,note_off,80,0,5,,,,,,,,1,,,,55,64
67220,note_off,80,0,9,,,,,,,,5,,,,55,64
67220,note_on,0,0,3,,,,,,,,0,,,,71,96
67220,note_off,80,0,3,,,,,,,,0,,,,67,64
67260,note_on,365,0,7,,,,,,,,3,,,,43,70
67260,note_on,365,0,11,,,,,,,,7,,,,43,75
67260,note_on,365,0,12,,,,,,,,8,,,,31,75
67260,note_on,365,0,8,,,,,,,,4,,,,31,70
67272,note_off,52,0,3,,,,,,,,0,,,,71,64
67272,note_off,52,0,4,,,,,,,,12,,,,71,64
67300,note_on,28,0,3,,,,,,,,0,,,,67,102
67300,note_on,28,0,4,,,,,,,,12,,,,67,86
67320,note_on,100,0,9,,,,,,,,5,,,,59,75
67320,note_on,100,0,5,,,,,,,,1,,,,59,75
67340,note_off,80,0,11,,,,,,,,7,,,,43,64
67340,note_off,80,0,8,,,,,,,,4,,,,31,64
67340,note_off,80,0,12,,,,,,,,8,,,,31,64
67340,note_off,80,0,7,,,,,,,,3,,,,43,64
67352,note_off,52,0,3,,,,,,,,0,,,,67,64
67352,note_off,52,0,4,,,,,,,,12,,,,67,64
67360,note_off,40,0,5,,,,,,,,1,,,,59,64
67360,note_off,40,0,9,,,,,,,,5,,,,59,64
67380,note_on,28,0,4,,,,,,,,12,,,,62,92
67380,note_on,40,0,11,,,,,,,,7,,,,43,75
67380,note_on,40,0,8,,,,,,,,4,,,,31,75
67380,note_on,40,0,12,,,,,,,,8,,,,31,75
67380,note_on,20,0,5,,,,,,,,1,,,,59,75
67380,note_on,20,0,9,,,,,,,,5,,,,59,75
67380,note_on,28,0,3,,,,,,,,0,,,,62,108
67380,note_on,5360,0,10,,,,,,,,6,,,,59,75
67380,note_on,40,0,7,,,,,,,,3,,,,43,75
67380,set_tempo,1440,1,0,882352,,,,,,,,,,,,
67380,note_on,5360,0,6,,,,,,,,2,,,,59,75
67420,note_off,40,0,9,,,,,,,,5,,,,59,64
67420,note_off,40,0,5,,,,,,,,1,,,,59,64
67420,note_off,40,0,10,,,,,,,,6,,,,59,64
67420,note_off,40,0,7,,,,,,,,3,,,,43,64
67420,note_off,40,0,8,,,,,,,,4,,,,31,64
67420,note_off,40,0,11,,,,,,,,7,,,,43,64
67420,note_off,40,0,6,,,,,,,,2,,,,59,64
67420,note_off,40,0,12,,,,,,,,8,,,,31,64
67440,note_on,20,0,6,,,,,,,,2,,,,55,75
67440,note_on,20,0,5,,,,,,,,1,,,,62,75
67440,note_on,20,0,8,,,,,,,,4,,,,35,75
67440,note_on,20,0,9,,,,,,,,5,,,,62,75
67440,note_on,20,0,7,,,,,,,,3,,,,47,75
67440,note_on,20,0,11,,,,,,,,7,,,,47,75
67440,note_on,20,0,12,,,,,,,,8,,,,35,75
67440,note_on,20,0,10,,,,,,,,6,,,,55,75
67460,note_off,80,0,3,,,,,,,,0,,,,62,64
67460,note_on,0,0,3,,,,,,,,0,,,,59,108
67460,note_off,80,0,4,,,,,,,,12,,,,62,64
67460,note_on,0,0,4,,,,,,,,12,,,,59,92
67480,note_off,40,0,12,,,,,,,,8,,,,35,64
67480,note_off,40,0,9,,,,,,,,5,,,,62,64
67480,note_off,40,0,7,,,,,,,,3,,,,47,64
67480,note_off,40,0,11,,,,,,,,7,,,,47,64
67480,note_off,40,0,6,,,,,,,,2,,,,55,64
67480,note_off,40,0,5,,,,,,,,1,,,,62,64
67480,note_off,40,0,8,,,,,,,,4,,,,35,64
67480,note_off,40,0,10,,,,,,,,6,,,,55,64
67500,note_on,20,0,12,,,,,,,,8,,,,31,75
67500,note_on,20,0,8,,,,,,,,4,,,,31,75
67500,note_on,20,0,5,,,,,,,,1,,,,59,75
67500,note_on,20,0,11,,,,,,,,7,,,,43,75
67500,note_on,20,0,9,,,,,,,,5,,,,59,75
67500,note_on,20,0,6,,,,,,,,2,,,,59,75
67500,note_on,20,0,10,,,,,,,,6,,,,59,75
67500,note_on,20,0,7,,,,,,,,3,,,,43,75
67512,note_off,52,0,3,,,,,,,,0,,,,59,64
67512,note_off,52,0,4,,,,,,,,12,,,,59,64
67540,note_on,28,0,4,,,,,,,,12,,,,62,92
67540,note_off,40,0,7,,,,,,,,3,,,,43,64
67540,note_off,40,0,11,,,,,,,,7,,,,43,64
67540,note_off,40,0,10,,,,,,,,6,,,,59,64
67540,note_off,40,0,5,,,,,,,,1,,,,59,64
67540,note_on,28,0,3,,,,,,,,0,,,,62,108
67540,note_off,40,0,12,,,,,,,,8,,,,31,64
67540,note_off,40,0,8,,,,,,,,4,,,,31,64
67540,note_off,40,0,9,,,,,,,,5,,,,59,64
67540,note_off,40,0,6,,,,,,,,2,,,,59,64
67560,note_on,20,0,12,,,,,,,,8,,,,35,75
67560,note_on,20,0,9,,,,,,,,5,,,,62,75
67560,note_on,20,0,10,,,,,,,,6,,,,55,75
67560,note_on,20,0,5,,,,,,,,1,,,,62,75
67560,note_on,20,0,7,,,,,,,,3,,,,47,75
67560,note_on,20,0,11,,,,,,,,7,,,,47,75
67560,note_on,20,0,6,,,,,,,,2,,,,55,75
67560,note_on,20,0,8,,,,,,,,4,,,,35,75
67592,note_off,52,0,3,,,,,,,,0,,,,62,64
67592,note_off,52,0,4,,,,,,,,12,,,,62,64
67600,note_off,40,0,8,,,,,,,,4,,,,35,64
67600,note_off,40,0,10,,,,,,,,6,,,,55,64
67600,note_off,40,0,7,,,,,,,,3,,,,47,64
67600,note_off,40,0,9,,,,,,,,5,,,,62,64
67600,note_off,40,0,12,,,,,,,,8,,,,35,64
67600,note_off,40,0,5,,,,,,,,1,,,,62,64
67600,note_off,40,0,11,,,,,,,,7,,,,47,64
67600,note_off,40,0,6,,,,,,,,2,,,,55,64
67620,note_on,28,0,4,,,,,,,,12,,,,67,92
67620,note_on,20,0,12,,,,,,,,8,,,,31,75
67620,note_on,20,0,6,,,,,,,,2,,,,59,75
67620,note_on,20,0,11,,,,,,,,7,,,,43,75
67620,note_on,20,0,5,,,,,,,,1,,,,59,75
67620,note_on,20,0,9,,,,,,,,5,,,,59,75
67620,note_on,20,0,10,,,,,,,,6,,,,59,75
67620,note_on,20,0,8,,,,,,,,4,,,,31,75
67620,note_on,20,0,7,,,,,,,,3,,,,43,75
67620,note_on,28,0,3,,,,,,,,0,,,,67,108
67660,note_off,40,0,12,,,,,,,,8,,,,31,64
67660,note_off,40,0,6,,,,,,,,2,,,,59,64
67660,note_off,40,0,11,,,,,,,,7,,,,43,64
67660,note_off,40,0,8,,,,,,,,4,,,,31,64
67660,note_off,40,0,5,,,,,,,,1,,,,59,64
67660,note_off,40,0,9,,,,,,,,5,,,,59,64
67660,note_off,40,0,7,,,,,,,,3,,,,43,64
67660,note_off,40,0,10,,,,,,,,6,,,,59,64
67680,note_on,20,0,11,,,,,,,,7,,,,47,75
67680,note_on,20,0,12,,,,,,,,8,,,,35,75
67680,note_on,20,0,8,,,,,,,,4,,,,35,75
67680,note_on,20,0,9,,,,,,,,5,,,,62,75
67680,note_on,20,0,7,,,,,,,,3,,,,47,75
67680,note_on,20,0,10,,,,,,,,6,,,,55,75
67680,note_on,20,0,6,,,,,,,,2,,,,55,75
67680,note_on,20,0,5,,,,,,,,1,,,,62,75
67700,note_on,0,0,3,,,,,,,,0,,,,62,108
67700,note_off,80,0,3,,,,,,,,0,,,,67,64
67700,note_on,0,0,4,,,,,,,,12,,,,62,92
67700,note_off,80,0,4,,,,,,,,12,,,,67,64
67720,note_off,40,0,5,,,,,,,,1,,,,62,64
67720,note_off,40,0,7,,,,,,,,3,,,,47,64
67720,note_off,40,0,11,,,,,,,,7,,,,47,64
67720,note_off,40,0,10,,,,,,,,6,,,,55,64
67720,note_off,40,0,8,,,,,,,,4,,,,35,64
67720,note_off,40,0,9,,,,,,,,5,,,,62,64
67720,note_off,40,0,12,,,,,,,,8,,,,35,64
67720,note_off,40,0,6,,,,,,,,2,,,,55,64
67740,note_on,20,0,6,,,,,,,,2,,,,59,75
67740,note_on,20,0,5,,,,,,,,1,,,,59,75
67740,note_on,20,0,11,,,,,,,,7,,,,43,75
67740,note_on,20,0,8,,,,,,,,4,,,,31,75
67740,note_on,20,0,7,,,,,,,,3,,,,43,75
67740,note_on,20,0,10,,,,,,,,6,,,,59,75
67740,note_on,20,0,12,,,,,,,,8,,,,31,75
67740,note_on,20,0,9,,,,,,,,5,,,,59,75
67752,note_off,52,0,4,,,,,,,,12,,,,62,64
67752,note_off,52,0,3,,,,,,,,0,,,,62,64
67780,note_on,28,0,4,,,,,,,,12,,,,67,92
67780,note_off,40,0,10,,,,,,,,6,,,,59,64
67780,note_on,28,0,3,,,,,,,,0,,,,67,108
67780,note_off,40,0,12,,,,,,,,8,,,,31,64
67780,note_off,40,0,5,,,,,,,,1,,,,59,64
67780,note_off,40,0,6,,,,,,,,2,,,,59,64
67780,note_off,40,0,9,,,,,,,,5,,,,59,64
67780,note_off,40,0,7,,,,,,,,3,,,,43,64
67780,note_off,40,0,8,,,,,,,,4,,,,31,64
67780,note_off,40,0,11,,,,,,,,7,,,,43,64
67800,note_on,20,0,12,,,,,,,,8,,,,35,75
67800,note_on,20,0,9,,,,,,,,5,,,,62,75
67800,note_on,20,0,8,,,,,,,,4,,,,35,75
67800,note_on,20,0,6,,,,,,,,2,,,,55,75
67800,note_on,20,0,11,,,,,,,,7,,,,47,75
67800,note_on,20,0,5,,,,,,,,1,,,,62,75
67800,note_on,20,0,7,,,,,,,,3,,,,47,75
67800,note_on,20,0,10,,,,,,,,6,,,,55,75
67832,note_off,52,0,3,,,,,,,,0,,,,67,64
67832,note_off,52,0,4,,,,,,,,12,,,,67,64
67840,note_off,40,0,5,,,,,,,,1,,,,62,64
67840,note_off,40,0,8,,,,,,,,4,,,,35,64
67840,note_off,40,0,6,,,,,,,,2,,,,55,64
67840,note_off,40,0,9,,,,,,,,5,,,,62,64
67840,note_off,40,0,12,,,,,,,,8,,,,35,64
67840,note_off,40,0,7,,,,,,,,3,,,,47,64
67840,note_off,40,0,10,,,,,,,,6,,,,55,64
67840,note_off,40,0,11,,,,,,,,7,,,,47,64
67860,note_on,20,0,12,,,,,,,,8,,,,31,75
67860,note_on,20,0,5,,,,,,,,1,,,,59,75
67860,note_on,20,0,6,,,,,,,,2,,,,59,75
67860,note_on,20,0,7,,,,,,,,3,,,,43,75
67860,note_on,20,0,9,,,,,,,,5,,,,59,75
67860,note_on,20,0,11,,,,,,,,7,,,,43,75
67860,note_on,20,0,8,,,,,,,,4,,,,31,75
67860,note_on,20,0,10,,,,,,,,6,,,,59,75
67860,note_on,28,0,3,,,,,,,,0,,,,71,108
67860,note_on,28,0,4,,,,,,,,12,,,,71,92
67900,note_off,40,0,11,,,,,,,,7,,,,43,64
67900,note_off,40,0,9,,,,,,,,5,,,,59,64
67900,note_off,40,0,8,,,,,,,,4,,,,31,64
67900,note_off,40,0,5,,,,,,,,1,,,,59,64
67900,note_off,40,0,12,,,,,,,,8,,,,31,64
67900,note_off,40,0,10,,,,,,,,6,,,,59,64
67900,note_off,40,0,6,,,,,,,,2,,,,59,64
67900,note_off,40,0,7,,,,,,,,3,,,,43,64
67920,note_on,20,0,12,,,,,,,,8,,,,35,75
67920,note_on,20,0,10,,,,,,,,6,,,,55,75
67920,note_on,20,0,6,,,,,,,,2,,,,55,75
67920,note_on,20,0,9,,,,,,,,5,,,,62,75
67920,note_on,20,0,5,,,,,,,,1,,,,62,75
67920,note_on,20,0,7,,,,,,,,3,,,,47,75
67920,note_on,20,0,11,,,,,,,,7,,,,47,75
67920,note_on,20,0,8,,,,,,,,4,,,,35,75
67940,note_off,80,0,3,,,,,,,,0,,,,71,64
67940,note_off,80,0,4,,,,,,,,12,,,,71,64
67960,note_off,40,0,6,,,,,,,,2,,,,55,64
67960,note_off,40,0,11,,,,,,,,7,,,,47,64
67960,note_off,40,0,10,,,,,,,,6,,,,55,64
67960,note_off,40,0,5,,,,,,,,1,,,,62,64
67960,note_off,40,0,7,,,,,,,,3,,,,47,64
67960,note_off,40,0,9,,,,,,,,5,,,,62,64
67960,note_off,40,0,8,,,,,,,,4,,,,35,64
67960,note_off,40,0,12,,,,,,,,8,,,,35,64
67980,note_on,20,0,8,,,,,,,,4,,,,31,75
67980,note_on,20,0,5,,,,,,,,1,,,,59,75
67980,note_on,20,0,7,,,,,,,,3,,,,43,75
67980,note_on,20,0,6,,,,,,,,2,,,,59,75
67980,note_on,20,0,12,,,,,,,,8,,,,31,75
67980,note_on,20,0,10,,,,,,,,6,,,,59,75
67980,note_on,20,0,11,,,,,,,,7,,,,43,75
67980,note_on,20,0,9,,,,,,,,5,,,,59,75
68020,note_off,40,0,9,,,,,,,,5,,,,59,64
68020,note_off,40,0,11,,,,,,,,7,,,,43,64
68020,note_off,40,0,5,,,,,,,,1,,,,59,64
68020,note_off,40,0,8,,,,,,,,4,,,,31,64
68020,note_off,40,0,7,,,,,,,,3,,,,43,64
68020,note_off,40,0,6,,,,,,,,2,,,,59,64
68020,note_off,40,0,10,,,,,,,,6,,,,59,64
68020,note_off,40,0,12,,,,,,,,8,,,,31,64
68040,note_on,20,0,12,,,,,,,,8,,,,35,75
68040,note_on,20,0,9,,,,,,,,5,,,,62,75
68040,note_on,20,0,8,,,,,,,,4,,,,35,75
68040,note_on,20,0,7,,,,,,,,3,,,,47,75
68040,note_on,20,0,5,,,,,,,,1,,,,62,75
68040,note_on,20,0,10,,,,,,,,6,,,,55,75
68040,note_on,20,0,6,,,,,,,,2,,,,55,75
68040,note_on,20,0,11,,,,,,,,7,,,,47,75
68080,note_off,40,0,7,,,,,,,,3,,,,47,64
68080,note_off,40,0,8,,,,,,,,4,,,,35,64
68080,note_off,40,0,6,,,,,,,,2,,,,55,64
68080,note_off,40,0,5,,,,,,,,1,,,,62,64
68080,note_off,40,0,12,,,,,,,,8,,,,35,64
68080,note_off,40,0,10,,,,,,,,6,,,,55,64
68080,note_off,40,0,9,,,,,,,,5,,,,62,64
68080,note_off,40,0,11,,,,,,,,7,,,,47,64
68100,note_on,20,0,5,,,,,,,,1,,,,59,75
68100,set_tempo,720,1,0,857142,,,,,,,,,,,,
68100,note_on,20,0,12,,,,,,,,8,,,,31,75
68100,note_on,20,0,7,,,,,,,,3,,,,43,75
68100,note_on,160,0,3,,,,,,,,0,,,,67,108
68100,note_on,20,0,9,,,,,,,,5,,,,59,75
68100,note_on,20,0,11,,,,,,,,7,,,,43,75
68100,note_on,160,0,4,,,,,,,,12,,,,67,92
68100,note_on,20,0,8,,,,,,,,4,,,,31,75
68100,note_on,20,0,6,,,,,,,,2,,,,59,75
68100,note_on,20,0,10,,,,,,,,6,,,,59,75
68140,note_off,40,0,5,,,,,,,,1,,,,59,64
68140,note_off,40,0,12,,,,,,,,8,,,,31,64
68140,note_off,40,0,10,,,,,,,,6,,,,59,64
68140,note_off,40,0,11,,,,,,,,7,,,,43,64
68140,note_off,40,0,7,,,,,,,,3,,,,43,64
68140,note_off,40,0,9,,,,,,,,5,,,,59,64
68140,note_off,40,0,8,,,,,,,,4,,,,31,64
68140,note_off,40,0,6,,,,,,,,2,,,,59,64
68160,note_on,20,0,12,,,,,,,,8,,,,35,75
68160,note_on,20,0,5,,,,,,,,1,,,,62,75
68160,note_on,20,0,7,,,,,,,,3,,,,47,75
68160,note_on,20,0,10,,,,,,,,6,,,,55,75
68160,note_on,20,0,6,,,,,,,,2,,,,55,75
68160,note_on,20,0,9,,,,,,,,5,,,,62,75
68160,note_on,20,0,8,,,,,,,,4,,,,35,75
68160,note_on,20,0,11,,,,,,,,7,,,,47,75
68180,note_off,80,0,4,,,,,,,,12,,,,67,64
68180,note_off,80,0,3,,,,,,,,0,,,,67,64
68180,note_on,0,0,3,,,,,,,,0,,,,62,108
68180,note_on,0,0,4,,,,,,,,12,,,,62,92
68200,note_off,40,0,9,,,,,,,,5,,,,62,64
68200,note_off,40,0,12,,,,,,,,8,,,,35,64
68200,note_off,40,0,10,,,,,,,,6,,,,55,64
68200,note_off,40,0,8,,,,,,,,4,,,,35,64
68200,note_off,40,0,5,,,,,,,,1,,,,62,64
68200,note_off,40,0,11,,,,,,,,7,,,,47,64
68200,note_off,40,0,7,,,,,,,,3,,,,47,64
68200,note_off,40,0,6,,,,,,,,2,,,,55,64
68220,note_on,20,0,10,,,,,,,,6,,,,59,75
68220,note_on,20,0,11,,,,,,,,7,,,,43,75
68220,note_on,20,0,12,,,,,,,,8,,,,31,75
68220,note_on,20,0,9,,,,,,,,5,,,,59,75
68220,note_on,20,0,8,,,,,,,,4,,,,31,75
68220,note_on,20,0,7,,,,,,,,3,,,,43,75
68220,note_on,20,0,5,,,,,,,,1,,,,59,75
68220,note_on,20,0,6,,,,,,,,2,,,,59,75
68232,note_off,52,0,3,,,,,,,,0,,,,62,64
68232,note_off,52,0,4,,,,,,,,12,,,,62,64
68260,note_off,40,0,8,,,,,,,,4,,,,31,64
68260,note_off,40,0,11,,,,,,,,7,,,,43,64
68260,note_off,40,0,5,,,,,,,,1,,,,59,64
68260,note_on,28,0,3,,,,,,,,0,,,,67,108
68260,note_off,40,0,7,,,,,,,,3,,,,43,64
68260,note_off,40,0,10,,,,,,,,6,,,,59,64
68260,note_off,40,0,6,,,,,,,,2,,,,59,64
68260,note_on,28,0,4,,,,,,,,12,,,,67,92
68260,note_off,40,0,12,,,,,,,,8,,,,31,64
68260,note_off,40,0,9,,,,,,,,5,,,,59,64
68280,note_on,20,0,7,,,,,,,,3,,,,47,75
68280,note_on,20,0,5,,,,,,,,1,,,,62,75
68280,note_on,20,0,12,,,,,,,,8,,,,35,75
68280,note_on,20,0,10,,,,,,,,6,,,,55,75
68280,note_on,20,0,6,,,,,,,,2,,,,55,75
68280,note_on,20,0,8,,,,,,,,4,,,,35,75
68280,note_on,20,0,11,,,,,,,,7,,,,47,75
68280,note_on,20,0,9,,,,,,,,5,,,,62,75
68312,note_off,52,0,3,,,,,,,,0,,,,67,64
68312,note_off,52,0,4,,,,,,,,12,,,,67,64
68320,note_off,40,0,11,,,,,,,,7,,,,47,64
68320,note_off,40,0,10,,,,,,,,6,,,,55,64
68320,note_off,40,0,8,,,,,,,,4,,,,35,64
68320,note_off,40,0,5,,,,,,,,1,,,,62,64
68320,note_off,40,0,9,,,,,,,,5,,,,62,64
68320,note_off,40,0,7,,,,,,,,3,,,,47,64
68320,note_off,40,0,12,,,,,,,,8,,,,35,64
68320,note_off,40,0,6,,,,,,,,2,,,,55,64
68340,note_on,20,0,9,,,,,,,,5,,,,59,75
68340,note_on,20,0,10,,,,,,,,6,,,,59,75
68340,note_on,28,0,4,,,,,,,,12,,,,71,92
68340,note_on,28,0,3,,,,,,,,0,,,,71,108
68340,note_on,20,0,5,,,,,,,,1,,,,59,75
68340,note_on,20,0,12,,,,,,,,8,,,,31,75
68340,note_on,20,0,6,,,,,,,,2,,,,59,75
68340,note_on,20,0,11,,,,,,,,7,,,,43,75
68340,note_on,20,0,7,,,,,,,,3,,,,43,75
68340,note_on,20,0,8,,,,,,,,4,,,,31,75
68380,note_off,40,0,6,,,,,,,,2,,,,59,64
68380,note_off,40,0,12,,,,,,,,8,,,,31,64
68380,note_off,40,0,10,,,,,,,,6,,,,59,64
68380,note_off,40,0,7,,,,,,,,3,,,,43,64
68380,note_off,40,0,9,,,,,,,,5,,,,59,64
68380,note_off,40,0,5,,,,,,,,1,,,,59,64
68380,note_off,40,0,8,,,,,,,,4,,,,31,64
68380,note_off,40,0,11,,,,,,,,7,,,,43,64
68392,note_off,52,0,4,,,,,,,,12,,,,71,64
68392,note_off,52,0,3,,,,,,,,0,,,,71,64
68400,note_on,20,0,9,,,,,,,,5,,,,62,75
68400,note_on,20,0,7,,,,,,,,3,,,,47,75
68400,note_on,20,0,8,,,,,,,,4,,,,35,75
68400,note_on,20,0,5,,,,,,,,1,,,,62,75
68400,note_on,20,0,10,,,,,,,,6,,,,55,75
68400,note_on,20,0,11,,,,,,,,7,,,,47,75
68400,note_on,20,0,6,,,,,,,,2,,,,55,75
68400,note_on,20,0,12,,,,,,,,8,,,,35,75
68420,note_on,28,0,3,,,,,,,,0,,,,67,108
68420,note_on,28,0,4,,,,,,,,12,,,,67,92
68440,note_off,40,0,10,,,,,,,,6,,,,55,64
68440,note_off,40,0,11,,,,,,,,7,,,,47,64
68440,note_off,40,0,12,,,,,,,,8,,,,35,64
68440,note_off,40,0,6,,,,,,,,2,,,,55,64
68440,note_off,40,0,9,,,,,,,,5,,,,62,64
68440,note_off,40,0,7,,,,,,,,3,,,,47,64
68440,note_off,40,0,5,,,,,,,,1,,,,62,64
68440,note_off,40,0,8,,,,,,,,4,,,,35,64
68460,note_on,20,0,11,,,,,,,,7,,,,43,75
68460,note_on,20,0,6,,,,,,,,2,,,,59,75
68460,note_on,20,0,7,,,,,,,,3,,,,43,75
68460,note_on,20,0,8,,,,,,,,4,,,,31,75
68460,note_on,20,0,5,,,,,,,,1,,,,59,75
68460,note_on,20,0,12,,,,,,,,8,,,,31,75
68460,note_on,20,0,10,,,,,,,,6,,,,59,75
68460,note_on,20,0,9,,,,,,,,5,,,,59,75
68472,note_off,52,0,4,,,,,,,,12,,,,67,64
68472,note_off,52,0,3,,,,,,,,0,,,,67,64
68500,note_off,40,0,7,,,,,,,,3,,,,43,64
68500,note_off,40,0,12,,,,,,,,8,,,,31,64
68500,note_off,40,0,6,,,,,,,,2,,,,59,64
68500,note_on,28,0,3,,,,,,,,0,,,,71,108
68500,note_off,40,0,11,,,,,,,,7,,,,43,64
68500,note_on,28,0,4,,,,,,,,12,,,,71,92
68500,note_off,40,0,9,,,,,,,,5,,,,59,64
68500,note_off,40,0,10,,,,,,,,6,,,,59,64
68500,note_off,40,0,8,,,,,,,,4,,,,31,64
68500,note_off,40,0,5,,,,,,,,1,,,,59,64
68520,note_on,20,0,8,,,,,,,,4,,,,35,75
68520,note_on,20,0,12,,,,,,,,8,,,,35,75
68520,note_on,20,0,9,,,,,,,,5,,,,62,75
68520,note_on,20,0,6,,,,,,,,2,,,,55,75
68520,note_on,20,0,11,,,,,,,,7,,,,47,75
68520,note_on,20,0,10,,,,,,,,6,,,,55,75
68520,note_on,20,0,5,,,,,,,,1,,,,62,75
68520,note_on,20,0,7,,,,,,,,3,,,,47,75
68552,note_off,52,0,4,,,,,,,,12,,,,71,64
68552,note_off,52,0,3,,,,,,,,0,,,,71,64
68560,note_off,40,0,11,,,,,,,,7,,,,47,64
68560,note_off,40,0,10,,,,,,,,6,,,,55,64
68560,note_off,40,0,8,,,,,,,,4,,,,35,64
68560,note_off,40,0,6,,,,,,,,2,,,,55,64
68560,note_off,40,0,9,,,,,,,,5,,,,62,64
68560,note_off,40,0,7,,,,,,,,3,,,,47,64
68560,note_off,40,0,5,,,,,,,,1,,,,62,64
68560,note_off,40,0,12,,,,,,,,8,,,,35,64
68580,note_on,20,0,8,,,,,,,,4,,,,31,75
68580,note_on,20,0,5,,,,,,,,1,,,,59,75
68580,note_on,20,0,12,,,,,,,,8,,,,31,75
68580,note_on,20,0,11,,,,,,,,7,,,,43,75
68580,note_on,20,0,7,,,,,,,,3,,,,43,75
68580,note_on,28,0,4,,,,,,,,12,,,,74,92
68580,note_on,20,0,9,,,,,,,,5,,,,59,75
68580,note_on,28,0,3,,,,,,,,0,,,,74,108
68580,note_on,20,0,10,,,,,,,,6,,,,59,75
68580,note_on,20,0,6,,,,,,,,2,,,,59,75
68620,note_off,40,0,5,,,,,,,,1,,,,59,64
68620,note_off,40,0,8,,,,,,,,4,,,,31,64
68620,note_off,40,0,6,,,,,,,,2,,,,59,64
68620,note_off,40,0,7,,,,,,,,3,,,,43,64
68620,note_off,40,0,12,,,,,,,,8,,,,31,64
68620,note_off,40,0,9,,,,,,,,5,,,,59,64
68620,note_off,40,0,10,,,,,,,,6,,,,59,64
68620,note_off,40,0,11,,,,,,,,7,,,,43,64
68640,note_on,20,0,10,,,,,,,,6,,,,55,75
68640,note_on,20,0,7,,,,,,,,3,,,,47,75
68640,note_on,20,0,12,,,,,,,,8,,,,35,75
68640,note_on,20,0,8,,,,,,,,4,,,,35,75
68640,note_on,20,0,9,,,,,,,,5,,,,62,75
68640,note_on,20,0,5,,,,,,,,1,,,,62,75
68640,note_on,20,0,6,,,,,,,,2,,,,55,75
68640,note_on,20,0,11,,,,,,,,7,,,,47,75
68660,note_off,80,0,3,,,,,,,,0,,,,74,64
68660,note_off,80,0,4,,,,,,,,12,,,,74,64
68680,note_off,40,0,9,,,,,,,,5,,,,62,64
68680,note_off,40,0,10,,,,,,,,6,,,,55,64
68680,note_off,40,0,5,,,,,,,,1,,,,62,64
68680,note_off,40,0,12,,,,,,,,8,,,,35,64
68680,note_off,40,0,7,,,,,,,,3,,,,47,64
68680,note_off,40,0,8,,,,,,,,4,,,,35,64
68680,note_off,40,0,6,,,,,,,,2,,,,55,64
68680,note_off,40,0,11,,,,,,,,7,,,,47,64
68700,note_on,20,0,8,,,,,,,,4,,,,31,75
68700,note_on,20,0,12,,,,,,,,8,,,,31,75
68700,note_on,20,0,10,,,,,,,,6,,,,59,75
68700,note_on,20,0,5,,,,,,,,1,,,,59,75
68700,note_on,20,0,6,,,,,,,,2,,,,59,75
68700,note_on,20,0,9,,,,,,,,5,,,,59,75
68700,note_on,20,0,11,,,,,,,,7,,,,43,75
68700,note_on,20,0,7,,,,,,,,3,,,,43,75
68740,note_off,40,0,10,,,,,,,,6,,,,59,64
68740,note_off,40,0,11,,,,,,,,7,,,,43,64
68740,note_off,40,0,9,,,,,,,,5,,,,59,64
68740,note_off,40,0,5,,,,,,,,1,,,,59,64
68740,note_off,40,0,6,,,,,,,,2,,,,59,64
68740,note_off,40,0,12,,,,,,,,8,,,,31,64
68740,note_off,40,0,8,,,,,,,,4,,,,31,64
68740,note_off,40,0,7,,,,,,,,3,,,,43,64
68760,note_on,20,0,12,,,,,,,,8,,,,35,75
68760,note_on,20,0,8,,,,,,,,4,,,,35,75
68760,note_on,20,0,11,,,,,,,,7,,,,47,75
68760,note_on,20,0,7,,,,,,,,3,,,,47,75
68760,note_on,20,0,6,,,,,,,,2,,,,55,75
68760,note_on,20,0,9,,,,,,,,5,,,,62,75
68760,note_on,20,0,10,,,,,,,,6,,,,55,75
68760,note_on,20,0,5,,,,,,,,1,,,,62,75
68800,note_off,40,0,8,,,,,,,,4,,,,35,64
68800,note_off,40,0,7,,,,,,,,3,,,,47,64
68800,note_off,40,0,12,,,,,,,,8,,,,35,64
68800,note_off,40,0,9,,,,,,,,5,,,,62,64
68800,note_off,40,0,5,,,,,,,,1,,,,62,64
68800,note_off,40,0,6,,,,,,,,2,,,,55,64
68800,note_off,40,0,11,,,,,,,,7,,,,47,64
68800,note_off,40,0,10,,,,,,,,6,,,,55,64
68820,note_on,20,0,7,,,,,,,,3,,,,43,75
68820,note_on,160,0,4,,,,,,,,12,,,,71,92
68820,note_on,20,0,9,,,,,,,,5,,,,59,75
68820,note_on,20,0,5,,,,,,,,1,,,,59,75
68820,note_on,160,0,3,,,,,,,,0,,,,71,108
68820,note_on,20,0,10,,,,,,,,6,,,,55,75
68820,note_on,20,0,12,,,,,,,,8,,,,31,75
68820,note_on,20,0,8,,,,,,,,4,,,,31,75
68820,note_on,20,0,11,,,,,,,,7,,,,43,75
68820,note_on,20,0,6,,,,,,,,2,,,,55,75
68872,note_off,52,0,3,,,,,,,,0,,,,71,64
68872,note_off,52,0,4,,,,,,,,12,,,,71,64
68900,note_on,28,0,3,,,,,,,,0,,,,67,108
68900,note_on,28,0,4,,,,,,,,12,,,,67,92
68952,note_off,52,0,4,,,,,,,,12,,,,67,64
68952,note_off,52,0,3,,,,,,,,0,,,,67,64
68980,note_on,28,0,4,,,,,,,,12,,,,71,92
68980,note_on,28,0,3,,,,,,,,0,,,,71,108
69032,note_off,52,0,3,,,,,,,,0,,,,71,64
69032,note_off,52,0,4,,,,,,,,12,,,,71,64
69055,note_off,235,0,12,,,,,,,,8,,,,31,64
69055,note_off,235,0,7,,,,,,,,3,,,,43,64
69055,note_off,235,0,8,,,,,,,,4,,,,31,64
69055,note_off,235,0,5,,,,,,,,1,,,,59,64
69055,note_off,235,0,11,,,,,,,,7,,,,43,64
69055,note_off,235,0,10,,,,,,,,6,,,,55,64
69055,note_off,235,0,6,,,,,,,,2,,,,55,64
69055,note_off,235,0,9,,,,,,,,5,,,,59,64
69060,note_on,28,0,4,,,,,,,,12,,,,74,92
69060,note_on,28,0,3,,,,,,,,0,,,,74,108
69112,note_off,52,0,4,,,,,,,,12,,,,74,64
69112,note_off,52,0,3,,,,,,,,0,,,,74,64
69140,note_on,28,0,4,,,,,,,,12,,,,71,92
69140,note_on,28,0,3,,,,,,,,0,,,,71,108
69192,note_off,52,0,4,,,,,,,,12,,,,71,64
69192,note_off,52,0,3,,,,,,,,0,,,,71,64
69220,note_on,28,0,3,,,,,,,,0,,,,74,108
69220,note_on,28,0,4,,,,,,,,12,,,,74,92
69272,note_off,52,0,3,,,,,,,,0,,,,74,64
69272,note_off,52,0,4,,,,,,,,12,,,,74,64
69300,note_on,28,0,4,,,,,,,,12,,,,79,92
69300,note_on,28,0,3,,,,,,,,0,,,,79,108
69380,note_off,80,0,3,,,,,,,,0,,,,79,64
69380,note_off,80,0,4,,,,,,,,12,,,,79,64
69600,note_on,545,0,11,,,,,,,,7,,,,48,75
69600,note_on,545,0,8,,,,,,,,4,,,,36,92
69600,note_on,545,0,7,,,,,,,,3,,,,48,92
69600,note_on,545,0,10,,,,,,,,6,,,,64,75
69600,note_on,545,0,5,,,,,,,,1,,,,72,108
69600,note_on,15340,0,2,,,,,,,,10,,,,48,75
69600,set_tempo,1500,1,0,833333,,,,,,,,,,,,
69600,note_on,545,0,6,,,,,,,,2,,,,64,92
69600,note_on,545,0,9,,,,,,,,5,,,,72,75
69600,note_on,3260,0,13,,,,,,,,11,,,,36,75
69600,note_on,545,0,12,,,,,,,,8,,,,36,75
69775,note_off,175,0,5,,,,,,,,1,,,,72,64
69775,note_off,175,0,9,,,,,,,,5,,,,72,64
69780,note_on,5,0,5,,,,,,,,1,,,,79,108
69780,note_on,5,0,9,,,,,,,,5,,,,79,75
69820,note_off,40,0,5,,,,,,,,1,,,,79,64
69820,note_off,40,0,9,,,,,,,,5,,,,79,64
69835,note_off,235,0,2,,,,,,,,10,,,,48,64
69835,note_off,235,0,7,,,,,,,,3,,,,48,64
69835,note_off,235,0,6,,,,,,,,2,,,,64,64
69835,note_off,235,0,12,,,,,,,,8,,,,36,64
69835,note_off,235,0,11,,,,,,,,7,,,,48,64
69835,note_off,235,0,10,,,,,,,,6,,,,64,64
69835,note_off,235,0,8,,,,,,,,4,,,,36,64
69840,note_on,5,0,6,,,,,,,,2,,,,67,92
69840,note_on,5,0,12,,,,,,,,8,,,,48,75
69840,note_on,20,0,5,,,,,,,,1,,,,72,108
69840,note_on,5,0,10,,,,,,,,6,,,,67,75
69840,note_on,5,0,8,,,,,,,,4,,,,48,92
69840,note_on,5,0,11,,,,,,,,7,,,,60,75
69840,note_on,15580,0,1,,,,,,,,10,,,,64,92
69840,note_on,5,0,7,,,,,,,,3,,,,60,92
69840,note_on,5,0,2,,,,,,,,10,,,,60,75
69840,note_on,20,0,9,,,,,,,,5,,,,72,75
69920,note_off,80,0,10,,,,,,,,6,,,,67,64
69920,note_off,80,0,7,,,,,,,,3,,,,60,64
69920,note_off,80,0,9,,,,,,,,5,,,,72,64
69920,note_off,80,0,12,,,,,,,,8,,,,48,64
69920,note_off,80,0,5,,,,,,,,1,,,,72,64
69920,note_off,80,0,8,,,,,,,,4,,,,48,64
69920,note_off,80,0,2,,,,,,,,10,,,,60,64
69920,note_off,80,0,6,,,,,,,,2,,,,67,64
69920,note_off,80,0,11,,,,,,,,7,,,,60,64
69960,note_off,120,0,1,,,,,,,,10,,,,64,64
69960,note_on,0,0,1,,,,,,,,10,,,,67,92
70000,note_off,400,0,13,,,,,,,,11,,,,36,64
70080,note_on,160,0,12,,,,,,,,8,,,,48,75
70080,note_on,160,0,5,,,,,,,,1,,,,72,108
70080,note_on,0,0,1,,,,,,,,10,,,,64,92
70080,note_off,120,0,1,,,,,,,,10,,,,67,64
70080,note_on,160,0,8,,,,,,,,4,,,,48,92
70080,note_on,160,0,10,,,,,,,,6,,,,64,75
70080,note_on,160,0,2,,,,,,,,10,,,,60,75
70080,note_on,160,0,11,,,,,,,,7,,,,60,75
70080,note_on,160,0,6,,,,,,,,2,,,,64,92
70080,note_on,160,0,7,,,,,,,,3,,,,60,92
70080,note_on,160,0,9,,,,,,,,5,,,,72,75
70160,note_off,80,0,6,,,,,,,,2,,,,64,64
70160,note_off,80,0,7,,,,,,,,3,,,,60,64
70160,note_off,80,0,12,,,,,,,,8,,,,48,64
70160,note_off,80,0,11,,,,,,,,7,,,,60,64
70160,note_off,80,0,2,,,,,,,,10,,,,60,64
70160,note_off,80,0,9,,,,,,,,5,,,,72,64
70160,note_off,80,0,8,,,,,,,,4,,,,48,64
70160,note_off,80,0,5,,,,,,,,1,,,,72,64
70160,note_off,80,0,10,,,,,,,,6,,,,64,64
70200,note_off,120,0,1,,,,,,,,10,,,,64,64
70200,note_on,0,0,1,,,,,,,,10,,,,67,92
70320,note_on,320,0,13,,,,,,,,11,,,,36,75
70320,note_on,160,0,6,,,,,,,,2,,,,64,92
70320,note_on,160,0,12,,,,,,,,8,,,,36,75
70320,note_on,160,0,8,,,,,,,,4,,,,36,92
70320,note_on,160,0,5,,,,,,,,1,,,,72,108
70320,note_on,160,0,2,,,,,,,,10,,,,48,75
70320,note_on,160,0,11,,,,,,,,7,,,,48,75
70320,note_on,160,0,9,,,,,,,,5,,,,72,75
70320,note_on,160,0,7,,,,,,,,3,,,,48,92
70320,note_off,120,0,1,,,,,,,,10,,,,67,64
70320,note_on,160,0,10,,,,,,,,6,,,,64,75
70495,note_off,175,0,9,,,,,,,,5,,,,72,64
70495,note_off,175,0,5,,,,,,,,1,,,,72,64
70500,note_on,5,0,5,,,,,,,,1,,,,79,108
70500,note_on,5,0,9,,,,,,,,5,,,,79,75
70540,note_off,40,0,5,,,,,,,,1,,,,79,64
70540,note_off,40,0,9,,,,,,,,5,,,,79,64
70555,note_off,235,0,7,,,,,,,,3,,,,48,64
70555,note_off,235,0,2,,,,,,,,10,,,,48,64
70555,note_off,235,0,8,,,,,,,,4,,,,36,64
70555,note_off,235,0,11,,,,,,,,7,,,,48,64
70555,note_off,235,0,10,,,,,,,,6,,,,64,64
70555,note_off,235,0,12,,,,,,,,8,,,,36,64
70555,note_off,235,0,6,,,,,,,,2,,,,64,64
70560,note_on,5,0,12,,,,,,,,8,,,,48,75
70560,note_on,5,0,7,,,,,,,,3,,,,60,92
70560,note_on,5,0,8,,,,,,,,4,,,,48,92
70560,note_on,5,0,6,,,,,,,,2,,,,67,92
70560,note_on,20,0,5,,,,,,,,1,,,,72,108
70560,note_on,240,0,1,,,,,,,,10,,,,64,92
70560,note_on,20,0,9,,,,,,,,5,,,,72,75
70560,note_on,5,0,10,,,,,,,,6,,,,67,75
70560,note_on,5,0,2,,,,,,,,10,,,,60,75
70560,note_on,5,0,11,,,,,,,,7,,,,60,75
70640,note_off,80,0,2,,,,,,,,10,,,,60,64
70640,note_off,80,0,6,,,,,,,,2,,,,67,64
70640,note_off,80,0,9,,,,,,,,5,,,,72,64
70640,note_off,80,0,7,,,,,,,,3,,,,60,64
70640,note_off,80,0,12,,,,,,,,8,,,,48,64
70640,note_off,80,0,10,,,,,,,,6,,,,67,64
70640,note_off,80,0,5,,,,,,,,1,,,,72,64
70640,note_off,80,0,8,,,,,,,,4,,,,48,64
70640,note_off,80,0,11,,,,,,,,7,,,,60,64
70680,note_off,120,0,1,,,,,,,,10,,,,64,64
70680,note_on,0,0,1,,,,,,,,10,,,,67,92
70720,note_off,400,0,13,,,,,,,,11,,,,36,64
70800,note_on,160,0,9,,,,,,,,5,,,,72,75
70800,note_on,160,0,11,,,,,,,,7,,,,60,75
70800,note_on,160,0,12,,,,,,,,8,,,,48,75
70800,note_on,160,0,8,,,,,,,,4,,,,48,92
70800,note_on,0,0,1,,,,,,,,10,,,,64,92
70800,note_off,120,0,1,,,,,,,,10,,,,67,64
70800,note_on,160,0,6,,,,,,,,2,,,,64,92
70800,note_on,160,0,10,,,,,,,,6,,,,64,75
70800,note_on,160,0,5,,,,,,,,1,,,,72,108
70800,note_on,160,0,7,,,,,,,,3,,,,60,92
70800,note_on,160,0,2,,,,,,,,10,,,,60,75
70880,note_off,80,0,10,,,,,,,,6,,,,64,64
70880,note_off,80,0,2,,,,,,,,10,,,,60,64
70880,note_off,80,0,9,,,,,,,,5,,,,72,64
70880,note_off,80,0,11,,,,,,,,7,,,,60,64
70880,note_off,80,0,12,,,,,,,,8,,,,48,64
70880,note_off,80,0,6,,,,,,,,2,,,,64,64
70880,note_off,80,0,7,,,,,,,,3,,,,60,64
70880,note_off,80,0,8,,,,,,,,4,,,,48,64
70880,note_off,80,0,5,,,,,,,,1,,,,72,64
70920,note_on,0,0,1,,,,,,,,10,,,,67,92
70920,note_off,120,0,1,,,,,,,,10,,,,64,64
71040,note_on,160,0,7,,,,,,,,3,,,,48,92
71040,note_on,160,0,12,,,,,,,,8,,,,36,75
71040,note_on,320,0,13,,,,,,,,11,,,,36,75
71040,note_on,160,0,8,,,,,,,,4,,,,36,92
71040,note_on,160,0,9,,,,,,,,5,,,,72,75
71040,note_on,160,0,11,,,,,,,,7,,,,48,75
71040,note_on,160,0,10,,,,,,,,6,,,,64,75
71040,note_off,120,0,1,,,,,,,,10,,,,67,64
71040,note_on,160,0,6,,,,,,,,2,,,,64,92
71040,note_on,160,0,5,,,,,,,,1,,,,72,108
71040,note_on,160,0,2,,,,,,,,10,,,,48,75
71215,note_off,175,0,5,,,,,,,,1,,,,72,64
71215,note_off,175,0,9,,,,,,,,5,,,,72,64
71220,note_on,5,0,5,,,,,,,,1,,,,79,102
71220,note_on,5,0,9,,,,,,,,5,,,,79,72
71260,note_off,40,0,9,,,,,,,,5,,,,79,64
71260,note_off,40,0,5,,,,,,,,1,,,,79,64
71275,note_off,235,0,12,,,,,,,,8,,,,36,64
71275,note_off,235,0,11,,,,,,,,7,,,,48,64
71275,note_off,235,0,7,,,,,,,,3,,,,48,64
71275,note_off,235,0,6,,,,,,,,2,,,,64,64
71275,note_off,235,0,8,,,,,,,,4,,,,36,64
71275,note_off,235,0,2,,,,,,,,10,,,,48,64
71275,note_off,235,0,10,,,,,,,,6,,,,64,64
71275,note_off,235,0,13,,,,,,,,11,,,,36,64
71280,note_on,5,0,2,,,,,,,,10,,,,53,70
71280,note_on,5,0,10,,,,,,,,6,,,,69,70
71280,note_on,5,0,13,,,,,,,,11,,,,41,70
71280,note_on,5,0,7,,,,,,,,3,,,,53,85
71280,note_on,20,0,5,,,,,,,,1,,,,77,100
71280,note_on,5,0,12,,,,,,,,8,,,,41,70
71280,note_on,20,0,9,,,,,,,,5,,,,77,71
71280,note_on,5,0,6,,,,,,,,2,,,,69,85
71280,note_on,240,0,1,,,,,,,,10,,,,69,86
71280,note_on,5,0,8,,,,,,,,4,,,,41,85
71280,note_on,5,0,11,,,,,,,,7,,,,53,70
71360,note_off,80,0,1,,,,,,,,10,,,,69,64
71360,note_off,80,0,6,,,,,,,,2,,,,69,64
71360,note_off,80,0,8,,,,,,,,4,,,,41,64
71360,note_off,80,0,10,,,,,,,,6,,,,69,64
71360,note_off,80,0,2,,,,,,,,10,,,,53,64
71360,note_off,80,0,12,,,,,,,,8,,,,41,64
71360,note_off,80,0,11,,,,,,,,7,,,,53,64
71360,note_off,80,0,7,,,,,,,,3,,,,53,64
71360,note_off,80,0,9,,,,,,,,5,,,,77,64
71360,note_off,80,0,5,,,,,,,,1,,,,77,64
71515,note_off,235,0,13,,,,,,,,11,,,,41,64
71520,note_on,160,0,7,,,,,,,,3,,,,54,77
71520,note_on,160,0,5,,,,,,,,1,,,,76,92
71520,note_on,160,0,6,,,,,,,,2,,,,69,77
71520,note_on,5,0,13,,,,,,,,11,,,,42,65
71520,note_on,160,0,8,,,,,,,,4,,,,42,77
71520,note_on,160,0,1,,,,,,,,10,,,,69,80
71520,note_on,160,0,10,,,,,,,,6,,,,69,65
71520,note_on,160,0,12,,,,,,,,8,,,,42,65
71520,note_on,160,0,11,,,,,,,,7,,,,54,65
71520,note_on,160,0,9,,,,,,,,5,,,,76,66
71520,note_on,160,0,2,,,,,,,,10,,,,54,65
71600,note_off,80,0,6,,,,,,,,2,,,,69,64
71600,note_off,80,0,5,,,,,,,,1,,,,76,64
71600,note_off,80,0,11,,,,,,,,7,,,,54,64
71600,note_off,80,0,1,,,,,,,,10,,,,69,64
71600,note_off,80,0,10,,,,,,,,6,,,,69,64
71600,note_off,80,0,2,,,,,,,,10,,,,54,64
71600,note_off,80,0,9,,,,,,,,5,,,,76,64
71600,note_off,80,0,8,,,,,,,,4,,,,42,64
71600,note_off,80,0,12,,,,,,,,8,,,,42,64
71600,note_off,80,0,7,,,,,,,,3,,,,54,64
71755,note_off,235,0,13,,,,,,,,11,,,,42,64
71760,note_on,160,0,7,,,,,,,,3,,,,55,69
71760,note_on,5,0,13,,,,,,,,11,,,,43,60
71760,note_on,160,0,9,,,,,,,,5,,,,74,61
71760,note_on,160,0,12,,,,,,,,8,,,,43,60
71760,note_on,160,0,1,,,,,,,,10,,,,71,73
71760,note_on,160,0,10,,,,,,,,6,,,,71,60
71760,note_on,160,0,5,,,,,,,,1,,,,74,84
71760,note_on,160,0,8,,,,,,,,4,,,,43,69
71760,note_on,160,0,2,,,,,,,,10,,,,55,60
71760,note_on,160,0,6,,,,,,,,2,,,,71,69
71760,note_on,160,0,11,,,,,,,,7,,,,55,60
71840,note_off,80,0,1,,,,,,,,10,,,,71,64
71840,note_off,80,0,11,,,,,,,,7,,,,55,64
71840,note_off,80,0,6,,,,,,,,2,,,,71,64
71840,note_off,80,0,5,,,,,,,,1,,,,74,64
71840,note_off,80,0,8,,,,,,,,4,,,,43,64
71840,note_off,80,0,10,,,,,,,,6,,,,71,64
71840,note_off,80,0,12,,,,,,,,8,,,,43,64
71840,note_off,80,0,9,,,,,,,,5,,,,74,64
71840,note_off,80,0,2,,,,,,,,10,,,,55,64
71840,note_off,80,0,7,,,,,,,,3,,,,55,64
71880,note_on,40,0,6,,,,,,,,2,,,,69,65
71880,note_on,40,0,12,,,,,,,,8,,,,41,58
71880,note_on,40,0,2,,,,,,,,10,,,,53,58
71880,note_on,40,0,1,,,,,,,,10,,,,69,70
71880,note_on,40,0,7,,,,,,,,3,,,,53,65
71880,note_on,40,0,10,,,,,,,,6,,,,69,58
71880,note_on,40,0,8,,,,,,,,4,,,,41,65
71880,note_on,40,0,11,,,,,,,,7,,,,53,58
71960,note_off,80,0,2,,,,,,,,10,,,,53,64
71960,note_off,80,0,6,,,,,,,,2,,,,69,64
71960,note_off,80,0,10,,,,,,,,6,,,,69,64
71960,note_off,80,0,12,,,,,,,,8,,,,41,64
71960,note_off,80,0,8,,,,,,,,4,,,,41,64
71960,note_off,80,0,11,,,,,,,,7,,,,53,64
71960,note_off,80,0,1,,,,,,,,10,,,,69,64
71960,note_off,80,0,7,,,,,,,,3,,,,53,64
72000,note_on,40,0,8,,,,,,,,4,,,,40,61
72000,note_on,40,0,6,,,,,,,,2,,,,67,61
72000,note_on,160,0,9,,,,,,,,5,,,,74,56
72000,note_on,40,0,12,,,,,,,,8,,,,40,56
72000,note_on,40,0,10,,,,,,,,6,,,,67,56
72000,note_on,40,0,11,,,,,,,,7,,,,52,56
72000,note_on,40,0,2,,,,,,,,10,,,,52,56
72000,note_on,40,0,7,,,,,,,,3,,,,52,61
72000,note_on,40,0,1,,,,,,,,10,,,,67,67
72000,note_on,160,0,5,,,,,,,,1,,,,74,76
72080,note_off,80,0,11,,,,,,,,7,,,,52,64
72080,note_off,80,0,1,,,,,,,,10,,,,67,64
72080,note_off,80,0,10,,,,,,,,6,,,,67,64
72080,note_off,80,0,8,,,,,,,,4,,,,40,64
72080,note_off,80,0,9,,,,,,,,5,,,,74,64
72080,note_off,80,0,7,,,,,,,,3,,,,52,64
72080,note_off,80,0,6,,,,,,,,2,,,,67,64
72080,note_off,80,0,5,,,,,,,,1,,,,74,64
72080,note_off,80,0,12,,,,,,,,8,,,,40,64
72080,note_off,80,0,2,,,,,,,,10,,,,52,64
72120,note_on,40,0,8,,,,,,,,4,,,,38,57
72120,note_on,40,0,10,,,,,,,,6,,,,65,54
72120,note_on,40,0,1,,,,,,,,10,,,,65,64
72120,note_on,40,0,12,,,,,,,,8,,,,38,54
72120,note_on,40,0,2,,,,,,,,10,,,,50,54
72120,note_on,40,0,6,,,,,,,,2,,,,65,57
72120,note_on,40,0,11,,,,,,,,7,,,,50,54
72120,note_on,40,0,7,,,,,,,,3,,,,50,57
72160,note_off,400,0,13,,,,,,,,11,,,,43,64
72200,note_off,80,0,11,,,,,,,,7,,,,50,64
72200,note_off,80,0,1,,,,,,,,10,,,,65,64
72200,note_off,80,0,8,,,,,,,,4,,,,38,64
72200,note_off,80,0,2,,,,,,,,10,,,,50,64
72200,note_off,80,0,7,,,,,,,,3,,,,50,64
72200,note_off,80,0,12,,,,,,,,8,,,,38,64
72200,note_off,80,0,6,,,,,,,,2,,,,65,64
72200,note_off,80,0,10,,,,,,,,6,,,,65,64
72240,note_on,40,0,11,,,,,,,,7,,,,48,51
72240,note_on,40,0,6,,,,,,,,2,,,,64,53
72240,note_on,40,0,7,,,,,,,,3,,,,48,53
72240,note_on,160,0,9,,,,,,,,5,,,,74,51
72240,note_on,160,0,5,,,,,,,,1,,,,74,68
72240,note_on,40,0,12,,,,,,,,8,,,,36,51
72240,note_on,40,0,2,,,,,,,,10,,,,48,51
72240,note_on,40,0,1,,,,,,,,10,,,,64,61
72240,note_on,40,0,8,,,,,,,,4,,,,36,53
72240,note_on,40,0,10,,,,,,,,6,,,,64,51
72320,note_off,80,0,8,,,,,,,,4,,,,36,64
72320,note_off,80,0,12,,,,,,,,8,,,,36,64
72320,note_off,80,0,7,,,,,,,,3,,,,48,64
72320,note_off,80,0,5,,,,,,,,1,,,,74,64
72320,note_off,80,0,2,,,,,,,,10,,,,48,64
72320,note_off,80,0,6,,,,,,,,2,,,,64,64
72320,note_off,80,0,10,,,,,,,,6,,,,64,64
72320,note_off,80,0,1,,,,,,,,10,,,,64,64
72320,note_off,80,0,9,,,,,,,,5,,,,74,64
72320,note_off,80,0,11,,,,,,,,7,,,,48,64
72360,note_on,40,0,10,,,,,,,,6,,,,62,48
72360,note_on,40,0,12,,,,,,,,8,,,,34,48
72360,note_on,40,0,6,,,,,,,,2,,,,62,49
72360,note_on,40,0,8,,,,,,,,4,,,,35,49
72360,note_on,40,0,7,,,,,,,,3,,,,47,49
72360,note_on,40,0,1,,,,,,,,10,,,,62,57
72360,note_on,40,0,11,,,,,,,,7,,,,46,48
72360,note_on,40,0,2,,,,,,,,10,,,,46,48
72440,note_off,80,0,12,,,,,,,,8,,,,34,64
72440,note_off,80,0,7,,,,,,,,3,,,,47,64
72440,note_off,80,0,10,,,,,,,,6,,,,62,64
72440,note_off,80,0,8,,,,,,,,4,,,,35,64
72440,note_off,80,0,1,,,,,,,,10,,,,62,64
72440,note_off,80,0,6,,,,,,,,2,,,,62,64
72440,note_off,80,0,11,,,,,,,,7,,,,46,64
72440,note_off,80,0,2,,,,,,,,10,,,,46,64
72480,note_on,40,0,2,,,,,,,,10,,,,48,45
72480,note_on,40,0,12,,,,,,,,8,,,,36,45
72480,note_on,40,0,10,,,,,,,,6,,,,64,45
72480,note_on,40,0,11,,,,,,,,7,,,,48,45
72480,note_on,160,0,5,,,,,,,,1,,,,72,60
72480,note_on,40,0,6,,,,,,,,2,,,,64,45
72480,note_on,320,0,13,,,,,,,,11,,,,36,45
72480,note_on,40,0,8,,,,,,,,4,,,,36,45
72480,note_on,160,0,9,,,,,,,,5,,,,72,45
72480,note_on,40,0,7,,,,,,,,3,,,,48,45
72655,note_off,175,0,5,,,,,,,,1,,,,72,64
72655,note_off,175,0,9,,,,,,,,5,,,,72,64
72660,note_on,5,0,5,,,,,,,,1,,,,79,60
72660,note_on,5,0,9,,,,,,,,5,,,,79,45
72700,note_off,40,0,9,,,,,,,,5,,,,79,64
72700,note_off,40,0,5,,,,,,,,1,,,,79,64
72715,note_off,235,0,2,,,,,,,,10,,,,48,64
72715,note_off,235,0,10,,,,,,,,6,,,,64,64
72715,note_off,235,0,7,,,,,,,,3,,,,48,64
72715,note_off,235,0,12,,,,,,,,8,,,,36,64
72715,note_off,235,0,11,,,,,,,,7,,,,48,64
72715,note_off,235,0,8,,,,,,,,4,,,,36,64
72715,note_off,235,0,6,,,,,,,,2,,,,64,64
72720,note_on,5,0,8,,,,,,,,4,,,,48,45
72720,note_on,5,0,2,,,,,,,,10,,,,60,45
72720,note_on,5,0,10,,,,,,,,6,,,,67,45
72720,note_on,20,0,5,,,,,,,,1,,,,72,60
72720,note_on,5,0,11,,,,,,,,7,,,,60,45
72720,note_on,280,0,1,,,,,,,,10,,,,64,45
72720,note_on,5,0,6,,,,,,,,2,,,,67,45
72720,note_on,5,0,7,,,,,,,,3,,,,60,45
72720,note_on,5,0,12,,,,,,,,8,,,,48,45
72720,note_on,20,0,9,,,,,,,,5,,,,72,45
72800,note_off,80,0,10,,,,,,,,6,,,,67,64
72800,note_off,80,0,7,,,,,,,,3,,,,60,64
72800,note_off,80,0,2,,,,,,,,10,,,,60,64
72800,note_off,80,0,12,,,,,,,,8,,,,48,64
72800,note_off,80,0,8,,,,,,,,4,,,,48,64
72800,note_off,80,0,5,,,,,,,,1,,,,72,64
72800,note_off,80,0,11,,,,,,,,7,,,,60,64
72800,note_off,80,0,6,,,,,,,,2,,,,67,64
72800,note_off,80,0,9,,,,,,,,5,,,,72,64
72840,note_off,120,0,1,,,,,,,,10,,,,64,64
72840,note_on,0,0,1,,,,,,,,10,,,,67,45
72880,note_off,400,0,13,,,,,,,,11,,,,36,64
72960,note_on,160,0,12,,,,,,,,8,,,,48,45
72960,note_on,160,0,2,,,,,,,,10,,,,60,45
72960,note_on,160,0,8,,,,,,,,4,,,,48,45
72960,note_on,160,0,5,,,,,,,,1,,,,72,60
72960,note_on,160,0,7,,,,,,,,3,,,,60,45
72960,note_on,0,0,1,,,,,,,,10,,,,64,45
72960,note_on,160,0,9,,,,,,,,5,,,,72,45
72960,note_on,160,0,6,,,,,,,,2,,,,64,45
72960,note_on,160,0,10,,,,,,,,6,,,,64,45
72960,note_off,120,0,1,,,,,,,,10,,,,67,64
72960,note_on,160,0,11,,,,,,,,7,,,,60,45
73040,note_off,80,0,8,,,,,,,,4,,,,48,64
73040,note_off,80,0,9,,,,,,,,5,,,,72,64
73040,note_off,80,0,6,,,,,,,,2,,,,64,64
73040,note_off,80,0,5,,,,,,,,1,,,,72,64
73040,note_off,80,0,10,,,,,,,,6,,,,64,64
73040,note_off,80,0,2,,,,,,,,10,,,,60,64
73040,note_off,80,0,7,,,,,,,,3,,,,60,64
73040,note_off,80,0,11,,,,,,,,7,,,,60,64
73040,note_off,80,0,12,,,,,,,,8,,,,48,64
73080,note_on,0,0,1,,,,,,,,10,,,,67,45
73080,note_off,120,0,1,,,,,,,,10,,,,64,64
73200,note_on,160,0,12,,,,,,,,8,,,,36,45
73200,note_on,160,0,2,,,,,,,,10,,,,48,45
73200,note_on,160,0,5,,,,,,,,1,,,,72,60
73200,note_on,160,0,10,,,,,,,,6,,,,64,45
73200,note_on,160,0,8,,,,,,,,4,,,,36,45
73200,note_on,160,0,7,,,,,,,,3,,,,48,45
73200,note_on,160,0,9,,,,,,,,5,,,,72,45
73200,note_on,160,0,6,,,,,,,,2,,,,64,45
73200,note_on,320,0,13,,,,,,,,11,,,,36,45
73200,note_off,120,0,1,,,,,,,,10,,,,67,64
73200,note_on,160,0,11,,,,,,,,7,,,,48,45
73375,note_off,175,0,5,,,,,,,,1,,,,72,64
73375,note_off,175,0,9,,,,,,,,5,,,,72,64
73380,note_on,5,0,5,,,,,,,,1,,,,79,60
73380,note_on,5,0,9,,,,,,,,5,,,,79,45
73420,note_off,40,0,5,,,,,,,,1,,,,79,64
73420,note_off,40,0,9,,,,,,,,5,,,,79,64
73435,note_off,235,0,6,,,,,,,,2,,,,64,64
73435,note_off,235,0,10,,,,,,,,6,,,,64,64
73435,note_off,235,0,7,,,,,,,,3,,,,48,64
73435,note_off,235,0,8,,,,,,,,4,,,,36,64
73435,note_off,235,0,2,,,,,,,,10,,,,48,64
73435,note_off,235,0,12,,,,,,,,8,,,,36,64
73435,note_off,235,0,11,,,,,,,,7,,,,48,64
73440,note_on,20,0,5,,,,,,,,1,,,,72,60
73440,note_on,5,0,7,,,,,,,,3,,,,60,45
73440,note_on,5,0,8,,,,,,,,4,,,,48,45
73440,note_on,5,0,2,,,,,,,,10,,,,60,45
73440,note_on,240,0,1,,,,,,,,10,,,,64,45
73440,note_on,5,0,12,,,,,,,,8,,,,48,45
73440,note_on,20,0,9,,,,,,,,5,,,,72,45
73440,note_on,5,0,6,,,,,,,,2,,,,67,45
73440,note_on,5,0,10,,,,,,,,6,,,,67,45
73440,note_on,5,0,11,,,,,,,,7,,,,60,45
73520,note_off,80,0,11,,,,,,,,7,,,,60,64
73520,note_off,80,0,10,,,,,,,,6,,,,67,64
73520,note_off,80,0,5,,,,,,,,1,,,,72,64
73520,note_off,80,0,6,,,,,,,,2,,,,67,64
73520,note_off,80,0,7,,,,,,,,3,,,,60,64
73520,note_off,80,0,2,,,,,,,,10,,,,60,64
73520,note_off,80,0,12,,,,,,,,8,,,,48,64
73520,note_off,80,0,9,,,,,,,,5,,,,72,64
73520,note_off,80,0,8,,,,,,,,4,,,,48,64
73560,note_off,120,0,1,,,,,,,,10,,,,64,64
73560,note_on,0,0,1,,,,,,,,10,,,,67,45
73600,note_off,400,0,13,,,,,,,,11,,,,36,64
73680,note_on,160,0,2,,,,,,,,10,,,,60,45
73680,note_on,160,0,12,,,,,,,,8,,,,48,45
73680,note_on,160,0,10,,,,,,,,6,,,,64,45
73680,note_on,160,0,8,,,,,,,,4,,,,48,45
73680,note_on,160,0,11,,,,,,,,7,,,,60,45
73680,note_on,160,0,7,,,,,,,,3,,,,60,45
73680,note_on,160,0,5,,,,,,,,1,,,,72,60
73680,note_on,160,0,9,,,,,,,,5,,,,72,45
73680,note_off,120,0,1,,,,,,,,10,,,,67,64
73680,note_on,160,0,6,,,,,,,,2,,,,64,45
73680,note_on,0,0,1,,,,,,,,10,,,,64,45
73760,note_off,80,0,11,,,,,,,,7,,,,60,64
73760,note_off,80,0,6,,,,,,,,2,,,,64,64
73760,note_off,80,0,9,,,,,,,,5,,,,72,64
73760,note_off,80,0,2,,,,,,,,10,,,,60,64
73760,note_off,80,0,7,,,,,,,,3,,,,60,64
73760,note_off,80,0,8,,,,,,,,4,,,,48,64
73760,note_off,80,0,5,,,,,,,,1,,,,72,64
73760,note_off,80,0,12,,,,,,,,8,,,,48,64
73760,note_off,80,0,10,,,,,,,,6,,,,64,64
73800,note_on,0,0,1,,,,,,,,10,,,,67,45
73800,note_off,120,0,1,,,,,,,,10,,,,64,64
73920,note_on,160,0,9,,,,,,,,5,,,,72,45
73920,note_on,320,0,13,,,,,,,,11,,,,36,45
73920,note_on,160,0,11,,,,,,,,7,,,,48,45
73920,note_on,160,0,5,,,,,,,,1,,,,72,60
73920,note_on,160,0,12,,,,,,,,8,,,,36,45
73920,note_on,160,0,8,,,,,,,,4,,,,36,45
73920,note_on,160,0,2,,,,,,,,10,,,,48,45
73920,note_on,160,0,10,,,,,,,,6,,,,64,45
73920,note_off,120,0,1,,,,,,,,10,,,,67,64
73920,note_on,160,0,7,,,,,,,,3,,,,48,45
73920,note_on,160,0,6,,,,,,,,2,,,,64,45
74095,note_off,175,0,8,,,,,,,,4,,,,36,64
74095,note_off,175,0,2,,,,,,,,10,,,,48,64
74095,note_off,175,0,12,,,,,,,,8,,,,36,64
74095,note_off,175,0,9,,,,,,,,5,,,,72,64
74095,note_off,175,0,7,,,,,,,,3,,,,48,64
74095,note_off,175,0,11,,,,,,,,7,,,,48,64
74095,note_off,175,0,5,,,,,,,,1,,,,72,64
74100,note_on,5,0,8,,,,,,,,4,,,,48,45
74100,note_on,5,0,11,,,,,,,,7,,,,60,45
74100,note_on,5,0,5,,,,,,,,1,,,,76,60
74100,note_on,5,0,12,,,,,,,,8,,,,48,45
74100,note_on,5,0,2,,,,,,,,10,,,,60,45
74100,note_on,5,0,7,,,,,,,,3,,,,60,45
74100,note_on,5,0,9,,,,,,,,5,,,,76,45
74140,note_off,40,0,9,,,,,,,,5,,,,76,64
74140,note_off,40,0,5,,,,,,,,1,,,,76,64
74140,note_off,40,0,7,,,,,,,,3,,,,60,64
74140,note_off,40,0,2,,,,,,,,10,,,,60,64
74140,note_off,40,0,11,,,,,,,,7,,,,60,64
74140,note_off,40,0,8,,,,,,,,4,,,,48,64
74140,note_off,40,0,12,,,,,,,,8,,,,48,64
74155,note_off,235,0,13,,,,,,,,11,,,,36,64
74155,note_off,235,0,10,,,,,,,,6,,,,64,64
74155,note_off,235,0,6,,,,,,,,2,,,,64,64
74160,note_on,20,0,5,,,,,,,,1,,,,77,60
74160,note_on,240,0,1,,,,,,,,10,,,,69,45
74160,note_on,20,0,11,,,,,,,,7,,,,53,45
74160,note_on,5,0,10,,,,,,,,6,,,,69,45
74160,note_on,5,0,6,,,,,,,,2,,,,69,45
74160,note_on,20,0,7,,,,,,,,3,,,,53,45
74160,note_on,5,0,13,,,,,,,,11,,,,41,45
74160,note_on,20,0,9,,,,,,,,5,,,,77,45
74160,note_on,20,0,12,,,,,,,,8,,,,41,45
74160,note_on,20,0,2,,,,,,,,10,,,,53,45
74160,note_on,20,0,8,,,,,,,,4,,,,41,45
74240,note_off,80,0,7,,,,,,,,3,,,,53,64
74240,note_off,80,0,10,,,,,,,,6,,,,69,64
74240,note_off,80,0,6,,,,,,,,2,,,,69,64
74240,note_off,80,0,5,,,,,,,,1,,,,77,64
74240,note_off,80,0,2,,,,,,,,10,,,,53,64
74240,note_off,80,0,1,,,,,,,,10,,,,69,64
74240,note_off,80,0,8,,,,,,,,4,,,,41,64
74240,note_off,80,0,11,,,,,,,,7,,,,53,64
74240,note_off,80,0,12,,,,,,,,8,,,,41,64
74240,note_off,80,0,9,,,,,,,,5,,,,77,64
74395,note_off,235,0,13,,,,,,,,11,,,,41,64
74400,note_on,160,0,9,,,,,,,,5,,,,74,45
74400,note_on,160,0,11,,,,,,,,7,,,,55,45
74400,note_on,160,0,8,,,,,,,,4,,,,43,45
74400,note_on,160,0,1,,,,,,,,10,,,,67,45
74400,note_on,160,0,2,,,,,,,,10,,,,55,45
74400,note_on,160,0,5,,,,,,,,1,,,,74,60
74400,note_on,160,0,6,,,,,,,,2,,,,67,45
74400,note_on,5,0,13,,,,,,,,11,,,,43,45
74400,note_on,160,0,7,,,,,,,,3,,,,55,45
74400,note_on,160,0,10,,,,,,,,6,,,,67,45
74400,note_on,160,0,12,,,,,,,,8,,,,43,45
74480,note_off,80,0,10,,,,,,,,6,,,,67,64
74480,note_off,80,0,11,,,,,,,,7,,,,55,64
74480,note_off,80,0,5,,,,,,,,1,,,,74,64
74480,note_off,80,0,6,,,,,,,,2,,,,67,64
74480,note_off,80,0,2,,,,,,,,10,,,,55,64
74480,note_off,80,0,8,,,,,,,,4,,,,43,64
74480,note_off,80,0,9,,,,,,,,5,,,,74,64
74480,note_off,80,0,12,,,,,,,,8,,,,43,64
74480,note_off,80,0,1,,,,,,,,10,,,,67,64
74480,note_off,80,0,7,,,,,,,,3,,,,55,64
74635,note_off,235,0,13,,,,,,,,11,,,,43,64
74640,note_on,160,0,5,,,,,,,,1,,,,67,45
74640,note_on,0,0,5,,,,,,,,1,,,,72,45
74640,note_on,160,0,6,,,,,,,,2,,,,64,45
74640,set_tempo,5040,1,0,937500,,,,,,,,,,,,
74640,note_on,160,0,11,,,,,,,,7,,,,48,45
74640,note_on,0,0,9,,,,,,,,5,,,,76,45
74640,note_on,160,0,9,,,,,,,,5,,,,72,45
74640,note_on,160,0,1,,,,,,,,10,,,,72,45
74640,note_on,5,0,13,,,,,,,,11,,,,36,45
74640,note_on,160,0,2,,,,,,,,10,,,,48,45
74640,note_on,160,0,10,,,,,,,,6,,,,64,45
74640,note_on,160,0,8,,,,,,,,4,,,,36,45
74640,note_on,160,0,12,,,,,,,,8,,,,36,45
74640,note_on,5260,0,4,,,,,,,,12,,,,72,45
74640,note_on,5260,0,3,,,,,,,,0,,,,72,60
74640,note_on,160,0,7,,,,,,,,3,,,,48,45
74720,note_off,80,0,3,,,,,,,,0,,,,72,64
74720,note_on,0,0,3,,,,,,,,0,,,,67,60
74720,note_off,80,0,4,,,,,,,,12,,,,72,64
74720,note_on,0,0,4,,,,,,,,12,,,,67,45
74772,note_off,52,0,3,,,,,,,,0,,,,67,64
74772,note_off,52,0,4,,,,,,,,12,,,,67,64
74800,note_on,28,0,3,,,,,,,,0,,,,72,60
74800,note_on,28,0,4,,,,,,,,12,,,,72,45
74852,note_off,52,0,4,,,,,,,,12,,,,72,64
74852,note_off,52,0,3,,,,,,,,0,,,,72,64
74880,note_on,28,0,4,,,,,,,,12,,,,67,45
74880,note_on,28,0,3,,,,,,,,0,,,,67,60
74960,note_on,0,0,4,,,,,,,,12,,,,64,45
74960,note_off,80,0,4,,,,,,,,12,,,,67,64
74960,note_off,80,0,3,,,,,,,,0,,,,67,64
74960,note_on,0,0,3,,,,,,,,0,,,,64,60
75012,note_off,52,0,4,,,,,,,,12,,,,64,64
75012,note_off,52,0,3,,,,,,,,0,,,,64,64
75040,note_off,400,0,5,,,,,,,,1,,,,72,64
75040,note_off,0,0,9,,,,,,,,5,,,,72,64
75040,note_off,400,0,9,,,,,,,,5,,,,76,64
75040,note_off,400,0,2,,,,,,,,10,,,,48,64
75040,note_off,0,0,5,,,,,,,,1,,,,67,64
75040,note_on,28,0,3,,,,,,,,0,,,,67,60
75040,note_off,400,0,6,,,,,,,,2,,,,64,64
75040,note_off,400,0,10,,,,,,,,6,,,,64,64
75040,note_off,400,0,13,,,,,,,,11,,,,36,64
75040,note_on,28,0,4,,,,,,,,12,,,,67,45
75040,note_off,400,0,1,,,,,,,,10,,,,72,64
75040,note_off,400,0,12,,,,,,,,8,,,,36,64
75040,note_off,400,0,11,,,,,,,,7,,,,48,64
75040,note_off,400,0,8,,,,,,,,4,,,,36,64
75040,note_off,400,0,7,,,,,,,,3,,,,48,64
75092,note_off,52,0,4,,,,,,,,12,,,,67,64
75092,note_off,52,0,3,,,,,,,,0,,,,67,64
75120,note_on,28,0,3,,,,,,,,0,,,,72,60
75120,note_on,28,0,4,,,,,,,,12,,,,72,45
75200,note_off,80,0,3,,,,,,,,0,,,,72,64
75200,note_on,0,0,4,,,,,,,,12,,,,67,45
75200,note_off,80,0,4,,,,,,,,12,,,,72,64
75200,note_on,0,0,3,,,,,,,,0,,,,67,60
75252,note_off,52,0,4,,,,,,,,12,,,,67,64
75252,note_off,52,0,3,,,,,,,,0,,,,67,64
75280,note_on,28,0,3,,,,,,,,0,,,,72,60
75280,note_on,28,0,4,,,,,,,,12,,,,72,45
75332,note_off,52,0,3,,,,,,,,0,,,,72,64
75332,note_off,52,0,4,,,,,,,,12,,,,72,64
75360,note_on,28,0,3,,,,,,,,0,,,,76,60
75360,note_on,28,0,4,,,,,,,,12,,,,76,45
75440,note_off,80,0,3,,,,,,,,0,,,,76,64
75440,note_off,80,0,4,,,,,,,,12,,,,76,64
75440,note_on,0,0,4,,,,,,,,12,,,,72,45
75440,note_on,0,0,3,,,,,,,,0,,,,72,60
75492,note_off,52,0,3,,,,,,,,0,,,,72,64
75492,note_off,52,0,4,,,,,,,,12,,,,72,64
75520,note_on,28,0,3,,,,,,,,0,,,,76,60
75520,note_on,28,0,4,,,,,,,,12,,,,76,45
75572,note_off,52,0,3,,,,,,,,0,,,,76,64
75572,note_off,52,0,4,,,,,,,,12,,,,76,64
75600,note_on,28,0,3,,,,,,,,0,,,,79,60
75600,note_on,28,0,4,,,,,,,,12,,,,79,45
75680,note_on,0,0,4,,,,,,,,12,,,,76,45
75680,note_off,80,0,4,,,,,,,,12,,,,79,64
75680,note_off,80,0,3,,,,,,,,0,,,,79,64
75680,note_on,0,0,3,,,,,,,,0,,,,76,60
75732,note_off,52,0,3,,,,,,,,0,,,,76,64
75732,note_off,52,0,4,,,,,,,,12,,,,76,64
75760,note_on,28,0,4,,,,,,,,12,,,,79,45
75760,note_on,28,0,3,,,,,,,,0,,,,79,60
75812,note_off,52,0,4,,,,,,,,12,,,,79,64
75812,note_off,52,0,3,,,,,,,,0,,,,79,64
75840,note_on,28,0,4,,,,,,,,12,,,,82,45
75840,note_on,28,0,3,,,,,,,,0,,,,82,60
75920,note_off,80,0,4,,,,,,,,12,,,,82,64
75920,note_off,80,0,3,,,,,,,,0,,,,82,64
75920,note_on,0,0,4,,,,,,,,12,,,,79,45
75920,note_on,0,0,3,,,,,,,,0,,,,79,60
75972,note_off,52,0,4,,,,,,,,12,,,,79,64
75972,note_off,52,0,3,,,,,,,,0,,,,79,64
76000,note_on,28,0,3,,,,,,,,0,,,,82,60
76000,note_on,28,0,4,,,,,,,,12,,,,82,45
76052,note_off,52,0,3,,,,,,,,0,,,,82,64
76052,note_off,52,0,4,,,,,,,,12,,,,82,64
76080,note_on,1040,0,11,,,,,,,,7,,,,53,45
76080,note_on,28,0,3,,,,,,,,0,,,,81,60
76080,note_on,1040,0,12,,,,,,,,8,,,,41,45
76080,note_on,1040,0,2,,,,,,,,10,,,,53,45
76080,note_on,1040,0,8,,,,,,,,4,,,,41,45
76080,note_on,1040,0,7,,,,,,,,3,,,,53,45
76080,note_on,28,0,4,,,,,,,,12,,,,81,45
76080,note_on,1040,0,13,,,,,,,,11,,,,41,45
76160,note_off,80,0,4,,,,,,,,12,,,,81,64
76160,note_on,0,0,4,,,,,,,,12,,,,77,45
76160,note_on,0,0,3,,,,,,,,0,,,,77,60
76160,note_off,80,0,3,,,,,,,,0,,,,81,64
76212,note_off,52,0,4,,,,,,,,12,,,,77,64
76212,note_off,52,0,3,,,,,,,,0,,,,77,64
76240,note_on,28,0,4,,,,,,,,12,,,,81,45
76240,note_on,28,0,3,,,,,,,,0,,,,81,60
76292,note_off,52,0,3,,,,,,,,0,,,,81,64
76292,note_off,52,0,4,,,,,,,,12,,,,81,64
76315,note_off,235,0,2,,,,,,,,10,,,,53,64
76315,note_off,235,0,11,,,,,,,,7,,,,53,64
76315,note_off,235,0,8,,,,,,,,4,,,,41,64
76315,note_off,235,0,12,,,,,,,,8,,,,41,64
76315,note_off,235,0,7,,,,,,,,3,,,,53,64
76320,note_on,28,0,3,,,,,,,,0,,,,77,60
76320,note_on,1280,0,6,,,,,,,,2,,,,65,45
76320,note_on,1280,0,1,,,,,,,,10,,,,65,45
76320,note_on,1280,0,10,,,,,,,,6,,,,65,45
76320,note_on,28,0,4,,,,,,,,12,,,,77,45
76400,note_on,0,0,3,,,,,,,,0,,,,72,60
76400,note_on,0,0,4,,,,,,,,12,,,,72,45
76400,note_off,80,0,4,,,,,,,,12,,,,77,64
76400,note_off,80,0,3,,,,,,,,0,,,,77,64
76452,note_off,52,0,3,,,,,,,,0,,,,72,64
76452,note_off,52,0,4,,,,,,,,12,,,,72,64
76480,note_on,28,0,3,,,,,,,,0,,,,77,60
76480,note_off,400,0,13,,,,,,,,11,,,,41,64
76480,note_on,28,0,4,,,,,,,,12,,,,77,45
76532,note_off,52,0,4,,,,,,,,12,,,,77,64
76532,note_off,52,0,3,,,,,,,,0,,,,77,64
76555,note_off,235,0,6,,,,,,,,2,,,,65,64
76555,note_off,235,0,1,,,,,,,,10,,,,65,64
76555,note_off,235,0,10,,,,,,,,6,,,,65,64
76560,note_on,28,0,4,,,,,,,,12,,,,72,45
76560,note_on,1520,0,5,,,,,,,,1,,,,65,45
76560,note_on,5,0,1,,,,,,,,10,,,,77,45
76560,note_on,1520,0,9,,,,,,,,5,,,,65,45
76560,note_on,28,0,3,,,,,,,,0,,,,72,60
76640,note_on,0,0,4,,,,,,,,12,,,,69,45
76640,note_on,0,0,3,,,,,,,,0,,,,69,60
76640,note_off,80,0,4,,,,,,,,12,,,,72,64
76640,note_off,80,0,3,,,,,,,,0,,,,72,64
76692,note_off,52,0,4,,,,,,,,12,,,,69,64
76692,note_off,52,0,3,,,,,,,,0,,,,69,64
76720,note_on,28,0,4,,,,,,,,12,,,,72,45
76720,note_on,28,0,3,,,,,,,,0,,,,72,60
76772,note_off,52,0,4,,,,,,,,12,,,,72,64
76772,note_off,52,0,3,,,,,,,,0,,,,72,64
76795,note_off,235,0,9,,,,,,,,5,,,,65,64
76795,note_off,235,0,5,,,,,,,,1,,,,65,64
76795,note_off,235,0,1,,,,,,,,10,,,,77,64
76800,note_on,28,0,4,,,,,,,,12,,,,69,45
76800,note_on,28,0,3,,,,,,,,0,,,,69,60
76880,note_on,0,0,4,,,,,,,,12,,,,65,45
76880,note_off,80,0,3,,,,,,,,0,,,,69,64
76880,note_on,0,0,3,,,,,,,,0,,,,65,60
76880,note_off,80,0,4,,,,,,,,12,,,,69,64
76932,note_off,52,0,3,,,,,,,,0,,,,65,64
76932,note_off,52,0,4,,,,,,,,12,,,,65,64
76960,note_on,28,0,4,,,,,,,,12,,,,69,45
76960,note_on,28,0,3,,,,,,,,0,,,,69,60
77012,note_off,52,0,3,,,,,,,,0,,,,69,64
77012,note_off,52,0,4,,,,,,,,12,,,,69,64
77040,note_on,28,0,4,,,,,,,,12,,,,72,45
77040,note_on,28,0,3,,,,,,,,0,,,,72,60
77120,note_off,80,0,4,,,,,,,,12,,,,72,64
77120,note_off,80,0,3,,,,,,,,0,,,,72,64
77120,note_on,0,0,3,,,,,,,,0,,,,69,60
77120,note_on,0,0,4,,,,,,,,12,,,,69,45
77172,note_off,52,0,4,,,,,,,,12,,,,69,64
77172,note_off,52,0,3,,,,,,,,0,,,,69,64
77200,note_on,28,0,4,,,,,,,,12,,,,72,45
77200,note_on,28,0,3,,,,,,,,0,,,,72,60
77252,note_off,52,0,4,,,,,,,,12,,,,72,64
77252,note_off,52,0,3,,,,,,,,0,,,,72,64
77280,note_on,28,0,4,,,,,,,,12,,,,75,45
77280,note_on,28,0,3,,,,,,,,0,,,,75,60
77360,note_on,0,0,4,,,,,,,,12,,,,72,45
77360,note_on,0,0,3,,,,,,,,0,,,,72,60
77360,note_off,80,0,4,,,,,,,,12,,,,75,64
77360,note_off,80,0,3,,,,,,,,0,,,,75,64
77412,note_off,52,0,4,,,,,,,,12,,,,72,64
77412,note_off,52,0,3,,,,,,,,0,,,,72,64
77440,note_on,28,0,4,,,,,,,,12,,,,75,45
77440,note_on,28,0,3,,,,,,,,0,,,,75,60
77492,note_off,52,0,3,,,,,,,,0,,,,75,64
77492,note_off,52,0,4,,,,,,,,12,,,,75,64
77520,note_on,28,0,4,,,,,,,,12,,,,74,45
77520,note_on,1040,0,13,,,,,,,,11,,,,34,45
77520,note_on,28,0,3,,,,,,,,0,,,,74,60
77520,note_on,1205,0,12,,,,,,,,8,,,,34,45
77520,note_on,1205,0,8,,,,,,,,4,,,,34,45
77520,note_on,1205,0,7,,,,,,,,3,,,,46,45
77520,note_on,1205,0,2,,,,,,,,10,,,,46,45
77520,note_on,1205,0,11,,,,,,,,7,,,,46,45
77600,note_on,0,0,4,,,,,,,,12,,,,70,45
77600,note_off,80,0,4,,,,,,,,12,,,,74,64
77600,note_off,80,0,3,,,,,,,,0,,,,74,64
77600,note_on,0,0,3,,,,,,,,0,,,,70,60
77652,note_off,52,0,3,,,,,,,,0,,,,70,64
77652,note_off,52,0,4,,,,,,,,12,,,,70,64
77680,note_on,28,0,4,,,,,,,,12,,,,74,45
77680,note_on,28,0,3,,,,,,,,0,,,,74,60
77732,note_off,52,0,4,,,,,,,,12,,,,74,64
77732,note_off,52,0,3,,,,,,,,0,,,,74,64
77755,note_off,235,0,12,,,,,,,,8,,,,34,64
77755,note_off,235,0,2,,,,,,,,10,,,,46,64
77755,note_off,235,0,8,,,,,,,,4,,,,34,64
77755,note_off,235,0,11,,,,,,,,7,,,,46,64
77755,note_off,235,0,7,,,,,,,,3,,,,46,64
77760,note_on,1205,0,10,,,,,,,,6,,,,58,50
77760,note_on,28,0,3,,,,,,,,0,,,,77,60
77760,note_on,28,0,4,,,,,,,,12,,,,77,45
77760,note_on,965,0,1,,,,,,,,10,,,,58,50
77760,note_on,1205,0,6,,,,,,,,2,,,,58,52
77840,note_on,0,0,4,,,,,,,,12,,,,74,46
77840,note_off,80,0,4,,,,,,,,12,,,,77,64
77840,note_off,80,0,3,,,,,,,,0,,,,77,64
77840,note_on,0,0,3,,,,,,,,0,,,,74,61
77892,note_off,52,0,3,,,,,,,,0,,,,74,64
77892,note_off,52,0,4,,,,,,,,12,,,,74,64
77920,note_on,28,0,4,,,,,,,,12,,,,77,47
77920,note_off,400,0,13,,,,,,,,11,,,,34,64
77920,note_on,28,0,3,,,,,,,,0,,,,77,62
77972,note_off,52,0,3,,,,,,,,0,,,,77,64
77972,note_off,52,0,4,,,,,,,,12,,,,77,64
77995,note_off,235,0,10,,,,,,,,6,,,,58,64
77995,note_off,235,0,6,,,,,,,,2,,,,58,64
77995,note_off,235,0,1,,,,,,,,10,,,,58,64
78000,note_on,28,0,3,,,,,,,,0,,,,82,63
78000,note_on,1205,0,9,,,,,,,,5,,,,58,55
78000,note_on,28,0,4,,,,,,,,12,,,,82,48
78000,note_on,1205,0,5,,,,,,,,1,,,,58,60
78000,note_on,5,0,1,,,,,,,,10,,,,70,55
78080,note_on,0,0,4,,,,,,,,12,,,,77,49
78080,note_off,80,0,4,,,,,,,,12,,,,82,64
78080,note_on,0,0,3,,,,,,,,0,,,,77,64
78080,note_off,80,0,3,,,,,,,,0,,,,82,64
78132,note_off,52,0,4,,,,,,,,12,,,,77,64
78132,note_off,52,0,3,,,,,,,,0,,,,77,64
78160,note_on,28,0,4,,,,,,,,12,,,,82,50
78160,note_on,28,0,3,,,,,,,,0,,,,82,65
78212,note_off,52,0,4,,,,,,,,12,,,,82,64
78212,note_off,52,0,3,,,,,,,,0,,,,82,64
78235,note_off,235,0,1,,,,,,,,10,,,,70,64
78235,note_off,235,0,5,,,,,,,,1,,,,58,64
78235,note_off,235,0,9,,,,,,,,5,,,,58,64
78240,note_on,320,0,13,,,,,,,,11,,,,33,60
78240,note_on,28,0,4,,,,,,,,12,,,,73,51
78240,note_on,485,0,2,,,,,,,,10,,,,45,60
78240,note_on,485,0,7,,,,,,,,3,,,,45,68
78240,note_on,485,0,8,,,,,,,,4,,,,33,68
78240,note_on,485,0,11,,,,,,,,7,,,,45,60
78240,note_on,485,0,12,,,,,,,,8,,,,33,60
78240,note_on,28,0,3,,,,,,,,0,,,,73,66
78320,note_off,80,0,3,,,,,,,,0,,,,73,64
78320,note_on,0,0,4,,,,,,,,12,,,,69,52
78320,note_off,80,0,4,,,,,,,,12,,,,73,64
78320,note_on,0,0,3,,,,,,,,0,,,,69,67
78372,note_off,52,0,3,,,,,,,,0,,,,69,64
78372,note_off,52,0,4,,,,,,,,12,,,,69,64
78400,note_on,28,0,3,,,,,,,,0,,,,73,68
78400,note_on,28,0,4,,,,,,,,12,,,,73,53
78452,note_off,52,0,3,,,,,,,,0,,,,73,64
78452,note_off,52,0,4,,,,,,,,12,,,,73,64
78475,note_off,235,0,8,,,,,,,,4,,,,33,64
78475,note_off,235,0,2,,,,,,,,10,,,,45,64
78475,note_off,235,0,12,,,,,,,,8,,,,33,64
78475,note_off,235,0,7,,,,,,,,3,,,,45,64
78475,note_off,235,0,11,,,,,,,,7,,,,45,64
78480,note_on,28,0,3,,,,,,,,0,,,,76,69
78480,note_on,485,0,10,,,,,,,,6,,,,57,65
78480,note_on,245,0,1,,,,,,,,10,,,,57,65
78480,note_on,485,0,6,,,,,,,,2,,,,57,76
78480,note_on,28,0,4,,,,,,,,12,,,,76,54
78560,note_on,0,0,3,,,,,,,,0,,,,73,70
78560,note_off,80,0,3,,,,,,,,0,,,,76,64
78560,note_off,80,0,4,,,,,,,,12,,,,76,64
78560,note_on,0,0,4,,,,,,,,12,,,,73,55
78612,note_off,52,0,4,,,,,,,,12,,,,73,64
78612,note_off,52,0,3,,,,,,,,0,,,,73,64
78640,note_on,28,0,4,,,,,,,,12,,,,76,56
78640,note_on,28,0,3,,,,,,,,0,,,,76,71
78640,note_off,400,0,13,,,,,,,,11,,,,33,64
78692,note_off,52,0,3,,,,,,,,0,,,,76,64
78692,note_off,52,0,4,,,,,,,,12,,,,76,64
78715,note_off,235,0,1,,,,,,,,10,,,,57,64
78715,note_off,235,0,6,,,,,,,,2,,,,57,64
78715,note_off,235,0,10,,,,,,,,6,,,,57,64
78720,note_on,28,0,4,,,,,,,,12,,,,79,57
78720,note_on,28,0,3,,,,,,,,0,,,,79,72
78720,note_on,485,0,5,,,,,,,,1,,,,57,84
78720,note_on,5,0,1,,,,,,,,10,,,,69,70
78720,note_on,485,0,9,,,,,,,,5,,,,57,70
78800,note_on,0,0,3,,,,,,,,0,,,,76,73
78800,note_on,0,0,4,,,,,,,,12,,,,76,58
78800,note_off,80,0,4,,,,,,,,12,,,,79,64
78800,note_off,80,0,3,,,,,,,,0,,,,79,64
78852,note_off,52,0,4,,,,,,,,12,,,,76,64
78852,note_off,52,0,3,,,,,,,,0,,,,76,64
78880,note_on,28,0,3,,,,,,,,0,,,,79,74
78880,note_on,28,0,4,,,,,,,,12,,,,79,59
78932,note_off,52,0,4,,,,,,,,12,,,,79,64
78932,note_off,52,0,3,,,,,,,,0,,,,79,64
78955,note_off,235,0,9,,,,,,,,5,,,,57,64
78955,note_off,235,0,5,,,,,,,,1,,,,57,64
78955,note_off,235,0,1,,,,,,,,10,,,,69,64
78960,note_on,485,0,2,,,,,,,,10,,,,50,75
78960,note_on,28,0,3,,,,,,,,0,,,,77,75
78960,note_on,485,0,11,,,,,,,,7,,,,50,75
78960,note_on,320,0,13,,,,,,,,11,,,,38,75
78960,note_on,485,0,8,,,,,,,,4,,,,38,92
78960,note_on,485,0,7,,,,,,,,3,,,,50,92
78960,note_on,28,0,4,,,,,,,,12,,,,77,60
78960,note_on,485,0,12,,,,,,,,8,,,,38,75
79040,note_on,0,0,4,,,,,,,,12,,,,74,60
79040,note_off,80,0,4,,,,,,,,12,,,,77,64
79040,note_off,80,0,3,,,,,,,,0,,,,77,64
79040,note_on,0,0,3,,,,,,,,0,,,,74,75
79092,note_off,52,0,3,,,,,,,,0,,,,74,64
79092,note_off,52,0,4,,,,,,,,12,,,,74,64
79120,note_on,28,0,4,,,,,,,,12,,,,77,60
79120,note_on,28,0,3,,,,,,,,0,,,,77,75
79172,note_off,52,0,3,,,,,,,,0,,,,77,64
79172,note_off,52,0,4,,,,,,,,12,,,,77,64
79195,note_off,235,0,2,,,,,,,,10,,,,50,64
79195,note_off,235,0,8,,,,,,,,4,,,,38,64
79195,note_off,235,0,7,,,,,,,,3,,,,50,64
79195,note_off,235,0,12,,,,,,,,8,,,,38,64
79195,note_off,235,0,11,,,,,,,,7,,,,50,64
79200,note_on,485,0,6,,,,,,,,2,,,,62,92
79200,note_on,28,0,4,,,,,,,,12,,,,81,60
79200,note_on,245,0,1,,,,,,,,10,,,,62,75
79200,note_on,28,0,3,,,,,,,,0,,,,81,75
79200,note_on,485,0,10,,,,,,,,6,,,,62,75
79280,note_on,0,0,3,,,,,,,,0,,,,77,75
79280,note_off,80,0,3,,,,,,,,0,,,,81,64
79280,note_off,80,0,4,,,,,,,,12,,,,81,64
79280,note_on,0,0,4,,,,,,,,12,,,,77,60
79332,note_off,52,0,3,,,,,,,,0,,,,77,64
79332,note_off,52,0,4,,,,,,,,12,,,,77,64
79360,note_on,28,0,4,,,,,,,,12,,,,81,60
79360,note_off,400,0,13,,,,,,,,11,,,,38,64
79360,note_on,28,0,3,,,,,,,,0,,,,81,75
79412,note_off,52,0,4,,,,,,,,12,,,,81,64
79412,note_off,52,0,3,,,,,,,,0,,,,81,64
79435,note_off,235,0,6,,,,,,,,2,,,,62,64
79435,note_off,235,0,1,,,,,,,,10,,,,62,64
79435,note_off,235,0,10,,,,,,,,6,,,,62,64
79440,note_on,28,0,3,,,,,,,,0,,,,77,75
79440,note_on,485,0,9,,,,,,,,5,,,,62,75
79440,note_on,28,0,4,,,,,,,,12,,,,77,60
79440,note_on,5,0,1,,,,,,,,10,,,,74,75
79440,note_on,485,0,5,,,,,,,,1,,,,62,92
79520,note_off,80,0,3,,,,,,,,0,,,,77,64
79520,note_off,80,0,4,,,,,,,,12,,,,77,64
79520,note_on,0,0,4,,,,,,,,12,,,,74,60
79520,note_on,0,0,3,,,,,,,,0,,,,74,75
79572,note_off,52,0,3,,,,,,,,0,,,,74,64
79572,note_off,52,0,4,,,,,,,,12,,,,74,64
79600,note_on,28,0,4,,,,,,,,12,,,,77,60
79600,note_on,28,0,3,,,,,,,,0,,,,77,75
79652,note_off,52,0,3,,,,,,,,0,,,,77,64
79652,note_off,52,0,4,,,,,,,,12,,,,77,64
79675,note_off,235,0,1,,,,,,,,10,,,,74,64
79675,note_off,235,0,5,,,,,,,,1,,,,62,64
79675,note_off,235,0,9,,,,,,,,5,,,,62,64
79680,note_on,485,0,12,,,,,,,,8,,,,40,75
79680,note_on,28,0,4,,,,,,,,12,,,,68,60
79680,note_on,28,0,3,,,,,,,,0,,,,68,75
79680,note_on,485,0,2,,,,,,,,10,,,,52,75
79680,note_on,485,0,8,,,,,,,,4,,,,40,92
79680,note_on,485,0,11,,,,,,,,7,,,,52,75
79680,note_on,320,0,13,,,,,,,,11,,,,40,75
79680,note_on,485,0,7,,,,,,,,3,,,,52,92
79760,note_off,80,0,4,,,,,,,,12,,,,68,64
79760,note_off,80,0,3,,,,,,,,0,,,,68,64
79760,note_on,0,0,3,,,,,,,,0,,,,64,74
79760,note_on,0,0,4,,,,,,,,12,,,,64,59
79812,note_off,52,0,4,,,,,,,,12,,,,64,64
79812,note_off,52,0,3,,,,,,,,0,,,,64,64
79840,note_on,28,0,4,,,,,,,,12,,,,68,58
79840,note_on,28,0,3,,,,,,,,0,,,,68,73
79892,note_off,52,0,3,,,,,,,,0,,,,68,64
79892,note_off,52,0,4,,,,,,,,12,,,,68,64
79915,note_off,235,0,11,,,,,,,,7,,,,52,64
79915,note_off,235,0,8,,,,,,,,4,,,,40,64
79915,note_off,235,0,12,,,,,,,,8,,,,40,64
79915,note_off,235,0,2,,,,,,,,10,,,,52,64
79915,note_off,235,0,7,,,,,,,,3,,,,52,64
79920,note_on,28,0,4,,,,,,,,12,,,,71,57
79920,note_on,485,0,6,,,,,,,,2,,,,64,85
79920,note_on,485,0,10,,,,,,,,6,,,,64,70
79920,note_on,245,0,1,,,,,,,,10,,,,64,72
79920,note_on,28,0,3,,,,,,,,0,,,,71,72
80000,note_off,80,0,4,,,,,,,,12,,,,71,64
80000,note_on,0,0,3,,,,,,,,0,,,,68,71
80000,note_off,80,0,3,,,,,,,,0,,,,71,64
80000,note_on,0,0,4,,,,,,,,12,,,,68,56
80052,note_off,52,0,3,,,,,,,,0,,,,68,64
80052,note_off,52,0,4,,,,,,,,12,,,,68,64
80080,note_on,28,0,4,,,,,,,,12,,,,71,55
80080,note_on,28,0,3,,,,,,,,0,,,,71,70
80080,note_off,400,0,13,,,,,,,,11,,,,40,64
80132,note_off,52,0,4,,,,,,,,12,,,,71,64
80132,note_off,52,0,3,,,,,,,,0,,,,71,64
80155,note_off,235,0,6,,,,,,,,2,,,,64,64
80155,note_off,235,0,1,,,,,,,,10,,,,64,64
80155,note_off,235,0,10,,,,,,,,6,,,,64,64
80160,note_on,485,0,5,,,,,,,,1,,,,64,77
80160,note_on,5,0,1,,,,,,,,10,,,,76,69
80160,note_on,28,0,4,,,,,,,,12,,,,74,54
80160,note_on,28,0,3,,,,,,,,0,,,,74,69
80160,note_on,485,0,9,,,,,,,,5,,,,64,65
80240,note_on,0,0,4,,,,,,,,12,,,,71,52
80240,note_off,80,0,4,,,,,,,,12,,,,74,64
80240,note_on,0,0,3,,,,,,,,0,,,,71,67
80240,note_off,80,0,3,,,,,,,,0,,,,74,64
80292,note_off,52,0,4,,,,,,,,12,,,,71,64
80292,note_off,52,0,3,,,,,,,,0,,,,71,64
80320,note_on,28,0,4,,,,,,,,12,,,,74,50
80320,note_on,28,0,3,,,,,,,,0,,,,74,65
80372,note_off,52,0,4,,,,,,,,12,,,,74,64
80372,note_off,52,0,3,,,,,,,,0,,,,74,64
80395,note_off,235,0,9,,,,,,,,5,,,,64,64
80395,note_off,235,0,1,,,,,,,,10,,,,76,64
80395,note_off,235,0,5,,,,,,,,1,,,,64,64
80400,note_on,485,0,11,,,,,,,,7,,,,45,60
80400,note_on,485,0,2,,,,,,,,10,,,,45,60
80400,note_on,485,0,12,,,,,,,,8,,,,33,60
80400,note_on,485,0,8,,,,,,,,4,,,,33,69
80400,note_on,485,0,7,,,,,,,,3,,,,45,69
80400,note_on,28,0,4,,,,,,,,12,,,,72,48
80400,note_on,320,0,13,,,,,,,,11,,,,45,60
80400,note_on,28,0,3,,,,,,,,0,,,,72,63
80480,note_off,80,0,4,,,,,,,,12,,,,72,64
80480,note_on,0,0,4,,,,,,,,12,,,,69,46
80480,note_off,80,0,3,,,,,,,,0,,,,72,64
80480,note_on,0,0,3,,,,,,,,0,,,,69,61
80532,note_off,52,0,4,,,,,,,,12,,,,69,64
80532,note_off,52,0,3,,,,,,,,0,,,,69,64
80560,note_on,28,0,3,,,,,,,,0,,,,72,59
80560,note_on,28,0,4,,,,,,,,12,,,,72,44
80612,note_off,52,0,4,,,,,,,,12,,,,72,64
80612,note_off,52,0,3,,,,,,,,0,,,,72,64
80635,note_off,235,0,2,,,,,,,,10,,,,45,64
80635,note_off,235,0,7,,,,,,,,3,,,,45,64
80635,note_off,235,0,11,,,,,,,,7,,,,45,64
80635,note_off,235,0,8,,,,,,,,4,,,,33,64
80635,note_off,235,0,12,,,,,,,,8,,,,33,64
80640,note_on,28,0,3,,,,,,,,0,,,,75,57
80640,note_on,485,0,6,,,,,,,,2,,,,66,61
80640,note_on,245,0,1,,,,,,,,10,,,,66,61
80640,note_on,28,0,4,,,,,,,,12,,,,75,42
80640,note_on,485,0,10,,,,,,,,6,,,,66,55
80720,note_on,0,0,4,,,,,,,,12,,,,72,40
80720,note_off,80,0,4,,,,,,,,12,,,,75,64
80720,note_on,0,0,3,,,,,,,,0,,,,72,55
80720,note_off,80,0,3,,,,,,,,0,,,,75,64
80772,note_off,52,0,3,,,,,,,,0,,,,72,64
80772,note_off,52,0,4,,,,,,,,12,,,,72,64
80800,note_off,400,0,13,,,,,,,,11,,,,45,64
80800,note_on,28,0,3,,,,,,,,0,,,,75,53
80800,note_on,28,0,4,,,,,,,,12,,,,75,38
80852,note_off,52,0,4,,,,,,,,12,,,,75,64
80852,note_off,52,0,3,,,,,,,,0,,,,75,64
80875,note_off,235,0,6,,,,,,,,2,,,,66,64
80875,note_off,235,0,1,,,,,,,,10,,,,66,64
80875,note_off,235,0,10,,,,,,,,6,,,,66,64
80880,note_on,5,0,1,,,,,,,,10,,,,78,57
80880,note_on,485,0,5,,,,,,,,1,,,,66,53
80880,note_on,28,0,3,,,,,,,,0,,,,72,51
80880,note_on,485,0,9,,,,,,,,5,,,,66,50
80880,note_on,28,0,4,,,,,,,,12,,,,72,36
80960,note_off,80,0,3,,,,,,,,0,,,,72,64
80960,note_on,0,0,3,,,,,,,,0,,,,69,49
80960,note_on,0,0,4,,,,,,,,12,,,,69,34
80960,note_off,80,0,4,,,,,,,,12,,,,72,64
81012,note_off,52,0,3,,,,,,,,0,,,,69,64
81012,note_off,52,0,4,,,,,,,,12,,,,69,64
81040,note_on,28,0,3,,,,,,,,0,,,,72,47
81040,note_on,28,0,4,,,,,,,,12,,,,72,32
81092,note_off,52,0,4,,,,,,,,12,,,,72,64
81092,note_off,52,0,3,,,,,,,,0,,,,72,64
81115,note_off,235,0,1,,,,,,,,10,,,,78,64
81115,note_off,235,0,9,,,,,,,,5,,,,66,64
81115,note_off,235,0,5,,,,,,,,1,,,,66,64
81120,note_on,485,0,8,,,,,,,,4,,,,31,45
81120,note_on,320,0,13,,,,,,,,11,,,,43,45
81120,note_on,28,0,3,,,,,,,,0,,,,70,45
81120,note_on,485,0,12,,,,,,,,8,,,,31,45
81120,note_on,485,0,2,,,,,,,,10,,,,43,45
81120,note_on,485,0,7,,,,,,,,3,,,,43,45
81120,note_on,28,0,4,,,,,,,,12,,,,70,30
81120,note_on,485,0,11,,,,,,,,7,,,,43,45
81200,note_on,0,0,4,,,,,,,,12,,,,67,30
81200,note_off,80,0,4,,,,,,,,12,,,,70,64
81200,note_on,0,0,3,,,,,,,,0,,,,67,45
81200,note_off,80,0,3,,,,,,,,0,,,,70,64
81252,note_off,52,0,4,,,,,,,,12,,,,67,64
81252,note_off,52,0,3,,,,,,,,0,,,,67,64
81280,note_on,28,0,4,,,,,,,,12,,,,70,30
81280,note_on,28,0,3,,,,,,,,0,,,,70,45
81332,note_off,52,0,4,,,,,,,,12,,,,70,64
81332,note_off,52,0,3,,,,,,,,0,,,,70,64
81355,note_off,235,0,8,,,,,,,,4,,,,31,64
81355,note_off,235,0,7,,,,,,,,3,,,,43,64
81355,note_off,235,0,2,,,,,,,,10,,,,43,64
81355,note_off,235,0,11,,,,,,,,7,,,,43,64
81355,note_off,235,0,12,,,,,,,,8,,,,31,64
81360,note_on,485,0,10,,,,,,,,6,,,,64,45
81360,note_on,245,0,1,,,,,,,,10,,,,64,49
81360,note_on,28,0,4,,,,,,,,12,,,,74,30
81360,note_on,485,0,6,,,,,,,,2,,,,64,45
81360,note_on,28,0,3,,,,,,,,0,,,,74,45
81440,note_off,80,0,4,,,,,,,,12,,,,74,64
81440,note_on,0,0,4,,,,,,,,12,,,,70,30
81440,note_off,80,0,3,,,,,,,,0,,,,74,64
81440,note_on,0,0,3,,,,,,,,0,,,,70,45
81492,note_off,52,0,4,,,,,,,,12,,,,70,64
81492,note_off,52,0,3,,,,,,,,0,,,,70,64
81520,note_on,28,0,4,,,,,,,,12,,,,74,30
81520,note_on,28,0,3,,,,,,,,0,,,,74,45
81520,note_off,400,0,13,,,,,,,,11,,,,43,64
81572,note_off,52,0,4,,,,,,,,12,,,,74,64
81572,note_off,52,0,3,,,,,,,,0,,,,74,64
81595,note_off,235,0,6,,,,,,,,2,,,,64,64
81595,note_off,235,0,1,,,,,,,,10,,,,64,64
81595,note_off,235,0,10,,,,,,,,6,,,,64,64
81600,note_on,485,0,5,,,,,,,,1,,,,64,45
81600,note_on,28,0,4,,,,,,,,12,,,,70,30
81600,note_on,485,0,9,,,,,,,,5,,,,64,45
81600,note_on,28,0,3,,,,,,,,0,,,,70,45
81600,note_on,5,0,1,,,,,,,,10,,,,76,45
81680,note_on,0,0,3,,,,,,,,0,,,,67,45
81680,note_off,80,0,3,,,,,,,,0,,,,70,64
81680,note_on,0,0,4,,,,,,,,12,,,,67,30
81680,note_off,80,0,4,,,,,,,,12,,,,70,64
81732,note_off,52,0,3,,,,,,,,0,,,,67,64
81732,note_off,52,0,4,,,,,,,,12,,,,67,64
81760,note_on,28,0,4,,,,,,,,12,,,,70,30
81760,note_on,28,0,3,,,,,,,,0,,,,70,45
81812,note_off,52,0,4,,,,,,,,12,,,,70,64
81812,note_off,52,0,3,,,,,,,,0,,,,70,64
81835,note_off,235,0,9,,,,,,,,5,,,,64,64
81835,note_off,235,0,1,,,,,,,,10,,,,76,64
81835,note_off,235,0,5,,,,,,,,1,,,,64,64
81840,note_on,485,0,12,,,,,,,,8,,,,41,45
81840,note_on,485,0,7,,,,,,,,3,,,,53,45
81840,note_on,28,0,3,,,,,,,,0,,,,69,45
81840,note_on,28,0,4,,,,,,,,12,,,,69,30
81840,set_tempo,7200,1,0,909090,,,,,,,,,,,,
81840,note_on,485,0,8,,,,,,,,4,,,,41,45
81840,note_on,320,0,13,,,,,,,,11,,,,41,45
81840,note_on,485,0,2,,,,,,,,10,,,,53,45
81840,note_on,485,0,11,,,,,,,,7,,,,53,45
81920,note_on,0,0,3,,,,,,,,0,,,,65,47
81920,note_off,80,0,3,,,,,,,,0,,,,69,64
81920,note_on,0,0,4,,,,,,,,12,,,,65,32
81920,note_off,80,0,4,,,,,,,,12,,,,69,64
81972,note_off,52,0,4,,,,,,,,12,,,,65,64
81972,note_off,52,0,3,,,,,,,,0,,,,65,64
82000,note_on,28,0,3,,,,,,,,0,,,,69,49
82000,note_on,28,0,4,,,,,,,,12,,,,69,34
82052,note_off,52,0,4,,,,,,,,12,,,,69,64
82052,note_off,52,0,3,,,,,,,,0,,,,69,64
82075,note_off,235,0,2,,,,,,,,10,,,,53,64
82075,note_off,235,0,12,,,,,,,,8,,,,41,64
82075,note_off,235,0,11,,,,,,,,7,,,,53,64
82075,note_off,235,0,8,,,,,,,,4,,,,41,64
82075,note_off,235,0,7,,,,,,,,3,,,,53,64
82080,note_on,485,0,10,,,,,,,,6,,,,65,50
82080,note_on,485,0,6,,,,,,,,2,,,,65,52
82080,note_on,245,0,1,,,,,,,,10,,,,65,47
82080,note_on,28,0,4,,,,,,,,12,,,,72,36
82080,note_on,28,0,3,,,,,,,,0,,,,72,51
82160,note_on,0,0,4,,,,,,,,12,,,,69,38
82160,note_off,80,0,4,,,,,,,,12,,,,72,64
82160,note_off,80,0,3,,,,,,,,0,,,,72,64
82160,note_on,0,0,3,,,,,,,,0,,,,69,53
82212,note_off,52,0,4,,,,,,,,12,,,,69,64
82212,note_off,52,0,3,,,,,,,,0,,,,69,64
82240,note_on,28,0,4,,,,,,,,12,,,,72,40
82240,note_on,28,0,3,,,,,,,,0,,,,72,56
82240,note_off,400,0,13,,,,,,,,11,,,,41,64
82292,note_off,52,0,4,,,,,,,,12,,,,72,64
82292,note_off,52,0,3,,,,,,,,0,,,,72,64
82315,note_off,235,0,1,,,,,,,,10,,,,65,64
82315,note_off,235,0,10,,,,,,,,6,,,,65,64
82315,note_off,235,0,6,,,,,,,,2,,,,65,64
82320,note_on,28,0,3,,,,,,,,0,,,,77,59
82320,note_on,28,0,4,,,,,,,,12,,,,77,42
82320,note_on,485,0,9,,,,,,,,5,,,,65,55
82320,note_on,485,0,5,,,,,,,,1,,,,65,66
82320,note_on,5,0,1,,,,,,,,10,,,,77,49
82400,note_off,80,0,4,,,,,,,,12,,,,77,64
82400,note_off,80,0,3,,,,,,,,0,,,,77,64
82400,note_on,0,0,4,,,,,,,,12,,,,72,45
82400,note_on,0,0,3,,,,,,,,0,,,,72,62
82452,note_off,52,0,3,,,,,,,,0,,,,72,64
82452,note_off,52,0,4,,,,,,,,12,,,,72,64
82480,note_on,28,0,4,,,,,,,,12,,,,77,48
82480,note_on,28,0,3,,,,,,,,0,,,,77,65
82532,note_off,52,0,4,,,,,,,,12,,,,77,64
82532,note_off,52,0,3,,,,,,,,0,,,,77,64
82555,note_off,235,0,9,,,,,,,,5,,,,65,64
82555,note_off,235,0,5,,,,,,,,1,,,,65,64
82555,note_off,235,0,1,,,,,,,,10,,,,77,64
82560,note_on,320,0,13,,,,,,,,11,,,,41,60
82560,note_on,485,0,2,,,,,,,,10,,,,53,51
82560,set_tempo,720,1,0,869565,,,,,,,,,,,,
82560,note_on,485,0,11,,,,,,,,7,,,,53,60
82560,note_on,485,0,7,,,,,,,,3,,,,53,68
82560,note_on,28,0,3,,,,,,,,0,,,,81,68
82560,note_on,485,0,8,,,,,,,,4,,,,41,68
82560,note_on,485,0,12,,,,,,,,8,,,,41,60
82560,note_on,28,0,4,,,,,,,,12,,,,81,51
82640,note_off,80,0,4,,,,,,,,12,,,,81,64
82640,note_off,80,0,3,,,,,,,,0,,,,81,64
82640,note_on,0,0,3,,,,,,,,0,,,,77,71
82640,note_on,0,0,4,,,,,,,,12,,,,77,54
82692,note_off,52,0,3,,,,,,,,0,,,,77,64
82692,note_off,52,0,4,,,,,,,,12,,,,77,64
82720,note_on,28,0,3,,,,,,,,0,,,,81,74
82720,note_on,28,0,4,,,,,,,,12,,,,81,57
82772,note_off,52,0,3,,,,,,,,0,,,,81,64
82772,note_off,52,0,4,,,,,,,,12,,,,81,64
82795,note_off,235,0,7,,,,,,,,3,,,,53,64
82795,note_off,235,0,8,,,,,,,,4,,,,41,64
82795,note_off,235,0,2,,,,,,,,10,,,,53,64
82795,note_off,235,0,12,,,,,,,,8,,,,41,64
82795,note_off,235,0,11,,,,,,,,7,,,,53,64
82800,note_on,28,0,4,,,,,,,,12,,,,77,60
82800,note_on,28,0,3,,,,,,,,0,,,,77,77
82800,note_on,245,0,1,,,,,,,,10,,,,65,54
82800,note_on,485,0,6,,,,,,,,2,,,,65,76
82800,note_on,485,0,10,,,,,,,,6,,,,65,65
82880,note_on,0,0,3,,,,,,,,0,,,,72,80
82880,note_off,80,0,4,,,,,,,,12,,,,77,64
82880,note_on,0,0,4,,,,,,,,12,,,,72,63
82880,note_off,80,0,3,,,,,,,,0,,,,77,64
82932,note_off,52,0,3,,,,,,,,0,,,,72,64
82932,note_off,52,0,4,,,,,,,,12,,,,72,64
82960,note_off,400,0,13,,,,,,,,11,,,,41,64
82960,note_on,28,0,4,,,,,,,,12,,,,77,66
82960,note_on,28,0,3,,,,,,,,0,,,,77,83
83012,note_off,52,0,3,,,,,,,,0,,,,77,64
83012,note_off,52,0,4,,,,,,,,12,,,,77,64
83035,note_off,235,0,6,,,,,,,,2,,,,65,64
83035,note_off,235,0,10,,,,,,,,6,,,,65,64
83035,note_off,235,0,1,,,,,,,,10,,,,65,64
83040,note_on,5,0,1,,,,,,,,10,,,,77,57
83040,note_on,485,0,9,,,,,,,,5,,,,65,70
83040,note_on,28,0,4,,,,,,,,12,,,,72,69
83040,note_on,28,0,3,,,,,,,,0,,,,72,86
83040,note_on,485,0,5,,,,,,,,1,,,,65,97
83120,note_off,80,0,4,,,,,,,,12,,,,72,64
83120,note_on,0,0,3,,,,,,,,0,,,,69,89
83120,note_off,80,0,3,,,,,,,,0,,,,72,64
83120,note_on,0,0,4,,,,,,,,12,,,,69,72
83172,note_off,52,0,3,,,,,,,,0,,,,69,64
83172,note_off,52,0,4,,,,,,,,12,,,,69,64
83200,note_on,28,0,3,,,,,,,,0,,,,72,92
83200,note_on,28,0,4,,,,,,,,12,,,,72,75
83252,note_off,52,0,3,,,,,,,,0,,,,72,64
83252,note_off,52,0,4,,,,,,,,12,,,,72,64
83275,note_off,235,0,1,,,,,,,,10,,,,77,64
83275,note_off,235,0,9,,,,,,,,5,,,,65,64
83275,note_off,235,0,5,,,,,,,,1,,,,65,64
83280,note_on,245,0,6,,,,,,,,2,,,,57,92
83280,note_on,5,0,9,,,,,,,,5,,,,65,75
83280,note_on,485,0,12,,,,,,,,8,,,,29,75
83280,note_on,245,0,10,,,,,,,,6,,,,57,75
83280,note_on,485,0,7,,,,,,,,3,,,,41,92
83280,note_on,5,0,5,,,,,,,,1,,,,65,108
83280,set_tempo,720,1,0,833333,,,,,,,,,,,,
83280,note_on,320,0,13,,,,,,,,11,,,,41,75
83280,note_on,485,0,8,,,,,,,,4,,,,29,92
83280,note_on,485,0,11,,,,,,,,7,,,,41,75
83455,note_off,175,0,9,,,,,,,,5,,,,65,64
83455,note_off,175,0,5,,,,,,,,1,,,,65,64
83460,note_on,5,0,9,,,,,,,,5,,,,72,75
83460,note_on,5,0,5,,,,,,,,1,,,,72,108
83500,note_off,40,0,5,,,,,,,,1,,,,72,64
83500,note_off,40,0,9,,,,,,,,5,,,,72,64
83515,note_off,235,0,11,,,,,,,,7,,,,41,64
83515,note_off,235,0,10,,,,,,,,6,,,,57,64
83515,note_off,235,0,12,,,,,,,,8,,,,29,64
83515,note_off,235,0,6,,,,,,,,2,,,,57,64
83515,note_off,235,0,8,,,,,,,,4,,,,29,64
83515,note_off,235,0,7,,,,,,,,3,,,,41,64
83520,note_on,20,0,5,,,,,,,,1,,,,65,108
83520,note_on,5,0,10,,,,,,,,6,,,,60,75
83520,note_on,5,0,12,,,,,,,,8,,,,41,75
83520,note_on,5,0,11,,,,,,,,7,,,,53,75
83520,note_on,5,0,8,,,,,,,,4,,,,41,92
83520,note_on,20,0,9,,,,,,,,5,,,,65,75
83520,note_on,5,0,6,,,,,,,,2,,,,60,92
83520,note_on,5,0,7,,,,,,,,3,,,,53,92
83600,note_off,80,0,5,,,,,,,,1,,,,65,64
83600,note_off,80,0,9,,,,,,,,5,,,,65,64
83600,note_off,80,0,11,,,,,,,,7,,,,53,64
83600,note_off,80,0,12,,,,,,,,8,,,,41,64
83600,note_off,80,0,6,,,,,,,,2,,,,60,64
83600,note_off,80,0,10,,,,,,,,6,,,,60,64
83600,note_off,80,0,8,,,,,,,,4,,,,41,64
83600,note_off,80,0,7,,,,,,,,3,,,,53,64
83680,note_off,400,0,13,,,,,,,,11,,,,41,64
83760,note_on,160,0,8,,,,,,,,4,,,,41,92
83760,note_on,160,0,7,,,,,,,,3,,,,53,92
83760,note_on,160,0,12,,,,,,,,8,,,,41,75
83760,note_on,160,0,10,,,,,,,,6,,,,57,75
83760,note_on,160,0,6,,,,,,,,2,,,,57,92
83760,note_on,160,0,11,,,,,,,,7,,,,53,75
83760,note_on,160,0,5,,,,,,,,1,,,,65,108
83760,note_on,160,0,9,,,,,,,,5,,,,65,75
83840,note_off,80,0,11,,,,,,,,7,,,,53,64
83840,note_off,80,0,7,,,,,,,,3,,,,53,64
83840,note_off,80,0,10,,,,,,,,6,,,,57,64
83840,note_off,80,0,8,,,,,,,,4,,,,41,64
83840,note_off,80,0,5,,,,,,,,1,,,,65,64
83840,note_off,80,0,12,,,,,,,,8,,,,41,64
83840,note_off,80,0,9,,,,,,,,5,,,,65,64
83840,note_off,80,0,6,,,,,,,,2,,,,57,64
84000,note_on,160,0,12,,,,,,,,8,,,,29,75
84000,note_on,160,0,11,,,,,,,,7,,,,41,75
84000,note_on,320,0,13,,,,,,,,11,,,,41,75
84000,note_on,160,0,5,,,,,,,,1,,,,65,108
84000,note_on,160,0,6,,,,,,,,2,,,,57,92
84000,note_on,160,0,7,,,,,,,,3,,,,41,92
84000,note_on,160,0,10,,,,,,,,6,,,,57,75
84000,note_on,160,0,8,,,,,,,,4,,,,29,92
84000,note_on,160,0,9,,,,,,,,5,,,,65,75
84175,note_off,175,0,9,,,,,,,,5,,,,65,64
84175,note_off,175,0,5,,,,,,,,1,,,,65,64
84180,note_on,5,0,9,,,,,,,,5,,,,72,75
84180,note_on,5,0,5,,,,,,,,1,,,,72,108
84220,note_off,40,0,5,,,,,,,,1,,,,72,64
84220,note_off,40,0,9,,,,,,,,5,,,,72,64
84235,note_off,235,0,11,,,,,,,,7,,,,41,64
84235,note_off,235,0,6,,,,,,,,2,,,,57,64
84235,note_off,235,0,12,,,,,,,,8,,,,29,64
84235,note_off,235,0,7,,,,,,,,3,,,,41,64
84235,note_off,235,0,8,,,,,,,,4,,,,29,64
84235,note_off,235,0,10,,,,,,,,6,,,,57,64
84240,note_on,5,0,7,,,,,,,,3,,,,53,92
84240,note_on,5,0,6,,,,,,,,2,,,,60,92
84240,note_on,5,0,10,,,,,,,,6,,,,60,75
84240,note_on,5,0,8,,,,,,,,4,,,,41,92
84240,note_on,20,0,9,,,,,,,,5,,,,65,75
84240,note_on,5,0,12,,,,,,,,8,,,,41,75
84240,note_on,20,0,5,,,,,,,,1,,,,65,108
84240,note_on,5,0,11,,,,,,,,7,,,,53,75
84320,note_off,80,0,10,,,,,,,,6,,,,60,64
84320,note_off,80,0,9,,,,,,,,5,,,,65,64
84320,note_off,80,0,8,,,,,,,,4,,,,41,64
84320,note_off,80,0,7,,,,,,,,3,,,,53,64
84320,note_off,80,0,12,,,,,,,,8,,,,41,64
84320,note_off,80,0,5,,,,,,,,1,,,,65,64
84320,note_off,80,0,6,,,,,,,,2,,,,60,64
84320,note_off,80,0,11,,,,,,,,7,,,,53,64
84400,note_off,400,0,13,,,,,,,,11,,,,41,64
84480,note_on,160,0,5,,,,,,,,1,,,,65,108
84480,note_on,160,0,8,,,,,,,,4,,,,41,92
84480,note_on,160,0,7,,,,,,,,3,,,,53,92
84480,note_on,160,0,10,,,,,,,,6,,,,57,75
84480,note_on,160,0,9,,,,,,,,5,,,,65,75
84480,note_on,160,0,12,,,,,,,,8,,,,41,75
84480,note_on,160,0,6,,,,,,,,2,,,,57,92
84480,note_on,160,0,11,,,,,,,,7,,,,53,75
84560,note_off,80,0,6,,,,,,,,2,,,,57,64
84560,note_off,80,0,7,,,,,,,,3,,,,53,64
84560,note_off,80,0,10,,,,,,,,6,,,,57,64
84560,note_off,80,0,8,,,,,,,,4,,,,41,64
84560,note_off,80,0,5,,,,,,,,1,,,,65,64
84560,note_off,80,0,12,,,,,,,,8,,,,41,64
84560,note_off,80,0,9,,,,,,,,5,,,,65,64
84560,note_off,80,0,11,,,,,,,,7,,,,53,64
84720,note_on,160,0,7,,,,,,,,3,,,,41,92
84720,note_on,160,0,11,,,,,,,,7,,,,41,75
84720,note_on,160,0,9,,,,,,,,5,,,,65,75
84720,note_on,160,0,10,,,,,,,,6,,,,57,75
84720,note_on,160,0,5,,,,,,,,1,,,,65,108
84720,note_on,160,0,8,,,,,,,,4,,,,29,92
84720,note_on,160,0,12,,,,,,,,8,,,,29,75
84720,note_on,320,0,13,,,,,,,,11,,,,41,75
84720,note_on,160,0,6,,,,,,,,2,,,,57,92
84895,note_off,175,0,9,,,,,,,,5,,,,65,64
84895,note_off,175,0,5,,,,,,,,1,,,,65,64
84900,note_on,0,0,9,,,,,,,,5,,,,72,75
84900,note_on,5,0,9,,,,,,,,5,,,,69,75
84900,note_on,5,0,5,,,,,,,,1,,,,69,108
84900,note_on,0,0,5,,,,,,,,1,,,,72,108
84955,note_off,0,0,9,,,,,,,,5,,,,69,64
84955,note_off,55,0,9,,,,,,,,5,,,,72,64
84955,note_off,235,0,11,,,,,,,,7,,,,41,64
84955,note_off,235,0,12,,,,,,,,8,,,,29,64
84955,note_off,235,0,13,,,,,,,,11,,,,41,64
84955,note_off,235,0,6,,,,,,,,2,,,,57,64
84955,note_off,235,0,8,,,,,,,,4,,,,29,64
84955,note_off,235,0,10,,,,,,,,6,,,,57,64
84955,note_off,235,0,7,,,,,,,,3,,,,41,64
84955,note_off,55,0,5,,,,,,,,1,,,,72,64
84955,note_off,0,0,5,,,,,,,,1,,,,69,64
84960,note_on,5,0,8,,,,,,,,4,,,,34,92
84960,note_on,5,0,7,,,,,,,,3,,,,46,92
84960,note_on,5,0,13,,,,,,,,11,,,,34,75
84960,note_on,5,0,5,,,,,,,,1,,,,67,108
84960,note_on,5,0,10,,,,,,,,6,,,,62,75
84960,note_on,0,0,5,,,,,,,,1,,,,70,108
84960,note_on,5,0,12,,,,,,,,8,,,,34,75
84960,note_on,0,0,9,,,,,,,,5,,,,70,75
84960,note_on,5,0,9,,,,,,,,5,,,,67,75
84960,note_on,5,0,6,,,,,,,,2,,,,62,92
84960,note_on,5,0,11,,,,,,,,7,,,,46,75
85040,note_off,0,0,5,,,,,,,,1,,,,67,64
85040,note_off,80,0,12,,,,,,,,8,,,,34,64
85040,note_off,80,0,7,,,,,,,,3,,,,46,64
85040,note_off,80,0,8,,,,,,,,4,,,,34,64
85040,note_off,80,0,5,,,,,,,,1,,,,70,64
85040,note_off,80,0,10,,,,,,,,6,,,,62,64
85040,note_off,80,0,6,,,,,,,,2,,,,62,64
85040,note_off,80,0,9,,,,,,,,5,,,,70,64
85040,note_off,0,0,9,,,,,,,,5,,,,67,64
85040,note_off,80,0,11,,,,,,,,7,,,,46,64
85195,note_off,235,0,13,,,,,,,,11,,,,34,64
85200,note_on,5,0,13,,,,,,,,11,,,,35,69
85200,note_on,160,0,8,,,,,,,,4,,,,35,83
85200,note_on,160,0,12,,,,,,,,8,,,,35,69
85200,note_on,160,0,5,,,,,,,,1,,,,65,99
85200,note_on,160,0,9,,,,,,,,5,,,,65,69
85200,note_on,0,0,9,,,,,,,,5,,,,69,69
85200,note_on,160,0,6,,,,,,,,2,,,,62,83
85200,note_on,160,0,10,,,,,,,,6,,,,62,69
85200,note_on,160,0,7,,,,,,,,3,,,,47,83
85200,note_on,160,0,11,,,,,,,,7,,,,47,69
85200,note_on,0,0,5,,,,,,,,1,,,,69,99
85280,note_off,80,0,10,,,,,,,,6,,,,62,64
85280,note_off,0,0,5,,,,,,,,1,,,,65,64
85280,note_off,80,0,9,,,,,,,,5,,,,69,64
85280,note_off,80,0,12,,,,,,,,8,,,,35,64
85280,note_off,0,0,9,,,,,,,,5,,,,65,64
85280,note_off,80,0,5,,,,,,,,1,,,,69,64
85280,note_off,80,0,11,,,,,,,,7,,,,47,64
85280,note_off,80,0,8,,,,,,,,4,,,,35,64
85280,note_off,80,0,6,,,,,,,,2,,,,62,64
85280,note_off,80,0,7,,,,,,,,3,,,,47,64
85435,note_off,235,0,13,,,,,,,,11,,,,35,64
85440,note_on,160,0,7,,,,,,,,3,,,,48,74
85440,note_on,160,0,10,,,,,,,,6,,,,64,63
85440,note_on,160,0,5,,,,,,,,1,,,,60,90
85440,note_on,0,0,5,,,,,,,,1,,,,67,90
85440,note_on,160,0,11,,,,,,,,7,,,,48,63
85440,note_on,160,0,9,,,,,,,,5,,,,60,63
85440,note_on,5,0,13,,,,,,,,11,,,,36,63
85440,note_on,160,0,8,,,,,,,,4,,,,36,74
85440,note_on,160,0,12,,,,,,,,8,,,,36,63
85440,note_on,160,0,6,,,,,,,,2,,,,64,74
85440,note_on,0,0,9,,,,,,,,5,,,,67,63
85520,note_off,80,0,9,,,,,,,,5,,,,67,64
85520,note_off,0,0,9,,,,,,,,5,,,,60,64
85520,note_off,80,0,10,,,,,,,,6,,,,64,64
85520,note_off,80,0,6,,,,,,,,2,,,,64,64
85520,note_off,80,0,12,,,,,,,,8,,,,36,64
85520,note_off,80,0,11,,,,,,,,7,,,,48,64
85520,note_off,80,0,7,,,,,,,,3,,,,48,64
85520,note_off,0,0,5,,,,,,,,1,,,,60,64
85520,note_off,80,0,8,,,,,,,,4,,,,36,64
85520,note_off,80,0,5,,,,,,,,1,,,,67,64
85560,note_on,40,0,6,,,,,,,,2,,,,62,70
85560,note_on,40,0,12,,,,,,,,8,,,,34,60
85560,note_on,40,0,11,,,,,,,,7,,,,46,60
85560,note_on,40,0,8,,,,,,,,4,,,,34,70
85560,note_on,40,0,7,,,,,,,,3,,,,46,70
85560,note_on,40,0,10,,,,,,,,6,,,,62,60
85640,note_off,80,0,11,,,,,,,,7,,,,46,64
85640,note_off,80,0,8,,,,,,,,4,,,,34,64
85640,note_off,80,0,12,,,,,,,,8,,,,34,64
85640,note_off,80,0,10,,,,,,,,6,,,,62,64
85640,note_off,80,0,6,,,,,,,,2,,,,62,64
85640,note_off,80,0,7,,,,,,,,3,,,,46,64
85680,note_on,40,0,12,,,,,,,,8,,,,33,57
85680,note_on,0,0,5,,,,,,,,1,,,,67,80
85680,note_on,160,0,5,,,,,,,,1,,,,60,80
85680,note_on,40,0,8,,,,,,,,4,,,,33,65
85680,note_on,40,0,6,,,,,,,,2,,,,60,65
85680,note_on,40,0,10,,,,,,,,6,,,,60,57
85680,note_on,40,0,7,,,,,,,,3,,,,45,65
85680,note_on,0,0,9,,,,,,,,5,,,,67,57
85680,note_on,160,0,9,,,,,,,,5,,,,60,57
85680,note_on,40,0,11,,,,,,,,7,,,,45,57
85760,note_off,0,0,5,,,,,,,,1,,,,60,64
85760,note_off,0,0,9,,,,,,,,5,,,,60,64
85760,note_off,80,0,6,,,,,,,,2,,,,60,64
85760,note_off,80,0,7,,,,,,,,3,,,,45,64
85760,note_off,80,0,11,,,,,,,,7,,,,45,64
85760,note_off,80,0,10,,,,,,,,6,,,,60,64
85760,note_off,80,0,8,,,,,,,,4,,,,33,64
85760,note_off,80,0,5,,,,,,,,1,,,,67,64
85760,note_off,80,0,9,,,,,,,,5,,,,67,64
85760,note_off,80,0,12,,,,,,,,8,,,,33,64
85800,note_on,40,0,12,,,,,,,,8,,,,31,54
85800,note_on,40,0,7,,,,,,,,3,,,,43,60
85800,note_on,40,0,6,,,,,,,,2,,,,58,60
85800,note_on,40,0,11,,,,,,,,7,,,,43,54
85800,note_on,40,0,8,,,,,,,,4,,,,31,60
85800,note_on,40,0,10,,,,,,,,6,,,,58,54
85840,note_off,400,0,13,,,,,,,,11,,,,36,64
85880,note_off,80,0,6,,,,,,,,2,,,,58,64
85880,note_off,80,0,11,,,,,,,,7,,,,43,64
85880,note_off,80,0,10,,,,,,,,6,,,,58,64
85880,note_off,80,0,7,,,,,,,,3,,,,43,64
85880,note_off,80,0,12,,,,,,,,8,,,,31,64
85880,note_off,80,0,8,,,,,,,,4,,,,31,64
85920,note_on,40,0,7,,,,,,,,3,,,,41,55
85920,note_on,0,0,5,,,,,,,,1,,,,67,70
85920,note_on,160,0,5,,,,,,,,1,,,,60,70
85920,note_on,40,0,8,,,,,,,,4,,,,29,55
85920,note_on,40,0,11,,,,,,,,7,,,,41,51
85920,note_on,0,0,9,,,,,,,,5,,,,67,51
85920,note_on,40,0,12,,,,,,,,8,,,,29,51
85920,note_on,160,0,9,,,,,,,,5,,,,60,51
85920,note_on,40,0,10,,,,,,,,6,,,,57,51
85920,note_on,40,0,6,,,,,,,,2,,,,57,55
86000,note_off,80,0,7,,,,,,,,3,,,,41,64
86000,note_off,80,0,9,,,,,,,,5,,,,67,64
86000,note_off,0,0,9,,,,,,,,5,,,,60,64
86000,note_off,80,0,8,,,,,,,,4,,,,29,64
86000,note_off,80,0,10,,,,,,,,6,,,,57,64
86000,note_off,80,0,6,,,,,,,,2,,,,57,64
86000,note_off,80,0,5,,,,,,,,1,,,,67,64
86000,note_off,0,0,5,,,,,,,,1,,,,60,64
86000,note_off,80,0,12,,,,,,,,8,,,,29,64
86000,note_off,80,0,11,,,,,,,,7,,,,41,64
86040,note_on,40,0,8,,,,,,,,4,,,,28,50
86040,note_on,40,0,6,,,,,,,,2,,,,55,50
86040,note_on,40,0,7,,,,,,,,3,,,,40,50
86040,note_on,40,0,11,,,,,,,,7,,,,40,48
86040,note_on,40,0,12,,,,,,,,8,,,,28,48
86040,note_on,40,0,10,,,,,,,,6,,,,55,48
86120,note_off,80,0,6,,,,,,,,2,,,,55,64
86120,note_off,80,0,7,,,,,,,,3,,,,40,64
86120,note_off,80,0,10,,,,,,,,6,,,,55,64
86120,note_off,80,0,11,,,,,,,,7,,,,40,64
86120,note_off,80,0,12,,,,,,,,8,,,,28,64
86120,note_off,80,0,8,,,,,,,,4,,,,28,64
86160,note_on,40,0,12,,,,,,,,8,,,,29,45
86160,note_on,40,0,8,,,,,,,,4,,,,29,45
86160,note_on,160,0,9,,,,,,,,5,,,,65,45
86160,note_on,40,0,6,,,,,,,,2,,,,57,45
86160,note_on,320,0,13,,,,,,,,11,,,,41,45
86160,note_on,40,0,7,,,,,,,,3,,,,41,45
86160,note_on,40,0,10,,,,,,,,6,,,,57,45
86160,note_on,40,0,11,,,,,,,,7,,,,41,45
86160,note_on,160,0,5,,,,,,,,1,,,,65,60
86335,note_off,175,0,5,,,,,,,,1,,,,65,64
86335,note_off,175,0,9,,,,,,,,5,,,,65,64
86340,note_on,5,0,5,,,,,,,,1,,,,72,60
86340,note_on,5,0,9,,,,,,,,5,,,,72,45
86380,note_off,40,0,9,,,,,,,,5,,,,72,64
86380,note_off,40,0,5,,,,,,,,1,,,,72,64
86395,note_off,235,0,8,,,,,,,,4,,,,29,64
86395,note_off,235,0,11,,,,,,,,7,,,,41,64
86395,note_off,235,0,6,,,,,,,,2,,,,57,64
86395,note_off,235,0,7,,,,,,,,3,,,,41,64
86395,note_off,235,0,12,,,,,,,,8,,,,29,64
86395,note_off,235,0,10,,,,,,,,6,,,,57,64
86400,note_on,20,0,5,,,,,,,,1,,,,65,60
86400,note_on,5,0,11,,,,,,,,7,,,,53,45
86400,note_on,5,0,7,,,,,,,,3,,,,53,45
86400,note_on,5,0,10,,,,,,,,6,,,,60,45
86400,note_on,5,0,8,,,,,,,,4,,,,41,45
86400,note_on,5,0,12,,,,,,,,8,,,,41,45
86400,note_on,5,0,6,,,,,,,,2,,,,60,45
86400,note_on,20,0,9,,,,,,,,5,,,,65,45
86480,note_off,80,0,7,,,,,,,,3,,,,53,64
86480,note_off,80,0,12,,,,,,,,8,,,,41,64
86480,note_off,80,0,11,,,,,,,,7,,,,53,64
86480,note_off,80,0,6,,,,,,,,2,,,,60,64
86480,note_off,80,0,10,,,,,,,,6,,,,60,64
86480,note_off,80,0,9,,,,,,,,5,,,,65,64
86480,note_off,80,0,5,,,,,,,,1,,,,65,64
86480,note_off,80,0,8,,,,,,,,4,,,,41,64
86560,note_off,400,0,13,,,,,,,,11,,,,41,64
86640,note_on,160,0,9,,,,,,,,5,,,,65,45
86640,note_on,160,0,11,,,,,,,,7,,,,53,45
86640,note_on,160,0,5,,,,,,,,1,,,,65,60
86640,note_on,160,0,10,,,,,,,,6,,,,57,45
86640,note_on,160,0,12,,,,,,,,8,,,,41,45
86640,note_on,160,0,8,,,,,,,,4,,,,41,45
86640,note_on,160,0,6,,,,,,,,2,,,,57,45
86640,note_on,160,0,7,,,,,,,,3,,,,53,45
86720,note_off,80,0,7,,,,,,,,3,,,,53,64
86720,note_off,80,0,12,,,,,,,,8,,,,41,64
86720,note_off,80,0,10,,,,,,,,6,,,,57,64
86720,note_off,80,0,9,,,,,,,,5,,,,65,64
86720,note_off,80,0,11,,,,,,,,7,,,,53,64
86720,note_off,80,0,8,,,,,,,,4,,,,41,64
86720,note_off,80,0,6,,,,,,,,2,,,,57,64
86720,note_off,80,0,5,,,,,,,,1,,,,65,64
86880,note_on,320,0,13,,,,,,,,11,,,,41,45
86880,note_on,160,0,12,,,,,,,,8,,,,29,45
86880,note_on,160,0,7,,,,,,,,3,,,,41,45
86880,note_on,160,0,10,,,,,,,,6,,,,57,45
86880,note_on,160,0,6,,,,,,,,2,,,,57,45
86880,note_on,160,0,11,,,,,,,,7,,,,41,45
86880,note_on,160,0,9,,,,,,,,5,,,,65,45
86880,note_on,160,0,5,,,,,,,,1,,,,65,60
86880,note_on,160,0,8,,,,,,,,4,,,,29,45
87055,note_off,175,0,9,,,,,,,,5,,,,65,64
87055,note_off,175,0,5,,,,,,,,1,,,,65,64
87060,note_on,5,0,9,,,,,,,,5,,,,72,45
87060,note_on,5,0,5,,,,,,,,1,,,,72,60
87100,note_off,40,0,5,,,,,,,,1,,,,72,64
87100,note_off,40,0,9,,,,,,,,5,,,,72,64
87115,note_off,235,0,11,,,,,,,,7,,,,41,64
87115,note_off,235,0,6,,,,,,,,2,,,,57,64
87115,note_off,235,0,10,,,,,,,,6,,,,57,64
87115,note_off,235,0,8,,,,,,,,4,,,,29,64
87115,note_off,235,0,12,,,,,,,,8,,,,29,64
87115,note_off,235,0,7,,,,,,,,3,,,,41,64
87120,note_on,5,0,6,,,,,,,,2,,,,60,45
87120,note_on,20,0,9,,,,,,,,5,,,,65,45
87120,note_on,5,0,7,,,,,,,,3,,,,53,45
87120,note_on,5,0,12,,,,,,,,8,,,,41,45
87120,note_on,5,0,10,,,,,,,,6,,,,60,45
87120,note_on,5,0,8,,,,,,,,4,,,,41,45
87120,note_on,5,0,11,,,,,,,,7,,,,53,45
87120,note_on,20,0,5,,,,,,,,1,,,,65,60
87200,note_off,80,0,9,,,,,,,,5,,,,65,64
87200,note_off,80,0,12,,,,,,,,8,,,,41,64
87200,note_off,80,0,5,,,,,,,,1,,,,65,64
87200,note_off,80,0,8,,,,,,,,4,,,,41,64
87200,note_off,80,0,11,,,,,,,,7,,,,53,64
87200,note_off,80,0,7,,,,,,,,3,,,,53,64
87200,note_off,80,0,10,,,,,,,,6,,,,60,64
87200,note_off,80,0,6,,,,,,,,2,,,,60,64
87280,note_off,400,0,13,,,,,,,,11,,,,41,64
87360,note_on,160,0,6,,,,,,,,2,,,,57,45
87360,note_on,160,0,5,,,,,,,,1,,,,65,60
87360,note_on,160,0,9,,,,,,,,5,,,,65,45
87360,note_on,160,0,12,,,,,,,,8,,,,41,45
87360,note_on,160,0,10,,,,,,,,6,,,,57,45
87360,note_on,160,0,8,,,,,,,,4,,,,41,45
87360,note_on,160,0,7,,,,,,,,3,,,,53,45
87360,note_on,160,0,11,,,,,,,,7,,,,53,45
87440,note_off,80,0,5,,,,,,,,1,,,,65,64
87440,note_off,80,0,9,,,,,,,,5,,,,65,64
87440,note_off,80,0,8,,,,,,,,4,,,,41,64
87440,note_off,80,0,7,,,,,,,,3,,,,53,64
87440,note_off,80,0,11,,,,,,,,7,,,,53,64
87440,note_off,80,0,12,,,,,,,,8,,,,41,64
87440,note_off,80,0,6,,,,,,,,2,,,,57,64
87440,note_off,80,0,10,,,,,,,,6,,,,57,64
87600,note_on,160,0,9,,,,,,,,5,,,,65,45
87600,note_on,160,0,8,,,,,,,,4,,,,29,45
87600,note_on,160,0,7,,,,,,,,3,,,,41,45
87600,note_on,160,0,12,,,,,,,,8,,,,29,45
87600,note_on,160,0,6,,,,,,,,2,,,,57,45
87600,note_on,320,0,13,,,,,,,,11,,,,41,45
87600,note_on,160,0,10,,,,,,,,6,,,,57,45
87600,note_on,160,0,11,,,,,,,,7,,,,41,45
87600,note_on,160,0,5,,,,,,,,1,,,,65,60
87775,note_off,175,0,5,,,,,,,,1,,,,65,64
87775,note_off,175,0,9,,,,,,,,5,,,,65,64
87780,note_on,5,0,5,,,,,,,,1,,,,69,60
87780,note_on,0,0,5,,,,,,,,1,,,,72,60
87780,note_on,5,0,9,,,,,,,,5,,,,69,45
87780,note_on,0,0,9,,,,,,,,5,,,,72,45
87820,note_off,0,0,9,,,,,,,,5,,,,69,64
87820,note_off,0,0,5,,,,,,,,1,,,,69,64
87820,note_off,40,0,5,,,,,,,,1,,,,72,64
87820,note_off,40,0,9,,,,,,,,5,,,,72,64
87835,note_off,235,0,6,,,,,,,,2,,,,57,64
87835,note_off,235,0,13,,,,,,,,11,,,,41,64
87835,note_off,235,0,12,,,,,,,,8,,,,29,64
87835,note_off,235,0,7,,,,,,,,3,,,,41,64
87835,note_off,235,0,11,,,,,,,,7,,,,41,64
87835,note_off,235,0,8,,,,,,,,4,,,,29,64
87835,note_off,235,0,10,,,,,,,,6,,,,57,64
87840,note_on,5,0,6,,,,,,,,2,,,,62,45
87840,note_on,5,0,10,,,,,,,,6,,,,62,45
87840,note_on,0,0,9,,,,,,,,5,,,,70,45
87840,note_on,5,0,13,,,,,,,,11,,,,34,45
87840,note_on,0,0,5,,,,,,,,1,,,,70,60
87840,note_on,20,0,5,,,,,,,,1,,,,67,60
87840,note_on,5,0,11,,,,,,,,7,,,,46,45
87840,note_on,5,0,8,,,,,,,,4,,,,34,45
87840,note_on,20,0,9,,,,,,,,5,,,,67,45
87840,note_on,5,0,7,,,,,,,,3,,,,46,45
87840,note_on,5,0,12,,,,,,,,8,,,,34,45
87920,note_off,80,0,11,,,,,,,,7,,,,46,64
87920,note_off,80,0,9,,,,,,,,5,,,,70,64
87920,note_off,0,0,9,,,,,,,,5,,,,67,64
87920,note_off,80,0,10,,,,,,,,6,,,,62,64
87920,note_off,80,0,12,,,,,,,,8,,,,34,64
87920,note_off,80,0,6,,,,,,,,2,,,,62,64
87920,note_off,80,0,5,,,,,,,,1,,,,70,64
87920,note_off,0,0,5,,,,,,,,1,,,,67,64
87920,note_off,80,0,8,,,,,,,,4,,,,34,64
87920,note_off,80,0,7,,,,,,,,3,,,,46,64
88075,note_off,235,0,13,,,,,,,,11,,,,34,64
88080,note_on,160,0,10,,,,,,,,6,,,,62,45
88080,note_on,5,0,13,,,,,,,,11,,,,35,45
88080,note_on,160,0,5,,,,,,,,1,,,,65,60
88080,note_on,0,0,5,,,,,,,,1,,,,69,60
88080,note_on,0,0,9,,,,,,,,5,,,,69,45
88080,note_on,160,0,9,,,,,,,,5,,,,65,45
88080,note_on,160,0,7,,,,,,,,3,,,,47,45
88080,note_on,160,0,8,,,,,,,,4,,,,35,45
88080,note_on,160,0,11,,,,,,,,7,,,,47,45
88080,note_on,160,0,12,,,,,,,,8,,,,35,45
88080,note_on,160,0,6,,,,,,,,2,,,,62,45
88160,note_off,0,0,9,,,,,,,,5,,,,65,64
88160,note_off,80,0,12,,,,,,,,8,,,,35,64
88160,note_off,80,0,11,,,,,,,,7,,,,47,64
88160,note_off,80,0,9,,,,,,,,5,,,,69,64
88160,note_off,80,0,8,,,,,,,,4,,,,35,64
88160,note_off,80,0,7,,,,,,,,3,,,,47,64
88160,note_off,80,0,5,,,,,,,,1,,,,69,64
88160,note_off,80,0,10,,,,,,,,6,,,,62,64
88160,note_off,0,0,5,,,,,,,,1,,,,65,64
88160,note_off,80,0,6,,,,,,,,2,,,,62,64
88315,note_off,235,0,13,,,,,,,,11,,,,35,64
88320,note_on,160,0,5,,,,,,,,1,,,,60,45
88320,note_on,160,0,9,,,,,,,,5,,,,67,45
88320,note_on,5068,0,4,,,,,,,,12,,,,67,45
88320,note_on,0,0,11,,,,,,,,7,,,,55,45
88320,note_on,160,0,11,,,,,,,,7,,,,48,45
88320,note_on,5,0,13,,,,,,,,11,,,,36,45
88320,note_on,0,0,7,,,,,,,,3,,,,55,45
88320,note_on,160,0,7,,,,,,,,3,,,,48,45
88320,note_on,5068,0,3,,,,,,,,0,,,,67,60
88320,note_on,160,0,10,,,,,,,,6,,,,64,45
88320,note_on,0,0,5,,,,,,,,1,,,,67,45
88320,note_on,160,0,6,,,,,,,,2,,,,64,45
88320,note_on,160,0,12,,,,,,,,8,,,,36,45
88320,note_on,160,0,8,,,,,,,,4,,,,36,45
88400,note_off,80,0,3,,,,,,,,0,,,,67,64
88400,note_off,80,0,4,,,,,,,,12,,,,67,64
88440,note_on,40,0,4,,,,,,,,12,,,,62,45
88440,note_on,40,0,3,,,,,,,,0,,,,62,60
88500,note_on,0,0,4,,,,,,,,12,,,,64,45
88500,note_off,60,0,4,,,,,,,,12,,,,62,64
88500,note_on,0,0,3,,,,,,,,0,,,,64,60
88500,note_off,60,0,3,,,,,,,,0,,,,62,64
88560,note_on,0,0,4,,,,,,,,12,,,,65,45
88560,note_off,60,0,4,,,,,,,,12,,,,64,64
88560,note_on,0,0,3,,,,,,,,0,,,,65,60
88560,note_off,60,0,3,,,,,,,,0,,,,64,64
88620,note_on,0,0,3,,,,,,,,0,,,,67,60
88620,note_off,60,0,3,,,,,,,,0,,,,65,64
88620,note_on,0,0,4,,,,,,,,12,,,,67,45
88620,note_off,60,0,4,,,,,,,,12,,,,65,64
88680,note_off,60,0,3,,,,,,,,0,,,,67,64
88680,note_on,0,0,4,,,,,,,,12,,,,69,45
88680,note_on,0,0,3,,,,,,,,0,,,,69,60
88680,note_off,60,0,4,,,,,,,,12,,,,67,64
88720,note_off,400,0,6,,,,,,,,2,,,,64,64
88720,note_off,400,0,8,,,,,,,,4,,,,36,64
88720,note_off,0,0,11,,,,,,,,7,,,,48,64
88720,note_off,0,0,7,,,,,,,,3,,,,48,64
88720,note_off,400,0,13,,,,,,,,11,,,,36,64
88720,note_off,400,0,12,,,,,,,,8,,,,36,64
88720,note_off,400,0,11,,,,,,,,7,,,,55,64
88720,note_off,400,0,5,,,,,,,,1,,,,67,64
88720,note_off,0,0,5,,,,,,,,1,,,,60,64
88720,note_off,400,0,10,,,,,,,,6,,,,64,64
88720,note_off,400,0,9,,,,,,,,5,,,,67,64
88720,note_off,400,0,7,,,,,,,,3,,,,55,64
88740,note_off,60,0,3,,,,,,,,0,,,,69,64
88740,note_on,0,0,3,,,,,,,,0,,,,70,60
88740,note_on,0,0,4,,,,,,,,12,,,,70,45
88740,note_off,60,0,4,,,,,,,,12,,,,69,64
88800,note_off,60,0,3,,,,,,,,0,,,,70,64
88800,note_on,0,0,3,,,,,,,,0,,,,72,60
88800,note_off,60,0,4,,,,,,,,12,,,,70,64
88800,note_on,0,0,4,,,,,,,,12,,,,72,45
88860,note_off,60,0,3,,,,,,,,0,,,,72,64
88860,note_on,0,0,3,,,,,,,,0,,,,70,60
88860,note_off,60,0,4,,,,,,,,12,,,,72,64
88860,note_on,0,0,4,,,,,,,,12,,,,70,45
88920,note_off,60,0,3,,,,,,,,0,,,,70,64
88920,note_on,0,0,3,,,,,,,,0,,,,69,60
88920,note_on,0,0,4,,,,,,,,12,,,,69,45
88920,note_off,60,0,4,,,,,,,,12,,,,70,64
88980,note_on,0,0,3,,,,,,,,0,,,,67,60
88980,note_off,60,0,3,,,,,,,,0,,,,69,64
88980,note_on,0,0,4,,,,,,,,12,,,,67,45
88980,note_off,60,0,4,,,,,,,,12,,,,69,64
89035,note_off,55,0,3,,,,,,,,0,,,,67,64
89035,note_off,55,0,4,,,,,,,,12,,,,67,64
89040,note_on,320,0,11,,,,,,,,7,,,,53,45
89040,note_on,5,0,3,,,,,,,,0,,,,69,60
89040,note_on,320,0,9,,,,,,,,5,,,,57,45
89040,note_on,320,0,8,,,,,,,,4,,,,41,45
89040,note_on,320,0,13,,,,,,,,11,,,,41,45
89040,note_on,5,0,4,,,,,,,,12,,,,69,45
89040,note_on,320,0,5,,,,,,,,1,,,,57,45
89040,note_on,320,0,7,,,,,,,,3,,,,48,45
89040,note_on,0,0,9,,,,,,,,5,,,,63,45
89040,note_on,320,0,12,,,,,,,,8,,,,41,45
89040,note_on,320,0,10,,,,,,,,6,,,,60,45
89040,note_on,0,0,7,,,,,,,,3,,,,53,45
89040,note_on,0,0,5,,,,,,,,1,,,,63,45
89040,note_on,320,0,6,,,,,,,,2,,,,60,45
89100,note_off,60,0,4,,,,,,,,12,,,,69,64
89100,note_on,0,0,4,,,,,,,,12,,,,65,45
89100,note_off,60,0,3,,,,,,,,0,,,,69,64
89100,note_on,0,0,3,,,,,,,,0,,,,65,60
89160,note_off,60,0,4,,,,,,,,12,,,,65,64
89160,note_off,60,0,3,,,,,,,,0,,,,65,64
89160,note_on,0,0,4,,,,,,,,12,,,,67,45
89160,note_on,0,0,3,,,,,,,,0,,,,67,60
89220,note_off,60,0,3,,,,,,,,0,,,,67,64
89220,note_off,60,0,4,,,,,,,,12,,,,67,64
89220,note_on,0,0,4,,,,,,,,12,,,,69,45
89220,note_on,0,0,3,,,,,,,,0,,,,69,60
89280,note_off,60,0,4,,,,,,,,12,,,,69,64
89280,note_off,60,0,3,,,,,,,,0,,,,69,64
89280,note_on,0,0,3,,,,,,,,0,,,,70,60
89280,note_on,0,0,4,,,,,,,,12,,,,70,45
89340,note_off,60,0,3,,,,,,,,0,,,,70,64
89340,note_on,0,0,3,,,,,,,,0,,,,72,60
89340,note_on,0,0,4,,,,,,,,12,,,,72,45
89340,note_off,60,0,4,,,,,,,,12,,,,70,64
89400,note_on,0,0,3,,,,,,,,0,,,,74,60
89400,note_on,0,0,4,,,,,,,,12,,,,74,45
89400,note_off,60,0,4,,,,,,,,12,,,,72,64
89400,note_off,60,0,3,,,,,,,,0,,,,72,64
89440,note_off,400,0,9,,,,,,,,5,,,,63,64
89440,note_off,0,0,9,,,,,,,,5,,,,57,64
89440,note_off,400,0,10,,,,,,,,6,,,,60,64
89440,note_off,400,0,12,,,,,,,,8,,,,41,64
89440,note_off,400,0,5,,,,,,,,1,,,,63,64
89440,note_off,400,0,11,,,,,,,,7,,,,53,64
89440,note_off,0,0,5,,,,,,,,1,,,,57,64
89440,note_off,400,0,8,,,,,,,,4,,,,41,64
89440,note_off,400,0,13,,,,,,,,11,,,,41,64
89440,note_off,400,0,6,,,,,,,,2,,,,60,64
89440,note_off,400,0,7,,,,,,,,3,,,,53,64
89440,note_off,0,0,7,,,,,,,,3,,,,48,64
89460,note_on,0,0,3,,,,,,,,0,,,,75,60
89460,note_off,60,0,3,,,,,,,,0,,,,74,64
89460,note_off,60,0,4,,,,,,,,12,,,,74,64
89460,note_on,0,0,4,,,,,,,,12,,,,75,45
89520,note_off,60,0,3,,,,,,,,0,,,,75,64
89520,note_on,0,0,3,,,,,,,,0,,,,77,60
89520,note_on,0,0,4,,,,,,,,12,,,,77,45
89520,note_off,60,0,4,,,,,,,,12,,,,75,64
89580,note_off,60,0,4,,,,,,,,12,,,,77,64
89580,note_on,0,0,4,,,,,,,,12,,,,75,45
89580,note_off,60,0,3,,,,,,,,0,,,,77,64
89580,note_on,0,0,3,,,,,,,,0,,,,75,60
89640,note_on,0,0,3,,,,,,,,0,,,,74,60
89640,note_off,60,0,3,,,,,,,,0,,,,75,64
89640,note_on,0,0,4,,,,,,,,12,,,,74,45
89640,note_off,60,0,4,,,,,,,,12,,,,75,64
89700,note_off,60,0,4,,,,,,,,12,,,,74,64
89700,note_on,0,0,4,,,,,,,,12,,,,72,45
89700,note_off,60,0,3,,,,,,,,0,,,,74,64
89700,note_on,0,0,3,,,,,,,,0,,,,72,60
89755,note_off,55,0,4,,,,,,,,12,,,,72,64
89755,note_off,55,0,3,,,,,,,,0,,,,72,64
89760,note_on,320,0,12,,,,,,,,8,,,,34,45
89760,note_on,5,0,4,,,,,,,,12,,,,74,45
89760,note_on,0,0,7,,,,,,,,3,,,,53,45
89760,note_on,320,0,10,,,,,,,,6,,,,50,45
89760,note_on,0,0,9,,,,,,,,5,,,,65,45
89760,note_on,320,0,8,,,,,,,,4,,,,34,45
89760,note_on,320,0,9,,,,,,,,5,,,,58,45
89760,note_on,320,0,11,,,,,,,,7,,,,46,45
89760,note_on,320,0,7,,,,,,,,3,,,,46,45
89760,note_on,320,0,6,,,,,,,,2,,,,50,45
89760,note_on,320,0,13,,,,,,,,11,,,,34,45
89760,note_on,0,0,5,,,,,,,,1,,,,65,45
89760,note_on,320,0,5,,,,,,,,1,,,,58,45
89760,note_on,5,0,3,,,,,,,,0,,,,74,60
89820,note_off,60,0,4,,,,,,,,12,,,,74,64
89820,note_on,0,0,3,,,,,,,,0,,,,70,60
89820,note_on,0,0,4,,,,,,,,12,,,,70,45
89820,note_off,60,0,3,,,,,,,,0,,,,74,64
89880,note_off,60,0,4,,,,,,,,12,,,,70,64
89880,note_on,0,0,3,,,,,,,,0,,,,72,60
89880,note_off,60,0,3,,,,,,,,0,,,,70,64
89880,note_on,0,0,4,,,,,,,,12,,,,72,45
89940,note_on,0,0,3,,,,,,,,0,,,,74,60
89940,note_off,60,0,3,,,,,,,,0,,,,72,64
89940,note_on,0,0,4,,,,,,,,12,,,,74,45
89940,note_off,60,0,4,,,,,,,,12,,,,72,64
90000,note_off,60,0,4,,,,,,,,12,,,,74,64
90000,note_on,0,0,4,,,,,,,,12,,,,75,45
90000,note_off,60,0,3,,,,,,,,0,,,,74,64
90000,note_on,0,0,3,,,,,,,,0,,,,75,60
90060,note_off,60,0,3,,,,,,,,0,,,,75,64
90060,note_on,0,0,4,,,,,,,,12,,,,77,46
90060,note_on,0,0,3,,,,,,,,0,,,,77,61
90060,note_off,60,0,4,,,,,,,,12,,,,75,64
90120,note_on,0,0,3,,,,,,,,0,,,,79,62
90120,note_on,0,0,4,,,,,,,,12,,,,79,47
90120,note_off,60,0,4,,,,,,,,12,,,,77,64
90120,note_off,60,0,3,,,,,,,,0,,,,77,64
90160,note_off,400,0,6,,,,,,,,2,,,,50,64
90160,note_off,0,0,9,,,,,,,,5,,,,58,64
90160,note_off,400,0,13,,,,,,,,11,,,,34,64
90160,note_off,400,0,7,,,,,,,,3,,,,53,64
90160,note_off,0,0,7,,,,,,,,3,,,,46,64
90160,note_off,400,0,10,,,,,,,,6,,,,50,64
90160,note_off,400,0,9,,,,,,,,5,,,,65,64
90160,note_off,0,0,5,,,,,,,,1,,,,58,64
90160,note_off,400,0,5,,,,,,,,1,,,,65,64
90160,note_off,400,0,11,,,,,,,,7,,,,46,64
90160,note_off,400,0,12,,,,,,,,8,,,,34,64
90160,note_off,400,0,8,,,,,,,,4,,,,34,64
90180,note_off,60,0,4,,,,,,,,12,,,,79,64
90180,note_on,0,0,4,,,,,,,,12,,,,81,48
90180,note_on,0,0,3,,,,,,,,0,,,,81,63
90180,note_off,60,0,3,,,,,,,,0,,,,79,64
90240,note_on,0,0,4,,,,,,,,12,,,,82,49
90240,note_on,0,0,3,,,,,,,,0,,,,82,64
90240,note_off,60,0,4,,,,,,,,12,,,,81,64
90240,note_off,60,0,3,,,,,,,,0,,,,81,64
90300,note_on,0,0,4,,,,,,,,12,,,,81,50
90300,note_off,60,0,4,,,,,,,,12,,,,82,64
90300,note_off,60,0,3,,,,,,,,0,,,,82,64
90300,note_on,0,0,3,,,,,,,,0,,,,81,65
90360,note_off,60,0,4,,,,,,,,12,,,,81,64
90360,note_off,60,0,3,,,,,,,,0,,,,81,64
90360,note_on,0,0,3,,,,,,,,0,,,,79,66
90360,note_on,0,0,4,,,,,,,,12,,,,79,51
90420,note_off,60,0,4,,,,,,,,12,,,,79,64
90420,note_on,0,0,3,,,,,,,,0,,,,77,68
90420,note_off,60,0,3,,,,,,,,0,,,,79,64
90420,note_on,0,0,4,,,,,,,,12,,,,77,52
90475,note_off,55,0,3,,,,,,,,0,,,,77,64
90475,note_off,55,0,4,,,,,,,,12,,,,77,64
90480,note_on,320,0,7,,,,,,,,3,,,,48,45
90480,note_on,0,0,11,,,,,,,,7,,,,55,45
90480,note_on,320,0,6,,,,,,,,2,,,,52,45
90480,note_on,320,0,8,,,,,,,,4,,,,36,45
90480,note_on,320,0,10,,,,,,,,6,,,,52,45
90480,note_on,5,0,4,,,,,,,,12,,,,76,53
90480,note_on,320,0,9,,,,,,,,5,,,,60,45
90480,note_on,320,0,11,,,,,,,,7,,,,48,45
90480,note_on,5,0,3,,,,,,,,0,,,,76,70
90480,note_on,320,0,5,,,,,,,,1,,,,60,45
90480,note_on,320,0,13,,,,,,,,11,,,,36,45
90480,note_on,0,0,5,,,,,,,,1,,,,67,45
90480,note_on,0,0,9,,,,,,,,5,,,,67,45
90480,note_on,0,0,7,,,,,,,,3,,,,55,45
90480,note_on,320,0,12,,,,,,,,8,,,,36,45
90540,note_off,60,0,4,,,,,,,,12,,,,76,64
90540,note_on,0,0,3,,,,,,,,0,,,,72,72
90540,note_off,60,0,3,,,,,,,,0,,,,76,64
90540,note_on,0,0,4,,,,,,,,12,,,,72,55
90600,note_off,60,0,4,,,,,,,,12,,,,72,64
90600,note_on,0,0,3,,,,,,,,0,,,,74,74
90600,note_off,60,0,3,,,,,,,,0,,,,72,64
90600,note_on,0,0,4,,,,,,,,12,,,,74,57
90660,note_on,0,0,4,,,,,,,,12,,,,76,59
90660,note_off,60,0,4,,,,,,,,12,,,,74,64
90660,note_off,60,0,3,,,,,,,,0,,,,74,64
90660,note_on,0,0,3,,,,,,,,0,,,,76,76
90720,note_off,60,0,4,,,,,,,,12,,,,76,64
90720,note_off,60,0,3,,,,,,,,0,,,,76,64
90720,note_on,0,0,3,,,,,,,,0,,,,77,78
90720,note_on,0,0,4,,,,,,,,12,,,,77,61
90780,note_off,60,0,4,,,,,,,,12,,,,77,64
90780,note_on,0,0,4,,,,,,,,12,,,,79,63
90780,note_off,60,0,3,,,,,,,,0,,,,77,64
90780,note_on,0,0,3,,,,,,,,0,,,,79,80
90840,note_off,60,0,4,,,,,,,,12,,,,79,64
90840,note_on,0,0,4,,,,,,,,12,,,,81,65
90840,note_off,60,0,3,,,,,,,,0,,,,79,64
90840,note_on,0,0,3,,,,,,,,0,,,,81,82
90880,note_off,400,0,5,,,,,,,,1,,,,67,64
90880,note_off,0,0,5,,,,,,,,1,,,,60,64
90880,note_off,400,0,13,,,,,,,,11,,,,36,64
90880,note_off,400,0,9,,,,,,,,5,,,,67,64
90880,note_off,400,0,6,,,,,,,,2,,,,52,64
90880,note_off,400,0,7,,,,,,,,3,,,,55,64
90880,note_off,0,0,7,,,,,,,,3,,,,48,64
90880,note_off,400,0,10,,,,,,,,6,,,,52,64
90880,note_off,400,0,11,,,,,,,,7,,,,55,64
90880,note_off,0,0,11,,,,,,,,7,,,,48,64
90880,note_off,0,0,9,,,,,,,,5,,,,60,64
90880,note_off,400,0,8,,,,,,,,4,,,,36,64
90880,note_off,400,0,12,,,,,,,,8,,,,36,64
90900,note_off,60,0,3,,,,,,,,0,,,,81,64
90900,note_on,0,0,4,,,,,,,,12,,,,82,67
90900,note_off,60,0,4,,,,,,,,12,,,,81,64
90900,note_on,0,0,3,,,,,,,,0,,,,82,84
90960,note_on,0,0,4,,,,,,,,12,,,,84,69
90960,note_off,60,0,4,,,,,,,,12,,,,82,64
90960,note_off,60,0,3,,,,,,,,0,,,,82,64
90960,note_on,0,0,3,,,,,,,,0,,,,84,86
91020,note_off,60,0,3,,,,,,,,0,,,,84,64
91020,note_on,0,0,3,,,,,,,,0,,,,82,88
91020,note_on,0,0,4,,,,,,,,12,,,,82,71
91020,note_off,60,0,4,,,,,,,,12,,,,84,64
91080,note_off,60,0,4,,,,,,,,12,,,,82,64
91080,note_off,60,0,3,,,,,,,,0,,,,82,64
91080,note_on,0,0,3,,,,,,,,0,,,,81,90
91080,note_on,0,0,4,,,,,,,,12,,,,81,73
91140,note_off,60,0,3,,,,,,,,0,,,,81,64
91140,note_on,0,0,4,,,,,,,,12,,,,79,75
91140,note_off,60,0,4,,,,,,,,12,,,,81,64
91140,note_on,0,0,3,,,,,,,,0,,,,79,92
91195,note_off,55,0,4,,,,,,,,12,,,,79,64
91195,note_off,55,0,3,,,,,,,,0,,,,79,64
91200,note_on,320,0,5,,,,,,,,1,,,,65,75
91200,note_on,5,0,4,,,,,,,,12,,,,81,60
91200,note_on,320,0,10,,,,,,,,6,,,,53,75
91200,note_on,320,0,11,,,,,,,,7,,,,53,75
91200,note_on,320,0,9,,,,,,,,5,,,,65,75
91200,note_on,320,0,12,,,,,,,,8,,,,41,75
91200,note_on,320,0,6,,,,,,,,2,,,,53,75
91200,note_on,5,0,3,,,,,,,,0,,,,81,60
91200,note_on,320,0,8,,,,,,,,4,,,,41,75
91255,note_off,55,0,12,,,,,,,,8,,,,41,64
91255,note_off,55,0,10,,,,,,,,6,,,,53,64
91255,note_off,55,0,5,,,,,,,,1,,,,65,64
91255,note_off,55,0,9,,,,,,,,5,,,,65,64
91255,note_off,55,0,8,,,,,,,,4,,,,41,64
91255,note_off,55,0,11,,,,,,,,7,,,,53,64
91255,note_off,55,0,6,,,,,,,,2,,,,53,64
91260,note_on,5,0,5,,,,,,,,1,,,,60,75
91260,note_on,5,0,8,,,,,,,,4,,,,36,75
91260,note_on,5,0,9,,,,,,,,5,,,,60,75
91260,note_on,5,0,11,,,,,,,,7,,,,48,75
91260,note_on,5,0,10,,,,,,,,6,,,,48,75
91260,note_on,5,0,6,,,,,,,,2,,,,48,75
91260,note_on,5,0,12,,,,,,,,8,,,,36,75
91315,note_off,55,0,12,,,,,,,,8,,,,36,64
91315,note_off,55,0,6,,,,,,,,2,,,,48,64
91315,note_off,55,0,5,,,,,,,,1,,,,60,64
91315,note_off,55,0,10,,,,,,,,6,,,,48,64
91315,note_off,55,0,8,,,,,,,,4,,,,36,64
91315,note_off,55,0,11,,,,,,,,7,,,,48,64
91315,note_off,55,0,9,,,,,,,,5,,,,60,64
91320,note_on,5,0,6,,,,,,,,2,,,,53,75
91320,note_on,5,0,5,,,,,,,,1,,,,65,75
91320,note_on,5,0,9,,,,,,,,5,,,,65,75
91320,note_on,5,0,12,,,,,,,,8,,,,41,75
91320,note_on,5,0,8,,,,,,,,4,,,,41,75
91320,note_on,5,0,11,,,,,,,,7,,,,53,75
91320,note_off,120,0,3,,,,,,,,0,,,,81,64
91320,note_off,120,0,4,,,,,,,,12,,,,81,64
91320,note_on,5,0,10,,,,,,,,6,,,,53,75
91375,note_off,55,0,11,,,,,,,,7,,,,53,64
91375,note_off,55,0,12,,,,,,,,8,,,,41,64
91375,note_off,55,0,6,,,,,,,,2,,,,53,64
91375,note_off,55,0,5,,,,,,,,1,,,,65,64
91375,note_off,55,0,10,,,,,,,,6,,,,53,64
91375,note_off,55,0,8,,,,,,,,4,,,,41,64
91375,note_off,55,0,9,,,,,,,,5,,,,65,64
91380,note_on,5,0,8,,,,,,,,4,,,,36,75
91380,note_on,5,0,10,,,,,,,,6,,,,48,75
91380,note_on,5,0,9,,,,,,,,5,,,,60,75
91380,note_on,5,0,11,,,,,,,,7,,,,48,75
91380,note_on,5,0,12,,,,,,,,8,,,,36,75
91380,note_on,5,0,6,,,,,,,,2,,,,48,75
91380,note_on,5,0,5,,,,,,,,1,,,,60,75
91435,note_off,55,0,9,,,,,,,,5,,,,60,64
91435,note_off,55,0,12,,,,,,,,8,,,,36,64
91435,note_off,55,0,10,,,,,,,,6,,,,48,64
91435,note_off,55,0,11,,,,,,,,7,,,,48,64
91435,note_off,55,0,8,,,,,,,,4,,,,36,64
91435,note_off,55,0,5,,,,,,,,1,,,,60,64
91435,note_off,55,0,6,,,,,,,,2,,,,48,64
91440,note_on,5,0,11,,,,,,,,7,,,,53,75
91440,note_on,5,0,6,,,,,,,,2,,,,53,75
91440,note_on,5,0,10,,,,,,,,6,,,,53,75
91440,note_on,5,0,5,,,,,,,,1,,,,65,75
91440,note_on,5,0,12,,,,,,,,8,,,,41,75
91440,note_on,5,0,9,,,,,,,,5,,,,65,75
91440,note_on,5,0,8,,,,,,,,4,,,,41,75
91495,note_off,55,0,9,,,,,,,,5,,,,65,64
91495,note_off,55,0,12,,,,,,,,8,,,,41,64
91495,note_off,55,0,5,,,,,,,,1,,,,65,64
91495,note_off,55,0,10,,,,,,,,6,,,,53,64
91495,note_off,55,0,11,,,,,,,,7,,,,53,64
91495,note_off,55,0,8,,,,,,,,4,,,,41,64
91495,note_off,55,0,6,,,,,,,,2,,,,53,64
91500,note_on,5,0,8,,,,,,,,4,,,,36,75
91500,note_on,5,0,6,,,,,,,,2,,,,48,75
91500,note_on,5,0,9,,,,,,,,5,,,,60,75
91500,note_on,5,0,12,,,,,,,,8,,,,36,75
91500,note_on,5,0,11,,,,,,,,7,,,,48,75
91500,note_on,5,0,10,,,,,,,,6,,,,48,75
91500,note_on,5,0,5,,,,,,,,1,,,,60,75
91555,note_off,55,0,12,,,,,,,,8,,,,36,64
91555,note_off,55,0,10,,,,,,,,6,,,,48,64
91555,note_off,55,0,8,,,,,,,,4,,,,36,64
91555,note_off,55,0,11,,,,,,,,7,,,,48,64
91555,note_off,55,0,9,,,,,,,,5,,,,60,64
91555,note_off,55,0,6,,,,,,,,2,,,,48,64
91555,note_off,55,0,5,,,,,,,,1,,,,60,64
91560,note_on,5,0,8,,,,,,,,4,,,,41,75
91560,note_on,5,0,11,,,,,,,,7,,,,53,75
91560,note_on,5,0,12,,,,,,,,8,,,,41,75
91560,note_on,5,0,5,,,,,,,,1,,,,65,75
91560,note_on,5,0,6,,,,,,,,2,,,,53,75
91560,note_on,5,0,9,,,,,,,,5,,,,65,75
91560,note_on,5,0,10,,,,,,,,6,,,,53,75
91615,note_off,55,0,5,,,,,,,,1,,,,65,64
91615,note_off,55,0,12,,,,,,,,8,,,,41,64
91615,note_off,55,0,9,,,,,,,,5,,,,65,64
91615,note_off,55,0,11,,,,,,,,7,,,,53,64
91615,note_off,55,0,8,,,,,,,,4,,,,41,64
91615,note_off,55,0,10,,,,,,,,6,,,,53,64
91615,note_off,55,0,6,,,,,,,,2,,,,53,64
91620,note_on,5,0,12,,,,,,,,8,,,,36,75
91620,note_on,5,0,10,,,,,,,,6,,,,48,75
91620,note_on,5,0,11,,,,,,,,7,,,,48,75
91620,note_on,5,0,5,,,,,,,,1,,,,60,75
91620,note_on,5,0,6,,,,,,,,2,,,,48,75
91620,note_on,5,0,9,,,,,,,,5,,,,60,75
91620,note_on,5,0,8,,,,,,,,4,,,,36,75
91675,note_off,55,0,8,,,,,,,,4,,,,36,64
91675,note_off,55,0,5,,,,,,,,1,,,,60,64
91675,note_off,55,0,12,,,,,,,,8,,,,36,64
91675,note_off,55,0,6,,,,,,,,2,,,,48,64
91675,note_off,55,0,11,,,,,,,,7,,,,48,64
91675,note_off,55,0,9,,,,,,,,5,,,,60,64
91675,note_off,55,0,10,,,,,,,,6,,,,48,64
91680,note_on,5,0,11,,,,,,,,7,,,,53,75
91680,note_on,5,0,5,,,,,,,,1,,,,65,75
91680,note_on,5,0,6,,,,,,,,2,,,,53,75
91680,note_on,5,0,9,,,,,,,,5,,,,65,75
91680,note_on,5,0,10,,,,,,,,6,,,,53,75
91680,note_on,5,0,8,,,,,,,,4,,,,41,75
91680,note_on,5,0,12,,,,,,,,8,,,,41,75
91735,note_off,55,0,9,,,,,,,,5,,,,65,64
91735,note_off,55,0,11,,,,,,,,7,,,,53,64
91735,note_off,55,0,5,,,,,,,,1,,,,65,64
91735,note_off,55,0,8,,,,,,,,4,,,,41,64
91735,note_off,55,0,10,,,,,,,,6,,,,53,64
91735,note_off,55,0,12,,,,,,,,8,,,,41,64
91735,note_off,55,0,6,,,,,,,,2,,,,53,64
91740,note_on,5,0,9,,,,,,,,5,,,,60,75
91740,note_on,5,0,8,,,,,,,,4,,,,36,75
91740,note_on,5,0,12,,,,,,,,8,,,,36,75
91740,note_on,5,0,11,,,,,,,,7,,,,48,75
91740,note_on,5,0,10,,,,,,,,6,,,,48,75
91740,note_on,5,0,5,,,,,,,,1,,,,60,75
91740,note_on,5,0,6,,,,,,,,2,,,,48,75
91795,note_off,55,0,12,,,,,,,,8,,,,36,64
91795,note_off,55,0,5,,,,,,,,1,,,,60,64
91795,note_off,55,0,9,,,,,,,,5,,,,60,64
91795,note_off,55,0,8,,,,,,,,4,,,,36,64
91795,note_off,55,0,10,,,,,,,,6,,,,48,64
91795,note_off,55,0,11,,,,,,,,7,,,,48,64
91795,note_off,55,0,6,,,,,,,,2,,,,48,64
91800,note_on,5,0,11,,,,,,,,7,,,,53,75
91800,note_on,5,0,9,,,,,,,,5,,,,65,75
91800,note_on,5,0,8,,,,,,,,4,,,,41,75
91800,note_on,5,0,10,,,,,,,,6,,,,53,75
91800,note_on,5,0,12,,,,,,,,8,,,,41,75
91800,note_on,5,0,5,,,,,,,,1,,,,65,75
91800,note_on,5,0,6,,,,,,,,2,,,,53,75
91855,note_off,55,0,11,,,,,,,,7,,,,53,64
91855,note_off,55,0,12,,,,,,,,8,,,,41,64
91855,note_off,55,0,10,,,,,,,,6,,,,53,64
91855,note_off,55,0,9,,,,,,,,5,,,,65,64
91855,note_off,55,0,6,,,,,,,,2,,,,53,64
91855,note_off,55,0,5,,,,,,,,1,,,,65,64
91855,note_off,55,0,8,,,,,,,,4,,,,41,64
91860,note_on,5,0,10,,,,,,,,6,,,,48,75
91860,note_on,5,0,12,,,,,,,,8,,,,36,75
91860,note_on,5,0,5,,,,,,,,1,,,,60,75
91860,note_on,5,0,11,,,,,,,,7,,,,48,75
91860,note_on,5,0,9,,,,,,,,5,,,,60,75
91860,note_on,5,0,6,,,,,,,,2,,,,48,75
91860,note_on,5,0,8,,,,,,,,4,,,,36,75
91915,note_off,55,0,9,,,,,,,,5,,,,60,64
91915,note_off,55,0,8,,,,,,,,4,,,,36,64
91915,note_off,55,0,11,,,,,,,,7,,,,48,64
91915,note_off,55,0,6,,,,,,,,2,,,,48,64
91915,note_off,55,0,10,,,,,,,,6,,,,48,64
91915,note_off,55,0,5,,,,,,,,1,,,,60,64
91915,note_off,55,0,12,,,,,,,,8,,,,36,64
91920,note_on,5,0,8,,,,,,,,4,,,,41,75
91920,note_on,5,0,6,,,,,,,,2,,,,53,75
91920,note_on,5,0,9,,,,,,,,5,,,,65,75
91920,note_on,5,0,10,,,,,,,,6,,,,53,75
91920,note_on,5,0,5,,,,,,,,1,,,,65,75
91920,note_on,5,0,11,,,,,,,,7,,,,53,75
91920,note_on,5,0,12,,,,,,,,8,,,,41,75
91975,note_off,55,0,10,,,,,,,,6,,,,53,64
91975,note_off,55,0,8,,,,,,,,4,,,,41,64
91975,note_off,55,0,11,,,,,,,,7,,,,53,64
91975,note_off,55,0,5,,,,,,,,1,,,,65,64
91975,note_off,55,0,9,,,,,,,,5,,,,65,64
91975,note_off,55,0,6,,,,,,,,2,,,,53,64
91975,note_off,55,0,12,,,,,,,,8,,,,41,64
91980,note_on,5,0,12,,,,,,,,8,,,,36,75
91980,note_on,5,0,6,,,,,,,,2,,,,48,75
91980,note_on,5,0,11,,,,,,,,7,,,,48,75
91980,note_on,5,0,8,,,,,,,,4,,,,36,75
91980,note_on,5,0,9,,,,,,,,5,,,,60,75
91980,note_on,5,0,10,,,,,,,,6,,,,48,75
91980,note_on,5,0,5,,,,,,,,1,,,,60,75
92035,note_off,55,0,5,,,,,,,,1,,,,60,64
92035,note_off,55,0,8,,,,,,,,4,,,,36,64
92035,note_off,55,0,10,,,,,,,,6,,,,48,64
92035,note_off,55,0,6,,,,,,,,2,,,,48,64
92035,note_off,55,0,11,,,,,,,,7,,,,48,64
92035,note_off,55,0,9,,,,,,,,5,,,,60,64
92035,note_off,55,0,12,,,,,,,,8,,,,36,64
92040,note_on,5,0,8,,,,,,,,4,,,,41,75
92040,note_on,5,0,11,,,,,,,,7,,,,53,75
92040,note_on,5,0,12,,,,,,,,8,,,,41,75
92040,note_on,5,0,9,,,,,,,,5,,,,65,75
92040,note_on,5,0,5,,,,,,,,1,,,,65,75
92040,note_on,5,0,6,,,,,,,,2,,,,53,75
92040,note_on,5,0,10,,,,,,,,6,,,,53,75
92095,note_off,55,0,12,,,,,,,,8,,,,41,64
92095,note_off,55,0,5,,,,,,,,1,,,,65,64
92095,note_off,55,0,8,,,,,,,,4,,,,41,64
92095,note_off,55,0,9,,,,,,,,5,,,,65,64
92095,note_off,55,0,6,,,,,,,,2,,,,53,64
92095,note_off,55,0,10,,,,,,,,6,,,,53,64
92095,note_off,55,0,11,,,,,,,,7,,,,53,64
92100,note_on,5,0,5,,,,,,,,1,,,,60,75
92100,note_on,5,0,11,,,,,,,,7,,,,48,75
92100,note_on,5,0,10,,,,,,,,6,,,,48,75
92100,note_on,5,0,9,,,,,,,,5,,,,60,75
92100,note_on,5,0,6,,,,,,,,2,,,,48,75
92100,note_on,5,0,12,,,,,,,,8,,,,36,75
92100,note_on,5,0,8,,,,,,,,4,,,,36,75
92155,note_off,55,0,10,,,,,,,,6,,,,48,64
92155,note_off,55,0,12,,,,,,,,8,,,,36,64
92155,note_off,55,0,11,,,,,,,,7,,,,48,64
92155,note_off,55,0,9,,,,,,,,5,,,,60,64
92155,note_off,55,0,6,,,,,,,,2,,,,48,64
92155,note_off,55,0,5,,,,,,,,1,,,,60,64
92155,note_off,55,0,8,,,,,,,,4,,,,36,64
92160,note_on,5,0,8,,,,,,,,4,,,,41,75
92160,note_on,5,0,11,,,,,,,,7,,,,53,75
92160,note_on,5,0,12,,,,,,,,8,,,,41,75
92160,note_on,5,0,9,,,,,,,,5,,,,65,75
92160,note_on,5,0,10,,,,,,,,6,,,,53,75
92160,note_on,5,0,6,,,,,,,,2,,,,53,75
92160,note_on,5,0,5,,,,,,,,1,,,,65,75
92215,note_off,55,0,8,,,,,,,,4,,,,41,64
92215,note_off,55,0,11,,,,,,,,7,,,,53,64
92215,note_off,55,0,6,,,,,,,,2,,,,53,64
92215,note_off,55,0,9,,,,,,,,5,,,,65,64
92215,note_off,55,0,10,,,,,,,,6,,,,53,64
92215,note_off,55,0,5,,,,,,,,1,,,,65,64
92215,note_off,55,0,12,,,,,,,,8,,,,41,64
92220,note_on,5,0,6,,,,,,,,2,,,,48,75
92220,note_on,5,0,5,,,,,,,,1,,,,60,75
92220,note_on,5,0,12,,,,,,,,8,,,,36,75
92220,note_on,5,0,11,,,,,,,,7,,,,48,75
92220,note_on,5,0,10,,,,,,,,6,,,,48,75
92220,note_on,5,0,9,,,,,,,,5,,,,60,75
92220,note_on,5,0,8,,,,,,,,4,,,,36,75
92275,note_off,55,0,5,,,,,,,,1,,,,60,64
92275,note_off,55,0,10,,,,,,,,6,,,,48,64
92275,note_off,55,0,8,,,,,,,,4,,,,36,64
92275,note_off,55,0,6,,,,,,,,2,,,,48,64
92275,note_off,55,0,9,,,,,,,,5,,,,60,64
92275,note_off,55,0,12,,,,,,,,8,,,,36,64
92275,note_off,55,0,11,,,,,,,,7,,,,48,64
92280,note_on,5,0,8,,,,,,,,4,,,,41,75
92280,note_on,5,0,10,,,,,,,,6,,,,53,75
92280,note_on,5,0,9,,,,,,,,5,,,,65,75
92280,note_on,5,0,6,,,,,,,,2,,,,53,75
92280,note_on,5,0,11,,,,,,,,7,,,,53,75
92280,note_on,5,0,12,,,,,,,,8,,,,41,75
92280,note_on,5,0,5,,,,,,,,1,,,,65,75
92335,note_off,55,0,5,,,,,,,,1,,,,65,64
92335,note_off,55,0,6,,,,,,,,2,,,,53,64
92335,note_off,55,0,12,,,,,,,,8,,,,41,64
92335,note_off,55,0,8,,,,,,,,4,,,,41,64
92335,note_off,55,0,10,,,,,,,,6,,,,53,64
92335,note_off,55,0,11,,,,,,,,7,,,,53,64
92335,note_off,55,0,9,,,,,,,,5,,,,65,64
92340,note_on,5,0,10,,,,,,,,6,,,,48,75
92340,note_on,5,0,12,,,,,,,,8,,,,36,75
92340,note_on,5,0,5,,,,,,,,1,,,,60,75
92340,note_on,5,0,11,,,,,,,,7,,,,48,75
92340,note_on,5,0,8,,,,,,,,4,,,,36,75
92340,note_on,5,0,6,,,,,,,,2,,,,48,75
92340,note_on,5,0,9,,,,,,,,5,,,,60,75
92395,note_off,55,0,8,,,,,,,,4,,,,36,64
92395,note_off,55,0,11,,,,,,,,7,,,,48,64
92395,note_off,55,0,5,,,,,,,,1,,,,60,64
92395,note_off,55,0,9,,,,,,,,5,,,,60,64
92395,note_off,55,0,10,,,,,,,,6,,,,48,64
92395,note_off,55,0,6,,,,,,,,2,,,,48,64
92395,note_off,55,0,12,,,,,,,,8,,,,36,64
92400,note_on,5,0,12,,,,,,,,8,,,,41,75
92400,note_on,5,0,6,,,,,,,,2,,,,53,75
92400,note_on,5,0,5,,,,,,,,1,,,,65,75
92400,note_on,5,0,8,,,,,,,,4,,,,41,75
92400,note_on,5,0,9,,,,,,,,5,,,,65,75
92400,note_on,5,0,10,,,,,,,,6,,,,53,75
92400,note_on,5,0,11,,,,,,,,7,,,,53,75
92455,note_off,55,0,6,,,,,,,,2,,,,53,64
92455,note_off,55,0,9,,,,,,,,5,,,,65,64
92455,note_off,55,0,11,,,,,,,,7,,,,53,64
92455,note_off,55,0,5,,,,,,,,1,,,,65,64
92455,note_off,55,0,8,,,,,,,,4,,,,41,64
92455,note_off,55,0,12,,,,,,,,8,,,,41,64
92455,note_off,55,0,10,,,,,,,,6,,,,53,64
92460,note_on,5,0,8,,,,,,,,4,,,,36,75
92460,note_on,5,0,12,,,,,,,,8,,,,36,75
92460,note_on,5,0,10,,,,,,,,6,,,,48,75
92460,note_on,5,0,6,,,,,,,,2,,,,48,75
92460,note_on,5,0,9,,,,,,,,5,,,,60,75
92460,note_on,5,0,11,,,,,,,,7,,,,48,75
92460,note_on,5,0,5,,,,,,,,1,,,,60,75
92515,note_off,55,0,8,,,,,,,,4,,,,36,64
92515,note_off,55,0,9,,,,,,,,5,,,,60,64
92515,note_off,55,0,12,,,,,,,,8,,,,36,64
92515,note_off,55,0,5,,,,,,,,1,,,,60,64
92515,note_off,55,0,6,,,,,,,,2,,,,48,64
92515,note_off,55,0,11,,,,,,,,7,,,,48,64
92515,note_off,55,0,10,,,,,,,,6,,,,48,64
92520,note_on,5,0,11,,,,,,,,7,,,,53,75
92520,note_on,5,0,8,,,,,,,,4,,,,41,75
92520,note_on,5,0,6,,,,,,,,2,,,,53,75
92520,note_on,5,0,9,,,,,,,,5,,,,65,75
92520,note_on,5,0,5,,,,,,,,1,,,,65,75
92520,note_on,5,0,10,,,,,,,,6,,,,53,75
92520,note_on,5,0,12,,,,,,,,8,,,,41,75
92575,note_off,55,0,9,,,,,,,,5,,,,65,64
92575,note_off,55,0,5,,,,,,,,1,,,,65,64
92575,note_off,55,0,6,,,,,,,,2,,,,53,64
92575,note_off,55,0,10,,,,,,,,6,,,,53,64
92575,note_off,55,0,12,,,,,,,,8,,,,41,64
92575,note_off,55,0,11,,,,,,,,7,,,,53,64
92575,note_off,55,0,8,,,,,,,,4,,,,41,64
92580,note_on,5,0,8,,,,,,,,4,,,,36,75
92580,note_on,5,0,5,,,,,,,,1,,,,60,75
92580,note_on,5,0,11,,,,,,,,7,,,,48,75
92580,note_on,5,0,9,,,,,,,,5,,,,60,75
92580,note_on,5,0,10,,,,,,,,6,,,,48,75
92580,note_on,5,0,12,,,,,,,,8,,,,36,75
92580,note_on,5,0,6,,,,,,,,2,,,,48,75
92635,note_off,55,0,6,,,,,,,,2,,,,48,64
92635,note_off,55,0,11,,,,,,,,7,,,,48,64
92635,note_off,55,0,9,,,,,,,,5,,,,60,64
92635,note_off,55,0,5,,,,,,,,1,,,,60,64
92635,note_off,55,0,8,,,,,,,,4,,,,36,64
92635,note_off,55,0,10,,,,,,,,6,,,,48,64
92635,note_off,55,0,12,,,,,,,,8,,,,36,64
92640,note_on,5,0,11,,,,,,,,7,,,,53,75
92640,note_on,5,0,9,,,,,,,,5,,,,65,75
92640,note_on,5,0,5,,,,,,,,1,,,,65,75
92640,note_on,1760,0,13,,,,,,,,11,,,,41,45
92640,note_on,5,0,12,,,,,,,,8,,,,41,75
92640,note_on,5,0,10,,,,,,,,6,,,,53,75
92640,note_on,5,0,6,,,,,,,,2,,,,53,75
92640,note_on,5,0,8,,,,,,,,4,,,,41,75
92700,note_on,1380,0,3,,,,,,,,0,,,,77,92
92700,note_on,1380,0,4,,,,,,,,12,,,,77,75
92760,note_on,0,0,4,,,,,,,,12,,,,81,75
92760,note_off,60,0,4,,,,,,,,12,,,,77,64
92760,note_on,0,0,3,,,,,,,,0,,,,81,92
92760,note_off,60,0,3,,,,,,,,0,,,,77,64
92800,note_off,40,0,3,,,,,,,,0,,,,81,64
92800,note_off,40,0,4,,,,,,,,12,,,,81,64
92820,note_on,20,0,3,,,,,,,,0,,,,79,92
92820,note_on,20,0,4,,,,,,,,12,,,,79,75
92860,note_off,40,0,3,,,,,,,,0,,,,79,64
92860,note_off,40,0,4,,,,,,,,12,,,,79,64
92880,note_on,20,0,4,,,,,,,,12,,,,77,75
92880,note_on,20,0,3,,,,,,,,0,,,,77,92
92920,note_off,40,0,4,,,,,,,,12,,,,77,64
92920,note_off,40,0,3,,,,,,,,0,,,,77,64
92940,note_on,20,0,4,,,,,,,,12,,,,76,75
92940,note_on,20,0,3,,,,,,,,0,,,,76,92
92980,note_off,40,0,3,,,,,,,,0,,,,76,64
92980,note_off,40,0,4,,,,,,,,12,,,,76,64
93000,note_on,20,0,3,,,,,,,,0,,,,74,92
93000,note_on,20,0,4,,,,,,,,12,,,,74,75
93040,note_off,400,0,13,,,,,,,,11,,,,41,64
93040,note_off,400,0,5,,,,,,,,1,,,,65,64
93040,note_off,40,0,3,,,,,,,,0,,,,74,64
93040,note_off,40,0,4,,,,,,,,12,,,,74,64
93040,note_off,400,0,8,,,,,,,,4,,,,41,64
93040,note_off,400,0,9,,,,,,,,5,,,,65,64
93040,note_off,400,0,10,,,,,,,,6,,,,53,64
93040,note_off,400,0,11,,,,,,,,7,,,,53,64
93040,note_off,400,0,12,,,,,,,,8,,,,41,64
93040,note_off,400,0,6,,,,,,,,2,,,,53,64
93060,note_on,20,0,4,,,,,,,,12,,,,72,75
93060,note_on,20,0,3,,,,,,,,0,,,,72,92
93100,note_off,40,0,4,,,,,,,,12,,,,72,64
93100,note_off,40,0,3,,,,,,,,0,,,,72,64
93120,note_on,20,0,4,,,,,,,,12,,,,70,75
93120,note_on,20,0,3,,,,,,,,0,,,,70,92
93160,note_off,40,0,3,,,,,,,,0,,,,70,64
93160,note_off,40,0,4,,,,,,,,12,,,,70,64
93180,note_on,20,0,4,,,,,,,,12,,,,69,75
93180,note_on,20,0,3,,,,,,,,0,,,,69,92
93220,note_off,40,0,3,,,,,,,,0,,,,69,64
93220,note_off,40,0,4,,,,,,,,12,,,,69,64
93240,note_on,20,0,4,,,,,,,,12,,,,67,75
93240,note_on,20,0,3,,,,,,,,0,,,,67,92
93280,note_off,40,0,4,,,,,,,,12,,,,67,64
93280,note_off,40,0,3,,,,,,,,0,,,,67,64
93300,note_on,20,0,3,,,,,,,,0,,,,65,92
93300,note_on,20,0,4,,,,,,,,12,,,,65,75
93340,note_off,40,0,3,,,,,,,,0,,,,65,64
93340,note_off,40,0,4,,,,,,,,12,,,,65,64
93360,note_on,320,0,10,,,,,,,,6,,,,55,75
93360,note_on,320,0,9,,,,,,,,5,,,,64,75
93360,note_on,2480,0,7,,,,,,,,3,,,,52,75
93360,note_on,320,0,8,,,,,,,,4,,,,40,75
93360,note_on,20,0,3,,,,,,,,0,,,,60,92
93360,note_on,320,0,5,,,,,,,,1,,,,64,75
93360,note_on,20,0,4,,,,,,,,12,,,,60,75
93360,note_on,320,0,6,,,,,,,,2,,,,55,75
93360,note_on,320,0,11,,,,,,,,7,,,,52,75
93360,note_on,320,0,12,,,,,,,,8,,,,40,75
93415,note_off,55,0,9,,,,,,,,5,,,,64,64
93415,note_off,55,0,10,,,,,,,,6,,,,55,64
93415,note_off,55,0,11,,,,,,,,7,,,,52,64
93415,note_off,55,0,8,,,,,,,,4,,,,40,64
93415,note_off,55,0,7,,,,,,,,3,,,,52,64
93415,note_off,55,0,5,,,,,,,,1,,,,64,64
93415,note_off,55,0,12,,,,,,,,8,,,,40,64
93415,note_off,55,0,6,,,,,,,,2,,,,55,64
93420,note_on,5,0,7,,,,,,,,3,,,,48,75
93420,note_on,5,0,12,,,,,,,,8,,,,36,75
93420,note_on,5,0,9,,,,,,,,5,,,,60,75
93420,note_on,5,0,8,,,,,,,,4,,,,36,75
93420,note_on,5,0,10,,,,,,,,6,,,,52,75
93420,note_on,5,0,11,,,,,,,,7,,,,48,75
93420,note_on,5,0,6,,,,,,,,2,,,,52,75
93420,note_on,5,0,5,,,,,,,,1,,,,60,75
93475,note_off,55,0,10,,,,,,,,6,,,,52,64
93475,note_off,55,0,7,,,,,,,,3,,,,48,64
93475,note_off,55,0,5,,,,,,,,1,,,,60,64
93475,note_off,55,0,12,,,,,,,,8,,,,36,64
93475,note_off,55,0,6,,,,,,,,2,,,,52,64
93475,note_off,55,0,11,,,,,,,,7,,,,48,64
93475,note_off,55,0,8,,,,,,,,4,,,,36,64
93475,note_off,55,0,9,,,,,,,,5,,,,60,64
93480,note_on,5,0,10,,,,,,,,6,,,,55,75
93480,note_on,5,0,5,,,,,,,,1,,,,64,75
93480,note_on,5,0,8,,,,,,,,4,,,,40,75
93480,note_on,5,0,12,,,,,,,,8,,,,40,75
93480,note_on,5,0,7,,,,,,,,3,,,,52,75
93480,note_on,5,0,11,,,,,,,,7,,,,52,75
93480,note_on,5,0,6,,,,,,,,2,,,,55,75
93480,note_on,5,0,9,,,,,,,,5,,,,64,75
93535,note_off,55,0,9,,,,,,,,5,,,,64,64
93535,note_off,55,0,8,,,,,,,,4,,,,40,64
93535,note_off,55,0,11,,,,,,,,7,,,,52,64
93535,note_off,55,0,7,,,,,,,,3,,,,52,64
93535,note_off,55,0,12,,,,,,,,8,,,,40,64
93535,note_off,55,0,5,,,,,,,,1,,,,64,64
93535,note_off,55,0,6,,,,,,,,2,,,,55,64
93535,note_off,55,0,10,,,,,,,,6,,,,55,64
93540,note_on,5,0,8,,,,,,,,4,,,,36,75
93540,note_on,5,0,7,,,,,,,,3,,,,48,75
93540,note_on,5,0,12,,,,,,,,8,,,,36,75
93540,note_on,5,0,5,,,,,,,,1,,,,60,75
93540,note_on,5,0,10,,,,,,,,6,,,,52,75
93540,note_on,5,0,11,,,,,,,,7,,,,48,75
93540,note_on,5,0,9,,,,,,,,5,,,,60,75
93540,note_on,5,0,6,,,,,,,,2,,,,52,75
93595,note_off,55,0,10,,,,,,,,6,,,,52,64
93595,note_off,55,0,5,,,,,,,,1,,,,60,64
93595,note_off,55,0,8,,,,,,,,4,,,,36,64
93595,note_off,55,0,11,,,,,,,,7,,,,48,64
93595,note_off,55,0,6,,,,,,,,2,,,,52,64
93595,note_off,55,0,9,,,,,,,,5,,,,60,64
93595,note_off,55,0,7,,,,,,,,3,,,,48,64
93595,note_off,55,0,12,,,,,,,,8,,,,36,64
93600,note_on,5,0,10,,,,,,,,6,,,,55,75
93600,note_on,5,0,5,,,,,,,,1,,,,64,75
93600,note_on,5,0,6,,,,,,,,2,,,,55,75
93600,note_on,5,0,12,,,,,,,,8,,,,40,75
93600,note_on,5,0,8,,,,,,,,4,,,,40,75
93600,note_on,5,0,9,,,,,,,,5,,,,64,75
93600,note_on,5,0,11,,,,,,,,7,,,,52,75
93600,note_on,5,0,7,,,,,,,,3,,,,52,75
93655,note_off,55,0,11,,,,,,,,7,,,,52,64
93655,note_off,55,0,7,,,,,,,,3,,,,52,64
93655,note_off,55,0,8,,,,,,,,4,,,,40,64
93655,note_off,55,0,6,,,,,,,,2,,,,55,64
93655,note_off,55,0,5,,,,,,,,1,,,,64,64
93655,note_off,55,0,9,,,,,,,,5,,,,64,64
93655,note_off,55,0,10,,,,,,,,6,,,,55,64
93655,note_off,55,0,12,,,,,,,,8,,,,40,64
93660,note_on,5,0,7,,,,,,,,3,,,,48,75
93660,note_on,5,0,5,,,,,,,,1,,,,60,75
93660,note_on,5,0,11,,,,,,,,7,,,,48,75
93660,note_on,5,0,12,,,,,,,,8,,,,36,75
93660,note_on,5,0,8,,,,,,,,4,,,,36,75
93660,note_on,5,0,10,,,,,,,,6,,,,52,75
93660,note_on,5,0,9,,,,,,,,5,,,,60,75
93660,note_on,5,0,6,,,,,,,,2,,,,52,75
93715,note_off,55,0,7,,,,,,,,3,,,,48,64
93715,note_off,55,0,6,,,,,,,,2,,,,52,64
93715,note_off,55,0,11,,,,,,,,7,,,,48,64
93715,note_off,55,0,8,,,,,,,,4,,,,36,64
93715,note_off,55,0,12,,,,,,,,8,,,,36,64
93715,note_off,55,0,9,,,,,,,,5,,,,60,64
93715,note_off,55,0,5,,,,,,,,1,,,,60,64
93715,note_off,55,0,10,,,,,,,,6,,,,52,64
93720,note_on,5,0,9,,,,,,,,5,,,,64,75
93720,note_on,5,0,5,,,,,,,,1,,,,64,75
93720,note_on,5,0,7,,,,,,,,3,,,,52,75
93720,note_on,5,0,11,,,,,,,,7,,,,52,75
93720,note_on,5,0,6,,,,,,,,2,,,,55,75
93720,note_on,5,0,10,,,,,,,,6,,,,55,75
93720,note_on,5,0,12,,,,,,,,8,,,,40,75
93720,note_on,5,0,8,,,,,,,,4,,,,40,75
93775,note_off,55,0,12,,,,,,,,8,,,,40,64
93775,note_off,55,0,11,,,,,,,,7,,,,52,64
93775,note_off,55,0,8,,,,,,,,4,,,,40,64
93775,note_off,55,0,9,,,,,,,,5,,,,64,64
93775,note_off,55,0,5,,,,,,,,1,,,,64,64
93775,note_off,55,0,10,,,,,,,,6,,,,55,64
93775,note_off,55,0,6,,,,,,,,2,,,,55,64
93775,note_off,55,0,7,,,,,,,,3,,,,52,64
93780,note_on,5,0,11,,,,,,,,7,,,,48,75
93780,note_on,5,0,9,,,,,,,,5,,,,60,75
93780,note_on,5,0,5,,,,,,,,1,,,,60,75
93780,note_on,5,0,10,,,,,,,,6,,,,52,75
93780,note_on,5,0,7,,,,,,,,3,,,,48,75
93780,note_on,5,0,12,,,,,,,,8,,,,36,75
93780,note_on,5,0,6,,,,,,,,2,,,,52,75
93780,note_on,5,0,8,,,,,,,,4,,,,36,75
93835,note_off,55,0,5,,,,,,,,1,,,,60,64
93835,note_off,55,0,11,,,,,,,,7,,,,48,64
93835,note_off,55,0,7,,,,,,,,3,,,,48,64
93835,note_off,55,0,12,,,,,,,,8,,,,36,64
93835,note_off,55,0,8,,,,,,,,4,,,,36,64
93835,note_off,55,0,6,,,,,,,,2,,,,52,64
93835,note_off,55,0,10,,,,,,,,6,,,,52,64
93835,note_off,55,0,9,,,,,,,,5,,,,60,64
93840,note_on,5,0,9,,,,,,,,5,,,,64,75
93840,note_on,5,0,12,,,,,,,,8,,,,40,75
93840,note_on,5,0,11,,,,,,,,7,,,,52,75
93840,note_on,5,0,5,,,,,,,,1,,,,64,75
93840,note_on,5,0,6,,,,,,,,2,,,,55,75
93840,note_on,5,0,8,,,,,,,,4,,,,40,75
93840,note_on,5,0,7,,,,,,,,3,,,,52,75
93840,note_on,5,0,10,,,,,,,,6,,,,55,75
93895,note_off,55,0,10,,,,,,,,6,,,,55,64
93895,note_off,55,0,11,,,,,,,,7,,,,52,64
93895,note_off,55,0,6,,,,,,,,2,,,,55,64
93895,note_off,55,0,5,,,,,,,,1,,,,64,64
93895,note_off,55,0,9,,,,,,,,5,,,,64,64
93895,note_off,55,0,7,,,,,,,,3,,,,52,64
93895,note_off,55,0,8,,,,,,,,4,,,,40,64
93895,note_off,55,0,12,,,,,,,,8,,,,40,64
93900,note_on,5,0,10,,,,,,,,6,,,,52,75
93900,note_on,5,0,11,,,,,,,,7,,,,48,75
93900,note_on,5,0,12,,,,,,,,8,,,,36,75
93900,note_on,5,0,9,,,,,,,,5,,,,60,75
93900,note_on,5,0,7,,,,,,,,3,,,,48,75
93900,note_on,5,0,8,,,,,,,,4,,,,36,75
93900,note_on,5,0,5,,,,,,,,1,,,,60,75
93900,note_on,5,0,6,,,,,,,,2,,,,52,75
93955,note_off,55,0,8,,,,,,,,4,,,,36,64
93955,note_off,55,0,12,,,,,,,,8,,,,36,64
93955,note_off,55,0,7,,,,,,,,3,,,,48,64
93955,note_off,55,0,5,,,,,,,,1,,,,60,64
93955,note_off,55,0,11,,,,,,,,7,,,,48,64
93955,note_off,55,0,6,,,,,,,,2,,,,52,64
93955,note_off,55,0,10,,,,,,,,6,,,,52,64
93955,note_off,55,0,9,,,,,,,,5,,,,60,64
93960,note_on,5,0,9,,,,,,,,5,,,,64,75
93960,note_on,5,0,6,,,,,,,,2,,,,55,75
93960,note_on,5,0,12,,,,,,,,8,,,,40,75
93960,note_on,5,0,7,,,,,,,,3,,,,52,75
93960,note_on,5,0,11,,,,,,,,7,,,,52,75
93960,note_on,5,0,10,,,,,,,,6,,,,55,75
93960,note_on,5,0,5,,,,,,,,1,,,,64,75
93960,note_on,5,0,8,,,,,,,,4,,,,40,75
94015,note_off,55,0,9,,,,,,,,5,,,,64,64
94015,note_off,55,0,7,,,,,,,,3,,,,52,64
94015,note_off,55,0,11,,,,,,,,7,,,,52,64
94015,note_off,55,0,6,,,,,,,,2,,,,55,64
94015,note_off,55,0,8,,,,,,,,4,,,,40,64
94015,note_off,55,0,10,,,,,,,,6,,,,55,64
94015,note_off,55,0,5,,,,,,,,1,,,,64,64
94015,note_off,55,0,12,,,,,,,,8,,,,40,64
94020,note_on,5,0,12,,,,,,,,8,,,,36,75
94020,note_on,5,0,7,,,,,,,,3,,,,48,75
94020,note_on,5,0,11,,,,,,,,7,,,,48,75
94020,note_on,5,0,5,,,,,,,,1,,,,60,75
94020,note_on,5,0,6,,,,,,,,2,,,,52,75
94020,note_on,5,0,10,,,,,,,,6,,,,52,75
94020,note_on,5,0,8,,,,,,,,4,,,,36,75
94020,note_on,5,0,9,,,,,,,,5,,,,60,75
94075,note_off,55,0,10,,,,,,,,6,,,,52,64
94075,note_off,55,0,8,,,,,,,,4,,,,36,64
94075,note_off,55,0,6,,,,,,,,2,,,,52,64
94075,note_off,55,0,7,,,,,,,,3,,,,48,64
94075,note_off,55,0,9,,,,,,,,5,,,,60,64
94075,note_off,55,0,5,,,,,,,,1,,,,60,64
94075,note_off,55,0,12,,,,,,,,8,,,,36,64
94075,note_off,55,0,11,,,,,,,,7,,,,48,64
94080,note_on,5,0,5,,,,,,,,1,,,,64,75
94080,note_on,5,0,6,,,,,,,,2,,,,55,75
94080,note_on,5,0,10,,,,,,,,6,,,,55,75
94080,note_on,5,0,12,,,,,,,,8,,,,40,75
94080,note_on,5,0,7,,,,,,,,3,,,,52,75
94080,note_on,5,0,11,,,,,,,,7,,,,52,75
94080,note_on,5,0,8,,,,,,,,4,,,,40,75
94080,note_on,1040,0,13,,,,,,,,11,,,,40,45
94080,note_on,5,0,9,,,,,,,,5,,,,64,75
94135,note_off,775,0,4,,,,,,,,12,,,,60,64
94135,note_off,775,0,3,,,,,,,,0,,,,60,64
94140,note_on,5,0,3,,,,,,,,0,,,,79,92
94140,note_on,5,0,4,,,,,,,,12,,,,79,75
94200,note_off,60,0,3,,,,,,,,0,,,,79,64
94200,note_off,60,0,4,,,,,,,,12,,,,79,64
94200,note_on,0,0,3,,,,,,,,0,,,,82,92
94200,note_on,0,0,4,,,,,,,,12,,,,82,75
94240,note_off,40,0,4,,,,,,,,12,,,,82,64
94240,note_off,40,0,3,,,,,,,,0,,,,82,64
94260,note_on,20,0,4,,,,,,,,12,,,,81,75
94260,note_on,20,0,3,,,,,,,,0,,,,81,92
94300,note_off,40,0,3,,,,,,,,0,,,,81,64
94300,note_off,40,0,4,,,,,,,,12,,,,81,64
94320,note_on,20,0,3,,,,,,,,0,,,,79,92
94320,note_on,20,0,4,,,,,,,,12,,,,79,75
94360,note_off,40,0,3,,,,,,,,0,,,,79,64
94360,note_off,40,0,4,,,,,,,,12,,,,79,64
94380,note_on,20,0,4,,,,,,,,12,,,,77,75
94380,note_on,20,0,3,,,,,,,,0,,,,77,92
94420,note_off,40,0,3,,,,,,,,0,,,,77,64
94420,note_off,40,0,4,,,,,,,,12,,,,77,64
94440,note_on,20,0,3,,,,,,,,0,,,,76,92
94440,note_on,20,0,4,,,,,,,,12,,,,76,75
94480,note_off,400,0,5,,,,,,,,1,,,,64,64
94480,note_off,400,0,13,,,,,,,,11,,,,40,64
94480,note_off,400,0,7,,,,,,,,3,,,,52,64
94480,note_off,40,0,3,,,,,,,,0,,,,76,64
94480,note_off,400,0,8,,,,,,,,4,,,,40,64
94480,note_off,400,0,12,,,,,,,,8,,,,40,64
94480,note_off,400,0,11,,,,,,,,7,,,,52,64
94480,note_off,400,0,6,,,,,,,,2,,,,55,64
94480,note_off,400,0,10,,,,,,,,6,,,,55,64
94480,note_off,40,0,4,,,,,,,,12,,,,76,64
94480,note_off,400,0,9,,,,,,,,5,,,,64,64
94500,note_on,20,0,3,,,,,,,,0,,,,74,92
94500,note_on,20,0,4,,,,,,,,12,,,,74,75
94540,note_off,40,0,3,,,,,,,,0,,,,74,64
94540,note_off,40,0,4,,,,,,,,12,,,,74,64
94560,note_on,20,0,4,,,,,,,,12,,,,72,75
94560,note_on,20,0,3,,,,,,,,0,,,,72,92
94600,note_off,40,0,3,,,,,,,,0,,,,72,64
94600,note_off,40,0,4,,,,,,,,12,,,,72,64
94620,note_on,20,0,3,,,,,,,,0,,,,70,92
94620,note_on,20,0,4,,,,,,,,12,,,,70,75
94660,note_off,40,0,3,,,,,,,,0,,,,70,64
94660,note_off,40,0,4,,,,,,,,12,,,,70,64
94680,note_on,20,0,4,,,,,,,,12,,,,69,75
94680,note_on,20,0,3,,,,,,,,0,,,,69,92
94720,note_off,40,0,4,,,,,,,,12,,,,69,64
94720,note_off,40,0,3,,,,,,,,0,,,,69,64
94740,note_on,20,0,4,,,,,,,,12,,,,67,75
94740,note_on,20,0,3,,,,,,,,0,,,,67,92
94780,note_off,40,0,4,,,,,,,,12,,,,67,64
94780,note_off,40,0,3,,,,,,,,0,,,,67,64
94800,note_on,320,0,9,,,,,,,,5,,,,65,75
94800,note_on,320,0,7,,,,,,,,3,,,,53,75
94800,note_on,20,0,3,,,,,,,,0,,,,65,92
94800,note_on,320,0,10,,,,,,,,6,,,,57,75
94800,note_on,320,0,6,,,,,,,,2,,,,57,75
94800,note_on,20,0,4,,,,,,,,12,,,,65,75
94800,note_on,320,0,5,,,,,,,,1,,,,65,75
94800,note_on,320,0,8,,,,,,,,4,,,,41,75
94800,note_on,320,0,12,,,,,,,,8,,,,41,75
94800,note_on,320,0,11,,,,,,,,7,,,,53,75
94855,note_off,55,0,6,,,,,,,,2,,,,57,64
94855,note_off,55,0,7,,,,,,,,3,,,,53,64
94855,note_off,55,0,11,,,,,,,,7,,,,53,64
94855,note_off,55,0,10,,,,,,,,6,,,,57,64
94855,note_off,55,0,5,,,,,,,,1,,,,65,64
94855,note_off,55,0,8,,,,,,,,4,,,,41,64
94855,note_off,55,0,9,,,,,,,,5,,,,65,64
94855,note_off,55,0,12,,,,,,,,8,,,,41,64
94860,note_on,5,0,6,,,,,,,,2,,,,48,75
94860,note_on,5,0,12,,,,,,,,8,,,,33,75
94860,note_on,5,0,9,,,,,,,,5,,,,57,75
94860,note_on,5,0,8,,,,,,,,4,,,,33,75
94860,note_on,5,0,5,,,,,,,,1,,,,57,75
94860,note_on,5,0,10,,,,,,,,6,,,,48,75
94860,note_on,5,0,11,,,,,,,,7,,,,45,75
94860,note_on,5,0,7,,,,,,,,3,,,,45,75
94915,note_off,55,0,6,,,,,,,,2,,,,48,64
94915,note_off,55,0,10,,,,,,,,6,,,,48,64
94915,note_off,55,0,9,,,,,,,,5,,,,57,64
94915,note_off,55,0,12,,,,,,,,8,,,,33,64
94915,note_off,55,0,8,,,,,,,,4,,,,33,64
94915,note_off,55,0,5,,,,,,,,1,,,,57,64
94915,note_off,55,0,11,,,,,,,,7,,,,45,64
94915,note_off,55,0,7,,,,,,,,3,,,,45,64
94920,note_on,5,0,7,,,,,,,,3,,,,53,75
94920,note_on,5,0,6,,,,,,,,2,,,,57,75
94920,note_on,5,0,11,,,,,,,,7,,,,53,75
94920,note_on,5,0,10,,,,,,,,6,,,,57,75
94920,note_on,5,0,5,,,,,,,,1,,,,65,75
94920,note_on,5,0,8,,,,,,,,4,,,,41,75
94920,note_on,5,0,12,,,,,,,,8,,,,41,75
94920,note_on,5,0,9,,,,,,,,5,,,,65,75
94975,note_off,55,0,7,,,,,,,,3,,,,53,64
94975,note_off,55,0,9,,,,,,,,5,,,,65,64
94975,note_off,55,0,11,,,,,,,,7,,,,53,64
94975,note_off,55,0,6,,,,,,,,2,,,,57,64
94975,note_off,55,0,8,,,,,,,,4,,,,41,64
94975,note_off,55,0,5,,,,,,,,1,,,,65,64
94975,note_off,55,0,10,,,,,,,,6,,,,57,64
94975,note_off,55,0,12,,,,,,,,8,,,,41,64
94980,note_on,5,0,9,,,,,,,,5,,,,57,75
94980,note_on,5,0,5,,,,,,,,1,,,,57,75
94980,note_on,5,0,6,,,,,,,,2,,,,48,75
94980,note_on,5,0,11,,,,,,,,7,,,,45,75
94980,note_on,5,0,7,,,,,,,,3,,,,45,75
94980,note_on,5,0,8,,,,,,,,4,,,,33,75
94980,note_on,5,0,12,,,,,,,,8,,,,33,75
94980,note_on,5,0,10,,,,,,,,6,,,,48,75
95035,note_off,55,0,5,,,,,,,,1,,,,57,64
95035,note_off,55,0,12,,,,,,,,8,,,,33,64
95035,note_off,55,0,7,,,,,,,,3,,,,45,64
95035,note_off,55,0,9,,,,,,,,5,,,,57,64
95035,note_off,55,0,10,,,,,,,,6,,,,48,64
95035,note_off,55,0,11,,,,,,,,7,,,,45,64
95035,note_off,55,0,6,,,,,,,,2,,,,48,64
95035,note_off,55,0,8,,,,,,,,4,,,,33,64
95040,note_on,5,0,6,,,,,,,,2,,,,57,75
95040,note_on,5,0,5,,,,,,,,1,,,,65,75
95040,note_on,5,0,10,,,,,,,,6,,,,57,75
95040,note_on,5,0,11,,,,,,,,7,,,,53,75
95040,note_on,5,0,7,,,,,,,,3,,,,53,75
95040,note_on,5,0,9,,,,,,,,5,,,,65,75
95040,note_on,5,0,12,,,,,,,,8,,,,41,75
95040,note_on,5,0,8,,,,,,,,4,,,,41,75
95095,note_off,55,0,9,,,,,,,,5,,,,65,64
95095,note_off,55,0,12,,,,,,,,8,,,,41,64
95095,note_off,55,0,6,,,,,,,,2,,,,57,64
95095,note_off,55,0,10,,,,,,,,6,,,,57,64
95095,note_off,55,0,7,,,,,,,,3,,,,53,64
95095,note_off,55,0,11,,,,,,,,7,,,,53,64
95095,note_off,55,0,5,,,,,,,,1,,,,65,64
95095,note_off,55,0,8,,,,,,,,4,,,,41,64
95100,note_on,5,0,8,,,,,,,,4,,,,33,75
95100,note_on,5,0,11,,,,,,,,7,,,,45,75
95100,note_on,5,0,5,,,,,,,,1,,,,57,75
95100,note_on,5,0,6,,,,,,,,2,,,,48,75
95100,note_on,5,0,7,,,,,,,,3,,,,45,75
95100,note_on,5,0,12,,,,,,,,8,,,,33,75
95100,note_on,5,0,10,,,,,,,,6,,,,48,75
95100,note_on,5,0,9,,,,,,,,5,,,,57,75
95155,note_off,55,0,10,,,,,,,,6,,,,48,64
95155,note_off,55,0,8,,,,,,,,4,,,,33,64
95155,note_off,55,0,12,,,,,,,,8,,,,33,64
95155,note_off,55,0,9,,,,,,,,5,,,,57,64
95155,note_off,55,0,11,,,,,,,,7,,,,45,64
95155,note_off,55,0,7,,,,,,,,3,,,,45,64
95155,note_off,55,0,6,,,,,,,,2,,,,48,64
95155,note_off,55,0,5,,,,,,,,1,,,,57,64
95160,note_on,5,0,12,,,,,,,,8,,,,41,75
95160,note_on,5,0,8,,,,,,,,4,,,,41,75
95160,note_on,5,0,11,,,,,,,,7,,,,53,75
95160,note_on,5,0,6,,,,,,,,2,,,,57,75
95160,note_on,5,0,10,,,,,,,,6,,,,57,75
95160,note_on,5,0,7,,,,,,,,3,,,,53,75
95160,note_on,5,0,9,,,,,,,,5,,,,65,75
95160,note_on,5,0,5,,,,,,,,1,,,,65,75
95215,note_off,55,0,11,,,,,,,,7,,,,53,64
95215,note_off,55,0,6,,,,,,,,2,,,,57,64
95215,note_off,55,0,7,,,,,,,,3,,,,53,64
95215,note_off,55,0,8,,,,,,,,4,,,,41,64
95215,note_off,55,0,5,,,,,,,,1,,,,65,64
95215,note_off,55,0,10,,,,,,,,6,,,,57,64
95215,note_off,55,0,12,,,,,,,,8,,,,41,64
95215,note_off,55,0,9,,,,,,,,5,,,,65,64
95220,note_on,5,0,9,,,,,,,,5,,,,57,75
95220,note_on,5,0,5,,,,,,,,1,,,,57,75
95220,note_on,5,0,6,,,,,,,,2,,,,48,75
95220,note_on,5,0,11,,,,,,,,7,,,,45,75
95220,note_on,5,0,12,,,,,,,,8,,,,33,75
95220,note_on,5,0,7,,,,,,,,3,,,,45,75
95220,note_on,5,0,8,,,,,,,,4,,,,33,75
95220,note_on,5,0,10,,,,,,,,6,,,,48,75
95275,note_off,55,0,6,,,,,,,,2,,,,48,64
95275,note_off,55,0,11,,,,,,,,7,,,,45,64
95275,note_off,55,0,8,,,,,,,,4,,,,33,64
95275,note_off,55,0,9,,,,,,,,5,,,,57,64
95275,note_off,55,0,10,,,,,,,,6,,,,48,64
95275,note_off,55,0,12,,,,,,,,8,,,,33,64
95275,note_off,55,0,5,,,,,,,,1,,,,57,64
95275,note_off,55,0,7,,,,,,,,3,,,,45,64
95280,note_on,5,0,12,,,,,,,,8,,,,41,75
95280,note_on,5,0,9,,,,,,,,5,,,,65,75
95280,note_on,5,0,6,,,,,,,,2,,,,57,75
95280,note_on,5,0,10,,,,,,,,6,,,,57,75
95280,note_on,5,0,5,,,,,,,,1,,,,65,75
95280,note_on,5,0,8,,,,,,,,4,,,,41,75
95280,note_on,5,0,7,,,,,,,,3,,,,53,75
95280,note_on,5,0,11,,,,,,,,7,,,,53,75
95335,note_off,55,0,6,,,,,,,,2,,,,57,64
95335,note_off,55,0,5,,,,,,,,1,,,,65,64
95335,note_off,55,0,11,,,,,,,,7,,,,53,64
95335,note_off,55,0,12,,,,,,,,8,,,,41,64
95335,note_off,55,0,9,,,,,,,,5,,,,65,64
95335,note_off,55,0,10,,,,,,,,6,,,,57,64
95335,note_off,55,0,7,,,,,,,,3,,,,53,64
95335,note_off,55,0,8,,,,,,,,4,,,,41,64
95340,note_on,5,0,11,,,,,,,,7,,,,45,75
95340,note_on,5,0,5,,,,,,,,1,,,,57,75
95340,note_on,5,0,12,,,,,,,,8,,,,33,75
95340,note_on,5,0,7,,,,,,,,3,,,,45,75
95340,note_on,5,0,8,,,,,,,,4,,,,33,75
95340,note_on,5,0,6,,,,,,,,2,,,,48,75
95340,note_on,5,0,9,,,,,,,,5,,,,57,75
95340,note_on,5,0,10,,,,,,,,6,,,,48,75
95395,note_off,55,0,5,,,,,,,,1,,,,57,64
95395,note_off,55,0,7,,,,,,,,3,,,,45,64
95395,note_off,55,0,12,,,,,,,,8,,,,33,64
95395,note_off,55,0,9,,,,,,,,5,,,,57,64
95395,note_off,55,0,6,,,,,,,,2,,,,48,64
95395,note_off,55,0,10,,,,,,,,6,,,,48,64
95395,note_off,55,0,8,,,,,,,,4,,,,33,64
95395,note_off,55,0,11,,,,,,,,7,,,,45,64
95400,note_on,5,0,6,,,,,,,,2,,,,57,75
95400,note_on,5,0,10,,,,,,,,6,,,,57,75
95400,note_on,5,0,8,,,,,,,,4,,,,41,75
95400,note_on,5,0,9,,,,,,,,5,,,,65,75
95400,note_on,5,0,12,,,,,,,,8,,,,41,75
95400,note_on,5,0,5,,,,,,,,1,,,,65,75
95400,note_on,5,0,7,,,,,,,,3,,,,53,75
95400,note_on,5,0,11,,,,,,,,7,,,,53,75
95455,note_off,55,0,11,,,,,,,,7,,,,53,64
95455,note_off,55,0,12,,,,,,,,8,,,,41,64
95455,note_off,55,0,6,,,,,,,,2,,,,57,64
95455,note_off,55,0,9,,,,,,,,5,,,,65,64
95455,note_off,55,0,8,,,,,,,,4,,,,41,64
95455,note_off,55,0,5,,,,,,,,1,,,,65,64
95455,note_off,55,0,7,,,,,,,,3,,,,53,64
95455,note_off,55,0,10,,,,,,,,6,,,,57,64
95460,note_on,5,0,12,,,,,,,,8,,,,33,75
95460,note_on,5,0,5,,,,,,,,1,,,,57,75
95460,note_on,5,0,10,,,,,,,,6,,,,48,75
95460,note_on,5,0,11,,,,,,,,7,,,,45,75
95460,note_on,5,0,6,,,,,,,,2,,,,48,75
95460,note_on,5,0,7,,,,,,,,3,,,,45,75
95460,note_on,5,0,8,,,,,,,,4,,,,33,75
95460,note_on,5,0,9,,,,,,,,5,,,,57,75
95515,note_off,55,0,6,,,,,,,,2,,,,48,64
95515,note_off,55,0,8,,,,,,,,4,,,,33,64
95515,note_off,55,0,10,,,,,,,,6,,,,48,64
95515,note_off,55,0,5,,,,,,,,1,,,,57,64
95515,note_off,55,0,7,,,,,,,,3,,,,45,64
95515,note_off,55,0,9,,,,,,,,5,,,,57,64
95515,note_off,55,0,12,,,,,,,,8,,,,33,64
95515,note_off,55,0,11,,,,,,,,7,,,,45,64
95520,note_on,5,0,8,,,,,,,,4,,,,41,75
95520,note_on,5,0,10,,,,,,,,6,,,,57,75
95520,note_on,5,0,9,,,,,,,,5,,,,65,75
95520,note_on,5,0,12,,,,,,,,8,,,,41,75
95520,note_on,5,0,6,,,,,,,,2,,,,57,75
95520,note_on,5,0,11,,,,,,,,7,,,,53,75
95520,note_on,5,0,5,,,,,,,,1,,,,65,75
95520,note_on,5,0,7,,,,,,,,3,,,,53,75
95520,note_on,1040,0,13,,,,,,,,11,,,,41,45
95575,note_off,775,0,4,,,,,,,,12,,,,65,64
95575,note_off,775,0,3,,,,,,,,0,,,,65,64
95580,note_on,5,0,4,,,,,,,,12,,,,81,75
95580,note_on,5,0,3,,,,,,,,0,,,,81,92
95640,note_on,0,0,4,,,,,,,,12,,,,84,75
95640,note_off,60,0,4,,,,,,,,12,,,,81,64
95640,note_off,60,0,3,,,,,,,,0,,,,81,64
95640,note_on,0,0,3,,,,,,,,0,,,,84,92
95680,note_off,40,0,4,,,,,,,,12,,,,84,64
95680,note_off,40,0,3,,,,,,,,0,,,,84,64
95700,note_on,20,0,3,,,,,,,,0,,,,82,92
95700,note_on,20,0,4,,,,,,,,12,,,,82,75
95740,note_off,40,0,4,,,,,,,,12,,,,82,64
95740,note_off,40,0,3,,,,,,,,0,,,,82,64
95760,note_on,20,0,3,,,,,,,,0,,,,81,92
95760,note_on,20,0,4,,,,,,,,12,,,,81,75
95800,note_off,40,0,3,,,,,,,,0,,,,81,64
95800,note_off,40,0,4,,,,,,,,12,,,,81,64
95820,note_on,20,0,3,,,,,,,,0,,,,79,92
95820,note_on,20,0,4,,,,,,,,12,,,,79,75
95860,note_off,40,0,3,,,,,,,,0,,,,79,64
95860,note_off,40,0,4,,,,,,,,12,,,,79,64
95880,note_on,20,0,3,,,,,,,,0,,,,77,92
95880,note_on,20,0,4,,,,,,,,12,,,,77,75
95920,note_off,400,0,11,,,,,,,,7,,,,53,64
95920,note_off,400,0,7,,,,,,,,3,,,,53,64
95920,note_off,400,0,12,,,,,,,,8,,,,41,64
95920,note_off,400,0,13,,,,,,,,11,,,,41,64
95920,note_off,40,0,4,,,,,,,,12,,,,77,64
95920,note_off,400,0,8,,,,,,,,4,,,,41,64
95920,note_off,400,0,9,,,,,,,,5,,,,65,64
95920,note_off,400,0,10,,,,,,,,6,,,,57,64
95920,note_off,400,0,5,,,,,,,,1,,,,65,64
95920,note_off,400,0,6,,,,,,,,2,,,,57,64
95920,note_off,40,0,3,,,,,,,,0,,,,77,64
95940,note_on,20,0,4,,,,,,,,12,,,,76,75
95940,note_on,20,0,3,,,,,,,,0,,,,76,92
95980,note_off,40,0,3,,,,,,,,0,,,,76,64
95980,note_off,40,0,4,,,,,,,,12,,,,76,64
96000,note_on,20,0,3,,,,,,,,0,,,,74,92
96000,note_on,20,0,4,,,,,,,,12,,,,74,75
96040,note_off,40,0,3,,,,,,,,0,,,,74,64
96040,note_off,40,0,4,,,,,,,,12,,,,74,64
96060,note_on,20,0,4,,,,,,,,12,,,,72,75
96060,note_on,20,0,3,,,,,,,,0,,,,72,92
96100,note_off,40,0,4,,,,,,,,12,,,,72,64
96100,note_off,40,0,3,,,,,,,,0,,,,72,64
96120,note_on,20,0,3,,,,,,,,0,,,,70,92
96120,note_on,20,0,4,,,,,,,,12,,,,70,75
96160,note_off,40,0,3,,,,,,,,0,,,,70,64
96160,note_off,40,0,4,,,,,,,,12,,,,70,64
96180,note_on,20,0,3,,,,,,,,0,,,,69,92
96180,note_on,20,0,4,,,,,,,,12,,,,69,75
96220,note_off,40,0,4,,,,,,,,12,,,,69,64
96220,note_off,40,0,3,,,,,,,,0,,,,69,64
96240,note_on,320,0,12,,,,,,,,8,,,,40,75
96240,note_on,320,0,7,,,,,,,,3,,,,52,75
96240,note_on,20,0,4,,,,,,,,12,,,,67,75
96240,note_on,20,0,3,,,,,,,,0,,,,67,92
96240,note_on,320,0,6,,,,,,,,2,,,,55,75
96240,note_on,320,0,10,,,,,,,,6,,,,55,75
96240,note_on,320,0,11,,,,,,,,7,,,,52,75
96240,note_on,320,0,9,,,,,,,,5,,,,64,75
96240,note_on,320,0,8,,,,,,,,4,,,,40,75
96240,note_on,320,0,5,,,,,,,,1,,,,64,75
96295,note_off,55,0,6,,,,,,,,2,,,,55,64
96295,note_off,55,0,7,,,,,,,,3,,,,52,64
96295,note_off,55,0,12,,,,,,,,8,,,,40,64
96295,note_off,55,0,11,,,,,,,,7,,,,52,64
96295,note_off,55,0,8,,,,,,,,4,,,,40,64
96295,note_off,55,0,9,,,,,,,,5,,,,64,64
96295,note_off,55,0,10,,,,,,,,6,,,,55,64
96295,note_off,55,0,5,,,,,,,,1,,,,64,64
96300,note_on,5,0,11,,,,,,,,7,,,,48,75
96300,note_on,5,0,7,,,,,,,,3,,,,48,75
96300,note_on,5,0,9,,,,,,,,5,,,,60,75
96300,note_on,5,0,5,,,,,,,,1,,,,60,75
96300,note_on,5,0,10,,,,,,,,6,,,,52,75
96300,note_on,5,0,8,,,,,,,,4,,,,36,75
96300,note_on,5,0,12,,,,,,,,8,,,,36,75
96300,note_on,5,0,6,,,,,,,,2,,,,52,75
96355,note_off,55,0,5,,,,,,,,1,,,,60,64
96355,note_off,55,0,12,,,,,,,,8,,,,36,64
96355,note_off,55,0,9,,,,,,,,5,,,,60,64
96355,note_off,55,0,10,,,,,,,,6,,,,52,64
96355,note_off,55,0,11,,,,,,,,7,,,,48,64
96355,note_off,55,0,8,,,,,,,,4,,,,36,64
96355,note_off,55,0,6,,,,,,,,2,,,,52,64
96355,note_off,55,0,7,,,,,,,,3,,,,48,64
96360,note_on,5,0,12,,,,,,,,8,,,,40,75
96360,note_on,5,0,11,,,,,,,,7,,,,52,75
96360,note_on,5,0,10,,,,,,,,6,,,,55,75
96360,note_on,5,0,7,,,,,,,,3,,,,52,75
96360,note_on,5,0,8,,,,,,,,4,,,,40,75
96360,note_on,5,0,5,,,,,,,,1,,,,64,75
96360,note_on,5,0,6,,,,,,,,2,,,,55,75
96360,note_on,5,0,9,,,,,,,,5,,,,64,75
96415,note_off,55,0,7,,,,,,,,3,,,,52,64
96415,note_off,55,0,12,,,,,,,,8,,,,40,64
96415,note_off,55,0,5,,,,,,,,1,,,,64,64
96415,note_off,55,0,8,,,,,,,,4,,,,40,64
96415,note_off,55,0,6,,,,,,,,2,,,,55,64
96415,note_off,55,0,11,,,,,,,,7,,,,52,64
96415,note_off,55,0,10,,,,,,,,6,,,,55,64
96415,note_off,55,0,9,,,,,,,,5,,,,64,64
96420,note_on,5,0,10,,,,,,,,6,,,,52,75
96420,note_on,5,0,11,,,,,,,,7,,,,48,75
96420,note_on,5,0,12,,,,,,,,8,,,,36,75
96420,note_on,5,0,6,,,,,,,,2,,,,52,75
96420,note_on,5,0,5,,,,,,,,1,,,,60,75
96420,note_on,5,0,9,,,,,,,,5,,,,60,75
96420,note_on,5,0,7,,,,,,,,3,,,,48,75
96420,note_on,5,0,8,,,,,,,,4,,,,36,75
96475,note_off,55,0,6,,,,,,,,2,,,,52,64
96475,note_off,55,0,11,,,,,,,,7,,,,48,64
96475,note_off,55,0,7,,,,,,,,3,,,,48,64
96475,note_off,55,0,9,,,,,,,,5,,,,60,64
96475,note_off,55,0,10,,,,,,,,6,,,,52,64
96475,note_off,55,0,5,,,,,,,,1,,,,60,64
96475,note_off,55,0,8,,,,,,,,4,,,,36,64
96475,note_off,55,0,12,,,,,,,,8,,,,36,64
96480,note_on,5,0,10,,,,,,,,6,,,,55,75
96480,note_on,5,0,9,,,,,,,,5,,,,64,75
96480,note_on,5,0,8,,,,,,,,4,,,,40,75
96480,note_on,5,0,6,,,,,,,,2,,,,55,75
96480,note_on,5,0,5,,,,,,,,1,,,,64,75
96480,note_on,5,0,11,,,,,,,,7,,,,52,75
96480,note_on,5,0,12,,,,,,,,8,,,,40,75
96480,note_on,5,0,7,,,,,,,,3,,,,52,75
96535,note_off,55,0,12,,,,,,,,8,,,,40,64
96535,note_off,55,0,9,,,,,,,,5,,,,64,64
96535,note_off,55,0,10,,,,,,,,6,,,,55,64
96535,note_off,55,0,5,,,,,,,,1,,,,64,64
96535,note_off,55,0,7,,,,,,,,3,,,,52,64
96535,note_off,55,0,11,,,,,,,,7,,,,52,64
96535,note_off,55,0,6,,,,,,,,2,,,,55,64
96535,note_off,55,0,8,,,,,,,,4,,,,40,64
96540,note_on,5,0,11,,,,,,,,7,,,,48,75
96540,note_on,5,0,9,,,,,,,,5,,,,60,75
96540,note_on,5,0,6,,,,,,,,2,,,,52,75
96540,note_on,5,0,5,,,,,,,,1,,,,60,75
96540,note_on,5,0,12,,,,,,,,8,,,,36,75
96540,note_on,5,0,10,,,,,,,,6,,,,52,75
96540,note_on,5,0,8,,,,,,,,4,,,,36,75
96540,note_on,5,0,7,,,,,,,,3,,,,48,75
96595,note_off,55,0,9,,,,,,,,5,,,,60,64
96595,note_off,55,0,5,,,,,,,,1,,,,60,64
96595,note_off,55,0,11,,,,,,,,7,,,,48,64
96595,note_off,55,0,6,,,,,,,,2,,,,52,64
96595,note_off,55,0,10,,,,,,,,6,,,,52,64
96595,note_off,55,0,8,,,,,,,,4,,,,36,64
96595,note_off,55,0,12,,,,,,,,8,,,,36,64
96595,note_off,55,0,7,,,,,,,,3,,,,48,64
96600,note_on,5,0,12,,,,,,,,8,,,,40,75
96600,note_on,5,0,5,,,,,,,,1,,,,64,75
96600,note_on,5,0,9,,,,,,,,5,,,,64,75
96600,note_on,5,0,11,,,,,,,,7,,,,52,75
96600,note_on,5,0,6,,,,,,,,2,,,,55,75
96600,note_on,5,0,8,,,,,,,,4,,,,40,75
96600,note_on,5,0,10,,,,,,,,6,,,,55,75
96600,note_on,5,0,7,,,,,,,,3,,,,52,75
96655,note_off,55,0,8,,,,,,,,4,,,,40,64
96655,note_off,55,0,12,,,,,,,,8,,,,40,64
96655,note_off,55,0,10,,,,,,,,6,,,,55,64
96655,note_off,55,0,11,,,,,,,,7,,,,52,64
96655,note_off,55,0,5,,,,,,,,1,,,,64,64
96655,note_off,55,0,7,,,,,,,,3,,,,52,64
96655,note_off,55,0,9,,,,,,,,5,,,,64,64
96655,note_off,55,0,6,,,,,,,,2,,,,55,64
96660,note_on,5,0,7,,,,,,,,3,,,,48,75
96660,note_on,5,0,10,,,,,,,,6,,,,52,75
96660,note_on,5,0,9,,,,,,,,5,,,,60,75
96660,note_on,5,0,8,,,,,,,,4,,,,36,75
96660,note_on,5,0,5,,,,,,,,1,,,,60,75
96660,note_on,5,0,11,,,,,,,,7,,,,48,75
96660,note_on,5,0,12,,,,,,,,8,,,,36,75
96660,note_on,5,0,6,,,,,,,,2,,,,52,75
96715,note_off,55,0,12,,,,,,,,8,,,,36,64
96715,note_off,55,0,7,,,,,,,,3,,,,48,64
96715,note_off,55,0,6,,,,,,,,2,,,,52,64
96715,note_off,55,0,10,,,,,,,,6,,,,52,64
96715,note_off,55,0,9,,,,,,,,5,,,,60,64
96715,note_off,55,0,11,,,,,,,,7,,,,48,64
96715,note_off,55,0,5,,,,,,,,1,,,,60,64
96715,note_off,55,0,8,,,,,,,,4,,,,36,64
96720,note_on,5,0,9,,,,,,,,5,,,,64,75
96720,note_on,5,0,6,,,,,,,,2,,,,55,75
96720,note_on,5,0,10,,,,,,,,6,,,,55,75
96720,note_on,5,0,12,,,,,,,,8,,,,40,75
96720,note_on,5,0,5,,,,,,,,1,,,,64,75
96720,note_on,5,0,11,,,,,,,,7,,,,52,75
96720,note_on,5,0,7,,,,,,,,3,,,,52,75
96720,note_on,5,0,8,,,,,,,,4,,,,40,75
96775,note_off,55,0,5,,,,,,,,1,,,,64,64
96775,note_off,55,0,11,,,,,,,,7,,,,52,64
96775,note_off,55,0,9,,,,,,,,5,,,,64,64
96775,note_off,55,0,12,,,,,,,,8,,,,40,64
96775,note_off,55,0,6,,,,,,,,2,,,,55,64
96775,note_off,55,0,8,,,,,,,,4,,,,40,64
96775,note_off,55,0,7,,,,,,,,3,,,,52,64
96775,note_off,55,0,10,,,,,,,,6,,,,55,64
96780,note_on,5,0,12,,,,,,,,8,,,,36,75
96780,note_on,5,0,10,,,,,,,,6,,,,52,75
96780,note_on,5,0,9,,,,,,,,5,,,,60,75
96780,note_on,5,0,8,,,,,,,,4,,,,36,75
96780,note_on,5,0,5,,,,,,,,1,,,,60,75
96780,note_on,5,0,11,,,,,,,,7,,,,48,75
96780,note_on,5,0,7,,,,,,,,3,,,,48,75
96780,note_on,5,0,6,,,,,,,,2,,,,52,75
96835,note_off,55,0,8,,,,,,,,4,,,,36,64
96835,note_off,55,0,5,,,,,,,,1,,,,60,64
96835,note_off,55,0,7,,,,,,,,3,,,,48,64
96835,note_off,55,0,10,,,,,,,,6,,,,52,64
96835,note_off,55,0,12,,,,,,,,8,,,,36,64
96835,note_off,55,0,11,,,,,,,,7,,,,48,64
96835,note_off,55,0,6,,,,,,,,2,,,,52,64
96835,note_off,55,0,9,,,,,,,,5,,,,60,64
96840,note_on,5,0,7,,,,,,,,3,,,,52,75
96840,note_on,5,0,11,,,,,,,,7,,,,52,75
96840,note_on,5,0,5,,,,,,,,1,,,,64,75
96840,note_on,5,0,10,,,,,,,,6,,,,55,75
96840,note_on,5,0,12,,,,,,,,8,,,,40,75
96840,note_on,5,0,8,,,,,,,,4,,,,40,75
96840,note_on,5,0,6,,,,,,,,2,,,,55,75
96840,note_on,5,0,9,,,,,,,,5,,,,64,75
96895,note_off,55,0,11,,,,,,,,7,,,,52,64
96895,note_off,55,0,9,,,,,,,,5,,,,64,64
96895,note_off,55,0,12,,,,,,,,8,,,,40,64
96895,note_off,55,0,6,,,,,,,,2,,,,55,64
96895,note_off,55,0,7,,,,,,,,3,,,,52,64
96895,note_off,55,0,8,,,,,,,,4,,,,40,64
96895,note_off,55,0,10,,,,,,,,6,,,,55,64
96895,note_off,55,0,5,,,,,,,,1,,,,64,64
96900,note_on,5,0,8,,,,,,,,4,,,,36,75
96900,note_on,5,0,11,,,,,,,,7,,,,48,75
96900,note_on,5,0,6,,,,,,,,2,,,,52,75
96900,note_on,5,0,12,,,,,,,,8,,,,36,75
96900,note_on,5,0,7,,,,,,,,3,,,,48,75
96900,note_on,5,0,10,,,,,,,,6,,,,52,75
96900,note_on,5,0,9,,,,,,,,5,,,,60,75
96900,note_on,5,0,5,,,,,,,,1,,,,60,75
96955,note_off,55,0,10,,,,,,,,6,,,,52,64
96955,note_off,55,0,8,,,,,,,,4,,,,36,64
96955,note_off,55,0,12,,,,,,,,8,,,,36,64
96955,note_off,55,0,9,,,,,,,,5,,,,60,64
96955,note_off,55,0,6,,,,,,,,2,,,,52,64
96955,note_off,55,0,11,,,,,,,,7,,,,48,64
96955,note_off,55,0,7,,,,,,,,3,,,,48,64
96955,note_off,55,0,5,,,,,,,,1,,,,60,64
96960,note_on,5,0,8,,,,,,,,4,,,,40,75
96960,set_tempo,13680,1,0,833333,,,,,,,,,,,,
96960,note_on,5,0,6,,,,,,,,2,,,,55,75
96960,note_on,5,0,5,,,,,,,,1,,,,64,75
96960,note_on,5,0,11,,,,,,,,7,,,,52,75
96960,note_on,5,0,7,,,,,,,,3,,,,52,75
96960,note_on,5,0,12,,,,,,,,8,,,,40,75
96960,note_on,5,0,10,,,,,,,,6,,,,55,75
96960,note_on,5,0,9,,,,,,,,5,,,,64,75
96960,note_on,1040,0,13,,,,,,,,11,,,,40,45
97015,note_off,775,0,3,,,,,,,,0,,,,67,64
97015,note_off,775,0,4,,,,,,,,12,,,,67,64
97020,note_on,5,0,3,,,,,,,,0,,,,82,90
97020,note_on,5,0,4,,,,,,,,12,,,,82,73
97080,note_on,0,0,4,,,,,,,,12,,,,86,71
97080,note_off,60,0,4,,,,,,,,12,,,,82,64
97080,note_off,60,0,3,,,,,,,,0,,,,82,64
97080,note_on,0,0,3,,,,,,,,0,,,,86,88
97120,note_off,40,0,4,,,,,,,,12,,,,86,64
97120,note_off,40,0,3,,,,,,,,0,,,,86,64
97140,note_on,20,0,3,,,,,,,,0,,,,84,86
97140,note_on,20,0,4,,,,,,,,12,,,,84,69
97180,note_off,40,0,4,,,,,,,,12,,,,84,64
97180,note_off,40,0,3,,,,,,,,0,,,,84,64
97200,note_on,20,0,3,,,,,,,,0,,,,82,84
97200,set_tempo,240,1,0,967741,,,,,,,,,,,,
97200,note_on,20,0,4,,,,,,,,12,,,,82,67
97240,note_off,40,0,3,,,,,,,,0,,,,82,64
97240,note_off,40,0,4,,,,,,,,12,,,,82,64
97260,note_on,20,0,4,,,,,,,,12,,,,81,65
97260,note_on,20,0,3,,,,,,,,0,,,,81,81
97300,note_off,40,0,3,,,,,,,,0,,,,81,64
97300,note_off,40,0,4,,,,,,,,12,,,,81,64
97320,note_on,20,0,3,,,,,,,,0,,,,79,78
97320,note_on,20,0,4,,,,,,,,12,,,,79,63
97360,note_off,40,0,4,,,,,,,,12,,,,79,64
97360,note_off,400,0,13,,,,,,,,11,,,,40,64
97360,note_off,400,0,10,,,,,,,,6,,,,55,64
97360,note_off,400,0,12,,,,,,,,8,,,,40,64
97360,note_off,400,0,11,,,,,,,,7,,,,52,64
97360,note_off,400,0,9,,,,,,,,5,,,,64,64
97360,note_off,400,0,5,,,,,,,,1,,,,64,64
97360,note_off,40,0,3,,,,,,,,0,,,,79,64
97360,note_off,400,0,8,,,,,,,,4,,,,40,64
97360,note_off,400,0,6,,,,,,,,2,,,,55,64
97360,note_off,400,0,7,,,,,,,,3,,,,52,64
97380,note_on,20,0,3,,,,,,,,0,,,,77,75
97380,note_on,20,0,4,,,,,,,,12,,,,77,60
97420,note_off,40,0,4,,,,,,,,12,,,,77,64
97420,note_off,40,0,3,,,,,,,,0,,,,77,64
97440,note_on,20,0,4,,,,,,,,12,,,,76,57
97440,note_on,20,0,3,,,,,,,,0,,,,76,72
97440,set_tempo,240,1,0,1153846,,,,,,,,,,,,
97480,note_off,40,0,3,,,,,,,,0,,,,76,64
97480,note_off,40,0,4,,,,,,,,12,,,,76,64
97500,note_on,20,0,4,,,,,,,,12,,,,74,54
97500,note_on,20,0,3,,,,,,,,0,,,,74,69
97540,note_off,40,0,3,,,,,,,,0,,,,74,64
97540,note_off,40,0,4,,,,,,,,12,,,,74,64
97560,note_on,20,0,3,,,,,,,,0,,,,72,66
97560,note_on,20,0,4,,,,,,,,12,,,,72,51
97600,note_off,40,0,4,,,,,,,,12,,,,72,64
97600,note_off,40,0,3,,,,,,,,0,,,,72,64
97620,note_on,20,0,3,,,,,,,,0,,,,70,63
97620,note_on,20,0,4,,,,,,,,12,,,,70,48
97660,note_off,40,0,4,,,,,,,,12,,,,70,64
97660,note_off,40,0,3,,,,,,,,0,,,,70,64
97680,note_on,14885,0,2,,,,,,,,10,,,,53,45
97680,note_on,20,0,4,,,,,,,,12,,,,68,45
97680,note_on,320,0,8,,,,,,,,4,,,,41,45
97680,set_tempo,240,1,0,1463414,,,,,,,,,,,,
97680,note_on,320,0,11,,,,,,,,7,,,,53,45
97680,note_on,20,0,3,,,,,,,,0,,,,68,60
97680,note_on,320,0,12,,,,,,,,8,,,,41,45
97680,note_on,320,0,7,,,,,,,,3,,,,53,45
97920,note_off,240,0,7,,,,,,,,3,,,,53,64
97920,note_on,0,0,7,,,,,,,,3,,,,51,45
97920,note_on,0,0,8,,,,,,,,4,,,,39,45
97920,note_on,0,0,2,,,,,,,,10,,,,51,45
97920,note_off,240,0,2,,,,,,,,10,,,,53,64
97920,note_off,240,0,11,,,,,,,,7,,,,53,64
97920,note_on,0,0,11,,,,,,,,7,,,,51,45
97920,note_on,0,0,12,,,,,,,,8,,,,39,45
97920,note_off,240,0,12,,,,,,,,8,,,,41,64
97920,note_off,240,0,8,,,,,,,,4,,,,41,64
98160,note_on,0,0,8,,,,,,,,4,,,,37,45
98160,note_off,240,0,8,,,,,,,,4,,,,39,64
98160,note_off,240,0,2,,,,,,,,10,,,,51,64
98160,note_on,0,0,2,,,,,,,,10,,,,49,45
98160,note_off,240,0,12,,,,,,,,8,,,,39,64
98160,note_on,0,0,12,,,,,,,,8,,,,37,45
98160,note_off,240,0,7,,,,,,,,3,,,,51,64
98160,note_on,0,0,7,,,,,,,,3,,,,49,45
98160,note_on,0,0,11,,,,,,,,7,,,,49,45
98160,note_off,240,0,11,,,,,,,,7,,,,51,64
98320,note_off,640,0,4,,,,,,,,12,,,,68,64
98320,note_off,640,0,3,,,,,,,,0,,,,68,64
98400,note_on,0,0,8,,,,,,,,4,,,,36,45
98400,note_on,80,0,3,,,,,,,,0,,,,60,60
98400,note_off,240,0,11,,,,,,,,7,,,,49,64
98400,note_on,0,0,11,,,,,,,,7,,,,48,45
98400,note_off,240,0,8,,,,,,,,4,,,,37,64
98400,set_tempo,720,1,0,1224489,,,,,,,,,,,,
98400,note_off,240,0,2,,,,,,,,10,,,,49,64
98400,note_on,0,0,2,,,,,,,,10,,,,48,45
98400,note_off,240,0,12,,,,,,,,8,,,,37,64
98400,note_on,0,0,12,,,,,,,,8,,,,36,45
98400,note_off,240,0,7,,,,,,,,3,,,,49,64
98400,note_on,0,0,7,,,,,,,,3,,,,48,45
98400,note_on,80,0,4,,,,,,,,12,,,,60,45
98640,note_off,240,0,3,,,,,,,,0,,,,60,64
98640,note_on,0,0,3,,,,,,,,0,,,,64,60
98640,note_off,240,0,4,,,,,,,,12,,,,60,64
98640,note_on,0,0,4,,,,,,,,12,,,,64,45
98880,note_on,0,0,4,,,,,,,,12,,,,65,45
98880,note_on,0,0,3,,,,,,,,0,,,,65,60
98880,note_off,240,0,3,,,,,,,,0,,,,64,64
98880,note_off,240,0,4,,,,,,,,12,,,,64,64
99040,note_off,640,0,2,,,,,,,,10,,,,48,64
99120,note_on,0,0,3,,,,,,,,0,,,,66,60
99120,note_off,240,0,3,,,,,,,,0,,,,65,64
99120,note_on,0,0,4,,,,,,,,12,,,,66,45
99120,note_off,240,0,4,,,,,,,,12,,,,65,64
99360,note_on,0,0,4,,,,,,,,12,,,,69,45
99360,note_off,240,0,3,,,,,,,,0,,,,66,64
99360,note_on,0,0,3,,,,,,,,0,,,,69,60
99360,note_off,240,0,4,,,,,,,,12,,,,66,64
99600,note_on,0,0,3,,,,,,,,0,,,,70,60
99600,note_off,240,0,4,,,,,,,,12,,,,69,64
99600,note_on,0,0,4,,,,,,,,12,,,,70,45
99600,note_off,240,0,3,,,,,,,,0,,,,69,64
99840,note_off,240,0,4,,,,,,,,12,,,,70,64
99840,note_on,0,0,4,,,,,,,,12,,,,72,45
99840,note_on,0,0,3,,,,,,,,0,,,,72,60
99840,note_off,240,0,3,,,,,,,,0,,,,70,64
100080,note_off,240,0,3,,,,,,,,0,,,,72,64
100080,note_on,0,0,4,,,,,,,,12,,,,73,45
100080,note_off,240,0,4,,,,,,,,12,,,,72,64
100080,note_on,0,0,3,,,,,,,,0,,,,73,60
100320,note_on,0,0,3,,,,,,,,0,,,,76,60
100320,note_off,240,0,3,,,,,,,,0,,,,73,64
100320,note_on,0,0,4,,,,,,,,12,,,,76,45
100320,note_off,240,0,4,,,,,,,,12,,,,73,64
100480,note_off,2080,0,8,,,,,,,,4,,,,36,64
100480,note_off,2080,0,11,,,,,,,,7,,,,48,64
100480,note_off,2080,0,12,,,,,,,,8,,,,36,64
100480,note_off,2080,0,7,,,,,,,,3,,,,48,64
100560,note_on,80,0,12,,,,,,,,8,,,,29,45
100560,note_on,0,0,3,,,,,,,,0,,,,77,60
100560,note_on,80,0,11,,,,,,,,7,,,,41,45
100560,note_off,240,0,3,,,,,,,,0,,,,76,64
100560,note_on,80,0,7,,,,,,,,3,,,,41,45
100560,note_on,80,0,8,,,,,,,,4,,,,29,45
100560,note_off,240,0,4,,,,,,,,12,,,,76,64
100560,note_on,0,0,4,,,,,,,,12,,,,77,45
100855,note_off,295,0,4,,,,,,,,12,,,,77,64
100855,note_off,295,0,3,,,,,,,,0,,,,77,64
100860,set_tempo,2460,1,0,1153846,,,,,,,,,,,,
100860,note_on,5,0,4,,,,,,,,12,,,,81,45
100860,note_on,5,0,3,,,,,,,,0,,,,81,60
100900,note_off,40,0,3,,,,,,,,0,,,,81,64
100900,note_off,40,0,4,,,,,,,,12,,,,81,64
100920,note_on,20,0,3,,,,,,,,0,,,,77,60
100920,note_on,20,0,4,,,,,,,,12,,,,77,45
100960,note_off,40,0,3,,,,,,,,0,,,,77,64
100960,note_off,400,0,11,,,,,,,,7,,,,41,64
100960,note_off,400,0,7,,,,,,,,3,,,,41,64
100960,note_off,400,0,12,,,,,,,,8,,,,29,64
100960,note_off,400,0,8,,,,,,,,4,,,,29,64
100960,note_off,40,0,4,,,,,,,,12,,,,77,64
100980,note_on,20,0,3,,,,,,,,0,,,,72,60
100980,note_on,20,0,4,,,,,,,,12,,,,72,45
101020,note_off,40,0,3,,,,,,,,0,,,,72,64
101020,note_off,40,0,4,,,,,,,,12,,,,72,64
101040,note_on,20,0,4,,,,,,,,12,,,,69,45
101040,note_on,20,0,3,,,,,,,,0,,,,69,60
101080,note_off,40,0,4,,,,,,,,12,,,,69,64
101080,note_off,40,0,3,,,,,,,,0,,,,69,64
101100,note_on,20,0,4,,,,,,,,12,,,,72,45
101100,note_on,20,0,3,,,,,,,,0,,,,72,60
101140,note_off,40,0,4,,,,,,,,12,,,,72,64
101140,note_off,40,0,3,,,,,,,,0,,,,72,64
101160,note_on,20,0,4,,,,,,,,12,,,,69,45
101160,note_on,20,0,3,,,,,,,,0,,,,69,60
101200,note_off,40,0,3,,,,,,,,0,,,,69,64
101200,note_off,40,0,4,,,,,,,,12,,,,69,64
101220,note_on,20,0,3,,,,,,,,0,,,,65,60
101220,note_on,20,0,4,,,,,,,,12,,,,65,45
101260,note_off,40,0,3,,,,,,,,0,,,,65,64
101260,note_off,40,0,4,,,,,,,,12,,,,65,64
101280,note_on,20,0,3,,,,,,,,0,,,,60,60
101280,note_on,20,0,4,,,,,,,,12,,,,60,45
101360,note_off,80,0,3,,,,,,,,0,,,,60,64
101360,note_off,80,0,4,,,,,,,,12,,,,60,64
101400,note_on,40,0,4,,,,,,,,12,,,,65,50
101400,note_on,40,0,3,,,,,,,,0,,,,65,65
101480,note_off,80,0,4,,,,,,,,12,,,,65,64
101480,note_off,80,0,3,,,,,,,,0,,,,65,64
101520,note_on,560,0,8,,,,,,,,4,,,,48,45
101520,note_on,560,0,11,,,,,,,,7,,,,60,45
101520,note_on,560,0,7,,,,,,,,3,,,,60,45
101520,note_on,2480,0,2,,,,,,,,10,,,,60,45
101520,note_on,40,0,3,,,,,,,,0,,,,67,70
101520,note_on,4160,0,13,,,,,,,,11,,,,48,45
101520,note_on,560,0,12,,,,,,,,8,,,,48,45
101520,note_on,40,0,4,,,,,,,,12,,,,67,55
101540,note_off,20,0,4,,,,,,,,12,,,,67,64
101540,note_on,0,0,4,,,,,,,,12,,,,69,55
101550,note_on,0,0,3,,,,,,,,0,,,,69,71
101550,note_off,30,0,3,,,,,,,,0,,,,67,64
101560,note_on,0,0,4,,,,,,,,12,,,,67,55
101560,note_off,20,0,4,,,,,,,,12,,,,69,64
101580,note_on,0,0,3,,,,,,,,0,,,,67,72
101580,note_on,0,0,4,,,,,,,,12,,,,69,55
101580,note_off,20,0,4,,,,,,,,12,,,,67,64
101580,note_off,30,0,3,,,,,,,,0,,,,69,64
101600,note_off,80,0,2,,,,,,,,10,,,,60,64
101600,note_off,80,0,7,,,,,,,,3,,,,60,64
101600,note_off,80,0,11,,,,,,,,7,,,,60,64
101600,note_off,80,0,8,,,,,,,,4,,,,48,64
101600,note_off,20,0,4,,,,,,,,12,,,,69,64
101600,note_on,0,0,4,,,,,,,,12,,,,67,55
101600,note_off,80,0,12,,,,,,,,8,,,,48,64
101610,note_off,30,0,3,,,,,,,,0,,,,67,64
101610,note_on,0,0,3,,,,,,,,0,,,,69,73
101620,note_off,20,0,4,,,,,,,,12,,,,67,64
101620,note_on,0,0,4,,,,,,,,12,,,,69,56
101640,note_off,30,0,3,,,,,,,,0,,,,69,64
101640,note_on,0,0,4,,,,,,,,12,,,,67,57
101640,note_off,20,0,4,,,,,,,,12,,,,69,64
101640,note_on,0,0,3,,,,,,,,0,,,,67,74
101660,note_on,0,0,4,,,,,,,,12,,,,69,58
101660,note_off,20,0,4,,,,,,,,12,,,,67,64
101670,note_on,0,0,3,,,,,,,,0,,,,69,75
101670,note_off,30,0,3,,,,,,,,0,,,,67,64
101680,note_off,20,0,4,,,,,,,,12,,,,69,64
101680,note_on,0,0,4,,,,,,,,12,,,,67,59
101700,note_on,0,0,3,,,,,,,,0,,,,67,76
101700,note_off,30,0,3,,,,,,,,0,,,,69,64
101700,note_off,20,0,4,,,,,,,,12,,,,67,64
101700,note_on,0,0,4,,,,,,,,12,,,,69,60
101720,note_on,0,0,4,,,,,,,,12,,,,67,61
101720,note_off,20,0,4,,,,,,,,12,,,,69,64
101730,note_off,30,0,3,,,,,,,,0,,,,67,64
101730,note_on,0,0,3,,,,,,,,0,,,,69,77
101740,note_off,20,0,4,,,,,,,,12,,,,67,64
101740,note_on,0,0,4,,,,,,,,12,,,,69,62
101755,note_off,235,0,13,,,,,,,,11,,,,48,64
101760,note_on,160,0,8,,,,,,,,4,,,,36,45
101760,note_on,160,0,7,,,,,,,,3,,,,48,45
101760,note_on,160,0,11,,,,,,,,7,,,,48,45
101760,note_off,30,0,3,,,,,,,,0,,,,69,64
101760,note_on,0,0,3,,,,,,,,0,,,,67,78
101760,note_on,5,0,13,,,,,,,,11,,,,36,45
101760,note_off,20,0,4,,,,,,,,12,,,,69,64
101760,note_on,0,0,4,,,,,,,,12,,,,67,63
101760,note_on,160,0,2,,,,,,,,10,,,,48,45
101760,note_on,160,0,12,,,,,,,,8,,,,36,45
101780,note_on,0,0,4,,,,,,,,12,,,,69,64
101780,note_off,20,0,4,,,,,,,,12,,,,67,64
101790,note_on,0,0,3,,,,,,,,0,,,,69,79
101790,note_off,30,0,3,,,,,,,,0,,,,67,64
101800,note_off,20,0,4,,,,,,,,12,,,,69,64
101800,note_on,0,0,4,,,,,,,,12,,,,67,65
101820,note_off,30,0,3,,,,,,,,0,,,,69,64
101820,note_on,0,0,3,,,,,,,,0,,,,67,80
101820,note_on,0,0,4,,,,,,,,12,,,,69,66
101820,note_off,20,0,4,,,,,,,,12,,,,67,64
101840,note_off,80,0,2,,,,,,,,10,,,,48,64
101840,note_off,80,0,12,,,,,,,,8,,,,36,64
101840,note_off,80,0,7,,,,,,,,3,,,,48,64
101840,note_off,80,0,8,,,,,,,,4,,,,36,64
101840,note_on,0,0,4,,,,,,,,12,,,,67,67
101840,note_off,80,0,11,,,,,,,,7,,,,48,64
101840,note_off,20,0,4,,,,,,,,12,,,,69,64
101850,note_off,30,0,3,,,,,,,,0,,,,67,64
101850,note_on,0,0,3,,,,,,,,0,,,,69,82
101860,note_off,20,0,4,,,,,,,,12,,,,67,64
101860,note_on,0,0,4,,,,,,,,12,,,,69,68
101880,note_on,0,0,3,,,,,,,,0,,,,67,84
101880,note_off,20,0,4,,,,,,,,12,,,,69,64
101880,note_off,30,0,3,,,,,,,,0,,,,69,64
101880,note_on,0,0,4,,,,,,,,12,,,,67,69
101900,note_off,20,0,4,,,,,,,,12,,,,67,64
101900,note_on,0,0,4,,,,,,,,12,,,,69,70
101910,note_off,30,0,3,,,,,,,,0,,,,67,64
101910,note_on,0,0,3,,,,,,,,0,,,,69,86
101920,note_on,0,0,4,,,,,,,,12,,,,67,71
101920,note_off,20,0,4,,,,,,,,12,,,,69,64
101940,note_on,0,0,4,,,,,,,,12,,,,69,72
101940,note_on,0,0,3,,,,,,,,0,,,,67,88
101940,note_off,30,0,3,,,,,,,,0,,,,69,64
101940,note_off,20,0,4,,,,,,,,12,,,,67,64
101960,note_off,20,0,4,,,,,,,,12,,,,69,64
101960,note_on,0,0,4,,,,,,,,12,,,,67,73
101970,note_off,30,0,3,,,,,,,,0,,,,67,64
101970,note_on,0,0,3,,,,,,,,0,,,,69,90
101980,note_on,0,0,4,,,,,,,,12,,,,69,74
101980,note_off,20,0,4,,,,,,,,12,,,,67,64
101995,note_off,235,0,13,,,,,,,,11,,,,36,64
102000,note_on,160,0,8,,,,,,,,4,,,,41,92
102000,note_on,0,0,9,,,,,,,,5,,,,81,75
102000,note_on,4640,0,10,,,,,,,,6,,,,72,75
102000,note_on,4640,0,5,,,,,,,,1,,,,77,108
102000,note_on,4640,0,9,,,,,,,,5,,,,77,75
102000,note_on,5,0,13,,,,,,,,11,,,,41,75
102000,set_tempo,1140,1,0,833333,,,,,,,,,,,,
102000,note_on,160,0,11,,,,,,,,7,,,,53,75
102000,note_on,160,0,12,,,,,,,,8,,,,41,75
102000,note_off,20,0,4,,,,,,,,12,,,,69,64
102000,note_on,0,0,5,,,,,,,,1,,,,81,108
102000,note_on,160,0,7,,,,,,,,3,,,,53,92
102000,note_on,0,0,3,,,,,,,,0,,,,65,92
102000,note_off,30,0,3,,,,,,,,0,,,,69,64
102000,note_on,4640,0,6,,,,,,,,2,,,,72,92
102000,note_on,0,0,4,,,,,,,,12,,,,65,75
102235,note_off,235,0,4,,,,,,,,12,,,,65,64
102235,note_off,235,0,8,,,,,,,,4,,,,41,64
102235,note_off,0,0,5,,,,,,,,1,,,,77,64
102235,note_off,235,0,7,,,,,,,,3,,,,53,64
102235,note_off,235,0,9,,,,,,,,5,,,,81,64
102235,note_off,235,0,5,,,,,,,,1,,,,81,64
102235,note_off,235,0,11,,,,,,,,7,,,,53,64
102235,note_off,235,0,10,,,,,,,,6,,,,72,64
102235,note_off,235,0,12,,,,,,,,8,,,,41,64
102235,note_off,235,0,3,,,,,,,,0,,,,65,64
102235,note_off,235,0,6,,,,,,,,2,,,,72,64
102235,end_of_track,0,1,3,,,,,,,,,,,,,
102235,note_off,0,0,9,,,,,,,,5,,,,77,64
102235,end_of_track,0,1,4,,,,,,,,,,,,,
102240,note_on,0,0,9,,,,,,,,5,,,,81,75
102240,note_on,5,0,12,,,,,,,,8,,,,41,75
102240,note_on,5,0,11,,,,,,,,7,,,,53,75
102240,note_on,5,0,8,,,,,,,,4,,,,41,92
102240,note_on,5,0,7,,,,,,,,3,,,,53,92
102240,note_on,0,0,5,,,,,,,,1,,,,81,108
102240,note_on,5,0,10,,,,,,,,6,,,,72,75
102240,note_on,5,0,6,,,,,,,,2,,,,72,92
102240,note_on,5,0,9,,,,,,,,5,,,,77,75
102240,note_on,5,0,5,,,,,,,,1,,,,77,108
102320,note_off,80,0,12,,,,,,,,8,,,,41,64
102320,note_off,80,0,9,,,,,,,,5,,,,81,64
102320,note_off,80,0,10,,,,,,,,6,,,,72,64
102320,note_off,80,0,7,,,,,,,,3,,,,53,64
102320,note_off,80,0,5,,,,,,,,1,,,,81,64
102320,note_off,80,0,6,,,,,,,,2,,,,72,64
102320,note_off,0,0,5,,,,,,,,1,,,,77,64
102320,note_off,80,0,11,,,,,,,,7,,,,53,64
102320,note_off,0,0,9,,,,,,,,5,,,,77,64
102320,note_off,80,0,8,,,,,,,,4,,,,41,64
102360,note_on,0,0,9,,,,,,,,5,,,,81,75
102360,note_on,40,0,6,,,,,,,,2,,,,72,92
102360,note_on,40,0,9,,,,,,,,5,,,,77,75
102360,note_on,40,0,12,,,,,,,,8,,,,41,75
102360,note_on,40,0,8,,,,,,,,4,,,,41,92
102360,note_on,40,0,5,,,,,,,,1,,,,77,108
102360,note_on,0,0,5,,,,,,,,1,,,,81,108
102360,note_on,40,0,11,,,,,,,,7,,,,53,75
102360,note_on,40,0,7,,,,,,,,3,,,,53,92
102360,note_on,40,0,10,,,,,,,,6,,,,72,75
102400,note_off,400,0,13,,,,,,,,11,,,,41,64
102440,note_off,80,0,11,,,,,,,,7,,,,53,64
102440,note_off,80,0,6,,,,,,,,2,,,,72,64
102440,note_off,0,0,5,,,,,,,,1,,,,77,64
102440,note_off,80,0,5,,,,,,,,1,,,,81,64
102440,note_off,80,0,12,,,,,,,,8,,,,41,64
102440,note_off,0,0,9,,,,,,,,5,,,,77,64
102440,note_off,80,0,9,,,,,,,,5,,,,81,64
102440,note_off,80,0,8,,,,,,,,4,,,,41,64
102440,note_off,80,0,7,,,,,,,,3,,,,53,64
102440,note_off,80,0,10,,,,,,,,6,,,,72,64
102480,note_on,0,0,5,,,,,,,,1,,,,81,108
102480,note_on,40,0,9,,,,,,,,5,,,,77,75
102480,note_on,0,0,9,,,,,,,,5,,,,81,75
102480,note_on,40,0,11,,,,,,,,7,,,,53,75
102480,note_on,40,0,5,,,,,,,,1,,,,77,108
102480,note_on,40,0,7,,,,,,,,3,,,,53,92
102480,note_on,40,0,8,,,,,,,,4,,,,41,92
102480,note_on,80,0,13,,,,,,,,11,,,,41,75
102480,note_on,40,0,6,,,,,,,,2,,,,72,92
102480,note_on,40,0,12,,,,,,,,8,,,,41,75
102480,note_on,40,0,10,,,,,,,,6,,,,72,75
102560,note_off,0,0,9,,,,,,,,5,,,,77,64
102560,note_off,80,0,9,,,,,,,,5,,,,81,64
102560,note_off,80,0,12,,,,,,,,8,,,,41,64
102560,note_off,80,0,10,,,,,,,,6,,,,72,64
102560,note_off,80,0,11,,,,,,,,7,,,,53,64
102560,note_off,0,0,5,,,,,,,,1,,,,77,64
102560,note_off,80,0,8,,,,,,,,4,,,,41,64
102560,note_off,80,0,6,,,,,,,,2,,,,72,64
102560,note_off,80,0,5,,,,,,,,1,,,,81,64
102560,note_off,80,0,7,,,,,,,,3,,,,53,64
102595,note_off,115,0,13,,,,,,,,11,,,,41,64
102600,note_on,40,0,12,,,,,,,,8,,,,36,75
102600,note_on,40,0,11,,,,,,,,7,,,,48,75
102600,note_on,40,0,6,,,,,,,,2,,,,64,92
102600,note_on,0,0,5,,,,,,,,1,,,,82,108
102600,note_on,40,0,5,,,,,,,,1,,,,79,108
102600,note_on,40,0,9,,,,,,,,5,,,,79,75
102600,note_on,40,0,7,,,,,,,,3,,,,48,92
102600,note_on,40,0,10,,,,,,,,6,,,,64,75
102600,note_on,40,0,8,,,,,,,,4,,,,36,92
102600,note_on,5,0,13,,,,,,,,11,,,,36,75
102600,note_on,0,0,9,,,,,,,,5,,,,82,75
102680,note_off,80,0,7,,,,,,,,3,,,,48,64
102680,note_off,80,0,9,,,,,,,,5,,,,82,64
102680,note_off,80,0,6,,,,,,,,2,,,,64,64
102680,note_off,80,0,10,,,,,,,,6,,,,64,64
102680,note_off,80,0,8,,,,,,,,4,,,,36,64
102680,note_off,80,0,5,,,,,,,,1,,,,82,64
102680,note_off,0,0,5,,,,,,,,1,,,,79,64
102680,note_off,80,0,12,,,,,,,,8,,,,36,64
102680,note_off,0,0,9,,,,,,,,5,,,,79,64
102680,note_off,80,0,11,,,,,,,,7,,,,48,64
102715,note_off,115,0,13,,,,,,,,11,,,,36,64
102720,note_on,40,0,6,,,,,,,,2,,,,60,92
102720,note_on,40,0,11,,,,,,,,7,,,,53,75
102720,note_on,5,0,13,,,,,,,,11,,,,41,75
102720,note_on,0,0,5,,,,,,,,1,,,,84,108
102720,note_on,40,0,12,,,,,,,,8,,,,41,75
102720,note_on,40,0,5,,,,,,,,1,,,,81,108
102720,note_on,40,0,10,,,,,,,,6,,,,60,75
102720,note_on,0,0,9,,,,,,,,5,,,,84,75
102720,note_on,40,0,9,,,,,,,,5,,,,81,75
102720,note_on,19445,0,1,,,,,,,,10,,,,69,75
102720,note_on,40,0,8,,,,,,,,4,,,,41,92
102720,note_on,40,0,7,,,,,,,,3,,,,53,92
102800,note_off,0,0,9,,,,,,,,5,,,,81,64
102800,note_off,80,0,9,,,,,,,,5,,,,84,64
102800,note_off,80,0,10,,,,,,,,6,,,,60,64
102800,note_off,80,0,8,,,,,,,,4,,,,41,64
102800,note_off,0,0,5,,,,,,,,1,,,,81,64
102800,note_off,80,0,12,,,,,,,,8,,,,41,64
102800,note_off,80,0,7,,,,,,,,3,,,,53,64
102800,note_off,80,0,5,,,,,,,,1,,,,84,64
102800,note_off,80,0,11,,,,,,,,7,,,,53,64
102800,note_off,80,0,6,,,,,,,,2,,,,60,64
102835,note_off,115,0,1,,,,,,,,10,,,,69,64
102840,note_on,5,0,1,,,,,,,,10,,,,70,75
102960,note_on,160,0,9,,,,,,,,5,,,,77,75
102960,note_on,0,0,9,,,,,,,,5,,,,81,75
102960,note_on,0,0,1,,,,,,,,10,,,,72,75
102960,note_on,160,0,10,,,,,,,,6,,,,60,75
102960,note_off,120,0,1,,,,,,,,10,,,,70,64
102960,note_on,160,0,11,,,,,,,,7,,,,41,75
102960,note_on,160,0,6,,,,,,,,2,,,,60,92
102960,note_on,0,0,5,,,,,,,,1,,,,81,108
102960,note_on,160,0,5,,,,,,,,1,,,,77,108
102960,note_on,160,0,8,,,,,,,,4,,,,29,92
102960,note_on,1120,0,2,,,,,,,,10,,,,41,75
102960,note_on,160,0,12,,,,,,,,8,,,,29,75
102960,note_on,160,0,7,,,,,,,,3,,,,41,92
103040,note_off,80,0,7,,,,,,,,3,,,,41,64
103040,note_off,80,0,10,,,,,,,,6,,,,60,64
103040,note_off,80,0,5,,,,,,,,1,,,,81,64
103040,note_off,80,0,8,,,,,,,,4,,,,29,64
103040,note_off,80,0,11,,,,,,,,7,,,,41,64
103040,note_off,80,0,9,,,,,,,,5,,,,81,64
103040,note_off,0,0,9,,,,,,,,5,,,,77,64
103040,note_off,0,0,5,,,,,,,,1,,,,77,64
103040,note_off,80,0,12,,,,,,,,8,,,,29,64
103040,note_off,80,0,2,,,,,,,,10,,,,41,64
103040,note_off,80,0,6,,,,,,,,2,,,,60,64
103080,note_on,40,0,12,,,,,,,,8,,,,29,75
103080,note_on,40,0,11,,,,,,,,7,,,,41,75
103080,note_on,40,0,8,,,,,,,,4,,,,29,92
103080,note_on,40,0,2,,,,,,,,10,,,,41,75
103080,note_off,120,0,1,,,,,,,,10,,,,72,64
103080,note_on,0,0,1,,,,,,,,10,,,,70,75
103080,note_on,40,0,7,,,,,,,,3,,,,41,92
103120,note_off,400,0,13,,,,,,,,11,,,,41,64
103160,note_off,80,0,12,,,,,,,,8,,,,29,64
103160,note_off,80,0,2,,,,,,,,10,,,,41,64
103160,note_off,80,0,8,,,,,,,,4,,,,29,64
103160,note_off,80,0,11,,,,,,,,7,,,,41,64
103160,note_off,80,0,7,,,,,,,,3,,,,41,64
103200,note_on,40,0,7,,,,,,,,3,,,,41,92
103200,note_on,0,0,1,,,,,,,,10,,,,69,75
103200,note_on,40,0,11,,,,,,,,7,,,,41,75
103200,note_on,160,0,10,,,,,,,,6,,,,60,75
103200,note_on,160,0,5,,,,,,,,1,,,,77,108
103200,note_on,0,0,5,,,,,,,,1,,,,81,108
103200,note_off,120,0,1,,,,,,,,10,,,,70,64
103200,note_on,160,0,6,,,,,,,,2,,,,60,92
103200,note_on,40,0,8,,,,,,,,4,,,,29,92
103200,note_on,0,0,9,,,,,,,,5,,,,81,75
103200,note_on,160,0,9,,,,,,,,5,,,,77,75
103200,note_on,40,0,12,,,,,,,,8,,,,29,75
103200,note_on,40,0,2,,,,,,,,10,,,,41,75
103280,note_off,80,0,2,,,,,,,,10,,,,41,64
103280,note_off,80,0,7,,,,,,,,3,,,,41,64
103280,note_off,80,0,10,,,,,,,,6,,,,60,64
103280,note_off,80,0,11,,,,,,,,7,,,,41,64
103280,note_off,80,0,5,,,,,,,,1,,,,81,64
103280,note_off,0,0,5,,,,,,,,1,,,,77,64
103280,note_off,80,0,8,,,,,,,,4,,,,29,64
103280,note_off,0,0,9,,,,,,,,5,,,,77,64
103280,note_off,80,0,9,,,,,,,,5,,,,81,64
103280,note_off,80,0,12,,,,,,,,8,,,,29,64
103280,note_off,80,0,6,,,,,,,,2,,,,60,64
103320,note_on,40,0,8,,,,,,,,4,,,,29,92
103320,note_on,40,0,12,,,,,,,,8,,,,29,75
103320,note_on,40,0,7,,,,,,,,3,,,,41,92
103320,note_on,40,0,2,,,,,,,,10,,,,41,75
103320,note_off,120,0,1,,,,,,,,10,,,,69,64
103320,note_on,0,0,1,,,,,,,,10,,,,67,75
103320,note_on,40,0,11,,,,,,,,7,,,,41,75
103400,note_off,80,0,11,,,,,,,,7,,,,41,64
103400,note_off,80,0,12,,,,,,,,8,,,,29,64
103400,note_off,80,0,8,,,,,,,,4,,,,29,64
103400,note_off,80,0,7,,,,,,,,3,,,,41,64
103400,note_off,80,0,2,,,,,,,,10,,,,41,64
103440,note_off,120,0,1,,,,,,,,10,,,,67,64
103470,note_on,0,0,9,,,,,,,,5,,,,69,45
103470,note_on,190,0,9,,,,,,,,5,,,,65,45
103470,note_on,70,0,2,,,,,,,,10,,,,41,30
103470,note_on,0,0,2,,,,,,,,10,,,,53,30
103470,note_on,70,0,7,,,,,,,,3,,,,53,45
103470,note_on,350,0,13,,,,,,,,11,,,,41,45
103470,note_on,70,0,8,,,,,,,,4,,,,41,45
103470,note_on,70,0,12,,,,,,,,8,,,,41,45
103470,note_on,0,0,5,,,,,,,,1,,,,69,60
103470,note_on,190,0,5,,,,,,,,1,,,,65,60
103470,note_on,190,0,10,,,,,,,,6,,,,60,45
103470,note_on,70,0,11,,,,,,,,7,,,,53,45
103470,note_on,190,0,6,,,,,,,,2,,,,60,45
103705,note_off,235,0,6,,,,,,,,2,,,,60,64
103705,note_off,0,0,2,,,,,,,,10,,,,41,64
103705,note_off,235,0,2,,,,,,,,10,,,,53,64
103705,note_off,0,0,5,,,,,,,,1,,,,65,64
103705,note_off,235,0,5,,,,,,,,1,,,,69,64
103705,note_off,235,0,10,,,,,,,,6,,,,60,64
103705,note_off,235,0,8,,,,,,,,4,,,,41,64
103705,note_off,235,0,7,,,,,,,,3,,,,53,64
103705,note_off,235,0,11,,,,,,,,7,,,,53,64
103705,note_off,0,0,9,,,,,,,,5,,,,65,64
103705,note_off,235,0,9,,,,,,,,5,,,,69,64
103705,note_off,235,0,12,,,,,,,,8,,,,41,64
103710,note_on,0,0,5,,,,,,,,1,,,,69,60
103710,note_on,5,0,5,,,,,,,,1,,,,65,60
103710,note_on,5,0,10,,,,,,,,6,,,,60,45
103710,note_on,0,0,2,,,,,,,,10,,,,53,30
103710,note_on,5,0,2,,,,,,,,10,,,,41,30
103710,note_on,5,0,6,,,,,,,,2,,,,60,45
103710,note_on,5,0,11,,,,,,,,7,,,,53,45
103710,note_on,5,0,9,,,,,,,,5,,,,65,45
103710,note_on,0,0,9,,,,,,,,5,,,,69,45
103710,note_on,5,0,7,,,,,,,,3,,,,53,45
103710,note_on,5,0,12,,,,,,,,8,,,,41,45
103710,note_on,5,0,8,,,,,,,,4,,,,41,45
103790,note_off,80,0,10,,,,,,,,6,,,,60,64
103790,note_off,80,0,6,,,,,,,,2,,,,60,64
103790,note_off,80,0,5,,,,,,,,1,,,,69,64
103790,note_off,80,0,2,,,,,,,,10,,,,53,64
103790,note_off,0,0,9,,,,,,,,5,,,,65,64
103790,note_off,80,0,9,,,,,,,,5,,,,69,64
103790,note_off,0,0,5,,,,,,,,1,,,,65,64
103790,note_off,80,0,8,,,,,,,,4,,,,41,64
103790,note_off,80,0,11,,,,,,,,7,,,,53,64
103790,note_off,80,0,12,,,,,,,,8,,,,41,64
103790,note_off,0,0,2,,,,,,,,10,,,,41,64
103790,note_off,80,0,7,,,,,,,,3,,,,53,64
103830,note_on,40,0,10,,,,,,,,6,,,,60,45
103830,note_on,40,0,8,,,,,,,,4,,,,41,45
103830,note_on,40,0,5,,,,,,,,1,,,,65,60
103830,note_on,40,0,6,,,,,,,,2,,,,60,45
103830,note_on,0,0,9,,,,,,,,5,,,,69,45
103830,note_on,40,0,9,,,,,,,,5,,,,65,45
103830,note_on,0,0,2,,,,,,,,10,,,,53,30
103830,note_on,40,0,2,,,,,,,,10,,,,41,30
103830,note_on,40,0,12,,,,,,,,8,,,,41,45
103830,note_on,40,0,11,,,,,,,,7,,,,53,45
103830,note_on,40,0,7,,,,,,,,3,,,,53,45
103830,note_on,0,0,5,,,,,,,,1,,,,69,60
103870,note_off,400,0,13,,,,,,,,11,,,,41,64
103910,note_off,80,0,10,,,,,,,,6,,,,60,64
103910,note_off,80,0,9,,,,,,,,5,,,,69,64
103910,note_off,80,0,12,,,,,,,,8,,,,41,64
103910,note_off,0,0,5,,,,,,,,1,,,,65,64
103910,note_off,80,0,7,,,,,,,,3,,,,53,64
103910,note_off,80,0,11,,,,,,,,7,,,,53,64
103910,note_off,80,0,8,,,,,,,,4,,,,41,64
103910,note_off,80,0,2,,,,,,,,10,,,,53,64
103910,note_off,0,0,2,,,,,,,,10,,,,41,64
103910,note_off,80,0,6,,,,,,,,2,,,,60,64
103910,note_off,80,0,5,,,,,,,,1,,,,69,64
103910,note_off,0,0,9,,,,,,,,5,,,,65,64
103950,note_on,40,0,12,,,,,,,,8,,,,41,45
103950,note_on,80,0,13,,,,,,,,11,,,,41,45
103950,note_on,40,0,6,,,,,,,,2,,,,60,45
103950,note_on,40,0,2,,,,,,,,10,,,,41,30
103950,note_on,0,0,2,,,,,,,,10,,,,53,30
103950,note_on,40,0,7,,,,,,,,3,,,,53,45
103950,note_on,40,0,9,,,,,,,,5,,,,65,45
103950,note_on,0,0,9,,,,,,,,5,,,,69,45
103950,note_on,40,0,5,,,,,,,,1,,,,65,60
103950,note_on,40,0,10,,,,,,,,6,,,,60,45
103950,note_on,0,0,5,,,,,,,,1,,,,69,60
103950,note_on,40,0,8,,,,,,,,4,,,,41,45
103950,note_on,40,0,11,,,,,,,,7,,,,53,45
104030,note_off,80,0,2,,,,,,,,10,,,,53,64
104030,note_off,0,0,5,,,,,,,,1,,,,65,64
104030,note_off,80,0,5,,,,,,,,1,,,,69,64
104030,note_off,80,0,7,,,,,,,,3,,,,53,64
104030,note_off,0,0,2,,,,,,,,10,,,,41,64
104030,note_off,80,0,11,,,,,,,,7,,,,53,64
104030,note_off,0,0,9,,,,,,,,5,,,,65,64
104030,note_off,80,0,9,,,,,,,,5,,,,69,64
104030,note_off,80,0,8,,,,,,,,4,,,,41,64
104030,note_off,80,0,6,,,,,,,,2,,,,60,64
104030,note_off,80,0,12,,,,,,,,8,,,,41,64
104030,note_off,80,0,10,,,,,,,,6,,,,60,64
104065,note_off,115,0,13,,,,,,,,11,,,,41,64
104070,note_on,0,0,9,,,,,,,,5,,,,70,45
104070,note_on,40,0,2,,,,,,,,10,,,,36,30
104070,note_on,40,0,10,,,,,,,,6,,,,64,45
104070,note_on,40,0,5,,,,,,,,1,,,,67,60
104070,note_on,0,0,2,,,,,,,,10,,,,48,30
104070,note_on,40,0,8,,,,,,,,4,,,,36,45
104070,note_on,40,0,9,,,,,,,,5,,,,67,45
104070,note_on,40,0,11,,,,,,,,7,,,,48,45
104070,note_on,0,0,5,,,,,,,,1,,,,70,60
104070,note_on,5,0,13,,,,,,,,11,,,,36,45
104070,note_on,40,0,7,,,,,,,,3,,,,48,45
104070,note_on,40,0,6,,,,,,,,2,,,,64,45
104070,note_on,40,0,12,,,,,,,,8,,,,36,45
104150,note_off,0,0,9,,,,,,,,5,,,,67,64
104150,note_off,80,0,9,,,,,,,,5,,,,70,64
104150,note_off,80,0,10,,,,,,,,6,,,,64,64
104150,note_off,80,0,2,,,,,,,,10,,,,48,64
104150,note_off,80,0,7,,,,,,,,3,,,,48,64
104150,note_off,0,0,5,,,,,,,,1,,,,67,64
104150,note_off,80,0,5,,,,,,,,1,,,,70,64
104150,note_off,80,0,8,,,,,,,,4,,,,36,64
104150,note_off,80,0,11,,,,,,,,7,,,,48,64
104150,note_off,0,0,2,,,,,,,,10,,,,36,64
104150,note_off,80,0,12,,,,,,,,8,,,,36,64
104150,note_off,80,0,6,,,,,,,,2,,,,64,64
104185,note_off,115,0,13,,,,,,,,11,,,,36,64
104190,note_on,5,0,13,,,,,,,,11,,,,41,45
104190,note_on,40,0,8,,,,,,,,4,,,,41,45
104190,note_on,40,0,12,,,,,,,,8,,,,41,45
104190,note_on,750,0,1,,,,,,,,10,,,,57,45
104190,note_on,40,0,6,,,,,,,,2,,,,60,45
104190,note_on,40,0,11,,,,,,,,7,,,,53,45
104190,note_on,40,0,9,,,,,,,,5,,,,69,45
104190,note_on,40,0,7,,,,,,,,3,,,,53,45
104190,note_on,40,0,10,,,,,,,,6,,,,60,45
104190,note_on,40,0,5,,,,,,,,1,,,,69,60
104190,note_on,0,0,5,,,,,,,,1,,,,72,60
104190,note_on,40,0,2,,,,,,,,10,,,,53,30
104190,note_on,0,0,9,,,,,,,,5,,,,72,45
104270,note_off,80,0,2,,,,,,,,10,,,,53,64
104270,note_off,80,0,10,,,,,,,,6,,,,60,64
104270,note_off,80,0,6,,,,,,,,2,,,,60,64
104270,note_off,0,0,9,,,,,,,,5,,,,69,64
104270,note_off,80,0,9,,,,,,,,5,,,,72,64
104270,note_off,80,0,11,,,,,,,,7,,,,53,64
104270,note_off,80,0,7,,,,,,,,3,,,,53,64
104270,note_off,80,0,5,,,,,,,,1,,,,72,64
104270,note_off,0,0,5,,,,,,,,1,,,,69,64
104270,note_off,80,0,8,,,,,,,,4,,,,41,64
104270,note_off,80,0,12,,,,,,,,8,,,,41,64
104310,note_on,0,0,1,,,,,,,,10,,,,58,45
104310,note_off,120,0,1,,,,,,,,10,,,,57,64
104430,note_on,160,0,11,,,,,,,,7,,,,41,45
104430,note_on,160,0,10,,,,,,,,6,,,,60,45
104430,note_on,160,0,7,,,,,,,,3,,,,41,45
104430,note_on,160,0,9,,,,,,,,5,,,,65,45
104430,note_on,160,0,6,,,,,,,,2,,,,60,45
104430,note_on,0,0,9,,,,,,,,5,,,,69,45
104430,note_on,160,0,8,,,,,,,,4,,,,29,45
104430,note_off,120,0,1,,,,,,,,10,,,,58,64
104430,note_on,0,0,1,,,,,,,,10,,,,60,45
104430,note_on,160,0,12,,,,,,,,8,,,,29,45
104430,note_on,160,0,2,,,,,,,,10,,,,41,30
104430,note_on,160,0,5,,,,,,,,1,,,,65,60
104430,note_on,0,0,5,,,,,,,,1,,,,69,60
104510,note_off,80,0,6,,,,,,,,2,,,,60,64
104510,note_off,80,0,8,,,,,,,,4,,,,29,64
104510,note_off,0,0,5,,,,,,,,1,,,,65,64
104510,note_off,80,0,2,,,,,,,,10,,,,41,64
104510,note_off,80,0,10,,,,,,,,6,,,,60,64
104510,note_off,80,0,7,,,,,,,,3,,,,41,64
104510,note_off,0,0,9,,,,,,,,5,,,,65,64
104510,note_off,80,0,5,,,,,,,,1,,,,69,64
104510,note_off,80,0,12,,,,,,,,8,,,,29,64
104510,note_off,80,0,9,,,,,,,,5,,,,69,64
104510,note_off,80,0,11,,,,,,,,7,,,,41,64
104550,note_on,40,0,8,,,,,,,,4,,,,29,45
104550,note_on,40,0,7,,,,,,,,3,,,,41,45
104550,note_on,40,0,12,,,,,,,,8,,,,29,45
104550,note_on,0,0,1,,,,,,,,10,,,,58,45
104550,note_off,120,0,1,,,,,,,,10,,,,60,64
104550,note_on,40,0,11,,,,,,,,7,,,,41,45
104550,note_on,40,0,2,,,,,,,,10,,,,41,30
104590,note_off,400,0,13,,,,,,,,11,,,,41,64
104630,note_off,80,0,7,,,,,,,,3,,,,41,64
104630,note_off,80,0,12,,,,,,,,8,,,,29,64
104630,note_off,80,0,2,,,,,,,,10,,,,41,64
104630,note_off,80,0,11,,,,,,,,7,,,,41,64
104630,note_off,80,0,8,,,,,,,,4,,,,29,64
104670,note_on,40,0,8,,,,,,,,4,,,,29,45
104670,note_on,0,0,1,,,,,,,,10,,,,57,45
104670,note_on,160,0,9,,,,,,,,5,,,,65,45
104670,note_on,0,0,9,,,,,,,,5,,,,69,45
104670,note_off,120,0,1,,,,,,,,10,,,,58,64
104670,note_on,0,0,5,,,,,,,,1,,,,69,60
104670,note_on,160,0,5,,,,,,,,1,,,,65,60
104670,note_on,40,0,12,,,,,,,,8,,,,29,45
104670,note_on,160,0,6,,,,,,,,2,,,,60,45
104670,note_on,40,0,11,,,,,,,,7,,,,41,45
104670,note_on,160,0,10,,,,,,,,6,,,,60,45
104670,note_on,40,0,2,,,,,,,,10,,,,41,30
104670,note_on,40,0,7,,,,,,,,3,,,,41,45
104750,note_off,80,0,6,,,,,,,,2,,,,60,64
104750,note_off,80,0,11,,,,,,,,7,,,,41,64
104750,note_off,80,0,7,,,,,,,,3,,,,41,64
104750,note_off,80,0,8,,,,,,,,4,,,,29,64
104750,note_off,80,0,10,,,,,,,,6,,,,60,64
104750,note_off,80,0,12,,,,,,,,8,,,,29,64
104750,note_off,80,0,9,,,,,,,,5,,,,69,64
104750,note_off,0,0,9,,,,,,,,5,,,,65,64
104750,note_off,80,0,2,,,,,,,,10,,,,41,64
104750,note_off,80,0,5,,,,,,,,1,,,,69,64
104750,note_off,0,0,5,,,,,,,,1,,,,65,64
104790,note_off,120,0,1,,,,,,,,10,,,,57,64
104790,note_on,40,0,11,,,,,,,,7,,,,41,45
104790,note_on,40,0,2,,,,,,,,10,,,,41,30
104790,note_on,40,0,7,,,,,,,,3,,,,41,45
104790,note_on,40,0,8,,,,,,,,4,,,,29,45
104790,note_on,40,0,12,,,,,,,,8,,,,29,45
104790,note_on,0,0,1,,,,,,,,10,,,,55,45
104870,note_off,80,0,7,,,,,,,,3,,,,41,64
104870,note_off,80,0,11,,,,,,,,7,,,,41,64
104870,note_off,80,0,2,,,,,,,,10,,,,41,64
104870,note_off,80,0,8,,,,,,,,4,,,,29,64
104870,note_off,80,0,12,,,,,,,,8,,,,29,64
104910,note_off,120,0,1,,,,,,,,10,,,,55,64
104940,note_on,70,0,11,,,,,,,,7,,,,41,75
104940,note_on,190,0,10,,,,,,,,6,,,,57,75
104940,note_on,70,0,2,,,,,,,,10,,,,41,92
104940,note_on,190,0,5,,,,,,,,1,,,,65,108
104940,note_on,190,0,6,,,,,,,,2,,,,57,92
104940,note_on,70,0,12,,,,,,,,8,,,,29,75
104940,note_on,350,0,13,,,,,,,,11,,,,41,75
104940,note_on,70,0,8,,,,,,,,4,,,,29,92
104940,note_on,70,0,7,,,,,,,,3,,,,41,92
104940,note_on,190,0,9,,,,,,,,5,,,,65,75
105115,note_off,175,0,9,,,,,,,,5,,,,65,64
105115,note_off,175,0,5,,,,,,,,1,,,,65,64
105120,note_on,5,0,5,,,,,,,,1,,,,72,108
105120,note_on,5,0,9,,,,,,,,5,,,,72,75
105160,note_off,40,0,5,,,,,,,,1,,,,72,64
105160,note_off,40,0,9,,,,,,,,5,,,,72,64
105175,note_off,235,0,11,,,,,,,,7,,,,41,64
105175,note_off,235,0,2,,,,,,,,10,,,,41,64
105175,note_off,235,0,12,,,,,,,,8,,,,29,64
105175,note_off,235,0,7,,,,,,,,3,,,,41,64
105175,note_off,235,0,6,,,,,,,,2,,,,57,64
105175,note_off,235,0,10,,,,,,,,6,,,,57,64
105175,note_off,235,0,8,,,,,,,,4,,,,29,64
105180,note_on,5,0,10,,,,,,,,6,,,,60,75
105180,note_on,5,0,2,,,,,,,,10,,,,53,92
105180,note_on,5,0,6,,,,,,,,2,,,,60,92
105180,note_on,20,0,9,,,,,,,,5,,,,65,75
105180,note_on,270,0,1,,,,,,,,10,,,,57,75
105180,note_on,5,0,8,,,,,,,,4,,,,41,92
105180,note_on,5,0,12,,,,,,,,8,,,,41,75
105180,note_on,5,0,11,,,,,,,,7,,,,53,75
105180,note_on,5,0,7,,,,,,,,3,,,,53,92
105180,note_on,20,0,5,,,,,,,,1,,,,65,108
105260,note_off,80,0,11,,,,,,,,7,,,,53,64
105260,note_off,80,0,8,,,,,,,,4,,,,41,64
105260,note_off,80,0,5,,,,,,,,1,,,,65,64
105260,note_off,80,0,9,,,,,,,,5,,,,65,64
105260,note_off,80,0,6,,,,,,,,2,,,,60,64
105260,note_off,80,0,12,,,,,,,,8,,,,41,64
105260,note_off,80,0,10,,,,,,,,6,,,,60,64
105260,note_off,80,0,2,,,,,,,,10,,,,53,64
105260,note_off,80,0,7,,,,,,,,3,,,,53,64
105300,note_off,120,0,1,,,,,,,,10,,,,57,64
105300,note_on,0,0,1,,,,,,,,10,,,,60,75
105340,note_off,400,0,13,,,,,,,,11,,,,41,64
105420,note_off,120,0,1,,,,,,,,10,,,,60,64
105420,note_on,160,0,5,,,,,,,,1,,,,65,108
105420,note_on,160,0,7,,,,,,,,3,,,,53,92
105420,note_on,160,0,9,,,,,,,,5,,,,65,75
105420,note_on,160,0,12,,,,,,,,8,,,,41,75
105420,note_on,0,0,1,,,,,,,,10,,,,65,75
105420,note_on,160,0,11,,,,,,,,7,,,,53,75
105420,note_on,160,0,2,,,,,,,,10,,,,53,92
105420,note_on,160,0,8,,,,,,,,4,,,,41,92
105420,note_on,160,0,10,,,,,,,,6,,,,57,75
105420,note_on,160,0,6,,,,,,,,2,,,,57,92
105500,note_off,80,0,10,,,,,,,,6,,,,57,64
105500,note_off,80,0,8,,,,,,,,4,,,,41,64
105500,note_off,80,0,7,,,,,,,,3,,,,53,64
105500,note_off,80,0,9,,,,,,,,5,,,,65,64
105500,note_off,80,0,11,,,,,,,,7,,,,53,64
105500,note_off,80,0,6,,,,,,,,2,,,,57,64
105500,note_off,80,0,12,,,,,,,,8,,,,41,64
105500,note_off,80,0,5,,,,,,,,1,,,,65,64
105500,note_off,80,0,2,,,,,,,,10,,,,53,64
105540,note_on,0,0,1,,,,,,,,10,,,,60,75
105540,note_off,120,0,1,,,,,,,,10,,,,65,64
105660,note_on,160,0,11,,,,,,,,7,,,,41,75
105660,note_on,320,0,13,,,,,,,,11,,,,41,75
105660,note_on,160,0,10,,,,,,,,6,,,,57,75
105660,note_on,160,0,2,,,,,,,,10,,,,41,92
105660,note_on,160,0,9,,,,,,,,5,,,,65,75
105660,note_on,160,0,6,,,,,,,,2,,,,57,92
105660,note_off,120,0,1,,,,,,,,10,,,,60,64
105660,note_on,160,0,12,,,,,,,,8,,,,29,75
105660,note_on,160,0,5,,,,,,,,1,,,,65,108
105660,note_on,160,0,7,,,,,,,,3,,,,41,92
105660,note_on,160,0,8,,,,,,,,4,,,,29,92
105835,note_off,175,0,9,,,,,,,,5,,,,65,64
105835,note_off,175,0,5,,,,,,,,1,,,,65,64
105840,note_on,5,0,9,,,,,,,,5,,,,72,75
105840,note_on,5,0,5,,,,,,,,1,,,,72,108
105880,note_off,40,0,9,,,,,,,,5,,,,72,64
105880,note_off,40,0,5,,,,,,,,1,,,,72,64
105895,note_off,235,0,12,,,,,,,,8,,,,29,64
105895,note_off,235,0,6,,,,,,,,2,,,,57,64
105895,note_off,235,0,8,,,,,,,,4,,,,29,64
105895,note_off,235,0,7,,,,,,,,3,,,,41,64
105895,note_off,235,0,2,,,,,,,,10,,,,41,64
105895,note_off,235,0,10,,,,,,,,6,,,,57,64
105895,note_off,235,0,11,,,,,,,,7,,,,41,64
105900,note_on,5,0,11,,,,,,,,7,,,,53,75
105900,note_on,20,0,5,,,,,,,,1,,,,65,108
105900,note_on,5,0,8,,,,,,,,4,,,,41,92
105900,note_on,5,0,2,,,,,,,,10,,,,53,92
105900,note_on,5,0,6,,,,,,,,2,,,,60,92
105900,note_on,240,0,1,,,,,,,,10,,,,57,75
105900,note_on,5,0,7,,,,,,,,3,,,,53,92
105900,note_on,5,0,10,,,,,,,,6,,,,60,75
105900,note_on,5,0,12,,,,,,,,8,,,,41,75
105900,note_on,20,0,9,,,,,,,,5,,,,65,75
105980,note_off,80,0,12,,,,,,,,8,,,,41,64
105980,note_off,80,0,11,,,,,,,,7,,,,53,64
105980,note_off,80,0,6,,,,,,,,2,,,,60,64
105980,note_off,80,0,8,,,,,,,,4,,,,41,64
105980,note_off,80,0,10,,,,,,,,6,,,,60,64
105980,note_off,80,0,5,,,,,,,,1,,,,65,64
105980,note_off,80,0,7,,,,,,,,3,,,,53,64
105980,note_off,80,0,9,,,,,,,,5,,,,65,64
105980,note_off,80,0,2,,,,,,,,10,,,,53,64
106020,note_off,120,0,1,,,,,,,,10,,,,57,64
106020,note_on,0,0,1,,,,,,,,10,,,,60,75
106060,note_off,400,0,13,,,,,,,,11,,,,41,64
106140,note_on,160,0,9,,,,,,,,5,,,,65,75
106140,note_on,160,0,5,,,,,,,,1,,,,65,108
106140,note_on,160,0,7,,,,,,,,3,,,,53,92
106140,note_off,120,0,1,,,,,,,,10,,,,60,64
106140,note_on,160,0,11,,,,,,,,7,,,,53,75
106140,note_on,160,0,12,,,,,,,,8,,,,41,75
106140,note_on,160,0,10,,,,,,,,6,,,,57,75
106140,note_on,160,0,6,,,,,,,,2,,,,57,92
106140,note_on,160,0,8,,,,,,,,4,,,,41,92
106140,note_on,0,0,1,,,,,,,,10,,,,65,75
106140,note_on,160,0,2,,,,,,,,10,,,,53,92
106220,note_off,80,0,6,,,,,,,,2,,,,57,64
106220,note_off,80,0,8,,,,,,,,4,,,,41,64
106220,note_off,80,0,11,,,,,,,,7,,,,53,64
106220,note_off,80,0,7,,,,,,,,3,,,,53,64
106220,note_off,80,0,12,,,,,,,,8,,,,41,64
106220,note_off,80,0,9,,,,,,,,5,,,,65,64
106220,note_off,80,0,2,,,,,,,,10,,,,53,64
106220,note_off,80,0,5,,,,,,,,1,,,,65,64
106220,note_off,80,0,10,,,,,,,,6,,,,57,64
106260,note_off,120,0,1,,,,,,,,10,,,,65,64
106260,note_on,0,0,1,,,,,,,,10,,,,60,75
106380,note_on,160,0,8,,,,,,,,4,,,,29,92
106380,note_on,160,0,5,,,,,,,,1,,,,65,108
106380,note_on,160,0,9,,,,,,,,5,,,,65,75
106380,note_on,160,0,2,,,,,,,,10,,,,41,92
106380,note_on,160,0,7,,,,,,,,3,,,,41,92
106380,note_on,160,0,6,,,,,,,,2,,,,57,92
106380,note_on,160,0,10,,,,,,,,6,,,,57,75
106380,note_on,160,0,11,,,,,,,,7,,,,41,75
106380,note_on,160,0,12,,,,,,,,8,,,,29,75
106380,note_off,120,0,1,,,,,,,,10,,,,60,64
106380,note_on,320,0,13,,,,,,,,11,,,,41,75
106460,note_off,80,0,10,,,,,,,,6,,,,57,64
106460,note_off,80,0,6,,,,,,,,2,,,,57,64
106555,note_off,175,0,2,,,,,,,,10,,,,41,64
106555,note_off,175,0,7,,,,,,,,3,,,,41,64
106555,note_off,175,0,9,,,,,,,,5,,,,65,64
106555,note_off,175,0,8,,,,,,,,4,,,,29,64
106555,note_off,175,0,11,,,,,,,,7,,,,41,64
106555,note_off,175,0,5,,,,,,,,1,,,,65,64
106555,note_off,175,0,12,,,,,,,,8,,,,29,64
106560,note_on,5,0,9,,,,,,,,5,,,,72,75
106560,note_on,5,0,7,,,,,,,,3,,,,53,92
106560,note_on,5,0,8,,,,,,,,4,,,,41,92
106560,note_on,5,0,11,,,,,,,,7,,,,53,75
106560,note_on,5,0,5,,,,,,,,1,,,,72,108
106560,note_on,5,0,12,,,,,,,,8,,,,41,75
106560,note_on,5,0,2,,,,,,,,10,,,,53,92
106600,note_off,40,0,5,,,,,,,,1,,,,72,64
106600,note_off,40,0,2,,,,,,,,10,,,,53,64
106600,note_off,40,0,12,,,,,,,,8,,,,41,64
106600,note_off,40,0,11,,,,,,,,7,,,,53,64
106600,note_off,40,0,8,,,,,,,,4,,,,41,64
106600,note_off,40,0,9,,,,,,,,5,,,,72,64
106600,note_off,40,0,7,,,,,,,,3,,,,53,64
106615,note_off,235,0,13,,,,,,,,11,,,,41,64
106620,note_on,240,0,1,,,,,,,,10,,,,62,75
106620,note_on,20,0,7,,,,,,,,3,,,,46,92
106620,note_on,20,0,5,,,,,,,,1,,,,70,108
106620,note_on,20,0,11,,,,,,,,7,,,,46,75
106620,note_on,20,0,2,,,,,,,,10,,,,46,92
106620,note_on,5,0,13,,,,,,,,11,,,,34,75
106620,note_on,160,0,10,,,,,,,,6,,,,62,75
106620,note_on,20,0,9,,,,,,,,5,,,,70,75
106620,note_on,20,0,8,,,,,,,,4,,,,34,92
106620,note_on,20,0,12,,,,,,,,8,,,,34,75
106620,note_on,0,0,1,,,,,,,,10,,,,70,75
106620,note_on,160,0,6,,,,,,,,2,,,,62,92
106700,note_off,80,0,6,,,,,,,,2,,,,62,64
106700,note_off,0,0,1,,,,,,,,10,,,,62,64
106700,note_off,80,0,8,,,,,,,,4,,,,34,64
106700,note_off,80,0,5,,,,,,,,1,,,,70,64
106700,note_off,80,0,10,,,,,,,,6,,,,62,64
106700,note_off,80,0,2,,,,,,,,10,,,,46,64
106700,note_off,80,0,12,,,,,,,,8,,,,34,64
106700,note_off,80,0,9,,,,,,,,5,,,,70,64
106700,note_off,80,0,11,,,,,,,,7,,,,46,64
106700,note_off,80,0,7,,,,,,,,3,,,,46,64
106700,note_off,80,0,1,,,,,,,,10,,,,70,64
106855,note_off,235,0,13,,,,,,,,11,,,,34,64
106860,note_on,5,0,13,,,,,,,,11,,,,35,75
106860,note_on,160,0,6,,,,,,,,2,,,,62,92
106860,note_on,160,0,7,,,,,,,,3,,,,47,92
106860,note_on,160,0,5,,,,,,,,1,,,,69,108
106860,note_on,160,0,12,,,,,,,,8,,,,35,75
106860,note_on,0,0,1,,,,,,,,10,,,,69,75
106860,note_on,160,0,8,,,,,,,,4,,,,35,92
106860,note_on,160,0,11,,,,,,,,7,,,,47,75
106860,note_on,160,0,9,,,,,,,,5,,,,69,75
106860,note_on,160,0,2,,,,,,,,10,,,,47,92
106860,note_on,160,0,10,,,,,,,,6,,,,62,75
106860,note_on,160,0,1,,,,,,,,10,,,,62,75
106940,note_off,80,0,6,,,,,,,,2,,,,62,64
106940,note_off,80,0,2,,,,,,,,10,,,,47,64
106940,note_off,80,0,5,,,,,,,,1,,,,69,64
106940,note_off,80,0,9,,,,,,,,5,,,,69,64
106940,note_off,0,0,1,,,,,,,,10,,,,62,64
106940,note_off,80,0,1,,,,,,,,10,,,,69,64
106940,note_off,80,0,11,,,,,,,,7,,,,47,64
106940,note_off,80,0,7,,,,,,,,3,,,,47,64
106940,note_off,80,0,12,,,,,,,,8,,,,35,64
106940,note_off,80,0,10,,,,,,,,6,,,,62,64
106940,note_off,80,0,8,,,,,,,,4,,,,35,64
107095,note_off,235,0,13,,,,,,,,11,,,,35,64
107100,note_on,0,0,9,,,,,,,,5,,,,67,75
107100,note_on,160,0,5,,,,,,,,1,,,,60,108
107100,note_on,160,0,11,,,,,,,,7,,,,48,75
107100,note_on,160,0,2,,,,,,,,10,,,,48,92
107100,note_on,160,0,7,,,,,,,,3,,,,48,92
107100,note_on,160,0,9,,,,,,,,5,,,,60,75
107100,note_on,0,0,5,,,,,,,,1,,,,67,108
107100,note_on,160,0,10,,,,,,,,6,,,,64,75
107100,note_on,160,0,6,,,,,,,,2,,,,64,92
107100,note_on,160,0,1,,,,,,,,10,,,,64,75
107100,note_on,160,0,12,,,,,,,,8,,,,36,75
107100,note_on,160,0,8,,,,,,,,4,,,,36,92
107100,note_on,5,0,13,,,,,,,,11,,,,36,75
107180,note_off,80,0,7,,,,,,,,3,,,,48,64
107180,note_off,80,0,6,,,,,,,,2,,,,64,64
107180,note_off,80,0,10,,,,,,,,6,,,,64,64
107180,note_off,80,0,12,,,,,,,,8,,,,36,64
107180,note_off,80,0,11,,,,,,,,7,,,,48,64
107180,note_off,80,0,5,,,,,,,,1,,,,67,64
107180,note_off,80,0,8,,,,,,,,4,,,,36,64
107180,note_off,80,0,2,,,,,,,,10,,,,48,64
107180,note_off,80,0,9,,,,,,,,5,,,,67,64
107180,note_off,80,0,1,,,,,,,,10,,,,64,64
107180,note_off,0,0,9,,,,,,,,5,,,,60,64
107180,note_off,0,0,5,,,,,,,,1,,,,60,64
107220,note_on,40,0,10,,,,,,,,6,,,,62,70
107220,note_on,40,0,6,,,,,,,,2,,,,62,85
107220,note_on,40,0,1,,,,,,,,10,,,,62,68
107220,note_on,40,0,2,,,,,,,,10,,,,46,85
107220,note_on,40,0,7,,,,,,,,3,,,,46,85
107220,note_on,40,0,11,,,,,,,,7,,,,46,70
107220,note_on,40,0,8,,,,,,,,4,,,,34,85
107220,note_on,40,0,12,,,,,,,,8,,,,34,70
107300,note_off,80,0,2,,,,,,,,10,,,,46,64
107300,note_off,80,0,8,,,,,,,,4,,,,34,64
107300,note_off,80,0,7,,,,,,,,3,,,,46,64
107300,note_off,80,0,11,,,,,,,,7,,,,46,64
107300,note_off,80,0,10,,,,,,,,6,,,,62,64
107300,note_off,80,0,12,,,,,,,,8,,,,34,64
107300,note_off,80,0,1,,,,,,,,10,,,,62,64
107300,note_off,80,0,6,,,,,,,,2,,,,62,64
107340,note_on,40,0,6,,,,,,,,2,,,,60,77
107340,note_on,160,0,9,,,,,,,,5,,,,60,65
107340,note_on,40,0,10,,,,,,,,6,,,,60,65
107340,note_on,40,0,11,,,,,,,,7,,,,45,65
107340,note_on,40,0,7,,,,,,,,3,,,,45,77
107340,note_on,40,0,2,,,,,,,,10,,,,45,77
107340,note_on,40,0,8,,,,,,,,4,,,,33,77
107340,note_on,0,0,5,,,,,,,,1,,,,67,92
107340,note_on,160,0,5,,,,,,,,1,,,,60,92
107340,note_on,0,0,9,,,,,,,,5,,,,67,65
107340,note_on,40,0,12,,,,,,,,8,,,,33,65
107340,note_on,40,0,1,,,,,,,,10,,,,60,61
107420,note_off,0,0,5,,,,,,,,1,,,,60,64
107420,note_off,80,0,8,,,,,,,,4,,,,33,64
107420,note_off,80,0,9,,,,,,,,5,,,,67,64
107420,note_off,0,0,9,,,,,,,,5,,,,60,64
107420,note_off,80,0,5,,,,,,,,1,,,,67,64
107420,note_off,80,0,7,,,,,,,,3,,,,45,64
107420,note_off,80,0,11,,,,,,,,7,,,,45,64
107420,note_off,80,0,1,,,,,,,,10,,,,60,64
107420,note_off,80,0,6,,,,,,,,2,,,,60,64
107420,note_off,80,0,10,,,,,,,,6,,,,60,64
107420,note_off,80,0,12,,,,,,,,8,,,,33,64
107420,note_off,80,0,2,,,,,,,,10,,,,45,64
107460,note_on,40,0,11,,,,,,,,7,,,,43,60
107460,note_on,40,0,2,,,,,,,,10,,,,43,69
107460,note_on,40,0,7,,,,,,,,3,,,,43,69
107460,note_on,40,0,10,,,,,,,,6,,,,58,60
107460,note_on,40,0,8,,,,,,,,4,,,,31,69
107460,note_on,40,0,6,,,,,,,,2,,,,58,69
107460,note_on,40,0,1,,,,,,,,10,,,,58,54
107460,note_on,40,0,12,,,,,,,,8,,,,31,60
107500,note_off,400,0,13,,,,,,,,11,,,,36,64
107540,note_off,80,0,10,,,,,,,,6,,,,58,64
107540,note_off,80,0,6,,,,,,,,2,,,,58,64
107540,note_off,80,0,1,,,,,,,,10,,,,58,64
107540,note_off,80,0,7,,,,,,,,3,,,,43,64
107540,note_off,80,0,2,,,,,,,,10,,,,43,64
107540,note_off,80,0,11,,,,,,,,7,,,,43,64
107540,note_off,80,0,8,,,,,,,,4,,,,31,64
107540,note_off,80,0,12,,,,,,,,8,,,,31,64
107580,note_on,160,0,9,,,,,,,,5,,,,60,55
107580,note_on,0,0,9,,,,,,,,5,,,,67,55
107580,note_on,0,0,5,,,,,,,,1,,,,67,76
107580,note_on,40,0,8,,,,,,,,4,,,,29,61
107580,note_on,160,0,5,,,,,,,,1,,,,60,76
107580,note_on,40,0,7,,,,,,,,3,,,,41,61
107580,note_on,40,0,1,,,,,,,,10,,,,57,46
107580,note_on,40,0,6,,,,,,,,2,,,,57,61
107580,note_on,40,0,2,,,,,,,,10,,,,41,61
107580,note_on,40,0,12,,,,,,,,8,,,,29,55
107580,note_on,40,0,10,,,,,,,,6,,,,57,55
107580,note_on,40,0,11,,,,,,,,7,,,,41,55
107660,note_off,80,0,6,,,,,,,,2,,,,57,64
107660,note_off,80,0,1,,,,,,,,10,,,,57,64
107660,note_off,80,0,10,,,,,,,,6,,,,57,64
107660,note_off,80,0,2,,,,,,,,10,,,,41,64
107660,note_off,80,0,9,,,,,,,,5,,,,67,64
107660,note_off,80,0,7,,,,,,,,3,,,,41,64
107660,note_off,80,0,11,,,,,,,,7,,,,41,64
107660,note_off,80,0,12,,,,,,,,8,,,,29,64
107660,note_off,80,0,5,,,,,,,,1,,,,67,64
107660,note_off,80,0,8,,,,,,,,4,,,,29,64
107660,note_off,0,0,9,,,,,,,,5,,,,60,64
107660,note_off,0,0,5,,,,,,,,1,,,,60,64
107700,note_on,40,0,2,,,,,,,,10,,,,40,53
107700,note_on,40,0,6,,,,,,,,2,,,,55,53
107700,note_on,40,0,7,,,,,,,,3,,,,40,53
107700,note_on,40,0,1,,,,,,,,10,,,,55,38
107700,note_on,40,0,12,,,,,,,,8,,,,28,50
107700,note_on,40,0,10,,,,,,,,6,,,,55,50
107700,note_on,40,0,11,,,,,,,,7,,,,40,50
107700,note_on,40,0,8,,,,,,,,4,,,,28,53
107780,note_off,80,0,2,,,,,,,,10,,,,40,64
107780,note_off,80,0,7,,,,,,,,3,,,,40,64
107780,note_off,80,0,1,,,,,,,,10,,,,55,64
107780,note_off,80,0,12,,,,,,,,8,,,,28,64
107780,note_off,80,0,10,,,,,,,,6,,,,55,64
107780,note_off,80,0,6,,,,,,,,2,,,,55,64
107780,note_off,80,0,8,,,,,,,,4,,,,28,64
107780,note_off,80,0,11,,,,,,,,7,,,,40,64
107820,note_on,40,0,10,,,,,,,,6,,,,57,45
107820,note_on,160,0,5,,,,,,,,1,,,,65,60
107820,note_on,40,0,12,,,,,,,,8,,,,29,45
107820,note_on,40,0,7,,,,,,,,3,,,,41,45
107820,note_on,40,0,6,,,,,,,,2,,,,57,45
107820,note_on,40,0,8,,,,,,,,4,,,,29,45
107820,note_on,40,0,11,,,,,,,,7,,,,41,45
107820,note_on,40,0,2,,,,,,,,10,,,,41,45
107820,note_on,160,0,9,,,,,,,,5,,,,65,45
107820,note_on,320,0,13,,,,,,,,11,,,,41,45
107995,note_off,175,0,5,,,,,,,,1,,,,65,64
107995,note_off,175,0,9,,,,,,,,5,,,,65,64
108000,note_on,5,0,9,,,,,,,,5,,,,72,45
108000,note_on,5,0,5,,,,,,,,1,,,,72,60
108040,note_off,40,0,5,,,,,,,,1,,,,72,64
108040,note_off,40,0,9,,,,,,,,5,,,,72,64
108055,note_off,235,0,12,,,,,,,,8,,,,29,64
108055,note_off,235,0,6,,,,,,,,2,,,,57,64
108055,note_off,235,0,8,,,,,,,,4,,,,29,64
108055,note_off,235,0,10,,,,,,,,6,,,,57,64
108055,note_off,235,0,7,,,,,,,,3,,,,41,64
108055,note_off,235,0,11,,,,,,,,7,,,,41,64
108055,note_off,235,0,2,,,,,,,,10,,,,41,64
108060,note_on,5,0,10,,,,,,,,6,,,,60,45
108060,note_on,5,0,6,,,,,,,,2,,,,60,45
108060,note_on,5,0,7,,,,,,,,3,,,,53,45
108060,note_on,20,0,9,,,,,,,,5,,,,65,45
108060,note_on,5,0,12,,,,,,,,8,,,,41,45
108060,note_on,5,0,2,,,,,,,,10,,,,53,45
108060,note_on,280,0,1,,,,,,,,10,,,,57,45
108060,note_on,5,0,11,,,,,,,,7,,,,53,45
108060,note_on,5,0,8,,,,,,,,4,,,,41,45
108060,note_on,20,0,5,,,,,,,,1,,,,65,60
108140,note_off,80,0,11,,,,,,,,7,,,,53,64
108140,note_off,80,0,8,,,,,,,,4,,,,41,64
108140,note_off,80,0,2,,,,,,,,10,,,,53,64
108140,note_off,80,0,9,,,,,,,,5,,,,65,64
108140,note_off,80,0,12,,,,,,,,8,,,,41,64
108140,note_off,80,0,6,,,,,,,,2,,,,60,64
108140,note_off,80,0,7,,,,,,,,3,,,,53,64
108140,note_off,80,0,5,,,,,,,,1,,,,65,64
108140,note_off,80,0,10,,,,,,,,6,,,,60,64
108180,note_on,0,0,1,,,,,,,,10,,,,60,45
108180,note_off,120,0,1,,,,,,,,10,,,,57,64
108220,note_off,400,0,13,,,,,,,,11,,,,41,64
108300,note_on,160,0,5,,,,,,,,1,,,,65,60
108300,note_on,160,0,11,,,,,,,,7,,,,53,45
108300,note_on,160,0,2,,,,,,,,10,,,,53,45
108300,note_on,160,0,8,,,,,,,,4,,,,41,45
108300,note_on,160,0,7,,,,,,,,3,,,,53,45
108300,note_on,160,0,9,,,,,,,,5,,,,65,45
108300,note_on,160,0,6,,,,,,,,2,,,,57,45
108300,note_on,160,0,12,,,,,,,,8,,,,41,45
108300,note_off,120,0,1,,,,,,,,10,,,,60,64
108300,note_on,0,0,1,,,,,,,,10,,,,65,45
108300,note_on,160,0,10,,,,,,,,6,,,,57,45
108380,note_off,80,0,12,,,,,,,,8,,,,41,64
108380,note_off,80,0,5,,,,,,,,1,,,,65,64
108380,note_off,80,0,2,,,,,,,,10,,,,53,64
108380,note_off,80,0,6,,,,,,,,2,,,,57,64
108380,note_off,80,0,9,,,,,,,,5,,,,65,64
108380,note_off,80,0,8,,,,,,,,4,,,,41,64
108380,note_off,80,0,10,,,,,,,,6,,,,57,64
108380,note_off,80,0,7,,,,,,,,3,,,,53,64
108380,note_off,80,0,11,,,,,,,,7,,,,53,64
108420,note_off,120,0,1,,,,,,,,10,,,,65,64
108420,note_on,0,0,1,,,,,,,,10,,,,60,45
108540,note_off,120,0,1,,,,,,,,10,,,,60,64
108540,note_on,160,0,7,,,,,,,,3,,,,41,45
108540,note_on,320,0,13,,,,,,,,11,,,,41,45
108540,note_on,160,0,12,,,,,,,,8,,,,29,45
108540,note_on,160,0,10,,,,,,,,6,,,,57,45
108540,note_on,160,0,5,,,,,,,,1,,,,65,60
108540,note_on,160,0,2,,,,,,,,10,,,,41,45
108540,note_on,160,0,8,,,,,,,,4,,,,29,45
108540,note_on,160,0,9,,,,,,,,5,,,,65,45
108540,note_on,160,0,11,,,,,,,,7,,,,41,45
108540,note_on,160,0,6,,,,,,,,2,,,,57,45
108715,note_off,175,0,9,,,,,,,,5,,,,65,64
108715,note_off,175,0,5,,,,,,,,1,,,,65,64
108720,note_on,5,0,5,,,,,,,,1,,,,72,60
108720,note_on,5,0,9,,,,,,,,5,,,,72,45
108760,note_off,40,0,5,,,,,,,,1,,,,72,64
108760,note_off,40,0,9,,,,,,,,5,,,,72,64
108775,note_off,235,0,11,,,,,,,,7,,,,41,64
108775,note_off,235,0,10,,,,,,,,6,,,,57,64
108775,note_off,235,0,6,,,,,,,,2,,,,57,64
108775,note_off,235,0,12,,,,,,,,8,,,,29,64
108775,note_off,235,0,8,,,,,,,,4,,,,29,64
108775,note_off,235,0,7,,,,,,,,3,,,,41,64
108775,note_off,235,0,2,,,,,,,,10,,,,41,64
108780,note_on,5,0,6,,,,,,,,2,,,,60,45
108780,note_on,5,0,8,,,,,,,,4,,,,41,45
108780,note_on,5,0,2,,,,,,,,10,,,,53,45
108780,note_on,5,0,10,,,,,,,,6,,,,60,45
108780,note_on,240,0,1,,,,,,,,10,,,,57,45
108780,note_on,20,0,9,,,,,,,,5,,,,65,45
108780,note_on,5,0,7,,,,,,,,3,,,,53,45
108780,note_on,5,0,12,,,,,,,,8,,,,41,45
108780,note_on,5,0,11,,,,,,,,7,,,,53,45
108780,note_on,20,0,5,,,,,,,,1,,,,65,60
108860,note_off,80,0,9,,,,,,,,5,,,,65,64
108860,note_off,80,0,2,,,,,,,,10,,,,53,64
108860,note_off,80,0,7,,,,,,,,3,,,,53,64
108860,note_off,80,0,10,,,,,,,,6,,,,60,64
108860,note_off,80,0,12,,,,,,,,8,,,,41,64
108860,note_off,80,0,6,,,,,,,,2,,,,60,64
108860,note_off,80,0,5,,,,,,,,1,,,,65,64
108860,note_off,80,0,11,,,,,,,,7,,,,53,64
108860,note_off,80,0,8,,,,,,,,4,,,,41,64
108900,note_off,120,0,1,,,,,,,,10,,,,57,64
108900,note_on,0,0,1,,,,,,,,10,,,,60,45
108940,note_off,400,0,13,,,,,,,,11,,,,41,64
109020,note_on,160,0,5,,,,,,,,1,,,,65,60
109020,note_on,160,0,9,,,,,,,,5,,,,65,45
109020,note_on,160,0,8,,,,,,,,4,,,,41,45
109020,note_on,0,0,1,,,,,,,,10,,,,65,45
109020,note_on,160,0,10,,,,,,,,6,,,,57,45
109020,note_on,160,0,2,,,,,,,,10,,,,53,45
109020,note_off,120,0,1,,,,,,,,10,,,,60,64
109020,note_on,160,0,12,,,,,,,,8,,,,41,45
109020,note_on,160,0,6,,,,,,,,2,,,,57,45
109020,note_on,160,0,7,,,,,,,,3,,,,53,45
109020,note_on,160,0,11,,,,,,,,7,,,,53,45
109100,note_off,80,0,8,,,,,,,,4,,,,41,64
109100,note_off,80,0,7,,,,,,,,3,,,,53,64
109100,note_off,80,0,9,,,,,,,,5,,,,65,64
109100,note_off,80,0,5,,,,,,,,1,,,,65,64
109100,note_off,80,0,11,,,,,,,,7,,,,53,64
109100,note_off,80,0,6,,,,,,,,2,,,,57,64
109100,note_off,80,0,12,,,,,,,,8,,,,41,64
109100,note_off,80,0,2,,,,,,,,10,,,,53,64
109100,note_off,80,0,10,,,,,,,,6,,,,57,64
109140,note_on,0,0,1,,,,,,,,10,,,,60,45
109140,note_off,120,0,1,,,,,,,,10,,,,65,64
109260,note_on,160,0,9,,,,,,,,5,,,,65,45
109260,note_on,320,0,13,,,,,,,,11,,,,41,45
109260,note_on,160,0,7,,,,,,,,3,,,,41,45
109260,note_on,160,0,11,,,,,,,,7,,,,41,45
109260,note_on,160,0,12,,,,,,,,8,,,,29,45
109260,note_on,160,0,10,,,,,,,,6,,,,57,45
109260,note_on,160,0,2,,,,,,,,10,,,,41,45
109260,note_on,160,0,5,,,,,,,,1,,,,65,60
109260,note_on,160,0,6,,,,,,,,2,,,,57,45
109260,note_on,160,0,8,,,,,,,,4,,,,29,45
109260,note_off,120,0,1,,,,,,,,10,,,,60,64
109435,note_off,175,0,11,,,,,,,,7,,,,41,64
109435,note_off,175,0,12,,,,,,,,8,,,,29,64
109435,note_off,175,0,5,,,,,,,,1,,,,65,64
109435,note_off,175,0,8,,,,,,,,4,,,,29,64
109435,note_off,175,0,7,,,,,,,,3,,,,41,64
109435,note_off,175,0,2,,,,,,,,10,,,,41,64
109435,note_off,175,0,9,,,,,,,,5,,,,65,64
109440,note_on,5,0,12,,,,,,,,8,,,,41,48
109440,note_on,5,0,5,,,,,,,,1,,,,69,65
109440,note_on,5,0,2,,,,,,,,10,,,,53,48
109440,note_on,5,0,11,,,,,,,,7,,,,53,48
109440,note_on,5,0,7,,,,,,,,3,,,,53,50
109440,note_on,5,0,8,,,,,,,,4,,,,41,50
109440,note_on,5,0,9,,,,,,,,5,,,,69,48
109480,note_off,40,0,9,,,,,,,,5,,,,69,64
109480,note_off,40,0,5,,,,,,,,1,,,,69,64
109480,note_off,40,0,12,,,,,,,,8,,,,41,64
109480,note_off,40,0,7,,,,,,,,3,,,,53,64
109480,note_off,40,0,2,,,,,,,,10,,,,53,64
109480,note_off,40,0,11,,,,,,,,7,,,,53,64
109480,note_off,40,0,8,,,,,,,,4,,,,41,64
109495,note_off,235,0,10,,,,,,,,6,,,,57,64
109495,note_off,235,0,13,,,,,,,,11,,,,41,64
109495,note_off,235,0,6,,,,,,,,2,,,,57,64
109500,note_on,20,0,2,,,,,,,,10,,,,46,49
109500,note_on,5,0,13,,,,,,,,11,,,,34,49
109500,note_on,20,0,9,,,,,,,,5,,,,70,49
109500,note_on,20,0,8,,,,,,,,4,,,,34,51
109500,note_on,20,0,7,,,,,,,,3,,,,46,51
109500,note_on,5,0,10,,,,,,,,6,,,,62,49
109500,note_on,20,0,12,,,,,,,,8,,,,34,49
109500,note_on,20,0,5,,,,,,,,1,,,,70,66
109500,note_on,5,0,6,,,,,,,,2,,,,62,52
109500,note_on,240,0,1,,,,,,,,10,,,,62,49
109500,note_on,20,0,11,,,,,,,,7,,,,46,49
109580,note_off,80,0,6,,,,,,,,2,,,,62,64
109580,note_off,80,0,7,,,,,,,,3,,,,46,64
109580,note_off,80,0,5,,,,,,,,1,,,,70,64
109580,note_off,80,0,9,,,,,,,,5,,,,70,64
109580,note_off,80,0,2,,,,,,,,10,,,,46,64
109580,note_off,80,0,11,,,,,,,,7,,,,46,64
109580,note_off,80,0,10,,,,,,,,6,,,,62,64
109580,note_off,80,0,8,,,,,,,,4,,,,34,64
109580,note_off,80,0,1,,,,,,,,10,,,,62,64
109580,note_off,80,0,12,,,,,,,,8,,,,34,64
109735,note_off,235,0,13,,,,,,,,11,,,,34,64
109740,note_on,160,0,2,,,,,,,,10,,,,48,54
109740,note_on,160,0,6,,,,,,,,2,,,,60,59
109740,note_on,160,0,12,,,,,,,,8,,,,36,54
109740,note_on,5,0,13,,,,,,,,11,,,,36,54
109740,note_on,0,0,1,,,,,,,,10,,,,67,54
109740,note_on,160,0,7,,,,,,,,3,,,,48,58
109740,note_on,0,0,1,,,,,,,,10,,,,64,54
109740,note_on,160,0,5,,,,,,,,1,,,,64,74
109740,note_on,0,0,5,,,,,,,,1,,,,67,74
109740,note_on,160,0,9,,,,,,,,5,,,,64,54
109740,note_on,0,0,9,,,,,,,,5,,,,67,54
109740,note_on,160,0,10,,,,,,,,6,,,,60,54
109740,note_on,160,0,8,,,,,,,,4,,,,36,58
109740,note_on,160,0,11,,,,,,,,7,,,,48,54
109740,note_on,160,0,1,,,,,,,,10,,,,60,54
109820,note_off,80,0,2,,,,,,,,10,,,,48,64
109820,note_off,80,0,5,,,,,,,,1,,,,67,64
109820,note_off,0,0,5,,,,,,,,1,,,,64,64
109820,note_off,80,0,6,,,,,,,,2,,,,60,64
109820,note_off,80,0,10,,,,,,,,6,,,,60,64
109820,note_off,80,0,8,,,,,,,,4,,,,36,64
109820,note_off,80,0,12,,,,,,,,8,,,,36,64
109820,note_off,0,0,1,,,,,,,,10,,,,64,64
109820,note_off,0,0,1,,,,,,,,10,,,,60,64
109820,note_off,0,0,9,,,,,,,,5,,,,64,64
109820,note_off,80,0,9,,,,,,,,5,,,,67,64
109820,note_off,80,0,11,,,,,,,,7,,,,48,64
109820,note_off,80,0,1,,,,,,,,10,,,,67,64
109820,note_off,80,0,7,,,,,,,,3,,,,48,64
109975,note_off,235,0,13,,,,,,,,11,,,,36,64
109980,note_on,160,0,10,,,,,,,,6,,,,57,59
109980,note_on,160,0,8,,,,,,,,4,,,,29,66
109980,note_on,160,0,12,,,,,,,,8,,,,29,59
109980,note_on,0,0,9,,,,,,,,5,,,,69,59
109980,note_on,160,0,9,,,,,,,,5,,,,65,59
109980,note_on,0,0,5,,,,,,,,1,,,,65,82
109980,note_on,160,0,5,,,,,,,,1,,,,60,82
109980,note_on,160,0,7,,,,,,,,3,,,,41,66
109980,note_on,160,0,11,,,,,,,,7,,,,41,59
109980,note_on,5,0,13,,,,,,,,11,,,,41,59
109980,note_on,160,0,6,,,,,,,,2,,,,57,67
109980,note_on,0,0,2,,,,,,,,10,,,,53,59
109980,note_on,160,0,2,,,,,,,,10,,,,41,59
109980,note_on,160,0,1,,,,,,,,10,,,,57,59
109980,note_on,0,0,1,,,,,,,,10,,,,65,59
109980,note_on,0,0,1,,,,,,,,10,,,,60,59
110380,note_off,400,0,10,,,,,,,,6,,,,57,64
110380,note_off,400,0,11,,,,,,,,7,,,,41,64
110380,note_off,0,0,1,,,,,,,,10,,,,60,64
110380,note_off,0,0,1,,,,,,,,10,,,,57,64
110380,note_off,400,0,1,,,,,,,,10,,,,65,64
110380,note_off,400,0,2,,,,,,,,10,,,,53,64
110380,note_off,0,0,2,,,,,,,,10,,,,41,64
110380,note_off,0,0,9,,,,,,,,5,,,,65,64
110380,note_off,400,0,9,,,,,,,,5,,,,69,64
110380,note_off,400,0,6,,,,,,,,2,,,,57,64
110380,note_off,400,0,5,,,,,,,,1,,,,65,64
110380,note_off,0,0,5,,,,,,,,1,,,,60,64
110380,note_off,400,0,13,,,,,,,,11,,,,41,64
110380,note_off,400,0,8,,,,,,,,4,,,,29,64
110380,note_off,400,0,7,,,,,,,,3,,,,41,64
110380,note_off,400,0,12,,,,,,,,8,,,,29,64
110730,note_on,350,0,9,,,,,,,,5,,,,65,75
110730,note_on,350,0,2,,,,,,,,10,,,,41,75
110730,note_on,350,0,5,,,,,,,,1,,,,65,108
110730,note_on,350,0,6,,,,,,,,2,,,,57,92
110730,note_on,350,0,11,,,,,,,,7,,,,41,75
110730,note_on,350,0,8,,,,,,,,4,,,,29,92
110730,note_on,350,0,12,,,,,,,,8,,,,29,75
110730,note_on,350,0,10,,,,,,,,6,,,,57,75
110730,note_on,350,0,7,,,,,,,,3,,,,41,92
110730,note_on,350,0,13,,,,,,,,11,,,,41,75
110905,note_off,175,0,5,,,,,,,,1,,,,65,64
110905,note_off,175,0,9,,,,,,,,5,,,,65,64
110910,note_on,5,0,9,,,,,,,,5,,,,72,75
110910,note_on,5,0,5,,,,,,,,1,,,,72,108
110950,note_off,40,0,9,,,,,,,,5,,,,72,64
110950,note_off,40,0,5,,,,,,,,1,,,,72,64
110965,note_off,235,0,2,,,,,,,,10,,,,41,64
110965,note_off,235,0,10,,,,,,,,6,,,,57,64
110965,note_off,235,0,6,,,,,,,,2,,,,57,64
110965,note_off,235,0,7,,,,,,,,3,,,,41,64
110965,note_off,235,0,11,,,,,,,,7,,,,41,64
110965,note_off,235,0,12,,,,,,,,8,,,,29,64
110965,note_off,235,0,8,,,,,,,,4,,,,29,64
110970,note_on,5,0,12,,,,,,,,8,,,,41,75
110970,note_on,20,0,9,,,,,,,,5,,,,65,75
110970,note_on,5,0,6,,,,,,,,2,,,,60,92
110970,note_on,5,0,2,,,,,,,,10,,,,53,75
110970,note_on,5,0,10,,,,,,,,6,,,,60,75
110970,note_on,20,0,5,,,,,,,,1,,,,65,108
110970,note_on,5,0,8,,,,,,,,4,,,,41,92
110970,note_on,5,0,7,,,,,,,,3,,,,53,92
110970,note_on,590,0,1,,,,,,,,10,,,,57,75
110970,note_on,5,0,11,,,,,,,,7,,,,53,75
111050,note_off,80,0,5,,,,,,,,1,,,,65,64
111050,note_off,80,0,12,,,,,,,,8,,,,41,64
111050,note_off,80,0,9,,,,,,,,5,,,,65,64
111050,note_off,80,0,2,,,,,,,,10,,,,53,64
111050,note_off,80,0,7,,,,,,,,3,,,,53,64
111050,note_off,80,0,6,,,,,,,,2,,,,60,64
111050,note_off,80,0,8,,,,,,,,4,,,,41,64
111050,note_off,80,0,11,,,,,,,,7,,,,53,64
111050,note_off,80,0,10,,,,,,,,6,,,,60,64
111090,note_off,120,0,1,,,,,,,,10,,,,57,64
111090,note_on,0,0,1,,,,,,,,10,,,,60,75
111130,note_off,400,0,13,,,,,,,,11,,,,41,64
111210,note_on,160,0,10,,,,,,,,6,,,,57,75
111210,note_on,160,0,8,,,,,,,,4,,,,41,92
111210,note_on,160,0,9,,,,,,,,5,,,,65,75
111210,note_on,160,0,5,,,,,,,,1,,,,65,108
111210,note_on,160,0,6,,,,,,,,2,,,,57,92
111210,note_off,120,0,1,,,,,,,,10,,,,60,64
111210,note_on,160,0,12,,,,,,,,8,,,,41,75
111210,note_on,160,0,7,,,,,,,,3,,,,53,92
111210,note_on,0,0,1,,,,,,,,10,,,,57,75
111210,note_on,160,0,2,,,,,,,,10,,,,53,75
111210,note_on,160,0,11,,,,,,,,7,,,,53,75
111290,note_off,80,0,2,,,,,,,,10,,,,53,64
111290,note_off,80,0,9,,,,,,,,5,,,,65,64
111290,note_off,80,0,11,,,,,,,,7,,,,53,64
111290,note_off,80,0,12,,,,,,,,8,,,,41,64
111290,note_off,80,0,6,,,,,,,,2,,,,57,64
111290,note_off,80,0,5,,,,,,,,1,,,,65,64
111290,note_off,80,0,7,,,,,,,,3,,,,53,64
111290,note_off,80,0,8,,,,,,,,4,,,,41,64
111290,note_off,80,0,10,,,,,,,,6,,,,57,64
111330,note_on,0,0,1,,,,,,,,10,,,,60,75
111330,note_off,120,0,1,,,,,,,,10,,,,57,64
111450,note_on,160,0,8,,,,,,,,4,,,,29,92
111450,note_on,160,0,2,,,,,,,,10,,,,41,75
111450,note_on,160,0,7,,,,,,,,3,,,,41,92
111450,note_off,120,0,1,,,,,,,,10,,,,60,64
111450,note_on,160,0,12,,,,,,,,8,,,,29,75
111450,note_on,160,0,11,,,,,,,,7,,,,41,75
111450,set_tempo,9450,1,0,833333,,,,,,,,,,,,
111450,note_on,320,0,13,,,,,,,,11,,,,41,75
111450,note_on,160,0,5,,,,,,,,1,,,,65,108
111450,note_on,160,0,9,,,,,,,,5,,,,65,75
111450,note_on,160,0,10,,,,,,,,6,,,,57,75
111450,note_on,160,0,6,,,,,,,,2,,,,57,92
111625,note_off,175,0,5,,,,,,,,1,,,,65,64
111625,note_off,175,0,9,,,,,,,,5,,,,65,64
111630,note_on,5,0,9,,,,,,,,5,,,,72,75
111630,note_on,5,0,5,,,,,,,,1,,,,72,108
111670,note_off,40,0,9,,,,,,,,5,,,,72,64
111670,note_off,40,0,5,,,,,,,,1,,,,72,64
111685,note_off,235,0,2,,,,,,,,10,,,,41,64
111685,note_off,235,0,6,,,,,,,,2,,,,57,64
111685,note_off,235,0,8,,,,,,,,4,,,,29,64
111685,note_off,235,0,11,,,,,,,,7,,,,41,64
111685,note_off,235,0,7,,,,,,,,3,,,,41,64
111685,note_off,235,0,12,,,,,,,,8,,,,29,64
111685,note_off,235,0,10,,,,,,,,6,,,,57,64
111690,note_on,20,0,9,,,,,,,,5,,,,65,75
111690,note_on,5,0,6,,,,,,,,2,,,,60,92
111690,note_on,20,0,5,,,,,,,,1,,,,65,108
111690,note_on,240,0,1,,,,,,,,10,,,,57,75
111690,note_on,5,0,2,,,,,,,,10,,,,53,75
111690,note_on,5,0,7,,,,,,,,3,,,,53,92
111690,note_on,5,0,8,,,,,,,,4,,,,41,92
111690,note_on,5,0,11,,,,,,,,7,,,,53,75
111690,note_on,5,0,12,,,,,,,,8,,,,41,75
111690,note_on,5,0,10,,,,,,,,6,,,,60,75
111770,note_off,80,0,9,,,,,,,,5,,,,65,64
111770,note_off,80,0,6,,,,,,,,2,,,,60,64
111770,note_off,80,0,12,,,,,,,,8,,,,41,64
111770,note_off,80,0,11,,,,,,,,7,,,,53,64
111770,note_off,80,0,8,,,,,,,,4,,,,41,64
111770,note_off,80,0,5,,,,,,,,1,,,,65,64
111770,note_off,80,0,2,,,,,,,,10,,,,53,64
111770,note_off,80,0,7,,,,,,,,3,,,,53,64
111770,note_off,80,0,10,,,,,,,,6,,,,60,64
111810,note_on,0,0,1,,,,,,,,10,,,,60,75
111810,note_off,120,0,1,,,,,,,,10,,,,57,64
111850,note_off,400,0,13,,,,,,,,11,,,,41,64
111930,note_off,120,0,1,,,,,,,,10,,,,60,64
111930,note_on,160,0,6,,,,,,,,2,,,,57,92
111930,note_on,160,0,7,,,,,,,,3,,,,53,92
111930,note_on,0,0,1,,,,,,,,10,,,,57,75
111930,note_on,160,0,2,,,,,,,,10,,,,53,75
111930,note_on,160,0,12,,,,,,,,8,,,,41,75
111930,note_on,160,0,8,,,,,,,,4,,,,41,92
111930,note_on,160,0,9,,,,,,,,5,,,,65,75
111930,note_on,160,0,11,,,,,,,,7,,,,53,75
111930,note_on,160,0,5,,,,,,,,1,,,,65,108
111930,note_on,160,0,10,,,,,,,,6,,,,57,75
112010,note_off,80,0,9,,,,,,,,5,,,,65,64
112010,note_off,80,0,2,,,,,,,,10,,,,53,64
112010,note_off,80,0,5,,,,,,,,1,,,,65,64
112010,note_off,80,0,12,,,,,,,,8,,,,41,64
112010,note_off,80,0,7,,,,,,,,3,,,,53,64
112010,note_off,80,0,6,,,,,,,,2,,,,57,64
112010,note_off,80,0,11,,,,,,,,7,,,,53,64
112010,note_off,80,0,10,,,,,,,,6,,,,57,64
112010,note_off,80,0,8,,,,,,,,4,,,,41,64
112050,note_on,0,0,1,,,,,,,,10,,,,60,75
112050,note_off,120,0,1,,,,,,,,10,,,,57,64
112170,note_on,160,0,5,,,,,,,,1,,,,65,108
112170,set_tempo,720,1,0,857142,,,,,,,,,,,,
112170,note_on,160,0,6,,,,,,,,2,,,,57,92
112170,note_on,160,0,10,,,,,,,,6,,,,57,75
112170,note_on,160,0,11,,,,,,,,7,,,,41,75
112170,note_on,160,0,2,,,,,,,,10,,,,41,75
112170,note_on,160,0,7,,,,,,,,3,,,,41,92
112170,note_on,160,0,12,,,,,,,,8,,,,29,75
112170,note_on,160,0,9,,,,,,,,5,,,,65,75
112170,note_on,160,0,8,,,,,,,,4,,,,29,92
112170,note_on,320,0,13,,,,,,,,11,,,,41,75
112170,note_off,120,0,1,,,,,,,,10,,,,60,64
112345,note_off,175,0,12,,,,,,,,8,,,,29,64
112345,note_off,175,0,9,,,,,,,,5,,,,65,64
112345,note_off,175,0,7,,,,,,,,3,,,,41,64
112345,note_off,175,0,5,,,,,,,,1,,,,65,64
112345,note_off,175,0,2,,,,,,,,10,,,,41,64
112345,note_off,175,0,11,,,,,,,,7,,,,41,64
112345,note_off,175,0,8,,,,,,,,4,,,,29,64
112350,note_on,5,0,9,,,,,,,,5,,,,69,75
112350,note_on,5,0,5,,,,,,,,1,,,,69,108
112350,note_on,5,0,7,,,,,,,,3,,,,53,92
112350,note_on,5,0,2,,,,,,,,10,,,,53,75
112350,note_on,5,0,11,,,,,,,,7,,,,53,75
112350,note_on,5,0,8,,,,,,,,4,,,,41,92
112350,note_on,5,0,12,,,,,,,,8,,,,41,75
112350,set_tempo,180,1,0,937500,,,,,,,,,,,,
112390,note_off,40,0,7,,,,,,,,3,,,,53,64
112390,note_off,40,0,8,,,,,,,,4,,,,41,64
112390,note_off,40,0,12,,,,,,,,8,,,,41,64
112390,note_off,40,0,2,,,,,,,,10,,,,53,64
112390,note_off,40,0,5,,,,,,,,1,,,,69,64
112390,note_off,40,0,9,,,,,,,,5,,,,69,64
112390,note_off,40,0,11,,,,,,,,7,,,,53,64
112405,note_off,235,0,10,,,,,,,,6,,,,57,64
112405,note_off,235,0,6,,,,,,,,2,,,,57,64
112405,note_off,235,0,13,,,,,,,,11,,,,41,64
112410,note_on,5,0,10,,,,,,,,6,,,,62,75
112410,set_tempo,60,1,0,1153846,,,,,,,,,,,,
112410,note_on,20,0,11,,,,,,,,7,,,,46,75
112410,note_on,20,0,2,,,,,,,,10,,,,46,75
112410,note_on,20,0,8,,,,,,,,4,,,,34,92
112410,note_on,20,0,5,,,,,,,,1,,,,70,108
112410,note_on,240,0,1,,,,,,,,10,,,,62,75
112410,note_on,20,0,7,,,,,,,,3,,,,46,92
112410,note_on,20,0,12,,,,,,,,8,,,,34,75
112410,note_on,20,0,9,,,,,,,,5,,,,70,75
112410,note_on,5,0,6,,,,,,,,2,,,,62,92
112410,note_on,5,0,13,,,,,,,,11,,,,34,75
112490,note_off,80,0,1,,,,,,,,10,,,,62,64
112490,note_off,80,0,8,,,,,,,,4,,,,34,64
112490,note_off,80,0,6,,,,,,,,2,,,,62,64
112490,note_off,80,0,2,,,,,,,,10,,,,46,64
112490,note_off,80,0,5,,,,,,,,1,,,,70,64
112490,note_off,80,0,11,,,,,,,,7,,,,46,64
112490,note_off,80,0,10,,,,,,,,6,,,,62,64
112490,note_off,80,0,7,,,,,,,,3,,,,46,64
112490,note_off,80,0,9,,,,,,,,5,,,,70,64
112490,note_off,80,0,12,,,,,,,,8,,,,34,64
112645,note_off,235,0,13,,,,,,,,11,,,,34,64
112650,note_on,160,0,10,,,,,,,,6,,,,60,75
112650,note_on,0,0,1,,,,,,,,10,,,,67,75
112650,note_on,0,0,5,,,,,,,,1,,,,67,108
112650,note_on,160,0,5,,,,,,,,1,,,,64,108
112650,note_on,160,0,9,,,,,,,,5,,,,64,75
112650,note_on,0,0,1,,,,,,,,10,,,,64,75
112650,note_on,160,0,8,,,,,,,,4,,,,36,92
112650,note_on,0,0,9,,,,,,,,5,,,,67,75
112650,note_on,160,0,11,,,,,,,,7,,,,48,75
112650,note_on,160,0,6,,,,,,,,2,,,,60,92
112650,set_tempo,240,1,0,1428571,,,,,,,,,,,,
112650,note_on,5,0,13,,,,,,,,11,,,,36,75
112650,note_on,160,0,1,,,,,,,,10,,,,60,75
112650,note_on,160,0,12,,,,,,,,8,,,,36,75
112650,note_on,160,0,7,,,,,,,,3,,,,48,92
112650,note_on,160,0,2,,,,,,,,10,,,,48,75
112730,note_off,80,0,8,,,,,,,,4,,,,36,64
112730,note_off,80,0,6,,,,,,,,2,,,,60,64
112730,note_off,80,0,2,,,,,,,,10,,,,48,64
112730,note_off,80,0,5,,,,,,,,1,,,,67,64
112730,note_off,0,0,5,,,,,,,,1,,,,64,64
112730,note_off,0,0,1,,,,,,,,10,,,,64,64
112730,note_off,0,0,1,,,,,,,,10,,,,60,64
112730,note_off,80,0,12,,,,,,,,8,,,,36,64
112730,note_off,80,0,11,,,,,,,,7,,,,48,64
112730,note_off,0,0,9,,,,,,,,5,,,,64,64
112730,note_off,80,0,7,,,,,,,,3,,,,48,64
112730,note_off,80,0,9,,,,,,,,5,,,,67,64
112730,note_off,80,0,10,,,,,,,,6,,,,60,64
112730,note_off,80,0,1,,,,,,,,10,,,,67,64
112885,note_off,235,0,13,,,,,,,,11,,,,36,64
112890,note_on,0,0,11,,,,,,,,7,,,,48,75
112890,note_on,160,0,11,,,,,,,,7,,,,41,75
112890,note_on,5,0,13,,,,,,,,11,,,,41,75
112890,note_on,160,0,10,,,,,,,,6,,,,57,75
112890,end_of_track,0,1,0,,,,,,,,,,,,,
112890,note_on,160,0,8,,,,,,,,4,,,,29,92
112890,note_on,160,0,2,,,,,,,,10,,,,41,75
112890,note_on,160,0,5,,,,,,,,1,,,,65,108
112890,note_on,0,0,7,,,,,,,,3,,,,48,92
112890,note_on,160,0,7,,,,,,,,3,,,,41,92
112890,note_on,160,0,12,,,,,,,,8,,,,29,75
112890,note_on,160,0,9,,,,,,,,5,,,,65,75
112890,note_on,160,0,6,,,,,,,,2,,,,57,92
112890,note_on,0,0,1,,,,,,,,10,,,,69,75
112890,note_on,0,0,1,,,,,,,,10,,,,65,75
112890,note_on,160,0,1,,,,,,,,10,,,,57,75
112890,set_tempo,240,1,0,2400000,,,,,,,,,,,,
112890,note_on,0,0,1,,,,,,,,10,,,,60,75
113290,note_off,0,0,11,,,,,,,,7,,,,41,64
113290,note_off,0,0,1,,,,,,,,10,,,,65,64
113290,note_off,400,0,11,,,,,,,,7,,,,48,64
113290,end_of_track,0,1,10,,,,,,,,,,,,,
113290,note_off,400,0,10,,,,,,,,6,,,,57,64
113290,end_of_track,0,1,9,,,,,,,,,,,,,
113290,note_off,400,0,9,,,,,,,,5,,,,65,64
113290,end_of_track,0,1,8,,,,,,,,,,,,,
113290,note_off,400,0,8,,,,,,,,4,,,,29,64
113290,end_of_track,0,1,7,,,,,,,,,,,,,
113290,note_off,0,0,7,,,,,,,,3,,,,41,64
113290,note_off,400,0,7,,,,,,,,3,,,,48,64
113290,end_of_track,0,1,6,,,,,,,,,,,,,
113290,note_off,400,0,6,,,,,,,,2,,,,57,64
113290,end_of_track,0,1,11,,,,,,,,,,,,,
113290,note_off,400,0,13,,,,,,,,11,,,,41,64
113290,end_of_track,0,1,5,,,,,,,,,,,,,
113290,note_off,400,0,5,,,,,,,,1,,,,65,64
113290,note_off,400,0,12,,,,,,,,8,,,,29,64
113290,end_of_track,0,1,12,,,,,,,,,,,,,
113290,end_of_track,0,1,2,,,,,,,,,,,,,
113290,note_off,400,0,2,,,,,,,,10,,,,41,64
113290,end_of_track,0,1,1,,,,,,,,,,,,,
113290,note_off,0,0,1,,,,,,,,10,,,,57,64
113290,note_off,0,0,1,,,,,,,,10,,,,60,64
113290,note_off,400,0,1,,,,,,,,10,,,,69,64
113290,end_of_track,0,1,13,,,,,,,,,,,,,
