tick,type,time,meta,track,tempo,numerator,denominator,clocks_per_click,notated_32nd_notes_per_beat,key,port,channel,control,value,program,note,velocity
0,track_name,0,1,0,,,,,,,,,,,,,
0,channel_prefix,0,1,9,,,,,,,,7,,,,,
0,midi_port,0,1,9,,,,,,,0,,,,,,
0,program_change,0,0,8,,,,,,,,6,,,48,,
0,control_change,0,0,8,,,,,,,,6,91,127,,,
0,control_change,0,0,8,,,,,,,,6,10,95,,,
0,control_change,0,0,8,,,,,,,,6,7,127,,,
0,channel_prefix,0,1,8,,,,,,,,6,,,,,
0,control_change,0,0,9,,,,,,,,7,7,127,,,
0,midi_port,0,1,8,,,,,,,0,,,,,,
0,control_change,0,0,7,,,,,,,,5,91,127,,,
0,control_change,0,0,7,,,,,,,,5,10,63,,,
0,control_change,0,0,7,,,,,,,,5,7,127,,,
0,channel_prefix,0,1,7,,,,,,,,5,,,,,
0,midi_port,0,1,7,,,,,,,0,,,,,,
0,program_change,0,0,15,,,,,,,,14,,,32,,
0,control_change,0,0,15,,,,,,,,14,91,127,,,
0,program_change,0,0,7,,,,,,,,5,,,48,,
0,control_change,0,0,9,,,,,,,,7,10,127,,,
0,control_change,0,0,9,,,,,,,,7,91,127,,,
0,program_change,0,0,9,,,,,,,,7,,,48,,
0,control_change,0,0,10,,,,,,,,8,10,1,,,
0,control_change,0,0,10,,,,,,,,8,7,127,,,
0,channel_prefix,0,1,10,,,,,,,,8,,,,,
0,midi_port,0,1,10,,,,,,,0,,,,,,
0,midi_port,0,1,12,,,,,,,0,,,,,,
0,channel_prefix,0,1,12,,,,,,,,11,,,,,
0,control_change,0,0,12,,,,,,,,11,7,127,,,
0,control_change,0,0,12,,,,,,,,11,10,63,,,
0,control_change,0,0,12,,,,,,,,11,91,127,,,
0,program_change,0,0,12,,,,,,,,11,,,50,,
0,track_name,0,1,2,,,,,,,,,,,,,
0,midi_port,0,1,2,,,,,,,0,,,,,,
0,channel_prefix,0,1,2,,,,,,,,0,,,,,
0,control_change,0,0,2,,,,,,,,0,7,127,,,
0,control_change,0,0,2,,,,,,,,0,10,64,,,
0,control_change,0,0,2,,,,,,,,0,91,124,,,
0,program_change,0,0,2,,,,,,,,0,,,6,,
0,control_change,0,0,15,,,,,,,,14,10,6,,,
0,control_change,0,0,15,,,,,,,,14,7,127,,,
0,channel_prefix,0,1,15,,,,,,,,14,,,,,
0,midi_port,0,1,15,,,,,,,0,,,,,,
0,channel_prefix,0,1,14,,,,,,,,13,,,,,
0,control_change,0,0,14,,,,,,,,13,7,127,,,
0,control_change,0,0,14,,,,,,,,13,10,127,,,
0,control_change,0,0,14,,,,,,,,13,91,127,,,
0,program_change,0,0,14,,,,,,,,13,,,50,,
0,program_change,0,0,5,,,,,,,,3,,,48,,
0,control_change,0,0,5,,,,,,,,3,91,127,,,
0,control_change,0,0,5,,,,,,,,3,10,1,,,
0,control_change,0,0,5,,,,,,,,3,7,127,,,
0,channel_prefix,0,1,5,,,,,,,,3,,,,,
0,midi_port,0,1,5,,,,,,,0,,,,,,
0,track_name,0,1,5,,,,,,,,,,,,,
0,program_change,0,0,4,,,,,,,,2,,,40,,
0,control_change,0,0,4,,,,,,,,2,91,123,,,
0,control_change,0,0,4,,,,,,,,2,10,64,,,
0,control_change,0,0,4,,,,,,,,2,7,127,,,
0,channel_prefix,0,1,4,,,,,,,,2,,,,,
0,midi_port,0,1,14,,,,,,,0,,,,,,
0,control_change,0,0,10,,,,,,,,8,91,124,,,
0,midi_port,0,1,6,,,,,,,0,,,,,,
0,control_change,0,0,6,,,,,,,,4,7,127,,,
0,midi_port,0,1,13,,,,,,,0,,,,,,
0,channel_prefix,0,1,13,,,,,,,,12,,,,,
0,control_change,0,0,13,,,,,,,,12,7,127,,,
0,control_change,0,0,13,,,,,,,,12,10,95,,,
0,control_change,0,0,13,,,,,,,,12,91,127,,,
0,program_change,0,0,13,,,,,,,,12,,,50,,
0,midi_port,0,1,4,,,,,,,0,,,,,,
0,track_name,0,1,3,,,,,,,,,,,,,
0,midi_port,0,1,3,,,,,,,0,,,,,,
0,channel_prefix,0,1,3,,,,,,,,1,,,,,
0,control_change,0,0,3,,,,,,,,1,7,127,,,
0,control_change,0,0,3,,,,,,,,1,10,64,,,
0,control_change,0,0,3,,,,,,,,1,91,125,,,
0,program_change,0,0,3,,,,,,,,1,,,48,,
0,program_change,0,0,6,,,,,,,,4,,,48,,
0,control_change,0,0,6,,,,,,,,4,91,127,,,
0,control_change,0,0,6,,,,,,,,4,10,32,,,
0,channel_prefix,0,1,6,,,,,,,,4,,,,,
0,program_change,0,0,10,,,,,,,,8,,,50,,
0,track_name,0,1,4,,,,,,,,,,,,,
0,control_change,0,0,11,,,,,,,,10,7,127,,,
0,program_change,0,0,11,,,,,,,,10,,,50,,
0,control_change,0,0,11,,,,,,,,10,91,127,,,
0,control_change,0,0,11,,,,,,,,10,10,32,,,
0,track_name,0,1,1,,,,,,,,,,,,,
0,channel_prefix,0,1,11,,,,,,,,10,,,,,
0,midi_port,0,1,11,,,,,,,0,,,,,,
0,control_change,0,0,1,,,,,,,,0,7,127,,,
0,channel_prefix,0,1,1,,,,,,,,0,,,,,
0,time_signature,0,1,0,,3,4,24,8,,,,,,,,
0,set_tempo,0,1,0,500000,,,,,,,,,,,,
0,copyright,0,1,0,,,,,,,,,,,,,
0,midi_port,0,1,1,,,,,,,0,,,,,,
0,program_change,0,0,1,,,,,,,,0,,,6,,
0,control_change,0,0,1,,,,,,,,0,91,124,,,
0,key_signature,0,1,0,,,,,,Bb,,,,,,,
0,control_change,0,0,1,,,,,,,,0,10,64,,,
120,note_on,120,0,9,,,,,,,,7,,,,43,75
120,note_on,120,0,5,,,,,,,,3,,,,67,92
120,set_tempo,120,1,0,410958,,,,,,,,,,,,
120,note_on,120,0,10,,,,,,,,8,,,,67,75
120,program_change,120,0,6,,,,,,,,4,,,49,,
120,note_on,120,0,14,,,,,,,,13,,,,43,75
120,note_on,0,0,6,,,,,,,,4,,,,67,92
120,note_on,120,0,15,,,,,,,,14,,,,43,75
120,note_on,120,0,13,,,,,,,,12,,,,55,75
120,note_on,120,0,8,,,,,,,,6,,,,55,75
200,note_off,80,0,13,,,,,,,,12,,,,55,64
200,note_off,80,0,8,,,,,,,,6,,,,55,64
235,note_off,115,0,5,,,,,,,,3,,,,67,64
235,note_off,115,0,10,,,,,,,,8,,,,67,64
235,note_off,115,0,6,,,,,,,,4,,,,67,64
240,note_on,5,0,5,,,,,,,,3,,,,55,92
240,note_on,5,0,6,,,,,,,,4,,,,55,92
240,note_on,5,0,10,,,,,,,,8,,,,55,75
355,note_off,115,0,6,,,,,,,,4,,,,55,64
355,note_off,115,0,10,,,,,,,,8,,,,55,64
355,note_off,115,0,5,,,,,,,,3,,,,55,64
360,note_on,5,0,6,,,,,,,,4,,,,55,92
360,note_on,160,0,8,,,,,,,,6,,,,43,75
360,note_on,160,0,13,,,,,,,,12,,,,43,75
360,note_on,5,0,10,,,,,,,,8,,,,55,75
360,note_on,5,0,5,,,,,,,,3,,,,55,92
440,note_off,80,0,8,,,,,,,,6,,,,43,64
440,note_off,80,0,13,,,,,,,,12,,,,43,64
475,note_off,115,0,5,,,,,,,,3,,,,55,64
475,note_off,115,0,10,,,,,,,,8,,,,55,64
475,note_off,115,0,6,,,,,,,,4,,,,55,64
480,note_on,5,0,6,,,,,,,,4,,,,55,92
480,note_on,5,0,5,,,,,,,,3,,,,55,92
480,note_on,5,0,10,,,,,,,,8,,,,55,75
520,note_off,400,0,14,,,,,,,,13,,,,43,64
520,note_off,400,0,15,,,,,,,,14,,,,43,64
520,note_off,400,0,9,,,,,,,,7,,,,43,64
595,note_off,115,0,10,,,,,,,,8,,,,55,64
595,note_off,115,0,6,,,,,,,,4,,,,55,64
595,note_off,115,0,5,,,,,,,,3,,,,55,64
600,note_on,80,0,15,,,,,,,,14,,,,31,75
600,note_on,80,0,14,,,,,,,,13,,,,31,75
600,note_on,160,0,13,,,,,,,,12,,,,43,75
600,note_on,5,0,6,,,,,,,,4,,,,55,92
600,note_on,80,0,9,,,,,,,,7,,,,31,75
600,note_on,160,0,8,,,,,,,,6,,,,43,75
600,note_on,5,0,10,,,,,,,,8,,,,55,75
600,note_on,5,0,5,,,,,,,,3,,,,55,92
680,note_off,80,0,13,,,,,,,,12,,,,43,64
680,note_off,80,0,8,,,,,,,,6,,,,43,64
715,note_off,115,0,6,,,,,,,,4,,,,55,64
715,note_off,115,0,5,,,,,,,,3,,,,55,64
715,note_off,115,0,10,,,,,,,,8,,,,55,64
720,note_on,5,0,6,,,,,,,,4,,,,55,92
720,note_on,5,0,10,,,,,,,,8,,,,55,75
720,note_on,5,0,5,,,,,,,,3,,,,55,92
835,note_off,115,0,6,,,,,,,,4,,,,55,64
835,note_off,115,0,10,,,,,,,,8,,,,55,64
835,note_off,115,0,5,,,,,,,,3,,,,55,64
840,note_on,5,0,6,,,,,,,,4,,,,55,92
840,note_on,5,0,5,,,,,,,,3,,,,55,92
840,note_on,5,0,10,,,,,,,,8,,,,55,75
840,note_on,160,0,8,,,,,,,,6,,,,43,75
840,note_on,160,0,13,,,,,,,,12,,,,43,75
920,note_off,80,0,13,,,,,,,,12,,,,43,64
920,note_off,80,0,8,,,,,,,,6,,,,43,64
955,note_off,115,0,6,,,,,,,,4,,,,55,64
955,note_off,115,0,5,,,,,,,,3,,,,55,64
955,note_off,115,0,10,,,,,,,,8,,,,55,64
960,note_on,5,0,6,,,,,,,,4,,,,55,92
960,note_on,5,0,5,,,,,,,,3,,,,55,92
960,note_on,5,0,10,,,,,,,,8,,,,55,75
1000,note_off,400,0,9,,,,,,,,7,,,,31,64
1000,note_off,400,0,15,,,,,,,,14,,,,31,64
1000,note_off,400,0,14,,,,,,,,13,,,,31,64
1075,note_off,115,0,6,,,,,,,,4,,,,55,64
1075,note_off,115,0,10,,,,,,,,8,,,,55,64
1075,note_off,115,0,5,,,,,,,,3,,,,55,64
1080,note_on,5,0,10,,,,,,,,8,,,,55,75
1080,note_on,80,0,15,,,,,,,,14,,,,31,75
1080,note_on,160,0,13,,,,,,,,12,,,,43,75
1080,note_on,160,0,8,,,,,,,,6,,,,43,75
1080,note_on,80,0,9,,,,,,,,7,,,,31,75
1080,note_on,5,0,5,,,,,,,,3,,,,55,92
1080,note_on,5,0,6,,,,,,,,4,,,,55,92
1080,note_on,80,0,14,,,,,,,,13,,,,31,75
1160,note_off,80,0,8,,,,,,,,6,,,,43,64
1160,note_off,80,0,13,,,,,,,,12,,,,43,64
1195,note_off,115,0,6,,,,,,,,4,,,,55,64
1195,note_off,115,0,5,,,,,,,,3,,,,55,64
1195,note_off,115,0,10,,,,,,,,8,,,,55,64
1200,note_on,5,0,10,,,,,,,,8,,,,55,75
1200,note_on,5,0,6,,,,,,,,4,,,,55,92
1200,note_on,5,0,5,,,,,,,,3,,,,55,92
1315,note_off,115,0,5,,,,,,,,3,,,,55,64
1315,note_off,115,0,10,,,,,,,,8,,,,55,64
1315,note_off,115,0,6,,,,,,,,4,,,,55,64
1320,note_on,5,0,10,,,,,,,,8,,,,55,75
1320,note_on,5,0,5,,,,,,,,3,,,,55,92
1320,note_on,160,0,13,,,,,,,,12,,,,43,75
1320,note_on,160,0,8,,,,,,,,6,,,,43,75
1320,note_on,5,0,6,,,,,,,,4,,,,55,92
1400,note_off,80,0,13,,,,,,,,12,,,,43,64
1400,note_off,80,0,8,,,,,,,,6,,,,43,64
1435,note_off,115,0,6,,,,,,,,4,,,,55,64
1435,note_off,115,0,5,,,,,,,,3,,,,55,64
1435,note_off,115,0,10,,,,,,,,8,,,,55,64
1440,note_on,5,0,5,,,,,,,,3,,,,55,92
1440,note_on,5,0,10,,,,,,,,8,,,,55,75
1440,note_on,5,0,6,,,,,,,,4,,,,55,92
1480,note_off,400,0,9,,,,,,,,7,,,,31,64
1480,note_off,400,0,15,,,,,,,,14,,,,31,64
1480,note_off,400,0,14,,,,,,,,13,,,,31,64
1555,note_off,115,0,6,,,,,,,,4,,,,55,64
1555,note_off,115,0,5,,,,,,,,3,,,,55,64
1555,note_off,115,0,10,,,,,,,,8,,,,55,64
1560,note_on,160,0,8,,,,,,,,6,,,,53,75
1560,note_on,5,0,5,,,,,,,,3,,,,65,92
1560,note_on,80,0,9,,,,,,,,7,,,,41,75
1560,note_on,80,0,14,,,,,,,,13,,,,41,75
1560,note_on,160,0,13,,,,,,,,12,,,,53,75
1560,note_on,5,0,6,,,,,,,,4,,,,65,92
1560,note_on,5,0,10,,,,,,,,8,,,,65,75
1560,note_on,80,0,15,,,,,,,,14,,,,41,75
1640,note_off,80,0,8,,,,,,,,6,,,,53,64
1640,note_off,80,0,13,,,,,,,,12,,,,53,64
1675,note_off,115,0,5,,,,,,,,3,,,,65,64
1675,note_off,115,0,10,,,,,,,,8,,,,65,64
1675,note_off,115,0,6,,,,,,,,4,,,,65,64
1680,note_on,5,0,5,,,,,,,,3,,,,55,92
1680,note_on,5,0,10,,,,,,,,8,,,,55,75
1680,note_on,5,0,6,,,,,,,,4,,,,55,92
1795,note_off,115,0,10,,,,,,,,8,,,,55,64
1795,note_off,115,0,6,,,,,,,,4,,,,55,64
1795,note_off,115,0,5,,,,,,,,3,,,,55,64
1800,note_on,5,0,10,,,,,,,,8,,,,55,75
1800,note_on,160,0,8,,,,,,,,6,,,,43,75
1800,note_on,160,0,13,,,,,,,,12,,,,43,75
1800,note_on,5,0,6,,,,,,,,4,,,,55,92
1800,note_on,5,0,5,,,,,,,,3,,,,55,92
1880,note_off,80,0,13,,,,,,,,12,,,,43,64
1880,note_off,80,0,8,,,,,,,,6,,,,43,64
1915,note_off,115,0,5,,,,,,,,3,,,,55,64
1915,note_off,115,0,6,,,,,,,,4,,,,55,64
1915,note_off,115,0,10,,,,,,,,8,,,,55,64
1920,note_on,5,0,10,,,,,,,,8,,,,55,75
1920,note_on,5,0,5,,,,,,,,3,,,,55,92
1920,note_on,5,0,6,,,,,,,,4,,,,55,92
1960,note_off,400,0,14,,,,,,,,13,,,,41,64
1960,note_off,400,0,15,,,,,,,,14,,,,41,64
1960,note_off,400,0,9,,,,,,,,7,,,,41,64
2035,note_off,115,0,6,,,,,,,,4,,,,55,64
2035,note_off,115,0,5,,,,,,,,3,,,,55,64
2035,note_off,115,0,10,,,,,,,,8,,,,55,64
2040,note_on,5,0,6,,,,,,,,4,,,,55,92
2040,note_on,5,0,5,,,,,,,,3,,,,55,92
2040,note_on,160,0,8,,,,,,,,6,,,,43,75
2040,note_on,80,0,14,,,,,,,,13,,,,31,75
2040,note_on,5,0,10,,,,,,,,8,,,,55,75
2040,note_on,80,0,15,,,,,,,,14,,,,31,75
2040,note_on,160,0,13,,,,,,,,12,,,,43,75
2040,note_on,80,0,9,,,,,,,,7,,,,31,75
2120,note_off,80,0,13,,,,,,,,12,,,,43,64
2120,note_off,80,0,8,,,,,,,,6,,,,43,64
2155,note_off,115,0,5,,,,,,,,3,,,,55,64
2155,note_off,115,0,6,,,,,,,,4,,,,55,64
2155,note_off,115,0,10,,,,,,,,8,,,,55,64
2160,note_on,5,0,10,,,,,,,,8,,,,55,75
2160,note_on,5,0,5,,,,,,,,3,,,,55,92
2160,note_on,5,0,6,,,,,,,,4,,,,55,92
2275,note_off,115,0,6,,,,,,,,4,,,,55,64
2275,note_off,115,0,10,,,,,,,,8,,,,55,64
2275,note_off,115,0,5,,,,,,,,3,,,,55,64
2280,note_on,5,0,5,,,,,,,,3,,,,55,92
2280,note_on,5,0,10,,,,,,,,8,,,,55,75
2280,note_on,160,0,13,,,,,,,,12,,,,43,75
2280,note_on,160,0,8,,,,,,,,6,,,,43,75
2280,note_on,5,0,6,,,,,,,,4,,,,55,92
2360,note_off,80,0,8,,,,,,,,6,,,,43,64
2360,note_off,80,0,13,,,,,,,,12,,,,43,64
2395,note_off,115,0,5,,,,,,,,3,,,,55,64
2395,note_off,115,0,6,,,,,,,,4,,,,55,64
2395,note_off,115,0,10,,,,,,,,8,,,,55,64
2400,note_on,5,0,6,,,,,,,,4,,,,55,92
2400,note_on,5,0,5,,,,,,,,3,,,,55,92
2400,note_on,5,0,10,,,,,,,,8,,,,55,75
2440,note_off,400,0,15,,,,,,,,14,,,,31,64
2440,note_off,400,0,14,,,,,,,,13,,,,31,64
2440,note_off,400,0,9,,,,,,,,7,,,,31,64
2515,note_off,115,0,10,,,,,,,,8,,,,55,64
2515,note_off,115,0,6,,,,,,,,4,,,,55,64
2515,note_off,115,0,5,,,,,,,,3,,,,55,64
2520,note_on,80,0,15,,,,,,,,14,,,,31,75
2520,note_on,160,0,13,,,,,,,,12,,,,43,75
2520,note_on,80,0,9,,,,,,,,7,,,,31,75
2520,note_on,5,0,5,,,,,,,,3,,,,55,92
2520,note_on,80,0,14,,,,,,,,13,,,,31,75
2520,note_on,5,0,6,,,,,,,,4,,,,55,92
2520,note_on,5,0,10,,,,,,,,8,,,,55,75
2520,note_on,160,0,8,,,,,,,,6,,,,43,75
2600,note_off,80,0,13,,,,,,,,12,,,,43,64
2600,note_off,80,0,8,,,,,,,,6,,,,43,64
2635,note_off,115,0,5,,,,,,,,3,,,,55,64
2635,note_off,115,0,10,,,,,,,,8,,,,55,64
2635,note_off,115,0,6,,,,,,,,4,,,,55,64
2640,note_on,5,0,5,,,,,,,,3,,,,55,92
2640,note_on,5,0,6,,,,,,,,4,,,,55,92
2640,note_on,5,0,10,,,,,,,,8,,,,55,75
2755,note_off,115,0,10,,,,,,,,8,,,,55,64
2755,note_off,115,0,5,,,,,,,,3,,,,55,64
2755,note_off,115,0,6,,,,,,,,4,,,,55,64
2760,note_on,160,0,8,,,,,,,,6,,,,43,75
2760,note_on,5,0,5,,,,,,,,3,,,,55,92
2760,note_on,5,0,10,,,,,,,,8,,,,55,75
2760,note_on,160,0,13,,,,,,,,12,,,,43,75
2760,note_on,5,0,6,,,,,,,,4,,,,55,92
2840,note_off,80,0,13,,,,,,,,12,,,,43,64
2840,note_off,80,0,8,,,,,,,,6,,,,43,64
2875,note_off,115,0,5,,,,,,,,3,,,,55,64
2875,note_off,115,0,10,,,,,,,,8,,,,55,64
2875,note_off,115,0,6,,,,,,,,4,,,,55,64
2880,note_on,5,0,10,,,,,,,,8,,,,55,75
2880,note_on,5,0,6,,,,,,,,4,,,,55,92
2880,note_on,5,0,5,,,,,,,,3,,,,55,92
2920,note_off,400,0,15,,,,,,,,14,,,,31,64
2920,note_off,400,0,14,,,,,,,,13,,,,31,64
2920,note_off,400,0,9,,,,,,,,7,,,,31,64
2995,note_off,115,0,10,,,,,,,,8,,,,55,64
2995,note_off,115,0,5,,,,,,,,3,,,,55,64
2995,note_off,115,0,6,,,,,,,,4,,,,55,64
3000,note_on,80,0,14,,,,,,,,13,,,,39,75
3000,note_on,5,0,10,,,,,,,,8,,,,63,75
3000,note_on,5,0,5,,,,,,,,3,,,,63,92
3000,note_on,160,0,13,,,,,,,,12,,,,51,75
3000,note_on,80,0,9,,,,,,,,7,,,,39,75
3000,note_on,80,0,15,,,,,,,,14,,,,39,75
3000,note_on,160,0,8,,,,,,,,6,,,,51,75
3000,note_on,5,0,6,,,,,,,,4,,,,63,92
3080,note_off,80,0,8,,,,,,,,6,,,,51,64
3080,note_off,80,0,13,,,,,,,,12,,,,51,64
3115,note_off,115,0,6,,,,,,,,4,,,,63,64
3115,note_off,115,0,5,,,,,,,,3,,,,63,64
3115,note_off,115,0,10,,,,,,,,8,,,,63,64
3120,note_on,5,0,10,,,,,,,,8,,,,55,75
3120,note_on,5,0,5,,,,,,,,3,,,,55,92
3120,note_on,5,0,6,,,,,,,,4,,,,55,92
3235,note_off,115,0,5,,,,,,,,3,,,,55,64
3235,note_off,115,0,6,,,,,,,,4,,,,55,64
3235,note_off,115,0,10,,,,,,,,8,,,,55,64
3240,note_on,5,0,5,,,,,,,,3,,,,55,92
3240,note_on,160,0,13,,,,,,,,12,,,,43,75
3240,note_on,160,0,8,,,,,,,,6,,,,43,75
3240,note_on,5,0,10,,,,,,,,8,,,,55,75
3240,note_on,5,0,6,,,,,,,,4,,,,55,92
3320,note_off,80,0,8,,,,,,,,6,,,,43,64
3320,note_off,80,0,13,,,,,,,,12,,,,43,64
3355,note_off,115,0,6,,,,,,,,4,,,,55,64
3355,note_off,115,0,5,,,,,,,,3,,,,55,64
3355,note_off,115,0,10,,,,,,,,8,,,,55,64
3360,note_on,5,0,6,,,,,,,,4,,,,55,92
3360,note_on,5,0,5,,,,,,,,3,,,,55,92
3360,note_on,5,0,10,,,,,,,,8,,,,55,75
3400,note_off,400,0,14,,,,,,,,13,,,,39,64
3400,note_off,400,0,15,,,,,,,,14,,,,39,64
3400,note_off,400,0,9,,,,,,,,7,,,,39,64
3475,note_off,115,0,5,,,,,,,,3,,,,55,64
3475,note_off,115,0,10,,,,,,,,8,,,,55,64
3475,note_off,115,0,6,,,,,,,,4,,,,55,64
3480,note_on,5,0,5,,,,,,,,3,,,,55,92
3480,note_on,5,0,10,,,,,,,,8,,,,55,75
3480,note_on,80,0,9,,,,,,,,7,,,,31,75
3480,note_on,80,0,15,,,,,,,,14,,,,31,75
3480,note_on,80,0,14,,,,,,,,13,,,,31,75
3480,note_on,5,0,6,,,,,,,,4,,,,55,92
3480,note_on,160,0,13,,,,,,,,12,,,,43,75
3480,note_on,160,0,8,,,,,,,,6,,,,43,75
3560,note_off,80,0,13,,,,,,,,12,,,,43,64
3560,note_off,80,0,8,,,,,,,,6,,,,43,64
3595,note_off,115,0,10,,,,,,,,8,,,,55,64
3595,note_off,115,0,5,,,,,,,,3,,,,55,64
3595,note_off,115,0,6,,,,,,,,4,,,,55,64
3600,note_on,5,0,5,,,,,,,,3,,,,55,92
3600,note_on,5,0,6,,,,,,,,4,,,,55,92
3600,note_on,5,0,10,,,,,,,,8,,,,55,75
3715,note_off,115,0,6,,,,,,,,4,,,,55,64
3715,note_off,115,0,5,,,,,,,,3,,,,55,64
3715,note_off,115,0,10,,,,,,,,8,,,,55,64
3720,note_on,5,0,10,,,,,,,,8,,,,55,75
3720,note_on,160,0,8,,,,,,,,6,,,,43,75
3720,note_on,160,0,13,,,,,,,,12,,,,43,75
3720,note_on,5,0,5,,,,,,,,3,,,,55,92
3720,note_on,5,0,6,,,,,,,,4,,,,55,92
3800,note_off,80,0,8,,,,,,,,6,,,,43,64
3800,note_off,80,0,13,,,,,,,,12,,,,43,64
3835,note_off,115,0,10,,,,,,,,8,,,,55,64
3835,note_off,115,0,6,,,,,,,,4,,,,55,64
3835,note_off,115,0,5,,,,,,,,3,,,,55,64
3840,note_on,5,0,10,,,,,,,,8,,,,55,75
3840,note_on,5,0,6,,,,,,,,4,,,,55,92
3840,note_on,5,0,5,,,,,,,,3,,,,55,92
3880,note_off,400,0,14,,,,,,,,13,,,,31,64
3880,note_off,400,0,15,,,,,,,,14,,,,31,64
3880,note_off,400,0,9,,,,,,,,7,,,,31,64
3955,note_off,115,0,6,,,,,,,,4,,,,55,64
3955,note_off,115,0,5,,,,,,,,3,,,,55,64
3955,note_off,115,0,10,,,,,,,,8,,,,55,64
3960,note_on,5,0,5,,,,,,,,3,,,,55,92
3960,note_on,5,0,6,,,,,,,,4,,,,55,92
3960,note_on,80,0,15,,,,,,,,14,,,,31,75
3960,note_on,160,0,13,,,,,,,,12,,,,43,75
3960,note_on,80,0,14,,,,,,,,13,,,,31,75
3960,note_on,160,0,8,,,,,,,,6,,,,43,75
3960,note_on,80,0,9,,,,,,,,7,,,,31,75
3960,note_on,5,0,10,,,,,,,,8,,,,55,75
4040,note_off,80,0,13,,,,,,,,12,,,,43,64
4040,note_off,80,0,8,,,,,,,,6,,,,43,64
4075,note_off,115,0,6,,,,,,,,4,,,,55,64
4075,note_off,115,0,5,,,,,,,,3,,,,55,64
4075,note_off,115,0,10,,,,,,,,8,,,,55,64
4080,note_on,5,0,5,,,,,,,,3,,,,55,92
4080,note_on,5,0,6,,,,,,,,4,,,,55,92
4080,note_on,5,0,10,,,,,,,,8,,,,55,75
4195,note_off,115,0,5,,,,,,,,3,,,,55,64
4195,note_off,115,0,6,,,,,,,,4,,,,55,64
4195,note_off,115,0,10,,,,,,,,8,,,,55,64
4200,note_on,5,0,10,,,,,,,,8,,,,55,75
4200,note_on,5,0,5,,,,,,,,3,,,,55,92
4200,note_on,5,0,6,,,,,,,,4,,,,55,92
4200,note_on,160,0,8,,,,,,,,6,,,,43,75
4200,note_on,160,0,13,,,,,,,,12,,,,43,75
4280,note_off,80,0,13,,,,,,,,12,,,,43,64
4280,note_off,80,0,8,,,,,,,,6,,,,43,64
4315,note_off,115,0,10,,,,,,,,8,,,,55,64
4315,note_off,115,0,6,,,,,,,,4,,,,55,64
4315,note_off,115,0,5,,,,,,,,3,,,,55,64
4320,note_on,5,0,10,,,,,,,,8,,,,55,75
4320,note_on,5,0,6,,,,,,,,4,,,,55,92
4320,note_on,5,0,5,,,,,,,,3,,,,55,92
4360,note_off,400,0,15,,,,,,,,14,,,,31,64
4360,note_off,400,0,14,,,,,,,,13,,,,31,64
4360,note_off,400,0,9,,,,,,,,7,,,,31,64
4435,note_off,115,0,10,,,,,,,,8,,,,55,64
4435,note_off,115,0,5,,,,,,,,3,,,,55,64
4435,note_off,115,0,6,,,,,,,,4,,,,55,64
4440,note_on,5,0,5,,,,,,,,3,,,,62,92
4440,note_on,80,0,14,,,,,,,,13,,,,38,75
4440,note_on,5,0,10,,,,,,,,8,,,,62,75
4440,note_on,80,0,15,,,,,,,,14,,,,38,75
4440,note_on,80,0,9,,,,,,,,7,,,,38,75
4440,note_on,160,0,13,,,,,,,,12,,,,50,75
4440,note_on,5,0,6,,,,,,,,4,,,,62,92
4440,note_on,160,0,8,,,,,,,,6,,,,50,75
4520,note_off,80,0,13,,,,,,,,12,,,,50,64
4520,note_off,80,0,8,,,,,,,,6,,,,50,64
4555,note_off,115,0,5,,,,,,,,3,,,,62,64
4555,note_off,115,0,6,,,,,,,,4,,,,62,64
4555,note_off,115,0,10,,,,,,,,8,,,,62,64
4560,note_on,5,0,5,,,,,,,,3,,,,55,92
4560,note_on,5,0,10,,,,,,,,8,,,,55,75
4560,note_on,5,0,6,,,,,,,,4,,,,55,92
4675,note_off,115,0,10,,,,,,,,8,,,,55,64
4675,note_off,115,0,5,,,,,,,,3,,,,55,64
4675,note_off,115,0,6,,,,,,,,4,,,,55,64
4680,note_on,5,0,6,,,,,,,,4,,,,55,92
4680,note_on,5,0,10,,,,,,,,8,,,,55,75
4680,note_on,160,0,13,,,,,,,,12,,,,43,75
4680,note_on,5,0,5,,,,,,,,3,,,,55,92
4680,note_on,160,0,8,,,,,,,,6,,,,43,75
4760,note_off,80,0,13,,,,,,,,12,,,,43,64
4760,note_off,80,0,8,,,,,,,,6,,,,43,64
4795,note_off,115,0,10,,,,,,,,8,,,,55,64
4795,note_off,115,0,5,,,,,,,,3,,,,55,64
4795,note_off,115,0,6,,,,,,,,4,,,,55,64
4800,note_on,5,0,10,,,,,,,,8,,,,55,75
4800,note_on,5,0,5,,,,,,,,3,,,,55,92
4800,note_on,5,0,6,,,,,,,,4,,,,55,92
4840,note_off,400,0,14,,,,,,,,13,,,,38,64
4840,note_off,400,0,9,,,,,,,,7,,,,38,64
4840,note_off,400,0,15,,,,,,,,14,,,,38,64
4915,note_off,115,0,5,,,,,,,,3,,,,55,64
4915,note_off,115,0,10,,,,,,,,8,,,,55,64
4915,note_off,115,0,6,,,,,,,,4,,,,55,64
4920,note_on,80,0,15,,,,,,,,14,,,,31,75
4920,note_on,5,0,6,,,,,,,,4,,,,55,92
4920,note_on,160,0,8,,,,,,,,6,,,,43,75
4920,note_on,80,0,14,,,,,,,,13,,,,31,75
4920,note_on,80,0,9,,,,,,,,7,,,,31,75
4920,note_on,5,0,5,,,,,,,,3,,,,55,92
4920,note_on,5,0,10,,,,,,,,8,,,,55,75
4920,note_on,160,0,13,,,,,,,,12,,,,43,75
5000,note_off,80,0,8,,,,,,,,6,,,,43,64
5000,note_off,80,0,13,,,,,,,,12,,,,43,64
5035,note_off,115,0,10,,,,,,,,8,,,,55,64
5035,note_off,115,0,6,,,,,,,,4,,,,55,64
5035,note_off,115,0,5,,,,,,,,3,,,,55,64
5040,note_on,5,0,6,,,,,,,,4,,,,55,92
5040,note_on,5,0,10,,,,,,,,8,,,,55,75
5040,note_on,5,0,5,,,,,,,,3,,,,55,92
5155,note_off,115,0,10,,,,,,,,8,,,,55,64
5155,note_off,115,0,5,,,,,,,,3,,,,55,64
5155,note_off,115,0,6,,,,,,,,4,,,,55,64
5160,note_on,160,0,13,,,,,,,,12,,,,43,75
5160,note_on,5,0,6,,,,,,,,4,,,,55,92
5160,note_on,5,0,5,,,,,,,,3,,,,55,92
5160,note_on,5,0,10,,,,,,,,8,,,,55,75
5160,note_on,160,0,8,,,,,,,,6,,,,43,75
5240,note_off,80,0,8,,,,,,,,6,,,,43,64
5240,note_off,80,0,13,,,,,,,,12,,,,43,64
5275,note_off,115,0,5,,,,,,,,3,,,,55,64
5275,note_off,115,0,6,,,,,,,,4,,,,55,64
5275,note_off,115,0,10,,,,,,,,8,,,,55,64
5280,note_on,5,0,5,,,,,,,,3,,,,55,92
5280,note_on,5,0,6,,,,,,,,4,,,,55,92
5280,note_on,5,0,10,,,,,,,,8,,,,55,75
5320,note_off,400,0,14,,,,,,,,13,,,,31,64
5320,note_off,400,0,15,,,,,,,,14,,,,31,64
5320,note_off,400,0,9,,,,,,,,7,,,,31,64
5395,note_off,115,0,6,,,,,,,,4,,,,55,64
5395,note_off,115,0,5,,,,,,,,3,,,,55,64
5395,note_off,115,0,10,,,,,,,,8,,,,55,64
5400,note_on,5,0,5,,,,,,,,3,,,,55,92
5400,note_on,80,0,9,,,,,,,,7,,,,31,75
5400,note_on,5,0,6,,,,,,,,4,,,,55,92
5400,note_on,5,0,10,,,,,,,,8,,,,55,75
5400,note_on,80,0,14,,,,,,,,13,,,,31,75
5400,note_on,160,0,8,,,,,,,,6,,,,43,75
5400,note_on,80,0,15,,,,,,,,14,,,,31,75
5400,note_on,160,0,13,,,,,,,,12,,,,43,75
5480,note_off,80,0,8,,,,,,,,6,,,,43,64
5480,note_off,80,0,13,,,,,,,,12,,,,43,64
5635,note_off,235,0,15,,,,,,,,14,,,,31,64
5635,note_off,235,0,5,,,,,,,,3,,,,55,64
5635,note_off,235,0,10,,,,,,,,8,,,,55,64
5635,note_off,235,0,6,,,,,,,,4,,,,55,64
5635,note_off,235,0,9,,,,,,,,7,,,,31,64
5635,note_off,235,0,14,,,,,,,,13,,,,31,64
8760,note_on,3125,0,14,,,,,,,,13,,,,50,75
8760,note_on,3125,0,15,,,,,,,,14,,,,50,75
8760,note_on,3125,0,5,,,,,,,,3,,,,74,92
8760,note_on,3125,0,10,,,,,,,,8,,,,74,75
8760,note_on,3125,0,6,,,,,,,,4,,,,74,92
8760,note_on,3125,0,9,,,,,,,,7,,,,50,75
8760,note_on,3280,0,8,,,,,,,,6,,,,62,75
8760,note_on,3280,0,13,,,,,,,,12,,,,62,75
8840,note_off,80,0,8,,,,,,,,6,,,,62,64
8840,note_off,80,0,13,,,,,,,,12,,,,62,64
8875,note_off,115,0,6,,,,,,,,4,,,,74,64
8875,note_off,115,0,10,,,,,,,,8,,,,74,64
8875,note_off,115,0,5,,,,,,,,3,,,,74,64
8880,note_on,5,0,5,,,,,,,,3,,,,62,92
8880,note_on,5,0,6,,,,,,,,4,,,,62,92
8880,note_on,5,0,10,,,,,,,,8,,,,62,75
8995,note_off,115,0,10,,,,,,,,8,,,,62,64
8995,note_off,115,0,6,,,,,,,,4,,,,62,64
8995,note_off,115,0,5,,,,,,,,3,,,,62,64
9000,note_on,5,0,6,,,,,,,,4,,,,62,92
9000,note_on,5,0,5,,,,,,,,3,,,,62,92
9000,note_on,160,0,13,,,,,,,,12,,,,50,75
9000,note_on,160,0,8,,,,,,,,6,,,,50,75
9000,note_on,5,0,10,,,,,,,,8,,,,62,75
9080,note_off,80,0,8,,,,,,,,6,,,,50,64
9080,note_off,80,0,13,,,,,,,,12,,,,50,64
9115,note_off,115,0,10,,,,,,,,8,,,,62,64
9115,note_off,115,0,6,,,,,,,,4,,,,62,64
9115,note_off,115,0,5,,,,,,,,3,,,,62,64
9120,note_on,5,0,6,,,,,,,,4,,,,62,92
9120,note_on,5,0,5,,,,,,,,3,,,,62,92
9120,note_on,5,0,10,,,,,,,,8,,,,62,75
9160,note_off,400,0,15,,,,,,,,14,,,,50,64
9160,note_off,400,0,9,,,,,,,,7,,,,50,64
9160,note_off,400,0,14,,,,,,,,13,,,,50,64
9235,note_off,115,0,6,,,,,,,,4,,,,62,64
9235,note_off,115,0,10,,,,,,,,8,,,,62,64
9235,note_off,115,0,5,,,,,,,,3,,,,62,64
9240,note_on,160,0,8,,,,,,,,6,,,,50,75
9240,note_on,160,0,13,,,,,,,,12,,,,50,75
9240,note_on,5,0,6,,,,,,,,4,,,,62,92
9240,note_on,80,0,15,,,,,,,,14,,,,38,75
9240,note_on,5,0,10,,,,,,,,8,,,,62,75
9240,note_on,80,0,9,,,,,,,,7,,,,38,75
9240,note_on,5,0,5,,,,,,,,3,,,,62,92
9240,note_on,80,0,14,,,,,,,,13,,,,38,75
9320,note_off,80,0,8,,,,,,,,6,,,,50,64
9320,note_off,80,0,13,,,,,,,,12,,,,50,64
9355,note_off,115,0,6,,,,,,,,4,,,,62,64
9355,note_off,115,0,10,,,,,,,,8,,,,62,64
9355,note_off,115,0,5,,,,,,,,3,,,,62,64
9360,note_on,5,0,5,,,,,,,,3,,,,62,92
9360,note_on,5,0,10,,,,,,,,8,,,,62,75
9360,note_on,5,0,6,,,,,,,,4,,,,62,92
9475,note_off,115,0,6,,,,,,,,4,,,,62,64
9475,note_off,115,0,10,,,,,,,,8,,,,62,64
9475,note_off,115,0,5,,,,,,,,3,,,,62,64
9480,note_on,160,0,13,,,,,,,,12,,,,50,75
9480,note_on,5,0,6,,,,,,,,4,,,,62,92
9480,note_on,5,0,10,,,,,,,,8,,,,62,75
9480,note_on,160,0,8,,,,,,,,6,,,,50,75
9480,note_on,5,0,5,,,,,,,,3,,,,62,92
9560,note_off,80,0,13,,,,,,,,12,,,,50,64
9560,note_off,80,0,8,,,,,,,,6,,,,50,64
9595,note_off,115,0,6,,,,,,,,4,,,,62,64
9595,note_off,115,0,5,,,,,,,,3,,,,62,64
9595,note_off,115,0,10,,,,,,,,8,,,,62,64
9600,note_on,5,0,5,,,,,,,,3,,,,62,92
9600,note_on,5,0,10,,,,,,,,8,,,,62,75
9600,note_on,5,0,6,,,,,,,,4,,,,62,92
9640,note_off,400,0,15,,,,,,,,14,,,,38,64
9640,note_off,400,0,9,,,,,,,,7,,,,38,64
9640,note_off,400,0,14,,,,,,,,13,,,,38,64
9715,note_off,115,0,5,,,,,,,,3,,,,62,64
9715,note_off,115,0,10,,,,,,,,8,,,,62,64
9715,note_off,115,0,6,,,,,,,,4,,,,62,64
9720,note_on,5,0,6,,,,,,,,4,,,,62,92
9720,note_on,160,0,13,,,,,,,,12,,,,50,75
9720,note_on,80,0,15,,,,,,,,14,,,,38,75
9720,note_on,160,0,8,,,,,,,,6,,,,50,75
9720,note_on,80,0,9,,,,,,,,7,,,,38,75
9720,note_on,5,0,5,,,,,,,,3,,,,62,92
9720,note_on,5,0,10,,,,,,,,8,,,,62,75
9720,note_on,80,0,14,,,,,,,,13,,,,38,75
9800,note_off,80,0,13,,,,,,,,12,,,,50,64
9800,note_off,80,0,8,,,,,,,,6,,,,50,64
9835,note_off,115,0,5,,,,,,,,3,,,,62,64
9835,note_off,115,0,10,,,,,,,,8,,,,62,64
9835,note_off,115,0,6,,,,,,,,4,,,,62,64
9840,note_on,5,0,6,,,,,,,,4,,,,62,92
9840,note_on,5,0,5,,,,,,,,3,,,,62,92
9840,note_on,5,0,10,,,,,,,,8,,,,62,75
9955,note_off,115,0,6,,,,,,,,4,,,,62,64
9955,note_off,115,0,10,,,,,,,,8,,,,62,64
9955,note_off,115,0,5,,,,,,,,3,,,,62,64
9960,note_on,5,0,5,,,,,,,,3,,,,62,92
9960,note_on,5,0,10,,,,,,,,8,,,,62,75
9960,note_on,5,0,6,,,,,,,,4,,,,62,92
9960,note_on,160,0,8,,,,,,,,6,,,,50,75
9960,note_on,160,0,13,,,,,,,,12,,,,50,75
10040,note_off,80,0,13,,,,,,,,12,,,,50,64
10040,note_off,80,0,8,,,,,,,,6,,,,50,64
10075,note_off,115,0,10,,,,,,,,8,,,,62,64
10075,note_off,115,0,6,,,,,,,,4,,,,62,64
10075,note_off,115,0,5,,,,,,,,3,,,,62,64
10080,note_on,5,0,10,,,,,,,,8,,,,62,75
10080,note_on,5,0,6,,,,,,,,4,,,,62,92
10080,note_on,5,0,5,,,,,,,,3,,,,62,92
10120,note_off,400,0,15,,,,,,,,14,,,,38,64
10120,note_off,400,0,9,,,,,,,,7,,,,38,64
10120,note_off,400,0,14,,,,,,,,13,,,,38,64
10195,note_off,115,0,10,,,,,,,,8,,,,62,64
10195,note_off,115,0,5,,,,,,,,3,,,,62,64
10195,note_off,115,0,6,,,,,,,,4,,,,62,64
10200,note_on,80,0,15,,,,,,,,14,,,,48,75
10200,note_on,80,0,9,,,,,,,,7,,,,48,75
10200,note_on,160,0,13,,,,,,,,12,,,,60,75
10200,note_on,5,0,5,,,,,,,,3,,,,72,92
10200,note_on,160,0,8,,,,,,,,6,,,,60,75
10200,note_on,5,0,10,,,,,,,,8,,,,72,75
10200,note_on,5,0,6,,,,,,,,4,,,,72,92
10200,note_on,80,0,14,,,,,,,,13,,,,48,75
10280,note_off,80,0,8,,,,,,,,6,,,,60,64
10280,note_off,80,0,13,,,,,,,,12,,,,60,64
10315,note_off,115,0,6,,,,,,,,4,,,,72,64
10315,note_off,115,0,5,,,,,,,,3,,,,72,64
10315,note_off,115,0,10,,,,,,,,8,,,,72,64
10320,note_on,5,0,10,,,,,,,,8,,,,62,75
10320,note_on,5,0,5,,,,,,,,3,,,,62,92
10320,note_on,5,0,6,,,,,,,,4,,,,62,92
10435,note_off,115,0,5,,,,,,,,3,,,,62,64
10435,note_off,115,0,10,,,,,,,,8,,,,62,64
10435,note_off,115,0,6,,,,,,,,4,,,,62,64
10440,note_on,160,0,13,,,,,,,,12,,,,50,75
10440,note_on,5,0,6,,,,,,,,4,,,,62,92
10440,note_on,5,0,5,,,,,,,,3,,,,62,92
10440,note_on,160,0,8,,,,,,,,6,,,,50,75
10440,note_on,5,0,10,,,,,,,,8,,,,62,75
10520,note_off,80,0,8,,,,,,,,6,,,,50,64
10520,note_off,80,0,13,,,,,,,,12,,,,50,64
10555,note_off,115,0,5,,,,,,,,3,,,,62,64
10555,note_off,115,0,6,,,,,,,,4,,,,62,64
10555,note_off,115,0,10,,,,,,,,8,,,,62,64
10560,note_on,5,0,10,,,,,,,,8,,,,62,75
10560,note_on,5,0,5,,,,,,,,3,,,,62,92
10560,note_on,5,0,6,,,,,,,,4,,,,62,92
10600,note_off,400,0,9,,,,,,,,7,,,,48,64
10600,note_off,400,0,15,,,,,,,,14,,,,48,64
10600,note_off,400,0,14,,,,,,,,13,,,,48,64
10675,note_off,115,0,6,,,,,,,,4,,,,62,64
10675,note_off,115,0,10,,,,,,,,8,,,,62,64
10675,note_off,115,0,5,,,,,,,,3,,,,62,64
10680,note_on,5,0,10,,,,,,,,8,,,,62,75
10680,note_on,80,0,15,,,,,,,,14,,,,38,75
10680,note_on,5,0,5,,,,,,,,3,,,,62,92
10680,note_on,160,0,8,,,,,,,,6,,,,50,75
10680,note_on,80,0,9,,,,,,,,7,,,,38,75
10680,note_on,5,0,6,,,,,,,,4,,,,62,92
10680,note_on,160,0,13,,,,,,,,12,,,,50,75
10680,note_on,80,0,14,,,,,,,,13,,,,38,75
10760,note_off,80,0,8,,,,,,,,6,,,,50,64
10760,note_off,80,0,13,,,,,,,,12,,,,50,64
10795,note_off,115,0,10,,,,,,,,8,,,,62,64
10795,note_off,115,0,5,,,,,,,,3,,,,62,64
10795,note_off,115,0,6,,,,,,,,4,,,,62,64
10800,note_on,5,0,10,,,,,,,,8,,,,62,75
10800,note_on,5,0,6,,,,,,,,4,,,,62,92
10800,note_on,5,0,5,,,,,,,,3,,,,62,92
10915,note_off,115,0,10,,,,,,,,8,,,,62,64
10915,note_off,115,0,5,,,,,,,,3,,,,62,64
10915,note_off,115,0,6,,,,,,,,4,,,,62,64
10920,note_on,160,0,8,,,,,,,,6,,,,50,75
10920,note_on,5,0,10,,,,,,,,8,,,,62,75
10920,note_on,160,0,13,,,,,,,,12,,,,50,75
10920,note_on,5,0,5,,,,,,,,3,,,,62,92
10920,note_on,5,0,6,,,,,,,,4,,,,62,92
11000,note_off,80,0,8,,,,,,,,6,,,,50,64
11000,note_off,80,0,13,,,,,,,,12,,,,50,64
11035,note_off,115,0,5,,,,,,,,3,,,,62,64
11035,note_off,115,0,6,,,,,,,,4,,,,62,64
11035,note_off,115,0,10,,,,,,,,8,,,,62,64
11040,note_on,5,0,5,,,,,,,,3,,,,62,92
11040,note_on,5,0,10,,,,,,,,8,,,,62,75
11040,note_on,5,0,6,,,,,,,,4,,,,62,92
11080,note_off,400,0,9,,,,,,,,7,,,,38,64
11080,note_off,400,0,14,,,,,,,,13,,,,38,64
11080,note_off,400,0,15,,,,,,,,14,,,,38,64
11155,note_off,115,0,5,,,,,,,,3,,,,62,64
11155,note_off,115,0,6,,,,,,,,4,,,,62,64
11155,note_off,115,0,10,,,,,,,,8,,,,62,64
11160,note_on,80,0,9,,,,,,,,7,,,,38,75
11160,note_on,160,0,13,,,,,,,,12,,,,50,75
11160,note_on,80,0,14,,,,,,,,13,,,,38,75
11160,note_on,160,0,8,,,,,,,,6,,,,50,75
11160,note_on,80,0,15,,,,,,,,14,,,,38,75
11160,note_on,5,0,5,,,,,,,,3,,,,62,92
11160,note_on,5,0,6,,,,,,,,4,,,,62,92
11160,note_on,5,0,10,,,,,,,,8,,,,62,75
11240,note_off,80,0,8,,,,,,,,6,,,,50,64
11240,note_off,80,0,13,,,,,,,,12,,,,50,64
11275,note_off,115,0,5,,,,,,,,3,,,,62,64
11275,note_off,115,0,10,,,,,,,,8,,,,62,64
11275,note_off,115,0,6,,,,,,,,4,,,,62,64
11280,note_on,5,0,10,,,,,,,,8,,,,62,75
11280,note_on,5,0,6,,,,,,,,4,,,,62,92
11280,note_on,5,0,5,,,,,,,,3,,,,62,92
11395,note_off,115,0,6,,,,,,,,4,,,,62,64
11395,note_off,115,0,10,,,,,,,,8,,,,62,64
11395,note_off,115,0,5,,,,,,,,3,,,,62,64
11400,note_on,160,0,13,,,,,,,,12,,,,50,75
11400,note_on,160,0,8,,,,,,,,6,,,,50,75
11400,note_on,5,0,5,,,,,,,,3,,,,62,92
11400,note_on,5,0,6,,,,,,,,4,,,,62,92
11400,note_on,5,0,10,,,,,,,,8,,,,62,75
11480,note_off,80,0,13,,,,,,,,12,,,,50,64
11480,note_off,80,0,8,,,,,,,,6,,,,50,64
11515,note_off,115,0,10,,,,,,,,8,,,,62,64
11515,note_off,115,0,6,,,,,,,,4,,,,62,64
11515,note_off,115,0,5,,,,,,,,3,,,,62,64
11520,note_on,5,0,6,,,,,,,,4,,,,62,92
11520,note_on,5,0,10,,,,,,,,8,,,,62,75
11520,note_on,5,0,5,,,,,,,,3,,,,62,92
11560,note_off,400,0,14,,,,,,,,13,,,,38,64
11560,note_off,400,0,15,,,,,,,,14,,,,38,64
11560,note_off,400,0,9,,,,,,,,7,,,,38,64
11635,note_off,115,0,6,,,,,,,,4,,,,62,64
11635,note_off,115,0,10,,,,,,,,8,,,,62,64
11635,note_off,115,0,5,,,,,,,,3,,,,62,64
11640,note_on,80,0,15,,,,,,,,14,,,,46,75
11640,note_on,5,0,6,,,,,,,,4,,,,70,92
11640,note_on,5,0,5,,,,,,,,3,,,,70,92
11640,note_on,80,0,14,,,,,,,,13,,,,46,75
11640,note_on,160,0,13,,,,,,,,12,,,,58,75
11640,note_on,5,0,10,,,,,,,,8,,,,70,75
11640,note_on,80,0,9,,,,,,,,7,,,,46,75
11640,note_on,160,0,8,,,,,,,,6,,,,58,75
11720,note_off,80,0,8,,,,,,,,6,,,,58,64
11720,note_off,80,0,13,,,,,,,,12,,,,58,64
11755,note_off,115,0,6,,,,,,,,4,,,,70,64
11755,note_off,115,0,5,,,,,,,,3,,,,70,64
11755,note_off,115,0,10,,,,,,,,8,,,,70,64
11760,note_on,5,0,6,,,,,,,,4,,,,62,92
11760,note_on,5,0,10,,,,,,,,8,,,,62,75
11760,note_on,5,0,5,,,,,,,,3,,,,62,92
11875,note_off,115,0,5,,,,,,,,3,,,,62,64
11875,note_off,115,0,6,,,,,,,,4,,,,62,64
11875,note_off,115,0,10,,,,,,,,8,,,,62,64
11880,note_on,5,0,6,,,,,,,,4,,,,62,92
11880,note_on,160,0,13,,,,,,,,12,,,,50,75
11880,note_on,160,0,8,,,,,,,,6,,,,50,75
11880,note_on,5,0,5,,,,,,,,3,,,,62,92
11880,note_on,5,0,10,,,,,,,,8,,,,62,75
11960,note_off,80,0,8,,,,,,,,6,,,,50,64
11960,note_off,80,0,13,,,,,,,,12,,,,50,64
11995,note_off,115,0,5,,,,,,,,3,,,,62,64
11995,note_off,115,0,6,,,,,,,,4,,,,62,64
11995,note_off,115,0,10,,,,,,,,8,,,,62,64
12000,note_on,5,0,5,,,,,,,,3,,,,62,92
12000,note_on,5,0,10,,,,,,,,8,,,,62,75
12000,note_on,5,0,6,,,,,,,,4,,,,62,92
12040,note_off,400,0,9,,,,,,,,7,,,,46,64
12040,note_off,400,0,14,,,,,,,,13,,,,46,64
12040,note_off,400,0,15,,,,,,,,14,,,,46,64
12115,note_off,115,0,6,,,,,,,,4,,,,62,64
12115,note_off,115,0,10,,,,,,,,8,,,,62,64
12115,note_off,115,0,5,,,,,,,,3,,,,62,64
12120,note_on,80,0,9,,,,,,,,7,,,,38,75
12120,note_on,5,0,10,,,,,,,,8,,,,62,75
12120,note_on,80,0,14,,,,,,,,13,,,,38,75
12120,note_on,5,0,5,,,,,,,,3,,,,62,92
12120,note_on,80,0,15,,,,,,,,14,,,,38,75
12120,note_on,160,0,8,,,,,,,,6,,,,50,75
12120,note_on,5,0,6,,,,,,,,4,,,,62,92
12120,note_on,160,0,13,,,,,,,,12,,,,50,75
12200,note_off,80,0,8,,,,,,,,6,,,,50,64
12200,note_off,80,0,13,,,,,,,,12,,,,50,64
12235,note_off,115,0,5,,,,,,,,3,,,,62,64
12235,note_off,115,0,10,,,,,,,,8,,,,62,64
12235,note_off,115,0,6,,,,,,,,4,,,,62,64
12240,note_on,5,0,10,,,,,,,,8,,,,62,75
12240,note_on,5,0,5,,,,,,,,3,,,,62,92
12240,note_on,5,0,6,,,,,,,,4,,,,62,92
12355,note_off,115,0,6,,,,,,,,4,,,,62,64
12355,note_off,115,0,5,,,,,,,,3,,,,62,64
12355,note_off,115,0,10,,,,,,,,8,,,,62,64
12360,note_on,5,0,6,,,,,,,,4,,,,62,92
12360,note_on,160,0,13,,,,,,,,12,,,,50,75
12360,note_on,160,0,8,,,,,,,,6,,,,50,75
12360,note_on,5,0,10,,,,,,,,8,,,,62,75
12360,note_on,5,0,5,,,,,,,,3,,,,62,92
12440,note_off,80,0,8,,,,,,,,6,,,,50,64
12440,note_off,80,0,13,,,,,,,,12,,,,50,64
12475,note_off,115,0,5,,,,,,,,3,,,,62,64
12475,note_off,115,0,10,,,,,,,,8,,,,62,64
12475,note_off,115,0,6,,,,,,,,4,,,,62,64
12480,note_on,5,0,6,,,,,,,,4,,,,62,92
12480,note_on,5,0,5,,,,,,,,3,,,,62,92
12480,note_on,5,0,10,,,,,,,,8,,,,62,75
12520,note_off,400,0,14,,,,,,,,13,,,,38,64
12520,note_off,400,0,9,,,,,,,,7,,,,38,64
12520,note_off,400,0,15,,,,,,,,14,,,,38,64
12595,note_off,115,0,10,,,,,,,,8,,,,62,64
12595,note_off,115,0,5,,,,,,,,3,,,,62,64
12595,note_off,115,0,6,,,,,,,,4,,,,62,64
12600,note_on,160,0,13,,,,,,,,12,,,,50,75
12600,note_on,5,0,5,,,,,,,,3,,,,62,92
12600,note_on,80,0,15,,,,,,,,14,,,,38,75
12600,note_on,5,0,6,,,,,,,,4,,,,62,92
12600,note_on,160,0,8,,,,,,,,6,,,,50,75
12600,note_on,80,0,14,,,,,,,,13,,,,38,75
12600,note_on,5,0,10,,,,,,,,8,,,,62,75
12600,note_on,80,0,9,,,,,,,,7,,,,38,75
12680,note_off,80,0,8,,,,,,,,6,,,,50,64
12680,note_off,80,0,13,,,,,,,,12,,,,50,64
12715,note_off,115,0,6,,,,,,,,4,,,,62,64
12715,note_off,115,0,5,,,,,,,,3,,,,62,64
12715,note_off,115,0,10,,,,,,,,8,,,,62,64
12720,note_on,5,0,5,,,,,,,,3,,,,62,92
12720,note_on,5,0,10,,,,,,,,8,,,,62,75
12720,note_on,5,0,6,,,,,,,,4,,,,62,92
12835,note_off,115,0,5,,,,,,,,3,,,,62,64
12835,note_off,115,0,6,,,,,,,,4,,,,62,64
12835,note_off,115,0,10,,,,,,,,8,,,,62,64
12840,note_on,5,0,5,,,,,,,,3,,,,62,92
12840,note_on,5,0,10,,,,,,,,8,,,,62,75
12840,note_on,5,0,6,,,,,,,,4,,,,62,92
12840,note_on,160,0,13,,,,,,,,12,,,,50,75
12840,note_on,160,0,8,,,,,,,,6,,,,50,75
12920,note_off,80,0,13,,,,,,,,12,,,,50,64
12920,note_off,80,0,8,,,,,,,,6,,,,50,64
12955,note_off,115,0,6,,,,,,,,4,,,,62,64
12955,note_off,115,0,5,,,,,,,,3,,,,62,64
12955,note_off,115,0,10,,,,,,,,8,,,,62,64
12960,note_on,5,0,6,,,,,,,,4,,,,62,92
12960,note_on,5,0,5,,,,,,,,3,,,,62,92
12960,note_on,5,0,10,,,,,,,,8,,,,62,75
13000,note_off,400,0,14,,,,,,,,13,,,,38,64
13000,note_off,400,0,9,,,,,,,,7,,,,38,64
13000,note_off,400,0,15,,,,,,,,14,,,,38,64
13075,note_off,115,0,5,,,,,,,,3,,,,62,64
13075,note_off,115,0,6,,,,,,,,4,,,,62,64
13075,note_off,115,0,10,,,,,,,,8,,,,62,64
13080,note_on,160,0,13,,,,,,,,12,,,,57,75
13080,note_on,5,0,5,,,,,,,,3,,,,69,92
13080,note_on,80,0,14,,,,,,,,13,,,,45,75
13080,note_on,5,0,6,,,,,,,,4,,,,69,92
13080,note_on,80,0,9,,,,,,,,7,,,,45,75
13080,note_on,160,0,8,,,,,,,,6,,,,57,75
13080,note_on,80,0,15,,,,,,,,14,,,,45,75
13080,note_on,5,0,10,,,,,,,,8,,,,69,75
13160,note_off,80,0,8,,,,,,,,6,,,,57,64
13160,note_off,80,0,13,,,,,,,,12,,,,57,64
13195,note_off,115,0,10,,,,,,,,8,,,,69,64
13195,note_off,115,0,5,,,,,,,,3,,,,69,64
13195,note_off,115,0,6,,,,,,,,4,,,,69,64
13200,note_on,5,0,10,,,,,,,,8,,,,62,75
13200,note_on,5,0,6,,,,,,,,4,,,,62,92
13200,note_on,5,0,5,,,,,,,,3,,,,62,92
13315,note_off,115,0,10,,,,,,,,8,,,,62,64
13315,note_off,115,0,6,,,,,,,,4,,,,62,64
13315,note_off,115,0,5,,,,,,,,3,,,,62,64
13320,note_on,160,0,8,,,,,,,,6,,,,50,75
13320,note_on,160,0,13,,,,,,,,12,,,,50,75
13320,note_on,5,0,10,,,,,,,,8,,,,62,75
13320,note_on,5,0,6,,,,,,,,4,,,,62,92
13320,note_on,5,0,5,,,,,,,,3,,,,62,92
13400,note_off,80,0,8,,,,,,,,6,,,,50,64
13400,note_off,80,0,13,,,,,,,,12,,,,50,64
13435,note_off,115,0,6,,,,,,,,4,,,,62,64
13435,note_off,115,0,10,,,,,,,,8,,,,62,64
13435,note_off,115,0,5,,,,,,,,3,,,,62,64
13440,note_on,5,0,5,,,,,,,,3,,,,62,92
13440,note_on,5,0,10,,,,,,,,8,,,,62,75
13440,note_on,5,0,6,,,,,,,,4,,,,62,92
13480,note_off,400,0,9,,,,,,,,7,,,,45,64
13480,note_off,400,0,15,,,,,,,,14,,,,45,64
13480,note_off,400,0,14,,,,,,,,13,,,,45,64
13555,note_off,115,0,5,,,,,,,,3,,,,62,64
13555,note_off,115,0,6,,,,,,,,4,,,,62,64
13555,note_off,115,0,10,,,,,,,,8,,,,62,64
13560,note_on,80,0,15,,,,,,,,14,,,,38,75
13560,note_on,80,0,9,,,,,,,,7,,,,38,75
13560,note_on,5,0,10,,,,,,,,8,,,,62,75
13560,note_on,5,0,6,,,,,,,,4,,,,62,92
13560,note_on,160,0,13,,,,,,,,12,,,,50,75
13560,note_on,160,0,8,,,,,,,,6,,,,50,75
13560,note_on,5,0,5,,,,,,,,3,,,,62,92
13560,note_on,80,0,14,,,,,,,,13,,,,38,75
13640,note_off,80,0,13,,,,,,,,12,,,,50,64
13640,note_off,80,0,8,,,,,,,,6,,,,50,64
13675,note_off,115,0,10,,,,,,,,8,,,,62,64
13675,note_off,115,0,6,,,,,,,,4,,,,62,64
13675,note_off,115,0,5,,,,,,,,3,,,,62,64
13680,note_on,5,0,6,,,,,,,,4,,,,62,92
13680,note_on,5,0,10,,,,,,,,8,,,,62,75
13680,note_on,5,0,5,,,,,,,,3,,,,62,92
13795,note_off,115,0,6,,,,,,,,4,,,,62,64
13795,note_off,115,0,5,,,,,,,,3,,,,62,64
13795,note_off,115,0,10,,,,,,,,8,,,,62,64
13800,note_on,5,0,5,,,,,,,,3,,,,62,92
13800,note_on,5,0,10,,,,,,,,8,,,,62,75
13800,note_on,5,0,6,,,,,,,,4,,,,62,92
13800,note_on,160,0,13,,,,,,,,12,,,,50,75
13800,note_on,160,0,8,,,,,,,,6,,,,50,75
13880,note_off,80,0,13,,,,,,,,12,,,,50,64
13880,note_off,80,0,8,,,,,,,,6,,,,50,64
13915,note_off,115,0,10,,,,,,,,8,,,,62,64
13915,note_off,115,0,5,,,,,,,,3,,,,62,64
13915,note_off,115,0,6,,,,,,,,4,,,,62,64
13920,note_on,5,0,5,,,,,,,,3,,,,62,92
13920,note_on,5,0,10,,,,,,,,8,,,,62,75
13920,note_on,5,0,6,,,,,,,,4,,,,62,92
13960,note_off,400,0,14,,,,,,,,13,,,,38,64
13960,note_off,400,0,9,,,,,,,,7,,,,38,64
13960,note_off,400,0,15,,,,,,,,14,,,,38,64
14035,note_off,115,0,6,,,,,,,,4,,,,62,64
14035,note_off,115,0,10,,,,,,,,8,,,,62,64
14035,note_off,115,0,5,,,,,,,,3,,,,62,64
14040,note_on,80,0,15,,,,,,,,14,,,,38,75
14040,note_on,5,0,10,,,,,,,,8,,,,62,75
14040,note_on,80,0,9,,,,,,,,7,,,,38,75
14040,note_on,5,0,6,,,,,,,,4,,,,62,92
14040,note_on,160,0,8,,,,,,,,6,,,,50,75
14040,note_on,80,0,14,,,,,,,,13,,,,38,75
14040,note_on,5,0,5,,,,,,,,3,,,,62,92
14040,note_on,160,0,13,,,,,,,,12,,,,50,75
14120,note_off,80,0,13,,,,,,,,12,,,,50,64
14120,note_off,80,0,8,,,,,,,,6,,,,50,64
14275,note_off,235,0,15,,,,,,,,14,,,,38,64
14275,note_off,235,0,5,,,,,,,,3,,,,62,64
14275,note_off,235,0,6,,,,,,,,4,,,,62,64
14275,note_off,235,0,9,,,,,,,,7,,,,38,64
14275,note_off,235,0,10,,,,,,,,8,,,,62,64
14275,note_off,235,0,14,,,,,,,,13,,,,38,64
14640,note_on,365,0,10,,,,,,,,8,,,,74,75
14640,note_on,365,0,5,,,,,,,,3,,,,74,108
14720,note_off,80,0,10,,,,,,,,8,,,,74,64
14720,note_off,80,0,5,,,,,,,,3,,,,74,64
14760,note_on,40,0,5,,,,,,,,3,,,,72,108
14760,note_on,40,0,10,,,,,,,,8,,,,72,75
14840,note_off,80,0,5,,,,,,,,3,,,,72,64
14840,note_off,80,0,10,,,,,,,,8,,,,72,64
14880,note_on,40,0,10,,,,,,,,8,,,,70,75
14880,note_on,40,0,5,,,,,,,,3,,,,70,108
14960,note_off,80,0,10,,,,,,,,8,,,,70,64
14960,note_off,80,0,5,,,,,,,,3,,,,70,64
15000,note_on,40,0,5,,,,,,,,3,,,,69,108
15000,note_on,40,0,10,,,,,,,,8,,,,69,75
15080,note_off,80,0,5,,,,,,,,3,,,,69,64
15080,note_off,80,0,10,,,,,,,,8,,,,69,64
15120,note_on,40,0,5,,,,,,,,3,,,,67,108
15120,note_on,40,0,10,,,,,,,,8,,,,67,75
15200,note_off,80,0,5,,,,,,,,3,,,,67,64
15200,note_off,80,0,10,,,,,,,,8,,,,67,64
15240,note_on,40,0,10,,,,,,,,8,,,,66,75
15240,note_on,40,0,5,,,,,,,,3,,,,66,108
15320,note_off,80,0,5,,,,,,,,3,,,,66,64
15320,note_off,80,0,10,,,,,,,,8,,,,66,64
15360,note_on,40,0,10,,,,,,,,8,,,,64,75
15360,note_on,40,0,5,,,,,,,,3,,,,64,108
15440,note_off,80,0,10,,,,,,,,8,,,,64,64
15440,note_off,80,0,5,,,,,,,,3,,,,64,64
15480,note_on,40,0,5,,,,,,,,3,,,,62,108
15480,note_on,40,0,10,,,,,,,,8,,,,62,75
15560,note_off,80,0,5,,,,,,,,3,,,,62,64
15560,note_off,80,0,10,,,,,,,,8,,,,62,64
15600,note_on,40,0,5,,,,,,,,3,,,,60,108
15600,note_on,40,0,10,,,,,,,,8,,,,60,75
15680,note_off,80,0,5,,,,,,,,3,,,,60,64
15680,note_off,80,0,10,,,,,,,,8,,,,60,64
15720,note_on,40,0,5,,,,,,,,3,,,,58,108
15720,note_on,40,0,10,,,,,,,,8,,,,58,75
15800,note_off,80,0,5,,,,,,,,3,,,,58,64
15800,note_off,80,0,10,,,,,,,,8,,,,58,64
15840,note_on,40,0,10,,,,,,,,8,,,,57,75
15840,note_on,40,0,5,,,,,,,,3,,,,57,108
15920,note_off,80,0,10,,,,,,,,8,,,,57,64
15920,note_off,80,0,5,,,,,,,,3,,,,57,64
15960,note_on,1685,0,9,,,,,,,,7,,,,31,75
15960,note_on,1685,0,14,,,,,,,,13,,,,31,75
15960,note_on,1685,0,15,,,,,,,,14,,,,31,45
15960,note_on,1840,0,13,,,,,,,,12,,,,43,75
15960,note_on,40,0,5,,,,,,,,3,,,,55,108
15960,note_on,1840,0,8,,,,,,,,6,,,,43,92
15960,program_change,1685,0,6,,,,,,,,4,,,48,,
15960,note_on,40,0,10,,,,,,,,8,,,,55,75
16040,note_off,80,0,13,,,,,,,,12,,,,43,64
16040,note_off,80,0,9,,,,,,,,7,,,,31,64
16040,note_off,80,0,14,,,,,,,,13,,,,31,64
16040,note_off,80,0,8,,,,,,,,6,,,,43,64
16040,note_off,80,0,10,,,,,,,,8,,,,55,64
16040,note_off,80,0,5,,,,,,,,3,,,,55,64
16080,note_on,40,0,5,,,,,,,,3,,,,55,108
16080,note_on,120,0,6,,,,,,,,4,,,,74,108
16080,note_on,40,0,10,,,,,,,,8,,,,55,75
16080,note_on,16080,0,11,,,,,,,,10,,,,74,110
16160,note_off,80,0,10,,,,,,,,8,,,,55,64
16160,note_off,80,0,11,,,,,,,,10,,,,74,64
16160,note_off,80,0,5,,,,,,,,3,,,,55,64
16160,note_off,80,0,6,,,,,,,,4,,,,74,64
16200,note_on,160,0,14,,,,,,,,13,,,,31,75
16200,note_on,40,0,5,,,,,,,,3,,,,55,108
16200,note_on,40,0,11,,,,,,,,10,,,,72,110
16200,note_on,160,0,9,,,,,,,,7,,,,31,75
16200,note_on,40,0,6,,,,,,,,4,,,,72,108
16200,note_on,160,0,13,,,,,,,,12,,,,43,75
16200,note_on,160,0,8,,,,,,,,6,,,,43,92
16200,note_on,40,0,10,,,,,,,,8,,,,55,75
16280,note_off,80,0,10,,,,,,,,8,,,,55,64
16280,note_off,80,0,6,,,,,,,,4,,,,72,64
16280,note_off,80,0,5,,,,,,,,3,,,,55,64
16280,note_off,80,0,14,,,,,,,,13,,,,31,64
16280,note_off,80,0,8,,,,,,,,6,,,,43,64
16280,note_off,80,0,11,,,,,,,,10,,,,72,64
16280,note_off,80,0,9,,,,,,,,7,,,,31,64
16280,note_off,80,0,13,,,,,,,,12,,,,43,64
16320,note_on,40,0,11,,,,,,,,10,,,,70,110
16320,note_on,40,0,5,,,,,,,,3,,,,55,108
16320,note_on,40,0,10,,,,,,,,8,,,,55,75
16320,note_on,40,0,6,,,,,,,,4,,,,70,108
16360,note_off,400,0,15,,,,,,,,14,,,,31,64
16400,note_off,80,0,6,,,,,,,,4,,,,70,64
16400,note_off,80,0,11,,,,,,,,10,,,,70,64
16400,note_off,80,0,5,,,,,,,,3,,,,55,64
16400,note_off,80,0,10,,,,,,,,8,,,,55,64
16440,note_on,160,0,8,,,,,,,,6,,,,43,92
16440,note_on,80,0,15,,,,,,,,14,,,,31,45
16440,note_on,160,0,9,,,,,,,,7,,,,31,75
16440,note_on,40,0,10,,,,,,,,8,,,,55,75
16440,note_on,160,0,13,,,,,,,,12,,,,43,75
16440,note_on,40,0,6,,,,,,,,4,,,,69,108
16440,note_on,40,0,5,,,,,,,,3,,,,55,108
16440,note_on,40,0,11,,,,,,,,10,,,,69,110
16440,note_on,160,0,14,,,,,,,,13,,,,31,75
16520,note_off,80,0,6,,,,,,,,4,,,,69,64
16520,note_off,80,0,8,,,,,,,,6,,,,43,64
16520,note_off,80,0,10,,,,,,,,8,,,,55,64
16520,note_off,80,0,9,,,,,,,,7,,,,31,64
16520,note_off,80,0,14,,,,,,,,13,,,,31,64
16520,note_off,80,0,5,,,,,,,,3,,,,55,64
16520,note_off,80,0,11,,,,,,,,10,,,,69,64
16520,note_off,80,0,13,,,,,,,,12,,,,43,64
16560,note_on,40,0,11,,,,,,,,10,,,,67,110
16560,note_on,40,0,5,,,,,,,,3,,,,55,108
16560,note_on,40,0,6,,,,,,,,4,,,,67,108
16560,note_on,40,0,10,,,,,,,,8,,,,55,75
16640,note_off,80,0,10,,,,,,,,8,,,,55,64
16640,note_off,80,0,11,,,,,,,,10,,,,67,64
16640,note_off,80,0,5,,,,,,,,3,,,,55,64
16640,note_off,80,0,6,,,,,,,,4,,,,67,64
16680,note_on,160,0,9,,,,,,,,7,,,,31,75
16680,note_on,40,0,11,,,,,,,,10,,,,66,110
16680,note_on,160,0,8,,,,,,,,6,,,,43,92
16680,note_on,160,0,14,,,,,,,,13,,,,31,75
16680,note_on,40,0,10,,,,,,,,8,,,,55,75
16680,note_on,40,0,5,,,,,,,,3,,,,55,108
16680,note_on,160,0,13,,,,,,,,12,,,,43,75
16680,note_on,40,0,6,,,,,,,,4,,,,66,108
16760,note_off,80,0,13,,,,,,,,12,,,,43,64
16760,note_off,80,0,5,,,,,,,,3,,,,55,64
16760,note_off,80,0,11,,,,,,,,10,,,,66,64
16760,note_off,80,0,6,,,,,,,,4,,,,66,64
16760,note_off,80,0,8,,,,,,,,6,,,,43,64
16760,note_off,80,0,9,,,,,,,,7,,,,31,64
16760,note_off,80,0,14,,,,,,,,13,,,,31,64
16760,note_off,80,0,10,,,,,,,,8,,,,55,64
16800,note_on,40,0,6,,,,,,,,4,,,,64,108
16800,note_on,40,0,5,,,,,,,,3,,,,55,108
16800,note_on,40,0,10,,,,,,,,8,,,,55,75
16800,note_on,40,0,11,,,,,,,,10,,,,64,110
16840,note_off,400,0,15,,,,,,,,14,,,,31,64
16880,note_off,80,0,11,,,,,,,,10,,,,64,64
16880,note_off,80,0,5,,,,,,,,3,,,,55,64
16880,note_off,80,0,6,,,,,,,,4,,,,64,64
16880,note_off,80,0,10,,,,,,,,8,,,,55,64
16920,note_on,40,0,10,,,,,,,,8,,,,55,75
16920,note_on,160,0,9,,,,,,,,7,,,,31,75
16920,note_on,160,0,8,,,,,,,,6,,,,43,92
16920,note_on,160,0,14,,,,,,,,13,,,,31,75
16920,note_on,40,0,6,,,,,,,,4,,,,62,108
16920,note_on,40,0,11,,,,,,,,10,,,,62,110
16920,note_on,40,0,5,,,,,,,,3,,,,55,108
16920,note_on,80,0,15,,,,,,,,14,,,,31,45
16920,note_on,160,0,13,,,,,,,,12,,,,43,75
17000,note_off,80,0,5,,,,,,,,3,,,,55,64
17000,note_off,80,0,9,,,,,,,,7,,,,31,64
17000,note_off,80,0,8,,,,,,,,6,,,,43,64
17000,note_off,80,0,6,,,,,,,,4,,,,62,64
17000,note_off,80,0,13,,,,,,,,12,,,,43,64
17000,note_off,80,0,11,,,,,,,,10,,,,62,64
17000,note_off,80,0,14,,,,,,,,13,,,,31,64
17000,note_off,80,0,10,,,,,,,,8,,,,55,64
17040,note_on,40,0,6,,,,,,,,4,,,,60,108
17040,note_on,40,0,11,,,,,,,,10,,,,60,110
17040,note_on,40,0,10,,,,,,,,8,,,,55,75
17040,note_on,40,0,5,,,,,,,,3,,,,55,108
17120,note_off,80,0,6,,,,,,,,4,,,,60,64
17120,note_off,80,0,10,,,,,,,,8,,,,55,64
17120,note_off,80,0,5,,,,,,,,3,,,,55,64
17120,note_off,80,0,11,,,,,,,,10,,,,60,64
17160,note_on,160,0,9,,,,,,,,7,,,,31,75
17160,note_on,40,0,6,,,,,,,,4,,,,58,108
17160,note_on,160,0,13,,,,,,,,12,,,,43,75
17160,note_on,40,0,10,,,,,,,,8,,,,55,75
17160,note_on,160,0,14,,,,,,,,13,,,,31,75
17160,note_on,40,0,11,,,,,,,,10,,,,58,110
17160,note_on,160,0,8,,,,,,,,6,,,,43,92
17160,note_on,40,0,5,,,,,,,,3,,,,55,108
17240,note_off,80,0,8,,,,,,,,6,,,,43,64
17240,note_off,80,0,14,,,,,,,,13,,,,31,64
17240,note_off,80,0,9,,,,,,,,7,,,,31,64
17240,note_off,80,0,5,,,,,,,,3,,,,55,64
17240,note_off,80,0,13,,,,,,,,12,,,,43,64
17240,note_off,80,0,11,,,,,,,,10,,,,58,64
17240,note_off,80,0,6,,,,,,,,4,,,,58,64
17240,note_off,80,0,10,,,,,,,,8,,,,55,64
17280,note_on,40,0,5,,,,,,,,3,,,,55,108
17280,note_on,40,0,10,,,,,,,,8,,,,55,75
17280,note_on,40,0,11,,,,,,,,10,,,,57,110
17280,note_on,40,0,6,,,,,,,,4,,,,57,108
17320,note_off,400,0,15,,,,,,,,14,,,,31,64
17360,note_off,80,0,6,,,,,,,,4,,,,57,64
17360,note_off,80,0,10,,,,,,,,8,,,,55,64
17360,note_off,80,0,11,,,,,,,,10,,,,57,64
17360,note_off,80,0,5,,,,,,,,3,,,,55,64
17400,note_on,160,0,13,,,,,,,,12,,,,43,75
17400,note_on,160,0,8,,,,,,,,6,,,,43,92
17400,note_on,40,0,5,,,,,,,,3,,,,55,108
17400,note_on,40,0,10,,,,,,,,8,,,,55,75
17400,note_on,40,0,6,,,,,,,,4,,,,55,108
17400,note_on,80,0,15,,,,,,,,14,,,,31,45
17400,note_on,40,0,11,,,,,,,,10,,,,55,110
17400,note_on,160,0,9,,,,,,,,7,,,,31,75
17400,note_on,160,0,14,,,,,,,,13,,,,31,75
17480,note_off,80,0,11,,,,,,,,10,,,,55,64
17480,note_off,80,0,8,,,,,,,,6,,,,43,64
17480,note_off,80,0,10,,,,,,,,8,,,,55,64
17480,note_off,80,0,9,,,,,,,,7,,,,31,64
17480,note_off,80,0,14,,,,,,,,13,,,,31,64
17480,note_off,80,0,5,,,,,,,,3,,,,55,64
17480,note_off,80,0,6,,,,,,,,4,,,,55,64
17480,note_off,80,0,13,,,,,,,,12,,,,43,64
17520,note_on,40,0,6,,,,,,,,4,,,,55,108
17520,note_on,40,0,10,,,,,,,,8,,,,79,75
17520,note_on,40,0,11,,,,,,,,10,,,,55,110
17520,note_on,40,0,5,,,,,,,,3,,,,79,108
17600,note_off,80,0,6,,,,,,,,4,,,,55,64
17600,note_off,80,0,5,,,,,,,,3,,,,79,64
17600,note_off,80,0,10,,,,,,,,8,,,,79,64
17600,note_off,80,0,11,,,,,,,,10,,,,55,64
17640,note_on,160,0,9,,,,,,,,7,,,,31,75
17640,note_on,40,0,6,,,,,,,,4,,,,55,108
17640,note_on,40,0,10,,,,,,,,8,,,,77,75
17640,note_on,40,0,11,,,,,,,,10,,,,55,110
17640,note_on,160,0,14,,,,,,,,13,,,,31,75
17640,note_on,40,0,5,,,,,,,,3,,,,77,108
17640,note_on,160,0,13,,,,,,,,12,,,,43,75
17640,note_on,160,0,8,,,,,,,,6,,,,43,92
17720,note_off,80,0,11,,,,,,,,10,,,,55,64
17720,note_off,80,0,9,,,,,,,,7,,,,31,64
17720,note_off,80,0,14,,,,,,,,13,,,,31,64
17720,note_off,80,0,6,,,,,,,,4,,,,55,64
17720,note_off,80,0,13,,,,,,,,12,,,,43,64
17720,note_off,80,0,10,,,,,,,,8,,,,77,64
17720,note_off,80,0,5,,,,,,,,3,,,,77,64
17720,note_off,80,0,8,,,,,,,,6,,,,43,64
17760,note_on,40,0,10,,,,,,,,8,,,,75,75
17760,note_on,40,0,6,,,,,,,,4,,,,55,108
17760,note_on,40,0,5,,,,,,,,3,,,,75,108
17760,note_on,40,0,11,,,,,,,,10,,,,55,110
17800,note_off,400,0,15,,,,,,,,14,,,,31,64
17840,note_off,80,0,6,,,,,,,,4,,,,55,64
17840,note_off,80,0,10,,,,,,,,8,,,,75,64
17840,note_off,80,0,5,,,,,,,,3,,,,75,64
17840,note_off,80,0,11,,,,,,,,10,,,,55,64
17880,note_on,40,0,11,,,,,,,,10,,,,55,110
17880,note_on,160,0,13,,,,,,,,12,,,,43,75
17880,note_on,40,0,6,,,,,,,,4,,,,55,108
17880,note_on,160,0,9,,,,,,,,7,,,,31,75
17880,note_on,80,0,15,,,,,,,,14,,,,31,45
17880,note_on,40,0,5,,,,,,,,3,,,,74,108
17880,note_on,160,0,14,,,,,,,,13,,,,31,75
17880,note_on,40,0,10,,,,,,,,8,,,,74,75
17880,note_on,160,0,8,,,,,,,,6,,,,43,92
17960,note_off,80,0,8,,,,,,,,6,,,,43,64
17960,note_off,80,0,14,,,,,,,,13,,,,31,64
17960,note_off,80,0,10,,,,,,,,8,,,,74,64
17960,note_off,80,0,5,,,,,,,,3,,,,74,64
17960,note_off,80,0,6,,,,,,,,4,,,,55,64
17960,note_off,80,0,9,,,,,,,,7,,,,31,64
17960,note_off,80,0,11,,,,,,,,10,,,,55,64
17960,note_off,80,0,13,,,,,,,,12,,,,43,64
18000,note_on,40,0,5,,,,,,,,3,,,,72,108
18000,note_on,40,0,6,,,,,,,,4,,,,55,108
18000,note_on,40,0,10,,,,,,,,8,,,,72,75
18000,note_on,40,0,11,,,,,,,,10,,,,55,110
18080,note_off,80,0,11,,,,,,,,10,,,,55,64
18080,note_off,80,0,6,,,,,,,,4,,,,55,64
18080,note_off,80,0,10,,,,,,,,8,,,,72,64
18080,note_off,80,0,5,,,,,,,,3,,,,72,64
18120,note_on,160,0,14,,,,,,,,13,,,,31,75
18120,note_on,40,0,6,,,,,,,,4,,,,55,108
18120,note_on,40,0,10,,,,,,,,8,,,,70,75
18120,note_on,160,0,13,,,,,,,,12,,,,43,75
18120,note_on,160,0,9,,,,,,,,7,,,,31,75
18120,note_on,40,0,11,,,,,,,,10,,,,55,110
18120,note_on,160,0,8,,,,,,,,6,,,,43,92
18120,note_on,40,0,5,,,,,,,,3,,,,70,108
18200,note_off,80,0,11,,,,,,,,10,,,,55,64
18200,note_off,80,0,10,,,,,,,,8,,,,70,64
18200,note_off,80,0,14,,,,,,,,13,,,,31,64
18200,note_off,80,0,9,,,,,,,,7,,,,31,64
18200,note_off,80,0,5,,,,,,,,3,,,,70,64
18200,note_off,80,0,6,,,,,,,,4,,,,55,64
18200,note_off,80,0,13,,,,,,,,12,,,,43,64
18200,note_off,80,0,8,,,,,,,,6,,,,43,64
18240,note_on,40,0,11,,,,,,,,10,,,,55,110
18240,note_on,40,0,6,,,,,,,,4,,,,55,108
18240,note_on,40,0,5,,,,,,,,3,,,,69,108
18240,note_on,40,0,10,,,,,,,,8,,,,69,75
18280,note_off,400,0,15,,,,,,,,14,,,,31,64
18320,note_off,80,0,10,,,,,,,,8,,,,69,64
18320,note_off,80,0,11,,,,,,,,10,,,,55,64
18320,note_off,80,0,6,,,,,,,,4,,,,55,64
18320,note_off,80,0,5,,,,,,,,3,,,,69,64
18360,note_on,160,0,8,,,,,,,,6,,,,43,92
18360,note_on,40,0,10,,,,,,,,8,,,,67,75
18360,note_on,40,0,11,,,,,,,,10,,,,55,110
18360,note_on,160,0,13,,,,,,,,12,,,,43,75
18360,note_on,80,0,15,,,,,,,,14,,,,31,45
18360,note_on,160,0,14,,,,,,,,13,,,,31,75
18360,note_on,40,0,5,,,,,,,,3,,,,67,108
18360,note_on,160,0,9,,,,,,,,7,,,,31,75
18360,note_on,40,0,6,,,,,,,,4,,,,55,108
18440,note_off,80,0,14,,,,,,,,13,,,,31,64
18440,note_off,80,0,13,,,,,,,,12,,,,43,64
18440,note_off,80,0,6,,,,,,,,4,,,,55,64
18440,note_off,80,0,11,,,,,,,,10,,,,55,64
18440,note_off,80,0,8,,,,,,,,6,,,,43,64
18440,note_off,80,0,10,,,,,,,,8,,,,67,64
18440,note_off,80,0,9,,,,,,,,7,,,,31,64
18440,note_off,80,0,5,,,,,,,,3,,,,67,64
18480,note_on,40,0,5,,,,,,,,3,,,,65,108
18480,note_on,40,0,11,,,,,,,,10,,,,55,110
18480,note_on,40,0,6,,,,,,,,4,,,,55,108
18480,note_on,40,0,10,,,,,,,,8,,,,65,75
18560,note_off,80,0,11,,,,,,,,10,,,,55,64
18560,note_off,80,0,5,,,,,,,,3,,,,65,64
18560,note_off,80,0,6,,,,,,,,4,,,,55,64
18560,note_off,80,0,10,,,,,,,,8,,,,65,64
18600,note_on,40,0,6,,,,,,,,4,,,,55,108
18600,note_on,40,0,5,,,,,,,,3,,,,63,108
18600,note_on,160,0,8,,,,,,,,6,,,,43,92
18600,note_on,40,0,11,,,,,,,,10,,,,55,110
18600,note_on,40,0,10,,,,,,,,8,,,,63,75
18600,note_on,160,0,14,,,,,,,,13,,,,31,75
18600,note_on,160,0,13,,,,,,,,12,,,,43,75
18600,note_on,160,0,9,,,,,,,,7,,,,31,75
18680,note_off,80,0,6,,,,,,,,4,,,,55,64
18680,note_off,80,0,14,,,,,,,,13,,,,31,64
18680,note_off,80,0,11,,,,,,,,10,,,,55,64
18680,note_off,80,0,10,,,,,,,,8,,,,63,64
18680,note_off,80,0,13,,,,,,,,12,,,,43,64
18680,note_off,80,0,8,,,,,,,,6,,,,43,64
18680,note_off,80,0,5,,,,,,,,3,,,,63,64
18680,note_off,80,0,9,,,,,,,,7,,,,31,64
18720,note_on,40,0,11,,,,,,,,10,,,,55,110
18720,note_on,40,0,5,,,,,,,,3,,,,62,108
18720,note_on,40,0,6,,,,,,,,4,,,,55,108
18720,note_on,40,0,10,,,,,,,,8,,,,62,75
18760,note_off,400,0,15,,,,,,,,14,,,,31,64
18800,note_off,80,0,10,,,,,,,,8,,,,62,64
18800,note_off,80,0,11,,,,,,,,10,,,,55,64
18800,note_off,80,0,5,,,,,,,,3,,,,62,64
18800,note_off,80,0,6,,,,,,,,4,,,,55,64
18840,note_on,40,0,6,,,,,,,,4,,,,55,108
18840,note_on,160,0,13,,,,,,,,12,,,,48,75
18840,note_on,40,0,11,,,,,,,,10,,,,55,110
18840,note_on,40,0,5,,,,,,,,3,,,,60,108
18840,note_on,40,0,10,,,,,,,,8,,,,60,75
18840,note_on,160,0,14,,,,,,,,13,,,,36,75
18840,note_on,18840,0,7,,,,,,,,5,,,,48,92
18840,note_on,80,0,15,,,,,,,,14,,,,36,45
18840,note_on,160,0,8,,,,,,,,6,,,,48,92
18840,note_on,160,0,9,,,,,,,,7,,,,36,75
18840,note_on,18840,0,12,,,,,,,,11,,,,48,75
18920,note_off,80,0,8,,,,,,,,6,,,,48,64
18920,note_off,80,0,5,,,,,,,,3,,,,60,64
18920,note_off,80,0,10,,,,,,,,8,,,,60,64
18920,note_off,80,0,7,,,,,,,,5,,,,48,64
18920,note_off,80,0,12,,,,,,,,11,,,,48,64
18920,note_off,80,0,14,,,,,,,,13,,,,36,64
18920,note_off,80,0,6,,,,,,,,4,,,,55,64
18920,note_off,80,0,9,,,,,,,,7,,,,36,64
18920,note_off,80,0,13,,,,,,,,12,,,,48,64
18920,note_off,80,0,11,,,,,,,,10,,,,55,64
18960,note_on,40,0,12,,,,,,,,11,,,,48,75
18960,note_on,40,0,6,,,,,,,,4,,,,79,108
18960,note_on,40,0,10,,,,,,,,8,,,,60,75
18960,note_on,40,0,7,,,,,,,,5,,,,48,92
18960,note_on,40,0,11,,,,,,,,10,,,,79,110
18960,note_on,40,0,5,,,,,,,,3,,,,60,108
19040,note_off,80,0,10,,,,,,,,8,,,,60,64
19040,note_off,80,0,11,,,,,,,,10,,,,79,64
19040,note_off,80,0,12,,,,,,,,11,,,,48,64
19040,note_off,80,0,5,,,,,,,,3,,,,60,64
19040,note_off,80,0,6,,,,,,,,4,,,,79,64
19040,note_off,80,0,7,,,,,,,,5,,,,48,64
19080,note_on,40,0,5,,,,,,,,3,,,,60,108
19080,note_on,160,0,9,,,,,,,,7,,,,36,75
19080,note_on,40,0,12,,,,,,,,11,,,,48,75
19080,note_on,40,0,11,,,,,,,,10,,,,77,110
19080,note_on,40,0,10,,,,,,,,8,,,,60,75
19080,note_on,40,0,6,,,,,,,,4,,,,77,108
19080,note_on,160,0,14,,,,,,,,13,,,,36,75
19080,note_on,160,0,8,,,,,,,,6,,,,48,92
19080,note_on,40,0,7,,,,,,,,5,,,,48,92
19080,note_on,160,0,13,,,,,,,,12,,,,48,75
19160,note_off,80,0,11,,,,,,,,10,,,,77,64
19160,note_off,80,0,9,,,,,,,,7,,,,36,64
19160,note_off,80,0,14,,,,,,,,13,,,,36,64
19160,note_off,80,0,12,,,,,,,,11,,,,48,64
19160,note_off,80,0,6,,,,,,,,4,,,,77,64
19160,note_off,80,0,7,,,,,,,,5,,,,48,64
19160,note_off,80,0,8,,,,,,,,6,,,,48,64
19160,note_off,80,0,10,,,,,,,,8,,,,60,64
19160,note_off,80,0,5,,,,,,,,3,,,,60,64
19160,note_off,80,0,13,,,,,,,,12,,,,48,64
19200,note_on,40,0,10,,,,,,,,8,,,,60,75
19200,note_on,40,0,7,,,,,,,,5,,,,48,92
19200,note_on,40,0,6,,,,,,,,4,,,,75,108
19200,note_on,40,0,5,,,,,,,,3,,,,60,108
19200,note_on,40,0,11,,,,,,,,10,,,,75,110
19200,note_on,40,0,12,,,,,,,,11,,,,48,75
19240,note_off,400,0,15,,,,,,,,14,,,,36,64
19280,note_off,80,0,10,,,,,,,,8,,,,60,64
19280,note_off,80,0,7,,,,,,,,5,,,,48,64
19280,note_off,80,0,11,,,,,,,,10,,,,75,64
19280,note_off,80,0,5,,,,,,,,3,,,,60,64
19280,note_off,80,0,6,,,,,,,,4,,,,75,64
19280,note_off,80,0,12,,,,,,,,11,,,,48,64
19320,note_on,40,0,11,,,,,,,,10,,,,74,110
19320,note_on,40,0,10,,,,,,,,8,,,,60,75
19320,note_on,160,0,8,,,,,,,,6,,,,48,92
19320,note_on,40,0,12,,,,,,,,11,,,,48,75
19320,note_on,160,0,13,,,,,,,,12,,,,48,75
19320,note_on,160,0,14,,,,,,,,13,,,,36,75
19320,note_on,40,0,7,,,,,,,,5,,,,48,92
19320,note_on,40,0,5,,,,,,,,3,,,,60,108
19320,note_on,80,0,15,,,,,,,,14,,,,36,45
19320,note_on,160,0,9,,,,,,,,7,,,,36,75
19320,note_on,40,0,6,,,,,,,,4,,,,74,108
19400,note_off,80,0,7,,,,,,,,5,,,,48,64
19400,note_off,80,0,8,,,,,,,,6,,,,48,64
19400,note_off,80,0,13,,,,,,,,12,,,,48,64
19400,note_off,80,0,10,,,,,,,,8,,,,60,64
19400,note_off,80,0,14,,,,,,,,13,,,,36,64
19400,note_off,80,0,5,,,,,,,,3,,,,60,64
19400,note_off,80,0,11,,,,,,,,10,,,,74,64
19400,note_off,80,0,12,,,,,,,,11,,,,48,64
19400,note_off,80,0,6,,,,,,,,4,,,,74,64
19400,note_off,80,0,9,,,,,,,,7,,,,36,64
19440,note_on,40,0,5,,,,,,,,3,,,,60,108
19440,note_on,40,0,11,,,,,,,,10,,,,72,110
19440,note_on,40,0,12,,,,,,,,11,,,,48,75
19440,note_on,40,0,6,,,,,,,,4,,,,72,108
19440,note_on,40,0,10,,,,,,,,8,,,,60,75
19440,note_on,40,0,7,,,,,,,,5,,,,48,92
19520,note_off,80,0,7,,,,,,,,5,,,,48,64
19520,note_off,80,0,5,,,,,,,,3,,,,60,64
19520,note_off,80,0,6,,,,,,,,4,,,,72,64
19520,note_off,80,0,12,,,,,,,,11,,,,48,64
19520,note_off,80,0,10,,,,,,,,8,,,,60,64
19520,note_off,80,0,11,,,,,,,,10,,,,72,64
19560,note_on,40,0,12,,,,,,,,11,,,,48,75
19560,note_on,40,0,6,,,,,,,,4,,,,70,108
19560,note_on,160,0,9,,,,,,,,7,,,,36,75
19560,note_on,160,0,13,,,,,,,,12,,,,48,75
19560,note_on,40,0,11,,,,,,,,10,,,,70,110
19560,note_on,160,0,8,,,,,,,,6,,,,48,92
19560,note_on,40,0,5,,,,,,,,3,,,,60,108
19560,note_on,40,0,7,,,,,,,,5,,,,48,92
19560,note_on,160,0,14,,,,,,,,13,,,,36,75
19560,note_on,40,0,10,,,,,,,,8,,,,60,75
19640,note_off,80,0,14,,,,,,,,13,,,,36,64
19640,note_off,80,0,11,,,,,,,,10,,,,70,64
19640,note_off,80,0,6,,,,,,,,4,,,,70,64
19640,note_off,80,0,7,,,,,,,,5,,,,48,64
19640,note_off,80,0,9,,,,,,,,7,,,,36,64
19640,note_off,80,0,12,,,,,,,,11,,,,48,64
19640,note_off,80,0,13,,,,,,,,12,,,,48,64
19640,note_off,80,0,5,,,,,,,,3,,,,60,64
19640,note_off,80,0,10,,,,,,,,8,,,,60,64
19640,note_off,80,0,8,,,,,,,,6,,,,48,64
19680,note_on,40,0,5,,,,,,,,3,,,,60,108
19680,note_on,40,0,10,,,,,,,,8,,,,60,75
19680,note_on,40,0,7,,,,,,,,5,,,,48,92
19680,note_on,40,0,6,,,,,,,,4,,,,69,108
19680,note_on,40,0,11,,,,,,,,10,,,,69,110
19680,note_on,40,0,12,,,,,,,,11,,,,48,75
19720,note_off,400,0,15,,,,,,,,14,,,,36,64
19760,note_off,80,0,5,,,,,,,,3,,,,60,64
19760,note_off,80,0,12,,,,,,,,11,,,,48,64
19760,note_off,80,0,11,,,,,,,,10,,,,69,64
19760,note_off,80,0,7,,,,,,,,5,,,,48,64
19760,note_off,80,0,10,,,,,,,,8,,,,60,64
19760,note_off,80,0,6,,,,,,,,4,,,,69,64
19800,note_on,40,0,12,,,,,,,,11,,,,48,75
19800,note_on,40,0,11,,,,,,,,10,,,,67,110
19800,note_on,160,0,13,,,,,,,,12,,,,48,75
19800,note_on,160,0,8,,,,,,,,6,,,,48,92
19800,note_on,160,0,9,,,,,,,,7,,,,36,75
19800,note_on,80,0,15,,,,,,,,14,,,,36,45
19800,note_on,40,0,7,,,,,,,,5,,,,48,92
19800,note_on,40,0,5,,,,,,,,3,,,,60,108
19800,note_on,40,0,10,,,,,,,,8,,,,60,75
19800,note_on,160,0,14,,,,,,,,13,,,,36,75
19800,note_on,40,0,6,,,,,,,,4,,,,67,108
19880,note_off,80,0,8,,,,,,,,6,,,,48,64
19880,note_off,80,0,11,,,,,,,,10,,,,67,64
19880,note_off,80,0,9,,,,,,,,7,,,,36,64
19880,note_off,80,0,10,,,,,,,,8,,,,60,64
19880,note_off,80,0,13,,,,,,,,12,,,,48,64
19880,note_off,80,0,14,,,,,,,,13,,,,36,64
19880,note_off,80,0,6,,,,,,,,4,,,,67,64
19880,note_off,80,0,7,,,,,,,,5,,,,48,64
19880,note_off,80,0,5,,,,,,,,3,,,,60,64
19880,note_off,80,0,12,,,,,,,,11,,,,48,64
19920,note_on,40,0,11,,,,,,,,10,,,,65,110
19920,note_on,40,0,10,,,,,,,,8,,,,60,75
19920,note_on,40,0,7,,,,,,,,5,,,,48,92
19920,note_on,40,0,12,,,,,,,,11,,,,48,75
19920,note_on,40,0,5,,,,,,,,3,,,,60,108
19920,note_on,40,0,6,,,,,,,,4,,,,65,108
20000,note_off,80,0,10,,,,,,,,8,,,,60,64
20000,note_off,80,0,5,,,,,,,,3,,,,60,64
20000,note_off,80,0,6,,,,,,,,4,,,,65,64
20000,note_off,80,0,7,,,,,,,,5,,,,48,64
20000,note_off,80,0,11,,,,,,,,10,,,,65,64
20000,note_off,80,0,12,,,,,,,,11,,,,48,64
20040,note_on,40,0,7,,,,,,,,5,,,,48,92
20040,note_on,160,0,14,,,,,,,,13,,,,36,75
20040,note_on,40,0,10,,,,,,,,8,,,,60,75
20040,note_on,40,0,5,,,,,,,,3,,,,60,108
20040,note_on,160,0,9,,,,,,,,7,,,,36,75
20040,note_on,40,0,11,,,,,,,,10,,,,63,110
20040,note_on,40,0,12,,,,,,,,11,,,,48,75
20040,note_on,40,0,6,,,,,,,,4,,,,63,108
20040,note_on,160,0,13,,,,,,,,12,,,,48,75
20040,note_on,160,0,8,,,,,,,,6,,,,48,92
20120,note_off,80,0,12,,,,,,,,11,,,,48,64
20120,note_off,80,0,6,,,,,,,,4,,,,63,64
20120,note_off,80,0,5,,,,,,,,3,,,,60,64
20120,note_off,80,0,13,,,,,,,,12,,,,48,64
20120,note_off,80,0,11,,,,,,,,10,,,,63,64
20120,note_off,80,0,14,,,,,,,,13,,,,36,64
20120,note_off,80,0,8,,,,,,,,6,,,,48,64
20120,note_off,80,0,10,,,,,,,,8,,,,60,64
20120,note_off,80,0,7,,,,,,,,5,,,,48,64
20120,note_off,80,0,9,,,,,,,,7,,,,36,64
20160,note_on,40,0,12,,,,,,,,11,,,,48,75
20160,note_on,40,0,5,,,,,,,,3,,,,60,108
20160,note_on,40,0,10,,,,,,,,8,,,,60,75
20160,note_on,40,0,6,,,,,,,,4,,,,62,108
20160,note_on,40,0,11,,,,,,,,10,,,,62,110
20160,note_on,40,0,7,,,,,,,,5,,,,48,92
20200,note_off,400,0,15,,,,,,,,14,,,,36,64
20240,note_off,80,0,7,,,,,,,,5,,,,48,64
20240,note_off,80,0,12,,,,,,,,11,,,,48,64
20240,note_off,80,0,10,,,,,,,,8,,,,60,64
20240,note_off,80,0,5,,,,,,,,3,,,,60,64
20240,note_off,80,0,6,,,,,,,,4,,,,62,64
20240,note_off,80,0,11,,,,,,,,10,,,,62,64
20280,note_on,40,0,12,,,,,,,,11,,,,48,75
20280,note_on,80,0,15,,,,,,,,14,,,,36,45
20280,note_on,40,0,5,,,,,,,,3,,,,60,108
20280,note_on,160,0,14,,,,,,,,13,,,,36,75
20280,note_on,40,0,6,,,,,,,,4,,,,60,108
20280,note_on,160,0,8,,,,,,,,6,,,,48,92
20280,note_on,40,0,10,,,,,,,,8,,,,60,75
20280,note_on,160,0,9,,,,,,,,7,,,,36,75
20280,note_on,40,0,11,,,,,,,,10,,,,60,110
20280,note_on,160,0,13,,,,,,,,12,,,,48,75
20280,note_on,40,0,7,,,,,,,,5,,,,48,92
20360,note_off,80,0,6,,,,,,,,4,,,,60,64
20360,note_off,80,0,12,,,,,,,,11,,,,48,64
20360,note_off,80,0,10,,,,,,,,8,,,,60,64
20360,note_off,80,0,7,,,,,,,,5,,,,48,64
20360,note_off,80,0,9,,,,,,,,7,,,,36,64
20360,note_off,80,0,8,,,,,,,,6,,,,48,64
20360,note_off,80,0,14,,,,,,,,13,,,,36,64
20360,note_off,80,0,5,,,,,,,,3,,,,60,64
20360,note_off,80,0,11,,,,,,,,10,,,,60,64
20360,note_off,80,0,13,,,,,,,,12,,,,48,64
20400,note_on,40,0,7,,,,,,,,5,,,,48,92
20400,note_on,40,0,10,,,,,,,,8,,,,82,75
20400,note_on,40,0,5,,,,,,,,3,,,,82,108
20400,note_on,40,0,12,,,,,,,,11,,,,48,75
20400,note_on,40,0,6,,,,,,,,4,,,,60,108
20400,note_on,40,0,11,,,,,,,,10,,,,60,110
20480,note_off,80,0,10,,,,,,,,8,,,,82,64
20480,note_off,80,0,5,,,,,,,,3,,,,82,64
20480,note_off,80,0,12,,,,,,,,11,,,,48,64
20480,note_off,80,0,11,,,,,,,,10,,,,60,64
20480,note_off,80,0,6,,,,,,,,4,,,,60,64
20480,note_off,80,0,7,,,,,,,,5,,,,48,64
20520,note_on,40,0,5,,,,,,,,3,,,,81,108
20520,note_on,160,0,13,,,,,,,,12,,,,48,75
20520,note_on,40,0,7,,,,,,,,5,,,,48,92
20520,note_on,40,0,10,,,,,,,,8,,,,81,75
20520,note_on,160,0,9,,,,,,,,7,,,,36,75
20520,note_on,160,0,8,,,,,,,,6,,,,48,92
20520,note_on,40,0,12,,,,,,,,11,,,,48,75
20520,note_on,40,0,11,,,,,,,,10,,,,60,110
20520,note_on,160,0,14,,,,,,,,13,,,,36,75
20520,note_on,40,0,6,,,,,,,,4,,,,60,108
20600,note_off,80,0,5,,,,,,,,3,,,,81,64
20600,note_off,80,0,14,,,,,,,,13,,,,36,64
20600,note_off,80,0,10,,,,,,,,8,,,,81,64
20600,note_off,80,0,7,,,,,,,,5,,,,48,64
20600,note_off,80,0,6,,,,,,,,4,,,,60,64
20600,note_off,80,0,8,,,,,,,,6,,,,48,64
20600,note_off,80,0,9,,,,,,,,7,,,,36,64
20600,note_off,80,0,13,,,,,,,,12,,,,48,64
20600,note_off,80,0,11,,,,,,,,10,,,,60,64
20600,note_off,80,0,12,,,,,,,,11,,,,48,64
20640,note_on,40,0,12,,,,,,,,11,,,,48,75
20640,note_on,40,0,11,,,,,,,,10,,,,60,110
20640,note_on,40,0,10,,,,,,,,8,,,,79,75
20640,note_on,40,0,7,,,,,,,,5,,,,48,92
20640,note_on,40,0,6,,,,,,,,4,,,,60,108
20640,note_on,40,0,5,,,,,,,,3,,,,79,108
20680,note_off,400,0,15,,,,,,,,14,,,,36,64
20720,note_off,80,0,11,,,,,,,,10,,,,60,64
20720,note_off,80,0,7,,,,,,,,5,,,,48,64
20720,note_off,80,0,5,,,,,,,,3,,,,79,64
20720,note_off,80,0,10,,,,,,,,8,,,,79,64
20720,note_off,80,0,6,,,,,,,,4,,,,60,64
20720,note_off,80,0,12,,,,,,,,11,,,,48,64
20760,note_on,40,0,11,,,,,,,,10,,,,60,110
20760,note_on,160,0,9,,,,,,,,7,,,,36,75
20760,note_on,160,0,13,,,,,,,,12,,,,48,75
20760,note_on,80,0,15,,,,,,,,14,,,,36,45
20760,note_on,40,0,7,,,,,,,,5,,,,48,92
20760,note_on,40,0,12,,,,,,,,11,,,,48,75
20760,note_on,160,0,14,,,,,,,,13,,,,36,75
20760,note_on,40,0,5,,,,,,,,3,,,,77,108
20760,note_on,40,0,6,,,,,,,,4,,,,60,108
20760,note_on,160,0,8,,,,,,,,6,,,,48,92
20760,note_on,40,0,10,,,,,,,,8,,,,77,75
20840,note_off,80,0,13,,,,,,,,12,,,,48,64
20840,note_off,80,0,9,,,,,,,,7,,,,36,64
20840,note_off,80,0,8,,,,,,,,6,,,,48,64
20840,note_off,80,0,14,,,,,,,,13,,,,36,64
20840,note_off,80,0,7,,,,,,,,5,,,,48,64
20840,note_off,80,0,6,,,,,,,,4,,,,60,64
20840,note_off,80,0,10,,,,,,,,8,,,,77,64
20840,note_off,80,0,12,,,,,,,,11,,,,48,64
20840,note_off,80,0,11,,,,,,,,10,,,,60,64
20840,note_off,80,0,5,,,,,,,,3,,,,77,64
20880,note_on,40,0,10,,,,,,,,8,,,,75,75
20880,note_on,40,0,7,,,,,,,,5,,,,48,92
20880,note_on,40,0,11,,,,,,,,10,,,,60,110
20880,note_on,40,0,12,,,,,,,,11,,,,48,75
20880,note_on,40,0,6,,,,,,,,4,,,,60,108
20880,note_on,40,0,5,,,,,,,,3,,,,75,108
20960,note_off,80,0,12,,,,,,,,11,,,,48,64
20960,note_off,80,0,5,,,,,,,,3,,,,75,64
20960,note_off,80,0,10,,,,,,,,8,,,,75,64
20960,note_off,80,0,6,,,,,,,,4,,,,60,64
20960,note_off,80,0,11,,,,,,,,10,,,,60,64
20960,note_off,80,0,7,,,,,,,,5,,,,48,64
21000,note_on,160,0,14,,,,,,,,13,,,,36,75
21000,note_on,40,0,6,,,,,,,,4,,,,60,108
21000,note_on,160,0,8,,,,,,,,6,,,,48,92
21000,note_on,40,0,5,,,,,,,,3,,,,74,108
21000,note_on,40,0,10,,,,,,,,8,,,,74,75
21000,note_on,160,0,13,,,,,,,,12,,,,48,75
21000,note_on,40,0,12,,,,,,,,11,,,,48,75
21000,note_on,160,0,9,,,,,,,,7,,,,36,75
21000,note_on,40,0,11,,,,,,,,10,,,,60,110
21000,note_on,40,0,7,,,,,,,,5,,,,48,92
21080,note_off,80,0,10,,,,,,,,8,,,,74,64
21080,note_off,80,0,8,,,,,,,,6,,,,48,64
21080,note_off,80,0,13,,,,,,,,12,,,,48,64
21080,note_off,80,0,5,,,,,,,,3,,,,74,64
21080,note_off,80,0,7,,,,,,,,5,,,,48,64
21080,note_off,80,0,14,,,,,,,,13,,,,36,64
21080,note_off,80,0,12,,,,,,,,11,,,,48,64
21080,note_off,80,0,6,,,,,,,,4,,,,60,64
21080,note_off,80,0,11,,,,,,,,10,,,,60,64
21080,note_off,80,0,9,,,,,,,,7,,,,36,64
21120,note_on,40,0,10,,,,,,,,8,,,,72,75
21120,note_on,40,0,5,,,,,,,,3,,,,72,108
21120,note_on,40,0,12,,,,,,,,11,,,,48,75
21120,note_on,40,0,6,,,,,,,,4,,,,60,108
21120,note_on,40,0,11,,,,,,,,10,,,,60,110
21120,note_on,40,0,7,,,,,,,,5,,,,48,92
21160,note_off,400,0,15,,,,,,,,14,,,,36,64
21200,note_off,80,0,12,,,,,,,,11,,,,48,64
21200,note_off,80,0,7,,,,,,,,5,,,,48,64
21200,note_off,80,0,10,,,,,,,,8,,,,72,64
21200,note_off,80,0,11,,,,,,,,10,,,,60,64
21200,note_off,80,0,5,,,,,,,,3,,,,72,64
21200,note_off,80,0,6,,,,,,,,4,,,,60,64
21240,note_on,40,0,6,,,,,,,,4,,,,60,108
21240,note_on,40,0,10,,,,,,,,8,,,,70,75
21240,note_on,80,0,15,,,,,,,,14,,,,36,45
21240,note_on,160,0,14,,,,,,,,13,,,,36,75
21240,note_on,40,0,5,,,,,,,,3,,,,70,108
21240,note_on,40,0,7,,,,,,,,5,,,,48,92
21240,note_on,40,0,12,,,,,,,,11,,,,48,75
21240,note_on,160,0,9,,,,,,,,7,,,,36,75
21240,note_on,40,0,11,,,,,,,,10,,,,60,110
21240,note_on,160,0,8,,,,,,,,6,,,,48,92
21240,note_on,160,0,13,,,,,,,,12,,,,48,75
21320,note_off,80,0,13,,,,,,,,12,,,,48,64
21320,note_off,80,0,7,,,,,,,,5,,,,48,64
21320,note_off,80,0,10,,,,,,,,8,,,,70,64
21320,note_off,80,0,8,,,,,,,,6,,,,48,64
21320,note_off,80,0,5,,,,,,,,3,,,,70,64
21320,note_off,80,0,12,,,,,,,,11,,,,48,64
21320,note_off,80,0,11,,,,,,,,10,,,,60,64
21320,note_off,80,0,14,,,,,,,,13,,,,36,64
21320,note_off,80,0,9,,,,,,,,7,,,,36,64
21320,note_off,80,0,6,,,,,,,,4,,,,60,64
21360,note_on,40,0,12,,,,,,,,11,,,,48,75
21360,note_on,40,0,11,,,,,,,,10,,,,60,110
21360,note_on,40,0,5,,,,,,,,3,,,,69,108
21360,note_on,40,0,6,,,,,,,,4,,,,60,108
21360,note_on,40,0,7,,,,,,,,5,,,,48,92
21360,note_on,40,0,10,,,,,,,,8,,,,69,75
21440,note_off,80,0,7,,,,,,,,5,,,,48,64
21440,note_off,80,0,6,,,,,,,,4,,,,60,64
21440,note_off,80,0,10,,,,,,,,8,,,,69,64
21440,note_off,80,0,11,,,,,,,,10,,,,60,64
21440,note_off,80,0,12,,,,,,,,11,,,,48,64
21440,note_off,80,0,5,,,,,,,,3,,,,69,64
21480,note_on,40,0,12,,,,,,,,11,,,,48,75
21480,note_on,160,0,13,,,,,,,,12,,,,48,75
21480,note_on,40,0,6,,,,,,,,4,,,,60,108
21480,note_on,40,0,7,,,,,,,,5,,,,48,92
21480,note_on,40,0,11,,,,,,,,10,,,,60,110
21480,note_on,160,0,9,,,,,,,,7,,,,36,75
21480,note_on,40,0,5,,,,,,,,3,,,,67,108
21480,note_on,160,0,14,,,,,,,,13,,,,36,75
21480,note_on,160,0,8,,,,,,,,6,,,,48,92
21480,note_on,40,0,10,,,,,,,,8,,,,67,75
21560,note_off,80,0,6,,,,,,,,4,,,,60,64
21560,note_off,80,0,11,,,,,,,,10,,,,60,64
21560,note_off,80,0,14,,,,,,,,13,,,,36,64
21560,note_off,80,0,7,,,,,,,,5,,,,48,64
21560,note_off,80,0,8,,,,,,,,6,,,,48,64
21560,note_off,80,0,12,,,,,,,,11,,,,48,64
21560,note_off,80,0,5,,,,,,,,3,,,,67,64
21560,note_off,80,0,13,,,,,,,,12,,,,48,64
21560,note_off,80,0,10,,,,,,,,8,,,,67,64
21560,note_off,80,0,9,,,,,,,,7,,,,36,64
21600,note_on,40,0,12,,,,,,,,11,,,,48,75
21600,note_on,40,0,6,,,,,,,,4,,,,60,108
21600,note_on,40,0,11,,,,,,,,10,,,,60,110
21600,note_on,40,0,7,,,,,,,,5,,,,48,92
21600,note_on,40,0,10,,,,,,,,8,,,,65,75
21600,note_on,40,0,5,,,,,,,,3,,,,65,108
21640,note_off,400,0,15,,,,,,,,14,,,,36,64
21680,note_off,80,0,5,,,,,,,,3,,,,65,64
21680,note_off,80,0,10,,,,,,,,8,,,,65,64
21680,note_off,80,0,7,,,,,,,,5,,,,48,64
21680,note_off,80,0,12,,,,,,,,11,,,,48,64
21680,note_off,80,0,6,,,,,,,,4,,,,60,64
21680,note_off,80,0,11,,,,,,,,10,,,,60,64
21720,note_on,40,0,12,,,,,,,,11,,,,51,75
21720,note_on,40,0,7,,,,,,,,5,,,,51,92
21720,note_on,40,0,10,,,,,,,,8,,,,63,75
21720,note_on,40,0,11,,,,,,,,10,,,,60,110
21720,note_on,160,0,13,,,,,,,,12,,,,51,75
21720,note_on,40,0,6,,,,,,,,4,,,,60,108
21720,note_on,80,0,15,,,,,,,,14,,,,39,45
21720,note_on,160,0,9,,,,,,,,7,,,,39,75
21720,note_on,160,0,14,,,,,,,,13,,,,39,75
21720,note_on,40,0,5,,,,,,,,3,,,,63,108
21720,note_on,160,0,8,,,,,,,,6,,,,51,92
21800,note_off,80,0,11,,,,,,,,10,,,,60,64
21800,note_off,80,0,14,,,,,,,,13,,,,39,64
21800,note_off,80,0,10,,,,,,,,8,,,,63,64
21800,note_off,80,0,9,,,,,,,,7,,,,39,64
21800,note_off,80,0,12,,,,,,,,11,,,,51,64
21800,note_off,80,0,5,,,,,,,,3,,,,63,64
21800,note_off,80,0,13,,,,,,,,12,,,,51,64
21800,note_off,80,0,7,,,,,,,,5,,,,51,64
21800,note_off,80,0,8,,,,,,,,6,,,,51,64
21800,note_off,80,0,6,,,,,,,,4,,,,60,64
21840,note_on,40,0,6,,,,,,,,4,,,,82,108
21840,note_on,40,0,10,,,,,,,,8,,,,63,75
21840,note_on,40,0,12,,,,,,,,11,,,,51,75
21840,note_on,40,0,7,,,,,,,,5,,,,51,92
21840,note_on,40,0,5,,,,,,,,3,,,,63,108
21840,note_on,40,0,11,,,,,,,,10,,,,82,110
21920,note_off,80,0,10,,,,,,,,8,,,,63,64
21920,note_off,80,0,6,,,,,,,,4,,,,82,64
21920,note_off,80,0,5,,,,,,,,3,,,,63,64
21920,note_off,80,0,7,,,,,,,,5,,,,51,64
21920,note_off,80,0,11,,,,,,,,10,,,,82,64
21920,note_off,80,0,12,,,,,,,,11,,,,51,64
21960,note_on,160,0,8,,,,,,,,6,,,,51,92
21960,note_on,160,0,9,,,,,,,,7,,,,39,75
21960,note_on,160,0,13,,,,,,,,12,,,,51,75
21960,note_on,160,0,14,,,,,,,,13,,,,39,75
21960,note_on,40,0,7,,,,,,,,5,,,,51,92
21960,note_on,40,0,6,,,,,,,,4,,,,81,108
21960,note_on,40,0,10,,,,,,,,8,,,,63,75
21960,note_on,40,0,11,,,,,,,,10,,,,81,110
21960,note_on,40,0,12,,,,,,,,11,,,,51,75
21960,note_on,40,0,5,,,,,,,,3,,,,63,108
22040,note_off,80,0,11,,,,,,,,10,,,,81,64
22040,note_off,80,0,9,,,,,,,,7,,,,39,64
22040,note_off,80,0,7,,,,,,,,5,,,,51,64
22040,note_off,80,0,12,,,,,,,,11,,,,51,64
22040,note_off,80,0,14,,,,,,,,13,,,,39,64
22040,note_off,80,0,8,,,,,,,,6,,,,51,64
22040,note_off,80,0,13,,,,,,,,12,,,,51,64
22040,note_off,80,0,5,,,,,,,,3,,,,63,64
22040,note_off,80,0,10,,,,,,,,8,,,,63,64
22040,note_off,80,0,6,,,,,,,,4,,,,81,64
22080,note_on,40,0,10,,,,,,,,8,,,,63,75
22080,note_on,40,0,12,,,,,,,,11,,,,51,75
22080,note_on,40,0,7,,,,,,,,5,,,,51,92
22080,note_on,40,0,11,,,,,,,,10,,,,79,110
22080,note_on,40,0,5,,,,,,,,3,,,,63,108
22080,note_on,40,0,6,,,,,,,,4,,,,79,108
22120,note_off,400,0,15,,,,,,,,14,,,,39,64
22160,note_off,80,0,10,,,,,,,,8,,,,63,64
22160,note_off,80,0,11,,,,,,,,10,,,,79,64
22160,note_off,80,0,12,,,,,,,,11,,,,51,64
22160,note_off,80,0,5,,,,,,,,3,,,,63,64
22160,note_off,80,0,6,,,,,,,,4,,,,79,64
22160,note_off,80,0,7,,,,,,,,5,,,,51,64
22200,note_on,40,0,12,,,,,,,,11,,,,51,75
22200,note_on,40,0,5,,,,,,,,3,,,,63,108
22200,note_on,40,0,10,,,,,,,,8,,,,63,75
22200,note_on,80,0,15,,,,,,,,14,,,,39,45
22200,note_on,160,0,8,,,,,,,,6,,,,51,92
22200,note_on,160,0,14,,,,,,,,13,,,,39,75
22200,note_on,160,0,9,,,,,,,,7,,,,39,75
22200,note_on,40,0,6,,,,,,,,4,,,,77,108
22200,note_on,160,0,13,,,,,,,,12,,,,51,75
22200,note_on,40,0,11,,,,,,,,10,,,,77,110
22200,note_on,40,0,7,,,,,,,,5,,,,51,92
22280,note_off,80,0,13,,,,,,,,12,,,,51,64
22280,note_off,80,0,11,,,,,,,,10,,,,77,64
22280,note_off,80,0,14,,,,,,,,13,,,,39,64
22280,note_off,80,0,9,,,,,,,,7,,,,39,64
22280,note_off,80,0,6,,,,,,,,4,,,,77,64
22280,note_off,80,0,7,,,,,,,,5,,,,51,64
22280,note_off,80,0,5,,,,,,,,3,,,,63,64
22280,note_off,80,0,8,,,,,,,,6,,,,51,64
22280,note_off,80,0,12,,,,,,,,11,,,,51,64
22280,note_off,80,0,10,,,,,,,,8,,,,63,64
22320,note_on,40,0,7,,,,,,,,5,,,,51,92
22320,note_on,40,0,12,,,,,,,,11,,,,51,75
22320,note_on,40,0,11,,,,,,,,10,,,,75,110
22320,note_on,40,0,10,,,,,,,,8,,,,63,75
22320,note_on,40,0,5,,,,,,,,3,,,,63,108
22320,note_on,40,0,6,,,,,,,,4,,,,75,108
22400,note_off,80,0,10,,,,,,,,8,,,,63,64
22400,note_off,80,0,5,,,,,,,,3,,,,63,64
22400,note_off,80,0,7,,,,,,,,5,,,,51,64
22400,note_off,80,0,6,,,,,,,,4,,,,75,64
22400,note_off,80,0,11,,,,,,,,10,,,,75,64
22400,note_off,80,0,12,,,,,,,,11,,,,51,64
22440,note_on,160,0,13,,,,,,,,12,,,,51,75
22440,note_on,160,0,9,,,,,,,,7,,,,39,75
22440,note_on,40,0,10,,,,,,,,8,,,,63,75
22440,note_on,40,0,6,,,,,,,,4,,,,74,108
22440,note_on,40,0,7,,,,,,,,5,,,,51,92
22440,note_on,40,0,12,,,,,,,,11,,,,51,75
22440,note_on,160,0,14,,,,,,,,13,,,,39,75
22440,note_on,40,0,5,,,,,,,,3,,,,63,108
22440,note_on,40,0,11,,,,,,,,10,,,,74,110
22440,note_on,160,0,8,,,,,,,,6,,,,51,92
22520,note_off,80,0,14,,,,,,,,13,,,,39,64
22520,note_off,80,0,5,,,,,,,,3,,,,63,64
22520,note_off,80,0,12,,,,,,,,11,,,,51,64
22520,note_off,80,0,11,,,,,,,,10,,,,74,64
22520,note_off,80,0,7,,,,,,,,5,,,,51,64
22520,note_off,80,0,9,,,,,,,,7,,,,39,64
22520,note_off,80,0,8,,,,,,,,6,,,,51,64
22520,note_off,80,0,6,,,,,,,,4,,,,74,64
22520,note_off,80,0,10,,,,,,,,8,,,,63,64
22520,note_off,80,0,13,,,,,,,,12,,,,51,64
22560,note_on,40,0,7,,,,,,,,5,,,,51,92
22560,note_on,40,0,12,,,,,,,,11,,,,51,75
22560,note_on,40,0,5,,,,,,,,3,,,,63,108
22560,note_on,40,0,6,,,,,,,,4,,,,72,108
22560,note_on,40,0,11,,,,,,,,10,,,,72,110
22560,note_on,40,0,10,,,,,,,,8,,,,63,75
22600,note_off,400,0,15,,,,,,,,14,,,,39,64
22640,note_off,80,0,11,,,,,,,,10,,,,72,64
22640,note_off,80,0,7,,,,,,,,5,,,,51,64
22640,note_off,80,0,12,,,,,,,,11,,,,51,64
22640,note_off,80,0,6,,,,,,,,4,,,,72,64
22640,note_off,80,0,10,,,,,,,,8,,,,63,64
22640,note_off,80,0,5,,,,,,,,3,,,,63,64
22680,note_on,40,0,10,,,,,,,,8,,,,63,75
22680,note_on,160,0,13,,,,,,,,12,,,,51,75
22680,note_on,40,0,12,,,,,,,,11,,,,51,75
22680,note_on,40,0,11,,,,,,,,10,,,,70,110
22680,note_on,80,0,15,,,,,,,,14,,,,39,45
22680,note_on,40,0,5,,,,,,,,3,,,,63,108
22680,note_on,160,0,8,,,,,,,,6,,,,51,92
22680,note_on,40,0,7,,,,,,,,5,,,,51,92
22680,note_on,160,0,14,,,,,,,,13,,,,39,75
22680,note_on,40,0,6,,,,,,,,4,,,,70,108
22680,note_on,160,0,9,,,,,,,,7,,,,39,75
22760,note_off,80,0,13,,,,,,,,12,,,,51,64
22760,note_off,80,0,11,,,,,,,,10,,,,70,64
22760,note_off,80,0,7,,,,,,,,5,,,,51,64
22760,note_off,80,0,14,,,,,,,,13,,,,39,64
22760,note_off,80,0,12,,,,,,,,11,,,,51,64
22760,note_off,80,0,6,,,,,,,,4,,,,70,64
22760,note_off,80,0,9,,,,,,,,7,,,,39,64
22760,note_off,80,0,5,,,,,,,,3,,,,63,64
22760,note_off,80,0,10,,,,,,,,8,,,,63,64
22760,note_off,80,0,8,,,,,,,,6,,,,51,64
22800,note_on,40,0,11,,,,,,,,10,,,,69,110
22800,note_on,40,0,10,,,,,,,,8,,,,63,75
22800,note_on,40,0,5,,,,,,,,3,,,,63,108
22800,note_on,40,0,6,,,,,,,,4,,,,69,108
22800,note_on,40,0,12,,,,,,,,11,,,,51,75
22800,note_on,40,0,7,,,,,,,,5,,,,51,92
22880,note_off,80,0,7,,,,,,,,5,,,,51,64
22880,note_off,80,0,6,,,,,,,,4,,,,69,64
22880,note_off,80,0,10,,,,,,,,8,,,,63,64
22880,note_off,80,0,11,,,,,,,,10,,,,69,64
22880,note_off,80,0,5,,,,,,,,3,,,,63,64
22880,note_off,80,0,12,,,,,,,,11,,,,51,64
22920,note_on,160,0,13,,,,,,,,12,,,,51,75
22920,note_on,40,0,11,,,,,,,,10,,,,67,110
22920,note_on,40,0,7,,,,,,,,5,,,,51,92
22920,note_on,40,0,10,,,,,,,,8,,,,63,75
22920,note_on,160,0,8,,,,,,,,6,,,,51,92
22920,note_on,40,0,12,,,,,,,,11,,,,51,75
22920,note_on,40,0,5,,,,,,,,3,,,,63,108
22920,note_on,40,0,6,,,,,,,,4,,,,67,108
22920,note_on,160,0,14,,,,,,,,13,,,,39,75
22920,note_on,160,0,9,,,,,,,,7,,,,39,75
23000,note_off,80,0,6,,,,,,,,4,,,,67,64
23000,note_off,80,0,10,,,,,,,,8,,,,63,64
23000,note_off,80,0,8,,,,,,,,6,,,,51,64
23000,note_off,80,0,12,,,,,,,,11,,,,51,64
23000,note_off,80,0,5,,,,,,,,3,,,,63,64
23000,note_off,80,0,11,,,,,,,,10,,,,67,64
23000,note_off,80,0,9,,,,,,,,7,,,,39,64
23000,note_off,80,0,14,,,,,,,,13,,,,39,64
23000,note_off,80,0,7,,,,,,,,5,,,,51,64
23000,note_off,80,0,13,,,,,,,,12,,,,51,64
23040,note_on,40,0,5,,,,,,,,3,,,,63,108
23040,note_on,40,0,11,,,,,,,,10,,,,65,110
23040,note_on,40,0,6,,,,,,,,4,,,,65,108
23040,note_on,40,0,10,,,,,,,,8,,,,63,75
23040,note_on,40,0,7,,,,,,,,5,,,,51,92
23040,note_on,40,0,12,,,,,,,,11,,,,51,75
23080,note_off,400,0,15,,,,,,,,14,,,,39,64
23120,note_off,80,0,5,,,,,,,,3,,,,63,64
23120,note_off,80,0,10,,,,,,,,8,,,,63,64
23120,note_off,80,0,7,,,,,,,,5,,,,51,64
23120,note_off,80,0,6,,,,,,,,4,,,,65,64
23120,note_off,80,0,12,,,,,,,,11,,,,51,64
23120,note_off,80,0,11,,,,,,,,10,,,,65,64
23160,note_on,40,0,5,,,,,,,,3,,,,63,108
23160,note_on,40,0,7,,,,,,,,5,,,,51,92
23160,note_on,160,0,14,,,,,,,,13,,,,39,75
23160,note_on,40,0,10,,,,,,,,8,,,,63,75
23160,note_on,160,0,8,,,,,,,,6,,,,51,92
23160,note_on,40,0,11,,,,,,,,10,,,,63,110
23160,note_on,160,0,13,,,,,,,,12,,,,51,75
23160,note_on,40,0,6,,,,,,,,4,,,,63,108
23160,note_on,40,0,12,,,,,,,,11,,,,51,75
23160,note_on,160,0,9,,,,,,,,7,,,,39,75
23160,note_on,80,0,15,,,,,,,,14,,,,39,45
23240,note_off,80,0,10,,,,,,,,8,,,,63,64
23240,note_off,80,0,12,,,,,,,,11,,,,51,64
23240,note_off,80,0,14,,,,,,,,13,,,,39,64
23240,note_off,80,0,6,,,,,,,,4,,,,63,64
23240,note_off,80,0,13,,,,,,,,12,,,,51,64
23240,note_off,80,0,8,,,,,,,,6,,,,51,64
23240,note_off,80,0,5,,,,,,,,3,,,,63,64
23240,note_off,80,0,9,,,,,,,,7,,,,39,64
23240,note_off,80,0,11,,,,,,,,10,,,,63,64
23240,note_off,80,0,7,,,,,,,,5,,,,51,64
23280,note_on,40,0,12,,,,,,,,11,,,,51,75
23280,note_on,40,0,10,,,,,,,,8,,,,86,75
23280,note_on,40,0,7,,,,,,,,5,,,,51,92
23280,note_on,40,0,5,,,,,,,,3,,,,86,108
23280,note_on,40,0,11,,,,,,,,10,,,,63,110
23280,note_on,40,0,6,,,,,,,,4,,,,63,108
23360,note_off,80,0,6,,,,,,,,4,,,,63,64
23360,note_off,80,0,11,,,,,,,,10,,,,63,64
23360,note_off,80,0,12,,,,,,,,11,,,,51,64
23360,note_off,80,0,10,,,,,,,,8,,,,86,64
23360,note_off,80,0,7,,,,,,,,5,,,,51,64
23360,note_off,80,0,5,,,,,,,,3,,,,86,64
23400,note_on,40,0,11,,,,,,,,10,,,,63,110
23400,note_on,160,0,9,,,,,,,,7,,,,39,75
23400,note_on,160,0,14,,,,,,,,13,,,,39,75
23400,note_on,40,0,5,,,,,,,,3,,,,84,108
23400,note_on,160,0,13,,,,,,,,12,,,,51,75
23400,note_on,40,0,12,,,,,,,,11,,,,51,75
23400,note_on,40,0,10,,,,,,,,8,,,,84,75
23400,note_on,40,0,6,,,,,,,,4,,,,63,108
23400,note_on,40,0,7,,,,,,,,5,,,,51,92
23400,note_on,160,0,8,,,,,,,,6,,,,51,92
23480,note_off,80,0,10,,,,,,,,8,,,,84,64
23480,note_off,80,0,7,,,,,,,,5,,,,51,64
23480,note_off,80,0,14,,,,,,,,13,,,,39,64
23480,note_off,80,0,9,,,,,,,,7,,,,39,64
23480,note_off,80,0,5,,,,,,,,3,,,,84,64
23480,note_off,80,0,12,,,,,,,,11,,,,51,64
23480,note_off,80,0,13,,,,,,,,12,,,,51,64
23480,note_off,80,0,6,,,,,,,,4,,,,63,64
23480,note_off,80,0,8,,,,,,,,6,,,,51,64
23480,note_off,80,0,11,,,,,,,,10,,,,63,64
23520,note_on,40,0,10,,,,,,,,8,,,,82,75
23520,note_on,40,0,12,,,,,,,,11,,,,51,75
23520,note_on,40,0,7,,,,,,,,5,,,,51,92
23520,note_on,40,0,6,,,,,,,,4,,,,63,108
23520,note_on,40,0,11,,,,,,,,10,,,,63,110
23520,note_on,40,0,5,,,,,,,,3,,,,82,108
23560,note_off,400,0,15,,,,,,,,14,,,,39,64
23600,note_off,80,0,5,,,,,,,,3,,,,82,64
23600,note_off,80,0,7,,,,,,,,5,,,,51,64
23600,note_off,80,0,11,,,,,,,,10,,,,63,64
23600,note_off,80,0,10,,,,,,,,8,,,,82,64
23600,note_off,80,0,12,,,,,,,,11,,,,51,64
23600,note_off,80,0,6,,,,,,,,4,,,,63,64
23640,note_on,40,0,5,,,,,,,,3,,,,81,108
23640,note_on,40,0,12,,,,,,,,11,,,,51,75
23640,note_on,80,0,15,,,,,,,,14,,,,39,45
23640,note_on,40,0,6,,,,,,,,4,,,,63,108
23640,note_on,160,0,9,,,,,,,,7,,,,39,75
23640,note_on,40,0,10,,,,,,,,8,,,,81,75
23640,note_on,160,0,14,,,,,,,,13,,,,39,75
23640,note_on,40,0,11,,,,,,,,10,,,,63,110
23640,note_on,40,0,7,,,,,,,,5,,,,51,92
23640,note_on,160,0,13,,,,,,,,12,,,,51,75
23640,note_on,160,0,8,,,,,,,,6,,,,51,92
23720,note_off,80,0,14,,,,,,,,13,,,,39,64
23720,note_off,80,0,9,,,,,,,,7,,,,39,64
23720,note_off,80,0,11,,,,,,,,10,,,,63,64
23720,note_off,80,0,7,,,,,,,,5,,,,51,64
23720,note_off,80,0,6,,,,,,,,4,,,,63,64
23720,note_off,80,0,10,,,,,,,,8,,,,81,64
23720,note_off,80,0,12,,,,,,,,11,,,,51,64
23720,note_off,80,0,13,,,,,,,,12,,,,51,64
23720,note_off,80,0,8,,,,,,,,6,,,,51,64
23720,note_off,80,0,5,,,,,,,,3,,,,81,64
23760,note_on,40,0,10,,,,,,,,8,,,,79,75
23760,note_on,40,0,11,,,,,,,,10,,,,63,110
23760,note_on,40,0,12,,,,,,,,11,,,,51,75
23760,note_on,40,0,7,,,,,,,,5,,,,51,92
23760,note_on,40,0,5,,,,,,,,3,,,,79,108
23760,note_on,40,0,6,,,,,,,,4,,,,63,108
23840,note_off,80,0,10,,,,,,,,8,,,,79,64
23840,note_off,80,0,11,,,,,,,,10,,,,63,64
23840,note_off,80,0,7,,,,,,,,5,,,,51,64
23840,note_off,80,0,12,,,,,,,,11,,,,51,64
23840,note_off,80,0,5,,,,,,,,3,,,,79,64
23840,note_off,80,0,6,,,,,,,,4,,,,63,64
23880,note_on,40,0,10,,,,,,,,8,,,,78,75
23880,note_on,160,0,14,,,,,,,,13,,,,39,75
23880,note_on,160,0,13,,,,,,,,12,,,,51,75
23880,note_on,160,0,8,,,,,,,,6,,,,51,92
23880,note_on,40,0,6,,,,,,,,4,,,,63,108
23880,note_on,40,0,11,,,,,,,,10,,,,63,110
23880,note_on,40,0,12,,,,,,,,11,,,,51,75
23880,note_on,40,0,7,,,,,,,,5,,,,51,92
23880,note_on,40,0,5,,,,,,,,3,,,,78,108
23880,note_on,160,0,9,,,,,,,,7,,,,39,75
23960,note_off,80,0,5,,,,,,,,3,,,,78,64
23960,note_off,80,0,14,,,,,,,,13,,,,39,64
23960,note_off,80,0,9,,,,,,,,7,,,,39,64
23960,note_off,80,0,10,,,,,,,,8,,,,78,64
23960,note_off,80,0,6,,,,,,,,4,,,,63,64
23960,note_off,80,0,12,,,,,,,,11,,,,51,64
23960,note_off,80,0,7,,,,,,,,5,,,,51,64
23960,note_off,80,0,8,,,,,,,,6,,,,51,64
23960,note_off,80,0,13,,,,,,,,12,,,,51,64
23960,note_off,80,0,11,,,,,,,,10,,,,63,64
24000,note_on,40,0,10,,,,,,,,8,,,,76,75
24000,note_on,40,0,6,,,,,,,,4,,,,63,108
24000,note_on,40,0,12,,,,,,,,11,,,,51,75
24000,note_on,40,0,7,,,,,,,,5,,,,51,92
24000,note_on,40,0,5,,,,,,,,3,,,,76,108
24000,note_on,40,0,11,,,,,,,,10,,,,63,110
24040,note_off,400,0,15,,,,,,,,14,,,,39,64
24080,note_off,80,0,6,,,,,,,,4,,,,63,64
24080,note_off,80,0,5,,,,,,,,3,,,,76,64
24080,note_off,80,0,10,,,,,,,,8,,,,76,64
24080,note_off,80,0,7,,,,,,,,5,,,,51,64
24080,note_off,80,0,12,,,,,,,,11,,,,51,64
24080,note_off,80,0,11,,,,,,,,10,,,,63,64
24120,note_on,40,0,10,,,,,,,,8,,,,74,75
24120,note_on,160,0,8,,,,,,,,6,,,,51,92
24120,note_on,40,0,5,,,,,,,,3,,,,74,108
24120,note_on,40,0,7,,,,,,,,5,,,,51,92
24120,note_on,80,0,15,,,,,,,,14,,,,39,45
24120,note_on,160,0,14,,,,,,,,13,,,,39,75
24120,note_on,160,0,9,,,,,,,,7,,,,39,75
24120,note_on,160,0,13,,,,,,,,12,,,,51,75
24120,note_on,40,0,12,,,,,,,,11,,,,51,75
24120,note_on,40,0,11,,,,,,,,10,,,,63,110
24120,note_on,40,0,6,,,,,,,,4,,,,63,108
24200,note_off,80,0,13,,,,,,,,12,,,,51,64
24200,note_off,80,0,12,,,,,,,,11,,,,51,64
24200,note_off,80,0,14,,,,,,,,13,,,,39,64
24200,note_off,80,0,6,,,,,,,,4,,,,63,64
24200,note_off,80,0,9,,,,,,,,7,,,,39,64
24200,note_off,80,0,8,,,,,,,,6,,,,51,64
24200,note_off,80,0,10,,,,,,,,8,,,,74,64
24200,note_off,80,0,5,,,,,,,,3,,,,74,64
24200,note_off,80,0,7,,,,,,,,5,,,,51,64
24200,note_off,80,0,11,,,,,,,,10,,,,63,64
24240,note_on,40,0,5,,,,,,,,3,,,,72,108
24240,note_on,40,0,11,,,,,,,,10,,,,63,110
24240,note_on,40,0,7,,,,,,,,5,,,,51,92
24240,note_on,40,0,6,,,,,,,,4,,,,63,108
24240,note_on,40,0,12,,,,,,,,11,,,,51,75
24240,note_on,40,0,10,,,,,,,,8,,,,72,75
24320,note_off,80,0,10,,,,,,,,8,,,,72,64
24320,note_off,80,0,6,,,,,,,,4,,,,63,64
24320,note_off,80,0,12,,,,,,,,11,,,,51,64
24320,note_off,80,0,7,,,,,,,,5,,,,51,64
24320,note_off,80,0,5,,,,,,,,3,,,,72,64
24320,note_off,80,0,11,,,,,,,,10,,,,63,64
24360,note_on,40,0,6,,,,,,,,4,,,,63,108
24360,note_on,160,0,9,,,,,,,,7,,,,39,75
24360,note_on,40,0,7,,,,,,,,5,,,,51,92
24360,note_on,160,0,13,,,,,,,,12,,,,51,75
24360,note_on,160,0,8,,,,,,,,6,,,,51,92
24360,note_on,40,0,10,,,,,,,,8,,,,70,75
24360,note_on,160,0,14,,,,,,,,13,,,,39,75
24360,note_on,40,0,11,,,,,,,,10,,,,63,110
24360,note_on,40,0,5,,,,,,,,3,,,,70,108
24360,note_on,40,0,12,,,,,,,,11,,,,51,75
24440,note_off,80,0,12,,,,,,,,11,,,,51,64
24440,note_off,80,0,5,,,,,,,,3,,,,70,64
24440,note_off,80,0,13,,,,,,,,12,,,,51,64
24440,note_off,80,0,9,,,,,,,,7,,,,39,64
24440,note_off,80,0,8,,,,,,,,6,,,,51,64
24440,note_off,80,0,10,,,,,,,,8,,,,70,64
24440,note_off,80,0,14,,,,,,,,13,,,,39,64
24440,note_off,80,0,11,,,,,,,,10,,,,63,64
24440,note_off,80,0,6,,,,,,,,4,,,,63,64
24440,note_off,80,0,7,,,,,,,,5,,,,51,64
24480,note_on,40,0,12,,,,,,,,11,,,,51,75
24480,note_on,40,0,7,,,,,,,,5,,,,51,92
24480,note_on,40,0,11,,,,,,,,10,,,,63,110
24480,note_on,40,0,10,,,,,,,,8,,,,69,75
24480,note_on,40,0,5,,,,,,,,3,,,,69,108
24480,note_on,40,0,6,,,,,,,,4,,,,63,108
24520,note_off,400,0,15,,,,,,,,14,,,,39,64
24560,note_off,80,0,10,,,,,,,,8,,,,69,64
24560,note_off,80,0,11,,,,,,,,10,,,,63,64
24560,note_off,80,0,5,,,,,,,,3,,,,69,64
24560,note_off,80,0,6,,,,,,,,4,,,,63,64
24560,note_off,80,0,12,,,,,,,,11,,,,51,64
24560,note_off,80,0,7,,,,,,,,5,,,,51,64
24600,note_on,160,0,8,,,,,,,,6,,,,55,92
24600,note_on,40,0,7,,,,,,,,5,,,,55,92
24600,note_on,40,0,11,,,,,,,,10,,,,63,110
24600,note_on,40,0,10,,,,,,,,8,,,,67,75
24600,note_on,40,0,12,,,,,,,,11,,,,55,75
24600,note_on,40,0,6,,,,,,,,4,,,,63,108
24600,note_on,80,0,15,,,,,,,,14,,,,43,45
24600,note_on,40,0,5,,,,,,,,3,,,,67,108
24600,note_on,160,0,13,,,,,,,,12,,,,55,75
24600,note_on,160,0,9,,,,,,,,7,,,,43,75
24600,note_on,160,0,14,,,,,,,,13,,,,43,75
24680,note_off,80,0,6,,,,,,,,4,,,,63,64
24680,note_off,80,0,11,,,,,,,,10,,,,63,64
24680,note_off,80,0,14,,,,,,,,13,,,,43,64
24680,note_off,80,0,5,,,,,,,,3,,,,67,64
24680,note_off,80,0,13,,,,,,,,12,,,,55,64
24680,note_off,80,0,7,,,,,,,,5,,,,55,64
24680,note_off,80,0,9,,,,,,,,7,,,,43,64
24680,note_off,80,0,12,,,,,,,,11,,,,55,64
24680,note_off,80,0,10,,,,,,,,8,,,,67,64
24680,note_off,80,0,8,,,,,,,,6,,,,55,64
24720,note_on,40,0,5,,,,,,,,3,,,,67,108
24720,note_on,40,0,12,,,,,,,,11,,,,55,75
24720,note_on,40,0,11,,,,,,,,10,,,,86,110
24720,note_on,40,0,10,,,,,,,,8,,,,67,75
24720,note_on,40,0,6,,,,,,,,4,,,,86,108
24720,note_on,40,0,7,,,,,,,,5,,,,55,92
24800,note_off,80,0,5,,,,,,,,3,,,,67,64
24800,note_off,80,0,11,,,,,,,,10,,,,86,64
24800,note_off,80,0,7,,,,,,,,5,,,,55,64
24800,note_off,80,0,12,,,,,,,,11,,,,55,64
24800,note_off,80,0,10,,,,,,,,8,,,,67,64
24800,note_off,80,0,6,,,,,,,,4,,,,86,64
24840,note_on,40,0,6,,,,,,,,4,,,,84,108
24840,note_on,160,0,14,,,,,,,,13,,,,43,75
24840,note_on,160,0,13,,,,,,,,12,,,,55,75
24840,note_on,160,0,9,,,,,,,,7,,,,43,75
24840,note_on,40,0,7,,,,,,,,5,,,,55,92
24840,note_on,40,0,10,,,,,,,,8,,,,67,75
24840,note_on,40,0,5,,,,,,,,3,,,,67,108
24840,note_on,40,0,12,,,,,,,,11,,,,55,75
24840,note_on,40,0,11,,,,,,,,10,,,,84,110
24840,note_on,160,0,8,,,,,,,,6,,,,55,92
24920,note_off,80,0,6,,,,,,,,4,,,,84,64
24920,note_off,80,0,9,,,,,,,,7,,,,43,64
24920,note_off,80,0,13,,,,,,,,12,,,,55,64
24920,note_off,80,0,10,,,,,,,,8,,,,67,64
24920,note_off,80,0,12,,,,,,,,11,,,,55,64
24920,note_off,80,0,11,,,,,,,,10,,,,84,64
24920,note_off,80,0,5,,,,,,,,3,,,,67,64
24920,note_off,80,0,7,,,,,,,,5,,,,55,64
24920,note_off,80,0,8,,,,,,,,6,,,,55,64
24920,note_off,80,0,14,,,,,,,,13,,,,43,64
24960,note_on,40,0,6,,,,,,,,4,,,,82,108
24960,note_on,40,0,11,,,,,,,,10,,,,82,110
24960,note_on,40,0,5,,,,,,,,3,,,,67,108
24960,note_on,40,0,10,,,,,,,,8,,,,67,75
24960,note_on,40,0,7,,,,,,,,5,,,,55,92
24960,note_on,40,0,12,,,,,,,,11,,,,55,75
25000,note_off,400,0,15,,,,,,,,14,,,,43,64
25040,note_off,80,0,5,,,,,,,,3,,,,67,64
25040,note_off,80,0,7,,,,,,,,5,,,,55,64
25040,note_off,80,0,11,,,,,,,,10,,,,82,64
25040,note_off,80,0,12,,,,,,,,11,,,,55,64
25040,note_off,80,0,10,,,,,,,,8,,,,67,64
25040,note_off,80,0,6,,,,,,,,4,,,,82,64
25080,note_on,160,0,9,,,,,,,,7,,,,43,75
25080,note_on,160,0,14,,,,,,,,13,,,,43,75
25080,note_on,40,0,7,,,,,,,,5,,,,55,92
25080,note_on,40,0,10,,,,,,,,8,,,,67,75
25080,note_on,40,0,12,,,,,,,,11,,,,55,75
25080,note_on,40,0,5,,,,,,,,3,,,,67,108
25080,note_on,40,0,11,,,,,,,,10,,,,81,110
25080,note_on,160,0,13,,,,,,,,12,,,,55,75
25080,note_on,40,0,6,,,,,,,,4,,,,81,108
25080,note_on,80,0,15,,,,,,,,14,,,,43,45
25080,note_on,160,0,8,,,,,,,,6,,,,55,92
25160,note_off,80,0,6,,,,,,,,4,,,,81,64
25160,note_off,80,0,11,,,,,,,,10,,,,81,64
25160,note_off,80,0,9,,,,,,,,7,,,,43,64
25160,note_off,80,0,14,,,,,,,,13,,,,43,64
25160,note_off,80,0,13,,,,,,,,12,,,,55,64
25160,note_off,80,0,12,,,,,,,,11,,,,55,64
25160,note_off,80,0,7,,,,,,,,5,,,,55,64
25160,note_off,80,0,10,,,,,,,,8,,,,67,64
25160,note_off,80,0,8,,,,,,,,6,,,,55,64
25160,note_off,80,0,5,,,,,,,,3,,,,67,64
25200,note_on,40,0,11,,,,,,,,10,,,,79,110
25200,note_on,40,0,10,,,,,,,,8,,,,67,75
25200,note_on,40,0,5,,,,,,,,3,,,,67,108
25200,note_on,40,0,12,,,,,,,,11,,,,55,75
25200,note_on,40,0,6,,,,,,,,4,,,,79,108
25200,note_on,40,0,7,,,,,,,,5,,,,55,92
25280,note_off,80,0,6,,,,,,,,4,,,,79,64
25280,note_off,80,0,10,,,,,,,,8,,,,67,64
25280,note_off,80,0,5,,,,,,,,3,,,,67,64
25280,note_off,80,0,7,,,,,,,,5,,,,55,64
25280,note_off,80,0,11,,,,,,,,10,,,,79,64
25280,note_off,80,0,12,,,,,,,,11,,,,55,64
25320,note_on,40,0,7,,,,,,,,5,,,,55,92
25320,note_on,40,0,11,,,,,,,,10,,,,78,110
25320,note_on,40,0,5,,,,,,,,3,,,,67,108
25320,note_on,160,0,13,,,,,,,,12,,,,55,75
25320,note_on,40,0,10,,,,,,,,8,,,,67,75
25320,note_on,160,0,9,,,,,,,,7,,,,43,75
25320,note_on,160,0,14,,,,,,,,13,,,,43,75
25320,note_on,160,0,8,,,,,,,,6,,,,55,92
25320,note_on,40,0,6,,,,,,,,4,,,,78,108
25320,note_on,40,0,12,,,,,,,,11,,,,55,75
25400,note_off,80,0,13,,,,,,,,12,,,,55,64
25400,note_off,80,0,6,,,,,,,,4,,,,78,64
25400,note_off,80,0,8,,,,,,,,6,,,,55,64
25400,note_off,80,0,11,,,,,,,,10,,,,78,64
25400,note_off,80,0,5,,,,,,,,3,,,,67,64
25400,note_off,80,0,12,,,,,,,,11,,,,55,64
25400,note_off,80,0,10,,,,,,,,8,,,,67,64
25400,note_off,80,0,7,,,,,,,,5,,,,55,64
25400,note_off,80,0,9,,,,,,,,7,,,,43,64
25400,note_off,80,0,14,,,,,,,,13,,,,43,64
25440,note_on,40,0,12,,,,,,,,11,,,,55,75
25440,note_on,40,0,6,,,,,,,,4,,,,76,108
25440,note_on,40,0,7,,,,,,,,5,,,,55,92
25440,note_on,40,0,11,,,,,,,,10,,,,76,110
25440,note_on,40,0,10,,,,,,,,8,,,,67,75
25440,note_on,40,0,5,,,,,,,,3,,,,67,108
25480,note_off,400,0,15,,,,,,,,14,,,,43,64
25520,note_off,80,0,5,,,,,,,,3,,,,67,64
25520,note_off,80,0,11,,,,,,,,10,,,,76,64
25520,note_off,80,0,7,,,,,,,,5,,,,55,64
25520,note_off,80,0,10,,,,,,,,8,,,,67,64
25520,note_off,80,0,6,,,,,,,,4,,,,76,64
25520,note_off,80,0,12,,,,,,,,11,,,,55,64
25560,note_on,160,0,14,,,,,,,,13,,,,43,75
25560,note_on,40,0,5,,,,,,,,3,,,,67,108
25560,note_on,160,0,8,,,,,,,,6,,,,55,92
25560,note_on,160,0,9,,,,,,,,7,,,,43,75
25560,note_on,80,0,15,,,,,,,,14,,,,43,45
25560,note_on,160,0,13,,,,,,,,12,,,,55,75
25560,note_on,40,0,12,,,,,,,,11,,,,55,75
25560,note_on,40,0,7,,,,,,,,5,,,,55,92
25560,note_on,40,0,11,,,,,,,,10,,,,74,110
25560,note_on,40,0,10,,,,,,,,8,,,,67,75
25560,note_on,40,0,6,,,,,,,,4,,,,74,108
25640,note_off,80,0,10,,,,,,,,8,,,,67,64
25640,note_off,80,0,12,,,,,,,,11,,,,55,64
25640,note_off,80,0,9,,,,,,,,7,,,,43,64
25640,note_off,80,0,8,,,,,,,,6,,,,55,64
25640,note_off,80,0,7,,,,,,,,5,,,,55,64
25640,note_off,80,0,13,,,,,,,,12,,,,55,64
25640,note_off,80,0,11,,,,,,,,10,,,,74,64
25640,note_off,80,0,5,,,,,,,,3,,,,67,64
25640,note_off,80,0,14,,,,,,,,13,,,,43,64
25640,note_off,80,0,6,,,,,,,,4,,,,74,64
25680,note_on,40,0,7,,,,,,,,5,,,,55,92
25680,note_on,40,0,11,,,,,,,,10,,,,72,110
25680,note_on,40,0,10,,,,,,,,8,,,,67,75
25680,note_on,40,0,6,,,,,,,,4,,,,72,108
25680,note_on,40,0,5,,,,,,,,3,,,,67,108
25680,note_on,40,0,12,,,,,,,,11,,,,55,75
25760,note_off,80,0,5,,,,,,,,3,,,,67,64
25760,note_off,80,0,10,,,,,,,,8,,,,67,64
25760,note_off,80,0,6,,,,,,,,4,,,,72,64
25760,note_off,80,0,7,,,,,,,,5,,,,55,64
25760,note_off,80,0,12,,,,,,,,11,,,,55,64
25760,note_off,80,0,11,,,,,,,,10,,,,72,64
25800,note_on,160,0,13,,,,,,,,12,,,,55,75
25800,note_on,40,0,10,,,,,,,,8,,,,67,75
25800,note_on,160,0,14,,,,,,,,13,,,,43,75
25800,note_on,40,0,12,,,,,,,,11,,,,55,75
25800,note_on,40,0,7,,,,,,,,5,,,,55,92
25800,note_on,160,0,8,,,,,,,,6,,,,55,92
25800,note_on,40,0,6,,,,,,,,4,,,,70,108
25800,note_on,40,0,5,,,,,,,,3,,,,67,108
25800,note_on,160,0,9,,,,,,,,7,,,,43,75
25800,note_on,40,0,11,,,,,,,,10,,,,70,110
25880,note_off,80,0,9,,,,,,,,7,,,,43,64
25880,note_off,80,0,6,,,,,,,,4,,,,70,64
25880,note_off,80,0,14,,,,,,,,13,,,,43,64
25880,note_off,80,0,10,,,,,,,,8,,,,67,64
25880,note_off,80,0,12,,,,,,,,11,,,,55,64
25880,note_off,80,0,11,,,,,,,,10,,,,70,64
25880,note_off,80,0,5,,,,,,,,3,,,,67,64
25880,note_off,80,0,8,,,,,,,,6,,,,55,64
25880,note_off,80,0,13,,,,,,,,12,,,,55,64
25880,note_off,80,0,7,,,,,,,,5,,,,55,64
25920,note_on,40,0,12,,,,,,,,11,,,,55,75
25920,note_on,40,0,11,,,,,,,,10,,,,69,110
25920,note_on,40,0,5,,,,,,,,3,,,,67,108
25920,note_on,40,0,6,,,,,,,,4,,,,69,108
25920,note_on,40,0,7,,,,,,,,5,,,,55,92
25920,note_on,40,0,10,,,,,,,,8,,,,67,75
25960,note_off,400,0,15,,,,,,,,14,,,,43,64
26000,note_off,80,0,7,,,,,,,,5,,,,55,64
26000,note_off,80,0,11,,,,,,,,10,,,,69,64
26000,note_off,80,0,5,,,,,,,,3,,,,67,64
26000,note_off,80,0,6,,,,,,,,4,,,,69,64
26000,note_off,80,0,12,,,,,,,,11,,,,55,64
26000,note_off,80,0,10,,,,,,,,8,,,,67,64
26040,note_on,40,0,10,,,,,,,,8,,,,67,75
26040,note_on,160,0,8,,,,,,,,6,,,,55,92
26040,note_on,80,0,15,,,,,,,,14,,,,43,45
26040,note_on,160,0,13,,,,,,,,12,,,,55,75
26040,note_on,40,0,6,,,,,,,,4,,,,67,108
26040,note_on,160,0,9,,,,,,,,7,,,,43,75
26040,note_on,40,0,11,,,,,,,,10,,,,67,110
26040,note_on,160,0,14,,,,,,,,13,,,,43,75
26040,note_on,40,0,12,,,,,,,,11,,,,55,75
26040,note_on,40,0,7,,,,,,,,5,,,,55,92
26040,note_on,40,0,5,,,,,,,,3,,,,67,108
26120,note_off,80,0,14,,,,,,,,13,,,,43,64
26120,note_off,80,0,13,,,,,,,,12,,,,55,64
26120,note_off,80,0,6,,,,,,,,4,,,,67,64
26120,note_off,80,0,7,,,,,,,,5,,,,55,64
26120,note_off,80,0,8,,,,,,,,6,,,,55,64
26120,note_off,80,0,5,,,,,,,,3,,,,67,64
26120,note_off,80,0,12,,,,,,,,11,,,,55,64
26120,note_off,80,0,10,,,,,,,,8,,,,67,64
26120,note_off,80,0,9,,,,,,,,7,,,,43,64
26120,note_off,80,0,11,,,,,,,,10,,,,67,64
26160,note_on,40,0,6,,,,,,,,4,,,,67,108
26160,note_on,40,0,7,,,,,,,,5,,,,55,92
26160,note_on,40,0,5,,,,,,,,3,,,,86,108
26160,note_on,40,0,11,,,,,,,,10,,,,67,110
26160,note_on,40,0,10,,,,,,,,8,,,,86,75
26160,note_on,40,0,12,,,,,,,,11,,,,55,75
26240,note_off,80,0,12,,,,,,,,11,,,,55,64
26240,note_off,80,0,7,,,,,,,,5,,,,55,64
26240,note_off,80,0,6,,,,,,,,4,,,,67,64
26240,note_off,80,0,10,,,,,,,,8,,,,86,64
26240,note_off,80,0,5,,,,,,,,3,,,,86,64
26240,note_off,80,0,11,,,,,,,,10,,,,67,64
26280,note_on,40,0,10,,,,,,,,8,,,,84,75
26280,note_on,40,0,11,,,,,,,,10,,,,67,110
26280,note_on,160,0,8,,,,,,,,6,,,,55,92
26280,note_on,40,0,7,,,,,,,,5,,,,55,92
26280,note_on,40,0,6,,,,,,,,4,,,,67,108
26280,note_on,160,0,13,,,,,,,,12,,,,55,75
26280,note_on,160,0,14,,,,,,,,13,,,,43,75
26280,note_on,40,0,12,,,,,,,,11,,,,55,75
26280,note_on,160,0,9,,,,,,,,7,,,,43,75
26280,note_on,40,0,5,,,,,,,,3,,,,84,108
26360,note_off,80,0,10,,,,,,,,8,,,,84,64
26360,note_off,80,0,13,,,,,,,,12,,,,55,64
26360,note_off,80,0,5,,,,,,,,3,,,,84,64
26360,note_off,80,0,12,,,,,,,,11,,,,55,64
26360,note_off,80,0,11,,,,,,,,10,,,,67,64
26360,note_off,80,0,6,,,,,,,,4,,,,67,64
26360,note_off,80,0,9,,,,,,,,7,,,,43,64
26360,note_off,80,0,8,,,,,,,,6,,,,55,64
26360,note_off,80,0,14,,,,,,,,13,,,,43,64
26360,note_off,80,0,7,,,,,,,,5,,,,55,64
26400,note_on,40,0,11,,,,,,,,10,,,,67,110
26400,note_on,40,0,5,,,,,,,,3,,,,82,108
26400,note_on,40,0,7,,,,,,,,5,,,,55,92
26400,note_on,40,0,6,,,,,,,,4,,,,67,108
26400,note_on,40,0,10,,,,,,,,8,,,,82,75
26400,note_on,40,0,12,,,,,,,,11,,,,55,75
26440,note_off,400,0,15,,,,,,,,14,,,,43,64
26480,note_off,80,0,7,,,,,,,,5,,,,55,64
26480,note_off,80,0,10,,,,,,,,8,,,,82,64
26480,note_off,80,0,5,,,,,,,,3,,,,82,64
26480,note_off,80,0,11,,,,,,,,10,,,,67,64
26480,note_off,80,0,6,,,,,,,,4,,,,67,64
26480,note_off,80,0,12,,,,,,,,11,,,,55,64
26520,note_on,160,0,14,,,,,,,,13,,,,43,75
26520,note_on,160,0,9,,,,,,,,7,,,,43,75
26520,note_on,40,0,10,,,,,,,,8,,,,81,75
26520,note_on,160,0,8,,,,,,,,6,,,,55,92
26520,note_on,80,0,15,,,,,,,,14,,,,43,45
26520,note_on,40,0,12,,,,,,,,11,,,,55,75
26520,note_on,40,0,11,,,,,,,,10,,,,67,110
26520,note_on,160,0,13,,,,,,,,12,,,,55,75
26520,note_on,40,0,5,,,,,,,,3,,,,81,108
26520,note_on,40,0,6,,,,,,,,4,,,,67,108
26520,note_on,40,0,7,,,,,,,,5,,,,55,92
26600,note_off,80,0,6,,,,,,,,4,,,,67,64
26600,note_off,80,0,8,,,,,,,,6,,,,55,64
26600,note_off,80,0,10,,,,,,,,8,,,,81,64
26600,note_off,80,0,5,,,,,,,,3,,,,81,64
26600,note_off,80,0,9,,,,,,,,7,,,,43,64
26600,note_off,80,0,14,,,,,,,,13,,,,43,64
26600,note_off,80,0,12,,,,,,,,11,,,,55,64
26600,note_off,80,0,7,,,,,,,,5,,,,55,64
26600,note_off,80,0,11,,,,,,,,10,,,,67,64
26600,note_off,80,0,13,,,,,,,,12,,,,55,64
26640,note_on,40,0,7,,,,,,,,5,,,,55,92
26640,note_on,40,0,5,,,,,,,,3,,,,79,108
26640,note_on,40,0,10,,,,,,,,8,,,,79,75
26640,note_on,40,0,12,,,,,,,,11,,,,55,75
26640,note_on,40,0,11,,,,,,,,10,,,,67,110
26640,note_on,40,0,6,,,,,,,,4,,,,67,108
26720,note_off,80,0,10,,,,,,,,8,,,,79,64
26720,note_off,80,0,11,,,,,,,,10,,,,67,64
26720,note_off,80,0,7,,,,,,,,5,,,,55,64
26720,note_off,80,0,5,,,,,,,,3,,,,79,64
26720,note_off,80,0,6,,,,,,,,4,,,,67,64
26720,note_off,80,0,12,,,,,,,,11,,,,55,64
26760,note_on,40,0,7,,,,,,,,5,,,,55,92
26760,note_on,160,0,8,,,,,,,,6,,,,55,92
26760,note_on,40,0,12,,,,,,,,11,,,,55,75
26760,note_on,160,0,13,,,,,,,,12,,,,55,75
26760,note_on,40,0,10,,,,,,,,8,,,,78,75
26760,note_on,160,0,9,,,,,,,,7,,,,43,75
26760,note_on,40,0,5,,,,,,,,3,,,,78,108
26760,note_on,160,0,14,,,,,,,,13,,,,43,75
26760,note_on,40,0,11,,,,,,,,10,,,,67,110
26760,note_on,40,0,6,,,,,,,,4,,,,67,108
26840,note_off,80,0,13,,,,,,,,12,,,,55,64
26840,note_off,80,0,11,,,,,,,,10,,,,67,64
26840,note_off,80,0,14,,,,,,,,13,,,,43,64
26840,note_off,80,0,12,,,,,,,,11,,,,55,64
26840,note_off,80,0,10,,,,,,,,8,,,,78,64
26840,note_off,80,0,7,,,,,,,,5,,,,55,64
26840,note_off,80,0,5,,,,,,,,3,,,,78,64
26840,note_off,80,0,9,,,,,,,,7,,,,43,64
26840,note_off,80,0,6,,,,,,,,4,,,,67,64
26840,note_off,80,0,8,,,,,,,,6,,,,55,64
26880,note_on,40,0,11,,,,,,,,10,,,,67,110
26880,note_on,40,0,5,,,,,,,,3,,,,76,108
26880,note_on,40,0,6,,,,,,,,4,,,,67,108
26880,note_on,40,0,12,,,,,,,,11,,,,55,75
26880,note_on,40,0,7,,,,,,,,5,,,,55,92
26880,note_on,40,0,10,,,,,,,,8,,,,76,75
26920,note_off,400,0,15,,,,,,,,14,,,,43,64
26960,note_off,80,0,12,,,,,,,,11,,,,55,64
26960,note_off,80,0,10,,,,,,,,8,,,,76,64
26960,note_off,80,0,7,,,,,,,,5,,,,55,64
26960,note_off,80,0,11,,,,,,,,10,,,,67,64
26960,note_off,80,0,5,,,,,,,,3,,,,76,64
26960,note_off,80,0,6,,,,,,,,4,,,,67,64
27000,note_on,160,0,14,,,,,,,,13,,,,43,75
27000,note_on,40,0,11,,,,,,,,10,,,,67,110
27000,note_on,40,0,5,,,,,,,,3,,,,74,108
27000,note_on,160,0,9,,,,,,,,7,,,,43,75
27000,note_on,80,0,15,,,,,,,,14,,,,43,45
27000,note_on,40,0,12,,,,,,,,11,,,,55,75
27000,note_on,40,0,7,,,,,,,,5,,,,55,92
27000,note_on,40,0,10,,,,,,,,8,,,,74,75
27000,note_on,160,0,13,,,,,,,,12,,,,55,75
27000,note_on,160,0,8,,,,,,,,6,,,,55,92
27000,note_on,40,0,6,,,,,,,,4,,,,67,108
27080,note_off,80,0,7,,,,,,,,5,,,,55,64
27080,note_off,80,0,6,,,,,,,,4,,,,67,64
27080,note_off,80,0,14,,,,,,,,13,,,,43,64
27080,note_off,80,0,8,,,,,,,,6,,,,55,64
27080,note_off,80,0,11,,,,,,,,10,,,,67,64
27080,note_off,80,0,10,,,,,,,,8,,,,74,64
27080,note_off,80,0,9,,,,,,,,7,,,,43,64
27080,note_off,80,0,13,,,,,,,,12,,,,55,64
27080,note_off,80,0,5,,,,,,,,3,,,,74,64
27080,note_off,80,0,12,,,,,,,,11,,,,55,64
27120,note_on,40,0,7,,,,,,,,5,,,,55,92
27120,note_on,40,0,5,,,,,,,,3,,,,72,108
27120,note_on,40,0,6,,,,,,,,4,,,,67,108
27120,note_on,40,0,10,,,,,,,,8,,,,72,75
27120,note_on,40,0,11,,,,,,,,10,,,,67,110
27120,note_on,40,0,12,,,,,,,,11,,,,55,75
27200,note_off,80,0,12,,,,,,,,11,,,,55,64
27200,note_off,80,0,7,,,,,,,,5,,,,55,64
27200,note_off,80,0,11,,,,,,,,10,,,,67,64
27200,note_off,80,0,10,,,,,,,,8,,,,72,64
27200,note_off,80,0,6,,,,,,,,4,,,,67,64
27200,note_off,80,0,5,,,,,,,,3,,,,72,64
27240,note_on,160,0,9,,,,,,,,7,,,,43,75
27240,note_on,160,0,14,,,,,,,,13,,,,43,75
27240,note_on,160,0,8,,,,,,,,6,,,,55,92
27240,note_on,40,0,7,,,,,,,,5,,,,55,92
27240,note_on,40,0,10,,,,,,,,8,,,,70,75
27240,note_on,40,0,5,,,,,,,,3,,,,70,108
27240,note_on,40,0,6,,,,,,,,4,,,,67,108
27240,note_on,40,0,11,,,,,,,,10,,,,67,110
27240,note_on,40,0,12,,,,,,,,11,,,,55,75
27240,note_on,160,0,13,,,,,,,,12,,,,55,75
27320,note_off,80,0,8,,,,,,,,6,,,,55,64
27320,note_off,80,0,13,,,,,,,,12,,,,55,64
27320,note_off,80,0,6,,,,,,,,4,,,,67,64
27320,note_off,80,0,14,,,,,,,,13,,,,43,64
27320,note_off,80,0,9,,,,,,,,7,,,,43,64
27320,note_off,80,0,10,,,,,,,,8,,,,70,64
27320,note_off,80,0,5,,,,,,,,3,,,,70,64
27320,note_off,80,0,7,,,,,,,,5,,,,55,64
27320,note_off,80,0,12,,,,,,,,11,,,,55,64
27320,note_off,80,0,11,,,,,,,,10,,,,67,64
27360,note_on,40,0,7,,,,,,,,5,,,,55,92
27360,note_on,40,0,5,,,,,,,,3,,,,69,108
27360,note_on,40,0,12,,,,,,,,11,,,,55,75
27360,note_on,40,0,10,,,,,,,,8,,,,69,75
27360,note_on,40,0,6,,,,,,,,4,,,,67,108
27360,note_on,40,0,11,,,,,,,,10,,,,67,110
27400,note_off,400,0,15,,,,,,,,14,,,,43,64
27440,note_off,80,0,11,,,,,,,,10,,,,67,64
27440,note_off,80,0,12,,,,,,,,11,,,,55,64
27440,note_off,80,0,7,,,,,,,,5,,,,55,64
27440,note_off,80,0,5,,,,,,,,3,,,,69,64
27440,note_off,80,0,10,,,,,,,,8,,,,69,64
27440,note_off,80,0,6,,,,,,,,4,,,,67,64
27480,note_on,160,0,14,,,,,,,,13,,,,43,75
27480,note_on,160,0,8,,,,,,,,6,,,,55,92
27480,note_on,40,0,6,,,,,,,,4,,,,67,108
27480,note_on,40,0,12,,,,,,,,11,,,,55,75
27480,note_on,40,0,10,,,,,,,,8,,,,67,75
27480,note_on,160,0,9,,,,,,,,7,,,,43,75
27480,note_on,160,0,13,,,,,,,,12,,,,55,75
27480,note_on,40,0,11,,,,,,,,10,,,,67,110
27480,note_on,40,0,5,,,,,,,,3,,,,67,108
27480,note_on,80,0,15,,,,,,,,14,,,,43,45
27480,note_on,40,0,7,,,,,,,,5,,,,55,92
27560,note_off,80,0,8,,,,,,,,6,,,,55,64
27560,note_off,80,0,6,,,,,,,,4,,,,67,64
27560,note_off,80,0,12,,,,,,,,11,,,,55,64
27560,note_off,80,0,5,,,,,,,,3,,,,67,64
27560,note_off,80,0,9,,,,,,,,7,,,,43,64
27560,note_off,80,0,13,,,,,,,,12,,,,55,64
27560,note_off,80,0,7,,,,,,,,5,,,,55,64
27560,note_off,80,0,11,,,,,,,,10,,,,67,64
27560,note_off,80,0,10,,,,,,,,8,,,,67,64
27560,note_off,80,0,14,,,,,,,,13,,,,43,64
27600,note_on,40,0,12,,,,,,,,11,,,,55,75
27600,note_on,40,0,5,,,,,,,,3,,,,67,108
27600,note_on,40,0,11,,,,,,,,10,,,,86,110
27600,note_on,40,0,10,,,,,,,,8,,,,67,75
27600,note_on,40,0,7,,,,,,,,5,,,,55,92
27600,note_on,40,0,6,,,,,,,,4,,,,86,108
27680,note_off,80,0,7,,,,,,,,5,,,,55,64
27680,note_off,80,0,11,,,,,,,,10,,,,86,64
27680,note_off,80,0,5,,,,,,,,3,,,,67,64
27680,note_off,80,0,6,,,,,,,,4,,,,86,64
27680,note_off,80,0,10,,,,,,,,8,,,,67,64
27680,note_off,80,0,12,,,,,,,,11,,,,55,64
27720,note_on,40,0,11,,,,,,,,10,,,,84,110
27720,note_on,160,0,13,,,,,,,,12,,,,55,75
27720,note_on,40,0,6,,,,,,,,4,,,,84,108
27720,note_on,40,0,7,,,,,,,,5,,,,55,92
27720,note_on,160,0,8,,,,,,,,6,,,,55,92
27720,note_on,40,0,10,,,,,,,,8,,,,67,75
27720,note_on,40,0,5,,,,,,,,3,,,,67,108
27720,note_on,160,0,14,,,,,,,,13,,,,43,75
27720,note_on,160,0,9,,,,,,,,7,,,,43,75
27720,note_on,40,0,12,,,,,,,,11,,,,55,75
27800,note_off,80,0,7,,,,,,,,5,,,,55,64
27800,note_off,80,0,5,,,,,,,,3,,,,67,64
27800,note_off,80,0,11,,,,,,,,10,,,,84,64
27800,note_off,80,0,9,,,,,,,,7,,,,43,64
27800,note_off,80,0,12,,,,,,,,11,,,,55,64
27800,note_off,80,0,14,,,,,,,,13,,,,43,64
27800,note_off,80,0,10,,,,,,,,8,,,,67,64
27800,note_off,80,0,6,,,,,,,,4,,,,84,64
27800,note_off,80,0,13,,,,,,,,12,,,,55,64
27800,note_off,80,0,8,,,,,,,,6,,,,55,64
27840,note_on,40,0,6,,,,,,,,4,,,,82,108
27840,note_on,40,0,11,,,,,,,,10,,,,82,110
27840,note_on,40,0,12,,,,,,,,11,,,,55,75
27840,note_on,40,0,5,,,,,,,,3,,,,67,108
27840,note_on,40,0,7,,,,,,,,5,,,,55,92
27840,note_on,40,0,10,,,,,,,,8,,,,67,75
27880,note_off,400,0,15,,,,,,,,14,,,,43,64
27920,note_off,80,0,7,,,,,,,,5,,,,55,64
27920,note_off,80,0,5,,,,,,,,3,,,,67,64
27920,note_off,80,0,10,,,,,,,,8,,,,67,64
27920,note_off,80,0,11,,,,,,,,10,,,,82,64
27920,note_off,80,0,12,,,,,,,,11,,,,55,64
27920,note_off,80,0,6,,,,,,,,4,,,,82,64
27960,note_on,40,0,11,,,,,,,,10,,,,81,110
27960,note_on,40,0,7,,,,,,,,5,,,,55,92
27960,note_on,40,0,10,,,,,,,,8,,,,67,75
27960,note_on,160,0,14,,,,,,,,13,,,,43,75
27960,note_on,80,0,15,,,,,,,,14,,,,43,45
27960,note_on,160,0,8,,,,,,,,6,,,,55,92
27960,note_on,40,0,6,,,,,,,,4,,,,81,108
27960,note_on,160,0,13,,,,,,,,12,,,,55,75
27960,note_on,160,0,9,,,,,,,,7,,,,43,75
27960,note_on,40,0,12,,,,,,,,11,,,,55,75
27960,note_on,40,0,5,,,,,,,,3,,,,67,108
28040,note_off,80,0,8,,,,,,,,6,,,,55,64
28040,note_off,80,0,9,,,,,,,,7,,,,43,64
28040,note_off,80,0,12,,,,,,,,11,,,,55,64
28040,note_off,80,0,11,,,,,,,,10,,,,81,64
28040,note_off,80,0,13,,,,,,,,12,,,,55,64
28040,note_off,80,0,5,,,,,,,,3,,,,67,64
28040,note_off,80,0,14,,,,,,,,13,,,,43,64
28040,note_off,80,0,6,,,,,,,,4,,,,81,64
28040,note_off,80,0,10,,,,,,,,8,,,,67,64
28040,note_off,80,0,7,,,,,,,,5,,,,55,64
28080,note_on,40,0,7,,,,,,,,5,,,,55,92
28080,note_on,40,0,6,,,,,,,,4,,,,79,108
28080,note_on,40,0,12,,,,,,,,11,,,,55,75
28080,note_on,40,0,11,,,,,,,,10,,,,79,110
28080,note_on,40,0,10,,,,,,,,8,,,,67,75
28080,note_on,40,0,5,,,,,,,,3,,,,67,108
28160,note_off,80,0,11,,,,,,,,10,,,,79,64
28160,note_off,80,0,5,,,,,,,,3,,,,67,64
28160,note_off,80,0,7,,,,,,,,5,,,,55,64
28160,note_off,80,0,6,,,,,,,,4,,,,79,64
28160,note_off,80,0,12,,,,,,,,11,,,,55,64
28160,note_off,80,0,10,,,,,,,,8,,,,67,64
28200,note_on,40,0,6,,,,,,,,4,,,,78,108
28200,note_on,40,0,7,,,,,,,,5,,,,55,92
28200,note_on,160,0,13,,,,,,,,12,,,,55,75
28200,note_on,40,0,5,,,,,,,,3,,,,67,108
28200,note_on,40,0,10,,,,,,,,8,,,,67,75
28200,note_on,160,0,9,,,,,,,,7,,,,43,75
28200,note_on,160,0,8,,,,,,,,6,,,,55,92
28200,note_on,40,0,11,,,,,,,,10,,,,78,110
28200,note_on,160,0,14,,,,,,,,13,,,,43,75
28200,note_on,40,0,12,,,,,,,,11,,,,55,75
28280,note_off,80,0,8,,,,,,,,6,,,,55,64
28280,note_off,80,0,10,,,,,,,,8,,,,67,64
28280,note_off,80,0,5,,,,,,,,3,,,,67,64
28280,note_off,80,0,7,,,,,,,,5,,,,55,64
28280,note_off,80,0,13,,,,,,,,12,,,,55,64
28280,note_off,80,0,12,,,,,,,,11,,,,55,64
28280,note_off,80,0,14,,,,,,,,13,,,,43,64
28280,note_off,80,0,9,,,,,,,,7,,,,43,64
28280,note_off,80,0,11,,,,,,,,10,,,,78,64
28280,note_off,80,0,6,,,,,,,,4,,,,78,64
28320,note_on,40,0,10,,,,,,,,8,,,,67,75
28320,note_on,40,0,12,,,,,,,,11,,,,55,75
28320,note_on,40,0,11,,,,,,,,10,,,,76,110
28320,note_on,40,0,5,,,,,,,,3,,,,67,108
28320,note_on,40,0,6,,,,,,,,4,,,,76,108
28320,note_on,40,0,7,,,,,,,,5,,,,55,92
28360,note_off,400,0,15,,,,,,,,14,,,,43,64
28400,note_off,80,0,5,,,,,,,,3,,,,67,64
28400,note_off,80,0,7,,,,,,,,5,,,,55,64
28400,note_off,80,0,11,,,,,,,,10,,,,76,64
28400,note_off,80,0,6,,,,,,,,4,,,,76,64
28400,note_off,80,0,10,,,,,,,,8,,,,67,64
28400,note_off,80,0,12,,,,,,,,11,,,,55,64
28440,note_on,40,0,12,,,,,,,,11,,,,55,75
28440,note_on,40,0,6,,,,,,,,4,,,,74,108
28440,note_on,40,0,10,,,,,,,,8,,,,67,75
28440,note_on,160,0,13,,,,,,,,12,,,,55,75
28440,note_on,40,0,5,,,,,,,,3,,,,67,108
28440,note_on,40,0,7,,,,,,,,5,,,,55,92
28440,note_on,160,0,8,,,,,,,,6,,,,55,92
28440,note_on,160,0,14,,,,,,,,13,,,,43,75
28440,note_on,40,0,11,,,,,,,,10,,,,74,110
28440,note_on,80,0,15,,,,,,,,14,,,,43,45
28440,note_on,160,0,9,,,,,,,,7,,,,43,75
28520,note_off,80,0,14,,,,,,,,13,,,,43,64
28520,note_off,80,0,12,,,,,,,,11,,,,55,64
28520,note_off,80,0,6,,,,,,,,4,,,,74,64
28520,note_off,80,0,9,,,,,,,,7,,,,43,64
28520,note_off,80,0,7,,,,,,,,5,,,,55,64
28520,note_off,80,0,10,,,,,,,,8,,,,67,64
28520,note_off,80,0,5,,,,,,,,3,,,,67,64
28520,note_off,80,0,13,,,,,,,,12,,,,55,64
28520,note_off,80,0,11,,,,,,,,10,,,,74,64
28520,note_off,80,0,8,,,,,,,,6,,,,55,64
28560,note_on,40,0,5,,,,,,,,3,,,,67,108
28560,note_on,40,0,10,,,,,,,,8,,,,67,75
28560,note_on,40,0,12,,,,,,,,11,,,,55,75
28560,note_on,40,0,11,,,,,,,,10,,,,72,110
28560,note_on,40,0,6,,,,,,,,4,,,,72,108
28560,note_on,40,0,7,,,,,,,,5,,,,55,92
28640,note_off,80,0,6,,,,,,,,4,,,,72,64
28640,note_off,80,0,11,,,,,,,,10,,,,72,64
28640,note_off,80,0,10,,,,,,,,8,,,,67,64
28640,note_off,80,0,7,,,,,,,,5,,,,55,64
28640,note_off,80,0,5,,,,,,,,3,,,,67,64
28640,note_off,80,0,12,,,,,,,,11,,,,55,64
28680,note_on,40,0,12,,,,,,,,11,,,,55,75
28680,note_on,40,0,10,,,,,,,,8,,,,67,75
28680,note_on,160,0,9,,,,,,,,7,,,,43,75
28680,note_on,40,0,6,,,,,,,,4,,,,70,108
28680,note_on,160,0,13,,,,,,,,12,,,,55,75
28680,note_on,40,0,11,,,,,,,,10,,,,70,110
28680,note_on,40,0,5,,,,,,,,3,,,,67,108
28680,note_on,160,0,14,,,,,,,,13,,,,43,75
28680,note_on,40,0,7,,,,,,,,5,,,,55,92
28680,note_on,160,0,8,,,,,,,,6,,,,55,92
28760,note_off,80,0,6,,,,,,,,4,,,,70,64
28760,note_off,80,0,8,,,,,,,,6,,,,55,64
28760,note_off,80,0,13,,,,,,,,12,,,,55,64
28760,note_off,80,0,10,,,,,,,,8,,,,67,64
28760,note_off,80,0,7,,,,,,,,5,,,,55,64
28760,note_off,80,0,11,,,,,,,,10,,,,70,64
28760,note_off,80,0,12,,,,,,,,11,,,,55,64
28760,note_off,80,0,9,,,,,,,,7,,,,43,64
28760,note_off,80,0,5,,,,,,,,3,,,,67,64
28760,note_off,80,0,14,,,,,,,,13,,,,43,64
28800,note_on,40,0,10,,,,,,,,8,,,,67,75
28800,note_on,40,0,12,,,,,,,,11,,,,55,75
28800,note_on,40,0,6,,,,,,,,4,,,,69,108
28800,note_on,40,0,5,,,,,,,,3,,,,67,108
28800,note_on,40,0,11,,,,,,,,10,,,,69,110
28800,note_on,40,0,7,,,,,,,,5,,,,55,92
28840,note_off,400,0,15,,,,,,,,14,,,,43,64
28880,note_off,80,0,11,,,,,,,,10,,,,69,64
28880,note_off,80,0,5,,,,,,,,3,,,,67,64
28880,note_off,80,0,6,,,,,,,,4,,,,69,64
28880,note_off,80,0,10,,,,,,,,8,,,,67,64
28880,note_off,80,0,7,,,,,,,,5,,,,55,64
28880,note_off,80,0,12,,,,,,,,11,,,,55,64
28920,note_on,40,0,5,,,,,,,,3,,,,74,108
28920,note_on,40,0,10,,,,,,,,8,,,,74,75
28920,note_on,160,0,14,,,,,,,,13,,,,31,75
28920,note_on,160,0,9,,,,,,,,7,,,,31,75
28920,note_on,80,0,15,,,,,,,,14,,,,31,45
28920,note_on,40,0,11,,,,,,,,10,,,,67,110
28920,note_on,160,0,8,,,,,,,,6,,,,43,92
28920,note_on,40,0,6,,,,,,,,4,,,,67,108
28920,note_on,160,0,13,,,,,,,,12,,,,43,75
29000,note_off,80,0,10,,,,,,,,8,,,,74,64
29000,note_off,80,0,8,,,,,,,,6,,,,43,64
29000,note_off,80,0,5,,,,,,,,3,,,,74,64
29000,note_off,80,0,6,,,,,,,,4,,,,67,64
29000,note_off,80,0,13,,,,,,,,12,,,,43,64
29000,note_off,80,0,11,,,,,,,,10,,,,67,64
29040,note_on,40,0,6,,,,,,,,4,,,,55,108
29040,note_on,40,0,8,,,,,,,,6,,,,43,92
29040,note_on,40,0,11,,,,,,,,10,,,,55,110
29040,note_on,40,0,13,,,,,,,,12,,,,43,75
29040,note_on,40,0,5,,,,,,,,3,,,,67,108
29040,note_on,40,0,10,,,,,,,,8,,,,67,75
29120,note_off,80,0,8,,,,,,,,6,,,,43,64
29120,note_off,80,0,5,,,,,,,,3,,,,67,64
29120,note_off,80,0,13,,,,,,,,12,,,,43,64
29120,note_off,80,0,10,,,,,,,,8,,,,67,64
29120,note_off,80,0,11,,,,,,,,10,,,,55,64
29120,note_off,80,0,6,,,,,,,,4,,,,55,64
29160,note_on,40,0,6,,,,,,,,4,,,,55,108
29160,note_on,40,0,5,,,,,,,,3,,,,67,108
29160,note_on,40,0,8,,,,,,,,6,,,,43,92
29160,note_on,40,0,13,,,,,,,,12,,,,43,75
29160,note_on,40,0,10,,,,,,,,8,,,,67,75
29160,note_on,40,0,11,,,,,,,,10,,,,55,110
29240,note_off,80,0,10,,,,,,,,8,,,,67,64
29240,note_off,80,0,13,,,,,,,,12,,,,43,64
29240,note_off,80,0,8,,,,,,,,6,,,,43,64
29240,note_off,80,0,5,,,,,,,,3,,,,67,64
29240,note_off,80,0,11,,,,,,,,10,,,,55,64
29240,note_off,80,0,6,,,,,,,,4,,,,55,64
29280,note_on,40,0,11,,,,,,,,10,,,,55,110
29280,note_on,40,0,10,,,,,,,,8,,,,67,75
29280,note_on,40,0,5,,,,,,,,3,,,,67,108
29280,note_on,40,0,6,,,,,,,,4,,,,55,108
29280,note_on,40,0,13,,,,,,,,12,,,,43,75
29280,note_on,40,0,8,,,,,,,,6,,,,43,92
29320,note_off,400,0,14,,,,,,,,13,,,,31,64
29320,note_off,400,0,9,,,,,,,,7,,,,31,64
29320,note_off,400,0,15,,,,,,,,14,,,,31,64
29360,note_off,80,0,5,,,,,,,,3,,,,67,64
29360,note_off,80,0,11,,,,,,,,10,,,,55,64
29360,note_off,80,0,10,,,,,,,,8,,,,67,64
29360,note_off,80,0,13,,,,,,,,12,,,,43,64
29360,note_off,80,0,8,,,,,,,,6,,,,43,64
29360,note_off,80,0,6,,,,,,,,4,,,,55,64
29400,note_on,40,0,6,,,,,,,,4,,,,62,108
29400,note_on,40,0,11,,,,,,,,10,,,,62,110
29400,note_on,40,0,13,,,,,,,,12,,,,50,75
29400,note_on,80,0,15,,,,,,,,14,,,,31,45
29400,note_on,80,0,14,,,,,,,,13,,,,31,75
29400,note_on,40,0,10,,,,,,,,8,,,,74,75
29400,note_on,40,0,5,,,,,,,,3,,,,74,108
29400,note_on,40,0,8,,,,,,,,6,,,,50,92
29400,note_on,80,0,9,,,,,,,,7,,,,31,75
29480,note_off,80,0,13,,,,,,,,12,,,,50,64
29480,note_off,80,0,10,,,,,,,,8,,,,74,64
29480,note_off,80,0,6,,,,,,,,4,,,,62,64
29480,note_off,80,0,8,,,,,,,,6,,,,50,64
29480,note_off,80,0,11,,,,,,,,10,,,,62,64
29480,note_off,80,0,5,,,,,,,,3,,,,74,64
29520,note_on,40,0,8,,,,,,,,6,,,,43,92
29520,note_on,40,0,10,,,,,,,,8,,,,67,75
29520,note_on,40,0,11,,,,,,,,10,,,,55,110
29520,note_on,40,0,5,,,,,,,,3,,,,67,108
29520,note_on,40,0,6,,,,,,,,4,,,,55,108
29520,note_on,40,0,13,,,,,,,,12,,,,43,75
29600,note_off,80,0,13,,,,,,,,12,,,,43,64
29600,note_off,80,0,10,,,,,,,,8,,,,67,64
29600,note_off,80,0,5,,,,,,,,3,,,,67,64
29600,note_off,80,0,8,,,,,,,,6,,,,43,64
29600,note_off,80,0,6,,,,,,,,4,,,,55,64
29600,note_off,80,0,11,,,,,,,,10,,,,55,64
29640,note_on,40,0,8,,,,,,,,6,,,,43,92
29640,note_on,40,0,11,,,,,,,,10,,,,55,110
29640,note_on,40,0,5,,,,,,,,3,,,,67,108
29640,note_on,40,0,6,,,,,,,,4,,,,55,108
29640,note_on,40,0,13,,,,,,,,12,,,,43,75
29640,note_on,40,0,10,,,,,,,,8,,,,67,75
29720,note_off,80,0,8,,,,,,,,6,,,,43,64
29720,note_off,80,0,13,,,,,,,,12,,,,43,64
29720,note_off,80,0,10,,,,,,,,8,,,,67,64
29720,note_off,80,0,5,,,,,,,,3,,,,67,64
29720,note_off,80,0,11,,,,,,,,10,,,,55,64
29720,note_off,80,0,6,,,,,,,,4,,,,55,64
29760,note_on,40,0,11,,,,,,,,10,,,,55,110
29760,note_on,40,0,13,,,,,,,,12,,,,43,75
29760,note_on,40,0,6,,,,,,,,4,,,,55,108
29760,note_on,40,0,10,,,,,,,,8,,,,67,75
29760,note_on,40,0,8,,,,,,,,6,,,,43,92
29760,note_on,40,0,5,,,,,,,,3,,,,67,108
29800,note_off,400,0,9,,,,,,,,7,,,,31,64
29800,note_off,400,0,14,,,,,,,,13,,,,31,64
29800,note_off,400,0,15,,,,,,,,14,,,,31,64
29840,note_off,80,0,6,,,,,,,,4,,,,55,64
29840,note_off,80,0,10,,,,,,,,8,,,,67,64
29840,note_off,80,0,5,,,,,,,,3,,,,67,64
29840,note_off,80,0,8,,,,,,,,6,,,,43,64
29840,note_off,80,0,11,,,,,,,,10,,,,55,64
29840,note_off,80,0,13,,,,,,,,12,,,,43,64
29880,note_on,80,0,15,,,,,,,,14,,,,31,45
29880,note_on,40,0,6,,,,,,,,4,,,,62,108
29880,note_on,40,0,8,,,,,,,,6,,,,50,92
29880,note_on,40,0,5,,,,,,,,3,,,,74,108
29880,note_on,40,0,11,,,,,,,,10,,,,62,110
29880,note_on,80,0,14,,,,,,,,13,,,,31,75
29880,note_on,40,0,13,,,,,,,,12,,,,50,75
29880,note_on,80,0,9,,,,,,,,7,,,,31,75
29880,note_on,40,0,10,,,,,,,,8,,,,74,75
29960,note_off,80,0,6,,,,,,,,4,,,,62,64
29960,note_off,80,0,8,,,,,,,,6,,,,50,64
29960,note_off,80,0,11,,,,,,,,10,,,,62,64
29960,note_off,80,0,10,,,,,,,,8,,,,74,64
29960,note_off,80,0,13,,,,,,,,12,,,,50,64
29960,note_off,80,0,5,,,,,,,,3,,,,74,64
30000,note_on,40,0,10,,,,,,,,8,,,,67,75
30000,note_on,40,0,6,,,,,,,,4,,,,55,108
30000,note_on,40,0,11,,,,,,,,10,,,,55,110
30000,note_on,40,0,5,,,,,,,,3,,,,67,108
30000,note_on,40,0,8,,,,,,,,6,,,,43,92
30000,note_on,40,0,13,,,,,,,,12,,,,43,75
30080,note_off,80,0,10,,,,,,,,8,,,,67,64
30080,note_off,80,0,5,,,,,,,,3,,,,67,64
30080,note_off,80,0,13,,,,,,,,12,,,,43,64
30080,note_off,80,0,6,,,,,,,,4,,,,55,64
30080,note_off,80,0,8,,,,,,,,6,,,,43,64
30080,note_off,80,0,11,,,,,,,,10,,,,55,64
30120,note_on,40,0,11,,,,,,,,10,,,,55,110
30120,note_on,40,0,10,,,,,,,,8,,,,67,75
30120,note_on,40,0,13,,,,,,,,12,,,,43,75
30120,note_on,40,0,6,,,,,,,,4,,,,55,108
30120,note_on,40,0,8,,,,,,,,6,,,,43,92
30120,note_on,40,0,5,,,,,,,,3,,,,67,108
30200,note_off,80,0,13,,,,,,,,12,,,,43,64
30200,note_off,80,0,11,,,,,,,,10,,,,55,64
30200,note_off,80,0,5,,,,,,,,3,,,,67,64
30200,note_off,80,0,8,,,,,,,,6,,,,43,64
30200,note_off,80,0,10,,,,,,,,8,,,,67,64
30200,note_off,80,0,6,,,,,,,,4,,,,55,64
30240,note_on,40,0,8,,,,,,,,6,,,,43,92
30240,note_on,40,0,10,,,,,,,,8,,,,67,75
30240,note_on,40,0,13,,,,,,,,12,,,,43,75
30240,note_on,40,0,5,,,,,,,,3,,,,67,108
30240,note_on,40,0,11,,,,,,,,10,,,,55,110
30240,note_on,40,0,6,,,,,,,,4,,,,55,108
30280,note_off,400,0,9,,,,,,,,7,,,,31,64
30280,note_off,400,0,14,,,,,,,,13,,,,31,64
30280,note_off,400,0,15,,,,,,,,14,,,,31,64
30320,note_off,80,0,8,,,,,,,,6,,,,43,64
30320,note_off,80,0,11,,,,,,,,10,,,,55,64
30320,note_off,80,0,5,,,,,,,,3,,,,67,64
30320,note_off,80,0,13,,,,,,,,12,,,,43,64
30320,note_off,80,0,10,,,,,,,,8,,,,67,64
30320,note_off,80,0,6,,,,,,,,4,,,,55,64
30360,note_on,40,0,8,,,,,,,,6,,,,50,92
30360,note_on,40,0,5,,,,,,,,3,,,,62,108
30360,note_on,80,0,9,,,,,,,,7,,,,38,75
30360,note_on,1480,0,12,,,,,,,,11,,,,66,75
30360,note_on,1480,0,7,,,,,,,,5,,,,66,92
30360,note_on,80,0,15,,,,,,,,14,,,,38,45
30360,note_on,80,0,14,,,,,,,,13,,,,38,75
30360,note_on,40,0,13,,,,,,,,12,,,,50,75
30360,note_on,40,0,10,,,,,,,,8,,,,62,75
30360,note_on,40,0,6,,,,,,,,4,,,,62,108
30360,note_on,40,0,11,,,,,,,,10,,,,62,110
30440,note_off,80,0,13,,,,,,,,12,,,,50,64
30440,note_off,80,0,8,,,,,,,,6,,,,50,64
30440,note_off,80,0,14,,,,,,,,13,,,,38,64
30440,note_off,80,0,5,,,,,,,,3,,,,62,64
30440,note_off,80,0,11,,,,,,,,10,,,,62,64
30440,note_off,80,0,6,,,,,,,,4,,,,62,64
30440,note_off,80,0,9,,,,,,,,7,,,,38,64
30440,note_off,80,0,10,,,,,,,,8,,,,62,64
30480,note_on,40,0,13,,,,,,,,12,,,,62,75
30480,note_on,40,0,8,,,,,,,,6,,,,62,92
30480,note_on,40,0,11,,,,,,,,10,,,,66,110
30480,note_on,40,0,10,,,,,,,,8,,,,69,75
30480,note_on,40,0,6,,,,,,,,4,,,,66,108
30480,note_on,40,0,5,,,,,,,,3,,,,69,108
30560,note_off,80,0,13,,,,,,,,12,,,,62,64
30560,note_off,80,0,8,,,,,,,,6,,,,62,64
30600,note_on,0,0,10,,,,,,,,8,,,,70,75
30600,note_on,0,0,6,,,,,,,,4,,,,67,108
30600,note_on,40,0,8,,,,,,,,6,,,,50,92
30600,note_on,160,0,14,,,,,,,,13,,,,50,75
30600,note_off,120,0,10,,,,,,,,8,,,,69,64
30600,note_off,120,0,5,,,,,,,,3,,,,69,64
30600,note_off,120,0,6,,,,,,,,4,,,,66,64
30600,note_on,160,0,9,,,,,,,,7,,,,50,75
30600,note_on,0,0,5,,,,,,,,3,,,,70,108
30600,note_off,120,0,11,,,,,,,,10,,,,66,64
30600,note_on,0,0,11,,,,,,,,10,,,,67,110
30600,note_on,40,0,13,,,,,,,,12,,,,50,75
30680,note_off,80,0,14,,,,,,,,13,,,,50,64
30680,note_off,80,0,8,,,,,,,,6,,,,50,64
30680,note_off,80,0,9,,,,,,,,7,,,,50,64
30680,note_off,80,0,13,,,,,,,,12,,,,50,64
30720,note_off,120,0,5,,,,,,,,3,,,,70,64
30720,note_on,0,0,5,,,,,,,,3,,,,72,108
30720,note_on,0,0,11,,,,,,,,10,,,,69,110
30720,note_on,40,0,13,,,,,,,,12,,,,62,75
30720,note_off,120,0,10,,,,,,,,8,,,,70,64
30720,note_off,120,0,6,,,,,,,,4,,,,67,64
30720,note_off,120,0,11,,,,,,,,10,,,,67,64
30720,note_on,0,0,6,,,,,,,,4,,,,69,108
30720,note_on,0,0,10,,,,,,,,8,,,,72,75
30720,note_on,40,0,8,,,,,,,,6,,,,62,92
30760,note_off,400,0,15,,,,,,,,14,,,,38,64
30760,note_off,400,0,12,,,,,,,,11,,,,66,64
30760,note_off,400,0,7,,,,,,,,5,,,,66,64
30800,note_off,80,0,13,,,,,,,,12,,,,62,64
30800,note_off,80,0,8,,,,,,,,6,,,,62,64
30840,note_on,0,0,5,,,,,,,,3,,,,74,108
30840,note_on,80,0,15,,,,,,,,14,,,,38,45
30840,note_on,0,0,10,,,,,,,,8,,,,74,75
30840,note_off,120,0,10,,,,,,,,8,,,,72,64
30840,note_off,120,0,11,,,,,,,,10,,,,69,64
30840,note_on,0,0,11,,,,,,,,10,,,,70,110
30840,note_off,120,0,5,,,,,,,,3,,,,72,64
30840,note_on,160,0,9,,,,,,,,7,,,,38,75
30840,note_on,40,0,13,,,,,,,,12,,,,50,75
30840,note_on,160,0,14,,,,,,,,13,,,,38,75
30840,note_on,0,0,6,,,,,,,,4,,,,70,108
30840,note_off,120,0,6,,,,,,,,4,,,,69,64
30840,note_on,40,0,8,,,,,,,,6,,,,50,92
30920,note_off,80,0,9,,,,,,,,7,,,,38,64
30920,note_off,80,0,13,,,,,,,,12,,,,50,64
30920,note_off,80,0,8,,,,,,,,6,,,,50,64
30920,note_off,80,0,14,,,,,,,,13,,,,38,64
30960,note_off,120,0,10,,,,,,,,8,,,,74,64
30960,note_on,0,0,10,,,,,,,,8,,,,76,75
30960,note_off,120,0,11,,,,,,,,10,,,,70,64
30960,note_on,40,0,8,,,,,,,,6,,,,62,92
30960,note_off,120,0,5,,,,,,,,3,,,,74,64
30960,note_on,0,0,11,,,,,,,,10,,,,72,110
30960,note_on,0,0,6,,,,,,,,4,,,,72,108
30960,note_off,120,0,6,,,,,,,,4,,,,70,64
30960,note_on,0,0,5,,,,,,,,3,,,,76,108
30960,note_on,40,0,13,,,,,,,,12,,,,62,75
31040,note_off,80,0,13,,,,,,,,12,,,,62,64
31040,note_off,80,0,8,,,,,,,,6,,,,62,64
31080,note_on,40,0,13,,,,,,,,12,,,,50,75
31080,note_off,120,0,5,,,,,,,,3,,,,76,64
31080,note_on,0,0,10,,,,,,,,8,,,,78,75
31080,note_on,0,0,6,,,,,,,,4,,,,74,108
31080,note_off,120,0,6,,,,,,,,4,,,,72,64
31080,note_off,120,0,10,,,,,,,,8,,,,76,64
31080,note_on,0,0,11,,,,,,,,10,,,,74,110
31080,note_off,120,0,11,,,,,,,,10,,,,72,64
31080,note_on,0,0,5,,,,,,,,3,,,,78,108
31080,note_on,160,0,9,,,,,,,,7,,,,50,75
31080,note_on,160,0,14,,,,,,,,13,,,,50,75
31080,note_on,40,0,8,,,,,,,,6,,,,50,92
31160,note_off,80,0,9,,,,,,,,7,,,,50,64
31160,note_off,80,0,8,,,,,,,,6,,,,50,64
31160,note_off,80,0,14,,,,,,,,13,,,,50,64
31160,note_off,80,0,13,,,,,,,,12,,,,50,64
31200,note_off,120,0,5,,,,,,,,3,,,,78,64
31200,note_on,0,0,5,,,,,,,,3,,,,79,108
31200,note_off,120,0,6,,,,,,,,4,,,,74,64
31200,note_on,0,0,6,,,,,,,,4,,,,76,108
31200,note_on,0,0,10,,,,,,,,8,,,,79,75
31200,note_off,120,0,10,,,,,,,,8,,,,78,64
31200,note_on,0,0,11,,,,,,,,10,,,,76,110
31200,note_off,120,0,11,,,,,,,,10,,,,74,64
31200,note_on,40,0,8,,,,,,,,6,,,,62,92
31200,note_on,40,0,13,,,,,,,,12,,,,62,75
31240,note_off,400,0,15,,,,,,,,14,,,,38,64
31280,note_off,80,0,13,,,,,,,,12,,,,62,64
31280,note_off,80,0,8,,,,,,,,6,,,,62,64
31320,note_on,0,0,6,,,,,,,,4,,,,78,108
31320,note_off,120,0,5,,,,,,,,3,,,,79,64
31320,note_off,120,0,11,,,,,,,,10,,,,76,64
31320,note_on,0,0,5,,,,,,,,3,,,,81,108
31320,note_on,80,0,15,,,,,,,,14,,,,38,45
31320,note_on,40,0,8,,,,,,,,6,,,,50,92
31320,note_on,160,0,14,,,,,,,,13,,,,38,75
31320,note_on,0,0,10,,,,,,,,8,,,,81,75
31320,note_off,120,0,10,,,,,,,,8,,,,79,64
31320,note_on,0,0,11,,,,,,,,10,,,,78,110
31320,note_on,160,0,9,,,,,,,,7,,,,38,75
31320,note_on,40,0,13,,,,,,,,12,,,,50,75
31320,note_off,120,0,6,,,,,,,,4,,,,76,64
31400,note_off,80,0,14,,,,,,,,13,,,,38,64
31400,note_off,80,0,13,,,,,,,,12,,,,50,64
31400,note_off,80,0,9,,,,,,,,7,,,,38,64
31400,note_off,80,0,8,,,,,,,,6,,,,50,64
31440,note_on,680,0,12,,,,,,,,11,,,,74,75
31440,note_on,680,0,7,,,,,,,,5,,,,74,92
31440,note_on,40,0,13,,,,,,,,12,,,,62,75
31440,note_on,40,0,8,,,,,,,,6,,,,62,92
31520,note_off,80,0,8,,,,,,,,6,,,,62,64
31520,note_off,80,0,13,,,,,,,,12,,,,62,64
31555,note_off,235,0,11,,,,,,,,10,,,,78,64
31555,note_off,235,0,5,,,,,,,,3,,,,81,64
31555,note_off,235,0,6,,,,,,,,4,,,,78,64
31555,note_off,235,0,10,,,,,,,,8,,,,81,64
31560,note_on,0,0,12,,,,,,,,11,,,,69,75
31560,note_off,120,0,12,,,,,,,,11,,,,74,64
31560,note_on,160,0,9,,,,,,,,7,,,,50,75
31560,note_on,40,0,13,,,,,,,,12,,,,50,75
31560,note_on,160,0,14,,,,,,,,13,,,,50,75
31560,note_on,40,0,8,,,,,,,,6,,,,50,92
31560,note_off,120,0,7,,,,,,,,5,,,,74,64
31560,note_on,0,0,7,,,,,,,,5,,,,69,92
31640,note_off,80,0,14,,,,,,,,13,,,,50,64
31640,note_off,80,0,9,,,,,,,,7,,,,50,64
31640,note_off,80,0,8,,,,,,,,6,,,,50,64
31640,note_off,80,0,13,,,,,,,,12,,,,50,64
31680,note_off,120,0,12,,,,,,,,11,,,,69,64
31680,note_on,0,0,7,,,,,,,,5,,,,66,92
31680,note_off,120,0,7,,,,,,,,5,,,,69,64
31680,note_on,40,0,8,,,,,,,,6,,,,62,92
31680,note_on,40,0,13,,,,,,,,12,,,,62,75
31680,note_on,0,0,12,,,,,,,,11,,,,66,75
31720,note_off,400,0,15,,,,,,,,14,,,,38,64
31760,note_off,80,0,8,,,,,,,,6,,,,62,64
31760,note_off,80,0,13,,,,,,,,12,,,,62,64
31800,note_on,160,0,9,,,,,,,,7,,,,38,75
31800,note_on,80,0,15,,,,,,,,14,,,,38,45
31800,note_on,0,0,7,,,,,,,,5,,,,62,92
31800,note_off,120,0,7,,,,,,,,5,,,,66,64
31800,note_on,0,0,12,,,,,,,,11,,,,62,75
31800,note_on,40,0,13,,,,,,,,12,,,,50,75
31800,note_on,40,0,8,,,,,,,,6,,,,50,92
31800,note_on,160,0,14,,,,,,,,13,,,,38,75
31800,note_off,120,0,12,,,,,,,,11,,,,66,64
31880,note_off,80,0,8,,,,,,,,6,,,,50,64
31880,note_off,80,0,13,,,,,,,,12,,,,50,64
31880,note_off,80,0,14,,,,,,,,13,,,,38,64
31880,note_off,80,0,9,,,,,,,,7,,,,38,64
31920,note_on,40,0,8,,,,,,,,6,,,,60,92
31920,note_on,40,0,13,,,,,,,,12,,,,60,75
31920,note_on,365,0,6,,,,,,,,4,,,,66,108
31920,note_on,365,0,10,,,,,,,,8,,,,69,75
31920,note_on,365,0,5,,,,,,,,3,,,,69,108
31920,note_on,365,0,11,,,,,,,,10,,,,66,110
32000,note_off,80,0,8,,,,,,,,6,,,,60,64
32000,note_off,80,0,13,,,,,,,,12,,,,60,64
32040,note_off,120,0,11,,,,,,,,10,,,,66,64
32040,note_on,0,0,6,,,,,,,,4,,,,67,108
32040,note_on,40,0,8,,,,,,,,6,,,,50,92
32040,note_on,40,0,13,,,,,,,,12,,,,50,75
32040,note_on,0,0,5,,,,,,,,3,,,,70,108
32040,note_off,120,0,5,,,,,,,,3,,,,69,64
32040,note_off,120,0,10,,,,,,,,8,,,,69,64
32040,note_on,160,0,9,,,,,,,,7,,,,48,75
32040,note_on,160,0,14,,,,,,,,13,,,,48,75
32040,note_off,120,0,6,,,,,,,,4,,,,66,64
32040,note_on,0,0,10,,,,,,,,8,,,,70,75
32040,note_on,0,0,11,,,,,,,,10,,,,67,110
32120,note_off,80,0,9,,,,,,,,7,,,,48,64
32120,note_off,80,0,13,,,,,,,,12,,,,50,64
32120,note_off,80,0,14,,,,,,,,13,,,,48,64
32120,note_off,80,0,8,,,,,,,,6,,,,50,64
32160,note_off,120,0,5,,,,,,,,3,,,,70,64
32160,note_on,0,0,5,,,,,,,,3,,,,72,108
32160,note_on,40,0,8,,,,,,,,6,,,,60,92
32160,note_on,0,0,6,,,,,,,,4,,,,69,108
32160,note_off,120,0,6,,,,,,,,4,,,,67,64
32160,note_on,40,0,13,,,,,,,,12,,,,60,75
32160,note_on,0,0,11,,,,,,,,10,,,,69,110
32160,note_off,120,0,10,,,,,,,,8,,,,70,64
32160,note_on,0,0,10,,,,,,,,8,,,,72,75
32160,note_off,120,0,11,,,,,,,,10,,,,67,64
32200,note_off,400,0,12,,,,,,,,11,,,,62,64
32200,note_off,400,0,15,,,,,,,,14,,,,38,64
32200,note_off,400,0,7,,,,,,,,5,,,,62,64
32240,note_off,80,0,13,,,,,,,,12,,,,60,64
32240,note_off,80,0,8,,,,,,,,6,,,,60,64
32280,note_off,120,0,11,,,,,,,,10,,,,69,64
32280,note_on,0,0,11,,,,,,,,10,,,,70,110
32280,note_on,0,0,6,,,,,,,,4,,,,70,108
32280,note_on,0,0,10,,,,,,,,8,,,,74,75
32280,note_on,160,0,14,,,,,,,,13,,,,38,75
32280,note_on,160,0,9,,,,,,,,7,,,,38,75
32280,note_on,0,0,5,,,,,,,,3,,,,74,108
32280,note_off,120,0,5,,,,,,,,3,,,,72,64
32280,note_off,120,0,10,,,,,,,,8,,,,72,64
32280,note_on,80,0,15,,,,,,,,14,,,,38,45
32280,note_on,40,0,13,,,,,,,,12,,,,50,75
32280,note_off,120,0,6,,,,,,,,4,,,,69,64
32280,note_on,40,0,8,,,,,,,,6,,,,50,92
32360,note_off,80,0,9,,,,,,,,7,,,,38,64
32360,note_off,80,0,8,,,,,,,,6,,,,50,64
32360,note_off,80,0,14,,,,,,,,13,,,,38,64
32360,note_off,80,0,13,,,,,,,,12,,,,50,64
32400,note_off,120,0,10,,,,,,,,8,,,,74,64
32400,note_off,120,0,5,,,,,,,,3,,,,74,64
32400,note_on,40,0,13,,,,,,,,12,,,,60,75
32400,note_off,120,0,6,,,,,,,,4,,,,70,64
32400,note_on,0,0,10,,,,,,,,8,,,,76,75
32400,note_off,120,0,11,,,,,,,,10,,,,70,64
32400,note_on,0,0,11,,,,,,,,10,,,,72,110
32400,note_on,40,0,8,,,,,,,,6,,,,60,92
32400,note_on,0,0,6,,,,,,,,4,,,,72,108
32400,note_on,0,0,5,,,,,,,,3,,,,76,108
32480,note_off,80,0,13,,,,,,,,12,,,,60,64
32480,note_off,80,0,8,,,,,,,,6,,,,60,64
32520,note_on,0,0,10,,,,,,,,8,,,,78,75
32520,note_on,160,0,9,,,,,,,,7,,,,48,75
32520,note_off,120,0,10,,,,,,,,8,,,,76,64
32520,note_on,40,0,13,,,,,,,,12,,,,50,75
32520,note_on,0,0,6,,,,,,,,4,,,,74,108
32520,note_off,120,0,11,,,,,,,,10,,,,72,64
32520,note_on,160,0,14,,,,,,,,13,,,,48,75
32520,note_off,120,0,5,,,,,,,,3,,,,76,64
32520,note_on,0,0,5,,,,,,,,3,,,,78,108
32520,note_off,120,0,6,,,,,,,,4,,,,72,64
32520,note_on,40,0,8,,,,,,,,6,,,,50,92
32520,note_on,0,0,11,,,,,,,,10,,,,74,110
32600,note_off,80,0,14,,,,,,,,13,,,,48,64
32600,note_off,80,0,13,,,,,,,,12,,,,50,64
32600,note_off,80,0,9,,,,,,,,7,,,,48,64
32600,note_off,80,0,8,,,,,,,,6,,,,50,64
32640,note_off,120,0,6,,,,,,,,4,,,,74,64
32640,note_on,0,0,6,,,,,,,,4,,,,76,108
32640,note_on,40,0,8,,,,,,,,6,,,,60,92
32640,note_on,0,0,10,,,,,,,,8,,,,79,75
32640,note_off,120,0,5,,,,,,,,3,,,,78,64
32640,note_on,0,0,5,,,,,,,,3,,,,79,108
32640,note_off,120,0,10,,,,,,,,8,,,,78,64
32640,note_on,40,0,13,,,,,,,,12,,,,60,75
32640,note_on,0,0,11,,,,,,,,10,,,,76,110
32640,note_off,120,0,11,,,,,,,,10,,,,74,64
32680,note_off,400,0,15,,,,,,,,14,,,,38,64
32720,note_off,80,0,8,,,,,,,,6,,,,60,64
32720,note_off,80,0,13,,,,,,,,12,,,,60,64
32760,note_on,0,0,6,,,,,,,,4,,,,78,108
32760,note_on,80,0,15,,,,,,,,14,,,,38,45
32760,note_on,0,0,11,,,,,,,,10,,,,78,110
32760,note_off,120,0,11,,,,,,,,10,,,,76,64
32760,note_on,40,0,8,,,,,,,,6,,,,50,92
32760,note_off,120,0,6,,,,,,,,4,,,,76,64
32760,note_on,40,0,13,,,,,,,,12,,,,50,75
32760,note_on,0,0,10,,,,,,,,8,,,,81,75
32760,note_on,0,0,5,,,,,,,,3,,,,81,108
32760,note_off,120,0,5,,,,,,,,3,,,,79,64
32760,note_on,160,0,14,,,,,,,,13,,,,38,75
32760,note_on,160,0,9,,,,,,,,7,,,,38,75
32760,note_off,120,0,10,,,,,,,,8,,,,79,64
32840,note_off,80,0,8,,,,,,,,6,,,,50,64
32840,note_off,80,0,13,,,,,,,,12,,,,50,64
32840,note_off,80,0,9,,,,,,,,7,,,,38,64
32840,note_off,80,0,14,,,,,,,,13,,,,38,64
32880,note_on,680,0,7,,,,,,,,5,,,,74,92
32880,note_on,40,0,8,,,,,,,,6,,,,60,92
32880,note_on,40,0,13,,,,,,,,12,,,,60,75
32880,note_on,680,0,12,,,,,,,,11,,,,74,75
32960,note_off,80,0,8,,,,,,,,6,,,,60,64
32960,note_off,80,0,13,,,,,,,,12,,,,60,64
32995,note_off,235,0,11,,,,,,,,10,,,,78,64
32995,note_off,235,0,6,,,,,,,,4,,,,78,64
32995,note_off,235,0,5,,,,,,,,3,,,,81,64
32995,note_off,235,0,10,,,,,,,,8,,,,81,64
33000,note_on,0,0,7,,,,,,,,5,,,,69,92
33000,note_on,160,0,14,,,,,,,,13,,,,48,75
33000,note_on,40,0,8,,,,,,,,6,,,,50,92
33000,note_off,120,0,7,,,,,,,,5,,,,74,64
33000,note_on,160,0,9,,,,,,,,7,,,,48,75
33000,note_on,40,0,13,,,,,,,,12,,,,50,75
33000,note_off,120,0,12,,,,,,,,11,,,,74,64
33000,note_on,0,0,12,,,,,,,,11,,,,69,75
33080,note_off,80,0,8,,,,,,,,6,,,,50,64
33080,note_off,80,0,14,,,,,,,,13,,,,48,64
33080,note_off,80,0,9,,,,,,,,7,,,,48,64
33080,note_off,80,0,13,,,,,,,,12,,,,50,64
33120,note_on,40,0,8,,,,,,,,6,,,,60,92
33120,note_off,120,0,12,,,,,,,,11,,,,69,64
33120,note_on,0,0,12,,,,,,,,11,,,,66,75
33120,note_off,120,0,7,,,,,,,,5,,,,69,64
33120,note_on,40,0,13,,,,,,,,12,,,,60,75
33120,note_on,0,0,7,,,,,,,,5,,,,66,92
33160,note_off,400,0,15,,,,,,,,14,,,,38,64
33200,note_off,80,0,13,,,,,,,,12,,,,60,64
33200,note_off,80,0,8,,,,,,,,6,,,,60,64
33240,note_off,120,0,7,,,,,,,,5,,,,66,64
33240,note_on,40,0,13,,,,,,,,12,,,,50,75
33240,note_on,80,0,15,,,,,,,,14,,,,38,45
33240,note_on,0,0,7,,,,,,,,5,,,,67,92
33240,note_on,0,0,12,,,,,,,,11,,,,67,75
33240,note_on,160,0,9,,,,,,,,7,,,,38,75
33240,note_off,120,0,12,,,,,,,,11,,,,66,64
33240,note_on,160,0,14,,,,,,,,13,,,,38,75
33240,note_on,40,0,8,,,,,,,,6,,,,50,92
33320,note_off,80,0,14,,,,,,,,13,,,,38,64
33320,note_off,80,0,13,,,,,,,,12,,,,50,64
33320,note_off,80,0,9,,,,,,,,7,,,,38,64
33320,note_off,80,0,8,,,,,,,,6,,,,50,64
33360,note_on,40,0,8,,,,,,,,6,,,,58,92
33360,note_on,365,0,11,,,,,,,,10,,,,67,110
33360,note_on,365,0,6,,,,,,,,4,,,,67,108
33360,note_on,365,0,10,,,,,,,,8,,,,70,75
33360,note_on,365,0,5,,,,,,,,3,,,,70,108
33360,note_on,40,0,13,,,,,,,,12,,,,58,75
33440,note_off,80,0,8,,,,,,,,6,,,,58,64
33440,note_off,80,0,13,,,,,,,,12,,,,58,64
33480,note_on,160,0,9,,,,,,,,7,,,,46,75
33480,note_off,120,0,11,,,,,,,,10,,,,67,64
33480,note_on,0,0,5,,,,,,,,3,,,,72,108
33480,note_on,40,0,8,,,,,,,,6,,,,50,92
33480,note_on,160,0,14,,,,,,,,13,,,,46,75
33480,note_on,0,0,11,,,,,,,,10,,,,69,110
33480,note_off,120,0,6,,,,,,,,4,,,,67,64
33480,note_on,40,0,13,,,,,,,,12,,,,50,75
33480,note_on,0,0,6,,,,,,,,4,,,,69,108
33480,note_on,0,0,10,,,,,,,,8,,,,72,75
33480,note_off,120,0,10,,,,,,,,8,,,,70,64
33480,note_off,120,0,5,,,,,,,,3,,,,70,64
33560,note_off,80,0,9,,,,,,,,7,,,,46,64
33560,note_off,80,0,14,,,,,,,,13,,,,46,64
33560,note_off,80,0,8,,,,,,,,6,,,,50,64
33560,note_off,80,0,13,,,,,,,,12,,,,50,64
33600,note_on,40,0,8,,,,,,,,6,,,,58,92
33600,note_on,40,0,13,,,,,,,,12,,,,58,75
33600,note_on,0,0,11,,,,,,,,10,,,,70,110
33600,note_off,120,0,11,,,,,,,,10,,,,69,64
33600,note_off,120,0,6,,,,,,,,4,,,,69,64
33600,note_on,0,0,6,,,,,,,,4,,,,70,108
33600,note_on,0,0,10,,,,,,,,8,,,,74,75
33600,note_off,120,0,10,,,,,,,,8,,,,72,64
33600,note_off,120,0,5,,,,,,,,3,,,,72,64
33600,note_on,0,0,5,,,,,,,,3,,,,74,108
33640,note_off,400,0,15,,,,,,,,14,,,,38,64
33640,note_off,400,0,12,,,,,,,,11,,,,67,64
33640,note_off,400,0,7,,,,,,,,5,,,,67,64
33680,note_off,80,0,8,,,,,,,,6,,,,58,64
33680,note_off,80,0,13,,,,,,,,12,,,,58,64
33720,note_on,80,0,15,,,,,,,,14,,,,38,45
33720,note_on,40,0,8,,,,,,,,6,,,,50,92
33720,note_on,0,0,11,,,,,,,,10,,,,72,110
33720,note_on,0,0,5,,,,,,,,3,,,,75,108
33720,note_off,120,0,5,,,,,,,,3,,,,74,64
33720,note_off,120,0,6,,,,,,,,4,,,,70,64
33720,note_on,0,0,6,,,,,,,,4,,,,72,108
33720,note_off,120,0,11,,,,,,,,10,,,,70,64
33720,note_on,40,0,13,,,,,,,,12,,,,50,75
33720,note_on,160,0,14,,,,,,,,13,,,,38,75
33720,note_off,120,0,10,,,,,,,,8,,,,74,64
33720,note_on,160,0,9,,,,,,,,7,,,,38,75
33720,note_on,0,0,10,,,,,,,,8,,,,75,75
33800,note_off,80,0,14,,,,,,,,13,,,,38,64
33800,note_off,80,0,8,,,,,,,,6,,,,50,64
33800,note_off,80,0,13,,,,,,,,12,,,,50,64
33800,note_off,80,0,9,,,,,,,,7,,,,38,64
33840,note_on,0,0,11,,,,,,,,10,,,,74,110
33840,note_on,0,0,5,,,,,,,,3,,,,78,108
33840,note_on,40,0,13,,,,,,,,12,,,,58,75
33840,note_off,120,0,11,,,,,,,,10,,,,72,64
33840,note_off,120,0,6,,,,,,,,4,,,,72,64
33840,note_on,40,0,8,,,,,,,,6,,,,58,92
33840,note_on,0,0,6,,,,,,,,4,,,,74,108
33840,note_on,0,0,10,,,,,,,,8,,,,78,75
33840,note_off,120,0,10,,,,,,,,8,,,,75,64
33840,note_off,120,0,5,,,,,,,,3,,,,75,64
33920,note_off,80,0,13,,,,,,,,12,,,,58,64
33920,note_off,80,0,8,,,,,,,,6,,,,58,64
33960,note_off,120,0,11,,,,,,,,10,,,,74,64
33960,note_on,0,0,11,,,,,,,,10,,,,75,110
33960,note_on,40,0,8,,,,,,,,6,,,,50,92
33960,note_off,120,0,6,,,,,,,,4,,,,74,64
33960,note_on,0,0,6,,,,,,,,4,,,,75,108
33960,note_on,0,0,10,,,,,,,,8,,,,79,75
33960,note_off,120,0,10,,,,,,,,8,,,,78,64
33960,note_on,40,0,13,,,,,,,,12,,,,50,75
33960,note_on,160,0,14,,,,,,,,13,,,,46,75
33960,note_on,0,0,5,,,,,,,,3,,,,79,108
33960,note_off,120,0,5,,,,,,,,3,,,,78,64
33960,note_on,160,0,9,,,,,,,,7,,,,46,75
34040,note_off,80,0,8,,,,,,,,6,,,,50,64
34040,note_off,80,0,14,,,,,,,,13,,,,46,64
34040,note_off,80,0,13,,,,,,,,12,,,,50,64
34040,note_off,80,0,9,,,,,,,,7,,,,46,64
34080,note_off,120,0,5,,,,,,,,3,,,,79,64
34080,note_off,120,0,10,,,,,,,,8,,,,79,64
34080,note_on,0,0,6,,,,,,,,4,,,,78,108
34080,note_off,120,0,6,,,,,,,,4,,,,75,64
34080,note_off,120,0,11,,,,,,,,10,,,,75,64
34080,note_on,0,0,11,,,,,,,,10,,,,78,110
34080,note_on,40,0,13,,,,,,,,12,,,,58,75
34080,note_on,40,0,8,,,,,,,,6,,,,58,92
34080,note_on,0,0,10,,,,,,,,8,,,,81,75
34080,note_on,0,0,5,,,,,,,,3,,,,81,108
34120,note_off,400,0,15,,,,,,,,14,,,,38,64
34160,note_off,80,0,13,,,,,,,,12,,,,58,64
34160,note_off,80,0,8,,,,,,,,6,,,,58,64
34200,note_on,0,0,6,,,,,,,,4,,,,79,108
34200,note_on,40,0,8,,,,,,,,6,,,,50,92
34200,note_off,120,0,11,,,,,,,,10,,,,78,64
34200,note_off,120,0,6,,,,,,,,4,,,,78,64
34200,note_on,0,0,5,,,,,,,,3,,,,82,108
34200,note_on,0,0,11,,,,,,,,10,,,,79,110
34200,note_on,160,0,9,,,,,,,,7,,,,38,75
34200,note_on,0,0,10,,,,,,,,8,,,,82,75
34200,note_on,80,0,15,,,,,,,,14,,,,38,45
34200,note_off,120,0,10,,,,,,,,8,,,,81,64
34200,note_on,160,0,14,,,,,,,,13,,,,38,75
34200,note_on,40,0,13,,,,,,,,12,,,,50,75
34200,note_off,120,0,5,,,,,,,,3,,,,81,64
34280,note_off,80,0,9,,,,,,,,7,,,,38,64
34280,note_off,80,0,14,,,,,,,,13,,,,38,64
34280,note_off,80,0,8,,,,,,,,6,,,,50,64
34280,note_off,80,0,13,,,,,,,,12,,,,50,64
34320,note_on,40,0,13,,,,,,,,12,,,,58,75
34320,note_on,680,0,7,,,,,,,,5,,,,74,92
34320,note_on,680,0,12,,,,,,,,11,,,,74,75
34320,note_on,40,0,8,,,,,,,,6,,,,58,92
34400,note_off,80,0,13,,,,,,,,12,,,,58,64
34400,note_off,80,0,8,,,,,,,,6,,,,58,64
34435,note_off,235,0,10,,,,,,,,8,,,,82,64
34435,note_off,235,0,5,,,,,,,,3,,,,82,64
34435,note_off,235,0,6,,,,,,,,4,,,,79,64
34435,note_off,235,0,11,,,,,,,,10,,,,79,64
34440,note_off,120,0,12,,,,,,,,11,,,,74,64
34440,note_off,120,0,7,,,,,,,,5,,,,74,64
34440,note_on,0,0,7,,,,,,,,5,,,,70,92
34440,note_on,160,0,9,,,,,,,,7,,,,46,75
34440,note_on,40,0,8,,,,,,,,6,,,,50,92
34440,note_on,40,0,13,,,,,,,,12,,,,50,75
34440,note_on,0,0,12,,,,,,,,11,,,,69,75
34440,note_on,160,0,14,,,,,,,,13,,,,46,75
34520,note_off,80,0,8,,,,,,,,6,,,,50,64
34520,note_off,80,0,9,,,,,,,,7,,,,46,64
34520,note_off,80,0,13,,,,,,,,12,,,,50,64
34520,note_off,80,0,14,,,,,,,,13,,,,46,64
34560,note_on,0,0,12,,,,,,,,11,,,,66,75
34560,note_on,40,0,8,,,,,,,,6,,,,58,92
34560,note_on,0,0,7,,,,,,,,5,,,,67,92
34560,note_off,120,0,7,,,,,,,,5,,,,70,64
34560,note_off,120,0,12,,,,,,,,11,,,,69,64
34560,note_on,40,0,13,,,,,,,,12,,,,58,75
34600,note_off,400,0,15,,,,,,,,14,,,,38,64
34640,note_off,80,0,13,,,,,,,,12,,,,58,64
34640,note_off,80,0,8,,,,,,,,6,,,,58,64
34680,note_on,0,0,12,,,,,,,,11,,,,66,75
34680,note_off,120,0,12,,,,,,,,11,,,,66,64
34680,note_on,40,0,13,,,,,,,,12,,,,50,75
34680,note_on,40,0,8,,,,,,,,6,,,,50,92
34680,note_off,120,0,7,,,,,,,,5,,,,67,64
34680,note_on,160,0,14,,,,,,,,13,,,,38,75
34680,note_on,0,0,7,,,,,,,,5,,,,66,92
34680,note_on,160,0,9,,,,,,,,7,,,,38,75
34680,note_on,80,0,15,,,,,,,,14,,,,38,45
34760,note_off,80,0,13,,,,,,,,12,,,,50,64
34760,note_off,80,0,9,,,,,,,,7,,,,38,64
34760,note_off,80,0,8,,,,,,,,6,,,,50,64
34760,note_off,80,0,14,,,,,,,,13,,,,38,64
34800,note_on,40,0,8,,,,,,,,6,,,,57,92
34800,note_on,365,0,11,,,,,,,,10,,,,66,110
34800,note_on,365,0,10,,,,,,,,8,,,,74,75
34800,note_on,40,0,13,,,,,,,,12,,,,57,75
34800,note_on,365,0,5,,,,,,,,3,,,,74,108
34800,note_on,365,0,6,,,,,,,,4,,,,66,108
34880,note_off,80,0,8,,,,,,,,6,,,,57,64
34880,note_off,80,0,13,,,,,,,,12,,,,57,64
34920,note_on,0,0,11,,,,,,,,10,,,,67,110
34920,note_on,40,0,8,,,,,,,,6,,,,50,92
34920,note_on,0,0,5,,,,,,,,3,,,,76,108
34920,note_on,160,0,14,,,,,,,,13,,,,45,75
34920,note_on,160,0,9,,,,,,,,7,,,,45,75
34920,note_off,120,0,5,,,,,,,,3,,,,74,64
34920,note_off,120,0,10,,,,,,,,8,,,,74,64
34920,note_on,0,0,6,,,,,,,,4,,,,67,108
34920,note_off,120,0,11,,,,,,,,10,,,,66,64
34920,note_off,120,0,6,,,,,,,,4,,,,66,64
34920,note_on,40,0,13,,,,,,,,12,,,,50,75
34920,note_on,0,0,10,,,,,,,,8,,,,76,75
35000,note_off,80,0,13,,,,,,,,12,,,,50,64
35000,note_off,80,0,14,,,,,,,,13,,,,45,64
35000,note_off,80,0,9,,,,,,,,7,,,,45,64
35000,note_off,80,0,8,,,,,,,,6,,,,50,64
35040,note_on,0,0,6,,,,,,,,4,,,,69,108
35040,note_on,0,0,11,,,,,,,,10,,,,69,110
35040,note_on,0,0,10,,,,,,,,8,,,,78,75
35040,note_on,0,0,5,,,,,,,,3,,,,78,108
35040,note_off,120,0,5,,,,,,,,3,,,,76,64
35040,note_on,40,0,13,,,,,,,,12,,,,57,75
35040,note_off,120,0,6,,,,,,,,4,,,,67,64
35040,note_off,120,0,10,,,,,,,,8,,,,76,64
35040,note_off,120,0,11,,,,,,,,10,,,,67,64
35040,note_on,40,0,8,,,,,,,,6,,,,57,92
35080,note_off,400,0,15,,,,,,,,14,,,,38,64
35080,note_off,400,0,12,,,,,,,,11,,,,66,64
35080,note_off,400,0,7,,,,,,,,5,,,,66,64
35120,note_off,80,0,13,,,,,,,,12,,,,57,64
35120,note_off,80,0,8,,,,,,,,6,,,,57,64
35160,note_on,160,0,9,,,,,,,,7,,,,38,75
35160,note_on,40,0,8,,,,,,,,6,,,,50,92
35160,note_off,120,0,5,,,,,,,,3,,,,78,64
35160,note_on,0,0,6,,,,,,,,4,,,,70,108
35160,note_off,120,0,6,,,,,,,,4,,,,69,64
35160,note_off,120,0,10,,,,,,,,8,,,,78,64
35160,note_on,0,0,10,,,,,,,,8,,,,79,75
35160,note_on,160,0,14,,,,,,,,13,,,,38,75
35160,note_on,40,0,13,,,,,,,,12,,,,50,75
35160,note_on,0,0,11,,,,,,,,10,,,,70,110
35160,note_on,80,0,15,,,,,,,,14,,,,38,45
35160,note_on,0,0,5,,,,,,,,3,,,,79,108
35160,note_off,120,0,11,,,,,,,,10,,,,69,64
35240,note_off,80,0,8,,,,,,,,6,,,,50,64
35240,note_off,80,0,14,,,,,,,,13,,,,38,64
35240,note_off,80,0,13,,,,,,,,12,,,,50,64
35240,note_off,80,0,9,,,,,,,,7,,,,38,64
35280,note_off,120,0,6,,,,,,,,4,,,,70,64
35280,note_on,0,0,6,,,,,,,,4,,,,72,108
35280,note_off,120,0,5,,,,,,,,3,,,,79,64
35280,note_on,0,0,5,,,,,,,,3,,,,81,108
35280,note_on,0,0,10,,,,,,,,8,,,,81,75
35280,note_off,120,0,10,,,,,,,,8,,,,79,64
35280,note_off,120,0,11,,,,,,,,10,,,,70,64
35280,note_on,40,0,13,,,,,,,,12,,,,57,75
35280,note_on,40,0,8,,,,,,,,6,,,,57,92
35280,note_on,0,0,11,,,,,,,,10,,,,72,110
35360,note_off,80,0,13,,,,,,,,12,,,,57,64
35360,note_off,80,0,8,,,,,,,,6,,,,57,64
35400,note_on,40,0,13,,,,,,,,12,,,,50,75
35400,note_on,0,0,11,,,,,,,,10,,,,74,110
35400,note_off,120,0,10,,,,,,,,8,,,,81,64
35400,note_on,0,0,10,,,,,,,,8,,,,82,75
35400,note_on,160,0,14,,,,,,,,13,,,,45,75
35400,note_on,40,0,8,,,,,,,,6,,,,50,92
35400,note_on,160,0,9,,,,,,,,7,,,,45,75
35400,note_off,120,0,11,,,,,,,,10,,,,72,64
35400,note_on,0,0,6,,,,,,,,4,,,,74,108
35400,note_off,120,0,6,,,,,,,,4,,,,72,64
35400,note_off,120,0,5,,,,,,,,3,,,,81,64
35400,note_on,0,0,5,,,,,,,,3,,,,82,108
35480,note_off,80,0,13,,,,,,,,12,,,,50,64
35480,note_off,80,0,9,,,,,,,,7,,,,45,64
35480,note_off,80,0,14,,,,,,,,13,,,,45,64
35480,note_off,80,0,8,,,,,,,,6,,,,50,64
35520,note_off,120,0,11,,,,,,,,10,,,,74,64
35520,note_on,0,0,11,,,,,,,,10,,,,76,110
35520,note_on,40,0,8,,,,,,,,6,,,,57,92
35520,note_off,120,0,5,,,,,,,,3,,,,82,64
35520,note_on,0,0,5,,,,,,,,3,,,,84,108
35520,note_off,120,0,10,,,,,,,,8,,,,82,64
35520,note_on,0,0,10,,,,,,,,8,,,,84,75
35520,note_off,120,0,6,,,,,,,,4,,,,74,64
35520,note_on,0,0,6,,,,,,,,4,,,,76,108
35520,note_on,40,0,13,,,,,,,,12,,,,57,75
35560,note_off,400,0,15,,,,,,,,14,,,,38,64
35600,note_off,80,0,13,,,,,,,,12,,,,57,64
35600,note_off,80,0,8,,,,,,,,6,,,,57,64
35640,note_on,40,0,8,,,,,,,,6,,,,50,92
35640,note_off,120,0,6,,,,,,,,4,,,,76,64
35640,note_on,0,0,10,,,,,,,,8,,,,86,75
35640,note_on,160,0,9,,,,,,,,7,,,,38,75
35640,note_on,0,0,5,,,,,,,,3,,,,86,108
35640,note_off,120,0,5,,,,,,,,3,,,,84,64
35640,note_on,80,0,15,,,,,,,,14,,,,38,45
35640,note_off,120,0,10,,,,,,,,8,,,,84,64
35640,note_on,0,0,11,,,,,,,,10,,,,78,110
35640,note_off,120,0,11,,,,,,,,10,,,,76,64
35640,note_on,40,0,13,,,,,,,,12,,,,50,75
35640,note_on,0,0,6,,,,,,,,4,,,,78,108
35640,note_on,160,0,14,,,,,,,,13,,,,38,75
35720,note_off,80,0,9,,,,,,,,7,,,,38,64
35720,note_off,80,0,8,,,,,,,,6,,,,50,64
35720,note_off,80,0,14,,,,,,,,13,,,,38,64
35720,note_off,80,0,13,,,,,,,,12,,,,50,64
35760,note_on,680,0,7,,,,,,,,5,,,,74,92
35760,note_on,40,0,8,,,,,,,,6,,,,57,92
35760,note_on,40,0,13,,,,,,,,12,,,,57,75
35760,note_on,680,0,12,,,,,,,,11,,,,74,75
35840,note_off,80,0,13,,,,,,,,12,,,,57,64
35840,note_off,80,0,8,,,,,,,,6,,,,57,64
35875,note_off,235,0,11,,,,,,,,10,,,,78,64
35875,note_off,235,0,6,,,,,,,,4,,,,78,64
35875,note_off,235,0,5,,,,,,,,3,,,,86,64
35875,note_off,235,0,10,,,,,,,,8,,,,86,64
35880,note_off,120,0,12,,,,,,,,11,,,,74,64
35880,note_on,0,0,12,,,,,,,,11,,,,69,75
35880,note_on,160,0,9,,,,,,,,7,,,,45,75
35880,note_off,120,0,7,,,,,,,,5,,,,74,64
35880,note_on,0,0,7,,,,,,,,5,,,,69,92
35880,note_on,40,0,13,,,,,,,,12,,,,50,75
35880,note_on,160,0,14,,,,,,,,13,,,,45,75
35880,note_on,40,0,8,,,,,,,,6,,,,50,92
35960,note_off,80,0,14,,,,,,,,13,,,,45,64
35960,note_off,80,0,8,,,,,,,,6,,,,50,64
35960,note_off,80,0,9,,,,,,,,7,,,,45,64
35960,note_off,80,0,13,,,,,,,,12,,,,50,64
36000,note_on,40,0,13,,,,,,,,12,,,,57,75
36000,note_on,0,0,12,,,,,,,,11,,,,66,75
36000,note_on,0,0,7,,,,,,,,5,,,,66,92
36000,note_off,120,0,7,,,,,,,,5,,,,69,64
36000,note_off,120,0,12,,,,,,,,11,,,,69,64
36000,note_on,40,0,8,,,,,,,,6,,,,57,92
36040,note_off,400,0,15,,,,,,,,14,,,,38,64
36080,note_off,80,0,8,,,,,,,,6,,,,57,64
36080,note_off,80,0,13,,,,,,,,12,,,,57,64
36120,note_on,40,0,13,,,,,,,,12,,,,50,75
36120,note_on,80,0,15,,,,,,,,14,,,,38,45
36120,note_on,0,0,12,,,,,,,,11,,,,62,75
36120,note_on,40,0,8,,,,,,,,6,,,,50,92
36120,note_on,160,0,9,,,,,,,,7,,,,38,75
36120,note_off,120,0,7,,,,,,,,5,,,,66,64
36120,note_on,0,0,7,,,,,,,,5,,,,62,92
36120,note_off,120,0,12,,,,,,,,11,,,,66,64
36120,note_on,160,0,14,,,,,,,,13,,,,38,75
36200,note_off,80,0,13,,,,,,,,12,,,,50,64
36200,note_off,80,0,8,,,,,,,,6,,,,50,64
36200,note_off,80,0,9,,,,,,,,7,,,,38,64
36200,note_off,80,0,14,,,,,,,,13,,,,38,64
36240,note_on,365,0,10,,,,,,,,8,,,,74,75
36240,note_on,365,0,5,,,,,,,,3,,,,74,108
36240,note_on,365,0,11,,,,,,,,10,,,,66,110
36240,note_on,365,0,6,,,,,,,,4,,,,66,108
36240,note_on,40,0,13,,,,,,,,12,,,,62,75
36240,note_on,40,0,8,,,,,,,,6,,,,62,92
36320,note_off,80,0,13,,,,,,,,12,,,,62,64
36320,note_off,80,0,8,,,,,,,,6,,,,62,64
36360,note_on,0,0,6,,,,,,,,4,,,,67,108
36360,note_off,120,0,6,,,,,,,,4,,,,66,64
36360,note_on,0,0,5,,,,,,,,3,,,,76,108
36360,note_on,160,0,9,,,,,,,,7,,,,50,75
36360,note_off,120,0,10,,,,,,,,8,,,,74,64
36360,note_on,40,0,8,,,,,,,,6,,,,50,92
36360,note_off,120,0,11,,,,,,,,10,,,,66,64
36360,note_on,0,0,11,,,,,,,,10,,,,67,110
36360,note_on,160,0,14,,,,,,,,13,,,,50,75
36360,note_on,40,0,13,,,,,,,,12,,,,50,75
36360,note_on,0,0,10,,,,,,,,8,,,,76,75
36360,note_off,120,0,5,,,,,,,,3,,,,74,64
36440,note_off,80,0,9,,,,,,,,7,,,,50,64
36440,note_off,80,0,14,,,,,,,,13,,,,50,64
36440,note_off,80,0,8,,,,,,,,6,,,,50,64
36440,note_off,80,0,13,,,,,,,,12,,,,50,64
36480,note_on,0,0,5,,,,,,,,3,,,,78,108
36480,note_off,120,0,5,,,,,,,,3,,,,76,64
36480,note_on,40,0,8,,,,,,,,6,,,,62,92
36480,note_off,120,0,10,,,,,,,,8,,,,76,64
36480,note_on,0,0,10,,,,,,,,8,,,,78,75
36480,note_off,120,0,6,,,,,,,,4,,,,67,64
36480,note_on,0,0,6,,,,,,,,4,,,,69,108
36480,note_off,120,0,11,,,,,,,,10,,,,67,64
36480,note_on,0,0,11,,,,,,,,10,,,,69,110
36480,note_on,40,0,13,,,,,,,,12,,,,62,75
36520,note_off,400,0,12,,,,,,,,11,,,,62,64
36520,note_off,400,0,7,,,,,,,,5,,,,62,64
36520,note_off,400,0,15,,,,,,,,14,,,,38,64
36560,note_off,80,0,8,,,,,,,,6,,,,62,64
36560,note_off,80,0,13,,,,,,,,12,,,,62,64
36600,note_on,0,0,10,,,,,,,,8,,,,79,75
36600,note_on,160,0,14,,,,,,,,13,,,,38,75
36600,note_on,160,0,9,,,,,,,,7,,,,38,75
36600,note_on,40,0,8,,,,,,,,6,,,,50,92
36600,note_off,120,0,11,,,,,,,,10,,,,69,64
36600,note_on,80,0,15,,,,,,,,14,,,,38,45
36600,note_on,0,0,5,,,,,,,,3,,,,79,108
36600,note_off,120,0,5,,,,,,,,3,,,,78,64
36600,note_on,40,0,13,,,,,,,,12,,,,50,75
36600,note_off,120,0,10,,,,,,,,8,,,,78,64
36600,note_on,0,0,11,,,,,,,,10,,,,70,110
36600,note_off,120,0,6,,,,,,,,4,,,,69,64
36600,note_on,0,0,6,,,,,,,,4,,,,70,108
36680,note_off,80,0,13,,,,,,,,12,,,,50,64
36680,note_off,80,0,14,,,,,,,,13,,,,38,64
36680,note_off,80,0,8,,,,,,,,6,,,,50,64
36680,note_off,80,0,9,,,,,,,,7,,,,38,64
36720,note_off,120,0,11,,,,,,,,10,,,,70,64
36720,note_on,0,0,11,,,,,,,,10,,,,72,110
36720,note_on,0,0,10,,,,,,,,8,,,,81,75
36720,note_on,0,0,6,,,,,,,,4,,,,72,108
36720,note_off,120,0,6,,,,,,,,4,,,,70,64
36720,note_on,40,0,8,,,,,,,,6,,,,62,92
36720,note_off,120,0,10,,,,,,,,8,,,,79,64
36720,note_on,40,0,13,,,,,,,,12,,,,62,75
36720,note_on,0,0,5,,,,,,,,3,,,,81,108
36720,note_off,120,0,5,,,,,,,,3,,,,79,64
36800,note_off,80,0,8,,,,,,,,6,,,,62,64
36800,note_off,80,0,13,,,,,,,,12,,,,62,64
36840,note_on,0,0,5,,,,,,,,3,,,,82,108
36840,note_on,0,0,11,,,,,,,,10,,,,74,110
36840,note_off,120,0,11,,,,,,,,10,,,,72,64
36840,note_on,40,0,8,,,,,,,,6,,,,50,92
36840,note_on,0,0,10,,,,,,,,8,,,,82,75
36840,note_on,160,0,9,,,,,,,,7,,,,50,75
36840,note_off,120,0,5,,,,,,,,3,,,,81,64
36840,note_on,40,0,13,,,,,,,,12,,,,50,75
36840,note_on,160,0,14,,,,,,,,13,,,,50,75
36840,note_off,120,0,6,,,,,,,,4,,,,72,64
36840,note_off,120,0,10,,,,,,,,8,,,,81,64
36840,note_on,0,0,6,,,,,,,,4,,,,74,108
36920,note_off,80,0,9,,,,,,,,7,,,,50,64
36920,note_off,80,0,13,,,,,,,,12,,,,50,64
36920,note_off,80,0,14,,,,,,,,13,,,,50,64
36920,note_off,80,0,8,,,,,,,,6,,,,50,64
36960,note_off,120,0,11,,,,,,,,10,,,,74,64
36960,note_on,0,0,5,,,,,,,,3,,,,84,108
36960,note_off,120,0,10,,,,,,,,8,,,,82,64
36960,note_on,40,0,8,,,,,,,,6,,,,62,92
36960,note_on,0,0,6,,,,,,,,4,,,,76,108
36960,note_off,120,0,5,,,,,,,,3,,,,82,64
36960,note_on,0,0,11,,,,,,,,10,,,,76,110
36960,note_on,0,0,10,,,,,,,,8,,,,84,75
36960,note_on,40,0,13,,,,,,,,12,,,,62,75
36960,note_off,120,0,6,,,,,,,,4,,,,74,64
37000,note_off,400,0,15,,,,,,,,14,,,,38,64
37040,note_off,80,0,13,,,,,,,,12,,,,62,64
37040,note_off,80,0,8,,,,,,,,6,,,,62,64
37080,note_on,160,0,9,,,,,,,,7,,,,38,75
37080,note_on,160,0,14,,,,,,,,13,,,,38,75
37080,note_on,0,0,5,,,,,,,,3,,,,86,108
37080,note_on,80,0,15,,,,,,,,14,,,,38,45
37080,note_on,0,0,11,,,,,,,,10,,,,78,110
37080,note_off,120,0,11,,,,,,,,10,,,,76,64
37080,note_off,120,0,5,,,,,,,,3,,,,84,64
37080,note_on,40,0,8,,,,,,,,6,,,,50,92
37080,note_on,0,0,10,,,,,,,,8,,,,86,75
37080,note_on,0,0,6,,,,,,,,4,,,,78,108
37080,note_off,120,0,6,,,,,,,,4,,,,76,64
37080,note_on,40,0,13,,,,,,,,12,,,,50,75
37080,note_off,120,0,10,,,,,,,,8,,,,84,64
37160,note_off,80,0,13,,,,,,,,12,,,,50,64
37160,note_off,80,0,14,,,,,,,,13,,,,38,64
37160,note_off,80,0,8,,,,,,,,6,,,,50,64
37160,note_off,80,0,9,,,,,,,,7,,,,38,64
37200,note_on,680,0,7,,,,,,,,5,,,,74,92
37200,note_on,40,0,8,,,,,,,,6,,,,62,92
37200,note_on,680,0,12,,,,,,,,11,,,,74,75
37200,note_on,40,0,13,,,,,,,,12,,,,62,75
37280,note_off,80,0,8,,,,,,,,6,,,,62,64
37280,note_off,80,0,13,,,,,,,,12,,,,62,64
37315,note_off,235,0,5,,,,,,,,3,,,,86,64
37315,note_off,235,0,10,,,,,,,,8,,,,86,64
37315,note_off,235,0,11,,,,,,,,10,,,,78,64
37315,note_off,235,0,6,,,,,,,,4,,,,78,64
37320,note_on,40,0,8,,,,,,,,6,,,,50,92
37320,note_on,0,0,12,,,,,,,,11,,,,69,75
37320,note_on,160,0,14,,,,,,,,13,,,,50,75
37320,note_on,40,0,13,,,,,,,,12,,,,50,75
37320,note_off,120,0,7,,,,,,,,5,,,,74,64
37320,note_on,0,0,7,,,,,,,,5,,,,69,92
37320,note_on,160,0,9,,,,,,,,7,,,,50,75
37320,note_off,120,0,12,,,,,,,,11,,,,74,64
37400,note_off,80,0,8,,,,,,,,6,,,,50,64
37400,note_off,80,0,9,,,,,,,,7,,,,50,64
37400,note_off,80,0,14,,,,,,,,13,,,,50,64
37400,note_off,80,0,13,,,,,,,,12,,,,50,64
37440,note_on,0,0,12,,,,,,,,11,,,,66,75
37440,note_off,120,0,12,,,,,,,,11,,,,69,64
37440,note_on,40,0,13,,,,,,,,12,,,,62,75
37440,note_off,120,0,7,,,,,,,,5,,,,69,64
37440,note_on,40,0,8,,,,,,,,6,,,,62,92
37440,note_on,0,0,7,,,,,,,,5,,,,66,92
37480,note_off,400,0,15,,,,,,,,14,,,,38,64
37520,note_off,80,0,8,,,,,,,,6,,,,62,64
37520,note_off,80,0,13,,,,,,,,12,,,,62,64
37560,note_on,0,0,7,,,,,,,,5,,,,62,92
37560,note_on,0,0,12,,,,,,,,11,,,,62,75
37560,note_on,40,0,8,,,,,,,,6,,,,50,92
37560,note_off,120,0,7,,,,,,,,5,,,,66,64
37560,note_on,40,0,13,,,,,,,,12,,,,50,75
37560,note_on,160,0,9,,,,,,,,7,,,,38,75
37560,note_on,160,0,14,,,,,,,,13,,,,38,75
37560,note_off,120,0,12,,,,,,,,11,,,,66,64
37560,note_on,80,0,15,,,,,,,,14,,,,38,45
37640,note_off,80,0,13,,,,,,,,12,,,,50,64
37640,note_off,80,0,8,,,,,,,,6,,,,50,64
37640,note_off,80,0,9,,,,,,,,7,,,,38,64
37640,note_off,80,0,14,,,,,,,,13,,,,38,64
37680,note_on,365,0,6,,,,,,,,4,,,,66,108
37680,note_on,365,0,10,,,,,,,,8,,,,69,75
37680,note_on,365,0,5,,,,,,,,3,,,,69,108
37680,note_on,40,0,8,,,,,,,,6,,,,60,92
37680,note_on,40,0,13,,,,,,,,12,,,,60,75
37680,note_on,365,0,11,,,,,,,,10,,,,66,110
37760,note_off,80,0,13,,,,,,,,12,,,,60,64
37760,note_off,80,0,8,,,,,,,,6,,,,60,64
37800,note_on,0,0,6,,,,,,,,4,,,,67,108
37800,note_on,160,0,9,,,,,,,,7,,,,48,75
37800,note_off,120,0,11,,,,,,,,10,,,,66,64
37800,note_off,120,0,6,,,,,,,,4,,,,66,64
37800,note_on,40,0,13,,,,,,,,12,,,,50,75
37800,note_off,120,0,10,,,,,,,,8,,,,69,64
37800,note_off,120,0,5,,,,,,,,3,,,,69,64
37800,note_on,0,0,5,,,,,,,,3,,,,70,108
37800,note_on,160,0,14,,,,,,,,13,,,,48,75
37800,note_on,40,0,8,,,,,,,,6,,,,50,92
37800,note_on,0,0,11,,,,,,,,10,,,,67,110
37800,note_on,0,0,10,,,,,,,,8,,,,70,75
37880,note_off,80,0,14,,,,,,,,13,,,,48,64
37880,note_off,80,0,13,,,,,,,,12,,,,50,64
37880,note_off,80,0,8,,,,,,,,6,,,,50,64
37880,note_off,80,0,9,,,,,,,,7,,,,48,64
37920,note_off,120,0,5,,,,,,,,3,,,,70,64
37920,note_on,0,0,5,,,,,,,,3,,,,72,108
37920,note_on,0,0,6,,,,,,,,4,,,,69,108
37920,note_off,120,0,11,,,,,,,,10,,,,67,64
37920,note_on,0,0,11,,,,,,,,10,,,,69,110
37920,note_off,120,0,6,,,,,,,,4,,,,67,64
37920,note_off,120,0,10,,,,,,,,8,,,,70,64
37920,note_on,40,0,8,,,,,,,,6,,,,60,92
37920,note_on,0,0,10,,,,,,,,8,,,,72,75
37920,note_on,40,0,13,,,,,,,,12,,,,60,75
37960,note_off,400,0,15,,,,,,,,14,,,,38,64
37960,note_off,400,0,7,,,,,,,,5,,,,62,64
37960,note_off,400,0,12,,,,,,,,11,,,,62,64
38000,note_off,80,0,13,,,,,,,,12,,,,60,64
38000,note_off,80,0,8,,,,,,,,6,,,,60,64
38040,note_off,120,0,5,,,,,,,,3,,,,72,64
38040,note_on,40,0,13,,,,,,,,12,,,,50,75
38040,note_on,0,0,11,,,,,,,,10,,,,70,110
38040,note_on,80,0,15,,,,,,,,14,,,,38,45
38040,note_on,0,0,10,,,,,,,,8,,,,74,75
38040,note_on,40,0,8,,,,,,,,6,,,,50,92
38040,note_on,160,0,14,,,,,,,,13,,,,38,75
38040,note_off,120,0,10,,,,,,,,8,,,,72,64
38040,note_on,0,0,6,,,,,,,,4,,,,70,108
38040,note_on,0,0,5,,,,,,,,3,,,,74,108
38040,note_on,160,0,9,,,,,,,,7,,,,38,75
38040,note_off,120,0,11,,,,,,,,10,,,,69,64
38040,note_off,120,0,6,,,,,,,,4,,,,69,64
38120,note_off,80,0,9,,,,,,,,7,,,,38,64
38120,note_off,80,0,13,,,,,,,,12,,,,50,64
38120,note_off,80,0,8,,,,,,,,6,,,,50,64
38120,note_off,80,0,14,,,,,,,,13,,,,38,64
38160,note_on,40,0,13,,,,,,,,12,,,,60,75
38160,note_off,120,0,6,,,,,,,,4,,,,70,64
38160,note_on,0,0,6,,,,,,,,4,,,,72,108
38160,note_off,120,0,10,,,,,,,,8,,,,74,64
38160,note_on,0,0,11,,,,,,,,10,,,,72,110
38160,note_off,120,0,11,,,,,,,,10,,,,70,64
38160,note_on,0,0,10,,,,,,,,8,,,,76,75
38160,note_on,0,0,5,,,,,,,,3,,,,76,108
38160,note_off,120,0,5,,,,,,,,3,,,,74,64
38160,note_on,40,0,8,,,,,,,,6,,,,60,92
38240,note_off,80,0,8,,,,,,,,6,,,,60,64
38240,note_off,80,0,13,,,,,,,,12,,,,60,64
38280,note_on,40,0,13,,,,,,,,12,,,,50,75
38280,note_on,160,0,14,,,,,,,,13,,,,48,75
38280,note_on,0,0,5,,,,,,,,3,,,,78,108
38280,note_off,120,0,5,,,,,,,,3,,,,76,64
38280,note_on,160,0,9,,,,,,,,7,,,,48,75
38280,note_off,120,0,6,,,,,,,,4,,,,72,64
38280,note_on,40,0,8,,,,,,,,6,,,,50,92
38280,note_on,0,0,6,,,,,,,,4,,,,74,108
38280,note_off,120,0,11,,,,,,,,10,,,,72,64
38280,note_on,0,0,10,,,,,,,,8,,,,78,75
38280,note_off,120,0,10,,,,,,,,8,,,,76,64
38280,note_on,0,0,11,,,,,,,,10,,,,74,110
38360,note_off,80,0,13,,,,,,,,12,,,,50,64
38360,note_off,80,0,9,,,,,,,,7,,,,48,64
38360,note_off,80,0,8,,,,,,,,6,,,,50,64
38360,note_off,80,0,14,,,,,,,,13,,,,48,64
38400,note_on,40,0,13,,,,,,,,12,,,,60,75
38400,note_off,120,0,6,,,,,,,,4,,,,74,64
38400,note_on,0,0,6,,,,,,,,4,,,,76,108
38400,note_on,40,0,8,,,,,,,,6,,,,60,92
38400,note_off,120,0,5,,,,,,,,3,,,,78,64
38400,note_off,120,0,11,,,,,,,,10,,,,74,64
38400,note_off,120,0,10,,,,,,,,8,,,,78,64
38400,note_on,0,0,10,,,,,,,,8,,,,79,75
38400,note_on,0,0,5,,,,,,,,3,,,,79,108
38400,note_on,0,0,11,,,,,,,,10,,,,76,110
38440,note_off,400,0,15,,,,,,,,14,,,,38,64
38480,note_off,80,0,8,,,,,,,,6,,,,60,64
38480,note_off,80,0,13,,,,,,,,12,,,,60,64
38520,note_off,120,0,10,,,,,,,,8,,,,79,64
38520,note_on,40,0,13,,,,,,,,12,,,,50,75
38520,note_on,0,0,10,,,,,,,,8,,,,81,75
38520,note_on,80,0,15,,,,,,,,14,,,,38,45
38520,note_on,160,0,14,,,,,,,,13,,,,38,75
38520,note_on,0,0,11,,,,,,,,10,,,,78,110
38520,note_off,120,0,11,,,,,,,,10,,,,76,64
38520,note_on,0,0,5,,,,,,,,3,,,,81,108
38520,note_off,120,0,5,,,,,,,,3,,,,79,64
38520,note_off,120,0,6,,,,,,,,4,,,,76,64
38520,note_on,0,0,6,,,,,,,,4,,,,78,108
38520,note_on,160,0,9,,,,,,,,7,,,,38,75
38520,note_on,40,0,8,,,,,,,,6,,,,50,92
38600,note_off,80,0,13,,,,,,,,12,,,,50,64
38600,note_off,80,0,9,,,,,,,,7,,,,38,64
38600,note_off,80,0,8,,,,,,,,6,,,,50,64
38600,note_off,80,0,14,,,,,,,,13,,,,38,64
38640,note_on,40,0,8,,,,,,,,6,,,,60,92
38640,note_on,40,0,13,,,,,,,,12,,,,60,75
38640,note_on,680,0,7,,,,,,,,5,,,,74,92
38640,note_on,680,0,12,,,,,,,,11,,,,74,75
38720,note_off,80,0,8,,,,,,,,6,,,,60,64
38720,note_off,80,0,13,,,,,,,,12,,,,60,64
38755,note_off,235,0,5,,,,,,,,3,,,,81,64
38755,note_off,235,0,6,,,,,,,,4,,,,78,64
38755,note_off,235,0,11,,,,,,,,10,,,,78,64
38755,note_off,235,0,10,,,,,,,,8,,,,81,64
38760,note_on,40,0,8,,,,,,,,6,,,,50,92
38760,note_on,40,0,13,,,,,,,,12,,,,50,75
38760,note_on,0,0,7,,,,,,,,5,,,,69,92
38760,note_off,120,0,12,,,,,,,,11,,,,74,64
38760,note_on,160,0,14,,,,,,,,13,,,,48,75
38760,note_on,0,0,12,,,,,,,,11,,,,69,75
38760,note_on,160,0,9,,,,,,,,7,,,,48,75
38760,note_off,120,0,7,,,,,,,,5,,,,74,64
38840,note_off,80,0,14,,,,,,,,13,,,,48,64
38840,note_off,80,0,9,,,,,,,,7,,,,48,64
38840,note_off,80,0,13,,,,,,,,12,,,,50,64
38840,note_off,80,0,8,,,,,,,,6,,,,50,64
38880,note_on,40,0,13,,,,,,,,12,,,,60,75
38880,note_off,120,0,12,,,,,,,,11,,,,69,64
38880,note_on,0,0,12,,,,,,,,11,,,,66,75
38880,note_on,0,0,7,,,,,,,,5,,,,66,92
38880,note_on,40,0,8,,,,,,,,6,,,,60,92
38880,note_off,120,0,7,,,,,,,,5,,,,69,64
38920,note_off,400,0,15,,,,,,,,14,,,,38,64
38960,note_off,80,0,13,,,,,,,,12,,,,60,64
38960,note_off,80,0,8,,,,,,,,6,,,,60,64
39000,note_on,40,0,13,,,,,,,,12,,,,50,75
39000,note_on,160,0,9,,,,,,,,7,,,,38,75
39000,note_on,0,0,7,,,,,,,,5,,,,67,92
39000,note_on,40,0,8,,,,,,,,6,,,,50,92
39000,note_on,160,0,14,,,,,,,,13,,,,38,75
39000,note_on,0,0,12,,,,,,,,11,,,,67,75
39000,note_off,120,0,12,,,,,,,,11,,,,66,64
39000,note_on,80,0,15,,,,,,,,14,,,,38,45
39000,note_off,120,0,7,,,,,,,,5,,,,66,64
39080,note_off,80,0,14,,,,,,,,13,,,,38,64
39080,note_off,80,0,8,,,,,,,,6,,,,50,64
39080,note_off,80,0,9,,,,,,,,7,,,,38,64
39080,note_off,80,0,13,,,,,,,,12,,,,50,64
39120,note_on,365,0,5,,,,,,,,3,,,,70,108
39120,note_on,365,0,10,,,,,,,,8,,,,70,75
39120,note_on,365,0,11,,,,,,,,10,,,,67,110
39120,note_on,365,0,6,,,,,,,,4,,,,67,108
39120,note_on,40,0,8,,,,,,,,6,,,,58,92
39120,note_on,40,0,13,,,,,,,,12,,,,58,75
39200,note_off,80,0,8,,,,,,,,6,,,,58,64
39200,note_off,80,0,13,,,,,,,,12,,,,58,64
39240,note_on,0,0,5,,,,,,,,3,,,,72,108
39240,note_on,40,0,8,,,,,,,,6,,,,50,92
39240,note_on,0,0,6,,,,,,,,4,,,,69,108
39240,note_off,120,0,5,,,,,,,,3,,,,70,64
39240,note_on,160,0,14,,,,,,,,13,,,,46,75
39240,note_off,120,0,10,,,,,,,,8,,,,70,64
39240,note_on,160,0,9,,,,,,,,7,,,,46,75
39240,note_off,120,0,11,,,,,,,,10,,,,67,64
39240,note_on,40,0,13,,,,,,,,12,,,,50,75
39240,note_on,0,0,11,,,,,,,,10,,,,69,110
39240,note_on,0,0,10,,,,,,,,8,,,,72,75
39240,note_off,120,0,6,,,,,,,,4,,,,67,64
39320,note_off,80,0,14,,,,,,,,13,,,,46,64
39320,note_off,80,0,8,,,,,,,,6,,,,50,64
39320,note_off,80,0,9,,,,,,,,7,,,,46,64
39320,note_off,80,0,13,,,,,,,,12,,,,50,64
39360,note_on,40,0,8,,,,,,,,6,,,,58,92
39360,note_on,0,0,11,,,,,,,,10,,,,70,110
39360,note_off,120,0,11,,,,,,,,10,,,,69,64
39360,note_off,120,0,5,,,,,,,,3,,,,72,64
39360,note_off,120,0,6,,,,,,,,4,,,,69,64
39360,note_on,0,0,6,,,,,,,,4,,,,70,108
39360,note_off,120,0,10,,,,,,,,8,,,,72,64
39360,note_on,0,0,10,,,,,,,,8,,,,74,75
39360,note_on,0,0,5,,,,,,,,3,,,,74,108
39360,note_on,40,0,13,,,,,,,,12,,,,58,75
39400,note_off,400,0,7,,,,,,,,5,,,,67,64
39400,note_off,400,0,15,,,,,,,,14,,,,38,64
39400,note_off,400,0,12,,,,,,,,11,,,,67,64
39440,note_off,80,0,13,,,,,,,,12,,,,58,64
39440,note_off,80,0,8,,,,,,,,6,,,,58,64
39480,note_off,120,0,5,,,,,,,,3,,,,74,64
39480,note_on,0,0,11,,,,,,,,10,,,,72,110
39480,note_on,160,0,9,,,,,,,,7,,,,38,75
39480,note_on,0,0,10,,,,,,,,8,,,,75,75
39480,note_off,120,0,10,,,,,,,,8,,,,74,64
39480,note_on,80,0,15,,,,,,,,14,,,,38,45
39480,note_on,0,0,5,,,,,,,,3,,,,75,108
39480,note_on,40,0,13,,,,,,,,12,,,,50,75
39480,note_off,120,0,11,,,,,,,,10,,,,70,64
39480,note_on,160,0,14,,,,,,,,13,,,,38,75
39480,note_on,40,0,8,,,,,,,,6,,,,50,92
39480,note_on,0,0,6,,,,,,,,4,,,,72,108
39480,note_off,120,0,6,,,,,,,,4,,,,70,64
39560,note_off,80,0,8,,,,,,,,6,,,,50,64
39560,note_off,80,0,14,,,,,,,,13,,,,38,64
39560,note_off,80,0,9,,,,,,,,7,,,,38,64
39560,note_off,80,0,13,,,,,,,,12,,,,50,64
39600,note_on,0,0,10,,,,,,,,8,,,,78,75
39600,note_on,0,0,6,,,,,,,,4,,,,74,108
39600,note_off,120,0,5,,,,,,,,3,,,,75,64
39600,note_on,0,0,5,,,,,,,,3,,,,78,108
39600,note_on,0,0,11,,,,,,,,10,,,,74,110
39600,note_off,120,0,11,,,,,,,,10,,,,72,64
39600,note_on,40,0,8,,,,,,,,6,,,,58,92
39600,note_off,120,0,10,,,,,,,,8,,,,75,64
39600,note_on,40,0,13,,,,,,,,12,,,,58,75
39600,note_off,120,0,6,,,,,,,,4,,,,72,64
39680,note_off,80,0,13,,,,,,,,12,,,,58,64
39680,note_off,80,0,8,,,,,,,,6,,,,58,64
39720,note_off,120,0,11,,,,,,,,10,,,,74,64
39720,note_on,0,0,5,,,,,,,,3,,,,79,108
39720,note_on,0,0,6,,,,,,,,4,,,,75,108
39720,note_off,120,0,6,,,,,,,,4,,,,74,64
39720,note_off,120,0,10,,,,,,,,8,,,,78,64
39720,note_on,0,0,11,,,,,,,,10,,,,75,110
39720,note_off,120,0,5,,,,,,,,3,,,,78,64
39720,note_on,160,0,14,,,,,,,,13,,,,46,75
39720,note_on,160,0,9,,,,,,,,7,,,,46,75
39720,note_on,0,0,10,,,,,,,,8,,,,79,75
39720,note_on,40,0,13,,,,,,,,12,,,,50,75
39720,note_on,40,0,8,,,,,,,,6,,,,50,92
39800,note_off,80,0,13,,,,,,,,12,,,,50,64
39800,note_off,80,0,14,,,,,,,,13,,,,46,64
39800,note_off,80,0,8,,,,,,,,6,,,,50,64
39800,note_off,80,0,9,,,,,,,,7,,,,46,64
39840,note_on,40,0,8,,,,,,,,6,,,,58,92
39840,note_on,0,0,6,,,,,,,,4,,,,78,108
39840,note_on,0,0,5,,,,,,,,3,,,,81,108
39840,note_off,120,0,5,,,,,,,,3,,,,79,64
39840,note_off,120,0,11,,,,,,,,10,,,,75,64
39840,note_off,120,0,6,,,,,,,,4,,,,75,64
39840,note_on,40,0,13,,,,,,,,12,,,,58,75
39840,note_on,0,0,10,,,,,,,,8,,,,81,75
39840,note_off,120,0,10,,,,,,,,8,,,,79,64
39840,note_on,0,0,11,,,,,,,,10,,,,78,110
39880,note_off,400,0,15,,,,,,,,14,,,,38,64
39920,note_off,80,0,8,,,,,,,,6,,,,58,64
39920,note_off,80,0,13,,,,,,,,12,,,,58,64
39960,note_off,120,0,10,,,,,,,,8,,,,81,64
39960,note_on,0,0,10,,,,,,,,8,,,,82,75
39960,note_on,0,0,5,,,,,,,,3,,,,82,108
39960,note_off,120,0,5,,,,,,,,3,,,,81,64
39960,note_on,160,0,14,,,,,,,,13,,,,38,75
39960,note_off,120,0,6,,,,,,,,4,,,,78,64
39960,note_on,0,0,6,,,,,,,,4,,,,79,108
39960,note_on,80,0,15,,,,,,,,14,,,,38,45
39960,note_on,0,0,11,,,,,,,,10,,,,79,110
39960,note_off,120,0,11,,,,,,,,10,,,,78,64
39960,note_on,160,0,9,,,,,,,,7,,,,38,75
39960,note_on,40,0,8,,,,,,,,6,,,,50,92
39960,note_on,40,0,13,,,,,,,,12,,,,50,75
40040,note_off,80,0,13,,,,,,,,12,,,,50,64
40040,note_off,80,0,14,,,,,,,,13,,,,38,64
40040,note_off,80,0,9,,,,,,,,7,,,,38,64
40040,note_off,80,0,8,,,,,,,,6,,,,50,64
40080,note_on,680,0,12,,,,,,,,11,,,,74,75
40080,note_on,680,0,7,,,,,,,,5,,,,74,92
40080,note_on,40,0,8,,,,,,,,6,,,,58,92
40080,note_on,40,0,13,,,,,,,,12,,,,58,75
40160,note_off,80,0,8,,,,,,,,6,,,,58,64
40160,note_off,80,0,13,,,,,,,,12,,,,58,64
40195,note_off,235,0,10,,,,,,,,8,,,,82,64
40195,note_off,235,0,6,,,,,,,,4,,,,79,64
40195,note_off,235,0,11,,,,,,,,10,,,,79,64
40195,note_off,235,0,5,,,,,,,,3,,,,82,64
40200,note_on,40,0,13,,,,,,,,12,,,,50,75
40200,note_off,120,0,7,,,,,,,,5,,,,74,64
40200,note_on,0,0,7,,,,,,,,5,,,,70,92
40200,note_on,160,0,9,,,,,,,,7,,,,46,75
40200,note_on,40,0,8,,,,,,,,6,,,,50,92
40200,note_off,120,0,12,,,,,,,,11,,,,74,64
40200,note_on,0,0,12,,,,,,,,11,,,,70,75
40200,note_on,160,0,14,,,,,,,,13,,,,46,75
40280,note_off,80,0,14,,,,,,,,13,,,,46,64
40280,note_off,80,0,9,,,,,,,,7,,,,46,64
40280,note_off,80,0,8,,,,,,,,6,,,,50,64
40280,note_off,80,0,13,,,,,,,,12,,,,50,64
40320,note_off,120,0,7,,,,,,,,5,,,,70,64
40320,note_on,0,0,7,,,,,,,,5,,,,67,92
40320,note_on,40,0,8,,,,,,,,6,,,,58,92
40320,note_on,0,0,12,,,,,,,,11,,,,67,75
40320,note_off,120,0,12,,,,,,,,11,,,,70,64
40320,note_on,40,0,13,,,,,,,,12,,,,58,75
40360,note_off,400,0,15,,,,,,,,14,,,,38,64
40400,note_off,80,0,8,,,,,,,,6,,,,58,64
40400,note_off,80,0,13,,,,,,,,12,,,,58,64
40440,note_on,160,0,9,,,,,,,,7,,,,38,75
40440,note_on,160,0,14,,,,,,,,13,,,,38,75
40440,note_on,80,0,15,,,,,,,,14,,,,38,45
40440,note_on,40,0,13,,,,,,,,12,,,,50,75
40440,note_on,0,0,7,,,,,,,,5,,,,66,92
40440,note_off,120,0,7,,,,,,,,5,,,,67,64
40440,note_off,120,0,12,,,,,,,,11,,,,67,64
40440,note_on,0,0,12,,,,,,,,11,,,,66,75
40440,note_on,40,0,8,,,,,,,,6,,,,50,92
40520,note_off,80,0,13,,,,,,,,12,,,,50,64
40520,note_off,80,0,8,,,,,,,,6,,,,50,64
40520,note_off,80,0,9,,,,,,,,7,,,,38,64
40520,note_off,80,0,14,,,,,,,,13,,,,38,64
40560,note_on,40,0,13,,,,,,,,12,,,,57,75
40560,note_on,365,0,10,,,,,,,,8,,,,74,75
40560,note_on,365,0,11,,,,,,,,10,,,,66,110
40560,note_on,40,0,8,,,,,,,,6,,,,57,92
40560,note_on,365,0,6,,,,,,,,4,,,,66,108
40560,note_on,365,0,5,,,,,,,,3,,,,74,108
40640,note_off,80,0,13,,,,,,,,12,,,,57,64
40640,note_off,80,0,8,,,,,,,,6,,,,57,64
40680,note_on,0,0,5,,,,,,,,3,,,,76,108
40680,note_on,160,0,14,,,,,,,,13,,,,45,75
40680,note_off,120,0,5,,,,,,,,3,,,,74,64
40680,note_off,120,0,10,,,,,,,,8,,,,74,64
40680,note_on,0,0,10,,,,,,,,8,,,,76,75
40680,note_on,40,0,13,,,,,,,,12,,,,50,75
40680,note_off,120,0,11,,,,,,,,10,,,,66,64
40680,note_off,120,0,6,,,,,,,,4,,,,66,64
40680,note_on,160,0,9,,,,,,,,7,,,,45,75
40680,note_on,0,0,6,,,,,,,,4,,,,67,108
40680,note_on,40,0,8,,,,,,,,6,,,,50,92
40680,note_on,0,0,11,,,,,,,,10,,,,67,110
40760,note_off,80,0,13,,,,,,,,12,,,,50,64
40760,note_off,80,0,14,,,,,,,,13,,,,45,64
40760,note_off,80,0,9,,,,,,,,7,,,,45,64
40760,note_off,80,0,8,,,,,,,,6,,,,50,64
40800,note_on,40,0,8,,,,,,,,6,,,,57,92
40800,note_on,0,0,5,,,,,,,,3,,,,78,108
40800,note_on,0,0,10,,,,,,,,8,,,,78,75
40800,note_off,120,0,10,,,,,,,,8,,,,76,64
40800,note_on,40,0,13,,,,,,,,12,,,,57,75
40800,note_on,0,0,11,,,,,,,,10,,,,69,110
40800,note_off,120,0,5,,,,,,,,3,,,,76,64
40800,note_on,0,0,6,,,,,,,,4,,,,69,108
40800,note_off,120,0,6,,,,,,,,4,,,,67,64
40800,note_off,120,0,11,,,,,,,,10,,,,67,64
40840,note_off,400,0,15,,,,,,,,14,,,,38,64
40840,note_off,400,0,7,,,,,,,,5,,,,66,64
40840,note_off,400,0,12,,,,,,,,11,,,,66,64
40880,note_off,80,0,8,,,,,,,,6,,,,57,64
40880,note_off,80,0,13,,,,,,,,12,,,,57,64
40920,note_on,0,0,11,,,,,,,,10,,,,70,110
40920,note_off,120,0,10,,,,,,,,8,,,,78,64
40920,note_on,0,0,10,,,,,,,,8,,,,79,75
40920,note_on,160,0,14,,,,,,,,13,,,,38,75
40920,note_off,120,0,5,,,,,,,,3,,,,78,64
40920,note_on,0,0,5,,,,,,,,3,,,,79,108
40920,note_on,80,0,15,,,,,,,,14,,,,38,45
40920,note_on,40,0,13,,,,,,,,12,,,,50,75
40920,note_on,0,0,6,,,,,,,,4,,,,70,108
40920,note_off,120,0,6,,,,,,,,4,,,,69,64
40920,note_on,160,0,9,,,,,,,,7,,,,38,75
40920,note_on,40,0,8,,,,,,,,6,,,,50,92
40920,note_off,120,0,11,,,,,,,,10,,,,69,64
41000,note_off,80,0,13,,,,,,,,12,,,,50,64
41000,note_off,80,0,9,,,,,,,,7,,,,38,64
41000,note_off,80,0,14,,,,,,,,13,,,,38,64
41000,note_off,80,0,8,,,,,,,,6,,,,50,64
41040,note_off,120,0,6,,,,,,,,4,,,,70,64
41040,note_on,0,0,6,,,,,,,,4,,,,72,108
41040,note_on,40,0,13,,,,,,,,12,,,,57,75
41040,note_off,120,0,10,,,,,,,,8,,,,79,64
41040,note_on,40,0,8,,,,,,,,6,,,,57,92
41040,note_on,0,0,10,,,,,,,,8,,,,81,75
41040,note_off,120,0,11,,,,,,,,10,,,,70,64
41040,note_on,0,0,11,,,,,,,,10,,,,72,110
41040,note_off,120,0,5,,,,,,,,3,,,,79,64
41040,note_on,0,0,5,,,,,,,,3,,,,81,108
41120,note_off,80,0,13,,,,,,,,12,,,,57,64
41120,note_off,80,0,8,,,,,,,,6,,,,57,64
41160,note_on,40,0,8,,,,,,,,6,,,,50,92
41160,note_on,160,0,14,,,,,,,,13,,,,45,75
41160,note_on,0,0,6,,,,,,,,4,,,,74,108
41160,note_off,120,0,5,,,,,,,,3,,,,81,64
41160,note_on,0,0,5,,,,,,,,3,,,,82,108
41160,note_on,160,0,9,,,,,,,,7,,,,45,75
41160,note_off,120,0,11,,,,,,,,10,,,,72,64
41160,note_off,120,0,6,,,,,,,,4,,,,72,64
41160,note_on,40,0,13,,,,,,,,12,,,,50,75
41160,note_off,120,0,10,,,,,,,,8,,,,81,64
41160,note_on,0,0,11,,,,,,,,10,,,,74,110
41160,note_on,0,0,10,,,,,,,,8,,,,82,75
41240,note_off,80,0,14,,,,,,,,13,,,,45,64
41240,note_off,80,0,8,,,,,,,,6,,,,50,64
41240,note_off,80,0,13,,,,,,,,12,,,,50,64
41240,note_off,80,0,9,,,,,,,,7,,,,45,64
41280,note_off,120,0,11,,,,,,,,10,,,,74,64
41280,note_on,0,0,10,,,,,,,,8,,,,84,75
41280,note_off,120,0,6,,,,,,,,4,,,,74,64
41280,note_on,0,0,6,,,,,,,,4,,,,76,108
41280,note_on,0,0,5,,,,,,,,3,,,,84,108
41280,note_off,120,0,10,,,,,,,,8,,,,82,64
41280,note_on,40,0,8,,,,,,,,6,,,,57,92
41280,note_off,120,0,5,,,,,,,,3,,,,82,64
41280,note_on,40,0,13,,,,,,,,12,,,,57,75
41280,note_on,0,0,11,,,,,,,,10,,,,76,110
41320,note_off,400,0,15,,,,,,,,14,,,,38,64
41360,note_off,80,0,8,,,,,,,,6,,,,57,64
41360,note_off,80,0,13,,,,,,,,12,,,,57,64
41400,note_on,0,0,10,,,,,,,,8,,,,86,75
41400,note_on,160,0,14,,,,,,,,13,,,,38,75
41400,note_on,40,0,13,,,,,,,,12,,,,50,75
41400,note_on,80,0,15,,,,,,,,14,,,,38,45
41400,note_on,0,0,11,,,,,,,,10,,,,78,110
41400,note_off,120,0,11,,,,,,,,10,,,,76,64
41400,note_on,0,0,5,,,,,,,,3,,,,86,108
41400,note_off,120,0,10,,,,,,,,8,,,,84,64
41400,note_off,120,0,5,,,,,,,,3,,,,84,64
41400,note_on,40,0,8,,,,,,,,6,,,,50,92
41400,note_on,0,0,6,,,,,,,,4,,,,78,108
41400,note_off,120,0,6,,,,,,,,4,,,,76,64
41400,note_on,160,0,9,,,,,,,,7,,,,38,75
41480,note_off,80,0,9,,,,,,,,7,,,,38,64
41480,note_off,80,0,14,,,,,,,,13,,,,38,64
41480,note_off,80,0,8,,,,,,,,6,,,,50,64
41480,note_off,80,0,13,,,,,,,,12,,,,50,64
41520,note_on,680,0,12,,,,,,,,11,,,,74,75
41520,note_on,40,0,8,,,,,,,,6,,,,57,92
41520,note_on,40,0,13,,,,,,,,12,,,,57,75
41520,note_on,680,0,7,,,,,,,,5,,,,74,92
41600,note_off,80,0,13,,,,,,,,12,,,,57,64
41600,note_off,80,0,8,,,,,,,,6,,,,57,64
41635,note_off,235,0,6,,,,,,,,4,,,,78,64
41635,note_off,235,0,10,,,,,,,,8,,,,86,64
41635,note_off,235,0,11,,,,,,,,10,,,,78,64
41635,note_off,235,0,5,,,,,,,,3,,,,86,64
41640,note_on,0,0,7,,,,,,,,5,,,,69,92
41640,note_off,120,0,7,,,,,,,,5,,,,74,64
41640,note_on,40,0,13,,,,,,,,12,,,,50,75
41640,note_on,40,0,8,,,,,,,,6,,,,50,92
41640,note_off,120,0,12,,,,,,,,11,,,,74,64
41640,note_on,160,0,9,,,,,,,,7,,,,45,75
41640,note_on,160,0,14,,,,,,,,13,,,,45,75
41640,note_on,0,0,12,,,,,,,,11,,,,69,75
41720,note_off,80,0,9,,,,,,,,7,,,,45,64
41720,note_off,80,0,8,,,,,,,,6,,,,50,64
41720,note_off,80,0,14,,,,,,,,13,,,,45,64
41720,note_off,80,0,13,,,,,,,,12,,,,50,64
41760,note_on,40,0,8,,,,,,,,6,,,,57,92
41760,note_off,120,0,7,,,,,,,,5,,,,69,64
41760,note_off,120,0,12,,,,,,,,11,,,,69,64
41760,note_on,0,0,12,,,,,,,,11,,,,66,75
41760,note_on,0,0,7,,,,,,,,5,,,,66,92
41760,note_on,40,0,13,,,,,,,,12,,,,57,75
41800,note_off,400,0,15,,,,,,,,14,,,,38,64
41840,note_off,80,0,8,,,,,,,,6,,,,57,64
41840,note_off,80,0,13,,,,,,,,12,,,,57,64
41880,note_on,245,0,6,,,,,,,,4,,,,67,108
41880,note_on,245,0,5,,,,,,,,3,,,,82,108
41880,note_on,40,0,13,,,,,,,,12,,,,43,75
41880,note_on,0,0,7,,,,,,,,5,,,,62,92
41880,note_off,120,0,7,,,,,,,,5,,,,66,64
41880,note_on,245,0,10,,,,,,,,8,,,,82,75
41880,note_on,80,0,15,,,,,,,,14,,,,31,45
41880,note_on,0,0,12,,,,,,,,11,,,,62,75
41880,note_on,40,0,8,,,,,,,,6,,,,43,92
41880,note_on,160,0,14,,,,,,,,13,,,,31,75
41880,note_off,120,0,12,,,,,,,,11,,,,66,64
41880,note_on,245,0,11,,,,,,,,10,,,,67,110
41880,note_on,160,0,9,,,,,,,,7,,,,31,75
41960,note_off,80,0,14,,,,,,,,13,,,,31,64
41960,note_off,80,0,13,,,,,,,,12,,,,43,64
41960,note_off,80,0,9,,,,,,,,7,,,,31,64
41960,note_off,80,0,7,,,,,,,,5,,,,62,64
41960,note_off,80,0,6,,,,,,,,4,,,,67,64
41960,note_off,80,0,12,,,,,,,,11,,,,62,64
41960,note_off,80,0,5,,,,,,,,3,,,,82,64
41960,note_off,80,0,11,,,,,,,,10,,,,67,64
41960,note_off,80,0,10,,,,,,,,8,,,,82,64
41960,note_off,80,0,8,,,,,,,,6,,,,43,64
42000,note_on,40,0,10,,,,,,,,8,,,,79,74
42000,note_on,40,0,5,,,,,,,,3,,,,79,107
42000,note_on,40,0,6,,,,,,,,4,,,,70,107
42000,note_on,40,0,11,,,,,,,,10,,,,70,110
42080,note_off,80,0,6,,,,,,,,4,,,,70,64
42080,note_off,80,0,5,,,,,,,,3,,,,79,64
42080,note_off,80,0,10,,,,,,,,8,,,,79,64
42080,note_off,80,0,11,,,,,,,,10,,,,70,64
42120,note_on,160,0,7,,,,,,,,5,,,,62,90
42120,note_on,160,0,13,,,,,,,,12,,,,43,73
42120,note_on,40,0,11,,,,,,,,10,,,,79,110
42120,note_on,160,0,12,,,,,,,,11,,,,62,73
42120,note_on,40,0,10,,,,,,,,8,,,,74,73
42120,note_on,160,0,9,,,,,,,,7,,,,31,74
42120,note_on,160,0,14,,,,,,,,13,,,,31,73
42120,note_on,160,0,8,,,,,,,,6,,,,43,90
42120,note_on,40,0,5,,,,,,,,3,,,,74,106
42120,note_on,40,0,6,,,,,,,,4,,,,79,106
42200,note_off,80,0,9,,,,,,,,7,,,,31,64
42200,note_off,80,0,8,,,,,,,,6,,,,43,64
42200,note_off,80,0,14,,,,,,,,13,,,,31,64
42200,note_off,80,0,5,,,,,,,,3,,,,74,64
42200,note_off,80,0,11,,,,,,,,10,,,,79,64
42200,note_off,80,0,10,,,,,,,,8,,,,74,64
42200,note_off,80,0,13,,,,,,,,12,,,,43,64
42200,note_off,80,0,6,,,,,,,,4,,,,79,64
42200,note_off,80,0,12,,,,,,,,11,,,,62,64
42200,note_off,80,0,7,,,,,,,,5,,,,62,64
42240,note_on,40,0,6,,,,,,,,4,,,,82,105
42240,note_on,40,0,5,,,,,,,,3,,,,70,105
42240,note_on,40,0,11,,,,,,,,10,,,,82,110
42240,note_on,40,0,10,,,,,,,,8,,,,70,72
42280,note_off,400,0,15,,,,,,,,14,,,,31,64
42320,note_off,80,0,11,,,,,,,,10,,,,82,64
42320,note_off,80,0,6,,,,,,,,4,,,,82,64
42320,note_off,80,0,5,,,,,,,,3,,,,70,64
42320,note_off,80,0,10,,,,,,,,8,,,,70,64
42360,note_on,80,0,15,,,,,,,,14,,,,31,44
42360,note_on,160,0,13,,,,,,,,12,,,,43,71
42360,note_on,40,0,5,,,,,,,,3,,,,82,104
42360,note_on,160,0,12,,,,,,,,11,,,,62,71
42360,note_on,160,0,7,,,,,,,,5,,,,62,88
42360,note_on,40,0,10,,,,,,,,8,,,,82,71
42360,note_on,160,0,14,,,,,,,,13,,,,31,71
42360,note_on,160,0,8,,,,,,,,6,,,,43,88
42360,note_on,40,0,11,,,,,,,,10,,,,67,110
42360,note_on,160,0,9,,,,,,,,7,,,,31,73
42360,note_on,40,0,6,,,,,,,,4,,,,67,104
42440,note_off,80,0,6,,,,,,,,4,,,,67,64
42440,note_off,80,0,8,,,,,,,,6,,,,43,64
42440,note_off,80,0,12,,,,,,,,11,,,,62,64
42440,note_off,80,0,7,,,,,,,,5,,,,62,64
42440,note_off,80,0,14,,,,,,,,13,,,,31,64
42440,note_off,80,0,5,,,,,,,,3,,,,82,64
42440,note_off,80,0,9,,,,,,,,7,,,,31,64
42440,note_off,80,0,11,,,,,,,,10,,,,67,64
42440,note_off,80,0,13,,,,,,,,12,,,,43,64
42440,note_off,80,0,10,,,,,,,,8,,,,82,64
42480,note_on,40,0,5,,,,,,,,3,,,,79,103
42480,note_on,40,0,11,,,,,,,,10,,,,70,110
42480,note_on,40,0,6,,,,,,,,4,,,,70,103
42480,note_on,40,0,10,,,,,,,,8,,,,79,70
42560,note_off,80,0,11,,,,,,,,10,,,,70,64
42560,note_off,80,0,5,,,,,,,,3,,,,79,64
42560,note_off,80,0,10,,,,,,,,8,,,,79,64
42560,note_off,80,0,6,,,,,,,,4,,,,70,64
42600,note_on,160,0,13,,,,,,,,12,,,,43,69
42600,note_on,160,0,7,,,,,,,,5,,,,62,86
42600,note_on,40,0,11,,,,,,,,10,,,,79,110
42600,note_on,40,0,6,,,,,,,,4,,,,79,102
42600,note_on,160,0,8,,,,,,,,6,,,,43,86
42600,note_on,160,0,9,,,,,,,,7,,,,31,72
42600,note_on,160,0,14,,,,,,,,13,,,,31,69
42600,note_on,40,0,10,,,,,,,,8,,,,74,69
42600,note_on,160,0,12,,,,,,,,11,,,,62,69
42600,note_on,40,0,5,,,,,,,,3,,,,74,102
42680,note_off,80,0,8,,,,,,,,6,,,,43,64
42680,note_off,80,0,14,,,,,,,,13,,,,31,64
42680,note_off,80,0,13,,,,,,,,12,,,,43,64
42680,note_off,80,0,10,,,,,,,,8,,,,74,64
42680,note_off,80,0,11,,,,,,,,10,,,,79,64
42680,note_off,80,0,6,,,,,,,,4,,,,79,64
42680,note_off,80,0,9,,,,,,,,7,,,,31,64
42680,note_off,80,0,7,,,,,,,,5,,,,62,64
42680,note_off,80,0,5,,,,,,,,3,,,,74,64
42680,note_off,80,0,12,,,,,,,,11,,,,62,64
42720,note_on,40,0,11,,,,,,,,10,,,,82,110
42720,note_on,40,0,5,,,,,,,,3,,,,70,101
42720,note_on,40,0,10,,,,,,,,8,,,,70,68
42720,note_on,40,0,6,,,,,,,,4,,,,82,101
42760,note_off,400,0,15,,,,,,,,14,,,,31,64
42800,note_off,80,0,10,,,,,,,,8,,,,70,64
42800,note_off,80,0,11,,,,,,,,10,,,,82,64
42800,note_off,80,0,6,,,,,,,,4,,,,82,64
42800,note_off,80,0,5,,,,,,,,3,,,,70,64
42840,note_on,160,0,13,,,,,,,,12,,,,43,67
42840,note_on,160,0,14,,,,,,,,13,,,,31,67
42840,note_on,80,0,15,,,,,,,,14,,,,31,43
42840,note_on,40,0,10,,,,,,,,8,,,,82,67
42840,note_on,40,0,6,,,,,,,,4,,,,67,100
42840,note_on,40,0,5,,,,,,,,3,,,,82,100
42840,note_on,160,0,8,,,,,,,,6,,,,43,84
42840,note_on,40,0,11,,,,,,,,10,,,,67,110
42840,note_on,160,0,9,,,,,,,,7,,,,31,71
42840,note_on,160,0,7,,,,,,,,5,,,,62,84
42840,note_on,160,0,12,,,,,,,,11,,,,62,67
42920,note_off,80,0,8,,,,,,,,6,,,,43,64
42920,note_off,80,0,11,,,,,,,,10,,,,67,64
42920,note_off,80,0,6,,,,,,,,4,,,,67,64
42920,note_off,80,0,13,,,,,,,,12,,,,43,64
42920,note_off,80,0,5,,,,,,,,3,,,,82,64
42920,note_off,80,0,9,,,,,,,,7,,,,31,64
42920,note_off,80,0,10,,,,,,,,8,,,,82,64
42920,note_off,80,0,7,,,,,,,,5,,,,62,64
42920,note_off,80,0,14,,,,,,,,13,,,,31,64
42920,note_off,80,0,12,,,,,,,,11,,,,62,64
42960,note_on,40,0,6,,,,,,,,4,,,,70,99
42960,note_on,40,0,11,,,,,,,,10,,,,70,110
42960,note_on,40,0,10,,,,,,,,8,,,,79,66
42960,note_on,40,0,5,,,,,,,,3,,,,79,99
43040,note_off,80,0,5,,,,,,,,3,,,,79,64
43040,note_off,80,0,10,,,,,,,,8,,,,79,64
43040,note_off,80,0,6,,,,,,,,4,,,,70,64
43040,note_off,80,0,11,,,,,,,,10,,,,70,64
43080,note_on,160,0,12,,,,,,,,11,,,,62,65
43080,note_on,40,0,11,,,,,,,,10,,,,79,110
43080,note_on,40,0,5,,,,,,,,3,,,,74,98
43080,note_on,160,0,9,,,,,,,,7,,,,31,70
43080,note_on,160,0,7,,,,,,,,5,,,,62,82
43080,note_on,40,0,6,,,,,,,,4,,,,79,98
43080,note_on,160,0,8,,,,,,,,6,,,,43,82
43080,note_on,40,0,10,,,,,,,,8,,,,74,65
43080,note_on,160,0,14,,,,,,,,13,,,,31,65
43080,note_on,160,0,13,,,,,,,,12,,,,43,65
43160,note_off,80,0,14,,,,,,,,13,,,,31,64
43160,note_off,80,0,5,,,,,,,,3,,,,74,64
43160,note_off,80,0,6,,,,,,,,4,,,,79,64
43160,note_off,80,0,9,,,,,,,,7,,,,31,64
43160,note_off,80,0,10,,,,,,,,8,,,,74,64
43160,note_off,80,0,13,,,,,,,,12,,,,43,64
43160,note_off,80,0,8,,,,,,,,6,,,,43,64
43160,note_off,80,0,11,,,,,,,,10,,,,79,64
43160,note_off,80,0,7,,,,,,,,5,,,,62,64
43160,note_off,80,0,12,,,,,,,,11,,,,62,64
43200,note_on,40,0,10,,,,,,,,8,,,,70,64
43200,note_on,40,0,6,,,,,,,,4,,,,82,97
43200,note_on,40,0,11,,,,,,,,10,,,,82,110
43200,note_on,40,0,5,,,,,,,,3,,,,70,97
43240,note_off,400,0,15,,,,,,,,14,,,,31,64
43280,note_off,80,0,11,,,,,,,,10,,,,82,64
43280,note_off,80,0,10,,,,,,,,8,,,,70,64
43280,note_off,80,0,5,,,,,,,,3,,,,70,64
43280,note_off,80,0,6,,,,,,,,4,,,,82,64
43320,note_on,40,0,11,,,,,,,,10,,,,62,110
43320,note_on,160,0,14,,,,,,,,13,,,,31,63
43320,note_on,160,0,12,,,,,,,,11,,,,62,63
43320,note_on,80,0,15,,,,,,,,14,,,,31,42
43320,note_on,40,0,5,,,,,,,,3,,,,74,96
43320,note_on,160,0,13,,,,,,,,12,,,,43,63
43320,note_on,160,0,7,,,,,,,,5,,,,62,80
43320,note_on,40,0,6,,,,,,,,4,,,,62,96
43320,note_on,40,0,10,,,,,,,,8,,,,74,63
43320,note_on,160,0,8,,,,,,,,6,,,,43,80
43320,note_on,160,0,9,,,,,,,,7,,,,31,69
43400,note_off,80,0,10,,,,,,,,8,,,,74,64
43400,note_off,80,0,9,,,,,,,,7,,,,31,64
43400,note_off,80,0,7,,,,,,,,5,,,,62,64
43400,note_off,80,0,5,,,,,,,,3,,,,74,64
43400,note_off,80,0,14,,,,,,,,13,,,,31,64
43400,note_off,80,0,12,,,,,,,,11,,,,62,64
43400,note_off,80,0,11,,,,,,,,10,,,,62,64
43400,note_off,80,0,13,,,,,,,,12,,,,43,64
43400,note_off,80,0,8,,,,,,,,6,,,,43,64
43400,note_off,80,0,6,,,,,,,,4,,,,62,64
43440,note_on,40,0,5,,,,,,,,3,,,,70,95
43440,note_on,40,0,6,,,,,,,,4,,,,67,95
43440,note_on,40,0,10,,,,,,,,8,,,,70,62
43440,note_on,40,0,11,,,,,,,,10,,,,67,110
43520,note_off,80,0,10,,,,,,,,8,,,,70,64
43520,note_off,80,0,6,,,,,,,,4,,,,67,64
43520,note_off,80,0,11,,,,,,,,10,,,,67,64
43520,note_off,80,0,5,,,,,,,,3,,,,70,64
43560,note_on,40,0,6,,,,,,,,4,,,,70,94
43560,note_on,40,0,11,,,,,,,,10,,,,70,110
43560,note_on,40,0,5,,,,,,,,3,,,,67,94
43560,note_on,160,0,9,,,,,,,,7,,,,31,67
43560,note_on,40,0,10,,,,,,,,8,,,,67,61
43560,note_on,160,0,7,,,,,,,,5,,,,62,78
43560,note_on,160,0,14,,,,,,,,13,,,,31,61
43560,note_on,160,0,13,,,,,,,,12,,,,43,61
43560,note_on,160,0,8,,,,,,,,6,,,,43,78
43560,note_on,160,0,12,,,,,,,,11,,,,62,61
43640,note_off,80,0,9,,,,,,,,7,,,,31,64
43640,note_off,80,0,5,,,,,,,,3,,,,67,64
43640,note_off,80,0,12,,,,,,,,11,,,,62,64
43640,note_off,80,0,6,,,,,,,,4,,,,70,64
43640,note_off,80,0,7,,,,,,,,5,,,,62,64
43640,note_off,80,0,11,,,,,,,,10,,,,70,64
43640,note_off,80,0,14,,,,,,,,13,,,,31,64
43640,note_off,80,0,13,,,,,,,,12,,,,43,64
43640,note_off,80,0,10,,,,,,,,8,,,,67,64
43640,note_off,80,0,8,,,,,,,,6,,,,43,64
43680,note_on,40,0,11,,,,,,,,10,,,,74,110
43680,note_on,40,0,5,,,,,,,,3,,,,62,93
43680,note_on,40,0,6,,,,,,,,4,,,,74,93
43680,note_on,40,0,10,,,,,,,,8,,,,62,60
43720,note_off,400,0,15,,,,,,,,14,,,,31,64
43760,note_off,80,0,11,,,,,,,,10,,,,74,64
43760,note_off,80,0,5,,,,,,,,3,,,,62,64
43760,note_off,80,0,6,,,,,,,,4,,,,74,64
43760,note_off,80,0,10,,,,,,,,8,,,,62,64
43800,note_on,40,0,5,,,,,,,,3,,,,74,92
43800,note_on,40,0,11,,,,,,,,10,,,,62,110
43800,note_on,160,0,7,,,,,,,,5,,,,62,75
43800,note_on,160,0,12,,,,,,,,11,,,,62,59
43800,note_on,160,0,13,,,,,,,,12,,,,43,59
43800,note_on,160,0,14,,,,,,,,13,,,,31,59
43800,note_on,80,0,15,,,,,,,,14,,,,31,40
43800,note_on,160,0,8,,,,,,,,6,,,,43,75
43800,note_on,40,0,10,,,,,,,,8,,,,74,59
43800,note_on,40,0,6,,,,,,,,4,,,,62,92
43800,note_on,160,0,9,,,,,,,,7,,,,31,65
43880,note_off,80,0,5,,,,,,,,3,,,,74,64
43880,note_off,80,0,12,,,,,,,,11,,,,62,64
43880,note_off,80,0,14,,,,,,,,13,,,,31,64
43880,note_off,80,0,10,,,,,,,,8,,,,74,64
43880,note_off,80,0,11,,,,,,,,10,,,,62,64
43880,note_off,80,0,8,,,,,,,,6,,,,43,64
43880,note_off,80,0,13,,,,,,,,12,,,,43,64
43880,note_off,80,0,7,,,,,,,,5,,,,62,64
43880,note_off,80,0,9,,,,,,,,7,,,,31,64
43880,note_off,80,0,6,,,,,,,,4,,,,62,64
43920,note_on,40,0,10,,,,,,,,8,,,,70,58
43920,note_on,40,0,6,,,,,,,,4,,,,67,91
43920,note_on,40,0,11,,,,,,,,10,,,,67,110
43920,note_on,40,0,5,,,,,,,,3,,,,70,91
44000,note_off,80,0,5,,,,,,,,3,,,,70,64
44000,note_off,80,0,10,,,,,,,,8,,,,70,64
44000,note_off,80,0,11,,,,,,,,10,,,,67,64
44000,note_off,80,0,6,,,,,,,,4,,,,67,64
44040,note_on,40,0,5,,,,,,,,3,,,,67,90
44040,note_on,160,0,13,,,,,,,,12,,,,43,57
44040,note_on,40,0,11,,,,,,,,10,,,,70,110
44040,note_on,160,0,8,,,,,,,,6,,,,43,72
44040,note_on,160,0,9,,,,,,,,7,,,,31,63
44040,note_on,160,0,12,,,,,,,,11,,,,62,57
44040,note_on,40,0,10,,,,,,,,8,,,,67,57
44040,note_on,160,0,7,,,,,,,,5,,,,62,72
44040,note_on,40,0,6,,,,,,,,4,,,,70,90
44040,note_on,160,0,14,,,,,,,,13,,,,31,57
44120,note_off,80,0,11,,,,,,,,10,,,,70,64
44120,note_off,80,0,10,,,,,,,,8,,,,67,64
44120,note_off,80,0,6,,,,,,,,4,,,,70,64
44120,note_off,80,0,7,,,,,,,,5,,,,62,64
44120,note_off,80,0,9,,,,,,,,7,,,,31,64
44120,note_off,80,0,5,,,,,,,,3,,,,67,64
44120,note_off,80,0,12,,,,,,,,11,,,,62,64
44120,note_off,80,0,13,,,,,,,,12,,,,43,64
44120,note_off,80,0,14,,,,,,,,13,,,,31,64
44120,note_off,80,0,8,,,,,,,,6,,,,43,64
44160,note_on,40,0,6,,,,,,,,4,,,,74,89
44160,note_on,40,0,11,,,,,,,,10,,,,74,110
44160,note_on,40,0,5,,,,,,,,3,,,,62,89
44160,note_on,40,0,10,,,,,,,,8,,,,62,56
44200,note_off,400,0,15,,,,,,,,14,,,,31,64
44240,note_off,80,0,10,,,,,,,,8,,,,62,64
44240,note_off,80,0,5,,,,,,,,3,,,,62,64
44240,note_off,80,0,11,,,,,,,,10,,,,74,64
44240,note_off,80,0,6,,,,,,,,4,,,,74,64
44280,note_on,40,0,11,,,,,,,,10,,,,62,110
44280,note_on,40,0,10,,,,,,,,8,,,,74,55
44280,note_on,160,0,9,,,,,,,,7,,,,31,61
44280,note_on,160,0,13,,,,,,,,12,,,,43,54
44280,note_on,40,0,6,,,,,,,,4,,,,62,88
44280,note_on,160,0,12,,,,,,,,11,,,,62,54
44280,note_on,80,0,15,,,,,,,,14,,,,31,38
44280,note_on,160,0,7,,,,,,,,5,,,,62,69
44280,note_on,40,0,5,,,,,,,,3,,,,74,88
44280,note_on,160,0,14,,,,,,,,13,,,,31,54
44280,note_on,160,0,8,,,,,,,,6,,,,43,69
44360,note_off,80,0,10,,,,,,,,8,,,,74,64
44360,note_off,80,0,14,,,,,,,,13,,,,31,64
44360,note_off,80,0,5,,,,,,,,3,,,,74,64
44360,note_off,80,0,7,,,,,,,,5,,,,62,64
44360,note_off,80,0,13,,,,,,,,12,,,,43,64
44360,note_off,80,0,11,,,,,,,,10,,,,62,64
44360,note_off,80,0,8,,,,,,,,6,,,,43,64
44360,note_off,80,0,9,,,,,,,,7,,,,31,64
44360,note_off,80,0,6,,,,,,,,4,,,,62,64
44360,note_off,80,0,12,,,,,,,,11,,,,62,64
44400,note_on,40,0,10,,,,,,,,8,,,,70,54
44400,note_on,40,0,11,,,,,,,,10,,,,67,110
44400,note_on,40,0,6,,,,,,,,4,,,,67,87
44400,note_on,40,0,5,,,,,,,,3,,,,70,87
44480,note_off,80,0,11,,,,,,,,10,,,,67,64
44480,note_off,80,0,10,,,,,,,,8,,,,70,64
44480,note_off,80,0,6,,,,,,,,4,,,,67,64
44480,note_off,80,0,5,,,,,,,,3,,,,70,64
44520,note_on,160,0,12,,,,,,,,11,,,,62,51
44520,note_on,160,0,9,,,,,,,,7,,,,31,59
44520,note_on,40,0,10,,,,,,,,8,,,,67,53
44520,note_on,160,0,7,,,,,,,,5,,,,62,66
44520,note_on,40,0,6,,,,,,,,4,,,,70,86
44520,note_on,160,0,13,,,,,,,,12,,,,43,51
44520,note_on,40,0,11,,,,,,,,10,,,,70,110
44520,note_on,160,0,8,,,,,,,,6,,,,43,66
44520,note_on,40,0,5,,,,,,,,3,,,,67,86
44520,note_on,160,0,14,,,,,,,,13,,,,31,51
44600,note_off,80,0,5,,,,,,,,3,,,,67,64
44600,note_off,80,0,7,,,,,,,,5,,,,62,64
44600,note_off,80,0,14,,,,,,,,13,,,,31,64
44600,note_off,80,0,8,,,,,,,,6,,,,43,64
44600,note_off,80,0,12,,,,,,,,11,,,,62,64
44600,note_off,80,0,11,,,,,,,,10,,,,70,64
44600,note_off,80,0,10,,,,,,,,8,,,,67,64
44600,note_off,80,0,6,,,,,,,,4,,,,70,64
44600,note_off,80,0,9,,,,,,,,7,,,,31,64
44600,note_off,80,0,13,,,,,,,,12,,,,43,64
44640,note_on,40,0,11,,,,,,,,10,,,,74,110
44640,note_on,40,0,10,,,,,,,,8,,,,62,52
44640,note_on,40,0,5,,,,,,,,3,,,,62,85
44640,note_on,40,0,6,,,,,,,,4,,,,74,85
44680,note_off,400,0,15,,,,,,,,14,,,,31,64
44720,note_off,80,0,5,,,,,,,,3,,,,62,64
44720,note_off,80,0,11,,,,,,,,10,,,,74,64
44720,note_off,80,0,10,,,,,,,,8,,,,62,64
44720,note_off,80,0,6,,,,,,,,4,,,,74,64
44760,note_on,40,0,5,,,,,,,,3,,,,67,84
44760,note_on,160,0,12,,,,,,,,11,,,,62,48
44760,note_on,160,0,8,,,,,,,,6,,,,43,63
44760,note_on,40,0,11,,,,,,,,10,,,,55,110
44760,note_on,160,0,7,,,,,,,,5,,,,62,63
44760,note_on,160,0,14,,,,,,,,13,,,,31,48
44760,note_on,40,0,10,,,,,,,,8,,,,67,51
44760,note_on,80,0,15,,,,,,,,14,,,,31,36
44760,note_on,160,0,9,,,,,,,,7,,,,31,57
44760,note_on,40,0,6,,,,,,,,4,,,,55,84
44760,note_on,160,0,13,,,,,,,,12,,,,43,48
44840,note_off,80,0,11,,,,,,,,10,,,,55,64
44840,note_off,80,0,7,,,,,,,,5,,,,62,64
44840,note_off,80,0,14,,,,,,,,13,,,,31,64
44840,note_off,80,0,12,,,,,,,,11,,,,62,64
44840,note_off,80,0,5,,,,,,,,3,,,,67,64
44840,note_off,80,0,13,,,,,,,,12,,,,43,64
44840,note_off,80,0,9,,,,,,,,7,,,,31,64
44840,note_off,80,0,6,,,,,,,,4,,,,55,64
44840,note_off,80,0,8,,,,,,,,6,,,,43,64
44840,note_off,80,0,10,,,,,,,,8,,,,67,64
44880,note_on,40,0,6,,,,,,,,4,,,,58,82
44880,note_on,40,0,11,,,,,,,,10,,,,58,110
44880,note_on,40,0,10,,,,,,,,8,,,,62,50
44880,note_on,40,0,5,,,,,,,,3,,,,62,82
44960,note_off,80,0,11,,,,,,,,10,,,,58,64
44960,note_off,80,0,5,,,,,,,,3,,,,62,64
44960,note_off,80,0,10,,,,,,,,8,,,,62,64
44960,note_off,80,0,6,,,,,,,,4,,,,58,64
45000,note_on,40,0,11,,,,,,,,10,,,,62,110
45000,note_on,160,0,9,,,,,,,,7,,,,31,55
45000,note_on,160,0,12,,,,,,,,11,,,,62,45
45000,note_on,40,0,10,,,,,,,,8,,,,58,49
45000,note_on,40,0,6,,,,,,,,4,,,,62,80
45000,note_on,160,0,7,,,,,,,,5,,,,62,60
45000,note_on,160,0,8,,,,,,,,6,,,,43,60
45000,note_on,160,0,14,,,,,,,,13,,,,31,45
45000,note_on,40,0,5,,,,,,,,3,,,,58,80
45000,note_on,160,0,13,,,,,,,,12,,,,43,45
45080,note_off,80,0,9,,,,,,,,7,,,,31,64
45080,note_off,80,0,6,,,,,,,,4,,,,62,64
45080,note_off,80,0,13,,,,,,,,12,,,,43,64
45080,note_off,80,0,8,,,,,,,,6,,,,43,64
45080,note_off,80,0,11,,,,,,,,10,,,,62,64
45080,note_off,80,0,12,,,,,,,,11,,,,62,64
45080,note_off,80,0,10,,,,,,,,8,,,,58,64
45080,note_off,80,0,7,,,,,,,,5,,,,62,64
45080,note_off,80,0,14,,,,,,,,13,,,,31,64
45080,note_off,80,0,5,,,,,,,,3,,,,58,64
45120,note_on,40,0,10,,,,,,,,8,,,,55,48
45120,note_on,40,0,6,,,,,,,,4,,,,67,78
45120,note_on,40,0,11,,,,,,,,10,,,,67,110
45120,note_on,40,0,5,,,,,,,,3,,,,55,78
45160,note_off,400,0,15,,,,,,,,14,,,,31,64
45200,note_off,80,0,6,,,,,,,,4,,,,67,64
45200,note_off,80,0,11,,,,,,,,10,,,,67,64
45200,note_off,80,0,5,,,,,,,,3,,,,55,64
45200,note_off,80,0,10,,,,,,,,8,,,,55,64
45240,note_on,160,0,9,,,,,,,,7,,,,31,53
45240,note_on,160,0,12,,,,,,,,11,,,,62,42
45240,note_on,40,0,6,,,,,,,,4,,,,55,76
45240,note_on,40,0,11,,,,,,,,10,,,,55,110
45240,note_on,80,0,15,,,,,,,,14,,,,31,34
45240,note_on,40,0,5,,,,,,,,3,,,,67,76
45240,note_on,160,0,14,,,,,,,,13,,,,31,42
45240,note_on,160,0,8,,,,,,,,6,,,,43,57
45240,note_on,40,0,10,,,,,,,,8,,,,67,46
45240,note_on,160,0,13,,,,,,,,12,,,,43,42
45240,note_on,160,0,7,,,,,,,,5,,,,62,57
45320,note_off,80,0,7,,,,,,,,5,,,,62,64
45320,note_off,80,0,14,,,,,,,,13,,,,31,64
45320,note_off,80,0,9,,,,,,,,7,,,,31,64
45320,note_off,80,0,5,,,,,,,,3,,,,67,64
45320,note_off,80,0,10,,,,,,,,8,,,,67,64
45320,note_off,80,0,13,,,,,,,,12,,,,43,64
45320,note_off,80,0,6,,,,,,,,4,,,,55,64
45320,note_off,80,0,8,,,,,,,,6,,,,43,64
45320,note_off,80,0,12,,,,,,,,11,,,,62,64
45320,note_off,80,0,11,,,,,,,,10,,,,55,64
45360,note_on,40,0,6,,,,,,,,4,,,,58,74
45360,note_on,40,0,5,,,,,,,,3,,,,62,74
45360,note_on,40,0,11,,,,,,,,10,,,,58,110
45360,note_on,40,0,10,,,,,,,,8,,,,62,44
45440,note_off,80,0,6,,,,,,,,4,,,,58,64
45440,note_off,80,0,10,,,,,,,,8,,,,62,64
45440,note_off,80,0,5,,,,,,,,3,,,,62,64
45440,note_off,80,0,11,,,,,,,,10,,,,58,64
45480,note_on,160,0,13,,,,,,,,12,,,,43,39
45480,note_on,160,0,8,,,,,,,,6,,,,43,54
45480,note_on,160,0,9,,,,,,,,7,,,,31,51
45480,note_on,40,0,6,,,,,,,,4,,,,62,72
45480,note_on,160,0,7,,,,,,,,5,,,,62,54
45480,note_on,40,0,5,,,,,,,,3,,,,58,72
45480,note_on,40,0,10,,,,,,,,8,,,,58,42
45480,note_on,40,0,11,,,,,,,,10,,,,62,110
45480,note_on,160,0,14,,,,,,,,13,,,,31,39
45480,note_on,160,0,12,,,,,,,,11,,,,62,39
45560,note_off,80,0,5,,,,,,,,3,,,,58,64
45560,note_off,80,0,8,,,,,,,,6,,,,43,64
45560,note_off,80,0,12,,,,,,,,11,,,,62,64
45560,note_off,80,0,7,,,,,,,,5,,,,62,64
45560,note_off,80,0,14,,,,,,,,13,,,,31,64
45560,note_off,80,0,10,,,,,,,,8,,,,58,64
45560,note_off,80,0,9,,,,,,,,7,,,,31,64
45560,note_off,80,0,13,,,,,,,,12,,,,43,64
45560,note_off,80,0,11,,,,,,,,10,,,,62,64
45560,note_off,80,0,6,,,,,,,,4,,,,62,64
45600,note_on,40,0,6,,,,,,,,4,,,,67,70
45600,note_on,40,0,10,,,,,,,,8,,,,55,40
45600,note_on,40,0,5,,,,,,,,3,,,,55,70
45600,note_on,40,0,11,,,,,,,,10,,,,67,110
45640,note_off,400,0,15,,,,,,,,14,,,,31,64
45680,note_off,80,0,10,,,,,,,,8,,,,55,64
45680,note_off,80,0,5,,,,,,,,3,,,,55,64
45680,note_off,80,0,6,,,,,,,,4,,,,67,64
45680,note_off,80,0,11,,,,,,,,10,,,,67,64
45720,note_on,80,0,15,,,,,,,,14,,,,31,32
45720,note_on,40,0,10,,,,,,,,8,,,,67,38
45720,note_on,160,0,9,,,,,,,,7,,,,31,49
45720,note_on,160,0,7,,,,,,,,5,,,,62,51
45720,note_on,160,0,13,,,,,,,,12,,,,43,36
45720,note_on,40,0,11,,,,,,,,10,,,,55,110
45720,note_on,160,0,12,,,,,,,,11,,,,62,36
45720,note_on,160,0,14,,,,,,,,13,,,,31,36
45720,note_on,40,0,5,,,,,,,,3,,,,67,68
45720,note_on,160,0,8,,,,,,,,6,,,,43,51
45720,note_on,40,0,6,,,,,,,,4,,,,55,68
45800,note_off,80,0,11,,,,,,,,10,,,,55,64
45800,note_off,80,0,6,,,,,,,,4,,,,55,64
45800,note_off,80,0,5,,,,,,,,3,,,,67,64
45800,note_off,80,0,13,,,,,,,,12,,,,43,64
45800,note_off,80,0,9,,,,,,,,7,,,,31,64
45800,note_off,80,0,14,,,,,,,,13,,,,31,64
45800,note_off,80,0,10,,,,,,,,8,,,,67,64
45800,note_off,80,0,7,,,,,,,,5,,,,62,64
45800,note_off,80,0,8,,,,,,,,6,,,,43,64
45800,note_off,80,0,12,,,,,,,,11,,,,62,64
45840,note_on,40,0,10,,,,,,,,8,,,,62,36
45840,note_on,40,0,5,,,,,,,,3,,,,62,66
45840,note_on,40,0,11,,,,,,,,10,,,,58,110
45840,note_on,40,0,6,,,,,,,,4,,,,58,66
45920,note_off,80,0,10,,,,,,,,8,,,,62,64
45920,note_off,80,0,5,,,,,,,,3,,,,62,64
45920,note_off,80,0,11,,,,,,,,10,,,,58,64
45920,note_off,80,0,6,,,,,,,,4,,,,58,64
45960,note_on,160,0,8,,,,,,,,6,,,,43,48
45960,note_on,40,0,10,,,,,,,,8,,,,58,34
45960,note_on,160,0,9,,,,,,,,7,,,,31,47
45960,note_on,160,0,14,,,,,,,,13,,,,31,33
45960,note_on,40,0,5,,,,,,,,3,,,,58,64
45960,note_on,160,0,7,,,,,,,,5,,,,62,48
45960,note_on,40,0,11,,,,,,,,10,,,,62,110
45960,note_on,160,0,13,,,,,,,,12,,,,43,33
45960,note_on,160,0,12,,,,,,,,11,,,,62,33
45960,note_on,40,0,6,,,,,,,,4,,,,62,64
46040,note_off,80,0,6,,,,,,,,4,,,,62,64
46040,note_off,80,0,8,,,,,,,,6,,,,43,64
46040,note_off,80,0,14,,,,,,,,13,,,,31,64
46040,note_off,80,0,11,,,,,,,,10,,,,62,64
46040,note_off,80,0,7,,,,,,,,5,,,,62,64
46040,note_off,80,0,5,,,,,,,,3,,,,58,64
46040,note_off,80,0,9,,,,,,,,7,,,,31,64
46040,note_off,80,0,10,,,,,,,,8,,,,58,64
46040,note_off,80,0,13,,,,,,,,12,,,,43,64
46040,note_off,80,0,12,,,,,,,,11,,,,62,64
46080,note_on,40,0,10,,,,,,,,8,,,,55,32
46080,note_on,40,0,11,,,,,,,,10,,,,67,110
46080,note_on,40,0,6,,,,,,,,4,,,,67,62
46080,note_on,40,0,5,,,,,,,,3,,,,55,62
46120,note_off,400,0,15,,,,,,,,14,,,,31,64
46160,note_off,80,0,11,,,,,,,,10,,,,67,64
46160,note_off,80,0,5,,,,,,,,3,,,,55,64
46160,note_off,80,0,6,,,,,,,,4,,,,67,64
46160,note_off,80,0,10,,,,,,,,8,,,,55,64
46200,note_on,160,0,7,,,,,,,,5,,,,59,45
46200,note_on,80,0,15,,,,,,,,14,,,,31,30
46200,note_on,40,0,6,,,,,,,,4,,,,62,60
46200,note_on,40,0,5,,,,,,,,3,,,,67,60
46200,note_on,40,0,10,,,,,,,,8,,,,67,30
46200,note_on,40,0,11,,,,,,,,10,,,,62,30
46200,note_on,160,0,13,,,,,,,,12,,,,43,30
46200,note_on,160,0,12,,,,,,,,11,,,,59,30
46200,note_on,160,0,14,,,,,,,,13,,,,31,30
46200,note_on,160,0,9,,,,,,,,7,,,,31,45
46200,note_on,160,0,8,,,,,,,,6,,,,43,45
46280,note_off,80,0,9,,,,,,,,7,,,,31,64
46280,note_off,80,0,7,,,,,,,,5,,,,59,64
46280,note_off,80,0,13,,,,,,,,12,,,,43,64
46280,note_off,80,0,6,,,,,,,,4,,,,62,64
46280,note_off,80,0,12,,,,,,,,11,,,,59,64
46280,note_off,80,0,11,,,,,,,,10,,,,62,64
46280,note_off,80,0,8,,,,,,,,6,,,,43,64
46280,note_off,80,0,14,,,,,,,,13,,,,31,64
46280,note_off,80,0,5,,,,,,,,3,,,,67,64
46280,note_off,80,0,10,,,,,,,,8,,,,67,64
46320,note_on,40,0,5,,,,,,,,3,,,,71,60
46320,note_on,40,0,6,,,,,,,,4,,,,67,60
46320,note_on,40,0,11,,,,,,,,10,,,,67,30
46320,note_on,40,0,12,,,,,,,,11,,,,62,30
46320,note_on,40,0,7,,,,,,,,5,,,,62,45
46320,note_on,40,0,10,,,,,,,,8,,,,71,30
46400,note_off,80,0,10,,,,,,,,8,,,,71,64
46400,note_off,80,0,6,,,,,,,,4,,,,67,64
46400,note_off,80,0,12,,,,,,,,11,,,,62,64
46400,note_off,80,0,11,,,,,,,,10,,,,67,64
46400,note_off,80,0,5,,,,,,,,3,,,,71,64
46400,note_off,80,0,7,,,,,,,,5,,,,62,64
46440,note_on,40,0,5,,,,,,,,3,,,,67,60
46440,note_on,160,0,9,,,,,,,,7,,,,31,45
46440,note_on,40,0,7,,,,,,,,5,,,,59,45
46440,note_on,160,0,13,,,,,,,,12,,,,43,30
46440,note_on,160,0,14,,,,,,,,13,,,,31,30
46440,note_on,160,0,8,,,,,,,,6,,,,43,45
46440,note_on,40,0,12,,,,,,,,11,,,,59,30
46440,note_on,40,0,11,,,,,,,,10,,,,62,30
46440,note_on,40,0,10,,,,,,,,8,,,,67,30
46440,note_on,40,0,6,,,,,,,,4,,,,62,60
46520,note_off,80,0,8,,,,,,,,6,,,,43,64
46520,note_off,80,0,10,,,,,,,,8,,,,67,64
46520,note_off,80,0,9,,,,,,,,7,,,,31,64
46520,note_off,80,0,5,,,,,,,,3,,,,67,64
46520,note_off,80,0,7,,,,,,,,5,,,,59,64
46520,note_off,80,0,14,,,,,,,,13,,,,31,64
46520,note_off,80,0,11,,,,,,,,10,,,,62,64
46520,note_off,80,0,13,,,,,,,,12,,,,43,64
46520,note_off,80,0,6,,,,,,,,4,,,,62,64
46520,note_off,80,0,12,,,,,,,,11,,,,59,64
46560,note_on,40,0,5,,,,,,,,3,,,,71,60
46560,note_on,40,0,6,,,,,,,,4,,,,67,60
46560,note_on,40,0,11,,,,,,,,10,,,,67,30
46560,note_on,40,0,10,,,,,,,,8,,,,71,30
46560,note_on,40,0,7,,,,,,,,5,,,,62,45
46560,note_on,40,0,12,,,,,,,,11,,,,62,30
46600,note_off,400,0,15,,,,,,,,14,,,,31,64
46640,note_off,80,0,11,,,,,,,,10,,,,67,64
46640,note_off,80,0,7,,,,,,,,5,,,,62,64
46640,note_off,80,0,6,,,,,,,,4,,,,67,64
46640,note_off,80,0,12,,,,,,,,11,,,,62,64
46640,note_off,80,0,10,,,,,,,,8,,,,71,64
46640,note_off,80,0,5,,,,,,,,3,,,,71,64
46680,note_on,40,0,7,,,,,,,,5,,,,59,45
46680,note_on,160,0,8,,,,,,,,6,,,,43,45
46680,note_on,160,0,14,,,,,,,,13,,,,31,30
46680,note_on,160,0,13,,,,,,,,12,,,,43,30
46680,note_on,40,0,6,,,,,,,,4,,,,62,60
46680,note_on,40,0,5,,,,,,,,3,,,,67,60
46680,note_on,40,0,10,,,,,,,,8,,,,67,30
46680,note_on,160,0,9,,,,,,,,7,,,,31,45
46680,note_on,40,0,12,,,,,,,,11,,,,59,30
46680,note_on,40,0,11,,,,,,,,10,,,,62,30
46680,note_on,80,0,15,,,,,,,,14,,,,31,30
46760,note_off,80,0,12,,,,,,,,11,,,,59,64
46760,note_off,80,0,9,,,,,,,,7,,,,31,64
46760,note_off,80,0,14,,,,,,,,13,,,,31,64
46760,note_off,80,0,5,,,,,,,,3,,,,67,64
46760,note_off,80,0,6,,,,,,,,4,,,,62,64
46760,note_off,80,0,11,,,,,,,,10,,,,62,64
46760,note_off,80,0,7,,,,,,,,5,,,,59,64
46760,note_off,80,0,13,,,,,,,,12,,,,43,64
46760,note_off,80,0,10,,,,,,,,8,,,,67,64
46760,note_off,80,0,8,,,,,,,,6,,,,43,64
46800,note_on,40,0,11,,,,,,,,10,,,,67,30
46800,note_on,40,0,5,,,,,,,,3,,,,71,60
46800,note_on,40,0,6,,,,,,,,4,,,,67,60
46800,note_on,40,0,12,,,,,,,,11,,,,62,30
46800,note_on,40,0,7,,,,,,,,5,,,,62,45
46800,note_on,40,0,10,,,,,,,,8,,,,71,30
46880,note_off,80,0,10,,,,,,,,8,,,,71,64
46880,note_off,80,0,5,,,,,,,,3,,,,71,64
46880,note_off,80,0,6,,,,,,,,4,,,,67,64
46880,note_off,80,0,12,,,,,,,,11,,,,62,64
46880,note_off,80,0,7,,,,,,,,5,,,,62,64
46880,note_off,80,0,11,,,,,,,,10,,,,67,64
46920,note_on,160,0,14,,,,,,,,13,,,,31,30
46920,note_on,40,0,12,,,,,,,,11,,,,59,30
46920,note_on,40,0,11,,,,,,,,10,,,,62,30
46920,note_on,40,0,10,,,,,,,,8,,,,67,30
46920,note_on,160,0,13,,,,,,,,12,,,,43,30
46920,note_on,40,0,7,,,,,,,,5,,,,59,45
46920,note_on,40,0,5,,,,,,,,3,,,,67,60
46920,note_on,160,0,9,,,,,,,,7,,,,31,45
46920,note_on,160,0,8,,,,,,,,6,,,,43,45
46920,note_on,40,0,6,,,,,,,,4,,,,62,60
47000,note_off,80,0,11,,,,,,,,10,,,,62,64
47000,note_off,80,0,9,,,,,,,,7,,,,31,64
47000,note_off,80,0,8,,,,,,,,6,,,,43,64
47000,note_off,80,0,6,,,,,,,,4,,,,62,64
47000,note_off,80,0,7,,,,,,,,5,,,,59,64
47000,note_off,80,0,14,,,,,,,,13,,,,31,64
47000,note_off,80,0,12,,,,,,,,11,,,,59,64
47000,note_off,80,0,13,,,,,,,,12,,,,43,64
47000,note_off,80,0,10,,,,,,,,8,,,,67,64
47000,note_off,80,0,5,,,,,,,,3,,,,67,64
47040,note_on,40,0,11,,,,,,,,10,,,,67,30
47040,note_on,40,0,12,,,,,,,,11,,,,62,30
47040,note_on,40,0,7,,,,,,,,5,,,,62,45
47040,note_on,40,0,5,,,,,,,,3,,,,71,60
47040,note_on,40,0,10,,,,,,,,8,,,,71,30
47040,note_on,40,0,6,,,,,,,,4,,,,67,60
47080,note_off,400,0,15,,,,,,,,14,,,,31,64
47120,note_off,80,0,7,,,,,,,,5,,,,62,64
47120,note_off,80,0,12,,,,,,,,11,,,,62,64
47120,note_off,80,0,10,,,,,,,,8,,,,71,64
47120,note_off,80,0,5,,,,,,,,3,,,,71,64
47120,note_off,80,0,11,,,,,,,,10,,,,67,64
47120,note_off,80,0,6,,,,,,,,4,,,,67,64
47160,note_on,40,0,6,,,,,,,,4,,,,62,60
47160,note_on,160,0,8,,,,,,,,6,,,,43,45
47160,note_on,40,0,12,,,,,,,,11,,,,59,30
47160,note_on,40,0,10,,,,,,,,8,,,,67,30
47160,note_on,40,0,5,,,,,,,,3,,,,67,60
47160,note_on,40,0,11,,,,,,,,10,,,,62,30
47160,note_on,160,0,14,,,,,,,,13,,,,31,30
47160,note_on,40,0,7,,,,,,,,5,,,,59,45
47160,note_on,160,0,13,,,,,,,,12,,,,43,30
47160,note_on,80,0,15,,,,,,,,14,,,,31,30
47160,note_on,160,0,9,,,,,,,,7,,,,31,45
47240,note_off,80,0,5,,,,,,,,3,,,,67,64
47240,note_off,80,0,6,,,,,,,,4,,,,62,64
47240,note_off,80,0,7,,,,,,,,5,,,,59,64
47240,note_off,80,0,12,,,,,,,,11,,,,59,64
47240,note_off,80,0,8,,,,,,,,6,,,,43,64
47240,note_off,80,0,10,,,,,,,,8,,,,67,64
47240,note_off,80,0,14,,,,,,,,13,,,,31,64
47240,note_off,80,0,11,,,,,,,,10,,,,62,64
47240,note_off,80,0,9,,,,,,,,7,,,,31,64
47240,note_off,80,0,13,,,,,,,,12,,,,43,64
47280,note_on,40,0,7,,,,,,,,5,,,,62,45
47280,note_on,40,0,11,,,,,,,,10,,,,67,30
47280,note_on,40,0,12,,,,,,,,11,,,,62,30
47280,note_on,40,0,10,,,,,,,,8,,,,71,30
47280,note_on,40,0,6,,,,,,,,4,,,,67,60
47280,note_on,40,0,5,,,,,,,,3,,,,71,60
47360,note_off,80,0,6,,,,,,,,4,,,,67,64
47360,note_off,80,0,12,,,,,,,,11,,,,62,64
47360,note_off,80,0,11,,,,,,,,10,,,,67,64
47360,note_off,80,0,10,,,,,,,,8,,,,71,64
47360,note_off,80,0,7,,,,,,,,5,,,,62,64
47360,note_off,80,0,5,,,,,,,,3,,,,71,64
47400,note_on,40,0,12,,,,,,,,11,,,,59,30
47400,note_on,40,0,10,,,,,,,,8,,,,67,30
47400,note_on,160,0,14,,,,,,,,13,,,,31,30
47400,note_on,40,0,6,,,,,,,,4,,,,62,60
47400,note_on,160,0,8,,,,,,,,6,,,,43,45
47400,note_on,160,0,13,,,,,,,,12,,,,43,30
47400,note_on,40,0,7,,,,,,,,5,,,,59,45
47400,note_on,160,0,9,,,,,,,,7,,,,31,45
47400,note_on,40,0,11,,,,,,,,10,,,,62,30
47400,note_on,40,0,5,,,,,,,,3,,,,67,60
47480,note_off,80,0,13,,,,,,,,12,,,,43,64
47480,note_off,80,0,7,,,,,,,,5,,,,59,64
47480,note_off,80,0,12,,,,,,,,11,,,,59,64
47480,note_off,80,0,11,,,,,,,,10,,,,62,64
47480,note_off,80,0,6,,,,,,,,4,,,,62,64
47480,note_off,80,0,10,,,,,,,,8,,,,67,64
47480,note_off,80,0,14,,,,,,,,13,,,,31,64
47480,note_off,80,0,9,,,,,,,,7,,,,31,64
47480,note_off,80,0,5,,,,,,,,3,,,,67,64
47480,note_off,80,0,8,,,,,,,,6,,,,43,64
47520,note_on,40,0,5,,,,,,,,3,,,,71,60
47520,note_on,40,0,12,,,,,,,,11,,,,62,30
47520,note_on,40,0,10,,,,,,,,8,,,,71,30
47520,note_on,40,0,6,,,,,,,,4,,,,67,60
47520,note_on,40,0,11,,,,,,,,10,,,,67,30
47520,note_on,40,0,7,,,,,,,,5,,,,62,45
47560,note_off,400,0,15,,,,,,,,14,,,,31,64
47600,note_off,80,0,12,,,,,,,,11,,,,62,64
47600,note_off,80,0,10,,,,,,,,8,,,,71,64
47600,note_off,80,0,11,,,,,,,,10,,,,67,64
47600,note_off,80,0,7,,,,,,,,5,,,,62,64
47600,note_off,80,0,6,,,,,,,,4,,,,67,64
47600,note_off,80,0,5,,,,,,,,3,,,,71,64
47640,note_on,40,0,11,,,,,,,,10,,,,63,30
47640,note_on,160,0,9,,,,,,,,7,,,,36,45
47640,note_on,160,0,14,,,,,,,,13,,,,36,30
47640,note_on,160,0,13,,,,,,,,12,,,,48,30
47640,note_on,40,0,6,,,,,,,,4,,,,63,60
47640,note_on,40,0,12,,,,,,,,11,,,,60,30
47640,note_on,40,0,10,,,,,,,,8,,,,67,30
47640,note_on,80,0,15,,,,,,,,14,,,,36,30
47640,note_on,40,0,7,,,,,,,,5,,,,60,45
47640,note_on,40,0,5,,,,,,,,3,,,,67,60
47640,note_on,160,0,8,,,,,,,,6,,,,48,45
47720,note_off,80,0,9,,,,,,,,7,,,,36,64
47720,note_off,80,0,12,,,,,,,,11,,,,60,64
47720,note_off,80,0,5,,,,,,,,3,,,,67,64
47720,note_off,80,0,10,,,,,,,,8,,,,67,64
47720,note_off,80,0,7,,,,,,,,5,,,,60,64
47720,note_off,80,0,13,,,,,,,,12,,,,48,64
47720,note_off,80,0,14,,,,,,,,13,,,,36,64
47720,note_off,80,0,6,,,,,,,,4,,,,63,64
47720,note_off,80,0,8,,,,,,,,6,,,,48,64
47720,note_off,80,0,11,,,,,,,,10,,,,63,64
47760,note_on,40,0,6,,,,,,,,4,,,,67,60
47760,note_on,40,0,7,,,,,,,,5,,,,63,45
47760,note_on,40,0,5,,,,,,,,3,,,,72,60
47760,note_on,40,0,12,,,,,,,,11,,,,63,30
47760,note_on,40,0,11,,,,,,,,10,,,,67,30
47760,note_on,40,0,10,,,,,,,,8,,,,72,30
47840,note_off,80,0,10,,,,,,,,8,,,,72,64
47840,note_off,80,0,11,,,,,,,,10,,,,67,64
47840,note_off,80,0,7,,,,,,,,5,,,,63,64
47840,note_off,80,0,12,,,,,,,,11,,,,63,64
47840,note_off,80,0,5,,,,,,,,3,,,,72,64
47840,note_off,80,0,6,,,,,,,,4,,,,67,64
47880,note_on,40,0,12,,,,,,,,11,,,,60,30
47880,note_on,160,0,14,,,,,,,,13,,,,36,31
47880,note_on,160,0,8,,,,,,,,6,,,,48,46
47880,note_on,40,0,11,,,,,,,,10,,,,63,30
47880,note_on,40,0,5,,,,,,,,3,,,,67,60
47880,note_on,40,0,7,,,,,,,,5,,,,60,45
47880,note_on,160,0,9,,,,,,,,7,,,,36,46
47880,note_on,40,0,10,,,,,,,,8,,,,67,30
47880,note_on,40,0,6,,,,,,,,4,,,,63,60
47880,note_on,160,0,13,,,,,,,,12,,,,48,31
47960,note_off,80,0,5,,,,,,,,3,,,,67,64
47960,note_off,80,0,12,,,,,,,,11,,,,60,64
47960,note_off,80,0,14,,,,,,,,13,,,,36,64
47960,note_off,80,0,10,,,,,,,,8,,,,67,64
47960,note_off,80,0,9,,,,,,,,7,,,,36,64
47960,note_off,80,0,6,,,,,,,,4,,,,63,64
47960,note_off,80,0,8,,,,,,,,6,,,,48,64
47960,note_off,80,0,7,,,,,,,,5,,,,60,64
47960,note_off,80,0,13,,,,,,,,12,,,,48,64
47960,note_off,80,0,11,,,,,,,,10,,,,63,64
48000,note_on,40,0,6,,,,,,,,4,,,,67,60
48000,note_on,40,0,12,,,,,,,,11,,,,63,30
48000,note_on,40,0,5,,,,,,,,3,,,,72,60
48000,note_on,40,0,10,,,,,,,,8,,,,72,30
48000,note_on,40,0,11,,,,,,,,10,,,,67,30
48000,note_on,40,0,7,,,,,,,,5,,,,63,45
48040,note_off,400,0,15,,,,,,,,14,,,,36,64
48080,note_off,80,0,11,,,,,,,,10,,,,67,64
48080,note_off,80,0,6,,,,,,,,4,,,,67,64
48080,note_off,80,0,7,,,,,,,,5,,,,63,64
48080,note_off,80,0,5,,,,,,,,3,,,,72,64
48080,note_off,80,0,10,,,,,,,,8,,,,72,64
48080,note_off,80,0,12,,,,,,,,11,,,,63,64
48120,note_on,160,0,8,,,,,,,,6,,,,48,46
48120,note_on,80,0,15,,,,,,,,14,,,,36,33
48120,note_on,40,0,6,,,,,,,,4,,,,63,60
48120,note_on,40,0,11,,,,,,,,10,,,,63,30
48120,note_on,160,0,9,,,,,,,,7,,,,36,46
48120,note_on,160,0,13,,,,,,,,12,,,,48,32
48120,note_on,40,0,5,,,,,,,,3,,,,67,60
48120,note_on,40,0,12,,,,,,,,11,,,,60,30
48120,note_on,40,0,7,,,,,,,,5,,,,60,45
48120,note_on,160,0,14,,,,,,,,13,,,,36,32
48120,note_on,40,0,10,,,,,,,,8,,,,67,30
48200,note_off,80,0,10,,,,,,,,8,,,,67,64
48200,note_off,80,0,8,,,,,,,,6,,,,48,64
48200,note_off,80,0,12,,,,,,,,11,,,,60,64
48200,note_off,80,0,14,,,,,,,,13,,,,36,64
48200,note_off,80,0,6,,,,,,,,4,,,,63,64
48200,note_off,80,0,13,,,,,,,,12,,,,48,64
48200,note_off,80,0,11,,,,,,,,10,,,,63,64
48200,note_off,80,0,9,,,,,,,,7,,,,36,64
48200,note_off,80,0,7,,,,,,,,5,,,,60,64
48200,note_off,80,0,5,,,,,,,,3,,,,67,64
48240,note_on,40,0,6,,,,,,,,4,,,,67,60
48240,note_on,40,0,11,,,,,,,,10,,,,67,30
48240,note_on,40,0,10,,,,,,,,8,,,,72,30
48240,note_on,40,0,7,,,,,,,,5,,,,63,45
48240,note_on,40,0,5,,,,,,,,3,,,,72,60
48240,note_on,40,0,12,,,,,,,,11,,,,63,30
48320,note_off,80,0,12,,,,,,,,11,,,,63,64
48320,note_off,80,0,6,,,,,,,,4,,,,67,64
48320,note_off,80,0,10,,,,,,,,8,,,,72,64
48320,note_off,80,0,5,,,,,,,,3,,,,72,64
48320,note_off,80,0,11,,,,,,,,10,,,,67,64
48320,note_off,80,0,7,,,,,,,,5,,,,63,64
48360,note_on,40,0,11,,,,,,,,10,,,,63,30
48360,note_on,160,0,8,,,,,,,,6,,,,48,47
48360,note_on,40,0,7,,,,,,,,5,,,,60,45
48360,note_on,40,0,6,,,,,,,,4,,,,63,60
48360,note_on,40,0,10,,,,,,,,8,,,,67,30
48360,note_on,160,0,9,,,,,,,,7,,,,36,47
48360,note_on,40,0,5,,,,,,,,3,,,,67,60
48360,note_on,160,0,13,,,,,,,,12,,,,48,33
48360,note_on,40,0,12,,,,,,,,11,,,,60,30
48360,note_on,160,0,14,,,,,,,,13,,,,36,33
48440,note_off,80,0,9,,,,,,,,7,,,,36,64
48440,note_off,80,0,14,,,,,,,,13,,,,36,64
48440,note_off,80,0,8,,,,,,,,6,,,,48,64
48440,note_off,80,0,5,,,,,,,,3,,,,67,64
48440,note_off,80,0,13,,,,,,,,12,,,,48,64
48440,note_off,80,0,10,,,,,,,,8,,,,67,64
48440,note_off,80,0,7,,,,,,,,5,,,,60,64
48440,note_off,80,0,6,,,,,,,,4,,,,63,64
48440,note_off,80,0,11,,,,,,,,10,,,,63,64
48440,note_off,80,0,12,,,,,,,,11,,,,60,64
48480,note_on,40,0,12,,,,,,,,11,,,,63,30
48480,note_on,40,0,7,,,,,,,,5,,,,63,45
48480,note_on,40,0,10,,,,,,,,8,,,,72,30
48480,note_on,40,0,5,,,,,,,,3,,,,72,60
48480,note_on,40,0,6,,,,,,,,4,,,,67,60
48480,note_on,40,0,11,,,,,,,,10,,,,67,30
48520,note_off,400,0,15,,,,,,,,14,,,,36,64
48560,note_off,80,0,6,,,,,,,,4,,,,67,64
48560,note_off,80,0,5,,,,,,,,3,,,,72,64
48560,note_off,80,0,11,,,,,,,,10,,,,67,64
48560,note_off,80,0,7,,,,,,,,5,,,,63,64
48560,note_off,80,0,12,,,,,,,,11,,,,63,64
48560,note_off,80,0,10,,,,,,,,8,,,,72,64
48600,note_on,160,0,13,,,,,,,,12,,,,48,34
48600,note_on,160,0,14,,,,,,,,13,,,,36,34
48600,note_on,40,0,11,,,,,,,,10,,,,63,30
48600,note_on,80,0,15,,,,,,,,14,,,,36,36
48600,note_on,160,0,9,,,,,,,,7,,,,36,48
48600,note_on,40,0,12,,,,,,,,11,,,,60,30
48600,note_on,40,0,7,,,,,,,,5,,,,60,45
48600,note_on,40,0,6,,,,,,,,4,,,,63,60
48600,note_on,40,0,5,,,,,,,,3,,,,67,60
48600,note_on,160,0,8,,,,,,,,6,,,,48,48
48600,note_on,40,0,10,,,,,,,,8,,,,67,30
48680,note_off,80,0,13,,,,,,,,12,,,,48,64
48680,note_off,80,0,14,,,,,,,,13,,,,36,64
48680,note_off,80,0,5,,,,,,,,3,,,,67,64
48680,note_off,80,0,11,,,,,,,,10,,,,63,64
48680,note_off,80,0,7,,,,,,,,5,,,,60,64
48680,note_off,80,0,9,,,,,,,,7,,,,36,64
48680,note_off,80,0,10,,,,,,,,8,,,,67,64
48680,note_off,80,0,8,,,,,,,,6,,,,48,64
48680,note_off,80,0,6,,,,,,,,4,,,,63,64
48680,note_off,80,0,12,,,,,,,,11,,,,60,64
48720,note_on,40,0,12,,,,,,,,11,,,,63,30
48720,note_on,40,0,10,,,,,,,,8,,,,72,30
48720,note_on,40,0,11,,,,,,,,10,,,,60,30
48720,note_on,40,0,5,,,,,,,,3,,,,72,60
48720,note_on,40,0,6,,,,,,,,4,,,,60,60
48720,note_on,40,0,7,,,,,,,,5,,,,63,45
48800,note_off,80,0,12,,,,,,,,11,,,,63,64
48800,note_off,80,0,10,,,,,,,,8,,,,72,64
48800,note_off,80,0,5,,,,,,,,3,,,,72,64
48800,note_off,80,0,11,,,,,,,,10,,,,60,64
48800,note_off,80,0,6,,,,,,,,4,,,,60,64
48800,note_off,80,0,7,,,,,,,,5,,,,63,64
48840,note_on,40,0,7,,,,,,,,5,,,,60,45
48840,note_on,40,0,12,,,,,,,,11,,,,60,30
48840,note_on,40,0,11,,,,,,,,10,,,,63,30
48840,note_on,40,0,10,,,,,,,,8,,,,67,30
48840,note_on,40,0,5,,,,,,,,3,,,,67,60
48840,note_on,160,0,9,,,,,,,,7,,,,36,49
48840,note_on,160,0,13,,,,,,,,12,,,,48,35
48840,note_on,40,0,6,,,,,,,,4,,,,63,60
48840,note_on,160,0,8,,,,,,,,6,,,,48,49
48840,note_on,160,0,14,,,,,,,,13,,,,36,35
48920,note_off,80,0,8,,,,,,,,6,,,,48,64
48920,note_off,80,0,10,,,,,,,,8,,,,67,64
48920,note_off,80,0,9,,,,,,,,7,,,,36,64
48920,note_off,80,0,7,,,,,,,,5,,,,60,64
48920,note_off,80,0,14,,,,,,,,13,,,,36,64
48920,note_off,80,0,6,,,,,,,,4,,,,63,64
48920,note_off,80,0,5,,,,,,,,3,,,,67,64
48920,note_off,80,0,11,,,,,,,,10,,,,63,64
48920,note_off,80,0,12,,,,,,,,11,,,,60,64
48920,note_off,80,0,13,,,,,,,,12,,,,48,64
48960,note_on,40,0,6,,,,,,,,4,,,,60,60
48960,note_on,40,0,7,,,,,,,,5,,,,63,45
48960,note_on,40,0,11,,,,,,,,10,,,,60,30
48960,note_on,40,0,10,,,,,,,,8,,,,72,30
48960,note_on,40,0,12,,,,,,,,11,,,,63,30
48960,note_on,40,0,5,,,,,,,,3,,,,72,60
49000,note_off,400,0,15,,,,,,,,14,,,,36,64
49040,note_off,80,0,12,,,,,,,,11,,,,63,64
49040,note_off,80,0,7,,,,,,,,5,,,,63,64
49040,note_off,80,0,6,,,,,,,,4,,,,60,64
49040,note_off,80,0,11,,,,,,,,10,,,,60,64
49040,note_off,80,0,10,,,,,,,,8,,,,72,64
49040,note_off,80,0,5,,,,,,,,3,,,,72,64
49080,note_on,40,0,12,,,,,,,,11,,,,61,30
49080,note_on,40,0,6,,,,,,,,4,,,,64,60
49080,note_on,40,0,7,,,,,,,,5,,,,61,45
49080,note_on,160,0,9,,,,,,,,7,,,,33,50
49080,note_on,160,0,13,,,,,,,,12,,,,45,36
49080,note_on,40,0,10,,,,,,,,8,,,,67,30
49080,note_on,40,0,11,,,,,,,,10,,,,64,30
49080,note_on,160,0,8,,,,,,,,6,,,,45,50
49080,note_on,40,0,5,,,,,,,,3,,,,67,60
49080,note_on,160,0,14,,,,,,,,13,,,,33,36
49080,note_on,80,0,15,,,,,,,,14,,,,33,39
49160,note_off,80,0,5,,,,,,,,3,,,,67,64
49160,note_off,80,0,13,,,,,,,,12,,,,45,64
49160,note_off,80,0,7,,,,,,,,5,,,,61,64
49160,note_off,80,0,10,,,,,,,,8,,,,67,64
49160,note_off,80,0,8,,,,,,,,6,,,,45,64
49160,note_off,80,0,14,,,,,,,,13,,,,33,64
49160,note_off,80,0,12,,,,,,,,11,,,,61,64
49160,note_off,80,0,6,,,,,,,,4,,,,64,64
49160,note_off,80,0,11,,,,,,,,10,,,,64,64
49160,note_off,80,0,9,,,,,,,,7,,,,33,64
49200,note_on,40,0,7,,,,,,,,5,,,,64,45
49200,note_on,40,0,12,,,,,,,,11,,,,64,30
49200,note_on,40,0,6,,,,,,,,4,,,,67,61
49200,note_on,40,0,11,,,,,,,,10,,,,67,30
49200,note_on,40,0,5,,,,,,,,3,,,,73,61
49200,note_on,40,0,10,,,,,,,,8,,,,73,30
49280,note_off,80,0,11,,,,,,,,10,,,,67,64
49280,note_off,80,0,5,,,,,,,,3,,,,73,64
49280,note_off,80,0,7,,,,,,,,5,,,,64,64
49280,note_off,80,0,6,,,,,,,,4,,,,67,64
49280,note_off,80,0,10,,,,,,,,8,,,,73,64
49280,note_off,80,0,12,,,,,,,,11,,,,64,64
49320,note_on,160,0,14,,,,,,,,13,,,,33,37
49320,note_on,40,0,10,,,,,,,,8,,,,67,30
49320,note_on,40,0,12,,,,,,,,11,,,,61,30
49320,note_on,40,0,7,,,,,,,,5,,,,61,45
49320,note_on,160,0,9,,,,,,,,7,,,,33,51
49320,note_on,160,0,13,,,,,,,,12,,,,45,37
49320,note_on,40,0,5,,,,,,,,3,,,,67,61
49320,note_on,40,0,6,,,,,,,,4,,,,64,61
49320,note_on,160,0,8,,,,,,,,6,,,,45,51
49320,note_on,40,0,11,,,,,,,,10,,,,64,30
49400,note_off,80,0,10,,,,,,,,8,,,,67,64
49400,note_off,80,0,6,,,,,,,,4,,,,64,64
49400,note_off,80,0,13,,,,,,,,12,,,,45,64
49400,note_off,80,0,12,,,,,,,,11,,,,61,64
49400,note_off,80,0,14,,,,,,,,13,,,,33,64
49400,note_off,80,0,8,,,,,,,,6,,,,45,64
49400,note_off,80,0,5,,,,,,,,3,,,,67,64
49400,note_off,80,0,11,,,,,,,,10,,,,64,64
49400,note_off,80,0,9,,,,,,,,7,,,,33,64
49400,note_off,80,0,7,,,,,,,,5,,,,61,64
49440,note_on,40,0,12,,,,,,,,11,,,,64,30
49440,note_on,40,0,11,,,,,,,,10,,,,67,30
49440,note_on,40,0,6,,,,,,,,4,,,,67,62
49440,note_on,40,0,5,,,,,,,,3,,,,73,62
49440,note_on,40,0,7,,,,,,,,5,,,,64,46
49440,note_on,40,0,10,,,,,,,,8,,,,73,30
49480,note_off,400,0,15,,,,,,,,14,,,,33,64
49520,note_off,80,0,12,,,,,,,,11,,,,64,64
49520,note_off,80,0,6,,,,,,,,4,,,,67,64
49520,note_off,80,0,5,,,,,,,,3,,,,73,64
49520,note_off,80,0,10,,,,,,,,8,,,,73,64
49520,note_off,80,0,7,,,,,,,,5,,,,64,64
49520,note_off,80,0,11,,,,,,,,10,,,,67,64
49560,note_on,40,0,7,,,,,,,,5,,,,61,47
49560,note_on,160,0,8,,,,,,,,6,,,,45,52
49560,note_on,40,0,10,,,,,,,,8,,,,67,31
49560,note_on,160,0,9,,,,,,,,7,,,,33,52
49560,note_on,160,0,14,,,,,,,,13,,,,33,38
49560,note_on,80,0,15,,,,,,,,14,,,,33,42
49560,note_on,40,0,11,,,,,,,,10,,,,64,31
49560,note_on,160,0,13,,,,,,,,12,,,,45,38
49560,note_on,40,0,12,,,,,,,,11,,,,61,31
49560,note_on,40,0,5,,,,,,,,3,,,,67,63
49560,note_on,40,0,6,,,,,,,,4,,,,64,63
49640,note_off,80,0,12,,,,,,,,11,,,,61,64
49640,note_off,80,0,8,,,,,,,,6,,,,45,64
49640,note_off,80,0,13,,,,,,,,12,,,,45,64
49640,note_off,80,0,9,,,,,,,,7,,,,33,64
49640,note_off,80,0,11,,,,,,,,10,,,,64,64
49640,note_off,80,0,7,,,,,,,,5,,,,61,64
49640,note_off,80,0,5,,,,,,,,3,,,,67,64
49640,note_off,80,0,6,,,,,,,,4,,,,64,64
49640,note_off,80,0,14,,,,,,,,13,,,,33,64
49640,note_off,80,0,10,,,,,,,,8,,,,67,64
49680,note_on,40,0,7,,,,,,,,5,,,,64,48
49680,note_on,40,0,5,,,,,,,,3,,,,73,64
49680,note_on,40,0,6,,,,,,,,4,,,,67,64
49680,note_on,40,0,12,,,,,,,,11,,,,64,32
49680,note_on,40,0,10,,,,,,,,8,,,,73,32
49680,note_on,40,0,11,,,,,,,,10,,,,67,32
49760,note_off,80,0,6,,,,,,,,4,,,,67,64
49760,note_off,80,0,7,,,,,,,,5,,,,64,64
49760,note_off,80,0,10,,,,,,,,8,,,,73,64
49760,note_off,80,0,11,,,,,,,,10,,,,67,64
49760,note_off,80,0,12,,,,,,,,11,,,,64,64
49760,note_off,80,0,5,,,,,,,,3,,,,73,64
49800,note_on,40,0,7,,,,,,,,5,,,,61,49
49800,note_on,40,0,11,,,,,,,,10,,,,64,32
49800,note_on,40,0,5,,,,,,,,3,,,,67,65
49800,note_on,160,0,14,,,,,,,,13,,,,33,39
49800,note_on,160,0,13,,,,,,,,12,,,,45,39
49800,note_on,160,0,9,,,,,,,,7,,,,33,53
49800,note_on,160,0,8,,,,,,,,6,,,,45,53
49800,note_on,40,0,10,,,,,,,,8,,,,67,32
49800,note_on,40,0,12,,,,,,,,11,,,,61,32
49800,note_on,40,0,6,,,,,,,,4,,,,64,65
49880,note_off,80,0,10,,,,,,,,8,,,,67,64
49880,note_off,80,0,5,,,,,,,,3,,,,67,64
49880,note_off,80,0,9,,,,,,,,7,,,,33,64
49880,note_off,80,0,7,,,,,,,,5,,,,61,64
49880,note_off,80,0,13,,,,,,,,12,,,,45,64
49880,note_off,80,0,11,,,,,,,,10,,,,64,64
49880,note_off,80,0,12,,,,,,,,11,,,,61,64
49880,note_off,80,0,8,,,,,,,,6,,,,45,64
49880,note_off,80,0,14,,,,,,,,13,,,,33,64
49880,note_off,80,0,6,,,,,,,,4,,,,64,64
49920,note_on,40,0,11,,,,,,,,10,,,,67,33
49920,note_on,40,0,10,,,,,,,,8,,,,73,33
49920,note_on,40,0,12,,,,,,,,11,,,,64,33
49920,note_on,40,0,5,,,,,,,,3,,,,73,66
49920,note_on,40,0,6,,,,,,,,4,,,,67,66
49920,note_on,40,0,7,,,,,,,,5,,,,64,50
49960,note_off,400,0,15,,,,,,,,14,,,,33,64
50000,note_off,80,0,7,,,,,,,,5,,,,64,64
50000,note_off,80,0,5,,,,,,,,3,,,,73,64
50000,note_off,80,0,12,,,,,,,,11,,,,64,64
50000,note_off,80,0,11,,,,,,,,10,,,,67,64
50000,note_off,80,0,6,,,,,,,,4,,,,67,64
50000,note_off,80,0,10,,,,,,,,8,,,,73,64
50040,note_on,40,0,10,,,,,,,,8,,,,67,34
50040,note_on,160,0,14,,,,,,,,13,,,,33,40
50040,note_on,40,0,12,,,,,,,,11,,,,61,34
50040,note_on,40,0,6,,,,,,,,4,,,,64,67
50040,note_on,40,0,5,,,,,,,,3,,,,67,67
50040,note_on,160,0,13,,,,,,,,12,,,,45,40
50040,note_on,80,0,15,,,,,,,,14,,,,33,45
50040,note_on,160,0,9,,,,,,,,7,,,,33,54
50040,note_on,40,0,7,,,,,,,,5,,,,61,51
50040,note_on,160,0,8,,,,,,,,6,,,,45,54
50040,note_on,40,0,11,,,,,,,,10,,,,64,34
50120,note_off,80,0,11,,,,,,,,10,,,,64,64
50120,note_off,80,0,5,,,,,,,,3,,,,67,64
50120,note_off,80,0,8,,,,,,,,6,,,,45,64
50120,note_off,80,0,14,,,,,,,,13,,,,33,64
50120,note_off,80,0,12,,,,,,,,11,,,,61,64
50120,note_off,80,0,7,,,,,,,,5,,,,61,64
50120,note_off,80,0,10,,,,,,,,8,,,,67,64
50120,note_off,80,0,6,,,,,,,,4,,,,64,64
50120,note_off,80,0,13,,,,,,,,12,,,,45,64
50120,note_off,80,0,9,,,,,,,,7,,,,33,64
50160,note_on,40,0,12,,,,,,,,11,,,,64,35
50160,note_on,40,0,10,,,,,,,,8,,,,73,35
50160,note_on,40,0,6,,,,,,,,4,,,,67,68
50160,note_on,40,0,11,,,,,,,,10,,,,67,35
50160,note_on,40,0,5,,,,,,,,3,,,,73,68
50160,note_on,40,0,7,,,,,,,,5,,,,64,52
50240,note_off,80,0,5,,,,,,,,3,,,,73,64
50240,note_off,80,0,12,,,,,,,,11,,,,64,64
50240,note_off,80,0,6,,,,,,,,4,,,,67,64
50240,note_off,80,0,10,,,,,,,,8,,,,73,64
50240,note_off,80,0,11,,,,,,,,10,,,,67,64
50240,note_off,80,0,7,,,,,,,,5,,,,64,64
50280,note_on,160,0,8,,,,,,,,6,,,,45,55
50280,note_on,40,0,12,,,,,,,,11,,,,61,36
50280,note_on,40,0,7,,,,,,,,5,,,,61,53
50280,note_on,40,0,10,,,,,,,,8,,,,67,36
50280,note_on,160,0,14,,,,,,,,13,,,,33,41
50280,note_on,40,0,5,,,,,,,,3,,,,67,69
50280,note_on,160,0,13,,,,,,,,12,,,,45,41
50280,note_on,160,0,9,,,,,,,,7,,,,33,55
50280,note_on,40,0,6,,,,,,,,4,,,,64,69
50280,note_on,40,0,11,,,,,,,,10,,,,64,36
50360,note_off,80,0,14,,,,,,,,13,,,,33,64
50360,note_off,80,0,5,,,,,,,,3,,,,67,64
50360,note_off,80,0,8,,,,,,,,6,,,,45,64
50360,note_off,80,0,9,,,,,,,,7,,,,33,64
50360,note_off,80,0,7,,,,,,,,5,,,,61,64
50360,note_off,80,0,11,,,,,,,,10,,,,64,64
50360,note_off,80,0,6,,,,,,,,4,,,,64,64
50360,note_off,80,0,13,,,,,,,,12,,,,45,64
50360,note_off,80,0,10,,,,,,,,8,,,,67,64
50360,note_off,80,0,12,,,,,,,,11,,,,61,64
50400,note_on,40,0,10,,,,,,,,8,,,,73,37
50400,note_on,40,0,11,,,,,,,,10,,,,67,37
50400,note_on,40,0,6,,,,,,,,4,,,,67,70
50400,note_on,40,0,12,,,,,,,,11,,,,64,37
50400,note_on,40,0,5,,,,,,,,3,,,,73,70
50400,note_on,40,0,7,,,,,,,,5,,,,64,54
50440,note_off,400,0,15,,,,,,,,14,,,,33,64
50480,note_off,80,0,5,,,,,,,,3,,,,73,64
50480,note_off,80,0,10,,,,,,,,8,,,,73,64
50480,note_off,80,0,7,,,,,,,,5,,,,64,64
50480,note_off,80,0,11,,,,,,,,10,,,,67,64
50480,note_off,80,0,6,,,,,,,,4,,,,67,64
50480,note_off,80,0,12,,,,,,,,11,,,,64,64
50520,note_on,40,0,5,,,,,,,,3,,,,69,71
50520,note_on,160,0,8,,,,,,,,6,,,,50,56
50520,note_on,40,0,11,,,,,,,,10,,,,65,38
50520,note_on,160,0,9,,,,,,,,7,,,,38,56
50520,note_on,40,0,10,,,,,,,,8,,,,69,38
50520,note_on,40,0,6,,,,,,,,4,,,,65,71
50520,note_on,40,0,7,,,,,,,,5,,,,62,55
50520,note_on,160,0,13,,,,,,,,12,,,,50,42
50520,note_on,160,0,14,,,,,,,,13,,,,38,42
50520,note_on,40,0,12,,,,,,,,11,,,,62,38
50520,note_on,80,0,15,,,,,,,,14,,,,38,48
50600,note_off,80,0,12,,,,,,,,11,,,,62,64
50600,note_off,80,0,8,,,,,,,,6,,,,50,64
50600,note_off,80,0,5,,,,,,,,3,,,,69,64
50600,note_off,80,0,9,,,,,,,,7,,,,38,64
50600,note_off,80,0,7,,,,,,,,5,,,,62,64
50600,note_off,80,0,11,,,,,,,,10,,,,65,64
50600,note_off,80,0,6,,,,,,,,4,,,,65,64
50600,note_off,80,0,13,,,,,,,,12,,,,50,64
50600,note_off,80,0,14,,,,,,,,13,,,,38,64
50600,note_off,80,0,10,,,,,,,,8,,,,69,64
50640,note_on,40,0,7,,,,,,,,5,,,,65,56
50640,note_on,40,0,6,,,,,,,,4,,,,69,72
50640,note_on,40,0,11,,,,,,,,10,,,,69,39
50640,note_on,40,0,10,,,,,,,,8,,,,74,39
50640,note_on,40,0,5,,,,,,,,3,,,,74,72
50640,note_on,40,0,12,,,,,,,,11,,,,65,39
50720,note_off,80,0,12,,,,,,,,11,,,,65,64
50720,note_off,80,0,11,,,,,,,,10,,,,69,64
50720,note_off,80,0,10,,,,,,,,8,,,,74,64
50720,note_off,80,0,5,,,,,,,,3,,,,74,64
50720,note_off,80,0,6,,,,,,,,4,,,,69,64
50720,note_off,80,0,7,,,,,,,,5,,,,65,64
50760,note_on,40,0,11,,,,,,,,10,,,,65,40
50760,note_on,160,0,13,,,,,,,,12,,,,50,43
50760,note_on,40,0,6,,,,,,,,4,,,,65,73
50760,note_on,160,0,14,,,,,,,,13,,,,38,43
50760,note_on,40,0,10,,,,,,,,8,,,,69,40
50760,note_on,40,0,12,,,,,,,,11,,,,62,40
50760,note_on,160,0,9,,,,,,,,7,,,,38,57
50760,note_on,40,0,5,,,,,,,,3,,,,69,73
50760,note_on,160,0,8,,,,,,,,6,,,,50,57
50760,note_on,40,0,7,,,,,,,,5,,,,62,57
50840,note_off,80,0,11,,,,,,,,10,,,,65,64
50840,note_off,80,0,5,,,,,,,,3,,,,69,64
50840,note_off,80,0,9,,,,,,,,7,,,,38,64
50840,note_off,80,0,12,,,,,,,,11,,,,62,64
50840,note_off,80,0,13,,,,,,,,12,,,,50,64
50840,note_off,80,0,8,,,,,,,,6,,,,50,64
50840,note_off,80,0,6,,,,,,,,4,,,,65,64
50840,note_off,80,0,10,,,,,,,,8,,,,69,64
50840,note_off,80,0,7,,,,,,,,5,,,,62,64
50840,note_off,80,0,14,,,,,,,,13,,,,38,64
50880,note_on,40,0,11,,,,,,,,10,,,,69,41
50880,note_on,40,0,10,,,,,,,,8,,,,74,41
50880,note_on,40,0,7,,,,,,,,5,,,,65,58
50880,note_on,40,0,6,,,,,,,,4,,,,69,74
50880,note_on,40,0,5,,,,,,,,3,,,,74,74
50880,note_on,40,0,12,,,,,,,,11,,,,65,41
50920,note_off,400,0,15,,,,,,,,14,,,,38,64
50960,note_off,80,0,5,,,,,,,,3,,,,74,64
50960,note_off,80,0,6,,,,,,,,4,,,,69,64
50960,note_off,80,0,10,,,,,,,,8,,,,74,64
50960,note_off,80,0,11,,,,,,,,10,,,,69,64
50960,note_off,80,0,12,,,,,,,,11,,,,65,64
50960,note_off,80,0,7,,,,,,,,5,,,,65,64
51000,note_on,40,0,6,,,,,,,,4,,,,65,75
51000,note_on,40,0,5,,,,,,,,3,,,,69,75
51000,note_on,80,0,15,,,,,,,,14,,,,38,51
51000,note_on,160,0,9,,,,,,,,7,,,,38,58
51000,note_on,160,0,13,,,,,,,,12,,,,50,44
51000,note_on,40,0,11,,,,,,,,10,,,,65,42
51000,note_on,160,0,8,,,,,,,,6,,,,50,58
51000,note_on,40,0,10,,,,,,,,8,,,,69,42
51000,note_on,160,0,14,,,,,,,,13,,,,38,44
51000,note_on,40,0,12,,,,,,,,11,,,,62,42
51000,note_on,40,0,7,,,,,,,,5,,,,62,59
51080,note_off,80,0,9,,,,,,,,7,,,,38,64
51080,note_off,80,0,12,,,,,,,,11,,,,62,64
51080,note_off,80,0,8,,,,,,,,6,,,,50,64
51080,note_off,80,0,5,,,,,,,,3,,,,69,64
51080,note_off,80,0,11,,,,,,,,10,,,,65,64
51080,note_off,80,0,14,,,,,,,,13,,,,38,64
51080,note_off,80,0,13,,,,,,,,12,,,,50,64
51080,note_off,80,0,10,,,,,,,,8,,,,69,64
51080,note_off,80,0,7,,,,,,,,5,,,,62,64
51080,note_off,80,0,6,,,,,,,,4,,,,65,64
51120,note_on,40,0,11,,,,,,,,10,,,,69,43
51120,note_on,40,0,6,,,,,,,,4,,,,69,76
51120,note_on,40,0,5,,,,,,,,3,,,,74,76
51120,note_on,40,0,7,,,,,,,,5,,,,65,60
51120,note_on,40,0,10,,,,,,,,8,,,,74,43
51120,note_on,40,0,12,,,,,,,,11,,,,65,43
51200,note_off,80,0,5,,,,,,,,3,,,,74,64
51200,note_off,80,0,10,,,,,,,,8,,,,74,64
51200,note_off,80,0,11,,,,,,,,10,,,,69,64
51200,note_off,80,0,12,,,,,,,,11,,,,65,64
51200,note_off,80,0,6,,,,,,,,4,,,,69,64
51200,note_off,80,0,7,,,,,,,,5,,,,65,64
51240,note_on,160,0,13,,,,,,,,12,,,,50,45
51240,note_on,160,0,14,,,,,,,,13,,,,38,45
51240,note_on,40,0,12,,,,,,,,11,,,,62,44
51240,note_on,160,0,9,,,,,,,,7,,,,38,59
51240,note_on,40,0,6,,,,,,,,4,,,,65,77
51240,note_on,40,0,5,,,,,,,,3,,,,69,77
51240,note_on,160,0,8,,,,,,,,6,,,,50,59
51240,note_on,40,0,11,,,,,,,,10,,,,65,44
51240,note_on,40,0,10,,,,,,,,8,,,,69,44
51240,note_on,40,0,7,,,,,,,,5,,,,62,61
51320,note_off,80,0,12,,,,,,,,11,,,,62,64
51320,note_off,80,0,9,,,,,,,,7,,,,38,64
51320,note_off,80,0,8,,,,,,,,6,,,,50,64
51320,note_off,80,0,10,,,,,,,,8,,,,69,64
51320,note_off,80,0,13,,,,,,,,12,,,,50,64
51320,note_off,80,0,11,,,,,,,,10,,,,65,64
51320,note_off,80,0,5,,,,,,,,3,,,,69,64
51320,note_off,80,0,6,,,,,,,,4,,,,65,64
51320,note_off,80,0,14,,,,,,,,13,,,,38,64
51320,note_off,80,0,7,,,,,,,,5,,,,62,64
51360,note_on,40,0,11,,,,,,,,10,,,,69,45
51360,note_on,40,0,5,,,,,,,,3,,,,74,78
51360,note_on,40,0,12,,,,,,,,11,,,,65,45
51360,note_on,40,0,6,,,,,,,,4,,,,69,78
51360,note_on,40,0,10,,,,,,,,8,,,,74,45
51360,note_on,40,0,7,,,,,,,,5,,,,65,62
51400,note_off,400,0,15,,,,,,,,14,,,,38,64
51440,note_off,80,0,10,,,,,,,,8,,,,74,64
51440,note_off,80,0,11,,,,,,,,10,,,,69,64
51440,note_off,80,0,12,,,,,,,,11,,,,65,64
51440,note_off,80,0,6,,,,,,,,4,,,,69,64
51440,note_off,80,0,5,,,,,,,,3,,,,74,64
51440,note_off,80,0,7,,,,,,,,5,,,,65,64
51480,note_on,40,0,7,,,,,,,,5,,,,62,63
51480,note_on,160,0,14,,,,,,,,13,,,,38,47
51480,note_on,40,0,11,,,,,,,,10,,,,65,46
51480,note_on,80,0,15,,,,,,,,14,,,,38,54
51480,note_on,40,0,6,,,,,,,,4,,,,65,79
51480,note_on,160,0,9,,,,,,,,7,,,,38,60
51480,note_on,40,0,5,,,,,,,,3,,,,69,79
51480,note_on,160,0,13,,,,,,,,12,,,,50,47
51480,note_on,40,0,12,,,,,,,,11,,,,62,46
51480,note_on,160,0,8,,,,,,,,6,,,,50,60
51480,note_on,40,0,10,,,,,,,,8,,,,69,46
51560,note_off,80,0,6,,,,,,,,4,,,,65,64
51560,note_off,80,0,13,,,,,,,,12,,,,50,64
51560,note_off,80,0,14,,,,,,,,13,,,,38,64
51560,note_off,80,0,12,,,,,,,,11,,,,62,64
51560,note_off,80,0,8,,,,,,,,6,,,,50,64
51560,note_off,80,0,9,,,,,,,,7,,,,38,64
51560,note_off,80,0,10,,,,,,,,8,,,,69,64
51560,note_off,80,0,11,,,,,,,,10,,,,65,64
51560,note_off,80,0,5,,,,,,,,3,,,,69,64
51560,note_off,80,0,7,,,,,,,,5,,,,62,64
51600,note_on,40,0,7,,,,,,,,5,,,,65,64
51600,note_on,40,0,10,,,,,,,,8,,,,74,47
51600,note_on,40,0,11,,,,,,,,10,,,,62,47
51600,note_on,40,0,12,,,,,,,,11,,,,65,47
51600,note_on,40,0,6,,,,,,,,4,,,,62,80
51600,note_on,40,0,5,,,,,,,,3,,,,74,80
51680,note_off,80,0,10,,,,,,,,8,,,,74,64
51680,note_off,80,0,12,,,,,,,,11,,,,65,64
51680,note_off,80,0,11,,,,,,,,10,,,,62,64
51680,note_off,80,0,7,,,,,,,,5,,,,65,64
51680,note_off,80,0,5,,,,,,,,3,,,,74,64
51680,note_off,80,0,6,,,,,,,,4,,,,62,64
51720,note_on,40,0,12,,,,,,,,11,,,,62,48
51720,note_on,160,0,8,,,,,,,,6,,,,50,61
51720,note_on,160,0,9,,,,,,,,7,,,,38,61
51720,note_on,160,0,13,,,,,,,,12,,,,50,49
51720,note_on,40,0,5,,,,,,,,3,,,,69,81
51720,note_on,160,0,14,,,,,,,,13,,,,38,49
51720,note_on,40,0,6,,,,,,,,4,,,,65,81
51720,note_on,40,0,11,,,,,,,,10,,,,65,48
51720,note_on,40,0,7,,,,,,,,5,,,,62,65
51720,note_on,40,0,10,,,,,,,,8,,,,69,48
51800,note_off,80,0,13,,,,,,,,12,,,,50,64
51800,note_off,80,0,5,,,,,,,,3,,,,69,64
51800,note_off,80,0,7,,,,,,,,5,,,,62,64
51800,note_off,80,0,6,,,,,,,,4,,,,65,64
51800,note_off,80,0,11,,,,,,,,10,,,,65,64
51800,note_off,80,0,12,,,,,,,,11,,,,62,64
51800,note_off,80,0,8,,,,,,,,6,,,,50,64
51800,note_off,80,0,10,,,,,,,,8,,,,69,64
51800,note_off,80,0,9,,,,,,,,7,,,,38,64
51800,note_off,80,0,14,,,,,,,,13,,,,38,64
51840,note_on,40,0,12,,,,,,,,11,,,,65,49
51840,note_on,40,0,10,,,,,,,,8,,,,74,49
51840,note_on,40,0,11,,,,,,,,10,,,,62,49
51840,note_on,40,0,7,,,,,,,,5,,,,65,66
51840,note_on,40,0,5,,,,,,,,3,,,,74,82
51840,note_on,40,0,6,,,,,,,,4,,,,62,82
51880,note_off,400,0,15,,,,,,,,14,,,,38,64
51920,note_off,80,0,11,,,,,,,,10,,,,62,64
51920,note_off,80,0,10,,,,,,,,8,,,,74,64
51920,note_off,80,0,6,,,,,,,,4,,,,62,64
51920,note_off,80,0,12,,,,,,,,11,,,,65,64
51920,note_off,80,0,5,,,,,,,,3,,,,74,64
51920,note_off,80,0,7,,,,,,,,5,,,,65,64
51960,note_on,40,0,6,,,,,,,,4,,,,64,83
51960,note_on,40,0,10,,,,,,,,8,,,,69,50
51960,note_on,80,0,15,,,,,,,,14,,,,33,57
51960,note_on,160,0,9,,,,,,,,7,,,,33,62
51960,note_on,40,0,12,,,,,,,,11,,,,62,50
51960,note_on,40,0,11,,,,,,,,10,,,,64,50
51960,note_on,160,0,13,,,,,,,,12,,,,45,51
51960,note_on,160,0,14,,,,,,,,13,,,,33,51
51960,note_on,40,0,5,,,,,,,,3,,,,69,83
51960,note_on,160,0,8,,,,,,,,6,,,,45,62
51960,note_on,40,0,7,,,,,,,,5,,,,62,67
52040,note_off,80,0,6,,,,,,,,4,,,,64,64
52040,note_off,80,0,12,,,,,,,,11,,,,62,64
52040,note_off,80,0,13,,,,,,,,12,,,,45,64
52040,note_off,80,0,14,,,,,,,,13,,,,33,64
52040,note_off,80,0,8,,,,,,,,6,,,,45,64
52040,note_off,80,0,11,,,,,,,,10,,,,64,64
52040,note_off,80,0,10,,,,,,,,8,,,,69,64
52040,note_off,80,0,7,,,,,,,,5,,,,62,64
52040,note_off,80,0,9,,,,,,,,7,,,,33,64
52040,note_off,80,0,5,,,,,,,,3,,,,69,64
52080,note_on,40,0,11,,,,,,,,10,,,,69,51
52080,note_on,40,0,12,,,,,,,,11,,,,64,51
52080,note_on,40,0,5,,,,,,,,3,,,,74,84
52080,note_on,40,0,10,,,,,,,,8,,,,74,51
52080,note_on,40,0,7,,,,,,,,5,,,,64,68
52080,note_on,40,0,6,,,,,,,,4,,,,69,84
52160,note_off,80,0,12,,,,,,,,11,,,,64,64
52160,note_off,80,0,7,,,,,,,,5,,,,64,64
52160,note_off,80,0,11,,,,,,,,10,,,,69,64
52160,note_off,80,0,5,,,,,,,,3,,,,74,64
52160,note_off,80,0,6,,,,,,,,4,,,,69,64
52160,note_off,80,0,10,,,,,,,,8,,,,74,64
52200,note_on,40,0,5,,,,,,,,3,,,,69,85
52200,note_on,160,0,9,,,,,,,,7,,,,33,63
52200,note_on,40,0,10,,,,,,,,8,,,,69,52
52200,note_on,40,0,11,,,,,,,,10,,,,64,52
52200,note_on,160,0,14,,,,,,,,13,,,,33,53
52200,note_on,160,0,13,,,,,,,,12,,,,45,53
52200,note_on,160,0,8,,,,,,,,6,,,,45,63
52200,note_on,40,0,6,,,,,,,,4,,,,64,85
52200,note_on,40,0,7,,,,,,,,5,,,,62,69
52200,note_on,40,0,12,,,,,,,,11,,,,62,52
52280,note_off,80,0,6,,,,,,,,4,,,,64,64
52280,note_off,80,0,10,,,,,,,,8,,,,69,64
52280,note_off,80,0,13,,,,,,,,12,,,,45,64
52280,note_off,80,0,8,,,,,,,,6,,,,45,64
52280,note_off,80,0,7,,,,,,,,5,,,,62,64
52280,note_off,80,0,5,,,,,,,,3,,,,69,64
52280,note_off,80,0,11,,,,,,,,10,,,,64,64
52280,note_off,80,0,14,,,,,,,,13,,,,33,64
52280,note_off,80,0,12,,,,,,,,11,,,,62,64
52280,note_off,80,0,9,,,,,,,,7,,,,33,64
52320,note_on,40,0,12,,,,,,,,11,,,,64,53
52320,note_on,40,0,10,,,,,,,,8,,,,74,53
52320,note_on,40,0,6,,,,,,,,4,,,,69,86
52320,note_on,40,0,7,,,,,,,,5,,,,64,70
52320,note_on,40,0,5,,,,,,,,3,,,,74,86
52320,note_on,40,0,11,,,,,,,,10,,,,69,53
52360,note_off,400,0,15,,,,,,,,14,,,,33,64
52400,note_off,80,0,10,,,,,,,,8,,,,74,64
52400,note_off,80,0,6,,,,,,,,4,,,,69,64
52400,note_off,80,0,11,,,,,,,,10,,,,69,64
52400,note_off,80,0,12,,,,,,,,11,,,,64,64
52400,note_off,80,0,5,,,,,,,,3,,,,74,64
52400,note_off,80,0,7,,,,,,,,5,,,,64,64
52440,note_on,40,0,5,,,,,,,,3,,,,69,87
52440,note_on,40,0,12,,,,,,,,11,,,,62,54
52440,note_on,40,0,7,,,,,,,,5,,,,62,71
52440,note_on,160,0,8,,,,,,,,6,,,,45,64
52440,note_on,40,0,10,,,,,,,,8,,,,69,54
52440,note_on,40,0,6,,,,,,,,4,,,,64,87
52440,note_on,160,0,13,,,,,,,,12,,,,45,55
52440,note_on,40,0,11,,,,,,,,10,,,,64,54
52440,note_on,80,0,15,,,,,,,,14,,,,33,60
52440,note_on,160,0,9,,,,,,,,7,,,,33,64
52440,note_on,160,0,14,,,,,,,,13,,,,33,55
52520,note_off,80,0,6,,,,,,,,4,,,,64,64
52520,note_off,80,0,11,,,,,,,,10,,,,64,64
52520,note_off,80,0,12,,,,,,,,11,,,,62,64
52520,note_off,80,0,8,,,,,,,,6,,,,45,64
52520,note_off,80,0,10,,,,,,,,8,,,,69,64
52520,note_off,80,0,14,,,,,,,,13,,,,33,64
52520,note_off,80,0,13,,,,,,,,12,,,,45,64
52520,note_off,80,0,7,,,,,,,,5,,,,62,64
52520,note_off,80,0,9,,,,,,,,7,,,,33,64
52520,note_off,80,0,5,,,,,,,,3,,,,69,64
52560,note_on,40,0,12,,,,,,,,11,,,,64,55
52560,note_on,40,0,7,,,,,,,,5,,,,64,72
52560,note_on,40,0,10,,,,,,,,8,,,,74,55
52560,note_on,40,0,11,,,,,,,,10,,,,69,55
52560,note_on,40,0,5,,,,,,,,3,,,,74,88
52560,note_on,40,0,6,,,,,,,,4,,,,69,88
52640,note_off,80,0,6,,,,,,,,4,,,,69,64
52640,note_off,80,0,10,,,,,,,,8,,,,74,64
52640,note_off,80,0,5,,,,,,,,3,,,,74,64
52640,note_off,80,0,7,,,,,,,,5,,,,64,64
52640,note_off,80,0,12,,,,,,,,11,,,,64,64
52640,note_off,80,0,11,,,,,,,,10,,,,69,64
52680,note_on,40,0,5,,,,,,,,3,,,,69,89
52680,note_on,40,0,11,,,,,,,,10,,,,64,56
52680,note_on,40,0,7,,,,,,,,5,,,,62,73
52680,note_on,40,0,12,,,,,,,,11,,,,62,56
52680,note_on,40,0,10,,,,,,,,8,,,,69,56
52680,note_on,160,0,9,,,,,,,,7,,,,33,65
52680,note_on,40,0,6,,,,,,,,4,,,,64,89
52680,note_on,160,0,13,,,,,,,,12,,,,45,57
52680,note_on,160,0,14,,,,,,,,13,,,,33,57
52680,note_on,160,0,8,,,,,,,,6,,,,45,65
52760,note_off,80,0,8,,,,,,,,6,,,,45,64
52760,note_off,80,0,9,,,,,,,,7,,,,33,64
52760,note_off,80,0,10,,,,,,,,8,,,,69,64
52760,note_off,80,0,5,,,,,,,,3,,,,69,64
52760,note_off,80,0,11,,,,,,,,10,,,,64,64
52760,note_off,80,0,13,,,,,,,,12,,,,45,64
52760,note_off,80,0,7,,,,,,,,5,,,,62,64
52760,note_off,80,0,6,,,,,,,,4,,,,64,64
52760,note_off,80,0,14,,,,,,,,13,,,,33,64
52760,note_off,80,0,12,,,,,,,,11,,,,62,64
52800,note_on,40,0,11,,,,,,,,10,,,,69,57
52800,note_on,40,0,5,,,,,,,,3,,,,74,90
52800,note_on,40,0,10,,,,,,,,8,,,,74,57
52800,note_on,40,0,12,,,,,,,,11,,,,64,57
52800,note_on,40,0,6,,,,,,,,4,,,,69,90
52800,note_on,40,0,7,,,,,,,,5,,,,64,74
52840,note_off,400,0,15,,,,,,,,14,,,,33,64
52880,note_off,80,0,12,,,,,,,,11,,,,64,64
52880,note_off,80,0,6,,,,,,,,4,,,,69,64
52880,note_off,80,0,10,,,,,,,,8,,,,74,64
52880,note_off,80,0,11,,,,,,,,10,,,,69,64
52880,note_off,80,0,7,,,,,,,,5,,,,64,64
52880,note_off,80,0,5,,,,,,,,3,,,,74,64
52920,note_on,40,0,5,,,,,,,,3,,,,69,91
52920,note_on,160,0,8,,,,,,,,6,,,,45,66
52920,note_on,40,0,6,,,,,,,,4,,,,64,91
52920,note_on,160,0,13,,,,,,,,12,,,,45,59
52920,note_on,40,0,12,,,,,,,,11,,,,62,58
52920,note_on,40,0,7,,,,,,,,5,,,,62,75
52920,note_on,160,0,9,,,,,,,,7,,,,33,66
52920,note_on,160,0,14,,,,,,,,13,,,,33,59
52920,note_on,40,0,10,,,,,,,,8,,,,69,58
52920,note_on,40,0,11,,,,,,,,10,,,,64,58
52920,note_on,80,0,15,,,,,,,,14,,,,33,63
53000,note_off,80,0,13,,,,,,,,12,,,,45,64
53000,note_off,80,0,11,,,,,,,,10,,,,64,64
53000,note_off,80,0,9,,,,,,,,7,,,,33,64
53000,note_off,80,0,10,,,,,,,,8,,,,69,64
53000,note_off,80,0,8,,,,,,,,6,,,,45,64
53000,note_off,80,0,12,,,,,,,,11,,,,62,64
53000,note_off,80,0,6,,,,,,,,4,,,,64,64
53000,note_off,80,0,5,,,,,,,,3,,,,69,64
53000,note_off,80,0,14,,,,,,,,13,,,,33,64
53000,note_off,80,0,7,,,,,,,,5,,,,62,64
53040,note_on,40,0,11,,,,,,,,10,,,,69,59
53040,note_on,40,0,5,,,,,,,,3,,,,74,92
53040,note_on,40,0,10,,,,,,,,8,,,,74,59
53040,note_on,40,0,12,,,,,,,,11,,,,64,59
53040,note_on,40,0,7,,,,,,,,5,,,,64,76
53040,note_on,40,0,6,,,,,,,,4,,,,69,92
53120,note_off,80,0,5,,,,,,,,3,,,,74,64
53120,note_off,80,0,12,,,,,,,,11,,,,64,64
53120,note_off,80,0,11,,,,,,,,10,,,,69,64
53120,note_off,80,0,6,,,,,,,,4,,,,69,64
53120,note_off,80,0,7,,,,,,,,5,,,,64,64
53120,note_off,80,0,10,,,,,,,,8,,,,74,64
53160,note_on,40,0,10,,,,,,,,8,,,,69,60
53160,note_on,40,0,7,,,,,,,,5,,,,62,77
53160,note_on,160,0,13,,,,,,,,12,,,,45,61
53160,note_on,160,0,8,,,,,,,,6,,,,45,67
53160,note_on,160,0,14,,,,,,,,13,,,,33,61
53160,note_on,40,0,11,,,,,,,,10,,,,64,60
53160,note_on,40,0,6,,,,,,,,4,,,,64,93
53160,note_on,40,0,5,,,,,,,,3,,,,69,93
53160,note_on,40,0,12,,,,,,,,11,,,,62,60
53160,note_on,160,0,9,,,,,,,,7,,,,33,67
53240,note_off,80,0,12,,,,,,,,11,,,,62,64
53240,note_off,80,0,11,,,,,,,,10,,,,64,64
53240,note_off,80,0,10,,,,,,,,8,,,,69,64
53240,note_off,80,0,5,,,,,,,,3,,,,69,64
53240,note_off,80,0,13,,,,,,,,12,,,,45,64
53240,note_off,80,0,8,,,,,,,,6,,,,45,64
53240,note_off,80,0,14,,,,,,,,13,,,,33,64
53240,note_off,80,0,6,,,,,,,,4,,,,64,64
53240,note_off,80,0,9,,,,,,,,7,,,,33,64
53240,note_off,80,0,7,,,,,,,,5,,,,62,64
53280,note_on,40,0,11,,,,,,,,10,,,,69,61
53280,note_on,40,0,7,,,,,,,,5,,,,64,78
53280,note_on,40,0,5,,,,,,,,3,,,,74,94
53280,note_on,40,0,10,,,,,,,,8,,,,74,61
53280,note_on,40,0,6,,,,,,,,4,,,,69,94
53280,note_on,40,0,12,,,,,,,,11,,,,64,61
53320,note_off,400,0,15,,,,,,,,14,,,,33,64
53360,note_off,80,0,10,,,,,,,,8,,,,74,64
53360,note_off,80,0,7,,,,,,,,5,,,,64,64
53360,note_off,80,0,11,,,,,,,,10,,,,69,64
53360,note_off,80,0,6,,,,,,,,4,,,,69,64
53360,note_off,80,0,5,,,,,,,,3,,,,74,64
53360,note_off,80,0,12,,,,,,,,11,,,,64,64
53400,note_on,40,0,10,,,,,,,,8,,,,69,62
53400,note_on,40,0,6,,,,,,,,4,,,,64,95
53400,note_on,40,0,5,,,,,,,,3,,,,69,95
53400,note_on,160,0,14,,,,,,,,13,,,,33,63
53400,note_on,40,0,7,,,,,,,,5,,,,61,79
53400,note_on,160,0,9,,,,,,,,7,,,,33,68
53400,note_on,160,0,8,,,,,,,,6,,,,45,68
53400,note_on,80,0,15,,,,,,,,14,,,,33,66
53400,note_on,40,0,11,,,,,,,,10,,,,64,62
53400,note_on,160,0,13,,,,,,,,12,,,,45,63
53400,note_on,40,0,12,,,,,,,,11,,,,61,62
53480,note_off,80,0,14,,,,,,,,13,,,,33,64
53480,note_off,80,0,10,,,,,,,,8,,,,69,64
53480,note_off,80,0,6,,,,,,,,4,,,,64,64
53480,note_off,80,0,11,,,,,,,,10,,,,64,64
53480,note_off,80,0,7,,,,,,,,5,,,,61,64
53480,note_off,80,0,12,,,,,,,,11,,,,61,64
53480,note_off,80,0,5,,,,,,,,3,,,,69,64
53480,note_off,80,0,13,,,,,,,,12,,,,45,64
53480,note_off,80,0,8,,,,,,,,6,,,,45,64
53480,note_off,80,0,9,,,,,,,,7,,,,33,64
53520,note_on,40,0,6,,,,,,,,4,,,,67,96
53520,note_on,40,0,12,,,,,,,,11,,,,64,63
53520,note_on,40,0,5,,,,,,,,3,,,,73,96
53520,note_on,40,0,7,,,,,,,,5,,,,64,80
53520,note_on,40,0,11,,,,,,,,10,,,,67,63
53520,note_on,40,0,10,,,,,,,,8,,,,73,63
53600,note_off,80,0,7,,,,,,,,5,,,,64,64
53600,note_off,80,0,11,,,,,,,,10,,,,67,64
53600,note_off,80,0,6,,,,,,,,4,,,,67,64
53600,note_off,80,0,10,,,,,,,,8,,,,73,64
53600,note_off,80,0,5,,,,,,,,3,,,,73,64
53600,note_off,80,0,12,,,,,,,,11,,,,64,64
53640,note_on,160,0,14,,,,,,,,13,,,,33,65
53640,note_on,160,0,9,,,,,,,,7,,,,33,69
53640,note_on,40,0,11,,,,,,,,10,,,,64,64
53640,note_on,160,0,8,,,,,,,,6,,,,45,69
53640,note_on,40,0,10,,,,,,,,8,,,,69,64
53640,note_on,160,0,13,,,,,,,,12,,,,45,65
53640,note_on,40,0,6,,,,,,,,4,,,,64,97
53640,note_on,40,0,7,,,,,,,,5,,,,61,81
53640,note_on,40,0,12,,,,,,,,11,,,,61,64
53640,note_on,40,0,5,,,,,,,,3,,,,69,97
53720,note_off,80,0,12,,,,,,,,11,,,,61,64
53720,note_off,80,0,13,,,,,,,,12,,,,45,64
53720,note_off,80,0,14,,,,,,,,13,,,,33,64
53720,note_off,80,0,9,,,,,,,,7,,,,33,64
53720,note_off,80,0,5,,,,,,,,3,,,,69,64
53720,note_off,80,0,7,,,,,,,,5,,,,61,64
53720,note_off,80,0,6,,,,,,,,4,,,,64,64
53720,note_off,80,0,8,,,,,,,,6,,,,45,64
53720,note_off,80,0,11,,,,,,,,10,,,,64,64
53720,note_off,80,0,10,,,,,,,,8,,,,69,64
53760,note_on,40,0,5,,,,,,,,3,,,,73,98
53760,note_on,40,0,11,,,,,,,,10,,,,67,65
53760,note_on,40,0,7,,,,,,,,5,,,,64,82
53760,note_on,40,0,6,,,,,,,,4,,,,67,98
53760,note_on,40,0,10,,,,,,,,8,,,,73,65
53760,note_on,40,0,12,,,,,,,,11,,,,64,65
53800,note_off,400,0,15,,,,,,,,14,,,,33,64
53840,note_off,80,0,10,,,,,,,,8,,,,73,64
53840,note_off,80,0,6,,,,,,,,4,,,,67,64
53840,note_off,80,0,7,,,,,,,,5,,,,64,64
53840,note_off,80,0,11,,,,,,,,10,,,,67,64
53840,note_off,80,0,5,,,,,,,,3,,,,73,64
53840,note_off,80,0,12,,,,,,,,11,,,,64,64
53880,note_on,40,0,5,,,,,,,,3,,,,69,99
53880,note_on,40,0,12,,,,,,,,11,,,,61,66
53880,note_on,40,0,6,,,,,,,,4,,,,64,99
53880,note_on,40,0,11,,,,,,,,10,,,,64,66
53880,note_on,80,0,15,,,,,,,,14,,,,33,69
53880,note_on,160,0,13,,,,,,,,12,,,,45,67
53880,note_on,40,0,7,,,,,,,,5,,,,61,83
53880,note_on,40,0,10,,,,,,,,8,,,,69,66
53880,note_on,160,0,14,,,,,,,,13,,,,33,67
53880,note_on,160,0,9,,,,,,,,7,,,,33,70
53880,note_on,160,0,8,,,,,,,,6,,,,45,70
53960,note_off,80,0,7,,,,,,,,5,,,,61,64
53960,note_off,80,0,14,,,,,,,,13,,,,33,64
53960,note_off,80,0,12,,,,,,,,11,,,,61,64
53960,note_off,80,0,9,,,,,,,,7,,,,33,64
53960,note_off,80,0,6,,,,,,,,4,,,,64,64
53960,note_off,80,0,13,,,,,,,,12,,,,45,64
53960,note_off,80,0,10,,,,,,,,8,,,,69,64
53960,note_off,80,0,11,,,,,,,,10,,,,64,64
53960,note_off,80,0,5,,,,,,,,3,,,,69,64
53960,note_off,80,0,8,,,,,,,,6,,,,45,64
54000,note_on,40,0,12,,,,,,,,11,,,,64,67
54000,note_on,40,0,10,,,,,,,,8,,,,73,67
54000,note_on,40,0,11,,,,,,,,10,,,,67,67
54000,note_on,40,0,5,,,,,,,,3,,,,73,100
54000,note_on,40,0,7,,,,,,,,5,,,,64,84
54000,note_on,40,0,6,,,,,,,,4,,,,67,100
54080,note_off,80,0,11,,,,,,,,10,,,,67,64
54080,note_off,80,0,5,,,,,,,,3,,,,73,64
54080,note_off,80,0,12,,,,,,,,11,,,,64,64
54080,note_off,80,0,6,,,,,,,,4,,,,67,64
54080,note_off,80,0,7,,,,,,,,5,,,,64,64
54080,note_off,80,0,10,,,,,,,,8,,,,73,64
54120,note_on,40,0,7,,,,,,,,5,,,,61,85
54120,note_on,40,0,10,,,,,,,,8,,,,69,68
54120,note_on,160,0,8,,,,,,,,6,,,,45,71
54120,note_on,160,0,13,,,,,,,,12,,,,45,69
54120,note_on,160,0,14,,,,,,,,13,,,,33,69
54120,note_on,160,0,9,,,,,,,,7,,,,33,71
54120,note_on,40,0,11,,,,,,,,10,,,,64,68
54120,note_on,40,0,5,,,,,,,,3,,,,69,101
54120,note_on,40,0,6,,,,,,,,4,,,,64,101
54120,note_on,40,0,12,,,,,,,,11,,,,61,68
54200,note_off,80,0,8,,,,,,,,6,,,,45,64
54200,note_off,80,0,11,,,,,,,,10,,,,64,64
54200,note_off,80,0,14,,,,,,,,13,,,,33,64
54200,note_off,80,0,9,,,,,,,,7,,,,33,64
54200,note_off,80,0,6,,,,,,,,4,,,,64,64
54200,note_off,80,0,13,,,,,,,,12,,,,45,64
54200,note_off,80,0,12,,,,,,,,11,,,,61,64
54200,note_off,80,0,10,,,,,,,,8,,,,69,64
54200,note_off,80,0,5,,,,,,,,3,,,,69,64
54200,note_off,80,0,7,,,,,,,,5,,,,61,64
54240,note_on,40,0,6,,,,,,,,4,,,,67,102
54240,note_on,40,0,11,,,,,,,,10,,,,67,69
54240,note_on,40,0,5,,,,,,,,3,,,,73,102
54240,note_on,40,0,10,,,,,,,,8,,,,73,69
54240,note_on,40,0,12,,,,,,,,11,,,,64,69
54240,note_on,40,0,7,,,,,,,,5,,,,64,86
54280,note_off,400,0,15,,,,,,,,14,,,,33,64
54320,note_off,80,0,5,,,,,,,,3,,,,73,64
54320,note_off,80,0,12,,,,,,,,11,,,,64,64
54320,note_off,80,0,11,,,,,,,,10,,,,67,64
54320,note_off,80,0,10,,,,,,,,8,,,,73,64
54320,note_off,80,0,6,,,,,,,,4,,,,67,64
54320,note_off,80,0,7,,,,,,,,5,,,,64,64
54360,note_on,40,0,7,,,,,,,,5,,,,61,87
54360,note_on,40,0,5,,,,,,,,3,,,,69,103
54360,note_on,160,0,9,,,,,,,,7,,,,33,72
54360,note_on,160,0,14,,,,,,,,13,,,,33,71
54360,note_on,40,0,6,,,,,,,,4,,,,64,103
54360,note_on,160,0,8,,,,,,,,6,,,,45,72
54360,note_on,40,0,12,,,,,,,,11,,,,61,70
54360,note_on,80,0,15,,,,,,,,14,,,,33,72
54360,note_on,40,0,10,,,,,,,,8,,,,69,70
54360,note_on,40,0,11,,,,,,,,10,,,,64,70
54360,note_on,160,0,13,,,,,,,,12,,,,45,71
54440,note_off,80,0,13,,,,,,,,12,,,,45,64
54440,note_off,80,0,8,,,,,,,,6,,,,45,64
54440,note_off,80,0,12,,,,,,,,11,,,,61,64
54440,note_off,80,0,9,,,,,,,,7,,,,33,64
54440,note_off,80,0,5,,,,,,,,3,,,,69,64
54440,note_off,80,0,6,,,,,,,,4,,,,64,64
54440,note_off,80,0,7,,,,,,,,5,,,,61,64
54440,note_off,80,0,14,,,,,,,,13,,,,33,64
54440,note_off,80,0,11,,,,,,,,10,,,,64,64
54440,note_off,80,0,10,,,,,,,,8,,,,69,64
54480,note_on,40,0,11,,,,,,,,10,,,,67,71
54480,note_on,40,0,10,,,,,,,,8,,,,73,71
54480,note_on,40,0,6,,,,,,,,4,,,,67,104
54480,note_on,40,0,12,,,,,,,,11,,,,64,71
54480,note_on,40,0,5,,,,,,,,3,,,,73,104
54480,note_on,40,0,7,,,,,,,,5,,,,64,88
54560,note_off,80,0,5,,,,,,,,3,,,,73,64
54560,note_off,80,0,7,,,,,,,,5,,,,64,64
54560,note_off,80,0,10,,,,,,,,8,,,,73,64
54560,note_off,80,0,12,,,,,,,,11,,,,64,64
54560,note_off,80,0,6,,,,,,,,4,,,,67,64
54560,note_off,80,0,11,,,,,,,,10,,,,67,64
54600,note_on,40,0,5,,,,,,,,3,,,,69,105
54600,note_on,160,0,8,,,,,,,,6,,,,45,73
54600,note_on,160,0,14,,,,,,,,13,,,,33,73
54600,note_on,160,0,13,,,,,,,,12,,,,45,73
54600,note_on,40,0,6,,,,,,,,4,,,,64,105
54600,note_on,40,0,7,,,,,,,,5,,,,61,89
54600,note_on,160,0,9,,,,,,,,7,,,,33,73
54600,note_on,40,0,12,,,,,,,,11,,,,61,72
54600,note_on,40,0,11,,,,,,,,10,,,,64,72
54600,note_on,40,0,10,,,,,,,,8,,,,69,72
54680,note_off,80,0,11,,,,,,,,10,,,,64,64
54680,note_off,80,0,10,,,,,,,,8,,,,69,64
54680,note_off,80,0,14,,,,,,,,13,,,,33,64
54680,note_off,80,0,9,,,,,,,,7,,,,33,64
54680,note_off,80,0,13,,,,,,,,12,,,,45,64
54680,note_off,80,0,8,,,,,,,,6,,,,45,64
54680,note_off,80,0,5,,,,,,,,3,,,,69,64
54680,note_off,80,0,7,,,,,,,,5,,,,61,64
54680,note_off,80,0,12,,,,,,,,11,,,,61,64
54680,note_off,80,0,6,,,,,,,,4,,,,64,64
54720,note_on,40,0,5,,,,,,,,3,,,,73,106
54720,note_on,40,0,12,,,,,,,,11,,,,64,73
54720,note_on,40,0,6,,,,,,,,4,,,,67,106
54720,note_on,40,0,10,,,,,,,,8,,,,73,73
54720,note_on,40,0,11,,,,,,,,10,,,,67,73
54720,note_on,40,0,7,,,,,,,,5,,,,64,90
54760,note_off,400,0,15,,,,,,,,14,,,,33,64
54800,note_off,80,0,10,,,,,,,,8,,,,73,64
54800,note_off,80,0,5,,,,,,,,3,,,,73,64
54800,note_off,80,0,7,,,,,,,,5,,,,64,64
54800,note_off,80,0,6,,,,,,,,4,,,,67,64
54800,note_off,80,0,11,,,,,,,,10,,,,67,64
54800,note_off,80,0,12,,,,,,,,11,,,,64,64
54840,note_on,40,0,11,,,,,,,,10,,,,65,75
54840,note_on,160,0,9,,,,,,,,7,,,,38,75
54840,note_on,160,0,8,,,,,,,,6,,,,50,75
54840,note_on,40,0,10,,,,,,,,8,,,,74,75
54840,note_on,160,0,13,,,,,,,,12,,,,50,75
54840,note_on,40,0,5,,,,,,,,3,,,,74,108
54840,note_on,80,0,15,,,,,,,,14,,,,38,75
54840,note_on,40,0,12,,,,,,,,11,,,,62,75
54840,program_change,40,0,6,,,,,,,,4,,,50,,
54840,note_on,160,0,14,,,,,,,,13,,,,38,75
54840,note_on,40,0,7,,,,,,,,5,,,,62,92
54840,note_on,0,0,6,,,,,,,,4,,,,65,108
54920,note_off,80,0,10,,,,,,,,8,,,,74,64
54920,note_off,80,0,6,,,,,,,,4,,,,65,64
54920,note_off,80,0,5,,,,,,,,3,,,,74,64
54960,note_on,40,0,6,,,,,,,,4,,,,62,108
54960,note_on,40,0,5,,,,,,,,3,,,,62,108
54960,note_on,40,0,10,,,,,,,,8,,,,62,75
55040,note_off,80,0,6,,,,,,,,4,,,,62,64
55040,note_off,80,0,10,,,,,,,,8,,,,62,64
55040,note_off,80,0,5,,,,,,,,3,,,,62,64
55080,note_on,40,0,6,,,,,,,,4,,,,64,108
55080,note_on,40,0,10,,,,,,,,8,,,,64,75
55080,note_on,40,0,5,,,,,,,,3,,,,64,108
55160,note_off,80,0,10,,,,,,,,8,,,,64,64
55160,note_off,80,0,6,,,,,,,,4,,,,64,64
55160,note_off,80,0,5,,,,,,,,3,,,,64,64
55200,note_on,40,0,10,,,,,,,,8,,,,65,75
55200,note_on,40,0,6,,,,,,,,4,,,,65,108
55200,note_on,40,0,5,,,,,,,,3,,,,65,108
55240,note_off,400,0,7,,,,,,,,5,,,,62,64
55240,note_off,400,0,9,,,,,,,,7,,,,38,64
55240,note_off,400,0,13,,,,,,,,12,,,,50,64
55240,note_off,400,0,14,,,,,,,,13,,,,38,64
55240,note_off,400,0,8,,,,,,,,6,,,,50,64
55240,note_off,400,0,12,,,,,,,,11,,,,62,64
55240,note_off,400,0,11,,,,,,,,10,,,,65,64
55240,note_off,400,0,15,,,,,,,,14,,,,38,64
55280,note_off,80,0,5,,,,,,,,3,,,,65,64
55280,note_off,80,0,6,,,,,,,,4,,,,65,64
55280,note_off,80,0,10,,,,,,,,8,,,,65,64
55320,note_on,40,0,6,,,,,,,,4,,,,67,108
55320,note_on,40,0,10,,,,,,,,8,,,,67,75
55320,note_on,40,0,5,,,,,,,,3,,,,67,108
55400,note_off,80,0,10,,,,,,,,8,,,,67,64
55400,note_off,80,0,5,,,,,,,,3,,,,67,64
55400,note_off,80,0,6,,,,,,,,4,,,,67,64
55440,note_on,40,0,6,,,,,,,,4,,,,69,108
55440,note_on,40,0,5,,,,,,,,3,,,,69,108
55440,note_on,40,0,10,,,,,,,,8,,,,69,75
55520,note_off,80,0,10,,,,,,,,8,,,,69,64
55520,note_off,80,0,5,,,,,,,,3,,,,69,64
55520,note_off,80,0,6,,,,,,,,4,,,,69,64
55560,note_on,40,0,5,,,,,,,,3,,,,70,108
55560,note_on,40,0,6,,,,,,,,4,,,,70,108
55560,note_on,40,0,10,,,,,,,,8,,,,70,75
55640,note_off,80,0,5,,,,,,,,3,,,,70,64
55640,note_off,80,0,6,,,,,,,,4,,,,70,64
55640,note_off,80,0,10,,,,,,,,8,,,,70,64
55680,note_on,40,0,6,,,,,,,,4,,,,73,108
55680,note_on,40,0,5,,,,,,,,3,,,,73,108
55680,note_on,40,0,10,,,,,,,,8,,,,73,75
55760,note_off,80,0,10,,,,,,,,8,,,,73,64
55760,note_off,80,0,6,,,,,,,,4,,,,73,64
55760,note_off,80,0,5,,,,,,,,3,,,,73,64
55800,note_on,40,0,10,,,,,,,,8,,,,74,75
55800,note_on,40,0,5,,,,,,,,3,,,,74,108
55800,note_on,40,0,6,,,,,,,,4,,,,74,108
55880,note_off,80,0,10,,,,,,,,8,,,,74,64
55880,note_off,80,0,5,,,,,,,,3,,,,74,64
55880,note_off,80,0,6,,,,,,,,4,,,,74,64
55920,note_on,40,0,5,,,,,,,,3,,,,69,108
55920,note_on,40,0,6,,,,,,,,4,,,,69,108
55920,note_on,40,0,10,,,,,,,,8,,,,69,75
56000,note_off,80,0,10,,,,,,,,8,,,,69,64
56000,note_off,80,0,5,,,,,,,,3,,,,69,64
56000,note_off,80,0,6,,,,,,,,4,,,,69,64
56040,note_on,40,0,10,,,,,,,,8,,,,70,75
56040,note_on,40,0,5,,,,,,,,3,,,,70,108
56040,note_on,40,0,6,,,,,,,,4,,,,70,108
56120,note_off,80,0,10,,,,,,,,8,,,,70,64
56120,note_off,80,0,5,,,,,,,,3,,,,70,64
56120,note_off,80,0,6,,,,,,,,4,,,,70,64
56160,note_on,40,0,6,,,,,,,,4,,,,73,108
56160,note_on,40,0,5,,,,,,,,3,,,,73,108
56160,note_on,40,0,10,,,,,,,,8,,,,73,75
56240,note_off,80,0,10,,,,,,,,8,,,,73,64
56240,note_off,80,0,5,,,,,,,,3,,,,73,64
56240,note_off,80,0,6,,,,,,,,4,,,,73,64
56280,note_on,40,0,6,,,,,,,,4,,,,74,108
56280,note_on,40,0,5,,,,,,,,3,,,,74,108
56280,note_on,40,0,10,,,,,,,,8,,,,74,75
56360,note_off,80,0,6,,,,,,,,4,,,,74,64
56360,note_off,80,0,5,,,,,,,,3,,,,74,64
56360,note_off,80,0,10,,,,,,,,8,,,,74,64
56400,note_on,40,0,6,,,,,,,,4,,,,76,108
56400,note_on,40,0,5,,,,,,,,3,,,,76,108
56400,note_on,40,0,10,,,,,,,,8,,,,76,75
56480,note_off,80,0,6,,,,,,,,4,,,,76,64
56480,note_off,80,0,5,,,,,,,,3,,,,76,64
56480,note_off,80,0,10,,,,,,,,8,,,,76,64
56520,note_on,40,0,6,,,,,,,,4,,,,77,108
56520,note_on,40,0,5,,,,,,,,3,,,,77,108
56520,note_on,40,0,10,,,,,,,,8,,,,77,75
56600,note_off,80,0,10,,,,,,,,8,,,,77,64
56600,note_off,80,0,6,,,,,,,,4,,,,77,64
56600,note_off,80,0,5,,,,,,,,3,,,,77,64
56640,note_on,40,0,5,,,,,,,,3,,,,79,108
56640,note_on,40,0,10,,,,,,,,8,,,,79,75
56640,note_on,40,0,6,,,,,,,,4,,,,79,108
56720,note_off,80,0,5,,,,,,,,3,,,,79,64
56720,note_off,80,0,10,,,,,,,,8,,,,79,64
56720,note_off,80,0,6,,,,,,,,4,,,,79,64
56760,note_on,40,0,6,,,,,,,,4,,,,81,108
56760,note_on,40,0,10,,,,,,,,8,,,,81,75
56760,note_on,40,0,5,,,,,,,,3,,,,81,108
56840,note_off,80,0,6,,,,,,,,4,,,,81,64
56840,note_off,80,0,10,,,,,,,,8,,,,81,64
56840,note_off,80,0,5,,,,,,,,3,,,,81,64
56880,note_on,40,0,6,,,,,,,,4,,,,74,108
56880,note_on,40,0,5,,,,,,,,3,,,,74,108
56880,note_on,40,0,10,,,,,,,,8,,,,74,75
56960,note_off,80,0,10,,,,,,,,8,,,,74,64
56960,note_off,80,0,5,,,,,,,,3,,,,74,64
56960,note_off,80,0,6,,,,,,,,4,,,,74,64
57000,note_on,40,0,6,,,,,,,,4,,,,76,108
57000,note_on,40,0,10,,,,,,,,8,,,,76,75
57000,note_on,40,0,5,,,,,,,,3,,,,76,108
57080,note_off,80,0,10,,,,,,,,8,,,,76,64
57080,note_off,80,0,6,,,,,,,,4,,,,76,64
57080,note_off,80,0,5,,,,,,,,3,,,,76,64
57120,note_on,40,0,6,,,,,,,,4,,,,77,108
57120,note_on,40,0,5,,,,,,,,3,,,,77,108
57120,note_on,40,0,10,,,,,,,,8,,,,77,75
57200,note_off,80,0,6,,,,,,,,4,,,,77,64
57200,note_off,80,0,10,,,,,,,,8,,,,77,64
57200,note_off,80,0,5,,,,,,,,3,,,,77,64
57240,note_on,40,0,5,,,,,,,,3,,,,79,108
57240,note_on,40,0,6,,,,,,,,4,,,,79,108
57240,note_on,40,0,10,,,,,,,,8,,,,79,75
57320,note_off,80,0,5,,,,,,,,3,,,,79,64
57320,note_off,80,0,6,,,,,,,,4,,,,79,64
57320,note_off,80,0,10,,,,,,,,8,,,,79,64
57360,note_on,40,0,10,,,,,,,,8,,,,81,75
57360,note_on,40,0,5,,,,,,,,3,,,,81,108
57360,note_on,40,0,6,,,,,,,,4,,,,81,108
57440,note_off,80,0,6,,,,,,,,4,,,,81,64
57440,note_off,80,0,5,,,,,,,,3,,,,81,64
57440,note_off,80,0,10,,,,,,,,8,,,,81,64
57480,note_on,40,0,6,,,,,,,,4,,,,83,108
57480,note_on,40,0,10,,,,,,,,8,,,,83,75
57480,note_on,40,0,5,,,,,,,,3,,,,83,108
57560,note_off,80,0,6,,,,,,,,4,,,,83,64
57560,note_off,80,0,10,,,,,,,,8,,,,83,64
57560,note_off,80,0,5,,,,,,,,3,,,,83,64
57600,note_on,40,0,5,,,,,,,,3,,,,85,108
57600,note_on,40,0,6,,,,,,,,4,,,,85,108
57600,note_on,40,0,10,,,,,,,,8,,,,85,75
57680,note_off,80,0,5,,,,,,,,3,,,,85,64
57680,note_off,80,0,6,,,,,,,,4,,,,85,64
57680,note_off,80,0,10,,,,,,,,8,,,,85,64
57720,note_on,2480,0,8,,,,,,,,6,,,,50,75
57720,note_on,2480,0,14,,,,,,,,13,,,,38,75
57720,note_on,0,0,6,,,,,,,,4,,,,74,108
57720,program_change,40,0,6,,,,,,,,4,,,48,,
57720,note_on,40,0,10,,,,,,,,8,,,,86,75
57720,note_on,2480,0,7,,,,,,,,5,,,,65,92
57720,note_on,2480,0,9,,,,,,,,7,,,,38,75
57720,note_on,2480,0,12,,,,,,,,11,,,,65,75
57720,note_on,2480,0,15,,,,,,,,14,,,,38,75
57720,note_on,2480,0,11,,,,,,,,10,,,,74,75
57720,note_on,40,0,5,,,,,,,,3,,,,86,75
57720,note_on,2480,0,13,,,,,,,,12,,,,50,75
58120,note_off,400,0,12,,,,,,,,11,,,,65,64
58120,note_off,400,0,13,,,,,,,,12,,,,50,64
58120,note_off,400,0,15,,,,,,,,14,,,,38,64
58120,note_off,400,0,14,,,,,,,,13,,,,38,64
58120,note_off,400,0,11,,,,,,,,10,,,,74,64
58120,note_off,400,0,5,,,,,,,,3,,,,86,64
58120,note_off,400,0,8,,,,,,,,6,,,,50,64
58120,note_off,400,0,10,,,,,,,,8,,,,86,64
58120,note_off,400,0,6,,,,,,,,4,,,,74,64
58120,note_off,400,0,9,,,,,,,,7,,,,38,64
58120,note_off,400,0,7,,,,,,,,5,,,,65,64
58320,note_on,58320,0,3,,,,,,,,1,,,,81,75
58320,note_on,58320,0,4,,,,,,,,2,,,,81,60
58400,note_off,80,0,3,,,,,,,,1,,,,81,64
58400,note_off,80,0,4,,,,,,,,2,,,,81,64
58440,note_on,40,0,3,,,,,,,,1,,,,81,75
58440,note_on,40,0,4,,,,,,,,2,,,,81,60
58520,note_off,80,0,3,,,,,,,,1,,,,81,64
58520,note_off,80,0,4,,,,,,,,2,,,,81,64
58560,note_on,40,0,3,,,,,,,,1,,,,85,75
58560,note_on,40,0,4,,,,,,,,2,,,,85,60
58640,note_off,80,0,4,,,,,,,,2,,,,85,64
58640,note_off,80,0,3,,,,,,,,1,,,,85,64
58680,note_on,40,0,4,,,,,,,,2,,,,85,60
58680,note_on,40,0,3,,,,,,,,1,,,,85,75
58760,note_off,80,0,4,,,,,,,,2,,,,85,64
58760,note_off,80,0,3,,,,,,,,1,,,,85,64
58800,note_on,40,0,4,,,,,,,,2,,,,88,60
58800,note_on,40,0,3,,,,,,,,1,,,,88,75
58880,note_off,80,0,3,,,,,,,,1,,,,88,64
58880,note_off,80,0,4,,,,,,,,2,,,,88,64
58920,note_on,40,0,3,,,,,,,,1,,,,88,75
58920,note_on,40,0,4,,,,,,,,2,,,,88,60
59000,note_off,80,0,3,,,,,,,,1,,,,88,64
59000,note_off,80,0,4,,,,,,,,2,,,,88,64
59040,note_on,40,0,3,,,,,,,,1,,,,93,75
59040,note_on,40,0,4,,,,,,,,2,,,,93,60
59120,note_off,80,0,4,,,,,,,,2,,,,93,64
59120,note_off,80,0,3,,,,,,,,1,,,,93,64
59160,note_on,0,0,2,,,,,,,,0,,,,50,45
59160,note_on,40,0,4,,,,,,,,2,,,,93,60
59160,note_on,59160,0,2,,,,,,,,0,,,,38,45
59160,note_on,1040,0,12,,,,,,,,11,,,,50,45
59160,note_on,1040,0,7,,,,,,,,5,,,,50,60
59160,note_on,40,0,3,,,,,,,,1,,,,93,75
59160,note_on,1040,0,5,,,,,,,,3,,,,62,60
59160,note_on,1040,0,10,,,,,,,,8,,,,62,45
59240,note_off,80,0,3,,,,,,,,1,,,,93,64
59240,note_off,80,0,4,,,,,,,,2,,,,93,64
59280,note_on,40,0,4,,,,,,,,2,,,,84,60
59280,note_on,40,0,3,,,,,,,,1,,,,84,75
59360,note_off,80,0,3,,,,,,,,1,,,,84,64
59360,note_off,80,0,4,,,,,,,,2,,,,84,64
59400,note_on,40,0,3,,,,,,,,1,,,,62,75
59400,note_on,40,0,4,,,,,,,,2,,,,62,60
59480,note_off,80,0,4,,,,,,,,2,,,,62,64
59480,note_off,80,0,3,,,,,,,,1,,,,62,64
59520,note_on,40,0,3,,,,,,,,1,,,,84,75
59520,note_on,40,0,4,,,,,,,,2,,,,84,60
59560,note_off,0,0,2,,,,,,,,0,,,,38,64
59560,note_off,400,0,2,,,,,,,,0,,,,50,64
59560,note_off,400,0,10,,,,,,,,8,,,,62,64
59560,note_off,400,0,5,,,,,,,,3,,,,62,64
59560,note_off,400,0,12,,,,,,,,11,,,,50,64
59560,note_off,400,0,7,,,,,,,,5,,,,50,64
59600,note_off,80,0,4,,,,,,,,2,,,,84,64
59600,note_off,80,0,3,,,,,,,,1,,,,84,64
59640,note_on,80,0,10,,,,,,,,8,,,,62,45
59640,note_on,80,0,2,,,,,,,,0,,,,38,45
59640,note_on,40,0,4,,,,,,,,2,,,,91,60
59640,note_on,80,0,5,,,,,,,,3,,,,62,60
59640,note_on,0,0,2,,,,,,,,0,,,,50,45
59640,note_on,40,0,3,,,,,,,,1,,,,91,75
59640,note_on,80,0,7,,,,,,,,5,,,,50,60
59640,note_on,80,0,12,,,,,,,,11,,,,50,45
59720,note_off,80,0,4,,,,,,,,2,,,,91,64
59720,note_off,80,0,3,,,,,,,,1,,,,91,64
59760,note_on,40,0,3,,,,,,,,1,,,,84,75
59760,note_on,40,0,4,,,,,,,,2,,,,84,60
59840,note_off,80,0,3,,,,,,,,1,,,,84,64
59840,note_off,80,0,4,,,,,,,,2,,,,84,64
59880,note_on,40,0,4,,,,,,,,2,,,,62,60
59880,note_on,40,0,3,,,,,,,,1,,,,62,75
59960,note_off,80,0,4,,,,,,,,2,,,,62,64
59960,note_off,80,0,3,,,,,,,,1,,,,62,64
60000,note_on,40,0,4,,,,,,,,2,,,,84,60
60000,note_on,40,0,3,,,,,,,,1,,,,84,75
60040,note_off,400,0,10,,,,,,,,8,,,,62,64
60040,note_off,400,0,7,,,,,,,,5,,,,50,64
60040,note_off,400,0,5,,,,,,,,3,,,,62,64
60040,note_off,0,0,2,,,,,,,,0,,,,38,64
60040,note_off,400,0,12,,,,,,,,11,,,,50,64
60040,note_off,400,0,2,,,,,,,,0,,,,50,64
60080,note_off,80,0,3,,,,,,,,1,,,,84,64
60080,note_off,80,0,4,,,,,,,,2,,,,84,64
60120,note_on,40,0,3,,,,,,,,1,,,,89,75
60120,note_on,80,0,2,,,,,,,,0,,,,38,45
60120,note_on,80,0,12,,,,,,,,11,,,,50,45
60120,note_on,40,0,4,,,,,,,,2,,,,89,60
60120,note_on,80,0,10,,,,,,,,8,,,,62,45
60120,note_on,80,0,7,,,,,,,,5,,,,50,60
60120,note_on,80,0,5,,,,,,,,3,,,,62,60
60120,note_on,0,0,2,,,,,,,,0,,,,50,45
60200,note_off,80,0,3,,,,,,,,1,,,,89,64
60200,note_off,80,0,4,,,,,,,,2,,,,89,64
60240,note_on,40,0,3,,,,,,,,1,,,,84,75
60240,note_on,40,0,4,,,,,,,,2,,,,84,60
60320,note_off,80,0,3,,,,,,,,1,,,,84,64
60320,note_off,80,0,4,,,,,,,,2,,,,84,64
60360,note_on,40,0,3,,,,,,,,1,,,,62,75
60360,note_on,40,0,4,,,,,,,,2,,,,62,60
60440,note_off,80,0,3,,,,,,,,1,,,,62,64
60440,note_off,80,0,4,,,,,,,,2,,,,62,64
60480,note_on,40,0,3,,,,,,,,1,,,,84,75
60480,note_on,40,0,4,,,,,,,,2,,,,84,60
60520,note_off,0,0,2,,,,,,,,0,,,,38,64
60520,note_off,400,0,7,,,,,,,,5,,,,50,64
60520,note_off,400,0,12,,,,,,,,11,,,,50,64
60520,note_off,400,0,2,,,,,,,,0,,,,50,64
60520,note_off,400,0,10,,,,,,,,8,,,,62,64
60520,note_off,400,0,5,,,,,,,,3,,,,62,64
60560,note_off,80,0,3,,,,,,,,1,,,,84,64
60560,note_off,80,0,4,,,,,,,,2,,,,84,64
60600,note_on,80,0,2,,,,,,,,0,,,,38,45
60600,note_on,80,0,7,,,,,,,,5,,,,50,60
60600,note_on,40,0,4,,,,,,,,2,,,,88,60
60600,note_on,80,0,12,,,,,,,,11,,,,50,45
60600,note_on,80,0,10,,,,,,,,8,,,,62,45
60600,note_on,40,0,3,,,,,,,,1,,,,88,75
60600,note_on,80,0,5,,,,,,,,3,,,,62,60
60600,note_on,0,0,2,,,,,,,,0,,,,50,45
60680,note_off,80,0,3,,,,,,,,1,,,,88,64
60680,note_off,80,0,4,,,,,,,,2,,,,88,64
60720,note_on,40,0,3,,,,,,,,1,,,,84,75
60720,note_on,40,0,4,,,,,,,,2,,,,84,60
60800,note_off,80,0,3,,,,,,,,1,,,,84,64
60800,note_off,80,0,4,,,,,,,,2,,,,84,64
60840,note_on,40,0,3,,,,,,,,1,,,,62,75
60840,note_on,40,0,4,,,,,,,,2,,,,62,60
60920,note_off,80,0,4,,,,,,,,2,,,,62,64
60920,note_off,80,0,3,,,,,,,,1,,,,62,64
60960,note_on,40,0,3,,,,,,,,1,,,,84,75
60960,note_on,40,0,4,,,,,,,,2,,,,84,60
61000,note_off,0,0,2,,,,,,,,0,,,,38,64
61000,note_off,400,0,2,,,,,,,,0,,,,50,64
61000,note_off,400,0,10,,,,,,,,8,,,,62,64
61000,note_off,400,0,7,,,,,,,,5,,,,50,64
61000,note_off,400,0,12,,,,,,,,11,,,,50,64
61000,note_off,400,0,5,,,,,,,,3,,,,62,64
61040,note_off,80,0,3,,,,,,,,1,,,,84,64
61040,note_off,80,0,4,,,,,,,,2,,,,84,64
61080,note_on,80,0,7,,,,,,,,5,,,,50,60
61080,note_on,80,0,2,,,,,,,,0,,,,38,45
61080,note_on,0,0,2,,,,,,,,0,,,,50,45
61080,note_on,80,0,5,,,,,,,,3,,,,62,60
61080,note_on,80,0,12,,,,,,,,11,,,,50,45
61080,note_on,40,0,4,,,,,,,,2,,,,89,60
61080,note_on,40,0,3,,,,,,,,1,,,,89,75
61080,note_on,80,0,10,,,,,,,,8,,,,62,45
61160,note_off,80,0,3,,,,,,,,1,,,,89,64
61160,note_off,80,0,4,,,,,,,,2,,,,89,64
61200,note_on,40,0,4,,,,,,,,2,,,,84,60
61200,note_on,40,0,3,,,,,,,,1,,,,84,75
61280,note_off,80,0,4,,,,,,,,2,,,,84,64
61280,note_off,80,0,3,,,,,,,,1,,,,84,64
61320,note_on,40,0,3,,,,,,,,1,,,,62,75
61320,note_on,40,0,4,,,,,,,,2,,,,62,60
61400,note_off,80,0,4,,,,,,,,2,,,,62,64
61400,note_off,80,0,3,,,,,,,,1,,,,62,64
61440,note_on,40,0,3,,,,,,,,1,,,,84,75
61440,note_on,40,0,4,,,,,,,,2,,,,84,60
61480,note_off,400,0,5,,,,,,,,3,,,,62,64
61480,note_off,0,0,2,,,,,,,,0,,,,38,64
61480,note_off,400,0,10,,,,,,,,8,,,,62,64
61480,note_off,400,0,2,,,,,,,,0,,,,50,64
61480,note_off,400,0,12,,,,,,,,11,,,,50,64
61480,note_off,400,0,7,,,,,,,,5,,,,50,64
61520,note_off,80,0,3,,,,,,,,1,,,,84,64
61520,note_off,80,0,4,,,,,,,,2,,,,84,64
61560,note_on,0,0,2,,,,,,,,0,,,,50,45
61560,note_on,40,0,3,,,,,,,,1,,,,91,75
61560,note_on,80,0,12,,,,,,,,11,,,,50,45
61560,note_on,80,0,5,,,,,,,,3,,,,62,60
61560,note_on,80,0,10,,,,,,,,8,,,,62,45
61560,note_on,80,0,2,,,,,,,,0,,,,38,45
61560,note_on,40,0,4,,,,,,,,2,,,,91,60
61560,note_on,80,0,7,,,,,,,,5,,,,50,60
61640,note_off,80,0,3,,,,,,,,1,,,,91,64
61640,note_off,80,0,4,,,,,,,,2,,,,91,64
61680,note_on,40,0,3,,,,,,,,1,,,,84,75
61680,note_on,40,0,4,,,,,,,,2,,,,84,60
61760,note_off,80,0,3,,,,,,,,1,,,,84,64
61760,note_off,80,0,4,,,,,,,,2,,,,84,64
61800,note_on,40,0,3,,,,,,,,1,,,,62,75
61800,note_on,40,0,4,,,,,,,,2,,,,62,60
61880,note_off,80,0,3,,,,,,,,1,,,,62,64
61880,note_off,80,0,4,,,,,,,,2,,,,62,64
61920,note_on,40,0,3,,,,,,,,1,,,,84,75
61920,note_on,40,0,4,,,,,,,,2,,,,84,60
61960,note_off,400,0,5,,,,,,,,3,,,,62,64
61960,note_off,400,0,10,,,,,,,,8,,,,62,64
61960,note_off,400,0,12,,,,,,,,11,,,,50,64
61960,note_off,400,0,7,,,,,,,,5,,,,50,64
61960,note_off,0,0,2,,,,,,,,0,,,,38,64
61960,note_off,400,0,2,,,,,,,,0,,,,50,64
62000,note_off,80,0,4,,,,,,,,2,,,,84,64
62000,note_off,80,0,3,,,,,,,,1,,,,84,64
62040,note_on,80,0,2,,,,,,,,0,,,,38,45
62040,note_on,80,0,10,,,,,,,,8,,,,62,45
62040,note_on,0,0,2,,,,,,,,0,,,,50,45
62040,note_on,80,0,5,,,,,,,,3,,,,62,60
62040,note_on,40,0,4,,,,,,,,2,,,,93,60
62040,note_on,40,0,3,,,,,,,,1,,,,93,75
62040,note_on,80,0,12,,,,,,,,11,,,,50,45
62040,note_on,80,0,7,,,,,,,,5,,,,50,60
62120,note_off,80,0,3,,,,,,,,1,,,,93,64
62120,note_off,80,0,4,,,,,,,,2,,,,93,64
62160,note_on,40,0,3,,,,,,,,1,,,,84,75
62160,note_on,40,0,4,,,,,,,,2,,,,84,60
62240,note_off,80,0,4,,,,,,,,2,,,,84,64
62240,note_off,80,0,3,,,,,,,,1,,,,84,64
62280,note_on,40,0,3,,,,,,,,1,,,,62,75
62280,note_on,40,0,4,,,,,,,,2,,,,62,60
62360,note_off,80,0,4,,,,,,,,2,,,,62,64
62360,note_off,80,0,3,,,,,,,,1,,,,62,64
62400,note_on,40,0,4,,,,,,,,2,,,,84,60
62400,note_on,40,0,3,,,,,,,,1,,,,84,75
62440,note_off,400,0,12,,,,,,,,11,,,,50,64
62440,note_off,400,0,5,,,,,,,,3,,,,62,64
62440,note_off,0,0,2,,,,,,,,0,,,,38,64
62440,note_off,400,0,2,,,,,,,,0,,,,50,64
62440,note_off,400,0,10,,,,,,,,8,,,,62,64
62440,note_off,400,0,7,,,,,,,,5,,,,50,64
62480,note_off,80,0,3,,,,,,,,1,,,,84,64
62480,note_off,80,0,4,,,,,,,,2,,,,84,64
62520,note_on,40,0,3,,,,,,,,1,,,,91,75
62520,note_on,80,0,5,,,,,,,,3,,,,62,60
62520,note_on,0,0,2,,,,,,,,0,,,,50,45
62520,note_on,80,0,7,,,,,,,,5,,,,50,60
62520,note_on,80,0,12,,,,,,,,11,,,,50,45
62520,note_on,80,0,2,,,,,,,,0,,,,38,45
62520,note_on,40,0,4,,,,,,,,2,,,,91,60
62600,note_off,80,0,3,,,,,,,,1,,,,91,64
62600,note_off,80,0,4,,,,,,,,2,,,,91,64
62640,note_on,40,0,3,,,,,,,,1,,,,84,75
62640,note_on,40,0,4,,,,,,,,2,,,,84,60
62720,note_off,80,0,4,,,,,,,,2,,,,84,64
62720,note_off,80,0,3,,,,,,,,1,,,,84,64
62760,note_on,40,0,4,,,,,,,,2,,,,62,60
62760,note_on,40,0,3,,,,,,,,1,,,,62,75
62840,note_off,80,0,4,,,,,,,,2,,,,62,64
62840,note_off,80,0,3,,,,,,,,1,,,,62,64
62880,note_on,40,0,4,,,,,,,,2,,,,84,60
62880,note_on,40,0,3,,,,,,,,1,,,,84,75
62920,note_off,400,0,5,,,,,,,,3,,,,62,64
62920,note_off,400,0,12,,,,,,,,11,,,,50,64
62920,note_off,400,0,7,,,,,,,,5,,,,50,64
62920,note_off,400,0,2,,,,,,,,0,,,,50,64
62920,note_off,0,0,2,,,,,,,,0,,,,38,64
62960,note_off,80,0,3,,,,,,,,1,,,,84,64
62960,note_off,80,0,4,,,,,,,,2,,,,84,64
63000,note_on,40,0,3,,,,,,,,1,,,,89,75
63000,note_on,80,0,5,,,,,,,,3,,,,62,60
63000,note_on,80,0,7,,,,,,,,5,,,,50,60
63000,note_on,80,0,12,,,,,,,,11,,,,50,45
63000,note_on,0,0,2,,,,,,,,0,,,,50,45
63000,note_on,80,0,2,,,,,,,,0,,,,38,45
63000,note_on,40,0,4,,,,,,,,2,,,,89,60
63080,note_off,80,0,4,,,,,,,,2,,,,89,64
63080,note_off,80,0,3,,,,,,,,1,,,,89,64
63120,note_on,40,0,4,,,,,,,,2,,,,84,60
63120,note_on,40,0,3,,,,,,,,1,,,,84,75
63200,note_off,80,0,4,,,,,,,,2,,,,84,64
63200,note_off,80,0,3,,,,,,,,1,,,,84,64
63240,note_on,40,0,3,,,,,,,,1,,,,62,75
63240,note_on,40,0,4,,,,,,,,2,,,,62,60
63320,note_off,80,0,3,,,,,,,,1,,,,62,64
63320,note_off,80,0,4,,,,,,,,2,,,,62,64
63360,note_on,40,0,3,,,,,,,,1,,,,84,75
63360,note_on,40,0,4,,,,,,,,2,,,,84,60
63400,note_off,400,0,2,,,,,,,,0,,,,50,64
63400,note_off,0,0,2,,,,,,,,0,,,,38,64
63400,note_off,400,0,12,,,,,,,,11,,,,50,64
63400,note_off,400,0,7,,,,,,,,5,,,,50,64
63400,note_off,400,0,5,,,,,,,,3,,,,62,64
63440,note_off,80,0,3,,,,,,,,1,,,,84,64
63440,note_off,80,0,4,,,,,,,,2,,,,84,64
63480,note_on,0,0,4,,,,,,,,2,,,,81,60
63480,note_on,40,0,4,,,,,,,,2,,,,62,60
63480,note_on,0,0,4,,,,,,,,2,,,,88,60
63480,note_on,0,0,3,,,,,,,,1,,,,81,75
63480,note_on,80,0,5,,,,,,,,3,,,,62,60
63480,note_on,80,0,12,,,,,,,,11,,,,50,45
63480,note_on,0,0,2,,,,,,,,0,,,,50,45
63480,note_on,80,0,2,,,,,,,,0,,,,38,45
63480,note_on,80,0,7,,,,,,,,5,,,,50,60
63480,note_on,0,0,3,,,,,,,,1,,,,88,75
63480,note_on,40,0,3,,,,,,,,1,,,,62,75
63480,note_on,1040,0,10,,,,,,,,8,,,,62,45
63880,note_off,400,0,7,,,,,,,,5,,,,50,64
63880,note_off,0,0,2,,,,,,,,0,,,,38,64
63880,note_off,400,0,4,,,,,,,,2,,,,88,64
63880,note_off,0,0,4,,,,,,,,2,,,,81,64
63880,note_off,0,0,4,,,,,,,,2,,,,62,64
63880,note_off,400,0,2,,,,,,,,0,,,,50,64
63880,note_off,400,0,5,,,,,,,,3,,,,62,64
63880,note_off,0,0,3,,,,,,,,1,,,,62,64
63880,note_off,0,0,3,,,,,,,,1,,,,81,64
63880,note_off,400,0,3,,,,,,,,1,,,,88,64
63880,note_off,400,0,10,,,,,,,,8,,,,62,64
63880,note_off,400,0,12,,,,,,,,11,,,,50,64
64320,note_on,440,0,4,,,,,,,,2,,,,74,60
64320,note_on,440,0,3,,,,,,,,1,,,,74,75
64400,note_off,80,0,4,,,,,,,,2,,,,74,64
64400,note_off,80,0,3,,,,,,,,1,,,,74,64
64440,note_on,40,0,4,,,,,,,,2,,,,74,60
64440,note_on,40,0,3,,,,,,,,1,,,,74,75
64520,note_off,80,0,4,,,,,,,,2,,,,74,64
64520,note_off,80,0,3,,,,,,,,1,,,,74,64
64560,note_on,40,0,3,,,,,,,,1,,,,77,75
64560,note_on,40,0,4,,,,,,,,2,,,,77,60
64640,note_off,80,0,4,,,,,,,,2,,,,77,64
64640,note_off,80,0,3,,,,,,,,1,,,,77,64
64680,note_on,40,0,3,,,,,,,,1,,,,77,75
64680,note_on,40,0,4,,,,,,,,2,,,,77,60
64760,note_off,80,0,4,,,,,,,,2,,,,77,64
64760,note_off,80,0,3,,,,,,,,1,,,,77,64
64800,note_on,40,0,3,,,,,,,,1,,,,81,75
64800,note_on,40,0,4,,,,,,,,2,,,,81,60
64880,note_off,80,0,3,,,,,,,,1,,,,81,64
64880,note_off,80,0,4,,,,,,,,2,,,,81,64
64920,note_on,40,0,3,,,,,,,,1,,,,81,75
64920,note_on,40,0,4,,,,,,,,2,,,,81,60
65000,note_off,80,0,4,,,,,,,,2,,,,81,64
65000,note_off,80,0,3,,,,,,,,1,,,,81,64
65040,note_on,40,0,3,,,,,,,,1,,,,86,75
65040,note_on,40,0,4,,,,,,,,2,,,,86,60
65120,note_off,80,0,4,,,,,,,,2,,,,86,64
65120,note_off,80,0,3,,,,,,,,1,,,,86,64
65160,note_on,40,0,4,,,,,,,,2,,,,86,60
65160,note_on,0,0,2,,,,,,,,0,,,,51,45
65160,note_on,1280,0,2,,,,,,,,0,,,,39,45
65160,note_on,1280,0,10,,,,,,,,8,,,,62,45
65160,note_on,40,0,3,,,,,,,,1,,,,86,75
65160,note_on,1280,0,5,,,,,,,,3,,,,62,60
65160,note_on,1280,0,12,,,,,,,,11,,,,50,45
65240,note_off,80,0,4,,,,,,,,2,,,,86,64
65240,note_off,80,0,3,,,,,,,,1,,,,86,64
65280,note_on,40,0,3,,,,,,,,1,,,,74,75
65280,note_on,40,0,4,,,,,,,,2,,,,74,60
65360,note_off,80,0,4,,,,,,,,2,,,,74,64
65360,note_off,80,0,3,,,,,,,,1,,,,74,64
65400,note_on,40,0,4,,,,,,,,2,,,,62,60
65400,note_on,40,0,3,,,,,,,,1,,,,62,75
65480,note_off,80,0,4,,,,,,,,2,,,,62,64
65480,note_off,80,0,3,,,,,,,,1,,,,62,64
65520,note_on,40,0,4,,,,,,,,2,,,,74,60
65520,note_on,40,0,3,,,,,,,,1,,,,74,75
65560,note_off,400,0,10,,,,,,,,8,,,,62,64
65560,note_off,400,0,2,,,,,,,,0,,,,51,64
65560,note_off,0,0,2,,,,,,,,0,,,,39,64
65560,note_off,400,0,5,,,,,,,,3,,,,62,64
65560,note_off,400,0,12,,,,,,,,11,,,,50,64
65600,note_off,80,0,4,,,,,,,,2,,,,74,64
65600,note_off,80,0,3,,,,,,,,1,,,,74,64
65640,note_on,80,0,5,,,,,,,,3,,,,62,60
65640,note_on,0,0,2,,,,,,,,0,,,,51,45
65640,note_on,80,0,10,,,,,,,,8,,,,62,45
65640,note_on,40,0,4,,,,,,,,2,,,,84,60
65640,note_on,80,0,12,,,,,,,,11,,,,50,45
65640,note_on,40,0,3,,,,,,,,1,,,,84,75
65640,note_on,80,0,2,,,,,,,,0,,,,39,45
65720,note_off,80,0,4,,,,,,,,2,,,,84,64
65720,note_off,80,0,3,,,,,,,,1,,,,84,64
65760,note_on,40,0,4,,,,,,,,2,,,,74,60
65760,note_on,40,0,3,,,,,,,,1,,,,74,75
65840,note_off,80,0,4,,,,,,,,2,,,,74,64
65840,note_off,80,0,3,,,,,,,,1,,,,74,64
65880,note_on,40,0,4,,,,,,,,2,,,,62,60
65880,note_on,40,0,3,,,,,,,,1,,,,62,75
65960,note_off,80,0,4,,,,,,,,2,,,,62,64
65960,note_off,80,0,3,,,,,,,,1,,,,62,64
66000,note_on,40,0,3,,,,,,,,1,,,,74,75
66000,note_on,40,0,4,,,,,,,,2,,,,74,60
66040,note_off,400,0,2,,,,,,,,0,,,,51,64
66040,note_off,400,0,5,,,,,,,,3,,,,62,64
66040,note_off,0,0,2,,,,,,,,0,,,,39,64
66040,note_off,400,0,12,,,,,,,,11,,,,50,64
66040,note_off,400,0,10,,,,,,,,8,,,,62,64
66080,note_off,80,0,4,,,,,,,,2,,,,74,64
66080,note_off,80,0,3,,,,,,,,1,,,,74,64
66120,note_on,0,0,2,,,,,,,,0,,,,51,45
66120,note_on,40,0,4,,,,,,,,2,,,,82,60
66120,note_on,80,0,5,,,,,,,,3,,,,62,60
66120,note_on,80,0,12,,,,,,,,11,,,,50,45
66120,note_on,40,0,3,,,,,,,,1,,,,82,75
66120,note_on,80,0,10,,,,,,,,8,,,,62,45
66120,note_on,80,0,2,,,,,,,,0,,,,39,45
66200,note_off,80,0,3,,,,,,,,1,,,,82,64
66200,note_off,80,0,4,,,,,,,,2,,,,82,64
66240,note_on,40,0,4,,,,,,,,2,,,,74,60
66240,note_on,40,0,3,,,,,,,,1,,,,74,75
66320,note_off,80,0,4,,,,,,,,2,,,,74,64
66320,note_off,80,0,3,,,,,,,,1,,,,74,64
66360,note_on,40,0,3,,,,,,,,1,,,,62,75
66360,note_on,40,0,4,,,,,,,,2,,,,62,60
66440,note_off,80,0,3,,,,,,,,1,,,,62,64
66440,note_off,80,0,4,,,,,,,,2,,,,62,64
66480,note_on,40,0,4,,,,,,,,2,,,,74,60
66480,note_on,40,0,3,,,,,,,,1,,,,74,75
66520,note_off,400,0,5,,,,,,,,3,,,,62,64
66520,note_off,400,0,12,,,,,,,,11,,,,50,64
66520,note_off,400,0,2,,,,,,,,0,,,,51,64
66520,note_off,0,0,2,,,,,,,,0,,,,39,64
66520,note_off,400,0,10,,,,,,,,8,,,,62,64
66560,note_off,80,0,4,,,,,,,,2,,,,74,64
66560,note_off,80,0,3,,,,,,,,1,,,,74,64
66600,note_on,80,0,12,,,,,,,,11,,,,50,45
66600,note_on,0,0,2,,,,,,,,0,,,,51,45
66600,note_on,40,0,3,,,,,,,,1,,,,81,75
66600,note_on,80,0,5,,,,,,,,3,,,,62,60
66600,note_on,80,0,2,,,,,,,,0,,,,39,45
66600,note_on,40,0,4,,,,,,,,2,,,,81,60
66600,note_on,80,0,10,,,,,,,,8,,,,62,45
66680,note_off,80,0,3,,,,,,,,1,,,,81,64
66680,note_off,80,0,4,,,,,,,,2,,,,81,64
66720,note_on,40,0,4,,,,,,,,2,,,,74,60
66720,note_on,40,0,3,,,,,,,,1,,,,74,75
66800,note_off,80,0,4,,,,,,,,2,,,,74,64
66800,note_off,80,0,3,,,,,,,,1,,,,74,64
66840,note_on,40,0,4,,,,,,,,2,,,,62,60
66840,note_on,40,0,3,,,,,,,,1,,,,62,75
66920,note_off,80,0,3,,,,,,,,1,,,,62,64
66920,note_off,80,0,4,,,,,,,,2,,,,62,64
66960,note_on,40,0,3,,,,,,,,1,,,,74,75
66960,note_on,40,0,4,,,,,,,,2,,,,74,60
67000,note_off,400,0,2,,,,,,,,0,,,,51,64
67000,note_off,400,0,12,,,,,,,,11,,,,50,64
67000,note_off,0,0,2,,,,,,,,0,,,,39,64
67000,note_off,400,0,10,,,,,,,,8,,,,62,64
67000,note_off,400,0,5,,,,,,,,3,,,,62,64
67040,note_off,80,0,4,,,,,,,,2,,,,74,64
67040,note_off,80,0,3,,,,,,,,1,,,,74,64
67080,note_on,80,0,2,,,,,,,,0,,,,39,45
67080,note_on,0,0,2,,,,,,,,0,,,,51,45
67080,note_on,40,0,4,,,,,,,,2,,,,82,60
67080,note_on,80,0,10,,,,,,,,8,,,,62,45
67080,note_on,80,0,12,,,,,,,,11,,,,50,45
67080,note_on,40,0,3,,,,,,,,1,,,,82,75
67080,note_on,80,0,5,,,,,,,,3,,,,62,60
67160,note_off,80,0,3,,,,,,,,1,,,,82,64
67160,note_off,80,0,4,,,,,,,,2,,,,82,64
67200,note_on,40,0,4,,,,,,,,2,,,,74,60
67200,note_on,40,0,3,,,,,,,,1,,,,74,75
67280,note_off,80,0,4,,,,,,,,2,,,,74,64
67280,note_off,80,0,3,,,,,,,,1,,,,74,64
67320,note_on,40,0,4,,,,,,,,2,,,,62,60
67320,note_on,40,0,3,,,,,,,,1,,,,62,75
67400,note_off,80,0,4,,,,,,,,2,,,,62,64
67400,note_off,80,0,3,,,,,,,,1,,,,62,64
67440,note_on,40,0,4,,,,,,,,2,,,,74,60
67440,note_on,40,0,3,,,,,,,,1,,,,74,75
67480,note_off,400,0,12,,,,,,,,11,,,,50,64
67480,note_off,400,0,10,,,,,,,,8,,,,62,64
67480,note_off,400,0,5,,,,,,,,3,,,,62,64
67480,note_off,0,0,2,,,,,,,,0,,,,39,64
67480,note_off,400,0,2,,,,,,,,0,,,,51,64
67520,note_off,80,0,4,,,,,,,,2,,,,74,64
67520,note_off,80,0,3,,,,,,,,1,,,,74,64
67560,note_on,40,0,4,,,,,,,,2,,,,85,60
67560,note_on,80,0,10,,,,,,,,8,,,,62,45
67560,note_on,0,0,2,,,,,,,,0,,,,51,45
67560,note_on,80,0,2,,,,,,,,0,,,,39,45
67560,note_on,80,0,12,,,,,,,,11,,,,50,45
67560,note_on,80,0,5,,,,,,,,3,,,,62,60
67560,note_on,40,0,3,,,,,,,,1,,,,85,75
67640,note_off,80,0,3,,,,,,,,1,,,,85,64
67640,note_off,80,0,4,,,,,,,,2,,,,85,64
67680,note_on,40,0,3,,,,,,,,1,,,,74,75
67680,note_on,40,0,4,,,,,,,,2,,,,74,60
67760,note_off,80,0,4,,,,,,,,2,,,,74,64
67760,note_off,80,0,3,,,,,,,,1,,,,74,64
67800,note_on,40,0,4,,,,,,,,2,,,,62,60
67800,note_on,40,0,3,,,,,,,,1,,,,62,75
67880,note_off,80,0,3,,,,,,,,1,,,,62,64
67880,note_off,80,0,4,,,,,,,,2,,,,62,64
67920,note_on,40,0,4,,,,,,,,2,,,,74,60
67920,note_on,40,0,3,,,,,,,,1,,,,74,75
67960,note_off,400,0,12,,,,,,,,11,,,,50,64
67960,note_off,400,0,10,,,,,,,,8,,,,62,64
67960,note_off,400,0,5,,,,,,,,3,,,,62,64
67960,note_off,0,0,2,,,,,,,,0,,,,39,64
67960,note_off,400,0,2,,,,,,,,0,,,,51,64
68000,note_off,80,0,4,,,,,,,,2,,,,74,64
68000,note_off,80,0,3,,,,,,,,1,,,,74,64
68040,note_on,0,0,2,,,,,,,,0,,,,51,45
68040,note_on,80,0,12,,,,,,,,11,,,,50,45
68040,note_on,80,0,10,,,,,,,,8,,,,62,45
68040,note_on,40,0,4,,,,,,,,2,,,,86,60
68040,note_on,80,0,2,,,,,,,,0,,,,39,45
68040,note_on,40,0,3,,,,,,,,1,,,,86,75
68040,note_on,80,0,5,,,,,,,,3,,,,62,60
68120,note_off,80,0,4,,,,,,,,2,,,,86,64
68120,note_off,80,0,3,,,,,,,,1,,,,86,64
68160,note_on,40,0,4,,,,,,,,2,,,,74,60
68160,note_on,40,0,3,,,,,,,,1,,,,74,75
68240,note_off,80,0,4,,,,,,,,2,,,,74,64
68240,note_off,80,0,3,,,,,,,,1,,,,74,64
68280,note_on,40,0,3,,,,,,,,1,,,,62,75
68280,note_on,40,0,4,,,,,,,,2,,,,62,60
68360,note_off,80,0,4,,,,,,,,2,,,,62,64
68360,note_off,80,0,3,,,,,,,,1,,,,62,64
68400,note_on,40,0,4,,,,,,,,2,,,,74,60
68400,note_on,40,0,3,,,,,,,,1,,,,74,75
68440,note_off,400,0,12,,,,,,,,11,,,,50,64
68440,note_off,400,0,5,,,,,,,,3,,,,62,64
68440,note_off,400,0,2,,,,,,,,0,,,,51,64
68440,note_off,400,0,10,,,,,,,,8,,,,62,64
68440,note_off,0,0,2,,,,,,,,0,,,,39,64
68480,note_off,80,0,4,,,,,,,,2,,,,74,64
68480,note_off,80,0,3,,,,,,,,1,,,,74,64
68520,note_on,80,0,5,,,,,,,,3,,,,62,60
68520,note_on,40,0,3,,,,,,,,1,,,,84,75
68520,note_on,80,0,2,,,,,,,,0,,,,39,45
68520,note_on,40,0,4,,,,,,,,2,,,,84,60
68520,note_on,80,0,12,,,,,,,,11,,,,50,45
68520,note_on,0,0,2,,,,,,,,0,,,,51,45
68520,note_on,80,0,10,,,,,,,,8,,,,62,45
68600,note_off,80,0,3,,,,,,,,1,,,,84,64
68600,note_off,80,0,4,,,,,,,,2,,,,84,64
68640,note_on,40,0,4,,,,,,,,2,,,,74,60
68640,note_on,40,0,3,,,,,,,,1,,,,74,75
68720,note_off,80,0,4,,,,,,,,2,,,,74,64
68720,note_off,80,0,3,,,,,,,,1,,,,74,64
68760,note_on,40,0,4,,,,,,,,2,,,,62,60
68760,note_on,40,0,3,,,,,,,,1,,,,62,75
68840,note_off,80,0,3,,,,,,,,1,,,,62,64
68840,note_off,80,0,4,,,,,,,,2,,,,62,64
68880,note_on,40,0,4,,,,,,,,2,,,,74,60
68880,note_on,40,0,3,,,,,,,,1,,,,74,75
68920,note_off,400,0,5,,,,,,,,3,,,,62,64
68920,note_off,400,0,12,,,,,,,,11,,,,50,64
68920,note_off,0,0,2,,,,,,,,0,,,,39,64
68920,note_off,400,0,10,,,,,,,,8,,,,62,64
68920,note_off,400,0,2,,,,,,,,0,,,,51,64
68960,note_off,80,0,4,,,,,,,,2,,,,74,64
68960,note_off,80,0,3,,,,,,,,1,,,,74,64
69000,note_on,0,0,2,,,,,,,,0,,,,51,45
69000,note_on,40,0,4,,,,,,,,2,,,,82,60
69000,note_on,80,0,12,,,,,,,,11,,,,50,45
69000,note_on,40,0,3,,,,,,,,1,,,,82,75
69000,note_on,80,0,2,,,,,,,,0,,,,39,45
69000,note_on,80,0,10,,,,,,,,8,,,,62,45
69000,note_on,80,0,5,,,,,,,,3,,,,62,60
69080,note_off,80,0,4,,,,,,,,2,,,,82,64
69080,note_off,80,0,3,,,,,,,,1,,,,82,64
69120,note_on,40,0,3,,,,,,,,1,,,,74,75
69120,note_on,40,0,4,,,,,,,,2,,,,74,60
69200,note_off,80,0,4,,,,,,,,2,,,,74,64
69200,note_off,80,0,3,,,,,,,,1,,,,74,64
69240,note_on,40,0,4,,,,,,,,2,,,,62,60
69240,note_on,40,0,3,,,,,,,,1,,,,62,75
69320,note_off,80,0,3,,,,,,,,1,,,,62,64
69320,note_off,80,0,4,,,,,,,,2,,,,62,64
69360,note_on,40,0,3,,,,,,,,1,,,,74,75
69360,note_on,40,0,4,,,,,,,,2,,,,74,60
69400,note_off,0,0,2,,,,,,,,0,,,,39,64
69400,note_off,400,0,5,,,,,,,,3,,,,62,64
69400,note_off,400,0,10,,,,,,,,8,,,,62,64
69400,note_off,400,0,12,,,,,,,,11,,,,50,64
69400,note_off,400,0,2,,,,,,,,0,,,,51,64
69440,note_off,80,0,4,,,,,,,,2,,,,74,64
69440,note_off,80,0,3,,,,,,,,1,,,,74,64
69480,note_on,80,0,10,,,,,,,,8,,,,62,45
69480,note_on,80,0,5,,,,,,,,3,,,,62,60
69480,note_on,80,0,12,,,,,,,,11,,,,50,45
69480,note_on,0,0,4,,,,,,,,2,,,,81,60
69480,note_on,0,0,3,,,,,,,,1,,,,74,75
69480,note_on,80,0,2,,,,,,,,0,,,,39,45
69480,note_on,0,0,4,,,,,,,,2,,,,74,60
69480,note_on,40,0,4,,,,,,,,2,,,,62,60
69480,note_on,40,0,3,,,,,,,,1,,,,62,75
69480,note_on,0,0,3,,,,,,,,1,,,,81,75
69480,note_on,0,0,2,,,,,,,,0,,,,51,45
69880,note_off,400,0,3,,,,,,,,1,,,,81,64
69880,note_off,0,0,2,,,,,,,,0,,,,39,64
69880,note_off,0,0,3,,,,,,,,1,,,,62,64
69880,note_off,0,0,3,,,,,,,,1,,,,74,64
69880,note_off,0,0,4,,,,,,,,2,,,,62,64
69880,note_off,0,0,4,,,,,,,,2,,,,74,64
69880,note_off,400,0,4,,,,,,,,2,,,,81,64
69880,note_off,400,0,10,,,,,,,,8,,,,62,64
69880,note_off,400,0,12,,,,,,,,11,,,,50,64
69880,note_off,400,0,2,,,,,,,,0,,,,51,64
69880,note_off,400,0,5,,,,,,,,3,,,,62,64
70320,note_on,440,0,3,,,,,,,,1,,,,93,75
70320,note_on,440,0,4,,,,,,,,2,,,,93,60
70400,note_off,80,0,4,,,,,,,,2,,,,93,64
70400,note_off,80,0,3,,,,,,,,1,,,,93,64
70440,note_on,40,0,3,,,,,,,,1,,,,93,75
70440,note_on,40,0,4,,,,,,,,2,,,,93,60
70520,note_off,80,0,3,,,,,,,,1,,,,93,64
70520,note_off,80,0,4,,,,,,,,2,,,,93,64
70560,note_on,40,0,3,,,,,,,,1,,,,91,75
70560,note_on,40,0,4,,,,,,,,2,,,,91,60
70640,note_off,80,0,3,,,,,,,,1,,,,91,64
70640,note_off,80,0,4,,,,,,,,2,,,,91,64
70680,note_on,40,0,3,,,,,,,,1,,,,91,75
70680,note_on,40,0,4,,,,,,,,2,,,,91,60
70760,note_off,80,0,3,,,,,,,,1,,,,91,64
70760,note_off,80,0,4,,,,,,,,2,,,,91,64
70800,note_on,40,0,3,,,,,,,,1,,,,89,75
70800,note_on,40,0,4,,,,,,,,2,,,,89,60
70880,note_off,80,0,3,,,,,,,,1,,,,89,64
70880,note_off,80,0,4,,,,,,,,2,,,,89,64
70920,note_on,40,0,4,,,,,,,,2,,,,89,60
70920,note_on,40,0,3,,,,,,,,1,,,,89,75
71000,note_off,80,0,3,,,,,,,,1,,,,89,64
71000,note_off,80,0,4,,,,,,,,2,,,,89,64
71040,note_on,40,0,3,,,,,,,,1,,,,87,75
71040,note_on,40,0,4,,,,,,,,2,,,,87,60
71120,note_off,80,0,4,,,,,,,,2,,,,87,64
71120,note_off,80,0,3,,,,,,,,1,,,,87,64
71160,note_on,40,0,4,,,,,,,,2,,,,87,60
71160,note_on,40,0,3,,,,,,,,1,,,,87,75
71160,set_tempo,71040,1,0,410958,,,,,,,,,,,,
71240,note_off,80,0,4,,,,,,,,2,,,,87,64
71240,note_off,80,0,3,,,,,,,,1,,,,87,64
71280,note_on,40,0,3,,,,,,,,1,,,,86,75
71280,note_on,40,0,4,,,,,,,,2,,,,86,60
71360,note_off,80,0,4,,,,,,,,2,,,,86,64
71360,note_off,80,0,3,,,,,,,,1,,,,86,64
71400,note_on,40,0,3,,,,,,,,1,,,,86,75
71400,note_on,40,0,4,,,,,,,,2,,,,86,60
71480,note_off,80,0,4,,,,,,,,2,,,,86,64
71480,note_off,80,0,3,,,,,,,,1,,,,86,64
71520,note_on,40,0,4,,,,,,,,2,,,,84,60
71520,note_on,40,0,3,,,,,,,,1,,,,84,75
71600,note_off,80,0,3,,,,,,,,1,,,,84,64
71600,note_off,80,0,4,,,,,,,,2,,,,84,64
71640,note_on,40,0,3,,,,,,,,1,,,,84,75
71640,note_on,40,0,4,,,,,,,,2,,,,84,60
71640,set_tempo,480,1,0,422535,,,,,,,,,,,,
71720,note_off,80,0,4,,,,,,,,2,,,,84,64
71720,note_off,80,0,3,,,,,,,,1,,,,84,64
71760,note_on,40,0,4,,,,,,,,2,,,,82,60
71760,note_on,40,0,3,,,,,,,,1,,,,82,75
71840,note_off,80,0,4,,,,,,,,2,,,,82,64
71840,note_off,80,0,3,,,,,,,,1,,,,82,64
71880,note_on,40,0,4,,,,,,,,2,,,,82,60
71880,note_on,40,0,3,,,,,,,,1,,,,82,75
71960,note_off,80,0,3,,,,,,,,1,,,,82,64
71960,note_off,80,0,4,,,,,,,,2,,,,82,64
72000,note_on,40,0,4,,,,,,,,2,,,,81,60
72000,note_on,40,0,3,,,,,,,,1,,,,81,75
72080,note_off,80,0,3,,,,,,,,1,,,,81,64
72080,note_off,80,0,4,,,,,,,,2,,,,81,64
72120,set_tempo,480,1,0,434782,,,,,,,,,,,,
72120,note_on,40,0,4,,,,,,,,2,,,,81,60
72120,note_on,40,0,3,,,,,,,,1,,,,81,75
72200,note_off,80,0,4,,,,,,,,2,,,,81,64
72200,note_off,80,0,3,,,,,,,,1,,,,81,64
72240,note_on,40,0,4,,,,,,,,2,,,,79,60
72240,note_on,40,0,3,,,,,,,,1,,,,79,75
72320,note_off,80,0,3,,,,,,,,1,,,,79,64
72320,note_off,80,0,4,,,,,,,,2,,,,79,64
72360,note_on,40,0,4,,,,,,,,2,,,,79,59
72360,note_on,40,0,3,,,,,,,,1,,,,79,74
72440,note_off,80,0,4,,,,,,,,2,,,,79,64
72440,note_off,80,0,3,,,,,,,,1,,,,79,64
72480,note_on,40,0,3,,,,,,,,1,,,,77,73
72480,note_on,40,0,4,,,,,,,,2,,,,77,58
72560,note_off,80,0,3,,,,,,,,1,,,,77,64
72560,note_off,80,0,4,,,,,,,,2,,,,77,64
72600,set_tempo,480,1,0,447761,,,,,,,,,,,,
72600,note_on,40,0,3,,,,,,,,1,,,,77,72
72600,note_on,40,0,4,,,,,,,,2,,,,77,57
72680,note_off,80,0,3,,,,,,,,1,,,,77,64
72680,note_off,80,0,4,,,,,,,,2,,,,77,64
72720,note_on,40,0,4,,,,,,,,2,,,,76,56
72720,note_on,40,0,3,,,,,,,,1,,,,76,71
72800,note_off,80,0,4,,,,,,,,2,,,,76,64
72800,note_off,80,0,3,,,,,,,,1,,,,76,64
72840,note_on,40,0,4,,,,,,,,2,,,,76,55
72840,note_on,40,0,3,,,,,,,,1,,,,76,70
72920,note_off,80,0,4,,,,,,,,2,,,,76,64
72920,note_off,80,0,3,,,,,,,,1,,,,76,64
72960,note_on,40,0,3,,,,,,,,1,,,,74,69
72960,note_on,40,0,4,,,,,,,,2,,,,74,54
73040,note_off,80,0,3,,,,,,,,1,,,,74,64
73040,note_off,80,0,4,,,,,,,,2,,,,74,64
73080,note_on,40,0,4,,,,,,,,2,,,,74,53
73080,note_on,40,0,3,,,,,,,,1,,,,74,68
73160,note_off,80,0,4,,,,,,,,2,,,,74,64
73160,note_off,80,0,3,,,,,,,,1,,,,74,64
73200,note_on,40,0,4,,,,,,,,2,,,,72,52
73200,note_on,40,0,3,,,,,,,,1,,,,72,67
73280,note_off,80,0,4,,,,,,,,2,,,,72,64
73280,note_off,80,0,3,,,,,,,,1,,,,72,64
73320,note_on,40,0,3,,,,,,,,1,,,,72,66
73320,note_on,40,0,4,,,,,,,,2,,,,72,51
73400,note_off,80,0,3,,,,,,,,1,,,,72,64
73400,note_off,80,0,4,,,,,,,,2,,,,72,64
73440,note_on,40,0,3,,,,,,,,1,,,,70,65
73440,note_on,40,0,4,,,,,,,,2,,,,70,50
73520,note_off,80,0,3,,,,,,,,1,,,,70,64
73520,note_off,80,0,4,,,,,,,,2,,,,70,64
73560,note_on,40,0,3,,,,,,,,1,,,,70,64
73560,note_on,40,0,4,,,,,,,,2,,,,70,49
73640,note_off,80,0,4,,,,,,,,2,,,,70,64
73640,note_off,80,0,3,,,,,,,,1,,,,70,64
73680,note_on,40,0,4,,,,,,,,2,,,,69,48
73680,note_on,40,0,3,,,,,,,,1,,,,69,63
73760,note_off,80,0,3,,,,,,,,1,,,,69,64
73760,note_off,80,0,4,,,,,,,,2,,,,69,64
73800,note_on,40,0,4,,,,,,,,2,,,,69,47
73800,note_on,40,0,3,,,,,,,,1,,,,69,62
73880,note_off,80,0,4,,,,,,,,2,,,,69,64
73880,note_off,80,0,3,,,,,,,,1,,,,69,64
73920,note_on,40,0,4,,,,,,,,2,,,,68,46
73920,note_on,40,0,3,,,,,,,,1,,,,68,61
74000,note_off,80,0,4,,,,,,,,2,,,,68,64
74000,note_off,80,0,3,,,,,,,,1,,,,68,64
74040,note_on,0,0,4,,,,,,,,2,,,,69,45
74040,note_on,0,0,3,,,,,,,,1,,,,69,60
74040,note_on,40,0,3,,,,,,,,1,,,,62,60
74040,note_on,40,0,4,,,,,,,,2,,,,62,45
74280,note_off,240,0,4,,,,,,,,2,,,,69,64
74280,note_on,0,0,4,,,,,,,,2,,,,68,45
74280,note_off,240,0,3,,,,,,,,1,,,,69,64
74280,note_on,0,0,3,,,,,,,,1,,,,68,60
74520,note_off,240,0,3,,,,,,,,1,,,,68,64
74520,note_off,240,0,4,,,,,,,,2,,,,68,64
74520,note_on,0,0,3,,,,,,,,1,,,,69,60
74520,note_on,0,0,4,,,,,,,,2,,,,69,45
74760,note_off,240,0,4,,,,,,,,2,,,,69,64
74760,note_on,0,0,3,,,,,,,,1,,,,68,60
74760,note_off,240,0,3,,,,,,,,1,,,,69,64
74760,note_on,0,0,4,,,,,,,,2,,,,68,45
75000,note_on,0,0,4,,,,,,,,2,,,,69,45
75000,note_off,240,0,4,,,,,,,,2,,,,68,64
75000,note_on,0,0,3,,,,,,,,1,,,,69,60
75000,note_off,240,0,3,,,,,,,,1,,,,68,64
75240,note_off,240,0,3,,,,,,,,1,,,,69,64
75240,note_on,0,0,3,,,,,,,,1,,,,65,60
75240,note_on,0,0,4,,,,,,,,2,,,,65,45
75240,note_off,240,0,4,,,,,,,,2,,,,69,64
75360,note_off,120,0,3,,,,,,,,1,,,,62,64
75360,note_off,120,0,4,,,,,,,,2,,,,62,64
75480,note_on,0,0,4,,,,,,,,2,,,,67,45
75480,note_off,120,0,4,,,,,,,,2,,,,65,64
75480,note_off,120,0,3,,,,,,,,1,,,,65,64
75480,note_on,0,0,4,,,,,,,,2,,,,62,45
75480,note_on,0,0,3,,,,,,,,1,,,,62,60
75480,note_on,0,0,3,,,,,,,,1,,,,67,60
75720,note_off,240,0,4,,,,,,,,2,,,,67,64
75720,note_on,0,0,4,,,,,,,,2,,,,63,45
75720,note_off,240,0,3,,,,,,,,1,,,,67,64
75720,note_on,0,0,3,,,,,,,,1,,,,63,60
75960,note_off,240,0,3,,,,,,,,1,,,,63,64
75960,note_on,0,0,3,,,,,,,,1,,,,65,60
75960,note_off,240,0,4,,,,,,,,2,,,,63,64
75960,note_on,0,0,4,,,,,,,,2,,,,65,45
76200,note_on,0,0,4,,,,,,,,2,,,,62,45
76200,note_on,0,0,3,,,,,,,,1,,,,62,60
76200,note_off,240,0,4,,,,,,,,2,,,,65,64
76200,note_off,240,0,3,,,,,,,,1,,,,65,64
76440,note_on,0,0,3,,,,,,,,1,,,,63,60
76440,note_on,0,0,4,,,,,,,,2,,,,63,45
76440,note_off,240,0,4,,,,,,,,2,,,,62,64
76440,note_off,240,0,3,,,,,,,,1,,,,62,64
76680,note_on,0,0,3,,,,,,,,1,,,,61,60
76680,note_off,240,0,4,,,,,,,,2,,,,63,64
76680,note_on,0,0,4,,,,,,,,2,,,,61,45
76680,note_off,240,0,3,,,,,,,,1,,,,63,64
76800,note_off,120,0,3,,,,,,,,1,,,,62,64
76800,note_off,120,0,4,,,,,,,,2,,,,62,64
76920,note_on,18800,0,8,,,,,,,,6,,,,50,30
76920,note_off,120,0,4,,,,,,,,2,,,,61,64
76920,note_on,0,0,4,,,,,,,,2,,,,62,45
76920,note_off,120,0,3,,,,,,,,1,,,,61,64
76920,note_on,0,0,3,,,,,,,,1,,,,62,60
76920,note_on,18800,0,13,,,,,,,,12,,,,50,30
76920,note_on,7040,0,2,,,,,,,,0,,,,50,30
77160,note_on,0,0,3,,,,,,,,1,,,,61,60
77160,note_off,240,0,2,,,,,,,,0,,,,50,64
77160,note_off,240,0,4,,,,,,,,2,,,,62,64
77160,note_on,0,0,8,,,,,,,,6,,,,45,30
77160,note_off,240,0,3,,,,,,,,1,,,,62,64
77160,note_off,240,0,13,,,,,,,,12,,,,50,64
77160,note_on,0,0,13,,,,,,,,12,,,,45,30
77160,note_on,0,0,2,,,,,,,,0,,,,45,30
77160,note_off,240,0,8,,,,,,,,6,,,,50,64
77160,note_on,0,0,4,,,,,,,,2,,,,61,45
77400,note_off,240,0,13,,,,,,,,12,,,,45,64
77400,note_on,0,0,13,,,,,,,,12,,,,50,34
77400,note_on,0,0,4,,,,,,,,2,,,,62,45
77400,note_on,0,0,3,,,,,,,,1,,,,62,60
77400,note_off,240,0,2,,,,,,,,0,,,,45,64
77400,note_on,0,0,2,,,,,,,,0,,,,50,35
77400,note_off,240,0,4,,,,,,,,2,,,,61,64
77400,note_on,0,0,8,,,,,,,,6,,,,50,37
77400,note_off,240,0,8,,,,,,,,6,,,,45,64
77400,note_off,240,0,3,,,,,,,,1,,,,61,64
77640,note_on,0,0,2,,,,,,,,0,,,,45,40
77640,note_off,240,0,13,,,,,,,,12,,,,50,64
77640,note_on,0,0,13,,,,,,,,12,,,,45,38
77640,note_on,0,0,3,,,,,,,,1,,,,61,60
77640,note_off,240,0,8,,,,,,,,6,,,,50,64
77640,note_on,0,0,4,,,,,,,,2,,,,61,45
77640,note_off,240,0,2,,,,,,,,0,,,,50,64
77640,note_off,240,0,4,,,,,,,,2,,,,62,64
77640,note_off,240,0,3,,,,,,,,1,,,,62,64
77640,note_on,0,0,8,,,,,,,,6,,,,45,44
77880,note_on,0,0,2,,,,,,,,0,,,,50,45
77880,note_off,240,0,13,,,,,,,,12,,,,45,64
77880,note_on,0,0,13,,,,,,,,12,,,,50,42
77880,note_off,240,0,2,,,,,,,,0,,,,45,64
77880,note_on,0,0,8,,,,,,,,6,,,,50,51
77880,note_off,240,0,3,,,,,,,,1,,,,61,64
77880,note_on,0,0,3,,,,,,,,1,,,,62,60
77880,note_off,240,0,4,,,,,,,,2,,,,61,64
77880,note_off,240,0,8,,,,,,,,6,,,,45,64
77880,note_on,0,0,4,,,,,,,,2,,,,62,45
78120,note_off,240,0,3,,,,,,,,1,,,,62,64
78120,note_on,0,0,13,,,,,,,,12,,,,45,46
78120,note_off,240,0,13,,,,,,,,12,,,,50,64
78120,note_off,240,0,8,,,,,,,,6,,,,50,64
78120,note_on,0,0,4,,,,,,,,2,,,,61,45
78120,note_off,240,0,2,,,,,,,,0,,,,50,64
78120,note_on,0,0,2,,,,,,,,0,,,,45,50
78120,note_on,0,0,8,,,,,,,,6,,,,45,58
78120,note_off,240,0,4,,,,,,,,2,,,,62,64
78120,note_on,0,0,3,,,,,,,,1,,,,61,60
78360,note_on,0,0,8,,,,,,,,6,,,,50,65
78360,note_on,20240,0,11,,,,,,,,10,,,,77,75
78360,note_off,240,0,8,,,,,,,,6,,,,45,64
78360,note_off,240,0,4,,,,,,,,2,,,,61,64
78360,note_off,240,0,3,,,,,,,,1,,,,61,64
78360,note_on,0,0,4,,,,,,,,2,,,,62,45
78360,note_on,0,0,3,,,,,,,,1,,,,62,60
78360,note_off,240,0,2,,,,,,,,0,,,,45,64
78360,note_on,0,0,2,,,,,,,,0,,,,50,56
78360,note_off,240,0,13,,,,,,,,12,,,,45,64
78360,note_on,0,0,13,,,,,,,,12,,,,50,50
78440,note_off,80,0,11,,,,,,,,10,,,,77,64
78600,note_off,240,0,8,,,,,,,,6,,,,50,64
78600,note_off,240,0,2,,,,,,,,0,,,,50,64
78600,note_on,0,0,2,,,,,,,,0,,,,45,62
78600,note_off,240,0,13,,,,,,,,12,,,,50,64
78600,note_on,0,0,13,,,,,,,,12,,,,45,54
78600,note_on,0,0,3,,,,,,,,1,,,,61,60
78600,note_on,160,0,11,,,,,,,,10,,,,57,75
78600,note_on,0,0,4,,,,,,,,2,,,,61,45
78600,note_off,240,0,4,,,,,,,,2,,,,62,64
78600,note_off,240,0,3,,,,,,,,1,,,,62,64
78600,note_on,0,0,8,,,,,,,,6,,,,45,72
78680,note_off,80,0,11,,,,,,,,10,,,,57,64
78840,note_on,0,0,2,,,,,,,,0,,,,50,68
78840,note_off,240,0,2,,,,,,,,0,,,,45,64
78840,note_on,160,0,11,,,,,,,,10,,,,57,75
78840,note_off,240,0,3,,,,,,,,1,,,,61,64
78840,note_on,0,0,13,,,,,,,,12,,,,50,58
78840,note_off,240,0,8,,,,,,,,6,,,,45,64
78840,note_on,0,0,3,,,,,,,,1,,,,62,60
78840,note_off,240,0,4,,,,,,,,2,,,,61,64
78840,note_on,0,0,4,,,,,,,,2,,,,62,45
78840,note_on,0,0,8,,,,,,,,6,,,,50,79
78840,note_off,240,0,13,,,,,,,,12,,,,45,64
78920,note_off,80,0,11,,,,,,,,10,,,,57,64
79080,note_off,240,0,8,,,,,,,,6,,,,50,64
79080,note_on,0,0,13,,,,,,,,12,,,,45,62
79080,note_on,160,0,11,,,,,,,,10,,,,69,75
79080,note_on,0,0,8,,,,,,,,6,,,,45,86
79080,note_off,240,0,4,,,,,,,,2,,,,62,64
79080,note_on,0,0,2,,,,,,,,0,,,,45,74
79080,note_on,0,0,4,,,,,,,,2,,,,61,45
79080,note_off,240,0,13,,,,,,,,12,,,,50,64
79080,note_off,240,0,3,,,,,,,,1,,,,62,64
79080,note_on,0,0,3,,,,,,,,1,,,,61,60
79080,note_off,240,0,2,,,,,,,,0,,,,50,64
79160,note_off,80,0,11,,,,,,,,10,,,,69,64
79320,note_off,240,0,13,,,,,,,,12,,,,45,64
79320,note_on,160,0,11,,,,,,,,10,,,,74,75
79320,note_on,0,0,13,,,,,,,,12,,,,50,66
79320,note_on,0,0,8,,,,,,,,6,,,,50,93
79320,note_on,0,0,4,,,,,,,,2,,,,62,45
79320,note_on,0,0,3,,,,,,,,1,,,,62,60
79320,note_off,240,0,4,,,,,,,,2,,,,61,64
79320,note_on,0,0,2,,,,,,,,0,,,,50,80
79320,note_off,240,0,2,,,,,,,,0,,,,45,64
79320,note_off,240,0,3,,,,,,,,1,,,,61,64
79320,note_off,240,0,8,,,,,,,,6,,,,45,64
79400,note_off,80,0,11,,,,,,,,10,,,,74,64
79560,note_off,240,0,3,,,,,,,,1,,,,62,64
79560,note_on,0,0,3,,,,,,,,1,,,,61,60
79560,note_on,0,0,4,,,,,,,,2,,,,61,45
79560,note_off,240,0,4,,,,,,,,2,,,,62,64
79560,note_on,160,0,11,,,,,,,,10,,,,77,75
79560,note_on,0,0,8,,,,,,,,6,,,,45,100
79560,note_off,240,0,13,,,,,,,,12,,,,50,64
79560,note_on,0,0,13,,,,,,,,12,,,,45,70
79560,note_off,240,0,8,,,,,,,,6,,,,50,64
79560,note_off,240,0,2,,,,,,,,0,,,,50,64
79560,note_on,0,0,2,,,,,,,,0,,,,45,86
79640,note_off,80,0,11,,,,,,,,10,,,,77,64
79795,note_off,235,0,13,,,,,,,,12,,,,45,64
79795,note_off,235,0,8,,,,,,,,6,,,,45,64
79795,note_off,235,0,2,,,,,,,,0,,,,45,64
79800,note_on,21680,0,9,,,,,,,,7,,,,38,92
79800,note_on,0,0,3,,,,,,,,1,,,,62,60
79800,note_on,9920,0,5,,,,,,,,3,,,,81,108
79800,note_on,21680,0,15,,,,,,,,14,,,,38,60
79800,note_on,21680,0,6,,,,,,,,4,,,,77,108
79800,note_off,240,0,4,,,,,,,,2,,,,61,64
79800,note_off,240,0,3,,,,,,,,1,,,,61,64
79800,note_on,0,0,4,,,,,,,,2,,,,62,45
79800,note_on,5,0,13,,,,,,,,12,,,,50,75
79800,note_on,9920,0,10,,,,,,,,8,,,,81,75
79800,note_on,9920,0,12,,,,,,,,11,,,,62,75
79800,note_on,5,0,2,,,,,,,,0,,,,50,92
79800,note_on,21680,0,14,,,,,,,,13,,,,38,75
79800,set_tempo,7200,1,0,410958,,,,,,,,,,,,
79800,note_on,79800,0,1,,,,,,,,0,,,,77,92
79800,note_on,0,0,1,,,,,,,,0,,,,81,92
79800,note_on,160,0,11,,,,,,,,10,,,,77,75
79800,note_on,5,0,8,,,,,,,,6,,,,50,108
79800,note_on,15920,0,7,,,,,,,,5,,,,62,108
79880,note_off,80,0,8,,,,,,,,6,,,,50,64
79880,note_off,80,0,13,,,,,,,,12,,,,50,64
79880,note_off,80,0,6,,,,,,,,4,,,,77,64
79880,note_off,80,0,14,,,,,,,,13,,,,38,64
79880,note_off,80,0,11,,,,,,,,10,,,,77,64
79880,note_off,80,0,10,,,,,,,,8,,,,81,64
79880,note_off,0,0,1,,,,,,,,0,,,,77,64
79880,note_off,80,0,1,,,,,,,,0,,,,81,64
79880,note_off,80,0,5,,,,,,,,3,,,,81,64
79880,note_off,80,0,9,,,,,,,,7,,,,38,64
79880,note_off,80,0,2,,,,,,,,0,,,,50,64
79920,note_on,40,0,2,,,,,,,,0,,,,62,92
79920,note_on,40,0,13,,,,,,,,12,,,,62,75
79920,note_on,40,0,14,,,,,,,,13,,,,50,75
79920,note_on,40,0,8,,,,,,,,6,,,,62,108
79920,note_on,40,0,9,,,,,,,,7,,,,50,92
80000,note_off,80,0,13,,,,,,,,12,,,,62,64
80000,note_off,80,0,8,,,,,,,,6,,,,62,64
80000,note_off,80,0,9,,,,,,,,7,,,,50,64
80000,note_off,80,0,2,,,,,,,,0,,,,62,64
80000,note_off,80,0,14,,,,,,,,13,,,,50,64
80035,note_off,235,0,4,,,,,,,,2,,,,62,64
80035,note_off,235,0,3,,,,,,,,1,,,,62,64
80040,note_on,0,0,1,,,,,,,,0,,,,62,92
80040,note_on,160,0,6,,,,,,,,4,,,,57,108
80040,note_on,160,0,5,,,,,,,,3,,,,62,108
80040,note_on,40,0,14,,,,,,,,13,,,,48,75
80040,note_on,40,0,13,,,,,,,,12,,,,60,75
80040,note_on,160,0,11,,,,,,,,10,,,,57,75
80040,note_on,160,0,10,,,,,,,,8,,,,62,75
80040,note_on,40,0,9,,,,,,,,7,,,,48,92
80040,note_on,40,0,2,,,,,,,,0,,,,60,92
80040,note_on,40,0,8,,,,,,,,6,,,,60,108
80040,note_on,160,0,1,,,,,,,,0,,,,57,92
80120,note_off,80,0,5,,,,,,,,3,,,,62,64
80120,note_off,80,0,9,,,,,,,,7,,,,48,64
80120,note_off,80,0,1,,,,,,,,0,,,,62,64
80120,note_off,80,0,11,,,,,,,,10,,,,57,64
80120,note_off,0,0,1,,,,,,,,0,,,,57,64
80120,note_off,80,0,13,,,,,,,,12,,,,60,64
80120,note_off,80,0,6,,,,,,,,4,,,,57,64
80120,note_off,80,0,8,,,,,,,,6,,,,60,64
80120,note_off,80,0,10,,,,,,,,8,,,,62,64
80120,note_off,80,0,14,,,,,,,,13,,,,48,64
80120,note_off,80,0,2,,,,,,,,0,,,,60,64
80160,note_on,40,0,2,,,,,,,,0,,,,58,92
80160,note_on,40,0,9,,,,,,,,7,,,,46,92
80160,note_on,40,0,8,,,,,,,,6,,,,58,108
80160,note_on,40,0,14,,,,,,,,13,,,,46,75
80160,note_on,40,0,13,,,,,,,,12,,,,58,75
80200,note_off,400,0,12,,,,,,,,11,,,,62,64
80200,note_off,400,0,15,,,,,,,,14,,,,38,64
80200,note_off,400,0,7,,,,,,,,5,,,,62,64
80240,note_off,80,0,2,,,,,,,,0,,,,58,64
80240,note_off,80,0,9,,,,,,,,7,,,,46,64
80240,note_off,80,0,8,,,,,,,,6,,,,58,64
80240,note_off,80,0,13,,,,,,,,12,,,,58,64
80240,note_off,80,0,14,,,,,,,,13,,,,46,64
80280,note_on,40,0,9,,,,,,,,7,,,,45,92
80280,note_on,40,0,14,,,,,,,,13,,,,45,75
80280,note_on,80,0,15,,,,,,,,14,,,,45,60
80280,note_on,40,0,8,,,,,,,,6,,,,57,108
80280,note_on,40,0,2,,,,,,,,0,,,,57,92
80280,note_on,160,0,11,,,,,,,,10,,,,57,75
80280,note_on,160,0,10,,,,,,,,8,,,,62,75
80280,note_on,160,0,6,,,,,,,,4,,,,57,108
80280,note_on,0,0,1,,,,,,,,0,,,,62,92
80280,note_on,160,0,1,,,,,,,,0,,,,57,92
80280,note_on,40,0,13,,,,,,,,12,,,,57,75
80280,note_on,160,0,5,,,,,,,,3,,,,62,108
80360,note_off,80,0,8,,,,,,,,6,,,,57,64
80360,note_off,80,0,10,,,,,,,,8,,,,62,64
80360,note_off,80,0,6,,,,,,,,4,,,,57,64
80360,note_off,80,0,11,,,,,,,,10,,,,57,64
80360,note_off,80,0,14,,,,,,,,13,,,,45,64
80360,note_off,80,0,5,,,,,,,,3,,,,62,64
80360,note_off,80,0,1,,,,,,,,0,,,,62,64
80360,note_off,0,0,1,,,,,,,,0,,,,57,64
80360,note_off,80,0,9,,,,,,,,7,,,,45,64
80360,note_off,80,0,2,,,,,,,,0,,,,57,64
80360,note_off,80,0,13,,,,,,,,12,,,,57,64
80400,note_on,40,0,14,,,,,,,,13,,,,43,75
80400,note_on,40,0,13,,,,,,,,12,,,,55,75
80400,note_on,40,0,9,,,,,,,,7,,,,43,92
80400,note_on,40,0,2,,,,,,,,0,,,,55,92
80400,note_on,40,0,8,,,,,,,,6,,,,55,108
80480,note_off,80,0,9,,,,,,,,7,,,,43,64
80480,note_off,80,0,8,,,,,,,,6,,,,55,64
80480,note_off,80,0,2,,,,,,,,0,,,,55,64
80480,note_off,80,0,13,,,,,,,,12,,,,55,64
80480,note_off,80,0,14,,,,,,,,13,,,,43,64
80520,note_on,40,0,8,,,,,,,,6,,,,53,108
80520,note_on,160,0,6,,,,,,,,4,,,,69,108
80520,note_on,40,0,14,,,,,,,,13,,,,41,75
80520,note_on,40,0,13,,,,,,,,12,,,,53,75
80520,note_on,320,0,7,,,,,,,,5,,,,69,108
80520,note_on,160,0,1,,,,,,,,0,,,,69,92
80520,note_on,0,0,1,,,,,,,,0,,,,74,92
80520,note_on,40,0,9,,,,,,,,7,,,,41,92
80520,note_on,40,0,2,,,,,,,,0,,,,53,92
80520,note_on,160,0,10,,,,,,,,8,,,,74,75
80520,note_on,160,0,11,,,,,,,,10,,,,69,75
80520,note_on,320,0,12,,,,,,,,11,,,,69,75
80520,note_on,160,0,5,,,,,,,,3,,,,74,108
80600,note_off,80,0,5,,,,,,,,3,,,,74,64
80600,note_off,80,0,11,,,,,,,,10,,,,69,64
80600,note_off,80,0,6,,,,,,,,4,,,,69,64
80600,note_off,80,0,10,,,,,,,,8,,,,74,64
80600,note_off,80,0,7,,,,,,,,5,,,,69,64
80600,note_off,0,0,1,,,,,,,,0,,,,69,64
80600,note_off,80,0,1,,,,,,,,0,,,,74,64
80600,note_off,80,0,8,,,,,,,,6,,,,53,64
80600,note_off,80,0,13,,,,,,,,12,,,,53,64
80600,note_off,80,0,2,,,,,,,,0,,,,53,64
80600,note_off,80,0,14,,,,,,,,13,,,,41,64
80600,note_off,80,0,9,,,,,,,,7,,,,41,64
80600,note_off,80,0,12,,,,,,,,11,,,,69,64
80640,note_on,40,0,14,,,,,,,,13,,,,40,75
80640,note_on,40,0,8,,,,,,,,6,,,,52,108
80640,note_on,40,0,2,,,,,,,,0,,,,52,92
80640,note_on,40,0,9,,,,,,,,7,,,,40,92
80640,note_on,40,0,13,,,,,,,,12,,,,52,75
80680,note_off,400,0,15,,,,,,,,14,,,,45,64
80720,note_off,80,0,9,,,,,,,,7,,,,40,64
80720,note_off,80,0,14,,,,,,,,13,,,,40,64
80720,note_off,80,0,2,,,,,,,,0,,,,52,64
80720,note_off,80,0,8,,,,,,,,6,,,,52,64
80720,note_off,80,0,13,,,,,,,,12,,,,52,64
80760,note_on,40,0,14,,,,,,,,13,,,,38,75
80760,note_on,40,0,2,,,,,,,,0,,,,50,92
80760,note_on,0,0,1,,,,,,,,0,,,,77,92
80760,note_on,40,0,8,,,,,,,,6,,,,50,108
80760,note_on,160,0,7,,,,,,,,5,,,,65,108
80760,note_on,160,0,1,,,,,,,,0,,,,74,92
80760,note_on,160,0,12,,,,,,,,11,,,,65,75
80760,note_on,40,0,13,,,,,,,,12,,,,50,75
80760,note_on,160,0,11,,,,,,,,10,,,,74,75
80760,note_on,160,0,5,,,,,,,,3,,,,77,108
80760,note_on,160,0,6,,,,,,,,4,,,,74,108
80760,note_on,160,0,10,,,,,,,,8,,,,77,75
80760,note_on,80,0,15,,,,,,,,14,,,,38,60
80760,note_on,40,0,9,,,,,,,,7,,,,38,92
80840,note_off,80,0,7,,,,,,,,5,,,,65,64
80840,note_off,80,0,13,,,,,,,,12,,,,50,64
80840,note_off,80,0,14,,,,,,,,13,,,,38,64
80840,note_off,80,0,10,,,,,,,,8,,,,77,64
80840,note_off,80,0,9,,,,,,,,7,,,,38,64
80840,note_off,80,0,6,,,,,,,,4,,,,74,64
80840,note_off,0,0,1,,,,,,,,0,,,,74,64
80840,note_off,80,0,1,,,,,,,,0,,,,77,64
80840,note_off,80,0,11,,,,,,,,10,,,,74,64
80840,note_off,80,0,2,,,,,,,,0,,,,50,64
80840,note_off,80,0,5,,,,,,,,3,,,,77,64
80840,note_off,80,0,8,,,,,,,,6,,,,50,64
80840,note_off,80,0,12,,,,,,,,11,,,,65,64
80880,note_on,40,0,12,,,,,,,,11,,,,67,75
80880,note_on,40,0,7,,,,,,,,5,,,,67,108
80960,note_off,80,0,7,,,,,,,,5,,,,67,64
80960,note_off,80,0,12,,,,,,,,11,,,,67,64
80995,note_off,235,0,15,,,,,,,,14,,,,38,64
81000,note_on,40,0,12,,,,,,,,11,,,,65,75
81000,note_on,0,0,1,,,,,,,,0,,,,81,92
81000,note_on,160,0,6,,,,,,,,4,,,,77,108
81000,note_on,160,0,5,,,,,,,,3,,,,81,108
81000,note_on,40,0,7,,,,,,,,5,,,,65,108
81000,note_on,160,0,10,,,,,,,,8,,,,81,75
81000,note_on,160,0,11,,,,,,,,10,,,,77,75
81000,note_on,160,0,1,,,,,,,,0,,,,77,92
81080,note_off,0,0,1,,,,,,,,0,,,,77,64
81080,note_off,80,0,1,,,,,,,,0,,,,81,64
81080,note_off,80,0,10,,,,,,,,8,,,,81,64
81080,note_off,80,0,7,,,,,,,,5,,,,65,64
81080,note_off,80,0,12,,,,,,,,11,,,,65,64
81080,note_off,80,0,11,,,,,,,,10,,,,77,64
81080,note_off,80,0,5,,,,,,,,3,,,,81,64
81080,note_off,80,0,6,,,,,,,,4,,,,77,64
81120,note_on,40,0,12,,,,,,,,11,,,,64,75
81120,note_on,40,0,7,,,,,,,,5,,,,64,108
81200,note_off,80,0,12,,,,,,,,11,,,,64,64
81200,note_off,80,0,7,,,,,,,,5,,,,64,64
81240,note_on,40,0,12,,,,,,,,11,,,,62,75
81240,note_on,0,0,1,,,,,,,,0,,,,82,92
81240,note_on,160,0,1,,,,,,,,0,,,,79,92
81240,note_on,400,0,2,,,,,,,,0,,,,43,92
81240,note_on,40,0,7,,,,,,,,5,,,,62,108
81240,note_on,400,0,9,,,,,,,,7,,,,31,92
81240,note_on,160,0,10,,,,,,,,8,,,,82,75
81240,note_on,160,0,6,,,,,,,,4,,,,79,108
81240,note_on,160,0,11,,,,,,,,10,,,,79,75
81240,note_on,400,0,13,,,,,,,,12,,,,43,75
81240,note_on,400,0,8,,,,,,,,6,,,,43,108
81240,note_on,400,0,14,,,,,,,,13,,,,31,75
81240,note_on,245,0,15,,,,,,,,14,,,,31,60
81240,note_on,160,0,5,,,,,,,,3,,,,82,108
81320,note_off,80,0,8,,,,,,,,6,,,,43,64
81320,note_off,80,0,14,,,,,,,,13,,,,31,64
81320,note_off,80,0,1,,,,,,,,0,,,,82,64
81320,note_off,80,0,5,,,,,,,,3,,,,82,64
81320,note_off,80,0,6,,,,,,,,4,,,,79,64
81320,note_off,80,0,11,,,,,,,,10,,,,79,64
81320,note_off,0,0,1,,,,,,,,0,,,,79,64
81320,note_off,80,0,2,,,,,,,,0,,,,43,64
81320,note_off,80,0,13,,,,,,,,12,,,,43,64
81320,note_off,80,0,10,,,,,,,,8,,,,82,64
81320,note_off,80,0,9,,,,,,,,7,,,,31,64
81360,note_on,40,0,13,,,,,,,,12,,,,55,75
81360,note_on,40,0,2,,,,,,,,0,,,,55,92
81360,note_on,40,0,8,,,,,,,,6,,,,55,108
81360,note_on,40,0,9,,,,,,,,7,,,,43,92
81360,note_on,40,0,14,,,,,,,,13,,,,43,75
81440,note_off,80,0,14,,,,,,,,13,,,,43,64
81440,note_off,80,0,13,,,,,,,,12,,,,55,64
81440,note_off,80,0,9,,,,,,,,7,,,,43,64
81440,note_off,80,0,8,,,,,,,,6,,,,55,64
81440,note_off,80,0,2,,,,,,,,0,,,,55,64
81480,note_on,40,0,2,,,,,,,,0,,,,53,92
81480,note_on,160,0,10,,,,,,,,8,,,,62,75
81480,note_on,0,0,1,,,,,,,,0,,,,62,92
81480,note_on,40,0,13,,,,,,,,12,,,,53,75
81480,note_on,40,0,8,,,,,,,,6,,,,53,108
81480,note_on,160,0,1,,,,,,,,0,,,,58,92
81480,note_on,40,0,9,,,,,,,,7,,,,41,92
81480,note_on,160,0,5,,,,,,,,3,,,,62,108
81480,note_on,160,0,6,,,,,,,,4,,,,58,108
81480,note_on,40,0,14,,,,,,,,13,,,,41,75
81480,note_on,160,0,11,,,,,,,,10,,,,58,75
81560,note_off,80,0,8,,,,,,,,6,,,,53,64
81560,note_off,80,0,5,,,,,,,,3,,,,62,64
81560,note_off,80,0,10,,,,,,,,8,,,,62,64
81560,note_off,80,0,13,,,,,,,,12,,,,53,64
81560,note_off,0,0,1,,,,,,,,0,,,,58,64
81560,note_off,80,0,2,,,,,,,,0,,,,53,64
81560,note_off,80,0,6,,,,,,,,4,,,,58,64
81560,note_off,80,0,9,,,,,,,,7,,,,41,64
81560,note_off,80,0,14,,,,,,,,13,,,,41,64
81560,note_off,80,0,11,,,,,,,,10,,,,58,64
81560,note_off,80,0,1,,,,,,,,0,,,,62,64
81600,note_on,40,0,2,,,,,,,,0,,,,51,92
81600,note_on,40,0,13,,,,,,,,12,,,,51,75
81600,note_on,40,0,14,,,,,,,,13,,,,39,75
81600,note_on,40,0,8,,,,,,,,6,,,,51,108
81600,note_on,40,0,9,,,,,,,,7,,,,39,92
81640,note_off,400,0,15,,,,,,,,14,,,,31,64
81640,note_off,400,0,12,,,,,,,,11,,,,62,64
81640,note_off,400,0,7,,,,,,,,5,,,,62,64
81680,note_off,80,0,8,,,,,,,,6,,,,51,64
81680,note_off,80,0,9,,,,,,,,7,,,,39,64
81680,note_off,80,0,13,,,,,,,,12,,,,51,64
81680,note_off,80,0,14,,,,,,,,13,,,,39,64
81680,note_off,80,0,2,,,,,,,,0,,,,51,64
81720,note_on,160,0,6,,,,,,,,4,,,,58,108
81720,note_on,160,0,10,,,,,,,,8,,,,62,75
81720,note_on,80,0,15,,,,,,,,14,,,,38,60
81720,note_on,40,0,9,,,,,,,,7,,,,38,92
81720,note_on,40,0,13,,,,,,,,12,,,,50,75
81720,note_on,160,0,11,,,,,,,,10,,,,58,75
81720,note_on,160,0,5,,,,,,,,3,,,,62,108
81720,note_on,40,0,8,,,,,,,,6,,,,50,108
81720,note_on,0,0,1,,,,,,,,0,,,,62,92
81720,note_on,160,0,1,,,,,,,,0,,,,58,92
81720,note_on,40,0,14,,,,,,,,13,,,,38,75
81720,note_on,40,0,2,,,,,,,,0,,,,50,92
81800,note_off,80,0,2,,,,,,,,0,,,,50,64
81800,note_off,80,0,5,,,,,,,,3,,,,62,64
81800,note_off,80,0,14,,,,,,,,13,,,,38,64
81800,note_off,80,0,8,,,,,,,,6,,,,50,64
81800,note_off,0,0,1,,,,,,,,0,,,,58,64
81800,note_off,80,0,9,,,,,,,,7,,,,38,64
81800,note_off,80,0,10,,,,,,,,8,,,,62,64
81800,note_off,80,0,11,,,,,,,,10,,,,58,64
81800,note_off,80,0,6,,,,,,,,4,,,,58,64
81800,note_off,80,0,1,,,,,,,,0,,,,62,64
81800,note_off,80,0,13,,,,,,,,12,,,,50,64
81840,note_on,40,0,2,,,,,,,,0,,,,48,92
81840,note_on,40,0,14,,,,,,,,13,,,,36,75
81840,note_on,40,0,8,,,,,,,,6,,,,48,108
81840,note_on,40,0,13,,,,,,,,12,,,,48,75
81840,note_on,40,0,9,,,,,,,,7,,,,36,92
81920,note_off,80,0,13,,,,,,,,12,,,,48,64
81920,note_off,80,0,9,,,,,,,,7,,,,36,64
81920,note_off,80,0,8,,,,,,,,6,,,,48,64
81920,note_off,80,0,14,,,,,,,,13,,,,36,64
81920,note_off,80,0,2,,,,,,,,0,,,,48,64
81960,note_on,40,0,9,,,,,,,,7,,,,34,92
81960,note_on,160,0,6,,,,,,,,4,,,,70,108
81960,note_on,0,0,1,,,,,,,,0,,,,74,92
81960,note_on,320,0,12,,,,,,,,11,,,,74,75
81960,note_on,160,0,1,,,,,,,,0,,,,70,92
81960,note_on,40,0,2,,,,,,,,0,,,,46,92
81960,note_on,40,0,8,,,,,,,,6,,,,46,108
81960,note_on,40,0,14,,,,,,,,13,,,,34,75
81960,note_on,160,0,11,,,,,,,,10,,,,70,75
81960,note_on,160,0,10,,,,,,,,8,,,,74,75
81960,note_on,160,0,5,,,,,,,,3,,,,74,108
81960,note_on,40,0,13,,,,,,,,12,,,,46,75
81960,note_on,320,0,7,,,,,,,,5,,,,74,108
82040,note_off,80,0,7,,,,,,,,5,,,,74,64
82040,note_off,80,0,8,,,,,,,,6,,,,46,64
82040,note_off,80,0,6,,,,,,,,4,,,,70,64
82040,note_off,80,0,12,,,,,,,,11,,,,74,64
82040,note_off,80,0,11,,,,,,,,10,,,,70,64
82040,note_off,80,0,14,,,,,,,,13,,,,34,64
82040,note_off,80,0,10,,,,,,,,8,,,,74,64
82040,note_off,80,0,9,,,,,,,,7,,,,34,64
82040,note_off,80,0,1,,,,,,,,0,,,,74,64
82040,note_off,80,0,5,,,,,,,,3,,,,74,64
82040,note_off,80,0,13,,,,,,,,12,,,,46,64
82040,note_off,80,0,2,,,,,,,,0,,,,46,64
82040,note_off,0,0,1,,,,,,,,0,,,,70,64
82080,note_on,40,0,13,,,,,,,,12,,,,45,75
82080,note_on,40,0,8,,,,,,,,6,,,,45,108
82080,note_on,40,0,14,,,,,,,,13,,,,33,75
82080,note_on,40,0,9,,,,,,,,7,,,,33,92
82080,note_on,40,0,2,,,,,,,,0,,,,45,92
82120,note_off,400,0,15,,,,,,,,14,,,,38,64
82160,note_off,80,0,14,,,,,,,,13,,,,33,64
82160,note_off,80,0,9,,,,,,,,7,,,,33,64
82160,note_off,80,0,8,,,,,,,,6,,,,45,64
82160,note_off,80,0,13,,,,,,,,12,,,,45,64
82160,note_off,80,0,2,,,,,,,,0,,,,45,64
82200,note_on,40,0,2,,,,,,,,0,,,,43,92
82200,note_on,160,0,6,,,,,,,,4,,,,74,108
82200,note_on,160,0,1,,,,,,,,0,,,,74,92
82200,note_on,160,0,11,,,,,,,,10,,,,74,75
82200,note_on,40,0,14,,,,,,,,13,,,,31,75
82200,note_on,40,0,13,,,,,,,,12,,,,43,75
82200,note_on,160,0,10,,,,,,,,8,,,,79,75
82200,note_on,80,0,15,,,,,,,,14,,,,31,60
82200,note_on,160,0,12,,,,,,,,11,,,,70,75
82200,note_on,160,0,7,,,,,,,,5,,,,70,108
82200,note_on,40,0,9,,,,,,,,7,,,,31,92
82200,note_on,0,0,1,,,,,,,,0,,,,79,92
82200,note_on,40,0,8,,,,,,,,6,,,,43,108
82200,note_on,160,0,5,,,,,,,,3,,,,79,108
82280,note_off,80,0,11,,,,,,,,10,,,,74,64
82280,note_off,80,0,10,,,,,,,,8,,,,79,64
82280,note_off,0,0,1,,,,,,,,0,,,,74,64
82280,note_off,80,0,8,,,,,,,,6,,,,43,64
82280,note_off,80,0,9,,,,,,,,7,,,,31,64
82280,note_off,80,0,13,,,,,,,,12,,,,43,64
82280,note_off,80,0,14,,,,,,,,13,,,,31,64
82280,note_off,80,0,6,,,,,,,,4,,,,74,64
82280,note_off,80,0,12,,,,,,,,11,,,,70,64
82280,note_off,80,0,2,,,,,,,,0,,,,43,64
82280,note_off,80,0,7,,,,,,,,5,,,,70,64
82280,note_off,80,0,1,,,,,,,,0,,,,79,64
82280,note_off,80,0,5,,,,,,,,3,,,,79,64
82320,note_on,40,0,12,,,,,,,,11,,,,69,75
82320,note_on,40,0,7,,,,,,,,5,,,,69,108
82400,note_off,80,0,12,,,,,,,,11,,,,69,64
82400,note_off,80,0,7,,,,,,,,5,,,,69,64
82435,note_off,235,0,15,,,,,,,,14,,,,31,64
82440,note_on,160,0,5,,,,,,,,3,,,,82,108
82440,note_on,160,0,11,,,,,,,,10,,,,79,75
82440,note_on,40,0,12,,,,,,,,11,,,,67,75
82440,note_on,40,0,7,,,,,,,,5,,,,67,108
82440,note_on,0,0,1,,,,,,,,0,,,,82,92
82440,note_on,160,0,6,,,,,,,,4,,,,79,108
82440,note_on,160,0,10,,,,,,,,8,,,,82,75
82440,note_on,160,0,1,,,,,,,,0,,,,79,92
82520,note_off,80,0,7,,,,,,,,5,,,,67,64
82520,note_off,0,0,1,,,,,,,,0,,,,79,64
82520,note_off,80,0,12,,,,,,,,11,,,,67,64
82520,note_off,80,0,6,,,,,,,,4,,,,79,64
82520,note_off,80,0,10,,,,,,,,8,,,,82,64
82520,note_off,80,0,11,,,,,,,,10,,,,79,64
82520,note_off,80,0,1,,,,,,,,0,,,,82,64
82520,note_off,80,0,5,,,,,,,,3,,,,82,64
82560,note_on,40,0,7,,,,,,,,5,,,,65,108
82560,note_on,40,0,12,,,,,,,,11,,,,65,75
82640,note_off,80,0,12,,,,,,,,11,,,,65,64
82640,note_off,80,0,7,,,,,,,,5,,,,65,64
82680,note_on,160,0,5,,,,,,,,3,,,,82,108
82680,note_on,400,0,8,,,,,,,,6,,,,48,108
82680,note_on,400,0,14,,,,,,,,13,,,,36,75
82680,note_on,160,0,10,,,,,,,,8,,,,82,75
82680,note_on,40,0,12,,,,,,,,11,,,,64,75
82680,note_on,160,0,6,,,,,,,,4,,,,81,108
82680,note_on,160,0,1,,,,,,,,0,,,,81,92
82680,note_on,40,0,7,,,,,,,,5,,,,64,108
82680,note_on,245,0,15,,,,,,,,14,,,,36,60
82680,note_on,400,0,13,,,,,,,,12,,,,48,75
82680,note_on,0,0,1,,,,,,,,0,,,,82,92
82680,note_on,400,0,2,,,,,,,,0,,,,48,92
82680,note_on,400,0,9,,,,,,,,7,,,,36,92
82680,note_on,160,0,11,,,,,,,,10,,,,81,75
82760,note_off,80,0,5,,,,,,,,3,,,,82,64
82760,note_off,80,0,8,,,,,,,,6,,,,48,64
82760,note_off,80,0,1,,,,,,,,0,,,,82,64
82760,note_off,80,0,14,,,,,,,,13,,,,36,64
82760,note_off,80,0,9,,,,,,,,7,,,,36,64
82760,note_off,0,0,1,,,,,,,,0,,,,81,64
82760,note_off,80,0,11,,,,,,,,10,,,,81,64
82760,note_off,80,0,13,,,,,,,,12,,,,48,64
82760,note_off,80,0,10,,,,,,,,8,,,,82,64
82760,note_off,80,0,6,,,,,,,,4,,,,81,64
82760,note_off,80,0,2,,,,,,,,0,,,,48,64
82800,note_on,40,0,9,,,,,,,,7,,,,48,92
82800,note_on,40,0,13,,,,,,,,12,,,,60,75
82800,note_on,40,0,14,,,,,,,,13,,,,48,75
82800,note_on,40,0,2,,,,,,,,0,,,,60,92
82800,note_on,40,0,8,,,,,,,,6,,,,60,108
82880,note_off,80,0,13,,,,,,,,12,,,,60,64
82880,note_off,80,0,14,,,,,,,,13,,,,48,64
82880,note_off,80,0,8,,,,,,,,6,,,,60,64
82880,note_off,80,0,2,,,,,,,,0,,,,60,64
82880,note_off,80,0,9,,,,,,,,7,,,,48,64
82920,note_on,160,0,5,,,,,,,,3,,,,64,108
82920,note_on,160,0,11,,,,,,,,10,,,,60,75
82920,note_on,40,0,2,,,,,,,,0,,,,58,92
82920,note_on,40,0,9,,,,,,,,7,,,,46,92
82920,note_on,40,0,13,,,,,,,,12,,,,58,75
82920,note_on,160,0,1,,,,,,,,0,,,,60,92
82920,note_on,160,0,6,,,,,,,,4,,,,60,108
82920,note_on,40,0,8,,,,,,,,6,,,,58,108
82920,note_on,40,0,14,,,,,,,,13,,,,46,75
82920,note_on,0,0,1,,,,,,,,0,,,,64,92
82920,note_on,160,0,10,,,,,,,,8,,,,64,75
83000,note_off,80,0,6,,,,,,,,4,,,,60,64
83000,note_off,80,0,9,,,,,,,,7,,,,46,64
83000,note_off,80,0,8,,,,,,,,6,,,,58,64
83000,note_off,80,0,11,,,,,,,,10,,,,60,64
83000,note_off,80,0,5,,,,,,,,3,,,,64,64
83000,note_off,80,0,14,,,,,,,,13,,,,46,64
83000,note_off,80,0,13,,,,,,,,12,,,,58,64
83000,note_off,0,0,1,,,,,,,,0,,,,60,64
83000,note_off,80,0,1,,,,,,,,0,,,,64,64
83000,note_off,80,0,2,,,,,,,,0,,,,58,64
83000,note_off,80,0,10,,,,,,,,8,,,,64,64
83040,note_on,40,0,13,,,,,,,,12,,,,57,75
83040,note_on,40,0,9,,,,,,,,7,,,,45,92
83040,note_on,40,0,14,,,,,,,,13,,,,45,75
83040,note_on,40,0,8,,,,,,,,6,,,,57,108
83040,note_on,40,0,2,,,,,,,,0,,,,57,92
83080,note_off,400,0,15,,,,,,,,14,,,,36,64
83080,note_off,400,0,7,,,,,,,,5,,,,64,64
83080,note_off,400,0,12,,,,,,,,11,,,,64,64
83120,note_off,80,0,9,,,,,,,,7,,,,45,64
83120,note_off,80,0,14,,,,,,,,13,,,,45,64
83120,note_off,80,0,8,,,,,,,,6,,,,57,64
83120,note_off,80,0,2,,,,,,,,0,,,,57,64
83120,note_off,80,0,13,,,,,,,,12,,,,57,64
83160,note_on,40,0,14,,,,,,,,13,,,,43,75
83160,note_on,160,0,11,,,,,,,,10,,,,60,75
83160,note_on,80,0,15,,,,,,,,14,,,,43,60
83160,note_on,40,0,9,,,,,,,,7,,,,43,92
83160,note_on,160,0,10,,,,,,,,8,,,,64,75
83160,note_on,160,0,5,,,,,,,,3,,,,64,108
83160,note_on,40,0,8,,,,,,,,6,,,,55,108
83160,note_on,40,0,2,,,,,,,,0,,,,55,92
83160,note_on,40,0,13,,,,,,,,12,,,,55,75
83160,note_on,0,0,1,,,,,,,,0,,,,64,92
83160,note_on,160,0,1,,,,,,,,0,,,,60,92
83160,note_on,160,0,6,,,,,,,,4,,,,60,108
83240,note_off,80,0,8,,,,,,,,6,,,,55,64
83240,note_off,80,0,13,,,,,,,,12,,,,55,64
83240,note_off,80,0,2,,,,,,,,0,,,,55,64
83240,note_off,80,0,5,,,,,,,,3,,,,64,64
83240,note_off,80,0,1,,,,,,,,0,,,,64,64
83240,note_off,80,0,11,,,,,,,,10,,,,60,64
83240,note_off,80,0,6,,,,,,,,4,,,,60,64
83240,note_off,0,0,1,,,,,,,,0,,,,60,64
83240,note_off,80,0,10,,,,,,,,8,,,,64,64
83240,note_off,80,0,9,,,,,,,,7,,,,43,64
83240,note_off,80,0,14,,,,,,,,13,,,,43,64
83280,note_on,40,0,13,,,,,,,,12,,,,53,75
83280,note_on,40,0,9,,,,,,,,7,,,,41,92
83280,note_on,40,0,14,,,,,,,,13,,,,41,75
83280,note_on,40,0,8,,,,,,,,6,,,,53,108
83280,note_on,40,0,2,,,,,,,,0,,,,53,92
83360,note_off,80,0,14,,,,,,,,13,,,,41,64
83360,note_off,80,0,2,,,,,,,,0,,,,53,64
83360,note_off,80,0,9,,,,,,,,7,,,,41,64
83360,note_off,80,0,8,,,,,,,,6,,,,53,64
83360,note_off,80,0,13,,,,,,,,12,,,,53,64
83400,note_on,320,0,12,,,,,,,,11,,,,67,75
83400,note_on,160,0,1,,,,,,,,0,,,,72,92
83400,note_on,0,0,1,,,,,,,,0,,,,76,92
83400,note_on,40,0,2,,,,,,,,0,,,,52,92
83400,note_on,40,0,14,,,,,,,,13,,,,40,75
83400,note_on,160,0,10,,,,,,,,8,,,,76,75
83400,note_on,320,0,7,,,,,,,,5,,,,67,108
83400,note_on,40,0,9,,,,,,,,7,,,,40,92
83400,note_on,40,0,8,,,,,,,,6,,,,52,108
83400,note_on,40,0,13,,,,,,,,12,,,,52,75
83400,note_on,160,0,5,,,,,,,,3,,,,76,108
83400,note_on,160,0,11,,,,,,,,10,,,,72,75
83400,note_on,160,0,6,,,,,,,,4,,,,72,108
83480,note_off,80,0,10,,,,,,,,8,,,,76,64
83480,note_off,80,0,9,,,,,,,,7,,,,40,64
83480,note_off,80,0,6,,,,,,,,4,,,,72,64
83480,note_off,80,0,13,,,,,,,,12,,,,52,64
83480,note_off,80,0,12,,,,,,,,11,,,,67,64
83480,note_off,80,0,7,,,,,,,,5,,,,67,64
83480,note_off,80,0,2,,,,,,,,0,,,,52,64
83480,note_off,80,0,14,,,,,,,,13,,,,40,64
83480,note_off,80,0,8,,,,,,,,6,,,,52,64
83480,note_off,80,0,11,,,,,,,,10,,,,72,64
83480,note_off,80,0,5,,,,,,,,3,,,,76,64
83480,note_off,0,0,1,,,,,,,,0,,,,72,64
83480,note_off,80,0,1,,,,,,,,0,,,,76,64
83520,note_on,40,0,14,,,,,,,,13,,,,38,75
83520,note_on,40,0,9,,,,,,,,7,,,,38,92
83520,note_on,40,0,13,,,,,,,,12,,,,50,75
83520,note_on,40,0,8,,,,,,,,6,,,,50,108
83520,note_on,40,0,2,,,,,,,,0,,,,50,92
83560,note_off,400,0,15,,,,,,,,14,,,,43,64
83600,note_off,80,0,9,,,,,,,,7,,,,38,64
83600,note_off,80,0,13,,,,,,,,12,,,,50,64
83600,note_off,80,0,2,,,,,,,,0,,,,50,64
83600,note_off,80,0,8,,,,,,,,6,,,,50,64
83600,note_off,80,0,14,,,,,,,,13,,,,38,64
83640,note_on,80,0,15,,,,,,,,14,,,,36,60
83640,note_on,40,0,8,,,,,,,,6,,,,48,108
83640,note_on,160,0,7,,,,,,,,5,,,,64,108
83640,note_on,160,0,5,,,,,,,,3,,,,79,108
83640,note_on,40,0,9,,,,,,,,7,,,,36,92
83640,note_on,40,0,14,,,,,,,,13,,,,36,75
83640,note_on,160,0,11,,,,,,,,10,,,,76,75
83640,note_on,160,0,10,,,,,,,,8,,,,79,75
83640,note_on,0,0,1,,,,,,,,0,,,,79,92
83640,note_on,40,0,13,,,,,,,,12,,,,48,75
83640,note_on,40,0,2,,,,,,,,0,,,,48,92
83640,note_on,160,0,12,,,,,,,,11,,,,64,75
83640,note_on,160,0,6,,,,,,,,4,,,,76,108
83640,note_on,160,0,1,,,,,,,,0,,,,76,92
83720,note_off,80,0,1,,,,,,,,0,,,,79,64
83720,note_off,80,0,11,,,,,,,,10,,,,76,64
83720,note_off,80,0,2,,,,,,,,0,,,,48,64
83720,note_off,80,0,7,,,,,,,,5,,,,64,64
83720,note_off,80,0,5,,,,,,,,3,,,,79,64
83720,note_off,80,0,8,,,,,,,,6,,,,48,64
83720,note_off,80,0,9,,,,,,,,7,,,,36,64
83720,note_off,80,0,14,,,,,,,,13,,,,36,64
83720,note_off,80,0,12,,,,,,,,11,,,,64,64
83720,note_off,80,0,13,,,,,,,,12,,,,48,64
83720,note_off,80,0,10,,,,,,,,8,,,,79,64
83720,note_off,0,0,1,,,,,,,,0,,,,76,64
83720,note_off,80,0,6,,,,,,,,4,,,,76,64
83760,note_on,40,0,12,,,,,,,,11,,,,62,75
83760,note_on,40,0,7,,,,,,,,5,,,,62,108
83840,note_off,80,0,7,,,,,,,,5,,,,62,64
83840,note_off,80,0,12,,,,,,,,11,,,,62,64
83875,note_off,235,0,15,,,,,,,,14,,,,36,64
83880,note_on,40,0,12,,,,,,,,11,,,,60,75
83880,note_on,160,0,5,,,,,,,,3,,,,82,108
83880,note_on,160,0,6,,,,,,,,4,,,,79,108
83880,note_on,40,0,7,,,,,,,,5,,,,60,108
83880,note_on,160,0,11,,,,,,,,10,,,,79,75
83880,note_on,160,0,1,,,,,,,,0,,,,79,92
83880,note_on,160,0,10,,,,,,,,8,,,,82,75
83880,note_on,0,0,1,,,,,,,,0,,,,82,92
83960,note_off,80,0,11,,,,,,,,10,,,,79,64
83960,note_off,80,0,10,,,,,,,,8,,,,82,64
83960,note_off,80,0,7,,,,,,,,5,,,,60,64
83960,note_off,80,0,5,,,,,,,,3,,,,82,64
83960,note_off,0,0,1,,,,,,,,0,,,,79,64
83960,note_off,80,0,1,,,,,,,,0,,,,82,64
83960,note_off,80,0,12,,,,,,,,11,,,,60,64
83960,note_off,80,0,6,,,,,,,,4,,,,79,64
84000,note_on,40,0,7,,,,,,,,5,,,,58,108
84000,note_on,40,0,12,,,,,,,,11,,,,58,75
84080,note_off,80,0,7,,,,,,,,5,,,,58,64
84080,note_off,80,0,12,,,,,,,,11,,,,58,64
84120,note_on,245,0,15,,,,,,,,14,,,,29,60
84120,note_on,160,0,10,,,,,,,,8,,,,81,75
84120,note_on,160,0,6,,,,,,,,4,,,,77,108
84120,note_on,400,0,9,,,,,,,,7,,,,29,92
84120,note_on,160,0,5,,,,,,,,3,,,,81,108
84120,note_on,160,0,1,,,,,,,,0,,,,77,92
84120,note_on,400,0,13,,,,,,,,12,,,,41,75
84120,note_on,400,0,14,,,,,,,,13,,,,29,75
84120,note_on,400,0,2,,,,,,,,0,,,,41,92
84120,note_on,40,0,12,,,,,,,,11,,,,60,75
84120,note_on,400,0,8,,,,,,,,6,,,,41,108
84120,note_on,40,0,7,,,,,,,,5,,,,60,108
84120,note_on,160,0,11,,,,,,,,10,,,,77,75
84120,note_on,0,0,1,,,,,,,,0,,,,81,92
84200,note_off,80,0,10,,,,,,,,8,,,,81,64
84200,note_off,80,0,9,,,,,,,,7,,,,29,64
84200,note_off,80,0,8,,,,,,,,6,,,,41,64
84200,note_off,80,0,2,,,,,,,,0,,,,41,64
84200,note_off,0,0,1,,,,,,,,0,,,,77,64
84200,note_off,80,0,5,,,,,,,,3,,,,81,64
84200,note_off,80,0,6,,,,,,,,4,,,,77,64
84200,note_off,80,0,11,,,,,,,,10,,,,77,64
84200,note_off,80,0,14,,,,,,,,13,,,,29,64
84200,note_off,80,0,13,,,,,,,,12,,,,41,64
84200,note_off,80,0,1,,,,,,,,0,,,,81,64
84240,note_on,40,0,14,,,,,,,,13,,,,41,75
84240,note_on,40,0,8,,,,,,,,6,,,,53,108
84240,note_on,40,0,9,,,,,,,,7,,,,41,92
84240,note_on,40,0,2,,,,,,,,0,,,,53,92
84240,note_on,40,0,13,,,,,,,,12,,,,53,75
84320,note_off,80,0,8,,,,,,,,6,,,,53,64
84320,note_off,80,0,9,,,,,,,,7,,,,41,64
84320,note_off,80,0,13,,,,,,,,12,,,,53,64
84320,note_off,80,0,2,,,,,,,,0,,,,53,64
84320,note_off,80,0,14,,,,,,,,13,,,,41,64
84360,note_on,40,0,13,,,,,,,,12,,,,52,75
84360,note_on,0,0,1,,,,,,,,0,,,,65,92
84360,note_on,160,0,1,,,,,,,,0,,,,60,92
84360,note_on,40,0,8,,,,,,,,6,,,,52,108
84360,note_on,40,0,2,,,,,,,,0,,,,52,92
84360,note_on,160,0,11,,,,,,,,10,,,,60,75
84360,note_on,160,0,10,,,,,,,,8,,,,65,75
84360,note_on,160,0,5,,,,,,,,3,,,,65,108
84360,note_on,40,0,14,,,,,,,,13,,,,40,75
84360,note_on,160,0,6,,,,,,,,4,,,,60,108
84360,note_on,40,0,9,,,,,,,,7,,,,40,92
84440,note_off,80,0,14,,,,,,,,13,,,,40,64
84440,note_off,80,0,2,,,,,,,,0,,,,52,64
84440,note_off,80,0,6,,,,,,,,4,,,,60,64
84440,note_off,80,0,13,,,,,,,,12,,,,52,64
84440,note_off,80,0,9,,,,,,,,7,,,,40,64
84440,note_off,80,0,1,,,,,,,,0,,,,65,64
84440,note_off,80,0,5,,,,,,,,3,,,,65,64
84440,note_off,0,0,1,,,,,,,,0,,,,60,64
84440,note_off,80,0,10,,,,,,,,8,,,,65,64
84440,note_off,80,0,8,,,,,,,,6,,,,52,64
84440,note_off,80,0,11,,,,,,,,10,,,,60,64
84480,note_on,40,0,9,,,,,,,,7,,,,38,92
84480,note_on,40,0,2,,,,,,,,0,,,,50,92
84480,note_on,40,0,8,,,,,,,,6,,,,50,108
84480,note_on,40,0,13,,,,,,,,12,,,,50,75
84480,note_on,40,0,14,,,,,,,,13,,,,38,75
84520,note_off,400,0,12,,,,,,,,11,,,,60,64
84520,note_off,400,0,15,,,,,,,,14,,,,29,64
84520,note_off,400,0,7,,,,,,,,5,,,,60,64
84560,note_off,80,0,9,,,,,,,,7,,,,38,64
84560,note_off,80,0,13,,,,,,,,12,,,,50,64
84560,note_off,80,0,2,,,,,,,,0,,,,50,64
84560,note_off,80,0,8,,,,,,,,6,,,,50,64
84560,note_off,80,0,14,,,,,,,,13,,,,38,64
84600,note_on,160,0,10,,,,,,,,8,,,,65,75
84600,note_on,40,0,2,,,,,,,,0,,,,48,92
84600,note_on,40,0,8,,,,,,,,6,,,,48,108
84600,note_on,40,0,9,,,,,,,,7,,,,36,92
84600,note_on,160,0,5,,,,,,,,3,,,,65,108
84600,note_on,0,0,1,,,,,,,,0,,,,65,92
84600,note_on,40,0,14,,,,,,,,13,,,,36,75
84600,note_on,160,0,6,,,,,,,,4,,,,60,108
84600,note_on,80,0,15,,,,,,,,14,,,,36,60
84600,note_on,160,0,1,,,,,,,,0,,,,60,92
84600,note_on,40,0,13,,,,,,,,12,,,,48,75
84600,note_on,160,0,11,,,,,,,,10,,,,60,75
84680,note_off,80,0,6,,,,,,,,4,,,,60,64
84680,note_off,80,0,1,,,,,,,,0,,,,65,64
84680,note_off,80,0,14,,,,,,,,13,,,,36,64
84680,note_off,80,0,5,,,,,,,,3,,,,65,64
84680,note_off,0,0,1,,,,,,,,0,,,,60,64
84680,note_off,80,0,9,,,,,,,,7,,,,36,64
84680,note_off,80,0,11,,,,,,,,10,,,,60,64
84680,note_off,80,0,8,,,,,,,,6,,,,48,64
84680,note_off,80,0,13,,,,,,,,12,,,,48,64
84680,note_off,80,0,10,,,,,,,,8,,,,65,64
84680,note_off,80,0,2,,,,,,,,0,,,,48,64
84720,note_on,40,0,8,,,,,,,,6,,,,46,108
84720,note_on,40,0,9,,,,,,,,7,,,,34,92
84720,note_on,40,0,13,,,,,,,,12,,,,46,75
84720,note_on,40,0,2,,,,,,,,0,,,,46,92
84720,note_on,40,0,14,,,,,,,,13,,,,34,75
84800,note_off,80,0,9,,,,,,,,7,,,,34,64
84800,note_off,80,0,8,,,,,,,,6,,,,46,64
84800,note_off,80,0,13,,,,,,,,12,,,,46,64
84800,note_off,80,0,2,,,,,,,,0,,,,46,64
84800,note_off,80,0,14,,,,,,,,13,,,,34,64
84840,note_on,320,0,7,,,,,,,,5,,,,72,108
84840,note_on,160,0,6,,,,,,,,4,,,,69,108
84840,note_on,0,0,1,,,,,,,,0,,,,72,92
84840,note_on,160,0,11,,,,,,,,10,,,,69,75
84840,note_on,40,0,9,,,,,,,,7,,,,33,92
84840,note_on,160,0,10,,,,,,,,8,,,,72,75
84840,note_on,40,0,14,,,,,,,,13,,,,33,75
84840,note_on,40,0,2,,,,,,,,0,,,,45,92
84840,note_on,40,0,13,,,,,,,,12,,,,45,75
84840,note_on,40,0,8,,,,,,,,6,,,,45,108
84840,note_on,320,0,12,,,,,,,,11,,,,72,75
84840,note_on,160,0,5,,,,,,,,3,,,,72,108
84840,note_on,160,0,1,,,,,,,,0,,,,69,92
84920,note_off,80,0,2,,,,,,,,0,,,,45,64
84920,note_off,80,0,7,,,,,,,,5,,,,72,64
84920,note_off,80,0,11,,,,,,,,10,,,,69,64
84920,note_off,80,0,1,,,,,,,,0,,,,72,64
84920,note_off,0,0,1,,,,,,,,0,,,,69,64
84920,note_off,80,0,6,,,,,,,,4,,,,69,64
84920,note_off,80,0,9,,,,,,,,7,,,,33,64
84920,note_off,80,0,10,,,,,,,,8,,,,72,64
84920,note_off,80,0,12,,,,,,,,11,,,,72,64
84920,note_off,80,0,13,,,,,,,,12,,,,45,64
84920,note_off,80,0,5,,,,,,,,3,,,,72,64
84920,note_off,80,0,14,,,,,,,,13,,,,33,64
84920,note_off,80,0,8,,,,,,,,6,,,,45,64
84960,note_on,40,0,9,,,,,,,,7,,,,31,92
84960,note_on,40,0,2,,,,,,,,0,,,,43,92
84960,note_on,40,0,14,,,,,,,,13,,,,31,75
84960,note_on,40,0,13,,,,,,,,12,,,,43,75
84960,note_on,40,0,8,,,,,,,,6,,,,43,108
85000,note_off,400,0,15,,,,,,,,14,,,,36,64
85040,note_off,80,0,13,,,,,,,,12,,,,43,64
85040,note_off,80,0,14,,,,,,,,13,,,,31,64
85040,note_off,80,0,9,,,,,,,,7,,,,31,64
85040,note_off,80,0,2,,,,,,,,0,,,,43,64
85040,note_off,80,0,8,,,,,,,,6,,,,43,64
85080,note_on,40,0,14,,,,,,,,13,,,,29,75
85080,note_on,40,0,2,,,,,,,,0,,,,41,92
85080,note_on,160,0,6,,,,,,,,4,,,,72,108
85080,note_on,160,0,7,,,,,,,,5,,,,69,108
85080,note_on,40,0,13,,,,,,,,12,,,,41,75
85080,note_on,160,0,12,,,,,,,,11,,,,69,75
85080,note_on,160,0,11,,,,,,,,10,,,,72,75
85080,note_on,160,0,5,,,,,,,,3,,,,77,108
85080,note_on,80,0,15,,,,,,,,14,,,,29,60
85080,note_on,40,0,8,,,,,,,,6,,,,41,108
85080,note_on,160,0,1,,,,,,,,0,,,,72,92
85080,note_on,40,0,9,,,,,,,,7,,,,29,92
85080,note_on,0,0,1,,,,,,,,0,,,,77,92
85080,note_on,160,0,10,,,,,,,,8,,,,77,75
85160,note_off,80,0,10,,,,,,,,8,,,,77,64
85160,note_off,80,0,11,,,,,,,,10,,,,72,64
85160,note_off,80,0,5,,,,,,,,3,,,,77,64
85160,note_off,80,0,8,,,,,,,,6,,,,41,64
85160,note_off,80,0,1,,,,,,,,0,,,,77,64
85160,note_off,0,0,1,,,,,,,,0,,,,72,64
85160,note_off,80,0,2,,,,,,,,0,,,,41,64
85160,note_off,80,0,12,,,,,,,,11,,,,69,64
85160,note_off,80,0,13,,,,,,,,12,,,,41,64
85160,note_off,80,0,9,,,,,,,,7,,,,29,64
85160,note_off,80,0,6,,,,,,,,4,,,,72,64
85160,note_off,80,0,14,,,,,,,,13,,,,29,64
85160,note_off,80,0,7,,,,,,,,5,,,,69,64
85200,note_on,40,0,12,,,,,,,,11,,,,67,75
85200,note_on,40,0,7,,,,,,,,5,,,,67,108
85280,note_off,80,0,12,,,,,,,,11,,,,67,64
85280,note_off,80,0,7,,,,,,,,5,,,,67,64
85315,note_off,235,0,15,,,,,,,,14,,,,29,64
85320,note_on,0,0,1,,,,,,,,0,,,,81,92
85320,note_on,160,0,1,,,,,,,,0,,,,77,92
85320,note_on,160,0,5,,,,,,,,3,,,,81,108
85320,note_on,40,0,7,,,,,,,,5,,,,65,108
85320,note_on,40,0,12,,,,,,,,11,,,,65,75
85320,note_on,160,0,11,,,,,,,,10,,,,77,75
85320,note_on,160,0,6,,,,,,,,4,,,,77,108
85320,note_on,160,0,10,,,,,,,,8,,,,81,75
85400,note_off,80,0,5,,,,,,,,3,,,,81,64
85400,note_off,80,0,12,,,,,,,,11,,,,65,64
85400,note_off,80,0,1,,,,,,,,0,,,,81,64
85400,note_off,80,0,10,,,,,,,,8,,,,81,64
85400,note_off,80,0,6,,,,,,,,4,,,,77,64
85400,note_off,80,0,7,,,,,,,,5,,,,65,64
85400,note_off,80,0,11,,,,,,,,10,,,,77,64
85400,note_off,0,0,1,,,,,,,,0,,,,77,64
85440,note_on,40,0,12,,,,,,,,11,,,,63,75
85440,note_on,40,0,7,,,,,,,,5,,,,63,108
85520,note_off,80,0,12,,,,,,,,11,,,,63,64
85520,note_off,80,0,7,,,,,,,,5,,,,63,64
85560,note_on,160,0,1,,,,,,,,0,,,,77,92
85560,note_on,160,0,10,,,,,,,,8,,,,81,75
85560,note_on,160,0,6,,,,,,,,4,,,,77,108
85560,note_on,0,0,1,,,,,,,,0,,,,81,92
85560,note_on,40,0,7,,,,,,,,5,,,,62,108
85560,note_on,400,0,13,,,,,,,,12,,,,46,75
85560,note_on,245,0,15,,,,,,,,14,,,,34,60
85560,note_on,160,0,5,,,,,,,,3,,,,81,108
85560,note_on,400,0,9,,,,,,,,7,,,,34,92
85560,note_on,400,0,8,,,,,,,,6,,,,46,108
85560,note_on,400,0,14,,,,,,,,13,,,,34,75
85560,note_on,40,0,12,,,,,,,,11,,,,62,75
85560,note_on,160,0,11,,,,,,,,10,,,,77,75
85560,note_on,400,0,2,,,,,,,,0,,,,46,92
85640,note_off,80,0,14,,,,,,,,13,,,,34,64
85640,note_off,80,0,6,,,,,,,,4,,,,77,64
85640,note_off,80,0,8,,,,,,,,6,,,,46,64
85640,note_off,0,0,1,,,,,,,,0,,,,77,64
85640,note_off,80,0,10,,,,,,,,8,,,,81,64
85640,note_off,80,0,1,,,,,,,,0,,,,81,64
85640,note_off,80,0,5,,,,,,,,3,,,,81,64
85640,note_off,80,0,13,,,,,,,,12,,,,46,64
85640,note_off,80,0,11,,,,,,,,10,,,,77,64
85640,note_off,80,0,9,,,,,,,,7,,,,34,64
85640,note_off,80,0,2,,,,,,,,0,,,,46,64
85680,note_on,40,0,9,,,,,,,,7,,,,46,92
85680,note_on,40,0,8,,,,,,,,6,,,,58,108
85680,note_on,40,0,13,,,,,,,,12,,,,58,75
85680,note_on,40,0,14,,,,,,,,13,,,,46,75
85680,note_on,40,0,2,,,,,,,,0,,,,58,92
85760,note_off,80,0,8,,,,,,,,6,,,,58,64
85760,note_off,80,0,2,,,,,,,,0,,,,58,64
85760,note_off,80,0,13,,,,,,,,12,,,,58,64
85760,note_off,80,0,14,,,,,,,,13,,,,46,64
85760,note_off,80,0,9,,,,,,,,7,,,,46,64
85800,note_on,40,0,8,,,,,,,,6,,,,57,108
85800,note_on,160,0,5,,,,,,,,3,,,,62,108
85800,note_on,40,0,13,,,,,,,,12,,,,57,75
85800,note_on,40,0,14,,,,,,,,13,,,,45,75
85800,note_on,40,0,9,,,,,,,,7,,,,45,92
85800,note_on,160,0,10,,,,,,,,8,,,,62,75
85800,note_on,160,0,6,,,,,,,,4,,,,58,108
85800,note_on,0,0,1,,,,,,,,0,,,,62,92
85800,note_on,160,0,1,,,,,,,,0,,,,58,92
85800,note_on,40,0,2,,,,,,,,0,,,,57,92
85800,note_on,160,0,11,,,,,,,,10,,,,58,75
85880,note_off,80,0,9,,,,,,,,7,,,,45,64
85880,note_off,80,0,5,,,,,,,,3,,,,62,64
85880,note_off,80,0,11,,,,,,,,10,,,,58,64
85880,note_off,80,0,1,,,,,,,,0,,,,62,64
85880,note_off,80,0,8,,,,,,,,6,,,,57,64
85880,note_off,80,0,13,,,,,,,,12,,,,57,64
85880,note_off,80,0,10,,,,,,,,8,,,,62,64
85880,note_off,80,0,6,,,,,,,,4,,,,58,64
85880,note_off,80,0,14,,,,,,,,13,,,,45,64
85880,note_off,0,0,1,,,,,,,,0,,,,58,64
85880,note_off,80,0,2,,,,,,,,0,,,,57,64
85920,note_on,40,0,9,,,,,,,,7,,,,43,92
85920,note_on,40,0,14,,,,,,,,13,,,,43,75
85920,note_on,40,0,8,,,,,,,,6,,,,55,108
85920,note_on,40,0,13,,,,,,,,12,,,,55,75
85920,note_on,40,0,2,,,,,,,,0,,,,55,92
85960,note_off,400,0,12,,,,,,,,11,,,,62,64
85960,note_off,400,0,7,,,,,,,,5,,,,62,64
85960,note_off,400,0,15,,,,,,,,14,,,,34,64
86000,note_off,80,0,14,,,,,,,,13,,,,43,64
86000,note_off,80,0,13,,,,,,,,12,,,,55,64
86000,note_off,80,0,8,,,,,,,,6,,,,55,64
86000,note_off,80,0,9,,,,,,,,7,,,,43,64
86000,note_off,80,0,2,,,,,,,,0,,,,55,64
86040,note_on,0,0,1,,,,,,,,0,,,,62,92
86040,note_on,160,0,11,,,,,,,,10,,,,58,75
86040,note_on,40,0,14,,,,,,,,13,,,,41,75
86040,note_on,40,0,8,,,,,,,,6,,,,53,108
86040,note_on,80,0,15,,,,,,,,14,,,,41,60
86040,note_on,160,0,6,,,,,,,,4,,,,58,108
86040,note_on,40,0,9,,,,,,,,7,,,,41,92
86040,note_on,160,0,10,,,,,,,,8,,,,62,75
86040,note_on,160,0,1,,,,,,,,0,,,,58,92
86040,note_on,40,0,2,,,,,,,,0,,,,53,92
86040,note_on,40,0,13,,,,,,,,12,,,,53,75
86040,note_on,160,0,5,,,,,,,,3,,,,62,108
86120,note_off,80,0,13,,,,,,,,12,,,,53,64
86120,note_off,80,0,2,,,,,,,,0,,,,53,64
86120,note_off,80,0,11,,,,,,,,10,,,,58,64
86120,note_off,80,0,8,,,,,,,,6,,,,53,64
86120,note_off,80,0,14,,,,,,,,13,,,,41,64
86120,note_off,0,0,1,,,,,,,,0,,,,58,64
86120,note_off,80,0,1,,,,,,,,0,,,,62,64
86120,note_off,80,0,6,,,,,,,,4,,,,58,64
86120,note_off,80,0,10,,,,,,,,8,,,,62,64
86120,note_off,80,0,9,,,,,,,,7,,,,41,64
86120,note_off,80,0,5,,,,,,,,3,,,,62,64
86160,note_on,40,0,14,,,,,,,,13,,,,39,75
86160,note_on,40,0,2,,,,,,,,0,,,,51,92
86160,note_on,40,0,9,,,,,,,,7,,,,39,92
86160,note_on,40,0,13,,,,,,,,12,,,,51,75
86160,note_on,40,0,8,,,,,,,,6,,,,51,108
86240,note_off,80,0,2,,,,,,,,0,,,,51,64
86240,note_off,80,0,9,,,,,,,,7,,,,39,64
86240,note_off,80,0,8,,,,,,,,6,,,,51,64
86240,note_off,80,0,14,,,,,,,,13,,,,39,64
86240,note_off,80,0,13,,,,,,,,12,,,,51,64
86280,note_on,320,0,7,,,,,,,,5,,,,65,108
86280,note_on,40,0,13,,,,,,,,12,,,,50,75
86280,note_on,320,0,12,,,,,,,,11,,,,65,75
86280,note_on,40,0,8,,,,,,,,6,,,,50,108
86280,note_on,160,0,5,,,,,,,,3,,,,74,108
86280,note_on,160,0,6,,,,,,,,4,,,,70,108
86280,note_on,160,0,10,,,,,,,,8,,,,74,75
86280,note_on,160,0,11,,,,,,,,10,,,,70,75
86280,note_on,40,0,2,,,,,,,,0,,,,50,92
86280,note_on,0,0,1,,,,,,,,0,,,,74,92
86280,note_on,160,0,1,,,,,,,,0,,,,70,92
86280,note_on,40,0,14,,,,,,,,13,,,,38,75
86280,note_on,40,0,9,,,,,,,,7,,,,38,92
86360,note_off,80,0,7,,,,,,,,5,,,,65,64
86360,note_off,80,0,2,,,,,,,,0,,,,50,64
86360,note_off,80,0,12,,,,,,,,11,,,,65,64
86360,note_off,80,0,10,,,,,,,,8,,,,74,64
86360,note_off,80,0,6,,,,,,,,4,,,,70,64
86360,note_off,80,0,8,,,,,,,,6,,,,50,64
86360,note_off,80,0,13,,,,,,,,12,,,,50,64
86360,note_off,80,0,11,,,,,,,,10,,,,70,64
86360,note_off,80,0,5,,,,,,,,3,,,,74,64
86360,note_off,0,0,1,,,,,,,,0,,,,70,64
86360,note_off,80,0,1,,,,,,,,0,,,,74,64
86360,note_off,80,0,14,,,,,,,,13,,,,38,64
86360,note_off,80,0,9,,,,,,,,7,,,,38,64
86400,note_on,40,0,14,,,,,,,,13,,,,36,75
86400,note_on,40,0,2,,,,,,,,0,,,,48,92
86400,note_on,40,0,8,,,,,,,,6,,,,48,108
86400,note_on,40,0,9,,,,,,,,7,,,,36,92
86400,note_on,40,0,13,,,,,,,,12,,,,48,75
86440,note_off,400,0,15,,,,,,,,14,,,,41,64
86480,note_off,80,0,2,,,,,,,,0,,,,48,64
86480,note_off,80,0,9,,,,,,,,7,,,,36,64
86480,note_off,80,0,13,,,,,,,,12,,,,48,64
86480,note_off,80,0,14,,,,,,,,13,,,,36,64
86480,note_off,80,0,8,,,,,,,,6,,,,48,64
86520,note_on,160,0,7,,,,,,,,5,,,,62,108
86520,note_on,40,0,13,,,,,,,,12,,,,46,75
86520,note_on,80,0,15,,,,,,,,14,,,,34,60
86520,note_on,160,0,5,,,,,,,,3,,,,77,108
86520,note_on,160,0,6,,,,,,,,4,,,,74,108
86520,note_on,40,0,14,,,,,,,,13,,,,34,75
86520,note_on,40,0,8,,,,,,,,6,,,,46,108
86520,note_on,160,0,11,,,,,,,,10,,,,74,75
86520,note_on,160,0,12,,,,,,,,11,,,,62,75
86520,note_on,40,0,9,,,,,,,,7,,,,34,92
86520,note_on,40,0,2,,,,,,,,0,,,,46,92
86520,note_on,0,0,1,,,,,,,,0,,,,77,92
86520,note_on,160,0,1,,,,,,,,0,,,,74,92
86520,note_on,160,0,10,,,,,,,,8,,,,77,75
86600,note_off,80,0,6,,,,,,,,4,,,,74,64
86600,note_off,80,0,13,,,,,,,,12,,,,46,64
86600,note_off,0,0,1,,,,,,,,0,,,,74,64
86600,note_off,80,0,1,,,,,,,,0,,,,77,64
86600,note_off,80,0,7,,,,,,,,5,,,,62,64
86600,note_off,80,0,8,,,,,,,,6,,,,46,64
86600,note_off,80,0,5,,,,,,,,3,,,,77,64
86600,note_off,80,0,11,,,,,,,,10,,,,74,64
86600,note_off,80,0,14,,,,,,,,13,,,,34,64
86600,note_off,80,0,12,,,,,,,,11,,,,62,64
86600,note_off,80,0,2,,,,,,,,0,,,,46,64
86600,note_off,80,0,9,,,,,,,,7,,,,34,64
86600,note_off,80,0,10,,,,,,,,8,,,,77,64
86640,note_on,40,0,12,,,,,,,,11,,,,60,75
86640,note_on,40,0,7,,,,,,,,5,,,,60,108
86720,note_off,80,0,12,,,,,,,,11,,,,60,64
86720,note_off,80,0,7,,,,,,,,5,,,,60,64
86755,note_off,235,0,15,,,,,,,,14,,,,34,64
86760,note_on,160,0,10,,,,,,,,8,,,,81,75
86760,note_on,40,0,7,,,,,,,,5,,,,58,108
86760,note_on,160,0,11,,,,,,,,10,,,,77,75
86760,note_on,160,0,1,,,,,,,,0,,,,77,92
86760,note_on,0,0,1,,,,,,,,0,,,,81,92
86760,note_on,160,0,6,,,,,,,,4,,,,77,108
86760,note_on,160,0,5,,,,,,,,3,,,,81,108
86760,note_on,40,0,12,,,,,,,,11,,,,58,75
86840,note_off,80,0,7,,,,,,,,5,,,,58,64
86840,note_off,80,0,12,,,,,,,,11,,,,58,64
86840,note_off,80,0,10,,,,,,,,8,,,,81,64
86840,note_off,0,0,1,,,,,,,,0,,,,77,64
86840,note_off,80,0,6,,,,,,,,4,,,,77,64
86840,note_off,80,0,1,,,,,,,,0,,,,81,64
86840,note_off,80,0,11,,,,,,,,10,,,,77,64
86840,note_off,80,0,5,,,,,,,,3,,,,81,64
86880,note_on,40,0,12,,,,,,,,11,,,,57,75
86880,note_on,40,0,7,,,,,,,,5,,,,57,108
86960,note_off,80,0,12,,,,,,,,11,,,,57,64
86960,note_off,80,0,7,,,,,,,,5,,,,57,64
87000,note_on,40,0,7,,,,,,,,5,,,,58,108
87000,note_on,400,0,8,,,,,,,,6,,,,39,108
87000,note_on,40,0,12,,,,,,,,11,,,,58,75
87000,note_on,0,0,1,,,,,,,,0,,,,79,92
87000,note_on,160,0,6,,,,,,,,4,,,,75,108
87000,note_on,400,0,13,,,,,,,,12,,,,39,75
87000,note_on,160,0,10,,,,,,,,8,,,,79,75
87000,note_on,245,0,15,,,,,,,,14,,,,39,60
87000,note_on,160,0,5,,,,,,,,3,,,,79,108
87000,note_on,160,0,11,,,,,,,,10,,,,75,75
87000,note_on,400,0,2,,,,,,,,0,,,,39,92
87000,note_on,400,0,9,,,,,,,,7,,,,27,92
87000,note_on,400,0,14,,,,,,,,13,,,,27,75
87000,note_on,160,0,1,,,,,,,,0,,,,75,92
87080,note_off,80,0,11,,,,,,,,10,,,,75,64
87080,note_off,80,0,6,,,,,,,,4,,,,75,64
87080,note_off,80,0,14,,,,,,,,13,,,,27,64
87080,note_off,80,0,2,,,,,,,,0,,,,39,64
87080,note_off,80,0,9,,,,,,,,7,,,,27,64
87080,note_off,80,0,5,,,,,,,,3,,,,79,64
87080,note_off,80,0,8,,,,,,,,6,,,,39,64
87080,note_off,80,0,13,,,,,,,,12,,,,39,64
87080,note_off,80,0,10,,,,,,,,8,,,,79,64
87080,note_off,0,0,1,,,,,,,,0,,,,75,64
87080,note_off,80,0,1,,,,,,,,0,,,,79,64
87120,note_on,40,0,13,,,,,,,,12,,,,51,75
87120,note_on,40,0,2,,,,,,,,0,,,,51,92
87120,note_on,40,0,8,,,,,,,,6,,,,51,108
87120,note_on,40,0,9,,,,,,,,7,,,,39,92
87120,note_on,40,0,14,,,,,,,,13,,,,39,75
87200,note_off,80,0,13,,,,,,,,12,,,,51,64
87200,note_off,80,0,8,,,,,,,,6,,,,51,64
87200,note_off,80,0,9,,,,,,,,7,,,,39,64
87200,note_off,80,0,14,,,,,,,,13,,,,39,64
87200,note_off,80,0,2,,,,,,,,0,,,,51,64
87240,note_on,40,0,14,,,,,,,,13,,,,38,75
87240,note_on,40,0,9,,,,,,,,7,,,,38,92
87240,note_on,160,0,5,,,,,,,,3,,,,63,108
87240,note_on,0,0,1,,,,,,,,0,,,,63,92
87240,note_on,160,0,6,,,,,,,,4,,,,58,108
87240,note_on,40,0,8,,,,,,,,6,,,,50,108
87240,note_on,40,0,13,,,,,,,,12,,,,50,75
87240,note_on,160,0,1,,,,,,,,0,,,,58,92
87240,note_on,160,0,10,,,,,,,,8,,,,63,75
87240,note_on,160,0,11,,,,,,,,10,,,,58,75
87240,note_on,40,0,2,,,,,,,,0,,,,50,92
87320,note_off,80,0,1,,,,,,,,0,,,,63,64
87320,note_off,0,0,1,,,,,,,,0,,,,58,64
87320,note_off,80,0,8,,,,,,,,6,,,,50,64
87320,note_off,80,0,9,,,,,,,,7,,,,38,64
87320,note_off,80,0,2,,,,,,,,0,,,,50,64
87320,note_off,80,0,11,,,,,,,,10,,,,58,64
87320,note_off,80,0,13,,,,,,,,12,,,,50,64
87320,note_off,80,0,6,,,,,,,,4,,,,58,64
87320,note_off,80,0,10,,,,,,,,8,,,,63,64
87320,note_off,80,0,14,,,,,,,,13,,,,38,64
87320,note_off,80,0,5,,,,,,,,3,,,,63,64
87360,note_on,40,0,14,,,,,,,,13,,,,36,75
87360,note_on,40,0,2,,,,,,,,0,,,,48,92
87360,note_on,40,0,13,,,,,,,,12,,,,48,75
87360,note_on,40,0,9,,,,,,,,7,,,,36,92
87360,note_on,40,0,8,,,,,,,,6,,,,48,108
87400,note_off,400,0,12,,,,,,,,11,,,,58,64
87400,note_off,400,0,15,,,,,,,,14,,,,39,64
87400,note_off,400,0,7,,,,,,,,5,,,,58,64
87440,note_off,80,0,8,,,,,,,,6,,,,48,64
87440,note_off,80,0,14,,,,,,,,13,,,,36,64
87440,note_off,80,0,2,,,,,,,,0,,,,48,64
87440,note_off,80,0,9,,,,,,,,7,,,,36,64
87440,note_off,80,0,13,,,,,,,,12,,,,48,64
87480,note_on,40,0,2,,,,,,,,0,,,,46,92
87480,note_on,40,0,13,,,,,,,,12,,,,46,75
87480,note_on,160,0,11,,,,,,,,10,,,,58,75
87480,note_on,80,0,15,,,,,,,,14,,,,46,60
87480,note_on,40,0,9,,,,,,,,7,,,,34,92
87480,note_on,160,0,5,,,,,,,,3,,,,63,108
87480,note_on,160,0,6,,,,,,,,4,,,,58,108
87480,note_on,160,0,10,,,,,,,,8,,,,63,75
87480,note_on,40,0,8,,,,,,,,6,,,,46,108
87480,note_on,40,0,14,,,,,,,,13,,,,34,75
87480,note_on,0,0,1,,,,,,,,0,,,,63,92
87480,note_on,160,0,1,,,,,,,,0,,,,58,92
87560,note_off,80,0,1,,,,,,,,0,,,,63,64
87560,note_off,80,0,8,,,,,,,,6,,,,46,64
87560,note_off,0,0,1,,,,,,,,0,,,,58,64
87560,note_off,80,0,5,,,,,,,,3,,,,63,64
87560,note_off,80,0,11,,,,,,,,10,,,,58,64
87560,note_off,80,0,14,,,,,,,,13,,,,34,64
87560,note_off,80,0,9,,,,,,,,7,,,,34,64
87560,note_off,80,0,10,,,,,,,,8,,,,63,64
87560,note_off,80,0,13,,,,,,,,12,,,,46,64
87560,note_off,80,0,6,,,,,,,,4,,,,58,64
87560,note_off,80,0,2,,,,,,,,0,,,,46,64
87600,note_on,40,0,13,,,,,,,,12,,,,45,75
87600,note_on,40,0,2,,,,,,,,0,,,,45,92
87600,note_on,40,0,14,,,,,,,,13,,,,33,75
87600,note_on,40,0,9,,,,,,,,7,,,,33,92
87600,note_on,40,0,8,,,,,,,,6,,,,45,108
87680,note_off,80,0,9,,,,,,,,7,,,,33,64
87680,note_off,80,0,13,,,,,,,,12,,,,45,64
87680,note_off,80,0,2,,,,,,,,0,,,,45,64
87680,note_off,80,0,8,,,,,,,,6,,,,45,64
87680,note_off,80,0,14,,,,,,,,13,,,,33,64
87720,note_on,40,0,14,,,,,,,,13,,,,31,75
87720,note_on,40,0,13,,,,,,,,12,,,,43,75
87720,note_on,160,0,5,,,,,,,,3,,,,67,108
87720,note_on,160,0,11,,,,,,,,10,,,,65,75
87720,note_on,320,0,7,,,,,,,,5,,,,70,108
87720,note_on,160,0,10,,,,,,,,8,,,,67,75
87720,note_on,0,0,1,,,,,,,,0,,,,67,92
87720,note_on,160,0,1,,,,,,,,0,,,,63,92
87720,note_on,40,0,2,,,,,,,,0,,,,43,92
87720,note_on,160,0,6,,,,,,,,4,,,,65,108
87720,note_on,320,0,12,,,,,,,,11,,,,70,75
87720,note_on,40,0,9,,,,,,,,7,,,,31,92
87720,note_on,40,0,8,,,,,,,,6,,,,43,108
87800,note_off,80,0,8,,,,,,,,6,,,,43,64
87800,note_off,80,0,12,,,,,,,,11,,,,70,64
87800,note_off,80,0,6,,,,,,,,4,,,,65,64
87800,note_off,80,0,11,,,,,,,,10,,,,65,64
87800,note_off,80,0,10,,,,,,,,8,,,,67,64
87800,note_off,0,0,1,,,,,,,,0,,,,63,64
87800,note_off,80,0,5,,,,,,,,3,,,,67,64
87800,note_off,80,0,7,,,,,,,,5,,,,70,64
87800,note_off,80,0,14,,,,,,,,13,,,,31,64
87800,note_off,80,0,13,,,,,,,,12,,,,43,64
87800,note_off,80,0,9,,,,,,,,7,,,,31,64
87800,note_off,80,0,2,,,,,,,,0,,,,43,64
87800,note_off,80,0,1,,,,,,,,0,,,,67,64
87840,note_on,40,0,13,,,,,,,,12,,,,41,75
87840,note_on,40,0,2,,,,,,,,0,,,,41,92
87840,note_on,40,0,9,,,,,,,,7,,,,29,92
87840,note_on,40,0,8,,,,,,,,6,,,,41,108
87840,note_on,40,0,14,,,,,,,,13,,,,29,75
87880,note_off,400,0,15,,,,,,,,14,,,,46,64
87920,note_off,80,0,8,,,,,,,,6,,,,41,64
87920,note_off,80,0,9,,,,,,,,7,,,,29,64
87920,note_off,80,0,13,,,,,,,,12,,,,41,64
87920,note_off,80,0,14,,,,,,,,13,,,,29,64
87920,note_off,80,0,2,,,,,,,,0,,,,41,64
87960,note_on,40,0,14,,,,,,,,13,,,,27,75
87960,note_on,160,0,7,,,,,,,,5,,,,67,108
87960,note_on,80,0,15,,,,,,,,14,,,,39,60
87960,note_on,40,0,13,,,,,,,,12,,,,39,75
87960,note_on,160,0,10,,,,,,,,8,,,,75,75
87960,note_on,40,0,9,,,,,,,,7,,,,27,92
87960,note_on,160,0,12,,,,,,,,11,,,,67,75
87960,note_on,40,0,2,,,,,,,,0,,,,39,92
87960,note_on,160,0,5,,,,,,,,3,,,,75,108
87960,note_on,160,0,11,,,,,,,,10,,,,70,75
87960,note_on,0,0,1,,,,,,,,0,,,,75,92
87960,note_on,160,0,6,,,,,,,,4,,,,70,108
87960,note_on,160,0,1,,,,,,,,0,,,,70,92
87960,note_on,40,0,8,,,,,,,,6,,,,39,108
88040,note_off,80,0,10,,,,,,,,8,,,,75,64
88040,note_off,0,0,1,,,,,,,,0,,,,70,64
88040,note_off,80,0,13,,,,,,,,12,,,,39,64
88040,note_off,80,0,11,,,,,,,,10,,,,70,64
88040,note_off,80,0,1,,,,,,,,0,,,,75,64
88040,note_off,80,0,7,,,,,,,,5,,,,67,64
88040,note_off,80,0,5,,,,,,,,3,,,,75,64
88040,note_off,80,0,14,,,,,,,,13,,,,27,64
88040,note_off,80,0,12,,,,,,,,11,,,,67,64
88040,note_off,80,0,2,,,,,,,,0,,,,39,64
88040,note_off,80,0,8,,,,,,,,6,,,,39,64
88040,note_off,80,0,6,,,,,,,,4,,,,70,64
88040,note_off,80,0,9,,,,,,,,7,,,,27,64
88080,note_on,40,0,12,,,,,,,,11,,,,65,75
88080,note_on,40,0,7,,,,,,,,5,,,,65,108
88160,note_off,80,0,12,,,,,,,,11,,,,65,64
88160,note_off,80,0,7,,,,,,,,5,,,,65,64
88195,note_off,235,0,15,,,,,,,,14,,,,39,64
88200,note_on,160,0,1,,,,,,,,0,,,,75,92
88200,note_on,160,0,11,,,,,,,,10,,,,75,75
88200,note_on,160,0,6,,,,,,,,4,,,,75,108
88200,note_on,40,0,12,,,,,,,,11,,,,63,75
88200,note_on,40,0,7,,,,,,,,5,,,,63,108
88200,note_on,160,0,10,,,,,,,,8,,,,79,75
88200,note_on,160,0,5,,,,,,,,3,,,,79,108
88200,note_on,0,0,1,,,,,,,,0,,,,79,92
88280,note_off,80,0,10,,,,,,,,8,,,,79,64
88280,note_off,80,0,12,,,,,,,,11,,,,63,64
88280,note_off,80,0,1,,,,,,,,0,,,,79,64
88280,note_off,0,0,1,,,,,,,,0,,,,75,64
88280,note_off,80,0,6,,,,,,,,4,,,,75,64
88280,note_off,80,0,11,,,,,,,,10,,,,75,64
88280,note_off,80,0,5,,,,,,,,3,,,,79,64
88280,note_off,80,0,7,,,,,,,,5,,,,63,64
88320,note_on,40,0,12,,,,,,,,11,,,,62,75
88320,note_on,40,0,7,,,,,,,,5,,,,62,108
88400,note_off,80,0,12,,,,,,,,11,,,,62,64
88400,note_off,80,0,7,,,,,,,,5,,,,62,64
88440,note_on,400,0,2,,,,,,,,0,,,,44,92
88440,note_on,0,0,1,,,,,,,,0,,,,79,92
88440,note_on,160,0,1,,,,,,,,0,,,,75,92
88440,note_on,40,0,7,,,,,,,,5,,,,60,108
88440,note_on,400,0,13,,,,,,,,12,,,,44,75
88440,note_on,400,0,8,,,,,,,,6,,,,44,108
88440,note_on,160,0,11,,,,,,,,10,,,,75,75
88440,note_on,160,0,5,,,,,,,,3,,,,79,108
88440,note_on,160,0,6,,,,,,,,4,,,,75,108
88440,note_on,160,0,10,,,,,,,,8,,,,79,75
88440,note_on,40,0,12,,,,,,,,11,,,,60,75
88440,note_on,400,0,14,,,,,,,,13,,,,32,75
88440,note_on,245,0,15,,,,,,,,14,,,,32,60
88440,note_on,400,0,9,,,,,,,,7,,,,32,92
88520,note_off,80,0,13,,,,,,,,12,,,,44,64
88520,note_off,80,0,11,,,,,,,,10,,,,75,64
88520,note_off,80,0,5,,,,,,,,3,,,,79,64
88520,note_off,80,0,9,,,,,,,,7,,,,32,64
88520,note_off,0,0,1,,,,,,,,0,,,,75,64
88520,note_off,80,0,14,,,,,,,,13,,,,32,64
88520,note_off,80,0,6,,,,,,,,4,,,,75,64
88520,note_off,80,0,10,,,,,,,,8,,,,79,64
88520,note_off,80,0,8,,,,,,,,6,,,,44,64
88520,note_off,80,0,1,,,,,,,,0,,,,79,64
88520,note_off,80,0,2,,,,,,,,0,,,,44,64
88560,note_on,40,0,9,,,,,,,,7,,,,44,92
88560,note_on,40,0,13,,,,,,,,12,,,,56,75
88560,note_on,40,0,8,,,,,,,,6,,,,56,108
88560,note_on,40,0,14,,,,,,,,13,,,,44,75
88560,note_on,40,0,2,,,,,,,,0,,,,56,92
88640,note_off,80,0,8,,,,,,,,6,,,,56,64
88640,note_off,80,0,9,,,,,,,,7,,,,44,64
88640,note_off,80,0,14,,,,,,,,13,,,,44,64
88640,note_off,80,0,2,,,,,,,,0,,,,56,64
88640,note_off,80,0,13,,,,,,,,12,,,,56,64
88680,note_on,40,0,8,,,,,,,,6,,,,55,108
88680,note_on,160,0,6,,,,,,,,4,,,,56,108
88680,note_on,40,0,14,,,,,,,,13,,,,43,75
88680,note_on,40,0,2,,,,,,,,0,,,,55,92
88680,note_on,160,0,11,,,,,,,,10,,,,56,75
88680,note_on,160,0,1,,,,,,,,0,,,,56,92
88680,note_on,0,0,1,,,,,,,,0,,,,60,92
88680,note_on,160,0,5,,,,,,,,3,,,,60,108
88680,note_on,160,0,10,,,,,,,,8,,,,60,75
88680,note_on,40,0,13,,,,,,,,12,,,,55,75
88680,note_on,40,0,9,,,,,,,,7,,,,43,92
88760,note_off,80,0,6,,,,,,,,4,,,,56,64
88760,note_off,80,0,11,,,,,,,,10,,,,56,64
88760,note_off,80,0,9,,,,,,,,7,,,,43,64
88760,note_off,80,0,2,,,,,,,,0,,,,55,64
88760,note_off,0,0,1,,,,,,,,0,,,,56,64
88760,note_off,80,0,1,,,,,,,,0,,,,60,64
88760,note_off,80,0,8,,,,,,,,6,,,,55,64
88760,note_off,80,0,13,,,,,,,,12,,,,55,64
88760,note_off,80,0,5,,,,,,,,3,,,,60,64
88760,note_off,80,0,14,,,,,,,,13,,,,43,64
88760,note_off,80,0,10,,,,,,,,8,,,,60,64
88800,note_on,40,0,2,,,,,,,,0,,,,53,92
88800,note_on,40,0,8,,,,,,,,6,,,,53,108
88800,note_on,40,0,9,,,,,,,,7,,,,41,92
88800,note_on,40,0,13,,,,,,,,12,,,,53,75
88800,note_on,40,0,14,,,,,,,,13,,,,41,75
88840,note_off,400,0,15,,,,,,,,14,,,,32,64
88840,note_off,400,0,7,,,,,,,,5,,,,60,64
88840,note_off,400,0,12,,,,,,,,11,,,,60,64
88880,note_off,80,0,14,,,,,,,,13,,,,41,64
88880,note_off,80,0,9,,,,,,,,7,,,,41,64
88880,note_off,80,0,8,,,,,,,,6,,,,53,64
88880,note_off,80,0,13,,,,,,,,12,,,,53,64
88880,note_off,80,0,2,,,,,,,,0,,,,53,64
88920,note_on,160,0,1,,,,,,,,0,,,,56,92
88920,note_on,0,0,1,,,,,,,,0,,,,60,92
88920,note_on,160,0,6,,,,,,,,4,,,,56,108
88920,note_on,40,0,14,,,,,,,,13,,,,39,75
88920,note_on,80,0,15,,,,,,,,14,,,,39,60
88920,note_on,40,0,8,,,,,,,,6,,,,51,108
88920,note_on,160,0,10,,,,,,,,8,,,,60,75
88920,note_on,160,0,11,,,,,,,,10,,,,56,75
88920,note_on,40,0,9,,,,,,,,7,,,,39,92
88920,note_on,160,0,5,,,,,,,,3,,,,60,108
88920,note_on,40,0,13,,,,,,,,12,,,,51,75
88920,note_on,40,0,2,,,,,,,,0,,,,51,92
89000,note_off,80,0,2,,,,,,,,0,,,,51,64
89000,note_off,80,0,1,,,,,,,,0,,,,60,64
89000,note_off,80,0,10,,,,,,,,8,,,,60,64
89000,note_off,80,0,5,,,,,,,,3,,,,60,64
89000,note_off,80,0,11,,,,,,,,10,,,,56,64
89000,note_off,80,0,9,,,,,,,,7,,,,39,64
89000,note_off,0,0,1,,,,,,,,0,,,,56,64
89000,note_off,80,0,14,,,,,,,,13,,,,39,64
89000,note_off,80,0,6,,,,,,,,4,,,,56,64
89000,note_off,80,0,8,,,,,,,,6,,,,51,64
89000,note_off,80,0,13,,,,,,,,12,,,,51,64
89040,note_on,40,0,8,,,,,,,,6,,,,50,108
89040,note_on,40,0,14,,,,,,,,13,,,,38,75
89040,note_on,40,0,9,,,,,,,,7,,,,38,92
89040,note_on,40,0,2,,,,,,,,0,,,,50,92
89040,note_on,40,0,13,,,,,,,,12,,,,50,75
89120,note_off,80,0,14,,,,,,,,13,,,,38,64
89120,note_off,80,0,9,,,,,,,,7,,,,38,64
89120,note_off,80,0,2,,,,,,,,0,,,,50,64
89120,note_off,80,0,13,,,,,,,,12,,,,50,64
89120,note_off,80,0,8,,,,,,,,6,,,,50,64
89160,note_on,40,0,2,,,,,,,,0,,,,48,92
89160,note_on,320,0,7,,,,,,,,5,,,,63,108
89160,note_on,160,0,5,,,,,,,,3,,,,72,108
89160,note_on,40,0,14,,,,,,,,13,,,,36,75
89160,note_on,40,0,8,,,,,,,,6,,,,48,108
89160,note_on,160,0,11,,,,,,,,10,,,,68,75
89160,note_on,0,0,1,,,,,,,,0,,,,72,92
89160,note_on,160,0,6,,,,,,,,4,,,,68,108
89160,note_on,160,0,10,,,,,,,,8,,,,72,75
89160,note_on,40,0,9,,,,,,,,7,,,,36,92
89160,note_on,160,0,1,,,,,,,,0,,,,68,92
89160,note_on,40,0,13,,,,,,,,12,,,,48,75
89160,note_on,320,0,12,,,,,,,,11,,,,63,75
89240,note_off,80,0,9,,,,,,,,7,,,,36,64
89240,note_off,80,0,14,,,,,,,,13,,,,36,64
89240,note_off,80,0,5,,,,,,,,3,,,,72,64
89240,note_off,80,0,8,,,,,,,,6,,,,48,64
89240,note_off,80,0,13,,,,,,,,12,,,,48,64
89240,note_off,0,0,1,,,,,,,,0,,,,68,64
89240,note_off,80,0,1,,,,,,,,0,,,,72,64
89240,note_off,80,0,11,,,,,,,,10,,,,68,64
89240,note_off,80,0,6,,,,,,,,4,,,,68,64
89240,note_off,80,0,12,,,,,,,,11,,,,63,64
89240,note_off,80,0,7,,,,,,,,5,,,,63,64
89240,note_off,80,0,2,,,,,,,,0,,,,48,64
89240,note_off,80,0,10,,,,,,,,8,,,,72,64
89280,note_on,40,0,2,,,,,,,,0,,,,46,92
89280,note_on,40,0,14,,,,,,,,13,,,,34,75
89280,note_on,40,0,13,,,,,,,,12,,,,46,75
89280,note_on,40,0,9,,,,,,,,7,,,,34,92
89280,note_on,40,0,8,,,,,,,,6,,,,46,108
89320,note_off,400,0,15,,,,,,,,14,,,,39,64
89360,note_off,80,0,9,,,,,,,,7,,,,34,64
89360,note_off,80,0,14,,,,,,,,13,,,,34,64
89360,note_off,80,0,2,,,,,,,,0,,,,46,64
89360,note_off,80,0,13,,,,,,,,12,,,,46,64
89360,note_off,80,0,8,,,,,,,,6,,,,46,64
89400,note_on,40,0,14,,,,,,,,13,,,,32,75
89400,note_on,40,0,2,,,,,,,,0,,,,44,92
89400,note_on,160,0,11,,,,,,,,10,,,,72,75
89400,note_on,160,0,6,,,,,,,,4,,,,72,108
89400,note_on,160,0,12,,,,,,,,11,,,,60,75
89400,note_on,40,0,8,,,,,,,,6,,,,44,108
89400,note_on,80,0,15,,,,,,,,14,,,,32,60
89400,note_on,160,0,7,,,,,,,,5,,,,60,108
89400,note_on,160,0,1,,,,,,,,0,,,,72,92
89400,note_on,0,0,1,,,,,,,,0,,,,75,92
89400,note_on,40,0,13,,,,,,,,12,,,,44,75
89400,note_on,40,0,9,,,,,,,,7,,,,32,92
89400,note_on,160,0,10,,,,,,,,8,,,,75,75
89400,note_on,160,0,5,,,,,,,,3,,,,75,108
89480,note_off,80,0,1,,,,,,,,0,,,,75,64
89480,note_off,80,0,11,,,,,,,,10,,,,72,64
89480,note_off,80,0,10,,,,,,,,8,,,,75,64
89480,note_off,80,0,8,,,,,,,,6,,,,44,64
89480,note_off,80,0,6,,,,,,,,4,,,,72,64
89480,note_off,80,0,9,,,,,,,,7,,,,32,64
89480,note_off,80,0,5,,,,,,,,3,,,,75,64
89480,note_off,80,0,2,,,,,,,,0,,,,44,64
89480,note_off,80,0,12,,,,,,,,11,,,,60,64
89480,note_off,80,0,14,,,,,,,,13,,,,32,64
89480,note_off,80,0,13,,,,,,,,12,,,,44,64
89480,note_off,80,0,7,,,,,,,,5,,,,60,64
89480,note_off,0,0,1,,,,,,,,0,,,,72,64
89520,note_on,40,0,12,,,,,,,,11,,,,58,75
89520,note_on,40,0,7,,,,,,,,5,,,,58,108
89600,note_off,80,0,12,,,,,,,,11,,,,58,64
89600,note_off,80,0,7,,,,,,,,5,,,,58,64
89635,note_off,235,0,15,,,,,,,,14,,,,32,64
89640,note_on,160,0,5,,,,,,,,3,,,,79,108
89640,note_on,40,0,12,,,,,,,,11,,,,56,75
89640,note_on,160,0,1,,,,,,,,0,,,,75,92
89640,note_on,160,0,6,,,,,,,,4,,,,75,108
89640,note_on,160,0,10,,,,,,,,8,,,,79,75
89640,note_on,0,0,1,,,,,,,,0,,,,79,92
89640,note_on,40,0,7,,,,,,,,5,,,,56,108
89640,note_on,160,0,11,,,,,,,,10,,,,75,75
89720,note_off,80,0,11,,,,,,,,10,,,,75,64
89720,note_off,80,0,7,,,,,,,,5,,,,56,64
89720,note_off,80,0,10,,,,,,,,8,,,,79,64
89720,note_off,80,0,1,,,,,,,,0,,,,79,64
89720,note_off,80,0,5,,,,,,,,3,,,,79,64
89720,note_off,0,0,1,,,,,,,,0,,,,75,64
89720,note_off,80,0,6,,,,,,,,4,,,,75,64
89720,note_off,80,0,12,,,,,,,,11,,,,56,64
89760,note_on,40,0,7,,,,,,,,5,,,,55,108
89760,note_on,40,0,12,,,,,,,,11,,,,55,75
89840,note_off,80,0,7,,,,,,,,5,,,,55,64
89840,note_off,80,0,12,,,,,,,,11,,,,55,64
89880,note_on,40,0,12,,,,,,,,11,,,,62,75
89880,note_on,160,0,10,,,,,,,,8,,,,79,75
89880,note_on,400,0,8,,,,,,,,6,,,,47,108
89880,note_on,0,0,1,,,,,,,,0,,,,79,92
89880,note_on,40,0,7,,,,,,,,5,,,,62,108
89880,note_on,400,0,14,,,,,,,,13,,,,35,75
89880,note_on,160,0,1,,,,,,,,0,,,,74,92
89880,note_on,245,0,15,,,,,,,,14,,,,35,60
89880,note_on,160,0,11,,,,,,,,10,,,,74,75
89880,note_on,160,0,6,,,,,,,,4,,,,74,108
89880,note_on,400,0,9,,,,,,,,7,,,,35,92
89880,note_on,400,0,13,,,,,,,,12,,,,47,75
89880,note_on,400,0,2,,,,,,,,0,,,,47,92
89880,note_on,160,0,5,,,,,,,,3,,,,79,108
89960,note_off,80,0,5,,,,,,,,3,,,,79,64
89960,note_off,80,0,9,,,,,,,,7,,,,35,64
89960,note_off,80,0,11,,,,,,,,10,,,,74,64
89960,note_off,80,0,6,,,,,,,,4,,,,74,64
89960,note_off,80,0,8,,,,,,,,6,,,,47,64
89960,note_off,80,0,2,,,,,,,,0,,,,47,64
89960,note_off,80,0,14,,,,,,,,13,,,,35,64
89960,note_off,0,0,1,,,,,,,,0,,,,74,64
89960,note_off,80,0,1,,,,,,,,0,,,,79,64
89960,note_off,80,0,10,,,,,,,,8,,,,79,64
89960,note_off,80,0,13,,,,,,,,12,,,,47,64
90000,note_on,40,0,14,,,,,,,,13,,,,47,75
90000,note_on,40,0,8,,,,,,,,6,,,,59,108
90000,note_on,40,0,9,,,,,,,,7,,,,47,92
90000,note_on,40,0,2,,,,,,,,0,,,,59,92
90000,note_on,40,0,13,,,,,,,,12,,,,59,75
90080,note_off,80,0,13,,,,,,,,12,,,,59,64
90080,note_off,80,0,2,,,,,,,,0,,,,59,64
90080,note_off,80,0,8,,,,,,,,6,,,,59,64
90080,note_off,80,0,9,,,,,,,,7,,,,47,64
90080,note_off,80,0,14,,,,,,,,13,,,,47,64
90120,note_on,160,0,1,,,,,,,,0,,,,59,92
90120,note_on,40,0,2,,,,,,,,0,,,,57,92
90120,note_on,160,0,5,,,,,,,,3,,,,62,108
90120,note_on,160,0,10,,,,,,,,8,,,,62,75
90120,note_on,40,0,13,,,,,,,,12,,,,57,75
90120,note_on,40,0,14,,,,,,,,13,,,,45,75
90120,note_on,160,0,11,,,,,,,,10,,,,59,75
90120,note_on,0,0,1,,,,,,,,0,,,,62,92
90120,note_on,160,0,6,,,,,,,,4,,,,59,108
90120,note_on,40,0,9,,,,,,,,7,,,,45,92
90120,note_on,40,0,8,,,,,,,,6,,,,57,108
90200,note_off,80,0,8,,,,,,,,6,,,,57,64
90200,note_off,80,0,1,,,,,,,,0,,,,62,64
90200,note_off,80,0,2,,,,,,,,0,,,,57,64
90200,note_off,80,0,9,,,,,,,,7,,,,45,64
90200,note_off,80,0,11,,,,,,,,10,,,,59,64
90200,note_off,80,0,14,,,,,,,,13,,,,45,64
90200,note_off,80,0,10,,,,,,,,8,,,,62,64
90200,note_off,80,0,5,,,,,,,,3,,,,62,64
90200,note_off,80,0,13,,,,,,,,12,,,,57,64
90200,note_off,80,0,6,,,,,,,,4,,,,59,64
90200,note_off,0,0,1,,,,,,,,0,,,,59,64
90240,note_on,40,0,8,,,,,,,,6,,,,55,108
90240,note_on,40,0,9,,,,,,,,7,,,,43,92
90240,note_on,40,0,13,,,,,,,,12,,,,55,75
90240,note_on,40,0,2,,,,,,,,0,,,,55,92
90240,note_on,40,0,14,,,,,,,,13,,,,43,75
90280,note_off,400,0,7,,,,,,,,5,,,,62,64
90280,note_off,400,0,15,,,,,,,,14,,,,35,64
90280,note_off,400,0,12,,,,,,,,11,,,,62,64
90320,note_off,80,0,9,,,,,,,,7,,,,43,64
90320,note_off,80,0,8,,,,,,,,6,,,,55,64
90320,note_off,80,0,2,,,,,,,,0,,,,55,64
90320,note_off,80,0,14,,,,,,,,13,,,,43,64
90320,note_off,80,0,13,,,,,,,,12,,,,55,64
90360,note_on,0,0,1,,,,,,,,0,,,,62,92
90360,note_on,160,0,10,,,,,,,,8,,,,62,75
90360,note_on,40,0,13,,,,,,,,12,,,,53,75
90360,note_on,160,0,1,,,,,,,,0,,,,59,92
90360,note_on,80,0,15,,,,,,,,14,,,,41,60
90360,note_on,160,0,6,,,,,,,,4,,,,59,108
90360,note_on,160,0,11,,,,,,,,10,,,,59,75
90360,note_on,40,0,8,,,,,,,,6,,,,53,108
90360,note_on,40,0,9,,,,,,,,7,,,,41,92
90360,note_on,40,0,14,,,,,,,,13,,,,41,75
90360,note_on,40,0,2,,,,,,,,0,,,,53,92
90360,note_on,160,0,5,,,,,,,,3,,,,62,108
90440,note_off,80,0,8,,,,,,,,6,,,,53,64
90440,note_off,80,0,14,,,,,,,,13,,,,41,64
90440,note_off,80,0,13,,,,,,,,12,,,,53,64
90440,note_off,0,0,1,,,,,,,,0,,,,59,64
90440,note_off,80,0,1,,,,,,,,0,,,,62,64
90440,note_off,80,0,5,,,,,,,,3,,,,62,64
90440,note_off,80,0,6,,,,,,,,4,,,,59,64
90440,note_off,80,0,11,,,,,,,,10,,,,59,64
90440,note_off,80,0,2,,,,,,,,0,,,,53,64
90440,note_off,80,0,10,,,,,,,,8,,,,62,64
90440,note_off,80,0,9,,,,,,,,7,,,,41,64
90480,note_on,40,0,13,,,,,,,,12,,,,51,75
90480,note_on,40,0,14,,,,,,,,13,,,,39,75
90480,note_on,40,0,8,,,,,,,,6,,,,51,108
90480,note_on,40,0,2,,,,,,,,0,,,,51,92
90480,note_on,40,0,9,,,,,,,,7,,,,39,92
90560,note_off,80,0,9,,,,,,,,7,,,,39,64
90560,note_off,80,0,14,,,,,,,,13,,,,39,64
90560,note_off,80,0,2,,,,,,,,0,,,,51,64
90560,note_off,80,0,13,,,,,,,,12,,,,51,64
90560,note_off,80,0,8,,,,,,,,6,,,,51,64
90600,note_on,40,0,14,,,,,,,,13,,,,38,75
90600,note_on,320,0,7,,,,,,,,5,,,,65,108
90600,note_on,160,0,1,,,,,,,,0,,,,67,92
90600,note_on,0,0,1,,,,,,,,0,,,,71,92
90600,note_on,40,0,13,,,,,,,,12,,,,50,75
90600,note_on,40,0,8,,,,,,,,6,,,,50,108
90600,note_on,40,0,2,,,,,,,,0,,,,50,92
90600,note_on,320,0,12,,,,,,,,11,,,,65,75
90600,note_on,160,0,5,,,,,,,,3,,,,71,108
90600,note_on,160,0,6,,,,,,,,4,,,,67,108
90600,note_on,160,0,11,,,,,,,,10,,,,67,75
90600,note_on,40,0,9,,,,,,,,7,,,,38,92
90600,note_on,160,0,10,,,,,,,,8,,,,71,75
90680,note_off,80,0,1,,,,,,,,0,,,,71,64
90680,note_off,80,0,5,,,,,,,,3,,,,71,64
90680,note_off,80,0,7,,,,,,,,5,,,,65,64
90680,note_off,80,0,9,,,,,,,,7,,,,38,64
90680,note_off,80,0,6,,,,,,,,4,,,,67,64
90680,note_off,80,0,2,,,,,,,,0,,,,50,64
90680,note_off,80,0,13,,,,,,,,12,,,,50,64
90680,note_off,80,0,8,,,,,,,,6,,,,50,64
90680,note_off,80,0,12,,,,,,,,11,,,,65,64
90680,note_off,80,0,10,,,,,,,,8,,,,71,64
90680,note_off,80,0,11,,,,,,,,10,,,,67,64
90680,note_off,0,0,1,,,,,,,,0,,,,67,64
90680,note_off,80,0,14,,,,,,,,13,,,,38,64
90720,note_on,40,0,2,,,,,,,,0,,,,48,92
90720,note_on,40,0,14,,,,,,,,13,,,,36,75
90720,note_on,40,0,8,,,,,,,,6,,,,48,108
90720,note_on,40,0,13,,,,,,,,12,,,,48,75
90720,note_on,40,0,9,,,,,,,,7,,,,36,92
90760,note_off,400,0,15,,,,,,,,14,,,,41,64
90800,note_off,80,0,13,,,,,,,,12,,,,48,64
90800,note_off,80,0,2,,,,,,,,0,,,,48,64
90800,note_off,80,0,8,,,,,,,,6,,,,48,64
90800,note_off,80,0,9,,,,,,,,7,,,,36,64
90800,note_off,80,0,14,,,,,,,,13,,,,36,64
90840,note_on,40,0,2,,,,,,,,0,,,,47,92
90840,note_on,160,0,12,,,,,,,,11,,,,62,75
90840,note_on,160,0,10,,,,,,,,8,,,,74,75
90840,note_on,160,0,11,,,,,,,,10,,,,71,75
90840,note_on,160,0,7,,,,,,,,5,,,,62,108
90840,note_on,40,0,9,,,,,,,,7,,,,35,92
90840,note_on,160,0,6,,,,,,,,4,,,,71,108
90840,note_on,40,0,13,,,,,,,,12,,,,47,75
90840,note_on,40,0,14,,,,,,,,13,,,,35,75
90840,note_on,80,0,15,,,,,,,,14,,,,35,60
90840,note_on,0,0,1,,,,,,,,0,,,,74,92
90840,note_on,40,0,8,,,,,,,,6,,,,47,108
90840,note_on,160,0,5,,,,,,,,3,,,,74,108
90840,note_on,160,0,1,,,,,,,,0,,,,71,92
90920,note_off,80,0,7,,,,,,,,5,,,,62,64
90920,note_off,80,0,5,,,,,,,,3,,,,74,64
90920,note_off,80,0,9,,,,,,,,7,,,,35,64
90920,note_off,80,0,1,,,,,,,,0,,,,74,64
90920,note_off,80,0,10,,,,,,,,8,,,,74,64
90920,note_off,0,0,1,,,,,,,,0,,,,71,64
90920,note_off,80,0,11,,,,,,,,10,,,,71,64
90920,note_off,80,0,13,,,,,,,,12,,,,47,64
90920,note_off,80,0,8,,,,,,,,6,,,,47,64
90920,note_off,80,0,14,,,,,,,,13,,,,35,64
90920,note_off,80,0,12,,,,,,,,11,,,,62,64
90920,note_off,80,0,6,,,,,,,,4,,,,71,64
90920,note_off,80,0,2,,,,,,,,0,,,,47,64
90960,note_on,40,0,7,,,,,,,,5,,,,60,108
90960,note_on,40,0,12,,,,,,,,11,,,,60,75
91040,note_off,80,0,7,,,,,,,,5,,,,60,64
91040,note_off,80,0,12,,,,,,,,11,,,,60,64
91075,note_off,235,0,15,,,,,,,,14,,,,35,64
91080,note_on,160,0,10,,,,,,,,8,,,,79,75
91080,note_on,160,0,5,,,,,,,,3,,,,79,108
91080,note_on,160,0,6,,,,,,,,4,,,,74,108
91080,note_on,40,0,12,,,,,,,,11,,,,59,75
91080,note_on,160,0,1,,,,,,,,0,,,,74,92
91080,note_on,0,0,1,,,,,,,,0,,,,79,92
91080,note_on,40,0,7,,,,,,,,5,,,,59,108
91080,note_on,160,0,11,,,,,,,,10,,,,74,75
91160,note_off,80,0,12,,,,,,,,11,,,,59,64
91160,note_off,80,0,7,,,,,,,,5,,,,59,64
91160,note_off,80,0,5,,,,,,,,3,,,,79,64
91160,note_off,80,0,10,,,,,,,,8,,,,79,64
91160,note_off,80,0,11,,,,,,,,10,,,,74,64
91160,note_off,80,0,6,,,,,,,,4,,,,74,64
91160,note_off,80,0,1,,,,,,,,0,,,,79,64
91160,note_off,0,0,1,,,,,,,,0,,,,74,64
91200,note_on,40,0,7,,,,,,,,5,,,,57,108
91200,note_on,40,0,12,,,,,,,,11,,,,57,75
91280,note_off,80,0,7,,,,,,,,5,,,,57,64
91280,note_off,80,0,12,,,,,,,,11,,,,57,64
91320,note_on,40,0,12,,,,,,,,11,,,,59,75
91320,note_on,245,0,15,,,,,,,,14,,,,31,60
91320,note_on,400,0,2,,,,,,,,0,,,,43,92
91320,note_on,40,0,7,,,,,,,,5,,,,59,108
91320,note_on,400,0,9,,,,,,,,7,,,,31,92
91320,note_on,400,0,8,,,,,,,,6,,,,43,108
91320,note_on,0,0,1,,,,,,,,0,,,,77,92
91320,note_on,400,0,13,,,,,,,,12,,,,43,75
91320,note_on,160,0,1,,,,,,,,0,,,,74,92
91320,note_on,160,0,6,,,,,,,,4,,,,74,108
91320,note_on,160,0,10,,,,,,,,8,,,,77,75
91320,note_on,160,0,11,,,,,,,,10,,,,74,75
91320,note_on,400,0,14,,,,,,,,13,,,,31,75
91320,note_on,160,0,5,,,,,,,,3,,,,77,108
91400,note_off,80,0,5,,,,,,,,3,,,,77,64
91400,note_off,80,0,10,,,,,,,,8,,,,77,64
91400,note_off,80,0,8,,,,,,,,6,,,,43,64
91400,note_off,80,0,11,,,,,,,,10,,,,74,64
91400,note_off,80,0,2,,,,,,,,0,,,,43,64
91400,note_off,80,0,14,,,,,,,,13,,,,31,64
91400,note_off,80,0,13,,,,,,,,12,,,,43,64
91400,note_off,80,0,9,,,,,,,,7,,,,31,64
91400,note_off,80,0,6,,,,,,,,4,,,,74,64
91400,note_off,0,0,1,,,,,,,,0,,,,74,64
91400,note_off,80,0,1,,,,,,,,0,,,,77,64
91440,note_on,40,0,13,,,,,,,,12,,,,55,75
91440,note_on,40,0,8,,,,,,,,6,,,,55,108
91440,note_on,40,0,2,,,,,,,,0,,,,55,92
91440,note_on,40,0,14,,,,,,,,13,,,,43,75
91440,note_on,40,0,9,,,,,,,,7,,,,43,92
91520,note_off,80,0,2,,,,,,,,0,,,,55,64
91520,note_off,80,0,14,,,,,,,,13,,,,43,64
91520,note_off,80,0,13,,,,,,,,12,,,,55,64
91520,note_off,80,0,8,,,,,,,,6,,,,55,64
91520,note_off,80,0,9,,,,,,,,7,,,,43,64
91560,note_on,160,0,10,,,,,,,,8,,,,62,75
91560,note_on,160,0,6,,,,,,,,4,,,,59,108
91560,note_on,160,0,1,,,,,,,,0,,,,59,92
91560,note_on,0,0,1,,,,,,,,0,,,,62,92
91560,note_on,160,0,5,,,,,,,,3,,,,62,108
91560,note_on,160,0,11,,,,,,,,10,,,,59,75
91560,note_on,40,0,8,,,,,,,,6,,,,53,108
91560,note_on,40,0,14,,,,,,,,13,,,,41,75
91560,note_on,40,0,2,,,,,,,,0,,,,53,92
91560,note_on,40,0,13,,,,,,,,12,,,,53,75
91560,note_on,40,0,9,,,,,,,,7,,,,41,92
91640,note_off,80,0,11,,,,,,,,10,,,,59,64
91640,note_off,0,0,1,,,,,,,,0,,,,59,64
91640,note_off,80,0,1,,,,,,,,0,,,,62,64
91640,note_off,80,0,6,,,,,,,,4,,,,59,64
91640,note_off,80,0,2,,,,,,,,0,,,,53,64
91640,note_off,80,0,8,,,,,,,,6,,,,53,64
91640,note_off,80,0,14,,,,,,,,13,,,,41,64
91640,note_off,80,0,10,,,,,,,,8,,,,62,64
91640,note_off,80,0,13,,,,,,,,12,,,,53,64
91640,note_off,80,0,9,,,,,,,,7,,,,41,64
91640,note_off,80,0,5,,,,,,,,3,,,,62,64
91680,note_on,40,0,9,,,,,,,,7,,,,39,92
91680,note_on,40,0,2,,,,,,,,0,,,,51,92
91680,note_on,40,0,13,,,,,,,,12,,,,51,75
91680,note_on,40,0,14,,,,,,,,13,,,,39,75
91680,note_on,40,0,8,,,,,,,,6,,,,51,108
91720,note_off,400,0,7,,,,,,,,5,,,,59,64
91720,note_off,400,0,15,,,,,,,,14,,,,31,64
91720,note_off,400,0,12,,,,,,,,11,,,,59,64
91760,note_off,80,0,8,,,,,,,,6,,,,51,64
91760,note_off,80,0,2,,,,,,,,0,,,,51,64
91760,note_off,80,0,9,,,,,,,,7,,,,39,64
91760,note_off,80,0,14,,,,,,,,13,,,,39,64
91760,note_off,80,0,13,,,,,,,,12,,,,51,64
91800,note_on,160,0,6,,,,,,,,4,,,,59,108
91800,note_on,160,0,1,,,,,,,,0,,,,59,92
91800,note_on,160,0,5,,,,,,,,3,,,,62,108
91800,note_on,40,0,2,,,,,,,,0,,,,50,92
91800,note_on,40,0,13,,,,,,,,12,,,,50,75
91800,note_on,160,0,11,,,,,,,,10,,,,59,75
91800,note_on,160,0,10,,,,,,,,8,,,,62,75
91800,note_on,40,0,14,,,,,,,,13,,,,38,75
91800,note_on,80,0,15,,,,,,,,14,,,,38,60
91800,note_on,40,0,9,,,,,,,,7,,,,38,92
91800,note_on,0,0,1,,,,,,,,0,,,,62,92
91800,note_on,40,0,8,,,,,,,,6,,,,50,108
91880,note_off,80,0,1,,,,,,,,0,,,,62,64
91880,note_off,0,0,1,,,,,,,,0,,,,59,64
91880,note_off,80,0,11,,,,,,,,10,,,,59,64
91880,note_off,80,0,2,,,,,,,,0,,,,50,64
91880,note_off,80,0,9,,,,,,,,7,,,,38,64
91880,note_off,80,0,6,,,,,,,,4,,,,59,64
91880,note_off,80,0,5,,,,,,,,3,,,,62,64
91880,note_off,80,0,8,,,,,,,,6,,,,50,64
91880,note_off,80,0,13,,,,,,,,12,,,,50,64
91880,note_off,80,0,10,,,,,,,,8,,,,62,64
91880,note_off,80,0,14,,,,,,,,13,,,,38,64
91920,note_on,40,0,14,,,,,,,,13,,,,36,75
91920,note_on,40,0,9,,,,,,,,7,,,,36,92
91920,note_on,40,0,8,,,,,,,,6,,,,48,108
91920,note_on,40,0,13,,,,,,,,12,,,,48,75
91920,note_on,40,0,2,,,,,,,,0,,,,48,92
92000,note_off,80,0,8,,,,,,,,6,,,,48,64
92000,note_off,80,0,13,,,,,,,,12,,,,48,64
92000,note_off,80,0,9,,,,,,,,7,,,,36,64
92000,note_off,80,0,14,,,,,,,,13,,,,36,64
92000,note_off,80,0,2,,,,,,,,0,,,,48,64
92040,note_on,40,0,13,,,,,,,,12,,,,46,75
92040,note_on,40,0,9,,,,,,,,7,,,,34,92
92040,note_on,160,0,11,,,,,,,,10,,,,67,75
92040,note_on,40,0,14,,,,,,,,13,,,,34,75
92040,note_on,40,0,8,,,,,,,,6,,,,46,108
92040,note_on,320,0,7,,,,,,,,5,,,,62,108
92040,note_on,160,0,10,,,,,,,,8,,,,71,75
92040,note_on,40,0,2,,,,,,,,0,,,,46,92
92040,note_on,160,0,1,,,,,,,,0,,,,67,92
92040,note_on,320,0,12,,,,,,,,11,,,,62,75
92040,note_on,160,0,5,,,,,,,,3,,,,71,108
92040,note_on,0,0,1,,,,,,,,0,,,,71,92
92040,note_on,160,0,6,,,,,,,,4,,,,67,108
92120,note_off,80,0,11,,,,,,,,10,,,,67,64
92120,note_off,80,0,1,,,,,,,,0,,,,71,64
92120,note_off,0,0,1,,,,,,,,0,,,,67,64
92120,note_off,80,0,2,,,,,,,,0,,,,46,64
92120,note_off,80,0,8,,,,,,,,6,,,,46,64
92120,note_off,80,0,7,,,,,,,,5,,,,62,64
92120,note_off,80,0,9,,,,,,,,7,,,,34,64
92120,note_off,80,0,5,,,,,,,,3,,,,71,64
92120,note_off,80,0,10,,,,,,,,8,,,,71,64
92120,note_off,80,0,13,,,,,,,,12,,,,46,64
92120,note_off,80,0,14,,,,,,,,13,,,,34,64
92120,note_off,80,0,6,,,,,,,,4,,,,67,64
92120,note_off,80,0,12,,,,,,,,11,,,,62,64
92160,note_on,40,0,14,,,,,,,,13,,,,33,75
92160,note_on,40,0,2,,,,,,,,0,,,,45,92
92160,note_on,40,0,9,,,,,,,,7,,,,33,92
92160,note_on,40,0,13,,,,,,,,12,,,,45,75
92160,note_on,40,0,8,,,,,,,,6,,,,45,108
92200,note_off,400,0,15,,,,,,,,14,,,,38,64
92240,note_off,80,0,8,,,,,,,,6,,,,45,64
92240,note_off,80,0,2,,,,,,,,0,,,,45,64
92240,note_off,80,0,9,,,,,,,,7,,,,33,64
92240,note_off,80,0,14,,,,,,,,13,,,,33,64
92240,note_off,80,0,13,,,,,,,,12,,,,45,64
92280,note_on,160,0,6,,,,,,,,4,,,,71,108
92280,note_on,160,0,5,,,,,,,,3,,,,74,108
92280,note_on,40,0,14,,,,,,,,13,,,,31,75
92280,note_on,40,0,8,,,,,,,,6,,,,43,108
92280,note_on,40,0,13,,,,,,,,12,,,,43,75
92280,note_on,160,0,11,,,,,,,,10,,,,71,75
92280,note_on,160,0,12,,,,,,,,11,,,,59,75
92280,note_on,40,0,2,,,,,,,,0,,,,43,92
92280,note_on,80,0,15,,,,,,,,14,,,,31,60
92280,note_on,160,0,7,,,,,,,,5,,,,59,108
92280,note_on,160,0,1,,,,,,,,0,,,,71,92
92280,note_on,0,0,1,,,,,,,,0,,,,74,92
92280,note_on,40,0,9,,,,,,,,7,,,,31,92
92280,note_on,160,0,10,,,,,,,,8,,,,74,75
92360,note_off,80,0,1,,,,,,,,0,,,,74,64
92360,note_off,80,0,6,,,,,,,,4,,,,71,64
92360,note_off,80,0,7,,,,,,,,5,,,,59,64
92360,note_off,80,0,2,,,,,,,,0,,,,43,64
92360,note_off,80,0,11,,,,,,,,10,,,,71,64
92360,note_off,80,0,12,,,,,,,,11,,,,59,64
92360,note_off,80,0,5,,,,,,,,3,,,,74,64
92360,note_off,80,0,14,,,,,,,,13,,,,31,64
92360,note_off,80,0,10,,,,,,,,8,,,,74,64
92360,note_off,80,0,13,,,,,,,,12,,,,43,64
92360,note_off,0,0,1,,,,,,,,0,,,,71,64
92360,note_off,80,0,9,,,,,,,,7,,,,31,64
92360,note_off,80,0,8,,,,,,,,6,,,,43,64
92400,note_on,40,0,12,,,,,,,,11,,,,57,75
92400,note_on,40,0,7,,,,,,,,5,,,,57,108
92480,note_off,80,0,12,,,,,,,,11,,,,57,64
92480,note_off,80,0,7,,,,,,,,5,,,,57,64
92515,note_off,235,0,15,,,,,,,,14,,,,31,64
92520,note_on,40,0,12,,,,,,,,11,,,,55,75
92520,note_on,160,0,5,,,,,,,,3,,,,77,108
92520,note_on,160,0,6,,,,,,,,4,,,,74,108
92520,note_on,160,0,10,,,,,,,,8,,,,77,75
92520,note_on,160,0,11,,,,,,,,10,,,,74,75
92520,note_on,40,0,7,,,,,,,,5,,,,55,108
92520,note_on,0,0,1,,,,,,,,0,,,,77,92
92520,note_on,160,0,1,,,,,,,,0,,,,74,92
92600,note_off,80,0,11,,,,,,,,10,,,,74,64
92600,note_off,80,0,12,,,,,,,,11,,,,55,64
92600,note_off,80,0,5,,,,,,,,3,,,,77,64
92600,note_off,80,0,1,,,,,,,,0,,,,77,64
92600,note_off,80,0,7,,,,,,,,5,,,,55,64
92600,note_off,80,0,10,,,,,,,,8,,,,77,64
92600,note_off,0,0,1,,,,,,,,0,,,,74,64
92600,note_off,80,0,6,,,,,,,,4,,,,74,64
92640,note_on,40,0,7,,,,,,,,5,,,,53,108
92640,note_on,40,0,12,,,,,,,,11,,,,53,75
92720,note_off,80,0,12,,,,,,,,11,,,,53,64
92720,note_off,80,0,7,,,,,,,,5,,,,53,64
92760,note_on,40,0,12,,,,,,,,11,,,,55,75
92760,note_on,160,0,1,,,,,,,,0,,,,72,92
92760,note_on,400,0,9,,,,,,,,7,,,,36,92
92760,note_on,160,0,10,,,,,,,,8,,,,75,75
92760,note_on,400,0,14,,,,,,,,13,,,,36,75
92760,note_on,40,0,7,,,,,,,,5,,,,55,108
92760,note_on,400,0,13,,,,,,,,12,,,,48,75
92760,note_on,0,0,1,,,,,,,,0,,,,75,92
92760,note_on,160,0,6,,,,,,,,4,,,,72,108
92760,note_on,400,0,2,,,,,,,,0,,,,48,92
92760,note_on,160,0,5,,,,,,,,3,,,,75,108
92760,note_on,245,0,15,,,,,,,,14,,,,36,60
92760,note_on,160,0,11,,,,,,,,10,,,,72,75
92760,note_on,400,0,8,,,,,,,,6,,,,48,108
92840,note_off,80,0,5,,,,,,,,3,,,,75,64
92840,note_off,80,0,6,,,,,,,,4,,,,72,64
92840,note_off,80,0,14,,,,,,,,13,,,,36,64
92840,note_off,80,0,13,,,,,,,,12,,,,48,64
92840,note_off,0,0,1,,,,,,,,0,,,,72,64
92840,end_of_track,0,1,1,,,,,,,,,,,,,
92840,note_off,80,0,1,,,,,,,,0,,,,75,64
92840,note_off,80,0,10,,,,,,,,8,,,,75,64
92840,note_off,80,0,9,,,,,,,,7,,,,36,64
92840,note_off,80,0,8,,,,,,,,6,,,,48,64
92840,note_off,80,0,11,,,,,,,,10,,,,72,64
92840,note_off,80,0,2,,,,,,,,0,,,,48,64
92880,note_on,40,0,5,,,,,,,,3,,,,63,108
92880,note_on,40,0,8,,,,,,,,6,,,,60,108
92880,note_on,40,0,11,,,,,,,,10,,,,60,75
92880,note_on,40,0,13,,,,,,,,12,,,,60,75
92880,note_on,40,0,2,,,,,,,,0,,,,60,92
92880,note_on,40,0,10,,,,,,,,8,,,,63,75
92880,note_on,40,0,9,,,,,,,,7,,,,48,92
92880,note_on,40,0,6,,,,,,,,4,,,,60,108
92880,note_on,40,0,14,,,,,,,,13,,,,48,75
92960,note_off,80,0,6,,,,,,,,4,,,,60,64
92960,note_off,80,0,5,,,,,,,,3,,,,63,64
92960,note_off,80,0,13,,,,,,,,12,,,,60,64
92960,note_off,80,0,10,,,,,,,,8,,,,63,64
92960,note_off,80,0,11,,,,,,,,10,,,,60,64
92960,note_off,80,0,9,,,,,,,,7,,,,48,64
92960,note_off,80,0,14,,,,,,,,13,,,,48,64
92960,note_off,80,0,2,,,,,,,,0,,,,60,64
92960,note_off,80,0,8,,,,,,,,6,,,,60,64
93000,note_on,40,0,13,,,,,,,,12,,,,58,75
93000,note_on,40,0,9,,,,,,,,7,,,,46,92
93000,note_on,40,0,5,,,,,,,,3,,,,65,108
93000,note_on,40,0,14,,,,,,,,13,,,,46,75
93000,note_on,40,0,8,,,,,,,,6,,,,58,108
93000,note_on,40,0,6,,,,,,,,4,,,,62,108
93000,note_on,40,0,11,,,,,,,,10,,,,62,75
93000,note_on,40,0,10,,,,,,,,8,,,,65,75
93000,note_on,40,0,2,,,,,,,,0,,,,58,92
93080,note_off,80,0,5,,,,,,,,3,,,,65,64
93080,note_off,80,0,13,,,,,,,,12,,,,58,64
93080,note_off,80,0,9,,,,,,,,7,,,,46,64
93080,note_off,80,0,6,,,,,,,,4,,,,62,64
93080,note_off,80,0,2,,,,,,,,0,,,,58,64
93080,note_off,80,0,10,,,,,,,,8,,,,65,64
93080,note_off,80,0,8,,,,,,,,6,,,,58,64
93080,note_off,80,0,11,,,,,,,,10,,,,62,64
93080,note_off,80,0,14,,,,,,,,13,,,,46,64
93120,note_on,40,0,2,,,,,,,,0,,,,56,92
93120,note_on,40,0,8,,,,,,,,6,,,,56,108
93120,note_on,40,0,9,,,,,,,,7,,,,44,92
93120,note_on,40,0,11,,,,,,,,10,,,,63,75
93120,note_on,40,0,13,,,,,,,,12,,,,56,75
93120,note_on,40,0,6,,,,,,,,4,,,,63,108
93120,note_on,40,0,10,,,,,,,,8,,,,67,75
93120,note_on,40,0,5,,,,,,,,3,,,,67,108
93120,note_on,40,0,14,,,,,,,,13,,,,44,75
93160,note_off,400,0,12,,,,,,,,11,,,,55,64
93160,note_off,400,0,15,,,,,,,,14,,,,36,64
93160,note_off,400,0,7,,,,,,,,5,,,,55,64
93200,note_off,80,0,14,,,,,,,,13,,,,44,64
93200,note_off,80,0,9,,,,,,,,7,,,,44,64
93200,note_off,80,0,10,,,,,,,,8,,,,67,64
93200,note_off,80,0,6,,,,,,,,4,,,,63,64
93200,note_off,80,0,11,,,,,,,,10,,,,63,64
93200,note_off,80,0,2,,,,,,,,0,,,,56,64
93200,note_off,80,0,5,,,,,,,,3,,,,67,64
93200,note_off,80,0,13,,,,,,,,12,,,,56,64
93200,note_off,80,0,8,,,,,,,,6,,,,56,64
93240,note_on,40,0,6,,,,,,,,4,,,,65,108
93240,note_on,40,0,2,,,,,,,,0,,,,55,92
93240,note_on,40,0,8,,,,,,,,6,,,,55,108
93240,note_on,40,0,10,,,,,,,,8,,,,68,75
93240,note_on,40,0,14,,,,,,,,13,,,,43,75
93240,note_on,40,0,9,,,,,,,,7,,,,43,92
93240,note_on,80,0,15,,,,,,,,14,,,,43,60
93240,note_on,40,0,11,,,,,,,,10,,,,65,75
93240,note_on,40,0,13,,,,,,,,12,,,,55,75
93240,note_on,40,0,5,,,,,,,,3,,,,68,108
93320,note_off,80,0,10,,,,,,,,8,,,,68,64
93320,note_off,80,0,6,,,,,,,,4,,,,65,64
93320,note_off,80,0,5,,,,,,,,3,,,,68,64
93320,note_off,80,0,11,,,,,,,,10,,,,65,64
93320,note_off,80,0,13,,,,,,,,12,,,,55,64
93320,note_off,80,0,2,,,,,,,,0,,,,55,64
93320,note_off,80,0,8,,,,,,,,6,,,,55,64
93320,note_off,80,0,14,,,,,,,,13,,,,43,64
93320,note_off,80,0,9,,,,,,,,7,,,,43,64
93360,note_on,40,0,9,,,,,,,,7,,,,41,92
93360,note_on,40,0,13,,,,,,,,12,,,,53,75
93360,note_on,40,0,2,,,,,,,,0,,,,53,92
93360,note_on,40,0,11,,,,,,,,10,,,,67,75
93360,note_on,40,0,5,,,,,,,,3,,,,71,108
93360,note_on,40,0,6,,,,,,,,4,,,,67,108
93360,note_on,40,0,8,,,,,,,,6,,,,53,108
93360,note_on,40,0,10,,,,,,,,8,,,,71,75
93360,note_on,40,0,14,,,,,,,,13,,,,41,75
93440,note_off,80,0,10,,,,,,,,8,,,,71,64
93440,note_off,80,0,6,,,,,,,,4,,,,67,64
93440,note_off,80,0,9,,,,,,,,7,,,,41,64
93440,note_off,80,0,5,,,,,,,,3,,,,71,64
93440,note_off,80,0,14,,,,,,,,13,,,,41,64
93440,note_off,80,0,2,,,,,,,,0,,,,53,64
93440,note_off,80,0,13,,,,,,,,12,,,,53,64
93440,note_off,80,0,8,,,,,,,,6,,,,53,64
93440,note_off,80,0,11,,,,,,,,10,,,,67,64
93480,note_on,40,0,9,,,,,,,,7,,,,39,92
93480,note_on,40,0,8,,,,,,,,6,,,,51,108
93480,note_on,40,0,6,,,,,,,,4,,,,68,108
93480,note_on,40,0,11,,,,,,,,10,,,,68,75
93480,note_on,40,0,13,,,,,,,,12,,,,51,75
93480,note_on,40,0,5,,,,,,,,3,,,,72,108
93480,note_on,40,0,2,,,,,,,,0,,,,51,92
93480,note_on,40,0,10,,,,,,,,8,,,,72,75
93480,note_on,40,0,14,,,,,,,,13,,,,39,75
93560,note_off,80,0,10,,,,,,,,8,,,,72,64
93560,note_off,80,0,13,,,,,,,,12,,,,51,64
93560,note_off,80,0,14,,,,,,,,13,,,,39,64
93560,note_off,80,0,8,,,,,,,,6,,,,51,64
93560,note_off,80,0,9,,,,,,,,7,,,,39,64
93560,note_off,80,0,11,,,,,,,,10,,,,68,64
93560,note_off,80,0,6,,,,,,,,4,,,,68,64
93560,note_off,80,0,5,,,,,,,,3,,,,72,64
93560,note_off,80,0,2,,,,,,,,0,,,,51,64
93600,note_on,40,0,8,,,,,,,,6,,,,50,108
93600,note_on,40,0,2,,,,,,,,0,,,,50,92
93600,note_on,40,0,13,,,,,,,,12,,,,50,75
93600,note_on,40,0,9,,,,,,,,7,,,,38,92
93600,note_on,40,0,11,,,,,,,,10,,,,71,75
93600,note_on,40,0,14,,,,,,,,13,,,,38,75
93600,note_on,40,0,6,,,,,,,,4,,,,71,108
93600,note_on,40,0,10,,,,,,,,8,,,,74,75
93600,note_on,40,0,5,,,,,,,,3,,,,74,108
93640,note_off,400,0,15,,,,,,,,14,,,,43,64
93680,note_off,80,0,11,,,,,,,,10,,,,71,64
93680,note_off,80,0,14,,,,,,,,13,,,,38,64
93680,note_off,80,0,2,,,,,,,,0,,,,50,64
93680,note_off,80,0,13,,,,,,,,12,,,,50,64
93680,note_off,80,0,8,,,,,,,,6,,,,50,64
93680,note_off,80,0,9,,,,,,,,7,,,,38,64
93680,note_off,80,0,6,,,,,,,,4,,,,71,64
93680,note_off,80,0,5,,,,,,,,3,,,,74,64
93680,note_off,80,0,10,,,,,,,,8,,,,74,64
93720,note_on,40,0,13,,,,,,,,12,,,,48,75
93720,note_on,40,0,8,,,,,,,,6,,,,48,108
93720,note_on,40,0,9,,,,,,,,7,,,,36,92
93720,note_on,40,0,11,,,,,,,,10,,,,72,75
93720,note_on,40,0,6,,,,,,,,4,,,,72,108
93720,note_on,40,0,2,,,,,,,,0,,,,48,92
93720,note_on,80,0,15,,,,,,,,14,,,,36,60
93720,note_on,560,0,12,,,,,,,,11,,,,72,75
93720,note_on,40,0,14,,,,,,,,13,,,,36,75
93720,note_on,40,0,10,,,,,,,,8,,,,75,75
93720,note_on,560,0,7,,,,,,,,5,,,,72,108
93720,note_on,40,0,5,,,,,,,,3,,,,75,108
93800,note_off,80,0,14,,,,,,,,13,,,,36,64
93800,note_off,80,0,13,,,,,,,,12,,,,48,64
93800,note_off,80,0,8,,,,,,,,6,,,,48,64
93800,note_off,80,0,7,,,,,,,,5,,,,72,64
93800,note_off,80,0,10,,,,,,,,8,,,,75,64
93800,note_off,80,0,9,,,,,,,,7,,,,36,64
93800,note_off,80,0,5,,,,,,,,3,,,,75,64
93800,end_of_track,0,1,2,,,,,,,,,,,,,
93800,note_off,80,0,2,,,,,,,,0,,,,48,64
93800,note_off,80,0,12,,,,,,,,11,,,,72,64
93800,note_off,80,0,6,,,,,,,,4,,,,72,64
93800,note_off,80,0,11,,,,,,,,10,,,,72,64
93840,note_on,40,0,7,,,,,,,,5,,,,67,108
93840,note_on,40,0,12,,,,,,,,11,,,,67,75
93920,note_off,80,0,7,,,,,,,,5,,,,67,64
93920,note_off,80,0,12,,,,,,,,11,,,,67,64
93955,note_off,235,0,15,,,,,,,,14,,,,36,64
93960,note_on,40,0,12,,,,,,,,11,,,,63,75
93960,note_on,40,0,7,,,,,,,,5,,,,63,108
94040,note_off,80,0,7,,,,,,,,5,,,,63,64
94040,note_off,80,0,12,,,,,,,,11,,,,63,64
94080,note_on,40,0,12,,,,,,,,11,,,,60,75
94080,note_on,40,0,7,,,,,,,,5,,,,60,108
94160,note_off,80,0,12,,,,,,,,11,,,,60,64
94160,note_off,80,0,7,,,,,,,,5,,,,60,64
94200,note_on,40,0,7,,,,,,,,5,,,,55,108
94200,note_on,40,0,12,,,,,,,,11,,,,55,75
94320,note_on,520,0,6,,,,,,,,4,,,,60,108
94320,note_on,520,0,14,,,,,,,,13,,,,48,75
94320,note_on,520,0,5,,,,,,,,3,,,,63,108
94320,note_on,520,0,13,,,,,,,,12,,,,60,75
94320,note_on,520,0,9,,,,,,,,7,,,,48,92
94320,note_on,520,0,10,,,,,,,,8,,,,63,75
94320,note_on,520,0,8,,,,,,,,6,,,,60,108
94320,note_on,520,0,11,,,,,,,,10,,,,60,75
94400,note_off,80,0,13,,,,,,,,12,,,,60,64
94400,note_off,80,0,8,,,,,,,,6,,,,60,64
94400,note_off,80,0,14,,,,,,,,13,,,,48,64
94400,note_off,80,0,11,,,,,,,,10,,,,60,64
94400,note_off,80,0,9,,,,,,,,7,,,,48,64
94400,note_off,80,0,5,,,,,,,,3,,,,63,64
94400,note_off,80,0,10,,,,,,,,8,,,,63,64
94400,note_off,80,0,6,,,,,,,,4,,,,60,64
94440,note_on,40,0,13,,,,,,,,12,,,,58,75
94440,note_on,40,0,8,,,,,,,,6,,,,58,108
94440,note_on,40,0,9,,,,,,,,7,,,,46,92
94440,note_on,40,0,6,,,,,,,,4,,,,62,108
94440,note_on,40,0,5,,,,,,,,3,,,,65,108
94440,note_on,40,0,11,,,,,,,,10,,,,62,75
94440,note_on,40,0,10,,,,,,,,8,,,,65,75
94440,note_on,40,0,14,,,,,,,,13,,,,46,75
94520,note_off,80,0,13,,,,,,,,12,,,,58,64
94520,note_off,80,0,9,,,,,,,,7,,,,46,64
94520,note_off,80,0,11,,,,,,,,10,,,,62,64
94520,note_off,80,0,8,,,,,,,,6,,,,58,64
94520,note_off,80,0,6,,,,,,,,4,,,,62,64
94520,note_off,80,0,10,,,,,,,,8,,,,65,64
94520,note_off,80,0,5,,,,,,,,3,,,,65,64
94520,note_off,80,0,14,,,,,,,,13,,,,46,64
94560,note_on,40,0,13,,,,,,,,12,,,,56,75
94560,note_on,40,0,11,,,,,,,,10,,,,63,75
94560,note_on,40,0,14,,,,,,,,13,,,,44,75
94560,note_on,40,0,5,,,,,,,,3,,,,67,108
94560,note_on,40,0,10,,,,,,,,8,,,,67,75
94560,note_on,40,0,9,,,,,,,,7,,,,44,92
94560,note_on,40,0,6,,,,,,,,4,,,,63,108
94560,note_on,40,0,8,,,,,,,,6,,,,56,108
94600,note_off,400,0,12,,,,,,,,11,,,,55,64
94600,note_off,400,0,7,,,,,,,,5,,,,55,64
94640,note_off,80,0,14,,,,,,,,13,,,,44,64
94640,note_off,80,0,13,,,,,,,,12,,,,56,64
94640,note_off,80,0,10,,,,,,,,8,,,,67,64
94640,note_off,80,0,8,,,,,,,,6,,,,56,64
94640,note_off,80,0,9,,,,,,,,7,,,,44,64
94640,note_off,80,0,11,,,,,,,,10,,,,63,64
94640,note_off,80,0,6,,,,,,,,4,,,,63,64
94640,note_off,80,0,5,,,,,,,,3,,,,67,64
94680,note_on,40,0,11,,,,,,,,10,,,,65,75
94680,note_on,40,0,9,,,,,,,,7,,,,43,92
94680,note_on,40,0,6,,,,,,,,4,,,,65,108
94680,note_on,40,0,5,,,,,,,,3,,,,68,108
94680,note_on,40,0,13,,,,,,,,12,,,,55,75
94680,note_on,40,0,8,,,,,,,,6,,,,55,108
94680,note_on,40,0,10,,,,,,,,8,,,,68,75
94680,note_on,725,0,15,,,,,,,,14,,,,43,60
94680,note_on,40,0,14,,,,,,,,13,,,,43,75
94760,note_off,80,0,14,,,,,,,,13,,,,43,64
94760,note_off,80,0,10,,,,,,,,8,,,,68,64
94760,note_off,80,0,6,,,,,,,,4,,,,65,64
94760,note_off,80,0,5,,,,,,,,3,,,,68,64
94760,note_off,80,0,9,,,,,,,,7,,,,43,64
94760,note_off,80,0,13,,,,,,,,12,,,,55,64
94760,note_off,80,0,11,,,,,,,,10,,,,65,64
94760,note_off,80,0,8,,,,,,,,6,,,,55,64
94800,note_on,40,0,6,,,,,,,,4,,,,67,108
94800,note_on,40,0,9,,,,,,,,7,,,,41,92
94800,note_on,40,0,14,,,,,,,,13,,,,41,75
94800,note_on,40,0,10,,,,,,,,8,,,,71,75
94800,note_on,40,0,13,,,,,,,,12,,,,53,75
94800,note_on,40,0,5,,,,,,,,3,,,,71,108
94800,note_on,40,0,11,,,,,,,,10,,,,67,75
94800,note_on,40,0,8,,,,,,,,6,,,,53,108
94880,note_off,80,0,8,,,,,,,,6,,,,53,64
94880,note_off,80,0,11,,,,,,,,10,,,,67,64
94880,note_off,80,0,6,,,,,,,,4,,,,67,64
94880,note_off,80,0,5,,,,,,,,3,,,,71,64
94880,note_off,80,0,9,,,,,,,,7,,,,41,64
94880,note_off,80,0,10,,,,,,,,8,,,,71,64
94880,note_off,80,0,13,,,,,,,,12,,,,53,64
94880,note_off,80,0,14,,,,,,,,13,,,,41,64
94920,note_on,40,0,11,,,,,,,,10,,,,68,75
94920,note_on,40,0,9,,,,,,,,7,,,,39,92
94920,note_on,40,0,10,,,,,,,,8,,,,72,75
94920,note_on,40,0,13,,,,,,,,12,,,,51,75
94920,note_on,40,0,14,,,,,,,,13,,,,39,75
94920,note_on,40,0,6,,,,,,,,4,,,,68,108
94920,note_on,40,0,8,,,,,,,,6,,,,51,108
94920,note_on,40,0,5,,,,,,,,3,,,,72,108
95000,note_off,80,0,13,,,,,,,,12,,,,51,64
95000,note_off,80,0,10,,,,,,,,8,,,,72,64
95000,note_off,80,0,9,,,,,,,,7,,,,39,64
95000,note_off,80,0,5,,,,,,,,3,,,,72,64
95000,note_off,80,0,14,,,,,,,,13,,,,39,64
95000,note_off,80,0,8,,,,,,,,6,,,,51,64
95000,note_off,80,0,11,,,,,,,,10,,,,68,64
95000,note_off,80,0,6,,,,,,,,4,,,,68,64
95040,note_on,40,0,6,,,,,,,,4,,,,71,108
95040,note_on,40,0,13,,,,,,,,12,,,,50,75
95040,note_on,40,0,11,,,,,,,,10,,,,71,75
95040,note_on,40,0,10,,,,,,,,8,,,,74,75
95040,note_on,40,0,5,,,,,,,,3,,,,74,108
95040,note_on,40,0,14,,,,,,,,13,,,,38,75
95040,note_on,40,0,9,,,,,,,,7,,,,38,92
95040,note_on,40,0,8,,,,,,,,6,,,,50,108
95080,note_off,400,0,15,,,,,,,,14,,,,43,64
95120,note_off,80,0,9,,,,,,,,7,,,,38,64
95120,note_off,80,0,6,,,,,,,,4,,,,71,64
95120,note_off,80,0,10,,,,,,,,8,,,,74,64
95120,note_off,80,0,8,,,,,,,,6,,,,50,64
95120,note_off,80,0,11,,,,,,,,10,,,,71,64
95120,note_off,80,0,5,,,,,,,,3,,,,74,64
95120,note_off,80,0,14,,,,,,,,13,,,,38,64
95120,note_off,80,0,13,,,,,,,,12,,,,50,64
95160,note_on,560,0,12,,,,,,,,11,,,,72,75
95160,note_on,40,0,8,,,,,,,,6,,,,48,108
95160,note_on,40,0,9,,,,,,,,7,,,,36,92
95160,note_on,40,0,11,,,,,,,,10,,,,72,75
95160,note_on,40,0,14,,,,,,,,13,,,,36,75
95160,note_on,40,0,10,,,,,,,,8,,,,75,75
95160,note_on,80,0,15,,,,,,,,14,,,,36,60
95160,note_on,40,0,13,,,,,,,,12,,,,48,75
95160,note_on,560,0,7,,,,,,,,5,,,,72,108
95160,note_on,40,0,6,,,,,,,,4,,,,72,108
95160,note_on,40,0,5,,,,,,,,3,,,,75,108
95240,note_off,80,0,10,,,,,,,,8,,,,75,64
95240,note_off,80,0,11,,,,,,,,10,,,,72,64
95240,note_off,80,0,8,,,,,,,,6,,,,48,64
95240,note_off,80,0,14,,,,,,,,13,,,,36,64
95240,note_off,80,0,9,,,,,,,,7,,,,36,64
95240,note_off,80,0,13,,,,,,,,12,,,,48,64
95240,note_off,80,0,6,,,,,,,,4,,,,72,64
95240,note_off,80,0,12,,,,,,,,11,,,,72,64
95240,note_off,80,0,7,,,,,,,,5,,,,72,64
95240,note_off,80,0,5,,,,,,,,3,,,,75,64
95280,note_on,40,0,12,,,,,,,,11,,,,67,75
95280,note_on,40,0,7,,,,,,,,5,,,,67,108
95360,note_off,80,0,12,,,,,,,,11,,,,67,64
95360,note_off,80,0,7,,,,,,,,5,,,,67,64
95395,note_off,235,0,15,,,,,,,,14,,,,36,64
95400,note_on,40,0,12,,,,,,,,11,,,,63,75
95400,note_on,40,0,7,,,,,,,,5,,,,63,108
95480,note_off,80,0,7,,,,,,,,5,,,,63,64
95480,note_off,80,0,12,,,,,,,,11,,,,63,64
95520,note_on,40,0,7,,,,,,,,5,,,,60,108
95520,note_on,40,0,12,,,,,,,,11,,,,60,75
95600,note_off,80,0,12,,,,,,,,11,,,,60,64
95600,note_off,80,0,7,,,,,,,,5,,,,60,64
95640,note_on,40,0,7,,,,,,,,5,,,,55,108
95640,note_on,40,0,12,,,,,,,,11,,,,55,75
95760,note_on,520,0,13,,,,,,,,12,,,,60,75
95760,note_on,520,0,6,,,,,,,,4,,,,60,108
95760,note_on,520,0,10,,,,,,,,8,,,,63,75
95760,note_on,520,0,11,,,,,,,,10,,,,60,75
95760,note_on,520,0,8,,,,,,,,6,,,,60,108
95760,note_on,520,0,5,,,,,,,,3,,,,63,108
95760,note_on,520,0,14,,,,,,,,13,,,,48,75
95760,note_on,520,0,9,,,,,,,,7,,,,48,92
95840,note_off,80,0,11,,,,,,,,10,,,,60,64
95840,note_off,80,0,8,,,,,,,,6,,,,60,64
95840,note_off,80,0,10,,,,,,,,8,,,,63,64
95840,note_off,80,0,9,,,,,,,,7,,,,48,64
95840,note_off,80,0,14,,,,,,,,13,,,,48,64
95840,note_off,80,0,6,,,,,,,,4,,,,60,64
95840,note_off,80,0,13,,,,,,,,12,,,,60,64
95840,note_off,80,0,5,,,,,,,,3,,,,63,64
95880,note_on,40,0,11,,,,,,,,10,,,,62,75
95880,note_on,40,0,6,,,,,,,,4,,,,62,108
95880,note_on,40,0,14,,,,,,,,13,,,,46,75
95880,note_on,40,0,8,,,,,,,,6,,,,58,108
95880,note_on,40,0,10,,,,,,,,8,,,,65,75
95880,note_on,40,0,5,,,,,,,,3,,,,65,108
95880,note_on,40,0,9,,,,,,,,7,,,,46,92
95880,note_on,40,0,13,,,,,,,,12,,,,58,75
95960,note_off,80,0,8,,,,,,,,6,,,,58,64
95960,note_off,80,0,9,,,,,,,,7,,,,46,64
95960,note_off,80,0,5,,,,,,,,3,,,,65,64
95960,note_off,80,0,10,,,,,,,,8,,,,65,64
95960,note_off,80,0,11,,,,,,,,10,,,,62,64
95960,note_off,80,0,14,,,,,,,,13,,,,46,64
95960,note_off,80,0,13,,,,,,,,12,,,,58,64
95960,note_off,80,0,6,,,,,,,,4,,,,62,64
96000,note_on,40,0,9,,,,,,,,7,,,,44,92
96000,note_on,40,0,13,,,,,,,,12,,,,56,75
96000,note_on,40,0,5,,,,,,,,3,,,,67,108
96000,note_on,40,0,8,,,,,,,,6,,,,56,108
96000,note_on,40,0,6,,,,,,,,4,,,,63,108
96000,note_on,40,0,11,,,,,,,,10,,,,63,75
96000,note_on,40,0,10,,,,,,,,8,,,,67,75
96000,note_on,40,0,14,,,,,,,,13,,,,44,75
96040,note_off,400,0,7,,,,,,,,5,,,,55,64
96040,note_off,400,0,12,,,,,,,,11,,,,55,64
96080,note_off,80,0,6,,,,,,,,4,,,,63,64
96080,note_off,80,0,11,,,,,,,,10,,,,63,64
96080,note_off,80,0,5,,,,,,,,3,,,,67,64
96080,note_off,80,0,14,,,,,,,,13,,,,44,64
96080,note_off,80,0,13,,,,,,,,12,,,,56,64
96080,note_off,80,0,9,,,,,,,,7,,,,44,64
96080,note_off,80,0,10,,,,,,,,8,,,,67,64
96080,note_off,80,0,8,,,,,,,,6,,,,56,64
96120,note_on,40,0,10,,,,,,,,8,,,,68,75
96120,note_on,40,0,5,,,,,,,,3,,,,68,108
96120,note_on,40,0,8,,,,,,,,6,,,,55,108
96120,note_on,725,0,15,,,,,,,,14,,,,43,60
96120,note_on,40,0,13,,,,,,,,12,,,,55,75
96120,note_on,40,0,14,,,,,,,,13,,,,43,75
96120,note_on,40,0,9,,,,,,,,7,,,,43,92
96120,note_on,40,0,6,,,,,,,,4,,,,65,108
96120,note_on,40,0,11,,,,,,,,10,,,,65,75
96200,note_off,80,0,8,,,,,,,,6,,,,55,64
96200,note_off,80,0,14,,,,,,,,13,,,,43,64
96200,note_off,80,0,10,,,,,,,,8,,,,68,64
96200,note_off,80,0,5,,,,,,,,3,,,,68,64
96200,note_off,80,0,6,,,,,,,,4,,,,65,64
96200,note_off,80,0,13,,,,,,,,12,,,,55,64
96200,note_off,80,0,9,,,,,,,,7,,,,43,64
96200,note_off,80,0,11,,,,,,,,10,,,,65,64
96240,note_on,40,0,9,,,,,,,,7,,,,41,92
96240,note_on,40,0,5,,,,,,,,3,,,,71,108
96240,note_on,40,0,11,,,,,,,,10,,,,67,75
96240,note_on,40,0,10,,,,,,,,8,,,,71,75
96240,note_on,40,0,6,,,,,,,,4,,,,67,108
96240,note_on,40,0,14,,,,,,,,13,,,,41,75
96240,note_on,40,0,13,,,,,,,,12,,,,53,75
96240,note_on,40,0,8,,,,,,,,6,,,,53,108
96320,note_off,80,0,11,,,,,,,,10,,,,67,64
96320,note_off,80,0,6,,,,,,,,4,,,,67,64
96320,note_off,80,0,10,,,,,,,,8,,,,71,64
96320,note_off,80,0,5,,,,,,,,3,,,,71,64
96320,note_off,80,0,9,,,,,,,,7,,,,41,64
96320,note_off,80,0,8,,,,,,,,6,,,,53,64
96320,note_off,80,0,14,,,,,,,,13,,,,41,64
96320,note_off,80,0,13,,,,,,,,12,,,,53,64
96360,note_on,40,0,5,,,,,,,,3,,,,72,108
96360,note_on,40,0,13,,,,,,,,12,,,,51,75
96360,note_on,40,0,6,,,,,,,,4,,,,68,108
96360,note_on,40,0,10,,,,,,,,8,,,,72,75
96360,note_on,40,0,8,,,,,,,,6,,,,51,108
96360,note_on,40,0,14,,,,,,,,13,,,,39,75
96360,note_on,40,0,11,,,,,,,,10,,,,68,75
96360,note_on,40,0,9,,,,,,,,7,,,,39,92
96440,note_off,80,0,5,,,,,,,,3,,,,72,64
96440,note_off,80,0,8,,,,,,,,6,,,,51,64
96440,note_off,80,0,13,,,,,,,,12,,,,51,64
96440,note_off,80,0,6,,,,,,,,4,,,,68,64
96440,note_off,80,0,14,,,,,,,,13,,,,39,64
96440,note_off,80,0,11,,,,,,,,10,,,,68,64
96440,note_off,80,0,9,,,,,,,,7,,,,39,64
96440,note_off,80,0,10,,,,,,,,8,,,,72,64
96480,note_on,40,0,9,,,,,,,,7,,,,38,92
96480,note_on,40,0,5,,,,,,,,3,,,,74,108
96480,note_on,40,0,13,,,,,,,,12,,,,50,75
96480,note_on,40,0,6,,,,,,,,4,,,,71,108
96480,note_on,40,0,8,,,,,,,,6,,,,50,108
96480,note_on,40,0,11,,,,,,,,10,,,,71,75
96480,note_on,40,0,14,,,,,,,,13,,,,38,75
96480,note_on,40,0,10,,,,,,,,8,,,,74,75
96520,note_off,400,0,15,,,,,,,,14,,,,43,64
96560,note_off,80,0,8,,,,,,,,6,,,,50,64
96560,note_off,80,0,6,,,,,,,,4,,,,71,64
96560,note_off,80,0,10,,,,,,,,8,,,,74,64
96560,note_off,80,0,11,,,,,,,,10,,,,71,64
96560,note_off,80,0,14,,,,,,,,13,,,,38,64
96560,note_off,80,0,9,,,,,,,,7,,,,38,64
96560,note_off,80,0,5,,,,,,,,3,,,,74,64
96560,note_off,80,0,13,,,,,,,,12,,,,50,64
96600,note_on,40,0,14,,,,,,,,13,,,,36,75
96600,note_on,40,0,10,,,,,,,,8,,,,75,75
96600,note_on,40,0,6,,,,,,,,4,,,,72,108
96600,note_on,80,0,15,,,,,,,,14,,,,36,60
96600,note_on,560,0,7,,,,,,,,5,,,,72,108
96600,note_on,40,0,13,,,,,,,,12,,,,48,75
96600,note_on,40,0,11,,,,,,,,10,,,,72,75
96600,note_on,40,0,9,,,,,,,,7,,,,36,92
96600,note_on,40,0,5,,,,,,,,3,,,,75,108
96600,note_on,560,0,12,,,,,,,,11,,,,72,75
96600,note_on,40,0,8,,,,,,,,6,,,,48,108
96680,note_off,80,0,6,,,,,,,,4,,,,72,64
96680,note_off,80,0,9,,,,,,,,7,,,,36,64
96680,note_off,80,0,10,,,,,,,,8,,,,75,64
96680,note_off,80,0,7,,,,,,,,5,,,,72,64
96680,note_off,80,0,8,,,,,,,,6,,,,48,64
96680,note_off,80,0,14,,,,,,,,13,,,,36,64
96680,note_off,80,0,12,,,,,,,,11,,,,72,64
96680,note_off,80,0,5,,,,,,,,3,,,,75,64
96680,note_off,80,0,13,,,,,,,,12,,,,48,64
96680,note_off,80,0,11,,,,,,,,10,,,,72,64
96720,note_on,40,0,7,,,,,,,,5,,,,67,108
96720,note_on,40,0,12,,,,,,,,11,,,,67,75
96800,note_off,80,0,7,,,,,,,,5,,,,67,64
96800,note_off,80,0,12,,,,,,,,11,,,,67,64
96835,note_off,235,0,15,,,,,,,,14,,,,36,64
96840,note_on,40,0,12,,,,,,,,11,,,,63,75
96840,note_on,40,0,7,,,,,,,,5,,,,63,108
96920,note_off,80,0,12,,,,,,,,11,,,,63,64
96920,note_off,80,0,7,,,,,,,,5,,,,63,64
96960,note_on,40,0,7,,,,,,,,5,,,,60,108
96960,note_on,40,0,12,,,,,,,,11,,,,60,75
97040,note_off,80,0,7,,,,,,,,5,,,,60,64
97040,note_off,80,0,12,,,,,,,,11,,,,60,64
97080,note_on,400,0,9,,,,,,,,7,,,,39,45
97080,note_on,40,0,7,,,,,,,,5,,,,55,45
97080,note_on,40,0,12,,,,,,,,11,,,,62,45
97080,note_on,400,0,13,,,,,,,,12,,,,51,45
97080,note_on,400,0,14,,,,,,,,13,,,,39,45
97080,note_on,400,0,10,,,,,,,,8,,,,63,45
97080,note_on,245,0,15,,,,,,,,14,,,,39,30
97080,note_on,400,0,5,,,,,,,,3,,,,63,45
97080,note_on,400,0,8,,,,,,,,6,,,,51,45
97160,note_off,80,0,14,,,,,,,,13,,,,39,64
97160,note_off,80,0,10,,,,,,,,8,,,,63,64
97160,note_off,80,0,5,,,,,,,,3,,,,63,64
97160,note_off,80,0,7,,,,,,,,5,,,,55,64
97160,note_off,80,0,9,,,,,,,,7,,,,39,64
97160,note_off,80,0,8,,,,,,,,6,,,,51,64
97160,note_off,80,0,12,,,,,,,,11,,,,62,64
97160,note_off,80,0,13,,,,,,,,12,,,,51,64
97200,note_on,40,0,5,,,,,,,,3,,,,72,45
97200,note_on,40,0,10,,,,,,,,8,,,,72,45
97280,note_off,80,0,10,,,,,,,,8,,,,72,64
97280,note_off,80,0,5,,,,,,,,3,,,,72,64
97320,note_on,160,0,9,,,,,,,,7,,,,39,45
97320,note_on,160,0,13,,,,,,,,12,,,,51,45
97320,note_on,160,0,12,,,,,,,,11,,,,62,45
97320,note_on,40,0,10,,,,,,,,8,,,,70,45
97320,note_on,40,0,5,,,,,,,,3,,,,70,45
97320,note_on,160,0,7,,,,,,,,5,,,,55,45
97320,note_on,160,0,14,,,,,,,,13,,,,39,45
97320,note_on,160,0,8,,,,,,,,6,,,,51,45
97400,note_off,80,0,13,,,,,,,,12,,,,51,64
97400,note_off,80,0,14,,,,,,,,13,,,,39,64
97400,note_off,80,0,10,,,,,,,,8,,,,70,64
97400,note_off,80,0,12,,,,,,,,11,,,,62,64
97400,note_off,80,0,8,,,,,,,,6,,,,51,64
97400,note_off,80,0,7,,,,,,,,5,,,,55,64
97400,note_off,80,0,5,,,,,,,,3,,,,70,64
97400,note_off,80,0,9,,,,,,,,7,,,,39,64
97440,note_on,40,0,10,,,,,,,,8,,,,72,45
97440,note_on,40,0,5,,,,,,,,3,,,,72,45
97480,note_off,400,0,15,,,,,,,,14,,,,39,64
97520,note_off,80,0,5,,,,,,,,3,,,,72,64
97520,note_off,80,0,10,,,,,,,,8,,,,72,64
97560,note_on,160,0,7,,,,,,,,5,,,,55,45
97560,note_on,80,0,15,,,,,,,,14,,,,39,30
97560,note_on,40,0,10,,,,,,,,8,,,,63,45
97560,note_on,40,0,5,,,,,,,,3,,,,63,45
97560,note_on,160,0,13,,,,,,,,12,,,,51,45
97560,note_on,160,0,14,,,,,,,,13,,,,39,45
97560,note_on,160,0,9,,,,,,,,7,,,,39,45
97560,note_on,160,0,8,,,,,,,,6,,,,51,45
97560,note_on,160,0,12,,,,,,,,11,,,,62,45
97640,note_off,80,0,10,,,,,,,,8,,,,63,64
97640,note_off,80,0,13,,,,,,,,12,,,,51,64
97640,note_off,80,0,8,,,,,,,,6,,,,51,64
97640,note_off,80,0,9,,,,,,,,7,,,,39,64
97640,note_off,80,0,14,,,,,,,,13,,,,39,64
97640,note_off,80,0,7,,,,,,,,5,,,,55,64
97640,note_off,80,0,5,,,,,,,,3,,,,63,64
97640,note_off,80,0,12,,,,,,,,11,,,,62,64
97680,note_on,40,0,5,,,,,,,,3,,,,72,46
97680,note_on,40,0,10,,,,,,,,8,,,,72,46
97760,note_off,80,0,10,,,,,,,,8,,,,72,64
97760,note_off,80,0,5,,,,,,,,3,,,,72,64
97800,note_on,160,0,14,,,,,,,,13,,,,39,47
97800,note_on,40,0,10,,,,,,,,8,,,,70,47
97800,note_on,160,0,8,,,,,,,,6,,,,51,47
97800,note_on,40,0,5,,,,,,,,3,,,,70,47
97800,note_on,160,0,13,,,,,,,,12,,,,51,47
97800,note_on,160,0,9,,,,,,,,7,,,,39,47
97800,note_on,160,0,7,,,,,,,,5,,,,55,47
97800,note_on,160,0,12,,,,,,,,11,,,,62,47
97880,note_off,80,0,8,,,,,,,,6,,,,51,64
97880,note_off,80,0,5,,,,,,,,3,,,,70,64
97880,note_off,80,0,12,,,,,,,,11,,,,62,64
97880,note_off,80,0,10,,,,,,,,8,,,,70,64
97880,note_off,80,0,7,,,,,,,,5,,,,55,64
97880,note_off,80,0,9,,,,,,,,7,,,,39,64
97880,note_off,80,0,14,,,,,,,,13,,,,39,64
97880,note_off,80,0,13,,,,,,,,12,,,,51,64
97920,note_on,40,0,5,,,,,,,,3,,,,72,48
97920,note_on,40,0,10,,,,,,,,8,,,,72,48
97960,note_off,400,0,15,,,,,,,,14,,,,39,64
98000,note_off,80,0,5,,,,,,,,3,,,,72,64
98000,note_off,80,0,10,,,,,,,,8,,,,72,64
98040,note_on,160,0,13,,,,,,,,12,,,,51,50
98040,note_on,160,0,12,,,,,,,,11,,,,62,50
98040,note_on,160,0,14,,,,,,,,13,,,,39,50
98040,note_on,80,0,15,,,,,,,,14,,,,39,35
98040,note_on,40,0,5,,,,,,,,3,,,,63,49
98040,note_on,160,0,8,,,,,,,,6,,,,51,50
98040,note_on,160,0,7,,,,,,,,5,,,,55,50
98040,note_on,40,0,10,,,,,,,,8,,,,63,49
98040,note_on,160,0,9,,,,,,,,7,,,,39,50
98120,note_off,80,0,8,,,,,,,,6,,,,51,64
98120,note_off,80,0,13,,,,,,,,12,,,,51,64
98120,note_off,80,0,14,,,,,,,,13,,,,39,64
98120,note_off,80,0,10,,,,,,,,8,,,,63,64
98120,note_off,80,0,9,,,,,,,,7,,,,39,64
98120,note_off,80,0,5,,,,,,,,3,,,,63,64
98120,note_off,80,0,7,,,,,,,,5,,,,55,64
98120,note_off,80,0,12,,,,,,,,11,,,,62,64
98160,note_on,40,0,10,,,,,,,,8,,,,72,50
98160,note_on,40,0,5,,,,,,,,3,,,,72,50
98240,note_off,80,0,5,,,,,,,,3,,,,72,64
98240,note_off,80,0,10,,,,,,,,8,,,,72,64
98280,note_on,160,0,9,,,,,,,,7,,,,39,53
98280,note_on,160,0,7,,,,,,,,5,,,,55,53
98280,note_on,160,0,13,,,,,,,,12,,,,51,53
98280,note_on,160,0,12,,,,,,,,11,,,,62,53
98280,note_on,40,0,10,,,,,,,,8,,,,70,51
98280,note_on,160,0,8,,,,,,,,6,,,,51,53
98280,note_on,160,0,14,,,,,,,,13,,,,39,53
98280,note_on,40,0,5,,,,,,,,3,,,,70,51
98360,note_off,80,0,10,,,,,,,,8,,,,70,64
98360,note_off,80,0,7,,,,,,,,5,,,,55,64
98360,note_off,80,0,9,,,,,,,,7,,,,39,64
98360,note_off,80,0,12,,,,,,,,11,,,,62,64
98360,note_off,80,0,5,,,,,,,,3,,,,70,64
98360,note_off,80,0,8,,,,,,,,6,,,,51,64
98360,note_off,80,0,14,,,,,,,,13,,,,39,64
98360,note_off,80,0,13,,,,,,,,12,,,,51,64
98400,note_on,40,0,10,,,,,,,,8,,,,72,52
98400,note_on,40,0,5,,,,,,,,3,,,,72,52
98440,note_off,400,0,15,,,,,,,,14,,,,39,64
98480,note_off,80,0,5,,,,,,,,3,,,,72,64
98480,note_off,80,0,10,,,,,,,,8,,,,72,64
98520,note_on,40,0,5,,,,,,,,3,,,,65,53
98520,note_on,160,0,9,,,,,,,,7,,,,41,56
98520,note_on,80,0,15,,,,,,,,14,,,,41,40
98520,note_on,160,0,8,,,,,,,,6,,,,53,56
98520,note_on,160,0,12,,,,,,,,11,,,,63,56
98520,note_on,160,0,13,,,,,,,,12,,,,53,56
98520,note_on,40,0,10,,,,,,,,8,,,,65,53
98520,note_on,160,0,7,,,,,,,,5,,,,56,56
98520,note_on,160,0,14,,,,,,,,13,,,,41,56
98600,note_off,80,0,12,,,,,,,,11,,,,63,64
98600,note_off,80,0,10,,,,,,,,8,,,,65,64
98600,note_off,80,0,5,,,,,,,,3,,,,65,64
98600,note_off,80,0,7,,,,,,,,5,,,,56,64
98600,note_off,80,0,14,,,,,,,,13,,,,41,64
98600,note_off,80,0,8,,,,,,,,6,,,,53,64
98600,note_off,80,0,13,,,,,,,,12,,,,53,64
98600,note_off,80,0,9,,,,,,,,7,,,,41,64
98640,note_on,40,0,5,,,,,,,,3,,,,72,54
98640,note_on,40,0,10,,,,,,,,8,,,,72,54
98720,note_off,80,0,5,,,,,,,,3,,,,72,64
98720,note_off,80,0,10,,,,,,,,8,,,,72,64
98760,note_on,160,0,7,,,,,,,,5,,,,56,59
98760,note_on,160,0,12,,,,,,,,11,,,,63,59
98760,note_on,40,0,10,,,,,,,,8,,,,70,55
98760,note_on,160,0,14,,,,,,,,13,,,,41,59
98760,note_on,160,0,8,,,,,,,,6,,,,53,59
98760,note_on,160,0,13,,,,,,,,12,,,,53,59
98760,note_on,160,0,9,,,,,,,,7,,,,41,59
98760,note_on,40,0,5,,,,,,,,3,,,,70,55
98840,note_off,80,0,5,,,,,,,,3,,,,70,64
98840,note_off,80,0,14,,,,,,,,13,,,,41,64
98840,note_off,80,0,9,,,,,,,,7,,,,41,64
98840,note_off,80,0,7,,,,,,,,5,,,,56,64
98840,note_off,80,0,13,,,,,,,,12,,,,53,64
98840,note_off,80,0,10,,,,,,,,8,,,,70,64
98840,note_off,80,0,8,,,,,,,,6,,,,53,64
98840,note_off,80,0,12,,,,,,,,11,,,,63,64
98880,note_on,40,0,5,,,,,,,,3,,,,72,56
98880,note_on,40,0,10,,,,,,,,8,,,,72,56
98920,note_off,400,0,15,,,,,,,,14,,,,41,64
98960,note_off,80,0,10,,,,,,,,8,,,,72,64
98960,note_off,80,0,5,,,,,,,,3,,,,72,64
99000,note_on,80,0,15,,,,,,,,14,,,,41,45
99000,note_on,160,0,9,,,,,,,,7,,,,41,62
99000,note_on,160,0,7,,,,,,,,5,,,,56,62
99000,note_on,160,0,13,,,,,,,,12,,,,53,62
99000,note_on,160,0,8,,,,,,,,6,,,,53,62
99000,note_on,160,0,12,,,,,,,,11,,,,63,62
99000,note_on,40,0,5,,,,,,,,3,,,,65,57
99000,note_on,40,0,10,,,,,,,,8,,,,65,57
99000,note_on,160,0,14,,,,,,,,13,,,,41,62
99080,note_off,80,0,14,,,,,,,,13,,,,41,64
99080,note_off,80,0,12,,,,,,,,11,,,,63,64
99080,note_off,80,0,10,,,,,,,,8,,,,65,64
99080,note_off,80,0,5,,,,,,,,3,,,,65,64
99080,note_off,80,0,13,,,,,,,,12,,,,53,64
99080,note_off,80,0,7,,,,,,,,5,,,,56,64
99080,note_off,80,0,8,,,,,,,,6,,,,53,64
99080,note_off,80,0,9,,,,,,,,7,,,,41,64
99120,note_on,40,0,10,,,,,,,,8,,,,72,58
99120,note_on,40,0,5,,,,,,,,3,,,,72,58
99200,note_off,80,0,5,,,,,,,,3,,,,72,64
99200,note_off,80,0,10,,,,,,,,8,,,,72,64
99240,note_on,160,0,8,,,,,,,,6,,,,53,65
99240,note_on,160,0,9,,,,,,,,7,,,,41,65
99240,note_on,40,0,5,,,,,,,,3,,,,70,59
99240,note_on,40,0,10,,,,,,,,8,,,,70,59
99240,note_on,160,0,12,,,,,,,,11,,,,63,65
99240,note_on,160,0,14,,,,,,,,13,,,,41,65
99240,note_on,160,0,13,,,,,,,,12,,,,53,65
99240,note_on,160,0,7,,,,,,,,5,,,,56,65
99320,note_off,80,0,14,,,,,,,,13,,,,41,64
99320,note_off,80,0,9,,,,,,,,7,,,,41,64
99320,note_off,80,0,12,,,,,,,,11,,,,63,64
99320,note_off,80,0,7,,,,,,,,5,,,,56,64
99320,note_off,80,0,8,,,,,,,,6,,,,53,64
99320,note_off,80,0,10,,,,,,,,8,,,,70,64
99320,note_off,80,0,13,,,,,,,,12,,,,53,64
99320,note_off,80,0,5,,,,,,,,3,,,,70,64
99360,note_on,40,0,10,,,,,,,,8,,,,72,60
99360,note_on,40,0,5,,,,,,,,3,,,,72,60
99400,note_off,400,0,15,,,,,,,,14,,,,41,64
99440,note_off,80,0,10,,,,,,,,8,,,,72,64
99440,note_off,80,0,5,,,,,,,,3,,,,72,64
99480,note_on,160,0,14,,,,,,,,13,,,,41,68
99480,note_on,40,0,5,,,,,,,,3,,,,65,61
99480,note_on,160,0,9,,,,,,,,7,,,,41,68
99480,note_on,160,0,8,,,,,,,,6,,,,53,68
99480,note_on,80,0,15,,,,,,,,14,,,,41,51
99480,note_on,160,0,7,,,,,,,,5,,,,68,68
99480,note_on,40,0,10,,,,,,,,8,,,,65,61
99480,note_on,160,0,12,,,,,,,,11,,,,63,68
99480,note_on,160,0,13,,,,,,,,12,,,,53,68
99560,note_off,80,0,10,,,,,,,,8,,,,65,64
99560,note_off,80,0,9,,,,,,,,7,,,,41,64
99560,note_off,80,0,14,,,,,,,,13,,,,41,64
99560,note_off,80,0,5,,,,,,,,3,,,,65,64
99560,note_off,80,0,8,,,,,,,,6,,,,53,64
99560,note_off,80,0,13,,,,,,,,12,,,,53,64
99560,note_off,80,0,7,,,,,,,,5,,,,68,64
99560,note_off,80,0,12,,,,,,,,11,,,,63,64
99600,note_on,40,0,10,,,,,,,,8,,,,72,62
99600,note_on,40,0,5,,,,,,,,3,,,,72,62
99680,note_off,80,0,5,,,,,,,,3,,,,72,64
99680,note_off,80,0,10,,,,,,,,8,,,,72,64
99720,note_on,160,0,12,,,,,,,,11,,,,63,71
99720,note_on,160,0,9,,,,,,,,7,,,,41,71
99720,note_on,160,0,7,,,,,,,,5,,,,68,71
99720,note_on,160,0,14,,,,,,,,13,,,,41,71
99720,note_on,160,0,8,,,,,,,,6,,,,53,71
99720,note_on,40,0,10,,,,,,,,8,,,,70,64
99720,note_on,160,0,13,,,,,,,,12,,,,53,71
99720,note_on,40,0,5,,,,,,,,3,,,,70,64
99800,note_off,80,0,7,,,,,,,,5,,,,68,64
99800,note_off,80,0,8,,,,,,,,6,,,,53,64
99800,note_off,80,0,10,,,,,,,,8,,,,70,64
99800,note_off,80,0,5,,,,,,,,3,,,,70,64
99800,note_off,80,0,12,,,,,,,,11,,,,63,64
99800,note_off,80,0,13,,,,,,,,12,,,,53,64
99800,note_off,80,0,14,,,,,,,,13,,,,41,64
99800,note_off,80,0,9,,,,,,,,7,,,,41,64
99840,note_on,40,0,10,,,,,,,,8,,,,72,66
99840,note_on,40,0,5,,,,,,,,3,,,,72,66
99880,note_off,400,0,15,,,,,,,,14,,,,41,64
99920,note_off,80,0,10,,,,,,,,8,,,,72,64
99920,note_off,80,0,5,,,,,,,,3,,,,72,64
99960,note_on,160,0,12,,,,,,,,11,,,,65,74
99960,note_on,160,0,7,,,,,,,,5,,,,62,74
99960,note_on,160,0,8,,,,,,,,6,,,,55,74
99960,note_on,160,0,14,,,,,,,,13,,,,43,74
99960,note_on,40,0,10,,,,,,,,8,,,,67,68
99960,note_on,160,0,9,,,,,,,,7,,,,43,74
99960,note_on,40,0,5,,,,,,,,3,,,,67,68
99960,note_on,160,0,13,,,,,,,,12,,,,55,74
99960,note_on,80,0,15,,,,,,,,14,,,,43,57
100040,note_off,80,0,5,,,,,,,,3,,,,67,64
100040,note_off,80,0,7,,,,,,,,5,,,,62,64
100040,note_off,80,0,14,,,,,,,,13,,,,43,64
100040,note_off,80,0,9,,,,,,,,7,,,,43,64
100040,note_off,80,0,12,,,,,,,,11,,,,65,64
100040,note_off,80,0,10,,,,,,,,8,,,,67,64
100040,note_off,80,0,13,,,,,,,,12,,,,55,64
100040,note_off,80,0,8,,,,,,,,6,,,,55,64
100080,note_on,40,0,10,,,,,,,,8,,,,72,70
100080,note_on,40,0,5,,,,,,,,3,,,,72,70
100160,note_off,80,0,10,,,,,,,,8,,,,72,64
100160,note_off,80,0,5,,,,,,,,3,,,,72,64
100200,note_on,160,0,14,,,,,,,,13,,,,43,77
100200,note_on,160,0,13,,,,,,,,12,,,,55,77
100200,note_on,160,0,7,,,,,,,,5,,,,62,77
100200,note_on,160,0,8,,,,,,,,6,,,,55,77
100200,note_on,160,0,9,,,,,,,,7,,,,43,77
100200,note_on,160,0,12,,,,,,,,11,,,,65,77
100200,note_on,40,0,5,,,,,,,,3,,,,71,72
100200,note_on,40,0,10,,,,,,,,8,,,,71,72
100280,note_off,80,0,10,,,,,,,,8,,,,71,64
100280,note_off,80,0,9,,,,,,,,7,,,,43,64
100280,note_off,80,0,7,,,,,,,,5,,,,62,64
100280,note_off,80,0,12,,,,,,,,11,,,,65,64
100280,note_off,80,0,14,,,,,,,,13,,,,43,64
100280,note_off,80,0,5,,,,,,,,3,,,,71,64
100280,note_off,80,0,13,,,,,,,,12,,,,55,64
100280,note_off,80,0,8,,,,,,,,6,,,,55,64
100320,note_on,40,0,5,,,,,,,,3,,,,72,74
100320,note_on,40,0,10,,,,,,,,8,,,,72,74
100360,note_off,400,0,15,,,,,,,,14,,,,43,64
100400,note_off,80,0,5,,,,,,,,3,,,,72,64
100400,note_off,80,0,10,,,,,,,,8,,,,72,64
100440,note_on,160,0,14,,,,,,,,13,,,,43,80
100440,note_on,160,0,7,,,,,,,,5,,,,62,80
100440,note_on,40,0,5,,,,,,,,3,,,,67,76
100440,note_on,40,0,10,,,,,,,,8,,,,67,76
100440,note_on,160,0,8,,,,,,,,6,,,,55,80
100440,note_on,160,0,12,,,,,,,,11,,,,65,80
100440,note_on,160,0,9,,,,,,,,7,,,,43,80
100440,note_on,160,0,13,,,,,,,,12,,,,55,80
100440,note_on,80,0,15,,,,,,,,14,,,,43,63
100520,note_off,80,0,14,,,,,,,,13,,,,43,64
100520,note_off,80,0,9,,,,,,,,7,,,,43,64
100520,note_off,80,0,7,,,,,,,,5,,,,62,64
100520,note_off,80,0,5,,,,,,,,3,,,,67,64
100520,note_off,80,0,8,,,,,,,,6,,,,55,64
100520,note_off,80,0,13,,,,,,,,12,,,,55,64
100520,note_off,80,0,12,,,,,,,,11,,,,65,64
100520,note_off,80,0,10,,,,,,,,8,,,,67,64
100560,note_on,40,0,5,,,,,,,,3,,,,72,78
100560,note_on,40,0,10,,,,,,,,8,,,,72,78
100640,note_off,80,0,5,,,,,,,,3,,,,72,64
100640,note_off,80,0,10,,,,,,,,8,,,,72,64
100680,note_on,160,0,7,,,,,,,,5,,,,62,83
100680,note_on,40,0,10,,,,,,,,8,,,,71,80
100680,note_on,160,0,9,,,,,,,,7,,,,43,83
100680,note_on,160,0,13,,,,,,,,12,,,,55,83
100680,note_on,160,0,14,,,,,,,,13,,,,43,83
100680,note_on,40,0,5,,,,,,,,3,,,,71,80
100680,note_on,160,0,8,,,,,,,,6,,,,55,83
100680,note_on,160,0,12,,,,,,,,11,,,,65,83
100760,note_off,80,0,7,,,,,,,,5,,,,62,64
100760,note_off,80,0,13,,,,,,,,12,,,,55,64
100760,note_off,80,0,5,,,,,,,,3,,,,71,64
100760,note_off,80,0,10,,,,,,,,8,,,,71,64
100760,note_off,80,0,14,,,,,,,,13,,,,43,64
100760,note_off,80,0,12,,,,,,,,11,,,,65,64
100760,note_off,80,0,8,,,,,,,,6,,,,55,64
100760,note_off,80,0,9,,,,,,,,7,,,,43,64
100800,note_on,40,0,5,,,,,,,,3,,,,72,82
100800,note_on,40,0,10,,,,,,,,8,,,,72,82
100840,note_off,400,0,15,,,,,,,,14,,,,43,64
100880,note_off,80,0,10,,,,,,,,8,,,,72,64
100880,note_off,80,0,5,,,,,,,,3,,,,72,64
100920,note_on,160,0,8,,,,,,,,6,,,,43,86
100920,note_on,160,0,12,,,,,,,,11,,,,53,86
100920,note_on,40,0,10,,,,,,,,8,,,,67,84
100920,note_on,40,0,5,,,,,,,,3,,,,67,84
100920,note_on,160,0,7,,,,,,,,5,,,,62,86
100920,note_on,80,0,15,,,,,,,,14,,,,31,69
100920,note_on,160,0,13,,,,,,,,12,,,,43,86
100920,note_on,160,0,9,,,,,,,,7,,,,31,86
100920,note_on,160,0,14,,,,,,,,13,,,,31,86
101000,note_off,80,0,14,,,,,,,,13,,,,31,64
101000,note_off,80,0,9,,,,,,,,7,,,,31,64
101000,note_off,80,0,12,,,,,,,,11,,,,53,64
101000,note_off,80,0,7,,,,,,,,5,,,,62,64
101000,note_off,80,0,8,,,,,,,,6,,,,43,64
101000,note_off,80,0,13,,,,,,,,12,,,,43,64
101000,note_off,80,0,5,,,,,,,,3,,,,67,64
101000,note_off,80,0,10,,,,,,,,8,,,,67,64
101040,note_on,40,0,5,,,,,,,,3,,,,72,86
101040,note_on,40,0,10,,,,,,,,8,,,,72,86
101120,note_off,80,0,5,,,,,,,,3,,,,72,64
101120,note_off,80,0,10,,,,,,,,8,,,,72,64
101160,note_on,160,0,14,,,,,,,,13,,,,31,89
101160,note_on,160,0,8,,,,,,,,6,,,,43,89
101160,note_on,160,0,12,,,,,,,,11,,,,53,89
101160,note_on,40,0,5,,,,,,,,3,,,,71,88
101160,note_on,160,0,9,,,,,,,,7,,,,31,89
101160,note_on,160,0,7,,,,,,,,5,,,,62,89
101160,note_on,40,0,10,,,,,,,,8,,,,71,88
101160,note_on,160,0,13,,,,,,,,12,,,,43,89
101240,note_off,80,0,5,,,,,,,,3,,,,71,64
101240,note_off,80,0,14,,,,,,,,13,,,,31,64
101240,note_off,80,0,10,,,,,,,,8,,,,71,64
101240,note_off,80,0,13,,,,,,,,12,,,,43,64
101240,note_off,80,0,7,,,,,,,,5,,,,62,64
101240,note_off,80,0,8,,,,,,,,6,,,,43,64
101240,note_off,80,0,12,,,,,,,,11,,,,53,64
101240,note_off,80,0,9,,,,,,,,7,,,,31,64
101280,note_on,40,0,5,,,,,,,,3,,,,72,90
101280,note_on,40,0,10,,,,,,,,8,,,,72,90
101320,note_off,400,0,15,,,,,,,,14,,,,31,64
101360,note_off,80,0,10,,,,,,,,8,,,,72,64
101360,note_off,80,0,5,,,,,,,,3,,,,72,64
101400,note_on,80,0,15,,,,,,,,14,,,,36,75
101400,note_on,160,0,13,,,,,,,,12,,,,48,92
101400,note_on,160,0,12,,,,,,,,11,,,,58,92
101400,note_on,40,0,10,,,,,,,,8,,,,72,92
101400,note_on,160,0,8,,,,,,,,6,,,,48,92
101400,note_on,160,0,9,,,,,,,,7,,,,36,92
101400,note_on,160,0,14,,,,,,,,13,,,,36,92
101400,note_on,40,0,5,,,,,,,,3,,,,72,127
101400,note_on,160,0,7,,,,,,,,5,,,,63,92
101480,note_off,80,0,5,,,,,,,,3,,,,72,64
101480,note_off,80,0,10,,,,,,,,8,,,,72,64
101480,note_off,80,0,7,,,,,,,,5,,,,63,64
101480,note_off,80,0,13,,,,,,,,12,,,,48,64
101480,note_off,80,0,8,,,,,,,,6,,,,48,64
101480,note_off,80,0,12,,,,,,,,11,,,,58,64
101480,note_off,80,0,14,,,,,,,,13,,,,36,64
101480,note_off,80,0,9,,,,,,,,7,,,,36,64
101520,note_on,40,0,10,,,,,,,,8,,,,60,92
101520,note_on,40,0,5,,,,,,,,3,,,,60,92
101520,note_on,40,0,7,,,,,,,,5,,,,48,92
101600,note_off,80,0,10,,,,,,,,8,,,,60,64
101600,note_off,80,0,5,,,,,,,,3,,,,60,64
101600,note_off,80,0,7,,,,,,,,5,,,,48,64
101640,note_on,40,0,10,,,,,,,,8,,,,60,92
101640,note_on,160,0,9,,,,,,,,7,,,,36,92
101640,note_on,160,0,14,,,,,,,,13,,,,36,92
101640,note_on,160,0,13,,,,,,,,12,,,,48,92
101640,note_on,160,0,12,,,,,,,,11,,,,58,92
101640,note_on,160,0,8,,,,,,,,6,,,,48,92
101640,note_on,40,0,7,,,,,,,,5,,,,48,92
101640,note_on,40,0,5,,,,,,,,3,,,,60,92
101720,note_off,80,0,13,,,,,,,,12,,,,48,64
101720,note_off,80,0,9,,,,,,,,7,,,,36,64
101720,note_off,80,0,12,,,,,,,,11,,,,58,64
101720,note_off,80,0,8,,,,,,,,6,,,,48,64
101720,note_off,80,0,10,,,,,,,,8,,,,60,64
101720,note_off,80,0,7,,,,,,,,5,,,,48,64
101720,note_off,80,0,14,,,,,,,,13,,,,36,64
101720,note_off,80,0,5,,,,,,,,3,,,,60,64
101760,note_on,40,0,7,,,,,,,,5,,,,48,92
101760,note_on,40,0,5,,,,,,,,3,,,,60,92
101760,note_on,40,0,10,,,,,,,,8,,,,60,92
101800,note_off,400,0,15,,,,,,,,14,,,,36,64
101840,note_off,80,0,5,,,,,,,,3,,,,60,64
101840,note_off,80,0,10,,,,,,,,8,,,,60,64
101840,note_off,80,0,7,,,,,,,,5,,,,48,64
101880,note_on,40,0,5,,,,,,,,3,,,,60,92
101880,note_on,160,0,14,,,,,,,,13,,,,36,92
101880,note_on,40,0,7,,,,,,,,5,,,,48,92
101880,note_on,160,0,13,,,,,,,,12,,,,48,92
101880,note_on,160,0,9,,,,,,,,7,,,,36,92
101880,note_on,40,0,10,,,,,,,,8,,,,60,92
101880,note_on,160,0,8,,,,,,,,6,,,,48,92
101880,note_on,160,0,12,,,,,,,,11,,,,58,92
101880,note_on,80,0,15,,,,,,,,14,,,,36,75
101960,note_off,80,0,5,,,,,,,,3,,,,60,64
101960,note_off,80,0,12,,,,,,,,11,,,,58,64
101960,note_off,80,0,13,,,,,,,,12,,,,48,64
101960,note_off,80,0,10,,,,,,,,8,,,,60,64
101960,note_off,80,0,14,,,,,,,,13,,,,36,64
101960,note_off,80,0,7,,,,,,,,5,,,,48,64
101960,note_off,80,0,9,,,,,,,,7,,,,36,64
101960,note_off,80,0,8,,,,,,,,6,,,,48,64
102000,note_on,40,0,5,,,,,,,,3,,,,60,92
102000,note_on,40,0,7,,,,,,,,5,,,,48,92
102000,note_on,40,0,10,,,,,,,,8,,,,60,92
102080,note_off,80,0,7,,,,,,,,5,,,,48,64
102080,note_off,80,0,5,,,,,,,,3,,,,60,64
102080,note_off,80,0,10,,,,,,,,8,,,,60,64
102120,note_on,40,0,7,,,,,,,,5,,,,48,92
102120,note_on,160,0,14,,,,,,,,13,,,,36,92
102120,note_on,160,0,9,,,,,,,,7,,,,36,92
102120,note_on,160,0,8,,,,,,,,6,,,,48,92
102120,note_on,160,0,13,,,,,,,,12,,,,48,92
102120,note_on,40,0,5,,,,,,,,3,,,,60,92
102120,note_on,160,0,12,,,,,,,,11,,,,58,92
102120,note_on,40,0,10,,,,,,,,8,,,,60,92
102200,note_off,80,0,14,,,,,,,,13,,,,36,64
102200,note_off,80,0,5,,,,,,,,3,,,,60,64
102200,note_off,80,0,7,,,,,,,,5,,,,48,64
102200,note_off,80,0,12,,,,,,,,11,,,,58,64
102200,note_off,80,0,9,,,,,,,,7,,,,36,64
102200,note_off,80,0,13,,,,,,,,12,,,,48,64
102200,note_off,80,0,8,,,,,,,,6,,,,48,64
102200,note_off,80,0,10,,,,,,,,8,,,,60,64
102240,note_on,40,0,5,,,,,,,,3,,,,60,92
102240,note_on,40,0,7,,,,,,,,5,,,,48,92
102240,note_on,40,0,10,,,,,,,,8,,,,60,92
102280,note_off,400,0,15,,,,,,,,14,,,,36,64
102320,note_off,80,0,7,,,,,,,,5,,,,48,64
102320,note_off,80,0,10,,,,,,,,8,,,,60,64
102320,note_off,80,0,5,,,,,,,,3,,,,60,64
102360,note_on,80,0,15,,,,,,,,14,,,,36,75
102360,note_on,160,0,12,,,,,,,,11,,,,58,92
102360,note_on,160,0,8,,,,,,,,6,,,,48,92
102360,note_on,40,0,7,,,,,,,,5,,,,48,92
102360,note_on,160,0,13,,,,,,,,12,,,,48,92
102360,note_on,160,0,9,,,,,,,,7,,,,36,92
102360,note_on,40,0,5,,,,,,,,3,,,,60,92
102360,note_on,40,0,10,,,,,,,,8,,,,60,92
102360,note_on,160,0,14,,,,,,,,13,,,,36,92
102440,note_off,80,0,14,,,,,,,,13,,,,36,64
102440,note_off,80,0,12,,,,,,,,11,,,,58,64
102440,note_off,80,0,5,,,,,,,,3,,,,60,64
102440,note_off,80,0,9,,,,,,,,7,,,,36,64
102440,note_off,80,0,7,,,,,,,,5,,,,48,64
102440,note_off,80,0,10,,,,,,,,8,,,,60,64
102440,note_off,80,0,8,,,,,,,,6,,,,48,64
102440,note_off,80,0,13,,,,,,,,12,,,,48,64
102480,note_on,40,0,7,,,,,,,,5,,,,48,92
102480,note_on,40,0,5,,,,,,,,3,,,,60,92
102480,note_on,40,0,10,,,,,,,,8,,,,60,92
102560,note_off,80,0,10,,,,,,,,8,,,,60,64
102560,note_off,80,0,7,,,,,,,,5,,,,48,64
102560,note_off,80,0,5,,,,,,,,3,,,,60,64
102600,note_on,160,0,14,,,,,,,,13,,,,36,92
102600,note_on,40,0,5,,,,,,,,3,,,,60,92
102600,note_on,160,0,12,,,,,,,,11,,,,58,92
102600,note_on,160,0,8,,,,,,,,6,,,,48,92
102600,note_on,40,0,10,,,,,,,,8,,,,60,92
102600,note_on,40,0,7,,,,,,,,5,,,,48,92
102600,note_on,160,0,9,,,,,,,,7,,,,36,92
102600,note_on,160,0,13,,,,,,,,12,,,,48,92
102680,note_off,80,0,14,,,,,,,,13,,,,36,64
102680,note_off,80,0,10,,,,,,,,8,,,,60,64
102680,note_off,80,0,5,,,,,,,,3,,,,60,64
102680,note_off,80,0,12,,,,,,,,11,,,,58,64
102680,note_off,80,0,7,,,,,,,,5,,,,48,64
102680,note_off,80,0,8,,,,,,,,6,,,,48,64
102680,note_off,80,0,9,,,,,,,,7,,,,36,64
102680,note_off,80,0,13,,,,,,,,12,,,,48,64
102720,note_on,40,0,10,,,,,,,,8,,,,60,92
102720,note_on,40,0,5,,,,,,,,3,,,,60,92
102720,note_on,40,0,7,,,,,,,,5,,,,48,92
102760,note_off,400,0,15,,,,,,,,14,,,,36,64
102800,note_off,80,0,7,,,,,,,,5,,,,48,64
102800,note_off,80,0,5,,,,,,,,3,,,,60,64
102800,note_off,80,0,10,,,,,,,,8,,,,60,64
102840,note_on,40,0,10,,,,,,,,8,,,,70,92
102840,note_on,160,0,14,,,,,,,,13,,,,36,92
102840,note_on,40,0,7,,,,,,,,5,,,,58,92
102840,note_on,160,0,12,,,,,,,,11,,,,58,92
102840,note_on,160,0,9,,,,,,,,7,,,,36,92
102840,note_on,160,0,13,,,,,,,,12,,,,48,92
102840,note_on,160,0,8,,,,,,,,6,,,,48,92
102840,note_on,80,0,15,,,,,,,,14,,,,36,75
102840,note_on,40,0,5,,,,,,,,3,,,,70,127
102920,note_off,80,0,13,,,,,,,,12,,,,48,64
102920,note_off,80,0,9,,,,,,,,7,,,,36,64
102920,note_off,80,0,10,,,,,,,,8,,,,70,64
102920,note_off,80,0,12,,,,,,,,11,,,,58,64
102920,note_off,80,0,7,,,,,,,,5,,,,58,64
102920,note_off,80,0,8,,,,,,,,6,,,,48,64
102920,note_off,80,0,5,,,,,,,,3,,,,70,64
102920,note_off,80,0,14,,,,,,,,13,,,,36,64
102960,note_on,40,0,7,,,,,,,,5,,,,48,92
102960,note_on,40,0,5,,,,,,,,3,,,,60,92
102960,note_on,40,0,10,,,,,,,,8,,,,60,92
103040,note_off,80,0,5,,,,,,,,3,,,,60,64
103040,note_off,80,0,10,,,,,,,,8,,,,60,64
103040,note_off,80,0,7,,,,,,,,5,,,,48,64
103080,note_on,160,0,12,,,,,,,,11,,,,58,92
103080,note_on,160,0,8,,,,,,,,6,,,,48,92
103080,note_on,40,0,5,,,,,,,,3,,,,60,92
103080,note_on,160,0,13,,,,,,,,12,,,,48,92
103080,note_on,160,0,14,,,,,,,,13,,,,36,92
103080,note_on,40,0,7,,,,,,,,5,,,,48,92
103080,note_on,40,0,10,,,,,,,,8,,,,60,92
103080,note_on,160,0,9,,,,,,,,7,,,,36,92
103160,note_off,80,0,13,,,,,,,,12,,,,48,64
103160,note_off,80,0,10,,,,,,,,8,,,,60,64
103160,note_off,80,0,8,,,,,,,,6,,,,48,64
103160,note_off,80,0,5,,,,,,,,3,,,,60,64
103160,note_off,80,0,12,,,,,,,,11,,,,58,64
103160,note_off,80,0,9,,,,,,,,7,,,,36,64
103160,note_off,80,0,14,,,,,,,,13,,,,36,64
103160,note_off,80,0,7,,,,,,,,5,,,,48,64
103200,note_on,40,0,10,,,,,,,,8,,,,60,92
103200,note_on,40,0,7,,,,,,,,5,,,,48,92
103200,note_on,40,0,5,,,,,,,,3,,,,60,92
103240,note_off,400,0,15,,,,,,,,14,,,,36,64
103280,note_off,80,0,10,,,,,,,,8,,,,60,64
103280,note_off,80,0,5,,,,,,,,3,,,,60,64
103280,note_off,80,0,7,,,,,,,,5,,,,48,64
103320,note_on,40,0,5,,,,,,,,3,,,,60,92
103320,note_on,160,0,14,,,,,,,,13,,,,36,92
103320,note_on,160,0,13,,,,,,,,12,,,,48,92
103320,note_on,40,0,10,,,,,,,,8,,,,60,92
103320,note_on,80,0,15,,,,,,,,14,,,,36,75
103320,note_on,40,0,7,,,,,,,,5,,,,48,92
103320,note_on,160,0,12,,,,,,,,11,,,,58,92
103320,note_on,160,0,8,,,,,,,,6,,,,48,92
103320,note_on,160,0,9,,,,,,,,7,,,,36,92
103400,note_off,80,0,5,,,,,,,,3,,,,60,64
103400,note_off,80,0,7,,,,,,,,5,,,,48,64
103400,note_off,80,0,12,,,,,,,,11,,,,58,64
103400,note_off,80,0,9,,,,,,,,7,,,,36,64
103400,note_off,80,0,8,,,,,,,,6,,,,48,64
103400,note_off,80,0,10,,,,,,,,8,,,,60,64
103400,note_off,80,0,13,,,,,,,,12,,,,48,64
103400,note_off,80,0,14,,,,,,,,13,,,,36,64
103440,note_on,40,0,7,,,,,,,,5,,,,48,92
103440,note_on,40,0,5,,,,,,,,3,,,,60,92
103440,note_on,40,0,10,,,,,,,,8,,,,60,92
103520,note_off,80,0,5,,,,,,,,3,,,,60,64
103520,note_off,80,0,7,,,,,,,,5,,,,48,64
103520,note_off,80,0,10,,,,,,,,8,,,,60,64
103560,note_on,160,0,8,,,,,,,,6,,,,48,92
103560,note_on,40,0,10,,,,,,,,8,,,,60,92
103560,note_on,160,0,14,,,,,,,,13,,,,36,92
103560,note_on,40,0,5,,,,,,,,3,,,,60,92
103560,note_on,160,0,9,,,,,,,,7,,,,36,92
103560,note_on,160,0,13,,,,,,,,12,,,,48,92
103560,note_on,40,0,7,,,,,,,,5,,,,48,92
103560,note_on,160,0,12,,,,,,,,11,,,,58,92
103640,note_off,80,0,9,,,,,,,,7,,,,36,64
103640,note_off,80,0,13,,,,,,,,12,,,,48,64
103640,note_off,80,0,14,,,,,,,,13,,,,36,64
103640,note_off,80,0,5,,,,,,,,3,,,,60,64
103640,note_off,80,0,10,,,,,,,,8,,,,60,64
103640,note_off,80,0,12,,,,,,,,11,,,,58,64
103640,note_off,80,0,7,,,,,,,,5,,,,48,64
103640,note_off,80,0,8,,,,,,,,6,,,,48,64
103680,note_on,40,0,10,,,,,,,,8,,,,60,92
103680,note_on,40,0,7,,,,,,,,5,,,,48,92
103680,note_on,40,0,5,,,,,,,,3,,,,60,92
103720,note_off,400,0,15,,,,,,,,14,,,,36,64
103760,note_off,80,0,5,,,,,,,,3,,,,60,64
103760,note_off,80,0,10,,,,,,,,8,,,,60,64
103760,note_off,80,0,7,,,,,,,,5,,,,48,64
103800,note_on,160,0,12,,,,,,,,11,,,,58,92
103800,note_on,80,0,15,,,,,,,,14,,,,36,75
103800,note_on,160,0,13,,,,,,,,12,,,,48,92
103800,note_on,160,0,9,,,,,,,,7,,,,36,92
103800,note_on,40,0,10,,,,,,,,8,,,,60,92
103800,note_on,160,0,14,,,,,,,,13,,,,36,92
103800,note_on,40,0,7,,,,,,,,5,,,,48,92
103800,note_on,160,0,8,,,,,,,,6,,,,48,92
103800,note_on,40,0,5,,,,,,,,3,,,,60,92
103880,note_off,80,0,13,,,,,,,,12,,,,48,64
103880,note_off,80,0,14,,,,,,,,13,,,,36,64
103880,note_off,80,0,7,,,,,,,,5,,,,48,64
103880,note_off,80,0,12,,,,,,,,11,,,,58,64
103880,note_off,80,0,8,,,,,,,,6,,,,48,64
103880,note_off,80,0,10,,,,,,,,8,,,,60,64
103880,note_off,80,0,9,,,,,,,,7,,,,36,64
103880,note_off,80,0,5,,,,,,,,3,,,,60,64
103920,note_on,40,0,7,,,,,,,,5,,,,48,92
103920,note_on,40,0,10,,,,,,,,8,,,,60,92
103920,note_on,40,0,5,,,,,,,,3,,,,60,92
104000,note_off,80,0,5,,,,,,,,3,,,,60,64
104000,note_off,80,0,7,,,,,,,,5,,,,48,64
104000,note_off,80,0,10,,,,,,,,8,,,,60,64
104040,note_on,40,0,7,,,,,,,,5,,,,48,92
104040,note_on,40,0,5,,,,,,,,3,,,,60,92
104040,note_on,40,0,10,,,,,,,,8,,,,60,92
104040,note_on,160,0,14,,,,,,,,13,,,,36,92
104040,note_on,160,0,12,,,,,,,,11,,,,58,92
104040,note_on,160,0,9,,,,,,,,7,,,,36,92
104040,note_on,160,0,8,,,,,,,,6,,,,48,92
104040,note_on,160,0,13,,,,,,,,12,,,,48,92
104120,note_off,80,0,5,,,,,,,,3,,,,60,64
104120,note_off,80,0,9,,,,,,,,7,,,,36,64
104120,note_off,80,0,7,,,,,,,,5,,,,48,64
104120,note_off,80,0,8,,,,,,,,6,,,,48,64
104120,note_off,80,0,10,,,,,,,,8,,,,60,64
104120,note_off,80,0,13,,,,,,,,12,,,,48,64
104120,note_off,80,0,14,,,,,,,,13,,,,36,64
104120,note_off,80,0,12,,,,,,,,11,,,,58,64
104160,note_on,40,0,5,,,,,,,,3,,,,60,92
104160,note_on,40,0,7,,,,,,,,5,,,,48,92
104160,note_on,40,0,10,,,,,,,,8,,,,60,92
104200,note_off,400,0,15,,,,,,,,14,,,,36,64
104240,note_off,80,0,7,,,,,,,,5,,,,48,64
104240,note_off,80,0,5,,,,,,,,3,,,,60,64
104240,note_off,80,0,10,,,,,,,,8,,,,60,64
104280,note_on,40,0,5,,,,,,,,3,,,,68,127
104280,note_on,160,0,8,,,,,,,,6,,,,48,92
104280,note_on,40,0,7,,,,,,,,5,,,,56,92
104280,note_on,80,0,15,,,,,,,,14,,,,36,75
104280,note_on,160,0,9,,,,,,,,7,,,,36,92
104280,note_on,160,0,14,,,,,,,,13,,,,36,92
104280,note_on,160,0,12,,,,,,,,11,,,,58,92
104280,note_on,40,0,10,,,,,,,,8,,,,68,92
104280,note_on,160,0,13,,,,,,,,12,,,,48,92
104360,note_off,80,0,12,,,,,,,,11,,,,58,64
104360,note_off,80,0,5,,,,,,,,3,,,,68,64
104360,note_off,80,0,9,,,,,,,,7,,,,36,64
104360,note_off,80,0,14,,,,,,,,13,,,,36,64
104360,note_off,80,0,10,,,,,,,,8,,,,68,64
104360,note_off,80,0,13,,,,,,,,12,,,,48,64
104360,note_off,80,0,8,,,,,,,,6,,,,48,64
104360,note_off,80,0,7,,,,,,,,5,,,,56,64
104400,note_on,40,0,7,,,,,,,,5,,,,48,92
104400,note_on,40,0,5,,,,,,,,3,,,,60,92
104400,note_on,40,0,10,,,,,,,,8,,,,60,92
104480,note_off,80,0,7,,,,,,,,5,,,,48,64
104480,note_off,80,0,5,,,,,,,,3,,,,60,64
104480,note_off,80,0,10,,,,,,,,8,,,,60,64
104520,note_on,40,0,5,,,,,,,,3,,,,60,92
104520,note_on,160,0,8,,,,,,,,6,,,,48,92
104520,note_on,40,0,10,,,,,,,,8,,,,60,92
104520,note_on,160,0,12,,,,,,,,11,,,,58,92
104520,note_on,160,0,9,,,,,,,,7,,,,36,92
104520,note_on,160,0,13,,,,,,,,12,,,,48,92
104520,note_on,160,0,14,,,,,,,,13,,,,36,92
104520,note_on,40,0,7,,,,,,,,5,,,,48,92
104600,note_off,80,0,10,,,,,,,,8,,,,60,64
104600,note_off,80,0,8,,,,,,,,6,,,,48,64
104600,note_off,80,0,14,,,,,,,,13,,,,36,64
104600,note_off,80,0,13,,,,,,,,12,,,,48,64
104600,note_off,80,0,12,,,,,,,,11,,,,58,64
104600,note_off,80,0,7,,,,,,,,5,,,,48,64
104600,note_off,80,0,9,,,,,,,,7,,,,36,64
104600,note_off,80,0,5,,,,,,,,3,,,,60,64
104640,note_on,40,0,5,,,,,,,,3,,,,60,92
104640,note_on,40,0,7,,,,,,,,5,,,,48,92
104640,note_on,40,0,10,,,,,,,,8,,,,60,92
104680,note_off,400,0,15,,,,,,,,14,,,,36,64
104720,note_off,80,0,5,,,,,,,,3,,,,60,64
104720,note_off,80,0,10,,,,,,,,8,,,,60,64
104720,note_off,80,0,7,,,,,,,,5,,,,48,64
104760,note_on,160,0,14,,,,,,,,13,,,,36,92
104760,note_on,160,0,12,,,,,,,,11,,,,58,92
104760,note_on,80,0,15,,,,,,,,14,,,,36,75
104760,note_on,40,0,10,,,,,,,,8,,,,60,92
104760,note_on,160,0,8,,,,,,,,6,,,,48,92
104760,note_on,160,0,9,,,,,,,,7,,,,36,92
104760,note_on,40,0,5,,,,,,,,3,,,,60,92
104760,note_on,40,0,7,,,,,,,,5,,,,48,92
104760,note_on,160,0,13,,,,,,,,12,,,,48,92
104840,note_off,80,0,10,,,,,,,,8,,,,60,64
104840,note_off,80,0,8,,,,,,,,6,,,,48,64
104840,note_off,80,0,9,,,,,,,,7,,,,36,64
104840,note_off,80,0,14,,,,,,,,13,,,,36,64
104840,note_off,80,0,5,,,,,,,,3,,,,60,64
104840,note_off,80,0,12,,,,,,,,11,,,,58,64
104840,note_off,80,0,7,,,,,,,,5,,,,48,64
104840,note_off,80,0,13,,,,,,,,12,,,,48,64
104880,note_on,40,0,10,,,,,,,,8,,,,60,92
104880,note_on,40,0,5,,,,,,,,3,,,,60,92
104880,note_on,40,0,7,,,,,,,,5,,,,48,92
104960,note_off,80,0,10,,,,,,,,8,,,,60,64
104960,note_off,80,0,7,,,,,,,,5,,,,48,64
104960,note_off,80,0,5,,,,,,,,3,,,,60,64
105000,note_on,160,0,8,,,,,,,,6,,,,48,92
105000,note_on,160,0,9,,,,,,,,7,,,,36,92
105000,note_on,40,0,10,,,,,,,,8,,,,60,92
105000,note_on,40,0,5,,,,,,,,3,,,,60,92
105000,note_on,160,0,13,,,,,,,,12,,,,48,92
105000,note_on,40,0,7,,,,,,,,5,,,,48,92
105000,note_on,160,0,12,,,,,,,,11,,,,58,92
105000,note_on,160,0,14,,,,,,,,13,,,,36,92
105080,note_off,80,0,7,,,,,,,,5,,,,48,64
105080,note_off,80,0,13,,,,,,,,12,,,,48,64
105080,note_off,80,0,12,,,,,,,,11,,,,58,64
105080,note_off,80,0,9,,,,,,,,7,,,,36,64
105080,note_off,80,0,10,,,,,,,,8,,,,60,64
105080,note_off,80,0,14,,,,,,,,13,,,,36,64
105080,note_off,80,0,8,,,,,,,,6,,,,48,64
105080,note_off,80,0,5,,,,,,,,3,,,,60,64
105120,note_on,40,0,10,,,,,,,,8,,,,60,92
105120,note_on,40,0,5,,,,,,,,3,,,,60,92
105120,note_on,40,0,7,,,,,,,,5,,,,48,92
105160,note_off,400,0,15,,,,,,,,14,,,,36,64
105200,note_off,80,0,10,,,,,,,,8,,,,60,64
105200,note_off,80,0,7,,,,,,,,5,,,,48,64
105200,note_off,80,0,5,,,,,,,,3,,,,60,64
105240,note_on,40,0,7,,,,,,,,5,,,,48,92
105240,note_on,80,0,15,,,,,,,,14,,,,36,75
105240,note_on,40,0,10,,,,,,,,8,,,,60,92
105240,note_on,160,0,14,,,,,,,,13,,,,36,92
105240,note_on,160,0,9,,,,,,,,7,,,,36,92
105240,note_on,40,0,5,,,,,,,,3,,,,60,92
105240,note_on,160,0,13,,,,,,,,12,,,,48,92
105240,note_on,160,0,12,,,,,,,,11,,,,58,92
105240,note_on,160,0,8,,,,,,,,6,,,,48,92
105320,note_off,80,0,5,,,,,,,,3,,,,60,64
105320,note_off,80,0,7,,,,,,,,5,,,,48,64
105320,note_off,80,0,13,,,,,,,,12,,,,48,64
105320,note_off,80,0,12,,,,,,,,11,,,,58,64
105320,note_off,80,0,9,,,,,,,,7,,,,36,64
105320,note_off,80,0,10,,,,,,,,8,,,,60,64
105320,note_off,80,0,14,,,,,,,,13,,,,36,64
105320,note_off,80,0,8,,,,,,,,6,,,,48,64
105360,note_on,40,0,5,,,,,,,,3,,,,60,92
105360,note_on,40,0,10,,,,,,,,8,,,,60,92
105360,note_on,40,0,7,,,,,,,,5,,,,48,92
105440,note_off,80,0,5,,,,,,,,3,,,,60,64
105440,note_off,80,0,10,,,,,,,,8,,,,60,64
105440,note_off,80,0,7,,,,,,,,5,,,,48,64
105480,note_on,160,0,13,,,,,,,,12,,,,48,92
105480,note_on,160,0,14,,,,,,,,13,,,,36,92
105480,note_on,40,0,10,,,,,,,,8,,,,60,92
105480,note_on,40,0,7,,,,,,,,5,,,,48,92
105480,note_on,160,0,9,,,,,,,,7,,,,36,92
105480,note_on,160,0,12,,,,,,,,11,,,,58,92
105480,note_on,40,0,5,,,,,,,,3,,,,60,92
105480,note_on,160,0,8,,,,,,,,6,,,,48,92
105560,note_off,80,0,7,,,,,,,,5,,,,48,64
105560,note_off,80,0,12,,,,,,,,11,,,,58,64
105560,note_off,80,0,13,,,,,,,,12,,,,48,64
105560,note_off,80,0,9,,,,,,,,7,,,,36,64
105560,note_off,80,0,8,,,,,,,,6,,,,48,64
105560,note_off,80,0,5,,,,,,,,3,,,,60,64
105560,note_off,80,0,14,,,,,,,,13,,,,36,64
105560,note_off,80,0,10,,,,,,,,8,,,,60,64
105600,note_on,40,0,10,,,,,,,,8,,,,60,92
105600,note_on,40,0,7,,,,,,,,5,,,,48,92
105600,note_on,40,0,5,,,,,,,,3,,,,60,92
105640,note_off,400,0,15,,,,,,,,14,,,,36,64
105680,note_off,80,0,10,,,,,,,,8,,,,60,64
105680,note_off,80,0,7,,,,,,,,5,,,,48,64
105680,note_off,80,0,5,,,,,,,,3,,,,60,64
105720,note_on,40,0,5,,,,,,,,3,,,,67,127
105720,note_on,160,0,13,,,,,,,,12,,,,48,92
105720,note_on,160,0,8,,,,,,,,6,,,,48,92
105720,note_on,40,0,10,,,,,,,,8,,,,67,92
105720,note_on,160,0,9,,,,,,,,7,,,,36,92
105720,note_on,160,0,12,,,,,,,,11,,,,58,92
105720,note_on,40,0,7,,,,,,,,5,,,,55,92
105720,note_on,80,0,15,,,,,,,,14,,,,36,75
105720,note_on,160,0,14,,,,,,,,13,,,,36,92
105800,note_off,80,0,9,,,,,,,,7,,,,36,64
105800,note_off,80,0,12,,,,,,,,11,,,,58,64
105800,note_off,80,0,8,,,,,,,,6,,,,48,64
105800,note_off,80,0,13,,,,,,,,12,,,,48,64
105800,note_off,80,0,7,,,,,,,,5,,,,55,64
105800,note_off,80,0,5,,,,,,,,3,,,,67,64
105800,note_off,80,0,10,,,,,,,,8,,,,67,64
105800,note_off,80,0,14,,,,,,,,13,,,,36,64
105840,note_on,40,0,7,,,,,,,,5,,,,48,92
105840,note_on,40,0,10,,,,,,,,8,,,,60,92
105840,note_on,40,0,5,,,,,,,,3,,,,60,92
105920,note_off,80,0,5,,,,,,,,3,,,,60,64
105920,note_off,80,0,7,,,,,,,,5,,,,48,64
105920,note_off,80,0,10,,,,,,,,8,,,,60,64
105960,note_on,40,0,7,,,,,,,,5,,,,48,92
105960,note_on,160,0,12,,,,,,,,11,,,,58,92
105960,note_on,160,0,9,,,,,,,,7,,,,36,92
105960,note_on,40,0,10,,,,,,,,8,,,,60,92
105960,note_on,160,0,14,,,,,,,,13,,,,36,92
105960,note_on,160,0,13,,,,,,,,12,,,,48,92
105960,note_on,160,0,8,,,,,,,,6,,,,48,92
105960,note_on,40,0,5,,,,,,,,3,,,,60,92
106040,note_off,80,0,10,,,,,,,,8,,,,60,64
106040,note_off,80,0,7,,,,,,,,5,,,,48,64
106040,note_off,80,0,14,,,,,,,,13,,,,36,64
106040,note_off,80,0,8,,,,,,,,6,,,,48,64
106040,note_off,80,0,5,,,,,,,,3,,,,60,64
106040,note_off,80,0,9,,,,,,,,7,,,,36,64
106040,note_off,80,0,12,,,,,,,,11,,,,58,64
106040,note_off,80,0,13,,,,,,,,12,,,,48,64
106080,note_on,40,0,7,,,,,,,,5,,,,48,92
106080,note_on,40,0,5,,,,,,,,3,,,,60,92
106080,note_on,40,0,10,,,,,,,,8,,,,60,92
106120,note_off,400,0,15,,,,,,,,14,,,,36,64
106160,note_off,80,0,7,,,,,,,,5,,,,48,64
106160,note_off,80,0,10,,,,,,,,8,,,,60,64
106160,note_off,80,0,5,,,,,,,,3,,,,60,64
106200,note_on,40,0,10,,,,,,,,8,,,,60,92
106200,note_on,160,0,12,,,,,,,,11,,,,58,92
106200,note_on,160,0,14,,,,,,,,13,,,,36,92
106200,note_on,160,0,8,,,,,,,,6,,,,48,92
106200,note_on,160,0,13,,,,,,,,12,,,,48,92
106200,note_on,40,0,5,,,,,,,,3,,,,60,92
106200,note_on,160,0,9,,,,,,,,7,,,,36,92
106200,note_on,80,0,15,,,,,,,,14,,,,36,75
106200,note_on,40,0,7,,,,,,,,5,,,,48,92
106280,note_off,80,0,7,,,,,,,,5,,,,48,64
106280,note_off,80,0,10,,,,,,,,8,,,,60,64
106280,note_off,80,0,14,,,,,,,,13,,,,36,64
106280,note_off,80,0,13,,,,,,,,12,,,,48,64
106280,note_off,80,0,9,,,,,,,,7,,,,36,64
106280,note_off,80,0,8,,,,,,,,6,,,,48,64
106280,note_off,80,0,12,,,,,,,,11,,,,58,64
106280,note_off,80,0,5,,,,,,,,3,,,,60,64
106320,note_on,40,0,10,,,,,,,,8,,,,60,92
106320,note_on,40,0,7,,,,,,,,5,,,,48,92
106320,note_on,40,0,5,,,,,,,,3,,,,60,92
106400,note_off,80,0,7,,,,,,,,5,,,,48,64
106400,note_off,80,0,10,,,,,,,,8,,,,60,64
106400,note_off,80,0,5,,,,,,,,3,,,,60,64
106440,note_on,40,0,7,,,,,,,,5,,,,48,92
106440,note_on,40,0,10,,,,,,,,8,,,,60,92
106440,note_on,160,0,12,,,,,,,,11,,,,58,92
106440,note_on,160,0,14,,,,,,,,13,,,,36,92
106440,note_on,40,0,5,,,,,,,,3,,,,60,92
106440,note_on,160,0,9,,,,,,,,7,,,,36,92
106440,note_on,160,0,8,,,,,,,,6,,,,48,92
106440,note_on,160,0,13,,,,,,,,12,,,,48,92
106520,note_off,80,0,12,,,,,,,,11,,,,58,64
106520,note_off,80,0,14,,,,,,,,13,,,,36,64
106520,note_off,80,0,13,,,,,,,,12,,,,48,64
106520,note_off,80,0,5,,,,,,,,3,,,,60,64
106520,note_off,80,0,8,,,,,,,,6,,,,48,64
106520,note_off,80,0,7,,,,,,,,5,,,,48,64
106520,note_off,80,0,9,,,,,,,,7,,,,36,64
106520,note_off,80,0,10,,,,,,,,8,,,,60,64
106560,note_on,40,0,5,,,,,,,,3,,,,60,92
106560,note_on,40,0,10,,,,,,,,8,,,,60,92
106560,note_on,40,0,7,,,,,,,,5,,,,48,92
106600,note_off,400,0,15,,,,,,,,14,,,,36,64
106640,note_off,80,0,10,,,,,,,,8,,,,60,64
106640,note_off,80,0,7,,,,,,,,5,,,,48,64
106640,note_off,80,0,5,,,,,,,,3,,,,60,64
106680,note_on,40,0,5,,,,,,,,3,,,,60,92
106680,note_on,160,0,9,,,,,,,,7,,,,36,92
106680,note_on,160,0,8,,,,,,,,6,,,,48,92
106680,note_on,40,0,10,,,,,,,,8,,,,60,92
106680,note_on,160,0,13,,,,,,,,12,,,,48,92
106680,note_on,80,0,15,,,,,,,,14,,,,36,75
106680,note_on,160,0,12,,,,,,,,11,,,,58,92
106680,note_on,160,0,14,,,,,,,,13,,,,36,92
106680,note_on,40,0,7,,,,,,,,5,,,,48,92
106760,note_off,80,0,9,,,,,,,,7,,,,36,64
106760,note_off,80,0,14,,,,,,,,13,,,,36,64
106760,note_off,80,0,13,,,,,,,,12,,,,48,64
106760,note_off,80,0,5,,,,,,,,3,,,,60,64
106760,note_off,80,0,7,,,,,,,,5,,,,48,64
106760,note_off,80,0,12,,,,,,,,11,,,,58,64
106760,note_off,80,0,10,,,,,,,,8,,,,60,64
106760,note_off,80,0,8,,,,,,,,6,,,,48,64
107080,note_off,400,0,15,,,,,,,,14,,,,36,64
107160,note_on,27125,0,3,,,,,,,,1,,,,75,75
107160,note_on,400,0,13,,,,,,,,12,,,,48,92
107160,note_on,0,0,4,,,,,,,,2,,,,79,60
107160,note_on,0,0,3,,,,,,,,1,,,,79,75
107160,note_on,27125,0,4,,,,,,,,2,,,,75,60
107160,note_on,400,0,8,,,,,,,,6,,,,48,92
107240,note_off,80,0,13,,,,,,,,12,,,,48,64
107240,note_off,80,0,8,,,,,,,,6,,,,48,64
107280,note_off,120,0,4,,,,,,,,2,,,,75,64
107280,note_on,0,0,3,,,,,,,,1,,,,72,75
107280,note_on,0,0,4,,,,,,,,2,,,,72,60
107280,note_off,120,0,3,,,,,,,,1,,,,75,64
107395,note_off,115,0,4,,,,,,,,2,,,,72,64
107395,note_off,115,0,3,,,,,,,,1,,,,72,64
107400,note_on,160,0,8,,,,,,,,6,,,,60,92
107400,note_on,160,0,13,,,,,,,,12,,,,60,92
107400,note_on,5,0,4,,,,,,,,2,,,,75,60
107400,note_on,5,0,3,,,,,,,,1,,,,75,75
107520,note_on,0,0,13,,,,,,,,12,,,,59,92
107520,note_off,120,0,4,,,,,,,,2,,,,75,64
107520,note_on,0,0,4,,,,,,,,2,,,,72,60
107520,note_off,120,0,13,,,,,,,,12,,,,60,64
107520,note_off,120,0,3,,,,,,,,1,,,,75,64
107520,note_on,0,0,3,,,,,,,,1,,,,72,75
107520,note_on,0,0,8,,,,,,,,6,,,,59,92
107520,note_off,120,0,8,,,,,,,,6,,,,60,64
107600,note_off,80,0,8,,,,,,,,6,,,,59,64
107600,note_off,80,0,13,,,,,,,,12,,,,59,64
107635,note_off,115,0,4,,,,,,,,2,,,,72,64
107635,note_off,115,0,3,,,,,,,,1,,,,72,64
107640,note_on,5,0,4,,,,,,,,2,,,,75,60
107640,note_on,5,0,3,,,,,,,,1,,,,75,75
107640,note_on,40,0,8,,,,,,,,6,,,,60,92
107640,note_on,40,0,13,,,,,,,,12,,,,60,92
107720,note_off,80,0,8,,,,,,,,6,,,,60,64
107720,note_off,80,0,13,,,,,,,,12,,,,60,64
107760,note_off,120,0,3,,,,,,,,1,,,,75,64
107760,note_on,0,0,3,,,,,,,,1,,,,72,75
107760,note_off,120,0,4,,,,,,,,2,,,,75,64
107760,note_on,0,0,4,,,,,,,,2,,,,72,60
107875,note_off,115,0,3,,,,,,,,1,,,,72,64
107875,note_off,115,0,4,,,,,,,,2,,,,72,64
107880,note_on,160,0,8,,,,,,,,6,,,,48,92
107880,note_on,5,0,3,,,,,,,,1,,,,75,75
107880,note_on,5,0,4,,,,,,,,2,,,,75,60
107880,note_on,160,0,13,,,,,,,,12,,,,48,92
107960,note_off,80,0,13,,,,,,,,12,,,,48,64
107960,note_off,80,0,8,,,,,,,,6,,,,48,64
108000,note_off,120,0,3,,,,,,,,1,,,,75,64
108000,note_on,0,0,3,,,,,,,,1,,,,72,75
108000,note_off,120,0,4,,,,,,,,2,,,,75,64
108000,note_on,0,0,4,,,,,,,,2,,,,72,60
108115,note_off,115,0,3,,,,,,,,1,,,,72,64
108115,note_off,115,0,4,,,,,,,,2,,,,72,64
108120,note_on,5,0,4,,,,,,,,2,,,,75,60
108120,note_on,5,0,3,,,,,,,,1,,,,75,75
108120,note_on,160,0,13,,,,,,,,12,,,,48,92
108120,note_on,160,0,8,,,,,,,,6,,,,48,92
108200,note_off,80,0,13,,,,,,,,12,,,,48,64
108200,note_off,80,0,8,,,,,,,,6,,,,48,64
108240,note_off,120,0,4,,,,,,,,2,,,,75,64
108240,note_on,0,0,4,,,,,,,,2,,,,72,60
108240,note_on,0,0,3,,,,,,,,1,,,,72,75
108240,note_off,120,0,3,,,,,,,,1,,,,75,64
108355,note_off,115,0,4,,,,,,,,2,,,,72,64
108355,note_off,115,0,3,,,,,,,,1,,,,72,64
108360,note_on,5,0,3,,,,,,,,1,,,,75,75
108360,note_on,160,0,13,,,,,,,,12,,,,60,92
108360,note_on,160,0,8,,,,,,,,6,,,,60,92
108360,note_on,5,0,4,,,,,,,,2,,,,75,60
108440,note_off,80,0,8,,,,,,,,6,,,,60,64
108440,note_off,80,0,13,,,,,,,,12,,,,60,64
108480,note_off,120,0,3,,,,,,,,1,,,,79,64
108480,note_off,0,0,4,,,,,,,,2,,,,75,64
108480,note_off,0,0,3,,,,,,,,1,,,,75,64
108480,note_on,0,0,4,,,,,,,,2,,,,72,60
108480,note_off,120,0,4,,,,,,,,2,,,,79,64
108480,note_on,0,0,3,,,,,,,,1,,,,72,75
108595,note_off,115,0,3,,,,,,,,1,,,,72,64
108595,note_off,115,0,4,,,,,,,,2,,,,72,64
108600,note_on,5,0,3,,,,,,,,1,,,,74,75
108600,note_on,0,0,3,,,,,,,,1,,,,79,75
108600,note_on,160,0,8,,,,,,,,6,,,,43,92
108600,note_on,160,0,13,,,,,,,,12,,,,43,92
108600,note_on,5,0,4,,,,,,,,2,,,,74,60
108600,note_on,0,0,4,,,,,,,,2,,,,79,60
108720,note_on,0,0,3,,,,,,,,1,,,,71,75
108720,note_off,120,0,3,,,,,,,,1,,,,74,64
108720,note_off,120,0,4,,,,,,,,2,,,,74,64
108720,note_on,0,0,4,,,,,,,,2,,,,71,60
108835,note_off,115,0,3,,,,,,,,1,,,,71,64
108835,note_off,115,0,4,,,,,,,,2,,,,71,64
108840,note_on,5,0,4,,,,,,,,2,,,,74,60
108840,note_on,5,0,3,,,,,,,,1,,,,74,75
108960,note_off,120,0,3,,,,,,,,1,,,,74,64
108960,note_on,0,0,3,,,,,,,,1,,,,71,75
108960,note_off,120,0,4,,,,,,,,2,,,,74,64
108960,note_on,0,0,4,,,,,,,,2,,,,71,60
109000,note_off,400,0,8,,,,,,,,6,,,,43,64
109000,note_off,400,0,13,,,,,,,,12,,,,43,64
109075,note_off,115,0,3,,,,,,,,1,,,,71,64
109075,note_off,115,0,4,,,,,,,,2,,,,71,64
109080,note_on,5,0,3,,,,,,,,1,,,,74,75
109080,note_on,5,0,4,,,,,,,,2,,,,74,60
109200,note_off,120,0,3,,,,,,,,1,,,,74,64
109200,note_on,0,0,3,,,,,,,,1,,,,71,75
109200,note_off,120,0,4,,,,,,,,2,,,,74,64
109200,note_on,0,0,4,,,,,,,,2,,,,71,60
109315,note_off,115,0,4,,,,,,,,2,,,,71,64
109315,note_off,115,0,3,,,,,,,,1,,,,71,64
109320,note_on,5,0,4,,,,,,,,2,,,,74,60
109320,note_on,5,0,3,,,,,,,,1,,,,74,75
109440,note_on,0,0,3,,,,,,,,1,,,,71,75
109440,note_on,0,0,4,,,,,,,,2,,,,71,60
109440,note_off,120,0,4,,,,,,,,2,,,,74,64
109440,note_off,120,0,3,,,,,,,,1,,,,74,64
109555,note_off,115,0,3,,,,,,,,1,,,,71,64
109555,note_off,115,0,4,,,,,,,,2,,,,71,64
109560,note_on,5,0,3,,,,,,,,1,,,,74,75
109560,note_on,5,0,4,,,,,,,,2,,,,74,60
109680,note_off,120,0,3,,,,,,,,1,,,,74,64
109680,note_on,0,0,3,,,,,,,,1,,,,71,75
109680,note_off,120,0,4,,,,,,,,2,,,,74,64
109680,note_on,0,0,4,,,,,,,,2,,,,71,60
109795,note_off,115,0,3,,,,,,,,1,,,,71,64
109795,note_off,115,0,4,,,,,,,,2,,,,71,64
109800,note_on,5,0,4,,,,,,,,2,,,,74,60
109800,note_on,5,0,3,,,,,,,,1,,,,74,75
109920,note_off,0,0,4,,,,,,,,2,,,,74,64
109920,note_on,0,0,3,,,,,,,,1,,,,71,75
109920,note_off,0,0,3,,,,,,,,1,,,,74,64
109920,note_off,120,0,3,,,,,,,,1,,,,79,64
109920,note_on,0,0,4,,,,,,,,2,,,,71,60
109920,note_off,120,0,4,,,,,,,,2,,,,79,64
110035,note_off,115,0,4,,,,,,,,2,,,,71,64
110035,note_off,115,0,3,,,,,,,,1,,,,71,64
110040,note_on,1040,0,8,,,,,,,,6,,,,48,92
110040,note_on,5,0,4,,,,,,,,2,,,,75,60
110040,note_on,0,0,4,,,,,,,,2,,,,79,60
110040,note_on,5,0,3,,,,,,,,1,,,,75,75
110040,note_on,0,0,3,,,,,,,,1,,,,79,75
110040,note_on,1040,0,13,,,,,,,,12,,,,48,92
110120,note_off,80,0,8,,,,,,,,6,,,,48,64
110120,note_off,80,0,13,,,,,,,,12,,,,48,64
110160,note_off,120,0,3,,,,,,,,1,,,,75,64
110160,note_on,0,0,4,,,,,,,,2,,,,72,60
110160,note_off,120,0,4,,,,,,,,2,,,,75,64
110160,note_on,0,0,3,,,,,,,,1,,,,72,75
110275,note_off,115,0,4,,,,,,,,2,,,,72,64
110275,note_off,115,0,3,,,,,,,,1,,,,72,64
110280,note_on,5,0,3,,,,,,,,1,,,,75,75
110280,note_on,160,0,8,,,,,,,,6,,,,60,92
110280,note_on,160,0,13,,,,,,,,12,,,,60,92
110280,note_on,5,0,4,,,,,,,,2,,,,75,60
110400,note_off,120,0,13,,,,,,,,12,,,,60,64
110400,note_on,0,0,13,,,,,,,,12,,,,59,92
110400,note_on,0,0,8,,,,,,,,6,,,,59,92
110400,note_off,120,0,8,,,,,,,,6,,,,60,64
110400,note_off,120,0,4,,,,,,,,2,,,,75,64
110400,note_on,0,0,4,,,,,,,,2,,,,72,60
110400,note_on,0,0,3,,,,,,,,1,,,,72,75
110400,note_off,120,0,3,,,,,,,,1,,,,75,64
110480,note_off,80,0,8,,,,,,,,6,,,,59,64
110480,note_off,80,0,13,,,,,,,,12,,,,59,64
110515,note_off,115,0,3,,,,,,,,1,,,,72,64
110515,note_off,115,0,4,,,,,,,,2,,,,72,64
110520,note_on,40,0,8,,,,,,,,6,,,,60,92
110520,note_on,40,0,13,,,,,,,,12,,,,60,92
110520,note_on,5,0,3,,,,,,,,1,,,,75,75
110520,note_on,5,0,4,,,,,,,,2,,,,75,60
110600,note_off,80,0,8,,,,,,,,6,,,,60,64
110600,note_off,80,0,13,,,,,,,,12,,,,60,64
110640,note_off,120,0,4,,,,,,,,2,,,,75,64
110640,note_on,0,0,4,,,,,,,,2,,,,72,60
110640,note_on,0,0,3,,,,,,,,1,,,,72,75
110640,note_off,120,0,3,,,,,,,,1,,,,75,64
110755,note_off,115,0,4,,,,,,,,2,,,,72,64
110755,note_off,115,0,3,,,,,,,,1,,,,72,64
110760,note_on,160,0,8,,,,,,,,6,,,,48,92
110760,note_on,5,0,4,,,,,,,,2,,,,75,60
110760,note_on,160,0,13,,,,,,,,12,,,,48,92
110760,note_on,5,0,3,,,,,,,,1,,,,75,75
110840,note_off,80,0,13,,,,,,,,12,,,,48,64
110840,note_off,80,0,8,,,,,,,,6,,,,48,64
110880,note_on,0,0,3,,,,,,,,1,,,,72,75
110880,note_off,120,0,3,,,,,,,,1,,,,75,64
110880,note_off,120,0,4,,,,,,,,2,,,,75,64
110880,note_on,0,0,4,,,,,,,,2,,,,72,60
110995,note_off,115,0,4,,,,,,,,2,,,,72,64
110995,note_off,115,0,3,,,,,,,,1,,,,72,64
111000,note_on,160,0,13,,,,,,,,12,,,,48,92
111000,note_on,5,0,3,,,,,,,,1,,,,75,75
111000,note_on,160,0,8,,,,,,,,6,,,,48,92
111000,note_on,5,0,4,,,,,,,,2,,,,75,60
111080,note_off,80,0,13,,,,,,,,12,,,,48,64
111080,note_off,80,0,8,,,,,,,,6,,,,48,64
111120,note_on,0,0,4,,,,,,,,2,,,,72,60
111120,note_on,0,0,3,,,,,,,,1,,,,72,75
111120,note_off,120,0,3,,,,,,,,1,,,,75,64
111120,note_off,120,0,4,,,,,,,,2,,,,75,64
111235,note_off,115,0,4,,,,,,,,2,,,,72,64
111235,note_off,115,0,3,,,,,,,,1,,,,72,64
111240,note_on,5,0,4,,,,,,,,2,,,,75,60
111240,note_on,160,0,8,,,,,,,,6,,,,60,92
111240,note_on,5,0,3,,,,,,,,1,,,,75,75
111240,note_on,160,0,13,,,,,,,,12,,,,60,92
111320,note_off,80,0,13,,,,,,,,12,,,,60,64
111320,note_off,80,0,8,,,,,,,,6,,,,60,64
111360,note_off,0,0,4,,,,,,,,2,,,,75,64
111360,note_off,120,0,4,,,,,,,,2,,,,79,64
111360,note_on,0,0,3,,,,,,,,1,,,,72,75
111360,note_off,0,0,3,,,,,,,,1,,,,75,64
111360,note_off,120,0,3,,,,,,,,1,,,,79,64
111360,note_on,0,0,4,,,,,,,,2,,,,72,60
111475,note_off,115,0,4,,,,,,,,2,,,,72,64
111475,note_off,115,0,3,,,,,,,,1,,,,72,64
111480,note_on,160,0,13,,,,,,,,12,,,,46,92
111480,note_on,0,0,4,,,,,,,,2,,,,77,60
111480,note_on,160,0,8,,,,,,,,6,,,,46,92
111480,note_on,5,0,3,,,,,,,,1,,,,74,75
111480,note_on,0,0,3,,,,,,,,1,,,,77,75
111480,note_on,5,0,4,,,,,,,,2,,,,74,60
111600,note_off,120,0,3,,,,,,,,1,,,,74,64
111600,note_off,120,0,4,,,,,,,,2,,,,74,64
111600,note_on,0,0,3,,,,,,,,1,,,,70,75
111600,note_on,0,0,4,,,,,,,,2,,,,70,60
111715,note_off,115,0,4,,,,,,,,2,,,,70,64
111715,note_off,115,0,3,,,,,,,,1,,,,70,64
111720,note_on,5,0,3,,,,,,,,1,,,,74,75
111720,note_on,5,0,4,,,,,,,,2,,,,74,60
111840,note_off,120,0,4,,,,,,,,2,,,,74,64
111840,note_on,0,0,4,,,,,,,,2,,,,70,60
111840,note_on,0,0,3,,,,,,,,1,,,,70,75
111840,note_off,120,0,3,,,,,,,,1,,,,74,64
111880,note_off,400,0,13,,,,,,,,12,,,,46,64
111880,note_off,400,0,8,,,,,,,,6,,,,46,64
111955,note_off,115,0,4,,,,,,,,2,,,,70,64
111955,note_off,115,0,3,,,,,,,,1,,,,70,64
111960,note_on,5,0,4,,,,,,,,2,,,,74,60
111960,note_on,5,0,3,,,,,,,,1,,,,74,75
112080,note_off,120,0,4,,,,,,,,2,,,,74,64
112080,note_off,120,0,3,,,,,,,,1,,,,74,64
112080,note_on,0,0,3,,,,,,,,1,,,,70,75
112080,note_on,0,0,4,,,,,,,,2,,,,70,60
112195,note_off,115,0,4,,,,,,,,2,,,,70,64
112195,note_off,115,0,3,,,,,,,,1,,,,70,64
112200,note_on,5,0,4,,,,,,,,2,,,,74,60
112200,note_on,5,0,3,,,,,,,,1,,,,74,75
112320,note_off,120,0,3,,,,,,,,1,,,,74,64
112320,note_on,0,0,3,,,,,,,,1,,,,70,75
112320,note_on,0,0,4,,,,,,,,2,,,,70,60
112320,note_off,120,0,4,,,,,,,,2,,,,74,64
112435,note_off,115,0,3,,,,,,,,1,,,,70,64
112435,note_off,115,0,4,,,,,,,,2,,,,70,64
112440,note_on,5,0,4,,,,,,,,2,,,,74,60
112440,note_on,5,0,3,,,,,,,,1,,,,74,75
112560,note_off,120,0,3,,,,,,,,1,,,,74,64
112560,note_off,120,0,4,,,,,,,,2,,,,74,64
112560,note_on,0,0,4,,,,,,,,2,,,,70,60
112560,note_on,0,0,3,,,,,,,,1,,,,70,75
112675,note_off,115,0,3,,,,,,,,1,,,,70,64
112675,note_off,115,0,4,,,,,,,,2,,,,70,64
112680,note_on,5,0,3,,,,,,,,1,,,,74,75
112680,note_on,5,0,4,,,,,,,,2,,,,74,60
112800,note_off,0,0,4,,,,,,,,2,,,,74,64
112800,note_on,0,0,3,,,,,,,,1,,,,70,75
112800,note_off,0,0,3,,,,,,,,1,,,,74,64
112800,note_off,120,0,3,,,,,,,,1,,,,77,64
112800,note_on,0,0,4,,,,,,,,2,,,,70,60
112800,note_off,120,0,4,,,,,,,,2,,,,77,64
112915,note_off,115,0,3,,,,,,,,1,,,,70,64
112915,note_off,115,0,4,,,,,,,,2,,,,70,64
112920,note_on,5,0,3,,,,,,,,1,,,,75,75
112920,note_on,1040,0,13,,,,,,,,12,,,,39,92
112920,note_on,5,0,4,,,,,,,,2,,,,75,60
112920,note_on,0,0,4,,,,,,,,2,,,,79,60
112920,note_on,1040,0,8,,,,,,,,6,,,,39,92
112920,note_on,0,0,3,,,,,,,,1,,,,79,75
113000,note_off,80,0,8,,,,,,,,6,,,,39,64
113000,note_off,80,0,13,,,,,,,,12,,,,39,64
113040,note_off,120,0,4,,,,,,,,2,,,,75,64
113040,note_on,0,0,4,,,,,,,,2,,,,70,60
113040,note_on,0,0,3,,,,,,,,1,,,,70,75
113040,note_off,120,0,3,,,,,,,,1,,,,75,64
113155,note_off,115,0,3,,,,,,,,1,,,,70,64
113155,note_off,115,0,4,,,,,,,,2,,,,70,64
113160,note_on,160,0,13,,,,,,,,12,,,,51,92
113160,note_on,5,0,3,,,,,,,,1,,,,75,75
113160,note_on,5,0,4,,,,,,,,2,,,,75,60
113160,note_on,160,0,8,,,,,,,,6,,,,51,92
113280,note_off,120,0,4,,,,,,,,2,,,,75,64
113280,note_on,0,0,4,,,,,,,,2,,,,70,60
113280,note_on,0,0,8,,,,,,,,6,,,,50,92
113280,note_off,120,0,8,,,,,,,,6,,,,51,64
113280,note_off,120,0,13,,,,,,,,12,,,,51,64
113280,note_on,0,0,3,,,,,,,,1,,,,70,75
113280,note_off,120,0,3,,,,,,,,1,,,,75,64
113280,note_on,0,0,13,,,,,,,,12,,,,50,92
113360,note_off,80,0,8,,,,,,,,6,,,,50,64
113360,note_off,80,0,13,,,,,,,,12,,,,50,64
113395,note_off,115,0,3,,,,,,,,1,,,,70,64
113395,note_off,115,0,4,,,,,,,,2,,,,70,64
113400,note_on,5,0,3,,,,,,,,1,,,,75,75
113400,note_on,40,0,13,,,,,,,,12,,,,51,92
113400,note_on,40,0,8,,,,,,,,6,,,,51,92
113400,note_on,5,0,4,,,,,,,,2,,,,75,60
113480,note_off,80,0,8,,,,,,,,6,,,,51,64
113480,note_off,80,0,13,,,,,,,,12,,,,51,64
113520,note_on,0,0,3,,,,,,,,1,,,,70,75
113520,note_off,120,0,3,,,,,,,,1,,,,75,64
113520,note_off,120,0,4,,,,,,,,2,,,,75,64
113520,note_on,0,0,4,,,,,,,,2,,,,70,60
113635,note_off,115,0,3,,,,,,,,1,,,,70,64
113635,note_off,115,0,4,,,,,,,,2,,,,70,64
113640,note_on,160,0,8,,,,,,,,6,,,,39,92
113640,note_on,5,0,3,,,,,,,,1,,,,75,75
113640,note_on,160,0,13,,,,,,,,12,,,,39,92
113640,note_on,5,0,4,,,,,,,,2,,,,75,60
113720,note_off,80,0,13,,,,,,,,12,,,,39,64
113720,note_off,80,0,8,,,,,,,,6,,,,39,64
113760,note_on,0,0,4,,,,,,,,2,,,,70,60
113760,note_on,0,0,3,,,,,,,,1,,,,70,75
113760,note_off,120,0,3,,,,,,,,1,,,,75,64
113760,note_off,120,0,4,,,,,,,,2,,,,75,64
113875,note_off,115,0,4,,,,,,,,2,,,,70,64
113875,note_off,115,0,3,,,,,,,,1,,,,70,64
113880,note_on,5,0,3,,,,,,,,1,,,,75,75
113880,note_on,160,0,8,,,,,,,,6,,,,39,92
113880,note_on,5,0,4,,,,,,,,2,,,,75,60
113880,note_on,160,0,13,,,,,,,,12,,,,39,92
113960,note_off,80,0,13,,,,,,,,12,,,,39,64
113960,note_off,80,0,8,,,,,,,,6,,,,39,64
114000,note_on,0,0,3,,,,,,,,1,,,,70,75
114000,note_on,0,0,4,,,,,,,,2,,,,70,60
114000,note_off,120,0,4,,,,,,,,2,,,,75,64
114000,note_off,120,0,3,,,,,,,,1,,,,75,64
114115,note_off,115,0,3,,,,,,,,1,,,,70,64
114115,note_off,115,0,4,,,,,,,,2,,,,70,64
114120,note_on,5,0,3,,,,,,,,1,,,,75,75
114120,note_on,160,0,13,,,,,,,,12,,,,51,92
114120,note_on,5,0,4,,,,,,,,2,,,,75,60
114120,note_on,160,0,8,,,,,,,,6,,,,51,92
114200,note_off,80,0,13,,,,,,,,12,,,,51,64
114200,note_off,80,0,8,,,,,,,,6,,,,51,64
114240,note_on,0,0,3,,,,,,,,1,,,,70,75
114240,note_off,120,0,4,,,,,,,,2,,,,79,64
114240,note_off,0,0,4,,,,,,,,2,,,,75,64
114240,note_on,0,0,4,,,,,,,,2,,,,70,60
114240,note_off,0,0,3,,,,,,,,1,,,,75,64
114240,note_off,120,0,3,,,,,,,,1,,,,79,64
114355,note_off,115,0,4,,,,,,,,2,,,,70,64
114355,note_off,115,0,3,,,,,,,,1,,,,70,64
114360,note_on,5,0,4,,,,,,,,2,,,,75,60
114360,note_on,5,0,3,,,,,,,,1,,,,75,75
114360,note_on,160,0,13,,,,,,,,12,,,,43,92
114360,note_on,160,0,8,,,,,,,,6,,,,43,92
114480,note_on,0,0,3,,,,,,,,1,,,,79,75
114480,note_off,120,0,3,,,,,,,,1,,,,75,64
114480,note_off,120,0,4,,,,,,,,2,,,,75,64
114480,note_on,0,0,4,,,,,,,,2,,,,79,60
114595,note_off,115,0,4,,,,,,,,2,,,,79,64
114595,note_off,115,0,3,,,,,,,,1,,,,79,64
114600,note_on,5,0,3,,,,,,,,1,,,,79,75
114600,note_on,5,0,4,,,,,,,,2,,,,79,60
114720,note_off,120,0,3,,,,,,,,1,,,,79,64
114720,note_on,0,0,3,,,,,,,,1,,,,80,75
114720,note_off,120,0,4,,,,,,,,2,,,,79,64
114720,note_on,0,0,4,,,,,,,,2,,,,80,60
114760,note_off,400,0,13,,,,,,,,12,,,,43,64
114760,note_off,400,0,8,,,,,,,,6,,,,43,64
114835,note_off,115,0,3,,,,,,,,1,,,,80,64
114835,note_off,115,0,4,,,,,,,,2,,,,80,64
114840,note_on,5,0,3,,,,,,,,1,,,,80,75
114840,note_on,5,0,4,,,,,,,,2,,,,80,60
114960,note_on,0,0,4,,,,,,,,2,,,,82,60
114960,note_off,120,0,4,,,,,,,,2,,,,80,64
114960,note_off,120,0,3,,,,,,,,1,,,,80,64
114960,note_on,0,0,3,,,,,,,,1,,,,82,75
115075,note_off,115,0,4,,,,,,,,2,,,,82,64
115075,note_off,115,0,3,,,,,,,,1,,,,82,64
115080,note_on,5,0,4,,,,,,,,2,,,,82,60
115080,note_on,5,0,3,,,,,,,,1,,,,82,75
115200,note_on,0,0,3,,,,,,,,1,,,,84,75
115200,note_on,0,0,4,,,,,,,,2,,,,84,60
115200,note_off,120,0,4,,,,,,,,2,,,,82,64
115200,note_off,120,0,3,,,,,,,,1,,,,82,64
115315,note_off,115,0,3,,,,,,,,1,,,,84,64
115315,note_off,115,0,4,,,,,,,,2,,,,84,64
115320,note_on,5,0,3,,,,,,,,1,,,,84,75
115320,note_on,5,0,4,,,,,,,,2,,,,84,60
115440,note_off,120,0,4,,,,,,,,2,,,,84,64
115440,note_off,120,0,3,,,,,,,,1,,,,84,64
115440,note_on,0,0,3,,,,,,,,1,,,,86,75
115440,note_on,0,0,4,,,,,,,,2,,,,86,60
115555,note_off,115,0,3,,,,,,,,1,,,,86,64
115555,note_off,115,0,4,,,,,,,,2,,,,86,64
115560,note_on,5,0,3,,,,,,,,1,,,,86,75
115560,note_on,5,0,4,,,,,,,,2,,,,86,60
115680,note_on,0,0,4,,,,,,,,2,,,,87,60
115680,note_off,120,0,4,,,,,,,,2,,,,86,64
115680,note_off,120,0,3,,,,,,,,1,,,,86,64
115680,note_on,0,0,3,,,,,,,,1,,,,87,75
115795,note_off,115,0,4,,,,,,,,2,,,,87,64
115795,note_off,115,0,3,,,,,,,,1,,,,87,64
115800,note_on,5,0,4,,,,,,,,2,,,,87,60
115800,note_on,1040,0,8,,,,,,,,6,,,,43,92
115800,note_on,5,0,3,,,,,,,,1,,,,87,75
115800,note_on,1040,0,13,,,,,,,,12,,,,43,92
115880,note_off,80,0,4,,,,,,,,2,,,,87,64
115880,note_off,80,0,8,,,,,,,,6,,,,43,64
115880,note_off,80,0,13,,,,,,,,12,,,,43,64
115880,note_off,80,0,3,,,,,,,,1,,,,87,64
115920,note_on,40,0,4,,,,,,,,2,,,,82,60
115920,note_on,40,0,3,,,,,,,,1,,,,82,75
116000,note_off,80,0,3,,,,,,,,1,,,,82,64
116000,note_off,80,0,4,,,,,,,,2,,,,82,64
116040,note_on,160,0,13,,,,,,,,12,,,,55,92
116040,note_on,40,0,3,,,,,,,,1,,,,79,75
116040,note_on,160,0,8,,,,,,,,6,,,,55,92
116040,note_on,40,0,4,,,,,,,,2,,,,79,60
116120,note_off,80,0,3,,,,,,,,1,,,,79,64
116120,note_off,80,0,4,,,,,,,,2,,,,79,64
116160,note_on,0,0,13,,,,,,,,12,,,,53,92
116160,note_off,120,0,13,,,,,,,,12,,,,55,64
116160,note_on,40,0,4,,,,,,,,2,,,,75,60
116160,note_on,40,0,3,,,,,,,,1,,,,75,75
116160,note_off,120,0,8,,,,,,,,6,,,,55,64
116160,note_on,0,0,8,,,,,,,,6,,,,53,92
116240,note_off,80,0,13,,,,,,,,12,,,,53,64
116240,note_off,80,0,8,,,,,,,,6,,,,53,64
116240,note_off,80,0,4,,,,,,,,2,,,,75,64
116240,note_off,80,0,3,,,,,,,,1,,,,75,64
116280,note_on,40,0,13,,,,,,,,12,,,,55,92
116280,note_on,40,0,3,,,,,,,,1,,,,87,75
116280,note_on,40,0,8,,,,,,,,6,,,,55,92
116280,note_on,40,0,4,,,,,,,,2,,,,87,60
116360,note_off,80,0,3,,,,,,,,1,,,,87,64
116360,note_off,80,0,13,,,,,,,,12,,,,55,64
116360,note_off,80,0,8,,,,,,,,6,,,,55,64
116360,note_off,80,0,4,,,,,,,,2,,,,87,64
116400,note_on,40,0,3,,,,,,,,1,,,,82,75
116400,note_on,40,0,4,,,,,,,,2,,,,82,60
116480,note_off,80,0,3,,,,,,,,1,,,,82,64
116480,note_off,80,0,4,,,,,,,,2,,,,82,64
116520,note_on,40,0,4,,,,,,,,2,,,,79,60
116520,note_on,160,0,8,,,,,,,,6,,,,43,92
116520,note_on,40,0,3,,,,,,,,1,,,,79,75
116520,note_on,160,0,13,,,,,,,,12,,,,43,92
116600,note_off,80,0,4,,,,,,,,2,,,,79,64
116600,note_off,80,0,8,,,,,,,,6,,,,43,64
116600,note_off,80,0,3,,,,,,,,1,,,,79,64
116600,note_off,80,0,13,,,,,,,,12,,,,43,64
116640,note_on,40,0,3,,,,,,,,1,,,,75,75
116640,note_on,40,0,4,,,,,,,,2,,,,75,60
116720,note_off,80,0,4,,,,,,,,2,,,,75,64
116720,note_off,80,0,3,,,,,,,,1,,,,75,64
116760,note_on,40,0,3,,,,,,,,1,,,,87,75
116760,note_on,160,0,13,,,,,,,,12,,,,43,92
116760,note_on,160,0,8,,,,,,,,6,,,,43,92
116760,note_on,40,0,4,,,,,,,,2,,,,87,60
116840,note_off,80,0,8,,,,,,,,6,,,,43,64
116840,note_off,80,0,3,,,,,,,,1,,,,87,64
116840,note_off,80,0,4,,,,,,,,2,,,,87,64
116840,note_off,80,0,13,,,,,,,,12,,,,43,64
116880,note_on,40,0,3,,,,,,,,1,,,,82,75
116880,note_on,40,0,4,,,,,,,,2,,,,82,60
116960,note_off,80,0,4,,,,,,,,2,,,,82,64
116960,note_off,80,0,3,,,,,,,,1,,,,82,64
117000,note_on,160,0,13,,,,,,,,12,,,,55,92
117000,note_on,40,0,3,,,,,,,,1,,,,79,75
117000,note_on,160,0,8,,,,,,,,6,,,,55,92
117000,note_on,40,0,4,,,,,,,,2,,,,79,60
117080,note_off,80,0,4,,,,,,,,2,,,,79,64
117080,note_off,80,0,3,,,,,,,,1,,,,79,64
117080,note_off,80,0,8,,,,,,,,6,,,,55,64
117080,note_off,80,0,13,,,,,,,,12,,,,55,64
117120,note_on,40,0,4,,,,,,,,2,,,,75,60
117120,note_on,40,0,3,,,,,,,,1,,,,75,75
117200,note_off,80,0,4,,,,,,,,2,,,,75,64
117200,note_off,80,0,3,,,,,,,,1,,,,75,64
117240,note_on,40,0,4,,,,,,,,2,,,,77,60
117240,note_on,160,0,8,,,,,,,,6,,,,44,92
117240,note_on,40,0,3,,,,,,,,1,,,,77,75
117240,note_on,160,0,13,,,,,,,,12,,,,44,92
117360,note_on,0,0,3,,,,,,,,1,,,,80,75
117360,note_off,120,0,4,,,,,,,,2,,,,77,64
117360,note_on,0,0,4,,,,,,,,2,,,,80,60
117360,note_off,120,0,3,,,,,,,,1,,,,77,64
117475,note_off,115,0,3,,,,,,,,1,,,,80,64
117475,note_off,115,0,4,,,,,,,,2,,,,80,64
117480,note_on,5,0,4,,,,,,,,2,,,,80,60
117480,note_on,5,0,3,,,,,,,,1,,,,80,75
117600,note_off,120,0,4,,,,,,,,2,,,,80,64
117600,note_on,0,0,4,,,,,,,,2,,,,82,60
117600,note_off,120,0,3,,,,,,,,1,,,,80,64
117600,note_on,0,0,3,,,,,,,,1,,,,82,75
117640,note_off,400,0,8,,,,,,,,6,,,,44,64
117640,note_off,400,0,13,,,,,,,,12,,,,44,64
117715,note_off,115,0,4,,,,,,,,2,,,,82,64
117715,note_off,115,0,3,,,,,,,,1,,,,82,64
117720,note_on,5,0,4,,,,,,,,2,,,,82,60
117720,note_on,5,0,3,,,,,,,,1,,,,82,75
117840,note_on,0,0,4,,,,,,,,2,,,,84,60
117840,note_on,0,0,3,,,,,,,,1,,,,84,75
117840,note_off,120,0,4,,,,,,,,2,,,,82,64
117840,note_off,120,0,3,,,,,,,,1,,,,82,64
117955,note_off,115,0,3,,,,,,,,1,,,,84,64
117955,note_off,115,0,4,,,,,,,,2,,,,84,64
117960,note_on,5,0,3,,,,,,,,1,,,,84,75
117960,note_on,5,0,4,,,,,,,,2,,,,84,60
118080,note_off,120,0,3,,,,,,,,1,,,,84,64
118080,note_on,0,0,3,,,,,,,,1,,,,86,75
118080,note_on,0,0,4,,,,,,,,2,,,,86,60
118080,note_off,120,0,4,,,,,,,,2,,,,84,64
118195,note_off,115,0,3,,,,,,,,1,,,,86,64
118195,note_off,115,0,4,,,,,,,,2,,,,86,64
118200,note_on,5,0,3,,,,,,,,1,,,,86,75
118200,note_on,5,0,4,,,,,,,,2,,,,86,60
118320,note_on,0,0,3,,,,,,,,1,,,,87,75
118320,note_off,120,0,3,,,,,,,,1,,,,86,64
118320,note_off,120,0,4,,,,,,,,2,,,,86,64
118320,note_on,0,0,4,,,,,,,,2,,,,87,60
118435,note_off,115,0,4,,,,,,,,2,,,,87,64
118435,note_off,115,0,3,,,,,,,,1,,,,87,64
118440,note_on,5,0,4,,,,,,,,2,,,,87,60
118440,note_on,5,0,3,,,,,,,,1,,,,87,75
118560,note_off,120,0,3,,,,,,,,1,,,,87,64
118560,note_on,0,0,3,,,,,,,,1,,,,89,75
118560,note_off,120,0,4,,,,,,,,2,,,,87,64
118560,note_on,0,0,4,,,,,,,,2,,,,89,60
118675,note_off,115,0,3,,,,,,,,1,,,,89,64
118675,note_off,115,0,4,,,,,,,,2,,,,89,64
118680,note_on,1040,0,13,,,,,,,,12,,,,45,92
118680,note_on,5,0,3,,,,,,,,1,,,,89,75
118680,note_on,1040,0,8,,,,,,,,6,,,,45,92
118680,note_on,5,0,4,,,,,,,,2,,,,89,60
118760,note_off,80,0,4,,,,,,,,2,,,,89,64
118760,note_off,80,0,13,,,,,,,,12,,,,45,64
118760,note_off,80,0,3,,,,,,,,1,,,,89,64
118760,note_off,80,0,8,,,,,,,,6,,,,45,64
118800,note_on,40,0,4,,,,,,,,2,,,,84,60
118800,note_on,40,0,3,,,,,,,,1,,,,84,75
118880,note_off,80,0,3,,,,,,,,1,,,,84,64
118880,note_off,80,0,4,,,,,,,,2,,,,84,64
118920,note_on,40,0,3,,,,,,,,1,,,,81,75
118920,note_on,40,0,4,,,,,,,,2,,,,81,60
118920,note_on,160,0,13,,,,,,,,12,,,,57,92
118920,note_on,160,0,8,,,,,,,,6,,,,57,92
119000,note_off,80,0,3,,,,,,,,1,,,,81,64
119000,note_off,80,0,4,,,,,,,,2,,,,81,64
119040,note_on,0,0,13,,,,,,,,12,,,,55,92
119040,note_on,40,0,3,,,,,,,,1,,,,77,75
119040,note_on,40,0,4,,,,,,,,2,,,,77,60
119040,note_off,120,0,13,,,,,,,,12,,,,57,64
119040,note_off,120,0,8,,,,,,,,6,,,,57,64
119040,note_on,0,0,8,,,,,,,,6,,,,55,92
119120,note_off,80,0,8,,,,,,,,6,,,,55,64
119120,note_off,80,0,4,,,,,,,,2,,,,77,64
119120,note_off,80,0,3,,,,,,,,1,,,,77,64
119120,note_off,80,0,13,,,,,,,,12,,,,55,64
119160,note_on,40,0,13,,,,,,,,12,,,,57,92
119160,note_on,40,0,3,,,,,,,,1,,,,89,76
119160,note_on,40,0,4,,,,,,,,2,,,,89,60
119160,note_on,40,0,8,,,,,,,,6,,,,57,92
119240,note_off,80,0,3,,,,,,,,1,,,,89,64
119240,note_off,80,0,8,,,,,,,,6,,,,57,64
119240,note_off,80,0,13,,,,,,,,12,,,,57,64
119240,note_off,80,0,4,,,,,,,,2,,,,89,64
119280,note_on,40,0,4,,,,,,,,2,,,,84,61
119280,note_on,40,0,3,,,,,,,,1,,,,84,77
119360,note_off,80,0,3,,,,,,,,1,,,,84,64
119360,note_off,80,0,4,,,,,,,,2,,,,84,64
119400,note_on,40,0,4,,,,,,,,2,,,,81,61
119400,note_on,40,0,3,,,,,,,,1,,,,81,77
119400,note_on,160,0,8,,,,,,,,6,,,,45,92
119400,note_on,160,0,13,,,,,,,,12,,,,45,92
119480,note_off,80,0,3,,,,,,,,1,,,,81,64
119480,note_off,80,0,4,,,,,,,,2,,,,81,64
119480,note_off,80,0,8,,,,,,,,6,,,,45,64
119480,note_off,80,0,13,,,,,,,,12,,,,45,64
119520,note_on,40,0,4,,,,,,,,2,,,,77,62
119520,note_on,40,0,3,,,,,,,,1,,,,77,78
119600,note_off,80,0,4,,,,,,,,2,,,,77,64
119600,note_off,80,0,3,,,,,,,,1,,,,77,64
119640,note_on,160,0,13,,,,,,,,12,,,,45,92
119640,note_on,40,0,4,,,,,,,,2,,,,89,63
119640,note_on,40,0,3,,,,,,,,1,,,,89,79
119640,note_on,160,0,8,,,,,,,,6,,,,45,92
119720,note_off,80,0,8,,,,,,,,6,,,,45,64
119720,note_off,80,0,4,,,,,,,,2,,,,89,64
119720,note_off,80,0,3,,,,,,,,1,,,,89,64
119720,note_off,80,0,13,,,,,,,,12,,,,45,64
119760,note_on,40,0,4,,,,,,,,2,,,,84,64
119760,note_on,40,0,3,,,,,,,,1,,,,84,80
119840,note_off,80,0,3,,,,,,,,1,,,,84,64
119840,note_off,80,0,4,,,,,,,,2,,,,84,64
119880,note_on,160,0,8,,,,,,,,6,,,,57,92
119880,note_on,40,0,4,,,,,,,,2,,,,81,65
119880,note_on,40,0,3,,,,,,,,1,,,,81,81
119880,note_on,160,0,13,,,,,,,,12,,,,57,92
119960,note_off,80,0,4,,,,,,,,2,,,,81,64
119960,note_off,80,0,13,,,,,,,,12,,,,57,64
119960,note_off,80,0,3,,,,,,,,1,,,,81,64
119960,note_off,80,0,8,,,,,,,,6,,,,57,64
120000,note_on,40,0,4,,,,,,,,2,,,,77,66
120000,note_on,40,0,3,,,,,,,,1,,,,77,82
120080,note_off,80,0,3,,,,,,,,1,,,,77,64
120080,note_off,80,0,4,,,,,,,,2,,,,77,64
120120,note_on,40,0,3,,,,,,,,1,,,,79,83
120120,note_on,160,0,13,,,,,,,,12,,,,46,92
120120,note_on,160,0,8,,,,,,,,6,,,,46,92
120120,note_on,40,0,4,,,,,,,,2,,,,79,67
120240,note_off,120,0,3,,,,,,,,1,,,,79,64
120240,note_on,0,0,4,,,,,,,,2,,,,82,68
120240,note_off,120,0,4,,,,,,,,2,,,,79,64
120240,note_on,0,0,3,,,,,,,,1,,,,82,84
120355,note_off,115,0,3,,,,,,,,1,,,,82,64
120355,note_off,115,0,4,,,,,,,,2,,,,82,64
120360,note_on,5,0,3,,,,,,,,1,,,,82,85
120360,note_on,5,0,4,,,,,,,,2,,,,82,69
120480,note_on,0,0,4,,,,,,,,2,,,,84,70
120480,note_off,120,0,4,,,,,,,,2,,,,82,64
120480,note_on,0,0,3,,,,,,,,1,,,,84,86
120480,note_off,120,0,3,,,,,,,,1,,,,82,64
120520,note_off,400,0,13,,,,,,,,12,,,,46,64
120520,note_off,400,0,8,,,,,,,,6,,,,46,64
120595,note_off,115,0,4,,,,,,,,2,,,,84,64
120595,note_off,115,0,3,,,,,,,,1,,,,84,64
120600,note_on,5,0,4,,,,,,,,2,,,,84,71
120600,note_on,5,0,3,,,,,,,,1,,,,84,87
120720,note_on,0,0,4,,,,,,,,2,,,,86,72
120720,note_off,120,0,4,,,,,,,,2,,,,84,64
120720,note_on,0,0,3,,,,,,,,1,,,,86,88
120720,note_off,120,0,3,,,,,,,,1,,,,84,64
120835,note_off,115,0,3,,,,,,,,1,,,,86,64
120835,note_off,115,0,4,,,,,,,,2,,,,86,64
120840,note_on,5,0,4,,,,,,,,2,,,,86,73
120840,note_on,5,0,3,,,,,,,,1,,,,86,89
120960,note_on,0,0,4,,,,,,,,2,,,,87,74
120960,note_off,120,0,4,,,,,,,,2,,,,86,64
120960,note_off,120,0,3,,,,,,,,1,,,,86,64
120960,note_on,0,0,3,,,,,,,,1,,,,87,90
121075,note_off,115,0,4,,,,,,,,2,,,,87,64
121075,note_off,115,0,3,,,,,,,,1,,,,87,64
121080,note_on,5,0,4,,,,,,,,2,,,,87,75
121080,note_on,5,0,3,,,,,,,,1,,,,87,91
121200,note_on,0,0,3,,,,,,,,1,,,,89,92
121200,note_off,120,0,3,,,,,,,,1,,,,87,64
121200,note_on,0,0,4,,,,,,,,2,,,,89,76
121200,note_off,120,0,4,,,,,,,,2,,,,87,64
121315,note_off,115,0,4,,,,,,,,2,,,,89,64
121315,note_off,115,0,3,,,,,,,,1,,,,89,64
121320,note_on,5,0,3,,,,,,,,1,,,,89,93
121320,note_on,5,0,4,,,,,,,,2,,,,89,77
121440,note_off,120,0,4,,,,,,,,2,,,,89,64
121440,note_on,0,0,4,,,,,,,,2,,,,91,78
121440,note_on,0,0,3,,,,,,,,1,,,,91,94
121440,note_off,120,0,3,,,,,,,,1,,,,89,64
121555,note_off,115,0,3,,,,,,,,1,,,,91,64
121555,note_off,115,0,4,,,,,,,,2,,,,91,64
121560,note_on,1040,0,13,,,,,,,,12,,,,47,92
121560,note_on,5,0,3,,,,,,,,1,,,,91,95
121560,note_on,5,0,4,,,,,,,,2,,,,91,79
121560,note_on,1040,0,8,,,,,,,,6,,,,47,92
121640,note_off,80,0,13,,,,,,,,12,,,,47,64
121640,note_off,80,0,3,,,,,,,,1,,,,91,64
121640,note_off,80,0,4,,,,,,,,2,,,,91,64
121640,note_off,80,0,8,,,,,,,,6,,,,47,64
121680,note_on,40,0,3,,,,,,,,1,,,,86,96
121680,note_on,40,0,4,,,,,,,,2,,,,86,80
121760,note_off,80,0,3,,,,,,,,1,,,,86,64
121760,note_off,80,0,4,,,,,,,,2,,,,86,64
121800,note_on,160,0,13,,,,,,,,12,,,,59,92
121800,note_on,40,0,3,,,,,,,,1,,,,83,97
121800,note_on,40,0,4,,,,,,,,2,,,,83,81
121800,note_on,160,0,8,,,,,,,,6,,,,59,92
121880,note_off,80,0,4,,,,,,,,2,,,,83,64
121880,note_off,80,0,3,,,,,,,,1,,,,83,64
121920,note_on,40,0,3,,,,,,,,1,,,,79,98
121920,note_on,40,0,4,,,,,,,,2,,,,79,82
121920,note_on,0,0,8,,,,,,,,6,,,,57,92
121920,note_off,120,0,8,,,,,,,,6,,,,59,64
121920,note_off,120,0,13,,,,,,,,12,,,,59,64
121920,note_on,0,0,13,,,,,,,,12,,,,57,92
122000,note_off,80,0,4,,,,,,,,2,,,,79,64
122000,note_off,80,0,8,,,,,,,,6,,,,57,64
122000,note_off,80,0,13,,,,,,,,12,,,,57,64
122000,note_off,80,0,3,,,,,,,,1,,,,79,64
122040,note_on,40,0,13,,,,,,,,12,,,,59,92
122040,note_on,40,0,4,,,,,,,,2,,,,91,83
122040,note_on,40,0,8,,,,,,,,6,,,,59,92
122040,note_on,40,0,3,,,,,,,,1,,,,91,99
122120,note_off,80,0,8,,,,,,,,6,,,,59,64
122120,note_off,80,0,13,,,,,,,,12,,,,59,64
122120,note_off,80,0,3,,,,,,,,1,,,,91,64
122120,note_off,80,0,4,,,,,,,,2,,,,91,64
122160,note_on,40,0,3,,,,,,,,1,,,,86,100
122160,note_on,40,0,4,,,,,,,,2,,,,86,84
122240,note_off,80,0,3,,,,,,,,1,,,,86,64
122240,note_off,80,0,4,,,,,,,,2,,,,86,64
122280,note_on,160,0,8,,,,,,,,6,,,,47,92
122280,note_on,160,0,13,,,,,,,,12,,,,47,92
122280,note_on,40,0,3,,,,,,,,1,,,,83,101
122280,note_on,40,0,4,,,,,,,,2,,,,83,85
122360,note_off,80,0,4,,,,,,,,2,,,,83,64
122360,note_off,80,0,8,,,,,,,,6,,,,47,64
122360,note_off,80,0,13,,,,,,,,12,,,,47,64
122360,note_off,80,0,3,,,,,,,,1,,,,83,64
122400,note_on,40,0,4,,,,,,,,2,,,,79,86
122400,note_on,40,0,3,,,,,,,,1,,,,79,102
122480,note_off,80,0,3,,,,,,,,1,,,,79,64
122480,note_off,80,0,4,,,,,,,,2,,,,79,64
122520,note_on,40,0,3,,,,,,,,1,,,,91,103
122520,note_on,40,0,4,,,,,,,,2,,,,91,87
122520,note_on,160,0,13,,,,,,,,12,,,,47,92
122520,note_on,160,0,8,,,,,,,,6,,,,47,92
122600,note_off,80,0,4,,,,,,,,2,,,,91,64
122600,note_off,80,0,13,,,,,,,,12,,,,47,64
122600,note_off,80,0,3,,,,,,,,1,,,,91,64
122600,note_off,80,0,8,,,,,,,,6,,,,47,64
122640,note_on,40,0,4,,,,,,,,2,,,,86,88
122640,note_on,40,0,3,,,,,,,,1,,,,86,104
122720,note_off,80,0,4,,,,,,,,2,,,,86,64
122720,note_off,80,0,3,,,,,,,,1,,,,86,64
122760,note_on,40,0,4,,,,,,,,2,,,,83,89
122760,note_on,40,0,3,,,,,,,,1,,,,83,105
122760,note_on,160,0,13,,,,,,,,12,,,,59,92
122760,note_on,160,0,8,,,,,,,,6,,,,59,92
122840,note_off,80,0,13,,,,,,,,12,,,,59,64
122840,note_off,80,0,8,,,,,,,,6,,,,59,64
122840,note_off,80,0,3,,,,,,,,1,,,,83,64
122840,note_off,80,0,4,,,,,,,,2,,,,83,64
122880,note_on,40,0,4,,,,,,,,2,,,,79,90
122880,note_on,40,0,3,,,,,,,,1,,,,79,106
122960,note_off,80,0,3,,,,,,,,1,,,,79,64
122960,note_off,80,0,4,,,,,,,,2,,,,79,64
123000,note_on,160,0,8,,,,,,,,6,,,,48,92
123000,note_on,160,0,13,,,,,,,,12,,,,48,92
123000,note_on,16240,0,10,,,,,,,,8,,,,60,92
123000,note_on,16240,0,14,,,,,,,,13,,,,36,92
123000,note_on,40,0,3,,,,,,,,1,,,,87,108
123000,note_on,15920,0,15,,,,,,,,14,,,,36,60
123000,note_on,16240,0,5,,,,,,,,3,,,,60,127
123000,note_on,40,0,4,,,,,,,,2,,,,87,92
123080,note_off,80,0,4,,,,,,,,2,,,,87,64
123080,note_off,80,0,3,,,,,,,,1,,,,87,64
123080,note_off,80,0,8,,,,,,,,6,,,,48,64
123115,note_off,115,0,10,,,,,,,,8,,,,60,64
123115,note_off,115,0,5,,,,,,,,3,,,,60,64
123120,note_on,5,0,5,,,,,,,,3,,,,60,92
123120,note_on,5,0,10,,,,,,,,8,,,,60,92
123235,note_off,115,0,10,,,,,,,,8,,,,60,64
123235,note_off,115,0,5,,,,,,,,3,,,,60,64
123235,note_off,235,0,13,,,,,,,,12,,,,48,64
123235,note_off,235,0,14,,,,,,,,13,,,,36,64
123240,note_on,5,0,10,,,,,,,,8,,,,60,92
123240,note_on,160,0,8,,,,,,,,6,,,,48,92
123240,note_on,5,0,14,,,,,,,,13,,,,36,92
123240,note_on,5,0,13,,,,,,,,12,,,,48,92
123240,note_on,5,0,5,,,,,,,,3,,,,60,92
123320,note_off,80,0,8,,,,,,,,6,,,,48,64
123355,note_off,115,0,10,,,,,,,,8,,,,60,64
123355,note_off,115,0,5,,,,,,,,3,,,,60,64
123360,note_on,5,0,10,,,,,,,,8,,,,60,92
123360,note_on,5,0,5,,,,,,,,3,,,,60,92
123400,note_off,400,0,15,,,,,,,,14,,,,36,64
123475,note_off,115,0,5,,,,,,,,3,,,,60,64
123475,note_off,115,0,10,,,,,,,,8,,,,60,64
123475,note_off,235,0,13,,,,,,,,12,,,,48,64
123475,note_off,235,0,14,,,,,,,,13,,,,36,64
123480,note_on,5,0,14,,,,,,,,13,,,,36,92
123480,note_on,160,0,8,,,,,,,,6,,,,48,92
123480,note_on,80,0,15,,,,,,,,14,,,,36,60
123480,note_on,5,0,5,,,,,,,,3,,,,60,92
123480,note_on,5,0,13,,,,,,,,12,,,,48,92
123480,note_on,5,0,10,,,,,,,,8,,,,60,92
123560,note_off,80,0,8,,,,,,,,6,,,,48,64
123595,note_off,115,0,10,,,,,,,,8,,,,60,64
123595,note_off,115,0,5,,,,,,,,3,,,,60,64
123600,note_on,5,0,5,,,,,,,,3,,,,60,92
123600,note_on,5,0,10,,,,,,,,8,,,,60,92
123715,note_off,115,0,5,,,,,,,,3,,,,60,64
123715,note_off,235,0,14,,,,,,,,13,,,,36,64
123715,note_off,235,0,13,,,,,,,,12,,,,48,64
123715,note_off,115,0,10,,,,,,,,8,,,,60,64
123720,note_on,5,0,13,,,,,,,,12,,,,48,92
123720,note_on,5,0,5,,,,,,,,3,,,,60,92
123720,note_on,5,0,14,,,,,,,,13,,,,36,92
123720,note_on,160,0,8,,,,,,,,6,,,,48,92
123720,note_on,5,0,10,,,,,,,,8,,,,60,92
123800,note_off,80,0,8,,,,,,,,6,,,,48,64
123835,note_off,115,0,5,,,,,,,,3,,,,60,64
123835,note_off,115,0,10,,,,,,,,8,,,,60,64
123840,note_on,5,0,5,,,,,,,,3,,,,60,92
123840,note_on,5,0,10,,,,,,,,8,,,,60,92
123880,note_off,400,0,15,,,,,,,,14,,,,36,64
123955,note_off,235,0,13,,,,,,,,12,,,,48,64
123955,note_off,115,0,5,,,,,,,,3,,,,60,64
123955,note_off,115,0,10,,,,,,,,8,,,,60,64
123955,note_off,235,0,14,,,,,,,,13,,,,36,64
123960,note_on,160,0,8,,,,,,,,6,,,,48,92
123960,note_on,5,0,5,,,,,,,,3,,,,60,92
123960,note_on,5,0,10,,,,,,,,8,,,,60,92
123960,note_on,80,0,15,,,,,,,,14,,,,36,60
123960,note_on,5,0,13,,,,,,,,12,,,,48,92
123960,note_on,5,0,14,,,,,,,,13,,,,36,92
124040,note_off,80,0,8,,,,,,,,6,,,,48,64
124075,note_off,115,0,10,,,,,,,,8,,,,60,64
124075,note_off,115,0,5,,,,,,,,3,,,,60,64
124080,note_on,5,0,10,,,,,,,,8,,,,60,92
124080,note_on,5,0,5,,,,,,,,3,,,,60,92
124195,note_off,235,0,14,,,,,,,,13,,,,36,64
124195,note_off,235,0,13,,,,,,,,12,,,,48,64
124195,note_off,115,0,5,,,,,,,,3,,,,60,64
124195,note_off,115,0,10,,,,,,,,8,,,,60,64
124200,note_on,5,0,14,,,,,,,,13,,,,36,92
124200,note_on,160,0,8,,,,,,,,6,,,,48,92
124200,note_on,5,0,10,,,,,,,,8,,,,60,92
124200,note_on,5,0,5,,,,,,,,3,,,,60,92
124200,note_on,5,0,13,,,,,,,,12,,,,48,92
124280,note_off,80,0,8,,,,,,,,6,,,,48,64
124315,note_off,115,0,10,,,,,,,,8,,,,60,64
124315,note_off,115,0,5,,,,,,,,3,,,,60,64
124320,note_on,5,0,10,,,,,,,,8,,,,60,92
124320,note_on,5,0,5,,,,,,,,3,,,,60,92
124360,note_off,400,0,15,,,,,,,,14,,,,36,64
124435,note_off,235,0,14,,,,,,,,13,,,,36,64
124435,note_off,115,0,10,,,,,,,,8,,,,60,64
124435,note_off,115,0,5,,,,,,,,3,,,,60,64
124435,note_off,235,0,13,,,,,,,,12,,,,48,64
124440,note_on,160,0,8,,,,,,,,6,,,,56,92
124440,note_on,5,0,10,,,,,,,,8,,,,68,92
124440,note_on,5,0,13,,,,,,,,12,,,,56,92
124440,note_on,80,0,15,,,,,,,,14,,,,36,60
124440,note_on,5,0,5,,,,,,,,3,,,,68,127
124520,note_off,80,0,8,,,,,,,,6,,,,56,64
124520,note_off,80,0,13,,,,,,,,12,,,,56,64
124555,note_off,115,0,5,,,,,,,,3,,,,68,64
124555,note_off,115,0,10,,,,,,,,8,,,,68,64
124560,note_on,5,0,5,,,,,,,,3,,,,60,92
124560,note_on,5,0,10,,,,,,,,8,,,,60,92
124675,note_off,115,0,10,,,,,,,,8,,,,60,64
124675,note_off,115,0,5,,,,,,,,3,,,,60,64
124680,note_on,5,0,5,,,,,,,,3,,,,60,92
124680,note_on,160,0,8,,,,,,,,6,,,,48,92
124680,note_on,5,0,10,,,,,,,,8,,,,60,92
124680,note_on,160,0,13,,,,,,,,12,,,,48,92
124760,note_off,80,0,8,,,,,,,,6,,,,48,64
124760,note_off,80,0,13,,,,,,,,12,,,,48,64
124795,note_off,115,0,10,,,,,,,,8,,,,60,64
124795,note_off,115,0,5,,,,,,,,3,,,,60,64
124800,note_on,5,0,5,,,,,,,,3,,,,60,92
124800,note_on,5,0,10,,,,,,,,8,,,,60,92
124840,note_off,400,0,15,,,,,,,,14,,,,36,64
124915,note_off,115,0,5,,,,,,,,3,,,,60,64
124915,note_off,115,0,10,,,,,,,,8,,,,60,64
124920,note_on,5,0,10,,,,,,,,8,,,,68,92
124920,note_on,5,0,5,,,,,,,,3,,,,68,127
124920,note_on,80,0,15,,,,,,,,14,,,,36,60
124920,note_on,160,0,13,,,,,,,,12,,,,56,92
124920,note_on,160,0,8,,,,,,,,6,,,,56,92
125000,note_off,80,0,8,,,,,,,,6,,,,56,64
125000,note_off,80,0,13,,,,,,,,12,,,,56,64
125035,note_off,115,0,5,,,,,,,,3,,,,68,64
125035,note_off,115,0,10,,,,,,,,8,,,,68,64
125040,note_on,5,0,5,,,,,,,,3,,,,60,92
125040,note_on,5,0,10,,,,,,,,8,,,,60,92
125155,note_off,115,0,10,,,,,,,,8,,,,60,64
125155,note_off,115,0,5,,,,,,,,3,,,,60,64
125160,note_on,160,0,13,,,,,,,,12,,,,48,92
125160,note_on,5,0,10,,,,,,,,8,,,,60,92
125160,note_on,160,0,8,,,,,,,,6,,,,48,92
125160,note_on,5,0,5,,,,,,,,3,,,,60,92
125240,note_off,80,0,13,,,,,,,,12,,,,48,64
125240,note_off,80,0,8,,,,,,,,6,,,,48,64
125275,note_off,115,0,10,,,,,,,,8,,,,60,64
125275,note_off,115,0,5,,,,,,,,3,,,,60,64
125280,note_on,5,0,10,,,,,,,,8,,,,60,92
125280,note_on,5,0,5,,,,,,,,3,,,,60,92
125320,note_off,400,0,15,,,,,,,,14,,,,36,64
125395,note_off,115,0,10,,,,,,,,8,,,,60,64
125395,note_off,115,0,5,,,,,,,,3,,,,60,64
125400,note_on,5,0,10,,,,,,,,8,,,,68,92
125400,note_on,80,0,15,,,,,,,,14,,,,36,60
125400,note_on,5,0,5,,,,,,,,3,,,,68,127
125400,note_on,160,0,13,,,,,,,,12,,,,56,92
125400,note_on,160,0,8,,,,,,,,6,,,,56,92
125480,note_off,80,0,8,,,,,,,,6,,,,56,64
125480,note_off,80,0,13,,,,,,,,12,,,,56,64
125515,note_off,115,0,5,,,,,,,,3,,,,68,64
125515,note_off,115,0,10,,,,,,,,8,,,,68,64
125520,note_on,5,0,5,,,,,,,,3,,,,60,92
125520,note_on,5,0,10,,,,,,,,8,,,,60,92
125635,note_off,115,0,10,,,,,,,,8,,,,60,64
125635,note_off,115,0,5,,,,,,,,3,,,,60,64
125640,note_on,5,0,5,,,,,,,,3,,,,60,92
125640,note_on,5,0,10,,,,,,,,8,,,,60,92
125640,note_on,160,0,13,,,,,,,,12,,,,48,92
125640,note_on,160,0,8,,,,,,,,6,,,,48,92
125720,note_off,80,0,13,,,,,,,,12,,,,48,64
125720,note_off,80,0,8,,,,,,,,6,,,,48,64
125755,note_off,115,0,10,,,,,,,,8,,,,60,64
125755,note_off,115,0,5,,,,,,,,3,,,,60,64
125760,note_on,5,0,5,,,,,,,,3,,,,60,92
125760,note_on,5,0,10,,,,,,,,8,,,,60,92
125800,note_off,400,0,15,,,,,,,,14,,,,36,64
125875,note_off,115,0,5,,,,,,,,3,,,,60,64
125875,note_off,115,0,10,,,,,,,,8,,,,60,64
125880,note_on,160,0,13,,,,,,,,12,,,,47,92
125880,note_on,160,0,8,,,,,,,,6,,,,47,92
125880,note_on,5,0,10,,,,,,,,8,,,,59,92
125880,note_on,5,0,5,,,,,,,,3,,,,59,127
125880,note_on,80,0,15,,,,,,,,14,,,,35,60
125960,note_off,80,0,8,,,,,,,,6,,,,47,64
125960,note_off,80,0,13,,,,,,,,12,,,,47,64
125995,note_off,115,0,5,,,,,,,,3,,,,59,64
125995,note_off,115,0,10,,,,,,,,8,,,,59,64
126000,note_on,5,0,5,,,,,,,,3,,,,59,92
126000,note_on,5,0,10,,,,,,,,8,,,,59,92
126115,note_off,115,0,5,,,,,,,,3,,,,59,64
126115,note_off,115,0,10,,,,,,,,8,,,,59,64
126120,note_on,160,0,8,,,,,,,,6,,,,47,92
126120,note_on,5,0,10,,,,,,,,8,,,,59,92
126120,note_on,160,0,13,,,,,,,,12,,,,47,92
126120,note_on,5,0,5,,,,,,,,3,,,,59,92
126200,note_off,80,0,13,,,,,,,,12,,,,47,64
126200,note_off,80,0,8,,,,,,,,6,,,,47,64
126235,note_off,115,0,5,,,,,,,,3,,,,59,64
126235,note_off,115,0,10,,,,,,,,8,,,,59,64
126240,note_on,5,0,5,,,,,,,,3,,,,59,92
126240,note_on,5,0,10,,,,,,,,8,,,,59,92
126280,note_off,400,0,15,,,,,,,,14,,,,35,64
126355,note_off,115,0,10,,,,,,,,8,,,,59,64
126355,note_off,115,0,5,,,,,,,,3,,,,59,64
126360,note_on,5,0,10,,,,,,,,8,,,,59,92
126360,note_on,160,0,8,,,,,,,,6,,,,47,92
126360,note_on,160,0,13,,,,,,,,12,,,,47,92
126360,note_on,5,0,5,,,,,,,,3,,,,59,92
126360,note_on,80,0,15,,,,,,,,14,,,,35,60
126440,note_off,80,0,8,,,,,,,,6,,,,47,64
126440,note_off,80,0,13,,,,,,,,12,,,,47,64
126475,note_off,115,0,10,,,,,,,,8,,,,59,64
126475,note_off,115,0,5,,,,,,,,3,,,,59,64
126480,note_on,5,0,5,,,,,,,,3,,,,59,92
126480,note_on,5,0,10,,,,,,,,8,,,,59,92
126595,note_off,115,0,10,,,,,,,,8,,,,59,64
126595,note_off,115,0,5,,,,,,,,3,,,,59,64
126600,note_on,5,0,5,,,,,,,,3,,,,59,92
126600,note_on,160,0,13,,,,,,,,12,,,,47,92
126600,note_on,5,0,10,,,,,,,,8,,,,59,92
126600,note_on,160,0,8,,,,,,,,6,,,,47,92
126680,note_off,80,0,8,,,,,,,,6,,,,47,64
126680,note_off,80,0,13,,,,,,,,12,,,,47,64
126715,note_off,115,0,10,,,,,,,,8,,,,59,64
126715,note_off,115,0,5,,,,,,,,3,,,,59,64
126720,note_on,5,0,10,,,,,,,,8,,,,59,92
126720,note_on,5,0,5,,,,,,,,3,,,,59,92
126760,note_off,400,0,15,,,,,,,,14,,,,35,64
126835,note_off,115,0,5,,,,,,,,3,,,,59,64
126835,note_off,115,0,10,,,,,,,,8,,,,59,64
126840,note_on,160,0,8,,,,,,,,6,,,,47,92
126840,note_on,80,0,15,,,,,,,,14,,,,35,60
126840,note_on,160,0,13,,,,,,,,12,,,,47,92
126840,note_on,5,0,5,,,,,,,,3,,,,59,92
126840,note_on,5,0,10,,,,,,,,8,,,,59,92
126920,note_off,80,0,8,,,,,,,,6,,,,47,64
126920,note_off,80,0,13,,,,,,,,12,,,,47,64
126955,note_off,115,0,5,,,,,,,,3,,,,59,64
126955,note_off,115,0,10,,,,,,,,8,,,,59,64
126960,note_on,5,0,5,,,,,,,,3,,,,59,92
126960,note_on,5,0,10,,,,,,,,8,,,,59,92
127075,note_off,115,0,5,,,,,,,,3,,,,59,64
127075,note_off,115,0,10,,,,,,,,8,,,,59,64
127080,note_on,160,0,13,,,,,,,,12,,,,47,92
127080,note_on,5,0,10,,,,,,,,8,,,,59,92
127080,note_on,160,0,8,,,,,,,,6,,,,47,92
127080,note_on,5,0,5,,,,,,,,3,,,,59,92
127160,note_off,80,0,8,,,,,,,,6,,,,47,64
127160,note_off,80,0,13,,,,,,,,12,,,,47,64
127195,note_off,115,0,5,,,,,,,,3,,,,59,64
127195,note_off,115,0,10,,,,,,,,8,,,,59,64
127200,note_on,5,0,5,,,,,,,,3,,,,59,92
127200,note_on,5,0,10,,,,,,,,8,,,,59,92
127240,note_off,400,0,15,,,,,,,,14,,,,35,64
127315,note_off,115,0,10,,,,,,,,8,,,,59,64
127315,note_off,115,0,5,,,,,,,,3,,,,59,64
127320,note_on,160,0,8,,,,,,,,6,,,,55,92
127320,note_on,80,0,15,,,,,,,,14,,,,34,60
127320,note_on,160,0,13,,,,,,,,12,,,,55,92
127320,note_on,5,0,5,,,,,,,,3,,,,67,127
127320,note_on,5,0,10,,,,,,,,8,,,,67,92
127400,note_off,80,0,13,,,,,,,,12,,,,55,64
127400,note_off,80,0,8,,,,,,,,6,,,,55,64
127435,note_off,115,0,10,,,,,,,,8,,,,67,64
127435,note_off,115,0,5,,,,,,,,3,,,,67,64
127440,note_on,5,0,10,,,,,,,,8,,,,58,92
127440,note_on,5,0,5,,,,,,,,3,,,,58,92
127555,note_off,115,0,5,,,,,,,,3,,,,58,64
127555,note_off,115,0,10,,,,,,,,8,,,,58,64
127560,note_on,5,0,5,,,,,,,,3,,,,58,92
127560,note_on,5,0,10,,,,,,,,8,,,,58,92
127560,note_on,160,0,13,,,,,,,,12,,,,46,92
127560,note_on,160,0,8,,,,,,,,6,,,,46,92
127640,note_off,80,0,13,,,,,,,,12,,,,46,64
127640,note_off,80,0,8,,,,,,,,6,,,,46,64
127675,note_off,115,0,10,,,,,,,,8,,,,58,64
127675,note_off,115,0,5,,,,,,,,3,,,,58,64
127680,note_on,5,0,10,,,,,,,,8,,,,58,92
127680,note_on,5,0,5,,,,,,,,3,,,,58,92
127720,note_off,400,0,15,,,,,,,,14,,,,34,64
127795,note_off,115,0,5,,,,,,,,3,,,,58,64
127795,note_off,115,0,10,,,,,,,,8,,,,58,64
127800,note_on,160,0,13,,,,,,,,12,,,,55,92
127800,note_on,5,0,10,,,,,,,,8,,,,67,92
127800,note_on,160,0,8,,,,,,,,6,,,,55,92
127800,note_on,80,0,15,,,,,,,,14,,,,34,60
127800,note_on,5,0,5,,,,,,,,3,,,,67,127
127880,note_off,80,0,8,,,,,,,,6,,,,55,64
127880,note_off,80,0,13,,,,,,,,12,,,,55,64
127915,note_off,115,0,5,,,,,,,,3,,,,67,64
127915,note_off,115,0,10,,,,,,,,8,,,,67,64
127920,note_on,5,0,5,,,,,,,,3,,,,58,92
127920,note_on,5,0,10,,,,,,,,8,,,,58,92
128035,note_off,115,0,5,,,,,,,,3,,,,58,64
128035,note_off,115,0,10,,,,,,,,8,,,,58,64
128040,note_on,160,0,8,,,,,,,,6,,,,46,92
128040,note_on,160,0,13,,,,,,,,12,,,,46,92
128040,note_on,5,0,10,,,,,,,,8,,,,58,92
128040,note_on,5,0,5,,,,,,,,3,,,,58,92
128120,note_off,80,0,13,,,,,,,,12,,,,46,64
128120,note_off,80,0,8,,,,,,,,6,,,,46,64
128155,note_off,115,0,10,,,,,,,,8,,,,58,64
128155,note_off,115,0,5,,,,,,,,3,,,,58,64
128160,note_on,5,0,5,,,,,,,,3,,,,58,92
128160,note_on,5,0,10,,,,,,,,8,,,,58,92
128200,note_off,400,0,15,,,,,,,,14,,,,34,64
128275,note_off,115,0,10,,,,,,,,8,,,,58,64
128275,note_off,115,0,5,,,,,,,,3,,,,58,64
128280,note_on,80,0,15,,,,,,,,14,,,,34,60
128280,note_on,160,0,8,,,,,,,,6,,,,55,92
128280,note_on,5,0,10,,,,,,,,8,,,,67,92
128280,note_on,5,0,5,,,,,,,,3,,,,67,92
128280,note_on,160,0,13,,,,,,,,12,,,,55,92
128360,note_off,80,0,13,,,,,,,,12,,,,55,64
128360,note_off,80,0,8,,,,,,,,6,,,,55,64
128395,note_off,115,0,5,,,,,,,,3,,,,67,64
128395,note_off,115,0,10,,,,,,,,8,,,,67,64
128400,note_on,5,0,10,,,,,,,,8,,,,58,92
128400,note_on,5,0,5,,,,,,,,3,,,,58,92
128515,note_off,115,0,10,,,,,,,,8,,,,58,64
128515,note_off,115,0,5,,,,,,,,3,,,,58,64
128520,note_on,160,0,8,,,,,,,,6,,,,46,92
128520,note_on,160,0,13,,,,,,,,12,,,,46,92
128520,note_on,5,0,10,,,,,,,,8,,,,58,92
128520,note_on,5,0,5,,,,,,,,3,,,,58,92
128600,note_off,80,0,13,,,,,,,,12,,,,46,64
128600,note_off,80,0,8,,,,,,,,6,,,,46,64
128635,note_off,115,0,5,,,,,,,,3,,,,58,64
128635,note_off,115,0,10,,,,,,,,8,,,,58,64
128640,note_on,5,0,5,,,,,,,,3,,,,58,92
128640,note_on,5,0,10,,,,,,,,8,,,,58,92
128680,note_off,400,0,15,,,,,,,,14,,,,34,64
128755,note_off,115,0,5,,,,,,,,3,,,,58,64
128755,note_off,115,0,10,,,,,,,,8,,,,58,64
128760,note_on,5,0,5,,,,,,,,3,,,,57,127
128760,note_on,160,0,8,,,,,,,,6,,,,45,92
128760,note_on,80,0,15,,,,,,,,14,,,,33,60
128760,note_on,160,0,13,,,,,,,,12,,,,45,92
128760,note_on,5,0,10,,,,,,,,8,,,,57,92
128840,note_off,80,0,8,,,,,,,,6,,,,45,64
128840,note_off,80,0,13,,,,,,,,12,,,,45,64
128875,note_off,115,0,5,,,,,,,,3,,,,57,64
128875,note_off,115,0,10,,,,,,,,8,,,,57,64
128880,note_on,5,0,10,,,,,,,,8,,,,57,92
128880,note_on,5,0,5,,,,,,,,3,,,,57,92
128995,note_off,115,0,5,,,,,,,,3,,,,57,64
128995,note_off,115,0,10,,,,,,,,8,,,,57,64
129000,note_on,160,0,8,,,,,,,,6,,,,45,92
129000,note_on,5,0,5,,,,,,,,3,,,,57,92
129000,note_on,160,0,13,,,,,,,,12,,,,45,92
129000,note_on,5,0,10,,,,,,,,8,,,,57,92
129080,note_off,80,0,13,,,,,,,,12,,,,45,64
129080,note_off,80,0,8,,,,,,,,6,,,,45,64
129115,note_off,115,0,10,,,,,,,,8,,,,57,64
129115,note_off,115,0,5,,,,,,,,3,,,,57,64
129120,note_on,5,0,10,,,,,,,,8,,,,57,92
129120,note_on,5,0,5,,,,,,,,3,,,,57,92
129160,note_off,400,0,15,,,,,,,,14,,,,33,64
129235,note_off,115,0,10,,,,,,,,8,,,,57,64
129235,note_off,115,0,5,,,,,,,,3,,,,57,64
129240,note_on,160,0,13,,,,,,,,12,,,,45,92
129240,note_on,80,0,15,,,,,,,,14,,,,33,60
129240,note_on,5,0,5,,,,,,,,3,,,,57,92
129240,note_on,160,0,8,,,,,,,,6,,,,45,92
129240,note_on,5,0,10,,,,,,,,8,,,,57,92
129320,note_off,80,0,8,,,,,,,,6,,,,45,64
129320,note_off,80,0,13,,,,,,,,12,,,,45,64
129355,note_off,115,0,10,,,,,,,,8,,,,57,64
129355,note_off,115,0,5,,,,,,,,3,,,,57,64
129360,note_on,5,0,5,,,,,,,,3,,,,57,92
129360,note_on,5,0,10,,,,,,,,8,,,,57,92
129475,note_off,115,0,10,,,,,,,,8,,,,57,64
129475,note_off,115,0,5,,,,,,,,3,,,,57,64
129480,note_on,5,0,5,,,,,,,,3,,,,57,92
129480,note_on,160,0,8,,,,,,,,6,,,,45,92
129480,note_on,5,0,10,,,,,,,,8,,,,57,92
129480,note_on,160,0,13,,,,,,,,12,,,,45,92
129560,note_off,80,0,13,,,,,,,,12,,,,45,64
129560,note_off,80,0,8,,,,,,,,6,,,,45,64
129595,note_off,115,0,5,,,,,,,,3,,,,57,64
129595,note_off,115,0,10,,,,,,,,8,,,,57,64
129600,note_on,5,0,5,,,,,,,,3,,,,57,92
129600,note_on,5,0,10,,,,,,,,8,,,,57,92
129640,note_off,400,0,15,,,,,,,,14,,,,33,64
129715,note_off,115,0,5,,,,,,,,3,,,,57,64
129715,note_off,115,0,10,,,,,,,,8,,,,57,64
129720,note_on,160,0,8,,,,,,,,6,,,,45,92
129720,note_on,5,0,5,,,,,,,,3,,,,57,92
129720,note_on,160,0,13,,,,,,,,12,,,,45,92
129720,note_on,5,0,10,,,,,,,,8,,,,57,92
129720,note_on,80,0,15,,,,,,,,14,,,,33,60
129800,note_off,80,0,8,,,,,,,,6,,,,45,64
129800,note_off,80,0,13,,,,,,,,12,,,,45,64
129835,note_off,115,0,10,,,,,,,,8,,,,57,64
129835,note_off,115,0,5,,,,,,,,3,,,,57,64
129840,note_on,5,0,5,,,,,,,,3,,,,57,92
129840,note_on,5,0,10,,,,,,,,8,,,,57,92
129955,note_off,115,0,10,,,,,,,,8,,,,57,64
129955,note_off,115,0,5,,,,,,,,3,,,,57,64
129960,note_on,160,0,8,,,,,,,,6,,,,45,92
129960,note_on,160,0,13,,,,,,,,12,,,,45,92
129960,note_on,5,0,10,,,,,,,,8,,,,57,92
129960,note_on,5,0,5,,,,,,,,3,,,,57,92
130040,note_off,80,0,13,,,,,,,,12,,,,45,64
130040,note_off,80,0,8,,,,,,,,6,,,,45,64
130075,note_off,115,0,10,,,,,,,,8,,,,57,64
130075,note_off,115,0,5,,,,,,,,3,,,,57,64
130080,note_on,5,0,5,,,,,,,,3,,,,57,92
130080,note_on,5,0,10,,,,,,,,8,,,,57,92
130120,note_off,400,0,15,,,,,,,,14,,,,33,64
130195,note_off,115,0,10,,,,,,,,8,,,,57,64
130195,note_off,115,0,5,,,,,,,,3,,,,57,64
130200,note_on,160,0,13,,,,,,,,12,,,,53,92
130200,note_on,160,0,8,,,,,,,,6,,,,53,92
130200,note_on,80,0,15,,,,,,,,14,,,,32,60
130200,note_on,5,0,5,,,,,,,,3,,,,65,127
130200,note_on,5,0,10,,,,,,,,8,,,,65,92
130280,note_off,80,0,8,,,,,,,,6,,,,53,64
130280,note_off,80,0,13,,,,,,,,12,,,,53,64
130315,note_off,115,0,5,,,,,,,,3,,,,65,64
130315,note_off,115,0,10,,,,,,,,8,,,,65,64
130320,note_on,5,0,5,,,,,,,,3,,,,56,92
130320,note_on,5,0,10,,,,,,,,8,,,,56,92
130435,note_off,115,0,5,,,,,,,,3,,,,56,64
130435,note_off,115,0,10,,,,,,,,8,,,,56,64
130440,note_on,160,0,8,,,,,,,,6,,,,44,92
130440,note_on,5,0,5,,,,,,,,3,,,,56,92
130440,note_on,5,0,10,,,,,,,,8,,,,56,92
130440,note_on,160,0,13,,,,,,,,12,,,,44,92
130520,note_off,80,0,8,,,,,,,,6,,,,44,64
130520,note_off,80,0,13,,,,,,,,12,,,,44,64
130555,note_off,115,0,10,,,,,,,,8,,,,56,64
130555,note_off,115,0,5,,,,,,,,3,,,,56,64
130560,note_on,5,0,10,,,,,,,,8,,,,56,92
130560,note_on,5,0,5,,,,,,,,3,,,,56,92
130600,note_off,400,0,15,,,,,,,,14,,,,32,64
130675,note_off,115,0,5,,,,,,,,3,,,,56,64
130675,note_off,115,0,10,,,,,,,,8,,,,56,64
130680,note_on,160,0,13,,,,,,,,12,,,,53,92
130680,note_on,5,0,5,,,,,,,,3,,,,65,127
130680,note_on,80,0,15,,,,,,,,14,,,,32,60
130680,note_on,160,0,8,,,,,,,,6,,,,53,92
130680,note_on,5,0,10,,,,,,,,8,,,,65,92
130760,note_off,80,0,13,,,,,,,,12,,,,53,64
130760,note_off,80,0,8,,,,,,,,6,,,,53,64
130795,note_off,115,0,10,,,,,,,,8,,,,65,64
130795,note_off,115,0,5,,,,,,,,3,,,,65,64
130800,note_on,5,0,10,,,,,,,,8,,,,56,92
130800,note_on,5,0,5,,,,,,,,3,,,,56,92
130915,note_off,115,0,10,,,,,,,,8,,,,56,64
130915,note_off,115,0,5,,,,,,,,3,,,,56,64
130920,note_on,5,0,5,,,,,,,,3,,,,56,92
130920,note_on,5,0,10,,,,,,,,8,,,,56,92
130920,note_on,160,0,13,,,,,,,,12,,,,44,92
130920,note_on,160,0,8,,,,,,,,6,,,,44,92
131000,note_off,80,0,13,,,,,,,,12,,,,44,64
131000,note_off,80,0,8,,,,,,,,6,,,,44,64
131035,note_off,115,0,10,,,,,,,,8,,,,56,64
131035,note_off,115,0,5,,,,,,,,3,,,,56,64
131040,note_on,5,0,10,,,,,,,,8,,,,56,92
131040,note_on,5,0,5,,,,,,,,3,,,,56,92
131080,note_off,400,0,15,,,,,,,,14,,,,32,64
131155,note_off,115,0,10,,,,,,,,8,,,,56,64
131155,note_off,115,0,5,,,,,,,,3,,,,56,64
131160,note_on,80,0,15,,,,,,,,14,,,,32,60
131160,note_on,160,0,8,,,,,,,,6,,,,53,92
131160,note_on,5,0,5,,,,,,,,3,,,,65,127
131160,note_on,5,0,10,,,,,,,,8,,,,65,92
131160,note_on,160,0,13,,,,,,,,12,,,,53,92
131240,note_off,80,0,8,,,,,,,,6,,,,53,64
131240,note_off,80,0,13,,,,,,,,12,,,,53,64
131275,note_off,115,0,10,,,,,,,,8,,,,65,64
131275,note_off,115,0,5,,,,,,,,3,,,,65,64
131280,note_on,5,0,10,,,,,,,,8,,,,56,92
131280,note_on,5,0,5,,,,,,,,3,,,,56,92
131395,note_off,115,0,10,,,,,,,,8,,,,56,64
131395,note_off,115,0,5,,,,,,,,3,,,,56,64
131400,note_on,160,0,13,,,,,,,,12,,,,44,92
131400,note_on,160,0,8,,,,,,,,6,,,,44,92
131400,note_on,5,0,5,,,,,,,,3,,,,56,92
131400,note_on,5,0,10,,,,,,,,8,,,,56,92
131480,note_off,80,0,13,,,,,,,,12,,,,44,64
131480,note_off,80,0,8,,,,,,,,6,,,,44,64
131515,note_off,115,0,10,,,,,,,,8,,,,56,64
131515,note_off,115,0,5,,,,,,,,3,,,,56,64
131520,note_on,5,0,10,,,,,,,,8,,,,56,92
131520,note_on,5,0,5,,,,,,,,3,,,,56,92
131560,note_off,400,0,15,,,,,,,,14,,,,32,64
131635,note_off,115,0,5,,,,,,,,3,,,,56,64
131635,note_off,115,0,10,,,,,,,,8,,,,56,64
131640,note_on,5,0,10,,,,,,,,8,,,,55,92
131640,note_on,80,0,15,,,,,,,,14,,,,31,60
131640,note_on,160,0,8,,,,,,,,6,,,,43,92
131640,note_on,5,0,5,,,,,,,,3,,,,55,127
131640,note_on,160,0,13,,,,,,,,12,,,,43,92
131720,note_off,80,0,13,,,,,,,,12,,,,43,64
131720,note_off,80,0,8,,,,,,,,6,,,,43,64
131755,note_off,115,0,5,,,,,,,,3,,,,55,64
131755,note_off,115,0,10,,,,,,,,8,,,,55,64
131760,note_on,5,0,10,,,,,,,,8,,,,67,92
131760,note_on,5,0,5,,,,,,,,3,,,,67,92
131875,note_off,115,0,10,,,,,,,,8,,,,67,64
131875,note_off,115,0,5,,,,,,,,3,,,,67,64
131880,note_on,5,0,5,,,,,,,,3,,,,67,92
131880,note_on,5,0,10,,,,,,,,8,,,,67,92
131880,note_on,160,0,13,,,,,,,,12,,,,43,92
131880,note_on,160,0,8,,,,,,,,6,,,,43,92
131960,note_off,80,0,8,,,,,,,,6,,,,43,64
131960,note_off,80,0,13,,,,,,,,12,,,,43,64
131995,note_off,115,0,5,,,,,,,,3,,,,67,64
131995,note_off,115,0,10,,,,,,,,8,,,,67,64
132000,note_on,5,0,5,,,,,,,,3,,,,67,92
132000,note_on,5,0,10,,,,,,,,8,,,,67,92
132040,note_off,400,0,15,,,,,,,,14,,,,31,64
132115,note_off,115,0,5,,,,,,,,3,,,,67,64
132115,note_off,115,0,10,,,,,,,,8,,,,67,64
132120,note_on,80,0,15,,,,,,,,14,,,,31,60
132120,note_on,5,0,5,,,,,,,,3,,,,67,92
132120,note_on,160,0,8,,,,,,,,6,,,,43,92
132120,note_on,160,0,13,,,,,,,,12,,,,43,92
132120,note_on,5,0,10,,,,,,,,8,,,,67,92
132200,note_off,80,0,8,,,,,,,,6,,,,43,64
132200,note_off,80,0,13,,,,,,,,12,,,,43,64
132235,note_off,115,0,10,,,,,,,,8,,,,67,64
132235,note_off,115,0,5,,,,,,,,3,,,,67,64
132240,note_on,5,0,5,,,,,,,,3,,,,67,92
132240,note_on,5,0,10,,,,,,,,8,,,,67,92
132355,note_off,115,0,10,,,,,,,,8,,,,67,64
132355,note_off,115,0,5,,,,,,,,3,,,,67,64
132360,note_on,160,0,13,,,,,,,,12,,,,43,92
132360,note_on,5,0,10,,,,,,,,8,,,,67,92
132360,note_on,5,0,5,,,,,,,,3,,,,67,92
132360,note_on,160,0,8,,,,,,,,6,,,,43,92
132440,note_off,80,0,8,,,,,,,,6,,,,43,64
132440,note_off,80,0,13,,,,,,,,12,,,,43,64
132475,note_off,115,0,5,,,,,,,,3,,,,67,64
132475,note_off,115,0,10,,,,,,,,8,,,,67,64
132480,note_on,5,0,10,,,,,,,,8,,,,67,92
132480,note_on,5,0,5,,,,,,,,3,,,,67,92
132520,note_off,400,0,15,,,,,,,,14,,,,31,64
132595,note_off,115,0,10,,,,,,,,8,,,,67,64
132595,note_off,115,0,5,,,,,,,,3,,,,67,64
132600,note_on,5,0,5,,,,,,,,3,,,,67,92
132600,note_on,160,0,13,,,,,,,,12,,,,43,92
132600,note_on,5,0,10,,,,,,,,8,,,,67,92
132600,note_on,160,0,8,,,,,,,,6,,,,43,92
132600,note_on,80,0,15,,,,,,,,14,,,,31,60
132680,note_off,80,0,8,,,,,,,,6,,,,43,64
132680,note_off,80,0,13,,,,,,,,12,,,,43,64
132715,note_off,115,0,5,,,,,,,,3,,,,67,64
132715,note_off,115,0,10,,,,,,,,8,,,,67,64
132720,note_on,5,0,5,,,,,,,,3,,,,67,92
132720,note_on,5,0,10,,,,,,,,8,,,,67,92
132835,note_off,115,0,10,,,,,,,,8,,,,67,64
132835,note_off,115,0,5,,,,,,,,3,,,,67,64
132840,note_on,160,0,8,,,,,,,,6,,,,43,92
132840,note_on,5,0,10,,,,,,,,8,,,,67,92
132840,note_on,160,0,13,,,,,,,,12,,,,43,92
132840,note_on,5,0,5,,,,,,,,3,,,,67,92
132920,note_off,80,0,8,,,,,,,,6,,,,43,64
132920,note_off,80,0,13,,,,,,,,12,,,,43,64
132955,note_off,115,0,10,,,,,,,,8,,,,67,64
132955,note_off,115,0,5,,,,,,,,3,,,,67,64
132960,note_on,5,0,5,,,,,,,,3,,,,67,92
132960,note_on,5,0,10,,,,,,,,8,,,,67,92
133000,note_off,400,0,15,,,,,,,,14,,,,31,64
133075,note_off,115,0,5,,,,,,,,3,,,,67,64
133075,note_off,115,0,10,,,,,,,,8,,,,67,64
133080,note_on,160,0,13,,,,,,,,12,,,,63,92
133080,note_on,5,0,5,,,,,,,,3,,,,75,127
133080,note_on,80,0,15,,,,,,,,14,,,,43,60
133080,note_on,160,0,8,,,,,,,,6,,,,63,92
133080,note_on,5,0,10,,,,,,,,8,,,,75,92
133160,note_off,80,0,13,,,,,,,,12,,,,63,64
133160,note_off,80,0,8,,,,,,,,6,,,,63,64
133195,note_off,115,0,10,,,,,,,,8,,,,75,64
133195,note_off,115,0,5,,,,,,,,3,,,,75,64
133200,note_on,5,0,5,,,,,,,,3,,,,67,92
133200,note_on,5,0,10,,,,,,,,8,,,,67,92
133315,note_off,115,0,10,,,,,,,,8,,,,67,64
133315,note_off,115,0,5,,,,,,,,3,,,,67,64
133320,note_on,160,0,13,,,,,,,,12,,,,55,92
133320,note_on,5,0,10,,,,,,,,8,,,,67,92
133320,note_on,160,0,8,,,,,,,,6,,,,55,92
133320,note_on,5,0,5,,,,,,,,3,,,,67,92
133400,note_off,80,0,13,,,,,,,,12,,,,55,64
133400,note_off,80,0,8,,,,,,,,6,,,,55,64
133435,note_off,115,0,5,,,,,,,,3,,,,67,64
133435,note_off,115,0,10,,,,,,,,8,,,,67,64
133440,note_on,5,0,10,,,,,,,,8,,,,67,92
133440,note_on,5,0,5,,,,,,,,3,,,,67,92
133480,note_off,400,0,15,,,,,,,,14,,,,43,64
133555,note_off,115,0,5,,,,,,,,3,,,,67,64
133555,note_off,115,0,10,,,,,,,,8,,,,67,64
133560,note_on,160,0,8,,,,,,,,6,,,,63,92
133560,note_on,5,0,10,,,,,,,,8,,,,75,92
133560,note_on,160,0,13,,,,,,,,12,,,,63,92
133560,note_on,80,0,15,,,,,,,,14,,,,43,60
133560,note_on,5,0,5,,,,,,,,3,,,,75,127
133640,note_off,80,0,8,,,,,,,,6,,,,63,64
133640,note_off,80,0,13,,,,,,,,12,,,,63,64
133675,note_off,115,0,10,,,,,,,,8,,,,75,64
133675,note_off,115,0,5,,,,,,,,3,,,,75,64
133680,note_on,5,0,5,,,,,,,,3,,,,67,92
133680,note_on,5,0,10,,,,,,,,8,,,,67,92
133795,note_off,115,0,5,,,,,,,,3,,,,67,64
133795,note_off,115,0,10,,,,,,,,8,,,,67,64
133800,note_on,5,0,10,,,,,,,,8,,,,67,92
133800,note_on,160,0,8,,,,,,,,6,,,,55,92
133800,note_on,5,0,5,,,,,,,,3,,,,67,92
133800,note_on,160,0,13,,,,,,,,12,,,,55,92
133880,note_off,80,0,13,,,,,,,,12,,,,55,64
133880,note_off,80,0,8,,,,,,,,6,,,,55,64
133915,note_off,115,0,10,,,,,,,,8,,,,67,64
133915,note_off,115,0,5,,,,,,,,3,,,,67,64
133920,note_on,5,0,10,,,,,,,,8,,,,67,92
133920,note_on,5,0,5,,,,,,,,3,,,,67,92
133960,note_off,400,0,15,,,,,,,,14,,,,43,64
134035,note_off,115,0,10,,,,,,,,8,,,,67,64
134035,note_off,115,0,5,,,,,,,,3,,,,67,64
134040,note_on,160,0,8,,,,,,,,6,,,,63,92
134040,note_on,5,0,10,,,,,,,,8,,,,75,92
134040,note_on,160,0,13,,,,,,,,12,,,,63,92
134040,note_on,80,0,15,,,,,,,,14,,,,43,60
134040,note_on,5,0,5,,,,,,,,3,,,,75,127
134120,note_off,80,0,8,,,,,,,,6,,,,63,64
134120,note_off,80,0,13,,,,,,,,12,,,,63,64
134155,note_off,115,0,10,,,,,,,,8,,,,75,64
134155,note_off,115,0,5,,,,,,,,3,,,,75,64
134160,note_on,5,0,10,,,,,,,,8,,,,67,92
134160,note_on,5,0,5,,,,,,,,3,,,,67,92
134275,note_off,115,0,5,,,,,,,,3,,,,67,64
134275,note_off,115,0,10,,,,,,,,8,,,,67,64
134280,note_on,5,0,10,,,,,,,,8,,,,67,92
134280,note_on,5,0,5,,,,,,,,3,,,,67,92
134280,note_on,160,0,13,,,,,,,,12,,,,55,92
134280,note_on,160,0,8,,,,,,,,6,,,,55,92
134360,note_off,80,0,8,,,,,,,,6,,,,55,64
134360,note_off,80,0,13,,,,,,,,12,,,,55,64
134395,note_off,115,0,5,,,,,,,,3,,,,67,64
134395,note_off,115,0,10,,,,,,,,8,,,,67,64
134400,note_on,5,0,5,,,,,,,,3,,,,67,92
134400,note_on,5,0,10,,,,,,,,8,,,,67,92
134440,note_off,400,0,15,,,,,,,,14,,,,43,64
134515,note_off,115,0,10,,,,,,,,8,,,,67,64
134515,note_off,115,0,5,,,,,,,,3,,,,67,64
134520,note_on,160,0,13,,,,,,,,12,,,,54,92
134520,note_on,5,0,5,,,,,,,,3,,,,66,127
134520,note_on,160,0,8,,,,,,,,6,,,,54,92
134520,note_on,5,0,10,,,,,,,,8,,,,66,92
134520,note_on,80,0,15,,,,,,,,14,,,,42,60
134600,note_off,80,0,8,,,,,,,,6,,,,54,64
134600,note_off,80,0,13,,,,,,,,12,,,,54,64
134635,note_off,115,0,5,,,,,,,,3,,,,66,64
134635,note_off,115,0,10,,,,,,,,8,,,,66,64
134640,note_on,5,0,5,,,,,,,,3,,,,66,92
134640,note_on,5,0,10,,,,,,,,8,,,,66,92
134755,note_off,115,0,10,,,,,,,,8,,,,66,64
134755,note_off,115,0,5,,,,,,,,3,,,,66,64
134760,note_on,5,0,5,,,,,,,,3,,,,66,92
134760,note_on,160,0,13,,,,,,,,12,,,,54,92
134760,note_on,5,0,10,,,,,,,,8,,,,66,92
134760,note_on,160,0,8,,,,,,,,6,,,,54,92
134840,note_off,80,0,13,,,,,,,,12,,,,54,64
134840,note_off,80,0,8,,,,,,,,6,,,,54,64
134875,note_off,115,0,10,,,,,,,,8,,,,66,64
134875,note_off,115,0,5,,,,,,,,3,,,,66,64
134880,note_on,5,0,10,,,,,,,,8,,,,66,92
134880,note_on,5,0,5,,,,,,,,3,,,,66,92
134920,note_off,400,0,15,,,,,,,,14,,,,42,64
134995,note_off,115,0,10,,,,,,,,8,,,,66,64
134995,note_off,115,0,5,,,,,,,,3,,,,66,64
135000,note_on,160,0,13,,,,,,,,12,,,,54,92
135000,note_on,5,0,10,,,,,,,,8,,,,66,92
135000,note_on,80,0,15,,,,,,,,14,,,,42,60
135000,note_on,160,0,8,,,,,,,,6,,,,54,92
135000,note_on,5,0,5,,,,,,,,3,,,,66,92
135080,note_off,80,0,8,,,,,,,,6,,,,54,64
135080,note_off,80,0,13,,,,,,,,12,,,,54,64
135115,note_off,115,0,10,,,,,,,,8,,,,66,64
135115,note_off,115,0,5,,,,,,,,3,,,,66,64
135120,note_on,5,0,5,,,,,,,,3,,,,66,92
135120,note_on,5,0,10,,,,,,,,8,,,,66,92
135235,note_off,115,0,5,,,,,,,,3,,,,66,64
135235,note_off,115,0,10,,,,,,,,8,,,,66,64
135240,note_on,5,0,5,,,,,,,,3,,,,66,92
135240,note_on,160,0,13,,,,,,,,12,,,,54,92
135240,note_on,5,0,10,,,,,,,,8,,,,66,92
135240,note_on,160,0,8,,,,,,,,6,,,,54,92
135320,note_off,80,0,13,,,,,,,,12,,,,54,64
135320,note_off,80,0,8,,,,,,,,6,,,,54,64
135355,note_off,115,0,5,,,,,,,,3,,,,66,64
135355,note_off,115,0,10,,,,,,,,8,,,,66,64
135360,note_on,5,0,5,,,,,,,,3,,,,66,92
135360,note_on,5,0,10,,,,,,,,8,,,,66,92
135400,note_off,400,0,15,,,,,,,,14,,,,42,64
135475,note_off,115,0,10,,,,,,,,8,,,,66,64
135475,note_off,115,0,5,,,,,,,,3,,,,66,64
135480,note_on,160,0,13,,,,,,,,12,,,,54,92
135480,note_on,5,0,10,,,,,,,,8,,,,66,92
135480,note_on,5,0,5,,,,,,,,3,,,,66,92
135480,note_on,80,0,15,,,,,,,,14,,,,42,60
135480,note_on,160,0,8,,,,,,,,6,,,,54,92
135560,note_off,80,0,8,,,,,,,,6,,,,54,64
135560,note_off,80,0,13,,,,,,,,12,,,,54,64
135595,note_off,115,0,10,,,,,,,,8,,,,66,64
135595,note_off,115,0,5,,,,,,,,3,,,,66,64
135600,note_on,5,0,10,,,,,,,,8,,,,66,92
135600,note_on,5,0,5,,,,,,,,3,,,,66,92
135715,note_off,115,0,5,,,,,,,,3,,,,66,64
135715,note_off,115,0,10,,,,,,,,8,,,,66,64
135720,note_on,5,0,5,,,,,,,,3,,,,66,92
135720,note_on,160,0,13,,,,,,,,12,,,,54,92
135720,note_on,160,0,8,,,,,,,,6,,,,54,92
135720,note_on,5,0,10,,,,,,,,8,,,,66,92
135800,note_off,80,0,13,,,,,,,,12,,,,54,64
135800,note_off,80,0,8,,,,,,,,6,,,,54,64
135835,note_off,115,0,5,,,,,,,,3,,,,66,64
135835,note_off,115,0,10,,,,,,,,8,,,,66,64
135840,note_on,5,0,5,,,,,,,,3,,,,66,92
135840,note_on,5,0,10,,,,,,,,8,,,,66,92
135880,note_off,400,0,15,,,,,,,,14,,,,42,64
135955,note_off,115,0,5,,,,,,,,3,,,,66,64
135955,note_off,115,0,10,,,,,,,,8,,,,66,64
135960,note_on,160,0,8,,,,,,,,6,,,,62,92
135960,note_on,80,0,15,,,,,,,,14,,,,41,60
135960,note_on,160,0,13,,,,,,,,12,,,,62,92
135960,note_on,5,0,5,,,,,,,,3,,,,74,127
135960,note_on,5,0,10,,,,,,,,8,,,,74,92
136040,note_off,80,0,8,,,,,,,,6,,,,62,64
136040,note_off,80,0,13,,,,,,,,12,,,,62,64
136075,note_off,115,0,10,,,,,,,,8,,,,74,64
136075,note_off,115,0,5,,,,,,,,3,,,,74,64
136080,note_on,5,0,5,,,,,,,,3,,,,65,92
136080,note_on,5,0,10,,,,,,,,8,,,,65,92
136195,note_off,115,0,5,,,,,,,,3,,,,65,64
136195,note_off,115,0,10,,,,,,,,8,,,,65,64
136200,note_on,160,0,8,,,,,,,,6,,,,53,92
136200,note_on,5,0,5,,,,,,,,3,,,,65,92
136200,note_on,160,0,13,,,,,,,,12,,,,53,92
136200,note_on,5,0,10,,,,,,,,8,,,,65,92
136280,note_off,80,0,8,,,,,,,,6,,,,53,64
136280,note_off,80,0,13,,,,,,,,12,,,,53,64
136315,note_off,115,0,10,,,,,,,,8,,,,65,64
136315,note_off,115,0,5,,,,,,,,3,,,,65,64
136320,note_on,5,0,10,,,,,,,,8,,,,65,92
136320,note_on,5,0,5,,,,,,,,3,,,,65,92
136360,note_off,400,0,15,,,,,,,,14,,,,41,64
136435,note_off,115,0,5,,,,,,,,3,,,,65,64
136435,note_off,115,0,10,,,,,,,,8,,,,65,64
136440,note_on,5,0,10,,,,,,,,8,,,,74,92
136440,note_on,80,0,15,,,,,,,,14,,,,41,60
136440,note_on,160,0,8,,,,,,,,6,,,,62,92
136440,note_on,160,0,13,,,,,,,,12,,,,62,92
136440,note_on,5,0,5,,,,,,,,3,,,,74,127
136520,note_off,80,0,8,,,,,,,,6,,,,62,64
136520,note_off,80,0,13,,,,,,,,12,,,,62,64
136555,note_off,115,0,5,,,,,,,,3,,,,74,64
136555,note_off,115,0,10,,,,,,,,8,,,,74,64
136560,note_on,5,0,10,,,,,,,,8,,,,65,92
136560,note_on,5,0,5,,,,,,,,3,,,,65,92
136675,note_off,115,0,5,,,,,,,,3,,,,65,64
136675,note_off,115,0,10,,,,,,,,8,,,,65,64
136680,note_on,5,0,5,,,,,,,,3,,,,65,92
136680,note_on,5,0,10,,,,,,,,8,,,,65,92
136680,note_on,160,0,8,,,,,,,,6,,,,53,92
136680,note_on,160,0,13,,,,,,,,12,,,,53,92
136760,note_off,80,0,8,,,,,,,,6,,,,53,64
136760,note_off,80,0,13,,,,,,,,12,,,,53,64
136795,note_off,115,0,10,,,,,,,,8,,,,65,64
136795,note_off,115,0,5,,,,,,,,3,,,,65,64
136800,note_on,5,0,5,,,,,,,,3,,,,65,92
136800,note_on,5,0,10,,,,,,,,8,,,,65,92
136840,note_off,400,0,15,,,,,,,,14,,,,41,64
136915,note_off,115,0,10,,,,,,,,8,,,,65,64
136915,note_off,115,0,5,,,,,,,,3,,,,65,64
136920,note_on,5,0,5,,,,,,,,3,,,,74,127
136920,note_on,160,0,8,,,,,,,,6,,,,62,92
136920,note_on,160,0,13,,,,,,,,12,,,,62,92
136920,note_on,5,0,10,,,,,,,,8,,,,74,92
136920,note_on,80,0,15,,,,,,,,14,,,,41,60
137000,note_off,80,0,8,,,,,,,,6,,,,62,64
137000,note_off,80,0,13,,,,,,,,12,,,,62,64
137035,note_off,115,0,5,,,,,,,,3,,,,74,64
137035,note_off,115,0,10,,,,,,,,8,,,,74,64
137040,note_on,5,0,5,,,,,,,,3,,,,65,92
137040,note_on,5,0,10,,,,,,,,8,,,,65,92
137155,note_off,115,0,5,,,,,,,,3,,,,65,64
137155,note_off,115,0,10,,,,,,,,8,,,,65,64
137160,note_on,160,0,8,,,,,,,,6,,,,53,92
137160,note_on,5,0,10,,,,,,,,8,,,,65,92
137160,note_on,160,0,13,,,,,,,,12,,,,53,92
137160,note_on,5,0,5,,,,,,,,3,,,,65,92
137240,note_off,80,0,13,,,,,,,,12,,,,53,64
137240,note_off,80,0,8,,,,,,,,6,,,,53,64
137275,note_off,115,0,5,,,,,,,,3,,,,65,64
137275,note_off,115,0,10,,,,,,,,8,,,,65,64
137280,note_on,5,0,10,,,,,,,,8,,,,65,92
137280,note_on,5,0,5,,,,,,,,3,,,,65,92
137320,note_off,400,0,15,,,,,,,,14,,,,41,64
137395,note_off,115,0,10,,,,,,,,8,,,,65,64
137395,note_off,115,0,5,,,,,,,,3,,,,65,64
137400,note_on,5,0,5,,,,,,,,3,,,,64,127
137400,note_on,5,0,10,,,,,,,,8,,,,64,92
137400,note_on,160,0,13,,,,,,,,12,,,,52,92
137400,note_on,80,0,15,,,,,,,,14,,,,40,60
137400,note_on,160,0,8,,,,,,,,6,,,,52,92
137480,note_off,80,0,13,,,,,,,,12,,,,52,64
137480,note_off,80,0,8,,,,,,,,6,,,,52,64
137515,note_off,115,0,5,,,,,,,,3,,,,64,64
137515,note_off,115,0,10,,,,,,,,8,,,,64,64
137520,note_on,5,0,5,,,,,,,,3,,,,64,92
137520,note_on,5,0,10,,,,,,,,8,,,,64,92
137635,note_off,115,0,10,,,,,,,,8,,,,64,64
137635,note_off,115,0,5,,,,,,,,3,,,,64,64
137640,note_on,160,0,13,,,,,,,,12,,,,52,92
137640,note_on,5,0,10,,,,,,,,8,,,,64,92
137640,note_on,5,0,5,,,,,,,,3,,,,64,92
137640,note_on,160,0,8,,,,,,,,6,,,,52,92
137720,note_off,80,0,8,,,,,,,,6,,,,52,64
137720,note_off,80,0,13,,,,,,,,12,,,,52,64
137755,note_off,115,0,5,,,,,,,,3,,,,64,64
137755,note_off,115,0,10,,,,,,,,8,,,,64,64
137760,note_on,5,0,5,,,,,,,,3,,,,64,92
137760,note_on,5,0,10,,,,,,,,8,,,,64,92
137800,note_off,400,0,15,,,,,,,,14,,,,40,64
137875,note_off,115,0,10,,,,,,,,8,,,,64,64
137875,note_off,115,0,5,,,,,,,,3,,,,64,64
137880,note_on,160,0,13,,,,,,,,12,,,,52,92
137880,note_on,5,0,10,,,,,,,,8,,,,64,92
137880,note_on,80,0,15,,,,,,,,14,,,,40,60
137880,note_on,160,0,8,,,,,,,,6,,,,52,92
137880,note_on,5,0,5,,,,,,,,3,,,,64,92
137960,note_off,80,0,13,,,,,,,,12,,,,52,64
137960,note_off,80,0,8,,,,,,,,6,,,,52,64
137995,note_off,115,0,5,,,,,,,,3,,,,64,64
137995,note_off,115,0,10,,,,,,,,8,,,,64,64
138000,note_on,5,0,5,,,,,,,,3,,,,64,92
138000,note_on,5,0,10,,,,,,,,8,,,,64,92
138115,note_off,115,0,5,,,,,,,,3,,,,64,64
138115,note_off,115,0,10,,,,,,,,8,,,,64,64
138120,note_on,160,0,8,,,,,,,,6,,,,52,92
138120,note_on,5,0,10,,,,,,,,8,,,,64,92
138120,note_on,160,0,13,,,,,,,,12,,,,52,92
138120,note_on,5,0,5,,,,,,,,3,,,,64,92
138200,note_off,80,0,8,,,,,,,,6,,,,52,64
138200,note_off,80,0,13,,,,,,,,12,,,,52,64
138235,note_off,115,0,10,,,,,,,,8,,,,64,64
138235,note_off,115,0,5,,,,,,,,3,,,,64,64
138240,note_on,5,0,10,,,,,,,,8,,,,64,92
138240,note_on,5,0,5,,,,,,,,3,,,,64,92
138280,note_off,400,0,15,,,,,,,,14,,,,40,64
138355,note_off,115,0,5,,,,,,,,3,,,,64,64
138355,note_off,115,0,10,,,,,,,,8,,,,64,64
138360,note_on,160,0,13,,,,,,,,12,,,,52,92
138360,note_on,160,0,8,,,,,,,,6,,,,52,92
138360,note_on,80,0,15,,,,,,,,14,,,,40,60
138360,note_on,5,0,5,,,,,,,,3,,,,64,92
138360,note_on,5,0,10,,,,,,,,8,,,,64,92
138440,note_off,80,0,13,,,,,,,,12,,,,52,64
138440,note_off,80,0,8,,,,,,,,6,,,,52,64
138475,note_off,115,0,5,,,,,,,,3,,,,64,64
138475,note_off,115,0,10,,,,,,,,8,,,,64,64
138480,note_on,5,0,10,,,,,,,,8,,,,64,92
138480,note_on,5,0,5,,,,,,,,3,,,,64,92
138595,note_off,115,0,5,,,,,,,,3,,,,64,64
138595,note_off,115,0,10,,,,,,,,8,,,,64,64
138600,note_on,5,0,5,,,,,,,,3,,,,64,92
138600,note_on,160,0,13,,,,,,,,12,,,,52,92
138600,note_on,5,0,10,,,,,,,,8,,,,64,92
138600,note_on,160,0,8,,,,,,,,6,,,,52,92
138680,note_off,80,0,8,,,,,,,,6,,,,52,64
138680,note_off,80,0,13,,,,,,,,12,,,,52,64
138715,note_off,115,0,10,,,,,,,,8,,,,64,64
138715,note_off,115,0,5,,,,,,,,3,,,,64,64
138720,note_on,5,0,10,,,,,,,,8,,,,64,92
138720,note_on,5,0,5,,,,,,,,3,,,,64,92
138760,note_off,400,0,15,,,,,,,,14,,,,40,64
138835,note_off,115,0,10,,,,,,,,8,,,,64,64
138835,note_off,115,0,5,,,,,,,,3,,,,64,64
138840,note_on,5,0,5,,,,,,,,3,,,,72,127
138840,note_on,5,0,10,,,,,,,,8,,,,72,92
138840,note_on,160,0,8,,,,,,,,6,,,,60,92
138840,note_on,160,0,13,,,,,,,,12,,,,60,92
138840,note_on,80,0,15,,,,,,,,14,,,,39,60
138920,note_off,80,0,13,,,,,,,,12,,,,60,64
138920,note_off,80,0,8,,,,,,,,6,,,,60,64
138955,note_off,115,0,10,,,,,,,,8,,,,72,64
138955,note_off,115,0,5,,,,,,,,3,,,,72,64
138960,note_on,5,0,5,,,,,,,,3,,,,63,92
138960,note_on,5,0,10,,,,,,,,8,,,,63,92
139075,note_off,115,0,10,,,,,,,,8,,,,63,64
139075,note_off,115,0,5,,,,,,,,3,,,,63,64
139080,note_on,5,0,10,,,,,,,,8,,,,63,92
139080,note_on,160,0,8,,,,,,,,6,,,,51,92
139080,note_on,160,0,13,,,,,,,,12,,,,51,92
139080,note_on,5,0,5,,,,,,,,3,,,,63,92
139160,note_off,80,0,13,,,,,,,,12,,,,51,64
139160,note_off,80,0,8,,,,,,,,6,,,,51,64
139195,note_off,115,0,5,,,,,,,,3,,,,63,64
139195,note_off,115,0,10,,,,,,,,8,,,,63,64
139200,note_on,5,0,5,,,,,,,,3,,,,63,92
139200,note_on,5,0,10,,,,,,,,8,,,,63,92
139240,note_off,400,0,15,,,,,,,,14,,,,39,64
139315,note_off,115,0,10,,,,,,,,8,,,,63,64
139315,note_off,115,0,5,,,,,,,,3,,,,63,64
139320,note_on,5,0,10,,,,,,,,8,,,,72,92
139320,note_on,160,0,8,,,,,,,,6,,,,60,92
139320,note_on,80,0,15,,,,,,,,14,,,,39,60
139320,note_on,160,0,13,,,,,,,,12,,,,60,92
139320,note_on,5,0,5,,,,,,,,3,,,,72,127
139400,note_off,80,0,13,,,,,,,,12,,,,60,64
139400,note_off,80,0,8,,,,,,,,6,,,,60,64
139435,note_off,115,0,10,,,,,,,,8,,,,72,64
139435,note_off,115,0,5,,,,,,,,3,,,,72,64
139440,note_on,5,0,10,,,,,,,,8,,,,63,92
139440,note_on,5,0,5,,,,,,,,3,,,,63,92
139555,note_off,115,0,5,,,,,,,,3,,,,63,64
139555,note_off,115,0,10,,,,,,,,8,,,,63,64
139560,note_on,160,0,13,,,,,,,,12,,,,51,92
139560,note_on,5,0,5,,,,,,,,3,,,,63,92
139560,note_on,5,0,10,,,,,,,,8,,,,63,92
139560,note_on,160,0,8,,,,,,,,6,,,,51,92
139640,note_off,80,0,8,,,,,,,,6,,,,51,64
139640,note_off,80,0,13,,,,,,,,12,,,,51,64
139675,note_off,115,0,10,,,,,,,,8,,,,63,64
139675,note_off,115,0,5,,,,,,,,3,,,,63,64
139680,note_on,5,0,5,,,,,,,,3,,,,63,92
139680,note_on,5,0,10,,,,,,,,8,,,,63,92
139720,note_off,400,0,15,,,,,,,,14,,,,39,64
139795,note_off,115,0,10,,,,,,,,8,,,,63,64
139795,note_off,115,0,5,,,,,,,,3,,,,63,64
139800,note_on,160,0,8,,,,,,,,6,,,,60,92
139800,note_on,5,0,10,,,,,,,,8,,,,72,92
139800,note_on,80,0,15,,,,,,,,14,,,,39,60
139800,note_on,5,0,5,,,,,,,,3,,,,72,127
139800,note_on,160,0,13,,,,,,,,12,,,,60,92
139880,note_off,80,0,13,,,,,,,,12,,,,60,64
139880,note_off,80,0,8,,,,,,,,6,,,,60,64
139915,note_off,115,0,5,,,,,,,,3,,,,72,64
139915,note_off,115,0,10,,,,,,,,8,,,,72,64
139920,note_on,5,0,10,,,,,,,,8,,,,63,92
139920,note_on,5,0,5,,,,,,,,3,,,,63,92
140035,note_off,115,0,10,,,,,,,,8,,,,63,64
140035,note_off,115,0,5,,,,,,,,3,,,,63,64
140040,note_on,5,0,10,,,,,,,,8,,,,63,92
140040,note_on,160,0,13,,,,,,,,12,,,,51,92
140040,note_on,160,0,8,,,,,,,,6,,,,51,92
140040,note_on,5,0,5,,,,,,,,3,,,,63,92
140120,note_off,80,0,8,,,,,,,,6,,,,51,64
140120,note_off,80,0,13,,,,,,,,12,,,,51,64
140155,note_off,115,0,10,,,,,,,,8,,,,63,64
140155,note_off,115,0,5,,,,,,,,3,,,,63,64
140160,note_on,5,0,10,,,,,,,,8,,,,63,92
140160,note_on,5,0,5,,,,,,,,3,,,,63,92
140200,note_off,400,0,15,,,,,,,,14,,,,39,64
140275,note_off,115,0,10,,,,,,,,8,,,,63,64
140275,note_off,115,0,5,,,,,,,,3,,,,63,64
140280,note_on,160,0,13,,,,,,,,12,,,,50,60
140280,note_on,17200,0,4,,,,,,,,2,,,,62,75
140280,note_on,5,0,10,,,,,,,,8,,,,62,92
140280,note_on,80,0,15,,,,,,,,14,,,,38,60
140280,note_on,17200,0,3,,,,,,,,1,,,,62,92
140280,note_on,5,0,5,,,,,,,,3,,,,62,92
140280,note_on,160,0,8,,,,,,,,6,,,,50,60
140360,note_off,80,0,3,,,,,,,,1,,,,62,64
140360,note_off,80,0,4,,,,,,,,2,,,,62,64
140395,note_off,115,0,5,,,,,,,,3,,,,62,64
140395,note_off,115,0,15,,,,,,,,14,,,,38,64
140395,note_off,115,0,10,,,,,,,,8,,,,62,64
140400,note_on,40,0,3,,,,,,,,1,,,,62,92
140400,note_on,40,0,4,,,,,,,,2,,,,62,75
140480,note_off,80,0,3,,,,,,,,1,,,,62,64
140480,note_off,80,0,4,,,,,,,,2,,,,62,64
140520,note_on,40,0,4,,,,,,,,2,,,,62,75
140520,note_on,40,0,3,,,,,,,,1,,,,62,92
140600,note_off,80,0,3,,,,,,,,1,,,,62,64
140600,note_off,80,0,4,,,,,,,,2,,,,62,64
140640,note_on,40,0,3,,,,,,,,1,,,,62,92
140640,note_on,40,0,4,,,,,,,,2,,,,62,75
140720,note_off,80,0,4,,,,,,,,2,,,,62,64
140720,note_off,80,0,3,,,,,,,,1,,,,62,64
140760,note_on,40,0,4,,,,,,,,2,,,,66,75
140760,note_on,40,0,3,,,,,,,,1,,,,66,92
140840,note_off,80,0,4,,,,,,,,2,,,,66,64
140840,note_off,80,0,3,,,,,,,,1,,,,66,64
140880,note_on,40,0,4,,,,,,,,2,,,,62,75
140880,note_on,40,0,3,,,,,,,,1,,,,62,92
140960,note_off,80,0,4,,,,,,,,2,,,,62,64
140960,note_off,80,0,3,,,,,,,,1,,,,62,64
141000,note_on,40,0,4,,,,,,,,2,,,,62,75
141000,note_on,40,0,3,,,,,,,,1,,,,62,92
141080,note_off,80,0,4,,,,,,,,2,,,,62,64
141080,note_off,80,0,3,,,,,,,,1,,,,62,64
141120,note_on,40,0,3,,,,,,,,1,,,,62,92
141120,note_on,40,0,4,,,,,,,,2,,,,62,75
141200,note_off,80,0,4,,,,,,,,2,,,,62,64
141200,note_off,80,0,3,,,,,,,,1,,,,62,64
141240,note_on,40,0,3,,,,,,,,1,,,,69,92
141240,note_on,40,0,4,,,,,,,,2,,,,69,75
141320,note_off,80,0,3,,,,,,,,1,,,,69,64
141320,note_off,80,0,4,,,,,,,,2,,,,69,64
141360,note_on,40,0,3,,,,,,,,1,,,,62,92
141360,note_on,40,0,4,,,,,,,,2,,,,62,75
141440,note_off,80,0,3,,,,,,,,1,,,,62,64
141440,note_off,80,0,4,,,,,,,,2,,,,62,64
141480,note_on,40,0,4,,,,,,,,2,,,,62,75
141480,note_on,40,0,3,,,,,,,,1,,,,62,92
141560,note_off,80,0,4,,,,,,,,2,,,,62,64
141560,note_off,80,0,3,,,,,,,,1,,,,62,64
141600,note_on,40,0,4,,,,,,,,2,,,,62,75
141600,note_on,40,0,3,,,,,,,,1,,,,62,92
141680,note_off,80,0,4,,,,,,,,2,,,,62,64
141680,note_off,80,0,3,,,,,,,,1,,,,62,64
141720,note_on,40,0,4,,,,,,,,2,,,,70,75
141720,note_on,40,0,3,,,,,,,,1,,,,70,92
141800,note_off,80,0,3,,,,,,,,1,,,,70,64
141800,note_off,80,0,4,,,,,,,,2,,,,70,64
141840,note_on,40,0,4,,,,,,,,2,,,,62,75
141840,note_on,40,0,3,,,,,,,,1,,,,62,92
141920,note_off,80,0,4,,,,,,,,2,,,,62,64
141920,note_off,80,0,3,,,,,,,,1,,,,62,64
141960,note_on,40,0,4,,,,,,,,2,,,,62,75
141960,note_on,40,0,3,,,,,,,,1,,,,62,92
142040,note_off,80,0,3,,,,,,,,1,,,,62,64
142040,note_off,80,0,4,,,,,,,,2,,,,62,64
142080,note_on,40,0,4,,,,,,,,2,,,,62,75
142080,note_on,40,0,3,,,,,,,,1,,,,62,92
142160,note_off,80,0,4,,,,,,,,2,,,,62,64
142160,note_off,80,0,3,,,,,,,,1,,,,62,64
142200,note_on,40,0,3,,,,,,,,1,,,,72,92
142200,note_on,40,0,4,,,,,,,,2,,,,72,75
142280,note_off,80,0,4,,,,,,,,2,,,,72,64
142280,note_off,80,0,3,,,,,,,,1,,,,72,64
142320,note_on,40,0,4,,,,,,,,2,,,,62,75
142320,note_on,40,0,3,,,,,,,,1,,,,62,92
142400,note_off,80,0,3,,,,,,,,1,,,,62,64
142400,note_off,80,0,4,,,,,,,,2,,,,62,64
142440,note_on,40,0,3,,,,,,,,1,,,,62,92
142440,note_on,40,0,4,,,,,,,,2,,,,62,75
142520,note_off,80,0,4,,,,,,,,2,,,,62,64
142520,note_off,80,0,3,,,,,,,,1,,,,62,64
142560,note_on,40,0,4,,,,,,,,2,,,,62,75
142560,note_on,40,0,3,,,,,,,,1,,,,62,92
142640,note_off,80,0,4,,,,,,,,2,,,,62,64
142640,note_off,80,0,3,,,,,,,,1,,,,62,64
142680,note_on,40,0,4,,,,,,,,2,,,,74,75
142680,note_on,40,0,3,,,,,,,,1,,,,74,92
142760,note_off,80,0,4,,,,,,,,2,,,,74,64
142760,note_off,80,0,3,,,,,,,,1,,,,74,64
142800,note_on,40,0,3,,,,,,,,1,,,,62,92
142800,note_on,40,0,4,,,,,,,,2,,,,62,75
142880,note_off,80,0,3,,,,,,,,1,,,,62,64
142880,note_off,80,0,4,,,,,,,,2,,,,62,64
142920,note_on,40,0,4,,,,,,,,2,,,,62,75
142920,note_on,40,0,3,,,,,,,,1,,,,62,92
143000,note_off,80,0,3,,,,,,,,1,,,,62,64
143000,note_off,80,0,4,,,,,,,,2,,,,62,64
143040,note_on,40,0,4,,,,,,,,2,,,,62,75
143040,note_on,40,0,3,,,,,,,,1,,,,62,92
143120,note_off,80,0,4,,,,,,,,2,,,,62,64
143120,note_off,80,0,3,,,,,,,,1,,,,62,64
143160,note_on,40,0,3,,,,,,,,1,,,,75,92
143160,note_on,40,0,4,,,,,,,,2,,,,75,75
143240,note_off,80,0,4,,,,,,,,2,,,,75,64
143240,note_off,80,0,3,,,,,,,,1,,,,75,64
143280,note_on,40,0,4,,,,,,,,2,,,,62,75
143280,note_on,40,0,3,,,,,,,,1,,,,62,92
143360,note_off,80,0,3,,,,,,,,1,,,,62,64
143360,note_off,80,0,4,,,,,,,,2,,,,62,64
143400,note_on,40,0,3,,,,,,,,1,,,,62,92
143400,note_on,40,0,4,,,,,,,,2,,,,62,75
143480,note_off,80,0,4,,,,,,,,2,,,,62,64
143480,note_off,80,0,3,,,,,,,,1,,,,62,64
143520,note_on,40,0,4,,,,,,,,2,,,,62,75
143520,note_on,40,0,3,,,,,,,,1,,,,62,92
143600,note_off,80,0,4,,,,,,,,2,,,,62,64
143600,note_off,80,0,3,,,,,,,,1,,,,62,64
143640,note_on,40,0,4,,,,,,,,2,,,,78,75
143640,note_on,40,0,3,,,,,,,,1,,,,78,92
143720,note_off,80,0,4,,,,,,,,2,,,,78,64
143720,note_off,80,0,3,,,,,,,,1,,,,78,64
143760,note_on,40,0,4,,,,,,,,2,,,,62,75
143760,note_on,40,0,3,,,,,,,,1,,,,62,92
143840,note_off,80,0,3,,,,,,,,1,,,,62,64
143840,note_off,80,0,4,,,,,,,,2,,,,62,64
143880,note_on,40,0,4,,,,,,,,2,,,,62,75
143880,note_on,40,0,3,,,,,,,,1,,,,62,92
143960,note_off,80,0,4,,,,,,,,2,,,,62,64
143960,note_off,80,0,3,,,,,,,,1,,,,62,64
144000,note_on,40,0,4,,,,,,,,2,,,,62,75
144000,note_on,40,0,3,,,,,,,,1,,,,62,92
144080,note_off,80,0,3,,,,,,,,1,,,,62,64
144080,note_off,80,0,4,,,,,,,,2,,,,62,64
144120,note_on,40,0,3,,,,,,,,1,,,,79,92
144120,note_on,40,0,4,,,,,,,,2,,,,79,75
144200,note_off,80,0,3,,,,,,,,1,,,,79,64
144200,note_off,80,0,4,,,,,,,,2,,,,79,64
144240,note_on,40,0,3,,,,,,,,1,,,,62,92
144240,note_on,40,0,4,,,,,,,,2,,,,62,75
144320,note_off,80,0,3,,,,,,,,1,,,,62,64
144320,note_off,80,0,4,,,,,,,,2,,,,62,64
144360,note_on,40,0,4,,,,,,,,2,,,,62,75
144360,note_on,40,0,3,,,,,,,,1,,,,62,92
144440,note_off,80,0,4,,,,,,,,2,,,,62,64
144440,note_off,80,0,3,,,,,,,,1,,,,62,64
144480,note_on,40,0,3,,,,,,,,1,,,,62,92
144480,note_on,40,0,4,,,,,,,,2,,,,62,75
144560,note_off,80,0,3,,,,,,,,1,,,,62,64
144560,note_off,80,0,4,,,,,,,,2,,,,62,64
144600,note_on,40,0,3,,,,,,,,1,,,,81,92
144600,note_on,40,0,4,,,,,,,,2,,,,81,75
144680,note_off,80,0,4,,,,,,,,2,,,,81,64
144680,note_off,80,0,3,,,,,,,,1,,,,81,64
144720,note_on,40,0,4,,,,,,,,2,,,,62,75
144720,note_on,40,0,3,,,,,,,,1,,,,62,92
144800,note_off,80,0,4,,,,,,,,2,,,,62,64
144800,note_off,80,0,3,,,,,,,,1,,,,62,64
144840,note_on,40,0,3,,,,,,,,1,,,,62,92
144840,note_on,40,0,4,,,,,,,,2,,,,62,75
144920,note_off,80,0,3,,,,,,,,1,,,,62,64
144920,note_off,80,0,4,,,,,,,,2,,,,62,64
144960,note_on,40,0,4,,,,,,,,2,,,,62,75
144960,note_on,40,0,3,,,,,,,,1,,,,62,92
145040,note_off,80,0,4,,,,,,,,2,,,,62,64
145040,note_off,80,0,3,,,,,,,,1,,,,62,64
145080,note_on,40,0,3,,,,,,,,1,,,,82,92
145080,note_on,40,0,4,,,,,,,,2,,,,82,75
145160,note_off,80,0,3,,,,,,,,1,,,,82,64
145160,note_off,80,0,4,,,,,,,,2,,,,82,64
145200,note_on,40,0,4,,,,,,,,2,,,,62,75
145200,note_on,40,0,3,,,,,,,,1,,,,62,92
145280,note_off,80,0,4,,,,,,,,2,,,,62,64
145280,note_off,80,0,3,,,,,,,,1,,,,62,64
145320,note_on,40,0,3,,,,,,,,1,,,,62,92
145320,note_on,40,0,4,,,,,,,,2,,,,62,75
145400,note_off,80,0,3,,,,,,,,1,,,,62,64
145400,note_off,80,0,4,,,,,,,,2,,,,62,64
145440,note_on,40,0,3,,,,,,,,1,,,,62,92
145440,note_on,40,0,4,,,,,,,,2,,,,62,75
145520,note_off,80,0,3,,,,,,,,1,,,,62,64
145520,note_off,80,0,4,,,,,,,,2,,,,62,64
145560,note_on,40,0,3,,,,,,,,1,,,,84,92
145560,note_on,40,0,4,,,,,,,,2,,,,84,75
145640,note_off,80,0,4,,,,,,,,2,,,,84,64
145640,note_off,80,0,3,,,,,,,,1,,,,84,64
145680,note_on,40,0,3,,,,,,,,1,,,,62,92
145680,note_on,40,0,4,,,,,,,,2,,,,62,75
145760,note_off,80,0,3,,,,,,,,1,,,,62,64
145760,note_off,80,0,4,,,,,,,,2,,,,62,64
145800,note_on,40,0,4,,,,,,,,2,,,,62,75
145800,note_on,40,0,3,,,,,,,,1,,,,62,92
145880,note_off,80,0,3,,,,,,,,1,,,,62,64
145880,note_off,80,0,4,,,,,,,,2,,,,62,64
145920,note_on,40,0,3,,,,,,,,1,,,,62,92
145920,note_on,40,0,4,,,,,,,,2,,,,62,75
146000,note_off,80,0,4,,,,,,,,2,,,,62,64
146000,note_off,80,0,3,,,,,,,,1,,,,62,64
146040,note_on,5645,0,10,,,,,,,,8,,,,86,92
146040,note_on,40,0,3,,,,,,,,1,,,,86,92
146040,note_on,5645,0,5,,,,,,,,3,,,,86,108
146040,note_on,40,0,4,,,,,,,,2,,,,86,75
146120,note_off,80,0,10,,,,,,,,8,,,,86,64
146120,note_off,80,0,5,,,,,,,,3,,,,86,64
146155,note_off,115,0,3,,,,,,,,1,,,,86,64
146155,note_off,115,0,4,,,,,,,,2,,,,86,64
146160,note_on,40,0,10,,,,,,,,8,,,,74,92
146160,note_on,40,0,5,,,,,,,,3,,,,74,108
146240,note_off,80,0,5,,,,,,,,3,,,,74,64
146240,note_off,80,0,10,,,,,,,,8,,,,74,64
146280,note_on,40,0,10,,,,,,,,8,,,,72,92
146280,note_on,40,0,5,,,,,,,,3,,,,72,108
146360,note_off,80,0,10,,,,,,,,8,,,,72,64
146360,note_off,80,0,5,,,,,,,,3,,,,72,64
146400,note_on,40,0,10,,,,,,,,8,,,,70,92
146400,note_on,40,0,5,,,,,,,,3,,,,70,108
146440,note_off,6160,0,8,,,,,,,,6,,,,50,64
146440,note_off,6160,0,13,,,,,,,,12,,,,50,64
146480,note_off,80,0,10,,,,,,,,8,,,,70,64
146480,note_off,80,0,5,,,,,,,,3,,,,70,64
146520,note_on,40,0,5,,,,,,,,3,,,,69,108
146520,note_on,40,0,10,,,,,,,,8,,,,69,92
146600,note_off,80,0,5,,,,,,,,3,,,,69,64
146600,note_off,80,0,10,,,,,,,,8,,,,69,64
146640,note_on,40,0,5,,,,,,,,3,,,,67,108
146640,note_on,40,0,10,,,,,,,,8,,,,67,92
146720,note_off,80,0,5,,,,,,,,3,,,,67,64
146720,note_off,80,0,10,,,,,,,,8,,,,67,64
146760,note_on,40,0,5,,,,,,,,3,,,,66,108
146760,note_on,40,0,10,,,,,,,,8,,,,66,92
146840,note_off,80,0,10,,,,,,,,8,,,,66,64
146840,note_off,80,0,5,,,,,,,,3,,,,66,64
146880,note_on,40,0,10,,,,,,,,8,,,,64,92
146880,note_on,40,0,5,,,,,,,,3,,,,64,108
146960,note_off,80,0,10,,,,,,,,8,,,,64,64
146960,note_off,80,0,5,,,,,,,,3,,,,64,64
147000,note_on,40,0,10,,,,,,,,8,,,,62,92
147000,note_on,40,0,5,,,,,,,,3,,,,62,108
147080,note_off,80,0,5,,,,,,,,3,,,,62,64
147080,note_off,80,0,10,,,,,,,,8,,,,62,64
147120,note_on,40,0,10,,,,,,,,8,,,,60,92
147120,note_on,40,0,5,,,,,,,,3,,,,60,108
147200,note_off,80,0,5,,,,,,,,3,,,,60,64
147200,note_off,80,0,10,,,,,,,,8,,,,60,64
147240,note_on,40,0,10,,,,,,,,8,,,,58,92
147240,note_on,40,0,5,,,,,,,,3,,,,58,108
147320,note_off,80,0,5,,,,,,,,3,,,,58,64
147320,note_off,80,0,10,,,,,,,,8,,,,58,64
147360,note_on,40,0,5,,,,,,,,3,,,,57,108
147360,note_on,40,0,10,,,,,,,,8,,,,57,92
147440,note_off,80,0,10,,,,,,,,8,,,,57,64
147440,note_off,80,0,5,,,,,,,,3,,,,57,64
147480,note_on,40720,0,7,,,,,,,,5,,,,55,92
147480,note_on,40,0,5,,,,,,,,3,,,,55,108
147480,note_on,40720,0,9,,,,,,,,7,,,,31,92
147480,note_on,1040,0,8,,,,,,,,6,,,,43,92
147480,note_on,1040,0,13,,,,,,,,12,,,,43,92
147480,note_on,7085,0,15,,,,,,,,14,,,,31,60
147480,note_on,40,0,10,,,,,,,,8,,,,55,92
147480,note_on,23045,0,14,,,,,,,,13,,,,31,92
147560,note_off,80,0,13,,,,,,,,12,,,,43,64
147560,note_off,80,0,5,,,,,,,,3,,,,55,64
147560,note_off,80,0,8,,,,,,,,6,,,,43,64
147560,note_off,80,0,10,,,,,,,,8,,,,55,64
147560,note_off,80,0,9,,,,,,,,7,,,,31,64
147560,note_off,80,0,7,,,,,,,,5,,,,55,64
147560,note_off,80,0,14,,,,,,,,13,,,,31,64
147600,note_on,40,0,10,,,,,,,,8,,,,55,92
147600,note_on,50920,0,11,,,,,,,,10,,,,74,92
147600,note_on,40,0,5,,,,,,,,3,,,,55,108
147600,note_on,50920,0,6,,,,,,,,4,,,,74,108
147680,note_off,80,0,11,,,,,,,,10,,,,74,64
147680,note_off,80,0,5,,,,,,,,3,,,,55,64
147680,note_off,80,0,10,,,,,,,,8,,,,55,64
147680,note_off,80,0,6,,,,,,,,4,,,,74,64
147720,note_on,160,0,14,,,,,,,,13,,,,31,92
147720,note_on,160,0,13,,,,,,,,12,,,,43,92
147720,note_on,40,0,5,,,,,,,,3,,,,55,108
147720,note_on,160,0,9,,,,,,,,7,,,,31,92
147720,note_on,160,0,7,,,,,,,,5,,,,55,92
147720,note_on,40,0,10,,,,,,,,8,,,,55,92
147720,note_on,160,0,8,,,,,,,,6,,,,43,92
147720,note_on,40,0,6,,,,,,,,4,,,,72,108
147720,note_on,40,0,11,,,,,,,,10,,,,72,92
147800,note_off,80,0,9,,,,,,,,7,,,,31,64
147800,note_off,80,0,10,,,,,,,,8,,,,55,64
147800,note_off,80,0,8,,,,,,,,6,,,,43,64
147800,note_off,80,0,7,,,,,,,,5,,,,55,64
147800,note_off,80,0,6,,,,,,,,4,,,,72,64
147800,note_off,80,0,11,,,,,,,,10,,,,72,64
147800,note_off,80,0,14,,,,,,,,13,,,,31,64
147800,note_off,80,0,5,,,,,,,,3,,,,55,64
147800,note_off,80,0,13,,,,,,,,12,,,,43,64
147840,note_on,40,0,6,,,,,,,,4,,,,70,108
147840,note_on,40,0,10,,,,,,,,8,,,,55,92
147840,note_on,40,0,5,,,,,,,,3,,,,55,108
147840,note_on,40,0,11,,,,,,,,10,,,,70,92
147880,note_off,400,0,15,,,,,,,,14,,,,31,64
147920,note_off,80,0,11,,,,,,,,10,,,,70,64
147920,note_off,80,0,6,,,,,,,,4,,,,70,64
147920,note_off,80,0,5,,,,,,,,3,,,,55,64
147920,note_off,80,0,10,,,,,,,,8,,,,55,64
147960,note_on,40,0,5,,,,,,,,3,,,,55,108
147960,note_on,40,0,6,,,,,,,,4,,,,69,108
147960,note_on,160,0,7,,,,,,,,5,,,,55,92
147960,note_on,160,0,9,,,,,,,,7,,,,31,92
147960,note_on,40,0,10,,,,,,,,8,,,,55,92
147960,note_on,160,0,8,,,,,,,,6,,,,43,92
147960,note_on,40,0,11,,,,,,,,10,,,,69,92
147960,note_on,160,0,14,,,,,,,,13,,,,31,92
147960,note_on,80,0,15,,,,,,,,14,,,,31,60
147960,note_on,160,0,13,,,,,,,,12,,,,43,92
148040,note_off,80,0,7,,,,,,,,5,,,,55,64
148040,note_off,80,0,10,,,,,,,,8,,,,55,64
148040,note_off,80,0,8,,,,,,,,6,,,,43,64
148040,note_off,80,0,6,,,,,,,,4,,,,69,64
148040,note_off,80,0,9,,,,,,,,7,,,,31,64
148040,note_off,80,0,11,,,,,,,,10,,,,69,64
148040,note_off,80,0,5,,,,,,,,3,,,,55,64
148040,note_off,80,0,14,,,,,,,,13,,,,31,64
148040,note_off,80,0,13,,,,,,,,12,,,,43,64
148080,note_on,40,0,10,,,,,,,,8,,,,55,92
148080,note_on,40,0,5,,,,,,,,3,,,,55,108
148080,note_on,40,0,11,,,,,,,,10,,,,67,92
148080,note_on,40,0,6,,,,,,,,4,,,,67,108
148160,note_off,80,0,5,,,,,,,,3,,,,55,64
148160,note_off,80,0,11,,,,,,,,10,,,,67,64
148160,note_off,80,0,6,,,,,,,,4,,,,67,64
148160,note_off,80,0,10,,,,,,,,8,,,,55,64
148200,note_on,160,0,8,,,,,,,,6,,,,43,92
148200,note_on,160,0,13,,,,,,,,12,,,,43,92
148200,note_on,40,0,11,,,,,,,,10,,,,66,92
148200,note_on,160,0,14,,,,,,,,13,,,,31,92
148200,note_on,160,0,7,,,,,,,,5,,,,55,92
148200,note_on,160,0,9,,,,,,,,7,,,,31,92
148200,note_on,40,0,5,,,,,,,,3,,,,55,108
148200,note_on,40,0,6,,,,,,,,4,,,,66,108
148200,note_on,40,0,10,,,,,,,,8,,,,55,92
148280,note_off,80,0,6,,,,,,,,4,,,,66,64
148280,note_off,80,0,10,,,,,,,,8,,,,55,64
148280,note_off,80,0,14,,,,,,,,13,,,,31,64
148280,note_off,80,0,7,,,,,,,,5,,,,55,64
148280,note_off,80,0,11,,,,,,,,10,,,,66,64
148280,note_off,80,0,13,,,,,,,,12,,,,43,64
148280,note_off,80,0,8,,,,,,,,6,,,,43,64
148280,note_off,80,0,5,,,,,,,,3,,,,55,64
148280,note_off,80,0,9,,,,,,,,7,,,,31,64
148320,note_on,40,0,11,,,,,,,,10,,,,64,92
148320,note_on,40,0,6,,,,,,,,4,,,,64,108
148320,note_on,40,0,5,,,,,,,,3,,,,55,108
148320,note_on,40,0,10,,,,,,,,8,,,,55,92
148360,note_off,400,0,15,,,,,,,,14,,,,31,64
148400,note_off,80,0,10,,,,,,,,8,,,,55,64
148400,note_off,80,0,5,,,,,,,,3,,,,55,64
148400,note_off,80,0,11,,,,,,,,10,,,,64,64
148400,note_off,80,0,6,,,,,,,,4,,,,64,64
148440,note_on,160,0,13,,,,,,,,12,,,,43,92
148440,note_on,40,0,6,,,,,,,,4,,,,62,108
148440,note_on,80,0,15,,,,,,,,14,,,,31,60
148440,note_on,160,0,9,,,,,,,,7,,,,31,92
148440,note_on,40,0,10,,,,,,,,8,,,,55,92
148440,note_on,160,0,8,,,,,,,,6,,,,43,92
148440,note_on,40,0,11,,,,,,,,10,,,,62,92
148440,note_on,160,0,7,,,,,,,,5,,,,55,92
148440,note_on,160,0,14,,,,,,,,13,,,,31,92
148440,note_on,40,0,5,,,,,,,,3,,,,55,108
148520,note_off,80,0,7,,,,,,,,5,,,,55,64
148520,note_off,80,0,9,,,,,,,,7,,,,31,64
148520,note_off,80,0,11,,,,,,,,10,,,,62,64
148520,note_off,80,0,14,,,,,,,,13,,,,31,64
148520,note_off,80,0,6,,,,,,,,4,,,,62,64
148520,note_off,80,0,8,,,,,,,,6,,,,43,64
148520,note_off,80,0,13,,,,,,,,12,,,,43,64
148520,note_off,80,0,5,,,,,,,,3,,,,55,64
148520,note_off,80,0,10,,,,,,,,8,,,,55,64
148560,note_on,40,0,6,,,,,,,,4,,,,60,108
148560,note_on,40,0,11,,,,,,,,10,,,,60,92
148560,note_on,40,0,10,,,,,,,,8,,,,55,92
148560,note_on,40,0,5,,,,,,,,3,,,,55,108
148640,note_off,80,0,5,,,,,,,,3,,,,55,64
148640,note_off,80,0,10,,,,,,,,8,,,,55,64
148640,note_off,80,0,11,,,,,,,,10,,,,60,64
148640,note_off,80,0,6,,,,,,,,4,,,,60,64
148680,note_on,160,0,9,,,,,,,,7,,,,31,92
148680,note_on,160,0,8,,,,,,,,6,,,,43,92
148680,note_on,40,0,6,,,,,,,,4,,,,58,108
148680,note_on,40,0,5,,,,,,,,3,,,,55,108
148680,note_on,40,0,10,,,,,,,,8,,,,55,92
148680,note_on,160,0,7,,,,,,,,5,,,,55,92
148680,note_on,40,0,11,,,,,,,,10,,,,58,92
148680,note_on,160,0,13,,,,,,,,12,,,,43,92
148680,note_on,160,0,14,,,,,,,,13,,,,31,92
148760,note_off,80,0,9,,,,,,,,7,,,,31,64
148760,note_off,80,0,8,,,,,,,,6,,,,43,64
148760,note_off,80,0,7,,,,,,,,5,,,,55,64
148760,note_off,80,0,10,,,,,,,,8,,,,55,64
148760,note_off,80,0,13,,,,,,,,12,,,,43,64
148760,note_off,80,0,5,,,,,,,,3,,,,55,64
148760,note_off,80,0,6,,,,,,,,4,,,,58,64
148760,note_off,80,0,11,,,,,,,,10,,,,58,64
148760,note_off,80,0,14,,,,,,,,13,,,,31,64
148800,note_on,40,0,10,,,,,,,,8,,,,55,92
148800,note_on,40,0,6,,,,,,,,4,,,,57,108
148800,note_on,40,0,11,,,,,,,,10,,,,57,92
148800,note_on,40,0,5,,,,,,,,3,,,,55,108
148840,note_off,400,0,15,,,,,,,,14,,,,31,64
148880,note_off,80,0,6,,,,,,,,4,,,,57,64
148880,note_off,80,0,10,,,,,,,,8,,,,55,64
148880,note_off,80,0,5,,,,,,,,3,,,,55,64
148880,note_off,80,0,11,,,,,,,,10,,,,57,64
148920,note_on,40,0,6,,,,,,,,4,,,,55,108
148920,note_on,160,0,8,,,,,,,,6,,,,43,92
148920,note_on,160,0,13,,,,,,,,12,,,,43,92
148920,note_on,160,0,14,,,,,,,,13,,,,31,92
148920,note_on,40,0,11,,,,,,,,10,,,,55,92
148920,note_on,160,0,7,,,,,,,,5,,,,67,92
148920,note_on,40,0,5,,,,,,,,3,,,,55,108
148920,note_on,40,0,10,,,,,,,,8,,,,55,92
148920,note_on,80,0,15,,,,,,,,14,,,,31,60
148920,note_on,160,0,9,,,,,,,,7,,,,31,92
149000,note_off,80,0,9,,,,,,,,7,,,,31,64
149000,note_off,80,0,8,,,,,,,,6,,,,43,64
149000,note_off,80,0,7,,,,,,,,5,,,,67,64
149000,note_off,80,0,14,,,,,,,,13,,,,31,64
149000,note_off,80,0,13,,,,,,,,12,,,,43,64
149000,note_off,80,0,11,,,,,,,,10,,,,55,64
149000,note_off,80,0,10,,,,,,,,8,,,,55,64
149000,note_off,80,0,6,,,,,,,,4,,,,55,64
149000,note_off,80,0,5,,,,,,,,3,,,,55,64
149040,note_on,40,0,10,,,,,,,,8,,,,79,92
149040,note_on,40,0,5,,,,,,,,3,,,,79,108
149040,note_on,40,0,6,,,,,,,,4,,,,55,108
149040,note_on,40,0,11,,,,,,,,10,,,,55,92
149120,note_off,80,0,6,,,,,,,,4,,,,55,64
149120,note_off,80,0,11,,,,,,,,10,,,,55,64
149120,note_off,80,0,5,,,,,,,,3,,,,79,64
149120,note_off,80,0,10,,,,,,,,8,,,,79,64
149160,note_on,40,0,10,,,,,,,,8,,,,77,92
149160,note_on,160,0,7,,,,,,,,5,,,,67,92
149160,note_on,160,0,13,,,,,,,,12,,,,43,92
149160,note_on,40,0,6,,,,,,,,4,,,,55,108
149160,note_on,160,0,8,,,,,,,,6,,,,43,92
149160,note_on,40,0,5,,,,,,,,3,,,,77,108
149160,note_on,160,0,14,,,,,,,,13,,,,31,92
149160,note_on,40,0,11,,,,,,,,10,,,,55,92
149160,note_on,160,0,9,,,,,,,,7,,,,31,92
149240,note_off,80,0,9,,,,,,,,7,,,,31,64
149240,note_off,80,0,8,,,,,,,,6,,,,43,64
149240,note_off,80,0,5,,,,,,,,3,,,,77,64
149240,note_off,80,0,14,,,,,,,,13,,,,31,64
149240,note_off,80,0,13,,,,,,,,12,,,,43,64
149240,note_off,80,0,11,,,,,,,,10,,,,55,64
149240,note_off,80,0,7,,,,,,,,5,,,,67,64
149240,note_off,80,0,10,,,,,,,,8,,,,77,64
149240,note_off,80,0,6,,,,,,,,4,,,,55,64
149280,note_on,40,0,11,,,,,,,,10,,,,55,92
149280,note_on,40,0,10,,,,,,,,8,,,,75,92
149280,note_on,40,0,5,,,,,,,,3,,,,75,108
149280,note_on,40,0,6,,,,,,,,4,,,,55,108
149320,note_off,400,0,15,,,,,,,,14,,,,31,64
149360,note_off,80,0,10,,,,,,,,8,,,,75,64
149360,note_off,80,0,5,,,,,,,,3,,,,75,64
149360,note_off,80,0,6,,,,,,,,4,,,,55,64
149360,note_off,80,0,11,,,,,,,,10,,,,55,64
149400,note_on,80,0,15,,,,,,,,14,,,,31,60
149400,note_on,40,0,5,,,,,,,,3,,,,74,108
149400,note_on,40,0,6,,,,,,,,4,,,,55,108
149400,note_on,160,0,8,,,,,,,,6,,,,43,92
149400,note_on,160,0,7,,,,,,,,5,,,,67,92
149400,note_on,160,0,13,,,,,,,,12,,,,43,92
149400,note_on,40,0,10,,,,,,,,8,,,,74,92
149400,note_on,160,0,14,,,,,,,,13,,,,31,92
149400,note_on,160,0,9,,,,,,,,7,,,,31,92
149400,note_on,40,0,11,,,,,,,,10,,,,55,92
149480,note_off,80,0,5,,,,,,,,3,,,,74,64
149480,note_off,80,0,7,,,,,,,,5,,,,67,64
149480,note_off,80,0,13,,,,,,,,12,,,,43,64
149480,note_off,80,0,9,,,,,,,,7,,,,31,64
149480,note_off,80,0,11,,,,,,,,10,,,,55,64
149480,note_off,80,0,6,,,,,,,,4,,,,55,64
149480,note_off,80,0,14,,,,,,,,13,,,,31,64
149480,note_off,80,0,8,,,,,,,,6,,,,43,64
149480,note_off,80,0,10,,,,,,,,8,,,,74,64
149520,note_on,40,0,11,,,,,,,,10,,,,55,92
149520,note_on,40,0,6,,,,,,,,4,,,,55,108
149520,note_on,40,0,10,,,,,,,,8,,,,72,92
149520,note_on,40,0,5,,,,,,,,3,,,,72,108
149600,note_off,80,0,11,,,,,,,,10,,,,55,64
149600,note_off,80,0,5,,,,,,,,3,,,,72,64
149600,note_off,80,0,10,,,,,,,,8,,,,72,64
149600,note_off,80,0,6,,,,,,,,4,,,,55,64
149640,note_on,160,0,14,,,,,,,,13,,,,31,92
149640,note_on,40,0,6,,,,,,,,4,,,,55,108
149640,note_on,40,0,11,,,,,,,,10,,,,55,92
149640,note_on,160,0,7,,,,,,,,5,,,,67,92
149640,note_on,160,0,13,,,,,,,,12,,,,43,92
149640,note_on,160,0,9,,,,,,,,7,,,,31,92
149640,note_on,160,0,8,,,,,,,,6,,,,43,92
149640,note_on,40,0,10,,,,,,,,8,,,,70,92
149640,note_on,40,0,5,,,,,,,,3,,,,70,108
149720,note_off,80,0,6,,,,,,,,4,,,,55,64
149720,note_off,80,0,14,,,,,,,,13,,,,31,64
149720,note_off,80,0,5,,,,,,,,3,,,,70,64
149720,note_off,80,0,8,,,,,,,,6,,,,43,64
149720,note_off,80,0,13,,,,,,,,12,,,,43,64
149720,note_off,80,0,9,,,,,,,,7,,,,31,64
149720,note_off,80,0,11,,,,,,,,10,,,,55,64
149720,note_off,80,0,10,,,,,,,,8,,,,70,64
149720,note_off,80,0,7,,,,,,,,5,,,,67,64
149760,note_on,40,0,6,,,,,,,,4,,,,55,108
149760,note_on,40,0,11,,,,,,,,10,,,,55,92
149760,note_on,40,0,5,,,,,,,,3,,,,69,108
149760,note_on,40,0,10,,,,,,,,8,,,,69,92
149800,note_off,400,0,15,,,,,,,,14,,,,31,64
149840,note_off,80,0,5,,,,,,,,3,,,,69,64
149840,note_off,80,0,10,,,,,,,,8,,,,69,64
149840,note_off,80,0,6,,,,,,,,4,,,,55,64
149840,note_off,80,0,11,,,,,,,,10,,,,55,64
149880,note_on,160,0,9,,,,,,,,7,,,,31,92
149880,note_on,40,0,10,,,,,,,,8,,,,67,92
149880,note_on,40,0,6,,,,,,,,4,,,,55,108
149880,note_on,160,0,8,,,,,,,,6,,,,43,92
149880,note_on,40,0,11,,,,,,,,10,,,,55,92
149880,note_on,40,0,5,,,,,,,,3,,,,67,108
149880,note_on,160,0,13,,,,,,,,12,,,,43,92
149880,note_on,80,0,15,,,,,,,,14,,,,31,60
149880,note_on,160,0,14,,,,,,,,13,,,,31,92
149880,note_on,160,0,7,,,,,,,,5,,,,67,92
149960,note_off,80,0,10,,,,,,,,8,,,,67,64
149960,note_off,80,0,14,,,,,,,,13,,,,31,64
149960,note_off,80,0,9,,,,,,,,7,,,,31,64
149960,note_off,80,0,11,,,,,,,,10,,,,55,64
149960,note_off,80,0,6,,,,,,,,4,,,,55,64
149960,note_off,80,0,7,,,,,,,,5,,,,67,64
149960,note_off,80,0,8,,,,,,,,6,,,,43,64
149960,note_off,80,0,13,,,,,,,,12,,,,43,64
149960,note_off,80,0,5,,,,,,,,3,,,,67,64
150000,note_on,40,0,11,,,,,,,,10,,,,55,92
150000,note_on,40,0,10,,,,,,,,8,,,,65,92
150000,note_on,40,0,6,,,,,,,,4,,,,55,108
150000,note_on,40,0,5,,,,,,,,3,,,,65,108
150080,note_off,80,0,5,,,,,,,,3,,,,65,64
150080,note_off,80,0,6,,,,,,,,4,,,,55,64
150080,note_off,80,0,10,,,,,,,,8,,,,65,64
150080,note_off,80,0,11,,,,,,,,10,,,,55,64
150120,note_on,40,0,5,,,,,,,,3,,,,63,108
150120,note_on,160,0,7,,,,,,,,5,,,,67,92
150120,note_on,40,0,6,,,,,,,,4,,,,55,108
150120,note_on,160,0,8,,,,,,,,6,,,,43,92
150120,note_on,160,0,13,,,,,,,,12,,,,43,92
150120,note_on,40,0,11,,,,,,,,10,,,,55,92
150120,note_on,160,0,9,,,,,,,,7,,,,31,92
150120,note_on,40,0,10,,,,,,,,8,,,,63,92
150120,note_on,160,0,14,,,,,,,,13,,,,31,92
150200,note_off,80,0,7,,,,,,,,5,,,,67,64
150200,note_off,80,0,5,,,,,,,,3,,,,63,64
150200,note_off,80,0,8,,,,,,,,6,,,,43,64
150200,note_off,80,0,11,,,,,,,,10,,,,55,64
150200,note_off,80,0,6,,,,,,,,4,,,,55,64
150200,note_off,80,0,9,,,,,,,,7,,,,31,64
150200,note_off,80,0,10,,,,,,,,8,,,,63,64
150200,note_off,80,0,13,,,,,,,,12,,,,43,64
150200,note_off,80,0,14,,,,,,,,13,,,,31,64
150240,note_on,40,0,10,,,,,,,,8,,,,62,92
150240,note_on,40,0,6,,,,,,,,4,,,,55,108
150240,note_on,40,0,11,,,,,,,,10,,,,55,92
150240,note_on,40,0,5,,,,,,,,3,,,,62,108
150280,note_off,400,0,15,,,,,,,,14,,,,31,64
150320,note_off,80,0,10,,,,,,,,8,,,,62,64
150320,note_off,80,0,5,,,,,,,,3,,,,62,64
150320,note_off,80,0,11,,,,,,,,10,,,,55,64
150320,note_off,80,0,6,,,,,,,,4,,,,55,64
150360,note_on,40,0,11,,,,,,,,10,,,,63,92
150360,note_on,160,0,7,,,,,,,,5,,,,60,92
150360,note_on,40,0,10,,,,,,,,8,,,,60,92
150360,note_on,160,0,13,,,,,,,,12,,,,48,92
150360,note_on,80,0,15,,,,,,,,14,,,,36,60
150360,note_on,40,0,6,,,,,,,,4,,,,63,108
150360,note_on,160,0,8,,,,,,,,6,,,,48,92
150360,note_on,40,0,5,,,,,,,,3,,,,60,108
150360,note_on,160,0,14,,,,,,,,13,,,,36,92
150360,note_on,160,0,9,,,,,,,,7,,,,36,92
150440,note_off,80,0,7,,,,,,,,5,,,,60,64
150440,note_off,80,0,9,,,,,,,,7,,,,36,64
150440,note_off,80,0,13,,,,,,,,12,,,,48,64
150440,note_off,80,0,5,,,,,,,,3,,,,60,64
150440,note_off,80,0,6,,,,,,,,4,,,,63,64
150440,note_off,80,0,14,,,,,,,,13,,,,36,64
150440,note_off,80,0,10,,,,,,,,8,,,,60,64
150440,note_off,80,0,11,,,,,,,,10,,,,63,64
150440,note_off,80,0,8,,,,,,,,6,,,,48,64
150480,note_on,40,0,5,,,,,,,,3,,,,60,108
150480,note_on,40,0,10,,,,,,,,8,,,,60,92
150480,note_on,40,0,11,,,,,,,,10,,,,79,92
150480,note_on,40,0,6,,,,,,,,4,,,,79,108
150560,note_off,80,0,5,,,,,,,,3,,,,60,64
150560,note_off,80,0,10,,,,,,,,8,,,,60,64
150560,note_off,80,0,11,,,,,,,,10,,,,79,64
150560,note_off,80,0,6,,,,,,,,4,,,,79,64
150600,note_on,160,0,13,,,,,,,,12,,,,48,92
150600,note_on,160,0,9,,,,,,,,7,,,,36,92
150600,note_on,160,0,7,,,,,,,,5,,,,60,92
150600,note_on,40,0,6,,,,,,,,4,,,,77,108
150600,note_on,40,0,10,,,,,,,,8,,,,60,92
150600,note_on,160,0,8,,,,,,,,6,,,,48,92
150600,note_on,40,0,11,,,,,,,,10,,,,77,92
150600,note_on,40,0,5,,,,,,,,3,,,,60,108
150600,note_on,160,0,14,,,,,,,,13,,,,36,92
150680,note_off,80,0,14,,,,,,,,13,,,,36,64
150680,note_off,80,0,5,,,,,,,,3,,,,60,64
150680,note_off,80,0,9,,,,,,,,7,,,,36,64
150680,note_off,80,0,6,,,,,,,,4,,,,77,64
150680,note_off,80,0,7,,,,,,,,5,,,,60,64
150680,note_off,80,0,13,,,,,,,,12,,,,48,64
150680,note_off,80,0,8,,,,,,,,6,,,,48,64
150680,note_off,80,0,10,,,,,,,,8,,,,60,64
150680,note_off,80,0,11,,,,,,,,10,,,,77,64
150720,note_on,40,0,11,,,,,,,,10,,,,75,92
150720,note_on,40,0,6,,,,,,,,4,,,,75,108
150720,note_on,40,0,5,,,,,,,,3,,,,60,108
150720,note_on,40,0,10,,,,,,,,8,,,,60,92
150760,note_off,400,0,15,,,,,,,,14,,,,36,64
150800,note_off,80,0,10,,,,,,,,8,,,,60,64
150800,note_off,80,0,5,,,,,,,,3,,,,60,64
150800,note_off,80,0,6,,,,,,,,4,,,,75,64
150800,note_off,80,0,11,,,,,,,,10,,,,75,64
150840,note_on,160,0,7,,,,,,,,5,,,,60,92
150840,note_on,160,0,13,,,,,,,,12,,,,48,92
150840,note_on,40,0,5,,,,,,,,3,,,,60,108
150840,note_on,160,0,8,,,,,,,,6,,,,48,92
150840,note_on,40,0,6,,,,,,,,4,,,,74,108
150840,note_on,80,0,15,,,,,,,,14,,,,36,60
150840,note_on,160,0,14,,,,,,,,13,,,,36,92
150840,note_on,160,0,9,,,,,,,,7,,,,36,92
150840,note_on,40,0,11,,,,,,,,10,,,,74,92
150840,note_on,40,0,10,,,,,,,,8,,,,60,92
150920,note_off,80,0,10,,,,,,,,8,,,,60,64
150920,note_off,80,0,5,,,,,,,,3,,,,60,64
150920,note_off,80,0,13,,,,,,,,12,,,,48,64
150920,note_off,80,0,7,,,,,,,,5,,,,60,64
150920,note_off,80,0,11,,,,,,,,10,,,,74,64
150920,note_off,80,0,8,,,,,,,,6,,,,48,64
150920,note_off,80,0,14,,,,,,,,13,,,,36,64
150920,note_off,80,0,6,,,,,,,,4,,,,74,64
150920,note_off,80,0,9,,,,,,,,7,,,,36,64
150960,note_on,40,0,11,,,,,,,,10,,,,72,92
150960,note_on,40,0,5,,,,,,,,3,,,,60,108
150960,note_on,40,0,10,,,,,,,,8,,,,60,92
150960,note_on,40,0,6,,,,,,,,4,,,,72,108
151040,note_off,80,0,5,,,,,,,,3,,,,60,64
151040,note_off,80,0,6,,,,,,,,4,,,,72,64
151040,note_off,80,0,11,,,,,,,,10,,,,72,64
151040,note_off,80,0,10,,,,,,,,8,,,,60,64
151080,note_on,40,0,11,,,,,,,,10,,,,70,92
151080,note_on,160,0,7,,,,,,,,5,,,,60,92
151080,note_on,160,0,9,,,,,,,,7,,,,36,92
151080,note_on,160,0,14,,,,,,,,13,,,,36,92
151080,note_on,40,0,10,,,,,,,,8,,,,60,92
151080,note_on,160,0,13,,,,,,,,12,,,,48,92
151080,note_on,160,0,8,,,,,,,,6,,,,48,92
151080,note_on,40,0,6,,,,,,,,4,,,,70,108
151080,note_on,40,0,5,,,,,,,,3,,,,60,108
151160,note_off,80,0,14,,,,,,,,13,,,,36,64
151160,note_off,80,0,13,,,,,,,,12,,,,48,64
151160,note_off,80,0,11,,,,,,,,10,,,,70,64
151160,note_off,80,0,5,,,,,,,,3,,,,60,64
151160,note_off,80,0,8,,,,,,,,6,,,,48,64
151160,note_off,80,0,10,,,,,,,,8,,,,60,64
151160,note_off,80,0,6,,,,,,,,4,,,,70,64
151160,note_off,80,0,7,,,,,,,,5,,,,60,64
151160,note_off,80,0,9,,,,,,,,7,,,,36,64
151200,note_on,40,0,5,,,,,,,,3,,,,60,108
151200,note_on,40,0,10,,,,,,,,8,,,,60,92
151200,note_on,40,0,6,,,,,,,,4,,,,69,108
151200,note_on,40,0,11,,,,,,,,10,,,,69,92
151240,note_off,400,0,15,,,,,,,,14,,,,36,64
151280,note_off,80,0,11,,,,,,,,10,,,,69,64
151280,note_off,80,0,6,,,,,,,,4,,,,69,64
151280,note_off,80,0,10,,,,,,,,8,,,,60,64
151280,note_off,80,0,5,,,,,,,,3,,,,60,64
151320,note_on,40,0,11,,,,,,,,10,,,,67,92
151320,note_on,40,0,6,,,,,,,,4,,,,67,108
151320,note_on,40,0,10,,,,,,,,8,,,,60,92
151320,note_on,160,0,13,,,,,,,,12,,,,48,92
151320,note_on,160,0,8,,,,,,,,6,,,,48,92
151320,note_on,40,0,5,,,,,,,,3,,,,60,108
151320,note_on,160,0,9,,,,,,,,7,,,,36,92
151320,note_on,160,0,7,,,,,,,,5,,,,60,92
151320,note_on,80,0,15,,,,,,,,14,,,,36,60
151320,note_on,160,0,14,,,,,,,,13,,,,36,92
151400,note_off,80,0,10,,,,,,,,8,,,,60,64
151400,note_off,80,0,11,,,,,,,,10,,,,67,64
151400,note_off,80,0,8,,,,,,,,6,,,,48,64
151400,note_off,80,0,9,,,,,,,,7,,,,36,64
151400,note_off,80,0,7,,,,,,,,5,,,,60,64
151400,note_off,80,0,6,,,,,,,,4,,,,67,64
151400,note_off,80,0,14,,,,,,,,13,,,,36,64
151400,note_off,80,0,5,,,,,,,,3,,,,60,64
151400,note_off,80,0,13,,,,,,,,12,,,,48,64
151440,note_on,40,0,11,,,,,,,,10,,,,65,92
151440,note_on,40,0,5,,,,,,,,3,,,,60,108
151440,note_on,40,0,6,,,,,,,,4,,,,65,108
151440,note_on,40,0,10,,,,,,,,8,,,,60,92
151520,note_off,80,0,6,,,,,,,,4,,,,65,64
151520,note_off,80,0,5,,,,,,,,3,,,,60,64
151520,note_off,80,0,11,,,,,,,,10,,,,65,64
151520,note_off,80,0,10,,,,,,,,8,,,,60,64
151560,note_on,160,0,13,,,,,,,,12,,,,48,92
151560,note_on,160,0,8,,,,,,,,6,,,,48,92
151560,note_on,160,0,9,,,,,,,,7,,,,36,92
151560,note_on,40,0,5,,,,,,,,3,,,,60,108
151560,note_on,40,0,10,,,,,,,,8,,,,60,92
151560,note_on,40,0,11,,,,,,,,10,,,,63,92
151560,note_on,160,0,7,,,,,,,,5,,,,60,92
151560,note_on,160,0,14,,,,,,,,13,,,,36,92
151560,note_on,40,0,6,,,,,,,,4,,,,63,108
151640,note_off,80,0,13,,,,,,,,12,,,,48,64
151640,note_off,80,0,14,,,,,,,,13,,,,36,64
151640,note_off,80,0,8,,,,,,,,6,,,,48,64
151640,note_off,80,0,11,,,,,,,,10,,,,63,64
151640,note_off,80,0,5,,,,,,,,3,,,,60,64
151640,note_off,80,0,10,,,,,,,,8,,,,60,64
151640,note_off,80,0,9,,,,,,,,7,,,,36,64
151640,note_off,80,0,6,,,,,,,,4,,,,63,64
151640,note_off,80,0,7,,,,,,,,5,,,,60,64
151680,note_on,40,0,11,,,,,,,,10,,,,62,92
151680,note_on,40,0,10,,,,,,,,8,,,,60,92
151680,note_on,40,0,6,,,,,,,,4,,,,62,108
151680,note_on,40,0,5,,,,,,,,3,,,,60,108
151720,note_off,400,0,15,,,,,,,,14,,,,36,64
151760,note_off,80,0,11,,,,,,,,10,,,,62,64
151760,note_off,80,0,5,,,,,,,,3,,,,60,64
151760,note_off,80,0,6,,,,,,,,4,,,,62,64
151760,note_off,80,0,10,,,,,,,,8,,,,60,64
151800,note_on,160,0,13,,,,,,,,12,,,,48,92
151800,note_on,160,0,9,,,,,,,,7,,,,36,92
151800,note_on,80,0,15,,,,,,,,14,,,,36,60
151800,note_on,160,0,8,,,,,,,,6,,,,48,92
151800,note_on,40,0,11,,,,,,,,10,,,,60,92
151800,note_on,40,0,5,,,,,,,,3,,,,60,108
151800,note_on,40,0,10,,,,,,,,8,,,,60,92
151800,note_on,160,0,7,,,,,,,,5,,,,72,92
151800,note_on,40,0,6,,,,,,,,4,,,,60,108
151800,note_on,160,0,14,,,,,,,,13,,,,36,92
151880,note_off,80,0,10,,,,,,,,8,,,,60,64
151880,note_off,80,0,9,,,,,,,,7,,,,36,64
151880,note_off,80,0,6,,,,,,,,4,,,,60,64
151880,note_off,80,0,8,,,,,,,,6,,,,48,64
151880,note_off,80,0,7,,,,,,,,5,,,,72,64
151880,note_off,80,0,5,,,,,,,,3,,,,60,64
151880,note_off,80,0,11,,,,,,,,10,,,,60,64
151880,note_off,80,0,13,,,,,,,,12,,,,48,64
151880,note_off,80,0,14,,,,,,,,13,,,,36,64
151920,note_on,40,0,6,,,,,,,,4,,,,60,108
151920,note_on,40,0,5,,,,,,,,3,,,,82,108
151920,note_on,40,0,10,,,,,,,,8,,,,82,92
151920,note_on,40,0,11,,,,,,,,10,,,,60,92
152000,note_off,80,0,5,,,,,,,,3,,,,82,64
152000,note_off,80,0,11,,,,,,,,10,,,,60,64
152000,note_off,80,0,10,,,,,,,,8,,,,82,64
152000,note_off,80,0,6,,,,,,,,4,,,,60,64
152040,note_on,160,0,8,,,,,,,,6,,,,48,92
152040,note_on,160,0,13,,,,,,,,12,,,,48,92
152040,note_on,40,0,5,,,,,,,,3,,,,81,108
152040,note_on,160,0,14,,,,,,,,13,,,,36,92
152040,note_on,160,0,9,,,,,,,,7,,,,36,92
152040,note_on,40,0,6,,,,,,,,4,,,,60,108
152040,note_on,40,0,10,,,,,,,,8,,,,81,92
152040,note_on,160,0,7,,,,,,,,5,,,,72,92
152040,note_on,40,0,11,,,,,,,,10,,,,60,92
152120,note_off,80,0,9,,,,,,,,7,,,,36,64
152120,note_off,80,0,7,,,,,,,,5,,,,72,64
152120,note_off,80,0,8,,,,,,,,6,,,,48,64
152120,note_off,80,0,6,,,,,,,,4,,,,60,64
152120,note_off,80,0,13,,,,,,,,12,,,,48,64
152120,note_off,80,0,11,,,,,,,,10,,,,60,64
152120,note_off,80,0,5,,,,,,,,3,,,,81,64
152120,note_off,80,0,14,,,,,,,,13,,,,36,64
152120,note_off,80,0,10,,,,,,,,8,,,,81,64
152160,note_on,40,0,6,,,,,,,,4,,,,60,108
152160,note_on,40,0,10,,,,,,,,8,,,,79,92
152160,note_on,40,0,11,,,,,,,,10,,,,60,92
152160,note_on,40,0,5,,,,,,,,3,,,,79,108
152200,note_off,400,0,15,,,,,,,,14,,,,36,64
152240,note_off,80,0,5,,,,,,,,3,,,,79,64
152240,note_off,80,0,10,,,,,,,,8,,,,79,64
152240,note_off,80,0,11,,,,,,,,10,,,,60,64
152240,note_off,80,0,6,,,,,,,,4,,,,60,64
152280,note_on,160,0,14,,,,,,,,13,,,,36,92
152280,note_on,40,0,5,,,,,,,,3,,,,77,108
152280,note_on,160,0,7,,,,,,,,5,,,,72,92
152280,note_on,160,0,8,,,,,,,,6,,,,48,92
152280,note_on,80,0,15,,,,,,,,14,,,,36,60
152280,note_on,160,0,9,,,,,,,,7,,,,36,92
152280,note_on,160,0,13,,,,,,,,12,,,,48,92
152280,note_on,40,0,6,,,,,,,,4,,,,60,108
152280,note_on,40,0,10,,,,,,,,8,,,,77,92
152280,note_on,40,0,11,,,,,,,,10,,,,60,92
152360,note_off,80,0,11,,,,,,,,10,,,,60,64
152360,note_off,80,0,9,,,,,,,,7,,,,36,64
152360,note_off,80,0,14,,,,,,,,13,,,,36,64
152360,note_off,80,0,6,,,,,,,,4,,,,60,64
152360,note_off,80,0,8,,,,,,,,6,,,,48,64
152360,note_off,80,0,13,,,,,,,,12,,,,48,64
152360,note_off,80,0,10,,,,,,,,8,,,,77,64
152360,note_off,80,0,5,,,,,,,,3,,,,77,64
152360,note_off,80,0,7,,,,,,,,5,,,,72,64
152400,note_on,40,0,11,,,,,,,,10,,,,60,92
152400,note_on,40,0,5,,,,,,,,3,,,,75,108
152400,note_on,40,0,6,,,,,,,,4,,,,60,108
152400,note_on,40,0,10,,,,,,,,8,,,,75,92
152480,note_off,80,0,6,,,,,,,,4,,,,60,64
152480,note_off,80,0,11,,,,,,,,10,,,,60,64
152480,note_off,80,0,10,,,,,,,,8,,,,75,64
152480,note_off,80,0,5,,,,,,,,3,,,,75,64
152520,note_on,160,0,7,,,,,,,,5,,,,72,92
152520,note_on,160,0,9,,,,,,,,7,,,,36,92
152520,note_on,160,0,14,,,,,,,,13,,,,36,92
152520,note_on,160,0,8,,,,,,,,6,,,,48,92
152520,note_on,40,0,10,,,,,,,,8,,,,74,92
152520,note_on,160,0,13,,,,,,,,12,,,,48,92
152520,note_on,40,0,6,,,,,,,,4,,,,60,108
152520,note_on,40,0,11,,,,,,,,10,,,,60,92
152520,note_on,40,0,5,,,,,,,,3,,,,74,108
152600,note_off,80,0,6,,,,,,,,4,,,,60,64
152600,note_off,80,0,9,,,,,,,,7,,,,36,64
152600,note_off,80,0,11,,,,,,,,10,,,,60,64
152600,note_off,80,0,13,,,,,,,,12,,,,48,64
152600,note_off,80,0,8,,,,,,,,6,,,,48,64
152600,note_off,80,0,10,,,,,,,,8,,,,74,64
152600,note_off,80,0,5,,,,,,,,3,,,,74,64
152600,note_off,80,0,7,,,,,,,,5,,,,72,64
152600,note_off,80,0,14,,,,,,,,13,,,,36,64
152640,note_on,40,0,11,,,,,,,,10,,,,60,92
152640,note_on,40,0,6,,,,,,,,4,,,,60,108
152640,note_on,40,0,10,,,,,,,,8,,,,72,92
152640,note_on,40,0,5,,,,,,,,3,,,,72,108
152680,note_off,400,0,15,,,,,,,,14,,,,36,64
152720,note_off,80,0,10,,,,,,,,8,,,,72,64
152720,note_off,80,0,11,,,,,,,,10,,,,60,64
152720,note_off,80,0,6,,,,,,,,4,,,,60,64
152720,note_off,80,0,5,,,,,,,,3,,,,72,64
152760,note_on,160,0,14,,,,,,,,13,,,,36,92
152760,note_on,160,0,9,,,,,,,,7,,,,36,92
152760,note_on,160,0,13,,,,,,,,12,,,,48,92
152760,note_on,40,0,11,,,,,,,,10,,,,60,92
152760,note_on,80,0,15,,,,,,,,14,,,,36,60
152760,note_on,160,0,8,,,,,,,,6,,,,48,92
152760,note_on,160,0,7,,,,,,,,5,,,,72,92
152760,note_on,40,0,5,,,,,,,,3,,,,70,108
152760,note_on,40,0,6,,,,,,,,4,,,,60,108
152760,note_on,40,0,10,,,,,,,,8,,,,70,92
152840,note_off,80,0,5,,,,,,,,3,,,,70,64
152840,note_off,80,0,6,,,,,,,,4,,,,60,64
152840,note_off,80,0,9,,,,,,,,7,,,,36,64
152840,note_off,80,0,10,,,,,,,,8,,,,70,64
152840,note_off,80,0,7,,,,,,,,5,,,,72,64
152840,note_off,80,0,8,,,,,,,,6,,,,48,64
152840,note_off,80,0,11,,,,,,,,10,,,,60,64
152840,note_off,80,0,14,,,,,,,,13,,,,36,64
152840,note_off,80,0,13,,,,,,,,12,,,,48,64
152880,note_on,40,0,6,,,,,,,,4,,,,60,108
152880,note_on,40,0,11,,,,,,,,10,,,,60,92
152880,note_on,40,0,10,,,,,,,,8,,,,69,92
152880,note_on,40,0,5,,,,,,,,3,,,,69,108
152960,note_off,80,0,5,,,,,,,,3,,,,69,64
152960,note_off,80,0,6,,,,,,,,4,,,,60,64
152960,note_off,80,0,10,,,,,,,,8,,,,69,64
152960,note_off,80,0,11,,,,,,,,10,,,,60,64
153000,note_on,160,0,13,,,,,,,,12,,,,48,92
153000,note_on,40,0,11,,,,,,,,10,,,,60,92
153000,note_on,160,0,9,,,,,,,,7,,,,36,92
153000,note_on,160,0,8,,,,,,,,6,,,,48,92
153000,note_on,160,0,14,,,,,,,,13,,,,36,92
153000,note_on,160,0,7,,,,,,,,5,,,,72,92
153000,note_on,40,0,5,,,,,,,,3,,,,67,108
153000,note_on,40,0,6,,,,,,,,4,,,,60,108
153000,note_on,40,0,10,,,,,,,,8,,,,67,92
153080,note_off,80,0,14,,,,,,,,13,,,,36,64
153080,note_off,80,0,7,,,,,,,,5,,,,72,64
153080,note_off,80,0,8,,,,,,,,6,,,,48,64
153080,note_off,80,0,9,,,,,,,,7,,,,36,64
153080,note_off,80,0,5,,,,,,,,3,,,,67,64
153080,note_off,80,0,10,,,,,,,,8,,,,67,64
153080,note_off,80,0,6,,,,,,,,4,,,,60,64
153080,note_off,80,0,13,,,,,,,,12,,,,48,64
153080,note_off,80,0,11,,,,,,,,10,,,,60,64
153120,note_on,40,0,5,,,,,,,,3,,,,65,108
153120,note_on,40,0,6,,,,,,,,4,,,,60,108
153120,note_on,40,0,10,,,,,,,,8,,,,65,92
153120,note_on,40,0,11,,,,,,,,10,,,,60,92
153160,note_off,400,0,15,,,,,,,,14,,,,36,64
153200,note_off,80,0,11,,,,,,,,10,,,,60,64
153200,note_off,80,0,10,,,,,,,,8,,,,65,64
153200,note_off,80,0,6,,,,,,,,4,,,,60,64
153200,note_off,80,0,5,,,,,,,,3,,,,65,64
153240,note_on,40,0,10,,,,,,,,8,,,,63,92
153240,note_on,160,0,14,,,,,,,,13,,,,39,92
153240,note_on,160,0,8,,,,,,,,6,,,,51,92
153240,note_on,80,0,15,,,,,,,,14,,,,39,60
153240,note_on,160,0,13,,,,,,,,12,,,,51,92
153240,note_on,160,0,9,,,,,,,,7,,,,39,92
153240,note_on,40,0,11,,,,,,,,10,,,,67,92
153240,note_on,40,0,5,,,,,,,,3,,,,63,108
153240,note_on,160,0,7,,,,,,,,5,,,,63,92
153240,note_on,40,0,6,,,,,,,,4,,,,67,108
153320,note_off,80,0,14,,,,,,,,13,,,,39,64
153320,note_off,80,0,9,,,,,,,,7,,,,39,64
153320,note_off,80,0,8,,,,,,,,6,,,,51,64
153320,note_off,80,0,10,,,,,,,,8,,,,63,64
153320,note_off,80,0,5,,,,,,,,3,,,,63,64
153320,note_off,80,0,11,,,,,,,,10,,,,67,64
153320,note_off,80,0,13,,,,,,,,12,,,,51,64
153320,note_off,80,0,7,,,,,,,,5,,,,63,64
153320,note_off,80,0,6,,,,,,,,4,,,,67,64
153360,note_on,40,0,10,,,,,,,,8,,,,63,92
153360,note_on,40,0,11,,,,,,,,10,,,,82,92
153360,note_on,40,0,5,,,,,,,,3,,,,63,108
153360,note_on,40,0,6,,,,,,,,4,,,,82,108
153440,note_off,80,0,11,,,,,,,,10,,,,82,64
153440,note_off,80,0,10,,,,,,,,8,,,,63,64
153440,note_off,80,0,6,,,,,,,,4,,,,82,64
153440,note_off,80,0,5,,,,,,,,3,,,,63,64
153480,note_on,40,0,5,,,,,,,,3,,,,63,108
153480,note_on,160,0,7,,,,,,,,5,,,,63,92
153480,note_on,160,0,9,,,,,,,,7,,,,39,92
153480,note_on,160,0,8,,,,,,,,6,,,,51,92
153480,note_on,40,0,11,,,,,,,,10,,,,81,92
153480,note_on,40,0,6,,,,,,,,4,,,,81,108
153480,note_on,160,0,13,,,,,,,,12,,,,51,92
153480,note_on,40,0,10,,,,,,,,8,,,,63,92
153480,note_on,160,0,14,,,,,,,,13,,,,39,92
153560,note_off,80,0,7,,,,,,,,5,,,,63,64
153560,note_off,80,0,9,,,,,,,,7,,,,39,64
153560,note_off,80,0,8,,,,,,,,6,,,,51,64
153560,note_off,80,0,11,,,,,,,,10,,,,81,64
153560,note_off,80,0,14,,,,,,,,13,,,,39,64
153560,note_off,80,0,10,,,,,,,,8,,,,63,64
153560,note_off,80,0,13,,,,,,,,12,,,,51,64
153560,note_off,80,0,6,,,,,,,,4,,,,81,64
153560,note_off,80,0,5,,,,,,,,3,,,,63,64
153600,note_on,40,0,10,,,,,,,,8,,,,63,92
153600,note_on,40,0,6,,,,,,,,4,,,,79,108
153600,note_on,40,0,5,,,,,,,,3,,,,63,108
153600,note_on,40,0,11,,,,,,,,10,,,,79,92
153640,note_off,400,0,15,,,,,,,,14,,,,39,64
153680,note_off,80,0,6,,,,,,,,4,,,,79,64
153680,note_off,80,0,11,,,,,,,,10,,,,79,64
153680,note_off,80,0,10,,,,,,,,8,,,,63,64
153680,note_off,80,0,5,,,,,,,,3,,,,63,64
153720,note_on,160,0,7,,,,,,,,5,,,,63,92
153720,note_on,40,0,10,,,,,,,,8,,,,63,92
153720,note_on,160,0,13,,,,,,,,12,,,,51,92
153720,note_on,80,0,15,,,,,,,,14,,,,39,60
153720,note_on,40,0,5,,,,,,,,3,,,,63,108
153720,note_on,40,0,6,,,,,,,,4,,,,77,108
153720,note_on,160,0,14,,,,,,,,13,,,,39,92
153720,note_on,160,0,9,,,,,,,,7,,,,39,92
153720,note_on,40,0,11,,,,,,,,10,,,,77,92
153720,note_on,160,0,8,,,,,,,,6,,,,51,92
153800,note_off,80,0,9,,,,,,,,7,,,,39,64
153800,note_off,80,0,10,,,,,,,,8,,,,63,64
153800,note_off,80,0,13,,,,,,,,12,,,,51,64
153800,note_off,80,0,14,,,,,,,,13,,,,39,64
153800,note_off,80,0,11,,,,,,,,10,,,,77,64
153800,note_off,80,0,6,,,,,,,,4,,,,77,64
153800,note_off,80,0,7,,,,,,,,5,,,,63,64
153800,note_off,80,0,5,,,,,,,,3,,,,63,64
153800,note_off,80,0,8,,,,,,,,6,,,,51,64
153840,note_on,40,0,6,,,,,,,,4,,,,75,108
153840,note_on,40,0,5,,,,,,,,3,,,,63,108
153840,note_on,40,0,10,,,,,,,,8,,,,63,92
153840,note_on,40,0,11,,,,,,,,10,,,,75,92
153920,note_off,80,0,11,,,,,,,,10,,,,75,64
153920,note_off,80,0,5,,,,,,,,3,,,,63,64
153920,note_off,80,0,10,,,,,,,,8,,,,63,64
153920,note_off,80,0,6,,,,,,,,4,,,,75,64
153960,note_on,40,0,11,,,,,,,,10,,,,74,92
153960,note_on,160,0,13,,,,,,,,12,,,,51,92
153960,note_on,160,0,14,,,,,,,,13,,,,39,92
153960,note_on,40,0,6,,,,,,,,4,,,,74,108
153960,note_on,160,0,8,,,,,,,,6,,,,51,92
153960,note_on,160,0,9,,,,,,,,7,,,,39,92
153960,note_on,160,0,7,,,,,,,,5,,,,63,92
153960,note_on,40,0,5,,,,,,,,3,,,,63,108
153960,note_on,40,0,10,,,,,,,,8,,,,63,92
154040,note_off,80,0,7,,,,,,,,5,,,,63,64
154040,note_off,80,0,8,,,,,,,,6,,,,51,64
154040,note_off,80,0,9,,,,,,,,7,,,,39,64
154040,note_off,80,0,6,,,,,,,,4,,,,74,64
154040,note_off,80,0,11,,,,,,,,10,,,,74,64
154040,note_off,80,0,5,,,,,,,,3,,,,63,64
154040,note_off,80,0,14,,,,,,,,13,,,,39,64
154040,note_off,80,0,10,,,,,,,,8,,,,63,64
154040,note_off,80,0,13,,,,,,,,12,,,,51,64
154080,note_on,40,0,10,,,,,,,,8,,,,63,92
154080,note_on,40,0,11,,,,,,,,10,,,,72,92
154080,note_on,40,0,5,,,,,,,,3,,,,63,108
154080,note_on,40,0,6,,,,,,,,4,,,,72,108
154120,note_off,400,0,15,,,,,,,,14,,,,39,64
154160,note_off,80,0,11,,,,,,,,10,,,,72,64
154160,note_off,80,0,10,,,,,,,,8,,,,63,64
154160,note_off,80,0,5,,,,,,,,3,,,,63,64
154160,note_off,80,0,6,,,,,,,,4,,,,72,64
154200,note_on,160,0,13,,,,,,,,12,,,,51,92
154200,note_on,40,0,6,,,,,,,,4,,,,70,108
154200,note_on,40,0,10,,,,,,,,8,,,,63,92
154200,note_on,40,0,5,,,,,,,,3,,,,63,108
154200,note_on,160,0,7,,,,,,,,5,,,,63,92
154200,note_on,80,0,15,,,,,,,,14,,,,39,60
154200,note_on,40,0,11,,,,,,,,10,,,,70,92
154200,note_on,160,0,14,,,,,,,,13,,,,39,92
154200,note_on,160,0,9,,,,,,,,7,,,,39,92
154200,note_on,160,0,8,,,,,,,,6,,,,51,92
154280,note_off,80,0,6,,,,,,,,4,,,,70,64
154280,note_off,80,0,14,,,,,,,,13,,,,39,64
154280,note_off,80,0,9,,,,,,,,7,,,,39,64
154280,note_off,80,0,10,,,,,,,,8,,,,63,64
154280,note_off,80,0,13,,,,,,,,12,,,,51,64
154280,note_off,80,0,5,,,,,,,,3,,,,63,64
154280,note_off,80,0,11,,,,,,,,10,,,,70,64
154280,note_off,80,0,8,,,,,,,,6,,,,51,64
154280,note_off,80,0,7,,,,,,,,5,,,,63,64
154320,note_on,40,0,6,,,,,,,,4,,,,69,108
154320,note_on,40,0,11,,,,,,,,10,,,,69,92
154320,note_on,40,0,5,,,,,,,,3,,,,63,108
154320,note_on,40,0,10,,,,,,,,8,,,,63,92
154400,note_off,80,0,10,,,,,,,,8,,,,63,64
154400,note_off,80,0,6,,,,,,,,4,,,,69,64
154400,note_off,80,0,11,,,,,,,,10,,,,69,64
154400,note_off,80,0,5,,,,,,,,3,,,,63,64
154440,note_on,40,0,6,,,,,,,,4,,,,67,108
154440,note_on,160,0,7,,,,,,,,5,,,,63,92
154440,note_on,160,0,8,,,,,,,,6,,,,51,92
154440,note_on,160,0,14,,,,,,,,13,,,,39,92
154440,note_on,160,0,9,,,,,,,,7,,,,39,92
154440,note_on,40,0,10,,,,,,,,8,,,,63,92
154440,note_on,160,0,13,,,,,,,,12,,,,51,92
154440,note_on,40,0,5,,,,,,,,3,,,,63,108
154440,note_on,40,0,11,,,,,,,,10,,,,67,92
154520,note_off,80,0,14,,,,,,,,13,,,,39,64
154520,note_off,80,0,10,,,,,,,,8,,,,63,64
154520,note_off,80,0,9,,,,,,,,7,,,,39,64
154520,note_off,80,0,13,,,,,,,,12,,,,51,64
154520,note_off,80,0,8,,,,,,,,6,,,,51,64
154520,note_off,80,0,5,,,,,,,,3,,,,63,64
154520,note_off,80,0,11,,,,,,,,10,,,,67,64
154520,note_off,80,0,6,,,,,,,,4,,,,67,64
154520,note_off,80,0,7,,,,,,,,5,,,,63,64
154560,note_on,40,0,11,,,,,,,,10,,,,65,92
154560,note_on,40,0,6,,,,,,,,4,,,,65,108
154560,note_on,40,0,10,,,,,,,,8,,,,63,92
154560,note_on,40,0,5,,,,,,,,3,,,,63,108
154600,note_off,400,0,15,,,,,,,,14,,,,39,64
154640,note_off,80,0,6,,,,,,,,4,,,,65,64
154640,note_off,80,0,10,,,,,,,,8,,,,63,64
154640,note_off,80,0,11,,,,,,,,10,,,,65,64
154640,note_off,80,0,5,,,,,,,,3,,,,63,64
154680,note_on,160,0,13,,,,,,,,12,,,,51,92
154680,note_on,40,0,6,,,,,,,,4,,,,63,108
154680,note_on,40,0,5,,,,,,,,3,,,,63,108
154680,note_on,80,0,15,,,,,,,,14,,,,39,60
154680,note_on,40,0,10,,,,,,,,8,,,,63,92
154680,note_on,160,0,14,,,,,,,,13,,,,39,92
154680,note_on,160,0,8,,,,,,,,6,,,,51,92
154680,note_on,160,0,9,,,,,,,,7,,,,39,92
154680,note_on,40,0,11,,,,,,,,10,,,,63,92
154680,note_on,160,0,7,,,,,,,,5,,,,75,92
154760,note_off,80,0,7,,,,,,,,5,,,,75,64
154760,note_off,80,0,14,,,,,,,,13,,,,39,64
154760,note_off,80,0,10,,,,,,,,8,,,,63,64
154760,note_off,80,0,9,,,,,,,,7,,,,39,64
154760,note_off,80,0,5,,,,,,,,3,,,,63,64
154760,note_off,80,0,8,,,,,,,,6,,,,51,64
154760,note_off,80,0,11,,,,,,,,10,,,,63,64
154760,note_off,80,0,6,,,,,,,,4,,,,63,64
154760,note_off,80,0,13,,,,,,,,12,,,,51,64
154800,note_on,40,0,5,,,,,,,,3,,,,86,108
154800,note_on,40,0,6,,,,,,,,4,,,,63,108
154800,note_on,40,0,10,,,,,,,,8,,,,86,92
154800,note_on,40,0,11,,,,,,,,10,,,,63,92
154880,note_off,80,0,6,,,,,,,,4,,,,63,64
154880,note_off,80,0,5,,,,,,,,3,,,,86,64
154880,note_off,80,0,11,,,,,,,,10,,,,63,64
154880,note_off,80,0,10,,,,,,,,8,,,,86,64
154920,note_on,160,0,9,,,,,,,,7,,,,39,92
154920,note_on,40,0,5,,,,,,,,3,,,,84,108
154920,note_on,160,0,8,,,,,,,,6,,,,51,92
154920,note_on,40,0,10,,,,,,,,8,,,,84,92
154920,note_on,160,0,13,,,,,,,,12,,,,51,92
154920,note_on,160,0,14,,,,,,,,13,,,,39,92
154920,note_on,160,0,7,,,,,,,,5,,,,75,92
154920,note_on,40,0,11,,,,,,,,10,,,,63,92
154920,note_on,40,0,6,,,,,,,,4,,,,63,108
155000,note_off,80,0,10,,,,,,,,8,,,,84,64
155000,note_off,80,0,5,,,,,,,,3,,,,84,64
155000,note_off,80,0,14,,,,,,,,13,,,,39,64
155000,note_off,80,0,9,,,,,,,,7,,,,39,64
155000,note_off,80,0,11,,,,,,,,10,,,,63,64
155000,note_off,80,0,13,,,,,,,,12,,,,51,64
155000,note_off,80,0,7,,,,,,,,5,,,,75,64
155000,note_off,80,0,6,,,,,,,,4,,,,63,64
155000,note_off,80,0,8,,,,,,,,6,,,,51,64
155040,note_on,40,0,6,,,,,,,,4,,,,63,108
155040,note_on,40,0,5,,,,,,,,3,,,,82,108
155040,note_on,40,0,11,,,,,,,,10,,,,63,92
155040,note_on,40,0,10,,,,,,,,8,,,,82,92
155080,note_off,400,0,15,,,,,,,,14,,,,39,64
155120,note_off,80,0,5,,,,,,,,3,,,,82,64
155120,note_off,80,0,11,,,,,,,,10,,,,63,64
155120,note_off,80,0,6,,,,,,,,4,,,,63,64
155120,note_off,80,0,10,,,,,,,,8,,,,82,64
155160,note_on,40,0,6,,,,,,,,4,,,,63,108
155160,note_on,40,0,11,,,,,,,,10,,,,63,92
155160,note_on,160,0,13,,,,,,,,12,,,,51,92
155160,note_on,160,0,7,,,,,,,,5,,,,75,92
155160,note_on,40,0,10,,,,,,,,8,,,,81,92
155160,note_on,40,0,5,,,,,,,,3,,,,81,108
155160,note_on,80,0,15,,,,,,,,14,,,,39,60
155160,note_on,160,0,14,,,,,,,,13,,,,39,92
155160,note_on,160,0,9,,,,,,,,7,,,,39,92
155160,note_on,160,0,8,,,,,,,,6,,,,51,92
155240,note_off,80,0,11,,,,,,,,10,,,,63,64
155240,note_off,80,0,9,,,,,,,,7,,,,39,64
155240,note_off,80,0,10,,,,,,,,8,,,,81,64
155240,note_off,80,0,6,,,,,,,,4,,,,63,64
155240,note_off,80,0,8,,,,,,,,6,,,,51,64
155240,note_off,80,0,14,,,,,,,,13,,,,39,64
155240,note_off,80,0,5,,,,,,,,3,,,,81,64
155240,note_off,80,0,7,,,,,,,,5,,,,75,64
155240,note_off,80,0,13,,,,,,,,12,,,,51,64
155280,note_on,40,0,10,,,,,,,,8,,,,79,92
155280,note_on,40,0,5,,,,,,,,3,,,,79,108
155280,note_on,40,0,6,,,,,,,,4,,,,63,108
155280,note_on,40,0,11,,,,,,,,10,,,,63,92
155360,note_off,80,0,6,,,,,,,,4,,,,63,64
155360,note_off,80,0,10,,,,,,,,8,,,,79,64
155360,note_off,80,0,5,,,,,,,,3,,,,79,64
155360,note_off,80,0,11,,,,,,,,10,,,,63,64
155400,note_on,160,0,14,,,,,,,,13,,,,39,92
155400,note_on,160,0,9,,,,,,,,7,,,,39,92
155400,note_on,40,0,11,,,,,,,,10,,,,63,92
155400,note_on,40,0,5,,,,,,,,3,,,,78,108
155400,note_on,40,0,6,,,,,,,,4,,,,63,108
155400,note_on,40,0,10,,,,,,,,8,,,,78,92
155400,note_on,160,0,8,,,,,,,,6,,,,51,92
155400,note_on,160,0,7,,,,,,,,5,,,,75,92
155400,note_on,160,0,13,,,,,,,,12,,,,51,92
155480,note_off,80,0,11,,,,,,,,10,,,,63,64
155480,note_off,80,0,10,,,,,,,,8,,,,78,64
155480,note_off,80,0,14,,,,,,,,13,,,,39,64
155480,note_off,80,0,8,,,,,,,,6,,,,51,64
155480,note_off,80,0,9,,,,,,,,7,,,,39,64
155480,note_off,80,0,7,,,,,,,,5,,,,75,64
155480,note_off,80,0,13,,,,,,,,12,,,,51,64
155480,note_off,80,0,6,,,,,,,,4,,,,63,64
155480,note_off,80,0,5,,,,,,,,3,,,,78,64
155520,note_on,40,0,11,,,,,,,,10,,,,63,92
155520,note_on,40,0,10,,,,,,,,8,,,,76,92
155520,note_on,40,0,6,,,,,,,,4,,,,63,108
155520,note_on,40,0,5,,,,,,,,3,,,,76,108
155560,note_off,400,0,15,,,,,,,,14,,,,39,64
155600,note_off,80,0,11,,,,,,,,10,,,,63,64
155600,note_off,80,0,6,,,,,,,,4,,,,63,64
155600,note_off,80,0,5,,,,,,,,3,,,,76,64
155600,note_off,80,0,10,,,,,,,,8,,,,76,64
155640,note_on,160,0,9,,,,,,,,7,,,,39,92
155640,note_on,160,0,8,,,,,,,,6,,,,51,92
155640,note_on,160,0,7,,,,,,,,5,,,,75,92
155640,note_on,160,0,14,,,,,,,,13,,,,39,92
155640,note_on,40,0,10,,,,,,,,8,,,,74,92
155640,note_on,80,0,15,,,,,,,,14,,,,39,60
155640,note_on,160,0,13,,,,,,,,12,,,,51,92
155640,note_on,40,0,11,,,,,,,,10,,,,63,92
155640,note_on,40,0,5,,,,,,,,3,,,,74,108
155640,note_on,40,0,6,,,,,,,,4,,,,63,108
155720,note_off,80,0,7,,,,,,,,5,,,,75,64
155720,note_off,80,0,10,,,,,,,,8,,,,74,64
155720,note_off,80,0,9,,,,,,,,7,,,,39,64
155720,note_off,80,0,8,,,,,,,,6,,,,51,64
155720,note_off,80,0,14,,,,,,,,13,,,,39,64
155720,note_off,80,0,13,,,,,,,,12,,,,51,64
155720,note_off,80,0,5,,,,,,,,3,,,,74,64
155720,note_off,80,0,6,,,,,,,,4,,,,63,64
155720,note_off,80,0,11,,,,,,,,10,,,,63,64
155760,note_on,40,0,11,,,,,,,,10,,,,63,92
155760,note_on,40,0,5,,,,,,,,3,,,,72,108
155760,note_on,40,0,10,,,,,,,,8,,,,72,92
155760,note_on,40,0,6,,,,,,,,4,,,,63,108
155840,note_off,80,0,11,,,,,,,,10,,,,63,64
155840,note_off,80,0,5,,,,,,,,3,,,,72,64
155840,note_off,80,0,10,,,,,,,,8,,,,72,64
155840,note_off,80,0,6,,,,,,,,4,,,,63,64
155880,note_on,40,0,10,,,,,,,,8,,,,70,92
155880,note_on,160,0,8,,,,,,,,6,,,,51,92
155880,note_on,160,0,13,,,,,,,,12,,,,51,92
155880,note_on,40,0,6,,,,,,,,4,,,,63,108
155880,note_on,160,0,7,,,,,,,,5,,,,75,92
155880,note_on,160,0,14,,,,,,,,13,,,,39,92
155880,note_on,40,0,11,,,,,,,,10,,,,63,92
155880,note_on,40,0,5,,,,,,,,3,,,,70,108
155880,note_on,160,0,9,,,,,,,,7,,,,39,92
155960,note_off,80,0,13,,,,,,,,12,,,,51,64
155960,note_off,80,0,6,,,,,,,,4,,,,63,64
155960,note_off,80,0,14,,,,,,,,13,,,,39,64
155960,note_off,80,0,8,,,,,,,,6,,,,51,64
155960,note_off,80,0,11,,,,,,,,10,,,,63,64
155960,note_off,80,0,9,,,,,,,,7,,,,39,64
155960,note_off,80,0,5,,,,,,,,3,,,,70,64
155960,note_off,80,0,10,,,,,,,,8,,,,70,64
155960,note_off,80,0,7,,,,,,,,5,,,,75,64
156000,note_on,40,0,5,,,,,,,,3,,,,69,108
156000,note_on,40,0,10,,,,,,,,8,,,,69,92
156000,note_on,40,0,6,,,,,,,,4,,,,63,108
156000,note_on,40,0,11,,,,,,,,10,,,,63,92
156040,note_off,400,0,15,,,,,,,,14,,,,39,64
156080,note_off,80,0,5,,,,,,,,3,,,,69,64
156080,note_off,80,0,11,,,,,,,,10,,,,63,64
156080,note_off,80,0,6,,,,,,,,4,,,,63,64
156080,note_off,80,0,10,,,,,,,,8,,,,69,64
156120,note_on,160,0,7,,,,,,,,5,,,,67,92
156120,note_on,40,0,5,,,,,,,,3,,,,67,108
156120,note_on,160,0,13,,,,,,,,12,,,,55,92
156120,note_on,160,0,14,,,,,,,,13,,,,43,92
156120,note_on,160,0,8,,,,,,,,6,,,,55,92
156120,note_on,40,0,6,,,,,,,,4,,,,70,108
156120,note_on,80,0,15,,,,,,,,14,,,,43,60
156120,note_on,160,0,9,,,,,,,,7,,,,43,92
156120,note_on,40,0,10,,,,,,,,8,,,,67,92
156120,note_on,40,0,11,,,,,,,,10,,,,70,92
156200,note_off,80,0,10,,,,,,,,8,,,,67,64
156200,note_off,80,0,5,,,,,,,,3,,,,67,64
156200,note_off,80,0,13,,,,,,,,12,,,,55,64
156200,note_off,80,0,9,,,,,,,,7,,,,43,64
156200,note_off,80,0,14,,,,,,,,13,,,,43,64
156200,note_off,80,0,8,,,,,,,,6,,,,55,64
156200,note_off,80,0,7,,,,,,,,5,,,,67,64
156200,note_off,80,0,6,,,,,,,,4,,,,70,64
156200,note_off,80,0,11,,,,,,,,10,,,,70,64
156240,note_on,40,0,11,,,,,,,,10,,,,86,92
156240,note_on,40,0,6,,,,,,,,4,,,,86,108
156240,note_on,40,0,10,,,,,,,,8,,,,67,92
156240,note_on,40,0,5,,,,,,,,3,,,,67,108
156320,note_off,80,0,6,,,,,,,,4,,,,86,64
156320,note_off,80,0,10,,,,,,,,8,,,,67,64
156320,note_off,80,0,5,,,,,,,,3,,,,67,64
156320,note_off,80,0,11,,,,,,,,10,,,,86,64
156360,note_on,160,0,8,,,,,,,,6,,,,55,92
156360,note_on,40,0,5,,,,,,,,3,,,,67,108
156360,note_on,160,0,14,,,,,,,,13,,,,43,92
156360,note_on,40,0,11,,,,,,,,10,,,,84,92
156360,note_on,160,0,7,,,,,,,,5,,,,67,92
156360,note_on,40,0,10,,,,,,,,8,,,,67,92
156360,note_on,160,0,9,,,,,,,,7,,,,43,92
156360,note_on,40,0,6,,,,,,,,4,,,,84,108
156360,note_on,160,0,13,,,,,,,,12,,,,55,92
156440,note_off,80,0,5,,,,,,,,3,,,,67,64
156440,note_off,80,0,11,,,,,,,,10,,,,84,64
156440,note_off,80,0,9,,,,,,,,7,,,,43,64
156440,note_off,80,0,10,,,,,,,,8,,,,67,64
156440,note_off,80,0,6,,,,,,,,4,,,,84,64
156440,note_off,80,0,7,,,,,,,,5,,,,67,64
156440,note_off,80,0,14,,,,,,,,13,,,,43,64
156440,note_off,80,0,8,,,,,,,,6,,,,55,64
156440,note_off,80,0,13,,,,,,,,12,,,,55,64
156480,note_on,40,0,10,,,,,,,,8,,,,67,92
156480,note_on,40,0,6,,,,,,,,4,,,,82,108
156480,note_on,40,0,11,,,,,,,,10,,,,82,92
156480,note_on,40,0,5,,,,,,,,3,,,,67,108
156520,note_off,400,0,15,,,,,,,,14,,,,43,64
156560,note_off,80,0,10,,,,,,,,8,,,,67,64
156560,note_off,80,0,6,,,,,,,,4,,,,82,64
156560,note_off,80,0,11,,,,,,,,10,,,,82,64
156560,note_off,80,0,5,,,,,,,,3,,,,67,64
156600,note_on,160,0,13,,,,,,,,12,,,,55,92
156600,note_on,40,0,5,,,,,,,,3,,,,67,108
156600,note_on,40,0,11,,,,,,,,10,,,,81,92
156600,note_on,160,0,14,,,,,,,,13,,,,43,92
156600,note_on,160,0,7,,,,,,,,5,,,,67,92
156600,note_on,40,0,10,,,,,,,,8,,,,67,92
156600,note_on,160,0,8,,,,,,,,6,,,,55,92
156600,note_on,160,0,9,,,,,,,,7,,,,43,92
156600,note_on,40,0,6,,,,,,,,4,,,,81,108
156600,note_on,80,0,15,,,,,,,,14,,,,43,60
156680,note_off,80,0,14,,,,,,,,13,,,,43,64
156680,note_off,80,0,10,,,,,,,,8,,,,67,64
156680,note_off,80,0,7,,,,,,,,5,,,,67,64
156680,note_off,80,0,9,,,,,,,,7,,,,43,64
156680,note_off,80,0,5,,,,,,,,3,,,,67,64
156680,note_off,80,0,11,,,,,,,,10,,,,81,64
156680,note_off,80,0,13,,,,,,,,12,,,,55,64
156680,note_off,80,0,8,,,,,,,,6,,,,55,64
156680,note_off,80,0,6,,,,,,,,4,,,,81,64
156720,note_on,40,0,6,,,,,,,,4,,,,79,108
156720,note_on,40,0,11,,,,,,,,10,,,,79,92
156720,note_on,40,0,5,,,,,,,,3,,,,67,108
156720,note_on,40,0,10,,,,,,,,8,,,,67,92
156800,note_off,80,0,5,,,,,,,,3,,,,67,64
156800,note_off,80,0,10,,,,,,,,8,,,,67,64
156800,note_off,80,0,6,,,,,,,,4,,,,79,64
156800,note_off,80,0,11,,,,,,,,10,,,,79,64
156840,note_on,160,0,8,,,,,,,,6,,,,55,92
156840,note_on,40,0,6,,,,,,,,4,,,,78,108
156840,note_on,160,0,14,,,,,,,,13,,,,43,92
156840,note_on,40,0,5,,,,,,,,3,,,,67,108
156840,note_on,40,0,10,,,,,,,,8,,,,67,92
156840,note_on,40,0,11,,,,,,,,10,,,,78,92
156840,note_on,160,0,9,,,,,,,,7,,,,43,92
156840,note_on,160,0,7,,,,,,,,5,,,,67,92
156840,note_on,160,0,13,,,,,,,,12,,,,55,92
156920,note_off,80,0,9,,,,,,,,7,,,,43,64
156920,note_off,80,0,6,,,,,,,,4,,,,78,64
156920,note_off,80,0,8,,,,,,,,6,,,,55,64
156920,note_off,80,0,13,,,,,,,,12,,,,55,64
156920,note_off,80,0,5,,,,,,,,3,,,,67,64
156920,note_off,80,0,14,,,,,,,,13,,,,43,64
156920,note_off,80,0,7,,,,,,,,5,,,,67,64
156920,note_off,80,0,10,,,,,,,,8,,,,67,64
156920,note_off,80,0,11,,,,,,,,10,,,,78,64
156960,note_on,40,0,10,,,,,,,,8,,,,67,92
156960,note_on,40,0,5,,,,,,,,3,,,,67,108
156960,note_on,40,0,11,,,,,,,,10,,,,76,92
156960,note_on,40,0,6,,,,,,,,4,,,,76,108
157000,note_off,400,0,15,,,,,,,,14,,,,43,64
157040,note_off,80,0,5,,,,,,,,3,,,,67,64
157040,note_off,80,0,6,,,,,,,,4,,,,76,64
157040,note_off,80,0,10,,,,,,,,8,,,,67,64
157040,note_off,80,0,11,,,,,,,,10,,,,76,64
157080,note_on,40,0,10,,,,,,,,8,,,,67,92
157080,note_on,160,0,8,,,,,,,,6,,,,55,92
157080,note_on,40,0,11,,,,,,,,10,,,,74,92
157080,note_on,160,0,9,,,,,,,,7,,,,43,92
157080,note_on,40,0,6,,,,,,,,4,,,,74,108
157080,note_on,160,0,14,,,,,,,,13,,,,43,92
157080,note_on,160,0,13,,,,,,,,12,,,,55,92
157080,note_on,160,0,7,,,,,,,,5,,,,67,92
157080,note_on,40,0,5,,,,,,,,3,,,,67,108
157080,note_on,80,0,15,,,,,,,,14,,,,43,60
157160,note_off,80,0,9,,,,,,,,7,,,,43,64
157160,note_off,80,0,13,,,,,,,,12,,,,55,64
157160,note_off,80,0,8,,,,,,,,6,,,,55,64
157160,note_off,80,0,10,,,,,,,,8,,,,67,64
157160,note_off,80,0,7,,,,,,,,5,,,,67,64
157160,note_off,80,0,6,,,,,,,,4,,,,74,64
157160,note_off,80,0,14,,,,,,,,13,,,,43,64
157160,note_off,80,0,5,,,,,,,,3,,,,67,64
157160,note_off,80,0,11,,,,,,,,10,,,,74,64
157200,note_on,40,0,5,,,,,,,,3,,,,67,108
157200,note_on,40,0,6,,,,,,,,4,,,,72,108
157200,note_on,40,0,10,,,,,,,,8,,,,67,92
157200,note_on,40,0,11,,,,,,,,10,,,,72,92
157280,note_off,80,0,5,,,,,,,,3,,,,67,64
157280,note_off,80,0,10,,,,,,,,8,,,,67,64
157280,note_off,80,0,6,,,,,,,,4,,,,72,64
157280,note_off,80,0,11,,,,,,,,10,,,,72,64
157320,note_on,160,0,7,,,,,,,,5,,,,67,92
157320,note_on,40,0,11,,,,,,,,10,,,,70,92
157320,note_on,160,0,9,,,,,,,,7,,,,43,92
157320,note_on,40,0,5,,,,,,,,3,,,,67,108
157320,note_on,160,0,8,,,,,,,,6,,,,55,92
157320,note_on,160,0,13,,,,,,,,12,,,,55,92
157320,note_on,40,0,6,,,,,,,,4,,,,70,108
157320,note_on,40,0,10,,,,,,,,8,,,,67,92
157320,note_on,160,0,14,,,,,,,,13,,,,43,92
157400,note_off,80,0,9,,,,,,,,7,,,,43,64
157400,note_off,80,0,5,,,,,,,,3,,,,67,64
157400,note_off,80,0,7,,,,,,,,5,,,,67,64
157400,note_off,80,0,11,,,,,,,,10,,,,70,64
157400,note_off,80,0,14,,,,,,,,13,,,,43,64
157400,note_off,80,0,10,,,,,,,,8,,,,67,64
157400,note_off,80,0,8,,,,,,,,6,,,,55,64
157400,note_off,80,0,13,,,,,,,,12,,,,55,64
157400,note_off,80,0,6,,,,,,,,4,,,,70,64
157440,note_on,40,0,10,,,,,,,,8,,,,67,92
157440,note_on,40,0,11,,,,,,,,10,,,,69,92
157440,note_on,40,0,5,,,,,,,,3,,,,67,108
157440,note_on,40,0,6,,,,,,,,4,,,,69,108
157480,note_off,400,0,15,,,,,,,,14,,,,43,64
157520,note_off,80,0,11,,,,,,,,10,,,,69,64
157520,note_off,80,0,6,,,,,,,,4,,,,69,64
157520,note_off,80,0,5,,,,,,,,3,,,,67,64
157520,note_off,80,0,10,,,,,,,,8,,,,67,64
157560,note_on,160,0,14,,,,,,,,13,,,,43,60
157560,note_on,80,0,15,,,,,,,,14,,,,43,60
157560,note_on,11405,0,3,,,,,,,,1,,,,74,92
157560,note_on,160,0,8,,,,,,,,6,,,,55,60
157560,note_on,160,0,9,,,,,,,,7,,,,43,60
157560,note_on,40,0,5,,,,,,,,3,,,,67,108
157560,note_on,40,0,10,,,,,,,,8,,,,67,60
157560,note_on,160,0,13,,,,,,,,12,,,,55,60
157560,note_on,11405,0,4,,,,,,,,2,,,,74,75
157640,note_off,80,0,3,,,,,,,,1,,,,74,64
157640,note_off,80,0,4,,,,,,,,2,,,,74,64
157680,note_on,40,0,4,,,,,,,,2,,,,67,75
157680,note_on,40,0,3,,,,,,,,1,,,,67,92
157760,note_off,80,0,3,,,,,,,,1,,,,67,64
157760,note_off,80,0,4,,,,,,,,2,,,,67,64
157800,note_on,40,0,3,,,,,,,,1,,,,55,92
157800,note_on,40,0,4,,,,,,,,2,,,,55,75
157880,note_off,80,0,3,,,,,,,,1,,,,55,64
157880,note_off,80,0,4,,,,,,,,2,,,,55,64
157920,note_on,40,0,4,,,,,,,,2,,,,67,75
157920,note_on,40,0,3,,,,,,,,1,,,,67,92
157960,note_off,400,0,14,,,,,,,,13,,,,43,64
157960,note_off,400,0,15,,,,,,,,14,,,,43,64
157960,note_off,400,0,8,,,,,,,,6,,,,55,64
157960,note_off,400,0,9,,,,,,,,7,,,,43,64
157960,note_off,400,0,5,,,,,,,,3,,,,67,64
157960,note_off,400,0,13,,,,,,,,12,,,,55,64
157960,note_off,400,0,10,,,,,,,,8,,,,67,64
158000,note_off,80,0,4,,,,,,,,2,,,,67,64
158000,note_off,80,0,3,,,,,,,,1,,,,67,64
158040,note_on,80,0,13,,,,,,,,12,,,,43,45
158040,note_on,40,0,3,,,,,,,,1,,,,75,92
158040,note_on,80,0,14,,,,,,,,13,,,,31,45
158040,note_on,80,0,10,,,,,,,,8,,,,55,45
158040,note_on,80,0,5,,,,,,,,3,,,,55,45
158040,note_on,80,0,8,,,,,,,,6,,,,43,45
158040,note_on,40,0,4,,,,,,,,2,,,,75,75
158040,note_on,80,0,15,,,,,,,,14,,,,31,30
158040,note_on,80,0,9,,,,,,,,7,,,,31,45
158120,note_off,80,0,3,,,,,,,,1,,,,75,64
158120,note_off,80,0,4,,,,,,,,2,,,,75,64
158160,note_on,40,0,4,,,,,,,,2,,,,67,75
158160,note_on,40,0,3,,,,,,,,1,,,,67,92
158240,note_off,80,0,4,,,,,,,,2,,,,67,64
158240,note_off,80,0,3,,,,,,,,1,,,,67,64
158280,note_on,40,0,4,,,,,,,,2,,,,55,75
158280,note_on,40,0,3,,,,,,,,1,,,,55,92
158360,note_off,80,0,4,,,,,,,,2,,,,55,64
158360,note_off,80,0,3,,,,,,,,1,,,,55,64
158400,note_on,40,0,4,,,,,,,,2,,,,67,75
158400,note_on,40,0,3,,,,,,,,1,,,,67,92
158440,note_off,400,0,13,,,,,,,,12,,,,43,64
158440,note_off,400,0,10,,,,,,,,8,,,,55,64
158440,note_off,400,0,9,,,,,,,,7,,,,31,64
158440,note_off,400,0,5,,,,,,,,3,,,,55,64
158440,note_off,400,0,14,,,,,,,,13,,,,31,64
158440,note_off,400,0,15,,,,,,,,14,,,,31,64
158440,note_off,400,0,8,,,,,,,,6,,,,43,64
158480,note_off,80,0,4,,,,,,,,2,,,,67,64
158480,note_off,80,0,3,,,,,,,,1,,,,67,64
158520,note_on,80,0,15,,,,,,,,14,,,,31,30
158520,note_on,40,0,4,,,,,,,,2,,,,78,75
158520,note_on,80,0,14,,,,,,,,13,,,,31,45
158520,note_on,80,0,9,,,,,,,,7,,,,31,45
158520,note_on,80,0,13,,,,,,,,12,,,,43,45
158520,note_on,80,0,10,,,,,,,,8,,,,55,45
158520,note_on,80,0,5,,,,,,,,3,,,,55,45
158520,note_on,40,0,3,,,,,,,,1,,,,78,92
158520,note_on,80,0,8,,,,,,,,6,,,,43,45
158600,note_off,80,0,4,,,,,,,,2,,,,78,64
158600,note_off,80,0,3,,,,,,,,1,,,,78,64
158640,note_on,40,0,4,,,,,,,,2,,,,67,75
158640,note_on,40,0,3,,,,,,,,1,,,,67,92
158720,note_off,80,0,3,,,,,,,,1,,,,67,64
158720,note_off,80,0,4,,,,,,,,2,,,,67,64
158760,note_on,40,0,3,,,,,,,,1,,,,55,92
158760,note_on,40,0,4,,,,,,,,2,,,,55,75
158840,note_off,80,0,4,,,,,,,,2,,,,55,64
158840,note_off,80,0,3,,,,,,,,1,,,,55,64
158880,note_on,40,0,3,,,,,,,,1,,,,67,92
158880,note_on,40,0,4,,,,,,,,2,,,,67,75
158920,note_off,400,0,9,,,,,,,,7,,,,31,64
158920,note_off,400,0,15,,,,,,,,14,,,,31,64
158920,note_off,400,0,5,,,,,,,,3,,,,55,64
158920,note_off,400,0,8,,,,,,,,6,,,,43,64
158920,note_off,400,0,10,,,,,,,,8,,,,55,64
158920,note_off,400,0,14,,,,,,,,13,,,,31,64
158920,note_off,400,0,13,,,,,,,,12,,,,43,64
158960,note_off,80,0,4,,,,,,,,2,,,,67,64
158960,note_off,80,0,3,,,,,,,,1,,,,67,64
159000,note_on,80,0,15,,,,,,,,14,,,,31,30
159000,note_on,80,0,9,,,,,,,,7,,,,31,45
159000,note_on,40,0,4,,,,,,,,2,,,,79,75
159000,note_on,80,0,8,,,,,,,,6,,,,43,45
159000,note_on,80,0,10,,,,,,,,8,,,,55,45
159000,note_on,80,0,13,,,,,,,,12,,,,43,45
159000,note_on,40,0,3,,,,,,,,1,,,,79,92
159000,note_on,80,0,14,,,,,,,,13,,,,31,45
159000,note_on,80,0,5,,,,,,,,3,,,,55,45
159080,note_off,80,0,4,,,,,,,,2,,,,79,64
159080,note_off,80,0,3,,,,,,,,1,,,,79,64
159120,note_on,40,0,4,,,,,,,,2,,,,67,75
159120,note_on,40,0,3,,,,,,,,1,,,,67,92
159200,note_off,80,0,4,,,,,,,,2,,,,67,64
159200,note_off,80,0,3,,,,,,,,1,,,,67,64
159240,note_on,40,0,3,,,,,,,,1,,,,55,92
159240,note_on,40,0,4,,,,,,,,2,,,,55,75
159320,note_off,80,0,3,,,,,,,,1,,,,55,64
159320,note_off,80,0,4,,,,,,,,2,,,,55,64
159360,note_on,40,0,4,,,,,,,,2,,,,67,75
159360,note_on,40,0,3,,,,,,,,1,,,,67,92
159400,note_off,400,0,5,,,,,,,,3,,,,55,64
159400,note_off,400,0,15,,,,,,,,14,,,,31,64
159400,note_off,400,0,9,,,,,,,,7,,,,31,64
159400,note_off,400,0,10,,,,,,,,8,,,,55,64
159400,note_off,400,0,14,,,,,,,,13,,,,31,64
159400,note_off,400,0,8,,,,,,,,6,,,,43,64
159400,note_off,400,0,13,,,,,,,,12,,,,43,64
159440,note_off,80,0,3,,,,,,,,1,,,,67,64
159440,note_off,80,0,4,,,,,,,,2,,,,67,64
159480,note_on,80,0,14,,,,,,,,13,,,,31,45
159480,note_on,80,0,5,,,,,,,,3,,,,55,45
159480,note_on,80,0,8,,,,,,,,6,,,,43,45
159480,note_on,40,0,3,,,,,,,,1,,,,77,92
159480,note_on,80,0,9,,,,,,,,7,,,,31,45
159480,note_on,80,0,15,,,,,,,,14,,,,31,30
159480,note_on,40,0,4,,,,,,,,2,,,,77,75
159480,note_on,80,0,10,,,,,,,,8,,,,55,45
159480,note_on,80,0,13,,,,,,,,12,,,,43,45
159560,note_off,80,0,4,,,,,,,,2,,,,77,64
159560,note_off,80,0,3,,,,,,,,1,,,,77,64
159600,note_on,40,0,4,,,,,,,,2,,,,67,75
159600,note_on,40,0,3,,,,,,,,1,,,,67,92
159680,note_off,80,0,3,,,,,,,,1,,,,67,64
159680,note_off,80,0,4,,,,,,,,2,,,,67,64
159720,note_on,40,0,4,,,,,,,,2,,,,55,75
159720,note_on,40,0,3,,,,,,,,1,,,,55,92
159800,note_off,80,0,3,,,,,,,,1,,,,55,64
159800,note_off,80,0,4,,,,,,,,2,,,,55,64
159840,note_on,40,0,3,,,,,,,,1,,,,67,92
159840,note_on,40,0,4,,,,,,,,2,,,,67,75
159880,note_off,400,0,9,,,,,,,,7,,,,31,64
159880,note_off,400,0,10,,,,,,,,8,,,,55,64
159880,note_off,400,0,13,,,,,,,,12,,,,43,64
159880,note_off,400,0,14,,,,,,,,13,,,,31,64
159880,note_off,400,0,15,,,,,,,,14,,,,31,64
159880,note_off,400,0,5,,,,,,,,3,,,,55,64
159880,note_off,400,0,8,,,,,,,,6,,,,43,64
159920,note_off,80,0,3,,,,,,,,1,,,,67,64
159920,note_off,80,0,4,,,,,,,,2,,,,67,64
159960,note_on,40,0,3,,,,,,,,1,,,,75,92
159960,note_on,40,0,4,,,,,,,,2,,,,75,75
159960,note_on,80,0,9,,,,,,,,7,,,,31,45
159960,note_on,80,0,14,,,,,,,,13,,,,31,45
159960,note_on,80,0,10,,,,,,,,8,,,,55,45
159960,note_on,80,0,13,,,,,,,,12,,,,43,45
159960,note_on,80,0,8,,,,,,,,6,,,,43,45
159960,note_on,80,0,5,,,,,,,,3,,,,55,45
159960,note_on,80,0,15,,,,,,,,14,,,,31,30
160040,note_off,80,0,3,,,,,,,,1,,,,75,64
160040,note_off,80,0,4,,,,,,,,2,,,,75,64
160080,note_on,40,0,3,,,,,,,,1,,,,67,92
160080,note_on,40,0,4,,,,,,,,2,,,,67,75
160160,note_off,80,0,3,,,,,,,,1,,,,67,64
160160,note_off,80,0,4,,,,,,,,2,,,,67,64
160200,note_on,40,0,3,,,,,,,,1,,,,55,92
160200,note_on,40,0,4,,,,,,,,2,,,,55,75
160280,note_off,80,0,4,,,,,,,,2,,,,55,64
160280,note_off,80,0,3,,,,,,,,1,,,,55,64
160320,note_on,40,0,4,,,,,,,,2,,,,67,75
160320,note_on,40,0,3,,,,,,,,1,,,,67,92
160360,note_off,400,0,5,,,,,,,,3,,,,55,64
160360,note_off,400,0,15,,,,,,,,14,,,,31,64
160360,note_off,400,0,13,,,,,,,,12,,,,43,64
160360,note_off,400,0,10,,,,,,,,8,,,,55,64
160360,note_off,400,0,9,,,,,,,,7,,,,31,64
160360,note_off,400,0,14,,,,,,,,13,,,,31,64
160360,note_off,400,0,8,,,,,,,,6,,,,43,64
160400,note_off,80,0,4,,,,,,,,2,,,,67,64
160400,note_off,80,0,3,,,,,,,,1,,,,67,64
160440,note_on,80,0,15,,,,,,,,14,,,,31,30
160440,note_on,80,0,9,,,,,,,,7,,,,31,45
160440,note_on,80,0,14,,,,,,,,13,,,,31,45
160440,note_on,80,0,5,,,,,,,,3,,,,55,45
160440,note_on,80,0,13,,,,,,,,12,,,,43,45
160440,note_on,40,0,3,,,,,,,,1,,,,74,92
160440,note_on,80,0,8,,,,,,,,6,,,,43,45
160440,note_on,80,0,10,,,,,,,,8,,,,55,45
160440,note_on,40,0,4,,,,,,,,2,,,,74,75
160520,note_off,80,0,3,,,,,,,,1,,,,74,64
160520,note_off,80,0,4,,,,,,,,2,,,,74,64
160560,note_on,40,0,3,,,,,,,,1,,,,67,92
160560,note_on,40,0,4,,,,,,,,2,,,,67,75
160640,note_off,80,0,3,,,,,,,,1,,,,67,64
160640,note_off,80,0,4,,,,,,,,2,,,,67,64
160680,note_on,40,0,4,,,,,,,,2,,,,55,75
160680,note_on,40,0,3,,,,,,,,1,,,,55,92
160760,note_off,80,0,4,,,,,,,,2,,,,55,64
160760,note_off,80,0,3,,,,,,,,1,,,,55,64
160800,note_on,40,0,4,,,,,,,,2,,,,67,75
160800,note_on,40,0,3,,,,,,,,1,,,,67,92
160840,note_off,400,0,9,,,,,,,,7,,,,31,64
160840,note_off,400,0,10,,,,,,,,8,,,,55,64
160840,note_off,400,0,15,,,,,,,,14,,,,31,64
160840,note_off,400,0,8,,,,,,,,6,,,,43,64
160840,note_off,400,0,13,,,,,,,,12,,,,43,64
160840,note_off,400,0,14,,,,,,,,13,,,,31,64
160840,note_off,400,0,5,,,,,,,,3,,,,55,64
160880,note_off,80,0,3,,,,,,,,1,,,,67,64
160880,note_off,80,0,4,,,,,,,,2,,,,67,64
160920,note_on,80,0,10,,,,,,,,8,,,,55,45
160920,note_on,40,0,3,,,,,,,,1,,,,76,92
160920,note_on,80,0,8,,,,,,,,6,,,,43,45
160920,note_on,80,0,5,,,,,,,,3,,,,55,45
160920,note_on,80,0,9,,,,,,,,7,,,,31,45
160920,note_on,80,0,15,,,,,,,,14,,,,31,30
160920,note_on,80,0,13,,,,,,,,12,,,,43,45
160920,note_on,80,0,14,,,,,,,,13,,,,31,45
160920,note_on,40,0,4,,,,,,,,2,,,,76,75
161000,note_off,80,0,3,,,,,,,,1,,,,76,64
161000,note_off,80,0,4,,,,,,,,2,,,,76,64
161040,note_on,40,0,4,,,,,,,,2,,,,67,75
161040,note_on,40,0,3,,,,,,,,1,,,,67,92
161120,note_off,80,0,3,,,,,,,,1,,,,67,64
161120,note_off,80,0,4,,,,,,,,2,,,,67,64
161160,note_on,40,0,4,,,,,,,,2,,,,55,75
161160,note_on,40,0,3,,,,,,,,1,,,,55,92
161240,note_off,80,0,4,,,,,,,,2,,,,55,64
161240,note_off,80,0,3,,,,,,,,1,,,,55,64
161280,note_on,40,0,4,,,,,,,,2,,,,67,75
161280,note_on,40,0,3,,,,,,,,1,,,,67,92
161320,note_off,400,0,5,,,,,,,,3,,,,55,64
161320,note_off,400,0,13,,,,,,,,12,,,,43,64
161320,note_off,400,0,15,,,,,,,,14,,,,31,64
161320,note_off,400,0,8,,,,,,,,6,,,,43,64
161320,note_off,400,0,10,,,,,,,,8,,,,55,64
161320,note_off,400,0,9,,,,,,,,7,,,,31,64
161320,note_off,400,0,14,,,,,,,,13,,,,31,64
161360,note_off,80,0,4,,,,,,,,2,,,,67,64
161360,note_off,80,0,3,,,,,,,,1,,,,67,64
161400,note_on,80,0,9,,,,,,,,7,,,,31,45
161400,note_on,40,0,4,,,,,,,,2,,,,78,75
161400,note_on,80,0,10,,,,,,,,8,,,,55,45
161400,note_on,80,0,5,,,,,,,,3,,,,55,45
161400,note_on,80,0,13,,,,,,,,12,,,,43,45
161400,note_on,40,0,3,,,,,,,,1,,,,78,92
161400,note_on,80,0,14,,,,,,,,13,,,,31,45
161400,note_on,80,0,8,,,,,,,,6,,,,43,45
161400,note_on,80,0,15,,,,,,,,14,,,,31,30
161480,note_off,80,0,3,,,,,,,,1,,,,78,64
161480,note_off,80,0,4,,,,,,,,2,,,,78,64
161520,note_on,40,0,3,,,,,,,,1,,,,67,92
161520,note_on,40,0,4,,,,,,,,2,,,,67,75
161600,note_off,80,0,4,,,,,,,,2,,,,67,64
161600,note_off,80,0,3,,,,,,,,1,,,,67,64
161640,note_on,40,0,3,,,,,,,,1,,,,55,92
161640,note_on,40,0,4,,,,,,,,2,,,,55,75
161720,note_off,80,0,4,,,,,,,,2,,,,55,64
161720,note_off,80,0,3,,,,,,,,1,,,,55,64
161760,note_on,40,0,3,,,,,,,,1,,,,67,92
161760,note_on,40,0,4,,,,,,,,2,,,,67,75
161800,note_off,400,0,9,,,,,,,,7,,,,31,64
161800,note_off,400,0,10,,,,,,,,8,,,,55,64
161800,note_off,400,0,5,,,,,,,,3,,,,55,64
161800,note_off,400,0,15,,,,,,,,14,,,,31,64
161800,note_off,400,0,13,,,,,,,,12,,,,43,64
161800,note_off,400,0,14,,,,,,,,13,,,,31,64
161800,note_off,400,0,8,,,,,,,,6,,,,43,64
161840,note_off,80,0,4,,,,,,,,2,,,,67,64
161840,note_off,80,0,3,,,,,,,,1,,,,67,64
161880,note_on,40,0,4,,,,,,,,2,,,,79,75
161880,note_on,80,0,14,,,,,,,,13,,,,31,45
161880,note_on,80,0,10,,,,,,,,8,,,,55,45
161880,note_on,80,0,5,,,,,,,,3,,,,55,45
161880,note_on,80,0,13,,,,,,,,12,,,,43,45
161880,note_on,80,0,15,,,,,,,,14,,,,31,30
161880,note_on,40,0,3,,,,,,,,1,,,,79,92
161880,note_on,80,0,9,,,,,,,,7,,,,31,45
161880,note_on,80,0,8,,,,,,,,6,,,,43,45
161960,note_off,80,0,4,,,,,,,,2,,,,79,64
161960,note_off,80,0,3,,,,,,,,1,,,,79,64
162000,note_on,40,0,4,,,,,,,,2,,,,67,75
162000,note_on,40,0,3,,,,,,,,1,,,,67,92
162080,note_off,80,0,3,,,,,,,,1,,,,67,64
162080,note_off,80,0,4,,,,,,,,2,,,,67,64
162120,note_on,40,0,4,,,,,,,,2,,,,55,75
162120,note_on,40,0,3,,,,,,,,1,,,,55,92
162200,note_off,80,0,4,,,,,,,,2,,,,55,64
162200,note_off,80,0,3,,,,,,,,1,,,,55,64
162240,note_on,40,0,3,,,,,,,,1,,,,67,92
162240,note_on,40,0,4,,,,,,,,2,,,,67,75
162280,note_off,400,0,9,,,,,,,,7,,,,31,64
162280,note_off,400,0,10,,,,,,,,8,,,,55,64
162280,note_off,400,0,5,,,,,,,,3,,,,55,64
162280,note_off,400,0,15,,,,,,,,14,,,,31,64
162280,note_off,400,0,13,,,,,,,,12,,,,43,64
162280,note_off,400,0,8,,,,,,,,6,,,,43,64
162280,note_off,400,0,14,,,,,,,,13,,,,31,64
162320,note_off,80,0,3,,,,,,,,1,,,,67,64
162320,note_off,80,0,4,,,,,,,,2,,,,67,64
162360,note_on,80,0,14,,,,,,,,13,,,,31,45
162360,note_on,80,0,15,,,,,,,,14,,,,31,30
162360,note_on,80,0,13,,,,,,,,12,,,,43,45
162360,note_on,80,0,10,,,,,,,,8,,,,55,45
162360,note_on,80,0,8,,,,,,,,6,,,,43,45
162360,note_on,80,0,9,,,,,,,,7,,,,31,45
162360,note_on,80,0,5,,,,,,,,3,,,,55,45
162360,note_on,40,0,3,,,,,,,,1,,,,77,92
162360,note_on,40,0,4,,,,,,,,2,,,,77,75
162440,note_off,80,0,3,,,,,,,,1,,,,77,64
162440,note_off,80,0,4,,,,,,,,2,,,,77,64
162480,note_on,40,0,3,,,,,,,,1,,,,67,92
162480,note_on,40,0,4,,,,,,,,2,,,,67,75
162560,note_off,80,0,3,,,,,,,,1,,,,67,64
162560,note_off,80,0,4,,,,,,,,2,,,,67,64
162600,note_on,40,0,4,,,,,,,,2,,,,55,75
162600,note_on,40,0,3,,,,,,,,1,,,,55,92
162680,note_off,80,0,4,,,,,,,,2,,,,55,64
162680,note_off,80,0,3,,,,,,,,1,,,,55,64
162720,note_on,40,0,4,,,,,,,,2,,,,67,75
162720,note_on,40,0,3,,,,,,,,1,,,,67,92
162760,note_off,400,0,10,,,,,,,,8,,,,55,64
162760,note_off,400,0,8,,,,,,,,6,,,,43,64
162760,note_off,400,0,13,,,,,,,,12,,,,43,64
162760,note_off,400,0,9,,,,,,,,7,,,,31,64
162760,note_off,400,0,5,,,,,,,,3,,,,55,64
162760,note_off,400,0,14,,,,,,,,13,,,,31,64
162760,note_off,400,0,15,,,,,,,,14,,,,31,64
162800,note_off,80,0,4,,,,,,,,2,,,,67,64
162800,note_off,80,0,3,,,,,,,,1,,,,67,64
162840,note_on,40,0,4,,,,,,,,2,,,,75,75
162840,note_on,80,0,14,,,,,,,,13,,,,31,45
162840,note_on,80,0,15,,,,,,,,14,,,,31,30
162840,note_on,40,0,3,,,,,,,,1,,,,75,92
162840,note_on,80,0,9,,,,,,,,7,,,,31,45
162840,note_on,80,0,10,,,,,,,,8,,,,55,45
162840,note_on,80,0,5,,,,,,,,3,,,,55,45
162840,note_on,80,0,8,,,,,,,,6,,,,43,45
162840,note_on,80,0,13,,,,,,,,12,,,,43,45
162920,note_off,80,0,4,,,,,,,,2,,,,75,64
162920,note_off,80,0,3,,,,,,,,1,,,,75,64
162960,note_on,40,0,3,,,,,,,,1,,,,67,92
162960,note_on,40,0,4,,,,,,,,2,,,,67,75
163040,note_off,80,0,3,,,,,,,,1,,,,67,64
163040,note_off,80,0,4,,,,,,,,2,,,,67,64
163080,note_on,40,0,4,,,,,,,,2,,,,55,75
163080,note_on,40,0,3,,,,,,,,1,,,,55,92
163160,note_off,80,0,4,,,,,,,,2,,,,55,64
163160,note_off,80,0,3,,,,,,,,1,,,,55,64
163200,note_on,40,0,4,,,,,,,,2,,,,67,75
163200,note_on,40,0,3,,,,,,,,1,,,,67,92
163240,note_off,400,0,8,,,,,,,,6,,,,43,64
163240,note_off,400,0,10,,,,,,,,8,,,,55,64
163240,note_off,400,0,9,,,,,,,,7,,,,31,64
163240,note_off,400,0,5,,,,,,,,3,,,,55,64
163240,note_off,400,0,14,,,,,,,,13,,,,31,64
163240,note_off,400,0,15,,,,,,,,14,,,,31,64
163240,note_off,400,0,13,,,,,,,,12,,,,43,64
163280,note_off,80,0,3,,,,,,,,1,,,,67,64
163280,note_off,80,0,4,,,,,,,,2,,,,67,64
163320,note_on,80,0,14,,,,,,,,13,,,,31,92
163320,note_on,80,0,15,,,,,,,,14,,,,31,92
163320,note_on,80,0,5,,,,,,,,3,,,,55,45
163320,note_on,80,0,10,,,,,,,,8,,,,55,45
163320,note_on,0,0,3,,,,,,,,1,,,,74,92
163320,note_on,40,0,3,,,,,,,,1,,,,67,92
163320,note_on,80,0,9,,,,,,,,7,,,,31,92
163320,note_on,80,0,13,,,,,,,,12,,,,43,92
163320,note_on,80,0,8,,,,,,,,6,,,,43,92
163320,note_on,40,0,4,,,,,,,,2,,,,67,75
163320,note_on,0,0,4,,,,,,,,2,,,,74,75
163400,note_off,80,0,10,,,,,,,,8,,,,55,64
163400,note_off,80,0,5,,,,,,,,3,,,,55,64
163435,note_off,115,0,3,,,,,,,,1,,,,74,64
163435,note_off,0,0,3,,,,,,,,1,,,,67,64
163435,note_off,115,0,4,,,,,,,,2,,,,74,64
163435,note_off,0,0,4,,,,,,,,2,,,,67,64
163440,note_on,40,0,5,,,,,,,,3,,,,67,92
163440,note_on,40,0,10,,,,,,,,8,,,,67,92
163520,note_off,80,0,5,,,,,,,,3,,,,67,64
163520,note_off,80,0,10,,,,,,,,8,,,,67,64
163560,note_on,40,0,5,,,,,,,,3,,,,69,92
163560,note_on,40,0,10,,,,,,,,8,,,,69,92
163640,note_off,80,0,10,,,,,,,,8,,,,69,64
163640,note_off,80,0,5,,,,,,,,3,,,,69,64
163680,note_on,40,0,5,,,,,,,,3,,,,70,92
163680,note_on,40,0,10,,,,,,,,8,,,,70,92
163720,note_off,400,0,13,,,,,,,,12,,,,43,64
163720,note_off,400,0,14,,,,,,,,13,,,,31,64
163720,note_off,400,0,15,,,,,,,,14,,,,31,64
163720,note_off,400,0,9,,,,,,,,7,,,,31,64
163720,note_off,400,0,8,,,,,,,,6,,,,43,64
163760,note_off,80,0,5,,,,,,,,3,,,,70,64
163760,note_off,80,0,10,,,,,,,,8,,,,70,64
163800,note_on,40,0,10,,,,,,,,8,,,,72,92
163800,note_on,40,0,5,,,,,,,,3,,,,72,92
163880,note_off,80,0,10,,,,,,,,8,,,,72,64
163880,note_off,80,0,5,,,,,,,,3,,,,72,64
163920,note_on,40,0,10,,,,,,,,8,,,,74,92
163920,note_on,40,0,5,,,,,,,,3,,,,74,92
164000,note_off,80,0,10,,,,,,,,8,,,,74,64
164000,note_off,80,0,5,,,,,,,,3,,,,74,64
164040,note_on,40,0,10,,,,,,,,8,,,,76,92
164040,note_on,40,0,5,,,,,,,,3,,,,76,92
164120,note_off,80,0,5,,,,,,,,3,,,,76,64
164120,note_off,80,0,10,,,,,,,,8,,,,76,64
164160,note_on,40,0,10,,,,,,,,8,,,,78,92
164160,note_on,40,0,5,,,,,,,,3,,,,78,92
164240,note_off,80,0,5,,,,,,,,3,,,,78,64
164240,note_off,80,0,10,,,,,,,,8,,,,78,64
164280,note_on,40,0,5,,,,,,,,3,,,,79,92
164280,note_on,40,0,10,,,,,,,,8,,,,79,92
164360,note_off,80,0,10,,,,,,,,8,,,,79,64
164360,note_off,80,0,5,,,,,,,,3,,,,79,64
164400,note_on,40,0,10,,,,,,,,8,,,,81,92
164400,note_on,40,0,5,,,,,,,,3,,,,81,92
164480,note_off,80,0,10,,,,,,,,8,,,,81,64
164480,note_off,80,0,5,,,,,,,,3,,,,81,64
164520,note_on,40,0,10,,,,,,,,8,,,,82,92
164520,note_on,40,0,5,,,,,,,,3,,,,82,92
164600,note_off,80,0,10,,,,,,,,8,,,,82,64
164600,note_off,80,0,5,,,,,,,,3,,,,82,64
164640,note_on,40,0,10,,,,,,,,8,,,,81,92
164640,note_on,40,0,5,,,,,,,,3,,,,81,92
164720,note_off,80,0,5,,,,,,,,3,,,,81,64
164720,note_off,80,0,10,,,,,,,,8,,,,81,64
164760,note_on,40,0,10,,,,,,,,8,,,,79,92
164760,note_on,40,0,5,,,,,,,,3,,,,79,92
164840,note_off,80,0,5,,,,,,,,3,,,,79,64
164840,note_off,80,0,10,,,,,,,,8,,,,79,64
164880,note_on,40,0,10,,,,,,,,8,,,,77,92
164880,note_on,40,0,5,,,,,,,,3,,,,77,92
164960,note_off,80,0,5,,,,,,,,3,,,,77,64
164960,note_off,80,0,10,,,,,,,,8,,,,77,64
165000,note_on,40,0,5,,,,,,,,3,,,,75,92
165000,note_on,40,0,10,,,,,,,,8,,,,75,92
165080,note_off,80,0,5,,,,,,,,3,,,,75,64
165080,note_off,80,0,10,,,,,,,,8,,,,75,64
165120,note_on,40,0,10,,,,,,,,8,,,,74,92
165120,note_on,40,0,5,,,,,,,,3,,,,74,92
165200,note_off,80,0,10,,,,,,,,8,,,,74,64
165200,note_off,80,0,5,,,,,,,,3,,,,74,64
165240,note_on,40,0,10,,,,,,,,8,,,,72,92
165240,note_on,40,0,5,,,,,,,,3,,,,72,92
165320,note_off,80,0,10,,,,,,,,8,,,,72,64
165320,note_off,80,0,5,,,,,,,,3,,,,72,64
165360,note_on,40,0,5,,,,,,,,3,,,,70,92
165360,note_on,40,0,10,,,,,,,,8,,,,70,92
165440,note_off,80,0,10,,,,,,,,8,,,,70,64
165440,note_off,80,0,5,,,,,,,,3,,,,70,64
165480,note_on,40,0,5,,,,,,,,3,,,,69,92
165480,note_on,40,0,10,,,,,,,,8,,,,69,92
165560,note_off,80,0,5,,,,,,,,3,,,,69,64
165560,note_off,80,0,10,,,,,,,,8,,,,69,64
165600,note_on,40,0,10,,,,,,,,8,,,,67,92
165600,note_on,40,0,5,,,,,,,,3,,,,67,92
165680,note_off,80,0,10,,,,,,,,8,,,,67,64
165680,note_off,80,0,5,,,,,,,,3,,,,67,64
165720,note_on,40,0,10,,,,,,,,8,,,,66,92
165720,note_on,40,0,5,,,,,,,,3,,,,66,92
165800,note_off,80,0,10,,,,,,,,8,,,,66,64
165800,note_off,80,0,5,,,,,,,,3,,,,66,64
165840,note_on,40,0,10,,,,,,,,8,,,,64,92
165840,note_on,40,0,5,,,,,,,,3,,,,64,92
165920,note_off,80,0,5,,,,,,,,3,,,,64,64
165920,note_off,80,0,10,,,,,,,,8,,,,64,64
165960,note_on,40,0,5,,,,,,,,3,,,,62,92
165960,note_on,40,0,10,,,,,,,,8,,,,62,92
166040,note_off,80,0,5,,,,,,,,3,,,,62,64
166040,note_off,80,0,10,,,,,,,,8,,,,62,64
166080,note_on,40,0,10,,,,,,,,8,,,,60,92
166080,note_on,40,0,5,,,,,,,,3,,,,60,92
166160,note_off,80,0,5,,,,,,,,3,,,,60,64
166160,note_off,80,0,10,,,,,,,,8,,,,60,64
166200,note_on,2480,0,15,,,,,,,,14,,,,34,60
166200,note_on,2480,0,14,,,,,,,,13,,,,34,92
166200,note_on,2480,0,9,,,,,,,,7,,,,34,92
166200,note_on,40,0,10,,,,,,,,8,,,,58,92
166200,note_on,2480,0,8,,,,,,,,6,,,,46,92
166200,note_on,2480,0,13,,,,,,,,12,,,,46,92
166200,note_on,40,0,5,,,,,,,,3,,,,58,92
166280,note_off,80,0,10,,,,,,,,8,,,,58,64
166280,note_off,80,0,5,,,,,,,,3,,,,58,64
166280,note_off,80,0,8,,,,,,,,6,,,,46,64
166280,note_off,80,0,13,,,,,,,,12,,,,46,64
166280,note_off,80,0,14,,,,,,,,13,,,,34,64
166280,note_off,80,0,9,,,,,,,,7,,,,34,64
166320,note_on,40,0,5,,,,,,,,3,,,,55,89
166320,note_on,40,0,10,,,,,,,,8,,,,55,89
166400,note_off,80,0,5,,,,,,,,3,,,,55,64
166400,note_off,80,0,10,,,,,,,,8,,,,55,64
166440,note_on,160,0,8,,,,,,,,6,,,,43,85
166440,note_on,160,0,13,,,,,,,,12,,,,43,85
166440,note_on,160,0,9,,,,,,,,7,,,,31,85
166440,note_on,40,0,5,,,,,,,,3,,,,58,85
166440,note_on,160,0,14,,,,,,,,13,,,,31,85
166440,note_on,40,0,10,,,,,,,,8,,,,58,85
166520,note_off,80,0,8,,,,,,,,6,,,,43,64
166520,note_off,80,0,5,,,,,,,,3,,,,58,64
166520,note_off,80,0,10,,,,,,,,8,,,,58,64
166520,note_off,80,0,13,,,,,,,,12,,,,43,64
166520,note_off,80,0,14,,,,,,,,13,,,,31,64
166520,note_off,80,0,9,,,,,,,,7,,,,31,64
166560,note_on,40,0,10,,,,,,,,8,,,,55,81
166560,note_on,40,0,5,,,,,,,,3,,,,55,81
166600,note_off,400,0,15,,,,,,,,14,,,,34,64
166640,note_off,80,0,10,,,,,,,,8,,,,55,64
166640,note_off,80,0,5,,,,,,,,3,,,,55,64
166680,note_on,80,0,15,,,,,,,,14,,,,34,55
166680,note_on,160,0,14,,,,,,,,13,,,,34,77
166680,note_on,40,0,5,,,,,,,,3,,,,58,77
166680,note_on,160,0,9,,,,,,,,7,,,,34,77
166680,note_on,40,0,10,,,,,,,,8,,,,58,77
166680,note_on,160,0,8,,,,,,,,6,,,,46,77
166680,note_on,160,0,13,,,,,,,,12,,,,46,77
166760,note_off,80,0,14,,,,,,,,13,,,,34,64
166760,note_off,80,0,9,,,,,,,,7,,,,34,64
166760,note_off,80,0,13,,,,,,,,12,,,,46,64
166760,note_off,80,0,8,,,,,,,,6,,,,46,64
166760,note_off,80,0,10,,,,,,,,8,,,,58,64
166760,note_off,80,0,5,,,,,,,,3,,,,58,64
166800,note_on,40,0,5,,,,,,,,3,,,,55,73
166800,note_on,40,0,10,,,,,,,,8,,,,55,73
166880,note_off,80,0,5,,,,,,,,3,,,,55,64
166880,note_off,80,0,10,,,,,,,,8,,,,55,64
166920,note_on,40,0,5,,,,,,,,3,,,,58,69
166920,note_on,160,0,13,,,,,,,,12,,,,43,69
166920,note_on,160,0,8,,,,,,,,6,,,,43,69
166920,note_on,160,0,9,,,,,,,,7,,,,31,69
166920,note_on,160,0,14,,,,,,,,13,,,,31,69
166920,note_on,40,0,10,,,,,,,,8,,,,58,69
167000,note_off,80,0,14,,,,,,,,13,,,,31,64
167000,note_off,80,0,8,,,,,,,,6,,,,43,64
167000,note_off,80,0,5,,,,,,,,3,,,,58,64
167000,note_off,80,0,10,,,,,,,,8,,,,58,64
167000,note_off,80,0,9,,,,,,,,7,,,,31,64
167000,note_off,80,0,13,,,,,,,,12,,,,43,64
167040,note_on,40,0,10,,,,,,,,8,,,,55,65
167040,note_on,40,0,5,,,,,,,,3,,,,55,65
167080,note_off,400,0,15,,,,,,,,14,,,,34,64
167120,note_off,80,0,5,,,,,,,,3,,,,55,64
167120,note_off,80,0,10,,,,,,,,8,,,,55,64
167160,note_on,160,0,8,,,,,,,,6,,,,46,61
167160,note_on,160,0,9,,,,,,,,7,,,,34,61
167160,note_on,40,0,10,,,,,,,,8,,,,58,61
167160,note_on,160,0,13,,,,,,,,12,,,,46,61
167160,note_on,160,0,14,,,,,,,,13,,,,34,61
167160,note_on,40,0,5,,,,,,,,3,,,,58,61
167160,note_on,80,0,15,,,,,,,,14,,,,34,50
167240,note_off,80,0,8,,,,,,,,6,,,,46,64
167240,note_off,80,0,5,,,,,,,,3,,,,58,64
167240,note_off,80,0,14,,,,,,,,13,,,,34,64
167240,note_off,80,0,9,,,,,,,,7,,,,34,64
167240,note_off,80,0,10,,,,,,,,8,,,,58,64
167240,note_off,80,0,13,,,,,,,,12,,,,46,64
167280,note_on,40,0,10,,,,,,,,8,,,,55,57
167280,note_on,40,0,5,,,,,,,,3,,,,55,57
167360,note_off,80,0,10,,,,,,,,8,,,,55,64
167360,note_off,80,0,5,,,,,,,,3,,,,55,64
167400,note_on,160,0,14,,,,,,,,13,,,,31,53
167400,note_on,160,0,9,,,,,,,,7,,,,31,53
167400,note_on,160,0,8,,,,,,,,6,,,,43,53
167400,note_on,160,0,13,,,,,,,,12,,,,43,53
167400,note_on,40,0,5,,,,,,,,3,,,,58,53
167400,note_on,40,0,10,,,,,,,,8,,,,58,53
167480,note_off,80,0,13,,,,,,,,12,,,,43,64
167480,note_off,80,0,5,,,,,,,,3,,,,58,64
167480,note_off,80,0,9,,,,,,,,7,,,,31,64
167480,note_off,80,0,14,,,,,,,,13,,,,31,64
167480,note_off,80,0,10,,,,,,,,8,,,,58,64
167480,note_off,80,0,8,,,,,,,,6,,,,43,64
167520,note_on,40,0,5,,,,,,,,3,,,,55,49
167520,note_on,40,0,10,,,,,,,,8,,,,55,49
167560,note_off,400,0,15,,,,,,,,14,,,,34,64
167600,note_off,80,0,5,,,,,,,,3,,,,55,64
167600,note_off,80,0,10,,,,,,,,8,,,,55,64
167640,note_on,40,0,10,,,,,,,,8,,,,62,45
167640,note_on,160,0,9,,,,,,,,7,,,,38,45
167640,note_on,80,0,15,,,,,,,,14,,,,38,45
167640,note_on,160,0,14,,,,,,,,13,,,,38,45
167640,note_on,160,0,8,,,,,,,,6,,,,50,45
167640,note_on,4205,0,4,,,,,,,,2,,,,63,30
167640,note_on,40,0,5,,,,,,,,3,,,,62,45
167640,note_on,160,0,13,,,,,,,,12,,,,50,45
167640,note_on,4205,0,3,,,,,,,,1,,,,63,45
167760,note_off,120,0,3,,,,,,,,1,,,,63,64
167760,note_on,0,0,3,,,,,,,,1,,,,62,45
167760,note_off,120,0,4,,,,,,,,2,,,,63,64
167760,note_on,0,0,4,,,,,,,,2,,,,62,30
167875,note_off,115,0,3,,,,,,,,1,,,,62,64
167875,note_off,115,0,4,,,,,,,,2,,,,62,64
167880,note_on,5,0,3,,,,,,,,1,,,,66,45
167880,note_on,5,0,4,,,,,,,,2,,,,66,30
168000,note_off,120,0,3,,,,,,,,1,,,,66,64
168000,note_off,120,0,4,,,,,,,,2,,,,66,64
168000,note_on,0,0,4,,,,,,,,2,,,,64,32
168000,note_on,0,0,3,,,,,,,,1,,,,64,47
168040,note_off,400,0,10,,,,,,,,8,,,,62,64
168040,note_off,400,0,14,,,,,,,,13,,,,38,64
168040,note_off,400,0,9,,,,,,,,7,,,,38,64
168040,note_off,400,0,15,,,,,,,,14,,,,38,64
168040,note_off,400,0,8,,,,,,,,6,,,,50,64
168040,note_off,400,0,13,,,,,,,,12,,,,50,64
168040,note_off,400,0,5,,,,,,,,3,,,,62,64
168115,note_off,115,0,4,,,,,,,,2,,,,64,64
168115,note_off,115,0,3,,,,,,,,1,,,,64,64
168120,note_on,5,0,3,,,,,,,,1,,,,67,49
168120,note_on,5,0,4,,,,,,,,2,,,,67,34
168240,note_off,120,0,3,,,,,,,,1,,,,67,64
168240,note_on,0,0,3,,,,,,,,1,,,,66,51
168240,note_on,0,0,4,,,,,,,,2,,,,66,36
168240,note_off,120,0,4,,,,,,,,2,,,,67,64
168355,note_off,115,0,3,,,,,,,,1,,,,66,64
168355,note_off,115,0,4,,,,,,,,2,,,,66,64
168360,note_on,5,0,3,,,,,,,,1,,,,69,53
168360,note_on,5,0,4,,,,,,,,2,,,,69,38
168480,note_off,120,0,3,,,,,,,,1,,,,69,64
168480,note_on,0,0,3,,,,,,,,1,,,,67,55
168480,note_off,120,0,4,,,,,,,,2,,,,69,64
168480,note_on,0,0,4,,,,,,,,2,,,,67,40
168595,note_off,115,0,3,,,,,,,,1,,,,67,64
168595,note_off,115,0,4,,,,,,,,2,,,,67,64
168600,note_on,5,0,4,,,,,,,,2,,,,70,42
168600,note_on,5,0,3,,,,,,,,1,,,,70,57
168720,note_on,0,0,4,,,,,,,,2,,,,69,44
168720,note_off,120,0,4,,,,,,,,2,,,,70,64
168720,note_off,120,0,3,,,,,,,,1,,,,70,64
168720,note_on,0,0,3,,,,,,,,1,,,,69,59
168835,note_off,115,0,3,,,,,,,,1,,,,69,64
168835,note_off,115,0,4,,,,,,,,2,,,,69,64
168840,note_on,5,0,3,,,,,,,,1,,,,72,61
168840,note_on,5,0,4,,,,,,,,2,,,,72,46
168960,note_on,0,0,3,,,,,,,,1,,,,70,63
168960,note_off,120,0,3,,,,,,,,1,,,,72,64
168960,note_off,120,0,4,,,,,,,,2,,,,72,64
168960,note_on,0,0,4,,,,,,,,2,,,,70,48
169075,note_off,115,0,4,,,,,,,,2,,,,70,64
169075,note_off,115,0,3,,,,,,,,1,,,,70,64
169080,note_on,5,0,4,,,,,,,,2,,,,74,50
169080,note_on,5,0,3,,,,,,,,1,,,,74,65
169200,note_off,120,0,4,,,,,,,,2,,,,74,64
169200,note_on,0,0,4,,,,,,,,2,,,,72,52
169200,note_off,120,0,3,,,,,,,,1,,,,74,64
169200,note_on,0,0,3,,,,,,,,1,,,,72,67
169315,note_off,115,0,4,,,,,,,,2,,,,72,64
169315,note_off,115,0,3,,,,,,,,1,,,,72,64
169320,note_on,5,0,4,,,,,,,,2,,,,75,54
169320,note_on,5,0,3,,,,,,,,1,,,,75,69
169440,note_off,120,0,4,,,,,,,,2,,,,75,64
169440,note_on,0,0,4,,,,,,,,2,,,,74,56
169440,note_off,120,0,3,,,,,,,,1,,,,75,64
169440,note_on,0,0,3,,,,,,,,1,,,,74,71
169555,note_off,115,0,3,,,,,,,,1,,,,74,64
169555,note_off,115,0,4,,,,,,,,2,,,,74,64
169560,note_on,5,0,3,,,,,,,,1,,,,77,73
169560,note_on,5,0,4,,,,,,,,2,,,,77,58
169680,note_on,0,0,3,,,,,,,,1,,,,76,75
169680,note_off,120,0,3,,,,,,,,1,,,,77,64
169680,note_on,0,0,4,,,,,,,,2,,,,76,60
169680,note_off,120,0,4,,,,,,,,2,,,,77,64
169795,note_off,115,0,3,,,,,,,,1,,,,76,64
169795,note_off,115,0,4,,,,,,,,2,,,,76,64
169800,note_on,5,0,4,,,,,,,,2,,,,79,62
169800,note_on,5,0,3,,,,,,,,1,,,,79,77
169920,note_off,120,0,4,,,,,,,,2,,,,79,64
169920,note_on,0,0,3,,,,,,,,1,,,,78,80
169920,note_off,120,0,3,,,,,,,,1,,,,79,64
169920,note_on,0,0,4,,,,,,,,2,,,,78,64
170035,note_off,115,0,3,,,,,,,,1,,,,78,64
170035,note_off,115,0,4,,,,,,,,2,,,,78,64
170040,note_on,5,0,3,,,,,,,,1,,,,81,83
170040,note_on,5,0,4,,,,,,,,2,,,,81,66
170160,note_off,120,0,3,,,,,,,,1,,,,81,64
170160,note_on,0,0,4,,,,,,,,2,,,,79,69
170160,note_off,120,0,4,,,,,,,,2,,,,81,64
170160,note_on,0,0,3,,,,,,,,1,,,,79,86
170275,note_off,115,0,3,,,,,,,,1,,,,79,64
170275,note_off,115,0,4,,,,,,,,2,,,,79,64
170280,note_on,5,0,3,,,,,,,,1,,,,82,89
170280,note_on,5,0,4,,,,,,,,2,,,,82,72
170400,note_off,120,0,3,,,,,,,,1,,,,82,64
170400,note_on,0,0,3,,,,,,,,1,,,,81,92
170400,note_on,0,0,4,,,,,,,,2,,,,81,75
170400,note_off,120,0,4,,,,,,,,2,,,,82,64
170515,note_off,115,0,3,,,,,,,,1,,,,81,64
170515,note_off,115,0,4,,,,,,,,2,,,,81,64
170520,note_on,5,0,3,,,,,,,,1,,,,63,45
170520,note_on,5,0,4,,,,,,,,2,,,,63,30
170640,note_on,0,0,4,,,,,,,,2,,,,62,30
170640,note_off,120,0,4,,,,,,,,2,,,,63,64
170640,note_on,0,0,3,,,,,,,,1,,,,62,45
170640,note_off,120,0,3,,,,,,,,1,,,,63,64
170755,note_off,115,0,4,,,,,,,,2,,,,62,64
170755,note_off,115,0,3,,,,,,,,1,,,,62,64
170760,note_on,5,0,3,,,,,,,,1,,,,66,45
170760,note_on,5,0,4,,,,,,,,2,,,,66,30
170880,note_on,0,0,4,,,,,,,,2,,,,64,32
170880,note_off,120,0,4,,,,,,,,2,,,,66,64
170880,note_on,0,0,3,,,,,,,,1,,,,64,47
170880,note_off,120,0,3,,,,,,,,1,,,,66,64
170995,note_off,115,0,3,,,,,,,,1,,,,64,64
170995,note_off,115,0,4,,,,,,,,2,,,,64,64
171000,note_on,5,0,3,,,,,,,,1,,,,67,49
171000,note_on,5,0,4,,,,,,,,2,,,,67,34
171120,note_on,0,0,3,,,,,,,,1,,,,66,51
171120,note_on,0,0,4,,,,,,,,2,,,,66,36
171120,note_off,120,0,4,,,,,,,,2,,,,67,64
171120,note_off,120,0,3,,,,,,,,1,,,,67,64
171235,note_off,115,0,3,,,,,,,,1,,,,66,64
171235,note_off,115,0,4,,,,,,,,2,,,,66,64
171240,note_on,5,0,3,,,,,,,,1,,,,69,53
171240,note_on,5,0,4,,,,,,,,2,,,,69,38
171360,note_off,120,0,3,,,,,,,,1,,,,69,64
171360,note_off,120,0,4,,,,,,,,2,,,,69,64
171360,note_on,0,0,3,,,,,,,,1,,,,67,55
171360,note_on,0,0,4,,,,,,,,2,,,,67,40
171475,note_off,115,0,3,,,,,,,,1,,,,67,64
171475,note_off,115,0,4,,,,,,,,2,,,,67,64
171480,note_on,5,0,4,,,,,,,,2,,,,70,42
171480,note_on,5,0,3,,,,,,,,1,,,,70,57
171600,note_off,120,0,4,,,,,,,,2,,,,70,64
171600,note_on,0,0,3,,,,,,,,1,,,,69,59
171600,note_off,120,0,3,,,,,,,,1,,,,70,64
171600,note_on,0,0,4,,,,,,,,2,,,,69,44
171715,note_off,115,0,4,,,,,,,,2,,,,69,64
171715,note_off,115,0,3,,,,,,,,1,,,,69,64
171720,note_on,5,0,3,,,,,,,,1,,,,72,61
171720,note_on,5,0,4,,,,,,,,2,,,,72,46
171840,note_off,120,0,3,,,,,,,,1,,,,72,64
171840,note_on,0,0,3,,,,,,,,1,,,,70,63
171840,note_off,120,0,4,,,,,,,,2,,,,72,64
171840,note_on,0,0,4,,,,,,,,2,,,,70,48
171955,note_off,115,0,4,,,,,,,,2,,,,70,64
171955,note_off,115,0,3,,,,,,,,1,,,,70,64
171960,note_on,5,0,4,,,,,,,,2,,,,74,50
171960,note_on,5,0,3,,,,,,,,1,,,,74,65
172080,note_on,0,0,4,,,,,,,,2,,,,72,52
172080,note_on,0,0,3,,,,,,,,1,,,,72,67
172080,note_off,120,0,4,,,,,,,,2,,,,74,64
172080,note_off,120,0,3,,,,,,,,1,,,,74,64
172195,note_off,115,0,4,,,,,,,,2,,,,72,64
172195,note_off,115,0,3,,,,,,,,1,,,,72,64
172200,note_on,5,0,3,,,,,,,,1,,,,75,69
172200,note_on,5,0,4,,,,,,,,2,,,,75,54
172320,note_on,0,0,3,,,,,,,,1,,,,74,71
172320,note_on,0,0,4,,,,,,,,2,,,,74,56
172320,note_off,120,0,4,,,,,,,,2,,,,75,64
172320,note_off,120,0,3,,,,,,,,1,,,,75,64
172435,note_off,115,0,3,,,,,,,,1,,,,74,64
172435,note_off,115,0,4,,,,,,,,2,,,,74,64
172440,note_on,5,0,4,,,,,,,,2,,,,77,58
172440,note_on,5,0,3,,,,,,,,1,,,,77,73
172560,note_on,0,0,4,,,,,,,,2,,,,76,60
172560,note_off,120,0,4,,,,,,,,2,,,,77,64
172560,note_on,0,0,3,,,,,,,,1,,,,76,75
172560,note_off,120,0,3,,,,,,,,1,,,,77,64
172675,note_off,115,0,4,,,,,,,,2,,,,76,64
172675,note_off,115,0,3,,,,,,,,1,,,,76,64
172680,note_on,5,0,3,,,,,,,,1,,,,79,77
172680,note_on,5,0,4,,,,,,,,2,,,,79,62
172800,note_on,0,0,4,,,,,,,,2,,,,78,64
172800,note_on,0,0,3,,,,,,,,1,,,,78,80
172800,note_off,120,0,3,,,,,,,,1,,,,79,64
172800,note_off,120,0,4,,,,,,,,2,,,,79,64
172915,note_off,115,0,3,,,,,,,,1,,,,78,64
172915,note_off,115,0,4,,,,,,,,2,,,,78,64
172920,note_on,5,0,4,,,,,,,,2,,,,81,66
172920,note_on,5,0,3,,,,,,,,1,,,,81,83
173040,note_on,0,0,3,,,,,,,,1,,,,79,86
173040,note_off,120,0,3,,,,,,,,1,,,,81,64
173040,note_on,0,0,4,,,,,,,,2,,,,79,69
173040,note_off,120,0,4,,,,,,,,2,,,,81,64
173155,note_off,115,0,3,,,,,,,,1,,,,79,64
173155,note_off,115,0,4,,,,,,,,2,,,,79,64
173160,note_on,5,0,3,,,,,,,,1,,,,82,89
173160,note_on,5,0,4,,,,,,,,2,,,,82,72
173280,note_off,120,0,4,,,,,,,,2,,,,82,64
173280,note_off,120,0,3,,,,,,,,1,,,,82,64
173280,note_on,0,0,3,,,,,,,,1,,,,81,92
173280,note_on,0,0,4,,,,,,,,2,,,,81,75
173395,note_off,115,0,4,,,,,,,,2,,,,81,64
173395,end_of_track,0,1,3,,,,,,,,,,,,,
173395,note_off,115,0,3,,,,,,,,1,,,,81,64
173395,end_of_track,0,1,4,,,,,,,,,,,,,
173400,note_on,5360,0,15,,,,,,,,14,,,,36,30
173400,note_on,5360,0,8,,,,,,,,6,,,,50,45
173400,note_on,5360,0,10,,,,,,,,8,,,,62,45
173400,note_on,66640,0,12,,,,,,,,11,,,,50,45
173400,note_on,5360,0,14,,,,,,,,13,,,,38,45
173400,note_on,5360,0,13,,,,,,,,12,,,,50,45
173400,note_on,5360,0,9,,,,,,,,7,,,,38,45
173400,note_on,16000,0,7,,,,,,,,5,,,,50,45
173400,note_on,5360,0,5,,,,,,,,3,,,,62,45
173515,note_off,115,0,10,,,,,,,,8,,,,62,64
173515,note_off,115,0,5,,,,,,,,3,,,,62,64
173515,note_off,115,0,8,,,,,,,,6,,,,50,64
173515,note_off,115,0,13,,,,,,,,12,,,,50,64
173515,note_off,115,0,9,,,,,,,,7,,,,38,64
173515,note_off,115,0,14,,,,,,,,13,,,,38,64
173520,note_on,5,0,10,,,,,,,,8,,,,62,45
173520,note_on,5,0,9,,,,,,,,7,,,,50,45
173520,note_on,5,0,5,,,,,,,,3,,,,62,45
173520,note_on,5,0,14,,,,,,,,13,,,,50,45
173520,note_on,5,0,13,,,,,,,,12,,,,62,45
173520,note_on,5,0,8,,,,,,,,6,,,,62,45
173635,note_off,115,0,14,,,,,,,,13,,,,50,64
173635,note_off,115,0,13,,,,,,,,12,,,,62,64
173635,note_off,115,0,10,,,,,,,,8,,,,62,64
173635,note_off,115,0,8,,,,,,,,6,,,,62,64
173635,note_off,115,0,5,,,,,,,,3,,,,62,64
173635,note_off,115,0,9,,,,,,,,7,,,,50,64
173640,note_on,5,0,5,,,,,,,,3,,,,62,50
173640,note_on,5,0,8,,,,,,,,6,,,,60,50
173640,note_on,5,0,14,,,,,,,,13,,,,48,49
173640,note_on,5,0,10,,,,,,,,8,,,,62,50
173640,note_on,5,0,13,,,,,,,,12,,,,60,49
173640,note_on,5,0,9,,,,,,,,7,,,,48,49
173755,note_off,115,0,10,,,,,,,,8,,,,62,64
173755,note_off,115,0,5,,,,,,,,3,,,,62,64
173755,note_off,115,0,14,,,,,,,,13,,,,48,64
173755,note_off,115,0,9,,,,,,,,7,,,,48,64
173755,note_off,115,0,13,,,,,,,,12,,,,60,64
173755,note_off,115,0,8,,,,,,,,6,,,,60,64
173760,note_on,5,0,9,,,,,,,,7,,,,46,53
173760,note_on,5,0,13,,,,,,,,12,,,,58,53
173760,note_on,5,0,5,,,,,,,,3,,,,62,55
173760,note_on,5,0,14,,,,,,,,13,,,,46,53
173760,note_on,5,0,8,,,,,,,,6,,,,58,55
173760,note_on,5,0,10,,,,,,,,8,,,,62,55
173800,note_off,400,0,12,,,,,,,,11,,,,50,64
173800,note_off,400,0,7,,,,,,,,5,,,,50,64
173800,note_off,400,0,15,,,,,,,,14,,,,36,64
173875,note_off,115,0,5,,,,,,,,3,,,,62,64
173875,note_off,115,0,9,,,,,,,,7,,,,46,64
173875,note_off,115,0,13,,,,,,,,12,,,,58,64
173875,note_off,115,0,14,,,,,,,,13,,,,46,64
173875,note_off,115,0,10,,,,,,,,8,,,,62,64
173875,note_off,115,0,8,,,,,,,,6,,,,58,64
173880,note_on,5,0,14,,,,,,,,13,,,,45,57
173880,note_on,5,0,9,,,,,,,,7,,,,45,57
173880,note_on,5,0,13,,,,,,,,12,,,,57,57
173880,note_on,5,0,5,,,,,,,,3,,,,62,60
173880,note_on,5,0,10,,,,,,,,8,,,,62,60
173880,note_on,5,0,8,,,,,,,,6,,,,57,60
173995,note_off,115,0,14,,,,,,,,13,,,,45,64
173995,note_off,115,0,5,,,,,,,,3,,,,62,64
173995,note_off,115,0,9,,,,,,,,7,,,,45,64
173995,note_off,115,0,13,,,,,,,,12,,,,57,64
173995,note_off,115,0,10,,,,,,,,8,,,,62,64
173995,note_off,115,0,8,,,,,,,,6,,,,57,64
174000,note_on,5,0,13,,,,,,,,12,,,,58,61
174000,note_on,200,0,12,,,,,,,,11,,,,74,50
174000,note_on,5,0,14,,,,,,,,13,,,,46,61
174000,note_on,5,0,9,,,,,,,,7,,,,46,61
174000,note_on,200,0,7,,,,,,,,5,,,,74,52
174000,note_on,5,0,10,,,,,,,,8,,,,62,66
174000,note_on,5,0,5,,,,,,,,3,,,,62,66
174000,note_on,5,0,8,,,,,,,,6,,,,58,66
174115,note_off,115,0,13,,,,,,,,12,,,,58,64
174115,note_off,115,0,7,,,,,,,,5,,,,74,64
174115,note_off,115,0,9,,,,,,,,7,,,,46,64
174115,note_off,115,0,5,,,,,,,,3,,,,62,64
174115,note_off,115,0,10,,,,,,,,8,,,,62,64
174115,note_off,115,0,14,,,,,,,,13,,,,46,64
174115,note_off,115,0,8,,,,,,,,6,,,,58,64
174115,note_off,115,0,12,,,,,,,,11,,,,74,64
174120,note_on,5,0,8,,,,,,,,6,,,,57,72
174120,note_on,5,0,9,,,,,,,,7,,,,45,65
174120,note_on,5,0,10,,,,,,,,8,,,,62,72
174120,note_on,5,0,14,,,,,,,,13,,,,45,65
174120,note_on,5,0,5,,,,,,,,3,,,,62,72
174120,note_on,5,0,13,,,,,,,,12,,,,57,65
174120,note_on,5,0,7,,,,,,,,5,,,,72,60
174120,note_on,5,0,12,,,,,,,,11,,,,72,56
174235,note_off,115,0,10,,,,,,,,8,,,,62,64
174235,note_off,115,0,14,,,,,,,,13,,,,45,64
174235,note_off,115,0,7,,,,,,,,5,,,,72,64
174235,note_off,115,0,9,,,,,,,,7,,,,45,64
174235,note_off,115,0,13,,,,,,,,12,,,,57,64
174235,note_off,115,0,8,,,,,,,,6,,,,57,64
174235,note_off,115,0,12,,,,,,,,11,,,,72,64
174235,note_off,115,0,5,,,,,,,,3,,,,62,64
174240,note_on,5,0,8,,,,,,,,6,,,,55,78
174240,note_on,5,0,14,,,,,,,,13,,,,43,69
174240,note_on,5,0,10,,,,,,,,8,,,,62,78
174240,note_on,5,0,13,,,,,,,,12,,,,55,69
174240,note_on,5,0,7,,,,,,,,5,,,,70,68
174240,note_on,5,0,12,,,,,,,,11,,,,70,62
174240,note_on,5,0,5,,,,,,,,3,,,,62,78
174240,note_on,5,0,9,,,,,,,,7,,,,43,69
174355,note_off,115,0,13,,,,,,,,12,,,,55,64
174355,note_off,115,0,7,,,,,,,,5,,,,70,64
174355,note_off,115,0,14,,,,,,,,13,,,,43,64
174355,note_off,115,0,5,,,,,,,,3,,,,62,64
174355,note_off,115,0,8,,,,,,,,6,,,,55,64
174355,note_off,115,0,12,,,,,,,,11,,,,70,64
174355,note_off,115,0,10,,,,,,,,8,,,,62,64
174355,note_off,115,0,9,,,,,,,,7,,,,43,64
174360,note_on,5,0,8,,,,,,,,6,,,,54,84
174360,note_on,5,0,12,,,,,,,,11,,,,69,68
174360,note_on,5,0,14,,,,,,,,13,,,,42,73
174360,note_on,5,0,10,,,,,,,,8,,,,62,84
174360,note_on,5,0,5,,,,,,,,3,,,,62,84
174360,note_on,5,0,13,,,,,,,,12,,,,54,73
174360,note_on,5,0,9,,,,,,,,7,,,,42,73
174360,note_on,5,0,7,,,,,,,,5,,,,69,76
174475,note_off,115,0,9,,,,,,,,7,,,,42,64
174475,note_off,115,0,14,,,,,,,,13,,,,42,64
174475,note_off,115,0,12,,,,,,,,11,,,,69,64
174475,note_off,115,0,5,,,,,,,,3,,,,62,64
174475,note_off,115,0,7,,,,,,,,5,,,,69,64
174475,note_off,115,0,8,,,,,,,,6,,,,54,64
174475,note_off,115,0,10,,,,,,,,8,,,,62,64
174475,note_off,115,0,13,,,,,,,,12,,,,54,64
174480,note_on,5,0,10,,,,,,,,8,,,,62,90
174480,note_on,5,0,12,,,,,,,,11,,,,67,74
174480,note_on,5,0,8,,,,,,,,6,,,,52,90
174480,note_on,5,0,9,,,,,,,,7,,,,40,77
174480,note_on,5,0,14,,,,,,,,13,,,,40,77
174480,note_on,5,0,13,,,,,,,,12,,,,52,77
174480,note_on,5,0,5,,,,,,,,3,,,,62,90
174480,note_on,5,0,7,,,,,,,,5,,,,67,84
174595,note_off,115,0,7,,,,,,,,5,,,,67,64
174595,note_off,115,0,12,,,,,,,,11,,,,67,64
174595,note_off,115,0,5,,,,,,,,3,,,,62,64
174595,note_off,115,0,10,,,,,,,,8,,,,62,64
174595,note_off,115,0,13,,,,,,,,12,,,,52,64
174595,note_off,115,0,14,,,,,,,,13,,,,40,64
174595,note_off,115,0,8,,,,,,,,6,,,,52,64
174595,note_off,115,0,9,,,,,,,,7,,,,40,64
174600,note_on,5,0,10,,,,,,,,8,,,,62,96
174600,note_on,5,0,12,,,,,,,,11,,,,66,80
174600,note_on,5,0,9,,,,,,,,7,,,,38,82
174600,note_on,5,0,8,,,,,,,,6,,,,50,96
174600,note_on,5,0,7,,,,,,,,5,,,,66,92
174600,note_on,5,0,5,,,,,,,,3,,,,62,96
174600,note_on,5,0,13,,,,,,,,12,,,,50,82
174600,note_on,5,0,14,,,,,,,,13,,,,38,82
174715,note_off,115,0,7,,,,,,,,5,,,,66,64
174715,note_off,115,0,12,,,,,,,,11,,,,66,64
174715,note_off,115,0,13,,,,,,,,12,,,,50,64
174715,note_off,115,0,14,,,,,,,,13,,,,38,64
174715,note_off,115,0,10,,,,,,,,8,,,,62,64
174715,note_off,115,0,9,,,,,,,,7,,,,38,64
174715,note_off,115,0,8,,,,,,,,6,,,,50,64
174715,note_off,115,0,5,,,,,,,,3,,,,62,64
174720,note_on,5,0,9,,,,,,,,7,,,,36,87
174720,note_on,5,0,14,,,,,,,,13,,,,36,87
174720,note_on,5,0,10,,,,,,,,8,,,,62,102
174720,note_on,5,0,5,,,,,,,,3,,,,62,102
174720,note_on,5,0,8,,,,,,,,6,,,,48,102
174720,note_on,5,0,13,,,,,,,,12,,,,48,87
174720,note_on,5,0,7,,,,,,,,5,,,,64,100
174720,note_on,5,0,12,,,,,,,,11,,,,64,86
174835,note_off,115,0,5,,,,,,,,3,,,,62,64
174835,note_off,115,0,10,,,,,,,,8,,,,62,64
174835,note_off,115,0,8,,,,,,,,6,,,,48,64
174835,note_off,115,0,13,,,,,,,,12,,,,48,64
174835,note_off,115,0,7,,,,,,,,5,,,,64,64
174835,note_off,115,0,14,,,,,,,,13,,,,36,64
174835,note_off,115,0,12,,,,,,,,11,,,,64,64
174835,note_off,115,0,9,,,,,,,,7,,,,36,64
174840,note_on,5,0,10,,,,,,,,8,,,,67,108
174840,note_on,5,0,12,,,,,,,,11,,,,62,92
174840,note_on,5,0,9,,,,,,,,7,,,,34,92
174840,note_on,5,0,7,,,,,,,,5,,,,62,108
174840,note_on,5,0,13,,,,,,,,12,,,,46,92
174840,note_on,5,0,8,,,,,,,,6,,,,46,108
174840,note_on,5,0,5,,,,,,,,3,,,,67,108
174840,note_on,5,0,14,,,,,,,,13,,,,34,92
174840,note_on,1040,0,15,,,,,,,,14,,,,34,75
174955,note_off,115,0,12,,,,,,,,11,,,,62,64
174955,note_off,115,0,5,,,,,,,,3,,,,67,64
174955,note_off,115,0,7,,,,,,,,5,,,,62,64
174955,note_off,115,0,10,,,,,,,,8,,,,67,64
174960,note_on,5,0,5,,,,,,,,3,,,,62,108
174960,note_on,5,0,10,,,,,,,,8,,,,62,108
174960,note_on,5,0,12,,,,,,,,11,,,,62,92
174960,note_on,5,0,7,,,,,,,,5,,,,62,108
175075,note_off,115,0,7,,,,,,,,5,,,,62,64
175075,note_off,115,0,10,,,,,,,,8,,,,62,64
175075,note_off,235,0,9,,,,,,,,7,,,,34,64
175075,note_off,235,0,13,,,,,,,,12,,,,46,64
175075,note_off,115,0,12,,,,,,,,11,,,,62,64
175075,note_off,235,0,8,,,,,,,,6,,,,46,64
175075,note_off,235,0,14,,,,,,,,13,,,,34,64
175075,note_off,115,0,5,,,,,,,,3,,,,62,64
175080,note_on,5,0,10,,,,,,,,8,,,,58,108
175080,note_on,5,0,9,,,,,,,,7,,,,34,92
175080,note_on,5,0,12,,,,,,,,11,,,,62,92
175080,note_on,5,0,14,,,,,,,,13,,,,34,92
175080,note_on,5,0,7,,,,,,,,5,,,,62,108
175080,note_on,5,0,8,,,,,,,,6,,,,46,108
175080,note_on,5,0,13,,,,,,,,12,,,,46,92
175080,note_on,5,0,5,,,,,,,,3,,,,58,108
175195,note_off,115,0,12,,,,,,,,11,,,,62,64
175195,note_off,115,0,7,,,,,,,,5,,,,62,64
175195,note_off,115,0,10,,,,,,,,8,,,,58,64
175195,note_off,115,0,5,,,,,,,,3,,,,58,64
175200,note_on,5,0,12,,,,,,,,11,,,,62,92
175200,note_on,5,0,10,,,,,,,,8,,,,55,108
175200,note_on,5,0,5,,,,,,,,3,,,,55,108
175200,note_on,5,0,7,,,,,,,,5,,,,62,108
175240,note_off,400,0,15,,,,,,,,14,,,,34,64
175315,note_off,115,0,5,,,,,,,,3,,,,55,64
175315,note_off,115,0,7,,,,,,,,5,,,,62,64
175315,note_off,115,0,10,,,,,,,,8,,,,55,64
175315,note_off,235,0,13,,,,,,,,12,,,,46,64
175315,note_off,235,0,9,,,,,,,,7,,,,34,64
175315,note_off,235,0,8,,,,,,,,6,,,,46,64
175315,note_off,115,0,12,,,,,,,,11,,,,62,64
175315,note_off,235,0,14,,,,,,,,13,,,,34,64
175320,note_on,5,0,5,,,,,,,,3,,,,67,108
175320,note_on,80,0,15,,,,,,,,14,,,,34,75
175320,note_on,5,0,8,,,,,,,,6,,,,46,108
175320,note_on,5,0,13,,,,,,,,12,,,,46,92
175320,note_on,5,0,7,,,,,,,,5,,,,62,108
175320,note_on,5,0,12,,,,,,,,11,,,,62,92
175320,note_on,5,0,14,,,,,,,,13,,,,34,92
175320,note_on,5,0,10,,,,,,,,8,,,,67,108
175320,note_on,5,0,9,,,,,,,,7,,,,34,92
175435,note_off,115,0,12,,,,,,,,11,,,,62,64
175435,note_off,115,0,10,,,,,,,,8,,,,67,64
175435,note_off,115,0,7,,,,,,,,5,,,,62,64
175435,note_off,115,0,5,,,,,,,,3,,,,67,64
175440,note_on,5,0,12,,,,,,,,11,,,,62,92
175440,note_on,5,0,5,,,,,,,,3,,,,62,108
175440,note_on,5,0,10,,,,,,,,8,,,,62,108
175440,note_on,5,0,7,,,,,,,,5,,,,62,108
175555,note_off,115,0,5,,,,,,,,3,,,,62,64
175555,note_off,235,0,13,,,,,,,,12,,,,46,64
175555,note_off,115,0,7,,,,,,,,5,,,,62,64
175555,note_off,235,0,14,,,,,,,,13,,,,34,64
175555,note_off,235,0,8,,,,,,,,6,,,,46,64
175555,note_off,115,0,10,,,,,,,,8,,,,62,64
175555,note_off,115,0,12,,,,,,,,11,,,,62,64
175555,note_off,235,0,9,,,,,,,,7,,,,34,64
175560,note_on,5,0,13,,,,,,,,12,,,,46,92
175560,note_on,5,0,9,,,,,,,,7,,,,34,92
175560,note_on,5,0,10,,,,,,,,8,,,,58,108
175560,note_on,5,0,14,,,,,,,,13,,,,34,92
175560,note_on,5,0,8,,,,,,,,6,,,,46,108
175560,note_on,5,0,7,,,,,,,,5,,,,62,108
175560,note_on,5,0,12,,,,,,,,11,,,,62,92
175560,note_on,5,0,5,,,,,,,,3,,,,58,108
175675,note_off,115,0,12,,,,,,,,11,,,,62,64
175675,note_off,115,0,10,,,,,,,,8,,,,58,64
175675,note_off,115,0,5,,,,,,,,3,,,,58,64
175675,note_off,115,0,7,,,,,,,,5,,,,62,64
175680,note_on,5,0,12,,,,,,,,11,,,,62,92
175680,note_on,5,0,5,,,,,,,,3,,,,55,108
175680,note_on,5,0,7,,,,,,,,5,,,,62,108
175680,note_on,5,0,10,,,,,,,,8,,,,55,108
175720,note_off,400,0,15,,,,,,,,14,,,,34,64
175795,note_off,235,0,8,,,,,,,,6,,,,46,64
175795,note_off,235,0,14,,,,,,,,13,,,,34,64
175795,note_off,235,0,9,,,,,,,,7,,,,34,64
175795,note_off,115,0,10,,,,,,,,8,,,,55,64
175795,note_off,115,0,7,,,,,,,,5,,,,62,64
175795,note_off,115,0,5,,,,,,,,3,,,,55,64
175795,note_off,115,0,12,,,,,,,,11,,,,62,64
175795,note_off,235,0,13,,,,,,,,12,,,,46,64
175800,note_on,5,0,10,,,,,,,,8,,,,67,108
175800,note_on,5,0,14,,,,,,,,13,,,,34,92
175800,note_on,80,0,15,,,,,,,,14,,,,34,75
175800,note_on,5,0,5,,,,,,,,3,,,,67,108
175800,note_on,5,0,13,,,,,,,,12,,,,46,92
175800,note_on,5,0,8,,,,,,,,6,,,,46,108
175800,note_on,5,0,9,,,,,,,,7,,,,34,92
175800,note_on,5,0,12,,,,,,,,11,,,,62,92
175800,note_on,5,0,7,,,,,,,,5,,,,62,108
175915,note_off,115,0,7,,,,,,,,5,,,,62,64
175915,note_off,115,0,5,,,,,,,,3,,,,67,64
175915,note_off,115,0,12,,,,,,,,11,,,,62,64
175915,note_off,115,0,10,,,,,,,,8,,,,67,64
175920,note_on,5,0,10,,,,,,,,8,,,,62,108
175920,note_on,5,0,12,,,,,,,,11,,,,62,92
175920,note_on,5,0,7,,,,,,,,5,,,,62,108
175920,note_on,5,0,5,,,,,,,,3,,,,62,108
176035,note_off,115,0,5,,,,,,,,3,,,,62,64
176035,note_off,235,0,8,,,,,,,,6,,,,46,64
176035,note_off,235,0,9,,,,,,,,7,,,,34,64
176035,note_off,235,0,13,,,,,,,,12,,,,46,64
176035,note_off,115,0,7,,,,,,,,5,,,,62,64
176035,note_off,115,0,10,,,,,,,,8,,,,62,64
176035,note_off,115,0,12,,,,,,,,11,,,,62,64
176035,note_off,235,0,14,,,,,,,,13,,,,34,64
176040,note_on,5,0,13,,,,,,,,12,,,,46,92
176040,note_on,5,0,7,,,,,,,,5,,,,62,108
176040,note_on,5,0,5,,,,,,,,3,,,,58,108
176040,note_on,5,0,10,,,,,,,,8,,,,58,108
176040,note_on,5,0,9,,,,,,,,7,,,,34,92
176040,note_on,5,0,8,,,,,,,,6,,,,46,108
176040,note_on,5,0,12,,,,,,,,11,,,,62,92
176040,note_on,5,0,14,,,,,,,,13,,,,34,92
176155,note_off,115,0,7,,,,,,,,5,,,,62,64
176155,note_off,115,0,10,,,,,,,,8,,,,58,64
176155,note_off,115,0,5,,,,,,,,3,,,,58,64
176155,note_off,115,0,12,,,,,,,,11,,,,62,64
176160,note_on,5,0,12,,,,,,,,11,,,,62,92
176160,note_on,5,0,5,,,,,,,,3,,,,55,108
176160,note_on,5,0,10,,,,,,,,8,,,,55,108
176160,note_on,5,0,7,,,,,,,,5,,,,62,108
176200,note_off,400,0,15,,,,,,,,14,,,,34,64
176275,note_off,235,0,8,,,,,,,,6,,,,46,64
176275,note_off,115,0,10,,,,,,,,8,,,,55,64
176275,note_off,235,0,9,,,,,,,,7,,,,34,64
176275,note_off,235,0,14,,,,,,,,13,,,,34,64
176275,note_off,115,0,5,,,,,,,,3,,,,55,64
176275,note_off,115,0,12,,,,,,,,11,,,,62,64
176275,note_off,115,0,7,,,,,,,,5,,,,62,64
176275,note_off,235,0,13,,,,,,,,12,,,,46,64
176280,note_on,5,0,5,,,,,,,,3,,,,67,45
176280,note_on,5,0,9,,,,,,,,7,,,,36,45
176280,note_on,5,0,12,,,,,,,,11,,,,63,45
176280,note_on,80,0,15,,,,,,,,14,,,,36,30
176280,note_on,5,0,8,,,,,,,,6,,,,48,45
176280,note_on,18760,0,11,,,,,,,,10,,,,57,45
176280,note_on,5,0,7,,,,,,,,5,,,,63,45
176280,note_on,18760,0,6,,,,,,,,4,,,,57,45
176280,note_on,5,0,14,,,,,,,,13,,,,36,45
176280,note_on,5,0,10,,,,,,,,8,,,,67,45
176280,note_on,5,0,13,,,,,,,,12,,,,48,45
176395,note_off,115,0,12,,,,,,,,11,,,,63,64
176395,note_off,115,0,6,,,,,,,,4,,,,57,64
176395,note_off,115,0,10,,,,,,,,8,,,,67,64
176395,note_off,115,0,5,,,,,,,,3,,,,67,64
176395,note_off,115,0,7,,,,,,,,5,,,,63,64
176395,note_off,115,0,11,,,,,,,,10,,,,57,64
176400,note_on,5,0,11,,,,,,,,10,,,,57,45
176400,note_on,5,0,6,,,,,,,,4,,,,57,45
176400,note_on,5,0,10,,,,,,,,8,,,,67,45
176400,note_on,5,0,5,,,,,,,,3,,,,67,45
176400,note_on,5,0,12,,,,,,,,11,,,,63,45
176400,note_on,5,0,7,,,,,,,,5,,,,63,45
176515,note_off,235,0,9,,,,,,,,7,,,,36,64
176515,note_off,235,0,14,,,,,,,,13,,,,36,64
176515,note_off,115,0,7,,,,,,,,5,,,,63,64
176515,note_off,235,0,8,,,,,,,,6,,,,48,64
176515,note_off,115,0,10,,,,,,,,8,,,,67,64
176515,note_off,115,0,11,,,,,,,,10,,,,57,64
176515,note_off,115,0,12,,,,,,,,11,,,,63,64
176515,note_off,235,0,13,,,,,,,,12,,,,48,64
176515,note_off,115,0,5,,,,,,,,3,,,,67,64
176515,note_off,115,0,6,,,,,,,,4,,,,57,64
176520,note_on,5,0,5,,,,,,,,3,,,,67,45
176520,note_on,5,0,9,,,,,,,,7,,,,36,45
176520,note_on,5,0,6,,,,,,,,4,,,,57,45
176520,note_on,5,0,11,,,,,,,,10,,,,57,45
176520,note_on,5,0,14,,,,,,,,13,,,,36,45
176520,note_on,5,0,13,,,,,,,,12,,,,48,45
176520,note_on,5,0,8,,,,,,,,6,,,,48,45
176520,note_on,5,0,12,,,,,,,,11,,,,63,45
176520,note_on,5,0,10,,,,,,,,8,,,,67,45
176520,note_on,5,0,7,,,,,,,,5,,,,63,45
176635,note_off,115,0,7,,,,,,,,5,,,,63,64
176635,note_off,115,0,6,,,,,,,,4,,,,57,64
176635,note_off,115,0,10,,,,,,,,8,,,,67,64
176635,note_off,115,0,11,,,,,,,,10,,,,57,64
176635,note_off,115,0,12,,,,,,,,11,,,,63,64
176635,note_off,115,0,5,,,,,,,,3,,,,67,64
176640,note_on,5,0,10,,,,,,,,8,,,,67,45
176640,note_on,5,0,7,,,,,,,,5,,,,63,45
176640,note_on,5,0,11,,,,,,,,10,,,,57,45
176640,note_on,5,0,6,,,,,,,,4,,,,57,45
176640,note_on,5,0,12,,,,,,,,11,,,,63,45
176640,note_on,5,0,5,,,,,,,,3,,,,67,45
176680,note_off,400,0,15,,,,,,,,14,,,,36,64
176755,note_off,115,0,10,,,,,,,,8,,,,67,64
176755,note_off,235,0,14,,,,,,,,13,,,,36,64
176755,note_off,115,0,7,,,,,,,,5,,,,63,64
176755,note_off,115,0,6,,,,,,,,4,,,,57,64
176755,note_off,235,0,13,,,,,,,,12,,,,48,64
176755,note_off,115,0,12,,,,,,,,11,,,,63,64
176755,note_off,115,0,11,,,,,,,,10,,,,57,64
176755,note_off,235,0,8,,,,,,,,6,,,,48,64
176755,note_off,235,0,9,,,,,,,,7,,,,36,64
176755,note_off,115,0,5,,,,,,,,3,,,,67,64
176760,note_on,5,0,11,,,,,,,,10,,,,57,45
176760,note_on,5,0,8,,,,,,,,6,,,,48,45
176760,note_on,5,0,14,,,,,,,,13,,,,36,45
176760,note_on,5,0,7,,,,,,,,5,,,,63,45
176760,note_on,5,0,9,,,,,,,,7,,,,36,45
176760,note_on,5,0,12,,,,,,,,11,,,,63,45
176760,note_on,5,0,6,,,,,,,,4,,,,57,45
176760,note_on,80,0,15,,,,,,,,14,,,,36,30
176760,note_on,5,0,10,,,,,,,,8,,,,67,45
176760,note_on,5,0,13,,,,,,,,12,,,,48,45
176760,note_on,5,0,5,,,,,,,,3,,,,67,45
176875,note_off,115,0,6,,,,,,,,4,,,,57,64
176875,note_off,115,0,10,,,,,,,,8,,,,67,64
176875,note_off,115,0,7,,,,,,,,5,,,,63,64
176875,note_off,115,0,5,,,,,,,,3,,,,67,64
176875,note_off,115,0,11,,,,,,,,10,,,,57,64
176875,note_off,115,0,12,,,,,,,,11,,,,63,64
176880,note_on,5,0,7,,,,,,,,5,,,,63,48
176880,note_on,5,0,5,,,,,,,,3,,,,67,48
176880,note_on,5,0,10,,,,,,,,8,,,,67,48
176880,note_on,5,0,6,,,,,,,,4,,,,57,48
176880,note_on,5,0,11,,,,,,,,10,,,,57,48
176880,note_on,5,0,12,,,,,,,,11,,,,63,47
176995,note_off,115,0,5,,,,,,,,3,,,,67,64
176995,note_off,115,0,11,,,,,,,,10,,,,57,64
176995,note_off,235,0,13,,,,,,,,12,,,,48,64
176995,note_off,115,0,10,,,,,,,,8,,,,67,64
176995,note_off,235,0,14,,,,,,,,13,,,,36,64
176995,note_off,115,0,6,,,,,,,,4,,,,57,64
176995,note_off,235,0,9,,,,,,,,7,,,,36,64
176995,note_off,115,0,12,,,,,,,,11,,,,63,64
176995,note_off,235,0,8,,,,,,,,6,,,,48,64
176995,note_off,115,0,7,,,,,,,,5,,,,63,64
177000,note_on,5,0,13,,,,,,,,12,,,,48,49
177000,note_on,5,0,6,,,,,,,,4,,,,57,51
177000,note_on,5,0,9,,,,,,,,7,,,,36,49
177000,note_on,5,0,7,,,,,,,,5,,,,63,51
177000,note_on,5,0,11,,,,,,,,10,,,,57,51
177000,note_on,5,0,12,,,,,,,,11,,,,63,49
177000,note_on,5,0,5,,,,,,,,3,,,,67,51
177000,note_on,5,0,10,,,,,,,,8,,,,67,51
177000,note_on,5,0,14,,,,,,,,13,,,,36,49
177000,note_on,5,0,8,,,,,,,,6,,,,48,51
177115,note_off,115,0,10,,,,,,,,8,,,,67,64
177115,note_off,115,0,5,,,,,,,,3,,,,67,64
177115,note_off,115,0,7,,,,,,,,5,,,,63,64
177115,note_off,115,0,6,,,,,,,,4,,,,57,64
177115,note_off,115,0,12,,,,,,,,11,,,,63,64
177115,note_off,115,0,11,,,,,,,,10,,,,57,64
177120,note_on,5,0,6,,,,,,,,4,,,,57,54
177120,note_on,5,0,10,,,,,,,,8,,,,67,54
177120,note_on,5,0,11,,,,,,,,10,,,,57,54
177120,note_on,5,0,7,,,,,,,,5,,,,63,54
177120,note_on,5,0,12,,,,,,,,11,,,,63,51
177120,note_on,5,0,5,,,,,,,,3,,,,67,54
177160,note_off,400,0,15,,,,,,,,14,,,,36,64
177235,note_off,115,0,5,,,,,,,,3,,,,67,64
177235,note_off,115,0,6,,,,,,,,4,,,,57,64
177235,note_off,115,0,11,,,,,,,,10,,,,57,64
177235,note_off,115,0,10,,,,,,,,8,,,,67,64
177235,note_off,115,0,7,,,,,,,,5,,,,63,64
177235,note_off,235,0,14,,,,,,,,13,,,,36,64
177235,note_off,235,0,13,,,,,,,,12,,,,48,64
177235,note_off,235,0,8,,,,,,,,6,,,,48,64
177235,note_off,235,0,9,,,,,,,,7,,,,36,64
177235,note_off,115,0,12,,,,,,,,11,,,,63,64
177240,note_on,5,0,10,,,,,,,,8,,,,67,57
177240,note_on,5,0,6,,,,,,,,4,,,,57,57
177240,note_on,5,0,11,,,,,,,,10,,,,57,57
177240,note_on,5,0,8,,,,,,,,6,,,,48,57
177240,note_on,5,0,12,,,,,,,,11,,,,63,53
177240,note_on,5,0,13,,,,,,,,12,,,,48,53
177240,note_on,5,0,14,,,,,,,,13,,,,36,53
177240,note_on,5,0,9,,,,,,,,7,,,,36,53
177240,note_on,80,0,15,,,,,,,,14,,,,36,36
177240,note_on,5,0,5,,,,,,,,3,,,,67,57
177240,note_on,5,0,7,,,,,,,,5,,,,63,57
177355,note_off,115,0,10,,,,,,,,8,,,,67,64
177355,note_off,115,0,12,,,,,,,,11,,,,63,64
177355,note_off,115,0,11,,,,,,,,10,,,,57,64
177355,note_off,115,0,6,,,,,,,,4,,,,57,64
177355,note_off,115,0,5,,,,,,,,3,,,,67,64
177355,note_off,115,0,7,,,,,,,,5,,,,63,64
177360,note_on,5,0,12,,,,,,,,11,,,,63,55
177360,note_on,5,0,6,,,,,,,,4,,,,57,60
177360,note_on,5,0,10,,,,,,,,8,,,,67,60
177360,note_on,5,0,7,,,,,,,,5,,,,63,60
177360,note_on,5,0,5,,,,,,,,3,,,,67,60
177360,note_on,5,0,11,,,,,,,,10,,,,57,60
177475,note_off,115,0,6,,,,,,,,4,,,,57,64
177475,note_off,115,0,5,,,,,,,,3,,,,67,64
177475,note_off,235,0,14,,,,,,,,13,,,,36,64
177475,note_off,115,0,12,,,,,,,,11,,,,63,64
177475,note_off,235,0,9,,,,,,,,7,,,,36,64
177475,note_off,115,0,10,,,,,,,,8,,,,67,64
177475,note_off,235,0,8,,,,,,,,6,,,,48,64
177475,note_off,115,0,7,,,,,,,,5,,,,63,64
177475,note_off,115,0,11,,,,,,,,10,,,,57,64
177475,note_off,235,0,13,,,,,,,,12,,,,48,64
177480,note_on,5,0,6,,,,,,,,4,,,,57,63
177480,note_on,5,0,7,,,,,,,,5,,,,63,63
177480,note_on,5,0,12,,,,,,,,11,,,,63,57
177480,note_on,5,0,11,,,,,,,,10,,,,57,63
177480,note_on,5,0,14,,,,,,,,13,,,,36,57
177480,note_on,5,0,13,,,,,,,,12,,,,48,57
177480,note_on,5,0,10,,,,,,,,8,,,,67,63
177480,note_on,5,0,8,,,,,,,,6,,,,48,63
177480,note_on,5,0,9,,,,,,,,7,,,,36,57
177480,note_on,5,0,5,,,,,,,,3,,,,67,63
177595,note_off,115,0,7,,,,,,,,5,,,,63,64
177595,note_off,115,0,11,,,,,,,,10,,,,57,64
177595,note_off,115,0,12,,,,,,,,11,,,,63,64
177595,note_off,115,0,5,,,,,,,,3,,,,67,64
177595,note_off,115,0,10,,,,,,,,8,,,,67,64
177595,note_off,115,0,6,,,,,,,,4,,,,57,64
177600,note_on,5,0,12,,,,,,,,11,,,,63,59
177600,note_on,5,0,11,,,,,,,,10,,,,57,66
177600,note_on,5,0,6,,,,,,,,4,,,,57,66
177600,note_on,5,0,10,,,,,,,,8,,,,67,66
177600,note_on,5,0,5,,,,,,,,3,,,,67,66
177600,note_on,5,0,7,,,,,,,,5,,,,63,66
177640,note_off,400,0,15,,,,,,,,14,,,,36,64
177715,note_off,235,0,13,,,,,,,,12,,,,48,64
177715,note_off,115,0,6,,,,,,,,4,,,,57,64
177715,note_off,115,0,12,,,,,,,,11,,,,63,64
177715,note_off,115,0,10,,,,,,,,8,,,,67,64
177715,note_off,235,0,8,,,,,,,,6,,,,48,64
177715,note_off,115,0,5,,,,,,,,3,,,,67,64
177715,note_off,115,0,11,,,,,,,,10,,,,57,64
177715,note_off,115,0,7,,,,,,,,5,,,,63,64
177715,note_off,235,0,9,,,,,,,,7,,,,36,64
177715,note_off,235,0,14,,,,,,,,13,,,,36,64
177720,note_on,5,0,6,,,,,,,,4,,,,57,69
177720,note_on,5,0,10,,,,,,,,8,,,,66,69
177720,note_on,5,0,5,,,,,,,,3,,,,66,69
177720,note_on,5,0,14,,,,,,,,13,,,,38,62
177720,note_on,5,0,11,,,,,,,,10,,,,57,69
177720,note_on,5,0,13,,,,,,,,12,,,,50,62
177720,note_on,5,0,7,,,,,,,,5,,,,62,69
177720,note_on,80,0,15,,,,,,,,14,,,,38,42
177720,note_on,5,0,9,,,,,,,,7,,,,38,62
177720,note_on,5,0,8,,,,,,,,6,,,,50,69
177720,note_on,5,0,12,,,,,,,,11,,,,62,61
177835,note_off,115,0,7,,,,,,,,5,,,,62,64
177835,note_off,115,0,6,,,,,,,,4,,,,57,64
177835,note_off,115,0,12,,,,,,,,11,,,,62,64
177835,note_off,115,0,11,,,,,,,,10,,,,57,64
177835,note_off,115,0,5,,,,,,,,3,,,,66,64
177835,note_off,115,0,10,,,,,,,,8,,,,66,64
177840,note_on,5,0,6,,,,,,,,4,,,,57,72
177840,note_on,5,0,5,,,,,,,,3,,,,66,72
177840,note_on,5,0,10,,,,,,,,8,,,,66,72
177840,note_on,5,0,7,,,,,,,,5,,,,62,72
177840,note_on,5,0,11,,,,,,,,10,,,,57,72
177840,note_on,5,0,12,,,,,,,,11,,,,62,63
177955,note_off,115,0,12,,,,,,,,11,,,,62,64
177955,note_off,235,0,14,,,,,,,,13,,,,38,64
177955,note_off,115,0,7,,,,,,,,5,,,,62,64
177955,note_off,115,0,10,,,,,,,,8,,,,66,64
177955,note_off,235,0,8,,,,,,,,6,,,,50,64
177955,note_off,115,0,11,,,,,,,,10,,,,57,64
177955,note_off,235,0,13,,,,,,,,12,,,,50,64
177955,note_off,115,0,6,,,,,,,,4,,,,57,64
177955,note_off,115,0,5,,,,,,,,3,,,,66,64
177955,note_off,235,0,9,,,,,,,,7,,,,38,64
177960,note_on,5,0,7,,,,,,,,5,,,,62,75
177960,note_on,5,0,5,,,,,,,,3,,,,66,75
177960,note_on,5,0,8,,,,,,,,6,,,,50,75
177960,note_on,5,0,12,,,,,,,,11,,,,62,65
177960,note_on,5,0,6,,,,,,,,4,,,,57,75
177960,note_on,5,0,9,,,,,,,,7,,,,38,67
177960,note_on,5,0,10,,,,,,,,8,,,,66,75
177960,note_on,5,0,14,,,,,,,,13,,,,38,67
177960,note_on,5,0,13,,,,,,,,12,,,,50,67
177960,note_on,5,0,11,,,,,,,,10,,,,57,75
178075,note_off,115,0,10,,,,,,,,8,,,,66,64
178075,note_off,115,0,7,,,,,,,,5,,,,62,64
178075,note_off,115,0,5,,,,,,,,3,,,,66,64
178075,note_off,115,0,6,,,,,,,,4,,,,57,64
178075,note_off,115,0,11,,,,,,,,10,,,,57,64
178075,note_off,115,0,12,,,,,,,,11,,,,62,64
178080,note_on,5,0,11,,,,,,,,10,,,,57,78
178080,note_on,5,0,6,,,,,,,,4,,,,57,78
178080,note_on,5,0,10,,,,,,,,8,,,,66,78
178080,note_on,5,0,5,,,,,,,,3,,,,66,78
178080,note_on,5,0,12,,,,,,,,11,,,,62,67
178080,note_on,5,0,7,,,,,,,,5,,,,62,78
178120,note_off,400,0,15,,,,,,,,14,,,,38,64
178195,note_off,235,0,8,,,,,,,,6,,,,50,64
178195,note_off,115,0,6,,,,,,,,4,,,,57,64
178195,note_off,235,0,13,,,,,,,,12,,,,50,64
178195,note_off,235,0,9,,,,,,,,7,,,,38,64
178195,note_off,115,0,7,,,,,,,,5,,,,62,64
178195,note_off,115,0,10,,,,,,,,8,,,,66,64
178195,note_off,235,0,14,,,,,,,,13,,,,38,64
178195,note_off,115,0,5,,,,,,,,3,,,,66,64
178195,note_off,115,0,12,,,,,,,,11,,,,62,64
178195,note_off,115,0,11,,,,,,,,10,,,,57,64
178200,note_on,5,0,9,,,,,,,,7,,,,38,72
178200,note_on,5,0,10,,,,,,,,8,,,,66,81
178200,note_on,5,0,14,,,,,,,,13,,,,38,72
178200,note_on,5,0,5,,,,,,,,3,,,,66,81
178200,note_on,80,0,15,,,,,,,,14,,,,38,48
178200,note_on,5,0,12,,,,,,,,11,,,,62,69
178200,note_on,5,0,11,,,,,,,,10,,,,57,81
178200,note_on,5,0,13,,,,,,,,12,,,,50,72
178200,note_on,5,0,7,,,,,,,,5,,,,62,81
178200,note_on,5,0,8,,,,,,,,6,,,,50,81
178200,note_on,5,0,6,,,,,,,,4,,,,57,81
178315,note_off,115,0,5,,,,,,,,3,,,,66,64
178315,note_off,115,0,11,,,,,,,,10,,,,57,64
178315,note_off,115,0,7,,,,,,,,5,,,,62,64
178315,note_off,115,0,10,,,,,,,,8,,,,66,64
178315,note_off,115,0,6,,,,,,,,4,,,,57,64
178315,note_off,115,0,12,,,,,,,,11,,,,62,64
178320,note_on,5,0,6,,,,,,,,4,,,,57,84
178320,note_on,5,0,7,,,,,,,,5,,,,62,84
178320,note_on,5,0,11,,,,,,,,10,,,,57,84
178320,note_on,5,0,5,,,,,,,,3,,,,66,84
178320,note_on,5,0,12,,,,,,,,11,,,,62,71
178320,note_on,5,0,10,,,,,,,,8,,,,66,84
178435,note_off,235,0,14,,,,,,,,13,,,,38,64
178435,note_off,115,0,7,,,,,,,,5,,,,62,64
178435,note_off,115,0,10,,,,,,,,8,,,,66,64
178435,note_off,115,0,6,,,,,,,,4,,,,57,64
178435,note_off,235,0,13,,,,,,,,12,,,,50,64
178435,note_off,115,0,12,,,,,,,,11,,,,62,64
178435,note_off,115,0,5,,,,,,,,3,,,,66,64
178435,note_off,235,0,9,,,,,,,,7,,,,38,64
178435,note_off,115,0,11,,,,,,,,10,,,,57,64
178435,note_off,235,0,8,,,,,,,,6,,,,50,64
178440,note_on,5,0,6,,,,,,,,4,,,,57,88
178440,note_on,5,0,9,,,,,,,,7,,,,38,77
178440,note_on,5,0,8,,,,,,,,6,,,,50,87
178440,note_on,5,0,11,,,,,,,,10,,,,57,88
178440,note_on,5,0,12,,,,,,,,11,,,,62,74
178440,note_on,5,0,5,,,,,,,,3,,,,66,87
178440,note_on,5,0,10,,,,,,,,8,,,,66,87
178440,note_on,5,0,7,,,,,,,,5,,,,62,87
178440,note_on,5,0,14,,,,,,,,13,,,,38,77
178440,note_on,5,0,13,,,,,,,,12,,,,50,77
178555,note_off,115,0,5,,,,,,,,3,,,,66,64
178555,note_off,115,0,11,,,,,,,,10,,,,57,64
178555,note_off,115,0,12,,,,,,,,11,,,,62,64
178555,note_off,115,0,7,,,,,,,,5,,,,62,64
178555,note_off,115,0,6,,,,,,,,4,,,,57,64
178555,note_off,115,0,10,,,,,,,,8,,,,66,64
178560,note_on,5,0,12,,,,,,,,11,,,,62,77
178560,note_on,5,0,11,,,,,,,,10,,,,57,92
178560,note_on,5,0,7,,,,,,,,5,,,,62,90
178560,note_on,5,0,10,,,,,,,,8,,,,66,90
178560,note_on,5,0,6,,,,,,,,4,,,,57,92
178560,note_on,5,0,5,,,,,,,,3,,,,66,90
178600,note_off,400,0,15,,,,,,,,14,,,,38,64
178675,note_off,235,0,13,,,,,,,,12,,,,50,64
178675,note_off,235,0,9,,,,,,,,7,,,,38,64
178675,note_off,115,0,5,,,,,,,,3,,,,66,64
178675,note_off,235,0,8,,,,,,,,6,,,,50,64
178675,note_off,115,0,10,,,,,,,,8,,,,66,64
178675,note_off,115,0,6,,,,,,,,4,,,,57,64
178675,note_off,115,0,11,,,,,,,,10,,,,57,64
178675,note_off,115,0,7,,,,,,,,5,,,,62,64
178675,note_off,235,0,14,,,,,,,,13,,,,38,64
178675,note_off,115,0,12,,,,,,,,11,,,,62,64
178680,note_on,5,0,7,,,,,,,,5,,,,62,93
178680,note_on,5,0,5,,,,,,,,3,,,,66,93
178680,note_on,80,0,15,,,,,,,,14,,,,38,54
178680,note_on,5,0,13,,,,,,,,12,,,,50,82
178680,note_on,5,0,11,,,,,,,,10,,,,57,96
178680,note_on,5,0,6,,,,,,,,4,,,,57,96
178680,note_on,5,0,9,,,,,,,,7,,,,38,82
178680,note_on,5,0,10,,,,,,,,8,,,,66,93
178680,note_on,5,0,14,,,,,,,,13,,,,38,82
178680,note_on,5,0,8,,,,,,,,6,,,,50,94
178680,note_on,5,0,12,,,,,,,,11,,,,62,80
178795,note_off,115,0,5,,,,,,,,3,,,,66,64
178795,note_off,115,0,10,,,,,,,,8,,,,66,64
178795,note_off,115,0,6,,,,,,,,4,,,,57,64
178795,note_off,115,0,12,,,,,,,,11,,,,62,64
178795,note_off,115,0,7,,,,,,,,5,,,,62,64
178795,note_off,115,0,11,,,,,,,,10,,,,57,64
178800,note_on,5,0,5,,,,,,,,3,,,,66,96
178800,note_on,5,0,12,,,,,,,,11,,,,62,83
178800,note_on,5,0,7,,,,,,,,5,,,,62,96
178800,note_on,5,0,6,,,,,,,,4,,,,57,100
178800,note_on,5,0,10,,,,,,,,8,,,,66,96
178800,note_on,5,0,11,,,,,,,,10,,,,57,100
178915,note_off,115,0,10,,,,,,,,8,,,,66,64
178915,note_off,115,0,11,,,,,,,,10,,,,57,64
178915,note_off,235,0,8,,,,,,,,6,,,,50,64
178915,note_off,235,0,9,,,,,,,,7,,,,38,64
178915,note_off,115,0,5,,,,,,,,3,,,,66,64
178915,note_off,115,0,7,,,,,,,,5,,,,62,64
178915,note_off,115,0,6,,,,,,,,4,,,,57,64
178915,note_off,235,0,13,,,,,,,,12,,,,50,64
178915,note_off,235,0,14,,,,,,,,13,,,,38,64
178915,note_off,115,0,12,,,,,,,,11,,,,62,64
178920,note_on,5,0,5,,,,,,,,3,,,,66,100
178920,note_on,5,0,9,,,,,,,,7,,,,38,87
178920,note_on,5,0,11,,,,,,,,10,,,,57,104
178920,note_on,5,0,14,,,,,,,,13,,,,38,87
178920,note_on,5,0,6,,,,,,,,4,,,,57,104
178920,note_on,5,0,13,,,,,,,,12,,,,50,87
178920,note_on,5,0,10,,,,,,,,8,,,,66,100
178920,note_on,5,0,8,,,,,,,,6,,,,50,101
178920,note_on,5,0,12,,,,,,,,11,,,,62,86
178920,note_on,5,0,7,,,,,,,,5,,,,62,100
179035,note_off,115,0,7,,,,,,,,5,,,,62,64
179035,note_off,115,0,5,,,,,,,,3,,,,66,64
179035,note_off,115,0,11,,,,,,,,10,,,,57,64
179035,note_off,115,0,12,,,,,,,,11,,,,62,64
179035,note_off,115,0,6,,,,,,,,4,,,,57,64
179035,note_off,115,0,10,,,,,,,,8,,,,66,64
179040,note_on,5,0,11,,,,,,,,10,,,,57,108
179040,note_on,5,0,7,,,,,,,,5,,,,62,104
179040,note_on,5,0,6,,,,,,,,4,,,,57,108
179040,note_on,5,0,5,,,,,,,,3,,,,66,104
179040,note_on,5,0,12,,,,,,,,11,,,,62,89
179040,note_on,5,0,10,,,,,,,,8,,,,66,104
179080,note_off,400,0,15,,,,,,,,14,,,,38,64
179155,note_off,115,0,6,,,,,,,,4,,,,57,64
179155,note_off,115,0,5,,,,,,,,3,,,,66,64
179155,note_off,115,0,10,,,,,,,,8,,,,66,64
179155,note_off,235,0,9,,,,,,,,7,,,,38,64
179155,note_off,115,0,11,,,,,,,,10,,,,57,64
179155,note_off,235,0,14,,,,,,,,13,,,,38,64
179155,note_off,235,0,8,,,,,,,,6,,,,50,64
179155,note_off,235,0,13,,,,,,,,12,,,,50,64
179155,note_off,115,0,7,,,,,,,,5,,,,62,64
179155,note_off,115,0,12,,,,,,,,11,,,,62,64
179160,note_on,5,0,14,,,,,,,,13,,,,31,92
179160,note_on,5,0,5,,,,,,,,3,,,,67,108
179160,note_on,80,0,15,,,,,,,,14,,,,31,60
179160,note_on,5,0,12,,,,,,,,11,,,,58,92
179160,note_on,5,0,7,,,,,,,,5,,,,58,108
179160,note_on,5,0,8,,,,,,,,6,,,,43,108
179160,note_on,5,0,9,,,,,,,,7,,,,31,92
179160,note_on,5,0,10,,,,,,,,8,,,,67,108
179160,note_on,5,0,13,,,,,,,,12,,,,43,92
179275,note_off,115,0,5,,,,,,,,3,,,,67,64
179275,note_off,115,0,10,,,,,,,,8,,,,67,64
179275,note_off,115,0,7,,,,,,,,5,,,,58,64
179275,note_off,115,0,12,,,,,,,,11,,,,58,64
179280,note_on,5,0,7,,,,,,,,5,,,,58,108
179280,note_on,5,0,12,,,,,,,,11,,,,58,92
179280,note_on,5,0,10,,,,,,,,8,,,,62,108
179280,note_on,5,0,5,,,,,,,,3,,,,62,108
179395,note_off,235,0,9,,,,,,,,7,,,,31,64
179395,note_off,115,0,5,,,,,,,,3,,,,62,64
179395,note_off,115,0,10,,,,,,,,8,,,,62,64
179395,note_off,235,0,13,,,,,,,,12,,,,43,64
179395,note_off,235,0,8,,,,,,,,6,,,,43,64
179395,note_off,115,0,12,,,,,,,,11,,,,58,64
179395,note_off,115,0,7,,,,,,,,5,,,,58,64
179395,note_off,235,0,14,,,,,,,,13,,,,31,64
179400,note_on,5,0,10,,,,,,,,8,,,,58,108
179400,note_on,5,0,14,,,,,,,,13,,,,31,92
179400,note_on,5,0,8,,,,,,,,6,,,,43,108
179400,note_on,5,0,5,,,,,,,,3,,,,58,108
179400,note_on,5,0,7,,,,,,,,5,,,,58,108
179400,note_on,5,0,12,,,,,,,,11,,,,58,92
179400,note_on,5,0,9,,,,,,,,7,,,,31,92
179400,note_on,5,0,13,,,,,,,,12,,,,43,92
179515,note_off,115,0,10,,,,,,,,8,,,,58,64
179515,note_off,115,0,7,,,,,,,,5,,,,58,64
179515,note_off,115,0,5,,,,,,,,3,,,,58,64
179515,note_off,115,0,12,,,,,,,,11,,,,58,64
179520,note_on,5,0,7,,,,,,,,5,,,,58,108
179520,note_on,5,0,12,,,,,,,,11,,,,58,92
179520,note_on,5,0,10,,,,,,,,8,,,,55,108
179520,note_on,5,0,5,,,,,,,,3,,,,55,108
179560,note_off,400,0,15,,,,,,,,14,,,,31,64
179635,note_off,235,0,9,,,,,,,,7,,,,31,64
179635,note_off,115,0,10,,,,,,,,8,,,,55,64
179635,note_off,235,0,14,,,,,,,,13,,,,31,64
179635,note_off,235,0,8,,,,,,,,6,,,,43,64
179635,note_off,115,0,12,,,,,,,,11,,,,58,64
179635,note_off,115,0,5,,,,,,,,3,,,,55,64
179635,note_off,235,0,13,,,,,,,,12,,,,43,64
179635,note_off,115,0,7,,,,,,,,5,,,,58,64
179640,note_on,5,0,10,,,,,,,,8,,,,67,108
179640,note_on,5,0,8,,,,,,,,6,,,,46,108
179640,note_on,5,0,7,,,,,,,,5,,,,62,108
179640,note_on,5,0,5,,,,,,,,3,,,,67,108
179640,note_on,5,0,12,,,,,,,,11,,,,62,92
179640,note_on,5,0,14,,,,,,,,13,,,,34,92
179640,note_on,5,0,9,,,,,,,,7,,,,34,92
179640,note_on,5,0,13,,,,,,,,12,,,,46,92
179640,note_on,80,0,15,,,,,,,,14,,,,34,60
179755,note_off,115,0,7,,,,,,,,5,,,,62,64
179755,note_off,115,0,10,,,,,,,,8,,,,67,64
179755,note_off,115,0,12,,,,,,,,11,,,,62,64
179755,note_off,115,0,5,,,,,,,,3,,,,67,64
179760,note_on,5,0,10,,,,,,,,8,,,,62,108
179760,note_on,5,0,7,,,,,,,,5,,,,62,108
179760,note_on,5,0,5,,,,,,,,3,,,,62,108
179760,note_on,5,0,12,,,,,,,,11,,,,62,92
179875,note_off,235,0,13,,,,,,,,12,,,,46,64
179875,note_off,235,0,14,,,,,,,,13,,,,34,64
179875,note_off,235,0,8,,,,,,,,6,,,,46,64
179875,note_off,115,0,5,,,,,,,,3,,,,62,64
179875,note_off,115,0,7,,,,,,,,5,,,,62,64
179875,note_off,235,0,9,,,,,,,,7,,,,34,64
179875,note_off,115,0,12,,,,,,,,11,,,,62,64
179875,note_off,115,0,10,,,,,,,,8,,,,62,64
179880,note_on,5,0,8,,,,,,,,6,,,,46,108
179880,note_on,5,0,7,,,,,,,,5,,,,62,108
179880,note_on,5,0,13,,,,,,,,12,,,,46,92
179880,note_on,5,0,12,,,,,,,,11,,,,62,92
179880,note_on,5,0,9,,,,,,,,7,,,,34,92
179880,note_on,5,0,14,,,,,,,,13,,,,34,92
179880,note_on,5,0,5,,,,,,,,3,,,,58,108
179880,note_on,5,0,10,,,,,,,,8,,,,58,108
179995,note_off,115,0,7,,,,,,,,5,,,,62,64
179995,note_off,115,0,5,,,,,,,,3,,,,58,64
179995,note_off,115,0,10,,,,,,,,8,,,,58,64
179995,note_off,115,0,12,,,,,,,,11,,,,62,64
180000,note_on,5,0,12,,,,,,,,11,,,,62,92
180000,note_on,5,0,5,,,,,,,,3,,,,55,108
180000,note_on,5,0,7,,,,,,,,5,,,,62,108
180000,note_on,5,0,10,,,,,,,,8,,,,55,108
180040,note_off,400,0,15,,,,,,,,14,,,,34,64
180115,note_off,235,0,14,,,,,,,,13,,,,34,64
180115,note_off,115,0,10,,,,,,,,8,,,,55,64
180115,note_off,235,0,8,,,,,,,,6,,,,46,64
180115,note_off,235,0,9,,,,,,,,7,,,,34,64
180115,note_off,115,0,12,,,,,,,,11,,,,62,64
180115,note_off,235,0,13,,,,,,,,12,,,,46,64
180115,note_off,115,0,7,,,,,,,,5,,,,62,64
180115,note_off,115,0,5,,,,,,,,3,,,,55,64
180120,note_on,5,0,14,,,,,,,,13,,,,34,92
180120,note_on,5,0,7,,,,,,,,5,,,,62,108
180120,note_on,5,0,12,,,,,,,,11,,,,62,92
180120,note_on,5,0,8,,,,,,,,6,,,,46,108
180120,note_on,80,0,15,,,,,,,,14,,,,34,60
180120,note_on,5,0,13,,,,,,,,12,,,,46,92
180120,note_on,5,0,5,,,,,,,,3,,,,67,108
180120,note_on,5,0,9,,,,,,,,7,,,,34,92
180120,note_on,5,0,10,,,,,,,,8,,,,67,108
180235,note_off,115,0,12,,,,,,,,11,,,,62,64
180235,note_off,115,0,7,,,,,,,,5,,,,62,64
180235,note_off,115,0,5,,,,,,,,3,,,,67,64
180235,note_off,115,0,10,,,,,,,,8,,,,67,64
180240,note_on,5,0,12,,,,,,,,11,,,,62,92
180240,note_on,5,0,7,,,,,,,,5,,,,62,108
180240,note_on,5,0,5,,,,,,,,3,,,,62,108
180240,note_on,5,0,10,,,,,,,,8,,,,62,108
180355,note_off,115,0,7,,,,,,,,5,,,,62,64
180355,note_off,235,0,9,,,,,,,,7,,,,34,64
180355,note_off,115,0,12,,,,,,,,11,,,,62,64
180355,note_off,235,0,13,,,,,,,,12,,,,46,64
180355,note_off,235,0,14,,,,,,,,13,,,,34,64
180355,note_off,115,0,5,,,,,,,,3,,,,62,64
180355,note_off,115,0,10,,,,,,,,8,,,,62,64
180355,note_off,235,0,8,,,,,,,,6,,,,46,64
180360,note_on,5,0,10,,,,,,,,8,,,,58,108
180360,note_on,5,0,7,,,,,,,,5,,,,62,108
180360,note_on,5,0,13,,,,,,,,12,,,,46,92
180360,note_on,5,0,14,,,,,,,,13,,,,34,92
180360,note_on,5,0,9,,,,,,,,7,,,,34,92
180360,note_on,5,0,5,,,,,,,,3,,,,58,108
180360,note_on,5,0,12,,,,,,,,11,,,,62,92
180360,note_on,5,0,8,,,,,,,,6,,,,46,108
180475,note_off,115,0,5,,,,,,,,3,,,,58,64
180475,note_off,115,0,12,,,,,,,,11,,,,62,64
180475,note_off,115,0,10,,,,,,,,8,,,,58,64
180475,note_off,115,0,7,,,,,,,,5,,,,62,64
180480,note_on,5,0,7,,,,,,,,5,,,,62,108
180480,note_on,5,0,5,,,,,,,,3,,,,55,108
180480,note_on,5,0,12,,,,,,,,11,,,,62,92
180480,note_on,5,0,10,,,,,,,,8,,,,55,108
180520,note_off,400,0,15,,,,,,,,14,,,,34,64
180595,note_off,235,0,13,,,,,,,,12,,,,46,64
180595,note_off,115,0,10,,,,,,,,8,,,,55,64
180595,note_off,115,0,7,,,,,,,,5,,,,62,64
180595,note_off,115,0,5,,,,,,,,3,,,,55,64
180595,note_off,235,0,8,,,,,,,,6,,,,46,64
180595,note_off,115,0,12,,,,,,,,11,,,,62,64
180595,note_off,235,0,9,,,,,,,,7,,,,34,64
180595,note_off,235,0,14,,,,,,,,13,,,,34,64
180600,note_on,5,0,7,,,,,,,,5,,,,63,45
180600,note_on,1445,0,6,,,,,,,,4,,,,57,45
180600,note_on,5,0,8,,,,,,,,6,,,,48,45
180600,note_on,1445,0,11,,,,,,,,10,,,,57,45
180600,note_on,5,0,9,,,,,,,,7,,,,36,45
180600,note_on,5,0,13,,,,,,,,12,,,,48,45
180600,note_on,5,0,14,,,,,,,,13,,,,36,45
180600,note_on,5,0,10,,,,,,,,8,,,,67,45
180600,note_on,5,0,5,,,,,,,,3,,,,67,45
180600,note_on,5,0,12,,,,,,,,11,,,,63,45
180600,note_on,80,0,15,,,,,,,,14,,,,36,45
180715,note_off,115,0,11,,,,,,,,10,,,,57,64
180715,note_off,115,0,10,,,,,,,,8,,,,67,64
180715,note_off,115,0,7,,,,,,,,5,,,,63,64
180715,note_off,115,0,6,,,,,,,,4,,,,57,64
180715,note_off,115,0,5,,,,,,,,3,,,,67,64
180715,note_off,115,0,12,,,,,,,,11,,,,63,64
180720,note_on,5,0,5,,,,,,,,3,,,,67,45
180720,note_on,5,0,12,,,,,,,,11,,,,63,45
180720,note_on,5,0,7,,,,,,,,5,,,,63,45
180720,note_on,5,0,10,,,,,,,,8,,,,67,45
180720,note_on,5,0,6,,,,,,,,4,,,,57,45
180720,note_on,5,0,11,,,,,,,,10,,,,57,45
180835,note_off,115,0,12,,,,,,,,11,,,,63,64
180835,note_off,235,0,9,,,,,,,,7,,,,36,64
180835,note_off,235,0,13,,,,,,,,12,,,,48,64
180835,note_off,115,0,10,,,,,,,,8,,,,67,64
180835,note_off,235,0,8,,,,,,,,6,,,,48,64
180835,note_off,235,0,14,,,,,,,,13,,,,36,64
180835,note_off,115,0,6,,,,,,,,4,,,,57,64
180835,note_off,115,0,5,,,,,,,,3,,,,67,64
180835,note_off,115,0,7,,,,,,,,5,,,,63,64
180835,note_off,115,0,11,,,,,,,,10,,,,57,64
180840,note_on,5,0,14,,,,,,,,13,,,,36,45
180840,note_on,5,0,8,,,,,,,,6,,,,48,45
180840,note_on,5,0,11,,,,,,,,10,,,,57,45
180840,note_on,5,0,7,,,,,,,,5,,,,63,45
180840,note_on,5,0,12,,,,,,,,11,,,,63,45
180840,note_on,5,0,13,,,,,,,,12,,,,48,45
180840,note_on,5,0,5,,,,,,,,3,,,,67,45
180840,note_on,5,0,9,,,,,,,,7,,,,36,45
180840,note_on,5,0,10,,,,,,,,8,,,,67,45
180840,note_on,5,0,6,,,,,,,,4,,,,57,45
180955,note_off,115,0,11,,,,,,,,10,,,,57,64
180955,note_off,115,0,5,,,,,,,,3,,,,67,64
180955,note_off,115,0,12,,,,,,,,11,,,,63,64
180955,note_off,115,0,10,,,,,,,,8,,,,67,64
180955,note_off,115,0,7,,,,,,,,5,,,,63,64
180955,note_off,115,0,6,,,,,,,,4,,,,57,64
180960,note_on,5,0,10,,,,,,,,8,,,,67,45
180960,note_on,5,0,5,,,,,,,,3,,,,67,45
180960,note_on,5,0,11,,,,,,,,10,,,,57,45
180960,note_on,5,0,7,,,,,,,,5,,,,63,45
180960,note_on,5,0,12,,,,,,,,11,,,,63,45
180960,note_on,5,0,6,,,,,,,,4,,,,57,45
181000,note_off,400,0,15,,,,,,,,14,,,,36,64
181075,note_off,235,0,8,,,,,,,,6,,,,48,64
181075,note_off,115,0,10,,,,,,,,8,,,,67,64
181075,note_off,115,0,11,,,,,,,,10,,,,57,64
181075,note_off,115,0,6,,,,,,,,4,,,,57,64
181075,note_off,115,0,5,,,,,,,,3,,,,67,64
181075,note_off,235,0,9,,,,,,,,7,,,,36,64
181075,note_off,235,0,13,,,,,,,,12,,,,48,64
181075,note_off,235,0,14,,,,,,,,13,,,,36,64
181075,note_off,115,0,7,,,,,,,,5,,,,63,64
181075,note_off,115,0,12,,,,,,,,11,,,,63,64
181080,note_on,5,0,7,,,,,,,,5,,,,63,45
181080,note_on,5,0,10,,,,,,,,8,,,,67,45
181080,note_on,5,0,6,,,,,,,,4,,,,57,45
181080,note_on,5,0,5,,,,,,,,3,,,,67,45
181080,note_on,80,0,15,,,,,,,,14,,,,36,45
181080,note_on,5,0,9,,,,,,,,7,,,,36,45
181080,note_on,5,0,13,,,,,,,,12,,,,48,45
181080,note_on,5,0,12,,,,,,,,11,,,,63,45
181080,note_on,5,0,11,,,,,,,,10,,,,57,45
181080,note_on,5,0,14,,,,,,,,13,,,,36,45
181080,note_on,5,0,8,,,,,,,,6,,,,48,45
181195,note_off,115,0,10,,,,,,,,8,,,,67,64
181195,note_off,115,0,6,,,,,,,,4,,,,57,64
181195,note_off,115,0,12,,,,,,,,11,,,,63,64
181195,note_off,115,0,5,,,,,,,,3,,,,67,64
181195,note_off,115,0,7,,,,,,,,5,,,,63,64
181195,note_off,115,0,11,,,,,,,,10,,,,57,64
181200,note_on,5,0,12,,,,,,,,11,,,,63,46
181200,note_on,5,0,7,,,,,,,,5,,,,63,46
181200,note_on,5,0,6,,,,,,,,4,,,,57,48
181200,note_on,5,0,5,,,,,,,,3,,,,67,46
181200,note_on,5,0,10,,,,,,,,8,,,,67,46
181200,note_on,5,0,11,,,,,,,,10,,,,57,48
181315,note_off,115,0,6,,,,,,,,4,,,,57,64
181315,note_off,235,0,8,,,,,,,,6,,,,48,64
181315,note_off,115,0,7,,,,,,,,5,,,,63,64
181315,note_off,115,0,5,,,,,,,,3,,,,67,64
181315,note_off,235,0,14,,,,,,,,13,,,,36,64
181315,note_off,115,0,10,,,,,,,,8,,,,67,64
181315,note_off,115,0,12,,,,,,,,11,,,,63,64
181315,note_off,235,0,13,,,,,,,,12,,,,48,64
181315,note_off,235,0,9,,,,,,,,7,,,,36,64
181315,note_off,115,0,11,,,,,,,,10,,,,57,64
181320,note_on,5,0,10,,,,,,,,8,,,,67,47
181320,note_on,5,0,9,,,,,,,,7,,,,36,47
181320,note_on,5,0,7,,,,,,,,5,,,,63,47
181320,note_on,5,0,12,,,,,,,,11,,,,63,47
181320,note_on,5,0,13,,,,,,,,12,,,,48,47
181320,note_on,5,0,14,,,,,,,,13,,,,36,47
181320,note_on,5,0,8,,,,,,,,6,,,,48,48
181320,note_on,5,0,5,,,,,,,,3,,,,67,47
181320,note_on,5,0,6,,,,,,,,4,,,,57,51
181320,note_on,5,0,11,,,,,,,,10,,,,57,51
181435,note_off,115,0,10,,,,,,,,8,,,,67,64
181435,note_off,115,0,5,,,,,,,,3,,,,67,64
181435,note_off,115,0,11,,,,,,,,10,,,,57,64
181435,note_off,115,0,6,,,,,,,,4,,,,57,64
181435,note_off,115,0,7,,,,,,,,5,,,,63,64
181435,note_off,115,0,12,,,,,,,,11,,,,63,64
181440,note_on,5,0,11,,,,,,,,10,,,,57,54
181440,note_on,5,0,7,,,,,,,,5,,,,63,49
181440,note_on,5,0,10,,,,,,,,8,,,,67,49
181440,note_on,5,0,12,,,,,,,,11,,,,63,48
181440,note_on,5,0,6,,,,,,,,4,,,,57,54
181440,note_on,5,0,5,,,,,,,,3,,,,67,49
181480,note_off,400,0,15,,,,,,,,14,,,,36,64
181555,note_off,115,0,5,,,,,,,,3,,,,67,64
181555,note_off,235,0,13,,,,,,,,12,,,,48,64
181555,note_off,115,0,10,,,,,,,,8,,,,67,64
181555,note_off,235,0,14,,,,,,,,13,,,,36,64
181555,note_off,115,0,11,,,,,,,,10,,,,57,64
181555,note_off,235,0,8,,,,,,,,6,,,,48,64
181555,note_off,115,0,12,,,,,,,,11,,,,63,64
181555,note_off,115,0,6,,,,,,,,4,,,,57,64
181555,note_off,115,0,7,,,,,,,,5,,,,63,64
181555,note_off,235,0,9,,,,,,,,7,,,,36,64
181560,note_on,5,0,12,,,,,,,,11,,,,63,49
181560,note_on,5,0,11,,,,,,,,10,,,,57,57
181560,note_on,5,0,14,,,,,,,,13,,,,36,50
181560,note_on,5,0,10,,,,,,,,8,,,,67,51
181560,note_on,5,0,8,,,,,,,,6,,,,48,52
181560,note_on,5,0,13,,,,,,,,12,,,,48,50
181560,note_on,5,0,6,,,,,,,,4,,,,57,57
181560,note_on,5,0,7,,,,,,,,5,,,,63,51
181560,note_on,80,0,15,,,,,,,,14,,,,36,46
181560,note_on,5,0,5,,,,,,,,3,,,,67,51
181560,note_on,5,0,9,,,,,,,,7,,,,36,50
181675,note_off,115,0,6,,,,,,,,4,,,,57,64
181675,note_off,115,0,7,,,,,,,,5,,,,63,64
181675,note_off,115,0,12,,,,,,,,11,,,,63,64
181675,note_off,115,0,5,,,,,,,,3,,,,67,64
181675,note_off,115,0,11,,,,,,,,10,,,,57,64
181675,note_off,115,0,10,,,,,,,,8,,,,67,64
181680,note_on,5,0,7,,,,,,,,5,,,,63,53
181680,note_on,5,0,5,,,,,,,,3,,,,67,53
181680,note_on,5,0,11,,,,,,,,10,,,,57,60
181680,note_on,5,0,6,,,,,,,,4,,,,57,60
181680,note_on,5,0,12,,,,,,,,11,,,,63,50
181680,note_on,5,0,10,,,,,,,,8,,,,67,53
181795,note_off,115,0,10,,,,,,,,8,,,,67,64
181795,note_off,115,0,11,,,,,,,,10,,,,57,64
181795,note_off,235,0,9,,,,,,,,7,,,,36,64
181795,note_off,235,0,14,,,,,,,,13,,,,36,64
181795,note_off,115,0,6,,,,,,,,4,,,,57,64
181795,note_off,115,0,5,,,,,,,,3,,,,67,64
181795,note_off,235,0,13,,,,,,,,12,,,,48,64
181795,note_off,115,0,7,,,,,,,,5,,,,63,64
181795,note_off,115,0,12,,,,,,,,11,,,,63,64
181795,note_off,235,0,8,,,,,,,,6,,,,48,64
181800,note_on,5,0,8,,,,,,,,6,,,,48,56
181800,note_on,5,0,11,,,,,,,,10,,,,57,63
181800,note_on,5,0,9,,,,,,,,7,,,,36,53
181800,note_on,5,0,7,,,,,,,,5,,,,63,55
181800,note_on,5,0,10,,,,,,,,8,,,,67,55
181800,note_on,5,0,14,,,,,,,,13,,,,36,53
181800,note_on,5,0,12,,,,,,,,11,,,,63,51
181800,note_on,5,0,6,,,,,,,,4,,,,57,63
181800,note_on,5,0,13,,,,,,,,12,,,,48,53
181800,note_on,5,0,5,,,,,,,,3,,,,67,55
181915,note_off,115,0,12,,,,,,,,11,,,,63,64
181915,note_off,115,0,10,,,,,,,,8,,,,67,64
181915,note_off,115,0,11,,,,,,,,10,,,,57,64
181915,note_off,115,0,6,,,,,,,,4,,,,57,64
181915,note_off,115,0,7,,,,,,,,5,,,,63,64
181915,note_off,115,0,5,,,,,,,,3,,,,67,64
181920,note_on,5,0,12,,,,,,,,11,,,,63,52
181920,note_on,5,0,11,,,,,,,,10,,,,57,66
181920,note_on,5,0,10,,,,,,,,8,,,,67,57
181920,note_on,5,0,6,,,,,,,,4,,,,57,66
181920,note_on,5,0,7,,,,,,,,5,,,,63,57
181920,note_on,5,0,5,,,,,,,,3,,,,67,57
181960,note_off,400,0,15,,,,,,,,14,,,,36,64
182035,note_off,235,0,9,,,,,,,,7,,,,36,64
182035,note_off,115,0,6,,,,,,,,4,,,,57,64
182035,note_off,115,0,11,,,,,,,,10,,,,57,64
182035,note_off,115,0,5,,,,,,,,3,,,,67,64
182035,note_off,235,0,13,,,,,,,,12,,,,48,64
182035,note_off,115,0,7,,,,,,,,5,,,,63,64
182035,note_off,235,0,8,,,,,,,,6,,,,48,64
182035,note_off,115,0,12,,,,,,,,11,,,,63,64
182035,note_off,235,0,14,,,,,,,,13,,,,36,64
182035,note_off,115,0,10,,,,,,,,8,,,,67,64
182040,note_on,5,0,11,,,,,,,,10,,,,57,69
182040,note_on,5,0,12,,,,,,,,11,,,,62,53
182040,note_on,5,0,6,,,,,,,,4,,,,57,69
182040,note_on,80,0,15,,,,,,,,14,,,,38,48
182040,note_on,5,0,7,,,,,,,,5,,,,62,59
182040,note_on,5,0,8,,,,,,,,6,,,,50,60
182040,note_on,5,0,9,,,,,,,,7,,,,38,56
182040,note_on,5,0,14,,,,,,,,13,,,,38,56
182040,note_on,5,0,5,,,,,,,,3,,,,66,59
182040,note_on,5,0,10,,,,,,,,8,,,,66,59
182040,note_on,5,0,13,,,,,,,,12,,,,50,56
182155,note_off,115,0,5,,,,,,,,3,,,,66,64
182155,note_off,115,0,6,,,,,,,,4,,,,57,64
182155,note_off,115,0,12,,,,,,,,11,,,,62,64
182155,note_off,115,0,7,,,,,,,,5,,,,62,64
182155,note_off,115,0,11,,,,,,,,10,,,,57,64
182155,note_off,115,0,10,,,,,,,,8,,,,66,64
182160,note_on,5,0,7,,,,,,,,5,,,,62,61
182160,note_on,5,0,5,,,,,,,,3,,,,66,61
182160,note_on,5,0,12,,,,,,,,11,,,,62,54
182160,note_on,5,0,6,,,,,,,,4,,,,57,72
182160,note_on,5,0,10,,,,,,,,8,,,,66,61
182160,note_on,5,0,11,,,,,,,,10,,,,57,72
182275,note_off,235,0,13,,,,,,,,12,,,,50,64
182275,note_off,235,0,9,,,,,,,,7,,,,38,64
182275,note_off,235,0,14,,,,,,,,13,,,,38,64
182275,note_off,115,0,11,,,,,,,,10,,,,57,64
182275,note_off,115,0,10,,,,,,,,8,,,,66,64
182275,note_off,235,0,8,,,,,,,,6,,,,50,64
182275,note_off,115,0,12,,,,,,,,11,,,,62,64
182275,note_off,115,0,5,,,,,,,,3,,,,66,64
182275,note_off,115,0,7,,,,,,,,5,,,,62,64
182275,note_off,115,0,6,,,,,,,,4,,,,57,64
182280,note_on,5,0,13,,,,,,,,12,,,,50,59
182280,note_on,5,0,8,,,,,,,,6,,,,50,64
182280,note_on,5,0,11,,,,,,,,10,,,,57,75
182280,note_on,5,0,6,,,,,,,,4,,,,57,75
182280,note_on,5,0,14,,,,,,,,13,,,,38,59
182280,note_on,5,0,5,,,,,,,,3,,,,66,63
182280,note_on,5,0,10,,,,,,,,8,,,,66,63
182280,note_on,5,0,7,,,,,,,,5,,,,62,63
182280,note_on,5,0,9,,,,,,,,7,,,,38,59
182280,note_on,5,0,12,,,,,,,,11,,,,62,55
182395,note_off,115,0,6,,,,,,,,4,,,,57,64
182395,note_off,115,0,11,,,,,,,,10,,,,57,64
182395,note_off,115,0,7,,,,,,,,5,,,,62,64
182395,note_off,115,0,12,,,,,,,,11,,,,62,64
182395,note_off,115,0,10,,,,,,,,8,,,,66,64
182395,note_off,115,0,5,,,,,,,,3,,,,66,64
182400,note_on,5,0,5,,,,,,,,3,,,,66,65
182400,note_on,5,0,10,,,,,,,,8,,,,66,65
182400,note_on,5,0,11,,,,,,,,10,,,,57,78
182400,note_on,5,0,12,,,,,,,,11,,,,62,56
182400,note_on,5,0,6,,,,,,,,4,,,,57,78
182400,note_on,5,0,7,,,,,,,,5,,,,62,65
182440,note_off,400,0,15,,,,,,,,14,,,,38,64
182515,note_off,115,0,11,,,,,,,,10,,,,57,64
182515,note_off,235,0,14,,,,,,,,13,,,,38,64
182515,note_off,115,0,5,,,,,,,,3,,,,66,64
182515,note_off,115,0,12,,,,,,,,11,,,,62,64
182515,note_off,115,0,10,,,,,,,,8,,,,66,64
182515,note_off,235,0,9,,,,,,,,7,,,,38,64
182515,note_off,115,0,6,,,,,,,,4,,,,57,64
182515,note_off,235,0,8,,,,,,,,6,,,,50,64
182515,note_off,115,0,7,,,,,,,,5,,,,62,64
182515,note_off,235,0,13,,,,,,,,12,,,,50,64
182520,note_on,80,0,15,,,,,,,,14,,,,38,50
182520,note_on,5,0,11,,,,,,,,10,,,,57,81
182520,note_on,5,0,12,,,,,,,,11,,,,62,57
182520,note_on,5,0,10,,,,,,,,8,,,,66,67
182520,note_on,5,0,14,,,,,,,,13,,,,38,62
182520,note_on,5,0,8,,,,,,,,6,,,,50,68
182520,note_on,5,0,6,,,,,,,,4,,,,57,81
182520,note_on,5,0,9,,,,,,,,7,,,,38,62
182520,note_on,5,0,13,,,,,,,,12,,,,50,62
182520,note_on,5,0,7,,,,,,,,5,,,,62,67
182520,note_on,5,0,5,,,,,,,,3,,,,66,67
182635,note_off,115,0,11,,,,,,,,10,,,,57,64
182635,note_off,115,0,7,,,,,,,,5,,,,62,64
182635,note_off,115,0,5,,,,,,,,3,,,,66,64
182635,note_off,115,0,6,,,,,,,,4,,,,57,64
182635,note_off,115,0,10,,,,,,,,8,,,,66,64
182635,note_off,115,0,12,,,,,,,,11,,,,62,64
182640,note_on,5,0,10,,,,,,,,8,,,,66,69
182640,note_on,5,0,7,,,,,,,,5,,,,62,69
182640,note_on,5,0,5,,,,,,,,3,,,,66,69
182640,note_on,5,0,11,,,,,,,,10,,,,57,84
182640,note_on,5,0,12,,,,,,,,11,,,,62,58
182640,note_on,5,0,6,,,,,,,,4,,,,57,84
182755,note_off,115,0,12,,,,,,,,11,,,,62,64
182755,note_off,235,0,9,,,,,,,,7,,,,38,64
182755,note_off,235,0,13,,,,,,,,12,,,,50,64
182755,note_off,235,0,14,,,,,,,,13,,,,38,64
182755,note_off,115,0,5,,,,,,,,3,,,,66,64
182755,note_off,115,0,6,,,,,,,,4,,,,57,64
182755,note_off,115,0,11,,,,,,,,10,,,,57,64
182755,note_off,235,0,8,,,,,,,,6,,,,50,64
182755,note_off,115,0,7,,,,,,,,5,,,,62,64
182755,note_off,115,0,10,,,,,,,,8,,,,66,64
182760,note_on,5,0,9,,,,,,,,7,,,,38,65
182760,note_on,5,0,6,,,,,,,,4,,,,57,88
182760,note_on,5,0,13,,,,,,,,12,,,,50,65
182760,note_on,5,0,7,,,,,,,,5,,,,62,71
182760,note_on,5,0,11,,,,,,,,10,,,,57,88
182760,note_on,5,0,5,,,,,,,,3,,,,66,71
182760,note_on,5,0,12,,,,,,,,11,,,,62,59
182760,note_on,5,0,8,,,,,,,,6,,,,50,72
182760,note_on,5,0,10,,,,,,,,8,,,,66,71
182760,note_on,5,0,14,,,,,,,,13,,,,38,65
182875,note_off,115,0,10,,,,,,,,8,,,,66,64
182875,note_off,115,0,5,,,,,,,,3,,,,66,64
182875,note_off,115,0,12,,,,,,,,11,,,,62,64
182875,note_off,115,0,11,,,,,,,,10,,,,57,64
182875,note_off,115,0,6,,,,,,,,4,,,,57,64
182875,note_off,115,0,7,,,,,,,,5,,,,62,64
182880,note_on,5,0,6,,,,,,,,4,,,,57,92
182880,note_on,5,0,11,,,,,,,,10,,,,57,92
182880,note_on,5,0,12,,,,,,,,11,,,,62,60
182880,note_on,5,0,5,,,,,,,,3,,,,66,73
182880,note_on,5,0,7,,,,,,,,5,,,,62,73
182880,note_on,5,0,10,,,,,,,,8,,,,66,73
182920,note_off,400,0,15,,,,,,,,14,,,,38,64
182995,note_off,115,0,6,,,,,,,,4,,,,57,64
182995,note_off,115,0,10,,,,,,,,8,,,,66,64
182995,note_off,115,0,7,,,,,,,,5,,,,62,64
182995,note_off,235,0,13,,,,,,,,12,,,,50,64
182995,note_off,235,0,14,,,,,,,,13,,,,38,64
182995,note_off,235,0,8,,,,,,,,6,,,,50,64
182995,note_off,115,0,11,,,,,,,,10,,,,57,64
182995,note_off,115,0,5,,,,,,,,3,,,,66,64
182995,note_off,235,0,9,,,,,,,,7,,,,38,64
182995,note_off,115,0,12,,,,,,,,11,,,,62,64
183000,note_on,5,0,11,,,,,,,,10,,,,57,96
183000,note_on,5,0,9,,,,,,,,7,,,,38,68
183000,note_on,5,0,6,,,,,,,,4,,,,57,96
183000,note_on,5,0,14,,,,,,,,13,,,,38,68
183000,note_on,5,0,8,,,,,,,,6,,,,50,76
183000,note_on,5,0,7,,,,,,,,5,,,,62,75
183000,note_on,5,0,12,,,,,,,,11,,,,62,61
183000,note_on,5,0,10,,,,,,,,8,,,,66,75
183000,note_on,80,0,15,,,,,,,,14,,,,38,52
183000,note_on,5,0,5,,,,,,,,3,,,,66,75
183000,note_on,5,0,13,,,,,,,,12,,,,50,68
183115,note_off,115,0,10,,,,,,,,8,,,,66,64
183115,note_off,115,0,5,,,,,,,,3,,,,66,64
183115,note_off,115,0,7,,,,,,,,5,,,,62,64
183115,note_off,115,0,11,,,,,,,,10,,,,57,64
183115,note_off,115,0,12,,,,,,,,11,,,,62,64
183115,note_off,115,0,6,,,,,,,,4,,,,57,64
183120,note_on,5,0,7,,,,,,,,5,,,,62,77
183120,note_on,5,0,5,,,,,,,,3,,,,66,77
183120,note_on,5,0,10,,,,,,,,8,,,,66,77
183120,note_on,5,0,11,,,,,,,,10,,,,57,100
183120,note_on,5,0,12,,,,,,,,11,,,,62,62
183120,note_on,5,0,6,,,,,,,,4,,,,57,100
183235,note_off,115,0,10,,,,,,,,8,,,,66,64
183235,note_off,115,0,6,,,,,,,,4,,,,57,64
183235,note_off,235,0,8,,,,,,,,6,,,,50,64
183235,note_off,115,0,7,,,,,,,,5,,,,62,64
183235,note_off,115,0,5,,,,,,,,3,,,,66,64
183235,note_off,235,0,9,,,,,,,,7,,,,38,64
183235,note_off,235,0,14,,,,,,,,13,,,,38,64
183235,note_off,115,0,11,,,,,,,,10,,,,57,64
183235,note_off,235,0,13,,,,,,,,12,,,,50,64
183235,note_off,115,0,12,,,,,,,,11,,,,62,64
183240,note_on,5,0,8,,,,,,,,6,,,,50,80
183240,note_on,5,0,6,,,,,,,,4,,,,57,104
183240,note_on,5,0,11,,,,,,,,10,,,,57,104
183240,note_on,5,0,9,,,,,,,,7,,,,38,71
183240,note_on,5,0,12,,,,,,,,11,,,,62,64
183240,note_on,5,0,10,,,,,,,,8,,,,66,79
183240,note_on,5,0,5,,,,,,,,3,,,,66,79
183240,note_on,5,0,7,,,,,,,,5,,,,62,79
183240,note_on,5,0,13,,,,,,,,12,,,,50,71
183240,note_on,5,0,14,,,,,,,,13,,,,38,71
183355,note_off,115,0,5,,,,,,,,3,,,,66,64
183355,note_off,115,0,10,,,,,,,,8,,,,66,64
183355,note_off,115,0,11,,,,,,,,10,,,,57,64
183355,note_off,115,0,6,,,,,,,,4,,,,57,64
183355,note_off,115,0,7,,,,,,,,5,,,,62,64
183355,note_off,115,0,12,,,,,,,,11,,,,62,64
183360,note_on,5,0,6,,,,,,,,4,,,,57,108
183360,note_on,5,0,11,,,,,,,,10,,,,57,108
183360,note_on,5,0,5,,,,,,,,3,,,,66,81
183360,note_on,5,0,10,,,,,,,,8,,,,66,81
183360,note_on,5,0,12,,,,,,,,11,,,,62,66
183360,note_on,5,0,7,,,,,,,,5,,,,62,81
183400,note_off,400,0,15,,,,,,,,14,,,,38,64
183475,note_off,235,0,8,,,,,,,,6,,,,50,64
183475,note_off,115,0,10,,,,,,,,8,,,,66,64
183475,note_off,115,0,5,,,,,,,,3,,,,66,64
183475,note_off,235,0,9,,,,,,,,7,,,,38,64
183475,note_off,115,0,11,,,,,,,,10,,,,57,64
183475,note_off,235,0,14,,,,,,,,13,,,,38,64
183475,note_off,115,0,12,,,,,,,,11,,,,62,64
183475,note_off,235,0,13,,,,,,,,12,,,,50,64
183475,note_off,115,0,6,,,,,,,,4,,,,57,64
183475,note_off,115,0,7,,,,,,,,5,,,,62,64
183480,note_on,5,0,10,,,,,,,,8,,,,67,83
183480,note_on,5,0,13,,,,,,,,12,,,,43,74
183480,note_on,5,0,12,,,,,,,,11,,,,62,68
183480,note_on,5,0,5,,,,,,,,3,,,,67,83
183480,note_on,5,0,11,,,,,,,,10,,,,62,108
183480,set_tempo,103680,1,0,410958,,,,,,,,,,,,
183480,note_on,5,0,8,,,,,,,,6,,,,43,84
183480,note_on,5,0,9,,,,,,,,7,,,,31,74
183480,note_on,5,0,14,,,,,,,,13,,,,31,74
183480,note_on,5,0,6,,,,,,,,4,,,,62,108
183480,note_on,80,0,15,,,,,,,,14,,,,31,54
183480,note_on,5,0,7,,,,,,,,5,,,,62,83
183595,note_off,115,0,11,,,,,,,,10,,,,62,64
183595,note_off,115,0,12,,,,,,,,11,,,,62,64
183595,note_off,115,0,7,,,,,,,,5,,,,62,64
183595,note_off,115,0,14,,,,,,,,13,,,,31,64
183595,note_off,115,0,5,,,,,,,,3,,,,67,64
183595,note_off,115,0,9,,,,,,,,7,,,,31,64
183595,note_off,115,0,13,,,,,,,,12,,,,43,64
183595,note_off,115,0,10,,,,,,,,8,,,,67,64
183595,note_off,115,0,6,,,,,,,,4,,,,62,64
183595,note_off,115,0,8,,,,,,,,6,,,,43,64
183600,note_on,5,0,7,,,,,,,,5,,,,58,85
183600,note_on,5,0,13,,,,,,,,12,,,,55,75
183600,note_on,5,0,11,,,,,,,,10,,,,62,108
183600,note_on,5,0,8,,,,,,,,6,,,,55,86
183600,note_on,5,0,12,,,,,,,,11,,,,58,70
183600,note_on,5,0,6,,,,,,,,4,,,,62,108
183600,note_on,5,0,14,,,,,,,,13,,,,43,75
183600,note_on,5,0,9,,,,,,,,7,,,,43,75
183600,note_on,5,0,10,,,,,,,,8,,,,67,85
183600,note_on,5,0,5,,,,,,,,3,,,,67,85
183715,note_off,115,0,8,,,,,,,,6,,,,55,64
183715,note_off,115,0,7,,,,,,,,5,,,,58,64
183715,note_off,115,0,10,,,,,,,,8,,,,67,64
183715,note_off,115,0,5,,,,,,,,3,,,,67,64
183715,note_off,115,0,12,,,,,,,,11,,,,58,64
183715,note_off,115,0,11,,,,,,,,10,,,,62,64
183715,note_off,115,0,6,,,,,,,,4,,,,62,64
183715,note_off,115,0,9,,,,,,,,7,,,,43,64
183715,note_off,115,0,13,,,,,,,,12,,,,55,64
183715,note_off,115,0,14,,,,,,,,13,,,,43,64
183720,note_on,5,0,7,,,,,,,,5,,,,58,87
183720,note_on,5,0,8,,,,,,,,6,,,,43,88
183720,note_on,5,0,6,,,,,,,,4,,,,62,108
183720,note_on,5,0,11,,,,,,,,10,,,,62,108
183720,note_on,5,0,14,,,,,,,,13,,,,31,76
183720,note_on,5,0,10,,,,,,,,8,,,,67,87
183720,note_on,5,0,9,,,,,,,,7,,,,31,76
183720,note_on,5,0,12,,,,,,,,11,,,,58,72
183720,note_on,5,0,13,,,,,,,,12,,,,43,76
183720,note_on,5,0,5,,,,,,,,3,,,,67,87
183835,note_off,115,0,14,,,,,,,,13,,,,31,64
183835,note_off,115,0,10,,,,,,,,8,,,,67,64
183835,note_off,115,0,9,,,,,,,,7,,,,31,64
183835,note_off,115,0,6,,,,,,,,4,,,,62,64
183835,note_off,115,0,12,,,,,,,,11,,,,58,64
183835,note_off,115,0,8,,,,,,,,6,,,,43,64
183835,note_off,115,0,5,,,,,,,,3,,,,67,64
183835,note_off,115,0,7,,,,,,,,5,,,,58,64
183835,note_off,115,0,11,,,,,,,,10,,,,62,64
183835,note_off,115,0,13,,,,,,,,12,,,,43,64
183840,note_on,5,0,11,,,,,,,,10,,,,62,108
183840,note_on,5,0,7,,,,,,,,5,,,,58,89
183840,note_on,5,0,10,,,,,,,,8,,,,67,89
183840,note_on,5,0,6,,,,,,,,4,,,,62,108
183840,note_on,5,0,14,,,,,,,,13,,,,43,77
183840,note_on,5,0,12,,,,,,,,11,,,,58,74
183840,note_on,5,0,13,,,,,,,,12,,,,55,77
183840,note_on,5,0,9,,,,,,,,7,,,,43,77
183840,note_on,5,0,5,,,,,,,,3,,,,67,89
183840,note_on,5,0,8,,,,,,,,6,,,,55,90
183880,note_off,400,0,15,,,,,,,,14,,,,31,64
183955,note_off,115,0,7,,,,,,,,5,,,,58,64
183955,note_off,115,0,14,,,,,,,,13,,,,43,64
183955,note_off,115,0,5,,,,,,,,3,,,,67,64
183955,note_off,115,0,13,,,,,,,,12,,,,55,64
183955,note_off,115,0,6,,,,,,,,4,,,,62,64
183955,note_off,115,0,9,,,,,,,,7,,,,43,64
183955,note_off,115,0,10,,,,,,,,8,,,,67,64
183955,note_off,115,0,8,,,,,,,,6,,,,55,64
183955,note_off,115,0,11,,,,,,,,10,,,,62,64
183955,note_off,115,0,12,,,,,,,,11,,,,58,64
183960,note_on,5,0,14,,,,,,,,13,,,,31,78
183960,note_on,80,0,15,,,,,,,,14,,,,31,56
183960,note_on,5,0,8,,,,,,,,6,,,,43,92
183960,note_on,5,0,6,,,,,,,,4,,,,67,108
183960,note_on,5,0,5,,,,,,,,3,,,,70,91
183960,note_on,5,0,13,,,,,,,,12,,,,43,78
183960,note_on,5,0,7,,,,,,,,5,,,,62,91
183960,note_on,5,0,11,,,,,,,,10,,,,67,108
183960,note_on,5,0,9,,,,,,,,7,,,,31,78
183960,note_on,5,0,10,,,,,,,,8,,,,70,91
183960,note_on,5,0,12,,,,,,,,11,,,,62,76
184075,note_off,115,0,9,,,,,,,,7,,,,31,64
184075,note_off,115,0,6,,,,,,,,4,,,,67,64
184075,note_off,115,0,7,,,,,,,,5,,,,62,64
184075,note_off,115,0,10,,,,,,,,8,,,,70,64
184075,note_off,115,0,12,,,,,,,,11,,,,62,64
184075,note_off,115,0,14,,,,,,,,13,,,,31,64
184075,note_off,115,0,11,,,,,,,,10,,,,67,64
184075,note_off,115,0,5,,,,,,,,3,,,,70,64
184075,note_off,115,0,8,,,,,,,,6,,,,43,64
184075,note_off,115,0,13,,,,,,,,12,,,,43,64
184080,note_on,5,0,10,,,,,,,,8,,,,70,93
184080,note_on,5,0,11,,,,,,,,10,,,,67,108
184080,note_on,5,0,14,,,,,,,,13,,,,43,79
184080,note_on,5,0,5,,,,,,,,3,,,,70,93
184080,note_on,5,0,9,,,,,,,,7,,,,43,79
184080,note_on,5,0,8,,,,,,,,6,,,,55,94
184080,note_on,5,0,12,,,,,,,,11,,,,62,78
184080,note_on,5,0,13,,,,,,,,12,,,,55,79
184080,note_on,5,0,7,,,,,,,,5,,,,62,93
184080,note_on,5,0,6,,,,,,,,4,,,,67,108
184195,note_off,115,0,10,,,,,,,,8,,,,70,64
184195,note_off,115,0,6,,,,,,,,4,,,,67,64
184195,note_off,115,0,11,,,,,,,,10,,,,67,64
184195,note_off,115,0,8,,,,,,,,6,,,,55,64
184195,note_off,115,0,13,,,,,,,,12,,,,55,64
184195,note_off,115,0,5,,,,,,,,3,,,,70,64
184195,note_off,115,0,9,,,,,,,,7,,,,43,64
184195,note_off,115,0,7,,,,,,,,5,,,,62,64
184195,note_off,115,0,14,,,,,,,,13,,,,43,64
184195,note_off,115,0,12,,,,,,,,11,,,,62,64
184200,note_on,5,0,8,,,,,,,,6,,,,43,96
184200,note_on,5,0,6,,,,,,,,4,,,,67,108
184200,note_on,5,0,5,,,,,,,,3,,,,70,95
184200,note_on,5,0,12,,,,,,,,11,,,,62,80
184200,note_on,5,0,13,,,,,,,,12,,,,43,80
184200,note_on,5,0,11,,,,,,,,10,,,,67,108
184200,note_on,5,0,14,,,,,,,,13,,,,31,80
184200,note_on,5,0,7,,,,,,,,5,,,,62,95
184200,note_on,5,0,9,,,,,,,,7,,,,31,80
184200,note_on,5,0,10,,,,,,,,8,,,,70,95
184315,note_off,115,0,5,,,,,,,,3,,,,70,64
184315,note_off,115,0,13,,,,,,,,12,,,,43,64
184315,note_off,115,0,11,,,,,,,,10,,,,67,64
184315,note_off,115,0,9,,,,,,,,7,,,,31,64
184315,note_off,115,0,8,,,,,,,,6,,,,43,64
184315,note_off,115,0,7,,,,,,,,5,,,,62,64
184315,note_off,115,0,6,,,,,,,,4,,,,67,64
184315,note_off,115,0,12,,,,,,,,11,,,,62,64
184315,note_off,115,0,14,,,,,,,,13,,,,31,64
184315,note_off,115,0,10,,,,,,,,8,,,,70,64
184320,note_on,5,0,5,,,,,,,,3,,,,70,97
184320,note_on,5,0,7,,,,,,,,5,,,,62,97
184320,note_on,5,0,11,,,,,,,,10,,,,67,108
184320,note_on,5,0,9,,,,,,,,7,,,,43,82
184320,note_on,5,0,6,,,,,,,,4,,,,67,108
184320,note_on,5,0,10,,,,,,,,8,,,,70,97
184320,note_on,5,0,13,,,,,,,,12,,,,55,82
184320,note_on,5,0,14,,,,,,,,13,,,,43,82
184320,note_on,5,0,12,,,,,,,,11,,,,62,82
184320,note_on,5,0,8,,,,,,,,6,,,,55,98
184360,note_off,400,0,15,,,,,,,,14,,,,31,64
184435,note_off,115,0,6,,,,,,,,4,,,,67,64
184435,note_off,115,0,14,,,,,,,,13,,,,43,64
184435,note_off,115,0,5,,,,,,,,3,,,,70,64
184435,note_off,115,0,10,,,,,,,,8,,,,70,64
184435,note_off,115,0,11,,,,,,,,10,,,,67,64
184435,note_off,115,0,9,,,,,,,,7,,,,43,64
184435,note_off,115,0,12,,,,,,,,11,,,,62,64
184435,note_off,115,0,8,,,,,,,,6,,,,55,64
184435,note_off,115,0,7,,,,,,,,5,,,,62,64
184435,note_off,115,0,13,,,,,,,,12,,,,55,64
184440,note_on,5,0,13,,,,,,,,12,,,,43,84
184440,note_on,5,0,9,,,,,,,,7,,,,31,84
184440,note_on,5,0,14,,,,,,,,13,,,,31,84
184440,note_on,5,0,12,,,,,,,,11,,,,67,84
184440,note_on,80,0,15,,,,,,,,14,,,,31,58
184440,note_on,5,0,8,,,,,,,,6,,,,43,100
184440,note_on,5,0,7,,,,,,,,5,,,,67,99
184440,note_on,5,0,6,,,,,,,,4,,,,70,108
184440,note_on,5,0,10,,,,,,,,8,,,,74,99
184440,note_on,5,0,5,,,,,,,,3,,,,74,99
184440,note_on,5,0,11,,,,,,,,10,,,,70,108
184555,note_off,115,0,11,,,,,,,,10,,,,70,64
184555,note_off,115,0,12,,,,,,,,11,,,,67,64
184555,note_off,115,0,8,,,,,,,,6,,,,43,64
184555,note_off,115,0,6,,,,,,,,4,,,,70,64
184555,note_off,115,0,14,,,,,,,,13,,,,31,64
184555,note_off,115,0,9,,,,,,,,7,,,,31,64
184555,note_off,115,0,7,,,,,,,,5,,,,67,64
184555,note_off,115,0,5,,,,,,,,3,,,,74,64
184555,note_off,115,0,10,,,,,,,,8,,,,74,64
184555,note_off,115,0,13,,,,,,,,12,,,,43,64
184560,note_on,5,0,6,,,,,,,,4,,,,70,108
184560,note_on,5,0,5,,,,,,,,3,,,,74,101
184560,note_on,5,0,13,,,,,,,,12,,,,55,86
184560,note_on,5,0,9,,,,,,,,7,,,,43,86
184560,note_on,5,0,10,,,,,,,,8,,,,74,101
184560,note_on,5,0,12,,,,,,,,11,,,,67,86
184560,note_on,5,0,11,,,,,,,,10,,,,70,108
184560,note_on,5,0,8,,,,,,,,6,,,,55,102
184560,note_on,5,0,7,,,,,,,,5,,,,67,101
184560,note_on,5,0,14,,,,,,,,13,,,,43,86
184675,note_off,115,0,13,,,,,,,,12,,,,55,64
184675,note_off,115,0,11,,,,,,,,10,,,,70,64
184675,note_off,115,0,10,,,,,,,,8,,,,74,64
184675,note_off,115,0,8,,,,,,,,6,,,,55,64
184675,note_off,115,0,5,,,,,,,,3,,,,74,64
184675,note_off,115,0,7,,,,,,,,5,,,,67,64
184675,note_off,115,0,6,,,,,,,,4,,,,70,64
184675,note_off,115,0,12,,,,,,,,11,,,,67,64
184675,note_off,115,0,14,,,,,,,,13,,,,43,64
184675,note_off,115,0,9,,,,,,,,7,,,,43,64
184680,note_on,5,0,14,,,,,,,,13,,,,31,88
184680,note_on,5,0,10,,,,,,,,8,,,,74,103
184680,note_on,5,0,8,,,,,,,,6,,,,43,104
184680,note_on,5,0,12,,,,,,,,11,,,,67,88
184680,note_on,5,0,13,,,,,,,,12,,,,43,88
184680,note_on,5,0,11,,,,,,,,10,,,,70,108
184680,note_on,5,0,6,,,,,,,,4,,,,70,108
184680,note_on,5,0,9,,,,,,,,7,,,,31,88
184680,note_on,5,0,7,,,,,,,,5,,,,67,103
184680,note_on,5,0,5,,,,,,,,3,,,,74,103
184795,note_off,115,0,8,,,,,,,,6,,,,43,64
184795,note_off,115,0,11,,,,,,,,10,,,,70,64
184795,note_off,115,0,7,,,,,,,,5,,,,67,64
184795,note_off,115,0,14,,,,,,,,13,,,,31,64
184795,note_off,115,0,12,,,,,,,,11,,,,67,64
184795,note_off,115,0,13,,,,,,,,12,,,,43,64
184795,note_off,115,0,10,,,,,,,,8,,,,74,64
184795,note_off,115,0,9,,,,,,,,7,,,,31,64
184795,note_off,115,0,5,,,,,,,,3,,,,74,64
184795,note_off,115,0,6,,,,,,,,4,,,,70,64
184800,note_on,5,0,12,,,,,,,,11,,,,67,90
184800,note_on,5,0,7,,,,,,,,5,,,,67,105
184800,note_on,5,0,10,,,,,,,,8,,,,74,105
184800,note_on,5,0,6,,,,,,,,4,,,,70,108
184800,note_on,5,0,11,,,,,,,,10,,,,70,108
184800,note_on,5,0,14,,,,,,,,13,,,,43,90
184800,note_on,5,0,9,,,,,,,,7,,,,43,90
184800,note_on,5,0,5,,,,,,,,3,,,,74,105
184800,note_on,5,0,8,,,,,,,,6,,,,55,106
184800,note_on,5,0,13,,,,,,,,12,,,,55,90
184840,note_off,400,0,15,,,,,,,,14,,,,31,64
184915,note_off,115,0,9,,,,,,,,7,,,,43,64
184915,note_off,115,0,14,,,,,,,,13,,,,43,64
184915,note_off,115,0,10,,,,,,,,8,,,,74,64
184915,note_off,115,0,7,,,,,,,,5,,,,67,64
184915,note_off,115,0,13,,,,,,,,12,,,,55,64
184915,note_off,115,0,11,,,,,,,,10,,,,70,64
184915,note_off,115,0,6,,,,,,,,4,,,,70,64
184915,note_off,115,0,12,,,,,,,,11,,,,67,64
184915,note_off,115,0,5,,,,,,,,3,,,,74,64
184915,note_off,115,0,8,,,,,,,,6,,,,55,64
184920,note_on,5,0,8,,,,,,,,6,,,,43,108
184920,note_on,5,0,14,,,,,,,,13,,,,31,92
184920,note_on,5,0,10,,,,,,,,8,,,,79,108
184920,note_on,5,0,7,,,,,,,,5,,,,70,108
184920,note_on,5,0,6,,,,,,,,4,,,,74,108
184920,note_on,80,0,15,,,,,,,,14,,,,31,60
184920,set_tempo,1440,1,0,454545,,,,,,,,,,,,
184920,note_on,5,0,5,,,,,,,,3,,,,79,108
184920,note_on,5,0,11,,,,,,,,10,,,,74,108
184920,note_on,5,0,13,,,,,,,,12,,,,43,92
184920,note_on,5,0,9,,,,,,,,7,,,,31,92
184920,note_on,0,0,15,,,,,,,,14,,,,43,60
184920,note_on,5,0,12,,,,,,,,11,,,,70,92
185035,note_off,115,0,6,,,,,,,,4,,,,74,64
185035,note_off,115,0,7,,,,,,,,5,,,,70,64
185035,note_off,115,0,10,,,,,,,,8,,,,79,64
185035,note_off,115,0,8,,,,,,,,6,,,,43,64
185035,note_off,115,0,9,,,,,,,,7,,,,31,64
185035,note_off,115,0,11,,,,,,,,10,,,,74,64
185035,note_off,115,0,5,,,,,,,,3,,,,79,64
185035,note_off,115,0,12,,,,,,,,11,,,,70,64
185035,note_off,115,0,14,,,,,,,,13,,,,31,64
185035,note_off,115,0,13,,,,,,,,12,,,,43,64
185040,note_on,5,0,12,,,,,,,,11,,,,70,92
185040,note_on,5,0,7,,,,,,,,5,,,,70,108
185040,note_on,5,0,14,,,,,,,,13,,,,43,92
185040,note_on,5,0,13,,,,,,,,12,,,,55,92
185040,note_on,5,0,10,,,,,,,,8,,,,79,108
185040,note_on,5,0,8,,,,,,,,6,,,,55,108
185040,note_on,5,0,9,,,,,,,,7,,,,43,92
185040,note_on,5,0,6,,,,,,,,4,,,,74,108
185040,note_on,5,0,5,,,,,,,,3,,,,79,108
185040,note_on,5,0,11,,,,,,,,10,,,,74,108
185155,note_off,115,0,8,,,,,,,,6,,,,55,64
185155,note_off,115,0,7,,,,,,,,5,,,,70,64
185155,note_off,115,0,6,,,,,,,,4,,,,74,64
185155,note_off,115,0,10,,,,,,,,8,,,,79,64
185155,note_off,115,0,12,,,,,,,,11,,,,70,64
185155,note_off,115,0,14,,,,,,,,13,,,,43,64
185155,note_off,115,0,13,,,,,,,,12,,,,55,64
185155,note_off,115,0,11,,,,,,,,10,,,,74,64
185155,note_off,115,0,5,,,,,,,,3,,,,79,64
185155,note_off,115,0,9,,,,,,,,7,,,,43,64
185160,note_on,5,0,10,,,,,,,,8,,,,79,108
185160,note_on,5,0,12,,,,,,,,11,,,,70,92
185160,note_on,5,0,9,,,,,,,,7,,,,31,92
185160,note_on,5,0,7,,,,,,,,5,,,,70,108
185160,note_on,5,0,8,,,,,,,,6,,,,43,108
185160,note_on,5,0,13,,,,,,,,12,,,,43,92
185160,note_on,5,0,6,,,,,,,,4,,,,74,108
185160,note_on,5,0,14,,,,,,,,13,,,,31,92
185160,note_on,5,0,11,,,,,,,,10,,,,74,108
185160,note_on,5,0,5,,,,,,,,3,,,,79,108
185275,note_off,115,0,5,,,,,,,,3,,,,79,64
185275,note_off,115,0,10,,,,,,,,8,,,,79,64
185275,note_off,115,0,14,,,,,,,,13,,,,31,64
185275,note_off,115,0,13,,,,,,,,12,,,,43,64
185275,note_off,115,0,7,,,,,,,,5,,,,70,64
185275,note_off,115,0,11,,,,,,,,10,,,,74,64
185275,note_off,115,0,6,,,,,,,,4,,,,74,64
185275,note_off,115,0,9,,,,,,,,7,,,,31,64
185275,note_off,115,0,8,,,,,,,,6,,,,43,64
185275,note_off,115,0,12,,,,,,,,11,,,,70,64
185280,note_on,5,0,8,,,,,,,,6,,,,55,108
185280,note_on,5,0,9,,,,,,,,7,,,,43,92
185280,note_on,5,0,13,,,,,,,,12,,,,55,92
185280,note_on,5,0,6,,,,,,,,4,,,,74,108
185280,note_on,5,0,12,,,,,,,,11,,,,70,92
185280,note_on,5,0,14,,,,,,,,13,,,,43,92
185280,note_on,5,0,10,,,,,,,,8,,,,79,108
185280,note_on,5,0,5,,,,,,,,3,,,,79,108
185280,note_on,5,0,7,,,,,,,,5,,,,70,108
185280,note_on,5,0,11,,,,,,,,10,,,,74,108
185320,note_off,0,0,15,,,,,,,,14,,,,31,64
185320,note_off,400,0,15,,,,,,,,14,,,,43,64
185395,note_off,115,0,5,,,,,,,,3,,,,79,64
185395,note_off,115,0,7,,,,,,,,5,,,,70,64
185395,note_off,115,0,13,,,,,,,,12,,,,55,64
185395,note_off,115,0,8,,,,,,,,6,,,,55,64
185395,note_off,115,0,6,,,,,,,,4,,,,74,64
185395,note_off,115,0,14,,,,,,,,13,,,,43,64
185395,note_off,115,0,10,,,,,,,,8,,,,79,64
185395,note_off,115,0,9,,,,,,,,7,,,,43,64
185395,note_off,115,0,11,,,,,,,,10,,,,74,64
185395,note_off,115,0,12,,,,,,,,11,,,,70,64
185400,note_on,5,0,6,,,,,,,,4,,,,79,108
185400,note_on,5,0,12,,,,,,,,11,,,,74,92
185400,note_on,80,0,15,,,,,,,,14,,,,31,60
185400,note_on,5,0,14,,,,,,,,13,,,,31,92
185400,note_on,5,0,13,,,,,,,,12,,,,43,92
185400,note_on,5,0,7,,,,,,,,5,,,,74,108
185400,set_tempo,480,1,0,465116,,,,,,,,,,,,
185400,note_on,5,0,10,,,,,,,,8,,,,82,108
185400,note_on,0,0,15,,,,,,,,14,,,,43,60
185400,note_on,5,0,11,,,,,,,,10,,,,79,108
185400,note_on,5,0,9,,,,,,,,7,,,,31,92
185400,note_on,5,0,5,,,,,,,,3,,,,82,108
185400,note_on,5,0,8,,,,,,,,6,,,,43,108
185515,note_off,115,0,9,,,,,,,,7,,,,31,64
185515,note_off,115,0,7,,,,,,,,5,,,,74,64
185515,note_off,115,0,12,,,,,,,,11,,,,74,64
185515,note_off,115,0,6,,,,,,,,4,,,,79,64
185515,note_off,115,0,11,,,,,,,,10,,,,79,64
185515,note_off,115,0,8,,,,,,,,6,,,,43,64
185515,note_off,115,0,14,,,,,,,,13,,,,31,64
185515,note_off,115,0,13,,,,,,,,12,,,,43,64
185515,note_off,115,0,10,,,,,,,,8,,,,82,64
185515,note_off,115,0,5,,,,,,,,3,,,,82,64
185520,note_on,5,0,6,,,,,,,,4,,,,79,105
185520,note_on,5,0,5,,,,,,,,3,,,,82,105
185520,note_on,5,0,9,,,,,,,,7,,,,43,90
185520,note_on,5,0,14,,,,,,,,13,,,,43,90
185520,note_on,5,0,13,,,,,,,,12,,,,55,90
185520,note_on,5,0,8,,,,,,,,6,,,,55,105
185520,note_on,5,0,12,,,,,,,,11,,,,74,90
185520,note_on,5,0,7,,,,,,,,5,,,,74,105
185520,note_on,5,0,10,,,,,,,,8,,,,82,105
185520,note_on,5,0,11,,,,,,,,10,,,,79,105
185635,note_off,115,0,10,,,,,,,,8,,,,82,64
185635,note_off,115,0,9,,,,,,,,7,,,,43,64
185635,note_off,115,0,5,,,,,,,,3,,,,82,64
185635,note_off,115,0,12,,,,,,,,11,,,,74,64
185635,note_off,115,0,11,,,,,,,,10,,,,79,64
185635,note_off,115,0,8,,,,,,,,6,,,,55,64
185635,note_off,115,0,14,,,,,,,,13,,,,43,64
185635,note_off,115,0,6,,,,,,,,4,,,,79,64
185635,note_off,115,0,13,,,,,,,,12,,,,55,64
185635,note_off,115,0,7,,,,,,,,5,,,,74,64
185640,note_on,5,0,7,,,,,,,,5,,,,74,102
185640,note_on,5,0,9,,,,,,,,7,,,,31,88
185640,note_on,5,0,6,,,,,,,,4,,,,79,102
185640,note_on,5,0,11,,,,,,,,10,,,,79,102
185640,note_on,5,0,8,,,,,,,,6,,,,43,102
185640,note_on,5,0,5,,,,,,,,3,,,,82,102
185640,note_on,5,0,13,,,,,,,,12,,,,43,88
185640,note_on,5,0,10,,,,,,,,8,,,,82,102
185640,note_on,5,0,14,,,,,,,,13,,,,31,88
185640,note_on,5,0,12,,,,,,,,11,,,,74,88
185755,note_off,115,0,7,,,,,,,,5,,,,74,64
185755,note_off,115,0,9,,,,,,,,7,,,,31,64
185755,note_off,115,0,12,,,,,,,,11,,,,74,64
185755,note_off,115,0,6,,,,,,,,4,,,,79,64
185755,note_off,115,0,13,,,,,,,,12,,,,43,64
185755,note_off,115,0,8,,,,,,,,6,,,,43,64
185755,note_off,115,0,11,,,,,,,,10,,,,79,64
185755,note_off,115,0,10,,,,,,,,8,,,,82,64
185755,note_off,115,0,5,,,,,,,,3,,,,82,64
185755,note_off,115,0,14,,,,,,,,13,,,,31,64
185760,note_on,5,0,6,,,,,,,,4,,,,79,99
185760,note_on,5,0,13,,,,,,,,12,,,,55,86
185760,note_on,5,0,5,,,,,,,,3,,,,82,99
185760,note_on,5,0,12,,,,,,,,11,,,,74,86
185760,note_on,5,0,11,,,,,,,,10,,,,79,99
185760,note_on,5,0,10,,,,,,,,8,,,,82,99
185760,note_on,5,0,9,,,,,,,,7,,,,43,86
185760,note_on,5,0,8,,,,,,,,6,,,,55,99
185760,note_on,5,0,7,,,,,,,,5,,,,74,99
185760,note_on,5,0,14,,,,,,,,13,,,,43,86
185800,note_off,0,0,15,,,,,,,,14,,,,31,64
185800,note_off,400,0,15,,,,,,,,14,,,,43,64
185875,note_off,115,0,7,,,,,,,,5,,,,74,64
185875,note_off,115,0,11,,,,,,,,10,,,,79,64
185875,note_off,115,0,9,,,,,,,,7,,,,43,64
185875,note_off,115,0,13,,,,,,,,12,,,,55,64
185875,note_off,115,0,5,,,,,,,,3,,,,82,64
185875,note_off,115,0,8,,,,,,,,6,,,,55,64
185875,note_off,115,0,6,,,,,,,,4,,,,79,64
185875,note_off,115,0,10,,,,,,,,8,,,,82,64
185875,note_off,115,0,12,,,,,,,,11,,,,74,64
185875,note_off,115,0,14,,,,,,,,13,,,,43,64
185880,note_on,5,0,14,,,,,,,,13,,,,31,84
185880,note_on,5,0,10,,,,,,,,8,,,,79,96
185880,note_on,80,0,15,,,,,,,,14,,,,31,54
185880,note_on,5,0,9,,,,,,,,7,,,,31,84
185880,note_on,5,0,11,,,,,,,,10,,,,82,96
185880,note_on,5,0,12,,,,,,,,11,,,,62,84
185880,note_on,5,0,8,,,,,,,,6,,,,43,96
185880,note_on,5,0,7,,,,,,,,5,,,,62,96
185880,note_on,5,0,13,,,,,,,,12,,,,43,84
185880,note_on,0,0,15,,,,,,,,14,,,,43,54
185880,note_on,5,0,5,,,,,,,,3,,,,79,96
185880,set_tempo,480,1,0,476190,,,,,,,,,,,,
185880,note_on,5,0,6,,,,,,,,4,,,,82,96
185995,note_off,115,0,10,,,,,,,,8,,,,79,64
185995,note_off,115,0,14,,,,,,,,13,,,,31,64
185995,note_off,115,0,7,,,,,,,,5,,,,62,64
185995,note_off,115,0,8,,,,,,,,6,,,,43,64
185995,note_off,115,0,13,,,,,,,,12,,,,43,64
185995,note_off,115,0,11,,,,,,,,10,,,,82,64
185995,note_off,115,0,9,,,,,,,,7,,,,31,64
185995,note_off,115,0,6,,,,,,,,4,,,,82,64
185995,note_off,115,0,5,,,,,,,,3,,,,79,64
185995,note_off,115,0,12,,,,,,,,11,,,,62,64
186000,note_on,5,0,14,,,,,,,,13,,,,43,82
186000,note_on,5,0,11,,,,,,,,10,,,,82,93
186000,note_on,5,0,12,,,,,,,,11,,,,62,82
186000,note_on,5,0,9,,,,,,,,7,,,,43,82
186000,note_on,5,0,7,,,,,,,,5,,,,62,93
186000,note_on,5,0,5,,,,,,,,3,,,,79,93
186000,note_on,5,0,10,,,,,,,,8,,,,79,93
186000,note_on,5,0,6,,,,,,,,4,,,,82,93
186000,note_on,5,0,13,,,,,,,,12,,,,55,82
186000,note_on,5,0,8,,,,,,,,6,,,,55,93
186115,note_off,115,0,9,,,,,,,,7,,,,43,64
186115,note_off,115,0,10,,,,,,,,8,,,,79,64
186115,note_off,115,0,14,,,,,,,,13,,,,43,64
186115,note_off,115,0,12,,,,,,,,11,,,,62,64
186115,note_off,115,0,6,,,,,,,,4,,,,82,64
186115,note_off,115,0,13,,,,,,,,12,,,,55,64
186115,note_off,115,0,11,,,,,,,,10,,,,82,64
186115,note_off,115,0,7,,,,,,,,5,,,,62,64
186115,note_off,115,0,5,,,,,,,,3,,,,79,64
186115,note_off,115,0,8,,,,,,,,6,,,,55,64
186120,note_on,5,0,7,,,,,,,,5,,,,62,90
186120,note_on,5,0,5,,,,,,,,3,,,,79,90
186120,note_on,5,0,14,,,,,,,,13,,,,31,80
186120,note_on,5,0,13,,,,,,,,12,,,,43,80
186120,note_on,5,0,6,,,,,,,,4,,,,82,90
186120,note_on,5,0,10,,,,,,,,8,,,,79,90
186120,note_on,5,0,12,,,,,,,,11,,,,62,80
186120,note_on,5,0,8,,,,,,,,6,,,,43,90
186120,note_on,5,0,9,,,,,,,,7,,,,31,80
186120,note_on,5,0,11,,,,,,,,10,,,,82,90
186235,note_off,115,0,7,,,,,,,,5,,,,62,64
186235,note_off,115,0,5,,,,,,,,3,,,,79,64
186235,note_off,115,0,12,,,,,,,,11,,,,62,64
186235,note_off,115,0,11,,,,,,,,10,,,,82,64
186235,note_off,115,0,9,,,,,,,,7,,,,31,64
186235,note_off,115,0,8,,,,,,,,6,,,,43,64
186235,note_off,115,0,10,,,,,,,,8,,,,79,64
186235,note_off,115,0,6,,,,,,,,4,,,,82,64
186235,note_off,115,0,13,,,,,,,,12,,,,43,64
186235,note_off,115,0,14,,,,,,,,13,,,,31,64
186240,note_on,5,0,8,,,,,,,,6,,,,55,87
186240,note_on,5,0,7,,,,,,,,5,,,,62,87
186240,note_on,5,0,13,,,,,,,,12,,,,55,78
186240,note_on,5,0,12,,,,,,,,11,,,,62,78
186240,note_on,5,0,5,,,,,,,,3,,,,79,87
186240,note_on,5,0,9,,,,,,,,7,,,,43,78
186240,note_on,5,0,14,,,,,,,,13,,,,43,78
186240,note_on,5,0,11,,,,,,,,10,,,,82,87
186240,note_on,5,0,10,,,,,,,,8,,,,79,87
186240,note_on,5,0,6,,,,,,,,4,,,,82,87
186280,note_off,400,0,15,,,,,,,,14,,,,43,64
186280,note_off,0,0,15,,,,,,,,14,,,,31,64
186355,note_off,115,0,13,,,,,,,,12,,,,55,64
186355,note_off,115,0,9,,,,,,,,7,,,,43,64
186355,note_off,115,0,14,,,,,,,,13,,,,43,64
186355,note_off,115,0,6,,,,,,,,4,,,,82,64
186355,note_off,115,0,12,,,,,,,,11,,,,62,64
186355,note_off,115,0,10,,,,,,,,8,,,,79,64
186355,note_off,115,0,11,,,,,,,,10,,,,82,64
186355,note_off,115,0,7,,,,,,,,5,,,,62,64
186355,note_off,115,0,5,,,,,,,,3,,,,79,64
186355,note_off,115,0,8,,,,,,,,6,,,,55,64
186360,note_on,5,0,5,,,,,,,,3,,,,74,84
186360,set_tempo,480,1,0,487804,,,,,,,,,,,,
186360,note_on,5,0,12,,,,,,,,11,,,,58,76
186360,note_on,80,0,15,,,,,,,,14,,,,31,48
186360,note_on,5,0,8,,,,,,,,6,,,,43,84
186360,note_on,5,0,11,,,,,,,,10,,,,79,84
186360,note_on,5,0,9,,,,,,,,7,,,,31,76
186360,note_on,5,0,6,,,,,,,,4,,,,79,84
186360,note_on,5,0,10,,,,,,,,8,,,,74,84
186360,note_on,5,0,13,,,,,,,,12,,,,43,76
186360,note_on,5,0,7,,,,,,,,5,,,,58,84
186360,note_on,5,0,14,,,,,,,,13,,,,31,76
186360,note_on,0,0,15,,,,,,,,14,,,,43,48
186475,note_off,115,0,7,,,,,,,,5,,,,58,64
186475,note_off,115,0,13,,,,,,,,12,,,,43,64
186475,note_off,115,0,9,,,,,,,,7,,,,31,64
186475,note_off,115,0,10,,,,,,,,8,,,,74,64
186475,note_off,115,0,6,,,,,,,,4,,,,79,64
186475,note_off,115,0,11,,,,,,,,10,,,,79,64
186475,note_off,115,0,8,,,,,,,,6,,,,43,64
186475,note_off,115,0,12,,,,,,,,11,,,,58,64
186475,note_off,115,0,14,,,,,,,,13,,,,31,64
186475,note_off,115,0,5,,,,,,,,3,,,,74,64
186480,note_on,5,0,6,,,,,,,,4,,,,79,81
186480,note_on,5,0,5,,,,,,,,3,,,,74,81
186480,note_on,5,0,8,,,,,,,,6,,,,55,81
186480,note_on,5,0,7,,,,,,,,5,,,,58,81
186480,note_on,5,0,14,,,,,,,,13,,,,43,74
186480,note_on,5,0,13,,,,,,,,12,,,,55,74
186480,note_on,5,0,12,,,,,,,,11,,,,58,74
186480,note_on,5,0,10,,,,,,,,8,,,,74,81
186480,note_on,5,0,9,,,,,,,,7,,,,43,74
186480,note_on,5,0,11,,,,,,,,10,,,,79,81
186595,note_off,115,0,12,,,,,,,,11,,,,58,64
186595,note_off,115,0,6,,,,,,,,4,,,,79,64
186595,note_off,115,0,7,,,,,,,,5,,,,58,64
186595,note_off,115,0,9,,,,,,,,7,,,,43,64
186595,note_off,115,0,11,,,,,,,,10,,,,79,64
186595,note_off,115,0,14,,,,,,,,13,,,,43,64
186595,note_off,115,0,10,,,,,,,,8,,,,74,64
186595,note_off,115,0,8,,,,,,,,6,,,,55,64
186595,note_off,115,0,13,,,,,,,,12,,,,55,64
186595,note_off,115,0,5,,,,,,,,3,,,,74,64
186600,note_on,5,0,13,,,,,,,,12,,,,43,72
186600,note_on,5,0,14,,,,,,,,13,,,,31,72
186600,note_on,5,0,11,,,,,,,,10,,,,79,78
186600,note_on,5,0,10,,,,,,,,8,,,,74,78
186600,note_on,5,0,9,,,,,,,,7,,,,31,72
186600,note_on,5,0,12,,,,,,,,11,,,,58,72
186600,note_on,5,0,5,,,,,,,,3,,,,74,78
186600,note_on,5,0,7,,,,,,,,5,,,,58,78
186600,note_on,5,0,6,,,,,,,,4,,,,79,78
186600,note_on,5,0,8,,,,,,,,6,,,,43,78
186715,note_off,115,0,13,,,,,,,,12,,,,43,64
186715,note_off,115,0,9,,,,,,,,7,,,,31,64
186715,note_off,115,0,6,,,,,,,,4,,,,79,64
186715,note_off,115,0,5,,,,,,,,3,,,,74,64
186715,note_off,115,0,14,,,,,,,,13,,,,31,64
186715,note_off,115,0,10,,,,,,,,8,,,,74,64
186715,note_off,115,0,11,,,,,,,,10,,,,79,64
186715,note_off,115,0,12,,,,,,,,11,,,,58,64
186715,note_off,115,0,7,,,,,,,,5,,,,58,64
186715,note_off,115,0,8,,,,,,,,6,,,,43,64
186720,note_on,5,0,7,,,,,,,,5,,,,58,75
186720,note_on,5,0,6,,,,,,,,4,,,,79,75
186720,note_on,5,0,14,,,,,,,,13,,,,43,70
186720,note_on,5,0,12,,,,,,,,11,,,,58,69
186720,note_on,5,0,5,,,,,,,,3,,,,74,75
186720,note_on,5,0,11,,,,,,,,10,,,,79,75
186720,note_on,5,0,10,,,,,,,,8,,,,74,75
186720,note_on,5,0,8,,,,,,,,6,,,,55,75
186720,note_on,5,0,13,,,,,,,,12,,,,55,70
186720,note_on,5,0,9,,,,,,,,7,,,,43,70
186760,note_off,0,0,15,,,,,,,,14,,,,31,64
186760,note_off,400,0,15,,,,,,,,14,,,,43,64
186835,note_off,115,0,6,,,,,,,,4,,,,79,64
186835,note_off,115,0,13,,,,,,,,12,,,,55,64
186835,note_off,115,0,9,,,,,,,,7,,,,43,64
186835,note_off,115,0,14,,,,,,,,13,,,,43,64
186835,note_off,115,0,10,,,,,,,,8,,,,74,64
186835,note_off,115,0,12,,,,,,,,11,,,,58,64
186835,note_off,115,0,5,,,,,,,,3,,,,74,64
186835,note_off,115,0,8,,,,,,,,6,,,,55,64
186835,note_off,115,0,7,,,,,,,,5,,,,58,64
186835,note_off,115,0,11,,,,,,,,10,,,,79,64
186840,note_on,5,0,7,,,,,,,,5,,,,55,72
186840,note_on,5,0,9,,,,,,,,7,,,,31,68
186840,note_on,5,0,10,,,,,,,,8,,,,70,72
186840,note_on,5,0,5,,,,,,,,3,,,,70,72
186840,note_on,5,0,12,,,,,,,,11,,,,55,66
186840,note_on,5,0,14,,,,,,,,13,,,,31,68
186840,set_tempo,480,1,0,500000,,,,,,,,,,,,
186840,note_on,5,0,13,,,,,,,,12,,,,43,68
186840,note_on,80,0,15,,,,,,,,14,,,,31,42
186840,note_on,5,0,6,,,,,,,,4,,,,74,72
186840,note_on,5,0,11,,,,,,,,10,,,,74,72
186840,note_on,5,0,8,,,,,,,,6,,,,43,72
186840,note_on,0,0,15,,,,,,,,14,,,,43,42
186955,note_off,115,0,10,,,,,,,,8,,,,70,64
186955,note_off,115,0,12,,,,,,,,11,,,,55,64
186955,note_off,115,0,5,,,,,,,,3,,,,70,64
186955,note_off,115,0,6,,,,,,,,4,,,,74,64
186955,note_off,115,0,13,,,,,,,,12,,,,43,64
186955,note_off,115,0,7,,,,,,,,5,,,,55,64
186955,note_off,115,0,9,,,,,,,,7,,,,31,64
186955,note_off,115,0,11,,,,,,,,10,,,,74,64
186955,note_off,115,0,8,,,,,,,,6,,,,43,64
186955,note_off,115,0,14,,,,,,,,13,,,,31,64
186960,note_on,5,0,14,,,,,,,,13,,,,43,66
186960,note_on,5,0,9,,,,,,,,7,,,,43,66
186960,note_on,5,0,6,,,,,,,,4,,,,74,69
186960,note_on,5,0,10,,,,,,,,8,,,,70,69
186960,note_on,5,0,11,,,,,,,,10,,,,74,69
186960,note_on,5,0,8,,,,,,,,6,,,,55,69
186960,note_on,5,0,13,,,,,,,,12,,,,55,66
186960,note_on,5,0,7,,,,,,,,5,,,,55,69
186960,note_on,5,0,12,,,,,,,,11,,,,55,63
186960,note_on,5,0,5,,,,,,,,3,,,,70,69
187075,note_off,115,0,12,,,,,,,,11,,,,55,64
187075,note_off,115,0,10,,,,,,,,8,,,,70,64
187075,note_off,115,0,5,,,,,,,,3,,,,70,64
187075,note_off,115,0,8,,,,,,,,6,,,,55,64
187075,note_off,115,0,6,,,,,,,,4,,,,74,64
187075,note_off,115,0,7,,,,,,,,5,,,,55,64
187075,note_off,115,0,14,,,,,,,,13,,,,43,64
187075,note_off,115,0,9,,,,,,,,7,,,,43,64
187075,note_off,115,0,13,,,,,,,,12,,,,55,64
187075,note_off,115,0,11,,,,,,,,10,,,,74,64
187080,note_on,5,0,14,,,,,,,,13,,,,31,63
187080,note_on,5,0,10,,,,,,,,8,,,,70,66
187080,note_on,5,0,8,,,,,,,,6,,,,43,66
187080,note_on,5,0,9,,,,,,,,7,,,,31,63
187080,note_on,5,0,13,,,,,,,,12,,,,43,63
187080,note_on,5,0,7,,,,,,,,5,,,,55,65
187080,note_on,5,0,6,,,,,,,,4,,,,74,65
187080,note_on,5,0,5,,,,,,,,3,,,,70,66
187080,note_on,5,0,12,,,,,,,,11,,,,55,60
187080,note_on,5,0,11,,,,,,,,10,,,,74,65
187195,note_off,115,0,14,,,,,,,,13,,,,31,64
187195,note_off,115,0,13,,,,,,,,12,,,,43,64
187195,note_off,115,0,7,,,,,,,,5,,,,55,64
187195,note_off,115,0,12,,,,,,,,11,,,,55,64
187195,note_off,115,0,5,,,,,,,,3,,,,70,64
187195,note_off,115,0,10,,,,,,,,8,,,,70,64
187195,note_off,115,0,11,,,,,,,,10,,,,74,64
187195,note_off,115,0,9,,,,,,,,7,,,,31,64
187195,note_off,115,0,6,,,,,,,,4,,,,74,64
187195,note_off,115,0,8,,,,,,,,6,,,,43,64
187200,note_on,5,0,7,,,,,,,,5,,,,55,61
187200,note_on,5,0,11,,,,,,,,10,,,,74,61
187200,note_on,5,0,6,,,,,,,,4,,,,74,61
187200,note_on,5,0,12,,,,,,,,11,,,,55,57
187200,note_on,5,0,5,,,,,,,,3,,,,70,63
187200,note_on,5,0,8,,,,,,,,6,,,,55,63
187200,note_on,5,0,9,,,,,,,,7,,,,43,60
187200,note_on,5,0,13,,,,,,,,12,,,,55,60
187200,note_on,5,0,10,,,,,,,,8,,,,70,63
187200,note_on,5,0,14,,,,,,,,13,,,,43,60
187240,note_off,0,0,15,,,,,,,,14,,,,31,64
187240,note_off,400,0,15,,,,,,,,14,,,,43,64
187315,note_off,115,0,6,,,,,,,,4,,,,74,64
187315,note_off,115,0,10,,,,,,,,8,,,,70,64
187315,note_off,115,0,14,,,,,,,,13,,,,43,64
187315,note_off,115,0,7,,,,,,,,5,,,,55,64
187315,note_off,115,0,12,,,,,,,,11,,,,55,64
187315,note_off,115,0,5,,,,,,,,3,,,,70,64
187315,note_off,115,0,11,,,,,,,,10,,,,74,64
187315,note_off,115,0,9,,,,,,,,7,,,,43,64
187315,note_off,115,0,8,,,,,,,,6,,,,55,64
187315,note_off,115,0,13,,,,,,,,12,,,,55,64
187320,note_on,5,0,6,,,,,,,,4,,,,70,57
187320,note_on,80,0,15,,,,,,,,14,,,,31,36
187320,note_on,5,0,9,,,,,,,,7,,,,31,57
187320,note_on,0,0,15,,,,,,,,14,,,,43,36
187320,note_on,5,0,8,,,,,,,,6,,,,43,60
187320,note_on,5,0,5,,,,,,,,3,,,,67,60
187320,note_on,5,0,13,,,,,,,,12,,,,43,57
187320,note_on,5,0,7,,,,,,,,5,,,,62,57
187320,note_on,5,0,12,,,,,,,,11,,,,62,54
187320,note_on,5,0,11,,,,,,,,10,,,,70,57
187320,note_on,5,0,14,,,,,,,,13,,,,31,57
187320,note_on,5,0,10,,,,,,,,8,,,,67,60
187320,set_tempo,480,1,0,512820,,,,,,,,,,,,
187435,note_off,115,0,6,,,,,,,,4,,,,70,64
187435,note_off,115,0,7,,,,,,,,5,,,,62,64
187435,note_off,115,0,11,,,,,,,,10,,,,70,64
187435,note_off,115,0,9,,,,,,,,7,,,,31,64
187435,note_off,115,0,8,,,,,,,,6,,,,43,64
187435,note_off,115,0,13,,,,,,,,12,,,,43,64
187435,note_off,115,0,10,,,,,,,,8,,,,67,64
187435,note_off,115,0,14,,,,,,,,13,,,,31,64
187435,note_off,115,0,12,,,,,,,,11,,,,62,64
187435,note_off,115,0,5,,,,,,,,3,,,,67,64
187440,note_on,5,0,11,,,,,,,,10,,,,70,53
187440,note_on,5,0,10,,,,,,,,8,,,,67,57
187440,note_on,5,0,13,,,,,,,,12,,,,55,54
187440,note_on,5,0,5,,,,,,,,3,,,,67,57
187440,note_on,5,0,14,,,,,,,,13,,,,43,54
187440,note_on,5,0,7,,,,,,,,5,,,,62,53
187440,note_on,5,0,12,,,,,,,,11,,,,62,51
187440,note_on,5,0,6,,,,,,,,4,,,,70,53
187440,note_on,5,0,9,,,,,,,,7,,,,43,54
187440,note_on,5,0,8,,,,,,,,6,,,,55,57
187555,note_off,115,0,14,,,,,,,,13,,,,43,64
187555,note_off,115,0,6,,,,,,,,4,,,,70,64
187555,note_off,115,0,12,,,,,,,,11,,,,62,64
187555,note_off,115,0,5,,,,,,,,3,,,,67,64
187555,note_off,115,0,11,,,,,,,,10,,,,70,64
187555,note_off,115,0,13,,,,,,,,12,,,,55,64
187555,note_off,115,0,10,,,,,,,,8,,,,67,64
187555,note_off,115,0,7,,,,,,,,5,,,,62,64
187555,note_off,115,0,8,,,,,,,,6,,,,55,64
187555,note_off,115,0,9,,,,,,,,7,,,,43,64
187560,note_on,5,0,11,,,,,,,,10,,,,70,49
187560,note_on,5,0,10,,,,,,,,8,,,,67,53
187560,note_on,5,0,7,,,,,,,,5,,,,62,49
187560,note_on,5,0,14,,,,,,,,13,,,,31,51
187560,note_on,5,0,12,,,,,,,,11,,,,62,48
187560,note_on,5,0,9,,,,,,,,7,,,,31,51
187560,note_on,5,0,8,,,,,,,,6,,,,43,53
187560,note_on,5,0,5,,,,,,,,3,,,,67,53
187560,note_on,5,0,6,,,,,,,,4,,,,70,49
187560,note_on,5,0,13,,,,,,,,12,,,,43,51
187675,note_off,115,0,6,,,,,,,,4,,,,70,64
187675,note_off,115,0,5,,,,,,,,3,,,,67,64
187675,note_off,115,0,12,,,,,,,,11,,,,62,64
187675,note_off,115,0,9,,,,,,,,7,,,,31,64
187675,note_off,115,0,11,,,,,,,,10,,,,70,64
187675,note_off,115,0,10,,,,,,,,8,,,,67,64
187675,note_off,115,0,7,,,,,,,,5,,,,62,64
187675,note_off,115,0,13,,,,,,,,12,,,,43,64
187675,note_off,115,0,14,,,,,,,,13,,,,31,64
187675,note_off,115,0,8,,,,,,,,6,,,,43,64
187680,note_on,5,0,12,,,,,,,,11,,,,62,45
187680,note_on,5,0,13,,,,,,,,12,,,,55,48
187680,note_on,5,0,9,,,,,,,,7,,,,43,48
187680,note_on,5,0,5,,,,,,,,3,,,,67,49
187680,note_on,5,0,6,,,,,,,,4,,,,70,45
187680,note_on,5,0,14,,,,,,,,13,,,,43,48
187680,note_on,5,0,7,,,,,,,,5,,,,62,45
187680,note_on,5,0,10,,,,,,,,8,,,,67,49
187680,note_on,5,0,8,,,,,,,,6,,,,55,49
187680,note_on,5,0,11,,,,,,,,10,,,,70,45
187720,note_off,400,0,15,,,,,,,,14,,,,43,64
187720,note_off,0,0,15,,,,,,,,14,,,,31,64
187795,note_off,115,0,13,,,,,,,,12,,,,55,64
187795,note_off,115,0,9,,,,,,,,7,,,,43,64
187795,note_off,115,0,10,,,,,,,,8,,,,67,64
187795,note_off,115,0,7,,,,,,,,5,,,,62,64
187795,end_of_track,0,1,7,,,,,,,,,,,,,
187795,note_off,115,0,5,,,,,,,,3,,,,67,64
187795,note_off,115,0,8,,,,,,,,6,,,,55,64
187795,end_of_track,0,1,12,,,,,,,,,,,,,
187795,end_of_track,0,1,6,,,,,,,,,,,,,
187795,note_off,115,0,6,,,,,,,,4,,,,70,64
187795,note_off,115,0,14,,,,,,,,13,,,,43,64
187795,note_off,115,0,11,,,,,,,,10,,,,70,64
187795,end_of_track,0,1,11,,,,,,,,,,,,,
187795,note_off,115,0,12,,,,,,,,11,,,,62,64
187800,set_tempo,480,1,0,681818,,,,,,,,,,,,
187800,note_on,5,0,10,,,,,,,,8,,,,55,45
187800,note_on,5,0,14,,,,,,,,13,,,,31,45
187800,note_on,0,0,15,,,,,,,,14,,,,43,30
187800,note_on,5,0,5,,,,,,,,3,,,,55,45
187800,note_on,5,0,9,,,,,,,,7,,,,31,45
187800,note_on,5,0,8,,,,,,,,6,,,,43,45
187800,note_on,5,0,13,,,,,,,,12,,,,43,45
187800,note_on,80,0,15,,,,,,,,14,,,,31,30
187800,end_of_track,0,1,0,,,,,,,,,,,,,
189120,note_off,1320,0,15,,,,,,,,14,,,,43,64
189120,note_off,1320,0,13,,,,,,,,12,,,,43,64
189120,end_of_track,0,1,5,,,,,,,,,,,,,
189120,note_off,0,0,15,,,,,,,,14,,,,31,64
189120,note_off,1320,0,8,,,,,,,,6,,,,43,64
189120,end_of_track,0,1,8,,,,,,,,,,,,,
189120,end_of_track,0,1,13,,,,,,,,,,,,,
189120,note_off,1320,0,9,,,,,,,,7,,,,31,64
189120,end_of_track,0,1,9,,,,,,,,,,,,,
189120,note_off,1320,0,10,,,,,,,,8,,,,55,64
189120,end_of_track,0,1,10,,,,,,,,,,,,,
189120,end_of_track,0,1,14,,,,,,,,,,,,,
189120,note_off,1320,0,14,,,,,,,,13,,,,31,64
189120,note_off,1320,0,5,,,,,,,,3,,,,55,64
189120,end_of_track,0,1,15,,,,,,,,,,,,,
