tick,type,time,meta,track,tempo,numerator,denominator,clocks_per_click,notated_32nd_notes_per_beat,key,port,channel,control,value,program,note,velocity
0,track_name,0,1,0,,,,,,,,,,,,,
0,control_change,0,0,8,,,,,,,,8,7,127,,,
0,channel_prefix,0,1,8,,,,,,,,8,,,,,
0,midi_port,0,1,8,,,,,,,0,,,,,,
0,program_change,0,0,12,,,,,,,,13,,,50,,
0,control_change,0,0,12,,,,,,,,13,91,127,,,
0,control_change,0,0,12,,,,,,,,13,10,127,,,
0,control_change,0,0,12,,,,,,,,13,7,127,,,
0,channel_prefix,0,1,12,,,,,,,,13,,,,,
0,midi_port,0,1,12,,,,,,,0,,,,,,
0,track_name,0,1,2,,,,,,,,,,,,,
0,midi_port,0,1,2,,,,,,,0,,,,,,
0,channel_prefix,0,1,2,,,,,,,,0,,,,,
0,control_change,0,0,2,,,,,,,,0,7,127,,,
0,control_change,0,0,2,,,,,,,,0,10,6,,,
0,control_change,0,0,2,,,,,,,,0,91,124,,,
0,control_change,0,0,8,,,,,,,,8,10,1,,,
0,program_change,0,0,8,,,,,,,,8,,,50,,
0,midi_port,0,1,9,,,,,,,0,,,,,,
0,channel_prefix,0,1,9,,,,,,,,10,,,,,
0,control_change,0,0,10,,,,,,,,11,10,63,,,
0,track_name,0,1,1,,,,,,,,,,,,,
0,midi_port,0,1,1,,,,,,,0,,,,,,
0,channel_prefix,0,1,1,,,,,,,,0,,,,,
0,control_change,0,0,1,,,,,,,,0,7,127,,,
0,control_change,0,0,1,,,,,,,,0,10,6,,,
0,control_change,0,0,1,,,,,,,,0,91,124,,,
0,program_change,0,0,2,,,,,,,,0,,,6,,
0,program_change,0,0,1,,,,,,,,0,,,6,,
0,control_change,0,0,10,,,,,,,,11,7,127,,,
0,channel_prefix,0,1,10,,,,,,,,11,,,,,
0,midi_port,0,1,10,,,,,,,0,,,,,,
0,program_change,0,0,9,,,,,,,,10,,,50,,
0,control_change,0,0,9,,,,,,,,10,91,127,,,
0,control_change,0,0,9,,,,,,,,10,10,32,,,
0,control_change,0,0,9,,,,,,,,10,7,127,,,
0,channel_prefix,0,1,6,,,,,,,,6,,,,,
0,control_change,0,0,10,,,,,,,,11,91,127,,,
0,program_change,0,0,11,,,,,,,,12,,,50,,
0,control_change,0,0,11,,,,,,,,12,10,95,,,
0,control_change,0,0,4,,,,,,,,4,91,127,,,
0,program_change,0,0,4,,,,,,,,4,,,48,,
0,midi_port,0,1,11,,,,,,,0,,,,,,
0,track_name,0,1,5,,,,,,,,,,,,,
0,midi_port,0,1,5,,,,,,,0,,,,,,
0,channel_prefix,0,1,5,,,,,,,,5,,,,,
0,control_change,0,0,5,,,,,,,,5,7,127,,,
0,control_change,0,0,5,,,,,,,,5,10,63,,,
0,control_change,0,0,5,,,,,,,,5,91,127,,,
0,program_change,0,0,5,,,,,,,,5,,,48,,
0,program_change,0,0,6,,,,,,,,6,,,48,,
0,control_change,0,0,6,,,,,,,,6,91,125,,,
0,control_change,0,0,6,,,,,,,,6,10,95,,,
0,track_name,0,1,6,,,,,,,,,,,,,
0,midi_port,0,1,6,,,,,,,0,,,,,,
0,control_change,0,0,4,,,,,,,,4,10,32,,,
0,control_change,0,0,4,,,,,,,,4,7,127,,,
0,channel_prefix,0,1,4,,,,,,,,4,,,,,
0,midi_port,0,1,4,,,,,,,0,,,,,,
0,track_name,0,1,3,,,,,,,,,,,,,
0,midi_port,0,1,3,,,,,,,0,,,,,,
0,channel_prefix,0,1,3,,,,,,,,3,,,,,
0,control_change,0,0,3,,,,,,,,3,7,127,,,
0,control_change,0,0,3,,,,,,,,3,10,1,,,
0,control_change,0,0,3,,,,,,,,3,91,124,,,
0,program_change,0,0,3,,,,,,,,3,,,48,,
0,control_change,0,0,11,,,,,,,,12,91,127,,,
0,program_change,0,0,7,,,,,,,,7,,,48,,
0,control_change,0,0,7,,,,,,,,7,10,127,,,
0,control_change,0,0,7,,,,,,,,7,7,127,,,
0,channel_prefix,0,1,7,,,,,,,,7,,,,,
0,midi_port,0,1,7,,,,,,,0,,,,,,
0,control_change,0,0,11,,,,,,,,12,7,127,,,
0,channel_prefix,0,1,11,,,,,,,,12,,,,,
0,track_name,0,1,4,,,,,,,,,,,,,
0,control_change,0,0,7,,,,,,,,7,91,127,,,
0,program_change,0,0,10,,,,,,,,11,,,50,,
0,control_change,0,0,6,,,,,,,,6,7,127,,,
0,copyright,0,1,0,,,,,,,,,,,,,
0,set_tempo,0,1,0,500000,,,,,,,,,,,,
0,key_signature,0,1,0,,,,,,F,,,,,,,
0,time_signature,0,1,0,,3,4,24,8,,,,,,,,
120,note_on,120,0,6,,,,,,,,6,,,,50,30
120,note_on,120,0,7,,,,,,,,7,,,,38,30
120,note_on,120,0,11,,,,,,,,12,,,,50,30
120,set_tempo,120,1,0,1250000,,,,,,,,,,,,
120,note_on,120,0,2,,,,,,,,0,,,,38,30
120,note_on,120,0,12,,,,,,,,13,,,,38,30
360,note_on,360,0,1,,,,,,,,0,,,,62,30
600,note_off,240,0,1,,,,,,,,0,,,,62,64
600,note_on,0,0,1,,,,,,,,0,,,,65,30
840,note_off,240,0,1,,,,,,,,0,,,,65,64
840,note_on,0,0,1,,,,,,,,0,,,,69,30
1080,note_off,240,0,1,,,,,,,,0,,,,69,64
1080,note_on,0,0,1,,,,,,,,0,,,,65,30
1320,note_on,0,0,1,,,,,,,,0,,,,62,30
1320,note_off,240,0,1,,,,,,,,0,,,,65,64
1440,note_off,1320,0,2,,,,,,,,0,,,,38,64
1555,note_off,235,0,1,,,,,,,,0,,,,62,64
1560,note_on,120,0,2,,,,,,,,0,,,,38,30
1560,note_on,1560,0,10,,,,,,,,11,,,,58,30
1560,note_on,1560,0,5,,,,,,,,5,,,,58,30
1800,note_on,245,0,1,,,,,,,,0,,,,62,30
2040,note_off,240,0,1,,,,,,,,0,,,,62,64
2040,note_on,0,0,1,,,,,,,,0,,,,65,30
2280,note_off,240,0,1,,,,,,,,0,,,,65,64
2280,note_on,0,0,1,,,,,,,,0,,,,70,30
2520,note_off,240,0,1,,,,,,,,0,,,,70,64
2520,note_on,0,0,1,,,,,,,,0,,,,65,30
2760,note_on,0,0,1,,,,,,,,0,,,,62,30
2760,note_off,240,0,1,,,,,,,,0,,,,65,64
2880,note_off,1320,0,2,,,,,,,,0,,,,38,64
2995,note_off,235,0,1,,,,,,,,0,,,,62,64
3000,note_on,120,0,2,,,,,,,,0,,,,38,30
3000,note_on,3000,0,9,,,,,,,,10,,,,67,30
3000,note_on,3000,0,4,,,,,,,,4,,,,67,30
3240,note_on,245,0,1,,,,,,,,0,,,,62,30
3480,note_off,240,0,1,,,,,,,,0,,,,62,64
3480,note_on,0,0,1,,,,,,,,0,,,,67,30
3720,note_off,240,0,1,,,,,,,,0,,,,67,64
3720,note_on,0,0,1,,,,,,,,0,,,,70,30
3960,note_off,240,0,1,,,,,,,,0,,,,70,64
3960,note_on,0,0,1,,,,,,,,0,,,,67,30
4200,note_off,240,0,1,,,,,,,,0,,,,67,64
4200,note_on,0,0,1,,,,,,,,0,,,,62,30
4320,note_off,1320,0,2,,,,,,,,0,,,,38,64
4435,note_off,235,0,1,,,,,,,,0,,,,62,64
4440,note_on,4440,0,8,,,,,,,,8,,,,76,30
4440,note_on,120,0,2,,,,,,,,0,,,,38,30
4440,note_on,4440,0,3,,,,,,,,3,,,,76,30
4680,note_on,245,0,1,,,,,,,,0,,,,62,30
4920,note_off,240,0,1,,,,,,,,0,,,,62,64
4920,note_on,0,0,1,,,,,,,,0,,,,67,30
5160,note_off,240,0,1,,,,,,,,0,,,,67,64
5160,note_on,0,0,1,,,,,,,,0,,,,70,30
5400,note_off,240,0,1,,,,,,,,0,,,,70,64
5400,note_on,0,0,1,,,,,,,,0,,,,67,30
5640,note_off,240,0,1,,,,,,,,0,,,,67,64
5640,note_on,0,0,1,,,,,,,,0,,,,62,30
5760,note_off,5640,0,6,,,,,,,,6,,,,50,64
5760,note_off,5640,0,7,,,,,,,,7,,,,38,64
5760,note_off,5640,0,12,,,,,,,,13,,,,38,64
5760,note_off,5640,0,11,,,,,,,,12,,,,50,64
5760,note_off,1320,0,2,,,,,,,,0,,,,38,64
5875,note_off,235,0,1,,,,,,,,0,,,,62,64
5880,note_on,120,0,12,,,,,,,,13,,,,37,30
5880,note_on,120,0,6,,,,,,,,6,,,,49,30
5880,note_on,120,0,11,,,,,,,,12,,,,49,30
5880,note_on,120,0,2,,,,,,,,0,,,,37,30
5880,note_on,120,0,7,,,,,,,,7,,,,37,30
6120,note_on,245,0,1,,,,,,,,0,,,,64,30
6360,note_on,0,0,1,,,,,,,,0,,,,67,30
6360,note_off,240,0,1,,,,,,,,0,,,,64,64
6600,note_off,240,0,1,,,,,,,,0,,,,67,64
6600,note_on,0,0,1,,,,,,,,0,,,,73,30
6840,note_on,0,0,1,,,,,,,,0,,,,67,30
6840,note_off,240,0,1,,,,,,,,0,,,,73,64
7080,note_on,0,0,1,,,,,,,,0,,,,64,30
7080,note_off,240,0,1,,,,,,,,0,,,,67,64
7200,note_off,5640,0,10,,,,,,,,11,,,,58,64
7200,note_off,2760,0,8,,,,,,,,8,,,,76,64
7200,note_off,4200,0,9,,,,,,,,10,,,,67,64
7200,note_off,1320,0,2,,,,,,,,0,,,,37,64
7200,note_off,2760,0,3,,,,,,,,3,,,,76,64
7200,note_off,5640,0,5,,,,,,,,5,,,,58,64
7200,note_off,4200,0,4,,,,,,,,4,,,,67,64
7315,note_off,235,0,1,,,,,,,,0,,,,64,64
7320,note_on,120,0,10,,,,,,,,11,,,,64,30
7320,note_on,120,0,3,,,,,,,,3,,,,82,30
7320,note_on,120,0,8,,,,,,,,8,,,,82,30
7320,note_on,120,0,2,,,,,,,,0,,,,37,30
7320,note_on,120,0,4,,,,,,,,4,,,,79,30
7320,note_on,120,0,5,,,,,,,,5,,,,64,30
7320,note_on,120,0,9,,,,,,,,10,,,,79,30
7560,note_on,245,0,1,,,,,,,,0,,,,64,30
7800,note_off,240,0,1,,,,,,,,0,,,,64,64
7800,note_on,0,0,1,,,,,,,,0,,,,67,30
8040,note_off,240,0,1,,,,,,,,0,,,,67,64
8040,note_on,0,0,1,,,,,,,,0,,,,70,30
8280,note_off,240,0,1,,,,,,,,0,,,,70,64
8280,note_on,0,0,1,,,,,,,,0,,,,67,30
8520,note_off,240,0,1,,,,,,,,0,,,,67,64
8520,note_on,0,0,1,,,,,,,,0,,,,64,30
8640,note_off,1320,0,2,,,,,,,,0,,,,37,64
8755,note_off,235,0,1,,,,,,,,0,,,,64,64
8760,note_on,120,0,2,,,,,,,,0,,,,37,30
9000,note_on,245,0,1,,,,,,,,0,,,,64,30
9240,note_on,0,0,1,,,,,,,,0,,,,69,30
9240,note_off,1920,0,3,,,,,,,,3,,,,82,64
9240,note_on,0,0,3,,,,,,,,3,,,,81,30
9240,note_on,0,0,9,,,,,,,,10,,,,77,30
9240,note_off,1920,0,9,,,,,,,,10,,,,79,64
9240,note_off,1920,0,4,,,,,,,,4,,,,79,64
9240,note_on,0,0,4,,,,,,,,4,,,,77,30
9240,note_on,0,0,8,,,,,,,,8,,,,81,30
9240,note_off,1920,0,8,,,,,,,,8,,,,82,64
9240,note_off,240,0,1,,,,,,,,0,,,,64,64
9480,note_off,240,0,1,,,,,,,,0,,,,69,64
9480,note_on,0,0,1,,,,,,,,0,,,,65,30
9720,note_on,0,0,3,,,,,,,,3,,,,79,30
9720,note_on,0,0,8,,,,,,,,8,,,,79,30
9720,note_off,480,0,3,,,,,,,,3,,,,81,64
9720,note_on,0,0,1,,,,,,,,0,,,,67,30
9720,note_off,240,0,1,,,,,,,,0,,,,65,64
9720,note_off,480,0,9,,,,,,,,10,,,,77,64
9720,note_on,0,0,9,,,,,,,,10,,,,76,30
9720,note_off,480,0,8,,,,,,,,8,,,,81,64
9720,note_on,0,0,4,,,,,,,,4,,,,76,30
9720,note_off,480,0,4,,,,,,,,4,,,,77,64
9960,note_on,0,0,1,,,,,,,,0,,,,64,30
9960,note_off,240,0,1,,,,,,,,0,,,,67,64
10080,note_off,1320,0,2,,,,,,,,0,,,,37,64
10080,note_off,2760,0,10,,,,,,,,11,,,,64,64
10080,note_off,2760,0,5,,,,,,,,5,,,,64,64
10120,note_off,400,0,8,,,,,,,,8,,,,79,64
10120,note_off,400,0,4,,,,,,,,4,,,,76,64
10120,note_off,400,0,9,,,,,,,,10,,,,76,64
10120,note_off,400,0,3,,,,,,,,3,,,,79,64
10195,note_off,235,0,1,,,,,,,,0,,,,64,64
10200,note_on,80,0,4,,,,,,,,4,,,,78,30
10200,note_on,120,0,10,,,,,,,,11,,,,62,30
10200,note_on,80,0,3,,,,,,,,3,,,,81,30
10200,note_on,120,0,5,,,,,,,,5,,,,62,30
10200,note_on,80,0,9,,,,,,,,10,,,,78,30
10200,note_on,80,0,8,,,,,,,,8,,,,81,30
10200,note_on,120,0,2,,,,,,,,0,,,,37,30
10200,note_on,5,0,1,,,,,,,,0,,,,66,45
10200,note_on,0,0,1,,,,,,,,0,,,,69,45
10200,set_tempo,10080,1,0,1500000,,,,,,,,,,,,
10320,note_off,120,0,1,,,,,,,,0,,,,69,64
10320,note_off,0,0,1,,,,,,,,0,,,,66,64
10320,set_tempo,120,1,0,1250000,,,,,,,,,,,,
10320,note_on,0,0,1,,,,,,,,0,,,,67,45
10320,note_on,0,0,1,,,,,,,,0,,,,64,45
10440,note_off,120,0,1,,,,,,,,0,,,,67,64
10440,note_off,0,0,1,,,,,,,,0,,,,64,64
10440,note_on,0,0,1,,,,,,,,0,,,,62,45
10440,note_on,0,0,1,,,,,,,,0,,,,66,45
10560,note_on,0,0,1,,,,,,,,0,,,,64,42
10560,note_off,120,0,1,,,,,,,,0,,,,66,64
10560,note_off,0,0,1,,,,,,,,0,,,,62,64
10560,note_on,0,0,1,,,,,,,,0,,,,67,42
10680,note_on,0,0,1,,,,,,,,0,,,,69,38
10680,note_on,0,0,1,,,,,,,,0,,,,66,38
10680,note_off,0,0,1,,,,,,,,0,,,,64,64
10680,note_off,120,0,1,,,,,,,,0,,,,67,64
10920,note_off,0,0,1,,,,,,,,0,,,,66,64
10920,note_on,0,0,1,,,,,,,,0,,,,62,30
10920,note_off,240,0,1,,,,,,,,0,,,,69,64
11160,note_off,240,0,1,,,,,,,,0,,,,62,64
11160,note_on,0,0,1,,,,,,,,0,,,,66,30
11400,note_on,0,0,1,,,,,,,,0,,,,69,30
11400,note_off,240,0,1,,,,,,,,0,,,,66,64
11520,note_off,1320,0,2,,,,,,,,0,,,,37,64
11520,note_off,5640,0,7,,,,,,,,7,,,,37,64
11520,note_off,5640,0,11,,,,,,,,12,,,,49,64
11520,note_off,5640,0,12,,,,,,,,13,,,,37,64
11520,note_off,5640,0,6,,,,,,,,6,,,,49,64
11635,note_off,235,0,1,,,,,,,,0,,,,69,64
11640,note_off,1440,0,3,,,,,,,,3,,,,81,64
11640,note_on,120,0,7,,,,,,,,7,,,,38,30
11640,note_on,120,0,11,,,,,,,,12,,,,50,30
11640,note_on,0,0,10,,,,,,,,11,,,,71,30
11640,note_on,120,0,12,,,,,,,,13,,,,38,30
11640,note_off,1440,0,5,,,,,,,,5,,,,62,64
11640,note_on,120,0,2,,,,,,,,0,,,,38,30
11640,note_on,0,0,4,,,,,,,,4,,,,76,30
11640,note_off,1440,0,4,,,,,,,,4,,,,78,64
11640,note_on,0,0,5,,,,,,,,5,,,,71,30
11640,note_off,1440,0,10,,,,,,,,11,,,,62,64
11640,note_on,120,0,6,,,,,,,,6,,,,50,30
11640,note_on,0,0,9,,,,,,,,10,,,,76,30
11640,note_off,1440,0,8,,,,,,,,8,,,,81,64
11640,note_on,0,0,3,,,,,,,,3,,,,80,30
11640,note_on,0,0,8,,,,,,,,8,,,,80,30
11640,note_off,1440,0,9,,,,,,,,10,,,,78,64
11880,note_on,245,0,1,,,,,,,,0,,,,62,30
12120,note_off,240,0,1,,,,,,,,0,,,,62,64
12120,note_on,0,0,1,,,,,,,,0,,,,68,30
12360,note_off,240,0,1,,,,,,,,0,,,,68,64
12360,note_on,0,0,1,,,,,,,,0,,,,71,30
12600,note_on,0,0,1,,,,,,,,0,,,,74,30
12600,note_off,240,0,1,,,,,,,,0,,,,71,64
12840,note_off,240,0,1,,,,,,,,0,,,,74,64
12840,note_on,0,0,1,,,,,,,,0,,,,71,30
12960,note_off,1320,0,10,,,,,,,,11,,,,71,64
12960,note_off,1320,0,3,,,,,,,,3,,,,80,64
12960,note_off,1320,0,2,,,,,,,,0,,,,38,64
12960,note_off,1320,0,8,,,,,,,,8,,,,80,64
12960,note_off,1320,0,5,,,,,,,,5,,,,71,64
12960,note_off,1320,0,4,,,,,,,,4,,,,76,64
12960,note_off,1320,0,9,,,,,,,,10,,,,76,64
13080,note_on,120,0,8,,,,,,,,8,,,,81,30
13080,note_on,0,0,11,,,,,,,,12,,,,51,30
13080,note_off,1440,0,12,,,,,,,,13,,,,38,64
13080,note_on,120,0,3,,,,,,,,3,,,,81,30
13080,note_on,120,0,9,,,,,,,,10,,,,78,30
13080,note_on,0,0,7,,,,,,,,7,,,,39,30
13080,note_off,1440,0,7,,,,,,,,7,,,,38,64
13080,set_tempo,2760,1,0,1428571,,,,,,,,,,,,
13080,note_on,120,0,5,,,,,,,,5,,,,72,30
13080,note_on,0,0,6,,,,,,,,6,,,,51,30
13080,note_off,1440,0,6,,,,,,,,6,,,,50,64
13080,note_on,120,0,10,,,,,,,,11,,,,72,30
13080,note_on,120,0,4,,,,,,,,4,,,,78,30
13080,note_off,1440,0,11,,,,,,,,12,,,,50,64
13080,note_on,120,0,2,,,,,,,,0,,,,39,30
13080,note_on,0,0,12,,,,,,,,13,,,,39,30
13080,note_on,0,0,1,,,,,,,,0,,,,69,45
13080,note_on,0,0,1,,,,,,,,0,,,,72,45
13080,note_off,240,0,1,,,,,,,,0,,,,71,64
13200,note_on,0,0,1,,,,,,,,0,,,,67,45
13200,note_on,0,0,1,,,,,,,,0,,,,70,45
13200,set_tempo,120,1,0,1250000,,,,,,,,,,,,
13200,note_off,0,0,1,,,,,,,,0,,,,69,64
13200,note_off,120,0,1,,,,,,,,0,,,,72,64
13320,note_on,0,0,1,,,,,,,,0,,,,69,42
13320,note_off,0,0,1,,,,,,,,0,,,,67,64
13320,note_off,120,0,1,,,,,,,,0,,,,70,64
13320,note_on,0,0,1,,,,,,,,0,,,,66,42
13440,note_off,0,0,1,,,,,,,,0,,,,66,64
13440,note_off,120,0,1,,,,,,,,0,,,,69,64
13440,note_on,0,0,1,,,,,,,,0,,,,67,39
13440,note_on,0,0,1,,,,,,,,0,,,,70,39
13560,note_on,0,0,1,,,,,,,,0,,,,72,36
13560,note_on,0,0,1,,,,,,,,0,,,,69,36
13560,note_off,120,0,1,,,,,,,,0,,,,70,64
13560,note_off,0,0,1,,,,,,,,0,,,,67,64
13800,note_off,240,0,1,,,,,,,,0,,,,72,64
13800,note_on,0,0,1,,,,,,,,0,,,,69,30
13800,note_off,0,0,1,,,,,,,,0,,,,69,64
14040,note_off,240,0,1,,,,,,,,0,,,,69,64
14040,note_on,0,0,1,,,,,,,,0,,,,66,30
14280,note_off,240,0,1,,,,,,,,0,,,,66,64
14280,note_on,0,0,1,,,,,,,,0,,,,63,30
14400,note_off,1320,0,2,,,,,,,,0,,,,39,64
14515,note_off,235,0,1,,,,,,,,0,,,,63,64
14520,note_on,120,0,2,,,,,,,,0,,,,39,30
14760,note_on,245,0,1,,,,,,,,0,,,,66,30
15000,note_off,1920,0,8,,,,,,,,8,,,,81,64
15000,note_off,1920,0,9,,,,,,,,10,,,,78,64
15000,note_off,1920,0,3,,,,,,,,3,,,,81,64
15000,note_off,240,0,1,,,,,,,,0,,,,66,64
15000,note_on,0,0,1,,,,,,,,0,,,,67,30
15000,note_on,0,0,8,,,,,,,,8,,,,79,30
15000,note_on,0,0,9,,,,,,,,10,,,,76,30
15000,note_on,0,0,3,,,,,,,,3,,,,79,30
15000,note_on,0,0,4,,,,,,,,4,,,,76,30
15000,note_off,1920,0,4,,,,,,,,4,,,,78,64
15240,note_on,0,0,1,,,,,,,,0,,,,72,30
15240,note_off,240,0,1,,,,,,,,0,,,,67,64
15480,note_off,480,0,9,,,,,,,,10,,,,76,64
15480,note_off,240,0,1,,,,,,,,0,,,,72,64
15480,note_on,0,0,4,,,,,,,,4,,,,75,30
15480,note_off,480,0,4,,,,,,,,4,,,,76,64
15480,note_on,0,0,1,,,,,,,,0,,,,75,30
15480,note_on,0,0,8,,,,,,,,8,,,,78,30
15480,note_on,0,0,9,,,,,,,,10,,,,75,30
15480,note_off,480,0,8,,,,,,,,8,,,,79,64
15480,note_on,0,0,3,,,,,,,,3,,,,78,30
15480,note_off,480,0,3,,,,,,,,3,,,,79,64
15720,note_off,240,0,1,,,,,,,,0,,,,75,64
15720,note_on,0,0,1,,,,,,,,0,,,,78,30
15840,note_off,1320,0,2,,,,,,,,0,,,,39,64
15840,note_off,2760,0,7,,,,,,,,7,,,,39,64
15840,note_off,2760,0,12,,,,,,,,13,,,,39,64
15840,note_off,2760,0,6,,,,,,,,6,,,,51,64
15840,note_off,2760,0,11,,,,,,,,12,,,,51,64
15880,note_off,400,0,4,,,,,,,,4,,,,75,64
15880,note_off,400,0,8,,,,,,,,8,,,,78,64
15880,note_off,400,0,3,,,,,,,,3,,,,78,64
15880,note_off,400,0,9,,,,,,,,10,,,,75,64
15960,note_on,0,0,10,,,,,,,,11,,,,73,30
15960,note_on,80,0,4,,,,,,,,4,,,,76,30
15960,note_on,120,0,12,,,,,,,,13,,,,34,30
15960,set_tempo,2760,1,0,1500000,,,,,,,,,,,,
15960,note_on,0,0,1,,,,,,,,0,,,,73,45
15960,note_on,0,0,1,,,,,,,,0,,,,76,45
15960,note_on,120,0,2,,,,,,,,0,,,,46,30
15960,note_on,80,0,8,,,,,,,,8,,,,79,30
15960,note_off,240,0,1,,,,,,,,0,,,,78,64
15960,note_on,80,0,9,,,,,,,,10,,,,76,30
15960,note_on,120,0,6,,,,,,,,6,,,,46,30
15960,note_on,0,0,5,,,,,,,,5,,,,73,30
15960,note_on,120,0,11,,,,,,,,12,,,,46,30
15960,note_off,2880,0,5,,,,,,,,5,,,,72,64
15960,note_on,120,0,7,,,,,,,,7,,,,34,30
15960,note_off,2880,0,10,,,,,,,,11,,,,72,64
15960,note_on,80,0,3,,,,,,,,3,,,,79,30
16080,set_tempo,120,1,0,1250000,,,,,,,,,,,,
16080,note_off,0,0,1,,,,,,,,0,,,,73,64
16080,note_off,120,0,1,,,,,,,,0,,,,76,64
16080,note_on,0,0,1,,,,,,,,0,,,,74,45
16080,note_on,0,0,1,,,,,,,,0,,,,70,45
16200,note_off,120,0,1,,,,,,,,0,,,,74,64
16200,note_off,0,0,1,,,,,,,,0,,,,70,64
16200,note_on,0,0,1,,,,,,,,0,,,,70,42
16200,note_on,0,0,1,,,,,,,,0,,,,73,42
16320,note_off,0,0,1,,,,,,,,0,,,,70,64
16320,note_off,120,0,1,,,,,,,,0,,,,73,64
16320,note_on,0,0,1,,,,,,,,0,,,,74,39
16320,note_on,0,0,1,,,,,,,,0,,,,70,39
16440,note_on,0,0,1,,,,,,,,0,,,,73,36
16440,note_on,0,0,1,,,,,,,,0,,,,76,36
16440,note_off,0,0,1,,,,,,,,0,,,,70,64
16440,note_off,120,0,1,,,,,,,,0,,,,74,64
16680,note_off,240,0,1,,,,,,,,0,,,,76,64
16680,note_on,0,0,1,,,,,,,,0,,,,70,30
16680,note_off,0,0,1,,,,,,,,0,,,,73,64
16920,note_on,0,0,1,,,,,,,,0,,,,73,30
16920,note_off,240,0,1,,,,,,,,0,,,,70,64
17160,note_on,0,0,1,,,,,,,,0,,,,64,30
17160,note_off,240,0,1,,,,,,,,0,,,,73,64
17280,note_off,1320,0,2,,,,,,,,0,,,,46,64
17400,note_on,0,0,1,,,,,,,,0,,,,67,30
17400,note_on,120,0,2,,,,,,,,0,,,,46,30
17400,set_tempo,1320,1,0,1250000,,,,,,,,,,,,
17400,note_off,240,0,1,,,,,,,,0,,,,64,64
17640,note_on,0,0,1,,,,,,,,0,,,,73,30
17640,note_off,240,0,1,,,,,,,,0,,,,67,64
17880,note_on,0,0,3,,,,,,,,3,,,,78,30
17880,note_on,0,0,9,,,,,,,,10,,,,75,30
17880,set_tempo,480,1,0,1304347,,,,,,,,,,,,
17880,note_on,0,0,8,,,,,,,,8,,,,78,30
17880,note_on,0,0,1,,,,,,,,0,,,,66,30
17880,note_off,240,0,1,,,,,,,,0,,,,73,64
17880,note_off,1920,0,3,,,,,,,,3,,,,79,64
17880,note_off,1920,0,9,,,,,,,,10,,,,76,64
17880,note_off,1920,0,4,,,,,,,,4,,,,76,64
17880,note_on,0,0,4,,,,,,,,4,,,,75,30
17880,note_off,1920,0,8,,,,,,,,8,,,,79,64
18120,note_on,0,0,1,,,,,,,,0,,,,70,30
18120,note_off,240,0,1,,,,,,,,0,,,,66,64
18360,note_on,0,0,9,,,,,,,,10,,,,73,30
18360,note_off,480,0,9,,,,,,,,10,,,,75,64
18360,set_tempo,480,1,0,1363636,,,,,,,,,,,,
18360,note_off,480,0,3,,,,,,,,3,,,,78,64
18360,note_on,0,0,1,,,,,,,,0,,,,64,30
18360,note_off,240,0,1,,,,,,,,0,,,,70,64
18360,note_on,0,0,3,,,,,,,,3,,,,76,30
18360,note_on,0,0,8,,,,,,,,8,,,,76,30
18360,note_off,480,0,8,,,,,,,,8,,,,78,64
18360,note_on,0,0,4,,,,,,,,4,,,,73,30
18360,note_off,480,0,4,,,,,,,,4,,,,75,64
18600,note_off,240,0,1,,,,,,,,0,,,,64,64
18600,note_on,0,0,1,,,,,,,,0,,,,70,30
18720,note_off,2760,0,10,,,,,,,,11,,,,73,64
18720,note_off,1320,0,2,,,,,,,,0,,,,46,64
18720,note_off,2760,0,5,,,,,,,,5,,,,73,64
18760,note_off,400,0,9,,,,,,,,10,,,,73,64
18760,note_off,400,0,3,,,,,,,,3,,,,76,64
18760,note_off,400,0,4,,,,,,,,4,,,,73,64
18760,note_off,400,0,8,,,,,,,,8,,,,76,64
18840,note_on,0,0,6,,,,,,,,6,,,,45,30
18840,note_on,0,0,7,,,,,,,,7,,,,33,30
18840,note_on,80,0,3,,,,,,,,3,,,,78,30
18840,note_on,0,0,1,,,,,,,,0,,,,75,45
18840,note_on,0,0,1,,,,,,,,0,,,,66,45
18840,note_off,2880,0,6,,,,,,,,6,,,,46,64
18840,note_on,120,0,5,,,,,,,,5,,,,71,30
18840,note_on,120,0,2,,,,,,,,0,,,,45,30
18840,note_off,2880,0,11,,,,,,,,12,,,,46,64
18840,note_on,0,0,11,,,,,,,,12,,,,45,30
18840,note_on,80,0,8,,,,,,,,8,,,,78,30
18840,set_tempo,480,1,0,1428571,,,,,,,,,,,,
18840,note_on,80,0,4,,,,,,,,4,,,,75,30
18840,note_off,2880,0,12,,,,,,,,13,,,,34,64
18840,note_on,120,0,10,,,,,,,,11,,,,71,30
18840,note_off,2880,0,7,,,,,,,,7,,,,34,64
18840,note_on,80,0,9,,,,,,,,10,,,,75,30
18840,note_on,0,0,12,,,,,,,,13,,,,33,30
18840,note_off,240,0,1,,,,,,,,0,,,,70,64
18960,set_tempo,120,1,0,1250000,,,,,,,,,,,,
18960,note_on,0,0,1,,,,,,,,0,,,,73,45
18960,note_off,0,0,1,,,,,,,,0,,,,66,64
18960,note_off,120,0,1,,,,,,,,0,,,,75,64
18960,note_on,0,0,1,,,,,,,,0,,,,64,45
19080,note_off,120,0,1,,,,,,,,0,,,,73,64
19080,note_off,0,0,1,,,,,,,,0,,,,64,64
19080,note_on,0,0,1,,,,,,,,0,,,,63,42
19080,note_on,0,0,1,,,,,,,,0,,,,71,42
19200,note_off,120,0,1,,,,,,,,0,,,,71,64
19200,note_off,0,0,1,,,,,,,,0,,,,63,64
19200,note_on,0,0,1,,,,,,,,0,,,,64,39
19200,note_on,0,0,1,,,,,,,,0,,,,73,39
19320,note_on,0,0,1,,,,,,,,0,,,,66,36
19320,note_off,120,0,1,,,,,,,,0,,,,73,64
19320,note_off,0,0,1,,,,,,,,0,,,,64,64
19320,note_on,0,0,1,,,,,,,,0,,,,75,36
19560,note_off,240,0,1,,,,,,,,0,,,,75,64
19560,note_off,0,0,1,,,,,,,,0,,,,66,64
19560,note_on,0,0,1,,,,,,,,0,,,,71,30
19800,note_on,0,0,1,,,,,,,,0,,,,75,30
19800,note_off,240,0,1,,,,,,,,0,,,,71,64
20040,note_on,0,0,1,,,,,,,,0,,,,66,30
20040,note_off,240,0,1,,,,,,,,0,,,,75,64
20160,note_off,1320,0,2,,,,,,,,0,,,,45,64
20160,note_off,1320,0,7,,,,,,,,7,,,,33,64
20160,note_off,1320,0,11,,,,,,,,12,,,,45,64
20160,note_off,1320,0,12,,,,,,,,13,,,,33,64
20160,note_off,1320,0,6,,,,,,,,6,,,,45,64
20280,note_on,120,0,12,,,,,,,,13,,,,31,30
20280,note_off,1440,0,3,,,,,,,,3,,,,78,64
20280,note_off,240,0,1,,,,,,,,0,,,,66,64
20280,note_on,0,0,1,,,,,,,,0,,,,67,30
20280,note_on,0,0,4,,,,,,,,4,,,,76,30
20280,note_off,1440,0,4,,,,,,,,4,,,,75,64
20280,note_on,120,0,11,,,,,,,,12,,,,43,30
20280,note_off,1440,0,8,,,,,,,,8,,,,78,64
20280,note_on,0,0,8,,,,,,,,8,,,,79,30
20280,note_on,0,0,3,,,,,,,,3,,,,79,30
20280,note_on,120,0,7,,,,,,,,7,,,,31,30
20280,note_on,120,0,2,,,,,,,,0,,,,43,30
20280,note_on,120,0,6,,,,,,,,6,,,,43,30
20280,note_off,1440,0,9,,,,,,,,10,,,,75,64
20280,note_on,0,0,9,,,,,,,,10,,,,76,30
20520,note_off,240,0,1,,,,,,,,0,,,,67,64
20520,note_on,0,0,1,,,,,,,,0,,,,76,30
20760,note_off,240,0,1,,,,,,,,0,,,,76,64
20760,note_on,0,0,1,,,,,,,,0,,,,66,30
20760,note_off,480,0,4,,,,,,,,4,,,,76,64
20760,note_on,0,0,9,,,,,,,,10,,,,78,30
20760,note_on,0,0,4,,,,,,,,4,,,,78,30
20760,set_tempo,1800,1,0,1304347,,,,,,,,,,,,
20760,note_off,480,0,3,,,,,,,,3,,,,79,64
20760,note_off,480,0,8,,,,,,,,8,,,,79,64
20760,note_on,0,0,8,,,,,,,,8,,,,81,30
20760,note_off,480,0,9,,,,,,,,10,,,,76,64
20760,note_on,0,0,3,,,,,,,,3,,,,81,30
21000,note_on,0,0,1,,,,,,,,0,,,,69,30
21000,note_off,240,0,1,,,,,,,,0,,,,66,64
21240,note_off,480,0,3,,,,,,,,3,,,,81,64
21240,note_on,0,0,9,,,,,,,,10,,,,79,30
21240,note_on,0,0,8,,,,,,,,8,,,,83,30
21240,note_on,0,0,4,,,,,,,,4,,,,79,30
21240,note_off,480,0,4,,,,,,,,4,,,,78,64
21240,note_off,480,0,8,,,,,,,,8,,,,81,64
21240,note_off,480,0,9,,,,,,,,10,,,,78,64
21240,set_tempo,480,1,0,1363636,,,,,,,,,,,,
21240,note_on,0,0,3,,,,,,,,3,,,,83,30
21240,note_on,0,0,1,,,,,,,,0,,,,71,30
21240,note_off,240,0,1,,,,,,,,0,,,,69,64
21480,note_off,240,0,1,,,,,,,,0,,,,71,64
21480,note_on,0,0,1,,,,,,,,0,,,,67,30
21600,note_off,1320,0,12,,,,,,,,13,,,,31,64
21600,note_off,1320,0,6,,,,,,,,6,,,,43,64
21600,note_off,1320,0,7,,,,,,,,7,,,,31,64
21600,note_off,1320,0,2,,,,,,,,0,,,,43,64
21600,note_off,1320,0,11,,,,,,,,12,,,,43,64
21640,note_off,400,0,3,,,,,,,,3,,,,83,64
21640,note_off,400,0,9,,,,,,,,10,,,,79,64
21640,note_off,400,0,8,,,,,,,,8,,,,83,64
21640,note_off,400,0,4,,,,,,,,4,,,,79,64
21720,note_on,120,0,11,,,,,,,,12,,,,44,30
21720,note_on,120,0,7,,,,,,,,7,,,,32,30
21720,note_on,120,0,12,,,,,,,,13,,,,32,30
21720,note_on,80,0,8,,,,,,,,8,,,,77,30
21720,note_on,120,0,6,,,,,,,,6,,,,44,30
21720,note_on,80,0,9,,,,,,,,10,,,,74,30
21720,note_on,80,0,4,,,,,,,,4,,,,74,30
21720,note_on,0,0,1,,,,,,,,0,,,,65,30
21720,set_tempo,480,1,0,1304347,,,,,,,,,,,,
21720,note_on,80,0,3,,,,,,,,3,,,,77,30
21720,note_off,240,0,1,,,,,,,,0,,,,67,64
21720,note_on,120,0,2,,,,,,,,0,,,,44,30
21960,note_off,240,0,1,,,,,,,,0,,,,65,64
21960,note_on,0,0,1,,,,,,,,0,,,,68,30
22200,note_off,240,0,1,,,,,,,,0,,,,68,64
22200,note_on,0,0,1,,,,,,,,0,,,,71,30
22200,set_tempo,480,1,0,1250000,,,,,,,,,,,,
22440,note_off,240,0,1,,,,,,,,0,,,,71,64
22440,note_on,0,0,1,,,,,,,,0,,,,74,30
22680,note_off,240,0,1,,,,,,,,0,,,,74,64
22680,note_on,0,0,1,,,,,,,,0,,,,71,30
22680,set_tempo,480,1,0,1304347,,,,,,,,,,,,
22920,note_off,240,0,1,,,,,,,,0,,,,71,64
22920,note_on,0,0,1,,,,,,,,0,,,,68,30
23040,note_off,1320,0,2,,,,,,,,0,,,,44,64
23155,note_off,235,0,1,,,,,,,,0,,,,68,64
23160,set_tempo,480,1,0,1363636,,,,,,,,,,,,
23160,note_on,120,0,2,,,,,,,,0,,,,44,30
23400,note_on,245,0,1,,,,,,,,0,,,,65,30
23640,note_on,0,0,3,,,,,,,,3,,,,76,30
23640,note_off,1920,0,3,,,,,,,,3,,,,77,64
23640,note_off,1920,0,9,,,,,,,,10,,,,74,64
23640,note_on,0,0,8,,,,,,,,8,,,,76,30
23640,note_on,0,0,1,,,,,,,,0,,,,71,30
23640,note_on,0,0,9,,,,,,,,10,,,,72,30
23640,note_off,1920,0,8,,,,,,,,8,,,,77,64
23640,note_off,240,0,1,,,,,,,,0,,,,65,64
23640,note_on,0,0,4,,,,,,,,4,,,,72,30
23640,note_off,1920,0,4,,,,,,,,4,,,,74,64
23880,note_on,0,0,1,,,,,,,,0,,,,72,30
23880,note_off,240,0,1,,,,,,,,0,,,,71,64
23880,set_tempo,720,1,0,1304347,,,,,,,,,,,,
24120,note_off,480,0,8,,,,,,,,8,,,,76,64
24120,note_on,0,0,8,,,,,,,,8,,,,74,30
24120,note_on,0,0,3,,,,,,,,3,,,,74,30
24120,note_off,240,0,1,,,,,,,,0,,,,72,64
24120,note_off,480,0,3,,,,,,,,3,,,,76,64
24120,note_on,0,0,9,,,,,,,,10,,,,71,30
24120,note_off,480,0,4,,,,,,,,4,,,,72,64
24120,note_on,0,0,4,,,,,,,,4,,,,71,30
24120,note_off,480,0,9,,,,,,,,10,,,,72,64
24120,note_on,0,0,1,,,,,,,,0,,,,74,30
24120,set_tempo,240,1,0,1250000,,,,,,,,,,,,
24360,note_on,0,0,1,,,,,,,,0,,,,71,30
24360,note_off,240,0,1,,,,,,,,0,,,,74,64
24480,note_off,5640,0,5,,,,,,,,5,,,,71,64
24480,note_off,5640,0,10,,,,,,,,11,,,,71,64
24480,note_off,1320,0,2,,,,,,,,0,,,,44,64
24520,note_off,400,0,9,,,,,,,,10,,,,71,64
24520,note_off,400,0,8,,,,,,,,8,,,,74,64
24520,note_off,400,0,3,,,,,,,,3,,,,74,64
24520,note_off,400,0,4,,,,,,,,4,,,,71,64
24595,note_off,235,0,1,,,,,,,,0,,,,71,64
24600,note_on,120,0,5,,,,,,,,5,,,,69,30
24600,note_on,120,0,10,,,,,,,,11,,,,69,30
24600,set_tempo,480,1,0,1363636,,,,,,,,,,,,
24600,note_on,120,0,2,,,,,,,,0,,,,43,30
24600,note_off,2880,0,6,,,,,,,,6,,,,44,64
24600,note_on,80,0,8,,,,,,,,8,,,,76,30
24600,note_on,80,0,3,,,,,,,,3,,,,76,30
24600,note_on,0,0,12,,,,,,,,13,,,,31,30
24600,note_off,2880,0,12,,,,,,,,13,,,,32,64
24600,note_off,2880,0,7,,,,,,,,7,,,,32,64
24600,note_on,0,0,11,,,,,,,,12,,,,43,30
24600,note_off,2880,0,11,,,,,,,,12,,,,44,64
24600,note_on,80,0,9,,,,,,,,10,,,,73,30
24600,note_on,0,0,6,,,,,,,,6,,,,43,30
24600,note_on,0,0,7,,,,,,,,7,,,,31,30
24600,note_on,80,0,4,,,,,,,,4,,,,73,30
24840,note_on,245,0,1,,,,,,,,0,,,,64,30
25080,note_on,0,0,1,,,,,,,,0,,,,69,30
25080,note_off,240,0,1,,,,,,,,0,,,,64,64
25080,set_tempo,480,1,0,1304347,,,,,,,,,,,,
25320,note_off,240,0,1,,,,,,,,0,,,,69,64
25320,note_on,0,0,1,,,,,,,,0,,,,73,30
25560,note_off,240,0,1,,,,,,,,0,,,,73,64
25560,note_on,0,0,1,,,,,,,,0,,,,76,30
25560,set_tempo,480,1,0,1250000,,,,,,,,,,,,
25800,note_off,240,0,1,,,,,,,,0,,,,76,64
25800,note_on,0,0,1,,,,,,,,0,,,,73,30
25920,note_off,1320,0,11,,,,,,,,12,,,,43,64
25920,note_off,1320,0,12,,,,,,,,13,,,,31,64
25920,note_off,1320,0,6,,,,,,,,6,,,,43,64
25920,note_off,1320,0,2,,,,,,,,0,,,,43,64
25920,note_off,1320,0,7,,,,,,,,7,,,,31,64
26040,note_on,0,0,1,,,,,,,,0,,,,74,30
26040,note_off,1440,0,3,,,,,,,,3,,,,76,64
26040,note_on,0,0,3,,,,,,,,3,,,,77,30
26040,note_on,0,0,9,,,,,,,,10,,,,74,30
26040,note_on,120,0,6,,,,,,,,6,,,,41,30
26040,note_off,240,0,1,,,,,,,,0,,,,73,64
26040,note_off,1440,0,9,,,,,,,,10,,,,73,64
26040,note_on,0,0,4,,,,,,,,4,,,,74,30
26040,note_on,120,0,12,,,,,,,,13,,,,29,30
26040,note_on,120,0,7,,,,,,,,7,,,,29,30
26040,note_on,0,0,8,,,,,,,,8,,,,77,30
26040,note_on,120,0,11,,,,,,,,12,,,,41,30
26040,note_off,1440,0,4,,,,,,,,4,,,,73,64
26040,note_on,120,0,2,,,,,,,,0,,,,41,30
26040,note_off,1440,0,8,,,,,,,,8,,,,76,64
26280,note_on,0,0,1,,,,,,,,0,,,,65,30
26280,note_off,240,0,1,,,,,,,,0,,,,74,64
26520,note_off,480,0,8,,,,,,,,8,,,,77,64
26520,note_off,480,0,9,,,,,,,,10,,,,74,64
26520,note_on,0,0,1,,,,,,,,0,,,,76,30
26520,note_off,240,0,1,,,,,,,,0,,,,65,64
26520,note_on,0,0,9,,,,,,,,10,,,,76,30
26520,set_tempo,960,1,0,1304347,,,,,,,,,,,,
26520,note_on,0,0,4,,,,,,,,4,,,,76,30
26520,note_on,0,0,3,,,,,,,,3,,,,79,30
26520,note_off,480,0,3,,,,,,,,3,,,,77,64
26520,note_off,480,0,4,,,,,,,,4,,,,74,64
26520,note_on,0,0,8,,,,,,,,8,,,,79,30
26760,note_off,240,0,1,,,,,,,,0,,,,76,64
26760,note_on,0,0,1,,,,,,,,0,,,,67,30
27000,note_off,480,0,9,,,,,,,,10,,,,76,64
27000,note_on,0,0,9,,,,,,,,10,,,,77,30
27000,set_tempo,480,1,0,1363636,,,,,,,,,,,,
27000,note_off,480,0,8,,,,,,,,8,,,,79,64
27000,note_on,0,0,8,,,,,,,,8,,,,81,30
27000,note_on,0,0,3,,,,,,,,3,,,,81,30
27000,note_on,0,0,1,,,,,,,,0,,,,77,30
27000,note_off,240,0,1,,,,,,,,0,,,,67,64
27000,note_off,480,0,3,,,,,,,,3,,,,79,64
27000,note_off,480,0,4,,,,,,,,4,,,,76,64
27000,note_on,0,0,4,,,,,,,,4,,,,77,30
27240,note_off,240,0,1,,,,,,,,0,,,,77,64
27240,note_on,0,0,1,,,,,,,,0,,,,69,30
27360,note_off,1320,0,2,,,,,,,,0,,,,41,64
27360,note_off,1320,0,7,,,,,,,,7,,,,29,64
27360,note_off,1320,0,6,,,,,,,,6,,,,41,64
27360,note_off,1320,0,11,,,,,,,,12,,,,41,64
27360,note_off,1320,0,12,,,,,,,,13,,,,29,64
27360,note_off,2760,0,5,,,,,,,,5,,,,69,64
27360,note_off,2760,0,10,,,,,,,,11,,,,69,64
27400,note_off,400,0,3,,,,,,,,3,,,,81,64
27400,note_off,400,0,8,,,,,,,,8,,,,81,64
27400,note_off,400,0,9,,,,,,,,10,,,,77,64
27400,note_off,400,0,4,,,,,,,,4,,,,77,64
27475,note_off,235,0,1,,,,,,,,0,,,,69,64
27480,note_on,120,0,11,,,,,,,,12,,,,40,30
27480,note_on,80,0,4,,,,,,,,4,,,,79,30
27480,note_on,120,0,5,,,,,,,,5,,,,60,30
27480,note_on,120,0,10,,,,,,,,11,,,,60,30
27480,note_on,120,0,7,,,,,,,,7,,,,28,30
27480,note_on,120,0,2,,,,,,,,0,,,,40,30
27480,note_on,80,0,9,,,,,,,,10,,,,79,30
27480,note_on,80,0,3,,,,,,,,3,,,,82,30
27480,note_on,5,0,1,,,,,,,,0,,,,67,45
27480,set_tempo,480,1,0,1500000,,,,,,,,,,,,
27480,note_on,120,0,6,,,,,,,,6,,,,40,30
27480,note_on,80,0,8,,,,,,,,8,,,,82,30
27480,note_on,120,0,12,,,,,,,,13,,,,28,30
27480,note_on,0,0,1,,,,,,,,0,,,,70,45
27600,set_tempo,120,1,0,1250000,,,,,,,,,,,,
27600,note_off,0,0,1,,,,,,,,0,,,,67,64
27600,note_off,120,0,1,,,,,,,,0,,,,70,64
27600,note_on,0,0,1,,,,,,,,0,,,,65,45
27600,note_on,0,0,1,,,,,,,,0,,,,69,45
27720,note_on,0,0,1,,,,,,,,0,,,,67,45
27720,note_on,0,0,1,,,,,,,,0,,,,64,45
27720,note_off,0,0,1,,,,,,,,0,,,,65,64
27720,note_off,120,0,1,,,,,,,,0,,,,69,64
27840,note_on,0,0,1,,,,,,,,0,,,,69,45
27840,note_off,0,0,1,,,,,,,,0,,,,64,64
27840,note_off,120,0,1,,,,,,,,0,,,,67,64
27840,note_on,0,0,1,,,,,,,,0,,,,65,45
27960,note_off,0,0,1,,,,,,,,0,,,,65,64
27960,note_on,0,0,1,,,,,,,,0,,,,67,45
27960,note_on,0,0,1,,,,,,,,0,,,,70,45
27960,note_off,120,0,1,,,,,,,,0,,,,69,64
28195,note_off,0,0,1,,,,,,,,0,,,,67,64
28195,note_off,235,0,1,,,,,,,,0,,,,70,64
28200,note_on,0,0,1,,,,,,,,0,,,,58,42
28200,note_on,5,0,1,,,,,,,,0,,,,55,42
28200,set_tempo,600,1,0,1363636,,,,,,,,,,,,
28320,note_on,0,0,1,,,,,,,,0,,,,57,40
28320,note_on,0,0,1,,,,,,,,0,,,,53,40
28320,note_off,0,0,1,,,,,,,,0,,,,55,64
28320,note_off,120,0,1,,,,,,,,0,,,,58,64
28320,set_tempo,120,1,0,1250000,,,,,,,,,,,,
28440,note_on,0,0,1,,,,,,,,0,,,,52,38
28440,note_off,120,0,1,,,,,,,,0,,,,57,64
28440,note_on,0,0,1,,,,,,,,0,,,,55,38
28440,note_off,0,0,1,,,,,,,,0,,,,53,64
28560,note_off,0,0,1,,,,,,,,0,,,,52,64
28560,note_off,120,0,1,,,,,,,,0,,,,55,64
28560,note_on,0,0,1,,,,,,,,0,,,,53,36
28560,note_on,0,0,1,,,,,,,,0,,,,57,36
28680,note_off,120,0,1,,,,,,,,0,,,,57,64
28680,note_on,0,0,1,,,,,,,,0,,,,58,34
28680,note_on,0,0,1,,,,,,,,0,,,,55,34
28680,note_off,0,0,1,,,,,,,,0,,,,53,64
28800,note_off,1320,0,2,,,,,,,,0,,,,40,64
28920,note_on,120,0,2,,,,,,,,0,,,,40,30
28920,set_tempo,600,1,0,1428571,,,,,,,,,,,,
28920,note_on,0,0,1,,,,,,,,0,,,,60,30
28920,note_off,240,0,1,,,,,,,,0,,,,58,64
28920,note_off,0,0,1,,,,,,,,0,,,,55,64
29160,note_on,0,0,1,,,,,,,,0,,,,67,30
29160,note_off,240,0,1,,,,,,,,0,,,,60,64
29400,note_on,0,0,4,,,,,,,,4,,,,77,30
29400,set_tempo,480,1,0,1363636,,,,,,,,,,,,
29400,note_off,1920,0,4,,,,,,,,4,,,,79,64
29400,note_off,1920,0,8,,,,,,,,8,,,,82,64
29400,note_on,0,0,8,,,,,,,,8,,,,80,30
29400,note_off,1920,0,3,,,,,,,,3,,,,82,64
29400,note_on,0,0,3,,,,,,,,3,,,,80,30
29400,note_on,0,0,9,,,,,,,,10,,,,77,30
29400,note_off,1920,0,9,,,,,,,,10,,,,79,64
29400,note_on,0,0,1,,,,,,,,0,,,,68,30
29400,note_off,240,0,1,,,,,,,,0,,,,67,64
29640,note_on,0,0,1,,,,,,,,0,,,,65,30
29640,note_off,240,0,1,,,,,,,,0,,,,68,64
29880,note_off,480,0,3,,,,,,,,3,,,,80,64
29880,note_on,0,0,3,,,,,,,,3,,,,79,30
29880,note_off,480,0,9,,,,,,,,10,,,,77,64
29880,note_on,0,0,1,,,,,,,,0,,,,67,30
29880,note_off,240,0,1,,,,,,,,0,,,,65,64
29880,note_off,480,0,4,,,,,,,,4,,,,77,64
29880,note_on,0,0,4,,,,,,,,4,,,,76,30
29880,note_off,480,0,8,,,,,,,,8,,,,80,64
29880,note_on,0,0,9,,,,,,,,10,,,,76,30
29880,note_on,0,0,8,,,,,,,,8,,,,79,30
29880,set_tempo,480,1,0,1304347,,,,,,,,,,,,
30120,note_off,240,0,1,,,,,,,,0,,,,67,64
30120,note_on,0,0,1,,,,,,,,0,,,,64,30
30240,note_off,2760,0,10,,,,,,,,11,,,,60,64
30240,note_off,1320,0,2,,,,,,,,0,,,,40,64
30240,note_off,2760,0,6,,,,,,,,6,,,,40,64
30240,note_off,2760,0,11,,,,,,,,12,,,,40,64
30240,note_off,2760,0,12,,,,,,,,13,,,,28,64
30240,note_off,2760,0,5,,,,,,,,5,,,,60,64
30240,note_off,2760,0,7,,,,,,,,7,,,,28,64
30280,note_off,400,0,9,,,,,,,,10,,,,76,64
30280,note_off,400,0,8,,,,,,,,8,,,,79,64
30280,note_off,400,0,4,,,,,,,,4,,,,76,64
30280,note_off,400,0,3,,,,,,,,3,,,,79,64
30355,note_off,235,0,1,,,,,,,,0,,,,64,64
30360,note_on,80,0,9,,,,,,,,10,,,,77,30
30360,note_on,5,0,1,,,,,,,,0,,,,65,45
30360,note_on,120,0,6,,,,,,,,6,,,,47,30
30360,note_on,0,0,1,,,,,,,,0,,,,68,45
30360,note_on,120,0,2,,,,,,,,0,,,,47,30
30360,note_on,80,0,4,,,,,,,,4,,,,77,30
30360,note_on,120,0,5,,,,,,,,5,,,,62,30
30360,note_on,120,0,10,,,,,,,,11,,,,62,30
30360,note_on,120,0,7,,,,,,,,7,,,,35,30
30360,note_on,80,0,8,,,,,,,,8,,,,80,30
30360,set_tempo,480,1,0,1428571,,,,,,,,,,,,
30360,note_on,80,0,3,,,,,,,,3,,,,80,30
30360,note_on,120,0,12,,,,,,,,13,,,,35,30
30360,note_on,120,0,11,,,,,,,,12,,,,47,30
30480,note_on,0,0,1,,,,,,,,0,,,,64,45
30480,note_on,0,0,1,,,,,,,,0,,,,67,45
30480,set_tempo,120,1,0,1250000,,,,,,,,,,,,
30480,note_off,120,0,1,,,,,,,,0,,,,68,64
30480,note_off,0,0,1,,,,,,,,0,,,,65,64
30600,note_on,0,0,1,,,,,,,,0,,,,65,45
30600,note_on,0,0,1,,,,,,,,0,,,,62,45
30600,note_off,0,0,1,,,,,,,,0,,,,64,64
30600,note_off,120,0,1,,,,,,,,0,,,,67,64
30720,note_off,120,0,1,,,,,,,,0,,,,65,64
30720,note_on,0,0,1,,,,,,,,0,,,,67,45
30720,note_off,0,0,1,,,,,,,,0,,,,62,64
30720,note_on,0,0,1,,,,,,,,0,,,,64,45
30840,note_on,0,0,1,,,,,,,,0,,,,68,45
30840,note_off,120,0,1,,,,,,,,0,,,,67,64
30840,note_on,0,0,1,,,,,,,,0,,,,65,45
30840,note_off,0,0,1,,,,,,,,0,,,,64,64
31075,note_off,0,0,1,,,,,,,,0,,,,65,64
31075,note_off,235,0,1,,,,,,,,0,,,,68,64
31080,note_on,0,0,1,,,,,,,,0,,,,56,45
31080,set_tempo,600,1,0,1500000,,,,,,,,,,,,
31080,note_on,5,0,1,,,,,,,,0,,,,53,45
31200,note_on,0,0,1,,,,,,,,0,,,,55,43
31200,note_on,0,0,1,,,,,,,,0,,,,52,43
31200,note_off,0,0,1,,,,,,,,0,,,,53,64
31200,note_off,120,0,1,,,,,,,,0,,,,56,64
31200,set_tempo,120,1,0,1250000,,,,,,,,,,,,
31320,note_on,0,0,1,,,,,,,,0,,,,53,41
31320,note_off,0,0,1,,,,,,,,0,,,,52,64
31320,note_off,120,0,1,,,,,,,,0,,,,55,64
31320,note_on,0,0,1,,,,,,,,0,,,,50,41
31440,note_off,0,0,1,,,,,,,,0,,,,50,64
31440,note_off,120,0,1,,,,,,,,0,,,,53,64
31440,note_on,0,0,1,,,,,,,,0,,,,52,39
31440,note_on,0,0,1,,,,,,,,0,,,,55,39
31560,note_off,0,0,1,,,,,,,,0,,,,52,64
31560,note_off,120,0,1,,,,,,,,0,,,,55,64
31560,note_on,0,0,1,,,,,,,,0,,,,53,36
31560,note_on,0,0,1,,,,,,,,0,,,,56,36
31680,note_off,1320,0,2,,,,,,,,0,,,,47,64
31800,note_on,0,0,1,,,,,,,,0,,,,65,30
31800,note_off,0,0,1,,,,,,,,0,,,,53,64
31800,note_off,240,0,1,,,,,,,,0,,,,56,64
31800,set_tempo,600,1,0,1363636,,,,,,,,,,,,
31800,note_on,120,0,2,,,,,,,,0,,,,47,30
32040,note_on,0,0,1,,,,,,,,0,,,,68,30
32040,note_off,240,0,1,,,,,,,,0,,,,65,64
32280,note_on,0,0,1,,,,,,,,0,,,,64,30
32280,note_off,240,0,1,,,,,,,,0,,,,68,64
32280,set_tempo,480,1,0,1304347,,,,,,,,,,,,
32280,note_off,1920,0,3,,,,,,,,3,,,,80,64
32280,note_off,1920,0,4,,,,,,,,4,,,,77,64
32280,note_on,0,0,9,,,,,,,,10,,,,76,30
32280,note_off,1920,0,9,,,,,,,,10,,,,77,64
32280,note_on,0,0,3,,,,,,,,3,,,,79,30
32280,note_off,1920,0,8,,,,,,,,8,,,,80,64
32280,note_on,0,0,8,,,,,,,,8,,,,79,30
32280,note_on,0,0,4,,,,,,,,4,,,,76,30
32520,note_on,0,0,1,,,,,,,,0,,,,67,30
32520,note_off,240,0,1,,,,,,,,0,,,,64,64
32760,note_off,480,0,3,,,,,,,,3,,,,79,64
32760,note_on,0,0,3,,,,,,,,3,,,,77,30
32760,note_on,0,0,4,,,,,,,,4,,,,74,30
32760,note_on,0,0,9,,,,,,,,10,,,,74,30
32760,note_off,480,0,9,,,,,,,,10,,,,76,64
32760,note_off,240,0,1,,,,,,,,0,,,,67,64
32760,note_off,480,0,8,,,,,,,,8,,,,79,64
32760,note_on,0,0,8,,,,,,,,8,,,,77,30
32760,set_tempo,480,1,0,1363636,,,,,,,,,,,,
32760,note_off,480,0,4,,,,,,,,4,,,,76,64
32760,note_on,0,0,1,,,,,,,,0,,,,65,30
33000,note_off,240,0,1,,,,,,,,0,,,,65,64
33000,note_on,0,0,1,,,,,,,,0,,,,62,30
33120,note_off,2760,0,7,,,,,,,,7,,,,35,64
33120,note_off,2760,0,11,,,,,,,,12,,,,47,64
33120,note_off,1320,0,2,,,,,,,,0,,,,47,64
33120,note_off,2760,0,6,,,,,,,,6,,,,47,64
33120,note_off,2760,0,10,,,,,,,,11,,,,62,64
33120,note_off,2760,0,12,,,,,,,,13,,,,35,64
33120,note_off,2760,0,5,,,,,,,,5,,,,62,64
33160,note_off,400,0,4,,,,,,,,4,,,,74,64
33160,note_off,400,0,8,,,,,,,,8,,,,77,64
33160,note_off,400,0,9,,,,,,,,10,,,,74,64
33160,note_off,400,0,3,,,,,,,,3,,,,77,64
33235,note_off,235,0,1,,,,,,,,0,,,,62,64
33240,note_on,80,0,4,,,,,,,,4,,,,76,30
33240,note_on,80,0,8,,,,,,,,8,,,,79,30
33240,note_on,120,0,5,,,,,,,,5,,,,60,30
33240,note_on,120,0,10,,,,,,,,11,,,,60,30
33240,note_on,120,0,7,,,,,,,,7,,,,34,30
33240,note_on,80,0,9,,,,,,,,10,,,,76,30
33240,note_on,120,0,12,,,,,,,,13,,,,34,30
33240,note_on,120,0,2,,,,,,,,0,,,,46,30
33240,note_on,80,0,3,,,,,,,,3,,,,79,30
33240,set_tempo,480,1,0,1500000,,,,,,,,,,,,
33240,note_on,5,0,1,,,,,,,,0,,,,64,45
33240,note_on,120,0,11,,,,,,,,12,,,,46,30
33240,note_on,120,0,6,,,,,,,,6,,,,46,30
33240,note_on,0,0,1,,,,,,,,0,,,,67,45
33360,note_off,120,0,1,,,,,,,,0,,,,67,64
33360,set_tempo,120,1,0,1250000,,,,,,,,,,,,
33360,note_on,0,0,1,,,,,,,,0,,,,65,45
33360,note_off,0,0,1,,,,,,,,0,,,,64,64
33360,note_on,0,0,1,,,,,,,,0,,,,62,45
33480,note_off,0,0,1,,,,,,,,0,,,,62,64
33480,note_on,0,0,1,,,,,,,,0,,,,60,45
33480,note_on,0,0,1,,,,,,,,0,,,,64,45
33480,note_off,120,0,1,,,,,,,,0,,,,65,64
33600,note_on,0,0,1,,,,,,,,0,,,,65,45
33600,note_off,0,0,1,,,,,,,,0,,,,60,64
33600,note_off,120,0,1,,,,,,,,0,,,,64,64
33600,note_on,0,0,1,,,,,,,,0,,,,62,45
33720,note_off,120,0,1,,,,,,,,0,,,,65,64
33720,note_on,0,0,1,,,,,,,,0,,,,64,45
33720,note_on,0,0,1,,,,,,,,0,,,,67,45
33720,note_off,0,0,1,,,,,,,,0,,,,62,64
33955,note_off,235,0,1,,,,,,,,0,,,,67,64
33955,note_off,0,0,1,,,,,,,,0,,,,64,64
33960,note_on,5,0,1,,,,,,,,0,,,,67,42
33960,note_on,0,0,1,,,,,,,,0,,,,76,42
33960,set_tempo,600,1,0,1363636,,,,,,,,,,,,
34080,set_tempo,120,1,0,1250000,,,,,,,,,,,,
34080,note_on,0,0,1,,,,,,,,0,,,,74,40
34080,note_on,0,0,1,,,,,,,,0,,,,65,40
34080,note_off,0,0,1,,,,,,,,0,,,,67,64
34080,note_off,120,0,1,,,,,,,,0,,,,76,64
34200,note_off,0,0,1,,,,,,,,0,,,,65,64
34200,note_on,0,0,1,,,,,,,,0,,,,72,38
34200,note_on,0,0,1,,,,,,,,0,,,,64,38
34200,note_off,120,0,1,,,,,,,,0,,,,74,64
34320,note_on,0,0,1,,,,,,,,0,,,,74,36
34320,note_on,0,0,1,,,,,,,,0,,,,65,36
34320,note_off,0,0,1,,,,,,,,0,,,,64,64
34320,note_off,120,0,1,,,,,,,,0,,,,72,64
34440,note_off,0,0,1,,,,,,,,0,,,,65,64
34440,note_off,120,0,1,,,,,,,,0,,,,74,64
34440,note_on,0,0,1,,,,,,,,0,,,,67,34
34440,note_on,0,0,1,,,,,,,,0,,,,76,34
34560,note_off,1320,0,6,,,,,,,,6,,,,46,64
34560,note_off,1320,0,11,,,,,,,,12,,,,46,64
34560,note_off,1320,0,7,,,,,,,,7,,,,34,64
34560,note_off,1320,0,12,,,,,,,,13,,,,34,64
34560,note_off,1320,0,2,,,,,,,,0,,,,46,64
34680,note_on,0,0,4,,,,,,,,4,,,,75,30
34680,note_on,0,0,1,,,,,,,,0,,,,72,30
34680,note_on,120,0,11,,,,,,,,12,,,,44,30
34680,note_on,120,0,12,,,,,,,,13,,,,32,30
34680,set_tempo,600,1,0,1363636,,,,,,,,,,,,
34680,note_on,120,0,7,,,,,,,,7,,,,32,30
34680,note_off,1440,0,4,,,,,,,,4,,,,76,64
34680,note_on,120,0,2,,,,,,,,0,,,,44,30
34680,note_on,120,0,6,,,,,,,,6,,,,44,30
34680,note_off,240,0,1,,,,,,,,0,,,,76,64
34680,note_off,0,0,1,,,,,,,,0,,,,67,64
34680,note_on,0,0,9,,,,,,,,10,,,,75,30
34680,note_off,1440,0,9,,,,,,,,10,,,,76,64
34920,note_on,0,0,1,,,,,,,,0,,,,75,30
34920,note_off,240,0,1,,,,,,,,0,,,,72,64
35160,note_on,0,0,1,,,,,,,,0,,,,68,30
35160,note_off,240,0,1,,,,,,,,0,,,,75,64
35160,set_tempo,480,1,0,1304347,,,,,,,,,,,,
35400,note_off,240,0,1,,,,,,,,0,,,,68,64
35400,note_on,0,0,1,,,,,,,,0,,,,72,30
35640,note_on,0,0,1,,,,,,,,0,,,,63,30
35640,set_tempo,480,1,0,1276595,,,,,,,,,,,,
35640,note_off,240,0,1,,,,,,,,0,,,,72,64
35880,note_on,0,0,1,,,,,,,,0,,,,68,30
35880,note_off,240,0,1,,,,,,,,0,,,,63,64
36000,note_off,2760,0,8,,,,,,,,8,,,,79,64
36000,note_off,2760,0,3,,,,,,,,3,,,,79,64
36000,note_off,1320,0,2,,,,,,,,0,,,,44,64
36115,note_off,235,0,1,,,,,,,,0,,,,68,64
36120,set_tempo,480,1,0,1333333,,,,,,,,,,,,
36120,note_on,120,0,2,,,,,,,,0,,,,44,30
36120,note_on,0,0,1,,,,,,,,0,,,,68,45
36120,note_on,5,0,1,,,,,,,,0,,,,65,45
36120,note_off,2880,0,10,,,,,,,,11,,,,60,64
36120,note_on,0,0,5,,,,,,,,5,,,,68,30
36120,note_on,0,0,9,,,,,,,,10,,,,72,30
36120,note_off,2880,0,5,,,,,,,,5,,,,60,64
36120,note_on,120,0,3,,,,,,,,3,,,,77,30
36120,note_on,0,0,4,,,,,,,,4,,,,72,30
36120,note_off,1440,0,4,,,,,,,,4,,,,75,64
36120,note_on,120,0,8,,,,,,,,8,,,,77,30
36120,note_on,0,0,10,,,,,,,,11,,,,68,30
36120,note_off,1440,0,9,,,,,,,,10,,,,75,64
36240,note_off,0,0,1,,,,,,,,0,,,,65,64
36240,note_off,120,0,1,,,,,,,,0,,,,68,64
36240,note_on,0,0,1,,,,,,,,0,,,,64,45
36240,note_on,0,0,1,,,,,,,,0,,,,67,45
36240,set_tempo,120,1,0,1250000,,,,,,,,,,,,
36360,note_off,0,0,1,,,,,,,,0,,,,64,64
36360,note_on,0,0,1,,,,,,,,0,,,,62,42
36360,note_on,0,0,1,,,,,,,,0,,,,65,42
36360,note_off,120,0,1,,,,,,,,0,,,,67,64
36480,note_off,0,0,1,,,,,,,,0,,,,62,64
36480,note_on,0,0,1,,,,,,,,0,,,,64,39
36480,note_on,0,0,1,,,,,,,,0,,,,67,39
36480,note_off,120,0,1,,,,,,,,0,,,,65,64
36600,note_on,0,0,1,,,,,,,,0,,,,65,36
36600,note_off,120,0,1,,,,,,,,0,,,,67,64
36600,note_off,0,0,1,,,,,,,,0,,,,64,64
36600,note_on,0,0,1,,,,,,,,0,,,,68,36
36840,set_tempo,600,1,0,1363636,,,,,,,,,,,,
36840,note_off,240,0,1,,,,,,,,0,,,,68,64
36840,note_off,0,0,1,,,,,,,,0,,,,65,64
36840,note_on,0,0,1,,,,,,,,0,,,,62,30
37080,note_on,0,0,1,,,,,,,,0,,,,65,30
37080,note_off,240,0,1,,,,,,,,0,,,,62,64
37320,note_on,0,0,1,,,,,,,,0,,,,68,30
37320,note_off,240,0,1,,,,,,,,0,,,,65,64
37440,note_off,1320,0,10,,,,,,,,11,,,,68,64
37440,note_off,2760,0,12,,,,,,,,13,,,,32,64
37440,note_off,2760,0,6,,,,,,,,6,,,,44,64
37440,note_off,1320,0,4,,,,,,,,4,,,,72,64
37440,note_off,1320,0,5,,,,,,,,5,,,,68,64
37440,note_off,1320,0,9,,,,,,,,10,,,,72,64
37440,note_off,2760,0,11,,,,,,,,12,,,,44,64
37440,note_off,1320,0,2,,,,,,,,0,,,,44,64
37440,note_off,2760,0,7,,,,,,,,7,,,,32,64
37560,note_on,120,0,6,,,,,,,,6,,,,43,30
37560,note_on,120,0,10,,,,,,,,11,,,,59,30
37560,note_on,120,0,4,,,,,,,,4,,,,74,30
37560,note_on,120,0,5,,,,,,,,5,,,,59,30
37560,note_on,120,0,9,,,,,,,,10,,,,74,30
37560,note_on,120,0,12,,,,,,,,13,,,,31,30
37560,note_off,240,0,1,,,,,,,,0,,,,68,64
37560,set_tempo,720,1,0,1304347,,,,,,,,,,,,
37560,note_on,120,0,7,,,,,,,,7,,,,31,30
37560,note_on,0,0,1,,,,,,,,0,,,,74,30
37560,note_on,120,0,2,,,,,,,,0,,,,43,30
37560,note_on,120,0,11,,,,,,,,12,,,,43,30
37800,note_on,0,0,1,,,,,,,,0,,,,77,30
37800,note_off,240,0,1,,,,,,,,0,,,,74,64
38040,note_on,0,0,1,,,,,,,,0,,,,71,30
38040,set_tempo,480,1,0,1250000,,,,,,,,,,,,
38040,note_off,240,0,1,,,,,,,,0,,,,77,64
38280,note_off,240,0,1,,,,,,,,0,,,,71,64
38280,note_on,0,0,1,,,,,,,,0,,,,74,30
38520,set_tempo,480,1,0,1304347,,,,,,,,,,,,
38520,note_off,240,0,1,,,,,,,,0,,,,74,64
38520,note_on,0,0,1,,,,,,,,0,,,,65,30
38760,note_off,240,0,1,,,,,,,,0,,,,65,64
38760,note_on,0,0,1,,,,,,,,0,,,,71,30
38880,note_off,1320,0,2,,,,,,,,0,,,,43,64
39000,set_tempo,480,1,0,1363636,,,,,,,,,,,,
39000,note_off,240,0,1,,,,,,,,0,,,,71,64
39000,note_on,0,0,1,,,,,,,,0,,,,74,30
39000,note_on,120,0,2,,,,,,,,0,,,,43,30
39240,note_on,0,0,1,,,,,,,,0,,,,65,30
39240,note_off,240,0,1,,,,,,,,0,,,,74,64
39480,note_off,1920,0,9,,,,,,,,10,,,,74,64
39480,note_on,0,0,9,,,,,,,,10,,,,72,30
39480,note_off,1920,0,4,,,,,,,,4,,,,74,64
39480,note_on,0,0,4,,,,,,,,4,,,,72,30
39480,note_off,240,0,1,,,,,,,,0,,,,65,64
39480,note_on,0,0,3,,,,,,,,3,,,,76,30
39480,note_off,3360,0,3,,,,,,,,3,,,,77,64
39480,note_on,0,0,1,,,,,,,,0,,,,72,30
39480,note_off,3360,0,8,,,,,,,,8,,,,77,64
39480,set_tempo,480,1,0,1304347,,,,,,,,,,,,
39480,note_on,0,0,8,,,,,,,,8,,,,76,30
39720,note_off,240,0,1,,,,,,,,0,,,,72,64
39720,note_on,0,0,1,,,,,,,,0,,,,64,30
39960,note_off,480,0,3,,,,,,,,3,,,,76,64
39960,note_off,240,0,1,,,,,,,,0,,,,64,64
39960,note_on,0,0,9,,,,,,,,10,,,,71,30
39960,note_off,480,0,9,,,,,,,,10,,,,72,64
39960,note_on,0,0,4,,,,,,,,4,,,,71,30
39960,note_off,480,0,4,,,,,,,,4,,,,72,64
39960,note_on,0,0,3,,,,,,,,3,,,,74,30
39960,note_on,0,0,8,,,,,,,,8,,,,74,30
39960,set_tempo,480,1,0,1250000,,,,,,,,,,,,
39960,note_off,480,0,8,,,,,,,,8,,,,76,64
39960,note_on,0,0,1,,,,,,,,0,,,,71,30
40200,note_off,240,0,1,,,,,,,,0,,,,71,64
40200,note_on,0,0,1,,,,,,,,0,,,,62,30
40320,note_off,2760,0,5,,,,,,,,5,,,,59,64
40320,note_off,2760,0,10,,,,,,,,11,,,,59,64
40320,note_off,1320,0,2,,,,,,,,0,,,,43,64
40360,note_off,400,0,9,,,,,,,,10,,,,71,64
40360,note_off,400,0,4,,,,,,,,4,,,,71,64
40360,note_off,400,0,3,,,,,,,,3,,,,74,64
40360,note_off,400,0,8,,,,,,,,8,,,,74,64
40435,note_off,235,0,1,,,,,,,,0,,,,62,64
40440,note_on,80,0,9,,,,,,,,10,,,,73,30
40440,note_on,5,0,1,,,,,,,,0,,,,73,45
40440,note_on,120,0,10,,,,,,,,11,,,,69,30
40440,note_on,120,0,2,,,,,,,,0,,,,43,30
40440,set_tempo,480,1,0,1428571,,,,,,,,,,,,
40440,note_on,0,0,1,,,,,,,,0,,,,76,45
40440,note_on,80,0,3,,,,,,,,3,,,,76,30
40440,note_on,80,0,4,,,,,,,,4,,,,73,30
40440,note_on,120,0,5,,,,,,,,5,,,,69,30
40440,note_on,80,0,8,,,,,,,,8,,,,76,30
40560,note_on,0,0,1,,,,,,,,0,,,,71,45
40560,note_on,0,0,1,,,,,,,,0,,,,74,45
40560,note_off,0,0,1,,,,,,,,0,,,,73,64
40560,note_off,120,0,1,,,,,,,,0,,,,76,64
40560,set_tempo,120,1,0,1250000,,,,,,,,,,,,
40680,note_off,120,0,1,,,,,,,,0,,,,74,64
40680,note_off,0,0,1,,,,,,,,0,,,,71,64
40680,note_on,0,0,1,,,,,,,,0,,,,69,44
40680,note_on,0,0,1,,,,,,,,0,,,,73,44
40800,note_on,0,0,1,,,,,,,,0,,,,71,43
40800,note_on,0,0,1,,,,,,,,0,,,,74,43
40800,note_off,0,0,1,,,,,,,,0,,,,69,64
40800,note_off,120,0,1,,,,,,,,0,,,,73,64
40920,note_on,0,0,1,,,,,,,,0,,,,76,42
40920,note_on,0,0,1,,,,,,,,0,,,,73,42
40920,note_off,0,0,1,,,,,,,,0,,,,71,64
40920,note_off,120,0,1,,,,,,,,0,,,,74,64
41155,note_off,235,0,1,,,,,,,,0,,,,76,64
41155,note_off,0,0,1,,,,,,,,0,,,,73,64
41160,note_on,0,0,1,,,,,,,,0,,,,64,39
41160,set_tempo,600,1,0,1363636,,,,,,,,,,,,
41160,note_on,5,0,1,,,,,,,,0,,,,61,39
41275,note_off,115,0,1,,,,,,,,0,,,,64,64
41275,note_off,0,0,1,,,,,,,,0,,,,61,64
41280,note_on,5,0,1,,,,,,,,0,,,,59,38
41280,note_on,0,0,1,,,,,,,,0,,,,62,38
41280,set_tempo,120,1,0,1250000,,,,,,,,,,,,
41400,note_off,120,0,1,,,,,,,,0,,,,62,64
41400,note_off,0,0,1,,,,,,,,0,,,,59,64
41400,note_on,0,0,1,,,,,,,,0,,,,57,37
41400,note_on,0,0,1,,,,,,,,0,,,,61,37
41520,note_off,120,0,1,,,,,,,,0,,,,61,64
41520,note_off,0,0,1,,,,,,,,0,,,,57,64
41520,note_on,0,0,1,,,,,,,,0,,,,59,36
41520,note_on,0,0,1,,,,,,,,0,,,,62,36
41640,note_on,0,0,1,,,,,,,,0,,,,61,34
41640,note_off,0,0,1,,,,,,,,0,,,,59,64
41640,note_on,0,0,1,,,,,,,,0,,,,64,34
41640,note_off,120,0,1,,,,,,,,0,,,,62,64
41760,note_off,4200,0,12,,,,,,,,13,,,,31,64
41760,note_off,1320,0,2,,,,,,,,0,,,,43,64
41760,note_off,4200,0,11,,,,,,,,12,,,,43,64
41760,note_off,4200,0,6,,,,,,,,6,,,,43,64
41760,note_off,4200,0,7,,,,,,,,7,,,,31,64
41880,set_tempo,600,1,0,1304347,,,,,,,,,,,,
41880,note_on,120,0,7,,,,,,,,7,,,,32,30
41880,note_off,1440,0,10,,,,,,,,11,,,,69,64
41880,note_on,0,0,10,,,,,,,,11,,,,71,30
41880,note_on,120,0,12,,,,,,,,13,,,,32,30
41880,note_off,240,0,1,,,,,,,,0,,,,64,64
41880,note_on,120,0,2,,,,,,,,0,,,,44,30
41880,note_off,0,0,1,,,,,,,,0,,,,61,64
41880,note_on,0,0,1,,,,,,,,0,,,,65,30
41880,note_off,1440,0,5,,,,,,,,5,,,,69,64
41880,note_on,120,0,11,,,,,,,,12,,,,44,30
41880,note_on,0,0,8,,,,,,,,8,,,,77,30
41880,note_off,1440,0,3,,,,,,,,3,,,,76,64
41880,note_on,0,0,5,,,,,,,,5,,,,71,30
41880,note_on,120,0,6,,,,,,,,6,,,,44,30
41880,note_on,0,0,4,,,,,,,,4,,,,74,30
41880,note_off,1440,0,4,,,,,,,,4,,,,73,64
41880,note_off,1440,0,9,,,,,,,,10,,,,73,64
41880,note_on,0,0,9,,,,,,,,10,,,,74,30
41880,note_off,1440,0,8,,,,,,,,8,,,,76,64
41880,note_on,0,0,3,,,,,,,,3,,,,77,30
42120,note_on,0,0,1,,,,,,,,0,,,,71,30
42120,note_off,240,0,1,,,,,,,,0,,,,65,64
42360,set_tempo,480,1,0,1363636,,,,,,,,,,,,
42360,note_on,0,0,1,,,,,,,,0,,,,62,30
42360,note_off,240,0,1,,,,,,,,0,,,,71,64
42600,note_on,0,0,1,,,,,,,,0,,,,65,30
42600,note_off,240,0,1,,,,,,,,0,,,,62,64
42840,note_off,240,0,1,,,,,,,,0,,,,65,64
42840,note_on,0,0,1,,,,,,,,0,,,,71,30
42840,set_tempo,480,1,0,1304347,,,,,,,,,,,,
43080,note_on,0,0,1,,,,,,,,0,,,,65,30
43080,note_off,240,0,1,,,,,,,,0,,,,71,64
43200,note_off,1320,0,7,,,,,,,,7,,,,32,64
43200,note_off,1320,0,11,,,,,,,,12,,,,44,64
43200,note_off,1320,0,2,,,,,,,,0,,,,44,64
43200,note_off,1320,0,3,,,,,,,,3,,,,77,64
43200,note_off,1320,0,8,,,,,,,,8,,,,77,64
43200,note_off,1320,0,9,,,,,,,,10,,,,74,64
43200,note_off,1320,0,4,,,,,,,,4,,,,74,64
43200,note_off,1320,0,10,,,,,,,,11,,,,71,64
43200,note_off,1320,0,12,,,,,,,,13,,,,32,64
43200,note_off,1320,0,6,,,,,,,,6,,,,44,64
43200,note_off,1320,0,5,,,,,,,,5,,,,71,64
43320,note_on,120,0,9,,,,,,,,10,,,,73,30
43320,note_on,120,0,5,,,,,,,,5,,,,69,30
43320,note_off,240,0,1,,,,,,,,0,,,,65,64
43320,note_on,0,0,1,,,,,,,,0,,,,64,30
43320,note_on,120,0,8,,,,,,,,8,,,,76,30
43320,note_on,120,0,6,,,,,,,,6,,,,45,30
43320,note_on,120,0,10,,,,,,,,11,,,,69,30
43320,note_on,120,0,7,,,,,,,,7,,,,33,30
43320,note_on,120,0,11,,,,,,,,12,,,,45,30
43320,note_on,120,0,2,,,,,,,,0,,,,45,30
43320,note_on,120,0,3,,,,,,,,3,,,,76,30
43320,set_tempo,480,1,0,1250000,,,,,,,,,,,,
43320,note_on,120,0,12,,,,,,,,13,,,,33,30
43320,note_on,120,0,4,,,,,,,,4,,,,73,30
43560,note_on,0,0,1,,,,,,,,0,,,,73,30
43560,note_off,240,0,1,,,,,,,,0,,,,64,64
43800,note_off,480,0,8,,,,,,,,8,,,,76,64
43800,note_on,0,0,1,,,,,,,,0,,,,65,30
43800,note_off,240,0,1,,,,,,,,0,,,,73,64
43800,note_on,0,0,3,,,,,,,,3,,,,77,30
43800,note_off,480,0,4,,,,,,,,4,,,,73,64
43800,note_on,0,0,4,,,,,,,,4,,,,74,30
43800,note_on,0,0,9,,,,,,,,10,,,,74,30
43800,note_off,480,0,9,,,,,,,,10,,,,73,64
43800,set_tempo,480,1,0,1304347,,,,,,,,,,,,
43800,note_on,0,0,8,,,,,,,,8,,,,77,30
43800,note_off,480,0,3,,,,,,,,3,,,,76,64
44040,note_off,240,0,1,,,,,,,,0,,,,65,64
44040,note_on,0,0,1,,,,,,,,0,,,,74,30
44280,note_off,240,0,1,,,,,,,,0,,,,74,64
44280,set_tempo,480,1,0,1363636,,,,,,,,,,,,
44280,note_on,0,0,1,,,,,,,,0,,,,67,30
44280,note_on,0,0,9,,,,,,,,10,,,,76,30
44280,note_off,480,0,4,,,,,,,,4,,,,74,64
44280,note_off,480,0,9,,,,,,,,10,,,,74,64
44280,note_off,480,0,8,,,,,,,,8,,,,77,64
44280,note_on,0,0,3,,,,,,,,3,,,,79,30
44280,note_off,480,0,3,,,,,,,,3,,,,77,64
44280,note_on,0,0,8,,,,,,,,8,,,,79,30
44280,note_on,0,0,4,,,,,,,,4,,,,76,30
44520,note_on,0,0,1,,,,,,,,0,,,,76,30
44520,note_off,240,0,1,,,,,,,,0,,,,67,64
44640,note_off,1320,0,2,,,,,,,,0,,,,45,64
44760,note_on,120,0,2,,,,,,,,0,,,,45,30
44760,note_off,240,0,1,,,,,,,,0,,,,76,64
44760,note_off,480,0,4,,,,,,,,4,,,,76,64
44760,set_tempo,480,1,0,1304347,,,,,,,,,,,,
44760,note_off,480,0,3,,,,,,,,3,,,,79,64
44760,note_on,0,0,3,,,,,,,,3,,,,81,30
44760,note_on,0,0,4,,,,,,,,4,,,,77,30
44760,note_off,480,0,8,,,,,,,,8,,,,79,64
44760,note_on,0,0,8,,,,,,,,8,,,,81,30
44760,note_off,480,0,9,,,,,,,,10,,,,76,64
44760,note_on,0,0,9,,,,,,,,10,,,,77,30
44760,note_on,0,0,1,,,,,,,,0,,,,77,30
45000,note_off,240,0,1,,,,,,,,0,,,,77,64
45000,note_on,0,0,1,,,,,,,,0,,,,81,30
45240,note_on,0,0,1,,,,,,,,0,,,,74,30
45240,set_tempo,480,1,0,1250000,,,,,,,,,,,,
45240,note_off,240,0,1,,,,,,,,0,,,,81,64
45480,note_off,240,0,1,,,,,,,,0,,,,74,64
45480,note_on,0,0,1,,,,,,,,0,,,,77,30
45720,note_on,0,0,1,,,,,,,,0,,,,69,30
45720,note_off,240,0,1,,,,,,,,0,,,,77,64
45720,set_tempo,480,1,0,1304347,,,,,,,,,,,,
45960,note_off,240,0,1,,,,,,,,0,,,,69,64
45960,note_on,0,0,1,,,,,,,,0,,,,74,30
46080,note_off,1320,0,9,,,,,,,,10,,,,77,64
46080,note_off,1320,0,8,,,,,,,,8,,,,81,64
46080,note_off,2760,0,10,,,,,,,,11,,,,69,64
46080,note_off,1320,0,3,,,,,,,,3,,,,81,64
46080,note_off,1320,0,2,,,,,,,,0,,,,45,64
46080,note_off,1320,0,4,,,,,,,,4,,,,77,64
46080,note_off,2760,0,5,,,,,,,,5,,,,69,64
46200,note_on,120,0,2,,,,,,,,0,,,,45,30
46200,note_on,120,0,5,,,,,,,,5,,,,73,30
46200,note_on,0,0,1,,,,,,,,0,,,,76,30
46200,note_on,120,0,8,,,,,,,,8,,,,79,30
46200,note_on,120,0,10,,,,,,,,11,,,,73,30
46200,note_on,120,0,3,,,,,,,,3,,,,79,30
46200,note_on,120,0,9,,,,,,,,10,,,,76,30
46200,note_on,120,0,4,,,,,,,,4,,,,76,30
46200,set_tempo,480,1,0,1250000,,,,,,,,,,,,
46200,note_off,240,0,1,,,,,,,,0,,,,74,64
46440,note_off,240,0,1,,,,,,,,0,,,,76,64
46440,note_on,0,0,1,,,,,,,,0,,,,79,30
46680,note_on,0,0,1,,,,,,,,0,,,,73,30
46680,note_off,240,0,1,,,,,,,,0,,,,79,64
46680,set_tempo,480,1,0,1304347,,,,,,,,,,,,
46920,note_off,240,0,1,,,,,,,,0,,,,73,64
46920,note_on,0,0,1,,,,,,,,0,,,,76,30
47160,note_off,240,0,1,,,,,,,,0,,,,76,64
47160,note_on,0,0,1,,,,,,,,0,,,,67,30
47160,set_tempo,480,1,0,1363636,,,,,,,,,,,,
47400,note_off,240,0,1,,,,,,,,0,,,,67,64
47400,note_on,0,0,1,,,,,,,,0,,,,73,30
47520,note_off,1320,0,2,,,,,,,,0,,,,45,64
47640,note_on,0,0,5,,,,,,,,5,,,,69,30
47640,note_off,240,0,1,,,,,,,,0,,,,73,64
47640,note_on,0,0,1,,,,,,,,0,,,,74,30
47640,set_tempo,480,1,0,1428571,,,,,,,,,,,,
47640,note_off,1440,0,4,,,,,,,,4,,,,76,64
47640,note_on,0,0,4,,,,,,,,4,,,,74,30
47640,note_on,0,0,10,,,,,,,,11,,,,69,30
47640,note_off,1440,0,9,,,,,,,,10,,,,76,64
47640,note_on,0,0,9,,,,,,,,10,,,,74,30
47640,note_on,0,0,3,,,,,,,,3,,,,77,30
47640,note_off,1440,0,3,,,,,,,,3,,,,79,64
47640,note_on,120,0,2,,,,,,,,0,,,,45,30
47640,note_off,1440,0,10,,,,,,,,11,,,,73,64
47640,note_on,0,0,8,,,,,,,,8,,,,77,30
47640,note_off,1440,0,5,,,,,,,,5,,,,73,64
47640,note_off,1440,0,8,,,,,,,,8,,,,79,64
47880,note_off,240,0,1,,,,,,,,0,,,,74,64
47880,note_on,0,0,1,,,,,,,,0,,,,77,30
48120,note_off,240,0,1,,,,,,,,0,,,,77,64
48120,note_on,0,0,1,,,,,,,,0,,,,69,30
48120,set_tempo,480,1,0,1363636,,,,,,,,,,,,
48360,note_off,240,0,1,,,,,,,,0,,,,69,64
48360,note_on,0,0,1,,,,,,,,0,,,,74,30
48600,note_on,0,0,1,,,,,,,,0,,,,65,30
48600,note_off,240,0,1,,,,,,,,0,,,,74,64
48600,set_tempo,480,1,0,1304347,,,,,,,,,,,,
48840,note_on,0,0,1,,,,,,,,0,,,,69,30
48840,note_off,240,0,1,,,,,,,,0,,,,65,64
48960,note_off,1320,0,8,,,,,,,,8,,,,77,64
48960,note_off,1320,0,4,,,,,,,,4,,,,74,64
48960,note_off,1320,0,9,,,,,,,,10,,,,74,64
48960,note_off,1320,0,3,,,,,,,,3,,,,77,64
48960,note_off,1320,0,2,,,,,,,,0,,,,45,64
49075,note_off,235,0,1,,,,,,,,0,,,,69,64
49080,note_on,5,0,1,,,,,,,,0,,,,73,45
49080,note_on,120,0,9,,,,,,,,10,,,,73,30
49080,note_on,120,0,8,,,,,,,,8,,,,76,30
49080,note_on,120,0,2,,,,,,,,0,,,,45,30
49080,note_on,0,0,1,,,,,,,,0,,,,76,45
49080,set_tempo,480,1,0,1428571,,,,,,,,,,,,
49080,note_on,120,0,4,,,,,,,,4,,,,73,30
49080,note_on,120,0,3,,,,,,,,3,,,,76,30
49200,note_off,0,0,1,,,,,,,,0,,,,73,64
49200,note_on,0,0,1,,,,,,,,0,,,,74,45
49200,note_on,0,0,1,,,,,,,,0,,,,71,45
49200,note_off,120,0,1,,,,,,,,0,,,,76,64
49200,set_tempo,120,1,0,1250000,,,,,,,,,,,,
49320,note_off,120,0,1,,,,,,,,0,,,,74,64
49320,note_off,0,0,1,,,,,,,,0,,,,71,64
49320,note_on,0,0,1,,,,,,,,0,,,,69,44
49320,note_on,0,0,1,,,,,,,,0,,,,73,44
49440,note_on,0,0,1,,,,,,,,0,,,,74,43
49440,note_on,0,0,1,,,,,,,,0,,,,71,43
49440,note_off,120,0,1,,,,,,,,0,,,,73,64
49440,note_off,0,0,1,,,,,,,,0,,,,69,64
49560,note_on,0,0,1,,,,,,,,0,,,,76,42
49560,note_on,0,0,1,,,,,,,,0,,,,73,42
49560,note_off,0,0,1,,,,,,,,0,,,,71,64
49560,note_off,120,0,1,,,,,,,,0,,,,74,64
49795,note_off,0,0,1,,,,,,,,0,,,,73,64
49795,note_off,235,0,1,,,,,,,,0,,,,76,64
49800,set_tempo,600,1,0,1333333,,,,,,,,,,,,
49800,note_on,5,0,1,,,,,,,,0,,,,61,39
49800,note_on,0,0,1,,,,,,,,0,,,,64,39
49915,note_off,115,0,1,,,,,,,,0,,,,64,64
49915,note_off,0,0,1,,,,,,,,0,,,,61,64
49920,note_on,5,0,1,,,,,,,,0,,,,59,38
49920,set_tempo,120,1,0,1250000,,,,,,,,,,,,
49920,note_on,0,0,1,,,,,,,,0,,,,62,38
50040,note_on,0,0,1,,,,,,,,0,,,,61,37
50040,note_on,0,0,1,,,,,,,,0,,,,57,37
50040,note_off,0,0,1,,,,,,,,0,,,,59,64
50040,note_off,120,0,1,,,,,,,,0,,,,62,64
50160,note_on,0,0,1,,,,,,,,0,,,,59,36
50160,note_off,0,0,1,,,,,,,,0,,,,57,64
50160,note_off,120,0,1,,,,,,,,0,,,,61,64
50160,note_on,0,0,1,,,,,,,,0,,,,62,36
50280,note_off,120,0,1,,,,,,,,0,,,,62,64
50280,note_on,0,0,1,,,,,,,,0,,,,64,34
50280,note_on,0,0,1,,,,,,,,0,,,,61,34
50280,note_off,0,0,1,,,,,,,,0,,,,59,64
50400,note_off,1320,0,2,,,,,,,,0,,,,45,64
50520,note_on,0,0,1,,,,,,,,0,,,,65,30
50520,note_off,0,0,1,,,,,,,,0,,,,61,64
50520,note_off,240,0,1,,,,,,,,0,,,,64,64
50520,note_off,1440,0,8,,,,,,,,8,,,,76,64
50520,note_on,0,0,8,,,,,,,,8,,,,77,30
50520,note_on,120,0,2,,,,,,,,0,,,,45,30
50520,note_on,0,0,9,,,,,,,,10,,,,74,30
50520,note_on,0,0,3,,,,,,,,3,,,,77,30
50520,note_off,1440,0,3,,,,,,,,3,,,,76,64
50520,note_off,1440,0,9,,,,,,,,10,,,,73,64
50520,note_off,1440,0,4,,,,,,,,4,,,,73,64
50520,set_tempo,600,1,0,1304347,,,,,,,,,,,,
50520,note_on,0,0,4,,,,,,,,4,,,,74,30
50760,note_on,0,0,1,,,,,,,,0,,,,69,30
50760,note_off,240,0,1,,,,,,,,0,,,,65,64
51000,note_on,0,0,1,,,,,,,,0,,,,74,30
51000,set_tempo,480,1,0,1363636,,,,,,,,,,,,
51000,note_off,240,0,1,,,,,,,,0,,,,69,64
51240,note_on,0,0,1,,,,,,,,0,,,,69,30
51240,note_off,240,0,1,,,,,,,,0,,,,74,64
51480,note_on,0,0,1,,,,,,,,0,,,,65,30
51480,note_off,240,0,1,,,,,,,,0,,,,69,64
51480,set_tempo,480,1,0,1304347,,,,,,,,,,,,
51720,note_on,0,0,1,,,,,,,,0,,,,62,30
51720,note_off,240,0,1,,,,,,,,0,,,,65,64
51840,note_off,4200,0,5,,,,,,,,5,,,,69,64
51840,note_off,1320,0,2,,,,,,,,0,,,,45,64
51840,note_off,4200,0,10,,,,,,,,11,,,,69,64
51955,note_off,235,0,1,,,,,,,,0,,,,62,64
51960,note_on,0,0,3,,,,,,,,3,,,,79,30
51960,note_off,1440,0,4,,,,,,,,4,,,,74,64
51960,note_on,120,0,5,,,,,,,,5,,,,73,30
51960,note_on,0,0,4,,,,,,,,4,,,,76,30
51960,note_off,1440,0,9,,,,,,,,10,,,,74,64
51960,note_on,0,0,9,,,,,,,,10,,,,76,30
51960,note_off,1440,0,8,,,,,,,,8,,,,77,64
51960,note_on,0,0,8,,,,,,,,8,,,,79,30
51960,note_on,120,0,10,,,,,,,,11,,,,73,30
51960,note_on,120,0,2,,,,,,,,0,,,,45,30
51960,note_off,1440,0,3,,,,,,,,3,,,,77,64
51960,set_tempo,480,1,0,1500000,,,,,,,,,,,,
52200,note_on,245,0,1,,,,,,,,0,,,,64,30
52440,note_off,240,0,1,,,,,,,,0,,,,64,64
52440,note_on,0,0,1,,,,,,,,0,,,,67,30
52440,set_tempo,480,1,0,1363636,,,,,,,,,,,,
52680,note_off,240,0,1,,,,,,,,0,,,,67,64
52680,note_on,0,0,1,,,,,,,,0,,,,73,30
52920,note_off,240,0,1,,,,,,,,0,,,,73,64
52920,note_on,0,0,1,,,,,,,,0,,,,67,30
52920,set_tempo,480,1,0,1304347,,,,,,,,,,,,
53160,note_off,240,0,1,,,,,,,,0,,,,67,64
53160,note_on,0,0,1,,,,,,,,0,,,,64,30
53280,note_off,1320,0,4,,,,,,,,4,,,,76,64
53280,note_off,1320,0,2,,,,,,,,0,,,,45,64
53280,note_off,1320,0,8,,,,,,,,8,,,,79,64
53280,note_off,1320,0,9,,,,,,,,10,,,,76,64
53280,note_off,1320,0,3,,,,,,,,3,,,,79,64
53395,note_off,235,0,1,,,,,,,,0,,,,64,64
53400,note_off,1440,0,5,,,,,,,,5,,,,73,64
53400,note_on,120,0,4,,,,,,,,4,,,,74,30
53400,note_on,0,0,10,,,,,,,,11,,,,69,30
53400,note_on,120,0,9,,,,,,,,10,,,,74,30
53400,set_tempo,480,1,0,1500000,,,,,,,,,,,,
53400,note_on,0,0,1,,,,,,,,0,,,,65,45
53400,note_on,120,0,8,,,,,,,,8,,,,77,30
53400,note_off,1440,0,10,,,,,,,,11,,,,73,64
53400,note_on,120,0,2,,,,,,,,0,,,,45,30
53400,note_on,5,0,1,,,,,,,,0,,,,62,45
53400,note_on,120,0,3,,,,,,,,3,,,,77,30
53400,note_on,0,0,5,,,,,,,,5,,,,69,30
53520,note_off,120,0,1,,,,,,,,0,,,,65,64
53520,set_tempo,120,1,0,1250000,,,,,,,,,,,,
53520,note_on,0,0,1,,,,,,,,0,,,,61,45
53520,note_on,0,0,1,,,,,,,,0,,,,64,45
53520,note_off,0,0,1,,,,,,,,0,,,,62,64
53640,note_off,120,0,1,,,,,,,,0,,,,64,64
53640,note_off,0,0,1,,,,,,,,0,,,,61,64
53640,note_on,0,0,1,,,,,,,,0,,,,59,44
53640,note_on,0,0,1,,,,,,,,0,,,,62,44
53760,note_on,0,0,1,,,,,,,,0,,,,61,43
53760,note_on,0,0,1,,,,,,,,0,,,,64,43
53760,note_off,120,0,1,,,,,,,,0,,,,62,64
53760,note_off,0,0,1,,,,,,,,0,,,,59,64
53880,note_off,120,0,1,,,,,,,,0,,,,64,64
53880,note_off,0,0,1,,,,,,,,0,,,,61,64
53880,note_on,0,0,1,,,,,,,,0,,,,62,42
53880,note_on,0,0,1,,,,,,,,0,,,,65,42
54115,note_off,235,0,1,,,,,,,,0,,,,65,64
54115,note_off,0,0,1,,,,,,,,0,,,,62,64
54120,set_tempo,600,1,0,1363636,,,,,,,,,,,,
54120,note_on,5,0,1,,,,,,,,0,,,,74,39
54120,note_on,0,0,1,,,,,,,,0,,,,77,39
54240,set_tempo,120,1,0,1250000,,,,,,,,,,,,
54240,note_on,0,0,1,,,,,,,,0,,,,73,38
54240,note_off,0,0,1,,,,,,,,0,,,,74,64
54240,note_on,0,0,1,,,,,,,,0,,,,76,38
54240,note_off,120,0,1,,,,,,,,0,,,,77,64
54360,note_off,120,0,1,,,,,,,,0,,,,76,64
54360,note_off,0,0,1,,,,,,,,0,,,,73,64
54360,note_on,0,0,1,,,,,,,,0,,,,71,37
54360,note_on,0,0,1,,,,,,,,0,,,,74,37
54480,note_off,0,0,1,,,,,,,,0,,,,71,64
54480,note_off,120,0,1,,,,,,,,0,,,,74,64
54480,note_on,0,0,1,,,,,,,,0,,,,73,36
54480,note_on,0,0,1,,,,,,,,0,,,,76,36
54600,note_on,0,0,1,,,,,,,,0,,,,77,34
54600,note_off,120,0,1,,,,,,,,0,,,,76,64
54600,note_off,0,0,1,,,,,,,,0,,,,73,64
54600,note_on,0,0,1,,,,,,,,0,,,,74,34
54720,note_off,1320,0,2,,,,,,,,0,,,,45,64
54840,note_on,120,0,2,,,,,,,,0,,,,45,30
54840,note_on,0,0,1,,,,,,,,0,,,,76,30
54840,note_off,0,0,1,,,,,,,,0,,,,74,64
54840,set_tempo,600,1,0,1363636,,,,,,,,,,,,
54840,note_on,0,0,3,,,,,,,,3,,,,76,30
54840,note_on,0,0,9,,,,,,,,10,,,,73,30
54840,note_off,1440,0,9,,,,,,,,10,,,,74,64
54840,note_off,1440,0,3,,,,,,,,3,,,,77,64
54840,note_off,1440,0,8,,,,,,,,8,,,,77,64
54840,note_on,0,0,8,,,,,,,,8,,,,76,30
54840,note_on,0,0,4,,,,,,,,4,,,,73,30
54840,note_off,240,0,1,,,,,,,,0,,,,77,64
54840,note_off,1440,0,4,,,,,,,,4,,,,74,64
55080,note_off,240,0,1,,,,,,,,0,,,,76,64
55080,note_on,0,0,1,,,,,,,,0,,,,73,30
55320,set_tempo,480,1,0,1304347,,,,,,,,,,,,
55320,note_off,240,0,1,,,,,,,,0,,,,73,64
55320,note_on,0,0,1,,,,,,,,0,,,,69,30
55560,note_on,0,0,1,,,,,,,,0,,,,73,30
55560,note_off,240,0,1,,,,,,,,0,,,,69,64
55800,note_on,0,0,1,,,,,,,,0,,,,76,30
55800,note_off,240,0,1,,,,,,,,0,,,,73,64
55800,set_tempo,480,1,0,1250000,,,,,,,,,,,,
56040,note_off,240,0,1,,,,,,,,0,,,,76,64
56040,note_on,0,0,1,,,,,,,,0,,,,73,30
56160,note_off,1320,0,8,,,,,,,,8,,,,76,64
56160,note_off,1320,0,2,,,,,,,,0,,,,45,64
56160,note_off,1320,0,4,,,,,,,,4,,,,73,64
56160,note_off,1320,0,3,,,,,,,,3,,,,76,64
56160,note_off,1320,0,9,,,,,,,,10,,,,73,64
56280,note_on,120,0,4,,,,,,,,4,,,,74,30
56280,note_on,120,0,9,,,,,,,,10,,,,74,30
56280,note_on,120,0,2,,,,,,,,0,,,,45,30
56280,set_tempo,480,1,0,1363636,,,,,,,,,,,,
56280,note_on,120,0,3,,,,,,,,3,,,,77,30
56280,note_on,0,0,1,,,,,,,,0,,,,77,30
56280,note_off,240,0,1,,,,,,,,0,,,,73,64
56280,note_on,120,0,8,,,,,,,,8,,,,77,30
56520,note_off,240,0,1,,,,,,,,0,,,,77,64
56520,note_on,0,0,1,,,,,,,,0,,,,74,30
56760,note_on,0,0,1,,,,,,,,0,,,,69,30
56760,note_off,240,0,1,,,,,,,,0,,,,74,64
56760,set_tempo,480,1,0,1224489,,,,,,,,,,,,
57000,note_on,0,0,1,,,,,,,,0,,,,74,30
57000,note_off,240,0,1,,,,,,,,0,,,,69,64
57240,set_tempo,480,1,0,1304347,,,,,,,,,,,,
57240,note_off,240,0,1,,,,,,,,0,,,,74,64
57240,note_on,0,0,1,,,,,,,,0,,,,77,30
57480,note_on,0,0,1,,,,,,,,0,,,,74,30
57480,note_off,240,0,1,,,,,,,,0,,,,77,64
57600,note_off,1320,0,2,,,,,,,,0,,,,45,64
57600,note_off,4200,0,10,,,,,,,,11,,,,69,64
57600,note_off,4200,0,5,,,,,,,,5,,,,69,64
57720,set_tempo,480,1,0,1363636,,,,,,,,,,,,
57720,note_on,120,0,5,,,,,,,,5,,,,68,30
57720,note_on,0,0,8,,,,,,,,8,,,,76,30
57720,note_off,1440,0,8,,,,,,,,8,,,,77,64
57720,note_on,0,0,3,,,,,,,,3,,,,76,30
57720,note_off,1440,0,3,,,,,,,,3,,,,77,64
57720,note_on,0,0,1,,,,,,,,0,,,,76,30
57720,note_on,120,0,10,,,,,,,,11,,,,68,30
57720,note_on,120,0,2,,,,,,,,0,,,,45,30
57720,note_off,240,0,1,,,,,,,,0,,,,74,64
57960,note_on,0,0,1,,,,,,,,0,,,,74,30
57960,note_off,240,0,1,,,,,,,,0,,,,76,64
58200,note_off,240,0,1,,,,,,,,0,,,,74,64
58200,note_on,0,0,1,,,,,,,,0,,,,68,30
58200,set_tempo,480,1,0,1224489,,,,,,,,,,,,
58440,note_on,0,0,1,,,,,,,,0,,,,74,30
58440,note_off,240,0,1,,,,,,,,0,,,,68,64
58680,note_on,0,0,1,,,,,,,,0,,,,76,30
58680,note_off,240,0,1,,,,,,,,0,,,,74,64
58680,set_tempo,480,1,0,1304347,,,,,,,,,,,,
58920,note_on,0,0,1,,,,,,,,0,,,,74,30
58920,note_off,240,0,1,,,,,,,,0,,,,76,64
59040,note_off,1320,0,2,,,,,,,,0,,,,45,64
59160,note_on,120,0,2,,,,,,,,0,,,,45,30
59160,note_on,0,0,1,,,,,,,,0,,,,76,30
59160,note_off,240,0,1,,,,,,,,0,,,,74,64
59400,set_tempo,720,1,0,1333333,,,,,,,,,,,,
59400,note_on,0,0,1,,,,,,,,0,,,,74,30
59400,note_off,240,0,1,,,,,,,,0,,,,76,64
59640,note_on,0,0,1,,,,,,,,0,,,,68,30
59640,note_off,240,0,1,,,,,,,,0,,,,74,64
59880,note_on,0,0,1,,,,,,,,0,,,,74,30
59880,note_off,240,0,1,,,,,,,,0,,,,68,64
59880,set_tempo,480,1,0,1276595,,,,,,,,,,,,
60120,note_on,0,0,1,,,,,,,,0,,,,76,30
60120,note_off,240,0,1,,,,,,,,0,,,,74,64
60120,set_tempo,240,1,0,1363636,,,,,,,,,,,,
60360,note_on,0,0,1,,,,,,,,0,,,,74,30
60360,note_off,240,0,1,,,,,,,,0,,,,76,64
60480,note_off,1320,0,2,,,,,,,,0,,,,45,64
60480,note_off,2760,0,5,,,,,,,,5,,,,68,64
60480,note_off,4200,0,9,,,,,,,,10,,,,74,64
60480,note_off,4200,0,4,,,,,,,,4,,,,74,64
60480,note_off,2760,0,10,,,,,,,,11,,,,68,64
60595,note_off,235,0,1,,,,,,,,0,,,,74,64
60600,note_on,5,0,1,,,,,,,,0,,,,73,45
60600,note_on,120,0,4,,,,,,,,4,,,,73,30
60600,note_on,120,0,10,,,,,,,,11,,,,69,30
60600,note_on,0,0,1,,,,,,,,0,,,,76,45
60600,set_tempo,480,1,0,1463414,,,,,,,,,,,,
60600,note_on,120,0,2,,,,,,,,0,,,,45,30
60600,note_on,120,0,5,,,,,,,,5,,,,69,30
60600,note_on,120,0,9,,,,,,,,10,,,,73,30
60720,note_off,0,0,1,,,,,,,,0,,,,73,64
60720,set_tempo,120,1,0,1250000,,,,,,,,,,,,
60720,note_off,120,0,1,,,,,,,,0,,,,76,64
60720,note_on,0,0,1,,,,,,,,0,,,,71,45
60720,note_on,0,0,1,,,,,,,,0,,,,74,45
60840,note_on,0,0,1,,,,,,,,0,,,,73,44
60840,note_on,0,0,1,,,,,,,,0,,,,69,44
60840,note_off,0,0,1,,,,,,,,0,,,,71,64
60840,note_off,120,0,1,,,,,,,,0,,,,74,64
60960,note_on,0,0,1,,,,,,,,0,,,,71,43
60960,note_off,120,0,1,,,,,,,,0,,,,73,64
60960,note_on,0,0,1,,,,,,,,0,,,,74,43
60960,note_off,0,0,1,,,,,,,,0,,,,69,64
61080,note_off,0,0,1,,,,,,,,0,,,,71,64
61080,note_off,120,0,1,,,,,,,,0,,,,74,64
61080,note_on,0,0,1,,,,,,,,0,,,,76,42
61080,note_on,0,0,1,,,,,,,,0,,,,73,42
61315,note_off,0,0,1,,,,,,,,0,,,,73,64
61315,note_off,235,0,1,,,,,,,,0,,,,76,64
61320,note_on,0,0,1,,,,,,,,0,,,,64,39
61320,note_on,5,0,1,,,,,,,,0,,,,61,39
61320,set_tempo,600,1,0,1395348,,,,,,,,,,,,
61435,note_off,0,0,1,,,,,,,,0,,,,61,64
61435,note_off,115,0,1,,,,,,,,0,,,,64,64
61440,set_tempo,120,1,0,1250000,,,,,,,,,,,,
61440,note_on,5,0,1,,,,,,,,0,,,,59,38
61440,note_on,0,0,1,,,,,,,,0,,,,62,38
61560,note_off,0,0,1,,,,,,,,0,,,,59,64
61560,note_on,0,0,1,,,,,,,,0,,,,61,37
61560,note_on,0,0,1,,,,,,,,0,,,,57,37
61560,note_off,120,0,1,,,,,,,,0,,,,62,64
61680,note_off,0,0,1,,,,,,,,0,,,,57,64
61680,note_on,0,0,1,,,,,,,,0,,,,59,36
61680,note_on,0,0,1,,,,,,,,0,,,,62,36
61680,note_off,120,0,1,,,,,,,,0,,,,61,64
61800,note_off,120,0,1,,,,,,,,0,,,,62,64
61800,note_on,0,0,1,,,,,,,,0,,,,61,34
61800,note_on,0,0,1,,,,,,,,0,,,,64,34
61800,note_off,0,0,1,,,,,,,,0,,,,59,64
61920,note_off,1320,0,2,,,,,,,,0,,,,45,64
62040,note_on,0,0,1,,,,,,,,0,,,,69,30
62040,note_off,0,0,1,,,,,,,,0,,,,61,64
62040,note_off,240,0,1,,,,,,,,0,,,,64,64
62040,set_tempo,600,1,0,1304347,,,,,,,,,,,,
62040,note_on,120,0,2,,,,,,,,0,,,,45,30
62280,note_on,0,0,1,,,,,,,,0,,,,73,30
62280,note_off,240,0,1,,,,,,,,0,,,,69,64
62280,set_tempo,240,1,0,1395348,,,,,,,,,,,,
62520,note_off,240,0,1,,,,,,,,0,,,,73,64
62520,set_tempo,240,1,0,1500000,,,,,,,,,,,,
62520,note_on,0,0,1,,,,,,,,0,,,,64,30
62760,note_off,240,0,1,,,,,,,,0,,,,64,64
62760,note_on,0,0,1,,,,,,,,0,,,,69,30
62760,set_tempo,240,1,0,1621621,,,,,,,,,,,,
63000,set_tempo,240,1,0,1764705,,,,,,,,,,,,
63000,note_on,0,0,1,,,,,,,,0,,,,61,30
63000,note_off,240,0,1,,,,,,,,0,,,,69,64
63240,end_of_track,0,1,0,,,,,,,,,,,,,
63240,set_tempo,240,1,0,1935483,,,,,,,,,,,,
63240,note_on,0,0,1,,,,,,,,0,,,,64,30
63240,note_off,240,0,1,,,,,,,,0,,,,61,64
63360,note_off,1320,0,2,,,,,,,,0,,,,45,64
63480,note_on,0,0,1,,,,,,,,0,,,,61,30
63480,note_on,120,0,2,,,,,,,,0,,,,45,30
63480,note_on,0,0,1,,,,,,,,0,,,,57,30
63480,note_off,240,0,1,,,,,,,,0,,,,64,64
63480,note_on,0,0,1,,,,,,,,0,,,,69,30
63480,note_on,0,0,1,,,,,,,,0,,,,64,30
64800,note_off,21480,0,12,,,,,,,,13,,,,33,64
64800,note_off,4200,0,9,,,,,,,,10,,,,73,64
64800,note_off,21480,0,11,,,,,,,,12,,,,45,64
64800,end_of_track,0,1,8,,,,,,,,,,,,,
64800,note_off,7080,0,8,,,,,,,,8,,,,76,64
64800,end_of_track,0,1,7,,,,,,,,,,,,,
64800,note_off,21480,0,7,,,,,,,,7,,,,33,64
64800,end_of_track,0,1,6,,,,,,,,,,,,,
64800,note_off,21480,0,6,,,,,,,,6,,,,45,64
64800,end_of_track,0,1,5,,,,,,,,,,,,,
64800,note_off,4200,0,5,,,,,,,,5,,,,69,64
64800,end_of_track,0,1,4,,,,,,,,,,,,,
64800,note_off,4200,0,10,,,,,,,,11,,,,69,64
64800,end_of_track,0,1,11,,,,,,,,,,,,,
64800,end_of_track,0,1,10,,,,,,,,,,,,,
64800,end_of_track,0,1,3,,,,,,,,,,,,,
64800,note_off,7080,0,3,,,,,,,,3,,,,76,64
64800,end_of_track,0,1,2,,,,,,,,,,,,,
64800,note_off,1320,0,2,,,,,,,,0,,,,45,64
64800,end_of_track,0,1,1,,,,,,,,,,,,,
64800,note_off,0,0,1,,,,,,,,0,,,,57,64
64800,note_off,0,0,1,,,,,,,,0,,,,61,64
64800,note_off,0,0,1,,,,,,,,0,,,,64,64
64800,note_off,1320,0,1,,,,,,,,0,,,,69,64
64800,end_of_track,0,1,9,,,,,,,,,,,,,
64800,note_off,4200,0,4,,,,,,,,4,,,,73,64
64800,end_of_track,0,1,12,,,,,,,,,,,,,
