tick,type,time,meta,track,tempo,numerator,denominator,clocks_per_click,notated_32nd_notes_per_beat,key,port,channel,control,value,program,note,velocity
0,track_name,0,1,0,,,,,,,,,,,,,
0,track_name,0,1,3,,,,,,,,,,,,,
0,midi_port,0,1,3,,,,,,,0,,,,,,
0,channel_prefix,0,1,3,,,,,,,,1,,,,,
0,control_change,0,0,3,,,,,,,,1,7,127,,,
0,control_change,0,0,3,,,,,,,,1,10,64,,,
0,control_change,0,0,3,,,,,,,,1,91,127,,,
0,program_change,0,0,3,,,,,,,,1,,,48,,
0,program_change,0,0,13,,,,,,,,12,,,50,,
0,control_change,0,0,13,,,,,,,,12,91,127,,,
0,midi_port,0,1,14,,,,,,,0,,,,,,
0,control_change,0,0,13,,,,,,,,12,10,95,,,
0,channel_prefix,0,1,13,,,,,,,,12,,,,,
0,midi_port,0,1,13,,,,,,,0,,,,,,
0,track_name,0,1,4,,,,,,,,,,,,,
0,midi_port,0,1,4,,,,,,,0,,,,,,
0,channel_prefix,0,1,4,,,,,,,,2,,,,,
0,control_change,0,0,4,,,,,,,,2,7,127,,,
0,control_change,0,0,4,,,,,,,,2,10,64,,,
0,control_change,0,0,4,,,,,,,,2,91,127,,,
0,program_change,0,0,4,,,,,,,,2,,,40,,
0,control_change,0,0,13,,,,,,,,12,7,127,,,
0,program_change,0,0,12,,,,,,,,11,,,50,,
0,channel_prefix,0,1,14,,,,,,,,13,,,,,
0,control_change,0,0,14,,,,,,,,13,10,127,,,
0,channel_prefix,0,1,1,,,,,,,,0,,,,,
0,control_change,0,0,1,,,,,,,,0,7,127,,,
0,control_change,0,0,1,,,,,,,,0,10,6,,,
0,control_change,0,0,1,,,,,,,,0,91,127,,,
0,program_change,0,0,1,,,,,,,,0,,,6,,
0,program_change,0,0,15,,,,,,,,14,,,32,,
0,control_change,0,0,15,,,,,,,,14,91,127,,,
0,control_change,0,0,15,,,,,,,,14,10,6,,,
0,control_change,0,0,15,,,,,,,,14,7,127,,,
0,control_change,0,0,14,,,,,,,,13,7,127,,,
0,channel_prefix,0,1,15,,,,,,,,14,,,,,
0,track_name,0,1,2,,,,,,,,,,,,,
0,midi_port,0,1,2,,,,,,,0,,,,,,
0,channel_prefix,0,1,2,,,,,,,,0,,,,,
0,control_change,0,0,2,,,,,,,,0,7,127,,,
0,control_change,0,0,2,,,,,,,,0,10,6,,,
0,control_change,0,0,2,,,,,,,,0,91,127,,,
0,program_change,0,0,2,,,,,,,,0,,,6,,
0,program_change,0,0,14,,,,,,,,13,,,50,,
0,control_change,0,0,14,,,,,,,,13,91,127,,,
0,midi_port,0,1,15,,,,,,,0,,,,,,
0,midi_port,0,1,1,,,,,,,0,,,,,,
0,control_change,0,0,12,,,,,,,,11,91,127,,,
0,control_change,0,0,12,,,,,,,,11,7,127,,,
0,control_change,0,0,6,,,,,,,,4,7,127,,,
0,control_change,0,0,6,,,,,,,,4,10,32,,,
0,control_change,0,0,6,,,,,,,,4,91,127,,,
0,program_change,0,0,6,,,,,,,,4,,,48,,
0,program_change,0,0,9,,,,,,,,7,,,48,,
0,control_change,0,0,9,,,,,,,,7,91,127,,,
0,control_change,0,0,9,,,,,,,,7,10,127,,,
0,control_change,0,0,9,,,,,,,,7,7,127,,,
0,channel_prefix,0,1,9,,,,,,,,7,,,,,
0,channel_prefix,0,1,6,,,,,,,,4,,,,,
0,midi_port,0,1,9,,,,,,,0,,,,,,
0,channel_prefix,0,1,7,,,,,,,,5,,,,,
0,control_change,0,0,7,,,,,,,,5,7,127,,,
0,control_change,0,0,7,,,,,,,,5,10,63,,,
0,control_change,0,0,7,,,,,,,,5,91,127,,,
0,program_change,0,0,7,,,,,,,,5,,,48,,
0,program_change,0,0,8,,,,,,,,6,,,48,,
0,control_change,0,0,8,,,,,,,,6,91,127,,,
0,control_change,0,0,8,,,,,,,,6,10,95,,,
0,control_change,0,0,8,,,,,,,,6,7,127,,,
0,midi_port,0,1,7,,,,,,,0,,,,,,
0,control_change,0,0,12,,,,,,,,11,10,63,,,
0,midi_port,0,1,6,,,,,,,0,,,,,,
0,channel_prefix,0,1,10,,,,,,,,8,,,,,
0,channel_prefix,0,1,12,,,,,,,,11,,,,,
0,midi_port,0,1,12,,,,,,,0,,,,,,
0,channel_prefix,0,1,8,,,,,,,,6,,,,,
0,track_name,0,1,5,,,,,,,,,,,,,
0,midi_port,0,1,5,,,,,,,0,,,,,,
0,channel_prefix,0,1,5,,,,,,,,3,,,,,
0,control_change,0,0,5,,,,,,,,3,7,127,,,
0,control_change,0,0,5,,,,,,,,3,10,1,,,
0,control_change,0,0,5,,,,,,,,3,91,127,,,
0,midi_port,0,1,10,,,,,,,0,,,,,,
0,program_change,0,0,5,,,,,,,,3,,,48,,
0,control_change,0,0,11,,,,,,,,10,91,127,,,
0,control_change,0,0,11,,,,,,,,10,10,32,,,
0,control_change,0,0,11,,,,,,,,10,7,127,,,
0,channel_prefix,0,1,11,,,,,,,,10,,,,,
0,midi_port,0,1,11,,,,,,,0,,,,,,
0,program_change,0,0,10,,,,,,,,8,,,50,,
0,control_change,0,0,10,,,,,,,,8,91,127,,,
0,control_change,0,0,10,,,,,,,,8,10,1,,,
0,control_change,0,0,10,,,,,,,,8,7,127,,,
0,program_change,0,0,11,,,,,,,,10,,,50,,
0,track_name,0,1,1,,,,,,,,,,,,,
0,midi_port,0,1,8,,,,,,,0,,,,,,
0,copyright,0,1,0,,,,,,,,,,,,,
0,set_tempo,0,1,0,500000,,,,,,,,,,,,
0,time_signature,0,1,0,,4,4,24,8,,,,,,,,
0,key_signature,0,1,0,,,,,,F,,,,,,,
120,note_on,120,0,15,,,,,,,,14,,,,41,60
120,note_on,120,0,11,,,,,,,,10,,,,77,75
120,note_on,120,0,12,,,,,,,,11,,,,69,75
120,note_on,0,0,10,,,,,,,,8,,,,81,75
120,note_on,120,0,10,,,,,,,,8,,,,69,75
120,note_on,120,0,5,,,,,,,,3,,,,69,92
120,note_on,120,0,14,,,,,,,,13,,,,41,75
120,note_on,0,0,5,,,,,,,,3,,,,81,92
120,note_on,120,0,13,,,,,,,,12,,,,53,75
120,set_tempo,120,1,0,500000,,,,,,,,,,,,
120,note_on,120,0,7,,,,,,,,5,,,,69,92
120,note_on,120,0,9,,,,,,,,7,,,,41,92
120,note_on,120,0,8,,,,,,,,6,,,,53,92
120,note_on,120,0,6,,,,,,,,4,,,,77,92
200,note_off,0,0,10,,,,,,,,8,,,,69,64
200,note_off,80,0,11,,,,,,,,10,,,,77,64
200,note_off,80,0,12,,,,,,,,11,,,,69,64
200,note_off,80,0,7,,,,,,,,5,,,,69,64
200,note_off,80,0,6,,,,,,,,4,,,,77,64
200,note_off,80,0,10,,,,,,,,8,,,,81,64
200,note_off,80,0,14,,,,,,,,13,,,,41,64
200,note_off,80,0,9,,,,,,,,7,,,,41,64
200,note_off,80,0,8,,,,,,,,6,,,,53,64
200,note_off,80,0,5,,,,,,,,3,,,,81,64
200,note_off,0,0,5,,,,,,,,3,,,,69,64
200,note_off,80,0,13,,,,,,,,12,,,,53,64
360,note_on,160,0,14,,,,,,,,13,,,,41,75
360,note_on,160,0,8,,,,,,,,6,,,,53,92
360,note_on,160,0,6,,,,,,,,4,,,,77,92
360,note_on,160,0,7,,,,,,,,5,,,,69,92
360,note_on,160,0,5,,,,,,,,3,,,,69,92
360,note_on,160,0,13,,,,,,,,12,,,,53,75
360,note_on,160,0,10,,,,,,,,8,,,,69,75
360,note_on,0,0,10,,,,,,,,8,,,,81,75
360,note_on,160,0,12,,,,,,,,11,,,,69,75
360,note_on,160,0,11,,,,,,,,10,,,,77,75
360,note_on,160,0,9,,,,,,,,7,,,,41,92
360,note_on,0,0,5,,,,,,,,3,,,,81,92
440,note_off,80,0,12,,,,,,,,11,,,,69,64
440,note_off,80,0,9,,,,,,,,7,,,,41,64
440,note_off,80,0,13,,,,,,,,12,,,,53,64
440,note_off,80,0,8,,,,,,,,6,,,,53,64
440,note_off,80,0,6,,,,,,,,4,,,,77,64
440,note_off,0,0,5,,,,,,,,3,,,,69,64
440,note_off,80,0,10,,,,,,,,8,,,,81,64
440,note_off,0,0,10,,,,,,,,8,,,,69,64
440,note_off,80,0,5,,,,,,,,3,,,,81,64
440,note_off,80,0,11,,,,,,,,10,,,,77,64
440,note_off,80,0,14,,,,,,,,13,,,,41,64
440,note_off,80,0,7,,,,,,,,5,,,,69,64
520,note_off,400,0,15,,,,,,,,14,,,,41,64
600,note_on,0,0,10,,,,,,,,8,,,,81,75
600,note_on,0,0,5,,,,,,,,3,,,,81,92
600,note_on,160,0,10,,,,,,,,8,,,,69,75
600,note_on,160,0,11,,,,,,,,10,,,,77,75
600,note_on,160,0,14,,,,,,,,13,,,,41,75
600,note_on,160,0,5,,,,,,,,3,,,,69,92
600,note_on,160,0,6,,,,,,,,4,,,,77,92
600,note_on,160,0,8,,,,,,,,6,,,,53,92
600,note_on,160,0,13,,,,,,,,12,,,,53,75
600,note_on,160,0,9,,,,,,,,7,,,,41,92
600,note_on,160,0,12,,,,,,,,11,,,,69,75
600,note_on,160,0,7,,,,,,,,5,,,,69,92
680,note_off,80,0,9,,,,,,,,7,,,,41,64
680,note_off,80,0,8,,,,,,,,6,,,,53,64
680,note_off,80,0,13,,,,,,,,12,,,,53,64
680,note_off,80,0,14,,,,,,,,13,,,,41,64
680,note_off,80,0,11,,,,,,,,10,,,,77,64
680,note_off,0,0,10,,,,,,,,8,,,,69,64
680,note_off,80,0,10,,,,,,,,8,,,,81,64
680,note_off,80,0,12,,,,,,,,11,,,,69,64
680,note_off,80,0,7,,,,,,,,5,,,,69,64
680,note_off,0,0,5,,,,,,,,3,,,,69,64
680,note_off,80,0,5,,,,,,,,3,,,,81,64
680,note_off,80,0,6,,,,,,,,4,,,,77,64
840,note_on,160,0,9,,,,,,,,7,,,,36,92
840,note_on,160,0,11,,,,,,,,10,,,,79,75
840,note_on,0,0,10,,,,,,,,8,,,,82,75
840,note_on,160,0,10,,,,,,,,8,,,,70,75
840,note_on,160,0,14,,,,,,,,13,,,,36,75
840,note_on,160,0,6,,,,,,,,4,,,,79,92
840,note_on,160,0,7,,,,,,,,5,,,,64,92
840,note_on,0,0,5,,,,,,,,3,,,,82,92
840,note_on,160,0,13,,,,,,,,12,,,,48,75
840,note_on,160,0,5,,,,,,,,3,,,,70,92
840,note_on,160,0,12,,,,,,,,11,,,,64,75
840,note_on,320,0,15,,,,,,,,14,,,,36,60
840,note_on,160,0,8,,,,,,,,6,,,,48,92
920,note_off,80,0,8,,,,,,,,6,,,,48,64
920,note_off,80,0,13,,,,,,,,12,,,,48,64
920,note_off,80,0,7,,,,,,,,5,,,,64,64
920,note_off,80,0,14,,,,,,,,13,,,,36,64
920,note_off,0,0,5,,,,,,,,3,,,,70,64
920,note_off,0,0,10,,,,,,,,8,,,,70,64
920,note_off,80,0,10,,,,,,,,8,,,,82,64
920,note_off,80,0,6,,,,,,,,4,,,,79,64
920,note_off,80,0,11,,,,,,,,10,,,,79,64
920,note_off,80,0,12,,,,,,,,11,,,,64,64
920,note_off,80,0,9,,,,,,,,7,,,,36,64
920,note_off,80,0,5,,,,,,,,3,,,,82,64
1075,note_off,235,0,15,,,,,,,,14,,,,36,64
1080,note_on,160,0,14,,,,,,,,13,,,,41,75
1080,note_on,0,0,5,,,,,,,,3,,,,81,92
1080,note_on,160,0,5,,,,,,,,3,,,,69,92
1080,note_on,160,0,11,,,,,,,,10,,,,77,75
1080,note_on,160,0,13,,,,,,,,12,,,,53,75
1080,note_on,160,0,7,,,,,,,,5,,,,69,92
1080,note_on,160,0,9,,,,,,,,7,,,,41,92
1080,note_on,5,0,15,,,,,,,,14,,,,41,60
1080,note_on,160,0,8,,,,,,,,6,,,,53,92
1080,note_on,160,0,12,,,,,,,,11,,,,69,75
1080,note_on,160,0,6,,,,,,,,4,,,,77,92
1080,note_on,160,0,10,,,,,,,,8,,,,69,75
1080,note_on,0,0,10,,,,,,,,8,,,,81,75
1480,note_off,400,0,9,,,,,,,,7,,,,41,64
1480,note_off,400,0,12,,,,,,,,11,,,,69,64
1480,note_off,400,0,5,,,,,,,,3,,,,81,64
1480,note_off,0,0,5,,,,,,,,3,,,,69,64
1480,note_off,0,0,10,,,,,,,,8,,,,69,64
1480,note_off,400,0,15,,,,,,,,14,,,,41,64
1480,note_off,400,0,14,,,,,,,,13,,,,41,64
1480,note_off,400,0,11,,,,,,,,10,,,,77,64
1480,note_off,400,0,8,,,,,,,,6,,,,53,64
1480,note_off,400,0,6,,,,,,,,4,,,,77,64
1480,note_off,400,0,13,,,,,,,,12,,,,53,64
1480,note_off,400,0,10,,,,,,,,8,,,,81,64
1480,note_off,400,0,7,,,,,,,,5,,,,69,64
1560,note_on,80,0,9,,,,,,,,7,,,,41,92
1560,note_on,80,0,5,,,,,,,,3,,,,69,92
1560,note_on,80,0,14,,,,,,,,13,,,,41,75
1560,note_on,80,0,6,,,,,,,,4,,,,77,92
1560,note_on,80,0,11,,,,,,,,10,,,,77,75
1560,note_on,0,0,5,,,,,,,,3,,,,81,92
1560,note_on,80,0,7,,,,,,,,5,,,,69,92
1560,note_on,0,0,10,,,,,,,,8,,,,81,75
1560,note_on,80,0,10,,,,,,,,8,,,,69,75
1560,note_on,80,0,12,,,,,,,,11,,,,69,75
1560,note_on,80,0,8,,,,,,,,6,,,,53,92
1560,note_on,80,0,13,,,,,,,,12,,,,53,75
1640,note_off,80,0,11,,,,,,,,10,,,,77,64
1640,note_off,80,0,5,,,,,,,,3,,,,81,64
1640,note_off,0,0,5,,,,,,,,3,,,,69,64
1640,note_off,80,0,7,,,,,,,,5,,,,69,64
1640,note_off,0,0,10,,,,,,,,8,,,,69,64
1640,note_off,80,0,12,,,,,,,,11,,,,69,64
1640,note_off,80,0,9,,,,,,,,7,,,,41,64
1640,note_off,80,0,14,,,,,,,,13,,,,41,64
1640,note_off,80,0,8,,,,,,,,6,,,,53,64
1640,note_off,80,0,6,,,,,,,,4,,,,77,64
1640,note_off,80,0,10,,,,,,,,8,,,,81,64
1640,note_off,80,0,13,,,,,,,,12,,,,53,64
1800,note_on,160,0,10,,,,,,,,8,,,,70,75
1800,note_on,160,0,12,,,,,,,,11,,,,64,75
1800,note_on,160,0,9,,,,,,,,7,,,,36,92
1800,note_on,160,0,6,,,,,,,,4,,,,79,92
1800,note_on,160,0,8,,,,,,,,6,,,,48,92
1800,note_on,320,0,15,,,,,,,,14,,,,36,60
1800,note_on,160,0,13,,,,,,,,12,,,,48,75
1800,note_on,0,0,10,,,,,,,,8,,,,82,75
1800,note_on,160,0,7,,,,,,,,5,,,,64,92
1800,note_on,0,0,5,,,,,,,,3,,,,82,92
1800,note_on,160,0,5,,,,,,,,3,,,,70,92
1800,note_on,160,0,11,,,,,,,,10,,,,79,75
1800,note_on,160,0,14,,,,,,,,13,,,,36,75
1880,note_off,80,0,14,,,,,,,,13,,,,36,64
1880,note_off,0,0,5,,,,,,,,3,,,,70,64
1880,note_off,80,0,13,,,,,,,,12,,,,48,64
1880,note_off,80,0,12,,,,,,,,11,,,,64,64
1880,note_off,0,0,10,,,,,,,,8,,,,70,64
1880,note_off,80,0,10,,,,,,,,8,,,,82,64
1880,note_off,80,0,5,,,,,,,,3,,,,82,64
1880,note_off,80,0,7,,,,,,,,5,,,,64,64
1880,note_off,80,0,9,,,,,,,,7,,,,36,64
1880,note_off,80,0,11,,,,,,,,10,,,,79,64
1880,note_off,80,0,8,,,,,,,,6,,,,48,64
1880,note_off,80,0,6,,,,,,,,4,,,,79,64
2035,note_off,235,0,15,,,,,,,,14,,,,36,64
2040,note_on,160,0,6,,,,,,,,4,,,,77,92
2040,note_on,160,0,7,,,,,,,,5,,,,69,92
2040,note_on,160,0,14,,,,,,,,13,,,,41,75
2040,note_on,160,0,8,,,,,,,,6,,,,53,92
2040,note_on,0,0,10,,,,,,,,8,,,,81,75
2040,note_on,160,0,9,,,,,,,,7,,,,41,92
2040,note_on,160,0,11,,,,,,,,10,,,,77,75
2040,note_on,160,0,12,,,,,,,,11,,,,69,75
2040,note_on,5,0,15,,,,,,,,14,,,,41,60
2040,note_on,160,0,10,,,,,,,,8,,,,69,75
2040,note_on,160,0,13,,,,,,,,12,,,,53,75
2040,note_on,160,0,5,,,,,,,,3,,,,69,92
2040,note_on,0,0,5,,,,,,,,3,,,,81,92
2120,note_off,80,0,7,,,,,,,,5,,,,69,64
2120,note_off,80,0,8,,,,,,,,6,,,,53,64
2120,note_off,80,0,6,,,,,,,,4,,,,77,64
2120,note_off,0,0,5,,,,,,,,3,,,,69,64
2120,note_off,80,0,5,,,,,,,,3,,,,81,64
2120,note_off,80,0,10,,,,,,,,8,,,,81,64
2120,note_off,0,0,10,,,,,,,,8,,,,69,64
2120,note_off,80,0,14,,,,,,,,13,,,,41,64
2120,note_off,80,0,9,,,,,,,,7,,,,41,64
2120,note_off,80,0,11,,,,,,,,10,,,,77,64
2120,note_off,80,0,12,,,,,,,,11,,,,69,64
2120,note_off,80,0,13,,,,,,,,12,,,,53,64
2280,note_on,160,0,6,,,,,,,,4,,,,77,92
2280,note_on,0,0,10,,,,,,,,8,,,,81,75
2280,note_on,160,0,7,,,,,,,,5,,,,69,92
2280,note_on,160,0,11,,,,,,,,10,,,,77,75
2280,note_on,160,0,13,,,,,,,,12,,,,53,75
2280,note_on,160,0,8,,,,,,,,6,,,,53,92
2280,note_on,160,0,10,,,,,,,,8,,,,69,75
2280,note_on,160,0,9,,,,,,,,7,,,,41,92
2280,note_on,160,0,14,,,,,,,,13,,,,41,75
2280,note_on,160,0,5,,,,,,,,3,,,,69,92
2280,note_on,0,0,5,,,,,,,,3,,,,81,92
2280,note_on,160,0,12,,,,,,,,11,,,,69,75
2360,note_off,80,0,13,,,,,,,,12,,,,53,64
2360,note_off,80,0,11,,,,,,,,10,,,,77,64
2360,note_off,80,0,5,,,,,,,,3,,,,81,64
2360,note_off,0,0,10,,,,,,,,8,,,,69,64
2360,note_off,80,0,14,,,,,,,,13,,,,41,64
2360,note_off,80,0,10,,,,,,,,8,,,,81,64
2360,note_off,0,0,5,,,,,,,,3,,,,69,64
2360,note_off,80,0,7,,,,,,,,5,,,,69,64
2360,note_off,80,0,6,,,,,,,,4,,,,77,64
2360,note_off,80,0,12,,,,,,,,11,,,,69,64
2360,note_off,80,0,9,,,,,,,,7,,,,41,64
2360,note_off,80,0,8,,,,,,,,6,,,,53,64
2440,note_off,400,0,15,,,,,,,,14,,,,41,64
2520,note_on,160,0,7,,,,,,,,5,,,,69,92
2520,note_on,160,0,14,,,,,,,,13,,,,41,75
2520,note_on,160,0,12,,,,,,,,11,,,,69,75
2520,note_on,0,0,5,,,,,,,,3,,,,81,92
2520,note_on,160,0,6,,,,,,,,4,,,,77,92
2520,note_on,0,0,10,,,,,,,,8,,,,81,75
2520,note_on,160,0,5,,,,,,,,3,,,,69,92
2520,note_on,160,0,8,,,,,,,,6,,,,53,92
2520,note_on,160,0,10,,,,,,,,8,,,,69,75
2520,note_on,160,0,9,,,,,,,,7,,,,41,92
2520,note_on,160,0,13,,,,,,,,12,,,,53,75
2520,note_on,160,0,11,,,,,,,,10,,,,77,75
2600,note_off,0,0,5,,,,,,,,3,,,,69,64
2600,note_off,80,0,5,,,,,,,,3,,,,81,64
2600,note_off,80,0,7,,,,,,,,5,,,,69,64
2600,note_off,80,0,9,,,,,,,,7,,,,41,64
2600,note_off,80,0,10,,,,,,,,8,,,,81,64
2600,note_off,80,0,12,,,,,,,,11,,,,69,64
2600,note_off,0,0,10,,,,,,,,8,,,,69,64
2600,note_off,80,0,11,,,,,,,,10,,,,77,64
2600,note_off,80,0,13,,,,,,,,12,,,,53,64
2600,note_off,80,0,14,,,,,,,,13,,,,41,64
2600,note_off,80,0,6,,,,,,,,4,,,,77,64
2600,note_off,80,0,8,,,,,,,,6,,,,53,64
2760,note_on,160,0,10,,,,,,,,8,,,,70,75
2760,note_on,160,0,6,,,,,,,,4,,,,79,92
2760,note_on,320,0,15,,,,,,,,14,,,,36,60
2760,note_on,160,0,8,,,,,,,,6,,,,48,92
2760,note_on,0,0,10,,,,,,,,8,,,,82,75
2760,note_on,0,0,5,,,,,,,,3,,,,82,92
2760,note_on,160,0,9,,,,,,,,7,,,,36,92
2760,note_on,160,0,7,,,,,,,,5,,,,64,92
2760,note_on,160,0,12,,,,,,,,11,,,,64,75
2760,note_on,160,0,14,,,,,,,,13,,,,36,75
2760,note_on,160,0,5,,,,,,,,3,,,,70,92
2760,note_on,160,0,13,,,,,,,,12,,,,48,75
2760,note_on,160,0,11,,,,,,,,10,,,,79,75
2840,note_off,80,0,9,,,,,,,,7,,,,36,64
2840,note_off,80,0,10,,,,,,,,8,,,,82,64
2840,note_off,80,0,14,,,,,,,,13,,,,36,64
2840,note_off,80,0,13,,,,,,,,12,,,,48,64
2840,note_off,80,0,6,,,,,,,,4,,,,79,64
2840,note_off,80,0,5,,,,,,,,3,,,,82,64
2840,note_off,80,0,11,,,,,,,,10,,,,79,64
2840,note_off,80,0,8,,,,,,,,6,,,,48,64
2840,note_off,0,0,5,,,,,,,,3,,,,70,64
2840,note_off,80,0,12,,,,,,,,11,,,,64,64
2840,note_off,80,0,7,,,,,,,,5,,,,64,64
2840,note_off,0,0,10,,,,,,,,8,,,,70,64
2995,note_off,235,0,15,,,,,,,,14,,,,36,64
3000,note_on,160,0,8,,,,,,,,6,,,,53,92
3000,note_on,160,0,5,,,,,,,,3,,,,69,92
3000,note_on,160,0,14,,,,,,,,13,,,,41,75
3000,note_on,0,0,5,,,,,,,,3,,,,81,92
3000,note_on,0,0,10,,,,,,,,8,,,,81,75
3000,note_on,5,0,15,,,,,,,,14,,,,41,60
3000,note_on,160,0,11,,,,,,,,10,,,,77,75
3000,note_on,160,0,9,,,,,,,,7,,,,41,92
3000,note_on,160,0,12,,,,,,,,11,,,,69,75
3000,note_on,160,0,13,,,,,,,,12,,,,53,75
3000,note_on,160,0,7,,,,,,,,5,,,,69,92
3000,note_on,160,0,10,,,,,,,,8,,,,69,75
3000,note_on,160,0,6,,,,,,,,4,,,,77,92
3400,note_off,400,0,8,,,,,,,,6,,,,53,64
3400,note_off,400,0,12,,,,,,,,11,,,,69,64
3400,note_off,400,0,6,,,,,,,,4,,,,77,64
3400,note_off,400,0,7,,,,,,,,5,,,,69,64
3400,note_off,0,0,5,,,,,,,,3,,,,69,64
3400,note_off,400,0,15,,,,,,,,14,,,,41,64
3400,note_off,400,0,13,,,,,,,,12,,,,53,64
3400,note_off,400,0,11,,,,,,,,10,,,,77,64
3400,note_off,400,0,14,,,,,,,,13,,,,41,64
3400,note_off,400,0,10,,,,,,,,8,,,,81,64
3400,note_off,0,0,10,,,,,,,,8,,,,69,64
3400,note_off,400,0,5,,,,,,,,3,,,,81,64
3400,note_off,400,0,9,,,,,,,,7,,,,41,64
3480,note_on,80,0,5,,,,,,,,3,,,,69,92
3480,note_on,80,0,7,,,,,,,,5,,,,69,92
3480,note_on,80,0,9,,,,,,,,7,,,,41,92
3480,note_on,80,0,6,,,,,,,,4,,,,77,92
3480,note_on,80,0,12,,,,,,,,11,,,,69,75
3480,note_on,80,0,13,,,,,,,,12,,,,53,75
3480,note_on,80,0,11,,,,,,,,10,,,,77,75
3480,note_on,80,0,14,,,,,,,,13,,,,41,75
3480,note_on,80,0,10,,,,,,,,8,,,,69,75
3480,note_on,0,0,10,,,,,,,,8,,,,81,75
3480,note_on,80,0,8,,,,,,,,6,,,,53,92
3480,note_on,0,0,5,,,,,,,,3,,,,81,92
3560,note_off,80,0,12,,,,,,,,11,,,,69,64
3560,note_off,80,0,14,,,,,,,,13,,,,41,64
3560,note_off,80,0,10,,,,,,,,8,,,,81,64
3560,note_off,0,0,10,,,,,,,,8,,,,69,64
3560,note_off,80,0,9,,,,,,,,7,,,,41,64
3560,note_off,80,0,6,,,,,,,,4,,,,77,64
3560,note_off,80,0,7,,,,,,,,5,,,,69,64
3560,note_off,80,0,13,,,,,,,,12,,,,53,64
3560,note_off,80,0,11,,,,,,,,10,,,,77,64
3560,note_off,80,0,5,,,,,,,,3,,,,81,64
3560,note_off,0,0,5,,,,,,,,3,,,,69,64
3560,note_off,80,0,8,,,,,,,,6,,,,53,64
3720,note_on,160,0,6,,,,,,,,4,,,,79,92
3720,note_on,160,0,7,,,,,,,,5,,,,64,92
3720,note_on,160,0,13,,,,,,,,12,,,,48,75
3720,note_on,160,0,11,,,,,,,,10,,,,79,75
3720,note_on,0,0,10,,,,,,,,8,,,,82,75
3720,note_on,160,0,5,,,,,,,,3,,,,70,92
3720,note_on,0,0,5,,,,,,,,3,,,,82,92
3720,note_on,160,0,9,,,,,,,,7,,,,36,92
3720,note_on,160,0,8,,,,,,,,6,,,,48,92
3720,note_on,160,0,12,,,,,,,,11,,,,64,75
3720,note_on,320,0,15,,,,,,,,14,,,,36,60
3720,note_on,160,0,14,,,,,,,,13,,,,36,75
3720,note_on,160,0,10,,,,,,,,8,,,,70,75
3800,note_off,0,0,5,,,,,,,,3,,,,70,64
3800,note_off,80,0,14,,,,,,,,13,,,,36,64
3800,note_off,80,0,12,,,,,,,,11,,,,64,64
3800,note_off,80,0,6,,,,,,,,4,,,,79,64
3800,note_off,80,0,5,,,,,,,,3,,,,82,64
3800,note_off,80,0,13,,,,,,,,12,,,,48,64
3800,note_off,80,0,10,,,,,,,,8,,,,82,64
3800,note_off,80,0,11,,,,,,,,10,,,,79,64
3800,note_off,80,0,7,,,,,,,,5,,,,64,64
3800,note_off,80,0,8,,,,,,,,6,,,,48,64
3800,note_off,0,0,10,,,,,,,,8,,,,70,64
3800,note_off,80,0,9,,,,,,,,7,,,,36,64
3955,note_off,235,0,15,,,,,,,,14,,,,36,64
3960,note_on,160,0,6,,,,,,,,4,,,,77,92
3960,note_on,160,0,14,,,,,,,,13,,,,41,75
3960,note_on,160,0,7,,,,,,,,5,,,,69,92
3960,note_on,5,0,15,,,,,,,,14,,,,41,60
3960,note_on,160,0,9,,,,,,,,7,,,,41,92
3960,note_on,160,0,12,,,,,,,,11,,,,69,75
3960,note_on,0,0,10,,,,,,,,8,,,,81,75
3960,note_on,0,0,5,,,,,,,,3,,,,81,92
3960,note_on,160,0,10,,,,,,,,8,,,,69,75
3960,note_on,160,0,8,,,,,,,,6,,,,53,92
3960,note_on,160,0,13,,,,,,,,12,,,,53,75
3960,note_on,160,0,11,,,,,,,,10,,,,77,75
3960,note_on,160,0,5,,,,,,,,3,,,,69,92
3990,note_on,0,0,11,,,,,,,,10,,,,79,75
3990,note_on,0,0,10,,,,,,,,8,,,,82,75
3990,note_off,0,0,10,,,,,,,,8,,,,69,64
3990,note_off,30,0,10,,,,,,,,8,,,,81,64
3990,note_off,30,0,5,,,,,,,,3,,,,81,64
3990,note_off,30,0,6,,,,,,,,4,,,,77,64
3990,note_on,0,0,6,,,,,,,,4,,,,79,92
3990,note_off,0,0,5,,,,,,,,3,,,,69,64
3990,note_on,0,0,5,,,,,,,,3,,,,82,92
3990,note_on,0,0,5,,,,,,,,3,,,,70,92
3990,note_off,30,0,11,,,,,,,,10,,,,77,64
3990,note_on,0,0,10,,,,,,,,8,,,,70,75
4020,note_off,30,0,11,,,,,,,,10,,,,79,64
4020,note_on,0,0,11,,,,,,,,10,,,,77,75
4020,note_off,30,0,5,,,,,,,,3,,,,82,64
4020,note_on,0,0,6,,,,,,,,4,,,,77,92
4020,note_off,0,0,5,,,,,,,,3,,,,70,64
4020,note_on,0,0,5,,,,,,,,3,,,,69,92
4020,note_on,0,0,5,,,,,,,,3,,,,81,92
4020,note_on,0,0,10,,,,,,,,8,,,,69,75
4020,note_off,0,0,10,,,,,,,,8,,,,70,64
4020,note_off,30,0,10,,,,,,,,8,,,,82,64
4020,note_on,0,0,10,,,,,,,,8,,,,81,75
4020,note_off,30,0,6,,,,,,,,4,,,,79,64
4040,note_off,80,0,9,,,,,,,,7,,,,41,64
4040,note_off,80,0,7,,,,,,,,5,,,,69,64
4040,note_off,80,0,12,,,,,,,,11,,,,69,64
4040,note_off,80,0,8,,,,,,,,6,,,,53,64
4040,note_off,80,0,13,,,,,,,,12,,,,53,64
4040,note_off,80,0,14,,,,,,,,13,,,,41,64
4050,note_off,30,0,10,,,,,,,,8,,,,81,64
4050,note_off,0,0,10,,,,,,,,8,,,,69,64
4050,note_on,0,0,10,,,,,,,,8,,,,70,75
4050,note_off,30,0,11,,,,,,,,10,,,,77,64
4050,note_on,0,0,11,,,,,,,,10,,,,79,75
4050,note_on,0,0,10,,,,,,,,8,,,,82,75
4050,note_off,30,0,6,,,,,,,,4,,,,77,64
4050,note_on,0,0,5,,,,,,,,3,,,,82,92
4050,note_on,0,0,5,,,,,,,,3,,,,70,92
4050,note_off,0,0,5,,,,,,,,3,,,,69,64
4050,note_off,30,0,5,,,,,,,,3,,,,81,64
4050,note_on,0,0,6,,,,,,,,4,,,,79,92
4080,note_off,30,0,10,,,,,,,,8,,,,82,64
4080,note_off,0,0,5,,,,,,,,3,,,,70,64
4080,note_off,30,0,5,,,,,,,,3,,,,82,64
4080,note_on,0,0,5,,,,,,,,3,,,,69,92
4080,note_on,0,0,5,,,,,,,,3,,,,81,92
4080,note_on,0,0,10,,,,,,,,8,,,,69,75
4080,note_on,0,0,11,,,,,,,,10,,,,77,75
4080,note_off,30,0,11,,,,,,,,10,,,,79,64
4080,note_off,30,0,6,,,,,,,,4,,,,79,64
4080,note_on,0,0,6,,,,,,,,4,,,,77,92
4080,note_on,0,0,10,,,,,,,,8,,,,81,75
4080,note_off,0,0,10,,,,,,,,8,,,,70,64
4110,note_on,0,0,10,,,,,,,,8,,,,70,75
4110,note_off,30,0,10,,,,,,,,8,,,,81,64
4110,note_on,0,0,10,,,,,,,,8,,,,82,75
4110,note_off,30,0,5,,,,,,,,3,,,,81,64
4110,note_off,0,0,10,,,,,,,,8,,,,69,64
4110,note_off,0,0,5,,,,,,,,3,,,,69,64
4110,note_on,0,0,6,,,,,,,,4,,,,79,92
4110,note_off,30,0,6,,,,,,,,4,,,,77,64
4110,note_off,30,0,11,,,,,,,,10,,,,77,64
4110,note_on,0,0,11,,,,,,,,10,,,,79,75
4110,note_on,0,0,5,,,,,,,,3,,,,82,92
4110,note_on,0,0,5,,,,,,,,3,,,,70,92
4140,note_on,0,0,5,,,,,,,,3,,,,69,92
4140,note_on,0,0,5,,,,,,,,3,,,,81,92
4140,note_on,0,0,11,,,,,,,,10,,,,77,75
4140,note_off,30,0,11,,,,,,,,10,,,,79,64
4140,note_off,30,0,5,,,,,,,,3,,,,82,64
4140,note_on,0,0,10,,,,,,,,8,,,,81,75
4140,note_on,0,0,10,,,,,,,,8,,,,69,75
4140,note_off,0,0,10,,,,,,,,8,,,,70,64
4140,note_off,30,0,10,,,,,,,,8,,,,82,64
4140,note_off,30,0,6,,,,,,,,4,,,,79,64
4140,note_off,0,0,5,,,,,,,,3,,,,70,64
4140,note_on,0,0,6,,,,,,,,4,,,,77,92
4170,note_off,30,0,6,,,,,,,,4,,,,77,64
4170,note_on,0,0,11,,,,,,,,10,,,,79,75
4170,note_off,0,0,10,,,,,,,,8,,,,69,64
4170,note_off,30,0,11,,,,,,,,10,,,,77,64
4170,note_off,30,0,5,,,,,,,,3,,,,81,64
4170,note_off,0,0,5,,,,,,,,3,,,,69,64
4170,note_on,0,0,5,,,,,,,,3,,,,70,92
4170,note_on,0,0,5,,,,,,,,3,,,,82,92
4170,note_off,30,0,10,,,,,,,,8,,,,81,64
4170,note_on,0,0,6,,,,,,,,4,,,,79,92
4170,note_on,0,0,10,,,,,,,,8,,,,82,75
4170,note_on,0,0,10,,,,,,,,8,,,,70,75
4200,note_on,160,0,7,,,,,,,,5,,,,69,92
4200,note_on,0,0,11,,,,,,,,10,,,,76,75
4200,note_off,30,0,6,,,,,,,,4,,,,79,64
4200,note_on,0,0,10,,,,,,,,8,,,,79,75
4200,note_on,0,0,6,,,,,,,,4,,,,76,92
4200,note_on,160,0,9,,,,,,,,7,,,,41,92
4200,note_off,30,0,11,,,,,,,,10,,,,79,64
4200,note_on,160,0,12,,,,,,,,11,,,,69,75
4200,note_on,0,0,5,,,,,,,,3,,,,67,92
4200,note_on,160,0,14,,,,,,,,13,,,,41,75
4200,set_tempo,4080,1,0,535714,,,,,,,,,,,,
4200,note_off,0,0,5,,,,,,,,3,,,,70,64
4200,note_on,0,0,10,,,,,,,,8,,,,67,75
4200,note_on,160,0,13,,,,,,,,12,,,,53,75
4200,note_on,0,0,5,,,,,,,,3,,,,79,92
4200,note_on,160,0,8,,,,,,,,6,,,,53,92
4200,note_off,0,0,10,,,,,,,,8,,,,70,64
4200,note_off,30,0,10,,,,,,,,8,,,,82,64
4200,note_off,30,0,5,,,,,,,,3,,,,82,64
4280,note_off,80,0,12,,,,,,,,11,,,,69,64
4280,note_off,80,0,14,,,,,,,,13,,,,41,64
4280,note_off,0,0,10,,,,,,,,8,,,,67,64
4280,note_off,0,0,5,,,,,,,,3,,,,67,64
4280,note_off,80,0,9,,,,,,,,7,,,,41,64
4280,note_off,80,0,10,,,,,,,,8,,,,79,64
4280,note_off,80,0,7,,,,,,,,5,,,,69,64
4280,note_off,80,0,5,,,,,,,,3,,,,79,64
4280,note_off,80,0,13,,,,,,,,12,,,,53,64
4280,note_off,80,0,8,,,,,,,,6,,,,53,64
4280,note_off,80,0,11,,,,,,,,10,,,,76,64
4280,note_off,80,0,6,,,,,,,,4,,,,76,64
4320,note_on,40,0,5,,,,,,,,3,,,,69,92
4320,note_on,0,0,5,,,,,,,,3,,,,81,92
4320,note_on,40,0,6,,,,,,,,4,,,,77,92
4320,note_on,40,0,10,,,,,,,,8,,,,69,75
4320,note_on,0,0,10,,,,,,,,8,,,,81,75
4320,note_on,40,0,11,,,,,,,,10,,,,77,75
4360,note_off,400,0,15,,,,,,,,14,,,,41,64
4400,note_off,0,0,5,,,,,,,,3,,,,69,64
4400,note_off,80,0,5,,,,,,,,3,,,,81,64
4400,note_off,80,0,10,,,,,,,,8,,,,81,64
4400,note_off,80,0,6,,,,,,,,4,,,,77,64
4400,note_off,80,0,11,,,,,,,,10,,,,77,64
4400,note_off,0,0,10,,,,,,,,8,,,,69,64
4440,note_on,160,0,8,,,,,,,,6,,,,46,92
4440,note_on,160,0,7,,,,,,,,5,,,,62,92
4440,note_on,80,0,15,,,,,,,,14,,,,34,60
4440,note_on,0,0,5,,,,,,,,3,,,,82,92
4440,note_on,160,0,13,,,,,,,,12,,,,46,75
4440,note_on,160,0,12,,,,,,,,11,,,,62,75
4440,note_on,40,0,10,,,,,,,,8,,,,70,75
4440,note_on,160,0,14,,,,,,,,13,,,,34,75
4440,note_on,40,0,11,,,,,,,,10,,,,79,75
4440,note_on,40,0,5,,,,,,,,3,,,,70,92
4440,note_on,40,0,6,,,,,,,,4,,,,79,92
4440,note_on,0,0,10,,,,,,,,8,,,,82,75
4440,note_on,160,0,9,,,,,,,,7,,,,34,92
4520,note_off,0,0,10,,,,,,,,8,,,,70,64
4520,note_off,80,0,10,,,,,,,,8,,,,82,64
4520,note_off,80,0,8,,,,,,,,6,,,,46,64
4520,note_off,0,0,5,,,,,,,,3,,,,70,64
4520,note_off,80,0,7,,,,,,,,5,,,,62,64
4520,note_off,80,0,13,,,,,,,,12,,,,46,64
4520,note_off,80,0,12,,,,,,,,11,,,,62,64
4520,note_off,80,0,9,,,,,,,,7,,,,34,64
4520,note_off,80,0,14,,,,,,,,13,,,,34,64
4520,note_off,80,0,11,,,,,,,,10,,,,79,64
4520,note_off,80,0,6,,,,,,,,4,,,,79,64
4520,note_off,80,0,5,,,,,,,,3,,,,82,64
4675,note_off,235,0,15,,,,,,,,14,,,,34,64
4680,note_on,160,0,5,,,,,,,,3,,,,69,92
4680,note_on,0,0,5,,,,,,,,3,,,,81,92
4680,note_on,160,0,9,,,,,,,,7,,,,35,92
4680,note_on,160,0,14,,,,,,,,13,,,,35,75
4680,note_on,5,0,15,,,,,,,,14,,,,35,60
4680,note_on,0,0,10,,,,,,,,8,,,,81,75
4680,note_on,160,0,10,,,,,,,,8,,,,69,75
4680,note_on,160,0,11,,,,,,,,10,,,,77,75
4680,note_on,160,0,7,,,,,,,,5,,,,62,92
4680,note_on,160,0,13,,,,,,,,12,,,,47,75
4680,note_on,160,0,12,,,,,,,,11,,,,62,75
4680,note_on,160,0,8,,,,,,,,6,,,,47,92
4680,note_on,160,0,6,,,,,,,,4,,,,77,92
4760,note_off,80,0,10,,,,,,,,8,,,,81,64
4760,note_off,0,0,10,,,,,,,,8,,,,69,64
4760,note_off,80,0,12,,,,,,,,11,,,,62,64
4760,note_off,80,0,6,,,,,,,,4,,,,77,64
4760,note_off,80,0,13,,,,,,,,12,,,,47,64
4760,note_off,80,0,5,,,,,,,,3,,,,81,64
4760,note_off,80,0,9,,,,,,,,7,,,,35,64
4760,note_off,80,0,8,,,,,,,,6,,,,47,64
4760,note_off,80,0,7,,,,,,,,5,,,,62,64
4760,note_off,80,0,11,,,,,,,,10,,,,77,64
4760,note_off,80,0,14,,,,,,,,13,,,,35,64
4760,note_off,0,0,5,,,,,,,,3,,,,69,64
4915,note_off,235,0,15,,,,,,,,14,,,,35,64
4920,set_tempo,720,1,0,500000,,,,,,,,,,,,
4920,note_on,160,0,13,,,,,,,,12,,,,48,75
4920,note_on,160,0,12,,,,,,,,11,,,,64,75
4920,note_on,160,0,6,,,,,,,,4,,,,76,92
4920,note_on,0,0,5,,,,,,,,3,,,,79,92
4920,note_on,160,0,5,,,,,,,,3,,,,67,92
4920,note_on,160,0,8,,,,,,,,6,,,,48,92
4920,note_on,160,0,14,,,,,,,,13,,,,36,75
4920,note_on,160,0,10,,,,,,,,8,,,,67,75
4920,note_on,160,0,9,,,,,,,,7,,,,36,92
4920,note_on,0,0,10,,,,,,,,8,,,,79,75
4920,note_on,160,0,7,,,,,,,,5,,,,64,92
4920,note_on,160,0,11,,,,,,,,10,,,,76,75
4920,note_on,5,0,15,,,,,,,,14,,,,36,60
5320,note_off,400,0,7,,,,,,,,5,,,,64,64
5320,note_off,400,0,13,,,,,,,,12,,,,48,64
5320,note_off,400,0,6,,,,,,,,4,,,,76,64
5320,note_off,0,0,5,,,,,,,,3,,,,67,64
5320,note_off,400,0,11,,,,,,,,10,,,,76,64
5320,note_off,400,0,12,,,,,,,,11,,,,64,64
5320,note_off,0,0,10,,,,,,,,8,,,,67,64
5320,note_off,400,0,10,,,,,,,,8,,,,79,64
5320,note_off,400,0,9,,,,,,,,7,,,,36,64
5320,note_off,400,0,8,,,,,,,,6,,,,48,64
5320,note_off,400,0,5,,,,,,,,3,,,,79,64
5320,note_off,400,0,15,,,,,,,,14,,,,36,64
5320,note_off,400,0,14,,,,,,,,13,,,,36,64
6000,note_on,0,0,10,,,,,,,,8,,,,81,45
6000,note_on,680,0,14,,,,,,,,13,,,,41,45
6000,note_on,680,0,10,,,,,,,,8,,,,69,45
6000,note_on,680,0,6,,,,,,,,4,,,,77,45
6000,note_on,680,0,12,,,,,,,,11,,,,69,45
6000,note_on,680,0,5,,,,,,,,3,,,,69,45
6000,note_on,680,0,13,,,,,,,,12,,,,53,45
6000,note_on,680,0,7,,,,,,,,5,,,,69,45
6000,note_on,680,0,15,,,,,,,,14,,,,41,45
6000,note_on,680,0,9,,,,,,,,7,,,,41,45
6000,set_tempo,1080,1,0,500000,,,,,,,,,,,,
6000,note_on,680,0,8,,,,,,,,6,,,,53,45
6000,note_on,0,0,5,,,,,,,,3,,,,81,45
6000,note_on,680,0,11,,,,,,,,10,,,,77,45
6080,note_off,80,0,7,,,,,,,,5,,,,69,64
6080,note_off,80,0,6,,,,,,,,4,,,,77,64
6080,note_off,80,0,11,,,,,,,,10,,,,77,64
6080,note_off,80,0,9,,,,,,,,7,,,,41,64
6080,note_off,80,0,13,,,,,,,,12,,,,53,64
6080,note_off,80,0,12,,,,,,,,11,,,,69,64
6080,note_off,80,0,5,,,,,,,,3,,,,81,64
6080,note_off,80,0,10,,,,,,,,8,,,,81,64
6080,note_off,0,0,10,,,,,,,,8,,,,69,64
6080,note_off,80,0,14,,,,,,,,13,,,,41,64
6080,note_off,0,0,5,,,,,,,,3,,,,69,64
6080,note_off,80,0,8,,,,,,,,6,,,,53,64
6240,note_on,160,0,11,,,,,,,,10,,,,77,45
6240,note_on,160,0,6,,,,,,,,4,,,,77,45
6240,note_on,160,0,12,,,,,,,,11,,,,69,45
6240,note_on,0,0,5,,,,,,,,3,,,,81,45
6240,note_on,160,0,13,,,,,,,,12,,,,53,45
6240,note_on,160,0,8,,,,,,,,6,,,,53,45
6240,note_on,160,0,7,,,,,,,,5,,,,69,45
6240,note_on,0,0,10,,,,,,,,8,,,,81,45
6240,note_on,160,0,10,,,,,,,,8,,,,69,45
6240,note_on,160,0,5,,,,,,,,3,,,,69,45
6240,note_on,160,0,9,,,,,,,,7,,,,41,45
6240,note_on,160,0,14,,,,,,,,13,,,,41,45
6320,note_off,80,0,9,,,,,,,,7,,,,41,64
6320,note_off,80,0,11,,,,,,,,10,,,,77,64
6320,note_off,0,0,5,,,,,,,,3,,,,69,64
6320,note_off,80,0,8,,,,,,,,6,,,,53,64
6320,note_off,80,0,13,,,,,,,,12,,,,53,64
6320,note_off,80,0,12,,,,,,,,11,,,,69,64
6320,note_off,80,0,7,,,,,,,,5,,,,69,64
6320,note_off,80,0,10,,,,,,,,8,,,,81,64
6320,note_off,0,0,10,,,,,,,,8,,,,69,64
6320,note_off,80,0,14,,,,,,,,13,,,,41,64
6320,note_off,80,0,6,,,,,,,,4,,,,77,64
6320,note_off,80,0,5,,,,,,,,3,,,,81,64
6400,note_off,400,0,15,,,,,,,,14,,,,41,64
6480,note_on,160,0,12,,,,,,,,11,,,,69,45
6480,note_on,160,0,7,,,,,,,,5,,,,69,45
6480,note_on,160,0,5,,,,,,,,3,,,,69,45
6480,note_on,0,0,5,,,,,,,,3,,,,81,45
6480,note_on,160,0,10,,,,,,,,8,,,,69,45
6480,note_on,160,0,6,,,,,,,,4,,,,77,45
6480,note_on,160,0,8,,,,,,,,6,,,,53,45
6480,note_on,160,0,11,,,,,,,,10,,,,77,45
6480,note_on,0,0,10,,,,,,,,8,,,,81,45
6480,note_on,160,0,14,,,,,,,,13,,,,41,45
6480,note_on,160,0,13,,,,,,,,12,,,,53,45
6480,note_on,160,0,9,,,,,,,,7,,,,41,45
6560,note_off,80,0,9,,,,,,,,7,,,,41,64
6560,note_off,80,0,8,,,,,,,,6,,,,53,64
6560,note_off,80,0,11,,,,,,,,10,,,,77,64
6560,note_off,80,0,6,,,,,,,,4,,,,77,64
6560,note_off,80,0,7,,,,,,,,5,,,,69,64
6560,note_off,80,0,14,,,,,,,,13,,,,41,64
6560,note_off,80,0,10,,,,,,,,8,,,,81,64
6560,note_off,0,0,10,,,,,,,,8,,,,69,64
6560,note_off,80,0,12,,,,,,,,11,,,,69,64
6560,note_off,80,0,5,,,,,,,,3,,,,81,64
6560,note_off,0,0,5,,,,,,,,3,,,,69,64
6560,note_off,80,0,13,,,,,,,,12,,,,53,64
6720,note_on,160,0,13,,,,,,,,12,,,,48,45
6720,note_on,160,0,10,,,,,,,,8,,,,70,45
6720,note_on,160,0,6,,,,,,,,4,,,,79,45
6720,note_on,160,0,9,,,,,,,,7,,,,36,45
6720,note_on,160,0,11,,,,,,,,10,,,,79,45
6720,note_on,0,0,5,,,,,,,,3,,,,82,45
6720,note_on,160,0,5,,,,,,,,3,,,,70,45
6720,note_on,160,0,14,,,,,,,,13,,,,36,45
6720,note_on,320,0,15,,,,,,,,14,,,,36,45
6720,note_on,160,0,8,,,,,,,,6,,,,48,45
6720,note_on,160,0,12,,,,,,,,11,,,,64,45
6720,note_on,0,0,10,,,,,,,,8,,,,82,45
6720,note_on,160,0,7,,,,,,,,5,,,,64,45
6800,note_off,80,0,7,,,,,,,,5,,,,64,64
6800,note_off,80,0,8,,,,,,,,6,,,,48,64
6800,note_off,80,0,11,,,,,,,,10,,,,79,64
6800,note_off,80,0,6,,,,,,,,4,,,,79,64
6800,note_off,80,0,9,,,,,,,,7,,,,36,64
6800,note_off,0,0,5,,,,,,,,3,,,,70,64
6800,note_off,80,0,5,,,,,,,,3,,,,82,64
6800,note_off,80,0,14,,,,,,,,13,,,,36,64
6800,note_off,0,0,10,,,,,,,,8,,,,70,64
6800,note_off,80,0,12,,,,,,,,11,,,,64,64
6800,note_off,80,0,10,,,,,,,,8,,,,82,64
6800,note_off,80,0,13,,,,,,,,12,,,,48,64
6955,note_off,235,0,15,,,,,,,,14,,,,36,64
6960,note_on,160,0,6,,,,,,,,4,,,,77,45
6960,note_on,160,0,8,,,,,,,,6,,,,53,45
6960,note_on,0,0,5,,,,,,,,3,,,,81,45
6960,note_on,160,0,13,,,,,,,,12,,,,53,45
6960,note_on,160,0,14,,,,,,,,13,,,,41,45
6960,note_on,0,0,10,,,,,,,,8,,,,81,45
6960,note_on,160,0,11,,,,,,,,10,,,,77,45
6960,note_on,160,0,10,,,,,,,,8,,,,69,45
6960,note_on,160,0,12,,,,,,,,11,,,,69,45
6960,note_on,160,0,5,,,,,,,,3,,,,69,45
6960,note_on,160,0,9,,,,,,,,7,,,,41,45
6960,note_on,5,0,15,,,,,,,,14,,,,41,45
6960,note_on,160,0,7,,,,,,,,5,,,,69,45
7360,note_off,400,0,6,,,,,,,,4,,,,77,64
7360,note_off,400,0,12,,,,,,,,11,,,,69,64
7360,note_off,400,0,9,,,,,,,,7,,,,41,64
7360,note_off,400,0,10,,,,,,,,8,,,,81,64
7360,note_off,400,0,11,,,,,,,,10,,,,77,64
7360,note_off,400,0,8,,,,,,,,6,,,,53,64
7360,note_off,400,0,7,,,,,,,,5,,,,69,64
7360,note_off,0,0,10,,,,,,,,8,,,,69,64
7360,note_off,0,0,5,,,,,,,,3,,,,69,64
7360,note_off,400,0,5,,,,,,,,3,,,,81,64
7360,note_off,400,0,15,,,,,,,,14,,,,41,64
7360,note_off,400,0,13,,,,,,,,12,,,,53,64
7360,note_off,400,0,14,,,,,,,,13,,,,41,64
7440,note_on,80,0,7,,,,,,,,5,,,,69,45
7440,note_on,80,0,10,,,,,,,,8,,,,69,45
7440,note_on,80,0,6,,,,,,,,4,,,,77,45
7440,note_on,0,0,10,,,,,,,,8,,,,81,45
7440,note_on,80,0,11,,,,,,,,10,,,,77,45
7440,note_on,80,0,13,,,,,,,,12,,,,53,45
7440,note_on,80,0,9,,,,,,,,7,,,,41,45
7440,note_on,80,0,14,,,,,,,,13,,,,41,45
7440,note_on,80,0,12,,,,,,,,11,,,,69,45
7440,note_on,80,0,5,,,,,,,,3,,,,69,45
7440,note_on,0,0,5,,,,,,,,3,,,,81,45
7440,note_on,80,0,8,,,,,,,,6,,,,53,45
7520,note_off,80,0,11,,,,,,,,10,,,,77,64
7520,note_off,80,0,9,,,,,,,,7,,,,41,64
7520,note_off,80,0,5,,,,,,,,3,,,,81,64
7520,note_off,80,0,7,,,,,,,,5,,,,69,64
7520,note_off,0,0,5,,,,,,,,3,,,,69,64
7520,note_off,80,0,10,,,,,,,,8,,,,81,64
7520,note_off,80,0,8,,,,,,,,6,,,,53,64
7520,note_off,80,0,13,,,,,,,,12,,,,53,64
7520,note_off,80,0,6,,,,,,,,4,,,,77,64
7520,note_off,80,0,12,,,,,,,,11,,,,69,64
7520,note_off,80,0,14,,,,,,,,13,,,,41,64
7520,note_off,0,0,10,,,,,,,,8,,,,69,64
7680,note_on,160,0,5,,,,,,,,3,,,,70,45
7680,note_on,160,0,6,,,,,,,,4,,,,79,45
7680,note_on,0,0,10,,,,,,,,8,,,,82,45
7680,note_on,160,0,11,,,,,,,,10,,,,79,45
7680,note_on,160,0,10,,,,,,,,8,,,,70,45
7680,note_on,160,0,13,,,,,,,,12,,,,48,45
7680,note_on,0,0,5,,,,,,,,3,,,,82,45
7680,note_on,160,0,12,,,,,,,,11,,,,64,45
7680,note_on,160,0,14,,,,,,,,13,,,,36,45
7680,note_on,320,0,15,,,,,,,,14,,,,36,45
7680,note_on,160,0,8,,,,,,,,6,,,,48,45
7680,note_on,160,0,9,,,,,,,,7,,,,36,45
7680,note_on,160,0,7,,,,,,,,5,,,,64,45
7760,note_off,80,0,9,,,,,,,,7,,,,36,64
7760,note_off,80,0,12,,,,,,,,11,,,,64,64
7760,note_off,80,0,14,,,,,,,,13,,,,36,64
7760,note_off,80,0,8,,,,,,,,6,,,,48,64
7760,note_off,0,0,10,,,,,,,,8,,,,70,64
7760,note_off,80,0,13,,,,,,,,12,,,,48,64
7760,note_off,80,0,6,,,,,,,,4,,,,79,64
7760,note_off,80,0,5,,,,,,,,3,,,,82,64
7760,note_off,80,0,10,,,,,,,,8,,,,82,64
7760,note_off,80,0,11,,,,,,,,10,,,,79,64
7760,note_off,0,0,5,,,,,,,,3,,,,70,64
7760,note_off,80,0,7,,,,,,,,5,,,,64,64
7915,note_off,235,0,15,,,,,,,,14,,,,36,64
7920,note_on,0,0,10,,,,,,,,8,,,,81,45
7920,note_on,160,0,6,,,,,,,,4,,,,77,45
7920,note_on,160,0,8,,,,,,,,6,,,,53,45
7920,note_on,160,0,5,,,,,,,,3,,,,69,45
7920,note_on,0,0,5,,,,,,,,3,,,,81,45
7920,note_on,160,0,11,,,,,,,,10,,,,77,45
7920,note_on,5,0,15,,,,,,,,14,,,,41,45
7920,note_on,160,0,13,,,,,,,,12,,,,53,45
7920,note_on,160,0,14,,,,,,,,13,,,,41,45
7920,note_on,160,0,7,,,,,,,,5,,,,69,45
7920,note_on,160,0,9,,,,,,,,7,,,,41,45
7920,note_on,160,0,12,,,,,,,,11,,,,69,45
7920,note_on,160,0,10,,,,,,,,8,,,,69,45
8000,note_off,80,0,12,,,,,,,,11,,,,69,64
8000,note_off,80,0,13,,,,,,,,12,,,,53,64
8000,note_off,80,0,8,,,,,,,,6,,,,53,64
8000,note_off,80,0,10,,,,,,,,8,,,,81,64
8000,note_off,80,0,14,,,,,,,,13,,,,41,64
8000,note_off,0,0,10,,,,,,,,8,,,,69,64
8000,note_off,80,0,7,,,,,,,,5,,,,69,64
8000,note_off,80,0,9,,,,,,,,7,,,,41,64
8000,note_off,80,0,11,,,,,,,,10,,,,77,64
8000,note_off,0,0,5,,,,,,,,3,,,,69,64
8000,note_off,80,0,5,,,,,,,,3,,,,81,64
8000,note_off,80,0,6,,,,,,,,4,,,,77,64
8160,note_on,160,0,10,,,,,,,,8,,,,69,45
8160,note_on,160,0,12,,,,,,,,11,,,,69,45
8160,note_on,160,0,11,,,,,,,,10,,,,77,45
8160,note_on,160,0,7,,,,,,,,5,,,,69,45
8160,note_on,160,0,6,,,,,,,,4,,,,77,45
8160,note_on,160,0,14,,,,,,,,13,,,,41,45
8160,note_on,160,0,5,,,,,,,,3,,,,69,45
8160,note_on,0,0,5,,,,,,,,3,,,,81,45
8160,note_on,160,0,8,,,,,,,,6,,,,53,45
8160,note_on,160,0,13,,,,,,,,12,,,,53,45
8160,note_on,160,0,9,,,,,,,,7,,,,41,45
8160,note_on,0,0,10,,,,,,,,8,,,,81,45
8240,note_off,0,0,10,,,,,,,,8,,,,69,64
8240,note_off,80,0,13,,,,,,,,12,,,,53,64
8240,note_off,80,0,10,,,,,,,,8,,,,81,64
8240,note_off,80,0,6,,,,,,,,4,,,,77,64
8240,note_off,80,0,14,,,,,,,,13,,,,41,64
8240,note_off,80,0,7,,,,,,,,5,,,,69,64
8240,note_off,0,0,5,,,,,,,,3,,,,69,64
8240,note_off,80,0,11,,,,,,,,10,,,,77,64
8240,note_off,80,0,5,,,,,,,,3,,,,81,64
8240,note_off,80,0,12,,,,,,,,11,,,,69,64
8240,note_off,80,0,9,,,,,,,,7,,,,41,64
8240,note_off,80,0,8,,,,,,,,6,,,,53,64
8320,note_off,400,0,15,,,,,,,,14,,,,41,64
8400,note_on,160,0,7,,,,,,,,5,,,,69,45
8400,note_on,160,0,5,,,,,,,,3,,,,69,45
8400,note_on,0,0,5,,,,,,,,3,,,,81,45
8400,note_on,0,0,10,,,,,,,,8,,,,81,45
8400,note_on,160,0,11,,,,,,,,10,,,,77,45
8400,note_on,160,0,14,,,,,,,,13,,,,41,45
8400,note_on,160,0,13,,,,,,,,12,,,,53,45
8400,note_on,160,0,6,,,,,,,,4,,,,77,45
8400,note_on,160,0,8,,,,,,,,6,,,,53,45
8400,note_on,160,0,12,,,,,,,,11,,,,69,45
8400,note_on,160,0,9,,,,,,,,7,,,,41,45
8400,note_on,160,0,10,,,,,,,,8,,,,69,45
8480,note_off,80,0,13,,,,,,,,12,,,,53,64
8480,note_off,80,0,14,,,,,,,,13,,,,41,64
8480,note_off,80,0,10,,,,,,,,8,,,,81,64
8480,note_off,0,0,10,,,,,,,,8,,,,69,64
8480,note_off,80,0,12,,,,,,,,11,,,,69,64
8480,note_off,80,0,11,,,,,,,,10,,,,77,64
8480,note_off,80,0,6,,,,,,,,4,,,,77,64
8480,note_off,80,0,5,,,,,,,,3,,,,81,64
8480,note_off,0,0,5,,,,,,,,3,,,,69,64
8480,note_off,80,0,9,,,,,,,,7,,,,41,64
8480,note_off,80,0,7,,,,,,,,5,,,,69,64
8480,note_off,80,0,8,,,,,,,,6,,,,53,64
8640,note_on,0,0,10,,,,,,,,8,,,,82,45
8640,note_on,160,0,10,,,,,,,,8,,,,70,45
8640,note_on,160,0,5,,,,,,,,3,,,,70,45
8640,note_on,0,0,5,,,,,,,,3,,,,82,45
8640,note_on,160,0,14,,,,,,,,13,,,,36,45
8640,note_on,160,0,6,,,,,,,,4,,,,79,45
8640,note_on,160,0,8,,,,,,,,6,,,,48,45
8640,note_on,160,0,7,,,,,,,,5,,,,64,45
8640,note_on,320,0,15,,,,,,,,14,,,,36,45
8640,note_on,160,0,11,,,,,,,,10,,,,79,45
8640,note_on,160,0,12,,,,,,,,11,,,,64,45
8640,note_on,160,0,9,,,,,,,,7,,,,36,45
8640,note_on,160,0,13,,,,,,,,12,,,,48,45
8720,note_off,80,0,13,,,,,,,,12,,,,48,64
8720,note_off,80,0,7,,,,,,,,5,,,,64,64
8720,note_off,0,0,10,,,,,,,,8,,,,70,64
8720,note_off,80,0,12,,,,,,,,11,,,,64,64
8720,note_off,80,0,11,,,,,,,,10,,,,79,64
8720,note_off,80,0,5,,,,,,,,3,,,,82,64
8720,note_off,80,0,10,,,,,,,,8,,,,82,64
8720,note_off,80,0,14,,,,,,,,13,,,,36,64
8720,note_off,80,0,8,,,,,,,,6,,,,48,64
8720,note_off,80,0,6,,,,,,,,4,,,,79,64
8720,note_off,80,0,9,,,,,,,,7,,,,36,64
8720,note_off,0,0,5,,,,,,,,3,,,,70,64
8875,note_off,235,0,15,,,,,,,,14,,,,36,64
8880,note_on,160,0,8,,,,,,,,6,,,,53,45
8880,note_on,160,0,14,,,,,,,,13,,,,41,45
8880,note_on,160,0,10,,,,,,,,8,,,,69,45
8880,note_on,160,0,9,,,,,,,,7,,,,41,45
8880,note_on,160,0,5,,,,,,,,3,,,,69,45
8880,note_on,0,0,5,,,,,,,,3,,,,81,45
8880,note_on,160,0,13,,,,,,,,12,,,,53,45
8880,note_on,160,0,12,,,,,,,,11,,,,69,45
8880,note_on,160,0,6,,,,,,,,4,,,,77,45
8880,note_on,5,0,15,,,,,,,,14,,,,41,45
8880,note_on,160,0,7,,,,,,,,5,,,,69,45
8880,note_on,0,0,10,,,,,,,,8,,,,81,45
8880,note_on,160,0,11,,,,,,,,10,,,,77,45
9280,note_off,400,0,5,,,,,,,,3,,,,81,64
9280,note_off,0,0,5,,,,,,,,3,,,,69,64
9280,note_off,400,0,8,,,,,,,,6,,,,53,64
9280,note_off,400,0,6,,,,,,,,4,,,,77,64
9280,note_off,400,0,15,,,,,,,,14,,,,41,64
9280,note_off,400,0,9,,,,,,,,7,,,,41,64
9280,note_off,400,0,10,,,,,,,,8,,,,81,64
9280,note_off,400,0,14,,,,,,,,13,,,,41,64
9280,note_off,0,0,10,,,,,,,,8,,,,69,64
9280,note_off,400,0,7,,,,,,,,5,,,,69,64
9280,note_off,400,0,12,,,,,,,,11,,,,69,64
9280,note_off,400,0,13,,,,,,,,12,,,,53,64
9280,note_off,400,0,11,,,,,,,,10,,,,77,64
9360,note_on,80,0,10,,,,,,,,8,,,,69,45
9360,note_on,0,0,10,,,,,,,,8,,,,81,45
9360,note_on,80,0,5,,,,,,,,3,,,,69,45
9360,note_on,0,0,5,,,,,,,,3,,,,81,45
9360,note_on,80,0,6,,,,,,,,4,,,,77,45
9360,note_on,80,0,11,,,,,,,,10,,,,77,45
9360,note_on,80,0,12,,,,,,,,11,,,,69,45
9360,note_on,80,0,14,,,,,,,,13,,,,41,45
9360,note_on,80,0,9,,,,,,,,7,,,,41,45
9360,note_on,80,0,7,,,,,,,,5,,,,69,45
9360,note_on,80,0,13,,,,,,,,12,,,,53,45
9360,note_on,80,0,8,,,,,,,,6,,,,53,45
9440,note_off,80,0,6,,,,,,,,4,,,,77,64
9440,note_off,80,0,13,,,,,,,,12,,,,53,64
9440,note_off,80,0,9,,,,,,,,7,,,,41,64
9440,note_off,80,0,10,,,,,,,,8,,,,81,64
9440,note_off,80,0,11,,,,,,,,10,,,,77,64
9440,note_off,80,0,14,,,,,,,,13,,,,41,64
9440,note_off,80,0,7,,,,,,,,5,,,,69,64
9440,note_off,80,0,8,,,,,,,,6,,,,53,64
9440,note_off,0,0,10,,,,,,,,8,,,,69,64
9440,note_off,80,0,12,,,,,,,,11,,,,69,64
9440,note_off,80,0,5,,,,,,,,3,,,,81,64
9440,note_off,0,0,5,,,,,,,,3,,,,69,64
9600,note_on,160,0,14,,,,,,,,13,,,,36,45
9600,note_on,160,0,11,,,,,,,,10,,,,79,45
9600,note_on,160,0,7,,,,,,,,5,,,,64,45
9600,note_on,320,0,15,,,,,,,,14,,,,36,45
9600,note_on,160,0,12,,,,,,,,11,,,,64,45
9600,note_on,0,0,5,,,,,,,,3,,,,82,45
9600,note_on,160,0,13,,,,,,,,12,,,,48,45
9600,note_on,160,0,9,,,,,,,,7,,,,36,45
9600,note_on,160,0,8,,,,,,,,6,,,,48,45
9600,note_on,160,0,6,,,,,,,,4,,,,79,45
9600,note_on,160,0,5,,,,,,,,3,,,,70,45
9600,note_on,0,0,10,,,,,,,,8,,,,82,45
9600,note_on,160,0,10,,,,,,,,8,,,,70,45
9680,note_off,80,0,13,,,,,,,,12,,,,48,64
9680,note_off,80,0,11,,,,,,,,10,,,,79,64
9680,note_off,80,0,14,,,,,,,,13,,,,36,64
9680,note_off,80,0,6,,,,,,,,4,,,,79,64
9680,note_off,80,0,7,,,,,,,,5,,,,64,64
9680,note_off,80,0,8,,,,,,,,6,,,,48,64
9680,note_off,80,0,12,,,,,,,,11,,,,64,64
9680,note_off,0,0,5,,,,,,,,3,,,,70,64
9680,note_off,80,0,9,,,,,,,,7,,,,36,64
9680,note_off,80,0,10,,,,,,,,8,,,,82,64
9680,note_off,0,0,10,,,,,,,,8,,,,70,64
9680,note_off,80,0,5,,,,,,,,3,,,,82,64
9835,note_off,235,0,15,,,,,,,,14,,,,36,64
9840,note_on,5,0,15,,,,,,,,14,,,,41,45
9840,note_on,0,0,5,,,,,,,,3,,,,81,45
9840,note_on,160,0,5,,,,,,,,3,,,,69,45
9840,note_on,160,0,6,,,,,,,,4,,,,77,45
9840,note_on,160,0,9,,,,,,,,7,,,,41,45
9840,note_on,160,0,7,,,,,,,,5,,,,69,45
9840,note_on,160,0,10,,,,,,,,8,,,,69,45
9840,note_on,160,0,13,,,,,,,,12,,,,53,45
9840,note_on,160,0,11,,,,,,,,10,,,,77,45
9840,note_on,160,0,12,,,,,,,,11,,,,69,45
9840,note_on,160,0,14,,,,,,,,13,,,,41,45
9840,note_on,0,0,10,,,,,,,,8,,,,81,45
9840,note_on,160,0,8,,,,,,,,6,,,,53,45
9870,note_off,30,0,10,,,,,,,,8,,,,81,64
9870,note_off,0,0,10,,,,,,,,8,,,,69,64
9870,note_on,0,0,10,,,,,,,,8,,,,70,45
9870,note_on,0,0,11,,,,,,,,10,,,,79,45
9870,note_on,0,0,10,,,,,,,,8,,,,82,45
9870,note_on,0,0,5,,,,,,,,3,,,,70,45
9870,note_off,30,0,6,,,,,,,,4,,,,77,64
9870,note_on,0,0,5,,,,,,,,3,,,,82,45
9870,note_off,30,0,11,,,,,,,,10,,,,77,64
9870,note_on,0,0,6,,,,,,,,4,,,,79,45
9870,note_off,30,0,5,,,,,,,,3,,,,81,64
9870,note_off,0,0,5,,,,,,,,3,,,,69,64
9900,note_off,30,0,11,,,,,,,,10,,,,79,64
9900,note_off,30,0,10,,,,,,,,8,,,,82,64
9900,note_off,0,0,10,,,,,,,,8,,,,70,64
9900,note_on,0,0,10,,,,,,,,8,,,,69,45
9900,note_on,0,0,11,,,,,,,,10,,,,77,45
9900,note_off,30,0,6,,,,,,,,4,,,,79,64
9900,note_on,0,0,6,,,,,,,,4,,,,77,45
9900,note_on,0,0,10,,,,,,,,8,,,,81,45
9900,note_on,0,0,5,,,,,,,,3,,,,81,45
9900,note_on,0,0,5,,,,,,,,3,,,,69,45
9900,note_off,0,0,5,,,,,,,,3,,,,70,64
9900,note_off,30,0,5,,,,,,,,3,,,,82,64
9920,note_off,80,0,9,,,,,,,,7,,,,41,64
9920,note_off,80,0,7,,,,,,,,5,,,,69,64
9920,note_off,80,0,12,,,,,,,,11,,,,69,64
9920,note_off,80,0,13,,,,,,,,12,,,,53,64
9920,note_off,80,0,14,,,,,,,,13,,,,41,64
9920,note_off,80,0,8,,,,,,,,6,,,,53,64
9930,note_on,0,0,5,,,,,,,,3,,,,82,45
9930,note_on,0,0,5,,,,,,,,3,,,,70,45
9930,note_off,0,0,5,,,,,,,,3,,,,69,64
9930,note_off,30,0,5,,,,,,,,3,,,,81,64
9930,note_off,30,0,11,,,,,,,,10,,,,77,64
9930,note_on,0,0,11,,,,,,,,10,,,,79,45
9930,note_on,0,0,6,,,,,,,,4,,,,79,45
9930,note_off,30,0,6,,,,,,,,4,,,,77,64
9930,note_on,0,0,10,,,,,,,,8,,,,82,45
9930,note_on,0,0,10,,,,,,,,8,,,,70,45
9930,note_off,0,0,10,,,,,,,,8,,,,69,64
9930,note_off,30,0,10,,,,,,,,8,,,,81,64
9960,note_on,0,0,11,,,,,,,,10,,,,77,45
9960,note_on,0,0,5,,,,,,,,3,,,,81,45
9960,note_on,0,0,5,,,,,,,,3,,,,69,45
9960,note_off,0,0,5,,,,,,,,3,,,,70,64
9960,note_on,0,0,6,,,,,,,,4,,,,77,45
9960,note_off,30,0,5,,,,,,,,3,,,,82,64
9960,note_off,30,0,6,,,,,,,,4,,,,79,64
9960,note_off,30,0,10,,,,,,,,8,,,,82,64
9960,note_off,0,0,10,,,,,,,,8,,,,70,64
9960,note_on,0,0,10,,,,,,,,8,,,,69,45
9960,note_on,0,0,10,,,,,,,,8,,,,81,45
9960,note_off,30,0,11,,,,,,,,10,,,,79,64
9990,note_on,0,0,10,,,,,,,,8,,,,70,45
9990,note_off,30,0,11,,,,,,,,10,,,,77,64
9990,note_off,30,0,10,,,,,,,,8,,,,81,64
9990,note_off,30,0,5,,,,,,,,3,,,,81,64
9990,note_on,0,0,5,,,,,,,,3,,,,70,45
9990,note_off,0,0,10,,,,,,,,8,,,,69,64
9990,note_on,0,0,5,,,,,,,,3,,,,82,45
9990,note_on,0,0,10,,,,,,,,8,,,,82,45
9990,note_off,0,0,5,,,,,,,,3,,,,69,64
9990,note_on,0,0,11,,,,,,,,10,,,,79,45
9990,note_on,0,0,6,,,,,,,,4,,,,79,45
9990,note_off,30,0,6,,,,,,,,4,,,,77,64
10020,note_on,0,0,6,,,,,,,,4,,,,77,45
10020,note_on,0,0,10,,,,,,,,8,,,,69,45
10020,note_on,0,0,10,,,,,,,,8,,,,81,45
10020,note_on,0,0,5,,,,,,,,3,,,,81,45
10020,note_on,0,0,5,,,,,,,,3,,,,69,45
10020,note_off,30,0,6,,,,,,,,4,,,,79,64
10020,note_off,30,0,10,,,,,,,,8,,,,82,64
10020,note_off,0,0,5,,,,,,,,3,,,,70,64
10020,note_off,30,0,5,,,,,,,,3,,,,82,64
10020,note_off,0,0,10,,,,,,,,8,,,,70,64
10020,note_off,30,0,11,,,,,,,,10,,,,79,64
10020,note_on,0,0,11,,,,,,,,10,,,,77,45
10050,note_off,0,0,5,,,,,,,,3,,,,69,64
10050,note_off,30,0,5,,,,,,,,3,,,,81,64
10050,note_on,0,0,6,,,,,,,,4,,,,79,45
10050,note_on,0,0,11,,,,,,,,10,,,,79,45
10050,note_on,0,0,5,,,,,,,,3,,,,70,45
10050,note_on,0,0,10,,,,,,,,8,,,,82,45
10050,note_on,0,0,10,,,,,,,,8,,,,70,45
10050,note_off,0,0,10,,,,,,,,8,,,,69,64
10050,note_off,30,0,10,,,,,,,,8,,,,81,64
10050,note_off,30,0,11,,,,,,,,10,,,,77,64
10050,note_on,0,0,5,,,,,,,,3,,,,82,45
10050,note_off,30,0,6,,,,,,,,4,,,,77,64
10080,note_on,160,0,9,,,,,,,,7,,,,41,45
10080,note_on,160,0,12,,,,,,,,11,,,,69,45
10080,note_off,0,0,5,,,,,,,,3,,,,70,64
10080,note_off,30,0,11,,,,,,,,10,,,,79,64
10080,note_on,0,0,11,,,,,,,,10,,,,76,45
10080,note_on,0,0,5,,,,,,,,3,,,,79,45
10080,note_on,0,0,5,,,,,,,,3,,,,67,45
10080,note_on,160,0,14,,,,,,,,13,,,,41,45
10080,note_on,160,0,7,,,,,,,,5,,,,69,45
10080,note_on,0,0,10,,,,,,,,8,,,,79,45
10080,note_on,160,0,13,,,,,,,,12,,,,53,45
10080,note_on,0,0,10,,,,,,,,8,,,,67,45
10080,note_off,0,0,10,,,,,,,,8,,,,70,64
10080,note_off,30,0,10,,,,,,,,8,,,,82,64
10080,set_tempo,4080,1,0,535714,,,,,,,,,,,,
10080,note_off,30,0,6,,,,,,,,4,,,,79,64
10080,note_on,0,0,6,,,,,,,,4,,,,76,45
10080,note_off,30,0,5,,,,,,,,3,,,,82,64
10080,note_on,160,0,8,,,,,,,,6,,,,53,45
10160,note_off,80,0,12,,,,,,,,11,,,,69,64
10160,note_off,80,0,9,,,,,,,,7,,,,41,64
10160,note_off,80,0,5,,,,,,,,3,,,,79,64
10160,note_off,80,0,11,,,,,,,,10,,,,76,64
10160,note_off,80,0,13,,,,,,,,12,,,,53,64
10160,note_off,80,0,8,,,,,,,,6,,,,53,64
10160,note_off,80,0,10,,,,,,,,8,,,,79,64
10160,note_off,0,0,10,,,,,,,,8,,,,67,64
10160,note_off,80,0,14,,,,,,,,13,,,,41,64
10160,note_off,80,0,6,,,,,,,,4,,,,76,64
10160,note_off,0,0,5,,,,,,,,3,,,,67,64
10160,note_off,80,0,7,,,,,,,,5,,,,69,64
10200,note_on,0,0,10,,,,,,,,8,,,,81,45
10200,note_on,40,0,10,,,,,,,,8,,,,69,45
10200,note_on,40,0,11,,,,,,,,10,,,,77,45
10200,note_on,0,0,5,,,,,,,,3,,,,81,45
10200,note_on,40,0,5,,,,,,,,3,,,,69,45
10200,note_on,40,0,6,,,,,,,,4,,,,77,45
10240,note_off,400,0,15,,,,,,,,14,,,,41,64
10280,note_off,80,0,5,,,,,,,,3,,,,81,64
10280,note_off,80,0,11,,,,,,,,10,,,,77,64
10280,note_off,0,0,10,,,,,,,,8,,,,69,64
10280,note_off,80,0,10,,,,,,,,8,,,,81,64
10280,note_off,0,0,5,,,,,,,,3,,,,69,64
10280,note_off,80,0,6,,,,,,,,4,,,,77,64
10320,note_on,40,0,6,,,,,,,,4,,,,79,45
10320,note_on,160,0,14,,,,,,,,13,,,,34,45
10320,note_on,160,0,9,,,,,,,,7,,,,34,45
10320,note_on,40,0,10,,,,,,,,8,,,,70,45
10320,note_on,160,0,8,,,,,,,,6,,,,46,45
10320,note_on,0,0,10,,,,,,,,8,,,,82,45
10320,note_on,160,0,12,,,,,,,,11,,,,62,45
10320,note_on,40,0,11,,,,,,,,10,,,,79,45
10320,note_on,80,0,15,,,,,,,,14,,,,34,45
10320,note_on,160,0,13,,,,,,,,12,,,,46,45
10320,note_on,40,0,5,,,,,,,,3,,,,70,45
10320,note_on,0,0,5,,,,,,,,3,,,,82,45
10320,note_on,160,0,7,,,,,,,,5,,,,62,45
10400,note_off,80,0,7,,,,,,,,5,,,,62,64
10400,note_off,80,0,13,,,,,,,,12,,,,46,64
10400,note_off,80,0,9,,,,,,,,7,,,,34,64
10400,note_off,80,0,14,,,,,,,,13,,,,34,64
10400,note_off,80,0,11,,,,,,,,10,,,,79,64
10400,note_off,80,0,10,,,,,,,,8,,,,82,64
10400,note_off,0,0,10,,,,,,,,8,,,,70,64
10400,note_off,80,0,8,,,,,,,,6,,,,46,64
10400,note_off,80,0,12,,,,,,,,11,,,,62,64
10400,note_off,80,0,6,,,,,,,,4,,,,79,64
10400,note_off,0,0,5,,,,,,,,3,,,,70,64
10400,note_off,80,0,5,,,,,,,,3,,,,82,64
10555,note_off,235,0,15,,,,,,,,14,,,,34,64
10560,note_on,160,0,7,,,,,,,,5,,,,62,45
10560,note_on,160,0,10,,,,,,,,8,,,,69,45
10560,note_on,160,0,14,,,,,,,,13,,,,35,45
10560,note_on,160,0,5,,,,,,,,3,,,,69,45
10560,note_on,0,0,5,,,,,,,,3,,,,81,45
10560,note_on,0,0,10,,,,,,,,8,,,,81,45
10560,note_on,160,0,9,,,,,,,,7,,,,35,45
10560,note_on,160,0,13,,,,,,,,12,,,,47,45
10560,note_on,5,0,15,,,,,,,,14,,,,35,45
10560,note_on,160,0,8,,,,,,,,6,,,,47,45
10560,note_on,160,0,12,,,,,,,,11,,,,62,45
10560,note_on,160,0,6,,,,,,,,4,,,,77,45
10560,note_on,160,0,11,,,,,,,,10,,,,77,45
10640,note_off,80,0,10,,,,,,,,8,,,,81,64
10640,note_off,80,0,9,,,,,,,,7,,,,35,64
10640,note_off,80,0,8,,,,,,,,6,,,,47,64
10640,note_off,80,0,6,,,,,,,,4,,,,77,64
10640,note_off,80,0,13,,,,,,,,12,,,,47,64
10640,note_off,0,0,10,,,,,,,,8,,,,69,64
10640,note_off,80,0,5,,,,,,,,3,,,,81,64
10640,note_off,80,0,11,,,,,,,,10,,,,77,64
10640,note_off,80,0,12,,,,,,,,11,,,,62,64
10640,note_off,80,0,14,,,,,,,,13,,,,35,64
10640,note_off,80,0,7,,,,,,,,5,,,,62,64
10640,note_off,0,0,5,,,,,,,,3,,,,69,64
10795,note_off,235,0,15,,,,,,,,14,,,,35,64
10800,note_on,0,0,10,,,,,,,,8,,,,79,45
10800,note_on,160,0,5,,,,,,,,3,,,,67,45
10800,note_on,0,0,5,,,,,,,,3,,,,79,45
10800,note_on,160,0,6,,,,,,,,4,,,,76,45
10800,note_on,160,0,12,,,,,,,,11,,,,64,45
10800,note_on,160,0,8,,,,,,,,6,,,,48,45
10800,note_on,160,0,10,,,,,,,,8,,,,67,45
10800,note_on,160,0,9,,,,,,,,7,,,,36,45
10800,note_on,160,0,7,,,,,,,,5,,,,64,45
10800,note_on,5,0,15,,,,,,,,14,,,,36,45
10800,note_on,160,0,11,,,,,,,,10,,,,76,45
10800,set_tempo,720,1,0,500000,,,,,,,,,,,,
10800,note_on,160,0,14,,,,,,,,13,,,,36,45
10800,note_on,160,0,13,,,,,,,,12,,,,48,45
11200,note_off,400,0,14,,,,,,,,13,,,,36,64
11200,note_off,400,0,15,,,,,,,,14,,,,36,64
11200,note_off,400,0,13,,,,,,,,12,,,,48,64
11200,note_off,400,0,12,,,,,,,,11,,,,64,64
11200,note_off,0,0,5,,,,,,,,3,,,,67,64
11200,note_off,400,0,5,,,,,,,,3,,,,79,64
11200,note_off,400,0,8,,,,,,,,6,,,,48,64
11200,note_off,400,0,6,,,,,,,,4,,,,76,64
11200,note_off,400,0,9,,,,,,,,7,,,,36,64
11200,note_off,0,0,10,,,,,,,,8,,,,67,64
11200,note_off,400,0,10,,,,,,,,8,,,,79,64
11200,note_off,400,0,7,,,,,,,,5,,,,64,64
11200,note_off,400,0,11,,,,,,,,10,,,,76,64
11820,note_on,620,0,14,,,,,,,,13,,,,41,75
11820,set_tempo,1020,1,0,500000,,,,,,,,,,,,
11820,note_on,620,0,13,,,,,,,,12,,,,53,75
11820,note_on,620,0,15,,,,,,,,14,,,,41,60
11820,note_on,0,0,5,,,,,,,,3,,,,81,92
11820,note_on,620,0,9,,,,,,,,7,,,,41,92
11820,note_on,620,0,5,,,,,,,,3,,,,69,92
11820,note_on,620,0,12,,,,,,,,11,,,,72,75
11820,note_on,620,0,6,,,,,,,,4,,,,77,92
11820,note_on,620,0,8,,,,,,,,6,,,,53,92
11820,note_on,620,0,11,,,,,,,,10,,,,77,75
11820,note_on,620,0,10,,,,,,,,8,,,,69,75
11820,note_on,0,0,10,,,,,,,,8,,,,81,75
11820,note_on,620,0,7,,,,,,,,5,,,,72,92
11900,note_off,80,0,11,,,,,,,,10,,,,77,64
11900,note_off,0,0,10,,,,,,,,8,,,,69,64
11900,note_off,80,0,9,,,,,,,,7,,,,41,64
11900,note_off,80,0,14,,,,,,,,13,,,,41,64
11900,note_off,80,0,10,,,,,,,,8,,,,81,64
11900,note_off,0,0,5,,,,,,,,3,,,,69,64
11900,note_off,80,0,5,,,,,,,,3,,,,81,64
11900,note_off,80,0,6,,,,,,,,4,,,,77,64
11900,note_off,80,0,12,,,,,,,,11,,,,72,64
11900,note_off,80,0,7,,,,,,,,5,,,,72,64
11900,note_off,80,0,13,,,,,,,,12,,,,53,64
11900,note_off,80,0,8,,,,,,,,6,,,,53,64
12060,note_on,160,0,8,,,,,,,,6,,,,57,92
12060,note_on,160,0,6,,,,,,,,4,,,,77,92
12060,note_on,0,0,5,,,,,,,,3,,,,81,92
12060,note_on,160,0,5,,,,,,,,3,,,,69,92
12060,note_on,160,0,7,,,,,,,,5,,,,72,92
12060,note_on,160,0,13,,,,,,,,12,,,,57,75
12060,note_on,160,0,11,,,,,,,,10,,,,77,75
12060,note_on,160,0,12,,,,,,,,11,,,,72,75
12060,note_on,0,0,10,,,,,,,,8,,,,81,75
12060,note_on,160,0,10,,,,,,,,8,,,,69,75
12060,note_on,160,0,14,,,,,,,,13,,,,45,75
12060,note_on,160,0,9,,,,,,,,7,,,,45,92
12140,note_off,80,0,13,,,,,,,,12,,,,57,64
12140,note_off,0,0,10,,,,,,,,8,,,,69,64
12140,note_off,80,0,10,,,,,,,,8,,,,81,64
12140,note_off,80,0,5,,,,,,,,3,,,,81,64
12140,note_off,0,0,5,,,,,,,,3,,,,69,64
12140,note_off,80,0,7,,,,,,,,5,,,,72,64
12140,note_off,80,0,12,,,,,,,,11,,,,72,64
12140,note_off,80,0,9,,,,,,,,7,,,,45,64
12140,note_off,80,0,6,,,,,,,,4,,,,77,64
12140,note_off,80,0,11,,,,,,,,10,,,,77,64
12140,note_off,80,0,8,,,,,,,,6,,,,57,64
12140,note_off,80,0,14,,,,,,,,13,,,,45,64
12220,note_off,400,0,15,,,,,,,,14,,,,41,64
12300,note_on,160,0,12,,,,,,,,11,,,,72,75
12300,note_on,0,0,10,,,,,,,,8,,,,81,75
12300,note_on,160,0,10,,,,,,,,8,,,,69,75
12300,note_on,160,0,7,,,,,,,,5,,,,72,92
12300,note_on,0,0,5,,,,,,,,3,,,,81,92
12300,note_on,160,0,5,,,,,,,,3,,,,69,92
12300,note_on,160,0,6,,,,,,,,4,,,,77,92
12300,note_on,160,0,13,,,,,,,,12,,,,57,75
12300,note_on,160,0,8,,,,,,,,6,,,,57,92
12300,note_on,160,0,11,,,,,,,,10,,,,77,75
12300,note_on,160,0,14,,,,,,,,13,,,,45,75
12300,note_on,160,0,9,,,,,,,,7,,,,45,92
12380,note_off,80,0,10,,,,,,,,8,,,,81,64
12380,note_off,0,0,10,,,,,,,,8,,,,69,64
12380,note_off,80,0,8,,,,,,,,6,,,,57,64
12380,note_off,80,0,14,,,,,,,,13,,,,45,64
12380,note_off,80,0,12,,,,,,,,11,,,,72,64
12380,note_off,80,0,11,,,,,,,,10,,,,77,64
12380,note_off,0,0,5,,,,,,,,3,,,,69,64
12380,note_off,80,0,13,,,,,,,,12,,,,57,64
12380,note_off,80,0,5,,,,,,,,3,,,,81,64
12380,note_off,80,0,7,,,,,,,,5,,,,72,64
12380,note_off,80,0,6,,,,,,,,4,,,,77,64
12380,note_off,80,0,9,,,,,,,,7,,,,45,64
12540,note_on,0,0,5,,,,,,,,3,,,,84,92
12540,note_on,160,0,14,,,,,,,,13,,,,41,75
12540,note_on,160,0,11,,,,,,,,10,,,,81,75
12540,note_on,160,0,8,,,,,,,,6,,,,53,92
12540,note_on,160,0,13,,,,,,,,12,,,,53,75
12540,note_on,160,0,6,,,,,,,,4,,,,81,92
12540,note_on,160,0,12,,,,,,,,11,,,,72,75
12540,note_on,160,0,9,,,,,,,,7,,,,41,92
12540,note_on,160,0,5,,,,,,,,3,,,,72,92
12540,note_on,160,0,10,,,,,,,,8,,,,72,75
12540,note_on,0,0,10,,,,,,,,8,,,,84,75
12540,note_on,320,0,15,,,,,,,,14,,,,41,60
12540,note_on,160,0,7,,,,,,,,5,,,,72,92
12620,note_off,80,0,6,,,,,,,,4,,,,81,64
12620,note_off,80,0,13,,,,,,,,12,,,,53,64
12620,note_off,80,0,10,,,,,,,,8,,,,84,64
12620,note_off,0,0,10,,,,,,,,8,,,,72,64
12620,note_off,80,0,14,,,,,,,,13,,,,41,64
12620,note_off,80,0,12,,,,,,,,11,,,,72,64
12620,note_off,80,0,9,,,,,,,,7,,,,41,64
12620,note_off,80,0,11,,,,,,,,10,,,,81,64
12620,note_off,80,0,5,,,,,,,,3,,,,84,64
12620,note_off,80,0,7,,,,,,,,5,,,,72,64
12620,note_off,0,0,5,,,,,,,,3,,,,72,64
12620,note_off,80,0,8,,,,,,,,6,,,,53,64
12775,note_off,235,0,15,,,,,,,,14,,,,41,64
12780,note_on,160,0,7,,,,,,,,5,,,,70,92
12780,note_on,160,0,12,,,,,,,,11,,,,70,75
12780,note_on,0,0,10,,,,,,,,8,,,,74,75
12780,note_on,160,0,10,,,,,,,,8,,,,62,75
12780,note_on,0,0,5,,,,,,,,3,,,,74,92
12780,note_on,160,0,6,,,,,,,,4,,,,70,92
12780,note_on,160,0,9,,,,,,,,7,,,,43,92
12780,note_on,5,0,15,,,,,,,,14,,,,43,60
12780,note_on,160,0,5,,,,,,,,3,,,,62,92
12780,note_on,160,0,11,,,,,,,,10,,,,70,75
12780,note_on,160,0,13,,,,,,,,12,,,,55,75
12780,note_on,160,0,8,,,,,,,,6,,,,55,92
12780,note_on,160,0,14,,,,,,,,13,,,,43,75
13180,note_off,400,0,7,,,,,,,,5,,,,70,64
13180,note_off,400,0,6,,,,,,,,4,,,,70,64
13180,note_off,400,0,12,,,,,,,,11,,,,70,64
13180,note_off,0,0,10,,,,,,,,8,,,,62,64
13180,note_off,400,0,10,,,,,,,,8,,,,74,64
13180,note_off,400,0,11,,,,,,,,10,,,,70,64
13180,note_off,0,0,5,,,,,,,,3,,,,62,64
13180,note_off,400,0,8,,,,,,,,6,,,,55,64
13180,note_off,400,0,5,,,,,,,,3,,,,74,64
13180,note_off,400,0,13,,,,,,,,12,,,,55,64
13180,note_off,400,0,15,,,,,,,,14,,,,43,64
13180,note_off,400,0,9,,,,,,,,7,,,,43,64
13180,note_off,400,0,14,,,,,,,,13,,,,43,64
13260,note_on,80,0,7,,,,,,,,5,,,,70,92
13260,note_on,80,0,13,,,,,,,,12,,,,55,75
13260,note_on,80,0,6,,,,,,,,4,,,,70,92
13260,note_on,80,0,12,,,,,,,,11,,,,70,75
13260,note_on,0,0,10,,,,,,,,8,,,,74,75
13260,note_on,80,0,10,,,,,,,,8,,,,62,75
13260,note_on,80,0,9,,,,,,,,7,,,,43,92
13260,note_on,80,0,11,,,,,,,,10,,,,70,75
13260,note_on,80,0,14,,,,,,,,13,,,,43,75
13260,note_on,80,0,5,,,,,,,,3,,,,62,92
13260,note_on,0,0,5,,,,,,,,3,,,,74,92
13260,note_on,80,0,8,,,,,,,,6,,,,55,92
13340,note_off,80,0,8,,,,,,,,6,,,,55,64
13340,note_off,80,0,13,,,,,,,,12,,,,55,64
13340,note_off,80,0,6,,,,,,,,4,,,,70,64
13340,note_off,80,0,12,,,,,,,,11,,,,70,64
13340,note_off,80,0,11,,,,,,,,10,,,,70,64
13340,note_off,80,0,7,,,,,,,,5,,,,70,64
13340,note_off,80,0,9,,,,,,,,7,,,,43,64
13340,note_off,0,0,5,,,,,,,,3,,,,62,64
13340,note_off,80,0,5,,,,,,,,3,,,,74,64
13340,note_off,80,0,10,,,,,,,,8,,,,74,64
13340,note_off,0,0,10,,,,,,,,8,,,,62,64
13340,note_off,80,0,14,,,,,,,,13,,,,43,64
13500,note_on,160,0,12,,,,,,,,11,,,,70,75
13500,note_on,160,0,14,,,,,,,,13,,,,43,75
13500,note_on,160,0,8,,,,,,,,6,,,,55,92
13500,note_on,0,0,5,,,,,,,,3,,,,74,92
13500,note_on,160,0,5,,,,,,,,3,,,,62,92
13500,note_on,160,0,10,,,,,,,,8,,,,62,75
13500,note_on,320,0,15,,,,,,,,14,,,,43,60
13500,note_on,160,0,11,,,,,,,,10,,,,70,75
13500,note_on,160,0,13,,,,,,,,12,,,,55,75
13500,note_on,160,0,7,,,,,,,,5,,,,70,92
13500,note_on,160,0,6,,,,,,,,4,,,,70,92
13500,note_on,160,0,9,,,,,,,,7,,,,43,92
13500,note_on,0,0,10,,,,,,,,8,,,,74,75
13580,note_off,0,0,10,,,,,,,,8,,,,62,64
13580,note_off,80,0,6,,,,,,,,4,,,,70,64
13580,note_off,80,0,9,,,,,,,,7,,,,43,64
13580,note_off,80,0,12,,,,,,,,11,,,,70,64
13580,note_off,80,0,14,,,,,,,,13,,,,43,64
13580,note_off,80,0,13,,,,,,,,12,,,,55,64
13580,note_off,80,0,5,,,,,,,,3,,,,74,64
13580,note_off,0,0,5,,,,,,,,3,,,,62,64
13580,note_off,80,0,7,,,,,,,,5,,,,70,64
13580,note_off,80,0,8,,,,,,,,6,,,,55,64
13580,note_off,80,0,11,,,,,,,,10,,,,70,64
13580,note_off,80,0,10,,,,,,,,8,,,,74,64
13735,note_off,235,0,15,,,,,,,,14,,,,43,64
13740,note_on,160,0,6,,,,,,,,4,,,,76,92
13740,note_on,160,0,14,,,,,,,,13,,,,43,75
13740,note_on,5,0,15,,,,,,,,14,,,,43,60
13740,note_on,0,0,5,,,,,,,,3,,,,79,92
13740,note_on,160,0,8,,,,,,,,6,,,,55,92
13740,note_on,160,0,12,,,,,,,,11,,,,70,75
13740,note_on,160,0,11,,,,,,,,10,,,,76,75
13740,note_on,160,0,10,,,,,,,,8,,,,67,75
13740,note_on,160,0,9,,,,,,,,7,,,,46,92
13740,note_on,0,0,10,,,,,,,,8,,,,79,75
13740,note_on,160,0,13,,,,,,,,12,,,,55,75
13740,note_on,160,0,5,,,,,,,,3,,,,67,92
13740,note_on,160,0,7,,,,,,,,5,,,,70,92
13820,note_off,0,0,5,,,,,,,,3,,,,67,64
13820,note_off,80,0,13,,,,,,,,12,,,,55,64
13820,note_off,80,0,10,,,,,,,,8,,,,79,64
13820,note_off,0,0,10,,,,,,,,8,,,,67,64
13820,note_off,80,0,9,,,,,,,,7,,,,46,64
13820,note_off,80,0,7,,,,,,,,5,,,,70,64
13820,note_off,80,0,5,,,,,,,,3,,,,79,64
13820,note_off,80,0,6,,,,,,,,4,,,,76,64
13820,note_off,80,0,14,,,,,,,,13,,,,43,64
13820,note_off,80,0,11,,,,,,,,10,,,,76,64
13820,note_off,80,0,12,,,,,,,,11,,,,70,64
13820,note_off,80,0,8,,,,,,,,6,,,,55,64
13980,note_on,160,0,7,,,,,,,,5,,,,70,92
13980,note_on,160,0,12,,,,,,,,11,,,,70,75
13980,note_on,160,0,13,,,,,,,,12,,,,60,75
13980,note_on,160,0,8,,,,,,,,6,,,,60,92
13980,note_on,160,0,14,,,,,,,,13,,,,48,75
13980,note_on,160,0,5,,,,,,,,3,,,,67,92
13980,note_on,0,0,5,,,,,,,,3,,,,79,92
13980,note_on,160,0,11,,,,,,,,10,,,,76,75
13980,note_on,160,0,9,,,,,,,,7,,,,46,92
13980,note_on,160,0,6,,,,,,,,4,,,,76,92
13980,note_on,0,0,10,,,,,,,,8,,,,79,75
13980,note_on,160,0,10,,,,,,,,8,,,,67,75
14060,note_off,80,0,14,,,,,,,,13,,,,48,64
14060,note_off,80,0,10,,,,,,,,8,,,,79,64
14060,note_off,80,0,9,,,,,,,,7,,,,46,64
14060,note_off,0,0,10,,,,,,,,8,,,,67,64
14060,note_off,80,0,12,,,,,,,,11,,,,70,64
14060,note_off,80,0,8,,,,,,,,6,,,,60,64
14060,note_off,80,0,7,,,,,,,,5,,,,70,64
14060,note_off,80,0,5,,,,,,,,3,,,,79,64
14060,note_off,0,0,5,,,,,,,,3,,,,67,64
14060,note_off,80,0,6,,,,,,,,4,,,,76,64
14060,note_off,80,0,13,,,,,,,,12,,,,60,64
14060,note_off,80,0,11,,,,,,,,10,,,,76,64
14140,note_off,400,0,15,,,,,,,,14,,,,43,64
14220,note_on,160,0,11,,,,,,,,10,,,,76,75
14220,note_on,160,0,9,,,,,,,,7,,,,46,92
14220,note_on,160,0,14,,,,,,,,13,,,,48,75
14220,note_on,160,0,13,,,,,,,,12,,,,60,75
14220,note_on,160,0,10,,,,,,,,8,,,,67,75
14220,note_on,0,0,10,,,,,,,,8,,,,79,75
14220,note_on,160,0,8,,,,,,,,6,,,,60,92
14220,note_on,160,0,7,,,,,,,,5,,,,70,92
14220,note_on,160,0,6,,,,,,,,4,,,,76,92
14220,note_on,160,0,5,,,,,,,,3,,,,67,92
14220,note_on,0,0,5,,,,,,,,3,,,,79,92
14220,note_on,160,0,12,,,,,,,,11,,,,70,75
14300,note_off,80,0,6,,,,,,,,4,,,,76,64
14300,note_off,80,0,9,,,,,,,,7,,,,46,64
14300,note_off,80,0,8,,,,,,,,6,,,,60,64
14300,note_off,80,0,7,,,,,,,,5,,,,70,64
14300,note_off,80,0,11,,,,,,,,10,,,,76,64
14300,note_off,0,0,5,,,,,,,,3,,,,67,64
14300,note_off,80,0,5,,,,,,,,3,,,,79,64
14300,note_off,80,0,14,,,,,,,,13,,,,48,64
14300,note_off,0,0,10,,,,,,,,8,,,,67,64
14300,note_off,80,0,10,,,,,,,,8,,,,79,64
14300,note_off,80,0,12,,,,,,,,11,,,,70,64
14300,note_off,80,0,13,,,,,,,,12,,,,60,64
14460,note_on,0,0,5,,,,,,,,3,,,,82,92
14460,note_on,160,0,8,,,,,,,,6,,,,48,92
14460,note_on,160,0,7,,,,,,,,5,,,,70,92
14460,note_on,160,0,5,,,,,,,,3,,,,70,92
14460,note_on,0,0,10,,,,,,,,8,,,,82,75
14460,note_on,160,0,10,,,,,,,,8,,,,70,75
14460,note_on,160,0,13,,,,,,,,12,,,,48,75
14460,note_on,160,0,12,,,,,,,,11,,,,70,75
14460,note_on,160,0,14,,,,,,,,13,,,,36,75
14460,note_on,320,0,15,,,,,,,,14,,,,36,60
14460,note_on,160,0,11,,,,,,,,10,,,,79,75
14460,note_on,160,0,9,,,,,,,,7,,,,50,92
14460,note_on,160,0,6,,,,,,,,4,,,,79,92
14540,note_off,80,0,12,,,,,,,,11,,,,70,64
14540,note_off,80,0,10,,,,,,,,8,,,,82,64
14540,note_off,0,0,10,,,,,,,,8,,,,70,64
14540,note_off,80,0,14,,,,,,,,13,,,,36,64
14540,note_off,80,0,7,,,,,,,,5,,,,70,64
14540,note_off,80,0,9,,,,,,,,7,,,,50,64
14540,note_off,80,0,8,,,,,,,,6,,,,48,64
14540,note_off,80,0,11,,,,,,,,10,,,,79,64
14540,note_off,80,0,6,,,,,,,,4,,,,79,64
14540,note_off,80,0,5,,,,,,,,3,,,,82,64
14540,note_off,0,0,5,,,,,,,,3,,,,70,64
14540,note_off,80,0,13,,,,,,,,12,,,,48,64
14695,note_off,235,0,15,,,,,,,,14,,,,36,64
14700,note_on,160,0,8,,,,,,,,6,,,,53,92
14700,note_on,160,0,9,,,,,,,,7,,,,40,92
14700,note_on,5,0,15,,,,,,,,14,,,,41,60
14700,note_on,160,0,11,,,,,,,,10,,,,69,75
14700,note_on,160,0,14,,,,,,,,13,,,,41,75
14700,note_on,160,0,12,,,,,,,,11,,,,69,75
14700,note_on,160,0,13,,,,,,,,12,,,,53,75
14700,note_on,0,0,5,,,,,,,,3,,,,72,92
14700,note_on,160,0,10,,,,,,,,8,,,,60,75
14700,note_on,0,0,10,,,,,,,,8,,,,72,75
14700,note_on,160,0,5,,,,,,,,3,,,,60,92
14700,note_on,160,0,6,,,,,,,,4,,,,69,92
14700,note_on,160,0,7,,,,,,,,5,,,,69,92
15100,note_off,0,0,10,,,,,,,,8,,,,60,64
15100,note_off,400,0,10,,,,,,,,8,,,,72,64
15100,note_off,400,0,12,,,,,,,,11,,,,69,64
15100,note_off,400,0,11,,,,,,,,10,,,,69,64
15100,note_off,400,0,13,,,,,,,,12,,,,53,64
15100,note_off,400,0,14,,,,,,,,13,,,,41,64
15100,note_off,400,0,15,,,,,,,,14,,,,41,64
15100,note_off,400,0,5,,,,,,,,3,,,,72,64
15100,note_off,0,0,5,,,,,,,,3,,,,60,64
15100,note_off,400,0,6,,,,,,,,4,,,,69,64
15100,note_off,400,0,9,,,,,,,,7,,,,40,64
15100,note_off,400,0,8,,,,,,,,6,,,,53,64
15100,note_off,400,0,7,,,,,,,,5,,,,69,64
15180,note_on,80,0,6,,,,,,,,4,,,,69,69
15180,note_on,80,0,11,,,,,,,,10,,,,69,60
15180,note_on,80,0,14,,,,,,,,13,,,,41,60
15180,note_on,80,0,8,,,,,,,,6,,,,53,69
15180,note_on,80,0,13,,,,,,,,12,,,,53,60
15180,note_on,80,0,12,,,,,,,,11,,,,69,60
15180,note_on,80,0,9,,,,,,,,7,,,,40,69
15180,note_on,0,0,10,,,,,,,,8,,,,72,60
15180,note_on,80,0,5,,,,,,,,3,,,,60,69
15180,note_on,0,0,5,,,,,,,,3,,,,72,69
15180,note_on,80,0,10,,,,,,,,8,,,,60,60
15180,note_on,80,0,7,,,,,,,,5,,,,69,69
15260,note_off,80,0,7,,,,,,,,5,,,,69,64
15260,note_off,0,0,5,,,,,,,,3,,,,60,64
15260,note_off,80,0,9,,,,,,,,7,,,,40,64
15260,note_off,80,0,5,,,,,,,,3,,,,72,64
15260,note_off,80,0,10,,,,,,,,8,,,,72,64
15260,note_off,80,0,8,,,,,,,,6,,,,53,64
15260,note_off,80,0,13,,,,,,,,12,,,,53,64
15260,note_off,0,0,10,,,,,,,,8,,,,60,64
15260,note_off,80,0,6,,,,,,,,4,,,,69,64
15260,note_off,80,0,14,,,,,,,,13,,,,41,64
15260,note_off,80,0,12,,,,,,,,11,,,,69,64
15260,note_off,80,0,11,,,,,,,,10,,,,69,64
15420,note_on,160,0,10,,,,,,,,8,,,,65,53
15420,note_on,160,0,13,,,,,,,,12,,,,53,53
15420,note_on,320,0,15,,,,,,,,14,,,,41,49
15420,note_on,160,0,14,,,,,,,,13,,,,41,53
15420,note_on,160,0,9,,,,,,,,7,,,,45,57
15420,note_on,160,0,12,,,,,,,,11,,,,69,53
15420,note_on,160,0,11,,,,,,,,10,,,,74,53
15420,note_on,0,0,10,,,,,,,,8,,,,77,53
15420,note_on,160,0,7,,,,,,,,5,,,,69,57
15420,note_on,160,0,6,,,,,,,,4,,,,74,57
15420,note_on,160,0,5,,,,,,,,3,,,,65,57
15420,note_on,0,0,5,,,,,,,,3,,,,77,57
15420,note_on,160,0,8,,,,,,,,6,,,,53,57
15500,note_off,80,0,10,,,,,,,,8,,,,77,64
15500,note_off,80,0,9,,,,,,,,7,,,,45,64
15500,note_off,0,0,10,,,,,,,,8,,,,65,64
15500,note_off,80,0,7,,,,,,,,5,,,,69,64
15500,note_off,80,0,11,,,,,,,,10,,,,74,64
15500,note_off,80,0,13,,,,,,,,12,,,,53,64
15500,note_off,80,0,14,,,,,,,,13,,,,41,64
15500,note_off,80,0,12,,,,,,,,11,,,,69,64
15500,note_off,80,0,8,,,,,,,,6,,,,53,64
15500,note_off,80,0,6,,,,,,,,4,,,,74,64
15500,note_off,80,0,5,,,,,,,,3,,,,77,64
15500,note_off,0,0,5,,,,,,,,3,,,,65,64
15655,note_off,235,0,15,,,,,,,,14,,,,41,64
15660,note_on,160,0,14,,,,,,,,13,,,,41,45
15660,note_on,160,0,9,,,,,,,,7,,,,48,45
15660,note_on,160,0,12,,,,,,,,11,,,,69,45
15660,note_on,160,0,8,,,,,,,,6,,,,53,45
15660,note_on,0,0,5,,,,,,,,3,,,,81,45
15660,note_on,160,0,10,,,,,,,,8,,,,69,45
15660,note_on,0,0,10,,,,,,,,8,,,,81,45
15660,note_on,160,0,7,,,,,,,,5,,,,69,45
15660,note_on,160,0,6,,,,,,,,4,,,,77,45
15660,note_on,160,0,5,,,,,,,,3,,,,69,45
15660,note_on,160,0,11,,,,,,,,10,,,,77,45
15660,note_on,160,0,13,,,,,,,,12,,,,53,45
15660,note_on,5,0,15,,,,,,,,14,,,,41,45
15740,note_off,80,0,11,,,,,,,,10,,,,77,64
15740,note_off,80,0,13,,,,,,,,12,,,,53,64
15740,note_off,80,0,12,,,,,,,,11,,,,69,64
15740,note_off,0,0,10,,,,,,,,8,,,,69,64
15740,note_off,80,0,9,,,,,,,,7,,,,48,64
15740,note_off,80,0,10,,,,,,,,8,,,,81,64
15740,note_off,80,0,6,,,,,,,,4,,,,77,64
15740,note_off,80,0,14,,,,,,,,13,,,,41,64
15740,note_off,80,0,5,,,,,,,,3,,,,81,64
15740,note_off,0,0,5,,,,,,,,3,,,,69,64
15740,note_off,80,0,7,,,,,,,,5,,,,69,64
15740,note_off,80,0,8,,,,,,,,6,,,,53,64
15900,note_on,160,0,8,,,,,,,,6,,,,53,45
15900,note_on,160,0,14,,,,,,,,13,,,,41,45
15900,note_on,160,0,5,,,,,,,,3,,,,69,45
15900,note_on,160,0,10,,,,,,,,8,,,,69,45
15900,note_on,160,0,9,,,,,,,,7,,,,48,45
15900,note_on,160,0,12,,,,,,,,11,,,,69,45
15900,note_on,160,0,11,,,,,,,,10,,,,77,45
15900,note_on,0,0,10,,,,,,,,8,,,,81,45
15900,note_on,0,0,5,,,,,,,,3,,,,81,45
15900,note_on,160,0,13,,,,,,,,12,,,,53,45
15900,note_on,160,0,7,,,,,,,,5,,,,69,45
15900,note_on,160,0,6,,,,,,,,4,,,,77,45
15980,note_off,80,0,7,,,,,,,,5,,,,69,64
15980,note_off,80,0,6,,,,,,,,4,,,,77,64
15980,note_off,80,0,13,,,,,,,,12,,,,53,64
15980,note_off,80,0,8,,,,,,,,6,,,,53,64
15980,note_off,80,0,11,,,,,,,,10,,,,77,64
15980,note_off,80,0,9,,,,,,,,7,,,,48,64
15980,note_off,80,0,14,,,,,,,,13,,,,41,64
15980,note_off,80,0,5,,,,,,,,3,,,,81,64
15980,note_off,80,0,12,,,,,,,,11,,,,69,64
15980,note_off,80,0,10,,,,,,,,8,,,,81,64
15980,note_off,0,0,10,,,,,,,,8,,,,69,64
15980,note_off,0,0,5,,,,,,,,3,,,,69,64
16060,note_off,400,0,15,,,,,,,,14,,,,41,64
16140,note_on,0,0,5,,,,,,,,3,,,,81,45
16140,note_on,160,0,11,,,,,,,,10,,,,77,45
16140,note_on,160,0,12,,,,,,,,11,,,,69,45
16140,note_on,160,0,7,,,,,,,,5,,,,69,45
16140,note_on,0,0,10,,,,,,,,8,,,,81,45
16140,note_on,160,0,6,,,,,,,,4,,,,77,45
16140,note_on,160,0,9,,,,,,,,7,,,,48,45
16140,note_on,160,0,10,,,,,,,,8,,,,69,45
16140,note_on,160,0,5,,,,,,,,3,,,,69,45
16140,note_on,160,0,13,,,,,,,,12,,,,53,45
16140,note_on,160,0,14,,,,,,,,13,,,,41,45
16140,note_on,160,0,8,,,,,,,,6,,,,53,45
16220,note_off,80,0,10,,,,,,,,8,,,,81,64
16220,note_off,0,0,10,,,,,,,,8,,,,69,64
16220,note_off,80,0,12,,,,,,,,11,,,,69,64
16220,note_off,80,0,6,,,,,,,,4,,,,77,64
16220,note_off,80,0,11,,,,,,,,10,,,,77,64
16220,note_off,80,0,13,,,,,,,,12,,,,53,64
16220,note_off,80,0,8,,,,,,,,6,,,,53,64
16220,note_off,80,0,5,,,,,,,,3,,,,81,64
16220,note_off,80,0,14,,,,,,,,13,,,,41,64
16220,note_off,0,0,5,,,,,,,,3,,,,69,64
16220,note_off,80,0,9,,,,,,,,7,,,,48,64
16220,note_off,80,0,7,,,,,,,,5,,,,69,64
16380,note_on,160,0,9,,,,,,,,7,,,,50,45
16380,note_on,160,0,6,,,,,,,,4,,,,79,45
16380,note_on,160,0,11,,,,,,,,10,,,,79,45
16380,note_on,160,0,5,,,,,,,,3,,,,70,45
16380,note_on,320,0,15,,,,,,,,14,,,,36,45
16380,note_on,160,0,12,,,,,,,,11,,,,64,45
16380,note_on,160,0,13,,,,,,,,12,,,,48,45
16380,note_on,160,0,10,,,,,,,,8,,,,70,45
16380,note_on,0,0,10,,,,,,,,8,,,,82,45
16380,note_on,160,0,7,,,,,,,,5,,,,64,45
16380,note_on,160,0,8,,,,,,,,6,,,,48,45
16380,note_on,160,0,14,,,,,,,,13,,,,36,45
16380,note_on,0,0,5,,,,,,,,3,,,,82,45
16460,note_off,80,0,9,,,,,,,,7,,,,50,64
16460,note_off,80,0,11,,,,,,,,10,,,,79,64
16460,note_off,80,0,6,,,,,,,,4,,,,79,64
16460,note_off,80,0,8,,,,,,,,6,,,,48,64
16460,note_off,80,0,7,,,,,,,,5,,,,64,64
16460,note_off,80,0,10,,,,,,,,8,,,,82,64
16460,note_off,0,0,10,,,,,,,,8,,,,70,64
16460,note_off,80,0,12,,,,,,,,11,,,,64,64
16460,note_off,0,0,5,,,,,,,,3,,,,70,64
16460,note_off,80,0,5,,,,,,,,3,,,,82,64
16460,note_off,80,0,14,,,,,,,,13,,,,36,64
16460,note_off,80,0,13,,,,,,,,12,,,,48,64
16615,note_off,235,0,15,,,,,,,,14,,,,36,64
16620,note_on,0,0,5,,,,,,,,3,,,,81,45
16620,note_on,160,0,8,,,,,,,,6,,,,53,45
16620,note_on,5,0,15,,,,,,,,14,,,,41,45
16620,note_on,160,0,10,,,,,,,,8,,,,69,45
16620,note_on,160,0,9,,,,,,,,7,,,,48,45
16620,note_on,160,0,7,,,,,,,,5,,,,69,45
16620,note_on,160,0,13,,,,,,,,12,,,,53,45
16620,note_on,160,0,12,,,,,,,,11,,,,69,45
16620,note_on,160,0,14,,,,,,,,13,,,,41,45
16620,note_on,160,0,5,,,,,,,,3,,,,69,45
16620,note_on,160,0,6,,,,,,,,4,,,,77,45
16620,note_on,160,0,11,,,,,,,,10,,,,77,45
16620,note_on,0,0,10,,,,,,,,8,,,,81,45
16700,note_off,0,0,10,,,,,,,,8,,,,69,64
16700,note_off,80,0,8,,,,,,,,6,,,,53,64
16700,note_off,80,0,11,,,,,,,,10,,,,77,64
16700,note_off,80,0,10,,,,,,,,8,,,,81,64
16700,note_off,80,0,5,,,,,,,,3,,,,81,64
16700,note_off,0,0,5,,,,,,,,3,,,,69,64
16700,note_off,80,0,6,,,,,,,,4,,,,77,64
16700,note_off,80,0,14,,,,,,,,13,,,,41,64
16700,note_off,80,0,12,,,,,,,,11,,,,69,64
16700,note_off,80,0,9,,,,,,,,7,,,,48,64
16700,note_off,80,0,7,,,,,,,,5,,,,69,64
16700,note_off,80,0,13,,,,,,,,12,,,,53,64
16860,note_on,160,0,13,,,,,,,,12,,,,53,47
16860,note_on,160,0,11,,,,,,,,10,,,,77,47
16860,note_on,160,0,6,,,,,,,,4,,,,77,48
16860,note_on,0,0,10,,,,,,,,8,,,,81,47
16860,note_on,160,0,12,,,,,,,,11,,,,69,47
16860,note_on,160,0,7,,,,,,,,5,,,,69,48
16860,note_on,160,0,9,,,,,,,,7,,,,48,48
16860,note_on,160,0,8,,,,,,,,6,,,,53,48
16860,note_on,0,0,5,,,,,,,,3,,,,81,48
16860,note_on,160,0,5,,,,,,,,3,,,,69,48
16860,note_on,160,0,10,,,,,,,,8,,,,69,47
16860,note_on,160,0,14,,,,,,,,13,,,,41,47
16940,note_off,0,0,5,,,,,,,,3,,,,69,64
16940,note_off,80,0,5,,,,,,,,3,,,,81,64
16940,note_off,80,0,11,,,,,,,,10,,,,77,64
16940,note_off,80,0,8,,,,,,,,6,,,,53,64
16940,note_off,80,0,14,,,,,,,,13,,,,41,64
16940,note_off,80,0,13,,,,,,,,12,,,,53,64
16940,note_off,80,0,10,,,,,,,,8,,,,81,64
16940,note_off,80,0,7,,,,,,,,5,,,,69,64
16940,note_off,0,0,10,,,,,,,,8,,,,69,64
16940,note_off,80,0,12,,,,,,,,11,,,,69,64
16940,note_off,80,0,6,,,,,,,,4,,,,77,64
16940,note_off,80,0,9,,,,,,,,7,,,,48,64
17020,note_off,400,0,15,,,,,,,,14,,,,41,64
17100,note_on,160,0,9,,,,,,,,7,,,,48,52
17100,note_on,160,0,7,,,,,,,,5,,,,69,52
17100,note_on,160,0,11,,,,,,,,10,,,,77,49
17100,note_on,0,0,5,,,,,,,,3,,,,81,52
17100,note_on,160,0,6,,,,,,,,4,,,,77,52
17100,note_on,160,0,8,,,,,,,,6,,,,53,52
17100,note_on,160,0,10,,,,,,,,8,,,,69,49
17100,note_on,0,0,10,,,,,,,,8,,,,81,49
17100,note_on,160,0,12,,,,,,,,11,,,,69,49
17100,note_on,160,0,13,,,,,,,,12,,,,53,49
17100,note_on,160,0,5,,,,,,,,3,,,,69,52
17100,note_on,160,0,14,,,,,,,,13,,,,41,49
17180,note_off,80,0,12,,,,,,,,11,,,,69,64
17180,note_off,80,0,5,,,,,,,,3,,,,81,64
17180,note_off,80,0,13,,,,,,,,12,,,,53,64
17180,note_off,0,0,5,,,,,,,,3,,,,69,64
17180,note_off,80,0,9,,,,,,,,7,,,,48,64
17180,note_off,80,0,11,,,,,,,,10,,,,77,64
17180,note_off,80,0,7,,,,,,,,5,,,,69,64
17180,note_off,0,0,10,,,,,,,,8,,,,69,64
17180,note_off,80,0,10,,,,,,,,8,,,,81,64
17180,note_off,80,0,8,,,,,,,,6,,,,53,64
17180,note_off,80,0,6,,,,,,,,4,,,,77,64
17180,note_off,80,0,14,,,,,,,,13,,,,41,64
17340,note_on,320,0,15,,,,,,,,14,,,,36,48
17340,note_on,160,0,11,,,,,,,,10,,,,79,51
17340,note_on,160,0,14,,,,,,,,13,,,,36,51
17340,note_on,160,0,9,,,,,,,,7,,,,50,56
17340,note_on,160,0,12,,,,,,,,11,,,,64,51
17340,note_on,160,0,6,,,,,,,,4,,,,79,56
17340,note_on,160,0,5,,,,,,,,3,,,,70,56
17340,note_on,160,0,8,,,,,,,,6,,,,48,56
17340,note_on,160,0,10,,,,,,,,8,,,,70,51
17340,note_on,0,0,10,,,,,,,,8,,,,82,51
17340,note_on,160,0,7,,,,,,,,5,,,,64,56
17340,note_on,0,0,5,,,,,,,,3,,,,82,56
17340,note_on,160,0,13,,,,,,,,12,,,,48,51
17420,note_off,80,0,8,,,,,,,,6,,,,48,64
17420,note_off,80,0,6,,,,,,,,4,,,,79,64
17420,note_off,80,0,12,,,,,,,,11,,,,64,64
17420,note_off,80,0,14,,,,,,,,13,,,,36,64
17420,note_off,80,0,10,,,,,,,,8,,,,82,64
17420,note_off,80,0,7,,,,,,,,5,,,,64,64
17420,note_off,80,0,11,,,,,,,,10,,,,79,64
17420,note_off,0,0,10,,,,,,,,8,,,,70,64
17420,note_off,0,0,5,,,,,,,,3,,,,70,64
17420,note_off,80,0,13,,,,,,,,12,,,,48,64
17420,note_off,80,0,5,,,,,,,,3,,,,82,64
17420,note_off,80,0,9,,,,,,,,7,,,,50,64
17575,note_off,235,0,15,,,,,,,,14,,,,36,64
17580,note_on,160,0,12,,,,,,,,11,,,,69,53
17580,note_on,160,0,9,,,,,,,,7,,,,48,60
17580,note_on,160,0,8,,,,,,,,6,,,,53,60
17580,note_on,160,0,14,,,,,,,,13,,,,41,53
17580,note_on,160,0,6,,,,,,,,4,,,,77,60
17580,note_on,160,0,7,,,,,,,,5,,,,69,60
17580,note_on,0,0,5,,,,,,,,3,,,,81,60
17580,note_on,160,0,11,,,,,,,,10,,,,77,53
17580,note_on,0,0,10,,,,,,,,8,,,,81,53
17580,note_on,160,0,10,,,,,,,,8,,,,69,53
17580,note_on,160,0,13,,,,,,,,12,,,,53,53
17580,note_on,5,0,15,,,,,,,,14,,,,41,49
17580,note_on,160,0,5,,,,,,,,3,,,,69,60
17660,note_off,80,0,5,,,,,,,,3,,,,81,64
17660,note_off,0,0,5,,,,,,,,3,,,,69,64
17660,note_off,80,0,8,,,,,,,,6,,,,53,64
17660,note_off,80,0,10,,,,,,,,8,,,,81,64
17660,note_off,0,0,10,,,,,,,,8,,,,69,64
17660,note_off,80,0,7,,,,,,,,5,,,,69,64
17660,note_off,80,0,6,,,,,,,,4,,,,77,64
17660,note_off,80,0,14,,,,,,,,13,,,,41,64
17660,note_off,80,0,11,,,,,,,,10,,,,77,64
17660,note_off,80,0,13,,,,,,,,12,,,,53,64
17660,note_off,80,0,9,,,,,,,,7,,,,48,64
17660,note_off,80,0,12,,,,,,,,11,,,,69,64
17820,note_on,160,0,7,,,,,,,,5,,,,69,64
17820,note_on,160,0,11,,,,,,,,10,,,,77,55
17820,note_on,0,0,5,,,,,,,,3,,,,81,64
17820,note_on,160,0,5,,,,,,,,3,,,,69,64
17820,note_on,160,0,13,,,,,,,,12,,,,53,55
17820,note_on,160,0,9,,,,,,,,7,,,,48,64
17820,note_on,160,0,8,,,,,,,,6,,,,53,64
17820,note_on,160,0,6,,,,,,,,4,,,,77,64
17820,note_on,160,0,12,,,,,,,,11,,,,69,55
17820,note_on,160,0,10,,,,,,,,8,,,,69,55
17820,note_on,0,0,10,,,,,,,,8,,,,81,55
17820,note_on,160,0,14,,,,,,,,13,,,,41,55
17900,note_off,80,0,10,,,,,,,,8,,,,81,64
17900,note_off,80,0,7,,,,,,,,5,,,,69,64
17900,note_off,80,0,11,,,,,,,,10,,,,77,64
17900,note_off,0,0,10,,,,,,,,8,,,,69,64
17900,note_off,0,0,5,,,,,,,,3,,,,69,64
17900,note_off,80,0,12,,,,,,,,11,,,,69,64
17900,note_off,80,0,8,,,,,,,,6,,,,53,64
17900,note_off,80,0,9,,,,,,,,7,,,,48,64
17900,note_off,80,0,13,,,,,,,,12,,,,53,64
17900,note_off,80,0,6,,,,,,,,4,,,,77,64
17900,note_off,80,0,5,,,,,,,,3,,,,81,64
17900,note_off,80,0,14,,,,,,,,13,,,,41,64
17980,note_off,400,0,15,,,,,,,,14,,,,41,64
18060,note_on,0,0,10,,,,,,,,8,,,,81,57
18060,note_on,160,0,10,,,,,,,,8,,,,69,57
18060,note_on,160,0,14,,,,,,,,13,,,,41,57
18060,note_on,160,0,13,,,,,,,,12,,,,53,57
18060,note_on,0,0,5,,,,,,,,3,,,,81,68
18060,note_on,160,0,8,,,,,,,,6,,,,53,68
18060,note_on,160,0,5,,,,,,,,3,,,,69,68
18060,note_on,160,0,9,,,,,,,,7,,,,48,68
18060,note_on,160,0,6,,,,,,,,4,,,,77,68
18060,note_on,160,0,7,,,,,,,,5,,,,69,68
18060,note_on,160,0,11,,,,,,,,10,,,,77,57
18060,note_on,160,0,12,,,,,,,,11,,,,69,57
18140,note_off,0,0,5,,,,,,,,3,,,,69,64
18140,note_off,80,0,13,,,,,,,,12,,,,53,64
18140,note_off,80,0,9,,,,,,,,7,,,,48,64
18140,note_off,80,0,5,,,,,,,,3,,,,81,64
18140,note_off,0,0,10,,,,,,,,8,,,,69,64
18140,note_off,80,0,11,,,,,,,,10,,,,77,64
18140,note_off,80,0,7,,,,,,,,5,,,,69,64
18140,note_off,80,0,10,,,,,,,,8,,,,81,64
18140,note_off,80,0,8,,,,,,,,6,,,,53,64
18140,note_off,80,0,6,,,,,,,,4,,,,77,64
18140,note_off,80,0,14,,,,,,,,13,,,,41,64
18140,note_off,80,0,12,,,,,,,,11,,,,69,64
18300,note_on,160,0,7,,,,,,,,5,,,,64,72
18300,note_on,160,0,13,,,,,,,,12,,,,48,60
18300,note_on,160,0,8,,,,,,,,6,,,,48,72
18300,note_on,160,0,5,,,,,,,,3,,,,70,72
18300,note_on,0,0,5,,,,,,,,3,,,,82,72
18300,note_on,320,0,15,,,,,,,,14,,,,36,52
18300,note_on,160,0,9,,,,,,,,7,,,,50,72
18300,note_on,160,0,12,,,,,,,,11,,,,64,60
18300,note_on,160,0,14,,,,,,,,13,,,,36,60
18300,note_on,0,0,10,,,,,,,,8,,,,82,60
18300,note_on,160,0,10,,,,,,,,8,,,,70,60
18300,note_on,160,0,11,,,,,,,,10,,,,79,60
18300,note_on,160,0,6,,,,,,,,4,,,,79,72
18380,note_off,80,0,10,,,,,,,,8,,,,82,64
18380,note_off,80,0,8,,,,,,,,6,,,,48,64
18380,note_off,80,0,13,,,,,,,,12,,,,48,64
18380,note_off,80,0,6,,,,,,,,4,,,,79,64
18380,note_off,80,0,12,,,,,,,,11,,,,64,64
18380,note_off,80,0,11,,,,,,,,10,,,,79,64
18380,note_off,80,0,9,,,,,,,,7,,,,50,64
18380,note_off,0,0,10,,,,,,,,8,,,,70,64
18380,note_off,80,0,5,,,,,,,,3,,,,82,64
18380,note_off,0,0,5,,,,,,,,3,,,,70,64
18380,note_off,80,0,14,,,,,,,,13,,,,36,64
18380,note_off,80,0,7,,,,,,,,5,,,,64,64
18535,note_off,235,0,15,,,,,,,,14,,,,36,64
18540,note_on,160,0,9,,,,,,,,7,,,,48,76
18540,note_on,160,0,6,,,,,,,,4,,,,77,76
18540,note_on,5,0,15,,,,,,,,14,,,,41,53
18540,note_on,160,0,13,,,,,,,,12,,,,53,63
18540,note_on,160,0,8,,,,,,,,6,,,,53,76
18540,note_on,160,0,7,,,,,,,,5,,,,69,76
18540,note_on,160,0,12,,,,,,,,11,,,,69,63
18540,note_on,160,0,14,,,,,,,,13,,,,41,63
18540,note_on,160,0,10,,,,,,,,8,,,,69,63
18540,note_on,0,0,10,,,,,,,,8,,,,81,63
18540,note_on,0,0,5,,,,,,,,3,,,,81,76
18540,note_on,160,0,5,,,,,,,,3,,,,69,76
18540,note_on,160,0,11,,,,,,,,10,,,,77,63
18570,note_off,30,0,10,,,,,,,,8,,,,81,64
18570,note_off,0,0,10,,,,,,,,8,,,,69,64
18570,note_off,30,0,6,,,,,,,,4,,,,77,64
18570,note_on,0,0,6,,,,,,,,4,,,,79,76
18570,note_off,30,0,11,,,,,,,,10,,,,77,64
18570,note_on,0,0,10,,,,,,,,8,,,,70,63
18570,note_on,0,0,9,,,,,,,,7,,,,50,76
18570,note_off,30,0,5,,,,,,,,3,,,,81,64
18570,note_on,0,0,10,,,,,,,,8,,,,82,63
18570,note_on,0,0,11,,,,,,,,10,,,,79,63
18570,note_off,0,0,5,,,,,,,,3,,,,69,64
18570,note_on,0,0,5,,,,,,,,3,,,,70,76
18570,note_on,0,0,5,,,,,,,,3,,,,82,76
18570,note_off,30,0,9,,,,,,,,7,,,,48,64
18600,note_off,30,0,5,,,,,,,,3,,,,82,64
18600,note_off,0,0,5,,,,,,,,3,,,,70,64
18600,note_on,0,0,5,,,,,,,,3,,,,69,76
18600,note_off,30,0,9,,,,,,,,7,,,,50,64
18600,note_on,0,0,9,,,,,,,,7,,,,48,76
18600,note_on,0,0,11,,,,,,,,10,,,,77,63
18600,note_off,30,0,11,,,,,,,,10,,,,79,64
18600,note_on,0,0,6,,,,,,,,4,,,,77,76
18600,note_on,0,0,5,,,,,,,,3,,,,81,76
18600,note_off,30,0,6,,,,,,,,4,,,,79,64
18600,note_off,0,0,10,,,,,,,,8,,,,70,64
18600,note_on,0,0,10,,,,,,,,8,,,,69,63
18600,note_on,0,0,10,,,,,,,,8,,,,81,63
18600,note_off,30,0,10,,,,,,,,8,,,,82,64
18620,note_off,80,0,12,,,,,,,,11,,,,69,64
18620,note_off,80,0,13,,,,,,,,12,,,,53,64
18620,note_off,80,0,8,,,,,,,,6,,,,53,64
18620,note_off,80,0,14,,,,,,,,13,,,,41,64
18620,note_off,80,0,7,,,,,,,,5,,,,69,64
18630,note_off,30,0,6,,,,,,,,4,,,,77,64
18630,note_on,0,0,6,,,,,,,,4,,,,79,76
18630,note_on,0,0,5,,,,,,,,3,,,,82,76
18630,note_on,0,0,5,,,,,,,,3,,,,70,76
18630,note_off,30,0,5,,,,,,,,3,,,,81,64
18630,note_off,30,0,11,,,,,,,,10,,,,77,64
18630,note_on,0,0,11,,,,,,,,10,,,,79,63
18630,note_on,0,0,10,,,,,,,,8,,,,82,63
18630,note_off,0,0,5,,,,,,,,3,,,,69,64
18630,note_off,30,0,10,,,,,,,,8,,,,81,64
18630,note_on,0,0,9,,,,,,,,7,,,,50,76
18630,note_off,30,0,9,,,,,,,,7,,,,48,64
18630,note_off,0,0,10,,,,,,,,8,,,,69,64
18630,note_on,0,0,10,,,,,,,,8,,,,70,63
18660,note_on,0,0,9,,,,,,,,7,,,,48,76
18660,note_off,0,0,5,,,,,,,,3,,,,70,64
18660,note_off,30,0,5,,,,,,,,3,,,,82,64
18660,note_off,30,0,9,,,,,,,,7,,,,50,64
18660,note_on,0,0,10,,,,,,,,8,,,,69,63
18660,note_off,30,0,11,,,,,,,,10,,,,79,64
18660,note_on,0,0,11,,,,,,,,10,,,,77,63
18660,note_on,0,0,10,,,,,,,,8,,,,81,63
18660,note_on,0,0,5,,,,,,,,3,,,,81,76
18660,note_on,0,0,6,,,,,,,,4,,,,77,76
18660,note_off,30,0,10,,,,,,,,8,,,,82,64
18660,note_off,30,0,6,,,,,,,,4,,,,79,64
18660,note_on,0,0,5,,,,,,,,3,,,,69,76
18660,note_off,0,0,10,,,,,,,,8,,,,70,64
18690,note_on,0,0,6,,,,,,,,4,,,,79,76
18690,note_off,30,0,5,,,,,,,,3,,,,81,64
18690,note_off,30,0,6,,,,,,,,4,,,,77,64
18690,note_on,0,0,10,,,,,,,,8,,,,70,63
18690,note_on,0,0,5,,,,,,,,3,,,,82,76
18690,note_on,0,0,5,,,,,,,,3,,,,70,76
18690,note_off,30,0,10,,,,,,,,8,,,,81,64
18690,note_on,0,0,10,,,,,,,,8,,,,82,63
18690,note_on,0,0,9,,,,,,,,7,,,,50,76
18690,note_off,30,0,9,,,,,,,,7,,,,48,64
18690,note_on,0,0,11,,,,,,,,10,,,,79,63
18690,note_off,0,0,5,,,,,,,,3,,,,69,64
18690,note_off,0,0,10,,,,,,,,8,,,,69,64
18690,note_off,30,0,11,,,,,,,,10,,,,77,64
18720,note_off,30,0,9,,,,,,,,7,,,,50,64
18720,note_on,0,0,6,,,,,,,,4,,,,77,76
18720,note_on,0,0,5,,,,,,,,3,,,,81,76
18720,note_on,0,0,5,,,,,,,,3,,,,69,76
18720,note_off,0,0,5,,,,,,,,3,,,,70,64
18720,note_off,30,0,10,,,,,,,,8,,,,82,64
18720,note_off,0,0,10,,,,,,,,8,,,,70,64
18720,note_off,30,0,11,,,,,,,,10,,,,79,64
18720,note_on,0,0,10,,,,,,,,8,,,,81,63
18720,note_on,0,0,11,,,,,,,,10,,,,77,63
18720,note_off,30,0,6,,,,,,,,4,,,,79,64
18720,note_on,0,0,9,,,,,,,,7,,,,48,76
18720,note_off,30,0,5,,,,,,,,3,,,,82,64
18720,note_on,0,0,10,,,,,,,,8,,,,69,63
18750,note_off,30,0,10,,,,,,,,8,,,,81,64
18750,note_off,0,0,10,,,,,,,,8,,,,69,64
18750,note_on,0,0,10,,,,,,,,8,,,,70,63
18750,note_on,0,0,10,,,,,,,,8,,,,82,63
18750,note_off,30,0,9,,,,,,,,7,,,,48,64
18750,note_on,0,0,9,,,,,,,,7,,,,50,76
18750,note_on,0,0,11,,,,,,,,10,,,,79,63
18750,note_off,30,0,11,,,,,,,,10,,,,77,64
18750,note_off,30,0,5,,,,,,,,3,,,,81,64
18750,note_off,0,0,5,,,,,,,,3,,,,69,64
18750,note_on,0,0,5,,,,,,,,3,,,,70,76
18750,note_on,0,0,6,,,,,,,,4,,,,79,76
18750,note_off,30,0,6,,,,,,,,4,,,,77,64
18750,note_on,0,0,5,,,,,,,,3,,,,82,76
18780,note_on,0,0,10,,,,,,,,8,,,,79,63
18780,note_off,30,0,5,,,,,,,,3,,,,82,64
18780,note_on,0,0,10,,,,,,,,8,,,,67,63
18780,note_off,0,0,10,,,,,,,,8,,,,70,64
18780,note_on,160,0,7,,,,,,,,5,,,,69,80
18780,note_off,30,0,11,,,,,,,,10,,,,79,64
18780,note_on,0,0,11,,,,,,,,10,,,,76,63
18780,note_on,160,0,12,,,,,,,,11,,,,69,66
18780,note_on,0,0,9,,,,,,,,7,,,,46,76
18780,note_on,160,0,8,,,,,,,,6,,,,53,80
18780,note_on,160,0,14,,,,,,,,13,,,,41,66
18780,note_off,30,0,9,,,,,,,,7,,,,50,64
18780,note_off,30,0,10,,,,,,,,8,,,,82,64
18780,note_on,160,0,13,,,,,,,,12,,,,53,66
18780,note_on,0,0,5,,,,,,,,3,,,,79,76
18780,note_on,0,0,5,,,,,,,,3,,,,67,76
18780,note_off,0,0,5,,,,,,,,3,,,,70,64
18780,note_on,0,0,6,,,,,,,,4,,,,76,76
18780,note_off,30,0,6,,,,,,,,4,,,,79,64
18780,set_tempo,6960,1,0,517241,,,,,,,,,,,,
18860,note_off,80,0,14,,,,,,,,13,,,,41,64
18860,note_off,80,0,9,,,,,,,,7,,,,46,64
18860,note_off,80,0,13,,,,,,,,12,,,,53,64
18860,note_off,80,0,11,,,,,,,,10,,,,76,64
18860,note_off,80,0,5,,,,,,,,3,,,,79,64
18860,note_off,80,0,10,,,,,,,,8,,,,79,64
18860,note_off,0,0,10,,,,,,,,8,,,,67,64
18860,note_off,80,0,8,,,,,,,,6,,,,53,64
18860,note_off,80,0,7,,,,,,,,5,,,,69,64
18860,note_off,80,0,12,,,,,,,,11,,,,69,64
18860,note_off,80,0,6,,,,,,,,4,,,,76,64
18860,note_off,0,0,5,,,,,,,,3,,,,67,64
18900,note_on,40,0,5,,,,,,,,3,,,,69,78
18900,note_on,40,0,9,,,,,,,,7,,,,48,78
18900,note_on,40,0,11,,,,,,,,10,,,,77,65
18900,note_on,0,0,10,,,,,,,,8,,,,81,65
18900,note_on,40,0,10,,,,,,,,8,,,,69,65
18900,note_on,0,0,5,,,,,,,,3,,,,81,78
18900,note_on,40,0,6,,,,,,,,4,,,,77,78
18940,note_off,400,0,15,,,,,,,,14,,,,41,64
18980,note_off,0,0,10,,,,,,,,8,,,,69,64
18980,note_off,80,0,10,,,,,,,,8,,,,81,64
18980,note_off,80,0,9,,,,,,,,7,,,,48,64
18980,note_off,80,0,11,,,,,,,,10,,,,77,64
18980,note_off,0,0,5,,,,,,,,3,,,,69,64
18980,note_off,80,0,5,,,,,,,,3,,,,81,64
18980,note_off,80,0,6,,,,,,,,4,,,,77,64
19020,note_on,160,0,14,,,,,,,,13,,,,34,69
19020,note_on,40,0,9,,,,,,,,7,,,,50,80
19020,note_on,160,0,7,,,,,,,,5,,,,62,84
19020,note_on,80,0,15,,,,,,,,14,,,,34,56
19020,note_on,160,0,13,,,,,,,,12,,,,46,69
19020,note_on,0,0,5,,,,,,,,3,,,,82,80
19020,note_on,160,0,8,,,,,,,,6,,,,46,84
19020,note_on,40,0,6,,,,,,,,4,,,,79,80
19020,note_on,40,0,5,,,,,,,,3,,,,70,80
19020,note_on,160,0,12,,,,,,,,11,,,,62,69
19020,note_on,40,0,11,,,,,,,,10,,,,79,67
19020,note_on,0,0,10,,,,,,,,8,,,,82,67
19020,note_on,40,0,10,,,,,,,,8,,,,70,67
19100,note_off,80,0,5,,,,,,,,3,,,,82,64
19100,note_off,80,0,8,,,,,,,,6,,,,46,64
19100,note_off,80,0,6,,,,,,,,4,,,,79,64
19100,note_off,0,0,5,,,,,,,,3,,,,70,64
19100,note_off,80,0,9,,,,,,,,7,,,,50,64
19100,note_off,80,0,11,,,,,,,,10,,,,79,64
19100,note_off,0,0,10,,,,,,,,8,,,,70,64
19100,note_off,80,0,10,,,,,,,,8,,,,82,64
19100,note_off,80,0,12,,,,,,,,11,,,,62,64
19100,note_off,80,0,14,,,,,,,,13,,,,34,64
19100,note_off,80,0,13,,,,,,,,12,,,,46,64
19100,note_off,80,0,7,,,,,,,,5,,,,62,64
19255,note_off,235,0,15,,,,,,,,14,,,,34,64
19260,note_on,160,0,10,,,,,,,,8,,,,67,71
19260,note_on,160,0,8,,,,,,,,6,,,,48,88
19260,note_on,0,0,10,,,,,,,,8,,,,79,71
19260,note_on,160,0,13,,,,,,,,12,,,,48,72
19260,note_on,160,0,6,,,,,,,,4,,,,76,86
19260,note_on,160,0,12,,,,,,,,11,,,,60,72
19260,note_on,160,0,5,,,,,,,,3,,,,67,86
19260,note_on,0,0,5,,,,,,,,3,,,,79,86
19260,note_on,160,0,9,,,,,,,,7,,,,46,86
19260,note_on,160,0,11,,,,,,,,10,,,,76,71
19260,note_on,5,0,15,,,,,,,,14,,,,36,58
19260,note_on,160,0,14,,,,,,,,13,,,,36,72
19260,note_on,160,0,7,,,,,,,,5,,,,60,88
19340,note_off,80,0,5,,,,,,,,3,,,,79,64
19340,note_off,0,0,5,,,,,,,,3,,,,67,64
19340,note_off,80,0,12,,,,,,,,11,,,,60,64
19340,note_off,80,0,7,,,,,,,,5,,,,60,64
19340,note_off,80,0,8,,,,,,,,6,,,,48,64
19340,note_off,80,0,14,,,,,,,,13,,,,36,64
19340,note_off,80,0,11,,,,,,,,10,,,,76,64
19340,note_off,80,0,6,,,,,,,,4,,,,76,64
19340,note_off,80,0,10,,,,,,,,8,,,,79,64
19340,note_off,0,0,10,,,,,,,,8,,,,67,64
19340,note_off,80,0,13,,,,,,,,12,,,,48,64
19340,note_off,80,0,9,,,,,,,,7,,,,46,64
19495,note_off,235,0,15,,,,,,,,14,,,,36,64
19500,note_on,160,0,12,,,,,,,,11,,,,60,75
19500,note_on,160,0,11,,,,,,,,10,,,,77,75
19500,note_on,160,0,13,,,,,,,,12,,,,41,75
19500,note_on,0,0,5,,,,,,,,3,,,,81,92
19500,note_on,0,0,15,,,,,,,,14,,,,41,60
19500,note_on,5,0,15,,,,,,,,14,,,,29,60
19500,note_on,160,0,7,,,,,,,,5,,,,60,92
19500,note_on,160,0,5,,,,,,,,3,,,,69,92
19500,note_on,160,0,8,,,,,,,,6,,,,41,92
19500,set_tempo,720,1,0,500000,,,,,,,,,,,,
19500,note_on,160,0,14,,,,,,,,13,,,,29,75
19500,note_on,160,0,10,,,,,,,,8,,,,69,75
19500,note_on,0,0,10,,,,,,,,8,,,,81,75
19500,note_on,160,0,6,,,,,,,,4,,,,77,92
19500,note_on,160,0,9,,,,,,,,7,,,,48,92
19900,note_off,400,0,6,,,,,,,,4,,,,77,64
19900,note_off,400,0,5,,,,,,,,3,,,,81,64
19900,note_off,0,0,5,,,,,,,,3,,,,69,64
19900,note_off,0,0,15,,,,,,,,14,,,,29,64
19900,note_off,400,0,15,,,,,,,,14,,,,41,64
19900,note_off,400,0,9,,,,,,,,7,,,,48,64
19900,note_off,400,0,11,,,,,,,,10,,,,77,64
19900,note_off,400,0,14,,,,,,,,13,,,,29,64
19900,note_off,400,0,10,,,,,,,,8,,,,81,64
19900,note_off,0,0,10,,,,,,,,8,,,,69,64
19900,note_off,400,0,8,,,,,,,,6,,,,41,64
19900,note_off,400,0,7,,,,,,,,5,,,,60,64
19900,note_off,400,0,12,,,,,,,,11,,,,60,64
19900,note_off,400,0,13,,,,,,,,12,,,,41,64
20580,note_on,680,0,15,,,,,,,,14,,,,41,45
20580,note_on,680,0,12,,,,,,,,11,,,,57,45
20580,note_on,680,0,11,,,,,,,,10,,,,65,45
20580,note_on,680,0,7,,,,,,,,5,,,,57,45
20580,note_on,680,0,14,,,,,,,,13,,,,41,45
20580,note_on,680,0,8,,,,,,,,6,,,,53,45
20580,note_on,680,0,5,,,,,,,,3,,,,69,45
20580,note_on,680,0,9,,,,,,,,7,,,,36,45
20580,note_on,680,0,6,,,,,,,,4,,,,65,45
20580,note_on,680,0,13,,,,,,,,12,,,,53,45
20580,note_on,680,0,10,,,,,,,,8,,,,69,45
20660,note_off,80,0,7,,,,,,,,5,,,,57,64
20660,note_off,80,0,14,,,,,,,,13,,,,41,64
20660,note_off,80,0,8,,,,,,,,6,,,,53,64
20660,note_off,80,0,10,,,,,,,,8,,,,69,64
20660,note_off,80,0,9,,,,,,,,7,,,,36,64
20660,note_off,80,0,13,,,,,,,,12,,,,53,64
20660,note_off,80,0,6,,,,,,,,4,,,,65,64
20660,note_off,80,0,5,,,,,,,,3,,,,69,64
20660,note_off,80,0,11,,,,,,,,10,,,,65,64
20660,note_off,80,0,12,,,,,,,,11,,,,57,64
20820,note_on,160,0,7,,,,,,,,5,,,,57,45
20820,note_on,160,0,10,,,,,,,,8,,,,69,45
20820,note_on,160,0,8,,,,,,,,6,,,,53,45
20820,note_on,160,0,6,,,,,,,,4,,,,65,45
20820,note_on,160,0,9,,,,,,,,7,,,,36,45
20820,note_on,160,0,11,,,,,,,,10,,,,65,45
20820,note_on,160,0,13,,,,,,,,12,,,,53,45
20820,note_on,160,0,12,,,,,,,,11,,,,57,45
20820,note_on,160,0,14,,,,,,,,13,,,,41,45
20820,note_on,160,0,5,,,,,,,,3,,,,69,45
20900,note_off,80,0,11,,,,,,,,10,,,,65,64
20900,note_off,80,0,12,,,,,,,,11,,,,57,64
20900,note_off,80,0,14,,,,,,,,13,,,,41,64
20900,note_off,80,0,9,,,,,,,,7,,,,36,64
20900,note_off,80,0,10,,,,,,,,8,,,,69,64
20900,note_off,80,0,13,,,,,,,,12,,,,53,64
20900,note_off,80,0,7,,,,,,,,5,,,,57,64
20900,note_off,80,0,8,,,,,,,,6,,,,53,64
20900,note_off,80,0,5,,,,,,,,3,,,,69,64
20900,note_off,80,0,6,,,,,,,,4,,,,65,64
20980,note_off,400,0,15,,,,,,,,14,,,,41,64
21060,note_on,160,0,14,,,,,,,,13,,,,41,45
21060,note_on,160,0,9,,,,,,,,7,,,,36,45
21060,note_on,160,0,6,,,,,,,,4,,,,65,45
21060,note_on,160,0,10,,,,,,,,8,,,,69,45
21060,note_on,160,0,12,,,,,,,,11,,,,57,45
21060,note_on,160,0,11,,,,,,,,10,,,,65,45
21060,note_on,160,0,8,,,,,,,,6,,,,53,45
21060,note_on,160,0,13,,,,,,,,12,,,,53,45
21060,note_on,160,0,5,,,,,,,,3,,,,69,45
21060,note_on,160,0,7,,,,,,,,5,,,,57,45
21140,note_off,80,0,9,,,,,,,,7,,,,36,64
21140,note_off,80,0,6,,,,,,,,4,,,,65,64
21140,note_off,80,0,14,,,,,,,,13,,,,41,64
21140,note_off,80,0,5,,,,,,,,3,,,,69,64
21140,note_off,80,0,8,,,,,,,,6,,,,53,64
21140,note_off,80,0,7,,,,,,,,5,,,,57,64
21140,note_off,80,0,10,,,,,,,,8,,,,69,64
21140,note_off,80,0,13,,,,,,,,12,,,,53,64
21140,note_off,80,0,11,,,,,,,,10,,,,65,64
21140,note_off,80,0,12,,,,,,,,11,,,,57,64
21300,note_on,160,0,10,,,,,,,,8,,,,70,45
21300,note_on,160,0,5,,,,,,,,3,,,,70,45
21300,note_on,160,0,9,,,,,,,,7,,,,38,45
21300,note_on,160,0,6,,,,,,,,4,,,,67,45
21300,note_on,160,0,13,,,,,,,,12,,,,48,45
21300,note_on,160,0,8,,,,,,,,6,,,,48,45
21300,note_on,160,0,14,,,,,,,,13,,,,36,45
21300,note_on,160,0,7,,,,,,,,5,,,,52,45
21300,note_on,320,0,15,,,,,,,,14,,,,36,45
21300,note_on,160,0,12,,,,,,,,11,,,,52,45
21300,note_on,160,0,11,,,,,,,,10,,,,67,45
21380,note_off,80,0,14,,,,,,,,13,,,,36,64
21380,note_off,80,0,11,,,,,,,,10,,,,67,64
21380,note_off,80,0,7,,,,,,,,5,,,,52,64
21380,note_off,80,0,5,,,,,,,,3,,,,70,64
21380,note_off,80,0,8,,,,,,,,6,,,,48,64
21380,note_off,80,0,6,,,,,,,,4,,,,67,64
21380,note_off,80,0,9,,,,,,,,7,,,,38,64
21380,note_off,80,0,10,,,,,,,,8,,,,70,64
21380,note_off,80,0,12,,,,,,,,11,,,,52,64
21380,note_off,80,0,13,,,,,,,,12,,,,48,64
21535,note_off,235,0,15,,,,,,,,14,,,,36,64
21540,note_on,160,0,5,,,,,,,,3,,,,69,45
21540,note_on,160,0,10,,,,,,,,8,,,,69,45
21540,note_on,160,0,6,,,,,,,,4,,,,65,45
21540,note_on,160,0,13,,,,,,,,12,,,,53,45
21540,note_on,160,0,12,,,,,,,,11,,,,57,45
21540,note_on,160,0,8,,,,,,,,6,,,,53,45
21540,note_on,160,0,7,,,,,,,,5,,,,57,45
21540,note_on,160,0,9,,,,,,,,7,,,,36,45
21540,note_on,5,0,15,,,,,,,,14,,,,41,45
21540,note_on,160,0,14,,,,,,,,13,,,,41,45
21540,note_on,160,0,11,,,,,,,,10,,,,65,45
21620,note_off,80,0,7,,,,,,,,5,,,,57,64
21620,note_off,80,0,12,,,,,,,,11,,,,57,64
21620,note_off,80,0,5,,,,,,,,3,,,,69,64
21620,note_off,80,0,13,,,,,,,,12,,,,53,64
21620,note_off,80,0,10,,,,,,,,8,,,,69,64
21620,note_off,80,0,14,,,,,,,,13,,,,41,64
21620,note_off,80,0,9,,,,,,,,7,,,,36,64
21620,note_off,80,0,6,,,,,,,,4,,,,65,64
21620,note_off,80,0,8,,,,,,,,6,,,,53,64
21620,note_off,80,0,11,,,,,,,,10,,,,65,64
21780,note_on,160,0,9,,,,,,,,7,,,,36,45
21780,note_on,160,0,8,,,,,,,,6,,,,53,45
21780,note_on,160,0,12,,,,,,,,11,,,,57,45
21780,note_on,160,0,5,,,,,,,,3,,,,69,45
21780,note_on,160,0,6,,,,,,,,4,,,,65,45
21780,note_on,160,0,7,,,,,,,,5,,,,57,45
21780,note_on,160,0,10,,,,,,,,8,,,,69,45
21780,note_on,160,0,13,,,,,,,,12,,,,53,45
21780,note_on,160,0,14,,,,,,,,13,,,,41,45
21780,note_on,160,0,11,,,,,,,,10,,,,65,45
21860,note_off,80,0,6,,,,,,,,4,,,,65,64
21860,note_off,80,0,11,,,,,,,,10,,,,65,64
21860,note_off,80,0,9,,,,,,,,7,,,,36,64
21860,note_off,80,0,10,,,,,,,,8,,,,69,64
21860,note_off,80,0,12,,,,,,,,11,,,,57,64
21860,note_off,80,0,7,,,,,,,,5,,,,57,64
21860,note_off,80,0,5,,,,,,,,3,,,,69,64
21860,note_off,80,0,14,,,,,,,,13,,,,41,64
21860,note_off,80,0,8,,,,,,,,6,,,,53,64
21860,note_off,80,0,13,,,,,,,,12,,,,53,64
21940,note_off,400,0,15,,,,,,,,14,,,,41,64
22020,note_on,160,0,12,,,,,,,,11,,,,57,45
22020,note_on,160,0,14,,,,,,,,13,,,,41,45
22020,note_on,160,0,7,,,,,,,,5,,,,57,45
22020,note_on,160,0,11,,,,,,,,10,,,,65,45
22020,note_on,160,0,9,,,,,,,,7,,,,36,45
22020,note_on,160,0,13,,,,,,,,12,,,,53,45
22020,note_on,160,0,10,,,,,,,,8,,,,69,45
22020,note_on,160,0,5,,,,,,,,3,,,,69,45
22020,note_on,160,0,8,,,,,,,,6,,,,53,45
22020,note_on,160,0,6,,,,,,,,4,,,,65,45
22100,note_off,80,0,5,,,,,,,,3,,,,69,64
22100,note_off,80,0,9,,,,,,,,7,,,,36,64
22100,note_off,80,0,10,,,,,,,,8,,,,69,64
22100,note_off,80,0,11,,,,,,,,10,,,,65,64
22100,note_off,80,0,7,,,,,,,,5,,,,57,64
22100,note_off,80,0,13,,,,,,,,12,,,,53,64
22100,note_off,80,0,8,,,,,,,,6,,,,53,64
22100,note_off,80,0,14,,,,,,,,13,,,,41,64
22100,note_off,80,0,6,,,,,,,,4,,,,65,64
22100,note_off,80,0,12,,,,,,,,11,,,,57,64
22260,note_on,160,0,8,,,,,,,,6,,,,48,45
22260,note_on,160,0,14,,,,,,,,13,,,,36,45
22260,note_on,160,0,7,,,,,,,,5,,,,52,45
22260,note_on,320,0,15,,,,,,,,14,,,,36,45
22260,note_on,160,0,12,,,,,,,,11,,,,52,45
22260,note_on,160,0,11,,,,,,,,10,,,,67,45
22260,note_on,160,0,9,,,,,,,,7,,,,38,45
22260,note_on,160,0,6,,,,,,,,4,,,,67,45
22260,note_on,160,0,10,,,,,,,,8,,,,70,45
22260,note_on,160,0,5,,,,,,,,3,,,,70,45
22260,note_on,160,0,13,,,,,,,,12,,,,48,45
22340,note_off,80,0,10,,,,,,,,8,,,,70,64
22340,note_off,80,0,7,,,,,,,,5,,,,52,64
22340,note_off,80,0,5,,,,,,,,3,,,,70,64
22340,note_off,80,0,14,,,,,,,,13,,,,36,64
22340,note_off,80,0,6,,,,,,,,4,,,,67,64
22340,note_off,80,0,11,,,,,,,,10,,,,67,64
22340,note_off,80,0,12,,,,,,,,11,,,,52,64
22340,note_off,80,0,9,,,,,,,,7,,,,38,64
22340,note_off,80,0,13,,,,,,,,12,,,,48,64
22340,note_off,80,0,8,,,,,,,,6,,,,48,64
22495,note_off,235,0,15,,,,,,,,14,,,,36,64
22500,note_on,160,0,6,,,,,,,,4,,,,65,45
22500,note_on,160,0,13,,,,,,,,12,,,,53,45
22500,note_on,5,0,15,,,,,,,,14,,,,41,45
22500,note_on,160,0,9,,,,,,,,7,,,,36,45
22500,note_on,160,0,11,,,,,,,,10,,,,65,45
22500,note_on,160,0,5,,,,,,,,3,,,,69,45
22500,note_on,160,0,10,,,,,,,,8,,,,69,45
22500,note_on,160,0,7,,,,,,,,5,,,,57,45
22500,note_on,160,0,12,,,,,,,,11,,,,57,45
22500,note_on,160,0,8,,,,,,,,6,,,,53,45
22500,note_on,160,0,14,,,,,,,,13,,,,41,45
22580,note_off,80,0,7,,,,,,,,5,,,,57,64
22580,note_off,80,0,5,,,,,,,,3,,,,69,64
22580,note_off,80,0,13,,,,,,,,12,,,,53,64
22580,note_off,80,0,6,,,,,,,,4,,,,65,64
22580,note_off,80,0,11,,,,,,,,10,,,,65,64
22580,note_off,80,0,14,,,,,,,,13,,,,41,64
22580,note_off,80,0,10,,,,,,,,8,,,,69,64
22580,note_off,80,0,12,,,,,,,,11,,,,57,64
22580,note_off,80,0,9,,,,,,,,7,,,,36,64
22580,note_off,80,0,8,,,,,,,,6,,,,53,64
22740,note_on,160,0,10,,,,,,,,8,,,,69,45
22740,note_on,160,0,13,,,,,,,,12,,,,53,45
22740,note_on,160,0,9,,,,,,,,7,,,,36,45
22740,note_on,160,0,6,,,,,,,,4,,,,65,45
22740,note_on,160,0,11,,,,,,,,10,,,,65,45
22740,note_on,160,0,7,,,,,,,,5,,,,57,45
22740,note_on,160,0,14,,,,,,,,13,,,,41,45
22740,note_on,160,0,12,,,,,,,,11,,,,57,45
22740,note_on,160,0,8,,,,,,,,6,,,,53,45
22740,note_on,160,0,5,,,,,,,,3,,,,69,45
22820,note_off,80,0,8,,,,,,,,6,,,,53,64
22820,note_off,80,0,11,,,,,,,,10,,,,65,64
22820,note_off,80,0,9,,,,,,,,7,,,,36,64
22820,note_off,80,0,10,,,,,,,,8,,,,69,64
22820,note_off,80,0,5,,,,,,,,3,,,,69,64
22820,note_off,80,0,14,,,,,,,,13,,,,41,64
22820,note_off,80,0,6,,,,,,,,4,,,,65,64
22820,note_off,80,0,7,,,,,,,,5,,,,57,64
22820,note_off,80,0,12,,,,,,,,11,,,,57,64
22820,note_off,80,0,13,,,,,,,,12,,,,53,64
22900,note_off,400,0,15,,,,,,,,14,,,,41,64
22980,note_on,160,0,10,,,,,,,,8,,,,69,45
22980,note_on,160,0,6,,,,,,,,4,,,,65,45
22980,note_on,160,0,12,,,,,,,,11,,,,57,45
22980,note_on,160,0,14,,,,,,,,13,,,,41,45
22980,note_on,160,0,8,,,,,,,,6,,,,53,45
22980,note_on,160,0,7,,,,,,,,5,,,,57,45
22980,note_on,160,0,11,,,,,,,,10,,,,65,45
22980,note_on,160,0,13,,,,,,,,12,,,,53,45
22980,note_on,160,0,9,,,,,,,,7,,,,36,45
22980,note_on,160,0,5,,,,,,,,3,,,,69,45
23060,note_off,80,0,6,,,,,,,,4,,,,65,64
23060,note_off,80,0,7,,,,,,,,5,,,,57,64
23060,note_off,80,0,13,,,,,,,,12,,,,53,64
23060,note_off,80,0,12,,,,,,,,11,,,,57,64
23060,note_off,80,0,9,,,,,,,,7,,,,36,64
23060,note_off,80,0,5,,,,,,,,3,,,,69,64
23060,note_off,80,0,10,,,,,,,,8,,,,69,64
23060,note_off,80,0,8,,,,,,,,6,,,,53,64
23060,note_off,80,0,14,,,,,,,,13,,,,41,64
23060,note_off,80,0,11,,,,,,,,10,,,,65,64
23220,note_on,320,0,15,,,,,,,,14,,,,36,45
23220,note_on,160,0,8,,,,,,,,6,,,,48,45
23220,note_on,160,0,10,,,,,,,,8,,,,70,45
23220,note_on,160,0,14,,,,,,,,13,,,,36,45
23220,note_on,160,0,5,,,,,,,,3,,,,70,45
23220,note_on,160,0,13,,,,,,,,12,,,,48,45
23220,note_on,160,0,12,,,,,,,,11,,,,52,45
23220,note_on,160,0,9,,,,,,,,7,,,,38,45
23220,note_on,160,0,7,,,,,,,,5,,,,52,45
23220,note_on,160,0,11,,,,,,,,10,,,,67,45
23220,note_on,160,0,6,,,,,,,,4,,,,67,45
23300,note_off,80,0,7,,,,,,,,5,,,,52,64
23300,note_off,80,0,8,,,,,,,,6,,,,48,64
23300,note_off,80,0,13,,,,,,,,12,,,,48,64
23300,note_off,80,0,14,,,,,,,,13,,,,36,64
23300,note_off,80,0,11,,,,,,,,10,,,,67,64
23300,note_off,80,0,5,,,,,,,,3,,,,70,64
23300,note_off,80,0,9,,,,,,,,7,,,,38,64
23300,note_off,80,0,10,,,,,,,,8,,,,70,64
23300,note_off,80,0,12,,,,,,,,11,,,,52,64
23300,note_off,80,0,6,,,,,,,,4,,,,67,64
23455,note_off,235,0,15,,,,,,,,14,,,,36,64
23460,note_on,160,0,13,,,,,,,,12,,,,53,45
23460,note_on,160,0,5,,,,,,,,3,,,,69,45
23460,note_on,160,0,7,,,,,,,,5,,,,57,45
23460,note_on,160,0,12,,,,,,,,11,,,,57,45
23460,note_on,160,0,10,,,,,,,,8,,,,69,45
23460,note_on,160,0,8,,,,,,,,6,,,,53,45
23460,note_on,160,0,11,,,,,,,,10,,,,65,45
23460,note_on,160,0,14,,,,,,,,13,,,,41,45
23460,note_on,5,0,15,,,,,,,,14,,,,41,45
23460,note_on,160,0,9,,,,,,,,7,,,,36,45
23460,note_on,160,0,6,,,,,,,,4,,,,65,45
23490,note_on,0,0,10,,,,,,,,8,,,,70,45
23490,note_on,0,0,5,,,,,,,,3,,,,70,45
23490,note_off,30,0,5,,,,,,,,3,,,,69,64
23490,note_off,30,0,10,,,,,,,,8,,,,69,64
23490,note_on,0,0,6,,,,,,,,4,,,,67,45
23490,note_off,30,0,6,,,,,,,,4,,,,65,64
23490,note_on,0,0,11,,,,,,,,10,,,,67,45
23490,note_off,30,0,11,,,,,,,,10,,,,65,64
23490,note_on,0,0,9,,,,,,,,7,,,,38,45
23490,note_off,30,0,9,,,,,,,,7,,,,36,64
23520,note_on,0,0,10,,,,,,,,8,,,,69,45
23520,note_on,0,0,6,,,,,,,,4,,,,65,45
23520,note_off,30,0,6,,,,,,,,4,,,,67,64
23520,note_off,30,0,9,,,,,,,,7,,,,38,64
23520,note_off,30,0,10,,,,,,,,8,,,,70,64
23520,note_off,30,0,11,,,,,,,,10,,,,67,64
23520,note_on,0,0,5,,,,,,,,3,,,,69,45
23520,note_off,30,0,5,,,,,,,,3,,,,70,64
23520,note_on,0,0,11,,,,,,,,10,,,,65,45
23520,note_on,0,0,9,,,,,,,,7,,,,36,45
23540,note_off,80,0,14,,,,,,,,13,,,,41,64
23540,note_off,80,0,8,,,,,,,,6,,,,53,64
23540,note_off,80,0,12,,,,,,,,11,,,,57,64
23540,note_off,80,0,7,,,,,,,,5,,,,57,64
23540,note_off,80,0,13,,,,,,,,12,,,,53,64
23550,note_off,30,0,6,,,,,,,,4,,,,65,64
23550,note_off,30,0,11,,,,,,,,10,,,,65,64
23550,note_on,0,0,6,,,,,,,,4,,,,67,45
23550,note_on,0,0,5,,,,,,,,3,,,,70,45
23550,note_off,30,0,5,,,,,,,,3,,,,69,64
23550,note_off,30,0,9,,,,,,,,7,,,,36,64
23550,note_on,0,0,11,,,,,,,,10,,,,67,45
23550,note_on,0,0,9,,,,,,,,7,,,,38,45
23550,note_off,30,0,10,,,,,,,,8,,,,69,64
23550,note_on,0,0,10,,,,,,,,8,,,,70,45
23580,note_on,0,0,9,,,,,,,,7,,,,36,45
23580,note_on,0,0,6,,,,,,,,4,,,,65,45
23580,note_off,30,0,5,,,,,,,,3,,,,70,64
23580,note_on,0,0,5,,,,,,,,3,,,,69,45
23580,note_off,30,0,10,,,,,,,,8,,,,70,64
23580,note_on,0,0,10,,,,,,,,8,,,,69,45
23580,note_off,30,0,6,,,,,,,,4,,,,67,64
23580,note_on,0,0,11,,,,,,,,10,,,,65,45
23580,note_off,30,0,11,,,,,,,,10,,,,67,64
23580,note_off,30,0,9,,,,,,,,7,,,,38,64
23610,note_on,0,0,11,,,,,,,,10,,,,67,45
23610,note_off,30,0,6,,,,,,,,4,,,,65,64
23610,note_on,0,0,6,,,,,,,,4,,,,67,45
23610,note_off,30,0,9,,,,,,,,7,,,,36,64
23610,note_off,30,0,11,,,,,,,,10,,,,65,64
23610,note_on,0,0,5,,,,,,,,3,,,,70,45
23610,note_on,0,0,9,,,,,,,,7,,,,38,45
23610,note_on,0,0,10,,,,,,,,8,,,,70,45
23610,note_off,30,0,10,,,,,,,,8,,,,69,64
23610,note_off,30,0,5,,,,,,,,3,,,,69,64
23640,note_off,30,0,10,,,,,,,,8,,,,70,64
23640,note_on,0,0,10,,,,,,,,8,,,,69,45
23640,note_off,30,0,6,,,,,,,,4,,,,67,64
23640,note_on,0,0,6,,,,,,,,4,,,,65,45
23640,note_on,0,0,9,,,,,,,,7,,,,36,45
23640,note_on,0,0,11,,,,,,,,10,,,,65,45
23640,note_off,30,0,11,,,,,,,,10,,,,67,64
23640,note_off,30,0,9,,,,,,,,7,,,,38,64
23640,note_on,0,0,5,,,,,,,,3,,,,69,45
23640,note_off,30,0,5,,,,,,,,3,,,,70,64
23670,note_off,30,0,6,,,,,,,,4,,,,65,64
23670,note_on,0,0,5,,,,,,,,3,,,,70,45
23670,note_on,0,0,6,,,,,,,,4,,,,67,45
23670,note_on,0,0,9,,,,,,,,7,,,,38,45
23670,note_on,0,0,11,,,,,,,,10,,,,67,45
23670,note_off,30,0,9,,,,,,,,7,,,,36,64
23670,note_off,30,0,11,,,,,,,,10,,,,65,64
23670,note_off,30,0,10,,,,,,,,8,,,,69,64
23670,note_on,0,0,10,,,,,,,,8,,,,70,45
23670,note_off,30,0,5,,,,,,,,3,,,,69,64
23700,note_off,30,0,9,,,,,,,,7,,,,38,64
23700,note_on,0,0,9,,,,,,,,7,,,,34,45
23700,note_on,160,0,7,,,,,,,,5,,,,57,45
23700,note_on,160,0,12,,,,,,,,11,,,,57,45
23700,note_on,0,0,6,,,,,,,,4,,,,64,45
23700,note_on,0,0,5,,,,,,,,3,,,,67,45
23700,note_on,160,0,8,,,,,,,,6,,,,53,45
23700,note_off,30,0,5,,,,,,,,3,,,,70,64
23700,note_on,160,0,13,,,,,,,,12,,,,53,45
23700,note_on,160,0,14,,,,,,,,13,,,,41,45
23700,set_tempo,4200,1,0,521739,,,,,,,,,,,,
23700,note_on,0,0,11,,,,,,,,10,,,,64,45
23700,note_off,30,0,11,,,,,,,,10,,,,67,64
23700,note_on,0,0,10,,,,,,,,8,,,,67,45
23700,note_off,30,0,10,,,,,,,,8,,,,70,64
23700,note_off,30,0,6,,,,,,,,4,,,,67,64
23780,note_off,80,0,6,,,,,,,,4,,,,64,64
23780,note_off,80,0,12,,,,,,,,11,,,,57,64
23780,note_off,80,0,8,,,,,,,,6,,,,53,64
23780,note_off,80,0,7,,,,,,,,5,,,,57,64
23780,note_off,80,0,9,,,,,,,,7,,,,34,64
23780,note_off,80,0,11,,,,,,,,10,,,,64,64
23780,note_off,80,0,13,,,,,,,,12,,,,53,64
23780,note_off,80,0,14,,,,,,,,13,,,,41,64
23780,note_off,80,0,5,,,,,,,,3,,,,67,64
23780,note_off,80,0,10,,,,,,,,8,,,,67,64
23820,note_on,40,0,10,,,,,,,,8,,,,69,45
23820,note_on,40,0,9,,,,,,,,7,,,,36,45
23820,note_on,40,0,11,,,,,,,,10,,,,65,45
23820,note_on,40,0,5,,,,,,,,3,,,,69,45
23820,note_on,40,0,6,,,,,,,,4,,,,65,45
23860,note_off,400,0,15,,,,,,,,14,,,,41,64
23900,note_off,80,0,10,,,,,,,,8,,,,69,64
23900,note_off,80,0,9,,,,,,,,7,,,,36,64
23900,note_off,80,0,11,,,,,,,,10,,,,65,64
23900,note_off,80,0,5,,,,,,,,3,,,,69,64
23900,note_off,80,0,6,,,,,,,,4,,,,65,64
23940,note_on,160,0,12,,,,,,,,11,,,,50,45
23940,note_on,40,0,6,,,,,,,,4,,,,67,45
23940,note_on,40,0,10,,,,,,,,8,,,,70,45
23940,note_on,160,0,7,,,,,,,,5,,,,50,45
23940,note_on,40,0,9,,,,,,,,7,,,,38,45
23940,note_on,80,0,15,,,,,,,,14,,,,34,45
23940,note_on,40,0,11,,,,,,,,10,,,,67,45
23940,note_on,160,0,14,,,,,,,,13,,,,34,45
23940,note_on,40,0,5,,,,,,,,3,,,,70,45
23940,set_tempo,240,1,0,566037,,,,,,,,,,,,
23940,note_on,160,0,13,,,,,,,,12,,,,46,45
23940,note_on,160,0,8,,,,,,,,6,,,,46,45
24020,note_off,80,0,6,,,,,,,,4,,,,67,64
24020,note_off,80,0,9,,,,,,,,7,,,,38,64
24020,note_off,80,0,11,,,,,,,,10,,,,67,64
24020,note_off,80,0,12,,,,,,,,11,,,,50,64
24020,note_off,80,0,8,,,,,,,,6,,,,46,64
24020,note_off,80,0,13,,,,,,,,12,,,,46,64
24020,note_off,80,0,5,,,,,,,,3,,,,70,64
24020,note_off,80,0,14,,,,,,,,13,,,,34,64
24020,note_off,80,0,7,,,,,,,,5,,,,50,64
24020,note_off,80,0,10,,,,,,,,8,,,,70,64
24175,note_off,235,0,15,,,,,,,,14,,,,34,64
24180,note_on,160,0,8,,,,,,,,6,,,,48,45
24180,note_on,160,0,10,,,,,,,,8,,,,67,45
24180,note_on,160,0,5,,,,,,,,3,,,,67,45
24180,note_on,160,0,9,,,,,,,,7,,,,34,45
24180,note_on,160,0,6,,,,,,,,4,,,,64,45
24180,note_on,160,0,7,,,,,,,,5,,,,48,45
24180,note_on,160,0,12,,,,,,,,11,,,,48,45
24180,note_on,160,0,11,,,,,,,,10,,,,64,45
24180,note_on,160,0,14,,,,,,,,13,,,,36,45
24180,note_on,160,0,13,,,,,,,,12,,,,48,45
24180,note_on,5,0,15,,,,,,,,14,,,,36,45
24260,note_off,80,0,6,,,,,,,,4,,,,64,64
24260,note_off,80,0,7,,,,,,,,5,,,,48,64
24260,note_off,80,0,5,,,,,,,,3,,,,67,64
24260,note_off,80,0,12,,,,,,,,11,,,,48,64
24260,note_off,80,0,8,,,,,,,,6,,,,48,64
24260,note_off,80,0,11,,,,,,,,10,,,,64,64
24260,note_off,80,0,13,,,,,,,,12,,,,48,64
24260,note_off,80,0,10,,,,,,,,8,,,,67,64
24260,note_off,80,0,9,,,,,,,,7,,,,34,64
24260,note_off,80,0,14,,,,,,,,13,,,,36,64
24415,note_off,235,0,15,,,,,,,,14,,,,36,64
24420,note_on,5,0,15,,,,,,,,14,,,,29,45
24420,note_on,0,0,15,,,,,,,,14,,,,41,45
24420,note_on,160,0,14,,,,,,,,13,,,,29,45
24420,set_tempo,480,1,0,500000,,,,,,,,,,,,
24420,note_on,160,0,7,,,,,,,,5,,,,48,45
24420,note_on,160,0,6,,,,,,,,4,,,,60,45
24420,note_on,160,0,13,,,,,,,,12,,,,41,45
24420,note_on,160,0,8,,,,,,,,6,,,,41,45
24420,note_on,160,0,5,,,,,,,,3,,,,65,45
24420,note_on,160,0,9,,,,,,,,7,,,,33,45
24420,note_on,160,0,11,,,,,,,,10,,,,60,45
24420,note_on,160,0,12,,,,,,,,11,,,,48,45
24420,note_on,160,0,10,,,,,,,,8,,,,65,45
24820,note_off,400,0,11,,,,,,,,10,,,,60,64
24820,note_off,400,0,14,,,,,,,,13,,,,29,64
24820,note_off,400,0,8,,,,,,,,6,,,,41,64
24820,note_off,400,0,7,,,,,,,,5,,,,48,64
24820,note_off,400,0,10,,,,,,,,8,,,,65,64
24820,note_off,400,0,9,,,,,,,,7,,,,33,64
24820,note_off,400,0,13,,,,,,,,12,,,,41,64
24820,note_off,400,0,5,,,,,,,,3,,,,65,64
24820,note_off,0,0,15,,,,,,,,14,,,,29,64
24820,note_off,400,0,15,,,,,,,,14,,,,41,64
24820,note_off,400,0,12,,,,,,,,11,,,,48,64
24820,note_off,400,0,6,,,,,,,,4,,,,60,64
24900,set_tempo,480,1,0,500000,,,,,,,,,,,,
25500,note_on,25500,0,4,,,,,,,,2,,,,77,60
25500,note_on,0,0,4,,,,,,,,2,,,,81,60
25500,note_on,680,0,8,,,,,,,,6,,,,53,60
25500,note_on,0,0,3,,,,,,,,1,,,,81,75
25500,note_on,680,0,13,,,,,,,,12,,,,53,45
25500,note_on,25500,0,3,,,,,,,,1,,,,77,75
25580,note_off,80,0,3,,,,,,,,1,,,,81,64
25580,note_off,80,0,13,,,,,,,,12,,,,53,64
25580,note_off,80,0,8,,,,,,,,6,,,,53,64
25580,note_off,80,0,4,,,,,,,,2,,,,81,64
25580,note_off,0,0,4,,,,,,,,2,,,,77,64
25580,note_off,0,0,3,,,,,,,,1,,,,77,64
25740,note_on,0,0,4,,,,,,,,2,,,,81,60
25740,note_on,0,0,3,,,,,,,,1,,,,81,75
25740,note_on,160,0,8,,,,,,,,6,,,,53,60
25740,note_on,160,0,3,,,,,,,,1,,,,77,75
25740,note_on,160,0,13,,,,,,,,12,,,,53,45
25740,note_on,160,0,4,,,,,,,,2,,,,77,60
25820,note_off,80,0,4,,,,,,,,2,,,,81,64
25820,note_off,0,0,4,,,,,,,,2,,,,77,64
25820,note_off,80,0,3,,,,,,,,1,,,,81,64
25820,note_off,80,0,8,,,,,,,,6,,,,53,64
25820,note_off,80,0,13,,,,,,,,12,,,,53,64
25820,note_off,0,0,3,,,,,,,,1,,,,77,64
25980,note_on,160,0,3,,,,,,,,1,,,,77,75
25980,note_on,0,0,3,,,,,,,,1,,,,81,75
25980,note_on,160,0,8,,,,,,,,6,,,,53,60
25980,note_on,160,0,13,,,,,,,,12,,,,53,45
25980,note_on,160,0,4,,,,,,,,2,,,,77,60
25980,note_on,0,0,4,,,,,,,,2,,,,81,60
26060,note_off,80,0,4,,,,,,,,2,,,,81,64
26060,note_off,0,0,3,,,,,,,,1,,,,77,64
26060,note_off,80,0,8,,,,,,,,6,,,,53,64
26060,note_off,80,0,3,,,,,,,,1,,,,81,64
26060,note_off,0,0,4,,,,,,,,2,,,,77,64
26060,note_off,80,0,13,,,,,,,,12,,,,53,64
26220,note_on,0,0,3,,,,,,,,1,,,,82,75
26220,note_on,160,0,3,,,,,,,,1,,,,79,75
26220,note_on,0,0,4,,,,,,,,2,,,,82,60
26220,note_on,160,0,4,,,,,,,,2,,,,79,60
26220,note_on,160,0,8,,,,,,,,6,,,,48,60
26220,note_on,160,0,13,,,,,,,,12,,,,48,45
26300,note_off,80,0,4,,,,,,,,2,,,,82,64
26300,note_off,0,0,4,,,,,,,,2,,,,79,64
26300,note_off,80,0,13,,,,,,,,12,,,,48,64
26300,note_off,0,0,3,,,,,,,,1,,,,79,64
26300,note_off,80,0,8,,,,,,,,6,,,,48,64
26300,note_off,80,0,3,,,,,,,,1,,,,82,64
26460,note_on,0,0,3,,,,,,,,1,,,,81,75
26460,note_on,0,0,4,,,,,,,,2,,,,81,60
26460,note_on,160,0,3,,,,,,,,1,,,,77,75
26460,note_on,160,0,13,,,,,,,,12,,,,53,45
26460,note_on,160,0,4,,,,,,,,2,,,,77,60
26460,note_on,160,0,8,,,,,,,,6,,,,53,60
26815,note_off,0,0,4,,,,,,,,2,,,,77,64
26815,note_off,355,0,3,,,,,,,,1,,,,81,64
26815,note_off,0,0,3,,,,,,,,1,,,,77,64
26815,note_off,355,0,4,,,,,,,,2,,,,81,64
26820,note_on,0,0,3,,,,,,,,1,,,,82,75
26820,note_on,5,0,3,,,,,,,,1,,,,79,75
26820,note_on,5,0,4,,,,,,,,2,,,,79,60
26820,note_on,0,0,4,,,,,,,,2,,,,82,60
26860,note_off,400,0,13,,,,,,,,12,,,,53,64
26860,note_off,400,0,8,,,,,,,,6,,,,53,64
26935,note_off,115,0,4,,,,,,,,2,,,,82,64
26935,note_off,115,0,3,,,,,,,,1,,,,82,64
26935,note_off,0,0,3,,,,,,,,1,,,,79,64
26935,note_off,0,0,4,,,,,,,,2,,,,79,64
26940,note_on,5,0,4,,,,,,,,2,,,,77,60
26940,note_on,0,0,4,,,,,,,,2,,,,81,60
26940,note_on,80,0,13,,,,,,,,12,,,,53,45
26940,note_on,5,0,3,,,,,,,,1,,,,77,75
26940,note_on,0,0,3,,,,,,,,1,,,,81,75
26940,note_on,80,0,8,,,,,,,,6,,,,53,60
27020,note_off,0,0,3,,,,,,,,1,,,,77,64
27020,note_off,80,0,3,,,,,,,,1,,,,81,64
27020,note_off,80,0,13,,,,,,,,12,,,,53,64
27020,note_off,80,0,4,,,,,,,,2,,,,81,64
27020,note_off,0,0,4,,,,,,,,2,,,,77,64
27020,note_off,80,0,8,,,,,,,,6,,,,53,64
27180,note_on,160,0,13,,,,,,,,12,,,,48,45
27180,note_on,0,0,3,,,,,,,,1,,,,82,75
27180,note_on,0,0,4,,,,,,,,2,,,,82,60
27180,note_on,160,0,3,,,,,,,,1,,,,79,75
27180,note_on,160,0,4,,,,,,,,2,,,,79,60
27180,note_on,160,0,8,,,,,,,,6,,,,48,60
27260,note_off,0,0,4,,,,,,,,2,,,,79,64
27260,note_off,80,0,4,,,,,,,,2,,,,82,64
27260,note_off,80,0,8,,,,,,,,6,,,,48,64
27260,note_off,80,0,13,,,,,,,,12,,,,48,64
27260,note_off,80,0,3,,,,,,,,1,,,,82,64
27260,note_off,0,0,3,,,,,,,,1,,,,79,64
27420,note_on,160,0,8,,,,,,,,6,,,,53,60
27420,note_on,160,0,13,,,,,,,,12,,,,53,45
27420,note_on,0,0,3,,,,,,,,1,,,,81,75
27420,note_on,0,0,4,,,,,,,,2,,,,81,60
27420,note_on,160,0,3,,,,,,,,1,,,,77,75
27420,note_on,160,0,4,,,,,,,,2,,,,77,60
27500,note_off,0,0,4,,,,,,,,2,,,,77,64
27500,note_off,80,0,3,,,,,,,,1,,,,81,64
27500,note_off,0,0,3,,,,,,,,1,,,,77,64
27500,note_off,80,0,13,,,,,,,,12,,,,53,64
27500,note_off,80,0,4,,,,,,,,2,,,,81,64
27500,note_off,80,0,8,,,,,,,,6,,,,53,64
27660,note_on,160,0,4,,,,,,,,2,,,,77,60
27660,note_on,0,0,3,,,,,,,,1,,,,81,75
27660,note_on,160,0,8,,,,,,,,6,,,,53,60
27660,note_on,0,0,4,,,,,,,,2,,,,81,60
27660,note_on,160,0,3,,,,,,,,1,,,,77,75
27660,note_on,160,0,13,,,,,,,,12,,,,53,45
27740,note_off,0,0,3,,,,,,,,1,,,,77,64
27740,note_off,80,0,3,,,,,,,,1,,,,81,64
27740,note_off,0,0,4,,,,,,,,2,,,,77,64
27740,note_off,80,0,8,,,,,,,,6,,,,53,64
27740,note_off,80,0,4,,,,,,,,2,,,,81,64
27740,note_off,80,0,13,,,,,,,,12,,,,53,64
27900,note_on,0,0,3,,,,,,,,1,,,,81,75
27900,note_on,160,0,8,,,,,,,,6,,,,53,60
27900,note_on,160,0,4,,,,,,,,2,,,,77,60
27900,note_on,160,0,3,,,,,,,,1,,,,77,75
27900,note_on,160,0,13,,,,,,,,12,,,,53,45
27900,note_on,0,0,4,,,,,,,,2,,,,81,60
27980,note_off,80,0,3,,,,,,,,1,,,,81,64
27980,note_off,0,0,4,,,,,,,,2,,,,77,64
27980,note_off,80,0,4,,,,,,,,2,,,,81,64
27980,note_off,0,0,3,,,,,,,,1,,,,77,64
27980,note_off,80,0,8,,,,,,,,6,,,,53,64
27980,note_off,80,0,13,,,,,,,,12,,,,53,64
28140,note_on,160,0,13,,,,,,,,12,,,,48,45
28140,note_on,160,0,8,,,,,,,,6,,,,48,60
28140,note_on,160,0,4,,,,,,,,2,,,,79,60
28140,note_on,0,0,4,,,,,,,,2,,,,82,60
28140,note_on,160,0,3,,,,,,,,1,,,,79,75
28140,note_on,0,0,3,,,,,,,,1,,,,82,75
28220,note_off,80,0,3,,,,,,,,1,,,,82,64
28220,note_off,0,0,3,,,,,,,,1,,,,79,64
28220,note_off,80,0,8,,,,,,,,6,,,,48,64
28220,note_off,80,0,4,,,,,,,,2,,,,82,64
28220,note_off,0,0,4,,,,,,,,2,,,,79,64
28220,note_off,80,0,13,,,,,,,,12,,,,48,64
28380,note_on,0,0,4,,,,,,,,2,,,,81,60
28380,note_on,160,0,4,,,,,,,,2,,,,77,60
28380,note_on,160,0,13,,,,,,,,12,,,,53,45
28380,note_on,0,0,3,,,,,,,,1,,,,81,75
28380,note_on,160,0,3,,,,,,,,1,,,,77,75
28380,note_on,160,0,8,,,,,,,,6,,,,53,60
28735,note_off,355,0,4,,,,,,,,2,,,,81,64
28735,note_off,0,0,3,,,,,,,,1,,,,77,64
28735,note_off,355,0,3,,,,,,,,1,,,,81,64
28735,note_off,0,0,4,,,,,,,,2,,,,77,64
28740,note_on,5,0,4,,,,,,,,2,,,,79,60
28740,note_on,0,0,4,,,,,,,,2,,,,82,60
28740,note_on,5,0,3,,,,,,,,1,,,,79,75
28740,note_on,0,0,3,,,,,,,,1,,,,82,75
28780,note_off,400,0,13,,,,,,,,12,,,,53,64
28780,note_off,400,0,8,,,,,,,,6,,,,53,64
28855,note_off,115,0,4,,,,,,,,2,,,,82,64
28855,note_off,0,0,4,,,,,,,,2,,,,79,64
28855,note_off,0,0,3,,,,,,,,1,,,,79,64
28855,note_off,115,0,3,,,,,,,,1,,,,82,64
28860,note_on,5,0,4,,,,,,,,2,,,,77,60
28860,note_on,0,0,4,,,,,,,,2,,,,81,60
28860,note_on,80,0,8,,,,,,,,6,,,,53,60
28860,note_on,0,0,3,,,,,,,,1,,,,81,75
28860,note_on,5,0,3,,,,,,,,1,,,,77,75
28860,note_on,80,0,13,,,,,,,,12,,,,53,45
28940,note_off,80,0,3,,,,,,,,1,,,,81,64
28940,note_off,80,0,8,,,,,,,,6,,,,53,64
28940,note_off,80,0,13,,,,,,,,12,,,,53,64
28940,note_off,0,0,3,,,,,,,,1,,,,77,64
28940,note_off,80,0,4,,,,,,,,2,,,,81,64
28940,note_off,0,0,4,,,,,,,,2,,,,77,64
29100,note_on,160,0,3,,,,,,,,1,,,,79,75
29100,note_on,0,0,3,,,,,,,,1,,,,82,75
29100,note_on,160,0,8,,,,,,,,6,,,,48,60
29100,note_on,160,0,13,,,,,,,,12,,,,48,45
29100,note_on,160,0,4,,,,,,,,2,,,,79,60
29100,note_on,0,0,4,,,,,,,,2,,,,82,60
29180,note_off,80,0,4,,,,,,,,2,,,,82,64
29180,note_off,0,0,4,,,,,,,,2,,,,79,64
29180,note_off,80,0,13,,,,,,,,12,,,,48,64
29180,note_off,80,0,3,,,,,,,,1,,,,82,64
29180,note_off,0,0,3,,,,,,,,1,,,,79,64
29180,note_off,80,0,8,,,,,,,,6,,,,48,64
29340,note_on,160,0,4,,,,,,,,2,,,,77,60
29340,note_on,0,0,4,,,,,,,,2,,,,81,60
29340,note_on,160,0,13,,,,,,,,12,,,,53,45
29340,note_on,160,0,3,,,,,,,,1,,,,77,75
29340,note_on,160,0,8,,,,,,,,6,,,,53,60
29340,note_on,0,0,3,,,,,,,,1,,,,81,75
29420,note_off,80,0,13,,,,,,,,12,,,,53,64
29420,note_off,80,0,8,,,,,,,,6,,,,53,64
29580,note_on,160,0,13,,,,,,,,12,,,,53,45
29580,note_on,0,0,4,,,,,,,,2,,,,79,60
29580,note_on,0,0,4,,,,,,,,2,,,,76,60
29580,note_off,0,0,4,,,,,,,,2,,,,77,64
29580,note_off,240,0,4,,,,,,,,2,,,,81,64
29580,note_off,240,0,3,,,,,,,,1,,,,81,64
29580,note_off,0,0,3,,,,,,,,1,,,,77,64
29580,note_on,0,0,3,,,,,,,,1,,,,76,75
29580,note_on,0,0,3,,,,,,,,1,,,,79,75
29580,note_on,160,0,8,,,,,,,,6,,,,53,60
29660,note_off,80,0,13,,,,,,,,12,,,,53,64
29660,note_off,80,0,8,,,,,,,,6,,,,53,64
29660,note_off,0,0,3,,,,,,,,1,,,,76,64
29660,note_off,80,0,4,,,,,,,,2,,,,79,64
29660,note_off,0,0,4,,,,,,,,2,,,,76,64
29660,note_off,80,0,3,,,,,,,,1,,,,79,64
29700,note_on,0,0,3,,,,,,,,1,,,,81,75
29700,note_on,0,0,4,,,,,,,,2,,,,81,60
29700,note_on,40,0,3,,,,,,,,1,,,,77,75
29700,note_on,40,0,4,,,,,,,,2,,,,77,60
29780,note_off,80,0,4,,,,,,,,2,,,,81,64
29780,note_off,80,0,3,,,,,,,,1,,,,81,64
29780,note_off,0,0,3,,,,,,,,1,,,,77,64
29780,note_off,0,0,4,,,,,,,,2,,,,77,64
29820,note_on,160,0,13,,,,,,,,12,,,,46,45
29820,note_on,0,0,3,,,,,,,,1,,,,82,75
29820,note_on,40,0,4,,,,,,,,2,,,,79,60
29820,note_on,160,0,8,,,,,,,,6,,,,46,60
29820,note_on,0,0,4,,,,,,,,2,,,,82,60
29820,note_on,40,0,3,,,,,,,,1,,,,79,75
29900,note_off,80,0,8,,,,,,,,6,,,,46,64
29900,note_off,80,0,3,,,,,,,,1,,,,82,64
29900,note_off,80,0,13,,,,,,,,12,,,,46,64
29900,note_off,0,0,3,,,,,,,,1,,,,79,64
29900,note_off,80,0,4,,,,,,,,2,,,,82,64
29900,note_off,0,0,4,,,,,,,,2,,,,79,64
30060,note_on,160,0,3,,,,,,,,1,,,,77,75
30060,note_on,160,0,13,,,,,,,,12,,,,47,45
30060,note_on,0,0,4,,,,,,,,2,,,,81,60
30060,note_on,160,0,8,,,,,,,,6,,,,47,60
30060,note_on,0,0,3,,,,,,,,1,,,,81,75
30060,note_on,160,0,4,,,,,,,,2,,,,77,60
30140,note_off,0,0,3,,,,,,,,1,,,,77,64
30140,note_off,80,0,4,,,,,,,,2,,,,81,64
30140,note_off,0,0,4,,,,,,,,2,,,,77,64
30140,note_off,80,0,3,,,,,,,,1,,,,81,64
30140,note_off,80,0,8,,,,,,,,6,,,,47,64
30140,note_off,80,0,13,,,,,,,,12,,,,47,64
30300,note_on,160,0,8,,,,,,,,6,,,,48,60
30300,note_on,160,0,13,,,,,,,,12,,,,48,45
30300,note_on,0,0,4,,,,,,,,2,,,,79,45
30300,note_on,160,0,4,,,,,,,,2,,,,76,45
30300,note_on,160,0,3,,,,,,,,1,,,,76,60
30300,note_on,0,0,3,,,,,,,,1,,,,79,60
30700,note_off,400,0,13,,,,,,,,12,,,,48,64
30700,note_off,0,0,4,,,,,,,,2,,,,76,64
30700,note_off,400,0,4,,,,,,,,2,,,,79,64
30700,note_off,400,0,8,,,,,,,,6,,,,48,64
30700,note_off,0,0,3,,,,,,,,1,,,,76,64
30700,note_off,400,0,3,,,,,,,,1,,,,79,64
31380,note_on,680,0,3,,,,,,,,1,,,,77,60
31380,note_on,680,0,13,,,,,,,,12,,,,65,30
31380,note_on,680,0,8,,,,,,,,6,,,,65,45
31380,note_on,0,0,3,,,,,,,,1,,,,81,60
31380,note_on,680,0,4,,,,,,,,2,,,,77,45
31380,note_on,0,0,4,,,,,,,,2,,,,81,45
31460,note_off,0,0,4,,,,,,,,2,,,,77,64
31460,note_off,80,0,4,,,,,,,,2,,,,81,64
31460,note_off,0,0,3,,,,,,,,1,,,,77,64
31460,note_off,80,0,3,,,,,,,,1,,,,81,64
31460,note_off,80,0,13,,,,,,,,12,,,,65,64
31460,note_off,80,0,8,,,,,,,,6,,,,65,64
31620,note_on,160,0,8,,,,,,,,6,,,,65,45
31620,note_on,160,0,3,,,,,,,,1,,,,77,60
31620,note_on,0,0,3,,,,,,,,1,,,,81,60
31620,note_on,160,0,4,,,,,,,,2,,,,77,45
31620,note_on,0,0,4,,,,,,,,2,,,,81,45
31620,note_on,160,0,13,,,,,,,,12,,,,65,30
31700,note_off,0,0,4,,,,,,,,2,,,,77,64
31700,note_off,80,0,4,,,,,,,,2,,,,81,64
31700,note_off,0,0,3,,,,,,,,1,,,,77,64
31700,note_off,80,0,3,,,,,,,,1,,,,81,64
31700,note_off,80,0,13,,,,,,,,12,,,,65,64
31700,note_off,80,0,8,,,,,,,,6,,,,65,64
31860,note_on,160,0,13,,,,,,,,12,,,,65,30
31860,note_on,0,0,4,,,,,,,,2,,,,81,45
31860,note_on,160,0,4,,,,,,,,2,,,,77,45
31860,note_on,0,0,3,,,,,,,,1,,,,81,60
31860,note_on,160,0,8,,,,,,,,6,,,,65,45
31860,note_on,160,0,3,,,,,,,,1,,,,77,60
31940,note_off,80,0,3,,,,,,,,1,,,,81,64
31940,note_off,0,0,3,,,,,,,,1,,,,77,64
31940,note_off,80,0,4,,,,,,,,2,,,,81,64
31940,note_off,0,0,4,,,,,,,,2,,,,77,64
31940,note_off,80,0,8,,,,,,,,6,,,,65,64
31940,note_off,80,0,13,,,,,,,,12,,,,65,64
32100,note_on,160,0,8,,,,,,,,6,,,,60,45
32100,note_on,160,0,13,,,,,,,,12,,,,60,30
32100,note_on,160,0,3,,,,,,,,1,,,,79,60
32100,note_on,0,0,3,,,,,,,,1,,,,82,60
32100,note_on,0,0,4,,,,,,,,2,,,,82,45
32100,note_on,160,0,4,,,,,,,,2,,,,79,45
32180,note_off,80,0,3,,,,,,,,1,,,,82,64
32180,note_off,0,0,4,,,,,,,,2,,,,79,64
32180,note_off,80,0,4,,,,,,,,2,,,,82,64
32180,note_off,80,0,8,,,,,,,,6,,,,60,64
32180,note_off,80,0,13,,,,,,,,12,,,,60,64
32180,note_off,0,0,3,,,,,,,,1,,,,79,64
32340,note_on,160,0,4,,,,,,,,2,,,,77,45
32340,note_on,160,0,13,,,,,,,,12,,,,65,30
32340,note_on,0,0,3,,,,,,,,1,,,,81,60
32340,note_on,160,0,3,,,,,,,,1,,,,77,60
32340,note_on,160,0,8,,,,,,,,6,,,,65,45
32340,note_on,0,0,4,,,,,,,,2,,,,81,45
32695,note_off,355,0,4,,,,,,,,2,,,,81,64
32695,note_off,0,0,4,,,,,,,,2,,,,77,64
32695,note_off,0,0,3,,,,,,,,1,,,,77,64
32695,note_off,355,0,3,,,,,,,,1,,,,81,64
32700,note_on,0,0,4,,,,,,,,2,,,,82,45
32700,note_on,5,0,4,,,,,,,,2,,,,79,45
32700,note_on,5,0,3,,,,,,,,1,,,,79,60
32700,note_on,0,0,3,,,,,,,,1,,,,82,60
32740,note_off,400,0,8,,,,,,,,6,,,,65,64
32740,note_off,400,0,13,,,,,,,,12,,,,65,64
32815,note_off,0,0,4,,,,,,,,2,,,,79,64
32815,note_off,115,0,4,,,,,,,,2,,,,82,64
32815,note_off,0,0,3,,,,,,,,1,,,,79,64
32815,note_off,115,0,3,,,,,,,,1,,,,82,64
32820,note_on,5,0,3,,,,,,,,1,,,,77,60
32820,note_on,80,0,8,,,,,,,,6,,,,65,45
32820,note_on,80,0,13,,,,,,,,12,,,,65,30
32820,note_on,5,0,4,,,,,,,,2,,,,77,45
32820,note_on,0,0,4,,,,,,,,2,,,,81,45
32820,note_on,0,0,3,,,,,,,,1,,,,81,60
32900,note_off,0,0,4,,,,,,,,2,,,,77,64
32900,note_off,80,0,8,,,,,,,,6,,,,65,64
32900,note_off,80,0,13,,,,,,,,12,,,,65,64
32900,note_off,80,0,4,,,,,,,,2,,,,81,64
32900,note_off,0,0,3,,,,,,,,1,,,,77,64
32900,note_off,80,0,3,,,,,,,,1,,,,81,64
33060,note_on,160,0,8,,,,,,,,6,,,,60,45
33060,note_on,160,0,3,,,,,,,,1,,,,79,60
33060,note_on,0,0,3,,,,,,,,1,,,,82,60
33060,note_on,160,0,13,,,,,,,,12,,,,60,30
33060,note_on,0,0,4,,,,,,,,2,,,,82,45
33060,note_on,160,0,4,,,,,,,,2,,,,79,45
33140,note_off,80,0,13,,,,,,,,12,,,,60,64
33140,note_off,80,0,3,,,,,,,,1,,,,82,64
33140,note_off,0,0,3,,,,,,,,1,,,,79,64
33140,note_off,80,0,4,,,,,,,,2,,,,82,64
33140,note_off,0,0,4,,,,,,,,2,,,,79,64
33140,note_off,80,0,8,,,,,,,,6,,,,60,64
33300,note_on,160,0,8,,,,,,,,6,,,,65,45
33300,note_on,160,0,4,,,,,,,,2,,,,77,45
33300,note_on,160,0,13,,,,,,,,12,,,,65,30
33300,note_on,0,0,4,,,,,,,,2,,,,81,45
33300,note_on,160,0,3,,,,,,,,1,,,,77,60
33300,note_on,0,0,3,,,,,,,,1,,,,81,60
33380,note_off,80,0,8,,,,,,,,6,,,,65,64
33380,note_off,80,0,13,,,,,,,,12,,,,65,64
33380,note_off,0,0,4,,,,,,,,2,,,,77,64
33380,note_off,80,0,4,,,,,,,,2,,,,81,64
33380,note_off,80,0,3,,,,,,,,1,,,,81,64
33380,note_off,0,0,3,,,,,,,,1,,,,77,64
33540,note_on,160,0,13,,,,,,,,12,,,,65,30
33540,note_on,160,0,4,,,,,,,,2,,,,77,45
33540,note_on,0,0,4,,,,,,,,2,,,,81,45
33540,note_on,0,0,3,,,,,,,,1,,,,81,60
33540,note_on,160,0,3,,,,,,,,1,,,,77,60
33540,note_on,160,0,8,,,,,,,,6,,,,65,45
33620,note_off,80,0,13,,,,,,,,12,,,,65,64
33620,note_off,0,0,4,,,,,,,,2,,,,77,64
33620,note_off,80,0,4,,,,,,,,2,,,,81,64
33620,note_off,80,0,8,,,,,,,,6,,,,65,64
33620,note_off,80,0,3,,,,,,,,1,,,,81,64
33620,note_off,0,0,3,,,,,,,,1,,,,77,64
33780,note_on,0,0,3,,,,,,,,1,,,,81,60
33780,note_on,160,0,3,,,,,,,,1,,,,77,60
33780,note_on,160,0,4,,,,,,,,2,,,,77,45
33780,note_on,160,0,13,,,,,,,,12,,,,65,30
33780,note_on,160,0,8,,,,,,,,6,,,,65,45
33780,note_on,0,0,4,,,,,,,,2,,,,81,45
33860,note_off,80,0,4,,,,,,,,2,,,,81,64
33860,note_off,80,0,13,,,,,,,,12,,,,65,64
33860,note_off,80,0,8,,,,,,,,6,,,,65,64
33860,note_off,80,0,3,,,,,,,,1,,,,81,64
33860,note_off,0,0,3,,,,,,,,1,,,,77,64
33860,note_off,0,0,4,,,,,,,,2,,,,77,64
34020,note_on,160,0,3,,,,,,,,1,,,,79,60
34020,note_on,0,0,3,,,,,,,,1,,,,82,60
34020,note_on,160,0,8,,,,,,,,6,,,,60,45
34020,note_on,160,0,13,,,,,,,,12,,,,60,30
34020,note_on,160,0,4,,,,,,,,2,,,,79,45
34020,note_on,0,0,4,,,,,,,,2,,,,82,45
34100,note_off,80,0,13,,,,,,,,12,,,,60,64
34100,note_off,0,0,3,,,,,,,,1,,,,79,64
34100,note_off,80,0,3,,,,,,,,1,,,,82,64
34100,note_off,80,0,4,,,,,,,,2,,,,82,64
34100,note_off,0,0,4,,,,,,,,2,,,,79,64
34100,note_off,80,0,8,,,,,,,,6,,,,60,64
34260,note_on,160,0,4,,,,,,,,2,,,,77,45
34260,note_on,160,0,13,,,,,,,,12,,,,65,30
34260,note_on,160,0,3,,,,,,,,1,,,,77,60
34260,note_on,0,0,3,,,,,,,,1,,,,81,60
34260,note_on,160,0,8,,,,,,,,6,,,,65,45
34260,note_on,0,0,4,,,,,,,,2,,,,81,45
34615,note_off,0,0,4,,,,,,,,2,,,,77,64
34615,note_off,355,0,4,,,,,,,,2,,,,81,64
34615,note_off,355,0,3,,,,,,,,1,,,,81,64
34615,note_off,0,0,3,,,,,,,,1,,,,77,64
34620,note_on,5,0,3,,,,,,,,1,,,,79,60
34620,note_on,0,0,3,,,,,,,,1,,,,82,60
34620,note_on,0,0,4,,,,,,,,2,,,,82,45
34620,note_on,5,0,4,,,,,,,,2,,,,79,45
34660,note_off,400,0,13,,,,,,,,12,,,,65,64
34660,note_off,400,0,8,,,,,,,,6,,,,65,64
34735,note_off,115,0,3,,,,,,,,1,,,,82,64
34735,note_off,0,0,3,,,,,,,,1,,,,79,64
34735,note_off,0,0,4,,,,,,,,2,,,,79,64
34735,note_off,115,0,4,,,,,,,,2,,,,82,64
34740,note_on,5,0,3,,,,,,,,1,,,,77,60
34740,note_on,0,0,3,,,,,,,,1,,,,81,60
34740,note_on,5,0,4,,,,,,,,2,,,,77,45
34740,note_on,0,0,4,,,,,,,,2,,,,81,45
34740,note_on,80,0,13,,,,,,,,12,,,,65,30
34740,note_on,80,0,8,,,,,,,,6,,,,65,45
34820,note_off,80,0,3,,,,,,,,1,,,,81,64
34820,note_off,80,0,13,,,,,,,,12,,,,65,64
34820,note_off,80,0,8,,,,,,,,6,,,,65,64
34820,note_off,0,0,3,,,,,,,,1,,,,77,64
34820,note_off,0,0,4,,,,,,,,2,,,,77,64
34820,note_off,80,0,4,,,,,,,,2,,,,81,64
34980,note_on,160,0,3,,,,,,,,1,,,,79,60
34980,note_on,0,0,3,,,,,,,,1,,,,82,60
34980,note_on,160,0,13,,,,,,,,12,,,,60,30
34980,note_on,0,0,4,,,,,,,,2,,,,82,45
34980,note_on,160,0,4,,,,,,,,2,,,,79,45
34980,note_on,160,0,8,,,,,,,,6,,,,60,45
35060,note_off,80,0,4,,,,,,,,2,,,,82,64
35060,note_off,0,0,4,,,,,,,,2,,,,79,64
35060,note_off,80,0,8,,,,,,,,6,,,,60,64
35060,note_off,80,0,13,,,,,,,,12,,,,60,64
35060,note_off,80,0,3,,,,,,,,1,,,,82,64
35060,note_off,0,0,3,,,,,,,,1,,,,79,64
35220,note_on,160,0,3,,,,,,,,1,,,,77,60
35220,note_on,0,0,3,,,,,,,,1,,,,81,60
35220,note_on,0,0,4,,,,,,,,2,,,,81,45
35220,note_on,160,0,13,,,,,,,,12,,,,65,30
35220,note_on,160,0,8,,,,,,,,6,,,,65,45
35220,note_on,160,0,4,,,,,,,,2,,,,77,45
35300,note_off,80,0,13,,,,,,,,12,,,,65,64
35300,note_off,80,0,8,,,,,,,,6,,,,65,64
35460,note_on,0,0,3,,,,,,,,1,,,,76,60
35460,note_on,0,0,4,,,,,,,,2,,,,76,45
35460,note_off,0,0,4,,,,,,,,2,,,,77,64
35460,note_off,240,0,4,,,,,,,,2,,,,81,64
35460,note_on,0,0,3,,,,,,,,1,,,,79,60
35460,note_off,240,0,3,,,,,,,,1,,,,81,64
35460,note_on,0,0,4,,,,,,,,2,,,,79,45
35460,note_off,0,0,3,,,,,,,,1,,,,77,64
35460,note_on,160,0,13,,,,,,,,12,,,,65,30
35460,note_on,160,0,8,,,,,,,,6,,,,65,45
35540,note_off,80,0,4,,,,,,,,2,,,,79,64
35540,note_off,0,0,4,,,,,,,,2,,,,76,64
35540,note_off,80,0,13,,,,,,,,12,,,,65,64
35540,note_off,80,0,8,,,,,,,,6,,,,65,64
35540,note_off,0,0,3,,,,,,,,1,,,,76,64
35540,note_off,80,0,3,,,,,,,,1,,,,79,64
35580,note_on,40,0,3,,,,,,,,1,,,,77,60
35580,note_on,0,0,4,,,,,,,,2,,,,81,45
35580,note_on,40,0,4,,,,,,,,2,,,,77,45
35580,note_on,0,0,3,,,,,,,,1,,,,81,60
35660,note_off,0,0,4,,,,,,,,2,,,,77,64
35660,note_off,80,0,4,,,,,,,,2,,,,81,64
35660,note_off,80,0,3,,,,,,,,1,,,,81,64
35660,note_off,0,0,3,,,,,,,,1,,,,77,64
35700,note_on,0,0,4,,,,,,,,2,,,,82,45
35700,note_on,40,0,4,,,,,,,,2,,,,79,45
35700,note_on,160,0,13,,,,,,,,12,,,,58,30
35700,note_on,40,0,3,,,,,,,,1,,,,79,60
35700,note_on,160,0,8,,,,,,,,6,,,,58,45
35700,note_on,0,0,3,,,,,,,,1,,,,82,60
35780,note_off,80,0,3,,,,,,,,1,,,,82,64
35780,note_off,0,0,3,,,,,,,,1,,,,79,64
35780,note_off,80,0,4,,,,,,,,2,,,,82,64
35780,note_off,80,0,13,,,,,,,,12,,,,58,64
35780,note_off,0,0,4,,,,,,,,2,,,,79,64
35780,note_off,80,0,8,,,,,,,,6,,,,58,64
35940,note_on,160,0,4,,,,,,,,2,,,,77,45
35940,note_on,0,0,4,,,,,,,,2,,,,81,45
35940,note_on,160,0,3,,,,,,,,1,,,,77,60
35940,note_on,0,0,3,,,,,,,,1,,,,81,60
35940,note_on,160,0,13,,,,,,,,12,,,,59,30
35940,note_on,160,0,8,,,,,,,,6,,,,59,45
36020,note_off,80,0,4,,,,,,,,2,,,,81,64
36020,note_off,80,0,8,,,,,,,,6,,,,59,64
36020,note_off,0,0,4,,,,,,,,2,,,,77,64
36020,note_off,0,0,3,,,,,,,,1,,,,77,64
36020,note_off,80,0,13,,,,,,,,12,,,,59,64
36020,note_off,80,0,3,,,,,,,,1,,,,81,64
36180,note_on,160,0,13,,,,,,,,12,,,,60,30
36180,note_on,0,0,3,,,,,,,,1,,,,79,45
36180,note_on,160,0,3,,,,,,,,1,,,,76,45
36180,note_on,160,0,4,,,,,,,,2,,,,76,30
36180,note_on,0,0,4,,,,,,,,2,,,,79,30
36180,note_on,160,0,8,,,,,,,,6,,,,60,45
36580,note_off,400,0,13,,,,,,,,12,,,,60,64
36580,note_off,0,0,4,,,,,,,,2,,,,76,64
36580,note_off,400,0,4,,,,,,,,2,,,,79,64
36580,note_off,400,0,8,,,,,,,,6,,,,60,64
36580,note_off,400,0,3,,,,,,,,1,,,,79,64
36580,note_off,0,0,3,,,,,,,,1,,,,76,64
37260,note_on,680,0,4,,,,,,,,2,,,,81,75
37260,note_on,680,0,8,,,,,,,,6,,,,65,75
37260,note_on,680,0,13,,,,,,,,12,,,,65,60
37260,note_on,680,0,3,,,,,,,,1,,,,81,92
37260,note_on,0,0,3,,,,,,,,1,,,,89,92
37260,note_on,0,0,4,,,,,,,,2,,,,89,75
37500,note_off,0,0,4,,,,,,,,2,,,,81,64
37500,note_on,0,0,3,,,,,,,,1,,,,84,92
37500,note_off,240,0,4,,,,,,,,2,,,,89,64
37500,note_off,240,0,3,,,,,,,,1,,,,89,64
37500,note_on,0,0,4,,,,,,,,2,,,,84,75
37500,note_on,0,0,4,,,,,,,,2,,,,81,75
37500,note_on,0,0,3,,,,,,,,1,,,,81,92
37500,note_off,0,0,3,,,,,,,,1,,,,81,64
37580,note_off,80,0,4,,,,,,,,2,,,,84,64
37580,note_off,0,0,4,,,,,,,,2,,,,81,64
37580,note_off,80,0,3,,,,,,,,1,,,,84,64
37580,note_off,0,0,3,,,,,,,,1,,,,81,64
37660,note_off,400,0,8,,,,,,,,6,,,,65,64
37660,note_off,400,0,13,,,,,,,,12,,,,65,64
37740,note_on,0,0,3,,,,,,,,1,,,,84,92
37740,note_on,0,0,4,,,,,,,,2,,,,84,75
37740,note_on,80,0,8,,,,,,,,6,,,,65,75
37740,note_on,160,0,4,,,,,,,,2,,,,81,75
37740,note_on,80,0,13,,,,,,,,12,,,,65,60
37740,note_on,160,0,3,,,,,,,,1,,,,81,92
37820,note_off,0,0,4,,,,,,,,2,,,,81,64
37820,note_off,80,0,4,,,,,,,,2,,,,84,64
37820,note_off,80,0,3,,,,,,,,1,,,,84,64
37820,note_off,0,0,3,,,,,,,,1,,,,81,64
37820,note_off,80,0,8,,,,,,,,6,,,,65,64
37820,note_off,80,0,13,,,,,,,,12,,,,65,64
37980,note_on,160,0,3,,,,,,,,1,,,,81,92
37980,note_on,0,0,3,,,,,,,,1,,,,84,92
37980,note_on,160,0,13,,,,,,,,12,,,,65,60
37980,note_on,160,0,8,,,,,,,,6,,,,65,75
37980,note_on,160,0,4,,,,,,,,2,,,,81,75
37980,note_on,0,0,4,,,,,,,,2,,,,84,75
38060,note_off,0,0,4,,,,,,,,2,,,,81,64
38060,note_off,80,0,3,,,,,,,,1,,,,84,64
38060,note_off,0,0,3,,,,,,,,1,,,,81,64
38060,note_off,80,0,13,,,,,,,,12,,,,65,64
38060,note_off,80,0,8,,,,,,,,6,,,,65,64
38060,note_off,80,0,4,,,,,,,,2,,,,84,64
38220,note_on,160,0,13,,,,,,,,12,,,,58,60
38220,note_on,0,0,4,,,,,,,,2,,,,86,75
38220,note_on,160,0,3,,,,,,,,1,,,,82,92
38220,note_on,160,0,8,,,,,,,,6,,,,58,75
38220,note_on,160,0,4,,,,,,,,2,,,,82,75
38220,note_on,0,0,3,,,,,,,,1,,,,86,92
38620,note_off,400,0,4,,,,,,,,2,,,,86,64
38620,note_off,0,0,4,,,,,,,,2,,,,82,64
38620,note_off,400,0,3,,,,,,,,1,,,,86,64
38620,note_off,400,0,13,,,,,,,,12,,,,58,64
38620,note_off,0,0,3,,,,,,,,1,,,,82,64
38620,note_off,400,0,8,,,,,,,,6,,,,58,64
38700,note_on,80,0,3,,,,,,,,1,,,,81,92
38700,note_on,80,0,13,,,,,,,,12,,,,53,60
38700,note_on,80,0,8,,,,,,,,6,,,,53,75
38700,note_on,0,0,3,,,,,,,,1,,,,84,92
38700,note_on,80,0,4,,,,,,,,2,,,,81,75
38700,note_on,0,0,4,,,,,,,,2,,,,84,75
38780,note_off,0,0,3,,,,,,,,1,,,,81,64
38780,note_off,80,0,4,,,,,,,,2,,,,84,64
38780,note_off,0,0,4,,,,,,,,2,,,,81,64
38780,note_off,80,0,13,,,,,,,,12,,,,53,64
38780,note_off,80,0,3,,,,,,,,1,,,,84,64
38780,note_off,80,0,8,,,,,,,,6,,,,53,64
38940,note_on,0,0,3,,,,,,,,1,,,,84,92
38940,note_on,160,0,3,,,,,,,,1,,,,81,92
38940,note_on,160,0,4,,,,,,,,2,,,,81,75
38940,note_on,0,0,4,,,,,,,,2,,,,84,75
38940,note_on,160,0,13,,,,,,,,12,,,,65,60
38940,note_on,160,0,8,,,,,,,,6,,,,65,75
39020,note_off,0,0,3,,,,,,,,1,,,,81,64
39020,note_off,80,0,13,,,,,,,,12,,,,65,64
39020,note_off,80,0,8,,,,,,,,6,,,,65,64
39020,note_off,80,0,3,,,,,,,,1,,,,84,64
39020,note_off,80,0,4,,,,,,,,2,,,,84,64
39020,note_off,0,0,4,,,,,,,,2,,,,81,64
39180,note_on,0,0,3,,,,,,,,1,,,,89,92
39180,note_on,160,0,8,,,,,,,,6,,,,65,75
39180,note_on,160,0,4,,,,,,,,2,,,,81,75
39180,note_on,0,0,4,,,,,,,,2,,,,89,75
39180,note_on,160,0,13,,,,,,,,12,,,,65,60
39180,note_on,160,0,3,,,,,,,,1,,,,81,92
39420,note_on,0,0,3,,,,,,,,1,,,,84,92
39420,note_on,0,0,3,,,,,,,,1,,,,81,92
39420,note_off,0,0,3,,,,,,,,1,,,,81,64
39420,note_off,240,0,4,,,,,,,,2,,,,89,64
39420,note_off,240,0,3,,,,,,,,1,,,,89,64
39420,note_on,0,0,4,,,,,,,,2,,,,84,75
39420,note_off,0,0,4,,,,,,,,2,,,,81,64
39420,note_on,0,0,4,,,,,,,,2,,,,81,75
39500,note_off,0,0,3,,,,,,,,1,,,,81,64
39500,note_off,0,0,4,,,,,,,,2,,,,81,64
39500,note_off,80,0,4,,,,,,,,2,,,,84,64
39500,note_off,80,0,3,,,,,,,,1,,,,84,64
39580,note_off,400,0,13,,,,,,,,12,,,,65,64
39580,note_off,400,0,8,,,,,,,,6,,,,65,64
39660,note_on,0,0,3,,,,,,,,1,,,,84,92
39660,note_on,160,0,4,,,,,,,,2,,,,81,75
39660,note_on,80,0,13,,,,,,,,12,,,,65,60
39660,note_on,80,0,8,,,,,,,,6,,,,65,75
39660,note_on,0,0,4,,,,,,,,2,,,,84,75
39660,note_on,160,0,3,,,,,,,,1,,,,81,92
39740,note_off,80,0,8,,,,,,,,6,,,,65,64
39740,note_off,80,0,3,,,,,,,,1,,,,84,64
39740,note_off,80,0,13,,,,,,,,12,,,,65,64
39740,note_off,80,0,4,,,,,,,,2,,,,84,64
39740,note_off,0,0,3,,,,,,,,1,,,,81,64
39740,note_off,0,0,4,,,,,,,,2,,,,81,64
39900,note_on,160,0,3,,,,,,,,1,,,,81,92
39900,note_on,160,0,13,,,,,,,,12,,,,65,60
39900,note_on,160,0,4,,,,,,,,2,,,,81,75
39900,note_on,0,0,4,,,,,,,,2,,,,84,75
39900,note_on,0,0,3,,,,,,,,1,,,,84,92
39900,note_on,160,0,8,,,,,,,,6,,,,65,75
39980,note_off,0,0,3,,,,,,,,1,,,,81,64
39980,note_off,80,0,3,,,,,,,,1,,,,84,64
39980,note_off,80,0,8,,,,,,,,6,,,,65,64
39980,note_off,80,0,4,,,,,,,,2,,,,84,64
39980,note_off,0,0,4,,,,,,,,2,,,,81,64
39980,note_off,80,0,13,,,,,,,,12,,,,65,64
40140,note_on,160,0,4,,,,,,,,2,,,,82,75
40140,note_on,0,0,4,,,,,,,,2,,,,86,75
40140,note_on,160,0,8,,,,,,,,6,,,,58,75
40140,note_on,160,0,13,,,,,,,,12,,,,58,60
40140,note_on,0,0,3,,,,,,,,1,,,,86,92
40140,note_on,160,0,3,,,,,,,,1,,,,82,92
40540,note_off,400,0,4,,,,,,,,2,,,,86,64
40540,note_off,400,0,13,,,,,,,,12,,,,58,64
40540,note_off,0,0,4,,,,,,,,2,,,,82,64
40540,note_off,0,0,3,,,,,,,,1,,,,82,64
40540,note_off,400,0,3,,,,,,,,1,,,,86,64
40540,note_off,400,0,8,,,,,,,,6,,,,58,64
40620,note_on,80,0,4,,,,,,,,2,,,,81,75
40620,note_on,0,0,3,,,,,,,,1,,,,84,92
40620,note_on,80,0,8,,,,,,,,6,,,,53,75
40620,note_on,0,0,4,,,,,,,,2,,,,84,75
40620,note_on,80,0,3,,,,,,,,1,,,,81,92
40620,note_on,80,0,13,,,,,,,,12,,,,53,60
40700,note_off,80,0,4,,,,,,,,2,,,,84,64
40700,note_off,0,0,4,,,,,,,,2,,,,81,64
40700,note_off,80,0,8,,,,,,,,6,,,,53,64
40700,note_off,0,0,3,,,,,,,,1,,,,81,64
40700,note_off,80,0,3,,,,,,,,1,,,,84,64
40700,note_off,80,0,13,,,,,,,,12,,,,53,64
40860,note_on,160,0,4,,,,,,,,2,,,,81,75
40860,note_on,160,0,8,,,,,,,,6,,,,65,75
40860,note_on,0,0,4,,,,,,,,2,,,,84,75
40860,note_on,0,0,3,,,,,,,,1,,,,84,92
40860,note_on,160,0,3,,,,,,,,1,,,,81,92
40860,note_on,160,0,13,,,,,,,,12,,,,65,60
40940,note_off,0,0,3,,,,,,,,1,,,,81,64
40940,note_off,80,0,3,,,,,,,,1,,,,84,64
40940,note_off,0,0,4,,,,,,,,2,,,,81,64
40940,note_off,80,0,4,,,,,,,,2,,,,84,64
40940,note_off,80,0,8,,,,,,,,6,,,,65,64
40940,note_off,80,0,13,,,,,,,,12,,,,65,64
41100,note_on,0,0,3,,,,,,,,1,,,,86,92
41100,note_on,160,0,3,,,,,,,,1,,,,82,92
41100,note_on,160,0,8,,,,,,,,6,,,,58,75
41100,note_on,160,0,13,,,,,,,,12,,,,58,60
41100,note_on,160,0,4,,,,,,,,2,,,,82,75
41100,note_on,0,0,4,,,,,,,,2,,,,86,75
41500,note_off,0,0,3,,,,,,,,1,,,,82,64
41500,note_off,0,0,4,,,,,,,,2,,,,82,64
41500,note_off,400,0,4,,,,,,,,2,,,,86,64
41500,note_off,400,0,3,,,,,,,,1,,,,86,64
41500,note_off,400,0,8,,,,,,,,6,,,,58,64
41500,note_off,400,0,13,,,,,,,,12,,,,58,64
41580,note_on,80,0,8,,,,,,,,6,,,,53,75
41580,note_on,80,0,4,,,,,,,,2,,,,81,75
41580,note_on,0,0,4,,,,,,,,2,,,,84,75
41580,note_on,80,0,3,,,,,,,,1,,,,81,92
41580,note_on,0,0,3,,,,,,,,1,,,,84,92
41580,note_on,80,0,13,,,,,,,,12,,,,53,60
41660,note_off,80,0,3,,,,,,,,1,,,,84,64
41660,note_off,0,0,3,,,,,,,,1,,,,81,64
41660,note_off,80,0,13,,,,,,,,12,,,,53,64
41660,note_off,0,0,4,,,,,,,,2,,,,81,64
41660,note_off,80,0,4,,,,,,,,2,,,,84,64
41660,note_off,80,0,8,,,,,,,,6,,,,53,64
41820,note_on,0,0,3,,,,,,,,1,,,,84,92
41820,note_on,160,0,3,,,,,,,,1,,,,81,92
41820,note_on,0,0,4,,,,,,,,2,,,,84,75
41820,note_on,160,0,4,,,,,,,,2,,,,81,75
41820,note_on,160,0,8,,,,,,,,6,,,,65,75
41820,note_on,160,0,13,,,,,,,,12,,,,65,60
41900,note_off,80,0,4,,,,,,,,2,,,,84,64
41900,note_off,0,0,4,,,,,,,,2,,,,81,64
41900,note_off,80,0,8,,,,,,,,6,,,,65,64
41900,note_off,80,0,13,,,,,,,,12,,,,65,64
41900,note_off,80,0,3,,,,,,,,1,,,,84,64
41900,note_off,0,0,3,,,,,,,,1,,,,81,64
42060,note_on,160,0,4,,,,,,,,2,,,,89,75
42060,note_on,160,0,8,,,,,,,,6,,,,65,75
42060,note_on,160,0,13,,,,,,,,12,,,,65,60
42060,note_on,160,0,3,,,,,,,,1,,,,89,92
42140,note_off,80,0,3,,,,,,,,1,,,,89,64
42295,note_off,235,0,4,,,,,,,,2,,,,89,64
42300,note_on,5,0,4,,,,,,,,2,,,,88,75
42300,note_on,160,0,3,,,,,,,,1,,,,88,92
42380,note_off,80,0,4,,,,,,,,2,,,,88,64
42380,note_off,80,0,3,,,,,,,,1,,,,88,64
42420,note_on,40,0,3,,,,,,,,1,,,,86,92
42420,note_on,40,0,4,,,,,,,,2,,,,86,75
42460,note_off,400,0,13,,,,,,,,12,,,,65,64
42460,note_off,400,0,8,,,,,,,,6,,,,65,64
42500,note_off,80,0,4,,,,,,,,2,,,,86,64
42500,note_off,80,0,3,,,,,,,,1,,,,86,64
42540,note_on,40,0,4,,,,,,,,2,,,,84,75
42540,note_on,40,0,3,,,,,,,,1,,,,84,92
42540,note_on,80,0,13,,,,,,,,12,,,,64,60
42540,note_on,80,0,8,,,,,,,,6,,,,64,75
42620,note_off,80,0,3,,,,,,,,1,,,,84,64
42620,note_off,80,0,4,,,,,,,,2,,,,84,64
42780,note_on,160,0,4,,,,,,,,2,,,,82,75
42780,note_on,160,0,3,,,,,,,,1,,,,82,92
42860,note_off,80,0,3,,,,,,,,1,,,,82,64
42860,note_off,80,0,4,,,,,,,,2,,,,82,64
42940,note_off,400,0,8,,,,,,,,6,,,,64,64
42940,note_off,400,0,13,,,,,,,,12,,,,64,64
43020,note_on,80,0,13,,,,,,,,12,,,,65,60
43020,note_on,160,0,3,,,,,,,,1,,,,72,60
43020,note_on,0,0,3,,,,,,,,1,,,,81,60
43020,note_on,0,0,4,,,,,,,,2,,,,81,45
43020,set_tempo,18120,1,0,530973,,,,,,,,,,,,
43020,note_on,80,0,8,,,,,,,,6,,,,65,75
43020,note_on,160,0,4,,,,,,,,2,,,,72,45
43420,note_off,400,0,13,,,,,,,,12,,,,65,64
43420,note_off,0,0,3,,,,,,,,1,,,,72,64
43420,note_off,400,0,3,,,,,,,,1,,,,81,64
43420,note_off,400,0,8,,,,,,,,6,,,,65,64
43420,note_off,0,0,4,,,,,,,,2,,,,72,64
43420,note_off,400,0,4,,,,,,,,2,,,,81,64
43500,note_on,80,0,4,,,,,,,,2,,,,70,45
43500,note_on,0,0,4,,,,,,,,2,,,,79,45
43500,note_on,80,0,3,,,,,,,,1,,,,70,60
43500,note_on,80,0,8,,,,,,,,6,,,,60,75
43500,note_on,80,0,13,,,,,,,,12,,,,60,60
43500,note_on,0,0,3,,,,,,,,1,,,,79,60
43900,note_off,400,0,13,,,,,,,,12,,,,60,64
43900,note_off,400,0,8,,,,,,,,6,,,,60,64
43900,note_off,400,0,4,,,,,,,,2,,,,79,64
43900,note_off,400,0,3,,,,,,,,1,,,,79,64
43900,note_off,0,0,3,,,,,,,,1,,,,70,64
43900,note_off,0,0,4,,,,,,,,2,,,,70,64
43980,note_on,80,0,13,,,,,,,,12,,,,53,60
43980,note_on,80,0,8,,,,,,,,6,,,,53,75
43980,note_on,0,0,3,,,,,,,,1,,,,77,60
43980,note_on,80,0,3,,,,,,,,1,,,,69,60
43980,note_on,80,0,4,,,,,,,,2,,,,69,45
43980,note_on,0,0,4,,,,,,,,2,,,,77,45
44380,note_off,400,0,8,,,,,,,,6,,,,53,64
44380,note_off,400,0,4,,,,,,,,2,,,,77,64
44380,note_off,0,0,4,,,,,,,,2,,,,69,64
44380,note_off,400,0,13,,,,,,,,12,,,,53,64
44380,note_off,0,0,3,,,,,,,,1,,,,69,64
44380,note_off,400,0,3,,,,,,,,1,,,,77,64
44460,set_tempo,1440,1,0,500000,,,,,,,,,,,,
45060,note_on,680,0,13,,,,,,,,12,,,,53,30
45060,note_on,0,0,4,,,,,,,,2,,,,77,45
45060,note_on,680,0,3,,,,,,,,1,,,,69,60
45060,note_on,680,0,8,,,,,,,,6,,,,53,45
45060,note_on,0,0,3,,,,,,,,1,,,,77,60
45060,note_on,680,0,4,,,,,,,,2,,,,69,45
45300,note_on,0,0,3,,,,,,,,1,,,,69,60
45300,note_on,0,0,3,,,,,,,,1,,,,72,60
45300,note_off,0,0,4,,,,,,,,2,,,,69,64
45300,note_off,0,0,3,,,,,,,,1,,,,69,64
45300,note_off,240,0,3,,,,,,,,1,,,,77,64
45300,note_on,0,0,4,,,,,,,,2,,,,69,45
45300,note_on,0,0,4,,,,,,,,2,,,,72,45
45300,note_off,240,0,4,,,,,,,,2,,,,77,64
45380,note_off,0,0,4,,,,,,,,2,,,,69,64
45380,note_off,80,0,4,,,,,,,,2,,,,72,64
45380,note_off,80,0,3,,,,,,,,1,,,,72,64
45380,note_off,0,0,3,,,,,,,,1,,,,69,64
45460,note_off,400,0,13,,,,,,,,12,,,,53,64
45460,note_off,400,0,8,,,,,,,,6,,,,53,64
45540,note_on,80,0,8,,,,,,,,6,,,,53,45
45540,note_on,0,0,3,,,,,,,,1,,,,72,60
45540,note_on,80,0,13,,,,,,,,12,,,,53,30
45540,note_on,160,0,4,,,,,,,,2,,,,69,45
45540,note_on,0,0,4,,,,,,,,2,,,,72,45
45540,note_on,160,0,3,,,,,,,,1,,,,69,60
45620,note_off,80,0,8,,,,,,,,6,,,,53,64
45620,note_off,80,0,13,,,,,,,,12,,,,53,64
45620,note_off,0,0,4,,,,,,,,2,,,,69,64
45620,note_off,80,0,4,,,,,,,,2,,,,72,64
45620,note_off,0,0,3,,,,,,,,1,,,,69,64
45620,note_off,80,0,3,,,,,,,,1,,,,72,64
45780,note_on,160,0,4,,,,,,,,2,,,,69,45
45780,note_on,160,0,13,,,,,,,,12,,,,53,30
45780,note_on,0,0,4,,,,,,,,2,,,,72,45
45780,note_on,0,0,3,,,,,,,,1,,,,72,60
45780,note_on,160,0,8,,,,,,,,6,,,,53,45
45780,note_on,160,0,3,,,,,,,,1,,,,69,60
45860,note_off,80,0,8,,,,,,,,6,,,,53,64
45860,note_off,80,0,4,,,,,,,,2,,,,72,64
45860,note_off,80,0,3,,,,,,,,1,,,,72,64
45860,note_off,0,0,3,,,,,,,,1,,,,69,64
45860,note_off,80,0,13,,,,,,,,12,,,,53,64
45860,note_off,0,0,4,,,,,,,,2,,,,69,64
46020,note_on,160,0,8,,,,,,,,6,,,,46,45
46020,note_on,160,0,3,,,,,,,,1,,,,70,60
46020,note_on,0,0,3,,,,,,,,1,,,,74,60
46020,note_on,160,0,13,,,,,,,,12,,,,46,30
46020,note_on,160,0,4,,,,,,,,2,,,,70,45
46020,note_on,0,0,4,,,,,,,,2,,,,74,45
46420,note_off,400,0,8,,,,,,,,6,,,,46,64
46420,note_off,400,0,3,,,,,,,,1,,,,74,64
46420,note_off,400,0,4,,,,,,,,2,,,,74,64
46420,note_off,0,0,3,,,,,,,,1,,,,70,64
46420,note_off,0,0,4,,,,,,,,2,,,,70,64
46420,note_off,400,0,13,,,,,,,,12,,,,46,64
46500,note_on,80,0,13,,,,,,,,12,,,,41,30
46500,note_on,80,0,8,,,,,,,,6,,,,41,45
46500,note_on,0,0,4,,,,,,,,2,,,,72,45
46500,note_on,0,0,3,,,,,,,,1,,,,72,60
46500,note_on,80,0,4,,,,,,,,2,,,,69,45
46500,note_on,80,0,3,,,,,,,,1,,,,69,60
46580,note_off,80,0,13,,,,,,,,12,,,,41,64
46580,note_off,0,0,4,,,,,,,,2,,,,69,64
46580,note_off,0,0,3,,,,,,,,1,,,,69,64
46580,note_off,80,0,4,,,,,,,,2,,,,72,64
46580,note_off,80,0,8,,,,,,,,6,,,,41,64
46580,note_off,80,0,3,,,,,,,,1,,,,72,64
46740,note_on,160,0,3,,,,,,,,1,,,,69,60
46740,note_on,0,0,3,,,,,,,,1,,,,72,60
46740,note_on,160,0,13,,,,,,,,12,,,,53,30
46740,note_on,160,0,8,,,,,,,,6,,,,53,45
46740,note_on,160,0,4,,,,,,,,2,,,,69,45
46740,note_on,0,0,4,,,,,,,,2,,,,72,45
46820,note_off,80,0,8,,,,,,,,6,,,,53,64
46820,note_off,0,0,3,,,,,,,,1,,,,69,64
46820,note_off,80,0,3,,,,,,,,1,,,,72,64
46820,note_off,80,0,4,,,,,,,,2,,,,72,64
46820,note_off,0,0,4,,,,,,,,2,,,,69,64
46820,note_off,80,0,13,,,,,,,,12,,,,53,64
46980,note_on,160,0,4,,,,,,,,2,,,,69,45
46980,note_on,0,0,4,,,,,,,,2,,,,77,45
46980,note_on,160,0,13,,,,,,,,12,,,,53,30
46980,note_on,0,0,3,,,,,,,,1,,,,77,60
46980,note_on,160,0,3,,,,,,,,1,,,,69,60
46980,note_on,160,0,8,,,,,,,,6,,,,53,45
47220,note_on,0,0,4,,,,,,,,2,,,,69,45
47220,note_off,0,0,4,,,,,,,,2,,,,69,64
47220,note_off,240,0,4,,,,,,,,2,,,,77,64
47220,note_on,0,0,3,,,,,,,,1,,,,69,60
47220,note_off,0,0,3,,,,,,,,1,,,,69,64
47220,note_off,240,0,3,,,,,,,,1,,,,77,64
47220,note_on,0,0,3,,,,,,,,1,,,,72,60
47220,note_on,0,0,4,,,,,,,,2,,,,72,45
47300,note_off,80,0,3,,,,,,,,1,,,,72,64
47300,note_off,0,0,3,,,,,,,,1,,,,69,64
47300,note_off,80,0,4,,,,,,,,2,,,,72,64
47300,note_off,0,0,4,,,,,,,,2,,,,69,64
47380,note_off,400,0,8,,,,,,,,6,,,,53,64
47380,note_off,400,0,13,,,,,,,,12,,,,53,64
47460,note_on,160,0,3,,,,,,,,1,,,,69,60
47460,note_on,80,0,13,,,,,,,,12,,,,53,30
47460,note_on,160,0,4,,,,,,,,2,,,,69,45
47460,note_on,0,0,4,,,,,,,,2,,,,72,45
47460,note_on,0,0,3,,,,,,,,1,,,,72,60
47460,note_on,80,0,8,,,,,,,,6,,,,53,45
47540,note_off,80,0,8,,,,,,,,6,,,,53,64
47540,note_off,80,0,4,,,,,,,,2,,,,72,64
47540,note_off,0,0,3,,,,,,,,1,,,,69,64
47540,note_off,0,0,4,,,,,,,,2,,,,69,64
47540,note_off,80,0,13,,,,,,,,12,,,,53,64
47540,note_off,80,0,3,,,,,,,,1,,,,72,64
47700,note_on,160,0,13,,,,,,,,12,,,,53,30
47700,note_on,160,0,4,,,,,,,,2,,,,69,45
47700,note_on,160,0,8,,,,,,,,6,,,,53,45
47700,note_on,0,0,4,,,,,,,,2,,,,72,45
47700,note_on,0,0,3,,,,,,,,1,,,,72,60
47700,note_on,160,0,3,,,,,,,,1,,,,69,60
47780,note_off,0,0,3,,,,,,,,1,,,,69,64
47780,note_off,80,0,3,,,,,,,,1,,,,72,64
47780,note_off,80,0,8,,,,,,,,6,,,,53,64
47780,note_off,0,0,4,,,,,,,,2,,,,69,64
47780,note_off,80,0,4,,,,,,,,2,,,,72,64
47780,note_off,80,0,13,,,,,,,,12,,,,53,64
47940,note_on,160,0,13,,,,,,,,12,,,,46,30
47940,note_on,160,0,3,,,,,,,,1,,,,70,60
47940,note_on,0,0,4,,,,,,,,2,,,,74,45
47940,note_on,160,0,4,,,,,,,,2,,,,70,45
47940,note_on,160,0,8,,,,,,,,6,,,,46,45
47940,note_on,0,0,3,,,,,,,,1,,,,74,60
48340,note_off,400,0,4,,,,,,,,2,,,,74,64
48340,note_off,0,0,4,,,,,,,,2,,,,70,64
48340,note_off,400,0,13,,,,,,,,12,,,,46,64
48340,note_off,400,0,8,,,,,,,,6,,,,46,64
48340,note_off,400,0,3,,,,,,,,1,,,,74,64
48340,note_off,0,0,3,,,,,,,,1,,,,70,64
48420,note_on,80,0,3,,,,,,,,1,,,,69,60
48420,note_on,0,0,4,,,,,,,,2,,,,72,45
48420,note_on,80,0,13,,,,,,,,12,,,,41,30
48420,note_on,0,0,3,,,,,,,,1,,,,72,60
48420,note_on,80,0,8,,,,,,,,6,,,,41,45
48420,note_on,80,0,4,,,,,,,,2,,,,69,45
48500,note_off,80,0,8,,,,,,,,6,,,,41,64
48500,note_off,80,0,3,,,,,,,,1,,,,72,64
48500,note_off,0,0,4,,,,,,,,2,,,,69,64
48500,note_off,80,0,4,,,,,,,,2,,,,72,64
48500,note_off,0,0,3,,,,,,,,1,,,,69,64
48500,note_off,80,0,13,,,,,,,,12,,,,41,64
48660,note_on,160,0,13,,,,,,,,12,,,,53,30
48660,note_on,0,0,3,,,,,,,,1,,,,72,60
48660,note_on,160,0,3,,,,,,,,1,,,,69,60
48660,note_on,160,0,4,,,,,,,,2,,,,69,45
48660,note_on,160,0,8,,,,,,,,6,,,,53,45
48660,note_on,0,0,4,,,,,,,,2,,,,72,45
48740,note_off,80,0,3,,,,,,,,1,,,,72,64
48740,note_off,80,0,13,,,,,,,,12,,,,53,64
48740,note_off,80,0,4,,,,,,,,2,,,,72,64
48740,note_off,0,0,4,,,,,,,,2,,,,69,64
48740,note_off,0,0,3,,,,,,,,1,,,,69,64
48740,note_off,80,0,8,,,,,,,,6,,,,53,64
48900,note_on,160,0,3,,,,,,,,1,,,,70,60
48900,note_on,160,0,8,,,,,,,,6,,,,46,45
48900,note_on,160,0,13,,,,,,,,12,,,,46,30
48900,note_on,160,0,4,,,,,,,,2,,,,70,45
48900,note_on,0,0,4,,,,,,,,2,,,,74,45
48900,note_on,0,0,3,,,,,,,,1,,,,74,60
49300,note_off,400,0,3,,,,,,,,1,,,,74,64
49300,note_off,0,0,3,,,,,,,,1,,,,70,64
49300,note_off,0,0,4,,,,,,,,2,,,,70,64
49300,note_off,400,0,4,,,,,,,,2,,,,74,64
49300,note_off,400,0,8,,,,,,,,6,,,,46,64
49300,note_off,400,0,13,,,,,,,,12,,,,46,64
49380,note_on,80,0,8,,,,,,,,6,,,,41,45
49380,note_on,80,0,3,,,,,,,,1,,,,69,60
49380,note_on,80,0,4,,,,,,,,2,,,,69,45
49380,note_on,0,0,3,,,,,,,,1,,,,72,60
49380,note_on,80,0,13,,,,,,,,12,,,,41,30
49380,note_on,0,0,4,,,,,,,,2,,,,72,45
49460,note_off,80,0,3,,,,,,,,1,,,,72,64
49460,note_off,0,0,4,,,,,,,,2,,,,69,64
49460,note_off,80,0,8,,,,,,,,6,,,,41,64
49460,note_off,80,0,13,,,,,,,,12,,,,41,64
49460,note_off,80,0,4,,,,,,,,2,,,,72,64
49460,note_off,0,0,3,,,,,,,,1,,,,69,64
49620,note_on,0,0,4,,,,,,,,2,,,,72,45
49620,note_on,160,0,13,,,,,,,,12,,,,53,30
49620,note_on,160,0,4,,,,,,,,2,,,,69,45
49620,note_on,160,0,8,,,,,,,,6,,,,53,45
49620,note_on,160,0,3,,,,,,,,1,,,,69,60
49620,note_on,0,0,3,,,,,,,,1,,,,72,60
49700,note_off,80,0,4,,,,,,,,2,,,,72,64
49700,note_off,0,0,4,,,,,,,,2,,,,69,64
49700,note_off,80,0,8,,,,,,,,6,,,,53,64
49700,note_off,80,0,13,,,,,,,,12,,,,53,64
49700,note_off,80,0,3,,,,,,,,1,,,,72,64
49700,note_off,0,0,3,,,,,,,,1,,,,69,64
49860,note_on,160,0,8,,,,,,,,6,,,,53,45
49860,note_on,160,0,3,,,,,,,,1,,,,77,60
49860,note_on,160,0,13,,,,,,,,12,,,,53,30
49860,note_on,160,0,4,,,,,,,,2,,,,77,45
49940,note_off,80,0,3,,,,,,,,1,,,,77,64
49940,note_off,80,0,4,,,,,,,,2,,,,77,64
50100,note_on,160,0,3,,,,,,,,1,,,,76,60
50100,note_on,160,0,4,,,,,,,,2,,,,76,45
50180,note_off,80,0,4,,,,,,,,2,,,,76,64
50180,note_off,80,0,3,,,,,,,,1,,,,76,64
50220,note_on,40,0,4,,,,,,,,2,,,,74,45
50220,note_on,40,0,3,,,,,,,,1,,,,74,60
50260,note_off,400,0,8,,,,,,,,6,,,,53,64
50260,note_off,400,0,13,,,,,,,,12,,,,53,64
50300,note_off,80,0,4,,,,,,,,2,,,,74,64
50300,note_off,80,0,3,,,,,,,,1,,,,74,64
50340,note_on,40,0,3,,,,,,,,1,,,,72,60
50340,set_tempo,5880,1,0,526315,,,,,,,,,,,,
50340,note_on,80,0,8,,,,,,,,6,,,,52,45
50340,note_on,80,0,13,,,,,,,,12,,,,52,30
50340,note_on,40,0,4,,,,,,,,2,,,,72,45
50420,note_off,80,0,4,,,,,,,,2,,,,72,64
50420,note_off,80,0,3,,,,,,,,1,,,,72,64
50580,note_on,160,0,3,,,,,,,,1,,,,70,60
50580,note_on,160,0,4,,,,,,,,2,,,,70,45
50660,note_off,80,0,3,,,,,,,,1,,,,70,64
50660,note_off,80,0,4,,,,,,,,2,,,,70,64
50740,note_off,400,0,8,,,,,,,,6,,,,52,64
50740,note_off,400,0,13,,,,,,,,12,,,,52,64
50820,note_on,80,0,13,,,,,,,,12,,,,53,30
50820,note_on,80,0,8,,,,,,,,6,,,,53,45
50820,set_tempo,480,1,0,535714,,,,,,,,,,,,
50820,note_on,160,0,4,,,,,,,,2,,,,60,30
50820,note_on,0,0,4,,,,,,,,2,,,,69,30
50820,note_on,0,0,3,,,,,,,,1,,,,69,45
50820,note_on,160,0,3,,,,,,,,1,,,,60,45
51220,note_off,0,0,3,,,,,,,,1,,,,60,64
51220,note_off,400,0,13,,,,,,,,12,,,,53,64
51220,note_off,400,0,3,,,,,,,,1,,,,69,64
51220,note_off,400,0,4,,,,,,,,2,,,,69,64
51220,note_off,0,0,4,,,,,,,,2,,,,60,64
51220,note_off,400,0,8,,,,,,,,6,,,,53,64
51300,note_on,80,0,13,,,,,,,,12,,,,48,30
51300,note_on,80,0,4,,,,,,,,2,,,,58,30
51300,note_on,0,0,4,,,,,,,,2,,,,67,30
51300,note_on,80,0,8,,,,,,,,6,,,,48,45
51300,note_on,0,0,3,,,,,,,,1,,,,67,45
51300,note_on,80,0,3,,,,,,,,1,,,,58,45
51700,note_off,400,0,3,,,,,,,,1,,,,67,64
51700,note_off,400,0,8,,,,,,,,6,,,,48,64
51700,note_off,0,0,3,,,,,,,,1,,,,58,64
51700,note_off,400,0,4,,,,,,,,2,,,,67,64
51700,note_off,0,0,4,,,,,,,,2,,,,58,64
51700,note_off,400,0,13,,,,,,,,12,,,,48,64
51780,note_on,26960,0,15,,,,,,,,14,,,,41,60
51780,note_on,0,0,5,,,,,,,,3,,,,81,92
51780,note_on,26960,0,5,,,,,,,,3,,,,69,92
51780,note_on,26960,0,7,,,,,,,,5,,,,69,92
51780,note_on,26960,0,9,,,,,,,,7,,,,41,92
51780,note_on,26960,0,11,,,,,,,,10,,,,77,75
51780,set_tempo,960,1,0,500000,,,,,,,,,,,,
51780,note_on,80,0,4,,,,,,,,2,,,,57,30
51780,note_on,0,0,4,,,,,,,,2,,,,65,30
51780,note_on,80,0,8,,,,,,,,6,,,,53,92
51780,note_on,26960,0,10,,,,,,,,8,,,,69,75
51780,note_on,0,0,10,,,,,,,,8,,,,81,75
51780,note_on,80,0,13,,,,,,,,12,,,,53,75
51780,note_on,26960,0,12,,,,,,,,11,,,,69,75
51780,note_on,26960,0,14,,,,,,,,13,,,,41,75
51780,note_on,26960,0,6,,,,,,,,4,,,,77,92
51780,note_on,80,0,3,,,,,,,,1,,,,57,45
51780,note_on,0,0,3,,,,,,,,1,,,,65,45
51860,note_off,80,0,9,,,,,,,,7,,,,41,64
51860,note_off,80,0,7,,,,,,,,5,,,,69,64
51860,note_off,80,0,12,,,,,,,,11,,,,69,64
51860,note_off,80,0,14,,,,,,,,13,,,,41,64
51860,note_off,80,0,11,,,,,,,,10,,,,77,64
51860,note_off,80,0,13,,,,,,,,12,,,,53,64
51860,note_off,0,0,5,,,,,,,,3,,,,69,64
51860,note_off,80,0,8,,,,,,,,6,,,,53,64
51860,note_off,80,0,6,,,,,,,,4,,,,77,64
51860,note_off,80,0,5,,,,,,,,3,,,,81,64
51860,note_off,80,0,10,,,,,,,,8,,,,81,64
51860,note_off,0,0,10,,,,,,,,8,,,,69,64
52020,note_on,160,0,13,,,,,,,,12,,,,53,75
52020,note_on,160,0,9,,,,,,,,7,,,,41,92
52020,note_on,160,0,8,,,,,,,,6,,,,53,92
52020,note_on,160,0,7,,,,,,,,5,,,,69,92
52020,note_on,0,0,10,,,,,,,,8,,,,81,75
52020,note_on,160,0,12,,,,,,,,11,,,,69,75
52020,note_on,160,0,6,,,,,,,,4,,,,77,92
52020,note_on,160,0,11,,,,,,,,10,,,,77,75
52020,note_on,0,0,5,,,,,,,,3,,,,81,92
52020,note_on,160,0,14,,,,,,,,13,,,,41,75
52020,note_on,160,0,10,,,,,,,,8,,,,69,75
52020,note_on,160,0,5,,,,,,,,3,,,,69,92
52100,note_off,80,0,8,,,,,,,,6,,,,53,64
52100,note_off,80,0,13,,,,,,,,12,,,,53,64
52100,note_off,80,0,14,,,,,,,,13,,,,41,64
52100,note_off,80,0,12,,,,,,,,11,,,,69,64
52100,note_off,0,0,5,,,,,,,,3,,,,69,64
52100,note_off,80,0,11,,,,,,,,10,,,,77,64
52100,note_off,80,0,5,,,,,,,,3,,,,81,64
52100,note_off,0,0,10,,,,,,,,8,,,,69,64
52100,note_off,80,0,6,,,,,,,,4,,,,77,64
52100,note_off,80,0,10,,,,,,,,8,,,,81,64
52100,note_off,80,0,9,,,,,,,,7,,,,41,64
52100,note_off,80,0,7,,,,,,,,5,,,,69,64
52180,note_off,0,0,4,,,,,,,,2,,,,57,64
52180,note_off,400,0,3,,,,,,,,1,,,,65,64
52180,note_off,400,0,4,,,,,,,,2,,,,65,64
52180,note_off,400,0,15,,,,,,,,14,,,,41,64
52180,note_off,0,0,3,,,,,,,,1,,,,57,64
52260,note_on,160,0,5,,,,,,,,3,,,,69,92
52260,note_on,160,0,8,,,,,,,,6,,,,53,92
52260,note_on,0,0,5,,,,,,,,3,,,,81,92
52260,note_on,160,0,14,,,,,,,,13,,,,41,75
52260,note_on,160,0,10,,,,,,,,8,,,,69,75
52260,note_on,160,0,7,,,,,,,,5,,,,69,92
52260,note_on,160,0,6,,,,,,,,4,,,,77,92
52260,note_on,0,0,10,,,,,,,,8,,,,81,75
52260,note_on,160,0,13,,,,,,,,12,,,,53,75
52260,note_on,160,0,12,,,,,,,,11,,,,69,75
52260,note_on,160,0,9,,,,,,,,7,,,,41,92
52260,note_on,160,0,11,,,,,,,,10,,,,77,75
52340,note_off,80,0,6,,,,,,,,4,,,,77,64
52340,note_off,80,0,9,,,,,,,,7,,,,41,64
52340,note_off,80,0,5,,,,,,,,3,,,,81,64
52340,note_off,80,0,8,,,,,,,,6,,,,53,64
52340,note_off,0,0,5,,,,,,,,3,,,,69,64
52340,note_off,80,0,11,,,,,,,,10,,,,77,64
52340,note_off,80,0,12,,,,,,,,11,,,,69,64
52340,note_off,80,0,7,,,,,,,,5,,,,69,64
52340,note_off,80,0,13,,,,,,,,12,,,,53,64
52340,note_off,80,0,10,,,,,,,,8,,,,81,64
52340,note_off,80,0,14,,,,,,,,13,,,,41,64
52340,note_off,0,0,10,,,,,,,,8,,,,69,64
52500,note_on,160,0,14,,,,,,,,13,,,,36,75
52500,note_on,160,0,13,,,,,,,,12,,,,48,75
52500,note_on,160,0,11,,,,,,,,10,,,,79,75
52500,note_on,320,0,15,,,,,,,,14,,,,36,60
52500,note_on,160,0,7,,,,,,,,5,,,,64,92
52500,note_on,160,0,12,,,,,,,,11,,,,64,75
52500,note_on,160,0,8,,,,,,,,6,,,,48,92
52500,note_on,160,0,6,,,,,,,,4,,,,79,92
52500,note_on,160,0,10,,,,,,,,8,,,,70,75
52500,note_on,0,0,5,,,,,,,,3,,,,82,92
52500,note_on,160,0,5,,,,,,,,3,,,,70,92
52500,note_on,160,0,9,,,,,,,,7,,,,36,92
52500,note_on,0,0,10,,,,,,,,8,,,,82,75
52580,note_off,80,0,8,,,,,,,,6,,,,48,64
52580,note_off,80,0,11,,,,,,,,10,,,,79,64
52580,note_off,80,0,10,,,,,,,,8,,,,82,64
52580,note_off,80,0,12,,,,,,,,11,,,,64,64
52580,note_off,80,0,9,,,,,,,,7,,,,36,64
52580,note_off,80,0,7,,,,,,,,5,,,,64,64
52580,note_off,0,0,10,,,,,,,,8,,,,70,64
52580,note_off,80,0,6,,,,,,,,4,,,,79,64
52580,note_off,80,0,14,,,,,,,,13,,,,36,64
52580,note_off,80,0,5,,,,,,,,3,,,,82,64
52580,note_off,0,0,5,,,,,,,,3,,,,70,64
52580,note_off,80,0,13,,,,,,,,12,,,,48,64
52735,note_off,235,0,15,,,,,,,,14,,,,36,64
52740,note_on,160,0,10,,,,,,,,8,,,,69,75
52740,note_on,160,0,5,,,,,,,,3,,,,69,92
52740,note_on,160,0,7,,,,,,,,5,,,,69,92
52740,note_on,160,0,6,,,,,,,,4,,,,77,92
52740,note_on,0,0,10,,,,,,,,8,,,,81,75
52740,note_on,0,0,5,,,,,,,,3,,,,81,92
52740,note_on,160,0,8,,,,,,,,6,,,,53,92
52740,note_on,160,0,12,,,,,,,,11,,,,69,75
52740,note_on,160,0,14,,,,,,,,13,,,,41,75
52740,note_on,5,0,15,,,,,,,,14,,,,41,60
52740,note_on,160,0,9,,,,,,,,7,,,,41,92
52740,note_on,160,0,11,,,,,,,,10,,,,77,75
52740,note_on,160,0,13,,,,,,,,12,,,,53,75
52820,note_off,80,0,12,,,,,,,,11,,,,69,64
52820,note_off,80,0,11,,,,,,,,10,,,,77,64
52820,note_off,80,0,10,,,,,,,,8,,,,81,64
52820,note_off,80,0,13,,,,,,,,12,,,,53,64
52820,note_off,80,0,6,,,,,,,,4,,,,77,64
52820,note_off,80,0,8,,,,,,,,6,,,,53,64
52820,note_off,80,0,14,,,,,,,,13,,,,41,64
52820,note_off,80,0,9,,,,,,,,7,,,,41,64
52820,note_off,0,0,5,,,,,,,,3,,,,69,64
52820,note_off,80,0,5,,,,,,,,3,,,,81,64
52820,note_off,0,0,10,,,,,,,,8,,,,69,64
52820,note_off,80,0,7,,,,,,,,5,,,,69,64
52980,note_on,160,0,13,,,,,,,,12,,,,53,75
52980,note_on,160,0,7,,,,,,,,5,,,,69,92
52980,note_on,160,0,9,,,,,,,,7,,,,41,92
52980,note_on,160,0,11,,,,,,,,10,,,,77,75
52980,note_on,160,0,6,,,,,,,,4,,,,77,92
52980,note_on,160,0,8,,,,,,,,6,,,,53,92
52980,note_on,160,0,12,,,,,,,,11,,,,69,75
52980,note_on,160,0,10,,,,,,,,8,,,,69,75
52980,note_on,0,0,10,,,,,,,,8,,,,81,75
52980,note_on,0,0,5,,,,,,,,3,,,,81,92
52980,note_on,160,0,5,,,,,,,,3,,,,69,92
52980,note_on,160,0,14,,,,,,,,13,,,,41,75
53060,note_off,80,0,14,,,,,,,,13,,,,41,64
53060,note_off,0,0,10,,,,,,,,8,,,,69,64
53060,note_off,0,0,5,,,,,,,,3,,,,69,64
53060,note_off,80,0,5,,,,,,,,3,,,,81,64
53060,note_off,80,0,10,,,,,,,,8,,,,81,64
53060,note_off,80,0,6,,,,,,,,4,,,,77,64
53060,note_off,80,0,9,,,,,,,,7,,,,41,64
53060,note_off,80,0,12,,,,,,,,11,,,,69,64
53060,note_off,80,0,8,,,,,,,,6,,,,53,64
53060,note_off,80,0,13,,,,,,,,12,,,,53,64
53060,note_off,80,0,11,,,,,,,,10,,,,77,64
53060,note_off,80,0,7,,,,,,,,5,,,,69,64
53140,note_off,400,0,15,,,,,,,,14,,,,41,64
53220,note_on,160,0,10,,,,,,,,8,,,,69,75
53220,note_on,160,0,7,,,,,,,,5,,,,69,92
53220,note_on,160,0,11,,,,,,,,10,,,,77,75
53220,note_on,160,0,13,,,,,,,,12,,,,53,75
53220,note_on,160,0,8,,,,,,,,6,,,,53,92
53220,note_on,160,0,5,,,,,,,,3,,,,69,92
53220,note_on,160,0,14,,,,,,,,13,,,,41,75
53220,note_on,160,0,12,,,,,,,,11,,,,69,75
53220,note_on,0,0,5,,,,,,,,3,,,,81,92
53220,note_on,0,0,10,,,,,,,,8,,,,81,75
53220,note_on,160,0,6,,,,,,,,4,,,,77,92
53220,note_on,160,0,9,,,,,,,,7,,,,41,92
53300,note_off,80,0,6,,,,,,,,4,,,,77,64
53300,note_off,80,0,12,,,,,,,,11,,,,69,64
53300,note_off,0,0,10,,,,,,,,8,,,,69,64
53300,note_off,80,0,11,,,,,,,,10,,,,77,64
53300,note_off,80,0,13,,,,,,,,12,,,,53,64
53300,note_off,80,0,10,,,,,,,,8,,,,81,64
53300,note_off,80,0,7,,,,,,,,5,,,,69,64
53300,note_off,80,0,9,,,,,,,,7,,,,41,64
53300,note_off,80,0,8,,,,,,,,6,,,,53,64
53300,note_off,80,0,5,,,,,,,,3,,,,81,64
53300,note_off,80,0,14,,,,,,,,13,,,,41,64
53300,note_off,0,0,5,,,,,,,,3,,,,69,64
53460,note_on,160,0,5,,,,,,,,3,,,,70,92
53460,note_on,160,0,12,,,,,,,,11,,,,64,75
53460,note_on,0,0,5,,,,,,,,3,,,,82,92
53460,note_on,160,0,14,,,,,,,,13,,,,36,75
53460,note_on,160,0,11,,,,,,,,10,,,,79,75
53460,note_on,160,0,6,,,,,,,,4,,,,79,92
53460,note_on,160,0,9,,,,,,,,7,,,,36,92
53460,note_on,0,0,10,,,,,,,,8,,,,82,75
53460,note_on,160,0,7,,,,,,,,5,,,,64,92
53460,note_on,320,0,15,,,,,,,,14,,,,36,60
53460,note_on,160,0,13,,,,,,,,12,,,,48,75
53460,note_on,160,0,10,,,,,,,,8,,,,70,75
53460,note_on,160,0,8,,,,,,,,6,,,,48,92
53540,note_off,80,0,6,,,,,,,,4,,,,79,64
53540,note_off,0,0,10,,,,,,,,8,,,,70,64
53540,note_off,80,0,7,,,,,,,,5,,,,64,64
53540,note_off,80,0,9,,,,,,,,7,,,,36,64
53540,note_off,80,0,14,,,,,,,,13,,,,36,64
53540,note_off,80,0,12,,,,,,,,11,,,,64,64
53540,note_off,80,0,11,,,,,,,,10,,,,79,64
53540,note_off,80,0,5,,,,,,,,3,,,,82,64
53540,note_off,80,0,10,,,,,,,,8,,,,82,64
53540,note_off,0,0,5,,,,,,,,3,,,,70,64
53540,note_off,80,0,8,,,,,,,,6,,,,48,64
53540,note_off,80,0,13,,,,,,,,12,,,,48,64
53695,note_off,235,0,15,,,,,,,,14,,,,36,64
53700,note_on,160,0,10,,,,,,,,8,,,,69,75
53700,note_on,160,0,5,,,,,,,,3,,,,69,92
53700,note_on,0,0,5,,,,,,,,3,,,,81,92
53700,note_on,160,0,11,,,,,,,,10,,,,77,75
53700,note_on,160,0,6,,,,,,,,4,,,,77,92
53700,note_on,160,0,12,,,,,,,,11,,,,69,75
53700,note_on,160,0,14,,,,,,,,13,,,,41,75
53700,note_on,160,0,7,,,,,,,,5,,,,69,92
53700,note_on,5,0,15,,,,,,,,14,,,,41,60
53700,note_on,0,0,10,,,,,,,,8,,,,81,75
53700,note_on,160,0,9,,,,,,,,7,,,,41,92
53700,note_on,160,0,8,,,,,,,,6,,,,53,92
53700,note_on,160,0,13,,,,,,,,12,,,,53,75
53780,note_off,80,0,13,,,,,,,,12,,,,53,64
53780,note_off,80,0,7,,,,,,,,5,,,,69,64
53780,note_off,80,0,12,,,,,,,,11,,,,69,64
53780,note_off,0,0,5,,,,,,,,3,,,,69,64
53780,note_off,80,0,6,,,,,,,,4,,,,77,64
53780,note_off,80,0,11,,,,,,,,10,,,,77,64
53780,note_off,80,0,14,,,,,,,,13,,,,41,64
53780,note_off,80,0,5,,,,,,,,3,,,,81,64
53780,note_off,80,0,10,,,,,,,,8,,,,81,64
53780,note_off,80,0,9,,,,,,,,7,,,,41,64
53780,note_off,0,0,10,,,,,,,,8,,,,69,64
53780,note_off,80,0,8,,,,,,,,6,,,,53,64
53940,note_on,160,0,13,,,,,,,,12,,,,53,75
53940,note_on,160,0,5,,,,,,,,3,,,,69,92
53940,note_on,160,0,6,,,,,,,,4,,,,77,92
53940,note_on,0,0,5,,,,,,,,3,,,,81,92
53940,note_on,160,0,10,,,,,,,,8,,,,69,75
53940,note_on,160,0,7,,,,,,,,5,,,,69,92
53940,note_on,160,0,14,,,,,,,,13,,,,41,75
53940,note_on,0,0,10,,,,,,,,8,,,,81,75
53940,note_on,160,0,8,,,,,,,,6,,,,53,92
53940,note_on,160,0,11,,,,,,,,10,,,,77,75
53940,note_on,160,0,9,,,,,,,,7,,,,41,92
53940,note_on,160,0,12,,,,,,,,11,,,,69,75
54020,note_off,80,0,11,,,,,,,,10,,,,77,64
54020,note_off,80,0,7,,,,,,,,5,,,,69,64
54020,note_off,80,0,13,,,,,,,,12,,,,53,64
54020,note_off,0,0,10,,,,,,,,8,,,,69,64
54020,note_off,80,0,10,,,,,,,,8,,,,81,64
54020,note_off,80,0,9,,,,,,,,7,,,,41,64
54020,note_off,0,0,5,,,,,,,,3,,,,69,64
54020,note_off,80,0,12,,,,,,,,11,,,,69,64
54020,note_off,80,0,5,,,,,,,,3,,,,81,64
54020,note_off,80,0,14,,,,,,,,13,,,,41,64
54020,note_off,80,0,8,,,,,,,,6,,,,53,64
54020,note_off,80,0,6,,,,,,,,4,,,,77,64
54100,note_off,400,0,15,,,,,,,,14,,,,41,64
54180,note_on,160,0,6,,,,,,,,4,,,,77,92
54180,note_on,160,0,5,,,,,,,,3,,,,69,92
54180,note_on,160,0,11,,,,,,,,10,,,,77,75
54180,note_on,160,0,14,,,,,,,,13,,,,41,75
54180,note_on,160,0,7,,,,,,,,5,,,,69,92
54180,note_on,160,0,13,,,,,,,,12,,,,53,75
54180,note_on,0,0,10,,,,,,,,8,,,,81,75
54180,note_on,160,0,8,,,,,,,,6,,,,53,92
54180,note_on,160,0,9,,,,,,,,7,,,,41,92
54180,note_on,160,0,10,,,,,,,,8,,,,69,75
54180,note_on,160,0,12,,,,,,,,11,,,,69,75
54180,note_on,0,0,5,,,,,,,,3,,,,81,92
54260,note_off,0,0,10,,,,,,,,8,,,,69,64
54260,note_off,80,0,7,,,,,,,,5,,,,69,64
54260,note_off,80,0,8,,,,,,,,6,,,,53,64
54260,note_off,80,0,10,,,,,,,,8,,,,81,64
54260,note_off,80,0,14,,,,,,,,13,,,,41,64
54260,note_off,0,0,5,,,,,,,,3,,,,69,64
54260,note_off,80,0,11,,,,,,,,10,,,,77,64
54260,note_off,80,0,13,,,,,,,,12,,,,53,64
54260,note_off,80,0,12,,,,,,,,11,,,,69,64
54260,note_off,80,0,6,,,,,,,,4,,,,77,64
54260,note_off,80,0,9,,,,,,,,7,,,,41,64
54260,note_off,80,0,5,,,,,,,,3,,,,81,64
54420,note_on,160,0,11,,,,,,,,10,,,,79,75
54420,note_on,320,0,15,,,,,,,,14,,,,36,60
54420,note_on,0,0,10,,,,,,,,8,,,,82,75
54420,note_on,160,0,10,,,,,,,,8,,,,70,75
54420,note_on,160,0,9,,,,,,,,7,,,,36,92
54420,note_on,160,0,12,,,,,,,,11,,,,64,75
54420,note_on,160,0,6,,,,,,,,4,,,,79,92
54420,note_on,160,0,8,,,,,,,,6,,,,48,92
54420,note_on,160,0,7,,,,,,,,5,,,,64,92
54420,note_on,160,0,14,,,,,,,,13,,,,36,75
54420,note_on,0,0,5,,,,,,,,3,,,,82,92
54420,note_on,160,0,5,,,,,,,,3,,,,70,92
54420,note_on,160,0,13,,,,,,,,12,,,,48,75
54500,note_off,80,0,12,,,,,,,,11,,,,64,64
54500,note_off,80,0,8,,,,,,,,6,,,,48,64
54500,note_off,80,0,9,,,,,,,,7,,,,36,64
54500,note_off,0,0,5,,,,,,,,3,,,,70,64
54500,note_off,80,0,10,,,,,,,,8,,,,82,64
54500,note_off,0,0,10,,,,,,,,8,,,,70,64
54500,note_off,80,0,6,,,,,,,,4,,,,79,64
54500,note_off,80,0,5,,,,,,,,3,,,,82,64
54500,note_off,80,0,7,,,,,,,,5,,,,64,64
54500,note_off,80,0,13,,,,,,,,12,,,,48,64
54500,note_off,80,0,11,,,,,,,,10,,,,79,64
54500,note_off,80,0,14,,,,,,,,13,,,,36,64
54655,note_off,235,0,15,,,,,,,,14,,,,36,64
54660,note_on,160,0,14,,,,,,,,13,,,,41,75
54660,note_on,0,0,5,,,,,,,,3,,,,81,92
54660,note_on,160,0,5,,,,,,,,3,,,,69,92
54660,note_on,5,0,15,,,,,,,,14,,,,41,60
54660,note_on,160,0,13,,,,,,,,12,,,,53,75
54660,note_on,160,0,7,,,,,,,,5,,,,69,92
54660,note_on,160,0,8,,,,,,,,6,,,,53,92
54660,note_on,160,0,11,,,,,,,,10,,,,77,75
54660,note_on,160,0,9,,,,,,,,7,,,,41,92
54660,note_on,160,0,10,,,,,,,,8,,,,69,75
54660,note_on,0,0,10,,,,,,,,8,,,,81,75
54660,note_on,160,0,12,,,,,,,,11,,,,69,75
54660,note_on,160,0,6,,,,,,,,4,,,,77,92
54690,note_off,0,0,10,,,,,,,,8,,,,69,64
54690,note_off,30,0,5,,,,,,,,3,,,,81,64
54690,note_on,0,0,6,,,,,,,,4,,,,79,92
54690,note_on,0,0,11,,,,,,,,10,,,,79,75
54690,note_off,30,0,11,,,,,,,,10,,,,77,64
54690,note_off,0,0,5,,,,,,,,3,,,,69,64
54690,note_on,0,0,10,,,,,,,,8,,,,82,75
54690,note_on,0,0,5,,,,,,,,3,,,,82,92
54690,note_off,30,0,6,,,,,,,,4,,,,77,64
54690,note_on,0,0,10,,,,,,,,8,,,,70,75
54690,note_on,0,0,5,,,,,,,,3,,,,70,92
54690,note_off,30,0,10,,,,,,,,8,,,,81,64
54720,note_on,0,0,10,,,,,,,,8,,,,69,75
54720,note_on,0,0,5,,,,,,,,3,,,,69,92
54720,note_on,0,0,5,,,,,,,,3,,,,81,92
54720,note_on,0,0,10,,,,,,,,8,,,,81,75
54720,note_on,0,0,6,,,,,,,,4,,,,77,92
54720,note_off,30,0,11,,,,,,,,10,,,,79,64
54720,note_off,30,0,10,,,,,,,,8,,,,82,64
54720,note_off,30,0,5,,,,,,,,3,,,,82,64
54720,note_off,30,0,6,,,,,,,,4,,,,79,64
54720,note_on,0,0,11,,,,,,,,10,,,,77,75
54720,note_off,0,0,5,,,,,,,,3,,,,70,64
54720,note_off,0,0,10,,,,,,,,8,,,,70,64
54740,note_off,80,0,13,,,,,,,,12,,,,53,64
54740,note_off,80,0,7,,,,,,,,5,,,,69,64
54740,note_off,80,0,14,,,,,,,,13,,,,41,64
54740,note_off,80,0,12,,,,,,,,11,,,,69,64
54740,note_off,80,0,9,,,,,,,,7,,,,41,64
54740,note_off,80,0,8,,,,,,,,6,,,,53,64
54750,note_off,0,0,5,,,,,,,,3,,,,69,64
54750,note_on,0,0,5,,,,,,,,3,,,,70,92
54750,note_on,0,0,5,,,,,,,,3,,,,82,92
54750,note_off,30,0,11,,,,,,,,10,,,,77,64
54750,note_on,0,0,11,,,,,,,,10,,,,79,75
54750,note_off,30,0,5,,,,,,,,3,,,,81,64
54750,note_on,0,0,10,,,,,,,,8,,,,82,75
54750,note_on,0,0,6,,,,,,,,4,,,,79,92
54750,note_on,0,0,10,,,,,,,,8,,,,70,75
54750,note_off,0,0,10,,,,,,,,8,,,,69,64
54750,note_off,30,0,10,,,,,,,,8,,,,81,64
54750,note_off,30,0,6,,,,,,,,4,,,,77,64
54780,note_on,0,0,11,,,,,,,,10,,,,77,75
54780,note_off,30,0,11,,,,,,,,10,,,,79,64
54780,note_off,0,0,10,,,,,,,,8,,,,70,64
54780,note_on,0,0,10,,,,,,,,8,,,,81,75
54780,note_on,0,0,6,,,,,,,,4,,,,77,92
54780,note_on,0,0,5,,,,,,,,3,,,,69,92
54780,note_off,0,0,5,,,,,,,,3,,,,70,64
54780,note_off,30,0,5,,,,,,,,3,,,,82,64
54780,note_on,0,0,10,,,,,,,,8,,,,69,75
54780,note_off,30,0,10,,,,,,,,8,,,,82,64
54780,note_off,30,0,6,,,,,,,,4,,,,79,64
54780,note_on,0,0,5,,,,,,,,3,,,,81,92
54810,note_on,0,0,6,,,,,,,,4,,,,79,92
54810,note_off,30,0,11,,,,,,,,10,,,,77,64
54810,note_off,30,0,6,,,,,,,,4,,,,77,64
54810,note_on,0,0,11,,,,,,,,10,,,,79,75
54810,note_on,0,0,5,,,,,,,,3,,,,82,92
54810,note_on,0,0,5,,,,,,,,3,,,,70,92
54810,note_on,0,0,10,,,,,,,,8,,,,82,75
54810,note_on,0,0,10,,,,,,,,8,,,,70,75
54810,note_off,0,0,10,,,,,,,,8,,,,69,64
54810,note_off,30,0,10,,,,,,,,8,,,,81,64
54810,note_off,0,0,5,,,,,,,,3,,,,69,64
54810,note_off,30,0,5,,,,,,,,3,,,,81,64
54840,note_off,30,0,6,,,,,,,,4,,,,79,64
54840,note_off,0,0,5,,,,,,,,3,,,,70,64
54840,note_off,30,0,5,,,,,,,,3,,,,82,64
54840,note_off,30,0,11,,,,,,,,10,,,,79,64
54840,note_on,0,0,11,,,,,,,,10,,,,77,75
54840,note_on,0,0,5,,,,,,,,3,,,,69,92
54840,note_on,0,0,5,,,,,,,,3,,,,81,92
54840,note_off,30,0,10,,,,,,,,8,,,,82,64
54840,note_off,0,0,10,,,,,,,,8,,,,70,64
54840,note_on,0,0,10,,,,,,,,8,,,,69,75
54840,note_on,0,0,10,,,,,,,,8,,,,81,75
54840,note_on,0,0,6,,,,,,,,4,,,,77,92
54870,note_on,0,0,10,,,,,,,,8,,,,82,75
54870,note_off,30,0,10,,,,,,,,8,,,,81,64
54870,note_off,30,0,5,,,,,,,,3,,,,81,64
54870,note_off,30,0,11,,,,,,,,10,,,,77,64
54870,note_off,0,0,5,,,,,,,,3,,,,69,64
54870,note_off,0,0,10,,,,,,,,8,,,,69,64
54870,note_on,0,0,11,,,,,,,,10,,,,79,75
54870,note_on,0,0,6,,,,,,,,4,,,,79,92
54870,note_off,30,0,6,,,,,,,,4,,,,77,64
54870,note_on,0,0,5,,,,,,,,3,,,,70,92
54870,note_on,0,0,5,,,,,,,,3,,,,82,92
54870,note_on,0,0,10,,,,,,,,8,,,,70,75
54900,note_on,160,0,8,,,,,,,,6,,,,53,92
54900,note_off,30,0,5,,,,,,,,3,,,,82,64
54900,note_on,0,0,6,,,,,,,,4,,,,76,92
54900,note_on,160,0,14,,,,,,,,13,,,,41,75
54900,note_on,160,0,7,,,,,,,,5,,,,69,92
54900,note_on,160,0,12,,,,,,,,11,,,,69,75
54900,note_on,160,0,9,,,,,,,,7,,,,41,92
54900,note_off,30,0,6,,,,,,,,4,,,,79,64
54900,note_on,160,0,13,,,,,,,,12,,,,53,75
54900,note_off,0,0,5,,,,,,,,3,,,,70,64
54900,note_on,0,0,5,,,,,,,,3,,,,67,92
54900,note_on,0,0,5,,,,,,,,3,,,,79,92
54900,note_on,0,0,10,,,,,,,,8,,,,79,75
54900,note_on,0,0,10,,,,,,,,8,,,,67,75
54900,note_off,0,0,10,,,,,,,,8,,,,70,64
54900,note_off,30,0,10,,,,,,,,8,,,,82,64
54900,note_off,30,0,11,,,,,,,,10,,,,79,64
54900,note_on,0,0,11,,,,,,,,10,,,,76,75
54980,note_off,80,0,14,,,,,,,,13,,,,41,64
54980,note_off,80,0,5,,,,,,,,3,,,,79,64
54980,note_off,80,0,9,,,,,,,,7,,,,41,64
54980,note_off,0,0,5,,,,,,,,3,,,,67,64
54980,note_off,80,0,7,,,,,,,,5,,,,69,64
54980,note_off,80,0,11,,,,,,,,10,,,,76,64
54980,note_off,80,0,12,,,,,,,,11,,,,69,64
54980,note_off,0,0,10,,,,,,,,8,,,,67,64
54980,note_off,80,0,6,,,,,,,,4,,,,76,64
54980,note_off,80,0,10,,,,,,,,8,,,,79,64
54980,note_off,80,0,8,,,,,,,,6,,,,53,64
54980,note_off,80,0,13,,,,,,,,12,,,,53,64
55020,note_on,40,0,5,,,,,,,,3,,,,69,92
55020,note_on,40,0,6,,,,,,,,4,,,,77,92
55020,note_on,0,0,10,,,,,,,,8,,,,81,75
55020,note_on,40,0,11,,,,,,,,10,,,,77,75
55020,note_on,0,0,5,,,,,,,,3,,,,81,92
55020,note_on,40,0,10,,,,,,,,8,,,,69,75
55060,note_off,400,0,15,,,,,,,,14,,,,41,64
55100,note_off,0,0,10,,,,,,,,8,,,,69,64
55100,note_off,80,0,11,,,,,,,,10,,,,77,64
55100,note_off,80,0,10,,,,,,,,8,,,,81,64
55100,note_off,80,0,6,,,,,,,,4,,,,77,64
55100,note_off,80,0,5,,,,,,,,3,,,,81,64
55100,note_off,0,0,5,,,,,,,,3,,,,69,64
55140,note_on,160,0,7,,,,,,,,5,,,,62,92
55140,note_on,80,0,15,,,,,,,,14,,,,34,60
55140,note_on,160,0,9,,,,,,,,7,,,,34,92
55140,note_on,40,0,6,,,,,,,,4,,,,79,92
55140,note_on,160,0,12,,,,,,,,11,,,,62,75
55140,note_on,160,0,8,,,,,,,,6,,,,46,92
55140,note_on,40,0,10,,,,,,,,8,,,,70,75
55140,note_on,0,0,10,,,,,,,,8,,,,82,75
55140,note_on,40,0,5,,,,,,,,3,,,,70,92
55140,note_on,0,0,5,,,,,,,,3,,,,82,92
55140,note_on,160,0,14,,,,,,,,13,,,,34,75
55140,note_on,160,0,13,,,,,,,,12,,,,46,75
55140,note_on,40,0,11,,,,,,,,10,,,,79,75
55220,note_off,0,0,10,,,,,,,,8,,,,70,64
55220,note_off,80,0,12,,,,,,,,11,,,,62,64
55220,note_off,80,0,10,,,,,,,,8,,,,82,64
55220,note_off,80,0,13,,,,,,,,12,,,,46,64
55220,note_off,80,0,11,,,,,,,,10,,,,79,64
55220,note_off,80,0,6,,,,,,,,4,,,,79,64
55220,note_off,80,0,14,,,,,,,,13,,,,34,64
55220,note_off,80,0,8,,,,,,,,6,,,,46,64
55220,note_off,80,0,7,,,,,,,,5,,,,62,64
55220,note_off,80,0,9,,,,,,,,7,,,,34,64
55220,note_off,80,0,5,,,,,,,,3,,,,82,64
55220,note_off,0,0,5,,,,,,,,3,,,,70,64
55375,note_off,235,0,15,,,,,,,,14,,,,34,64
55380,note_on,160,0,11,,,,,,,,10,,,,76,75
55380,note_on,160,0,14,,,,,,,,13,,,,36,75
55380,note_on,160,0,10,,,,,,,,8,,,,67,75
55380,note_on,0,0,10,,,,,,,,8,,,,79,75
55380,note_on,160,0,7,,,,,,,,5,,,,60,92
55380,note_on,160,0,13,,,,,,,,12,,,,48,75
55380,note_on,160,0,9,,,,,,,,7,,,,36,92
55380,note_on,160,0,8,,,,,,,,6,,,,48,92
55380,note_on,160,0,12,,,,,,,,11,,,,60,75
55380,note_on,160,0,6,,,,,,,,4,,,,76,92
55380,note_on,0,0,5,,,,,,,,3,,,,79,92
55380,note_on,160,0,5,,,,,,,,3,,,,67,92
55380,note_on,5,0,15,,,,,,,,14,,,,36,60
55460,note_off,80,0,13,,,,,,,,12,,,,48,64
55460,note_off,0,0,5,,,,,,,,3,,,,67,64
55460,note_off,80,0,5,,,,,,,,3,,,,79,64
55460,note_off,80,0,7,,,,,,,,5,,,,60,64
55460,note_off,80,0,12,,,,,,,,11,,,,60,64
55460,note_off,80,0,10,,,,,,,,8,,,,79,64
55460,note_off,0,0,10,,,,,,,,8,,,,67,64
55460,note_off,80,0,14,,,,,,,,13,,,,36,64
55460,note_off,80,0,11,,,,,,,,10,,,,76,64
55460,note_off,80,0,9,,,,,,,,7,,,,36,64
55460,note_off,80,0,6,,,,,,,,4,,,,76,64
55460,note_off,80,0,8,,,,,,,,6,,,,48,64
55615,note_off,235,0,15,,,,,,,,14,,,,36,64
55620,note_on,160,0,11,,,,,,,,10,,,,77,75
55620,note_on,160,0,8,,,,,,,,6,,,,41,92
55620,note_on,160,0,13,,,,,,,,12,,,,41,75
55620,note_on,160,0,12,,,,,,,,11,,,,60,75
55620,note_on,0,0,15,,,,,,,,14,,,,41,60
55620,note_on,160,0,6,,,,,,,,4,,,,77,92
55620,note_on,160,0,7,,,,,,,,5,,,,60,92
55620,note_on,160,0,9,,,,,,,,7,,,,29,92
55620,note_on,160,0,5,,,,,,,,3,,,,69,92
55620,note_on,0,0,5,,,,,,,,3,,,,81,92
55620,note_on,0,0,10,,,,,,,,8,,,,81,75
55620,note_on,160,0,10,,,,,,,,8,,,,69,75
55620,note_on,5,0,15,,,,,,,,14,,,,29,60
55620,note_on,160,0,14,,,,,,,,13,,,,29,75
56020,note_off,400,0,5,,,,,,,,3,,,,81,64
56020,note_off,400,0,12,,,,,,,,11,,,,60,64
56020,note_off,400,0,14,,,,,,,,13,,,,29,64
56020,note_off,0,0,5,,,,,,,,3,,,,69,64
56020,note_off,400,0,9,,,,,,,,7,,,,29,64
56020,note_off,400,0,10,,,,,,,,8,,,,81,64
56020,note_off,0,0,10,,,,,,,,8,,,,69,64
56020,note_off,400,0,7,,,,,,,,5,,,,60,64
56020,note_off,400,0,6,,,,,,,,4,,,,77,64
56020,note_off,400,0,15,,,,,,,,14,,,,41,64
56020,note_off,0,0,15,,,,,,,,14,,,,29,64
56020,note_off,400,0,8,,,,,,,,6,,,,41,64
56020,note_off,400,0,13,,,,,,,,12,,,,41,64
56020,note_off,400,0,11,,,,,,,,10,,,,77,64
56700,note_on,680,0,12,,,,,,,,11,,,,57,30
56700,note_on,680,0,8,,,,,,,,6,,,,53,45
56700,note_on,680,0,9,,,,,,,,7,,,,41,45
56700,note_on,680,0,13,,,,,,,,12,,,,53,30
56700,note_on,680,0,14,,,,,,,,13,,,,41,30
56700,note_on,680,0,5,,,,,,,,3,,,,69,45
56700,note_on,680,0,10,,,,,,,,8,,,,69,30
56700,note_on,680,0,7,,,,,,,,5,,,,57,45
56700,note_on,680,0,6,,,,,,,,4,,,,65,45
56700,note_on,680,0,15,,,,,,,,14,,,,41,45
56700,note_on,680,0,11,,,,,,,,10,,,,65,30
56780,note_off,80,0,7,,,,,,,,5,,,,57,64
56780,note_off,80,0,14,,,,,,,,13,,,,41,64
56780,note_off,80,0,13,,,,,,,,12,,,,53,64
56780,note_off,80,0,12,,,,,,,,11,,,,57,64
56780,note_off,80,0,11,,,,,,,,10,,,,65,64
56780,note_off,80,0,9,,,,,,,,7,,,,41,64
56780,note_off,80,0,5,,,,,,,,3,,,,69,64
56780,note_off,80,0,8,,,,,,,,6,,,,53,64
56780,note_off,80,0,10,,,,,,,,8,,,,69,64
56780,note_off,80,0,6,,,,,,,,4,,,,65,64
56940,note_on,160,0,6,,,,,,,,4,,,,65,45
56940,note_on,160,0,14,,,,,,,,13,,,,41,30
56940,note_on,160,0,5,,,,,,,,3,,,,69,45
56940,note_on,160,0,12,,,,,,,,11,,,,57,30
56940,note_on,160,0,13,,,,,,,,12,,,,53,30
56940,note_on,160,0,9,,,,,,,,7,,,,41,45
56940,note_on,160,0,11,,,,,,,,10,,,,65,30
56940,note_on,160,0,8,,,,,,,,6,,,,53,45
56940,note_on,160,0,7,,,,,,,,5,,,,57,45
56940,note_on,160,0,10,,,,,,,,8,,,,69,30
57020,note_off,80,0,14,,,,,,,,13,,,,41,64
57020,note_off,80,0,6,,,,,,,,4,,,,65,64
57020,note_off,80,0,10,,,,,,,,8,,,,69,64
57020,note_off,80,0,8,,,,,,,,6,,,,53,64
57020,note_off,80,0,5,,,,,,,,3,,,,69,64
57020,note_off,80,0,7,,,,,,,,5,,,,57,64
57020,note_off,80,0,9,,,,,,,,7,,,,41,64
57020,note_off,80,0,11,,,,,,,,10,,,,65,64
57020,note_off,80,0,12,,,,,,,,11,,,,57,64
57020,note_off,80,0,13,,,,,,,,12,,,,53,64
57100,note_off,400,0,15,,,,,,,,14,,,,41,64
57180,note_on,160,0,9,,,,,,,,7,,,,41,45
57180,note_on,160,0,12,,,,,,,,11,,,,57,30
57180,note_on,160,0,11,,,,,,,,10,,,,65,30
57180,note_on,160,0,10,,,,,,,,8,,,,69,30
57180,note_on,160,0,13,,,,,,,,12,,,,53,30
57180,note_on,160,0,8,,,,,,,,6,,,,53,45
57180,note_on,160,0,7,,,,,,,,5,,,,57,45
57180,note_on,160,0,6,,,,,,,,4,,,,65,45
57180,note_on,160,0,14,,,,,,,,13,,,,41,30
57180,note_on,160,0,5,,,,,,,,3,,,,69,45
57260,note_off,80,0,13,,,,,,,,12,,,,53,64
57260,note_off,80,0,8,,,,,,,,6,,,,53,64
57260,note_off,80,0,5,,,,,,,,3,,,,69,64
57260,note_off,80,0,11,,,,,,,,10,,,,65,64
57260,note_off,80,0,6,,,,,,,,4,,,,65,64
57260,note_off,80,0,9,,,,,,,,7,,,,41,64
57260,note_off,80,0,14,,,,,,,,13,,,,41,64
57260,note_off,80,0,10,,,,,,,,8,,,,69,64
57260,note_off,80,0,12,,,,,,,,11,,,,57,64
57260,note_off,80,0,7,,,,,,,,5,,,,57,64
57420,note_on,160,0,5,,,,,,,,3,,,,70,45
57420,note_on,160,0,10,,,,,,,,8,,,,70,30
57420,note_on,320,0,15,,,,,,,,14,,,,36,45
57420,note_on,160,0,6,,,,,,,,4,,,,67,45
57420,note_on,160,0,13,,,,,,,,12,,,,48,30
57420,note_on,160,0,7,,,,,,,,5,,,,52,45
57420,note_on,160,0,9,,,,,,,,7,,,,36,45
57420,note_on,160,0,12,,,,,,,,11,,,,52,30
57420,note_on,160,0,8,,,,,,,,6,,,,48,45
57420,note_on,160,0,14,,,,,,,,13,,,,36,30
57420,note_on,160,0,11,,,,,,,,10,,,,67,30
57500,note_off,80,0,14,,,,,,,,13,,,,36,64
57500,note_off,80,0,12,,,,,,,,11,,,,52,64
57500,note_off,80,0,11,,,,,,,,10,,,,67,64
57500,note_off,80,0,6,,,,,,,,4,,,,67,64
57500,note_off,80,0,10,,,,,,,,8,,,,70,64
57500,note_off,80,0,5,,,,,,,,3,,,,70,64
57500,note_off,80,0,8,,,,,,,,6,,,,48,64
57500,note_off,80,0,7,,,,,,,,5,,,,52,64
57500,note_off,80,0,13,,,,,,,,12,,,,48,64
57500,note_off,80,0,9,,,,,,,,7,,,,36,64
57655,note_off,235,0,15,,,,,,,,14,,,,36,64
57660,note_on,160,0,10,,,,,,,,8,,,,69,30
57660,note_on,160,0,6,,,,,,,,4,,,,65,45
57660,note_on,160,0,9,,,,,,,,7,,,,41,45
57660,note_on,5,0,15,,,,,,,,14,,,,41,45
57660,note_on,160,0,5,,,,,,,,3,,,,69,45
57660,note_on,160,0,7,,,,,,,,5,,,,57,45
57660,note_on,160,0,14,,,,,,,,13,,,,41,30
57660,note_on,160,0,12,,,,,,,,11,,,,57,30
57660,note_on,160,0,8,,,,,,,,6,,,,53,45
57660,note_on,160,0,13,,,,,,,,12,,,,53,30
57660,note_on,160,0,11,,,,,,,,10,,,,65,30
57740,note_off,80,0,9,,,,,,,,7,,,,41,64
57740,note_off,80,0,14,,,,,,,,13,,,,41,64
57740,note_off,80,0,8,,,,,,,,6,,,,53,64
57740,note_off,80,0,11,,,,,,,,10,,,,65,64
57740,note_off,80,0,5,,,,,,,,3,,,,69,64
57740,note_off,80,0,13,,,,,,,,12,,,,53,64
57740,note_off,80,0,6,,,,,,,,4,,,,65,64
57740,note_off,80,0,12,,,,,,,,11,,,,57,64
57740,note_off,80,0,7,,,,,,,,5,,,,57,64
57740,note_off,80,0,10,,,,,,,,8,,,,69,64
57900,note_on,160,0,5,,,,,,,,3,,,,69,45
57900,note_on,160,0,13,,,,,,,,12,,,,53,30
57900,note_on,160,0,9,,,,,,,,7,,,,41,45
57900,note_on,160,0,10,,,,,,,,8,,,,69,30
57900,note_on,160,0,14,,,,,,,,13,,,,41,30
57900,note_on,160,0,12,,,,,,,,11,,,,57,30
57900,note_on,160,0,6,,,,,,,,4,,,,65,45
57900,note_on,160,0,11,,,,,,,,10,,,,65,30
57900,note_on,160,0,7,,,,,,,,5,,,,57,45
57900,note_on,160,0,8,,,,,,,,6,,,,53,45
57980,note_off,80,0,5,,,,,,,,3,,,,69,64
57980,note_off,80,0,12,,,,,,,,11,,,,57,64
57980,note_off,80,0,13,,,,,,,,12,,,,53,64
57980,note_off,80,0,11,,,,,,,,10,,,,65,64
57980,note_off,80,0,7,,,,,,,,5,,,,57,64
57980,note_off,80,0,8,,,,,,,,6,,,,53,64
57980,note_off,80,0,6,,,,,,,,4,,,,65,64
57980,note_off,80,0,9,,,,,,,,7,,,,41,64
57980,note_off,80,0,14,,,,,,,,13,,,,41,64
57980,note_off,80,0,10,,,,,,,,8,,,,69,64
58060,note_off,400,0,15,,,,,,,,14,,,,41,64
58140,note_on,160,0,6,,,,,,,,4,,,,65,45
58140,note_on,160,0,14,,,,,,,,13,,,,41,30
58140,note_on,160,0,12,,,,,,,,11,,,,57,30
58140,note_on,160,0,5,,,,,,,,3,,,,69,45
58140,note_on,160,0,10,,,,,,,,8,,,,69,30
58140,note_on,160,0,7,,,,,,,,5,,,,57,45
58140,note_on,160,0,9,,,,,,,,7,,,,41,45
58140,note_on,160,0,11,,,,,,,,10,,,,65,30
58140,note_on,160,0,8,,,,,,,,6,,,,53,45
58140,note_on,160,0,13,,,,,,,,12,,,,53,30
58220,note_off,80,0,13,,,,,,,,12,,,,53,64
58220,note_off,80,0,9,,,,,,,,7,,,,41,64
58220,note_off,80,0,10,,,,,,,,8,,,,69,64
58220,note_off,80,0,12,,,,,,,,11,,,,57,64
58220,note_off,80,0,14,,,,,,,,13,,,,41,64
58220,note_off,80,0,5,,,,,,,,3,,,,69,64
58220,note_off,80,0,6,,,,,,,,4,,,,65,64
58220,note_off,80,0,8,,,,,,,,6,,,,53,64
58220,note_off,80,0,7,,,,,,,,5,,,,57,64
58220,note_off,80,0,11,,,,,,,,10,,,,65,64
58380,note_on,160,0,6,,,,,,,,4,,,,67,45
58380,note_on,160,0,10,,,,,,,,8,,,,70,30
58380,note_on,160,0,14,,,,,,,,13,,,,36,30
58380,note_on,160,0,11,,,,,,,,10,,,,67,30
58380,note_on,160,0,8,,,,,,,,6,,,,48,45
58380,note_on,160,0,12,,,,,,,,11,,,,52,30
58380,note_on,160,0,9,,,,,,,,7,,,,36,45
58380,note_on,160,0,5,,,,,,,,3,,,,70,45
58380,note_on,320,0,15,,,,,,,,14,,,,36,45
58380,note_on,160,0,13,,,,,,,,12,,,,48,30
58380,note_on,160,0,7,,,,,,,,5,,,,52,45
58460,note_off,80,0,6,,,,,,,,4,,,,67,64
58460,note_off,80,0,13,,,,,,,,12,,,,48,64
58460,note_off,80,0,10,,,,,,,,8,,,,70,64
58460,note_off,80,0,9,,,,,,,,7,,,,36,64
58460,note_off,80,0,5,,,,,,,,3,,,,70,64
58460,note_off,80,0,11,,,,,,,,10,,,,67,64
58460,note_off,80,0,8,,,,,,,,6,,,,48,64
58460,note_off,80,0,14,,,,,,,,13,,,,36,64
58460,note_off,80,0,7,,,,,,,,5,,,,52,64
58460,note_off,80,0,12,,,,,,,,11,,,,52,64
58615,note_off,235,0,15,,,,,,,,14,,,,36,64
58620,set_tempo,6840,1,0,500000,,,,,,,,,,,,
58620,note_on,160,0,7,,,,,,,,5,,,,57,45
58620,note_on,160,0,11,,,,,,,,10,,,,65,30
58620,note_on,160,0,6,,,,,,,,4,,,,65,45
58620,note_on,160,0,14,,,,,,,,13,,,,41,30
58620,note_on,160,0,12,,,,,,,,11,,,,57,30
58620,note_on,160,0,9,,,,,,,,7,,,,41,45
58620,note_on,160,0,5,,,,,,,,3,,,,69,45
58620,note_on,160,0,10,,,,,,,,8,,,,69,30
58620,note_on,5,0,15,,,,,,,,14,,,,41,45
58620,note_on,160,0,13,,,,,,,,12,,,,53,30
58620,note_on,160,0,8,,,,,,,,6,,,,53,45
58700,note_off,80,0,11,,,,,,,,10,,,,65,64
58700,note_off,80,0,5,,,,,,,,3,,,,69,64
58700,note_off,80,0,7,,,,,,,,5,,,,57,64
58700,note_off,80,0,9,,,,,,,,7,,,,41,64
58700,note_off,80,0,12,,,,,,,,11,,,,57,64
58700,note_off,80,0,13,,,,,,,,12,,,,53,64
58700,note_off,80,0,14,,,,,,,,13,,,,41,64
58700,note_off,80,0,10,,,,,,,,8,,,,69,64
58700,note_off,80,0,8,,,,,,,,6,,,,53,64
58700,note_off,80,0,6,,,,,,,,4,,,,65,64
58860,note_on,160,0,6,,,,,,,,4,,,,65,45
58860,note_on,160,0,13,,,,,,,,12,,,,53,30
58860,note_on,160,0,11,,,,,,,,10,,,,65,30
58860,note_on,160,0,10,,,,,,,,8,,,,69,30
58860,note_on,160,0,5,,,,,,,,3,,,,69,45
58860,note_on,160,0,12,,,,,,,,11,,,,57,30
58860,note_on,160,0,7,,,,,,,,5,,,,57,45
58860,note_on,160,0,8,,,,,,,,6,,,,53,45
58860,note_on,160,0,9,,,,,,,,7,,,,41,45
58860,note_on,160,0,14,,,,,,,,13,,,,41,30
58940,note_off,80,0,6,,,,,,,,4,,,,65,64
58940,note_off,80,0,10,,,,,,,,8,,,,69,64
58940,note_off,80,0,5,,,,,,,,3,,,,69,64
58940,note_off,80,0,8,,,,,,,,6,,,,53,64
58940,note_off,80,0,12,,,,,,,,11,,,,57,64
58940,note_off,80,0,11,,,,,,,,10,,,,65,64
58940,note_off,80,0,7,,,,,,,,5,,,,57,64
58940,note_off,80,0,14,,,,,,,,13,,,,41,64
58940,note_off,80,0,13,,,,,,,,12,,,,53,64
58940,note_off,80,0,9,,,,,,,,7,,,,41,64
59020,note_off,400,0,15,,,,,,,,14,,,,41,64
59100,note_on,160,0,8,,,,,,,,6,,,,53,45
59100,note_on,160,0,11,,,,,,,,10,,,,65,30
59100,note_on,160,0,14,,,,,,,,13,,,,41,30
59100,note_on,160,0,13,,,,,,,,12,,,,53,30
59100,note_on,160,0,5,,,,,,,,3,,,,69,45
59100,note_on,160,0,9,,,,,,,,7,,,,41,45
59100,note_on,160,0,12,,,,,,,,11,,,,57,30
59100,note_on,160,0,6,,,,,,,,4,,,,65,45
59100,set_tempo,480,1,0,508474,,,,,,,,,,,,
59100,note_on,160,0,10,,,,,,,,8,,,,69,30
59100,note_on,160,0,7,,,,,,,,5,,,,57,45
59180,note_off,80,0,8,,,,,,,,6,,,,53,64
59180,note_off,80,0,13,,,,,,,,12,,,,53,64
59180,note_off,80,0,11,,,,,,,,10,,,,65,64
59180,note_off,80,0,6,,,,,,,,4,,,,65,64
59180,note_off,80,0,10,,,,,,,,8,,,,69,64
59180,note_off,80,0,14,,,,,,,,13,,,,41,64
59180,note_off,80,0,5,,,,,,,,3,,,,69,64
59180,note_off,80,0,9,,,,,,,,7,,,,41,64
59180,note_off,80,0,7,,,,,,,,5,,,,57,64
59180,note_off,80,0,12,,,,,,,,11,,,,57,64
59340,note_on,160,0,5,,,,,,,,3,,,,70,45
59340,note_on,160,0,13,,,,,,,,12,,,,48,30
59340,note_on,160,0,7,,,,,,,,5,,,,52,45
59340,note_on,160,0,10,,,,,,,,8,,,,70,30
59340,note_on,160,0,11,,,,,,,,10,,,,67,30
59340,note_on,160,0,12,,,,,,,,11,,,,52,30
59340,note_on,160,0,9,,,,,,,,7,,,,36,45
59340,note_on,160,0,6,,,,,,,,4,,,,67,45
59340,note_on,320,0,15,,,,,,,,14,,,,36,45
59340,note_on,160,0,14,,,,,,,,13,,,,36,30
59340,note_on,160,0,8,,,,,,,,6,,,,48,45
59420,note_off,80,0,10,,,,,,,,8,,,,70,64
59420,note_off,80,0,13,,,,,,,,12,,,,48,64
59420,note_off,80,0,6,,,,,,,,4,,,,67,64
59420,note_off,80,0,11,,,,,,,,10,,,,67,64
59420,note_off,80,0,9,,,,,,,,7,,,,36,64
59420,note_off,80,0,5,,,,,,,,3,,,,70,64
59420,note_off,80,0,14,,,,,,,,13,,,,36,64
59420,note_off,80,0,7,,,,,,,,5,,,,52,64
59420,note_off,80,0,12,,,,,,,,11,,,,52,64
59420,note_off,80,0,8,,,,,,,,6,,,,48,64
59575,note_off,235,0,15,,,,,,,,14,,,,36,64
59580,note_on,160,0,8,,,,,,,,6,,,,53,45
59580,note_on,160,0,7,,,,,,,,5,,,,57,45
59580,note_on,160,0,5,,,,,,,,3,,,,69,45
59580,note_on,160,0,10,,,,,,,,8,,,,69,30
59580,note_on,160,0,11,,,,,,,,10,,,,65,30
59580,note_on,5,0,15,,,,,,,,14,,,,41,45
59580,note_on,160,0,13,,,,,,,,12,,,,53,30
59580,note_on,160,0,14,,,,,,,,13,,,,41,30
59580,note_on,160,0,12,,,,,,,,11,,,,57,30
59580,set_tempo,480,1,0,517241,,,,,,,,,,,,
59580,note_on,160,0,6,,,,,,,,4,,,,65,45
59580,note_on,160,0,9,,,,,,,,7,,,,41,45
59610,note_on,0,0,10,,,,,,,,8,,,,70,30
59610,note_on,0,0,6,,,,,,,,4,,,,67,45
59610,note_on,0,0,5,,,,,,,,3,,,,70,45
59610,note_off,30,0,5,,,,,,,,3,,,,69,64
59610,note_off,30,0,10,,,,,,,,8,,,,69,64
59610,note_off,30,0,6,,,,,,,,4,,,,65,64
59610,note_off,30,0,11,,,,,,,,10,,,,65,64
59610,note_on,0,0,11,,,,,,,,10,,,,67,30
59640,note_on,0,0,11,,,,,,,,10,,,,65,30
59640,note_off,30,0,11,,,,,,,,10,,,,67,64
59640,note_on,0,0,5,,,,,,,,3,,,,69,45
59640,note_off,30,0,5,,,,,,,,3,,,,70,64
59640,note_on,0,0,10,,,,,,,,8,,,,69,30
59640,note_off,30,0,10,,,,,,,,8,,,,70,64
59640,note_off,30,0,6,,,,,,,,4,,,,67,64
59640,note_on,0,0,6,,,,,,,,4,,,,65,45
59660,note_off,80,0,7,,,,,,,,5,,,,57,64
59660,note_off,80,0,13,,,,,,,,12,,,,53,64
59660,note_off,80,0,14,,,,,,,,13,,,,41,64
59660,note_off,80,0,9,,,,,,,,7,,,,41,64
59660,note_off,80,0,8,,,,,,,,6,,,,53,64
59660,note_off,80,0,12,,,,,,,,11,,,,57,64
59670,note_on,0,0,6,,,,,,,,4,,,,67,45
59670,note_off,30,0,11,,,,,,,,10,,,,65,64
59670,note_on,0,0,11,,,,,,,,10,,,,67,30
59670,note_off,30,0,5,,,,,,,,3,,,,69,64
59670,note_on,0,0,5,,,,,,,,3,,,,70,45
59670,note_off,30,0,10,,,,,,,,8,,,,69,64
59670,note_off,30,0,6,,,,,,,,4,,,,65,64
59670,note_on,0,0,10,,,,,,,,8,,,,70,30
59700,note_off,30,0,10,,,,,,,,8,,,,70,64
59700,note_on,0,0,10,,,,,,,,8,,,,69,30
59700,note_off,30,0,6,,,,,,,,4,,,,67,64
59700,note_on,0,0,11,,,,,,,,10,,,,65,30
59700,note_off,30,0,11,,,,,,,,10,,,,67,64
59700,note_off,30,0,5,,,,,,,,3,,,,70,64
59700,note_on,0,0,6,,,,,,,,4,,,,65,45
59700,note_on,0,0,5,,,,,,,,3,,,,69,45
59730,note_on,0,0,11,,,,,,,,10,,,,67,30
59730,note_off,30,0,11,,,,,,,,10,,,,65,64
59730,note_off,30,0,5,,,,,,,,3,,,,69,64
59730,note_on,0,0,5,,,,,,,,3,,,,70,45
59730,note_on,0,0,6,,,,,,,,4,,,,67,45
59730,note_off,30,0,6,,,,,,,,4,,,,65,64
59730,note_off,30,0,10,,,,,,,,8,,,,69,64
59730,note_on,0,0,10,,,,,,,,8,,,,70,30
59760,note_on,0,0,5,,,,,,,,3,,,,69,45
59760,note_on,0,0,6,,,,,,,,4,,,,65,45
59760,note_off,30,0,6,,,,,,,,4,,,,67,64
59760,note_off,30,0,11,,,,,,,,10,,,,67,64
59760,note_on,0,0,11,,,,,,,,10,,,,65,30
59760,note_off,30,0,5,,,,,,,,3,,,,70,64
59760,note_off,30,0,10,,,,,,,,8,,,,70,64
59760,note_on,0,0,10,,,,,,,,8,,,,69,30
59790,note_on,0,0,11,,,,,,,,10,,,,67,30
59790,note_on,0,0,6,,,,,,,,4,,,,67,45
59790,note_off,30,0,10,,,,,,,,8,,,,69,64
59790,note_on,0,0,10,,,,,,,,8,,,,70,30
59790,note_on,0,0,5,,,,,,,,3,,,,70,45
59790,note_off,30,0,5,,,,,,,,3,,,,69,64
59790,note_off,30,0,11,,,,,,,,10,,,,65,64
59790,note_off,30,0,6,,,,,,,,4,,,,65,64
59820,note_on,160,0,8,,,,,,,,6,,,,53,45
59820,note_on,160,0,7,,,,,,,,5,,,,57,45
59820,note_on,0,0,6,,,,,,,,4,,,,64,45
59820,note_off,30,0,6,,,,,,,,4,,,,67,64
59820,note_on,160,0,9,,,,,,,,7,,,,41,45
59820,note_on,160,0,14,,,,,,,,13,,,,41,30
59820,note_on,0,0,11,,,,,,,,10,,,,64,30
59820,note_on,0,0,10,,,,,,,,8,,,,67,30
59820,note_on,160,0,12,,,,,,,,11,,,,57,30
59820,note_off,30,0,10,,,,,,,,8,,,,70,64
59820,note_off,30,0,5,,,,,,,,3,,,,70,64
59820,note_on,0,0,5,,,,,,,,3,,,,67,45
59820,note_on,160,0,13,,,,,,,,12,,,,53,30
59820,note_off,30,0,11,,,,,,,,10,,,,67,64
59900,note_off,80,0,6,,,,,,,,4,,,,64,64
59900,note_off,80,0,14,,,,,,,,13,,,,41,64
59900,note_off,80,0,13,,,,,,,,12,,,,53,64
59900,note_off,80,0,8,,,,,,,,6,,,,53,64
59900,note_off,80,0,10,,,,,,,,8,,,,67,64
59900,note_off,80,0,7,,,,,,,,5,,,,57,64
59900,note_off,80,0,5,,,,,,,,3,,,,67,64
59900,note_off,80,0,12,,,,,,,,11,,,,57,64
59900,note_off,80,0,9,,,,,,,,7,,,,41,64
59900,note_off,80,0,11,,,,,,,,10,,,,64,64
59940,note_on,40,0,6,,,,,,,,4,,,,65,45
59940,note_on,40,0,10,,,,,,,,8,,,,69,30
59940,note_on,40,0,11,,,,,,,,10,,,,65,30
59940,note_on,40,0,5,,,,,,,,3,,,,69,45
59980,note_off,400,0,15,,,,,,,,14,,,,41,64
60020,note_off,80,0,10,,,,,,,,8,,,,69,64
60020,note_off,80,0,6,,,,,,,,4,,,,65,64
60020,note_off,80,0,11,,,,,,,,10,,,,65,64
60020,note_off,80,0,5,,,,,,,,3,,,,69,64
60060,note_on,80,0,15,,,,,,,,14,,,,34,45
60060,note_on,160,0,13,,,,,,,,12,,,,46,30
60060,set_tempo,480,1,0,526315,,,,,,,,,,,,
60060,note_on,160,0,9,,,,,,,,7,,,,34,45
60060,note_on,40,0,5,,,,,,,,3,,,,70,45
60060,note_on,40,0,6,,,,,,,,4,,,,67,45
60060,note_on,160,0,7,,,,,,,,5,,,,50,45
60060,note_on,160,0,12,,,,,,,,11,,,,50,30
60060,note_on,40,0,11,,,,,,,,10,,,,67,30
60060,note_on,160,0,14,,,,,,,,13,,,,34,30
60060,note_on,160,0,8,,,,,,,,6,,,,46,45
60060,note_on,40,0,10,,,,,,,,8,,,,70,30
60140,note_off,80,0,6,,,,,,,,4,,,,67,64
60140,note_off,80,0,9,,,,,,,,7,,,,34,64
60140,note_off,80,0,11,,,,,,,,10,,,,67,64
60140,note_off,80,0,10,,,,,,,,8,,,,70,64
60140,note_off,80,0,12,,,,,,,,11,,,,50,64
60140,note_off,80,0,5,,,,,,,,3,,,,70,64
60140,note_off,80,0,13,,,,,,,,12,,,,46,64
60140,note_off,80,0,7,,,,,,,,5,,,,50,64
60140,note_off,80,0,8,,,,,,,,6,,,,46,64
60140,note_off,80,0,14,,,,,,,,13,,,,34,64
60295,note_off,235,0,15,,,,,,,,14,,,,34,64
60300,note_on,160,0,11,,,,,,,,10,,,,64,30
60300,note_on,160,0,6,,,,,,,,4,,,,64,45
60300,note_on,160,0,5,,,,,,,,3,,,,67,45
60300,note_on,160,0,14,,,,,,,,13,,,,36,30
60300,note_on,160,0,10,,,,,,,,8,,,,67,30
60300,note_on,160,0,8,,,,,,,,6,,,,48,45
60300,note_on,160,0,9,,,,,,,,7,,,,36,45
60300,note_on,160,0,13,,,,,,,,12,,,,48,30
60300,note_on,5,0,15,,,,,,,,14,,,,36,45
60300,note_on,160,0,12,,,,,,,,11,,,,48,30
60300,note_on,160,0,7,,,,,,,,5,,,,48,45
60380,note_off,80,0,8,,,,,,,,6,,,,48,64
60380,note_off,80,0,14,,,,,,,,13,,,,36,64
60380,note_off,80,0,13,,,,,,,,12,,,,48,64
60380,note_off,80,0,11,,,,,,,,10,,,,64,64
60380,note_off,80,0,7,,,,,,,,5,,,,48,64
60380,note_off,80,0,12,,,,,,,,11,,,,48,64
60380,note_off,80,0,5,,,,,,,,3,,,,67,64
60380,note_off,80,0,10,,,,,,,,8,,,,67,64
60380,note_off,80,0,9,,,,,,,,7,,,,36,64
60380,note_off,80,0,6,,,,,,,,4,,,,64,64
60535,note_off,235,0,15,,,,,,,,14,,,,36,64
60540,note_on,160,0,11,,,,,,,,10,,,,60,30
60540,note_on,160,0,7,,,,,,,,5,,,,48,45
60540,set_tempo,480,1,0,535714,,,,,,,,,,,,
60540,note_on,5,0,15,,,,,,,,14,,,,29,45
60540,note_on,160,0,13,,,,,,,,12,,,,41,30
60540,note_on,160,0,14,,,,,,,,13,,,,29,30
60540,note_on,0,0,15,,,,,,,,14,,,,41,45
60540,note_on,160,0,12,,,,,,,,11,,,,48,30
60540,note_on,160,0,5,,,,,,,,3,,,,65,45
60540,note_on,160,0,6,,,,,,,,4,,,,60,45
60540,note_on,160,0,10,,,,,,,,8,,,,65,30
60540,note_on,160,0,9,,,,,,,,7,,,,29,45
60540,note_on,160,0,8,,,,,,,,6,,,,41,45
60940,note_off,400,0,15,,,,,,,,14,,,,41,64
60940,note_off,0,0,15,,,,,,,,14,,,,29,64
60940,note_off,400,0,12,,,,,,,,11,,,,48,64
60940,note_off,400,0,7,,,,,,,,5,,,,48,64
60940,note_off,400,0,14,,,,,,,,13,,,,29,64
60940,note_off,400,0,6,,,,,,,,4,,,,60,64
60940,note_off,400,0,9,,,,,,,,7,,,,29,64
60940,note_off,400,0,11,,,,,,,,10,,,,60,64
60940,note_off,400,0,10,,,,,,,,8,,,,65,64
60940,note_off,400,0,5,,,,,,,,3,,,,65,64
60940,note_off,400,0,8,,,,,,,,6,,,,41,64
60940,note_off,400,0,13,,,,,,,,12,,,,41,64
61740,note_on,800,0,8,,,,,,,,6,,,,53,60
61740,note_on,9560,0,4,,,,,,,,2,,,,89,60
61740,note_on,9560,0,3,,,,,,,,1,,,,89,75
61740,note_on,800,0,13,,,,,,,,12,,,,53,45
61740,set_tempo,1200,1,0,566037,,,,,,,,,,,,
61860,note_on,0,0,3,,,,,,,,1,,,,84,75
61860,note_off,120,0,3,,,,,,,,1,,,,89,64
61860,note_off,120,0,4,,,,,,,,2,,,,89,64
61860,note_on,0,0,4,,,,,,,,2,,,,84,60
61940,note_off,80,0,4,,,,,,,,2,,,,84,64
61940,note_off,80,0,3,,,,,,,,1,,,,84,64
61980,set_tempo,240,1,0,500000,,,,,,,,,,,,
61980,note_on,40,0,4,,,,,,,,2,,,,81,60
61980,note_on,40,0,3,,,,,,,,1,,,,81,75
62060,note_off,80,0,4,,,,,,,,2,,,,81,64
62060,note_off,80,0,3,,,,,,,,1,,,,81,64
62100,note_on,40,0,3,,,,,,,,1,,,,77,75
62100,note_on,40,0,4,,,,,,,,2,,,,77,60
62140,note_off,400,0,13,,,,,,,,12,,,,53,64
62140,note_off,400,0,8,,,,,,,,6,,,,53,64
62180,note_off,80,0,3,,,,,,,,1,,,,77,64
62180,note_off,80,0,4,,,,,,,,2,,,,77,64
62220,set_tempo,240,1,0,566037,,,,,,,,,,,,
62220,note_on,40,0,4,,,,,,,,2,,,,89,60
62220,note_on,40,0,3,,,,,,,,1,,,,89,75
62340,note_on,0,0,3,,,,,,,,1,,,,84,75
62340,note_off,120,0,3,,,,,,,,1,,,,89,64
62340,note_on,200,0,13,,,,,,,,12,,,,65,45
62340,note_on,200,0,8,,,,,,,,6,,,,65,60
62340,note_off,120,0,4,,,,,,,,2,,,,89,64
62340,note_on,0,0,4,,,,,,,,2,,,,84,60
62420,note_off,80,0,4,,,,,,,,2,,,,84,64
62420,note_off,80,0,3,,,,,,,,1,,,,84,64
62420,note_off,80,0,13,,,,,,,,12,,,,65,64
62455,note_off,115,0,8,,,,,,,,6,,,,65,64
62460,note_on,5,0,8,,,,,,,,6,,,,60,60
62460,note_on,40,0,13,,,,,,,,12,,,,60,45
62460,note_on,40,0,3,,,,,,,,1,,,,81,75
62460,set_tempo,240,1,0,500000,,,,,,,,,,,,
62460,note_on,40,0,4,,,,,,,,2,,,,81,60
62540,note_off,80,0,4,,,,,,,,2,,,,81,64
62540,note_off,80,0,3,,,,,,,,1,,,,81,64
62540,note_off,80,0,13,,,,,,,,12,,,,60,64
62575,note_off,115,0,8,,,,,,,,6,,,,60,64
62580,note_on,40,0,13,,,,,,,,12,,,,57,45
62580,note_on,40,0,3,,,,,,,,1,,,,77,75
62580,note_on,40,0,4,,,,,,,,2,,,,77,60
62580,note_on,5,0,8,,,,,,,,6,,,,57,60
62660,note_off,80,0,13,,,,,,,,12,,,,57,64
62660,note_off,80,0,3,,,,,,,,1,,,,77,64
62660,note_off,80,0,4,,,,,,,,2,,,,77,64
62695,note_off,115,0,8,,,,,,,,6,,,,57,64
62700,note_on,40,0,13,,,,,,,,12,,,,53,45
62700,note_on,40,0,3,,,,,,,,1,,,,89,75
62700,set_tempo,240,1,0,566037,,,,,,,,,,,,
62700,note_on,5,0,8,,,,,,,,6,,,,53,60
62700,note_on,40,0,4,,,,,,,,2,,,,89,60
62820,note_off,120,0,3,,,,,,,,1,,,,89,64
62820,note_on,0,0,4,,,,,,,,2,,,,84,60
62820,note_on,0,0,3,,,,,,,,1,,,,84,75
62820,note_off,120,0,4,,,,,,,,2,,,,89,64
62900,note_off,80,0,4,,,,,,,,2,,,,84,64
62900,note_off,80,0,3,,,,,,,,1,,,,84,64
62940,note_on,40,0,4,,,,,,,,2,,,,81,60
62940,note_on,40,0,3,,,,,,,,1,,,,81,75
63020,note_off,80,0,4,,,,,,,,2,,,,81,64
63020,note_off,80,0,3,,,,,,,,1,,,,81,64
63060,note_on,40,0,4,,,,,,,,2,,,,77,60
63060,note_on,40,0,3,,,,,,,,1,,,,77,75
63100,note_off,400,0,8,,,,,,,,6,,,,53,64
63100,note_off,400,0,13,,,,,,,,12,,,,53,64
63140,note_off,80,0,3,,,,,,,,1,,,,77,64
63140,note_off,80,0,4,,,,,,,,2,,,,77,64
63180,note_on,40,0,4,,,,,,,,2,,,,89,60
63180,note_on,40,0,3,,,,,,,,1,,,,89,75
63300,note_on,200,0,13,,,,,,,,12,,,,65,45
63300,note_on,0,0,3,,,,,,,,1,,,,84,75
63300,note_off,120,0,3,,,,,,,,1,,,,89,64
63300,note_on,200,0,8,,,,,,,,6,,,,65,60
63300,note_on,0,0,4,,,,,,,,2,,,,84,60
63300,note_off,120,0,4,,,,,,,,2,,,,89,64
63380,note_off,80,0,3,,,,,,,,1,,,,84,64
63380,note_off,80,0,4,,,,,,,,2,,,,84,64
63380,note_off,80,0,13,,,,,,,,12,,,,65,64
63415,note_off,115,0,8,,,,,,,,6,,,,65,64
63420,note_on,40,0,4,,,,,,,,2,,,,81,60
63420,note_on,40,0,3,,,,,,,,1,,,,81,75
63420,note_on,40,0,13,,,,,,,,12,,,,60,45
63420,note_on,5,0,8,,,,,,,,6,,,,60,60
63500,note_off,80,0,4,,,,,,,,2,,,,81,64
63500,note_off,80,0,3,,,,,,,,1,,,,81,64
63500,note_off,80,0,13,,,,,,,,12,,,,60,64
63535,note_off,115,0,8,,,,,,,,6,,,,60,64
63540,note_on,40,0,3,,,,,,,,1,,,,77,75
63540,note_on,5,0,8,,,,,,,,6,,,,57,60
63540,note_on,40,0,4,,,,,,,,2,,,,77,60
63540,note_on,40,0,13,,,,,,,,12,,,,57,45
63620,note_off,80,0,4,,,,,,,,2,,,,77,64
63620,note_off,80,0,13,,,,,,,,12,,,,57,64
63620,note_off,80,0,3,,,,,,,,1,,,,77,64
63655,note_off,115,0,8,,,,,,,,6,,,,57,64
63660,note_on,40,0,13,,,,,,,,12,,,,53,45
63660,note_on,40,0,3,,,,,,,,1,,,,81,75
63660,note_on,40,0,4,,,,,,,,2,,,,81,60
63660,note_on,5,0,8,,,,,,,,6,,,,53,60
63780,note_off,120,0,3,,,,,,,,1,,,,81,64
63780,note_on,0,0,3,,,,,,,,1,,,,77,75
63780,note_on,0,0,4,,,,,,,,2,,,,77,60
63780,note_off,120,0,4,,,,,,,,2,,,,81,64
63860,note_off,80,0,3,,,,,,,,1,,,,77,64
63860,note_off,80,0,4,,,,,,,,2,,,,77,64
63900,note_on,40,0,3,,,,,,,,1,,,,77,75
63900,note_on,40,0,4,,,,,,,,2,,,,77,60
64020,note_off,120,0,4,,,,,,,,2,,,,77,64
64020,note_on,0,0,4,,,,,,,,2,,,,72,60
64020,note_on,0,0,3,,,,,,,,1,,,,72,75
64020,note_off,120,0,3,,,,,,,,1,,,,77,64
64060,note_off,400,0,13,,,,,,,,12,,,,53,64
64060,note_off,400,0,8,,,,,,,,6,,,,53,64
64100,note_off,80,0,4,,,,,,,,2,,,,72,64
64100,note_off,80,0,3,,,,,,,,1,,,,72,64
64140,note_on,40,0,3,,,,,,,,1,,,,72,75
64140,note_on,40,0,4,,,,,,,,2,,,,72,60
64260,note_on,0,0,4,,,,,,,,2,,,,69,60
64260,note_on,0,0,3,,,,,,,,1,,,,69,75
64260,note_off,120,0,3,,,,,,,,1,,,,72,64
64260,note_on,200,0,13,,,,,,,,12,,,,53,45
64260,note_on,200,0,8,,,,,,,,6,,,,53,60
64260,note_off,120,0,4,,,,,,,,2,,,,72,64
64340,note_off,80,0,3,,,,,,,,1,,,,69,64
64340,note_off,80,0,4,,,,,,,,2,,,,69,64
64340,note_off,80,0,13,,,,,,,,12,,,,53,64
64375,note_off,115,0,8,,,,,,,,6,,,,53,64
64380,note_on,40,0,13,,,,,,,,12,,,,57,45
64380,note_on,40,0,4,,,,,,,,2,,,,69,60
64380,note_on,5,0,8,,,,,,,,6,,,,57,60
64380,note_on,40,0,3,,,,,,,,1,,,,69,75
64460,note_off,80,0,13,,,,,,,,12,,,,57,64
64495,note_off,115,0,8,,,,,,,,6,,,,57,64
64500,note_off,120,0,4,,,,,,,,2,,,,69,64
64500,note_on,0,0,4,,,,,,,,2,,,,65,60
64500,note_off,120,0,3,,,,,,,,1,,,,69,64
64500,note_on,0,0,3,,,,,,,,1,,,,65,75
64500,note_on,40,0,13,,,,,,,,12,,,,60,45
64500,note_on,5,0,8,,,,,,,,6,,,,60,60
64580,note_off,80,0,4,,,,,,,,2,,,,65,64
64580,note_off,80,0,13,,,,,,,,12,,,,60,64
64580,note_off,80,0,3,,,,,,,,1,,,,65,64
64615,note_off,115,0,8,,,,,,,,6,,,,60,64
64620,note_on,40,0,13,,,,,,,,12,,,,65,45
64620,note_on,5,0,8,,,,,,,,6,,,,65,60
64620,note_on,40,0,4,,,,,,,,2,,,,65,60
64620,note_on,40,0,3,,,,,,,,1,,,,65,75
64740,note_on,0,0,4,,,,,,,,2,,,,60,60
64740,note_on,0,0,3,,,,,,,,1,,,,60,75
64740,note_off,120,0,3,,,,,,,,1,,,,65,64
64740,note_off,120,0,4,,,,,,,,2,,,,65,64
64820,note_off,80,0,4,,,,,,,,2,,,,60,64
64820,note_off,80,0,3,,,,,,,,1,,,,60,64
64860,note_on,40,0,3,,,,,,,,1,,,,60,75
64860,note_on,40,0,4,,,,,,,,2,,,,60,60
64980,note_off,120,0,3,,,,,,,,1,,,,60,64
64980,note_off,120,0,4,,,,,,,,2,,,,60,64
64980,note_on,0,0,3,,,,,,,,1,,,,57,75
64980,note_on,0,0,4,,,,,,,,2,,,,57,60
65020,note_off,400,0,13,,,,,,,,12,,,,65,64
65020,note_off,400,0,8,,,,,,,,6,,,,65,64
65060,note_off,80,0,4,,,,,,,,2,,,,57,64
65060,note_off,80,0,3,,,,,,,,1,,,,57,64
65100,note_on,40,0,4,,,,,,,,2,,,,57,60
65100,note_on,40,0,3,,,,,,,,1,,,,57,75
65220,note_on,0,0,4,,,,,,,,2,,,,60,60
65220,note_on,0,0,3,,,,,,,,1,,,,60,75
65220,note_off,120,0,3,,,,,,,,1,,,,57,64
65220,note_off,120,0,4,,,,,,,,2,,,,57,64
65220,note_on,200,0,8,,,,,,,,6,,,,53,60
65220,note_on,200,0,13,,,,,,,,12,,,,53,45
65300,note_off,80,0,4,,,,,,,,2,,,,60,64
65300,note_off,80,0,13,,,,,,,,12,,,,53,64
65300,note_off,80,0,3,,,,,,,,1,,,,60,64
65335,note_off,115,0,8,,,,,,,,6,,,,53,64
65340,note_on,40,0,4,,,,,,,,2,,,,60,60
65340,note_on,5,0,8,,,,,,,,6,,,,48,60
65340,note_on,40,0,3,,,,,,,,1,,,,60,75
65340,note_on,40,0,13,,,,,,,,12,,,,48,45
65420,note_off,80,0,13,,,,,,,,12,,,,48,64
65455,note_off,115,0,8,,,,,,,,6,,,,48,64
65460,note_on,0,0,3,,,,,,,,1,,,,65,75
65460,note_off,120,0,3,,,,,,,,1,,,,60,64
65460,note_off,120,0,4,,,,,,,,2,,,,60,64
65460,note_on,0,0,4,,,,,,,,2,,,,65,60
65460,note_on,5,0,8,,,,,,,,6,,,,45,60
65460,note_on,40,0,13,,,,,,,,12,,,,45,45
65540,note_off,80,0,4,,,,,,,,2,,,,65,64
65540,note_off,80,0,3,,,,,,,,1,,,,65,64
65540,note_off,80,0,13,,,,,,,,12,,,,45,64
65575,note_off,115,0,8,,,,,,,,6,,,,45,64
65580,note_on,40,0,4,,,,,,,,2,,,,65,60
65580,note_on,5,0,8,,,,,,,,6,,,,41,60
65580,note_on,40,0,13,,,,,,,,12,,,,41,45
65580,note_on,40,0,3,,,,,,,,1,,,,65,75
65700,note_off,120,0,4,,,,,,,,2,,,,65,64
65700,note_on,0,0,4,,,,,,,,2,,,,69,60
65700,note_on,0,0,3,,,,,,,,1,,,,69,75
65700,note_off,120,0,3,,,,,,,,1,,,,65,64
65780,note_off,80,0,3,,,,,,,,1,,,,69,64
65780,note_off,80,0,4,,,,,,,,2,,,,69,64
65820,note_on,40,0,4,,,,,,,,2,,,,69,60
65820,note_on,40,0,3,,,,,,,,1,,,,69,75
65940,note_off,120,0,4,,,,,,,,2,,,,69,64
65940,note_on,0,0,4,,,,,,,,2,,,,72,60
65940,note_on,0,0,3,,,,,,,,1,,,,72,75
65940,note_off,120,0,3,,,,,,,,1,,,,69,64
65980,note_off,400,0,13,,,,,,,,12,,,,41,64
65980,note_off,400,0,8,,,,,,,,6,,,,41,64
66020,note_off,80,0,4,,,,,,,,2,,,,72,64
66020,note_off,80,0,3,,,,,,,,1,,,,72,64
66060,note_on,40,0,3,,,,,,,,1,,,,72,75
66060,note_on,40,0,4,,,,,,,,2,,,,72,60
66180,note_on,200,0,8,,,,,,,,6,,,,53,60
66180,note_off,120,0,3,,,,,,,,1,,,,72,64
66180,note_on,200,0,13,,,,,,,,12,,,,53,45
66180,note_on,0,0,4,,,,,,,,2,,,,77,60
66180,note_off,120,0,4,,,,,,,,2,,,,72,64
66180,note_on,0,0,3,,,,,,,,1,,,,77,75
66260,note_off,80,0,4,,,,,,,,2,,,,77,64
66260,note_off,80,0,13,,,,,,,,12,,,,53,64
66260,note_off,80,0,3,,,,,,,,1,,,,77,64
66295,note_off,115,0,8,,,,,,,,6,,,,53,64
66300,note_on,40,0,3,,,,,,,,1,,,,77,75
66300,note_on,40,0,13,,,,,,,,12,,,,57,45
66300,note_on,5,0,8,,,,,,,,6,,,,57,60
66300,note_on,40,0,4,,,,,,,,2,,,,77,60
66380,note_off,80,0,13,,,,,,,,12,,,,57,64
66415,note_off,115,0,8,,,,,,,,6,,,,57,64
66420,note_off,120,0,4,,,,,,,,2,,,,77,64
66420,note_on,0,0,3,,,,,,,,1,,,,81,75
66420,note_on,5,0,8,,,,,,,,6,,,,60,60
66420,note_on,0,0,4,,,,,,,,2,,,,81,60
66420,note_off,120,0,3,,,,,,,,1,,,,77,64
66420,note_on,40,0,13,,,,,,,,12,,,,60,45
66500,note_off,80,0,13,,,,,,,,12,,,,60,64
66500,note_off,80,0,3,,,,,,,,1,,,,81,64
66500,note_off,80,0,4,,,,,,,,2,,,,81,64
66535,note_off,115,0,8,,,,,,,,6,,,,60,64
66540,note_on,40,0,13,,,,,,,,12,,,,65,45
66540,note_on,5,0,8,,,,,,,,6,,,,65,60
66540,note_on,40,0,3,,,,,,,,1,,,,81,75
66540,note_on,40,0,4,,,,,,,,2,,,,81,60
66660,note_off,120,0,4,,,,,,,,2,,,,81,64
66660,note_on,0,0,4,,,,,,,,2,,,,77,60
66660,note_on,0,0,3,,,,,,,,1,,,,77,75
66660,note_off,120,0,3,,,,,,,,1,,,,81,64
66740,note_off,80,0,4,,,,,,,,2,,,,77,64
66740,note_off,80,0,3,,,,,,,,1,,,,77,64
66780,note_on,40,0,4,,,,,,,,2,,,,77,60
66780,note_on,40,0,3,,,,,,,,1,,,,77,75
66900,note_off,120,0,4,,,,,,,,2,,,,77,64
66900,note_on,0,0,4,,,,,,,,2,,,,72,60
66900,note_on,0,0,3,,,,,,,,1,,,,72,75
66900,note_off,120,0,3,,,,,,,,1,,,,77,64
66940,note_off,400,0,13,,,,,,,,12,,,,65,64
66940,note_off,400,0,8,,,,,,,,6,,,,65,64
66980,note_off,80,0,4,,,,,,,,2,,,,72,64
66980,note_off,80,0,3,,,,,,,,1,,,,72,64
67020,note_on,40,0,3,,,,,,,,1,,,,72,75
67020,set_tempo,4320,1,0,594059,,,,,,,,,,,,
67020,note_on,40,0,4,,,,,,,,2,,,,72,60
67140,note_on,0,0,3,,,,,,,,1,,,,69,75
67140,note_off,120,0,4,,,,,,,,2,,,,72,64
67140,note_off,120,0,3,,,,,,,,1,,,,72,64
67140,note_on,0,0,4,,,,,,,,2,,,,69,60
67140,note_on,200,0,13,,,,,,,,12,,,,53,45
67140,note_on,200,0,8,,,,,,,,6,,,,53,60
67220,note_off,80,0,13,,,,,,,,12,,,,53,64
67220,note_off,80,0,3,,,,,,,,1,,,,69,64
67220,note_off,80,0,4,,,,,,,,2,,,,69,64
67255,note_off,115,0,8,,,,,,,,6,,,,53,64
67260,note_on,40,0,13,,,,,,,,12,,,,57,45
67260,note_on,40,0,3,,,,,,,,1,,,,69,75
67260,note_on,40,0,4,,,,,,,,2,,,,69,60
67260,note_on,5,0,8,,,,,,,,6,,,,57,60
67340,note_off,80,0,13,,,,,,,,12,,,,57,64
67375,note_off,115,0,8,,,,,,,,6,,,,57,64
67380,note_off,120,0,3,,,,,,,,1,,,,69,64
67380,note_on,5,0,8,,,,,,,,6,,,,60,60
67380,note_on,0,0,3,,,,,,,,1,,,,65,75
67380,note_on,40,0,13,,,,,,,,12,,,,60,45
67380,note_off,120,0,4,,,,,,,,2,,,,69,64
67380,note_on,0,0,4,,,,,,,,2,,,,65,60
67460,note_off,80,0,3,,,,,,,,1,,,,65,64
67460,note_off,80,0,13,,,,,,,,12,,,,60,64
67460,note_off,80,0,4,,,,,,,,2,,,,65,64
67495,note_off,115,0,8,,,,,,,,6,,,,60,64
67500,note_on,40,0,4,,,,,,,,2,,,,65,60
67500,note_on,5,0,8,,,,,,,,6,,,,65,60
67500,note_on,40,0,3,,,,,,,,1,,,,65,75
67500,note_on,40,0,13,,,,,,,,12,,,,65,45
67500,set_tempo,480,1,0,631578,,,,,,,,,,,,
67620,note_on,0,0,3,,,,,,,,1,,,,60,75
67620,note_off,120,0,3,,,,,,,,1,,,,65,64
67620,note_on,0,0,4,,,,,,,,2,,,,60,60
67620,note_off,120,0,4,,,,,,,,2,,,,65,64
67700,note_off,80,0,3,,,,,,,,1,,,,60,64
67700,note_off,80,0,4,,,,,,,,2,,,,60,64
67740,note_on,40,0,4,,,,,,,,2,,,,60,60
67740,note_on,40,0,3,,,,,,,,1,,,,60,75
67860,note_on,0,0,4,,,,,,,,2,,,,57,60
67860,note_off,120,0,4,,,,,,,,2,,,,60,64
67860,note_on,0,0,3,,,,,,,,1,,,,57,75
67860,note_off,120,0,3,,,,,,,,1,,,,60,64
67900,note_off,400,0,8,,,,,,,,6,,,,65,64
67900,note_off,400,0,13,,,,,,,,12,,,,65,64
67940,note_off,80,0,3,,,,,,,,1,,,,57,64
67940,note_off,80,0,4,,,,,,,,2,,,,57,64
67980,note_on,40,0,4,,,,,,,,2,,,,60,60
67980,note_on,40,0,3,,,,,,,,1,,,,60,75
68215,note_off,235,0,3,,,,,,,,1,,,,60,64
68215,note_off,235,0,4,,,,,,,,2,,,,60,64
68220,note_on,320,0,8,,,,,,,,6,,,,53,60
68220,note_on,320,0,13,,,,,,,,12,,,,53,45
68300,note_off,80,0,13,,,,,,,,12,,,,53,64
68335,note_off,115,0,8,,,,,,,,6,,,,53,64
68340,note_on,40,0,13,,,,,,,,12,,,,48,45
68340,note_on,5,0,8,,,,,,,,6,,,,48,60
68420,note_off,80,0,13,,,,,,,,12,,,,48,64
68455,note_off,115,0,8,,,,,,,,6,,,,48,64
68460,note_on,40,0,13,,,,,,,,12,,,,45,45
68460,note_on,5,0,8,,,,,,,,6,,,,45,60
68540,note_off,80,0,13,,,,,,,,12,,,,45,64
68575,note_off,115,0,8,,,,,,,,6,,,,45,64
68580,note_on,365,0,4,,,,,,,,2,,,,89,45
68580,set_tempo,1080,1,0,618556,,,,,,,,,,,,
68580,note_on,40,0,13,,,,,,,,12,,,,41,45
68580,note_on,5,0,8,,,,,,,,6,,,,41,60
68580,note_on,365,0,3,,,,,,,,1,,,,89,60
68660,note_off,80,0,13,,,,,,,,12,,,,41,64
68695,note_off,115,0,8,,,,,,,,6,,,,41,64
68700,note_on,40,0,13,,,,,,,,12,,,,57,45
68700,note_off,120,0,3,,,,,,,,1,,,,89,64
68700,note_on,0,0,4,,,,,,,,2,,,,88,45
68700,note_off,120,0,4,,,,,,,,2,,,,89,64
68700,note_on,0,0,3,,,,,,,,1,,,,88,60
68700,note_on,5,0,8,,,,,,,,6,,,,57,60
68760,note_on,0,0,3,,,,,,,,1,,,,86,60
68760,note_on,0,0,4,,,,,,,,2,,,,86,45
68760,note_off,60,0,4,,,,,,,,2,,,,88,64
68760,note_off,60,0,3,,,,,,,,1,,,,88,64
68780,note_off,80,0,13,,,,,,,,12,,,,57,64
68815,note_off,115,0,8,,,,,,,,6,,,,57,64
68820,note_off,60,0,3,,,,,,,,1,,,,86,64
68820,note_on,40,0,13,,,,,,,,12,,,,58,45
68820,note_off,60,0,4,,,,,,,,2,,,,86,64
68820,note_on,0,0,4,,,,,,,,2,,,,84,45
68820,note_on,5,0,8,,,,,,,,6,,,,58,60
68820,note_on,0,0,3,,,,,,,,1,,,,84,60
68880,note_off,60,0,3,,,,,,,,1,,,,84,64
68880,note_off,60,0,4,,,,,,,,2,,,,84,64
68880,note_on,0,0,4,,,,,,,,2,,,,82,45
68880,note_on,0,0,3,,,,,,,,1,,,,82,60
68900,note_off,80,0,13,,,,,,,,12,,,,58,64
68935,note_off,115,0,8,,,,,,,,6,,,,58,64
68940,note_on,40,0,13,,,,,,,,12,,,,60,45
68940,note_off,60,0,3,,,,,,,,1,,,,82,64
68940,note_off,60,0,4,,,,,,,,2,,,,82,64
68940,note_on,0,0,4,,,,,,,,2,,,,81,45
68940,note_on,0,0,3,,,,,,,,1,,,,81,60
68940,note_on,5,0,8,,,,,,,,6,,,,60,60
69000,note_on,0,0,4,,,,,,,,2,,,,79,45
69000,note_off,60,0,4,,,,,,,,2,,,,81,64
69000,note_off,60,0,3,,,,,,,,1,,,,81,64
69000,note_on,0,0,3,,,,,,,,1,,,,79,60
69020,note_off,80,0,13,,,,,,,,12,,,,60,64
69055,note_off,115,0,8,,,,,,,,6,,,,60,64
69060,note_on,0,0,3,,,,,,,,1,,,,77,60
69060,note_off,60,0,3,,,,,,,,1,,,,79,64
69060,note_on,5,0,8,,,,,,,,6,,,,62,60
69060,note_on,0,0,4,,,,,,,,2,,,,77,45
69060,note_off,60,0,4,,,,,,,,2,,,,79,64
69060,note_on,40,0,13,,,,,,,,12,,,,62,45
69140,note_off,80,0,3,,,,,,,,1,,,,77,64
69140,note_off,80,0,4,,,,,,,,2,,,,77,64
69140,note_off,80,0,13,,,,,,,,12,,,,62,64
69295,note_off,235,0,8,,,,,,,,6,,,,62,64
69300,note_on,160,0,4,,,,,,,,2,,,,65,45
69300,note_on,160,0,3,,,,,,,,1,,,,65,60
69300,note_on,5,0,8,,,,,,,,6,,,,50,60
69300,note_on,160,0,13,,,,,,,,12,,,,50,45
69380,note_off,80,0,3,,,,,,,,1,,,,65,64
69380,note_off,80,0,13,,,,,,,,12,,,,50,64
69380,note_off,80,0,4,,,,,,,,2,,,,65,64
69535,note_off,235,0,8,,,,,,,,6,,,,50,64
69540,note_on,160,0,3,,,,,,,,1,,,,88,60
69540,set_tempo,960,1,0,600000,,,,,,,,,,,,
69540,note_on,5,0,8,,,,,,,,6,,,,55,60
69540,note_on,160,0,4,,,,,,,,2,,,,88,45
69540,note_on,160,0,13,,,,,,,,12,,,,55,45
69620,note_off,80,0,13,,,,,,,,12,,,,55,64
69660,note_off,120,0,4,,,,,,,,2,,,,88,64
69660,note_on,0,0,4,,,,,,,,2,,,,86,45
69660,note_off,120,0,3,,,,,,,,1,,,,88,64
69660,note_on,0,0,3,,,,,,,,1,,,,86,60
69720,note_off,60,0,4,,,,,,,,2,,,,86,64
69720,note_on,0,0,4,,,,,,,,2,,,,84,45
69720,note_on,0,0,3,,,,,,,,1,,,,84,60
69720,note_off,60,0,3,,,,,,,,1,,,,86,64
69775,note_off,235,0,8,,,,,,,,6,,,,55,64
69780,note_on,5,0,8,,,,,,,,6,,,,57,60
69780,note_off,60,0,4,,,,,,,,2,,,,84,64
69780,note_on,160,0,13,,,,,,,,12,,,,57,45
69780,note_off,60,0,3,,,,,,,,1,,,,84,64
69780,note_on,0,0,3,,,,,,,,1,,,,82,60
69780,note_on,0,0,4,,,,,,,,2,,,,82,45
69840,note_on,0,0,3,,,,,,,,1,,,,81,60
69840,note_off,60,0,3,,,,,,,,1,,,,82,64
69840,note_on,0,0,4,,,,,,,,2,,,,81,45
69840,note_off,60,0,4,,,,,,,,2,,,,82,64
69860,note_off,80,0,13,,,,,,,,12,,,,57,64
69895,note_off,115,0,8,,,,,,,,6,,,,57,64
69900,note_on,0,0,4,,,,,,,,2,,,,79,45
69900,note_off,60,0,4,,,,,,,,2,,,,81,64
69900,note_on,40,0,13,,,,,,,,12,,,,58,45
69900,note_on,5,0,8,,,,,,,,6,,,,58,60
69900,note_on,0,0,3,,,,,,,,1,,,,79,60
69900,note_off,60,0,3,,,,,,,,1,,,,81,64
69960,note_off,60,0,4,,,,,,,,2,,,,79,64
69960,note_on,0,0,4,,,,,,,,2,,,,77,45
69960,note_on,0,0,3,,,,,,,,1,,,,77,60
69960,note_off,60,0,3,,,,,,,,1,,,,79,64
69980,note_off,80,0,13,,,,,,,,12,,,,58,64
70015,note_off,115,0,8,,,,,,,,6,,,,58,64
70020,note_on,5,0,8,,,,,,,,6,,,,60,60
70020,note_off,60,0,4,,,,,,,,2,,,,77,64
70020,note_on,40,0,13,,,,,,,,12,,,,60,45
70020,note_on,0,0,4,,,,,,,,2,,,,76,45
70020,note_on,0,0,3,,,,,,,,1,,,,76,60
70020,note_off,60,0,3,,,,,,,,1,,,,77,64
70100,note_off,80,0,3,,,,,,,,1,,,,76,64
70100,note_off,80,0,13,,,,,,,,12,,,,60,64
70100,note_off,80,0,4,,,,,,,,2,,,,76,64
70255,note_off,235,0,8,,,,,,,,6,,,,60,64
70260,note_on,160,0,3,,,,,,,,1,,,,64,60
70260,note_on,5,0,8,,,,,,,,6,,,,48,60
70260,note_on,160,0,13,,,,,,,,12,,,,48,45
70260,note_on,160,0,4,,,,,,,,2,,,,64,45
70340,note_off,80,0,3,,,,,,,,1,,,,64,64
70340,note_off,80,0,4,,,,,,,,2,,,,64,64
70340,note_off,80,0,13,,,,,,,,12,,,,48,64
70495,note_off,235,0,8,,,,,,,,6,,,,48,64
70500,note_on,160,0,3,,,,,,,,1,,,,86,60
70500,set_tempo,960,1,0,582524,,,,,,,,,,,,
70500,note_on,160,0,4,,,,,,,,2,,,,86,45
70500,note_on,160,0,13,,,,,,,,12,,,,53,45
70500,note_on,5,0,8,,,,,,,,6,,,,53,60
70580,note_off,80,0,13,,,,,,,,12,,,,53,64
70620,note_off,120,0,4,,,,,,,,2,,,,86,64
70620,note_on,0,0,3,,,,,,,,1,,,,84,61
70620,note_on,0,0,4,,,,,,,,2,,,,84,46
70620,note_off,120,0,3,,,,,,,,1,,,,86,64
70680,note_on,0,0,4,,,,,,,,2,,,,82,46
70680,note_on,0,0,3,,,,,,,,1,,,,82,61
70680,note_off,60,0,3,,,,,,,,1,,,,84,64
70680,note_off,60,0,4,,,,,,,,2,,,,84,64
70735,note_off,235,0,8,,,,,,,,6,,,,53,64
70740,note_off,60,0,3,,,,,,,,1,,,,82,64
70740,note_on,0,0,3,,,,,,,,1,,,,81,61
70740,note_off,60,0,4,,,,,,,,2,,,,82,64
70740,note_on,5,0,8,,,,,,,,6,,,,55,60
70740,note_on,160,0,13,,,,,,,,12,,,,55,45
70740,note_on,0,0,4,,,,,,,,2,,,,81,46
70800,note_off,60,0,4,,,,,,,,2,,,,81,64
70800,note_on,0,0,4,,,,,,,,2,,,,79,46
70800,note_off,60,0,3,,,,,,,,1,,,,81,64
70800,note_on,0,0,3,,,,,,,,1,,,,79,61
70820,note_off,80,0,13,,,,,,,,12,,,,55,64
70855,note_off,115,0,8,,,,,,,,6,,,,55,64
70860,note_off,60,0,3,,,,,,,,1,,,,79,64
70860,note_on,5,0,8,,,,,,,,6,,,,57,60
70860,note_on,0,0,4,,,,,,,,2,,,,77,46
70860,note_off,60,0,4,,,,,,,,2,,,,79,64
70860,note_on,40,0,13,,,,,,,,12,,,,57,45
70860,note_on,0,0,3,,,,,,,,1,,,,77,61
70920,note_off,60,0,3,,,,,,,,1,,,,77,64
70920,note_on,0,0,3,,,,,,,,1,,,,76,61
70920,note_on,0,0,4,,,,,,,,2,,,,76,46
70920,note_off,60,0,4,,,,,,,,2,,,,77,64
70940,note_off,80,0,13,,,,,,,,12,,,,57,64
70975,note_off,115,0,8,,,,,,,,6,,,,57,64
70980,note_off,60,0,3,,,,,,,,1,,,,76,64
70980,note_on,5,0,8,,,,,,,,6,,,,58,60
70980,note_on,40,0,13,,,,,,,,12,,,,58,45
70980,note_on,0,0,3,,,,,,,,1,,,,74,61
70980,note_on,0,0,4,,,,,,,,2,,,,74,46
70980,note_off,60,0,4,,,,,,,,2,,,,76,64
71060,note_off,80,0,13,,,,,,,,12,,,,58,64
71060,note_off,80,0,3,,,,,,,,1,,,,74,64
71060,note_off,80,0,4,,,,,,,,2,,,,74,64
71215,note_off,235,0,8,,,,,,,,6,,,,58,64
71220,note_on,5,0,8,,,,,,,,6,,,,46,60
71220,note_on,160,0,3,,,,,,,,1,,,,62,63
71220,note_on,160,0,13,,,,,,,,12,,,,46,45
71220,note_on,160,0,4,,,,,,,,2,,,,62,48
71300,note_off,80,0,13,,,,,,,,12,,,,46,64
71300,note_off,80,0,3,,,,,,,,1,,,,62,64
71300,note_off,80,0,4,,,,,,,,2,,,,62,64
71455,note_off,235,0,8,,,,,,,,6,,,,46,64
71460,note_on,160,0,3,,,,,,,,1,,,,84,65
71460,note_on,160,0,13,,,,,,,,12,,,,52,45
71460,note_on,5,0,8,,,,,,,,6,,,,52,60
71460,note_on,160,0,4,,,,,,,,2,,,,84,50
71460,set_tempo,960,1,0,566037,,,,,,,,,,,,
71540,note_off,80,0,13,,,,,,,,12,,,,52,64
71580,note_on,0,0,3,,,,,,,,1,,,,82,66
71580,note_off,120,0,3,,,,,,,,1,,,,84,64
71580,note_off,120,0,4,,,,,,,,2,,,,84,64
71580,note_on,0,0,4,,,,,,,,2,,,,82,51
71640,note_on,0,0,3,,,,,,,,1,,,,81,66
71640,note_off,60,0,4,,,,,,,,2,,,,82,64
71640,note_on,0,0,4,,,,,,,,2,,,,81,51
71640,note_off,60,0,3,,,,,,,,1,,,,82,64
71695,note_off,235,0,8,,,,,,,,6,,,,52,64
71700,note_on,5,0,8,,,,,,,,6,,,,53,60
71700,note_off,60,0,4,,,,,,,,2,,,,81,64
71700,note_on,0,0,4,,,,,,,,2,,,,79,51
71700,note_on,160,0,13,,,,,,,,12,,,,53,45
71700,note_off,60,0,3,,,,,,,,1,,,,81,64
71700,note_on,0,0,3,,,,,,,,1,,,,79,66
71760,note_on,0,0,3,,,,,,,,1,,,,77,66
71760,note_off,60,0,3,,,,,,,,1,,,,79,64
71760,note_on,0,0,4,,,,,,,,2,,,,77,51
71760,note_off,60,0,4,,,,,,,,2,,,,79,64
71780,note_off,80,0,13,,,,,,,,12,,,,53,64
71815,note_off,115,0,8,,,,,,,,6,,,,53,64
71820,note_on,0,0,4,,,,,,,,2,,,,76,51
71820,note_off,60,0,4,,,,,,,,2,,,,77,64
71820,note_on,0,0,3,,,,,,,,1,,,,76,66
71820,note_off,60,0,3,,,,,,,,1,,,,77,64
71820,note_on,40,0,13,,,,,,,,12,,,,55,45
71820,note_on,5,0,8,,,,,,,,6,,,,55,60
71880,note_off,60,0,3,,,,,,,,1,,,,76,64
71880,note_on,0,0,4,,,,,,,,2,,,,74,51
71880,note_off,60,0,4,,,,,,,,2,,,,76,64
71880,note_on,0,0,3,,,,,,,,1,,,,74,66
71900,note_off,80,0,13,,,,,,,,12,,,,55,64
71935,note_off,115,0,8,,,,,,,,6,,,,55,64
71940,note_off,60,0,4,,,,,,,,2,,,,74,64
71940,note_on,5,0,8,,,,,,,,6,,,,57,60
71940,note_off,60,0,3,,,,,,,,1,,,,74,64
71940,note_on,0,0,3,,,,,,,,1,,,,72,66
71940,note_on,0,0,4,,,,,,,,2,,,,72,51
71940,note_on,40,0,13,,,,,,,,12,,,,57,45
72020,note_off,80,0,3,,,,,,,,1,,,,72,64
72020,note_off,80,0,13,,,,,,,,12,,,,57,64
72020,note_off,80,0,4,,,,,,,,2,,,,72,64
72175,note_off,235,0,8,,,,,,,,6,,,,57,64
72180,note_on,160,0,13,,,,,,,,12,,,,45,45
72180,note_on,160,0,4,,,,,,,,2,,,,60,53
72180,note_on,160,0,3,,,,,,,,1,,,,60,68
72180,note_on,5,0,8,,,,,,,,6,,,,45,60
72260,note_off,80,0,13,,,,,,,,12,,,,45,64
72260,note_off,80,0,3,,,,,,,,1,,,,60,64
72260,note_off,80,0,4,,,,,,,,2,,,,60,64
72415,note_off,235,0,8,,,,,,,,6,,,,45,64
72420,note_on,160,0,3,,,,,,,,1,,,,82,71
72420,set_tempo,960,1,0,550458,,,,,,,,,,,,
72420,note_on,5,0,8,,,,,,,,6,,,,50,60
72420,note_on,160,0,4,,,,,,,,2,,,,82,55
72420,note_on,160,0,13,,,,,,,,12,,,,50,45
72500,note_off,80,0,13,,,,,,,,12,,,,50,64
72540,note_off,120,0,4,,,,,,,,2,,,,82,64
72540,note_on,0,0,3,,,,,,,,1,,,,81,72
72540,note_off,120,0,3,,,,,,,,1,,,,82,64
72540,note_on,0,0,4,,,,,,,,2,,,,81,56
72600,note_off,60,0,3,,,,,,,,1,,,,81,64
72600,note_on,0,0,3,,,,,,,,1,,,,79,72
72600,note_off,60,0,4,,,,,,,,2,,,,81,64
72600,note_on,0,0,4,,,,,,,,2,,,,79,56
72655,note_off,235,0,8,,,,,,,,6,,,,50,64
72660,note_on,160,0,13,,,,,,,,12,,,,52,45
72660,note_off,60,0,3,,,,,,,,1,,,,79,64
72660,note_on,0,0,4,,,,,,,,2,,,,77,56
72660,note_off,60,0,4,,,,,,,,2,,,,79,64
72660,note_on,0,0,3,,,,,,,,1,,,,77,72
72660,note_on,5,0,8,,,,,,,,6,,,,52,60
72720,note_on,0,0,3,,,,,,,,1,,,,76,72
72720,note_off,60,0,3,,,,,,,,1,,,,77,64
72720,note_on,0,0,4,,,,,,,,2,,,,76,56
72720,note_off,60,0,4,,,,,,,,2,,,,77,64
72740,note_off,80,0,13,,,,,,,,12,,,,52,64
72775,note_off,115,0,8,,,,,,,,6,,,,52,64
72780,note_on,40,0,13,,,,,,,,12,,,,53,45
72780,note_off,60,0,3,,,,,,,,1,,,,76,64
72780,note_off,60,0,4,,,,,,,,2,,,,76,64
72780,note_on,0,0,4,,,,,,,,2,,,,74,56
72780,note_on,5,0,8,,,,,,,,6,,,,53,60
72780,note_on,0,0,3,,,,,,,,1,,,,74,72
72840,note_on,0,0,3,,,,,,,,1,,,,72,72
72840,note_off,60,0,4,,,,,,,,2,,,,74,64
72840,note_on,0,0,4,,,,,,,,2,,,,72,56
72840,note_off,60,0,3,,,,,,,,1,,,,74,64
72860,note_off,80,0,13,,,,,,,,12,,,,53,64
72895,note_off,115,0,8,,,,,,,,6,,,,53,64
72900,note_on,5,0,8,,,,,,,,6,,,,55,60
72900,note_on,40,0,13,,,,,,,,12,,,,55,45
72900,note_on,0,0,3,,,,,,,,1,,,,70,72
72900,note_off,60,0,3,,,,,,,,1,,,,72,64
72900,note_on,0,0,4,,,,,,,,2,,,,70,56
72900,note_off,60,0,4,,,,,,,,2,,,,72,64
72980,note_off,80,0,3,,,,,,,,1,,,,70,64
72980,note_off,80,0,4,,,,,,,,2,,,,70,64
72980,note_off,80,0,13,,,,,,,,12,,,,55,64
73135,note_off,235,0,8,,,,,,,,6,,,,55,64
73140,note_on,160,0,3,,,,,,,,1,,,,58,76
73140,note_on,5,0,8,,,,,,,,6,,,,43,60
73140,note_on,160,0,4,,,,,,,,2,,,,58,59
73140,note_on,160,0,13,,,,,,,,12,,,,43,45
73220,note_off,80,0,4,,,,,,,,2,,,,58,64
73220,note_off,80,0,3,,,,,,,,1,,,,58,64
73220,note_off,80,0,13,,,,,,,,12,,,,43,64
73375,note_off,235,0,8,,,,,,,,6,,,,43,64
73380,note_on,160,0,4,,,,,,,,2,,,,81,63
73380,note_on,160,0,13,,,,,,,,12,,,,48,45
73380,note_on,160,0,3,,,,,,,,1,,,,81,80
73380,set_tempo,960,1,0,521739,,,,,,,,,,,,
73380,note_on,5,0,8,,,,,,,,6,,,,48,60
73460,note_off,80,0,13,,,,,,,,12,,,,48,64
73500,note_on,0,0,3,,,,,,,,1,,,,79,82
73500,note_on,0,0,4,,,,,,,,2,,,,79,65
73500,note_off,120,0,4,,,,,,,,2,,,,81,64
73500,note_off,120,0,3,,,,,,,,1,,,,81,64
73560,note_on,0,0,4,,,,,,,,2,,,,77,66
73560,note_off,60,0,4,,,,,,,,2,,,,79,64
73560,note_on,0,0,3,,,,,,,,1,,,,77,83
73560,note_off,60,0,3,,,,,,,,1,,,,79,64
73615,note_off,235,0,8,,,,,,,,6,,,,48,64
73620,note_on,0,0,4,,,,,,,,2,,,,76,67
73620,note_off,60,0,4,,,,,,,,2,,,,77,64
73620,note_off,60,0,3,,,,,,,,1,,,,77,64
73620,note_on,5,0,8,,,,,,,,6,,,,50,60
73620,note_on,160,0,13,,,,,,,,12,,,,50,45
73620,note_on,0,0,3,,,,,,,,1,,,,76,84
73680,note_on,0,0,4,,,,,,,,2,,,,74,68
73680,note_off,60,0,4,,,,,,,,2,,,,76,64
73680,note_off,60,0,3,,,,,,,,1,,,,76,64
73680,note_on,0,0,3,,,,,,,,1,,,,74,85
73700,note_off,80,0,13,,,,,,,,12,,,,50,64
73735,note_off,115,0,8,,,,,,,,6,,,,50,64
73740,note_on,0,0,4,,,,,,,,2,,,,72,69
73740,note_on,40,0,13,,,,,,,,12,,,,52,45
73740,note_on,0,0,3,,,,,,,,1,,,,72,86
73740,note_off,60,0,3,,,,,,,,1,,,,74,64
73740,note_on,5,0,8,,,,,,,,6,,,,52,60
73740,note_off,60,0,4,,,,,,,,2,,,,74,64
73800,note_off,60,0,3,,,,,,,,1,,,,72,64
73800,note_on,0,0,3,,,,,,,,1,,,,70,87
73800,note_on,0,0,4,,,,,,,,2,,,,70,70
73800,note_off,60,0,4,,,,,,,,2,,,,72,64
73820,note_off,80,0,13,,,,,,,,12,,,,52,64
73855,note_off,115,0,8,,,,,,,,6,,,,52,64
73860,note_on,5,0,8,,,,,,,,6,,,,53,60
73860,note_on,0,0,3,,,,,,,,1,,,,69,88
73860,set_tempo,480,1,0,512820,,,,,,,,,,,,
73860,note_off,60,0,3,,,,,,,,1,,,,70,64
73860,note_on,0,0,4,,,,,,,,2,,,,69,71
73860,note_on,40,0,13,,,,,,,,12,,,,53,45
73860,note_off,60,0,4,,,,,,,,2,,,,70,64
73940,note_off,80,0,13,,,,,,,,12,,,,53,64
73940,note_off,80,0,4,,,,,,,,2,,,,69,64
73940,note_off,80,0,3,,,,,,,,1,,,,69,64
74095,note_off,235,0,8,,,,,,,,6,,,,53,64
74100,note_on,160,0,13,,,,,,,,12,,,,41,45
74100,note_on,160,0,4,,,,,,,,2,,,,57,75
74100,note_on,5,0,8,,,,,,,,6,,,,41,60
74100,note_on,160,0,3,,,,,,,,1,,,,57,92
74180,note_off,80,0,3,,,,,,,,1,,,,57,64
74180,note_off,80,0,4,,,,,,,,2,,,,57,64
74180,note_off,80,0,13,,,,,,,,12,,,,41,64
74335,note_off,235,0,8,,,,,,,,6,,,,41,64
74340,note_on,13400,0,10,,,,,,,,8,,,,69,75
74340,set_tempo,480,1,0,500000,,,,,,,,,,,,
74340,note_on,13400,0,11,,,,,,,,10,,,,77,75
74340,note_on,13400,0,5,,,,,,,,3,,,,69,92
74340,note_on,0,0,5,,,,,,,,3,,,,81,92
74340,note_on,0,0,10,,,,,,,,8,,,,81,75
74340,note_on,160,0,13,,,,,,,,12,,,,53,75
74340,note_on,13400,0,12,,,,,,,,11,,,,72,75
74340,note_on,5,0,8,,,,,,,,6,,,,53,92
74340,note_on,13400,0,6,,,,,,,,4,,,,77,92
74340,note_on,13400,0,9,,,,,,,,7,,,,41,92
74340,note_on,13400,0,15,,,,,,,,14,,,,41,60
74340,note_on,13400,0,7,,,,,,,,5,,,,72,92
74340,note_on,13400,0,14,,,,,,,,13,,,,41,75
74420,note_off,80,0,5,,,,,,,,3,,,,81,64
74420,note_off,0,0,5,,,,,,,,3,,,,69,64
74420,note_off,80,0,11,,,,,,,,10,,,,77,64
74420,note_off,80,0,9,,,,,,,,7,,,,41,64
74420,note_off,80,0,10,,,,,,,,8,,,,81,64
74420,note_off,80,0,14,,,,,,,,13,,,,41,64
74420,note_off,80,0,13,,,,,,,,12,,,,53,64
74420,note_off,0,0,10,,,,,,,,8,,,,69,64
74420,note_off,80,0,7,,,,,,,,5,,,,72,64
74420,note_off,80,0,8,,,,,,,,6,,,,53,64
74420,note_off,80,0,12,,,,,,,,11,,,,72,64
74420,note_off,80,0,6,,,,,,,,4,,,,77,64
74580,note_on,160,0,14,,,,,,,,13,,,,41,75
74580,note_on,0,0,10,,,,,,,,8,,,,81,75
74580,note_on,160,0,10,,,,,,,,8,,,,69,75
74580,note_on,160,0,5,,,,,,,,3,,,,69,92
74580,note_on,0,0,5,,,,,,,,3,,,,81,92
74580,note_on,160,0,13,,,,,,,,12,,,,53,75
74580,note_on,160,0,8,,,,,,,,6,,,,53,92
74580,note_on,160,0,11,,,,,,,,10,,,,77,75
74580,note_on,160,0,12,,,,,,,,11,,,,72,75
74580,note_on,160,0,6,,,,,,,,4,,,,77,92
74580,note_on,160,0,9,,,,,,,,7,,,,41,92
74580,note_on,160,0,7,,,,,,,,5,,,,72,92
74660,note_off,0,0,10,,,,,,,,8,,,,69,64
74660,note_off,0,0,5,,,,,,,,3,,,,69,64
74660,note_off,80,0,5,,,,,,,,3,,,,81,64
74660,note_off,80,0,8,,,,,,,,6,,,,53,64
74660,note_off,80,0,9,,,,,,,,7,,,,41,64
74660,note_off,80,0,7,,,,,,,,5,,,,72,64
74660,note_off,80,0,12,,,,,,,,11,,,,72,64
74660,note_off,80,0,10,,,,,,,,8,,,,81,64
74660,note_off,80,0,11,,,,,,,,10,,,,77,64
74660,note_off,80,0,6,,,,,,,,4,,,,77,64
74660,note_off,80,0,13,,,,,,,,12,,,,53,64
74660,note_off,80,0,14,,,,,,,,13,,,,41,64
74740,note_off,400,0,15,,,,,,,,14,,,,41,64
74820,note_on,160,0,6,,,,,,,,4,,,,77,92
74820,note_on,0,0,10,,,,,,,,8,,,,81,75
74820,note_on,160,0,5,,,,,,,,3,,,,69,92
74820,note_on,160,0,14,,,,,,,,13,,,,41,75
74820,note_on,160,0,11,,,,,,,,10,,,,77,75
74820,note_on,160,0,8,,,,,,,,6,,,,53,92
74820,note_on,160,0,12,,,,,,,,11,,,,72,75
74820,note_on,0,0,5,,,,,,,,3,,,,81,92
74820,note_on,160,0,13,,,,,,,,12,,,,53,75
74820,note_on,160,0,7,,,,,,,,5,,,,72,92
74820,note_on,160,0,9,,,,,,,,7,,,,41,92
74820,note_on,160,0,10,,,,,,,,8,,,,69,75
74900,note_off,0,0,10,,,,,,,,8,,,,69,64
74900,note_off,80,0,10,,,,,,,,8,,,,81,64
74900,note_off,80,0,13,,,,,,,,12,,,,53,64
74900,note_off,80,0,8,,,,,,,,6,,,,53,64
74900,note_off,80,0,12,,,,,,,,11,,,,72,64
74900,note_off,80,0,9,,,,,,,,7,,,,41,64
74900,note_off,80,0,14,,,,,,,,13,,,,41,64
74900,note_off,80,0,7,,,,,,,,5,,,,72,64
74900,note_off,80,0,6,,,,,,,,4,,,,77,64
74900,note_off,80,0,11,,,,,,,,10,,,,77,64
74900,note_off,80,0,5,,,,,,,,3,,,,81,64
74900,note_off,0,0,5,,,,,,,,3,,,,69,64
75060,note_on,160,0,5,,,,,,,,3,,,,70,92
75060,note_on,160,0,9,,,,,,,,7,,,,36,92
75060,note_on,160,0,7,,,,,,,,5,,,,64,92
75060,note_on,160,0,6,,,,,,,,4,,,,79,92
75060,note_on,160,0,11,,,,,,,,10,,,,79,75
75060,note_on,160,0,13,,,,,,,,12,,,,48,75
75060,note_on,0,0,5,,,,,,,,3,,,,82,92
75060,note_on,160,0,12,,,,,,,,11,,,,64,75
75060,note_on,320,0,15,,,,,,,,14,,,,36,60
75060,note_on,160,0,14,,,,,,,,13,,,,36,75
75060,note_on,160,0,10,,,,,,,,8,,,,70,75
75060,note_on,0,0,10,,,,,,,,8,,,,82,75
75060,note_on,160,0,8,,,,,,,,6,,,,48,92
75140,note_off,80,0,13,,,,,,,,12,,,,48,64
75140,note_off,80,0,14,,,,,,,,13,,,,36,64
75140,note_off,80,0,8,,,,,,,,6,,,,48,64
75140,note_off,80,0,11,,,,,,,,10,,,,79,64
75140,note_off,80,0,7,,,,,,,,5,,,,64,64
75140,note_off,80,0,6,,,,,,,,4,,,,79,64
75140,note_off,80,0,10,,,,,,,,8,,,,82,64
75140,note_off,80,0,12,,,,,,,,11,,,,64,64
75140,note_off,0,0,5,,,,,,,,3,,,,70,64
75140,note_off,80,0,9,,,,,,,,7,,,,36,64
75140,note_off,0,0,10,,,,,,,,8,,,,70,64
75140,note_off,80,0,5,,,,,,,,3,,,,82,64
75295,note_off,235,0,15,,,,,,,,14,,,,36,64
75300,note_on,160,0,7,,,,,,,,5,,,,60,92
75300,note_on,160,0,8,,,,,,,,6,,,,53,92
75300,note_on,160,0,14,,,,,,,,13,,,,41,75
75300,note_on,160,0,10,,,,,,,,8,,,,69,75
75300,note_on,0,0,10,,,,,,,,8,,,,81,75
75300,set_tempo,960,1,0,545454,,,,,,,,,,,,
75300,note_on,160,0,13,,,,,,,,12,,,,53,75
75300,note_on,5,0,15,,,,,,,,14,,,,41,60
75300,note_on,1120,0,4,,,,,,,,2,,,,72,75
75300,note_on,160,0,11,,,,,,,,10,,,,77,75
75300,note_on,1120,0,3,,,,,,,,1,,,,72,92
75300,note_on,160,0,6,,,,,,,,4,,,,77,92
75300,note_on,0,0,5,,,,,,,,3,,,,81,92
75300,note_on,160,0,12,,,,,,,,11,,,,60,75
75300,note_on,160,0,9,,,,,,,,7,,,,41,92
75300,note_on,160,0,5,,,,,,,,3,,,,69,92
75380,note_off,80,0,4,,,,,,,,2,,,,72,64
75380,note_on,0,0,4,,,,,,,,2,,,,74,75
75380,note_off,80,0,3,,,,,,,,1,,,,72,64
75380,note_on,0,0,3,,,,,,,,1,,,,74,92
75460,note_off,80,0,4,,,,,,,,2,,,,74,64
75460,note_on,0,0,4,,,,,,,,2,,,,72,75
75460,note_on,0,0,3,,,,,,,,1,,,,72,92
75460,note_off,80,0,3,,,,,,,,1,,,,74,64
75512,note_off,52,0,3,,,,,,,,1,,,,72,64
75512,note_off,52,0,4,,,,,,,,2,,,,72,64
75540,note_on,28,0,4,,,,,,,,2,,,,77,75
75540,note_on,28,0,3,,,,,,,,1,,,,77,92
75620,note_off,80,0,3,,,,,,,,1,,,,77,64
75620,note_on,0,0,3,,,,,,,,1,,,,79,92
75620,note_on,0,0,4,,,,,,,,2,,,,79,75
75620,note_off,80,0,4,,,,,,,,2,,,,77,64
75700,note_off,400,0,13,,,,,,,,12,,,,53,64
75700,note_off,0,0,5,,,,,,,,3,,,,69,64
75700,note_off,400,0,5,,,,,,,,3,,,,81,64
75700,note_off,400,0,9,,,,,,,,7,,,,41,64
75700,note_off,400,0,12,,,,,,,,11,,,,60,64
75700,note_off,400,0,15,,,,,,,,14,,,,41,64
75700,note_on,0,0,4,,,,,,,,2,,,,77,75
75700,note_off,80,0,4,,,,,,,,2,,,,79,64
75700,note_off,400,0,11,,,,,,,,10,,,,77,64
75700,note_off,400,0,8,,,,,,,,6,,,,53,64
75700,note_off,400,0,14,,,,,,,,13,,,,41,64
75700,note_off,400,0,7,,,,,,,,5,,,,60,64
75700,note_off,400,0,6,,,,,,,,4,,,,77,64
75700,note_off,0,0,10,,,,,,,,8,,,,69,64
75700,note_off,400,0,10,,,,,,,,8,,,,81,64
75700,note_on,0,0,3,,,,,,,,1,,,,77,92
75700,note_off,80,0,3,,,,,,,,1,,,,79,64
75752,note_off,52,0,3,,,,,,,,1,,,,77,64
75752,note_off,52,0,4,,,,,,,,2,,,,77,64
75780,note_on,28,0,4,,,,,,,,2,,,,79,75
75780,note_on,28,0,3,,,,,,,,1,,,,79,92
75860,note_on,0,0,3,,,,,,,,1,,,,81,92
75860,note_off,80,0,4,,,,,,,,2,,,,79,64
75860,note_off,80,0,3,,,,,,,,1,,,,79,64
75860,note_on,0,0,4,,,,,,,,2,,,,81,75
75940,note_off,80,0,4,,,,,,,,2,,,,81,64
75940,note_on,0,0,4,,,,,,,,2,,,,79,75
75940,note_off,80,0,3,,,,,,,,1,,,,81,64
75940,note_on,0,0,3,,,,,,,,1,,,,79,92
75992,note_off,52,0,3,,,,,,,,1,,,,79,64
75992,note_off,52,0,4,,,,,,,,2,,,,79,64
76020,note_on,28,0,3,,,,,,,,1,,,,81,92
76020,note_on,28,0,4,,,,,,,,2,,,,81,75
76100,note_on,0,0,3,,,,,,,,1,,,,82,92
76100,note_off,80,0,3,,,,,,,,1,,,,81,64
76100,note_on,0,0,4,,,,,,,,2,,,,82,75
76100,note_off,80,0,4,,,,,,,,2,,,,81,64
76180,note_on,0,0,3,,,,,,,,1,,,,81,92
76180,note_off,80,0,3,,,,,,,,1,,,,82,64
76180,note_off,80,0,4,,,,,,,,2,,,,82,64
76180,note_on,0,0,4,,,,,,,,2,,,,81,75
76232,note_off,52,0,4,,,,,,,,2,,,,81,64
76232,note_off,52,0,3,,,,,,,,1,,,,81,64
76260,note_on,28,0,4,,,,,,,,2,,,,82,75
76260,note_on,28,0,3,,,,,,,,1,,,,82,92
76340,note_on,0,0,3,,,,,,,,1,,,,84,92
76340,note_off,80,0,4,,,,,,,,2,,,,82,64
76340,note_on,0,0,4,,,,,,,,2,,,,84,75
76340,note_off,80,0,3,,,,,,,,1,,,,82,64
76420,note_off,80,0,3,,,,,,,,1,,,,84,64
76420,note_on,0,0,3,,,,,,,,1,,,,82,92
76420,note_off,80,0,4,,,,,,,,2,,,,84,64
76420,note_on,0,0,4,,,,,,,,2,,,,82,75
76472,note_off,52,0,4,,,,,,,,2,,,,82,64
76472,note_off,52,0,3,,,,,,,,1,,,,82,64
76500,note_on,28,0,3,,,,,,,,1,,,,84,92
76500,note_on,28,0,4,,,,,,,,2,,,,84,75
76580,note_off,80,0,3,,,,,,,,1,,,,84,64
76580,note_on,0,0,3,,,,,,,,1,,,,86,92
76580,note_on,0,0,4,,,,,,,,2,,,,86,75
76580,note_off,80,0,4,,,,,,,,2,,,,84,64
76660,note_on,0,0,4,,,,,,,,2,,,,84,75
76660,note_off,80,0,4,,,,,,,,2,,,,86,64
76660,note_on,0,0,3,,,,,,,,1,,,,84,92
76660,note_off,80,0,3,,,,,,,,1,,,,86,64
76712,note_off,52,0,3,,,,,,,,1,,,,84,64
76712,note_off,52,0,4,,,,,,,,2,,,,84,64
76740,note_on,28,0,3,,,,,,,,1,,,,86,92
76740,note_on,28,0,4,,,,,,,,2,,,,86,75
76820,note_off,80,0,4,,,,,,,,2,,,,86,64
76820,note_on,0,0,3,,,,,,,,1,,,,88,92
76820,note_on,0,0,4,,,,,,,,2,,,,88,75
76820,note_off,80,0,3,,,,,,,,1,,,,86,64
76900,note_off,80,0,3,,,,,,,,1,,,,88,64
76900,note_on,0,0,3,,,,,,,,1,,,,86,92
76900,note_on,0,0,4,,,,,,,,2,,,,86,75
76900,note_off,80,0,4,,,,,,,,2,,,,88,64
76952,note_off,52,0,4,,,,,,,,2,,,,86,64
76952,note_off,52,0,3,,,,,,,,1,,,,86,64
76980,note_on,28,0,4,,,,,,,,2,,,,88,75
76980,note_on,28,0,3,,,,,,,,1,,,,88,92
77060,note_off,80,0,4,,,,,,,,2,,,,88,64
77060,note_on,0,0,4,,,,,,,,2,,,,89,75
77060,note_on,0,0,3,,,,,,,,1,,,,89,92
77060,note_off,80,0,3,,,,,,,,1,,,,88,64
77140,note_off,80,0,4,,,,,,,,2,,,,89,64
77140,note_on,0,0,4,,,,,,,,2,,,,88,75
77140,note_off,80,0,3,,,,,,,,1,,,,89,64
77140,note_on,0,0,3,,,,,,,,1,,,,88,92
77192,note_off,52,0,3,,,,,,,,1,,,,88,64
77192,note_off,52,0,4,,,,,,,,2,,,,88,64
77220,note_on,1520,0,6,,,,,,,,4,,,,77,92
77220,note_on,28,0,3,,,,,,,,1,,,,89,75
77220,note_on,1520,0,7,,,,,,,,5,,,,72,92
77220,note_on,1520,0,8,,,,,,,,6,,,,53,92
77220,note_on,0,0,5,,,,,,,,3,,,,81,92
77220,note_on,1520,0,5,,,,,,,,3,,,,69,92
77220,note_on,0,0,10,,,,,,,,8,,,,81,75
77220,note_on,1520,0,14,,,,,,,,13,,,,41,75
77220,note_on,1520,0,13,,,,,,,,12,,,,53,75
77220,note_on,1520,0,15,,,,,,,,14,,,,41,60
77220,note_on,1520,0,12,,,,,,,,11,,,,72,75
77220,note_on,1520,0,9,,,,,,,,7,,,,41,92
77220,note_on,28,0,4,,,,,,,,2,,,,89,60
77220,note_on,1520,0,11,,,,,,,,10,,,,77,75
77220,set_tempo,1920,1,0,500000,,,,,,,,,,,,
77220,note_on,1520,0,10,,,,,,,,8,,,,69,75
77300,note_off,80,0,5,,,,,,,,3,,,,81,64
77300,note_off,80,0,14,,,,,,,,13,,,,41,64
77300,note_off,80,0,12,,,,,,,,11,,,,72,64
77300,note_off,80,0,9,,,,,,,,7,,,,41,64
77300,note_off,0,0,5,,,,,,,,3,,,,69,64
77300,note_off,80,0,11,,,,,,,,10,,,,77,64
77300,note_off,80,0,6,,,,,,,,4,,,,77,64
77300,note_off,0,0,10,,,,,,,,8,,,,69,64
77300,note_off,80,0,8,,,,,,,,6,,,,53,64
77300,note_off,80,0,13,,,,,,,,12,,,,53,64
77300,note_off,80,0,10,,,,,,,,8,,,,81,64
77300,note_off,80,0,7,,,,,,,,5,,,,72,64
77460,note_on,160,0,5,,,,,,,,3,,,,69,92
77460,note_on,0,0,10,,,,,,,,8,,,,81,75
77460,note_on,160,0,10,,,,,,,,8,,,,69,75
77460,note_on,160,0,12,,,,,,,,11,,,,72,75
77460,note_on,160,0,13,,,,,,,,12,,,,53,75
77460,note_on,160,0,14,,,,,,,,13,,,,41,75
77460,note_on,160,0,8,,,,,,,,6,,,,53,92
77460,note_on,160,0,11,,,,,,,,10,,,,77,75
77460,note_on,0,0,5,,,,,,,,3,,,,81,92
77460,note_on,160,0,9,,,,,,,,7,,,,41,92
77460,note_on,160,0,6,,,,,,,,4,,,,77,92
77460,note_on,160,0,7,,,,,,,,5,,,,72,92
77540,note_off,80,0,11,,,,,,,,10,,,,77,64
77540,note_off,0,0,10,,,,,,,,8,,,,69,64
77540,note_off,80,0,10,,,,,,,,8,,,,81,64
77540,note_off,80,0,6,,,,,,,,4,,,,77,64
77540,note_off,80,0,9,,,,,,,,7,,,,41,64
77540,note_off,80,0,12,,,,,,,,11,,,,72,64
77540,note_off,80,0,14,,,,,,,,13,,,,41,64
77540,note_off,0,0,5,,,,,,,,3,,,,69,64
77540,note_off,80,0,13,,,,,,,,12,,,,53,64
77540,note_off,80,0,7,,,,,,,,5,,,,72,64
77540,note_off,80,0,8,,,,,,,,6,,,,53,64
77540,note_off,80,0,5,,,,,,,,3,,,,81,64
77620,note_off,400,0,4,,,,,,,,2,,,,89,64
77620,note_off,400,0,15,,,,,,,,14,,,,41,64
77620,note_off,400,0,3,,,,,,,,1,,,,89,64
77700,note_on,160,0,8,,,,,,,,6,,,,53,92
77700,note_on,160,0,10,,,,,,,,8,,,,69,75
77700,note_on,160,0,14,,,,,,,,13,,,,41,75
77700,note_on,160,0,6,,,,,,,,4,,,,77,92
77700,note_on,160,0,7,,,,,,,,5,,,,72,92
77700,note_on,160,0,9,,,,,,,,7,,,,41,92
77700,note_on,160,0,5,,,,,,,,3,,,,69,92
77700,note_on,160,0,13,,,,,,,,12,,,,53,75
77700,note_on,0,0,5,,,,,,,,3,,,,81,92
77700,note_on,0,0,10,,,,,,,,8,,,,81,75
77700,note_on,160,0,12,,,,,,,,11,,,,72,75
77700,note_on,160,0,11,,,,,,,,10,,,,77,75
77780,note_off,80,0,11,,,,,,,,10,,,,77,64
77780,note_off,80,0,12,,,,,,,,11,,,,72,64
77780,note_off,80,0,7,,,,,,,,5,,,,72,64
77780,note_off,80,0,9,,,,,,,,7,,,,41,64
77780,note_off,0,0,10,,,,,,,,8,,,,69,64
77780,note_off,80,0,10,,,,,,,,8,,,,81,64
77780,note_off,80,0,13,,,,,,,,12,,,,53,64
77780,note_off,80,0,8,,,,,,,,6,,,,53,64
77780,note_off,80,0,5,,,,,,,,3,,,,81,64
77780,note_off,0,0,5,,,,,,,,3,,,,69,64
77780,note_off,80,0,6,,,,,,,,4,,,,77,64
77780,note_off,80,0,14,,,,,,,,13,,,,41,64
77940,note_on,160,0,5,,,,,,,,3,,,,70,92
77940,note_on,160,0,10,,,,,,,,8,,,,70,75
77940,note_on,0,0,10,,,,,,,,8,,,,82,75
77940,note_on,160,0,9,,,,,,,,7,,,,36,92
77940,note_on,160,0,12,,,,,,,,11,,,,64,75
77940,note_on,160,0,6,,,,,,,,4,,,,79,92
77940,note_on,160,0,13,,,,,,,,12,,,,48,75
77940,note_on,160,0,7,,,,,,,,5,,,,64,92
77940,note_on,160,0,14,,,,,,,,13,,,,36,75
77940,note_on,0,0,5,,,,,,,,3,,,,82,92
77940,note_on,160,0,11,,,,,,,,10,,,,79,75
77940,note_on,160,0,8,,,,,,,,6,,,,48,92
77940,note_on,320,0,15,,,,,,,,14,,,,36,60
78020,note_off,80,0,11,,,,,,,,10,,,,79,64
78020,note_off,0,0,10,,,,,,,,8,,,,70,64
78020,note_off,80,0,8,,,,,,,,6,,,,48,64
78020,note_off,80,0,12,,,,,,,,11,,,,64,64
78020,note_off,80,0,14,,,,,,,,13,,,,36,64
78020,note_off,80,0,10,,,,,,,,8,,,,82,64
78020,note_off,80,0,6,,,,,,,,4,,,,79,64
78020,note_off,80,0,5,,,,,,,,3,,,,82,64
78020,note_off,0,0,5,,,,,,,,3,,,,70,64
78020,note_off,80,0,7,,,,,,,,5,,,,64,64
78020,note_off,80,0,13,,,,,,,,12,,,,48,64
78020,note_off,80,0,9,,,,,,,,7,,,,36,64
78175,note_off,235,0,15,,,,,,,,14,,,,36,64
78180,note_on,160,0,13,,,,,,,,12,,,,53,75
78180,note_on,160,0,8,,,,,,,,6,,,,53,92
78180,note_on,0,0,5,,,,,,,,3,,,,81,92
78180,set_tempo,960,1,0,545454,,,,,,,,,,,,
78180,note_on,0,0,10,,,,,,,,8,,,,81,75
78180,note_on,560,0,4,,,,,,,,2,,,,81,75
78180,note_on,160,0,10,,,,,,,,8,,,,69,75
78180,note_on,160,0,7,,,,,,,,5,,,,60,92
78180,note_on,560,0,3,,,,,,,,1,,,,81,92
78180,note_on,160,0,11,,,,,,,,10,,,,77,75
78180,note_on,160,0,14,,,,,,,,13,,,,41,75
78180,note_on,160,0,6,,,,,,,,4,,,,77,92
78180,note_on,160,0,5,,,,,,,,3,,,,69,92
78180,note_on,5,0,15,,,,,,,,14,,,,41,60
78180,note_on,160,0,9,,,,,,,,7,,,,41,92
78180,note_on,160,0,12,,,,,,,,11,,,,60,75
78420,note_on,0,0,3,,,,,,,,1,,,,79,92
78420,note_off,240,0,3,,,,,,,,1,,,,81,64
78420,note_off,240,0,4,,,,,,,,2,,,,81,64
78420,set_tempo,240,1,0,512820,,,,,,,,,,,,
78420,note_on,0,0,4,,,,,,,,2,,,,79,75
78480,note_on,0,0,3,,,,,,,,1,,,,77,92
78480,note_off,60,0,3,,,,,,,,1,,,,79,64
78480,note_on,0,0,4,,,,,,,,2,,,,77,75
78480,note_off,60,0,4,,,,,,,,2,,,,79,64
78540,note_off,60,0,4,,,,,,,,2,,,,77,64
78540,note_off,60,0,3,,,,,,,,1,,,,77,64
78540,note_on,0,0,3,,,,,,,,1,,,,76,92
78540,note_on,0,0,4,,,,,,,,2,,,,76,75
78580,note_off,400,0,12,,,,,,,,11,,,,60,64
78580,note_off,400,0,6,,,,,,,,4,,,,77,64
78580,note_off,400,0,7,,,,,,,,5,,,,60,64
78580,note_off,400,0,15,,,,,,,,14,,,,41,64
78580,note_off,400,0,14,,,,,,,,13,,,,41,64
78580,note_off,0,0,5,,,,,,,,3,,,,69,64
78580,note_off,0,0,10,,,,,,,,8,,,,69,64
78580,note_off,400,0,10,,,,,,,,8,,,,81,64
78580,note_off,400,0,8,,,,,,,,6,,,,53,64
78580,note_off,400,0,9,,,,,,,,7,,,,41,64
78580,note_off,400,0,5,,,,,,,,3,,,,81,64
78580,note_off,400,0,13,,,,,,,,12,,,,53,64
78580,note_off,400,0,11,,,,,,,,10,,,,77,64
78600,note_on,0,0,4,,,,,,,,2,,,,74,75
78600,note_on,0,0,3,,,,,,,,1,,,,74,92
78600,note_off,60,0,3,,,,,,,,1,,,,76,64
78600,note_off,60,0,4,,,,,,,,2,,,,76,64
78660,note_off,60,0,3,,,,,,,,1,,,,74,64
78660,note_on,0,0,4,,,,,,,,2,,,,72,75
78660,note_off,60,0,4,,,,,,,,2,,,,74,64
78660,note_on,0,0,3,,,,,,,,1,,,,72,92
78720,note_off,60,0,3,,,,,,,,1,,,,72,64
78720,note_on,0,0,3,,,,,,,,1,,,,70,92
78720,note_off,60,0,4,,,,,,,,2,,,,72,64
78720,note_on,0,0,4,,,,,,,,2,,,,70,75
78780,note_on,0,0,4,,,,,,,,2,,,,69,75
78780,note_off,60,0,3,,,,,,,,1,,,,70,64
78780,note_on,0,0,3,,,,,,,,1,,,,69,92
78780,note_off,60,0,4,,,,,,,,2,,,,70,64
78840,note_off,60,0,3,,,,,,,,1,,,,69,64
78840,note_on,0,0,3,,,,,,,,1,,,,67,92
78840,note_off,60,0,4,,,,,,,,2,,,,69,64
78840,note_on,0,0,4,,,,,,,,2,,,,67,75
78900,note_on,0,0,3,,,,,,,,1,,,,65,92
78900,note_on,0,0,4,,,,,,,,2,,,,65,75
78900,note_off,60,0,4,,,,,,,,2,,,,67,64
78900,note_off,60,0,3,,,,,,,,1,,,,67,64
78960,note_off,60,0,4,,,,,,,,2,,,,65,64
78960,note_on,0,0,4,,,,,,,,2,,,,64,75
78960,note_on,0,0,3,,,,,,,,1,,,,64,92
78960,note_off,60,0,3,,,,,,,,1,,,,65,64
79020,note_off,60,0,4,,,,,,,,2,,,,64,64
79020,note_on,0,0,4,,,,,,,,2,,,,62,75
79020,note_on,0,0,3,,,,,,,,1,,,,62,92
79020,note_off,60,0,3,,,,,,,,1,,,,64,64
79080,note_on,0,0,3,,,,,,,,1,,,,60,92
79080,note_off,60,0,3,,,,,,,,1,,,,62,64
79080,note_on,0,0,4,,,,,,,,2,,,,60,75
79080,note_off,60,0,4,,,,,,,,2,,,,62,64
79140,note_on,0,0,4,,,,,,,,2,,,,59,75
79140,note_off,60,0,3,,,,,,,,1,,,,60,64
79140,note_off,60,0,4,,,,,,,,2,,,,60,64
79140,note_on,0,0,3,,,,,,,,1,,,,59,92
79260,note_on,680,0,10,,,,,,,,8,,,,67,75
79260,note_on,680,0,5,,,,,,,,3,,,,67,92
79260,note_on,680,0,11,,,,,,,,10,,,,55,75
79260,note_on,680,0,6,,,,,,,,4,,,,55,92
79375,note_off,115,0,6,,,,,,,,4,,,,55,64
79375,note_off,115,0,5,,,,,,,,3,,,,67,64
79375,note_off,115,0,10,,,,,,,,8,,,,67,64
79375,note_off,115,0,11,,,,,,,,10,,,,55,64
79380,note_on,5,0,5,,,,,,,,3,,,,71,92
79380,note_on,5,0,10,,,,,,,,8,,,,71,75
79380,note_on,5,0,6,,,,,,,,4,,,,59,92
79380,note_on,5,0,11,,,,,,,,10,,,,59,75
79495,note_off,115,0,6,,,,,,,,4,,,,59,64
79495,note_off,115,0,11,,,,,,,,10,,,,59,64
79495,note_off,115,0,5,,,,,,,,3,,,,71,64
79495,note_off,115,0,10,,,,,,,,8,,,,71,64
79500,note_on,5,0,10,,,,,,,,8,,,,74,75
79500,note_on,5,0,11,,,,,,,,10,,,,62,75
79500,note_on,5,0,6,,,,,,,,4,,,,62,92
79500,note_on,5,0,5,,,,,,,,3,,,,74,92
79540,note_off,400,0,3,,,,,,,,1,,,,59,64
79540,note_off,400,0,4,,,,,,,,2,,,,59,64
79615,note_off,115,0,11,,,,,,,,10,,,,62,64
79615,note_off,115,0,10,,,,,,,,8,,,,74,64
79615,note_off,115,0,6,,,,,,,,4,,,,62,64
79615,note_off,115,0,5,,,,,,,,3,,,,74,64
79620,note_on,5,0,11,,,,,,,,10,,,,67,75
79620,note_on,5,0,5,,,,,,,,3,,,,79,92
79620,note_on,5,0,10,,,,,,,,8,,,,79,75
79620,note_on,5,0,6,,,,,,,,4,,,,67,92
79740,note_on,1160,0,8,,,,,,,,6,,,,55,92
79740,note_on,1160,0,9,,,,,,,,7,,,,43,92
79740,note_on,1160,0,14,,,,,,,,13,,,,43,75
79740,note_on,1160,0,7,,,,,,,,5,,,,67,92
79740,note_on,1160,0,12,,,,,,,,11,,,,67,75
79740,note_on,1160,0,13,,,,,,,,12,,,,55,75
79855,note_off,115,0,13,,,,,,,,12,,,,55,64
79855,note_off,115,0,8,,,,,,,,6,,,,55,64
79855,note_off,115,0,9,,,,,,,,7,,,,43,64
79855,note_off,115,0,14,,,,,,,,13,,,,43,64
79855,note_off,115,0,7,,,,,,,,5,,,,67,64
79855,note_off,115,0,12,,,,,,,,11,,,,67,64
79860,note_on,5,0,9,,,,,,,,7,,,,38,92
79860,note_on,5,0,12,,,,,,,,11,,,,62,75
79860,note_on,5,0,7,,,,,,,,5,,,,62,92
79860,note_on,5,0,13,,,,,,,,12,,,,50,75
79860,note_on,5,0,14,,,,,,,,13,,,,38,75
79860,note_on,5,0,8,,,,,,,,6,,,,50,92
79975,note_off,115,0,13,,,,,,,,12,,,,50,64
79975,note_off,115,0,12,,,,,,,,11,,,,62,64
79975,note_off,115,0,14,,,,,,,,13,,,,38,64
79975,note_off,115,0,7,,,,,,,,5,,,,62,64
79975,note_off,115,0,9,,,,,,,,7,,,,38,64
79975,note_off,115,0,8,,,,,,,,6,,,,50,64
79980,note_on,5,0,8,,,,,,,,6,,,,47,92
79980,note_on,5,0,12,,,,,,,,11,,,,59,75
79980,note_on,5,0,13,,,,,,,,12,,,,47,75
79980,note_on,5,0,14,,,,,,,,13,,,,35,75
79980,note_on,5,0,9,,,,,,,,7,,,,35,92
79980,note_on,5,0,7,,,,,,,,5,,,,59,92
80020,note_off,400,0,10,,,,,,,,8,,,,79,64
80020,note_off,400,0,11,,,,,,,,10,,,,67,64
80020,note_off,400,0,6,,,,,,,,4,,,,67,64
80020,note_off,400,0,5,,,,,,,,3,,,,79,64
80095,note_off,115,0,12,,,,,,,,11,,,,59,64
80095,note_off,115,0,9,,,,,,,,7,,,,35,64
80095,note_off,115,0,13,,,,,,,,12,,,,47,64
80095,note_off,115,0,14,,,,,,,,13,,,,35,64
80095,note_off,115,0,8,,,,,,,,6,,,,47,64
80095,note_off,115,0,7,,,,,,,,5,,,,59,64
80100,note_on,5,0,8,,,,,,,,6,,,,43,92
80100,note_on,5,0,12,,,,,,,,11,,,,55,75
80100,note_on,5,0,13,,,,,,,,12,,,,43,75
80100,note_on,5,0,7,,,,,,,,5,,,,55,92
80100,set_tempo,1680,1,0,545454,,,,,,,,,,,,
80100,note_on,1520,0,15,,,,,,,,14,,,,31,60
80100,note_on,5,0,14,,,,,,,,13,,,,31,75
80100,note_on,560,0,4,,,,,,,,2,,,,79,75
80100,note_on,560,0,3,,,,,,,,1,,,,79,92
80100,note_on,5,0,9,,,,,,,,7,,,,31,92
80340,note_on,0,0,3,,,,,,,,1,,,,77,92
80340,set_tempo,240,1,0,512820,,,,,,,,,,,,
80340,note_off,240,0,4,,,,,,,,2,,,,79,64
80340,note_on,0,0,4,,,,,,,,2,,,,77,75
80340,note_off,240,0,3,,,,,,,,1,,,,79,64
80400,note_off,60,0,3,,,,,,,,1,,,,77,64
80400,note_on,0,0,3,,,,,,,,1,,,,76,92
80400,note_off,60,0,4,,,,,,,,2,,,,77,64
80400,note_on,0,0,4,,,,,,,,2,,,,76,75
80460,note_off,60,0,3,,,,,,,,1,,,,76,64
80460,note_on,0,0,3,,,,,,,,1,,,,74,92
80460,note_off,60,0,4,,,,,,,,2,,,,76,64
80460,note_on,0,0,4,,,,,,,,2,,,,74,75
80500,note_off,400,0,13,,,,,,,,12,,,,43,64
80500,note_off,400,0,15,,,,,,,,14,,,,31,64
80500,note_off,400,0,12,,,,,,,,11,,,,55,64
80500,note_off,400,0,9,,,,,,,,7,,,,31,64
80500,note_off,400,0,14,,,,,,,,13,,,,31,64
80500,note_off,400,0,7,,,,,,,,5,,,,55,64
80500,note_off,400,0,8,,,,,,,,6,,,,43,64
80520,note_on,0,0,3,,,,,,,,1,,,,72,92
80520,note_off,60,0,4,,,,,,,,2,,,,74,64
80520,note_on,0,0,4,,,,,,,,2,,,,72,75
80520,note_off,60,0,3,,,,,,,,1,,,,74,64
80580,note_on,0,0,4,,,,,,,,2,,,,71,75
80580,note_off,60,0,4,,,,,,,,2,,,,72,64
80580,note_off,60,0,3,,,,,,,,1,,,,72,64
80580,note_on,0,0,3,,,,,,,,1,,,,71,92
80640,note_off,60,0,3,,,,,,,,1,,,,71,64
80640,note_on,0,0,3,,,,,,,,1,,,,69,92
80640,note_off,60,0,4,,,,,,,,2,,,,71,64
80640,note_on,0,0,4,,,,,,,,2,,,,69,75
80700,note_on,0,0,4,,,,,,,,2,,,,67,75
80700,note_on,0,0,3,,,,,,,,1,,,,67,92
80700,note_off,60,0,3,,,,,,,,1,,,,69,64
80700,note_off,60,0,4,,,,,,,,2,,,,69,64
80760,note_on,0,0,3,,,,,,,,1,,,,65,92
80760,note_off,60,0,3,,,,,,,,1,,,,67,64
80760,note_off,60,0,4,,,,,,,,2,,,,67,64
80760,note_on,0,0,4,,,,,,,,2,,,,65,75
80820,note_on,0,0,3,,,,,,,,1,,,,64,92
80820,note_off,60,0,3,,,,,,,,1,,,,65,64
80820,note_off,60,0,4,,,,,,,,2,,,,65,64
80820,note_on,0,0,4,,,,,,,,2,,,,64,75
80880,note_off,60,0,3,,,,,,,,1,,,,64,64
80880,note_on,0,0,3,,,,,,,,1,,,,62,92
80880,note_on,0,0,4,,,,,,,,2,,,,62,75
80880,note_off,60,0,4,,,,,,,,2,,,,64,64
80940,note_on,0,0,3,,,,,,,,1,,,,60,92
80940,note_on,0,0,4,,,,,,,,2,,,,60,75
80940,note_off,60,0,4,,,,,,,,2,,,,62,64
80940,note_off,60,0,3,,,,,,,,1,,,,62,64
81000,note_on,0,0,4,,,,,,,,2,,,,59,75
81000,note_off,60,0,4,,,,,,,,2,,,,60,64
81000,note_on,0,0,3,,,,,,,,1,,,,59,92
81000,note_off,60,0,3,,,,,,,,1,,,,60,64
81060,note_off,60,0,3,,,,,,,,1,,,,59,64
81060,note_off,60,0,4,,,,,,,,2,,,,59,64
81060,note_on,0,0,4,,,,,,,,2,,,,57,75
81060,note_on,0,0,3,,,,,,,,1,,,,57,92
81180,note_on,1160,0,11,,,,,,,,10,,,,53,75
81180,note_on,1160,0,5,,,,,,,,3,,,,65,92
81180,note_on,1160,0,6,,,,,,,,4,,,,53,92
81180,note_on,1160,0,10,,,,,,,,8,,,,65,75
81295,note_off,115,0,11,,,,,,,,10,,,,53,64
81295,note_off,115,0,6,,,,,,,,4,,,,53,64
81295,note_off,115,0,5,,,,,,,,3,,,,65,64
81295,note_off,115,0,10,,,,,,,,8,,,,65,64
81300,note_on,5,0,11,,,,,,,,10,,,,57,75
81300,note_on,5,0,5,,,,,,,,3,,,,69,92
81300,note_on,5,0,10,,,,,,,,8,,,,69,75
81300,note_on,5,0,6,,,,,,,,4,,,,57,92
81415,note_off,115,0,10,,,,,,,,8,,,,69,64
81415,note_off,115,0,11,,,,,,,,10,,,,57,64
81415,note_off,115,0,6,,,,,,,,4,,,,57,64
81415,note_off,115,0,5,,,,,,,,3,,,,69,64
81420,note_on,5,0,11,,,,,,,,10,,,,60,75
81420,note_on,5,0,5,,,,,,,,3,,,,72,92
81420,note_on,5,0,10,,,,,,,,8,,,,72,75
81420,note_on,5,0,6,,,,,,,,4,,,,60,92
81460,note_off,400,0,3,,,,,,,,1,,,,57,64
81460,note_off,400,0,4,,,,,,,,2,,,,57,64
81535,note_off,115,0,10,,,,,,,,8,,,,72,64
81535,note_off,115,0,6,,,,,,,,4,,,,60,64
81535,note_off,115,0,11,,,,,,,,10,,,,60,64
81535,note_off,115,0,5,,,,,,,,3,,,,72,64
81540,note_on,5,0,10,,,,,,,,8,,,,77,75
81540,note_on,5,0,11,,,,,,,,10,,,,65,75
81540,note_on,5,0,6,,,,,,,,4,,,,65,92
81540,note_on,5,0,5,,,,,,,,3,,,,77,92
81660,note_on,1160,0,9,,,,,,,,7,,,,41,92
81660,note_on,1160,0,14,,,,,,,,13,,,,41,75
81660,note_on,1160,0,8,,,,,,,,6,,,,53,92
81660,note_on,1160,0,12,,,,,,,,11,,,,65,75
81660,note_on,1160,0,13,,,,,,,,12,,,,53,75
81660,note_on,1160,0,7,,,,,,,,5,,,,65,92
81775,note_off,115,0,9,,,,,,,,7,,,,41,64
81775,note_off,115,0,7,,,,,,,,5,,,,65,64
81775,note_off,115,0,13,,,,,,,,12,,,,53,64
81775,note_off,115,0,8,,,,,,,,6,,,,53,64
81775,note_off,115,0,12,,,,,,,,11,,,,65,64
81775,note_off,115,0,14,,,,,,,,13,,,,41,64
81780,note_on,5,0,7,,,,,,,,5,,,,60,92
81780,note_on,5,0,8,,,,,,,,6,,,,48,92
81780,note_on,5,0,9,,,,,,,,7,,,,36,92
81780,note_on,5,0,13,,,,,,,,12,,,,48,75
81780,note_on,5,0,12,,,,,,,,11,,,,60,75
81780,note_on,5,0,14,,,,,,,,13,,,,36,75
81895,note_off,115,0,8,,,,,,,,6,,,,48,64
81895,note_off,115,0,7,,,,,,,,5,,,,60,64
81895,note_off,115,0,9,,,,,,,,7,,,,36,64
81895,note_off,115,0,12,,,,,,,,11,,,,60,64
81895,note_off,115,0,13,,,,,,,,12,,,,48,64
81895,note_off,115,0,14,,,,,,,,13,,,,36,64
81900,note_on,5,0,12,,,,,,,,11,,,,57,75
81900,note_on,5,0,13,,,,,,,,12,,,,45,75
81900,note_on,5,0,14,,,,,,,,13,,,,33,75
81900,note_on,5,0,8,,,,,,,,6,,,,45,92
81900,note_on,5,0,7,,,,,,,,5,,,,57,92
81900,note_on,5,0,9,,,,,,,,7,,,,33,92
81940,note_off,400,0,6,,,,,,,,4,,,,65,64
81940,note_off,400,0,11,,,,,,,,10,,,,65,64
81940,note_off,400,0,10,,,,,,,,8,,,,77,64
81940,note_off,400,0,5,,,,,,,,3,,,,77,64
82015,note_off,115,0,7,,,,,,,,5,,,,57,64
82015,note_off,115,0,9,,,,,,,,7,,,,33,64
82015,note_off,115,0,8,,,,,,,,6,,,,45,64
82015,note_off,115,0,14,,,,,,,,13,,,,33,64
82015,note_off,115,0,12,,,,,,,,11,,,,57,64
82015,note_off,115,0,13,,,,,,,,12,,,,45,64
82020,set_tempo,1680,1,0,545454,,,,,,,,,,,,
82020,note_on,5,0,9,,,,,,,,7,,,,29,92
82020,note_on,560,0,3,,,,,,,,1,,,,77,92
82020,note_on,5,0,8,,,,,,,,6,,,,41,92
82020,note_on,5,0,7,,,,,,,,5,,,,53,92
82020,note_on,5,0,13,,,,,,,,12,,,,41,75
82020,note_on,5,0,12,,,,,,,,11,,,,53,75
82020,note_on,1520,0,15,,,,,,,,14,,,,29,60
82020,note_on,560,0,4,,,,,,,,2,,,,77,75
82020,note_on,5,0,14,,,,,,,,13,,,,29,75
82260,note_off,240,0,3,,,,,,,,1,,,,77,64
82260,note_on,0,0,3,,,,,,,,1,,,,76,92
82260,note_on,0,0,4,,,,,,,,2,,,,76,75
82260,set_tempo,240,1,0,512820,,,,,,,,,,,,
82260,note_off,240,0,4,,,,,,,,2,,,,77,64
82320,note_off,60,0,3,,,,,,,,1,,,,76,64
82320,note_on,0,0,3,,,,,,,,1,,,,74,92
82320,note_off,60,0,4,,,,,,,,2,,,,76,64
82320,note_on,0,0,4,,,,,,,,2,,,,74,75
82380,note_off,60,0,3,,,,,,,,1,,,,74,64
82380,note_on,0,0,3,,,,,,,,1,,,,72,92
82380,note_off,60,0,4,,,,,,,,2,,,,74,64
82380,note_on,0,0,4,,,,,,,,2,,,,72,75
82420,note_off,400,0,15,,,,,,,,14,,,,29,64
82420,note_off,400,0,7,,,,,,,,5,,,,53,64
82420,note_off,400,0,9,,,,,,,,7,,,,29,64
82420,note_off,400,0,14,,,,,,,,13,,,,29,64
82420,note_off,400,0,8,,,,,,,,6,,,,41,64
82420,note_off,400,0,13,,,,,,,,12,,,,41,64
82420,note_off,400,0,12,,,,,,,,11,,,,53,64
82440,note_off,60,0,3,,,,,,,,1,,,,72,64
82440,note_on,0,0,3,,,,,,,,1,,,,71,92
82440,note_off,60,0,4,,,,,,,,2,,,,72,64
82440,note_on,0,0,4,,,,,,,,2,,,,71,75
82500,note_off,60,0,4,,,,,,,,2,,,,71,64
82500,note_on,0,0,3,,,,,,,,1,,,,69,92
82500,note_on,0,0,4,,,,,,,,2,,,,69,75
82500,note_off,60,0,3,,,,,,,,1,,,,71,64
82560,note_on,0,0,3,,,,,,,,1,,,,67,92
82560,note_off,60,0,4,,,,,,,,2,,,,69,64
82560,note_on,0,0,4,,,,,,,,2,,,,67,75
82560,note_off,60,0,3,,,,,,,,1,,,,69,64
82620,note_off,60,0,4,,,,,,,,2,,,,67,64
82620,note_on,0,0,4,,,,,,,,2,,,,65,75
82620,note_off,60,0,3,,,,,,,,1,,,,67,64
82620,note_on,0,0,3,,,,,,,,1,,,,65,92
82680,note_off,60,0,3,,,,,,,,1,,,,65,64
82680,note_on,0,0,4,,,,,,,,2,,,,64,75
82680,note_on,0,0,3,,,,,,,,1,,,,64,92
82680,note_off,60,0,4,,,,,,,,2,,,,65,64
82740,note_on,0,0,4,,,,,,,,2,,,,62,75
82740,note_off,60,0,3,,,,,,,,1,,,,64,64
82740,note_on,0,0,3,,,,,,,,1,,,,62,92
82740,note_off,60,0,4,,,,,,,,2,,,,64,64
82800,note_off,60,0,4,,,,,,,,2,,,,62,64
82800,note_on,0,0,4,,,,,,,,2,,,,60,75
82800,note_off,60,0,3,,,,,,,,1,,,,62,64
82800,note_on,0,0,3,,,,,,,,1,,,,60,92
82860,note_off,60,0,4,,,,,,,,2,,,,60,64
82860,note_on,0,0,3,,,,,,,,1,,,,59,92
82860,note_on,0,0,4,,,,,,,,2,,,,59,75
82860,note_off,60,0,3,,,,,,,,1,,,,60,64
82920,note_off,60,0,3,,,,,,,,1,,,,59,64
82920,note_on,0,0,3,,,,,,,,1,,,,57,92
82920,note_on,0,0,4,,,,,,,,2,,,,57,75
82920,note_off,60,0,4,,,,,,,,2,,,,59,64
82980,note_on,0,0,4,,,,,,,,2,,,,56,75
82980,note_off,60,0,4,,,,,,,,2,,,,57,64
82980,note_on,0,0,3,,,,,,,,1,,,,56,92
82980,note_off,60,0,3,,,,,,,,1,,,,57,64
83100,note_on,1160,0,10,,,,,,,,8,,,,64,75
83100,note_on,1160,0,11,,,,,,,,10,,,,52,75
83100,note_on,1160,0,6,,,,,,,,4,,,,52,92
83100,note_on,1160,0,5,,,,,,,,3,,,,64,92
83215,note_off,115,0,10,,,,,,,,8,,,,64,64
83215,note_off,115,0,6,,,,,,,,4,,,,52,64
83215,note_off,115,0,5,,,,,,,,3,,,,64,64
83215,note_off,115,0,11,,,,,,,,10,,,,52,64
83220,note_on,5,0,10,,,,,,,,8,,,,68,75
83220,note_on,5,0,11,,,,,,,,10,,,,56,75
83220,note_on,5,0,6,,,,,,,,4,,,,56,92
83220,note_on,5,0,5,,,,,,,,3,,,,68,92
83335,note_off,115,0,10,,,,,,,,8,,,,68,64
83335,note_off,115,0,11,,,,,,,,10,,,,56,64
83335,note_off,115,0,6,,,,,,,,4,,,,56,64
83335,note_off,115,0,5,,,,,,,,3,,,,68,64
83340,note_on,5,0,11,,,,,,,,10,,,,59,75
83340,note_on,5,0,10,,,,,,,,8,,,,71,75
83340,note_on,5,0,5,,,,,,,,3,,,,71,92
83340,note_on,5,0,6,,,,,,,,4,,,,59,92
83380,note_off,400,0,4,,,,,,,,2,,,,56,64
83380,note_off,400,0,3,,,,,,,,1,,,,56,64
83455,note_off,115,0,10,,,,,,,,8,,,,71,64
83455,note_off,115,0,6,,,,,,,,4,,,,59,64
83455,note_off,115,0,11,,,,,,,,10,,,,59,64
83455,note_off,115,0,5,,,,,,,,3,,,,71,64
83460,note_on,5,0,6,,,,,,,,4,,,,64,92
83460,note_on,5,0,11,,,,,,,,10,,,,64,75
83460,note_on,5,0,5,,,,,,,,3,,,,76,92
83460,note_on,5,0,10,,,,,,,,8,,,,76,75
83580,note_on,1160,0,14,,,,,,,,13,,,,40,75
83580,note_on,1160,0,13,,,,,,,,12,,,,52,75
83580,note_on,1160,0,12,,,,,,,,11,,,,64,75
83580,note_on,1160,0,8,,,,,,,,6,,,,52,92
83580,note_on,1160,0,9,,,,,,,,7,,,,40,92
83580,note_on,1160,0,7,,,,,,,,5,,,,64,92
83695,note_off,115,0,12,,,,,,,,11,,,,64,64
83695,note_off,115,0,7,,,,,,,,5,,,,64,64
83695,note_off,115,0,14,,,,,,,,13,,,,40,64
83695,note_off,115,0,13,,,,,,,,12,,,,52,64
83695,note_off,115,0,9,,,,,,,,7,,,,40,64
83695,note_off,115,0,8,,,,,,,,6,,,,52,64
83700,note_on,5,0,12,,,,,,,,11,,,,59,75
83700,note_on,5,0,13,,,,,,,,12,,,,47,75
83700,note_on,5,0,14,,,,,,,,13,,,,35,75
83700,note_on,5,0,9,,,,,,,,7,,,,35,92
83700,note_on,5,0,7,,,,,,,,5,,,,59,92
83700,note_on,5,0,8,,,,,,,,6,,,,47,92
83815,note_off,115,0,14,,,,,,,,13,,,,35,64
83815,note_off,115,0,9,,,,,,,,7,,,,35,64
83815,note_off,115,0,8,,,,,,,,6,,,,47,64
83815,note_off,115,0,12,,,,,,,,11,,,,59,64
83815,note_off,115,0,13,,,,,,,,12,,,,47,64
83815,note_off,115,0,7,,,,,,,,5,,,,59,64
83820,note_on,5,0,8,,,,,,,,6,,,,44,92
83820,note_on,5,0,13,,,,,,,,12,,,,44,75
83820,note_on,5,0,7,,,,,,,,5,,,,56,92
83820,note_on,5,0,9,,,,,,,,7,,,,32,92
83820,note_on,5,0,14,,,,,,,,13,,,,32,75
83820,note_on,5,0,12,,,,,,,,11,,,,56,75
83860,note_off,400,0,5,,,,,,,,3,,,,76,64
83860,note_off,400,0,11,,,,,,,,10,,,,64,64
83860,note_off,400,0,6,,,,,,,,4,,,,64,64
83860,note_off,400,0,10,,,,,,,,8,,,,76,64
83935,note_off,115,0,14,,,,,,,,13,,,,32,64
83935,note_off,115,0,7,,,,,,,,5,,,,56,64
83935,note_off,115,0,13,,,,,,,,12,,,,44,64
83935,note_off,115,0,8,,,,,,,,6,,,,44,64
83935,note_off,115,0,12,,,,,,,,11,,,,56,64
83935,note_off,115,0,9,,,,,,,,7,,,,32,64
83940,note_on,5,0,12,,,,,,,,11,,,,52,75
83940,note_on,5,0,8,,,,,,,,6,,,,40,92
83940,note_on,5,0,9,,,,,,,,7,,,,28,92
83940,note_on,5,0,13,,,,,,,,12,,,,40,75
83940,note_on,5,0,14,,,,,,,,13,,,,28,75
83940,set_tempo,1680,1,0,967741,,,,,,,,,,,,
83940,note_on,5,0,7,,,,,,,,5,,,,52,92
84300,note_on,920,0,3,,,,,,,,1,,,,80,60
84300,note_on,920,0,4,,,,,,,,2,,,,80,45
84340,note_off,400,0,14,,,,,,,,13,,,,28,64
84340,note_off,400,0,13,,,,,,,,12,,,,40,64
84340,note_off,400,0,9,,,,,,,,7,,,,28,64
84340,note_off,400,0,8,,,,,,,,6,,,,40,64
84340,note_off,400,0,12,,,,,,,,11,,,,52,64
84340,note_off,400,0,7,,,,,,,,5,,,,52,64
84540,note_off,240,0,3,,,,,,,,1,,,,80,64
84540,note_off,240,0,4,,,,,,,,2,,,,80,64
84540,note_on,0,0,3,,,,,,,,1,,,,81,60
84540,note_on,0,0,4,,,,,,,,2,,,,81,45
84780,note_on,0,0,4,,,,,,,,2,,,,83,45
84780,note_off,240,0,4,,,,,,,,2,,,,81,64
84780,note_on,0,0,3,,,,,,,,1,,,,83,60
84780,note_off,240,0,3,,,,,,,,1,,,,81,64
85020,note_on,680,0,9,,,,,,,,7,,,,38,45
85020,note_on,680,0,12,,,,,,,,11,,,,62,30
85020,note_on,680,0,7,,,,,,,,5,,,,62,45
85020,note_on,680,0,13,,,,,,,,12,,,,50,30
85020,note_off,240,0,3,,,,,,,,1,,,,83,64
85020,set_tempo,1080,1,0,769230,,,,,,,,,,,,
85020,note_on,1160,0,5,,,,,,,,3,,,,74,45
85020,note_on,1160,0,10,,,,,,,,8,,,,74,30
85020,note_on,680,0,14,,,,,,,,13,,,,38,30
85020,note_on,85020,0,2,,,,,,,,0,,,,50,30
85020,note_on,0,0,3,,,,,,,,1,,,,77,60
85020,note_on,0,0,4,,,,,,,,2,,,,77,45
85020,note_off,240,0,4,,,,,,,,2,,,,83,64
85020,note_on,680,0,8,,,,,,,,6,,,,50,45
85260,note_off,240,0,2,,,,,,,,0,,,,50,64
85260,note_off,240,0,7,,,,,,,,5,,,,62,64
85260,note_on,0,0,7,,,,,,,,5,,,,60,45
85260,note_off,240,0,12,,,,,,,,11,,,,62,64
85260,note_on,0,0,12,,,,,,,,11,,,,60,30
85260,note_off,240,0,14,,,,,,,,13,,,,38,64
85260,note_off,240,0,8,,,,,,,,6,,,,50,64
85260,note_on,0,0,5,,,,,,,,3,,,,72,45
85260,note_off,240,0,5,,,,,,,,3,,,,74,64
85260,note_on,0,0,2,,,,,,,,0,,,,48,30
85260,note_on,0,0,13,,,,,,,,12,,,,48,30
85260,note_off,240,0,13,,,,,,,,12,,,,50,64
85260,note_on,0,0,10,,,,,,,,8,,,,72,30
85260,note_off,240,0,10,,,,,,,,8,,,,74,64
85260,note_on,0,0,14,,,,,,,,13,,,,36,30
85260,note_off,240,0,9,,,,,,,,7,,,,38,64
85260,note_on,0,0,9,,,,,,,,7,,,,36,45
85260,note_on,0,0,8,,,,,,,,6,,,,48,45
85500,note_off,240,0,2,,,,,,,,0,,,,48,64
85500,note_on,0,0,10,,,,,,,,8,,,,71,30
85500,note_off,240,0,10,,,,,,,,8,,,,72,64
85500,note_off,240,0,9,,,,,,,,7,,,,36,64
85500,note_on,0,0,12,,,,,,,,11,,,,59,30
85500,note_off,240,0,13,,,,,,,,12,,,,48,64
85500,note_on,0,0,5,,,,,,,,3,,,,71,45
85500,note_off,240,0,7,,,,,,,,5,,,,60,64
85500,note_on,0,0,7,,,,,,,,5,,,,59,45
85500,note_off,240,0,8,,,,,,,,6,,,,48,64
85500,note_off,240,0,12,,,,,,,,11,,,,60,64
85500,note_on,0,0,13,,,,,,,,12,,,,47,30
85500,note_on,0,0,2,,,,,,,,0,,,,47,30
85500,note_on,0,0,8,,,,,,,,6,,,,47,45
85500,note_off,240,0,5,,,,,,,,3,,,,72,64
85500,note_off,240,0,14,,,,,,,,13,,,,36,64
85500,note_on,0,0,14,,,,,,,,13,,,,35,30
85500,note_on,0,0,9,,,,,,,,7,,,,35,45
85740,note_off,240,0,12,,,,,,,,11,,,,59,64
85740,note_on,0,0,9,,,,,,,,7,,,,33,45
85740,note_off,240,0,9,,,,,,,,7,,,,35,64
85740,note_on,0,0,12,,,,,,,,11,,,,57,30
85740,note_on,0,0,2,,,,,,,,0,,,,45,30
85740,note_off,240,0,2,,,,,,,,0,,,,47,64
85740,note_on,0,0,8,,,,,,,,6,,,,45,45
85740,note_off,240,0,10,,,,,,,,8,,,,71,64
85740,note_on,0,0,13,,,,,,,,12,,,,45,30
85740,note_off,240,0,7,,,,,,,,5,,,,59,64
85740,note_on,0,0,7,,,,,,,,5,,,,57,45
85740,note_on,0,0,10,,,,,,,,8,,,,69,30
85740,note_off,240,0,13,,,,,,,,12,,,,47,64
85740,note_off,240,0,8,,,,,,,,6,,,,47,64
85740,note_off,240,0,5,,,,,,,,3,,,,71,64
85740,note_on,0,0,14,,,,,,,,13,,,,33,30
85740,note_on,0,0,5,,,,,,,,3,,,,69,45
85740,note_off,240,0,14,,,,,,,,13,,,,35,64
85980,note_off,240,0,5,,,,,,,,3,,,,69,64
85980,note_on,0,0,13,,,,,,,,12,,,,44,30
85980,note_off,240,0,2,,,,,,,,0,,,,45,64
85980,note_off,240,0,10,,,,,,,,8,,,,69,64
85980,note_on,0,0,2,,,,,,,,0,,,,44,30
85980,note_on,0,0,10,,,,,,,,8,,,,68,30
85980,note_off,240,0,9,,,,,,,,7,,,,33,64
85980,note_on,0,0,9,,,,,,,,7,,,,32,45
85980,note_on,0,0,5,,,,,,,,3,,,,68,45
85980,note_off,240,0,8,,,,,,,,6,,,,45,64
85980,note_on,0,0,8,,,,,,,,6,,,,44,45
85980,note_on,0,0,12,,,,,,,,11,,,,56,30
85980,note_off,240,0,12,,,,,,,,11,,,,57,64
85980,note_off,240,0,14,,,,,,,,13,,,,33,64
85980,note_on,0,0,14,,,,,,,,13,,,,32,30
85980,note_on,0,0,7,,,,,,,,5,,,,56,45
85980,note_off,240,0,7,,,,,,,,5,,,,57,64
85980,note_off,240,0,13,,,,,,,,12,,,,45,64
86220,note_on,0,0,9,,,,,,,,7,,,,29,45
86220,note_off,240,0,9,,,,,,,,7,,,,32,64
86220,note_on,0,0,5,,,,,,,,3,,,,65,45
86220,note_off,240,0,13,,,,,,,,12,,,,44,64
86220,note_off,240,0,2,,,,,,,,0,,,,44,64
86220,note_off,240,0,7,,,,,,,,5,,,,56,64
86220,note_on,0,0,7,,,,,,,,5,,,,53,45
86220,note_off,240,0,14,,,,,,,,13,,,,32,64
86220,note_off,240,0,12,,,,,,,,11,,,,56,64
86220,note_on,0,0,12,,,,,,,,11,,,,53,30
86220,note_on,0,0,14,,,,,,,,13,,,,29,30
86220,note_on,0,0,2,,,,,,,,0,,,,41,30
86220,note_on,0,0,13,,,,,,,,12,,,,41,30
86220,note_off,240,0,5,,,,,,,,3,,,,68,64
86220,note_on,0,0,8,,,,,,,,6,,,,41,45
86220,note_off,240,0,8,,,,,,,,6,,,,44,64
86220,note_on,0,0,10,,,,,,,,8,,,,65,30
86220,note_off,240,0,10,,,,,,,,8,,,,68,64
86460,note_on,0,0,14,,,,,,,,13,,,,28,30
86460,note_off,240,0,14,,,,,,,,13,,,,29,64
86460,note_on,0,0,10,,,,,,,,8,,,,64,30
86460,note_off,240,0,10,,,,,,,,8,,,,65,64
86460,note_on,0,0,7,,,,,,,,5,,,,52,45
86460,note_off,240,0,2,,,,,,,,0,,,,41,64
86460,note_off,240,0,8,,,,,,,,6,,,,41,64
86460,note_on,0,0,8,,,,,,,,6,,,,40,45
86460,note_off,240,0,7,,,,,,,,5,,,,53,64
86460,note_off,240,0,5,,,,,,,,3,,,,65,64
86460,note_on,0,0,5,,,,,,,,3,,,,64,45
86460,note_on,0,0,13,,,,,,,,12,,,,40,30
86460,note_off,240,0,13,,,,,,,,12,,,,41,64
86460,note_on,0,0,2,,,,,,,,0,,,,40,30
86460,note_off,240,0,12,,,,,,,,11,,,,53,64
86460,note_on,0,0,12,,,,,,,,11,,,,52,30
86460,note_on,0,0,9,,,,,,,,7,,,,28,45
86460,note_off,240,0,9,,,,,,,,7,,,,29,64
86700,note_on,0,0,9,,,,,,,,7,,,,26,45
86700,note_off,240,0,2,,,,,,,,0,,,,40,64
86700,note_on,0,0,14,,,,,,,,13,,,,26,30
86700,note_off,240,0,10,,,,,,,,8,,,,64,64
86700,note_off,240,0,14,,,,,,,,13,,,,28,64
86700,note_off,240,0,9,,,,,,,,7,,,,28,64
86700,note_on,0,0,12,,,,,,,,11,,,,50,30
86700,note_off,240,0,8,,,,,,,,6,,,,40,64
86700,note_on,0,0,8,,,,,,,,6,,,,38,45
86700,note_off,240,0,12,,,,,,,,11,,,,52,64
86700,note_on,0,0,10,,,,,,,,8,,,,62,30
86700,note_on,0,0,5,,,,,,,,3,,,,62,45
86700,note_on,0,0,7,,,,,,,,5,,,,50,45
86700,note_off,240,0,7,,,,,,,,5,,,,52,64
86700,note_off,240,0,5,,,,,,,,3,,,,64,64
86700,note_on,0,0,13,,,,,,,,12,,,,38,30
86700,note_on,0,0,2,,,,,,,,0,,,,38,30
86700,note_off,240,0,13,,,,,,,,12,,,,40,64
86820,note_off,1800,0,3,,,,,,,,1,,,,77,64
86820,note_off,1800,0,4,,,,,,,,2,,,,77,64
86940,set_tempo,1920,1,0,588235,,,,,,,,,,,,
86940,note_off,240,0,13,,,,,,,,12,,,,38,64
86940,note_on,0,0,13,,,,,,,,12,,,,32,30
86940,note_on,120,0,4,,,,,,,,2,,,,74,75
86940,note_off,240,0,14,,,,,,,,13,,,,26,64
86940,note_on,0,0,2,,,,,,,,0,,,,44,30
86940,note_on,0,0,2,,,,,,,,0,,,,32,30
86940,note_on,0,0,12,,,,,,,,11,,,,44,30
86940,note_off,240,0,9,,,,,,,,7,,,,26,64
86940,note_on,120,0,3,,,,,,,,1,,,,74,92
86940,note_off,240,0,5,,,,,,,,3,,,,62,64
86940,note_on,0,0,5,,,,,,,,3,,,,56,45
86940,note_off,240,0,12,,,,,,,,11,,,,50,64
86940,note_on,0,0,14,,,,,,,,13,,,,20,30
86940,note_on,0,0,9,,,,,,,,7,,,,20,45
86940,note_off,240,0,2,,,,,,,,0,,,,38,64
86940,note_off,240,0,10,,,,,,,,8,,,,62,64
86940,note_on,0,0,8,,,,,,,,6,,,,32,45
86940,note_off,240,0,8,,,,,,,,6,,,,38,64
86940,note_off,240,0,7,,,,,,,,5,,,,50,64
86940,note_on,0,0,7,,,,,,,,5,,,,44,45
86940,note_on,0,0,10,,,,,,,,8,,,,56,30
87020,note_off,80,0,4,,,,,,,,2,,,,74,64
87020,note_on,0,0,4,,,,,,,,2,,,,77,75
87020,note_on,0,0,3,,,,,,,,1,,,,77,92
87020,note_off,80,0,3,,,,,,,,1,,,,74,64
87100,note_on,0,0,3,,,,,,,,1,,,,74,92
87100,note_off,80,0,4,,,,,,,,2,,,,77,64
87100,note_on,0,0,4,,,,,,,,2,,,,74,75
87100,note_off,80,0,3,,,,,,,,1,,,,77,64
87152,note_off,52,0,3,,,,,,,,1,,,,74,64
87152,note_off,52,0,4,,,,,,,,2,,,,74,64
87180,note_on,28,0,3,,,,,,,,1,,,,71,92
87180,note_on,28,0,4,,,,,,,,2,,,,71,75
87260,note_off,80,0,3,,,,,,,,1,,,,71,64
87260,note_on,0,0,3,,,,,,,,1,,,,74,92
87260,note_on,0,0,4,,,,,,,,2,,,,74,75
87260,note_off,80,0,4,,,,,,,,2,,,,71,64
87340,note_off,400,0,7,,,,,,,,5,,,,44,64
87340,note_off,400,0,10,,,,,,,,8,,,,56,64
87340,note_off,400,0,9,,,,,,,,7,,,,20,64
87340,note_off,400,0,12,,,,,,,,11,,,,44,64
87340,note_off,400,0,8,,,,,,,,6,,,,32,64
87340,note_off,400,0,5,,,,,,,,3,,,,56,64
87340,note_off,80,0,4,,,,,,,,2,,,,74,64
87340,note_off,400,0,14,,,,,,,,13,,,,20,64
87340,note_off,400,0,2,,,,,,,,0,,,,44,64
87340,note_off,0,0,2,,,,,,,,0,,,,32,64
87340,note_off,400,0,13,,,,,,,,12,,,,32,64
87340,note_on,0,0,4,,,,,,,,2,,,,71,75
87340,note_on,0,0,3,,,,,,,,1,,,,71,92
87340,note_off,80,0,3,,,,,,,,1,,,,74,64
87392,note_off,52,0,4,,,,,,,,2,,,,71,64
87392,note_off,52,0,3,,,,,,,,1,,,,71,64
87420,note_on,28,0,3,,,,,,,,1,,,,68,92
87420,note_on,28,0,4,,,,,,,,2,,,,68,75
87500,note_off,80,0,3,,,,,,,,1,,,,68,64
87500,note_on,0,0,4,,,,,,,,2,,,,71,75
87500,note_on,0,0,3,,,,,,,,1,,,,71,92
87500,note_off,80,0,4,,,,,,,,2,,,,68,64
87580,note_off,80,0,4,,,,,,,,2,,,,71,64
87580,note_off,80,0,3,,,,,,,,1,,,,71,64
87580,note_on,0,0,4,,,,,,,,2,,,,68,75
87580,note_on,0,0,3,,,,,,,,1,,,,68,92
87632,note_off,52,0,3,,,,,,,,1,,,,68,64
87632,note_off,52,0,4,,,,,,,,2,,,,68,64
87660,note_on,28,0,4,,,,,,,,2,,,,64,75
87660,note_on,28,0,3,,,,,,,,1,,,,64,92
87740,note_off,80,0,4,,,,,,,,2,,,,64,64
87740,note_on,0,0,4,,,,,,,,2,,,,68,75
87740,note_off,80,0,3,,,,,,,,1,,,,64,64
87740,note_on,0,0,3,,,,,,,,1,,,,68,92
87820,note_off,80,0,3,,,,,,,,1,,,,68,64
87820,note_on,0,0,4,,,,,,,,2,,,,64,75
87820,note_off,80,0,4,,,,,,,,2,,,,68,64
87820,note_on,0,0,3,,,,,,,,1,,,,64,92
87872,note_off,52,0,3,,,,,,,,1,,,,64,64
87872,note_off,52,0,4,,,,,,,,2,,,,64,64
87900,note_on,28,0,4,,,,,,,,2,,,,61,75
87900,note_on,28,0,3,,,,,,,,1,,,,61,92
88020,note_on,680,0,5,,,,,,,,3,,,,69,92
88020,note_on,680,0,10,,,,,,,,8,,,,69,75
88020,note_on,4160,0,11,,,,,,,,10,,,,57,75
88020,note_on,4160,0,6,,,,,,,,4,,,,57,92
88135,note_off,115,0,10,,,,,,,,8,,,,69,64
88135,note_off,115,0,6,,,,,,,,4,,,,57,64
88135,note_off,115,0,11,,,,,,,,10,,,,57,64
88135,note_off,115,0,5,,,,,,,,3,,,,69,64
88140,note_on,5,0,6,,,,,,,,4,,,,61,92
88140,note_on,5,0,10,,,,,,,,8,,,,73,75
88140,note_on,5,0,11,,,,,,,,10,,,,61,75
88140,note_on,5,0,5,,,,,,,,3,,,,73,92
88255,note_off,115,0,5,,,,,,,,3,,,,73,64
88255,note_off,115,0,6,,,,,,,,4,,,,61,64
88255,note_off,115,0,10,,,,,,,,8,,,,73,64
88255,note_off,115,0,11,,,,,,,,10,,,,61,64
88260,note_on,5,0,5,,,,,,,,3,,,,76,92
88260,note_on,5,0,6,,,,,,,,4,,,,64,92
88260,note_on,5,0,10,,,,,,,,8,,,,76,75
88260,note_on,5,0,11,,,,,,,,10,,,,64,75
88300,note_off,400,0,3,,,,,,,,1,,,,61,64
88300,note_off,400,0,4,,,,,,,,2,,,,61,64
88375,note_off,115,0,5,,,,,,,,3,,,,76,64
88375,note_off,115,0,10,,,,,,,,8,,,,76,64
88375,note_off,115,0,11,,,,,,,,10,,,,64,64
88375,note_off,115,0,6,,,,,,,,4,,,,64,64
88380,note_on,5,0,10,,,,,,,,8,,,,81,75
88380,note_on,5,0,6,,,,,,,,4,,,,69,92
88380,note_on,5,0,11,,,,,,,,10,,,,69,75
88380,note_on,5,0,5,,,,,,,,3,,,,81,92
88500,note_on,1160,0,8,,,,,,,,6,,,,57,92
88500,note_on,1160,0,14,,,,,,,,13,,,,45,75
88500,note_on,1160,0,13,,,,,,,,12,,,,57,75
88500,note_on,1160,0,7,,,,,,,,5,,,,69,92
88500,note_on,1160,0,12,,,,,,,,11,,,,69,75
88500,note_on,1160,0,9,,,,,,,,7,,,,45,92
88615,note_off,115,0,12,,,,,,,,11,,,,69,64
88615,note_off,115,0,8,,,,,,,,6,,,,57,64
88615,note_off,115,0,7,,,,,,,,5,,,,69,64
88615,note_off,115,0,9,,,,,,,,7,,,,45,64
88615,note_off,115,0,14,,,,,,,,13,,,,45,64
88615,note_off,115,0,13,,,,,,,,12,,,,57,64
88620,note_on,5,0,7,,,,,,,,5,,,,64,92
88620,note_on,5,0,14,,,,,,,,13,,,,40,75
88620,note_on,5,0,8,,,,,,,,6,,,,52,92
88620,note_on,5,0,13,,,,,,,,12,,,,52,75
88620,note_on,5,0,9,,,,,,,,7,,,,40,92
88620,note_on,5,0,12,,,,,,,,11,,,,64,75
88735,note_off,115,0,8,,,,,,,,6,,,,52,64
88735,note_off,115,0,13,,,,,,,,12,,,,52,64
88735,note_off,115,0,14,,,,,,,,13,,,,40,64
88735,note_off,115,0,7,,,,,,,,5,,,,64,64
88735,note_off,115,0,9,,,,,,,,7,,,,40,64
88735,note_off,115,0,12,,,,,,,,11,,,,64,64
88740,note_on,5,0,8,,,,,,,,6,,,,49,92
88740,note_on,5,0,12,,,,,,,,11,,,,61,75
88740,note_on,5,0,14,,,,,,,,13,,,,37,75
88740,note_on,5,0,7,,,,,,,,5,,,,61,92
88740,note_on,5,0,9,,,,,,,,7,,,,37,92
88740,note_on,5,0,13,,,,,,,,12,,,,49,75
88780,note_off,400,0,11,,,,,,,,10,,,,69,64
88780,note_off,400,0,6,,,,,,,,4,,,,69,64
88780,note_off,400,0,5,,,,,,,,3,,,,81,64
88780,note_off,400,0,10,,,,,,,,8,,,,81,64
88855,note_off,115,0,12,,,,,,,,11,,,,61,64
88855,note_off,115,0,7,,,,,,,,5,,,,61,64
88855,note_off,115,0,8,,,,,,,,6,,,,49,64
88855,note_off,115,0,14,,,,,,,,13,,,,37,64
88855,note_off,115,0,9,,,,,,,,7,,,,37,64
88855,note_off,115,0,13,,,,,,,,12,,,,49,64
88860,note_on,5,0,9,,,,,,,,7,,,,33,92
88860,note_on,5,0,8,,,,,,,,6,,,,45,92
88860,note_on,5,0,13,,,,,,,,12,,,,45,75
88860,note_on,5,0,7,,,,,,,,5,,,,57,92
88860,note_on,5,0,12,,,,,,,,11,,,,57,75
88860,note_on,5,0,14,,,,,,,,13,,,,33,75
88860,note_on,6440,0,15,,,,,,,,14,,,,33,60
88980,set_tempo,2040,1,0,967741,,,,,,,,,,,,
89220,note_on,920,0,3,,,,,,,,1,,,,85,60
89220,note_on,920,0,4,,,,,,,,2,,,,85,45
89260,note_off,400,0,7,,,,,,,,5,,,,57,64
89260,note_off,400,0,15,,,,,,,,14,,,,33,64
89260,note_off,400,0,14,,,,,,,,13,,,,33,64
89260,note_off,400,0,13,,,,,,,,12,,,,45,64
89260,note_off,400,0,8,,,,,,,,6,,,,45,64
89260,note_off,400,0,9,,,,,,,,7,,,,33,64
89260,note_off,400,0,12,,,,,,,,11,,,,57,64
89460,note_off,240,0,4,,,,,,,,2,,,,85,64
89460,note_on,0,0,3,,,,,,,,1,,,,86,60
89460,note_on,0,0,4,,,,,,,,2,,,,86,45
89460,note_off,240,0,3,,,,,,,,1,,,,85,64
89700,note_off,240,0,4,,,,,,,,2,,,,86,64
89700,note_on,0,0,4,,,,,,,,2,,,,88,45
89700,note_on,0,0,3,,,,,,,,1,,,,88,60
89700,note_off,240,0,3,,,,,,,,1,,,,86,64
89935,note_off,235,0,3,,,,,,,,1,,,,88,64
89935,note_off,235,0,4,,,,,,,,2,,,,88,64
89940,set_tempo,960,1,0,769230,,,,,,,,,,,,
89940,note_on,680,0,7,,,,,,,,5,,,,64,45
89940,note_on,2600,0,2,,,,,,,,0,,,,52,30
89940,note_on,5,0,4,,,,,,,,2,,,,79,45
89940,note_on,1160,0,10,,,,,,,,8,,,,76,30
89940,note_on,680,0,12,,,,,,,,11,,,,64,30
89940,note_on,680,0,9,,,,,,,,7,,,,40,45
89940,note_on,1160,0,5,,,,,,,,3,,,,76,45
89940,note_on,5,0,3,,,,,,,,1,,,,79,60
89940,note_on,680,0,13,,,,,,,,12,,,,52,30
89940,note_on,680,0,14,,,,,,,,13,,,,40,30
89940,note_on,680,0,8,,,,,,,,6,,,,52,45
90180,note_on,0,0,14,,,,,,,,13,,,,38,30
90180,note_off,240,0,14,,,,,,,,13,,,,40,64
90180,note_off,240,0,7,,,,,,,,5,,,,64,64
90180,note_on,0,0,7,,,,,,,,5,,,,62,45
90180,note_off,240,0,9,,,,,,,,7,,,,40,64
90180,note_on,0,0,9,,,,,,,,7,,,,38,45
90180,note_off,240,0,13,,,,,,,,12,,,,52,64
90180,note_on,0,0,13,,,,,,,,12,,,,50,30
90180,note_off,240,0,10,,,,,,,,8,,,,76,64
90180,note_off,240,0,8,,,,,,,,6,,,,52,64
90180,note_on,0,0,5,,,,,,,,3,,,,74,45
90180,note_off,240,0,5,,,,,,,,3,,,,76,64
90180,note_on,0,0,12,,,,,,,,11,,,,62,30
90180,note_off,240,0,12,,,,,,,,11,,,,64,64
90180,note_on,0,0,8,,,,,,,,6,,,,50,45
90180,note_on,0,0,2,,,,,,,,0,,,,50,30
90180,note_off,240,0,2,,,,,,,,0,,,,52,64
90180,note_on,0,0,10,,,,,,,,8,,,,74,30
90420,note_off,240,0,10,,,,,,,,8,,,,74,64
90420,note_off,240,0,9,,,,,,,,7,,,,38,64
90420,note_on,0,0,7,,,,,,,,5,,,,61,45
90420,note_off,240,0,7,,,,,,,,5,,,,62,64
90420,note_on,0,0,2,,,,,,,,0,,,,49,30
90420,note_off,240,0,2,,,,,,,,0,,,,50,64
90420,note_off,240,0,8,,,,,,,,6,,,,50,64
90420,note_on,0,0,8,,,,,,,,6,,,,49,45
90420,note_on,0,0,9,,,,,,,,7,,,,37,45
90420,note_on,0,0,13,,,,,,,,12,,,,49,30
90420,note_off,240,0,14,,,,,,,,13,,,,38,64
90420,note_on,0,0,14,,,,,,,,13,,,,37,30
90420,note_off,240,0,13,,,,,,,,12,,,,50,64
90420,note_on,0,0,5,,,,,,,,3,,,,73,45
90420,note_off,240,0,12,,,,,,,,11,,,,62,64
90420,note_on,0,0,12,,,,,,,,11,,,,61,30
90420,note_off,240,0,5,,,,,,,,3,,,,74,64
90420,note_on,0,0,10,,,,,,,,8,,,,73,30
90660,note_on,0,0,14,,,,,,,,13,,,,34,30
90660,note_off,240,0,13,,,,,,,,12,,,,49,64
90660,note_on,0,0,13,,,,,,,,12,,,,46,30
90660,note_on,0,0,7,,,,,,,,5,,,,58,45
90660,note_off,240,0,7,,,,,,,,5,,,,61,64
90660,note_off,240,0,10,,,,,,,,8,,,,73,64
90660,note_on,0,0,12,,,,,,,,11,,,,58,30
90660,note_off,240,0,12,,,,,,,,11,,,,61,64
90660,note_off,240,0,8,,,,,,,,6,,,,49,64
90660,note_on,0,0,10,,,,,,,,8,,,,70,30
90660,note_off,240,0,5,,,,,,,,3,,,,73,64
90660,note_off,240,0,14,,,,,,,,13,,,,37,64
90660,note_on,0,0,5,,,,,,,,3,,,,70,45
90660,note_on,0,0,8,,,,,,,,6,,,,46,45
90660,note_on,0,0,9,,,,,,,,7,,,,34,45
90660,note_on,0,0,2,,,,,,,,0,,,,46,30
90660,note_off,240,0,2,,,,,,,,0,,,,49,64
90660,note_off,240,0,9,,,,,,,,7,,,,37,64
90900,note_on,0,0,5,,,,,,,,3,,,,69,45
90900,note_on,0,0,2,,,,,,,,0,,,,45,30
90900,note_off,240,0,2,,,,,,,,0,,,,46,64
90900,note_off,240,0,8,,,,,,,,6,,,,46,64
90900,note_on,0,0,8,,,,,,,,6,,,,45,45
90900,note_on,0,0,14,,,,,,,,13,,,,33,30
90900,note_on,0,0,10,,,,,,,,8,,,,69,30
90900,note_on,0,0,7,,,,,,,,5,,,,57,45
90900,note_off,240,0,10,,,,,,,,8,,,,70,64
90900,note_off,240,0,12,,,,,,,,11,,,,58,64
90900,note_on,0,0,12,,,,,,,,11,,,,57,30
90900,note_on,0,0,9,,,,,,,,7,,,,33,45
90900,note_off,240,0,9,,,,,,,,7,,,,34,64
90900,note_on,0,0,13,,,,,,,,12,,,,45,30
90900,note_off,240,0,13,,,,,,,,12,,,,46,64
90900,note_off,240,0,5,,,,,,,,3,,,,70,64
90900,note_off,240,0,14,,,,,,,,13,,,,34,64
90900,note_off,240,0,7,,,,,,,,5,,,,58,64
91140,note_on,0,0,10,,,,,,,,8,,,,67,30
91140,note_off,240,0,10,,,,,,,,8,,,,69,64
91140,note_on,0,0,9,,,,,,,,7,,,,31,45
91140,note_off,240,0,9,,,,,,,,7,,,,33,64
91140,note_off,240,0,14,,,,,,,,13,,,,33,64
91140,note_on,0,0,5,,,,,,,,3,,,,67,45
91140,note_on,0,0,14,,,,,,,,13,,,,31,30
91140,note_on,0,0,7,,,,,,,,5,,,,55,45
91140,note_off,240,0,5,,,,,,,,3,,,,69,64
91140,note_off,240,0,8,,,,,,,,6,,,,45,64
91140,note_on,0,0,8,,,,,,,,6,,,,43,45
91140,note_on,0,0,2,,,,,,,,0,,,,43,30
91140,note_off,240,0,13,,,,,,,,12,,,,45,64
91140,note_off,240,0,2,,,,,,,,0,,,,45,64
91140,note_off,240,0,7,,,,,,,,5,,,,57,64
91140,note_off,240,0,12,,,,,,,,11,,,,57,64
91140,note_on,0,0,12,,,,,,,,11,,,,55,30
91140,note_on,0,0,13,,,,,,,,12,,,,43,30
91380,note_on,0,0,12,,,,,,,,11,,,,53,30
91380,note_off,240,0,12,,,,,,,,11,,,,55,64
91380,note_on,0,0,9,,,,,,,,7,,,,29,45
91380,note_off,240,0,8,,,,,,,,6,,,,43,64
91380,note_on,0,0,14,,,,,,,,13,,,,29,30
91380,note_off,240,0,14,,,,,,,,13,,,,31,64
91380,note_on,0,0,8,,,,,,,,6,,,,41,45
91380,note_off,240,0,9,,,,,,,,7,,,,31,64
91380,note_on,0,0,10,,,,,,,,8,,,,65,30
91380,note_on,0,0,5,,,,,,,,3,,,,65,45
91380,note_off,240,0,5,,,,,,,,3,,,,67,64
91380,note_on,0,0,13,,,,,,,,12,,,,41,30
91380,note_on,0,0,7,,,,,,,,5,,,,53,45
91380,note_off,240,0,7,,,,,,,,5,,,,55,64
91380,note_off,240,0,2,,,,,,,,0,,,,43,64
91380,note_off,240,0,13,,,,,,,,12,,,,43,64
91380,note_on,0,0,2,,,,,,,,0,,,,41,30
91380,note_off,240,0,10,,,,,,,,8,,,,67,64
91620,note_on,0,0,8,,,,,,,,6,,,,40,45
91620,note_off,240,0,12,,,,,,,,11,,,,53,64
91620,note_on,0,0,12,,,,,,,,11,,,,52,30
91620,note_on,0,0,10,,,,,,,,8,,,,64,30
91620,note_off,240,0,13,,,,,,,,12,,,,41,64
91620,note_on,0,0,13,,,,,,,,12,,,,40,30
91620,note_off,240,0,10,,,,,,,,8,,,,65,64
91620,note_off,240,0,9,,,,,,,,7,,,,29,64
91620,note_off,240,0,8,,,,,,,,6,,,,41,64
91620,note_on,0,0,9,,,,,,,,7,,,,28,45
91620,note_off,240,0,2,,,,,,,,0,,,,41,64
91620,note_off,240,0,7,,,,,,,,5,,,,53,64
91620,note_off,240,0,14,,,,,,,,13,,,,29,64
91620,note_on,0,0,14,,,,,,,,13,,,,28,30
91620,note_on,0,0,5,,,,,,,,3,,,,64,45
91620,note_on,0,0,2,,,,,,,,0,,,,40,30
91620,note_off,240,0,5,,,,,,,,3,,,,65,64
91620,note_on,0,0,7,,,,,,,,5,,,,52,45
91740,note_off,1800,0,3,,,,,,,,1,,,,79,64
91740,note_off,1800,0,4,,,,,,,,2,,,,79,64
91860,note_off,240,0,10,,,,,,,,8,,,,64,64
91860,note_on,0,0,10,,,,,,,,8,,,,57,30
91860,note_on,0,0,5,,,,,,,,3,,,,57,45
91860,note_on,120,0,4,,,,,,,,2,,,,79,75
91860,note_on,0,0,12,,,,,,,,11,,,,45,30
91860,note_off,240,0,12,,,,,,,,11,,,,52,64
91860,note_on,0,0,2,,,,,,,,0,,,,45,30
91860,note_on,120,0,3,,,,,,,,1,,,,79,92
91860,note_on,0,0,2,,,,,,,,0,,,,33,30
91860,set_tempo,1920,1,0,588235,,,,,,,,,,,,
91860,note_off,240,0,2,,,,,,,,0,,,,40,64
91860,note_on,0,0,7,,,,,,,,5,,,,45,45
91860,note_off,240,0,7,,,,,,,,5,,,,52,64
91860,note_off,240,0,8,,,,,,,,6,,,,40,64
91860,note_on,0,0,8,,,,,,,,6,,,,33,45
91860,note_on,0,0,13,,,,,,,,12,,,,33,30
91860,note_on,0,0,14,,,,,,,,13,,,,21,30
91860,note_off,240,0,13,,,,,,,,12,,,,40,64
91860,note_off,240,0,14,,,,,,,,13,,,,28,64
91860,note_off,240,0,9,,,,,,,,7,,,,28,64
91860,note_on,0,0,9,,,,,,,,7,,,,21,45
91860,note_off,240,0,5,,,,,,,,3,,,,64,64
91940,note_on,0,0,4,,,,,,,,2,,,,82,75
91940,note_off,80,0,3,,,,,,,,1,,,,79,64
91940,note_on,0,0,3,,,,,,,,1,,,,82,92
91940,note_off,80,0,4,,,,,,,,2,,,,79,64
92020,note_on,0,0,3,,,,,,,,1,,,,79,92
92020,note_off,80,0,4,,,,,,,,2,,,,82,64
92020,note_on,0,0,4,,,,,,,,2,,,,79,75
92020,note_off,80,0,3,,,,,,,,1,,,,82,64
92072,note_off,52,0,4,,,,,,,,2,,,,79,64
92072,note_off,52,0,3,,,,,,,,1,,,,79,64
92100,note_on,28,0,4,,,,,,,,2,,,,76,75
92100,note_on,28,0,3,,,,,,,,1,,,,76,92
92180,note_off,80,0,4,,,,,,,,2,,,,76,64
92180,note_on,0,0,4,,,,,,,,2,,,,79,75
92180,note_on,0,0,3,,,,,,,,1,,,,79,92
92180,note_off,80,0,3,,,,,,,,1,,,,76,64
92260,note_off,400,0,9,,,,,,,,7,,,,21,64
92260,note_on,0,0,4,,,,,,,,2,,,,76,75
92260,note_off,400,0,8,,,,,,,,6,,,,33,64
92260,note_off,400,0,14,,,,,,,,13,,,,21,64
92260,note_off,400,0,5,,,,,,,,3,,,,57,64
92260,note_off,0,0,2,,,,,,,,0,,,,33,64
92260,note_off,400,0,7,,,,,,,,5,,,,45,64
92260,note_off,400,0,12,,,,,,,,11,,,,45,64
92260,note_off,400,0,2,,,,,,,,0,,,,45,64
92260,note_off,400,0,10,,,,,,,,8,,,,57,64
92260,note_off,400,0,13,,,,,,,,12,,,,33,64
92260,note_off,80,0,4,,,,,,,,2,,,,79,64
92260,note_on,0,0,3,,,,,,,,1,,,,76,92
92260,note_off,80,0,3,,,,,,,,1,,,,79,64
92312,note_off,52,0,3,,,,,,,,1,,,,76,64
92312,note_off,52,0,4,,,,,,,,2,,,,76,64
92340,note_on,28,0,3,,,,,,,,1,,,,73,92
92340,note_on,28,0,4,,,,,,,,2,,,,73,75
92420,note_off,80,0,4,,,,,,,,2,,,,73,64
92420,note_on,0,0,4,,,,,,,,2,,,,76,75
92420,note_on,0,0,3,,,,,,,,1,,,,76,92
92420,note_off,80,0,3,,,,,,,,1,,,,73,64
92500,note_off,80,0,3,,,,,,,,1,,,,76,64
92500,note_on,0,0,3,,,,,,,,1,,,,73,92
92500,note_off,80,0,4,,,,,,,,2,,,,76,64
92500,note_on,0,0,4,,,,,,,,2,,,,73,75
92552,note_off,52,0,4,,,,,,,,2,,,,73,64
92552,note_off,52,0,3,,,,,,,,1,,,,73,64
92580,note_on,28,0,4,,,,,,,,2,,,,67,75
92580,note_on,28,0,3,,,,,,,,1,,,,67,92
92660,note_off,80,0,4,,,,,,,,2,,,,67,64
92660,note_on,0,0,3,,,,,,,,1,,,,73,92
92660,note_off,80,0,3,,,,,,,,1,,,,67,64
92660,note_on,0,0,4,,,,,,,,2,,,,73,75
92740,note_off,80,0,3,,,,,,,,1,,,,73,64
92740,note_on,0,0,3,,,,,,,,1,,,,67,92
92740,note_on,0,0,4,,,,,,,,2,,,,67,75
92740,note_off,80,0,4,,,,,,,,2,,,,73,64
92792,note_off,52,0,3,,,,,,,,1,,,,67,64
92792,note_off,52,0,4,,,,,,,,2,,,,67,64
92820,note_on,28,0,4,,,,,,,,2,,,,66,75
92820,note_on,28,0,3,,,,,,,,1,,,,66,92
92940,note_on,680,0,10,,,,,,,,8,,,,62,75
92940,note_on,680,0,5,,,,,,,,3,,,,62,92
93055,note_off,115,0,10,,,,,,,,8,,,,62,64
93055,note_off,115,0,5,,,,,,,,3,,,,62,64
93060,note_on,5,0,10,,,,,,,,8,,,,66,75
93060,note_on,5,0,5,,,,,,,,3,,,,66,92
93175,note_off,115,0,5,,,,,,,,3,,,,66,64
93175,note_off,115,0,10,,,,,,,,8,,,,66,64
93180,note_on,5,0,10,,,,,,,,8,,,,69,75
93180,note_on,5,0,5,,,,,,,,3,,,,69,92
93220,note_off,400,0,4,,,,,,,,2,,,,66,64
93220,note_off,400,0,3,,,,,,,,1,,,,66,64
93295,note_off,115,0,10,,,,,,,,8,,,,69,64
93295,note_off,115,0,5,,,,,,,,3,,,,69,64
93300,note_on,5,0,10,,,,,,,,8,,,,74,75
93300,note_on,5,0,5,,,,,,,,3,,,,74,92
93420,note_on,1160,0,7,,,,,,,,5,,,,74,92
93420,note_on,1160,0,13,,,,,,,,12,,,,62,75
93420,note_on,1160,0,8,,,,,,,,6,,,,62,92
93420,note_on,1160,0,12,,,,,,,,11,,,,74,75
93420,note_on,1160,0,14,,,,,,,,13,,,,50,75
93420,note_on,1160,0,9,,,,,,,,7,,,,50,92
93535,note_off,115,0,9,,,,,,,,7,,,,50,64
93535,note_off,115,0,13,,,,,,,,12,,,,62,64
93535,note_off,115,0,8,,,,,,,,6,,,,62,64
93535,note_off,115,0,14,,,,,,,,13,,,,50,64
93535,note_off,115,0,12,,,,,,,,11,,,,74,64
93535,note_off,115,0,7,,,,,,,,5,,,,74,64
93540,note_on,5,0,8,,,,,,,,6,,,,57,92
93540,note_on,5,0,14,,,,,,,,13,,,,45,75
93540,note_on,5,0,7,,,,,,,,5,,,,69,92
93540,note_on,5,0,13,,,,,,,,12,,,,57,75
93540,note_on,5,0,12,,,,,,,,11,,,,69,75
93540,note_on,5,0,9,,,,,,,,7,,,,45,92
93655,note_off,115,0,7,,,,,,,,5,,,,69,64
93655,note_off,115,0,12,,,,,,,,11,,,,69,64
93655,note_off,115,0,14,,,,,,,,13,,,,45,64
93655,note_off,115,0,8,,,,,,,,6,,,,57,64
93655,note_off,115,0,9,,,,,,,,7,,,,45,64
93655,note_off,115,0,13,,,,,,,,12,,,,57,64
93660,note_on,5,0,13,,,,,,,,12,,,,54,75
93660,note_on,5,0,14,,,,,,,,13,,,,42,75
93660,note_on,5,0,7,,,,,,,,5,,,,66,92
93660,note_on,5,0,12,,,,,,,,11,,,,66,75
93660,note_on,5,0,8,,,,,,,,6,,,,54,92
93660,note_on,5,0,9,,,,,,,,7,,,,42,92
93700,note_off,400,0,5,,,,,,,,3,,,,74,64
93700,note_off,400,0,10,,,,,,,,8,,,,74,64
93775,note_off,115,0,9,,,,,,,,7,,,,42,64
93775,note_off,115,0,13,,,,,,,,12,,,,54,64
93775,note_off,115,0,8,,,,,,,,6,,,,54,64
93775,note_off,115,0,12,,,,,,,,11,,,,66,64
93775,note_off,115,0,7,,,,,,,,5,,,,66,64
93775,note_off,115,0,14,,,,,,,,13,,,,42,64
93780,note_on,5,0,14,,,,,,,,13,,,,38,45
93780,set_tempo,1920,1,0,625000,,,,,,,,,,,,
93780,note_on,5,0,13,,,,,,,,12,,,,50,45
93780,note_on,560,0,4,,,,,,,,2,,,,84,60
93780,note_on,5,0,12,,,,,,,,11,,,,62,45
93780,note_on,560,0,3,,,,,,,,1,,,,84,75
93780,note_on,4520,0,15,,,,,,,,14,,,,38,45
93780,note_on,5,0,7,,,,,,,,5,,,,62,60
93780,note_on,80,0,5,,,,,,,,3,,,,62,60
93780,note_on,5,0,9,,,,,,,,7,,,,38,60
93780,note_on,80,0,10,,,,,,,,8,,,,62,45
93780,note_on,1520,0,2,,,,,,,,0,,,,38,30
93780,note_on,0,0,2,,,,,,,,0,,,,50,30
93780,note_on,5,0,8,,,,,,,,6,,,,50,60
93832,note_off,52,0,4,,,,,,,,2,,,,84,64
93832,note_off,52,0,3,,,,,,,,1,,,,84,64
93860,note_on,28,0,4,,,,,,,,2,,,,87,60
93860,note_on,28,0,3,,,,,,,,1,,,,87,75
93940,note_off,80,0,4,,,,,,,,2,,,,87,64
93940,note_on,0,0,4,,,,,,,,2,,,,86,60
93940,note_off,80,0,3,,,,,,,,1,,,,87,64
93940,note_on,0,0,3,,,,,,,,1,,,,86,75
94020,note_on,0,0,4,,,,,,,,2,,,,84,60
94020,note_off,80,0,4,,,,,,,,2,,,,86,64
94020,note_off,80,0,3,,,,,,,,1,,,,86,64
94020,note_on,0,0,3,,,,,,,,1,,,,84,75
94100,note_on,0,0,3,,,,,,,,1,,,,86,75
94100,note_off,80,0,3,,,,,,,,1,,,,84,64
94100,note_off,80,0,4,,,,,,,,2,,,,84,64
94100,note_on,0,0,4,,,,,,,,2,,,,86,60
94180,note_off,400,0,7,,,,,,,,5,,,,62,64
94180,note_off,400,0,2,,,,,,,,0,,,,50,64
94180,note_off,400,0,10,,,,,,,,8,,,,62,64
94180,note_off,400,0,5,,,,,,,,3,,,,62,64
94180,note_off,0,0,2,,,,,,,,0,,,,38,64
94180,note_on,0,0,3,,,,,,,,1,,,,87,75
94180,note_on,0,0,4,,,,,,,,2,,,,87,60
94180,note_off,80,0,3,,,,,,,,1,,,,86,64
94180,note_off,400,0,13,,,,,,,,12,,,,50,64
94180,note_off,80,0,4,,,,,,,,2,,,,86,64
94180,note_off,400,0,15,,,,,,,,14,,,,38,64
94180,note_off,400,0,14,,,,,,,,13,,,,38,64
94180,note_off,400,0,9,,,,,,,,7,,,,38,64
94180,note_off,400,0,8,,,,,,,,6,,,,50,64
94180,note_off,400,0,12,,,,,,,,11,,,,62,64
94232,note_off,52,0,3,,,,,,,,1,,,,87,64
94232,note_off,52,0,4,,,,,,,,2,,,,87,64
94260,note_on,28,0,3,,,,,,,,1,,,,81,75
94260,note_on,28,0,4,,,,,,,,2,,,,81,60
94312,note_off,52,0,4,,,,,,,,2,,,,81,64
94312,note_off,52,0,3,,,,,,,,1,,,,81,64
94340,note_on,28,0,4,,,,,,,,2,,,,84,60
94340,note_on,28,0,3,,,,,,,,1,,,,84,75
94420,note_off,80,0,4,,,,,,,,2,,,,84,64
94420,note_on,0,0,4,,,,,,,,2,,,,82,60
94420,note_off,80,0,3,,,,,,,,1,,,,84,64
94420,note_on,0,0,3,,,,,,,,1,,,,82,75
94500,note_off,80,0,3,,,,,,,,1,,,,82,64
94500,note_on,0,0,4,,,,,,,,2,,,,81,60
94500,note_off,80,0,4,,,,,,,,2,,,,82,64
94500,note_on,0,0,3,,,,,,,,1,,,,81,75
94580,note_on,0,0,4,,,,,,,,2,,,,82,60
94580,note_off,80,0,4,,,,,,,,2,,,,81,64
94580,note_off,80,0,3,,,,,,,,1,,,,81,64
94580,note_on,0,0,3,,,,,,,,1,,,,82,75
94660,note_on,0,0,4,,,,,,,,2,,,,84,60
94660,note_off,80,0,4,,,,,,,,2,,,,82,64
94660,note_off,80,0,3,,,,,,,,1,,,,82,64
94660,note_on,0,0,3,,,,,,,,1,,,,84,75
94712,note_off,52,0,4,,,,,,,,2,,,,84,64
94712,note_off,52,0,3,,,,,,,,1,,,,84,64
94740,note_on,560,0,14,,,,,,,,13,,,,38,45
94740,note_on,560,0,9,,,,,,,,7,,,,38,60
94740,note_on,560,0,15,,,,,,,,14,,,,38,45
94740,note_on,560,0,12,,,,,,,,11,,,,62,45
94740,note_on,560,0,10,,,,,,,,8,,,,62,45
94740,note_on,560,0,13,,,,,,,,12,,,,50,45
94740,note_on,560,0,8,,,,,,,,6,,,,50,60
94740,note_on,28,0,3,,,,,,,,1,,,,78,75
94740,note_on,560,0,5,,,,,,,,3,,,,62,60
94740,note_on,560,0,2,,,,,,,,0,,,,38,30
94740,note_on,0,0,2,,,,,,,,0,,,,50,30
94740,note_on,560,0,7,,,,,,,,5,,,,62,60
94740,note_on,28,0,4,,,,,,,,2,,,,78,60
94792,note_off,52,0,4,,,,,,,,2,,,,78,64
94792,note_off,52,0,3,,,,,,,,1,,,,78,64
94820,note_on,28,0,3,,,,,,,,1,,,,81,75
94820,note_on,28,0,4,,,,,,,,2,,,,81,60
94900,note_on,0,0,4,,,,,,,,2,,,,79,60
94900,note_on,0,0,3,,,,,,,,1,,,,79,75
94900,note_off,80,0,3,,,,,,,,1,,,,81,64
94900,note_off,80,0,4,,,,,,,,2,,,,81,64
94980,note_on,0,0,4,,,,,,,,2,,,,78,60
94980,note_off,80,0,4,,,,,,,,2,,,,79,64
94980,note_off,80,0,3,,,,,,,,1,,,,79,64
94980,note_on,0,0,3,,,,,,,,1,,,,78,75
95060,note_off,80,0,4,,,,,,,,2,,,,78,64
95060,note_off,80,0,3,,,,,,,,1,,,,78,64
95060,note_on,0,0,3,,,,,,,,1,,,,79,75
95060,note_on,0,0,4,,,,,,,,2,,,,79,60
95140,note_off,400,0,8,,,,,,,,6,,,,50,64
95140,note_off,400,0,2,,,,,,,,0,,,,50,64
95140,note_off,400,0,14,,,,,,,,13,,,,38,64
95140,note_off,400,0,9,,,,,,,,7,,,,38,64
95140,note_off,400,0,13,,,,,,,,12,,,,50,64
95140,note_off,0,0,2,,,,,,,,0,,,,38,64
95140,note_off,80,0,3,,,,,,,,1,,,,79,64
95140,note_off,400,0,5,,,,,,,,3,,,,62,64
95140,note_off,400,0,7,,,,,,,,5,,,,62,64
95140,note_off,400,0,15,,,,,,,,14,,,,38,64
95140,note_off,400,0,10,,,,,,,,8,,,,62,64
95140,note_on,0,0,4,,,,,,,,2,,,,81,60
95140,note_off,80,0,4,,,,,,,,2,,,,79,64
95140,note_off,400,0,12,,,,,,,,11,,,,62,64
95140,note_on,0,0,3,,,,,,,,1,,,,81,75
95192,note_off,52,0,3,,,,,,,,1,,,,81,64
95192,note_off,52,0,4,,,,,,,,2,,,,81,64
95220,note_on,28,0,3,,,,,,,,1,,,,72,75
95220,note_on,28,0,4,,,,,,,,2,,,,72,60
95272,note_off,52,0,3,,,,,,,,1,,,,72,64
95272,note_off,52,0,4,,,,,,,,2,,,,72,64
95300,note_on,28,0,3,,,,,,,,1,,,,75,75
95300,note_on,28,0,4,,,,,,,,2,,,,75,60
95380,note_on,0,0,4,,,,,,,,2,,,,74,60
95380,note_off,80,0,3,,,,,,,,1,,,,75,64
95380,note_on,0,0,3,,,,,,,,1,,,,74,75
95380,note_off,80,0,4,,,,,,,,2,,,,75,64
95460,note_on,0,0,3,,,,,,,,1,,,,72,75
95460,note_off,80,0,3,,,,,,,,1,,,,74,64
95460,note_off,80,0,4,,,,,,,,2,,,,74,64
95460,note_on,0,0,4,,,,,,,,2,,,,72,60
95540,note_on,0,0,3,,,,,,,,1,,,,74,75
95540,note_off,80,0,3,,,,,,,,1,,,,72,64
95540,note_off,80,0,4,,,,,,,,2,,,,72,64
95540,note_on,0,0,4,,,,,,,,2,,,,74,60
95620,note_on,0,0,3,,,,,,,,1,,,,75,75
95620,note_on,0,0,4,,,,,,,,2,,,,75,60
95620,note_off,80,0,3,,,,,,,,1,,,,74,64
95620,note_off,80,0,4,,,,,,,,2,,,,74,64
95672,note_off,52,0,4,,,,,,,,2,,,,75,64
95672,note_off,52,0,3,,,,,,,,1,,,,75,64
95700,note_on,560,0,5,,,,,,,,3,,,,62,60
95700,note_on,0,0,2,,,,,,,,0,,,,50,30
95700,note_on,560,0,2,,,,,,,,0,,,,38,30
95700,note_on,560,0,14,,,,,,,,13,,,,38,45
95700,note_on,560,0,12,,,,,,,,11,,,,62,45
95700,note_on,560,0,9,,,,,,,,7,,,,38,60
95700,note_on,560,0,13,,,,,,,,12,,,,50,45
95700,note_on,560,0,7,,,,,,,,5,,,,62,60
95700,note_on,28,0,3,,,,,,,,1,,,,69,75
95700,note_on,560,0,10,,,,,,,,8,,,,62,45
95700,note_on,560,0,8,,,,,,,,6,,,,50,60
95700,note_on,560,0,15,,,,,,,,14,,,,38,45
95700,note_on,28,0,4,,,,,,,,2,,,,69,60
95752,note_off,52,0,4,,,,,,,,2,,,,69,64
95752,note_off,52,0,3,,,,,,,,1,,,,69,64
95780,note_on,28,0,4,,,,,,,,2,,,,72,60
95780,note_on,28,0,3,,,,,,,,1,,,,72,75
95860,note_off,80,0,3,,,,,,,,1,,,,72,64
95860,note_on,0,0,4,,,,,,,,2,,,,70,60
95860,note_off,80,0,4,,,,,,,,2,,,,72,64
95860,note_on,0,0,3,,,,,,,,1,,,,70,75
95940,note_off,80,0,4,,,,,,,,2,,,,70,64
95940,note_on,0,0,4,,,,,,,,2,,,,69,60
95940,note_on,0,0,3,,,,,,,,1,,,,69,75
95940,note_off,80,0,3,,,,,,,,1,,,,70,64
96020,note_off,80,0,3,,,,,,,,1,,,,69,64
96020,note_on,0,0,4,,,,,,,,2,,,,70,60
96020,note_off,80,0,4,,,,,,,,2,,,,69,64
96020,note_on,0,0,3,,,,,,,,1,,,,70,75
96100,note_off,400,0,5,,,,,,,,3,,,,62,64
96100,note_off,400,0,12,,,,,,,,11,,,,62,64
96100,note_on,0,0,3,,,,,,,,1,,,,72,75
96100,note_off,400,0,7,,,,,,,,5,,,,62,64
96100,note_off,400,0,10,,,,,,,,8,,,,62,64
96100,note_off,80,0,3,,,,,,,,1,,,,70,64
96100,note_on,0,0,4,,,,,,,,2,,,,72,60
96100,note_off,80,0,4,,,,,,,,2,,,,70,64
96100,note_off,400,0,15,,,,,,,,14,,,,38,64
96100,note_off,400,0,13,,,,,,,,12,,,,50,64
96100,note_off,0,0,2,,,,,,,,0,,,,38,64
96100,note_off,400,0,2,,,,,,,,0,,,,50,64
96100,note_off,400,0,14,,,,,,,,13,,,,38,64
96100,note_off,400,0,9,,,,,,,,7,,,,38,64
96100,note_off,400,0,8,,,,,,,,6,,,,50,64
96152,note_off,52,0,4,,,,,,,,2,,,,72,64
96152,note_off,52,0,3,,,,,,,,1,,,,72,64
96180,note_on,28,0,4,,,,,,,,2,,,,66,60
96180,note_on,28,0,3,,,,,,,,1,,,,66,75
96232,note_off,52,0,4,,,,,,,,2,,,,66,64
96232,note_off,52,0,3,,,,,,,,1,,,,66,64
96260,note_on,28,0,4,,,,,,,,2,,,,69,60
96260,note_on,28,0,3,,,,,,,,1,,,,69,75
96340,note_on,0,0,3,,,,,,,,1,,,,67,75
96340,note_off,80,0,3,,,,,,,,1,,,,69,64
96340,note_on,0,0,4,,,,,,,,2,,,,67,60
96340,note_off,80,0,4,,,,,,,,2,,,,69,64
96420,note_on,0,0,4,,,,,,,,2,,,,66,60
96420,note_off,80,0,4,,,,,,,,2,,,,67,64
96420,note_off,80,0,3,,,,,,,,1,,,,67,64
96420,note_on,0,0,3,,,,,,,,1,,,,66,75
96500,note_off,80,0,4,,,,,,,,2,,,,66,64
96500,note_off,80,0,3,,,,,,,,1,,,,66,64
96500,note_on,0,0,3,,,,,,,,1,,,,67,75
96500,note_on,0,0,4,,,,,,,,2,,,,67,60
96580,note_off,80,0,3,,,,,,,,1,,,,67,64
96580,note_on,0,0,3,,,,,,,,1,,,,69,75
96580,note_on,0,0,4,,,,,,,,2,,,,69,60
96580,note_off,80,0,4,,,,,,,,2,,,,67,64
96632,note_off,52,0,4,,,,,,,,2,,,,69,64
96632,note_off,52,0,3,,,,,,,,1,,,,69,64
96660,note_on,560,0,13,,,,,,,,12,,,,55,45
96660,note_on,28,0,4,,,,,,,,2,,,,70,60
96660,note_on,28,0,3,,,,,,,,1,,,,70,105
96660,note_on,560,0,8,,,,,,,,6,,,,55,60
96720,note_on,0,0,4,,,,,,,,2,,,,72,60
96720,note_on,0,0,3,,,,,,,,1,,,,72,75
96720,note_off,60,0,4,,,,,,,,2,,,,70,64
96720,note_off,60,0,3,,,,,,,,1,,,,70,64
96775,note_off,115,0,13,,,,,,,,12,,,,55,64
96775,note_off,115,0,8,,,,,,,,6,,,,55,64
96780,note_on,5,0,13,,,,,,,,12,,,,43,45
96780,note_on,5,0,8,,,,,,,,6,,,,43,60
96780,note_on,0,0,3,,,,,,,,1,,,,70,75
96780,note_off,60,0,3,,,,,,,,1,,,,72,64
96780,note_on,0,0,4,,,,,,,,2,,,,70,60
96780,note_off,60,0,4,,,,,,,,2,,,,72,64
96840,note_on,0,0,4,,,,,,,,2,,,,72,60
96840,note_on,0,0,3,,,,,,,,1,,,,72,75
96840,note_off,60,0,3,,,,,,,,1,,,,70,64
96840,note_off,60,0,4,,,,,,,,2,,,,70,64
96895,note_off,115,0,13,,,,,,,,12,,,,43,64
96895,note_off,115,0,8,,,,,,,,6,,,,43,64
96900,note_off,60,0,4,,,,,,,,2,,,,72,64
96900,note_on,0,0,4,,,,,,,,2,,,,70,60
96900,note_on,0,0,3,,,,,,,,1,,,,70,75
96900,note_off,60,0,3,,,,,,,,1,,,,72,64
96900,note_on,5,0,8,,,,,,,,6,,,,43,60
96900,note_on,5,0,13,,,,,,,,12,,,,43,45
96960,note_on,0,0,3,,,,,,,,1,,,,72,75
96960,note_off,60,0,3,,,,,,,,1,,,,70,64
96960,note_on,0,0,4,,,,,,,,2,,,,72,60
96960,note_off,60,0,4,,,,,,,,2,,,,70,64
97015,note_off,115,0,13,,,,,,,,12,,,,43,64
97015,note_off,115,0,8,,,,,,,,6,,,,43,64
97020,note_on,0,0,4,,,,,,,,2,,,,70,60
97020,note_off,60,0,4,,,,,,,,2,,,,72,64
97020,note_off,60,0,3,,,,,,,,1,,,,72,64
97020,note_on,5,0,13,,,,,,,,12,,,,55,45
97020,note_on,5,0,8,,,,,,,,6,,,,55,60
97020,note_on,0,0,3,,,,,,,,1,,,,70,75
97080,note_off,60,0,4,,,,,,,,2,,,,70,64
97080,note_on,0,0,3,,,,,,,,1,,,,72,75
97080,note_on,0,0,4,,,,,,,,2,,,,72,60
97080,note_off,60,0,3,,,,,,,,1,,,,70,64
97120,note_off,40,0,4,,,,,,,,2,,,,72,64
97120,note_off,40,0,3,,,,,,,,1,,,,72,64
97135,note_off,115,0,13,,,,,,,,12,,,,55,64
97135,note_off,115,0,8,,,,,,,,6,,,,55,64
97140,note_on,5,0,13,,,,,,,,12,,,,57,45
97140,note_on,5,0,8,,,,,,,,6,,,,57,60
97140,note_on,20,0,4,,,,,,,,2,,,,72,60
97140,note_on,20,0,3,,,,,,,,1,,,,72,105
97200,note_off,60,0,3,,,,,,,,1,,,,72,64
97200,note_off,60,0,4,,,,,,,,2,,,,72,64
97200,note_on,0,0,4,,,,,,,,2,,,,74,60
97200,note_on,0,0,3,,,,,,,,1,,,,74,75
97255,note_off,115,0,13,,,,,,,,12,,,,57,64
97255,note_off,115,0,8,,,,,,,,6,,,,57,64
97260,note_on,5,0,13,,,,,,,,12,,,,45,45
97260,note_off,60,0,4,,,,,,,,2,,,,74,64
97260,note_on,0,0,4,,,,,,,,2,,,,72,60
97260,note_on,5,0,8,,,,,,,,6,,,,45,60
97260,note_on,0,0,3,,,,,,,,1,,,,72,75
97260,note_off,60,0,3,,,,,,,,1,,,,74,64
97320,note_off,60,0,3,,,,,,,,1,,,,72,64
97320,note_on,0,0,4,,,,,,,,2,,,,74,60
97320,note_on,0,0,3,,,,,,,,1,,,,74,75
97320,note_off,60,0,4,,,,,,,,2,,,,72,64
97375,note_off,115,0,8,,,,,,,,6,,,,45,64
97375,note_off,115,0,13,,,,,,,,12,,,,45,64
97380,note_on,5,0,13,,,,,,,,12,,,,45,45
97380,note_off,60,0,3,,,,,,,,1,,,,74,64
97380,note_on,5,0,8,,,,,,,,6,,,,45,60
97380,note_on,0,0,4,,,,,,,,2,,,,72,60
97380,note_off,60,0,4,,,,,,,,2,,,,74,64
97380,note_on,0,0,3,,,,,,,,1,,,,72,75
97440,note_on,0,0,4,,,,,,,,2,,,,74,60
97440,note_off,60,0,4,,,,,,,,2,,,,72,64
97440,note_off,60,0,3,,,,,,,,1,,,,72,64
97440,note_on,0,0,3,,,,,,,,1,,,,74,75
97495,note_off,115,0,8,,,,,,,,6,,,,45,64
97495,note_off,115,0,13,,,,,,,,12,,,,45,64
97500,note_on,0,0,4,,,,,,,,2,,,,72,60
97500,note_on,5,0,8,,,,,,,,6,,,,57,60
97500,note_on,5,0,13,,,,,,,,12,,,,57,45
97500,note_off,60,0,3,,,,,,,,1,,,,74,64
97500,note_on,0,0,3,,,,,,,,1,,,,72,75
97500,note_off,60,0,4,,,,,,,,2,,,,74,64
97560,note_on,0,0,4,,,,,,,,2,,,,74,60
97560,note_off,60,0,4,,,,,,,,2,,,,72,64
97560,note_off,60,0,3,,,,,,,,1,,,,72,64
97560,note_on,0,0,3,,,,,,,,1,,,,74,75
97600,note_off,40,0,4,,,,,,,,2,,,,74,64
97600,note_off,40,0,3,,,,,,,,1,,,,74,64
97615,note_off,115,0,13,,,,,,,,12,,,,57,64
97615,note_off,115,0,8,,,,,,,,6,,,,57,64
97620,note_on,20,0,4,,,,,,,,2,,,,74,60
97620,note_on,5,0,13,,,,,,,,12,,,,58,45
97620,note_on,20,0,3,,,,,,,,1,,,,74,105
97620,note_on,5,0,8,,,,,,,,6,,,,58,60
97680,note_off,60,0,4,,,,,,,,2,,,,74,64
97680,note_on,0,0,3,,,,,,,,1,,,,76,75
97680,note_off,60,0,3,,,,,,,,1,,,,74,64
97680,note_on,0,0,4,,,,,,,,2,,,,76,60
97735,note_off,115,0,8,,,,,,,,6,,,,58,64
97735,note_off,115,0,13,,,,,,,,12,,,,58,64
97740,note_off,60,0,3,,,,,,,,1,,,,76,64
97740,note_on,0,0,3,,,,,,,,1,,,,74,75
97740,note_on,5,0,13,,,,,,,,12,,,,46,45
97740,note_on,5,0,8,,,,,,,,6,,,,46,60
97740,note_off,60,0,4,,,,,,,,2,,,,76,64
97740,note_on,0,0,4,,,,,,,,2,,,,74,60
97800,note_on,0,0,3,,,,,,,,1,,,,76,75
97800,note_off,60,0,3,,,,,,,,1,,,,74,64
97800,note_on,0,0,4,,,,,,,,2,,,,76,60
97800,note_off,60,0,4,,,,,,,,2,,,,74,64
97855,note_off,115,0,8,,,,,,,,6,,,,46,64
97855,note_off,115,0,13,,,,,,,,12,,,,46,64
97860,note_on,0,0,3,,,,,,,,1,,,,74,75
97860,note_on,5,0,8,,,,,,,,6,,,,46,60
97860,note_off,60,0,3,,,,,,,,1,,,,76,64
97860,note_on,5,0,13,,,,,,,,12,,,,46,45
97860,note_on,0,0,4,,,,,,,,2,,,,74,60
97860,note_off,60,0,4,,,,,,,,2,,,,76,64
97920,note_off,60,0,4,,,,,,,,2,,,,74,64
97920,note_on,0,0,4,,,,,,,,2,,,,76,60
97920,note_on,0,0,3,,,,,,,,1,,,,76,75
97920,note_off,60,0,3,,,,,,,,1,,,,74,64
97975,note_off,115,0,8,,,,,,,,6,,,,46,64
97975,note_off,115,0,13,,,,,,,,12,,,,46,64
97980,note_off,60,0,3,,,,,,,,1,,,,76,64
97980,note_on,0,0,3,,,,,,,,1,,,,74,75
97980,note_on,5,0,13,,,,,,,,12,,,,58,45
97980,note_off,60,0,4,,,,,,,,2,,,,76,64
97980,note_on,5,0,8,,,,,,,,6,,,,58,60
97980,note_on,0,0,4,,,,,,,,2,,,,74,60
98040,note_off,60,0,3,,,,,,,,1,,,,74,64
98040,note_on,0,0,3,,,,,,,,1,,,,76,75
98040,note_off,60,0,4,,,,,,,,2,,,,74,64
98040,note_on,0,0,4,,,,,,,,2,,,,76,60
98080,note_off,40,0,4,,,,,,,,2,,,,76,64
98080,note_off,40,0,3,,,,,,,,1,,,,76,64
98095,note_off,115,0,8,,,,,,,,6,,,,58,64
98095,note_off,115,0,13,,,,,,,,12,,,,58,64
98100,note_on,5,0,8,,,,,,,,6,,,,60,60
98100,note_on,20,0,4,,,,,,,,2,,,,76,60
98100,note_on,20,0,3,,,,,,,,1,,,,76,105
98100,note_on,5,0,13,,,,,,,,12,,,,60,45
98160,note_off,60,0,4,,,,,,,,2,,,,76,64
98160,note_on,0,0,4,,,,,,,,2,,,,78,60
98160,note_off,60,0,3,,,,,,,,1,,,,76,64
98160,note_on,0,0,3,,,,,,,,1,,,,78,75
98215,note_off,115,0,8,,,,,,,,6,,,,60,64
98215,note_off,115,0,13,,,,,,,,12,,,,60,64
98220,note_off,60,0,3,,,,,,,,1,,,,78,64
98220,note_on,0,0,4,,,,,,,,2,,,,76,60
98220,note_on,0,0,3,,,,,,,,1,,,,76,75
98220,note_on,5,0,8,,,,,,,,6,,,,48,60
98220,note_on,5,0,13,,,,,,,,12,,,,48,45
98220,note_off,60,0,4,,,,,,,,2,,,,78,64
98280,note_off,60,0,3,,,,,,,,1,,,,76,64
98280,note_on,0,0,3,,,,,,,,1,,,,78,75
98280,note_off,60,0,4,,,,,,,,2,,,,76,64
98280,note_on,0,0,4,,,,,,,,2,,,,78,60
98335,note_off,115,0,13,,,,,,,,12,,,,48,64
98335,note_off,115,0,8,,,,,,,,6,,,,48,64
98340,note_off,60,0,4,,,,,,,,2,,,,78,64
98340,note_on,5,0,13,,,,,,,,12,,,,48,45
98340,note_on,0,0,4,,,,,,,,2,,,,76,60
98340,note_on,5,0,8,,,,,,,,6,,,,48,60
98340,note_off,60,0,3,,,,,,,,1,,,,78,64
98340,note_on,0,0,3,,,,,,,,1,,,,76,75
98400,note_on,0,0,3,,,,,,,,1,,,,78,75
98400,note_off,60,0,3,,,,,,,,1,,,,76,64
98400,note_on,0,0,4,,,,,,,,2,,,,78,60
98400,note_off,60,0,4,,,,,,,,2,,,,76,64
98455,note_off,115,0,8,,,,,,,,6,,,,48,64
98455,note_off,115,0,13,,,,,,,,12,,,,48,64
98460,note_on,0,0,3,,,,,,,,1,,,,76,75
98460,note_on,5,0,13,,,,,,,,12,,,,60,45
98460,note_on,5,0,8,,,,,,,,6,,,,60,60
98460,note_off,60,0,3,,,,,,,,1,,,,78,64
98460,note_on,0,0,4,,,,,,,,2,,,,76,60
98460,note_off,60,0,4,,,,,,,,2,,,,78,64
98520,note_on,0,0,4,,,,,,,,2,,,,78,60
98520,note_off,60,0,4,,,,,,,,2,,,,76,64
98520,note_off,60,0,3,,,,,,,,1,,,,76,64
98520,note_on,0,0,3,,,,,,,,1,,,,78,75
98560,note_off,40,0,4,,,,,,,,2,,,,78,64
98560,note_off,40,0,3,,,,,,,,1,,,,78,64
98575,note_off,115,0,13,,,,,,,,12,,,,60,64
98575,note_off,115,0,8,,,,,,,,6,,,,60,64
98580,note_on,20,0,4,,,,,,,,2,,,,78,60
98580,note_on,20,0,3,,,,,,,,1,,,,78,105
98580,note_on,5,0,13,,,,,,,,12,,,,62,45
98580,note_on,5,0,8,,,,,,,,6,,,,62,60
98640,note_off,60,0,4,,,,,,,,2,,,,78,64
98640,note_on,0,0,4,,,,,,,,2,,,,79,60
98640,note_off,60,0,3,,,,,,,,1,,,,78,64
98640,note_on,0,0,3,,,,,,,,1,,,,79,75
98695,note_off,115,0,13,,,,,,,,12,,,,62,64
98695,note_off,115,0,8,,,,,,,,6,,,,62,64
98700,note_on,5,0,13,,,,,,,,12,,,,50,45
98700,note_on,5,0,8,,,,,,,,6,,,,50,60
98700,note_off,60,0,4,,,,,,,,2,,,,79,64
98700,note_on,0,0,4,,,,,,,,2,,,,78,60
98700,note_off,60,0,3,,,,,,,,1,,,,79,64
98700,note_on,0,0,3,,,,,,,,1,,,,78,75
98760,note_off,60,0,4,,,,,,,,2,,,,78,64
98760,note_on,0,0,4,,,,,,,,2,,,,79,60
98760,note_off,60,0,3,,,,,,,,1,,,,78,64
98760,note_on,0,0,3,,,,,,,,1,,,,79,75
98815,note_off,115,0,13,,,,,,,,12,,,,50,64
98815,note_off,115,0,8,,,,,,,,6,,,,50,64
98820,note_on,5,0,13,,,,,,,,12,,,,50,45
98820,note_on,5,0,8,,,,,,,,6,,,,50,60
98820,note_on,0,0,3,,,,,,,,1,,,,78,75
98820,note_off,60,0,3,,,,,,,,1,,,,79,64
98820,note_on,0,0,4,,,,,,,,2,,,,78,60
98820,note_off,60,0,4,,,,,,,,2,,,,79,64
98880,note_on,0,0,4,,,,,,,,2,,,,79,60
98880,note_off,60,0,4,,,,,,,,2,,,,78,64
98880,note_on,0,0,3,,,,,,,,1,,,,79,75
98880,note_off,60,0,3,,,,,,,,1,,,,78,64
98935,note_off,115,0,8,,,,,,,,6,,,,50,64
98935,note_off,115,0,13,,,,,,,,12,,,,50,64
98940,note_on,5,0,13,,,,,,,,12,,,,62,45
98940,note_off,60,0,4,,,,,,,,2,,,,79,64
98940,note_off,60,0,3,,,,,,,,1,,,,79,64
98940,note_on,0,0,3,,,,,,,,1,,,,78,75
98940,note_on,5,0,8,,,,,,,,6,,,,62,60
98940,note_on,0,0,4,,,,,,,,2,,,,78,60
99000,note_on,0,0,4,,,,,,,,2,,,,79,60
99000,note_off,60,0,3,,,,,,,,1,,,,78,64
99000,note_off,60,0,4,,,,,,,,2,,,,78,64
99000,note_on,0,0,3,,,,,,,,1,,,,79,75
99040,note_off,40,0,4,,,,,,,,2,,,,79,64
99040,note_off,40,0,3,,,,,,,,1,,,,79,64
99055,note_off,115,0,13,,,,,,,,12,,,,62,64
99055,note_off,115,0,8,,,,,,,,6,,,,62,64
99060,note_on,20,0,4,,,,,,,,2,,,,79,60
99060,note_on,20,0,3,,,,,,,,1,,,,79,105
99060,note_on,5,0,8,,,,,,,,6,,,,63,60
99060,note_on,5,0,13,,,,,,,,12,,,,63,45
99120,note_off,60,0,4,,,,,,,,2,,,,79,64
99120,note_on,0,0,4,,,,,,,,2,,,,81,60
99120,note_on,0,0,3,,,,,,,,1,,,,81,75
99120,note_off,60,0,3,,,,,,,,1,,,,79,64
99175,note_off,115,0,8,,,,,,,,6,,,,63,64
99175,note_off,115,0,13,,,,,,,,12,,,,63,64
99180,note_on,5,0,13,,,,,,,,12,,,,51,45
99180,note_on,0,0,3,,,,,,,,1,,,,79,75
99180,note_off,60,0,3,,,,,,,,1,,,,81,64
99180,note_on,0,0,4,,,,,,,,2,,,,79,60
99180,note_off,60,0,4,,,,,,,,2,,,,81,64
99180,note_on,5,0,8,,,,,,,,6,,,,51,60
99240,note_on,0,0,3,,,,,,,,1,,,,81,75
99240,note_on,0,0,4,,,,,,,,2,,,,81,60
99240,note_off,60,0,4,,,,,,,,2,,,,79,64
99240,note_off,60,0,3,,,,,,,,1,,,,79,64
99295,note_off,115,0,8,,,,,,,,6,,,,51,64
99295,note_off,115,0,13,,,,,,,,12,,,,51,64
99300,note_on,0,0,3,,,,,,,,1,,,,79,75
99300,note_off,60,0,3,,,,,,,,1,,,,81,64
99300,note_on,5,0,8,,,,,,,,6,,,,51,60
99300,note_on,5,0,13,,,,,,,,12,,,,51,45
99300,note_on,0,0,4,,,,,,,,2,,,,79,60
99300,note_off,60,0,4,,,,,,,,2,,,,81,64
99360,note_off,60,0,4,,,,,,,,2,,,,79,64
99360,note_on,0,0,3,,,,,,,,1,,,,81,75
99360,note_off,60,0,3,,,,,,,,1,,,,79,64
99360,note_on,0,0,4,,,,,,,,2,,,,81,60
99415,note_off,115,0,8,,,,,,,,6,,,,51,64
99415,note_off,115,0,13,,,,,,,,12,,,,51,64
99420,note_off,60,0,3,,,,,,,,1,,,,81,64
99420,note_off,60,0,4,,,,,,,,2,,,,81,64
99420,note_on,5,0,13,,,,,,,,12,,,,63,45
99420,note_on,0,0,4,,,,,,,,2,,,,79,60
99420,note_on,5,0,8,,,,,,,,6,,,,63,60
99420,note_on,0,0,3,,,,,,,,1,,,,79,75
99480,note_off,60,0,3,,,,,,,,1,,,,79,64
99480,note_on,0,0,3,,,,,,,,1,,,,81,75
99480,note_on,0,0,4,,,,,,,,2,,,,81,60
99480,note_off,60,0,4,,,,,,,,2,,,,79,64
99520,note_off,40,0,3,,,,,,,,1,,,,81,64
99520,note_off,40,0,4,,,,,,,,2,,,,81,64
99535,note_off,115,0,13,,,,,,,,12,,,,63,64
99535,note_off,115,0,8,,,,,,,,6,,,,63,64
99540,note_on,5,0,8,,,,,,,,6,,,,54,60
99540,note_on,20,0,4,,,,,,,,2,,,,81,60
99540,note_on,5,0,13,,,,,,,,12,,,,54,45
99540,note_on,20,0,3,,,,,,,,1,,,,81,105
99600,note_off,60,0,3,,,,,,,,1,,,,81,64
99600,note_on,0,0,3,,,,,,,,1,,,,82,75
99600,note_off,60,0,4,,,,,,,,2,,,,81,64
99600,note_on,0,0,4,,,,,,,,2,,,,82,60
99655,note_off,115,0,8,,,,,,,,6,,,,54,64
99655,note_off,115,0,13,,,,,,,,12,,,,54,64
99660,note_on,0,0,4,,,,,,,,2,,,,81,60
99660,note_off,60,0,4,,,,,,,,2,,,,82,64
99660,note_on,5,0,13,,,,,,,,12,,,,42,45
99660,note_on,5,0,8,,,,,,,,6,,,,42,60
99660,note_off,60,0,3,,,,,,,,1,,,,82,64
99660,note_on,0,0,3,,,,,,,,1,,,,81,75
99720,note_off,60,0,4,,,,,,,,2,,,,81,64
99720,note_off,60,0,3,,,,,,,,1,,,,81,64
99720,note_on,0,0,3,,,,,,,,1,,,,82,75
99720,note_on,0,0,4,,,,,,,,2,,,,82,60
99775,note_off,115,0,8,,,,,,,,6,,,,42,64
99775,note_off,115,0,13,,,,,,,,12,,,,42,64
99780,note_on,5,0,13,,,,,,,,12,,,,42,45
99780,note_off,60,0,3,,,,,,,,1,,,,82,64
99780,note_on,0,0,3,,,,,,,,1,,,,81,75
99780,note_on,0,0,4,,,,,,,,2,,,,81,60
99780,note_off,60,0,4,,,,,,,,2,,,,82,64
99780,note_on,5,0,8,,,,,,,,6,,,,42,60
99840,note_on,0,0,4,,,,,,,,2,,,,82,60
99840,note_off,60,0,4,,,,,,,,2,,,,81,64
99840,note_off,60,0,3,,,,,,,,1,,,,81,64
99840,note_on,0,0,3,,,,,,,,1,,,,82,75
99895,note_off,115,0,8,,,,,,,,6,,,,42,64
99895,note_off,115,0,13,,,,,,,,12,,,,42,64
99900,note_on,5,0,8,,,,,,,,6,,,,54,60
99900,note_on,5,0,13,,,,,,,,12,,,,54,45
99900,note_on,0,0,4,,,,,,,,2,,,,81,60
99900,note_off,60,0,4,,,,,,,,2,,,,82,64
99900,note_on,0,0,3,,,,,,,,1,,,,81,75
99900,note_off,60,0,3,,,,,,,,1,,,,82,64
99960,note_off,60,0,4,,,,,,,,2,,,,81,64
99960,note_on,0,0,3,,,,,,,,1,,,,82,75
99960,note_on,0,0,4,,,,,,,,2,,,,82,60
99960,note_off,60,0,3,,,,,,,,1,,,,81,64
100000,note_off,40,0,3,,,,,,,,1,,,,82,64
100000,note_off,40,0,4,,,,,,,,2,,,,82,64
100015,note_off,115,0,13,,,,,,,,12,,,,54,64
100015,note_off,115,0,8,,,,,,,,6,,,,54,64
100020,note_on,5,0,13,,,,,,,,12,,,,55,45
100020,note_on,5,0,8,,,,,,,,6,,,,55,60
100020,note_on,20,0,4,,,,,,,,2,,,,82,60
100020,note_on,20,0,3,,,,,,,,1,,,,82,105
100080,note_off,60,0,4,,,,,,,,2,,,,82,64
100080,note_on,0,0,3,,,,,,,,1,,,,84,75
100080,note_off,60,0,3,,,,,,,,1,,,,82,64
100080,note_on,0,0,4,,,,,,,,2,,,,84,60
100135,note_off,115,0,13,,,,,,,,12,,,,55,64
100135,note_off,115,0,8,,,,,,,,6,,,,55,64
100140,note_on,0,0,3,,,,,,,,1,,,,82,75
100140,note_on,5,0,13,,,,,,,,12,,,,43,45
100140,note_off,60,0,3,,,,,,,,1,,,,84,64
100140,note_on,0,0,4,,,,,,,,2,,,,82,60
100140,note_on,5,0,8,,,,,,,,6,,,,43,60
100140,note_off,60,0,4,,,,,,,,2,,,,84,64
100200,note_on,0,0,4,,,,,,,,2,,,,84,60
100200,note_off,60,0,4,,,,,,,,2,,,,82,64
100200,note_on,0,0,3,,,,,,,,1,,,,84,75
100200,note_off,60,0,3,,,,,,,,1,,,,82,64
100255,note_off,115,0,8,,,,,,,,6,,,,43,64
100255,note_off,115,0,13,,,,,,,,12,,,,43,64
100260,note_off,60,0,3,,,,,,,,1,,,,84,64
100260,note_off,60,0,4,,,,,,,,2,,,,84,64
100260,note_on,5,0,8,,,,,,,,6,,,,43,60
100260,note_on,0,0,4,,,,,,,,2,,,,82,60
100260,note_on,5,0,13,,,,,,,,12,,,,43,45
100260,note_on,0,0,3,,,,,,,,1,,,,82,75
100320,note_off,60,0,3,,,,,,,,1,,,,82,64
100320,note_off,60,0,4,,,,,,,,2,,,,82,64
100320,note_on,0,0,4,,,,,,,,2,,,,84,60
100320,note_on,0,0,3,,,,,,,,1,,,,84,75
100375,note_off,115,0,13,,,,,,,,12,,,,43,64
100375,note_off,115,0,8,,,,,,,,6,,,,43,64
100380,note_on,0,0,3,,,,,,,,1,,,,82,75
100380,note_off,60,0,3,,,,,,,,1,,,,84,64
100380,note_off,60,0,4,,,,,,,,2,,,,84,64
100380,note_on,0,0,4,,,,,,,,2,,,,82,60
100380,note_on,5,0,8,,,,,,,,6,,,,55,60
100380,note_on,5,0,13,,,,,,,,12,,,,55,45
100440,note_on,0,0,3,,,,,,,,1,,,,84,75
100440,note_off,60,0,3,,,,,,,,1,,,,82,64
100440,note_off,60,0,4,,,,,,,,2,,,,82,64
100440,note_on,0,0,4,,,,,,,,2,,,,84,60
100480,note_off,40,0,3,,,,,,,,1,,,,84,64
100480,note_off,40,0,4,,,,,,,,2,,,,84,64
100495,note_off,115,0,13,,,,,,,,12,,,,55,64
100495,note_off,115,0,8,,,,,,,,6,,,,55,64
100500,note_on,4400,0,15,,,,,,,,14,,,,38,45
100500,note_on,4400,0,9,,,,,,,,7,,,,38,60
100500,note_on,4400,0,14,,,,,,,,13,,,,38,45
100500,note_on,20,0,4,,,,,,,,2,,,,84,60
100500,note_on,5,0,8,,,,,,,,6,,,,50,60
100500,note_on,20,0,3,,,,,,,,1,,,,84,75
100500,note_on,5,0,13,,,,,,,,12,,,,50,45
100620,note_on,4520,0,5,,,,,,,,3,,,,74,60
100620,note_on,4520,0,10,,,,,,,,8,,,,74,45
100735,note_off,115,0,5,,,,,,,,3,,,,74,64
100735,note_off,115,0,10,,,,,,,,8,,,,74,64
100740,note_on,5,0,10,,,,,,,,8,,,,69,45
100740,note_on,5,0,5,,,,,,,,3,,,,69,60
100855,note_off,115,0,10,,,,,,,,8,,,,69,64
100855,note_off,115,0,5,,,,,,,,3,,,,69,64
100860,note_on,5,0,10,,,,,,,,8,,,,66,45
100860,note_on,5,0,5,,,,,,,,3,,,,66,60
100900,note_off,400,0,8,,,,,,,,6,,,,50,64
100900,note_off,400,0,15,,,,,,,,14,,,,38,64
100900,note_off,400,0,9,,,,,,,,7,,,,38,64
100900,note_off,400,0,13,,,,,,,,12,,,,50,64
100900,note_off,400,0,14,,,,,,,,13,,,,38,64
100975,note_off,115,0,5,,,,,,,,3,,,,66,64
100975,note_off,115,0,10,,,,,,,,8,,,,66,64
100980,note_on,5,0,5,,,,,,,,3,,,,62,60
100980,note_on,5,0,10,,,,,,,,8,,,,62,45
101100,note_on,200,0,8,,,,,,,,6,,,,62,60
101100,note_on,200,0,14,,,,,,,,13,,,,50,45
101100,note_on,200,0,9,,,,,,,,7,,,,50,60
101100,note_on,5000,0,12,,,,,,,,11,,,,74,45
101100,note_on,5000,0,7,,,,,,,,5,,,,74,60
101100,note_on,200,0,13,,,,,,,,12,,,,62,45
101215,note_off,115,0,12,,,,,,,,11,,,,74,64
101215,note_off,115,0,13,,,,,,,,12,,,,62,64
101215,note_off,115,0,8,,,,,,,,6,,,,62,64
101215,note_off,115,0,9,,,,,,,,7,,,,50,64
101215,note_off,115,0,7,,,,,,,,5,,,,74,64
101215,note_off,115,0,14,,,,,,,,13,,,,50,64
101220,note_on,5,0,7,,,,,,,,5,,,,69,60
101220,note_on,5,0,8,,,,,,,,6,,,,57,60
101220,note_on,5,0,12,,,,,,,,11,,,,69,45
101220,note_on,5,0,9,,,,,,,,7,,,,45,60
101220,note_on,5,0,14,,,,,,,,13,,,,45,45
101220,note_on,5,0,13,,,,,,,,12,,,,57,45
101335,note_off,115,0,14,,,,,,,,13,,,,45,64
101335,note_off,115,0,9,,,,,,,,7,,,,45,64
101335,note_off,115,0,8,,,,,,,,6,,,,57,64
101335,note_off,115,0,13,,,,,,,,12,,,,57,64
101335,note_off,115,0,7,,,,,,,,5,,,,69,64
101335,note_off,115,0,12,,,,,,,,11,,,,69,64
101340,note_on,5,0,9,,,,,,,,7,,,,41,60
101340,note_on,5,0,12,,,,,,,,11,,,,66,45
101340,note_on,5,0,13,,,,,,,,12,,,,54,45
101340,note_on,5,0,8,,,,,,,,6,,,,54,60
101340,note_on,5,0,7,,,,,,,,5,,,,66,60
101340,note_on,5,0,14,,,,,,,,13,,,,41,45
101380,note_off,400,0,10,,,,,,,,8,,,,62,64
101380,note_off,400,0,5,,,,,,,,3,,,,62,64
101455,note_off,115,0,14,,,,,,,,13,,,,41,64
101455,note_off,115,0,13,,,,,,,,12,,,,54,64
101455,note_off,115,0,7,,,,,,,,5,,,,66,64
101455,note_off,115,0,12,,,,,,,,11,,,,66,64
101455,note_off,115,0,8,,,,,,,,6,,,,54,64
101455,note_off,115,0,9,,,,,,,,7,,,,41,64
101460,note_on,5,0,14,,,,,,,,13,,,,38,45
101460,note_on,560,0,15,,,,,,,,14,,,,38,45
101460,note_on,5,0,8,,,,,,,,6,,,,50,60
101460,note_on,5,0,12,,,,,,,,11,,,,62,45
101460,note_on,5,0,7,,,,,,,,5,,,,62,60
101460,note_on,5,0,13,,,,,,,,12,,,,50,45
101460,note_on,5,0,9,,,,,,,,7,,,,38,60
101520,note_off,1020,0,3,,,,,,,,1,,,,84,64
101520,note_on,0,0,3,,,,,,,,1,,,,82,74
101520,note_off,1020,0,4,,,,,,,,2,,,,84,64
101520,note_on,0,0,4,,,,,,,,2,,,,82,59
101580,note_on,0,0,4,,,,,,,,2,,,,81,58
101580,note_off,60,0,3,,,,,,,,1,,,,82,64
101580,note_off,60,0,4,,,,,,,,2,,,,82,64
101580,note_on,0,0,3,,,,,,,,1,,,,81,73
101640,note_off,60,0,4,,,,,,,,2,,,,81,64
101640,note_off,60,0,3,,,,,,,,1,,,,81,64
101640,note_on,0,0,3,,,,,,,,1,,,,79,72
101640,note_on,0,0,4,,,,,,,,2,,,,79,57
101700,note_off,60,0,4,,,,,,,,2,,,,79,64
101700,note_off,60,0,3,,,,,,,,1,,,,79,64
101700,note_on,0,0,3,,,,,,,,1,,,,78,71
101700,note_on,0,0,4,,,,,,,,2,,,,78,56
101760,note_off,60,0,3,,,,,,,,1,,,,78,64
101760,note_on,0,0,3,,,,,,,,1,,,,76,70
101760,note_on,0,0,4,,,,,,,,2,,,,76,55
101760,note_off,60,0,4,,,,,,,,2,,,,78,64
101820,note_on,0,0,3,,,,,,,,1,,,,74,69
101820,note_off,60,0,3,,,,,,,,1,,,,76,64
101820,note_off,60,0,4,,,,,,,,2,,,,76,64
101820,note_on,0,0,4,,,,,,,,2,,,,74,54
101860,note_off,400,0,14,,,,,,,,13,,,,38,64
101860,note_off,400,0,12,,,,,,,,11,,,,62,64
101860,note_off,400,0,9,,,,,,,,7,,,,38,64
101860,note_off,400,0,15,,,,,,,,14,,,,38,64
101860,note_off,400,0,7,,,,,,,,5,,,,62,64
101860,note_off,400,0,13,,,,,,,,12,,,,50,64
101860,note_off,400,0,8,,,,,,,,6,,,,50,64
101880,note_off,60,0,4,,,,,,,,2,,,,74,64
101880,note_on,0,0,4,,,,,,,,2,,,,72,53
101880,note_on,0,0,3,,,,,,,,1,,,,72,68
101880,note_off,60,0,3,,,,,,,,1,,,,74,64
101940,note_on,0,0,4,,,,,,,,2,,,,70,52
101940,note_off,60,0,3,,,,,,,,1,,,,72,64
101940,note_off,60,0,4,,,,,,,,2,,,,72,64
101940,note_on,0,0,3,,,,,,,,1,,,,70,67
102000,note_on,0,0,3,,,,,,,,1,,,,69,66
102000,note_off,60,0,4,,,,,,,,2,,,,70,64
102000,note_on,0,0,4,,,,,,,,2,,,,69,51
102000,note_off,60,0,3,,,,,,,,1,,,,70,64
102060,note_on,0,0,3,,,,,,,,1,,,,67,65
102060,note_off,60,0,4,,,,,,,,2,,,,69,64
102060,note_on,0,0,4,,,,,,,,2,,,,67,50
102060,note_off,60,0,3,,,,,,,,1,,,,69,64
102120,note_on,0,0,3,,,,,,,,1,,,,66,63
102120,note_off,60,0,4,,,,,,,,2,,,,67,64
102120,note_off,60,0,3,,,,,,,,1,,,,67,64
102120,note_on,0,0,4,,,,,,,,2,,,,66,48
102180,note_on,0,0,3,,,,,,,,1,,,,64,61
102180,note_off,60,0,4,,,,,,,,2,,,,66,64
102180,note_off,60,0,3,,,,,,,,1,,,,66,64
102180,note_on,0,0,4,,,,,,,,2,,,,64,46
102240,note_off,60,0,3,,,,,,,,1,,,,64,64
102240,note_on,0,0,4,,,,,,,,2,,,,62,44
102240,note_on,0,0,3,,,,,,,,1,,,,62,59
102240,note_off,60,0,4,,,,,,,,2,,,,64,64
102300,note_on,0,0,3,,,,,,,,1,,,,60,57
102300,note_off,60,0,3,,,,,,,,1,,,,62,64
102300,note_off,60,0,4,,,,,,,,2,,,,62,64
102300,note_on,0,0,4,,,,,,,,2,,,,60,42
102360,note_on,0,0,3,,,,,,,,1,,,,58,55
102360,note_off,60,0,3,,,,,,,,1,,,,60,64
102360,note_off,60,0,4,,,,,,,,2,,,,60,64
102360,note_on,0,0,4,,,,,,,,2,,,,58,40
102390,note_off,30,0,4,,,,,,,,2,,,,58,64
102390,note_on,0,0,3,,,,,,,,1,,,,57,54
102390,note_on,0,0,4,,,,,,,,2,,,,57,39
102390,note_off,30,0,3,,,,,,,,1,,,,58,64
102420,note_on,560,0,9,,,,,,,,7,,,,31,45
102420,note_off,30,0,3,,,,,,,,1,,,,57,64
102420,note_on,560,0,14,,,,,,,,13,,,,31,30
102420,set_tempo,8640,1,0,800000,,,,,,,,,,,,
102420,note_on,0,0,3,,,,,,,,1,,,,55,53
102420,note_on,560,0,8,,,,,,,,6,,,,43,45
102420,note_on,560,0,13,,,,,,,,12,,,,43,30
102420,note_off,30,0,4,,,,,,,,2,,,,57,64
102420,note_on,0,0,4,,,,,,,,2,,,,55,38
102655,note_off,235,0,13,,,,,,,,12,,,,43,64
102655,note_off,235,0,4,,,,,,,,2,,,,55,64
102655,note_off,235,0,9,,,,,,,,7,,,,31,64
102655,note_off,235,0,3,,,,,,,,1,,,,55,64
102655,note_off,235,0,14,,,,,,,,13,,,,31,64
102655,note_off,235,0,8,,,,,,,,6,,,,43,64
102660,note_on,5,0,3,,,,,,,,1,,,,79,45
102660,note_on,5,0,4,,,,,,,,2,,,,79,30
102660,set_tempo,240,1,0,789473,,,,,,,,,,,,
102740,note_off,80,0,3,,,,,,,,1,,,,79,64
102740,note_off,80,0,4,,,,,,,,2,,,,79,64
102900,note_on,245,0,14,,,,,,,,13,,,,38,30
102900,note_on,245,0,9,,,,,,,,7,,,,38,45
102900,note_on,245,0,8,,,,,,,,6,,,,50,45
102900,note_on,245,0,13,,,,,,,,12,,,,50,30
103135,note_off,235,0,9,,,,,,,,7,,,,38,64
103135,note_off,235,0,13,,,,,,,,12,,,,50,64
103135,note_off,235,0,14,,,,,,,,13,,,,38,64
103135,note_off,235,0,8,,,,,,,,6,,,,50,64
103140,note_on,400,0,4,,,,,,,,2,,,,78,30
103140,note_on,400,0,3,,,,,,,,1,,,,78,45
103220,note_off,80,0,4,,,,,,,,2,,,,78,64
103220,note_off,80,0,3,,,,,,,,1,,,,78,64
103380,note_on,245,0,9,,,,,,,,7,,,,36,45
103380,note_on,245,0,14,,,,,,,,13,,,,36,30
103380,note_on,245,0,13,,,,,,,,12,,,,48,30
103380,note_on,245,0,8,,,,,,,,6,,,,48,45
103615,note_off,235,0,8,,,,,,,,6,,,,48,64
103615,note_off,235,0,9,,,,,,,,7,,,,36,64
103615,note_off,235,0,14,,,,,,,,13,,,,36,64
103615,note_off,235,0,13,,,,,,,,12,,,,48,64
103620,note_on,400,0,4,,,,,,,,2,,,,81,30
103620,note_on,400,0,3,,,,,,,,1,,,,81,45
103700,note_off,80,0,4,,,,,,,,2,,,,81,64
103700,note_off,80,0,3,,,,,,,,1,,,,81,64
103860,note_on,245,0,8,,,,,,,,6,,,,46,47
103860,note_on,245,0,14,,,,,,,,13,,,,34,32
103860,note_on,245,0,9,,,,,,,,7,,,,34,47
103860,note_on,245,0,13,,,,,,,,12,,,,46,32
104095,note_off,235,0,14,,,,,,,,13,,,,34,64
104095,note_off,235,0,9,,,,,,,,7,,,,34,64
104095,note_off,235,0,13,,,,,,,,12,,,,46,64
104095,note_off,235,0,8,,,,,,,,6,,,,46,64
104100,note_on,400,0,4,,,,,,,,2,,,,79,34
104100,note_on,400,0,3,,,,,,,,1,,,,79,49
104180,note_off,80,0,3,,,,,,,,1,,,,79,64
104180,note_off,80,0,4,,,,,,,,2,,,,79,64
104340,note_on,245,0,13,,,,,,,,12,,,,51,34
104340,note_on,245,0,8,,,,,,,,6,,,,51,49
104340,note_on,245,0,14,,,,,,,,13,,,,39,34
104340,note_on,245,0,9,,,,,,,,7,,,,39,49
104575,note_off,235,0,13,,,,,,,,12,,,,51,64
104575,note_off,235,0,14,,,,,,,,13,,,,39,64
104575,note_off,235,0,8,,,,,,,,6,,,,51,64
104575,note_off,235,0,9,,,,,,,,7,,,,39,64
104580,note_on,400,0,4,,,,,,,,2,,,,84,38
104580,note_on,400,0,3,,,,,,,,1,,,,84,53
104660,note_off,80,0,4,,,,,,,,2,,,,84,64
104660,note_off,80,0,3,,,,,,,,1,,,,84,64
104820,note_on,245,0,9,,,,,,,,7,,,,38,51
104820,note_on,245,0,14,,,,,,,,13,,,,38,36
104820,note_on,245,0,8,,,,,,,,6,,,,50,51
104820,note_on,245,0,13,,,,,,,,12,,,,50,36
105055,note_off,235,0,14,,,,,,,,13,,,,38,64
105055,note_off,235,0,13,,,,,,,,12,,,,50,64
105055,note_off,235,0,8,,,,,,,,6,,,,50,64
105055,note_off,235,0,9,,,,,,,,7,,,,38,64
105060,note_on,400,0,3,,,,,,,,1,,,,82,57
105060,note_on,400,0,4,,,,,,,,2,,,,82,42
105140,note_off,80,0,4,,,,,,,,2,,,,82,64
105140,note_off,80,0,3,,,,,,,,1,,,,82,64
105300,note_on,245,0,8,,,,,,,,6,,,,48,53
105300,set_tempo,2640,1,0,779220,,,,,,,,,,,,
105300,note_on,245,0,14,,,,,,,,13,,,,36,38
105300,note_on,245,0,13,,,,,,,,12,,,,48,38
105300,note_on,245,0,9,,,,,,,,7,,,,36,53
105535,note_off,235,0,8,,,,,,,,6,,,,48,64
105535,note_off,235,0,14,,,,,,,,13,,,,36,64
105535,note_off,235,0,13,,,,,,,,12,,,,48,64
105535,note_off,235,0,9,,,,,,,,7,,,,36,64
105540,note_on,400,0,4,,,,,,,,2,,,,80,46
105540,note_on,400,0,3,,,,,,,,1,,,,80,61
105620,note_off,80,0,4,,,,,,,,2,,,,80,64
105620,note_off,80,0,3,,,,,,,,1,,,,80,64
105780,note_on,245,0,14,,,,,,,,13,,,,34,40
105780,note_on,245,0,8,,,,,,,,6,,,,46,55
105780,set_tempo,480,1,0,750000,,,,,,,,,,,,
105780,note_on,245,0,9,,,,,,,,7,,,,34,55
105780,note_on,245,0,13,,,,,,,,12,,,,46,40
106015,note_off,235,0,13,,,,,,,,12,,,,46,64
106015,note_off,235,0,8,,,,,,,,6,,,,46,64
106015,note_off,235,0,9,,,,,,,,7,,,,34,64
106015,note_off,235,0,14,,,,,,,,13,,,,34,64
106020,note_on,400,0,3,,,,,,,,1,,,,79,65
106020,note_on,400,0,4,,,,,,,,2,,,,79,50
106100,note_off,80,0,3,,,,,,,,1,,,,79,64
106100,note_off,80,0,4,,,,,,,,2,,,,79,64
106260,note_on,245,0,13,,,,,,,,12,,,,55,42
106260,note_on,245,0,14,,,,,,,,13,,,,43,42
106260,note_on,245,0,9,,,,,,,,7,,,,43,57
106260,note_on,245,0,8,,,,,,,,6,,,,55,57
106260,set_tempo,480,1,0,714285,,,,,,,,,,,,
106495,note_off,235,0,9,,,,,,,,7,,,,43,64
106495,note_off,235,0,14,,,,,,,,13,,,,43,64
106495,note_off,235,0,13,,,,,,,,12,,,,55,64
106495,note_off,235,0,8,,,,,,,,6,,,,55,64
106500,note_on,400,0,3,,,,,,,,1,,,,75,69
106500,note_on,400,0,4,,,,,,,,2,,,,75,54
106580,note_off,80,0,3,,,,,,,,1,,,,75,64
106580,note_off,80,0,4,,,,,,,,2,,,,75,64
106740,note_on,245,0,14,,,,,,,,13,,,,41,44
106740,note_on,245,0,13,,,,,,,,12,,,,53,44
106740,note_on,245,0,9,,,,,,,,7,,,,41,59
106740,set_tempo,480,1,0,689655,,,,,,,,,,,,
106740,note_on,245,0,8,,,,,,,,6,,,,53,59
106975,note_off,235,0,8,,,,,,,,6,,,,53,64
106975,note_off,235,0,9,,,,,,,,7,,,,41,64
106975,note_off,235,0,13,,,,,,,,12,,,,53,64
106975,note_off,235,0,14,,,,,,,,13,,,,41,64
106980,note_on,400,0,3,,,,,,,,1,,,,74,73
106980,note_on,400,0,4,,,,,,,,2,,,,74,58
107060,note_off,80,0,3,,,,,,,,1,,,,74,64
107060,note_off,80,0,4,,,,,,,,2,,,,74,64
107220,note_on,245,0,14,,,,,,,,13,,,,39,48
107220,set_tempo,480,1,0,652173,,,,,,,,,,,,
107220,note_on,245,0,9,,,,,,,,7,,,,39,63
107220,note_on,245,0,13,,,,,,,,12,,,,51,48
107220,note_on,245,0,8,,,,,,,,6,,,,51,63
107455,note_off,235,0,9,,,,,,,,7,,,,39,64
107455,note_off,235,0,14,,,,,,,,13,,,,39,64
107455,note_off,235,0,13,,,,,,,,12,,,,51,64
107455,note_off,235,0,8,,,,,,,,6,,,,51,64
107460,note_on,400,0,4,,,,,,,,2,,,,73,62
107460,note_on,400,0,3,,,,,,,,1,,,,73,77
107540,note_off,80,0,3,,,,,,,,1,,,,73,64
107540,note_off,80,0,4,,,,,,,,2,,,,73,64
107700,note_on,245,0,13,,,,,,,,12,,,,50,52
107700,note_on,245,0,9,,,,,,,,7,,,,38,67
107700,note_on,245,0,8,,,,,,,,6,,,,50,67
107700,note_on,245,0,14,,,,,,,,13,,,,38,52
107935,note_off,235,0,8,,,,,,,,6,,,,50,64
107935,note_off,235,0,9,,,,,,,,7,,,,38,64
107935,note_off,235,0,13,,,,,,,,12,,,,50,64
107935,note_off,235,0,14,,,,,,,,13,,,,38,64
107940,set_tempo,720,1,0,612244,,,,,,,,,,,,
107940,note_on,400,0,4,,,,,,,,2,,,,74,66
107940,note_on,400,0,3,,,,,,,,1,,,,74,81
108020,note_off,80,0,3,,,,,,,,1,,,,74,64
108020,note_off,80,0,4,,,,,,,,2,,,,74,64
108180,note_on,245,0,8,,,,,,,,6,,,,48,71
108180,note_on,245,0,9,,,,,,,,7,,,,36,71
108180,note_on,245,0,13,,,,,,,,12,,,,48,56
108180,note_on,245,0,14,,,,,,,,13,,,,36,56
108415,note_off,235,0,14,,,,,,,,13,,,,36,64
108415,note_off,235,0,9,,,,,,,,7,,,,36,64
108415,note_off,235,0,13,,,,,,,,12,,,,48,64
108415,note_off,235,0,8,,,,,,,,6,,,,48,64
108420,set_tempo,480,1,0,566037,,,,,,,,,,,,
108420,note_on,400,0,4,,,,,,,,2,,,,68,70
108420,note_on,400,0,3,,,,,,,,1,,,,68,86
108500,note_off,80,0,3,,,,,,,,1,,,,68,64
108500,note_off,80,0,4,,,,,,,,2,,,,68,64
108660,note_on,245,0,13,,,,,,,,12,,,,50,60
108660,note_on,245,0,9,,,,,,,,7,,,,38,75
108660,note_on,245,0,8,,,,,,,,6,,,,50,75
108660,note_on,245,0,14,,,,,,,,13,,,,38,60
108895,note_off,235,0,13,,,,,,,,12,,,,50,64
108895,note_off,235,0,9,,,,,,,,7,,,,38,64
108895,note_off,235,0,8,,,,,,,,6,,,,50,64
108895,note_off,235,0,14,,,,,,,,13,,,,38,64
108900,set_tempo,480,1,0,517241,,,,,,,,,,,,
108900,note_on,400,0,3,,,,,,,,1,,,,66,92
108900,note_on,400,0,4,,,,,,,,2,,,,66,75
108980,note_off,80,0,3,,,,,,,,1,,,,66,64
108980,note_off,80,0,4,,,,,,,,2,,,,66,64
109140,note_on,245,0,9,,,,,,,,7,,,,43,92
109140,note_on,7280,0,12,,,,,,,,11,,,,65,75
109140,note_on,245,0,13,,,,,,,,12,,,,55,75
109140,note_on,7280,0,7,,,,,,,,5,,,,67,92
109140,note_on,7760,0,10,,,,,,,,8,,,,74,75
109140,note_on,7280,0,15,,,,,,,,14,,,,43,60
109140,set_tempo,240,1,0,500000,,,,,,,,,,,,
109140,note_on,245,0,14,,,,,,,,13,,,,43,75
109140,note_on,245,0,8,,,,,,,,6,,,,55,92
109140,note_on,7760,0,5,,,,,,,,3,,,,74,92
109140,note_on,20360,0,11,,,,,,,,10,,,,70,75
109140,note_on,20360,0,6,,,,,,,,4,,,,70,92
109220,note_off,80,0,10,,,,,,,,8,,,,74,64
109220,note_off,80,0,8,,,,,,,,6,,,,55,64
109220,note_off,80,0,11,,,,,,,,10,,,,70,64
109220,note_off,80,0,13,,,,,,,,12,,,,55,64
109220,note_off,80,0,12,,,,,,,,11,,,,65,64
109220,note_off,80,0,6,,,,,,,,4,,,,70,64
109220,note_off,80,0,7,,,,,,,,5,,,,67,64
109220,note_off,80,0,5,,,,,,,,3,,,,74,64
109220,note_off,80,0,14,,,,,,,,13,,,,43,64
109220,note_off,80,0,9,,,,,,,,7,,,,43,64
109380,note_on,160,0,6,,,,,,,,4,,,,70,92
109380,note_on,160,0,9,,,,,,,,7,,,,43,92
109380,note_on,160,0,12,,,,,,,,11,,,,65,75
109380,note_on,160,0,7,,,,,,,,5,,,,67,92
109380,note_on,160,0,10,,,,,,,,8,,,,74,75
109380,note_on,160,0,13,,,,,,,,12,,,,55,75
109380,note_on,160,0,14,,,,,,,,13,,,,43,75
109380,note_on,160,0,5,,,,,,,,3,,,,74,92
109380,note_on,160,0,11,,,,,,,,10,,,,70,75
109380,note_on,160,0,8,,,,,,,,6,,,,55,92
109460,note_off,80,0,7,,,,,,,,5,,,,67,64
109460,note_off,80,0,14,,,,,,,,13,,,,43,64
109460,note_off,80,0,5,,,,,,,,3,,,,74,64
109460,note_off,80,0,11,,,,,,,,10,,,,70,64
109460,note_off,80,0,6,,,,,,,,4,,,,70,64
109460,note_off,80,0,13,,,,,,,,12,,,,55,64
109460,note_off,80,0,10,,,,,,,,8,,,,74,64
109460,note_off,80,0,9,,,,,,,,7,,,,43,64
109460,note_off,80,0,8,,,,,,,,6,,,,55,64
109460,note_off,80,0,12,,,,,,,,11,,,,65,64
109540,note_off,400,0,15,,,,,,,,14,,,,43,64
109620,note_on,160,0,9,,,,,,,,7,,,,43,92
109620,note_on,160,0,13,,,,,,,,12,,,,55,75
109620,note_on,160,0,10,,,,,,,,8,,,,74,75
109620,note_on,80,0,15,,,,,,,,14,,,,43,60
109620,note_on,160,0,8,,,,,,,,6,,,,55,92
109620,note_on,160,0,11,,,,,,,,10,,,,70,75
109620,note_on,160,0,12,,,,,,,,11,,,,65,75
109620,note_on,160,0,6,,,,,,,,4,,,,70,92
109620,note_on,160,0,14,,,,,,,,13,,,,43,75
109620,note_on,160,0,7,,,,,,,,5,,,,67,92
109620,note_on,160,0,5,,,,,,,,3,,,,74,92
109700,note_off,80,0,8,,,,,,,,6,,,,55,64
109700,note_off,80,0,11,,,,,,,,10,,,,70,64
109700,note_off,80,0,6,,,,,,,,4,,,,70,64
109700,note_off,80,0,14,,,,,,,,13,,,,43,64
109700,note_off,80,0,9,,,,,,,,7,,,,43,64
109700,note_off,80,0,7,,,,,,,,5,,,,67,64
109700,note_off,80,0,10,,,,,,,,8,,,,74,64
109700,note_off,80,0,5,,,,,,,,3,,,,74,64
109700,note_off,80,0,13,,,,,,,,12,,,,55,64
109700,note_off,80,0,12,,,,,,,,11,,,,65,64
109855,note_off,235,0,15,,,,,,,,14,,,,43,64
109860,note_on,160,0,5,,,,,,,,3,,,,75,92
109860,note_on,160,0,10,,,,,,,,8,,,,75,75
109860,note_on,160,0,8,,,,,,,,6,,,,48,92
109860,note_on,160,0,11,,,,,,,,10,,,,72,75
109860,note_on,160,0,12,,,,,,,,11,,,,58,75
109860,note_on,160,0,9,,,,,,,,7,,,,36,92
109860,note_on,160,0,14,,,,,,,,13,,,,36,75
109860,note_on,160,0,7,,,,,,,,5,,,,67,92
109860,note_on,160,0,13,,,,,,,,12,,,,48,75
109860,note_on,160,0,6,,,,,,,,4,,,,72,92
109940,note_off,80,0,11,,,,,,,,10,,,,72,64
109940,note_off,80,0,6,,,,,,,,4,,,,72,64
109940,note_off,80,0,8,,,,,,,,6,,,,48,64
109940,note_off,80,0,10,,,,,,,,8,,,,75,64
109940,note_off,80,0,13,,,,,,,,12,,,,48,64
109940,note_off,80,0,9,,,,,,,,7,,,,36,64
109940,note_off,80,0,5,,,,,,,,3,,,,75,64
109940,note_off,80,0,12,,,,,,,,11,,,,58,64
109940,note_off,80,0,7,,,,,,,,5,,,,67,64
109940,note_off,80,0,14,,,,,,,,13,,,,36,64
110100,note_on,160,0,12,,,,,,,,11,,,,65,75
110100,note_on,160,0,7,,,,,,,,5,,,,67,92
110100,note_on,160,0,14,,,,,,,,13,,,,43,75
110100,note_on,160,0,11,,,,,,,,10,,,,70,75
110100,note_on,160,0,13,,,,,,,,12,,,,55,75
110100,note_on,160,0,5,,,,,,,,3,,,,74,92
110100,note_on,160,0,8,,,,,,,,6,,,,55,92
110100,note_on,245,0,15,,,,,,,,14,,,,43,60
110100,note_on,160,0,10,,,,,,,,8,,,,74,75
110100,note_on,160,0,6,,,,,,,,4,,,,70,92
110100,note_on,160,0,9,,,,,,,,7,,,,43,92
110500,note_off,400,0,10,,,,,,,,8,,,,74,64
110500,note_off,400,0,14,,,,,,,,13,,,,43,64
110500,note_off,400,0,15,,,,,,,,14,,,,43,64
110500,note_off,400,0,7,,,,,,,,5,,,,67,64
110500,note_off,400,0,13,,,,,,,,12,,,,55,64
110500,note_off,400,0,11,,,,,,,,10,,,,70,64
110500,note_off,400,0,5,,,,,,,,3,,,,74,64
110500,note_off,400,0,12,,,,,,,,11,,,,65,64
110500,note_off,400,0,6,,,,,,,,4,,,,70,64
110500,note_off,400,0,9,,,,,,,,7,,,,43,64
110500,note_off,400,0,8,,,,,,,,6,,,,55,64
110580,note_on,80,0,9,,,,,,,,7,,,,43,92
110580,note_on,80,0,5,,,,,,,,3,,,,74,92
110580,note_on,80,0,12,,,,,,,,11,,,,65,75
110580,note_on,80,0,13,,,,,,,,12,,,,55,75
110580,note_on,80,0,8,,,,,,,,6,,,,55,92
110580,note_on,80,0,6,,,,,,,,4,,,,70,92
110580,note_on,80,0,15,,,,,,,,14,,,,43,60
110580,note_on,80,0,7,,,,,,,,5,,,,67,92
110580,note_on,80,0,11,,,,,,,,10,,,,70,75
110580,note_on,80,0,14,,,,,,,,13,,,,43,75
110580,note_on,80,0,10,,,,,,,,8,,,,74,75
110660,note_off,80,0,6,,,,,,,,4,,,,70,64
110660,note_off,80,0,7,,,,,,,,5,,,,67,64
110660,note_off,80,0,12,,,,,,,,11,,,,65,64
110660,note_off,80,0,14,,,,,,,,13,,,,43,64
110660,note_off,80,0,11,,,,,,,,10,,,,70,64
110660,note_off,80,0,9,,,,,,,,7,,,,43,64
110660,note_off,80,0,8,,,,,,,,6,,,,55,64
110660,note_off,80,0,10,,,,,,,,8,,,,74,64
110660,note_off,80,0,13,,,,,,,,12,,,,55,64
110660,note_off,80,0,5,,,,,,,,3,,,,74,64
110815,note_off,235,0,15,,,,,,,,14,,,,43,64
110820,note_on,160,0,7,,,,,,,,5,,,,67,92
110820,note_on,160,0,5,,,,,,,,3,,,,75,92
110820,note_on,160,0,14,,,,,,,,13,,,,36,75
110820,note_on,160,0,12,,,,,,,,11,,,,58,75
110820,note_on,160,0,6,,,,,,,,4,,,,72,92
110820,note_on,160,0,13,,,,,,,,12,,,,48,75
110820,note_on,160,0,10,,,,,,,,8,,,,75,75
110820,note_on,160,0,11,,,,,,,,10,,,,72,75
110820,note_on,160,0,8,,,,,,,,6,,,,48,92
110820,note_on,160,0,9,,,,,,,,7,,,,36,92
110900,note_off,80,0,6,,,,,,,,4,,,,72,64
110900,note_off,80,0,10,,,,,,,,8,,,,75,64
110900,note_off,80,0,12,,,,,,,,11,,,,58,64
110900,note_off,80,0,11,,,,,,,,10,,,,72,64
110900,note_off,80,0,5,,,,,,,,3,,,,75,64
110900,note_off,80,0,8,,,,,,,,6,,,,48,64
110900,note_off,80,0,9,,,,,,,,7,,,,36,64
110900,note_off,80,0,7,,,,,,,,5,,,,67,64
110900,note_off,80,0,14,,,,,,,,13,,,,36,64
110900,note_off,80,0,13,,,,,,,,12,,,,48,64
111060,note_on,245,0,15,,,,,,,,14,,,,43,60
111060,note_on,160,0,8,,,,,,,,6,,,,55,92
111060,note_on,160,0,13,,,,,,,,12,,,,55,75
111060,note_on,160,0,10,,,,,,,,8,,,,74,75
111060,note_on,160,0,5,,,,,,,,3,,,,74,92
111060,note_on,160,0,9,,,,,,,,7,,,,43,92
111060,note_on,160,0,11,,,,,,,,10,,,,70,75
111060,note_on,160,0,12,,,,,,,,11,,,,65,75
111060,note_on,160,0,7,,,,,,,,5,,,,67,92
111060,note_on,160,0,6,,,,,,,,4,,,,70,92
111060,note_on,160,0,14,,,,,,,,13,,,,43,75
111140,note_off,80,0,11,,,,,,,,10,,,,70,64
111140,note_off,80,0,6,,,,,,,,4,,,,70,64
111140,note_off,80,0,8,,,,,,,,6,,,,55,64
111140,note_off,80,0,10,,,,,,,,8,,,,74,64
111140,note_off,80,0,14,,,,,,,,13,,,,43,64
111140,note_off,80,0,13,,,,,,,,12,,,,55,64
111140,note_off,80,0,12,,,,,,,,11,,,,65,64
111140,note_off,80,0,9,,,,,,,,7,,,,43,64
111140,note_off,80,0,7,,,,,,,,5,,,,67,64
111140,note_off,80,0,5,,,,,,,,3,,,,74,64
111300,note_on,160,0,14,,,,,,,,13,,,,43,75
111300,note_on,160,0,5,,,,,,,,3,,,,74,92
111300,note_on,160,0,13,,,,,,,,12,,,,55,75
111300,note_on,160,0,9,,,,,,,,7,,,,43,92
111300,note_on,160,0,10,,,,,,,,8,,,,74,75
111300,note_on,160,0,11,,,,,,,,10,,,,70,75
111300,note_on,160,0,6,,,,,,,,4,,,,70,92
111300,note_on,160,0,8,,,,,,,,6,,,,55,92
111300,note_on,160,0,12,,,,,,,,11,,,,65,75
111300,note_on,160,0,7,,,,,,,,5,,,,67,92
111380,note_off,80,0,8,,,,,,,,6,,,,55,64
111380,note_off,80,0,7,,,,,,,,5,,,,67,64
111380,note_off,80,0,13,,,,,,,,12,,,,55,64
111380,note_off,80,0,5,,,,,,,,3,,,,74,64
111380,note_off,80,0,14,,,,,,,,13,,,,43,64
111380,note_off,80,0,12,,,,,,,,11,,,,65,64
111380,note_off,80,0,10,,,,,,,,8,,,,74,64
111380,note_off,80,0,9,,,,,,,,7,,,,43,64
111380,note_off,80,0,11,,,,,,,,10,,,,70,64
111380,note_off,80,0,6,,,,,,,,4,,,,70,64
111460,note_off,400,0,15,,,,,,,,14,,,,43,64
111540,note_on,80,0,15,,,,,,,,14,,,,43,60
111540,note_on,160,0,14,,,,,,,,13,,,,43,75
111540,note_on,160,0,13,,,,,,,,12,,,,55,75
111540,note_on,160,0,10,,,,,,,,8,,,,74,75
111540,note_on,160,0,5,,,,,,,,3,,,,74,92
111540,note_on,160,0,11,,,,,,,,10,,,,70,75
111540,note_on,160,0,12,,,,,,,,11,,,,65,75
111540,note_on,160,0,6,,,,,,,,4,,,,70,92
111540,note_on,160,0,7,,,,,,,,5,,,,67,92
111540,note_on,160,0,8,,,,,,,,6,,,,55,92
111540,note_on,160,0,9,,,,,,,,7,,,,43,92
111620,note_off,80,0,13,,,,,,,,12,,,,55,64
111620,note_off,80,0,9,,,,,,,,7,,,,43,64
111620,note_off,80,0,11,,,,,,,,10,,,,70,64
111620,note_off,80,0,14,,,,,,,,13,,,,43,64
111620,note_off,80,0,8,,,,,,,,6,,,,55,64
111620,note_off,80,0,7,,,,,,,,5,,,,67,64
111620,note_off,80,0,12,,,,,,,,11,,,,65,64
111620,note_off,80,0,5,,,,,,,,3,,,,74,64
111620,note_off,80,0,6,,,,,,,,4,,,,70,64
111620,note_off,80,0,10,,,,,,,,8,,,,74,64
111780,note_on,160,0,12,,,,,,,,11,,,,65,75
111780,note_on,160,0,7,,,,,,,,5,,,,67,92
111780,note_on,160,0,6,,,,,,,,4,,,,72,92
111780,note_on,160,0,13,,,,,,,,12,,,,55,75
111780,note_on,160,0,8,,,,,,,,6,,,,55,92
111780,note_on,160,0,14,,,,,,,,13,,,,43,75
111780,note_on,160,0,9,,,,,,,,7,,,,43,92
111780,note_on,160,0,10,,,,,,,,8,,,,75,75
111780,note_on,160,0,11,,,,,,,,10,,,,72,75
111780,note_on,160,0,5,,,,,,,,3,,,,75,92
111860,note_off,80,0,9,,,,,,,,7,,,,43,64
111860,note_off,80,0,10,,,,,,,,8,,,,75,64
111860,note_off,80,0,11,,,,,,,,10,,,,72,64
111860,note_off,80,0,5,,,,,,,,3,,,,75,64
111860,note_off,80,0,7,,,,,,,,5,,,,67,64
111860,note_off,80,0,13,,,,,,,,12,,,,55,64
111860,note_off,80,0,6,,,,,,,,4,,,,72,64
111860,note_off,80,0,12,,,,,,,,11,,,,65,64
111860,note_off,80,0,8,,,,,,,,6,,,,55,64
111860,note_off,80,0,14,,,,,,,,13,,,,43,64
111940,note_off,400,0,15,,,,,,,,14,,,,43,64
112020,note_on,160,0,5,,,,,,,,3,,,,72,92
112020,note_on,80,0,15,,,,,,,,14,,,,45,60
112020,note_on,160,0,13,,,,,,,,12,,,,57,75
112020,note_on,160,0,10,,,,,,,,8,,,,72,75
112020,note_on,160,0,14,,,,,,,,13,,,,45,75
112020,note_on,160,0,6,,,,,,,,4,,,,69,92
112020,note_on,160,0,9,,,,,,,,7,,,,45,92
112020,note_on,160,0,12,,,,,,,,11,,,,67,75
112020,note_on,160,0,8,,,,,,,,6,,,,57,92
112020,note_on,160,0,7,,,,,,,,5,,,,66,92
112020,note_on,160,0,11,,,,,,,,10,,,,69,75
112100,note_off,80,0,13,,,,,,,,12,,,,57,64
112100,note_off,80,0,8,,,,,,,,6,,,,57,64
112100,note_off,80,0,12,,,,,,,,11,,,,67,64
112100,note_off,80,0,5,,,,,,,,3,,,,72,64
112100,note_off,80,0,11,,,,,,,,10,,,,69,64
112100,note_off,80,0,6,,,,,,,,4,,,,69,64
112100,note_off,80,0,14,,,,,,,,13,,,,45,64
112100,note_off,80,0,9,,,,,,,,7,,,,45,64
112100,note_off,80,0,7,,,,,,,,5,,,,66,64
112100,note_off,80,0,10,,,,,,,,8,,,,72,64
112260,note_on,160,0,13,,,,,,,,12,,,,57,75
112260,note_on,160,0,7,,,,,,,,5,,,,66,92
112260,note_on,160,0,14,,,,,,,,13,,,,45,75
112260,note_on,160,0,8,,,,,,,,6,,,,57,92
112260,note_on,160,0,9,,,,,,,,7,,,,45,92
112260,note_on,160,0,11,,,,,,,,10,,,,69,75
112260,note_on,160,0,10,,,,,,,,8,,,,72,75
112260,note_on,160,0,12,,,,,,,,11,,,,67,75
112260,note_on,160,0,6,,,,,,,,4,,,,69,92
112260,note_on,160,0,5,,,,,,,,3,,,,72,92
112340,note_off,80,0,5,,,,,,,,3,,,,72,64
112340,note_off,80,0,8,,,,,,,,6,,,,57,64
112340,note_off,80,0,12,,,,,,,,11,,,,67,64
112340,note_off,80,0,13,,,,,,,,12,,,,57,64
112340,note_off,80,0,9,,,,,,,,7,,,,45,64
112340,note_off,80,0,6,,,,,,,,4,,,,69,64
112340,note_off,80,0,14,,,,,,,,13,,,,45,64
112340,note_off,80,0,10,,,,,,,,8,,,,72,64
112340,note_off,80,0,11,,,,,,,,10,,,,69,64
112340,note_off,80,0,7,,,,,,,,5,,,,66,64
112420,note_off,400,0,15,,,,,,,,14,,,,45,64
112500,note_on,80,0,15,,,,,,,,14,,,,38,60
112500,note_on,160,0,11,,,,,,,,10,,,,69,75
112500,note_on,160,0,10,,,,,,,,8,,,,72,75
112500,note_on,160,0,12,,,,,,,,11,,,,60,75
112500,note_on,160,0,7,,,,,,,,5,,,,66,92
112500,note_on,160,0,13,,,,,,,,12,,,,50,75
112500,note_on,160,0,5,,,,,,,,3,,,,72,92
112500,note_on,160,0,9,,,,,,,,7,,,,38,92
112500,note_on,160,0,14,,,,,,,,13,,,,38,75
112500,note_on,160,0,6,,,,,,,,4,,,,69,92
112500,note_on,160,0,8,,,,,,,,6,,,,50,92
112580,note_off,80,0,11,,,,,,,,10,,,,69,64
112580,note_off,80,0,14,,,,,,,,13,,,,38,64
112580,note_off,80,0,7,,,,,,,,5,,,,66,64
112580,note_off,80,0,6,,,,,,,,4,,,,69,64
112580,note_off,80,0,12,,,,,,,,11,,,,60,64
112580,note_off,80,0,10,,,,,,,,8,,,,72,64
112580,note_off,80,0,9,,,,,,,,7,,,,38,64
112580,note_off,80,0,5,,,,,,,,3,,,,72,64
112580,note_off,80,0,13,,,,,,,,12,,,,50,64
112580,note_off,80,0,8,,,,,,,,6,,,,50,64
112740,note_on,160,0,5,,,,,,,,3,,,,74,92
112740,note_on,160,0,13,,,,,,,,12,,,,50,75
112740,note_on,160,0,7,,,,,,,,5,,,,66,92
112740,note_on,160,0,14,,,,,,,,13,,,,38,75
112740,note_on,160,0,12,,,,,,,,11,,,,60,75
112740,note_on,160,0,11,,,,,,,,10,,,,70,75
112740,note_on,160,0,6,,,,,,,,4,,,,70,92
112740,note_on,160,0,8,,,,,,,,6,,,,50,92
112740,note_on,160,0,9,,,,,,,,7,,,,38,92
112740,note_on,160,0,10,,,,,,,,8,,,,74,75
112820,note_off,80,0,7,,,,,,,,5,,,,66,64
112820,note_off,80,0,13,,,,,,,,12,,,,50,64
112820,note_off,80,0,9,,,,,,,,7,,,,38,64
112820,note_off,80,0,8,,,,,,,,6,,,,50,64
112820,note_off,80,0,6,,,,,,,,4,,,,70,64
112820,note_off,80,0,10,,,,,,,,8,,,,74,64
112820,note_off,80,0,12,,,,,,,,11,,,,60,64
112820,note_off,80,0,11,,,,,,,,10,,,,70,64
112820,note_off,80,0,5,,,,,,,,3,,,,74,64
112820,note_off,80,0,14,,,,,,,,13,,,,38,64
112900,note_off,400,0,15,,,,,,,,14,,,,38,64
112980,note_on,160,0,5,,,,,,,,3,,,,70,92
112980,note_on,160,0,11,,,,,,,,10,,,,67,75
112980,note_on,160,0,8,,,,,,,,6,,,,55,92
112980,note_on,160,0,10,,,,,,,,8,,,,70,75
112980,note_on,160,0,13,,,,,,,,12,,,,55,75
112980,note_on,160,0,7,,,,,,,,5,,,,62,92
112980,note_on,160,0,6,,,,,,,,4,,,,67,92
112980,note_on,160,0,12,,,,,,,,11,,,,65,75
112980,note_on,80,0,15,,,,,,,,14,,,,43,60
112980,note_on,160,0,14,,,,,,,,13,,,,43,75
112980,note_on,160,0,9,,,,,,,,7,,,,43,92
113010,note_on,0,0,6,,,,,,,,4,,,,69,92
113010,note_off,30,0,6,,,,,,,,4,,,,67,64
113010,note_off,30,0,10,,,,,,,,8,,,,70,64
113010,note_on,0,0,10,,,,,,,,8,,,,72,75
113010,note_off,30,0,5,,,,,,,,3,,,,70,64
113010,note_on,0,0,5,,,,,,,,3,,,,72,92
113010,note_off,30,0,11,,,,,,,,10,,,,67,64
113010,note_on,0,0,11,,,,,,,,10,,,,69,75
113040,note_on,0,0,10,,,,,,,,8,,,,70,75
113040,note_off,30,0,5,,,,,,,,3,,,,72,64
113040,note_on,0,0,5,,,,,,,,3,,,,70,92
113040,note_off,30,0,6,,,,,,,,4,,,,69,64
113040,note_on,0,0,6,,,,,,,,4,,,,67,92
113040,note_off,30,0,11,,,,,,,,10,,,,69,64
113040,note_on,0,0,11,,,,,,,,10,,,,67,75
113040,note_off,30,0,10,,,,,,,,8,,,,72,64
113060,note_off,80,0,14,,,,,,,,13,,,,43,64
113060,note_off,80,0,13,,,,,,,,12,,,,55,64
113060,note_off,80,0,9,,,,,,,,7,,,,43,64
113060,note_off,80,0,12,,,,,,,,11,,,,65,64
113060,note_off,80,0,8,,,,,,,,6,,,,55,64
113060,note_off,80,0,7,,,,,,,,5,,,,62,64
113070,note_on,0,0,11,,,,,,,,10,,,,69,75
113070,note_off,30,0,6,,,,,,,,4,,,,67,64
113070,note_on,0,0,6,,,,,,,,4,,,,69,92
113070,note_on,0,0,5,,,,,,,,3,,,,72,92
113070,note_off,30,0,5,,,,,,,,3,,,,70,64
113070,note_off,30,0,11,,,,,,,,10,,,,67,64
113070,note_off,30,0,10,,,,,,,,8,,,,70,64
113070,note_on,0,0,10,,,,,,,,8,,,,72,75
113100,note_off,30,0,11,,,,,,,,10,,,,69,64
113100,note_on,0,0,11,,,,,,,,10,,,,67,75
113100,note_on,0,0,10,,,,,,,,8,,,,70,75
113100,note_off,30,0,10,,,,,,,,8,,,,72,64
113100,note_off,30,0,6,,,,,,,,4,,,,69,64
113100,note_on,0,0,6,,,,,,,,4,,,,67,92
113100,note_on,0,0,5,,,,,,,,3,,,,70,92
113100,note_off,30,0,5,,,,,,,,3,,,,72,64
113130,note_off,30,0,6,,,,,,,,4,,,,67,64
113130,note_on,0,0,5,,,,,,,,3,,,,72,92
113130,note_on,0,0,11,,,,,,,,10,,,,69,75
113130,note_off,30,0,10,,,,,,,,8,,,,70,64
113130,note_off,30,0,11,,,,,,,,10,,,,67,64
113130,note_on,0,0,10,,,,,,,,8,,,,72,75
113130,note_off,30,0,5,,,,,,,,3,,,,70,64
113130,note_on,0,0,6,,,,,,,,4,,,,69,92
113160,note_on,0,0,11,,,,,,,,10,,,,67,75
113160,note_off,30,0,11,,,,,,,,10,,,,69,64
113160,note_on,0,0,5,,,,,,,,3,,,,70,92
113160,note_on,0,0,10,,,,,,,,8,,,,70,75
113160,note_off,30,0,5,,,,,,,,3,,,,72,64
113160,note_off,30,0,10,,,,,,,,8,,,,72,64
113160,note_on,0,0,6,,,,,,,,4,,,,67,92
113160,note_off,30,0,6,,,,,,,,4,,,,69,64
113190,note_on,0,0,10,,,,,,,,8,,,,72,75
113190,note_off,30,0,10,,,,,,,,8,,,,70,64
113190,note_on,0,0,6,,,,,,,,4,,,,69,92
113190,note_on,0,0,11,,,,,,,,10,,,,69,75
113190,note_off,30,0,11,,,,,,,,10,,,,67,64
113190,note_off,30,0,6,,,,,,,,4,,,,67,64
113190,note_on,0,0,5,,,,,,,,3,,,,72,92
113190,note_off,30,0,5,,,,,,,,3,,,,70,64
113220,note_on,0,0,10,,,,,,,,8,,,,69,75
113220,note_on,160,0,13,,,,,,,,12,,,,55,75
113220,set_tempo,4080,1,0,535714,,,,,,,,,,,,
113220,note_on,160,0,14,,,,,,,,13,,,,43,75
113220,note_on,0,0,6,,,,,,,,4,,,,66,92
113220,note_off,30,0,10,,,,,,,,8,,,,72,64
113220,note_off,30,0,6,,,,,,,,4,,,,69,64
113220,note_on,160,0,7,,,,,,,,5,,,,62,92
113220,note_on,160,0,8,,,,,,,,6,,,,55,92
113220,note_on,0,0,5,,,,,,,,3,,,,69,92
113220,note_on,160,0,9,,,,,,,,7,,,,43,92
113220,note_on,0,0,11,,,,,,,,10,,,,66,75
113220,note_off,30,0,11,,,,,,,,10,,,,69,64
113220,note_off,30,0,5,,,,,,,,3,,,,72,64
113220,note_on,160,0,12,,,,,,,,11,,,,65,75
113300,note_off,80,0,14,,,,,,,,13,,,,43,64
113300,note_off,80,0,5,,,,,,,,3,,,,69,64
113300,note_off,80,0,9,,,,,,,,7,,,,43,64
113300,note_off,80,0,10,,,,,,,,8,,,,69,64
113300,note_off,80,0,6,,,,,,,,4,,,,66,64
113300,note_off,80,0,11,,,,,,,,10,,,,66,64
113300,note_off,80,0,12,,,,,,,,11,,,,65,64
113300,note_off,80,0,7,,,,,,,,5,,,,62,64
113300,note_off,80,0,13,,,,,,,,12,,,,55,64
113300,note_off,80,0,8,,,,,,,,6,,,,55,64
113340,note_on,40,0,10,,,,,,,,8,,,,70,75
113340,note_on,40,0,11,,,,,,,,10,,,,67,75
113340,note_on,40,0,5,,,,,,,,3,,,,70,92
113340,note_on,40,0,6,,,,,,,,4,,,,67,92
113380,note_off,400,0,15,,,,,,,,14,,,,43,64
113420,note_off,80,0,11,,,,,,,,10,,,,67,64
113420,note_off,80,0,5,,,,,,,,3,,,,70,64
113420,note_off,80,0,10,,,,,,,,8,,,,70,64
113420,note_off,80,0,6,,,,,,,,4,,,,67,64
113460,note_on,160,0,14,,,,,,,,13,,,,36,75
113460,note_on,40,0,5,,,,,,,,3,,,,72,92
113460,note_on,160,0,12,,,,,,,,11,,,,58,75
113460,note_on,80,0,15,,,,,,,,14,,,,36,60
113460,note_on,40,0,6,,,,,,,,4,,,,69,92
113460,note_on,160,0,8,,,,,,,,6,,,,48,92
113460,note_on,40,0,10,,,,,,,,8,,,,72,75
113460,note_on,160,0,9,,,,,,,,7,,,,36,92
113460,note_on,160,0,13,,,,,,,,12,,,,48,75
113460,note_on,160,0,7,,,,,,,,5,,,,63,92
113460,note_on,40,0,11,,,,,,,,10,,,,69,75
113540,note_off,80,0,11,,,,,,,,10,,,,69,64
113540,note_off,80,0,10,,,,,,,,8,,,,72,64
113540,note_off,80,0,12,,,,,,,,11,,,,58,64
113540,note_off,80,0,5,,,,,,,,3,,,,72,64
113540,note_off,80,0,6,,,,,,,,4,,,,69,64
113540,note_off,80,0,8,,,,,,,,6,,,,48,64
113540,note_off,80,0,14,,,,,,,,13,,,,36,64
113540,note_off,80,0,9,,,,,,,,7,,,,36,64
113540,note_off,80,0,7,,,,,,,,5,,,,63,64
113540,note_off,80,0,13,,,,,,,,12,,,,48,64
113695,note_off,235,0,15,,,,,,,,14,,,,36,64
113700,note_on,160,0,13,,,,,,,,12,,,,49,75
113700,note_on,160,0,11,,,,,,,,10,,,,67,75
113700,note_on,160,0,6,,,,,,,,4,,,,67,92
113700,note_on,160,0,10,,,,,,,,8,,,,70,75
113700,note_on,160,0,9,,,,,,,,7,,,,37,92
113700,note_on,160,0,12,,,,,,,,11,,,,60,75
113700,note_on,160,0,14,,,,,,,,13,,,,37,75
113700,note_on,160,0,8,,,,,,,,6,,,,49,92
113700,note_on,160,0,7,,,,,,,,5,,,,64,92
113700,note_on,160,0,5,,,,,,,,3,,,,70,92
113700,note_on,5,0,15,,,,,,,,14,,,,37,60
113780,note_off,80,0,8,,,,,,,,6,,,,49,64
113780,note_off,80,0,9,,,,,,,,7,,,,37,64
113780,note_off,80,0,6,,,,,,,,4,,,,67,64
113780,note_off,80,0,14,,,,,,,,13,,,,37,64
113780,note_off,80,0,11,,,,,,,,10,,,,67,64
113780,note_off,80,0,10,,,,,,,,8,,,,70,64
113780,note_off,80,0,12,,,,,,,,11,,,,60,64
113780,note_off,80,0,7,,,,,,,,5,,,,64,64
113780,note_off,80,0,5,,,,,,,,3,,,,70,64
113780,note_off,80,0,13,,,,,,,,12,,,,49,64
113935,note_off,235,0,15,,,,,,,,14,,,,37,64
113940,note_on,160,0,10,,,,,,,,8,,,,69,75
113940,note_on,160,0,7,,,,,,,,5,,,,57,92
113940,note_on,160,0,9,,,,,,,,7,,,,38,92
113940,set_tempo,720,1,0,500000,,,,,,,,,,,,
113940,note_on,160,0,6,,,,,,,,4,,,,66,92
113940,note_on,160,0,11,,,,,,,,10,,,,66,75
113940,note_on,160,0,13,,,,,,,,12,,,,50,75
113940,note_on,5,0,15,,,,,,,,14,,,,38,60
113940,note_on,160,0,5,,,,,,,,3,,,,69,92
113940,note_on,160,0,14,,,,,,,,13,,,,38,75
113940,note_on,160,0,8,,,,,,,,6,,,,50,92
113940,note_on,160,0,12,,,,,,,,11,,,,60,75
114020,note_off,80,0,9,,,,,,,,7,,,,38,64
114020,note_off,80,0,14,,,,,,,,13,,,,38,64
114020,note_off,80,0,8,,,,,,,,6,,,,50,64
114020,note_off,80,0,13,,,,,,,,12,,,,50,64
114020,note_off,80,0,12,,,,,,,,11,,,,60,64
114020,note_off,80,0,7,,,,,,,,5,,,,57,64
114180,note_on,160,0,9,,,,,,,,7,,,,38,92
114180,note_on,160,0,8,,,,,,,,6,,,,50,92
114180,note_on,160,0,7,,,,,,,,5,,,,69,92
114180,note_on,160,0,13,,,,,,,,12,,,,50,75
114180,note_on,160,0,12,,,,,,,,11,,,,60,75
114180,note_on,160,0,14,,,,,,,,13,,,,38,75
114260,note_off,80,0,8,,,,,,,,6,,,,50,64
114260,note_off,80,0,12,,,,,,,,11,,,,60,64
114260,note_off,80,0,7,,,,,,,,5,,,,69,64
114260,note_off,80,0,13,,,,,,,,12,,,,50,64
114260,note_off,80,0,9,,,,,,,,7,,,,38,64
114260,note_off,80,0,14,,,,,,,,13,,,,38,64
114340,note_off,400,0,10,,,,,,,,8,,,,69,64
114340,note_off,400,0,15,,,,,,,,14,,,,38,64
114340,note_off,400,0,11,,,,,,,,10,,,,66,64
114340,note_off,400,0,5,,,,,,,,3,,,,69,64
114340,note_off,400,0,6,,,,,,,,4,,,,66,64
114420,note_on,160,0,14,,,,,,,,13,,,,38,75
114420,note_on,160,0,12,,,,,,,,11,,,,60,75
114420,note_on,160,0,13,,,,,,,,12,,,,50,75
114420,note_on,160,0,7,,,,,,,,5,,,,69,92
114420,note_on,160,0,8,,,,,,,,6,,,,50,92
114420,note_on,160,0,9,,,,,,,,7,,,,38,92
114500,note_off,80,0,14,,,,,,,,13,,,,38,64
114500,note_off,80,0,7,,,,,,,,5,,,,69,64
114500,note_off,80,0,12,,,,,,,,11,,,,60,64
114500,note_off,80,0,9,,,,,,,,7,,,,38,64
114500,note_off,80,0,8,,,,,,,,6,,,,50,64
114500,note_off,80,0,13,,,,,,,,12,,,,50,64
114660,note_on,320,0,5,,,,,,,,3,,,,78,92
114660,note_on,160,0,14,,,,,,,,13,,,,37,75
114660,note_on,160,0,8,,,,,,,,6,,,,49,92
114660,note_on,320,0,10,,,,,,,,8,,,,78,75
114660,note_on,320,0,6,,,,,,,,4,,,,66,92
114660,note_on,320,0,15,,,,,,,,14,,,,37,60
114660,note_on,160,0,12,,,,,,,,11,,,,60,75
114660,note_on,320,0,11,,,,,,,,10,,,,66,75
114660,note_on,160,0,13,,,,,,,,12,,,,49,75
114660,note_on,160,0,9,,,,,,,,7,,,,37,92
114660,note_on,160,0,7,,,,,,,,5,,,,69,92
114740,note_off,80,0,6,,,,,,,,4,,,,66,64
114740,note_off,80,0,7,,,,,,,,5,,,,69,64
114740,note_off,80,0,10,,,,,,,,8,,,,78,64
114740,note_off,80,0,8,,,,,,,,6,,,,49,64
114740,note_off,80,0,12,,,,,,,,11,,,,60,64
114740,note_off,80,0,9,,,,,,,,7,,,,37,64
114740,note_off,80,0,5,,,,,,,,3,,,,78,64
114740,note_off,80,0,14,,,,,,,,13,,,,37,64
114740,note_off,80,0,13,,,,,,,,12,,,,49,64
114895,note_off,235,0,11,,,,,,,,10,,,,66,64
114895,note_off,235,0,15,,,,,,,,14,,,,37,64
114900,note_on,160,0,5,,,,,,,,3,,,,79,92
114900,note_on,160,0,6,,,,,,,,4,,,,67,92
114900,note_on,160,0,9,,,,,,,,7,,,,35,92
114900,note_on,160,0,7,,,,,,,,5,,,,62,92
114900,note_on,160,0,12,,,,,,,,11,,,,62,75
114900,note_on,5,0,11,,,,,,,,10,,,,67,75
114900,note_on,160,0,13,,,,,,,,12,,,,47,75
114900,note_on,5,0,15,,,,,,,,14,,,,34,60
114900,note_on,160,0,8,,,,,,,,6,,,,47,92
114900,note_on,160,0,10,,,,,,,,8,,,,79,75
114900,note_on,160,0,14,,,,,,,,13,,,,35,75
114980,note_off,80,0,14,,,,,,,,13,,,,35,64
114980,note_off,80,0,9,,,,,,,,7,,,,35,64
114980,note_off,80,0,6,,,,,,,,4,,,,67,64
114980,note_off,80,0,7,,,,,,,,5,,,,62,64
114980,note_off,80,0,11,,,,,,,,10,,,,67,64
114980,note_off,80,0,10,,,,,,,,8,,,,79,64
114980,note_off,80,0,12,,,,,,,,11,,,,62,64
114980,note_off,80,0,13,,,,,,,,12,,,,47,64
114980,note_off,80,0,8,,,,,,,,6,,,,47,64
114980,note_off,80,0,5,,,,,,,,3,,,,79,64
115140,note_on,160,0,14,,,,,,,,13,,,,35,75
115140,note_on,160,0,11,,,,,,,,10,,,,67,75
115140,note_on,160,0,13,,,,,,,,12,,,,47,75
115140,note_on,160,0,5,,,,,,,,3,,,,79,92
115140,note_on,160,0,8,,,,,,,,6,,,,47,92
115140,note_on,160,0,10,,,,,,,,8,,,,79,75
115140,note_on,160,0,12,,,,,,,,11,,,,62,75
115140,note_on,160,0,7,,,,,,,,5,,,,62,92
115140,note_on,160,0,6,,,,,,,,4,,,,67,92
115140,note_on,160,0,9,,,,,,,,7,,,,35,92
115220,note_off,80,0,5,,,,,,,,3,,,,79,64
115220,note_off,80,0,13,,,,,,,,12,,,,47,64
115220,note_off,80,0,12,,,,,,,,11,,,,62,64
115220,note_off,80,0,11,,,,,,,,10,,,,67,64
115220,note_off,80,0,10,,,,,,,,8,,,,79,64
115220,note_off,80,0,8,,,,,,,,6,,,,47,64
115220,note_off,80,0,7,,,,,,,,5,,,,62,64
115220,note_off,80,0,6,,,,,,,,4,,,,67,64
115220,note_off,80,0,9,,,,,,,,7,,,,35,64
115220,note_off,80,0,14,,,,,,,,13,,,,35,64
115300,note_off,400,0,15,,,,,,,,14,,,,34,64
115380,note_on,160,0,14,,,,,,,,13,,,,35,75
115380,note_on,160,0,7,,,,,,,,5,,,,62,92
115380,note_on,160,0,6,,,,,,,,4,,,,67,92
115380,note_on,160,0,10,,,,,,,,8,,,,79,75
115380,note_on,160,0,12,,,,,,,,11,,,,62,75
115380,note_on,160,0,5,,,,,,,,3,,,,79,92
115380,note_on,160,0,11,,,,,,,,10,,,,67,75
115380,note_on,160,0,13,,,,,,,,12,,,,47,75
115380,note_on,160,0,9,,,,,,,,7,,,,35,92
115380,note_on,160,0,8,,,,,,,,6,,,,47,92
115460,note_off,80,0,11,,,,,,,,10,,,,67,64
115460,note_off,80,0,7,,,,,,,,5,,,,62,64
115460,note_off,80,0,6,,,,,,,,4,,,,67,64
115460,note_off,80,0,10,,,,,,,,8,,,,79,64
115460,note_off,80,0,9,,,,,,,,7,,,,35,64
115460,note_off,80,0,13,,,,,,,,12,,,,47,64
115460,note_off,80,0,14,,,,,,,,13,,,,35,64
115460,note_off,80,0,8,,,,,,,,6,,,,47,64
115460,note_off,80,0,5,,,,,,,,3,,,,79,64
115460,note_off,80,0,12,,,,,,,,11,,,,62,64
115620,note_on,160,0,14,,,,,,,,13,,,,31,75
115620,note_on,160,0,10,,,,,,,,8,,,,77,75
115620,note_on,160,0,7,,,,,,,,5,,,,67,92
115620,note_on,160,0,11,,,,,,,,10,,,,71,75
115620,note_on,320,0,15,,,,,,,,14,,,,31,60
115620,note_on,160,0,12,,,,,,,,11,,,,67,75
115620,note_on,160,0,6,,,,,,,,4,,,,71,92
115620,note_on,160,0,8,,,,,,,,6,,,,43,92
115620,note_on,160,0,9,,,,,,,,7,,,,31,92
115620,note_on,160,0,13,,,,,,,,12,,,,43,75
115620,note_on,160,0,5,,,,,,,,3,,,,77,92
115700,note_off,80,0,10,,,,,,,,8,,,,77,64
115700,note_off,80,0,14,,,,,,,,13,,,,31,64
115700,note_off,80,0,9,,,,,,,,7,,,,31,64
115700,note_off,80,0,5,,,,,,,,3,,,,77,64
115700,note_off,80,0,13,,,,,,,,12,,,,43,64
115700,note_off,80,0,11,,,,,,,,10,,,,71,64
115700,note_off,80,0,8,,,,,,,,6,,,,43,64
115700,note_off,80,0,12,,,,,,,,11,,,,67,64
115700,note_off,80,0,6,,,,,,,,4,,,,71,64
115700,note_off,80,0,7,,,,,,,,5,,,,67,64
115855,note_off,235,0,15,,,,,,,,14,,,,31,64
115860,note_on,160,0,14,,,,,,,,13,,,,36,75
115860,note_on,160,0,11,,,,,,,,10,,,,72,75
115860,note_on,160,0,10,,,,,,,,8,,,,75,75
115860,note_on,160,0,8,,,,,,,,6,,,,48,92
115860,note_on,160,0,12,,,,,,,,11,,,,67,75
115860,note_on,160,0,13,,,,,,,,12,,,,48,75
115860,note_on,5,0,15,,,,,,,,14,,,,36,60
115860,note_on,160,0,9,,,,,,,,7,,,,36,92
115860,note_on,160,0,5,,,,,,,,3,,,,75,92
115860,note_on,160,0,7,,,,,,,,5,,,,67,92
115860,note_on,160,0,6,,,,,,,,4,,,,72,92
115940,note_off,80,0,11,,,,,,,,10,,,,72,64
115940,note_off,80,0,12,,,,,,,,11,,,,67,64
115940,note_off,80,0,5,,,,,,,,3,,,,75,64
115940,note_off,80,0,6,,,,,,,,4,,,,72,64
115940,note_off,80,0,8,,,,,,,,6,,,,48,64
115940,note_off,80,0,7,,,,,,,,5,,,,67,64
115940,note_off,80,0,9,,,,,,,,7,,,,36,64
115940,note_off,80,0,13,,,,,,,,12,,,,48,64
115940,note_off,80,0,10,,,,,,,,8,,,,75,64
115940,note_off,80,0,14,,,,,,,,13,,,,36,64
116100,note_on,160,0,12,,,,,,,,11,,,,67,75
116100,note_on,160,0,7,,,,,,,,5,,,,67,92
116100,note_on,160,0,6,,,,,,,,4,,,,72,92
116100,note_on,160,0,9,,,,,,,,7,,,,36,92
116100,note_on,160,0,13,,,,,,,,12,,,,48,75
116100,note_on,160,0,14,,,,,,,,13,,,,36,75
116100,note_on,160,0,11,,,,,,,,10,,,,72,75
116100,note_on,160,0,10,,,,,,,,8,,,,75,75
116100,note_on,160,0,8,,,,,,,,6,,,,48,92
116100,note_on,160,0,5,,,,,,,,3,,,,75,92
116180,note_off,80,0,12,,,,,,,,11,,,,67,64
116180,note_off,80,0,10,,,,,,,,8,,,,75,64
116180,note_off,80,0,13,,,,,,,,12,,,,48,64
116180,note_off,80,0,6,,,,,,,,4,,,,72,64
116180,note_off,80,0,9,,,,,,,,7,,,,36,64
116180,note_off,80,0,8,,,,,,,,6,,,,48,64
116180,note_off,80,0,14,,,,,,,,13,,,,36,64
116180,note_off,80,0,7,,,,,,,,5,,,,67,64
116180,note_off,80,0,11,,,,,,,,10,,,,72,64
116180,note_off,80,0,5,,,,,,,,3,,,,75,64
116260,note_off,400,0,15,,,,,,,,14,,,,36,64
116340,note_on,160,0,7,,,,,,,,5,,,,67,92
116340,note_on,160,0,5,,,,,,,,3,,,,75,92
116340,note_on,160,0,14,,,,,,,,13,,,,36,75
116340,note_on,160,0,11,,,,,,,,10,,,,72,75
116340,note_on,160,0,9,,,,,,,,7,,,,36,92
116340,note_on,160,0,13,,,,,,,,12,,,,48,75
116340,note_on,160,0,12,,,,,,,,11,,,,67,75
116340,note_on,160,0,6,,,,,,,,4,,,,72,92
116340,note_on,160,0,8,,,,,,,,6,,,,48,92
116340,note_on,160,0,10,,,,,,,,8,,,,75,75
116420,note_off,80,0,13,,,,,,,,12,,,,48,64
116420,note_off,80,0,10,,,,,,,,8,,,,75,64
116420,note_off,80,0,7,,,,,,,,5,,,,67,64
116420,note_off,80,0,8,,,,,,,,6,,,,48,64
116420,note_off,80,0,14,,,,,,,,13,,,,36,64
116420,note_off,80,0,9,,,,,,,,7,,,,36,64
116420,note_off,80,0,6,,,,,,,,4,,,,72,64
116420,note_off,80,0,11,,,,,,,,10,,,,72,64
116420,note_off,80,0,12,,,,,,,,11,,,,67,64
116420,note_off,80,0,5,,,,,,,,3,,,,75,64
116580,note_on,320,0,15,,,,,,,,14,,,,36,60
116580,note_on,160,0,7,,,,,,,,5,,,,63,92
116580,note_on,160,0,6,,,,,,,,4,,,,70,92
116580,note_on,160,0,10,,,,,,,,8,,,,75,75
116580,note_on,160,0,11,,,,,,,,10,,,,70,75
116580,note_on,160,0,13,,,,,,,,12,,,,48,75
116580,note_on,160,0,12,,,,,,,,11,,,,63,75
116580,note_on,160,0,8,,,,,,,,6,,,,48,92
116580,note_on,160,0,9,,,,,,,,7,,,,36,92
116580,note_on,160,0,5,,,,,,,,3,,,,75,92
116580,note_on,160,0,14,,,,,,,,13,,,,36,75
116660,note_off,80,0,14,,,,,,,,13,,,,36,64
116660,note_off,80,0,6,,,,,,,,4,,,,70,64
116660,note_off,80,0,7,,,,,,,,5,,,,63,64
116660,note_off,80,0,5,,,,,,,,3,,,,75,64
116660,note_off,80,0,10,,,,,,,,8,,,,75,64
116660,note_off,80,0,8,,,,,,,,6,,,,48,64
116660,note_off,80,0,12,,,,,,,,11,,,,63,64
116660,note_off,80,0,11,,,,,,,,10,,,,70,64
116660,note_off,80,0,9,,,,,,,,7,,,,36,64
116660,note_off,80,0,13,,,,,,,,12,,,,48,64
116815,note_off,235,0,15,,,,,,,,14,,,,36,64
116820,note_on,160,0,13,,,,,,,,12,,,,53,75
116820,note_on,160,0,10,,,,,,,,8,,,,77,75
116820,note_on,160,0,6,,,,,,,,4,,,,69,92
116820,note_on,160,0,7,,,,,,,,5,,,,60,92
116820,note_on,160,0,9,,,,,,,,7,,,,41,92
116820,note_on,160,0,5,,,,,,,,3,,,,77,92
116820,note_on,160,0,14,,,,,,,,13,,,,41,75
116820,note_on,160,0,8,,,,,,,,6,,,,53,92
116820,note_on,160,0,11,,,,,,,,10,,,,69,75
116820,note_on,160,0,12,,,,,,,,11,,,,60,75
116820,note_on,5,0,15,,,,,,,,14,,,,41,60
116900,note_off,80,0,6,,,,,,,,4,,,,69,64
116900,note_off,80,0,13,,,,,,,,12,,,,53,64
116900,note_off,80,0,14,,,,,,,,13,,,,41,64
116900,note_off,80,0,10,,,,,,,,8,,,,77,64
116900,note_off,80,0,8,,,,,,,,6,,,,53,64
116900,note_off,80,0,9,,,,,,,,7,,,,41,64
116900,note_off,80,0,7,,,,,,,,5,,,,60,64
116900,note_off,80,0,5,,,,,,,,3,,,,77,64
116900,note_off,80,0,11,,,,,,,,10,,,,69,64
116900,note_off,80,0,12,,,,,,,,11,,,,60,64
117060,note_on,160,0,5,,,,,,,,3,,,,77,92
117060,note_on,160,0,10,,,,,,,,8,,,,77,75
117060,note_on,160,0,7,,,,,,,,5,,,,60,92
117060,note_on,160,0,9,,,,,,,,7,,,,41,92
117060,note_on,160,0,14,,,,,,,,13,,,,41,75
117060,note_on,160,0,8,,,,,,,,6,,,,53,92
117060,note_on,160,0,13,,,,,,,,12,,,,53,75
117060,note_on,160,0,11,,,,,,,,10,,,,69,75
117060,note_on,160,0,12,,,,,,,,11,,,,60,75
117060,note_on,160,0,6,,,,,,,,4,,,,69,92
117140,note_off,80,0,8,,,,,,,,6,,,,53,64
117140,note_off,80,0,11,,,,,,,,10,,,,69,64
117140,note_off,80,0,5,,,,,,,,3,,,,77,64
117140,note_off,80,0,7,,,,,,,,5,,,,60,64
117140,note_off,80,0,12,,,,,,,,11,,,,60,64
117140,note_off,80,0,13,,,,,,,,12,,,,53,64
117140,note_off,80,0,6,,,,,,,,4,,,,69,64
117140,note_off,80,0,14,,,,,,,,13,,,,41,64
117140,note_off,80,0,10,,,,,,,,8,,,,77,64
117140,note_off,80,0,9,,,,,,,,7,,,,41,64
117220,note_off,400,0,15,,,,,,,,14,,,,41,64
117300,note_on,160,0,7,,,,,,,,5,,,,60,92
117300,note_on,160,0,9,,,,,,,,7,,,,41,92
117300,note_on,160,0,14,,,,,,,,13,,,,41,75
117300,note_on,160,0,10,,,,,,,,8,,,,77,75
117300,note_on,160,0,5,,,,,,,,3,,,,77,92
117300,note_on,160,0,11,,,,,,,,10,,,,69,75
117300,note_on,160,0,6,,,,,,,,4,,,,69,92
117300,note_on,160,0,8,,,,,,,,6,,,,53,92
117300,note_on,160,0,13,,,,,,,,12,,,,53,75
117300,note_on,160,0,12,,,,,,,,11,,,,60,75
117380,note_off,80,0,5,,,,,,,,3,,,,77,64
117380,note_off,80,0,11,,,,,,,,10,,,,69,64
117380,note_off,80,0,8,,,,,,,,6,,,,53,64
117380,note_off,80,0,13,,,,,,,,12,,,,53,64
117380,note_off,80,0,7,,,,,,,,5,,,,60,64
117380,note_off,80,0,6,,,,,,,,4,,,,69,64
117380,note_off,80,0,14,,,,,,,,13,,,,41,64
117380,note_off,80,0,10,,,,,,,,8,,,,77,64
117380,note_off,80,0,9,,,,,,,,7,,,,41,64
117380,note_off,80,0,12,,,,,,,,11,,,,60,64
117540,note_on,160,0,7,,,,,,,,5,,,,65,92
117540,note_on,320,0,15,,,,,,,,14,,,,41,60
117540,note_on,160,0,6,,,,,,,,4,,,,69,92
117540,note_on,160,0,14,,,,,,,,13,,,,41,75
117540,note_on,160,0,13,,,,,,,,12,,,,53,75
117540,note_on,160,0,5,,,,,,,,3,,,,75,92
117540,note_on,160,0,12,,,,,,,,11,,,,65,75
117540,note_on,160,0,11,,,,,,,,10,,,,69,75
117540,note_on,160,0,10,,,,,,,,8,,,,75,75
117540,note_on,160,0,8,,,,,,,,6,,,,53,92
117540,note_on,160,0,9,,,,,,,,7,,,,41,92
117620,note_off,80,0,5,,,,,,,,3,,,,75,64
117620,note_off,80,0,7,,,,,,,,5,,,,65,64
117620,note_off,80,0,11,,,,,,,,10,,,,69,64
117620,note_off,80,0,14,,,,,,,,13,,,,41,64
117620,note_off,80,0,6,,,,,,,,4,,,,69,64
117620,note_off,80,0,10,,,,,,,,8,,,,75,64
117620,note_off,80,0,12,,,,,,,,11,,,,65,64
117620,note_off,80,0,13,,,,,,,,12,,,,53,64
117620,note_off,80,0,8,,,,,,,,6,,,,53,64
117620,note_off,80,0,9,,,,,,,,7,,,,41,64
117775,note_off,235,0,15,,,,,,,,14,,,,41,64
117780,note_on,160,0,5,,,,,,,,3,,,,74,92
117780,note_on,160,0,12,,,,,,,,11,,,,65,75
117780,note_on,160,0,14,,,,,,,,13,,,,34,75
117780,note_on,160,0,7,,,,,,,,5,,,,65,92
117780,note_on,160,0,6,,,,,,,,4,,,,70,92
117780,note_on,160,0,13,,,,,,,,12,,,,46,75
117780,note_on,5,0,15,,,,,,,,14,,,,34,60
117780,note_on,160,0,11,,,,,,,,10,,,,70,75
117780,note_on,160,0,10,,,,,,,,8,,,,74,75
117780,note_on,160,0,8,,,,,,,,6,,,,46,92
117780,note_on,160,0,9,,,,,,,,7,,,,34,92
117860,note_off,80,0,8,,,,,,,,6,,,,46,64
117860,note_off,80,0,10,,,,,,,,8,,,,74,64
117860,note_off,80,0,12,,,,,,,,11,,,,65,64
117860,note_off,80,0,13,,,,,,,,12,,,,46,64
117860,note_off,80,0,5,,,,,,,,3,,,,74,64
117860,note_off,80,0,14,,,,,,,,13,,,,34,64
117860,note_off,80,0,9,,,,,,,,7,,,,34,64
117860,note_off,80,0,7,,,,,,,,5,,,,65,64
117860,note_off,80,0,6,,,,,,,,4,,,,70,64
117860,note_off,80,0,11,,,,,,,,10,,,,70,64
118020,note_on,160,0,7,,,,,,,,5,,,,65,92
118020,note_on,160,0,14,,,,,,,,13,,,,34,75
118020,note_on,160,0,8,,,,,,,,6,,,,46,92
118020,note_on,160,0,5,,,,,,,,3,,,,74,92
118020,note_on,160,0,9,,,,,,,,7,,,,34,92
118020,note_on,160,0,12,,,,,,,,11,,,,65,75
118020,note_on,160,0,11,,,,,,,,10,,,,70,75
118020,note_on,160,0,10,,,,,,,,8,,,,74,75
118020,note_on,160,0,6,,,,,,,,4,,,,70,92
118020,note_on,160,0,13,,,,,,,,12,,,,46,75
118100,note_off,80,0,11,,,,,,,,10,,,,70,64
118100,note_off,80,0,8,,,,,,,,6,,,,46,64
118100,note_off,80,0,5,,,,,,,,3,,,,74,64
118100,note_off,80,0,7,,,,,,,,5,,,,65,64
118100,note_off,80,0,9,,,,,,,,7,,,,34,64
118100,note_off,80,0,14,,,,,,,,13,,,,34,64
118100,note_off,80,0,10,,,,,,,,8,,,,74,64
118100,note_off,80,0,6,,,,,,,,4,,,,70,64
118100,note_off,80,0,12,,,,,,,,11,,,,65,64
118100,note_off,80,0,13,,,,,,,,12,,,,46,64
118180,note_off,400,0,15,,,,,,,,14,,,,34,64
118260,note_on,160,0,14,,,,,,,,13,,,,34,75
118260,note_on,160,0,9,,,,,,,,7,,,,34,92
118260,note_on,160,0,12,,,,,,,,11,,,,65,75
118260,note_on,160,0,11,,,,,,,,10,,,,70,75
118260,note_on,160,0,8,,,,,,,,6,,,,46,92
118260,note_on,160,0,13,,,,,,,,12,,,,46,75
118260,note_on,160,0,7,,,,,,,,5,,,,65,92
118260,note_on,160,0,6,,,,,,,,4,,,,70,92
118260,note_on,160,0,10,,,,,,,,8,,,,74,75
118260,note_on,160,0,5,,,,,,,,3,,,,74,92
118340,note_off,80,0,6,,,,,,,,4,,,,70,64
118340,note_off,80,0,12,,,,,,,,11,,,,65,64
118340,note_off,80,0,9,,,,,,,,7,,,,34,64
118340,note_off,80,0,10,,,,,,,,8,,,,74,64
118340,note_off,80,0,5,,,,,,,,3,,,,74,64
118340,note_off,80,0,11,,,,,,,,10,,,,70,64
118340,note_off,80,0,7,,,,,,,,5,,,,65,64
118340,note_off,80,0,14,,,,,,,,13,,,,34,64
118340,note_off,80,0,8,,,,,,,,6,,,,46,64
118340,note_off,80,0,13,,,,,,,,12,,,,46,64
118500,note_on,160,0,8,,,,,,,,6,,,,46,92
118500,note_on,160,0,5,,,,,,,,3,,,,74,92
118500,note_on,160,0,11,,,,,,,,10,,,,69,75
118500,note_on,160,0,14,,,,,,,,13,,,,34,75
118500,note_on,160,0,7,,,,,,,,5,,,,62,92
118500,note_on,160,0,6,,,,,,,,4,,,,69,92
118500,note_on,160,0,13,,,,,,,,12,,,,46,75
118500,note_on,320,0,15,,,,,,,,14,,,,34,60
118500,note_on,160,0,10,,,,,,,,8,,,,74,75
118500,note_on,160,0,9,,,,,,,,7,,,,34,92
118500,note_on,160,0,12,,,,,,,,11,,,,62,75
118580,note_off,80,0,6,,,,,,,,4,,,,69,64
118580,note_off,80,0,8,,,,,,,,6,,,,46,64
118580,note_off,80,0,11,,,,,,,,10,,,,69,64
118580,note_off,80,0,13,,,,,,,,12,,,,46,64
118580,note_off,80,0,5,,,,,,,,3,,,,74,64
118580,note_off,80,0,10,,,,,,,,8,,,,74,64
118580,note_off,80,0,7,,,,,,,,5,,,,62,64
118580,note_off,80,0,14,,,,,,,,13,,,,34,64
118580,note_off,80,0,12,,,,,,,,11,,,,62,64
118580,note_off,80,0,9,,,,,,,,7,,,,34,64
118735,note_off,235,0,15,,,,,,,,14,,,,34,64
118740,note_on,160,0,12,,,,,,,,11,,,,58,75
118740,note_on,160,0,7,,,,,,,,5,,,,58,92
118740,note_on,160,0,5,,,,,,,,3,,,,75,92
118740,note_on,5,0,15,,,,,,,,14,,,,39,60
118740,note_on,160,0,13,,,,,,,,12,,,,51,75
118740,note_on,160,0,6,,,,,,,,4,,,,67,92
118740,note_on,160,0,10,,,,,,,,8,,,,75,75
118740,note_on,160,0,11,,,,,,,,10,,,,67,75
118740,note_on,160,0,14,,,,,,,,13,,,,39,75
118740,note_on,160,0,8,,,,,,,,6,,,,51,92
118740,note_on,160,0,9,,,,,,,,7,,,,39,92
118820,note_off,80,0,9,,,,,,,,7,,,,39,64
118820,note_off,80,0,11,,,,,,,,10,,,,67,64
118820,note_off,80,0,10,,,,,,,,8,,,,75,64
118820,note_off,80,0,13,,,,,,,,12,,,,51,64
118820,note_off,80,0,7,,,,,,,,5,,,,58,64
118820,note_off,80,0,6,,,,,,,,4,,,,67,64
118820,note_off,80,0,5,,,,,,,,3,,,,75,64
118820,note_off,80,0,14,,,,,,,,13,,,,39,64
118820,note_off,80,0,12,,,,,,,,11,,,,58,64
118820,note_off,80,0,8,,,,,,,,6,,,,51,64
118980,note_on,160,0,10,,,,,,,,8,,,,75,75
118980,note_on,160,0,11,,,,,,,,10,,,,67,75
118980,note_on,160,0,14,,,,,,,,13,,,,39,75
118980,note_on,160,0,13,,,,,,,,12,,,,51,75
118980,note_on,160,0,6,,,,,,,,4,,,,67,92
118980,note_on,160,0,9,,,,,,,,7,,,,39,92
118980,note_on,160,0,8,,,,,,,,6,,,,51,92
118980,note_on,160,0,7,,,,,,,,5,,,,58,92
118980,note_on,160,0,5,,,,,,,,3,,,,75,92
118980,note_on,160,0,12,,,,,,,,11,,,,58,75
119060,note_off,80,0,7,,,,,,,,5,,,,58,64
119060,note_off,80,0,6,,,,,,,,4,,,,67,64
119060,note_off,80,0,9,,,,,,,,7,,,,39,64
119060,note_off,80,0,14,,,,,,,,13,,,,39,64
119060,note_off,80,0,8,,,,,,,,6,,,,51,64
119060,note_off,80,0,13,,,,,,,,12,,,,51,64
119060,note_off,80,0,11,,,,,,,,10,,,,67,64
119060,note_off,80,0,10,,,,,,,,8,,,,75,64
119060,note_off,80,0,5,,,,,,,,3,,,,75,64
119060,note_off,80,0,12,,,,,,,,11,,,,58,64
119140,note_off,400,0,15,,,,,,,,14,,,,39,64
119220,note_on,160,0,5,,,,,,,,3,,,,75,92
119220,note_on,160,0,7,,,,,,,,5,,,,58,92
119220,note_on,160,0,8,,,,,,,,6,,,,51,92
119220,note_on,160,0,13,,,,,,,,12,,,,51,75
119220,note_on,160,0,9,,,,,,,,7,,,,39,92
119220,note_on,160,0,14,,,,,,,,13,,,,39,75
119220,note_on,160,0,6,,,,,,,,4,,,,67,92
119220,note_on,160,0,12,,,,,,,,11,,,,58,75
119220,note_on,160,0,11,,,,,,,,10,,,,67,75
119220,note_on,160,0,10,,,,,,,,8,,,,75,75
119300,note_off,80,0,12,,,,,,,,11,,,,58,64
119300,note_off,80,0,10,,,,,,,,8,,,,75,64
119300,note_off,80,0,6,,,,,,,,4,,,,67,64
119300,note_off,80,0,7,,,,,,,,5,,,,58,64
119300,note_off,80,0,11,,,,,,,,10,,,,67,64
119300,note_off,80,0,14,,,,,,,,13,,,,39,64
119300,note_off,80,0,8,,,,,,,,6,,,,51,64
119300,note_off,80,0,13,,,,,,,,12,,,,51,64
119300,note_off,80,0,9,,,,,,,,7,,,,39,64
119300,note_off,80,0,5,,,,,,,,3,,,,75,64
119460,note_on,160,0,14,,,,,,,,13,,,,39,75
119460,note_on,160,0,8,,,,,,,,6,,,,51,92
119460,note_on,160,0,5,,,,,,,,3,,,,74,92
119460,note_on,160,0,13,,,,,,,,12,,,,51,75
119460,note_on,160,0,12,,,,,,,,11,,,,62,75
119460,note_on,320,0,15,,,,,,,,14,,,,39,60
119460,note_on,160,0,9,,,,,,,,7,,,,39,92
119460,note_on,160,0,6,,,,,,,,4,,,,67,92
119460,note_on,160,0,10,,,,,,,,8,,,,74,75
119460,note_on,160,0,7,,,,,,,,5,,,,62,92
119460,note_on,160,0,11,,,,,,,,10,,,,67,75
119540,note_off,80,0,8,,,,,,,,6,,,,51,64
119540,note_off,80,0,6,,,,,,,,4,,,,67,64
119540,note_off,80,0,5,,,,,,,,3,,,,74,64
119540,note_off,80,0,10,,,,,,,,8,,,,74,64
119540,note_off,80,0,14,,,,,,,,13,,,,39,64
119540,note_off,80,0,12,,,,,,,,11,,,,62,64
119540,note_off,80,0,7,,,,,,,,5,,,,62,64
119540,note_off,80,0,9,,,,,,,,7,,,,39,64
119540,note_off,80,0,13,,,,,,,,12,,,,51,64
119540,note_off,80,0,11,,,,,,,,10,,,,67,64
119695,note_off,235,0,15,,,,,,,,14,,,,39,64
119700,note_on,160,0,6,,,,,,,,4,,,,69,92
119700,note_on,160,0,12,,,,,,,,11,,,,64,75
119700,note_on,160,0,13,,,,,,,,12,,,,45,75
119700,note_on,160,0,9,,,,,,,,7,,,,33,92
119700,note_on,160,0,5,,,,,,,,3,,,,73,92
119700,note_on,160,0,8,,,,,,,,6,,,,45,92
119700,note_on,160,0,11,,,,,,,,10,,,,69,75
119700,note_on,160,0,10,,,,,,,,8,,,,73,75
119700,note_on,5,0,15,,,,,,,,14,,,,33,60
119700,note_on,160,0,14,,,,,,,,13,,,,33,75
119700,note_on,160,0,7,,,,,,,,5,,,,64,92
119780,note_off,80,0,6,,,,,,,,4,,,,69,64
119780,note_off,80,0,10,,,,,,,,8,,,,73,64
119780,note_off,80,0,9,,,,,,,,7,,,,33,64
119780,note_off,80,0,5,,,,,,,,3,,,,73,64
119780,note_off,80,0,12,,,,,,,,11,,,,64,64
119780,note_off,80,0,11,,,,,,,,10,,,,69,64
119780,note_off,80,0,13,,,,,,,,12,,,,45,64
119780,note_off,80,0,8,,,,,,,,6,,,,45,64
119780,note_off,80,0,14,,,,,,,,13,,,,33,64
119780,note_off,80,0,7,,,,,,,,5,,,,64,64
119940,note_on,160,0,9,,,,,,,,7,,,,33,81
119940,note_on,160,0,13,,,,,,,,12,,,,45,64
119940,note_on,160,0,5,,,,,,,,3,,,,73,81
119940,note_on,160,0,6,,,,,,,,4,,,,76,81
119940,note_on,160,0,14,,,,,,,,13,,,,33,64
119940,note_on,160,0,7,,,,,,,,5,,,,64,81
119940,note_on,160,0,8,,,,,,,,6,,,,45,81
119940,note_on,160,0,10,,,,,,,,8,,,,73,64
119940,note_on,160,0,11,,,,,,,,10,,,,76,64
119940,note_on,160,0,12,,,,,,,,11,,,,64,64
120020,note_off,80,0,11,,,,,,,,10,,,,76,64
120020,note_off,80,0,7,,,,,,,,5,,,,64,64
120020,note_off,80,0,5,,,,,,,,3,,,,73,64
120020,note_off,80,0,13,,,,,,,,12,,,,45,64
120020,note_off,80,0,14,,,,,,,,13,,,,33,64
120020,note_off,80,0,10,,,,,,,,8,,,,73,64
120020,note_off,80,0,8,,,,,,,,6,,,,45,64
120020,note_off,80,0,9,,,,,,,,7,,,,33,64
120020,note_off,80,0,12,,,,,,,,11,,,,64,64
120020,note_off,80,0,6,,,,,,,,4,,,,76,64
120100,note_off,400,0,15,,,,,,,,14,,,,33,64
120180,note_on,160,0,10,,,,,,,,8,,,,73,53
120180,note_on,160,0,13,,,,,,,,12,,,,45,53
120180,note_on,160,0,7,,,,,,,,5,,,,69,69
120180,note_on,160,0,6,,,,,,,,4,,,,76,69
120180,note_on,160,0,11,,,,,,,,10,,,,76,53
120180,note_on,160,0,9,,,,,,,,7,,,,33,69
120180,note_on,160,0,14,,,,,,,,13,,,,33,53
120180,note_on,160,0,5,,,,,,,,3,,,,73,69
120180,note_on,160,0,12,,,,,,,,11,,,,69,53
120180,note_on,160,0,8,,,,,,,,6,,,,45,69
120260,note_off,80,0,9,,,,,,,,7,,,,33,64
120260,note_off,80,0,5,,,,,,,,3,,,,73,64
120260,note_off,80,0,14,,,,,,,,13,,,,33,64
120260,note_off,80,0,12,,,,,,,,11,,,,69,64
120260,note_off,80,0,13,,,,,,,,12,,,,45,64
120260,note_off,80,0,10,,,,,,,,8,,,,73,64
120260,note_off,80,0,11,,,,,,,,10,,,,76,64
120260,note_off,80,0,6,,,,,,,,4,,,,76,64
120260,note_off,80,0,7,,,,,,,,5,,,,69,64
120260,note_off,80,0,8,,,,,,,,6,,,,45,64
120420,note_on,320,0,15,,,,,,,,14,,,,33,49
120420,note_on,160,0,9,,,,,,,,7,,,,33,57
120420,note_on,160,0,7,,,,,,,,5,,,,69,57
120420,note_on,160,0,11,,,,,,,,10,,,,73,42
120420,note_on,160,0,12,,,,,,,,11,,,,69,42
120420,note_on,160,0,5,,,,,,,,3,,,,76,57
120420,note_on,160,0,10,,,,,,,,8,,,,76,42
120420,note_on,160,0,14,,,,,,,,13,,,,33,42
120420,note_on,160,0,6,,,,,,,,4,,,,73,57
120420,note_on,160,0,13,,,,,,,,12,,,,45,42
120420,note_on,160,0,8,,,,,,,,6,,,,45,57
120500,note_off,80,0,5,,,,,,,,3,,,,76,64
120500,note_off,80,0,11,,,,,,,,10,,,,73,64
120500,note_off,80,0,9,,,,,,,,7,,,,33,64
120500,note_off,80,0,13,,,,,,,,12,,,,45,64
120500,note_off,80,0,10,,,,,,,,8,,,,76,64
120500,note_off,80,0,12,,,,,,,,11,,,,69,64
120500,note_off,80,0,7,,,,,,,,5,,,,69,64
120500,note_off,80,0,14,,,,,,,,13,,,,33,64
120500,note_off,80,0,6,,,,,,,,4,,,,73,64
120500,note_off,80,0,8,,,,,,,,6,,,,45,64
120655,note_off,235,0,15,,,,,,,,14,,,,33,64
120660,note_on,160,0,9,,,,,,,,7,,,,38,45
120660,note_on,160,0,5,,,,,,,,3,,,,77,45
120660,note_on,160,0,12,,,,,,,,11,,,,69,30
120660,note_on,160,0,10,,,,,,,,8,,,,77,30
120660,note_on,160,0,13,,,,,,,,12,,,,50,30
120660,note_on,160,0,6,,,,,,,,4,,,,74,45
120660,note_on,160,0,8,,,,,,,,6,,,,50,45
120660,note_on,160,0,7,,,,,,,,5,,,,69,45
120660,note_on,160,0,14,,,,,,,,13,,,,38,30
120660,note_on,160,0,11,,,,,,,,10,,,,74,30
120660,note_on,5,0,15,,,,,,,,14,,,,38,45
120740,note_off,80,0,11,,,,,,,,10,,,,74,64
120740,note_off,80,0,7,,,,,,,,5,,,,69,64
120740,note_off,80,0,8,,,,,,,,6,,,,50,64
120740,note_off,80,0,6,,,,,,,,4,,,,74,64
120740,note_off,80,0,14,,,,,,,,13,,,,38,64
120740,note_off,80,0,13,,,,,,,,12,,,,50,64
120740,note_off,80,0,9,,,,,,,,7,,,,38,64
120740,note_off,80,0,5,,,,,,,,3,,,,77,64
120740,note_off,80,0,10,,,,,,,,8,,,,77,64
120740,note_off,80,0,12,,,,,,,,11,,,,69,64
120900,note_on,160,0,9,,,,,,,,7,,,,38,45
120900,note_on,160,0,11,,,,,,,,10,,,,74,30
120900,note_on,160,0,14,,,,,,,,13,,,,38,30
120900,note_on,160,0,13,,,,,,,,12,,,,50,30
120900,note_on,160,0,10,,,,,,,,8,,,,77,30
120900,note_on,160,0,7,,,,,,,,5,,,,69,45
120900,note_on,160,0,5,,,,,,,,3,,,,77,45
120900,note_on,160,0,6,,,,,,,,4,,,,74,45
120900,note_on,160,0,8,,,,,,,,6,,,,50,45
120900,note_on,160,0,12,,,,,,,,11,,,,69,30
120980,note_off,80,0,11,,,,,,,,10,,,,74,64
120980,note_off,80,0,13,,,,,,,,12,,,,50,64
120980,note_off,80,0,6,,,,,,,,4,,,,74,64
120980,note_off,80,0,7,,,,,,,,5,,,,69,64
120980,note_off,80,0,5,,,,,,,,3,,,,77,64
120980,note_off,80,0,14,,,,,,,,13,,,,38,64
120980,note_off,80,0,9,,,,,,,,7,,,,38,64
120980,note_off,80,0,12,,,,,,,,11,,,,69,64
120980,note_off,80,0,8,,,,,,,,6,,,,50,64
120980,note_off,80,0,10,,,,,,,,8,,,,77,64
121060,note_off,400,0,15,,,,,,,,14,,,,38,64
121140,note_on,160,0,9,,,,,,,,7,,,,38,45
121140,note_on,160,0,13,,,,,,,,12,,,,50,30
121140,note_on,160,0,14,,,,,,,,13,,,,38,30
121140,note_on,160,0,12,,,,,,,,11,,,,69,30
121140,note_on,160,0,5,,,,,,,,3,,,,77,45
121140,note_on,160,0,7,,,,,,,,5,,,,69,45
121140,note_on,160,0,6,,,,,,,,4,,,,74,45
121140,note_on,160,0,8,,,,,,,,6,,,,50,45
121140,note_on,160,0,11,,,,,,,,10,,,,74,30
121140,note_on,160,0,10,,,,,,,,8,,,,77,30
121220,note_off,80,0,12,,,,,,,,11,,,,69,64
121220,note_off,80,0,11,,,,,,,,10,,,,74,64
121220,note_off,80,0,10,,,,,,,,8,,,,77,64
121220,note_off,80,0,9,,,,,,,,7,,,,38,64
121220,note_off,80,0,5,,,,,,,,3,,,,77,64
121220,note_off,80,0,14,,,,,,,,13,,,,38,64
121220,note_off,80,0,6,,,,,,,,4,,,,74,64
121220,note_off,80,0,7,,,,,,,,5,,,,69,64
121220,note_off,80,0,13,,,,,,,,12,,,,50,64
121220,note_off,80,0,8,,,,,,,,6,,,,50,64
121380,note_on,160,0,8,,,,,,,,6,,,,45,45
121380,note_on,160,0,12,,,,,,,,11,,,,73,30
121380,note_on,160,0,9,,,,,,,,7,,,,33,45
121380,note_on,160,0,5,,,,,,,,3,,,,79,45
121380,note_on,160,0,6,,,,,,,,4,,,,76,45
121380,note_on,160,0,14,,,,,,,,13,,,,33,30
121380,note_on,160,0,7,,,,,,,,5,,,,73,45
121380,note_on,160,0,13,,,,,,,,12,,,,45,30
121380,note_on,160,0,10,,,,,,,,8,,,,79,30
121380,note_on,320,0,15,,,,,,,,14,,,,33,45
121380,note_on,160,0,11,,,,,,,,10,,,,76,30
121460,note_off,80,0,14,,,,,,,,13,,,,33,64
121460,note_off,80,0,8,,,,,,,,6,,,,45,64
121460,note_off,80,0,13,,,,,,,,12,,,,45,64
121460,note_off,80,0,11,,,,,,,,10,,,,76,64
121460,note_off,80,0,12,,,,,,,,11,,,,73,64
121460,note_off,80,0,6,,,,,,,,4,,,,76,64
121460,note_off,80,0,5,,,,,,,,3,,,,79,64
121460,note_off,80,0,10,,,,,,,,8,,,,79,64
121460,note_off,80,0,7,,,,,,,,5,,,,73,64
121460,note_off,80,0,9,,,,,,,,7,,,,33,64
121615,note_off,235,0,15,,,,,,,,14,,,,33,64
121620,note_on,160,0,6,,,,,,,,4,,,,74,45
121620,note_on,160,0,12,,,,,,,,11,,,,69,30
121620,note_on,160,0,10,,,,,,,,8,,,,77,30
121620,note_on,160,0,5,,,,,,,,3,,,,77,45
121620,note_on,160,0,13,,,,,,,,12,,,,50,30
121620,note_on,160,0,7,,,,,,,,5,,,,69,45
121620,note_on,160,0,8,,,,,,,,6,,,,50,45
121620,note_on,160,0,9,,,,,,,,7,,,,38,45
121620,note_on,160,0,11,,,,,,,,10,,,,74,30
121620,note_on,160,0,14,,,,,,,,13,,,,38,30
121620,note_on,5,0,15,,,,,,,,14,,,,38,45
121700,note_off,80,0,5,,,,,,,,3,,,,77,64
121700,note_off,80,0,13,,,,,,,,12,,,,50,64
121700,note_off,80,0,6,,,,,,,,4,,,,74,64
121700,note_off,80,0,9,,,,,,,,7,,,,38,64
121700,note_off,80,0,8,,,,,,,,6,,,,50,64
121700,note_off,80,0,12,,,,,,,,11,,,,69,64
121700,note_off,80,0,11,,,,,,,,10,,,,74,64
121700,note_off,80,0,14,,,,,,,,13,,,,38,64
121700,note_off,80,0,7,,,,,,,,5,,,,69,64
121700,note_off,80,0,10,,,,,,,,8,,,,77,64
121860,note_on,160,0,7,,,,,,,,5,,,,69,48
121860,note_on,160,0,5,,,,,,,,3,,,,77,48
121860,note_on,160,0,13,,,,,,,,12,,,,50,33
121860,note_on,160,0,14,,,,,,,,13,,,,38,33
121860,note_on,160,0,6,,,,,,,,4,,,,74,48
121860,note_on,160,0,10,,,,,,,,8,,,,77,33
121860,note_on,160,0,9,,,,,,,,7,,,,38,48
121860,note_on,160,0,8,,,,,,,,6,,,,50,48
121860,note_on,160,0,11,,,,,,,,10,,,,74,33
121860,note_on,160,0,12,,,,,,,,11,,,,69,33
121940,note_off,80,0,12,,,,,,,,11,,,,69,64
121940,note_off,80,0,11,,,,,,,,10,,,,74,64
121940,note_off,80,0,7,,,,,,,,5,,,,69,64
121940,note_off,80,0,8,,,,,,,,6,,,,50,64
121940,note_off,80,0,10,,,,,,,,8,,,,77,64
121940,note_off,80,0,5,,,,,,,,3,,,,77,64
121940,note_off,80,0,6,,,,,,,,4,,,,74,64
121940,note_off,80,0,13,,,,,,,,12,,,,50,64
121940,note_off,80,0,9,,,,,,,,7,,,,38,64
121940,note_off,80,0,14,,,,,,,,13,,,,38,64
122020,note_off,400,0,15,,,,,,,,14,,,,38,64
122100,note_on,160,0,7,,,,,,,,5,,,,69,52
122100,note_on,160,0,12,,,,,,,,11,,,,69,36
122100,note_on,160,0,11,,,,,,,,10,,,,74,36
122100,note_on,160,0,6,,,,,,,,4,,,,74,52
122100,note_on,160,0,10,,,,,,,,8,,,,77,36
122100,note_on,160,0,9,,,,,,,,7,,,,38,52
122100,note_on,160,0,13,,,,,,,,12,,,,50,36
122100,note_on,160,0,14,,,,,,,,13,,,,38,36
122100,note_on,160,0,5,,,,,,,,3,,,,77,52
122100,note_on,160,0,8,,,,,,,,6,,,,50,52
122180,note_off,80,0,8,,,,,,,,6,,,,50,64
122180,note_off,80,0,12,,,,,,,,11,,,,69,64
122180,note_off,80,0,9,,,,,,,,7,,,,38,64
122180,note_off,80,0,10,,,,,,,,8,,,,77,64
122180,note_off,80,0,13,,,,,,,,12,,,,50,64
122180,note_off,80,0,14,,,,,,,,13,,,,38,64
122180,note_off,80,0,7,,,,,,,,5,,,,69,64
122180,note_off,80,0,6,,,,,,,,4,,,,74,64
122180,note_off,80,0,5,,,,,,,,3,,,,77,64
122180,note_off,80,0,11,,,,,,,,10,,,,74,64
122340,note_on,160,0,8,,,,,,,,6,,,,45,56
122340,note_on,160,0,7,,,,,,,,5,,,,73,56
122340,note_on,160,0,11,,,,,,,,10,,,,76,39
122340,note_on,160,0,14,,,,,,,,13,,,,33,39
122340,note_on,160,0,9,,,,,,,,7,,,,33,56
122340,note_on,160,0,6,,,,,,,,4,,,,76,56
122340,note_on,160,0,12,,,,,,,,11,,,,73,39
122340,note_on,160,0,10,,,,,,,,8,,,,79,39
122340,note_on,160,0,5,,,,,,,,3,,,,79,56
122340,note_on,160,0,13,,,,,,,,12,,,,45,39
122340,note_on,320,0,15,,,,,,,,14,,,,33,52
122420,note_off,80,0,10,,,,,,,,8,,,,79,64
122420,note_off,80,0,11,,,,,,,,10,,,,76,64
122420,note_off,80,0,13,,,,,,,,12,,,,45,64
122420,note_off,80,0,7,,,,,,,,5,,,,73,64
122420,note_off,80,0,6,,,,,,,,4,,,,76,64
122420,note_off,80,0,14,,,,,,,,13,,,,33,64
122420,note_off,80,0,8,,,,,,,,6,,,,45,64
122420,note_off,80,0,12,,,,,,,,11,,,,73,64
122420,note_off,80,0,9,,,,,,,,7,,,,33,64
122420,note_off,80,0,5,,,,,,,,3,,,,79,64
122575,note_off,235,0,15,,,,,,,,14,,,,33,64
122580,note_on,5,0,15,,,,,,,,14,,,,38,54
122580,note_on,160,0,13,,,,,,,,12,,,,50,43
122580,note_on,160,0,10,,,,,,,,8,,,,77,43
122580,note_on,160,0,7,,,,,,,,5,,,,69,60
122580,note_on,160,0,5,,,,,,,,3,,,,77,60
122580,note_on,160,0,8,,,,,,,,6,,,,50,60
122580,note_on,160,0,6,,,,,,,,4,,,,74,60
122580,note_on,160,0,9,,,,,,,,7,,,,38,60
122580,note_on,160,0,12,,,,,,,,11,,,,69,43
122580,note_on,160,0,14,,,,,,,,13,,,,38,43
122580,note_on,160,0,11,,,,,,,,10,,,,74,43
122660,note_off,80,0,13,,,,,,,,12,,,,50,64
122660,note_off,80,0,5,,,,,,,,3,,,,77,64
122660,note_off,80,0,10,,,,,,,,8,,,,77,64
122660,note_off,80,0,6,,,,,,,,4,,,,74,64
122660,note_off,80,0,8,,,,,,,,6,,,,50,64
122660,note_off,80,0,14,,,,,,,,13,,,,38,64
122660,note_off,80,0,12,,,,,,,,11,,,,69,64
122660,note_off,80,0,9,,,,,,,,7,,,,38,64
122660,note_off,80,0,7,,,,,,,,5,,,,69,64
122660,note_off,80,0,11,,,,,,,,10,,,,74,64
122820,note_on,160,0,11,,,,,,,,10,,,,74,47
122820,note_on,160,0,9,,,,,,,,7,,,,38,64
122820,note_on,160,0,14,,,,,,,,13,,,,38,47
122820,note_on,160,0,10,,,,,,,,8,,,,77,47
122820,note_on,160,0,8,,,,,,,,6,,,,50,64
122820,note_on,160,0,6,,,,,,,,4,,,,74,64
122820,note_on,160,0,5,,,,,,,,3,,,,77,64
122820,note_on,160,0,7,,,,,,,,5,,,,69,64
122820,note_on,160,0,13,,,,,,,,12,,,,50,47
122820,note_on,160,0,12,,,,,,,,11,,,,69,47
122900,note_off,80,0,14,,,,,,,,13,,,,38,64
122900,note_off,80,0,8,,,,,,,,6,,,,50,64
122900,note_off,80,0,12,,,,,,,,11,,,,69,64
122900,note_off,80,0,10,,,,,,,,8,,,,77,64
122900,note_off,80,0,5,,,,,,,,3,,,,77,64
122900,note_off,80,0,9,,,,,,,,7,,,,38,64
122900,note_off,80,0,6,,,,,,,,4,,,,74,64
122900,note_off,80,0,13,,,,,,,,12,,,,50,64
122900,note_off,80,0,11,,,,,,,,10,,,,74,64
122900,note_off,80,0,7,,,,,,,,5,,,,69,64
122980,note_off,400,0,15,,,,,,,,14,,,,38,64
123060,note_on,160,0,6,,,,,,,,4,,,,74,68
123060,note_on,160,0,11,,,,,,,,10,,,,74,51
123060,note_on,160,0,14,,,,,,,,13,,,,38,51
123060,note_on,160,0,12,,,,,,,,11,,,,69,51
123060,note_on,160,0,9,,,,,,,,7,,,,38,68
123060,note_on,160,0,5,,,,,,,,3,,,,77,68
123060,note_on,160,0,13,,,,,,,,12,,,,50,51
123060,note_on,160,0,7,,,,,,,,5,,,,69,68
123060,note_on,160,0,8,,,,,,,,6,,,,50,68
123060,note_on,160,0,10,,,,,,,,8,,,,77,51
123140,note_off,80,0,7,,,,,,,,5,,,,69,64
123140,note_off,80,0,13,,,,,,,,12,,,,50,64
123140,note_off,80,0,6,,,,,,,,4,,,,74,64
123140,note_off,80,0,8,,,,,,,,6,,,,50,64
123140,note_off,80,0,11,,,,,,,,10,,,,74,64
123140,note_off,80,0,5,,,,,,,,3,,,,77,64
123140,note_off,80,0,14,,,,,,,,13,,,,38,64
123140,note_off,80,0,10,,,,,,,,8,,,,77,64
123140,note_off,80,0,12,,,,,,,,11,,,,69,64
123140,note_off,80,0,9,,,,,,,,7,,,,38,64
123300,note_on,160,0,11,,,,,,,,10,,,,76,55
123300,note_on,160,0,14,,,,,,,,13,,,,33,55
123300,note_on,160,0,8,,,,,,,,6,,,,45,72
123300,note_on,320,0,15,,,,,,,,14,,,,33,61
123300,note_on,160,0,7,,,,,,,,5,,,,73,72
123300,note_on,160,0,5,,,,,,,,3,,,,79,72
123300,note_on,160,0,13,,,,,,,,12,,,,45,55
123300,note_on,160,0,10,,,,,,,,8,,,,79,55
123300,note_on,160,0,9,,,,,,,,7,,,,33,72
123300,note_on,160,0,12,,,,,,,,11,,,,73,55
123300,note_on,160,0,6,,,,,,,,4,,,,76,72
123380,note_off,80,0,9,,,,,,,,7,,,,33,64
123380,note_off,80,0,13,,,,,,,,12,,,,45,64
123380,note_off,80,0,5,,,,,,,,3,,,,79,64
123380,note_off,80,0,8,,,,,,,,6,,,,45,64
123380,note_off,80,0,10,,,,,,,,8,,,,79,64
123380,note_off,80,0,7,,,,,,,,5,,,,73,64
123380,note_off,80,0,14,,,,,,,,13,,,,33,64
123380,note_off,80,0,6,,,,,,,,4,,,,76,64
123380,note_off,80,0,11,,,,,,,,10,,,,76,64
123380,note_off,80,0,12,,,,,,,,11,,,,73,64
123535,note_off,235,0,15,,,,,,,,14,,,,33,64
123540,note_on,160,0,12,,,,,,,,11,,,,69,59
123540,note_on,160,0,11,,,,,,,,10,,,,74,59
123540,note_on,160,0,13,,,,,,,,12,,,,50,59
123540,note_on,160,0,7,,,,,,,,5,,,,69,76
123540,note_on,160,0,6,,,,,,,,4,,,,74,76
123540,note_on,160,0,5,,,,,,,,3,,,,77,76
123540,note_on,5,0,15,,,,,,,,14,,,,38,63
123540,note_on,160,0,14,,,,,,,,13,,,,38,59
123540,note_on,160,0,10,,,,,,,,8,,,,77,59
123540,note_on,160,0,9,,,,,,,,7,,,,38,76
123540,note_on,160,0,8,,,,,,,,6,,,,50,76
123570,note_on,0,0,5,,,,,,,,3,,,,79,76
123570,note_off,30,0,5,,,,,,,,3,,,,77,64
123570,note_on,0,0,11,,,,,,,,10,,,,76,59
123570,note_off,30,0,11,,,,,,,,10,,,,74,64
123570,note_on,0,0,10,,,,,,,,8,,,,79,59
123570,note_off,30,0,10,,,,,,,,8,,,,77,64
123570,note_on,0,0,6,,,,,,,,4,,,,76,76
123570,note_off,30,0,6,,,,,,,,4,,,,74,64
123600,note_on,0,0,10,,,,,,,,8,,,,77,59
123600,note_on,0,0,6,,,,,,,,4,,,,74,76
123600,note_off,30,0,6,,,,,,,,4,,,,76,64
123600,note_on,0,0,11,,,,,,,,10,,,,74,59
123600,note_off,30,0,11,,,,,,,,10,,,,76,64
123600,note_off,30,0,5,,,,,,,,3,,,,79,64
123600,note_off,30,0,10,,,,,,,,8,,,,79,64
123600,note_on,0,0,5,,,,,,,,3,,,,77,76
123630,note_on,0,0,11,,,,,,,,10,,,,76,59
123630,note_on,0,0,10,,,,,,,,8,,,,79,59
123630,note_off,30,0,10,,,,,,,,8,,,,77,64
123630,note_on,0,0,5,,,,,,,,3,,,,79,76
123630,note_on,0,0,6,,,,,,,,4,,,,76,76
123630,note_off,30,0,6,,,,,,,,4,,,,74,64
123630,note_off,30,0,11,,,,,,,,10,,,,74,64
123630,note_off,30,0,5,,,,,,,,3,,,,77,64
123660,note_off,30,0,5,,,,,,,,3,,,,79,64
123660,note_off,30,0,10,,,,,,,,8,,,,79,64
123660,note_on,0,0,10,,,,,,,,8,,,,77,59
123660,note_on,0,0,5,,,,,,,,3,,,,77,76
123660,note_off,30,0,11,,,,,,,,10,,,,76,64
123660,note_on,0,0,6,,,,,,,,4,,,,74,76
123660,note_off,30,0,6,,,,,,,,4,,,,76,64
123660,note_on,0,0,11,,,,,,,,10,,,,74,59
123690,note_off,30,0,6,,,,,,,,4,,,,74,64
123690,note_off,30,0,5,,,,,,,,3,,,,77,64
123690,note_on,0,0,5,,,,,,,,3,,,,79,76
123690,note_off,30,0,10,,,,,,,,8,,,,77,64
123690,note_on,0,0,10,,,,,,,,8,,,,79,59
123690,note_on,0,0,6,,,,,,,,4,,,,76,76
123690,note_off,30,0,11,,,,,,,,10,,,,74,64
123690,note_on,0,0,11,,,,,,,,10,,,,76,59
123720,note_on,0,0,11,,,,,,,,10,,,,74,59
123720,note_off,30,0,11,,,,,,,,10,,,,76,64
123720,note_on,0,0,10,,,,,,,,8,,,,77,59
123720,note_off,30,0,10,,,,,,,,8,,,,79,64
123720,note_on,0,0,6,,,,,,,,4,,,,74,76
123720,note_off,30,0,5,,,,,,,,3,,,,79,64
123720,note_off,30,0,6,,,,,,,,4,,,,76,64
123720,note_on,0,0,5,,,,,,,,3,,,,77,76
123750,note_on,0,0,11,,,,,,,,10,,,,76,59
123750,note_off,30,0,6,,,,,,,,4,,,,74,64
123750,note_off,30,0,10,,,,,,,,8,,,,77,64
123750,note_on,0,0,5,,,,,,,,3,,,,79,76
123750,note_on,0,0,10,,,,,,,,8,,,,79,59
123750,note_on,0,0,6,,,,,,,,4,,,,76,76
123750,note_off,30,0,5,,,,,,,,3,,,,77,64
123750,note_off,30,0,11,,,,,,,,10,,,,74,64
123775,note_off,235,0,13,,,,,,,,12,,,,50,64
123775,note_off,235,0,7,,,,,,,,5,,,,69,64
123775,note_off,235,0,9,,,,,,,,7,,,,38,64
123775,note_off,235,0,14,,,,,,,,13,,,,38,64
123775,note_off,235,0,12,,,,,,,,11,,,,69,64
123775,note_off,235,0,8,,,,,,,,6,,,,50,64
123780,note_on,0,0,5,,,,,,,,3,,,,76,76
123780,note_on,5,0,12,,,,,,,,11,,,,69,63
123780,note_on,0,0,6,,,,,,,,4,,,,73,76
123780,note_on,5,0,9,,,,,,,,7,,,,38,80
123780,note_on,0,0,10,,,,,,,,8,,,,76,59
123780,note_off,30,0,10,,,,,,,,8,,,,79,64
123780,note_off,30,0,6,,,,,,,,4,,,,76,64
123780,note_on,5,0,14,,,,,,,,13,,,,38,63
123780,note_on,5,0,8,,,,,,,,6,,,,50,80
123780,note_on,5,0,7,,,,,,,,5,,,,69,80
123780,note_on,0,0,11,,,,,,,,10,,,,73,59
123780,note_off,30,0,11,,,,,,,,10,,,,76,64
123780,note_on,5,0,13,,,,,,,,12,,,,50,63
123780,set_tempo,9840,1,0,535714,,,,,,,,,,,,
123780,note_off,30,0,5,,,,,,,,3,,,,79,64
123860,note_off,80,0,11,,,,,,,,10,,,,73,64
123860,note_off,80,0,13,,,,,,,,12,,,,50,64
123860,note_off,80,0,5,,,,,,,,3,,,,76,64
123860,note_off,80,0,7,,,,,,,,5,,,,69,64
123860,note_off,80,0,10,,,,,,,,8,,,,76,64
123860,note_off,80,0,6,,,,,,,,4,,,,73,64
123860,note_off,80,0,9,,,,,,,,7,,,,38,64
123860,note_off,80,0,14,,,,,,,,13,,,,38,64
123860,note_off,80,0,8,,,,,,,,6,,,,50,64
123860,note_off,80,0,12,,,,,,,,11,,,,69,64
123900,note_on,40,0,11,,,,,,,,10,,,,74,61
123900,note_on,40,0,5,,,,,,,,3,,,,77,78
123900,note_on,40,0,6,,,,,,,,4,,,,74,78
123900,note_on,40,0,10,,,,,,,,8,,,,77,61
123940,note_off,400,0,15,,,,,,,,14,,,,38,64
123980,note_off,80,0,11,,,,,,,,10,,,,74,64
123980,note_off,80,0,5,,,,,,,,3,,,,77,64
123980,note_off,80,0,6,,,,,,,,4,,,,74,64
123980,note_off,80,0,10,,,,,,,,8,,,,77,64
124020,note_on,160,0,9,,,,,,,,7,,,,31,84
124020,note_on,80,0,15,,,,,,,,14,,,,31,69
124020,note_on,40,0,6,,,,,,,,4,,,,76,80
124020,note_on,160,0,7,,,,,,,,5,,,,70,84
124020,note_on,160,0,14,,,,,,,,13,,,,31,67
124020,note_on,40,0,10,,,,,,,,8,,,,79,63
124020,note_on,40,0,11,,,,,,,,10,,,,76,63
124020,note_on,160,0,8,,,,,,,,6,,,,43,84
124020,note_on,40,0,5,,,,,,,,3,,,,79,80
124020,note_on,160,0,12,,,,,,,,11,,,,70,67
124020,note_on,160,0,13,,,,,,,,12,,,,43,67
124100,note_off,80,0,7,,,,,,,,5,,,,70,64
124100,note_off,80,0,8,,,,,,,,6,,,,43,64
124100,note_off,80,0,10,,,,,,,,8,,,,79,64
124100,note_off,80,0,6,,,,,,,,4,,,,76,64
124100,note_off,80,0,5,,,,,,,,3,,,,79,64
124100,note_off,80,0,11,,,,,,,,10,,,,76,64
124100,note_off,80,0,9,,,,,,,,7,,,,31,64
124100,note_off,80,0,12,,,,,,,,11,,,,70,64
124100,note_off,80,0,14,,,,,,,,13,,,,31,64
124100,note_off,80,0,13,,,,,,,,12,,,,43,64
124255,note_off,235,0,15,,,,,,,,14,,,,31,64
124260,note_on,160,0,6,,,,,,,,4,,,,73,86
124260,note_on,160,0,9,,,,,,,,7,,,,33,88
124260,note_on,160,0,11,,,,,,,,10,,,,73,69
124260,note_on,160,0,7,,,,,,,,5,,,,69,88
124260,note_on,160,0,12,,,,,,,,11,,,,69,71
124260,note_on,160,0,5,,,,,,,,3,,,,76,86
124260,note_on,5,0,15,,,,,,,,14,,,,33,72
124260,note_on,160,0,14,,,,,,,,13,,,,33,71
124260,note_on,160,0,13,,,,,,,,12,,,,45,71
124260,note_on,160,0,8,,,,,,,,6,,,,45,88
124260,note_on,160,0,10,,,,,,,,8,,,,76,69
124340,note_off,80,0,7,,,,,,,,5,,,,69,64
124340,note_off,80,0,6,,,,,,,,4,,,,73,64
124340,note_off,80,0,10,,,,,,,,8,,,,76,64
124340,note_off,80,0,9,,,,,,,,7,,,,33,64
124340,note_off,80,0,12,,,,,,,,11,,,,69,64
124340,note_off,80,0,11,,,,,,,,10,,,,73,64
124340,note_off,80,0,13,,,,,,,,12,,,,45,64
124340,note_off,80,0,8,,,,,,,,6,,,,45,64
124340,note_off,80,0,5,,,,,,,,3,,,,76,64
124340,note_off,80,0,14,,,,,,,,13,,,,33,64
124495,note_off,235,0,15,,,,,,,,14,,,,33,64
124500,note_on,160,0,10,,,,,,,,8,,,,77,75
124500,note_on,160,0,13,,,,,,,,12,,,,50,75
124500,note_on,160,0,6,,,,,,,,4,,,,74,92
124500,note_on,160,0,14,,,,,,,,13,,,,38,75
124500,note_on,160,0,11,,,,,,,,10,,,,74,75
124500,note_on,160,0,7,,,,,,,,5,,,,65,92
124500,note_on,160,0,12,,,,,,,,11,,,,65,75
124500,note_on,160,0,8,,,,,,,,6,,,,50,92
124500,note_on,160,0,5,,,,,,,,3,,,,77,92
124500,note_on,160,0,9,,,,,,,,7,,,,38,92
124500,note_on,5,0,15,,,,,,,,14,,,,38,75
124900,note_off,400,0,10,,,,,,,,8,,,,77,64
124900,note_off,400,0,5,,,,,,,,3,,,,77,64
124900,note_off,400,0,7,,,,,,,,5,,,,65,64
124900,note_off,400,0,9,,,,,,,,7,,,,38,64
124900,note_off,400,0,8,,,,,,,,6,,,,50,64
124900,note_off,400,0,11,,,,,,,,10,,,,74,64
124900,note_off,400,0,15,,,,,,,,14,,,,38,64
124900,note_off,400,0,14,,,,,,,,13,,,,38,64
124900,note_off,400,0,6,,,,,,,,4,,,,74,64
124900,note_off,400,0,12,,,,,,,,11,,,,65,64
124900,note_off,400,0,13,,,,,,,,12,,,,50,64
125460,note_on,560,0,14,,,,,,,,13,,,,38,30
125460,note_on,560,0,11,,,,,,,,10,,,,62,30
125460,note_on,560,0,7,,,,,,,,5,,,,57,45
125460,note_on,560,0,10,,,,,,,,8,,,,65,30
125460,note_on,560,0,8,,,,,,,,6,,,,50,45
125460,note_on,560,0,9,,,,,,,,7,,,,38,45
125460,note_on,560,0,12,,,,,,,,11,,,,57,30
125460,note_on,560,0,15,,,,,,,,14,,,,38,45
125460,note_on,560,0,6,,,,,,,,4,,,,62,45
125460,note_on,560,0,13,,,,,,,,12,,,,50,30
125460,note_on,560,0,5,,,,,,,,3,,,,65,45
125540,note_off,80,0,9,,,,,,,,7,,,,38,64
125540,note_off,80,0,5,,,,,,,,3,,,,65,64
125540,note_off,80,0,14,,,,,,,,13,,,,38,64
125540,note_off,80,0,7,,,,,,,,5,,,,57,64
125540,note_off,80,0,12,,,,,,,,11,,,,57,64
125540,note_off,80,0,10,,,,,,,,8,,,,65,64
125540,note_off,80,0,6,,,,,,,,4,,,,62,64
125540,note_off,80,0,11,,,,,,,,10,,,,62,64
125540,note_off,80,0,8,,,,,,,,6,,,,50,64
125540,note_off,80,0,13,,,,,,,,12,,,,50,64
125700,note_on,160,0,12,,,,,,,,11,,,,57,30
125700,note_on,160,0,8,,,,,,,,6,,,,50,45
125700,note_on,160,0,14,,,,,,,,13,,,,38,30
125700,note_on,160,0,6,,,,,,,,4,,,,62,45
125700,note_on,160,0,11,,,,,,,,10,,,,62,30
125700,note_on,160,0,9,,,,,,,,7,,,,38,45
125700,note_on,160,0,7,,,,,,,,5,,,,57,45
125700,note_on,160,0,10,,,,,,,,8,,,,65,30
125700,note_on,160,0,5,,,,,,,,3,,,,65,45
125700,note_on,160,0,13,,,,,,,,12,,,,50,30
125780,note_off,80,0,14,,,,,,,,13,,,,38,64
125780,note_off,80,0,10,,,,,,,,8,,,,65,64
125780,note_off,80,0,8,,,,,,,,6,,,,50,64
125780,note_off,80,0,12,,,,,,,,11,,,,57,64
125780,note_off,80,0,5,,,,,,,,3,,,,65,64
125780,note_off,80,0,7,,,,,,,,5,,,,57,64
125780,note_off,80,0,9,,,,,,,,7,,,,38,64
125780,note_off,80,0,6,,,,,,,,4,,,,62,64
125780,note_off,80,0,13,,,,,,,,12,,,,50,64
125780,note_off,80,0,11,,,,,,,,10,,,,62,64
125860,note_off,400,0,15,,,,,,,,14,,,,38,64
125940,note_on,160,0,10,,,,,,,,8,,,,65,30
125940,note_on,160,0,7,,,,,,,,5,,,,57,45
125940,note_on,160,0,8,,,,,,,,6,,,,50,45
125940,note_on,160,0,14,,,,,,,,13,,,,38,30
125940,note_on,160,0,13,,,,,,,,12,,,,50,30
125940,note_on,160,0,5,,,,,,,,3,,,,65,45
125940,note_on,160,0,9,,,,,,,,7,,,,38,45
125940,note_on,160,0,11,,,,,,,,10,,,,62,30
125940,note_on,160,0,6,,,,,,,,4,,,,62,45
125940,note_on,160,0,12,,,,,,,,11,,,,57,30
126020,note_off,80,0,8,,,,,,,,6,,,,50,64
126020,note_off,80,0,10,,,,,,,,8,,,,65,64
126020,note_off,80,0,6,,,,,,,,4,,,,62,64
126020,note_off,80,0,5,,,,,,,,3,,,,65,64
126020,note_off,80,0,14,,,,,,,,13,,,,38,64
126020,note_off,80,0,12,,,,,,,,11,,,,57,64
126020,note_off,80,0,7,,,,,,,,5,,,,57,64
126020,note_off,80,0,13,,,,,,,,12,,,,50,64
126020,note_off,80,0,9,,,,,,,,7,,,,38,64
126020,note_off,80,0,11,,,,,,,,10,,,,62,64
126180,note_on,160,0,13,,,,,,,,12,,,,45,30
126180,note_on,160,0,8,,,,,,,,6,,,,45,45
126180,note_on,160,0,12,,,,,,,,11,,,,61,30
126180,note_on,160,0,14,,,,,,,,13,,,,33,30
126180,note_on,160,0,5,,,,,,,,3,,,,67,45
126180,note_on,160,0,9,,,,,,,,7,,,,33,45
126180,note_on,160,0,7,,,,,,,,5,,,,61,45
126180,note_on,320,0,15,,,,,,,,14,,,,33,45
126180,note_on,160,0,11,,,,,,,,10,,,,64,30
126180,note_on,160,0,10,,,,,,,,8,,,,67,30
126180,note_on,160,0,6,,,,,,,,4,,,,64,45
126260,note_off,80,0,11,,,,,,,,10,,,,64,64
126260,note_off,80,0,14,,,,,,,,13,,,,33,64
126260,note_off,80,0,12,,,,,,,,11,,,,61,64
126260,note_off,80,0,8,,,,,,,,6,,,,45,64
126260,note_off,80,0,7,,,,,,,,5,,,,61,64
126260,note_off,80,0,13,,,,,,,,12,,,,45,64
126260,note_off,80,0,6,,,,,,,,4,,,,64,64
126260,note_off,80,0,10,,,,,,,,8,,,,67,64
126260,note_off,80,0,9,,,,,,,,7,,,,33,64
126260,note_off,80,0,5,,,,,,,,3,,,,67,64
126415,note_off,235,0,15,,,,,,,,14,,,,33,64
126420,note_on,160,0,8,,,,,,,,6,,,,50,45
126420,note_on,160,0,6,,,,,,,,4,,,,62,45
126420,note_on,160,0,12,,,,,,,,11,,,,57,30
126420,note_on,160,0,10,,,,,,,,8,,,,65,30
126420,note_on,160,0,14,,,,,,,,13,,,,38,30
126420,note_on,160,0,7,,,,,,,,5,,,,57,45
126420,note_on,160,0,9,,,,,,,,7,,,,38,45
126420,note_on,160,0,11,,,,,,,,10,,,,62,30
126420,note_on,160,0,13,,,,,,,,12,,,,50,30
126420,note_on,160,0,5,,,,,,,,3,,,,65,45
126420,note_on,5,0,15,,,,,,,,14,,,,38,45
126500,note_off,80,0,7,,,,,,,,5,,,,57,64
126500,note_off,80,0,14,,,,,,,,13,,,,38,64
126500,note_off,80,0,5,,,,,,,,3,,,,65,64
126500,note_off,80,0,10,,,,,,,,8,,,,65,64
126500,note_off,80,0,6,,,,,,,,4,,,,62,64
126500,note_off,80,0,12,,,,,,,,11,,,,57,64
126500,note_off,80,0,11,,,,,,,,10,,,,62,64
126500,note_off,80,0,13,,,,,,,,12,,,,50,64
126500,note_off,80,0,9,,,,,,,,7,,,,38,64
126500,note_off,80,0,8,,,,,,,,6,,,,50,64
126660,note_on,160,0,6,,,,,,,,4,,,,62,45
126660,note_on,160,0,11,,,,,,,,10,,,,62,30
126660,note_on,160,0,5,,,,,,,,3,,,,65,45
126660,note_on,160,0,9,,,,,,,,7,,,,38,45
126660,note_on,160,0,7,,,,,,,,5,,,,57,45
126660,note_on,160,0,10,,,,,,,,8,,,,65,30
126660,note_on,160,0,8,,,,,,,,6,,,,50,45
126660,note_on,160,0,12,,,,,,,,11,,,,57,30
126660,note_on,160,0,13,,,,,,,,12,,,,50,30
126660,note_on,160,0,14,,,,,,,,13,,,,38,30
126740,note_off,80,0,5,,,,,,,,3,,,,65,64
126740,note_off,80,0,12,,,,,,,,11,,,,57,64
126740,note_off,80,0,11,,,,,,,,10,,,,62,64
126740,note_off,80,0,13,,,,,,,,12,,,,50,64
126740,note_off,80,0,6,,,,,,,,4,,,,62,64
126740,note_off,80,0,14,,,,,,,,13,,,,38,64
126740,note_off,80,0,10,,,,,,,,8,,,,65,64
126740,note_off,80,0,9,,,,,,,,7,,,,38,64
126740,note_off,80,0,8,,,,,,,,6,,,,50,64
126740,note_off,80,0,7,,,,,,,,5,,,,57,64
126820,note_off,400,0,15,,,,,,,,14,,,,38,64
126900,note_on,160,0,10,,,,,,,,8,,,,65,30
126900,note_on,160,0,11,,,,,,,,10,,,,62,30
126900,note_on,160,0,7,,,,,,,,5,,,,57,45
126900,note_on,160,0,6,,,,,,,,4,,,,62,45
126900,note_on,160,0,13,,,,,,,,12,,,,50,30
126900,note_on,160,0,5,,,,,,,,3,,,,65,45
126900,note_on,160,0,14,,,,,,,,13,,,,38,30
126900,note_on,160,0,8,,,,,,,,6,,,,50,45
126900,note_on,160,0,12,,,,,,,,11,,,,57,30
126900,note_on,160,0,9,,,,,,,,7,,,,38,45
126980,note_off,80,0,6,,,,,,,,4,,,,62,64
126980,note_off,80,0,12,,,,,,,,11,,,,57,64
126980,note_off,80,0,13,,,,,,,,12,,,,50,64
126980,note_off,80,0,8,,,,,,,,6,,,,50,64
126980,note_off,80,0,5,,,,,,,,3,,,,65,64
126980,note_off,80,0,14,,,,,,,,13,,,,38,64
126980,note_off,80,0,7,,,,,,,,5,,,,57,64
126980,note_off,80,0,10,,,,,,,,8,,,,65,64
126980,note_off,80,0,9,,,,,,,,7,,,,38,64
126980,note_off,80,0,11,,,,,,,,10,,,,62,64
127140,note_on,160,0,9,,,,,,,,7,,,,33,45
127140,note_on,160,0,7,,,,,,,,5,,,,61,45
127140,note_on,160,0,5,,,,,,,,3,,,,67,45
127140,note_on,160,0,14,,,,,,,,13,,,,33,30
127140,note_on,160,0,12,,,,,,,,11,,,,61,30
127140,note_on,160,0,6,,,,,,,,4,,,,64,45
127140,note_on,160,0,11,,,,,,,,10,,,,64,30
127140,note_on,320,0,15,,,,,,,,14,,,,33,45
127140,note_on,160,0,8,,,,,,,,6,,,,45,45
127140,note_on,160,0,13,,,,,,,,12,,,,45,30
127140,note_on,160,0,10,,,,,,,,8,,,,67,30
127220,note_off,80,0,11,,,,,,,,10,,,,64,64
127220,note_off,80,0,13,,,,,,,,12,,,,45,64
127220,note_off,80,0,6,,,,,,,,4,,,,64,64
127220,note_off,80,0,7,,,,,,,,5,,,,61,64
127220,note_off,80,0,9,,,,,,,,7,,,,33,64
127220,note_off,80,0,10,,,,,,,,8,,,,67,64
127220,note_off,80,0,12,,,,,,,,11,,,,61,64
127220,note_off,80,0,8,,,,,,,,6,,,,45,64
127220,note_off,80,0,5,,,,,,,,3,,,,67,64
127220,note_off,80,0,14,,,,,,,,13,,,,33,64
127375,note_off,235,0,15,,,,,,,,14,,,,33,64
127380,note_on,160,0,9,,,,,,,,7,,,,38,45
127380,note_on,160,0,14,,,,,,,,13,,,,38,30
127380,note_on,160,0,5,,,,,,,,3,,,,65,45
127380,note_on,5,0,15,,,,,,,,14,,,,38,45
127380,note_on,160,0,8,,,,,,,,6,,,,50,45
127380,note_on,160,0,11,,,,,,,,10,,,,62,30
127380,note_on,160,0,12,,,,,,,,11,,,,57,30
127380,note_on,160,0,7,,,,,,,,5,,,,57,45
127380,note_on,160,0,10,,,,,,,,8,,,,65,30
127380,note_on,160,0,6,,,,,,,,4,,,,62,45
127380,note_on,160,0,13,,,,,,,,12,,,,50,30
127460,note_off,80,0,14,,,,,,,,13,,,,38,64
127460,note_off,80,0,8,,,,,,,,6,,,,50,64
127460,note_off,80,0,12,,,,,,,,11,,,,57,64
127460,note_off,80,0,5,,,,,,,,3,,,,65,64
127460,note_off,80,0,13,,,,,,,,12,,,,50,64
127460,note_off,80,0,11,,,,,,,,10,,,,62,64
127460,note_off,80,0,6,,,,,,,,4,,,,62,64
127460,note_off,80,0,10,,,,,,,,8,,,,65,64
127460,note_off,80,0,9,,,,,,,,7,,,,38,64
127460,note_off,80,0,7,,,,,,,,5,,,,57,64
127620,note_on,160,0,12,,,,,,,,11,,,,57,30
127620,note_on,160,0,14,,,,,,,,13,,,,38,30
127620,note_on,160,0,10,,,,,,,,8,,,,65,30
127620,note_on,160,0,13,,,,,,,,12,,,,50,30
127620,note_on,160,0,6,,,,,,,,4,,,,62,45
127620,note_on,160,0,9,,,,,,,,7,,,,38,45
127620,note_on,160,0,5,,,,,,,,3,,,,65,45
127620,note_on,160,0,8,,,,,,,,6,,,,50,45
127620,note_on,160,0,7,,,,,,,,5,,,,57,45
127620,note_on,160,0,11,,,,,,,,10,,,,62,30
127700,note_off,80,0,14,,,,,,,,13,,,,38,64
127700,note_off,80,0,8,,,,,,,,6,,,,50,64
127700,note_off,80,0,6,,,,,,,,4,,,,62,64
127700,note_off,80,0,12,,,,,,,,11,,,,57,64
127700,note_off,80,0,11,,,,,,,,10,,,,62,64
127700,note_off,80,0,7,,,,,,,,5,,,,57,64
127700,note_off,80,0,9,,,,,,,,7,,,,38,64
127700,note_off,80,0,5,,,,,,,,3,,,,65,64
127700,note_off,80,0,13,,,,,,,,12,,,,50,64
127700,note_off,80,0,10,,,,,,,,8,,,,65,64
127780,note_off,400,0,15,,,,,,,,14,,,,38,64
127860,note_on,160,0,12,,,,,,,,11,,,,57,30
127860,note_on,160,0,10,,,,,,,,8,,,,65,30
127860,note_on,160,0,6,,,,,,,,4,,,,62,45
127860,note_on,160,0,8,,,,,,,,6,,,,50,45
127860,note_on,160,0,14,,,,,,,,13,,,,38,30
127860,note_on,160,0,7,,,,,,,,5,,,,57,45
127860,note_on,160,0,9,,,,,,,,7,,,,38,45
127860,note_on,160,0,5,,,,,,,,3,,,,65,45
127860,note_on,160,0,13,,,,,,,,12,,,,50,30
127860,note_on,160,0,11,,,,,,,,10,,,,62,30
127940,note_off,80,0,9,,,,,,,,7,,,,38,64
127940,note_off,80,0,10,,,,,,,,8,,,,65,64
127940,note_off,80,0,12,,,,,,,,11,,,,57,64
127940,note_off,80,0,7,,,,,,,,5,,,,57,64
127940,note_off,80,0,6,,,,,,,,4,,,,62,64
127940,note_off,80,0,5,,,,,,,,3,,,,65,64
127940,note_off,80,0,11,,,,,,,,10,,,,62,64
127940,note_off,80,0,14,,,,,,,,13,,,,38,64
127940,note_off,80,0,8,,,,,,,,6,,,,50,64
127940,note_off,80,0,13,,,,,,,,12,,,,50,64
128100,note_on,320,0,15,,,,,,,,14,,,,33,45
128100,note_on,160,0,8,,,,,,,,6,,,,45,45
128100,note_on,160,0,7,,,,,,,,5,,,,61,45
128100,note_on,160,0,5,,,,,,,,3,,,,67,45
128100,note_on,160,0,14,,,,,,,,13,,,,33,30
128100,note_on,160,0,11,,,,,,,,10,,,,64,30
128100,note_on,160,0,12,,,,,,,,11,,,,61,30
128100,note_on,160,0,9,,,,,,,,7,,,,33,45
128100,note_on,160,0,13,,,,,,,,12,,,,45,30
128100,note_on,160,0,6,,,,,,,,4,,,,64,45
128100,note_on,160,0,10,,,,,,,,8,,,,67,30
128180,note_off,80,0,12,,,,,,,,11,,,,61,64
128180,note_off,80,0,7,,,,,,,,5,,,,61,64
128180,note_off,80,0,6,,,,,,,,4,,,,64,64
128180,note_off,80,0,9,,,,,,,,7,,,,33,64
128180,note_off,80,0,11,,,,,,,,10,,,,64,64
128180,note_off,80,0,13,,,,,,,,12,,,,45,64
128180,note_off,80,0,10,,,,,,,,8,,,,67,64
128180,note_off,80,0,14,,,,,,,,13,,,,33,64
128180,note_off,80,0,5,,,,,,,,3,,,,67,64
128180,note_off,80,0,8,,,,,,,,6,,,,45,64
128335,note_off,235,0,15,,,,,,,,14,,,,33,64
128340,note_on,160,0,6,,,,,,,,4,,,,62,45
128340,note_on,160,0,12,,,,,,,,11,,,,57,30
128340,note_on,5,0,15,,,,,,,,14,,,,38,45
128340,note_on,160,0,8,,,,,,,,6,,,,50,45
128340,note_on,160,0,7,,,,,,,,5,,,,57,45
128340,note_on,160,0,11,,,,,,,,10,,,,62,30
128340,note_on,160,0,9,,,,,,,,7,,,,38,45
128340,note_on,160,0,5,,,,,,,,3,,,,65,45
128340,note_on,160,0,14,,,,,,,,13,,,,38,30
128340,note_on,160,0,13,,,,,,,,12,,,,50,30
128340,note_on,160,0,10,,,,,,,,8,,,,65,30
128370,note_on,0,0,5,,,,,,,,3,,,,67,45
128370,note_on,0,0,11,,,,,,,,10,,,,64,30
128370,note_off,30,0,11,,,,,,,,10,,,,62,64
128370,note_off,30,0,5,,,,,,,,3,,,,65,64
128370,note_on,0,0,6,,,,,,,,4,,,,64,45
128370,note_off,30,0,6,,,,,,,,4,,,,62,64
128370,note_off,30,0,10,,,,,,,,8,,,,65,64
128370,note_on,0,0,10,,,,,,,,8,,,,67,30
128400,note_off,30,0,6,,,,,,,,4,,,,64,64
128400,note_off,30,0,11,,,,,,,,10,,,,64,64
128400,note_on,0,0,11,,,,,,,,10,,,,62,30
128400,note_on,0,0,10,,,,,,,,8,,,,65,30
128400,note_off,30,0,10,,,,,,,,8,,,,67,64
128400,note_off,30,0,5,,,,,,,,3,,,,67,64
128400,note_on,0,0,5,,,,,,,,3,,,,65,45
128400,note_on,0,0,6,,,,,,,,4,,,,62,45
128430,note_off,30,0,6,,,,,,,,4,,,,62,64
128430,note_on,0,0,6,,,,,,,,4,,,,64,45
128430,note_off,30,0,10,,,,,,,,8,,,,65,64
128430,note_on,0,0,10,,,,,,,,8,,,,67,30
128430,note_on,0,0,5,,,,,,,,3,,,,67,45
128430,note_off,30,0,5,,,,,,,,3,,,,65,64
128430,note_off,30,0,11,,,,,,,,10,,,,62,64
128430,note_on,0,0,11,,,,,,,,10,,,,64,30
128460,note_on,0,0,5,,,,,,,,3,,,,65,45
128460,note_on,0,0,11,,,,,,,,10,,,,62,30
128460,note_off,30,0,6,,,,,,,,4,,,,64,64
128460,note_off,30,0,5,,,,,,,,3,,,,67,64
128460,note_off,30,0,10,,,,,,,,8,,,,67,64
128460,note_on,0,0,10,,,,,,,,8,,,,65,30
128460,note_on,0,0,6,,,,,,,,4,,,,62,45
128460,note_off,30,0,11,,,,,,,,10,,,,64,64
128490,note_on,0,0,5,,,,,,,,3,,,,67,45
128490,note_on,0,0,6,,,,,,,,4,,,,64,45
128490,note_on,0,0,10,,,,,,,,8,,,,67,30
128490,note_off,30,0,10,,,,,,,,8,,,,65,64
128490,note_off,30,0,11,,,,,,,,10,,,,62,64
128490,note_on,0,0,11,,,,,,,,10,,,,64,30
128490,note_off,30,0,6,,,,,,,,4,,,,62,64
128490,note_off,30,0,5,,,,,,,,3,,,,65,64
128520,note_on,0,0,10,,,,,,,,8,,,,65,30
128520,note_on,0,0,5,,,,,,,,3,,,,65,45
128520,note_off,30,0,5,,,,,,,,3,,,,67,64
128520,note_on,0,0,11,,,,,,,,10,,,,62,30
128520,note_off,30,0,11,,,,,,,,10,,,,64,64
128520,note_off,30,0,10,,,,,,,,8,,,,67,64
128520,note_off,30,0,6,,,,,,,,4,,,,64,64
128520,note_on,0,0,6,,,,,,,,4,,,,62,45
128550,note_off,30,0,11,,,,,,,,10,,,,62,64
128550,note_on,0,0,11,,,,,,,,10,,,,64,30
128550,note_on,0,0,10,,,,,,,,8,,,,67,30
128550,note_on,0,0,5,,,,,,,,3,,,,67,45
128550,note_off,30,0,10,,,,,,,,8,,,,65,64
128550,note_on,0,0,6,,,,,,,,4,,,,64,45
128550,note_off,30,0,5,,,,,,,,3,,,,65,64
128550,note_off,30,0,6,,,,,,,,4,,,,62,64
128575,note_off,235,0,12,,,,,,,,11,,,,57,64
128575,note_off,235,0,8,,,,,,,,6,,,,50,64
128575,note_off,235,0,7,,,,,,,,5,,,,57,64
128575,note_off,235,0,13,,,,,,,,12,,,,50,64
128575,note_off,235,0,9,,,,,,,,7,,,,38,64
128575,note_off,235,0,14,,,,,,,,13,,,,38,64
128580,note_on,0,0,5,,,,,,,,3,,,,64,45
128580,note_off,30,0,6,,,,,,,,4,,,,64,64
128580,note_off,30,0,10,,,,,,,,8,,,,67,64
128580,note_on,0,0,10,,,,,,,,8,,,,64,30
128580,note_on,5,0,8,,,,,,,,6,,,,50,45
128580,note_on,0,0,6,,,,,,,,4,,,,61,45
128580,note_off,30,0,11,,,,,,,,10,,,,64,64
128580,note_on,0,0,11,,,,,,,,10,,,,61,30
128580,set_tempo,4800,1,0,535714,,,,,,,,,,,,
128580,note_on,5,0,12,,,,,,,,11,,,,57,30
128580,note_on,5,0,7,,,,,,,,5,,,,57,45
128580,note_off,30,0,5,,,,,,,,3,,,,67,64
128580,note_on,5,0,9,,,,,,,,7,,,,38,45
128580,note_on,5,0,13,,,,,,,,12,,,,50,30
128580,note_on,5,0,14,,,,,,,,13,,,,38,30
128660,note_off,80,0,12,,,,,,,,11,,,,57,64
128660,note_off,80,0,14,,,,,,,,13,,,,38,64
128660,note_off,80,0,10,,,,,,,,8,,,,64,64
128660,note_off,80,0,9,,,,,,,,7,,,,38,64
128660,note_off,80,0,7,,,,,,,,5,,,,57,64
128660,note_off,80,0,8,,,,,,,,6,,,,50,64
128660,note_off,80,0,11,,,,,,,,10,,,,61,64
128660,note_off,80,0,5,,,,,,,,3,,,,64,64
128660,note_off,80,0,6,,,,,,,,4,,,,61,64
128660,note_off,80,0,13,,,,,,,,12,,,,50,64
128700,note_on,40,0,10,,,,,,,,8,,,,65,30
128700,note_on,40,0,11,,,,,,,,10,,,,62,30
128700,note_on,40,0,6,,,,,,,,4,,,,62,45
128700,note_on,40,0,5,,,,,,,,3,,,,65,45
128740,note_off,400,0,15,,,,,,,,14,,,,38,64
128780,note_off,80,0,11,,,,,,,,10,,,,62,64
128780,note_off,80,0,5,,,,,,,,3,,,,65,64
128780,note_off,80,0,10,,,,,,,,8,,,,65,64
128780,note_off,80,0,6,,,,,,,,4,,,,62,64
128820,note_on,40,0,6,,,,,,,,4,,,,64,45
128820,note_on,40,0,11,,,,,,,,10,,,,64,30
128820,note_on,40,0,5,,,,,,,,3,,,,67,45
128820,note_on,160,0,9,,,,,,,,7,,,,31,45
128820,note_on,160,0,7,,,,,,,,5,,,,58,45
128820,note_on,160,0,13,,,,,,,,12,,,,43,30
128820,note_on,160,0,8,,,,,,,,6,,,,43,45
128820,note_on,160,0,12,,,,,,,,11,,,,58,30
128820,note_on,80,0,15,,,,,,,,14,,,,31,45
128820,note_on,40,0,10,,,,,,,,8,,,,67,30
128820,note_on,160,0,14,,,,,,,,13,,,,31,30
128900,note_off,80,0,8,,,,,,,,6,,,,43,64
128900,note_off,80,0,11,,,,,,,,10,,,,64,64
128900,note_off,80,0,5,,,,,,,,3,,,,67,64
128900,note_off,80,0,13,,,,,,,,12,,,,43,64
128900,note_off,80,0,14,,,,,,,,13,,,,31,64
128900,note_off,80,0,10,,,,,,,,8,,,,67,64
128900,note_off,80,0,9,,,,,,,,7,,,,31,64
128900,note_off,80,0,7,,,,,,,,5,,,,58,64
128900,note_off,80,0,12,,,,,,,,11,,,,58,64
128900,note_off,80,0,6,,,,,,,,4,,,,64,64
129055,note_off,235,0,15,,,,,,,,14,,,,31,64
129060,note_on,160,0,10,,,,,,,,8,,,,64,30
129060,note_on,5,0,15,,,,,,,,14,,,,33,45
129060,note_on,160,0,14,,,,,,,,13,,,,33,30
129060,note_on,160,0,11,,,,,,,,10,,,,61,30
129060,note_on,160,0,6,,,,,,,,4,,,,61,45
129060,note_on,160,0,7,,,,,,,,5,,,,57,45
129060,note_on,160,0,5,,,,,,,,3,,,,64,45
129060,note_on,160,0,13,,,,,,,,12,,,,45,30
129060,note_on,160,0,9,,,,,,,,7,,,,33,45
129060,note_on,160,0,12,,,,,,,,11,,,,57,30
129060,note_on,160,0,8,,,,,,,,6,,,,45,45
129140,note_off,80,0,7,,,,,,,,5,,,,57,64
129140,note_off,80,0,8,,,,,,,,6,,,,45,64
129140,note_off,80,0,14,,,,,,,,13,,,,33,64
129140,note_off,80,0,10,,,,,,,,8,,,,64,64
129140,note_off,80,0,12,,,,,,,,11,,,,57,64
129140,note_off,80,0,5,,,,,,,,3,,,,64,64
129140,note_off,80,0,6,,,,,,,,4,,,,61,64
129140,note_off,80,0,9,,,,,,,,7,,,,33,64
129140,note_off,80,0,11,,,,,,,,10,,,,61,64
129140,note_off,80,0,13,,,,,,,,12,,,,45,64
129295,note_off,235,0,15,,,,,,,,14,,,,33,64
129300,note_on,160,0,14,,,,,,,,13,,,,26,30
129300,note_on,20320,0,3,,,,,,,,1,,,,65,60
129300,note_on,160,0,13,,,,,,,,12,,,,38,30
129300,note_on,0,0,13,,,,,,,,12,,,,50,30
129300,note_on,160,0,5,,,,,,,,3,,,,65,45
129300,note_on,160,0,10,,,,,,,,8,,,,65,30
129300,note_on,0,0,8,,,,,,,,6,,,,50,45
129300,set_tempo,720,1,0,652173,,,,,,,,,,,,
129300,note_on,0,0,14,,,,,,,,13,,,,38,30
129300,note_on,160,0,6,,,,,,,,4,,,,62,45
129300,note_on,160,0,8,,,,,,,,6,,,,38,45
129300,note_on,160,0,12,,,,,,,,11,,,,57,30
129300,note_on,0,0,9,,,,,,,,7,,,,38,45
129300,note_on,160,0,7,,,,,,,,5,,,,57,45
129300,note_on,160,0,9,,,,,,,,7,,,,26,45
129300,note_on,5,0,15,,,,,,,,14,,,,38,45
129300,note_on,20320,0,4,,,,,,,,2,,,,65,45
129300,note_on,160,0,11,,,,,,,,10,,,,62,30
129380,note_off,80,0,3,,,,,,,,1,,,,65,64
129380,note_off,80,0,4,,,,,,,,2,,,,65,64
129420,note_on,40,0,3,,,,,,,,1,,,,62,60
129420,note_on,40,0,4,,,,,,,,2,,,,62,45
129500,note_off,80,0,3,,,,,,,,1,,,,62,64
129500,note_off,80,0,4,,,,,,,,2,,,,62,64
129540,note_on,40,0,3,,,,,,,,1,,,,62,60
129540,note_on,40,0,4,,,,,,,,2,,,,62,45
129620,note_off,80,0,3,,,,,,,,1,,,,62,64
129620,note_off,80,0,4,,,,,,,,2,,,,62,64
129660,note_on,40,0,4,,,,,,,,2,,,,57,45
129660,note_on,40,0,3,,,,,,,,1,,,,57,60
129700,note_off,400,0,15,,,,,,,,14,,,,38,64
129700,note_off,400,0,7,,,,,,,,5,,,,57,64
129700,note_off,400,0,12,,,,,,,,11,,,,57,64
129700,note_off,400,0,8,,,,,,,,6,,,,50,64
129700,note_off,400,0,9,,,,,,,,7,,,,38,64
129700,note_off,400,0,6,,,,,,,,4,,,,62,64
129700,note_off,400,0,11,,,,,,,,10,,,,62,64
129700,note_off,0,0,8,,,,,,,,6,,,,38,64
129700,note_off,0,0,13,,,,,,,,12,,,,38,64
129700,note_off,0,0,9,,,,,,,,7,,,,26,64
129700,note_off,400,0,5,,,,,,,,3,,,,65,64
129700,note_off,0,0,14,,,,,,,,13,,,,26,64
129700,note_off,400,0,14,,,,,,,,13,,,,38,64
129700,note_off,400,0,13,,,,,,,,12,,,,50,64
129700,note_off,400,0,10,,,,,,,,8,,,,65,64
129740,note_off,80,0,3,,,,,,,,1,,,,57,64
129740,note_off,80,0,4,,,,,,,,2,,,,57,64
129780,note_on,40,0,3,,,,,,,,1,,,,57,60
129780,note_on,40,0,4,,,,,,,,2,,,,57,45
129780,set_tempo,480,1,0,697674,,,,,,,,,,,,
129860,note_off,80,0,3,,,,,,,,1,,,,57,64
129860,note_off,80,0,4,,,,,,,,2,,,,57,64
129900,note_on,40,0,4,,,,,,,,2,,,,62,45
129900,note_on,40,0,3,,,,,,,,1,,,,62,60
129980,note_off,80,0,3,,,,,,,,1,,,,62,64
129980,note_off,80,0,4,,,,,,,,2,,,,62,64
130020,note_on,40,0,3,,,,,,,,1,,,,62,60
130020,note_on,40,0,4,,,,,,,,2,,,,62,45
130100,note_off,80,0,3,,,,,,,,1,,,,62,64
130100,note_off,80,0,4,,,,,,,,2,,,,62,64
130140,note_on,40,0,3,,,,,,,,1,,,,69,60
130140,note_on,40,0,4,,,,,,,,2,,,,69,45
130220,note_off,80,0,3,,,,,,,,1,,,,69,64
130220,note_off,80,0,4,,,,,,,,2,,,,69,64
130260,note_on,560,0,9,,,,,,,,7,,,,38,45
130260,set_tempo,480,1,0,731707,,,,,,,,,,,,
130260,note_on,560,0,8,,,,,,,,6,,,,50,45
130260,note_on,40,0,4,,,,,,,,2,,,,69,45
130260,note_on,560,0,13,,,,,,,,12,,,,50,30
130260,note_on,560,0,14,,,,,,,,13,,,,38,30
130260,note_on,40,0,3,,,,,,,,1,,,,69,60
130340,note_off,80,0,3,,,,,,,,1,,,,69,64
130340,note_off,80,0,4,,,,,,,,2,,,,69,64
130380,note_on,40,0,4,,,,,,,,2,,,,74,45
130380,note_on,40,0,3,,,,,,,,1,,,,74,60
130460,note_off,80,0,4,,,,,,,,2,,,,74,64
130460,note_off,80,0,3,,,,,,,,1,,,,74,64
130500,note_on,40,0,4,,,,,,,,2,,,,74,45
130500,note_on,40,0,3,,,,,,,,1,,,,74,60
130580,note_off,80,0,4,,,,,,,,2,,,,74,64
130580,note_off,80,0,3,,,,,,,,1,,,,74,64
130620,note_on,40,0,4,,,,,,,,2,,,,77,45
130620,note_on,40,0,3,,,,,,,,1,,,,77,60
130660,note_off,400,0,9,,,,,,,,7,,,,38,64
130660,note_off,400,0,8,,,,,,,,6,,,,50,64
130660,note_off,400,0,13,,,,,,,,12,,,,50,64
130660,note_off,400,0,14,,,,,,,,13,,,,38,64
130700,note_off,80,0,3,,,,,,,,1,,,,77,64
130700,note_off,80,0,4,,,,,,,,2,,,,77,64
130740,note_on,0,0,7,,,,,,,,5,,,,62,45
130740,program_change,1040,0,7,,,,,,,,5,,,51,,
130740,note_on,1040,0,12,,,,,,,,11,,,,62,30
130740,note_on,40,0,4,,,,,,,,2,,,,77,45
130740,note_on,1040,0,10,,,,,,,,8,,,,62,30
130740,note_on,1040,0,5,,,,,,,,3,,,,62,45
130740,note_on,40,0,3,,,,,,,,1,,,,77,60
130740,set_tempo,480,1,0,697674,,,,,,,,,,,,
130820,note_off,80,0,4,,,,,,,,2,,,,77,64
130820,note_off,80,0,3,,,,,,,,1,,,,77,64
130860,note_on,40,0,3,,,,,,,,1,,,,81,60
130860,note_on,40,0,4,,,,,,,,2,,,,81,45
130940,note_off,80,0,4,,,,,,,,2,,,,81,64
130940,note_off,80,0,3,,,,,,,,1,,,,81,64
130980,note_on,40,0,4,,,,,,,,2,,,,81,45
130980,note_on,40,0,3,,,,,,,,1,,,,81,60
131060,note_off,80,0,3,,,,,,,,1,,,,81,64
131060,note_off,80,0,4,,,,,,,,2,,,,81,64
131100,note_on,40,0,3,,,,,,,,1,,,,65,60
131100,note_on,40,0,4,,,,,,,,2,,,,65,45
131100,set_tempo,360,1,0,689655,,,,,,,,,,,,
131140,note_off,400,0,5,,,,,,,,3,,,,62,64
131140,note_off,400,0,7,,,,,,,,5,,,,62,64
131140,note_off,400,0,10,,,,,,,,8,,,,62,64
131140,note_off,400,0,12,,,,,,,,11,,,,62,64
131180,note_off,80,0,3,,,,,,,,1,,,,65,64
131180,note_off,80,0,4,,,,,,,,2,,,,65,64
131220,note_on,560,0,14,,,,,,,,13,,,,38,30
131220,note_on,40,0,3,,,,,,,,1,,,,65,60
131220,note_on,560,0,8,,,,,,,,6,,,,50,45
131220,note_on,560,0,13,,,,,,,,12,,,,50,30
131220,note_on,560,0,9,,,,,,,,7,,,,38,45
131220,set_tempo,120,1,0,638297,,,,,,,,,,,,
131220,note_on,40,0,4,,,,,,,,2,,,,65,45
131300,note_off,80,0,4,,,,,,,,2,,,,65,64
131300,note_off,80,0,3,,,,,,,,1,,,,65,64
131340,note_on,40,0,3,,,,,,,,1,,,,62,60
131340,note_on,40,0,4,,,,,,,,2,,,,62,45
131420,note_off,80,0,4,,,,,,,,2,,,,62,64
131420,note_off,80,0,3,,,,,,,,1,,,,62,64
131460,note_on,40,0,3,,,,,,,,1,,,,62,60
131460,note_on,40,0,4,,,,,,,,2,,,,62,45
131540,note_off,80,0,3,,,,,,,,1,,,,62,64
131540,note_off,80,0,4,,,,,,,,2,,,,62,64
131580,note_on,40,0,3,,,,,,,,1,,,,57,60
131580,note_on,40,0,4,,,,,,,,2,,,,57,45
131620,note_off,400,0,13,,,,,,,,12,,,,50,64
131620,note_off,400,0,14,,,,,,,,13,,,,38,64
131620,note_off,400,0,8,,,,,,,,6,,,,50,64
131620,note_off,400,0,9,,,,,,,,7,,,,38,64
131660,note_off,80,0,3,,,,,,,,1,,,,57,64
131660,note_off,80,0,4,,,,,,,,2,,,,57,64
131700,note_on,560,0,10,,,,,,,,8,,,,62,30
131700,note_on,560,0,7,,,,,,,,5,,,,62,45
131700,note_on,40,0,4,,,,,,,,2,,,,57,45
131700,note_on,560,0,5,,,,,,,,3,,,,62,45
131700,note_on,560,0,12,,,,,,,,11,,,,62,30
131700,note_on,40,0,3,,,,,,,,1,,,,57,60
131780,note_off,80,0,3,,,,,,,,1,,,,57,64
131780,note_off,80,0,4,,,,,,,,2,,,,57,64
131820,note_on,40,0,3,,,,,,,,1,,,,62,60
131820,note_on,40,0,4,,,,,,,,2,,,,62,45
131900,note_off,80,0,3,,,,,,,,1,,,,62,64
131900,note_off,80,0,4,,,,,,,,2,,,,62,64
131940,note_on,40,0,3,,,,,,,,1,,,,62,60
131940,note_on,40,0,4,,,,,,,,2,,,,62,45
132020,note_off,80,0,3,,,,,,,,1,,,,62,64
132020,note_off,80,0,4,,,,,,,,2,,,,62,64
132060,note_on,40,0,4,,,,,,,,2,,,,74,45
132060,note_on,40,0,3,,,,,,,,1,,,,74,60
132100,note_off,400,0,7,,,,,,,,5,,,,62,64
132100,note_off,400,0,5,,,,,,,,3,,,,62,64
132100,note_off,400,0,10,,,,,,,,8,,,,62,64
132100,note_off,400,0,12,,,,,,,,11,,,,62,64
132140,note_off,80,0,4,,,,,,,,2,,,,74,64
132140,note_off,80,0,3,,,,,,,,1,,,,74,64
132180,note_on,40,0,4,,,,,,,,2,,,,74,45
132180,note_on,560,0,14,,,,,,,,13,,,,38,30
132180,note_on,560,0,9,,,,,,,,7,,,,38,45
132180,note_on,560,0,13,,,,,,,,12,,,,50,30
132180,note_on,560,0,8,,,,,,,,6,,,,50,45
132180,note_on,40,0,3,,,,,,,,1,,,,74,60
132260,note_off,80,0,3,,,,,,,,1,,,,74,64
132260,note_off,80,0,4,,,,,,,,2,,,,74,64
132300,note_on,40,0,3,,,,,,,,1,,,,77,60
132300,note_on,40,0,4,,,,,,,,2,,,,77,45
132380,note_off,80,0,4,,,,,,,,2,,,,77,64
132380,note_off,80,0,3,,,,,,,,1,,,,77,64
132420,note_on,40,0,3,,,,,,,,1,,,,77,60
132420,note_on,40,0,4,,,,,,,,2,,,,77,45
132500,note_off,80,0,4,,,,,,,,2,,,,77,64
132500,note_off,80,0,3,,,,,,,,1,,,,77,64
132540,note_on,40,0,4,,,,,,,,2,,,,81,45
132540,note_on,40,0,3,,,,,,,,1,,,,81,60
132580,note_off,400,0,14,,,,,,,,13,,,,38,64
132580,note_off,400,0,9,,,,,,,,7,,,,38,64
132580,note_off,400,0,13,,,,,,,,12,,,,50,64
132580,note_off,400,0,8,,,,,,,,6,,,,50,64
132620,note_off,80,0,3,,,,,,,,1,,,,81,64
132620,note_off,80,0,4,,,,,,,,2,,,,81,64
132660,note_on,560,0,7,,,,,,,,5,,,,62,45
132660,note_on,560,0,5,,,,,,,,3,,,,62,45
132660,note_on,40,0,4,,,,,,,,2,,,,81,45
132660,note_on,560,0,10,,,,,,,,8,,,,62,30
132660,note_on,40,0,3,,,,,,,,1,,,,81,60
132660,note_on,560,0,12,,,,,,,,11,,,,62,30
132740,note_off,80,0,4,,,,,,,,2,,,,81,64
132740,note_off,80,0,3,,,,,,,,1,,,,81,64
132780,note_on,40,0,3,,,,,,,,1,,,,86,60
132780,note_on,40,0,4,,,,,,,,2,,,,86,45
132860,note_off,80,0,4,,,,,,,,2,,,,86,64
132860,note_off,80,0,3,,,,,,,,1,,,,86,64
132900,note_on,40,0,3,,,,,,,,1,,,,86,60
132900,note_on,40,0,4,,,,,,,,2,,,,86,45
132980,note_off,80,0,3,,,,,,,,1,,,,86,64
132980,note_off,80,0,4,,,,,,,,2,,,,86,64
133020,note_on,40,0,3,,,,,,,,1,,,,65,60
133020,set_tempo,1800,1,0,731707,,,,,,,,,,,,
133020,note_on,40,0,4,,,,,,,,2,,,,65,45
133060,note_off,400,0,10,,,,,,,,8,,,,62,64
133060,note_off,400,0,5,,,,,,,,3,,,,62,64
133060,note_off,400,0,12,,,,,,,,11,,,,62,64
133060,note_off,400,0,7,,,,,,,,5,,,,62,64
133100,note_off,80,0,3,,,,,,,,1,,,,65,64
133100,note_off,80,0,4,,,,,,,,2,,,,65,64
133140,note_on,40,0,3,,,,,,,,1,,,,65,60
133140,note_on,560,0,8,,,,,,,,6,,,,50,45
133140,note_on,560,0,13,,,,,,,,12,,,,50,30
133140,note_on,560,0,9,,,,,,,,7,,,,38,45
133140,note_on,40,0,4,,,,,,,,2,,,,65,45
133140,note_on,560,0,14,,,,,,,,13,,,,38,30
133220,note_off,80,0,3,,,,,,,,1,,,,65,64
133220,note_off,80,0,4,,,,,,,,2,,,,65,64
133260,note_on,40,0,4,,,,,,,,2,,,,62,45
133260,note_on,40,0,3,,,,,,,,1,,,,62,60
133260,set_tempo,240,1,0,789473,,,,,,,,,,,,
133340,note_off,80,0,3,,,,,,,,1,,,,62,64
133340,note_off,80,0,4,,,,,,,,2,,,,62,64
133380,note_on,40,0,3,,,,,,,,1,,,,62,60
133380,note_on,40,0,4,,,,,,,,2,,,,62,45
133460,note_off,80,0,3,,,,,,,,1,,,,62,64
133460,note_off,80,0,4,,,,,,,,2,,,,62,64
133500,note_on,40,0,3,,,,,,,,1,,,,57,60
133500,set_tempo,240,1,0,882352,,,,,,,,,,,,
133500,note_on,40,0,4,,,,,,,,2,,,,57,45
133540,note_off,400,0,13,,,,,,,,12,,,,50,64
133540,note_off,400,0,8,,,,,,,,6,,,,50,64
133540,note_off,400,0,14,,,,,,,,13,,,,38,64
133540,note_off,400,0,9,,,,,,,,7,,,,38,64
133580,note_off,80,0,3,,,,,,,,1,,,,57,64
133580,note_off,80,0,4,,,,,,,,2,,,,57,64
133620,note_on,560,0,7,,,,,,,,5,,,,62,45
133620,note_on,560,0,12,,,,,,,,11,,,,62,30
133620,note_on,40,0,4,,,,,,,,2,,,,57,45
133620,note_on,560,0,5,,,,,,,,3,,,,62,45
133620,note_on,560,0,10,,,,,,,,8,,,,62,30
133620,note_on,40,0,3,,,,,,,,1,,,,57,60
133700,note_off,80,0,3,,,,,,,,1,,,,57,64
133700,note_off,80,0,4,,,,,,,,2,,,,57,64
133740,note_on,40,0,3,,,,,,,,1,,,,62,60
133740,note_on,40,0,4,,,,,,,,2,,,,62,45
133740,set_tempo,240,1,0,967741,,,,,,,,,,,,
133820,note_off,80,0,3,,,,,,,,1,,,,62,64
133820,note_off,80,0,4,,,,,,,,2,,,,62,64
133860,note_on,40,0,4,,,,,,,,2,,,,62,45
133860,note_on,40,0,3,,,,,,,,1,,,,62,60
133940,note_off,80,0,4,,,,,,,,2,,,,62,64
133940,note_off,80,0,3,,,,,,,,1,,,,62,64
133980,note_on,40,0,3,,,,,,,,1,,,,74,60
133980,set_tempo,240,1,0,1153846,,,,,,,,,,,,
133980,note_on,40,0,4,,,,,,,,2,,,,74,45
134020,note_off,400,0,12,,,,,,,,11,,,,62,64
134020,note_off,400,0,10,,,,,,,,8,,,,62,64
134020,note_off,400,0,7,,,,,,,,5,,,,62,64
134020,note_off,400,0,5,,,,,,,,3,,,,62,64
134060,note_off,80,0,3,,,,,,,,1,,,,74,64
134060,note_off,80,0,4,,,,,,,,2,,,,74,64
134100,note_on,560,0,13,,,,,,,,12,,,,50,30
134100,note_on,40,0,4,,,,,,,,2,,,,74,45
134100,note_on,40,0,3,,,,,,,,1,,,,74,60
134100,program_change,80,0,7,,,,,,,,5,,,48,,
134100,set_tempo,120,1,0,833333,,,,,,,,,,,,
134100,note_on,560,0,8,,,,,,,,6,,,,50,45
134335,note_off,235,0,8,,,,,,,,6,,,,50,64
134335,note_off,235,0,13,,,,,,,,12,,,,50,64
134340,note_on,5,0,8,,,,,,,,6,,,,52,45
134340,note_on,5,0,13,,,,,,,,12,,,,52,30
134575,note_off,235,0,8,,,,,,,,6,,,,52,64
134575,note_off,235,0,13,,,,,,,,12,,,,52,64
134580,note_on,5,0,13,,,,,,,,12,,,,53,30
134580,note_on,5,0,8,,,,,,,,6,,,,53,45
134640,note_on,0,0,3,,,,,,,,1,,,,73,60
134640,note_off,540,0,3,,,,,,,,1,,,,74,64
134640,note_off,540,0,4,,,,,,,,2,,,,74,64
134640,note_on,0,0,4,,,,,,,,2,,,,73,45
134700,note_off,60,0,4,,,,,,,,2,,,,73,64
134700,note_on,0,0,4,,,,,,,,2,,,,71,45
134700,note_off,60,0,3,,,,,,,,1,,,,73,64
134700,note_on,0,0,3,,,,,,,,1,,,,71,60
134760,note_on,0,0,4,,,,,,,,2,,,,69,45
134760,note_off,60,0,4,,,,,,,,2,,,,71,64
134760,note_off,60,0,3,,,,,,,,1,,,,71,64
134760,note_on,0,0,3,,,,,,,,1,,,,69,60
134815,note_off,235,0,13,,,,,,,,12,,,,53,64
134815,note_off,235,0,8,,,,,,,,6,,,,53,64
134820,note_off,60,0,4,,,,,,,,2,,,,69,64
134820,note_on,0,0,4,,,,,,,,2,,,,71,45
134820,note_on,5,0,13,,,,,,,,12,,,,50,30
134820,note_on,0,0,3,,,,,,,,1,,,,71,60
134820,note_off,60,0,3,,,,,,,,1,,,,69,64
134820,note_on,5,0,8,,,,,,,,6,,,,50,45
134880,note_on,0,0,4,,,,,,,,2,,,,73,45
134880,note_off,60,0,3,,,,,,,,1,,,,71,64
134880,note_on,0,0,3,,,,,,,,1,,,,73,60
134880,note_off,60,0,4,,,,,,,,2,,,,71,64
134940,note_on,0,0,4,,,,,,,,2,,,,74,45
134940,note_off,60,0,4,,,,,,,,2,,,,73,64
134940,note_off,60,0,3,,,,,,,,1,,,,73,64
134940,note_on,0,0,3,,,,,,,,1,,,,74,60
134970,note_on,0,0,4,,,,,,,,2,,,,76,45
134970,note_on,0,0,3,,,,,,,,1,,,,76,60
134970,note_off,30,0,3,,,,,,,,1,,,,74,64
134970,note_off,30,0,4,,,,,,,,2,,,,74,64
135000,note_on,0,0,3,,,,,,,,1,,,,77,60
135000,note_on,0,0,4,,,,,,,,2,,,,77,45
135000,note_off,30,0,4,,,,,,,,2,,,,76,64
135000,note_off,30,0,3,,,,,,,,1,,,,76,64
135030,note_on,0,0,3,,,,,,,,1,,,,79,60
135030,note_off,30,0,3,,,,,,,,1,,,,77,64
135030,note_off,30,0,4,,,,,,,,2,,,,77,64
135030,note_on,0,0,4,,,,,,,,2,,,,79,45
135055,note_off,235,0,13,,,,,,,,12,,,,50,64
135055,note_off,235,0,8,,,,,,,,6,,,,50,64
135060,note_on,5,0,8,,,,,,,,6,,,,48,45
135060,note_on,0,0,3,,,,,,,,1,,,,81,60
135060,note_off,30,0,4,,,,,,,,2,,,,79,64
135060,note_on,5,0,13,,,,,,,,12,,,,48,30
135060,note_off,30,0,3,,,,,,,,1,,,,79,64
135060,note_on,0,0,4,,,,,,,,2,,,,81,45
135540,set_tempo,1440,1,0,1034482,,,,,,,,,,,,
135895,note_off,835,0,4,,,,,,,,2,,,,81,64
135895,note_off,835,0,3,,,,,,,,1,,,,81,64
135900,note_on,5,0,4,,,,,,,,2,,,,72,45
135900,note_off,840,0,13,,,,,,,,12,,,,48,64
135900,note_off,840,0,8,,,,,,,,6,,,,48,64
135900,note_on,5,0,3,,,,,,,,1,,,,72,60
136015,note_off,115,0,4,,,,,,,,2,,,,72,64
136015,note_off,115,0,3,,,,,,,,1,,,,72,64
136020,note_on,120,0,13,,,,,,,,12,,,,48,30
136020,note_on,120,0,8,,,,,,,,6,,,,48,45
136020,note_on,5,0,3,,,,,,,,1,,,,72,60
136020,set_tempo,480,1,0,833333,,,,,,,,,,,,
136020,note_on,5,0,4,,,,,,,,2,,,,72,45
136255,note_off,235,0,13,,,,,,,,12,,,,48,64
136255,note_off,235,0,8,,,,,,,,6,,,,48,64
136260,note_on,5,0,8,,,,,,,,6,,,,50,45
136260,note_on,5,0,13,,,,,,,,12,,,,50,30
136495,note_off,235,0,8,,,,,,,,6,,,,50,64
136495,note_off,235,0,13,,,,,,,,12,,,,50,64
136500,note_on,5,0,8,,,,,,,,6,,,,52,45
136500,note_on,5,0,13,,,,,,,,12,,,,52,30
136560,note_on,0,0,3,,,,,,,,1,,,,70,60
136560,note_off,540,0,3,,,,,,,,1,,,,72,64
136560,note_on,0,0,4,,,,,,,,2,,,,70,45
136560,note_off,540,0,4,,,,,,,,2,,,,72,64
136620,note_on,0,0,3,,,,,,,,1,,,,69,60
136620,note_on,0,0,4,,,,,,,,2,,,,69,45
136620,note_off,60,0,4,,,,,,,,2,,,,70,64
136620,note_off,60,0,3,,,,,,,,1,,,,70,64
136680,note_on,0,0,3,,,,,,,,1,,,,67,60
136680,note_on,0,0,4,,,,,,,,2,,,,67,45
136680,note_off,60,0,3,,,,,,,,1,,,,69,64
136680,note_off,60,0,4,,,,,,,,2,,,,69,64
136735,note_off,235,0,8,,,,,,,,6,,,,52,64
136735,note_off,235,0,13,,,,,,,,12,,,,52,64
136740,note_off,60,0,3,,,,,,,,1,,,,67,64
136740,note_on,0,0,3,,,,,,,,1,,,,69,60
136740,note_on,5,0,13,,,,,,,,12,,,,48,30
136740,note_on,0,0,4,,,,,,,,2,,,,69,45
136740,note_off,60,0,4,,,,,,,,2,,,,67,64
136740,note_on,5,0,8,,,,,,,,6,,,,48,45
136800,note_on,0,0,3,,,,,,,,1,,,,70,60
136800,note_off,60,0,3,,,,,,,,1,,,,69,64
136800,note_on,0,0,4,,,,,,,,2,,,,70,45
136800,note_off,60,0,4,,,,,,,,2,,,,69,64
136860,note_on,0,0,3,,,,,,,,1,,,,72,60
136860,note_off,60,0,3,,,,,,,,1,,,,70,64
136860,note_off,60,0,4,,,,,,,,2,,,,70,64
136860,note_on,0,0,4,,,,,,,,2,,,,72,45
136890,note_on,0,0,3,,,,,,,,1,,,,74,60
136890,note_on,0,0,4,,,,,,,,2,,,,74,45
136890,note_off,30,0,4,,,,,,,,2,,,,72,64
136890,note_off,30,0,3,,,,,,,,1,,,,72,64
136920,note_off,30,0,3,,,,,,,,1,,,,74,64
136920,note_on,0,0,3,,,,,,,,1,,,,76,60
136920,note_on,0,0,4,,,,,,,,2,,,,76,45
136920,note_off,30,0,4,,,,,,,,2,,,,74,64
136950,note_off,30,0,3,,,,,,,,1,,,,76,64
136950,note_on,0,0,3,,,,,,,,1,,,,77,60
136950,note_off,30,0,4,,,,,,,,2,,,,76,64
136950,note_on,0,0,4,,,,,,,,2,,,,77,45
136975,note_off,235,0,8,,,,,,,,6,,,,48,64
136975,note_off,235,0,13,,,,,,,,12,,,,48,64
136980,note_off,30,0,4,,,,,,,,2,,,,77,64
136980,note_on,0,0,4,,,,,,,,2,,,,79,45
136980,note_on,5,0,8,,,,,,,,6,,,,46,45
136980,note_on,0,0,3,,,,,,,,1,,,,79,60
136980,note_on,5,0,13,,,,,,,,12,,,,46,30
136980,note_off,30,0,3,,,,,,,,1,,,,77,64
137460,set_tempo,1440,1,0,1034482,,,,,,,,,,,,
137815,note_off,835,0,4,,,,,,,,2,,,,79,64
137815,note_off,835,0,3,,,,,,,,1,,,,79,64
137820,note_on,5,0,3,,,,,,,,1,,,,70,60
137820,note_off,840,0,13,,,,,,,,12,,,,46,64
137820,note_off,840,0,8,,,,,,,,6,,,,46,64
137820,note_on,5,0,4,,,,,,,,2,,,,70,45
137935,note_off,115,0,3,,,,,,,,1,,,,70,64
137935,note_off,115,0,4,,,,,,,,2,,,,70,64
137940,note_on,5,0,3,,,,,,,,1,,,,70,60
137940,note_on,120,0,13,,,,,,,,12,,,,46,30
137940,set_tempo,480,1,0,833333,,,,,,,,,,,,
137940,note_on,120,0,8,,,,,,,,6,,,,46,45
137940,note_on,5,0,4,,,,,,,,2,,,,70,45
138175,note_off,235,0,13,,,,,,,,12,,,,46,64
138175,note_off,235,0,8,,,,,,,,6,,,,46,64
138180,note_on,5,0,8,,,,,,,,6,,,,48,45
138180,note_on,5,0,13,,,,,,,,12,,,,48,30
138415,note_off,235,0,8,,,,,,,,6,,,,48,64
138415,note_off,235,0,13,,,,,,,,12,,,,48,64
138420,note_on,5,0,8,,,,,,,,6,,,,50,45
138420,note_on,5,0,13,,,,,,,,12,,,,50,30
138480,note_on,0,0,3,,,,,,,,1,,,,69,60
138480,note_on,0,0,4,,,,,,,,2,,,,69,45
138480,note_off,540,0,3,,,,,,,,1,,,,70,64
138480,note_off,540,0,4,,,,,,,,2,,,,70,64
138540,note_off,60,0,4,,,,,,,,2,,,,69,64
138540,note_off,60,0,3,,,,,,,,1,,,,69,64
138540,note_on,0,0,3,,,,,,,,1,,,,67,60
138540,note_on,0,0,4,,,,,,,,2,,,,67,45
138600,note_on,0,0,3,,,,,,,,1,,,,65,60
138600,note_off,60,0,3,,,,,,,,1,,,,67,64
138600,note_off,60,0,4,,,,,,,,2,,,,67,64
138600,note_on,0,0,4,,,,,,,,2,,,,65,45
138655,note_off,235,0,8,,,,,,,,6,,,,50,64
138655,note_off,235,0,13,,,,,,,,12,,,,50,64
138660,note_on,0,0,3,,,,,,,,1,,,,67,60
138660,note_off,60,0,3,,,,,,,,1,,,,65,64
138660,note_on,5,0,8,,,,,,,,6,,,,46,45
138660,note_off,60,0,4,,,,,,,,2,,,,65,64
138660,note_on,5,0,13,,,,,,,,12,,,,46,30
138660,note_on,0,0,4,,,,,,,,2,,,,67,45
138720,note_on,0,0,3,,,,,,,,1,,,,69,60
138720,note_off,60,0,4,,,,,,,,2,,,,67,64
138720,note_on,0,0,4,,,,,,,,2,,,,69,45
138720,note_off,60,0,3,,,,,,,,1,,,,67,64
138780,note_off,60,0,3,,,,,,,,1,,,,69,64
138780,note_on,0,0,3,,,,,,,,1,,,,70,60
138780,note_off,60,0,4,,,,,,,,2,,,,69,64
138780,note_on,0,0,4,,,,,,,,2,,,,70,45
138810,note_off,30,0,3,,,,,,,,1,,,,70,64
138810,note_on,0,0,3,,,,,,,,1,,,,72,60
138810,note_on,0,0,4,,,,,,,,2,,,,72,45
138810,note_off,30,0,4,,,,,,,,2,,,,70,64
138840,note_off,30,0,3,,,,,,,,1,,,,72,64
138840,note_on,0,0,3,,,,,,,,1,,,,74,60
138840,note_on,0,0,4,,,,,,,,2,,,,74,45
138840,note_off,30,0,4,,,,,,,,2,,,,72,64
138870,note_on,0,0,3,,,,,,,,1,,,,76,60
138870,note_off,30,0,3,,,,,,,,1,,,,74,64
138870,note_on,0,0,4,,,,,,,,2,,,,76,45
138870,note_off,30,0,4,,,,,,,,2,,,,74,64
138895,note_off,235,0,13,,,,,,,,12,,,,46,64
138895,note_off,235,0,8,,,,,,,,6,,,,46,64
138900,note_off,30,0,3,,,,,,,,1,,,,76,64
138900,note_on,0,0,3,,,,,,,,1,,,,77,60
138900,note_on,5,0,8,,,,,,,,6,,,,45,45
138900,note_off,30,0,4,,,,,,,,2,,,,76,64
138900,note_on,0,0,4,,,,,,,,2,,,,77,45
138900,note_on,5,0,13,,,,,,,,12,,,,45,30
139300,note_off,400,0,8,,,,,,,,6,,,,45,64
139300,note_off,400,0,13,,,,,,,,12,,,,45,64
139380,note_on,80,0,13,,,,,,,,12,,,,47,30
139380,note_on,80,0,8,,,,,,,,6,,,,47,45
139740,note_off,840,0,3,,,,,,,,1,,,,77,64
139740,note_off,840,0,4,,,,,,,,2,,,,77,64
139780,note_off,400,0,8,,,,,,,,6,,,,47,64
139780,note_off,400,0,13,,,,,,,,12,,,,47,64
139860,note_on,120,0,4,,,,,,,,2,,,,76,45
139860,note_on,120,0,3,,,,,,,,1,,,,76,60
139860,note_on,80,0,13,,,,,,,,12,,,,48,30
139860,set_tempo,1920,1,0,1153846,,,,,,,,,,,,
139860,note_on,80,0,8,,,,,,,,6,,,,48,45
139940,note_off,80,0,4,,,,,,,,2,,,,76,64
139940,note_off,80,0,3,,,,,,,,1,,,,76,64
139980,note_on,40,0,4,,,,,,,,2,,,,72,45
139980,note_on,40,0,3,,,,,,,,1,,,,72,60
139980,set_tempo,120,1,0,952380,,,,,,,,,,,,
140060,note_off,80,0,3,,,,,,,,1,,,,72,64
140060,note_off,80,0,4,,,,,,,,2,,,,72,64
140100,note_on,40,0,4,,,,,,,,2,,,,60,45
140100,note_on,40,0,3,,,,,,,,1,,,,60,60
140180,note_off,80,0,4,,,,,,,,2,,,,60,64
140180,note_off,80,0,3,,,,,,,,1,,,,60,64
140220,note_on,40,0,3,,,,,,,,1,,,,82,60
140220,note_on,40,0,4,,,,,,,,2,,,,82,45
140220,set_tempo,240,1,0,833333,,,,,,,,,,,,
140260,note_off,400,0,13,,,,,,,,12,,,,48,64
140260,note_off,400,0,8,,,,,,,,6,,,,48,64
140300,note_off,80,0,4,,,,,,,,2,,,,82,64
140300,note_off,80,0,3,,,,,,,,1,,,,82,64
140340,note_on,40,0,4,,,,,,,,2,,,,81,45
140340,note_on,80,0,8,,,,,,,,6,,,,48,45
140340,note_on,80,0,13,,,,,,,,12,,,,48,30
140340,note_on,40,0,3,,,,,,,,1,,,,81,60
140420,note_off,80,0,3,,,,,,,,1,,,,81,64
140420,note_off,80,0,4,,,,,,,,2,,,,81,64
140460,note_on,40,0,4,,,,,,,,2,,,,77,45
140460,note_on,40,0,3,,,,,,,,1,,,,77,60
140460,set_tempo,240,1,0,759493,,,,,,,,,,,,
140540,note_off,80,0,3,,,,,,,,1,,,,77,64
140540,note_off,80,0,4,,,,,,,,2,,,,77,64
140580,note_on,40,0,4,,,,,,,,2,,,,60,45
140580,note_on,40,0,3,,,,,,,,1,,,,60,60
140660,note_off,80,0,4,,,,,,,,2,,,,60,64
140660,note_off,80,0,3,,,,,,,,1,,,,60,64
140700,note_on,40,0,3,,,,,,,,1,,,,81,60
140700,set_tempo,240,1,0,697674,,,,,,,,,,,,
140700,note_on,40,0,4,,,,,,,,2,,,,81,45
140740,note_off,400,0,8,,,,,,,,6,,,,48,64
140740,note_off,400,0,13,,,,,,,,12,,,,48,64
140780,note_off,80,0,4,,,,,,,,2,,,,81,64
140780,note_off,80,0,3,,,,,,,,1,,,,81,64
140820,note_on,40,0,4,,,,,,,,2,,,,79,45
140820,note_on,80,0,13,,,,,,,,12,,,,48,30
140820,note_on,80,0,8,,,,,,,,6,,,,48,45
140820,note_on,40,0,3,,,,,,,,1,,,,79,60
140900,note_off,80,0,4,,,,,,,,2,,,,79,64
140900,note_off,80,0,3,,,,,,,,1,,,,79,64
140940,note_on,40,0,3,,,,,,,,1,,,,76,60
140940,set_tempo,240,1,0,645161,,,,,,,,,,,,
140940,note_on,40,0,4,,,,,,,,2,,,,76,45
141020,note_off,80,0,3,,,,,,,,1,,,,76,64
141020,note_off,80,0,4,,,,,,,,2,,,,76,64
141060,note_on,40,0,3,,,,,,,,1,,,,60,60
141060,note_on,40,0,4,,,,,,,,2,,,,60,45
141140,note_off,80,0,3,,,,,,,,1,,,,60,64
141140,note_off,80,0,4,,,,,,,,2,,,,60,64
141180,note_on,40,0,3,,,,,,,,1,,,,82,60
141180,note_on,40,0,4,,,,,,,,2,,,,82,45
141220,note_off,400,0,13,,,,,,,,12,,,,48,64
141220,note_off,400,0,8,,,,,,,,6,,,,48,64
141260,note_off,80,0,3,,,,,,,,1,,,,82,64
141260,note_off,80,0,4,,,,,,,,2,,,,82,64
141300,note_on,40,0,3,,,,,,,,1,,,,81,60
141300,note_on,80,0,13,,,,,,,,12,,,,48,30
141300,note_on,80,0,8,,,,,,,,6,,,,48,45
141300,note_on,40,0,4,,,,,,,,2,,,,81,45
141380,note_off,80,0,3,,,,,,,,1,,,,81,64
141380,note_off,80,0,4,,,,,,,,2,,,,81,64
141420,note_on,40,0,4,,,,,,,,2,,,,77,45
141420,note_on,40,0,3,,,,,,,,1,,,,77,60
141500,note_off,80,0,4,,,,,,,,2,,,,77,64
141500,note_off,80,0,3,,,,,,,,1,,,,77,64
141540,note_on,40,0,4,,,,,,,,2,,,,60,45
141540,note_on,40,0,3,,,,,,,,1,,,,60,60
141540,set_tempo,600,1,0,789473,,,,,,,,,,,,
141620,note_off,80,0,3,,,,,,,,1,,,,60,64
141620,note_off,80,0,4,,,,,,,,2,,,,60,64
141660,note_on,40,0,3,,,,,,,,1,,,,81,60
141660,note_on,40,0,4,,,,,,,,2,,,,81,45
141700,note_off,400,0,8,,,,,,,,6,,,,48,64
141700,note_off,400,0,13,,,,,,,,12,,,,48,64
141740,note_off,80,0,3,,,,,,,,1,,,,81,64
141740,note_off,80,0,4,,,,,,,,2,,,,81,64
141780,note_on,80,0,13,,,,,,,,12,,,,48,30
141780,note_on,40,0,4,,,,,,,,2,,,,79,45
141780,set_tempo,240,1,0,1304347,,,,,,,,,,,,
141780,note_on,80,0,8,,,,,,,,6,,,,48,45
141780,note_on,40,0,3,,,,,,,,1,,,,79,60
141895,note_off,115,0,8,,,,,,,,6,,,,48,64
141895,note_off,115,0,13,,,,,,,,12,,,,48,64
141900,note_on,5,0,8,,,,,,,,6,,,,60,45
141900,note_on,5,0,13,,,,,,,,12,,,,60,30
142015,note_off,115,0,8,,,,,,,,6,,,,60,64
142015,note_off,115,0,13,,,,,,,,12,,,,60,64
142020,note_on,5,0,8,,,,,,,,6,,,,55,45
142020,note_on,5,0,13,,,,,,,,12,,,,55,30
142135,note_off,115,0,8,,,,,,,,6,,,,55,64
142135,note_off,115,0,13,,,,,,,,12,,,,55,64
142140,note_on,5,0,13,,,,,,,,12,,,,52,30
142140,note_on,5,0,8,,,,,,,,6,,,,52,45
142180,note_off,400,0,3,,,,,,,,1,,,,79,64
142180,note_off,400,0,4,,,,,,,,2,,,,79,64
142255,note_off,115,0,13,,,,,,,,12,,,,52,64
142255,note_off,115,0,8,,,,,,,,6,,,,52,64
142260,note_on,5,0,13,,,,,,,,12,,,,48,30
142260,note_on,5,0,8,,,,,,,,6,,,,48,45
142495,note_off,235,0,8,,,,,,,,6,,,,48,64
142495,note_off,235,0,13,,,,,,,,12,,,,48,64
142560,set_tempo,780,1,0,769230,,,,,,,,,,,,
142560,note_on,380,0,4,,,,,,,,2,,,,72,45
142560,note_on,380,0,3,,,,,,,,1,,,,72,60
142620,note_off,60,0,4,,,,,,,,2,,,,72,64
142620,note_off,60,0,3,,,,,,,,1,,,,72,64
142620,note_on,0,0,4,,,,,,,,2,,,,74,45
142620,note_on,0,0,3,,,,,,,,1,,,,74,60
142680,note_off,60,0,3,,,,,,,,1,,,,74,64
142680,note_on,0,0,4,,,,,,,,2,,,,76,45
142680,note_off,60,0,4,,,,,,,,2,,,,74,64
142680,note_on,0,0,3,,,,,,,,1,,,,76,60
142740,note_on,0,0,4,,,,,,,,2,,,,77,45
142740,note_off,60,0,4,,,,,,,,2,,,,76,64
142740,note_on,0,0,3,,,,,,,,1,,,,77,60
142740,note_off,60,0,3,,,,,,,,1,,,,76,64
142800,note_on,0,0,4,,,,,,,,2,,,,79,45
142800,note_on,0,0,3,,,,,,,,1,,,,79,60
142800,note_off,60,0,3,,,,,,,,1,,,,77,64
142800,note_off,60,0,4,,,,,,,,2,,,,77,64
142860,note_off,60,0,3,,,,,,,,1,,,,79,64
142860,note_on,0,0,4,,,,,,,,2,,,,81,45
142860,note_off,60,0,4,,,,,,,,2,,,,79,64
142860,note_on,0,0,3,,,,,,,,1,,,,81,60
142920,note_off,60,0,3,,,,,,,,1,,,,81,64
142920,note_on,0,0,3,,,,,,,,1,,,,83,60
142920,note_on,0,0,4,,,,,,,,2,,,,83,45
142920,note_off,60,0,4,,,,,,,,2,,,,81,64
142980,note_on,485,0,8,,,,,,,,6,,,,48,45
142980,note_on,485,0,13,,,,,,,,12,,,,48,30
142980,note_off,60,0,3,,,,,,,,1,,,,83,64
142980,note_off,60,0,4,,,,,,,,2,,,,83,64
142980,note_on,0,0,3,,,,,,,,1,,,,84,60
142980,note_on,0,0,4,,,,,,,,2,,,,84,45
143215,note_off,235,0,4,,,,,,,,2,,,,84,64
143215,note_off,235,0,8,,,,,,,,6,,,,48,64
143215,note_off,235,0,13,,,,,,,,12,,,,48,64
143215,note_off,235,0,3,,,,,,,,1,,,,84,64
143220,set_tempo,660,1,0,731707,,,,,,,,,,,,
143220,note_on,5,0,4,,,,,,,,2,,,,83,45
143220,note_on,5,0,8,,,,,,,,6,,,,50,45
143220,note_on,5,0,3,,,,,,,,1,,,,83,60
143220,note_on,5,0,13,,,,,,,,12,,,,50,30
143455,note_off,235,0,8,,,,,,,,6,,,,50,64
143455,note_off,235,0,13,,,,,,,,12,,,,50,64
143460,note_on,5,0,13,,,,,,,,12,,,,52,30
143460,note_on,5,0,8,,,,,,,,6,,,,52,45
143620,note_off,400,0,3,,,,,,,,1,,,,83,64
143620,note_off,400,0,4,,,,,,,,2,,,,83,64
143695,note_off,235,0,8,,,,,,,,6,,,,52,64
143695,note_off,235,0,13,,,,,,,,12,,,,52,64
143700,note_on,5,0,8,,,,,,,,6,,,,53,45
143700,note_on,5,0,13,,,,,,,,12,,,,53,30
143700,note_on,80,0,3,,,,,,,,1,,,,81,60
143700,note_on,80,0,4,,,,,,,,2,,,,81,45
143935,note_off,235,0,8,,,,,,,,6,,,,53,64
143935,note_off,235,0,13,,,,,,,,12,,,,53,64
143940,note_on,5,0,13,,,,,,,,12,,,,55,30
143940,note_on,5,0,8,,,,,,,,6,,,,55,45
144175,note_off,475,0,4,,,,,,,,2,,,,81,64
144175,note_off,475,0,3,,,,,,,,1,,,,81,64
144175,note_off,235,0,8,,,,,,,,6,,,,55,64
144175,note_off,235,0,13,,,,,,,,12,,,,55,64
144180,note_on,5,0,4,,,,,,,,2,,,,79,45
144180,note_on,5,0,13,,,,,,,,12,,,,57,30
144180,note_on,5,0,3,,,,,,,,1,,,,79,60
144180,set_tempo,960,1,0,821917,,,,,,,,,,,,
144180,note_on,5,0,8,,,,,,,,6,,,,57,45
144415,note_off,235,0,13,,,,,,,,12,,,,57,64
144415,note_off,235,0,8,,,,,,,,6,,,,57,64
144420,note_on,5,0,13,,,,,,,,12,,,,59,30
144420,note_on,5,0,8,,,,,,,,6,,,,59,45
144580,note_off,400,0,4,,,,,,,,2,,,,79,64
144580,note_off,400,0,3,,,,,,,,1,,,,79,64
144655,note_off,235,0,8,,,,,,,,6,,,,59,64
144655,note_off,235,0,13,,,,,,,,12,,,,59,64
144660,note_on,80,0,4,,,,,,,,2,,,,77,45
144660,note_on,80,0,3,,,,,,,,1,,,,77,60
144660,note_on,5,0,13,,,,,,,,12,,,,55,30
144660,note_on,5,0,8,,,,,,,,6,,,,55,45
144660,set_tempo,480,1,0,882352,,,,,,,,,,,,
144895,note_off,235,0,13,,,,,,,,12,,,,55,64
144895,note_off,235,0,3,,,,,,,,1,,,,77,64
144895,note_off,235,0,8,,,,,,,,6,,,,55,64
144895,note_off,235,0,4,,,,,,,,2,,,,77,64
144900,note_on,5,0,3,,,,,,,,1,,,,76,60
144900,note_on,5,0,13,,,,,,,,12,,,,48,30
144900,set_tempo,240,1,0,967741,,,,,,,,,,,,
144900,note_on,5,0,8,,,,,,,,6,,,,48,45
144900,note_on,5,0,4,,,,,,,,2,,,,76,45
145015,note_off,115,0,3,,,,,,,,1,,,,76,64
145015,note_off,115,0,4,,,,,,,,2,,,,76,64
145020,note_on,5,0,3,,,,,,,,1,,,,72,60
145020,note_on,5,0,4,,,,,,,,2,,,,72,45
145135,note_off,235,0,8,,,,,,,,6,,,,48,64
145135,note_off,235,0,13,,,,,,,,12,,,,48,64
145135,note_off,115,0,4,,,,,,,,2,,,,72,64
145135,note_off,115,0,3,,,,,,,,1,,,,72,64
145140,note_on,5,0,4,,,,,,,,2,,,,60,45
145140,note_on,5,0,3,,,,,,,,1,,,,60,60
145140,note_on,5,0,13,,,,,,,,12,,,,60,30
145140,note_on,5,0,8,,,,,,,,6,,,,60,45
145375,note_off,235,0,3,,,,,,,,1,,,,60,64
145375,note_off,235,0,8,,,,,,,,6,,,,60,64
145375,note_off,235,0,13,,,,,,,,12,,,,60,64
145375,note_off,235,0,4,,,,,,,,2,,,,60,64
145380,note_on,5,0,8,,,,,,,,6,,,,48,45
145380,note_on,5,0,13,,,,,,,,12,,,,48,30
145500,note_on,125,0,3,,,,,,,,1,,,,84,60
145500,note_on,125,0,4,,,,,,,,2,,,,84,45
145580,note_off,80,0,3,,,,,,,,1,,,,84,64
145580,note_off,80,0,4,,,,,,,,2,,,,84,64
145620,note_on,40,0,3,,,,,,,,1,,,,83,60
145620,note_on,40,0,4,,,,,,,,2,,,,83,45
145700,note_off,80,0,3,,,,,,,,1,,,,83,64
145700,note_off,80,0,4,,,,,,,,2,,,,83,64
145740,note_on,40,0,4,,,,,,,,2,,,,81,45
145740,note_on,40,0,3,,,,,,,,1,,,,81,60
145780,note_off,400,0,13,,,,,,,,12,,,,48,64
145780,note_off,400,0,8,,,,,,,,6,,,,48,64
145820,note_off,80,0,4,,,,,,,,2,,,,81,64
145820,note_off,80,0,3,,,,,,,,1,,,,81,64
145860,note_on,80,0,13,,,,,,,,12,,,,43,30
145860,note_on,40,0,3,,,,,,,,1,,,,55,60
145860,note_on,80,0,8,,,,,,,,6,,,,43,45
145860,note_on,40,0,4,,,,,,,,2,,,,55,45
145940,note_off,80,0,4,,,,,,,,2,,,,55,64
145940,note_off,80,0,3,,,,,,,,1,,,,55,64
145980,note_on,40,0,3,,,,,,,,1,,,,83,60
145980,note_on,40,0,4,,,,,,,,2,,,,83,46
145980,set_tempo,1080,1,0,769230,,,,,,,,,,,,
146060,note_off,80,0,3,,,,,,,,1,,,,83,64
146060,note_off,80,0,4,,,,,,,,2,,,,83,64
146100,note_on,40,0,4,,,,,,,,2,,,,81,47
146100,note_on,40,0,3,,,,,,,,1,,,,81,60
146180,note_off,80,0,4,,,,,,,,2,,,,81,64
146180,note_off,80,0,3,,,,,,,,1,,,,81,64
146220,note_on,40,0,3,,,,,,,,1,,,,79,60
146220,note_on,40,0,4,,,,,,,,2,,,,79,48
146260,note_off,400,0,13,,,,,,,,12,,,,43,64
146260,note_off,400,0,8,,,,,,,,6,,,,43,64
146300,note_off,80,0,3,,,,,,,,1,,,,79,64
146300,note_off,80,0,4,,,,,,,,2,,,,79,64
146340,note_on,40,0,3,,,,,,,,1,,,,55,60
146340,note_on,80,0,13,,,,,,,,12,,,,43,37
146340,set_tempo,360,1,0,705882,,,,,,,,,,,,
146340,note_on,80,0,8,,,,,,,,6,,,,43,52
146340,note_on,40,0,4,,,,,,,,2,,,,55,49
146420,note_off,80,0,3,,,,,,,,1,,,,55,64
146420,note_off,80,0,4,,,,,,,,2,,,,55,64
146460,note_on,40,0,3,,,,,,,,1,,,,81,60
146460,note_on,40,0,4,,,,,,,,2,,,,81,50
146540,note_off,80,0,3,,,,,,,,1,,,,81,64
146540,note_off,80,0,4,,,,,,,,2,,,,81,64
146580,note_on,40,0,3,,,,,,,,1,,,,79,60
146580,note_on,40,0,4,,,,,,,,2,,,,79,51
146660,note_off,80,0,3,,,,,,,,1,,,,79,64
146660,note_off,80,0,4,,,,,,,,2,,,,79,64
146700,note_on,40,0,3,,,,,,,,1,,,,77,60
146700,note_on,40,0,4,,,,,,,,2,,,,77,52
146740,note_off,400,0,8,,,,,,,,6,,,,43,64
146740,note_off,400,0,13,,,,,,,,12,,,,43,64
146780,note_off,80,0,4,,,,,,,,2,,,,77,64
146780,note_off,80,0,3,,,,,,,,1,,,,77,64
146820,note_on,40,0,4,,,,,,,,2,,,,55,53
146820,note_on,80,0,8,,,,,,,,6,,,,43,60
146820,note_on,80,0,13,,,,,,,,12,,,,43,44
146820,set_tempo,480,1,0,652173,,,,,,,,,,,,
146820,note_on,40,0,3,,,,,,,,1,,,,55,60
146900,note_off,80,0,4,,,,,,,,2,,,,55,64
146900,note_off,80,0,3,,,,,,,,1,,,,55,64
146940,note_on,40,0,4,,,,,,,,2,,,,79,54
146940,note_on,40,0,3,,,,,,,,1,,,,79,60
147020,note_off,80,0,4,,,,,,,,2,,,,79,64
147020,note_off,80,0,3,,,,,,,,1,,,,79,64
147060,note_on,40,0,4,,,,,,,,2,,,,77,55
147060,note_on,40,0,3,,,,,,,,1,,,,77,60
147140,note_off,80,0,4,,,,,,,,2,,,,77,64
147140,note_off,80,0,3,,,,,,,,1,,,,77,64
147180,note_on,40,0,4,,,,,,,,2,,,,76,56
147180,note_on,40,0,3,,,,,,,,1,,,,76,60
147220,note_off,400,0,13,,,,,,,,12,,,,43,64
147220,note_off,400,0,8,,,,,,,,6,,,,43,64
147260,note_off,80,0,4,,,,,,,,2,,,,76,64
147260,note_off,80,0,3,,,,,,,,1,,,,76,64
147300,note_on,80,0,13,,,,,,,,12,,,,43,51
147300,note_on,40,0,3,,,,,,,,1,,,,55,60
147300,note_on,80,0,8,,,,,,,,6,,,,43,68
147300,set_tempo,480,1,0,612244,,,,,,,,,,,,
147300,note_on,40,0,4,,,,,,,,2,,,,55,57
147380,note_off,80,0,3,,,,,,,,1,,,,55,64
147380,note_off,80,0,4,,,,,,,,2,,,,55,64
147420,note_on,40,0,3,,,,,,,,1,,,,77,60
147420,note_on,40,0,4,,,,,,,,2,,,,77,58
147500,note_off,80,0,4,,,,,,,,2,,,,77,64
147500,note_off,80,0,3,,,,,,,,1,,,,77,64
147540,note_on,40,0,3,,,,,,,,1,,,,76,60
147540,note_on,40,0,4,,,,,,,,2,,,,76,59
147620,note_off,80,0,3,,,,,,,,1,,,,76,64
147620,note_off,80,0,4,,,,,,,,2,,,,76,64
147660,note_on,40,0,3,,,,,,,,1,,,,74,60
147660,note_on,40,0,4,,,,,,,,2,,,,74,60
147700,note_off,400,0,13,,,,,,,,12,,,,43,64
147700,note_off,400,0,8,,,,,,,,6,,,,43,64
147740,note_off,80,0,4,,,,,,,,2,,,,74,64
147740,note_off,80,0,3,,,,,,,,1,,,,74,64
147780,set_tempo,480,1,0,555555,,,,,,,,,,,,
147780,note_on,80,0,13,,,,,,,,12,,,,43,59
147780,note_on,40,0,4,,,,,,,,2,,,,55,61
147780,note_on,80,0,8,,,,,,,,6,,,,43,76
147780,note_on,40,0,3,,,,,,,,1,,,,55,60
147860,note_off,80,0,4,,,,,,,,2,,,,55,64
147860,note_off,80,0,3,,,,,,,,1,,,,55,64
147900,note_on,40,0,4,,,,,,,,2,,,,76,62
147900,note_on,40,0,3,,,,,,,,1,,,,76,60
147980,note_off,80,0,4,,,,,,,,2,,,,76,64
147980,note_off,80,0,3,,,,,,,,1,,,,76,64
148020,note_on,40,0,4,,,,,,,,2,,,,74,63
148020,note_on,40,0,3,,,,,,,,1,,,,74,60
148100,note_off,80,0,3,,,,,,,,1,,,,74,64
148100,note_off,80,0,4,,,,,,,,2,,,,74,64
148140,note_on,40,0,3,,,,,,,,1,,,,72,60
148140,note_on,40,0,4,,,,,,,,2,,,,72,65
148180,note_off,400,0,8,,,,,,,,6,,,,43,64
148180,note_off,400,0,13,,,,,,,,12,,,,43,64
148220,note_off,80,0,3,,,,,,,,1,,,,72,64
148220,note_off,80,0,4,,,,,,,,2,,,,72,64
148260,note_on,80,0,8,,,,,,,,6,,,,43,84
148260,note_on,40,0,3,,,,,,,,1,,,,55,60
148260,note_on,40,0,4,,,,,,,,2,,,,55,67
148260,set_tempo,480,1,0,508474,,,,,,,,,,,,
148260,note_on,80,0,13,,,,,,,,12,,,,43,67
148340,note_off,80,0,4,,,,,,,,2,,,,55,64
148340,note_off,80,0,3,,,,,,,,1,,,,55,64
148380,note_on,40,0,3,,,,,,,,1,,,,74,60
148380,note_on,40,0,4,,,,,,,,2,,,,74,69
148460,note_off,80,0,4,,,,,,,,2,,,,74,64
148460,note_off,80,0,3,,,,,,,,1,,,,74,64
148500,note_on,40,0,3,,,,,,,,1,,,,72,60
148500,note_on,40,0,4,,,,,,,,2,,,,72,71
148580,note_off,80,0,4,,,,,,,,2,,,,72,64
148580,note_off,80,0,3,,,,,,,,1,,,,72,64
148620,note_on,40,0,3,,,,,,,,1,,,,71,60
148620,note_on,40,0,4,,,,,,,,2,,,,71,73
148660,note_off,400,0,13,,,,,,,,12,,,,43,64
148660,note_off,400,0,8,,,,,,,,6,,,,43,64
148700,note_off,80,0,4,,,,,,,,2,,,,71,64
148700,note_off,80,0,3,,,,,,,,1,,,,71,64
148740,note_on,19040,0,15,,,,,,,,14,,,,36,60
148740,note_on,14720,0,10,,,,,,,,8,,,,79,75
148740,note_on,80,0,13,,,,,,,,12,,,,48,75
148740,note_on,14720,0,5,,,,,,,,3,,,,79,92
148740,note_on,40,0,4,,,,,,,,2,,,,72,75
148740,note_on,19040,0,11,,,,,,,,10,,,,76,75
148740,note_on,19040,0,6,,,,,,,,4,,,,76,92
148740,note_on,40,0,3,,,,,,,,1,,,,72,92
148740,note_on,80,0,8,,,,,,,,6,,,,48,92
148740,note_on,14640,0,7,,,,,,,,5,,,,72,92
148740,note_on,15200,0,14,,,,,,,,13,,,,36,75
148740,note_on,15200,0,9,,,,,,,,7,,,,36,92
148740,note_on,14720,0,12,,,,,,,,11,,,,72,75
148820,note_off,80,0,8,,,,,,,,6,,,,48,64
148820,note_off,80,0,4,,,,,,,,2,,,,72,64
148820,note_off,80,0,7,,,,,,,,5,,,,72,64
148820,note_off,80,0,6,,,,,,,,4,,,,76,64
148820,note_off,80,0,13,,,,,,,,12,,,,48,64
148820,note_off,80,0,12,,,,,,,,11,,,,72,64
148820,note_off,80,0,9,,,,,,,,7,,,,36,64
148820,note_off,80,0,3,,,,,,,,1,,,,72,64
148820,note_off,80,0,14,,,,,,,,13,,,,36,64
148820,note_off,80,0,11,,,,,,,,10,,,,76,64
148820,note_off,80,0,5,,,,,,,,3,,,,79,64
148820,note_off,80,0,10,,,,,,,,8,,,,79,64
148980,note_on,160,0,10,,,,,,,,8,,,,79,75
148980,note_on,160,0,13,,,,,,,,12,,,,48,75
148980,note_on,160,0,11,,,,,,,,10,,,,76,75
148980,note_on,160,0,12,,,,,,,,11,,,,72,75
148980,note_on,160,0,5,,,,,,,,3,,,,79,92
148980,note_on,160,0,7,,,,,,,,5,,,,72,92
148980,note_on,160,0,8,,,,,,,,6,,,,48,92
148980,note_on,160,0,9,,,,,,,,7,,,,36,92
148980,note_on,160,0,14,,,,,,,,13,,,,36,75
148980,note_on,160,0,6,,,,,,,,4,,,,76,92
149060,note_off,80,0,5,,,,,,,,3,,,,79,64
149060,note_off,80,0,9,,,,,,,,7,,,,36,64
149060,note_off,80,0,12,,,,,,,,11,,,,72,64
149060,note_off,80,0,8,,,,,,,,6,,,,48,64
149060,note_off,80,0,6,,,,,,,,4,,,,76,64
149060,note_off,80,0,7,,,,,,,,5,,,,72,64
149060,note_off,80,0,10,,,,,,,,8,,,,79,64
149060,note_off,80,0,13,,,,,,,,12,,,,48,64
149060,note_off,80,0,14,,,,,,,,13,,,,36,64
149060,note_off,80,0,11,,,,,,,,10,,,,76,64
149140,note_off,400,0,15,,,,,,,,14,,,,36,64
149220,note_on,160,0,12,,,,,,,,11,,,,72,75
149220,note_on,160,0,14,,,,,,,,13,,,,36,75
149220,note_on,160,0,6,,,,,,,,4,,,,76,92
149220,note_on,160,0,7,,,,,,,,5,,,,72,92
149220,note_on,160,0,10,,,,,,,,8,,,,79,75
149220,note_on,160,0,13,,,,,,,,12,,,,48,75
149220,note_on,160,0,5,,,,,,,,3,,,,79,92
149220,note_on,160,0,8,,,,,,,,6,,,,48,92
149220,note_on,160,0,9,,,,,,,,7,,,,36,92
149220,note_on,160,0,11,,,,,,,,10,,,,76,75
149300,note_off,80,0,11,,,,,,,,10,,,,76,64
149300,note_off,80,0,5,,,,,,,,3,,,,79,64
149300,note_off,80,0,7,,,,,,,,5,,,,72,64
149300,note_off,80,0,12,,,,,,,,11,,,,72,64
149300,note_off,80,0,8,,,,,,,,6,,,,48,64
149300,note_off,80,0,10,,,,,,,,8,,,,79,64
149300,note_off,80,0,13,,,,,,,,12,,,,48,64
149300,note_off,80,0,14,,,,,,,,13,,,,36,64
149300,note_off,80,0,6,,,,,,,,4,,,,76,64
149300,note_off,80,0,9,,,,,,,,7,,,,36,64
149460,note_on,160,0,8,,,,,,,,6,,,,41,92
149460,note_on,160,0,9,,,,,,,,7,,,,29,92
149460,note_on,160,0,7,,,,,,,,5,,,,72,92
149460,note_on,160,0,6,,,,,,,,4,,,,77,92
149460,note_on,160,0,13,,,,,,,,12,,,,41,75
149460,note_on,160,0,11,,,,,,,,10,,,,77,75
149460,note_on,160,0,14,,,,,,,,13,,,,29,75
149460,note_on,160,0,10,,,,,,,,8,,,,81,75
149460,note_on,160,0,12,,,,,,,,11,,,,72,75
149460,note_on,0,0,15,,,,,,,,14,,,,41,60
149460,note_on,320,0,15,,,,,,,,14,,,,29,60
149460,note_on,160,0,5,,,,,,,,3,,,,81,92
149540,note_off,80,0,11,,,,,,,,10,,,,77,64
149540,note_off,80,0,10,,,,,,,,8,,,,81,64
149540,note_off,80,0,8,,,,,,,,6,,,,41,64
149540,note_off,80,0,9,,,,,,,,7,,,,29,64
149540,note_off,80,0,12,,,,,,,,11,,,,72,64
149540,note_off,80,0,6,,,,,,,,4,,,,77,64
149540,note_off,80,0,13,,,,,,,,12,,,,41,64
149540,note_off,80,0,7,,,,,,,,5,,,,72,64
149540,note_off,80,0,5,,,,,,,,3,,,,81,64
149540,note_off,80,0,14,,,,,,,,13,,,,29,64
149695,note_off,235,0,15,,,,,,,,14,,,,41,64
149695,note_off,0,0,15,,,,,,,,14,,,,29,64
149700,note_on,160,0,7,,,,,,,,5,,,,72,92
149700,note_on,160,0,6,,,,,,,,4,,,,76,92
149700,note_on,160,0,13,,,,,,,,12,,,,48,75
149700,note_on,160,0,14,,,,,,,,13,,,,36,75
149700,note_on,160,0,11,,,,,,,,10,,,,76,75
149700,note_on,160,0,10,,,,,,,,8,,,,79,75
149700,note_on,5,0,15,,,,,,,,14,,,,36,60
149700,note_on,160,0,8,,,,,,,,6,,,,48,92
149700,note_on,160,0,12,,,,,,,,11,,,,72,75
149700,note_on,160,0,9,,,,,,,,7,,,,36,92
149700,note_on,160,0,5,,,,,,,,3,,,,79,92
150100,note_off,400,0,10,,,,,,,,8,,,,79,64
150100,note_off,400,0,11,,,,,,,,10,,,,76,64
150100,note_off,400,0,5,,,,,,,,3,,,,79,64
150100,note_off,400,0,14,,,,,,,,13,,,,36,64
150100,note_off,400,0,13,,,,,,,,12,,,,48,64
150100,note_off,400,0,12,,,,,,,,11,,,,72,64
150100,note_off,400,0,9,,,,,,,,7,,,,36,64
150100,note_off,400,0,15,,,,,,,,14,,,,36,64
150100,note_off,400,0,6,,,,,,,,4,,,,76,64
150100,note_off,400,0,7,,,,,,,,5,,,,72,64
150100,note_off,400,0,8,,,,,,,,6,,,,48,64
150180,note_on,80,0,11,,,,,,,,10,,,,76,75
150180,note_on,80,0,12,,,,,,,,11,,,,72,75
150180,note_on,80,0,9,,,,,,,,7,,,,36,92
150180,note_on,80,0,6,,,,,,,,4,,,,76,92
150180,note_on,80,0,10,,,,,,,,8,,,,79,75
150180,note_on,80,0,13,,,,,,,,12,,,,48,75
150180,note_on,80,0,7,,,,,,,,5,,,,72,92
150180,note_on,80,0,14,,,,,,,,13,,,,36,75
150180,note_on,80,0,5,,,,,,,,3,,,,79,92
150180,note_on,80,0,8,,,,,,,,6,,,,48,92
150260,note_off,80,0,12,,,,,,,,11,,,,72,64
150260,note_off,80,0,11,,,,,,,,10,,,,76,64
150260,note_off,80,0,10,,,,,,,,8,,,,79,64
150260,note_off,80,0,14,,,,,,,,13,,,,36,64
150260,note_off,80,0,8,,,,,,,,6,,,,48,64
150260,note_off,80,0,13,,,,,,,,12,,,,48,64
150260,note_off,80,0,6,,,,,,,,4,,,,76,64
150260,note_off,80,0,9,,,,,,,,7,,,,36,64
150260,note_off,80,0,5,,,,,,,,3,,,,79,64
150260,note_off,80,0,7,,,,,,,,5,,,,72,64
150420,note_on,160,0,8,,,,,,,,6,,,,41,92
150420,note_on,160,0,9,,,,,,,,7,,,,29,92
150420,note_on,160,0,12,,,,,,,,11,,,,72,75
150420,note_on,320,0,15,,,,,,,,14,,,,29,60
150420,note_on,160,0,5,,,,,,,,3,,,,81,92
150420,note_on,160,0,14,,,,,,,,13,,,,29,75
150420,note_on,160,0,13,,,,,,,,12,,,,41,75
150420,note_on,160,0,6,,,,,,,,4,,,,77,92
150420,note_on,160,0,7,,,,,,,,5,,,,72,92
150420,note_on,160,0,10,,,,,,,,8,,,,81,75
150420,note_on,0,0,15,,,,,,,,14,,,,41,60
150420,note_on,160,0,11,,,,,,,,10,,,,77,75
150500,note_off,80,0,12,,,,,,,,11,,,,72,64
150500,note_off,80,0,9,,,,,,,,7,,,,29,64
150500,note_off,80,0,5,,,,,,,,3,,,,81,64
150500,note_off,80,0,10,,,,,,,,8,,,,81,64
150500,note_off,80,0,7,,,,,,,,5,,,,72,64
150500,note_off,80,0,14,,,,,,,,13,,,,29,64
150500,note_off,80,0,13,,,,,,,,12,,,,41,64
150500,note_off,80,0,11,,,,,,,,10,,,,77,64
150500,note_off,80,0,8,,,,,,,,6,,,,41,64
150500,note_off,80,0,6,,,,,,,,4,,,,77,64
150655,note_off,0,0,15,,,,,,,,14,,,,29,64
150655,note_off,235,0,15,,,,,,,,14,,,,41,64
150660,note_on,160,0,7,,,,,,,,5,,,,72,92
150660,note_on,160,0,12,,,,,,,,11,,,,72,75
150660,note_on,160,0,11,,,,,,,,10,,,,76,75
150660,note_on,160,0,6,,,,,,,,4,,,,76,92
150660,note_on,160,0,13,,,,,,,,12,,,,48,75
150660,note_on,160,0,14,,,,,,,,13,,,,36,75
150660,note_on,160,0,9,,,,,,,,7,,,,36,92
150660,note_on,5,0,15,,,,,,,,14,,,,36,60
150660,note_on,160,0,5,,,,,,,,3,,,,79,92
150660,note_on,160,0,8,,,,,,,,6,,,,48,92
150660,note_on,160,0,10,,,,,,,,8,,,,79,75
150740,note_off,80,0,7,,,,,,,,5,,,,72,64
150740,note_off,80,0,6,,,,,,,,4,,,,76,64
150740,note_off,80,0,8,,,,,,,,6,,,,48,64
150740,note_off,80,0,13,,,,,,,,12,,,,48,64
150740,note_off,80,0,14,,,,,,,,13,,,,36,64
150740,note_off,80,0,9,,,,,,,,7,,,,36,64
150740,note_off,80,0,10,,,,,,,,8,,,,79,64
150740,note_off,80,0,11,,,,,,,,10,,,,76,64
150740,note_off,80,0,5,,,,,,,,3,,,,79,64
150740,note_off,80,0,12,,,,,,,,11,,,,72,64
150900,note_on,160,0,7,,,,,,,,5,,,,72,92
150900,note_on,160,0,10,,,,,,,,8,,,,79,75
150900,note_on,160,0,12,,,,,,,,11,,,,72,75
150900,note_on,160,0,8,,,,,,,,6,,,,48,92
150900,note_on,160,0,14,,,,,,,,13,,,,36,75
150900,note_on,160,0,6,,,,,,,,4,,,,76,92
150900,note_on,160,0,13,,,,,,,,12,,,,48,75
150900,note_on,160,0,9,,,,,,,,7,,,,36,92
150900,note_on,160,0,5,,,,,,,,3,,,,79,92
150900,note_on,160,0,11,,,,,,,,10,,,,76,75
150980,note_off,80,0,14,,,,,,,,13,,,,36,64
150980,note_off,80,0,12,,,,,,,,11,,,,72,64
150980,note_off,80,0,8,,,,,,,,6,,,,48,64
150980,note_off,80,0,13,,,,,,,,12,,,,48,64
150980,note_off,80,0,5,,,,,,,,3,,,,79,64
150980,note_off,80,0,10,,,,,,,,8,,,,79,64
150980,note_off,80,0,9,,,,,,,,7,,,,36,64
150980,note_off,80,0,7,,,,,,,,5,,,,72,64
150980,note_off,80,0,6,,,,,,,,4,,,,76,64
150980,note_off,80,0,11,,,,,,,,10,,,,76,64
151060,note_off,400,0,15,,,,,,,,14,,,,36,64
151140,note_on,160,0,10,,,,,,,,8,,,,79,75
151140,note_on,160,0,5,,,,,,,,3,,,,79,92
151140,note_on,160,0,11,,,,,,,,10,,,,76,75
151140,note_on,160,0,13,,,,,,,,12,,,,48,75
151140,note_on,160,0,6,,,,,,,,4,,,,76,92
151140,note_on,160,0,14,,,,,,,,13,,,,36,75
151140,note_on,160,0,12,,,,,,,,11,,,,72,75
151140,note_on,160,0,7,,,,,,,,5,,,,72,92
151140,note_on,160,0,9,,,,,,,,7,,,,36,92
151140,note_on,160,0,8,,,,,,,,6,,,,48,92
151220,note_off,80,0,8,,,,,,,,6,,,,48,64
151220,note_off,80,0,14,,,,,,,,13,,,,36,64
151220,note_off,80,0,9,,,,,,,,7,,,,36,64
151220,note_off,80,0,6,,,,,,,,4,,,,76,64
151220,note_off,80,0,5,,,,,,,,3,,,,79,64
151220,note_off,80,0,10,,,,,,,,8,,,,79,64
151220,note_off,80,0,13,,,,,,,,12,,,,48,64
151220,note_off,80,0,7,,,,,,,,5,,,,72,64
151220,note_off,80,0,11,,,,,,,,10,,,,76,64
151220,note_off,80,0,12,,,,,,,,11,,,,72,64
151380,note_on,160,0,8,,,,,,,,6,,,,41,92
151380,note_on,160,0,9,,,,,,,,7,,,,29,92
151380,note_on,320,0,15,,,,,,,,14,,,,29,60
151380,note_on,0,0,15,,,,,,,,14,,,,41,60
151380,note_on,160,0,10,,,,,,,,8,,,,81,75
151380,note_on,160,0,12,,,,,,,,11,,,,72,75
151380,note_on,160,0,6,,,,,,,,4,,,,77,92
151380,note_on,160,0,5,,,,,,,,3,,,,81,92
151380,note_on,160,0,13,,,,,,,,12,,,,41,75
151380,note_on,160,0,7,,,,,,,,5,,,,72,92
151380,note_on,160,0,14,,,,,,,,13,,,,29,75
151380,note_on,160,0,11,,,,,,,,10,,,,77,75
151460,note_off,80,0,8,,,,,,,,6,,,,41,64
151460,note_off,80,0,11,,,,,,,,10,,,,77,64
151460,note_off,80,0,10,,,,,,,,8,,,,81,64
151460,note_off,80,0,12,,,,,,,,11,,,,72,64
151460,note_off,80,0,6,,,,,,,,4,,,,77,64
151460,note_off,80,0,14,,,,,,,,13,,,,29,64
151460,note_off,80,0,5,,,,,,,,3,,,,81,64
151460,note_off,80,0,7,,,,,,,,5,,,,72,64
151460,note_off,80,0,9,,,,,,,,7,,,,29,64
151460,note_off,80,0,13,,,,,,,,12,,,,41,64
151615,note_off,235,0,15,,,,,,,,14,,,,41,64
151615,note_off,0,0,15,,,,,,,,14,,,,29,64
151620,note_on,160,0,13,,,,,,,,12,,,,48,75
151620,note_on,5,0,15,,,,,,,,14,,,,36,60
151620,note_on,160,0,6,,,,,,,,4,,,,76,92
151620,note_on,160,0,12,,,,,,,,11,,,,72,75
151620,note_on,160,0,5,,,,,,,,3,,,,79,92
151620,note_on,160,0,14,,,,,,,,13,,,,36,75
151620,note_on,160,0,9,,,,,,,,7,,,,36,92
151620,note_on,160,0,10,,,,,,,,8,,,,79,75
151620,note_on,160,0,7,,,,,,,,5,,,,72,92
151620,note_on,160,0,11,,,,,,,,10,,,,76,75
151620,note_on,160,0,8,,,,,,,,6,,,,48,92
152020,note_off,400,0,12,,,,,,,,11,,,,72,64
152020,note_off,400,0,11,,,,,,,,10,,,,76,64
152020,note_off,400,0,9,,,,,,,,7,,,,36,64
152020,note_off,400,0,15,,,,,,,,14,,,,36,64
152020,note_off,400,0,6,,,,,,,,4,,,,76,64
152020,note_off,400,0,8,,,,,,,,6,,,,48,64
152020,note_off,400,0,13,,,,,,,,12,,,,48,64
152020,note_off,400,0,7,,,,,,,,5,,,,72,64
152020,note_off,400,0,10,,,,,,,,8,,,,79,64
152020,note_off,400,0,14,,,,,,,,13,,,,36,64
152020,note_off,400,0,5,,,,,,,,3,,,,79,64
152100,note_on,80,0,13,,,,,,,,12,,,,48,75
152100,note_on,80,0,14,,,,,,,,13,,,,36,75
152100,note_on,80,0,11,,,,,,,,10,,,,76,75
152100,note_on,80,0,8,,,,,,,,6,,,,48,92
152100,note_on,80,0,7,,,,,,,,5,,,,72,92
152100,note_on,80,0,6,,,,,,,,4,,,,76,92
152100,note_on,80,0,12,,,,,,,,11,,,,72,75
152100,note_on,80,0,10,,,,,,,,8,,,,79,75
152100,note_on,80,0,9,,,,,,,,7,,,,36,92
152100,note_on,80,0,5,,,,,,,,3,,,,79,92
152180,note_off,80,0,7,,,,,,,,5,,,,72,64
152180,note_off,80,0,8,,,,,,,,6,,,,48,64
152180,note_off,80,0,5,,,,,,,,3,,,,79,64
152180,note_off,80,0,12,,,,,,,,11,,,,72,64
152180,note_off,80,0,11,,,,,,,,10,,,,76,64
152180,note_off,80,0,13,,,,,,,,12,,,,48,64
152180,note_off,80,0,6,,,,,,,,4,,,,76,64
152180,note_off,80,0,14,,,,,,,,13,,,,36,64
152180,note_off,80,0,9,,,,,,,,7,,,,36,64
152180,note_off,80,0,10,,,,,,,,8,,,,79,64
152340,note_on,160,0,11,,,,,,,,10,,,,77,75
152340,note_on,160,0,6,,,,,,,,4,,,,77,92
152340,note_on,160,0,7,,,,,,,,5,,,,72,92
152340,note_on,160,0,8,,,,,,,,6,,,,41,92
152340,note_on,320,0,15,,,,,,,,14,,,,31,60
152340,note_on,160,0,10,,,,,,,,8,,,,81,75
152340,note_on,160,0,9,,,,,,,,7,,,,29,92
152340,note_on,160,0,5,,,,,,,,3,,,,81,92
152340,note_on,160,0,13,,,,,,,,12,,,,41,75
152340,note_on,160,0,14,,,,,,,,13,,,,29,75
152340,note_on,160,0,12,,,,,,,,11,,,,72,75
152420,note_off,80,0,9,,,,,,,,7,,,,29,64
152420,note_off,80,0,11,,,,,,,,10,,,,77,64
152420,note_off,80,0,8,,,,,,,,6,,,,41,64
152420,note_off,80,0,10,,,,,,,,8,,,,81,64
152420,note_off,80,0,5,,,,,,,,3,,,,81,64
152420,note_off,80,0,6,,,,,,,,4,,,,77,64
152420,note_off,80,0,7,,,,,,,,5,,,,72,64
152420,note_off,80,0,14,,,,,,,,13,,,,29,64
152420,note_off,80,0,13,,,,,,,,12,,,,41,64
152420,note_off,80,0,12,,,,,,,,11,,,,72,64
152575,note_off,235,0,15,,,,,,,,14,,,,31,64
152580,note_on,160,0,6,,,,,,,,4,,,,76,92
152580,note_on,160,0,7,,,,,,,,5,,,,72,92
152580,note_on,160,0,14,,,,,,,,13,,,,36,75
152580,note_on,160,0,5,,,,,,,,3,,,,79,92
152580,note_on,160,0,11,,,,,,,,10,,,,76,75
152580,note_on,160,0,12,,,,,,,,11,,,,72,75
152580,note_on,160,0,13,,,,,,,,12,,,,48,75
152580,note_on,160,0,9,,,,,,,,7,,,,36,92
152580,note_on,5,0,15,,,,,,,,14,,,,36,60
152580,note_on,160,0,10,,,,,,,,8,,,,79,75
152580,note_on,160,0,8,,,,,,,,6,,,,48,92
152610,note_off,30,0,6,,,,,,,,4,,,,76,64
152610,note_on,0,0,6,,,,,,,,4,,,,77,92
152610,note_off,30,0,10,,,,,,,,8,,,,79,64
152610,note_on,0,0,11,,,,,,,,10,,,,77,75
152610,note_off,30,0,11,,,,,,,,10,,,,76,64
152610,note_on,0,0,10,,,,,,,,8,,,,81,75
152610,note_on,0,0,5,,,,,,,,3,,,,81,92
152610,note_off,30,0,5,,,,,,,,3,,,,79,64
152640,note_on,0,0,5,,,,,,,,3,,,,79,92
152640,note_off,30,0,5,,,,,,,,3,,,,81,64
152640,note_off,30,0,11,,,,,,,,10,,,,77,64
152640,note_off,30,0,10,,,,,,,,8,,,,81,64
152640,note_on,0,0,10,,,,,,,,8,,,,79,75
152640,note_off,30,0,6,,,,,,,,4,,,,77,64
152640,note_on,0,0,6,,,,,,,,4,,,,76,92
152640,note_on,0,0,11,,,,,,,,10,,,,76,75
152660,note_off,80,0,12,,,,,,,,11,,,,72,64
152660,note_off,80,0,13,,,,,,,,12,,,,48,64
152660,note_off,80,0,14,,,,,,,,13,,,,36,64
152660,note_off,80,0,8,,,,,,,,6,,,,48,64
152660,note_off,80,0,7,,,,,,,,5,,,,72,64
152660,note_off,80,0,9,,,,,,,,7,,,,36,64
152670,note_off,30,0,11,,,,,,,,10,,,,76,64
152670,note_on,0,0,11,,,,,,,,10,,,,77,75
152670,note_on,0,0,10,,,,,,,,8,,,,81,75
152670,note_on,0,0,5,,,,,,,,3,,,,81,92
152670,note_off,30,0,5,,,,,,,,3,,,,79,64
152670,note_off,30,0,6,,,,,,,,4,,,,76,64
152670,note_off,30,0,10,,,,,,,,8,,,,79,64
152670,note_on,0,0,6,,,,,,,,4,,,,77,92
152700,note_on,0,0,6,,,,,,,,4,,,,76,92
152700,note_off,30,0,10,,,,,,,,8,,,,81,64
152700,note_off,30,0,6,,,,,,,,4,,,,77,64
152700,note_off,30,0,5,,,,,,,,3,,,,81,64
152700,note_on,0,0,11,,,,,,,,10,,,,76,75
152700,note_off,30,0,11,,,,,,,,10,,,,77,64
152700,note_on,0,0,5,,,,,,,,3,,,,79,92
152700,note_on,0,0,10,,,,,,,,8,,,,79,75
152730,note_on,0,0,5,,,,,,,,3,,,,81,92
152730,note_off,30,0,6,,,,,,,,4,,,,76,64
152730,note_on,0,0,6,,,,,,,,4,,,,77,92
152730,note_on,0,0,10,,,,,,,,8,,,,81,75
152730,note_off,30,0,5,,,,,,,,3,,,,79,64
152730,note_off,30,0,10,,,,,,,,8,,,,79,64
152730,note_off,30,0,11,,,,,,,,10,,,,76,64
152730,note_on,0,0,11,,,,,,,,10,,,,77,75
152760,note_on,0,0,10,,,,,,,,8,,,,79,75
152760,note_off,30,0,11,,,,,,,,10,,,,77,64
152760,note_off,30,0,5,,,,,,,,3,,,,81,64
152760,note_on,0,0,5,,,,,,,,3,,,,79,92
152760,note_on,0,0,6,,,,,,,,4,,,,76,92
152760,note_on,0,0,11,,,,,,,,10,,,,76,75
152760,note_off,30,0,6,,,,,,,,4,,,,77,64
152760,note_off,30,0,10,,,,,,,,8,,,,81,64
152790,note_off,30,0,6,,,,,,,,4,,,,76,64
152790,note_off,30,0,10,,,,,,,,8,,,,79,64
152790,note_off,30,0,11,,,,,,,,10,,,,76,64
152790,note_on,0,0,5,,,,,,,,3,,,,81,92
152790,note_off,30,0,5,,,,,,,,3,,,,79,64
152790,note_on,0,0,11,,,,,,,,10,,,,77,75
152790,note_on,0,0,6,,,,,,,,4,,,,77,92
152790,note_on,0,0,10,,,,,,,,8,,,,81,75
152820,note_on,0,0,5,,,,,,,,3,,,,81,92
152820,note_off,30,0,5,,,,,,,,3,,,,81,64
152820,note_off,30,0,10,,,,,,,,8,,,,81,64
152820,note_on,160,0,8,,,,,,,,6,,,,48,92
152820,note_off,30,0,11,,,,,,,,10,,,,77,64
152820,note_on,160,0,9,,,,,,,,7,,,,36,92
152820,note_on,0,0,10,,,,,,,,8,,,,81,75
152820,note_off,30,0,6,,,,,,,,4,,,,77,64
152820,note_on,0,0,11,,,,,,,,10,,,,77,75
152820,note_on,160,0,12,,,,,,,,11,,,,72,75
152820,note_on,160,0,7,,,,,,,,5,,,,72,92
152820,note_on,0,0,6,,,,,,,,4,,,,77,92
152820,note_on,160,0,14,,,,,,,,13,,,,36,75
152820,note_on,160,0,13,,,,,,,,12,,,,48,75
152900,note_off,80,0,7,,,,,,,,5,,,,72,64
152900,note_off,80,0,9,,,,,,,,7,,,,36,64
152900,note_off,80,0,14,,,,,,,,13,,,,36,64
152900,note_off,80,0,12,,,,,,,,11,,,,72,64
152900,note_off,80,0,5,,,,,,,,3,,,,81,64
152900,note_off,80,0,8,,,,,,,,6,,,,48,64
152900,note_off,80,0,6,,,,,,,,4,,,,77,64
152900,note_off,80,0,11,,,,,,,,10,,,,77,64
152900,note_off,80,0,13,,,,,,,,12,,,,48,64
152900,note_off,80,0,10,,,,,,,,8,,,,81,64
152940,note_on,40,0,11,,,,,,,,10,,,,76,75
152940,note_on,40,0,6,,,,,,,,4,,,,76,92
152940,note_on,40,0,5,,,,,,,,3,,,,79,92
152940,note_on,40,0,10,,,,,,,,8,,,,79,75
152980,note_off,400,0,15,,,,,,,,14,,,,36,64
153020,note_off,80,0,10,,,,,,,,8,,,,79,64
153020,note_off,80,0,5,,,,,,,,3,,,,79,64
153020,note_off,80,0,6,,,,,,,,4,,,,76,64
153020,note_off,80,0,11,,,,,,,,10,,,,76,64
153060,note_on,160,0,14,,,,,,,,13,,,,41,75
153060,note_on,160,0,8,,,,,,,,6,,,,53,92
153060,note_on,160,0,12,,,,,,,,11,,,,69,75
153060,note_on,160,0,7,,,,,,,,5,,,,69,92
153060,note_on,160,0,9,,,,,,,,7,,,,41,92
153060,note_on,160,0,13,,,,,,,,12,,,,53,75
153060,note_on,40,0,11,,,,,,,,10,,,,74,75
153060,note_on,80,0,15,,,,,,,,14,,,,41,60
153060,note_on,40,0,6,,,,,,,,4,,,,74,92
153060,note_on,40,0,5,,,,,,,,3,,,,77,92
153060,note_on,40,0,10,,,,,,,,8,,,,77,75
153140,note_off,80,0,9,,,,,,,,7,,,,41,64
153140,note_off,80,0,12,,,,,,,,11,,,,69,64
153140,note_off,80,0,10,,,,,,,,8,,,,77,64
153140,note_off,80,0,7,,,,,,,,5,,,,69,64
153140,note_off,80,0,6,,,,,,,,4,,,,74,64
153140,note_off,80,0,14,,,,,,,,13,,,,41,64
153140,note_off,80,0,13,,,,,,,,12,,,,53,64
153140,note_off,80,0,8,,,,,,,,6,,,,53,64
153140,note_off,80,0,5,,,,,,,,3,,,,77,64
153140,note_off,80,0,11,,,,,,,,10,,,,74,64
153295,note_off,235,0,15,,,,,,,,14,,,,41,64
153300,note_on,160,0,13,,,,,,,,12,,,,54,75
153300,note_on,5,0,15,,,,,,,,14,,,,42,60
153300,note_on,160,0,10,,,,,,,,8,,,,76,75
153300,note_on,160,0,6,,,,,,,,4,,,,72,92
153300,note_on,160,0,8,,,,,,,,6,,,,54,92
153300,note_on,160,0,5,,,,,,,,3,,,,76,92
153300,note_on,160,0,12,,,,,,,,11,,,,69,75
153300,note_on,160,0,14,,,,,,,,13,,,,42,75
153300,note_on,160,0,11,,,,,,,,10,,,,72,75
153300,note_on,160,0,9,,,,,,,,7,,,,42,92
153300,note_on,160,0,7,,,,,,,,5,,,,69,92
153380,note_off,80,0,7,,,,,,,,5,,,,69,64
153380,note_off,80,0,8,,,,,,,,6,,,,54,64
153380,note_off,80,0,12,,,,,,,,11,,,,69,64
153380,note_off,80,0,9,,,,,,,,7,,,,42,64
153380,note_off,80,0,11,,,,,,,,10,,,,72,64
153380,note_off,80,0,6,,,,,,,,4,,,,72,64
153380,note_off,80,0,10,,,,,,,,8,,,,76,64
153380,note_off,80,0,14,,,,,,,,13,,,,42,64
153380,note_off,80,0,13,,,,,,,,12,,,,54,64
153380,note_off,80,0,5,,,,,,,,3,,,,76,64
153535,note_off,235,0,15,,,,,,,,14,,,,42,64
153540,set_tempo,5280,1,0,500000,,,,,,,,,,,,
153540,note_on,160,0,11,,,,,,,,10,,,,71,75
153540,note_on,160,0,9,,,,,,,,7,,,,43,92
153540,note_on,160,0,14,,,,,,,,13,,,,43,75
153540,note_on,160,0,6,,,,,,,,4,,,,71,92
153540,note_on,160,0,5,,,,,,,,3,,,,74,92
153540,note_on,160,0,13,,,,,,,,12,,,,55,75
153540,note_on,5,0,15,,,,,,,,14,,,,43,60
153540,note_on,160,0,10,,,,,,,,8,,,,74,75
153540,note_on,160,0,12,,,,,,,,11,,,,62,75
153540,note_on,160,0,7,,,,,,,,5,,,,62,92
153540,note_on,160,0,8,,,,,,,,6,,,,55,92
153620,note_off,80,0,14,,,,,,,,13,,,,43,64
153620,note_off,80,0,13,,,,,,,,12,,,,55,64
153620,note_off,80,0,8,,,,,,,,6,,,,55,64
153620,note_off,80,0,12,,,,,,,,11,,,,62,64
153620,note_off,80,0,9,,,,,,,,7,,,,43,64
153620,note_off,80,0,7,,,,,,,,5,,,,62,64
153775,note_off,235,0,15,,,,,,,,14,,,,43,64
153780,note_on,160,0,14,,,,,,,,13,,,,41,75
153780,note_on,160,0,13,,,,,,,,12,,,,53,75
153780,note_on,160,0,7,,,,,,,,5,,,,62,92
153780,note_on,160,0,9,,,,,,,,7,,,,41,92
153780,note_on,160,0,12,,,,,,,,11,,,,62,75
153780,note_on,5,0,15,,,,,,,,14,,,,41,60
153780,note_on,160,0,8,,,,,,,,6,,,,53,92
153860,note_off,80,0,12,,,,,,,,11,,,,62,64
153860,note_off,80,0,14,,,,,,,,13,,,,41,64
153860,note_off,80,0,8,,,,,,,,6,,,,53,64
153860,note_off,80,0,13,,,,,,,,12,,,,53,64
153860,note_off,80,0,7,,,,,,,,5,,,,62,64
153860,note_off,80,0,9,,,,,,,,7,,,,41,64
153940,note_off,400,0,5,,,,,,,,3,,,,74,64
153940,note_off,400,0,6,,,,,,,,4,,,,71,64
153940,note_off,400,0,10,,,,,,,,8,,,,74,64
153940,note_off,400,0,11,,,,,,,,10,,,,71,64
154015,note_off,235,0,15,,,,,,,,14,,,,41,64
154020,note_on,160,0,13,,,,,,,,12,,,,52,75
154020,note_on,160,0,8,,,,,,,,6,,,,52,92
154020,note_on,160,0,9,,,,,,,,7,,,,40,92
154020,note_on,5,0,15,,,,,,,,14,,,,40,60
154020,note_on,160,0,14,,,,,,,,13,,,,40,75
154020,note_on,160,0,12,,,,,,,,11,,,,67,75
154020,note_on,160,0,7,,,,,,,,5,,,,67,92
154100,note_off,80,0,14,,,,,,,,13,,,,40,64
154100,note_off,80,0,12,,,,,,,,11,,,,67,64
154100,note_off,80,0,8,,,,,,,,6,,,,52,64
154100,note_off,80,0,9,,,,,,,,7,,,,40,64
154100,note_off,80,0,13,,,,,,,,12,,,,52,64
154100,note_off,80,0,7,,,,,,,,5,,,,67,64
154255,note_off,235,0,15,,,,,,,,14,,,,40,64
154260,note_on,160,0,13,,,,,,,,12,,,,50,75
154260,note_on,160,0,8,,,,,,,,6,,,,50,92
154260,note_on,160,0,9,,,,,,,,7,,,,38,92
154260,note_on,320,0,6,,,,,,,,4,,,,72,92
154260,note_on,160,0,7,,,,,,,,5,,,,65,92
154260,note_on,320,0,5,,,,,,,,3,,,,76,92
154260,note_on,5,0,15,,,,,,,,14,,,,38,60
154260,note_on,320,0,10,,,,,,,,8,,,,76,75
154260,note_on,160,0,12,,,,,,,,11,,,,65,75
154260,note_on,320,0,11,,,,,,,,10,,,,72,75
154260,note_on,160,0,14,,,,,,,,13,,,,38,75
154340,note_off,80,0,8,,,,,,,,6,,,,50,64
154340,note_off,80,0,5,,,,,,,,3,,,,76,64
154340,note_off,80,0,14,,,,,,,,13,,,,38,64
154340,note_off,80,0,12,,,,,,,,11,,,,65,64
154340,note_off,80,0,7,,,,,,,,5,,,,65,64
154340,note_off,80,0,10,,,,,,,,8,,,,76,64
154340,note_off,80,0,6,,,,,,,,4,,,,72,64
154340,note_off,80,0,11,,,,,,,,10,,,,72,64
154340,note_off,80,0,9,,,,,,,,7,,,,38,64
154340,note_off,80,0,13,,,,,,,,12,,,,50,64
154380,note_on,40,0,10,,,,,,,,8,,,,77,75
154380,note_on,40,0,6,,,,,,,,4,,,,74,92
154380,note_on,40,0,5,,,,,,,,3,,,,77,92
154380,note_on,40,0,11,,,,,,,,10,,,,74,75
154460,note_off,80,0,11,,,,,,,,10,,,,74,64
154460,note_off,80,0,10,,,,,,,,8,,,,77,64
154460,note_off,80,0,6,,,,,,,,4,,,,74,64
154460,note_off,80,0,5,,,,,,,,3,,,,77,64
154495,note_off,235,0,15,,,,,,,,14,,,,38,64
154500,note_on,160,0,13,,,,,,,,12,,,,48,75
154500,note_on,40,0,11,,,,,,,,10,,,,76,75
154500,note_on,40,0,10,,,,,,,,8,,,,79,75
154500,note_on,40,0,5,,,,,,,,3,,,,79,92
154500,note_on,160,0,9,,,,,,,,7,,,,36,92
154500,note_on,5,0,15,,,,,,,,14,,,,36,60
154500,note_on,160,0,8,,,,,,,,6,,,,48,92
154500,note_on,160,0,12,,,,,,,,11,,,,64,75
154500,note_on,160,0,14,,,,,,,,13,,,,36,75
154500,note_on,160,0,7,,,,,,,,5,,,,64,92
154500,note_on,40,0,6,,,,,,,,4,,,,76,92
154580,note_off,80,0,9,,,,,,,,7,,,,36,64
154580,note_off,80,0,7,,,,,,,,5,,,,64,64
154580,note_off,80,0,14,,,,,,,,13,,,,36,64
154580,note_off,80,0,13,,,,,,,,12,,,,48,64
154580,note_off,80,0,6,,,,,,,,4,,,,76,64
154580,note_off,80,0,11,,,,,,,,10,,,,76,64
154580,note_off,80,0,8,,,,,,,,6,,,,48,64
154580,note_off,80,0,12,,,,,,,,11,,,,64,64
154580,note_off,80,0,5,,,,,,,,3,,,,79,64
154580,note_off,80,0,10,,,,,,,,8,,,,79,64
154740,note_on,160,0,6,,,,,,,,4,,,,76,92
154740,note_on,160,0,11,,,,,,,,10,,,,76,75
154740,note_on,160,0,14,,,,,,,,13,,,,48,75
154740,note_on,160,0,8,,,,,,,,6,,,,60,92
154740,note_on,160,0,7,,,,,,,,5,,,,64,92
154740,note_on,160,0,13,,,,,,,,12,,,,60,75
154740,note_on,160,0,12,,,,,,,,11,,,,64,75
154740,note_on,160,0,9,,,,,,,,7,,,,48,92
154740,note_on,160,0,5,,,,,,,,3,,,,79,92
154740,note_on,160,0,10,,,,,,,,8,,,,79,75
154820,note_off,80,0,8,,,,,,,,6,,,,60,64
154820,note_off,80,0,9,,,,,,,,7,,,,48,64
154820,note_off,80,0,14,,,,,,,,13,,,,48,64
154820,note_off,80,0,12,,,,,,,,11,,,,64,64
154820,note_off,80,0,7,,,,,,,,5,,,,64,64
154820,note_off,80,0,13,,,,,,,,12,,,,60,64
154860,note_on,40,0,7,,,,,,,,5,,,,62,92
154860,note_on,40,0,12,,,,,,,,11,,,,62,75
154860,note_on,40,0,14,,,,,,,,13,,,,46,75
154860,note_on,40,0,9,,,,,,,,7,,,,46,92
154860,note_on,40,0,8,,,,,,,,6,,,,58,92
154860,note_on,40,0,13,,,,,,,,12,,,,58,75
154900,note_off,400,0,15,,,,,,,,14,,,,36,64
154940,note_off,80,0,13,,,,,,,,12,,,,58,64
154940,note_off,80,0,9,,,,,,,,7,,,,46,64
154940,note_off,80,0,14,,,,,,,,13,,,,46,64
154940,note_off,80,0,8,,,,,,,,6,,,,58,64
154940,note_off,80,0,7,,,,,,,,5,,,,62,64
154940,note_off,80,0,12,,,,,,,,11,,,,62,64
154980,note_on,40,0,9,,,,,,,,7,,,,48,92
154980,note_on,40,0,8,,,,,,,,6,,,,60,92
154980,note_on,40,0,7,,,,,,,,5,,,,64,92
154980,note_on,40,0,13,,,,,,,,12,,,,60,75
154980,note_on,40,0,14,,,,,,,,13,,,,48,75
154980,note_on,40,0,12,,,,,,,,11,,,,64,75
155060,note_off,80,0,8,,,,,,,,6,,,,60,64
155060,note_off,80,0,13,,,,,,,,12,,,,60,64
155060,note_off,80,0,14,,,,,,,,13,,,,48,64
155060,note_off,80,0,9,,,,,,,,7,,,,48,64
155060,note_off,80,0,12,,,,,,,,11,,,,64,64
155060,note_off,80,0,7,,,,,,,,5,,,,64,64
155140,note_off,400,0,5,,,,,,,,3,,,,79,64
155140,note_off,400,0,10,,,,,,,,8,,,,79,64
155140,note_off,400,0,6,,,,,,,,4,,,,76,64
155140,note_off,400,0,11,,,,,,,,10,,,,76,64
155220,note_on,160,0,7,,,,,,,,5,,,,64,92
155220,note_on,80,0,10,,,,,,,,8,,,,76,75
155220,note_on,80,0,5,,,,,,,,3,,,,76,92
155220,note_on,80,0,6,,,,,,,,4,,,,72,92
155220,note_on,320,0,15,,,,,,,,14,,,,36,60
155220,note_on,160,0,14,,,,,,,,13,,,,36,75
155220,note_on,80,0,11,,,,,,,,10,,,,72,75
155220,note_on,160,0,12,,,,,,,,11,,,,64,75
155220,note_on,160,0,8,,,,,,,,6,,,,48,92
155220,note_on,160,0,9,,,,,,,,7,,,,36,92
155220,note_on,160,0,13,,,,,,,,12,,,,48,75
155300,note_off,80,0,8,,,,,,,,6,,,,48,64
155300,note_off,80,0,11,,,,,,,,10,,,,72,64
155300,note_off,80,0,14,,,,,,,,13,,,,36,64
155300,note_off,80,0,12,,,,,,,,11,,,,64,64
155300,note_off,80,0,7,,,,,,,,5,,,,64,64
155300,note_off,80,0,13,,,,,,,,12,,,,48,64
155300,note_off,80,0,10,,,,,,,,8,,,,76,64
155300,note_off,80,0,5,,,,,,,,3,,,,76,64
155300,note_off,80,0,6,,,,,,,,4,,,,72,64
155300,note_off,80,0,9,,,,,,,,7,,,,36,64
155340,note_on,40,0,6,,,,,,,,4,,,,74,92
155340,note_on,40,0,5,,,,,,,,3,,,,77,92
155340,note_on,40,0,11,,,,,,,,10,,,,74,75
155340,note_on,40,0,10,,,,,,,,8,,,,77,75
155420,note_off,80,0,6,,,,,,,,4,,,,74,64
155420,note_off,80,0,10,,,,,,,,8,,,,77,64
155420,note_off,80,0,11,,,,,,,,10,,,,74,64
155420,note_off,80,0,5,,,,,,,,3,,,,77,64
155455,note_off,235,0,15,,,,,,,,14,,,,36,64
155460,note_on,40,0,10,,,,,,,,8,,,,79,75
155460,note_on,40,0,5,,,,,,,,3,,,,79,92
155460,note_on,40,0,6,,,,,,,,4,,,,76,92
155460,note_on,40,0,11,,,,,,,,10,,,,76,75
155540,note_off,80,0,11,,,,,,,,10,,,,76,64
155540,note_off,80,0,10,,,,,,,,8,,,,79,64
155540,note_off,80,0,6,,,,,,,,4,,,,76,64
155540,note_off,80,0,5,,,,,,,,3,,,,79,64
155700,note_on,160,0,10,,,,,,,,8,,,,79,75
155700,note_on,400,0,14,,,,,,,,13,,,,48,75
155700,note_on,400,0,7,,,,,,,,5,,,,64,92
155700,note_on,400,0,9,,,,,,,,7,,,,48,92
155700,note_on,400,0,13,,,,,,,,12,,,,60,75
155700,note_on,160,0,5,,,,,,,,3,,,,79,92
155700,note_on,400,0,12,,,,,,,,11,,,,64,75
155700,note_on,160,0,11,,,,,,,,10,,,,76,75
155700,note_on,160,0,6,,,,,,,,4,,,,76,92
155700,note_on,400,0,8,,,,,,,,6,,,,60,92
155780,note_off,80,0,14,,,,,,,,13,,,,48,64
155780,note_off,80,0,13,,,,,,,,12,,,,60,64
155780,note_off,80,0,12,,,,,,,,11,,,,64,64
155780,note_off,80,0,8,,,,,,,,6,,,,60,64
155780,note_off,80,0,7,,,,,,,,5,,,,64,64
155780,note_off,80,0,9,,,,,,,,7,,,,48,64
155820,note_on,40,0,8,,,,,,,,6,,,,58,92
155820,note_on,40,0,14,,,,,,,,13,,,,46,75
155820,note_on,40,0,7,,,,,,,,5,,,,62,92
155820,note_on,40,0,13,,,,,,,,12,,,,58,75
155820,note_on,40,0,12,,,,,,,,11,,,,62,75
155820,note_on,40,0,9,,,,,,,,7,,,,46,92
155900,note_off,80,0,9,,,,,,,,7,,,,46,64
155900,note_off,80,0,13,,,,,,,,12,,,,58,64
155900,note_off,80,0,14,,,,,,,,13,,,,46,64
155900,note_off,80,0,8,,,,,,,,6,,,,58,64
155900,note_off,80,0,12,,,,,,,,11,,,,62,64
155900,note_off,80,0,7,,,,,,,,5,,,,62,64
155940,note_on,40,0,7,,,,,,,,5,,,,64,92
155940,note_on,40,0,9,,,,,,,,7,,,,48,92
155940,note_on,40,0,13,,,,,,,,12,,,,60,75
155940,note_on,40,0,8,,,,,,,,6,,,,60,92
155940,note_on,40,0,14,,,,,,,,13,,,,48,75
155940,note_on,40,0,12,,,,,,,,11,,,,64,75
156020,note_off,80,0,7,,,,,,,,5,,,,64,64
156020,note_off,80,0,8,,,,,,,,6,,,,60,64
156020,note_off,80,0,12,,,,,,,,11,,,,64,64
156020,note_off,80,0,14,,,,,,,,13,,,,48,64
156020,note_off,80,0,13,,,,,,,,12,,,,60,64
156020,note_off,80,0,9,,,,,,,,7,,,,48,64
156100,note_off,400,0,11,,,,,,,,10,,,,76,64
156100,note_off,400,0,6,,,,,,,,4,,,,76,64
156100,note_off,400,0,10,,,,,,,,8,,,,79,64
156100,note_off,400,0,5,,,,,,,,3,,,,79,64
156180,note_on,160,0,9,,,,,,,,7,,,,36,92
156180,note_on,160,0,7,,,,,,,,5,,,,64,92
156180,note_on,160,0,8,,,,,,,,6,,,,48,92
156180,note_on,80,0,6,,,,,,,,4,,,,74,92
156180,note_on,160,0,12,,,,,,,,11,,,,64,75
156180,note_on,80,0,11,,,,,,,,10,,,,74,75
156180,note_on,160,0,13,,,,,,,,12,,,,48,75
156180,note_on,80,0,5,,,,,,,,3,,,,77,92
156180,note_on,80,0,10,,,,,,,,8,,,,77,75
156180,note_on,160,0,14,,,,,,,,13,,,,36,75
156260,note_off,80,0,7,,,,,,,,5,,,,64,64
156260,note_off,80,0,13,,,,,,,,12,,,,48,64
156260,note_off,80,0,5,,,,,,,,3,,,,77,64
156260,note_off,80,0,9,,,,,,,,7,,,,36,64
156260,note_off,80,0,6,,,,,,,,4,,,,74,64
156260,note_off,80,0,10,,,,,,,,8,,,,77,64
156260,note_off,80,0,8,,,,,,,,6,,,,48,64
156260,note_off,80,0,11,,,,,,,,10,,,,74,64
156260,note_off,80,0,12,,,,,,,,11,,,,64,64
156260,note_off,80,0,14,,,,,,,,13,,,,36,64
156300,note_on,40,0,5,,,,,,,,3,,,,76,92
156300,note_on,40,0,6,,,,,,,,4,,,,72,92
156300,note_on,40,0,10,,,,,,,,8,,,,76,75
156300,note_on,40,0,11,,,,,,,,10,,,,72,75
156380,note_off,80,0,6,,,,,,,,4,,,,72,64
156380,note_off,80,0,5,,,,,,,,3,,,,76,64
156380,note_off,80,0,10,,,,,,,,8,,,,76,64
156380,note_off,80,0,11,,,,,,,,10,,,,72,64
156420,note_on,40,0,11,,,,,,,,10,,,,77,75
156420,note_on,40,0,5,,,,,,,,3,,,,81,92
156420,note_on,40,0,10,,,,,,,,8,,,,81,75
156420,note_on,40,0,6,,,,,,,,4,,,,77,92
156500,note_off,80,0,11,,,,,,,,10,,,,77,64
156500,note_off,80,0,10,,,,,,,,8,,,,81,64
156500,note_off,80,0,6,,,,,,,,4,,,,77,64
156500,note_off,80,0,5,,,,,,,,3,,,,81,64
156660,note_on,400,0,12,,,,,,,,11,,,,64,75
156660,note_on,160,0,11,,,,,,,,10,,,,76,75
156660,note_on,400,0,14,,,,,,,,13,,,,48,75
156660,note_on,160,0,10,,,,,,,,8,,,,79,75
156660,note_on,400,0,9,,,,,,,,7,,,,48,92
156660,note_on,400,0,7,,,,,,,,5,,,,64,92
156660,note_on,160,0,6,,,,,,,,4,,,,76,92
156660,note_on,160,0,5,,,,,,,,3,,,,79,92
156660,note_on,400,0,13,,,,,,,,12,,,,60,75
156660,note_on,400,0,8,,,,,,,,6,,,,60,92
156740,note_off,80,0,9,,,,,,,,7,,,,48,64
156740,note_off,80,0,7,,,,,,,,5,,,,64,64
156740,note_off,80,0,12,,,,,,,,11,,,,64,64
156740,note_off,80,0,13,,,,,,,,12,,,,60,64
156740,note_off,80,0,14,,,,,,,,13,,,,48,64
156740,note_off,80,0,8,,,,,,,,6,,,,60,64
156780,note_on,40,0,13,,,,,,,,12,,,,58,72
156780,note_on,40,0,14,,,,,,,,13,,,,46,72
156780,note_on,40,0,8,,,,,,,,6,,,,58,89
156780,note_on,40,0,9,,,,,,,,7,,,,46,89
156780,note_on,40,0,7,,,,,,,,5,,,,62,90
156780,note_on,40,0,12,,,,,,,,11,,,,62,73
156860,note_off,80,0,12,,,,,,,,11,,,,62,64
156860,note_off,80,0,7,,,,,,,,5,,,,62,64
156860,note_off,80,0,13,,,,,,,,12,,,,58,64
156860,note_off,80,0,8,,,,,,,,6,,,,58,64
156860,note_off,80,0,14,,,,,,,,13,,,,46,64
156860,note_off,80,0,9,,,,,,,,7,,,,46,64
156900,note_on,40,0,7,,,,,,,,5,,,,64,87
156900,note_on,40,0,12,,,,,,,,11,,,,64,71
156900,note_on,40,0,14,,,,,,,,13,,,,48,69
156900,note_on,40,0,13,,,,,,,,12,,,,60,69
156900,note_on,40,0,8,,,,,,,,6,,,,60,86
156900,note_on,40,0,9,,,,,,,,7,,,,48,86
156980,note_off,80,0,13,,,,,,,,12,,,,60,64
156980,note_off,80,0,12,,,,,,,,11,,,,64,64
156980,note_off,80,0,9,,,,,,,,7,,,,48,64
156980,note_off,80,0,8,,,,,,,,6,,,,60,64
156980,note_off,80,0,14,,,,,,,,13,,,,48,64
156980,note_off,80,0,7,,,,,,,,5,,,,64,64
157060,note_off,400,0,6,,,,,,,,4,,,,76,64
157060,note_off,400,0,11,,,,,,,,10,,,,76,64
157060,note_off,400,0,10,,,,,,,,8,,,,79,64
157060,note_off,400,0,5,,,,,,,,3,,,,79,64
157140,note_on,80,0,5,,,,,,,,3,,,,77,77
157140,note_on,80,0,10,,,,,,,,8,,,,77,60
157140,note_on,80,0,11,,,,,,,,10,,,,74,60
157140,note_on,160,0,14,,,,,,,,13,,,,36,63
157140,note_on,160,0,13,,,,,,,,12,,,,48,63
157140,note_on,80,0,6,,,,,,,,4,,,,74,77
157140,note_on,160,0,12,,,,,,,,11,,,,64,66
157140,note_on,160,0,9,,,,,,,,7,,,,36,80
157140,note_on,160,0,7,,,,,,,,5,,,,64,81
157140,note_on,160,0,8,,,,,,,,6,,,,48,80
157220,note_off,80,0,6,,,,,,,,4,,,,74,64
157220,note_off,80,0,5,,,,,,,,3,,,,77,64
157220,note_off,80,0,8,,,,,,,,6,,,,48,64
157220,note_off,80,0,11,,,,,,,,10,,,,74,64
157220,note_off,80,0,13,,,,,,,,12,,,,48,64
157220,note_off,80,0,12,,,,,,,,11,,,,64,64
157220,note_off,80,0,7,,,,,,,,5,,,,64,64
157220,note_off,80,0,10,,,,,,,,8,,,,77,64
157220,note_off,80,0,14,,,,,,,,13,,,,36,64
157220,note_off,80,0,9,,,,,,,,7,,,,36,64
157260,note_on,40,0,6,,,,,,,,4,,,,72,73
157260,note_on,40,0,5,,,,,,,,3,,,,76,73
157260,note_on,40,0,11,,,,,,,,10,,,,72,57
157260,note_on,40,0,10,,,,,,,,8,,,,76,57
157340,note_off,80,0,5,,,,,,,,3,,,,76,64
157340,note_off,80,0,11,,,,,,,,10,,,,72,64
157340,note_off,80,0,6,,,,,,,,4,,,,72,64
157340,note_off,80,0,10,,,,,,,,8,,,,76,64
157380,note_on,40,0,10,,,,,,,,8,,,,81,54
157380,note_on,40,0,6,,,,,,,,4,,,,77,69
157380,note_on,40,0,11,,,,,,,,10,,,,77,54
157380,note_on,40,0,5,,,,,,,,3,,,,81,69
157460,note_off,80,0,10,,,,,,,,8,,,,81,64
157460,note_off,80,0,5,,,,,,,,3,,,,81,64
157460,note_off,80,0,6,,,,,,,,4,,,,77,64
157460,note_off,80,0,11,,,,,,,,10,,,,77,64
157620,note_on,400,0,13,,,,,,,,12,,,,60,51
157620,note_on,400,0,12,,,,,,,,11,,,,64,54
157620,note_on,160,0,6,,,,,,,,4,,,,76,61
157620,note_on,160,0,5,,,,,,,,3,,,,79,61
157620,note_on,400,0,8,,,,,,,,6,,,,60,66
157620,note_on,160,0,11,,,,,,,,10,,,,76,46
157620,note_on,160,0,10,,,,,,,,8,,,,79,46
157620,note_on,400,0,9,,,,,,,,7,,,,48,66
157620,note_on,400,0,7,,,,,,,,5,,,,64,69
157620,note_on,400,0,14,,,,,,,,13,,,,48,51
157700,note_off,80,0,13,,,,,,,,12,,,,60,64
157700,note_off,80,0,8,,,,,,,,6,,,,60,64
157700,note_off,80,0,7,,,,,,,,5,,,,64,64
157700,note_off,80,0,12,,,,,,,,11,,,,64,64
157700,note_off,80,0,9,,,,,,,,7,,,,48,64
157700,note_off,80,0,14,,,,,,,,13,,,,48,64
157740,note_on,40,0,13,,,,,,,,12,,,,58,48
157740,note_on,40,0,9,,,,,,,,7,,,,46,63
157740,note_on,40,0,12,,,,,,,,11,,,,62,51
157740,note_on,40,0,7,,,,,,,,5,,,,62,66
157740,note_on,40,0,14,,,,,,,,13,,,,46,48
157740,note_on,40,0,8,,,,,,,,6,,,,58,63
157820,note_off,80,0,12,,,,,,,,11,,,,62,64
157820,note_off,80,0,8,,,,,,,,6,,,,58,64
157820,note_off,80,0,14,,,,,,,,13,,,,46,64
157820,note_off,80,0,7,,,,,,,,5,,,,62,64
157820,note_off,80,0,13,,,,,,,,12,,,,58,64
157820,note_off,80,0,9,,,,,,,,7,,,,46,64
157860,note_on,40,0,13,,,,,,,,12,,,,60,45
157860,note_on,40,0,14,,,,,,,,13,,,,48,45
157860,note_on,40,0,12,,,,,,,,11,,,,64,48
157860,note_on,40,0,8,,,,,,,,6,,,,60,60
157860,note_on,40,0,9,,,,,,,,7,,,,48,60
157860,note_on,40,0,7,,,,,,,,5,,,,64,63
157940,note_off,80,0,8,,,,,,,,6,,,,60,64
157940,note_off,80,0,9,,,,,,,,7,,,,48,64
157940,note_off,80,0,12,,,,,,,,11,,,,64,64
157940,note_off,80,0,7,,,,,,,,5,,,,64,64
157940,note_off,80,0,13,,,,,,,,12,,,,60,64
157940,note_off,80,0,14,,,,,,,,13,,,,48,64
158020,note_off,400,0,6,,,,,,,,4,,,,76,64
158020,note_off,400,0,10,,,,,,,,8,,,,79,64
158020,note_off,400,0,5,,,,,,,,3,,,,79,64
158020,note_off,400,0,11,,,,,,,,10,,,,76,64
158100,note_on,80,0,6,,,,,,,,4,,,,65,45
158100,note_on,160,0,9,,,,,,,,7,,,,36,53
158100,note_on,160,0,12,,,,,,,,11,,,,64,42
158100,note_on,80,0,10,,,,,,,,8,,,,69,30
158100,note_on,160,0,8,,,,,,,,6,,,,48,53
158100,note_on,160,0,14,,,,,,,,13,,,,36,38
158100,note_on,80,0,5,,,,,,,,3,,,,69,45
158100,note_on,160,0,13,,,,,,,,12,,,,48,38
158100,note_on,160,0,7,,,,,,,,5,,,,64,57
158100,note_on,80,0,11,,,,,,,,10,,,,65,30
158180,note_off,80,0,11,,,,,,,,10,,,,65,64
158180,note_off,80,0,7,,,,,,,,5,,,,64,64
158180,note_off,80,0,5,,,,,,,,3,,,,69,64
158180,note_off,80,0,9,,,,,,,,7,,,,36,64
158180,note_off,80,0,12,,,,,,,,11,,,,64,64
158180,note_off,80,0,8,,,,,,,,6,,,,48,64
158180,note_off,80,0,14,,,,,,,,13,,,,36,64
158180,note_off,80,0,13,,,,,,,,12,,,,48,64
158180,note_off,80,0,10,,,,,,,,8,,,,69,64
158180,note_off,80,0,6,,,,,,,,4,,,,65,64
158220,note_on,40,0,5,,,,,,,,3,,,,70,45
158220,note_on,40,0,10,,,,,,,,8,,,,70,30
158220,note_on,40,0,11,,,,,,,,10,,,,67,30
158220,note_on,40,0,6,,,,,,,,4,,,,67,45
158300,note_off,80,0,11,,,,,,,,10,,,,67,64
158300,note_off,80,0,5,,,,,,,,3,,,,70,64
158300,note_off,80,0,6,,,,,,,,4,,,,67,64
158300,note_off,80,0,10,,,,,,,,8,,,,70,64
158340,note_on,40,0,11,,,,,,,,10,,,,69,30
158340,note_on,40,0,5,,,,,,,,3,,,,72,45
158340,note_on,40,0,6,,,,,,,,4,,,,69,45
158340,note_on,40,0,10,,,,,,,,8,,,,72,30
158420,note_off,80,0,10,,,,,,,,8,,,,72,64
158420,note_off,80,0,5,,,,,,,,3,,,,72,64
158420,note_off,80,0,6,,,,,,,,4,,,,69,64
158420,note_off,80,0,11,,,,,,,,10,,,,69,64
158580,note_on,160,0,6,,,,,,,,4,,,,69,45
158580,note_on,400,0,12,,,,,,,,11,,,,57,30
158580,note_on,160,0,5,,,,,,,,3,,,,72,45
158580,note_on,400,0,7,,,,,,,,5,,,,57,45
158580,note_on,400,0,14,,,,,,,,13,,,,41,30
158580,note_on,400,0,13,,,,,,,,12,,,,53,30
158580,note_on,400,0,9,,,,,,,,7,,,,41,45
158580,note_on,160,0,11,,,,,,,,10,,,,69,30
158580,note_on,400,0,8,,,,,,,,6,,,,53,45
158580,note_on,160,0,10,,,,,,,,8,,,,72,30
158660,note_off,80,0,12,,,,,,,,11,,,,57,64
158660,note_off,80,0,14,,,,,,,,13,,,,41,64
158660,note_off,80,0,13,,,,,,,,12,,,,53,64
158660,note_off,80,0,8,,,,,,,,6,,,,53,64
158660,note_off,80,0,7,,,,,,,,5,,,,57,64
158660,note_off,80,0,9,,,,,,,,7,,,,41,64
158700,note_on,40,0,9,,,,,,,,7,,,,40,45
158700,note_on,40,0,14,,,,,,,,13,,,,40,30
158700,note_on,40,0,8,,,,,,,,6,,,,52,45
158700,note_on,40,0,13,,,,,,,,12,,,,52,30
158700,note_on,40,0,7,,,,,,,,5,,,,55,45
158700,note_on,40,0,12,,,,,,,,11,,,,55,30
158780,note_off,80,0,8,,,,,,,,6,,,,52,64
158780,note_off,80,0,13,,,,,,,,12,,,,52,64
158780,note_off,80,0,9,,,,,,,,7,,,,40,64
158780,note_off,80,0,7,,,,,,,,5,,,,55,64
158780,note_off,80,0,12,,,,,,,,11,,,,55,64
158780,note_off,80,0,14,,,,,,,,13,,,,40,64
158820,note_on,40,0,9,,,,,,,,7,,,,41,45
158820,note_on,40,0,13,,,,,,,,12,,,,53,30
158820,note_on,40,0,7,,,,,,,,5,,,,57,45
158820,note_on,40,0,14,,,,,,,,13,,,,41,30
158820,note_on,40,0,8,,,,,,,,6,,,,53,45
158820,note_on,40,0,12,,,,,,,,11,,,,57,30
158900,note_off,80,0,8,,,,,,,,6,,,,53,64
158900,note_off,80,0,14,,,,,,,,13,,,,41,64
158900,note_off,80,0,7,,,,,,,,5,,,,57,64
158900,note_off,80,0,13,,,,,,,,12,,,,53,64
158900,note_off,80,0,9,,,,,,,,7,,,,41,64
158900,note_off,80,0,12,,,,,,,,11,,,,57,64
158980,note_off,400,0,6,,,,,,,,4,,,,69,64
158980,note_off,400,0,5,,,,,,,,3,,,,72,64
158980,note_off,400,0,10,,,,,,,,8,,,,72,64
158980,note_off,400,0,11,,,,,,,,10,,,,69,64
159060,note_on,160,0,12,,,,,,,,11,,,,57,30
159060,note_on,160,0,7,,,,,,,,5,,,,57,45
159060,note_on,80,0,5,,,,,,,,3,,,,69,45
159060,note_on,160,0,9,,,,,,,,7,,,,29,45
159060,note_on,80,0,11,,,,,,,,10,,,,65,30
159060,note_on,80,0,10,,,,,,,,8,,,,69,30
159060,note_on,160,0,13,,,,,,,,12,,,,41,30
159060,note_on,160,0,14,,,,,,,,13,,,,29,30
159060,note_on,160,0,8,,,,,,,,6,,,,41,45
159060,note_on,80,0,6,,,,,,,,4,,,,65,45
159140,note_off,80,0,5,,,,,,,,3,,,,69,64
159140,note_off,80,0,9,,,,,,,,7,,,,29,64
159140,note_off,80,0,6,,,,,,,,4,,,,65,64
159140,note_off,80,0,8,,,,,,,,6,,,,41,64
159140,note_off,80,0,7,,,,,,,,5,,,,57,64
159140,note_off,80,0,13,,,,,,,,12,,,,41,64
159140,note_off,80,0,11,,,,,,,,10,,,,65,64
159140,note_off,80,0,14,,,,,,,,13,,,,29,64
159140,note_off,80,0,12,,,,,,,,11,,,,57,64
159140,note_off,80,0,10,,,,,,,,8,,,,69,64
159180,note_on,40,0,10,,,,,,,,8,,,,70,30
159180,note_on,40,0,5,,,,,,,,3,,,,70,45
159180,note_on,40,0,6,,,,,,,,4,,,,67,45
159180,note_on,40,0,11,,,,,,,,10,,,,67,30
159260,note_off,80,0,10,,,,,,,,8,,,,70,64
159260,note_off,80,0,11,,,,,,,,10,,,,67,64
159260,note_off,80,0,5,,,,,,,,3,,,,70,64
159260,note_off,80,0,6,,,,,,,,4,,,,67,64
159300,note_on,40,0,6,,,,,,,,4,,,,69,45
159300,note_on,40,0,5,,,,,,,,3,,,,72,45
159300,note_on,40,0,11,,,,,,,,10,,,,69,30
159300,note_on,40,0,10,,,,,,,,8,,,,72,30
159380,note_off,80,0,5,,,,,,,,3,,,,72,64
159380,note_off,80,0,6,,,,,,,,4,,,,69,64
159380,note_off,80,0,11,,,,,,,,10,,,,69,64
159380,note_off,80,0,10,,,,,,,,8,,,,72,64
159540,note_on,400,0,9,,,,,,,,7,,,,41,45
159540,note_on,400,0,12,,,,,,,,11,,,,57,30
159540,note_on,160,0,10,,,,,,,,8,,,,72,30
159540,note_on,160,0,5,,,,,,,,3,,,,72,45
159540,note_on,400,0,13,,,,,,,,12,,,,53,30
159540,note_on,400,0,8,,,,,,,,6,,,,53,45
159540,note_on,160,0,6,,,,,,,,4,,,,69,45
159540,note_on,400,0,14,,,,,,,,13,,,,41,30
159540,note_on,160,0,11,,,,,,,,10,,,,69,30
159540,note_on,400,0,7,,,,,,,,5,,,,57,45
159620,note_off,80,0,7,,,,,,,,5,,,,57,64
159620,note_off,80,0,14,,,,,,,,13,,,,41,64
159620,note_off,80,0,12,,,,,,,,11,,,,57,64
159620,note_off,80,0,8,,,,,,,,6,,,,53,64
159620,note_off,80,0,9,,,,,,,,7,,,,41,64
159620,note_off,80,0,13,,,,,,,,12,,,,53,64
159660,note_on,40,0,7,,,,,,,,5,,,,55,45
159660,note_on,40,0,8,,,,,,,,6,,,,52,45
159660,note_on,40,0,13,,,,,,,,12,,,,52,30
159660,note_on,40,0,14,,,,,,,,13,,,,40,30
159660,note_on,40,0,12,,,,,,,,11,,,,55,30
159660,note_on,40,0,9,,,,,,,,7,,,,40,45
159740,note_off,80,0,14,,,,,,,,13,,,,40,64
159740,note_off,80,0,7,,,,,,,,5,,,,55,64
159740,note_off,80,0,12,,,,,,,,11,,,,55,64
159740,note_off,80,0,8,,,,,,,,6,,,,52,64
159740,note_off,80,0,9,,,,,,,,7,,,,40,64
159740,note_off,80,0,13,,,,,,,,12,,,,52,64
159780,note_on,40,0,14,,,,,,,,13,,,,41,30
159780,note_on,40,0,8,,,,,,,,6,,,,53,45
159780,note_on,40,0,13,,,,,,,,12,,,,53,30
159780,note_on,40,0,9,,,,,,,,7,,,,41,45
159780,note_on,40,0,12,,,,,,,,11,,,,57,30
159780,note_on,40,0,7,,,,,,,,5,,,,57,45
159860,note_off,80,0,8,,,,,,,,6,,,,53,64
159860,note_off,80,0,14,,,,,,,,13,,,,41,64
159860,note_off,80,0,7,,,,,,,,5,,,,57,64
159860,note_off,80,0,12,,,,,,,,11,,,,57,64
159860,note_off,80,0,13,,,,,,,,12,,,,53,64
159860,note_off,80,0,9,,,,,,,,7,,,,41,64
159940,note_off,400,0,11,,,,,,,,10,,,,69,64
159940,note_off,400,0,6,,,,,,,,4,,,,69,64
159940,note_off,400,0,10,,,,,,,,8,,,,72,64
159940,note_off,400,0,5,,,,,,,,3,,,,72,64
160020,note_on,80,0,5,,,,,,,,3,,,,70,45
160020,note_on,80,0,6,,,,,,,,4,,,,67,45
160020,note_on,160,0,12,,,,,,,,11,,,,57,30
160020,note_on,80,0,10,,,,,,,,8,,,,70,30
160020,note_on,80,0,11,,,,,,,,10,,,,67,30
160020,note_on,160,0,13,,,,,,,,12,,,,41,30
160020,note_on,160,0,9,,,,,,,,7,,,,29,45
160020,note_on,160,0,14,,,,,,,,13,,,,29,30
160020,note_on,160,0,7,,,,,,,,5,,,,57,45
160020,note_on,160,0,8,,,,,,,,6,,,,41,45
160100,note_off,80,0,14,,,,,,,,13,,,,29,64
160100,note_off,80,0,11,,,,,,,,10,,,,67,64
160100,note_off,80,0,13,,,,,,,,12,,,,41,64
160100,note_off,80,0,10,,,,,,,,8,,,,70,64
160100,note_off,80,0,5,,,,,,,,3,,,,70,64
160100,note_off,80,0,8,,,,,,,,6,,,,41,64
160100,note_off,80,0,6,,,,,,,,4,,,,67,64
160100,note_off,80,0,12,,,,,,,,11,,,,57,64
160100,note_off,80,0,7,,,,,,,,5,,,,57,64
160100,note_off,80,0,9,,,,,,,,7,,,,29,64
160140,note_on,40,0,5,,,,,,,,3,,,,69,45
160140,note_on,40,0,6,,,,,,,,4,,,,65,45
160140,note_on,40,0,10,,,,,,,,8,,,,69,30
160140,note_on,40,0,11,,,,,,,,10,,,,65,30
160220,note_off,80,0,10,,,,,,,,8,,,,69,64
160220,note_off,80,0,5,,,,,,,,3,,,,69,64
160220,note_off,80,0,6,,,,,,,,4,,,,65,64
160220,note_off,80,0,11,,,,,,,,10,,,,65,64
160260,note_on,40,0,11,,,,,,,,10,,,,70,30
160260,note_on,40,0,6,,,,,,,,4,,,,70,45
160260,note_on,40,0,5,,,,,,,,3,,,,74,45
160260,note_on,40,0,10,,,,,,,,8,,,,74,30
160340,note_off,80,0,6,,,,,,,,4,,,,70,64
160340,note_off,80,0,10,,,,,,,,8,,,,74,64
160340,note_off,80,0,5,,,,,,,,3,,,,74,64
160340,note_off,80,0,11,,,,,,,,10,,,,70,64
160500,note_on,160,0,10,,,,,,,,8,,,,72,30
160500,note_on,400,0,8,,,,,,,,6,,,,53,45
160500,note_on,400,0,13,,,,,,,,12,,,,53,30
160500,note_on,160,0,6,,,,,,,,4,,,,69,45
160500,note_on,400,0,9,,,,,,,,7,,,,41,45
160500,note_on,160,0,5,,,,,,,,3,,,,72,45
160500,note_on,400,0,14,,,,,,,,13,,,,41,30
160500,note_on,400,0,7,,,,,,,,5,,,,57,45
160500,note_on,160,0,11,,,,,,,,10,,,,69,30
160500,note_on,400,0,12,,,,,,,,11,,,,57,30
160580,note_off,80,0,7,,,,,,,,5,,,,57,64
160580,note_off,80,0,8,,,,,,,,6,,,,53,64
160580,note_off,80,0,14,,,,,,,,13,,,,41,64
160580,note_off,80,0,13,,,,,,,,12,,,,53,64
160580,note_off,80,0,9,,,,,,,,7,,,,41,64
160580,note_off,80,0,12,,,,,,,,11,,,,57,64
160620,note_on,40,0,8,,,,,,,,6,,,,52,45
160620,note_on,40,0,13,,,,,,,,12,,,,52,30
160620,note_on,40,0,14,,,,,,,,13,,,,40,30
160620,note_on,40,0,7,,,,,,,,5,,,,55,45
160620,note_on,40,0,9,,,,,,,,7,,,,40,45
160620,note_on,40,0,12,,,,,,,,11,,,,55,30
160700,note_off,80,0,12,,,,,,,,11,,,,55,64
160700,note_off,80,0,7,,,,,,,,5,,,,55,64
160700,note_off,80,0,13,,,,,,,,12,,,,52,64
160700,note_off,80,0,9,,,,,,,,7,,,,40,64
160700,note_off,80,0,14,,,,,,,,13,,,,40,64
160700,note_off,80,0,8,,,,,,,,6,,,,52,64
160740,note_on,40,0,8,,,,,,,,6,,,,53,45
160740,note_on,40,0,7,,,,,,,,5,,,,57,45
160740,note_on,40,0,12,,,,,,,,11,,,,57,30
160740,note_on,40,0,14,,,,,,,,13,,,,41,30
160740,note_on,40,0,13,,,,,,,,12,,,,53,30
160740,note_on,40,0,9,,,,,,,,7,,,,41,45
160820,note_off,80,0,9,,,,,,,,7,,,,41,64
160820,note_off,80,0,7,,,,,,,,5,,,,57,64
160820,note_off,80,0,8,,,,,,,,6,,,,53,64
160820,note_off,80,0,12,,,,,,,,11,,,,57,64
160820,note_off,80,0,13,,,,,,,,12,,,,53,64
160820,note_off,80,0,14,,,,,,,,13,,,,41,64
160900,note_off,400,0,6,,,,,,,,4,,,,69,64
160900,note_off,400,0,10,,,,,,,,8,,,,72,64
160900,note_off,400,0,5,,,,,,,,3,,,,72,64
160900,note_off,400,0,11,,,,,,,,10,,,,69,64
160980,note_on,80,0,6,,,,,,,,4,,,,67,45
160980,note_on,160,0,9,,,,,,,,7,,,,29,45
160980,note_on,160,0,7,,,,,,,,5,,,,57,45
160980,note_on,160,0,8,,,,,,,,6,,,,41,45
160980,note_on,160,0,14,,,,,,,,13,,,,29,30
160980,note_on,160,0,12,,,,,,,,11,,,,57,30
160980,note_on,80,0,10,,,,,,,,8,,,,70,30
160980,note_on,80,0,11,,,,,,,,10,,,,67,30
160980,note_on,160,0,13,,,,,,,,12,,,,41,30
160980,note_on,80,0,5,,,,,,,,3,,,,70,45
161060,note_off,80,0,5,,,,,,,,3,,,,70,64
161060,note_off,80,0,7,,,,,,,,5,,,,57,64
161060,note_off,80,0,12,,,,,,,,11,,,,57,64
161060,note_off,80,0,11,,,,,,,,10,,,,67,64
161060,note_off,80,0,8,,,,,,,,6,,,,41,64
161060,note_off,80,0,13,,,,,,,,12,,,,41,64
161060,note_off,80,0,9,,,,,,,,7,,,,29,64
161060,note_off,80,0,10,,,,,,,,8,,,,70,64
161060,note_off,80,0,6,,,,,,,,4,,,,67,64
161060,note_off,80,0,14,,,,,,,,13,,,,29,64
161100,note_on,40,0,11,,,,,,,,10,,,,65,30
161100,note_on,40,0,5,,,,,,,,3,,,,69,45
161100,note_on,40,0,6,,,,,,,,4,,,,65,45
161100,note_on,40,0,10,,,,,,,,8,,,,69,30
161180,note_off,80,0,10,,,,,,,,8,,,,69,64
161180,note_off,80,0,6,,,,,,,,4,,,,65,64
161180,note_off,80,0,11,,,,,,,,10,,,,65,64
161180,note_off,80,0,5,,,,,,,,3,,,,69,64
161220,note_on,40,0,5,,,,,,,,3,,,,74,45
161220,note_on,40,0,11,,,,,,,,10,,,,70,30
161220,note_on,40,0,6,,,,,,,,4,,,,70,45
161220,note_on,40,0,10,,,,,,,,8,,,,74,30
161300,note_off,80,0,11,,,,,,,,10,,,,70,64
161300,note_off,80,0,5,,,,,,,,3,,,,74,64
161300,note_off,80,0,6,,,,,,,,4,,,,70,64
161300,note_off,80,0,10,,,,,,,,8,,,,74,64
161460,note_on,400,0,12,,,,,,,,11,,,,57,31
161460,note_on,400,0,7,,,,,,,,5,,,,57,46
161460,note_on,160,0,6,,,,,,,,4,,,,69,46
161460,note_on,160,0,5,,,,,,,,3,,,,72,46
161460,note_on,400,0,9,,,,,,,,7,,,,41,46
161460,note_on,160,0,10,,,,,,,,8,,,,72,31
161460,note_on,400,0,14,,,,,,,,13,,,,41,31
161460,note_on,400,0,8,,,,,,,,6,,,,53,46
161460,note_on,160,0,11,,,,,,,,10,,,,69,31
161460,note_on,400,0,13,,,,,,,,12,,,,53,31
161540,note_off,80,0,8,,,,,,,,6,,,,53,64
161540,note_off,80,0,12,,,,,,,,11,,,,57,64
161540,note_off,80,0,7,,,,,,,,5,,,,57,64
161540,note_off,80,0,14,,,,,,,,13,,,,41,64
161540,note_off,80,0,13,,,,,,,,12,,,,53,64
161540,note_off,80,0,9,,,,,,,,7,,,,41,64
161580,note_on,40,0,9,,,,,,,,7,,,,40,47
161580,note_on,40,0,12,,,,,,,,11,,,,55,31
161580,note_on,40,0,7,,,,,,,,5,,,,55,47
161580,note_on,40,0,8,,,,,,,,6,,,,52,47
161580,note_on,40,0,13,,,,,,,,12,,,,52,31
161580,note_on,40,0,14,,,,,,,,13,,,,40,31
161660,note_off,80,0,12,,,,,,,,11,,,,55,64
161660,note_off,80,0,7,,,,,,,,5,,,,55,64
161660,note_off,80,0,9,,,,,,,,7,,,,40,64
161660,note_off,80,0,13,,,,,,,,12,,,,52,64
161660,note_off,80,0,14,,,,,,,,13,,,,40,64
161660,note_off,80,0,8,,,,,,,,6,,,,52,64
161700,note_on,40,0,12,,,,,,,,11,,,,57,31
161700,note_on,40,0,13,,,,,,,,12,,,,53,31
161700,note_on,40,0,8,,,,,,,,6,,,,53,48
161700,note_on,40,0,14,,,,,,,,13,,,,41,31
161700,note_on,40,0,7,,,,,,,,5,,,,57,48
161700,note_on,40,0,9,,,,,,,,7,,,,41,48
161780,note_off,80,0,12,,,,,,,,11,,,,57,64
161780,note_off,80,0,13,,,,,,,,12,,,,53,64
161780,note_off,80,0,9,,,,,,,,7,,,,41,64
161780,note_off,80,0,7,,,,,,,,5,,,,57,64
161780,note_off,80,0,14,,,,,,,,13,,,,41,64
161780,note_off,80,0,8,,,,,,,,6,,,,53,64
161860,note_off,400,0,10,,,,,,,,8,,,,72,64
161860,note_off,400,0,11,,,,,,,,10,,,,69,64
161860,note_off,400,0,6,,,,,,,,4,,,,69,64
161860,note_off,400,0,5,,,,,,,,3,,,,72,64
161940,note_on,160,0,9,,,,,,,,7,,,,29,50
161940,note_on,160,0,12,,,,,,,,11,,,,57,33
161940,note_on,80,0,10,,,,,,,,8,,,,72,34
161940,note_on,80,0,5,,,,,,,,3,,,,72,50
161940,note_on,160,0,8,,,,,,,,6,,,,41,50
161940,note_on,160,0,14,,,,,,,,13,,,,29,33
161940,note_on,160,0,7,,,,,,,,5,,,,57,50
161940,note_on,80,0,11,,,,,,,,10,,,,69,34
161940,note_on,80,0,6,,,,,,,,4,,,,69,50
161940,note_on,160,0,13,,,,,,,,12,,,,41,33
162020,note_off,80,0,11,,,,,,,,10,,,,69,64
162020,note_off,80,0,7,,,,,,,,5,,,,57,64
162020,note_off,80,0,6,,,,,,,,4,,,,69,64
162020,note_off,80,0,13,,,,,,,,12,,,,41,64
162020,note_off,80,0,12,,,,,,,,11,,,,57,64
162020,note_off,80,0,14,,,,,,,,13,,,,29,64
162020,note_off,80,0,9,,,,,,,,7,,,,29,64
162020,note_off,80,0,5,,,,,,,,3,,,,72,64
162020,note_off,80,0,8,,,,,,,,6,,,,41,64
162020,note_off,80,0,10,,,,,,,,8,,,,72,64
162060,note_on,40,0,10,,,,,,,,8,,,,74,34
162060,note_on,40,0,11,,,,,,,,10,,,,70,34
162060,note_on,40,0,5,,,,,,,,3,,,,74,51
162060,note_on,40,0,6,,,,,,,,4,,,,70,51
162140,note_off,80,0,11,,,,,,,,10,,,,70,64
162140,note_off,80,0,10,,,,,,,,8,,,,74,64
162140,note_off,80,0,5,,,,,,,,3,,,,74,64
162140,note_off,80,0,6,,,,,,,,4,,,,70,64
162180,note_on,40,0,6,,,,,,,,4,,,,72,51
162180,note_on,40,0,10,,,,,,,,8,,,,75,34
162180,note_on,40,0,5,,,,,,,,3,,,,75,51
162180,note_on,40,0,11,,,,,,,,10,,,,72,34
162260,note_off,80,0,11,,,,,,,,10,,,,72,64
162260,note_off,80,0,5,,,,,,,,3,,,,75,64
162260,note_off,80,0,10,,,,,,,,8,,,,75,64
162260,note_off,80,0,6,,,,,,,,4,,,,72,64
162420,note_on,400,0,13,,,,,,,,12,,,,53,37
162420,note_on,400,0,12,,,,,,,,11,,,,69,37
162420,note_on,400,0,14,,,,,,,,13,,,,41,37
162420,note_on,160,0,6,,,,,,,,4,,,,72,53
162420,note_on,400,0,9,,,,,,,,7,,,,41,54
162420,note_on,160,0,11,,,,,,,,10,,,,72,36
162420,note_on,160,0,10,,,,,,,,8,,,,75,36
162420,note_on,160,0,5,,,,,,,,3,,,,75,53
162420,note_on,400,0,8,,,,,,,,6,,,,53,54
162420,note_on,400,0,7,,,,,,,,5,,,,69,54
162500,note_off,80,0,8,,,,,,,,6,,,,53,64
162500,note_off,80,0,7,,,,,,,,5,,,,69,64
162500,note_off,80,0,12,,,,,,,,11,,,,69,64
162500,note_off,80,0,9,,,,,,,,7,,,,41,64
162500,note_off,80,0,14,,,,,,,,13,,,,41,64
162500,note_off,80,0,13,,,,,,,,12,,,,53,64
162540,note_on,40,0,13,,,,,,,,12,,,,52,38
162540,note_on,40,0,8,,,,,,,,6,,,,52,55
162540,note_on,40,0,14,,,,,,,,13,,,,40,38
162540,note_on,40,0,12,,,,,,,,11,,,,67,38
162540,note_on,40,0,7,,,,,,,,5,,,,67,55
162540,note_on,40,0,9,,,,,,,,7,,,,40,55
162620,note_off,80,0,14,,,,,,,,13,,,,40,64
162620,note_off,80,0,8,,,,,,,,6,,,,52,64
162620,note_off,80,0,9,,,,,,,,7,,,,40,64
162620,note_off,80,0,13,,,,,,,,12,,,,52,64
162620,note_off,80,0,7,,,,,,,,5,,,,67,64
162620,note_off,80,0,12,,,,,,,,11,,,,67,64
162660,note_on,40,0,9,,,,,,,,7,,,,41,56
162660,note_on,40,0,7,,,,,,,,5,,,,69,56
162660,note_on,40,0,8,,,,,,,,6,,,,53,56
162660,note_on,40,0,12,,,,,,,,11,,,,69,39
162660,note_on,40,0,14,,,,,,,,13,,,,41,39
162660,note_on,40,0,13,,,,,,,,12,,,,53,39
162740,note_off,80,0,9,,,,,,,,7,,,,41,64
162740,note_off,80,0,14,,,,,,,,13,,,,41,64
162740,note_off,80,0,8,,,,,,,,6,,,,53,64
162740,note_off,80,0,13,,,,,,,,12,,,,53,64
162820,note_off,400,0,5,,,,,,,,3,,,,75,64
162820,note_off,400,0,10,,,,,,,,8,,,,75,64
162820,note_off,400,0,11,,,,,,,,10,,,,72,64
162820,note_off,400,0,6,,,,,,,,4,,,,72,64
162900,note_on,80,0,11,,,,,,,,10,,,,70,40
162900,note_on,80,0,10,,,,,,,,8,,,,74,40
162900,note_on,160,0,13,,,,,,,,12,,,,41,41
162900,note_on,160,0,14,,,,,,,,13,,,,29,41
162900,note_on,160,0,9,,,,,,,,7,,,,29,58
162900,note_on,160,0,8,,,,,,,,6,,,,41,58
162900,note_on,80,0,5,,,,,,,,3,,,,74,57
162900,note_on,80,0,6,,,,,,,,4,,,,70,57
162980,note_off,80,0,14,,,,,,,,13,,,,29,64
162980,note_off,80,0,9,,,,,,,,7,,,,29,64
162980,note_off,80,0,13,,,,,,,,12,,,,41,64
162980,note_off,80,0,5,,,,,,,,3,,,,74,64
162980,note_off,80,0,10,,,,,,,,8,,,,74,64
162980,note_off,80,0,6,,,,,,,,4,,,,70,64
162980,note_off,80,0,8,,,,,,,,6,,,,41,64
162980,note_off,80,0,11,,,,,,,,10,,,,70,64
163020,note_on,40,0,6,,,,,,,,4,,,,69,58
163020,note_on,40,0,11,,,,,,,,10,,,,69,41
163020,note_on,40,0,10,,,,,,,,8,,,,72,41
163020,note_on,40,0,5,,,,,,,,3,,,,72,58
163060,note_off,400,0,12,,,,,,,,11,,,,69,64
163060,note_off,400,0,7,,,,,,,,5,,,,69,64
163100,note_off,80,0,11,,,,,,,,10,,,,69,64
163100,note_off,80,0,10,,,,,,,,8,,,,72,64
163100,note_off,80,0,6,,,,,,,,4,,,,69,64
163100,note_off,80,0,5,,,,,,,,3,,,,72,64
163140,note_on,40,0,10,,,,,,,,8,,,,74,42
163140,note_on,40,0,5,,,,,,,,3,,,,74,59
163140,note_on,40,0,11,,,,,,,,10,,,,70,42
163140,note_on,40,0,6,,,,,,,,4,,,,70,59
163220,note_off,80,0,11,,,,,,,,10,,,,70,64
163220,note_off,80,0,6,,,,,,,,4,,,,70,64
163220,note_off,80,0,5,,,,,,,,3,,,,74,64
163220,note_off,80,0,10,,,,,,,,8,,,,74,64
163380,note_on,400,0,9,,,,,,,,7,,,,46,62
163380,note_on,160,0,6,,,,,,,,4,,,,70,61
163380,note_on,160,0,5,,,,,,,,3,,,,74,61
163380,note_on,160,0,10,,,,,,,,8,,,,74,44
163380,note_on,160,0,11,,,,,,,,10,,,,70,44
163380,note_on,400,0,14,,,,,,,,13,,,,46,45
163380,note_on,320,0,12,,,,,,,,11,,,,65,45
163380,note_on,400,0,8,,,,,,,,6,,,,58,62
163380,note_on,320,0,7,,,,,,,,5,,,,65,62
163380,note_on,400,0,13,,,,,,,,12,,,,58,45
163460,note_off,80,0,8,,,,,,,,6,,,,58,64
163460,note_off,80,0,14,,,,,,,,13,,,,46,64
163460,note_off,80,0,12,,,,,,,,11,,,,65,64
163460,note_off,80,0,9,,,,,,,,7,,,,46,64
163460,note_off,80,0,7,,,,,,,,5,,,,65,64
163460,note_off,80,0,13,,,,,,,,12,,,,58,64
163500,note_on,40,0,13,,,,,,,,12,,,,57,46
163500,note_on,40,0,14,,,,,,,,13,,,,45,46
163500,note_on,40,0,8,,,,,,,,6,,,,57,63
163500,note_on,40,0,9,,,,,,,,7,,,,45,63
163580,note_off,80,0,13,,,,,,,,12,,,,57,64
163580,note_off,80,0,14,,,,,,,,13,,,,45,64
163580,note_off,80,0,9,,,,,,,,7,,,,45,64
163580,note_off,80,0,8,,,,,,,,6,,,,57,64
163620,note_on,40,0,13,,,,,,,,12,,,,58,46
163620,note_on,160,0,12,,,,,,,,11,,,,65,47
163620,note_on,40,0,14,,,,,,,,13,,,,46,46
163620,note_on,40,0,8,,,,,,,,6,,,,58,63
163620,note_on,40,0,9,,,,,,,,7,,,,46,63
163620,note_on,160,0,7,,,,,,,,5,,,,65,64
163700,note_off,80,0,13,,,,,,,,12,,,,58,64
163700,note_off,80,0,9,,,,,,,,7,,,,46,64
163700,note_off,80,0,8,,,,,,,,6,,,,58,64
163700,note_off,80,0,14,,,,,,,,13,,,,46,64
163780,note_off,400,0,6,,,,,,,,4,,,,70,64
163780,note_off,400,0,10,,,,,,,,8,,,,74,64
163780,note_off,400,0,5,,,,,,,,3,,,,74,64
163780,note_off,400,0,11,,,,,,,,10,,,,70,64
163860,note_on,160,0,8,,,,,,,,6,,,,46,65
163860,note_on,160,0,13,,,,,,,,12,,,,46,48
163860,note_on,80,0,10,,,,,,,,8,,,,74,48
163860,note_on,80,0,5,,,,,,,,3,,,,74,65
163860,note_on,80,0,6,,,,,,,,4,,,,70,65
163860,note_on,160,0,9,,,,,,,,7,,,,34,65
163860,note_on,160,0,14,,,,,,,,13,,,,34,48
163860,note_on,80,0,11,,,,,,,,10,,,,70,48
163940,note_off,80,0,6,,,,,,,,4,,,,70,64
163940,note_off,80,0,14,,,,,,,,13,,,,34,64
163940,note_off,80,0,13,,,,,,,,12,,,,46,64
163940,note_off,80,0,10,,,,,,,,8,,,,74,64
163940,note_off,80,0,5,,,,,,,,3,,,,74,64
163940,note_off,80,0,11,,,,,,,,10,,,,70,64
163940,note_off,80,0,9,,,,,,,,7,,,,34,64
163940,note_off,80,0,8,,,,,,,,6,,,,46,64
163980,note_on,40,0,10,,,,,,,,8,,,,76,49
163980,note_on,40,0,5,,,,,,,,3,,,,76,66
163980,note_on,40,0,11,,,,,,,,10,,,,72,49
163980,note_on,40,0,6,,,,,,,,4,,,,72,66
164020,note_off,400,0,7,,,,,,,,5,,,,65,64
164020,note_off,400,0,12,,,,,,,,11,,,,65,64
164060,note_off,80,0,5,,,,,,,,3,,,,76,64
164060,note_off,80,0,6,,,,,,,,4,,,,72,64
164060,note_off,80,0,11,,,,,,,,10,,,,72,64
164060,note_off,80,0,10,,,,,,,,8,,,,76,64
164100,note_on,40,0,10,,,,,,,,8,,,,77,50
164100,note_on,40,0,6,,,,,,,,4,,,,74,67
164100,note_on,40,0,11,,,,,,,,10,,,,74,50
164100,note_on,40,0,5,,,,,,,,3,,,,77,67
164180,note_off,80,0,11,,,,,,,,10,,,,74,64
164180,note_off,80,0,5,,,,,,,,3,,,,77,64
164180,note_off,80,0,6,,,,,,,,4,,,,74,64
164180,note_off,80,0,10,,,,,,,,8,,,,77,64
164340,note_on,400,0,13,,,,,,,,12,,,,55,52
164340,note_on,400,0,14,,,,,,,,13,,,,43,52
164340,note_on,400,0,8,,,,,,,,6,,,,55,69
164340,note_on,160,0,11,,,,,,,,10,,,,74,52
164340,note_on,160,0,5,,,,,,,,3,,,,77,69
164340,note_on,160,0,6,,,,,,,,4,,,,74,69
164340,note_on,320,0,7,,,,,,,,5,,,,71,70
164340,note_on,160,0,10,,,,,,,,8,,,,77,52
164340,note_on,400,0,9,,,,,,,,7,,,,43,69
164340,note_on,320,0,12,,,,,,,,11,,,,71,53
164420,note_off,80,0,9,,,,,,,,7,,,,43,64
164420,note_off,80,0,7,,,,,,,,5,,,,71,64
164420,note_off,80,0,12,,,,,,,,11,,,,71,64
164420,note_off,80,0,14,,,,,,,,13,,,,43,64
164420,note_off,80,0,8,,,,,,,,6,,,,55,64
164420,note_off,80,0,13,,,,,,,,12,,,,55,64
164460,note_on,40,0,14,,,,,,,,13,,,,41,53
164460,note_on,40,0,9,,,,,,,,7,,,,41,70
164460,note_on,40,0,13,,,,,,,,12,,,,53,53
164460,note_on,40,0,12,,,,,,,,11,,,,69,54
164460,note_on,40,0,8,,,,,,,,6,,,,53,70
164460,note_on,40,0,7,,,,,,,,5,,,,69,71
164540,note_off,80,0,14,,,,,,,,13,,,,41,64
164540,note_off,80,0,13,,,,,,,,12,,,,53,64
164540,note_off,80,0,9,,,,,,,,7,,,,41,64
164540,note_off,80,0,12,,,,,,,,11,,,,69,64
164540,note_off,80,0,8,,,,,,,,6,,,,53,64
164540,note_off,80,0,7,,,,,,,,5,,,,69,64
164580,note_on,40,0,14,,,,,,,,13,,,,43,54
164580,note_on,40,0,12,,,,,,,,11,,,,71,55
164580,note_on,40,0,7,,,,,,,,5,,,,71,72
164580,note_on,40,0,8,,,,,,,,6,,,,55,71
164580,note_on,40,0,13,,,,,,,,12,,,,55,54
164580,note_on,40,0,9,,,,,,,,7,,,,43,71
164660,note_off,80,0,13,,,,,,,,12,,,,55,64
164660,note_off,80,0,14,,,,,,,,13,,,,43,64
164660,note_off,80,0,8,,,,,,,,6,,,,55,64
164660,note_off,80,0,9,,,,,,,,7,,,,43,64
164740,note_off,400,0,6,,,,,,,,4,,,,74,64
164740,note_off,400,0,5,,,,,,,,3,,,,77,64
164740,note_off,400,0,10,,,,,,,,8,,,,77,64
164740,note_off,400,0,11,,,,,,,,10,,,,74,64
164820,note_on,80,0,6,,,,,,,,4,,,,72,73
164820,note_on,80,0,5,,,,,,,,3,,,,76,73
164820,note_on,160,0,13,,,,,,,,12,,,,43,56
164820,note_on,160,0,9,,,,,,,,7,,,,31,73
164820,note_on,160,0,8,,,,,,,,6,,,,43,73
164820,note_on,160,0,14,,,,,,,,13,,,,31,56
164820,note_on,80,0,10,,,,,,,,8,,,,76,56
164820,note_on,80,0,11,,,,,,,,10,,,,72,56
164900,note_off,80,0,10,,,,,,,,8,,,,76,64
164900,note_off,80,0,6,,,,,,,,4,,,,72,64
164900,note_off,80,0,5,,,,,,,,3,,,,76,64
164900,note_off,80,0,13,,,,,,,,12,,,,43,64
164900,note_off,80,0,9,,,,,,,,7,,,,31,64
164900,note_off,80,0,11,,,,,,,,10,,,,72,64
164900,note_off,80,0,8,,,,,,,,6,,,,43,64
164900,note_off,80,0,14,,,,,,,,13,,,,31,64
164940,note_on,40,0,11,,,,,,,,10,,,,71,57
164940,note_on,40,0,5,,,,,,,,3,,,,74,74
164940,note_on,40,0,10,,,,,,,,8,,,,74,57
164940,note_on,40,0,6,,,,,,,,4,,,,71,74
164980,note_off,400,0,12,,,,,,,,11,,,,71,64
164980,note_off,400,0,7,,,,,,,,5,,,,71,64
165020,note_off,80,0,6,,,,,,,,4,,,,71,64
165020,note_off,80,0,10,,,,,,,,8,,,,74,64
165020,note_off,80,0,5,,,,,,,,3,,,,74,64
165020,note_off,80,0,11,,,,,,,,10,,,,71,64
165060,note_on,40,0,6,,,,,,,,4,,,,72,75
165060,note_on,40,0,10,,,,,,,,8,,,,76,58
165060,note_on,40,0,11,,,,,,,,10,,,,72,58
165060,note_on,40,0,5,,,,,,,,3,,,,76,75
165140,note_off,80,0,6,,,,,,,,4,,,,72,64
165140,note_off,80,0,10,,,,,,,,8,,,,76,64
165140,note_off,80,0,11,,,,,,,,10,,,,72,64
165140,note_off,80,0,5,,,,,,,,3,,,,76,64
165300,note_on,160,0,6,,,,,,,,4,,,,72,77
165300,note_on,320,0,7,,,,,,,,5,,,,67,78
165300,note_on,160,0,5,,,,,,,,3,,,,76,77
165300,note_on,320,0,12,,,,,,,,11,,,,67,61
165300,note_on,400,0,14,,,,,,,,13,,,,48,60
165300,note_on,400,0,9,,,,,,,,7,,,,48,77
165300,note_on,160,0,11,,,,,,,,10,,,,72,60
165300,note_on,400,0,8,,,,,,,,6,,,,60,77
165300,note_on,160,0,10,,,,,,,,8,,,,76,60
165300,note_on,400,0,13,,,,,,,,12,,,,60,60
165380,note_off,80,0,9,,,,,,,,7,,,,48,64
165380,note_off,80,0,13,,,,,,,,12,,,,60,64
165380,note_off,80,0,8,,,,,,,,6,,,,60,64
165380,note_off,80,0,14,,,,,,,,13,,,,48,64
165380,note_off,80,0,7,,,,,,,,5,,,,67,64
165380,note_off,80,0,12,,,,,,,,11,,,,67,64
165420,note_on,40,0,8,,,,,,,,6,,,,58,78
165420,note_on,40,0,9,,,,,,,,7,,,,46,78
165420,note_on,40,0,14,,,,,,,,13,,,,46,61
165420,note_on,40,0,13,,,,,,,,12,,,,58,61
165500,note_off,80,0,8,,,,,,,,6,,,,58,64
165500,note_off,80,0,14,,,,,,,,13,,,,46,64
165500,note_off,80,0,9,,,,,,,,7,,,,46,64
165500,note_off,80,0,13,,,,,,,,12,,,,58,64
165540,note_on,40,0,13,,,,,,,,12,,,,60,62
165540,note_on,40,0,8,,,,,,,,6,,,,60,79
165540,note_on,160,0,7,,,,,,,,5,,,,67,80
165540,note_on,40,0,14,,,,,,,,13,,,,48,62
165540,note_on,160,0,12,,,,,,,,11,,,,67,63
165540,note_on,40,0,9,,,,,,,,7,,,,48,79
165620,note_off,80,0,8,,,,,,,,6,,,,60,64
165620,note_off,80,0,9,,,,,,,,7,,,,48,64
165620,note_off,80,0,13,,,,,,,,12,,,,60,64
165620,note_off,80,0,14,,,,,,,,13,,,,48,64
165700,note_off,400,0,6,,,,,,,,4,,,,72,64
165700,note_off,400,0,10,,,,,,,,8,,,,76,64
165700,note_off,400,0,5,,,,,,,,3,,,,76,64
165700,note_off,400,0,11,,,,,,,,10,,,,72,64
165780,note_on,80,0,11,,,,,,,,10,,,,76,64
165780,note_on,160,0,9,,,,,,,,7,,,,36,81
165780,note_on,160,0,13,,,,,,,,12,,,,48,64
165780,note_on,80,0,5,,,,,,,,3,,,,79,81
165780,note_on,80,0,6,,,,,,,,4,,,,76,81
165780,note_on,160,0,14,,,,,,,,13,,,,36,64
165780,note_on,160,0,8,,,,,,,,6,,,,48,81
165780,note_on,80,0,10,,,,,,,,8,,,,79,64
165860,note_off,80,0,5,,,,,,,,3,,,,79,64
165860,note_off,80,0,11,,,,,,,,10,,,,76,64
165860,note_off,80,0,8,,,,,,,,6,,,,48,64
165860,note_off,80,0,9,,,,,,,,7,,,,36,64
165860,note_off,80,0,13,,,,,,,,12,,,,48,64
165860,note_off,80,0,14,,,,,,,,13,,,,36,64
165860,note_off,80,0,10,,,,,,,,8,,,,79,64
165860,note_off,80,0,6,,,,,,,,4,,,,76,64
165900,note_on,40,0,5,,,,,,,,3,,,,81,82
165900,note_on,40,0,6,,,,,,,,4,,,,77,82
165900,note_on,40,0,11,,,,,,,,10,,,,77,65
165900,note_on,40,0,10,,,,,,,,8,,,,81,65
165940,note_off,400,0,7,,,,,,,,5,,,,67,64
165940,note_off,400,0,12,,,,,,,,11,,,,67,64
165980,note_off,80,0,6,,,,,,,,4,,,,77,64
165980,note_off,80,0,11,,,,,,,,10,,,,77,64
165980,note_off,80,0,5,,,,,,,,3,,,,81,64
165980,note_off,80,0,10,,,,,,,,8,,,,81,64
166020,note_on,40,0,11,,,,,,,,10,,,,79,66
166020,note_on,40,0,10,,,,,,,,8,,,,82,66
166020,note_on,40,0,6,,,,,,,,4,,,,79,83
166020,note_on,40,0,5,,,,,,,,3,,,,82,83
166100,note_off,80,0,5,,,,,,,,3,,,,82,64
166100,note_off,80,0,6,,,,,,,,4,,,,79,64
166100,note_off,80,0,11,,,,,,,,10,,,,79,64
166100,note_off,80,0,10,,,,,,,,8,,,,82,64
166260,note_on,400,0,9,,,,,,,,7,,,,48,85
166260,note_on,400,0,13,,,,,,,,12,,,,60,68
166260,note_on,400,0,14,,,,,,,,13,,,,48,68
166260,note_on,320,0,12,,,,,,,,11,,,,64,69
166260,note_on,160,0,10,,,,,,,,8,,,,82,68
166260,note_on,160,0,5,,,,,,,,3,,,,82,85
166260,note_on,320,0,7,,,,,,,,5,,,,64,86
166260,note_on,160,0,11,,,,,,,,10,,,,79,68
166260,note_on,400,0,8,,,,,,,,6,,,,60,85
166260,note_on,160,0,6,,,,,,,,4,,,,79,85
166340,note_off,80,0,12,,,,,,,,11,,,,64,64
166340,note_off,80,0,13,,,,,,,,12,,,,60,64
166340,note_off,80,0,8,,,,,,,,6,,,,60,64
166340,note_off,80,0,7,,,,,,,,5,,,,64,64
166340,note_off,80,0,9,,,,,,,,7,,,,48,64
166340,note_off,80,0,14,,,,,,,,13,,,,48,64
166380,note_on,40,0,8,,,,,,,,6,,,,58,86
166380,note_on,40,0,7,,,,,,,,5,,,,62,87
166380,note_on,40,0,9,,,,,,,,7,,,,46,86
166380,note_on,40,0,14,,,,,,,,13,,,,46,69
166380,note_on,40,0,13,,,,,,,,12,,,,58,69
166380,note_on,40,0,12,,,,,,,,11,,,,62,70
166460,note_off,80,0,7,,,,,,,,5,,,,62,64
166460,note_off,80,0,14,,,,,,,,13,,,,46,64
166460,note_off,80,0,12,,,,,,,,11,,,,62,64
166460,note_off,80,0,8,,,,,,,,6,,,,58,64
166460,note_off,80,0,13,,,,,,,,12,,,,58,64
166460,note_off,80,0,9,,,,,,,,7,,,,46,64
166500,note_on,40,0,7,,,,,,,,5,,,,64,88
166500,note_on,40,0,9,,,,,,,,7,,,,48,87
166500,note_on,40,0,13,,,,,,,,12,,,,60,70
166500,note_on,40,0,14,,,,,,,,13,,,,48,70
166500,note_on,40,0,12,,,,,,,,11,,,,64,71
166500,note_on,40,0,8,,,,,,,,6,,,,60,87
166580,note_off,80,0,8,,,,,,,,6,,,,60,64
166580,note_off,80,0,7,,,,,,,,5,,,,64,64
166580,note_off,80,0,14,,,,,,,,13,,,,48,64
166580,note_off,80,0,9,,,,,,,,7,,,,48,64
166580,note_off,80,0,13,,,,,,,,12,,,,60,64
166580,note_off,80,0,12,,,,,,,,11,,,,64,64
166660,note_off,400,0,10,,,,,,,,8,,,,82,64
166660,note_off,400,0,5,,,,,,,,3,,,,82,64
166660,note_off,400,0,11,,,,,,,,10,,,,79,64
166660,note_off,400,0,6,,,,,,,,4,,,,79,64
166740,note_on,160,0,14,,,,,,,,13,,,,36,72
166740,note_on,160,0,13,,,,,,,,12,,,,48,72
166740,note_on,80,0,11,,,,,,,,10,,,,77,72
166740,note_on,160,0,9,,,,,,,,7,,,,36,89
166740,note_on,160,0,12,,,,,,,,11,,,,64,73
166740,note_on,80,0,5,,,,,,,,3,,,,81,89
166740,note_on,160,0,7,,,,,,,,5,,,,64,90
166740,note_on,80,0,6,,,,,,,,4,,,,77,89
166740,note_on,80,0,10,,,,,,,,8,,,,81,72
166740,note_on,160,0,8,,,,,,,,6,,,,48,89
166820,note_off,80,0,13,,,,,,,,12,,,,48,64
166820,note_off,80,0,11,,,,,,,,10,,,,77,64
166820,note_off,80,0,8,,,,,,,,6,,,,48,64
166820,note_off,80,0,7,,,,,,,,5,,,,64,64
166820,note_off,80,0,5,,,,,,,,3,,,,81,64
166820,note_off,80,0,9,,,,,,,,7,,,,36,64
166820,note_off,80,0,6,,,,,,,,4,,,,77,64
166820,note_off,80,0,12,,,,,,,,11,,,,64,64
166820,note_off,80,0,10,,,,,,,,8,,,,81,64
166820,note_off,80,0,14,,,,,,,,13,,,,36,64
166860,note_on,40,0,10,,,,,,,,8,,,,79,73
166860,note_on,40,0,6,,,,,,,,4,,,,76,90
166860,note_on,40,0,11,,,,,,,,10,,,,76,73
166860,note_on,40,0,5,,,,,,,,3,,,,79,90
166940,note_off,80,0,6,,,,,,,,4,,,,76,64
166940,note_off,80,0,5,,,,,,,,3,,,,79,64
166940,note_off,80,0,11,,,,,,,,10,,,,76,64
166940,note_off,80,0,10,,,,,,,,8,,,,79,64
166980,note_on,40,0,10,,,,,,,,8,,,,81,75
166980,note_on,160,0,8,,,,,,,,6,,,,41,92
166980,note_on,160,0,13,,,,,,,,12,,,,41,75
166980,note_on,160,0,7,,,,,,,,5,,,,60,92
166980,note_on,11525,0,15,,,,,,,,14,,,,41,60
166980,note_on,40,0,11,,,,,,,,10,,,,77,75
166980,note_on,160,0,9,,,,,,,,7,,,,29,92
166980,note_on,160,0,14,,,,,,,,13,,,,29,75
166980,note_on,40,0,6,,,,,,,,4,,,,77,92
166980,note_on,160,0,12,,,,,,,,11,,,,60,75
166980,note_on,40,0,5,,,,,,,,3,,,,81,92
167380,note_off,400,0,9,,,,,,,,7,,,,29,64
167380,note_off,400,0,6,,,,,,,,4,,,,77,64
167380,note_off,400,0,10,,,,,,,,8,,,,81,64
167380,note_off,400,0,11,,,,,,,,10,,,,77,64
167380,note_off,400,0,15,,,,,,,,14,,,,41,64
167380,note_off,400,0,7,,,,,,,,5,,,,60,64
167380,note_off,400,0,5,,,,,,,,3,,,,81,64
167380,note_off,400,0,8,,,,,,,,6,,,,41,64
167380,note_off,400,0,14,,,,,,,,13,,,,29,64
167380,note_off,400,0,13,,,,,,,,12,,,,41,64
167380,note_off,400,0,12,,,,,,,,11,,,,60,64
167640,note_on,18820,0,3,,,,,,,,1,,,,77,92
167640,note_on,18820,0,4,,,,,,,,2,,,,77,75
167700,note_on,0,0,4,,,,,,,,2,,,,79,75
167700,note_off,60,0,4,,,,,,,,2,,,,77,64
167700,note_off,60,0,3,,,,,,,,1,,,,77,64
167700,note_on,0,0,3,,,,,,,,1,,,,79,92
167760,note_off,60,0,4,,,,,,,,2,,,,79,64
167760,note_on,0,0,4,,,,,,,,2,,,,81,75
167760,note_off,60,0,3,,,,,,,,1,,,,79,64
167760,note_on,0,0,3,,,,,,,,1,,,,81,92
167820,note_off,60,0,3,,,,,,,,1,,,,81,64
167820,note_off,60,0,4,,,,,,,,2,,,,81,64
167820,note_on,0,0,4,,,,,,,,2,,,,82,75
167820,note_on,0,0,3,,,,,,,,1,,,,82,92
167880,note_on,0,0,3,,,,,,,,1,,,,84,92
167880,note_off,60,0,4,,,,,,,,2,,,,82,64
167880,note_off,60,0,3,,,,,,,,1,,,,82,64
167880,note_on,0,0,4,,,,,,,,2,,,,84,75
167940,note_on,0,0,3,,,,,,,,1,,,,86,92
167940,note_off,60,0,3,,,,,,,,1,,,,84,64
167940,note_off,60,0,4,,,,,,,,2,,,,84,64
167940,note_on,0,0,4,,,,,,,,2,,,,86,75
168000,note_on,0,0,3,,,,,,,,1,,,,88,92
168000,note_off,60,0,3,,,,,,,,1,,,,86,64
168000,note_off,60,0,4,,,,,,,,2,,,,86,64
168000,note_on,0,0,4,,,,,,,,2,,,,88,75
168060,note_on,0,0,3,,,,,,,,1,,,,89,92
168060,note_off,60,0,3,,,,,,,,1,,,,88,64
168060,note_off,60,0,4,,,,,,,,2,,,,88,64
168060,note_on,0,0,4,,,,,,,,2,,,,89,75
168140,note_off,80,0,4,,,,,,,,2,,,,89,64
168140,note_off,80,0,3,,,,,,,,1,,,,89,64
168180,note_on,40,0,4,,,,,,,,2,,,,84,75
168180,note_on,40,0,3,,,,,,,,1,,,,84,92
168260,note_off,80,0,3,,,,,,,,1,,,,84,64
168260,note_off,80,0,4,,,,,,,,2,,,,84,64
168300,note_on,40,0,4,,,,,,,,2,,,,81,75
168300,note_on,40,0,3,,,,,,,,1,,,,81,92
168380,note_off,80,0,3,,,,,,,,1,,,,81,64
168380,note_off,80,0,4,,,,,,,,2,,,,81,64
168420,note_on,40,0,3,,,,,,,,1,,,,84,92
168420,note_on,40,0,4,,,,,,,,2,,,,84,75
168500,note_off,80,0,3,,,,,,,,1,,,,84,64
168500,note_off,80,0,4,,,,,,,,2,,,,84,64
168540,note_on,40,0,4,,,,,,,,2,,,,89,75
168540,note_on,40,0,3,,,,,,,,1,,,,89,92
168620,note_off,80,0,4,,,,,,,,2,,,,89,64
168620,note_off,80,0,3,,,,,,,,1,,,,89,64
168660,note_on,40,0,3,,,,,,,,1,,,,84,92
168660,note_on,40,0,4,,,,,,,,2,,,,84,75
168740,note_off,80,0,3,,,,,,,,1,,,,84,64
168740,note_off,80,0,4,,,,,,,,2,,,,84,64
168780,note_on,40,0,3,,,,,,,,1,,,,81,92
168780,note_on,40,0,4,,,,,,,,2,,,,81,75
168860,note_off,80,0,4,,,,,,,,2,,,,81,64
168860,note_off,80,0,3,,,,,,,,1,,,,81,64
168900,note_on,40,0,3,,,,,,,,1,,,,77,92
168900,note_on,40,0,4,,,,,,,,2,,,,77,75
168980,note_off,80,0,4,,,,,,,,2,,,,77,64
168980,note_off,80,0,3,,,,,,,,1,,,,77,64
169020,note_on,40,0,4,,,,,,,,2,,,,65,75
169020,note_on,1640,0,8,,,,,,,,6,,,,41,92
169020,note_on,1640,0,13,,,,,,,,12,,,,41,75
169020,note_on,40,0,3,,,,,,,,1,,,,65,92
169420,note_off,400,0,8,,,,,,,,6,,,,41,64
169420,note_off,400,0,13,,,,,,,,12,,,,41,64
169420,note_off,400,0,4,,,,,,,,2,,,,65,64
169420,note_off,400,0,3,,,,,,,,1,,,,65,64
170040,note_on,620,0,3,,,,,,,,1,,,,77,92
170040,note_on,620,0,4,,,,,,,,2,,,,77,75
170100,note_on,0,0,3,,,,,,,,1,,,,79,91
170100,note_off,60,0,3,,,,,,,,1,,,,77,64
170100,note_off,60,0,4,,,,,,,,2,,,,77,64
170100,note_on,0,0,4,,,,,,,,2,,,,79,74
170160,note_on,0,0,3,,,,,,,,1,,,,81,90
170160,note_off,60,0,3,,,,,,,,1,,,,79,64
170160,note_off,60,0,4,,,,,,,,2,,,,79,64
170160,note_on,0,0,4,,,,,,,,2,,,,81,73
170220,note_on,0,0,3,,,,,,,,1,,,,82,89
170220,note_off,60,0,3,,,,,,,,1,,,,81,64
170220,note_on,0,0,4,,,,,,,,2,,,,82,72
170220,note_off,60,0,4,,,,,,,,2,,,,81,64
170280,note_on,0,0,4,,,,,,,,2,,,,84,71
170280,note_off,60,0,3,,,,,,,,1,,,,82,64
170280,note_on,0,0,3,,,,,,,,1,,,,84,88
170280,note_off,60,0,4,,,,,,,,2,,,,82,64
170340,note_off,60,0,3,,,,,,,,1,,,,84,64
170340,note_on,0,0,3,,,,,,,,1,,,,86,87
170340,note_on,0,0,4,,,,,,,,2,,,,86,70
170340,note_off,60,0,4,,,,,,,,2,,,,84,64
170400,note_on,0,0,3,,,,,,,,1,,,,88,86
170400,note_on,0,0,4,,,,,,,,2,,,,88,69
170400,note_off,60,0,4,,,,,,,,2,,,,86,64
170400,note_off,60,0,3,,,,,,,,1,,,,86,64
170460,note_off,60,0,3,,,,,,,,1,,,,88,64
170460,note_on,0,0,3,,,,,,,,1,,,,89,85
170460,set_tempo,16920,1,0,560747,,,,,,,,,,,,
170460,note_off,60,0,4,,,,,,,,2,,,,88,64
170460,note_on,0,0,4,,,,,,,,2,,,,89,68
170540,note_off,80,0,4,,,,,,,,2,,,,89,64
170540,note_off,80,0,3,,,,,,,,1,,,,89,64
170580,note_on,40,0,4,,,,,,,,2,,,,84,66
170580,note_on,40,0,3,,,,,,,,1,,,,84,82
170660,note_off,80,0,3,,,,,,,,1,,,,84,64
170660,note_off,80,0,4,,,,,,,,2,,,,84,64
170700,note_on,40,0,3,,,,,,,,1,,,,81,79
170700,note_on,40,0,4,,,,,,,,2,,,,81,63
170700,set_tempo,240,1,0,638297,,,,,,,,,,,,
170780,note_off,80,0,3,,,,,,,,1,,,,81,64
170780,note_off,80,0,4,,,,,,,,2,,,,81,64
170820,note_on,40,0,3,,,,,,,,1,,,,84,76
170820,note_on,40,0,4,,,,,,,,2,,,,84,60
170900,note_off,80,0,4,,,,,,,,2,,,,84,64
170900,note_off,80,0,3,,,,,,,,1,,,,84,64
170940,note_on,40,0,4,,,,,,,,2,,,,89,57
170940,note_on,40,0,3,,,,,,,,1,,,,89,73
170940,set_tempo,240,1,0,697674,,,,,,,,,,,,
171020,note_off,80,0,4,,,,,,,,2,,,,89,64
171020,note_off,80,0,3,,,,,,,,1,,,,89,64
171060,note_on,40,0,3,,,,,,,,1,,,,84,70
171060,note_on,40,0,4,,,,,,,,2,,,,84,54
171060,set_tempo,120,1,0,789473,,,,,,,,,,,,
171140,note_off,80,0,3,,,,,,,,1,,,,84,64
171140,note_off,80,0,4,,,,,,,,2,,,,84,64
171180,set_tempo,120,1,0,909090,,,,,,,,,,,,
171180,note_on,40,0,3,,,,,,,,1,,,,81,67
171180,note_on,40,0,4,,,,,,,,2,,,,81,51
171260,note_off,80,0,4,,,,,,,,2,,,,81,64
171260,note_off,80,0,3,,,,,,,,1,,,,81,64
171300,note_on,40,0,3,,,,,,,,1,,,,77,64
171300,set_tempo,120,1,0,1071428,,,,,,,,,,,,
171300,note_on,40,0,4,,,,,,,,2,,,,77,48
171380,note_off,80,0,3,,,,,,,,1,,,,77,64
171380,note_off,80,0,4,,,,,,,,2,,,,77,64
171420,note_on,2000,0,8,,,,,,,,6,,,,41,45
171420,note_on,2000,0,13,,,,,,,,12,,,,41,30
171420,note_on,40,0,3,,,,,,,,1,,,,65,60
171420,set_tempo,120,1,0,697674,,,,,,,,,,,,
171420,note_on,40,0,4,,,,,,,,2,,,,65,45
171820,note_off,400,0,4,,,,,,,,2,,,,65,64
171820,note_off,400,0,3,,,,,,,,1,,,,65,64
171820,note_off,400,0,13,,,,,,,,12,,,,41,64
171820,note_off,400,0,8,,,,,,,,6,,,,41,64
172860,note_on,1040,0,4,,,,,,,,2,,,,72,30
172860,note_on,76760,0,2,,,,,,,,0,,,,44,30
172860,note_on,0,0,2,,,,,,,,0,,,,56,30
172860,note_on,5480,0,6,,,,,,,,4,,,,68,30
172860,note_on,1040,0,3,,,,,,,,1,,,,72,45
172860,note_on,5480,0,11,,,,,,,,10,,,,68,10
172860,set_tempo,1440,1,0,967741,,,,,,,,,,,,
172860,note_on,5480,0,5,,,,,,,,3,,,,72,30
172860,note_on,5480,0,10,,,,,,,,8,,,,72,10
172940,note_off,80,0,6,,,,,,,,4,,,,68,64
172940,note_off,80,0,5,,,,,,,,3,,,,72,64
173095,note_off,235,0,11,,,,,,,,10,,,,68,64
173095,note_off,235,0,10,,,,,,,,8,,,,72,64
173100,note_on,173100,0,1,,,,,,,,0,,,,60,45
173100,note_on,160,0,5,,,,,,,,3,,,,72,30
173100,note_on,160,0,6,,,,,,,,4,,,,68,30
173100,note_on,5,0,11,,,,,,,,10,,,,68,10
173100,note_on,5,0,10,,,,,,,,8,,,,72,10
173180,note_off,80,0,5,,,,,,,,3,,,,72,64
173180,note_off,80,0,6,,,,,,,,4,,,,68,64
173335,note_off,235,0,11,,,,,,,,10,,,,68,64
173335,note_off,235,0,10,,,,,,,,8,,,,72,64
173340,note_on,5,0,11,,,,,,,,10,,,,68,10
173340,note_on,160,0,5,,,,,,,,3,,,,72,30
173340,note_on,0,0,1,,,,,,,,0,,,,65,45
173340,note_off,240,0,1,,,,,,,,0,,,,60,64
173340,note_on,5,0,10,,,,,,,,8,,,,72,10
173340,note_on,160,0,6,,,,,,,,4,,,,68,30
173420,note_off,80,0,5,,,,,,,,3,,,,72,64
173420,note_off,80,0,6,,,,,,,,4,,,,68,64
173575,note_off,235,0,10,,,,,,,,8,,,,72,64
173575,note_off,235,0,11,,,,,,,,10,,,,68,64
173580,note_on,5,0,11,,,,,,,,10,,,,68,10
173580,note_on,5,0,10,,,,,,,,8,,,,72,10
173580,note_off,240,0,1,,,,,,,,0,,,,65,64
173580,note_on,0,0,1,,,,,,,,0,,,,68,45
173580,note_on,160,0,5,,,,,,,,3,,,,72,30
173580,note_on,160,0,6,,,,,,,,4,,,,68,30
173660,note_off,80,0,5,,,,,,,,3,,,,72,64
173660,note_off,80,0,6,,,,,,,,4,,,,68,64
173700,note_off,0,0,2,,,,,,,,0,,,,44,64
173700,note_off,840,0,2,,,,,,,,0,,,,56,64
173815,note_off,235,0,10,,,,,,,,8,,,,72,64
173815,note_off,235,0,11,,,,,,,,10,,,,68,64
173820,note_on,0,0,1,,,,,,,,0,,,,72,45
173820,note_off,240,0,1,,,,,,,,0,,,,68,64
173820,note_on,5,0,11,,,,,,,,10,,,,68,10
173820,note_on,160,0,6,,,,,,,,4,,,,68,30
173820,note_on,5,0,10,,,,,,,,8,,,,72,10
173820,note_on,160,0,5,,,,,,,,3,,,,72,30
173900,note_off,80,0,5,,,,,,,,3,,,,72,64
173900,note_off,80,0,6,,,,,,,,4,,,,68,64
174055,note_off,235,0,11,,,,,,,,10,,,,68,64
174055,note_off,235,0,10,,,,,,,,8,,,,72,64
174060,note_on,160,0,6,,,,,,,,4,,,,68,30
174060,note_on,5,0,10,,,,,,,,8,,,,72,10
174060,note_on,160,0,5,,,,,,,,3,,,,72,30
174060,note_on,5,0,11,,,,,,,,10,,,,68,10
174140,note_off,80,0,6,,,,,,,,4,,,,68,64
174140,note_off,80,0,5,,,,,,,,3,,,,72,64
174220,note_off,400,0,1,,,,,,,,0,,,,72,64
174295,note_off,235,0,10,,,,,,,,8,,,,72,64
174295,note_off,235,0,11,,,,,,,,10,,,,68,64
174300,note_on,0,0,3,,,,,,,,1,,,,80,45
174300,note_off,1440,0,4,,,,,,,,2,,,,72,64
174300,note_on,5,0,10,,,,,,,,8,,,,72,10
174300,note_on,160,0,5,,,,,,,,3,,,,72,30
174300,note_on,160,0,6,,,,,,,,4,,,,68,30
174300,note_on,5,0,11,,,,,,,,10,,,,68,10
174300,note_on,0,0,4,,,,,,,,2,,,,80,30
174300,note_off,1440,0,3,,,,,,,,1,,,,72,64
174380,note_off,80,0,6,,,,,,,,4,,,,68,64
174380,note_off,80,0,5,,,,,,,,3,,,,72,64
174535,note_off,235,0,10,,,,,,,,8,,,,72,64
174535,note_off,235,0,11,,,,,,,,10,,,,68,64
174540,note_on,5,0,11,,,,,,,,10,,,,68,10
174540,note_on,160,0,5,,,,,,,,3,,,,72,30
174540,note_on,160,0,6,,,,,,,,4,,,,68,30
174540,note_on,5,0,10,,,,,,,,8,,,,72,10
174620,note_off,80,0,6,,,,,,,,4,,,,68,64
174620,note_off,80,0,5,,,,,,,,3,,,,72,64
174700,note_off,400,0,3,,,,,,,,1,,,,80,64
174700,note_off,400,0,4,,,,,,,,2,,,,80,64
174775,note_off,235,0,11,,,,,,,,10,,,,68,64
174775,note_off,235,0,10,,,,,,,,8,,,,72,64
174780,note_on,1080,0,2,,,,,,,,0,,,,43,30
174780,note_on,0,0,2,,,,,,,,0,,,,55,30
174780,note_on,160,0,6,,,,,,,,4,,,,67,30
174780,note_on,5,0,11,,,,,,,,10,,,,67,10
174780,note_on,80,0,4,,,,,,,,2,,,,70,30
174780,note_on,160,0,5,,,,,,,,3,,,,70,30
174780,note_on,80,0,3,,,,,,,,1,,,,70,45
174780,note_on,5,0,10,,,,,,,,8,,,,70,10
174860,note_off,80,0,5,,,,,,,,3,,,,70,64
174860,note_off,80,0,6,,,,,,,,4,,,,67,64
175015,note_off,235,0,11,,,,,,,,10,,,,67,64
175015,note_off,235,0,10,,,,,,,,8,,,,70,64
175020,note_on,5,0,11,,,,,,,,10,,,,67,10
175020,note_on,5,0,10,,,,,,,,8,,,,70,10
175020,note_on,160,0,6,,,,,,,,4,,,,67,30
175020,note_on,800,0,1,,,,,,,,0,,,,60,45
175020,note_on,160,0,5,,,,,,,,3,,,,70,30
175100,note_off,80,0,5,,,,,,,,3,,,,70,64
175100,note_off,80,0,6,,,,,,,,4,,,,67,64
175255,note_off,235,0,11,,,,,,,,10,,,,67,64
175255,note_off,235,0,10,,,,,,,,8,,,,70,64
175260,note_on,160,0,5,,,,,,,,3,,,,70,30
175260,note_on,5,0,10,,,,,,,,8,,,,70,10
175260,note_on,160,0,6,,,,,,,,4,,,,67,30
175260,note_off,240,0,1,,,,,,,,0,,,,60,64
175260,note_on,0,0,1,,,,,,,,0,,,,64,45
175260,note_on,5,0,11,,,,,,,,10,,,,67,10
175340,note_off,80,0,5,,,,,,,,3,,,,70,64
175340,note_off,80,0,6,,,,,,,,4,,,,67,64
175495,note_off,235,0,10,,,,,,,,8,,,,70,64
175495,note_off,235,0,11,,,,,,,,10,,,,67,64
175500,note_on,0,0,1,,,,,,,,0,,,,67,45
175500,note_off,240,0,1,,,,,,,,0,,,,64,64
175500,note_on,160,0,5,,,,,,,,3,,,,70,30
175500,note_on,160,0,6,,,,,,,,4,,,,67,30
175500,note_on,5,0,10,,,,,,,,8,,,,70,10
175500,note_on,5,0,11,,,,,,,,10,,,,67,10
175580,note_off,80,0,6,,,,,,,,4,,,,67,64
175580,note_off,80,0,5,,,,,,,,3,,,,70,64
175620,note_off,840,0,2,,,,,,,,0,,,,55,64
175620,note_off,0,0,2,,,,,,,,0,,,,43,64
175735,note_off,235,0,10,,,,,,,,8,,,,70,64
175735,note_off,235,0,11,,,,,,,,10,,,,67,64
175740,note_on,0,0,1,,,,,,,,0,,,,70,45
175740,note_on,5,0,11,,,,,,,,10,,,,67,10
175740,note_off,240,0,1,,,,,,,,0,,,,67,64
175740,note_on,5,0,10,,,,,,,,8,,,,70,10
175740,note_on,160,0,5,,,,,,,,3,,,,70,30
175740,note_on,160,0,6,,,,,,,,4,,,,67,30
175820,note_off,80,0,5,,,,,,,,3,,,,70,64
175820,note_off,80,0,6,,,,,,,,4,,,,67,64
175975,note_off,235,0,11,,,,,,,,10,,,,67,64
175975,note_off,235,0,10,,,,,,,,8,,,,70,64
175980,note_on,160,0,5,,,,,,,,3,,,,70,30
175980,note_on,5,0,10,,,,,,,,8,,,,70,10
175980,note_on,5,0,11,,,,,,,,10,,,,67,10
175980,note_on,160,0,6,,,,,,,,4,,,,67,30
176060,note_off,80,0,6,,,,,,,,4,,,,67,64
176060,note_off,80,0,5,,,,,,,,3,,,,70,64
176140,note_off,400,0,1,,,,,,,,0,,,,70,64
176215,note_off,235,0,10,,,,,,,,8,,,,70,64
176215,note_off,235,0,11,,,,,,,,10,,,,67,64
176220,note_off,1440,0,3,,,,,,,,1,,,,70,64
176220,note_on,5,0,11,,,,,,,,10,,,,67,10
176220,note_on,0,0,3,,,,,,,,1,,,,79,45
176220,note_on,160,0,5,,,,,,,,3,,,,70,30
176220,note_on,0,0,4,,,,,,,,2,,,,79,30
176220,note_on,5,0,10,,,,,,,,8,,,,70,10
176220,note_on,160,0,6,,,,,,,,4,,,,67,30
176220,note_off,1440,0,4,,,,,,,,2,,,,70,64
176300,note_off,80,0,6,,,,,,,,4,,,,67,64
176300,note_off,80,0,5,,,,,,,,3,,,,70,64
176455,note_off,235,0,10,,,,,,,,8,,,,70,64
176455,note_off,235,0,11,,,,,,,,10,,,,67,64
176460,note_on,5,0,10,,,,,,,,8,,,,70,10
176460,note_on,160,0,6,,,,,,,,4,,,,67,30
176460,note_on,5,0,11,,,,,,,,10,,,,67,10
176460,note_on,160,0,5,,,,,,,,3,,,,70,30
176540,note_off,80,0,5,,,,,,,,3,,,,70,64
176540,note_off,80,0,6,,,,,,,,4,,,,67,64
176620,note_off,400,0,3,,,,,,,,1,,,,79,64
176620,note_off,400,0,4,,,,,,,,2,,,,79,64
176695,note_off,235,0,10,,,,,,,,8,,,,70,64
176695,note_off,235,0,11,,,,,,,,10,,,,67,64
176700,note_on,160,0,5,,,,,,,,3,,,,68,30
176700,note_on,80,0,3,,,,,,,,1,,,,68,45
176700,note_on,5,0,11,,,,,,,,10,,,,65,10
176700,note_on,160,0,6,,,,,,,,4,,,,65,30
176700,note_on,5,0,10,,,,,,,,8,,,,68,10
176700,note_on,80,0,4,,,,,,,,2,,,,68,30
176700,note_on,0,0,2,,,,,,,,0,,,,53,30
176700,note_on,1080,0,2,,,,,,,,0,,,,41,30
176780,note_off,80,0,6,,,,,,,,4,,,,65,64
176780,note_off,80,0,5,,,,,,,,3,,,,68,64
176935,note_off,235,0,10,,,,,,,,8,,,,68,64
176935,note_off,235,0,11,,,,,,,,10,,,,65,64
176940,note_on,5,0,11,,,,,,,,10,,,,65,10
176940,note_on,160,0,6,,,,,,,,4,,,,65,30
176940,note_on,5,0,10,,,,,,,,8,,,,68,10
176940,note_on,800,0,1,,,,,,,,0,,,,60,45
176940,note_on,160,0,5,,,,,,,,3,,,,68,30
177020,note_off,80,0,6,,,,,,,,4,,,,65,64
177020,note_off,80,0,5,,,,,,,,3,,,,68,64
177175,note_off,235,0,11,,,,,,,,10,,,,65,64
177175,note_off,235,0,10,,,,,,,,8,,,,68,64
177180,note_on,5,0,11,,,,,,,,10,,,,65,10
177180,note_off,240,0,1,,,,,,,,0,,,,60,64
177180,note_on,5,0,10,,,,,,,,8,,,,68,10
177180,note_on,160,0,6,,,,,,,,4,,,,65,30
177180,note_on,160,0,5,,,,,,,,3,,,,68,30
177180,note_on,0,0,1,,,,,,,,0,,,,65,45
177260,note_off,80,0,6,,,,,,,,4,,,,65,64
177260,note_off,80,0,5,,,,,,,,3,,,,68,64
177415,note_off,235,0,11,,,,,,,,10,,,,65,64
177415,note_off,235,0,10,,,,,,,,8,,,,68,64
177420,note_on,160,0,6,,,,,,,,4,,,,65,30
177420,note_on,5,0,11,,,,,,,,10,,,,65,10
177420,note_on,5,0,10,,,,,,,,8,,,,68,10
177420,note_on,160,0,5,,,,,,,,3,,,,68,30
177420,note_off,240,0,1,,,,,,,,0,,,,65,64
177420,note_on,0,0,1,,,,,,,,0,,,,68,45
177500,note_off,80,0,6,,,,,,,,4,,,,65,64
177500,note_off,80,0,5,,,,,,,,3,,,,68,64
177540,note_off,0,0,2,,,,,,,,0,,,,41,64
177540,note_off,840,0,2,,,,,,,,0,,,,53,64
177655,note_off,235,0,10,,,,,,,,8,,,,68,64
177655,note_off,235,0,11,,,,,,,,10,,,,65,64
177660,note_on,5,0,10,,,,,,,,8,,,,68,10
177660,note_off,240,0,1,,,,,,,,0,,,,68,64
177660,note_on,160,0,6,,,,,,,,4,,,,65,30
177660,note_on,160,0,5,,,,,,,,3,,,,68,30
177660,note_on,5,0,11,,,,,,,,10,,,,65,10
177660,note_on,0,0,1,,,,,,,,0,,,,72,45
177740,note_off,80,0,5,,,,,,,,3,,,,68,64
177740,note_off,80,0,6,,,,,,,,4,,,,65,64
177895,note_off,235,0,11,,,,,,,,10,,,,65,64
177895,note_off,235,0,10,,,,,,,,8,,,,68,64
177900,note_on,5,0,11,,,,,,,,10,,,,65,10
177900,note_on,5,0,10,,,,,,,,8,,,,68,10
177900,note_on,160,0,5,,,,,,,,3,,,,68,30
177900,note_on,160,0,6,,,,,,,,4,,,,65,30
177980,note_off,80,0,5,,,,,,,,3,,,,68,64
177980,note_off,80,0,6,,,,,,,,4,,,,65,64
178060,note_off,400,0,1,,,,,,,,0,,,,72,64
178135,note_off,235,0,10,,,,,,,,8,,,,68,64
178135,note_off,235,0,11,,,,,,,,10,,,,65,64
178140,note_on,160,0,6,,,,,,,,4,,,,65,30
178140,note_on,5,0,11,,,,,,,,10,,,,65,10
178140,note_on,160,0,5,,,,,,,,3,,,,68,30
178140,note_on,0,0,4,,,,,,,,2,,,,77,30
178140,note_on,0,0,3,,,,,,,,1,,,,77,45
178140,note_off,1440,0,3,,,,,,,,1,,,,68,64
178140,note_off,1440,0,4,,,,,,,,2,,,,68,64
178140,note_on,5,0,10,,,,,,,,8,,,,68,10
178220,note_off,80,0,6,,,,,,,,4,,,,65,64
178220,note_off,80,0,5,,,,,,,,3,,,,68,64
178375,note_off,235,0,11,,,,,,,,10,,,,65,64
178375,note_off,235,0,10,,,,,,,,8,,,,68,64
178380,note_on,5,0,11,,,,,,,,10,,,,65,10
178380,note_on,5,0,10,,,,,,,,8,,,,68,10
178380,note_on,160,0,6,,,,,,,,4,,,,65,30
178380,note_on,160,0,5,,,,,,,,3,,,,68,30
178460,note_off,80,0,6,,,,,,,,4,,,,65,64
178460,note_off,80,0,5,,,,,,,,3,,,,68,64
178540,note_off,400,0,3,,,,,,,,1,,,,77,64
178540,note_off,400,0,4,,,,,,,,2,,,,77,64
178615,note_off,235,0,10,,,,,,,,8,,,,68,64
178615,note_off,235,0,11,,,,,,,,10,,,,65,64
178620,note_on,160,0,6,,,,,,,,4,,,,64,30
178620,note_on,160,0,5,,,,,,,,3,,,,67,30
178620,note_on,1080,0,2,,,,,,,,0,,,,40,30
178620,note_on,0,0,2,,,,,,,,0,,,,52,30
178620,note_on,80,0,4,,,,,,,,2,,,,67,30
178620,note_on,560,0,1,,,,,,,,0,,,,64,45
178620,note_on,5,0,11,,,,,,,,10,,,,64,10
178620,note_on,5,0,10,,,,,,,,8,,,,67,10
178620,note_on,80,0,3,,,,,,,,1,,,,67,45
178700,note_off,80,0,5,,,,,,,,3,,,,67,64
178700,note_off,80,0,6,,,,,,,,4,,,,64,64
178855,note_off,235,0,10,,,,,,,,8,,,,67,64
178855,note_off,235,0,11,,,,,,,,10,,,,64,64
178860,note_off,240,0,1,,,,,,,,0,,,,64,64
178860,note_on,0,0,1,,,,,,,,0,,,,67,45
178860,note_on,5,0,11,,,,,,,,10,,,,64,10
178860,note_on,5,0,10,,,,,,,,8,,,,67,10
178860,note_on,160,0,5,,,,,,,,3,,,,67,30
178860,note_on,160,0,6,,,,,,,,4,,,,64,30
178940,note_off,80,0,6,,,,,,,,4,,,,64,64
178940,note_off,80,0,5,,,,,,,,3,,,,67,64
179095,note_off,235,0,10,,,,,,,,8,,,,67,64
179095,note_off,235,0,11,,,,,,,,10,,,,64,64
179100,note_off,240,0,1,,,,,,,,0,,,,67,64
179100,note_on,160,0,5,,,,,,,,3,,,,67,30
179100,note_on,0,0,1,,,,,,,,0,,,,70,45
179100,note_on,5,0,11,,,,,,,,10,,,,64,10
179100,note_on,160,0,6,,,,,,,,4,,,,64,30
179100,note_on,5,0,10,,,,,,,,8,,,,67,10
179180,note_off,80,0,5,,,,,,,,3,,,,67,64
179180,note_off,80,0,6,,,,,,,,4,,,,64,64
179335,note_off,235,0,11,,,,,,,,10,,,,64,64
179335,note_off,235,0,10,,,,,,,,8,,,,67,64
179340,note_on,0,0,1,,,,,,,,0,,,,67,45
179340,note_off,240,0,1,,,,,,,,0,,,,70,64
179340,note_on,5,0,10,,,,,,,,8,,,,67,10
179340,note_on,160,0,6,,,,,,,,4,,,,64,30
179340,note_on,5,0,11,,,,,,,,10,,,,64,10
179340,note_on,160,0,5,,,,,,,,3,,,,67,30
179420,note_off,80,0,5,,,,,,,,3,,,,67,64
179420,note_off,80,0,6,,,,,,,,4,,,,64,64
179460,note_off,0,0,2,,,,,,,,0,,,,40,64
179460,note_off,840,0,2,,,,,,,,0,,,,52,64
179575,note_off,235,0,11,,,,,,,,10,,,,64,64
179575,note_off,235,0,1,,,,,,,,0,,,,67,64
179575,note_off,235,0,10,,,,,,,,8,,,,67,64
179580,note_on,160,0,5,,,,,,,,3,,,,68,30
179580,note_on,160,0,6,,,,,,,,4,,,,65,30
179580,note_on,0,0,3,,,,,,,,1,,,,65,45
179580,note_off,960,0,3,,,,,,,,1,,,,67,64
179580,note_on,5,0,10,,,,,,,,8,,,,68,10
179580,note_on,5,0,1,,,,,,,,0,,,,68,45
179580,note_on,5,0,11,,,,,,,,10,,,,65,10
179580,note_off,960,0,4,,,,,,,,2,,,,67,64
179580,note_on,0,0,4,,,,,,,,2,,,,65,30
179660,note_off,80,0,5,,,,,,,,3,,,,68,64
179660,note_off,80,0,6,,,,,,,,4,,,,65,64
179815,note_off,235,0,10,,,,,,,,8,,,,68,64
179815,note_off,235,0,11,,,,,,,,10,,,,65,64
179820,note_on,5,0,10,,,,,,,,8,,,,68,10
179820,note_on,160,0,6,,,,,,,,4,,,,65,30
179820,note_on,5,0,11,,,,,,,,10,,,,65,10
179820,note_on,160,0,5,,,,,,,,3,,,,68,30
179900,note_off,80,0,5,,,,,,,,3,,,,68,64
179900,note_off,80,0,6,,,,,,,,4,,,,65,64
179980,note_off,400,0,1,,,,,,,,0,,,,68,64
180055,note_off,235,0,11,,,,,,,,10,,,,65,64
180055,note_off,235,0,10,,,,,,,,8,,,,68,64
180060,note_on,160,0,6,,,,,,,,4,,,,65,30
180060,note_on,5,0,11,,,,,,,,10,,,,65,10
180060,note_on,5,0,10,,,,,,,,8,,,,68,10
180060,note_on,160,0,5,,,,,,,,3,,,,68,30
180140,note_off,80,0,6,,,,,,,,4,,,,65,64
180140,note_off,80,0,5,,,,,,,,3,,,,68,64
180295,note_off,235,0,10,,,,,,,,8,,,,68,64
180295,note_off,235,0,11,,,,,,,,10,,,,65,64
180300,note_on,5,0,11,,,,,,,,10,,,,65,10
180300,note_on,160,0,5,,,,,,,,3,,,,68,30
180300,note_on,5,0,10,,,,,,,,8,,,,68,10
180300,note_on,160,0,6,,,,,,,,4,,,,65,30
180380,note_off,80,0,5,,,,,,,,3,,,,68,64
180380,note_off,80,0,6,,,,,,,,4,,,,65,64
180535,note_off,235,0,11,,,,,,,,10,,,,65,64
180535,note_off,235,0,10,,,,,,,,8,,,,68,64
180540,note_on,0,0,2,,,,,,,,0,,,,53,30
180540,note_on,5,0,10,,,,,,,,8,,,,68,10
180540,note_on,160,0,5,,,,,,,,3,,,,68,30
180540,note_on,160,0,6,,,,,,,,4,,,,65,30
180540,note_on,1080,0,2,,,,,,,,0,,,,41,30
180540,note_on,5,0,11,,,,,,,,10,,,,65,10
180540,note_on,560,0,1,,,,,,,,0,,,,68,45
180620,note_off,80,0,6,,,,,,,,4,,,,65,64
180620,note_off,80,0,5,,,,,,,,3,,,,68,64
180775,note_off,235,0,11,,,,,,,,10,,,,65,64
180775,note_off,235,0,10,,,,,,,,8,,,,68,64
180780,note_on,0,0,1,,,,,,,,0,,,,65,45
180780,note_off,240,0,1,,,,,,,,0,,,,68,64
180780,note_on,5,0,11,,,,,,,,10,,,,65,10
180780,note_on,160,0,6,,,,,,,,4,,,,65,30
180780,note_on,5,0,10,,,,,,,,8,,,,68,10
180780,note_on,160,0,5,,,,,,,,3,,,,68,30
180860,note_off,80,0,6,,,,,,,,4,,,,65,64
180860,note_off,80,0,5,,,,,,,,3,,,,68,64
181015,note_off,235,0,10,,,,,,,,8,,,,68,64
181015,note_off,235,0,11,,,,,,,,10,,,,65,64
181020,note_on,160,0,6,,,,,,,,4,,,,65,30
181020,note_on,5,0,10,,,,,,,,8,,,,68,10
181020,note_on,160,0,5,,,,,,,,3,,,,68,30
181020,note_off,240,0,1,,,,,,,,0,,,,65,64
181020,note_on,5,0,11,,,,,,,,10,,,,65,10
181020,note_on,0,0,1,,,,,,,,0,,,,60,45
181100,note_off,80,0,6,,,,,,,,4,,,,65,64
181100,note_off,80,0,5,,,,,,,,3,,,,68,64
181255,note_off,235,0,10,,,,,,,,8,,,,68,64
181255,note_off,235,0,11,,,,,,,,10,,,,65,64
181260,note_on,160,0,5,,,,,,,,3,,,,68,30
181260,note_off,240,0,1,,,,,,,,0,,,,60,64
181260,note_on,0,0,1,,,,,,,,0,,,,65,45
181260,note_on,5,0,10,,,,,,,,8,,,,68,10
181260,note_on,160,0,6,,,,,,,,4,,,,65,30
181260,note_on,5,0,11,,,,,,,,10,,,,65,10
181340,note_off,80,0,5,,,,,,,,3,,,,68,64
181340,note_off,80,0,6,,,,,,,,4,,,,65,64
181380,note_off,1800,0,3,,,,,,,,1,,,,65,64
181380,note_off,0,0,2,,,,,,,,0,,,,41,64
181380,note_off,840,0,2,,,,,,,,0,,,,53,64
181380,note_off,1800,0,4,,,,,,,,2,,,,65,64
181495,note_off,235,0,10,,,,,,,,8,,,,68,64
181495,note_off,235,0,11,,,,,,,,10,,,,65,64
181500,note_off,240,0,1,,,,,,,,0,,,,65,64
181500,note_on,5,0,10,,,,,,,,8,,,,72,10
181500,note_on,120,0,4,,,,,,,,2,,,,72,30
181500,note_on,5,0,11,,,,,,,,10,,,,68,10
181500,note_on,120,0,3,,,,,,,,1,,,,72,45
181500,note_on,0,0,2,,,,,,,,0,,,,56,30
181500,note_on,160,0,6,,,,,,,,4,,,,68,30
181500,note_on,160,0,5,,,,,,,,3,,,,72,30
181500,note_on,120,0,2,,,,,,,,0,,,,44,30
181580,note_off,80,0,5,,,,,,,,3,,,,72,64
181580,note_off,80,0,6,,,,,,,,4,,,,68,64
181735,note_off,235,0,10,,,,,,,,8,,,,72,64
181735,note_off,235,0,11,,,,,,,,10,,,,68,64
181740,note_on,240,0,1,,,,,,,,0,,,,60,45
181740,note_on,5,0,11,,,,,,,,10,,,,68,10
181740,note_on,5,0,10,,,,,,,,8,,,,72,10
181740,note_on,160,0,5,,,,,,,,3,,,,72,30
181740,note_on,160,0,6,,,,,,,,4,,,,68,30
181820,note_off,80,0,5,,,,,,,,3,,,,72,64
181820,note_off,80,0,6,,,,,,,,4,,,,68,64
181975,note_off,235,0,10,,,,,,,,8,,,,72,64
181975,note_off,235,0,11,,,,,,,,10,,,,68,64
181980,note_on,5,0,10,,,,,,,,8,,,,72,10
181980,note_on,5,0,11,,,,,,,,10,,,,68,10
181980,note_on,160,0,5,,,,,,,,3,,,,72,30
181980,note_off,240,0,1,,,,,,,,0,,,,60,64
181980,note_on,160,0,6,,,,,,,,4,,,,68,30
181980,note_on,0,0,1,,,,,,,,0,,,,65,45
182060,note_off,80,0,5,,,,,,,,3,,,,72,64
182060,note_off,80,0,6,,,,,,,,4,,,,68,64
182215,note_off,235,0,11,,,,,,,,10,,,,68,64
182215,note_off,235,0,10,,,,,,,,8,,,,72,64
182220,note_on,5,0,11,,,,,,,,10,,,,68,10
182220,note_on,160,0,6,,,,,,,,4,,,,68,30
182220,note_off,240,0,1,,,,,,,,0,,,,65,64
182220,note_on,0,0,1,,,,,,,,0,,,,68,45
182220,note_on,5,0,10,,,,,,,,8,,,,72,10
182220,note_on,160,0,5,,,,,,,,3,,,,72,30
182300,note_off,80,0,6,,,,,,,,4,,,,68,64
182300,note_off,80,0,5,,,,,,,,3,,,,72,64
182340,note_off,0,0,2,,,,,,,,0,,,,44,64
182340,note_off,840,0,2,,,,,,,,0,,,,56,64
182455,note_off,235,0,11,,,,,,,,10,,,,68,64
182455,note_off,235,0,10,,,,,,,,8,,,,72,64
182460,note_off,240,0,1,,,,,,,,0,,,,68,64
182460,note_on,5,0,10,,,,,,,,8,,,,72,10
182460,note_on,0,0,1,,,,,,,,0,,,,72,45
182460,note_on,5,0,11,,,,,,,,10,,,,68,10
182460,note_on,160,0,5,,,,,,,,3,,,,72,30
182460,note_on,160,0,6,,,,,,,,4,,,,68,30
182540,note_off,80,0,5,,,,,,,,3,,,,72,64
182540,note_off,80,0,6,,,,,,,,4,,,,68,64
182695,note_off,235,0,11,,,,,,,,10,,,,68,64
182695,note_off,235,0,10,,,,,,,,8,,,,72,64
182700,note_on,5,0,11,,,,,,,,10,,,,68,10
182700,note_on,160,0,6,,,,,,,,4,,,,68,30
182700,note_on,160,0,5,,,,,,,,3,,,,72,30
182700,note_on,5,0,10,,,,,,,,8,,,,72,10
182780,note_off,80,0,6,,,,,,,,4,,,,68,64
182780,note_off,80,0,5,,,,,,,,3,,,,72,64
182860,note_off,400,0,1,,,,,,,,0,,,,72,64
182935,note_off,235,0,11,,,,,,,,10,,,,68,64
182935,note_off,235,0,10,,,,,,,,8,,,,72,64
182940,note_on,5,0,10,,,,,,,,8,,,,72,10
182940,note_on,0,0,3,,,,,,,,1,,,,80,45
182940,note_on,5,0,11,,,,,,,,10,,,,68,10
182940,note_on,160,0,6,,,,,,,,4,,,,68,30
182940,note_on,0,0,4,,,,,,,,2,,,,80,30
182940,note_off,1440,0,4,,,,,,,,2,,,,72,64
182940,note_on,160,0,5,,,,,,,,3,,,,72,30
182940,note_off,1440,0,3,,,,,,,,1,,,,72,64
183020,note_off,80,0,5,,,,,,,,3,,,,72,64
183020,note_off,80,0,6,,,,,,,,4,,,,68,64
183175,note_off,235,0,11,,,,,,,,10,,,,68,64
183175,note_off,235,0,10,,,,,,,,8,,,,72,64
183180,note_on,5,0,10,,,,,,,,8,,,,72,10
183180,note_on,160,0,5,,,,,,,,3,,,,72,30
183180,note_on,5,0,11,,,,,,,,10,,,,68,10
183180,note_on,160,0,6,,,,,,,,4,,,,68,30
183260,note_off,80,0,5,,,,,,,,3,,,,72,64
183260,note_off,80,0,6,,,,,,,,4,,,,68,64
183340,note_off,400,0,3,,,,,,,,1,,,,80,64
183340,note_off,400,0,4,,,,,,,,2,,,,80,64
183415,note_off,235,0,11,,,,,,,,10,,,,68,64
183415,note_off,235,0,10,,,,,,,,8,,,,72,64
183420,note_on,160,0,5,,,,,,,,3,,,,70,30
183420,note_on,0,0,2,,,,,,,,0,,,,55,30
183420,note_on,1080,0,2,,,,,,,,0,,,,43,30
183420,note_on,80,0,3,,,,,,,,1,,,,70,45
183420,note_on,80,0,4,,,,,,,,2,,,,70,30
183420,note_on,160,0,6,,,,,,,,4,,,,67,30
183420,note_on,5,0,10,,,,,,,,8,,,,70,10
183420,note_on,5,0,11,,,,,,,,10,,,,67,10
183500,note_off,80,0,5,,,,,,,,3,,,,70,64
183500,note_off,80,0,6,,,,,,,,4,,,,67,64
183655,note_off,235,0,10,,,,,,,,8,,,,70,64
183655,note_off,235,0,11,,,,,,,,10,,,,67,64
183660,note_on,800,0,1,,,,,,,,0,,,,60,45
183660,note_on,160,0,5,,,,,,,,3,,,,70,30
183660,note_on,5,0,11,,,,,,,,10,,,,67,10
183660,note_on,5,0,10,,,,,,,,8,,,,70,10
183660,note_on,160,0,6,,,,,,,,4,,,,67,30
183740,note_off,80,0,5,,,,,,,,3,,,,70,64
183740,note_off,80,0,6,,,,,,,,4,,,,67,64
183895,note_off,235,0,11,,,,,,,,10,,,,67,64
183895,note_off,235,0,10,,,,,,,,8,,,,70,64
183900,note_on,5,0,10,,,,,,,,8,,,,70,10
183900,note_on,160,0,5,,,,,,,,3,,,,70,30
183900,note_on,0,0,1,,,,,,,,0,,,,64,45
183900,note_off,240,0,1,,,,,,,,0,,,,60,64
183900,note_on,5,0,11,,,,,,,,10,,,,67,10
183900,note_on,160,0,6,,,,,,,,4,,,,67,30
183980,note_off,80,0,5,,,,,,,,3,,,,70,64
183980,note_off,80,0,6,,,,,,,,4,,,,67,64
184135,note_off,235,0,10,,,,,,,,8,,,,70,64
184135,note_off,235,0,11,,,,,,,,10,,,,67,64
184140,note_on,5,0,10,,,,,,,,8,,,,70,10
184140,note_on,160,0,5,,,,,,,,3,,,,70,30
184140,note_on,5,0,11,,,,,,,,10,,,,67,10
184140,note_on,160,0,6,,,,,,,,4,,,,67,30
184140,note_off,240,0,1,,,,,,,,0,,,,64,64
184140,note_on,0,0,1,,,,,,,,0,,,,67,45
184220,note_off,80,0,6,,,,,,,,4,,,,67,64
184220,note_off,80,0,5,,,,,,,,3,,,,70,64
184260,note_off,0,0,2,,,,,,,,0,,,,43,64
184260,note_off,840,0,2,,,,,,,,0,,,,55,64
184375,note_off,235,0,11,,,,,,,,10,,,,67,64
184375,note_off,235,0,10,,,,,,,,8,,,,70,64
184380,note_on,0,0,1,,,,,,,,0,,,,70,45
184380,note_on,5,0,11,,,,,,,,10,,,,67,10
184380,note_on,160,0,5,,,,,,,,3,,,,70,30
184380,note_on,5,0,10,,,,,,,,8,,,,70,10
184380,note_on,160,0,6,,,,,,,,4,,,,67,30
184380,note_off,240,0,1,,,,,,,,0,,,,67,64
184460,note_off,80,0,5,,,,,,,,3,,,,70,64
184460,note_off,80,0,6,,,,,,,,4,,,,67,64
184615,note_off,235,0,11,,,,,,,,10,,,,67,64
184615,note_off,235,0,10,,,,,,,,8,,,,70,64
184620,note_on,160,0,5,,,,,,,,3,,,,70,30
184620,note_on,160,0,6,,,,,,,,4,,,,67,30
184620,note_on,5,0,10,,,,,,,,8,,,,70,10
184620,note_on,5,0,11,,,,,,,,10,,,,67,10
184700,note_off,80,0,6,,,,,,,,4,,,,67,64
184700,note_off,80,0,5,,,,,,,,3,,,,70,64
184780,note_off,400,0,1,,,,,,,,0,,,,70,64
184855,note_off,235,0,10,,,,,,,,8,,,,70,64
184855,note_off,235,0,11,,,,,,,,10,,,,67,64
184860,note_on,5,0,11,,,,,,,,10,,,,67,10
184860,note_on,0,0,3,,,,,,,,1,,,,79,45
184860,note_on,5,0,10,,,,,,,,8,,,,70,10
184860,note_on,0,0,4,,,,,,,,2,,,,79,30
184860,note_off,1440,0,3,,,,,,,,1,,,,70,64
184860,note_on,160,0,5,,,,,,,,3,,,,70,30
184860,note_off,1440,0,4,,,,,,,,2,,,,70,64
184860,note_on,160,0,6,,,,,,,,4,,,,67,30
184940,note_off,80,0,5,,,,,,,,3,,,,70,64
184940,note_off,80,0,6,,,,,,,,4,,,,67,64
185095,note_off,235,0,11,,,,,,,,10,,,,67,64
185095,note_off,235,0,10,,,,,,,,8,,,,70,64
185100,note_on,160,0,5,,,,,,,,3,,,,70,30
185100,note_on,5,0,10,,,,,,,,8,,,,70,10
185100,note_on,5,0,11,,,,,,,,10,,,,67,10
185100,note_on,160,0,6,,,,,,,,4,,,,67,30
185180,note_off,80,0,5,,,,,,,,3,,,,70,64
185180,note_off,80,0,6,,,,,,,,4,,,,67,64
185260,note_off,400,0,4,,,,,,,,2,,,,79,64
185260,note_off,400,0,3,,,,,,,,1,,,,79,64
185335,note_off,235,0,11,,,,,,,,10,,,,67,64
185335,note_off,235,0,10,,,,,,,,8,,,,70,64
185340,note_on,5,0,10,,,,,,,,8,,,,68,10
185340,note_on,80,0,4,,,,,,,,2,,,,68,30
185340,note_on,0,0,2,,,,,,,,0,,,,53,30
185340,note_on,1080,0,2,,,,,,,,0,,,,41,30
185340,note_on,160,0,6,,,,,,,,4,,,,65,30
185340,note_on,5,0,11,,,,,,,,10,,,,65,10
185340,note_on,160,0,5,,,,,,,,3,,,,68,30
185340,note_on,80,0,3,,,,,,,,1,,,,68,45
185420,note_off,80,0,5,,,,,,,,3,,,,68,64
185420,note_off,80,0,6,,,,,,,,4,,,,65,64
185575,note_off,235,0,10,,,,,,,,8,,,,68,64
185575,note_off,235,0,11,,,,,,,,10,,,,65,64
185580,note_on,5,0,11,,,,,,,,10,,,,65,10
185580,note_on,160,0,5,,,,,,,,3,,,,68,30
185580,note_on,800,0,1,,,,,,,,0,,,,60,44
185580,note_on,5,0,10,,,,,,,,8,,,,68,10
185580,note_on,160,0,6,,,,,,,,4,,,,65,30
185660,note_off,80,0,6,,,,,,,,4,,,,65,64
185660,note_off,80,0,5,,,,,,,,3,,,,68,64
185815,note_off,235,0,10,,,,,,,,8,,,,68,64
185815,note_off,235,0,11,,,,,,,,10,,,,65,64
185820,note_off,240,0,1,,,,,,,,0,,,,60,64
185820,note_on,0,0,1,,,,,,,,0,,,,65,42
185820,note_on,160,0,6,,,,,,,,4,,,,65,30
185820,note_on,5,0,10,,,,,,,,8,,,,68,10
185820,note_on,5,0,11,,,,,,,,10,,,,65,10
185820,note_on,160,0,5,,,,,,,,3,,,,68,30
185900,note_off,80,0,6,,,,,,,,4,,,,65,64
185900,note_off,80,0,5,,,,,,,,3,,,,68,64
186055,note_off,235,0,11,,,,,,,,10,,,,65,64
186055,note_off,235,0,10,,,,,,,,8,,,,68,64
186060,note_on,5,0,11,,,,,,,,10,,,,65,10
186060,note_on,5,0,10,,,,,,,,8,,,,68,10
186060,note_on,160,0,6,,,,,,,,4,,,,65,30
186060,note_on,0,0,1,,,,,,,,0,,,,68,40
186060,note_off,240,0,1,,,,,,,,0,,,,65,64
186060,note_on,160,0,5,,,,,,,,3,,,,68,30
186140,note_off,80,0,6,,,,,,,,4,,,,65,64
186140,note_off,80,0,5,,,,,,,,3,,,,68,64
186180,note_off,840,0,2,,,,,,,,0,,,,53,64
186180,note_off,0,0,2,,,,,,,,0,,,,41,64
186295,note_off,235,0,10,,,,,,,,8,,,,68,64
186295,note_off,235,0,1,,,,,,,,0,,,,68,64
186295,note_off,235,0,11,,,,,,,,10,,,,65,64
186300,note_on,160,0,5,,,,,,,,3,,,,68,30
186300,note_on,5,0,1,,,,,,,,0,,,,72,38
186300,note_on,5,0,11,,,,,,,,10,,,,65,10
186300,note_on,5,0,10,,,,,,,,8,,,,68,10
186300,note_on,160,0,6,,,,,,,,4,,,,65,30
186380,note_off,80,0,5,,,,,,,,3,,,,68,64
186380,note_off,80,0,6,,,,,,,,4,,,,65,64
186535,note_off,235,0,10,,,,,,,,8,,,,68,64
186535,note_off,235,0,11,,,,,,,,10,,,,65,64
186540,note_on,160,0,5,,,,,,,,3,,,,68,30
186540,note_on,160,0,6,,,,,,,,4,,,,65,30
186540,note_on,5,0,11,,,,,,,,10,,,,65,10
186540,note_on,5,0,10,,,,,,,,8,,,,68,10
186620,note_off,80,0,6,,,,,,,,4,,,,65,64
186620,note_off,80,0,5,,,,,,,,3,,,,68,64
186700,note_off,400,0,1,,,,,,,,0,,,,72,64
186775,note_off,235,0,11,,,,,,,,10,,,,65,64
186775,note_off,235,0,10,,,,,,,,8,,,,68,64
186780,note_on,0,0,3,,,,,,,,1,,,,77,45
186780,note_on,5,0,11,,,,,,,,10,,,,65,10
186780,note_on,160,0,5,,,,,,,,3,,,,68,30
186780,note_on,160,0,6,,,,,,,,4,,,,65,30
186780,note_on,0,0,4,,,,,,,,2,,,,77,30
186780,note_off,1440,0,4,,,,,,,,2,,,,68,64
186780,note_on,5,0,10,,,,,,,,8,,,,68,10
186780,note_off,1440,0,3,,,,,,,,1,,,,68,64
186860,note_off,80,0,6,,,,,,,,4,,,,65,64
186860,note_off,80,0,5,,,,,,,,3,,,,68,64
187015,note_off,235,0,11,,,,,,,,10,,,,65,64
187015,note_off,235,0,10,,,,,,,,8,,,,68,64
187020,note_on,5,0,10,,,,,,,,8,,,,68,10
187020,note_on,160,0,5,,,,,,,,3,,,,68,30
187020,note_on,160,0,6,,,,,,,,4,,,,65,30
187020,note_on,5,0,11,,,,,,,,10,,,,65,10
187100,note_off,80,0,5,,,,,,,,3,,,,68,64
187100,note_off,80,0,6,,,,,,,,4,,,,65,64
187180,note_off,400,0,4,,,,,,,,2,,,,77,64
187180,note_off,400,0,3,,,,,,,,1,,,,77,64
187255,note_off,235,0,10,,,,,,,,8,,,,68,64
187255,note_off,235,0,11,,,,,,,,10,,,,65,64
187260,note_on,5,0,11,,,,,,,,10,,,,64,10
187260,note_on,0,0,15,,,,,,,,14,,,,48,10
187260,note_on,19880,0,7,,,,,,,,5,,,,60,30
187260,note_on,5,0,10,,,,,,,,8,,,,67,10
187260,note_on,80,0,3,,,,,,,,1,,,,76,45
187260,note_on,19880,0,15,,,,,,,,14,,,,36,10
187260,note_on,0,0,2,,,,,,,,0,,,,60,10
187260,note_on,1080,0,2,,,,,,,,0,,,,48,10
187260,note_on,160,0,5,,,,,,,,3,,,,67,30
187260,note_on,80,0,4,,,,,,,,2,,,,76,30
187260,note_on,160,0,6,,,,,,,,4,,,,64,30
187260,note_on,19880,0,12,,,,,,,,11,,,,60,10
187340,note_off,80,0,10,,,,,,,,8,,,,67,64
187340,note_off,80,0,5,,,,,,,,3,,,,67,64
187340,note_off,80,0,11,,,,,,,,10,,,,64,64
187340,note_off,80,0,6,,,,,,,,4,,,,64,64
187500,note_on,160,0,11,,,,,,,,10,,,,64,10
187500,note_on,160,0,6,,,,,,,,4,,,,64,30
187500,note_on,160,0,5,,,,,,,,3,,,,67,30
187500,note_on,0,0,1,,,,,,,,0,,,,67,30
187500,note_on,800,0,1,,,,,,,,0,,,,64,30
187500,note_on,160,0,10,,,,,,,,8,,,,67,10
187580,note_off,80,0,6,,,,,,,,4,,,,64,64
187580,note_off,80,0,5,,,,,,,,3,,,,67,64
187580,note_off,0,0,1,,,,,,,,0,,,,64,64
187580,note_off,80,0,1,,,,,,,,0,,,,67,64
187580,note_off,80,0,11,,,,,,,,10,,,,64,64
187580,note_off,80,0,10,,,,,,,,8,,,,67,64
187620,note_on,40,0,11,,,,,,,,10,,,,62,10
187620,note_on,40,0,10,,,,,,,,8,,,,65,10
187620,note_on,40,0,6,,,,,,,,4,,,,62,30
187620,note_on,0,0,1,,,,,,,,0,,,,65,30
187620,note_on,40,0,1,,,,,,,,0,,,,62,30
187620,note_on,40,0,5,,,,,,,,3,,,,65,30
187700,note_off,80,0,11,,,,,,,,10,,,,62,64
187700,note_off,80,0,6,,,,,,,,4,,,,62,64
187700,note_off,80,0,5,,,,,,,,3,,,,65,64
187700,note_off,80,0,10,,,,,,,,8,,,,65,64
187700,note_off,0,0,1,,,,,,,,0,,,,62,64
187700,note_off,80,0,1,,,,,,,,0,,,,65,64
187740,note_on,40,0,5,,,,,,,,3,,,,67,30
187740,note_on,0,0,1,,,,,,,,0,,,,67,30
187740,note_on,40,0,1,,,,,,,,0,,,,64,30
187740,note_on,40,0,10,,,,,,,,8,,,,67,10
187740,note_on,40,0,11,,,,,,,,10,,,,64,10
187740,note_on,40,0,6,,,,,,,,4,,,,64,30
187820,note_off,80,0,11,,,,,,,,10,,,,64,64
187820,note_off,0,0,1,,,,,,,,0,,,,64,64
187820,note_off,80,0,6,,,,,,,,4,,,,64,64
187820,note_off,80,0,10,,,,,,,,8,,,,67,64
187820,note_off,80,0,1,,,,,,,,0,,,,67,64
187820,note_off,80,0,5,,,,,,,,3,,,,67,64
187980,note_on,160,0,1,,,,,,,,0,,,,64,30
187980,note_on,160,0,6,,,,,,,,4,,,,64,30
187980,note_on,160,0,10,,,,,,,,8,,,,67,10
187980,note_on,160,0,11,,,,,,,,10,,,,64,10
187980,note_on,0,0,1,,,,,,,,0,,,,67,30
187980,note_on,160,0,5,,,,,,,,3,,,,67,30
188060,note_off,80,0,6,,,,,,,,4,,,,64,64
188060,note_off,80,0,11,,,,,,,,10,,,,64,64
188060,note_off,80,0,1,,,,,,,,0,,,,67,64
188060,note_off,80,0,10,,,,,,,,8,,,,67,64
188060,note_off,0,0,1,,,,,,,,0,,,,64,64
188060,note_off,80,0,5,,,,,,,,3,,,,67,64
188100,note_off,0,0,15,,,,,,,,14,,,,36,64
188100,note_off,840,0,12,,,,,,,,11,,,,60,64
188100,note_off,840,0,2,,,,,,,,0,,,,60,64
188100,note_off,0,0,2,,,,,,,,0,,,,48,64
188100,note_off,840,0,15,,,,,,,,14,,,,48,64
188100,note_off,840,0,7,,,,,,,,5,,,,60,64
188220,note_on,0,0,2,,,,,,,,0,,,,60,10
188220,note_on,120,0,2,,,,,,,,0,,,,48,10
188220,note_on,0,0,15,,,,,,,,14,,,,48,10
188220,note_on,120,0,15,,,,,,,,14,,,,36,10
188220,note_on,120,0,7,,,,,,,,5,,,,60,30
188220,note_on,120,0,12,,,,,,,,11,,,,60,10
188460,note_on,400,0,5,,,,,,,,3,,,,67,30
188460,note_on,400,0,6,,,,,,,,4,,,,64,30
188460,note_on,400,0,11,,,,,,,,10,,,,64,10
188460,note_on,400,0,10,,,,,,,,8,,,,67,10
188460,note_on,400,0,1,,,,,,,,0,,,,64,30
188460,note_on,0,0,1,,,,,,,,0,,,,67,30
188540,note_off,0,0,1,,,,,,,,0,,,,64,64
188540,note_off,80,0,1,,,,,,,,0,,,,67,64
188540,note_off,80,0,10,,,,,,,,8,,,,67,64
188540,note_off,80,0,6,,,,,,,,4,,,,64,64
188540,note_off,80,0,5,,,,,,,,3,,,,67,64
188540,note_off,80,0,11,,,,,,,,10,,,,64,64
188580,note_on,40,0,1,,,,,,,,0,,,,62,30
188580,note_on,40,0,5,,,,,,,,3,,,,65,30
188580,note_on,40,0,11,,,,,,,,10,,,,62,10
188580,note_on,40,0,10,,,,,,,,8,,,,65,10
188580,note_on,0,0,1,,,,,,,,0,,,,65,30
188580,note_on,40,0,6,,,,,,,,4,,,,62,30
188660,note_off,80,0,10,,,,,,,,8,,,,65,64
188660,note_off,80,0,5,,,,,,,,3,,,,65,64
188660,note_off,0,0,1,,,,,,,,0,,,,62,64
188660,note_off,80,0,11,,,,,,,,10,,,,62,64
188660,note_off,80,0,1,,,,,,,,0,,,,65,64
188660,note_off,80,0,6,,,,,,,,4,,,,62,64
188700,note_on,40,0,1,,,,,,,,0,,,,64,30
188700,note_on,40,0,10,,,,,,,,8,,,,67,10
188700,note_on,0,0,1,,,,,,,,0,,,,67,30
188700,note_off,1440,0,3,,,,,,,,1,,,,76,64
188700,note_on,40,0,6,,,,,,,,4,,,,64,30
188700,note_on,0,0,4,,,,,,,,2,,,,84,30
188700,note_off,1440,0,4,,,,,,,,2,,,,76,64
188700,note_on,40,0,11,,,,,,,,10,,,,64,10
188700,note_on,0,0,3,,,,,,,,1,,,,84,45
188700,note_on,40,0,5,,,,,,,,3,,,,67,30
188780,note_off,80,0,5,,,,,,,,3,,,,67,64
188780,note_off,80,0,11,,,,,,,,10,,,,64,64
188780,note_off,80,0,1,,,,,,,,0,,,,67,64
188780,note_off,80,0,6,,,,,,,,4,,,,64,64
188780,note_off,80,0,10,,,,,,,,8,,,,67,64
188780,note_off,0,0,1,,,,,,,,0,,,,64,64
188940,note_on,160,0,10,,,,,,,,8,,,,67,10
188940,note_on,0,0,1,,,,,,,,0,,,,67,30
188940,note_on,160,0,1,,,,,,,,0,,,,64,30
188940,note_on,160,0,11,,,,,,,,10,,,,64,10
188940,note_on,160,0,6,,,,,,,,4,,,,64,30
188940,note_on,160,0,5,,,,,,,,3,,,,67,30
189020,note_off,80,0,5,,,,,,,,3,,,,67,64
189020,note_off,80,0,6,,,,,,,,4,,,,64,64
189020,note_off,80,0,1,,,,,,,,0,,,,67,64
189020,note_off,80,0,10,,,,,,,,8,,,,67,64
189020,note_off,80,0,11,,,,,,,,10,,,,64,64
189020,note_off,0,0,1,,,,,,,,0,,,,64,64
189060,note_off,0,0,15,,,,,,,,14,,,,36,64
189060,note_off,840,0,15,,,,,,,,14,,,,48,64
189060,note_off,840,0,7,,,,,,,,5,,,,60,64
189060,note_off,840,0,12,,,,,,,,11,,,,60,64
189060,note_off,0,0,2,,,,,,,,0,,,,48,64
189060,note_off,840,0,2,,,,,,,,0,,,,60,64
189100,note_off,400,0,4,,,,,,,,2,,,,84,64
189100,note_off,400,0,3,,,,,,,,1,,,,84,64
189180,note_on,0,0,15,,,,,,,,14,,,,41,10
189180,note_on,120,0,12,,,,,,,,11,,,,53,10
189180,note_on,80,0,4,,,,,,,,2,,,,75,30
189180,note_on,80,0,3,,,,,,,,1,,,,75,45
189180,note_on,0,0,2,,,,,,,,0,,,,53,10
189180,note_on,120,0,2,,,,,,,,0,,,,41,10
189180,note_on,120,0,15,,,,,,,,14,,,,29,10
189180,note_on,120,0,7,,,,,,,,5,,,,53,30
189420,note_on,400,0,10,,,,,,,,8,,,,72,10
189420,note_on,400,0,6,,,,,,,,4,,,,69,30
189420,note_on,400,0,5,,,,,,,,3,,,,72,30
189420,note_on,400,0,11,,,,,,,,10,,,,69,10
189420,note_on,0,0,1,,,,,,,,0,,,,72,30
189420,note_on,400,0,1,,,,,,,,0,,,,69,30
189500,note_off,80,0,5,,,,,,,,3,,,,72,64
189500,note_off,80,0,6,,,,,,,,4,,,,69,64
189500,note_off,80,0,11,,,,,,,,10,,,,69,64
189500,note_off,0,0,1,,,,,,,,0,,,,69,64
189500,note_off,80,0,1,,,,,,,,0,,,,72,64
189500,note_off,80,0,10,,,,,,,,8,,,,72,64
189540,note_on,40,0,1,,,,,,,,0,,,,67,30
189540,note_on,40,0,10,,,,,,,,8,,,,70,10
189540,note_on,40,0,5,,,,,,,,3,,,,70,30
189540,note_on,40,0,11,,,,,,,,10,,,,67,10
189540,note_on,0,0,1,,,,,,,,0,,,,70,30
189540,note_on,40,0,6,,,,,,,,4,,,,67,30
189620,note_off,0,0,1,,,,,,,,0,,,,67,64
189620,note_off,80,0,1,,,,,,,,0,,,,70,64
189620,note_off,80,0,5,,,,,,,,3,,,,70,64
189620,note_off,80,0,11,,,,,,,,10,,,,67,64
189620,note_off,80,0,10,,,,,,,,8,,,,70,64
189620,note_off,80,0,6,,,,,,,,4,,,,67,64
189660,note_on,40,0,6,,,,,,,,4,,,,69,30
189660,note_on,40,0,5,,,,,,,,3,,,,72,30
189660,note_on,0,0,1,,,,,,,,0,,,,72,30
189660,note_on,40,0,1,,,,,,,,0,,,,69,30
189660,note_on,40,0,10,,,,,,,,8,,,,72,10
189660,note_on,40,0,11,,,,,,,,10,,,,69,10
189740,note_off,80,0,1,,,,,,,,0,,,,72,64
189740,note_off,0,0,1,,,,,,,,0,,,,69,64
189740,note_off,80,0,10,,,,,,,,8,,,,72,64
189740,note_off,80,0,6,,,,,,,,4,,,,69,64
189740,note_off,80,0,11,,,,,,,,10,,,,69,64
189740,note_off,80,0,5,,,,,,,,3,,,,72,64
189900,note_on,160,0,1,,,,,,,,0,,,,69,30
189900,note_on,0,0,1,,,,,,,,0,,,,72,30
189900,note_on,160,0,6,,,,,,,,4,,,,69,30
189900,note_on,160,0,5,,,,,,,,3,,,,72,30
189900,note_on,160,0,11,,,,,,,,10,,,,69,10
189900,note_on,160,0,10,,,,,,,,8,,,,72,10
189980,note_off,80,0,10,,,,,,,,8,,,,72,64
189980,note_off,80,0,11,,,,,,,,10,,,,69,64
189980,note_off,80,0,6,,,,,,,,4,,,,69,64
189980,note_off,0,0,1,,,,,,,,0,,,,69,64
189980,note_off,80,0,1,,,,,,,,0,,,,72,64
189980,note_off,80,0,5,,,,,,,,3,,,,72,64
190020,note_off,840,0,2,,,,,,,,0,,,,53,64
190020,note_off,0,0,15,,,,,,,,14,,,,29,64
190020,note_off,840,0,7,,,,,,,,5,,,,53,64
190020,note_off,840,0,12,,,,,,,,11,,,,53,64
190020,note_off,0,0,2,,,,,,,,0,,,,41,64
190020,note_off,840,0,15,,,,,,,,14,,,,41,64
190140,note_on,0,0,15,,,,,,,,14,,,,41,10
190140,note_on,120,0,15,,,,,,,,14,,,,29,10
190140,note_on,120,0,7,,,,,,,,5,,,,53,30
190140,note_on,120,0,2,,,,,,,,0,,,,41,10
190140,note_on,0,0,2,,,,,,,,0,,,,53,10
190140,note_on,120,0,12,,,,,,,,11,,,,53,10
190380,note_on,400,0,10,,,,,,,,8,,,,72,10
190380,note_on,0,0,1,,,,,,,,0,,,,72,30
190380,note_on,400,0,1,,,,,,,,0,,,,69,30
190380,note_on,400,0,6,,,,,,,,4,,,,69,30
190380,note_on,400,0,11,,,,,,,,10,,,,69,10
190380,note_on,400,0,5,,,,,,,,3,,,,72,30
190460,note_off,80,0,6,,,,,,,,4,,,,69,64
190460,note_off,80,0,11,,,,,,,,10,,,,69,64
190460,note_off,0,0,1,,,,,,,,0,,,,69,64
190460,note_off,80,0,1,,,,,,,,0,,,,72,64
190460,note_off,80,0,10,,,,,,,,8,,,,72,64
190460,note_off,80,0,5,,,,,,,,3,,,,72,64
190500,note_on,40,0,10,,,,,,,,8,,,,70,10
190500,note_on,40,0,6,,,,,,,,4,,,,67,30
190500,note_on,40,0,1,,,,,,,,0,,,,67,30
190500,note_on,40,0,5,,,,,,,,3,,,,70,30
190500,note_on,0,0,1,,,,,,,,0,,,,70,30
190500,note_on,40,0,11,,,,,,,,10,,,,67,10
190580,note_off,0,0,1,,,,,,,,0,,,,67,64
190580,note_off,80,0,10,,,,,,,,8,,,,70,64
190580,note_off,80,0,5,,,,,,,,3,,,,70,64
190580,note_off,80,0,11,,,,,,,,10,,,,67,64
190580,note_off,80,0,6,,,,,,,,4,,,,67,64
190580,note_off,80,0,1,,,,,,,,0,,,,70,64
190620,note_off,1440,0,3,,,,,,,,1,,,,75,64
190620,note_on,40,0,11,,,,,,,,10,,,,69,10
190620,note_off,1440,0,4,,,,,,,,2,,,,75,64
190620,note_on,0,0,4,,,,,,,,2,,,,84,25
190620,note_on,40,0,10,,,,,,,,8,,,,72,10
190620,note_on,0,0,1,,,,,,,,0,,,,72,30
190620,note_on,40,0,1,,,,,,,,0,,,,69,30
190620,note_on,40,0,6,,,,,,,,4,,,,69,30
190620,note_on,0,0,3,,,,,,,,1,,,,84,42
190620,note_on,40,0,5,,,,,,,,3,,,,72,30
190700,note_off,80,0,1,,,,,,,,0,,,,72,64
190700,note_off,0,0,1,,,,,,,,0,,,,69,64
190700,note_off,80,0,11,,,,,,,,10,,,,69,64
190700,note_off,80,0,6,,,,,,,,4,,,,69,64
190700,note_off,80,0,5,,,,,,,,3,,,,72,64
190700,note_off,80,0,10,,,,,,,,8,,,,72,64
190860,note_on,0,0,1,,,,,,,,0,,,,65,30
190860,note_on,160,0,6,,,,,,,,4,,,,62,30
190860,note_on,160,0,11,,,,,,,,10,,,,62,10
190860,note_on,160,0,5,,,,,,,,3,,,,65,30
190860,note_on,160,0,10,,,,,,,,8,,,,65,10
190860,note_on,160,0,1,,,,,,,,0,,,,62,30
190940,note_off,80,0,6,,,,,,,,4,,,,62,64
190940,note_off,80,0,11,,,,,,,,10,,,,62,64
190940,note_off,80,0,5,,,,,,,,3,,,,65,64
190940,note_off,80,0,10,,,,,,,,8,,,,65,64
190940,note_off,80,0,1,,,,,,,,0,,,,65,64
190940,note_off,0,0,1,,,,,,,,0,,,,62,64
190980,note_off,840,0,7,,,,,,,,5,,,,53,64
190980,note_off,0,0,15,,,,,,,,14,,,,29,64
190980,note_off,840,0,12,,,,,,,,11,,,,53,64
190980,note_off,840,0,2,,,,,,,,0,,,,53,64
190980,note_off,0,0,2,,,,,,,,0,,,,41,64
190980,note_off,840,0,15,,,,,,,,14,,,,41,64
191020,note_off,400,0,3,,,,,,,,1,,,,84,64
191020,note_off,400,0,4,,,,,,,,2,,,,84,64
191100,note_on,120,0,15,,,,,,,,14,,,,34,10
191100,note_on,0,0,15,,,,,,,,14,,,,46,10
191100,note_on,120,0,2,,,,,,,,0,,,,46,10
191100,note_on,0,0,2,,,,,,,,0,,,,58,10
191100,note_on,120,0,7,,,,,,,,5,,,,58,30
191100,note_on,80,0,4,,,,,,,,2,,,,74,24
191100,note_on,120,0,12,,,,,,,,11,,,,58,10
191100,note_on,80,0,3,,,,,,,,1,,,,74,41
191340,note_on,400,0,11,,,,,,,,10,,,,62,10
191340,note_on,400,0,5,,,,,,,,3,,,,65,30
191340,note_on,400,0,6,,,,,,,,4,,,,62,30
191340,note_on,400,0,10,,,,,,,,8,,,,65,10
191340,note_on,400,0,1,,,,,,,,0,,,,62,30
191340,note_on,0,0,1,,,,,,,,0,,,,65,30
191420,note_off,80,0,6,,,,,,,,4,,,,62,64
191420,note_off,0,0,1,,,,,,,,0,,,,62,64
191420,note_off,80,0,1,,,,,,,,0,,,,65,64
191420,note_off,80,0,10,,,,,,,,8,,,,65,64
191420,note_off,80,0,5,,,,,,,,3,,,,65,64
191420,note_off,80,0,11,,,,,,,,10,,,,62,64
191460,note_on,40,0,10,,,,,,,,8,,,,64,10
191460,note_on,40,0,1,,,,,,,,0,,,,60,30
191460,note_on,0,0,1,,,,,,,,0,,,,64,30
191460,note_on,40,0,6,,,,,,,,4,,,,60,30
191460,note_on,40,0,5,,,,,,,,3,,,,64,30
191460,note_on,40,0,11,,,,,,,,10,,,,60,10
191540,note_off,80,0,6,,,,,,,,4,,,,60,64
191540,note_off,80,0,5,,,,,,,,3,,,,64,64
191540,note_off,80,0,11,,,,,,,,10,,,,60,64
191540,note_off,80,0,10,,,,,,,,8,,,,64,64
191540,note_off,80,0,1,,,,,,,,0,,,,64,64
191540,note_off,0,0,1,,,,,,,,0,,,,60,64
191580,note_on,40,0,10,,,,,,,,8,,,,65,10
191580,note_on,40,0,5,,,,,,,,3,,,,65,30
191580,note_on,40,0,1,,,,,,,,0,,,,62,30
191580,note_on,40,0,6,,,,,,,,4,,,,62,30
191580,note_on,40,0,11,,,,,,,,10,,,,62,10
191580,note_on,0,0,1,,,,,,,,0,,,,65,30
191660,note_off,0,0,1,,,,,,,,0,,,,62,64
191660,note_off,80,0,11,,,,,,,,10,,,,62,64
191660,note_off,80,0,5,,,,,,,,3,,,,65,64
191660,note_off,80,0,10,,,,,,,,8,,,,65,64
191660,note_off,80,0,6,,,,,,,,4,,,,62,64
191660,note_off,80,0,1,,,,,,,,0,,,,65,64
191820,note_on,160,0,10,,,,,,,,8,,,,65,10
191820,note_on,160,0,11,,,,,,,,10,,,,62,10
191820,note_on,0,0,1,,,,,,,,0,,,,65,30
191820,note_on,160,0,6,,,,,,,,4,,,,62,30
191820,note_on,160,0,1,,,,,,,,0,,,,62,30
191820,note_on,160,0,5,,,,,,,,3,,,,65,30
191900,note_off,80,0,6,,,,,,,,4,,,,62,64
191900,note_off,80,0,5,,,,,,,,3,,,,65,64
191900,note_off,80,0,1,,,,,,,,0,,,,65,64
191900,note_off,0,0,1,,,,,,,,0,,,,62,64
191900,note_off,80,0,11,,,,,,,,10,,,,62,64
191900,note_off,80,0,10,,,,,,,,8,,,,65,64
191940,note_off,840,0,12,,,,,,,,11,,,,58,64
191940,note_off,840,0,2,,,,,,,,0,,,,58,64
191940,note_off,0,0,2,,,,,,,,0,,,,46,64
191940,note_off,840,0,7,,,,,,,,5,,,,58,64
191940,note_off,840,0,15,,,,,,,,14,,,,46,64
191940,note_off,0,0,15,,,,,,,,14,,,,34,64
192060,note_on,120,0,7,,,,,,,,5,,,,58,30
192060,note_on,120,0,2,,,,,,,,0,,,,46,10
192060,note_on,0,0,2,,,,,,,,0,,,,58,10
192060,note_on,0,0,15,,,,,,,,14,,,,46,10
192060,note_on,120,0,12,,,,,,,,11,,,,58,10
192060,note_on,120,0,15,,,,,,,,14,,,,34,10
192300,note_on,0,0,1,,,,,,,,0,,,,65,30
192300,note_on,400,0,10,,,,,,,,8,,,,65,10
192300,note_on,400,0,5,,,,,,,,3,,,,65,30
192300,note_on,400,0,6,,,,,,,,4,,,,62,30
192300,note_on,400,0,11,,,,,,,,10,,,,62,10
192300,note_on,400,0,1,,,,,,,,0,,,,62,30
192380,note_off,80,0,1,,,,,,,,0,,,,65,64
192380,note_off,80,0,11,,,,,,,,10,,,,62,64
192380,note_off,80,0,6,,,,,,,,4,,,,62,64
192380,note_off,80,0,10,,,,,,,,8,,,,65,64
192380,note_off,80,0,5,,,,,,,,3,,,,65,64
192380,note_off,0,0,1,,,,,,,,0,,,,62,64
192420,note_on,40,0,6,,,,,,,,4,,,,60,30
192420,note_on,40,0,11,,,,,,,,10,,,,60,10
192420,note_on,40,0,1,,,,,,,,0,,,,60,30
192420,note_on,0,0,1,,,,,,,,0,,,,64,30
192420,note_on,40,0,5,,,,,,,,3,,,,64,30
192420,note_on,40,0,10,,,,,,,,8,,,,64,10
192500,note_off,80,0,10,,,,,,,,8,,,,64,64
192500,note_off,80,0,6,,,,,,,,4,,,,60,64
192500,note_off,80,0,11,,,,,,,,10,,,,60,64
192500,note_off,80,0,1,,,,,,,,0,,,,64,64
192500,note_off,0,0,1,,,,,,,,0,,,,60,64
192500,note_off,80,0,5,,,,,,,,3,,,,64,64
192540,note_on,40,0,5,,,,,,,,3,,,,65,30
192540,note_on,40,0,11,,,,,,,,10,,,,62,10
192540,note_off,1440,0,3,,,,,,,,1,,,,74,64
192540,note_on,0,0,3,,,,,,,,1,,,,82,37
192540,note_on,40,0,1,,,,,,,,0,,,,62,30
192540,note_on,0,0,1,,,,,,,,0,,,,65,30
192540,note_on,40,0,6,,,,,,,,4,,,,62,30
192540,note_off,1440,0,4,,,,,,,,2,,,,74,64
192540,note_on,0,0,4,,,,,,,,2,,,,82,19
192540,note_on,40,0,10,,,,,,,,8,,,,65,10
192620,note_off,0,0,1,,,,,,,,0,,,,62,64
192620,note_off,80,0,11,,,,,,,,10,,,,62,64
192620,note_off,80,0,5,,,,,,,,3,,,,65,64
192620,note_off,80,0,6,,,,,,,,4,,,,62,64
192620,note_off,80,0,1,,,,,,,,0,,,,65,64
192620,note_off,80,0,10,,,,,,,,8,,,,65,64
192780,note_on,0,0,1,,,,,,,,0,,,,70,30
192780,note_on,160,0,10,,,,,,,,8,,,,70,10
192780,note_on,160,0,5,,,,,,,,3,,,,70,30
192780,note_on,160,0,6,,,,,,,,4,,,,62,30
192780,note_on,160,0,11,,,,,,,,10,,,,62,10
192780,note_on,160,0,1,,,,,,,,0,,,,62,30
192860,note_off,80,0,6,,,,,,,,4,,,,62,64
192860,note_off,80,0,5,,,,,,,,3,,,,70,64
192860,note_off,80,0,10,,,,,,,,8,,,,70,64
192860,note_off,80,0,1,,,,,,,,0,,,,70,64
192860,note_off,80,0,11,,,,,,,,10,,,,62,64
192860,note_off,0,0,1,,,,,,,,0,,,,62,64
192900,note_off,840,0,7,,,,,,,,5,,,,58,64
192900,note_off,840,0,15,,,,,,,,14,,,,46,64
192900,note_off,0,0,15,,,,,,,,14,,,,34,64
192900,note_off,0,0,2,,,,,,,,0,,,,46,64
192900,note_off,840,0,12,,,,,,,,11,,,,58,64
192900,note_off,840,0,2,,,,,,,,0,,,,58,64
192940,note_off,400,0,4,,,,,,,,2,,,,82,64
192940,note_off,400,0,3,,,,,,,,1,,,,82,64
193020,note_on,0,0,2,,,,,,,,0,,,,52,10
193020,note_on,120,0,2,,,,,,,,0,,,,40,10
193020,note_on,80,0,4,,,,,,,,2,,,,73,18
193020,note_on,80,0,3,,,,,,,,1,,,,73,36
193020,note_on,120,0,12,,,,,,,,11,,,,52,10
193020,note_on,0,0,15,,,,,,,,14,,,,40,10
193020,note_on,120,0,15,,,,,,,,14,,,,28,10
193020,note_on,120,0,7,,,,,,,,5,,,,52,30
193260,note_on,400,0,5,,,,,,,,3,,,,70,30
193260,note_on,400,0,11,,,,,,,,10,,,,67,10
193260,note_on,400,0,10,,,,,,,,8,,,,70,10
193260,note_on,0,0,1,,,,,,,,0,,,,70,30
193260,note_on,400,0,1,,,,,,,,0,,,,67,30
193260,note_on,400,0,6,,,,,,,,4,,,,67,30
193340,note_off,0,0,1,,,,,,,,0,,,,67,64
193340,note_off,80,0,1,,,,,,,,0,,,,70,64
193340,note_off,80,0,5,,,,,,,,3,,,,70,64
193340,note_off,80,0,10,,,,,,,,8,,,,70,64
193340,note_off,80,0,6,,,,,,,,4,,,,67,64
193340,note_off,80,0,11,,,,,,,,10,,,,67,64
193380,note_on,40,0,6,,,,,,,,4,,,,65,30
193380,note_on,40,0,1,,,,,,,,0,,,,65,30
193380,note_on,40,0,10,,,,,,,,8,,,,68,10
193380,note_on,40,0,5,,,,,,,,3,,,,68,30
193380,note_on,40,0,11,,,,,,,,10,,,,65,10
193380,note_on,0,0,1,,,,,,,,0,,,,68,30
193460,note_off,0,0,1,,,,,,,,0,,,,65,64
193460,note_off,80,0,11,,,,,,,,10,,,,65,64
193460,note_off,80,0,5,,,,,,,,3,,,,68,64
193460,note_off,80,0,1,,,,,,,,0,,,,68,64
193460,note_off,80,0,10,,,,,,,,8,,,,68,64
193460,note_off,80,0,6,,,,,,,,4,,,,65,64
193500,note_on,40,0,10,,,,,,,,8,,,,70,10
193500,note_on,0,0,1,,,,,,,,0,,,,70,30
193500,note_on,40,0,1,,,,,,,,0,,,,67,30
193500,note_on,40,0,11,,,,,,,,10,,,,67,10
193500,note_on,40,0,6,,,,,,,,4,,,,67,30
193500,note_on,40,0,5,,,,,,,,3,,,,70,30
193580,note_off,80,0,6,,,,,,,,4,,,,67,64
193580,note_off,80,0,10,,,,,,,,8,,,,70,64
193580,note_off,80,0,1,,,,,,,,0,,,,70,64
193580,note_off,80,0,5,,,,,,,,3,,,,70,64
193580,note_off,0,0,1,,,,,,,,0,,,,67,64
193580,note_off,80,0,11,,,,,,,,10,,,,67,64
193740,note_on,160,0,11,,,,,,,,10,,,,67,10
193740,note_on,160,0,10,,,,,,,,8,,,,70,10
193740,note_on,0,0,1,,,,,,,,0,,,,70,30
193740,note_on,160,0,5,,,,,,,,3,,,,70,30
193740,note_on,160,0,6,,,,,,,,4,,,,67,30
193740,note_on,160,0,1,,,,,,,,0,,,,67,30
193820,note_off,80,0,5,,,,,,,,3,,,,70,64
193820,note_off,80,0,11,,,,,,,,10,,,,67,64
193820,note_off,80,0,6,,,,,,,,4,,,,67,64
193820,note_off,80,0,10,,,,,,,,8,,,,70,64
193820,note_off,80,0,1,,,,,,,,0,,,,70,64
193820,note_off,0,0,1,,,,,,,,0,,,,67,64
193860,note_off,840,0,15,,,,,,,,14,,,,40,64
193860,note_off,0,0,15,,,,,,,,14,,,,28,64
193860,note_off,840,0,7,,,,,,,,5,,,,52,64
193860,note_off,0,0,2,,,,,,,,0,,,,40,64
193860,note_off,840,0,12,,,,,,,,11,,,,52,64
193860,note_off,840,0,2,,,,,,,,0,,,,52,64
193980,note_on,0,0,2,,,,,,,,0,,,,52,10
193980,note_on,120,0,7,,,,,,,,5,,,,52,30
193980,note_on,120,0,2,,,,,,,,0,,,,40,10
193980,note_on,120,0,12,,,,,,,,11,,,,52,10
193980,note_on,0,0,15,,,,,,,,14,,,,40,10
193980,note_on,120,0,15,,,,,,,,14,,,,28,10
194220,note_on,400,0,1,,,,,,,,0,,,,67,30
194220,note_on,400,0,10,,,,,,,,8,,,,70,10
194220,note_on,400,0,5,,,,,,,,3,,,,70,30
194220,note_on,400,0,6,,,,,,,,4,,,,67,30
194220,note_on,400,0,11,,,,,,,,10,,,,67,10
194220,note_on,0,0,1,,,,,,,,0,,,,70,30
194300,note_off,80,0,6,,,,,,,,4,,,,67,64
194300,note_off,80,0,1,,,,,,,,0,,,,70,64
194300,note_off,80,0,5,,,,,,,,3,,,,70,64
194300,note_off,80,0,10,,,,,,,,8,,,,70,64
194300,note_off,0,0,1,,,,,,,,0,,,,67,64
194300,note_off,80,0,11,,,,,,,,10,,,,67,64
194340,note_on,40,0,5,,,,,,,,3,,,,68,30
194340,note_on,40,0,11,,,,,,,,10,,,,65,10
194340,note_on,0,0,1,,,,,,,,0,,,,68,30
194340,note_on,40,0,1,,,,,,,,0,,,,65,30
194340,note_on,40,0,6,,,,,,,,4,,,,65,30
194340,note_on,40,0,10,,,,,,,,8,,,,68,10
194420,note_off,80,0,6,,,,,,,,4,,,,65,64
194420,note_off,0,0,1,,,,,,,,0,,,,65,64
194420,note_off,80,0,11,,,,,,,,10,,,,65,64
194420,note_off,80,0,5,,,,,,,,3,,,,68,64
194420,note_off,80,0,1,,,,,,,,0,,,,68,64
194420,note_off,80,0,10,,,,,,,,8,,,,68,64
194460,note_on,0,0,1,,,,,,,,0,,,,70,30
194460,note_on,40,0,1,,,,,,,,0,,,,67,30
194460,note_on,40,0,5,,,,,,,,3,,,,70,30
194460,note_off,1440,0,3,,,,,,,,1,,,,73,64
194460,note_on,40,0,10,,,,,,,,8,,,,70,10
194460,note_off,1440,0,4,,,,,,,,2,,,,73,64
194460,note_on,0,0,4,,,,,,,,2,,,,82,12
194460,note_on,0,0,3,,,,,,,,1,,,,82,32
194460,note_on,40,0,11,,,,,,,,10,,,,67,10
194460,note_on,40,0,6,,,,,,,,4,,,,67,30
194540,note_off,80,0,10,,,,,,,,8,,,,70,64
194540,note_off,80,0,5,,,,,,,,3,,,,70,64
194540,note_off,80,0,11,,,,,,,,10,,,,67,64
194540,note_off,0,0,1,,,,,,,,0,,,,67,64
194540,note_off,80,0,1,,,,,,,,0,,,,70,64
194540,note_off,80,0,6,,,,,,,,4,,,,67,64
194700,note_on,0,0,1,,,,,,,,0,,,,70,30
194700,note_on,160,0,6,,,,,,,,4,,,,73,30
194700,note_on,160,0,10,,,,,,,,8,,,,70,10
194700,note_on,160,0,5,,,,,,,,3,,,,70,30
194700,note_on,160,0,11,,,,,,,,10,,,,73,10
194700,note_on,160,0,1,,,,,,,,0,,,,67,30
194780,note_off,80,0,1,,,,,,,,0,,,,70,64
194780,note_off,0,0,1,,,,,,,,0,,,,67,64
194780,note_off,80,0,5,,,,,,,,3,,,,70,64
194780,note_off,80,0,10,,,,,,,,8,,,,70,64
194780,note_off,80,0,11,,,,,,,,10,,,,73,64
194780,note_off,80,0,6,,,,,,,,4,,,,73,64
194820,note_off,840,0,2,,,,,,,,0,,,,52,64
194820,note_off,0,0,15,,,,,,,,14,,,,28,64
194820,note_off,840,0,7,,,,,,,,5,,,,52,64
194820,note_off,0,0,2,,,,,,,,0,,,,40,64
194820,note_off,840,0,12,,,,,,,,11,,,,52,64
194820,note_off,840,0,15,,,,,,,,14,,,,40,64
194860,note_off,400,0,4,,,,,,,,2,,,,82,64
194860,note_off,400,0,3,,,,,,,,1,,,,82,64
194940,note_on,80,0,3,,,,,,,,1,,,,72,30
194940,note_on,120,0,12,,,,,,,,11,,,,53,10
194940,note_on,0,0,2,,,,,,,,0,,,,53,10
194940,note_on,0,0,15,,,,,,,,14,,,,41,10
194940,note_on,120,0,15,,,,,,,,14,,,,29,10
194940,set_tempo,22080,1,0,967741,,,,,,,,,,,,
194940,note_on,120,0,2,,,,,,,,0,,,,41,10
194940,note_on,80,0,4,,,,,,,,2,,,,72,10
194940,note_on,120,0,7,,,,,,,,5,,,,53,30
195180,note_on,400,0,10,,,,,,,,8,,,,68,10
195180,note_on,0,0,1,,,,,,,,0,,,,68,30
195180,note_on,400,0,1,,,,,,,,0,,,,65,30
195180,note_on,400,0,5,,,,,,,,3,,,,68,30
195180,note_on,400,0,11,,,,,,,,10,,,,65,10
195180,note_on,400,0,6,,,,,,,,4,,,,65,30
195260,note_off,80,0,10,,,,,,,,8,,,,68,64
195260,note_off,80,0,5,,,,,,,,3,,,,68,64
195260,note_off,80,0,1,,,,,,,,0,,,,68,64
195260,note_off,80,0,6,,,,,,,,4,,,,65,64
195260,note_off,0,0,1,,,,,,,,0,,,,65,64
195260,note_off,80,0,11,,,,,,,,10,,,,65,64
195300,note_on,40,0,10,,,,,,,,8,,,,67,10
195300,note_on,40,0,6,,,,,,,,4,,,,64,30
195300,note_on,40,0,5,,,,,,,,3,,,,67,30
195300,note_on,40,0,1,,,,,,,,0,,,,64,30
195300,note_on,0,0,1,,,,,,,,0,,,,67,30
195300,note_on,40,0,11,,,,,,,,10,,,,64,10
195380,note_off,80,0,1,,,,,,,,0,,,,67,64
195380,note_off,80,0,11,,,,,,,,10,,,,64,64
195380,note_off,80,0,5,,,,,,,,3,,,,67,64
195380,note_off,80,0,6,,,,,,,,4,,,,64,64
195380,note_off,0,0,1,,,,,,,,0,,,,64,64
195380,note_off,80,0,10,,,,,,,,8,,,,67,64
195420,note_on,40,0,1,,,,,,,,0,,,,65,30
195420,note_on,40,0,6,,,,,,,,4,,,,65,30
195420,note_on,40,0,10,,,,,,,,8,,,,68,10
195420,note_on,0,0,1,,,,,,,,0,,,,68,30
195420,note_on,40,0,5,,,,,,,,3,,,,68,30
195420,note_on,40,0,11,,,,,,,,10,,,,65,10
195500,note_off,80,0,5,,,,,,,,3,,,,68,64
195500,note_off,80,0,6,,,,,,,,4,,,,65,64
195500,note_off,80,0,1,,,,,,,,0,,,,68,64
195500,note_off,0,0,1,,,,,,,,0,,,,65,64
195500,note_off,80,0,10,,,,,,,,8,,,,68,64
195500,note_off,80,0,11,,,,,,,,10,,,,65,64
195660,note_on,160,0,5,,,,,,,,3,,,,68,30
195660,note_on,160,0,1,,,,,,,,0,,,,65,30
195660,note_on,0,0,1,,,,,,,,0,,,,68,30
195660,note_on,160,0,10,,,,,,,,8,,,,68,10
195660,note_on,160,0,6,,,,,,,,4,,,,65,30
195660,note_on,160,0,11,,,,,,,,10,,,,65,10
195740,note_off,80,0,10,,,,,,,,8,,,,68,64
195740,note_off,0,0,1,,,,,,,,0,,,,65,64
195740,note_off,80,0,1,,,,,,,,0,,,,68,64
195740,note_off,80,0,5,,,,,,,,3,,,,68,64
195740,note_off,80,0,6,,,,,,,,4,,,,65,64
195740,note_off,80,0,11,,,,,,,,10,,,,65,64
195780,note_off,840,0,7,,,,,,,,5,,,,53,64
195780,note_off,840,0,2,,,,,,,,0,,,,53,64
195780,note_off,0,0,15,,,,,,,,14,,,,29,64
195780,note_off,0,0,2,,,,,,,,0,,,,41,64
195780,note_off,840,0,15,,,,,,,,14,,,,41,64
195780,note_off,840,0,12,,,,,,,,11,,,,53,64
195900,note_on,0,0,2,,,,,,,,0,,,,65,10
195900,note_on,120,0,12,,,,,,,,11,,,,65,10
195900,note_on,120,0,15,,,,,,,,14,,,,41,10
195900,note_on,0,0,15,,,,,,,,14,,,,53,10
195900,note_on,120,0,2,,,,,,,,0,,,,53,10
195900,note_on,120,0,7,,,,,,,,5,,,,65,30
196140,note_on,400,0,6,,,,,,,,4,,,,77,30
196140,note_on,400,0,5,,,,,,,,3,,,,80,30
196140,note_on,400,0,10,,,,,,,,8,,,,80,10
196140,note_on,0,0,1,,,,,,,,0,,,,80,30
196140,note_on,400,0,11,,,,,,,,10,,,,77,10
196140,note_on,400,0,1,,,,,,,,0,,,,77,30
196220,note_off,80,0,6,,,,,,,,4,,,,77,64
196220,note_off,80,0,5,,,,,,,,3,,,,80,64
196220,note_off,0,0,1,,,,,,,,0,,,,77,64
196220,note_off,80,0,1,,,,,,,,0,,,,80,64
196220,note_off,80,0,11,,,,,,,,10,,,,77,64
196220,note_off,80,0,10,,,,,,,,8,,,,80,64
196260,note_on,40,0,5,,,,,,,,3,,,,79,30
196260,note_on,0,0,1,,,,,,,,0,,,,79,30
196260,note_on,40,0,1,,,,,,,,0,,,,76,30
196260,note_on,40,0,6,,,,,,,,4,,,,76,30
196260,note_on,40,0,10,,,,,,,,8,,,,79,10
196260,note_on,40,0,11,,,,,,,,10,,,,76,10
196340,note_off,80,0,5,,,,,,,,3,,,,79,64
196340,note_off,0,0,1,,,,,,,,0,,,,76,64
196340,note_off,80,0,1,,,,,,,,0,,,,79,64
196340,note_off,80,0,11,,,,,,,,10,,,,76,64
196340,note_off,80,0,6,,,,,,,,4,,,,76,64
196340,note_off,80,0,10,,,,,,,,8,,,,79,64
196380,note_on,40,0,6,,,,,,,,4,,,,77,30
196380,note_on,40,0,11,,,,,,,,10,,,,77,10
196380,note_on,40,0,10,,,,,,,,8,,,,80,10
196380,note_on,40,0,1,,,,,,,,0,,,,77,30
196380,note_on,0,0,1,,,,,,,,0,,,,80,30
196380,note_on,40,0,5,,,,,,,,3,,,,80,30
196460,note_off,80,0,6,,,,,,,,4,,,,77,64
196460,note_off,80,0,11,,,,,,,,10,,,,77,64
196460,note_off,80,0,10,,,,,,,,8,,,,80,64
196460,note_off,80,0,1,,,,,,,,0,,,,80,64
196460,note_off,0,0,1,,,,,,,,0,,,,77,64
196460,note_off,80,0,5,,,,,,,,3,,,,80,64
196620,note_on,160,0,11,,,,,,,,10,,,,77,10
196620,note_on,160,0,10,,,,,,,,8,,,,80,10
196620,note_on,160,0,5,,,,,,,,3,,,,80,30
196620,note_on,0,0,1,,,,,,,,0,,,,80,30
196620,note_on,160,0,1,,,,,,,,0,,,,77,30
196620,note_on,160,0,6,,,,,,,,4,,,,77,30
196700,note_off,80,0,5,,,,,,,,3,,,,80,64
196700,note_off,80,0,1,,,,,,,,0,,,,80,64
196700,note_off,80,0,10,,,,,,,,8,,,,80,64
196700,note_off,80,0,6,,,,,,,,4,,,,77,64
196700,note_off,0,0,1,,,,,,,,0,,,,77,64
196700,note_off,80,0,11,,,,,,,,10,,,,77,64
196740,note_off,0,0,2,,,,,,,,0,,,,53,64
196740,note_off,840,0,2,,,,,,,,0,,,,65,64
196740,note_off,0,0,15,,,,,,,,14,,,,41,64
196740,note_off,840,0,12,,,,,,,,11,,,,65,64
196740,note_off,840,0,15,,,,,,,,14,,,,53,64
196740,note_off,840,0,7,,,,,,,,5,,,,65,64
196860,note_on,120,0,12,,,,,,,,11,,,,60,10
196860,note_on,120,0,7,,,,,,,,5,,,,60,30
196860,note_on,0,0,15,,,,,,,,14,,,,48,10
196860,note_on,120,0,2,,,,,,,,0,,,,48,10
196860,set_tempo,1920,1,0,1000000,,,,,,,,,,,,
196860,note_on,0,0,2,,,,,,,,0,,,,60,10
196860,note_on,120,0,15,,,,,,,,14,,,,36,10
197100,note_on,0,0,1,,,,,,,,0,,,,79,30
197100,note_on,400,0,5,,,,,,,,3,,,,79,30
197100,note_on,400,0,6,,,,,,,,4,,,,76,30
197100,note_on,400,0,1,,,,,,,,0,,,,76,30
197100,note_on,400,0,10,,,,,,,,8,,,,79,10
197100,note_on,400,0,11,,,,,,,,10,,,,76,10
197180,note_off,80,0,5,,,,,,,,3,,,,79,64
197180,note_off,80,0,6,,,,,,,,4,,,,76,64
197180,note_off,0,0,1,,,,,,,,0,,,,76,64
197180,note_off,80,0,10,,,,,,,,8,,,,79,64
197180,note_off,80,0,11,,,,,,,,10,,,,76,64
197180,note_off,80,0,1,,,,,,,,0,,,,79,64
197220,note_on,40,0,10,,,,,,,,8,,,,77,10
197220,note_on,40,0,5,,,,,,,,3,,,,77,30
197220,note_on,40,0,11,,,,,,,,10,,,,74,10
197220,note_on,40,0,6,,,,,,,,4,,,,74,30
197220,note_on,40,0,1,,,,,,,,0,,,,74,30
197220,note_on,0,0,1,,,,,,,,0,,,,77,30
197300,note_off,80,0,5,,,,,,,,3,,,,77,64
197300,note_off,80,0,10,,,,,,,,8,,,,77,64
197300,note_off,80,0,11,,,,,,,,10,,,,74,64
197300,note_off,0,0,1,,,,,,,,0,,,,74,64
197300,note_off,80,0,1,,,,,,,,0,,,,77,64
197300,note_off,80,0,6,,,,,,,,4,,,,74,64
197340,note_on,0,0,1,,,,,,,,0,,,,79,30
197340,note_on,40,0,5,,,,,,,,3,,,,79,30
197340,note_on,40,0,11,,,,,,,,10,,,,76,10
197340,note_on,40,0,6,,,,,,,,4,,,,76,30
197340,note_on,40,0,1,,,,,,,,0,,,,76,30
197340,note_on,40,0,10,,,,,,,,8,,,,79,10
197420,note_off,80,0,6,,,,,,,,4,,,,76,64
197420,note_off,80,0,5,,,,,,,,3,,,,79,64
197420,note_off,80,0,11,,,,,,,,10,,,,76,64
197420,note_off,80,0,10,,,,,,,,8,,,,79,64
197420,note_off,0,0,1,,,,,,,,0,,,,76,64
197420,note_off,80,0,1,,,,,,,,0,,,,79,64
197580,note_on,160,0,10,,,,,,,,8,,,,79,10
197580,note_on,160,0,6,,,,,,,,4,,,,76,30
197580,note_on,160,0,5,,,,,,,,3,,,,79,30
197580,note_on,160,0,11,,,,,,,,10,,,,76,10
197580,note_on,160,0,1,,,,,,,,0,,,,76,30
197580,note_on,0,0,1,,,,,,,,0,,,,79,30
197660,note_off,0,0,1,,,,,,,,0,,,,76,64
197660,note_off,80,0,6,,,,,,,,4,,,,76,64
197660,note_off,80,0,10,,,,,,,,8,,,,79,64
197660,note_off,80,0,11,,,,,,,,10,,,,76,64
197660,note_off,80,0,1,,,,,,,,0,,,,79,64
197660,note_off,80,0,5,,,,,,,,3,,,,79,64
197700,note_off,0,0,15,,,,,,,,14,,,,36,64
197700,note_off,0,0,2,,,,,,,,0,,,,48,64
197700,note_off,840,0,12,,,,,,,,11,,,,60,64
197700,note_off,840,0,15,,,,,,,,14,,,,48,64
197700,note_off,840,0,2,,,,,,,,0,,,,60,64
197700,note_off,840,0,7,,,,,,,,5,,,,60,64
197820,note_on,120,0,2,,,,,,,,0,,,,41,10
197820,note_on,120,0,12,,,,,,,,11,,,,53,10
197820,note_on,0,0,15,,,,,,,,14,,,,41,10
197820,note_on,120,0,7,,,,,,,,5,,,,53,30
197820,note_on,0,0,2,,,,,,,,0,,,,53,10
197820,note_on,120,0,15,,,,,,,,14,,,,29,10
198060,note_on,0,0,1,,,,,,,,0,,,,68,30
198060,note_on,400,0,10,,,,,,,,8,,,,68,10
198060,note_on,400,0,1,,,,,,,,0,,,,65,30
198060,note_on,400,0,5,,,,,,,,3,,,,68,30
198060,note_on,400,0,6,,,,,,,,4,,,,65,30
198060,note_on,400,0,11,,,,,,,,10,,,,65,10
198140,note_off,80,0,1,,,,,,,,0,,,,68,64
198140,note_off,80,0,5,,,,,,,,3,,,,68,64
198140,note_off,0,0,1,,,,,,,,0,,,,65,64
198140,note_off,80,0,11,,,,,,,,10,,,,65,64
198140,note_off,80,0,10,,,,,,,,8,,,,68,64
198140,note_off,80,0,6,,,,,,,,4,,,,65,64
198180,note_on,40,0,5,,,,,,,,3,,,,67,30
198180,note_on,40,0,11,,,,,,,,10,,,,64,10
198180,note_on,40,0,10,,,,,,,,8,,,,67,10
198180,note_on,0,0,1,,,,,,,,0,,,,67,30
198180,note_on,40,0,1,,,,,,,,0,,,,64,30
198180,note_on,40,0,6,,,,,,,,4,,,,64,30
198260,note_off,80,0,1,,,,,,,,0,,,,67,64
198260,note_off,80,0,5,,,,,,,,3,,,,67,64
198260,note_off,80,0,11,,,,,,,,10,,,,64,64
198260,note_off,80,0,10,,,,,,,,8,,,,67,64
198260,note_off,80,0,6,,,,,,,,4,,,,64,64
198260,note_off,0,0,1,,,,,,,,0,,,,64,64
198300,note_on,40,0,10,,,,,,,,8,,,,68,10
198300,note_on,40,0,5,,,,,,,,3,,,,68,30
198300,note_on,0,0,1,,,,,,,,0,,,,68,30
198300,note_on,40,0,6,,,,,,,,4,,,,65,30
198300,note_on,40,0,1,,,,,,,,0,,,,65,30
198300,note_on,40,0,11,,,,,,,,10,,,,65,10
198380,note_off,80,0,11,,,,,,,,10,,,,65,64
198380,note_off,80,0,5,,,,,,,,3,,,,68,64
198380,note_off,80,0,1,,,,,,,,0,,,,68,64
198380,note_off,0,0,1,,,,,,,,0,,,,65,64
198380,note_off,80,0,6,,,,,,,,4,,,,65,64
198380,note_off,80,0,10,,,,,,,,8,,,,68,64
198540,note_on,0,0,1,,,,,,,,0,,,,68,30
198540,note_on,160,0,1,,,,,,,,0,,,,65,30
198540,note_on,160,0,11,,,,,,,,10,,,,65,10
198540,note_on,160,0,10,,,,,,,,8,,,,68,10
198540,note_on,160,0,5,,,,,,,,3,,,,68,30
198540,note_on,160,0,6,,,,,,,,4,,,,65,30
198620,note_off,80,0,1,,,,,,,,0,,,,68,64
198620,note_off,80,0,11,,,,,,,,10,,,,65,64
198620,note_off,80,0,6,,,,,,,,4,,,,65,64
198620,note_off,80,0,5,,,,,,,,3,,,,68,64
198620,note_off,80,0,10,,,,,,,,8,,,,68,64
198620,note_off,0,0,1,,,,,,,,0,,,,65,64
198660,note_off,0,0,15,,,,,,,,14,,,,29,64
198660,note_off,840,0,7,,,,,,,,5,,,,53,64
198660,note_off,840,0,15,,,,,,,,14,,,,41,64
198660,note_off,840,0,2,,,,,,,,0,,,,53,64
198660,note_off,840,0,12,,,,,,,,11,,,,53,64
198660,note_off,0,0,2,,,,,,,,0,,,,41,64
198780,note_on,120,0,2,,,,,,,,0,,,,36,10
198780,note_on,0,0,15,,,,,,,,14,,,,36,10
198780,note_on,120,0,15,,,,,,,,14,,,,24,10
198780,note_on,0,0,2,,,,,,,,0,,,,48,10
198780,set_tempo,1920,1,0,1034482,,,,,,,,,,,,
198780,note_on,120,0,12,,,,,,,,11,,,,48,10
198780,note_on,120,0,7,,,,,,,,5,,,,48,30
199020,note_on,0,0,1,,,,,,,,0,,,,67,29
199020,note_on,400,0,5,,,,,,,,3,,,,67,29
199020,note_on,400,0,6,,,,,,,,4,,,,64,29
199020,note_on,400,0,10,,,,,,,,8,,,,67,10
199020,note_on,400,0,1,,,,,,,,0,,,,64,29
199020,note_on,400,0,11,,,,,,,,10,,,,64,10
199100,note_off,80,0,1,,,,,,,,0,,,,67,64
199100,note_off,0,0,1,,,,,,,,0,,,,64,64
199100,note_off,80,0,6,,,,,,,,4,,,,64,64
199100,note_off,80,0,11,,,,,,,,10,,,,64,64
199100,note_off,80,0,5,,,,,,,,3,,,,67,64
199100,note_off,80,0,10,,,,,,,,8,,,,67,64
199140,note_on,40,0,5,,,,,,,,3,,,,65,29
199140,note_on,40,0,11,,,,,,,,10,,,,62,10
199140,note_on,0,0,1,,,,,,,,0,,,,65,29
199140,note_on,40,0,1,,,,,,,,0,,,,62,29
199140,note_on,40,0,10,,,,,,,,8,,,,65,10
199140,note_on,40,0,6,,,,,,,,4,,,,62,29
199220,note_off,80,0,10,,,,,,,,8,,,,65,64
199220,note_off,80,0,5,,,,,,,,3,,,,65,64
199220,note_off,80,0,11,,,,,,,,10,,,,62,64
199220,note_off,80,0,1,,,,,,,,0,,,,65,64
199220,note_off,0,0,1,,,,,,,,0,,,,62,64
199220,note_off,80,0,6,,,,,,,,4,,,,62,64
199260,note_on,40,0,10,,,,,,,,8,,,,67,10
199260,note_on,40,0,11,,,,,,,,10,,,,64,10
199260,note_on,40,0,1,,,,,,,,0,,,,64,29
199260,note_on,0,0,1,,,,,,,,0,,,,67,29
199260,note_on,40,0,5,,,,,,,,3,,,,67,29
199260,note_on,40,0,6,,,,,,,,4,,,,64,29
199340,note_off,80,0,10,,,,,,,,8,,,,67,64
199340,note_off,80,0,11,,,,,,,,10,,,,64,64
199340,note_off,80,0,6,,,,,,,,4,,,,64,64
199340,note_off,80,0,1,,,,,,,,0,,,,67,64
199340,note_off,0,0,1,,,,,,,,0,,,,64,64
199340,note_off,80,0,5,,,,,,,,3,,,,67,64
199500,note_on,160,0,6,,,,,,,,4,,,,64,28
199500,note_on,160,0,1,,,,,,,,0,,,,64,28
199500,note_on,160,0,11,,,,,,,,10,,,,64,10
199500,note_on,160,0,5,,,,,,,,3,,,,67,28
199500,note_on,160,0,10,,,,,,,,8,,,,67,10
199500,note_on,0,0,1,,,,,,,,0,,,,67,28
199580,note_off,80,0,1,,,,,,,,0,,,,67,64
199580,note_off,0,0,1,,,,,,,,0,,,,64,64
199580,note_off,80,0,6,,,,,,,,4,,,,64,64
199580,note_off,80,0,11,,,,,,,,10,,,,64,64
199580,note_off,80,0,5,,,,,,,,3,,,,67,64
199580,note_off,80,0,10,,,,,,,,8,,,,67,64
199620,note_off,840,0,2,,,,,,,,0,,,,48,64
199620,note_off,0,0,2,,,,,,,,0,,,,36,64
199620,note_off,840,0,7,,,,,,,,5,,,,48,64
199620,note_off,840,0,12,,,,,,,,11,,,,48,64
199620,note_off,0,0,15,,,,,,,,14,,,,24,64
199620,note_off,840,0,15,,,,,,,,14,,,,36,64
199740,note_on,0,0,15,,,,,,,,14,,,,41,15
199740,note_on,0,0,2,,,,,,,,0,,,,53,10
199740,note_on,120,0,2,,,,,,,,0,,,,41,10
199740,note_on,120,0,12,,,,,,,,11,,,,65,10
199740,note_on,120,0,7,,,,,,,,5,,,,65,25
199740,note_on,120,0,15,,,,,,,,14,,,,29,15
199980,note_on,400,0,6,,,,,,,,4,,,,77,26
199980,note_on,0,0,1,,,,,,,,0,,,,80,26
199980,note_on,400,0,1,,,,,,,,0,,,,77,26
199980,note_on,400,0,5,,,,,,,,3,,,,80,26
199980,note_on,400,0,10,,,,,,,,8,,,,80,10
199980,note_on,400,0,11,,,,,,,,10,,,,77,10
200060,note_off,0,0,1,,,,,,,,0,,,,77,64
200060,note_off,80,0,1,,,,,,,,0,,,,80,64
200060,note_off,80,0,10,,,,,,,,8,,,,80,64
200060,note_off,80,0,6,,,,,,,,4,,,,77,64
200060,note_off,80,0,11,,,,,,,,10,,,,77,64
200060,note_off,80,0,5,,,,,,,,3,,,,80,64
200100,note_on,40,0,5,,,,,,,,3,,,,79,26
200100,note_on,40,0,11,,,,,,,,10,,,,76,10
200100,note_on,40,0,10,,,,,,,,8,,,,79,10
200100,note_on,40,0,1,,,,,,,,0,,,,76,26
200100,note_on,0,0,1,,,,,,,,0,,,,79,26
200100,note_on,40,0,6,,,,,,,,4,,,,76,26
200180,note_off,80,0,10,,,,,,,,8,,,,79,64
200180,note_off,80,0,6,,,,,,,,4,,,,76,64
200180,note_off,80,0,11,,,,,,,,10,,,,76,64
200180,note_off,80,0,1,,,,,,,,0,,,,79,64
200180,note_off,0,0,1,,,,,,,,0,,,,76,64
200180,note_off,80,0,5,,,,,,,,3,,,,79,64
200220,note_on,40,0,11,,,,,,,,10,,,,77,10
200220,note_on,40,0,6,,,,,,,,4,,,,77,26
200220,note_on,0,0,1,,,,,,,,0,,,,80,26
200220,note_on,40,0,10,,,,,,,,8,,,,80,10
200220,note_on,40,0,1,,,,,,,,0,,,,77,26
200220,note_on,40,0,5,,,,,,,,3,,,,80,26
200300,note_off,80,0,1,,,,,,,,0,,,,80,64
200300,note_off,80,0,5,,,,,,,,3,,,,80,64
200300,note_off,0,0,1,,,,,,,,0,,,,77,64
200300,note_off,80,0,10,,,,,,,,8,,,,80,64
200300,note_off,80,0,6,,,,,,,,4,,,,77,64
200300,note_off,80,0,11,,,,,,,,10,,,,77,64
200460,note_on,0,0,1,,,,,,,,0,,,,80,25
200460,note_on,160,0,10,,,,,,,,8,,,,80,10
200460,note_on,160,0,5,,,,,,,,3,,,,80,25
200460,note_on,160,0,11,,,,,,,,10,,,,77,10
200460,note_on,160,0,6,,,,,,,,4,,,,77,25
200460,note_on,160,0,1,,,,,,,,0,,,,77,25
200540,note_off,80,0,1,,,,,,,,0,,,,80,64
200540,note_off,0,0,1,,,,,,,,0,,,,77,64
200540,note_off,80,0,5,,,,,,,,3,,,,80,64
200540,note_off,80,0,11,,,,,,,,10,,,,77,64
200540,note_off,80,0,10,,,,,,,,8,,,,80,64
200540,note_off,80,0,6,,,,,,,,4,,,,77,64
200580,note_off,0,0,15,,,,,,,,14,,,,29,64
200580,note_off,0,0,2,,,,,,,,0,,,,41,64
200580,note_off,840,0,12,,,,,,,,11,,,,65,64
200580,note_off,840,0,15,,,,,,,,14,,,,41,64
200580,note_off,840,0,2,,,,,,,,0,,,,53,64
200580,note_off,840,0,7,,,,,,,,5,,,,65,64
200700,note_on,120,0,12,,,,,,,,11,,,,60,10
200700,note_on,120,0,2,,,,,,,,0,,,,48,10
200700,set_tempo,1920,1,0,1071428,,,,,,,,,,,,
200700,note_on,0,0,2,,,,,,,,0,,,,60,10
200700,note_on,120,0,7,,,,,,,,5,,,,60,20
200700,note_on,0,0,15,,,,,,,,14,,,,48,20
200700,note_on,120,0,15,,,,,,,,14,,,,36,20
200940,note_on,0,0,1,,,,,,,,0,,,,79,23
200940,note_on,400,0,1,,,,,,,,0,,,,76,23
200940,note_on,400,0,5,,,,,,,,3,,,,79,23
200940,note_on,400,0,6,,,,,,,,4,,,,76,23
200940,note_on,400,0,11,,,,,,,,10,,,,76,10
200940,note_on,400,0,10,,,,,,,,8,,,,79,10
201020,note_off,0,0,1,,,,,,,,0,,,,76,64
201020,note_off,80,0,6,,,,,,,,4,,,,76,64
201020,note_off,80,0,5,,,,,,,,3,,,,79,64
201020,note_off,80,0,10,,,,,,,,8,,,,79,64
201020,note_off,80,0,11,,,,,,,,10,,,,76,64
201020,note_off,80,0,1,,,,,,,,0,,,,79,64
201060,note_on,40,0,10,,,,,,,,8,,,,77,10
201060,note_on,40,0,6,,,,,,,,4,,,,74,23
201060,note_on,40,0,5,,,,,,,,3,,,,77,23
201060,note_on,40,0,1,,,,,,,,0,,,,74,23
201060,note_on,0,0,1,,,,,,,,0,,,,77,23
201060,note_on,40,0,11,,,,,,,,10,,,,74,10
201140,note_off,80,0,5,,,,,,,,3,,,,77,64
201140,note_off,80,0,10,,,,,,,,8,,,,77,64
201140,note_off,80,0,1,,,,,,,,0,,,,77,64
201140,note_off,0,0,1,,,,,,,,0,,,,74,64
201140,note_off,80,0,6,,,,,,,,4,,,,74,64
201140,note_off,80,0,11,,,,,,,,10,,,,74,64
201180,note_on,40,0,10,,,,,,,,8,,,,79,10
201180,note_on,40,0,6,,,,,,,,4,,,,76,22
201180,note_on,40,0,11,,,,,,,,10,,,,76,10
201180,note_on,0,0,1,,,,,,,,0,,,,79,22
201180,note_on,40,0,1,,,,,,,,0,,,,76,22
201180,note_on,40,0,5,,,,,,,,3,,,,79,22
201260,note_off,80,0,11,,,,,,,,10,,,,76,64
201260,note_off,80,0,6,,,,,,,,4,,,,76,64
201260,note_off,80,0,5,,,,,,,,3,,,,79,64
201260,note_off,80,0,10,,,,,,,,8,,,,79,64
201260,note_off,80,0,1,,,,,,,,0,,,,79,64
201260,note_off,0,0,1,,,,,,,,0,,,,76,64
201420,note_on,160,0,6,,,,,,,,4,,,,76,20
201420,note_on,160,0,1,,,,,,,,0,,,,76,20
201420,note_on,0,0,1,,,,,,,,0,,,,79,20
201420,note_on,160,0,5,,,,,,,,3,,,,79,20
201420,note_on,160,0,11,,,,,,,,10,,,,76,10
201420,note_on,160,0,10,,,,,,,,8,,,,79,10
201500,note_off,80,0,10,,,,,,,,8,,,,79,64
201500,note_off,80,0,6,,,,,,,,4,,,,76,64
201500,note_off,80,0,11,,,,,,,,10,,,,76,64
201500,note_off,0,0,1,,,,,,,,0,,,,76,64
201500,note_off,80,0,5,,,,,,,,3,,,,79,64
201500,note_off,80,0,1,,,,,,,,0,,,,79,64
201540,note_off,840,0,15,,,,,,,,14,,,,48,64
201540,note_off,840,0,2,,,,,,,,0,,,,60,64
201540,note_off,840,0,12,,,,,,,,11,,,,60,64
201540,note_off,840,0,7,,,,,,,,5,,,,60,64
201540,note_off,0,0,15,,,,,,,,14,,,,36,64
201540,note_off,0,0,2,,,,,,,,0,,,,48,64
201660,note_on,120,0,15,,,,,,,,14,,,,29,25
201660,note_on,0,0,15,,,,,,,,14,,,,41,25
201660,note_on,120,0,2,,,,,,,,0,,,,41,10
201660,note_on,0,0,2,,,,,,,,0,,,,53,10
201660,set_tempo,960,1,0,1111111,,,,,,,,,,,,
201660,note_on,120,0,12,,,,,,,,11,,,,53,10
201660,note_on,120,0,7,,,,,,,,5,,,,53,15
201900,note_on,400,0,11,,,,,,,,10,,,,65,10
201900,note_on,400,0,10,,,,,,,,8,,,,68,10
201900,note_on,400,0,6,,,,,,,,4,,,,65,16
201900,note_on,400,0,5,,,,,,,,3,,,,68,16
201900,note_on,400,0,1,,,,,,,,0,,,,65,16
201900,note_on,0,0,1,,,,,,,,0,,,,68,16
201980,note_off,80,0,6,,,,,,,,4,,,,65,64
201980,note_off,80,0,11,,,,,,,,10,,,,65,64
201980,note_off,0,0,1,,,,,,,,0,,,,65,64
201980,note_off,80,0,5,,,,,,,,3,,,,68,64
201980,note_off,80,0,10,,,,,,,,8,,,,68,64
201980,note_off,80,0,1,,,,,,,,0,,,,68,64
202020,note_on,0,0,1,,,,,,,,0,,,,67,15
202020,note_on,40,0,10,,,,,,,,8,,,,67,10
202020,note_on,40,0,5,,,,,,,,3,,,,67,15
202020,note_on,40,0,6,,,,,,,,4,,,,64,15
202020,note_on,40,0,11,,,,,,,,10,,,,64,10
202020,note_on,40,0,1,,,,,,,,0,,,,64,15
202100,note_off,80,0,11,,,,,,,,10,,,,64,64
202100,note_off,0,0,1,,,,,,,,0,,,,64,64
202100,note_off,80,0,6,,,,,,,,4,,,,64,64
202100,note_off,80,0,1,,,,,,,,0,,,,67,64
202100,note_off,80,0,5,,,,,,,,3,,,,67,64
202100,note_off,80,0,10,,,,,,,,8,,,,67,64
202140,note_on,40,0,6,,,,,,,,4,,,,65,14
202140,note_on,40,0,5,,,,,,,,3,,,,68,14
202140,note_on,0,0,1,,,,,,,,0,,,,68,14
202140,note_on,40,0,1,,,,,,,,0,,,,65,14
202140,note_on,40,0,10,,,,,,,,8,,,,68,10
202140,note_on,40,0,11,,,,,,,,10,,,,65,10
202220,note_off,80,0,10,,,,,,,,8,,,,68,64
202220,note_off,80,0,5,,,,,,,,3,,,,68,64
202220,note_off,80,0,6,,,,,,,,4,,,,65,64
202220,note_off,80,0,11,,,,,,,,10,,,,65,64
202220,note_off,0,0,1,,,,,,,,0,,,,65,64
202220,note_off,80,0,1,,,,,,,,0,,,,68,64
202380,note_on,160,0,1,,,,,,,,0,,,,65,12
202380,note_on,160,0,11,,,,,,,,10,,,,65,10
202380,note_on,160,0,6,,,,,,,,4,,,,65,12
202380,note_on,160,0,5,,,,,,,,3,,,,68,12
202380,note_on,0,0,1,,,,,,,,0,,,,68,12
202380,note_on,160,0,10,,,,,,,,8,,,,68,10
202460,note_off,80,0,6,,,,,,,,4,,,,65,64
202460,note_off,80,0,5,,,,,,,,3,,,,68,64
202460,note_off,80,0,1,,,,,,,,0,,,,68,64
202460,note_off,0,0,1,,,,,,,,0,,,,65,64
202460,note_off,80,0,11,,,,,,,,10,,,,65,64
202460,note_off,80,0,10,,,,,,,,8,,,,68,64
202500,note_off,840,0,2,,,,,,,,0,,,,53,64
202500,note_off,840,0,12,,,,,,,,11,,,,53,64
202500,note_off,0,0,15,,,,,,,,14,,,,29,64
202500,note_off,840,0,15,,,,,,,,14,,,,41,64
202500,note_off,840,0,7,,,,,,,,5,,,,53,64
202500,note_off,0,0,2,,,,,,,,0,,,,41,64
202620,note_on,120,0,7,,,,,,,,5,,,,48,10
202620,set_tempo,960,1,0,1153846,,,,,,,,,,,,
202620,note_on,0,0,15,,,,,,,,14,,,,36,30
202620,note_on,120,0,15,,,,,,,,14,,,,24,30
202620,note_on,120,0,2,,,,,,,,0,,,,36,10
202620,note_on,120,0,12,,,,,,,,11,,,,48,10
202620,note_on,0,0,2,,,,,,,,0,,,,48,10
202860,note_on,400,0,11,,,,,,,,10,,,,64,10
202860,note_on,400,0,1,,,,,,,,0,,,,64,10
202860,note_on,400,0,10,,,,,,,,8,,,,67,10
202860,note_on,400,0,5,,,,,,,,3,,,,67,10
202860,note_on,0,0,1,,,,,,,,0,,,,67,10
202860,note_on,400,0,6,,,,,,,,4,,,,64,10
202940,note_off,80,0,6,,,,,,,,4,,,,64,64
202940,note_off,80,0,10,,,,,,,,8,,,,67,64
202940,note_off,80,0,11,,,,,,,,10,,,,64,64
202940,note_off,0,0,1,,,,,,,,0,,,,64,64
202940,note_off,80,0,1,,,,,,,,0,,,,67,64
202940,note_off,80,0,5,,,,,,,,3,,,,67,64
202980,note_on,40,0,10,,,,,,,,8,,,,65,10
202980,note_on,40,0,11,,,,,,,,10,,,,62,10
202980,note_on,0,0,1,,,,,,,,0,,,,65,10
202980,note_on,40,0,1,,,,,,,,0,,,,62,10
202980,note_on,40,0,6,,,,,,,,4,,,,62,10
202980,note_on,40,0,5,,,,,,,,3,,,,65,10
203060,note_off,80,0,10,,,,,,,,8,,,,65,64
203060,note_off,0,0,1,,,,,,,,0,,,,62,64
203060,note_off,80,0,1,,,,,,,,0,,,,65,64
203060,note_off,80,0,6,,,,,,,,4,,,,62,64
203060,note_off,80,0,11,,,,,,,,10,,,,62,64
203060,note_off,80,0,5,,,,,,,,3,,,,65,64
203100,note_on,40,0,6,,,,,,,,4,,,,64,10
203100,note_on,40,0,5,,,,,,,,3,,,,67,10
203100,note_on,40,0,1,,,,,,,,0,,,,64,10
203100,note_on,0,0,1,,,,,,,,0,,,,67,10
203100,note_on,40,0,10,,,,,,,,8,,,,67,10
203100,note_on,40,0,11,,,,,,,,10,,,,64,10
203180,note_off,80,0,10,,,,,,,,8,,,,67,64
203180,note_off,80,0,6,,,,,,,,4,,,,64,64
203180,note_off,80,0,5,,,,,,,,3,,,,67,64
203180,note_off,0,0,1,,,,,,,,0,,,,64,64
203180,note_off,80,0,1,,,,,,,,0,,,,67,64
203180,note_off,80,0,11,,,,,,,,10,,,,64,64
203340,note_on,160,0,10,,,,,,,,8,,,,67,10
203340,note_on,160,0,1,,,,,,,,0,,,,64,10
203340,note_on,160,0,11,,,,,,,,10,,,,64,10
203340,note_on,160,0,5,,,,,,,,3,,,,67,10
203340,note_on,0,0,1,,,,,,,,0,,,,67,10
203340,note_on,160,0,6,,,,,,,,4,,,,64,10
203420,note_off,80,0,1,,,,,,,,0,,,,67,64
203420,note_off,0,0,1,,,,,,,,0,,,,64,64
203420,end_of_track,0,1,1,,,,,,,,,,,,,
203420,note_off,80,0,5,,,,,,,,3,,,,67,64
203420,note_off,80,0,11,,,,,,,,10,,,,64,64
203420,note_off,80,0,10,,,,,,,,8,,,,67,64
203420,note_off,80,0,6,,,,,,,,4,,,,64,64
204420,note_off,1800,0,2,,,,,,,,0,,,,48,64
204420,note_off,1800,0,15,,,,,,,,14,,,,36,64
204420,note_off,0,0,15,,,,,,,,14,,,,24,64
204420,note_off,9480,0,3,,,,,,,,1,,,,72,64
204420,end_of_track,0,1,3,,,,,,,,,,,,,
204420,note_off,0,0,2,,,,,,,,0,,,,36,64
204420,end_of_track,0,1,2,,,,,,,,,,,,,
204420,note_off,9480,0,4,,,,,,,,2,,,,72,64
204420,end_of_track,0,1,4,,,,,,,,,,,,,
204420,note_off,1800,0,12,,,,,,,,11,,,,48,64
204420,note_off,1800,0,7,,,,,,,,5,,,,48,64
205500,note_on,38120,0,14,,,,,,,,13,,,,41,75
205500,note_on,33680,0,8,,,,,,,,6,,,,53,92
205500,note_on,0,0,5,,,,,,,,3,,,,81,92
205500,note_on,2080,0,5,,,,,,,,3,,,,69,92
205500,note_on,1080,0,7,,,,,,,,5,,,,69,92
205500,note_on,0,0,10,,,,,,,,8,,,,81,75
205500,note_on,2080,0,10,,,,,,,,8,,,,69,75
205500,note_on,1080,0,12,,,,,,,,11,,,,69,75
205500,set_tempo,2880,1,0,500000,,,,,,,,,,,,
205500,note_on,33680,0,13,,,,,,,,12,,,,53,75
205500,note_on,1080,0,15,,,,,,,,14,,,,41,60
205500,note_on,38120,0,9,,,,,,,,7,,,,41,92
205500,note_on,2080,0,6,,,,,,,,4,,,,77,92
205500,note_on,2080,0,11,,,,,,,,10,,,,77,75
205580,note_off,80,0,7,,,,,,,,5,,,,69,64
205580,note_off,80,0,5,,,,,,,,3,,,,81,64
205580,note_off,0,0,5,,,,,,,,3,,,,69,64
205580,note_off,80,0,14,,,,,,,,13,,,,41,64
205580,note_off,80,0,9,,,,,,,,7,,,,41,64
205580,note_off,80,0,8,,,,,,,,6,,,,53,64
205580,note_off,80,0,11,,,,,,,,10,,,,77,64
205580,note_off,80,0,10,,,,,,,,8,,,,81,64
205580,note_off,0,0,10,,,,,,,,8,,,,69,64
205580,note_off,80,0,13,,,,,,,,12,,,,53,64
205580,note_off,80,0,6,,,,,,,,4,,,,77,64
205580,note_off,80,0,12,,,,,,,,11,,,,69,64
205740,note_on,160,0,11,,,,,,,,10,,,,77,75
205740,note_on,0,0,5,,,,,,,,3,,,,81,92
205740,note_on,160,0,7,,,,,,,,5,,,,69,92
205740,note_on,160,0,10,,,,,,,,8,,,,69,75
205740,note_on,160,0,13,,,,,,,,12,,,,53,75
205740,note_on,160,0,8,,,,,,,,6,,,,53,92
205740,note_on,0,0,10,,,,,,,,8,,,,81,75
205740,note_on,160,0,12,,,,,,,,11,,,,69,75
205740,note_on,160,0,14,,,,,,,,13,,,,41,75
205740,note_on,160,0,9,,,,,,,,7,,,,41,92
205740,note_on,160,0,5,,,,,,,,3,,,,69,92
205740,note_on,160,0,6,,,,,,,,4,,,,77,92
205820,note_off,80,0,13,,,,,,,,12,,,,53,64
205820,note_off,80,0,6,,,,,,,,4,,,,77,64
205820,note_off,80,0,8,,,,,,,,6,,,,53,64
205820,note_off,0,0,5,,,,,,,,3,,,,69,64
205820,note_off,0,0,10,,,,,,,,8,,,,69,64
205820,note_off,80,0,12,,,,,,,,11,,,,69,64
205820,note_off,80,0,5,,,,,,,,3,,,,81,64
205820,note_off,80,0,14,,,,,,,,13,,,,41,64
205820,note_off,80,0,11,,,,,,,,10,,,,77,64
205820,note_off,80,0,9,,,,,,,,7,,,,41,64
205820,note_off,80,0,10,,,,,,,,8,,,,81,64
205820,note_off,80,0,7,,,,,,,,5,,,,69,64
205900,note_off,400,0,15,,,,,,,,14,,,,41,64
205980,note_on,160,0,6,,,,,,,,4,,,,77,92
205980,note_on,0,0,5,,,,,,,,3,,,,81,92
205980,note_on,160,0,13,,,,,,,,12,,,,53,75
205980,note_on,160,0,9,,,,,,,,7,,,,41,92
205980,note_on,160,0,5,,,,,,,,3,,,,69,92
205980,note_on,160,0,12,,,,,,,,11,,,,69,75
205980,note_on,160,0,10,,,,,,,,8,,,,69,75
205980,note_on,160,0,11,,,,,,,,10,,,,77,75
205980,note_on,160,0,14,,,,,,,,13,,,,41,75
205980,note_on,160,0,8,,,,,,,,6,,,,53,92
205980,note_on,0,0,10,,,,,,,,8,,,,81,75
205980,note_on,160,0,7,,,,,,,,5,,,,69,92
206060,note_off,80,0,9,,,,,,,,7,,,,41,64
206060,note_off,80,0,13,,,,,,,,12,,,,53,64
206060,note_off,80,0,8,,,,,,,,6,,,,53,64
206060,note_off,0,0,5,,,,,,,,3,,,,69,64
206060,note_off,80,0,5,,,,,,,,3,,,,81,64
206060,note_off,80,0,6,,,,,,,,4,,,,77,64
206060,note_off,80,0,11,,,,,,,,10,,,,77,64
206060,note_off,80,0,10,,,,,,,,8,,,,81,64
206060,note_off,80,0,12,,,,,,,,11,,,,69,64
206060,note_off,80,0,14,,,,,,,,13,,,,41,64
206060,note_off,0,0,10,,,,,,,,8,,,,69,64
206060,note_off,80,0,7,,,,,,,,5,,,,69,64
206220,note_on,160,0,6,,,,,,,,4,,,,79,92
206220,note_on,160,0,14,,,,,,,,13,,,,36,75
206220,note_on,160,0,10,,,,,,,,8,,,,70,75
206220,note_on,320,0,15,,,,,,,,14,,,,36,60
206220,note_on,0,0,10,,,,,,,,8,,,,82,75
206220,note_on,0,0,5,,,,,,,,3,,,,82,92
206220,note_on,160,0,5,,,,,,,,3,,,,70,92
206220,note_on,160,0,11,,,,,,,,10,,,,79,75
206220,note_on,160,0,9,,,,,,,,7,,,,36,92
206220,note_on,160,0,12,,,,,,,,11,,,,64,75
206220,note_on,160,0,13,,,,,,,,12,,,,48,75
206220,note_on,160,0,8,,,,,,,,6,,,,48,92
206220,note_on,160,0,7,,,,,,,,5,,,,64,92
206300,note_off,80,0,5,,,,,,,,3,,,,82,64
206300,note_off,80,0,9,,,,,,,,7,,,,36,64
206300,note_off,80,0,11,,,,,,,,10,,,,79,64
206300,note_off,80,0,14,,,,,,,,13,,,,36,64
206300,note_off,80,0,12,,,,,,,,11,,,,64,64
206300,note_off,80,0,8,,,,,,,,6,,,,48,64
206300,note_off,80,0,6,,,,,,,,4,,,,79,64
206300,note_off,0,0,10,,,,,,,,8,,,,70,64
206300,note_off,80,0,10,,,,,,,,8,,,,82,64
206300,note_off,80,0,13,,,,,,,,12,,,,48,64
206300,note_off,0,0,5,,,,,,,,3,,,,70,64
206300,note_off,80,0,7,,,,,,,,5,,,,64,64
206455,note_off,235,0,15,,,,,,,,14,,,,36,64
206460,note_on,0,0,5,,,,,,,,3,,,,81,92
206460,note_on,160,0,7,,,,,,,,5,,,,69,92
206460,note_on,160,0,5,,,,,,,,3,,,,69,92
206460,note_on,160,0,11,,,,,,,,10,,,,77,75
206460,note_on,160,0,12,,,,,,,,11,,,,69,75
206460,note_on,160,0,6,,,,,,,,4,,,,77,92
206460,note_on,160,0,10,,,,,,,,8,,,,69,75
206460,note_on,0,0,10,,,,,,,,8,,,,81,75
206460,note_on,160,0,9,,,,,,,,7,,,,41,92
206460,note_on,160,0,13,,,,,,,,12,,,,53,75
206460,note_on,160,0,8,,,,,,,,6,,,,53,92
206460,note_on,5,0,15,,,,,,,,14,,,,41,60
206460,note_on,160,0,14,,,,,,,,13,,,,41,75
206860,note_off,400,0,11,,,,,,,,10,,,,77,64
206860,note_off,400,0,9,,,,,,,,7,,,,41,64
206860,note_off,400,0,12,,,,,,,,11,,,,69,64
206860,note_off,400,0,13,,,,,,,,12,,,,53,64
206860,note_off,400,0,5,,,,,,,,3,,,,81,64
206860,note_off,0,0,5,,,,,,,,3,,,,69,64
206860,note_off,400,0,6,,,,,,,,4,,,,77,64
206860,note_off,400,0,14,,,,,,,,13,,,,41,64
206860,note_off,400,0,7,,,,,,,,5,,,,69,64
206860,note_off,400,0,8,,,,,,,,6,,,,53,64
206860,note_off,400,0,15,,,,,,,,14,,,,41,64
206860,note_off,0,0,10,,,,,,,,8,,,,69,64
206860,note_off,400,0,10,,,,,,,,8,,,,81,64
206940,note_on,80,0,14,,,,,,,,13,,,,41,75
206940,note_on,0,0,10,,,,,,,,8,,,,81,75
206940,note_on,80,0,5,,,,,,,,3,,,,69,92
206940,note_on,80,0,10,,,,,,,,8,,,,69,75
206940,note_on,80,0,8,,,,,,,,6,,,,53,92
206940,note_on,0,0,5,,,,,,,,3,,,,81,92
206940,note_on,80,0,13,,,,,,,,12,,,,53,75
206940,note_on,80,0,12,,,,,,,,11,,,,69,75
206940,note_on,80,0,11,,,,,,,,10,,,,77,75
206940,note_on,80,0,6,,,,,,,,4,,,,77,92
206940,note_on,80,0,9,,,,,,,,7,,,,41,92
206940,note_on,80,0,7,,,,,,,,5,,,,69,92
207020,note_off,80,0,6,,,,,,,,4,,,,77,64
207020,note_off,80,0,9,,,,,,,,7,,,,41,64
207020,note_off,0,0,10,,,,,,,,8,,,,69,64
207020,note_off,80,0,13,,,,,,,,12,,,,53,64
207020,note_off,0,0,5,,,,,,,,3,,,,69,64
207020,note_off,80,0,5,,,,,,,,3,,,,81,64
207020,note_off,80,0,7,,,,,,,,5,,,,69,64
207020,note_off,80,0,12,,,,,,,,11,,,,69,64
207020,note_off,80,0,11,,,,,,,,10,,,,77,64
207020,note_off,80,0,10,,,,,,,,8,,,,81,64
207020,note_off,80,0,8,,,,,,,,6,,,,53,64
207020,note_off,80,0,14,,,,,,,,13,,,,41,64
207180,note_on,320,0,15,,,,,,,,14,,,,36,60
207180,note_on,160,0,11,,,,,,,,10,,,,79,75
207180,note_on,0,0,5,,,,,,,,3,,,,82,92
207180,note_on,160,0,5,,,,,,,,3,,,,70,92
207180,note_on,160,0,8,,,,,,,,6,,,,48,92
207180,note_on,160,0,9,,,,,,,,7,,,,36,92
207180,note_on,160,0,14,,,,,,,,13,,,,36,75
207180,note_on,160,0,13,,,,,,,,12,,,,48,75
207180,note_on,160,0,6,,,,,,,,4,,,,79,92
207180,note_on,160,0,10,,,,,,,,8,,,,70,75
207180,note_on,0,0,10,,,,,,,,8,,,,82,75
207180,note_on,160,0,12,,,,,,,,11,,,,64,75
207180,note_on,160,0,7,,,,,,,,5,,,,64,92
207260,note_off,80,0,10,,,,,,,,8,,,,82,64
207260,note_off,80,0,8,,,,,,,,6,,,,48,64
207260,note_off,80,0,12,,,,,,,,11,,,,64,64
207260,note_off,0,0,5,,,,,,,,3,,,,70,64
207260,note_off,80,0,11,,,,,,,,10,,,,79,64
207260,note_off,80,0,13,,,,,,,,12,,,,48,64
207260,note_off,0,0,10,,,,,,,,8,,,,70,64
207260,note_off,80,0,5,,,,,,,,3,,,,82,64
207260,note_off,80,0,7,,,,,,,,5,,,,64,64
207260,note_off,80,0,6,,,,,,,,4,,,,79,64
207260,note_off,80,0,9,,,,,,,,7,,,,36,64
207260,note_off,80,0,14,,,,,,,,13,,,,36,64
207415,note_off,235,0,15,,,,,,,,14,,,,36,64
207420,note_on,160,0,6,,,,,,,,4,,,,77,92
207420,note_on,160,0,11,,,,,,,,10,,,,77,75
207420,note_on,160,0,5,,,,,,,,3,,,,69,92
207420,note_on,160,0,14,,,,,,,,13,,,,41,75
207420,note_on,160,0,8,,,,,,,,6,,,,53,92
207420,note_on,160,0,7,,,,,,,,5,,,,69,92
207420,note_on,0,0,10,,,,,,,,8,,,,81,75
207420,note_on,160,0,10,,,,,,,,8,,,,69,75
207420,note_on,5,0,15,,,,,,,,14,,,,41,60
207420,note_on,160,0,9,,,,,,,,7,,,,41,92
207420,note_on,160,0,12,,,,,,,,11,,,,69,75
207420,note_on,160,0,13,,,,,,,,12,,,,53,75
207420,note_on,0,0,5,,,,,,,,3,,,,81,92
207500,note_off,80,0,11,,,,,,,,10,,,,77,64
207500,note_off,0,0,10,,,,,,,,8,,,,69,64
207500,note_off,80,0,14,,,,,,,,13,,,,41,64
207500,note_off,80,0,10,,,,,,,,8,,,,81,64
207500,note_off,0,0,5,,,,,,,,3,,,,69,64
207500,note_off,80,0,12,,,,,,,,11,,,,69,64
207500,note_off,80,0,5,,,,,,,,3,,,,81,64
207500,note_off,80,0,7,,,,,,,,5,,,,69,64
207500,note_off,80,0,13,,,,,,,,12,,,,53,64
207500,note_off,80,0,6,,,,,,,,4,,,,77,64
207500,note_off,80,0,8,,,,,,,,6,,,,53,64
207500,note_off,80,0,9,,,,,,,,7,,,,41,64
207660,note_on,160,0,12,,,,,,,,11,,,,69,75
207660,note_on,160,0,7,,,,,,,,5,,,,69,92
207660,note_on,160,0,6,,,,,,,,4,,,,77,92
207660,note_on,160,0,9,,,,,,,,7,,,,41,92
207660,note_on,160,0,5,,,,,,,,3,,,,69,92
207660,note_on,0,0,5,,,,,,,,3,,,,81,92
207660,note_on,160,0,13,,,,,,,,12,,,,53,75
207660,note_on,0,0,10,,,,,,,,8,,,,81,75
207660,note_on,160,0,11,,,,,,,,10,,,,77,75
207660,note_on,160,0,14,,,,,,,,13,,,,41,75
207660,note_on,160,0,10,,,,,,,,8,,,,69,75
207660,note_on,160,0,8,,,,,,,,6,,,,53,92
207740,note_off,80,0,6,,,,,,,,4,,,,77,64
207740,note_off,80,0,5,,,,,,,,3,,,,81,64
207740,note_off,0,0,5,,,,,,,,3,,,,69,64
207740,note_off,80,0,8,,,,,,,,6,,,,53,64
207740,note_off,80,0,7,,,,,,,,5,,,,69,64
207740,note_off,80,0,10,,,,,,,,8,,,,81,64
207740,note_off,80,0,13,,,,,,,,12,,,,53,64
207740,note_off,0,0,10,,,,,,,,8,,,,69,64
207740,note_off,80,0,9,,,,,,,,7,,,,41,64
207740,note_off,80,0,14,,,,,,,,13,,,,41,64
207740,note_off,80,0,12,,,,,,,,11,,,,69,64
207740,note_off,80,0,11,,,,,,,,10,,,,77,64
207820,note_off,400,0,15,,,,,,,,14,,,,41,64
207900,note_on,160,0,9,,,,,,,,7,,,,41,92
207900,note_on,160,0,8,,,,,,,,6,,,,53,92
207900,note_on,0,0,10,,,,,,,,8,,,,81,75
207900,note_on,160,0,13,,,,,,,,12,,,,53,75
207900,note_on,160,0,6,,,,,,,,4,,,,77,92
207900,note_on,160,0,10,,,,,,,,8,,,,69,75
207900,note_on,160,0,12,,,,,,,,11,,,,69,75
207900,note_on,160,0,11,,,,,,,,10,,,,77,75
207900,note_on,160,0,14,,,,,,,,13,,,,41,75
207900,note_on,160,0,5,,,,,,,,3,,,,69,92
207900,note_on,0,0,5,,,,,,,,3,,,,81,92
207900,note_on,160,0,7,,,,,,,,5,,,,69,92
207980,note_off,80,0,12,,,,,,,,11,,,,69,64
207980,note_off,0,0,10,,,,,,,,8,,,,69,64
207980,note_off,80,0,10,,,,,,,,8,,,,81,64
207980,note_off,80,0,11,,,,,,,,10,,,,77,64
207980,note_off,80,0,9,,,,,,,,7,,,,41,64
207980,note_off,80,0,7,,,,,,,,5,,,,69,64
207980,note_off,80,0,8,,,,,,,,6,,,,53,64
207980,note_off,80,0,5,,,,,,,,3,,,,81,64
207980,note_off,80,0,13,,,,,,,,12,,,,53,64
207980,note_off,80,0,14,,,,,,,,13,,,,41,64
207980,note_off,0,0,5,,,,,,,,3,,,,69,64
207980,note_off,80,0,6,,,,,,,,4,,,,77,64
208140,note_on,160,0,11,,,,,,,,10,,,,79,75
208140,note_on,160,0,8,,,,,,,,6,,,,48,92
208140,note_on,160,0,13,,,,,,,,12,,,,48,75
208140,note_on,160,0,7,,,,,,,,5,,,,64,92
208140,note_on,0,0,5,,,,,,,,3,,,,82,92
208140,note_on,160,0,5,,,,,,,,3,,,,70,92
208140,note_on,160,0,14,,,,,,,,13,,,,36,75
208140,note_on,320,0,15,,,,,,,,14,,,,36,60
208140,note_on,160,0,12,,,,,,,,11,,,,64,75
208140,note_on,160,0,6,,,,,,,,4,,,,79,92
208140,note_on,160,0,9,,,,,,,,7,,,,36,92
208140,note_on,160,0,10,,,,,,,,8,,,,70,75
208140,note_on,0,0,10,,,,,,,,8,,,,82,75
208220,note_off,80,0,13,,,,,,,,12,,,,48,64
208220,note_off,80,0,11,,,,,,,,10,,,,79,64
208220,note_off,80,0,6,,,,,,,,4,,,,79,64
208220,note_off,80,0,8,,,,,,,,6,,,,48,64
208220,note_off,80,0,14,,,,,,,,13,,,,36,64
208220,note_off,80,0,5,,,,,,,,3,,,,82,64
208220,note_off,80,0,10,,,,,,,,8,,,,82,64
208220,note_off,0,0,10,,,,,,,,8,,,,70,64
208220,note_off,80,0,9,,,,,,,,7,,,,36,64
208220,note_off,80,0,12,,,,,,,,11,,,,64,64
208220,note_off,0,0,5,,,,,,,,3,,,,70,64
208220,note_off,80,0,7,,,,,,,,5,,,,64,64
208375,note_off,235,0,15,,,,,,,,14,,,,36,64
208380,note_on,160,0,13,,,,,,,,12,,,,53,75
208380,note_on,160,0,11,,,,,,,,10,,,,77,75
208380,note_on,160,0,6,,,,,,,,4,,,,77,92
208380,note_on,160,0,7,,,,,,,,5,,,,69,92
208380,note_on,0,0,5,,,,,,,,3,,,,81,92
208380,note_on,160,0,5,,,,,,,,3,,,,69,92
208380,note_on,160,0,14,,,,,,,,13,,,,41,75
208380,note_on,5,0,15,,,,,,,,14,,,,41,60
208380,note_on,160,0,12,,,,,,,,11,,,,69,75
208380,note_on,0,0,10,,,,,,,,8,,,,81,75
208380,note_on,160,0,10,,,,,,,,8,,,,69,75
208380,note_on,160,0,8,,,,,,,,6,,,,53,92
208380,note_on,160,0,9,,,,,,,,7,,,,41,92
208780,note_off,400,0,6,,,,,,,,4,,,,77,64
208780,note_off,400,0,7,,,,,,,,5,,,,69,64
208780,note_off,400,0,15,,,,,,,,14,,,,41,64
208780,note_off,0,0,10,,,,,,,,8,,,,69,64
208780,note_off,400,0,10,,,,,,,,8,,,,81,64
208780,note_off,400,0,5,,,,,,,,3,,,,81,64
208780,note_off,0,0,5,,,,,,,,3,,,,69,64
208780,note_off,400,0,8,,,,,,,,6,,,,53,64
208780,note_off,400,0,13,,,,,,,,12,,,,53,64
208780,note_off,400,0,12,,,,,,,,11,,,,69,64
208780,note_off,400,0,11,,,,,,,,10,,,,77,64
208780,note_off,400,0,9,,,,,,,,7,,,,41,64
208780,note_off,400,0,14,,,,,,,,13,,,,41,64
208860,note_on,80,0,14,,,,,,,,13,,,,41,75
208860,note_on,80,0,8,,,,,,,,6,,,,53,92
208860,note_on,80,0,11,,,,,,,,10,,,,77,75
208860,note_on,0,0,5,,,,,,,,3,,,,81,92
208860,note_on,80,0,12,,,,,,,,11,,,,69,75
208860,note_on,80,0,13,,,,,,,,12,,,,53,75
208860,note_on,80,0,9,,,,,,,,7,,,,41,92
208860,note_on,80,0,7,,,,,,,,5,,,,69,92
208860,note_on,80,0,5,,,,,,,,3,,,,69,92
208860,note_on,80,0,6,,,,,,,,4,,,,77,92
208860,note_on,0,0,10,,,,,,,,8,,,,81,75
208860,note_on,80,0,10,,,,,,,,8,,,,69,75
208940,note_off,80,0,11,,,,,,,,10,,,,77,64
208940,note_off,80,0,12,,,,,,,,11,,,,69,64
208940,note_off,80,0,13,,,,,,,,12,,,,53,64
208940,note_off,80,0,8,,,,,,,,6,,,,53,64
208940,note_off,0,0,5,,,,,,,,3,,,,69,64
208940,note_off,80,0,5,,,,,,,,3,,,,81,64
208940,note_off,80,0,6,,,,,,,,4,,,,77,64
208940,note_off,80,0,14,,,,,,,,13,,,,41,64
208940,note_off,0,0,10,,,,,,,,8,,,,69,64
208940,note_off,80,0,10,,,,,,,,8,,,,81,64
208940,note_off,80,0,7,,,,,,,,5,,,,69,64
208940,note_off,80,0,9,,,,,,,,7,,,,41,64
209100,note_on,0,0,5,,,,,,,,3,,,,82,92
209100,note_on,160,0,13,,,,,,,,12,,,,48,75
209100,note_on,160,0,10,,,,,,,,8,,,,70,75
209100,note_on,160,0,6,,,,,,,,4,,,,79,92
209100,note_on,0,0,10,,,,,,,,8,,,,82,75
209100,note_on,160,0,14,,,,,,,,13,,,,36,75
209100,note_on,160,0,8,,,,,,,,6,,,,48,92
209100,note_on,160,0,7,,,,,,,,5,,,,64,92
209100,note_on,160,0,5,,,,,,,,3,,,,70,92
209100,note_on,160,0,11,,,,,,,,10,,,,79,75
209100,note_on,160,0,9,,,,,,,,7,,,,36,92
209100,note_on,320,0,15,,,,,,,,14,,,,36,60
209100,note_on,160,0,12,,,,,,,,11,,,,64,75
209180,note_off,0,0,10,,,,,,,,8,,,,70,64
209180,note_off,80,0,12,,,,,,,,11,,,,64,64
209180,note_off,80,0,6,,,,,,,,4,,,,79,64
209180,note_off,80,0,13,,,,,,,,12,,,,48,64
209180,note_off,80,0,8,,,,,,,,6,,,,48,64
209180,note_off,80,0,14,,,,,,,,13,,,,36,64
209180,note_off,80,0,11,,,,,,,,10,,,,79,64
209180,note_off,80,0,10,,,,,,,,8,,,,82,64
209180,note_off,80,0,7,,,,,,,,5,,,,64,64
209180,note_off,80,0,9,,,,,,,,7,,,,36,64
209180,note_off,80,0,5,,,,,,,,3,,,,82,64
209180,note_off,0,0,5,,,,,,,,3,,,,70,64
209335,note_off,235,0,15,,,,,,,,14,,,,36,64
209340,note_on,160,0,11,,,,,,,,10,,,,77,75
209340,note_on,160,0,14,,,,,,,,13,,,,41,75
209340,note_on,5,0,15,,,,,,,,14,,,,41,60
209340,note_on,160,0,9,,,,,,,,7,,,,41,92
209340,note_on,160,0,6,,,,,,,,4,,,,77,92
209340,note_on,160,0,7,,,,,,,,5,,,,69,92
209340,note_on,160,0,12,,,,,,,,11,,,,69,75
209340,note_on,160,0,13,,,,,,,,12,,,,53,75
209340,note_on,160,0,10,,,,,,,,8,,,,69,75
209340,note_on,0,0,10,,,,,,,,8,,,,81,75
209340,note_on,0,0,5,,,,,,,,3,,,,81,92
209340,note_on,160,0,5,,,,,,,,3,,,,69,92
209340,note_on,160,0,8,,,,,,,,6,,,,53,92
209370,note_off,30,0,11,,,,,,,,10,,,,77,64
209370,note_on,0,0,5,,,,,,,,3,,,,82,92
209370,note_on,0,0,5,,,,,,,,3,,,,70,92
209370,note_off,0,0,5,,,,,,,,3,,,,69,64
209370,note_off,30,0,6,,,,,,,,4,,,,77,64
209370,note_on,0,0,6,,,,,,,,4,,,,79,92
209370,note_off,30,0,5,,,,,,,,3,,,,81,64
209370,note_off,0,0,10,,,,,,,,8,,,,69,64
209370,note_on,0,0,11,,,,,,,,10,,,,79,75
209370,note_off,30,0,10,,,,,,,,8,,,,81,64
209370,note_on,0,0,10,,,,,,,,8,,,,70,75
209370,note_on,0,0,10,,,,,,,,8,,,,82,75
209400,note_off,30,0,10,,,,,,,,8,,,,82,64
209400,note_on,0,0,10,,,,,,,,8,,,,81,75
209400,note_on,0,0,6,,,,,,,,4,,,,77,92
209400,note_off,0,0,10,,,,,,,,8,,,,70,64
209400,note_off,30,0,6,,,,,,,,4,,,,79,64
209400,note_off,0,0,5,,,,,,,,3,,,,70,64
209400,note_off,30,0,5,,,,,,,,3,,,,82,64
209400,note_on,0,0,11,,,,,,,,10,,,,77,75
209400,note_off,30,0,11,,,,,,,,10,,,,79,64
209400,note_on,0,0,10,,,,,,,,8,,,,69,75
209400,note_on,0,0,5,,,,,,,,3,,,,81,92
209400,note_on,0,0,5,,,,,,,,3,,,,69,92
209420,note_off,80,0,7,,,,,,,,5,,,,69,64
209420,note_off,80,0,13,,,,,,,,12,,,,53,64
209420,note_off,80,0,14,,,,,,,,13,,,,41,64
209420,note_off,80,0,9,,,,,,,,7,,,,41,64
209420,note_off,80,0,12,,,,,,,,11,,,,69,64
209420,note_off,80,0,8,,,,,,,,6,,,,53,64
209430,note_off,30,0,5,,,,,,,,3,,,,81,64
209430,note_off,30,0,6,,,,,,,,4,,,,77,64
209430,note_on,0,0,11,,,,,,,,10,,,,79,75
209430,note_on,0,0,5,,,,,,,,3,,,,70,92
209430,note_on,0,0,5,,,,,,,,3,,,,82,92
209430,note_off,30,0,11,,,,,,,,10,,,,77,64
209430,note_on,0,0,6,,,,,,,,4,,,,79,92
209430,note_off,30,0,10,,,,,,,,8,,,,81,64
209430,note_off,0,0,5,,,,,,,,3,,,,69,64
209430,note_on,0,0,10,,,,,,,,8,,,,82,75
209430,note_off,0,0,10,,,,,,,,8,,,,69,64
209430,note_on,0,0,10,,,,,,,,8,,,,70,75
209460,note_off,30,0,10,,,,,,,,8,,,,82,64
209460,note_on,0,0,6,,,,,,,,4,,,,77,92
209460,note_on,0,0,5,,,,,,,,3,,,,81,92
209460,note_on,0,0,10,,,,,,,,8,,,,81,75
209460,note_off,30,0,6,,,,,,,,4,,,,79,64
209460,note_off,30,0,11,,,,,,,,10,,,,79,64
209460,note_off,0,0,10,,,,,,,,8,,,,70,64
209460,note_off,30,0,5,,,,,,,,3,,,,82,64
209460,note_off,0,0,5,,,,,,,,3,,,,70,64
209460,note_on,0,0,5,,,,,,,,3,,,,69,92
209460,note_on,0,0,11,,,,,,,,10,,,,77,75
209460,note_on,0,0,10,,,,,,,,8,,,,69,75
209490,note_off,0,0,10,,,,,,,,8,,,,69,64
209490,note_on,0,0,11,,,,,,,,10,,,,79,75
209490,note_off,30,0,10,,,,,,,,8,,,,81,64
209490,note_off,30,0,11,,,,,,,,10,,,,77,64
209490,note_off,30,0,6,,,,,,,,4,,,,77,64
209490,note_on,0,0,6,,,,,,,,4,,,,79,92
209490,note_on,0,0,5,,,,,,,,3,,,,82,92
209490,note_on,0,0,5,,,,,,,,3,,,,70,92
209490,note_off,0,0,5,,,,,,,,3,,,,69,64
209490,note_off,30,0,5,,,,,,,,3,,,,81,64
209490,note_on,0,0,10,,,,,,,,8,,,,70,75
209490,note_on,0,0,10,,,,,,,,8,,,,82,75
209520,note_off,0,0,10,,,,,,,,8,,,,70,64
209520,note_on,0,0,5,,,,,,,,3,,,,81,92
209520,note_on,0,0,10,,,,,,,,8,,,,69,75
209520,note_on,0,0,10,,,,,,,,8,,,,81,75
209520,note_on,0,0,11,,,,,,,,10,,,,77,75
209520,note_off,30,0,11,,,,,,,,10,,,,79,64
209520,note_on,0,0,5,,,,,,,,3,,,,69,92
209520,note_off,0,0,5,,,,,,,,3,,,,70,64
209520,note_off,30,0,5,,,,,,,,3,,,,82,64
209520,note_off,30,0,6,,,,,,,,4,,,,79,64
209520,note_on,0,0,6,,,,,,,,4,,,,77,92
209520,note_off,30,0,10,,,,,,,,8,,,,82,64
209550,note_on,0,0,10,,,,,,,,8,,,,82,75
209550,note_on,0,0,5,,,,,,,,3,,,,82,92
209550,note_off,30,0,10,,,,,,,,8,,,,81,64
209550,note_off,0,0,10,,,,,,,,8,,,,69,64
209550,note_on,0,0,10,,,,,,,,8,,,,70,75
209550,note_on,0,0,5,,,,,,,,3,,,,70,92
209550,note_off,30,0,5,,,,,,,,3,,,,81,64
209550,note_off,30,0,6,,,,,,,,4,,,,77,64
209550,note_off,0,0,5,,,,,,,,3,,,,69,64
209550,note_off,30,0,11,,,,,,,,10,,,,77,64
209550,note_on,0,0,11,,,,,,,,10,,,,79,75
209550,note_on,0,0,6,,,,,,,,4,,,,79,92
209580,note_off,30,0,6,,,,,,,,4,,,,79,64
209580,note_on,0,0,6,,,,,,,,4,,,,76,92
209580,note_on,160,0,9,,,,,,,,7,,,,41,92
209580,note_on,160,0,13,,,,,,,,12,,,,53,75
209580,note_off,0,0,5,,,,,,,,3,,,,70,64
209580,note_off,30,0,5,,,,,,,,3,,,,82,64
209580,note_on,0,0,5,,,,,,,,3,,,,67,92
209580,note_on,0,0,11,,,,,,,,10,,,,76,75
209580,note_off,30,0,11,,,,,,,,10,,,,79,64
209580,note_on,160,0,8,,,,,,,,6,,,,53,92
209580,note_on,160,0,14,,,,,,,,13,,,,41,75
209580,set_tempo,4080,1,0,535714,,,,,,,,,,,,
209580,note_on,160,0,7,,,,,,,,5,,,,69,92
209580,note_on,160,0,12,,,,,,,,11,,,,69,75
209580,note_on,0,0,5,,,,,,,,3,,,,79,92
209580,note_on,0,0,10,,,,,,,,8,,,,79,75
209580,note_off,30,0,10,,,,,,,,8,,,,82,64
209580,note_off,0,0,10,,,,,,,,8,,,,70,64
209580,note_on,0,0,10,,,,,,,,8,,,,67,75
209660,note_off,0,0,10,,,,,,,,8,,,,67,64
209660,note_off,80,0,9,,,,,,,,7,,,,41,64
209660,note_off,80,0,11,,,,,,,,10,,,,76,64
209660,note_off,80,0,13,,,,,,,,12,,,,53,64
209660,note_off,80,0,5,,,,,,,,3,,,,79,64
209660,note_off,0,0,5,,,,,,,,3,,,,67,64
209660,note_off,80,0,8,,,,,,,,6,,,,53,64
209660,note_off,80,0,6,,,,,,,,4,,,,76,64
209660,note_off,80,0,14,,,,,,,,13,,,,41,64
209660,note_off,80,0,10,,,,,,,,8,,,,79,64
209660,note_off,80,0,12,,,,,,,,11,,,,69,64
209660,note_off,80,0,7,,,,,,,,5,,,,69,64
209700,note_on,40,0,6,,,,,,,,4,,,,77,92
209700,note_on,40,0,5,,,,,,,,3,,,,69,92
209700,note_on,0,0,5,,,,,,,,3,,,,81,92
209700,note_on,0,0,10,,,,,,,,8,,,,81,75
209700,note_on,40,0,11,,,,,,,,10,,,,77,75
209700,note_on,40,0,10,,,,,,,,8,,,,69,75
209740,note_off,400,0,15,,,,,,,,14,,,,41,64
209780,note_off,80,0,5,,,,,,,,3,,,,81,64
209780,note_off,80,0,10,,,,,,,,8,,,,81,64
209780,note_off,0,0,10,,,,,,,,8,,,,69,64
209780,note_off,0,0,5,,,,,,,,3,,,,69,64
209780,note_off,80,0,11,,,,,,,,10,,,,77,64
209780,note_off,80,0,6,,,,,,,,4,,,,77,64
209820,note_on,160,0,13,,,,,,,,12,,,,46,75
209820,note_on,160,0,9,,,,,,,,7,,,,34,92
209820,note_on,40,0,11,,,,,,,,10,,,,79,75
209820,note_on,160,0,12,,,,,,,,11,,,,62,75
209820,note_on,160,0,8,,,,,,,,6,,,,46,92
209820,note_on,0,0,5,,,,,,,,3,,,,82,92
209820,note_on,160,0,14,,,,,,,,13,,,,34,75
209820,note_on,80,0,15,,,,,,,,14,,,,34,60
209820,note_on,40,0,5,,,,,,,,3,,,,70,92
209820,note_on,160,0,7,,,,,,,,5,,,,62,92
209820,note_on,0,0,10,,,,,,,,8,,,,82,75
209820,note_on,40,0,10,,,,,,,,8,,,,70,75
209820,note_on,40,0,6,,,,,,,,4,,,,79,92
209900,note_off,80,0,14,,,,,,,,13,,,,34,64
209900,note_off,80,0,8,,,,,,,,6,,,,46,64
209900,note_off,0,0,5,,,,,,,,3,,,,70,64
209900,note_off,80,0,5,,,,,,,,3,,,,82,64
209900,note_off,80,0,9,,,,,,,,7,,,,34,64
209900,note_off,80,0,11,,,,,,,,10,,,,79,64
209900,note_off,80,0,12,,,,,,,,11,,,,62,64
209900,note_off,0,0,10,,,,,,,,8,,,,70,64
209900,note_off,80,0,7,,,,,,,,5,,,,62,64
209900,note_off,80,0,10,,,,,,,,8,,,,82,64
209900,note_off,80,0,6,,,,,,,,4,,,,79,64
209900,note_off,80,0,13,,,,,,,,12,,,,46,64
210055,note_off,235,0,15,,,,,,,,14,,,,34,64
210060,note_on,160,0,6,,,,,,,,4,,,,77,92
210060,note_on,5,0,15,,,,,,,,14,,,,35,60
210060,note_on,160,0,14,,,,,,,,13,,,,35,75
210060,note_on,160,0,7,,,,,,,,5,,,,62,92
210060,note_on,160,0,9,,,,,,,,7,,,,35,92
210060,note_on,160,0,13,,,,,,,,12,,,,47,75
210060,note_on,160,0,8,,,,,,,,6,,,,47,92
210060,note_on,160,0,12,,,,,,,,11,,,,62,75
210060,note_on,0,0,10,,,,,,,,8,,,,81,75
210060,note_on,0,0,5,,,,,,,,3,,,,81,92
210060,note_on,160,0,10,,,,,,,,8,,,,69,75
210060,note_on,160,0,5,,,,,,,,3,,,,69,92
210060,note_on,160,0,11,,,,,,,,10,,,,77,75
210140,note_off,80,0,9,,,,,,,,7,,,,35,64
210140,note_off,0,0,5,,,,,,,,3,,,,69,64
210140,note_off,80,0,11,,,,,,,,10,,,,77,64
210140,note_off,80,0,10,,,,,,,,8,,,,81,64
210140,note_off,80,0,12,,,,,,,,11,,,,62,64
210140,note_off,80,0,14,,,,,,,,13,,,,35,64
210140,note_off,80,0,13,,,,,,,,12,,,,47,64
210140,note_off,0,0,10,,,,,,,,8,,,,69,64
210140,note_off,80,0,8,,,,,,,,6,,,,47,64
210140,note_off,80,0,6,,,,,,,,4,,,,77,64
210140,note_off,80,0,5,,,,,,,,3,,,,81,64
210140,note_off,80,0,7,,,,,,,,5,,,,62,64
210295,note_off,235,0,15,,,,,,,,14,,,,35,64
210300,note_on,160,0,12,,,,,,,,11,,,,64,75
210300,note_on,0,0,10,,,,,,,,8,,,,79,75
210300,note_on,160,0,7,,,,,,,,5,,,,64,92
210300,note_on,160,0,8,,,,,,,,6,,,,48,92
210300,note_on,160,0,14,,,,,,,,13,,,,36,75
210300,note_on,160,0,5,,,,,,,,3,,,,67,92
210300,note_on,0,0,5,,,,,,,,3,,,,79,92
210300,set_tempo,720,1,0,500000,,,,,,,,,,,,
210300,note_on,160,0,9,,,,,,,,7,,,,36,92
210300,note_on,5,0,15,,,,,,,,14,,,,36,60
210300,note_on,160,0,6,,,,,,,,4,,,,76,92
210300,note_on,160,0,10,,,,,,,,8,,,,67,75
210300,note_on,160,0,11,,,,,,,,10,,,,76,75
210300,note_on,160,0,13,,,,,,,,12,,,,48,75
210700,note_off,400,0,9,,,,,,,,7,,,,36,64
210700,note_off,400,0,12,,,,,,,,11,,,,64,64
210700,note_off,0,0,5,,,,,,,,3,,,,67,64
210700,note_off,400,0,6,,,,,,,,4,,,,76,64
210700,note_off,400,0,5,,,,,,,,3,,,,79,64
210700,note_off,0,0,10,,,,,,,,8,,,,67,64
210700,note_off,400,0,10,,,,,,,,8,,,,79,64
210700,note_off,400,0,8,,,,,,,,6,,,,48,64
210700,note_off,400,0,14,,,,,,,,13,,,,36,64
210700,note_off,400,0,15,,,,,,,,14,,,,36,64
210700,note_off,400,0,11,,,,,,,,10,,,,76,64
210700,note_off,400,0,13,,,,,,,,12,,,,48,64
210700,note_off,400,0,7,,,,,,,,5,,,,64,64
211380,note_on,680,0,14,,,,,,,,13,,,,41,75
211380,note_on,680,0,8,,,,,,,,6,,,,53,92
211380,note_on,680,0,15,,,,,,,,14,,,,41,60
211380,note_on,0,0,5,,,,,,,,3,,,,81,92
211380,note_on,680,0,5,,,,,,,,3,,,,69,92
211380,note_on,680,0,6,,,,,,,,4,,,,77,92
211380,note_on,680,0,11,,,,,,,,10,,,,77,75
211380,note_on,680,0,10,,,,,,,,8,,,,69,75
211380,note_on,680,0,13,,,,,,,,12,,,,53,75
211380,note_on,680,0,9,,,,,,,,7,,,,41,92
211380,note_on,0,0,10,,,,,,,,8,,,,81,75
211380,set_tempo,1080,1,0,500000,,,,,,,,,,,,
211380,note_on,680,0,7,,,,,,,,5,,,,72,92
211380,note_on,680,0,12,,,,,,,,11,,,,72,75
211460,note_off,80,0,12,,,,,,,,11,,,,72,64
211460,note_off,80,0,14,,,,,,,,13,,,,41,64
211460,note_off,80,0,6,,,,,,,,4,,,,77,64
211460,note_off,80,0,7,,,,,,,,5,,,,72,64
211460,note_off,80,0,8,,,,,,,,6,,,,53,64
211460,note_off,80,0,13,,,,,,,,12,,,,53,64
211460,note_off,0,0,10,,,,,,,,8,,,,69,64
211460,note_off,80,0,11,,,,,,,,10,,,,77,64
211460,note_off,0,0,5,,,,,,,,3,,,,69,64
211460,note_off,80,0,5,,,,,,,,3,,,,81,64
211460,note_off,80,0,9,,,,,,,,7,,,,41,64
211460,note_off,80,0,10,,,,,,,,8,,,,81,64
211620,note_on,160,0,9,,,,,,,,7,,,,45,92
211620,note_on,160,0,10,,,,,,,,8,,,,69,75
211620,note_on,160,0,7,,,,,,,,5,,,,72,92
211620,note_on,160,0,13,,,,,,,,12,,,,57,75
211620,note_on,160,0,12,,,,,,,,11,,,,72,75
211620,note_on,160,0,14,,,,,,,,13,,,,45,75
211620,note_on,160,0,8,,,,,,,,6,,,,57,92
211620,note_on,160,0,6,,,,,,,,4,,,,77,92
211620,note_on,160,0,5,,,,,,,,3,,,,69,92
211620,note_on,0,0,5,,,,,,,,3,,,,81,92
211620,note_on,160,0,11,,,,,,,,10,,,,77,75
211620,note_on,0,0,10,,,,,,,,8,,,,81,75
211700,note_off,80,0,14,,,,,,,,13,,,,45,64
211700,note_off,0,0,5,,,,,,,,3,,,,69,64
211700,note_off,80,0,13,,,,,,,,12,,,,57,64
211700,note_off,80,0,11,,,,,,,,10,,,,77,64
211700,note_off,80,0,8,,,,,,,,6,,,,57,64
211700,note_off,80,0,10,,,,,,,,8,,,,81,64
211700,note_off,80,0,9,,,,,,,,7,,,,45,64
211700,note_off,80,0,7,,,,,,,,5,,,,72,64
211700,note_off,80,0,12,,,,,,,,11,,,,72,64
211700,note_off,80,0,6,,,,,,,,4,,,,77,64
211700,note_off,80,0,5,,,,,,,,3,,,,81,64
211700,note_off,0,0,10,,,,,,,,8,,,,69,64
211780,note_off,400,0,15,,,,,,,,14,,,,41,64
211860,note_on,160,0,7,,,,,,,,5,,,,72,92
211860,note_on,160,0,14,,,,,,,,13,,,,45,75
211860,note_on,160,0,12,,,,,,,,11,,,,72,75
211860,note_on,160,0,8,,,,,,,,6,,,,57,92
211860,note_on,160,0,6,,,,,,,,4,,,,77,92
211860,note_on,160,0,9,,,,,,,,7,,,,45,92
211860,note_on,160,0,5,,,,,,,,3,,,,69,92
211860,note_on,0,0,10,,,,,,,,8,,,,81,75
211860,note_on,160,0,13,,,,,,,,12,,,,57,75
211860,note_on,160,0,11,,,,,,,,10,,,,77,75
211860,note_on,0,0,5,,,,,,,,3,,,,81,92
211860,note_on,160,0,10,,,,,,,,8,,,,69,75
211940,note_off,0,0,5,,,,,,,,3,,,,69,64
211940,note_off,80,0,13,,,,,,,,12,,,,57,64
211940,note_off,80,0,9,,,,,,,,7,,,,45,64
211940,note_off,80,0,14,,,,,,,,13,,,,45,64
211940,note_off,80,0,12,,,,,,,,11,,,,72,64
211940,note_off,0,0,10,,,,,,,,8,,,,69,64
211940,note_off,80,0,6,,,,,,,,4,,,,77,64
211940,note_off,80,0,7,,,,,,,,5,,,,72,64
211940,note_off,80,0,11,,,,,,,,10,,,,77,64
211940,note_off,80,0,10,,,,,,,,8,,,,81,64
211940,note_off,80,0,8,,,,,,,,6,,,,57,64
211940,note_off,80,0,5,,,,,,,,3,,,,81,64
212100,note_on,160,0,11,,,,,,,,10,,,,81,75
212100,note_on,0,0,5,,,,,,,,3,,,,84,92
212100,note_on,160,0,5,,,,,,,,3,,,,72,92
212100,note_on,320,0,15,,,,,,,,14,,,,41,60
212100,note_on,0,0,10,,,,,,,,8,,,,84,75
212100,note_on,160,0,9,,,,,,,,7,,,,41,92
212100,note_on,160,0,13,,,,,,,,12,,,,53,75
212100,note_on,160,0,10,,,,,,,,8,,,,72,75
212100,note_on,160,0,14,,,,,,,,13,,,,41,75
212100,note_on,160,0,7,,,,,,,,5,,,,72,92
212100,note_on,160,0,12,,,,,,,,11,,,,72,75
212100,note_on,160,0,8,,,,,,,,6,,,,53,92
212100,note_on,160,0,6,,,,,,,,4,,,,81,92
212180,note_off,80,0,12,,,,,,,,11,,,,72,64
212180,note_off,0,0,10,,,,,,,,8,,,,72,64
212180,note_off,80,0,7,,,,,,,,5,,,,72,64
212180,note_off,80,0,6,,,,,,,,4,,,,81,64
212180,note_off,80,0,13,,,,,,,,12,,,,53,64
212180,note_off,80,0,5,,,,,,,,3,,,,84,64
212180,note_off,80,0,14,,,,,,,,13,,,,41,64
212180,note_off,0,0,5,,,,,,,,3,,,,72,64
212180,note_off,80,0,8,,,,,,,,6,,,,53,64
212180,note_off,80,0,9,,,,,,,,7,,,,41,64
212180,note_off,80,0,11,,,,,,,,10,,,,81,64
212180,note_off,80,0,10,,,,,,,,8,,,,84,64
212335,note_off,235,0,15,,,,,,,,14,,,,41,64
212340,note_on,160,0,6,,,,,,,,4,,,,70,92
212340,note_on,160,0,10,,,,,,,,8,,,,62,75
212340,note_on,160,0,14,,,,,,,,13,,,,43,75
212340,note_on,0,0,5,,,,,,,,3,,,,74,92
212340,note_on,160,0,13,,,,,,,,12,,,,55,75
212340,note_on,160,0,11,,,,,,,,10,,,,70,75
212340,note_on,160,0,12,,,,,,,,11,,,,70,75
212340,note_on,5,0,15,,,,,,,,14,,,,43,60
212340,note_on,160,0,9,,,,,,,,7,,,,43,92
212340,note_on,160,0,8,,,,,,,,6,,,,55,92
212340,note_on,160,0,7,,,,,,,,5,,,,70,92
212340,note_on,0,0,10,,,,,,,,8,,,,74,75
212340,note_on,160,0,5,,,,,,,,3,,,,62,92
212740,note_off,400,0,12,,,,,,,,11,,,,70,64
212740,note_off,400,0,9,,,,,,,,7,,,,43,64
212740,note_off,400,0,10,,,,,,,,8,,,,74,64
212740,note_off,400,0,7,,,,,,,,5,,,,70,64
212740,note_off,400,0,8,,,,,,,,6,,,,55,64
212740,note_off,400,0,11,,,,,,,,10,,,,70,64
212740,note_off,400,0,13,,,,,,,,12,,,,55,64
212740,note_off,400,0,6,,,,,,,,4,,,,70,64
212740,note_off,400,0,15,,,,,,,,14,,,,43,64
212740,note_off,0,0,10,,,,,,,,8,,,,62,64
212740,note_off,400,0,14,,,,,,,,13,,,,43,64
212740,note_off,400,0,5,,,,,,,,3,,,,74,64
212740,note_off,0,0,5,,,,,,,,3,,,,62,64
212820,note_on,80,0,8,,,,,,,,6,,,,55,92
212820,note_on,0,0,10,,,,,,,,8,,,,74,75
212820,note_on,80,0,10,,,,,,,,8,,,,62,75
212820,note_on,80,0,9,,,,,,,,7,,,,43,92
212820,note_on,0,0,5,,,,,,,,3,,,,74,92
212820,note_on,80,0,7,,,,,,,,5,,,,70,92
212820,note_on,80,0,12,,,,,,,,11,,,,70,75
212820,note_on,80,0,14,,,,,,,,13,,,,43,75
212820,note_on,80,0,13,,,,,,,,12,,,,55,75
212820,note_on,80,0,11,,,,,,,,10,,,,70,75
212820,note_on,80,0,5,,,,,,,,3,,,,62,92
212820,note_on,80,0,6,,,,,,,,4,,,,70,92
212900,note_off,80,0,12,,,,,,,,11,,,,70,64
212900,note_off,80,0,14,,,,,,,,13,,,,43,64
212900,note_off,80,0,6,,,,,,,,4,,,,70,64
212900,note_off,80,0,9,,,,,,,,7,,,,43,64
212900,note_off,80,0,10,,,,,,,,8,,,,74,64
212900,note_off,80,0,7,,,,,,,,5,,,,70,64
212900,note_off,0,0,10,,,,,,,,8,,,,62,64
212900,note_off,80,0,13,,,,,,,,12,,,,55,64
212900,note_off,80,0,8,,,,,,,,6,,,,55,64
212900,note_off,80,0,11,,,,,,,,10,,,,70,64
212900,note_off,80,0,5,,,,,,,,3,,,,74,64
212900,note_off,0,0,5,,,,,,,,3,,,,62,64
213060,note_on,160,0,6,,,,,,,,4,,,,70,92
213060,note_on,160,0,14,,,,,,,,13,,,,43,75
213060,note_on,0,0,5,,,,,,,,3,,,,74,92
213060,note_on,160,0,5,,,,,,,,3,,,,62,92
213060,note_on,160,0,11,,,,,,,,10,,,,70,75
213060,note_on,160,0,8,,,,,,,,6,,,,55,92
213060,note_on,160,0,13,,,,,,,,12,,,,55,75
213060,note_on,160,0,9,,,,,,,,7,,,,43,92
213060,note_on,160,0,7,,,,,,,,5,,,,70,92
213060,note_on,160,0,10,,,,,,,,8,,,,62,75
213060,note_on,320,0,15,,,,,,,,14,,,,43,60
213060,note_on,160,0,12,,,,,,,,11,,,,70,75
213060,note_on,0,0,10,,,,,,,,8,,,,74,75
213140,note_off,0,0,10,,,,,,,,8,,,,62,64
213140,note_off,80,0,6,,,,,,,,4,,,,70,64
213140,note_off,80,0,5,,,,,,,,3,,,,74,64
213140,note_off,0,0,5,,,,,,,,3,,,,62,64
213140,note_off,80,0,8,,,,,,,,6,,,,55,64
213140,note_off,80,0,10,,,,,,,,8,,,,74,64
213140,note_off,80,0,13,,,,,,,,12,,,,55,64
213140,note_off,80,0,12,,,,,,,,11,,,,70,64
213140,note_off,80,0,7,,,,,,,,5,,,,70,64
213140,note_off,80,0,9,,,,,,,,7,,,,43,64
213140,note_off,80,0,11,,,,,,,,10,,,,70,64
213140,note_off,80,0,14,,,,,,,,13,,,,43,64
213295,note_off,235,0,15,,,,,,,,14,,,,43,64
213300,note_on,160,0,13,,,,,,,,12,,,,55,75
213300,note_on,160,0,11,,,,,,,,10,,,,76,75
213300,note_on,160,0,8,,,,,,,,6,,,,55,92
213300,note_on,160,0,9,,,,,,,,7,,,,43,92
213300,note_on,0,0,10,,,,,,,,8,,,,79,75
213300,note_on,5,0,15,,,,,,,,14,,,,43,60
213300,note_on,160,0,10,,,,,,,,8,,,,67,75
213300,note_on,0,0,5,,,,,,,,3,,,,79,92
213300,note_on,160,0,7,,,,,,,,5,,,,70,92
213300,note_on,160,0,12,,,,,,,,11,,,,70,75
213300,note_on,160,0,6,,,,,,,,4,,,,76,92
213300,note_on,160,0,14,,,,,,,,13,,,,43,75
213300,note_on,160,0,5,,,,,,,,3,,,,67,92
213380,note_off,80,0,9,,,,,,,,7,,,,43,64
213380,note_off,80,0,11,,,,,,,,10,,,,76,64
213380,note_off,80,0,7,,,,,,,,5,,,,70,64
213380,note_off,80,0,13,,,,,,,,12,,,,55,64
213380,note_off,80,0,5,,,,,,,,3,,,,79,64
213380,note_off,0,0,10,,,,,,,,8,,,,67,64
213380,note_off,80,0,14,,,,,,,,13,,,,43,64
213380,note_off,80,0,12,,,,,,,,11,,,,70,64
213380,note_off,80,0,8,,,,,,,,6,,,,55,64
213380,note_off,80,0,10,,,,,,,,8,,,,79,64
213380,note_off,80,0,6,,,,,,,,4,,,,76,64
213380,note_off,0,0,5,,,,,,,,3,,,,67,64
213540,note_on,160,0,5,,,,,,,,3,,,,67,92
213540,note_on,160,0,7,,,,,,,,5,,,,70,92
213540,note_on,0,0,10,,,,,,,,8,,,,79,75
213540,note_on,160,0,9,,,,,,,,7,,,,48,92
213540,note_on,160,0,11,,,,,,,,10,,,,76,75
213540,note_on,160,0,14,,,,,,,,13,,,,48,75
213540,note_on,160,0,12,,,,,,,,11,,,,70,75
213540,note_on,160,0,13,,,,,,,,12,,,,60,75
213540,note_on,160,0,8,,,,,,,,6,,,,60,92
213540,note_on,0,0,5,,,,,,,,3,,,,79,92
213540,note_on,160,0,10,,,,,,,,8,,,,67,75
213540,note_on,160,0,6,,,,,,,,4,,,,76,92
213620,note_off,80,0,11,,,,,,,,10,,,,76,64
213620,note_off,0,0,10,,,,,,,,8,,,,67,64
213620,note_off,80,0,10,,,,,,,,8,,,,79,64
213620,note_off,80,0,8,,,,,,,,6,,,,60,64
213620,note_off,80,0,9,,,,,,,,7,,,,48,64
213620,note_off,0,0,5,,,,,,,,3,,,,67,64
213620,note_off,80,0,5,,,,,,,,3,,,,79,64
213620,note_off,80,0,13,,,,,,,,12,,,,60,64
213620,note_off,80,0,12,,,,,,,,11,,,,70,64
213620,note_off,80,0,14,,,,,,,,13,,,,48,64
213620,note_off,80,0,6,,,,,,,,4,,,,76,64
213620,note_off,80,0,7,,,,,,,,5,,,,70,64
213700,note_off,400,0,15,,,,,,,,14,,,,43,64
213780,note_on,160,0,11,,,,,,,,10,,,,76,75
213780,note_on,160,0,5,,,,,,,,3,,,,67,92
213780,note_on,160,0,12,,,,,,,,11,,,,70,75
213780,note_on,160,0,7,,,,,,,,5,,,,70,92
213780,note_on,0,0,10,,,,,,,,8,,,,79,75
213780,note_on,160,0,14,,,,,,,,13,,,,48,75
213780,note_on,160,0,8,,,,,,,,6,,,,60,92
213780,note_on,160,0,13,,,,,,,,12,,,,60,75
213780,note_on,160,0,9,,,,,,,,7,,,,48,92
213780,note_on,160,0,6,,,,,,,,4,,,,76,92
213780,note_on,160,0,10,,,,,,,,8,,,,67,75
213780,note_on,0,0,5,,,,,,,,3,,,,79,92
213860,note_off,80,0,9,,,,,,,,7,,,,48,64
213860,note_off,80,0,6,,,,,,,,4,,,,76,64
213860,note_off,0,0,5,,,,,,,,3,,,,67,64
213860,note_off,0,0,10,,,,,,,,8,,,,67,64
213860,note_off,80,0,11,,,,,,,,10,,,,76,64
213860,note_off,80,0,13,,,,,,,,12,,,,60,64
213860,note_off,80,0,8,,,,,,,,6,,,,60,64
213860,note_off,80,0,10,,,,,,,,8,,,,79,64
213860,note_off,80,0,5,,,,,,,,3,,,,79,64
213860,note_off,80,0,12,,,,,,,,11,,,,70,64
213860,note_off,80,0,14,,,,,,,,13,,,,48,64
213860,note_off,80,0,7,,,,,,,,5,,,,70,64
214020,note_on,0,0,5,,,,,,,,3,,,,82,92
214020,note_on,160,0,9,,,,,,,,7,,,,36,92
214020,note_on,160,0,5,,,,,,,,3,,,,70,92
214020,note_on,160,0,11,,,,,,,,10,,,,79,75
214020,note_on,160,0,14,,,,,,,,13,,,,36,75
214020,note_on,160,0,10,,,,,,,,8,,,,70,75
214020,note_on,160,0,13,,,,,,,,12,,,,48,75
214020,note_on,320,0,15,,,,,,,,14,,,,36,60
214020,note_on,160,0,7,,,,,,,,5,,,,70,92
214020,note_on,160,0,8,,,,,,,,6,,,,48,92
214020,note_on,160,0,6,,,,,,,,4,,,,79,92
214020,note_on,0,0,10,,,,,,,,8,,,,82,75
214020,note_on,160,0,12,,,,,,,,11,,,,70,75
214100,note_off,80,0,7,,,,,,,,5,,,,70,64
214100,note_off,80,0,13,,,,,,,,12,,,,48,64
214100,note_off,80,0,12,,,,,,,,11,,,,70,64
214100,note_off,0,0,5,,,,,,,,3,,,,70,64
214100,note_off,0,0,10,,,,,,,,8,,,,70,64
214100,note_off,80,0,11,,,,,,,,10,,,,79,64
214100,note_off,80,0,14,,,,,,,,13,,,,36,64
214100,note_off,80,0,8,,,,,,,,6,,,,48,64
214100,note_off,80,0,10,,,,,,,,8,,,,82,64
214100,note_off,80,0,6,,,,,,,,4,,,,79,64
214100,note_off,80,0,5,,,,,,,,3,,,,82,64
214100,note_off,80,0,9,,,,,,,,7,,,,36,64
214255,note_off,235,0,15,,,,,,,,14,,,,36,64
214260,note_on,160,0,8,,,,,,,,6,,,,53,92
214260,note_on,160,0,7,,,,,,,,5,,,,69,92
214260,note_on,160,0,13,,,,,,,,12,,,,53,75
214260,note_on,160,0,5,,,,,,,,3,,,,60,92
214260,note_on,160,0,10,,,,,,,,8,,,,60,75
214260,note_on,160,0,9,,,,,,,,7,,,,41,92
214260,note_on,0,0,5,,,,,,,,3,,,,72,92
214260,note_on,160,0,12,,,,,,,,11,,,,69,75
214260,note_on,0,0,10,,,,,,,,8,,,,72,75
214260,note_on,160,0,11,,,,,,,,10,,,,69,75
214260,note_on,160,0,14,,,,,,,,13,,,,41,75
214260,note_on,5,0,15,,,,,,,,14,,,,41,60
214260,note_on,160,0,6,,,,,,,,4,,,,69,92
214660,note_off,0,0,5,,,,,,,,3,,,,60,64
214660,note_off,400,0,11,,,,,,,,10,,,,69,64
214660,note_off,400,0,15,,,,,,,,14,,,,41,64
214660,note_off,400,0,12,,,,,,,,11,,,,69,64
214660,note_off,400,0,13,,,,,,,,12,,,,53,64
214660,note_off,400,0,9,,,,,,,,7,,,,41,64
214660,note_off,400,0,6,,,,,,,,4,,,,69,64
214660,note_off,400,0,10,,,,,,,,8,,,,72,64
214660,note_off,400,0,8,,,,,,,,6,,,,53,64
214660,note_off,0,0,10,,,,,,,,8,,,,60,64
214660,note_off,400,0,7,,,,,,,,5,,,,69,64
214660,note_off,400,0,14,,,,,,,,13,,,,41,64
214660,note_off,400,0,5,,,,,,,,3,,,,72,64
214740,note_on,80,0,5,,,,,,,,3,,,,60,69
214740,note_on,80,0,12,,,,,,,,11,,,,69,53
214740,note_on,0,0,10,,,,,,,,8,,,,72,53
214740,note_on,80,0,14,,,,,,,,13,,,,41,53
214740,note_on,80,0,9,,,,,,,,7,,,,41,69
214740,note_on,0,0,5,,,,,,,,3,,,,72,69
214740,note_on,80,0,10,,,,,,,,8,,,,60,53
214740,note_on,80,0,11,,,,,,,,10,,,,69,53
214740,note_on,80,0,6,,,,,,,,4,,,,69,69
214740,note_on,80,0,8,,,,,,,,6,,,,53,69
214740,note_on,80,0,13,,,,,,,,12,,,,53,53
214740,note_on,80,0,7,,,,,,,,5,,,,69,69
214820,note_off,80,0,5,,,,,,,,3,,,,72,64
214820,note_off,80,0,12,,,,,,,,11,,,,69,64
214820,note_off,80,0,8,,,,,,,,6,,,,53,64
214820,note_off,80,0,10,,,,,,,,8,,,,72,64
214820,note_off,0,0,10,,,,,,,,8,,,,60,64
214820,note_off,80,0,6,,,,,,,,4,,,,69,64
214820,note_off,80,0,14,,,,,,,,13,,,,41,64
214820,note_off,80,0,13,,,,,,,,12,,,,53,64
214820,note_off,80,0,7,,,,,,,,5,,,,69,64
214820,note_off,80,0,11,,,,,,,,10,,,,69,64
214820,note_off,0,0,5,,,,,,,,3,,,,60,64
214820,note_off,80,0,9,,,,,,,,7,,,,41,64
214980,note_on,160,0,9,,,,,,,,7,,,,41,57
214980,note_on,160,0,12,,,,,,,,11,,,,69,42
214980,note_on,160,0,6,,,,,,,,4,,,,74,57
214980,note_on,0,0,5,,,,,,,,3,,,,77,57
214980,note_on,160,0,7,,,,,,,,5,,,,69,57
214980,note_on,160,0,11,,,,,,,,10,,,,74,42
214980,note_on,160,0,8,,,,,,,,6,,,,53,57
214980,note_on,160,0,13,,,,,,,,12,,,,53,42
214980,note_on,160,0,5,,,,,,,,3,,,,65,57
214980,note_on,320,0,15,,,,,,,,14,,,,41,49
214980,note_on,160,0,14,,,,,,,,13,,,,41,42
214980,note_on,160,0,10,,,,,,,,8,,,,65,42
214980,note_on,0,0,10,,,,,,,,8,,,,77,42
215060,note_off,80,0,6,,,,,,,,4,,,,74,64
215060,note_off,80,0,11,,,,,,,,10,,,,74,64
215060,note_off,80,0,14,,,,,,,,13,,,,41,64
215060,note_off,80,0,13,,,,,,,,12,,,,53,64
215060,note_off,80,0,8,,,,,,,,6,,,,53,64
215060,note_off,80,0,7,,,,,,,,5,,,,69,64
215060,note_off,0,0,10,,,,,,,,8,,,,65,64
215060,note_off,80,0,12,,,,,,,,11,,,,69,64
215060,note_off,80,0,10,,,,,,,,8,,,,77,64
215060,note_off,80,0,9,,,,,,,,7,,,,41,64
215060,note_off,80,0,5,,,,,,,,3,,,,77,64
215060,note_off,0,0,5,,,,,,,,3,,,,65,64
215215,note_off,235,0,15,,,,,,,,14,,,,41,64
215220,note_on,160,0,11,,,,,,,,10,,,,77,30
215220,note_on,160,0,6,,,,,,,,4,,,,77,45
215220,note_on,160,0,9,,,,,,,,7,,,,41,45
215220,note_on,5,0,15,,,,,,,,14,,,,41,45
215220,note_on,160,0,8,,,,,,,,6,,,,53,45
215220,note_on,0,0,5,,,,,,,,3,,,,81,45
215220,note_on,160,0,5,,,,,,,,3,,,,69,45
215220,note_on,160,0,12,,,,,,,,11,,,,69,30
215220,note_on,160,0,13,,,,,,,,12,,,,53,30
215220,note_on,160,0,14,,,,,,,,13,,,,41,30
215220,note_on,160,0,7,,,,,,,,5,,,,69,45
215220,note_on,0,0,10,,,,,,,,8,,,,81,30
215220,note_on,160,0,10,,,,,,,,8,,,,69,30
215300,note_off,80,0,10,,,,,,,,8,,,,81,64
215300,note_off,0,0,10,,,,,,,,8,,,,69,64
215300,note_off,80,0,14,,,,,,,,13,,,,41,64
215300,note_off,80,0,8,,,,,,,,6,,,,53,64
215300,note_off,0,0,5,,,,,,,,3,,,,69,64
215300,note_off,80,0,11,,,,,,,,10,,,,77,64
215300,note_off,80,0,5,,,,,,,,3,,,,81,64
215300,note_off,80,0,13,,,,,,,,12,,,,53,64
215300,note_off,80,0,7,,,,,,,,5,,,,69,64
215300,note_off,80,0,6,,,,,,,,4,,,,77,64
215300,note_off,80,0,9,,,,,,,,7,,,,41,64
215300,note_off,80,0,12,,,,,,,,11,,,,69,64
215460,note_on,160,0,7,,,,,,,,5,,,,69,45
215460,note_on,0,0,10,,,,,,,,8,,,,81,30
215460,note_on,160,0,10,,,,,,,,8,,,,69,30
215460,note_on,160,0,12,,,,,,,,11,,,,69,30
215460,note_on,160,0,9,,,,,,,,7,,,,41,45
215460,note_on,0,0,5,,,,,,,,3,,,,81,45
215460,note_on,160,0,14,,,,,,,,13,,,,41,30
215460,note_on,160,0,13,,,,,,,,12,,,,53,30
215460,note_on,160,0,8,,,,,,,,6,,,,53,45
215460,note_on,160,0,6,,,,,,,,4,,,,77,45
215460,note_on,160,0,11,,,,,,,,10,,,,77,30
215460,note_on,160,0,5,,,,,,,,3,,,,69,45
215540,note_off,80,0,14,,,,,,,,13,,,,41,64
215540,note_off,80,0,13,,,,,,,,12,,,,53,64
215540,note_off,80,0,8,,,,,,,,6,,,,53,64
215540,note_off,80,0,9,,,,,,,,7,,,,41,64
215540,note_off,0,0,10,,,,,,,,8,,,,69,64
215540,note_off,80,0,10,,,,,,,,8,,,,81,64
215540,note_off,0,0,5,,,,,,,,3,,,,69,64
215540,note_off,80,0,11,,,,,,,,10,,,,77,64
215540,note_off,80,0,6,,,,,,,,4,,,,77,64
215540,note_off,80,0,7,,,,,,,,5,,,,69,64
215540,note_off,80,0,12,,,,,,,,11,,,,69,64
215540,note_off,80,0,5,,,,,,,,3,,,,81,64
215620,note_off,400,0,15,,,,,,,,14,,,,41,64
215700,note_on,160,0,8,,,,,,,,6,,,,53,45
215700,note_on,160,0,11,,,,,,,,10,,,,77,30
215700,note_on,160,0,7,,,,,,,,5,,,,69,45
215700,note_on,160,0,9,,,,,,,,7,,,,41,45
215700,note_on,160,0,10,,,,,,,,8,,,,69,30
215700,note_on,160,0,13,,,,,,,,12,,,,53,30
215700,note_on,160,0,14,,,,,,,,13,,,,41,30
215700,note_on,0,0,10,,,,,,,,8,,,,81,30
215700,note_on,160,0,6,,,,,,,,4,,,,77,45
215700,note_on,160,0,5,,,,,,,,3,,,,69,45
215700,note_on,0,0,5,,,,,,,,3,,,,81,45
215700,note_on,160,0,12,,,,,,,,11,,,,69,30
215780,note_off,80,0,10,,,,,,,,8,,,,81,64
215780,note_off,0,0,5,,,,,,,,3,,,,69,64
215780,note_off,80,0,7,,,,,,,,5,,,,69,64
215780,note_off,80,0,6,,,,,,,,4,,,,77,64
215780,note_off,80,0,5,,,,,,,,3,,,,81,64
215780,note_off,80,0,9,,,,,,,,7,,,,41,64
215780,note_off,80,0,8,,,,,,,,6,,,,53,64
215780,note_off,80,0,13,,,,,,,,12,,,,53,64
215780,note_off,80,0,11,,,,,,,,10,,,,77,64
215780,note_off,80,0,14,,,,,,,,13,,,,41,64
215780,note_off,0,0,10,,,,,,,,8,,,,69,64
215780,note_off,80,0,12,,,,,,,,11,,,,69,64
215940,note_on,160,0,12,,,,,,,,11,,,,64,30
215940,note_on,160,0,8,,,,,,,,6,,,,48,45
215940,note_on,160,0,13,,,,,,,,12,,,,48,30
215940,note_on,320,0,15,,,,,,,,14,,,,36,45
215940,note_on,160,0,11,,,,,,,,10,,,,79,30
215940,note_on,160,0,10,,,,,,,,8,,,,70,30
215940,note_on,160,0,6,,,,,,,,4,,,,79,45
215940,note_on,160,0,7,,,,,,,,5,,,,64,45
215940,note_on,160,0,9,,,,,,,,7,,,,36,45
215940,note_on,160,0,14,,,,,,,,13,,,,36,30
215940,note_on,0,0,10,,,,,,,,8,,,,82,30
215940,note_on,160,0,5,,,,,,,,3,,,,70,45
215940,note_on,0,0,5,,,,,,,,3,,,,82,45
216020,note_off,80,0,11,,,,,,,,10,,,,79,64
216020,note_off,80,0,6,,,,,,,,4,,,,79,64
216020,note_off,80,0,13,,,,,,,,12,,,,48,64
216020,note_off,80,0,14,,,,,,,,13,,,,36,64
216020,note_off,0,0,5,,,,,,,,3,,,,70,64
216020,note_off,80,0,10,,,,,,,,8,,,,82,64
216020,note_off,80,0,5,,,,,,,,3,,,,82,64
216020,note_off,0,0,10,,,,,,,,8,,,,70,64
216020,note_off,80,0,12,,,,,,,,11,,,,64,64
216020,note_off,80,0,9,,,,,,,,7,,,,36,64
216020,note_off,80,0,7,,,,,,,,5,,,,64,64
216020,note_off,80,0,8,,,,,,,,6,,,,48,64
216175,note_off,235,0,15,,,,,,,,14,,,,36,64
216180,note_on,0,0,10,,,,,,,,8,,,,81,30
216180,note_on,160,0,12,,,,,,,,11,,,,69,30
216180,note_on,160,0,6,,,,,,,,4,,,,77,45
216180,note_on,160,0,5,,,,,,,,3,,,,69,45
216180,note_on,160,0,13,,,,,,,,12,,,,53,30
216180,note_on,160,0,8,,,,,,,,6,,,,53,45
216180,note_on,160,0,14,,,,,,,,13,,,,41,30
216180,note_on,5,0,15,,,,,,,,14,,,,41,45
216180,note_on,160,0,7,,,,,,,,5,,,,69,45
216180,note_on,160,0,9,,,,,,,,7,,,,41,45
216180,note_on,0,0,5,,,,,,,,3,,,,81,45
216180,note_on,160,0,10,,,,,,,,8,,,,69,30
216180,note_on,160,0,11,,,,,,,,10,,,,77,30
216260,note_off,80,0,9,,,,,,,,7,,,,41,64
216260,note_off,80,0,5,,,,,,,,3,,,,81,64
216260,note_off,80,0,12,,,,,,,,11,,,,69,64
216260,note_off,80,0,13,,,,,,,,12,,,,53,64
216260,note_off,80,0,6,,,,,,,,4,,,,77,64
216260,note_off,80,0,14,,,,,,,,13,,,,41,64
216260,note_off,80,0,10,,,,,,,,8,,,,81,64
216260,note_off,0,0,10,,,,,,,,8,,,,69,64
216260,note_off,80,0,7,,,,,,,,5,,,,69,64
216260,note_off,80,0,8,,,,,,,,6,,,,53,64
216260,note_off,80,0,11,,,,,,,,10,,,,77,64
216260,note_off,0,0,5,,,,,,,,3,,,,69,64
216420,note_on,160,0,6,,,,,,,,4,,,,77,48
216420,note_on,160,0,14,,,,,,,,13,,,,41,33
216420,note_on,160,0,10,,,,,,,,8,,,,69,33
216420,note_on,0,0,10,,,,,,,,8,,,,81,33
216420,note_on,160,0,7,,,,,,,,5,,,,69,48
216420,note_on,160,0,11,,,,,,,,10,,,,77,33
216420,note_on,160,0,12,,,,,,,,11,,,,69,33
216420,note_on,160,0,13,,,,,,,,12,,,,53,33
216420,note_on,0,0,5,,,,,,,,3,,,,81,48
216420,note_on,160,0,8,,,,,,,,6,,,,53,48
216420,note_on,160,0,5,,,,,,,,3,,,,69,48
216420,note_on,160,0,9,,,,,,,,7,,,,41,48
216500,note_off,80,0,9,,,,,,,,7,,,,41,64
216500,note_off,80,0,5,,,,,,,,3,,,,81,64
216500,note_off,80,0,13,,,,,,,,12,,,,53,64
216500,note_off,80,0,11,,,,,,,,10,,,,77,64
216500,note_off,80,0,8,,,,,,,,6,,,,53,64
216500,note_off,80,0,14,,,,,,,,13,,,,41,64
216500,note_off,80,0,6,,,,,,,,4,,,,77,64
216500,note_off,0,0,10,,,,,,,,8,,,,69,64
216500,note_off,80,0,10,,,,,,,,8,,,,81,64
216500,note_off,80,0,12,,,,,,,,11,,,,69,64
216500,note_off,80,0,7,,,,,,,,5,,,,69,64
216500,note_off,0,0,5,,,,,,,,3,,,,69,64
216580,note_off,400,0,15,,,,,,,,14,,,,41,64
216660,note_on,160,0,9,,,,,,,,7,,,,41,52
216660,note_on,160,0,6,,,,,,,,4,,,,77,52
216660,note_on,160,0,11,,,,,,,,10,,,,77,36
216660,note_on,160,0,5,,,,,,,,3,,,,69,52
216660,note_on,160,0,12,,,,,,,,11,,,,69,36
216660,note_on,160,0,13,,,,,,,,12,,,,53,36
216660,note_on,160,0,8,,,,,,,,6,,,,53,52
216660,note_on,0,0,5,,,,,,,,3,,,,81,52
216660,note_on,0,0,10,,,,,,,,8,,,,81,36
216660,note_on,160,0,10,,,,,,,,8,,,,69,36
216660,note_on,160,0,7,,,,,,,,5,,,,69,52
216660,note_on,160,0,14,,,,,,,,13,,,,41,36
216740,note_off,80,0,11,,,,,,,,10,,,,77,64
216740,note_off,0,0,5,,,,,,,,3,,,,69,64
216740,note_off,80,0,13,,,,,,,,12,,,,53,64
216740,note_off,0,0,10,,,,,,,,8,,,,69,64
216740,note_off,80,0,10,,,,,,,,8,,,,81,64
216740,note_off,80,0,6,,,,,,,,4,,,,77,64
216740,note_off,80,0,12,,,,,,,,11,,,,69,64
216740,note_off,80,0,5,,,,,,,,3,,,,81,64
216740,note_off,80,0,8,,,,,,,,6,,,,53,64
216740,note_off,80,0,9,,,,,,,,7,,,,41,64
216740,note_off,80,0,7,,,,,,,,5,,,,69,64
216740,note_off,80,0,14,,,,,,,,13,,,,41,64
216900,note_on,160,0,12,,,,,,,,11,,,,64,39
216900,note_on,160,0,8,,,,,,,,6,,,,48,56
216900,note_on,160,0,13,,,,,,,,12,,,,48,39
216900,note_on,160,0,9,,,,,,,,7,,,,36,56
216900,note_on,0,0,10,,,,,,,,8,,,,82,39
216900,note_on,160,0,14,,,,,,,,13,,,,36,39
216900,note_on,160,0,11,,,,,,,,10,,,,79,39
216900,note_on,160,0,10,,,,,,,,8,,,,70,39
216900,note_on,320,0,15,,,,,,,,14,,,,36,48
216900,note_on,160,0,5,,,,,,,,3,,,,70,56
216900,note_on,0,0,5,,,,,,,,3,,,,82,56
216900,note_on,160,0,7,,,,,,,,5,,,,64,56
216900,note_on,160,0,6,,,,,,,,4,,,,79,56
216980,note_off,80,0,8,,,,,,,,6,,,,48,64
216980,note_off,80,0,5,,,,,,,,3,,,,82,64
216980,note_off,80,0,13,,,,,,,,12,,,,48,64
216980,note_off,80,0,11,,,,,,,,10,,,,79,64
216980,note_off,0,0,10,,,,,,,,8,,,,70,64
216980,note_off,80,0,10,,,,,,,,8,,,,82,64
216980,note_off,0,0,5,,,,,,,,3,,,,70,64
216980,note_off,80,0,7,,,,,,,,5,,,,64,64
216980,note_off,80,0,12,,,,,,,,11,,,,64,64
216980,note_off,80,0,9,,,,,,,,7,,,,36,64
216980,note_off,80,0,14,,,,,,,,13,,,,36,64
216980,note_off,80,0,6,,,,,,,,4,,,,79,64
217135,note_off,235,0,15,,,,,,,,14,,,,36,64
217140,note_on,0,0,5,,,,,,,,3,,,,81,60
217140,note_on,160,0,11,,,,,,,,10,,,,77,43
217140,note_on,5,0,15,,,,,,,,14,,,,41,49
217140,note_on,160,0,9,,,,,,,,7,,,,41,60
217140,note_on,160,0,5,,,,,,,,3,,,,69,60
217140,note_on,160,0,7,,,,,,,,5,,,,69,60
217140,note_on,160,0,6,,,,,,,,4,,,,77,60
217140,note_on,160,0,10,,,,,,,,8,,,,69,43
217140,note_on,160,0,13,,,,,,,,12,,,,53,43
217140,note_on,0,0,10,,,,,,,,8,,,,81,43
217140,note_on,160,0,8,,,,,,,,6,,,,53,60
217140,note_on,160,0,12,,,,,,,,11,,,,69,43
217140,note_on,160,0,14,,,,,,,,13,,,,41,43
217220,note_off,80,0,6,,,,,,,,4,,,,77,64
217220,note_off,80,0,12,,,,,,,,11,,,,69,64
217220,note_off,80,0,14,,,,,,,,13,,,,41,64
217220,note_off,80,0,11,,,,,,,,10,,,,77,64
217220,note_off,80,0,9,,,,,,,,7,,,,41,64
217220,note_off,80,0,8,,,,,,,,6,,,,53,64
217220,note_off,0,0,10,,,,,,,,8,,,,69,64
217220,note_off,80,0,10,,,,,,,,8,,,,81,64
217220,note_off,80,0,13,,,,,,,,12,,,,53,64
217220,note_off,0,0,5,,,,,,,,3,,,,69,64
217220,note_off,80,0,5,,,,,,,,3,,,,81,64
217220,note_off,80,0,7,,,,,,,,5,,,,69,64
217380,note_on,160,0,11,,,,,,,,10,,,,77,47
217380,note_on,160,0,9,,,,,,,,7,,,,41,64
217380,note_on,160,0,5,,,,,,,,3,,,,69,64
217380,note_on,160,0,10,,,,,,,,8,,,,69,47
217380,note_on,0,0,5,,,,,,,,3,,,,81,64
217380,note_on,160,0,12,,,,,,,,11,,,,69,47
217380,note_on,160,0,6,,,,,,,,4,,,,77,64
217380,note_on,160,0,14,,,,,,,,13,,,,41,47
217380,note_on,160,0,8,,,,,,,,6,,,,53,64
217380,note_on,160,0,7,,,,,,,,5,,,,69,64
217380,note_on,160,0,13,,,,,,,,12,,,,53,47
217380,note_on,0,0,10,,,,,,,,8,,,,81,47
217460,note_off,80,0,5,,,,,,,,3,,,,81,64
217460,note_off,0,0,5,,,,,,,,3,,,,69,64
217460,note_off,80,0,6,,,,,,,,4,,,,77,64
217460,note_off,80,0,14,,,,,,,,13,,,,41,64
217460,note_off,80,0,8,,,,,,,,6,,,,53,64
217460,note_off,80,0,13,,,,,,,,12,,,,53,64
217460,note_off,80,0,9,,,,,,,,7,,,,41,64
217460,note_off,80,0,12,,,,,,,,11,,,,69,64
217460,note_off,80,0,10,,,,,,,,8,,,,81,64
217460,note_off,80,0,7,,,,,,,,5,,,,69,64
217460,note_off,80,0,11,,,,,,,,10,,,,77,64
217460,note_off,0,0,10,,,,,,,,8,,,,69,64
217540,note_off,400,0,15,,,,,,,,14,,,,41,64
217620,note_on,160,0,5,,,,,,,,3,,,,69,68
217620,note_on,160,0,10,,,,,,,,8,,,,69,51
217620,note_on,160,0,12,,,,,,,,11,,,,69,51
217620,note_on,160,0,9,,,,,,,,7,,,,41,68
217620,note_on,160,0,6,,,,,,,,4,,,,77,68
217620,note_on,160,0,14,,,,,,,,13,,,,41,51
217620,note_on,160,0,13,,,,,,,,12,,,,53,51
217620,note_on,160,0,7,,,,,,,,5,,,,69,68
217620,note_on,0,0,5,,,,,,,,3,,,,81,68
217620,note_on,160,0,8,,,,,,,,6,,,,53,68
217620,note_on,160,0,11,,,,,,,,10,,,,77,51
217620,note_on,0,0,10,,,,,,,,8,,,,81,51
217700,note_off,80,0,7,,,,,,,,5,,,,69,64
217700,note_off,0,0,5,,,,,,,,3,,,,69,64
217700,note_off,80,0,5,,,,,,,,3,,,,81,64
217700,note_off,80,0,12,,,,,,,,11,,,,69,64
217700,note_off,80,0,13,,,,,,,,12,,,,53,64
217700,note_off,80,0,11,,,,,,,,10,,,,77,64
217700,note_off,0,0,10,,,,,,,,8,,,,69,64
217700,note_off,80,0,14,,,,,,,,13,,,,41,64
217700,note_off,80,0,10,,,,,,,,8,,,,81,64
217700,note_off,80,0,8,,,,,,,,6,,,,53,64
217700,note_off,80,0,9,,,,,,,,7,,,,41,64
217700,note_off,80,0,6,,,,,,,,4,,,,77,64
217860,note_on,160,0,14,,,,,,,,13,,,,36,55
217860,note_on,160,0,12,,,,,,,,11,,,,64,55
217860,note_on,0,0,10,,,,,,,,8,,,,82,55
217860,note_on,160,0,5,,,,,,,,3,,,,70,72
217860,note_on,160,0,13,,,,,,,,12,,,,48,55
217860,note_on,160,0,10,,,,,,,,8,,,,70,55
217860,note_on,160,0,6,,,,,,,,4,,,,79,72
217860,note_on,320,0,15,,,,,,,,14,,,,36,52
217860,note_on,160,0,7,,,,,,,,5,,,,64,72
217860,note_on,160,0,9,,,,,,,,7,,,,36,72
217860,note_on,160,0,8,,,,,,,,6,,,,48,72
217860,note_on,160,0,11,,,,,,,,10,,,,79,55
217860,note_on,0,0,5,,,,,,,,3,,,,82,72
217940,note_off,80,0,12,,,,,,,,11,,,,64,64
217940,note_off,80,0,7,,,,,,,,5,,,,64,64
217940,note_off,0,0,10,,,,,,,,8,,,,70,64
217940,note_off,80,0,6,,,,,,,,4,,,,79,64
217940,note_off,80,0,8,,,,,,,,6,,,,48,64
217940,note_off,80,0,14,,,,,,,,13,,,,36,64
217940,note_off,80,0,13,,,,,,,,12,,,,48,64
217940,note_off,80,0,9,,,,,,,,7,,,,36,64
217940,note_off,80,0,11,,,,,,,,10,,,,79,64
217940,note_off,80,0,10,,,,,,,,8,,,,82,64
217940,note_off,80,0,5,,,,,,,,3,,,,82,64
217940,note_off,0,0,5,,,,,,,,3,,,,70,64
218095,note_off,235,0,15,,,,,,,,14,,,,36,64
218100,note_on,160,0,9,,,,,,,,7,,,,41,76
218100,note_on,160,0,13,,,,,,,,12,,,,53,59
218100,note_on,160,0,8,,,,,,,,6,,,,53,76
218100,note_on,160,0,11,,,,,,,,10,,,,77,59
218100,note_on,160,0,10,,,,,,,,8,,,,69,59
218100,note_on,160,0,12,,,,,,,,11,,,,69,59
218100,note_on,160,0,6,,,,,,,,4,,,,77,76
218100,note_on,5,0,15,,,,,,,,14,,,,41,53
218100,note_on,0,0,10,,,,,,,,8,,,,81,59
218100,note_on,0,0,5,,,,,,,,3,,,,81,76
218100,note_on,160,0,5,,,,,,,,3,,,,69,76
218100,note_on,160,0,14,,,,,,,,13,,,,41,59
218100,note_on,160,0,7,,,,,,,,5,,,,69,76
218130,note_on,0,0,11,,,,,,,,10,,,,79,59
218130,note_off,30,0,11,,,,,,,,10,,,,77,64
218130,note_on,0,0,10,,,,,,,,8,,,,82,59
218130,note_on,0,0,10,,,,,,,,8,,,,70,59
218130,note_off,0,0,10,,,,,,,,8,,,,69,64
218130,note_off,30,0,10,,,,,,,,8,,,,81,64
218130,note_on,0,0,5,,,,,,,,3,,,,82,76
218130,note_on,0,0,5,,,,,,,,3,,,,70,76
218130,note_on,0,0,6,,,,,,,,4,,,,79,76
218130,note_off,30,0,6,,,,,,,,4,,,,77,64
218130,note_off,0,0,5,,,,,,,,3,,,,69,64
218130,note_off,30,0,5,,,,,,,,3,,,,81,64
218160,note_off,0,0,5,,,,,,,,3,,,,70,64
218160,note_on,0,0,5,,,,,,,,3,,,,69,76
218160,note_on,0,0,5,,,,,,,,3,,,,81,76
218160,note_off,30,0,5,,,,,,,,3,,,,82,64
218160,note_off,30,0,11,,,,,,,,10,,,,79,64
218160,note_on,0,0,11,,,,,,,,10,,,,77,59
218160,note_on,0,0,10,,,,,,,,8,,,,81,59
218160,note_on,0,0,10,,,,,,,,8,,,,69,59
218160,note_off,0,0,10,,,,,,,,8,,,,70,64
218160,note_off,30,0,10,,,,,,,,8,,,,82,64
218160,note_on,0,0,6,,,,,,,,4,,,,77,76
218160,note_off,30,0,6,,,,,,,,4,,,,79,64
218180,note_off,80,0,7,,,,,,,,5,,,,69,64
218180,note_off,80,0,9,,,,,,,,7,,,,41,64
218180,note_off,80,0,12,,,,,,,,11,,,,69,64
218180,note_off,80,0,8,,,,,,,,6,,,,53,64
218180,note_off,80,0,13,,,,,,,,12,,,,53,64
218180,note_off,80,0,14,,,,,,,,13,,,,41,64
218190,note_off,30,0,11,,,,,,,,10,,,,77,64
218190,note_off,0,0,10,,,,,,,,8,,,,69,64
218190,note_off,30,0,10,,,,,,,,8,,,,81,64
218190,note_on,0,0,11,,,,,,,,10,,,,79,59
218190,note_on,0,0,10,,,,,,,,8,,,,70,59
218190,note_on,0,0,10,,,,,,,,8,,,,82,59
218190,note_off,30,0,5,,,,,,,,3,,,,81,64
218190,note_off,0,0,5,,,,,,,,3,,,,69,64
218190,note_on,0,0,5,,,,,,,,3,,,,82,76
218190,note_off,30,0,6,,,,,,,,4,,,,77,64
218190,note_on,0,0,6,,,,,,,,4,,,,79,76
218190,note_on,0,0,5,,,,,,,,3,,,,70,76
218220,note_off,0,0,10,,,,,,,,8,,,,70,64
218220,note_off,30,0,5,,,,,,,,3,,,,82,64
218220,note_off,0,0,5,,,,,,,,3,,,,70,64
218220,note_off,30,0,6,,,,,,,,4,,,,79,64
218220,note_on,0,0,10,,,,,,,,8,,,,69,59
218220,note_on,0,0,5,,,,,,,,3,,,,81,76
218220,note_on,0,0,5,,,,,,,,3,,,,69,76
218220,note_on,0,0,11,,,,,,,,10,,,,77,59
218220,note_off,30,0,11,,,,,,,,10,,,,79,64
218220,note_on,0,0,6,,,,,,,,4,,,,77,76
218220,note_on,0,0,10,,,,,,,,8,,,,81,59
218220,note_off,30,0,10,,,,,,,,8,,,,82,64
218250,note_off,30,0,11,,,,,,,,10,,,,77,64
218250,note_on,0,0,10,,,,,,,,8,,,,82,59
218250,note_on,0,0,10,,,,,,,,8,,,,70,59
218250,note_off,0,0,10,,,,,,,,8,,,,69,64
218250,note_off,30,0,10,,,,,,,,8,,,,81,64
218250,note_on,0,0,11,,,,,,,,10,,,,79,59
218250,note_off,30,0,5,,,,,,,,3,,,,81,64
218250,note_on,0,0,5,,,,,,,,3,,,,82,76
218250,note_off,0,0,5,,,,,,,,3,,,,69,64
218250,note_on,0,0,5,,,,,,,,3,,,,70,76
218250,note_on,0,0,6,,,,,,,,4,,,,79,76
218250,note_off,30,0,6,,,,,,,,4,,,,77,64
218280,note_on,0,0,10,,,,,,,,8,,,,69,59
218280,note_off,30,0,11,,,,,,,,10,,,,79,64
218280,note_on,0,0,6,,,,,,,,4,,,,77,76
218280,note_off,30,0,6,,,,,,,,4,,,,79,64
218280,note_off,30,0,10,,,,,,,,8,,,,82,64
218280,note_off,0,0,10,,,,,,,,8,,,,70,64
218280,note_on,0,0,11,,,,,,,,10,,,,77,59
218280,note_on,0,0,10,,,,,,,,8,,,,81,59
218280,note_off,30,0,5,,,,,,,,3,,,,82,64
218280,note_on,0,0,5,,,,,,,,3,,,,81,76
218280,note_off,0,0,5,,,,,,,,3,,,,70,64
218280,note_on,0,0,5,,,,,,,,3,,,,69,76
218310,note_on,0,0,5,,,,,,,,3,,,,82,76
218310,note_on,0,0,5,,,,,,,,3,,,,70,76
218310,note_off,0,0,5,,,,,,,,3,,,,69,64
218310,note_on,0,0,6,,,,,,,,4,,,,79,76
218310,note_off,30,0,6,,,,,,,,4,,,,77,64
218310,note_off,30,0,5,,,,,,,,3,,,,81,64
218310,note_off,30,0,10,,,,,,,,8,,,,81,64
218310,note_off,30,0,11,,,,,,,,10,,,,77,64
218310,note_on,0,0,10,,,,,,,,8,,,,70,59
218310,note_on,0,0,10,,,,,,,,8,,,,82,59
218310,note_on,0,0,11,,,,,,,,10,,,,79,59
218310,note_off,0,0,10,,,,,,,,8,,,,69,64
218340,note_off,30,0,5,,,,,,,,3,,,,82,64
218340,note_on,160,0,7,,,,,,,,5,,,,69,80
218340,note_on,160,0,12,,,,,,,,11,,,,69,63
218340,note_on,160,0,8,,,,,,,,6,,,,53,80
218340,note_on,0,0,5,,,,,,,,3,,,,67,76
218340,note_off,30,0,11,,,,,,,,10,,,,79,64
218340,set_tempo,6960,1,0,517241,,,,,,,,,,,,
218340,note_on,160,0,13,,,,,,,,12,,,,53,63
218340,note_off,0,0,5,,,,,,,,3,,,,70,64
218340,note_on,160,0,14,,,,,,,,13,,,,41,63
218340,note_on,0,0,5,,,,,,,,3,,,,79,76
218340,note_on,0,0,11,,,,,,,,10,,,,76,59
218340,note_on,0,0,6,,,,,,,,4,,,,76,76
218340,note_off,30,0,6,,,,,,,,4,,,,79,64
218340,note_off,30,0,10,,,,,,,,8,,,,82,64
218340,note_off,0,0,10,,,,,,,,8,,,,70,64
218340,note_on,0,0,10,,,,,,,,8,,,,67,59
218340,note_on,0,0,10,,,,,,,,8,,,,79,59
218340,note_on,160,0,9,,,,,,,,7,,,,41,80
218420,note_off,80,0,6,,,,,,,,4,,,,76,64
218420,note_off,80,0,8,,,,,,,,6,,,,53,64
218420,note_off,80,0,5,,,,,,,,3,,,,79,64
218420,note_off,0,0,10,,,,,,,,8,,,,67,64
218420,note_off,80,0,10,,,,,,,,8,,,,79,64
218420,note_off,80,0,9,,,,,,,,7,,,,41,64
218420,note_off,80,0,7,,,,,,,,5,,,,69,64
218420,note_off,80,0,12,,,,,,,,11,,,,69,64
218420,note_off,80,0,13,,,,,,,,12,,,,53,64
218420,note_off,80,0,11,,,,,,,,10,,,,76,64
218420,note_off,80,0,14,,,,,,,,13,,,,41,64
218420,note_off,0,0,5,,,,,,,,3,,,,67,64
218460,note_on,0,0,10,,,,,,,,8,,,,81,61
218460,note_on,0,0,5,,,,,,,,3,,,,81,78
218460,note_on,40,0,11,,,,,,,,10,,,,77,61
218460,note_on,40,0,5,,,,,,,,3,,,,69,78
218460,note_on,40,0,10,,,,,,,,8,,,,69,61
218460,note_on,40,0,6,,,,,,,,4,,,,77,78
218500,note_off,400,0,15,,,,,,,,14,,,,41,64
218540,note_off,80,0,11,,,,,,,,10,,,,77,64
218540,note_off,80,0,5,,,,,,,,3,,,,81,64
218540,note_off,0,0,5,,,,,,,,3,,,,69,64
218540,note_off,80,0,10,,,,,,,,8,,,,81,64
218540,note_off,80,0,6,,,,,,,,4,,,,77,64
218540,note_off,0,0,10,,,,,,,,8,,,,69,64
218580,note_on,0,0,10,,,,,,,,8,,,,82,63
218580,note_on,160,0,8,,,,,,,,6,,,,46,84
218580,note_on,160,0,9,,,,,,,,7,,,,34,84
218580,note_on,160,0,14,,,,,,,,13,,,,34,67
218580,note_on,160,0,7,,,,,,,,5,,,,62,84
218580,note_on,160,0,12,,,,,,,,11,,,,62,67
218580,note_on,40,0,6,,,,,,,,4,,,,79,80
218580,note_on,40,0,5,,,,,,,,3,,,,70,80
218580,note_on,40,0,11,,,,,,,,10,,,,79,63
218580,note_on,0,0,5,,,,,,,,3,,,,82,80
218580,note_on,80,0,15,,,,,,,,14,,,,34,56
218580,note_on,40,0,10,,,,,,,,8,,,,70,63
218580,note_on,160,0,13,,,,,,,,12,,,,46,67
218660,note_off,80,0,9,,,,,,,,7,,,,34,64
218660,note_off,80,0,8,,,,,,,,6,,,,46,64
218660,note_off,80,0,5,,,,,,,,3,,,,82,64
218660,note_off,0,0,5,,,,,,,,3,,,,70,64
218660,note_off,0,0,10,,,,,,,,8,,,,70,64
218660,note_off,80,0,14,,,,,,,,13,,,,34,64
218660,note_off,80,0,7,,,,,,,,5,,,,62,64
218660,note_off,80,0,11,,,,,,,,10,,,,79,64
218660,note_off,80,0,10,,,,,,,,8,,,,82,64
218660,note_off,80,0,6,,,,,,,,4,,,,79,64
218660,note_off,80,0,13,,,,,,,,12,,,,46,64
218660,note_off,80,0,12,,,,,,,,11,,,,62,64
218815,note_off,235,0,15,,,,,,,,14,,,,34,64
218820,note_on,160,0,8,,,,,,,,6,,,,48,88
218820,note_on,160,0,7,,,,,,,,5,,,,60,88
218820,note_on,5,0,15,,,,,,,,14,,,,36,58
218820,note_on,160,0,12,,,,,,,,11,,,,60,71
218820,note_on,160,0,9,,,,,,,,7,,,,36,88
218820,note_on,0,0,10,,,,,,,,8,,,,79,69
218820,note_on,160,0,10,,,,,,,,8,,,,67,69
218820,note_on,160,0,13,,,,,,,,12,,,,48,71
218820,note_on,160,0,5,,,,,,,,3,,,,67,86
218820,note_on,0,0,5,,,,,,,,3,,,,79,86
218820,note_on,160,0,14,,,,,,,,13,,,,36,71
218820,note_on,160,0,6,,,,,,,,4,,,,76,86
218820,note_on,160,0,11,,,,,,,,10,,,,76,69
218900,note_off,0,0,10,,,,,,,,8,,,,67,64
218900,note_off,80,0,13,,,,,,,,12,,,,48,64
218900,note_off,80,0,12,,,,,,,,11,,,,60,64
218900,note_off,80,0,7,,,,,,,,5,,,,60,64
218900,note_off,80,0,14,,,,,,,,13,,,,36,64
218900,note_off,80,0,6,,,,,,,,4,,,,76,64
218900,note_off,80,0,9,,,,,,,,7,,,,36,64
218900,note_off,80,0,11,,,,,,,,10,,,,76,64
218900,note_off,80,0,8,,,,,,,,6,,,,48,64
218900,note_off,0,0,5,,,,,,,,3,,,,67,64
218900,note_off,80,0,5,,,,,,,,3,,,,79,64
218900,note_off,80,0,10,,,,,,,,8,,,,79,64
219055,note_off,235,0,15,,,,,,,,14,,,,36,64
219060,note_on,160,0,10,,,,,,,,8,,,,69,75
219060,note_on,0,0,15,,,,,,,,14,,,,41,60
219060,note_on,5,0,15,,,,,,,,14,,,,29,60
219060,note_on,160,0,11,,,,,,,,10,,,,77,75
219060,set_tempo,720,1,0,500000,,,,,,,,,,,,
219060,note_on,160,0,14,,,,,,,,13,,,,29,75
219060,note_on,160,0,12,,,,,,,,11,,,,60,75
219060,note_on,160,0,6,,,,,,,,4,,,,77,92
219060,note_on,160,0,9,,,,,,,,7,,,,29,92
219060,note_on,0,0,5,,,,,,,,3,,,,81,92
219060,note_on,160,0,5,,,,,,,,3,,,,69,92
219060,note_on,160,0,8,,,,,,,,6,,,,41,92
219060,note_on,0,0,10,,,,,,,,8,,,,81,75
219060,note_on,160,0,13,,,,,,,,12,,,,41,75
219060,note_on,160,0,7,,,,,,,,5,,,,60,92
219460,note_off,400,0,12,,,,,,,,11,,,,60,64
219460,note_off,400,0,6,,,,,,,,4,,,,77,64
219460,note_off,400,0,13,,,,,,,,12,,,,41,64
219460,note_off,0,0,5,,,,,,,,3,,,,69,64
219460,note_off,400,0,5,,,,,,,,3,,,,81,64
219460,note_off,0,0,15,,,,,,,,14,,,,29,64
219460,note_off,400,0,8,,,,,,,,6,,,,41,64
219460,note_off,400,0,11,,,,,,,,10,,,,77,64
219460,note_off,400,0,15,,,,,,,,14,,,,41,64
219460,note_off,400,0,10,,,,,,,,8,,,,81,64
219460,note_off,0,0,10,,,,,,,,8,,,,69,64
219460,note_off,400,0,9,,,,,,,,7,,,,29,64
219460,note_off,400,0,7,,,,,,,,5,,,,60,64
219460,note_off,400,0,14,,,,,,,,13,,,,29,64
220140,note_on,680,0,7,,,,,,,,5,,,,57,45
220140,note_on,680,0,8,,,,,,,,6,,,,53,45
220140,note_on,680,0,10,,,,,,,,8,,,,69,30
220140,note_on,680,0,5,,,,,,,,3,,,,69,45
220140,note_on,680,0,6,,,,,,,,4,,,,65,45
220140,note_on,680,0,9,,,,,,,,7,,,,41,45
220140,note_on,680,0,12,,,,,,,,11,,,,57,30
220140,note_on,680,0,13,,,,,,,,12,,,,53,30
220140,note_on,680,0,14,,,,,,,,13,,,,41,30
220140,note_on,680,0,11,,,,,,,,10,,,,65,30
220140,note_on,680,0,15,,,,,,,,14,,,,41,30
220220,note_off,80,0,13,,,,,,,,12,,,,53,64
220220,note_off,80,0,7,,,,,,,,5,,,,57,64
220220,note_off,80,0,11,,,,,,,,10,,,,65,64
220220,note_off,80,0,8,,,,,,,,6,,,,53,64
220220,note_off,80,0,6,,,,,,,,4,,,,65,64
220220,note_off,80,0,10,,,,,,,,8,,,,69,64
220220,note_off,80,0,5,,,,,,,,3,,,,69,64
220220,note_off,80,0,12,,,,,,,,11,,,,57,64
220220,note_off,80,0,14,,,,,,,,13,,,,41,64
220220,note_off,80,0,9,,,,,,,,7,,,,41,64
220380,note_on,160,0,13,,,,,,,,12,,,,53,30
220380,note_on,160,0,6,,,,,,,,4,,,,65,45
220380,note_on,160,0,7,,,,,,,,5,,,,57,45
220380,note_on,160,0,14,,,,,,,,13,,,,41,30
220380,note_on,160,0,12,,,,,,,,11,,,,57,30
220380,note_on,160,0,10,,,,,,,,8,,,,69,30
220380,note_on,160,0,5,,,,,,,,3,,,,69,45
220380,note_on,160,0,9,,,,,,,,7,,,,41,45
220380,note_on,160,0,8,,,,,,,,6,,,,53,45
220380,note_on,160,0,11,,,,,,,,10,,,,65,30
220460,note_off,80,0,10,,,,,,,,8,,,,69,64
220460,note_off,80,0,8,,,,,,,,6,,,,53,64
220460,note_off,80,0,14,,,,,,,,13,,,,41,64
220460,note_off,80,0,5,,,,,,,,3,,,,69,64
220460,note_off,80,0,6,,,,,,,,4,,,,65,64
220460,note_off,80,0,12,,,,,,,,11,,,,57,64
220460,note_off,80,0,7,,,,,,,,5,,,,57,64
220460,note_off,80,0,13,,,,,,,,12,,,,53,64
220460,note_off,80,0,11,,,,,,,,10,,,,65,64
220460,note_off,80,0,9,,,,,,,,7,,,,41,64
220540,note_off,400,0,15,,,,,,,,14,,,,41,64
220620,note_on,160,0,8,,,,,,,,6,,,,53,45
220620,note_on,160,0,9,,,,,,,,7,,,,41,45
220620,note_on,160,0,13,,,,,,,,12,,,,53,30
220620,note_on,160,0,6,,,,,,,,4,,,,65,45
220620,note_on,160,0,12,,,,,,,,11,,,,57,30
220620,note_on,160,0,10,,,,,,,,8,,,,69,30
220620,note_on,160,0,14,,,,,,,,13,,,,41,30
220620,note_on,160,0,11,,,,,,,,10,,,,65,30
220620,note_on,160,0,7,,,,,,,,5,,,,57,45
220620,note_on,160,0,5,,,,,,,,3,,,,69,45
220700,note_off,80,0,8,,,,,,,,6,,,,53,64
220700,note_off,80,0,7,,,,,,,,5,,,,57,64
220700,note_off,80,0,10,,,,,,,,8,,,,69,64
220700,note_off,80,0,11,,,,,,,,10,,,,65,64
220700,note_off,80,0,13,,,,,,,,12,,,,53,64
220700,note_off,80,0,5,,,,,,,,3,,,,69,64
220700,note_off,80,0,12,,,,,,,,11,,,,57,64
220700,note_off,80,0,9,,,,,,,,7,,,,41,64
220700,note_off,80,0,6,,,,,,,,4,,,,65,64
220700,note_off,80,0,14,,,,,,,,13,,,,41,64
220860,note_on,320,0,15,,,,,,,,14,,,,36,30
220860,note_on,160,0,11,,,,,,,,10,,,,67,30
220860,note_on,160,0,12,,,,,,,,11,,,,52,30
220860,note_on,160,0,5,,,,,,,,3,,,,70,45
220860,note_on,160,0,10,,,,,,,,8,,,,70,30
220860,note_on,160,0,13,,,,,,,,12,,,,48,30
220860,note_on,160,0,6,,,,,,,,4,,,,67,45
220860,note_on,160,0,9,,,,,,,,7,,,,36,45
220860,note_on,160,0,8,,,,,,,,6,,,,48,45
220860,note_on,160,0,7,,,,,,,,5,,,,52,45
220860,note_on,160,0,14,,,,,,,,13,,,,36,30
220940,note_off,80,0,6,,,,,,,,4,,,,67,64
220940,note_off,80,0,8,,,,,,,,6,,,,48,64
220940,note_off,80,0,7,,,,,,,,5,,,,52,64
220940,note_off,80,0,5,,,,,,,,3,,,,70,64
220940,note_off,80,0,11,,,,,,,,10,,,,67,64
220940,note_off,80,0,9,,,,,,,,7,,,,36,64
220940,note_off,80,0,13,,,,,,,,12,,,,48,64
220940,note_off,80,0,12,,,,,,,,11,,,,52,64
220940,note_off,80,0,10,,,,,,,,8,,,,70,64
220940,note_off,80,0,14,,,,,,,,13,,,,36,64
221095,note_off,235,0,15,,,,,,,,14,,,,36,64
221100,note_on,5,0,15,,,,,,,,14,,,,41,30
221100,note_on,160,0,14,,,,,,,,13,,,,41,30
221100,set_tempo,2040,1,0,517241,,,,,,,,,,,,
221100,note_on,160,0,8,,,,,,,,6,,,,53,45
221100,note_on,160,0,12,,,,,,,,11,,,,57,30
221100,note_on,160,0,7,,,,,,,,5,,,,57,45
221100,note_on,160,0,10,,,,,,,,8,,,,69,30
221100,note_on,160,0,6,,,,,,,,4,,,,65,45
221100,note_on,160,0,13,,,,,,,,12,,,,53,30
221100,note_on,160,0,5,,,,,,,,3,,,,69,45
221100,note_on,160,0,9,,,,,,,,7,,,,41,45
221100,note_on,160,0,11,,,,,,,,10,,,,65,30
221180,note_off,80,0,14,,,,,,,,13,,,,41,64
221180,note_off,80,0,10,,,,,,,,8,,,,69,64
221180,note_off,80,0,8,,,,,,,,6,,,,53,64
221180,note_off,80,0,11,,,,,,,,10,,,,65,64
221180,note_off,80,0,5,,,,,,,,3,,,,69,64
221180,note_off,80,0,6,,,,,,,,4,,,,65,64
221180,note_off,80,0,7,,,,,,,,5,,,,57,64
221180,note_off,80,0,9,,,,,,,,7,,,,41,64
221180,note_off,80,0,13,,,,,,,,12,,,,53,64
221180,note_off,80,0,12,,,,,,,,11,,,,57,64
221340,note_on,160,0,11,,,,,,,,10,,,,65,30
221340,note_on,160,0,6,,,,,,,,4,,,,65,45
221340,note_on,160,0,8,,,,,,,,6,,,,53,45
221340,note_on,160,0,12,,,,,,,,11,,,,57,30
221340,note_on,160,0,7,,,,,,,,5,,,,57,45
221340,note_on,160,0,14,,,,,,,,13,,,,41,30
221340,note_on,160,0,9,,,,,,,,7,,,,41,45
221340,note_on,160,0,5,,,,,,,,3,,,,69,45
221340,note_on,160,0,13,,,,,,,,12,,,,53,30
221340,note_on,160,0,10,,,,,,,,8,,,,69,30
221420,note_off,80,0,6,,,,,,,,4,,,,65,64
221420,note_off,80,0,13,,,,,,,,12,,,,53,64
221420,note_off,80,0,14,,,,,,,,13,,,,41,64
221420,note_off,80,0,8,,,,,,,,6,,,,53,64
221420,note_off,80,0,7,,,,,,,,5,,,,57,64
221420,note_off,80,0,12,,,,,,,,11,,,,57,64
221420,note_off,80,0,9,,,,,,,,7,,,,41,64
221420,note_off,80,0,10,,,,,,,,8,,,,69,64
221420,note_off,80,0,5,,,,,,,,3,,,,69,64
221420,note_off,80,0,11,,,,,,,,10,,,,65,64
221500,note_off,400,0,15,,,,,,,,14,,,,41,64
221580,note_on,160,0,9,,,,,,,,7,,,,41,45
221580,note_on,160,0,10,,,,,,,,8,,,,69,30
221580,note_on,160,0,5,,,,,,,,3,,,,69,45
221580,note_on,160,0,14,,,,,,,,13,,,,41,30
221580,note_on,160,0,11,,,,,,,,10,,,,65,30
221580,note_on,160,0,12,,,,,,,,11,,,,57,30
221580,note_on,160,0,8,,,,,,,,6,,,,53,45
221580,note_on,160,0,13,,,,,,,,12,,,,53,30
221580,note_on,160,0,7,,,,,,,,5,,,,57,45
221580,note_on,160,0,6,,,,,,,,4,,,,65,45
221660,note_off,80,0,6,,,,,,,,4,,,,65,64
221660,note_off,80,0,9,,,,,,,,7,,,,41,64
221660,note_off,80,0,10,,,,,,,,8,,,,69,64
221660,note_off,80,0,12,,,,,,,,11,,,,57,64
221660,note_off,80,0,14,,,,,,,,13,,,,41,64
221660,note_off,80,0,7,,,,,,,,5,,,,57,64
221660,note_off,80,0,5,,,,,,,,3,,,,69,64
221660,note_off,80,0,13,,,,,,,,12,,,,53,64
221660,note_off,80,0,8,,,,,,,,6,,,,53,64
221660,note_off,80,0,11,,,,,,,,10,,,,65,64
221820,note_on,320,0,15,,,,,,,,14,,,,36,30
221820,note_on,160,0,8,,,,,,,,6,,,,48,45
221820,note_on,160,0,10,,,,,,,,8,,,,70,30
221820,note_on,160,0,9,,,,,,,,7,,,,36,45
221820,note_on,160,0,14,,,,,,,,13,,,,36,30
221820,note_on,160,0,11,,,,,,,,10,,,,67,30
221820,note_on,160,0,13,,,,,,,,12,,,,48,30
221820,note_on,160,0,12,,,,,,,,11,,,,52,30
221820,note_on,160,0,5,,,,,,,,3,,,,70,45
221820,note_on,160,0,7,,,,,,,,5,,,,52,45
221820,note_on,160,0,6,,,,,,,,4,,,,67,45
221900,note_off,80,0,12,,,,,,,,11,,,,52,64
221900,note_off,80,0,8,,,,,,,,6,,,,48,64
221900,note_off,80,0,14,,,,,,,,13,,,,36,64
221900,note_off,80,0,9,,,,,,,,7,,,,36,64
221900,note_off,80,0,13,,,,,,,,12,,,,48,64
221900,note_off,80,0,10,,,,,,,,8,,,,70,64
221900,note_off,80,0,11,,,,,,,,10,,,,67,64
221900,note_off,80,0,5,,,,,,,,3,,,,70,64
221900,note_off,80,0,7,,,,,,,,5,,,,52,64
221900,note_off,80,0,6,,,,,,,,4,,,,67,64
222055,note_off,235,0,15,,,,,,,,14,,,,36,64
222060,note_on,160,0,13,,,,,,,,12,,,,53,30
222060,note_on,160,0,12,,,,,,,,11,,,,57,30
222060,set_tempo,960,1,0,576923,,,,,,,,,,,,
222060,note_on,160,0,7,,,,,,,,5,,,,57,45
222060,note_on,160,0,10,,,,,,,,8,,,,69,30
222060,note_on,160,0,8,,,,,,,,6,,,,53,45
222060,note_on,160,0,9,,,,,,,,7,,,,41,45
222060,note_on,160,0,14,,,,,,,,13,,,,41,30
222060,note_on,160,0,11,,,,,,,,10,,,,65,30
222060,note_on,160,0,6,,,,,,,,4,,,,65,45
222060,note_on,5,0,15,,,,,,,,14,,,,41,30
222060,note_on,160,0,5,,,,,,,,3,,,,69,45
222140,note_off,80,0,11,,,,,,,,10,,,,65,64
222140,note_off,80,0,13,,,,,,,,12,,,,53,64
222140,note_off,80,0,8,,,,,,,,6,,,,53,64
222140,note_off,80,0,12,,,,,,,,11,,,,57,64
222140,note_off,80,0,6,,,,,,,,4,,,,65,64
222140,note_off,80,0,10,,,,,,,,8,,,,69,64
222140,note_off,80,0,14,,,,,,,,13,,,,41,64
222140,note_off,80,0,7,,,,,,,,5,,,,57,64
222140,note_off,80,0,5,,,,,,,,3,,,,69,64
222140,note_off,80,0,9,,,,,,,,7,,,,41,64
222300,note_on,160,0,9,,,,,,,,7,,,,41,45
222300,note_on,160,0,6,,,,,,,,4,,,,65,45
222300,note_on,160,0,14,,,,,,,,13,,,,41,30
222300,note_on,160,0,10,,,,,,,,8,,,,69,30
222300,note_on,160,0,12,,,,,,,,11,,,,57,30
222300,note_on,160,0,5,,,,,,,,3,,,,69,45
222300,note_on,160,0,13,,,,,,,,12,,,,53,30
222300,note_on,160,0,7,,,,,,,,5,,,,57,45
222300,note_on,160,0,8,,,,,,,,6,,,,53,45
222300,note_on,160,0,11,,,,,,,,10,,,,65,30
222380,note_off,80,0,12,,,,,,,,11,,,,57,64
222380,note_off,80,0,8,,,,,,,,6,,,,53,64
222380,note_off,80,0,5,,,,,,,,3,,,,69,64
222380,note_off,80,0,13,,,,,,,,12,,,,53,64
222380,note_off,80,0,7,,,,,,,,5,,,,57,64
222380,note_off,80,0,9,,,,,,,,7,,,,41,64
222380,note_off,80,0,10,,,,,,,,8,,,,69,64
222380,note_off,80,0,6,,,,,,,,4,,,,65,64
222380,note_off,80,0,11,,,,,,,,10,,,,65,64
222380,note_off,80,0,14,,,,,,,,13,,,,41,64
222460,note_off,400,0,15,,,,,,,,14,,,,41,64
222540,note_on,160,0,13,,,,,,,,12,,,,53,30
222540,note_on,160,0,10,,,,,,,,8,,,,69,30
222540,note_on,160,0,6,,,,,,,,4,,,,65,45
222540,note_on,160,0,5,,,,,,,,3,,,,69,45
222540,note_on,160,0,11,,,,,,,,10,,,,65,30
222540,note_on,160,0,8,,,,,,,,6,,,,53,45
222540,note_on,160,0,14,,,,,,,,13,,,,41,30
222540,note_on,160,0,7,,,,,,,,5,,,,57,45
222540,note_on,160,0,12,,,,,,,,11,,,,57,30
222540,note_on,160,0,9,,,,,,,,7,,,,41,45
222620,note_off,80,0,9,,,,,,,,7,,,,41,64
222620,note_off,80,0,11,,,,,,,,10,,,,65,64
222620,note_off,80,0,7,,,,,,,,5,,,,57,64
222620,note_off,80,0,13,,,,,,,,12,,,,53,64
222620,note_off,80,0,8,,,,,,,,6,,,,53,64
222620,note_off,80,0,5,,,,,,,,3,,,,69,64
222620,note_off,80,0,6,,,,,,,,4,,,,65,64
222620,note_off,80,0,14,,,,,,,,13,,,,41,64
222620,note_off,80,0,12,,,,,,,,11,,,,57,64
222620,note_off,80,0,10,,,,,,,,8,,,,69,64
222780,note_on,160,0,5,,,,,,,,3,,,,70,45
222780,note_on,160,0,12,,,,,,,,11,,,,52,30
222780,note_on,160,0,13,,,,,,,,12,,,,48,30
222780,note_on,160,0,10,,,,,,,,8,,,,70,30
222780,note_on,160,0,7,,,,,,,,5,,,,52,45
222780,note_on,160,0,14,,,,,,,,13,,,,36,30
222780,note_on,320,0,15,,,,,,,,14,,,,36,30
222780,note_on,160,0,8,,,,,,,,6,,,,48,45
222780,note_on,160,0,9,,,,,,,,7,,,,36,45
222780,note_on,160,0,11,,,,,,,,10,,,,67,30
222780,note_on,160,0,6,,,,,,,,4,,,,67,45
222860,note_off,80,0,8,,,,,,,,6,,,,48,64
222860,note_off,80,0,7,,,,,,,,5,,,,52,64
222860,note_off,80,0,13,,,,,,,,12,,,,48,64
222860,note_off,80,0,12,,,,,,,,11,,,,52,64
222860,note_off,80,0,9,,,,,,,,7,,,,36,64
222860,note_off,80,0,5,,,,,,,,3,,,,70,64
222860,note_off,80,0,10,,,,,,,,8,,,,70,64
222860,note_off,80,0,14,,,,,,,,13,,,,36,64
222860,note_off,80,0,6,,,,,,,,4,,,,67,64
222860,note_off,80,0,11,,,,,,,,10,,,,67,64
223015,note_off,235,0,15,,,,,,,,14,,,,36,64
223020,note_on,160,0,5,,,,,,,,3,,,,69,45
223020,note_on,160,0,14,,,,,,,,13,,,,41,30
223020,note_on,160,0,10,,,,,,,,8,,,,69,30
223020,note_on,160,0,8,,,,,,,,6,,,,53,45
223020,note_on,160,0,13,,,,,,,,12,,,,53,30
223020,set_tempo,960,1,0,652173,,,,,,,,,,,,
223020,note_on,160,0,11,,,,,,,,10,,,,65,30
223020,note_on,160,0,12,,,,,,,,11,,,,57,30
223020,note_on,5,0,15,,,,,,,,14,,,,41,30
223020,note_on,160,0,9,,,,,,,,7,,,,41,45
223020,note_on,160,0,6,,,,,,,,4,,,,65,45
223020,note_on,160,0,7,,,,,,,,5,,,,57,45
223050,note_on,0,0,10,,,,,,,,8,,,,70,30
223050,note_off,30,0,6,,,,,,,,4,,,,65,64
223050,note_off,30,0,10,,,,,,,,8,,,,69,64
223050,note_on,0,0,6,,,,,,,,4,,,,67,45
223050,note_on,0,0,5,,,,,,,,3,,,,70,45
223050,note_off,30,0,5,,,,,,,,3,,,,69,64
223050,note_on,0,0,11,,,,,,,,10,,,,67,30
223050,note_off,30,0,11,,,,,,,,10,,,,65,64
223080,note_on,0,0,5,,,,,,,,3,,,,69,45
223080,note_on,0,0,6,,,,,,,,4,,,,65,45
223080,note_on,0,0,11,,,,,,,,10,,,,65,30
223080,note_off,30,0,5,,,,,,,,3,,,,70,64
223080,note_off,30,0,10,,,,,,,,8,,,,70,64
223080,note_off,30,0,6,,,,,,,,4,,,,67,64
223080,note_on,0,0,10,,,,,,,,8,,,,69,30
223080,note_off,30,0,11,,,,,,,,10,,,,67,64
223100,note_off,80,0,8,,,,,,,,6,,,,53,64
223100,note_off,80,0,7,,,,,,,,5,,,,57,64
223100,note_off,80,0,12,,,,,,,,11,,,,57,64
223100,note_off,80,0,9,,,,,,,,7,,,,41,64
223100,note_off,80,0,14,,,,,,,,13,,,,41,64
223100,note_off,80,0,13,,,,,,,,12,,,,53,64
223110,note_on,0,0,6,,,,,,,,4,,,,67,45
223110,note_off,30,0,6,,,,,,,,4,,,,65,64
223110,note_on,0,0,5,,,,,,,,3,,,,70,45
223110,note_off,30,0,5,,,,,,,,3,,,,69,64
223110,note_off,30,0,11,,,,,,,,10,,,,65,64
223110,note_on,0,0,11,,,,,,,,10,,,,67,30
223110,note_on,0,0,10,,,,,,,,8,,,,70,30
223110,note_off,30,0,10,,,,,,,,8,,,,69,64
223140,note_off,30,0,11,,,,,,,,10,,,,67,64
223140,note_on,0,0,11,,,,,,,,10,,,,65,30
223140,note_on,0,0,5,,,,,,,,3,,,,69,45
223140,note_off,30,0,6,,,,,,,,4,,,,67,64
223140,note_off,30,0,10,,,,,,,,8,,,,70,64
223140,note_on,0,0,10,,,,,,,,8,,,,69,30
223140,note_on,0,0,6,,,,,,,,4,,,,65,45
223140,note_off,30,0,5,,,,,,,,3,,,,70,64
223170,note_off,30,0,5,,,,,,,,3,,,,69,64
223170,note_on,0,0,5,,,,,,,,3,,,,70,45
223170,note_off,30,0,11,,,,,,,,10,,,,65,64
223170,note_off,30,0,6,,,,,,,,4,,,,65,64
223170,note_off,30,0,10,,,,,,,,8,,,,69,64
223170,note_on,0,0,11,,,,,,,,10,,,,67,30
223170,note_on,0,0,10,,,,,,,,8,,,,70,30
223170,note_on,0,0,6,,,,,,,,4,,,,67,45
223200,note_on,0,0,11,,,,,,,,10,,,,65,30
223200,note_off,30,0,6,,,,,,,,4,,,,67,64
223200,note_on,0,0,6,,,,,,,,4,,,,65,45
223200,note_on,0,0,10,,,,,,,,8,,,,69,30
223200,note_off,30,0,5,,,,,,,,3,,,,70,64
223200,note_off,30,0,11,,,,,,,,10,,,,67,64
223200,note_off,30,0,10,,,,,,,,8,,,,70,64
223200,note_on,0,0,5,,,,,,,,3,,,,69,45
223230,note_off,30,0,10,,,,,,,,8,,,,69,64
223230,note_on,0,0,10,,,,,,,,8,,,,70,30
223230,note_off,30,0,5,,,,,,,,3,,,,69,64
223230,note_off,30,0,11,,,,,,,,10,,,,65,64
223230,note_on,0,0,5,,,,,,,,3,,,,70,45
223230,note_on,0,0,6,,,,,,,,4,,,,67,45
223230,note_off,30,0,6,,,,,,,,4,,,,65,64
223230,note_on,0,0,11,,,,,,,,10,,,,67,30
223260,note_on,160,0,12,,,,,,,,11,,,,57,30
223260,note_on,160,0,9,,,,,,,,7,,,,41,45
223260,note_on,0,0,6,,,,,,,,4,,,,64,45
223260,note_off,30,0,6,,,,,,,,4,,,,67,64
223260,note_on,160,0,7,,,,,,,,5,,,,57,45
223260,note_off,30,0,10,,,,,,,,8,,,,70,64
223260,note_on,160,0,13,,,,,,,,12,,,,53,30
223260,note_on,160,0,8,,,,,,,,6,,,,53,45
223260,note_on,0,0,10,,,,,,,,8,,,,67,30
223260,note_on,0,0,11,,,,,,,,10,,,,64,30
223260,note_off,30,0,11,,,,,,,,10,,,,67,64
223260,note_on,0,0,5,,,,,,,,3,,,,67,45
223260,note_on,160,0,14,,,,,,,,13,,,,41,30
223260,note_off,30,0,5,,,,,,,,3,,,,70,64
223340,note_off,80,0,13,,,,,,,,12,,,,53,64
223340,note_off,80,0,9,,,,,,,,7,,,,41,64
223340,note_off,80,0,12,,,,,,,,11,,,,57,64
223340,note_off,80,0,5,,,,,,,,3,,,,67,64
223340,note_off,80,0,11,,,,,,,,10,,,,64,64
223340,note_off,80,0,7,,,,,,,,5,,,,57,64
223340,note_off,80,0,8,,,,,,,,6,,,,53,64
223340,note_off,80,0,10,,,,,,,,8,,,,67,64
223340,note_off,80,0,6,,,,,,,,4,,,,64,64
223340,note_off,80,0,14,,,,,,,,13,,,,41,64
223380,note_on,40,0,5,,,,,,,,3,,,,69,45
223380,note_on,40,0,11,,,,,,,,10,,,,65,30
223380,note_on,40,0,10,,,,,,,,8,,,,69,30
223380,note_on,40,0,6,,,,,,,,4,,,,65,45
223420,note_off,400,0,15,,,,,,,,14,,,,41,64
223460,note_off,80,0,10,,,,,,,,8,,,,69,64
223460,note_off,80,0,5,,,,,,,,3,,,,69,64
223460,note_off,80,0,11,,,,,,,,10,,,,65,64
223460,note_off,80,0,6,,,,,,,,4,,,,65,64
223500,note_on,40,0,10,,,,,,,,8,,,,70,30
223500,note_on,40,0,11,,,,,,,,10,,,,67,30
223500,note_on,40,0,5,,,,,,,,3,,,,70,45
223500,note_on,160,0,7,,,,,,,,5,,,,50,45
223500,set_tempo,480,1,0,789473,,,,,,,,,,,,
223500,note_on,160,0,12,,,,,,,,11,,,,50,30
223500,note_on,160,0,14,,,,,,,,13,,,,34,30
223500,note_on,80,0,15,,,,,,,,14,,,,34,30
223500,note_on,160,0,8,,,,,,,,6,,,,46,45
223500,note_on,160,0,13,,,,,,,,12,,,,46,30
223500,note_on,40,0,6,,,,,,,,4,,,,67,45
223500,note_on,160,0,9,,,,,,,,7,,,,34,45
223580,note_off,80,0,8,,,,,,,,6,,,,46,64
223580,note_off,80,0,5,,,,,,,,3,,,,70,64
223580,note_off,80,0,12,,,,,,,,11,,,,50,64
223580,note_off,80,0,6,,,,,,,,4,,,,67,64
223580,note_off,80,0,11,,,,,,,,10,,,,67,64
223580,note_off,80,0,9,,,,,,,,7,,,,34,64
223580,note_off,80,0,10,,,,,,,,8,,,,70,64
223580,note_off,80,0,7,,,,,,,,5,,,,50,64
223580,note_off,80,0,13,,,,,,,,12,,,,46,64
223580,note_off,80,0,14,,,,,,,,13,,,,34,64
223735,note_off,235,0,15,,,,,,,,14,,,,34,64
223740,note_on,5,0,15,,,,,,,,14,,,,36,30
223740,note_on,160,0,12,,,,,,,,11,,,,48,30
223740,note_on,160,0,13,,,,,,,,12,,,,48,30
223740,note_on,160,0,14,,,,,,,,13,,,,36,30
223740,note_on,160,0,7,,,,,,,,5,,,,48,45
223740,note_on,160,0,9,,,,,,,,7,,,,36,45
223740,note_on,160,0,6,,,,,,,,4,,,,64,45
223740,note_on,160,0,5,,,,,,,,3,,,,67,45
223740,set_tempo,240,1,0,937500,,,,,,,,,,,,
223740,note_on,160,0,8,,,,,,,,6,,,,48,45
223740,note_on,160,0,10,,,,,,,,8,,,,67,30
223740,note_on,160,0,11,,,,,,,,10,,,,64,30
223820,note_off,80,0,8,,,,,,,,6,,,,48,64
223820,note_off,80,0,14,,,,,,,,13,,,,36,64
223820,note_off,80,0,7,,,,,,,,5,,,,48,64
223820,note_off,80,0,11,,,,,,,,10,,,,64,64
223820,note_off,80,0,10,,,,,,,,8,,,,67,64
223820,note_off,80,0,9,,,,,,,,7,,,,36,64
223820,note_off,80,0,6,,,,,,,,4,,,,64,64
223820,note_off,80,0,12,,,,,,,,11,,,,48,64
223820,note_off,80,0,5,,,,,,,,3,,,,67,64
223820,note_off,80,0,13,,,,,,,,12,,,,48,64
223975,note_off,235,0,15,,,,,,,,14,,,,36,64
223980,note_on,160,0,12,,,,,,,,11,,,,48,30
223980,note_on,160,0,9,,,,,,,,7,,,,29,45
223980,note_on,160,0,10,,,,,,,,8,,,,65,30
223980,note_on,160,0,13,,,,,,,,12,,,,41,30
223980,note_on,160,0,14,,,,,,,,13,,,,29,30
223980,note_on,0,0,15,,,,,,,,14,,,,41,30
223980,note_on,160,0,11,,,,,,,,10,,,,60,30
223980,note_on,160,0,6,,,,,,,,4,,,,60,45
223980,set_tempo,240,1,0,1250000,,,,,,,,,,,,
223980,end_of_track,0,1,0,,,,,,,,,,,,,
223980,note_on,160,0,5,,,,,,,,3,,,,65,45
223980,note_on,160,0,8,,,,,,,,6,,,,41,45
223980,note_on,160,0,7,,,,,,,,5,,,,48,45
223980,note_on,5,0,15,,,,,,,,14,,,,29,30
225300,note_off,1320,0,15,,,,,,,,14,,,,41,64
225300,end_of_track,0,1,5,,,,,,,,,,,,,
225300,end_of_track,0,1,12,,,,,,,,,,,,,
225300,note_off,1320,0,7,,,,,,,,5,,,,48,64
225300,end_of_track,0,1,7,,,,,,,,,,,,,
225300,end_of_track,0,1,6,,,,,,,,,,,,,
225300,note_off,1320,0,6,,,,,,,,4,,,,60,64
225300,note_off,1320,0,10,,,,,,,,8,,,,65,64
225300,end_of_track,0,1,10,,,,,,,,,,,,,
225300,end_of_track,0,1,11,,,,,,,,,,,,,
225300,note_off,1320,0,11,,,,,,,,10,,,,60,64
225300,note_off,1320,0,12,,,,,,,,11,,,,48,64
225300,note_off,1320,0,8,,,,,,,,6,,,,41,64
225300,note_off,1320,0,5,,,,,,,,3,,,,65,64
225300,end_of_track,0,1,14,,,,,,,,,,,,,
225300,note_off,1320,0,14,,,,,,,,13,,,,29,64
225300,note_off,0,0,15,,,,,,,,14,,,,29,64
225300,end_of_track,0,1,13,,,,,,,,,,,,,
225300,note_off,1320,0,13,,,,,,,,12,,,,41,64
225300,note_off,1320,0,9,,,,,,,,7,,,,29,64
225300,end_of_track,0,1,9,,,,,,,,,,,,,
225300,end_of_track,0,1,8,,,,,,,,,,,,,
225300,end_of_track,0,1,15,,,,,,,,,,,,,
