tick,type,numerator,denominator,clocks_per_click,notated_32nd_notes_per_beat,time,meta,track,tempo,program,channel,control,value,note,velocity
0,time_signature,4,4,24,8,0,1,0,,,,,,,
0,note_on,,,,,0,0,2,,,1,,,65,80
0,control_change,,,,,0,0,2,,,1,7,118,,
0,program_change,,,,,0,0,2,,68,1,,,,
0,track_name,,,,,0,1,2,,,,,,,
0,track_name,,,,,0,1,4,,,,,,,
0,track_name,,,,,0,1,3,,,,,,,
0,program_change,,,,,0,0,4,,48,3,,,,
0,control_change,,,,,0,0,1,,,0,7,117,,
0,note_on,,,,,0,0,1,,,0,,,74,80
0,track_name,,,,,0,1,1,,,,,,,
0,control_change,,,,,0,0,4,,,3,7,127,,
0,note_on,,,,,0,0,4,,,3,,,50,80
0,program_change,,,,,0,0,3,,48,2,,,,
0,control_change,,,,,0,0,3,,,2,7,119,,
0,set_tempo,,,,,0,1,0,521739,,,,,,
0,program_change,,,,,0,0,1,,68,0,,,,
96,note_off,,,,,96,0,2,,,1,,,65,64
96,note_off,,,,,96,0,1,,,0,,,74,64
96,note_off,,,,,96,0,4,,,3,,,50,64
120,note_on,,,,,24,0,2,,,1,,,64,80
120,note_on,,,,,24,0,4,,,3,,,52,80
120,note_on,,,,,24,0,1,,,0,,,73,80
168,note_off,,,,,48,0,1,,,0,,,73,64
180,note_on,,,,,12,0,1,,,0,,,74,80
216,note_off,,,,,96,0,4,,,3,,,52,64
216,note_off,,,,,96,0,2,,,1,,,64,64
228,note_off,,,,,48,0,1,,,0,,,74,64
240,note_on,,,,,24,0,2,,,1,,,62,80
240,note_on,,,,,24,0,4,,,3,,,53,80
240,note_on,,,,,12,0,1,,,0,,,69,80
336,note_off,,,,,96,0,4,,,3,,,53,64
336,note_off,,,,,96,0,2,,,1,,,62,64
336,note_off,,,,,96,0,1,,,0,,,69,64
360,note_on,,,,,24,0,1,,,0,,,77,80
360,note_on,,,,,24,0,4,,,3,,,50,80
360,note_on,,,,,24,0,2,,,1,,,74,80
456,note_off,,,,,96,0,2,,,1,,,74,64
456,note_off,,,,,96,0,4,,,3,,,50,64
456,note_off,,,,,96,0,1,,,0,,,77,64
480,note_on,,,,,24,0,2,,,1,,,74,80
480,note_on,,,,,24,0,4,,,3,,,57,80
480,note_on,,,,,24,0,1,,,0,,,77,80
576,note_off,,,,,96,0,4,,,3,,,57,64
600,note_on,,,,,24,0,4,,,3,,,55,80
672,note_off,,,,,192,0,1,,,0,,,77,64
672,note_off,,,,,192,0,2,,,1,,,74,64
696,note_off,,,,,96,0,4,,,3,,,55,64
720,note_on,,,,,24,0,4,,,3,,,57,80
720,note_on,,,,,48,0,2,,,1,,,73,80
720,note_on,,,,,48,0,1,,,0,,,76,80
816,note_off,,,,,96,0,1,,,0,,,76,64
816,note_off,,,,,96,0,2,,,1,,,73,64
816,note_off,,,,,96,0,4,,,3,,,57,64
840,note_on,,,,,24,0,1,,,0,,,73,80
840,note_on,,,,,24,0,2,,,1,,,69,80
840,note_on,,,,,24,0,4,,,3,,,45,80
936,note_off,,,,,96,0,2,,,1,,,69,64
936,note_off,,,,,96,0,1,,,0,,,73,64
936,note_off,,,,,96,0,4,,,3,,,45,64
960,note_on,,,,,24,0,2,,,1,,,65,80
960,note_on,,,,,24,0,1,,,0,,,74,80
960,note_on,,,,,24,0,4,,,3,,,50,80
1056,note_off,,,,,96,0,1,,,0,,,74,64
1056,note_off,,,,,96,0,4,,,3,,,50,64
1056,note_off,,,,,96,0,2,,,1,,,65,64
1080,note_on,,,,,24,0,2,,,1,,,64,80
1080,note_on,,,,,24,0,4,,,3,,,52,80
1080,note_on,,,,,24,0,1,,,0,,,73,80
1128,note_off,,,,,48,0,1,,,0,,,73,64
1140,note_on,,,,,12,0,1,,,0,,,74,80
1176,note_off,,,,,96,0,4,,,3,,,52,64
1176,note_off,,,,,96,0,2,,,1,,,64,64
1188,note_off,,,,,48,0,1,,,0,,,74,64
1200,note_on,,,,,24,0,4,,,3,,,53,80
1200,note_on,,,,,24,0,2,,,1,,,62,80
1200,note_on,,,,,12,0,1,,,0,,,69,80
1296,note_off,,,,,96,0,2,,,1,,,62,64
1296,note_off,,,,,96,0,4,,,3,,,53,64
1296,note_off,,,,,96,0,1,,,0,,,69,64
1320,note_on,,,,,24,0,2,,,1,,,74,80
1320,note_on,,,,,24,0,4,,,3,,,50,80
1320,note_on,,,,,24,0,1,,,0,,,77,80
1416,note_off,,,,,96,0,4,,,3,,,50,64
1416,note_off,,,,,96,0,1,,,0,,,77,64
1416,note_off,,,,,96,0,2,,,1,,,74,64
1440,note_on,,,,,24,0,4,,,3,,,57,80
1440,note_on,,,,,24,0,1,,,0,,,77,80
1440,note_on,,,,,24,0,2,,,1,,,74,80
1536,note_off,,,,,96,0,4,,,3,,,57,64
1560,note_on,,,,,24,0,4,,,3,,,55,80
1632,note_off,,,,,192,0,2,,,1,,,74,64
1632,note_off,,,,,192,0,1,,,0,,,77,64
1656,note_off,,,,,96,0,4,,,3,,,55,64
1680,note_on,,,,,24,0,4,,,3,,,57,80
1680,note_on,,,,,48,0,1,,,0,,,76,80
1680,note_on,,,,,48,0,2,,,1,,,73,80
1776,note_off,,,,,96,0,4,,,3,,,57,64
1776,note_off,,,,,96,0,2,,,1,,,73,64
1776,note_off,,,,,96,0,1,,,0,,,76,64
1800,note_on,,,,,24,0,4,,,3,,,45,80
1800,note_on,,,,,24,0,2,,,1,,,76,80
1800,note_on,,,,,24,0,1,,,0,,,81,80
1896,note_off,,,,,96,0,2,,,1,,,76,64
1896,note_off,,,,,96,0,4,,,3,,,45,64
1896,note_off,,,,,96,0,1,,,0,,,81,64
1920,note_on,,,,,24,0,4,,,3,,,50,80
1920,note_on,,,,,24,0,1,,,0,,,77,80
1920,note_on,,,,,24,0,2,,,1,,,74,80
2016,note_off,,,,,96,0,4,,,3,,,50,64
2016,note_off,,,,,96,0,1,,,0,,,77,64
2040,note_on,,,,,24,0,4,,,3,,,52,80
2040,note_on,,,,,24,0,1,,,0,,,76,80
2136,note_off,,,,,96,0,1,,,0,,,76,64
2136,note_off,,,,,96,0,4,,,3,,,52,64
2160,note_on,,,,,24,0,1,,,0,,,74,80
2160,note_on,,,,,24,0,4,,,3,,,53,80
2208,note_off,,,,,288,0,2,,,1,,,74,64
2256,note_off,,,,,96,0,1,,,0,,,74,64
2256,note_off,,,,,96,0,4,,,3,,,53,64
2280,note_on,,,,,24,0,1,,,0,,,82,80
2280,note_on,,,,,24,0,4,,,3,,,55,80
2280,note_on,,,,,72,0,2,,,1,,,77,80
2376,note_off,,,,,96,0,4,,,3,,,55,64
2376,note_off,,,,,96,0,2,,,1,,,77,64
2376,note_off,,,,,96,0,1,,,0,,,82,64
2400,note_on,,,,,24,0,2,,,1,,,77,80
2400,note_on,,,,,24,0,1,,,0,,,74,80
2400,note_on,,,,,24,0,4,,,3,,,57,80
2496,note_off,,,,,96,0,4,,,3,,,57,64
2520,note_on,,,,,24,0,4,,,3,,,55,80
2592,note_off,,,,,192,0,1,,,0,,,74,64
2592,note_off,,,,,192,0,2,,,1,,,77,64
2616,note_off,,,,,96,0,4,,,3,,,55,64
2640,note_on,,,,,48,0,1,,,0,,,73,80
2640,note_on,,,,,48,0,2,,,1,,,76,80
2640,note_on,,,,,24,0,4,,,3,,,57,80
2736,note_off,,,,,96,0,4,,,3,,,57,64
2760,note_on,,,,,24,0,4,,,3,,,45,80
2832,note_off,,,,,192,0,2,,,1,,,76,64
2832,note_off,,,,,192,0,1,,,0,,,73,64
2856,note_off,,,,,96,0,4,,,3,,,45,64
2880,note_on,,,,,0,0,4,,,3,,,50,80
2880,note_on,,,,,24,0,4,,,3,,,53,80
2880,note_on,,,,,2880,0,3,,,2,,,74,80
2880,note_on,,,,,0,0,3,,,2,,,65,80
2976,note_off,,,,,0,0,4,,,3,,,53,64
2976,note_off,,,,,96,0,3,,,2,,,65,64
2976,note_off,,,,,0,0,3,,,2,,,74,64
2976,note_off,,,,,96,0,4,,,3,,,50,64
3000,note_on,,,,,0,0,3,,,2,,,73,80
3000,note_on,,,,,24,0,3,,,2,,,64,80
3000,note_on,,,,,0,0,4,,,3,,,52,80
3000,note_on,,,,,24,0,4,,,3,,,55,80
3048,note_off,,,,,0,0,3,,,2,,,64,64
3048,note_off,,,,,48,0,3,,,2,,,73,64
3060,note_on,,,,,0,0,3,,,2,,,74,80
3060,note_on,,,,,12,0,3,,,2,,,64,80
3096,note_off,,,,,96,0,4,,,3,,,52,64
3096,note_off,,,,,0,0,4,,,3,,,55,64
3108,note_off,,,,,0,0,3,,,2,,,64,64
3108,note_off,,,,,48,0,3,,,2,,,74,64
3120,note_on,,,,,0,0,3,,,2,,,62,80
3120,note_on,,,,,12,0,3,,,2,,,69,80
3120,note_on,,,,,24,0,4,,,3,,,57,80
3120,note_on,,,,,0,0,4,,,3,,,53,80
3216,note_off,,,,,96,0,3,,,2,,,62,64
3216,note_off,,,,,0,0,4,,,3,,,57,64
3216,note_off,,,,,96,0,4,,,3,,,53,64
3216,note_off,,,,,0,0,3,,,2,,,69,64
3240,note_on,,,,,0,0,3,,,2,,,77,80
3240,note_on,,,,,24,0,3,,,2,,,69,80
3240,note_on,,,,,0,0,3,,,2,,,74,80
3240,note_on,,,,,24,0,4,,,3,,,50,80
3336,note_off,,,,,96,0,4,,,3,,,50,64
3336,note_off,,,,,96,0,3,,,2,,,77,64
3336,note_off,,,,,0,0,3,,,2,,,74,64
3336,note_off,,,,,0,0,3,,,2,,,69,64
3360,note_on,,,,,0,0,3,,,2,,,77,80
3360,note_on,,,,,24,0,4,,,3,,,57,80
3360,note_on,,,,,0,0,3,,,2,,,69,80
3360,note_on,,,,,24,0,3,,,2,,,74,80
3456,note_off,,,,,96,0,4,,,3,,,57,64
3480,note_on,,,,,24,0,4,,,3,,,55,80
3552,note_off,,,,,0,0,3,,,2,,,74,64
3552,note_off,,,,,0,0,3,,,2,,,69,64
3552,note_off,,,,,192,0,3,,,2,,,77,64
3576,note_off,,,,,96,0,4,,,3,,,55,64
3600,note_on,,,,,24,0,4,,,3,,,45,80
3600,note_on,,,,,0,0,4,,,3,,,57,80
3600,note_on,,,,,48,0,3,,,2,,,73,80
3600,note_on,,,,,0,0,3,,,2,,,76,80
3696,note_off,,,,,96,0,3,,,2,,,76,64
3696,note_off,,,,,0,0,3,,,2,,,73,64
3696,note_off,,,,,96,0,4,,,3,,,57,64
3696,note_off,,,,,0,0,4,,,3,,,45,64
3720,note_on,,,,,24,0,3,,,2,,,64,80
3720,note_on,,,,,0,0,3,,,2,,,69,80
3720,note_on,,,,,0,0,3,,,2,,,73,80
3816,note_off,,,,,96,0,3,,,2,,,73,64
3816,note_off,,,,,0,0,3,,,2,,,64,64
3816,note_off,,,,,0,0,3,,,2,,,69,64
3840,note_on,,,,,0,0,4,,,3,,,53,80
3840,note_on,,,,,0,0,3,,,2,,,74,80
3840,note_on,,,,,24,0,3,,,2,,,65,80
3840,note_on,,,,,144,0,4,,,3,,,50,80
3936,note_off,,,,,96,0,4,,,3,,,53,64
3936,note_off,,,,,0,0,3,,,2,,,65,64
3936,note_off,,,,,0,0,4,,,3,,,50,64
3936,note_off,,,,,96,0,3,,,2,,,74,64
3960,note_on,,,,,0,0,3,,,2,,,64,80
3960,note_on,,,,,24,0,3,,,2,,,73,80
3960,note_on,,,,,24,0,4,,,3,,,52,80
3960,note_on,,,,,0,0,4,,,3,,,55,80
4008,note_off,,,,,48,0,3,,,2,,,64,64
4008,note_off,,,,,0,0,3,,,2,,,73,64
4020,note_on,,,,,12,0,3,,,2,,,74,80
4020,note_on,,,,,0,0,3,,,2,,,64,80
4056,note_off,,,,,0,0,4,,,3,,,52,64
4056,note_off,,,,,96,0,4,,,3,,,55,64
4068,note_off,,,,,48,0,3,,,2,,,64,64
4068,note_off,,,,,0,0,3,,,2,,,74,64
4080,note_on,,,,,0,0,4,,,3,,,57,80
4080,note_on,,,,,24,0,4,,,3,,,53,80
4080,note_on,,,,,0,0,3,,,2,,,69,80
4080,note_on,,,,,12,0,3,,,2,,,62,80
4176,note_off,,,,,0,0,4,,,3,,,53,64
4176,note_off,,,,,96,0,4,,,3,,,57,64
4176,note_off,,,,,96,0,3,,,2,,,69,64
4176,note_off,,,,,0,0,3,,,2,,,62,64
4200,note_on,,,,,24,0,3,,,2,,,69,80
4200,note_on,,,,,0,0,3,,,2,,,77,80
4200,note_on,,,,,0,0,3,,,2,,,74,80
4200,note_on,,,,,24,0,4,,,3,,,50,80
4296,note_off,,,,,96,0,3,,,2,,,74,64
4296,note_off,,,,,0,0,3,,,2,,,77,64
4296,note_off,,,,,0,0,3,,,2,,,69,64
4296,note_off,,,,,96,0,4,,,3,,,50,64
4320,note_on,,,,,0,0,3,,,2,,,69,80
4320,note_on,,,,,0,0,3,,,2,,,74,80
4320,note_on,,,,,24,0,3,,,2,,,77,80
4320,note_on,,,,,24,0,4,,,3,,,57,80
4416,note_off,,,,,96,0,4,,,3,,,57,64
4440,note_on,,,,,24,0,4,,,3,,,55,80
4512,note_off,,,,,0,0,3,,,2,,,77,64
4512,note_off,,,,,0,0,3,,,2,,,74,64
4512,note_off,,,,,192,0,3,,,2,,,69,64
4536,note_off,,,,,96,0,4,,,3,,,55,64
4560,note_on,,,,,0,0,3,,,2,,,76,80
4560,note_on,,,,,48,0,3,,,2,,,73,80
4560,note_on,,,,,24,0,4,,,3,,,57,80
4656,note_off,,,,,96,0,3,,,2,,,76,64
4656,note_off,,,,,0,0,3,,,2,,,73,64
4656,note_off,,,,,96,0,4,,,3,,,57,64
4680,note_on,,,,,24,0,4,,,3,,,45,80
4680,note_on,,,,,0,0,3,,,2,,,64,80
4680,note_on,,,,,0,0,3,,,2,,,73,80
4680,note_on,,,,,24,0,3,,,2,,,69,80
4776,note_off,,,,,0,0,3,,,2,,,73,64
4776,note_off,,,,,96,0,3,,,2,,,64,64
4776,note_off,,,,,0,0,3,,,2,,,69,64
4776,note_off,,,,,96,0,4,,,3,,,45,64
4800,note_on,,,,,0,0,3,,,2,,,74,80
4800,note_on,,,,,0,0,3,,,2,,,77,80
4800,note_on,,,,,24,0,3,,,2,,,69,80
4800,note_on,,,,,24,0,4,,,3,,,50,80
4896,note_off,,,,,0,0,3,,,2,,,69,64
4896,note_off,,,,,0,0,3,,,2,,,74,64
4896,note_off,,,,,96,0,3,,,2,,,77,64
4896,note_off,,,,,96,0,4,,,3,,,50,64
4920,note_on,,,,,24,0,4,,,3,,,52,80
4920,note_on,,,,,24,0,3,,,2,,,69,80
4920,note_on,,,,,0,0,3,,,2,,,76,80
5016,note_off,,,,,96,0,4,,,3,,,52,64
5016,note_off,,,,,96,0,3,,,2,,,76,64
5016,note_off,,,,,0,0,3,,,2,,,69,64
5040,note_on,,,,,24,0,3,,,2,,,69,80
5040,note_on,,,,,24,0,4,,,3,,,53,80
5040,note_on,,,,,0,0,3,,,2,,,74,80
5136,note_off,,,,,96,0,4,,,3,,,53,64
5136,note_off,,,,,96,0,3,,,2,,,74,64
5136,note_off,,,,,0,0,3,,,2,,,69,64
5160,note_on,,,,,24,0,3,,,2,,,77,80
5160,note_on,,,,,24,0,4,,,3,,,55,80
5160,note_on,,,,,0,0,3,,,2,,,82,80
5160,note_on,,,,,0,0,3,,,2,,,70,80
5256,note_off,,,,,96,0,4,,,3,,,55,64
5256,note_off,,,,,96,0,3,,,2,,,82,64
5256,note_off,,,,,0,0,3,,,2,,,77,64
5256,note_off,,,,,0,0,3,,,2,,,70,64
5280,note_on,,,,,24,0,3,,,2,,,69,80
5280,note_on,,,,,24,0,4,,,3,,,57,80
5280,note_on,,,,,0,0,3,,,2,,,77,80
5280,note_on,,,,,0,0,3,,,2,,,74,80
5376,note_off,,,,,96,0,4,,,3,,,57,64
5400,note_on,,,,,24,0,4,,,3,,,55,80
5472,note_off,,,,,0,0,3,,,2,,,69,64
5472,note_off,,,,,0,0,3,,,2,,,77,64
5472,note_off,,,,,192,0,3,,,2,,,74,64
5496,note_off,,,,,96,0,4,,,3,,,55,64
5520,note_on,,,,,0,0,3,,,2,,,69,80
5520,note_on,,,,,24,0,4,,,3,,,57,80
5520,note_on,,,,,0,0,3,,,2,,,73,80
5520,note_on,,,,,48,0,3,,,2,,,76,80
5616,note_off,,,,,96,0,4,,,3,,,57,64
5640,note_on,,,,,24,0,4,,,3,,,45,80
5712,note_off,,,,,192,0,3,,,2,,,73,64
5712,note_off,,,,,0,0,3,,,2,,,69,64
5712,note_off,,,,,0,0,3,,,2,,,76,64
5736,note_off,,,,,96,0,4,,,3,,,45,64
5760,note_on,,,,,2928,0,2,,,1,,,77,80
5760,note_on,,,,,2928,0,1,,,0,,,81,80
5760,note_on,,,,,24,0,4,,,3,,,50,80
5856,note_off,,,,,96,0,4,,,3,,,50,64
5856,note_off,,,,,96,0,1,,,0,,,81,64
5856,note_off,,,,,96,0,2,,,1,,,77,64
5880,note_on,,,,,24,0,4,,,3,,,62,80
5880,note_on,,,,,24,0,2,,,1,,,77,80
5880,note_on,,,,,24,0,1,,,0,,,81,80
5976,note_off,,,,,96,0,4,,,3,,,62,64
6000,note_on,,,,,24,0,4,,,3,,,62,80
6072,note_off,,,,,192,0,1,,,0,,,81,64
6072,note_off,,,,,192,0,2,,,1,,,77,64
6096,note_off,,,,,96,0,4,,,3,,,62,64
6120,note_on,,,,,48,0,2,,,1,,,76,80
6120,note_on,,,,,48,0,1,,,0,,,79,80
6120,note_on,,,,,24,0,4,,,3,,,50,80
6216,note_off,,,,,96,0,1,,,0,,,79,64
6216,note_off,,,,,96,0,4,,,3,,,50,64
6216,note_off,,,,,96,0,2,,,1,,,76,64
6240,note_on,,,,,24,0,1,,,0,,,77,80
6240,note_on,,,,,24,0,2,,,1,,,74,80
6240,note_on,,,,,24,0,4,,,3,,,50,80
6336,note_off,,,,,96,0,1,,,0,,,77,64
6336,note_off,,,,,96,0,2,,,1,,,74,64
6336,note_off,,,,,96,0,4,,,3,,,50,64
6360,note_on,,,,,24,0,1,,,0,,,77,80
6360,note_on,,,,,24,0,4,,,3,,,62,80
6360,note_on,,,,,24,0,2,,,1,,,74,80
6456,note_off,,,,,96,0,4,,,3,,,62,64
6480,note_on,,,,,24,0,4,,,3,,,62,80
6552,note_off,,,,,192,0,2,,,1,,,74,64
6552,note_off,,,,,192,0,1,,,0,,,77,64
6576,note_off,,,,,96,0,4,,,3,,,62,64
6600,note_on,,,,,24,0,4,,,3,,,50,80
6600,note_on,,,,,48,0,2,,,1,,,72,80
6600,note_on,,,,,48,0,1,,,0,,,76,80
6696,note_off,,,,,96,0,2,,,1,,,72,64
6696,note_off,,,,,96,0,4,,,3,,,50,64
6696,note_off,,,,,96,0,1,,,0,,,76,64
6720,note_on,,,,,24,0,1,,,0,,,74,80
6720,note_on,,,,,24,0,2,,,1,,,70,80
6720,note_on,,,,,24,0,4,,,3,,,50,80
6816,note_off,,,,,96,0,2,,,1,,,70,64
6816,note_off,,,,,96,0,4,,,3,,,50,64
6816,note_off,,,,,96,0,1,,,0,,,74,64
6840,note_on,,,,,24,0,4,,,3,,,62,80
6840,note_on,,,,,24,0,1,,,0,,,74,80
6840,note_on,,,,,24,0,2,,,1,,,70,80
6936,note_off,,,,,96,0,4,,,3,,,62,64
6960,note_on,,,,,24,0,4,,,3,,,62,80
7032,note_off,,,,,192,0,1,,,0,,,74,64
7032,note_off,,,,,192,0,2,,,1,,,70,64
7056,note_off,,,,,96,0,4,,,3,,,62,64
7080,note_on,,,,,24,0,4,,,3,,,50,80
7080,note_on,,,,,48,0,1,,,0,,,72,80
7080,note_on,,,,,48,0,2,,,1,,,69,80
7176,note_off,,,,,96,0,4,,,3,,,50,64
7176,note_off,,,,,96,0,1,,,0,,,72,64
7176,note_off,,,,,96,0,2,,,1,,,69,64
7200,note_on,,,,,24,0,4,,,3,,,43,80
7200,note_on,,,,,24,0,2,,,1,,,67,80
7200,note_on,,,,,0,0,3,,,2,,,79,80
7200,note_on,,,,,0,0,3,,,2,,,82,80
7200,note_on,,,,,24,0,1,,,0,,,70,80
7200,note_on,,,,,1488,0,3,,,2,,,70,80
7296,note_off,,,,,96,0,4,,,3,,,43,64
7296,note_off,,,,,96,0,2,,,1,,,67,64
7296,note_off,,,,,0,0,3,,,2,,,70,64
7296,note_off,,,,,0,0,3,,,2,,,79,64
7296,note_off,,,,,96,0,1,,,0,,,70,64
7296,note_off,,,,,96,0,3,,,2,,,82,64
7320,note_on,,,,,0,0,3,,,2,,,82,80
7320,note_on,,,,,0,0,3,,,2,,,79,80
7320,note_on,,,,,24,0,3,,,2,,,70,80
7320,note_on,,,,,24,0,2,,,1,,,67,80
7320,note_on,,,,,24,0,4,,,3,,,55,80
7320,note_on,,,,,24,0,1,,,0,,,70,80
7416,note_off,,,,,96,0,4,,,3,,,55,64
7440,note_on,,,,,24,0,4,,,3,,,55,80
7512,note_off,,,,,0,0,3,,,2,,,82,64
7512,note_off,,,,,192,0,3,,,2,,,79,64
7512,note_off,,,,,192,0,1,,,0,,,70,64
7512,note_off,,,,,192,0,2,,,1,,,67,64
7512,note_off,,,,,0,0,3,,,2,,,70,64
7536,note_off,,,,,96,0,4,,,3,,,55,64
7560,note_on,,,,,48,0,3,,,2,,,70,80
7560,note_on,,,,,0,0,3,,,2,,,77,80
7560,note_on,,,,,0,0,3,,,2,,,81,80
7560,note_on,,,,,24,0,4,,,3,,,43,80
7656,note_off,,,,,0,0,3,,,2,,,77,64
7656,note_off,,,,,96,0,3,,,2,,,81,64
7656,note_off,,,,,0,0,3,,,2,,,70,64
7656,note_off,,,,,96,0,4,,,3,,,43,64
7680,note_on,,,,,24,0,3,,,2,,,70,80
7680,note_on,,,,,0,0,3,,,2,,,79,80
7680,note_on,,,,,0,0,3,,,2,,,76,80
7680,note_on,,,,,24,0,4,,,3,,,43,80
7776,note_off,,,,,96,0,4,,,3,,,43,64
7776,note_off,,,,,96,0,3,,,2,,,76,64
7776,note_off,,,,,0,0,3,,,2,,,79,64
7776,note_off,,,,,0,0,3,,,2,,,70,64
7800,note_on,,,,,24,0,3,,,2,,,70,80
7800,note_on,,,,,0,0,3,,,2,,,79,80
7800,note_on,,,,,24,0,4,,,3,,,55,80
7800,note_on,,,,,0,0,3,,,2,,,76,80
7896,note_off,,,,,96,0,4,,,3,,,55,64
7920,note_on,,,,,24,0,4,,,3,,,55,80
7992,note_off,,,,,192,0,3,,,2,,,76,64
7992,note_off,,,,,0,0,3,,,2,,,70,64
7992,note_off,,,,,0,0,3,,,2,,,79,64
8016,note_off,,,,,96,0,4,,,3,,,55,64
8040,note_on,,,,,0,0,3,,,2,,,77,80
8040,note_on,,,,,0,0,3,,,2,,,74,80
8040,note_on,,,,,48,0,3,,,2,,,70,80
8040,note_on,,,,,24,0,4,,,3,,,43,80
8136,note_off,,,,,96,0,4,,,3,,,43,64
8136,note_off,,,,,96,0,3,,,2,,,77,64
8136,note_off,,,,,0,0,3,,,2,,,74,64
8136,note_off,,,,,0,0,3,,,2,,,70,64
8160,note_on,,,,,24,0,3,,,2,,,71,80
8160,note_on,,,,,24,0,4,,,3,,,44,80
8160,note_on,,,,,0,0,3,,,2,,,76,80
8160,note_on,,,,,0,0,3,,,2,,,68,80
8256,note_off,,,,,0,0,3,,,2,,,71,64
8256,note_off,,,,,0,0,3,,,2,,,68,64
8256,note_off,,,,,96,0,3,,,2,,,76,64
8256,note_off,,,,,96,0,4,,,3,,,44,64
8280,note_on,,,,,24,0,3,,,2,,,68,80
8280,note_on,,,,,0,0,3,,,2,,,71,80
8280,note_on,,,,,24,0,4,,,3,,,56,80
8280,note_on,,,,,0,0,3,,,2,,,76,80
8376,note_off,,,,,96,0,4,,,3,,,56,64
8400,note_on,,,,,24,0,4,,,3,,,56,80
8472,note_off,,,,,192,0,3,,,2,,,71,64
8472,note_off,,,,,0,0,3,,,2,,,76,64
8472,note_off,,,,,0,0,3,,,2,,,68,64
8496,note_off,,,,,96,0,4,,,3,,,56,64
8520,note_on,,,,,24,0,4,,,3,,,44,80
8520,note_on,,,,,0,0,3,,,2,,,71,80
8520,note_on,,,,,0,0,3,,,2,,,74,80
8520,note_on,,,,,48,0,3,,,2,,,68,80
8616,note_off,,,,,96,0,3,,,2,,,74,64
8616,note_off,,,,,0,0,3,,,2,,,71,64
8616,note_off,,,,,0,0,3,,,2,,,68,64
8616,note_off,,,,,96,0,4,,,3,,,44,64
8640,note_on,,,,,24,0,3,,,2,,,64,80
8640,note_on,,,,,0,0,3,,,2,,,73,80
8640,note_on,,,,,0,0,3,,,2,,,69,80
8640,note_on,,,,,24,0,4,,,3,,,45,80
8640,note_on,,,,,1128,0,1,,,0,,,81,80
8640,note_on,,,,,1128,0,2,,,1,,,76,80
8688,note_off,,,,,48,0,1,,,0,,,81,64
8700,note_on,,,,,12,0,1,,,0,,,79,80
8736,note_off,,,,,96,0,4,,,3,,,45,64
8736,note_off,,,,,96,0,2,,,1,,,76,64
8736,note_off,,,,,96,0,3,,,2,,,69,64
8736,note_off,,,,,0,0,3,,,2,,,64,64
8736,note_off,,,,,0,0,3,,,2,,,73,64
8748,note_off,,,,,48,0,1,,,0,,,79,64
8760,note_on,,,,,24,0,4,,,3,,,57,80
8760,note_on,,,,,24,0,3,,,2,,,73,80
8760,note_on,,,,,0,0,3,,,2,,,69,80
8760,note_on,,,,,12,0,1,,,0,,,81,80
8760,note_on,,,,,24,0,2,,,1,,,76,80
8760,note_on,,,,,0,0,3,,,2,,,64,80
8808,note_off,,,,,48,0,1,,,0,,,81,64
8820,note_on,,,,,12,0,1,,,0,,,82,80
8856,note_off,,,,,96,0,4,,,3,,,57,64
8856,note_off,,,,,96,0,2,,,1,,,76,64
8868,note_off,,,,,48,0,1,,,0,,,82,64
8880,note_on,,,,,24,0,4,,,3,,,57,80
8880,note_on,,,,,12,0,1,,,0,,,81,80
8880,note_on,,,,,24,0,2,,,1,,,73,80
8928,note_off,,,,,48,0,1,,,0,,,81,64
8940,note_on,,,,,12,0,1,,,0,,,79,80
8952,note_off,,,,,192,0,3,,,2,,,64,64
8952,note_off,,,,,0,0,3,,,2,,,69,64
8952,note_off,,,,,0,0,3,,,2,,,73,64
8976,note_off,,,,,96,0,2,,,1,,,73,64
8976,note_off,,,,,96,0,4,,,3,,,57,64
8988,note_off,,,,,48,0,1,,,0,,,79,64
9000,note_on,,,,,12,0,1,,,0,,,77,80
9000,note_on,,,,,24,0,2,,,1,,,73,80
9000,note_on,,,,,24,0,4,,,3,,,45,80
9048,note_off,,,,,48,0,1,,,0,,,77,64
9060,note_on,,,,,12,0,1,,,0,,,76,80
9096,note_off,,,,,96,0,4,,,3,,,45,64
9096,note_off,,,,,96,0,2,,,1,,,73,64
9108,note_off,,,,,48,0,1,,,0,,,76,64
9120,note_on,,,,,12,0,1,,,0,,,77,80
9120,note_on,,,,,24,0,2,,,1,,,74,80
9120,note_on,,,,,24,0,4,,,3,,,50,80
9120,note_on,,,,,168,0,3,,,2,,,74,80
9120,note_on,,,,,0,0,3,,,2,,,69,80
9120,note_on,,,,,0,0,3,,,2,,,65,80
9168,note_off,,,,,48,0,3,,,2,,,65,64
9168,note_off,,,,,0,0,3,,,2,,,69,64
9168,note_off,,,,,0,0,3,,,2,,,74,64
9180,note_on,,,,,0,0,3,,,2,,,65,80
9180,note_on,,,,,0,0,3,,,2,,,72,80
9180,note_on,,,,,12,0,3,,,2,,,69,80
9216,note_off,,,,,96,0,2,,,1,,,74,64
9216,note_off,,,,,96,0,1,,,0,,,77,64
9216,note_off,,,,,96,0,4,,,3,,,50,64
9228,note_off,,,,,0,0,3,,,2,,,65,64
9228,note_off,,,,,0,0,3,,,2,,,69,64
9228,note_off,,,,,48,0,3,,,2,,,72,64
9240,note_on,,,,,24,0,4,,,3,,,62,80
9240,note_on,,,,,12,0,3,,,2,,,74,80
9240,note_on,,,,,24,0,2,,,1,,,74,80
9240,note_on,,,,,0,0,3,,,2,,,65,80
9240,note_on,,,,,0,0,3,,,2,,,69,80
9240,note_on,,,,,24,0,1,,,0,,,77,80
9288,note_off,,,,,48,0,3,,,2,,,69,64
9288,note_off,,,,,0,0,3,,,2,,,74,64
9288,note_off,,,,,0,0,3,,,2,,,65,64
9300,note_on,,,,,12,0,3,,,2,,,69,80
9300,note_on,,,,,0,0,3,,,2,,,76,80
9300,note_on,,,,,0,0,3,,,2,,,65,80
9336,note_off,,,,,96,0,4,,,3,,,62,64
9348,note_off,,,,,0,0,3,,,2,,,69,64
9348,note_off,,,,,48,0,3,,,2,,,76,64
9348,note_off,,,,,0,0,3,,,2,,,65,64
9360,note_on,,,,,24,0,4,,,3,,,62,80
9360,note_on,,,,,12,0,3,,,2,,,74,80
9360,note_on,,,,,0,0,3,,,2,,,65,80
9360,note_on,,,,,0,0,3,,,2,,,69,80
9408,note_off,,,,,0,0,3,,,2,,,74,64
9408,note_off,,,,,0,0,3,,,2,,,65,64
9408,note_off,,,,,48,0,3,,,2,,,69,64
9420,note_on,,,,,0,0,3,,,2,,,72,80
9420,note_on,,,,,0,0,3,,,2,,,69,80
9420,note_on,,,,,12,0,3,,,2,,,65,80
9432,note_off,,,,,192,0,2,,,1,,,74,64
9432,note_off,,,,,192,0,1,,,0,,,77,64
9456,note_off,,,,,96,0,4,,,3,,,62,64
9468,note_off,,,,,0,0,3,,,2,,,65,64
9468,note_off,,,,,48,0,3,,,2,,,69,64
9468,note_off,,,,,0,0,3,,,2,,,72,64
9480,note_on,,,,,12,0,3,,,2,,,65,80
9480,note_on,,,,,48,0,1,,,0,,,77,80
9480,note_on,,,,,48,0,2,,,1,,,74,80
9480,note_on,,,,,24,0,4,,,3,,,50,80
9480,note_on,,,,,0,0,3,,,2,,,70,80
9528,note_off,,,,,0,0,3,,,2,,,65,64
9528,note_off,,,,,48,0,3,,,2,,,70,64
9540,note_on,,,,,12,0,3,,,2,,,65,80
9540,note_on,,,,,0,0,3,,,2,,,69,80
9576,note_off,,,,,96,0,1,,,0,,,77,64
9576,note_off,,,,,96,0,4,,,3,,,50,64
9576,note_off,,,,,96,0,2,,,1,,,74,64
9588,note_off,,,,,48,0,3,,,2,,,69,64
9588,note_off,,,,,0,0,3,,,2,,,65,64
9600,note_on,,,,,24,0,2,,,1,,,74,80
9600,note_on,,,,,24,0,1,,,0,,,79,80
9600,note_on,,,,,24,0,4,,,3,,,43,80
9600,note_on,,,,,0,0,3,,,2,,,67,80
9600,note_on,,,,,12,0,3,,,2,,,62,80
9600,note_on,,,,,0,0,3,,,2,,,70,80
9648,note_off,,,,,48,0,1,,,0,,,79,64
9660,note_on,,,,,12,0,1,,,0,,,77,80
9696,note_off,,,,,0,0,3,,,2,,,62,64
9696,note_off,,,,,0,0,3,,,2,,,70,64
9696,note_off,,,,,96,0,3,,,2,,,67,64
9696,note_off,,,,,96,0,4,,,3,,,43,64
9696,note_off,,,,,96,0,2,,,1,,,74,64
9708,note_off,,,,,48,0,1,,,0,,,77,64
9720,note_on,,,,,12,0,1,,,0,,,79,80
9720,note_on,,,,,24,0,4,,,3,,,55,80
9720,note_on,,,,,0,0,3,,,2,,,62,80
9720,note_on,,,,,0,0,3,,,2,,,70,80
9720,note_on,,,,,24,0,3,,,2,,,67,80
9720,note_on,,,,,24,0,2,,,1,,,74,80
9768,note_off,,,,,48,0,1,,,0,,,79,64
9780,note_on,,,,,12,0,1,,,0,,,81,80
9816,note_off,,,,,96,0,4,,,3,,,55,64
9816,note_off,,,,,96,0,2,,,1,,,74,64
9828,note_off,,,,,48,0,1,,,0,,,81,64
9840,note_on,,,,,12,0,1,,,0,,,79,80
9840,note_on,,,,,24,0,4,,,3,,,55,80
9840,note_on,,,,,24,0,2,,,1,,,74,80
9888,note_off,,,,,48,0,1,,,0,,,79,64
9900,note_on,,,,,12,0,1,,,0,,,77,80
9912,note_off,,,,,192,0,3,,,2,,,62,64
9912,note_off,,,,,0,0,3,,,2,,,70,64
9912,note_off,,,,,0,0,3,,,2,,,67,64
9936,note_off,,,,,96,0,4,,,3,,,55,64
9936,note_off,,,,,96,0,2,,,1,,,74,64
9948,note_off,,,,,48,0,1,,,0,,,77,64
9960,note_on,,,,,24,0,4,,,3,,,43,80
9960,note_on,,,,,12,0,1,,,0,,,76,80
9960,note_on,,,,,48,0,3,,,2,,,71,80
9960,note_on,,,,,0,0,3,,,2,,,67,80
9960,note_on,,,,,24,0,2,,,1,,,74,80
10008,note_off,,,,,48,0,1,,,0,,,76,64
10020,note_on,,,,,12,0,1,,,0,,,74,80
10056,note_off,,,,,96,0,4,,,3,,,43,64
10056,note_off,,,,,96,0,2,,,1,,,74,64
10056,note_off,,,,,96,0,3,,,2,,,67,64
10056,note_off,,,,,0,0,3,,,2,,,71,64
10068,note_off,,,,,48,0,1,,,0,,,74,64
10080,note_on,,,,,24,0,4,,,3,,,48,80
10080,note_on,,,,,24,0,3,,,2,,,72,80
10080,note_on,,,,,0,0,3,,,2,,,67,80
10080,note_on,,,,,0,0,3,,,2,,,64,80
10080,note_on,,,,,12,0,1,,,0,,,76,80
10080,note_on,,,,,24,0,2,,,1,,,72,80
10128,note_off,,,,,0,0,3,,,2,,,72,64
10128,note_off,,,,,0,0,3,,,2,,,67,64
10128,note_off,,,,,48,0,3,,,2,,,64,64
10140,note_on,,,,,12,0,3,,,2,,,67,80
10140,note_on,,,,,0,0,3,,,2,,,70,80
10140,note_on,,,,,0,0,3,,,2,,,64,80
10176,note_off,,,,,96,0,4,,,3,,,48,64
10176,note_off,,,,,96,0,2,,,1,,,72,64
10176,note_off,,,,,96,0,1,,,0,,,76,64
10188,note_off,,,,,0,0,3,,,2,,,64,64
10188,note_off,,,,,0,0,3,,,2,,,67,64
10188,note_off,,,,,48,0,3,,,2,,,70,64
10200,note_on,,,,,24,0,2,,,1,,,72,80
10200,note_on,,,,,24,0,4,,,3,,,60,80
10200,note_on,,,,,24,0,1,,,0,,,76,80
10200,note_on,,,,,12,0,3,,,2,,,72,80
10200,note_on,,,,,0,0,3,,,2,,,64,80
10200,note_on,,,,,0,0,3,,,2,,,67,80
10248,note_off,,,,,48,0,3,,,2,,,67,64
10248,note_off,,,,,0,0,3,,,2,,,64,64
10248,note_off,,,,,0,0,3,,,2,,,72,64
10260,note_on,,,,,12,0,3,,,2,,,67,80
10260,note_on,,,,,0,0,3,,,2,,,74,80
10260,note_on,,,,,0,0,3,,,2,,,64,80
10296,note_off,,,,,96,0,4,,,3,,,60,64
10308,note_off,,,,,0,0,3,,,2,,,67,64
10308,note_off,,,,,0,0,3,,,2,,,64,64
10308,note_off,,,,,48,0,3,,,2,,,74,64
10320,note_on,,,,,24,0,4,,,3,,,60,80
10320,note_on,,,,,0,0,3,,,2,,,67,80
10320,note_on,,,,,12,0,3,,,2,,,72,80
10320,note_on,,,,,0,0,3,,,2,,,64,80
10368,note_off,,,,,48,0,3,,,2,,,67,64
10368,note_off,,,,,0,0,3,,,2,,,64,64
10368,note_off,,,,,0,0,3,,,2,,,72,64
10380,note_on,,,,,0,0,3,,,2,,,67,80
10380,note_on,,,,,12,0,3,,,2,,,64,80
10380,note_on,,,,,0,0,3,,,2,,,70,80
10392,note_off,,,,,192,0,2,,,1,,,72,64
10392,note_off,,,,,192,0,1,,,0,,,76,64
10416,note_off,,,,,96,0,4,,,3,,,60,64
10428,note_off,,,,,0,0,3,,,2,,,64,64
10428,note_off,,,,,0,0,3,,,2,,,70,64
10428,note_off,,,,,48,0,3,,,2,,,67,64
10440,note_on,,,,,24,0,4,,,3,,,48,80
10440,note_on,,,,,48,0,1,,,0,,,76,80
10440,note_on,,,,,12,0,3,,,2,,,64,80
10440,note_on,,,,,0,0,3,,,2,,,69,80
10440,note_on,,,,,48,0,2,,,1,,,72,80
10488,note_off,,,,,48,0,3,,,2,,,69,64
10488,note_off,,,,,0,0,3,,,2,,,64,64
10500,note_on,,,,,12,0,3,,,2,,,64,80
10500,note_on,,,,,0,0,3,,,2,,,67,80
10536,note_off,,,,,96,0,1,,,0,,,76,64
10536,note_off,,,,,96,0,4,,,3,,,48,64
10536,note_off,,,,,96,0,2,,,1,,,72,64
10548,note_off,,,,,0,0,3,,,2,,,64,64
10548,note_off,,,,,48,0,3,,,2,,,67,64
10560,note_on,,,,,0,0,3,,,2,,,69,80
10560,note_on,,,,,24,0,4,,,3,,,41,80
10560,note_on,,,,,0,0,3,,,2,,,65,80
10560,note_on,,,,,12,0,3,,,2,,,60,80
10560,note_on,,,,,24,0,2,,,1,,,72,80
10560,note_on,,,,,24,0,1,,,0,,,77,80
10608,note_off,,,,,48,0,1,,,0,,,77,64
10620,note_on,,,,,12,0,1,,,0,,,76,80
10656,note_off,,,,,96,0,2,,,1,,,72,64
10656,note_off,,,,,96,0,3,,,2,,,69,64
10656,note_off,,,,,0,0,3,,,2,,,65,64
10656,note_off,,,,,0,0,3,,,2,,,60,64
10656,note_off,,,,,96,0,4,,,3,,,41,64
10668,note_off,,,,,48,0,1,,,0,,,76,64
10680,note_on,,,,,12,0,1,,,0,,,77,80
10680,note_on,,,,,24,0,3,,,2,,,69,80
10680,note_on,,,,,0,0,3,,,2,,,65,80
10680,note_on,,,,,24,0,4,,,3,,,53,80
10680,note_on,,,,,0,0,3,,,2,,,60,80
10680,note_on,,,,,24,0,2,,,1,,,72,80
10728,note_off,,,,,48,0,1,,,0,,,77,64
10740,note_on,,,,,12,0,1,,,0,,,79,80
10776,note_off,,,,,96,0,4,,,3,,,53,64
10776,note_off,,,,,96,0,2,,,1,,,72,64
10788,note_off,,,,,48,0,1,,,0,,,79,64
10800,note_on,,,,,24,0,4,,,3,,,53,80
10800,note_on,,,,,24,0,2,,,1,,,72,80
10800,note_on,,,,,12,0,1,,,0,,,77,80
10848,note_off,,,,,48,0,1,,,0,,,77,64
10860,note_on,,,,,12,0,1,,,0,,,76,80
10872,note_off,,,,,192,0,3,,,2,,,60,64
10872,note_off,,,,,0,0,3,,,2,,,65,64
10872,note_off,,,,,0,0,3,,,2,,,69,64
10896,note_off,,,,,96,0,2,,,1,,,72,64
10896,note_off,,,,,96,0,4,,,3,,,53,64
10908,note_off,,,,,48,0,1,,,0,,,76,64
10920,note_on,,,,,48,0,3,,,2,,,60,80
10920,note_on,,,,,0,0,3,,,2,,,65,80
10920,note_on,,,,,12,0,1,,,0,,,74,80
10920,note_on,,,,,0,0,3,,,2,,,69,80
10920,note_on,,,,,24,0,2,,,1,,,72,80
10920,note_on,,,,,24,0,4,,,3,,,41,80
10968,note_off,,,,,48,0,1,,,0,,,74,64
10980,note_on,,,,,12,0,1,,,0,,,72,80
11016,note_off,,,,,96,0,3,,,2,,,65,64
11016,note_off,,,,,0,0,3,,,2,,,69,64
11016,note_off,,,,,0,0,3,,,2,,,60,64
11016,note_off,,,,,96,0,2,,,1,,,72,64
11016,note_off,,,,,96,0,4,,,3,,,41,64
11028,note_off,,,,,48,0,1,,,0,,,72,64
11040,note_on,,,,,24,0,3,,,2,,,69,80
11040,note_on,,,,,0,0,3,,,2,,,74,80
11040,note_on,,,,,24,0,4,,,3,,,38,80
11040,note_on,,,,,12,0,1,,,0,,,74,80
11040,note_on,,,,,24,0,2,,,1,,,77,80
11088,note_off,,,,,48,0,1,,,0,,,74,64
11088,note_off,,,,,48,0,2,,,1,,,77,64
11088,note_off,,,,,48,0,3,,,2,,,74,64
11088,note_off,,,,,0,0,3,,,2,,,69,64
11100,note_on,,,,,12,0,1,,,0,,,76,80
11100,note_on,,,,,12,0,3,,,2,,,69,80
11100,note_on,,,,,0,0,3,,,2,,,76,80
11100,note_on,,,,,12,0,2,,,1,,,79,80
11136,note_off,,,,,96,0,4,,,3,,,38,64
11148,note_off,,,,,48,0,2,,,1,,,79,64
11148,note_off,,,,,48,0,1,,,0,,,76,64
11148,note_off,,,,,48,0,3,,,2,,,76,64
11148,note_off,,,,,0,0,3,,,2,,,69,64
11160,note_on,,,,,12,0,1,,,0,,,77,80
11160,note_on,,,,,12,0,3,,,2,,,69,80
11160,note_on,,,,,24,0,4,,,3,,,50,80
11160,note_on,,,,,12,0,2,,,1,,,81,80
11160,note_on,,,,,0,0,3,,,2,,,77,80
11208,note_off,,,,,48,0,3,,,2,,,77,64
11208,note_off,,,,,0,0,3,,,2,,,69,64
11208,note_off,,,,,48,0,1,,,0,,,77,64
11208,note_off,,,,,48,0,2,,,1,,,81,64
11220,note_on,,,,,12,0,3,,,2,,,69,80
11220,note_on,,,,,0,0,3,,,2,,,76,80
11220,note_on,,,,,12,0,1,,,0,,,76,80
11220,note_on,,,,,12,0,2,,,1,,,79,80
11256,note_off,,,,,96,0,4,,,3,,,50,64
11268,note_off,,,,,48,0,2,,,1,,,79,64
11268,note_off,,,,,48,0,1,,,0,,,76,64
11268,note_off,,,,,0,0,3,,,2,,,69,64
11268,note_off,,,,,48,0,3,,,2,,,76,64
11280,note_on,,,,,12,0,1,,,0,,,74,80
11280,note_on,,,,,12,0,2,,,1,,,77,80
11280,note_on,,,,,0,0,3,,,2,,,69,80
11280,note_on,,,,,12,0,3,,,2,,,74,80
11280,note_on,,,,,24,0,4,,,3,,,50,80
11328,note_off,,,,,48,0,2,,,1,,,77,64
11328,note_off,,,,,0,0,3,,,2,,,74,64
11328,note_off,,,,,48,0,3,,,2,,,69,64
11328,note_off,,,,,48,0,1,,,0,,,74,64
11340,note_on,,,,,12,0,2,,,1,,,76,80
11340,note_on,,,,,12,0,1,,,0,,,72,80
11340,note_on,,,,,0,0,3,,,2,,,69,80
11340,note_on,,,,,12,0,3,,,2,,,72,80
11376,note_off,,,,,96,0,4,,,3,,,50,64
11388,note_off,,,,,48,0,1,,,0,,,72,64
11388,note_off,,,,,48,0,2,,,1,,,76,64
11388,note_off,,,,,0,0,3,,,2,,,72,64
11388,note_off,,,,,48,0,3,,,2,,,69,64
11400,note_on,,,,,12,0,2,,,1,,,74,80
11400,note_on,,,,,12,0,3,,,2,,,65,80
11400,note_on,,,,,12,0,1,,,0,,,71,80
11400,note_on,,,,,0,0,3,,,2,,,71,80
11400,note_on,,,,,24,0,4,,,3,,,38,80
11448,note_off,,,,,48,0,2,,,1,,,74,64
11448,note_off,,,,,48,0,1,,,0,,,71,64
11448,note_off,,,,,48,0,3,,,2,,,71,64
11448,note_off,,,,,0,0,3,,,2,,,65,64
11460,note_on,,,,,12,0,1,,,0,,,69,80
11460,note_on,,,,,12,0,2,,,1,,,72,80
11460,note_on,,,,,12,0,3,,,2,,,65,80
11460,note_on,,,,,0,0,3,,,2,,,69,80
11496,note_off,,,,,96,0,4,,,3,,,38,64
11508,note_off,,,,,0,0,3,,,2,,,65,64
11508,note_off,,,,,48,0,2,,,1,,,72,64
11508,note_off,,,,,48,0,1,,,0,,,69,64
11508,note_off,,,,,48,0,3,,,2,,,69,64
11520,note_on,,,,,12,0,2,,,1,,,71,80
11520,note_on,,,,,0,0,3,,,2,,,68,80
11520,note_on,,,,,12,0,1,,,0,,,68,80
11520,note_on,,,,,24,0,4,,,3,,,40,80
11520,note_on,,,,,12,0,3,,,2,,,64,80
11568,note_off,,,,,48,0,1,,,0,,,68,64
11580,note_on,,,,,12,0,1,,,0,,,76,80
11628,note_off,,,,,48,0,1,,,0,,,76,64
11640,note_on,,,,,12,0,1,,,0,,,77,80
11688,note_off,,,,,48,0,1,,,0,,,77,64
11700,note_on,,,,,12,0,1,,,0,,,76,80
11712,note_off,,,,,192,0,4,,,3,,,40,64
11712,note_off,,,,,192,0,3,,,2,,,68,64
11712,note_off,,,,,0,0,3,,,2,,,64,64
11712,note_off,,,,,192,0,2,,,1,,,71,64
11748,note_off,,,,,48,0,1,,,0,,,76,64
11760,note_on,,,,,12,0,1,,,0,,,77,80
11808,note_off,,,,,48,0,1,,,0,,,77,64
11820,note_on,,,,,12,0,1,,,0,,,76,80
11868,note_off,,,,,48,0,1,,,0,,,76,64
11880,note_on,,,,,12,0,1,,,0,,,77,80
11928,note_off,,,,,48,0,1,,,0,,,77,64
11940,note_on,,,,,12,0,1,,,0,,,76,80
11988,note_off,,,,,48,0,1,,,0,,,76,64
12000,note_on,,,,,0,0,3,,,2,,,64,80
12000,note_on,,,,,0,0,3,,,2,,,60,80
12000,note_on,,,,,288,0,3,,,2,,,69,80
12000,note_on,,,,,12,0,1,,,0,,,81,80
12000,note_on,,,,,288,0,4,,,3,,,45,80
12048,note_off,,,,,48,0,1,,,0,,,81,64
12060,note_on,,,,,12,0,1,,,0,,,76,80
12108,note_off,,,,,48,0,1,,,0,,,76,64
12120,note_on,,,,,12,0,1,,,0,,,77,80
12168,note_off,,,,,48,0,1,,,0,,,77,64
12180,note_on,,,,,12,0,1,,,0,,,76,80
12192,note_off,,,,,0,0,3,,,2,,,69,64
12192,note_off,,,,,0,0,3,,,2,,,60,64
12192,note_off,,,,,192,0,3,,,2,,,64,64
12192,note_off,,,,,192,0,4,,,3,,,45,64
12228,note_off,,,,,48,0,1,,,0,,,76,64
12240,note_on,,,,,12,0,1,,,0,,,77,80
12288,note_off,,,,,48,0,1,,,0,,,77,64
12300,note_on,,,,,12,0,1,,,0,,,76,80
12348,note_off,,,,,48,0,1,,,0,,,76,64
12360,note_on,,,,,12,0,1,,,0,,,77,80
12408,note_off,,,,,48,0,1,,,0,,,77,64
12420,note_on,,,,,12,0,1,,,0,,,76,80
12468,note_off,,,,,48,0,1,,,0,,,76,64
12480,note_on,,,,,0,0,3,,,2,,,76,80
12480,note_on,,,,,288,0,3,,,2,,,69,80
12480,note_on,,,,,768,0,2,,,1,,,76,80
12480,note_on,,,,,288,0,4,,,3,,,45,80
12480,note_on,,,,,12,0,1,,,0,,,81,80
12528,note_off,,,,,0,0,3,,,2,,,69,64
12528,note_off,,,,,48,0,3,,,2,,,76,64
12528,note_off,,,,,48,0,1,,,0,,,81,64
12528,note_off,,,,,48,0,2,,,1,,,76,64
12540,note_on,,,,,12,0,1,,,0,,,76,80
12540,note_on,,,,,12,0,3,,,2,,,72,80
12540,note_on,,,,,0,0,3,,,2,,,69,80
12540,note_on,,,,,12,0,2,,,1,,,72,80
12576,note_off,,,,,96,0,4,,,3,,,45,64
12588,note_off,,,,,48,0,1,,,0,,,76,64
12588,note_off,,,,,48,0,2,,,1,,,72,64
12588,note_off,,,,,48,0,3,,,2,,,69,64
12588,note_off,,,,,0,0,3,,,2,,,72,64
12600,note_on,,,,,12,0,2,,,1,,,71,80
12600,note_on,,,,,12,0,3,,,2,,,65,80
12600,note_on,,,,,0,0,3,,,2,,,71,80
12600,note_on,,,,,24,0,4,,,3,,,50,80
12600,note_on,,,,,12,0,1,,,0,,,74,80
12648,note_off,,,,,48,0,2,,,1,,,71,64
12648,note_off,,,,,48,0,3,,,2,,,71,64
12648,note_off,,,,,0,0,3,,,2,,,65,64
12648,note_off,,,,,48,0,1,,,0,,,74,64
12660,note_on,,,,,12,0,3,,,2,,,69,80
12660,note_on,,,,,12,0,2,,,1,,,69,80
12660,note_on,,,,,0,0,3,,,2,,,65,80
12660,note_on,,,,,12,0,1,,,0,,,72,80
12696,note_off,,,,,96,0,4,,,3,,,50,64
12708,note_off,,,,,0,0,3,,,2,,,69,64
12708,note_off,,,,,48,0,3,,,2,,,65,64
12708,note_off,,,,,48,0,2,,,1,,,69,64
12708,note_off,,,,,48,0,1,,,0,,,72,64
12720,note_on,,,,,12,0,2,,,1,,,68,80
12720,note_on,,,,,24,0,4,,,3,,,52,80
12720,note_on,,,,,12,0,1,,,0,,,71,80
12720,note_on,,,,,12,0,3,,,2,,,64,80
12720,note_on,,,,,0,0,3,,,2,,,68,80
12816,note_off,,,,,96,0,4,,,3,,,52,64
12840,note_on,,,,,24,0,4,,,3,,,40,80
12864,note_off,,,,,0,0,3,,,2,,,64,64
12864,note_off,,,,,144,0,2,,,1,,,68,64
12864,note_off,,,,,144,0,1,,,0,,,71,64
12864,note_off,,,,,144,0,3,,,2,,,68,64
12900,note_on,,,,,36,0,1,,,0,,,69,80
12900,note_on,,,,,36,0,3,,,2,,,69,80
12900,note_on,,,,,0,0,3,,,2,,,64,80
12900,note_on,,,,,36,0,2,,,1,,,69,80
12936,note_off,,,,,96,0,4,,,3,,,40,64
12948,note_off,,,,,48,0,2,,,1,,,69,64
12948,note_off,,,,,48,0,1,,,0,,,69,64
12948,note_off,,,,,48,0,3,,,2,,,64,64
12948,note_off,,,,,0,0,3,,,2,,,69,64
12960,note_on,,,,,0,0,3,,,2,,,64,80
12960,note_on,,,,,24,0,4,,,3,,,45,80
12960,note_on,,,,,12,0,2,,,1,,,69,80
12960,note_on,,,,,0,0,3,,,2,,,60,80
12960,note_on,,,,,12,0,3,,,2,,,69,80
12960,note_on,,,,,12,0,1,,,0,,,69,80
13056,note_off,,,,,96,0,4,,,3,,,45,64
13080,note_on,,,,,24,0,4,,,3,,,47,80
13152,note_off,,,,,192,0,2,,,1,,,69,64
13152,note_off,,,,,192,0,3,,,2,,,60,64
13152,note_off,,,,,192,0,1,,,0,,,69,64
13152,note_off,,,,,0,0,3,,,2,,,69,64
13152,note_off,,,,,0,0,3,,,2,,,64,64
13176,note_off,,,,,96,0,4,,,3,,,47,64
13200,note_on,,,,,24,0,4,,,3,,,48,80
13296,note_off,,,,,96,0,4,,,3,,,48,64
13320,note_on,,,,,168,0,1,,,0,,,76,80
13320,note_on,,,,,24,0,4,,,3,,,47,80
13416,note_off,,,,,96,0,4,,,3,,,47,64
13416,note_off,,,,,96,0,1,,,0,,,76,64
13440,note_on,,,,,24,0,4,,,3,,,45,80
13440,note_on,,,,,24,0,1,,,0,,,81,80
13440,note_on,,,,,288,0,2,,,1,,,72,80
13536,note_off,,,,,96,0,2,,,1,,,72,64
13536,note_off,,,,,96,0,1,,,0,,,81,64
13536,note_off,,,,,96,0,4,,,3,,,45,64
13560,note_on,,,,,24,0,1,,,0,,,80,80
13560,note_on,,,,,24,0,2,,,1,,,71,80
13560,note_on,,,,,24,0,4,,,3,,,47,80
13608,note_off,,,,,48,0,1,,,0,,,80,64
13620,note_on,,,,,12,0,1,,,0,,,81,80
13656,note_off,,,,,96,0,2,,,1,,,71,64
13656,note_off,,,,,96,0,4,,,3,,,47,64
13668,note_off,,,,,48,0,1,,,0,,,81,64
13680,note_on,,,,,24,0,2,,,1,,,69,80
13680,note_on,,,,,12,0,1,,,0,,,76,80
13680,note_on,,,,,24,0,4,,,3,,,48,80
13776,note_off,,,,,96,0,4,,,3,,,48,64
13776,note_off,,,,,96,0,2,,,1,,,69,64
13776,note_off,,,,,96,0,1,,,0,,,76,64
13800,note_on,,,,,24,0,2,,,1,,,81,80
13800,note_on,,,,,24,0,4,,,3,,,45,80
13800,note_on,,,,,24,0,1,,,0,,,84,80
13896,note_off,,,,,96,0,1,,,0,,,84,64
13896,note_off,,,,,96,0,2,,,1,,,81,64
13896,note_off,,,,,96,0,4,,,3,,,45,64
13920,note_on,,,,,24,0,2,,,1,,,81,80
13920,note_on,,,,,24,0,1,,,0,,,84,80
13920,note_on,,,,,24,0,4,,,3,,,52,80
14016,note_off,,,,,96,0,1,,,0,,,84,64
14016,note_off,,,,,96,0,4,,,3,,,52,64
14040,note_on,,,,,24,0,1,,,0,,,83,80
14040,note_on,,,,,24,0,4,,,3,,,50,80
14112,note_off,,,,,192,0,2,,,1,,,81,64
14136,note_off,,,,,96,0,4,,,3,,,50,64
14136,note_off,,,,,96,0,1,,,0,,,83,64
14160,note_on,,,,,24,0,4,,,3,,,52,80
14160,note_on,,,,,24,0,1,,,0,,,76,80
14160,note_on,,,,,48,0,2,,,1,,,80,80
14256,note_off,,,,,96,0,4,,,3,,,52,64
14256,note_off,,,,,96,0,1,,,0,,,76,64
14256,note_off,,,,,96,0,2,,,1,,,80,64
14280,note_on,,,,,24,0,2,,,1,,,76,80
14280,note_on,,,,,24,0,4,,,3,,,40,80
14376,note_off,,,,,96,0,2,,,1,,,76,64
14376,note_off,,,,,96,0,4,,,3,,,40,64
14400,note_on,,,,,24,0,2,,,1,,,72,80
14400,note_on,,,,,144,0,1,,,0,,,81,80
14400,note_on,,,,,24,0,4,,,3,,,45,80
14496,note_off,,,,,96,0,4,,,3,,,45,64
14496,note_off,,,,,96,0,2,,,1,,,72,64
14496,note_off,,,,,96,0,1,,,0,,,81,64
14520,note_on,,,,,24,0,2,,,1,,,71,80
14520,note_on,,,,,24,0,1,,,0,,,80,80
14520,note_on,,,,,24,0,4,,,3,,,47,80
14568,note_off,,,,,48,0,1,,,0,,,80,64
14580,note_on,,,,,12,0,1,,,0,,,81,80
14616,note_off,,,,,96,0,2,,,1,,,71,64
14616,note_off,,,,,96,0,4,,,3,,,47,64
14628,note_off,,,,,48,0,1,,,0,,,81,64
14640,note_on,,,,,12,0,1,,,0,,,76,80
14640,note_on,,,,,24,0,4,,,3,,,48,80
14640,note_on,,,,,24,0,2,,,1,,,69,80
14736,note_off,,,,,96,0,4,,,3,,,48,64
14736,note_off,,,,,96,0,2,,,1,,,69,64
14736,note_off,,,,,96,0,1,,,0,,,76,64
14760,note_on,,,,,24,0,4,,,3,,,50,80
14760,note_on,,,,,24,0,2,,,1,,,81,80
14760,note_on,,,,,24,0,1,,,0,,,84,80
14856,note_off,,,,,96,0,2,,,1,,,81,64
14856,note_off,,,,,96,0,4,,,3,,,50,64
14856,note_off,,,,,96,0,1,,,0,,,84,64
14880,note_on,,,,,24,0,2,,,1,,,81,80
14880,note_on,,,,,24,0,4,,,3,,,52,80
14880,note_on,,,,,24,0,1,,,0,,,84,80
14976,note_off,,,,,96,0,4,,,3,,,52,64
14976,note_off,,,,,96,0,1,,,0,,,84,64
15000,note_on,,,,,24,0,4,,,3,,,50,80
15000,note_on,,,,,24,0,1,,,0,,,83,80
15072,note_off,,,,,192,0,2,,,1,,,81,64
15096,note_off,,,,,96,0,1,,,0,,,83,64
15096,note_off,,,,,96,0,4,,,3,,,50,64
15120,note_on,,,,,24,0,1,,,0,,,76,80
15120,note_on,,,,,24,0,4,,,3,,,52,80
15120,note_on,,,,,48,0,2,,,1,,,80,80
15216,note_off,,,,,96,0,1,,,0,,,76,64
15216,note_off,,,,,96,0,4,,,3,,,52,64
15216,note_off,,,,,96,0,2,,,1,,,80,64
15240,note_on,,,,,24,0,4,,,3,,,40,80
15240,note_on,,,,,24,0,2,,,1,,,83,80
15336,note_off,,,,,96,0,4,,,3,,,40,64
15336,note_off,,,,,96,0,2,,,1,,,83,64
15360,note_on,,,,,24,0,4,,,3,,,45,80
15360,note_on,,,,,144,0,1,,,0,,,72,80
15360,note_on,,,,,24,0,2,,,1,,,81,80
15456,note_off,,,,,96,0,4,,,3,,,45,64
15456,note_off,,,,,96,0,1,,,0,,,72,64
15480,note_on,,,,,24,0,4,,,3,,,47,80
15480,note_on,,,,,24,0,1,,,0,,,71,80
15576,note_off,,,,,96,0,4,,,3,,,47,64
15576,note_off,,,,,96,0,1,,,0,,,71,64
15600,note_on,,,,,24,0,4,,,3,,,48,80
15600,note_on,,,,,24,0,1,,,0,,,69,80
15648,note_off,,,,,288,0,2,,,1,,,81,64
15696,note_off,,,,,96,0,4,,,3,,,48,64
15696,note_off,,,,,96,0,1,,,0,,,69,64
15720,note_on,,,,,72,0,2,,,1,,,72,80
15720,note_on,,,,,24,0,1,,,0,,,77,80
15720,note_on,,,,,24,0,4,,,3,,,50,80
15816,note_off,,,,,96,0,4,,,3,,,50,64
15816,note_off,,,,,96,0,2,,,1,,,72,64
15816,note_off,,,,,96,0,1,,,0,,,77,64
15840,note_on,,,,,24,0,4,,,3,,,52,80
15840,note_on,,,,,24,0,2,,,1,,,72,80
15840,note_on,,,,,24,0,1,,,0,,,69,80
15936,note_off,,,,,96,0,4,,,3,,,52,64
15960,note_on,,,,,24,0,4,,,3,,,50,80
16032,note_off,,,,,192,0,1,,,0,,,69,64
16032,note_off,,,,,192,0,2,,,1,,,72,64
16056,note_off,,,,,96,0,4,,,3,,,50,64
16080,note_on,,,,,48,0,2,,,1,,,71,80
16080,note_on,,,,,24,0,4,,,3,,,52,80
16080,note_on,,,,,48,0,1,,,0,,,68,80
16176,note_off,,,,,96,0,4,,,3,,,52,64
16200,note_on,,,,,24,0,4,,,3,,,40,80
16272,note_off,,,,,192,0,2,,,1,,,71,64
16272,note_off,,,,,192,0,1,,,0,,,68,64
16296,note_off,,,,,96,0,4,,,3,,,40,64
16320,note_on,,,,,24,0,4,,,3,,,45,80
16320,note_on,,,,,0,0,3,,,2,,,81,80
16320,note_on,,,,,3168,0,3,,,2,,,72,80
16416,note_off,,,,,96,0,4,,,3,,,45,64
16416,note_off,,,,,0,0,3,,,2,,,72,64
16416,note_off,,,,,96,0,3,,,2,,,81,64
16440,note_on,,,,,24,0,4,,,3,,,47,80
16440,note_on,,,,,0,0,3,,,2,,,80,80
16440,note_on,,,,,0,0,3,,,2,,,71,80
16440,note_on,,,,,24,0,3,,,2,,,74,80
16488,note_off,,,,,0,0,3,,,2,,,74,64
16488,note_off,,,,,0,0,3,,,2,,,71,64
16488,note_off,,,,,48,0,3,,,2,,,80,64
16500,note_on,,,,,12,0,3,,,2,,,71,80
16500,note_on,,,,,0,0,3,,,2,,,74,80
16500,note_on,,,,,0,0,3,,,2,,,81,80
16536,note_off,,,,,96,0,4,,,3,,,47,64
16548,note_off,,,,,48,0,3,,,2,,,74,64
16548,note_off,,,,,0,0,3,,,2,,,71,64
16548,note_off,,,,,0,0,3,,,2,,,81,64
16560,note_on,,,,,12,0,3,,,2,,,76,80
16560,note_on,,,,,24,0,4,,,3,,,48,80
16656,note_off,,,,,96,0,3,,,2,,,76,64
16656,note_off,,,,,96,0,4,,,3,,,48,64
16680,note_on,,,,,0,0,3,,,2,,,81,80
16680,note_on,,,,,24,0,3,,,2,,,84,80
16680,note_on,,,,,24,0,4,,,3,,,45,80
16776,note_off,,,,,0,0,3,,,2,,,84,64
16776,note_off,,,,,96,0,3,,,2,,,81,64
16776,note_off,,,,,96,0,4,,,3,,,45,64
16800,note_on,,,,,0,0,3,,,2,,,84,80
16800,note_on,,,,,24,0,3,,,2,,,81,80
16800,note_on,,,,,24,0,4,,,3,,,52,80
16896,note_off,,,,,96,0,4,,,3,,,52,64
16920,note_on,,,,,24,0,4,,,3,,,50,80
16992,note_off,,,,,192,0,3,,,2,,,84,64
16992,note_off,,,,,0,0,3,,,2,,,81,64
17016,note_off,,,,,96,0,4,,,3,,,50,64
17040,note_on,,,,,0,0,3,,,2,,,83,80
17040,note_on,,,,,48,0,3,,,2,,,76,80
17040,note_on,,,,,0,0,3,,,2,,,80,80
17040,note_on,,,,,24,0,4,,,3,,,52,80
17136,note_off,,,,,96,0,3,,,2,,,80,64
17136,note_off,,,,,0,0,3,,,2,,,83,64
17136,note_off,,,,,0,0,3,,,2,,,76,64
17136,note_off,,,,,96,0,4,,,3,,,52,64
17160,note_on,,,,,24,0,3,,,2,,,80,80
17160,note_on,,,,,0,0,3,,,2,,,71,80
17160,note_on,,,,,0,0,3,,,2,,,76,80
17160,note_on,,,,,24,0,4,,,3,,,40,80
17256,note_off,,,,,0,0,3,,,2,,,80,64
17256,note_off,,,,,0,0,3,,,2,,,71,64
17256,note_off,,,,,96,0,3,,,2,,,76,64
17256,note_off,,,,,96,0,4,,,3,,,40,64
17280,note_on,,,,,24,0,3,,,2,,,72,80
17280,note_on,,,,,0,0,3,,,2,,,81,80
17280,note_on,,,,,24,0,4,,,3,,,45,80
17376,note_off,,,,,0,0,3,,,2,,,72,64
17376,note_off,,,,,96,0,4,,,3,,,45,64
17376,note_off,,,,,96,0,3,,,2,,,81,64
17400,note_on,,,,,24,0,3,,,2,,,71,80
17400,note_on,,,,,0,0,3,,,2,,,80,80
17400,note_on,,,,,24,0,4,,,3,,,47,80
17400,note_on,,,,,0,0,3,,,2,,,74,80
17448,note_off,,,,,0,0,3,,,2,,,71,64
17448,note_off,,,,,0,0,3,,,2,,,80,64
17448,note_off,,,,,48,0,3,,,2,,,74,64
17460,note_on,,,,,0,0,3,,,2,,,74,80
17460,note_on,,,,,12,0,3,,,2,,,81,80
17460,note_on,,,,,0,0,3,,,2,,,71,80
17496,note_off,,,,,96,0,4,,,3,,,47,64
17508,note_off,,,,,0,0,3,,,2,,,74,64
17508,note_off,,,,,0,0,3,,,2,,,81,64
17508,note_off,,,,,48,0,3,,,2,,,71,64
17520,note_on,,,,,12,0,3,,,2,,,76,80
17520,note_on,,,,,24,0,4,,,3,,,48,80
17616,note_off,,,,,96,0,3,,,2,,,76,64
17616,note_off,,,,,96,0,4,,,3,,,48,64
17640,note_on,,,,,24,0,4,,,3,,,50,80
17640,note_on,,,,,24,0,3,,,2,,,84,80
17640,note_on,,,,,0,0,3,,,2,,,81,80
17736,note_off,,,,,96,0,4,,,3,,,50,64
17736,note_off,,,,,96,0,3,,,2,,,81,64
17736,note_off,,,,,0,0,3,,,2,,,84,64
17760,note_on,,,,,0,0,3,,,2,,,84,80
17760,note_on,,,,,24,0,3,,,2,,,81,80
17760,note_on,,,,,24,0,4,,,3,,,52,80
17856,note_off,,,,,96,0,4,,,3,,,52,64
17880,note_on,,,,,24,0,4,,,3,,,50,80
17952,note_off,,,,,192,0,3,,,2,,,84,64
17952,note_off,,,,,0,0,3,,,2,,,81,64
17976,note_off,,,,,96,0,4,,,3,,,50,64
18000,note_on,,,,,24,0,4,,,3,,,52,80
18000,note_on,,,,,48,0,3,,,2,,,80,80
18000,note_on,,,,,0,0,3,,,2,,,76,80
18000,note_on,,,,,0,0,3,,,2,,,83,80
18096,note_off,,,,,96,0,4,,,3,,,52,64
18096,note_off,,,,,96,0,3,,,2,,,83,64
18096,note_off,,,,,0,0,3,,,2,,,76,64
18096,note_off,,,,,0,0,3,,,2,,,80,64
18120,note_on,,,,,24,0,3,,,2,,,83,80
18120,note_on,,,,,24,0,4,,,3,,,40,80
18120,note_on,,,,,0,0,3,,,2,,,76,80
18120,note_on,,,,,0,0,3,,,2,,,80,80
18216,note_off,,,,,96,0,4,,,3,,,40,64
18216,note_off,,,,,96,0,3,,,2,,,80,64
18216,note_off,,,,,0,0,3,,,2,,,76,64
18216,note_off,,,,,0,0,3,,,2,,,83,64
18240,note_on,,,,,24,0,4,,,3,,,45,80
18240,note_on,,,,,24,0,3,,,2,,,72,80
18240,note_on,,,,,0,0,3,,,2,,,81,80
18336,note_off,,,,,96,0,3,,,2,,,81,64
18336,note_off,,,,,0,0,3,,,2,,,72,64
18336,note_off,,,,,96,0,4,,,3,,,45,64
18360,note_on,,,,,24,0,4,,,3,,,47,80
18360,note_on,,,,,24,0,3,,,2,,,71,80
18360,note_on,,,,,0,0,3,,,2,,,81,80
18456,note_off,,,,,96,0,3,,,2,,,81,64
18456,note_off,,,,,0,0,3,,,2,,,71,64
18456,note_off,,,,,96,0,4,,,3,,,47,64
18480,note_on,,,,,0,0,3,,,2,,,81,80
18480,note_on,,,,,24,0,4,,,3,,,48,80
18480,note_on,,,,,24,0,3,,,2,,,69,80
18576,note_off,,,,,96,0,3,,,2,,,81,64
18576,note_off,,,,,0,0,3,,,2,,,69,64
18576,note_off,,,,,96,0,4,,,3,,,48,64
18600,note_on,,,,,24,0,4,,,3,,,50,80
18600,note_on,,,,,24,0,3,,,2,,,69,80
18600,note_on,,,,,0,0,3,,,2,,,77,80
18600,note_on,,,,,0,0,3,,,2,,,72,80
18696,note_off,,,,,96,0,4,,,3,,,50,64
18696,note_off,,,,,96,0,3,,,2,,,72,64
18696,note_off,,,,,0,0,3,,,2,,,77,64
18696,note_off,,,,,0,0,3,,,2,,,69,64
18720,note_on,,,,,0,0,3,,,2,,,69,80
18720,note_on,,,,,0,0,3,,,2,,,64,80
18720,note_on,,,,,24,0,3,,,2,,,72,80
18720,note_on,,,,,24,0,4,,,3,,,52,80
18816,note_off,,,,,96,0,4,,,3,,,52,64
18840,note_on,,,,,24,0,4,,,3,,,50,80
18912,note_off,,,,,0,0,3,,,2,,,72,64
18912,note_off,,,,,0,0,3,,,2,,,69,64
18912,note_off,,,,,192,0,3,,,2,,,64,64
18936,note_off,,,,,96,0,4,,,3,,,50,64
18960,note_on,,,,,48,0,3,,,2,,,68,80
18960,note_on,,,,,0,0,3,,,2,,,64,80
18960,note_on,,,,,24,0,4,,,3,,,52,80
18960,note_on,,,,,0,0,3,,,2,,,71,80
19056,note_off,,,,,96,0,4,,,3,,,52,64
19080,note_on,,,,,24,0,4,,,3,,,40,80
19080,note_on,,,,,2808,0,1,,,0,,,76,80
19152,note_off,,,,,0,0,3,,,2,,,71,64
19152,note_off,,,,,192,0,3,,,2,,,64,64
19152,note_off,,,,,0,0,3,,,2,,,68,64
19176,note_off,,,,,96,0,4,,,3,,,40,64
19176,note_off,,,,,96,0,1,,,0,,,76,64
19200,note_on,,,,,24,0,4,,,3,,,61,80
19200,note_on,,,,,24,0,1,,,0,,,82,80
19248,note_off,,,,,48,0,4,,,3,,,61,64
19260,note_on,,,,,12,0,4,,,3,,,61,80
19308,note_off,,,,,48,0,4,,,3,,,61,64
19320,note_on,,,,,12,0,4,,,3,,,61,80
19368,note_off,,,,,48,0,4,,,3,,,61,64
19380,note_on,,,,,12,0,4,,,3,,,61,80
19392,note_off,,,,,192,0,1,,,0,,,82,64
19428,note_off,,,,,48,0,4,,,3,,,61,64
19440,note_on,,,,,48,0,1,,,0,,,81,80
19440,note_on,,,,,12,0,4,,,3,,,61,80
19488,note_off,,,,,48,0,1,,,0,,,81,64
19488,note_off,,,,,48,0,4,,,3,,,61,64
19500,note_on,,,,,12,0,4,,,3,,,61,80
19500,note_on,,,,,12,0,1,,,0,,,79,80
19548,note_off,,,,,48,0,4,,,3,,,61,64
19548,note_off,,,,,48,0,1,,,0,,,79,64
19560,note_on,,,,,12,0,4,,,3,,,61,80
19560,note_on,,,,,12,0,1,,,0,,,77,80
19608,note_off,,,,,48,0,4,,,3,,,61,64
19608,note_off,,,,,48,0,1,,,0,,,77,64
19620,note_on,,,,,12,0,4,,,3,,,61,80
19620,note_on,,,,,12,0,1,,,0,,,76,80
19668,note_off,,,,,48,0,4,,,3,,,61,64
19668,note_off,,,,,48,0,1,,,0,,,76,64
19680,note_on,,,,,12,0,4,,,3,,,60,80
19680,note_on,,,,,12,0,1,,,0,,,77,80
19728,note_off,,,,,48,0,4,,,3,,,60,64
19740,note_on,,,,,12,0,4,,,3,,,60,80
19776,note_off,,,,,96,0,1,,,0,,,77,64
19788,note_off,,,,,48,0,4,,,3,,,60,64
19800,note_on,,,,,24,0,1,,,0,,,76,80
19800,note_on,,,,,12,0,4,,,3,,,60,80
19848,note_off,,,,,48,0,4,,,3,,,60,64
19860,note_on,,,,,12,0,4,,,3,,,60,80
19896,note_off,,,,,96,0,1,,,0,,,76,64
19908,note_off,,,,,48,0,4,,,3,,,60,64
19920,note_on,,,,,24,0,1,,,0,,,74,80
19920,note_on,,,,,0,0,4,,,3,,,60,80
19920,note_on,,,,,12,0,4,,,3,,,60,80
19968,note_off,,,,,0,0,4,,,3,,,60,64
19968,note_off,,,,,48,0,4,,,3,,,60,64
19980,note_on,,,,,12,0,4,,,3,,,60,80
20016,note_off,,,,,96,0,1,,,0,,,74,64
20028,note_off,,,,,48,0,4,,,3,,,60,64
20040,note_on,,,,,12,0,4,,,3,,,60,80
20040,note_on,,,,,24,0,1,,,0,,,77,80
20088,note_off,,,,,48,0,4,,,3,,,60,64
20100,note_on,,,,,12,0,4,,,3,,,60,80
20136,note_off,,,,,96,0,1,,,0,,,77,64
20148,note_off,,,,,48,0,4,,,3,,,60,64
20160,note_on,,,,,24,0,1,,,0,,,81,80
20160,note_on,,,,,12,0,4,,,3,,,59,80
20208,note_off,,,,,48,0,4,,,3,,,59,64
20220,note_on,,,,,12,0,4,,,3,,,59,80
20268,note_off,,,,,48,0,4,,,3,,,59,64
20280,note_on,,,,,12,0,4,,,3,,,59,80
20328,note_off,,,,,48,0,4,,,3,,,59,64
20340,note_on,,,,,12,0,4,,,3,,,59,80
20352,note_off,,,,,192,0,1,,,0,,,81,64
20388,note_off,,,,,48,0,4,,,3,,,59,64
20400,note_on,,,,,12,0,4,,,3,,,59,80
20400,note_on,,,,,48,0,1,,,0,,,79,80
20448,note_off,,,,,48,0,4,,,3,,,59,64
20448,note_off,,,,,48,0,1,,,0,,,79,64
20460,note_on,,,,,12,0,1,,,0,,,77,80
20460,note_on,,,,,12,0,4,,,3,,,59,80
20508,note_off,,,,,48,0,1,,,0,,,77,64
20508,note_off,,,,,48,0,4,,,3,,,59,64
20520,note_on,,,,,12,0,4,,,3,,,59,80
20520,note_on,,,,,12,0,1,,,0,,,76,80
20568,note_off,,,,,48,0,4,,,3,,,59,64
20568,note_off,,,,,48,0,1,,,0,,,76,64
20580,note_on,,,,,12,0,4,,,3,,,59,80
20580,note_on,,,,,12,0,1,,,0,,,74,80
20628,note_off,,,,,48,0,1,,,0,,,74,64
20628,note_off,,,,,48,0,4,,,3,,,59,64
20640,note_on,,,,,12,0,1,,,0,,,76,80
20640,note_on,,,,,12,0,4,,,3,,,58,80
20688,note_off,,,,,48,0,4,,,3,,,58,64
20700,note_on,,,,,12,0,4,,,3,,,58,80
20736,note_off,,,,,96,0,1,,,0,,,76,64
20748,note_off,,,,,48,0,4,,,3,,,58,64
20760,note_on,,,,,12,0,4,,,3,,,58,80
20760,note_on,,,,,24,0,1,,,0,,,74,80
20808,note_off,,,,,48,0,4,,,3,,,58,64
20820,note_on,,,,,12,0,4,,,3,,,58,80
20856,note_off,,,,,96,0,1,,,0,,,74,64
20868,note_off,,,,,48,0,4,,,3,,,58,64
20880,note_on,,,,,24,0,1,,,0,,,72,80
20880,note_on,,,,,12,0,4,,,3,,,58,80
20928,note_off,,,,,48,0,4,,,3,,,58,64
20940,note_on,,,,,12,0,4,,,3,,,58,80
20976,note_off,,,,,96,0,1,,,0,,,72,64
20988,note_off,,,,,48,0,4,,,3,,,58,64
21000,note_on,,,,,24,0,1,,,0,,,76,80
21000,note_on,,,,,12,0,4,,,3,,,58,80
21048,note_off,,,,,48,0,4,,,3,,,58,64
21060,note_on,,,,,12,0,4,,,3,,,58,80
21096,note_off,,,,,96,0,1,,,0,,,76,64
21108,note_off,,,,,48,0,4,,,3,,,58,64
21120,note_on,,,,,24,0,1,,,0,,,79,80
21120,note_on,,,,,12,0,4,,,3,,,57,80
21168,note_off,,,,,48,0,4,,,3,,,57,64
21180,note_on,,,,,12,0,4,,,3,,,57,80
21228,note_off,,,,,48,0,4,,,3,,,57,64
21240,note_on,,,,,12,0,4,,,3,,,57,80
21288,note_off,,,,,48,0,4,,,3,,,57,64
21300,note_on,,,,,12,0,4,,,3,,,57,80
21312,note_off,,,,,192,0,1,,,0,,,79,64
21348,note_off,,,,,48,0,4,,,3,,,57,64
21360,note_on,,,,,48,0,1,,,0,,,77,80
21360,note_on,,,,,12,0,4,,,3,,,57,80
21408,note_off,,,,,48,0,1,,,0,,,77,64
21408,note_off,,,,,48,0,4,,,3,,,57,64
21420,note_on,,,,,12,0,1,,,0,,,75,80
21420,note_on,,,,,12,0,4,,,3,,,57,80
21468,note_off,,,,,48,0,4,,,3,,,57,64
21468,note_off,,,,,48,0,1,,,0,,,75,64
21480,note_on,,,,,12,0,4,,,3,,,57,80
21480,note_on,,,,,12,0,1,,,0,,,74,80
21528,note_off,,,,,48,0,4,,,3,,,57,64
21528,note_off,,,,,48,0,1,,,0,,,74,64
21540,note_on,,,,,12,0,1,,,0,,,72,80
21540,note_on,,,,,12,0,4,,,3,,,57,80
21588,note_off,,,,,48,0,4,,,3,,,57,64
21588,note_off,,,,,48,0,1,,,0,,,72,64
21600,note_on,,,,,12,0,1,,,0,,,74,80
21600,note_on,,,,,12,0,4,,,3,,,57,80
21648,note_off,,,,,48,0,4,,,3,,,57,64
21660,note_on,,,,,12,0,4,,,3,,,57,80
21696,note_off,,,,,96,0,1,,,0,,,74,64
21708,note_off,,,,,48,0,4,,,3,,,57,64
21720,note_on,,,,,12,0,4,,,3,,,57,80
21720,note_on,,,,,24,0,1,,,0,,,72,80
21768,note_off,,,,,48,0,4,,,3,,,57,64
21780,note_on,,,,,12,0,4,,,3,,,57,80
21816,note_off,,,,,96,0,1,,,0,,,72,64
21828,note_off,,,,,48,0,4,,,3,,,57,64
21840,note_on,,,,,12,0,4,,,3,,,57,80
21840,note_on,,,,,24,0,1,,,0,,,70,80
21888,note_off,,,,,48,0,4,,,3,,,57,64
21900,note_on,,,,,12,0,4,,,3,,,57,80
21936,note_off,,,,,96,0,1,,,0,,,70,64
21948,note_off,,,,,48,0,4,,,3,,,57,64
21960,note_on,,,,,24,0,1,,,0,,,74,80
21960,note_on,,,,,12,0,4,,,3,,,57,80
22008,note_off,,,,,48,0,4,,,3,,,57,64
22020,note_on,,,,,12,0,4,,,3,,,57,80
22056,note_off,,,,,96,0,1,,,0,,,74,64
22068,note_off,,,,,48,0,4,,,3,,,57,64
22080,note_on,,,,,12,0,4,,,3,,,55,80
22080,note_on,,,,,24,0,1,,,0,,,77,80
22128,note_off,,,,,48,0,4,,,3,,,55,64
22140,note_on,,,,,12,0,4,,,3,,,55,80
22188,note_off,,,,,48,0,4,,,3,,,55,64
22200,note_on,,,,,12,0,4,,,3,,,55,80
22248,note_off,,,,,48,0,4,,,3,,,55,64
22260,note_on,,,,,12,0,4,,,3,,,55,80
22272,note_off,,,,,192,0,1,,,0,,,77,64
22308,note_off,,,,,48,0,4,,,3,,,55,64
22320,note_on,,,,,48,0,1,,,0,,,76,80
22320,note_on,,,,,12,0,4,,,3,,,55,80
22368,note_off,,,,,48,0,4,,,3,,,55,64
22368,note_off,,,,,48,0,1,,,0,,,76,64
22380,note_on,,,,,12,0,4,,,3,,,55,80
22380,note_on,,,,,12,0,1,,,0,,,74,80
22428,note_off,,,,,48,0,1,,,0,,,74,64
22428,note_off,,,,,48,0,4,,,3,,,55,64
22440,note_on,,,,,12,0,4,,,3,,,55,80
22440,note_on,,,,,12,0,1,,,0,,,72,80
22488,note_off,,,,,48,0,1,,,0,,,72,64
22488,note_off,,,,,48,0,4,,,3,,,55,64
22500,note_on,,,,,12,0,1,,,0,,,70,80
22500,note_on,,,,,12,0,4,,,3,,,55,80
22548,note_off,,,,,48,0,1,,,0,,,70,64
22548,note_off,,,,,48,0,4,,,3,,,55,64
22560,note_on,,,,,12,0,1,,,0,,,70,80
22560,note_on,,,,,12,0,4,,,3,,,53,80
22608,note_off,,,,,48,0,4,,,3,,,53,64
22620,note_on,,,,,12,0,4,,,3,,,53,80
22656,note_off,,,,,96,0,1,,,0,,,70,64
22668,note_off,,,,,48,0,4,,,3,,,53,64
22680,note_on,,,,,24,0,1,,,0,,,69,80
22680,note_on,,,,,12,0,4,,,3,,,53,80
22728,note_off,,,,,48,0,4,,,3,,,53,64
22740,note_on,,,,,12,0,4,,,3,,,53,80
22776,note_off,,,,,96,0,1,,,0,,,69,64
22788,note_off,,,,,48,0,4,,,3,,,53,64
22800,note_on,,,,,12,0,4,,,3,,,53,80
22848,note_off,,,,,48,0,4,,,3,,,53,64
22860,note_on,,,,,12,0,4,,,3,,,53,80
22860,note_on,,,,,6588,0,2,,,1,,,65,80
22860,note_on,,,,,84,0,1,,,0,,,69,80
22908,note_off,,,,,48,0,2,,,1,,,65,64
22908,note_off,,,,,48,0,1,,,0,,,69,64
22908,note_off,,,,,48,0,4,,,3,,,53,64
22920,note_on,,,,,12,0,2,,,1,,,67,80
22920,note_on,,,,,12,0,4,,,3,,,53,80
22920,note_on,,,,,12,0,1,,,0,,,70,80
22968,note_off,,,,,48,0,2,,,1,,,67,64
22968,note_off,,,,,48,0,4,,,3,,,53,64
22968,note_off,,,,,48,0,1,,,0,,,70,64
22980,note_on,,,,,12,0,2,,,1,,,65,80
22980,note_on,,,,,12,0,4,,,3,,,53,80
22980,note_on,,,,,12,0,1,,,0,,,69,80
23028,note_off,,,,,48,0,4,,,3,,,53,64
23028,note_off,,,,,48,0,1,,,0,,,69,64
23028,note_off,,,,,48,0,2,,,1,,,65,64
23040,note_on,,,,,12,0,1,,,0,,,74,80
23040,note_on,,,,,12,0,4,,,3,,,53,80
23040,note_on,,,,,12,0,2,,,1,,,70,80
23088,note_off,,,,,48,0,4,,,3,,,53,64
23100,note_on,,,,,12,0,4,,,3,,,53,80
23148,note_off,,,,,48,0,4,,,3,,,53,64
23160,note_on,,,,,12,0,4,,,3,,,53,80
23208,note_off,,,,,48,0,4,,,3,,,53,64
23220,note_on,,,,,12,0,4,,,3,,,53,80
23232,note_off,,,,,192,0,1,,,0,,,74,64
23232,note_off,,,,,192,0,2,,,1,,,70,64
23268,note_off,,,,,48,0,4,,,3,,,53,64
23280,note_on,,,,,48,0,2,,,1,,,70,80
23280,note_on,,,,,48,0,1,,,0,,,74,80
23280,note_on,,,,,12,0,4,,,3,,,53,80
23328,note_off,,,,,48,0,1,,,0,,,74,64
23328,note_off,,,,,48,0,2,,,1,,,70,64
23328,note_off,,,,,48,0,4,,,3,,,53,64
23340,note_on,,,,,12,0,2,,,1,,,69,80
23340,note_on,,,,,12,0,4,,,3,,,53,80
23340,note_on,,,,,12,0,1,,,0,,,72,80
23388,note_off,,,,,48,0,1,,,0,,,72,64
23388,note_off,,,,,48,0,2,,,1,,,69,64
23388,note_off,,,,,48,0,4,,,3,,,53,64
23400,note_on,,,,,12,0,4,,,3,,,53,80
23400,note_on,,,,,12,0,2,,,1,,,70,80
23400,note_on,,,,,12,0,1,,,0,,,74,80
23448,note_off,,,,,48,0,2,,,1,,,70,64
23448,note_off,,,,,48,0,1,,,0,,,74,64
23448,note_off,,,,,48,0,4,,,3,,,53,64
23460,note_on,,,,,12,0,2,,,1,,,69,80
23460,note_on,,,,,12,0,4,,,3,,,53,80
23460,note_on,,,,,12,0,1,,,0,,,72,80
23508,note_off,,,,,48,0,1,,,0,,,72,64
23508,note_off,,,,,48,0,4,,,3,,,53,64
23508,note_off,,,,,48,0,2,,,1,,,69,64
23520,note_on,,,,,12,0,1,,,0,,,77,80
23520,note_on,,,,,12,0,2,,,1,,,74,80
23520,note_on,,,,,12,0,4,,,3,,,53,80
23568,note_off,,,,,48,0,4,,,3,,,53,64
23580,note_on,,,,,12,0,4,,,3,,,53,80
23628,note_off,,,,,48,0,4,,,3,,,53,64
23640,note_on,,,,,12,0,4,,,3,,,53,80
23688,note_off,,,,,48,0,4,,,3,,,53,64
23700,note_on,,,,,12,0,4,,,3,,,53,80
23712,note_off,,,,,192,0,2,,,1,,,74,64
23712,note_off,,,,,192,0,1,,,0,,,77,64
23748,note_off,,,,,48,0,4,,,3,,,53,64
23760,note_on,,,,,48,0,1,,,0,,,77,80
23760,note_on,,,,,48,0,2,,,1,,,74,80
23760,note_on,,,,,12,0,4,,,3,,,53,80
23808,note_off,,,,,48,0,4,,,3,,,53,64
23808,note_off,,,,,48,0,2,,,1,,,74,64
23808,note_off,,,,,48,0,1,,,0,,,77,64
23820,note_on,,,,,12,0,2,,,1,,,72,80
23820,note_on,,,,,12,0,1,,,0,,,76,80
23820,note_on,,,,,12,0,4,,,3,,,53,80
23868,note_off,,,,,48,0,2,,,1,,,72,64
23868,note_off,,,,,48,0,1,,,0,,,76,64
23868,note_off,,,,,48,0,4,,,3,,,53,64
23880,note_on,,,,,12,0,1,,,0,,,77,80
23880,note_on,,,,,12,0,4,,,3,,,53,80
23880,note_on,,,,,12,0,2,,,1,,,74,80
23928,note_off,,,,,48,0,4,,,3,,,53,64
23928,note_off,,,,,48,0,2,,,1,,,74,64
23928,note_off,,,,,48,0,1,,,0,,,77,64
23940,note_on,,,,,12,0,4,,,3,,,53,80
23940,note_on,,,,,12,0,1,,,0,,,76,80
23940,note_on,,,,,12,0,2,,,1,,,72,80
23988,note_off,,,,,48,0,2,,,1,,,72,64
23988,note_off,,,,,48,0,4,,,3,,,53,64
23988,note_off,,,,,48,0,1,,,0,,,76,64
24000,note_on,,,,,12,0,1,,,0,,,81,80
24000,note_on,,,,,12,0,4,,,3,,,53,80
24000,note_on,,,,,12,0,2,,,1,,,77,80
24048,note_off,,,,,48,0,4,,,3,,,53,64
24060,note_on,,,,,12,0,4,,,3,,,53,80
24108,note_off,,,,,48,0,4,,,3,,,53,64
24120,note_on,,,,,12,0,4,,,3,,,53,80
24168,note_off,,,,,48,0,4,,,3,,,53,64
24180,note_on,,,,,12,0,4,,,3,,,53,80
24192,note_off,,,,,192,0,2,,,1,,,77,64
24192,note_off,,,,,192,0,1,,,0,,,81,64
24228,note_off,,,,,48,0,4,,,3,,,53,64
24240,note_on,,,,,48,0,1,,,0,,,81,80
24240,note_on,,,,,12,0,4,,,3,,,53,80
24240,note_on,,,,,48,0,2,,,1,,,77,80
24288,note_off,,,,,48,0,2,,,1,,,77,64
24288,note_off,,,,,48,0,1,,,0,,,81,64
24288,note_off,,,,,48,0,4,,,3,,,53,64
24300,note_on,,,,,12,0,1,,,0,,,79,80
24300,note_on,,,,,12,0,4,,,3,,,53,80
24300,note_on,,,,,12,0,2,,,1,,,76,80
24348,note_off,,,,,48,0,4,,,3,,,53,64
24348,note_off,,,,,48,0,2,,,1,,,76,64
24348,note_off,,,,,48,0,1,,,0,,,79,64
24360,note_on,,,,,12,0,2,,,1,,,77,80
24360,note_on,,,,,12,0,4,,,3,,,53,80
24360,note_on,,,,,12,0,1,,,0,,,81,80
24408,note_off,,,,,48,0,1,,,0,,,81,64
24408,note_off,,,,,48,0,2,,,1,,,77,64
24408,note_off,,,,,48,0,4,,,3,,,53,64
24420,note_on,,,,,12,0,2,,,1,,,76,80
24420,note_on,,,,,12,0,1,,,0,,,79,80
24420,note_on,,,,,12,0,4,,,3,,,53,80
24468,note_off,,,,,48,0,4,,,3,,,53,64
24468,note_off,,,,,48,0,2,,,1,,,76,64
24468,note_off,,,,,48,0,1,,,0,,,79,64
24480,note_on,,,,,12,0,1,,,0,,,82,80
24480,note_on,,,,,12,0,4,,,3,,,52,80
24480,note_on,,,,,12,0,2,,,1,,,79,80
24528,note_off,,,,,48,0,4,,,3,,,52,64
24540,note_on,,,,,12,0,4,,,3,,,52,80
24588,note_off,,,,,48,0,4,,,3,,,52,64
24600,note_on,,,,,12,0,4,,,3,,,52,80
24648,note_off,,,,,48,0,4,,,3,,,52,64
24660,note_on,,,,,12,0,4,,,3,,,52,80
24708,note_off,,,,,48,0,4,,,3,,,52,64
24720,note_on,,,,,12,0,4,,,3,,,52,80
24768,note_off,,,,,48,0,4,,,3,,,52,64
24768,note_off,,,,,288,0,2,,,1,,,79,64
24768,note_off,,,,,288,0,1,,,0,,,82,64
24780,note_on,,,,,12,0,4,,,3,,,52,80
24828,note_off,,,,,48,0,4,,,3,,,52,64
24840,note_on,,,,,72,0,1,,,0,,,81,80
24840,note_on,,,,,72,0,2,,,1,,,76,80
24840,note_on,,,,,0,0,4,,,3,,,52,80
24840,note_on,,,,,12,0,4,,,3,,,52,80
24888,note_off,,,,,0,0,4,,,3,,,52,64
24888,note_off,,,,,48,0,4,,,3,,,52,64
24888,note_off,,,,,48,0,1,,,0,,,81,64
24900,note_on,,,,,12,0,1,,,0,,,79,80
24900,note_on,,,,,12,0,4,,,3,,,52,80
24936,note_off,,,,,96,0,2,,,1,,,76,64
24948,note_off,,,,,48,0,1,,,0,,,79,64
24948,note_off,,,,,48,0,4,,,3,,,52,64
24960,note_on,,,,,24,0,2,,,1,,,72,80
24960,note_on,,,,,12,0,4,,,3,,,53,80
24960,note_on,,,,,12,0,1,,,0,,,81,80
25056,note_off,,,,,96,0,4,,,3,,,53,64
25056,note_off,,,,,96,0,2,,,1,,,72,64
25056,note_off,,,,,96,0,1,,,0,,,81,64
25080,note_on,,,,,24,0,2,,,1,,,70,80
25080,note_on,,,,,24,0,4,,,3,,,53,80
25080,note_on,,,,,24,0,1,,,0,,,79,80
25128,note_off,,,,,48,0,1,,,0,,,79,64
25128,note_off,,,,,48,0,2,,,1,,,70,64
25140,note_on,,,,,12,0,2,,,1,,,69,80
25140,note_on,,,,,12,0,1,,,0,,,77,80
25176,note_off,,,,,96,0,4,,,3,,,53,64
25188,note_off,,,,,48,0,2,,,1,,,69,64
25188,note_off,,,,,48,0,1,,,0,,,77,64
25200,note_on,,,,,12,0,2,,,1,,,67,80
25200,note_on,,,,,12,0,1,,,0,,,76,80
25200,note_on,,,,,24,0,4,,,3,,,48,80
25296,note_off,,,,,96,0,4,,,3,,,48,64
25320,note_on,,,,,24,0,4,,,3,,,48,80
25344,note_off,,,,,144,0,2,,,1,,,67,64
25344,note_off,,,,,144,0,1,,,0,,,76,64
25380,note_on,,,,,36,0,2,,,1,,,65,80
25380,note_on,,,,,36,0,1,,,0,,,77,80
25416,note_off,,,,,96,0,4,,,3,,,48,64
25428,note_off,,,,,48,0,2,,,1,,,65,64
25428,note_off,,,,,48,0,1,,,0,,,77,64
25440,note_on,,,,,12,0,1,,,0,,,77,80
25440,note_on,,,,,0,0,3,,,2,,,77,80
25440,note_on,,,,,6288,0,3,,,2,,,69,80
25440,note_on,,,,,12,0,2,,,1,,,65,80
25440,note_on,,,,,24,0,4,,,3,,,53,80
25536,note_off,,,,,96,0,3,,,2,,,77,64
25536,note_off,,,,,0,0,3,,,2,,,69,64
25536,note_off,,,,,96,0,4,,,3,,,53,64
25560,note_on,,,,,24,0,4,,,3,,,55,80
25560,note_on,,,,,24,0,3,,,2,,,67,80
25560,note_on,,,,,0,0,3,,,2,,,76,80
25608,note_off,,,,,0,0,3,,,2,,,67,64
25608,note_off,,,,,48,0,3,,,2,,,76,64
25620,note_on,,,,,12,0,3,,,2,,,67,80
25620,note_on,,,,,0,0,3,,,2,,,77,80
25632,note_off,,,,,192,0,2,,,1,,,65,64
25632,note_off,,,,,192,0,1,,,0,,,77,64
25656,note_off,,,,,96,0,4,,,3,,,55,64
25668,note_off,,,,,48,0,3,,,2,,,77,64
25668,note_off,,,,,0,0,3,,,2,,,67,64
25680,note_on,,,,,12,0,3,,,2,,,72,80
25680,note_on,,,,,0,0,3,,,2,,,65,80
25680,note_on,,,,,24,0,4,,,3,,,57,80
25776,note_off,,,,,96,0,4,,,3,,,57,64
25776,note_off,,,,,96,0,3,,,2,,,65,64
25776,note_off,,,,,0,0,3,,,2,,,72,64
25800,note_on,,,,,24,0,4,,,3,,,55,80
25800,note_on,,,,,24,0,3,,,2,,,72,80
25800,note_on,,,,,0,0,3,,,2,,,77,80
25800,note_on,,,,,0,0,3,,,2,,,81,80
25896,note_off,,,,,96,0,4,,,3,,,55,64
25896,note_off,,,,,96,0,3,,,2,,,77,64
25896,note_off,,,,,0,0,3,,,2,,,81,64
25896,note_off,,,,,0,0,3,,,2,,,72,64
25920,note_on,,,,,24,0,4,,,3,,,60,80
25920,note_on,,,,,0,0,3,,,2,,,72,80
25920,note_on,,,,,24,0,3,,,2,,,77,80
25920,note_on,,,,,0,0,3,,,2,,,81,80
26016,note_off,,,,,96,0,4,,,3,,,60,64
26040,note_on,,,,,24,0,4,,,3,,,58,80
26112,note_off,,,,,192,0,3,,,2,,,81,64
26112,note_off,,,,,0,0,3,,,2,,,72,64
26112,note_off,,,,,0,0,3,,,2,,,77,64
26136,note_off,,,,,96,0,4,,,3,,,58,64
26160,note_on,,,,,0,0,3,,,2,,,79,80
26160,note_on,,,,,0,0,3,,,2,,,72,80
26160,note_on,,,,,48,0,3,,,2,,,76,80
26160,note_on,,,,,24,0,4,,,3,,,60,80
26256,note_off,,,,,96,0,4,,,3,,,60,64
26256,note_off,,,,,0,0,3,,,2,,,72,64
26256,note_off,,,,,0,0,3,,,2,,,76,64
26256,note_off,,,,,96,0,3,,,2,,,79,64
26280,note_on,,,,,24,0,4,,,3,,,48,80
26280,note_on,,,,,24,0,3,,,2,,,72,80
26280,note_on,,,,,0,0,3,,,2,,,67,80
26280,note_on,,,,,0,0,3,,,2,,,76,80
26376,note_off,,,,,96,0,4,,,3,,,48,64
26376,note_off,,,,,96,0,3,,,2,,,76,64
26376,note_off,,,,,0,0,3,,,2,,,67,64
26376,note_off,,,,,0,0,3,,,2,,,72,64
26400,note_on,,,,,24,0,4,,,3,,,53,80
26400,note_on,,,,,24,0,3,,,2,,,77,80
26400,note_on,,,,,0,0,4,,,3,,,57,80
26400,note_on,,,,,0,0,3,,,2,,,69,80
26496,note_off,,,,,96,0,4,,,3,,,57,64
26496,note_off,,,,,0,0,3,,,2,,,77,64
26496,note_off,,,,,0,0,4,,,3,,,53,64
26496,note_off,,,,,96,0,3,,,2,,,69,64
26520,note_on,,,,,24,0,3,,,2,,,67,80
26520,note_on,,,,,0,0,3,,,2,,,76,80
26520,note_on,,,,,0,0,4,,,3,,,58,80
26520,note_on,,,,,24,0,4,,,3,,,55,80
26568,note_off,,,,,0,0,3,,,2,,,67,64
26568,note_off,,,,,48,0,3,,,2,,,76,64
26580,note_on,,,,,0,0,3,,,2,,,67,80
26580,note_on,,,,,12,0,3,,,2,,,77,80
26616,note_off,,,,,0,0,4,,,3,,,55,64
26616,note_off,,,,,96,0,4,,,3,,,58,64
26628,note_off,,,,,48,0,3,,,2,,,67,64
26628,note_off,,,,,0,0,3,,,2,,,77,64
26640,note_on,,,,,24,0,4,,,3,,,57,80
26640,note_on,,,,,0,0,4,,,3,,,60,80
26640,note_on,,,,,12,0,3,,,2,,,65,80
26640,note_on,,,,,0,0,3,,,2,,,72,80
26736,note_off,,,,,96,0,4,,,3,,,60,64
26736,note_off,,,,,96,0,3,,,2,,,72,64
26736,note_off,,,,,0,0,3,,,2,,,65,64
26736,note_off,,,,,0,0,4,,,3,,,57,64
26760,note_on,,,,,24,0,3,,,2,,,81,80
26760,note_on,,,,,0,0,3,,,2,,,77,80
26760,note_on,,,,,0,0,3,,,2,,,72,80
26760,note_on,,,,,24,0,4,,,3,,,53,80
26856,note_off,,,,,0,0,3,,,2,,,81,64
26856,note_off,,,,,96,0,4,,,3,,,53,64
26856,note_off,,,,,0,0,3,,,2,,,77,64
26856,note_off,,,,,96,0,3,,,2,,,72,64
26880,note_on,,,,,24,0,3,,,2,,,77,80
26880,note_on,,,,,0,0,3,,,2,,,81,80
26880,note_on,,,,,0,0,3,,,2,,,72,80
26880,note_on,,,,,24,0,4,,,3,,,60,80
26976,note_off,,,,,96,0,4,,,3,,,60,64
27000,note_on,,,,,24,0,4,,,3,,,58,80
27072,note_off,,,,,192,0,3,,,2,,,72,64
27072,note_off,,,,,0,0,3,,,2,,,77,64
27072,note_off,,,,,0,0,3,,,2,,,81,64
27096,note_off,,,,,96,0,4,,,3,,,58,64
27120,note_on,,,,,24,0,4,,,3,,,60,80
27120,note_on,,,,,0,0,3,,,2,,,79,80
27120,note_on,,,,,0,0,3,,,2,,,76,80
27120,note_on,,,,,48,0,3,,,2,,,72,80
27216,note_off,,,,,0,0,3,,,2,,,76,64
27216,note_off,,,,,96,0,3,,,2,,,79,64
27216,note_off,,,,,0,0,3,,,2,,,72,64
27216,note_off,,,,,96,0,4,,,3,,,60,64
27240,note_on,,,,,0,0,3,,,2,,,84,80
27240,note_on,,,,,0,0,3,,,2,,,76,80
27240,note_on,,,,,24,0,3,,,2,,,79,80
27240,note_on,,,,,24,0,4,,,3,,,48,80
27336,note_off,,,,,0,0,3,,,2,,,79,64
27336,note_off,,,,,0,0,3,,,2,,,76,64
27336,note_off,,,,,96,0,4,,,3,,,48,64
27336,note_off,,,,,96,0,3,,,2,,,84,64
27360,note_on,,,,,24,0,3,,,2,,,81,80
27360,note_on,,,,,0,0,3,,,2,,,72,80
27360,note_on,,,,,24,0,4,,,3,,,53,80
27456,note_off,,,,,96,0,4,,,3,,,53,64
27456,note_off,,,,,96,0,3,,,2,,,72,64
27456,note_off,,,,,0,0,3,,,2,,,81,64
27480,note_on,,,,,0,0,3,,,2,,,70,80
27480,note_on,,,,,24,0,3,,,2,,,79,80
27480,note_on,,,,,24,0,4,,,3,,,55,80
27576,note_off,,,,,96,0,3,,,2,,,70,64
27576,note_off,,,,,0,0,3,,,2,,,79,64
27576,note_off,,,,,96,0,4,,,3,,,55,64
27600,note_on,,,,,24,0,3,,,2,,,72,80
27600,note_on,,,,,0,0,3,,,2,,,77,80
27600,note_on,,,,,24,0,4,,,3,,,57,80
27696,note_off,,,,,96,0,4,,,3,,,57,64
27696,note_off,,,,,96,0,3,,,2,,,77,64
27696,note_off,,,,,0,0,3,,,2,,,72,64
27720,note_on,,,,,24,0,4,,,3,,,58,80
27720,note_on,,,,,24,0,3,,,2,,,81,80
27720,note_on,,,,,0,0,3,,,2,,,86,80
27720,note_on,,,,,0,0,3,,,2,,,77,80
27816,note_off,,,,,96,0,3,,,2,,,77,64
27816,note_off,,,,,0,0,3,,,2,,,86,64
27816,note_off,,,,,0,0,3,,,2,,,81,64
27816,note_off,,,,,96,0,4,,,3,,,58,64
27840,note_on,,,,,24,0,3,,,2,,,72,80
27840,note_on,,,,,24,0,4,,,3,,,60,80
27840,note_on,,,,,0,0,3,,,2,,,77,80
27840,note_on,,,,,0,0,3,,,2,,,81,80
27936,note_off,,,,,96,0,4,,,3,,,60,64
27960,note_on,,,,,24,0,4,,,3,,,58,80
28032,note_off,,,,,192,0,3,,,2,,,81,64
28032,note_off,,,,,0,0,3,,,2,,,72,64
28032,note_off,,,,,0,0,3,,,2,,,77,64
28056,note_off,,,,,96,0,4,,,3,,,58,64
28080,note_on,,,,,0,0,3,,,2,,,79,80
28080,note_on,,,,,0,0,3,,,2,,,72,80
28080,note_on,,,,,48,0,3,,,2,,,76,80
28080,note_on,,,,,24,0,4,,,3,,,60,80
28176,note_off,,,,,96,0,4,,,3,,,60,64
28200,note_on,,,,,24,0,4,,,3,,,48,80
28272,note_off,,,,,192,0,3,,,2,,,79,64
28272,note_off,,,,,0,0,3,,,2,,,72,64
28272,note_off,,,,,0,0,3,,,2,,,76,64
28296,note_off,,,,,96,0,4,,,3,,,48,64
28320,note_on,,,,,24,0,4,,,3,,,41,80
28320,note_on,,,,,2688,0,1,,,0,,,72,80
28320,note_on,,,,,2688,0,2,,,1,,,69,80
28416,note_off,,,,,96,0,1,,,0,,,72,64
28416,note_off,,,,,96,0,4,,,3,,,41,64
28416,note_off,,,,,96,0,2,,,1,,,69,64
28440,note_on,,,,,24,0,2,,,1,,,69,80
28440,note_on,,,,,24,0,1,,,0,,,72,80
28440,note_on,,,,,24,0,4,,,3,,,53,80
28536,note_off,,,,,96,0,4,,,3,,,53,64
28560,note_on,,,,,24,0,4,,,3,,,53,80
28632,note_off,,,,,192,0,1,,,0,,,72,64
28632,note_off,,,,,192,0,2,,,1,,,69,64
28656,note_off,,,,,96,0,4,,,3,,,53,64
28680,note_on,,,,,24,0,4,,,3,,,41,80
28680,note_on,,,,,48,0,1,,,0,,,82,80
28680,note_on,,,,,48,0,2,,,1,,,79,80
28776,note_off,,,,,96,0,2,,,1,,,79,64
28776,note_off,,,,,96,0,1,,,0,,,82,64
28776,note_off,,,,,96,0,4,,,3,,,41,64
28800,note_on,,,,,24,0,1,,,0,,,81,80
28800,note_on,,,,,24,0,4,,,3,,,41,80
28800,note_on,,,,,24,0,2,,,1,,,77,80
28896,note_off,,,,,96,0,1,,,0,,,81,64
28896,note_off,,,,,96,0,2,,,1,,,77,64
28896,note_off,,,,,96,0,4,,,3,,,41,64
28920,note_on,,,,,24,0,2,,,1,,,77,80
28920,note_on,,,,,24,0,4,,,3,,,53,80
28920,note_on,,,,,24,0,1,,,0,,,81,80
29016,note_off,,,,,96,0,4,,,3,,,53,64
29040,note_on,,,,,24,0,4,,,3,,,53,80
29112,note_off,,,,,192,0,2,,,1,,,77,64
29112,note_off,,,,,192,0,1,,,0,,,81,64
29136,note_off,,,,,96,0,4,,,3,,,53,64
29160,note_on,,,,,48,0,1,,,0,,,79,80
29160,note_on,,,,,24,0,4,,,3,,,41,80
29160,note_on,,,,,48,0,2,,,1,,,75,80
29256,note_off,,,,,96,0,4,,,3,,,41,64
29256,note_off,,,,,96,0,1,,,0,,,79,64
29256,note_off,,,,,96,0,2,,,1,,,75,64
29280,note_on,,,,,24,0,1,,,0,,,77,80
29280,note_on,,,,,24,0,2,,,1,,,74,80
29280,note_on,,,,,24,0,4,,,3,,,41,80
29376,note_off,,,,,96,0,1,,,0,,,77,64
29376,note_off,,,,,96,0,2,,,1,,,74,64
29376,note_off,,,,,96,0,4,,,3,,,41,64
29400,note_on,,,,,24,0,1,,,0,,,77,80
29400,note_on,,,,,24,0,2,,,1,,,74,80
29400,note_on,,,,,24,0,4,,,3,,,53,80
29496,note_off,,,,,96,0,4,,,3,,,53,64
29520,note_on,,,,,24,0,4,,,3,,,53,80
29592,note_off,,,,,192,0,1,,,0,,,77,64
29592,note_off,,,,,192,0,2,,,1,,,74,64
29616,note_off,,,,,96,0,4,,,3,,,53,64
29640,note_on,,,,,48,0,1,,,0,,,75,80
29640,note_on,,,,,24,0,4,,,3,,,41,80
29640,note_on,,,,,48,0,2,,,1,,,72,80
29736,note_off,,,,,96,0,1,,,0,,,75,64
29736,note_off,,,,,96,0,4,,,3,,,41,64
29736,note_off,,,,,96,0,2,,,1,,,72,64
29760,note_on,,,,,0,0,3,,,2,,,74,80
29760,note_on,,,,,0,0,3,,,2,,,70,80
29760,note_on,,,,,24,0,2,,,1,,,70,80
29760,note_on,,,,,1488,0,3,,,2,,,65,80
29760,note_on,,,,,24,0,4,,,3,,,46,80
29760,note_on,,,,,24,0,1,,,0,,,74,80
29856,note_off,,,,,0,0,3,,,2,,,70,64
29856,note_off,,,,,96,0,2,,,1,,,70,64
29856,note_off,,,,,96,0,4,,,3,,,46,64
29856,note_off,,,,,0,0,3,,,2,,,65,64
29856,note_off,,,,,96,0,3,,,2,,,74,64
29856,note_off,,,,,96,0,1,,,0,,,74,64
29880,note_on,,,,,24,0,2,,,1,,,70,80
29880,note_on,,,,,24,0,1,,,0,,,74,80
29880,note_on,,,,,24,0,3,,,2,,,74,80
29880,note_on,,,,,0,0,3,,,2,,,70,80
29880,note_on,,,,,24,0,4,,,3,,,58,80
29880,note_on,,,,,0,0,3,,,2,,,65,80
29976,note_off,,,,,96,0,4,,,3,,,58,64
30000,note_on,,,,,24,0,4,,,3,,,58,80
30072,note_off,,,,,192,0,3,,,2,,,70,64
30072,note_off,,,,,192,0,1,,,0,,,74,64
30072,note_off,,,,,0,0,3,,,2,,,65,64
30072,note_off,,,,,192,0,2,,,1,,,70,64
30072,note_off,,,,,0,0,3,,,2,,,74,64
30096,note_off,,,,,96,0,4,,,3,,,58,64
30120,note_on,,,,,24,0,4,,,3,,,46,80
30120,note_on,,,,,48,0,3,,,2,,,84,80
30120,note_on,,,,,0,0,3,,,2,,,81,80
30120,note_on,,,,,0,0,3,,,2,,,77,80
30216,note_off,,,,,0,0,3,,,2,,,84,64
30216,note_off,,,,,0,0,3,,,2,,,81,64
30216,note_off,,,,,96,0,3,,,2,,,77,64
30216,note_off,,,,,96,0,4,,,3,,,46,64
30240,note_on,,,,,24,0,4,,,3,,,46,80
30240,note_on,,,,,0,0,3,,,2,,,82,80
30240,note_on,,,,,0,0,3,,,2,,,74,80
30240,note_on,,,,,24,0,3,,,2,,,79,80
30336,note_off,,,,,96,0,4,,,3,,,46,64
30336,note_off,,,,,0,0,3,,,2,,,79,64
30336,note_off,,,,,0,0,3,,,2,,,82,64
30336,note_off,,,,,96,0,3,,,2,,,74,64
30360,note_on,,,,,24,0,4,,,3,,,58,80
30360,note_on,,,,,0,0,3,,,2,,,82,80
30360,note_on,,,,,0,0,3,,,2,,,79,80
30360,note_on,,,,,24,0,3,,,2,,,74,80
30456,note_off,,,,,96,0,4,,,3,,,58,64
30480,note_on,,,,,24,0,4,,,3,,,58,80
30552,note_off,,,,,0,0,3,,,2,,,79,64
30552,note_off,,,,,0,0,3,,,2,,,74,64
30552,note_off,,,,,192,0,3,,,2,,,82,64
30576,note_off,,,,,96,0,4,,,3,,,58,64
30600,note_on,,,,,0,0,3,,,2,,,81,80
30600,note_on,,,,,0,0,3,,,2,,,77,80
30600,note_on,,,,,48,0,3,,,2,,,74,80
30600,note_on,,,,,24,0,4,,,3,,,46,80
30696,note_off,,,,,0,0,3,,,2,,,77,64
30696,note_off,,,,,0,0,3,,,2,,,74,64
30696,note_off,,,,,96,0,4,,,3,,,46,64
30696,note_off,,,,,96,0,3,,,2,,,81,64
30720,note_on,,,,,24,0,3,,,2,,,67,80
30720,note_on,,,,,0,0,3,,,2,,,74,80
30720,note_on,,,,,0,0,3,,,2,,,79,80
30720,note_on,,,,,24,0,4,,,3,,,47,80
30816,note_off,,,,,0,0,3,,,2,,,67,64
30816,note_off,,,,,96,0,4,,,3,,,47,64
30816,note_off,,,,,0,0,3,,,2,,,74,64
30816,note_off,,,,,96,0,3,,,2,,,79,64
30840,note_on,,,,,0,0,3,,,2,,,67,80
30840,note_on,,,,,0,0,3,,,2,,,74,80
30840,note_on,,,,,24,0,3,,,2,,,79,80
30840,note_on,,,,,24,0,4,,,3,,,59,80
30936,note_off,,,,,96,0,4,,,3,,,59,64
30960,note_on,,,,,24,0,4,,,3,,,59,80
31032,note_off,,,,,0,0,3,,,2,,,79,64
31032,note_off,,,,,0,0,3,,,2,,,74,64
31032,note_off,,,,,192,0,3,,,2,,,67,64
31056,note_off,,,,,96,0,4,,,3,,,59,64
31080,note_on,,,,,0,0,3,,,2,,,79,80
31080,note_on,,,,,48,0,3,,,2,,,67,80
31080,note_on,,,,,24,0,4,,,3,,,47,80
31080,note_on,,,,,0,0,3,,,2,,,74,80
31176,note_off,,,,,96,0,3,,,2,,,74,64
31176,note_off,,,,,96,0,4,,,3,,,47,64
31176,note_off,,,,,0,0,3,,,2,,,79,64
31176,note_off,,,,,0,0,3,,,2,,,67,64
31200,note_on,,,,,0,0,3,,,2,,,67,80
31200,note_on,,,,,0,0,3,,,2,,,72,80
31200,note_on,,,,,24,0,4,,,3,,,48,80
31200,note_on,,,,,24,0,3,,,2,,,76,80
31296,note_off,,,,,96,0,3,,,2,,,72,64
31296,note_off,,,,,0,0,3,,,2,,,67,64
31296,note_off,,,,,0,0,3,,,2,,,76,64
31296,note_off,,,,,96,0,4,,,3,,,48,64
31320,note_on,,,,,1248,0,1,,,0,,,72,80
31320,note_on,,,,,0,0,3,,,2,,,72,80
31320,note_on,,,,,0,0,3,,,2,,,67,80
31320,note_on,,,,,1248,0,2,,,1,,,76,80
31320,note_on,,,,,24,0,4,,,3,,,60,80
31320,note_on,,,,,24,0,3,,,2,,,76,80
31416,note_off,,,,,96,0,2,,,1,,,76,64
31416,note_off,,,,,96,0,4,,,3,,,60,64
31416,note_off,,,,,96,0,1,,,0,,,72,64
31440,note_on,,,,,24,0,4,,,3,,,60,80
31440,note_on,,,,,24,0,2,,,1,,,79,80
31440,note_on,,,,,24,0,1,,,0,,,82,80
31512,note_off,,,,,192,0,3,,,2,,,67,64
31512,note_off,,,,,0,0,3,,,2,,,76,64
31512,note_off,,,,,0,0,3,,,2,,,72,64
31536,note_off,,,,,96,0,1,,,0,,,82,64
31536,note_off,,,,,96,0,4,,,3,,,60,64
31536,note_off,,,,,96,0,2,,,1,,,79,64
31560,note_on,,,,,24,0,2,,,1,,,79,80
31560,note_on,,,,,24,0,1,,,0,,,82,80
31560,note_on,,,,,24,0,4,,,3,,,48,80
31656,note_off,,,,,96,0,1,,,0,,,82,64
31656,note_off,,,,,96,0,4,,,3,,,48,64
31656,note_off,,,,,96,0,2,,,1,,,79,64
31680,note_on,,,,,168,0,3,,,2,,,67,80
31680,note_on,,,,,0,0,3,,,2,,,70,80
31680,note_on,,,,,0,0,3,,,2,,,76,80
31680,note_on,,,,,24,0,2,,,1,,,79,80
31680,note_on,,,,,24,0,1,,,0,,,82,80
31680,note_on,,,,,24,0,4,,,3,,,48,80
31776,note_off,,,,,96,0,2,,,1,,,79,64
31776,note_off,,,,,96,0,1,,,0,,,82,64
31776,note_off,,,,,96,0,4,,,3,,,48,64
31800,note_on,,,,,24,0,4,,,3,,,60,80
31800,note_on,,,,,24,0,2,,,1,,,77,80
31800,note_on,,,,,24,0,1,,,0,,,81,80
31848,note_off,,,,,48,0,2,,,1,,,77,64
31848,note_off,,,,,48,0,1,,,0,,,81,64
31860,note_on,,,,,12,0,1,,,0,,,79,80
31860,note_on,,,,,12,0,2,,,1,,,76,80
31872,note_off,,,,,0,0,3,,,2,,,70,64
31872,note_off,,,,,0,0,3,,,2,,,67,64
31872,note_off,,,,,192,0,3,,,2,,,76,64
31896,note_off,,,,,96,0,4,,,3,,,60,64
31908,note_off,,,,,48,0,1,,,0,,,79,64
31908,note_off,,,,,48,0,2,,,1,,,76,64
31920,note_on,,,,,0,0,3,,,2,,,77,80
31920,note_on,,,,,0,0,3,,,2,,,69,80
31920,note_on,,,,,12,0,1,,,0,,,81,80
31920,note_on,,,,,48,0,3,,,2,,,72,80
31920,note_on,,,,,24,0,4,,,3,,,60,80
31920,note_on,,,,,12,0,2,,,1,,,77,80
32016,note_off,,,,,96,0,1,,,0,,,81,64
32016,note_off,,,,,96,0,2,,,1,,,77,64
32016,note_off,,,,,96,0,4,,,3,,,60,64
32040,note_on,,,,,24,0,4,,,3,,,48,80
32040,note_on,,,,,24,0,1,,,0,,,81,80
32040,note_on,,,,,24,0,2,,,1,,,77,80
32112,note_off,,,,,192,0,3,,,2,,,69,64
32112,note_off,,,,,0,0,3,,,2,,,77,64
32112,note_off,,,,,0,0,3,,,2,,,72,64
32136,note_off,,,,,96,0,1,,,0,,,81,64
32136,note_off,,,,,96,0,4,,,3,,,48,64
32136,note_off,,,,,96,0,2,,,1,,,77,64
32160,note_on,,,,,24,0,1,,,0,,,79,80
32160,note_on,,,,,24,0,2,,,1,,,76,80
32160,note_on,,,,,0,0,3,,,2,,,67,80
32160,note_on,,,,,0,0,3,,,2,,,76,80
32160,note_on,,,,,48,0,3,,,2,,,72,80
32160,note_on,,,,,24,0,4,,,3,,,48,80
32256,note_off,,,,,0,0,3,,,2,,,72,64
32256,note_off,,,,,0,0,3,,,2,,,76,64
32256,note_off,,,,,96,0,3,,,2,,,67,64
32256,note_off,,,,,96,0,4,,,3,,,48,64
32280,note_on,,,,,24,0,4,,,3,,,60,80
32280,note_on,,,,,24,0,3,,,2,,,72,80
32280,note_on,,,,,0,0,3,,,2,,,76,80
32352,note_off,,,,,192,0,1,,,0,,,79,64
32352,note_off,,,,,192,0,2,,,1,,,76,64
32376,note_off,,,,,96,0,4,,,3,,,60,64
32376,note_off,,,,,0,0,3,,,2,,,72,64
32376,note_off,,,,,96,0,3,,,2,,,76,64
32400,note_on,,,,,0,0,3,,,2,,,82,80
32400,note_on,,,,,24,0,4,,,3,,,60,80
32400,note_on,,,,,24,0,3,,,2,,,79,80
32496,note_off,,,,,96,0,4,,,3,,,60,64
32496,note_off,,,,,0,0,3,,,2,,,79,64
32496,note_off,,,,,96,0,3,,,2,,,82,64
32520,note_on,,,,,24,0,3,,,2,,,82,80
32520,note_on,,,,,0,0,3,,,2,,,79,80
32520,note_on,,,,,24,0,4,,,3,,,48,80
32616,note_off,,,,,0,0,3,,,2,,,82,64
32616,note_off,,,,,96,0,4,,,3,,,48,64
32616,note_off,,,,,96,0,3,,,2,,,79,64
32640,note_on,,,,,24,0,3,,,2,,,72,80
32640,note_on,,,,,0,0,3,,,2,,,82,80
32640,note_on,,,,,24,0,4,,,3,,,48,80
32640,note_on,,,,,0,0,3,,,2,,,79,80
32736,note_off,,,,,0,0,3,,,2,,,79,64
32736,note_off,,,,,96,0,4,,,3,,,48,64
32736,note_off,,,,,96,0,3,,,2,,,82,64
32736,note_off,,,,,0,0,3,,,2,,,72,64
32760,note_on,,,,,24,0,4,,,3,,,60,80
32760,note_on,,,,,24,0,3,,,2,,,81,80
32808,note_off,,,,,48,0,3,,,2,,,81,64
32820,note_on,,,,,12,0,3,,,2,,,79,80
32856,note_off,,,,,96,0,4,,,3,,,60,64
32868,note_off,,,,,48,0,3,,,2,,,79,64
32880,note_on,,,,,24,0,4,,,3,,,60,80
32880,note_on,,,,,12,0,3,,,2,,,77,80
32880,note_on,,,,,0,0,3,,,2,,,72,80
32880,note_on,,,,,0,0,3,,,2,,,81,80
32976,note_off,,,,,0,0,3,,,2,,,72,64
32976,note_off,,,,,0,0,3,,,2,,,77,64
32976,note_off,,,,,96,0,3,,,2,,,81,64
32976,note_off,,,,,96,0,4,,,3,,,60,64
33000,note_on,,,,,0,0,3,,,2,,,81,80
33000,note_on,,,,,0,0,3,,,2,,,72,80
33000,note_on,,,,,24,0,3,,,2,,,77,80
33000,note_on,,,,,24,0,4,,,3,,,48,80
33096,note_off,,,,,0,0,3,,,2,,,77,64
33096,note_off,,,,,96,0,3,,,2,,,72,64
33096,note_off,,,,,96,0,4,,,3,,,48,64
33096,note_off,,,,,0,0,3,,,2,,,81,64
33120,note_on,,,,,24,0,3,,,2,,,72,80
33120,note_on,,,,,0,0,3,,,2,,,79,80
33120,note_on,,,,,0,0,3,,,2,,,76,80
33120,note_on,,,,,24,0,4,,,3,,,48,80
33216,note_off,,,,,96,0,4,,,3,,,48,64
33240,note_on,,,,,888,0,1,,,0,,,72,80
33240,note_on,,,,,24,0,4,,,3,,,60,80
33240,note_on,,,,,888,0,2,,,1,,,76,80
33312,note_off,,,,,0,0,3,,,2,,,72,64
33312,note_off,,,,,0,0,3,,,2,,,79,64
33312,note_off,,,,,192,0,3,,,2,,,76,64
33336,note_off,,,,,96,0,1,,,0,,,72,64
33336,note_off,,,,,96,0,4,,,3,,,60,64
33336,note_off,,,,,96,0,2,,,1,,,76,64
33360,note_on,,,,,24,0,2,,,1,,,79,80
33360,note_on,,,,,24,0,4,,,3,,,60,80
33360,note_on,,,,,24,0,1,,,0,,,82,80
33456,note_off,,,,,96,0,1,,,0,,,82,64
33456,note_off,,,,,96,0,2,,,1,,,79,64
33456,note_off,,,,,96,0,4,,,3,,,60,64
33480,note_on,,,,,24,0,1,,,0,,,82,80
33480,note_on,,,,,24,0,2,,,1,,,79,80
33480,note_on,,,,,24,0,4,,,3,,,49,80
33576,note_off,,,,,96,0,1,,,0,,,82,64
33576,note_off,,,,,96,0,2,,,1,,,79,64
33576,note_off,,,,,96,0,4,,,3,,,49,64
33600,note_on,,,,,24,0,4,,,3,,,49,80
33600,note_on,,,,,24,0,2,,,1,,,76,80
33600,note_on,,,,,24,0,1,,,0,,,81,80
33696,note_off,,,,,96,0,4,,,3,,,49,64
33696,note_off,,,,,96,0,2,,,1,,,76,64
33696,note_off,,,,,96,0,1,,,0,,,81,64
33720,note_on,,,,,24,0,4,,,3,,,61,80
33720,note_on,,,,,24,0,2,,,1,,,76,80
33720,note_on,,,,,24,0,1,,,0,,,79,80
33768,note_off,,,,,48,0,1,,,0,,,79,64
33780,note_on,,,,,12,0,1,,,0,,,77,80
33816,note_off,,,,,96,0,4,,,3,,,61,64
33828,note_off,,,,,48,0,1,,,0,,,77,64
33840,note_on,,,,,24,0,4,,,3,,,61,80
33840,note_on,,,,,12,0,1,,,0,,,79,80
33912,note_off,,,,,192,0,2,,,1,,,76,64
33936,note_off,,,,,96,0,4,,,3,,,61,64
33936,note_off,,,,,96,0,1,,,0,,,79,64
33960,note_on,,,,,24,0,1,,,0,,,76,80
33960,note_on,,,,,24,0,4,,,3,,,49,80
33960,note_on,,,,,48,0,2,,,1,,,73,80
34056,note_off,,,,,96,0,4,,,3,,,49,64
34056,note_off,,,,,96,0,2,,,1,,,73,64
34056,note_off,,,,,96,0,1,,,0,,,76,64
34080,note_on,,,,,24,0,4,,,3,,,50,80
34080,note_on,,,,,24,0,1,,,0,,,77,80
34080,note_on,,,,,24,0,2,,,1,,,69,80
34176,note_off,,,,,96,0,1,,,0,,,77,64
34176,note_off,,,,,96,0,2,,,1,,,69,64
34176,note_off,,,,,96,0,4,,,3,,,50,64
34200,note_on,,,,,24,0,4,,,3,,,62,80
34200,note_on,,,,,24,0,1,,,0,,,74,80
34200,note_on,,,,,24,0,2,,,1,,,74,80
34296,note_off,,,,,96,0,2,,,1,,,74,64
34296,note_off,,,,,96,0,4,,,3,,,62,64
34296,note_off,,,,,96,0,1,,,0,,,74,64
34320,note_on,,,,,24,0,4,,,3,,,62,80
34320,note_on,,,,,24,0,1,,,0,,,78,80
34320,note_on,,,,,24,0,2,,,1,,,72,80
34368,note_off,,,,,48,0,1,,,0,,,78,64
34380,note_on,,,,,12,0,1,,,0,,,81,80
34416,note_off,,,,,96,0,4,,,3,,,62,64
34428,note_off,,,,,48,0,1,,,0,,,81,64
34440,note_on,,,,,12,0,1,,,0,,,79,80
34440,note_on,,,,,24,0,4,,,3,,,50,80
34488,note_off,,,,,48,0,1,,,0,,,79,64
34500,note_on,,,,,12,0,1,,,0,,,78,80
34512,note_off,,,,,192,0,2,,,1,,,72,64
34536,note_off,,,,,96,0,4,,,3,,,50,64
34548,note_off,,,,,48,0,1,,,0,,,78,64
34560,note_on,,,,,24,0,4,,,3,,,43,80
34560,note_on,,,,,12,0,1,,,0,,,79,80
34560,note_on,,,,,48,0,2,,,1,,,70,80
34608,note_off,,,,,48,0,1,,,0,,,79,64
34620,note_on,,,,,12,0,1,,,0,,,82,80
34656,note_off,,,,,96,0,2,,,1,,,70,64
34656,note_off,,,,,96,0,4,,,3,,,43,64
34668,note_off,,,,,48,0,1,,,0,,,82,64
34680,note_on,,,,,24,0,2,,,1,,,79,80
34680,note_on,,,,,12,0,1,,,0,,,81,80
34680,note_on,,,,,24,0,4,,,3,,,55,80
34728,note_off,,,,,48,0,1,,,0,,,81,64
34740,note_on,,,,,12,0,1,,,0,,,79,80
34776,note_off,,,,,96,0,4,,,3,,,55,64
34788,note_off,,,,,48,0,1,,,0,,,79,64
34800,note_on,,,,,24,0,4,,,3,,,62,80
34800,note_on,,,,,12,0,1,,,0,,,81,80
34848,note_off,,,,,48,0,1,,,0,,,81,64
34860,note_on,,,,,12,0,1,,,0,,,84,80
34872,note_off,,,,,192,0,2,,,1,,,79,64
34896,note_off,,,,,96,0,4,,,3,,,62,64
34908,note_off,,,,,48,0,1,,,0,,,84,64
34920,note_on,,,,,12,0,1,,,0,,,82,80
34920,note_on,,,,,24,0,4,,,3,,,50,80
34920,note_on,,,,,48,0,2,,,1,,,78,80
34968,note_off,,,,,48,0,1,,,0,,,82,64
34980,note_on,,,,,12,0,1,,,0,,,81,80
35016,note_off,,,,,96,0,4,,,3,,,50,64
35016,note_off,,,,,96,0,2,,,1,,,78,64
35028,note_off,,,,,48,0,1,,,0,,,81,64
35040,note_on,,,,,24,0,2,,,1,,,79,80
35040,note_on,,,,,24,0,4,,,3,,,55,80
35040,note_on,,,,,12,0,1,,,0,,,82,80
35136,note_off,,,,,96,0,2,,,1,,,79,64
35136,note_off,,,,,96,0,4,,,3,,,55,64
35136,note_off,,,,,96,0,1,,,0,,,82,64
35160,note_on,,,,,24,0,2,,,1,,,72,80
35160,note_on,,,,,24,0,4,,,3,,,57,80
35160,note_on,,,,,24,0,1,,,0,,,81,80
35256,note_off,,,,,96,0,4,,,3,,,57,64
35256,note_off,,,,,96,0,1,,,0,,,81,64
35256,note_off,,,,,96,0,2,,,1,,,72,64
35280,note_on,,,,,24,0,1,,,0,,,79,80
35280,note_on,,,,,24,0,4,,,3,,,58,80
35280,note_on,,,,,24,0,2,,,1,,,74,80
35376,note_off,,,,,96,0,4,,,3,,,58,64
35400,note_on,,,,,24,0,4,,,3,,,55,80
35472,note_off,,,,,192,0,2,,,1,,,74,64
35496,note_off,,,,,96,0,4,,,3,,,55,64
35520,note_on,,,,,24,0,4,,,3,,,48,80
35520,note_on,,,,,48,0,2,,,1,,,75,80
35616,note_off,,,,,96,0,4,,,3,,,48,64
35640,note_on,,,,,24,0,4,,,3,,,60,80
35640,note_on,,,,,360,0,1,,,0,,,77,80
35664,note_off,,,,,24,0,1,,,0,,,79,64
35688,note_off,,,,,24,0,1,,,0,,,77,64
35700,note_on,,,,,12,0,1,,,0,,,75,80
35712,note_off,,,,,192,0,2,,,1,,,75,64
35736,note_off,,,,,96,0,4,,,3,,,60,64
35748,note_off,,,,,48,0,1,,,0,,,75,64
35760,note_on,,,,,24,0,4,,,3,,,54,80
35760,note_on,,,,,12,0,1,,,0,,,74,80
35760,note_on,,,,,48,0,2,,,1,,,69,80
35856,note_off,,,,,96,0,1,,,0,,,74,64
35856,note_off,,,,,96,0,2,,,1,,,69,64
35856,note_off,,,,,96,0,4,,,3,,,54,64
35880,note_on,,,,,24,0,4,,,3,,,50,80
35880,note_on,,,,,24,0,1,,,0,,,81,80
35880,note_on,,,,,24,0,2,,,1,,,78,80
35976,note_off,,,,,96,0,1,,,0,,,81,64
35976,note_off,,,,,96,0,4,,,3,,,50,64
35976,note_off,,,,,96,0,2,,,1,,,78,64
36000,note_on,,,,,24,0,2,,,1,,,79,80
36000,note_on,,,,,24,0,4,,,3,,,55,80
36000,note_on,,,,,24,0,1,,,0,,,82,80
36096,note_off,,,,,96,0,2,,,1,,,79,64
36096,note_off,,,,,96,0,4,,,3,,,55,64
36096,note_off,,,,,96,0,1,,,0,,,82,64
36120,note_on,,,,,24,0,4,,,3,,,57,80
36120,note_on,,,,,24,0,1,,,0,,,81,80
36120,note_on,,,,,24,0,2,,,1,,,72,80
36216,note_off,,,,,96,0,4,,,3,,,57,64
36216,note_off,,,,,96,0,2,,,1,,,72,64
36216,note_off,,,,,96,0,1,,,0,,,81,64
36240,note_on,,,,,24,0,1,,,0,,,79,80
36240,note_on,,,,,24,0,4,,,3,,,58,80
36240,note_on,,,,,24,0,2,,,1,,,74,80
36336,note_off,,,,,96,0,4,,,3,,,58,64
36360,note_on,,,,,24,0,4,,,3,,,55,80
36432,note_off,,,,,192,0,2,,,1,,,74,64
36456,note_off,,,,,96,0,4,,,3,,,55,64
36480,note_on,,,,,24,0,4,,,3,,,48,80
36480,note_on,,,,,48,0,2,,,1,,,75,80
36576,note_off,,,,,96,0,4,,,3,,,48,64
36600,note_on,,,,,24,0,4,,,3,,,60,80
36600,note_on,,,,,360,0,1,,,0,,,77,80
36624,note_off,,,,,24,0,1,,,0,,,79,64
36648,note_off,,,,,24,0,1,,,0,,,77,64
36660,note_on,,,,,12,0,1,,,0,,,75,80
36672,note_off,,,,,192,0,2,,,1,,,75,64
36696,note_off,,,,,96,0,4,,,3,,,60,64
36708,note_off,,,,,48,0,1,,,0,,,75,64
36720,note_on,,,,,48,0,2,,,1,,,69,80
36720,note_on,,,,,12,0,1,,,0,,,74,80
36720,note_on,,,,,24,0,4,,,3,,,54,80
36816,note_off,,,,,96,0,1,,,0,,,74,64
36816,note_off,,,,,96,0,4,,,3,,,54,64
36816,note_off,,,,,96,0,2,,,1,,,69,64
36840,note_on,,,,,24,0,1,,,0,,,72,80
36840,note_on,,,,,24,0,2,,,1,,,78,80
36840,note_on,,,,,24,0,4,,,3,,,50,80
36936,note_off,,,,,96,0,2,,,1,,,78,64
36936,note_off,,,,,96,0,1,,,0,,,72,64
36936,note_off,,,,,96,0,4,,,3,,,50,64
36960,note_on,,,,,24,0,2,,,1,,,79,80
36960,note_on,,,,,24,0,4,,,3,,,55,80
36960,note_on,,,,,24,0,1,,,0,,,70,80
37056,note_off,,,,,96,0,1,,,0,,,70,64
37056,note_off,,,,,96,0,4,,,3,,,55,64
37056,note_off,,,,,96,0,2,,,1,,,79,64
37080,note_on,,,,,24,0,2,,,1,,,67,80
37080,note_on,,,,,24,0,4,,,3,,,43,80
37080,note_on,,,,,24,0,1,,,0,,,79,80
37176,note_off,,,,,96,0,2,,,1,,,67,64
37176,note_off,,,,,96,0,4,,,3,,,43,64
37176,note_off,,,,,96,0,1,,,0,,,79,64
37200,note_on,,,,,24,0,4,,,3,,,50,80
37200,note_on,,,,,24,0,2,,,1,,,66,80
37200,note_on,,,,,24,0,1,,,0,,,69,80
37296,note_off,,,,,96,0,4,,,3,,,50,64
37320,note_on,,,,,24,0,4,,,3,,,38,80
37392,note_off,,,,,192,0,1,,,0,,,69,64
37392,note_off,,,,,192,0,2,,,1,,,66,64
37416,note_off,,,,,96,0,4,,,3,,,38,64
37440,note_on,,,,,48,0,2,,,1,,,67,80
37440,note_on,,,,,24,0,4,,,3,,,43,80
37440,note_on,,,,,48,0,1,,,0,,,67,80
37440,note_on,,,,,4128,0,3,,,2,,,79,80
37440,note_on,,,,,0,0,3,,,2,,,70,80
37536,note_off,,,,,96,0,4,,,3,,,43,64
37536,note_off,,,,,96,0,3,,,2,,,70,64
37536,note_off,,,,,0,0,3,,,2,,,79,64
37560,note_on,,,,,24,0,4,,,3,,,45,80
37560,note_on,,,,,24,0,3,,,2,,,69,80
37560,note_on,,,,,0,0,3,,,2,,,78,80
37608,note_off,,,,,48,0,3,,,2,,,78,64
37608,note_off,,,,,0,0,3,,,2,,,69,64
37620,note_on,,,,,12,0,3,,,2,,,79,80
37620,note_on,,,,,0,0,3,,,2,,,69,80
37632,note_off,,,,,192,0,1,,,0,,,67,64
37632,note_off,,,,,192,0,2,,,1,,,67,64
37656,note_off,,,,,96,0,4,,,3,,,45,64
37668,note_off,,,,,48,0,3,,,2,,,69,64
37668,note_off,,,,,0,0,3,,,2,,,79,64
37680,note_on,,,,,0,0,3,,,2,,,74,80
37680,note_on,,,,,12,0,3,,,2,,,67,80
37680,note_on,,,,,24,0,4,,,3,,,46,80
37776,note_off,,,,,96,0,4,,,3,,,46,64
37776,note_off,,,,,96,0,3,,,2,,,74,64
37776,note_off,,,,,0,0,3,,,2,,,67,64
37800,note_on,,,,,24,0,4,,,3,,,43,80
37800,note_on,,,,,24,0,3,,,2,,,79,80
37800,note_on,,,,,0,0,3,,,2,,,74,80
37800,note_on,,,,,0,0,3,,,2,,,82,80
37896,note_off,,,,,96,0,3,,,2,,,82,64
37896,note_off,,,,,0,0,3,,,2,,,79,64
37896,note_off,,,,,0,0,3,,,2,,,74,64
37896,note_off,,,,,96,0,4,,,3,,,43,64
37920,note_on,,,,,0,0,3,,,2,,,79,80
37920,note_on,,,,,24,0,4,,,3,,,50,80
37920,note_on,,,,,24,0,3,,,2,,,82,80
37920,note_on,,,,,0,0,3,,,2,,,74,80
38016,note_off,,,,,96,0,4,,,3,,,50,64
38040,note_on,,,,,24,0,4,,,3,,,48,80
38112,note_off,,,,,0,0,3,,,2,,,82,64
38112,note_off,,,,,0,0,3,,,2,,,79,64
38112,note_off,,,,,192,0,3,,,2,,,74,64
38136,note_off,,,,,96,0,4,,,3,,,48,64
38160,note_on,,,,,0,0,3,,,2,,,78,80
38160,note_on,,,,,24,0,4,,,3,,,50,80
38160,note_on,,,,,48,0,3,,,2,,,81,80
38160,note_on,,,,,0,0,3,,,2,,,74,80
38256,note_off,,,,,96,0,4,,,3,,,50,64
38256,note_off,,,,,0,0,3,,,2,,,81,64
38256,note_off,,,,,0,0,3,,,2,,,74,64
38256,note_off,,,,,96,0,3,,,2,,,78,64
38280,note_on,,,,,0,0,3,,,2,,,69,80
38280,note_on,,,,,24,0,3,,,2,,,78,80
38280,note_on,,,,,24,0,4,,,3,,,38,80
38280,note_on,,,,,0,0,3,,,2,,,74,80
38376,note_off,,,,,96,0,3,,,2,,,74,64
38376,note_off,,,,,0,0,3,,,2,,,69,64
38376,note_off,,,,,0,0,3,,,2,,,78,64
38376,note_off,,,,,96,0,4,,,3,,,38,64
38400,note_on,,,,,24,0,3,,,2,,,70,80
38400,note_on,,,,,0,0,3,,,2,,,79,80
38400,note_on,,,,,24,0,4,,,3,,,43,80
38496,note_off,,,,,96,0,3,,,2,,,79,64
38496,note_off,,,,,0,0,3,,,2,,,70,64
38496,note_off,,,,,96,0,4,,,3,,,43,64
38520,note_on,,,,,24,0,4,,,3,,,45,80
38520,note_on,,,,,24,0,3,,,2,,,69,80
38520,note_on,,,,,0,0,3,,,2,,,78,80
38568,note_off,,,,,0,0,3,,,2,,,69,64
38568,note_off,,,,,48,0,3,,,2,,,78,64
38580,note_on,,,,,12,0,3,,,2,,,79,80
38580,note_on,,,,,0,0,3,,,2,,,69,80
38616,note_off,,,,,96,0,4,,,3,,,45,64
38628,note_off,,,,,48,0,3,,,2,,,69,64
38628,note_off,,,,,0,0,3,,,2,,,79,64
38640,note_on,,,,,12,0,3,,,2,,,67,80
38640,note_on,,,,,0,0,3,,,2,,,74,80
38640,note_on,,,,,24,0,4,,,3,,,46,80
38736,note_off,,,,,96,0,3,,,2,,,74,64
38736,note_off,,,,,0,0,3,,,2,,,67,64
38736,note_off,,,,,96,0,4,,,3,,,46,64
38760,note_on,,,,,24,0,4,,,3,,,43,80
38760,note_on,,,,,24,0,3,,,2,,,79,80
38760,note_on,,,,,0,0,3,,,2,,,82,80
38760,note_on,,,,,0,0,3,,,2,,,74,80
38856,note_off,,,,,0,0,3,,,2,,,82,64
38856,note_off,,,,,0,0,3,,,2,,,79,64
38856,note_off,,,,,96,0,4,,,3,,,43,64
38856,note_off,,,,,96,0,3,,,2,,,74,64
38880,note_on,,,,,24,0,4,,,3,,,50,80
38880,note_on,,,,,0,0,3,,,2,,,79,80
38880,note_on,,,,,0,0,3,,,2,,,82,80
38880,note_on,,,,,24,0,3,,,2,,,74,80
38976,note_off,,,,,96,0,4,,,3,,,50,64
39000,note_on,,,,,24,0,4,,,3,,,48,80
39072,note_off,,,,,0,0,3,,,2,,,74,64
39072,note_off,,,,,0,0,3,,,2,,,82,64
39072,note_off,,,,,192,0,3,,,2,,,79,64
39096,note_off,,,,,96,0,4,,,3,,,48,64
39120,note_on,,,,,0,0,3,,,2,,,81,80
39120,note_on,,,,,24,0,4,,,3,,,50,80
39120,note_on,,,,,48,0,3,,,2,,,74,80
39120,note_on,,,,,0,0,3,,,2,,,78,80
39216,note_off,,,,,96,0,4,,,3,,,50,64
39216,note_off,,,,,0,0,3,,,2,,,81,64
39216,note_off,,,,,0,0,3,,,2,,,74,64
39216,note_off,,,,,96,0,3,,,2,,,78,64
39240,note_on,,,,,0,0,3,,,2,,,81,80
39240,note_on,,,,,0,0,3,,,2,,,78,80
39240,note_on,,,,,24,0,3,,,2,,,74,80
39240,note_on,,,,,24,0,4,,,3,,,38,80
39336,note_off,,,,,0,0,3,,,2,,,78,64
39336,note_off,,,,,0,0,3,,,2,,,74,64
39336,note_off,,,,,96,0,4,,,3,,,38,64
39336,note_off,,,,,96,0,3,,,2,,,81,64
39360,note_on,,,,,24,0,4,,,3,,,43,80
39360,note_on,,,,,24,0,3,,,2,,,79,80
39360,note_on,,,,,0,0,3,,,2,,,70,80
39456,note_off,,,,,0,0,3,,,2,,,79,64
39456,note_off,,,,,96,0,4,,,3,,,43,64
39456,note_off,,,,,96,0,3,,,2,,,70,64
39480,note_on,,,,,24,0,3,,,2,,,72,80
39480,note_on,,,,,24,0,4,,,3,,,45,80
39480,note_on,,,,,0,0,3,,,2,,,69,80
39480,note_on,,,,,0,0,3,,,2,,,79,80
39576,note_off,,,,,0,0,3,,,2,,,69,64
39576,note_off,,,,,0,0,3,,,2,,,72,64
39576,note_off,,,,,96,0,4,,,3,,,45,64
39576,note_off,,,,,96,0,3,,,2,,,79,64
39600,note_on,,,,,0,0,3,,,2,,,74,80
39600,note_on,,,,,24,0,3,,,2,,,67,80
39600,note_on,,,,,0,0,3,,,2,,,79,80
39600,note_on,,,,,24,0,4,,,3,,,46,80
39696,note_off,,,,,96,0,4,,,3,,,46,64
39696,note_off,,,,,96,0,3,,,2,,,79,64
39696,note_off,,,,,0,0,3,,,2,,,74,64
39696,note_off,,,,,0,0,3,,,2,,,67,64
39720,note_on,,,,,24,0,4,,,3,,,48,80
39720,note_on,,,,,24,0,3,,,2,,,75,80
39720,note_on,,,,,0,0,3,,,2,,,67,80
39720,note_on,,,,,0,0,3,,,2,,,79,80
39720,note_on,,,,,0,0,3,,,2,,,70,80
39816,note_off,,,,,96,0,4,,,3,,,48,64
39816,note_off,,,,,0,0,3,,,2,,,75,64
39816,note_off,,,,,0,0,3,,,2,,,67,64
39816,note_off,,,,,0,0,3,,,2,,,79,64
39816,note_off,,,,,96,0,3,,,2,,,70,64
39840,note_on,,,,,0,0,3,,,2,,,62,80
39840,note_on,,,,,0,0,3,,,2,,,67,80
39840,note_on,,,,,24,0,3,,,2,,,70,80
39840,note_on,,,,,24,0,4,,,3,,,50,80
39936,note_off,,,,,96,0,4,,,3,,,50,64
39960,note_on,,,,,24,0,4,,,3,,,48,80
40032,note_off,,,,,0,0,3,,,2,,,70,64
40032,note_off,,,,,0,0,3,,,2,,,67,64
40032,note_off,,,,,192,0,3,,,2,,,62,64
40056,note_off,,,,,96,0,4,,,3,,,48,64
40080,note_on,,,,,24,0,4,,,3,,,50,80
40080,note_on,,,,,48,0,3,,,2,,,69,80
40080,note_on,,,,,0,0,3,,,2,,,66,80
40080,note_on,,,,,0,0,3,,,2,,,62,80
40176,note_off,,,,,96,0,4,,,3,,,50,64
40200,note_on,,,,,24,0,4,,,3,,,38,80
40272,note_off,,,,,192,0,3,,,2,,,66,64
40272,note_off,,,,,0,0,3,,,2,,,62,64
40272,note_off,,,,,0,0,3,,,2,,,69,64
40296,note_off,,,,,96,0,4,,,3,,,38,64
40320,note_on,,,,,2688,0,2,,,1,,,81,80
40320,note_on,,,,,2688,0,1,,,0,,,74,80
40320,note_on,,,,,0,0,3,,,2,,,69,80
40320,note_on,,,,,48,0,3,,,2,,,62,80
40320,note_on,,,,,24,0,4,,,3,,,54,80
40320,note_on,,,,,0,0,3,,,2,,,74,80
40368,note_off,,,,,48,0,4,,,3,,,54,64
40368,note_off,,,,,48,0,1,,,0,,,74,64
40380,note_on,,,,,12,0,4,,,3,,,54,80
40380,note_on,,,,,12,0,1,,,0,,,72,80
40416,note_off,,,,,96,0,2,,,1,,,81,64
40428,note_off,,,,,48,0,4,,,3,,,54,64
40428,note_off,,,,,48,0,1,,,0,,,72,64
40440,note_on,,,,,12,0,4,,,3,,,54,80
40440,note_on,,,,,24,0,2,,,1,,,81,80
40440,note_on,,,,,12,0,1,,,0,,,74,80
40488,note_off,,,,,48,0,1,,,0,,,74,64
40488,note_off,,,,,48,0,4,,,3,,,54,64
40500,note_on,,,,,12,0,1,,,0,,,75,80
40500,note_on,,,,,12,0,4,,,3,,,54,80
40548,note_off,,,,,48,0,1,,,0,,,75,64
40548,note_off,,,,,48,0,4,,,3,,,54,64
40560,note_on,,,,,12,0,4,,,3,,,54,80
40560,note_on,,,,,12,0,1,,,0,,,74,80
40608,note_off,,,,,48,0,4,,,3,,,54,64
40608,note_off,,,,,48,0,1,,,0,,,74,64
40620,note_on,,,,,12,0,4,,,3,,,54,80
40620,note_on,,,,,12,0,1,,,0,,,72,80
40632,note_off,,,,,192,0,2,,,1,,,81,64
40668,note_off,,,,,48,0,1,,,0,,,72,64
40668,note_off,,,,,48,0,4,,,3,,,54,64
40680,note_on,,,,,48,0,2,,,1,,,78,80
40680,note_on,,,,,12,0,1,,,0,,,70,80
40680,note_on,,,,,12,0,4,,,3,,,54,80
40704,note_off,,,,,0,0,3,,,2,,,62,64
40704,note_off,,,,,0,0,3,,,2,,,69,64
40704,note_off,,,,,384,0,3,,,2,,,74,64
40728,note_off,,,,,48,0,1,,,0,,,70,64
40728,note_off,,,,,48,0,4,,,3,,,54,64
40740,note_on,,,,,12,0,1,,,0,,,69,80
40740,note_on,,,,,12,0,4,,,3,,,54,80
40776,note_off,,,,,96,0,2,,,1,,,78,64
40788,note_off,,,,,48,0,1,,,0,,,69,64
40788,note_off,,,,,48,0,4,,,3,,,54,64
40800,note_on,,,,,0,0,3,,,2,,,74,80
40800,note_on,,,,,0,0,3,,,2,,,79,80
40800,note_on,,,,,12,0,1,,,0,,,70,80
40800,note_on,,,,,96,0,3,,,2,,,70,80
40800,note_on,,,,,12,0,4,,,3,,,55,80
40800,note_on,,,,,24,0,2,,,1,,,74,80
40848,note_off,,,,,48,0,3,,,2,,,79,64
40848,note_off,,,,,0,0,3,,,2,,,70,64
40848,note_off,,,,,0,0,3,,,2,,,74,64
40848,note_off,,,,,48,0,4,,,3,,,55,64
40860,note_on,,,,,12,0,4,,,3,,,55,80
40860,note_on,,,,,0,0,3,,,2,,,77,80
40860,note_on,,,,,12,0,3,,,2,,,74,80
40860,note_on,,,,,0,0,3,,,2,,,70,80
40896,note_off,,,,,96,0,2,,,1,,,74,64
40896,note_off,,,,,96,0,1,,,0,,,70,64
40908,note_off,,,,,48,0,3,,,2,,,70,64
40908,note_off,,,,,0,0,3,,,2,,,77,64
40908,note_off,,,,,48,0,4,,,3,,,55,64
40908,note_off,,,,,0,0,3,,,2,,,74,64
40920,note_on,,,,,12,0,3,,,2,,,79,80
40920,note_on,,,,,0,0,3,,,2,,,74,80
40920,note_on,,,,,0,0,3,,,2,,,70,80
40920,note_on,,,,,24,0,1,,,0,,,70,80
40920,note_on,,,,,12,0,4,,,3,,,55,80
40920,note_on,,,,,24,0,2,,,1,,,74,80
40968,note_off,,,,,48,0,4,,,3,,,55,64
40968,note_off,,,,,48,0,3,,,2,,,70,64
40968,note_off,,,,,0,0,3,,,2,,,74,64
40968,note_off,,,,,0,0,3,,,2,,,79,64
40980,note_on,,,,,12,0,4,,,3,,,55,80
40980,note_on,,,,,0,0,3,,,2,,,81,80
40980,note_on,,,,,0,0,3,,,2,,,74,80
40980,note_on,,,,,12,0,3,,,2,,,70,80
41028,note_off,,,,,0,0,3,,,2,,,70,64
41028,note_off,,,,,48,0,4,,,3,,,55,64
41028,note_off,,,,,0,0,3,,,2,,,74,64
41028,note_off,,,,,48,0,3,,,2,,,81,64
41040,note_on,,,,,0,0,3,,,2,,,70,80
41040,note_on,,,,,12,0,3,,,2,,,74,80
41040,note_on,,,,,0,0,3,,,2,,,79,80
41040,note_on,,,,,12,0,4,,,3,,,55,80
41088,note_off,,,,,48,0,3,,,2,,,70,64
41088,note_off,,,,,48,0,4,,,3,,,55,64
41088,note_off,,,,,0,0,3,,,2,,,74,64
41088,note_off,,,,,0,0,3,,,2,,,79,64
41100,note_on,,,,,0,0,3,,,2,,,77,80
41100,note_on,,,,,12,0,4,,,3,,,55,80
41100,note_on,,,,,12,0,3,,,2,,,70,80
41100,note_on,,,,,0,0,3,,,2,,,74,80
41112,note_off,,,,,192,0,1,,,0,,,70,64
41112,note_off,,,,,192,0,2,,,1,,,74,64
41148,note_off,,,,,48,0,4,,,3,,,55,64
41148,note_off,,,,,48,0,3,,,2,,,74,64
41148,note_off,,,,,0,0,3,,,2,,,77,64
41148,note_off,,,,,0,0,3,,,2,,,70,64
41160,note_on,,,,,12,0,4,,,3,,,55,80
41160,note_on,,,,,12,0,3,,,2,,,75,80
41160,note_on,,,,,0,0,3,,,2,,,70,80
41160,note_on,,,,,48,0,1,,,0,,,70,80
41160,note_on,,,,,48,0,2,,,1,,,74,80
41208,note_off,,,,,48,0,3,,,2,,,70,64
41208,note_off,,,,,0,0,3,,,2,,,75,64
41208,note_off,,,,,48,0,4,,,3,,,55,64
41220,note_on,,,,,12,0,3,,,2,,,70,80
41220,note_on,,,,,0,0,3,,,2,,,74,80
41220,note_on,,,,,12,0,4,,,3,,,55,80
41256,note_off,,,,,96,0,1,,,0,,,70,64
41256,note_off,,,,,96,0,2,,,1,,,74,64
41268,note_off,,,,,48,0,4,,,3,,,55,64
41268,note_off,,,,,0,0,3,,,2,,,70,64
41268,note_off,,,,,48,0,3,,,2,,,74,64
41280,note_on,,,,,12,0,3,,,2,,,67,80
41280,note_on,,,,,24,0,2,,,1,,,79,80
41280,note_on,,,,,12,0,4,,,3,,,48,80
41280,note_on,,,,,24,0,1,,,0,,,72,80
41280,note_on,,,,,0,0,3,,,2,,,72,80
41280,note_on,,,,,0,0,3,,,2,,,75,80
41328,note_off,,,,,48,0,1,,,0,,,72,64
41328,note_off,,,,,48,0,4,,,3,,,48,64
41340,note_on,,,,,12,0,1,,,0,,,70,80
41340,note_on,,,,,12,0,4,,,3,,,48,80
41376,note_off,,,,,96,0,2,,,1,,,79,64
41376,note_off,,,,,0,0,3,,,2,,,75,64
41376,note_off,,,,,96,0,3,,,2,,,72,64
41376,note_off,,,,,0,0,3,,,2,,,67,64
41388,note_off,,,,,48,0,4,,,3,,,48,64
41388,note_off,,,,,48,0,1,,,0,,,70,64
41400,note_on,,,,,12,0,1,,,0,,,72,80
41400,note_on,,,,,12,0,4,,,3,,,48,80
41400,note_on,,,,,24,0,3,,,2,,,67,80
41400,note_on,,,,,24,0,2,,,1,,,79,80
41400,note_on,,,,,0,0,3,,,2,,,75,80
41400,note_on,,,,,0,0,3,,,2,,,72,80
41448,note_off,,,,,48,0,1,,,0,,,72,64
41448,note_off,,,,,48,0,4,,,3,,,48,64
41460,note_on,,,,,12,0,1,,,0,,,74,80
41460,note_on,,,,,12,0,4,,,3,,,48,80
41508,note_off,,,,,48,0,1,,,0,,,74,64
41508,note_off,,,,,48,0,4,,,3,,,48,64
41520,note_on,,,,,12,0,1,,,0,,,72,80
41520,note_on,,,,,12,0,4,,,3,,,48,80
41568,note_off,,,,,48,0,1,,,0,,,72,64
41568,note_off,,,,,48,0,4,,,3,,,48,64
41580,note_on,,,,,12,0,4,,,3,,,48,80
41580,note_on,,,,,12,0,1,,,0,,,70,80
41592,note_off,,,,,192,0,2,,,1,,,79,64
41592,note_off,,,,,0,0,3,,,2,,,67,64
41592,note_off,,,,,0,0,3,,,2,,,75,64
41592,note_off,,,,,192,0,3,,,2,,,72,64
41628,note_off,,,,,48,0,1,,,0,,,70,64
41628,note_off,,,,,48,0,4,,,3,,,48,64
41640,note_on,,,,,12,0,1,,,0,,,69,80
41640,note_on,,,,,48,0,2,,,1,,,75,80
41640,note_on,,,,,0,0,3,,,2,,,67,80
41640,note_on,,,,,0,0,3,,,2,,,75,80
41640,note_on,,,,,12,0,4,,,3,,,48,80
41640,note_on,,,,,48,0,3,,,2,,,72,80
41688,note_off,,,,,48,0,4,,,3,,,48,64
41688,note_off,,,,,48,0,1,,,0,,,69,64
41700,note_on,,,,,12,0,1,,,0,,,67,80
41700,note_on,,,,,12,0,4,,,3,,,48,80
41736,note_off,,,,,0,0,3,,,2,,,67,64
41736,note_off,,,,,0,0,3,,,2,,,72,64
41736,note_off,,,,,96,0,2,,,1,,,75,64
41736,note_off,,,,,96,0,3,,,2,,,75,64
41748,note_off,,,,,48,0,4,,,3,,,48,64
41748,note_off,,,,,48,0,1,,,0,,,67,64
41760,note_on,,,,,12,0,1,,,0,,,69,80
41760,note_on,,,,,0,0,3,,,2,,,77,80
41760,note_on,,,,,24,0,3,,,2,,,72,80
41760,note_on,,,,,0,0,3,,,2,,,69,80
41760,note_on,,,,,12,0,4,,,3,,,53,80
41760,note_on,,,,,24,0,2,,,1,,,72,80
41808,note_off,,,,,0,0,3,,,2,,,72,64
41808,note_off,,,,,48,0,4,,,3,,,53,64
41808,note_off,,,,,0,0,3,,,2,,,69,64
41808,note_off,,,,,48,0,3,,,2,,,77,64
41820,note_on,,,,,0,0,3,,,2,,,72,80
41820,note_on,,,,,12,0,3,,,2,,,75,80
41820,note_on,,,,,0,0,3,,,2,,,69,80
41820,note_on,,,,,12,0,4,,,3,,,53,80
41856,note_off,,,,,96,0,2,,,1,,,72,64
41856,note_off,,,,,96,0,1,,,0,,,69,64
41868,note_off,,,,,0,0,3,,,2,,,75,64
41868,note_off,,,,,0,0,3,,,2,,,69,64
41868,note_off,,,,,48,0,3,,,2,,,72,64
41868,note_off,,,,,48,0,4,,,3,,,53,64
41880,note_on,,,,,12,0,3,,,2,,,72,80
41880,note_on,,,,,24,0,1,,,0,,,69,80
41880,note_on,,,,,12,0,4,,,3,,,53,80
41880,note_on,,,,,0,0,3,,,2,,,77,80
41880,note_on,,,,,0,0,3,,,2,,,69,80
41880,note_on,,,,,24,0,2,,,1,,,72,80
41928,note_off,,,,,48,0,3,,,2,,,77,64
41928,note_off,,,,,0,0,3,,,2,,,69,64
41928,note_off,,,,,48,0,4,,,3,,,53,64
41928,note_off,,,,,0,0,3,,,2,,,72,64
41940,note_on,,,,,12,0,3,,,2,,,79,80
41940,note_on,,,,,0,0,3,,,2,,,72,80
41940,note_on,,,,,0,0,3,,,2,,,69,80
41940,note_on,,,,,12,0,4,,,3,,,53,80
41988,note_off,,,,,48,0,3,,,2,,,72,64
41988,note_off,,,,,0,0,3,,,2,,,69,64
41988,note_off,,,,,48,0,4,,,3,,,53,64
41988,note_off,,,,,0,0,3,,,2,,,79,64
42000,note_on,,,,,12,0,3,,,2,,,77,80
42000,note_on,,,,,0,0,3,,,2,,,72,80
42000,note_on,,,,,0,0,3,,,2,,,72,80
42000,note_on,,,,,0,0,3,,,2,,,69,80
42000,note_on,,,,,12,0,4,,,3,,,53,80
42048,note_off,,,,,0,0,3,,,2,,,72,64
42048,note_off,,,,,48,0,3,,,2,,,72,64
42048,note_off,,,,,0,0,3,,,2,,,77,64
42048,note_off,,,,,0,0,3,,,2,,,69,64
42048,note_off,,,,,48,0,4,,,3,,,53,64
42060,note_on,,,,,12,0,3,,,2,,,75,80
42060,note_on,,,,,0,0,3,,,2,,,72,80
42060,note_on,,,,,0,0,3,,,2,,,69,80
42060,note_on,,,,,12,0,4,,,3,,,53,80
42072,note_off,,,,,192,0,2,,,1,,,72,64
42072,note_off,,,,,192,0,1,,,0,,,69,64
42108,note_off,,,,,0,0,3,,,2,,,75,64
42108,note_off,,,,,48,0,3,,,2,,,69,64
42108,note_off,,,,,0,0,3,,,2,,,72,64
42108,note_off,,,,,48,0,4,,,3,,,53,64
42120,note_on,,,,,48,0,1,,,0,,,69,80
42120,note_on,,,,,0,0,3,,,2,,,69,80
42120,note_on,,,,,12,0,3,,,2,,,74,80
42120,note_on,,,,,48,0,2,,,1,,,72,80
42120,note_on,,,,,12,0,4,,,3,,,53,80
42168,note_off,,,,,48,0,3,,,2,,,69,64
42168,note_off,,,,,0,0,3,,,2,,,74,64
42168,note_off,,,,,48,0,4,,,3,,,53,64
42180,note_on,,,,,12,0,4,,,3,,,53,80
42180,note_on,,,,,12,0,3,,,2,,,72,80
42180,note_on,,,,,0,0,3,,,2,,,69,80
42216,note_off,,,,,96,0,1,,,0,,,69,64
42216,note_off,,,,,96,0,2,,,1,,,72,64
42228,note_off,,,,,48,0,4,,,3,,,53,64
42228,note_off,,,,,48,0,3,,,2,,,69,64
42228,note_off,,,,,0,0,3,,,2,,,72,64
42240,note_on,,,,,12,0,3,,,2,,,65,80
42240,note_on,,,,,0,0,3,,,2,,,70,80
42240,note_on,,,,,0,0,3,,,2,,,74,80
42240,note_on,,,,,24,0,1,,,0,,,70,80
42240,note_on,,,,,12,0,4,,,3,,,46,80
42240,note_on,,,,,24,0,2,,,1,,,74,80
42336,note_off,,,,,0,0,3,,,2,,,65,64
42336,note_off,,,,,0,0,3,,,2,,,70,64
42336,note_off,,,,,96,0,3,,,2,,,74,64
42336,note_off,,,,,96,0,4,,,3,,,46,64
42336,note_off,,,,,96,0,1,,,0,,,70,64
42336,note_off,,,,,96,0,2,,,1,,,74,64
42360,note_on,,,,,24,0,3,,,2,,,82,80
42360,note_on,,,,,24,0,4,,,3,,,46,80
42360,note_on,,,,,0,0,3,,,2,,,70,80
42360,note_on,,,,,24,0,1,,,0,,,82,80
42360,note_on,,,,,24,0,2,,,1,,,70,80
42456,note_off,,,,,96,0,4,,,3,,,46,64
42456,note_off,,,,,0,0,3,,,2,,,82,64
42456,note_off,,,,,96,0,3,,,2,,,70,64
42456,note_off,,,,,96,0,1,,,0,,,82,64
42456,note_off,,,,,96,0,2,,,1,,,70,64
42480,note_on,,,,,24,0,4,,,3,,,53,80
42480,note_on,,,,,24,0,1,,,0,,,74,80
42480,note_on,,,,,24,0,3,,,2,,,74,80
42480,note_on,,,,,24,0,2,,,1,,,70,80
42480,note_on,,,,,0,0,3,,,2,,,70,80
42576,note_off,,,,,96,0,3,,,2,,,70,64
42576,note_off,,,,,96,0,4,,,3,,,53,64
42576,note_off,,,,,96,0,2,,,1,,,70,64
42576,note_off,,,,,96,0,1,,,0,,,74,64
42576,note_off,,,,,0,0,3,,,2,,,74,64
42600,note_on,,,,,24,0,3,,,2,,,72,80
42600,note_on,,,,,0,0,3,,,2,,,65,80
42600,note_on,,,,,0,0,3,,,2,,,69,80
42600,note_on,,,,,24,0,4,,,3,,,41,80
42600,note_on,,,,,24,0,1,,,0,,,72,80
42600,note_on,,,,,24,0,2,,,1,,,69,80
42696,note_off,,,,,0,0,3,,,2,,,72,64
42696,note_off,,,,,0,0,3,,,2,,,65,64
42696,note_off,,,,,96,0,4,,,3,,,41,64
42696,note_off,,,,,96,0,1,,,0,,,72,64
42696,note_off,,,,,96,0,3,,,2,,,69,64
42696,note_off,,,,,96,0,2,,,1,,,69,64
42720,note_on,,,,,24,0,2,,,1,,,70,80
42720,note_on,,,,,0,0,3,,,2,,,62,80
42720,note_on,,,,,24,0,1,,,0,,,70,80
42720,note_on,,,,,0,0,3,,,2,,,70,80
42720,note_on,,,,,24,0,3,,,2,,,65,80
42720,note_on,,,,,24,0,4,,,3,,,46,80
42816,note_off,,,,,96,0,4,,,3,,,46,64
42840,note_on,,,,,24,0,4,,,3,,,58,80
42888,note_off,,,,,48,0,4,,,3,,,58,64
42900,note_on,,,,,12,0,4,,,3,,,57,80
42912,note_off,,,,,0,0,3,,,2,,,70,64
42912,note_off,,,,,0,0,3,,,2,,,65,64
42912,note_off,,,,,192,0,2,,,1,,,70,64
42912,note_off,,,,,192,0,1,,,0,,,70,64
42912,note_off,,,,,192,0,3,,,2,,,62,64
42948,note_off,,,,,48,0,4,,,3,,,57,64
42960,note_on,,,,,12,0,4,,,3,,,58,80
43056,note_off,,,,,96,0,4,,,3,,,58,64
43080,note_on,,,,,168,0,2,,,1,,,70,80
43080,note_on,,,,,168,0,1,,,0,,,74,80
43080,note_on,,,,,24,0,4,,,3,,,46,80
43128,note_off,,,,,48,0,2,,,1,,,70,64
43128,note_off,,,,,48,0,1,,,0,,,74,64
43140,note_on,,,,,12,0,1,,,0,,,75,80
43140,note_on,,,,,12,0,2,,,1,,,72,80
43176,note_off,,,,,96,0,4,,,3,,,46,64
43188,note_off,,,,,48,0,2,,,1,,,72,64
43188,note_off,,,,,48,0,1,,,0,,,75,64
43200,note_on,,,,,24,0,4,,,3,,,46,80
43200,note_on,,,,,12,0,1,,,0,,,77,80
43200,note_on,,,,,12,0,2,,,1,,,74,80
43248,note_off,,,,,48,0,1,,,0,,,77,64
43248,note_off,,,,,48,0,2,,,1,,,74,64
43260,note_on,,,,,12,0,1,,,0,,,75,80
43260,note_on,,,,,12,0,2,,,1,,,72,80
43296,note_off,,,,,96,0,4,,,3,,,46,64
43308,note_off,,,,,48,0,1,,,0,,,75,64
43308,note_off,,,,,48,0,2,,,1,,,72,64
43320,note_on,,,,,24,0,4,,,3,,,58,80
43320,note_on,,,,,12,0,1,,,0,,,77,80
43320,note_on,,,,,12,0,2,,,1,,,74,80
43368,note_off,,,,,48,0,4,,,3,,,58,64
43380,note_on,,,,,12,0,4,,,3,,,57,80
43416,note_off,,,,,96,0,1,,,0,,,77,64
43416,note_off,,,,,96,0,2,,,1,,,74,64
43428,note_off,,,,,48,0,4,,,3,,,57,64
43440,note_on,,,,,12,0,4,,,3,,,58,80
43536,note_off,,,,,96,0,4,,,3,,,58,64
43560,note_on,,,,,24,0,4,,,3,,,46,80
43560,note_on,,,,,144,0,2,,,1,,,75,80
43560,note_on,,,,,144,0,1,,,0,,,79,80
43608,note_off,,,,,48,0,1,,,0,,,79,64
43608,note_off,,,,,48,0,2,,,1,,,75,64
43620,note_on,,,,,12,0,2,,,1,,,74,80
43620,note_on,,,,,12,0,1,,,0,,,77,80
43656,note_off,,,,,96,0,4,,,3,,,46,64
43668,note_off,,,,,48,0,1,,,0,,,77,64
43668,note_off,,,,,48,0,2,,,1,,,74,64
43680,note_on,,,,,12,0,1,,,0,,,75,80
43680,note_on,,,,,24,0,4,,,3,,,48,80
43680,note_on,,,,,12,0,2,,,1,,,72,80
43728,note_off,,,,,48,0,2,,,1,,,72,64
43728,note_off,,,,,48,0,1,,,0,,,75,64
43740,note_on,,,,,12,0,2,,,1,,,70,80
43740,note_on,,,,,12,0,1,,,0,,,74,80
43776,note_off,,,,,96,0,4,,,3,,,48,64
43788,note_off,,,,,48,0,1,,,0,,,74,64
43788,note_off,,,,,48,0,2,,,1,,,70,64
43800,note_on,,,,,24,0,4,,,3,,,53,80
43800,note_on,,,,,12,0,2,,,1,,,72,80
43800,note_on,,,,,12,0,1,,,0,,,75,80
43848,note_off,,,,,48,0,4,,,3,,,53,64
43860,note_on,,,,,12,0,4,,,3,,,52,80
43896,note_off,,,,,96,0,1,,,0,,,75,64
43896,note_off,,,,,96,0,2,,,1,,,72,64
43908,note_off,,,,,48,0,4,,,3,,,52,64
43920,note_on,,,,,12,0,4,,,3,,,53,80
44016,note_off,,,,,96,0,4,,,3,,,53,64
44040,note_on,,,,,144,0,1,,,0,,,77,80
44040,note_on,,,,,24,0,4,,,3,,,45,80
44040,note_on,,,,,144,0,2,,,1,,,74,80
44088,note_off,,,,,48,0,2,,,1,,,74,64
44088,note_off,,,,,48,0,1,,,0,,,77,64
44100,note_on,,,,,12,0,1,,,0,,,75,80
44100,note_on,,,,,12,0,2,,,1,,,72,80
44136,note_off,,,,,96,0,4,,,3,,,45,64
44148,note_off,,,,,48,0,2,,,1,,,72,64
44148,note_off,,,,,48,0,1,,,0,,,75,64
44160,note_on,,,,,12,0,2,,,1,,,70,80
44160,note_on,,,,,24,0,4,,,3,,,46,80
44160,note_on,,,,,12,0,1,,,0,,,74,80
44208,note_off,,,,,48,0,2,,,1,,,70,64
44208,note_off,,,,,48,0,1,,,0,,,74,64
44220,note_on,,,,,12,0,2,,,1,,,69,80
44220,note_on,,,,,12,0,1,,,0,,,72,80
44256,note_off,,,,,96,0,4,,,3,,,46,64
44268,note_off,,,,,48,0,2,,,1,,,69,64
44268,note_off,,,,,48,0,1,,,0,,,72,64
44280,note_on,,,,,24,0,4,,,3,,,58,80
44280,note_on,,,,,12,0,1,,,0,,,74,80
44280,note_on,,,,,12,0,2,,,1,,,70,80
44328,note_off,,,,,48,0,4,,,3,,,58,64
44340,note_on,,,,,12,0,4,,,3,,,57,80
44376,note_off,,,,,96,0,1,,,0,,,74,64
44376,note_off,,,,,96,0,2,,,1,,,70,64
44388,note_off,,,,,48,0,4,,,3,,,57,64
44400,note_on,,,,,12,0,4,,,3,,,58,80
44496,note_off,,,,,96,0,4,,,3,,,58,64
44520,note_on,,,,,24,0,4,,,3,,,46,80
44520,note_on,,,,,144,0,1,,,0,,,75,80
44520,note_on,,,,,144,0,2,,,1,,,72,80
44568,note_off,,,,,48,0,2,,,1,,,72,64
44568,note_off,,,,,48,0,1,,,0,,,75,64
44580,note_on,,,,,12,0,2,,,1,,,70,80
44580,note_on,,,,,12,0,1,,,0,,,74,80
44616,note_off,,,,,96,0,4,,,3,,,46,64
44628,note_off,,,,,48,0,2,,,1,,,70,64
44628,note_off,,,,,48,0,1,,,0,,,74,64
44640,note_on,,,,,12,0,2,,,1,,,69,80
44640,note_on,,,,,24,0,4,,,3,,,53,80
44640,note_on,,,,,12,0,1,,,0,,,72,80
44688,note_off,,,,,48,0,2,,,1,,,69,64
44688,note_off,,,,,48,0,1,,,0,,,72,64
44700,note_on,,,,,12,0,2,,,1,,,67,80
44700,note_on,,,,,12,0,1,,,0,,,70,80
44736,note_off,,,,,96,0,4,,,3,,,53,64
44748,note_off,,,,,48,0,1,,,0,,,70,64
44748,note_off,,,,,48,0,2,,,1,,,67,64
44760,note_on,,,,,12,0,1,,,0,,,72,80
44760,note_on,,,,,24,0,4,,,3,,,57,80
44760,note_on,,,,,12,0,2,,,1,,,69,80
44808,note_off,,,,,48,0,4,,,3,,,57,64
44820,note_on,,,,,12,0,4,,,3,,,55,80
44856,note_off,,,,,96,0,2,,,1,,,69,64
44856,note_off,,,,,96,0,1,,,0,,,72,64
44868,note_off,,,,,48,0,4,,,3,,,55,64
44880,note_on,,,,,12,0,4,,,3,,,53,80
44976,note_off,,,,,96,0,4,,,3,,,53,64
45000,note_on,,,,,24,0,4,,,3,,,50,80
45000,note_on,,,,,144,0,1,,,0,,,77,80
45000,note_on,,,,,144,0,2,,,1,,,74,80
45048,note_off,,,,,48,0,2,,,1,,,74,64
45048,note_off,,,,,48,0,1,,,0,,,77,64
45060,note_on,,,,,12,0,1,,,0,,,79,80
45060,note_on,,,,,12,0,2,,,1,,,76,80
45096,note_off,,,,,96,0,4,,,3,,,50,64
45108,note_off,,,,,48,0,2,,,1,,,76,64
45108,note_off,,,,,48,0,1,,,0,,,79,64
45120,note_on,,,,,12,0,2,,,1,,,77,80
45120,note_on,,,,,12,0,1,,,0,,,81,80
45120,note_on,,,,,24,0,4,,,3,,,50,80
45168,note_off,,,,,48,0,1,,,0,,,81,64
45168,note_off,,,,,48,0,2,,,1,,,77,64
45180,note_on,,,,,12,0,2,,,1,,,76,80
45180,note_on,,,,,12,0,1,,,0,,,79,80
45216,note_off,,,,,96,0,4,,,3,,,50,64
45228,note_off,,,,,48,0,2,,,1,,,76,64
45228,note_off,,,,,48,0,1,,,0,,,79,64
45240,note_on,,,,,24,0,4,,,3,,,62,80
45240,note_on,,,,,12,0,1,,,0,,,81,80
45240,note_on,,,,,12,0,2,,,1,,,77,80
45288,note_off,,,,,48,0,4,,,3,,,62,64
45300,note_on,,,,,12,0,4,,,3,,,61,80
45336,note_off,,,,,96,0,1,,,0,,,81,64
45336,note_off,,,,,96,0,2,,,1,,,77,64
45348,note_off,,,,,48,0,4,,,3,,,61,64
45360,note_on,,,,,12,0,4,,,3,,,62,80
45456,note_off,,,,,96,0,4,,,3,,,62,64
45480,note_on,,,,,144,0,1,,,0,,,82,80
45480,note_on,,,,,24,0,4,,,3,,,50,80
45480,note_on,,,,,144,0,2,,,1,,,79,80
45528,note_off,,,,,48,0,2,,,1,,,79,64
45528,note_off,,,,,48,0,1,,,0,,,82,64
45540,note_on,,,,,12,0,2,,,1,,,77,80
45540,note_on,,,,,12,0,1,,,0,,,81,80
45576,note_off,,,,,96,0,4,,,3,,,50,64
45588,note_off,,,,,48,0,1,,,0,,,81,64
45588,note_off,,,,,48,0,2,,,1,,,77,64
45600,note_on,,,,,12,0,2,,,1,,,76,80
45600,note_on,,,,,12,0,1,,,0,,,79,80
45600,note_on,,,,,24,0,4,,,3,,,52,80
45648,note_off,,,,,48,0,1,,,0,,,79,64
45648,note_off,,,,,48,0,2,,,1,,,76,64
45660,note_on,,,,,12,0,1,,,0,,,77,80
45660,note_on,,,,,12,0,2,,,1,,,74,80
45696,note_off,,,,,96,0,4,,,3,,,52,64
45708,note_off,,,,,48,0,1,,,0,,,77,64
45708,note_off,,,,,48,0,2,,,1,,,74,64
45720,note_on,,,,,12,0,1,,,0,,,79,80
45720,note_on,,,,,12,0,2,,,1,,,76,80
45720,note_on,,,,,24,0,4,,,3,,,57,80
45768,note_off,,,,,48,0,4,,,3,,,57,64
45780,note_on,,,,,12,0,4,,,3,,,55,80
45816,note_off,,,,,96,0,1,,,0,,,79,64
45816,note_off,,,,,96,0,2,,,1,,,76,64
45828,note_off,,,,,48,0,4,,,3,,,55,64
45840,note_on,,,,,12,0,4,,,3,,,57,80
45936,note_off,,,,,96,0,4,,,3,,,57,64
45960,note_on,,,,,144,0,1,,,0,,,81,80
45960,note_on,,,,,144,0,2,,,1,,,77,80
45960,note_on,,,,,24,0,4,,,3,,,45,80
46008,note_off,,,,,48,0,2,,,1,,,77,64
46008,note_off,,,,,48,0,1,,,0,,,81,64
46020,note_on,,,,,12,0,2,,,1,,,76,80
46020,note_on,,,,,12,0,1,,,0,,,79,80
46056,note_off,,,,,96,0,4,,,3,,,45,64
46068,note_off,,,,,48,0,1,,,0,,,79,64
46068,note_off,,,,,48,0,2,,,1,,,76,64
46080,note_on,,,,,12,0,2,,,1,,,74,80
46080,note_on,,,,,12,0,1,,,0,,,77,80
46080,note_on,,,,,24,0,4,,,3,,,50,80
46128,note_off,,,,,48,0,2,,,1,,,74,64
46128,note_off,,,,,48,0,1,,,0,,,77,64
46140,note_on,,,,,12,0,2,,,1,,,73,80
46140,note_on,,,,,12,0,1,,,0,,,76,80
46176,note_off,,,,,96,0,4,,,3,,,50,64
46188,note_off,,,,,48,0,2,,,1,,,73,64
46188,note_off,,,,,48,0,1,,,0,,,76,64
46200,note_on,,,,,24,0,4,,,3,,,62,80
46200,note_on,,,,,12,0,1,,,0,,,77,80
46200,note_on,,,,,12,0,2,,,1,,,74,80
46248,note_off,,,,,48,0,4,,,3,,,62,64
46260,note_on,,,,,12,0,4,,,3,,,61,80
46296,note_off,,,,,96,0,2,,,1,,,74,64
46296,note_off,,,,,96,0,1,,,0,,,77,64
46308,note_off,,,,,48,0,4,,,3,,,61,64
46320,note_on,,,,,12,0,4,,,3,,,62,80
46416,note_off,,,,,96,0,4,,,3,,,62,64
46440,note_on,,,,,24,0,4,,,3,,,55,80
46440,note_on,,,,,144,0,2,,,1,,,76,80
46440,note_on,,,,,144,0,1,,,0,,,79,80
46488,note_off,,,,,48,0,1,,,0,,,79,64
46488,note_off,,,,,48,0,2,,,1,,,76,64
46500,note_on,,,,,12,0,1,,,0,,,77,80
46500,note_on,,,,,12,0,2,,,1,,,74,80
46536,note_off,,,,,96,0,4,,,3,,,55,64
46548,note_off,,,,,48,0,1,,,0,,,77,64
46548,note_off,,,,,48,0,2,,,1,,,74,64
46560,note_on,,,,,12,0,1,,,0,,,76,80
46560,note_on,,,,,12,0,2,,,1,,,73,80
46560,note_on,,,,,24,0,4,,,3,,,45,80
46608,note_off,,,,,48,0,2,,,1,,,73,64
46608,note_off,,,,,48,0,1,,,0,,,76,64
46620,note_on,,,,,12,0,1,,,0,,,74,80
46620,note_on,,,,,12,0,2,,,1,,,71,80
46656,note_off,,,,,96,0,4,,,3,,,45,64
46668,note_off,,,,,48,0,2,,,1,,,71,64
46668,note_off,,,,,48,0,1,,,0,,,74,64
46680,note_on,,,,,12,0,1,,,0,,,76,80
46680,note_on,,,,,12,0,2,,,1,,,73,80
46680,note_on,,,,,24,0,4,,,3,,,57,80
46776,note_off,,,,,96,0,1,,,0,,,76,64
46776,note_off,,,,,96,0,4,,,3,,,57,64
46776,note_off,,,,,96,0,2,,,1,,,73,64
46800,note_on,,,,,24,0,4,,,3,,,57,80
46800,note_on,,,,,24,0,2,,,1,,,76,80
46800,note_on,,,,,24,0,1,,,0,,,79,80
46848,note_off,,,,,48,0,2,,,1,,,76,64
46848,note_off,,,,,48,0,1,,,0,,,79,64
46860,note_on,,,,,12,0,1,,,0,,,77,80
46860,note_on,,,,,12,0,2,,,1,,,74,80
46896,note_off,,,,,96,0,4,,,3,,,57,64
46908,note_off,,,,,48,0,2,,,1,,,74,64
46908,note_off,,,,,48,0,1,,,0,,,77,64
46920,note_on,,,,,24,0,4,,,3,,,45,80
46920,note_on,,,,,12,0,1,,,0,,,79,80
46920,note_on,,,,,12,0,2,,,1,,,76,80
46968,note_off,,,,,48,0,1,,,0,,,79,64
47016,note_off,,,,,96,0,4,,,3,,,45,64
47016,note_off,,,,,96,0,2,,,1,,,76,64
47040,note_on,,,,,0,0,3,,,2,,,65,80
47040,note_on,,,,,4128,0,3,,,2,,,74,80
47040,note_on,,,,,24,0,4,,,3,,,50,80
47040,note_on,,,,,0,0,4,,,3,,,53,80
47040,note_on,,,,,24,0,2,,,1,,,74,80
47040,note_on,,,,,72,0,1,,,0,,,77,80
47136,note_off,,,,,0,0,3,,,2,,,74,64
47136,note_off,,,,,0,0,4,,,3,,,50,64
47136,note_off,,,,,96,0,4,,,3,,,53,64
47136,note_off,,,,,96,0,3,,,2,,,65,64
47160,note_on,,,,,0,0,4,,,3,,,52,80
47160,note_on,,,,,24,0,4,,,3,,,55,80
47160,note_on,,,,,24,0,3,,,2,,,64,80
47160,note_on,,,,,0,0,3,,,2,,,73,80
47208,note_off,,,,,0,0,3,,,2,,,64,64
47208,note_off,,,,,48,0,3,,,2,,,73,64
47220,note_on,,,,,0,0,3,,,2,,,64,80
47220,note_on,,,,,12,0,3,,,2,,,74,80
47232,note_off,,,,,192,0,1,,,0,,,77,64
47232,note_off,,,,,192,0,2,,,1,,,74,64
47256,note_off,,,,,96,0,4,,,3,,,52,64
47256,note_off,,,,,0,0,4,,,3,,,55,64
47268,note_off,,,,,48,0,3,,,2,,,64,64
47268,note_off,,,,,0,0,3,,,2,,,74,64
47280,note_on,,,,,0,0,4,,,3,,,57,80
47280,note_on,,,,,12,0,3,,,2,,,62,80
47280,note_on,,,,,0,0,3,,,2,,,69,80
47280,note_on,,,,,24,0,4,,,3,,,53,80
47376,note_off,,,,,96,0,3,,,2,,,69,64
47376,note_off,,,,,0,0,3,,,2,,,62,64
47376,note_off,,,,,96,0,4,,,3,,,57,64
47376,note_off,,,,,0,0,4,,,3,,,53,64
47400,note_on,,,,,24,0,3,,,2,,,77,80
47400,note_on,,,,,0,0,3,,,2,,,69,80
47400,note_on,,,,,0,0,3,,,2,,,74,80
47400,note_on,,,,,24,0,4,,,3,,,50,80
47496,note_off,,,,,96,0,3,,,2,,,74,64
47496,note_off,,,,,0,0,3,,,2,,,69,64
47496,note_off,,,,,0,0,3,,,2,,,77,64
47496,note_off,,,,,96,0,4,,,3,,,50,64
47520,note_on,,,,,24,0,3,,,2,,,69,80
47520,note_on,,,,,24,0,4,,,3,,,57,80
47520,note_on,,,,,0,0,3,,,2,,,74,80
47520,note_on,,,,,0,0,3,,,2,,,77,80
47616,note_off,,,,,96,0,4,,,3,,,57,64
47640,note_on,,,,,24,0,4,,,3,,,55,80
47712,note_off,,,,,192,0,3,,,2,,,74,64
47712,note_off,,,,,0,0,3,,,2,,,69,64
47712,note_off,,,,,0,0,3,,,2,,,77,64
47736,note_off,,,,,96,0,4,,,3,,,55,64
47760,note_on,,,,,0,0,3,,,2,,,73,80
47760,note_on,,,,,0,0,3,,,2,,,76,80
47760,note_on,,,,,48,0,3,,,2,,,69,80
47760,note_on,,,,,24,0,4,,,3,,,57,80
47856,note_off,,,,,0,0,3,,,2,,,69,64
47856,note_off,,,,,0,0,3,,,2,,,76,64
47856,note_off,,,,,96,0,3,,,2,,,73,64
47856,note_off,,,,,96,0,4,,,3,,,57,64
47880,note_on,,,,,24,0,3,,,2,,,73,80
47880,note_on,,,,,0,0,3,,,2,,,64,80
47880,note_on,,,,,24,0,4,,,3,,,45,80
47880,note_on,,,,,0,0,3,,,2,,,69,80
47976,note_off,,,,,0,0,3,,,2,,,73,64
47976,note_off,,,,,96,0,4,,,3,,,45,64
47976,note_off,,,,,0,0,3,,,2,,,69,64
47976,note_off,,,,,96,0,3,,,2,,,64,64
48000,note_on,,,,,24,0,4,,,3,,,50,80
48000,note_on,,,,,0,0,3,,,2,,,74,80
48000,note_on,,,,,24,0,3,,,2,,,65,80
48096,note_off,,,,,0,0,3,,,2,,,65,64
48096,note_off,,,,,96,0,4,,,3,,,50,64
48096,note_off,,,,,96,0,3,,,2,,,74,64
48120,note_on,,,,,24,0,3,,,2,,,64,80
48120,note_on,,,,,24,0,4,,,3,,,52,80
48120,note_on,,,,,0,0,3,,,2,,,73,80
48168,note_off,,,,,0,0,3,,,2,,,64,64
48168,note_off,,,,,48,0,3,,,2,,,73,64
48180,note_on,,,,,0,0,3,,,2,,,64,80
48180,note_on,,,,,12,0,3,,,2,,,74,80
48216,note_off,,,,,96,0,4,,,3,,,52,64
48228,note_off,,,,,48,0,3,,,2,,,64,64
48228,note_off,,,,,0,0,3,,,2,,,74,64
48240,note_on,,,,,12,0,3,,,2,,,69,80
48240,note_on,,,,,0,0,3,,,2,,,62,80
48240,note_on,,,,,24,0,4,,,3,,,53,80
48336,note_off,,,,,96,0,3,,,2,,,62,64
48336,note_off,,,,,0,0,3,,,2,,,69,64
48336,note_off,,,,,96,0,4,,,3,,,53,64
48360,note_on,,,,,24,0,4,,,3,,,50,80
48360,note_on,,,,,0,0,3,,,2,,,69,80
48360,note_on,,,,,24,0,3,,,2,,,77,80
48456,note_off,,,,,0,0,3,,,2,,,77,64
48456,note_off,,,,,96,0,3,,,2,,,69,64
48456,note_off,,,,,96,0,4,,,3,,,50,64
48480,note_on,,,,,0,0,3,,,2,,,77,80
48480,note_on,,,,,24,0,3,,,2,,,69,80
48480,note_on,,,,,24,0,4,,,3,,,57,80
48576,note_off,,,,,96,0,4,,,3,,,57,64
48600,note_on,,,,,24,0,4,,,3,,,55,80
48672,note_off,,,,,0,0,3,,,2,,,69,64
48672,note_off,,,,,192,0,3,,,2,,,77,64
48696,note_off,,,,,96,0,4,,,3,,,55,64
48720,note_on,,,,,24,0,4,,,3,,,57,80
48720,note_on,,,,,0,0,3,,,2,,,76,80
48720,note_on,,,,,48,0,3,,,2,,,69,80
48816,note_off,,,,,96,0,4,,,3,,,57,64
48816,note_off,,,,,96,0,3,,,2,,,76,64
48816,note_off,,,,,0,0,3,,,2,,,69,64
48840,note_on,,,,,24,0,3,,,2,,,81,80
48840,note_on,,,,,24,0,4,,,3,,,45,80
48936,note_off,,,,,96,0,4,,,3,,,45,64
48936,note_off,,,,,96,0,3,,,2,,,81,64
48960,note_on,,,,,24,0,4,,,3,,,50,80
48960,note_on,,,,,0,0,3,,,2,,,74,80
48960,note_on,,,,,24,0,3,,,2,,,69,80
48960,note_on,,,,,0,0,3,,,2,,,77,80
49056,note_off,,,,,96,0,4,,,3,,,50,64
49056,note_off,,,,,96,0,3,,,2,,,77,64
49056,note_off,,,,,0,0,3,,,2,,,74,64
49056,note_off,,,,,0,0,3,,,2,,,69,64
49080,note_on,,,,,24,0,4,,,3,,,52,80
49080,note_on,,,,,24,0,3,,,2,,,76,80
49176,note_off,,,,,96,0,3,,,2,,,76,64
49176,note_off,,,,,96,0,4,,,3,,,52,64
49200,note_on,,,,,24,0,4,,,3,,,53,80
49200,note_on,,,,,24,0,3,,,2,,,70,80
49200,note_on,,,,,0,0,3,,,2,,,74,80
49296,note_off,,,,,96,0,4,,,3,,,53,64
49296,note_off,,,,,0,0,3,,,2,,,70,64
49296,note_off,,,,,96,0,3,,,2,,,74,64
49320,note_on,,,,,0,0,3,,,2,,,82,80
49320,note_on,,,,,24,0,3,,,2,,,74,80
49320,note_on,,,,,0,0,3,,,2,,,77,80
49320,note_on,,,,,24,0,4,,,3,,,55,80
49416,note_off,,,,,96,0,3,,,2,,,77,64
49416,note_off,,,,,0,0,3,,,2,,,82,64
49416,note_off,,,,,0,0,3,,,2,,,74,64
49416,note_off,,,,,96,0,4,,,3,,,55,64
49440,note_on,,,,,24,0,3,,,2,,,77,80
49440,note_on,,,,,0,0,3,,,2,,,74,80
49440,note_on,,,,,0,0,3,,,2,,,69,80
49440,note_on,,,,,24,0,4,,,3,,,57,80
49536,note_off,,,,,96,0,4,,,3,,,57,64
49560,note_on,,,,,24,0,4,,,3,,,55,80
49632,note_off,,,,,0,0,3,,,2,,,74,64
49632,note_off,,,,,0,0,3,,,2,,,77,64
49632,note_off,,,,,192,0,3,,,2,,,69,64
49656,note_off,,,,,96,0,4,,,3,,,55,64
49680,note_on,,,,,0,0,3,,,2,,,73,80
49680,note_on,,,,,48,0,3,,,2,,,76,80
49680,note_on,,,,,24,0,4,,,3,,,57,80
49680,note_on,,,,,0,0,3,,,2,,,69,80
49776,note_off,,,,,96,0,4,,,3,,,57,64
49800,note_on,,,,,24,0,4,,,3,,,45,80
49872,note_off,,,,,0,0,3,,,2,,,76,64
49872,note_off,,,,,192,0,3,,,2,,,73,64
49872,note_off,,,,,0,0,3,,,2,,,69,64
49896,note_off,,,,,96,0,4,,,3,,,45,64
49920,note_on,,,,,24,0,4,,,3,,,45,80
49920,note_on,,,,,48,0,3,,,2,,,64,80
49920,note_on,,,,,2688,0,1,,,0,,,81,80
49920,note_on,,,,,0,0,3,,,2,,,69,80
49920,note_on,,,,,0,0,3,,,2,,,73,80
49920,note_on,,,,,2688,0,2,,,1,,,76,80
49968,note_off,,,,,48,0,1,,,0,,,81,64
49980,note_on,,,,,12,0,1,,,0,,,79,80
50016,note_off,,,,,96,0,4,,,3,,,45,64
50016,note_off,,,,,96,0,2,,,1,,,76,64
50028,note_off,,,,,48,0,1,,,0,,,79,64
50040,note_on,,,,,24,0,2,,,1,,,76,80
50040,note_on,,,,,24,0,4,,,3,,,57,80
50040,note_on,,,,,12,0,1,,,0,,,81,80
50088,note_off,,,,,48,0,1,,,0,,,81,64
50100,note_on,,,,,12,0,1,,,0,,,82,80
50136,note_off,,,,,96,0,4,,,3,,,57,64
50136,note_off,,,,,96,0,2,,,1,,,76,64
50148,note_off,,,,,48,0,1,,,0,,,82,64
50160,note_on,,,,,12,0,1,,,0,,,81,80
50160,note_on,,,,,24,0,2,,,1,,,73,80
50160,note_on,,,,,24,0,4,,,3,,,57,80
50208,note_off,,,,,48,0,1,,,0,,,81,64
50208,note_off,,,,,0,0,3,,,2,,,64,64
50208,note_off,,,,,0,0,3,,,2,,,69,64
50208,note_off,,,,,288,0,3,,,2,,,73,64
50220,note_on,,,,,12,0,1,,,0,,,79,80
50256,note_off,,,,,96,0,2,,,1,,,73,64
50256,note_off,,,,,96,0,4,,,3,,,57,64
50268,note_off,,,,,48,0,1,,,0,,,79,64
50280,note_on,,,,,12,0,1,,,0,,,77,80
50280,note_on,,,,,0,0,3,,,2,,,73,80
50280,note_on,,,,,0,0,3,,,2,,,64,80
50280,note_on,,,,,72,0,3,,,2,,,69,80
50280,note_on,,,,,24,0,2,,,1,,,73,80
50280,note_on,,,,,24,0,4,,,3,,,45,80
50328,note_off,,,,,48,0,1,,,0,,,77,64
50340,note_on,,,,,12,0,1,,,0,,,76,80
50376,note_off,,,,,96,0,2,,,1,,,73,64
50376,note_off,,,,,0,0,3,,,2,,,69,64
50376,note_off,,,,,0,0,3,,,2,,,64,64
50376,note_off,,,,,96,0,3,,,2,,,73,64
50376,note_off,,,,,96,0,4,,,3,,,45,64
50388,note_off,,,,,48,0,1,,,0,,,76,64
50400,note_on,,,,,24,0,2,,,1,,,74,80
50400,note_on,,,,,24,0,3,,,2,,,74,80
50400,note_on,,,,,24,0,4,,,3,,,50,80
50400,note_on,,,,,12,0,1,,,0,,,77,80
50448,note_off,,,,,48,0,3,,,2,,,74,64
50460,note_on,,,,,12,0,3,,,2,,,73,80
50496,note_off,,,,,96,0,2,,,1,,,74,64
50496,note_off,,,,,96,0,4,,,3,,,50,64
50496,note_off,,,,,96,0,1,,,0,,,77,64
50508,note_off,,,,,48,0,3,,,2,,,73,64
50520,note_on,,,,,24,0,4,,,3,,,62,80
50520,note_on,,,,,24,0,2,,,1,,,74,80
50520,note_on,,,,,12,0,3,,,2,,,74,80
50520,note_on,,,,,24,0,1,,,0,,,77,80
50568,note_off,,,,,48,0,3,,,2,,,74,64
50580,note_on,,,,,12,0,3,,,2,,,76,80
50616,note_off,,,,,96,0,4,,,3,,,62,64
50628,note_off,,,,,48,0,3,,,2,,,76,64
50640,note_on,,,,,12,0,3,,,2,,,74,80
50640,note_on,,,,,24,0,4,,,3,,,62,80
50688,note_off,,,,,48,0,3,,,2,,,74,64
50700,note_on,,,,,12,0,3,,,2,,,73,80
50712,note_off,,,,,192,0,2,,,1,,,74,64
50712,note_off,,,,,192,0,1,,,0,,,77,64
50736,note_off,,,,,96,0,4,,,3,,,62,64
50748,note_off,,,,,48,0,3,,,2,,,73,64
50760,note_on,,,,,24,0,4,,,3,,,50,80
50760,note_on,,,,,12,0,3,,,2,,,70,80
50760,note_on,,,,,48,0,1,,,0,,,77,80
50760,note_on,,,,,48,0,2,,,1,,,74,80
50808,note_off,,,,,48,0,3,,,2,,,70,64
50820,note_on,,,,,12,0,3,,,2,,,69,80
50856,note_off,,,,,96,0,4,,,3,,,50,64
50856,note_off,,,,,96,0,2,,,1,,,74,64
50856,note_off,,,,,96,0,1,,,0,,,77,64
50868,note_off,,,,,48,0,3,,,2,,,69,64
50880,note_on,,,,,24,0,2,,,1,,,74,80
50880,note_on,,,,,12,0,3,,,2,,,62,80
50880,note_on,,,,,0,0,3,,,2,,,70,80
50880,note_on,,,,,24,0,1,,,0,,,79,80
50880,note_on,,,,,0,0,3,,,2,,,67,80
50880,note_on,,,,,24,0,4,,,3,,,43,80
50928,note_off,,,,,48,0,1,,,0,,,79,64
50940,note_on,,,,,12,0,1,,,0,,,77,80
50976,note_off,,,,,96,0,2,,,1,,,74,64
50976,note_off,,,,,96,0,4,,,3,,,43,64
50976,note_off,,,,,96,0,3,,,2,,,67,64
50976,note_off,,,,,0,0,3,,,2,,,62,64
50976,note_off,,,,,0,0,3,,,2,,,70,64
50988,note_off,,,,,48,0,1,,,0,,,77,64
51000,note_on,,,,,0,0,3,,,2,,,70,80
51000,note_on,,,,,24,0,3,,,2,,,67,80
51000,note_on,,,,,0,0,3,,,2,,,62,80
51000,note_on,,,,,12,0,1,,,0,,,79,80
51000,note_on,,,,,24,0,4,,,3,,,55,80
51000,note_on,,,,,24,0,2,,,1,,,74,80
51048,note_off,,,,,48,0,1,,,0,,,79,64
51060,note_on,,,,,12,0,1,,,0,,,81,80
51096,note_off,,,,,96,0,2,,,1,,,74,64
51096,note_off,,,,,96,0,4,,,3,,,55,64
51108,note_off,,,,,48,0,1,,,0,,,81,64
51120,note_on,,,,,12,0,1,,,0,,,79,80
51120,note_on,,,,,24,0,4,,,3,,,55,80
51120,note_on,,,,,24,0,2,,,1,,,74,80
51168,note_off,,,,,48,0,1,,,0,,,79,64
51180,note_on,,,,,12,0,1,,,0,,,77,80
51192,note_off,,,,,0,0,3,,,2,,,67,64
51192,note_off,,,,,0,0,3,,,2,,,70,64
51192,note_off,,,,,192,0,3,,,2,,,62,64
51216,note_off,,,,,96,0,4,,,3,,,55,64
51216,note_off,,,,,96,0,2,,,1,,,74,64
51228,note_off,,,,,48,0,1,,,0,,,77,64
51240,note_on,,,,,0,0,3,,,2,,,67,80
51240,note_on,,,,,48,0,3,,,2,,,71,80
51240,note_on,,,,,24,0,2,,,1,,,74,80
51240,note_on,,,,,12,0,1,,,0,,,76,80
51240,note_on,,,,,24,0,4,,,3,,,43,80
51288,note_off,,,,,48,0,1,,,0,,,76,64
51300,note_on,,,,,12,0,1,,,0,,,74,80
51336,note_off,,,,,96,0,4,,,3,,,43,64
51336,note_off,,,,,96,0,2,,,1,,,74,64
51336,note_off,,,,,96,0,3,,,2,,,67,64
51336,note_off,,,,,0,0,3,,,2,,,71,64
51348,note_off,,,,,48,0,1,,,0,,,74,64
51360,note_on,,,,,24,0,4,,,3,,,48,80
51360,note_on,,,,,0,0,3,,,2,,,67,80
51360,note_on,,,,,24,0,3,,,2,,,72,80
51360,note_on,,,,,12,0,1,,,0,,,76,80
51360,note_on,,,,,0,0,3,,,2,,,64,80
51360,note_on,,,,,24,0,2,,,1,,,72,80
51408,note_off,,,,,48,0,3,,,2,,,64,64
51408,note_off,,,,,0,0,3,,,2,,,67,64
51408,note_off,,,,,0,0,3,,,2,,,72,64
51420,note_on,,,,,0,0,3,,,2,,,70,80
51420,note_on,,,,,12,0,3,,,2,,,67,80
51420,note_on,,,,,0,0,3,,,2,,,64,80
51456,note_off,,,,,96,0,2,,,1,,,72,64
51456,note_off,,,,,96,0,4,,,3,,,48,64
51456,note_off,,,,,96,0,1,,,0,,,76,64
51468,note_off,,,,,0,0,3,,,2,,,67,64
51468,note_off,,,,,0,0,3,,,2,,,64,64
51468,note_off,,,,,48,0,3,,,2,,,70,64
51480,note_on,,,,,12,0,3,,,2,,,72,80
51480,note_on,,,,,24,0,1,,,0,,,76,80
51480,note_on,,,,,0,0,3,,,2,,,67,80
51480,note_on,,,,,0,0,3,,,2,,,64,80
51480,note_on,,,,,24,0,4,,,3,,,60,80
51480,note_on,,,,,24,0,2,,,1,,,72,80
51528,note_off,,,,,48,0,3,,,2,,,67,64
51528,note_off,,,,,0,0,3,,,2,,,64,64
51528,note_off,,,,,0,0,3,,,2,,,72,64
51540,note_on,,,,,0,0,3,,,2,,,74,80
51540,note_on,,,,,12,0,3,,,2,,,67,80
51540,note_on,,,,,0,0,3,,,2,,,64,80
51576,note_off,,,,,96,0,4,,,3,,,60,64
51588,note_off,,,,,0,0,3,,,2,,,67,64
51588,note_off,,,,,48,0,3,,,2,,,74,64
51588,note_off,,,,,0,0,3,,,2,,,64,64
51600,note_on,,,,,24,0,4,,,3,,,60,80
51600,note_on,,,,,0,0,3,,,2,,,67,80
51600,note_on,,,,,12,0,3,,,2,,,72,80
51600,note_on,,,,,0,0,3,,,2,,,64,80
51648,note_off,,,,,48,0,3,,,2,,,67,64
51648,note_off,,,,,0,0,3,,,2,,,64,64
51648,note_off,,,,,0,0,3,,,2,,,72,64
51660,note_on,,,,,0,0,3,,,2,,,67,80
51660,note_on,,,,,12,0,3,,,2,,,64,80
51660,note_on,,,,,0,0,3,,,2,,,70,80
51672,note_off,,,,,192,0,1,,,0,,,76,64
51672,note_off,,,,,192,0,2,,,1,,,72,64
51696,note_off,,,,,96,0,4,,,3,,,60,64
51708,note_off,,,,,0,0,3,,,2,,,70,64
51708,note_off,,,,,0,0,3,,,2,,,64,64
51708,note_off,,,,,48,0,3,,,2,,,67,64
51720,note_on,,,,,12,0,3,,,2,,,64,80
51720,note_on,,,,,24,0,4,,,3,,,48,80
51720,note_on,,,,,48,0,1,,,0,,,76,80
51720,note_on,,,,,48,0,2,,,1,,,72,80
51720,note_on,,,,,0,0,3,,,2,,,69,80
51768,note_off,,,,,48,0,3,,,2,,,69,64
51768,note_off,,,,,0,0,3,,,2,,,64,64
51780,note_on,,,,,12,0,3,,,2,,,64,80
51780,note_on,,,,,0,0,3,,,2,,,67,80
51816,note_off,,,,,96,0,4,,,3,,,48,64
51816,note_off,,,,,96,0,1,,,0,,,76,64
51816,note_off,,,,,96,0,2,,,1,,,72,64
51828,note_off,,,,,0,0,3,,,2,,,64,64
51828,note_off,,,,,48,0,3,,,2,,,67,64
51840,note_on,,,,,0,0,3,,,2,,,69,80
51840,note_on,,,,,24,0,2,,,1,,,72,80
51840,note_on,,,,,12,0,3,,,2,,,60,80
51840,note_on,,,,,24,0,4,,,3,,,41,80
51840,note_on,,,,,0,0,3,,,2,,,65,80
51840,note_on,,,,,24,0,1,,,0,,,77,80
51888,note_off,,,,,48,0,1,,,0,,,77,64
51900,note_on,,,,,12,0,1,,,0,,,76,80
51936,note_off,,,,,96,0,4,,,3,,,41,64
51936,note_off,,,,,96,0,2,,,1,,,72,64
51936,note_off,,,,,96,0,3,,,2,,,65,64
51936,note_off,,,,,0,0,3,,,2,,,69,64
51936,note_off,,,,,0,0,3,,,2,,,60,64
51948,note_off,,,,,48,0,1,,,0,,,76,64
51960,note_on,,,,,0,0,3,,,2,,,60,80
51960,note_on,,,,,12,0,1,,,0,,,77,80
51960,note_on,,,,,24,0,4,,,3,,,53,80
51960,note_on,,,,,0,0,3,,,2,,,69,80
51960,note_on,,,,,24,0,3,,,2,,,65,80
51960,note_on,,,,,24,0,2,,,1,,,72,80
52008,note_off,,,,,48,0,1,,,0,,,77,64
52020,note_on,,,,,12,0,1,,,0,,,79,80
52056,note_off,,,,,96,0,4,,,3,,,53,64
52056,note_off,,,,,96,0,2,,,1,,,72,64
52068,note_off,,,,,48,0,1,,,0,,,79,64
52080,note_on,,,,,24,0,2,,,1,,,72,80
52080,note_on,,,,,12,0,1,,,0,,,77,80
52080,note_on,,,,,24,0,4,,,3,,,53,80
52128,note_off,,,,,48,0,1,,,0,,,77,64
52140,note_on,,,,,12,0,1,,,0,,,76,80
52152,note_off,,,,,192,0,3,,,2,,,60,64
52152,note_off,,,,,0,0,3,,,2,,,65,64
52152,note_off,,,,,0,0,3,,,2,,,69,64
52176,note_off,,,,,96,0,2,,,1,,,72,64
52176,note_off,,,,,96,0,4,,,3,,,53,64
52188,note_off,,,,,48,0,1,,,0,,,76,64
52200,note_on,,,,,48,0,3,,,2,,,69,80
52200,note_on,,,,,0,0,3,,,2,,,65,80
52200,note_on,,,,,0,0,3,,,2,,,60,80
52200,note_on,,,,,24,0,2,,,1,,,72,80
52200,note_on,,,,,12,0,1,,,0,,,74,80
52200,note_on,,,,,24,0,4,,,3,,,41,80
52248,note_off,,,,,48,0,1,,,0,,,74,64
52260,note_on,,,,,12,0,1,,,0,,,72,80
52296,note_off,,,,,0,0,3,,,2,,,65,64
52296,note_off,,,,,96,0,3,,,2,,,60,64
52296,note_off,,,,,96,0,2,,,1,,,72,64
52296,note_off,,,,,96,0,4,,,3,,,41,64
52296,note_off,,,,,0,0,3,,,2,,,69,64
52308,note_off,,,,,48,0,1,,,0,,,72,64
52320,note_on,,,,,24,0,2,,,1,,,70,80
52320,note_on,,,,,12,0,1,,,0,,,74,80
52320,note_on,,,,,24,0,4,,,3,,,46,80
52320,note_on,,,,,24,0,3,,,2,,,70,80
52320,note_on,,,,,0,0,3,,,2,,,65,80
52320,note_on,,,,,0,0,3,,,2,,,62,80
52368,note_off,,,,,48,0,3,,,2,,,62,64
52368,note_off,,,,,0,0,3,,,2,,,65,64
52368,note_off,,,,,0,0,3,,,2,,,70,64
52380,note_on,,,,,12,0,3,,,2,,,65,80
52380,note_on,,,,,0,0,3,,,2,,,62,80
52380,note_on,,,,,0,0,3,,,2,,,69,80
52416,note_off,,,,,96,0,2,,,1,,,70,64
52416,note_off,,,,,96,0,1,,,0,,,74,64
52416,note_off,,,,,96,0,4,,,3,,,46,64
52428,note_off,,,,,48,0,3,,,2,,,69,64
52428,note_off,,,,,0,0,3,,,2,,,62,64
52428,note_off,,,,,0,0,3,,,2,,,65,64
52440,note_on,,,,,24,0,4,,,3,,,58,80
52440,note_on,,,,,24,0,1,,,0,,,74,80
52440,note_on,,,,,12,0,3,,,2,,,70,80
52440,note_on,,,,,0,0,3,,,2,,,62,80
52440,note_on,,,,,0,0,3,,,2,,,65,80
52440,note_on,,,,,24,0,2,,,1,,,70,80
52488,note_off,,,,,48,0,3,,,2,,,65,64
52488,note_off,,,,,0,0,3,,,2,,,62,64
52488,note_off,,,,,0,0,3,,,2,,,70,64
52500,note_on,,,,,12,0,3,,,2,,,65,80
52500,note_on,,,,,0,0,3,,,2,,,62,80
52500,note_on,,,,,0,0,3,,,2,,,72,80
52536,note_off,,,,,96,0,4,,,3,,,58,64
52548,note_off,,,,,48,0,3,,,2,,,72,64
52548,note_off,,,,,0,0,3,,,2,,,62,64
52548,note_off,,,,,0,0,3,,,2,,,65,64
52560,note_on,,,,,12,0,3,,,2,,,70,80
52560,note_on,,,,,0,0,3,,,2,,,65,80
52560,note_on,,,,,24,0,4,,,3,,,58,80
52560,note_on,,,,,0,0,3,,,2,,,62,80
52608,note_off,,,,,0,0,3,,,2,,,62,64
52608,note_off,,,,,0,0,3,,,2,,,70,64
52608,note_off,,,,,48,0,3,,,2,,,65,64
52620,note_on,,,,,12,0,3,,,2,,,62,80
52620,note_on,,,,,0,0,3,,,2,,,69,80
52620,note_on,,,,,0,0,3,,,2,,,65,80
52632,note_off,,,,,192,0,1,,,0,,,74,64
52632,note_off,,,,,192,0,2,,,1,,,70,64
52656,note_off,,,,,96,0,4,,,3,,,58,64
52668,note_off,,,,,48,0,3,,,2,,,65,64
52668,note_off,,,,,0,0,3,,,2,,,69,64
52668,note_off,,,,,0,0,3,,,2,,,62,64
52680,note_on,,,,,48,0,1,,,0,,,74,80
52680,note_on,,,,,24,0,4,,,3,,,46,80
52680,note_on,,,,,48,0,2,,,1,,,70,80
52680,note_on,,,,,12,0,3,,,2,,,62,80
52680,note_on,,,,,0,0,3,,,2,,,67,80
52728,note_off,,,,,48,0,3,,,2,,,67,64
52728,note_off,,,,,0,0,3,,,2,,,62,64
52740,note_on,,,,,12,0,3,,,2,,,62,80
52740,note_on,,,,,0,0,3,,,2,,,65,80
52776,note_off,,,,,96,0,4,,,3,,,46,64
52776,note_off,,,,,96,0,2,,,1,,,70,64
52776,note_off,,,,,96,0,1,,,0,,,74,64
52788,note_off,,,,,0,0,3,,,2,,,62,64
52788,note_off,,,,,48,0,3,,,2,,,65,64
52800,note_on,,,,,24,0,1,,,0,,,76,80
52800,note_on,,,,,24,0,2,,,1,,,70,80
52800,note_on,,,,,24,0,4,,,3,,,40,80
52800,note_on,,,,,12,0,3,,,2,,,67,80
52800,note_on,,,,,0,0,3,,,2,,,58,80
52800,note_on,,,,,0,0,3,,,2,,,64,80
52848,note_off,,,,,48,0,1,,,0,,,76,64
52860,note_on,,,,,12,0,1,,,0,,,74,80
52896,note_off,,,,,96,0,2,,,1,,,70,64
52896,note_off,,,,,96,0,4,,,3,,,40,64
52896,note_off,,,,,0,0,3,,,2,,,58,64
52896,note_off,,,,,0,0,3,,,2,,,67,64
52896,note_off,,,,,96,0,3,,,2,,,64,64
52908,note_off,,,,,48,0,1,,,0,,,74,64
52920,note_on,,,,,12,0,1,,,0,,,76,80
52920,note_on,,,,,24,0,4,,,3,,,52,80
52920,note_on,,,,,0,0,3,,,2,,,64,80
52920,note_on,,,,,24,0,2,,,1,,,70,80
52920,note_on,,,,,0,0,3,,,2,,,67,80
52920,note_on,,,,,24,0,3,,,2,,,58,80
52968,note_off,,,,,48,0,1,,,0,,,76,64
52980,note_on,,,,,12,0,1,,,0,,,77,80
53016,note_off,,,,,96,0,4,,,3,,,52,64
53016,note_off,,,,,96,0,2,,,1,,,70,64
53028,note_off,,,,,48,0,1,,,0,,,77,64
53040,note_on,,,,,24,0,2,,,1,,,70,80
53040,note_on,,,,,12,0,1,,,0,,,76,80
53040,note_on,,,,,24,0,4,,,3,,,52,80
53088,note_off,,,,,48,0,1,,,0,,,76,64
53100,note_on,,,,,12,0,1,,,0,,,74,80
53112,note_off,,,,,192,0,3,,,2,,,64,64
53112,note_off,,,,,0,0,3,,,2,,,67,64
53112,note_off,,,,,0,0,3,,,2,,,58,64
53136,note_off,,,,,96,0,2,,,1,,,70,64
53136,note_off,,,,,96,0,4,,,3,,,52,64
53148,note_off,,,,,48,0,1,,,0,,,74,64
53160,note_on,,,,,24,0,4,,,3,,,40,80
53160,note_on,,,,,12,0,1,,,0,,,73,80
53160,note_on,,,,,48,0,3,,,2,,,64,80
53160,note_on,,,,,0,0,3,,,2,,,58,80
53160,note_on,,,,,0,0,3,,,2,,,67,80
53160,note_on,,,,,24,0,2,,,1,,,70,80
53208,note_off,,,,,48,0,1,,,0,,,73,64
53220,note_on,,,,,12,0,1,,,0,,,71,80
53256,note_off,,,,,96,0,2,,,1,,,70,64
53256,note_off,,,,,0,0,3,,,2,,,58,64
53256,note_off,,,,,96,0,4,,,3,,,40,64
53256,note_off,,,,,0,0,3,,,2,,,64,64
53256,note_off,,,,,96,0,3,,,2,,,67,64
53268,note_off,,,,,48,0,1,,,0,,,71,64
53280,note_on,,,,,12,0,1,,,0,,,73,80
53280,note_on,,,,,0,0,3,,,2,,,61,80
53280,note_on,,,,,24,0,2,,,1,,,69,80
53280,note_on,,,,,24,0,4,,,3,,,45,80
53280,note_on,,,,,24,0,3,,,2,,,64,80
53280,note_on,,,,,0,0,3,,,2,,,69,80
53376,note_off,,,,,96,0,3,,,2,,,61,64
53376,note_off,,,,,0,0,3,,,2,,,64,64
53376,note_off,,,,,96,0,1,,,0,,,73,64
53376,note_off,,,,,0,0,3,,,2,,,69,64
53376,note_off,,,,,96,0,4,,,3,,,45,64
53376,note_off,,,,,96,0,2,,,1,,,69,64
53400,note_on,,,,,0,0,3,,,2,,,69,80
53400,note_on,,,,,24,0,4,,,3,,,57,80
53400,note_on,,,,,24,0,3,,,2,,,64,80
53400,note_on,,,,,24,0,1,,,0,,,69,80
53400,note_on,,,,,0,0,3,,,2,,,61,80
53448,note_off,,,,,48,0,4,,,3,,,57,64
53460,note_on,,,,,12,0,4,,,3,,,55,80
53496,note_off,,,,,96,0,3,,,2,,,69,64
53496,note_off,,,,,0,0,3,,,2,,,61,64
53496,note_off,,,,,0,0,3,,,2,,,64,64
53496,note_off,,,,,96,0,1,,,0,,,69,64
53508,note_off,,,,,48,0,4,,,3,,,55,64
53520,note_on,,,,,12,0,4,,,3,,,57,80
53616,note_off,,,,,96,0,4,,,3,,,57,64
53640,note_on,,,,,144,0,1,,,0,,,76,80
53640,note_on,,,,,24,0,4,,,3,,,45,80
53640,note_on,,,,,264,0,2,,,1,,,73,80
53736,note_off,,,,,96,0,4,,,3,,,45,64
53736,note_off,,,,,96,0,2,,,1,,,73,64
53736,note_off,,,,,96,0,1,,,0,,,76,64
53760,note_on,,,,,24,0,1,,,0,,,77,80
53760,note_on,,,,,24,0,2,,,1,,,74,80
53760,note_on,,,,,24,0,4,,,3,,,38,80
53808,note_off,,,,,48,0,2,,,1,,,74,64
53808,note_off,,,,,48,0,1,,,0,,,77,64
53820,note_on,,,,,12,0,1,,,0,,,79,80
53820,note_on,,,,,12,0,2,,,1,,,76,80
53856,note_off,,,,,96,0,4,,,3,,,38,64
53868,note_off,,,,,48,0,1,,,0,,,79,64
53868,note_off,,,,,48,0,2,,,1,,,76,64
53880,note_on,,,,,12,0,1,,,0,,,81,80
53880,note_on,,,,,24,0,4,,,3,,,50,80
53880,note_on,,,,,12,0,2,,,1,,,77,80
53928,note_off,,,,,48,0,4,,,3,,,50,64
53940,note_on,,,,,12,0,4,,,3,,,48,80
53976,note_off,,,,,96,0,1,,,0,,,81,64
53976,note_off,,,,,96,0,2,,,1,,,77,64
53988,note_off,,,,,48,0,4,,,3,,,48,64
54000,note_on,,,,,12,0,4,,,3,,,50,80
54096,note_off,,,,,96,0,4,,,3,,,50,64
54120,note_on,,,,,144,0,1,,,0,,,77,80
54120,note_on,,,,,144,0,2,,,1,,,74,80
54120,note_on,,,,,24,0,4,,,3,,,38,80
54216,note_off,,,,,96,0,2,,,1,,,74,64
54216,note_off,,,,,96,0,1,,,0,,,77,64
54216,note_off,,,,,96,0,4,,,3,,,38,64
54240,note_on,,,,,24,0,1,,,0,,,76,80
54240,note_on,,,,,24,0,4,,,3,,,45,80
54240,note_on,,,,,24,0,2,,,1,,,73,80
54288,note_off,,,,,48,0,1,,,0,,,76,64
54288,note_off,,,,,48,0,2,,,1,,,73,64
54300,note_on,,,,,12,0,2,,,1,,,74,80
54300,note_on,,,,,12,0,1,,,0,,,77,80
54336,note_off,,,,,96,0,4,,,3,,,45,64
54348,note_off,,,,,48,0,1,,,0,,,77,64
54348,note_off,,,,,48,0,2,,,1,,,74,64
54360,note_on,,,,,12,0,1,,,0,,,79,80
54360,note_on,,,,,24,0,4,,,3,,,57,80
54360,note_on,,,,,12,0,2,,,1,,,76,80
54408,note_off,,,,,48,0,4,,,3,,,57,64
54420,note_on,,,,,12,0,4,,,3,,,55,80
54456,note_off,,,,,96,0,2,,,1,,,76,64
54456,note_off,,,,,96,0,1,,,0,,,79,64
54468,note_off,,,,,48,0,4,,,3,,,55,64
54480,note_on,,,,,12,0,4,,,3,,,57,80
54576,note_off,,,,,96,0,4,,,3,,,57,64
54600,note_on,,,,,144,0,1,,,0,,,76,80
54600,note_on,,,,,24,0,4,,,3,,,45,80
54600,note_on,,,,,144,0,2,,,1,,,73,80
54696,note_off,,,,,96,0,1,,,0,,,76,64
54696,note_off,,,,,96,0,2,,,1,,,73,64
54696,note_off,,,,,96,0,4,,,3,,,45,64
54720,note_on,,,,,24,0,1,,,0,,,77,80
54720,note_on,,,,,24,0,4,,,3,,,38,80
54720,note_on,,,,,24,0,2,,,1,,,74,80
54768,note_off,,,,,48,0,2,,,1,,,74,64
54768,note_off,,,,,48,0,1,,,0,,,77,64
54780,note_on,,,,,12,0,2,,,1,,,76,80
54780,note_on,,,,,12,0,1,,,0,,,79,80
54816,note_off,,,,,96,0,4,,,3,,,38,64
54828,note_off,,,,,48,0,1,,,0,,,79,64
54828,note_off,,,,,48,0,2,,,1,,,76,64
54840,note_on,,,,,24,0,4,,,3,,,50,80
54840,note_on,,,,,12,0,2,,,1,,,77,80
54840,note_on,,,,,12,0,1,,,0,,,81,80
54888,note_off,,,,,48,0,4,,,3,,,50,64
54900,note_on,,,,,12,0,4,,,3,,,48,80
54936,note_off,,,,,96,0,2,,,1,,,77,64
54936,note_off,,,,,96,0,1,,,0,,,81,64
54948,note_off,,,,,48,0,4,,,3,,,48,64
54960,note_on,,,,,12,0,4,,,3,,,50,80
55056,note_off,,,,,96,0,4,,,3,,,50,64
55080,note_on,,,,,24,0,4,,,3,,,38,80
55080,note_on,,,,,144,0,1,,,0,,,77,80
55080,note_on,,,,,144,0,2,,,1,,,74,80
55176,note_off,,,,,96,0,2,,,1,,,74,64
55176,note_off,,,,,96,0,4,,,3,,,38,64
55176,note_off,,,,,96,0,1,,,0,,,77,64
55200,note_on,,,,,24,0,4,,,3,,,45,80
55200,note_on,,,,,24,0,2,,,1,,,74,80
55200,note_on,,,,,24,0,1,,,0,,,77,80
55296,note_off,,,,,96,0,2,,,1,,,74,64
55296,note_off,,,,,96,0,4,,,3,,,45,64
55296,note_off,,,,,96,0,1,,,0,,,77,64
55320,note_on,,,,,24,0,1,,,0,,,76,80
55320,note_on,,,,,24,0,4,,,3,,,57,80
55320,note_on,,,,,24,0,2,,,1,,,73,80
55368,note_off,,,,,48,0,4,,,3,,,57,64
55380,note_on,,,,,12,0,4,,,3,,,55,80
55416,note_off,,,,,96,0,1,,,0,,,76,64
55416,note_off,,,,,96,0,2,,,1,,,73,64
55428,note_off,,,,,48,0,4,,,3,,,55,64
55440,note_on,,,,,12,0,4,,,3,,,57,80
55536,note_off,,,,,96,0,4,,,3,,,57,64
55560,note_on,,,,,24,0,4,,,3,,,45,80
55656,note_off,,,,,96,0,4,,,3,,,45,64
55680,note_on,,,,,24,0,4,,,3,,,50,80
55680,note_on,,,,,264,0,1,,,0,,,81,80
55680,note_on,,,,,264,0,2,,,1,,,77,80
55776,note_off,,,,,96,0,4,,,3,,,50,64
55776,note_off,,,,,96,0,1,,,0,,,81,64
55776,note_off,,,,,96,0,2,,,1,,,77,64
55800,note_on,,,,,24,0,2,,,1,,,77,80
55800,note_on,,,,,24,0,1,,,0,,,81,80
55800,note_on,,,,,24,0,4,,,3,,,62,80
55896,note_off,,,,,96,0,4,,,3,,,62,64
55920,note_on,,,,,24,0,4,,,3,,,62,80
55992,note_off,,,,,192,0,2,,,1,,,77,64
55992,note_off,,,,,192,0,1,,,0,,,81,64
56016,note_off,,,,,96,0,4,,,3,,,62,64
56040,note_on,,,,,48,0,1,,,0,,,79,80
56040,note_on,,,,,24,0,4,,,3,,,50,80
56040,note_on,,,,,48,0,2,,,1,,,76,80
56136,note_off,,,,,96,0,1,,,0,,,79,64
56136,note_off,,,,,96,0,4,,,3,,,50,64
56136,note_off,,,,,96,0,2,,,1,,,76,64
56160,note_on,,,,,24,0,2,,,1,,,74,80
56160,note_on,,,,,24,0,1,,,0,,,77,80
56160,note_on,,,,,24,0,4,,,3,,,50,80
56256,note_off,,,,,96,0,4,,,3,,,50,64
56256,note_off,,,,,96,0,2,,,1,,,74,64
56256,note_off,,,,,96,0,1,,,0,,,77,64
56280,note_on,,,,,24,0,1,,,0,,,77,80
56280,note_on,,,,,24,0,2,,,1,,,74,80
56280,note_on,,,,,24,0,4,,,3,,,62,80
56376,note_off,,,,,96,0,4,,,3,,,62,64
56400,note_on,,,,,24,0,4,,,3,,,62,80
56472,note_off,,,,,192,0,2,,,1,,,74,64
56472,note_off,,,,,192,0,1,,,0,,,77,64
56496,note_off,,,,,96,0,4,,,3,,,62,64
56520,note_on,,,,,24,0,4,,,3,,,50,80
56520,note_on,,,,,48,0,1,,,0,,,76,80
56520,note_on,,,,,48,0,2,,,1,,,72,80
56616,note_off,,,,,96,0,4,,,3,,,50,64
56616,note_off,,,,,96,0,1,,,0,,,76,64
56616,note_off,,,,,96,0,2,,,1,,,72,64
56640,note_on,,,,,24,0,1,,,0,,,74,80
56640,note_on,,,,,24,0,2,,,1,,,70,80
56640,note_on,,,,,24,0,4,,,3,,,50,80
56736,note_off,,,,,96,0,1,,,0,,,74,64
56736,note_off,,,,,96,0,2,,,1,,,70,64
56736,note_off,,,,,96,0,4,,,3,,,50,64
56760,note_on,,,,,24,0,1,,,0,,,74,80
56760,note_on,,,,,24,0,2,,,1,,,70,80
56760,note_on,,,,,24,0,4,,,3,,,62,80
56856,note_off,,,,,96,0,4,,,3,,,62,64
56880,note_on,,,,,24,0,4,,,3,,,62,80
56952,note_off,,,,,192,0,2,,,1,,,70,64
56952,note_off,,,,,192,0,1,,,0,,,74,64
56976,note_off,,,,,96,0,4,,,3,,,62,64
57000,note_on,,,,,48,0,1,,,0,,,72,80
57000,note_on,,,,,48,0,2,,,1,,,69,80
57000,note_on,,,,,24,0,4,,,3,,,50,80
57096,note_off,,,,,96,0,2,,,1,,,69,64
57096,note_off,,,,,96,0,1,,,0,,,72,64
57096,note_off,,,,,96,0,4,,,3,,,50,64
57120,note_on,,,,,3624,0,3,,,2,,,70,80
57120,note_on,,,,,24,0,4,,,3,,,43,80
57120,note_on,,,,,24,0,2,,,1,,,67,80
57120,note_on,,,,,24,0,1,,,0,,,70,80
57120,note_on,,,,,0,0,3,,,2,,,79,80
57120,note_on,,,,,0,0,3,,,2,,,82,80
57216,note_off,,,,,96,0,4,,,3,,,43,64
57216,note_off,,,,,96,0,3,,,2,,,82,64
57216,note_off,,,,,0,0,3,,,2,,,79,64
57216,note_off,,,,,0,0,3,,,2,,,70,64
57216,note_off,,,,,96,0,2,,,1,,,67,64
57216,note_off,,,,,96,0,1,,,0,,,70,64
57240,note_on,,,,,0,0,3,,,2,,,79,80
57240,note_on,,,,,24,0,2,,,1,,,67,80
57240,note_on,,,,,24,0,4,,,3,,,55,80
57240,note_on,,,,,0,0,3,,,2,,,82,80
57240,note_on,,,,,24,0,1,,,0,,,70,80
57240,note_on,,,,,24,0,3,,,2,,,70,80
57336,note_off,,,,,96,0,4,,,3,,,55,64
57360,note_on,,,,,24,0,4,,,3,,,55,80
57432,note_off,,,,,0,0,3,,,2,,,70,64
57432,note_off,,,,,192,0,2,,,1,,,67,64
57432,note_off,,,,,192,0,1,,,0,,,70,64
57432,note_off,,,,,0,0,3,,,2,,,82,64
57432,note_off,,,,,192,0,3,,,2,,,79,64
57456,note_off,,,,,96,0,4,,,3,,,55,64
57480,note_on,,,,,24,0,4,,,3,,,43,80
57480,note_on,,,,,0,0,3,,,2,,,81,80
57480,note_on,,,,,0,0,3,,,2,,,77,80
57480,note_on,,,,,48,0,3,,,2,,,70,80
57576,note_off,,,,,0,0,3,,,2,,,70,64
57576,note_off,,,,,0,0,3,,,2,,,77,64
57576,note_off,,,,,96,0,3,,,2,,,81,64
57576,note_off,,,,,96,0,4,,,3,,,43,64
57600,note_on,,,,,24,0,4,,,3,,,43,80
57600,note_on,,,,,24,0,3,,,2,,,70,80
57600,note_on,,,,,0,0,3,,,2,,,76,80
57600,note_on,,,,,0,0,3,,,2,,,79,80
57696,note_off,,,,,96,0,3,,,2,,,79,64
57696,note_off,,,,,0,0,3,,,2,,,76,64
57696,note_off,,,,,0,0,3,,,2,,,70,64
57696,note_off,,,,,96,0,4,,,3,,,43,64
57720,note_on,,,,,24,0,4,,,3,,,55,80
57720,note_on,,,,,24,0,3,,,2,,,70,80
57720,note_on,,,,,0,0,3,,,2,,,76,80
57720,note_on,,,,,0,0,3,,,2,,,79,80
57816,note_off,,,,,96,0,4,,,3,,,55,64
57840,note_on,,,,,24,0,4,,,3,,,55,80
57912,note_off,,,,,192,0,3,,,2,,,79,64
57912,note_off,,,,,0,0,3,,,2,,,76,64
57912,note_off,,,,,0,0,3,,,2,,,70,64
57936,note_off,,,,,96,0,4,,,3,,,55,64
57960,note_on,,,,,24,0,4,,,3,,,43,80
57960,note_on,,,,,0,0,3,,,2,,,77,80
57960,note_on,,,,,0,0,3,,,2,,,74,80
57960,note_on,,,,,48,0,3,,,2,,,70,80
58056,note_off,,,,,0,0,3,,,2,,,77,64
58056,note_off,,,,,0,0,3,,,2,,,70,64
58056,note_off,,,,,96,0,4,,,3,,,43,64
58056,note_off,,,,,96,0,3,,,2,,,74,64
58080,note_on,,,,,0,0,3,,,2,,,76,80
58080,note_on,,,,,24,0,3,,,2,,,64,80
58080,note_on,,,,,24,0,4,,,3,,,44,80
58080,note_on,,,,,0,0,3,,,2,,,70,80
58176,note_off,,,,,0,0,3,,,2,,,64,64
58176,note_off,,,,,0,0,3,,,2,,,76,64
58176,note_off,,,,,96,0,4,,,3,,,44,64
58176,note_off,,,,,96,0,3,,,2,,,70,64
58200,note_on,,,,,24,0,4,,,3,,,56,80
58200,note_on,,,,,0,0,3,,,2,,,70,80
58200,note_on,,,,,0,0,3,,,2,,,76,80
58200,note_on,,,,,24,0,3,,,2,,,64,80
58296,note_off,,,,,96,0,4,,,3,,,56,64
58320,note_on,,,,,24,0,4,,,3,,,56,80
58392,note_off,,,,,0,0,3,,,2,,,70,64
58392,note_off,,,,,0,0,3,,,2,,,64,64
58392,note_off,,,,,192,0,3,,,2,,,76,64
58416,note_off,,,,,96,0,4,,,3,,,56,64
58440,note_on,,,,,0,0,3,,,2,,,74,80
58440,note_on,,,,,48,0,3,,,2,,,64,80
58440,note_on,,,,,0,0,3,,,2,,,70,80
58440,note_on,,,,,24,0,4,,,3,,,44,80
58536,note_off,,,,,96,0,4,,,3,,,44,64
58536,note_off,,,,,0,0,3,,,2,,,64,64
58536,note_off,,,,,96,0,3,,,2,,,74,64
58536,note_off,,,,,0,0,3,,,2,,,70,64
58560,note_on,,,,,24,0,4,,,3,,,45,80
58560,note_on,,,,,0,0,3,,,2,,,73,80
58560,note_on,,,,,0,0,3,,,2,,,69,80
58560,note_on,,,,,24,0,3,,,2,,,64,80
58656,note_off,,,,,96,0,4,,,3,,,45,64
58656,note_off,,,,,0,0,3,,,2,,,64,64
58656,note_off,,,,,0,0,3,,,2,,,69,64
58656,note_off,,,,,96,0,3,,,2,,,73,64
58680,note_on,,,,,24,0,3,,,2,,,73,80
58680,note_on,,,,,24,0,4,,,3,,,57,80
58680,note_on,,,,,1248,0,1,,,0,,,76,80
58728,note_off,,,,,48,0,3,,,2,,,73,64
58740,note_on,,,,,12,0,3,,,2,,,74,80
58776,note_off,,,,,96,0,1,,,0,,,76,64
58776,note_off,,,,,96,0,4,,,3,,,57,64
58788,note_off,,,,,48,0,3,,,2,,,74,64
58800,note_on,,,,,24,0,4,,,3,,,61,80
58800,note_on,,,,,12,0,3,,,2,,,76,80
58800,note_on,,,,,24,0,1,,,0,,,81,80
58848,note_off,,,,,48,0,3,,,2,,,76,64
58860,note_on,,,,,12,0,3,,,2,,,77,80
58896,note_off,,,,,96,0,4,,,3,,,61,64
58908,note_off,,,,,48,0,3,,,2,,,77,64
58920,note_on,,,,,12,0,3,,,2,,,79,80
58920,note_on,,,,,0,0,3,,,2,,,73,80
58920,note_on,,,,,1488,0,2,,,1,,,76,80
58920,note_on,,,,,24,0,4,,,3,,,57,80
58968,note_off,,,,,48,0,3,,,2,,,73,64
58968,note_off,,,,,0,0,3,,,2,,,79,64
58980,note_on,,,,,12,0,3,,,2,,,76,80
58980,note_on,,,,,0,0,3,,,2,,,73,80
59016,note_off,,,,,96,0,2,,,1,,,76,64
59016,note_off,,,,,96,0,4,,,3,,,57,64
59028,note_off,,,,,48,0,3,,,2,,,73,64
59028,note_off,,,,,0,0,3,,,2,,,76,64
59040,note_on,,,,,24,0,2,,,1,,,77,80
59040,note_on,,,,,12,0,3,,,2,,,77,80
59040,note_on,,,,,0,0,3,,,2,,,74,80
59040,note_on,,,,,0,0,3,,,2,,,69,80
59040,note_on,,,,,24,0,4,,,3,,,62,80
59088,note_off,,,,,288,0,1,,,0,,,81,64
59136,note_off,,,,,0,0,3,,,2,,,74,64
59136,note_off,,,,,0,0,3,,,2,,,77,64
59136,note_off,,,,,96,0,2,,,1,,,77,64
59136,note_off,,,,,96,0,3,,,2,,,69,64
59136,note_off,,,,,96,0,4,,,3,,,62,64
59160,note_on,,,,,72,0,1,,,0,,,79,80
59160,note_on,,,,,24,0,3,,,2,,,70,80
59160,note_on,,,,,0,0,3,,,2,,,74,80
59160,note_on,,,,,24,0,4,,,3,,,55,80
59160,note_on,,,,,0,0,3,,,2,,,65,80
59160,note_on,,,,,24,0,2,,,1,,,76,80
59208,note_off,,,,,48,0,1,,,0,,,79,64
59208,note_off,,,,,48,0,2,,,1,,,76,64
59220,note_on,,,,,12,0,1,,,0,,,77,80
59220,note_on,,,,,12,0,2,,,1,,,74,80
59256,note_off,,,,,96,0,3,,,2,,,74,64
59256,note_off,,,,,0,0,3,,,2,,,70,64
59256,note_off,,,,,0,0,3,,,2,,,65,64
59256,note_off,,,,,96,0,4,,,3,,,55,64
59268,note_off,,,,,48,0,1,,,0,,,77,64
59268,note_off,,,,,48,0,2,,,1,,,74,64
59280,note_on,,,,,24,0,3,,,2,,,64,80
59280,note_on,,,,,0,0,3,,,2,,,69,80
59280,note_on,,,,,24,0,4,,,3,,,57,80
59280,note_on,,,,,0,0,3,,,2,,,73,80
59280,note_on,,,,,0,0,3,,,2,,,69,80
59280,note_on,,,,,12,0,2,,,1,,,73,80
59280,note_on,,,,,12,0,1,,,0,,,76,80
59376,note_off,,,,,96,0,4,,,3,,,57,64
59400,note_on,,,,,24,0,4,,,3,,,45,80
59424,note_off,,,,,144,0,2,,,1,,,73,64
59424,note_off,,,,,144,0,1,,,0,,,76,64
59460,note_on,,,,,36,0,1,,,0,,,74,80
59472,note_off,,,,,192,0,3,,,2,,,69,64
59472,note_off,,,,,0,0,3,,,2,,,69,64
59472,note_off,,,,,0,0,3,,,2,,,73,64
59472,note_off,,,,,0,0,3,,,2,,,64,64
59496,note_off,,,,,96,0,4,,,3,,,45,64
59508,note_off,,,,,48,0,1,,,0,,,74,64
59520,note_on,,,,,12,0,1,,,0,,,74,80
59520,note_on,,,,,24,0,4,,,3,,,50,80
59520,note_on,,,,,0,0,3,,,2,,,74,80
59520,note_on,,,,,0,0,3,,,2,,,69,80
59520,note_on,,,,,48,0,3,,,2,,,65,80
59616,note_off,,,,,0,0,3,,,2,,,69,64
59616,note_off,,,,,0,0,3,,,2,,,65,64
59616,note_off,,,,,96,0,4,,,3,,,50,64
59616,note_off,,,,,96,0,3,,,2,,,74,64
59640,note_on,,,,,24,0,4,,,3,,,52,80
59640,note_on,,,,,24,0,3,,,2,,,74,80
59712,note_off,,,,,192,0,1,,,0,,,74,64
59736,note_off,,,,,96,0,3,,,2,,,74,64
59736,note_off,,,,,96,0,4,,,3,,,52,64
59760,note_on,,,,,24,0,4,,,3,,,53,80
59760,note_on,,,,,24,0,3,,,2,,,81,80
59856,note_off,,,,,96,0,3,,,2,,,81,64
59856,note_off,,,,,96,0,4,,,3,,,53,64
59880,note_on,,,,,24,0,3,,,2,,,76,80
59880,note_on,,,,,0,0,3,,,2,,,69,80
59880,note_on,,,,,0,0,3,,,2,,,81,80
59880,note_on,,,,,24,0,4,,,3,,,49,80
59976,note_off,,,,,96,0,3,,,2,,,81,64
59976,note_off,,,,,0,0,3,,,2,,,69,64
59976,note_off,,,,,0,0,3,,,2,,,76,64
59976,note_off,,,,,96,0,4,,,3,,,49,64
60000,note_on,,,,,24,0,4,,,3,,,50,80
60000,note_on,,,,,0,0,3,,,2,,,77,80
60000,note_on,,,,,0,0,3,,,2,,,69,80
60000,note_on,,,,,24,0,3,,,2,,,81,80
60096,note_off,,,,,96,0,4,,,3,,,50,64
60096,note_off,,,,,0,0,3,,,2,,,81,64
60096,note_off,,,,,0,0,3,,,2,,,69,64
60096,note_off,,,,,96,0,3,,,2,,,77,64
60120,note_on,,,,,24,0,4,,,3,,,55,80
60120,note_on,,,,,0,0,3,,,2,,,76,80
60120,note_on,,,,,24,0,3,,,2,,,79,80
60120,note_on,,,,,0,0,3,,,2,,,70,80
60168,note_off,,,,,48,0,3,,,2,,,76,64
60168,note_off,,,,,0,0,3,,,2,,,70,64
60168,note_off,,,,,0,0,3,,,2,,,79,64
60180,note_on,,,,,12,0,3,,,2,,,74,80
60180,note_on,,,,,0,0,3,,,2,,,70,80
60180,note_on,,,,,0,0,3,,,2,,,77,80
60216,note_off,,,,,96,0,4,,,3,,,55,64
60228,note_off,,,,,0,0,3,,,2,,,74,64
60228,note_off,,,,,0,0,3,,,2,,,70,64
60228,note_off,,,,,48,0,3,,,2,,,77,64
60240,note_on,,,,,24,0,4,,,3,,,57,80
60240,note_on,,,,,0,0,3,,,2,,,76,80
60240,note_on,,,,,12,0,3,,,2,,,73,80
60336,note_off,,,,,96,0,4,,,3,,,57,64
60360,note_on,,,,,24,0,4,,,3,,,45,80
60384,note_off,,,,,0,0,3,,,2,,,73,64
60384,note_off,,,,,144,0,3,,,2,,,76,64
60420,note_on,,,,,0,0,3,,,2,,,74,80
60420,note_on,,,,,36,0,3,,,2,,,69,80
60456,note_off,,,,,96,0,4,,,3,,,45,64
60468,note_off,,,,,0,0,3,,,2,,,69,64
60468,note_off,,,,,48,0,3,,,2,,,74,64
60480,note_on,,,,,0,0,3,,,2,,,74,80
60480,note_on,,,,,0,0,3,,,2,,,69,80
60480,set_tempo,,,,,60480,1,0,571429,,,,,,
60480,note_on,,,,,24,0,4,,,3,,,50,80
60480,note_on,,,,,12,0,3,,,2,,,65,80
60576,note_off,,,,,0,0,3,,,2,,,65,64
60576,note_off,,,,,0,0,3,,,2,,,69,64
60576,note_off,,,,,96,0,3,,,2,,,74,64
60576,note_off,,,,,96,0,4,,,3,,,50,64
60600,note_on,,,,,24,0,4,,,3,,,50,80
60600,note_on,,,,,0,0,3,,,2,,,69,80
60600,note_on,,,,,1176,0,2,,,1,,,74,80
60600,note_on,,,,,0,0,3,,,2,,,74,80
60600,note_on,,,,,24,0,3,,,2,,,77,80
60600,note_on,,,,,888,0,1,,,0,,,77,80
60696,note_off,,,,,0,0,3,,,2,,,77,64
60696,note_off,,,,,0,0,3,,,2,,,74,64
60696,note_off,,,,,96,0,3,,,2,,,69,64
60696,note_off,,,,,96,0,1,,,0,,,77,64
60696,note_off,,,,,96,0,4,,,3,,,50,64
60696,note_off,,,,,96,0,2,,,1,,,74,64
60720,note_on,,,,,0,0,3,,,2,,,70,80
60720,note_on,,,,,24,0,4,,,3,,,43,80
60720,note_on,,,,,24,0,3,,,2,,,76,80
60720,note_on,,,,,24,0,2,,,1,,,76,80
60720,note_on,,,,,24,0,1,,,0,,,79,80
60720,note_on,,,,,0,0,3,,,2,,,79,80
60816,note_off,,,,,96,0,3,,,2,,,70,64
60816,note_off,,,,,0,0,3,,,2,,,79,64
60816,note_off,,,,,0,0,3,,,2,,,76,64
60816,note_off,,,,,96,0,1,,,0,,,79,64
60816,note_off,,,,,96,0,4,,,3,,,43,64
60816,note_off,,,,,96,0,2,,,1,,,76,64
60840,note_on,,,,,24,0,2,,,1,,,73,80
60840,note_on,,,,,24,0,3,,,2,,,69,80
60840,note_on,,,,,0,0,3,,,2,,,73,80
60840,note_on,,,,,24,0,1,,,0,,,76,80
60840,note_on,,,,,0,0,3,,,2,,,76,80
60840,note_on,,,,,24,0,4,,,3,,,45,80
60936,note_off,,,,,96,0,4,,,3,,,45,64
60936,note_off,,,,,96,0,2,,,1,,,73,64
60936,note_off,,,,,96,0,1,,,0,,,76,64
60936,note_off,,,,,96,0,3,,,2,,,76,64
60936,note_off,,,,,0,0,3,,,2,,,69,64
60936,note_off,,,,,0,0,3,,,2,,,73,64
60960,note_on,,,,,24,0,2,,,1,,,74,80
60960,note_on,,,,,24,0,4,,,3,,,38,80
60960,note_on,,,,,24,0,1,,,0,,,77,80
60960,note_on,,,,,0,0,3,,,2,,,77,80
60960,note_on,,,,,0,0,3,,,2,,,74,80
60960,note_on,,,,,24,0,3,,,2,,,69,80
61056,note_off,,,,,96,0,1,,,0,,,77,64
61056,note_off,,,,,96,0,2,,,1,,,74,64
61056,note_off,,,,,96,0,3,,,2,,,74,64
61056,note_off,,,,,0,0,3,,,2,,,77,64
61056,note_off,,,,,96,0,4,,,3,,,38,64
61056,note_off,,,,,0,0,3,,,2,,,69,64
61080,note_on,,,,,24,0,1,,,0,,,77,80
61080,note_on,,,,,24,0,2,,,1,,,74,80
61080,note_on,,,,,24,0,4,,,3,,,50,80
61080,note_on,,,,,0,0,3,,,2,,,77,80
61080,note_on,,,,,24,0,3,,,2,,,69,80
61080,note_on,,,,,0,0,3,,,2,,,74,80
61176,note_off,,,,,96,0,4,,,3,,,50,64
61176,note_off,,,,,96,0,3,,,2,,,74,64
61176,note_off,,,,,0,0,3,,,2,,,77,64
61176,note_off,,,,,0,0,3,,,2,,,69,64
61176,note_off,,,,,96,0,1,,,0,,,77,64
61176,note_off,,,,,96,0,2,,,1,,,74,64
61200,note_on,,,,,24,0,1,,,0,,,79,80
61200,note_on,,,,,0,0,3,,,2,,,70,80
61200,note_on,,,,,24,0,4,,,3,,,43,80
61200,note_on,,,,,0,0,3,,,2,,,76,80
61200,note_on,,,,,24,0,2,,,1,,,76,80
61200,note_on,,,,,24,0,3,,,2,,,79,80
61296,note_off,,,,,0,0,3,,,2,,,76,64
61296,note_off,,,,,96,0,4,,,3,,,43,64
61296,note_off,,,,,96,0,2,,,1,,,76,64
61296,note_off,,,,,96,0,3,,,2,,,70,64
61296,note_off,,,,,0,0,3,,,2,,,79,64
61296,note_off,,,,,96,0,1,,,0,,,79,64
61320,note_on,,,,,24,0,2,,,1,,,73,80
61320,note_on,,,,,24,0,1,,,0,,,76,80
61320,note_on,,,,,24,0,4,,,3,,,45,80
61320,note_on,,,,,24,0,3,,,2,,,69,80
61320,note_on,,,,,0,0,3,,,2,,,76,80
61320,note_on,,,,,0,0,3,,,2,,,73,80
61416,note_off,,,,,96,0,1,,,0,,,76,64
61416,note_off,,,,,0,0,3,,,2,,,69,64
61416,note_off,,,,,96,0,4,,,3,,,45,64
61416,note_off,,,,,96,0,3,,,2,,,73,64
61416,note_off,,,,,96,0,2,,,1,,,73,64
61416,note_off,,,,,0,0,3,,,2,,,76,64
61440,note_on,,,,,24,0,2,,,1,,,74,80
61440,time_signature,5,4,24,8,960,1,0,,,,,,,
61440,note_on,,,,,24,0,4,,,3,,,38,80
61440,note_on,,,,,0,0,3,,,2,,,77,80
61440,note_on,,,,,0,0,3,,,2,,,74,80
61440,note_on,,,,,24,0,3,,,2,,,69,80
61440,note_on,,,,,24,0,1,,,0,,,74,80
61440,set_tempo,,,,,0,1,0,631579,,,,,,
62400,note_off,,,,,960,0,2,,,1,,,74,64
62400,note_off,,,,,960,0,1,,,0,,,74,64
62400,end_of_track,,,,,0,1,1,,,,,,,
62400,end_of_track,,,,,0,1,2,,,,,,,
62400,end_of_track,,,,,0,1,3,,,,,,,
62400,note_off,,,,,0,0,3,,,2,,,69,64
62400,note_off,,,,,0,0,3,,,2,,,74,64
62400,note_off,,,,,960,0,3,,,2,,,77,64
62400,note_off,,,,,960,0,4,,,3,,,38,64
62400,end_of_track,,,,,0,1,4,,,,,,,
62640,end_of_track,,,,,0,1,0,,,,,,,
62640,set_tempo,,,,,1200,1,0,600000,,,,,,
