tick,type,numerator,denominator,clocks_per_click,notated_32nd_notes_per_beat,time,meta,track,tempo,data,program,channel,control,value,note,velocity
0,time_signature,4,4,24,8,0,1,0,,,,,,,,
0,set_tempo,,,,,0,1,0,576923,,,,,,,
0,text,,,,,0,1,0,,,,,,,,
0,copyright,,,,,0,1,0,,,,,,,,
0,track_name,,,,,0,1,0,,,,,,,,
0,sysex,,,,,0,0,0,,"(67, 16, 76, 0, 0, 126, 0)",,,,,,
0,program_change,,,,,0,0,0,,,115,5,,,,
100,text,,,,,100,1,0,,,,,,,,
100,control_change,,,,,0,0,0,,,,0,0,0,,
150,control_change,,,,,50,0,0,,,,0,32,0,,
200,control_change,,,,,50,0,0,,,,0,0,0,,
200,control_change,,,,,0,0,0,,,,3,0,0,,
250,control_change,,,,,50,0,0,,,,0,32,0,,
300,control_change,,,,,50,0,0,,,,3,32,0,,
480,note_on,,,,,180,0,0,,,,5,,,51,72
530,program_change,,,,,50,0,0,,,6,0,,,,
560,program_change,,,,,30,0,0,,,6,0,,,,
576,note_on,,,,,16,0,0,,,,5,,,51,0
580,control_change,,,,,4,0,0,,,,2,0,0,,
680,control_change,,,,,100,0,0,,,,2,32,0,,
760,program_change,,,,,80,0,0,,,73,3,,,,
780,control_change,,,,,20,0,0,,,,0,7,100,,
790,control_change,,,,,10,0,0,,,,0,7,100,,
960,note_on,,,,,170,0,0,,,,5,,,51,72
1056,note_on,,,,,96,0,0,,,,5,,,51,0
1080,control_change,,,,,24,0,0,,,,3,7,100,,
1108,program_change,,,,,28,0,0,,,73,2,,,,
1114,control_change,,,,,6,0,0,,,,2,7,100,,
1440,note_on,,,,,326,0,0,,,,5,,,51,72
1536,note_on,,,,,96,0,0,,,,5,,,51,0
1920,note_on,,,,,384,0,0,,,,0,,,72,88
1920,note_on,,,,,0,0,0,,,,0,,,64,88
1920,note_on,,,,,0,0,0,,,,0,,,48,88
2068,control_change,,,,,148,0,0,,,,3,10,80,,
2140,note_on,,,,,72,0,0,,,,0,,,48,0
2140,note_on,,,,,0,0,0,,,,0,,,64,0
2140,note_on,,,,,0,0,0,,,,0,,,72,0
2160,note_on,,,,,20,0,0,,,,0,,,76,88
2160,note_on,,,,,0,0,0,,,,0,,,67,88
2164,note_on,,,,,4,0,0,,,,0,,,60,88
2270,note_on,,,,,106,0,0,,,,0,,,76,0
2280,note_on,,,,,10,0,0,,,,0,,,74,88
2380,note_on,,,,,100,0,0,,,,0,,,67,0
2384,note_on,,,,,4,0,0,,,,0,,,60,0
2390,note_on,,,,,6,0,0,,,,0,,,74,0
2400,note_on,,,,,10,0,0,,,,0,,,72,88
2400,note_on,,,,,0,0,0,,,,0,,,64,88
2400,note_on,,,,,0,0,0,,,,0,,,48,88
2620,note_on,,,,,220,0,0,,,,0,,,48,0
2620,note_on,,,,,0,0,0,,,,0,,,64,0
2620,note_on,,,,,0,0,0,,,,0,,,72,0
2640,note_on,,,,,20,0,0,,,,0,,,79,88
2640,note_on,,,,,0,0,0,,,,0,,,72,88
2644,note_on,,,,,4,0,0,,,,0,,,60,88
2660,control_change,,,,,16,0,0,,,,2,10,40,,
2750,note_on,,,,,90,0,0,,,,0,,,79,0
2760,note_on,,,,,10,0,0,,,,0,,,77,88
2860,note_on,,,,,100,0,0,,,,0,,,72,0
2864,note_on,,,,,4,0,0,,,,0,,,60,0
2870,note_on,,,,,6,0,0,,,,0,,,77,0
2880,note_on,,,,,10,0,0,,,,0,,,76,88
2880,note_on,,,,,0,0,0,,,,0,,,67,88
2880,note_on,,,,,0,0,0,,,,0,,,48,88
3100,note_on,,,,,220,0,0,,,,0,,,48,0
3100,note_on,,,,,0,0,0,,,,0,,,67,0
3100,note_on,,,,,0,0,0,,,,0,,,76,0
3120,note_on,,,,,20,0,0,,,,0,,,79,88
3120,note_on,,,,,0,0,0,,,,0,,,72,88
3124,note_on,,,,,4,0,0,,,,0,,,60,88
3340,note_on,,,,,216,0,0,,,,0,,,72,0
3340,note_on,,,,,0,0,0,,,,0,,,79,0
3344,note_on,,,,,4,0,0,,,,0,,,60,0
3360,note_on,,,,,16,0,0,,,,0,,,84,88
3360,note_on,,,,,0,0,0,,,,0,,,76,88
3360,note_on,,,,,0,0,0,,,,0,,,48,88
3580,note_on,,,,,220,0,0,,,,0,,,48,0
3580,note_on,,,,,0,0,0,,,,0,,,76,0
3580,note_on,,,,,0,0,0,,,,0,,,84,0
3600,note_on,,,,,20,0,0,,,,0,,,79,88
3600,note_on,,,,,0,0,0,,,,0,,,72,88
3604,note_on,,,,,4,0,0,,,,0,,,60,88
3820,note_on,,,,,216,0,0,,,,0,,,72,0
3820,note_on,,,,,0,0,0,,,,0,,,79,0
3824,note_on,,,,,4,0,0,,,,0,,,60,0
3840,note_on,,,,,16,0,0,,,,0,,,72,88
3840,note_on,,,,,0,0,0,,,,0,,,64,88
3840,note_on,,,,,0,0,0,,,,0,,,48,88
4060,note_on,,,,,220,0,0,,,,0,,,48,0
4060,note_on,,,,,0,0,0,,,,0,,,64,0
4060,note_on,,,,,0,0,0,,,,0,,,72,0
4080,note_on,,,,,20,0,0,,,,0,,,76,88
4080,note_on,,,,,0,0,0,,,,0,,,67,88
4084,note_on,,,,,4,0,0,,,,0,,,60,88
4190,note_on,,,,,106,0,0,,,,0,,,76,0
4200,note_on,,,,,10,0,0,,,,0,,,74,88
4300,note_on,,,,,100,0,0,,,,0,,,67,0
4304,note_on,,,,,4,0,0,,,,0,,,60,0
4310,note_on,,,,,6,0,0,,,,0,,,74,0
4320,note_on,,,,,10,0,0,,,,0,,,72,88
4320,note_on,,,,,0,0,0,,,,0,,,64,88
4320,note_on,,,,,0,0,0,,,,0,,,48,88
4540,note_on,,,,,220,0,0,,,,0,,,48,0
4540,note_on,,,,,0,0,0,,,,0,,,64,0
4540,note_on,,,,,0,0,0,,,,0,,,72,0
4560,note_on,,,,,20,0,0,,,,0,,,79,88
4560,note_on,,,,,0,0,0,,,,0,,,72,88
4564,note_on,,,,,4,0,0,,,,0,,,60,88
4670,note_on,,,,,106,0,0,,,,0,,,79,0
4680,note_on,,,,,10,0,0,,,,0,,,77,88
4780,note_on,,,,,100,0,0,,,,0,,,72,0
4784,note_on,,,,,4,0,0,,,,0,,,60,0
4790,note_on,,,,,6,0,0,,,,0,,,77,0
4800,note_on,,,,,10,0,0,,,,0,,,76,88
4800,note_on,,,,,0,0,0,,,,0,,,67,88
4800,note_on,,,,,0,0,0,,,,0,,,48,88
5020,note_on,,,,,220,0,0,,,,0,,,48,0
5020,note_on,,,,,0,0,0,,,,0,,,67,0
5020,note_on,,,,,0,0,0,,,,0,,,76,0
5040,note_on,,,,,20,0,0,,,,0,,,79,88
5040,note_on,,,,,0,0,0,,,,0,,,72,88
5044,note_on,,,,,4,0,0,,,,0,,,60,88
5260,note_on,,,,,216,0,0,,,,0,,,72,0
5260,note_on,,,,,0,0,0,,,,0,,,79,0
5264,note_on,,,,,4,0,0,,,,0,,,60,0
5280,note_on,,,,,16,0,0,,,,0,,,84,88
5280,note_on,,,,,0,0,0,,,,0,,,76,88
5280,note_on,,,,,0,0,0,,,,0,,,48,88
5500,note_on,,,,,220,0,0,,,,0,,,48,0
5500,note_on,,,,,0,0,0,,,,0,,,76,0
5500,note_on,,,,,0,0,0,,,,0,,,84,0
5520,note_on,,,,,20,0,0,,,,0,,,79,88
5520,note_on,,,,,0,0,0,,,,0,,,72,88
5524,note_on,,,,,4,0,0,,,,0,,,60,88
5740,note_on,,,,,216,0,0,,,,0,,,72,0
5740,note_on,,,,,0,0,0,,,,0,,,79,0
5744,note_on,,,,,4,0,0,,,,0,,,60,0
5760,note_on,,,,,16,0,0,,,,0,,,74,88
5760,note_on,,,,,0,0,0,,,,0,,,71,88
5760,note_on,,,,,0,0,0,,,,0,,,43,88
5980,note_on,,,,,220,0,0,,,,0,,,43,0
5980,note_on,,,,,0,0,0,,,,0,,,71,0
5980,note_on,,,,,0,0,0,,,,0,,,74,0
6000,note_on,,,,,20,0,0,,,,0,,,77,88
6000,note_on,,,,,0,0,0,,,,0,,,74,88
6004,note_on,,,,,4,0,0,,,,0,,,55,88
6110,note_on,,,,,106,0,0,,,,0,,,74,0
6110,note_on,,,,,0,0,0,,,,0,,,77,0
6120,note_on,,,,,10,0,0,,,,0,,,76,88
6120,note_on,,,,,0,0,0,,,,0,,,72,88
6224,note_on,,,,,104,0,0,,,,0,,,55,0
6230,note_on,,,,,6,0,0,,,,0,,,72,0
6230,note_on,,,,,0,0,0,,,,0,,,76,0
6240,note_on,,,,,10,0,0,,,,0,,,74,88
6240,note_on,,,,,0,0,0,,,,0,,,71,88
6240,note_on,,,,,0,0,0,,,,0,,,43,88
6460,note_on,,,,,220,0,0,,,,0,,,43,0
6460,note_on,,,,,0,0,0,,,,0,,,71,0
6460,note_on,,,,,0,0,0,,,,0,,,74,0
6480,note_on,,,,,20,0,0,,,,0,,,81,88
6480,note_on,,,,,0,0,0,,,,0,,,77,88
6484,note_on,,,,,4,0,0,,,,0,,,55,88
6590,note_on,,,,,106,0,0,,,,0,,,77,0
6590,note_on,,,,,0,0,0,,,,0,,,81,0
6600,note_on,,,,,10,0,0,,,,0,,,79,88
6600,note_on,,,,,0,0,0,,,,0,,,76,88
6704,note_on,,,,,104,0,0,,,,0,,,55,0
6710,note_on,,,,,6,0,0,,,,0,,,76,0
6710,note_on,,,,,0,0,0,,,,0,,,79,0
6720,note_on,,,,,10,0,0,,,,0,,,77,88
6720,note_on,,,,,0,0,0,,,,0,,,74,88
6720,note_on,,,,,0,0,0,,,,0,,,43,88
6940,note_on,,,,,220,0,0,,,,0,,,43,0
6940,note_on,,,,,0,0,0,,,,0,,,74,0
6940,note_on,,,,,0,0,0,,,,0,,,77,0
6960,note_on,,,,,20,0,0,,,,0,,,83,88
6960,note_on,,,,,0,0,0,,,,0,,,79,88
6964,note_on,,,,,4,0,0,,,,0,,,55,88
7180,note_on,,,,,216,0,0,,,,0,,,79,0
7180,note_on,,,,,0,0,0,,,,0,,,83,0
7184,note_on,,,,,4,0,0,,,,0,,,55,0
7200,note_on,,,,,16,0,0,,,,0,,,84,88
7200,note_on,,,,,0,0,0,,,,0,,,81,88
7200,note_on,,,,,0,0,0,,,,0,,,43,88
7420,note_on,,,,,220,0,0,,,,0,,,43,0
7420,note_on,,,,,0,0,0,,,,0,,,81,0
7420,note_on,,,,,0,0,0,,,,0,,,84,0
7440,note_on,,,,,20,0,0,,,,0,,,86,88
7440,note_on,,,,,0,0,0,,,,0,,,83,88
7444,note_on,,,,,4,0,0,,,,0,,,55,88
7660,note_on,,,,,216,0,0,,,,0,,,83,0
7660,note_on,,,,,0,0,0,,,,0,,,86,0
7664,note_on,,,,,4,0,0,,,,0,,,55,0
7680,note_on,,,,,16,0,0,,,,0,,,74,88
7680,note_on,,,,,0,0,0,,,,0,,,71,88
7680,note_on,,,,,0,0,0,,,,0,,,43,88
7900,note_on,,,,,220,0,0,,,,0,,,43,0
7900,note_on,,,,,0,0,0,,,,0,,,71,0
7900,note_on,,,,,0,0,0,,,,0,,,74,0
7920,note_on,,,,,20,0,0,,,,0,,,77,88
7920,note_on,,,,,0,0,0,,,,0,,,74,88
7924,note_on,,,,,4,0,0,,,,0,,,55,88
8030,note_on,,,,,106,0,0,,,,0,,,74,0
8030,note_on,,,,,0,0,0,,,,0,,,77,0
8040,note_on,,,,,10,0,0,,,,0,,,76,88
8040,note_on,,,,,0,0,0,,,,0,,,72,88
8144,note_on,,,,,104,0,0,,,,0,,,55,0
8150,note_on,,,,,6,0,0,,,,0,,,72,0
8150,note_on,,,,,0,0,0,,,,0,,,76,0
8160,note_on,,,,,10,0,0,,,,0,,,74,88
8160,note_on,,,,,0,0,0,,,,0,,,71,88
8160,note_on,,,,,0,0,0,,,,0,,,43,88
8380,note_on,,,,,220,0,0,,,,0,,,43,0
8380,note_on,,,,,0,0,0,,,,0,,,71,0
8380,note_on,,,,,0,0,0,,,,0,,,74,0
8400,note_on,,,,,20,0,0,,,,0,,,81,88
8400,note_on,,,,,0,0,0,,,,0,,,77,88
8404,note_on,,,,,4,0,0,,,,0,,,55,88
8510,note_on,,,,,106,0,0,,,,0,,,77,0
8510,note_on,,,,,0,0,0,,,,0,,,81,0
8520,note_on,,,,,10,0,0,,,,0,,,79,88
8520,note_on,,,,,0,0,0,,,,0,,,76,88
8624,note_on,,,,,104,0,0,,,,0,,,55,0
8630,note_on,,,,,6,0,0,,,,0,,,76,0
8630,note_on,,,,,0,0,0,,,,0,,,79,0
8640,note_on,,,,,10,0,0,,,,0,,,77,88
8640,note_on,,,,,0,0,0,,,,0,,,74,88
8640,note_on,,,,,0,0,0,,,,0,,,43,88
8860,note_on,,,,,220,0,0,,,,0,,,43,0
8860,note_on,,,,,0,0,0,,,,0,,,74,0
8860,note_on,,,,,0,0,0,,,,0,,,77,0
8880,note_on,,,,,20,0,0,,,,0,,,83,88
8880,note_on,,,,,0,0,0,,,,0,,,79,88
8884,note_on,,,,,4,0,0,,,,0,,,55,88
9100,note_on,,,,,216,0,0,,,,0,,,79,0
9100,note_on,,,,,0,0,0,,,,0,,,83,0
9104,note_on,,,,,4,0,0,,,,0,,,55,0
9120,note_on,,,,,16,0,0,,,,0,,,84,88
9120,note_on,,,,,0,0,0,,,,0,,,81,88
9120,note_on,,,,,0,0,0,,,,0,,,43,88
9340,note_on,,,,,220,0,0,,,,0,,,43,0
9340,note_on,,,,,0,0,0,,,,0,,,81,0
9340,note_on,,,,,0,0,0,,,,0,,,84,0
9360,note_on,,,,,20,0,0,,,,0,,,86,88
9360,note_on,,,,,0,0,0,,,,0,,,83,88
9364,note_on,,,,,4,0,0,,,,0,,,55,88
9580,note_on,,,,,216,0,0,,,,0,,,83,0
9580,note_on,,,,,0,0,0,,,,0,,,86,0
9584,note_on,,,,,4,0,0,,,,0,,,55,0
9600,note_on,,,,,16,0,0,,,,0,,,76,88
9600,note_on,,,,,0,0,0,,,,0,,,72,88
9600,note_on,,,,,0,0,0,,,,0,,,48,88
9820,note_on,,,,,220,0,0,,,,0,,,48,0
9820,note_on,,,,,0,0,0,,,,0,,,72,0
9820,note_on,,,,,0,0,0,,,,0,,,76,0
9840,note_on,,,,,20,0,0,,,,0,,,79,88
9840,note_on,,,,,0,0,0,,,,0,,,74,88
9844,note_on,,,,,4,0,0,,,,0,,,60,88
9950,note_on,,,,,106,0,0,,,,0,,,74,0
9950,note_on,,,,,0,0,0,,,,0,,,79,0
9960,note_on,,,,,10,0,0,,,,0,,,77,88
9960,note_on,,,,,0,0,0,,,,0,,,74,88
10064,note_on,,,,,104,0,0,,,,0,,,60,0
10070,note_on,,,,,6,0,0,,,,0,,,74,0
10070,note_on,,,,,0,0,0,,,,0,,,77,0
10080,note_on,,,,,10,0,0,,,,0,,,76,88
10080,note_on,,,,,0,0,0,,,,0,,,72,88
10080,note_on,,,,,0,0,0,,,,0,,,48,88
10300,note_on,,,,,220,0,0,,,,0,,,48,0
10300,note_on,,,,,0,0,0,,,,0,,,72,0
10300,note_on,,,,,0,0,0,,,,0,,,76,0
10320,note_on,,,,,20,0,0,,,,0,,,79,88
10320,note_on,,,,,0,0,0,,,,0,,,74,88
10324,note_on,,,,,4,0,0,,,,0,,,60,88
10430,note_on,,,,,106,0,0,,,,0,,,74,0
10430,note_on,,,,,0,0,0,,,,0,,,79,0
10440,note_on,,,,,10,0,0,,,,0,,,77,88
10440,note_on,,,,,0,0,0,,,,0,,,74,88
10544,note_on,,,,,104,0,0,,,,0,,,60,0
10550,note_on,,,,,6,0,0,,,,0,,,74,0
10550,note_on,,,,,0,0,0,,,,0,,,77,0
10560,note_on,,,,,10,0,0,,,,0,,,76,88
10560,note_on,,,,,0,0,0,,,,0,,,72,88
10560,note_on,,,,,0,0,0,,,,0,,,48,88
10780,note_on,,,,,220,0,0,,,,0,,,48,0
10780,note_on,,,,,0,0,0,,,,0,,,72,0
10780,note_on,,,,,0,0,0,,,,0,,,76,0
10800,note_on,,,,,20,0,0,,,,0,,,79,88
10800,note_on,,,,,0,0,0,,,,0,,,76,88
10804,note_on,,,,,4,0,0,,,,0,,,60,88
11020,note_on,,,,,216,0,0,,,,0,,,76,0
11020,note_on,,,,,0,0,0,,,,0,,,79,0
11024,note_on,,,,,4,0,0,,,,0,,,60,0
11040,note_on,,,,,16,0,0,,,,0,,,76,88
11040,note_on,,,,,0,0,0,,,,0,,,72,88
11040,note_on,,,,,0,0,0,,,,0,,,48,88
11260,note_on,,,,,220,0,0,,,,0,,,48,0
11260,note_on,,,,,0,0,0,,,,0,,,72,0
11260,note_on,,,,,0,0,0,,,,0,,,76,0
11280,note_on,,,,,20,0,0,,,,0,,,72,88
11280,note_on,,,,,0,0,0,,,,0,,,67,88
11284,note_on,,,,,4,0,0,,,,0,,,60,88
11500,note_on,,,,,216,0,0,,,,0,,,67,0
11500,note_on,,,,,0,0,0,,,,0,,,72,0
11504,note_on,,,,,4,0,0,,,,0,,,60,0
11520,note_on,,,,,16,0,0,,,,0,,,74,88
11520,note_on,,,,,0,0,0,,,,0,,,71,88
11520,note_on,,,,,0,0,0,,,,0,,,43,88
11961,note_on,,,,,441,0,0,,,,0,,,43,0
11961,note_on,,,,,0,0,0,,,,0,,,71,0
11961,note_on,,,,,0,0,0,,,,0,,,74,0
12480,note_on,,,,,519,0,0,,,,0,,,72,88
12480,note_on,,,,,0,0,0,,,,0,,,75,88
12480,note_on,,,,,0,0,0,,,,0,,,72,88
12628,note_on,,,,,148,0,0,,,,0,,,75,0
12628,note_on,,,,,0,0,0,,,,0,,,72,0
12632,note_on,,,,,4,0,0,,,,0,,,72,0
12720,note_on,,,,,88,0,0,,,,0,,,75,88
12720,note_on,,,,,0,0,0,,,,0,,,79,88
12720,note_on,,,,,0,0,0,,,,0,,,72,88
12872,note_on,,,,,152,0,0,,,,0,,,72,0
12960,note_on,,,,,88,0,0,,,,0,,,72,88
13112,note_on,,,,,152,0,0,,,,0,,,72,0
13200,note_on,,,,,88,0,0,,,,0,,,72,88
13352,note_on,,,,,152,0,0,,,,0,,,72,0
13382,note_on,,,,,30,0,0,,,,0,,,79,0
13382,note_on,,,,,0,0,0,,,,0,,,75,0
13440,note_on,,,,,58,0,0,,,,0,,,77,88
13440,note_on,,,,,0,0,0,,,,0,,,80,88
13440,note_on,,,,,0,0,0,,,,0,,,71,88
13580,note_on,,,,,140,0,0,,,,0,,,80,0
13580,note_on,,,,,0,0,0,,,,0,,,77,0
13592,note_on,,,,,12,0,0,,,,0,,,71,0
13680,note_on,,,,,88,0,0,,,,0,,,77,88
13680,note_on,,,,,0,0,0,,,,0,,,80,88
13680,note_on,,,,,0,0,0,,,,0,,,71,88
13832,note_on,,,,,152,0,0,,,,0,,,71,0
13920,note_on,,,,,88,0,0,,,,0,,,71,88
14060,note_on,,,,,140,0,0,,,,0,,,80,0
14060,note_on,,,,,0,0,0,,,,0,,,77,0
14072,note_on,,,,,12,0,0,,,,0,,,71,0
14160,note_on,,,,,88,0,0,,,,0,,,79,88
14160,note_on,,,,,0,0,0,,,,0,,,75,88
14160,note_on,,,,,0,0,0,,,,0,,,71,88
14270,note_on,,,,,110,0,0,,,,0,,,75,0
14270,note_on,,,,,0,0,0,,,,0,,,79,0
14280,note_on,,,,,10,0,0,,,,0,,,77,88
14280,note_on,,,,,0,0,0,,,,0,,,74,88
14312,note_on,,,,,32,0,0,,,,0,,,71,0
14390,note_on,,,,,78,0,0,,,,0,,,74,0
14390,note_on,,,,,0,0,0,,,,0,,,77,0
14400,note_on,,,,,10,0,0,,,,0,,,72,88
14400,note_on,,,,,0,0,0,,,,0,,,75,88
14400,note_on,,,,,0,0,0,,,,0,,,72,88
14552,note_on,,,,,152,0,0,,,,0,,,72,0
14620,note_on,,,,,68,0,0,,,,0,,,72,0
14620,note_on,,,,,0,0,0,,,,0,,,75,0
14640,note_on,,,,,20,0,0,,,,0,,,79,88
14640,note_on,,,,,0,0,0,,,,0,,,75,88
14640,note_on,,,,,0,0,0,,,,0,,,72,88
14792,note_on,,,,,152,0,0,,,,0,,,72,0
14880,note_on,,,,,88,0,0,,,,0,,,72,88
15032,note_on,,,,,152,0,0,,,,0,,,72,0
15120,note_on,,,,,88,0,0,,,,0,,,72,88
15272,note_on,,,,,152,0,0,,,,0,,,72,0
15302,note_on,,,,,30,0,0,,,,0,,,75,0
15302,note_on,,,,,0,0,0,,,,0,,,79,0
15360,note_on,,,,,58,0,0,,,,0,,,77,88
15360,note_on,,,,,0,0,0,,,,0,,,80,88
15360,note_on,,,,,0,0,0,,,,0,,,71,88
15520,note_on,,,,,160,0,0,,,,0,,,71,0
15580,note_on,,,,,60,0,0,,,,0,,,80,0
15580,note_on,,,,,0,0,0,,,,0,,,77,0
15600,note_on,,,,,20,0,0,,,,0,,,77,88
15600,note_on,,,,,0,0,0,,,,0,,,80,88
15600,note_on,,,,,0,0,0,,,,0,,,71,88
15760,note_on,,,,,160,0,0,,,,0,,,71,0
15840,note_on,,,,,80,0,0,,,,0,,,71,88
16000,note_on,,,,,160,0,0,,,,0,,,71,0
16041,note_on,,,,,41,0,0,,,,0,,,80,0
16041,note_on,,,,,0,0,0,,,,0,,,77,0
16080,note_on,,,,,39,0,0,,,,0,,,79,88
16080,note_on,,,,,0,0,0,,,,0,,,75,88
16080,note_on,,,,,0,0,0,,,,0,,,71,88
16190,note_on,,,,,110,0,0,,,,0,,,75,0
16190,note_on,,,,,0,0,0,,,,0,,,79,0
16200,note_on,,,,,10,0,0,,,,0,,,77,88
16200,note_on,,,,,0,0,0,,,,0,,,74,88
16240,note_on,,,,,40,0,0,,,,0,,,71,0
16310,note_on,,,,,70,0,0,,,,0,,,74,0
16310,note_on,,,,,0,0,0,,,,0,,,77,0
16320,note_on,,,,,10,0,0,,,,0,,,72,88
16320,note_on,,,,,0,0,0,,,,0,,,75,88
16320,note_on,,,,,0,0,0,,,,0,,,72,88
16480,note_on,,,,,160,0,0,,,,0,,,72,0
16540,note_on,,,,,60,0,0,,,,0,,,72,0
16540,note_on,,,,,0,0,0,,,,0,,,75,0
16560,note_on,,,,,20,0,0,,,,0,,,72,88
16560,note_on,,,,,0,0,0,,,,0,,,72,88
16720,note_on,,,,,160,0,0,,,,0,,,72,0
16800,note_on,,,,,80,0,0,,,,0,,,72,0
16800,note_on,,,,,0,0,0,,,,0,,,79,88
16800,note_on,,,,,0,0,0,,,,0,,,72,88
16960,note_on,,,,,160,0,0,,,,0,,,72,0
17020,note_on,,,,,60,0,0,,,,0,,,79,0
17040,note_on,,,,,20,0,0,,,,0,,,80,88
17040,note_on,,,,,0,0,0,,,,0,,,65,88
17200,note_on,,,,,160,0,0,,,,0,,,65,0
17260,note_on,,,,,60,0,0,,,,0,,,80,0
17280,note_on,,,,,20,0,0,,,,0,,,79,88
17280,note_on,,,,,0,0,0,,,,0,,,71,88
17280,note_on,,,,,0,0,0,,,,0,,,67,88
17500,note_on,,,,,220,0,0,,,,0,,,67,0
17520,note_on,,,,,20,0,0,,,,0,,,80,88
17520,note_on,,,,,0,0,0,,,,0,,,72,88
17520,note_on,,,,,0,0,0,,,,0,,,60,88
17536,note_on,,,,,16,0,0,,,,0,,,79,0
17556,note_on,,,,,20,0,0,,,,0,,,71,0
17740,note_on,,,,,184,0,0,,,,0,,,60,0
17740,note_on,,,,,0,0,0,,,,0,,,72,0
17740,note_on,,,,,0,0,0,,,,0,,,80,0
17756,note_on,,,,,16,0,0,,,,0,,,79,88
17756,note_on,,,,,0,0,0,,,,0,,,71,88
17760,note_on,,,,,4,0,0,,,,0,,,67,88
17980,note_on,,,,,220,0,0,,,,0,,,67,0
17996,note_on,,,,,16,0,0,,,,0,,,80,88
17996,note_on,,,,,0,0,0,,,,0,,,72,88
18000,note_on,,,,,4,0,0,,,,0,,,60,88
18012,note_on,,,,,12,0,0,,,,0,,,79,0
18032,note_on,,,,,20,0,0,,,,0,,,71,0
18216,note_on,,,,,184,0,0,,,,0,,,72,0
18216,note_on,,,,,0,0,0,,,,0,,,80,0
18220,note_on,,,,,4,0,0,,,,0,,,60,0
18240,note_on,,,,,20,0,0,,,,0,,,67,88
18248,note_on,,,,,8,0,0,,,,0,,,79,88
18248,note_on,,,,,0,0,0,,,,0,,,71,88
18460,note_on,,,,,212,0,0,,,,0,,,67,0
18480,note_on,,,,,20,0,0,,,,0,,,60,88
18488,note_on,,,,,8,0,0,,,,0,,,80,88
18488,note_on,,,,,0,0,0,,,,0,,,72,88
18504,note_on,,,,,16,0,0,,,,0,,,79,0
18524,note_on,,,,,20,0,0,,,,0,,,71,0
18700,note_on,,,,,176,0,0,,,,0,,,60,0
18708,note_on,,,,,8,0,0,,,,0,,,72,0
18708,note_on,,,,,0,0,0,,,,0,,,80,0
18716,note_on,,,,,8,0,0,,,,0,,,79,88
18716,note_on,,,,,0,0,0,,,,0,,,71,88
18720,note_on,,,,,4,0,0,,,,0,,,67,88
18940,note_on,,,,,220,0,0,,,,0,,,67,0
18956,note_on,,,,,16,0,0,,,,0,,,80,88
18956,note_on,,,,,0,0,0,,,,0,,,72,88
18960,note_on,,,,,4,0,0,,,,0,,,60,88
18972,note_on,,,,,12,0,0,,,,0,,,79,0
18992,note_on,,,,,20,0,0,,,,0,,,71,0
19176,note_on,,,,,184,0,0,,,,0,,,72,0
19176,note_on,,,,,0,0,0,,,,0,,,80,0
19180,note_on,,,,,4,0,0,,,,0,,,60,0
19200,note_on,,,,,20,0,0,,,,0,,,67,88
19204,note_on,,,,,4,0,0,,,,0,,,77,88
19208,note_on,,,,,4,0,0,,,,0,,,74,88
19420,note_on,,,,,212,0,0,,,,0,,,67,0
19424,note_on,,,,,4,0,0,,,,0,,,77,0
19428,note_on,,,,,4,0,0,,,,0,,,74,0
19440,note_on,,,,,12,0,0,,,,0,,,67,88
19444,note_on,,,,,4,0,0,,,,0,,,77,88
19444,note_on,,,,,0,0,0,,,,0,,,74,88
19660,note_on,,,,,216,0,0,,,,0,,,67,0
19680,note_on,,,,,20,0,0,,,,0,,,67,88
19885,note_on,,,,,205,0,0,,,,0,,,74,0
19885,note_on,,,,,0,0,0,,,,0,,,77,0
19900,note_on,,,,,15,0,0,,,,0,,,67,0
19920,note_on,,,,,20,0,0,,,,0,,,76,88
19920,note_on,,,,,0,0,0,,,,0,,,72,88
19920,note_on,,,,,0,0,0,,,,0,,,55,88
20030,note_on,,,,,110,0,0,,,,0,,,72,0
20030,note_on,,,,,0,0,0,,,,0,,,76,0
20040,note_on,,,,,10,0,0,,,,0,,,71,88
20048,note_on,,,,,8,0,0,,,,0,,,74,88
20140,note_on,,,,,92,0,0,,,,0,,,55,0
20150,note_on,,,,,10,0,0,,,,0,,,71,0
20158,note_on,,,,,8,0,0,,,,0,,,74,0
20160,note_on,,,,,2,0,0,,,,0,,,76,88
20160,note_on,,,,,0,0,0,,,,0,,,72,88
20160,note_on,,,,,0,0,0,,,,0,,,48,88
20380,note_on,,,,,220,0,0,,,,0,,,48,0
20380,note_on,,,,,0,0,0,,,,0,,,72,0
20380,note_on,,,,,0,0,0,,,,0,,,76,0
20400,note_on,,,,,20,0,0,,,,0,,,79,88
20400,note_on,,,,,0,0,0,,,,0,,,76,88
20400,note_on,,,,,0,0,0,,,,0,,,60,88
20510,note_on,,,,,110,0,0,,,,0,,,76,0
20510,note_on,,,,,0,0,0,,,,0,,,79,0
20520,note_on,,,,,10,0,0,,,,0,,,77,88
20520,note_on,,,,,0,0,0,,,,0,,,74,88
20620,note_on,,,,,100,0,0,,,,0,,,60,0
20630,note_on,,,,,10,0,0,,,,0,,,74,0
20630,note_on,,,,,0,0,0,,,,0,,,77,0
20640,note_on,,,,,10,0,0,,,,0,,,76,88
20640,note_on,,,,,0,0,0,,,,0,,,72,88
20640,note_on,,,,,0,0,0,,,,0,,,48,88
20860,note_on,,,,,220,0,0,,,,0,,,48,0
20860,note_on,,,,,0,0,0,,,,0,,,72,0
20860,note_on,,,,,0,0,0,,,,0,,,76,0
20880,note_on,,,,,20,0,0,,,,0,,,79,88
20880,note_on,,,,,0,0,0,,,,0,,,76,88
20880,note_on,,,,,0,0,0,,,,0,,,60,88
20990,note_on,,,,,110,0,0,,,,0,,,76,0
20990,note_on,,,,,0,0,0,,,,0,,,79,0
21000,note_on,,,,,10,0,0,,,,0,,,77,88
21000,note_on,,,,,0,0,0,,,,0,,,74,88
21100,note_on,,,,,100,0,0,,,,0,,,60,0
21110,note_on,,,,,10,0,0,,,,0,,,74,0
21110,note_on,,,,,0,0,0,,,,0,,,77,0
21120,note_on,,,,,10,0,0,,,,0,,,76,88
21120,note_on,,,,,0,0,0,,,,0,,,72,88
21120,note_on,,,,,0,0,0,,,,0,,,48,88
21340,note_on,,,,,220,0,0,,,,0,,,48,0
21340,note_on,,,,,0,0,0,,,,0,,,72,0
21340,note_on,,,,,0,0,0,,,,0,,,76,0
21360,note_on,,,,,20,0,0,,,,0,,,79,88
21360,note_on,,,,,0,0,0,,,,0,,,76,88
21360,note_on,,,,,0,0,0,,,,0,,,60,88
21580,note_on,,,,,220,0,0,,,,0,,,60,0
21580,note_on,,,,,0,0,0,,,,0,,,76,0
21580,note_on,,,,,0,0,0,,,,0,,,79,0
21600,note_on,,,,,20,0,0,,,,0,,,84,88
21600,note_on,,,,,0,0,0,,,,0,,,79,88
21600,note_on,,,,,0,0,0,,,,0,,,48,88
21820,note_on,,,,,220,0,0,,,,0,,,48,0
21820,note_on,,,,,0,0,0,,,,0,,,79,0
21820,note_on,,,,,0,0,0,,,,0,,,84,0
21840,note_on,,,,,20,0,0,,,,0,,,79,88
21840,note_on,,,,,0,0,0,,,,0,,,76,88
21840,note_on,,,,,0,0,0,,,,0,,,60,88
22060,note_on,,,,,220,0,0,,,,0,,,60,0
22060,note_on,,,,,0,0,0,,,,0,,,76,0
22060,note_on,,,,,0,0,0,,,,0,,,79,0
22080,note_on,,,,,20,0,0,,,,0,,,76,88
22080,note_on,,,,,0,0,0,,,,0,,,72,88
22080,note_on,,,,,0,0,0,,,,0,,,48,88
22300,note_on,,,,,220,0,0,,,,0,,,48,0
22300,note_on,,,,,0,0,0,,,,0,,,72,0
22300,note_on,,,,,0,0,0,,,,0,,,76,0
22320,note_on,,,,,20,0,0,,,,0,,,79,88
22320,note_on,,,,,0,0,0,,,,0,,,76,88
22320,note_on,,,,,0,0,0,,,,0,,,60,88
22430,note_on,,,,,110,0,0,,,,0,,,76,0
22430,note_on,,,,,0,0,0,,,,0,,,79,0
22440,note_on,,,,,10,0,0,,,,0,,,77,88
22440,note_on,,,,,0,0,0,,,,0,,,74,88
22540,note_on,,,,,100,0,0,,,,0,,,60,0
22550,note_on,,,,,10,0,0,,,,0,,,74,0
22550,note_on,,,,,0,0,0,,,,0,,,77,0
22560,note_on,,,,,10,0,0,,,,0,,,76,88
22560,note_on,,,,,0,0,0,,,,0,,,72,88
22560,note_on,,,,,0,0,0,,,,0,,,48,88
22780,note_on,,,,,220,0,0,,,,0,,,48,0
22780,note_on,,,,,0,0,0,,,,0,,,72,0
22780,note_on,,,,,0,0,0,,,,0,,,76,0
22800,note_on,,,,,20,0,0,,,,0,,,79,88
22800,note_on,,,,,0,0,0,,,,0,,,76,88
22800,note_on,,,,,0,0,0,,,,0,,,60,88
22910,note_on,,,,,110,0,0,,,,0,,,76,0
22910,note_on,,,,,0,0,0,,,,0,,,79,0
22920,note_on,,,,,10,0,0,,,,0,,,77,88
22920,note_on,,,,,0,0,0,,,,0,,,74,88
23020,note_on,,,,,100,0,0,,,,0,,,60,0
23030,note_on,,,,,10,0,0,,,,0,,,74,0
23030,note_on,,,,,0,0,0,,,,0,,,77,0
23040,note_on,,,,,10,0,0,,,,0,,,76,88
23040,note_on,,,,,0,0,0,,,,0,,,72,88
23040,note_on,,,,,0,0,0,,,,0,,,48,88
23260,note_on,,,,,220,0,0,,,,0,,,48,0
23260,note_on,,,,,0,0,0,,,,0,,,72,0
23260,note_on,,,,,0,0,0,,,,0,,,76,0
23280,note_on,,,,,20,0,0,,,,0,,,79,88
23280,note_on,,,,,0,0,0,,,,0,,,76,88
23280,note_on,,,,,0,0,0,,,,0,,,60,88
23500,note_on,,,,,220,0,0,,,,0,,,60,0
23500,note_on,,,,,0,0,0,,,,0,,,76,0
23500,note_on,,,,,0,0,0,,,,0,,,79,0
23520,note_on,,,,,20,0,0,,,,0,,,84,88
23520,note_on,,,,,0,0,0,,,,0,,,79,88
23520,note_on,,,,,0,0,0,,,,0,,,48,88
23740,note_on,,,,,220,0,0,,,,0,,,48,0
23740,note_on,,,,,0,0,0,,,,0,,,79,0
23740,note_on,,,,,0,0,0,,,,0,,,84,0
23760,note_on,,,,,20,0,0,,,,0,,,79,88
23760,note_on,,,,,0,0,0,,,,0,,,76,88
23760,note_on,,,,,0,0,0,,,,0,,,60,88
23980,note_on,,,,,220,0,0,,,,0,,,60,0
23980,note_on,,,,,0,0,0,,,,0,,,76,0
23980,note_on,,,,,0,0,0,,,,0,,,79,0
24000,note_on,,,,,20,0,0,,,,0,,,76,88
24000,note_on,,,,,0,0,0,,,,0,,,52,88
24220,note_on,,,,,220,0,0,,,,0,,,52,0
24220,note_on,,,,,0,0,0,,,,0,,,76,0
24240,note_on,,,,,20,0,0,,,,0,,,74,88
24240,note_on,,,,,0,0,0,,,,0,,,50,88
24350,note_on,,,,,110,0,0,,,,0,,,50,0
24350,note_on,,,,,0,0,0,,,,0,,,74,0
24360,note_on,,,,,10,0,0,,,,0,,,72,88
24360,note_on,,,,,0,0,0,,,,0,,,48,88
24470,note_on,,,,,110,0,0,,,,0,,,48,0
24470,note_on,,,,,0,0,0,,,,0,,,72,0
24480,note_on,,,,,10,0,0,,,,0,,,79,88
24480,note_on,,,,,0,0,0,,,,0,,,55,88
24608,set_tempo,,,,,128,1,0,612244,,,,,,,
24700,note_on,,,,,92,0,0,,,,0,,,55,0
24700,note_on,,,,,0,0,0,,,,0,,,79,0
24720,note_on,,,,,20,0,0,,,,0,,,67,88
24720,note_on,,,,,0,0,0,,,,0,,,43,88
24940,note_on,,,,,220,0,0,,,,0,,,43,0
24940,note_on,,,,,0,0,0,,,,0,,,67,0
24960,marker,,,,,20,1,0,,,,,,,,
24960,note_on,,,,,0,0,0,,,,0,,,72,88
24960,note_on,,,,,0,0,0,,,,0,,,48,88
25180,note_on,,,,,220,0,0,,,,0,,,48,0
25200,set_tempo,,,,,20,1,0,681818,,,,,,,
25401,note_on,,,,,201,0,0,,,,0,,,72,0
25680,note_on,,,,,279,0,0,,,,3,,,79,88
25688,set_tempo,,,,,8,1,0,576923,,,,,,,
25896,note_on,,,,,208,0,0,,,,3,,,79,0
25920,note_on,,,,,24,0,0,,,,0,,,67,65
25920,note_on,,,,,0,0,0,,,,0,,,72,65
25920,note_on,,,,,0,0,0,,,,0,,,64,65
25920,note_on,,,,,0,0,0,,,,0,,,48,88
25920,note_on,,,,,0,0,0,,,,3,,,72,88
26028,note_on,,,,,108,0,0,,,,3,,,72,0
26040,note_on,,,,,12,0,0,,,,3,,,74,88
26140,note_on,,,,,100,0,0,,,,0,,,48,0
26148,note_on,,,,,8,0,0,,,,3,,,74,0
26160,note_on,,,,,12,0,0,,,,3,,,76,88
26268,note_on,,,,,108,0,0,,,,3,,,76,0
26280,note_on,,,,,12,0,0,,,,3,,,72,88
26384,note_on,,,,,104,0,0,,,,0,,,72,0
26388,note_on,,,,,4,0,0,,,,3,,,72,0
26390,note_on,,,,,2,0,0,,,,0,,,67,0
26400,note_on,,,,,10,0,0,,,,3,,,74,88
26401,note_on,,,,,1,0,0,,,,0,,,64,0
26508,note_on,,,,,107,0,0,,,,3,,,74,0
26520,note_on,,,,,12,0,0,,,,3,,,76,88
26628,note_on,,,,,108,0,0,,,,3,,,76,0
26640,note_on,,,,,12,0,0,,,,2,,,79,88
26640,note_on,,,,,0,0,0,,,,3,,,77,88
26748,note_on,,,,,108,0,0,,,,3,,,77,0
26760,note_on,,,,,12,0,0,,,,3,,,74,88
26856,note_on,,,,,96,0,0,,,,2,,,79,0
26868,note_on,,,,,12,0,0,,,,3,,,74,0
26880,note_on,,,,,12,0,0,,,,0,,,64,65
26880,note_on,,,,,0,0,0,,,,0,,,67,65
26880,note_on,,,,,0,0,0,,,,0,,,72,65
26880,note_on,,,,,0,0,0,,,,0,,,48,88
26880,note_on,,,,,0,0,0,,,,2,,,72,88
26880,note_on,,,,,0,0,0,,,,3,,,76,88
26988,note_on,,,,,108,0,0,,,,3,,,76,0
26988,note_on,,,,,0,0,0,,,,2,,,72,0
27000,note_on,,,,,12,0,0,,,,2,,,74,88
27000,note_on,,,,,0,0,0,,,,3,,,77,88
27100,note_on,,,,,100,0,0,,,,0,,,48,0
27108,note_on,,,,,8,0,0,,,,3,,,77,0
27108,note_on,,,,,0,0,0,,,,2,,,74,0
27120,note_on,,,,,12,0,0,,,,2,,,76,88
27120,note_on,,,,,0,0,0,,,,3,,,79,88
27228,note_on,,,,,108,0,0,,,,3,,,79,0
27228,note_on,,,,,0,0,0,,,,2,,,76,0
27240,note_on,,,,,12,0,0,,,,2,,,72,88
27240,note_on,,,,,0,0,0,,,,3,,,76,88
27251,note_on,,,,,11,0,0,,,,0,,,72,0
27260,note_on,,,,,9,0,0,,,,0,,,67,0
27270,note_on,,,,,10,0,0,,,,0,,,64,0
27348,note_on,,,,,78,0,0,,,,3,,,76,0
27348,note_on,,,,,0,0,0,,,,2,,,72,0
27360,note_on,,,,,12,0,0,,,,2,,,74,88
27360,note_on,,,,,0,0,0,,,,3,,,77,88
27468,note_on,,,,,108,0,0,,,,3,,,77,0
27468,note_on,,,,,0,0,0,,,,2,,,74,0
27480,note_on,,,,,12,0,0,,,,2,,,76,88
27480,note_on,,,,,0,0,0,,,,3,,,79,88
27588,note_on,,,,,108,0,0,,,,3,,,79,0
27588,note_on,,,,,0,0,0,,,,2,,,76,0
27600,note_on,,,,,12,0,0,,,,2,,,77,88
27600,note_on,,,,,0,0,0,,,,3,,,81,88
27708,note_on,,,,,108,0,0,,,,3,,,81,0
27708,note_on,,,,,0,0,0,,,,2,,,77,0
27720,note_on,,,,,12,0,0,,,,2,,,74,88
27720,note_on,,,,,0,0,0,,,,3,,,77,88
27828,note_on,,,,,108,0,0,,,,3,,,77,0
27828,note_on,,,,,0,0,0,,,,2,,,74,0
27840,note_on,,,,,12,0,0,,,,0,,,67,65
27840,note_on,,,,,0,0,0,,,,0,,,64,65
27840,note_on,,,,,0,0,0,,,,0,,,72,65
27840,note_on,,,,,0,0,0,,,,0,,,48,88
27840,note_on,,,,,0,0,0,,,,2,,,76,88
27840,note_on,,,,,0,0,0,,,,3,,,79,88
27948,note_on,,,,,108,0,0,,,,2,,,76,0
27960,note_on,,,,,12,0,0,,,,2,,,77,88
28034,note_on,,,,,74,0,0,,,,3,,,79,0
28060,note_on,,,,,26,0,0,,,,0,,,48,0
28068,note_on,,,,,8,0,0,,,,2,,,77,0
28080,note_on,,,,,12,0,0,,,,2,,,79,88
28080,note_on,,,,,0,0,0,,,,3,,,72,88
28188,note_on,,,,,108,0,0,,,,2,,,79,0
28200,note_on,,,,,12,0,0,,,,2,,,76,88
28240,note_on,,,,,40,0,0,,,,0,,,72,0
28240,note_on,,,,,0,0,0,,,,0,,,64,0
28240,note_on,,,,,0,0,0,,,,0,,,67,0
28274,note_on,,,,,34,0,0,,,,3,,,72,0
28308,note_on,,,,,34,0,0,,,,2,,,76,0
28320,note_on,,,,,12,0,0,,,,2,,,77,88
28428,note_on,,,,,108,0,0,,,,2,,,77,0
28440,note_on,,,,,12,0,0,,,,2,,,79,88
28548,note_on,,,,,108,0,0,,,,2,,,79,0
28560,note_on,,,,,12,0,0,,,,2,,,81,88
28560,note_on,,,,,0,0,0,,,,3,,,74,88
28668,note_on,,,,,108,0,0,,,,3,,,74,0
28668,note_on,,,,,0,0,0,,,,2,,,81,0
28680,note_on,,,,,12,0,0,,,,2,,,77,88
28788,note_on,,,,,108,0,0,,,,2,,,77,0
28796,note_on,,,,,8,0,0,,,,3,,,76,88
28800,note_on,,,,,4,0,0,,,,0,,,67,65
28800,note_on,,,,,0,0,0,,,,0,,,64,65
28800,note_on,,,,,0,0,0,,,,0,,,72,65
28800,note_on,,,,,0,0,0,,,,0,,,48,88
28800,note_on,,,,,0,0,0,,,,2,,,79,88
28904,note_on,,,,,104,0,0,,,,3,,,76,0
28920,note_on,,,,,16,0,0,,,,3,,,72,88
28994,note_on,,,,,74,0,0,,,,2,,,79,0
29020,note_on,,,,,26,0,0,,,,0,,,48,0
29028,note_on,,,,,8,0,0,,,,3,,,72,0
29040,note_on,,,,,12,0,0,,,,2,,,72,88
29040,note_on,,,,,0,0,0,,,,3,,,79,88
29200,note_on,,,,,160,0,0,,,,0,,,72,0
29200,note_on,,,,,0,0,0,,,,0,,,64,0
29200,note_on,,,,,0,0,0,,,,0,,,67,0
29234,note_on,,,,,34,0,0,,,,2,,,72,0
29280,note_on,,,,,46,0,0,,,,0,,,67,65
29280,note_on,,,,,0,0,0,,,,0,,,72,65
29280,note_on,,,,,0,0,0,,,,0,,,64,65
29280,note_on,,,,,0,0,0,,,,0,,,48,88
29472,note_on,,,,,192,0,0,,,,3,,,79,0
29500,note_on,,,,,28,0,0,,,,0,,,48,0
29520,note_on,,,,,20,0,0,,,,3,,,76,88
29680,note_on,,,,,160,0,0,,,,0,,,64,0
29680,note_on,,,,,0,0,0,,,,0,,,72,0
29680,note_on,,,,,0,0,0,,,,0,,,67,0
29736,note_on,,,,,56,0,0,,,,3,,,76,0
29760,note_on,,,,,24,0,0,,,,0,,,67,65
29760,note_on,,,,,0,0,0,,,,0,,,62,65
29760,note_on,,,,,0,0,0,,,,0,,,43,88
29760,note_on,,,,,0,0,0,,,,3,,,74,88
29868,note_on,,,,,108,0,0,,,,3,,,74,0
29880,note_on,,,,,12,0,0,,,,3,,,71,88
29980,note_on,,,,,100,0,0,,,,0,,,43,0
29988,note_on,,,,,8,0,0,,,,3,,,71,0
29996,note_on,,,,,8,0,0,,,,3,,,79,88
30160,note_on,,,,,164,0,0,,,,0,,,62,0
30160,note_on,,,,,0,0,0,,,,0,,,67,0
30240,note_on,,,,,80,0,0,,,,0,,,67,65
30240,note_on,,,,,0,0,0,,,,0,,,62,65
30240,note_on,,,,,0,0,0,,,,0,,,43,88
30428,note_on,,,,,188,0,0,,,,3,,,79,0
30460,note_on,,,,,32,0,0,,,,0,,,43,0
30480,note_on,,,,,20,0,0,,,,3,,,74,88
30484,note_on,,,,,4,0,0,,,,2,,,74,88
30592,note_on,,,,,108,0,0,,,,2,,,74,0
30640,note_on,,,,,48,0,0,,,,0,,,62,0
30640,note_on,,,,,0,0,0,,,,0,,,67,0
30696,note_on,,,,,56,0,0,,,,3,,,74,0
30720,note_on,,,,,24,0,0,,,,0,,,64,65
30720,note_on,,,,,0,0,0,,,,0,,,67,65
30720,note_on,,,,,0,0,0,,,,0,,,72,65
30720,note_on,,,,,0,0,0,,,,0,,,48,88
30720,note_on,,,,,0,0,0,,,,2,,,76,88
30720,note_on,,,,,0,0,0,,,,3,,,72,88
30828,note_on,,,,,108,0,0,,,,3,,,72,0
30828,note_on,,,,,0,0,0,,,,2,,,76,0
30844,note_on,,,,,16,0,0,,,,2,,,72,88
30844,note_on,,,,,0,0,0,,,,3,,,67,88
30940,note_on,,,,,96,0,0,,,,0,,,48,0
30952,note_on,,,,,12,0,0,,,,3,,,67,0
30952,note_on,,,,,0,0,0,,,,2,,,72,0
30960,note_on,,,,,8,0,0,,,,3,,,72,88
30964,note_on,,,,,4,0,0,,,,2,,,79,88
31068,note_on,,,,,104,0,0,,,,3,,,72,0
31076,note_on,,,,,8,0,0,,,,3,,,74,88
31120,note_on,,,,,44,0,0,,,,0,,,72,0
31120,note_on,,,,,0,0,0,,,,0,,,67,0
31120,note_on,,,,,0,0,0,,,,0,,,64,0
31184,note_on,,,,,64,0,0,,,,3,,,74,0
31192,note_on,,,,,8,0,0,,,,3,,,76,88
31200,note_on,,,,,8,0,0,,,,0,,,67,65
31200,note_on,,,,,0,0,0,,,,0,,,64,65
31200,note_on,,,,,0,0,0,,,,0,,,72,65
31200,note_on,,,,,0,0,0,,,,0,,,48,88
31300,note_on,,,,,100,0,0,,,,3,,,76,0
31316,note_on,,,,,16,0,0,,,,3,,,72,88
31396,note_on,,,,,80,0,0,,,,2,,,79,0
31420,note_on,,,,,24,0,0,,,,0,,,48,0
31424,note_on,,,,,4,0,0,,,,3,,,72,0
31436,note_on,,,,,12,0,0,,,,3,,,76,88
31444,note_on,,,,,8,0,0,,,,2,,,76,88
31544,note_on,,,,,100,0,0,,,,3,,,76,0
31560,note_on,,,,,16,0,0,,,,3,,,77,88
31600,note_on,,,,,40,0,0,,,,0,,,72,0
31600,note_on,,,,,0,0,0,,,,0,,,64,0
31600,note_on,,,,,0,0,0,,,,0,,,67,0
31660,note_on,,,,,60,0,0,,,,2,,,76,0
31668,note_on,,,,,8,0,0,,,,3,,,77,0
31676,note_on,,,,,8,0,0,,,,3,,,79,88
31680,note_on,,,,,4,0,0,,,,0,,,62,65
31680,note_on,,,,,0,0,0,,,,0,,,67,65
31680,note_on,,,,,0,0,0,,,,0,,,43,88
31684,note_on,,,,,4,0,0,,,,2,,,74,88
31792,note_on,,,,,108,0,0,,,,2,,,74,0
31804,note_on,,,,,12,0,0,,,,2,,,71,88
31900,note_on,,,,,96,0,0,,,,0,,,43,0
31912,note_on,,,,,12,0,0,,,,2,,,71,0
31920,note_on,,,,,8,0,0,,,,2,,,79,88
31976,note_on,,,,,56,0,0,,,,3,,,79,0
32080,note_on,,,,,104,0,0,,,,0,,,67,0
32080,note_on,,,,,0,0,0,,,,0,,,62,0
32160,note_on,,,,,80,0,0,,,,0,,,67,65
32160,note_on,,,,,0,0,0,,,,0,,,62,65
32160,note_on,,,,,0,0,0,,,,0,,,43,88
32352,note_on,,,,,192,0,0,,,,2,,,79,0
32380,note_on,,,,,28,0,0,,,,0,,,43,0
32404,note_on,,,,,24,0,0,,,,2,,,74,88
32560,note_on,,,,,156,0,0,,,,0,,,62,0
32560,note_on,,,,,0,0,0,,,,0,,,67,0
32620,note_on,,,,,60,0,0,,,,2,,,74,0
32640,note_on,,,,,20,0,0,,,,0,,,64,65
32640,note_on,,,,,0,0,0,,,,0,,,67,65
32640,note_on,,,,,0,0,0,,,,0,,,72,65
32640,note_on,,,,,0,0,0,,,,0,,,48,88
32644,note_on,,,,,4,0,0,,,,2,,,72,88
32752,note_on,,,,,108,0,0,,,,2,,,72,0
32768,note_on,,,,,16,0,0,,,,2,,,67,88
32860,note_on,,,,,92,0,0,,,,0,,,48,0
32876,note_on,,,,,16,0,0,,,,2,,,67,0
32884,note_on,,,,,8,0,0,,,,2,,,72,88
32992,note_on,,,,,108,0,0,,,,2,,,72,0
33000,note_on,,,,,8,0,0,,,,2,,,74,88
33040,note_on,,,,,40,0,0,,,,0,,,72,0
33040,note_on,,,,,0,0,0,,,,0,,,67,0
33040,note_on,,,,,0,0,0,,,,0,,,64,0
33108,note_on,,,,,68,0,0,,,,2,,,74,0
33116,note_on,,,,,8,0,0,,,,2,,,76,88
33120,note_on,,,,,4,0,0,,,,0,,,64,65
33120,note_on,,,,,0,0,0,,,,0,,,67,65
33120,note_on,,,,,0,0,0,,,,0,,,72,65
33120,note_on,,,,,0,0,0,,,,0,,,48,88
33224,note_on,,,,,104,0,0,,,,2,,,76,0
33240,note_on,,,,,16,0,0,,,,2,,,72,88
33340,note_on,,,,,100,0,0,,,,0,,,48,0
33348,note_on,,,,,8,0,0,,,,2,,,72,0
33360,note_on,,,,,12,0,0,,,,2,,,76,88
33468,note_on,,,,,108,0,0,,,,2,,,76,0
33484,note_on,,,,,16,0,0,,,,2,,,77,88
33520,note_on,,,,,36,0,0,,,,0,,,72,0
33520,note_on,,,,,0,0,0,,,,0,,,67,0
33520,note_on,,,,,0,0,0,,,,0,,,64,0
33592,note_on,,,,,72,0,0,,,,2,,,77,0
33600,note_on,,,,,8,0,0,,,,0,,,64,65
33600,note_on,,,,,0,0,0,,,,0,,,72,65
33600,note_on,,,,,0,0,0,,,,0,,,48,88
33600,note_on,,,,,0,0,0,,,,2,,,79,88
33600,note_on,,,,,0,0,0,,,,3,,,79,88
33708,note_on,,,,,108,0,0,,,,3,,,79,0
33720,note_on,,,,,12,0,0,,,,3,,,77,88
33820,note_on,,,,,100,0,0,,,,0,,,48,0
33828,note_on,,,,,8,0,0,,,,3,,,77,0
33840,note_on,,,,,12,0,0,,,,0,,,64,0
33840,note_on,,,,,0,0,0,,,,0,,,65,65
33840,note_on,,,,,0,0,0,,,,0,,,50,88
33840,note_on,,,,,0,0,0,,,,3,,,79,88
33900,note_on,,,,,60,0,0,,,,2,,,79,0
34036,note_on,,,,,136,0,0,,,,3,,,79,0
34060,note_on,,,,,24,0,0,,,,0,,,50,0
34080,note_on,,,,,20,0,0,,,,0,,,65,0
34080,note_on,,,,,0,0,0,,,,0,,,67,65
34080,note_on,,,,,0,0,0,,,,0,,,52,88
34080,note_on,,,,,0,0,0,,,,3,,,79,88
34188,note_on,,,,,108,0,0,,,,3,,,79,0
34200,note_on,,,,,12,0,0,,,,3,,,77,88
34248,note_on,,,,,48,0,0,,,,0,,,67,0
34300,note_on,,,,,52,0,0,,,,0,,,52,0
34308,note_on,,,,,8,0,0,,,,3,,,77,0
34312,note_on,,,,,4,0,0,,,,0,,,64,65
34320,note_on,,,,,8,0,0,,,,0,,,48,88
34320,note_on,,,,,0,0,0,,,,3,,,79,88
34464,note_on,,,,,144,0,0,,,,0,,,72,0
34480,note_on,,,,,16,0,0,,,,0,,,64,0
34516,note_on,,,,,36,0,0,,,,3,,,79,0
34540,note_on,,,,,24,0,0,,,,0,,,48,0
34560,note_on,,,,,20,0,0,,,,0,,,69,65
34560,note_on,,,,,0,0,0,,,,0,,,53,88
34560,note_on,,,,,0,0,0,,,,3,,,81,88
34564,note_on,,,,,4,0,0,,,,0,,,65,65
34564,note_on,,,,,0,0,0,,,,2,,,72,88
34672,note_on,,,,,108,0,0,,,,2,,,72,0
34684,note_on,,,,,12,0,0,,,,2,,,71,88
34780,note_on,,,,,96,0,0,,,,0,,,53,0
34792,note_on,,,,,12,0,0,,,,2,,,71,0
34800,note_on,,,,,8,0,0,,,,0,,,71,65
34800,note_on,,,,,0,0,0,,,,0,,,55,88
34800,note_on,,,,,0,0,0,,,,2,,,72,88
34803,note_on,,,,,3,0,0,,,,0,,,69,0
34988,note_on,,,,,185,0,0,,,,2,,,72,0
34992,note_on,,,,,4,0,0,,,,0,,,71,0
35020,note_on,,,,,28,0,0,,,,0,,,55,0
35040,note_on,,,,,20,0,0,,,,0,,,72,65
35040,note_on,,,,,0,0,0,,,,0,,,57,88
35044,note_on,,,,,4,0,0,,,,2,,,72,88
35152,note_on,,,,,108,0,0,,,,2,,,72,0
35160,note_on,,,,,8,0,0,,,,2,,,71,88
35260,note_on,,,,,100,0,0,,,,0,,,57,0
35268,note_on,,,,,8,0,0,,,,2,,,71,0
35275,note_on,,,,,7,0,0,,,,0,,,72,0
35280,note_on,,,,,5,0,0,,,,0,,,53,88
35284,note_on,,,,,4,0,0,,,,2,,,72,88
35288,note_on,,,,,4,0,0,,,,0,,,69,65
35428,note_on,,,,,140,0,0,,,,0,,,65,0
35460,note_on,,,,,32,0,0,,,,3,,,81,0
35464,note_on,,,,,4,0,0,,,,0,,,69,0
35472,note_on,,,,,8,0,0,,,,2,,,72,0
35500,note_on,,,,,28,0,0,,,,0,,,53,0
35516,note_on,,,,,16,0,0,,,,3,,,77,88
35520,note_on,,,,,4,0,0,,,,0,,,71,65
35520,note_on,,,,,0,0,0,,,,0,,,47,88
35520,note_on,,,,,0,0,0,,,,2,,,74,88
35528,note_on,,,,,8,0,0,,,,0,,,62,65
35624,note_on,,,,,96,0,0,,,,3,,,77,0
35636,note_on,,,,,12,0,0,,,,3,,,76,88
35740,note_on,,,,,104,0,0,,,,0,,,47,0
35744,note_on,,,,,4,0,0,,,,3,,,76,0
35756,note_on,,,,,12,0,0,,,,3,,,77,88
35760,note_on,,,,,4,0,0,,,,0,,,48,88
35768,note_on,,,,,8,0,0,,,,0,,,62,0
35768,note_on,,,,,0,0,0,,,,0,,,64,65
35952,note_on,,,,,184,0,0,,,,3,,,77,0
35980,note_on,,,,,28,0,0,,,,0,,,48,0
35996,note_on,,,,,16,0,0,,,,3,,,77,88
36000,note_on,,,,,4,0,0,,,,0,,,50,88
36008,note_on,,,,,8,0,0,,,,0,,,64,0
36008,note_on,,,,,0,0,0,,,,0,,,65,65
36104,note_on,,,,,96,0,0,,,,3,,,77,0
36116,note_on,,,,,12,0,0,,,,3,,,76,88
36176,note_on,,,,,60,0,0,,,,0,,,65,0
36220,note_on,,,,,44,0,0,,,,0,,,50,0
36224,note_on,,,,,4,0,0,,,,3,,,76,0
36236,note_on,,,,,12,0,0,,,,3,,,77,88
36240,note_on,,,,,4,0,0,,,,2,,,74,0
36240,note_on,,,,,0,0,0,,,,0,,,62,65
36240,note_on,,,,,0,0,0,,,,0,,,47,88
36408,note_on,,,,,168,0,0,,,,0,,,62,0
36432,note_on,,,,,24,0,0,,,,3,,,77,0
36458,note_on,,,,,26,0,0,,,,0,,,71,0
36460,note_on,,,,,2,0,0,,,,0,,,47,0
36476,note_on,,,,,16,0,0,,,,3,,,79,88
36480,note_on,,,,,4,0,0,,,,0,,,67,65
36480,note_on,,,,,0,0,0,,,,0,,,64,65
36480,note_on,,,,,0,0,0,,,,0,,,52,88
36480,note_on,,,,,0,0,0,,,,2,,,71,88
36588,note_on,,,,,108,0,0,,,,2,,,71,0
36600,note_on,,,,,12,0,0,,,,2,,,69,88
36700,note_on,,,,,100,0,0,,,,0,,,52,0
36708,note_on,,,,,8,0,0,,,,2,,,69,0
36720,note_on,,,,,12,0,0,,,,0,,,53,88
36720,note_on,,,,,0,0,0,,,,2,,,71,88
36746,note_on,,,,,26,0,0,,,,0,,,67,0
36760,note_on,,,,,14,0,0,,,,0,,,69,65
36916,note_on,,,,,156,0,0,,,,2,,,71,0
36940,note_on,,,,,24,0,0,,,,0,,,53,0
36960,note_on,,,,,20,0,0,,,,0,,,71,65
36960,note_on,,,,,0,0,0,,,,0,,,55,88
36960,note_on,,,,,0,0,0,,,,2,,,71,88
37031,note_on,,,,,71,0,0,,,,0,,,69,0
37068,note_on,,,,,37,0,0,,,,2,,,71,0
37080,note_on,,,,,12,0,0,,,,2,,,69,88
37180,note_on,,,,,100,0,0,,,,0,,,55,0
37188,note_on,,,,,8,0,0,,,,2,,,69,0
37200,note_on,,,,,12,0,0,,,,0,,,52,88
37200,note_on,,,,,0,0,0,,,,2,,,71,88
37216,note_on,,,,,16,0,0,,,,0,,,67,65
37237,note_on,,,,,21,0,0,,,,0,,,71,0
37344,note_on,,,,,107,0,0,,,,0,,,64,0
37376,note_on,,,,,32,0,0,,,,3,,,79,0
37396,note_on,,,,,20,0,0,,,,2,,,71,0
37420,note_on,,,,,24,0,0,,,,0,,,52,0
37440,note_on,,,,,20,0,0,,,,0,,,69,65
37440,note_on,,,,,0,0,0,,,,0,,,45,88
37440,note_on,,,,,0,0,0,,,,2,,,72,88
37440,note_on,,,,,0,0,0,,,,3,,,76,88
37444,note_on,,,,,4,0,0,,,,0,,,60,65
37458,note_on,,,,,14,0,0,,,,0,,,67,0
37548,note_on,,,,,90,0,0,,,,3,,,76,0
37560,note_on,,,,,12,0,0,,,,3,,,74,88
37660,note_on,,,,,100,0,0,,,,0,,,60,0
37660,note_on,,,,,0,0,0,,,,0,,,45,0
37668,note_on,,,,,8,0,0,,,,3,,,74,0
37680,note_on,,,,,12,0,0,,,,0,,,47,88
37680,note_on,,,,,0,0,0,,,,3,,,76,88
37684,note_on,,,,,4,0,0,,,,0,,,62,65
37876,note_on,,,,,192,0,0,,,,3,,,76,0
37900,note_on,,,,,24,0,0,,,,0,,,62,0
37900,note_on,,,,,0,0,0,,,,0,,,47,0
37920,note_on,,,,,20,0,0,,,,0,,,48,88
37920,note_on,,,,,0,0,0,,,,3,,,76,88
37928,note_on,,,,,8,0,0,,,,0,,,64,65
38028,note_on,,,,,100,0,0,,,,3,,,76,0
38040,note_on,,,,,12,0,0,,,,3,,,74,88
38140,note_on,,,,,100,0,0,,,,0,,,48,0
38144,note_on,,,,,4,0,0,,,,0,,,64,0
38148,note_on,,,,,4,0,0,,,,3,,,74,0
38160,note_on,,,,,12,0,0,,,,0,,,60,65
38160,note_on,,,,,0,0,0,,,,0,,,45,88
38160,note_on,,,,,0,0,0,,,,3,,,76,88
38178,note_on,,,,,18,0,0,,,,0,,,69,0
38356,note_on,,,,,178,0,0,,,,3,,,76,0
38376,note_on,,,,,20,0,0,,,,0,,,60,0
38380,note_on,,,,,4,0,0,,,,0,,,45,0
38396,note_on,,,,,16,0,0,,,,3,,,78,88
38400,note_on,,,,,4,0,0,,,,0,,,66,65
38400,note_on,,,,,0,0,0,,,,0,,,50,88
38408,note_on,,,,,8,0,0,,,,0,,,62,65
38504,note_on,,,,,96,0,0,,,,3,,,78,0
38516,note_on,,,,,12,0,0,,,,3,,,76,88
38620,note_on,,,,,104,0,0,,,,0,,,50,0
38624,note_on,,,,,4,0,0,,,,3,,,76,0
38635,note_on,,,,,11,0,0,,,,0,,,66,0
38636,note_on,,,,,1,0,0,,,,3,,,78,88
38640,note_on,,,,,4,0,0,,,,0,,,52,88
38648,note_on,,,,,8,0,0,,,,0,,,67,65
38832,note_on,,,,,184,0,0,,,,3,,,78,0
38860,note_on,,,,,28,0,0,,,,0,,,52,0
38876,note_on,,,,,16,0,0,,,,3,,,78,88
38880,note_on,,,,,4,0,0,,,,0,,,69,65
38880,note_on,,,,,0,0,0,,,,0,,,54,88
38893,note_on,,,,,13,0,0,,,,0,,,67,0
38984,note_on,,,,,91,0,0,,,,3,,,78,0
38996,note_on,,,,,12,0,0,,,,3,,,76,88
39100,note_on,,,,,104,0,0,,,,0,,,54,0
39104,note_on,,,,,4,0,0,,,,3,,,76,0
39112,note_on,,,,,8,0,0,,,,0,,,66,65
39116,note_on,,,,,4,0,0,,,,3,,,78,88
39118,note_on,,,,,2,0,0,,,,0,,,69,0
39120,note_on,,,,,2,0,0,,,,2,,,72,0
39120,note_on,,,,,0,0,0,,,,0,,,50,88
39272,note_on,,,,,152,0,0,,,,0,,,62,0
39312,note_on,,,,,40,0,0,,,,3,,,78,0
39340,note_on,,,,,28,0,0,,,,0,,,50,0
39360,note_on,,,,,20,0,0,,,,0,,,67,65
39360,note_on,,,,,0,0,0,,,,0,,,55,88
39360,note_on,,,,,0,0,0,,,,2,,,71,88
39360,note_on,,,,,0,0,0,,,,3,,,79,88
39364,note_on,,,,,4,0,0,,,,0,,,59,65
39397,note_on,,,,,33,0,0,,,,0,,,66,0
39470,note_on,,,,,73,0,0,,,,3,,,79,0
39470,note_on,,,,,0,0,0,,,,2,,,71,0
39480,note_on,,,,,10,0,0,,,,2,,,72,88
39480,note_on,,,,,0,0,0,,,,3,,,81,88
39580,note_on,,,,,100,0,0,,,,0,,,59,0
39580,note_on,,,,,0,0,0,,,,0,,,55,0
39590,note_on,,,,,10,0,0,,,,3,,,81,0
39590,note_on,,,,,0,0,0,,,,2,,,72,0
39600,note_on,,,,,10,0,0,,,,0,,,60,65
39600,note_on,,,,,0,0,0,,,,0,,,57,88
39600,note_on,,,,,0,0,0,,,,2,,,74,88
39600,note_on,,,,,0,0,0,,,,3,,,83,88
39710,note_on,,,,,110,0,0,,,,2,,,74,0
39796,note_on,,,,,86,0,0,,,,3,,,83,0
39816,note_on,,,,,20,0,0,,,,0,,,60,0
39820,note_on,,,,,4,0,0,,,,0,,,57,0
39840,note_on,,,,,20,0,0,,,,0,,,59,88
39848,note_on,,,,,8,0,0,,,,0,,,62,65
40060,note_on,,,,,212,0,0,,,,0,,,59,0
40064,note_on,,,,,4,0,0,,,,0,,,71,65
40074,note_on,,,,,10,0,0,,,,0,,,67,0
40076,note_on,,,,,2,0,0,,,,3,,,83,88
40080,note_on,,,,,4,0,0,,,,0,,,55,88
40080,note_on,,,,,0,0,0,,,,2,,,79,88
40190,note_on,,,,,110,0,0,,,,2,,,79,0
40272,note_on,,,,,82,0,0,,,,3,,,83,0
40300,note_on,,,,,28,0,0,,,,0,,,55,0
40316,note_on,,,,,16,0,0,,,,3,,,81,88
40320,note_on,,,,,4,0,0,,,,0,,,71,0
40320,note_on,,,,,0,0,0,,,,0,,,66,65
40320,note_on,,,,,0,0,0,,,,0,,,50,88
40320,note_on,,,,,0,0,0,,,,2,,,78,88
40426,note_on,,,,,106,0,0,,,,3,,,81,0
40430,note_on,,,,,4,0,0,,,,2,,,78,0
40436,note_on,,,,,6,0,0,,,,3,,,83,88
40440,note_on,,,,,4,0,0,,,,2,,,79,88
40516,note_on,,,,,76,0,0,,,,0,,,62,0
40540,note_on,,,,,24,0,0,,,,0,,,50,0
40540,note_on,,,,,0,0,0,,,,0,,,66,0
40546,note_on,,,,,6,0,0,,,,3,,,83,0
40550,note_on,,,,,4,0,0,,,,2,,,79,0
40556,note_on,,,,,6,0,0,,,,3,,,84,88
40560,note_on,,,,,4,0,0,,,,0,,,69,65
40560,note_on,,,,,0,0,0,,,,0,,,66,65
40560,note_on,,,,,0,0,0,,,,0,,,52,88
40560,note_on,,,,,0,0,0,,,,2,,,81,88
40670,note_on,,,,,110,0,0,,,,2,,,81,0
40688,note_on,,,,,18,0,0,,,,0,,,66,0
40692,note_on,,,,,4,0,0,,,,0,,,69,0
40752,note_on,,,,,60,0,0,,,,3,,,84,0
40780,note_on,,,,,28,0,0,,,,0,,,52,0
40800,note_on,,,,,20,0,0,,,,0,,,72,90
40800,note_on,,,,,0,0,0,,,,0,,,69,90
40800,note_on,,,,,0,0,0,,,,0,,,54,88
40910,note_on,,,,,110,0,0,,,,0,,,69,0
40910,note_on,,,,,0,0,0,,,,0,,,72,0
40920,note_on,,,,,10,0,0,,,,0,,,71,90
40920,note_on,,,,,0,0,0,,,,0,,,67,90
41020,note_on,,,,,100,0,0,,,,0,,,54,0
41030,note_on,,,,,10,0,0,,,,0,,,67,0
41030,note_on,,,,,0,0,0,,,,0,,,71,0
41032,note_on,,,,,2,0,0,,,,3,,,84,88
41040,note_on,,,,,8,0,0,,,,0,,,72,90
41040,note_on,,,,,0,0,0,,,,0,,,69,90
41040,note_on,,,,,0,0,0,,,,0,,,50,88
41040,note_on,,,,,0,0,0,,,,2,,,81,88
41150,note_on,,,,,110,0,0,,,,2,,,81,0
41208,note_on,,,,,58,0,0,,,,0,,,69,0
41208,note_on,,,,,0,0,0,,,,0,,,72,0
41228,note_on,,,,,20,0,0,,,,3,,,84,0
41260,note_on,,,,,32,0,0,,,,0,,,50,0
41280,note_on,,,,,20,0,0,,,,0,,,55,88
41280,note_on,,,,,0,0,0,,,,2,,,79,88
41280,note_on,,,,,0,0,0,,,,3,,,83,88
41390,note_on,,,,,110,0,0,,,,3,,,83,0
41390,note_on,,,,,0,0,0,,,,2,,,79,0
41400,note_on,,,,,10,0,0,,,,2,,,81,88
41400,note_on,,,,,0,0,0,,,,3,,,84,88
41500,note_on,,,,,100,0,0,,,,0,,,55,0
41510,note_on,,,,,10,0,0,,,,3,,,84,0
41510,note_on,,,,,0,0,0,,,,2,,,81,0
41520,note_on,,,,,10,0,0,,,,0,,,71,90
41520,note_on,,,,,0,0,0,,,,0,,,67,90
41520,note_on,,,,,0,0,0,,,,0,,,57,88
41520,note_on,,,,,0,0,0,,,,2,,,83,88
41520,note_on,,,,,0,0,0,,,,3,,,86,88
41630,note_on,,,,,110,0,0,,,,2,,,83,0
41648,note_on,,,,,18,0,0,,,,0,,,67,0
41648,note_on,,,,,0,0,0,,,,0,,,71,0
41716,note_on,,,,,68,0,0,,,,3,,,86,0
41740,note_on,,,,,24,0,0,,,,0,,,57,0
41760,note_on,,,,,20,0,0,,,,0,,,74,90
41760,note_on,,,,,0,0,0,,,,0,,,71,90
41760,note_on,,,,,0,0,0,,,,0,,,59,88
41870,note_on,,,,,110,0,0,,,,0,,,71,0
41870,note_on,,,,,0,0,0,,,,0,,,74,0
41880,note_on,,,,,10,0,0,,,,0,,,72,90
41880,note_on,,,,,0,0,0,,,,0,,,69,90
41980,note_on,,,,,100,0,0,,,,0,,,59,0
41990,note_on,,,,,10,0,0,,,,0,,,69,0
41990,note_on,,,,,0,0,0,,,,0,,,72,0
41996,note_on,,,,,6,0,0,,,,3,,,83,88
42000,note_on,,,,,4,0,0,,,,0,,,74,90
42000,note_on,,,,,0,0,0,,,,0,,,71,90
42000,note_on,,,,,0,0,0,,,,0,,,55,88
42000,note_on,,,,,0,0,0,,,,2,,,79,88
42110,note_on,,,,,110,0,0,,,,2,,,79,0
42144,note_on,,,,,34,0,0,,,,0,,,71,0
42144,note_on,,,,,0,0,0,,,,0,,,74,0
42192,note_on,,,,,48,0,0,,,,3,,,83,0
42220,note_on,,,,,28,0,0,,,,0,,,55,0
42236,note_on,,,,,16,0,0,,,,3,,,83,88
42240,note_on,,,,,4,0,0,,,,0,,,71,65
42240,note_on,,,,,0,0,0,,,,0,,,67,65
42240,note_on,,,,,0,0,0,,,,0,,,55,88
42240,note_on,,,,,0,0,0,,,,2,,,74,88
42288,note_on,,,,,48,0,0,,,,3,,,81,88
42291,note_on,,,,,3,0,0,,,,3,,,83,0
42292,note_on,,,,,1,0,0,,,,2,,,72,88
42295,note_on,,,,,3,0,0,,,,2,,,74,0
42343,note_on,,,,,48,0,0,,,,3,,,81,0
42347,note_on,,,,,4,0,0,,,,2,,,72,0
42356,note_on,,,,,9,0,0,,,,3,,,79,88
42360,note_on,,,,,4,0,0,,,,2,,,71,88
42460,note_on,,,,,100,0,0,,,,0,,,55,0
42480,note_on,,,,,20,0,0,,,,0,,,43,88
42576,note_on,,,,,96,0,0,,,,3,,,79,0
42580,note_on,,,,,4,0,0,,,,2,,,71,0
42681,note_on,,,,,101,0,0,,,,0,,,71,0
42700,note_on,,,,,19,0,0,,,,0,,,43,0
42712,note_on,,,,,12,0,0,,,,3,,,81,88
42716,note_on,,,,,4,0,0,,,,2,,,72,88
42720,note_on,,,,,4,0,0,,,,0,,,69,65
42720,note_on,,,,,0,0,0,,,,0,,,48,88
42767,note_on,,,,,47,0,0,,,,3,,,81,0
42771,note_on,,,,,4,0,0,,,,2,,,72,0
42780,note_on,,,,,9,0,0,,,,3,,,79,88
42784,note_on,,,,,4,0,0,,,,2,,,71,88
42835,note_on,,,,,51,0,0,,,,3,,,79,0
42839,note_on,,,,,4,0,0,,,,2,,,71,0
42844,note_on,,,,,5,0,0,,,,3,,,78,88
42848,note_on,,,,,4,0,0,,,,2,,,69,88
42902,note_on,,,,,54,0,0,,,,0,,,67,0
42940,note_on,,,,,38,0,0,,,,0,,,48,0
42960,note_on,,,,,20,0,0,,,,0,,,66,65
42960,note_on,,,,,0,0,0,,,,0,,,50,88
43064,note_on,,,,,104,0,0,,,,3,,,78,0
43068,note_on,,,,,4,0,0,,,,2,,,69,0
43161,note_on,,,,,93,0,0,,,,0,,,69,0
43180,note_on,,,,,19,0,0,,,,0,,,50,0
43196,note_on,,,,,16,0,0,,,,3,,,79,88
43200,note_on,,,,,4,0,0,,,,0,,,66,0
43200,note_on,,,,,0,0,0,,,,0,,,67,65
43200,note_on,,,,,0,0,0,,,,0,,,43,88
43200,note_on,,,,,0,0,0,,,,2,,,71,88
43416,note_on,,,,,216,0,0,,,,3,,,79,0
43420,note_on,,,,,4,0,0,,,,2,,,71,0
43436,note_on,,,,,16,0,0,,,,3,,,74,88
43440,note_on,,,,,4,0,0,,,,2,,,71,88
43641,note_on,,,,,201,0,0,,,,0,,,43,0
43641,note_on,,,,,0,0,0,,,,0,,,67,0
43656,note_on,,,,,15,0,0,,,,3,,,74,0
43660,note_on,,,,,4,0,0,,,,2,,,71,0
43680,note_on,,,,,20,0,0,,,,3,,,72,88
43684,note_on,,,,,4,0,0,,,,2,,,69,88
43900,note_on,,,,,216,0,0,,,,3,,,72,0
43904,note_on,,,,,4,0,0,,,,2,,,69,0
43920,note_on,,,,,16,0,0,,,,3,,,71,88
43924,note_on,,,,,4,0,0,,,,2,,,67,88
44140,note_on,,,,,216,0,0,,,,3,,,71,0
44144,note_on,,,,,4,0,0,,,,2,,,67,0
44156,note_on,,,,,12,0,0,,,,3,,,83,88
44160,note_on,,,,,4,0,0,,,,0,,,74,65
44160,note_on,,,,,0,0,0,,,,0,,,71,65
44160,note_on,,,,,0,0,0,,,,0,,,55,88
44160,note_on,,,,,0,0,0,,,,2,,,74,88
44208,note_on,,,,,48,0,0,,,,3,,,81,88
44211,note_on,,,,,3,0,0,,,,3,,,83,0
44212,note_on,,,,,1,0,0,,,,2,,,72,88
44215,note_on,,,,,3,0,0,,,,2,,,74,0
44263,note_on,,,,,48,0,0,,,,3,,,81,0
44267,note_on,,,,,4,0,0,,,,2,,,72,0
44276,note_on,,,,,9,0,0,,,,3,,,79,88
44280,note_on,,,,,4,0,0,,,,2,,,71,88
44380,note_on,,,,,100,0,0,,,,0,,,55,0
44380,note_on,,,,,0,0,0,,,,0,,,74,0
44400,note_on,,,,,20,0,0,,,,0,,,79,65
44400,note_on,,,,,0,0,0,,,,0,,,43,88
44496,note_on,,,,,96,0,0,,,,3,,,79,0
44500,note_on,,,,,4,0,0,,,,2,,,71,0
44601,note_on,,,,,101,0,0,,,,0,,,71,0
44620,note_on,,,,,19,0,0,,,,0,,,43,0
44632,note_on,,,,,12,0,0,,,,3,,,81,88
44636,note_on,,,,,4,0,0,,,,2,,,72,88
44640,note_on,,,,,4,0,0,,,,0,,,69,65
44640,note_on,,,,,0,0,0,,,,0,,,48,88
44687,note_on,,,,,47,0,0,,,,3,,,81,0
44691,note_on,,,,,4,0,0,,,,2,,,72,0
44700,note_on,,,,,9,0,0,,,,3,,,79,88
44704,note_on,,,,,4,0,0,,,,2,,,71,88
44755,note_on,,,,,51,0,0,,,,3,,,79,0
44759,note_on,,,,,4,0,0,,,,2,,,71,0
44764,note_on,,,,,5,0,0,,,,3,,,78,88
44768,note_on,,,,,4,0,0,,,,2,,,69,88
44841,note_on,,,,,73,0,0,,,,0,,,79,0
44860,note_on,,,,,19,0,0,,,,0,,,48,0
44880,note_on,,,,,20,0,0,,,,0,,,78,65
44880,note_on,,,,,0,0,0,,,,0,,,50,88
44984,note_on,,,,,104,0,0,,,,3,,,78,0
44988,note_on,,,,,4,0,0,,,,2,,,69,0
45081,note_on,,,,,93,0,0,,,,0,,,69,0
45100,note_on,,,,,19,0,0,,,,0,,,50,0
45100,note_on,,,,,0,0,0,,,,0,,,78,0
45116,note_on,,,,,16,0,0,,,,3,,,79,88
45120,note_on,,,,,4,0,0,,,,0,,,79,88
45120,note_on,,,,,0,0,0,,,,0,,,67,88
45120,note_on,,,,,0,0,0,,,,0,,,43,88
45120,note_on,,,,,0,0,0,,,,2,,,71,88
45336,note_on,,,,,216,0,0,,,,0,,,67,0
45336,note_on,,,,,0,0,0,,,,0,,,79,0
45336,note_on,,,,,0,0,0,,,,3,,,79,0
45340,note_on,,,,,4,0,0,,,,2,,,71,0
45340,note_on,,,,,0,0,0,,,,0,,,43,0
45360,note_on,,,,,20,0,0,,,,0,,,71,88
45360,note_on,,,,,0,0,0,,,,0,,,62,88
45360,note_on,,,,,0,0,0,,,,0,,,55,88
45468,note_on,,,,,108,0,0,,,,0,,,71,0
45480,note_on,,,,,12,0,0,,,,0,,,69,88
45576,note_on,,,,,96,0,0,,,,0,,,62,0
45580,note_on,,,,,4,0,0,,,,0,,,55,0
45588,note_on,,,,,8,0,0,,,,0,,,69,0
45600,note_on,,,,,12,0,0,,,,0,,,67,88
45600,note_on,,,,,0,0,0,,,,0,,,59,88
45600,note_on,,,,,0,0,0,,,,0,,,43,88
45816,note_on,,,,,216,0,0,,,,0,,,59,0
45816,note_on,,,,,0,0,0,,,,0,,,67,0
45820,note_on,,,,,4,0,0,,,,0,,,43,0
45840,note_on,,,,,20,0,0,,,,0,,,74,88
45840,note_on,,,,,0,0,0,,,,0,,,67,88
45840,note_on,,,,,0,0,0,,,,0,,,55,88
45948,note_on,,,,,108,0,0,,,,0,,,74,0
45960,note_on,,,,,12,0,0,,,,0,,,72,88
46056,note_on,,,,,96,0,0,,,,0,,,67,0
46060,note_on,,,,,4,0,0,,,,0,,,55,0
46068,note_on,,,,,8,0,0,,,,0,,,72,0
46080,note_on,,,,,12,0,0,,,,0,,,71,88
46080,note_on,,,,,0,0,0,,,,0,,,67,88
46080,note_on,,,,,0,0,0,,,,0,,,43,88
46296,note_on,,,,,216,0,0,,,,0,,,67,0
46296,note_on,,,,,0,0,0,,,,0,,,71,0
46300,note_on,,,,,4,0,0,,,,0,,,43,0
46320,note_on,,,,,20,0,0,,,,0,,,79,88
46320,note_on,,,,,0,0,0,,,,0,,,74,88
46320,note_on,,,,,0,0,0,,,,0,,,55,88
46536,note_on,,,,,216,0,0,,,,0,,,74,0
46536,note_on,,,,,0,0,0,,,,0,,,79,0
46540,note_on,,,,,4,0,0,,,,0,,,55,0
46560,note_on,,,,,20,0,0,,,,0,,,83,88
46560,note_on,,,,,0,0,0,,,,0,,,79,88
46560,note_on,,,,,0,0,0,,,,0,,,43,88
46776,note_on,,,,,216,0,0,,,,0,,,79,0
46776,note_on,,,,,0,0,0,,,,0,,,83,0
46780,note_on,,,,,4,0,0,,,,0,,,43,0
46800,note_on,,,,,20,0,0,,,,0,,,79,88
46800,note_on,,,,,0,0,0,,,,0,,,74,88
46800,note_on,,,,,0,0,0,,,,0,,,55,88
47016,note_on,,,,,216,0,0,,,,0,,,74,0
47016,note_on,,,,,0,0,0,,,,0,,,79,0
47020,note_on,,,,,4,0,0,,,,0,,,55,0
47040,note_on,,,,,20,0,0,,,,0,,,67,88
47040,note_on,,,,,0,0,0,,,,0,,,43,88
47256,note_on,,,,,216,0,0,,,,0,,,67,0
47260,note_on,,,,,4,0,0,,,,0,,,43,0
47280,note_on,,,,,20,0,0,,,,0,,,62,88
47280,note_on,,,,,0,0,0,,,,0,,,71,88
47280,note_on,,,,,0,0,0,,,,0,,,55,88
47388,note_on,,,,,108,0,0,,,,0,,,71,0
47400,note_on,,,,,12,0,0,,,,0,,,69,88
47496,note_on,,,,,96,0,0,,,,0,,,62,0
47500,note_on,,,,,4,0,0,,,,0,,,55,0
47508,note_on,,,,,8,0,0,,,,0,,,69,0
47520,note_on,,,,,12,0,0,,,,0,,,59,88
47520,note_on,,,,,0,0,0,,,,0,,,67,88
47520,note_on,,,,,0,0,0,,,,0,,,43,88
47736,note_on,,,,,216,0,0,,,,0,,,67,0
47736,note_on,,,,,0,0,0,,,,0,,,59,0
47740,note_on,,,,,4,0,0,,,,0,,,43,0
47760,note_on,,,,,20,0,0,,,,0,,,67,88
47760,note_on,,,,,0,0,0,,,,0,,,74,88
47760,note_on,,,,,0,0,0,,,,0,,,55,88
47868,note_on,,,,,108,0,0,,,,0,,,74,0
47880,note_on,,,,,12,0,0,,,,0,,,72,88
47976,note_on,,,,,96,0,0,,,,0,,,67,0
47980,note_on,,,,,4,0,0,,,,0,,,55,0
47988,note_on,,,,,8,0,0,,,,0,,,72,0
48000,note_on,,,,,12,0,0,,,,0,,,71,88
48000,note_on,,,,,0,0,0,,,,0,,,67,88
48000,note_on,,,,,0,0,0,,,,0,,,43,88
48216,note_on,,,,,216,0,0,,,,0,,,67,0
48216,note_on,,,,,0,0,0,,,,0,,,71,0
48220,note_on,,,,,4,0,0,,,,0,,,43,0
48240,note_on,,,,,20,0,0,,,,0,,,79,88
48240,note_on,,,,,0,0,0,,,,0,,,71,88
48240,note_on,,,,,0,0,0,,,,0,,,55,88
48456,note_on,,,,,216,0,0,,,,0,,,71,0
48456,note_on,,,,,0,0,0,,,,0,,,79,0
48460,note_on,,,,,4,0,0,,,,0,,,55,0
48480,note_on,,,,,20,0,0,,,,0,,,83,88
48480,note_on,,,,,0,0,0,,,,0,,,74,88
48480,note_on,,,,,0,0,0,,,,0,,,43,88
48696,note_on,,,,,216,0,0,,,,0,,,74,0
48696,note_on,,,,,0,0,0,,,,0,,,83,0
48700,note_on,,,,,4,0,0,,,,0,,,43,0
48720,note_on,,,,,20,0,0,,,,0,,,79,88
48720,note_on,,,,,0,0,0,,,,0,,,71,88
48720,note_on,,,,,0,0,0,,,,0,,,55,88
48936,note_on,,,,,216,0,0,,,,0,,,71,0
48936,note_on,,,,,0,0,0,,,,0,,,79,0
48940,note_on,,,,,4,0,0,,,,0,,,55,0
48960,note_on,,,,,20,0,0,,,,0,,,78,88
48960,note_on,,,,,0,0,0,,,,0,,,74,88
48960,note_on,,,,,0,0,0,,,,0,,,50,88
49176,note_on,,,,,216,0,0,,,,0,,,74,0
49176,note_on,,,,,0,0,0,,,,0,,,78,0
49180,note_on,,,,,4,0,0,,,,0,,,50,0
49200,note_on,,,,,20,0,0,,,,0,,,81,88
49200,note_on,,,,,0,0,0,,,,0,,,78,88
49200,note_on,,,,,0,0,0,,,,0,,,62,88
49308,note_on,,,,,108,0,0,,,,0,,,78,0
49308,note_on,,,,,0,0,0,,,,0,,,81,0
49320,note_on,,,,,12,0,0,,,,0,,,79,88
49320,note_on,,,,,0,0,0,,,,0,,,76,88
49420,note_on,,,,,100,0,0,,,,0,,,62,0
49428,note_on,,,,,8,0,0,,,,0,,,76,0
49428,note_on,,,,,0,0,0,,,,0,,,79,0
49440,note_on,,,,,12,0,0,,,,0,,,78,88
49440,note_on,,,,,0,0,0,,,,0,,,74,88
49440,note_on,,,,,0,0,0,,,,0,,,50,88
49656,note_on,,,,,216,0,0,,,,0,,,74,0
49656,note_on,,,,,0,0,0,,,,0,,,78,0
49660,note_on,,,,,4,0,0,,,,0,,,50,0
49680,note_on,,,,,20,0,0,,,,0,,,84,88
49680,note_on,,,,,0,0,0,,,,0,,,81,88
49680,note_on,,,,,0,0,0,,,,0,,,62,88
49788,note_on,,,,,108,0,0,,,,0,,,81,0
49788,note_on,,,,,0,0,0,,,,0,,,84,0
49800,note_on,,,,,12,0,0,,,,0,,,83,88
49800,note_on,,,,,0,0,0,,,,0,,,79,88
49900,note_on,,,,,100,0,0,,,,0,,,62,0
49908,note_on,,,,,8,0,0,,,,0,,,79,0
49908,note_on,,,,,0,0,0,,,,0,,,83,0
49920,note_on,,,,,12,0,0,,,,0,,,81,88
49920,note_on,,,,,0,0,0,,,,0,,,78,88
49920,note_on,,,,,0,0,0,,,,0,,,50,88
50136,note_on,,,,,216,0,0,,,,0,,,78,0
50136,note_on,,,,,0,0,0,,,,0,,,81,0
50140,note_on,,,,,4,0,0,,,,0,,,50,0
50160,note_on,,,,,20,0,0,,,,0,,,78,88
50160,note_on,,,,,0,0,0,,,,0,,,74,88
50160,note_on,,,,,0,0,0,,,,0,,,62,88
50376,note_on,,,,,216,0,0,,,,0,,,74,0
50376,note_on,,,,,0,0,0,,,,0,,,78,0
50380,note_on,,,,,4,0,0,,,,0,,,62,0
50400,note_on,,,,,20,0,0,,,,0,,,74,88
50400,note_on,,,,,0,0,0,,,,0,,,69,88
50400,note_on,,,,,0,0,0,,,,0,,,50,88
50616,note_on,,,,,216,0,0,,,,0,,,69,0
50616,note_on,,,,,0,0,0,,,,0,,,74,0
50620,note_on,,,,,4,0,0,,,,0,,,50,0
50640,note_on,,,,,20,0,0,,,,0,,,69,88
50640,note_on,,,,,0,0,0,,,,0,,,66,88
50640,note_on,,,,,0,0,0,,,,0,,,62,88
50856,note_on,,,,,216,0,0,,,,0,,,66,0
50856,note_on,,,,,0,0,0,,,,0,,,69,0
50860,note_on,,,,,4,0,0,,,,0,,,62,0
50880,note_on,,,,,20,0,0,,,,0,,,78,88
50880,note_on,,,,,0,0,0,,,,0,,,74,88
50880,note_on,,,,,0,0,0,,,,0,,,50,88
51096,note_on,,,,,216,0,0,,,,0,,,74,0
51096,note_on,,,,,0,0,0,,,,0,,,78,0
51100,note_on,,,,,4,0,0,,,,0,,,50,0
51120,note_on,,,,,20,0,0,,,,0,,,81,88
51120,note_on,,,,,0,0,0,,,,0,,,78,88
51120,note_on,,,,,0,0,0,,,,0,,,62,88
51228,note_on,,,,,108,0,0,,,,0,,,78,0
51228,note_on,,,,,0,0,0,,,,0,,,81,0
51240,note_on,,,,,12,0,0,,,,0,,,79,88
51240,note_on,,,,,0,0,0,,,,0,,,76,88
51340,note_on,,,,,100,0,0,,,,0,,,62,0
51348,note_on,,,,,8,0,0,,,,0,,,76,0
51348,note_on,,,,,0,0,0,,,,0,,,79,0
51360,note_on,,,,,12,0,0,,,,0,,,78,88
51360,note_on,,,,,0,0,0,,,,0,,,74,88
51360,note_on,,,,,0,0,0,,,,0,,,50,88
51576,note_on,,,,,216,0,0,,,,0,,,74,0
51576,note_on,,,,,0,0,0,,,,0,,,78,0
51580,note_on,,,,,4,0,0,,,,0,,,50,0
51600,note_on,,,,,20,0,0,,,,0,,,84,88
51600,note_on,,,,,0,0,0,,,,0,,,81,88
51600,note_on,,,,,0,0,0,,,,0,,,62,88
51708,note_on,,,,,108,0,0,,,,0,,,81,0
51708,note_on,,,,,0,0,0,,,,0,,,84,0
51720,note_on,,,,,12,0,0,,,,0,,,83,88
51720,note_on,,,,,0,0,0,,,,0,,,79,88
51820,note_on,,,,,100,0,0,,,,0,,,62,0
51828,note_on,,,,,8,0,0,,,,0,,,79,0
51828,note_on,,,,,0,0,0,,,,0,,,83,0
51840,note_on,,,,,12,0,0,,,,0,,,81,88
51840,note_on,,,,,0,0,0,,,,0,,,78,88
51840,note_on,,,,,0,0,0,,,,0,,,50,88
52056,note_on,,,,,216,0,0,,,,0,,,78,0
52056,note_on,,,,,0,0,0,,,,0,,,81,0
52060,note_on,,,,,4,0,0,,,,0,,,50,0
52080,note_on,,,,,20,0,0,,,,0,,,78,88
52080,note_on,,,,,0,0,0,,,,0,,,74,88
52080,note_on,,,,,0,0,0,,,,0,,,62,88
52296,note_on,,,,,216,0,0,,,,0,,,74,0
52296,note_on,,,,,0,0,0,,,,0,,,78,0
52300,note_on,,,,,4,0,0,,,,0,,,62,0
52320,note_on,,,,,20,0,0,,,,0,,,74,88
52320,note_on,,,,,0,0,0,,,,0,,,69,88
52320,note_on,,,,,0,0,0,,,,0,,,50,88
52536,note_on,,,,,216,0,0,,,,0,,,69,0
52536,note_on,,,,,0,0,0,,,,0,,,74,0
52540,note_on,,,,,4,0,0,,,,0,,,50,0
52560,note_on,,,,,20,0,0,,,,0,,,69,88
52560,note_on,,,,,0,0,0,,,,0,,,66,88
52560,note_on,,,,,0,0,0,,,,0,,,62,88
52776,note_on,,,,,216,0,0,,,,0,,,66,0
52776,note_on,,,,,0,0,0,,,,0,,,69,0
52780,note_on,,,,,4,0,0,,,,0,,,62,0
52800,note_on,,,,,20,0,0,,,,0,,,71,88
52800,note_on,,,,,0,0,0,,,,0,,,59,88
53016,note_on,,,,,216,0,0,,,,0,,,71,0
53020,note_on,,,,,4,0,0,,,,0,,,59,0
53040,note_on,,,,,20,0,0,,,,0,,,69,88
53040,note_on,,,,,0,0,0,,,,0,,,57,88
53148,note_on,,,,,108,0,0,,,,0,,,69,0
53150,note_on,,,,,2,0,0,,,,0,,,57,0
53160,note_on,,,,,10,0,0,,,,0,,,67,88
53160,note_on,,,,,0,0,0,,,,0,,,55,88
53232,set_tempo,,,,,72,1,0,612244,,,,,,,
53268,note_on,,,,,36,0,0,,,,0,,,67,0
53270,note_on,,,,,2,0,0,,,,0,,,55,0
53280,note_on,,,,,10,0,0,,,,0,,,74,88
53280,note_on,,,,,0,0,0,,,,0,,,62,88
53496,note_on,,,,,216,0,0,,,,0,,,74,0
53500,note_on,,,,,4,0,0,,,,0,,,62,0
53512,set_tempo,,,,,12,1,0,638297,,,,,,,
53520,note_on,,,,,8,0,0,,,,0,,,62,88
53520,note_on,,,,,0,0,0,,,,0,,,50,88
53736,note_on,,,,,216,0,0,,,,0,,,62,0
53740,note_on,,,,,4,0,0,,,,0,,,50,0
53760,marker,,,,,20,1,0,,,,,,,,
53760,note_on,,,,,0,0,0,,,,0,,,67,88
53760,note_on,,,,,0,0,0,,,,0,,,55,88
53760,note_on,,,,,0,0,0,,,,3,,,67,88
53872,set_tempo,,,,,112,1,0,576923,,,,,,,
53980,note_on,,,,,108,0,0,,,,3,,,67,0
54000,note_on,,,,,20,0,0,,,,3,,,69,88
54110,note_on,,,,,110,0,0,,,,3,,,69,0
54120,note_on,,,,,10,0,0,,,,3,,,71,88
54192,note_on,,,,,72,0,0,,,,0,,,67,0
54201,note_on,,,,,9,0,0,,,,0,,,55,0
54230,note_on,,,,,29,0,0,,,,3,,,71,0
54240,note_on,,,,,10,0,0,,,,3,,,72,88
54350,note_on,,,,,110,0,0,,,,3,,,72,0
54360,note_on,,,,,10,0,0,,,,3,,,74,88
54470,note_on,,,,,110,0,0,,,,3,,,74,0
54480,note_on,,,,,10,0,0,,,,3,,,76,88
54590,note_on,,,,,110,0,0,,,,3,,,76,0
54600,note_on,,,,,10,0,0,,,,3,,,78,88
54710,note_on,,,,,110,0,0,,,,3,,,78,0
54720,note_on,,,,,10,0,0,,,,0,,,71,65
54720,note_on,,,,,0,0,0,,,,0,,,74,65
54720,note_on,,,,,0,0,0,,,,0,,,79,65
54720,note_on,,,,,0,0,0,,,,0,,,43,88
54720,note_on,,,,,0,0,0,,,,2,,,67,88
54720,note_on,,,,,0,0,0,,,,3,,,79,88
54940,note_on,,,,,220,0,0,,,,3,,,79,0
54940,note_on,,,,,0,0,0,,,,2,,,67,0
54960,note_on,,,,,20,0,0,,,,2,,,69,88
54960,note_on,,,,,0,0,0,,,,3,,,74,88
55070,note_on,,,,,110,0,0,,,,2,,,69,0
55080,note_on,,,,,10,0,0,,,,2,,,71,88
55161,note_on,,,,,81,0,0,,,,0,,,43,0
55161,note_on,,,,,0,0,0,,,,0,,,79,0
55161,note_on,,,,,0,0,0,,,,0,,,74,0
55161,note_on,,,,,0,0,0,,,,0,,,71,0
55180,note_on,,,,,19,0,0,,,,3,,,74,0
55190,note_on,,,,,10,0,0,,,,2,,,71,0
55200,note_on,,,,,10,0,0,,,,2,,,72,88
55200,note_on,,,,,0,0,0,,,,3,,,71,88
55310,note_on,,,,,110,0,0,,,,2,,,72,0
55320,note_on,,,,,10,0,0,,,,2,,,74,88
55420,note_on,,,,,100,0,0,,,,3,,,71,0
55430,note_on,,,,,10,0,0,,,,2,,,74,0
55440,note_on,,,,,10,0,0,,,,2,,,76,88
55440,note_on,,,,,0,0,0,,,,3,,,67,88
55550,note_on,,,,,110,0,0,,,,2,,,76,0
55560,note_on,,,,,10,0,0,,,,2,,,78,88
55660,note_on,,,,,100,0,0,,,,3,,,67,0
55670,note_on,,,,,10,0,0,,,,2,,,78,0
55680,note_on,,,,,10,0,0,,,,0,,,71,65
55680,note_on,,,,,0,0,0,,,,0,,,74,65
55680,note_on,,,,,0,0,0,,,,0,,,79,65
55680,note_on,,,,,0,0,0,,,,0,,,43,88
55680,note_on,,,,,0,0,0,,,,2,,,79,88
55680,note_on,,,,,0,0,0,,,,3,,,67,88
55900,note_on,,,,,220,0,0,,,,3,,,67,0
55900,note_on,,,,,0,0,0,,,,2,,,79,0
55920,note_on,,,,,20,0,0,,,,2,,,74,88
55920,note_on,,,,,0,0,0,,,,3,,,69,88
56030,note_on,,,,,110,0,0,,,,3,,,69,0
56040,note_on,,,,,10,0,0,,,,3,,,71,88
56112,note_on,,,,,72,0,0,,,,0,,,43,0
56121,note_on,,,,,9,0,0,,,,0,,,79,0
56121,note_on,,,,,0,0,0,,,,0,,,74,0
56121,note_on,,,,,0,0,0,,,,0,,,71,0
56140,note_on,,,,,19,0,0,,,,2,,,74,0
56150,note_on,,,,,10,0,0,,,,3,,,71,0
56160,note_on,,,,,10,0,0,,,,2,,,71,88
56160,note_on,,,,,0,0,0,,,,3,,,72,88
56270,note_on,,,,,110,0,0,,,,3,,,72,0
56280,note_on,,,,,10,0,0,,,,3,,,74,88
56380,note_on,,,,,100,0,0,,,,2,,,71,0
56390,note_on,,,,,10,0,0,,,,3,,,74,0
56400,note_on,,,,,10,0,0,,,,2,,,67,88
56400,note_on,,,,,0,0,0,,,,3,,,76,88
56510,note_on,,,,,110,0,0,,,,3,,,76,0
56520,note_on,,,,,10,0,0,,,,3,,,78,88
56620,note_on,,,,,100,0,0,,,,2,,,67,0
56630,note_on,,,,,10,0,0,,,,3,,,78,0
56640,note_on,,,,,10,0,0,,,,0,,,74,65
56640,note_on,,,,,0,0,0,,,,0,,,67,65
56640,note_on,,,,,0,0,0,,,,0,,,59,88
56640,note_on,,,,,0,0,0,,,,3,,,79,88
56750,note_on,,,,,110,0,0,,,,3,,,79,0
56760,note_on,,,,,10,0,0,,,,3,,,81,88
56870,note_on,,,,,110,0,0,,,,3,,,81,0
56880,note_on,,,,,10,0,0,,,,3,,,83,88
57321,note_on,,,,,441,0,0,,,,3,,,83,0
57360,note_on,,,,,39,0,0,,,,3,,,79,88
57504,note_on,,,,,144,0,0,,,,0,,,59,0
57523,note_on,,,,,19,0,0,,,,0,,,67,0
57523,note_on,,,,,0,0,0,,,,0,,,74,0
57580,note_on,,,,,57,0,0,,,,3,,,79,0
57600,note_on,,,,,20,0,0,,,,0,,,72,65
57600,note_on,,,,,0,0,0,,,,0,,,76,65
57600,note_on,,,,,0,0,0,,,,0,,,60,88
57600,note_on,,,,,0,0,0,,,,2,,,72,88
57600,note_on,,,,,0,0,0,,,,3,,,76,88
57710,note_on,,,,,110,0,0,,,,2,,,72,0
57720,note_on,,,,,10,0,0,,,,2,,,74,88
57820,note_on,,,,,100,0,0,,,,3,,,76,0
57830,note_on,,,,,10,0,0,,,,2,,,74,0
57840,note_on,,,,,10,0,0,,,,2,,,76,88
57840,note_on,,,,,0,0,0,,,,3,,,84,88
58060,note_on,,,,,220,0,0,,,,3,,,84,0
58080,note_on,,,,,20,0,0,,,,3,,,81,88
58281,note_on,,,,,201,0,0,,,,2,,,76,0
58300,note_on,,,,,19,0,0,,,,3,,,81,0
58320,note_on,,,,,20,0,0,,,,2,,,72,88
58320,note_on,,,,,0,0,0,,,,3,,,76,88
58464,note_on,,,,,144,0,0,,,,0,,,60,0
58483,note_on,,,,,19,0,0,,,,0,,,76,0
58483,note_on,,,,,0,0,0,,,,0,,,72,0
58540,note_on,,,,,57,0,0,,,,3,,,76,0
58540,note_on,,,,,0,0,0,,,,2,,,72,0
58560,note_on,,,,,20,0,0,,,,0,,,69,65
58560,note_on,,,,,0,0,0,,,,0,,,78,65
58560,note_on,,,,,0,0,0,,,,0,,,62,88
58560,note_on,,,,,0,0,0,,,,2,,,69,88
58560,note_on,,,,,0,0,0,,,,3,,,78,88
58670,note_on,,,,,110,0,0,,,,3,,,78,0
58680,note_on,,,,,10,0,0,,,,3,,,79,88
58780,note_on,,,,,100,0,0,,,,2,,,69,0
58790,note_on,,,,,10,0,0,,,,3,,,79,0
58800,note_on,,,,,10,0,0,,,,2,,,78,88
58800,note_on,,,,,0,0,0,,,,3,,,81,88
59020,note_on,,,,,220,0,0,,,,2,,,78,0
59040,note_on,,,,,20,0,0,,,,2,,,74,88
59241,note_on,,,,,201,0,0,,,,3,,,81,0
59260,note_on,,,,,19,0,0,,,,2,,,74,0
59280,note_on,,,,,20,0,0,,,,2,,,69,88
59280,note_on,,,,,0,0,0,,,,3,,,78,88
59424,note_on,,,,,144,0,0,,,,0,,,62,0
59443,note_on,,,,,19,0,0,,,,0,,,78,0
59443,note_on,,,,,0,0,0,,,,0,,,69,0
59500,note_on,,,,,57,0,0,,,,3,,,78,0
59500,note_on,,,,,0,0,0,,,,2,,,69,0
59520,note_on,,,,,20,0,0,,,,0,,,71,65
59520,note_on,,,,,0,0,0,,,,0,,,74,65
59520,note_on,,,,,0,0,0,,,,0,,,55,88
59520,note_on,,,,,0,0,0,,,,2,,,71,88
59520,note_on,,,,,0,0,0,,,,3,,,74,88
59630,note_on,,,,,110,0,0,,,,2,,,71,0
59640,note_on,,,,,10,0,0,,,,2,,,72,88
59740,note_on,,,,,100,0,0,,,,3,,,74,0
59750,note_on,,,,,10,0,0,,,,2,,,72,0
59760,note_on,,,,,10,0,0,,,,2,,,74,88
59760,note_on,,,,,0,0,0,,,,3,,,83,88
59980,note_on,,,,,220,0,0,,,,3,,,83,0
60000,note_on,,,,,20,0,0,,,,3,,,79,88
60201,note_on,,,,,201,0,0,,,,2,,,74,0
60220,note_on,,,,,19,0,0,,,,3,,,79,0
60240,note_on,,,,,20,0,0,,,,2,,,71,88
60240,note_on,,,,,0,0,0,,,,3,,,74,88
60384,note_on,,,,,144,0,0,,,,0,,,55,0
60403,note_on,,,,,19,0,0,,,,0,,,74,0
60403,note_on,,,,,0,0,0,,,,0,,,71,0
60460,note_on,,,,,57,0,0,,,,3,,,74,0
60460,note_on,,,,,0,0,0,,,,2,,,71,0
60480,note_on,,,,,20,0,0,,,,0,,,67,65
60480,note_on,,,,,0,0,0,,,,0,,,76,65
60480,note_on,,,,,0,0,0,,,,0,,,60,88
60480,note_on,,,,,0,0,0,,,,2,,,67,88
60480,note_on,,,,,0,0,0,,,,3,,,76,88
60590,note_on,,,,,110,0,0,,,,3,,,76,0
60600,note_on,,,,,10,0,0,,,,3,,,78,88
60700,note_on,,,,,100,0,0,,,,2,,,67,0
60710,note_on,,,,,10,0,0,,,,3,,,78,0
60720,note_on,,,,,10,0,0,,,,2,,,76,88
60720,note_on,,,,,0,0,0,,,,3,,,79,88
60940,note_on,,,,,220,0,0,,,,2,,,76,0
60960,note_on,,,,,20,0,0,,,,2,,,72,88
61161,note_on,,,,,201,0,0,,,,3,,,79,0
61180,note_on,,,,,19,0,0,,,,2,,,72,0
61200,note_on,,,,,20,0,0,,,,2,,,67,88
61200,note_on,,,,,0,0,0,,,,3,,,76,88
61344,note_on,,,,,144,0,0,,,,0,,,60,0
61363,note_on,,,,,19,0,0,,,,0,,,76,0
61363,note_on,,,,,0,0,0,,,,0,,,67,0
61420,note_on,,,,,57,0,0,,,,3,,,76,0
61420,note_on,,,,,0,0,0,,,,2,,,67,0
61440,note_on,,,,,20,0,0,,,,0,,,69,65
61440,note_on,,,,,0,0,0,,,,0,,,72,65
61440,note_on,,,,,0,0,0,,,,0,,,54,88
61440,note_on,,,,,0,0,0,,,,2,,,69,88
61440,note_on,,,,,0,0,0,,,,3,,,72,88
61550,note_on,,,,,110,0,0,,,,2,,,69,0
61560,note_on,,,,,10,0,0,,,,2,,,71,88
61670,note_on,,,,,110,0,0,,,,2,,,71,0
61680,note_on,,,,,10,0,0,,,,3,,,72,0
61680,note_on,,,,,0,0,0,,,,2,,,72,88
61680,note_on,,,,,0,0,0,,,,3,,,81,88
61920,note_on,,,,,240,0,0,,,,3,,,81,0
61920,note_on,,,,,0,0,0,,,,3,,,78,88
62121,note_on,,,,,201,0,0,,,,2,,,72,0
62160,note_on,,,,,39,0,0,,,,3,,,78,0
62160,note_on,,,,,0,0,0,,,,2,,,81,88
62160,note_on,,,,,0,0,0,,,,3,,,76,88
62304,note_on,,,,,144,0,0,,,,0,,,54,0
62323,note_on,,,,,19,0,0,,,,0,,,72,0
62323,note_on,,,,,0,0,0,,,,0,,,69,0
62380,note_on,,,,,57,0,0,,,,2,,,81,0
62400,note_on,,,,,20,0,0,,,,3,,,76,0
62400,note_on,,,,,0,0,0,,,,0,,,66,65
62400,note_on,,,,,0,0,0,,,,0,,,75,65
62400,note_on,,,,,0,0,0,,,,0,,,59,88
62400,note_on,,,,,0,0,0,,,,2,,,78,88
62400,note_on,,,,,0,0,0,,,,3,,,75,87
62546,note_on,,,,,146,0,0,,,,3,,,75,0
62616,note_on,,,,,70,0,0,,,,0,,,59,0
62640,note_on,,,,,24,0,0,,,,0,,,60,88
62640,note_on,,,,,0,0,0,,,,3,,,75,87
62779,note_on,,,,,139,0,0,,,,3,,,75,0
62841,note_on,,,,,62,0,0,,,,2,,,78,0
62856,note_on,,,,,15,0,0,,,,0,,,60,0
62880,note_on,,,,,24,0,0,,,,0,,,59,88
62880,note_on,,,,,0,0,0,,,,3,,,75,87
62956,note_on,,,,,76,0,0,,,,3,,,76,88
62968,note_on,,,,,12,0,0,,,,3,,,75,0
63028,note_on,,,,,60,0,0,,,,3,,,76,0
63028,note_on,,,,,0,0,0,,,,3,,,75,88
63096,note_on,,,,,68,0,0,,,,0,,,59,0
63100,note_on,,,,,4,0,0,,,,3,,,75,0
63120,note_on,,,,,20,0,0,,,,0,,,57,88
63120,note_on,,,,,0,0,0,,,,3,,,73,87
63240,note_on,,,,,120,0,0,,,,3,,,75,87
63244,note_on,,,,,4,0,0,,,,3,,,73,0
63283,note_on,,,,,39,0,0,,,,0,,,75,0
63283,note_on,,,,,0,0,0,,,,0,,,66,0
63336,note_on,,,,,53,0,0,,,,3,,,75,0
63336,note_on,,,,,0,0,0,,,,0,,,57,0
63360,note_on,,,,,24,0,0,,,,0,,,64,65
63360,note_on,,,,,0,0,0,,,,0,,,76,65
63360,note_on,,,,,0,0,0,,,,0,,,55,88
63360,note_on,,,,,0,0,0,,,,3,,,76,87
63497,note_on,,,,,137,0,0,,,,3,,,76,0
63576,note_on,,,,,79,0,0,,,,0,,,55,0
63600,note_on,,,,,24,0,0,,,,0,,,54,88
63600,note_on,,,,,0,0,0,,,,3,,,76,87
63743,note_on,,,,,143,0,0,,,,3,,,76,0
63816,note_on,,,,,73,0,0,,,,0,,,54,0
63840,note_on,,,,,24,0,0,,,,0,,,55,88
63840,note_on,,,,,0,0,0,,,,3,,,76,87
63916,note_on,,,,,76,0,0,,,,3,,,78,88
63920,note_on,,,,,4,0,0,,,,3,,,76,0
63984,note_on,,,,,64,0,0,,,,3,,,76,88
63988,note_on,,,,,4,0,0,,,,3,,,78,0
64056,note_on,,,,,68,0,0,,,,3,,,76,0
64056,note_on,,,,,0,0,0,,,,0,,,55,0
64080,note_on,,,,,24,0,0,,,,0,,,52,88
64080,note_on,,,,,0,0,0,,,,3,,,75,87
64200,note_on,,,,,120,0,0,,,,3,,,75,0
64200,note_on,,,,,0,0,0,,,,3,,,76,87
64243,note_on,,,,,43,0,0,,,,0,,,76,0
64243,note_on,,,,,0,0,0,,,,0,,,64,0
64296,note_on,,,,,53,0,0,,,,0,,,52,0
64320,note_on,,,,,24,0,0,,,,0,,,66,65
64320,note_on,,,,,0,0,0,,,,0,,,75,65
64320,note_on,,,,,0,0,0,,,,0,,,47,88
64320,note_on,,,,,0,0,0,,,,2,,,75,87
64320,note_on,,,,,0,0,0,,,,3,,,78,87
64325,note_on,,,,,5,0,0,,,,3,,,76,0
64457,note_on,,,,,132,0,0,,,,3,,,78,0
64466,note_on,,,,,9,0,0,,,,2,,,75,0
64536,note_on,,,,,70,0,0,,,,0,,,47,0
64560,note_on,,,,,24,0,0,,,,0,,,49,88
64560,note_on,,,,,0,0,0,,,,2,,,75,87
64560,note_on,,,,,0,0,0,,,,3,,,78,87
64686,note_on,,,,,126,0,0,,,,3,,,78,0
64699,note_on,,,,,13,0,0,,,,2,,,75,0
64776,note_on,,,,,77,0,0,,,,0,,,49,0
64800,note_on,,,,,24,0,0,,,,0,,,51,88
64800,note_on,,,,,0,0,0,,,,2,,,75,87
64800,note_on,,,,,0,0,0,,,,3,,,78,87
64874,note_on,,,,,74,0,0,,,,2,,,76,72
64886,note_on,,,,,12,0,0,,,,2,,,75,0
64892,note_on,,,,,6,0,0,,,,3,,,78,0
64892,note_on,,,,,0,0,0,,,,3,,,79,88
64956,note_on,,,,,64,0,0,,,,2,,,76,0
64956,note_on,,,,,0,0,0,,,,2,,,75,72
64968,note_on,,,,,12,0,0,,,,3,,,79,0
64968,note_on,,,,,0,0,0,,,,3,,,78,88
65016,note_on,,,,,48,0,0,,,,0,,,51,0
65038,note_on,,,,,22,0,0,,,,2,,,75,0
65040,note_on,,,,,2,0,0,,,,0,,,47,88
65040,note_on,,,,,0,0,0,,,,2,,,73,87
65040,note_on,,,,,0,0,0,,,,3,,,76,87
65044,note_on,,,,,4,0,0,,,,3,,,78,0
65150,note_on,,,,,106,0,0,,,,2,,,73,0
65160,note_on,,,,,10,0,0,,,,2,,,75,87
65160,note_on,,,,,0,0,0,,,,3,,,78,87
65170,note_on,,,,,10,0,0,,,,3,,,76,0
65203,note_on,,,,,33,0,0,,,,0,,,75,0
65203,note_on,,,,,0,0,0,,,,0,,,66,0
65256,note_on,,,,,53,0,0,,,,0,,,47,0
65266,note_on,,,,,10,0,0,,,,3,,,78,0
65280,note_on,,,,,14,0,0,,,,0,,,67,65
65280,note_on,,,,,0,0,0,,,,0,,,76,65
65280,note_on,,,,,0,0,0,,,,0,,,52,88
65280,note_on,,,,,0,0,0,,,,2,,,76,87
65280,note_on,,,,,0,0,0,,,,3,,,79,87
65296,note_on,,,,,16,0,0,,,,2,,,75,0
65417,note_on,,,,,121,0,0,,,,2,,,76,0
65426,note_on,,,,,9,0,0,,,,3,,,79,0
65496,note_on,,,,,70,0,0,,,,0,,,52,0
65520,note_on,,,,,24,0,0,,,,0,,,54,88
65520,note_on,,,,,0,0,0,,,,2,,,76,87
65520,note_on,,,,,0,0,0,,,,3,,,79,87
65659,note_on,,,,,139,0,0,,,,3,,,79,0
65663,note_on,,,,,4,0,0,,,,2,,,76,0
65736,note_on,,,,,73,0,0,,,,0,,,54,0
65760,note_on,,,,,24,0,0,,,,0,,,55,88
65760,note_on,,,,,0,0,0,,,,2,,,76,87
65760,note_on,,,,,0,0,0,,,,3,,,79,87
65824,note_on,,,,,64,0,0,,,,3,,,79,0
65836,note_on,,,,,12,0,0,,,,2,,,78,72
65840,note_on,,,,,4,0,0,,,,3,,,81,88
65846,note_on,,,,,6,0,0,,,,2,,,76,0
65908,note_on,,,,,62,0,0,,,,3,,,81,0
65916,note_on,,,,,8,0,0,,,,2,,,76,72
65916,note_on,,,,,0,0,0,,,,3,,,79,88
65918,note_on,,,,,2,0,0,,,,2,,,78,0
65976,note_on,,,,,58,0,0,,,,0,,,55,0
65984,note_on,,,,,8,0,0,,,,3,,,79,0
65998,note_on,,,,,14,0,0,,,,2,,,76,0
66000,note_on,,,,,2,0,0,,,,0,,,52,88
66000,note_on,,,,,0,0,0,,,,2,,,75,87
66000,note_on,,,,,0,0,0,,,,3,,,78,87
66110,note_on,,,,,110,0,0,,,,3,,,78,0
66120,note_on,,,,,10,0,0,,,,2,,,75,0
66120,note_on,,,,,0,0,0,,,,2,,,76,87
66120,note_on,,,,,0,0,0,,,,3,,,79,87
66163,note_on,,,,,43,0,0,,,,0,,,76,0
66163,note_on,,,,,0,0,0,,,,0,,,67,0
66216,note_on,,,,,53,0,0,,,,0,,,52,0
66240,note_on,,,,,24,0,0,,,,0,,,73,65
66240,note_on,,,,,0,0,0,,,,0,,,78,65
66240,note_on,,,,,0,0,0,,,,0,,,47,88
66240,note_on,,,,,0,0,0,,,,2,,,78,87
66240,note_on,,,,,0,0,0,,,,3,,,81,87
66245,note_on,,,,,5,0,0,,,,2,,,76,0
66256,note_on,,,,,11,0,0,,,,3,,,79,0
66377,note_on,,,,,121,0,0,,,,3,,,81,0
66377,note_on,,,,,0,0,0,,,,2,,,78,0
66456,note_on,,,,,79,0,0,,,,0,,,47,0
66480,note_on,,,,,24,0,0,,,,0,,,49,88
66480,note_on,,,,,0,0,0,,,,2,,,78,87
66480,note_on,,,,,0,0,0,,,,3,,,81,87
66606,note_on,,,,,126,0,0,,,,2,,,78,0
66623,note_on,,,,,17,0,0,,,,3,,,81,0
66696,note_on,,,,,73,0,0,,,,0,,,49,0
66720,note_on,,,,,24,0,0,,,,0,,,51,88
66720,note_on,,,,,0,0,0,,,,2,,,78,87
66720,note_on,,,,,0,0,0,,,,3,,,81,87
66788,note_on,,,,,68,0,0,,,,3,,,83,88
66792,note_on,,,,,4,0,0,,,,2,,,79,72
66804,note_on,,,,,12,0,0,,,,2,,,78,0
66808,note_on,,,,,4,0,0,,,,3,,,81,0
66860,note_on,,,,,52,0,0,,,,2,,,79,0
66864,note_on,,,,,4,0,0,,,,3,,,83,0
66876,note_on,,,,,12,0,0,,,,3,,,81,88
66878,note_on,,,,,2,0,0,,,,2,,,78,72
66936,note_on,,,,,58,0,0,,,,0,,,51,0
66946,note_on,,,,,10,0,0,,,,2,,,78,0
66952,note_on,,,,,6,0,0,,,,3,,,81,0
66960,note_on,,,,,8,0,0,,,,0,,,47,88
66960,note_on,,,,,0,0,0,,,,2,,,76,87
66960,note_on,,,,,0,0,0,,,,3,,,79,87
67080,note_on,,,,,120,0,0,,,,3,,,79,0
67080,note_on,,,,,0,0,0,,,,2,,,78,87
67084,note_on,,,,,4,0,0,,,,3,,,81,88
67090,note_on,,,,,6,0,0,,,,2,,,76,0
67123,note_on,,,,,33,0,0,,,,0,,,78,0
67123,note_on,,,,,0,0,0,,,,0,,,73,0
67176,note_on,,,,,53,0,0,,,,0,,,47,0
67186,note_on,,,,,10,0,0,,,,2,,,78,0
67192,note_on,,,,,6,0,0,,,,3,,,81,0
67200,note_on,,,,,8,0,0,,,,0,,,71,65
67200,note_on,,,,,0,0,0,,,,0,,,76,65
67200,note_on,,,,,0,0,0,,,,0,,,79,65
67200,note_on,,,,,0,0,0,,,,0,,,64,88
67200,note_on,,,,,0,0,0,,,,2,,,76,87
67200,note_on,,,,,0,0,0,,,,3,,,79,87
67272,note_on,,,,,72,0,0,,,,3,,,79,0
67272,note_on,,,,,0,0,0,,,,2,,,76,0
67320,note_on,,,,,48,0,0,,,,2,,,78,87
67320,note_on,,,,,0,0,0,,,,3,,,81,87
67404,note_on,,,,,84,0,0,,,,3,,,81,0
67404,note_on,,,,,0,0,0,,,,2,,,78,0
67416,note_on,,,,,12,0,0,,,,0,,,64,0
67420,note_on,,,,,4,0,0,,,,0,,,79,0
67420,note_on,,,,,0,0,0,,,,0,,,76,0
67420,note_on,,,,,0,0,0,,,,0,,,71,0
67440,note_on,,,,,20,0,0,,,,0,,,71,65
67440,note_on,,,,,0,0,0,,,,0,,,76,65
67440,note_on,,,,,0,0,0,,,,0,,,79,65
67440,note_on,,,,,0,0,0,,,,0,,,64,88
67440,note_on,,,,,0,0,0,,,,2,,,79,87
67440,note_on,,,,,0,0,0,,,,3,,,83,87
67656,note_on,,,,,216,0,0,,,,0,,,64,0
67660,note_on,,,,,4,0,0,,,,0,,,79,0
67660,note_on,,,,,0,0,0,,,,0,,,76,0
67660,note_on,,,,,0,0,0,,,,0,,,71,0
67680,note_on,,,,,20,0,0,,,,0,,,71,65
67680,note_on,,,,,0,0,0,,,,0,,,76,65
67680,note_on,,,,,0,0,0,,,,0,,,79,65
67680,note_on,,,,,0,0,0,,,,0,,,64,88
67896,note_on,,,,,216,0,0,,,,0,,,64,0
67900,note_on,,,,,4,0,0,,,,0,,,79,0
67900,note_on,,,,,0,0,0,,,,0,,,76,0
67900,note_on,,,,,0,0,0,,,,0,,,71,0
67920,note_on,,,,,20,0,0,,,,0,,,71,65
67920,note_on,,,,,0,0,0,,,,0,,,76,65
67920,note_on,,,,,0,0,0,,,,0,,,79,65
67920,note_on,,,,,0,0,0,,,,0,,,64,88
67984,note_on,,,,,64,0,0,,,,3,,,83,0
67984,note_on,,,,,0,0,0,,,,2,,,79,0
68136,note_on,,,,,152,0,0,,,,0,,,64,0
68140,note_on,,,,,4,0,0,,,,0,,,79,0
68140,note_on,,,,,0,0,0,,,,0,,,76,0
68140,note_on,,,,,0,0,0,,,,0,,,71,0
68160,note_on,,,,,20,0,0,,,,0,,,71,65
68160,note_on,,,,,0,0,0,,,,0,,,76,65
68160,note_on,,,,,0,0,0,,,,0,,,79,65
68160,note_on,,,,,0,0,0,,,,0,,,62,88
68160,note_on,,,,,0,0,0,,,,2,,,76,87
68160,note_on,,,,,0,0,0,,,,3,,,79,87
68250,note_on,,,,,90,0,0,,,,3,,,79,0
68262,note_on,,,,,12,0,0,,,,2,,,76,0
68280,note_on,,,,,18,0,0,,,,2,,,78,87
68280,note_on,,,,,0,0,0,,,,3,,,81,87
68356,note_on,,,,,76,0,0,,,,3,,,81,0
68368,note_on,,,,,12,0,0,,,,2,,,78,0
68376,note_on,,,,,8,0,0,,,,0,,,62,0
68380,note_on,,,,,4,0,0,,,,0,,,79,0
68380,note_on,,,,,0,0,0,,,,0,,,76,0
68380,note_on,,,,,0,0,0,,,,0,,,71,0
68400,note_on,,,,,20,0,0,,,,0,,,71,65
68400,note_on,,,,,0,0,0,,,,0,,,76,65
68400,note_on,,,,,0,0,0,,,,0,,,79,65
68400,note_on,,,,,0,0,0,,,,0,,,62,88
68400,note_on,,,,,0,0,0,,,,2,,,79,87
68400,note_on,,,,,0,0,0,,,,3,,,83,87
68616,note_on,,,,,216,0,0,,,,0,,,62,0
68620,note_on,,,,,4,0,0,,,,0,,,79,0
68620,note_on,,,,,0,0,0,,,,0,,,76,0
68620,note_on,,,,,0,0,0,,,,0,,,71,0
68640,note_on,,,,,20,0,0,,,,0,,,71,65
68640,note_on,,,,,0,0,0,,,,0,,,76,65
68640,note_on,,,,,0,0,0,,,,0,,,79,65
68640,note_on,,,,,0,0,0,,,,0,,,62,88
68856,note_on,,,,,216,0,0,,,,0,,,62,0
68860,note_on,,,,,4,0,0,,,,0,,,79,0
68860,note_on,,,,,0,0,0,,,,0,,,76,0
68860,note_on,,,,,0,0,0,,,,0,,,71,0
68880,note_on,,,,,20,0,0,,,,0,,,71,65
68880,note_on,,,,,0,0,0,,,,0,,,76,65
68880,note_on,,,,,0,0,0,,,,0,,,79,65
68880,note_on,,,,,0,0,0,,,,0,,,62,88
69096,note_on,,,,,216,0,0,,,,0,,,62,0
69097,note_on,,,,,1,0,0,,,,3,,,83,0
69097,note_on,,,,,0,0,0,,,,2,,,79,0
69100,note_on,,,,,3,0,0,,,,0,,,79,0
69100,note_on,,,,,0,0,0,,,,0,,,76,0
69100,note_on,,,,,0,0,0,,,,0,,,71,0
69120,note_on,,,,,20,0,0,,,,0,,,71,65
69120,note_on,,,,,0,0,0,,,,0,,,76,65
69120,note_on,,,,,0,0,0,,,,0,,,79,65
69120,note_on,,,,,0,0,0,,,,0,,,60,88
69120,note_on,,,,,0,0,0,,,,2,,,76,87
69120,note_on,,,,,0,0,0,,,,3,,,79,87
69186,note_on,,,,,66,0,0,,,,2,,,76,0
69188,note_on,,,,,2,0,0,,,,3,,,79,0
69240,note_on,,,,,52,0,0,,,,2,,,78,87
69240,note_on,,,,,0,0,0,,,,3,,,81,87
69326,note_on,,,,,86,0,0,,,,2,,,78,0
69328,note_on,,,,,2,0,0,,,,3,,,81,0
69336,note_on,,,,,8,0,0,,,,0,,,60,0
69340,note_on,,,,,4,0,0,,,,0,,,79,0
69340,note_on,,,,,0,0,0,,,,0,,,76,0
69340,note_on,,,,,0,0,0,,,,0,,,71,0
69360,note_on,,,,,20,0,0,,,,0,,,71,65
69360,note_on,,,,,0,0,0,,,,0,,,76,65
69360,note_on,,,,,0,0,0,,,,0,,,79,65
69360,note_on,,,,,0,0,0,,,,0,,,60,88
69360,note_on,,,,,0,0,0,,,,2,,,79,87
69360,note_on,,,,,0,0,0,,,,3,,,83,87
69576,note_on,,,,,216,0,0,,,,0,,,60,0
69580,note_on,,,,,4,0,0,,,,0,,,79,0
69580,note_on,,,,,0,0,0,,,,0,,,76,0
69580,note_on,,,,,0,0,0,,,,0,,,71,0
69600,note_on,,,,,20,0,0,,,,0,,,71,65
69600,note_on,,,,,0,0,0,,,,0,,,76,65
69600,note_on,,,,,0,0,0,,,,0,,,79,65
69600,note_on,,,,,0,0,0,,,,0,,,60,88
69816,note_on,,,,,216,0,0,,,,0,,,60,0
69820,note_on,,,,,4,0,0,,,,0,,,79,0
69820,note_on,,,,,0,0,0,,,,0,,,76,0
69820,note_on,,,,,0,0,0,,,,0,,,71,0
69840,note_on,,,,,20,0,0,,,,0,,,71,65
69840,note_on,,,,,0,0,0,,,,0,,,76,65
69840,note_on,,,,,0,0,0,,,,0,,,79,65
69840,note_on,,,,,0,0,0,,,,0,,,60,88
69989,note_on,,,,,149,0,0,,,,3,,,83,0
69989,note_on,,,,,0,0,0,,,,2,,,79,0
70056,note_on,,,,,67,0,0,,,,0,,,60,0
70060,note_on,,,,,4,0,0,,,,0,,,79,0
70060,note_on,,,,,0,0,0,,,,0,,,76,0
70060,note_on,,,,,0,0,0,,,,0,,,71,0
70080,note_on,,,,,20,0,0,,,,0,,,71,65
70080,note_on,,,,,0,0,0,,,,0,,,76,65
70080,note_on,,,,,0,0,0,,,,0,,,79,65
70080,note_on,,,,,0,0,0,,,,0,,,59,88
70080,note_on,,,,,0,0,0,,,,2,,,79,87
70080,note_on,,,,,0,0,0,,,,3,,,83,87
70205,note_on,,,,,125,0,0,,,,3,,,83,0
70205,note_on,,,,,0,0,0,,,,2,,,79,0
70296,note_on,,,,,91,0,0,,,,0,,,59,0
70320,note_on,,,,,24,0,0,,,,0,,,52,88
70320,note_on,,,,,0,0,0,,,,2,,,78,87
70320,note_on,,,,,0,0,0,,,,3,,,81,87
70430,note_on,,,,,110,0,0,,,,3,,,81,0
70430,note_on,,,,,0,0,0,,,,2,,,78,0
70440,note_on,,,,,10,0,0,,,,2,,,76,87
70440,note_on,,,,,0,0,0,,,,3,,,79,87
70456,note_on,,,,,16,0,0,,,,0,,,79,0
70456,note_on,,,,,0,0,0,,,,0,,,76,0
70456,note_on,,,,,0,0,0,,,,0,,,71,0
70536,note_on,,,,,80,0,0,,,,0,,,52,0
70560,note_on,,,,,24,0,0,,,,0,,,78,65
70560,note_on,,,,,0,0,0,,,,0,,,76,65
70560,note_on,,,,,0,0,0,,,,0,,,45,88
70560,note_on,,,,,0,0,0,,,,2,,,78,87
70560,note_on,,,,,0,0,0,,,,3,,,81,87
70572,note_on,,,,,12,0,0,,,,3,,,79,0
70572,note_on,,,,,0,0,0,,,,2,,,76,0
70694,note_on,,,,,122,0,0,,,,2,,,78,0
70698,note_on,,,,,4,0,0,,,,3,,,81,0
70776,note_on,,,,,78,0,0,,,,0,,,45,0
70780,note_on,,,,,4,0,0,,,,0,,,76,0
70800,note_on,,,,,20,0,0,,,,0,,,47,88
70800,note_on,,,,,0,0,0,,,,2,,,75,87
70800,note_on,,,,,0,0,0,,,,3,,,78,87
70808,note_on,,,,,8,0,0,,,,0,,,75,65
70930,note_on,,,,,122,0,0,,,,2,,,75,0
70934,note_on,,,,,4,0,0,,,,3,,,78,0
71001,note_on,,,,,67,0,0,,,,0,,,78,0
71016,note_on,,,,,15,0,0,,,,0,,,47,0
71028,note_on,,,,,12,0,0,,,,0,,,75,0
71040,note_on,,,,,12,0,0,,,,0,,,76,88
71040,note_on,,,,,0,0,0,,,,0,,,40,88
71040,note_on,,,,,0,0,0,,,,2,,,76,87
71040,note_on,,,,,0,0,0,,,,3,,,76,87
71256,note_on,,,,,216,0,0,,,,0,,,40,0
71256,note_on,,,,,0,0,0,,,,0,,,76,0
71280,note_on,,,,,24,0,0,,,,0,,,71,88
71280,note_on,,,,,0,0,0,,,,0,,,79,88
71280,note_on,,,,,0,0,0,,,,0,,,52,88
71388,note_on,,,,,108,0,0,,,,0,,,79,0
71400,note_on,,,,,12,0,0,,,,0,,,78,88
71441,note_on,,,,,41,0,0,,,,3,,,76,0
71441,note_on,,,,,0,0,0,,,,2,,,76,0
71496,note_on,,,,,55,0,0,,,,0,,,52,0
71496,note_on,,,,,0,0,0,,,,0,,,71,0
71508,note_on,,,,,12,0,0,,,,0,,,78,0
71520,note_on,,,,,12,0,0,,,,0,,,76,88
71520,note_on,,,,,0,0,0,,,,0,,,67,88
71520,note_on,,,,,0,0,0,,,,0,,,40,88
71736,note_on,,,,,216,0,0,,,,0,,,40,0
71736,note_on,,,,,0,0,0,,,,0,,,67,0
71736,note_on,,,,,0,0,0,,,,0,,,76,0
71760,note_on,,,,,24,0,0,,,,0,,,76,88
71760,note_on,,,,,0,0,0,,,,0,,,83,88
71760,note_on,,,,,0,0,0,,,,0,,,52,88
71868,note_on,,,,,108,0,0,,,,0,,,83,0
71880,note_on,,,,,12,0,0,,,,0,,,81,88
71976,note_on,,,,,96,0,0,,,,0,,,52,0
71976,note_on,,,,,0,0,0,,,,0,,,76,0
71988,note_on,,,,,12,0,0,,,,0,,,81,0
72000,note_on,,,,,12,0,0,,,,0,,,79,88
72000,note_on,,,,,0,0,0,,,,0,,,71,88
72000,note_on,,,,,0,0,0,,,,0,,,40,88
72216,note_on,,,,,216,0,0,,,,0,,,40,0
72216,note_on,,,,,0,0,0,,,,0,,,71,0
72216,note_on,,,,,0,0,0,,,,0,,,79,0
72240,note_on,,,,,24,0,0,,,,0,,,76,88
72240,note_on,,,,,0,0,0,,,,0,,,67,88
72240,note_on,,,,,0,0,0,,,,0,,,52,88
72456,note_on,,,,,216,0,0,,,,0,,,52,0
72456,note_on,,,,,0,0,0,,,,0,,,67,0
72456,note_on,,,,,0,0,0,,,,0,,,76,0
72480,note_on,,,,,24,0,0,,,,0,,,79,88
72480,note_on,,,,,0,0,0,,,,0,,,71,88
72480,note_on,,,,,0,0,0,,,,0,,,40,88
72696,note_on,,,,,216,0,0,,,,0,,,40,0
72696,note_on,,,,,0,0,0,,,,0,,,71,0
72696,note_on,,,,,0,0,0,,,,0,,,79,0
72720,note_on,,,,,24,0,0,,,,0,,,83,88
72720,note_on,,,,,0,0,0,,,,0,,,76,88
72720,note_on,,,,,0,0,0,,,,0,,,52,88
72936,note_on,,,,,216,0,0,,,,0,,,52,0
72936,note_on,,,,,0,0,0,,,,0,,,76,0
72936,note_on,,,,,0,0,0,,,,0,,,83,0
72960,note_on,,,,,24,0,0,,,,0,,,76,88
72960,note_on,,,,,0,0,0,,,,0,,,40,88
73176,note_on,,,,,216,0,0,,,,0,,,40,0
73176,note_on,,,,,0,0,0,,,,0,,,76,0
73200,note_on,,,,,24,0,0,,,,0,,,71,88
73200,note_on,,,,,0,0,0,,,,0,,,79,88
73200,note_on,,,,,0,0,0,,,,0,,,52,88
73308,note_on,,,,,108,0,0,,,,0,,,79,0
73320,note_on,,,,,12,0,0,,,,0,,,78,88
73416,note_on,,,,,96,0,0,,,,0,,,52,0
73416,note_on,,,,,0,0,0,,,,0,,,71,0
73428,note_on,,,,,12,0,0,,,,0,,,78,0
73440,note_on,,,,,12,0,0,,,,0,,,76,88
73440,note_on,,,,,0,0,0,,,,0,,,67,88
73440,note_on,,,,,0,0,0,,,,0,,,40,88
73656,note_on,,,,,216,0,0,,,,0,,,40,0
73656,note_on,,,,,0,0,0,,,,0,,,67,0
73656,note_on,,,,,0,0,0,,,,0,,,76,0
73680,note_on,,,,,24,0,0,,,,0,,,76,88
73680,note_on,,,,,0,0,0,,,,0,,,83,88
73680,note_on,,,,,0,0,0,,,,0,,,52,88
73788,note_on,,,,,108,0,0,,,,0,,,83,0
73800,note_on,,,,,12,0,0,,,,0,,,81,88
73896,note_on,,,,,96,0,0,,,,0,,,52,0
73896,note_on,,,,,0,0,0,,,,0,,,76,0
73908,note_on,,,,,12,0,0,,,,0,,,81,0
73920,note_on,,,,,12,0,0,,,,0,,,79,88
73920,note_on,,,,,0,0,0,,,,0,,,71,88
73920,note_on,,,,,0,0,0,,,,0,,,40,88
74136,note_on,,,,,216,0,0,,,,0,,,40,0
74136,note_on,,,,,0,0,0,,,,0,,,71,0
74136,note_on,,,,,0,0,0,,,,0,,,79,0
74160,note_on,,,,,24,0,0,,,,0,,,76,88
74160,note_on,,,,,0,0,0,,,,0,,,67,88
74160,note_on,,,,,0,0,0,,,,0,,,52,88
74376,note_on,,,,,216,0,0,,,,0,,,52,0
74376,note_on,,,,,0,0,0,,,,0,,,67,0
74376,note_on,,,,,0,0,0,,,,0,,,76,0
74400,note_on,,,,,24,0,0,,,,0,,,79,88
74400,note_on,,,,,0,0,0,,,,0,,,71,88
74400,note_on,,,,,0,0,0,,,,0,,,40,88
74616,note_on,,,,,216,0,0,,,,0,,,40,0
74616,note_on,,,,,0,0,0,,,,0,,,71,0
74616,note_on,,,,,0,0,0,,,,0,,,79,0
74640,note_on,,,,,24,0,0,,,,0,,,83,88
74640,note_on,,,,,0,0,0,,,,0,,,76,88
74640,note_on,,,,,0,0,0,,,,0,,,52,88
74856,note_on,,,,,216,0,0,,,,0,,,52,0
74856,note_on,,,,,0,0,0,,,,0,,,76,0
74856,note_on,,,,,0,0,0,,,,0,,,83,0
74880,note_on,,,,,24,0,0,,,,0,,,78,88
74880,note_on,,,,,0,0,0,,,,0,,,75,88
74880,note_on,,,,,0,0,0,,,,0,,,47,88
75096,note_on,,,,,216,0,0,,,,0,,,47,0
75096,note_on,,,,,0,0,0,,,,0,,,75,0
75096,note_on,,,,,0,0,0,,,,0,,,78,0
75120,note_on,,,,,24,0,0,,,,0,,,78,88
75120,note_on,,,,,0,0,0,,,,0,,,75,88
75120,note_on,,,,,0,0,0,,,,0,,,59,88
75228,note_on,,,,,108,0,0,,,,0,,,75,0
75228,note_on,,,,,0,0,0,,,,0,,,78,0
75240,note_on,,,,,12,0,0,,,,0,,,76,88
75240,note_on,,,,,0,0,0,,,,0,,,73,88
75336,note_on,,,,,96,0,0,,,,0,,,59,0
75348,note_on,,,,,12,0,0,,,,0,,,73,0
75348,note_on,,,,,0,0,0,,,,0,,,76,0
75360,note_on,,,,,12,0,0,,,,0,,,75,88
75360,note_on,,,,,0,0,0,,,,0,,,71,88
75360,note_on,,,,,0,0,0,,,,0,,,47,88
75576,note_on,,,,,216,0,0,,,,0,,,47,0
75576,note_on,,,,,0,0,0,,,,0,,,71,0
75576,note_on,,,,,0,0,0,,,,0,,,75,0
75600,note_on,,,,,24,0,0,,,,0,,,81,88
75600,note_on,,,,,0,0,0,,,,0,,,78,88
75600,note_on,,,,,0,0,0,,,,0,,,59,88
75708,note_on,,,,,108,0,0,,,,0,,,78,0
75708,note_on,,,,,0,0,0,,,,0,,,81,0
75720,note_on,,,,,12,0,0,,,,0,,,79,88
75720,note_on,,,,,0,0,0,,,,0,,,76,88
75816,note_on,,,,,96,0,0,,,,0,,,59,0
75828,note_on,,,,,12,0,0,,,,0,,,76,0
75828,note_on,,,,,0,0,0,,,,0,,,79,0
75840,note_on,,,,,12,0,0,,,,0,,,78,88
75840,note_on,,,,,0,0,0,,,,0,,,75,88
75840,note_on,,,,,0,0,0,,,,0,,,47,88
76056,note_on,,,,,216,0,0,,,,0,,,47,0
76056,note_on,,,,,0,0,0,,,,0,,,75,0
76056,note_on,,,,,0,0,0,,,,0,,,78,0
76080,note_on,,,,,24,0,0,,,,0,,,71,88
76080,note_on,,,,,0,0,0,,,,0,,,75,88
76080,note_on,,,,,0,0,0,,,,0,,,59,88
76296,note_on,,,,,216,0,0,,,,0,,,59,0
76296,note_on,,,,,0,0,0,,,,0,,,75,0
76296,note_on,,,,,0,0,0,,,,0,,,71,0
76320,note_on,,,,,24,0,0,,,,0,,,78,88
76320,note_on,,,,,0,0,0,,,,0,,,75,88
76320,note_on,,,,,0,0,0,,,,0,,,47,88
76536,note_on,,,,,216,0,0,,,,0,,,47,0
76536,note_on,,,,,0,0,0,,,,0,,,75,0
76536,note_on,,,,,0,0,0,,,,0,,,78,0
76560,note_on,,,,,24,0,0,,,,0,,,83,88
76560,note_on,,,,,0,0,0,,,,0,,,78,88
76560,note_on,,,,,0,0,0,,,,0,,,59,88
76776,note_on,,,,,216,0,0,,,,0,,,59,0
76776,note_on,,,,,0,0,0,,,,0,,,78,0
76776,note_on,,,,,0,0,0,,,,0,,,83,0
76800,note_on,,,,,24,0,0,,,,0,,,78,88
76800,note_on,,,,,0,0,0,,,,0,,,75,88
76800,note_on,,,,,0,0,0,,,,0,,,47,88
77016,note_on,,,,,216,0,0,,,,0,,,47,0
77016,note_on,,,,,0,0,0,,,,0,,,75,0
77016,note_on,,,,,0,0,0,,,,0,,,78,0
77040,note_on,,,,,24,0,0,,,,0,,,78,88
77040,note_on,,,,,0,0,0,,,,0,,,75,88
77040,note_on,,,,,0,0,0,,,,0,,,59,88
77148,note_on,,,,,108,0,0,,,,0,,,75,0
77148,note_on,,,,,0,0,0,,,,0,,,78,0
77160,note_on,,,,,12,0,0,,,,0,,,76,88
77160,note_on,,,,,0,0,0,,,,0,,,73,88
77256,note_on,,,,,96,0,0,,,,0,,,59,0
77268,note_on,,,,,12,0,0,,,,0,,,73,0
77268,note_on,,,,,0,0,0,,,,0,,,76,0
77280,note_on,,,,,12,0,0,,,,0,,,75,88
77280,note_on,,,,,0,0,0,,,,0,,,71,88
77280,note_on,,,,,0,0,0,,,,0,,,47,88
77496,note_on,,,,,216,0,0,,,,0,,,47,0
77496,note_on,,,,,0,0,0,,,,0,,,71,0
77496,note_on,,,,,0,0,0,,,,0,,,75,0
77520,note_on,,,,,24,0,0,,,,0,,,81,88
77520,note_on,,,,,0,0,0,,,,0,,,78,88
77520,note_on,,,,,0,0,0,,,,0,,,59,88
77628,note_on,,,,,108,0,0,,,,0,,,78,0
77628,note_on,,,,,0,0,0,,,,0,,,81,0
77640,note_on,,,,,12,0,0,,,,0,,,79,88
77640,note_on,,,,,0,0,0,,,,0,,,76,88
77736,note_on,,,,,96,0,0,,,,0,,,59,0
77748,note_on,,,,,12,0,0,,,,0,,,76,0
77748,note_on,,,,,0,0,0,,,,0,,,79,0
77760,note_on,,,,,12,0,0,,,,0,,,78,88
77760,note_on,,,,,0,0,0,,,,0,,,75,88
77760,note_on,,,,,0,0,0,,,,0,,,47,88
77976,note_on,,,,,216,0,0,,,,0,,,47,0
77976,note_on,,,,,0,0,0,,,,0,,,75,0
77976,note_on,,,,,0,0,0,,,,0,,,78,0
78000,note_on,,,,,24,0,0,,,,0,,,71,88
78000,note_on,,,,,0,0,0,,,,0,,,75,88
78000,note_on,,,,,0,0,0,,,,0,,,59,88
78216,note_on,,,,,216,0,0,,,,0,,,59,0
78216,note_on,,,,,0,0,0,,,,0,,,75,0
78216,note_on,,,,,0,0,0,,,,0,,,71,0
78240,note_on,,,,,24,0,0,,,,0,,,78,88
78240,note_on,,,,,0,0,0,,,,0,,,75,88
78240,note_on,,,,,0,0,0,,,,0,,,47,88
78456,note_on,,,,,216,0,0,,,,0,,,47,0
78456,note_on,,,,,0,0,0,,,,0,,,75,0
78456,note_on,,,,,0,0,0,,,,0,,,78,0
78480,note_on,,,,,24,0,0,,,,0,,,83,88
78480,note_on,,,,,0,0,0,,,,0,,,78,88
78480,note_on,,,,,0,0,0,,,,0,,,59,88
78696,note_on,,,,,216,0,0,,,,0,,,59,0
78696,note_on,,,,,0,0,0,,,,0,,,78,0
78696,note_on,,,,,0,0,0,,,,0,,,83,0
78720,marker,,,,,24,1,0,,,,,,,,
78720,note_on,,,,,0,0,0,,,,0,,,79,88
78720,note_on,,,,,0,0,0,,,,0,,,76,88
78720,note_on,,,,,0,0,0,,,,0,,,52,88
78936,note_on,,,,,216,0,0,,,,0,,,52,0
78936,note_on,,,,,0,0,0,,,,0,,,76,0
78936,note_on,,,,,0,0,0,,,,0,,,79,0
78960,note_on,,,,,24,0,0,,,,0,,,78,88
78960,note_on,,,,,0,0,0,,,,0,,,75,88
78960,note_on,,,,,0,0,0,,,,0,,,52,88
79068,note_on,,,,,108,0,0,,,,0,,,75,0
79068,note_on,,,,,0,0,0,,,,0,,,78,0
79080,note_on,,,,,12,0,0,,,,0,,,79,88
79080,note_on,,,,,0,0,0,,,,0,,,76,88
79176,note_on,,,,,96,0,0,,,,0,,,52,0
79188,note_on,,,,,12,0,0,,,,0,,,76,0
79188,note_on,,,,,0,0,0,,,,0,,,79,0
79200,note_on,,,,,12,0,0,,,,0,,,81,88
79200,note_on,,,,,0,0,0,,,,0,,,78,88
79200,note_on,,,,,0,0,0,,,,0,,,45,88
79416,note_on,,,,,216,0,0,,,,0,,,45,0
79416,note_on,,,,,0,0,0,,,,0,,,78,0
79416,note_on,,,,,0,0,0,,,,0,,,81,0
79440,note_on,,,,,24,0,0,,,,0,,,78,88
79440,note_on,,,,,0,0,0,,,,0,,,75,88
79440,note_on,,,,,0,0,0,,,,0,,,47,88
79656,note_on,,,,,216,0,0,,,,0,,,47,0
79656,note_on,,,,,0,0,0,,,,0,,,75,0
79656,note_on,,,,,0,0,0,,,,0,,,78,0
79680,note_on,,,,,24,0,0,,,,0,,,52,88
79680,note_on,,,,,0,0,0,,,,2,,,76,99
79680,note_on,,,,,0,0,0,,,,3,,,76,99
79758,note_on,,,,,78,0,0,,,,3,,,76,0
79758,note_on,,,,,0,0,0,,,,2,,,76,0
79800,note_on,,,,,42,0,0,,,,2,,,76,87
79800,note_on,,,,,0,0,0,,,,3,,,79,87
79896,note_on,,,,,96,0,0,,,,0,,,52,0
79920,note_on,,,,,24,0,0,,,,0,,,52,88
79920,note_on,,,,,0,0,0,,,,2,,,79,87
79920,note_on,,,,,0,0,0,,,,3,,,83,87
79925,note_on,,,,,5,0,0,,,,3,,,79,0
79925,note_on,,,,,0,0,0,,,,2,,,76,0
80040,note_on,,,,,115,0,0,,,,2,,,76,87
80040,note_on,,,,,0,0,0,,,,3,,,79,87
80054,note_on,,,,,14,0,0,,,,3,,,83,0
80054,note_on,,,,,0,0,0,,,,2,,,79,0
80120,note_on,,,,,66,0,0,,,,3,,,79,0
80120,note_on,,,,,0,0,0,,,,2,,,76,0
80136,note_on,,,,,16,0,0,,,,0,,,52,0
80160,note_on,,,,,24,0,0,,,,0,,,67,65
80160,note_on,,,,,0,0,0,,,,0,,,71,65
80160,note_on,,,,,0,0,0,,,,0,,,55,88
80160,note_on,,,,,0,0,0,,,,2,,,71,87
80160,note_on,,,,,0,0,0,,,,3,,,76,87
80164,note_on,,,,,4,0,0,,,,0,,,76,65
80280,note_on,,,,,116,0,0,,,,2,,,76,87
80280,note_on,,,,,0,0,0,,,,3,,,79,87
80281,note_on,,,,,1,0,0,,,,3,,,76,0
80281,note_on,,,,,0,0,0,,,,2,,,71,0
80376,note_on,,,,,95,0,0,,,,0,,,55,0
80400,note_on,,,,,24,0,0,,,,0,,,52,88
80400,note_on,,,,,0,0,0,,,,2,,,79,87
80400,note_on,,,,,0,0,0,,,,3,,,83,87
80413,note_on,,,,,13,0,0,,,,3,,,79,0
80413,note_on,,,,,0,0,0,,,,2,,,76,0
80496,note_on,,,,,83,0,0,,,,0,,,71,0
80496,note_on,,,,,0,0,0,,,,0,,,67,0
80500,note_on,,,,,4,0,0,,,,0,,,76,0
80520,note_on,,,,,20,0,0,,,,2,,,76,87
80520,note_on,,,,,0,0,0,,,,3,,,79,87
80524,note_on,,,,,4,0,0,,,,3,,,83,0
80524,note_on,,,,,0,0,0,,,,2,,,79,0
80616,note_on,,,,,92,0,0,,,,0,,,52,0
80640,note_on,,,,,24,0,0,,,,0,,,67,65
80640,note_on,,,,,0,0,0,,,,0,,,71,65
80640,note_on,,,,,0,0,0,,,,2,,,71,87
80640,note_on,,,,,0,0,0,,,,3,,,76,87
80644,note_on,,,,,4,0,0,,,,0,,,76,65
80658,note_on,,,,,14,0,0,,,,3,,,79,0
80658,note_on,,,,,0,0,0,,,,2,,,76,0
80760,note_on,,,,,102,0,0,,,,2,,,76,87
80760,note_on,,,,,0,0,0,,,,3,,,79,87
80783,note_on,,,,,23,0,0,,,,3,,,76,0
80783,note_on,,,,,0,0,0,,,,2,,,71,0
80880,note_on,,,,,97,0,0,,,,0,,,52,88
80880,note_on,,,,,0,0,0,,,,2,,,79,87
80880,note_on,,,,,0,0,0,,,,3,,,83,87
80899,note_on,,,,,19,0,0,,,,3,,,79,0
80899,note_on,,,,,0,0,0,,,,2,,,76,0
81000,note_on,,,,,101,0,0,,,,2,,,76,87
81000,note_on,,,,,0,0,0,,,,3,,,79,87
81012,note_on,,,,,12,0,0,,,,0,,,52,0
81016,note_on,,,,,4,0,0,,,,3,,,83,0
81016,note_on,,,,,0,0,0,,,,2,,,79,0
81072,note_on,,,,,56,0,0,,,,0,,,71,0
81072,note_on,,,,,0,0,0,,,,0,,,67,0
81076,note_on,,,,,4,0,0,,,,0,,,76,0
81120,note_on,,,,,44,0,0,,,,0,,,67,65
81120,note_on,,,,,0,0,0,,,,0,,,71,65
81120,note_on,,,,,0,0,0,,,,0,,,55,113
81120,note_on,,,,,0,0,0,,,,2,,,71,87
81120,note_on,,,,,0,0,0,,,,3,,,76,87
81124,note_on,,,,,4,0,0,,,,0,,,76,65
81135,note_on,,,,,11,0,0,,,,3,,,79,0
81135,note_on,,,,,0,0,0,,,,2,,,76,0
81240,note_on,,,,,105,0,0,,,,2,,,76,87
81240,note_on,,,,,0,0,0,,,,3,,,79,87
81258,note_on,,,,,18,0,0,,,,3,,,76,0
81258,note_on,,,,,0,0,0,,,,2,,,71,0
81360,note_on,,,,,102,0,0,,,,0,,,52,88
81360,note_on,,,,,0,0,0,,,,2,,,79,87
81360,note_on,,,,,0,0,0,,,,3,,,83,87
81388,note_on,,,,,28,0,0,,,,0,,,55,0
81394,note_on,,,,,6,0,0,,,,3,,,79,0
81394,note_on,,,,,0,0,0,,,,2,,,76,0
81480,note_on,,,,,86,0,0,,,,2,,,76,87
81480,note_on,,,,,0,0,0,,,,3,,,79,87
81496,note_on,,,,,16,0,0,,,,0,,,52,0
81501,note_on,,,,,5,0,0,,,,3,,,83,0
81501,note_on,,,,,0,0,0,,,,2,,,79,0
81552,note_on,,,,,51,0,0,,,,0,,,71,0
81552,note_on,,,,,0,0,0,,,,0,,,67,0
81556,note_on,,,,,4,0,0,,,,0,,,76,0
81594,note_on,,,,,38,0,0,,,,3,,,79,0
81594,note_on,,,,,0,0,0,,,,2,,,76,0
81600,note_on,,,,,6,0,0,,,,0,,,71,65
81600,note_on,,,,,0,0,0,,,,0,,,75,65
81600,note_on,,,,,0,0,0,,,,2,,,75,87
81600,note_on,,,,,0,0,0,,,,3,,,78,87
81604,note_on,,,,,4,0,0,,,,0,,,78,65
81666,note_on,,,,,62,0,0,,,,2,,,76,87
81666,note_on,,,,,0,0,0,,,,3,,,79,87
81668,note_on,,,,,2,0,0,,,,3,,,78,0
81668,note_on,,,,,0,0,0,,,,2,,,75,0
81715,note_on,,,,,47,0,0,,,,3,,,79,0
81715,note_on,,,,,0,0,0,,,,2,,,76,0
81720,note_on,,,,,5,0,0,,,,2,,,78,87
81720,note_on,,,,,0,0,0,,,,3,,,81,87
81840,note_on,,,,,120,0,0,,,,0,,,47,88
81840,note_on,,,,,0,0,0,,,,2,,,78,87
81858,note_on,,,,,18,0,0,,,,2,,,78,0
81964,note_on,,,,,106,0,0,,,,0,,,47,0
82000,note_on,,,,,36,0,0,,,,3,,,81,0
82032,note_on,,,,,32,0,0,,,,0,,,75,0
82032,note_on,,,,,0,0,0,,,,0,,,71,0
82036,note_on,,,,,4,0,0,,,,0,,,78,0
82054,note_on,,,,,18,0,0,,,,2,,,78,0
82080,note_on,,,,,26,0,0,,,,0,,,66,65
82080,note_on,,,,,0,0,0,,,,0,,,71,65
82080,note_on,,,,,0,0,0,,,,0,,,59,110
82080,note_on,,,,,0,0,0,,,,2,,,78,87
82080,note_on,,,,,0,0,0,,,,3,,,81,87
82084,note_on,,,,,4,0,0,,,,0,,,75,65
82148,note_on,,,,,64,0,0,,,,2,,,76,87
82148,note_on,,,,,0,0,0,,,,3,,,79,87
82155,note_on,,,,,7,0,0,,,,3,,,81,0
82155,note_on,,,,,0,0,0,,,,2,,,78,0
82190,note_on,,,,,35,0,0,,,,2,,,75,87
82190,note_on,,,,,0,0,0,,,,3,,,78,87
82196,note_on,,,,,6,0,0,,,,3,,,79,0
82196,note_on,,,,,0,0,0,,,,2,,,76,0
82296,note_on,,,,,100,0,0,,,,0,,,59,0
82320,note_on,,,,,24,0,0,,,,0,,,47,88
82444,note_on,,,,,124,0,0,,,,0,,,47,0
82494,note_on,,,,,50,0,0,,,,3,,,78,0
82494,note_on,,,,,0,0,0,,,,2,,,75,0
82512,note_on,,,,,18,0,0,,,,0,,,71,0
82512,note_on,,,,,0,0,0,,,,0,,,66,0
82516,note_on,,,,,4,0,0,,,,0,,,75,0
82556,note_on,,,,,40,0,0,,,,3,,,76,99
82560,note_on,,,,,4,0,0,,,,0,,,67,65
82560,note_on,,,,,0,0,0,,,,0,,,71,65
82560,note_on,,,,,0,0,0,,,,2,,,79,87
82564,note_on,,,,,4,0,0,,,,0,,,76,65
82634,note_on,,,,,70,0,0,,,,3,,,76,0
82658,note_on,,,,,24,0,0,,,,2,,,79,0
82676,note_on,,,,,18,0,0,,,,3,,,79,87
82680,note_on,,,,,4,0,0,,,,2,,,76,87
82796,note_on,,,,,116,0,0,,,,3,,,83,87
82800,note_on,,,,,4,0,0,,,,0,,,52,88
82800,note_on,,,,,0,0,0,,,,2,,,79,87
82801,note_on,,,,,1,0,0,,,,3,,,79,0
82827,note_on,,,,,26,0,0,,,,2,,,76,0
82911,note_on,,,,,84,0,0,,,,2,,,79,0
82916,note_on,,,,,5,0,0,,,,0,,,52,0
82916,note_on,,,,,0,0,0,,,,3,,,79,87
82920,note_on,,,,,4,0,0,,,,2,,,76,87
82930,note_on,,,,,10,0,0,,,,3,,,83,0
82992,note_on,,,,,62,0,0,,,,0,,,71,0
82992,note_on,,,,,0,0,0,,,,0,,,67,0
82996,note_on,,,,,4,0,0,,,,3,,,79,0
82996,note_on,,,,,0,0,0,,,,0,,,76,0
83028,note_on,,,,,32,0,0,,,,2,,,76,0
83036,note_on,,,,,8,0,0,,,,3,,,76,87
83040,note_on,,,,,4,0,0,,,,0,,,67,65
83040,note_on,,,,,0,0,0,,,,0,,,71,65
83040,note_on,,,,,0,0,0,,,,0,,,55,105
83040,note_on,,,,,0,0,0,,,,2,,,71,87
83044,note_on,,,,,4,0,0,,,,0,,,76,65
83132,note_on,,,,,88,0,0,,,,2,,,71,0
83156,note_on,,,,,24,0,0,,,,3,,,79,87
83157,note_on,,,,,1,0,0,,,,3,,,76,0
83158,note_on,,,,,1,0,0,,,,2,,,76,87
83256,note_on,,,,,98,0,0,,,,0,,,55,0
83276,note_on,,,,,20,0,0,,,,3,,,83,87
83278,note_on,,,,,2,0,0,,,,2,,,79,87
83280,note_on,,,,,2,0,0,,,,0,,,52,88
83289,note_on,,,,,9,0,0,,,,3,,,79,0
83305,note_on,,,,,16,0,0,,,,2,,,76,0
83389,note_on,,,,,84,0,0,,,,2,,,79,0
83396,note_on,,,,,7,0,0,,,,0,,,52,0
83396,note_on,,,,,0,0,0,,,,3,,,79,87
83398,note_on,,,,,2,0,0,,,,2,,,76,87
83400,note_on,,,,,2,0,0,,,,3,,,83,0
83472,note_on,,,,,72,0,0,,,,0,,,71,0
83472,note_on,,,,,0,0,0,,,,0,,,67,0
83476,note_on,,,,,4,0,0,,,,0,,,76,0
83506,note_on,,,,,30,0,0,,,,2,,,76,0
83516,note_on,,,,,10,0,0,,,,3,,,76,87
83520,note_on,,,,,4,0,0,,,,0,,,67,65
83520,note_on,,,,,0,0,0,,,,0,,,71,65
83520,note_on,,,,,0,0,0,,,,2,,,71,87
83524,note_on,,,,,4,0,0,,,,0,,,76,65
83534,note_on,,,,,10,0,0,,,,3,,,79,0
83625,note_on,,,,,91,0,0,,,,2,,,71,0
83636,note_on,,,,,11,0,0,,,,3,,,79,87
83640,note_on,,,,,4,0,0,,,,2,,,76,87
83659,note_on,,,,,19,0,0,,,,3,,,76,0
83756,note_on,,,,,97,0,0,,,,3,,,83,87
83760,note_on,,,,,4,0,0,,,,0,,,52,88
83760,note_on,,,,,0,0,0,,,,2,,,79,87
83772,note_on,,,,,12,0,0,,,,2,,,76,0
83775,note_on,,,,,3,0,0,,,,3,,,79,0
83876,note_on,,,,,101,0,0,,,,3,,,79,87
83880,note_on,,,,,4,0,0,,,,2,,,76,87
83892,note_on,,,,,12,0,0,,,,2,,,79,0
83892,note_on,,,,,0,0,0,,,,3,,,83,0
83952,note_on,,,,,60,0,0,,,,0,,,71,0
83952,note_on,,,,,0,0,0,,,,0,,,67,0
83956,note_on,,,,,4,0,0,,,,0,,,76,0
83976,note_on,,,,,20,0,0,,,,0,,,52,0
83990,note_on,,,,,14,0,0,,,,2,,,76,0
83996,note_on,,,,,6,0,0,,,,3,,,76,87
84000,note_on,,,,,4,0,0,,,,0,,,67,65
84000,note_on,,,,,0,0,0,,,,0,,,71,65
84000,note_on,,,,,0,0,0,,,,0,,,55,108
84000,note_on,,,,,0,0,0,,,,2,,,71,87
84004,note_on,,,,,4,0,0,,,,0,,,76,65
84011,note_on,,,,,7,0,0,,,,3,,,79,0
84116,note_on,,,,,105,0,0,,,,3,,,79,87
84118,note_on,,,,,2,0,0,,,,2,,,71,0
84120,note_on,,,,,2,0,0,,,,2,,,76,87
84134,note_on,,,,,14,0,0,,,,3,,,76,0
84216,note_on,,,,,82,0,0,,,,0,,,55,0
84236,note_on,,,,,20,0,0,,,,3,,,83,87
84240,note_on,,,,,4,0,0,,,,0,,,52,88
84240,note_on,,,,,0,0,0,,,,2,,,79,87
84258,note_on,,,,,18,0,0,,,,2,,,76,0
84270,note_on,,,,,12,0,0,,,,3,,,79,0
84356,note_on,,,,,86,0,0,,,,3,,,79,87
84360,note_on,,,,,4,0,0,,,,2,,,76,87
84377,note_on,,,,,17,0,0,,,,3,,,83,0
84380,note_on,,,,,3,0,0,,,,2,,,79,0
84432,note_on,,,,,52,0,0,,,,0,,,71,0
84432,note_on,,,,,0,0,0,,,,0,,,67,0
84436,note_on,,,,,4,0,0,,,,0,,,76,0
84456,note_on,,,,,20,0,0,,,,0,,,52,0
84470,note_on,,,,,14,0,0,,,,2,,,76,0
84470,note_on,,,,,0,0,0,,,,3,,,79,0
84476,note_on,,,,,6,0,0,,,,3,,,78,87
84480,note_on,,,,,4,0,0,,,,0,,,71,65
84480,note_on,,,,,0,0,0,,,,0,,,75,65
84480,note_on,,,,,0,0,0,,,,2,,,75,87
84484,note_on,,,,,4,0,0,,,,0,,,78,65
84542,note_on,,,,,58,0,0,,,,3,,,79,87
84544,note_on,,,,,2,0,0,,,,3,,,78,0
84546,note_on,,,,,2,0,0,,,,2,,,76,87
84548,note_on,,,,,2,0,0,,,,2,,,75,0
84591,note_on,,,,,43,0,0,,,,3,,,79,0
84595,note_on,,,,,4,0,0,,,,2,,,76,0
84596,note_on,,,,,1,0,0,,,,3,,,81,87
84600,note_on,,,,,4,0,0,,,,2,,,78,87
84720,note_on,,,,,120,0,0,,,,0,,,47,88
84720,note_on,,,,,0,0,0,,,,2,,,78,87
84738,note_on,,,,,18,0,0,,,,2,,,78,0
84876,note_on,,,,,138,0,0,,,,3,,,81,0
84912,note_on,,,,,36,0,0,,,,0,,,75,0
84912,note_on,,,,,0,0,0,,,,0,,,71,0
84916,note_on,,,,,4,0,0,,,,0,,,78,0
84934,note_on,,,,,18,0,0,,,,2,,,78,0
84936,note_on,,,,,2,0,0,,,,0,,,47,0
84956,note_on,,,,,20,0,0,,,,3,,,81,87
84960,note_on,,,,,4,0,0,,,,0,,,66,65
84960,note_on,,,,,0,0,0,,,,0,,,71,65
84960,note_on,,,,,0,0,0,,,,0,,,59,108
84960,note_on,,,,,0,0,0,,,,2,,,78,87
84964,note_on,,,,,4,0,0,,,,0,,,75,65
85024,note_on,,,,,60,0,0,,,,3,,,79,87
85028,note_on,,,,,4,0,0,,,,2,,,76,87
85031,note_on,,,,,3,0,0,,,,3,,,81,0
85035,note_on,,,,,4,0,0,,,,2,,,78,0
85066,note_on,,,,,31,0,0,,,,3,,,78,87
85070,note_on,,,,,4,0,0,,,,2,,,75,87
85072,note_on,,,,,2,0,0,,,,3,,,79,0
85076,note_on,,,,,4,0,0,,,,2,,,76,0
85176,note_on,,,,,100,0,0,,,,0,,,59,0
85200,note_on,,,,,24,0,0,,,,0,,,47,88
85370,note_on,,,,,170,0,0,,,,3,,,78,0
85374,note_on,,,,,4,0,0,,,,2,,,75,0
85392,note_on,,,,,18,0,0,,,,0,,,71,0
85392,note_on,,,,,0,0,0,,,,0,,,66,0
85396,note_on,,,,,4,0,0,,,,0,,,75,0
85416,note_on,,,,,20,0,0,,,,0,,,47,0
85440,note_on,,,,,24,0,0,,,,0,,,67,65
85440,note_on,,,,,0,0,0,,,,0,,,71,65
85440,note_on,,,,,0,0,0,,,,2,,,76,87
85440,note_on,,,,,0,0,0,,,,3,,,79,87
85444,note_on,,,,,4,0,0,,,,0,,,76,65
85544,note_on,,,,,100,0,0,,,,3,,,79,0
85556,note_on,,,,,12,0,0,,,,2,,,76,0
85668,note_on,,,,,112,0,0,,,,2,,,71,87
85668,note_on,,,,,0,0,0,,,,3,,,76,87
85680,note_on,,,,,12,0,0,,,,0,,,52,88
85824,note_on,,,,,144,0,0,,,,3,,,76,0
85836,note_on,,,,,12,0,0,,,,2,,,71,0
85872,note_on,,,,,36,0,0,,,,0,,,71,0
85872,note_on,,,,,0,0,0,,,,0,,,67,0
85876,note_on,,,,,4,0,0,,,,0,,,76,0
85896,note_on,,,,,20,0,0,,,,0,,,52,0
85920,note_on,,,,,24,0,0,,,,0,,,68,65
85920,note_on,,,,,0,0,0,,,,0,,,71,65
85920,note_on,,,,,0,0,0,,,,0,,,56,108
85924,note_on,,,,,4,0,0,,,,0,,,76,65
86136,note_on,,,,,212,0,0,,,,0,,,56,0
86160,note_on,,,,,24,0,0,,,,0,,,52,88
86160,note_on,,,,,0,0,0,,,,2,,,80,87
86164,note_on,,,,,4,0,0,,,,3,,,83,87
86320,note_on,,,,,156,0,0,,,,3,,,83,0
86324,note_on,,,,,4,0,0,,,,2,,,80,0
86352,note_on,,,,,28,0,0,,,,0,,,71,0
86352,note_on,,,,,0,0,0,,,,0,,,68,0
86356,note_on,,,,,4,0,0,,,,0,,,76,0
86376,note_on,,,,,20,0,0,,,,0,,,52,0
86396,note_on,,,,,20,0,0,,,,3,,,83,87
86400,note_on,,,,,4,0,0,,,,0,,,71,65
86400,note_on,,,,,0,0,0,,,,0,,,76,65
86400,note_on,,,,,0,0,0,,,,2,,,80,87
86404,note_on,,,,,4,0,0,,,,0,,,80,65
86484,note_on,,,,,80,0,0,,,,3,,,84,87
86488,note_on,,,,,4,0,0,,,,2,,,81,87
86500,note_on,,,,,12,0,0,,,,3,,,83,0
86504,note_on,,,,,4,0,0,,,,2,,,80,0
86552,note_on,,,,,48,0,0,,,,3,,,83,87
86556,note_on,,,,,4,0,0,,,,2,,,80,87
86558,note_on,,,,,2,0,0,,,,3,,,84,0
86562,note_on,,,,,4,0,0,,,,2,,,81,0
86606,note_on,,,,,44,0,0,,,,3,,,83,0
86608,note_on,,,,,2,0,0,,,,3,,,84,87
86610,note_on,,,,,2,0,0,,,,2,,,80,0
86612,note_on,,,,,2,0,0,,,,2,,,81,87
86640,note_on,,,,,28,0,0,,,,0,,,52,88
86664,note_on,,,,,24,0,0,,,,3,,,83,87
86668,note_on,,,,,4,0,0,,,,2,,,80,87
86679,note_on,,,,,11,0,0,,,,3,,,84,0
86683,note_on,,,,,4,0,0,,,,2,,,81,0
86714,note_on,,,,,31,0,0,,,,3,,,84,87
86718,note_on,,,,,4,0,0,,,,3,,,83,0
86718,note_on,,,,,0,0,0,,,,2,,,81,87
86722,note_on,,,,,4,0,0,,,,2,,,80,0
86772,note_on,,,,,50,0,0,,,,3,,,83,87
86776,note_on,,,,,4,0,0,,,,2,,,80,87
86789,note_on,,,,,13,0,0,,,,3,,,84,0
86793,note_on,,,,,4,0,0,,,,2,,,81,0
86822,note_on,,,,,29,0,0,,,,3,,,84,87
86826,note_on,,,,,4,0,0,,,,2,,,81,87
86828,note_on,,,,,2,0,0,,,,3,,,83,0
86832,note_on,,,,,4,0,0,,,,2,,,80,0
86832,note_on,,,,,0,0,0,,,,0,,,76,0
86832,note_on,,,,,0,0,0,,,,0,,,71,0
86836,note_on,,,,,4,0,0,,,,0,,,80,0
86856,note_on,,,,,20,0,0,,,,0,,,52,0
86876,note_on,,,,,20,0,0,,,,3,,,83,87
86880,note_on,,,,,4,0,0,,,,0,,,68,65
86880,note_on,,,,,0,0,0,,,,0,,,71,65
86880,note_on,,,,,0,0,0,,,,0,,,56,108
86880,note_on,,,,,0,0,0,,,,2,,,80,87
86884,note_on,,,,,4,0,0,,,,0,,,76,65
86894,note_on,,,,,10,0,0,,,,3,,,84,0
86898,note_on,,,,,4,0,0,,,,2,,,81,0
86926,note_on,,,,,28,0,0,,,,3,,,84,87
86930,note_on,,,,,4,0,0,,,,3,,,83,0
86930,note_on,,,,,0,0,0,,,,2,,,81,87
86934,note_on,,,,,4,0,0,,,,2,,,80,0
86984,note_on,,,,,50,0,0,,,,3,,,83,87
86988,note_on,,,,,4,0,0,,,,2,,,80,87
87001,note_on,,,,,13,0,0,,,,3,,,84,0
87005,note_on,,,,,4,0,0,,,,2,,,81,0
87034,note_on,,,,,29,0,0,,,,3,,,84,87
87038,note_on,,,,,4,0,0,,,,2,,,81,87
87040,note_on,,,,,2,0,0,,,,3,,,83,0
87044,note_on,,,,,4,0,0,,,,2,,,80,0
87096,note_on,,,,,52,0,0,,,,0,,,56,0
87106,note_on,,,,,10,0,0,,,,3,,,84,0
87110,note_on,,,,,4,0,0,,,,2,,,81,0
87120,note_on,,,,,10,0,0,,,,0,,,52,88
87260,note_on,,,,,140,0,0,,,,2,,,78,87
87266,note_on,,,,,6,0,0,,,,3,,,81,87
87312,note_on,,,,,46,0,0,,,,0,,,71,0
87312,note_on,,,,,0,0,0,,,,0,,,68,0
87314,note_on,,,,,2,0,0,,,,2,,,80,87
87314,note_on,,,,,0,0,0,,,,3,,,83,87
87316,note_on,,,,,2,0,0,,,,3,,,81,0
87316,note_on,,,,,0,0,0,,,,2,,,78,0
87316,note_on,,,,,0,0,0,,,,0,,,76,0
87336,note_on,,,,,20,0,0,,,,0,,,52,0
87360,note_on,,,,,24,0,0,,,,3,,,83,0
87360,note_on,,,,,0,0,0,,,,0,,,69,65
87360,note_on,,,,,0,0,0,,,,2,,,81,87
87364,note_on,,,,,4,0,0,,,,0,,,72,65
87364,note_on,,,,,0,0,0,,,,3,,,84,87
87366,note_on,,,,,2,0,0,,,,2,,,80,0
87484,note_on,,,,,118,0,0,,,,3,,,84,0
87484,note_on,,,,,0,0,0,,,,3,,,83,87
87556,note_on,,,,,72,0,0,,,,2,,,81,0
87588,note_on,,,,,32,0,0,,,,3,,,83,0
87600,note_on,,,,,12,0,0,,,,0,,,57,88
87604,note_on,,,,,4,0,0,,,,2,,,76,72
87608,note_on,,,,,4,0,0,,,,3,,,81,72
87792,note_on,,,,,184,0,0,,,,0,,,69,0
87796,note_on,,,,,4,0,0,,,,0,,,72,0
87816,note_on,,,,,20,0,0,,,,0,,,57,0
87824,note_on,,,,,8,0,0,,,,2,,,76,0
87828,note_on,,,,,4,0,0,,,,3,,,81,0
87840,note_on,,,,,12,0,0,,,,0,,,66,65
87840,note_on,,,,,0,0,0,,,,0,,,69,65
87840,note_on,,,,,0,0,0,,,,0,,,54,88
87844,note_on,,,,,4,0,0,,,,0,,,74,65
88056,note_on,,,,,212,0,0,,,,0,,,54,0
88080,note_on,,,,,24,0,0,,,,0,,,50,88
88080,note_on,,,,,0,0,0,,,,2,,,78,87
88084,note_on,,,,,4,0,0,,,,3,,,81,87
88219,note_on,,,,,135,0,0,,,,2,,,78,0
88223,note_on,,,,,4,0,0,,,,3,,,81,0
88272,note_on,,,,,49,0,0,,,,0,,,69,0
88272,note_on,,,,,0,0,0,,,,0,,,66,0
88276,note_on,,,,,4,0,0,,,,0,,,74,0
88296,note_on,,,,,20,0,0,,,,0,,,50,0
88320,note_on,,,,,24,0,0,,,,0,,,69,65
88320,note_on,,,,,0,0,0,,,,0,,,74,65
88320,note_on,,,,,0,0,0,,,,2,,,78,87
88320,note_on,,,,,0,0,0,,,,3,,,81,87
88324,note_on,,,,,4,0,0,,,,0,,,78,65
88384,note_on,,,,,60,0,0,,,,2,,,79,87
88384,note_on,,,,,0,0,0,,,,3,,,83,87
88408,note_on,,,,,24,0,0,,,,3,,,81,0
88408,note_on,,,,,0,0,0,,,,2,,,78,0
88436,note_on,,,,,28,0,0,,,,2,,,78,87
88436,note_on,,,,,0,0,0,,,,3,,,81,87
88454,note_on,,,,,18,0,0,,,,3,,,83,0
88454,note_on,,,,,0,0,0,,,,2,,,79,0
88495,note_on,,,,,41,0,0,,,,3,,,81,0
88495,note_on,,,,,0,0,0,,,,2,,,78,0
88504,note_on,,,,,9,0,0,,,,2,,,79,87
88504,note_on,,,,,0,0,0,,,,2,,,79,87
88504,note_on,,,,,0,0,0,,,,3,,,83,87
88504,note_on,,,,,0,0,0,,,,3,,,83,87
88560,note_on,,,,,56,0,0,,,,0,,,50,88
88563,note_on,,,,,3,0,0,,,,3,,,83,0
88563,note_on,,,,,0,0,0,,,,2,,,79,0
88566,note_on,,,,,3,0,0,,,,3,,,83,0
88566,note_on,,,,,0,0,0,,,,2,,,79,0
88570,note_on,,,,,4,0,0,,,,2,,,78,87
88570,note_on,,,,,0,0,0,,,,3,,,81,87
88624,note_on,,,,,54,0,0,,,,2,,,79,87
88624,note_on,,,,,0,0,0,,,,3,,,83,87
88633,note_on,,,,,9,0,0,,,,3,,,81,0
88633,note_on,,,,,0,0,0,,,,2,,,78,0
88680,note_on,,,,,47,0,0,,,,3,,,83,0
88680,note_on,,,,,0,0,0,,,,2,,,79,0
88690,note_on,,,,,10,0,0,,,,2,,,78,87
88690,note_on,,,,,0,0,0,,,,3,,,81,87
88744,note_on,,,,,54,0,0,,,,2,,,79,87
88744,note_on,,,,,0,0,0,,,,3,,,83,87
88752,note_on,,,,,8,0,0,,,,3,,,81,0
88752,note_on,,,,,0,0,0,,,,2,,,78,0
88752,note_on,,,,,0,0,0,,,,0,,,74,0
88752,note_on,,,,,0,0,0,,,,0,,,69,0
88756,note_on,,,,,4,0,0,,,,0,,,78,0
88776,note_on,,,,,20,0,0,,,,0,,,50,0
88800,note_on,,,,,24,0,0,,,,0,,,66,65
88800,note_on,,,,,0,0,0,,,,0,,,69,65
88800,note_on,,,,,0,0,0,,,,0,,,54,108
88804,note_on,,,,,4,0,0,,,,0,,,74,65
88810,note_on,,,,,6,0,0,,,,2,,,78,87
88810,note_on,,,,,0,0,0,,,,3,,,81,87
88811,note_on,,,,,1,0,0,,,,3,,,83,0
88811,note_on,,,,,0,0,0,,,,2,,,79,0
88864,note_on,,,,,53,0,0,,,,2,,,79,87
88864,note_on,,,,,0,0,0,,,,3,,,83,87
88868,note_on,,,,,4,0,0,,,,3,,,81,0
88868,note_on,,,,,0,0,0,,,,2,,,78,0
88930,note_on,,,,,62,0,0,,,,2,,,78,87
88930,note_on,,,,,0,0,0,,,,3,,,81,87
88935,note_on,,,,,5,0,0,,,,3,,,83,0
88935,note_on,,,,,0,0,0,,,,2,,,79,0
88948,note_on,,,,,13,0,0,,,,2,,,78,87
88948,note_on,,,,,0,0,0,,,,3,,,81,87
88984,note_on,,,,,36,0,0,,,,2,,,79,87
88984,note_on,,,,,0,0,0,,,,3,,,83,87
88992,note_on,,,,,8,0,0,,,,3,,,81,0
88992,note_on,,,,,0,0,0,,,,2,,,78,0
88992,note_on,,,,,0,0,0,,,,3,,,81,0
88992,note_on,,,,,0,0,0,,,,2,,,78,0
89016,note_on,,,,,24,0,0,,,,0,,,54,0
89040,note_on,,,,,24,0,0,,,,0,,,50,88
89040,note_on,,,,,0,0,0,,,,2,,,78,87
89040,note_on,,,,,0,0,0,,,,3,,,81,87
89046,note_on,,,,,6,0,0,,,,3,,,83,0
89046,note_on,,,,,0,0,0,,,,2,,,79,0
89094,note_on,,,,,48,0,0,,,,2,,,79,87
89094,note_on,,,,,0,0,0,,,,3,,,83,87
89098,note_on,,,,,4,0,0,,,,3,,,81,0
89098,note_on,,,,,0,0,0,,,,2,,,78,0
89160,note_on,,,,,62,0,0,,,,2,,,78,87
89160,note_on,,,,,0,0,0,,,,3,,,81,87
89165,note_on,,,,,5,0,0,,,,3,,,83,0
89165,note_on,,,,,0,0,0,,,,2,,,79,0
89178,note_on,,,,,13,0,0,,,,2,,,78,87
89178,note_on,,,,,0,0,0,,,,3,,,81,87
89204,note_on,,,,,26,0,0,,,,3,,,83,87
89214,note_on,,,,,10,0,0,,,,2,,,79,87
89222,note_on,,,,,8,0,0,,,,3,,,81,0
89222,note_on,,,,,0,0,0,,,,2,,,78,0
89222,note_on,,,,,0,0,0,,,,3,,,81,0
89222,note_on,,,,,0,0,0,,,,2,,,78,0
89232,note_on,,,,,10,0,0,,,,0,,,69,0
89232,note_on,,,,,0,0,0,,,,0,,,66,0
89236,note_on,,,,,4,0,0,,,,0,,,74,0
89256,note_on,,,,,20,0,0,,,,0,,,50,0
89266,note_on,,,,,10,0,0,,,,3,,,83,0
89276,note_on,,,,,10,0,0,,,,2,,,79,0
89280,note_on,,,,,4,0,0,,,,0,,,67,65
89280,note_on,,,,,0,0,0,,,,0,,,71,65
89280,note_on,,,,,0,0,0,,,,2,,,79,87
89280,note_on,,,,,0,0,0,,,,3,,,83,87
89368,note_on,,,,,88,0,0,,,,3,,,83,0
89408,note_on,,,,,40,0,0,,,,3,,,81,87
89440,note_on,,,,,32,0,0,,,,2,,,79,0
89496,note_on,,,,,56,0,0,,,,3,,,81,0
89520,note_on,,,,,24,0,0,,,,0,,,55,88
89520,note_on,,,,,0,0,0,,,,2,,,74,87
89520,note_on,,,,,0,0,0,,,,3,,,79,87
89664,note_on,,,,,144,0,0,,,,0,,,55,0
89668,note_on,,,,,4,0,0,,,,3,,,79,0
89668,note_on,,,,,0,0,0,,,,2,,,74,0
89712,note_on,,,,,44,0,0,,,,0,,,71,0
89712,note_on,,,,,0,0,0,,,,0,,,67,0
89760,note_on,,,,,48,0,0,,,,0,,,64,65
89760,note_on,,,,,0,0,0,,,,0,,,67,65
89760,note_on,,,,,0,0,0,,,,0,,,72,65
89760,note_on,,,,,0,0,0,,,,0,,,52,88
89904,note_on,,,,,144,0,0,,,,0,,,52,0
90000,note_on,,,,,96,0,0,,,,0,,,48,88
90000,note_on,,,,,0,0,0,,,,2,,,76,87
90000,note_on,,,,,0,0,0,,,,3,,,79,87
90144,note_on,,,,,144,0,0,,,,0,,,48,0
90170,note_on,,,,,26,0,0,,,,3,,,79,0
90170,note_on,,,,,0,0,0,,,,2,,,76,0
90192,note_on,,,,,22,0,0,,,,0,,,72,0
90192,note_on,,,,,0,0,0,,,,0,,,67,0
90192,note_on,,,,,0,0,0,,,,0,,,64,0
90240,note_on,,,,,48,0,0,,,,0,,,63,65
90240,note_on,,,,,0,0,0,,,,0,,,66,65
90240,note_on,,,,,0,0,0,,,,0,,,47,88
90240,note_on,,,,,0,0,0,,,,2,,,78,87
90244,note_on,,,,,4,0,0,,,,3,,,81,87
90292,note_on,,,,,48,0,0,,,,2,,,79,87
90296,note_on,,,,,4,0,0,,,,3,,,83,87
90298,note_on,,,,,2,0,0,,,,2,,,78,0
90302,note_on,,,,,4,0,0,,,,3,,,81,0
90350,note_on,,,,,48,0,0,,,,2,,,79,0
90354,note_on,,,,,4,0,0,,,,3,,,83,0
90354,note_on,,,,,0,0,0,,,,2,,,78,87
90358,note_on,,,,,4,0,0,,,,3,,,81,87
90406,note_on,,,,,48,0,0,,,,2,,,79,87
90410,note_on,,,,,4,0,0,,,,3,,,83,87
90412,note_on,,,,,2,0,0,,,,2,,,78,0
90416,note_on,,,,,4,0,0,,,,3,,,81,0
90456,note_on,,,,,40,0,0,,,,0,,,47,0
90458,note_on,,,,,2,0,0,,,,2,,,78,87
90462,note_on,,,,,4,0,0,,,,3,,,81,87
90464,note_on,,,,,2,0,0,,,,2,,,79,0
90468,note_on,,,,,4,0,0,,,,3,,,83,0
90480,note_on,,,,,12,0,0,,,,0,,,59,88
90510,note_on,,,,,30,0,0,,,,2,,,79,87
90514,note_on,,,,,4,0,0,,,,3,,,83,87
90516,note_on,,,,,2,0,0,,,,2,,,78,0
90520,note_on,,,,,4,0,0,,,,3,,,81,0
90558,note_on,,,,,38,0,0,,,,2,,,78,87
90562,note_on,,,,,4,0,0,,,,3,,,81,87
90568,note_on,,,,,6,0,0,,,,2,,,79,0
90572,note_on,,,,,4,0,0,,,,3,,,83,0
90610,note_on,,,,,38,0,0,,,,2,,,79,87
90614,note_on,,,,,4,0,0,,,,3,,,83,87
90616,note_on,,,,,2,0,0,,,,2,,,78,0
90620,note_on,,,,,4,0,0,,,,3,,,81,0
90668,note_on,,,,,48,0,0,,,,2,,,79,0
90672,note_on,,,,,4,0,0,,,,3,,,83,0
90672,note_on,,,,,0,0,0,,,,0,,,66,0
90672,note_on,,,,,0,0,0,,,,0,,,63,0
90696,note_on,,,,,24,0,0,,,,0,,,59,0
90720,note_on,,,,,24,0,0,,,,0,,,64,65
90720,note_on,,,,,0,0,0,,,,0,,,67,65
90720,note_on,,,,,0,0,0,,,,0,,,47,88
90720,note_on,,,,,0,0,0,,,,2,,,76,87
90724,note_on,,,,,4,0,0,,,,3,,,79,87
90784,note_on,,,,,60,0,0,,,,2,,,78,87
90788,note_on,,,,,4,0,0,,,,2,,,76,0
90788,note_on,,,,,0,0,0,,,,3,,,81,87
90792,note_on,,,,,4,0,0,,,,3,,,79,0
90840,note_on,,,,,48,0,0,,,,2,,,76,87
90844,note_on,,,,,4,0,0,,,,3,,,79,87
90852,note_on,,,,,8,0,0,,,,2,,,78,0
90856,note_on,,,,,4,0,0,,,,3,,,81,0
90904,note_on,,,,,48,0,0,,,,2,,,78,87
90908,note_on,,,,,4,0,0,,,,2,,,76,0
90908,note_on,,,,,0,0,0,,,,3,,,81,87
90912,note_on,,,,,4,0,0,,,,3,,,79,0
90936,note_on,,,,,24,0,0,,,,0,,,47,0
90958,note_on,,,,,22,0,0,,,,2,,,76,87
90960,note_on,,,,,2,0,0,,,,0,,,59,88
90962,note_on,,,,,2,0,0,,,,3,,,79,87
90972,note_on,,,,,10,0,0,,,,2,,,78,0
90976,note_on,,,,,4,0,0,,,,3,,,81,0
91022,note_on,,,,,46,0,0,,,,2,,,78,87
91026,note_on,,,,,4,0,0,,,,2,,,76,0
91026,note_on,,,,,0,0,0,,,,3,,,81,87
91030,note_on,,,,,4,0,0,,,,3,,,79,0
91080,note_on,,,,,50,0,0,,,,2,,,76,87
91084,note_on,,,,,4,0,0,,,,3,,,79,87
91090,note_on,,,,,6,0,0,,,,2,,,78,0
91094,note_on,,,,,4,0,0,,,,3,,,81,0
91144,note_on,,,,,50,0,0,,,,2,,,78,87
91148,note_on,,,,,4,0,0,,,,2,,,76,0
91148,note_on,,,,,0,0,0,,,,3,,,81,87
91152,note_on,,,,,4,0,0,,,,3,,,79,0
91152,note_on,,,,,0,0,0,,,,0,,,67,0
91152,note_on,,,,,0,0,0,,,,0,,,64,0
91176,note_on,,,,,24,0,0,,,,0,,,59,0
91200,note_on,,,,,24,0,0,,,,0,,,66,65
91200,note_on,,,,,0,0,0,,,,0,,,69,65
91200,note_on,,,,,0,0,0,,,,0,,,47,88
91200,note_on,,,,,0,0,0,,,,2,,,75,87
91204,note_on,,,,,4,0,0,,,,3,,,78,87
91212,note_on,,,,,8,0,0,,,,2,,,78,0
91216,note_on,,,,,4,0,0,,,,3,,,81,0
91254,note_on,,,,,38,0,0,,,,2,,,75,0
91256,note_on,,,,,2,0,0,,,,2,,,76,87
91258,note_on,,,,,2,0,0,,,,3,,,78,0
91260,note_on,,,,,2,0,0,,,,3,,,79,87
91310,note_on,,,,,50,0,0,,,,2,,,76,0
91310,note_on,,,,,0,0,0,,,,2,,,75,87
91314,note_on,,,,,4,0,0,,,,3,,,79,0
91314,note_on,,,,,0,0,0,,,,3,,,78,87
91364,note_on,,,,,50,0,0,,,,2,,,75,0
91366,note_on,,,,,2,0,0,,,,2,,,76,87
91368,note_on,,,,,2,0,0,,,,3,,,78,0
91370,note_on,,,,,2,0,0,,,,3,,,79,87
91414,note_on,,,,,44,0,0,,,,2,,,75,87
91416,note_on,,,,,2,0,0,,,,0,,,47,0
91418,note_on,,,,,2,0,0,,,,3,,,78,87
91420,note_on,,,,,2,0,0,,,,2,,,76,0
91424,note_on,,,,,4,0,0,,,,3,,,79,0
91440,note_on,,,,,16,0,0,,,,0,,,59,88
91468,note_on,,,,,28,0,0,,,,2,,,75,0
91470,note_on,,,,,2,0,0,,,,2,,,76,87
91472,note_on,,,,,2,0,0,,,,3,,,78,0
91474,note_on,,,,,2,0,0,,,,3,,,79,87
91522,note_on,,,,,48,0,0,,,,2,,,75,87
91524,note_on,,,,,2,0,0,,,,2,,,76,0
91526,note_on,,,,,2,0,0,,,,3,,,78,87
91528,note_on,,,,,2,0,0,,,,3,,,79,0
91576,note_on,,,,,48,0,0,,,,2,,,75,0
91578,note_on,,,,,2,0,0,,,,2,,,76,87
91580,note_on,,,,,2,0,0,,,,3,,,78,0
91582,note_on,,,,,2,0,0,,,,3,,,79,87
91632,note_on,,,,,50,0,0,,,,2,,,76,0
91632,note_on,,,,,0,0,0,,,,0,,,69,0
91632,note_on,,,,,0,0,0,,,,0,,,66,0
91636,note_on,,,,,4,0,0,,,,3,,,79,0
91656,note_on,,,,,20,0,0,,,,0,,,59,0
91680,note_on,,,,,24,0,0,,,,0,,,64,65
91680,note_on,,,,,0,0,0,,,,0,,,67,65
91680,note_on,,,,,0,0,0,,,,0,,,47,88
91680,note_on,,,,,0,0,0,,,,2,,,76,87
91684,note_on,,,,,4,0,0,,,,3,,,79,87
91738,note_on,,,,,54,0,0,,,,2,,,79,87
91742,note_on,,,,,4,0,0,,,,3,,,81,87
91750,note_on,,,,,8,0,0,,,,2,,,76,0
91754,note_on,,,,,4,0,0,,,,3,,,79,0
91798,note_on,,,,,44,0,0,,,,2,,,76,87
91802,note_on,,,,,4,0,0,,,,3,,,79,87
91808,note_on,,,,,6,0,0,,,,2,,,79,0
91812,note_on,,,,,4,0,0,,,,3,,,81,0
91856,note_on,,,,,44,0,0,,,,2,,,79,87
91860,note_on,,,,,4,0,0,,,,3,,,81,87
91868,note_on,,,,,8,0,0,,,,2,,,76,0
91872,note_on,,,,,4,0,0,,,,3,,,79,0
91896,note_on,,,,,24,0,0,,,,0,,,47,0
91916,note_on,,,,,20,0,0,,,,2,,,76,87
91920,note_on,,,,,4,0,0,,,,0,,,59,88
91920,note_on,,,,,0,0,0,,,,3,,,79,87
91926,note_on,,,,,6,0,0,,,,2,,,79,0
91930,note_on,,,,,4,0,0,,,,3,,,81,0
91974,note_on,,,,,44,0,0,,,,2,,,79,87
91978,note_on,,,,,4,0,0,,,,3,,,81,87
91986,note_on,,,,,8,0,0,,,,2,,,76,0
91990,note_on,,,,,4,0,0,,,,3,,,79,0
92036,note_on,,,,,46,0,0,,,,2,,,76,87
92040,note_on,,,,,4,0,0,,,,3,,,79,87
92044,note_on,,,,,4,0,0,,,,2,,,79,0
92048,note_on,,,,,4,0,0,,,,3,,,81,0
92094,note_on,,,,,46,0,0,,,,2,,,79,87
92098,note_on,,,,,4,0,0,,,,3,,,81,87
92106,note_on,,,,,8,0,0,,,,2,,,76,0
92110,note_on,,,,,4,0,0,,,,3,,,79,0
92112,note_on,,,,,2,0,0,,,,0,,,67,0
92112,note_on,,,,,0,0,0,,,,0,,,64,0
92136,note_on,,,,,24,0,0,,,,0,,,59,0
92160,note_on,,,,,24,0,0,,,,0,,,63,65
92160,note_on,,,,,0,0,0,,,,0,,,66,65
92160,note_on,,,,,0,0,0,,,,0,,,47,88
92160,note_on,,,,,0,0,0,,,,2,,,78,87
92160,note_on,,,,,0,0,0,,,,3,,,81,87
92164,note_on,,,,,4,0,0,,,,2,,,79,0
92168,note_on,,,,,4,0,0,,,,3,,,81,0
92220,note_on,,,,,52,0,0,,,,3,,,81,0
92220,note_on,,,,,0,0,0,,,,2,,,78,0
92222,note_on,,,,,2,0,0,,,,2,,,79,87
92222,note_on,,,,,0,0,0,,,,3,,,83,87
92278,note_on,,,,,56,0,0,,,,2,,,78,87
92278,note_on,,,,,0,0,0,,,,3,,,81,87
92282,note_on,,,,,4,0,0,,,,3,,,83,0
92282,note_on,,,,,0,0,0,,,,2,,,79,0
92338,note_on,,,,,56,0,0,,,,3,,,81,0
92338,note_on,,,,,0,0,0,,,,2,,,78,0
92340,note_on,,,,,2,0,0,,,,2,,,79,87
92340,note_on,,,,,0,0,0,,,,3,,,83,87
92376,note_on,,,,,36,0,0,,,,0,,,47,0
92396,note_on,,,,,20,0,0,,,,2,,,78,87
92396,note_on,,,,,0,0,0,,,,3,,,81,87
92400,note_on,,,,,4,0,0,,,,3,,,83,0
92400,note_on,,,,,0,0,0,,,,2,,,79,0
92400,note_on,,,,,0,0,0,,,,0,,,59,88
92456,note_on,,,,,56,0,0,,,,3,,,81,0
92456,note_on,,,,,0,0,0,,,,2,,,78,0
92458,note_on,,,,,2,0,0,,,,2,,,79,87
92458,note_on,,,,,0,0,0,,,,3,,,83,87
92516,note_on,,,,,58,0,0,,,,2,,,78,87
92516,note_on,,,,,0,0,0,,,,3,,,81,87
92518,note_on,,,,,2,0,0,,,,3,,,83,0
92518,note_on,,,,,0,0,0,,,,2,,,79,0
92576,note_on,,,,,58,0,0,,,,3,,,81,0
92576,note_on,,,,,0,0,0,,,,2,,,78,0
92578,note_on,,,,,2,0,0,,,,2,,,79,87
92578,note_on,,,,,0,0,0,,,,3,,,83,87
92592,note_on,,,,,14,0,0,,,,0,,,66,0
92592,note_on,,,,,0,0,0,,,,0,,,63,0
92616,note_on,,,,,24,0,0,,,,0,,,59,0
92638,note_on,,,,,22,0,0,,,,3,,,83,0
92638,note_on,,,,,0,0,0,,,,2,,,79,0
92640,note_on,,,,,2,0,0,,,,0,,,64,65
92640,note_on,,,,,0,0,0,,,,0,,,67,65
92640,note_on,,,,,0,0,0,,,,0,,,47,88
92640,note_on,,,,,0,0,0,,,,2,,,76,87
92640,note_on,,,,,0,0,0,,,,3,,,79,87
92694,note_on,,,,,54,0,0,,,,2,,,78,87
92694,note_on,,,,,0,0,0,,,,3,,,81,87
92708,note_on,,,,,14,0,0,,,,3,,,79,0
92708,note_on,,,,,0,0,0,,,,2,,,76,0
92760,note_on,,,,,52,0,0,,,,2,,,76,87
92760,note_on,,,,,0,0,0,,,,3,,,79,87
92762,note_on,,,,,2,0,0,,,,3,,,81,0
92762,note_on,,,,,0,0,0,,,,2,,,78,0
92814,note_on,,,,,52,0,0,,,,2,,,78,87
92814,note_on,,,,,0,0,0,,,,3,,,81,87
92828,note_on,,,,,14,0,0,,,,3,,,79,0
92828,note_on,,,,,0,0,0,,,,2,,,76,0
92856,note_on,,,,,28,0,0,,,,0,,,47,0
92880,note_on,,,,,24,0,0,,,,0,,,59,88
92880,note_on,,,,,0,0,0,,,,2,,,76,87
92880,note_on,,,,,0,0,0,,,,3,,,79,87
92882,note_on,,,,,2,0,0,,,,3,,,81,0
92882,note_on,,,,,0,0,0,,,,2,,,78,0
92934,note_on,,,,,52,0,0,,,,2,,,78,87
92934,note_on,,,,,0,0,0,,,,3,,,81,87
92948,note_on,,,,,14,0,0,,,,3,,,79,0
92948,note_on,,,,,0,0,0,,,,2,,,76,0
92996,note_on,,,,,48,0,0,,,,2,,,76,87
92996,note_on,,,,,0,0,0,,,,3,,,79,87
93002,note_on,,,,,6,0,0,,,,3,,,81,0
93002,note_on,,,,,0,0,0,,,,2,,,78,0
93050,note_on,,,,,48,0,0,,,,2,,,78,87
93050,note_on,,,,,0,0,0,,,,3,,,81,87
93064,note_on,,,,,14,0,0,,,,3,,,79,0
93064,note_on,,,,,0,0,0,,,,2,,,76,0
93072,note_on,,,,,8,0,0,,,,0,,,67,0
93072,note_on,,,,,0,0,0,,,,0,,,64,0
93096,note_on,,,,,24,0,0,,,,0,,,59,0
93118,note_on,,,,,22,0,0,,,,3,,,81,0
93118,note_on,,,,,0,0,0,,,,2,,,78,0
93120,note_on,,,,,2,0,0,,,,0,,,66,65
93120,note_on,,,,,0,0,0,,,,0,,,69,65
93120,note_on,,,,,0,0,0,,,,0,,,47,88
93120,note_on,,,,,0,0,0,,,,2,,,75,87
93120,note_on,,,,,0,0,0,,,,3,,,78,87
93182,note_on,,,,,62,0,0,,,,2,,,76,87
93182,note_on,,,,,0,0,0,,,,3,,,79,87
93186,note_on,,,,,4,0,0,,,,3,,,78,0
93186,note_on,,,,,0,0,0,,,,2,,,75,0
93240,note_on,,,,,54,0,0,,,,2,,,75,87
93240,note_on,,,,,0,0,0,,,,3,,,78,87
93248,note_on,,,,,8,0,0,,,,3,,,79,0
93248,note_on,,,,,0,0,0,,,,2,,,76,0
93302,note_on,,,,,54,0,0,,,,2,,,76,87
93302,note_on,,,,,0,0,0,,,,3,,,79,87
93306,note_on,,,,,4,0,0,,,,3,,,78,0
93306,note_on,,,,,0,0,0,,,,2,,,75,0
93336,note_on,,,,,30,0,0,,,,0,,,47,0
93360,note_on,,,,,24,0,0,,,,0,,,49,88
93360,note_on,,,,,0,0,0,,,,2,,,75,87
93360,note_on,,,,,0,0,0,,,,3,,,78,87
93368,note_on,,,,,8,0,0,,,,3,,,79,0
93368,note_on,,,,,0,0,0,,,,2,,,76,0
93422,note_on,,,,,54,0,0,,,,2,,,76,87
93422,note_on,,,,,0,0,0,,,,3,,,79,87
93426,note_on,,,,,4,0,0,,,,3,,,78,0
93426,note_on,,,,,0,0,0,,,,2,,,75,0
93476,note_on,,,,,50,0,0,,,,2,,,75,87
93476,note_on,,,,,0,0,0,,,,3,,,78,87
93488,note_on,,,,,12,0,0,,,,3,,,79,0
93488,note_on,,,,,0,0,0,,,,2,,,76,0
93538,note_on,,,,,50,0,0,,,,2,,,76,87
93538,note_on,,,,,0,0,0,,,,3,,,79,87
93542,note_on,,,,,4,0,0,,,,3,,,78,0
93542,note_on,,,,,0,0,0,,,,2,,,75,0
93552,note_on,,,,,10,0,0,,,,0,,,69,0
93552,note_on,,,,,0,0,0,,,,0,,,66,0
93576,note_on,,,,,24,0,0,,,,0,,,49,0
93600,note_on,,,,,24,0,0,,,,0,,,51,88
93604,note_on,,,,,4,0,0,,,,3,,,79,0
93604,note_on,,,,,0,0,0,,,,2,,,76,0
93816,note_on,,,,,212,0,0,,,,0,,,51,0
93840,note_on,,,,,24,0,0,,,,0,,,63,65
93840,note_on,,,,,0,0,0,,,,0,,,66,65
93840,note_on,,,,,0,0,0,,,,0,,,47,88
93840,note_on,,,,,0,0,0,,,,2,,,78,87
93840,note_on,,,,,0,0,0,,,,3,,,81,87
94026,note_on,,,,,186,0,0,,,,3,,,81,0
94026,note_on,,,,,0,0,0,,,,2,,,78,0
94056,note_on,,,,,30,0,0,,,,0,,,47,0
94056,note_on,,,,,0,0,0,,,,0,,,66,0
94056,note_on,,,,,0,0,0,,,,0,,,63,0
94080,note_on,,,,,24,0,0,,,,0,,,64,65
94080,note_on,,,,,0,0,0,,,,0,,,67,65
94080,note_on,,,,,0,0,0,,,,0,,,52,88
94080,note_on,,,,,0,0,0,,,,2,,,76,87
94088,note_on,,,,,8,0,0,,,,3,,,79,72
94198,note_on,,,,,110,0,0,,,,3,,,79,0
94200,note_on,,,,,2,0,0,,,,2,,,79,87
94204,note_on,,,,,4,0,0,,,,2,,,76,0
94204,note_on,,,,,0,0,0,,,,3,,,83,72
94296,note_on,,,,,92,0,0,,,,0,,,52,0
94296,note_on,,,,,0,0,0,,,,0,,,67,0
94314,note_on,,,,,18,0,0,,,,3,,,83,0
94320,note_on,,,,,6,0,0,,,,0,,,69,65
94320,note_on,,,,,0,0,0,,,,0,,,57,88
94320,note_on,,,,,0,0,0,,,,2,,,78,87
94328,note_on,,,,,8,0,0,,,,2,,,79,0
94328,note_on,,,,,0,0,0,,,,3,,,81,72
94438,note_on,,,,,110,0,0,,,,3,,,81,0
94440,note_on,,,,,2,0,0,,,,2,,,76,87
94444,note_on,,,,,4,0,0,,,,3,,,79,72
94462,note_on,,,,,18,0,0,,,,2,,,78,0
94512,note_on,,,,,50,0,0,,,,0,,,64,0
94536,note_on,,,,,24,0,0,,,,2,,,76,0
94536,note_on,,,,,0,0,0,,,,0,,,57,0
94536,note_on,,,,,0,0,0,,,,0,,,69,0
94546,note_on,,,,,10,0,0,,,,2,,,75,87
94554,note_on,,,,,8,0,0,,,,3,,,79,0
94556,note_on,,,,,2,0,0,,,,3,,,78,87
94560,note_on,,,,,4,0,0,,,,0,,,63,65
94560,note_on,,,,,0,0,0,,,,0,,,66,65
94560,note_on,,,,,0,0,0,,,,0,,,59,88
94612,note_on,,,,,52,0,0,,,,2,,,75,0
94616,note_on,,,,,4,0,0,,,,2,,,76,87
94618,note_on,,,,,2,0,0,,,,3,,,79,87
94622,note_on,,,,,4,0,0,,,,3,,,78,0
94674,note_on,,,,,52,0,0,,,,2,,,75,87
94676,note_on,,,,,2,0,0,,,,3,,,78,87
94682,note_on,,,,,6,0,0,,,,2,,,76,0
94684,note_on,,,,,2,0,0,,,,3,,,79,0
94738,note_on,,,,,54,0,0,,,,3,,,79,87
94740,note_on,,,,,2,0,0,,,,2,,,75,0
94742,note_on,,,,,2,0,0,,,,3,,,78,0
94744,note_on,,,,,2,0,0,,,,2,,,76,87
94776,note_on,,,,,32,0,0,,,,0,,,59,0
94796,note_on,,,,,20,0,0,,,,3,,,78,87
94798,note_on,,,,,2,0,0,,,,2,,,75,87
94800,note_on,,,,,2,0,0,,,,0,,,47,88
94804,note_on,,,,,4,0,0,,,,3,,,79,0
94810,note_on,,,,,6,0,0,,,,2,,,76,0
94858,note_on,,,,,48,0,0,,,,3,,,79,87
94862,note_on,,,,,4,0,0,,,,3,,,78,0
94864,note_on,,,,,2,0,0,,,,2,,,75,0
94868,note_on,,,,,4,0,0,,,,2,,,76,87
94912,note_on,,,,,44,0,0,,,,3,,,78,87
94918,note_on,,,,,6,0,0,,,,2,,,75,87
94924,note_on,,,,,6,0,0,,,,3,,,79,0
94934,note_on,,,,,10,0,0,,,,2,,,76,0
94974,note_on,,,,,40,0,0,,,,3,,,79,87
94978,note_on,,,,,4,0,0,,,,3,,,78,0
94984,note_on,,,,,6,0,0,,,,2,,,75,0
94988,note_on,,,,,4,0,0,,,,2,,,76,87
94992,note_on,,,,,4,0,0,,,,0,,,66,0
94992,note_on,,,,,0,0,0,,,,0,,,63,0
95016,note_on,,,,,24,0,0,,,,0,,,47,0
95040,note_on,,,,,24,0,0,,,,3,,,79,0
95040,note_on,,,,,0,0,0,,,,0,,,64,65
95040,note_on,,,,,0,0,0,,,,0,,,68,65
95040,note_on,,,,,0,0,0,,,,0,,,52,88
95040,note_on,,,,,0,0,0,,,,2,,,74,87
95040,note_on,,,,,0,0,0,,,,3,,,80,72
95054,note_on,,,,,14,0,0,,,,2,,,76,0
95256,note_on,,,,,202,0,0,,,,0,,,52,0
95256,note_on,,,,,0,0,0,,,,0,,,68,0
95280,note_on,,,,,24,0,0,,,,0,,,69,65
95280,note_on,,,,,0,0,0,,,,0,,,54,88
95496,note_on,,,,,216,0,0,,,,0,,,54,0
95496,note_on,,,,,0,0,0,,,,0,,,69,0
95520,note_on,,,,,24,0,0,,,,0,,,71,65
95520,note_on,,,,,0,0,0,,,,0,,,56,88
95620,note_on,,,,,100,0,0,,,,3,,,80,0
95640,note_on,,,,,20,0,0,,,,3,,,83,72
95671,note_on,,,,,31,0,0,,,,2,,,74,0
95736,note_on,,,,,65,0,0,,,,0,,,56,0
95736,note_on,,,,,0,0,0,,,,0,,,71,0
95750,note_on,,,,,14,0,0,,,,3,,,83,0
95760,note_on,,,,,10,0,0,,,,0,,,68,65
95760,note_on,,,,,0,0,0,,,,0,,,52,88
95760,note_on,,,,,0,0,0,,,,3,,,81,72
95870,note_on,,,,,110,0,0,,,,3,,,81,0
95880,note_on,,,,,10,0,0,,,,3,,,79,72
95976,note_on,,,,,96,0,0,,,,0,,,52,0
95976,note_on,,,,,0,0,0,,,,0,,,68,0
95990,note_on,,,,,14,0,0,,,,3,,,79,0
96000,note_on,,,,,10,0,0,,,,0,,,69,65
96000,note_on,,,,,0,0,0,,,,0,,,45,88
96000,note_on,,,,,0,0,0,,,,2,,,72,87
96000,note_on,,,,,0,0,0,,,,3,,,81,72
96110,note_on,,,,,110,0,0,,,,3,,,81,0
96116,note_on,,,,,6,0,0,,,,2,,,72,0
96120,note_on,,,,,4,0,0,,,,0,,,64,0
96120,note_on,,,,,0,0,0,,,,3,,,76,72
96216,note_on,,,,,96,0,0,,,,0,,,45,0
96230,note_on,,,,,14,0,0,,,,3,,,76,0
96240,note_on,,,,,10,0,0,,,,0,,,65,65
96240,note_on,,,,,0,0,0,,,,0,,,50,88
96240,note_on,,,,,0,0,0,,,,2,,,81,87
96240,note_on,,,,,0,0,0,,,,3,,,74,72
96350,note_on,,,,,110,0,0,,,,3,,,74,0
96360,note_on,,,,,10,0,0,,,,3,,,72,72
96456,note_on,,,,,96,0,0,,,,0,,,50,0
96456,note_on,,,,,0,0,0,,,,0,,,65,0
96470,note_on,,,,,14,0,0,,,,3,,,72,0
96480,note_on,,,,,10,0,0,,,,0,,,64,65
96480,note_on,,,,,0,0,0,,,,0,,,52,88
96480,note_on,,,,,0,0,0,,,,3,,,71,72
96534,note_on,,,,,54,0,0,,,,3,,,72,72
96536,note_on,,,,,2,0,0,,,,3,,,71,0
96582,note_on,,,,,46,0,0,,,,3,,,71,72
96590,note_on,,,,,8,0,0,,,,3,,,72,0
96636,note_on,,,,,46,0,0,,,,3,,,72,72
96638,note_on,,,,,2,0,0,,,,3,,,71,0
96668,note_on,,,,,30,0,0,,,,2,,,81,0
96686,note_on,,,,,18,0,0,,,,3,,,71,72
96692,note_on,,,,,6,0,0,,,,3,,,72,0
96696,note_on,,,,,4,0,0,,,,0,,,52,0
96720,note_on,,,,,24,0,0,,,,0,,,69,0
96720,note_on,,,,,0,0,0,,,,0,,,68,65
96720,note_on,,,,,0,0,0,,,,0,,,40,88
96720,note_on,,,,,0,0,0,,,,2,,,80,87
96732,note_on,,,,,12,0,0,,,,3,,,72,72
96742,note_on,,,,,10,0,0,,,,3,,,71,0
96778,note_on,,,,,36,0,0,,,,3,,,71,72
96780,note_on,,,,,2,0,0,,,,3,,,72,0
96834,note_on,,,,,54,0,0,,,,3,,,71,0
96840,note_on,,,,,6,0,0,,,,3,,,69,72
96866,note_on,,,,,26,0,0,,,,2,,,80,0
96912,note_on,,,,,46,0,0,,,,0,,,64,0
96936,note_on,,,,,24,0,0,,,,0,,,40,0
96936,note_on,,,,,0,0,0,,,,0,,,68,0
96950,note_on,,,,,14,0,0,,,,3,,,69,0
96960,note_on,,,,,10,0,0,,,,0,,,69,88
96960,note_on,,,,,0,0,0,,,,0,,,57,88
96960,note_on,,,,,0,0,0,,,,0,,,45,88
96960,note_on,,,,,0,0,0,,,,2,,,81,87
96960,note_on,,,,,0,0,0,,,,3,,,69,72
97176,note_on,,,,,216,0,0,,,,0,,,45,0
97176,note_on,,,,,0,0,0,,,,0,,,57,0
97176,note_on,,,,,0,0,0,,,,0,,,69,0
97180,note_on,,,,,4,0,0,,,,3,,,69,0
97200,note_on,,,,,20,0,0,,,,0,,,76,88
97200,note_on,,,,,0,0,0,,,,0,,,72,88
97200,note_on,,,,,0,0,0,,,,0,,,57,88
97268,note_on,,,,,68,0,0,,,,2,,,81,0
97308,note_on,,,,,40,0,0,,,,0,,,72,0
97308,note_on,,,,,0,0,0,,,,0,,,76,0
97320,note_on,,,,,12,0,0,,,,0,,,74,88
97320,note_on,,,,,0,0,0,,,,0,,,71,88
97416,note_on,,,,,96,0,0,,,,0,,,57,0
97428,note_on,,,,,12,0,0,,,,0,,,71,0
97428,note_on,,,,,0,0,0,,,,0,,,74,0
97440,note_on,,,,,12,0,0,,,,0,,,69,88
97440,note_on,,,,,0,0,0,,,,0,,,72,88
97440,note_on,,,,,0,0,0,,,,0,,,45,88
97656,note_on,,,,,216,0,0,,,,0,,,45,0
97656,note_on,,,,,0,0,0,,,,0,,,72,0
97656,note_on,,,,,0,0,0,,,,0,,,69,0
97680,note_on,,,,,24,0,0,,,,0,,,76,88
97680,note_on,,,,,0,0,0,,,,0,,,72,88
97680,note_on,,,,,0,0,0,,,,0,,,57,88
97788,note_on,,,,,108,0,0,,,,0,,,72,0
97788,note_on,,,,,0,0,0,,,,0,,,76,0
97800,note_on,,,,,12,0,0,,,,0,,,74,88
97800,note_on,,,,,0,0,0,,,,0,,,71,88
97896,note_on,,,,,96,0,0,,,,0,,,57,0
97908,note_on,,,,,12,0,0,,,,0,,,71,0
97908,note_on,,,,,0,0,0,,,,0,,,74,0
97920,note_on,,,,,12,0,0,,,,0,,,72,88
97920,note_on,,,,,0,0,0,,,,0,,,69,88
97920,note_on,,,,,0,0,0,,,,0,,,45,88
98136,note_on,,,,,216,0,0,,,,0,,,45,0
98136,note_on,,,,,0,0,0,,,,0,,,69,0
98136,note_on,,,,,0,0,0,,,,0,,,72,0
98160,note_on,,,,,24,0,0,,,,0,,,76,88
98160,note_on,,,,,0,0,0,,,,0,,,81,88
98160,note_on,,,,,0,0,0,,,,0,,,57,88
98376,note_on,,,,,216,0,0,,,,0,,,57,0
98376,note_on,,,,,0,0,0,,,,0,,,81,0
98376,note_on,,,,,0,0,0,,,,0,,,76,0
98400,note_on,,,,,24,0,0,,,,0,,,72,88
98400,note_on,,,,,0,0,0,,,,0,,,76,88
98400,note_on,,,,,0,0,0,,,,0,,,45,88
98616,note_on,,,,,216,0,0,,,,0,,,45,0
98616,note_on,,,,,0,0,0,,,,0,,,76,0
98616,note_on,,,,,0,0,0,,,,0,,,72,0
98640,note_on,,,,,24,0,0,,,,0,,,76,88
98640,note_on,,,,,0,0,0,,,,0,,,81,88
98640,note_on,,,,,0,0,0,,,,0,,,57,88
98856,note_on,,,,,216,0,0,,,,0,,,57,0
98856,note_on,,,,,0,0,0,,,,0,,,81,0
98856,note_on,,,,,0,0,0,,,,0,,,76,0
98880,note_on,,,,,24,0,0,,,,0,,,69,88
98880,note_on,,,,,0,0,0,,,,0,,,72,88
98880,note_on,,,,,0,0,0,,,,0,,,45,88
99096,note_on,,,,,216,0,0,,,,0,,,45,0
99096,note_on,,,,,0,0,0,,,,0,,,72,0
99096,note_on,,,,,0,0,0,,,,0,,,69,0
99120,note_on,,,,,24,0,0,,,,0,,,76,88
99120,note_on,,,,,0,0,0,,,,0,,,72,88
99120,note_on,,,,,0,0,0,,,,0,,,57,88
99228,note_on,,,,,108,0,0,,,,0,,,72,0
99228,note_on,,,,,0,0,0,,,,0,,,76,0
99240,note_on,,,,,12,0,0,,,,0,,,74,88
99240,note_on,,,,,0,0,0,,,,0,,,71,88
99336,note_on,,,,,96,0,0,,,,0,,,57,0
99348,note_on,,,,,12,0,0,,,,0,,,71,0
99348,note_on,,,,,0,0,0,,,,0,,,74,0
99360,note_on,,,,,12,0,0,,,,0,,,69,88
99360,note_on,,,,,0,0,0,,,,0,,,72,88
99360,note_on,,,,,0,0,0,,,,0,,,45,88
99576,note_on,,,,,216,0,0,,,,0,,,45,0
99576,note_on,,,,,0,0,0,,,,0,,,72,0
99576,note_on,,,,,0,0,0,,,,0,,,69,0
99600,note_on,,,,,24,0,0,,,,0,,,76,88
99600,note_on,,,,,0,0,0,,,,0,,,72,88
99600,note_on,,,,,0,0,0,,,,0,,,57,88
99708,note_on,,,,,108,0,0,,,,0,,,72,0
99708,note_on,,,,,0,0,0,,,,0,,,76,0
99720,note_on,,,,,12,0,0,,,,0,,,74,88
99720,note_on,,,,,0,0,0,,,,0,,,71,88
99816,note_on,,,,,96,0,0,,,,0,,,57,0
99828,note_on,,,,,12,0,0,,,,0,,,71,0
99828,note_on,,,,,0,0,0,,,,0,,,74,0
99840,note_on,,,,,12,0,0,,,,0,,,72,88
99840,note_on,,,,,0,0,0,,,,0,,,69,88
99840,note_on,,,,,0,0,0,,,,0,,,45,88
100056,note_on,,,,,216,0,0,,,,0,,,45,0
100056,note_on,,,,,0,0,0,,,,0,,,69,0
100056,note_on,,,,,0,0,0,,,,0,,,72,0
100080,note_on,,,,,24,0,0,,,,0,,,76,88
100080,note_on,,,,,0,0,0,,,,0,,,81,88
100080,note_on,,,,,0,0,0,,,,0,,,57,88
100296,note_on,,,,,216,0,0,,,,0,,,57,0
100296,note_on,,,,,0,0,0,,,,0,,,81,0
100296,note_on,,,,,0,0,0,,,,0,,,76,0
100320,note_on,,,,,24,0,0,,,,0,,,72,88
100320,note_on,,,,,0,0,0,,,,0,,,76,88
100320,note_on,,,,,0,0,0,,,,0,,,45,88
100536,note_on,,,,,216,0,0,,,,0,,,45,0
100536,note_on,,,,,0,0,0,,,,0,,,76,0
100536,note_on,,,,,0,0,0,,,,0,,,72,0
100560,note_on,,,,,24,0,0,,,,0,,,76,88
100560,note_on,,,,,0,0,0,,,,0,,,81,88
100560,note_on,,,,,0,0,0,,,,0,,,57,88
100776,note_on,,,,,216,0,0,,,,0,,,57,0
100776,note_on,,,,,0,0,0,,,,0,,,81,0
100776,note_on,,,,,0,0,0,,,,0,,,76,0
100800,note_on,,,,,24,0,0,,,,0,,,80,88
100800,note_on,,,,,0,0,0,,,,0,,,76,88
100800,note_on,,,,,0,0,0,,,,0,,,40,88
101016,note_on,,,,,216,0,0,,,,0,,,40,0
101016,note_on,,,,,0,0,0,,,,0,,,76,0
101016,note_on,,,,,0,0,0,,,,0,,,80,0
101040,note_on,,,,,24,0,0,,,,0,,,80,88
101040,note_on,,,,,0,0,0,,,,0,,,83,88
101040,note_on,,,,,0,0,0,,,,0,,,52,88
101148,note_on,,,,,108,0,0,,,,0,,,83,0
101148,note_on,,,,,0,0,0,,,,0,,,80,0
101160,note_on,,,,,12,0,0,,,,0,,,81,88
101160,note_on,,,,,0,0,0,,,,0,,,78,88
101256,note_on,,,,,96,0,0,,,,0,,,52,0
101268,note_on,,,,,12,0,0,,,,0,,,78,0
101268,note_on,,,,,0,0,0,,,,0,,,81,0
101280,note_on,,,,,12,0,0,,,,0,,,80,88
101280,note_on,,,,,0,0,0,,,,0,,,76,88
101280,note_on,,,,,0,0,0,,,,0,,,40,88
101496,note_on,,,,,216,0,0,,,,0,,,40,0
101496,note_on,,,,,0,0,0,,,,0,,,76,0
101496,note_on,,,,,0,0,0,,,,0,,,80,0
101520,note_on,,,,,24,0,0,,,,0,,,80,88
101520,note_on,,,,,0,0,0,,,,0,,,83,88
101520,note_on,,,,,0,0,0,,,,0,,,52,88
101628,note_on,,,,,108,0,0,,,,0,,,83,0
101628,note_on,,,,,0,0,0,,,,0,,,80,0
101640,note_on,,,,,12,0,0,,,,0,,,81,88
101640,note_on,,,,,0,0,0,,,,0,,,78,88
101736,note_on,,,,,96,0,0,,,,0,,,52,0
101748,note_on,,,,,12,0,0,,,,0,,,78,0
101748,note_on,,,,,0,0,0,,,,0,,,81,0
101760,marker,,,,,12,1,0,,,,,,,,
101760,note_on,,,,,0,0,0,,,,0,,,80,88
101760,note_on,,,,,0,0,0,,,,0,,,76,88
101760,note_on,,,,,0,0,0,,,,0,,,40,88
101976,note_on,,,,,216,0,0,,,,0,,,40,0
101976,note_on,,,,,0,0,0,,,,0,,,76,0
101976,note_on,,,,,0,0,0,,,,0,,,80,0
102000,note_on,,,,,24,0,0,,,,0,,,76,88
102000,note_on,,,,,0,0,0,,,,0,,,71,88
102000,note_on,,,,,0,0,0,,,,0,,,52,88
102216,note_on,,,,,216,0,0,,,,0,,,52,0
102216,note_on,,,,,0,0,0,,,,0,,,71,0
102216,note_on,,,,,0,0,0,,,,0,,,76,0
102240,note_on,,,,,24,0,0,,,,0,,,80,88
102240,note_on,,,,,0,0,0,,,,0,,,76,88
102240,note_on,,,,,0,0,0,,,,0,,,40,88
102456,note_on,,,,,216,0,0,,,,0,,,40,0
102456,note_on,,,,,0,0,0,,,,0,,,76,0
102456,note_on,,,,,0,0,0,,,,0,,,80,0
102480,note_on,,,,,24,0,0,,,,0,,,83,88
102480,note_on,,,,,0,0,0,,,,0,,,80,88
102480,note_on,,,,,0,0,0,,,,0,,,52,88
102696,note_on,,,,,216,0,0,,,,0,,,52,0
102696,note_on,,,,,0,0,0,,,,0,,,80,0
102696,note_on,,,,,0,0,0,,,,0,,,83,0
102720,note_on,,,,,24,0,0,,,,0,,,81,88
102720,note_on,,,,,0,0,0,,,,0,,,76,88
102720,note_on,,,,,0,0,0,,,,0,,,45,88
102936,note_on,,,,,216,0,0,,,,0,,,45,0
102936,note_on,,,,,0,0,0,,,,0,,,76,0
102936,note_on,,,,,0,0,0,,,,0,,,81,0
102960,note_on,,,,,24,0,0,,,,0,,,72,88
102960,note_on,,,,,0,0,0,,,,0,,,69,88
102960,note_on,,,,,0,0,0,,,,0,,,57,88
103176,note_on,,,,,216,0,0,,,,0,,,57,0
103176,note_on,,,,,0,0,0,,,,0,,,69,0
103176,note_on,,,,,0,0,0,,,,0,,,72,0
103200,note_on,,,,,24,0,0,,,,0,,,71,88
103200,note_on,,,,,0,0,0,,,,0,,,68,88
103200,note_on,,,,,0,0,0,,,,0,,,52,88
103416,note_on,,,,,216,0,0,,,,0,,,52,0
103416,note_on,,,,,0,0,0,,,,0,,,68,0
103416,note_on,,,,,0,0,0,,,,0,,,71,0
103440,note_on,,,,,24,0,0,,,,0,,,80,88
103440,note_on,,,,,0,0,0,,,,0,,,71,88
103440,note_on,,,,,0,0,0,,,,0,,,40,88
103656,note_on,,,,,216,0,0,,,,0,,,40,0
103656,note_on,,,,,0,0,0,,,,0,,,71,0
103656,note_on,,,,,0,0,0,,,,0,,,80,0
103680,note_on,,,,,24,0,0,,,,0,,,81,88
103680,note_on,,,,,0,0,0,,,,0,,,72,88
103680,note_on,,,,,0,0,0,,,,0,,,45,88
103680,note_on,,,,,0,0,0,,,,3,,,81,92
103800,note_on,,,,,120,0,0,,,,3,,,76,92
103822,note_on,,,,,22,0,0,,,,3,,,81,0
103900,note_on,,,,,78,0,0,,,,3,,,76,0
103920,note_on,,,,,20,0,0,,,,3,,,81,92
104020,note_on,,,,,100,0,0,,,,3,,,81,0
104040,note_on,,,,,20,0,0,,,,0,,,72,0
104040,note_on,,,,,0,0,0,,,,0,,,81,0
104040,note_on,,,,,0,0,0,,,,3,,,83,92
104112,note_on,,,,,72,0,0,,,,0,,,45,0
104140,note_on,,,,,28,0,0,,,,3,,,83,0
104160,note_on,,,,,20,0,0,,,,3,,,84,92
104280,note_on,,,,,120,0,0,,,,3,,,83,92
104298,note_on,,,,,18,0,0,,,,3,,,84,0
104374,note_on,,,,,76,0,0,,,,3,,,83,0
104400,note_on,,,,,26,0,0,,,,0,,,72,65
104400,note_on,,,,,0,0,0,,,,0,,,69,65
104400,note_on,,,,,0,0,0,,,,0,,,57,88
104400,note_on,,,,,0,0,0,,,,3,,,84,92
104494,note_on,,,,,94,0,0,,,,3,,,84,0
104520,note_on,,,,,26,0,0,,,,3,,,81,92
104614,note_on,,,,,94,0,0,,,,3,,,81,0
104616,note_on,,,,,2,0,0,,,,0,,,57,0
104616,note_on,,,,,0,0,0,,,,0,,,69,0
104616,note_on,,,,,0,0,0,,,,0,,,72,0
104640,note_on,,,,,24,0,0,,,,0,,,64,65
104640,note_on,,,,,0,0,0,,,,0,,,71,65
104640,note_on,,,,,0,0,0,,,,0,,,76,65
104640,note_on,,,,,0,0,0,,,,0,,,56,88
104640,note_on,,,,,0,0,0,,,,3,,,83,92
104734,note_on,,,,,94,0,0,,,,3,,,83,0
104760,note_on,,,,,26,0,0,,,,3,,,81,92
104854,note_on,,,,,94,0,0,,,,3,,,81,0
104880,note_on,,,,,26,0,0,,,,3,,,80,92
104974,note_on,,,,,94,0,0,,,,3,,,80,0
105000,note_on,,,,,26,0,0,,,,3,,,78,92
105094,note_on,,,,,94,0,0,,,,3,,,78,0
105120,note_on,,,,,26,0,0,,,,3,,,76,92
105216,note_on,,,,,96,0,0,,,,3,,,76,0
105240,note_on,,,,,24,0,0,,,,3,,,74,92
105336,note_on,,,,,96,0,0,,,,3,,,74,0
105360,note_on,,,,,24,0,0,,,,3,,,72,92
105456,note_on,,,,,96,0,0,,,,3,,,72,0
105480,note_on,,,,,24,0,0,,,,3,,,71,92
105504,note_on,,,,,24,0,0,,,,0,,,56,0
105504,note_on,,,,,0,0,0,,,,0,,,76,0
105504,note_on,,,,,0,0,0,,,,0,,,71,0
105504,note_on,,,,,0,0,0,,,,0,,,64,0
105576,note_on,,,,,72,0,0,,,,3,,,71,0
105600,note_on,,,,,24,0,0,,,,0,,,72,65
105600,note_on,,,,,0,0,0,,,,0,,,69,65
105600,note_on,,,,,0,0,0,,,,0,,,57,88
105600,note_on,,,,,0,0,0,,,,2,,,81,92
105600,note_on,,,,,0,0,0,,,,3,,,72,92
105712,note_on,,,,,112,0,0,,,,2,,,81,0
105720,note_on,,,,,8,0,0,,,,2,,,76,92
105788,note_on,,,,,68,0,0,,,,2,,,76,0
105799,note_on,,,,,11,0,0,,,,3,,,72,0
105840,note_on,,,,,41,0,0,,,,2,,,81,92
105840,note_on,,,,,0,0,0,,,,3,,,69,92
105925,note_on,,,,,85,0,0,,,,2,,,81,0
105960,note_on,,,,,35,0,0,,,,2,,,83,92
106026,note_on,,,,,66,0,0,,,,2,,,83,0
106032,note_on,,,,,6,0,0,,,,0,,,57,0
106032,note_on,,,,,0,0,0,,,,0,,,69,0
106032,note_on,,,,,0,0,0,,,,0,,,72,0
106036,note_on,,,,,4,0,0,,,,3,,,69,0
106080,note_on,,,,,44,0,0,,,,2,,,84,92
106200,note_on,,,,,120,0,0,,,,2,,,84,0
106200,note_on,,,,,0,0,0,,,,2,,,83,92
106280,note_on,,,,,80,0,0,,,,2,,,83,0
106320,note_on,,,,,40,0,0,,,,0,,,72,65
106320,note_on,,,,,0,0,0,,,,0,,,69,65
106320,note_on,,,,,0,0,0,,,,0,,,57,88
106320,note_on,,,,,0,0,0,,,,2,,,84,92
106416,note_on,,,,,96,0,0,,,,2,,,84,0
106440,note_on,,,,,24,0,0,,,,2,,,81,92
106536,note_on,,,,,96,0,0,,,,2,,,81,0
106536,note_on,,,,,0,0,0,,,,0,,,57,0
106536,note_on,,,,,0,0,0,,,,0,,,69,0
106536,note_on,,,,,0,0,0,,,,0,,,72,0
106560,note_on,,,,,24,0,0,,,,0,,,64,65
106560,note_on,,,,,0,0,0,,,,0,,,71,65
106560,note_on,,,,,0,0,0,,,,0,,,76,65
106560,note_on,,,,,0,0,0,,,,0,,,56,88
106560,note_on,,,,,0,0,0,,,,2,,,83,92
106678,note_on,,,,,118,0,0,,,,2,,,83,0
106680,note_on,,,,,2,0,0,,,,2,,,81,92
106740,note_on,,,,,60,0,0,,,,2,,,81,0
106800,note_on,,,,,60,0,0,,,,2,,,80,92
106868,note_on,,,,,68,0,0,,,,2,,,80,0
106920,note_on,,,,,52,0,0,,,,2,,,78,92
106980,note_on,,,,,60,0,0,,,,2,,,78,0
107040,note_on,,,,,60,0,0,,,,2,,,76,92
107106,note_on,,,,,66,0,0,,,,2,,,76,0
107160,note_on,,,,,54,0,0,,,,2,,,74,92
107224,note_on,,,,,64,0,0,,,,2,,,74,0
107280,note_on,,,,,56,0,0,,,,2,,,72,92
107356,note_on,,,,,76,0,0,,,,2,,,72,0
107400,note_on,,,,,44,0,0,,,,2,,,71,92
107424,note_on,,,,,24,0,0,,,,0,,,56,0
107424,note_on,,,,,0,0,0,,,,0,,,76,0
107424,note_on,,,,,0,0,0,,,,0,,,71,0
107424,note_on,,,,,0,0,0,,,,0,,,64,0
107451,note_on,,,,,27,0,0,,,,2,,,71,0
107520,note_on,,,,,69,0,0,,,,0,,,64,65
107520,note_on,,,,,0,0,0,,,,0,,,69,65
107520,note_on,,,,,0,0,0,,,,0,,,57,88
107520,note_on,,,,,0,0,0,,,,2,,,72,92
107520,note_on,,,,,0,0,0,,,,3,,,76,88
107588,note_on,,,,,68,0,0,,,,3,,,76,0
107640,note_on,,,,,52,0,0,,,,3,,,81,88
107719,note_on,,,,,79,0,0,,,,2,,,72,0
107736,note_on,,,,,17,0,0,,,,0,,,57,0
107760,note_on,,,,,24,0,0,,,,0,,,61,88
107760,note_on,,,,,0,0,0,,,,2,,,69,92
107760,note_on,,,,,0,0,0,,,,3,,,79,88
107770,note_on,,,,,10,0,0,,,,3,,,81,0
107880,note_on,,,,,110,0,0,,,,3,,,81,88
107890,note_on,,,,,10,0,0,,,,3,,,79,0
107956,note_on,,,,,66,0,0,,,,2,,,69,0
107960,note_on,,,,,4,0,0,,,,3,,,81,0
107976,note_on,,,,,16,0,0,,,,0,,,61,0
108000,note_on,,,,,24,0,0,,,,0,,,61,88
108000,note_on,,,,,0,0,0,,,,3,,,76,88
108068,note_on,,,,,68,0,0,,,,3,,,76,0
108120,note_on,,,,,52,0,0,,,,3,,,81,88
108216,note_on,,,,,96,0,0,,,,0,,,61,0
108240,note_on,,,,,24,0,0,,,,0,,,61,88
108240,note_on,,,,,0,0,0,,,,3,,,79,88
108250,note_on,,,,,10,0,0,,,,3,,,81,0
108360,note_on,,,,,110,0,0,,,,3,,,81,88
108370,note_on,,,,,10,0,0,,,,3,,,79,0
108384,note_on,,,,,14,0,0,,,,0,,,69,0
108384,note_on,,,,,0,0,0,,,,0,,,64,0
108440,note_on,,,,,56,0,0,,,,3,,,81,0
108456,note_on,,,,,16,0,0,,,,0,,,61,0
108480,note_on,,,,,24,0,0,,,,0,,,65,65
108480,note_on,,,,,0,0,0,,,,0,,,74,65
108480,note_on,,,,,0,0,0,,,,0,,,62,88
108480,note_on,,,,,0,0,0,,,,2,,,69,92
108484,note_on,,,,,4,0,0,,,,3,,,77,88
108538,note_on,,,,,54,0,0,,,,3,,,77,0
108540,note_on,,,,,2,0,0,,,,3,,,79,88
108564,note_on,,,,,24,0,0,,,,2,,,69,0
108594,note_on,,,,,30,0,0,,,,3,,,79,0
108596,note_on,,,,,2,0,0,,,,3,,,77,88
108600,note_on,,,,,4,0,0,,,,2,,,74,92
108650,note_on,,,,,50,0,0,,,,3,,,77,0
108652,note_on,,,,,2,0,0,,,,3,,,79,88
108696,note_on,,,,,44,0,0,,,,0,,,62,0
108706,note_on,,,,,10,0,0,,,,3,,,79,0
108716,note_on,,,,,10,0,0,,,,3,,,77,88
108720,note_on,,,,,4,0,0,,,,0,,,62,88
108720,note_on,,,,,0,0,0,,,,2,,,72,92
108729,note_on,,,,,9,0,0,,,,2,,,74,0
108770,note_on,,,,,41,0,0,,,,3,,,77,0
108772,note_on,,,,,2,0,0,,,,3,,,79,88
108826,note_on,,,,,54,0,0,,,,3,,,79,0
108838,note_on,,,,,12,0,0,,,,3,,,77,88
108840,note_on,,,,,2,0,0,,,,2,,,74,92
108847,note_on,,,,,7,0,0,,,,2,,,72,0
108892,note_on,,,,,45,0,0,,,,3,,,77,0
108894,note_on,,,,,2,0,0,,,,3,,,79,88
108920,note_on,,,,,26,0,0,,,,2,,,74,0
108936,note_on,,,,,16,0,0,,,,0,,,62,0
108948,note_on,,,,,12,0,0,,,,3,,,79,0
108956,note_on,,,,,8,0,0,,,,3,,,77,88
108960,note_on,,,,,4,0,0,,,,0,,,62,88
108960,note_on,,,,,0,0,0,,,,2,,,69,92
109010,note_on,,,,,50,0,0,,,,3,,,77,0
109012,note_on,,,,,2,0,0,,,,3,,,79,88
109036,note_on,,,,,24,0,0,,,,2,,,69,0
109066,note_on,,,,,30,0,0,,,,3,,,79,0
109068,note_on,,,,,2,0,0,,,,3,,,77,88
109080,note_on,,,,,12,0,0,,,,2,,,74,92
109122,note_on,,,,,42,0,0,,,,3,,,77,0
109124,note_on,,,,,2,0,0,,,,3,,,79,88
109176,note_on,,,,,52,0,0,,,,0,,,62,0
109178,note_on,,,,,2,0,0,,,,3,,,79,0
109188,note_on,,,,,10,0,0,,,,3,,,77,88
109200,note_on,,,,,12,0,0,,,,0,,,62,88
109200,note_on,,,,,0,0,0,,,,2,,,72,92
109208,note_on,,,,,8,0,0,,,,2,,,74,0
109242,note_on,,,,,34,0,0,,,,3,,,77,0
109244,note_on,,,,,2,0,0,,,,3,,,79,88
109298,note_on,,,,,54,0,0,,,,3,,,79,0
109309,note_on,,,,,11,0,0,,,,2,,,72,0
109310,note_on,,,,,1,0,0,,,,3,,,77,88
109320,note_on,,,,,10,0,0,,,,2,,,74,92
109344,note_on,,,,,24,0,0,,,,0,,,74,0
109344,note_on,,,,,0,0,0,,,,0,,,65,0
109364,note_on,,,,,20,0,0,,,,3,,,77,0
109366,note_on,,,,,2,0,0,,,,3,,,79,88
109392,note_on,,,,,26,0,0,,,,2,,,74,0
109416,note_on,,,,,24,0,0,,,,0,,,62,0
109420,note_on,,,,,4,0,0,,,,3,,,79,0
109440,note_on,,,,,20,0,0,,,,0,,,62,65
109440,note_on,,,,,0,0,0,,,,0,,,71,65
109440,note_on,,,,,0,0,0,,,,0,,,55,88
109440,note_on,,,,,0,0,0,,,,2,,,71,92
109444,note_on,,,,,4,0,0,,,,3,,,74,88
109489,note_on,,,,,45,0,0,,,,2,,,71,0
109506,note_on,,,,,17,0,0,,,,2,,,72,92
109510,note_on,,,,,4,0,0,,,,3,,,74,0
109554,note_on,,,,,44,0,0,,,,2,,,72,0
109554,note_on,,,,,0,0,0,,,,2,,,71,92
109564,note_on,,,,,10,0,0,,,,3,,,79,88
109603,note_on,,,,,39,0,0,,,,2,,,71,0
109620,note_on,,,,,17,0,0,,,,2,,,72,92
109656,note_on,,,,,36,0,0,,,,0,,,55,0
109668,note_on,,,,,12,0,0,,,,2,,,72,0
109678,note_on,,,,,10,0,0,,,,2,,,71,92
109680,note_on,,,,,2,0,0,,,,0,,,55,88
109684,note_on,,,,,4,0,0,,,,3,,,77,88
109690,note_on,,,,,6,0,0,,,,3,,,79,0
109727,note_on,,,,,37,0,0,,,,2,,,71,0
109744,note_on,,,,,17,0,0,,,,2,,,72,92
109792,note_on,,,,,48,0,0,,,,2,,,72,0
109798,note_on,,,,,6,0,0,,,,2,,,71,92
109804,note_on,,,,,6,0,0,,,,3,,,79,88
109810,note_on,,,,,6,0,0,,,,3,,,77,0
109847,note_on,,,,,37,0,0,,,,2,,,71,0
109864,note_on,,,,,17,0,0,,,,2,,,72,92
109870,note_on,,,,,6,0,0,,,,3,,,79,0
109896,note_on,,,,,26,0,0,,,,0,,,55,0
109912,note_on,,,,,16,0,0,,,,2,,,72,0
109920,note_on,,,,,8,0,0,,,,0,,,55,88
109922,note_on,,,,,2,0,0,,,,2,,,71,92
109924,note_on,,,,,2,0,0,,,,3,,,74,88
109971,note_on,,,,,47,0,0,,,,2,,,71,0
109988,note_on,,,,,17,0,0,,,,2,,,72,92
109990,note_on,,,,,2,0,0,,,,3,,,74,0
110036,note_on,,,,,46,0,0,,,,2,,,72,0
110036,note_on,,,,,0,0,0,,,,2,,,71,92
110044,note_on,,,,,8,0,0,,,,3,,,79,88
110085,note_on,,,,,41,0,0,,,,2,,,71,0
110102,note_on,,,,,17,0,0,,,,2,,,72,92
110136,note_on,,,,,34,0,0,,,,0,,,55,0
110150,note_on,,,,,14,0,0,,,,2,,,72,0
110160,note_on,,,,,10,0,0,,,,0,,,55,88
110160,note_on,,,,,0,0,0,,,,2,,,71,92
110164,note_on,,,,,4,0,0,,,,3,,,77,88
110170,note_on,,,,,6,0,0,,,,3,,,79,0
110209,note_on,,,,,39,0,0,,,,2,,,71,0
110226,note_on,,,,,17,0,0,,,,2,,,72,92
110274,note_on,,,,,48,0,0,,,,2,,,72,0
110280,note_on,,,,,6,0,0,,,,2,,,71,92
110284,note_on,,,,,4,0,0,,,,3,,,79,88
110290,note_on,,,,,6,0,0,,,,3,,,77,0
110304,note_on,,,,,14,0,0,,,,0,,,71,0
110304,note_on,,,,,0,0,0,,,,0,,,62,0
110329,note_on,,,,,25,0,0,,,,2,,,71,0
110346,note_on,,,,,17,0,0,,,,2,,,72,92
110350,note_on,,,,,4,0,0,,,,3,,,79,0
110376,note_on,,,,,26,0,0,,,,0,,,55,0
110394,note_on,,,,,18,0,0,,,,2,,,72,0
110400,note_on,,,,,6,0,0,,,,0,,,64,65
110400,note_on,,,,,0,0,0,,,,0,,,72,65
110400,note_on,,,,,0,0,0,,,,0,,,60,88
110400,note_on,,,,,0,0,0,,,,2,,,67,92
110408,note_on,,,,,8,0,0,,,,3,,,76,88
110462,note_on,,,,,54,0,0,,,,3,,,76,0
110464,note_on,,,,,2,0,0,,,,3,,,77,88
110488,note_on,,,,,24,0,0,,,,2,,,67,0
110518,note_on,,,,,30,0,0,,,,3,,,77,0
110520,note_on,,,,,2,0,0,,,,2,,,72,92
110520,note_on,,,,,0,0,0,,,,3,,,76,88
110574,note_on,,,,,54,0,0,,,,3,,,76,0
110576,note_on,,,,,2,0,0,,,,3,,,77,88
110616,note_on,,,,,40,0,0,,,,0,,,60,0
110630,note_on,,,,,14,0,0,,,,3,,,77,0
110640,note_on,,,,,10,0,0,,,,0,,,60,88
110640,note_on,,,,,0,0,0,,,,2,,,71,92
110640,note_on,,,,,0,0,0,,,,3,,,76,88
110649,note_on,,,,,9,0,0,,,,2,,,72,0
110694,note_on,,,,,45,0,0,,,,3,,,76,0
110696,note_on,,,,,2,0,0,,,,3,,,77,88
110750,note_on,,,,,54,0,0,,,,3,,,77,0
110760,note_on,,,,,10,0,0,,,,2,,,72,92
110762,note_on,,,,,2,0,0,,,,3,,,76,88
110769,note_on,,,,,7,0,0,,,,2,,,71,0
110816,note_on,,,,,47,0,0,,,,3,,,76,0
110818,note_on,,,,,2,0,0,,,,3,,,77,88
110848,note_on,,,,,30,0,0,,,,2,,,72,0
110856,note_on,,,,,8,0,0,,,,0,,,60,0
110872,note_on,,,,,16,0,0,,,,3,,,77,0
110880,note_on,,,,,8,0,0,,,,0,,,60,88
110880,note_on,,,,,0,0,0,,,,2,,,67,92
110880,note_on,,,,,0,0,0,,,,3,,,76,88
110934,note_on,,,,,54,0,0,,,,3,,,76,0
110936,note_on,,,,,2,0,0,,,,3,,,77,88
110976,note_on,,,,,40,0,0,,,,2,,,67,0
110990,note_on,,,,,14,0,0,,,,3,,,77,0
110992,note_on,,,,,2,0,0,,,,3,,,76,88
111000,note_on,,,,,8,0,0,,,,2,,,72,92
111046,note_on,,,,,46,0,0,,,,3,,,76,0
111048,note_on,,,,,2,0,0,,,,3,,,77,88
111096,note_on,,,,,48,0,0,,,,0,,,60,0
111102,note_on,,,,,6,0,0,,,,3,,,77,0
111112,note_on,,,,,10,0,0,,,,3,,,76,88
111120,note_on,,,,,8,0,0,,,,0,,,60,88
111120,note_on,,,,,0,0,0,,,,2,,,71,92
111130,note_on,,,,,10,0,0,,,,2,,,72,0
111166,note_on,,,,,36,0,0,,,,3,,,76,0
111168,note_on,,,,,2,0,0,,,,3,,,77,88
111222,note_on,,,,,54,0,0,,,,3,,,77,0
111234,note_on,,,,,12,0,0,,,,3,,,76,88
111240,note_on,,,,,6,0,0,,,,2,,,72,92
111243,note_on,,,,,3,0,0,,,,2,,,71,0
111264,note_on,,,,,21,0,0,,,,0,,,72,0
111264,note_on,,,,,0,0,0,,,,0,,,64,0
111288,note_on,,,,,24,0,0,,,,3,,,76,0
111290,note_on,,,,,2,0,0,,,,3,,,77,88
111303,note_on,,,,,13,0,0,,,,2,,,72,0
111336,note_on,,,,,33,0,0,,,,0,,,60,0
111344,note_on,,,,,8,0,0,,,,3,,,77,0
111360,note_on,,,,,16,0,0,,,,0,,,60,65
111360,note_on,,,,,0,0,0,,,,0,,,69,65
111360,note_on,,,,,0,0,0,,,,0,,,53,88
111360,note_on,,,,,0,0,0,,,,2,,,69,92
111364,note_on,,,,,4,0,0,,,,3,,,72,88
111411,note_on,,,,,47,0,0,,,,2,,,69,0
111414,note_on,,,,,3,0,0,,,,2,,,71,92
111428,note_on,,,,,14,0,0,,,,3,,,72,0
111474,note_on,,,,,46,0,0,,,,2,,,71,0
111480,note_on,,,,,6,0,0,,,,2,,,69,92
111484,note_on,,,,,4,0,0,,,,3,,,77,88
111531,note_on,,,,,47,0,0,,,,2,,,69,0
111534,note_on,,,,,3,0,0,,,,2,,,71,92
111576,note_on,,,,,42,0,0,,,,0,,,53,0
111594,note_on,,,,,18,0,0,,,,2,,,71,0
111598,note_on,,,,,4,0,0,,,,2,,,69,92
111600,note_on,,,,,2,0,0,,,,0,,,53,88
111604,note_on,,,,,4,0,0,,,,3,,,76,88
111614,note_on,,,,,10,0,0,,,,3,,,77,0
111649,note_on,,,,,35,0,0,,,,2,,,69,0
111652,note_on,,,,,3,0,0,,,,2,,,71,92
111712,note_on,,,,,60,0,0,,,,2,,,71,0
111718,note_on,,,,,6,0,0,,,,2,,,69,92
111724,note_on,,,,,6,0,0,,,,3,,,77,88
111734,note_on,,,,,10,0,0,,,,3,,,76,0
111769,note_on,,,,,35,0,0,,,,2,,,69,0
111772,note_on,,,,,3,0,0,,,,2,,,71,92
111788,note_on,,,,,16,0,0,,,,3,,,77,0
111816,note_on,,,,,28,0,0,,,,0,,,53,0
111832,note_on,,,,,16,0,0,,,,2,,,71,0
111838,note_on,,,,,6,0,0,,,,2,,,69,92
111840,note_on,,,,,2,0,0,,,,0,,,53,88
111844,note_on,,,,,4,0,0,,,,3,,,72,88
111889,note_on,,,,,45,0,0,,,,2,,,69,0
111892,note_on,,,,,3,0,0,,,,2,,,71,92
111908,note_on,,,,,16,0,0,,,,3,,,72,0
111952,note_on,,,,,44,0,0,,,,2,,,71,0
111958,note_on,,,,,6,0,0,,,,2,,,69,92
111964,note_on,,,,,6,0,0,,,,3,,,77,88
112009,note_on,,,,,45,0,0,,,,2,,,69,0
112012,note_on,,,,,3,0,0,,,,2,,,71,92
112056,note_on,,,,,44,0,0,,,,0,,,53,0
112072,note_on,,,,,16,0,0,,,,2,,,71,0
112076,note_on,,,,,4,0,0,,,,2,,,69,92
112080,note_on,,,,,4,0,0,,,,0,,,53,88
112084,note_on,,,,,4,0,0,,,,3,,,76,88
112094,note_on,,,,,10,0,0,,,,3,,,77,0
112127,note_on,,,,,33,0,0,,,,2,,,69,0
112130,note_on,,,,,3,0,0,,,,2,,,71,92
112190,note_on,,,,,60,0,0,,,,2,,,71,0
112196,note_on,,,,,6,0,0,,,,2,,,69,92
112204,note_on,,,,,8,0,0,,,,3,,,77,88
112214,note_on,,,,,10,0,0,,,,3,,,76,0
112224,note_on,,,,,10,0,0,,,,0,,,69,0
112224,note_on,,,,,0,0,0,,,,0,,,60,0
112247,note_on,,,,,23,0,0,,,,2,,,69,0
112250,note_on,,,,,3,0,0,,,,2,,,71,92
112268,note_on,,,,,18,0,0,,,,3,,,77,0
112296,note_on,,,,,28,0,0,,,,0,,,53,0
112310,note_on,,,,,14,0,0,,,,2,,,71,0
112320,note_on,,,,,10,0,0,,,,0,,,59,65
112320,note_on,,,,,0,0,0,,,,0,,,62,65
112320,note_on,,,,,0,0,0,,,,0,,,55,88
112320,note_on,,,,,0,0,0,,,,2,,,71,92
112320,note_on,,,,,0,0,0,,,,3,,,74,88
112428,note_on,,,,,108,0,0,,,,3,,,74,0
112434,note_on,,,,,6,0,0,,,,2,,,69,92
112440,note_on,,,,,6,0,0,,,,3,,,72,88
112444,note_on,,,,,4,0,0,,,,2,,,71,0
112468,note_on,,,,,24,0,0,,,,0,,,62,0
112468,note_on,,,,,0,0,0,,,,0,,,59,0
112536,note_on,,,,,68,0,0,,,,0,,,55,0
112540,note_on,,,,,4,0,0,,,,2,,,69,0
112548,note_on,,,,,8,0,0,,,,3,,,72,0
112560,note_on,,,,,12,0,0,,,,0,,,43,88
112560,note_on,,,,,0,0,0,,,,2,,,71,92
112560,note_on,,,,,0,0,0,,,,3,,,74,88
112700,note_on,,,,,140,0,0,,,,3,,,74,0
112732,note_on,,,,,32,0,0,,,,2,,,71,0
112776,note_on,,,,,44,0,0,,,,0,,,43,0
112800,note_on,,,,,24,0,0,,,,0,,,62,89
112800,note_on,,,,,0,0,0,,,,0,,,59,89
112800,note_on,,,,,0,0,0,,,,0,,,43,88
112908,note_on,,,,,108,0,0,,,,0,,,59,0
112908,note_on,,,,,0,0,0,,,,0,,,62,0
112920,note_on,,,,,12,0,0,,,,0,,,60,89
112920,note_on,,,,,0,0,0,,,,0,,,57,89
113016,note_on,,,,,96,0,0,,,,0,,,43,0
113028,note_on,,,,,12,0,0,,,,0,,,57,0
113028,note_on,,,,,0,0,0,,,,0,,,60,0
113036,note_on,,,,,8,0,0,,,,2,,,74,92
113040,note_on,,,,,4,0,0,,,,0,,,62,89
113040,note_on,,,,,0,0,0,,,,0,,,59,89
113040,note_on,,,,,0,0,0,,,,0,,,43,88
113040,note_on,,,,,0,0,0,,,,3,,,77,88
113180,note_on,,,,,140,0,0,,,,0,,,59,0
113180,note_on,,,,,0,0,0,,,,0,,,62,0
113232,note_on,,,,,52,0,0,,,,2,,,74,0
113256,note_on,,,,,24,0,0,,,,3,,,77,0
113256,note_on,,,,,0,0,0,,,,0,,,43,0
113278,note_on,,,,,22,0,0,,,,2,,,72,92
113280,note_on,,,,,2,0,0,,,,0,,,60,89
113280,note_on,,,,,0,0,0,,,,0,,,64,89
113280,note_on,,,,,0,0,0,,,,0,,,43,88
113280,note_on,,,,,0,0,0,,,,3,,,76,88
113388,note_on,,,,,108,0,0,,,,3,,,76,0
113400,note_on,,,,,12,0,0,,,,2,,,71,92
113400,note_on,,,,,0,0,0,,,,3,,,74,88
113416,note_on,,,,,16,0,0,,,,0,,,64,0
113416,note_on,,,,,0,0,0,,,,0,,,60,0
113424,note_on,,,,,8,0,0,,,,2,,,72,0
113496,note_on,,,,,72,0,0,,,,0,,,43,0
113508,note_on,,,,,12,0,0,,,,3,,,74,0
113512,note_on,,,,,4,0,0,,,,2,,,71,0
113520,note_on,,,,,8,0,0,,,,0,,,43,88
113520,note_on,,,,,0,0,0,,,,2,,,72,92
113520,note_on,,,,,0,0,0,,,,3,,,76,88
113660,note_on,,,,,140,0,0,,,,3,,,76,0
113668,note_on,,,,,8,0,0,,,,2,,,72,0
113736,note_on,,,,,68,0,0,,,,0,,,43,0
113760,note_on,,,,,24,0,0,,,,0,,,64,85
113760,note_on,,,,,0,0,0,,,,0,,,60,85
113760,note_on,,,,,0,0,0,,,,0,,,43,88
113868,note_on,,,,,108,0,0,,,,0,,,60,0
113868,note_on,,,,,0,0,0,,,,0,,,64,0
113880,note_on,,,,,12,0,0,,,,0,,,62,85
113880,note_on,,,,,0,0,0,,,,0,,,59,85
113976,note_on,,,,,96,0,0,,,,0,,,43,0
113988,note_on,,,,,12,0,0,,,,0,,,59,0
113988,note_on,,,,,0,0,0,,,,0,,,62,0
113996,note_on,,,,,8,0,0,,,,2,,,76,92
114000,note_on,,,,,4,0,0,,,,0,,,64,85
114000,note_on,,,,,0,0,0,,,,0,,,60,85
114000,note_on,,,,,0,0,0,,,,0,,,43,88
114000,note_on,,,,,0,0,0,,,,3,,,79,88
114120,note_on,,,,,120,0,0,,,,0,,,60,0
114120,note_on,,,,,0,0,0,,,,0,,,64,0
114124,note_on,,,,,4,0,0,,,,2,,,76,0
114216,note_on,,,,,92,0,0,,,,3,,,79,0
114216,note_on,,,,,0,0,0,,,,0,,,43,0
114240,note_on,,,,,24,0,0,,,,0,,,62,85
114240,note_on,,,,,0,0,0,,,,0,,,65,85
114240,note_on,,,,,0,0,0,,,,0,,,43,88
114240,note_on,,,,,0,0,0,,,,2,,,74,92
114240,note_on,,,,,0,0,0,,,,3,,,77,88
114348,note_on,,,,,108,0,0,,,,3,,,77,0
114356,note_on,,,,,8,0,0,,,,2,,,72,92
114360,note_on,,,,,4,0,0,,,,3,,,76,88
114364,note_on,,,,,4,0,0,,,,2,,,74,0
114368,note_on,,,,,4,0,0,,,,0,,,65,0
114368,note_on,,,,,0,0,0,,,,0,,,62,0
114456,note_on,,,,,88,0,0,,,,0,,,43,0
114460,note_on,,,,,4,0,0,,,,2,,,72,0
114468,note_on,,,,,8,0,0,,,,3,,,76,0
114476,note_on,,,,,8,0,0,,,,2,,,74,92
114480,note_on,,,,,4,0,0,,,,0,,,43,88
114480,note_on,,,,,0,0,0,,,,3,,,77,88
114620,note_on,,,,,140,0,0,,,,3,,,77,0
114636,note_on,,,,,16,0,0,,,,2,,,74,0
114696,note_on,,,,,60,0,0,,,,0,,,43,0
114720,note_on,,,,,24,0,0,,,,0,,,65,89
114720,note_on,,,,,0,0,0,,,,0,,,62,89
114720,note_on,,,,,0,0,0,,,,0,,,43,88
114828,note_on,,,,,108,0,0,,,,0,,,62,0
114828,note_on,,,,,0,0,0,,,,0,,,65,0
114840,note_on,,,,,12,0,0,,,,0,,,64,89
114840,note_on,,,,,0,0,0,,,,0,,,60,89
114936,note_on,,,,,96,0,0,,,,0,,,43,0
114948,note_on,,,,,12,0,0,,,,0,,,60,0
114948,note_on,,,,,0,0,0,,,,0,,,64,0
114950,note_on,,,,,2,0,0,,,,2,,,77,92
114960,note_on,,,,,10,0,0,,,,0,,,65,89
114960,note_on,,,,,0,0,0,,,,0,,,62,89
114960,note_on,,,,,0,0,0,,,,0,,,43,88
114960,note_on,,,,,0,0,0,,,,3,,,81,88
115084,note_on,,,,,124,0,0,,,,0,,,62,0
115084,note_on,,,,,0,0,0,,,,0,,,65,0
115126,note_on,,,,,42,0,0,,,,2,,,77,0
115176,note_on,,,,,50,0,0,,,,3,,,81,0
115176,note_on,,,,,0,0,0,,,,0,,,43,0
115200,note_on,,,,,24,0,0,,,,0,,,64,89
115200,note_on,,,,,0,0,0,,,,0,,,67,89
115200,note_on,,,,,0,0,0,,,,0,,,43,88
115200,note_on,,,,,0,0,0,,,,2,,,76,92
115200,note_on,,,,,0,0,0,,,,3,,,79,88
115308,note_on,,,,,108,0,0,,,,3,,,79,0
115320,note_on,,,,,12,0,0,,,,2,,,74,92
115320,note_on,,,,,0,0,0,,,,3,,,77,88
115328,note_on,,,,,8,0,0,,,,2,,,76,0
115356,note_on,,,,,28,0,0,,,,0,,,67,0
115356,note_on,,,,,0,0,0,,,,0,,,64,0
115410,note_on,,,,,54,0,0,,,,2,,,74,0
115416,note_on,,,,,6,0,0,,,,0,,,43,0
115428,note_on,,,,,12,0,0,,,,3,,,77,0
115440,note_on,,,,,12,0,0,,,,0,,,43,88
115440,note_on,,,,,0,0,0,,,,2,,,76,92
115440,note_on,,,,,0,0,0,,,,3,,,79,88
115580,note_on,,,,,140,0,0,,,,3,,,79,0
115600,note_on,,,,,20,0,0,,,,2,,,76,0
115656,note_on,,,,,56,0,0,,,,0,,,43,0
115680,note_on,,,,,24,0,0,,,,0,,,71,65
115680,note_on,,,,,0,0,0,,,,0,,,67,65
115680,note_on,,,,,0,0,0,,,,0,,,43,88
115896,note_on,,,,,216,0,0,,,,0,,,43,0
115920,note_on,,,,,24,0,0,,,,0,,,43,88
115920,note_on,,,,,0,0,0,,,,2,,,74,92
115920,note_on,,,,,0,0,0,,,,3,,,77,88
116112,note_on,,,,,192,0,0,,,,0,,,67,0
116112,note_on,,,,,0,0,0,,,,0,,,71,0
116136,note_on,,,,,24,0,0,,,,0,,,43,0
116160,note_on,,,,,24,0,0,,,,3,,,77,0
116160,note_on,,,,,0,0,0,,,,2,,,74,0
116160,note_on,,,,,0,0,0,,,,0,,,72,65
116160,note_on,,,,,0,0,0,,,,0,,,64,65
116160,note_on,,,,,0,0,0,,,,0,,,43,88
116160,note_on,,,,,0,0,0,,,,2,,,72,92
116160,note_on,,,,,0,0,0,,,,3,,,76,88
116268,note_on,,,,,108,0,0,,,,3,,,76,0
116280,note_on,,,,,12,0,0,,,,2,,,71,92
116280,note_on,,,,,0,0,0,,,,3,,,74,88
116300,note_on,,,,,20,0,0,,,,2,,,72,0
116376,note_on,,,,,76,0,0,,,,0,,,43,0
116388,note_on,,,,,12,0,0,,,,3,,,74,0
116400,note_on,,,,,12,0,0,,,,0,,,43,88
116400,note_on,,,,,0,0,0,,,,2,,,72,92
116400,note_on,,,,,0,0,0,,,,3,,,76,88
116405,note_on,,,,,5,0,0,,,,2,,,71,0
116504,note_on,,,,,99,0,0,,,,2,,,72,0
116508,note_on,,,,,4,0,0,,,,3,,,76,0
116520,note_on,,,,,12,0,0,,,,2,,,74,92
116520,note_on,,,,,0,0,0,,,,3,,,77,88
116592,note_on,,,,,72,0,0,,,,0,,,72,0
116616,note_on,,,,,24,0,0,,,,0,,,43,0
116628,note_on,,,,,12,0,0,,,,3,,,77,0
116628,note_on,,,,,0,0,0,,,,2,,,74,0
116640,note_on,,,,,12,0,0,,,,0,,,67,65
116640,note_on,,,,,0,0,0,,,,0,,,43,88
116640,note_on,,,,,0,0,0,,,,2,,,76,92
116640,note_on,,,,,0,0,0,,,,3,,,79,88
116856,note_on,,,,,216,0,0,,,,0,,,43,0
116880,note_on,,,,,24,0,0,,,,0,,,43,88
116938,note_on,,,,,58,0,0,,,,2,,,76,0
117024,note_on,,,,,86,0,0,,,,0,,,64,0
117072,note_on,,,,,48,0,0,,,,3,,,79,0
117072,note_on,,,,,0,0,0,,,,0,,,67,0
117096,note_on,,,,,24,0,0,,,,0,,,43,0
117118,note_on,,,,,22,0,0,,,,2,,,74,92
117120,note_on,,,,,2,0,0,,,,0,,,65,65
117120,note_on,,,,,0,0,0,,,,0,,,74,65
117120,note_on,,,,,0,0,0,,,,0,,,43,88
117120,note_on,,,,,0,0,0,,,,3,,,77,88
117228,note_on,,,,,108,0,0,,,,3,,,77,0
117238,note_on,,,,,10,0,0,,,,2,,,72,92
117240,note_on,,,,,2,0,0,,,,3,,,76,88
117254,note_on,,,,,14,0,0,,,,2,,,74,0
117336,note_on,,,,,82,0,0,,,,0,,,43,0
117348,note_on,,,,,12,0,0,,,,3,,,76,0
117356,note_on,,,,,8,0,0,,,,2,,,72,0
117358,note_on,,,,,2,0,0,,,,2,,,74,92
117360,note_on,,,,,2,0,0,,,,0,,,43,88
117360,note_on,,,,,0,0,0,,,,3,,,77,88
117468,note_on,,,,,108,0,0,,,,3,,,77,0
117473,note_on,,,,,5,0,0,,,,2,,,74,0
117478,note_on,,,,,5,0,0,,,,2,,,76,92
117480,note_on,,,,,2,0,0,,,,3,,,79,88
117552,note_on,,,,,72,0,0,,,,0,,,74,0
117572,note_on,,,,,20,0,0,,,,2,,,76,0
117576,note_on,,,,,4,0,0,,,,0,,,43,0
117588,note_on,,,,,12,0,0,,,,3,,,79,0
117598,note_on,,,,,10,0,0,,,,2,,,77,92
117600,note_on,,,,,2,0,0,,,,0,,,69,65
117600,note_on,,,,,0,0,0,,,,0,,,43,88
117600,note_on,,,,,0,0,0,,,,3,,,81,88
117816,note_on,,,,,216,0,0,,,,0,,,43,0
117840,note_on,,,,,24,0,0,,,,0,,,43,88
117984,note_on,,,,,144,0,0,,,,0,,,65,0
118008,note_on,,,,,24,0,0,,,,2,,,77,0
118032,note_on,,,,,24,0,0,,,,3,,,81,0
118032,note_on,,,,,0,0,0,,,,0,,,69,0
118056,note_on,,,,,24,0,0,,,,0,,,43,0
118078,note_on,,,,,22,0,0,,,,2,,,76,92
118080,note_on,,,,,2,0,0,,,,0,,,76,65
118080,note_on,,,,,0,0,0,,,,0,,,67,65
118080,note_on,,,,,0,0,0,,,,0,,,43,88
118080,note_on,,,,,0,0,0,,,,3,,,79,88
118184,note_on,,,,,104,0,0,,,,3,,,79,0
118198,note_on,,,,,14,0,0,,,,2,,,74,92
118200,note_on,,,,,2,0,0,,,,3,,,77,88
118220,note_on,,,,,20,0,0,,,,2,,,76,0
118296,note_on,,,,,76,0,0,,,,0,,,43,0
118304,note_on,,,,,8,0,0,,,,3,,,77,0
118310,note_on,,,,,6,0,0,,,,2,,,74,0
118318,note_on,,,,,8,0,0,,,,2,,,76,92
118320,note_on,,,,,2,0,0,,,,0,,,43,88
118320,note_on,,,,,0,0,0,,,,3,,,79,88
118424,note_on,,,,,104,0,0,,,,3,,,79,0
118427,note_on,,,,,3,0,0,,,,2,,,76,0
118438,note_on,,,,,11,0,0,,,,2,,,77,92
118440,note_on,,,,,2,0,0,,,,3,,,81,88
118512,note_on,,,,,72,0,0,,,,0,,,76,0
118536,note_on,,,,,24,0,0,,,,2,,,77,0
118536,note_on,,,,,0,0,0,,,,0,,,43,0
118544,note_on,,,,,8,0,0,,,,3,,,81,0
118560,note_on,,,,,16,0,0,,,,0,,,74,65
118560,note_on,,,,,0,0,0,,,,0,,,43,88
118560,note_on,,,,,0,0,0,,,,3,,,83,88
118564,note_on,,,,,4,0,0,,,,2,,,79,92
118776,note_on,,,,,212,0,0,,,,0,,,43,0
118800,note_on,,,,,24,0,0,,,,0,,,43,88
118897,note_on,,,,,97,0,0,,,,2,,,79,0
118944,note_on,,,,,47,0,0,,,,0,,,67,0
118992,note_on,,,,,48,0,0,,,,3,,,83,0
118992,note_on,,,,,0,0,0,,,,0,,,74,0
119016,note_on,,,,,24,0,0,,,,0,,,43,0
119038,note_on,,,,,22,0,0,,,,2,,,79,92
119040,note_on,,,,,2,0,0,,,,0,,,64,65
119040,note_on,,,,,0,0,0,,,,0,,,72,65
119040,note_on,,,,,0,0,0,,,,0,,,48,88
119040,note_on,,,,,0,0,0,,,,3,,,84,88
119164,note_on,,,,,124,0,0,,,,3,,,84,0
119280,note_on,,,,,116,0,0,,,,3,,,72,88
119371,note_on,,,,,91,0,0,,,,2,,,79,0
119404,note_on,,,,,33,0,0,,,,3,,,72,0
119472,note_on,,,,,68,0,0,,,,0,,,48,0
119472,note_on,,,,,0,0,0,,,,0,,,72,0
119472,note_on,,,,,0,0,0,,,,0,,,64,0
119520,note_on,,,,,48,0,0,,,,3,,,76,88
119644,note_on,,,,,124,0,0,,,,3,,,76,0
119760,note_on,,,,,116,0,0,,,,3,,,79,88
119884,note_on,,,,,124,0,0,,,,3,,,79,0
120000,note_on,,,,,116,0,0,,,,0,,,67,65
120000,note_on,,,,,0,0,0,,,,0,,,72,65
120000,note_on,,,,,0,0,0,,,,0,,,76,65
120000,note_on,,,,,0,0,0,,,,0,,,48,88
120000,note_on,,,,,0,0,0,,,,3,,,84,88
120216,note_on,,,,,216,0,0,,,,3,,,84,0
120234,note_on,,,,,18,0,0,,,,2,,,72,92
120240,note_on,,,,,6,0,0,,,,3,,,83,88
120348,note_on,,,,,108,0,0,,,,3,,,83,0
120360,note_on,,,,,12,0,0,,,,3,,,81,88
120363,note_on,,,,,3,0,0,,,,2,,,72,0
120432,note_on,,,,,69,0,0,,,,0,,,48,0
120432,note_on,,,,,0,0,0,,,,0,,,76,0
120432,note_on,,,,,0,0,0,,,,0,,,72,0
120432,note_on,,,,,0,0,0,,,,0,,,67,0
120468,note_on,,,,,36,0,0,,,,3,,,81,0
120478,note_on,,,,,10,0,0,,,,2,,,76,92
120480,note_on,,,,,2,0,0,,,,3,,,79,88
120588,note_on,,,,,108,0,0,,,,3,,,79,0
120595,note_on,,,,,7,0,0,,,,2,,,76,0
120600,note_on,,,,,5,0,0,,,,3,,,77,88
120708,note_on,,,,,108,0,0,,,,3,,,77,0
120714,note_on,,,,,6,0,0,,,,2,,,79,92
120720,note_on,,,,,6,0,0,,,,3,,,76,88
120828,note_on,,,,,108,0,0,,,,3,,,76,0
120830,note_on,,,,,2,0,0,,,,2,,,79,0
120840,note_on,,,,,10,0,0,,,,3,,,74,88
120948,note_on,,,,,108,0,0,,,,3,,,74,0
120960,note_on,,,,,12,0,0,,,,0,,,72,65
120960,note_on,,,,,0,0,0,,,,0,,,76,65
120960,note_on,,,,,0,0,0,,,,0,,,79,65
120960,note_on,,,,,0,0,0,,,,0,,,48,88
120960,note_on,,,,,0,0,0,,,,3,,,76,88
120964,note_on,,,,,4,0,0,,,,2,,,84,92
121100,note_on,,,,,136,0,0,,,,3,,,76,0
121122,note_on,,,,,22,0,0,,,,2,,,84,0
121200,note_on,,,,,78,0,0,,,,3,,,72,88
121202,note_on,,,,,2,0,0,,,,2,,,83,92
121284,note_on,,,,,82,0,0,,,,2,,,83,0
121322,note_on,,,,,38,0,0,,,,2,,,81,92
121340,note_on,,,,,18,0,0,,,,3,,,72,0
121392,note_on,,,,,52,0,0,,,,0,,,48,0
121392,note_on,,,,,0,0,0,,,,0,,,79,0
121392,note_on,,,,,0,0,0,,,,0,,,76,0
121392,note_on,,,,,0,0,0,,,,0,,,72,0
121399,note_on,,,,,7,0,0,,,,2,,,81,0
121440,note_on,,,,,41,0,0,,,,3,,,76,88
121442,note_on,,,,,2,0,0,,,,2,,,79,92
121508,note_on,,,,,66,0,0,,,,2,,,79,0
121564,note_on,,,,,56,0,0,,,,2,,,77,92
121580,note_on,,,,,16,0,0,,,,3,,,76,0
121638,note_on,,,,,58,0,0,,,,2,,,77,0
121680,note_on,,,,,42,0,0,,,,3,,,79,88
121682,note_on,,,,,2,0,0,,,,2,,,76,92
121758,note_on,,,,,76,0,0,,,,2,,,76,0
121804,note_on,,,,,46,0,0,,,,2,,,74,92
121820,note_on,,,,,16,0,0,,,,3,,,79,0
121873,note_on,,,,,53,0,0,,,,2,,,74,0
121920,note_on,,,,,47,0,0,,,,0,,,76,65
121920,note_on,,,,,0,0,0,,,,0,,,79,65
121920,note_on,,,,,0,0,0,,,,0,,,84,65
121920,note_on,,,,,0,0,0,,,,0,,,48,88
121920,note_on,,,,,0,0,0,,,,3,,,84,88
121926,note_on,,,,,6,0,0,,,,2,,,76,92
122100,note_on,,,,,174,0,0,,,,2,,,76,0
122136,note_on,,,,,36,0,0,,,,3,,,84,0
122160,note_on,,,,,24,0,0,,,,3,,,83,88
122166,note_on,,,,,6,0,0,,,,2,,,72,92
122268,note_on,,,,,102,0,0,,,,3,,,83,0
122280,note_on,,,,,12,0,0,,,,3,,,81,88
122346,note_on,,,,,66,0,0,,,,2,,,72,0
122352,note_on,,,,,6,0,0,,,,0,,,48,0
122352,note_on,,,,,0,0,0,,,,0,,,84,0
122352,note_on,,,,,0,0,0,,,,0,,,79,0
122352,note_on,,,,,0,0,0,,,,0,,,76,0
122388,note_on,,,,,36,0,0,,,,3,,,81,0
122398,note_on,,,,,10,0,0,,,,2,,,76,92
122400,note_on,,,,,2,0,0,,,,3,,,79,88
122508,note_on,,,,,108,0,0,,,,3,,,79,0
122520,note_on,,,,,12,0,0,,,,3,,,77,88
122592,note_on,,,,,72,0,0,,,,2,,,76,0
122628,note_on,,,,,36,0,0,,,,3,,,77,0
122634,note_on,,,,,6,0,0,,,,2,,,79,92
122640,note_on,,,,,6,0,0,,,,3,,,76,88
122748,note_on,,,,,108,0,0,,,,3,,,76,0
122760,note_on,,,,,12,0,0,,,,3,,,74,88
122794,note_on,,,,,34,0,0,,,,2,,,79,0
122868,note_on,,,,,74,0,0,,,,3,,,74,0
122880,note_on,,,,,12,0,0,,,,0,,,76,65
122880,note_on,,,,,0,0,0,,,,0,,,72,65
122880,note_on,,,,,0,0,0,,,,0,,,79,65
122880,note_on,,,,,0,0,0,,,,0,,,48,88
122886,note_on,,,,,6,0,0,,,,2,,,84,92
122886,note_on,,,,,0,0,0,,,,3,,,76,92
122952,note_on,,,,,66,0,0,,,,2,,,84,0
122956,note_on,,,,,4,0,0,,,,3,,,76,0
122996,note_on,,,,,40,0,0,,,,2,,,76,92
122996,note_on,,,,,0,0,0,,,,3,,,84,92
123096,note_on,,,,,100,0,0,,,,0,,,48,0
123116,note_on,,,,,20,0,0,,,,2,,,74,92
123116,note_on,,,,,0,0,0,,,,3,,,83,92
123120,note_on,,,,,4,0,0,,,,0,,,48,88
123124,note_on,,,,,4,0,0,,,,3,,,84,0
123124,note_on,,,,,0,0,0,,,,2,,,76,0
123231,note_on,,,,,107,0,0,,,,3,,,83,0
123231,note_on,,,,,0,0,0,,,,2,,,74,0
123242,note_on,,,,,11,0,0,,,,2,,,76,92
123242,note_on,,,,,0,0,0,,,,3,,,84,92
123312,note_on,,,,,70,0,0,,,,2,,,76,0
123312,note_on,,,,,0,0,0,,,,0,,,72,0
123312,note_on,,,,,0,0,0,,,,0,,,76,0
123336,note_on,,,,,24,0,0,,,,0,,,48,0
123360,note_on,,,,,24,0,0,,,,0,,,74,65
123360,note_on,,,,,0,0,0,,,,0,,,71,65
123360,note_on,,,,,0,0,0,,,,0,,,55,88
123362,note_on,,,,,2,0,0,,,,3,,,84,0
123362,note_on,,,,,0,0,0,,,,2,,,71,92
123362,note_on,,,,,0,0,0,,,,3,,,74,92
123432,note_on,,,,,70,0,0,,,,2,,,71,0
123436,note_on,,,,,4,0,0,,,,3,,,74,0
123484,note_on,,,,,48,0,0,,,,2,,,74,92
123484,note_on,,,,,0,0,0,,,,3,,,83,92
123576,note_on,,,,,92,0,0,,,,0,,,55,0
123580,note_on,,,,,4,0,0,,,,3,,,83,0
123580,note_on,,,,,0,0,0,,,,2,,,74,0
123598,note_on,,,,,18,0,0,,,,2,,,72,92
123598,note_on,,,,,0,0,0,,,,3,,,81,92
123600,note_on,,,,,2,0,0,,,,0,,,43,88
123707,note_on,,,,,107,0,0,,,,3,,,81,0
123707,note_on,,,,,0,0,0,,,,2,,,72,0
123712,note_on,,,,,5,0,0,,,,2,,,74,92
123712,note_on,,,,,0,0,0,,,,3,,,83,92
123744,note_on,,,,,32,0,0,,,,0,,,79,0
123788,note_on,,,,,44,0,0,,,,2,,,74,0
123792,note_on,,,,,4,0,0,,,,0,,,71,0
123792,note_on,,,,,0,0,0,,,,0,,,74,0
123816,note_on,,,,,24,0,0,,,,0,,,43,0
123818,note_on,,,,,2,0,0,,,,3,,,83,0
123838,note_on,,,,,20,0,0,,,,2,,,72,92
123838,note_on,,,,,0,0,0,,,,3,,,84,92
123840,note_on,,,,,2,0,0,,,,0,,,72,65
123840,note_on,,,,,0,0,0,,,,0,,,48,88
124056,note_on,,,,,216,0,0,,,,0,,,48,0
124080,note_on,,,,,24,0,0,,,,0,,,50,88
124264,note_on,,,,,184,0,0,,,,3,,,84,0
124264,note_on,,,,,0,0,0,,,,2,,,72,0
124272,note_on,,,,,8,0,0,,,,0,,,72,0
124296,note_on,,,,,24,0,0,,,,0,,,50,0
124320,note_on,,,,,24,0,0,,,,0,,,72,65
124320,note_on,,,,,0,0,0,,,,0,,,51,88
124536,note_on,,,,,216,0,0,,,,0,,,51,0
124560,note_on,,,,,24,0,0,,,,0,,,48,88
124752,note_on,,,,,192,0,0,,,,0,,,72,0
124776,note_on,,,,,24,0,0,,,,0,,,48,0
124800,note_on,,,,,24,0,0,,,,0,,,72,88
124800,note_on,,,,,0,0,0,,,,2,,,72,92
124800,note_on,,,,,0,0,0,,,,3,,,75,92
124804,note_on,,,,,4,0,0,,,,2,,,72,92
124888,note_on,,,,,84,0,0,,,,2,,,72,0
124928,note_on,,,,,40,0,0,,,,3,,,75,0
124952,note_on,,,,,24,0,0,,,,0,,,72,0
124956,note_on,,,,,4,0,0,,,,2,,,72,0
125040,note_on,,,,,84,0,0,,,,0,,,72,88
125040,note_on,,,,,0,0,0,,,,2,,,75,92
125040,note_on,,,,,0,0,0,,,,3,,,79,92
125192,note_on,,,,,152,0,0,,,,0,,,72,0
125280,note_on,,,,,88,0,0,,,,0,,,72,88
125432,note_on,,,,,152,0,0,,,,0,,,72,0
125520,note_on,,,,,88,0,0,,,,0,,,72,88
125672,note_on,,,,,152,0,0,,,,0,,,72,0
125678,note_on,,,,,6,0,0,,,,3,,,79,0
125678,note_on,,,,,0,0,0,,,,2,,,75,0
125760,note_on,,,,,82,0,0,,,,0,,,71,88
125760,note_on,,,,,0,0,0,,,,2,,,77,92
125760,note_on,,,,,0,0,0,,,,3,,,80,92
125876,note_on,,,,,116,0,0,,,,3,,,80,0
125884,note_on,,,,,8,0,0,,,,2,,,77,0
125912,note_on,,,,,28,0,0,,,,0,,,71,0
126000,note_on,,,,,88,0,0,,,,0,,,71,88
126000,note_on,,,,,0,0,0,,,,2,,,77,92
126000,note_on,,,,,0,0,0,,,,3,,,80,92
126152,note_on,,,,,152,0,0,,,,0,,,71,0
126240,note_on,,,,,88,0,0,,,,0,,,71,88
126331,note_on,,,,,91,0,0,,,,3,,,80,0
126331,note_on,,,,,0,0,0,,,,2,,,77,0
126392,note_on,,,,,61,0,0,,,,0,,,71,0
126480,note_on,,,,,88,0,0,,,,0,,,71,88
126480,note_on,,,,,0,0,0,,,,2,,,75,92
126480,note_on,,,,,0,0,0,,,,3,,,79,92
126600,note_on,,,,,120,0,0,,,,2,,,74,92
126600,note_on,,,,,0,0,0,,,,3,,,77,92
126616,note_on,,,,,16,0,0,,,,3,,,79,0
126616,note_on,,,,,0,0,0,,,,2,,,75,0
126632,note_on,,,,,16,0,0,,,,0,,,71,0
126720,note_on,,,,,88,0,0,,,,0,,,72,88
126720,note_on,,,,,0,0,0,,,,2,,,72,92
126720,note_on,,,,,0,0,0,,,,3,,,75,92
126734,note_on,,,,,14,0,0,,,,3,,,77,0
126734,note_on,,,,,0,0,0,,,,2,,,74,0
126852,note_on,,,,,118,0,0,,,,2,,,72,0
126872,note_on,,,,,20,0,0,,,,0,,,72,0
126876,note_on,,,,,4,0,0,,,,3,,,75,0
126960,note_on,,,,,84,0,0,,,,0,,,72,88
126960,note_on,,,,,0,0,0,,,,2,,,75,92
126960,note_on,,,,,0,0,0,,,,3,,,79,92
127112,note_on,,,,,152,0,0,,,,0,,,72,0
127200,note_on,,,,,88,0,0,,,,0,,,72,88
127352,note_on,,,,,152,0,0,,,,0,,,72,0
127440,note_on,,,,,88,0,0,,,,0,,,72,88
127592,note_on,,,,,152,0,0,,,,0,,,72,0
127680,note_on,,,,,88,0,0,,,,0,,,71,88
127680,note_on,,,,,0,0,0,,,,2,,,77,92
127680,note_on,,,,,0,0,0,,,,3,,,80,92
127688,note_on,,,,,8,0,0,,,,3,,,79,0
127688,note_on,,,,,0,0,0,,,,2,,,75,0
127816,note_on,,,,,128,0,0,,,,2,,,77,0
127824,note_on,,,,,8,0,0,,,,3,,,80,0
127840,note_on,,,,,16,0,0,,,,0,,,71,0
127920,note_on,,,,,80,0,0,,,,0,,,71,88
127920,note_on,,,,,0,0,0,,,,2,,,77,92
127920,note_on,,,,,0,0,0,,,,3,,,80,92
128080,note_on,,,,,160,0,0,,,,0,,,71,0
128160,note_on,,,,,80,0,0,,,,0,,,71,88
128302,note_on,,,,,142,0,0,,,,3,,,80,0
128302,note_on,,,,,0,0,0,,,,2,,,77,0
128320,note_on,,,,,18,0,0,,,,0,,,71,0
128400,note_on,,,,,80,0,0,,,,0,,,71,88
128400,note_on,,,,,0,0,0,,,,2,,,75,92
128400,note_on,,,,,0,0,0,,,,3,,,79,92
128520,note_on,,,,,120,0,0,,,,2,,,74,92
128520,note_on,,,,,0,0,0,,,,3,,,77,92
128523,note_on,,,,,3,0,0,,,,3,,,79,0
128523,note_on,,,,,0,0,0,,,,2,,,75,0
128616,note_on,,,,,93,0,0,,,,0,,,71,0
128632,note_on,,,,,16,0,0,,,,3,,,77,0
128640,note_on,,,,,8,0,0,,,,0,,,72,88
128640,note_on,,,,,0,0,0,,,,2,,,72,92
128640,note_on,,,,,0,0,0,,,,3,,,75,92
128648,note_on,,,,,8,0,0,,,,2,,,74,0
128760,note_on,,,,,112,0,0,,,,2,,,72,0
128852,note_on,,,,,92,0,0,,,,3,,,75,0
128856,note_on,,,,,4,0,0,,,,0,,,72,0
128880,note_on,,,,,24,0,0,,,,0,,,72,88
128880,note_on,,,,,0,0,0,,,,2,,,67,92
128880,note_on,,,,,0,0,0,,,,3,,,72,92
129000,note_on,,,,,120,0,0,,,,2,,,67,0
129056,note_on,,,,,56,0,0,,,,3,,,72,0
129096,note_on,,,,,40,0,0,,,,0,,,72,0
129120,note_on,,,,,24,0,0,,,,0,,,72,88
129120,note_on,,,,,0,0,0,,,,3,,,79,92
129336,note_on,,,,,216,0,0,,,,0,,,72,0
129360,note_on,,,,,24,0,0,,,,0,,,60,88
129360,note_on,,,,,0,0,0,,,,3,,,80,92
129388,note_on,,,,,28,0,0,,,,3,,,79,0
129528,note_on,,,,,140,0,0,,,,3,,,80,0
129576,note_on,,,,,48,0,0,,,,0,,,60,0
129600,note_on,,,,,24,0,0,,,,0,,,67,88
129600,note_on,,,,,0,0,0,,,,2,,,79,92
129600,note_on,,,,,0,0,0,,,,3,,,71,92
129816,note_on,,,,,216,0,0,,,,0,,,67,0
129840,note_on,,,,,24,0,0,,,,0,,,60,88
129840,note_on,,,,,0,0,0,,,,2,,,80,92
129840,note_on,,,,,0,0,0,,,,3,,,72,92
129848,note_on,,,,,8,0,0,,,,3,,,71,0
129860,note_on,,,,,12,0,0,,,,2,,,79,0
129976,note_on,,,,,116,0,0,,,,3,,,72,0
130040,note_on,,,,,64,0,0,,,,2,,,80,0
130056,note_on,,,,,16,0,0,,,,0,,,60,0
130080,note_on,,,,,24,0,0,,,,0,,,67,88
130080,note_on,,,,,0,0,0,,,,2,,,71,92
130080,note_on,,,,,0,0,0,,,,3,,,79,92
130296,note_on,,,,,216,0,0,,,,0,,,67,0
130320,note_on,,,,,24,0,0,,,,0,,,60,88
130320,note_on,,,,,0,0,0,,,,2,,,72,92
130320,note_on,,,,,0,0,0,,,,3,,,80,92
130328,note_on,,,,,8,0,0,,,,2,,,71,0
130340,note_on,,,,,12,0,0,,,,3,,,79,0
130536,note_on,,,,,196,0,0,,,,3,,,80,0
130536,note_on,,,,,0,0,0,,,,0,,,60,0
130560,note_on,,,,,24,0,0,,,,0,,,67,88
130560,note_on,,,,,0,0,0,,,,2,,,74,92
130560,note_on,,,,,0,0,0,,,,3,,,71,92
130610,note_on,,,,,50,0,0,,,,2,,,72,0
130776,note_on,,,,,166,0,0,,,,2,,,74,0
130776,note_on,,,,,0,0,0,,,,0,,,67,0
130784,note_on,,,,,8,0,0,,,,3,,,71,0
130800,note_on,,,,,16,0,0,,,,0,,,60,88
130800,note_on,,,,,0,0,0,,,,2,,,75,92
130800,note_on,,,,,0,0,0,,,,3,,,72,92
130967,note_on,,,,,167,0,0,,,,3,,,72,0
130967,note_on,,,,,0,0,0,,,,2,,,75,0
131016,note_on,,,,,49,0,0,,,,0,,,60,0
131040,note_on,,,,,24,0,0,,,,2,,,72,92
131040,note_on,,,,,0,0,0,,,,3,,,76,92
131160,note_on,,,,,120,0,0,,,,3,,,76,0
131160,note_on,,,,,0,0,0,,,,2,,,72,0
131160,note_on,,,,,0,0,0,,,,2,,,71,92
131160,note_on,,,,,0,0,0,,,,3,,,74,92
131277,note_on,,,,,117,0,0,,,,3,,,74,0
131277,note_on,,,,,0,0,0,,,,2,,,71,0
131280,note_on,,,,,3,0,0,,,,2,,,72,92
131280,note_on,,,,,0,0,0,,,,3,,,76,92
131374,note_on,,,,,94,0,0,,,,3,,,76,0
131374,note_on,,,,,0,0,0,,,,2,,,72,0
131400,note_on,,,,,26,0,0,,,,2,,,74,92
131400,note_on,,,,,0,0,0,,,,3,,,77,92
131520,note_on,,,,,120,0,0,,,,3,,,77,0
131520,note_on,,,,,0,0,0,,,,2,,,74,0
131520,note_on,,,,,0,0,0,,,,0,,,60,88
131520,note_on,,,,,0,0,0,,,,2,,,76,92
131520,note_on,,,,,0,0,0,,,,3,,,79,92
131942,note_on,,,,,422,0,0,,,,3,,,79,0
131942,note_on,,,,,0,0,0,,,,2,,,76,0
131952,note_on,,,,,10,0,0,,,,0,,,60,0
132000,note_on,,,,,48,0,0,,,,2,,,72,92
132000,note_on,,,,,0,0,0,,,,3,,,76,92
132120,note_on,,,,,120,0,0,,,,2,,,71,92
132120,note_on,,,,,0,0,0,,,,3,,,74,92
132122,note_on,,,,,2,0,0,,,,3,,,76,0
132122,note_on,,,,,0,0,0,,,,2,,,72,0
132240,note_on,,,,,118,0,0,,,,3,,,74,0
132240,note_on,,,,,0,0,0,,,,2,,,71,0
132240,note_on,,,,,0,0,0,,,,2,,,72,92
132240,note_on,,,,,0,0,0,,,,3,,,76,92
132360,note_on,,,,,120,0,0,,,,3,,,76,0
132360,note_on,,,,,0,0,0,,,,2,,,72,0
132360,note_on,,,,,0,0,0,,,,2,,,74,92
132360,note_on,,,,,0,0,0,,,,3,,,77,92
132480,note_on,,,,,120,0,0,,,,0,,,60,88
132480,note_on,,,,,0,0,0,,,,2,,,76,92
132480,note_on,,,,,0,0,0,,,,3,,,79,92
132483,note_on,,,,,3,0,0,,,,3,,,77,0
132483,note_on,,,,,0,0,0,,,,2,,,74,0
132696,note_on,,,,,213,0,0,,,,0,,,60,0
132704,note_on,,,,,8,0,0,,,,3,,,79,0
132704,note_on,,,,,0,0,0,,,,2,,,76,0
132720,note_on,,,,,16,0,0,,,,0,,,60,88
132720,note_on,,,,,0,0,0,,,,2,,,79,92
132720,note_on,,,,,0,0,0,,,,3,,,84,92
132936,note_on,,,,,216,0,0,,,,0,,,60,0
132960,note_on,,,,,24,0,0,,,,0,,,67,88
132960,note_on,,,,,0,0,0,,,,2,,,72,92
132960,note_on,,,,,0,0,0,,,,3,,,76,92
132981,note_on,,,,,21,0,0,,,,3,,,84,0
132981,note_on,,,,,0,0,0,,,,2,,,79,0
133176,note_on,,,,,195,0,0,,,,0,,,67,0
133181,note_on,,,,,5,0,0,,,,3,,,76,0
133181,note_on,,,,,0,0,0,,,,2,,,72,0
133200,note_on,,,,,19,0,0,,,,0,,,55,88
133200,note_on,,,,,0,0,0,,,,2,,,71,92
133200,note_on,,,,,0,0,0,,,,3,,,74,92
133416,note_on,,,,,216,0,0,,,,0,,,55,0
133440,note_on,,,,,24,0,0,,,,3,,,74,0
133440,note_on,,,,,0,0,0,,,,2,,,71,0
133440,note_on,,,,,0,0,0,,,,0,,,60,88
133440,note_on,,,,,0,0,0,,,,2,,,72,92
133440,note_on,,,,,0,0,0,,,,3,,,76,92
133872,note_on,,,,,432,0,0,,,,0,,,60,0
133981,note_on,,,,,109,0,0,,,,3,,,76,0
133981,note_on,,,,,0,0,0,,,,2,,,72,0
134400,note_on,,,,,419,0,0,,,,0,,,76,88
134400,note_on,,,,,0,0,0,,,,0,,,72,88
134400,note_on,,,,,0,0,0,,,,0,,,48,88
134616,note_on,,,,,216,0,0,,,,0,,,48,0
134620,note_on,,,,,4,0,0,,,,0,,,72,0
134620,note_on,,,,,0,0,0,,,,0,,,76,0
134640,note_on,,,,,20,0,0,,,,0,,,79,88
134640,note_on,,,,,0,0,0,,,,0,,,76,88
134640,note_on,,,,,0,0,0,,,,0,,,60,88
134750,note_on,,,,,110,0,0,,,,0,,,76,0
134750,note_on,,,,,0,0,0,,,,0,,,79,0
134760,note_on,,,,,10,0,0,,,,0,,,77,88
134760,note_on,,,,,0,0,0,,,,0,,,74,88
134856,note_on,,,,,96,0,0,,,,0,,,60,0
134870,note_on,,,,,14,0,0,,,,0,,,74,0
134870,note_on,,,,,0,0,0,,,,0,,,77,0
134880,note_on,,,,,10,0,0,,,,0,,,76,88
134880,note_on,,,,,0,0,0,,,,0,,,72,88
134880,note_on,,,,,0,0,0,,,,0,,,48,88
135096,note_on,,,,,216,0,0,,,,0,,,48,0
135100,note_on,,,,,4,0,0,,,,0,,,72,0
135100,note_on,,,,,0,0,0,,,,0,,,76,0
135120,note_on,,,,,20,0,0,,,,0,,,79,88
135120,note_on,,,,,0,0,0,,,,0,,,76,88
135120,note_on,,,,,0,0,0,,,,0,,,60,88
135230,note_on,,,,,110,0,0,,,,0,,,76,0
135230,note_on,,,,,0,0,0,,,,0,,,79,0
135240,note_on,,,,,10,0,0,,,,0,,,77,88
135240,note_on,,,,,0,0,0,,,,0,,,74,88
135336,note_on,,,,,96,0,0,,,,0,,,60,0
135350,note_on,,,,,14,0,0,,,,0,,,74,0
135350,note_on,,,,,0,0,0,,,,0,,,77,0
135360,note_on,,,,,10,0,0,,,,0,,,76,88
135360,note_on,,,,,0,0,0,,,,0,,,72,88
135360,note_on,,,,,0,0,0,,,,0,,,48,88
135576,note_on,,,,,216,0,0,,,,0,,,48,0
135580,note_on,,,,,4,0,0,,,,0,,,72,0
135580,note_on,,,,,0,0,0,,,,0,,,76,0
135600,note_on,,,,,20,0,0,,,,0,,,79,88
135600,note_on,,,,,0,0,0,,,,0,,,76,88
135600,note_on,,,,,0,0,0,,,,0,,,60,88
135816,note_on,,,,,216,0,0,,,,0,,,60,0
135820,note_on,,,,,4,0,0,,,,0,,,76,0
135820,note_on,,,,,0,0,0,,,,0,,,79,0
135840,note_on,,,,,20,0,0,,,,0,,,84,88
135840,note_on,,,,,0,0,0,,,,0,,,79,88
135840,note_on,,,,,0,0,0,,,,0,,,48,88
136056,note_on,,,,,216,0,0,,,,0,,,48,0
136060,note_on,,,,,4,0,0,,,,0,,,79,0
136060,note_on,,,,,0,0,0,,,,0,,,84,0
136080,note_on,,,,,20,0,0,,,,0,,,79,88
136080,note_on,,,,,0,0,0,,,,0,,,76,88
136080,note_on,,,,,0,0,0,,,,0,,,60,88
136296,note_on,,,,,216,0,0,,,,0,,,60,0
136300,note_on,,,,,4,0,0,,,,0,,,76,0
136300,note_on,,,,,0,0,0,,,,0,,,79,0
136320,note_on,,,,,20,0,0,,,,0,,,76,88
136320,note_on,,,,,0,0,0,,,,0,,,72,88
136320,note_on,,,,,0,0,0,,,,0,,,48,88
136536,note_on,,,,,216,0,0,,,,0,,,48,0
136540,note_on,,,,,4,0,0,,,,0,,,72,0
136540,note_on,,,,,0,0,0,,,,0,,,76,0
136560,note_on,,,,,20,0,0,,,,0,,,79,88
136560,note_on,,,,,0,0,0,,,,0,,,76,88
136560,note_on,,,,,0,0,0,,,,0,,,60,88
136670,note_on,,,,,110,0,0,,,,0,,,76,0
136670,note_on,,,,,0,0,0,,,,0,,,79,0
136680,note_on,,,,,10,0,0,,,,0,,,77,88
136680,note_on,,,,,0,0,0,,,,0,,,74,88
136776,note_on,,,,,96,0,0,,,,0,,,60,0
136790,note_on,,,,,14,0,0,,,,0,,,74,0
136790,note_on,,,,,0,0,0,,,,0,,,77,0
136800,note_on,,,,,10,0,0,,,,0,,,76,88
136800,note_on,,,,,0,0,0,,,,0,,,72,88
136800,note_on,,,,,0,0,0,,,,0,,,48,88
137016,note_on,,,,,216,0,0,,,,0,,,48,0
137020,note_on,,,,,4,0,0,,,,0,,,72,0
137020,note_on,,,,,0,0,0,,,,0,,,76,0
137040,note_on,,,,,20,0,0,,,,0,,,79,88
137040,note_on,,,,,0,0,0,,,,0,,,76,88
137040,note_on,,,,,0,0,0,,,,0,,,60,88
137150,note_on,,,,,110,0,0,,,,0,,,76,0
137150,note_on,,,,,0,0,0,,,,0,,,79,0
137160,note_on,,,,,10,0,0,,,,0,,,77,88
137160,note_on,,,,,0,0,0,,,,0,,,74,88
137256,note_on,,,,,96,0,0,,,,0,,,60,0
137270,note_on,,,,,14,0,0,,,,0,,,74,0
137270,note_on,,,,,0,0,0,,,,0,,,77,0
137280,note_on,,,,,10,0,0,,,,0,,,76,88
137280,note_on,,,,,0,0,0,,,,0,,,72,88
137280,note_on,,,,,0,0,0,,,,0,,,48,88
137496,note_on,,,,,216,0,0,,,,0,,,48,0
137500,note_on,,,,,4,0,0,,,,0,,,72,0
137500,note_on,,,,,0,0,0,,,,0,,,76,0
137520,note_on,,,,,20,0,0,,,,0,,,79,88
137520,note_on,,,,,0,0,0,,,,0,,,76,88
137520,note_on,,,,,0,0,0,,,,0,,,60,88
137736,note_on,,,,,216,0,0,,,,0,,,60,0
137740,note_on,,,,,4,0,0,,,,0,,,76,0
137740,note_on,,,,,0,0,0,,,,0,,,79,0
137760,note_on,,,,,20,0,0,,,,0,,,84,88
137760,note_on,,,,,0,0,0,,,,0,,,79,88
137760,note_on,,,,,0,0,0,,,,0,,,48,88
137976,note_on,,,,,216,0,0,,,,0,,,48,0
137980,note_on,,,,,4,0,0,,,,0,,,79,0
137980,note_on,,,,,0,0,0,,,,0,,,84,0
138000,note_on,,,,,20,0,0,,,,0,,,79,88
138000,note_on,,,,,0,0,0,,,,0,,,76,88
138000,note_on,,,,,0,0,0,,,,0,,,60,88
138216,note_on,,,,,216,0,0,,,,0,,,60,0
138220,note_on,,,,,4,0,0,,,,0,,,76,0
138220,note_on,,,,,0,0,0,,,,0,,,79,0
138240,note_on,,,,,20,0,0,,,,0,,,76,88
138240,note_on,,,,,0,0,0,,,,0,,,52,88
138456,note_on,,,,,216,0,0,,,,0,,,52,0
138460,note_on,,,,,4,0,0,,,,0,,,76,0
138464,set_tempo,,,,,4,1,0,600000,,,,,,,
138480,note_on,,,,,16,0,0,,,,0,,,74,88
138480,note_on,,,,,0,0,0,,,,0,,,50,88
138524,set_tempo,,,,,44,1,0,612244,,,,,,,
138532,set_tempo,,,,,8,1,0,625000,,,,,,,
138588,note_on,,,,,56,0,0,,,,0,,,50,0
138590,note_on,,,,,2,0,0,,,,0,,,74,0
138592,set_tempo,,,,,2,1,0,645161,,,,,,,
138600,note_on,,,,,8,0,0,,,,0,,,72,88
138600,note_on,,,,,0,0,0,,,,0,,,48,88
138652,set_tempo,,,,,52,1,0,666666,,,,,,,
138708,note_on,,,,,56,0,0,,,,0,,,48,0
138710,note_on,,,,,2,0,0,,,,0,,,72,0
138712,set_tempo,,,,,2,1,0,689655,,,,,,,
138720,note_on,,,,,8,0,0,,,,0,,,79,88
138720,note_on,,,,,0,0,0,,,,0,,,55,88
138772,set_tempo,,,,,52,1,0,714285,,,,,,,
138832,set_tempo,,,,,60,1,0,740740,,,,,,,
138892,set_tempo,,,,,60,1,0,769230,,,,,,,
138936,note_on,,,,,44,0,0,,,,0,,,55,0
138940,note_on,,,,,4,0,0,,,,0,,,79,0
138952,set_tempo,,,,,12,1,0,789473,,,,,,,
138960,note_on,,,,,8,0,0,,,,0,,,67,88
138960,note_on,,,,,0,0,0,,,,0,,,43,88
139012,set_tempo,,,,,52,1,0,821917,,,,,,,
139072,set_tempo,,,,,60,1,0,857142,,,,,,,
139132,set_tempo,,,,,60,1,0,882352,,,,,,,
139176,note_on,,,,,44,0,0,,,,0,,,43,0
139180,note_on,,,,,4,0,0,,,,0,,,67,0
139192,set_tempo,,,,,12,1,0,923076,,,,,,,
139200,note_on,,,,,8,0,0,,,,0,,,72,88
139200,note_on,,,,,0,0,0,,,,0,,,48,88
139244,set_tempo,,,,,44,1,0,967741,,,,,,,
139304,set_tempo,,,,,60,1,0,759493,,,,,,,
139364,set_tempo,,,,,60,1,0,769230,,,,,,,
139368,set_tempo,,,,,4,1,0,779220,,,,,,,
139632,note_on,,,,,264,0,0,,,,0,,,48,0
139632,note_on,,,,,0,0,0,,,,0,,,72,0
139632,end_of_track,,,,,0,1,0,,,,,,,,
