tick,type,time,meta,track,tempo,numerator,denominator,clocks_per_click,notated_32nd_notes_per_beat,port,program,channel,control,value,note,velocity
0,track_name,0,1,0,,,,,,,,,,,,
0,program_change,0,0,4,,,,,,,48,4,,,,
0,program_change,0,0,4,,,,,,,48,4,,,,
0,track_name,0,1,4,,,,,,,,,,,,
0,midi_port,0,1,4,,,,,,0,,,,,,
0,time_signature,0,1,7,,4,4,24,8,,,,,,,
0,time_signature,0,1,3,,4,4,24,8,,,,,,,
0,control_change,0,0,3,,,,,,,,2,10,64,,
0,control_change,0,0,3,,,,,,,,2,7,127,,
0,program_change,0,0,3,,,,,,,48,2,,,,
0,program_change,0,0,3,,,,,,,48,2,,,,
0,track_name,0,1,3,,,,,,,,,,,,
0,midi_port,0,1,3,,,,,,0,,,,,,
0,time_signature,0,1,2,,4,4,24,8,,,,,,,
0,control_change,0,0,2,,,,,,,,0,10,64,,
0,control_change,0,0,2,,,,,,,,0,7,127,,
0,program_change,0,0,2,,,,,,,48,0,,,,
0,program_change,0,0,2,,,,,,,48,0,,,,
0,control_change,0,0,4,,,,,,,,4,7,120,,
0,track_name,0,1,2,,,,,,,,,,,,
0,control_change,0,0,4,,,,,,,,4,10,64,,
0,midi_port,0,1,5,,,,,,0,,,,,,
0,control_change,0,0,7,,,,,,,,0,10,64,,
0,control_change,0,0,7,,,,,,,,0,7,127,,
0,track_name,0,1,7,,,,,,,,,,,,
0,midi_port,0,1,7,,,,,,0,,,,,,
0,time_signature,0,1,6,,4,4,24,8,,,,,,,
0,control_change,0,0,6,,,,,,,,8,10,64,,
0,control_change,0,0,6,,,,,,,,8,7,120,,
0,program_change,0,0,6,,,,,,,48,8,,,,
0,program_change,0,0,6,,,,,,,48,8,,,,
0,track_name,0,1,6,,,,,,,,,,,,
0,midi_port,0,1,6,,,,,,0,,,,,,
0,time_signature,0,1,5,,4,4,24,8,,,,,,,
0,control_change,0,0,5,,,,,,,,6,10,64,,
0,control_change,0,0,5,,,,,,,,6,7,120,,
0,program_change,0,0,5,,,,,,,48,6,,,,
0,program_change,0,0,5,,,,,,,48,6,,,,
0,track_name,0,1,5,,,,,,,,,,,,
0,time_signature,0,1,4,,4,4,24,8,,,,,,,
0,midi_port,0,1,2,,,,,,0,,,,,,
0,end_of_track,0,1,7,,,,,,,,,,,,
0,text,0,1,0,,,,,,,,,,,,
0,time_signature,0,1,0,,4,4,24,8,,,,,,,
0,control_change,0,0,1,,,,,,,,11,10,64,,
0,time_signature,0,1,1,,4,4,24,8,,,,,,,
0,set_tempo,0,1,0,251046,,,,,,,,,,,
0,control_change,0,0,1,,,,,,,,11,7,127,,
0,program_change,0,0,1,,,,,,,68,11,,,,
0,track_name,0,1,1,,,,,,,,,,,,
0,midi_port,0,1,1,,,,,,0,,,,,,
768,set_tempo,768,1,0,521739,,,,,,,,,,,
1152,program_change,1152,0,4,,,,,,,48,4,,,,
1152,program_change,1152,0,2,,,,,,,48,0,,,,
1152,program_change,1152,0,6,,,,,,,48,8,,,,
1152,program_change,1152,0,5,,,,,,,48,6,,,,
1152,program_change,1152,0,3,,,,,,,48,2,,,,
1440,note_on,288,0,5,,,,,,,,6,,,48,92
1440,note_on,288,0,2,,,,,,,,0,,,72,110
1440,note_on,288,0,3,,,,,,,,2,,,76,110
1440,note_on,288,0,4,,,,,,,,4,,,67,75
1440,note_on,288,0,6,,,,,,,,8,,,36,92
1534,note_on,94,0,5,,,,,,,,6,,,48,0
1534,note_on,94,0,6,,,,,,,,8,,,36,0
1534,note_on,94,0,2,,,,,,,,0,,,72,0
1534,note_on,94,0,4,,,,,,,,4,,,67,0
1534,note_on,94,0,3,,,,,,,,2,,,76,0
1536,note_on,2,0,4,,,,,,,,4,,,67,75
1536,note_on,2,0,5,,,,,,,,6,,,48,92
1536,note_on,2,0,6,,,,,,,,8,,,36,92
1536,note_on,2,0,3,,,,,,,,2,,,76,110
1536,note_on,2,0,2,,,,,,,,0,,,72,110
1630,note_on,94,0,6,,,,,,,,8,,,36,0
1630,note_on,94,0,5,,,,,,,,6,,,48,0
1632,note_on,2,0,6,,,,,,,,8,,,48,92
1632,note_on,2,0,5,,,,,,,,6,,,60,92
1678,note_on,46,0,5,,,,,,,,6,,,60,0
1678,note_on,46,0,6,,,,,,,,8,,,48,0
1680,note_on,2,0,6,,,,,,,,8,,,47,92
1680,note_on,2,0,5,,,,,,,,6,,,59,92
1726,note_on,46,0,6,,,,,,,,8,,,47,0
1726,note_on,46,0,5,,,,,,,,6,,,59,0
1728,note_on,2,0,5,,,,,,,,6,,,60,92
1728,note_on,2,0,6,,,,,,,,8,,,48,92
1792,note_on,256,0,4,,,,,,,,4,,,67,0
1792,note_on,256,0,2,,,,,,,,0,,,72,0
1792,note_on,256,0,3,,,,,,,,2,,,76,0
1822,note_on,94,0,6,,,,,,,,8,,,48,0
1822,note_on,94,0,5,,,,,,,,6,,,60,0
1824,note_on,32,0,3,,,,,,,,2,,,77,110
1824,note_on,2,0,6,,,,,,,,8,,,36,92
1824,note_on,32,0,2,,,,,,,,0,,,74,110
1824,note_on,32,0,4,,,,,,,,4,,,67,75
1824,note_on,2,0,5,,,,,,,,6,,,48,92
1870,note_on,46,0,3,,,,,,,,2,,,77,0
1870,note_on,46,0,2,,,,,,,,0,,,74,0
1872,note_on,2,0,3,,,,,,,,2,,,76,110
1872,note_on,2,0,2,,,,,,,,0,,,72,110
1918,note_on,46,0,2,,,,,,,,0,,,72,0
1918,note_on,94,0,4,,,,,,,,4,,,67,0
1918,note_on,94,0,6,,,,,,,,8,,,36,0
1918,note_on,46,0,3,,,,,,,,2,,,76,0
1918,note_on,94,0,5,,,,,,,,6,,,48,0
1920,note_on,2,0,2,,,,,,,,0,,,71,110
1920,note_on,2,0,5,,,,,,,,6,,,43,92
1920,note_on,2,0,6,,,,,,,,8,,,31,92
1920,note_on,2,0,3,,,,,,,,2,,,74,110
1920,note_on,2,0,4,,,,,,,,4,,,67,75
2014,note_on,94,0,5,,,,,,,,6,,,43,0
2014,note_on,94,0,6,,,,,,,,8,,,31,0
2016,note_on,2,0,5,,,,,,,,6,,,55,92
2016,note_on,2,0,6,,,,,,,,8,,,43,92
2062,note_on,46,0,5,,,,,,,,6,,,55,0
2062,note_on,46,0,6,,,,,,,,8,,,43,0
2064,note_on,2,0,5,,,,,,,,6,,,53,92
2064,note_on,2,0,6,,,,,,,,8,,,41,92
2110,note_on,46,0,6,,,,,,,,8,,,41,0
2110,note_on,46,0,5,,,,,,,,6,,,53,0
2112,note_on,2,0,6,,,,,,,,8,,,43,92
2112,note_on,2,0,5,,,,,,,,6,,,55,92
2176,note_on,256,0,2,,,,,,,,0,,,71,0
2176,note_on,256,0,3,,,,,,,,2,,,74,0
2176,note_on,256,0,4,,,,,,,,4,,,67,0
2206,note_on,94,0,6,,,,,,,,8,,,43,0
2206,note_on,94,0,5,,,,,,,,6,,,55,0
2208,note_on,2,0,6,,,,,,,,8,,,31,92
2208,note_on,32,0,2,,,,,,,,0,,,69,110
2208,note_on,32,0,4,,,,,,,,4,,,67,75
2208,note_on,32,0,3,,,,,,,,2,,,72,110
2208,note_on,2,0,5,,,,,,,,6,,,43,92
2254,note_on,46,0,2,,,,,,,,0,,,69,0
2254,note_on,46,0,3,,,,,,,,2,,,72,0
2256,note_on,2,0,2,,,,,,,,0,,,67,110
2256,note_on,2,0,3,,,,,,,,2,,,71,110
2302,note_on,46,0,2,,,,,,,,0,,,67,0
2302,note_on,46,0,3,,,,,,,,2,,,71,0
2302,note_on,94,0,4,,,,,,,,4,,,67,0
2302,note_on,94,0,6,,,,,,,,8,,,31,0
2302,note_on,94,0,5,,,,,,,,6,,,43,0
2304,note_on,2,0,5,,,,,,,,6,,,48,92
2304,note_on,2,0,3,,,,,,,,2,,,72,110
2304,note_on,2,0,2,,,,,,,,0,,,76,110
2304,note_on,2,0,4,,,,,,,,4,,,67,75
2304,note_on,2,0,6,,,,,,,,8,,,36,92
2398,note_on,94,0,4,,,,,,,,4,,,67,0
2398,note_on,94,0,5,,,,,,,,6,,,48,0
2398,note_on,94,0,3,,,,,,,,2,,,72,0
2398,note_on,94,0,6,,,,,,,,8,,,36,0
2398,note_on,94,0,2,,,,,,,,0,,,76,0
2400,note_on,2,0,6,,,,,,,,8,,,41,92
2400,note_on,2,0,4,,,,,,,,4,,,69,75
2400,note_on,2,0,3,,,,,,,,2,,,74,110
2400,note_on,2,0,2,,,,,,,,0,,,77,110
2400,note_on,2,0,5,,,,,,,,6,,,53,92
2494,note_on,94,0,3,,,,,,,,2,,,74,0
2494,note_on,94,0,5,,,,,,,,6,,,53,0
2494,note_on,94,0,6,,,,,,,,8,,,41,0
2494,note_on,94,0,4,,,,,,,,4,,,69,0
2494,note_on,94,0,2,,,,,,,,0,,,77,0
2496,note_on,2,0,3,,,,,,,,2,,,74,110
2496,note_on,2,0,2,,,,,,,,0,,,77,110
2496,note_on,2,0,5,,,,,,,,6,,,48,92
2496,note_on,2,0,6,,,,,,,,8,,,36,92
2496,note_on,2,0,4,,,,,,,,4,,,67,75
2518,note_on,22,0,3,,,,,,,,2,,,74,0
2518,note_on,22,0,2,,,,,,,,0,,,77,0
2520,note_on,2,0,3,,,,,,,,2,,,72,110
2520,note_on,2,0,2,,,,,,,,0,,,76,110
2542,note_on,22,0,2,,,,,,,,0,,,76,0
2542,note_on,22,0,3,,,,,,,,2,,,72,0
2544,note_on,2,0,3,,,,,,,,2,,,74,110
2544,note_on,2,0,2,,,,,,,,0,,,77,110
2566,note_on,22,0,2,,,,,,,,0,,,77,0
2566,note_on,22,0,3,,,,,,,,2,,,74,0
2568,note_on,2,0,2,,,,,,,,0,,,76,110
2568,note_on,2,0,3,,,,,,,,2,,,72,110
2590,note_on,94,0,6,,,,,,,,8,,,36,0
2590,note_on,94,0,5,,,,,,,,6,,,48,0
2590,note_on,94,0,4,,,,,,,,4,,,67,0
2592,note_on,2,0,5,,,,,,,,6,,,54,92
2592,note_on,2,0,4,,,,,,,,4,,,69,75
2592,note_on,2,0,6,,,,,,,,8,,,42,92
2686,note_on,94,0,4,,,,,,,,4,,,69,0
2686,note_on,118,0,2,,,,,,,,0,,,76,0
2686,note_on,118,0,3,,,,,,,,2,,,72,0
2686,note_on,94,0,6,,,,,,,,8,,,42,0
2686,note_on,94,0,5,,,,,,,,6,,,54,0
2688,note_on,2,0,4,,,,,,,,4,,,62,75
2688,note_on,2,0,5,,,,,,,,6,,,43,92
2688,note_on,2,0,2,,,,,,,,0,,,74,110
2688,note_on,2,0,6,,,,,,,,8,,,31,92
2688,note_on,2,0,3,,,,,,,,2,,,71,110
2782,note_on,94,0,5,,,,,,,,6,,,43,0
2782,note_on,94,0,4,,,,,,,,4,,,62,0
2782,note_on,94,0,6,,,,,,,,8,,,31,0
2784,note_on,2,0,5,,,,,,,,6,,,55,92
2784,note_on,2,0,6,,,,,,,,8,,,43,92
2784,note_on,2,0,4,,,,,,,,4,,,71,75
2830,note_on,46,0,6,,,,,,,,8,,,43,0
2830,note_on,46,0,5,,,,,,,,6,,,55,0
2830,note_on,46,0,4,,,,,,,,4,,,71,0
2832,note_on,2,0,6,,,,,,,,8,,,42,92
2832,note_on,2,0,5,,,,,,,,6,,,54,92
2832,note_on,2,0,4,,,,,,,,4,,,69,75
2878,note_on,46,0,5,,,,,,,,6,,,54,0
2878,note_on,46,0,6,,,,,,,,8,,,42,0
2878,note_on,46,0,4,,,,,,,,4,,,69,0
2880,note_on,2,0,6,,,,,,,,8,,,43,92
2880,note_on,2,0,4,,,,,,,,4,,,71,75
2880,note_on,2,0,5,,,,,,,,6,,,55,92
2944,note_on,256,0,3,,,,,,,,2,,,71,0
2944,note_on,256,0,2,,,,,,,,0,,,74,0
2974,note_on,94,0,6,,,,,,,,8,,,43,0
2974,note_on,94,0,4,,,,,,,,4,,,71,0
2974,note_on,94,0,5,,,,,,,,6,,,55,0
2976,note_on,2,0,4,,,,,,,,4,,,67,45
2976,note_on,32,0,3,,,,,,,,2,,,76,45
2976,note_on,2,0,6,,,,,,,,8,,,36,45
2976,note_on,2,0,5,,,,,,,,6,,,48,45
2976,note_on,32,0,2,,,,,,,,0,,,72,45
3070,note_on,94,0,4,,,,,,,,4,,,67,0
3070,note_on,94,0,2,,,,,,,,0,,,72,0
3070,note_on,94,0,6,,,,,,,,8,,,36,0
3070,note_on,94,0,5,,,,,,,,6,,,48,0
3070,note_on,94,0,3,,,,,,,,2,,,76,0
3072,note_on,2,0,6,,,,,,,,8,,,36,45
3072,note_on,2,0,3,,,,,,,,2,,,76,45
3072,note_on,2,0,5,,,,,,,,6,,,48,45
3072,note_on,2,0,4,,,,,,,,4,,,67,45
3072,note_on,2,0,2,,,,,,,,0,,,72,45
3166,note_on,94,0,6,,,,,,,,8,,,36,0
3166,note_on,94,0,5,,,,,,,,6,,,48,0
3168,note_on,2,0,6,,,,,,,,8,,,48,45
3168,note_on,2,0,5,,,,,,,,6,,,60,45
3214,note_on,46,0,5,,,,,,,,6,,,60,0
3214,note_on,46,0,6,,,,,,,,8,,,48,0
3216,note_on,2,0,5,,,,,,,,6,,,59,45
3216,note_on,2,0,6,,,,,,,,8,,,47,45
3262,note_on,46,0,5,,,,,,,,6,,,59,0
3262,note_on,46,0,6,,,,,,,,8,,,47,0
3264,note_on,2,0,5,,,,,,,,6,,,60,45
3264,note_on,2,0,6,,,,,,,,8,,,48,45
3328,note_on,256,0,4,,,,,,,,4,,,67,0
3328,note_on,256,0,3,,,,,,,,2,,,76,0
3328,note_on,256,0,2,,,,,,,,0,,,72,0
3358,note_on,94,0,5,,,,,,,,6,,,60,0
3358,note_on,94,0,6,,,,,,,,8,,,48,0
3360,note_on,2,0,6,,,,,,,,8,,,36,45
3360,note_on,2,0,5,,,,,,,,6,,,48,45
3360,note_on,32,0,4,,,,,,,,4,,,67,45
3360,note_on,32,0,2,,,,,,,,0,,,74,45
3360,note_on,32,0,3,,,,,,,,2,,,77,45
3406,note_on,46,0,2,,,,,,,,0,,,74,0
3406,note_on,46,0,3,,,,,,,,2,,,77,0
3408,note_on,2,0,3,,,,,,,,2,,,76,45
3408,note_on,2,0,2,,,,,,,,0,,,72,45
3454,note_on,94,0,5,,,,,,,,6,,,48,0
3454,note_on,94,0,4,,,,,,,,4,,,67,0
3454,note_on,46,0,2,,,,,,,,0,,,72,0
3454,note_on,94,0,6,,,,,,,,8,,,36,0
3454,note_on,46,0,3,,,,,,,,2,,,76,0
3456,note_on,2,0,2,,,,,,,,0,,,71,45
3456,note_on,2,0,6,,,,,,,,8,,,31,45
3456,note_on,2,0,5,,,,,,,,6,,,43,45
3456,note_on,2,0,4,,,,,,,,4,,,67,45
3456,note_on,2,0,3,,,,,,,,2,,,74,45
3550,note_on,94,0,5,,,,,,,,6,,,43,0
3550,note_on,94,0,6,,,,,,,,8,,,31,0
3552,note_on,2,0,6,,,,,,,,8,,,43,45
3552,note_on,2,0,5,,,,,,,,6,,,55,45
3598,note_on,46,0,6,,,,,,,,8,,,43,0
3598,note_on,46,0,5,,,,,,,,6,,,55,0
3600,note_on,2,0,6,,,,,,,,8,,,41,45
3600,note_on,2,0,5,,,,,,,,6,,,53,45
3646,note_on,46,0,6,,,,,,,,8,,,41,0
3646,note_on,46,0,5,,,,,,,,6,,,53,0
3648,note_on,2,0,6,,,,,,,,8,,,43,45
3648,note_on,2,0,5,,,,,,,,6,,,55,45
3712,note_on,256,0,4,,,,,,,,4,,,67,0
3712,note_on,256,0,2,,,,,,,,0,,,71,0
3712,note_on,256,0,3,,,,,,,,2,,,74,0
3742,note_on,94,0,6,,,,,,,,8,,,43,0
3742,note_on,94,0,5,,,,,,,,6,,,55,0
3744,note_on,2,0,5,,,,,,,,6,,,43,45
3744,note_on,32,0,3,,,,,,,,2,,,72,45
3744,note_on,32,0,4,,,,,,,,4,,,67,45
3744,note_on,2,0,6,,,,,,,,8,,,31,45
3744,note_on,32,0,2,,,,,,,,0,,,69,45
3790,note_on,46,0,2,,,,,,,,0,,,69,0
3790,note_on,46,0,3,,,,,,,,2,,,72,0
3792,note_on,2,0,2,,,,,,,,0,,,67,45
3792,note_on,2,0,3,,,,,,,,2,,,71,45
3838,note_on,46,0,3,,,,,,,,2,,,71,0
3838,note_on,94,0,6,,,,,,,,8,,,31,0
3838,note_on,46,0,2,,,,,,,,0,,,67,0
3838,note_on,94,0,4,,,,,,,,4,,,67,0
3838,note_on,94,0,5,,,,,,,,6,,,43,0
3840,note_on,2,0,4,,,,,,,,4,,,67,45
3840,note_on,2,0,2,,,,,,,,0,,,76,45
3840,note_on,2,0,6,,,,,,,,8,,,36,45
3840,note_on,2,0,3,,,,,,,,2,,,72,45
3840,note_on,2,0,5,,,,,,,,6,,,48,45
3934,note_on,94,0,2,,,,,,,,0,,,76,0
3934,note_on,94,0,3,,,,,,,,2,,,72,0
3934,note_on,94,0,6,,,,,,,,8,,,36,0
3934,note_on,94,0,5,,,,,,,,6,,,48,0
3934,note_on,94,0,4,,,,,,,,4,,,67,0
3936,note_on,2,0,4,,,,,,,,4,,,69,45
3936,note_on,2,0,3,,,,,,,,2,,,74,45
3936,note_on,2,0,2,,,,,,,,0,,,77,45
3936,note_on,2,0,5,,,,,,,,6,,,53,45
3936,note_on,2,0,6,,,,,,,,8,,,41,45
4030,note_on,94,0,5,,,,,,,,6,,,53,0
4030,note_on,94,0,4,,,,,,,,4,,,69,0
4030,note_on,94,0,3,,,,,,,,2,,,74,0
4030,note_on,94,0,6,,,,,,,,8,,,41,0
4030,note_on,94,0,2,,,,,,,,0,,,77,0
4032,note_on,2,0,5,,,,,,,,6,,,48,45
4032,note_on,2,0,6,,,,,,,,8,,,36,45
4032,note_on,2,0,4,,,,,,,,4,,,67,45
4032,note_on,2,0,3,,,,,,,,2,,,74,45
4032,note_on,2,0,2,,,,,,,,0,,,77,45
4054,note_on,22,0,2,,,,,,,,0,,,77,0
4054,note_on,22,0,3,,,,,,,,2,,,74,0
4056,note_on,2,0,2,,,,,,,,0,,,76,45
4056,note_on,2,0,3,,,,,,,,2,,,72,45
4078,note_on,22,0,2,,,,,,,,0,,,76,0
4078,note_on,22,0,3,,,,,,,,2,,,72,0
4080,note_on,2,0,2,,,,,,,,0,,,77,45
4080,note_on,2,0,3,,,,,,,,2,,,74,45
4102,note_on,22,0,3,,,,,,,,2,,,74,0
4102,note_on,22,0,2,,,,,,,,0,,,77,0
4104,note_on,2,0,2,,,,,,,,0,,,76,45
4104,note_on,2,0,3,,,,,,,,2,,,72,45
4126,note_on,94,0,5,,,,,,,,6,,,48,0
4126,note_on,94,0,4,,,,,,,,4,,,67,0
4126,note_on,94,0,6,,,,,,,,8,,,36,0
4128,note_on,2,0,5,,,,,,,,6,,,54,45
4128,note_on,2,0,4,,,,,,,,4,,,69,45
4128,note_on,2,0,6,,,,,,,,8,,,42,45
4222,note_on,118,0,2,,,,,,,,0,,,76,0
4222,note_on,94,0,6,,,,,,,,8,,,42,0
4222,note_on,118,0,3,,,,,,,,2,,,72,0
4222,note_on,94,0,4,,,,,,,,4,,,69,0
4222,note_on,94,0,5,,,,,,,,6,,,54,0
4224,note_on,2,0,3,,,,,,,,2,,,71,45
4224,note_on,2,0,2,,,,,,,,0,,,74,45
4224,note_on,2,0,4,,,,,,,,4,,,62,45
4224,note_on,2,0,5,,,,,,,,6,,,43,45
4224,note_on,2,0,6,,,,,,,,8,,,31,45
4318,note_on,94,0,4,,,,,,,,4,,,62,0
4318,note_on,94,0,6,,,,,,,,8,,,31,0
4318,note_on,94,0,5,,,,,,,,6,,,43,0
4320,note_on,2,0,5,,,,,,,,6,,,55,45
4320,note_on,2,0,4,,,,,,,,4,,,71,45
4320,note_on,2,0,6,,,,,,,,8,,,43,45
4366,note_on,46,0,5,,,,,,,,6,,,55,0
4366,note_on,46,0,6,,,,,,,,8,,,43,0
4366,note_on,46,0,4,,,,,,,,4,,,71,0
4368,note_on,2,0,5,,,,,,,,6,,,54,45
4368,note_on,2,0,4,,,,,,,,4,,,69,45
4368,note_on,2,0,6,,,,,,,,8,,,42,45
4414,note_on,46,0,6,,,,,,,,8,,,42,0
4414,note_on,46,0,4,,,,,,,,4,,,69,0
4414,note_on,46,0,5,,,,,,,,6,,,54,0
4416,note_on,2,0,4,,,,,,,,4,,,71,45
4416,note_on,2,0,6,,,,,,,,8,,,43,45
4416,note_on,2,0,5,,,,,,,,6,,,55,45
4480,note_on,256,0,2,,,,,,,,0,,,74,0
4480,note_on,256,0,3,,,,,,,,2,,,71,0
4510,note_on,94,0,5,,,,,,,,6,,,55,0
4510,note_on,94,0,6,,,,,,,,8,,,43,0
4510,note_on,94,0,4,,,,,,,,4,,,71,0
4512,control_change,32,0,3,,,,,,,,2,10,0,,
4512,note_on,2,0,6,,,,,,,,8,,,31,92
4512,note_on,0,0,3,,,,,,,,2,,,74,92
4512,control_change,32,0,2,,,,,,,,0,10,0,,
4512,note_on,2,0,5,,,,,,,,6,,,43,92
4512,note_on,0,0,2,,,,,,,,0,,,79,92
4512,note_on,4512,0,1,,,,,,,,11,,,79,110
4512,note_on,2,0,4,,,,,,,,4,,,67,75
4606,note_on,94,0,1,,,,,,,,11,,,79,0
4606,note_on,94,0,2,,,,,,,,0,,,79,0
4606,note_on,94,0,5,,,,,,,,6,,,43,0
4606,note_on,94,0,4,,,,,,,,4,,,67,0
4606,note_on,94,0,6,,,,,,,,8,,,31,0
4606,note_on,94,0,3,,,,,,,,2,,,74,0
4608,note_on,2,0,1,,,,,,,,11,,,79,110
4608,note_on,2,0,6,,,,,,,,8,,,31,92
4608,note_on,2,0,3,,,,,,,,2,,,55,92
4608,note_on,2,0,4,,,,,,,,4,,,55,75
4608,note_on,2,0,5,,,,,,,,6,,,43,92
4608,note_on,2,0,2,,,,,,,,0,,,55,92
4654,note_on,46,0,1,,,,,,,,11,,,79,0
4656,note_on,2,0,1,,,,,,,,11,,,77,110
4702,note_on,94,0,3,,,,,,,,2,,,55,0
4702,note_on,46,0,1,,,,,,,,11,,,77,0
4702,note_on,94,0,2,,,,,,,,0,,,55,0
4704,note_on,2,0,2,,,,,,,,0,,,79,92
4704,note_on,2,0,1,,,,,,,,11,,,79,110
4704,note_on,2,0,3,,,,,,,,2,,,76,92
4768,note_on,160,0,6,,,,,,,,8,,,31,0
4768,note_on,160,0,5,,,,,,,,6,,,43,0
4768,note_on,160,0,4,,,,,,,,4,,,55,0
4798,note_on,94,0,3,,,,,,,,2,,,76,0
4798,note_on,94,0,2,,,,,,,,0,,,79,0
4798,note_on,94,0,1,,,,,,,,11,,,79,0
4800,note_on,32,0,4,,,,,,,,4,,,55,75
4800,note_on,2,0,1,,,,,,,,11,,,79,110
4800,note_on,32,0,6,,,,,,,,8,,,31,92
4800,note_on,2,0,2,,,,,,,,0,,,55,92
4800,note_on,2,0,3,,,,,,,,2,,,55,92
4800,note_on,32,0,5,,,,,,,,6,,,43,92
4846,note_on,46,0,1,,,,,,,,11,,,79,0
4848,note_on,2,0,1,,,,,,,,11,,,77,110
4894,note_on,94,0,3,,,,,,,,2,,,55,0
4894,note_on,94,0,2,,,,,,,,0,,,55,0
4894,note_on,46,0,1,,,,,,,,11,,,77,0
4896,note_on,2,0,2,,,,,,,,0,,,79,92
4896,note_on,2,0,1,,,,,,,,11,,,79,110
4896,note_on,2,0,3,,,,,,,,2,,,76,92
4960,note_on,160,0,4,,,,,,,,4,,,55,0
4960,note_on,160,0,5,,,,,,,,6,,,43,0
4960,note_on,160,0,6,,,,,,,,8,,,31,0
4990,note_on,94,0,1,,,,,,,,11,,,79,0
4990,note_on,94,0,2,,,,,,,,0,,,79,0
4990,note_on,94,0,3,,,,,,,,2,,,76,0
4992,note_on,2,0,1,,,,,,,,11,,,79,110
4992,note_on,32,0,5,,,,,,,,6,,,43,92
4992,note_on,2,0,2,,,,,,,,0,,,55,92
4992,note_on,32,0,4,,,,,,,,4,,,55,75
4992,note_on,32,0,6,,,,,,,,8,,,31,92
4992,note_on,2,0,3,,,,,,,,2,,,55,92
5086,note_on,94,0,1,,,,,,,,11,,,79,0
5086,note_on,94,0,2,,,,,,,,0,,,55,0
5086,note_on,94,0,3,,,,,,,,2,,,55,0
5088,note_on,2,0,1,,,,,,,,11,,,79,110
5088,note_on,2,0,3,,,,,,,,2,,,76,92
5088,note_on,2,0,2,,,,,,,,0,,,79,92
5152,note_on,160,0,4,,,,,,,,4,,,55,0
5152,note_on,160,0,6,,,,,,,,8,,,31,0
5152,note_on,160,0,5,,,,,,,,6,,,43,0
5182,note_on,94,0,1,,,,,,,,11,,,79,0
5182,note_on,94,0,3,,,,,,,,2,,,76,0
5182,note_on,94,0,2,,,,,,,,0,,,79,0
5184,note_on,2,0,2,,,,,,,,0,,,81,92
5184,note_on,2,0,3,,,,,,,,2,,,77,92
5184,note_on,2,0,1,,,,,,,,11,,,84,110
5206,note_on,22,0,3,,,,,,,,2,,,77,0
5206,note_on,22,0,2,,,,,,,,0,,,81,0
5208,note_on,2,0,3,,,,,,,,2,,,76,92
5208,note_on,2,0,2,,,,,,,,0,,,79,92
5278,note_on,70,0,3,,,,,,,,2,,,76,0
5278,note_on,70,0,2,,,,,,,,0,,,79,0
5280,note_on,2,0,3,,,,,,,,2,,,74,92
5280,note_on,2,0,2,,,,,,,,0,,,77,92
5326,note_on,46,0,2,,,,,,,,0,,,77,0
5326,note_on,46,0,3,,,,,,,,2,,,74,0
5328,note_on,2,0,2,,,,,,,,0,,,76,92
5328,note_on,2,0,3,,,,,,,,2,,,72,92
5344,note_on,160,0,1,,,,,,,,11,,,84,0
5374,note_on,46,0,3,,,,,,,,2,,,72,0
5374,note_on,46,0,2,,,,,,,,0,,,76,0
5376,note_on,224,0,6,,,,,,,,8,,,31,92
5376,note_on,2,0,2,,,,,,,,0,,,77,92
5376,note_on,2,0,3,,,,,,,,2,,,74,92
5376,note_on,224,0,5,,,,,,,,6,,,43,92
5376,note_on,32,0,1,,,,,,,,11,,,77,110
5376,note_on,224,0,4,,,,,,,,4,,,55,75
5422,note_on,46,0,1,,,,,,,,11,,,77,0
5424,note_on,2,0,1,,,,,,,,11,,,76,110
5470,note_on,94,0,2,,,,,,,,0,,,77,0
5470,note_on,94,0,3,,,,,,,,2,,,74,0
5470,note_on,46,0,1,,,,,,,,11,,,76,0
5472,note_on,2,0,3,,,,,,,,2,,,74,92
5472,note_on,2,0,2,,,,,,,,0,,,77,92
5472,note_on,2,0,1,,,,,,,,11,,,77,110
5536,note_on,160,0,6,,,,,,,,8,,,31,0
5536,note_on,160,0,4,,,,,,,,4,,,55,0
5536,note_on,160,0,5,,,,,,,,6,,,43,0
5566,note_on,94,0,3,,,,,,,,2,,,74,0
5566,note_on,94,0,2,,,,,,,,0,,,77,0
5566,note_on,94,0,1,,,,,,,,11,,,77,0
5568,note_on,2,0,3,,,,,,,,2,,,55,92
5568,note_on,2,0,2,,,,,,,,0,,,55,92
5568,note_on,32,0,5,,,,,,,,6,,,43,92
5568,note_on,2,0,1,,,,,,,,11,,,77,110
5568,note_on,32,0,4,,,,,,,,4,,,55,75
5568,note_on,32,0,6,,,,,,,,8,,,31,92
5614,note_on,46,0,1,,,,,,,,11,,,77,0
5616,note_on,2,0,1,,,,,,,,11,,,76,110
5662,note_on,46,0,1,,,,,,,,11,,,76,0
5662,note_on,94,0,3,,,,,,,,2,,,55,0
5662,note_on,94,0,2,,,,,,,,0,,,55,0
5664,note_on,2,0,1,,,,,,,,11,,,77,110
5664,note_on,2,0,3,,,,,,,,2,,,74,92
5664,note_on,2,0,2,,,,,,,,0,,,77,92
5728,note_on,160,0,6,,,,,,,,8,,,31,0
5728,note_on,160,0,4,,,,,,,,4,,,55,0
5728,note_on,160,0,5,,,,,,,,6,,,43,0
5758,note_on,94,0,3,,,,,,,,2,,,74,0
5758,note_on,94,0,1,,,,,,,,11,,,77,0
5758,note_on,94,0,2,,,,,,,,0,,,77,0
5760,note_on,32,0,4,,,,,,,,4,,,55,75
5760,note_on,2,0,1,,,,,,,,11,,,77,110
5760,note_on,2,0,2,,,,,,,,0,,,55,92
5760,note_on,2,0,3,,,,,,,,2,,,55,92
5760,note_on,32,0,5,,,,,,,,6,,,43,92
5760,note_on,32,0,6,,,,,,,,8,,,31,92
5854,note_on,94,0,3,,,,,,,,2,,,55,0
5854,note_on,94,0,1,,,,,,,,11,,,77,0
5854,note_on,94,0,2,,,,,,,,0,,,55,0
5856,note_on,2,0,3,,,,,,,,2,,,74,92
5856,note_on,2,0,2,,,,,,,,0,,,77,92
5856,note_on,2,0,1,,,,,,,,11,,,77,110
5920,note_on,160,0,5,,,,,,,,6,,,43,0
5920,note_on,160,0,6,,,,,,,,8,,,31,0
5920,note_on,160,0,4,,,,,,,,4,,,55,0
5950,note_on,94,0,3,,,,,,,,2,,,74,0
5950,note_on,94,0,2,,,,,,,,0,,,77,0
5950,note_on,94,0,1,,,,,,,,11,,,77,0
5952,note_on,2,0,1,,,,,,,,11,,,83,110
5952,note_on,2,0,2,,,,,,,,0,,,79,92
5952,note_on,2,0,3,,,,,,,,2,,,76,92
5974,note_on,22,0,2,,,,,,,,0,,,79,0
5974,note_on,22,0,3,,,,,,,,2,,,76,0
5976,note_on,2,0,2,,,,,,,,0,,,77,92
5976,note_on,2,0,3,,,,,,,,2,,,74,92
6046,note_on,70,0,3,,,,,,,,2,,,74,0
6046,note_on,70,0,2,,,,,,,,0,,,77,0
6048,note_on,2,0,3,,,,,,,,2,,,72,92
6048,note_on,2,0,2,,,,,,,,0,,,76,92
6094,note_on,46,0,2,,,,,,,,0,,,76,0
6094,note_on,46,0,3,,,,,,,,2,,,72,0
6096,note_on,2,0,3,,,,,,,,2,,,71,92
6096,note_on,2,0,2,,,,,,,,0,,,74,92
6112,note_on,160,0,1,,,,,,,,11,,,83,0
6142,note_on,46,0,3,,,,,,,,2,,,71,0
6142,note_on,46,0,2,,,,,,,,0,,,74,0
6144,note_on,2,0,3,,,,,,,,2,,,72,92
6144,note_on,224,0,5,,,,,,,,6,,,43,92
6144,note_on,224,0,6,,,,,,,,8,,,31,92
6144,note_on,224,0,4,,,,,,,,4,,,55,75
6144,note_on,2,0,2,,,,,,,,0,,,76,92
6144,note_on,32,0,1,,,,,,,,11,,,76,110
6190,note_on,46,0,1,,,,,,,,11,,,76,0
6192,note_on,2,0,1,,,,,,,,11,,,74,110
6238,note_on,94,0,2,,,,,,,,0,,,76,0
6238,note_on,94,0,3,,,,,,,,2,,,72,0
6238,note_on,46,0,1,,,,,,,,11,,,74,0
6240,note_on,2,0,2,,,,,,,,0,,,76,92
6240,note_on,2,0,3,,,,,,,,2,,,72,92
6240,note_on,2,0,1,,,,,,,,11,,,76,110
6304,note_on,160,0,6,,,,,,,,8,,,31,0
6304,note_on,160,0,5,,,,,,,,6,,,43,0
6304,note_on,160,0,4,,,,,,,,4,,,55,0
6334,note_on,94,0,2,,,,,,,,0,,,76,0
6334,note_on,94,0,3,,,,,,,,2,,,72,0
6334,note_on,94,0,1,,,,,,,,11,,,76,0
6336,note_on,2,0,2,,,,,,,,0,,,55,92
6336,note_on,2,0,3,,,,,,,,2,,,55,92
6336,note_on,2,0,1,,,,,,,,11,,,76,110
6336,note_on,32,0,5,,,,,,,,6,,,43,92
6336,note_on,32,0,6,,,,,,,,8,,,31,92
6336,note_on,32,0,4,,,,,,,,4,,,55,75
6382,note_on,46,0,1,,,,,,,,11,,,76,0
6384,note_on,2,0,1,,,,,,,,11,,,74,110
6430,note_on,94,0,3,,,,,,,,2,,,55,0
6430,note_on,46,0,1,,,,,,,,11,,,74,0
6430,note_on,94,0,2,,,,,,,,0,,,55,0
6432,note_on,2,0,3,,,,,,,,2,,,72,92
6432,note_on,2,0,2,,,,,,,,0,,,76,92
6432,note_on,2,0,1,,,,,,,,11,,,76,110
6496,note_on,160,0,5,,,,,,,,6,,,43,0
6496,note_on,160,0,4,,,,,,,,4,,,55,0
6496,note_on,160,0,6,,,,,,,,8,,,31,0
6526,note_on,94,0,2,,,,,,,,0,,,76,0
6526,note_on,94,0,1,,,,,,,,11,,,76,0
6526,note_on,94,0,3,,,,,,,,2,,,72,0
6528,note_on,32,0,5,,,,,,,,6,,,43,92
6528,note_on,32,0,4,,,,,,,,4,,,55,75
6528,note_on,2,0,1,,,,,,,,11,,,76,110
6528,note_on,2,0,3,,,,,,,,2,,,55,92
6528,note_on,2,0,2,,,,,,,,0,,,55,92
6528,note_on,32,0,6,,,,,,,,8,,,31,92
6622,note_on,94,0,1,,,,,,,,11,,,76,0
6622,note_on,94,0,2,,,,,,,,0,,,55,0
6622,note_on,94,0,3,,,,,,,,2,,,55,0
6624,note_on,2,0,3,,,,,,,,2,,,72,92
6624,note_on,2,0,1,,,,,,,,11,,,76,110
6624,note_on,2,0,2,,,,,,,,0,,,76,92
6688,note_on,160,0,6,,,,,,,,8,,,31,0
6688,note_on,160,0,5,,,,,,,,6,,,43,0
6688,note_on,160,0,4,,,,,,,,4,,,55,0
6718,note_on,94,0,3,,,,,,,,2,,,72,0
6718,note_on,94,0,1,,,,,,,,11,,,76,0
6718,note_on,94,0,2,,,,,,,,0,,,76,0
6720,note_on,2,0,2,,,,,,,,0,,,77,92
6720,note_on,2,0,1,,,,,,,,11,,,81,110
6720,note_on,2,0,3,,,,,,,,2,,,74,92
6742,note_on,22,0,2,,,,,,,,0,,,77,0
6742,note_on,22,0,3,,,,,,,,2,,,74,0
6744,note_on,2,0,2,,,,,,,,0,,,76,92
6744,note_on,2,0,3,,,,,,,,2,,,72,92
6814,note_on,70,0,2,,,,,,,,0,,,76,0
6814,note_on,70,0,3,,,,,,,,2,,,72,0
6816,note_on,2,0,3,,,,,,,,2,,,71,92
6816,note_on,2,0,2,,,,,,,,0,,,74,92
6862,note_on,46,0,2,,,,,,,,0,,,74,0
6862,note_on,46,0,3,,,,,,,,2,,,71,0
6864,note_on,2,0,3,,,,,,,,2,,,69,92
6864,note_on,2,0,2,,,,,,,,0,,,72,92
6880,note_on,160,0,1,,,,,,,,11,,,81,0
6910,note_on,46,0,3,,,,,,,,2,,,69,0
6910,note_on,46,0,2,,,,,,,,0,,,72,0
6912,note_on,224,0,5,,,,,,,,6,,,43,92
6912,note_on,224,0,4,,,,,,,,4,,,55,75
6912,note_on,224,0,6,,,,,,,,8,,,31,92
6912,note_on,2,0,2,,,,,,,,0,,,74,92
6912,note_on,2,0,3,,,,,,,,2,,,71,92
6912,note_on,32,0,1,,,,,,,,11,,,71,110
6958,note_on,46,0,1,,,,,,,,11,,,71,0
6960,note_on,2,0,1,,,,,,,,11,,,69,110
7006,note_on,46,0,1,,,,,,,,11,,,69,0
7008,note_on,2,0,1,,,,,,,,11,,,71,110
7054,note_on,46,0,1,,,,,,,,11,,,71,0
7056,note_on,2,0,1,,,,,,,,11,,,72,110
7102,note_on,46,0,1,,,,,,,,11,,,72,0
7104,note_on,2,0,1,,,,,,,,11,,,74,110
7150,note_on,46,0,1,,,,,,,,11,,,74,0
7152,note_on,2,0,1,,,,,,,,11,,,72,110
7168,note_on,256,0,3,,,,,,,,2,,,71,0
7168,note_on,256,0,6,,,,,,,,8,,,31,0
7168,note_on,256,0,2,,,,,,,,0,,,74,0
7168,note_on,256,0,5,,,,,,,,6,,,43,0
7168,note_on,256,0,4,,,,,,,,4,,,55,0
7198,note_on,46,0,1,,,,,,,,11,,,72,0
7200,note_on,32,0,4,,,,,,,,4,,,67,75
7200,note_on,2,0,1,,,,,,,,11,,,74,110
7200,note_on,32,0,6,,,,,,,,8,,,43,92
7200,note_on,32,0,2,,,,,,,,0,,,67,92
7200,note_on,32,0,5,,,,,,,,6,,,55,92
7200,note_on,32,0,3,,,,,,,,2,,,67,92
7246,note_on,46,0,1,,,,,,,,11,,,74,0
7248,note_on,2,0,1,,,,,,,,11,,,76,110
7294,note_on,94,0,3,,,,,,,,2,,,67,0
7294,note_on,94,0,4,,,,,,,,4,,,67,0
7294,note_on,94,0,2,,,,,,,,0,,,67,0
7294,note_on,94,0,6,,,,,,,,8,,,43,0
7294,note_on,94,0,5,,,,,,,,6,,,55,0
7294,note_on,46,0,1,,,,,,,,11,,,76,0
7296,note_on,2,0,5,,,,,,,,6,,,43,92
7296,note_on,2,0,2,,,,,,,,0,,,55,92
7296,note_on,2,0,3,,,,,,,,2,,,55,92
7296,note_on,2,0,6,,,,,,,,8,,,31,92
7296,note_on,2,0,1,,,,,,,,11,,,77,110
7296,note_on,2,0,4,,,,,,,,4,,,55,75
7390,note_on,94,0,6,,,,,,,,8,,,31,0
7390,note_on,94,0,5,,,,,,,,6,,,43,0
7390,note_on,94,0,4,,,,,,,,4,,,55,0
7390,note_on,94,0,2,,,,,,,,0,,,55,0
7390,note_on,94,0,3,,,,,,,,2,,,55,0
7392,note_on,2,0,6,,,,,,,,8,,,43,92
7392,note_on,2,0,2,,,,,,,,0,,,67,92
7392,note_on,2,0,4,,,,,,,,4,,,67,75
7392,note_on,2,0,5,,,,,,,,6,,,55,92
7392,note_on,2,0,3,,,,,,,,2,,,67,92
7486,note_on,94,0,6,,,,,,,,8,,,43,0
7486,note_on,94,0,3,,,,,,,,2,,,67,0
7486,note_on,94,0,2,,,,,,,,0,,,67,0
7486,note_on,94,0,4,,,,,,,,4,,,67,0
7486,note_on,94,0,5,,,,,,,,6,,,55,0
7488,note_on,2,0,4,,,,,,,,4,,,55,75
7488,note_on,2,0,5,,,,,,,,6,,,43,92
7488,note_on,2,0,2,,,,,,,,0,,,55,92
7488,note_on,2,0,6,,,,,,,,8,,,31,92
7488,note_on,2,0,3,,,,,,,,2,,,55,92
7582,note_on,94,0,3,,,,,,,,2,,,55,0
7582,note_on,94,0,4,,,,,,,,4,,,55,0
7582,note_on,94,0,5,,,,,,,,6,,,43,0
7582,note_on,94,0,6,,,,,,,,8,,,31,0
7582,note_on,94,0,2,,,,,,,,0,,,55,0
7584,note_on,2,0,4,,,,,,,,4,,,67,75
7584,note_on,2,0,6,,,,,,,,8,,,43,92
7584,note_on,2,0,2,,,,,,,,0,,,67,92
7584,note_on,2,0,3,,,,,,,,2,,,67,92
7584,note_on,2,0,5,,,,,,,,6,,,55,92
7632,note_on,336,0,1,,,,,,,,11,,,77,0
7678,note_on,94,0,2,,,,,,,,0,,,67,0
7678,note_on,94,0,5,,,,,,,,6,,,55,0
7678,note_on,94,0,4,,,,,,,,4,,,67,0
7678,note_on,94,0,3,,,,,,,,2,,,67,0
7678,note_on,94,0,6,,,,,,,,8,,,43,0
7680,note_on,2,0,4,,,,,,,,4,,,55,75
7680,note_on,48,0,1,,,,,,,,11,,,71,110
7680,note_on,2,0,5,,,,,,,,6,,,43,92
7680,note_on,2,0,2,,,,,,,,0,,,55,92
7680,note_on,2,0,6,,,,,,,,8,,,31,92
7680,note_on,2,0,3,,,,,,,,2,,,55,92
7726,note_on,46,0,1,,,,,,,,11,,,71,0
7728,note_on,2,0,1,,,,,,,,11,,,69,110
7774,note_on,46,0,1,,,,,,,,11,,,69,0
7776,note_on,2,0,1,,,,,,,,11,,,71,110
7822,note_on,46,0,1,,,,,,,,11,,,71,0
7824,note_on,2,0,1,,,,,,,,11,,,72,110
7870,note_on,46,0,1,,,,,,,,11,,,72,0
7872,note_on,2,0,1,,,,,,,,11,,,74,110
7918,note_on,46,0,1,,,,,,,,11,,,74,0
7920,note_on,2,0,1,,,,,,,,11,,,72,110
7936,note_on,256,0,4,,,,,,,,4,,,55,0
7936,note_on,256,0,6,,,,,,,,8,,,31,0
7936,note_on,256,0,5,,,,,,,,6,,,43,0
7936,note_on,256,0,3,,,,,,,,2,,,55,0
7936,note_on,256,0,2,,,,,,,,0,,,55,0
7966,note_on,46,0,1,,,,,,,,11,,,72,0
7968,note_on,32,0,6,,,,,,,,8,,,43,92
7968,note_on,32,0,3,,,,,,,,2,,,67,92
7968,note_on,32,0,4,,,,,,,,4,,,67,75
7968,note_on,32,0,5,,,,,,,,6,,,55,92
7968,note_on,32,0,2,,,,,,,,0,,,67,92
7968,note_on,2,0,1,,,,,,,,11,,,74,110
8014,note_on,46,0,1,,,,,,,,11,,,74,0
8016,note_on,2,0,1,,,,,,,,11,,,76,110
8062,note_on,94,0,3,,,,,,,,2,,,67,0
8062,note_on,46,0,1,,,,,,,,11,,,76,0
8062,note_on,94,0,2,,,,,,,,0,,,67,0
8062,note_on,94,0,5,,,,,,,,6,,,55,0
8062,note_on,94,0,6,,,,,,,,8,,,43,0
8062,note_on,94,0,4,,,,,,,,4,,,67,0
8064,note_on,2,0,6,,,,,,,,8,,,31,92
8064,note_on,2,0,2,,,,,,,,0,,,55,92
8064,note_on,2,0,1,,,,,,,,11,,,77,110
8064,note_on,2,0,4,,,,,,,,4,,,55,75
8064,note_on,2,0,3,,,,,,,,2,,,55,92
8064,note_on,2,0,5,,,,,,,,6,,,43,92
8158,note_on,94,0,3,,,,,,,,2,,,55,0
8158,note_on,94,0,4,,,,,,,,4,,,55,0
8158,note_on,94,0,5,,,,,,,,6,,,43,0
8158,note_on,94,0,6,,,,,,,,8,,,31,0
8158,note_on,94,0,2,,,,,,,,0,,,55,0
8160,note_on,2,0,5,,,,,,,,6,,,55,92
8160,note_on,2,0,2,,,,,,,,0,,,67,92
8160,note_on,2,0,3,,,,,,,,2,,,67,92
8160,note_on,2,0,6,,,,,,,,8,,,43,92
8160,note_on,2,0,4,,,,,,,,4,,,67,75
8254,note_on,94,0,6,,,,,,,,8,,,43,0
8254,note_on,94,0,3,,,,,,,,2,,,67,0
8254,note_on,94,0,4,,,,,,,,4,,,67,0
8254,note_on,94,0,2,,,,,,,,0,,,67,0
8254,note_on,94,0,5,,,,,,,,6,,,55,0
8256,note_on,2,0,4,,,,,,,,4,,,55,75
8256,note_on,2,0,5,,,,,,,,6,,,43,92
8256,note_on,2,0,6,,,,,,,,8,,,31,92
8256,note_on,2,0,2,,,,,,,,0,,,55,92
8256,note_on,2,0,3,,,,,,,,2,,,55,92
8350,note_on,94,0,5,,,,,,,,6,,,43,0
8350,note_on,94,0,3,,,,,,,,2,,,55,0
8350,note_on,94,0,4,,,,,,,,4,,,55,0
8350,note_on,94,0,6,,,,,,,,8,,,31,0
8350,note_on,94,0,2,,,,,,,,0,,,55,0
8352,note_on,2,0,5,,,,,,,,6,,,55,92
8352,note_on,2,0,6,,,,,,,,8,,,43,92
8352,note_on,2,0,3,,,,,,,,2,,,67,92
8352,note_on,2,0,4,,,,,,,,4,,,67,75
8352,note_on,2,0,2,,,,,,,,0,,,67,92
8400,note_on,336,0,1,,,,,,,,11,,,77,0
8446,note_on,94,0,5,,,,,,,,6,,,55,0
8446,note_on,94,0,4,,,,,,,,4,,,67,0
8446,note_on,94,0,2,,,,,,,,0,,,67,0
8446,note_on,94,0,3,,,,,,,,2,,,67,0
8446,note_on,94,0,6,,,,,,,,8,,,43,0
8448,note_on,2,0,3,,,,,,,,2,,,55,92
8448,note_on,2,0,4,,,,,,,,4,,,55,75
8448,note_on,48,0,1,,,,,,,,11,,,77,110
8448,note_on,2,0,6,,,,,,,,8,,,31,92
8448,note_on,2,0,5,,,,,,,,6,,,43,92
8448,note_on,2,0,2,,,,,,,,0,,,55,92
8494,note_on,46,0,1,,,,,,,,11,,,77,0
8496,note_on,2,0,1,,,,,,,,11,,,76,110
8542,note_on,46,0,1,,,,,,,,11,,,76,0
8544,note_on,2,0,1,,,,,,,,11,,,77,110
8590,note_on,46,0,1,,,,,,,,11,,,77,0
8592,note_on,2,0,1,,,,,,,,11,,,79,110
8638,note_on,46,0,1,,,,,,,,11,,,79,0
8640,note_on,2,0,1,,,,,,,,11,,,81,110
8686,note_on,46,0,1,,,,,,,,11,,,81,0
8688,note_on,2,0,1,,,,,,,,11,,,79,110
8734,note_on,46,0,1,,,,,,,,11,,,79,0
8736,note_on,2,0,1,,,,,,,,11,,,81,110
8782,note_on,46,0,1,,,,,,,,11,,,81,0
8784,note_on,336,0,6,,,,,,,,8,,,31,0
8784,note_on,336,0,2,,,,,,,,0,,,55,0
8784,note_on,336,0,4,,,,,,,,4,,,55,0
8784,note_on,336,0,3,,,,,,,,2,,,55,0
8784,note_on,2,0,1,,,,,,,,11,,,83,110
8784,note_on,336,0,5,,,,,,,,6,,,43,0
8830,note_on,46,0,1,,,,,,,,11,,,83,0
8832,note_on,48,0,4,,,,,,,,4,,,60,75
8832,note_on,48,0,6,,,,,,,,8,,,36,92
8832,note_on,0,0,2,,,,,,,,0,,,72,127
8832,control_change,48,0,2,,,,,,,,0,10,127,,
8832,note_on,48,0,5,,,,,,,,6,,,48,92
8832,note_on,2,0,1,,,,,,,,11,,,84,110
8832,note_on,48,0,3,,,,,,,,2,,,72,127
8926,note_on,94,0,1,,,,,,,,11,,,84,0
8926,note_on,94,0,3,,,,,,,,2,,,72,0
8926,note_on,94,0,2,,,,,,,,0,,,72,0
8928,note_on,2,0,1,,,,,,,,11,,,79,110
8928,note_on,2,0,2,,,,,,,,0,,,79,127
8928,note_on,2,0,3,,,,,,,,2,,,79,127
8992,note_on,160,0,6,,,,,,,,8,,,36,0
8992,note_on,160,0,4,,,,,,,,4,,,60,0
8992,note_on,160,0,5,,,,,,,,6,,,48,0
9022,note_on,94,0,1,,,,,,,,11,,,79,0
9022,note_on,94,0,3,,,,,,,,2,,,79,0
9022,note_on,94,0,2,,,,,,,,0,,,79,0
9024,note_on,32,0,4,,,,,,,,4,,,76,75
9024,note_on,32,0,6,,,,,,,,8,,,52,92
9024,note_on,2,0,2,,,,,,,,0,,,76,127
9024,note_on,2,0,3,,,,,,,,2,,,76,127
9024,note_on,32,0,5,,,,,,,,6,,,64,92
9024,note_on,2,0,1,,,,,,,,11,,,76,110
9118,note_on,94,0,1,,,,,,,,11,,,76,0
9118,note_on,94,0,6,,,,,,,,8,,,52,0
9118,note_on,94,0,4,,,,,,,,4,,,76,0
9118,note_on,94,0,2,,,,,,,,0,,,76,0
9118,note_on,94,0,3,,,,,,,,2,,,76,0
9118,note_on,94,0,5,,,,,,,,6,,,64,0
9120,note_on,2,0,5,,,,,,,,6,,,62,92
9120,note_on,2,0,6,,,,,,,,8,,,50,92
9120,note_on,2,0,1,,,,,,,,11,,,74,110
9120,note_on,2,0,4,,,,,,,,4,,,74,75
9120,note_on,2,0,2,,,,,,,,0,,,74,127
9120,note_on,2,0,3,,,,,,,,2,,,74,127
9166,note_on,46,0,2,,,,,,,,0,,,74,0
9166,note_on,46,0,1,,,,,,,,11,,,74,0
9166,note_on,46,0,4,,,,,,,,4,,,74,0
9166,note_on,46,0,5,,,,,,,,6,,,62,0
9166,note_on,46,0,6,,,,,,,,8,,,50,0
9166,note_on,46,0,3,,,,,,,,2,,,74,0
9168,note_on,2,0,1,,,,,,,,11,,,72,110
9168,note_on,2,0,2,,,,,,,,0,,,72,127
9168,note_on,2,0,5,,,,,,,,6,,,60,92
9168,note_on,2,0,6,,,,,,,,8,,,48,92
9168,note_on,2,0,4,,,,,,,,4,,,72,75
9168,note_on,2,0,3,,,,,,,,2,,,72,127
9214,note_on,46,0,3,,,,,,,,2,,,72,0
9214,note_on,46,0,4,,,,,,,,4,,,72,0
9214,note_on,46,0,1,,,,,,,,11,,,72,0
9214,note_on,46,0,5,,,,,,,,6,,,60,0
9214,note_on,46,0,2,,,,,,,,0,,,72,0
9214,note_on,46,0,6,,,,,,,,8,,,48,0
9216,note_on,2,0,6,,,,,,,,8,,,50,92
9216,note_on,2,0,2,,,,,,,,0,,,74,127
9216,note_on,2,0,5,,,,,,,,6,,,62,92
9216,note_on,2,0,1,,,,,,,,11,,,74,110
9216,note_on,2,0,3,,,,,,,,2,,,74,127
9216,note_on,2,0,4,,,,,,,,4,,,74,75
9310,note_on,94,0,2,,,,,,,,0,,,74,0
9310,note_on,94,0,1,,,,,,,,11,,,74,0
9310,note_on,94,0,3,,,,,,,,2,,,74,0
9312,note_on,2,0,1,,,,,,,,11,,,79,110
9312,note_on,2,0,3,,,,,,,,2,,,79,127
9312,note_on,2,0,2,,,,,,,,0,,,79,127
9376,note_on,160,0,4,,,,,,,,4,,,74,0
9376,note_on,160,0,6,,,,,,,,8,,,50,0
9376,note_on,160,0,5,,,,,,,,6,,,62,0
9406,note_on,94,0,3,,,,,,,,2,,,79,0
9406,note_on,94,0,1,,,,,,,,11,,,79,0
9406,note_on,94,0,2,,,,,,,,0,,,79,0
9408,note_on,2,0,2,,,,,,,,0,,,74,127
9408,note_on,2,0,1,,,,,,,,11,,,74,110
9408,note_on,32,0,5,,,,,,,,6,,,62,92
9408,note_on,32,0,6,,,,,,,,8,,,50,92
9408,note_on,2,0,3,,,,,,,,2,,,74,127
9408,note_on,32,0,4,,,,,,,,4,,,74,75
9502,note_on,94,0,2,,,,,,,,0,,,74,0
9502,note_on,94,0,1,,,,,,,,11,,,74,0
9502,note_on,94,0,3,,,,,,,,2,,,74,0
9502,note_on,94,0,5,,,,,,,,6,,,62,0
9502,note_on,94,0,4,,,,,,,,4,,,74,0
9502,note_on,94,0,6,,,,,,,,8,,,50,0
9504,note_on,2,0,2,,,,,,,,0,,,72,127
9504,note_on,2,0,1,,,,,,,,11,,,72,110
9504,note_on,2,0,5,,,,,,,,6,,,60,92
9504,note_on,2,0,3,,,,,,,,2,,,72,127
9504,note_on,2,0,6,,,,,,,,8,,,48,92
9504,note_on,2,0,4,,,,,,,,4,,,72,75
9550,note_on,46,0,4,,,,,,,,4,,,72,0
9550,note_on,46,0,2,,,,,,,,0,,,72,0
9550,note_on,46,0,1,,,,,,,,11,,,72,0
9550,note_on,46,0,5,,,,,,,,6,,,60,0
9550,note_on,46,0,3,,,,,,,,2,,,72,0
9550,note_on,46,0,6,,,,,,,,8,,,48,0
9552,note_on,2,0,4,,,,,,,,4,,,71,75
9552,note_on,2,0,5,,,,,,,,6,,,59,92
9552,note_on,2,0,1,,,,,,,,11,,,71,110
9552,note_on,2,0,6,,,,,,,,8,,,47,92
9552,note_on,2,0,3,,,,,,,,2,,,71,127
9552,note_on,2,0,2,,,,,,,,0,,,71,127
9598,note_on,46,0,1,,,,,,,,11,,,71,0
9598,note_on,46,0,3,,,,,,,,2,,,71,0
9598,note_on,46,0,4,,,,,,,,4,,,71,0
9598,note_on,46,0,2,,,,,,,,0,,,71,0
9598,note_on,46,0,6,,,,,,,,8,,,47,0
9598,note_on,46,0,5,,,,,,,,6,,,59,0
9600,note_on,2,0,6,,,,,,,,8,,,48,92
9600,note_on,2,0,1,,,,,,,,11,,,72,110
9600,note_on,2,0,3,,,,,,,,2,,,72,127
9600,note_on,2,0,5,,,,,,,,6,,,60,92
9600,note_on,2,0,4,,,,,,,,4,,,72,75
9600,note_on,2,0,2,,,,,,,,0,,,72,127
9694,note_on,94,0,1,,,,,,,,11,,,72,0
9694,note_on,94,0,2,,,,,,,,0,,,72,0
9694,note_on,94,0,3,,,,,,,,2,,,72,0
9696,note_on,2,0,2,,,,,,,,0,,,79,127
9696,note_on,2,0,3,,,,,,,,2,,,79,127
9696,note_on,2,0,1,,,,,,,,11,,,79,110
9760,note_on,160,0,5,,,,,,,,6,,,60,0
9760,note_on,160,0,4,,,,,,,,4,,,72,0
9760,note_on,160,0,6,,,,,,,,8,,,48,0
9790,note_on,94,0,2,,,,,,,,0,,,79,0
9790,note_on,94,0,3,,,,,,,,2,,,79,0
9790,note_on,94,0,1,,,,,,,,11,,,79,0
9792,note_on,2,0,2,,,,,,,,0,,,72,127
9792,note_on,2,0,3,,,,,,,,2,,,72,127
9792,note_on,32,0,5,,,,,,,,6,,,60,92
9792,note_on,2,0,1,,,,,,,,11,,,72,110
9792,note_on,32,0,4,,,,,,,,4,,,72,75
9792,note_on,32,0,6,,,,,,,,8,,,48,92
9886,note_on,94,0,6,,,,,,,,8,,,48,0
9886,note_on,94,0,2,,,,,,,,0,,,72,0
9886,note_on,94,0,1,,,,,,,,11,,,72,0
9886,note_on,94,0,4,,,,,,,,4,,,72,0
9886,note_on,94,0,3,,,,,,,,2,,,72,0
9886,note_on,94,0,5,,,,,,,,6,,,60,0
9888,note_on,2,0,5,,,,,,,,6,,,59,92
9888,note_on,2,0,6,,,,,,,,8,,,47,92
9888,note_on,2,0,3,,,,,,,,2,,,71,127
9888,note_on,2,0,1,,,,,,,,11,,,71,110
9888,note_on,2,0,2,,,,,,,,0,,,71,127
9888,note_on,2,0,4,,,,,,,,4,,,71,75
9934,note_on,46,0,5,,,,,,,,6,,,59,0
9934,note_on,46,0,1,,,,,,,,11,,,71,0
9934,note_on,46,0,2,,,,,,,,0,,,71,0
9934,note_on,46,0,4,,,,,,,,4,,,71,0
9934,note_on,46,0,6,,,,,,,,8,,,47,0
9934,note_on,46,0,3,,,,,,,,2,,,71,0
9936,note_on,2,0,4,,,,,,,,4,,,69,75
9936,note_on,2,0,5,,,,,,,,6,,,57,92
9936,note_on,2,0,1,,,,,,,,11,,,69,110
9936,note_on,2,0,2,,,,,,,,0,,,69,127
9936,note_on,2,0,6,,,,,,,,8,,,45,92
9936,note_on,2,0,3,,,,,,,,2,,,69,127
9982,note_on,46,0,5,,,,,,,,6,,,57,0
9982,note_on,46,0,1,,,,,,,,11,,,69,0
9982,note_on,46,0,3,,,,,,,,2,,,69,0
9982,note_on,46,0,4,,,,,,,,4,,,69,0
9982,note_on,46,0,6,,,,,,,,8,,,45,0
9982,note_on,46,0,2,,,,,,,,0,,,69,0
9984,note_on,2,0,3,,,,,,,,2,,,71,127
9984,note_on,2,0,2,,,,,,,,0,,,71,127
9984,note_on,2,0,1,,,,,,,,11,,,71,110
9984,note_on,2,0,4,,,,,,,,4,,,71,75
9984,note_on,2,0,6,,,,,,,,8,,,47,92
9984,note_on,2,0,5,,,,,,,,6,,,59,92
10078,note_on,94,0,1,,,,,,,,11,,,71,0
10078,note_on,94,0,3,,,,,,,,2,,,71,0
10078,note_on,94,0,2,,,,,,,,0,,,71,0
10080,note_on,2,0,2,,,,,,,,0,,,79,127
10080,note_on,2,0,1,,,,,,,,11,,,79,110
10080,note_on,2,0,3,,,,,,,,2,,,79,127
10144,note_on,160,0,5,,,,,,,,6,,,59,0
10144,note_on,160,0,6,,,,,,,,8,,,47,0
10144,note_on,160,0,4,,,,,,,,4,,,71,0
10174,note_on,94,0,2,,,,,,,,0,,,79,0
10174,note_on,94,0,3,,,,,,,,2,,,79,0
10174,note_on,94,0,1,,,,,,,,11,,,79,0
10176,note_on,32,0,5,,,,,,,,6,,,59,92
10176,note_on,2,0,3,,,,,,,,2,,,71,127
10176,note_on,2,0,1,,,,,,,,11,,,71,110
10176,note_on,32,0,6,,,,,,,,8,,,47,92
10176,note_on,32,0,4,,,,,,,,4,,,71,75
10176,note_on,2,0,2,,,,,,,,0,,,71,127
10270,note_on,94,0,2,,,,,,,,0,,,71,0
10270,note_on,94,0,3,,,,,,,,2,,,71,0
10270,note_on,94,0,6,,,,,,,,8,,,47,0
10270,note_on,94,0,5,,,,,,,,6,,,59,0
10270,note_on,94,0,1,,,,,,,,11,,,71,0
10270,note_on,94,0,4,,,,,,,,4,,,71,0
10272,note_on,2,0,6,,,,,,,,8,,,45,92
10272,note_on,2,0,1,,,,,,,,11,,,69,110
10272,note_on,2,0,5,,,,,,,,6,,,57,92
10272,note_on,2,0,2,,,,,,,,0,,,69,127
10272,note_on,2,0,3,,,,,,,,2,,,69,127
10272,note_on,2,0,4,,,,,,,,4,,,69,75
10318,note_on,46,0,5,,,,,,,,6,,,57,0
10318,note_on,46,0,6,,,,,,,,8,,,45,0
10318,note_on,46,0,2,,,,,,,,0,,,69,0
10318,note_on,46,0,3,,,,,,,,2,,,69,0
10318,note_on,46,0,1,,,,,,,,11,,,69,0
10318,note_on,46,0,4,,,,,,,,4,,,69,0
10320,note_on,2,0,6,,,,,,,,8,,,43,92
10320,note_on,2,0,1,,,,,,,,11,,,67,110
10320,note_on,2,0,3,,,,,,,,2,,,67,127
10320,note_on,2,0,4,,,,,,,,4,,,67,75
10320,note_on,2,0,5,,,,,,,,6,,,55,92
10320,note_on,2,0,2,,,,,,,,0,,,67,127
10366,note_on,46,0,4,,,,,,,,4,,,67,0
10366,note_on,46,0,3,,,,,,,,2,,,67,0
10366,note_on,46,0,6,,,,,,,,8,,,43,0
10366,note_on,46,0,5,,,,,,,,6,,,55,0
10366,note_on,46,0,1,,,,,,,,11,,,67,0
10366,note_on,46,0,2,,,,,,,,0,,,67,0
10368,note_on,2,0,6,,,,,,,,8,,,45,92
10368,note_on,2,0,1,,,,,,,,11,,,69,110
10368,note_on,2,0,3,,,,,,,,2,,,69,127
10368,note_on,2,0,5,,,,,,,,6,,,57,92
10368,note_on,2,0,4,,,,,,,,4,,,69,75
10368,note_on,2,0,2,,,,,,,,0,,,69,127
10462,note_on,94,0,3,,,,,,,,2,,,69,0
10462,note_on,94,0,1,,,,,,,,11,,,69,0
10462,note_on,94,0,2,,,,,,,,0,,,69,0
10464,note_on,2,0,3,,,,,,,,2,,,79,127
10464,note_on,2,0,2,,,,,,,,0,,,79,127
10464,note_on,2,0,1,,,,,,,,11,,,79,110
10528,note_on,160,0,5,,,,,,,,6,,,57,0
10528,note_on,160,0,6,,,,,,,,8,,,45,0
10528,note_on,160,0,4,,,,,,,,4,,,69,0
10558,note_on,94,0,1,,,,,,,,11,,,79,0
10558,note_on,94,0,2,,,,,,,,0,,,79,0
10558,note_on,94,0,3,,,,,,,,2,,,79,0
10560,note_on,2,0,3,,,,,,,,2,,,69,127
10560,note_on,2,0,1,,,,,,,,11,,,69,110
10560,note_on,32,0,4,,,,,,,,4,,,69,75
10560,note_on,32,0,6,,,,,,,,8,,,45,92
10560,note_on,32,0,5,,,,,,,,6,,,57,92
10560,note_on,2,0,2,,,,,,,,0,,,69,127
10654,note_on,94,0,2,,,,,,,,0,,,69,0
10654,note_on,94,0,6,,,,,,,,8,,,45,0
10654,note_on,94,0,3,,,,,,,,2,,,69,0
10654,note_on,94,0,1,,,,,,,,11,,,69,0
10654,note_on,94,0,4,,,,,,,,4,,,69,0
10654,note_on,94,0,5,,,,,,,,6,,,57,0
10656,note_on,2,0,4,,,,,,,,4,,,67,75
10656,note_on,2,0,5,,,,,,,,6,,,55,92
10656,note_on,2,0,2,,,,,,,,0,,,67,127
10656,note_on,2,0,6,,,,,,,,8,,,43,92
10656,note_on,2,0,1,,,,,,,,11,,,67,110
10656,note_on,2,0,3,,,,,,,,2,,,67,127
10702,note_on,46,0,4,,,,,,,,4,,,67,0
10702,note_on,46,0,5,,,,,,,,6,,,55,0
10702,note_on,46,0,6,,,,,,,,8,,,43,0
10702,note_on,46,0,2,,,,,,,,0,,,67,0
10702,note_on,46,0,1,,,,,,,,11,,,67,0
10702,note_on,46,0,3,,,,,,,,2,,,67,0
10704,note_on,2,0,5,,,,,,,,6,,,53,92
10704,note_on,2,0,2,,,,,,,,0,,,65,127
10704,note_on,2,0,6,,,,,,,,8,,,41,92
10704,note_on,2,0,4,,,,,,,,4,,,65,75
10704,note_on,2,0,3,,,,,,,,2,,,65,127
10704,note_on,2,0,1,,,,,,,,11,,,65,110
10750,note_on,46,0,1,,,,,,,,11,,,65,0
10750,note_on,46,0,5,,,,,,,,6,,,53,0
10750,note_on,46,0,3,,,,,,,,2,,,65,0
10750,note_on,46,0,6,,,,,,,,8,,,41,0
10750,note_on,46,0,2,,,,,,,,0,,,65,0
10750,note_on,46,0,4,,,,,,,,4,,,65,0
10752,note_on,0,0,2,,,,,,,,0,,,67,127
10752,note_on,2,0,6,,,,,,,,8,,,43,92
10752,note_on,2,0,1,,,,,,,,11,,,67,110
10752,note_on,2,0,5,,,,,,,,6,,,55,92
10752,note_on,2,0,3,,,,,,,,2,,,67,127
10752,control_change,2,0,2,,,,,,,,0,10,64,,
10752,note_on,2,0,4,,,,,,,,4,,,67,75
10798,note_on,46,0,2,,,,,,,,0,,,67,0
10798,note_on,46,0,1,,,,,,,,11,,,67,0
10800,note_on,2,0,2,,,,,,,,0,,,65,127
10800,control_change,2,0,1,,,,,,,,11,10,0,,
10800,note_on,0,0,1,,,,,,,,11,,,65,45
10846,note_on,94,0,5,,,,,,,,6,,,55,0
10846,note_on,94,0,4,,,,,,,,4,,,67,0
10846,note_on,94,0,6,,,,,,,,8,,,43,0
10846,note_on,46,0,2,,,,,,,,0,,,65,0
10846,note_on,46,0,1,,,,,,,,11,,,65,0
10848,note_on,2,0,1,,,,,,,,11,,,67,45
10848,note_on,2,0,5,,,,,,,,6,,,55,92
10848,note_on,2,0,6,,,,,,,,8,,,43,92
10848,note_on,2,0,4,,,,,,,,4,,,62,75
10848,note_on,2,0,2,,,,,,,,0,,,67,127
10894,note_on,46,0,2,,,,,,,,0,,,67,0
10894,note_on,46,0,1,,,,,,,,11,,,67,0
10896,note_on,2,0,1,,,,,,,,11,,,69,45
10896,note_on,2,0,2,,,,,,,,0,,,69,127
10912,note_on,160,0,3,,,,,,,,2,,,67,0
10942,note_on,46,0,1,,,,,,,,11,,,69,0
10942,note_on,94,0,4,,,,,,,,4,,,62,0
10942,note_on,94,0,5,,,,,,,,6,,,55,0
10942,note_on,46,0,2,,,,,,,,0,,,69,0
10942,note_on,94,0,6,,,,,,,,8,,,43,0
10944,note_on,0,0,3,,,,,,,,2,,,67,127
10944,control_change,32,0,3,,,,,,,,2,10,64,,
10944,note_on,2,0,4,,,,,,,,4,,,62,75
10944,note_on,2,0,2,,,,,,,,0,,,71,127
10944,note_on,2,0,5,,,,,,,,6,,,55,92
10944,note_on,2,0,6,,,,,,,,8,,,43,92
10944,note_on,2,0,1,,,,,,,,11,,,71,45
10990,note_on,46,0,3,,,,,,,,2,,,67,0
10990,note_on,46,0,1,,,,,,,,11,,,71,0
10990,note_on,46,0,2,,,,,,,,0,,,71,0
10992,note_on,2,0,3,,,,,,,,2,,,65,127
10992,note_on,2,0,1,,,,,,,,11,,,69,45
10992,note_on,2,0,2,,,,,,,,0,,,69,127
11038,note_on,94,0,6,,,,,,,,8,,,43,0
11038,note_on,94,0,5,,,,,,,,6,,,55,0
11038,note_on,46,0,2,,,,,,,,0,,,69,0
11038,note_on,94,0,4,,,,,,,,4,,,62,0
11038,note_on,46,0,3,,,,,,,,2,,,65,0
11038,note_on,46,0,1,,,,,,,,11,,,69,0
11040,note_on,2,0,2,,,,,,,,0,,,71,127
11040,note_on,2,0,5,,,,,,,,6,,,55,92
11040,note_on,2,0,4,,,,,,,,4,,,62,75
11040,note_on,2,0,1,,,,,,,,11,,,71,45
11040,note_on,2,0,6,,,,,,,,8,,,43,92
11040,note_on,2,0,3,,,,,,,,2,,,67,127
11086,note_on,46,0,1,,,,,,,,11,,,71,0
11086,note_on,46,0,3,,,,,,,,2,,,67,0
11086,note_on,46,0,2,,,,,,,,0,,,71,0
11088,note_on,2,0,1,,,,,,,,11,,,72,45
11088,note_on,2,0,3,,,,,,,,2,,,69,127
11088,note_on,2,0,2,,,,,,,,0,,,72,127
11134,note_on,94,0,6,,,,,,,,8,,,43,0
11134,note_on,46,0,2,,,,,,,,0,,,72,0
11134,note_on,94,0,5,,,,,,,,6,,,55,0
11134,note_on,46,0,1,,,,,,,,11,,,72,0
11134,note_on,46,0,3,,,,,,,,2,,,69,0
11134,note_on,94,0,4,,,,,,,,4,,,62,0
11136,note_on,2,0,3,,,,,,,,2,,,71,127
11136,note_on,2,0,5,,,,,,,,6,,,55,92
11136,note_on,2,0,6,,,,,,,,8,,,43,92
11136,note_on,2,0,1,,,,,,,,11,,,74,45
11136,note_on,2,0,4,,,,,,,,4,,,62,75
11136,note_on,2,0,2,,,,,,,,0,,,74,127
11182,note_on,46,0,2,,,,,,,,0,,,74,0
11182,note_on,46,0,1,,,,,,,,11,,,74,0
11182,note_on,46,0,3,,,,,,,,2,,,71,0
11184,note_on,2,0,2,,,,,,,,0,,,72,127
11184,note_on,2,0,1,,,,,,,,11,,,72,45
11184,note_on,2,0,3,,,,,,,,2,,,69,127
11230,note_on,46,0,1,,,,,,,,11,,,72,0
11230,note_on,46,0,3,,,,,,,,2,,,69,0
11230,note_on,94,0,5,,,,,,,,6,,,55,0
11230,note_on,46,0,2,,,,,,,,0,,,72,0
11230,note_on,94,0,4,,,,,,,,4,,,62,0
11230,note_on,94,0,6,,,,,,,,8,,,43,0
11232,note_on,2,0,5,,,,,,,,6,,,55,92
11232,note_on,2,0,2,,,,,,,,0,,,74,127
11232,note_on,2,0,4,,,,,,,,4,,,62,75
11232,note_on,2,0,1,,,,,,,,11,,,74,45
11232,note_on,2,0,6,,,,,,,,8,,,43,92
11232,note_on,2,0,3,,,,,,,,2,,,71,127
11278,note_on,46,0,1,,,,,,,,11,,,74,0
11278,note_on,46,0,2,,,,,,,,0,,,74,0
11278,note_on,46,0,3,,,,,,,,2,,,71,0
11280,note_on,2,0,1,,,,,,,,11,,,76,45
11280,note_on,2,0,3,,,,,,,,2,,,72,127
11280,note_on,2,0,2,,,,,,,,0,,,76,127
11326,note_on,46,0,3,,,,,,,,2,,,72,0
11326,note_on,46,0,1,,,,,,,,11,,,76,0
11326,note_on,94,0,4,,,,,,,,4,,,62,0
11326,note_on,94,0,5,,,,,,,,6,,,55,0
11326,note_on,94,0,6,,,,,,,,8,,,43,0
11326,note_on,46,0,2,,,,,,,,0,,,76,0
11328,note_on,2,0,1,,,,,,,,11,,,77,45
11328,note_on,2,0,5,,,,,,,,6,,,55,92
11328,note_on,2,0,2,,,,,,,,0,,,77,127
11328,note_on,2,0,6,,,,,,,,8,,,43,92
11328,note_on,2,0,3,,,,,,,,2,,,74,127
11328,note_on,2,0,4,,,,,,,,4,,,59,75
11374,note_on,46,0,3,,,,,,,,2,,,74,0
11374,note_on,46,0,1,,,,,,,,11,,,77,0
11374,note_on,46,0,2,,,,,,,,0,,,77,0
11376,note_on,2,0,3,,,,,,,,2,,,72,127
11376,note_on,2,0,2,,,,,,,,0,,,76,127
11376,note_on,2,0,1,,,,,,,,11,,,76,45
11422,note_on,94,0,4,,,,,,,,4,,,59,0
11422,note_on,46,0,1,,,,,,,,11,,,76,0
11422,note_on,46,0,2,,,,,,,,0,,,76,0
11422,note_on,94,0,5,,,,,,,,6,,,55,0
11422,note_on,94,0,6,,,,,,,,8,,,43,0
11422,note_on,46,0,3,,,,,,,,2,,,72,0
11424,note_on,2,0,2,,,,,,,,0,,,77,127
11424,note_on,2,0,4,,,,,,,,4,,,59,75
11424,note_on,2,0,6,,,,,,,,8,,,43,92
11424,note_on,2,0,5,,,,,,,,6,,,55,92
11424,note_on,2,0,3,,,,,,,,2,,,74,127
11424,note_on,2,0,1,,,,,,,,11,,,77,45
11470,note_on,46,0,2,,,,,,,,0,,,77,0
11470,note_on,46,0,1,,,,,,,,11,,,77,0
11470,note_on,46,0,3,,,,,,,,2,,,74,0
11472,note_on,2,0,2,,,,,,,,0,,,79,127
11472,note_on,2,0,1,,,,,,,,11,,,79,45
11472,note_on,2,0,3,,,,,,,,2,,,76,127
11518,note_on,46,0,2,,,,,,,,0,,,79,0
11518,note_on,94,0,6,,,,,,,,8,,,43,0
11518,note_on,46,0,3,,,,,,,,2,,,76,0
11518,note_on,46,0,1,,,,,,,,11,,,79,0
11518,note_on,94,0,4,,,,,,,,4,,,59,0
11518,note_on,94,0,5,,,,,,,,6,,,55,0
11520,note_on,2,0,4,,,,,,,,4,,,55,75
11520,note_on,2,0,3,,,,,,,,2,,,76,127
11520,note_on,2,0,5,,,,,,,,6,,,48,92
11520,note_on,2,0,6,,,,,,,,8,,,36,92
11520,note_on,2,0,1,,,,,,,,11,,,72,45
11520,note_on,2,0,2,,,,,,,,0,,,72,127
11566,note_on,46,0,1,,,,,,,,11,,,72,0
11566,note_on,46,0,3,,,,,,,,2,,,76,0
11566,note_on,46,0,2,,,,,,,,0,,,72,0
11568,note_on,2,0,2,,,,,,,,0,,,71,127
11568,note_on,2,0,1,,,,,,,,11,,,71,45
11568,note_on,2,0,3,,,,,,,,2,,,74,127
11614,note_on,46,0,2,,,,,,,,0,,,71,0
11614,note_on,94,0,6,,,,,,,,8,,,36,0
11614,note_on,94,0,5,,,,,,,,6,,,48,0
11614,note_on,94,0,4,,,,,,,,4,,,55,0
11614,note_on,46,0,1,,,,,,,,11,,,71,0
11614,note_on,46,0,3,,,,,,,,2,,,74,0
11616,note_on,2,0,2,,,,,,,,0,,,72,127
11616,note_on,2,0,5,,,,,,,,6,,,48,92
11616,note_on,2,0,4,,,,,,,,4,,,55,75
11616,note_on,2,0,1,,,,,,,,11,,,72,45
11616,note_on,2,0,6,,,,,,,,8,,,36,92
11616,note_on,2,0,3,,,,,,,,2,,,76,127
11662,note_on,46,0,1,,,,,,,,11,,,72,0
11662,note_on,46,0,2,,,,,,,,0,,,72,0
11662,note_on,46,0,3,,,,,,,,2,,,76,0
11664,note_on,2,0,2,,,,,,,,0,,,74,127
11664,note_on,2,0,1,,,,,,,,11,,,74,45
11664,note_on,2,0,3,,,,,,,,2,,,77,127
11710,note_on,46,0,3,,,,,,,,2,,,77,0
11710,note_on,46,0,2,,,,,,,,0,,,74,0
11710,note_on,94,0,5,,,,,,,,6,,,48,0
11710,note_on,46,0,1,,,,,,,,11,,,74,0
11710,note_on,94,0,4,,,,,,,,4,,,55,0
11710,note_on,94,0,6,,,,,,,,8,,,36,0
11712,note_on,2,0,2,,,,,,,,0,,,76,127
11712,note_on,2,0,4,,,,,,,,4,,,55,75
11712,note_on,2,0,1,,,,,,,,11,,,76,45
11712,note_on,2,0,6,,,,,,,,8,,,36,92
11712,note_on,2,0,5,,,,,,,,6,,,48,92
11712,note_on,2,0,3,,,,,,,,2,,,72,127
11758,note_on,46,0,1,,,,,,,,11,,,76,0
11758,note_on,46,0,2,,,,,,,,0,,,76,0
11758,note_on,46,0,3,,,,,,,,2,,,72,0
11760,note_on,2,0,1,,,,,,,,11,,,74,45
11760,note_on,2,0,2,,,,,,,,0,,,74,127
11760,note_on,2,0,3,,,,,,,,2,,,71,127
11806,note_on,94,0,6,,,,,,,,8,,,36,0
11806,note_on,94,0,5,,,,,,,,6,,,48,0
11806,note_on,46,0,1,,,,,,,,11,,,74,0
11806,note_on,46,0,3,,,,,,,,2,,,71,0
11806,note_on,46,0,2,,,,,,,,0,,,74,0
11806,note_on,94,0,4,,,,,,,,4,,,55,0
11808,note_on,2,0,1,,,,,,,,11,,,76,45
11808,note_on,2,0,3,,,,,,,,2,,,72,127
11808,note_on,2,0,5,,,,,,,,6,,,48,92
11808,note_on,2,0,6,,,,,,,,8,,,36,92
11808,note_on,2,0,2,,,,,,,,0,,,76,127
11808,note_on,2,0,4,,,,,,,,4,,,55,75
11854,note_on,46,0,1,,,,,,,,11,,,76,0
11854,note_on,46,0,2,,,,,,,,0,,,76,0
11854,note_on,46,0,3,,,,,,,,2,,,72,0
11856,note_on,2,0,3,,,,,,,,2,,,74,127
11856,note_on,2,0,1,,,,,,,,11,,,77,45
11856,note_on,2,0,2,,,,,,,,0,,,77,127
11902,note_on,46,0,3,,,,,,,,2,,,74,0
11902,note_on,46,0,1,,,,,,,,11,,,77,0
11902,note_on,94,0,6,,,,,,,,8,,,36,0
11902,note_on,46,0,2,,,,,,,,0,,,77,0
11902,note_on,94,0,4,,,,,,,,4,,,55,0
11902,note_on,94,0,5,,,,,,,,6,,,48,0
11904,note_on,2,0,6,,,,,,,,8,,,36,92
11904,note_on,2,0,2,,,,,,,,0,,,79,127
11904,note_on,2,0,4,,,,,,,,4,,,55,75
11904,note_on,2,0,5,,,,,,,,6,,,48,92
11904,note_on,2,0,3,,,,,,,,2,,,76,127
11904,note_on,2,0,1,,,,,,,,11,,,79,45
11950,note_on,46,0,3,,,,,,,,2,,,76,0
11950,note_on,46,0,1,,,,,,,,11,,,79,0
11950,note_on,46,0,2,,,,,,,,0,,,79,0
11952,note_on,2,0,3,,,,,,,,2,,,74,127
11952,note_on,2,0,1,,,,,,,,11,,,77,45
11952,note_on,2,0,2,,,,,,,,0,,,77,127
11998,note_on,46,0,2,,,,,,,,0,,,77,0
11998,note_on,46,0,1,,,,,,,,11,,,77,0
11998,note_on,94,0,6,,,,,,,,8,,,36,0
11998,note_on,94,0,4,,,,,,,,4,,,55,0
11998,note_on,46,0,3,,,,,,,,2,,,74,0
11998,note_on,94,0,5,,,,,,,,6,,,48,0
12000,note_on,2,0,3,,,,,,,,2,,,76,127
12000,note_on,2,0,1,,,,,,,,11,,,79,45
12000,note_on,2,0,4,,,,,,,,4,,,55,75
12000,note_on,2,0,6,,,,,,,,8,,,36,92
12000,note_on,2,0,5,,,,,,,,6,,,48,92
12000,note_on,2,0,2,,,,,,,,0,,,79,127
12046,note_on,46,0,1,,,,,,,,11,,,79,0
12046,note_on,46,0,3,,,,,,,,2,,,76,0
12046,note_on,46,0,2,,,,,,,,0,,,79,0
12048,note_on,2,0,1,,,,,,,,11,,,81,45
12048,note_on,2,0,3,,,,,,,,2,,,77,127
12048,note_on,2,0,2,,,,,,,,0,,,81,127
12094,note_on,46,0,2,,,,,,,,0,,,81,0
12094,note_on,94,0,5,,,,,,,,6,,,48,0
12094,note_on,94,0,6,,,,,,,,8,,,36,0
12094,note_on,94,0,4,,,,,,,,4,,,55,0
12094,note_on,46,0,3,,,,,,,,2,,,77,0
12094,note_on,46,0,1,,,,,,,,11,,,81,0
12096,note_on,2,0,3,,,,,,,,2,,,79,127
12096,note_on,2,0,2,,,,,,,,0,,,82,127
12096,note_on,2,0,1,,,,,,,,11,,,82,45
12096,note_on,2,0,4,,,,,,,,4,,,64,75
12096,note_on,2,0,6,,,,,,,,8,,,36,92
12096,note_on,2,0,5,,,,,,,,6,,,48,92
12142,note_on,46,0,2,,,,,,,,0,,,82,0
12142,note_on,46,0,1,,,,,,,,11,,,82,0
12142,note_on,46,0,3,,,,,,,,2,,,79,0
12144,note_on,2,0,1,,,,,,,,11,,,81,45
12144,note_on,2,0,2,,,,,,,,0,,,81,127
12144,note_on,2,0,3,,,,,,,,2,,,77,127
12190,note_on,46,0,3,,,,,,,,2,,,77,0
12190,note_on,94,0,6,,,,,,,,8,,,36,0
12190,note_on,94,0,4,,,,,,,,4,,,64,0
12190,note_on,94,0,5,,,,,,,,6,,,48,0
12190,note_on,46,0,1,,,,,,,,11,,,81,0
12190,note_on,46,0,2,,,,,,,,0,,,81,0
12192,note_on,2,0,3,,,,,,,,2,,,79,127
12192,note_on,2,0,1,,,,,,,,11,,,82,45
12192,note_on,2,0,2,,,,,,,,0,,,82,127
12192,note_on,2,0,4,,,,,,,,4,,,64,75
12192,note_on,2,0,6,,,,,,,,8,,,36,92
12192,note_on,2,0,5,,,,,,,,6,,,48,92
12238,note_on,46,0,3,,,,,,,,2,,,79,0
12238,note_on,46,0,2,,,,,,,,0,,,82,0
12238,note_on,46,0,1,,,,,,,,11,,,82,0
12240,note_on,2,0,3,,,,,,,,2,,,81,127
12240,note_on,2,0,2,,,,,,,,0,,,84,127
12240,note_on,2,0,1,,,,,,,,11,,,84,45
12286,note_on,94,0,5,,,,,,,,6,,,48,0
12286,note_on,94,0,6,,,,,,,,8,,,36,0
12286,note_on,46,0,1,,,,,,,,11,,,84,0
12286,note_on,46,0,3,,,,,,,,2,,,81,0
12286,note_on,94,0,4,,,,,,,,4,,,64,0
12286,note_on,46,0,2,,,,,,,,0,,,84,0
12288,note_on,2,0,3,,,,,,,,2,,,77,127
12288,note_on,2,0,1,,,,,,,,11,,,81,45
12288,note_on,2,0,4,,,,,,,,4,,,60,75
12288,note_on,2,0,2,,,,,,,,0,,,81,127
12288,note_on,2,0,5,,,,,,,,6,,,53,92
12288,note_on,2,0,6,,,,,,,,8,,,41,92
12334,note_on,46,0,1,,,,,,,,11,,,81,0
12334,note_on,46,0,3,,,,,,,,2,,,77,0
12334,note_on,46,0,2,,,,,,,,0,,,81,0
12336,note_on,2,0,2,,,,,,,,0,,,82,127
12336,note_on,2,0,1,,,,,,,,11,,,82,45
12336,note_on,2,0,3,,,,,,,,2,,,79,127
12382,note_on,94,0,4,,,,,,,,4,,,60,0
12382,note_on,94,0,5,,,,,,,,6,,,53,0
12382,note_on,46,0,2,,,,,,,,0,,,82,0
12382,note_on,46,0,3,,,,,,,,2,,,79,0
12382,note_on,94,0,6,,,,,,,,8,,,41,0
12382,note_on,46,0,1,,,,,,,,11,,,82,0
12384,note_on,2,0,2,,,,,,,,0,,,81,127
12384,note_on,2,0,5,,,,,,,,6,,,53,92
12384,note_on,2,0,4,,,,,,,,4,,,60,75
12384,note_on,2,0,1,,,,,,,,11,,,81,45
12384,note_on,2,0,6,,,,,,,,8,,,41,92
12384,note_on,2,0,3,,,,,,,,2,,,77,127
12430,note_on,46,0,2,,,,,,,,0,,,81,0
12430,note_on,46,0,3,,,,,,,,2,,,77,0
12430,note_on,46,0,1,,,,,,,,11,,,81,0
12432,note_on,2,0,2,,,,,,,,0,,,79,127
12432,note_on,2,0,1,,,,,,,,11,,,79,45
12432,note_on,2,0,3,,,,,,,,2,,,76,127
12478,note_on,46,0,3,,,,,,,,2,,,76,0
12478,note_on,94,0,6,,,,,,,,8,,,41,0
12478,note_on,46,0,1,,,,,,,,11,,,79,0
12478,note_on,94,0,5,,,,,,,,6,,,53,0
12478,note_on,46,0,2,,,,,,,,0,,,79,0
12478,note_on,94,0,4,,,,,,,,4,,,60,0
12480,note_on,2,0,2,,,,,,,,0,,,77,127
12480,note_on,2,0,6,,,,,,,,8,,,41,92
12480,note_on,2,0,5,,,,,,,,6,,,53,92
12480,note_on,2,0,3,,,,,,,,2,,,74,127
12480,note_on,2,0,1,,,,,,,,11,,,77,45
12480,note_on,2,0,4,,,,,,,,4,,,60,75
12526,note_on,46,0,2,,,,,,,,0,,,77,0
12526,note_on,46,0,3,,,,,,,,2,,,74,0
12526,note_on,46,0,1,,,,,,,,11,,,77,0
12528,note_on,2,0,2,,,,,,,,0,,,76,127
12528,note_on,2,0,1,,,,,,,,11,,,76,45
12528,note_on,2,0,3,,,,,,,,2,,,72,127
12574,note_on,46,0,2,,,,,,,,0,,,76,0
12574,note_on,94,0,6,,,,,,,,8,,,41,0
12574,note_on,94,0,5,,,,,,,,6,,,53,0
12574,note_on,94,0,4,,,,,,,,4,,,60,0
12574,note_on,46,0,3,,,,,,,,2,,,72,0
12574,note_on,46,0,1,,,,,,,,11,,,76,0
12576,note_on,2,0,1,,,,,,,,11,,,74,45
12576,note_on,2,0,3,,,,,,,,2,,,71,127
12576,note_on,2,0,4,,,,,,,,4,,,60,75
12576,note_on,2,0,6,,,,,,,,8,,,41,92
12576,note_on,2,0,2,,,,,,,,0,,,74,127
12576,note_on,2,0,5,,,,,,,,6,,,53,92
12622,note_on,46,0,3,,,,,,,,2,,,71,0
12622,note_on,46,0,2,,,,,,,,0,,,74,0
12622,note_on,46,0,1,,,,,,,,11,,,74,0
12624,note_on,2,0,3,,,,,,,,2,,,69,127
12624,note_on,2,0,2,,,,,,,,0,,,72,127
12624,note_on,2,0,1,,,,,,,,11,,,72,45
12670,note_on,94,0,5,,,,,,,,6,,,53,0
12670,note_on,46,0,3,,,,,,,,2,,,69,0
12670,note_on,94,0,6,,,,,,,,8,,,41,0
12670,note_on,46,0,1,,,,,,,,11,,,72,0
12670,note_on,46,0,2,,,,,,,,0,,,72,0
12670,note_on,94,0,4,,,,,,,,4,,,60,0
12672,note_on,2,0,5,,,,,,,,6,,,53,92
12672,note_on,2,0,1,,,,,,,,11,,,77,45
12672,note_on,2,0,3,,,,,,,,2,,,81,127
12672,note_on,2,0,6,,,,,,,,8,,,41,92
12672,note_on,2,0,2,,,,,,,,0,,,77,127
12672,note_on,2,0,4,,,,,,,,4,,,60,75
12718,note_on,46,0,1,,,,,,,,11,,,77,0
12718,note_on,46,0,3,,,,,,,,2,,,81,0
12718,note_on,46,0,2,,,,,,,,0,,,77,0
12720,note_on,2,0,2,,,,,,,,0,,,79,127
12720,note_on,2,0,1,,,,,,,,11,,,79,45
12720,note_on,2,0,3,,,,,,,,2,,,82,127
12766,note_on,46,0,1,,,,,,,,11,,,79,0
12766,note_on,94,0,4,,,,,,,,4,,,60,0
12766,note_on,94,0,6,,,,,,,,8,,,41,0
12766,note_on,46,0,2,,,,,,,,0,,,79,0
12766,note_on,46,0,3,,,,,,,,2,,,82,0
12766,note_on,94,0,5,,,,,,,,6,,,53,0
12768,note_on,2,0,5,,,,,,,,6,,,53,92
12768,note_on,2,0,2,,,,,,,,0,,,77,127
12768,note_on,2,0,4,,,,,,,,4,,,60,75
12768,note_on,2,0,1,,,,,,,,11,,,77,45
12768,note_on,2,0,6,,,,,,,,8,,,41,92
12768,note_on,2,0,3,,,,,,,,2,,,81,127
12814,note_on,46,0,2,,,,,,,,0,,,77,0
12814,note_on,46,0,3,,,,,,,,2,,,81,0
12814,note_on,46,0,1,,,,,,,,11,,,77,0
12816,note_on,2,0,2,,,,,,,,0,,,76,127
12816,note_on,2,0,1,,,,,,,,11,,,76,45
12816,note_on,2,0,3,,,,,,,,2,,,79,127
12862,note_on,46,0,2,,,,,,,,0,,,76,0
12862,note_on,94,0,4,,,,,,,,4,,,60,0
12862,note_on,94,0,5,,,,,,,,6,,,53,0
12862,note_on,94,0,6,,,,,,,,8,,,41,0
12862,note_on,46,0,1,,,,,,,,11,,,76,0
12862,note_on,46,0,3,,,,,,,,2,,,79,0
12864,note_on,2,0,2,,,,,,,,0,,,74,127
12864,note_on,2,0,4,,,,,,,,4,,,69,75
12864,note_on,2,0,5,,,,,,,,6,,,53,92
12864,note_on,2,0,6,,,,,,,,8,,,41,92
12864,note_on,2,0,3,,,,,,,,2,,,77,127
12864,note_on,2,0,1,,,,,,,,11,,,74,45
12910,note_on,46,0,3,,,,,,,,2,,,77,0
12910,note_on,46,0,2,,,,,,,,0,,,74,0
12910,note_on,46,0,1,,,,,,,,11,,,74,0
12912,note_on,2,0,1,,,,,,,,11,,,72,45
12912,note_on,2,0,3,,,,,,,,2,,,76,127
12912,note_on,2,0,2,,,,,,,,0,,,72,127
12958,note_on,46,0,3,,,,,,,,2,,,76,0
12958,note_on,94,0,6,,,,,,,,8,,,41,0
12958,note_on,94,0,5,,,,,,,,6,,,53,0
12958,note_on,46,0,1,,,,,,,,11,,,72,0
12958,note_on,94,0,4,,,,,,,,4,,,69,0
12958,note_on,46,0,2,,,,,,,,0,,,72,0
12960,note_on,2,0,4,,,,,,,,4,,,69,75
12960,note_on,2,0,3,,,,,,,,2,,,74,127
12960,note_on,2,0,6,,,,,,,,8,,,41,92
12960,note_on,2,0,2,,,,,,,,0,,,71,127
12960,note_on,2,0,1,,,,,,,,11,,,71,45
12960,note_on,2,0,5,,,,,,,,6,,,53,92
13006,note_on,46,0,2,,,,,,,,0,,,71,0
13006,note_on,46,0,1,,,,,,,,11,,,71,0
13006,note_on,46,0,3,,,,,,,,2,,,74,0
13008,note_on,2,0,3,,,,,,,,2,,,72,127
13008,note_on,2,0,2,,,,,,,,0,,,69,127
13008,note_on,2,0,1,,,,,,,,11,,,69,45
13054,note_on,94,0,6,,,,,,,,8,,,41,0
13054,note_on,46,0,2,,,,,,,,0,,,69,0
13054,note_on,46,0,1,,,,,,,,11,,,69,0
13054,note_on,46,0,3,,,,,,,,2,,,72,0
13054,note_on,94,0,4,,,,,,,,4,,,69,0
13054,note_on,94,0,5,,,,,,,,6,,,53,0
13056,note_on,2,0,6,,,,,,,,8,,,43,92
13056,note_on,2,0,2,,,,,,,,0,,,67,127
13056,note_on,2,0,3,,,,,,,,2,,,71,127
13056,note_on,2,0,4,,,,,,,,4,,,62,75
13056,note_on,2,0,5,,,,,,,,6,,,55,92
13056,note_on,2,0,1,,,,,,,,11,,,67,45
13150,note_on,94,0,4,,,,,,,,4,,,62,0
13150,note_on,94,0,6,,,,,,,,8,,,43,0
13150,note_on,94,0,2,,,,,,,,0,,,67,0
13150,note_on,94,0,5,,,,,,,,6,,,55,0
13150,note_on,94,0,3,,,,,,,,2,,,71,0
13150,note_on,94,0,1,,,,,,,,11,,,67,0
13152,note_on,2,0,2,,,,,,,,0,,,72,127
13152,note_on,2,0,3,,,,,,,,2,,,72,127
13152,note_on,2,0,1,,,,,,,,11,,,72,45
13152,note_on,2,0,6,,,,,,,,8,,,36,92
13152,note_on,2,0,4,,,,,,,,4,,,64,75
13152,note_on,2,0,5,,,,,,,,6,,,48,92
13246,note_on,94,0,2,,,,,,,,0,,,72,0
13246,note_on,94,0,3,,,,,,,,2,,,72,0
13246,note_on,94,0,1,,,,,,,,11,,,72,0
13246,note_on,94,0,5,,,,,,,,6,,,48,0
13246,note_on,94,0,6,,,,,,,,8,,,36,0
13246,note_on,94,0,4,,,,,,,,4,,,64,0
13248,note_on,2,0,4,,,,,,,,4,,,62,75
13248,note_on,2,0,3,,,,,,,,2,,,55,127
13248,note_on,2,0,1,,,,,,,,11,,,67,45
13248,note_on,2,0,6,,,,,,,,8,,,43,92
13248,note_on,2,0,2,,,,,,,,0,,,55,127
13248,note_on,2,0,5,,,,,,,,6,,,55,92
13342,note_on,94,0,6,,,,,,,,8,,,43,0
13342,note_on,94,0,1,,,,,,,,11,,,67,0
13342,note_on,94,0,4,,,,,,,,4,,,62,0
13342,note_on,94,0,5,,,,,,,,6,,,55,0
13342,note_on,94,0,3,,,,,,,,2,,,55,0
13342,note_on,94,0,2,,,,,,,,0,,,55,0
13344,note_on,2,0,5,,,,,,,,6,,,43,92
13344,note_on,2,0,6,,,,,,,,8,,,31,92
13344,note_on,2,0,3,,,,,,,,2,,,71,127
13344,note_on,2,0,4,,,,,,,,4,,,62,75
13344,note_on,2,0,1,,,,,,,,11,,,71,45
13344,note_on,2,0,2,,,,,,,,0,,,71,127
13438,note_on,94,0,6,,,,,,,,8,,,31,0
13438,note_on,94,0,3,,,,,,,,2,,,71,0
13438,note_on,94,0,2,,,,,,,,0,,,71,0
13438,note_on,94,0,1,,,,,,,,11,,,71,0
13438,note_on,94,0,5,,,,,,,,6,,,43,0
13438,note_on,94,0,4,,,,,,,,4,,,62,0
13440,note_on,2,0,2,,,,,,,,0,,,72,127
13440,note_on,2,0,5,,,,,,,,6,,,48,92
13440,note_on,2,0,1,,,,,,,,11,,,72,45
13440,note_on,2,0,6,,,,,,,,8,,,36,92
13440,note_on,2,0,4,,,,,,,,4,,,64,75
13440,note_on,2,0,3,,,,,,,,2,,,72,127
13486,note_on,46,0,2,,,,,,,,0,,,72,0
13486,note_on,46,0,1,,,,,,,,11,,,72,0
13488,note_on,2,0,2,,,,,,,,0,,,71,127
13488,note_on,2,0,1,,,,,,,,11,,,71,45
13534,note_on,94,0,5,,,,,,,,6,,,48,0
13534,note_on,46,0,1,,,,,,,,11,,,71,0
13534,note_on,94,0,6,,,,,,,,8,,,36,0
13534,note_on,94,0,4,,,,,,,,4,,,64,0
13534,note_on,46,0,2,,,,,,,,0,,,71,0
13536,note_on,2,0,2,,,,,,,,0,,,72,127
13536,note_on,2,0,6,,,,,,,,8,,,36,92
13536,note_on,2,0,4,,,,,,,,4,,,64,75
13536,note_on,2,0,5,,,,,,,,6,,,48,92
13536,note_on,2,0,1,,,,,,,,11,,,72,45
13582,note_on,46,0,2,,,,,,,,0,,,72,0
13582,note_on,46,0,1,,,,,,,,11,,,72,0
13584,note_on,2,0,2,,,,,,,,0,,,74,127
13584,note_on,2,0,1,,,,,,,,11,,,74,45
13600,note_on,160,0,3,,,,,,,,2,,,72,0
13630,note_on,46,0,1,,,,,,,,11,,,74,0
13630,note_on,46,0,2,,,,,,,,0,,,74,0
13630,note_on,94,0,4,,,,,,,,4,,,64,0
13630,note_on,94,0,6,,,,,,,,8,,,36,0
13630,note_on,94,0,5,,,,,,,,6,,,48,0
13632,note_on,2,0,1,,,,,,,,11,,,76,45
13632,note_on,2,0,6,,,,,,,,8,,,36,92
13632,note_on,2,0,2,,,,,,,,0,,,76,127
13632,note_on,32,0,3,,,,,,,,2,,,72,127
13632,note_on,2,0,5,,,,,,,,6,,,48,92
13632,note_on,2,0,4,,,,,,,,4,,,64,75
13678,note_on,46,0,1,,,,,,,,11,,,76,0
13678,note_on,46,0,2,,,,,,,,0,,,76,0
13678,note_on,46,0,3,,,,,,,,2,,,72,0
13680,note_on,2,0,1,,,,,,,,11,,,74,45
13680,note_on,2,0,2,,,,,,,,0,,,74,127
13680,note_on,2,0,3,,,,,,,,2,,,71,127
13726,note_on,46,0,3,,,,,,,,2,,,71,0
13726,note_on,94,0,5,,,,,,,,6,,,48,0
13726,note_on,46,0,1,,,,,,,,11,,,74,0
13726,note_on,46,0,2,,,,,,,,0,,,74,0
13726,note_on,94,0,4,,,,,,,,4,,,64,0
13726,note_on,94,0,6,,,,,,,,8,,,36,0
13728,note_on,2,0,1,,,,,,,,11,,,76,45
13728,note_on,2,0,4,,,,,,,,4,,,64,75
13728,note_on,2,0,2,,,,,,,,0,,,76,127
13728,note_on,2,0,5,,,,,,,,6,,,48,92
13728,note_on,2,0,3,,,,,,,,2,,,72,127
13728,note_on,2,0,6,,,,,,,,8,,,36,92
13774,note_on,46,0,3,,,,,,,,2,,,72,0
13774,note_on,46,0,1,,,,,,,,11,,,76,0
13774,note_on,46,0,2,,,,,,,,0,,,76,0
13776,note_on,2,0,3,,,,,,,,2,,,74,127
13776,note_on,2,0,1,,,,,,,,11,,,77,45
13776,note_on,2,0,2,,,,,,,,0,,,77,127
13822,note_on,94,0,4,,,,,,,,4,,,64,0
13822,note_on,94,0,5,,,,,,,,6,,,48,0
13822,note_on,46,0,1,,,,,,,,11,,,77,0
13822,note_on,94,0,6,,,,,,,,8,,,36,0
13822,note_on,46,0,3,,,,,,,,2,,,74,0
13822,note_on,46,0,2,,,,,,,,0,,,77,0
13824,note_on,2,0,2,,,,,,,,0,,,79,127
13824,note_on,2,0,1,,,,,,,,11,,,79,45
13824,note_on,2,0,5,,,,,,,,6,,,48,92
13824,note_on,2,0,4,,,,,,,,4,,,64,75
13824,note_on,2,0,6,,,,,,,,8,,,36,92
13824,note_on,2,0,3,,,,,,,,2,,,76,127
13870,note_on,46,0,2,,,,,,,,0,,,79,0
13870,note_on,46,0,3,,,,,,,,2,,,76,0
13870,note_on,46,0,1,,,,,,,,11,,,79,0
13872,note_on,2,0,1,,,,,,,,11,,,77,45
13872,note_on,2,0,2,,,,,,,,0,,,77,127
13872,note_on,2,0,3,,,,,,,,2,,,74,127
13918,note_on,94,0,4,,,,,,,,4,,,64,0
13918,note_on,46,0,1,,,,,,,,11,,,77,0
13918,note_on,46,0,2,,,,,,,,0,,,77,0
13918,note_on,94,0,6,,,,,,,,8,,,36,0
13918,note_on,94,0,5,,,,,,,,6,,,48,0
13918,note_on,46,0,3,,,,,,,,2,,,74,0
13920,note_on,2,0,4,,,,,,,,4,,,64,75
13920,note_on,2,0,6,,,,,,,,8,,,36,92
13920,note_on,2,0,3,,,,,,,,2,,,76,127
13920,note_on,2,0,1,,,,,,,,11,,,79,45
13920,note_on,2,0,5,,,,,,,,6,,,48,92
13920,note_on,2,0,2,,,,,,,,0,,,79,127
13966,note_on,46,0,3,,,,,,,,2,,,76,0
13966,note_on,46,0,1,,,,,,,,11,,,79,0
13966,note_on,46,0,2,,,,,,,,0,,,79,0
13968,note_on,2,0,3,,,,,,,,2,,,77,127
13968,note_on,2,0,2,,,,,,,,0,,,81,127
13968,note_on,2,0,1,,,,,,,,11,,,81,45
14014,note_on,46,0,3,,,,,,,,2,,,77,0
14014,note_on,94,0,4,,,,,,,,4,,,64,0
14014,note_on,46,0,2,,,,,,,,0,,,81,0
14014,note_on,46,0,1,,,,,,,,11,,,81,0
14014,note_on,94,0,5,,,,,,,,6,,,48,0
14014,note_on,94,0,6,,,,,,,,8,,,36,0
14016,note_on,2,0,2,,,,,,,,0,,,82,127
14016,note_on,2,0,6,,,,,,,,8,,,36,92
14016,note_on,2,0,1,,,,,,,,11,,,82,45
14016,note_on,2,0,4,,,,,,,,4,,,64,75
14016,note_on,2,0,5,,,,,,,,6,,,48,92
14016,note_on,2,0,3,,,,,,,,2,,,79,127
14062,note_on,46,0,2,,,,,,,,0,,,82,0
14062,note_on,46,0,1,,,,,,,,11,,,82,0
14062,note_on,46,0,3,,,,,,,,2,,,79,0
14064,note_on,2,0,3,,,,,,,,2,,,77,127
14064,note_on,2,0,1,,,,,,,,11,,,81,45
14064,note_on,2,0,2,,,,,,,,0,,,81,127
14110,note_on,46,0,2,,,,,,,,0,,,81,0
14110,note_on,94,0,4,,,,,,,,4,,,64,0
14110,note_on,46,0,3,,,,,,,,2,,,77,0
14110,note_on,94,0,6,,,,,,,,8,,,36,0
14110,note_on,46,0,1,,,,,,,,11,,,81,0
14110,note_on,94,0,5,,,,,,,,6,,,48,0
14112,note_on,2,0,3,,,,,,,,2,,,79,127
14112,note_on,2,0,6,,,,,,,,8,,,36,92
14112,note_on,2,0,2,,,,,,,,0,,,82,127
14112,note_on,2,0,4,,,,,,,,4,,,64,75
14112,note_on,2,0,5,,,,,,,,6,,,48,92
14112,note_on,2,0,1,,,,,,,,11,,,82,45
14158,note_on,46,0,3,,,,,,,,2,,,79,0
14158,note_on,46,0,2,,,,,,,,0,,,82,0
14158,note_on,46,0,1,,,,,,,,11,,,82,0
14160,note_on,2,0,2,,,,,,,,0,,,84,127
14160,note_on,2,0,3,,,,,,,,2,,,81,127
14160,note_on,2,0,1,,,,,,,,11,,,84,45
14206,note_on,46,0,2,,,,,,,,0,,,84,0
14206,note_on,46,0,1,,,,,,,,11,,,84,0
14206,note_on,94,0,6,,,,,,,,8,,,36,0
14206,note_on,46,0,3,,,,,,,,2,,,81,0
14206,note_on,94,0,4,,,,,,,,4,,,64,0
14206,note_on,94,0,5,,,,,,,,6,,,48,0
14208,note_on,2,0,6,,,,,,,,8,,,41,92
14208,note_on,2,0,5,,,,,,,,6,,,53,92
14208,note_on,2,0,4,,,,,,,,4,,,60,75
14208,note_on,2,0,3,,,,,,,,2,,,77,127
14208,note_on,2,0,2,,,,,,,,0,,,81,127
14208,note_on,2,0,1,,,,,,,,11,,,81,45
14254,note_on,46,0,2,,,,,,,,0,,,81,0
14254,note_on,46,0,3,,,,,,,,2,,,77,0
14254,note_on,46,0,1,,,,,,,,11,,,81,0
14256,note_on,2,0,2,,,,,,,,0,,,82,127
14256,note_on,2,0,3,,,,,,,,2,,,79,127
14256,note_on,2,0,1,,,,,,,,11,,,82,45
14302,note_on,94,0,6,,,,,,,,8,,,41,0
14302,note_on,46,0,2,,,,,,,,0,,,82,0
14302,note_on,46,0,3,,,,,,,,2,,,79,0
14302,note_on,46,0,1,,,,,,,,11,,,82,0
14302,note_on,94,0,5,,,,,,,,6,,,53,0
14302,note_on,94,0,4,,,,,,,,4,,,60,0
14304,note_on,2,0,5,,,,,,,,6,,,53,92
14304,note_on,2,0,6,,,,,,,,8,,,41,92
14304,note_on,2,0,2,,,,,,,,0,,,81,127
14304,note_on,2,0,1,,,,,,,,11,,,81,45
14304,note_on,2,0,3,,,,,,,,2,,,77,127
14304,note_on,2,0,4,,,,,,,,4,,,60,75
14350,note_on,46,0,1,,,,,,,,11,,,81,0
14350,note_on,46,0,3,,,,,,,,2,,,77,0
14350,note_on,46,0,2,,,,,,,,0,,,81,0
14352,note_on,2,0,1,,,,,,,,11,,,79,45
14352,note_on,2,0,3,,,,,,,,2,,,76,127
14352,note_on,2,0,2,,,,,,,,0,,,79,127
14398,note_on,94,0,5,,,,,,,,6,,,53,0
14398,note_on,46,0,3,,,,,,,,2,,,76,0
14398,note_on,94,0,4,,,,,,,,4,,,60,0
14398,note_on,46,0,2,,,,,,,,0,,,79,0
14398,note_on,46,0,1,,,,,,,,11,,,79,0
14398,note_on,94,0,6,,,,,,,,8,,,41,0
14400,note_on,2,0,2,,,,,,,,0,,,77,127
14400,note_on,2,0,6,,,,,,,,8,,,41,92
14400,note_on,2,0,5,,,,,,,,6,,,53,92
14400,note_on,2,0,1,,,,,,,,11,,,77,45
14400,note_on,2,0,4,,,,,,,,4,,,60,75
14400,note_on,2,0,3,,,,,,,,2,,,74,127
14446,note_on,46,0,2,,,,,,,,0,,,77,0
14446,note_on,46,0,3,,,,,,,,2,,,74,0
14446,note_on,46,0,1,,,,,,,,11,,,77,0
14448,note_on,2,0,1,,,,,,,,11,,,76,45
14448,note_on,2,0,3,,,,,,,,2,,,72,127
14448,note_on,2,0,2,,,,,,,,0,,,76,127
14494,note_on,46,0,3,,,,,,,,2,,,72,0
14494,note_on,94,0,5,,,,,,,,6,,,53,0
14494,note_on,46,0,1,,,,,,,,11,,,76,0
14494,note_on,46,0,2,,,,,,,,0,,,76,0
14494,note_on,94,0,4,,,,,,,,4,,,60,0
14494,note_on,94,0,6,,,,,,,,8,,,41,0
14496,note_on,2,0,4,,,,,,,,4,,,60,75
14496,note_on,2,0,6,,,,,,,,8,,,41,92
14496,note_on,2,0,5,,,,,,,,6,,,53,92
14496,note_on,2,0,3,,,,,,,,2,,,71,127
14496,note_on,2,0,1,,,,,,,,11,,,74,45
14496,note_on,2,0,2,,,,,,,,0,,,74,127
14542,note_on,46,0,2,,,,,,,,0,,,74,0
14542,note_on,46,0,1,,,,,,,,11,,,74,0
14542,note_on,46,0,3,,,,,,,,2,,,71,0
14544,note_on,2,0,2,,,,,,,,0,,,72,127
14544,note_on,2,0,1,,,,,,,,11,,,72,45
14544,note_on,2,0,3,,,,,,,,2,,,69,127
14590,note_on,46,0,2,,,,,,,,0,,,72,0
14590,note_on,46,0,3,,,,,,,,2,,,69,0
14590,note_on,46,0,1,,,,,,,,11,,,72,0
14590,note_on,94,0,6,,,,,,,,8,,,41,0
14590,note_on,94,0,5,,,,,,,,6,,,53,0
14590,note_on,94,0,4,,,,,,,,4,,,60,0
14592,note_on,2,0,3,,,,,,,,2,,,81,127
14592,note_on,2,0,5,,,,,,,,6,,,53,92
14592,note_on,2,0,2,,,,,,,,0,,,77,127
14592,note_on,2,0,4,,,,,,,,4,,,60,75
14592,note_on,2,0,1,,,,,,,,11,,,77,45
14592,note_on,2,0,6,,,,,,,,8,,,41,92
14638,note_on,46,0,3,,,,,,,,2,,,81,0
14638,note_on,46,0,1,,,,,,,,11,,,77,0
14638,note_on,46,0,2,,,,,,,,0,,,77,0
14640,note_on,2,0,3,,,,,,,,2,,,82,127
14640,note_on,2,0,2,,,,,,,,0,,,79,127
14640,note_on,2,0,1,,,,,,,,11,,,79,45
14686,note_on,94,0,4,,,,,,,,4,,,60,0
14686,note_on,94,0,5,,,,,,,,6,,,53,0
14686,note_on,46,0,1,,,,,,,,11,,,79,0
14686,note_on,46,0,3,,,,,,,,2,,,82,0
14686,note_on,46,0,2,,,,,,,,0,,,79,0
14686,note_on,94,0,6,,,,,,,,8,,,41,0
14688,note_on,2,0,4,,,,,,,,4,,,60,75
14688,note_on,2,0,3,,,,,,,,2,,,81,127
14688,note_on,2,0,2,,,,,,,,0,,,77,127
14688,note_on,2,0,1,,,,,,,,11,,,77,45
14688,note_on,2,0,6,,,,,,,,8,,,41,92
14688,note_on,2,0,5,,,,,,,,6,,,53,92
14734,note_on,46,0,2,,,,,,,,0,,,77,0
14734,note_on,46,0,1,,,,,,,,11,,,77,0
14734,note_on,46,0,3,,,,,,,,2,,,81,0
14736,note_on,2,0,1,,,,,,,,11,,,76,45
14736,note_on,2,0,3,,,,,,,,2,,,79,127
14736,note_on,2,0,2,,,,,,,,0,,,76,127
14782,note_on,94,0,6,,,,,,,,8,,,41,0
14782,note_on,46,0,2,,,,,,,,0,,,76,0
14782,note_on,94,0,4,,,,,,,,4,,,60,0
14782,note_on,46,0,1,,,,,,,,11,,,76,0
14782,note_on,94,0,5,,,,,,,,6,,,53,0
14782,note_on,46,0,3,,,,,,,,2,,,79,0
14784,note_on,2,0,5,,,,,,,,6,,,53,92
14784,note_on,2,0,4,,,,,,,,4,,,69,75
14784,note_on,2,0,6,,,,,,,,8,,,41,92
14784,note_on,2,0,2,,,,,,,,0,,,74,127
14784,note_on,2,0,1,,,,,,,,11,,,74,45
14784,note_on,2,0,3,,,,,,,,2,,,77,127
14830,note_on,46,0,1,,,,,,,,11,,,74,0
14830,note_on,46,0,3,,,,,,,,2,,,77,0
14830,note_on,46,0,2,,,,,,,,0,,,74,0
14832,note_on,2,0,2,,,,,,,,0,,,72,127
14832,note_on,2,0,1,,,,,,,,11,,,72,45
14832,note_on,2,0,3,,,,,,,,2,,,76,127
14878,note_on,46,0,1,,,,,,,,11,,,72,0
14878,note_on,94,0,4,,,,,,,,4,,,69,0
14878,note_on,94,0,5,,,,,,,,6,,,53,0
14878,note_on,94,0,6,,,,,,,,8,,,41,0
14878,note_on,46,0,3,,,,,,,,2,,,76,0
14878,note_on,46,0,2,,,,,,,,0,,,72,0
14880,note_on,2,0,3,,,,,,,,2,,,74,127
14880,note_on,2,0,4,,,,,,,,4,,,69,75
14880,note_on,2,0,6,,,,,,,,8,,,41,92
14880,note_on,2,0,2,,,,,,,,0,,,71,127
14880,note_on,2,0,5,,,,,,,,6,,,53,92
14880,note_on,2,0,1,,,,,,,,11,,,71,45
14926,note_on,46,0,3,,,,,,,,2,,,74,0
14926,note_on,46,0,2,,,,,,,,0,,,71,0
14926,note_on,46,0,1,,,,,,,,11,,,71,0
14928,note_on,2,0,1,,,,,,,,11,,,69,45
14928,note_on,2,0,2,,,,,,,,0,,,69,127
14928,note_on,2,0,3,,,,,,,,2,,,72,127
14974,note_on,46,0,3,,,,,,,,2,,,72,0
14974,note_on,46,0,1,,,,,,,,11,,,69,0
14974,note_on,94,0,6,,,,,,,,8,,,41,0
14974,note_on,94,0,4,,,,,,,,4,,,69,0
14974,note_on,94,0,5,,,,,,,,6,,,53,0
14974,note_on,46,0,2,,,,,,,,0,,,69,0
14976,note_on,2,0,5,,,,,,,,6,,,55,92
14976,note_on,2,0,3,,,,,,,,2,,,71,127
14976,note_on,2,0,2,,,,,,,,0,,,67,127
14976,note_on,2,0,6,,,,,,,,8,,,43,92
14976,note_on,2,0,1,,,,,,,,11,,,67,45
14976,note_on,2,0,4,,,,,,,,4,,,62,75
15070,note_on,94,0,4,,,,,,,,4,,,62,0
15070,note_on,94,0,1,,,,,,,,11,,,67,0
15070,note_on,94,0,3,,,,,,,,2,,,71,0
15070,note_on,94,0,2,,,,,,,,0,,,67,0
15070,note_on,94,0,6,,,,,,,,8,,,43,0
15070,note_on,94,0,5,,,,,,,,6,,,55,0
15072,note_on,2,0,1,,,,,,,,11,,,72,45
15072,note_on,2,0,4,,,,,,,,4,,,64,75
15072,note_on,2,0,3,,,,,,,,2,,,72,127
15072,note_on,2,0,5,,,,,,,,6,,,48,92
15072,note_on,2,0,6,,,,,,,,8,,,36,92
15072,note_on,2,0,2,,,,,,,,0,,,72,127
15166,note_on,94,0,1,,,,,,,,11,,,72,0
15166,note_on,94,0,3,,,,,,,,2,,,72,0
15166,note_on,94,0,5,,,,,,,,6,,,48,0
15166,note_on,94,0,4,,,,,,,,4,,,64,0
15166,note_on,94,0,2,,,,,,,,0,,,72,0
15166,note_on,94,0,6,,,,,,,,8,,,36,0
15168,note_on,2,0,3,,,,,,,,2,,,55,127
15168,note_on,2,0,4,,,,,,,,4,,,62,75
15168,note_on,2,0,6,,,,,,,,8,,,43,92
15168,note_on,2,0,1,,,,,,,,11,,,67,45
15168,note_on,2,0,5,,,,,,,,6,,,55,92
15168,note_on,2,0,2,,,,,,,,0,,,55,127
15262,note_on,94,0,3,,,,,,,,2,,,55,0
15262,note_on,94,0,1,,,,,,,,11,,,67,0
15262,note_on,94,0,4,,,,,,,,4,,,62,0
15262,note_on,94,0,5,,,,,,,,6,,,55,0
15262,note_on,94,0,2,,,,,,,,0,,,55,0
15262,note_on,94,0,6,,,,,,,,8,,,43,0
15264,note_on,2,0,1,,,,,,,,11,,,71,45
15264,note_on,2,0,5,,,,,,,,6,,,43,92
15264,note_on,2,0,6,,,,,,,,8,,,31,92
15264,note_on,2,0,4,,,,,,,,4,,,62,75
15264,note_on,2,0,3,,,,,,,,2,,,71,127
15264,note_on,2,0,2,,,,,,,,0,,,71,127
15358,note_on,94,0,5,,,,,,,,6,,,43,0
15358,note_on,94,0,4,,,,,,,,4,,,62,0
15358,note_on,94,0,1,,,,,,,,11,,,71,0
15358,note_on,94,0,6,,,,,,,,8,,,31,0
15358,note_on,94,0,2,,,,,,,,0,,,71,0
15358,note_on,94,0,3,,,,,,,,2,,,71,0
15360,note_on,2,0,4,,,,,,,,4,,,64,75
15360,note_on,2,0,1,,,,,,,,11,,,72,45
15360,note_on,2,0,2,,,,,,,,0,,,72,127
15360,note_on,2,0,3,,,,,,,,2,,,72,127
15360,note_on,2,0,6,,,,,,,,8,,,36,92
15360,note_on,2,0,5,,,,,,,,6,,,48,92
15696,note_on,336,0,5,,,,,,,,6,,,48,0
15696,note_on,336,0,6,,,,,,,,8,,,36,0
15696,note_on,336,0,1,,,,,,,,11,,,72,0
15696,note_on,336,0,2,,,,,,,,0,,,72,0
15696,note_on,336,0,3,,,,,,,,2,,,72,0
15696,note_on,336,0,4,,,,,,,,4,,,64,0
15744,note_on,48,0,5,,,,,,,,6,,,48,92
15744,note_on,0,0,1,,,,,,,,11,,,72,127
15744,control_change,48,0,1,,,,,,,,11,10,64,,
15790,note_on,46,0,1,,,,,,,,11,,,72,0
15792,note_on,2,0,1,,,,,,,,11,,,74,127
15838,note_on,46,0,1,,,,,,,,11,,,74,0
15840,note_on,2,0,1,,,,,,,,11,,,76,127
15904,note_on,160,0,5,,,,,,,,6,,,48,0
15934,note_on,94,0,1,,,,,,,,11,,,76,0
15936,note_on,2,0,1,,,,,,,,11,,,74,127
15936,note_on,32,0,5,,,,,,,,6,,,47,92
15982,note_on,46,0,1,,,,,,,,11,,,74,0
15984,note_on,2,0,1,,,,,,,,11,,,76,127
16030,note_on,46,0,1,,,,,,,,11,,,76,0
16032,note_on,2,0,1,,,,,,,,11,,,77,127
16096,note_on,160,0,5,,,,,,,,6,,,47,0
16126,note_on,94,0,1,,,,,,,,11,,,77,0
16128,note_on,2,0,1,,,,,,,,11,,,76,127
16128,note_on,32,0,5,,,,,,,,6,,,48,92
16174,note_on,46,0,1,,,,,,,,11,,,76,0
16176,note_on,2,0,1,,,,,,,,11,,,77,127
16222,note_on,46,0,1,,,,,,,,11,,,77,0
16224,note_on,2,0,1,,,,,,,,11,,,79,127
16288,note_on,160,0,5,,,,,,,,6,,,48,0
16318,note_on,94,0,1,,,,,,,,11,,,79,0
16320,note_on,2,0,1,,,,,,,,11,,,77,127
16320,note_on,32,0,5,,,,,,,,6,,,50,92
16366,note_on,46,0,1,,,,,,,,11,,,77,0
16368,note_on,2,0,1,,,,,,,,11,,,79,127
16414,note_on,46,0,1,,,,,,,,11,,,79,0
16416,note_on,2,0,1,,,,,,,,11,,,81,127
16480,note_on,160,0,5,,,,,,,,6,,,50,0
16510,note_on,94,0,1,,,,,,,,11,,,81,0
16512,note_on,2,0,1,,,,,,,,11,,,79,127
16512,note_on,32,0,5,,,,,,,,6,,,52,92
16606,note_on,94,0,1,,,,,,,,11,,,79,0
16608,note_on,2,0,1,,,,,,,,11,,,77,127
16654,note_on,46,0,1,,,,,,,,11,,,77,0
16656,note_on,2,0,1,,,,,,,,11,,,76,127
16702,note_on,46,0,1,,,,,,,,11,,,76,0
16704,note_on,2,0,1,,,,,,,,11,,,74,127
16798,note_on,94,0,1,,,,,,,,11,,,74,0
16800,note_on,2,0,1,,,,,,,,11,,,72,127
16848,note_on,336,0,5,,,,,,,,6,,,52,0
16894,note_on,94,0,1,,,,,,,,11,,,72,0
16896,note_on,2,0,1,,,,,,,,11,,,77,127
16896,note_on,48,0,5,,,,,,,,6,,,53,92
16942,note_on,46,0,1,,,,,,,,11,,,77,0
16944,note_on,2,0,1,,,,,,,,11,,,79,127
16990,note_on,46,0,1,,,,,,,,11,,,79,0
16992,note_on,2,0,1,,,,,,,,11,,,81,127
17056,note_on,160,0,5,,,,,,,,6,,,53,0
17086,note_on,94,0,1,,,,,,,,11,,,81,0
17088,note_on,32,0,5,,,,,,,,6,,,52,92
17088,note_on,2,0,1,,,,,,,,11,,,79,127
17248,note_on,160,0,1,,,,,,,,11,,,79,0
17248,note_on,160,0,5,,,,,,,,6,,,52,0
17280,note_on,32,0,1,,,,,,,,11,,,72,127
17280,note_on,32,0,5,,,,,,,,6,,,48,92
17326,note_on,46,0,1,,,,,,,,11,,,72,0
17328,note_on,2,0,1,,,,,,,,11,,,74,127
17374,note_on,46,0,1,,,,,,,,11,,,74,0
17376,note_on,2,0,1,,,,,,,,11,,,76,127
17440,note_on,160,0,5,,,,,,,,6,,,48,0
17470,note_on,94,0,1,,,,,,,,11,,,76,0
17472,note_on,32,0,5,,,,,,,,6,,,47,92
17472,note_on,2,0,1,,,,,,,,11,,,74,127
17518,note_on,46,0,1,,,,,,,,11,,,74,0
17520,note_on,2,0,1,,,,,,,,11,,,76,127
17566,note_on,46,0,1,,,,,,,,11,,,76,0
17568,note_on,2,0,1,,,,,,,,11,,,77,127
17632,note_on,160,0,5,,,,,,,,6,,,47,0
17662,note_on,94,0,1,,,,,,,,11,,,77,0
17664,note_on,32,0,5,,,,,,,,6,,,48,92
17664,note_on,2,0,1,,,,,,,,11,,,76,127
17710,note_on,46,0,1,,,,,,,,11,,,76,0
17712,note_on,2,0,1,,,,,,,,11,,,77,127
17758,note_on,46,0,1,,,,,,,,11,,,77,0
17760,note_on,2,0,1,,,,,,,,11,,,79,127
17824,note_on,160,0,5,,,,,,,,6,,,48,0
17854,note_on,94,0,1,,,,,,,,11,,,79,0
17856,note_on,32,0,5,,,,,,,,6,,,50,92
17856,note_on,2,0,1,,,,,,,,11,,,77,127
17902,note_on,46,0,1,,,,,,,,11,,,77,0
17904,note_on,2,0,1,,,,,,,,11,,,79,127
17950,note_on,46,0,1,,,,,,,,11,,,79,0
17952,note_on,2,0,1,,,,,,,,11,,,81,127
18016,note_on,160,0,5,,,,,,,,6,,,50,0
18046,note_on,94,0,1,,,,,,,,11,,,81,0
18048,note_on,2,0,1,,,,,,,,11,,,79,127
18048,note_on,32,0,5,,,,,,,,6,,,52,92
18142,note_on,94,0,1,,,,,,,,11,,,79,0
18144,note_on,2,0,1,,,,,,,,11,,,77,127
18190,note_on,46,0,1,,,,,,,,11,,,77,0
18192,note_on,2,0,1,,,,,,,,11,,,76,127
18208,note_on,160,0,5,,,,,,,,6,,,52,0
18238,note_on,46,0,1,,,,,,,,11,,,76,0
18240,note_on,32,0,5,,,,,,,,6,,,54,92
18240,note_on,2,0,1,,,,,,,,11,,,74,127
18334,note_on,94,0,1,,,,,,,,11,,,74,0
18336,note_on,2,0,1,,,,,,,,11,,,72,127
18400,note_on,160,0,5,,,,,,,,6,,,54,0
18430,note_on,94,0,1,,,,,,,,11,,,72,0
18432,note_on,32,0,5,,,,,,,,6,,,55,92
18432,note_on,2,0,1,,,,,,,,11,,,72,127
18526,note_on,94,0,5,,,,,,,,6,,,55,0
18528,note_on,2,0,5,,,,,,,,6,,,54,92
18592,note_on,160,0,1,,,,,,,,11,,,72,0
18622,note_on,94,0,5,,,,,,,,6,,,54,0
18624,note_on,2,0,5,,,,,,,,6,,,55,92
18624,note_on,32,0,1,,,,,,,,11,,,71,127
18718,note_on,94,0,5,,,,,,,,6,,,55,0
18720,note_on,2,0,5,,,,,,,,6,,,43,92
18784,note_on,160,0,1,,,,,,,,11,,,71,0
18814,note_on,94,0,5,,,,,,,,6,,,43,0
18816,note_on,2,0,5,,,,,,,,6,,,48,92
18816,note_on,32,0,1,,,,,,,,11,,,76,127
18862,note_on,46,0,1,,,,,,,,11,,,76,0
18864,note_on,2,0,1,,,,,,,,11,,,79,127
18910,note_on,46,0,1,,,,,,,,11,,,79,0
18910,note_on,94,0,5,,,,,,,,6,,,48,0
18912,note_on,2,0,5,,,,,,,,6,,,60,92
18912,note_on,2,0,1,,,,,,,,11,,,77,127
18958,note_on,46,0,1,,,,,,,,11,,,77,0
18960,note_on,2,0,1,,,,,,,,11,,,79,127
19006,note_on,46,0,1,,,,,,,,11,,,79,0
19006,note_on,94,0,5,,,,,,,,6,,,60,0
19008,note_on,2,0,1,,,,,,,,11,,,76,127
19008,note_on,2,0,5,,,,,,,,6,,,60,92
19054,note_on,46,0,1,,,,,,,,11,,,76,0
19056,note_on,2,0,1,,,,,,,,11,,,74,127
19102,note_on,46,0,1,,,,,,,,11,,,74,0
19102,note_on,94,0,5,,,,,,,,6,,,60,0
19104,note_on,2,0,5,,,,,,,,6,,,60,92
19104,note_on,2,0,1,,,,,,,,11,,,72,127
19150,note_on,46,0,1,,,,,,,,11,,,72,0
19152,note_on,2,0,1,,,,,,,,11,,,76,127
19198,note_on,46,0,1,,,,,,,,11,,,76,0
19198,note_on,94,0,5,,,,,,,,6,,,60,0
19200,note_on,2,0,1,,,,,,,,11,,,74,127
19200,note_on,2,0,5,,,,,,,,6,,,59,92
19246,note_on,46,0,1,,,,,,,,11,,,74,0
19248,note_on,2,0,1,,,,,,,,11,,,79,127
19294,note_on,46,0,1,,,,,,,,11,,,79,0
19294,note_on,94,0,5,,,,,,,,6,,,59,0
19296,note_on,2,0,5,,,,,,,,6,,,59,92
19296,note_on,2,0,1,,,,,,,,11,,,77,127
19342,note_on,46,0,1,,,,,,,,11,,,77,0
19344,note_on,2,0,1,,,,,,,,11,,,79,127
19390,note_on,46,0,1,,,,,,,,11,,,79,0
19390,note_on,94,0,5,,,,,,,,6,,,59,0
19392,note_on,2,0,1,,,,,,,,11,,,74,127
19392,note_on,2,0,5,,,,,,,,6,,,59,92
19438,note_on,46,0,1,,,,,,,,11,,,74,0
19440,note_on,2,0,1,,,,,,,,11,,,72,127
19486,note_on,46,0,1,,,,,,,,11,,,72,0
19486,note_on,94,0,5,,,,,,,,6,,,59,0
19488,note_on,2,0,1,,,,,,,,11,,,71,127
19488,note_on,2,0,5,,,,,,,,6,,,59,92
19534,note_on,46,0,1,,,,,,,,11,,,71,0
19536,note_on,2,0,1,,,,,,,,11,,,74,127
19582,note_on,94,0,5,,,,,,,,6,,,59,0
19582,note_on,46,0,1,,,,,,,,11,,,74,0
19584,note_on,2,0,5,,,,,,,,6,,,57,92
19584,note_on,2,0,1,,,,,,,,11,,,72,127
19630,note_on,46,0,1,,,,,,,,11,,,72,0
19632,note_on,2,0,1,,,,,,,,11,,,79,127
19678,note_on,94,0,5,,,,,,,,6,,,57,0
19678,note_on,46,0,1,,,,,,,,11,,,79,0
19680,note_on,2,0,5,,,,,,,,6,,,57,92
19680,note_on,2,0,1,,,,,,,,11,,,77,127
19726,note_on,46,0,1,,,,,,,,11,,,77,0
19728,note_on,2,0,1,,,,,,,,11,,,79,127
19774,note_on,46,0,1,,,,,,,,11,,,79,0
19774,note_on,94,0,5,,,,,,,,6,,,57,0
19776,note_on,2,0,1,,,,,,,,11,,,72,127
19776,note_on,2,0,5,,,,,,,,6,,,57,92
19822,note_on,46,0,1,,,,,,,,11,,,72,0
19824,note_on,2,0,1,,,,,,,,11,,,71,127
19870,note_on,46,0,1,,,,,,,,11,,,71,0
19870,note_on,94,0,5,,,,,,,,6,,,57,0
19872,note_on,2,0,1,,,,,,,,11,,,69,127
19872,note_on,2,0,5,,,,,,,,6,,,57,92
19918,note_on,46,0,1,,,,,,,,11,,,69,0
19920,note_on,2,0,1,,,,,,,,11,,,72,127
19966,note_on,94,0,5,,,,,,,,6,,,57,0
19966,note_on,46,0,1,,,,,,,,11,,,72,0
19968,note_on,2,0,5,,,,,,,,6,,,55,92
19968,note_on,2,0,1,,,,,,,,11,,,71,127
20014,note_on,46,0,1,,,,,,,,11,,,71,0
20016,note_on,2,0,1,,,,,,,,11,,,72,127
20062,note_on,94,0,5,,,,,,,,6,,,55,0
20062,note_on,46,0,1,,,,,,,,11,,,72,0
20064,note_on,2,0,5,,,,,,,,6,,,55,92
20064,note_on,2,0,1,,,,,,,,11,,,74,127
20158,note_on,94,0,5,,,,,,,,6,,,55,0
20158,note_on,94,0,1,,,,,,,,11,,,74,0
20160,note_on,2,0,5,,,,,,,,6,,,57,92
20160,note_on,2,0,1,,,,,,,,11,,,72,127
20206,note_on,46,0,1,,,,,,,,11,,,72,0
20208,note_on,2,0,1,,,,,,,,11,,,74,127
20254,note_on,94,0,5,,,,,,,,6,,,57,0
20254,note_on,46,0,1,,,,,,,,11,,,74,0
20256,note_on,2,0,5,,,,,,,,6,,,57,92
20256,note_on,2,0,1,,,,,,,,11,,,76,127
20350,note_on,94,0,1,,,,,,,,11,,,76,0
20350,note_on,94,0,5,,,,,,,,6,,,57,0
20352,note_on,2,0,1,,,,,,,,11,,,74,127
20352,note_on,2,0,5,,,,,,,,6,,,59,92
20398,note_on,46,0,1,,,,,,,,11,,,74,0
20400,note_on,2,0,1,,,,,,,,11,,,76,127
20446,note_on,46,0,1,,,,,,,,11,,,76,0
20446,note_on,94,0,5,,,,,,,,6,,,59,0
20448,note_on,2,0,1,,,,,,,,11,,,77,127
20448,note_on,2,0,5,,,,,,,,6,,,59,92
20542,note_on,94,0,5,,,,,,,,6,,,59,0
20542,note_on,94,0,1,,,,,,,,11,,,77,0
20544,note_on,2,0,1,,,,,,,,11,,,76,127
20544,note_on,2,0,5,,,,,,,,6,,,60,92
20590,note_on,46,0,1,,,,,,,,11,,,76,0
20592,note_on,2,0,1,,,,,,,,11,,,78,127
20638,note_on,46,0,1,,,,,,,,11,,,78,0
20638,note_on,94,0,5,,,,,,,,6,,,60,0
20640,note_on,2,0,1,,,,,,,,11,,,79,127
20640,note_on,2,0,5,,,,,,,,6,,,60,92
20734,note_on,94,0,1,,,,,,,,11,,,79,0
20734,note_on,94,0,5,,,,,,,,6,,,60,0
20736,note_on,2,0,1,,,,,,,,11,,,78,127
20736,note_on,2,0,5,,,,,,,,6,,,62,92
20782,note_on,46,0,1,,,,,,,,11,,,78,0
20784,note_on,2,0,1,,,,,,,,11,,,81,127
20830,note_on,94,0,5,,,,,,,,6,,,62,0
20830,note_on,46,0,1,,,,,,,,11,,,81,0
20832,note_on,2,0,1,,,,,,,,11,,,79,127
20832,note_on,2,0,5,,,,,,,,6,,,62,92
20878,note_on,46,0,1,,,,,,,,11,,,79,0
20880,note_on,2,0,1,,,,,,,,11,,,81,127
20926,note_on,46,0,1,,,,,,,,11,,,81,0
20926,note_on,94,0,5,,,,,,,,6,,,62,0
20928,note_on,2,0,5,,,,,,,,6,,,50,92
20928,note_on,2,0,1,,,,,,,,11,,,78,127
20974,note_on,46,0,1,,,,,,,,11,,,78,0
20976,note_on,2,0,1,,,,,,,,11,,,76,127
21022,note_on,94,0,5,,,,,,,,6,,,50,0
21022,note_on,46,0,1,,,,,,,,11,,,76,0
21024,note_on,2,0,5,,,,,,,,6,,,50,92
21024,note_on,2,0,1,,,,,,,,11,,,74,127
21070,note_on,46,0,1,,,,,,,,11,,,74,0
21072,note_on,2,0,1,,,,,,,,11,,,72,127
21118,note_on,46,0,1,,,,,,,,11,,,72,0
21118,note_on,94,0,5,,,,,,,,6,,,50,0
21120,note_on,2,0,5,,,,,,,,6,,,55,92
21120,note_on,2,0,1,,,,,,,,11,,,71,127
21214,note_on,94,0,5,,,,,,,,6,,,55,0
21214,note_on,94,0,1,,,,,,,,11,,,71,0
21216,note_on,2,0,5,,,,,,,,6,,,55,92
21216,note_on,2,0,1,,,,,,,,11,,,69,127
21262,note_on,46,0,1,,,,,,,,11,,,69,0
21264,note_on,2,0,1,,,,,,,,11,,,67,127
21310,note_on,94,0,5,,,,,,,,6,,,55,0
21310,note_on,46,0,1,,,,,,,,11,,,67,0
21312,note_on,2,0,1,,,,,,,,11,,,71,127
21312,note_on,2,0,5,,,,,,,,6,,,50,92
21358,note_on,46,0,1,,,,,,,,11,,,71,0
21360,note_on,2,0,1,,,,,,,,11,,,69,127
21382,note_on,22,0,1,,,,,,,,11,,,69,0
21384,note_on,2,0,1,,,,,,,,11,,,71,127
21406,note_on,94,0,5,,,,,,,,6,,,50,0
21406,note_on,22,0,1,,,,,,,,11,,,71,0
21408,note_on,5712,0,2,,,,,,,,0,,,79,127
21408,note_on,5712,0,4,,,,,,,,4,,,62,75
21408,note_on,2,0,5,,,,,,,,6,,,50,92
21408,note_on,2,0,1,,,,,,,,11,,,69,127
21408,note_on,5712,0,3,,,,,,,,2,,,83,127
21430,note_on,22,0,1,,,,,,,,11,,,69,0
21432,note_on,2,0,1,,,,,,,,11,,,71,127
21454,note_on,22,0,1,,,,,,,,11,,,71,0
21456,note_on,2,0,1,,,,,,,,11,,,69,127
21502,note_on,46,0,1,,,,,,,,11,,,69,0
21502,note_on,94,0,3,,,,,,,,2,,,83,0
21502,note_on,94,0,4,,,,,,,,4,,,62,0
21502,note_on,94,0,5,,,,,,,,6,,,50,0
21502,note_on,94,0,2,,,,,,,,0,,,79,0
21504,note_on,2,0,1,,,,,,,,11,,,67,127
21504,note_on,2,0,3,,,,,,,,2,,,83,127
21504,note_on,2,0,5,,,,,,,,6,,,43,92
21504,note_on,2,0,2,,,,,,,,0,,,79,127
21504,note_on,5808,0,6,,,,,,,,8,,,31,92
21504,note_on,2,0,4,,,,,,,,4,,,62,75
21598,note_on,94,0,5,,,,,,,,6,,,43,0
21598,note_on,94,0,6,,,,,,,,8,,,31,0
21600,note_on,2,0,6,,,,,,,,8,,,43,92
21600,note_on,2,0,5,,,,,,,,6,,,55,92
21646,note_on,46,0,5,,,,,,,,6,,,55,0
21646,note_on,46,0,6,,,,,,,,8,,,43,0
21648,note_on,2,0,5,,,,,,,,6,,,54,92
21648,note_on,2,0,6,,,,,,,,8,,,42,92
21694,note_on,46,0,6,,,,,,,,8,,,42,0
21694,note_on,46,0,5,,,,,,,,6,,,54,0
21696,note_on,2,0,6,,,,,,,,8,,,43,92
21696,note_on,2,0,5,,,,,,,,6,,,55,92
21760,note_on,256,0,4,,,,,,,,4,,,62,0
21760,note_on,256,0,3,,,,,,,,2,,,83,0
21760,note_on,256,0,2,,,,,,,,0,,,79,0
21790,note_on,94,0,6,,,,,,,,8,,,43,0
21790,note_on,94,0,5,,,,,,,,6,,,55,0
21792,note_on,32,0,3,,,,,,,,2,,,84,127
21792,note_on,32,0,4,,,,,,,,4,,,62,75
21792,note_on,2,0,6,,,,,,,,8,,,31,92
21792,note_on,2,0,5,,,,,,,,6,,,43,92
21792,note_on,32,0,2,,,,,,,,0,,,81,127
21838,note_on,46,0,3,,,,,,,,2,,,84,0
21838,note_on,46,0,2,,,,,,,,0,,,81,0
21840,note_on,336,0,1,,,,,,,,11,,,67,0
21840,note_on,2,0,3,,,,,,,,2,,,83,127
21840,note_on,2,0,2,,,,,,,,0,,,79,127
21886,note_on,46,0,3,,,,,,,,2,,,83,0
21886,note_on,94,0,6,,,,,,,,8,,,31,0
21886,note_on,46,0,2,,,,,,,,0,,,79,0
21886,note_on,94,0,5,,,,,,,,6,,,43,0
21886,note_on,94,0,4,,,,,,,,4,,,62,0
21888,note_on,2,0,6,,,,,,,,8,,,38,92
21888,note_on,2,0,3,,,,,,,,2,,,81,127
21888,note_on,2,0,5,,,,,,,,6,,,50,92
21888,note_on,2,0,4,,,,,,,,4,,,62,75
21888,note_on,2,0,2,,,,,,,,0,,,78,127
21982,note_on,94,0,6,,,,,,,,8,,,38,0
21982,note_on,94,0,5,,,,,,,,6,,,50,0
21984,note_on,2,0,5,,,,,,,,6,,,62,92
21984,note_on,2,0,6,,,,,,,,8,,,50,92
22030,note_on,46,0,6,,,,,,,,8,,,50,0
22030,note_on,46,0,5,,,,,,,,6,,,62,0
22032,note_on,2,0,6,,,,,,,,8,,,48,92
22032,note_on,2,0,5,,,,,,,,6,,,60,92
22078,note_on,46,0,5,,,,,,,,6,,,60,0
22078,note_on,46,0,6,,,,,,,,8,,,48,0
22080,note_on,2,0,5,,,,,,,,6,,,62,92
22080,note_on,2,0,6,,,,,,,,8,,,50,92
22144,note_on,256,0,4,,,,,,,,4,,,62,0
22144,note_on,256,0,3,,,,,,,,2,,,81,0
22144,note_on,256,0,2,,,,,,,,0,,,78,0
22174,note_on,94,0,5,,,,,,,,6,,,62,0
22174,note_on,94,0,6,,,,,,,,8,,,50,0
22176,note_on,2,0,5,,,,,,,,6,,,50,92
22176,note_on,2,0,6,,,,,,,,8,,,38,92
22176,note_on,32,0,3,,,,,,,,2,,,79,127
22176,note_on,32,0,4,,,,,,,,4,,,62,75
22176,note_on,32,0,2,,,,,,,,0,,,76,127
22222,note_on,46,0,3,,,,,,,,2,,,79,0
22222,note_on,46,0,2,,,,,,,,0,,,76,0
22224,note_on,2,0,2,,,,,,,,0,,,74,127
22224,note_on,2,0,3,,,,,,,,2,,,78,127
22270,note_on,94,0,5,,,,,,,,6,,,50,0
22270,note_on,46,0,3,,,,,,,,2,,,78,0
22270,note_on,94,0,4,,,,,,,,4,,,62,0
22270,note_on,94,0,6,,,,,,,,8,,,38,0
22270,note_on,46,0,2,,,,,,,,0,,,74,0
22272,note_on,2,0,2,,,,,,,,0,,,83,127
22272,note_on,2,0,4,,,,,,,,4,,,62,75
22272,note_on,2,0,5,,,,,,,,6,,,55,92
22272,note_on,2,0,6,,,,,,,,8,,,43,92
22272,note_on,2,0,3,,,,,,,,2,,,79,127
22366,note_on,94,0,2,,,,,,,,0,,,83,0
22366,note_on,94,0,6,,,,,,,,8,,,43,0
22366,note_on,94,0,4,,,,,,,,4,,,62,0
22366,note_on,94,0,3,,,,,,,,2,,,79,0
22366,note_on,94,0,5,,,,,,,,6,,,55,0
22368,note_on,2,0,2,,,,,,,,0,,,84,127
22368,note_on,2,0,6,,,,,,,,8,,,36,92
22368,note_on,2,0,3,,,,,,,,2,,,81,127
22368,note_on,2,0,5,,,,,,,,6,,,48,92
22368,note_on,2,0,4,,,,,,,,4,,,64,75
22462,note_on,94,0,2,,,,,,,,0,,,84,0
22462,note_on,94,0,4,,,,,,,,4,,,64,0
22462,note_on,94,0,3,,,,,,,,2,,,81,0
22462,note_on,94,0,5,,,,,,,,6,,,48,0
22462,note_on,94,0,6,,,,,,,,8,,,36,0
22464,note_on,2,0,2,,,,,,,,0,,,84,127
22464,note_on,2,0,5,,,,,,,,6,,,55,92
22464,note_on,2,0,3,,,,,,,,2,,,81,127
22464,note_on,2,0,4,,,,,,,,4,,,62,75
22464,note_on,2,0,6,,,,,,,,8,,,43,92
22486,note_on,22,0,3,,,,,,,,2,,,81,0
22486,note_on,22,0,2,,,,,,,,0,,,84,0
22488,note_on,2,0,3,,,,,,,,2,,,79,127
22488,note_on,2,0,2,,,,,,,,0,,,83,127
22510,note_on,22,0,3,,,,,,,,2,,,79,0
22510,note_on,22,0,2,,,,,,,,0,,,83,0
22512,note_on,2,0,3,,,,,,,,2,,,81,127
22512,note_on,2,0,2,,,,,,,,0,,,84,127
22534,note_on,22,0,3,,,,,,,,2,,,81,0
22534,note_on,22,0,2,,,,,,,,0,,,84,0
22536,note_on,2,0,3,,,,,,,,2,,,79,127
22536,note_on,2,0,2,,,,,,,,0,,,83,127
22558,note_on,94,0,6,,,,,,,,8,,,43,0
22558,note_on,94,0,4,,,,,,,,4,,,62,0
22558,note_on,94,0,5,,,,,,,,6,,,55,0
22560,note_on,2,0,5,,,,,,,,6,,,49,92
22560,note_on,2,0,4,,,,,,,,4,,,64,75
22560,note_on,2,0,6,,,,,,,,8,,,37,92
22654,note_on,94,0,4,,,,,,,,4,,,64,0
22654,note_on,118,0,2,,,,,,,,0,,,83,0
22654,note_on,94,0,5,,,,,,,,6,,,49,0
22654,note_on,94,0,6,,,,,,,,8,,,37,0
22654,note_on,118,0,3,,,,,,,,2,,,79,0
22656,note_on,2,0,6,,,,,,,,8,,,38,92
22656,note_on,2,0,2,,,,,,,,0,,,81,127
22656,note_on,2,0,5,,,,,,,,6,,,50,92
22656,note_on,2,0,4,,,,,,,,4,,,62,75
22656,note_on,2,0,3,,,,,,,,2,,,78,127
22750,note_on,94,0,5,,,,,,,,6,,,50,0
22750,note_on,94,0,6,,,,,,,,8,,,38,0
22752,note_on,2,0,6,,,,,,,,8,,,50,92
22752,note_on,2,0,5,,,,,,,,6,,,62,92
22798,note_on,46,0,5,,,,,,,,6,,,62,0
22798,note_on,46,0,6,,,,,,,,8,,,50,0
22800,note_on,2,0,6,,,,,,,,8,,,48,92
22800,note_on,2,0,5,,,,,,,,6,,,60,92
22816,note_on,160,0,4,,,,,,,,4,,,62,0
22846,note_on,46,0,6,,,,,,,,8,,,48,0
22846,note_on,46,0,5,,,,,,,,6,,,60,0
22848,note_on,2,0,5,,,,,,,,6,,,62,92
22848,note_on,2,0,6,,,,,,,,8,,,50,92
22848,note_on,32,0,4,,,,,,,,4,,,66,75
22912,note_on,256,0,2,,,,,,,,0,,,81,0
22912,note_on,256,0,3,,,,,,,,2,,,78,0
22942,note_on,94,0,6,,,,,,,,8,,,50,0
22942,note_on,94,0,4,,,,,,,,4,,,66,0
22942,note_on,94,0,5,,,,,,,,6,,,62,0
22944,note_on,2,0,5,,,,,,,,6,,,55,92
22944,note_on,2,0,4,,,,,,,,4,,,62,75
22944,note_on,2,0,6,,,,,,,,8,,,43,92
22944,note_on,32,0,3,,,,,,,,2,,,79,127
22944,note_on,32,0,2,,,,,,,,0,,,79,127
23038,note_on,94,0,3,,,,,,,,2,,,79,0
23038,note_on,94,0,4,,,,,,,,4,,,62,0
23038,note_on,94,0,2,,,,,,,,0,,,79,0
23038,note_on,94,0,5,,,,,,,,6,,,55,0
23038,note_on,94,0,6,,,,,,,,8,,,43,0
23040,note_on,2,0,4,,,,,,,,4,,,62,75
23040,note_on,2,0,2,,,,,,,,0,,,79,127
23040,note_on,2,0,6,,,,,,,,8,,,31,92
23040,note_on,2,0,5,,,,,,,,6,,,43,92
23040,note_on,2,0,3,,,,,,,,2,,,83,127
23134,note_on,94,0,6,,,,,,,,8,,,31,0
23134,note_on,94,0,5,,,,,,,,6,,,43,0
23136,note_on,2,0,5,,,,,,,,6,,,55,92
23136,note_on,2,0,6,,,,,,,,8,,,43,92
23182,note_on,46,0,6,,,,,,,,8,,,43,0
23182,note_on,46,0,5,,,,,,,,6,,,55,0
23184,note_on,2,0,5,,,,,,,,6,,,54,92
23184,note_on,2,0,6,,,,,,,,8,,,42,92
23230,note_on,46,0,5,,,,,,,,6,,,54,0
23230,note_on,46,0,6,,,,,,,,8,,,42,0
23232,note_on,2,0,5,,,,,,,,6,,,55,92
23232,note_on,2,0,6,,,,,,,,8,,,43,92
23296,note_on,256,0,2,,,,,,,,0,,,79,0
23296,note_on,256,0,4,,,,,,,,4,,,62,0
23296,note_on,256,0,3,,,,,,,,2,,,83,0
23326,note_on,94,0,6,,,,,,,,8,,,43,0
23326,note_on,94,0,5,,,,,,,,6,,,55,0
23328,note_on,32,0,2,,,,,,,,0,,,81,127
23328,note_on,32,0,4,,,,,,,,4,,,62,75
23328,note_on,2,0,5,,,,,,,,6,,,43,92
23328,note_on,2,0,6,,,,,,,,8,,,31,92
23328,note_on,32,0,3,,,,,,,,2,,,84,127
23374,note_on,46,0,3,,,,,,,,2,,,84,0
23374,note_on,46,0,2,,,,,,,,0,,,81,0
23376,note_on,2,0,2,,,,,,,,0,,,79,127
23376,note_on,2,0,3,,,,,,,,2,,,83,127
23422,note_on,94,0,5,,,,,,,,6,,,43,0
23422,note_on,46,0,2,,,,,,,,0,,,79,0
23422,note_on,46,0,3,,,,,,,,2,,,83,0
23422,note_on,94,0,6,,,,,,,,8,,,31,0
23422,note_on,94,0,4,,,,,,,,4,,,62,0
23424,note_on,2,0,3,,,,,,,,2,,,81,127
23424,note_on,2,0,5,,,,,,,,6,,,50,92
23424,note_on,2,0,4,,,,,,,,4,,,62,75
23424,note_on,2,0,6,,,,,,,,8,,,38,92
23424,note_on,2,0,2,,,,,,,,0,,,78,127
23518,note_on,94,0,6,,,,,,,,8,,,38,0
23518,note_on,94,0,5,,,,,,,,6,,,50,0
23520,note_on,2,0,5,,,,,,,,6,,,62,92
23520,note_on,2,0,6,,,,,,,,8,,,50,92
23566,note_on,46,0,5,,,,,,,,6,,,62,0
23566,note_on,46,0,6,,,,,,,,8,,,50,0
23568,note_on,2,0,5,,,,,,,,6,,,60,92
23568,note_on,2,0,6,,,,,,,,8,,,48,92
23614,note_on,46,0,5,,,,,,,,6,,,60,0
23614,note_on,46,0,6,,,,,,,,8,,,48,0
23616,note_on,2,0,6,,,,,,,,8,,,50,92
23616,note_on,2,0,5,,,,,,,,6,,,62,92
23680,note_on,256,0,4,,,,,,,,4,,,62,0
23680,note_on,256,0,3,,,,,,,,2,,,81,0
23680,note_on,256,0,2,,,,,,,,0,,,78,0
23710,note_on,94,0,5,,,,,,,,6,,,62,0
23710,note_on,94,0,6,,,,,,,,8,,,50,0
23712,note_on,2,0,5,,,,,,,,6,,,50,92
23712,note_on,32,0,4,,,,,,,,4,,,62,75
23712,note_on,32,0,2,,,,,,,,0,,,76,127
23712,note_on,2,0,6,,,,,,,,8,,,38,92
23712,note_on,32,0,3,,,,,,,,2,,,79,127
23758,note_on,46,0,3,,,,,,,,2,,,79,0
23758,note_on,46,0,2,,,,,,,,0,,,76,0
23760,note_on,2,0,2,,,,,,,,0,,,74,127
23760,note_on,2,0,3,,,,,,,,2,,,78,127
23806,note_on,94,0,5,,,,,,,,6,,,50,0
23806,note_on,46,0,3,,,,,,,,2,,,78,0
23806,note_on,94,0,6,,,,,,,,8,,,38,0
23806,note_on,94,0,4,,,,,,,,4,,,62,0
23806,note_on,46,0,2,,,,,,,,0,,,74,0
23808,note_on,2,0,3,,,,,,,,2,,,79,127
23808,note_on,2,0,6,,,,,,,,8,,,43,92
23808,note_on,2,0,4,,,,,,,,4,,,62,75
23808,note_on,2,0,2,,,,,,,,0,,,83,127
23808,note_on,2,0,5,,,,,,,,6,,,55,92
23902,note_on,94,0,2,,,,,,,,0,,,83,0
23902,note_on,94,0,6,,,,,,,,8,,,43,0
23902,note_on,94,0,4,,,,,,,,4,,,62,0
23902,note_on,94,0,3,,,,,,,,2,,,79,0
23902,note_on,94,0,5,,,,,,,,6,,,55,0
23904,note_on,2,0,6,,,,,,,,8,,,36,92
23904,note_on,2,0,4,,,,,,,,4,,,64,75
23904,note_on,2,0,3,,,,,,,,2,,,81,127
23904,note_on,2,0,2,,,,,,,,0,,,84,127
23904,note_on,2,0,5,,,,,,,,6,,,48,92
23998,note_on,94,0,3,,,,,,,,2,,,81,0
23998,note_on,94,0,5,,,,,,,,6,,,48,0
23998,note_on,94,0,4,,,,,,,,4,,,64,0
23998,note_on,94,0,6,,,,,,,,8,,,36,0
23998,note_on,94,0,2,,,,,,,,0,,,84,0
24000,note_on,2,0,6,,,,,,,,8,,,43,92
24000,note_on,2,0,3,,,,,,,,2,,,81,127
24000,note_on,2,0,4,,,,,,,,4,,,62,75
24000,note_on,2,0,5,,,,,,,,6,,,55,92
24000,note_on,2,0,2,,,,,,,,0,,,84,127
24022,note_on,22,0,2,,,,,,,,0,,,84,0
24022,note_on,22,0,3,,,,,,,,2,,,81,0
24024,note_on,2,0,3,,,,,,,,2,,,79,127
24024,note_on,2,0,2,,,,,,,,0,,,83,127
24046,note_on,22,0,3,,,,,,,,2,,,79,0
24046,note_on,22,0,2,,,,,,,,0,,,83,0
24048,note_on,2,0,2,,,,,,,,0,,,84,127
24048,note_on,2,0,3,,,,,,,,2,,,81,127
24070,note_on,22,0,2,,,,,,,,0,,,84,0
24070,note_on,22,0,3,,,,,,,,2,,,81,0
24072,note_on,2,0,2,,,,,,,,0,,,83,127
24072,note_on,2,0,3,,,,,,,,2,,,79,127
24094,note_on,94,0,5,,,,,,,,6,,,55,0
24094,note_on,94,0,4,,,,,,,,4,,,62,0
24094,note_on,94,0,6,,,,,,,,8,,,43,0
24096,note_on,2,0,6,,,,,,,,8,,,37,92
24096,note_on,2,0,5,,,,,,,,6,,,49,92
24096,note_on,2,0,4,,,,,,,,4,,,64,75
24190,note_on,118,0,3,,,,,,,,2,,,79,0
24190,note_on,94,0,4,,,,,,,,4,,,64,0
24190,note_on,94,0,6,,,,,,,,8,,,37,0
24190,note_on,118,0,2,,,,,,,,0,,,83,0
24190,note_on,94,0,5,,,,,,,,6,,,49,0
24192,note_on,2,0,2,,,,,,,,0,,,81,127
24192,note_on,2,0,6,,,,,,,,8,,,38,92
24192,note_on,2,0,5,,,,,,,,6,,,50,92
24192,note_on,2,0,3,,,,,,,,2,,,78,127
24192,note_on,2,0,4,,,,,,,,4,,,62,75
24286,note_on,94,0,6,,,,,,,,8,,,38,0
24286,note_on,94,0,5,,,,,,,,6,,,50,0
24288,note_on,2,0,5,,,,,,,,6,,,62,92
24288,note_on,2,0,6,,,,,,,,8,,,50,92
24334,note_on,46,0,6,,,,,,,,8,,,50,0
24334,note_on,46,0,5,,,,,,,,6,,,62,0
24336,note_on,2,0,6,,,,,,,,8,,,49,92
24336,note_on,2,0,5,,,,,,,,6,,,61,92
24352,note_on,160,0,4,,,,,,,,4,,,62,0
24382,note_on,46,0,6,,,,,,,,8,,,49,0
24382,note_on,46,0,5,,,,,,,,6,,,61,0
24384,note_on,2,0,6,,,,,,,,8,,,50,92
24384,note_on,2,0,5,,,,,,,,6,,,62,92
24448,note_on,256,0,3,,,,,,,,2,,,78,0
24448,note_on,256,0,2,,,,,,,,0,,,81,0
24478,note_on,94,0,6,,,,,,,,8,,,50,0
24478,note_on,94,0,5,,,,,,,,6,,,62,0
24480,note_on,2,0,6,,,,,,,,8,,,38,92
24480,note_on,32,0,2,,,,,,,,0,,,86,127
24480,note_on,32,0,3,,,,,,,,2,,,81,127
24480,note_on,2,0,5,,,,,,,,6,,,50,92
24480,note_on,128,0,4,,,,,,,,4,,,62,75
24574,note_on,94,0,4,,,,,,,,4,,,62,0
24574,note_on,94,0,2,,,,,,,,0,,,86,0
24574,note_on,94,0,5,,,,,,,,6,,,50,0
24574,note_on,94,0,6,,,,,,,,8,,,38,0
24574,note_on,94,0,3,,,,,,,,2,,,81,0
24576,note_on,2,0,3,,,,,,,,2,,,62,127
24576,note_on,2,0,2,,,,,,,,0,,,62,127
24576,note_on,2,0,5,,,,,,,,6,,,50,92
24576,note_on,2,0,6,,,,,,,,8,,,38,92
24576,note_on,2,0,4,,,,,,,,4,,,62,75
24670,note_on,94,0,2,,,,,,,,0,,,62,0
24670,note_on,94,0,3,,,,,,,,2,,,62,0
24672,note_on,2,0,3,,,,,,,,2,,,83,127
24672,note_on,2,0,2,,,,,,,,0,,,86,127
24736,note_on,160,0,4,,,,,,,,4,,,62,0
24736,note_on,160,0,5,,,,,,,,6,,,50,0
24736,note_on,160,0,6,,,,,,,,8,,,38,0
24766,note_on,94,0,2,,,,,,,,0,,,86,0
24766,note_on,94,0,3,,,,,,,,2,,,83,0
24768,note_on,2,0,2,,,,,,,,0,,,62,127
24768,note_on,32,0,5,,,,,,,,6,,,50,92
24768,note_on,32,0,4,,,,,,,,4,,,62,75
24768,note_on,2,0,3,,,,,,,,2,,,62,127
24768,note_on,32,0,6,,,,,,,,8,,,38,92
24862,note_on,94,0,3,,,,,,,,2,,,62,0
24862,note_on,94,0,2,,,,,,,,0,,,62,0
24864,note_on,2,0,2,,,,,,,,0,,,86,127
24864,note_on,2,0,3,,,,,,,,2,,,83,127
24928,note_on,160,0,6,,,,,,,,8,,,38,0
24928,note_on,160,0,4,,,,,,,,4,,,62,0
24928,note_on,160,0,5,,,,,,,,6,,,50,0
24958,note_on,94,0,3,,,,,,,,2,,,83,0
24958,note_on,94,0,2,,,,,,,,0,,,86,0
24960,note_on,32,0,6,,,,,,,,8,,,38,92
24960,note_on,32,0,4,,,,,,,,4,,,62,75
24960,note_on,2,0,2,,,,,,,,0,,,62,127
24960,note_on,2,0,3,,,,,,,,2,,,62,127
24960,note_on,32,0,5,,,,,,,,6,,,50,92
25054,note_on,94,0,3,,,,,,,,2,,,62,0
25054,note_on,94,0,2,,,,,,,,0,,,62,0
25056,note_on,2,0,2,,,,,,,,0,,,86,127
25056,note_on,2,0,3,,,,,,,,2,,,83,127
25120,note_on,160,0,4,,,,,,,,4,,,62,0
25120,note_on,160,0,5,,,,,,,,6,,,50,0
25120,note_on,160,0,6,,,,,,,,8,,,38,0
25150,note_on,94,0,2,,,,,,,,0,,,86,0
25150,note_on,94,0,3,,,,,,,,2,,,83,0
25152,note_on,2,0,3,,,,,,,,2,,,83,127
25152,note_on,2,0,2,,,,,,,,0,,,86,127
25246,note_on,94,0,3,,,,,,,,2,,,83,0
25246,note_on,94,0,2,,,,,,,,0,,,86,0
25248,note_on,2,0,3,,,,,,,,2,,,81,127
25248,note_on,2,0,2,,,,,,,,0,,,84,127
25294,note_on,46,0,3,,,,,,,,2,,,81,0
25294,note_on,46,0,2,,,,,,,,0,,,84,0
25296,note_on,2,0,2,,,,,,,,0,,,83,127
25296,note_on,2,0,3,,,,,,,,2,,,79,127
25342,note_on,46,0,2,,,,,,,,0,,,83,0
25342,note_on,46,0,3,,,,,,,,2,,,79,0
25344,note_on,224,0,6,,,,,,,,8,,,38,92
25344,note_on,224,0,5,,,,,,,,6,,,50,92
25344,note_on,2,0,2,,,,,,,,0,,,84,127
25344,note_on,224,0,4,,,,,,,,4,,,62,75
25344,note_on,2,0,3,,,,,,,,2,,,81,127
25438,note_on,94,0,3,,,,,,,,2,,,81,0
25438,note_on,94,0,2,,,,,,,,0,,,84,0
25440,note_on,2,0,3,,,,,,,,2,,,81,127
25440,note_on,2,0,2,,,,,,,,0,,,84,127
25504,note_on,160,0,4,,,,,,,,4,,,62,0
25504,note_on,160,0,6,,,,,,,,8,,,38,0
25504,note_on,160,0,5,,,,,,,,6,,,50,0
25534,note_on,94,0,3,,,,,,,,2,,,81,0
25534,note_on,94,0,2,,,,,,,,0,,,84,0
25536,note_on,32,0,6,,,,,,,,8,,,38,92
25536,note_on,32,0,4,,,,,,,,4,,,62,75
25536,note_on,2,0,3,,,,,,,,2,,,62,127
25536,note_on,32,0,5,,,,,,,,6,,,50,92
25536,note_on,2,0,2,,,,,,,,0,,,62,127
25630,note_on,94,0,3,,,,,,,,2,,,62,0
25630,note_on,94,0,2,,,,,,,,0,,,62,0
25632,note_on,2,0,3,,,,,,,,2,,,81,127
25632,note_on,2,0,2,,,,,,,,0,,,84,127
25696,note_on,160,0,6,,,,,,,,8,,,38,0
25696,note_on,160,0,5,,,,,,,,6,,,50,0
25696,note_on,160,0,4,,,,,,,,4,,,62,0
25726,note_on,94,0,3,,,,,,,,2,,,81,0
25726,note_on,94,0,2,,,,,,,,0,,,84,0
25728,note_on,2,0,2,,,,,,,,0,,,62,127
25728,note_on,32,0,6,,,,,,,,8,,,38,92
25728,note_on,2,0,3,,,,,,,,2,,,62,127
25728,note_on,32,0,4,,,,,,,,4,,,62,75
25728,note_on,32,0,5,,,,,,,,6,,,50,92
25822,note_on,94,0,3,,,,,,,,2,,,62,0
25822,note_on,94,0,2,,,,,,,,0,,,62,0
25824,note_on,2,0,2,,,,,,,,0,,,84,127
25824,note_on,2,0,3,,,,,,,,2,,,81,127
25888,note_on,160,0,5,,,,,,,,6,,,50,0
25888,note_on,160,0,6,,,,,,,,8,,,38,0
25888,note_on,160,0,4,,,,,,,,4,,,62,0
25918,note_on,94,0,3,,,,,,,,2,,,81,0
25918,note_on,94,0,2,,,,,,,,0,,,84,0
25920,note_on,2,0,3,,,,,,,,2,,,81,127
25920,note_on,2,0,2,,,,,,,,0,,,84,127
26014,note_on,94,0,3,,,,,,,,2,,,81,0
26014,note_on,94,0,2,,,,,,,,0,,,84,0
26016,note_on,2,0,2,,,,,,,,0,,,83,127
26016,note_on,2,0,3,,,,,,,,2,,,79,127
26062,note_on,46,0,2,,,,,,,,0,,,83,0
26062,note_on,46,0,3,,,,,,,,2,,,79,0
26064,note_on,2,0,3,,,,,,,,2,,,78,127
26064,note_on,2,0,2,,,,,,,,0,,,81,127
26110,note_on,46,0,3,,,,,,,,2,,,78,0
26110,note_on,46,0,2,,,,,,,,0,,,81,0
26112,note_on,224,0,4,,,,,,,,4,,,62,75
26112,note_on,2,0,2,,,,,,,,0,,,83,127
26112,note_on,224,0,5,,,,,,,,6,,,50,92
26112,note_on,224,0,6,,,,,,,,8,,,38,92
26112,note_on,2,0,3,,,,,,,,2,,,79,127
26206,note_on,94,0,2,,,,,,,,0,,,83,0
26206,note_on,94,0,3,,,,,,,,2,,,79,0
26208,note_on,2,0,2,,,,,,,,0,,,83,127
26208,note_on,2,0,3,,,,,,,,2,,,79,127
26272,note_on,160,0,6,,,,,,,,8,,,38,0
26272,note_on,160,0,4,,,,,,,,4,,,62,0
26272,note_on,160,0,5,,,,,,,,6,,,50,0
26302,note_on,94,0,2,,,,,,,,0,,,83,0
26302,note_on,94,0,3,,,,,,,,2,,,79,0
26304,note_on,2,0,3,,,,,,,,2,,,62,127
26304,note_on,32,0,6,,,,,,,,8,,,38,92
26304,note_on,32,0,4,,,,,,,,4,,,62,75
26304,note_on,32,0,5,,,,,,,,6,,,50,92
26304,note_on,2,0,2,,,,,,,,0,,,62,127
26398,note_on,94,0,2,,,,,,,,0,,,62,0
26398,note_on,94,0,3,,,,,,,,2,,,62,0
26400,note_on,2,0,2,,,,,,,,0,,,83,127
26400,note_on,2,0,3,,,,,,,,2,,,79,127
26464,note_on,160,0,4,,,,,,,,4,,,62,0
26464,note_on,160,0,6,,,,,,,,8,,,38,0
26464,note_on,160,0,5,,,,,,,,6,,,50,0
26494,note_on,94,0,3,,,,,,,,2,,,79,0
26494,note_on,94,0,2,,,,,,,,0,,,83,0
26496,note_on,32,0,6,,,,,,,,8,,,38,92
26496,note_on,32,0,5,,,,,,,,6,,,50,92
26496,note_on,2,0,2,,,,,,,,0,,,62,127
26496,note_on,2,0,3,,,,,,,,2,,,62,127
26496,note_on,32,0,4,,,,,,,,4,,,62,75
26590,note_on,94,0,3,,,,,,,,2,,,62,0
26590,note_on,94,0,2,,,,,,,,0,,,62,0
26592,note_on,2,0,3,,,,,,,,2,,,79,127
26592,note_on,2,0,2,,,,,,,,0,,,83,127
26656,note_on,160,0,4,,,,,,,,4,,,62,0
26656,note_on,160,0,6,,,,,,,,8,,,38,0
26656,note_on,160,0,5,,,,,,,,6,,,50,0
26686,note_on,94,0,2,,,,,,,,0,,,83,0
26686,note_on,94,0,3,,,,,,,,2,,,79,0
26688,note_on,2,0,2,,,,,,,,0,,,83,127
26688,note_on,2,0,3,,,,,,,,2,,,79,127
26782,note_on,94,0,2,,,,,,,,0,,,83,0
26782,note_on,94,0,3,,,,,,,,2,,,79,0
26784,note_on,2,0,3,,,,,,,,2,,,78,127
26784,note_on,2,0,2,,,,,,,,0,,,81,127
26830,note_on,46,0,2,,,,,,,,0,,,81,0
26830,note_on,46,0,3,,,,,,,,2,,,78,0
26832,note_on,2,0,2,,,,,,,,0,,,79,127
26832,note_on,2,0,3,,,,,,,,2,,,76,127
26878,note_on,46,0,2,,,,,,,,0,,,79,0
26878,note_on,46,0,3,,,,,,,,2,,,76,0
26880,note_on,224,0,4,,,,,,,,4,,,62,75
26880,note_on,224,0,6,,,,,,,,8,,,38,92
26880,note_on,224,0,5,,,,,,,,6,,,50,92
26880,note_on,2,0,2,,,,,,,,0,,,81,127
26880,note_on,2,0,3,,,,,,,,2,,,78,127
26974,note_on,94,0,3,,,,,,,,2,,,78,0
26974,note_on,94,0,2,,,,,,,,0,,,81,0
26976,note_on,2,0,3,,,,,,,,2,,,78,127
26976,note_on,2,0,2,,,,,,,,0,,,81,127
27040,note_on,160,0,5,,,,,,,,6,,,50,0
27040,note_on,160,0,6,,,,,,,,8,,,38,0
27040,note_on,160,0,4,,,,,,,,4,,,62,0
27070,note_on,94,0,3,,,,,,,,2,,,78,0
27070,note_on,94,0,2,,,,,,,,0,,,81,0
27072,note_on,2,0,3,,,,,,,,2,,,62,127
27072,note_on,32,0,5,,,,,,,,6,,,50,92
27072,note_on,2,0,2,,,,,,,,0,,,62,127
27072,note_on,32,0,6,,,,,,,,8,,,38,92
27072,note_on,32,0,4,,,,,,,,4,,,62,75
27166,note_on,94,0,3,,,,,,,,2,,,62,0
27166,note_on,94,0,2,,,,,,,,0,,,62,0
27168,note_on,2,0,2,,,,,,,,0,,,81,127
27168,note_on,2,0,3,,,,,,,,2,,,78,127
27232,note_on,160,0,4,,,,,,,,4,,,62,0
27232,note_on,160,0,6,,,,,,,,8,,,38,0
27232,note_on,160,0,5,,,,,,,,6,,,50,0
27262,note_on,94,0,3,,,,,,,,2,,,78,0
27262,note_on,94,0,2,,,,,,,,0,,,81,0
27264,note_on,2,0,3,,,,,,,,2,,,62,127
27264,note_on,2,0,2,,,,,,,,0,,,62,127
27264,note_on,32,0,4,,,,,,,,4,,,62,75
27264,note_on,32,0,5,,,,,,,,6,,,50,92
27264,note_on,32,0,6,,,,,,,,8,,,38,92
27358,note_on,94,0,3,,,,,,,,2,,,62,0
27358,note_on,94,0,2,,,,,,,,0,,,62,0
27360,note_on,2,0,2,,,,,,,,0,,,81,127
27360,note_on,2,0,3,,,,,,,,2,,,78,127
27424,note_on,160,0,5,,,,,,,,6,,,50,0
27424,note_on,160,0,6,,,,,,,,8,,,38,0
27424,note_on,160,0,4,,,,,,,,4,,,62,0
27454,note_on,94,0,2,,,,,,,,0,,,81,0
27454,note_on,94,0,3,,,,,,,,2,,,78,0
27456,note_on,2,0,2,,,,,,,,0,,,81,127
27456,note_on,2,0,3,,,,,,,,2,,,78,127
27550,note_on,94,0,2,,,,,,,,0,,,81,0
27550,note_on,94,0,3,,,,,,,,2,,,78,0
27552,note_on,2,0,2,,,,,,,,0,,,79,127
27552,note_on,2,0,3,,,,,,,,2,,,76,127
27598,note_on,46,0,3,,,,,,,,2,,,76,0
27598,note_on,46,0,2,,,,,,,,0,,,79,0
27600,note_on,2,0,3,,,,,,,,2,,,74,127
27600,note_on,2,0,2,,,,,,,,0,,,78,127
27646,note_on,46,0,2,,,,,,,,0,,,78,0
27646,note_on,46,0,3,,,,,,,,2,,,74,0
27648,note_on,2,0,2,,,,,,,,0,,,79,127
27648,note_on,224,0,6,,,,,,,,8,,,31,92
27648,note_on,2,0,3,,,,,,,,2,,,83,127
27648,note_on,224,0,4,,,,,,,,4,,,62,75
27648,note_on,224,0,5,,,,,,,,6,,,43,92
27742,note_on,94,0,6,,,,,,,,8,,,31,0
27742,note_on,94,0,5,,,,,,,,6,,,43,0
27742,note_on,94,0,4,,,,,,,,4,,,62,0
27742,note_on,94,0,2,,,,,,,,0,,,79,0
27742,note_on,94,0,3,,,,,,,,2,,,83,0
27744,note_on,2,0,5,,,,,,,,6,,,43,92
27744,note_on,2,0,2,,,,,,,,0,,,71,127
27744,note_on,2,0,6,,,,,,,,8,,,31,92
27744,note_on,2,0,3,,,,,,,,2,,,67,127
27744,note_on,2,0,4,,,,,,,,4,,,62,75
27838,note_on,94,0,6,,,,,,,,8,,,31,0
27838,note_on,94,0,5,,,,,,,,6,,,43,0
27838,note_on,94,0,3,,,,,,,,2,,,67,0
27838,note_on,94,0,4,,,,,,,,4,,,62,0
27838,note_on,94,0,2,,,,,,,,0,,,71,0
27840,note_on,2,0,3,,,,,,,,2,,,66,127
27840,note_on,2,0,4,,,,,,,,4,,,62,75
27840,note_on,2,0,2,,,,,,,,0,,,69,127
27840,note_on,2,0,6,,,,,,,,8,,,38,92
27840,note_on,2,0,5,,,,,,,,6,,,50,92
27934,note_on,94,0,2,,,,,,,,0,,,69,0
27934,note_on,94,0,3,,,,,,,,2,,,66,0
27934,note_on,94,0,6,,,,,,,,8,,,38,0
27934,note_on,94,0,4,,,,,,,,4,,,62,0
27934,note_on,94,0,5,,,,,,,,6,,,50,0
27936,note_on,2,0,4,,,,,,,,4,,,62,75
27936,note_on,2,0,2,,,,,,,,0,,,78,127
27936,note_on,2,0,5,,,,,,,,6,,,38,92
27936,note_on,2,0,6,,,,,,,,8,,,26,92
27936,note_on,2,0,3,,,,,,,,2,,,69,127
28030,note_on,94,0,2,,,,,,,,0,,,78,0
28030,note_on,94,0,6,,,,,,,,8,,,26,0
28030,note_on,94,0,4,,,,,,,,4,,,62,0
28030,note_on,94,0,5,,,,,,,,6,,,38,0
28030,note_on,94,0,3,,,,,,,,2,,,69,0
28032,note_on,2,0,3,,,,,,,,2,,,67,127
28032,note_on,2,0,6,,,,,,,,8,,,31,92
28032,note_on,6192,0,1,,,,,,,,11,,,79,127
28032,note_on,2,0,4,,,,,,,,4,,,59,75
28032,note_on,0,0,4,,,,,,,,4,,,62,75
28032,note_on,2,0,5,,,,,,,,6,,,43,92
28032,note_on,2,0,2,,,,,,,,0,,,79,127
28078,note_on,46,0,1,,,,,,,,11,,,79,0
28080,note_on,2,0,1,,,,,,,,11,,,74,127
28126,note_on,46,0,1,,,,,,,,11,,,74,0
28128,note_on,2,0,1,,,,,,,,11,,,76,127
28174,note_on,46,0,1,,,,,,,,11,,,76,0
28176,note_on,2,0,1,,,,,,,,11,,,72,127
28192,note_on,160,0,6,,,,,,,,8,,,31,0
28192,note_on,160,0,2,,,,,,,,0,,,79,0
28192,note_on,160,0,4,,,,,,,,4,,,59,0
28192,note_on,160,0,3,,,,,,,,2,,,67,0
28192,note_on,0,0,4,,,,,,,,4,,,62,0
28222,note_on,46,0,1,,,,,,,,11,,,72,0
28224,note_on,2,0,1,,,,,,,,11,,,74,127
28270,note_on,46,0,1,,,,,,,,11,,,74,0
28272,note_on,2,0,1,,,,,,,,11,,,71,127
28318,note_on,46,0,1,,,,,,,,11,,,71,0
28320,note_on,2,0,1,,,,,,,,11,,,72,127
28366,note_on,46,0,1,,,,,,,,11,,,72,0
28368,note_on,2,0,1,,,,,,,,11,,,69,127
28414,note_on,46,0,1,,,,,,,,11,,,69,0
28416,note_on,2,0,1,,,,,,,,11,,,71,127
28462,note_on,46,0,1,,,,,,,,11,,,71,0
28464,note_on,2,0,1,,,,,,,,11,,,67,127
28510,note_on,46,0,1,,,,,,,,11,,,67,0
28512,note_on,2,0,1,,,,,,,,11,,,74,127
28558,note_on,46,0,1,,,,,,,,11,,,74,0
28560,note_on,2,0,1,,,,,,,,11,,,71,127
28606,note_on,46,0,1,,,,,,,,11,,,71,0
28608,note_on,2,0,1,,,,,,,,11,,,76,127
28654,note_on,46,0,1,,,,,,,,11,,,76,0
28656,note_on,2,0,1,,,,,,,,11,,,72,127
28702,note_on,46,0,1,,,,,,,,11,,,72,0
28704,note_on,2,0,1,,,,,,,,11,,,78,127
28750,note_on,46,0,1,,,,,,,,11,,,78,0
28752,note_on,2,0,1,,,,,,,,11,,,74,127
28798,note_on,46,0,1,,,,,,,,11,,,74,0
28800,note_on,2,0,1,,,,,,,,11,,,79,127
28846,note_on,46,0,1,,,,,,,,11,,,79,0
28848,note_on,2,0,1,,,,,,,,11,,,74,127
28894,note_on,46,0,1,,,,,,,,11,,,74,0
28896,note_on,2,0,1,,,,,,,,11,,,76,127
28942,note_on,46,0,1,,,,,,,,11,,,76,0
28944,note_on,2,0,1,,,,,,,,11,,,72,127
28990,note_on,46,0,1,,,,,,,,11,,,72,0
28992,note_on,2,0,1,,,,,,,,11,,,74,127
29038,note_on,46,0,1,,,,,,,,11,,,74,0
29040,note_on,2,0,1,,,,,,,,11,,,71,127
29086,note_on,46,0,1,,,,,,,,11,,,71,0
29088,note_on,2,0,1,,,,,,,,11,,,72,127
29134,note_on,46,0,1,,,,,,,,11,,,72,0
29136,note_on,2,0,1,,,,,,,,11,,,69,127
29182,note_on,46,0,1,,,,,,,,11,,,69,0
29184,note_on,2,0,1,,,,,,,,11,,,71,127
29230,note_on,46,0,1,,,,,,,,11,,,71,0
29232,note_on,2,0,1,,,,,,,,11,,,67,127
29278,note_on,46,0,1,,,,,,,,11,,,67,0
29280,note_on,2,0,1,,,,,,,,11,,,74,127
29326,note_on,46,0,1,,,,,,,,11,,,74,0
29328,note_on,2,0,1,,,,,,,,11,,,71,127
29374,note_on,46,0,1,,,,,,,,11,,,71,0
29376,note_on,2,0,1,,,,,,,,11,,,76,127
29422,note_on,46,0,1,,,,,,,,11,,,76,0
29424,note_on,2,0,1,,,,,,,,11,,,72,127
29470,note_on,46,0,1,,,,,,,,11,,,72,0
29472,note_on,2,0,1,,,,,,,,11,,,78,127
29518,note_on,46,0,1,,,,,,,,11,,,78,0
29520,note_on,2,0,1,,,,,,,,11,,,74,127
29566,note_on,46,0,1,,,,,,,,11,,,74,0
29568,note_on,2,0,1,,,,,,,,11,,,79,127
29662,note_on,1630,0,5,,,,,,,,6,,,43,0
29664,note_on,2,0,5,,,,,,,,6,,,45,92
29758,note_on,94,0,5,,,,,,,,6,,,45,0
29760,note_on,2,0,5,,,,,,,,6,,,47,92
29806,note_on,238,0,1,,,,,,,,11,,,79,0
29808,note_on,2,0,1,,,,,,,,11,,,74,127
29854,note_on,46,0,1,,,,,,,,11,,,74,0
29854,note_on,94,0,5,,,,,,,,6,,,47,0
29856,note_on,2,0,1,,,,,,,,11,,,72,127
29856,note_on,2,0,5,,,,,,,,6,,,45,92
29902,note_on,46,0,1,,,,,,,,11,,,72,0
29904,note_on,2,0,1,,,,,,,,11,,,74,127
29950,note_on,94,0,5,,,,,,,,6,,,45,0
29950,note_on,46,0,1,,,,,,,,11,,,74,0
29952,note_on,2,0,5,,,,,,,,6,,,43,92
29952,note_on,2,0,1,,,,,,,,11,,,71,127
29998,note_on,46,0,1,,,,,,,,11,,,71,0
30000,note_on,2,0,1,,,,,,,,11,,,74,127
30046,note_on,46,0,1,,,,,,,,11,,,74,0
30046,note_on,94,0,5,,,,,,,,6,,,43,0
30048,note_on,2,0,5,,,,,,,,6,,,45,92
30048,note_on,2,0,1,,,,,,,,11,,,72,127
30094,note_on,46,0,1,,,,,,,,11,,,72,0
30096,note_on,2,0,1,,,,,,,,11,,,74,127
30142,note_on,46,0,1,,,,,,,,11,,,74,0
30142,note_on,94,0,5,,,,,,,,6,,,45,0
30144,note_on,2,0,1,,,,,,,,11,,,67,127
30144,note_on,2,0,5,,,,,,,,6,,,47,92
30190,note_on,46,0,1,,,,,,,,11,,,67,0
30192,note_on,2,0,1,,,,,,,,11,,,74,127
30238,note_on,94,0,5,,,,,,,,6,,,47,0
30238,note_on,46,0,1,,,,,,,,11,,,74,0
30240,note_on,2,0,1,,,,,,,,11,,,72,127
30240,note_on,2,0,5,,,,,,,,6,,,43,92
30286,note_on,46,0,1,,,,,,,,11,,,72,0
30288,note_on,2,0,1,,,,,,,,11,,,74,127
30334,note_on,94,0,5,,,,,,,,6,,,43,0
30334,note_on,46,0,1,,,,,,,,11,,,74,0
30336,note_on,2,0,5,,,,,,,,6,,,48,92
30336,note_on,2,0,1,,,,,,,,11,,,76,127
30382,note_on,46,0,1,,,,,,,,11,,,76,0
30384,note_on,2,0,1,,,,,,,,11,,,78,127
30430,note_on,94,0,5,,,,,,,,6,,,48,0
30430,note_on,46,0,1,,,,,,,,11,,,78,0
30432,note_on,2,0,5,,,,,,,,6,,,50,92
30432,note_on,2,0,1,,,,,,,,11,,,79,127
30526,note_on,94,0,5,,,,,,,,6,,,50,0
30528,note_on,2,0,5,,,,,,,,6,,,52,92
30574,note_on,142,0,1,,,,,,,,11,,,79,0
30576,note_on,2,0,1,,,,,,,,11,,,72,127
30622,note_on,46,0,1,,,,,,,,11,,,72,0
30622,note_on,94,0,5,,,,,,,,6,,,52,0
30624,note_on,2,0,1,,,,,,,,11,,,71,127
30624,note_on,2,0,5,,,,,,,,6,,,48,92
30670,note_on,46,0,1,,,,,,,,11,,,71,0
30672,note_on,2,0,1,,,,,,,,11,,,72,127
30718,note_on,94,0,5,,,,,,,,6,,,48,0
30718,note_on,46,0,1,,,,,,,,11,,,72,0
30720,note_on,2,0,1,,,,,,,,11,,,69,127
30720,note_on,2,0,5,,,,,,,,6,,,42,92
30766,note_on,46,0,1,,,,,,,,11,,,69,0
30768,note_on,2,0,1,,,,,,,,11,,,72,127
30814,note_on,46,0,1,,,,,,,,11,,,72,0
30814,note_on,94,0,5,,,,,,,,6,,,42,0
30816,note_on,2,0,1,,,,,,,,11,,,71,127
30816,note_on,2,0,5,,,,,,,,6,,,43,92
30862,note_on,46,0,1,,,,,,,,11,,,71,0
30864,note_on,2,0,1,,,,,,,,11,,,72,127
30910,note_on,46,0,1,,,,,,,,11,,,72,0
30910,note_on,94,0,5,,,,,,,,6,,,43,0
30912,note_on,2,0,5,,,,,,,,6,,,45,92
30912,note_on,2,0,1,,,,,,,,11,,,66,127
30958,note_on,46,0,1,,,,,,,,11,,,66,0
30960,note_on,2,0,1,,,,,,,,11,,,72,127
31006,note_on,46,0,1,,,,,,,,11,,,72,0
31006,note_on,94,0,5,,,,,,,,6,,,45,0
31008,note_on,2,0,5,,,,,,,,6,,,42,92
31008,note_on,2,0,1,,,,,,,,11,,,71,127
31054,note_on,46,0,1,,,,,,,,11,,,71,0
31056,note_on,2,0,1,,,,,,,,11,,,72,127
31102,note_on,94,0,5,,,,,,,,6,,,42,0
31102,note_on,46,0,1,,,,,,,,11,,,72,0
31104,note_on,2,0,1,,,,,,,,11,,,74,127
31104,note_on,2,0,5,,,,,,,,6,,,47,92
31150,note_on,46,0,1,,,,,,,,11,,,74,0
31152,note_on,2,0,1,,,,,,,,11,,,76,127
31198,note_on,94,0,5,,,,,,,,6,,,47,0
31198,note_on,46,0,1,,,,,,,,11,,,76,0
31200,note_on,2,0,1,,,,,,,,11,,,78,127
31200,note_on,2,0,5,,,,,,,,6,,,48,92
31294,note_on,94,0,5,,,,,,,,6,,,48,0
31296,note_on,2,0,5,,,,,,,,6,,,50,92
31342,note_on,142,0,1,,,,,,,,11,,,78,0
31344,note_on,2,0,1,,,,,,,,11,,,71,127
31390,note_on,46,0,1,,,,,,,,11,,,71,0
31390,note_on,94,0,5,,,,,,,,6,,,50,0
31392,note_on,2,0,1,,,,,,,,11,,,69,127
31392,note_on,2,0,5,,,,,,,,6,,,47,92
31438,note_on,46,0,1,,,,,,,,11,,,69,0
31440,note_on,2,0,1,,,,,,,,11,,,71,127
31486,note_on,46,0,1,,,,,,,,11,,,71,0
31486,note_on,94,0,5,,,,,,,,6,,,47,0
31488,note_on,2,0,5,,,,,,,,6,,,52,92
31488,note_on,2,0,1,,,,,,,,11,,,67,127
31534,note_on,46,0,1,,,,,,,,11,,,67,0
31536,note_on,2,0,1,,,,,,,,11,,,71,127
31582,note_on,94,0,5,,,,,,,,6,,,52,0
31582,note_on,46,0,1,,,,,,,,11,,,71,0
31584,note_on,2,0,5,,,,,,,,6,,,54,92
31584,note_on,2,0,1,,,,,,,,11,,,69,127
31630,note_on,46,0,1,,,,,,,,11,,,69,0
31632,note_on,2,0,1,,,,,,,,11,,,71,127
31678,note_on,94,0,5,,,,,,,,6,,,54,0
31678,note_on,46,0,1,,,,,,,,11,,,71,0
31680,note_on,2,0,1,,,,,,,,11,,,64,127
31680,note_on,2,0,5,,,,,,,,6,,,55,92
31726,note_on,46,0,1,,,,,,,,11,,,64,0
31728,note_on,2,0,1,,,,,,,,11,,,71,127
31774,note_on,46,0,1,,,,,,,,11,,,71,0
31774,note_on,94,0,5,,,,,,,,6,,,55,0
31776,note_on,2,0,1,,,,,,,,11,,,69,127
31776,note_on,2,0,5,,,,,,,,6,,,52,92
31822,note_on,46,0,1,,,,,,,,11,,,69,0
31824,note_on,2,0,1,,,,,,,,11,,,71,127
31870,note_on,46,0,1,,,,,,,,11,,,71,0
31870,note_on,94,0,5,,,,,,,,6,,,52,0
31872,note_on,2,0,5,,,,,,,,6,,,45,92
31872,note_on,2,0,1,,,,,,,,11,,,72,127
31918,note_on,46,0,1,,,,,,,,11,,,72,0
31920,note_on,2,0,1,,,,,,,,11,,,74,127
31966,note_on,46,0,1,,,,,,,,11,,,74,0
31966,note_on,94,0,5,,,,,,,,6,,,45,0
31968,note_on,2,0,5,,,,,,,,6,,,47,92
31968,note_on,2,0,1,,,,,,,,11,,,76,127
32062,note_on,94,0,5,,,,,,,,6,,,47,0
32064,note_on,2,0,5,,,,,,,,6,,,48,92
32110,note_on,142,0,1,,,,,,,,11,,,76,0
32112,note_on,2,0,1,,,,,,,,11,,,69,127
32158,note_on,94,0,5,,,,,,,,6,,,48,0
32158,note_on,46,0,1,,,,,,,,11,,,69,0
32160,note_on,2,0,5,,,,,,,,6,,,45,92
32160,note_on,2,0,1,,,,,,,,11,,,67,127
32206,note_on,46,0,1,,,,,,,,11,,,67,0
32208,note_on,2,0,1,,,,,,,,11,,,69,127
32254,note_on,94,0,5,,,,,,,,6,,,45,0
32254,note_on,46,0,1,,,,,,,,11,,,69,0
32256,note_on,2,0,5,,,,,,,,6,,,50,92
32256,note_on,2,0,1,,,,,,,,11,,,66,127
32302,note_on,46,0,1,,,,,,,,11,,,66,0
32304,note_on,2,0,1,,,,,,,,11,,,69,127
32350,note_on,46,0,1,,,,,,,,11,,,69,0
32350,note_on,94,0,5,,,,,,,,6,,,50,0
32352,note_on,2,0,1,,,,,,,,11,,,67,127
32352,note_on,2,0,5,,,,,,,,6,,,52,92
32398,note_on,46,0,1,,,,,,,,11,,,67,0
32400,note_on,2,0,1,,,,,,,,11,,,69,127
32446,note_on,46,0,1,,,,,,,,11,,,69,0
32446,note_on,94,0,5,,,,,,,,6,,,52,0
32448,note_on,2,0,1,,,,,,,,11,,,62,127
32448,note_on,2,0,5,,,,,,,,6,,,54,92
32494,note_on,46,0,1,,,,,,,,11,,,62,0
32496,note_on,2,0,1,,,,,,,,11,,,69,127
32542,note_on,94,0,5,,,,,,,,6,,,54,0
32542,note_on,46,0,1,,,,,,,,11,,,69,0
32544,note_on,2,0,5,,,,,,,,6,,,50,92
32544,note_on,2,0,1,,,,,,,,11,,,67,127
32590,note_on,46,0,1,,,,,,,,11,,,67,0
32592,note_on,2,0,1,,,,,,,,11,,,69,127
32638,note_on,94,0,5,,,,,,,,6,,,50,0
32638,note_on,46,0,1,,,,,,,,11,,,69,0
32640,note_on,2,0,5,,,,,,,,6,,,55,92
32640,note_on,2,0,1,,,,,,,,11,,,71,127
32686,note_on,46,0,1,,,,,,,,11,,,71,0
32688,note_on,2,0,1,,,,,,,,11,,,72,127
32734,note_on,46,0,1,,,,,,,,11,,,72,0
32734,note_on,94,0,5,,,,,,,,6,,,55,0
32736,note_on,2,0,5,,,,,,,,6,,,55,92
32736,note_on,2,0,1,,,,,,,,11,,,74,127
32830,note_on,94,0,5,,,,,,,,6,,,55,0
32830,note_on,94,0,1,,,,,,,,11,,,74,0
32832,note_on,2,0,5,,,,,,,,6,,,54,92
32832,note_on,2,0,1,,,,,,,,11,,,71,127
32878,note_on,46,0,1,,,,,,,,11,,,71,0
32880,note_on,2,0,1,,,,,,,,11,,,72,127
32926,note_on,94,0,5,,,,,,,,6,,,54,0
32926,note_on,46,0,1,,,,,,,,11,,,72,0
32928,note_on,2,0,1,,,,,,,,11,,,74,127
32928,note_on,2,0,5,,,,,,,,6,,,54,92
33022,note_on,94,0,1,,,,,,,,11,,,74,0
33022,note_on,94,0,5,,,,,,,,6,,,54,0
33024,note_on,2,0,5,,,,,,,,6,,,52,92
33024,note_on,2,0,1,,,,,,,,11,,,71,127
33070,note_on,46,0,1,,,,,,,,11,,,71,0
33072,note_on,2,0,1,,,,,,,,11,,,72,127
33118,note_on,94,0,5,,,,,,,,6,,,52,0
33118,note_on,46,0,1,,,,,,,,11,,,72,0
33120,note_on,2,0,5,,,,,,,,6,,,52,92
33120,note_on,2,0,1,,,,,,,,11,,,74,127
33214,note_on,94,0,5,,,,,,,,6,,,52,0
33214,note_on,94,0,1,,,,,,,,11,,,74,0
33216,note_on,2,0,1,,,,,,,,11,,,71,127
33216,note_on,2,0,5,,,,,,,,6,,,50,92
33262,note_on,46,0,1,,,,,,,,11,,,71,0
33264,note_on,2,0,1,,,,,,,,11,,,72,127
33310,note_on,94,0,5,,,,,,,,6,,,50,0
33310,note_on,46,0,1,,,,,,,,11,,,72,0
33312,note_on,2,0,5,,,,,,,,6,,,48,92
33312,note_on,2,0,1,,,,,,,,11,,,74,127
33406,note_on,94,0,1,,,,,,,,11,,,74,0
33406,note_on,94,0,5,,,,,,,,6,,,48,0
33408,note_on,2,0,1,,,,,,,,11,,,71,127
33408,note_on,5216,0,4,,,,,,,,4,,,67,75
33408,note_on,2,0,5,,,,,,,,6,,,55,92
33408,note_on,5216,0,3,,,,,,,,2,,,67,127
33408,note_on,5216,0,2,,,,,,,,0,,,67,127
33408,note_on,5216,0,6,,,,,,,,8,,,43,92
33502,note_on,94,0,1,,,,,,,,11,,,71,0
33502,note_on,94,0,2,,,,,,,,0,,,67,0
33502,note_on,94,0,3,,,,,,,,2,,,67,0
33504,note_on,2,0,3,,,,,,,,2,,,74,127
33504,note_on,2,0,1,,,,,,,,11,,,74,127
33504,note_on,2,0,2,,,,,,,,0,,,74,127
33568,note_on,160,0,4,,,,,,,,4,,,67,0
33568,note_on,160,0,6,,,,,,,,8,,,43,0
33568,note_on,160,0,5,,,,,,,,6,,,55,0
33598,note_on,94,0,3,,,,,,,,2,,,74,0
33598,note_on,94,0,2,,,,,,,,0,,,74,0
33598,note_on,94,0,1,,,,,,,,11,,,74,0
33600,note_on,32,0,5,,,,,,,,6,,,59,92
33600,note_on,32,0,6,,,,,,,,8,,,47,92
33600,note_on,2,0,2,,,,,,,,0,,,71,127
33600,note_on,2,0,1,,,,,,,,11,,,71,127
33600,note_on,32,0,4,,,,,,,,4,,,71,75
33600,note_on,2,0,3,,,,,,,,2,,,71,127
33694,note_on,94,0,2,,,,,,,,0,,,71,0
33694,note_on,94,0,1,,,,,,,,11,,,71,0
33694,note_on,94,0,4,,,,,,,,4,,,71,0
33694,note_on,94,0,3,,,,,,,,2,,,71,0
33694,note_on,94,0,6,,,,,,,,8,,,47,0
33694,note_on,94,0,5,,,,,,,,6,,,59,0
33696,note_on,2,0,5,,,,,,,,6,,,57,92
33696,note_on,2,0,1,,,,,,,,11,,,69,127
33696,note_on,2,0,4,,,,,,,,4,,,69,75
33696,note_on,2,0,3,,,,,,,,2,,,69,127
33696,note_on,2,0,6,,,,,,,,8,,,45,92
33696,note_on,2,0,2,,,,,,,,0,,,69,127
33742,note_on,46,0,4,,,,,,,,4,,,69,0
33742,note_on,46,0,2,,,,,,,,0,,,69,0
33742,note_on,46,0,6,,,,,,,,8,,,45,0
33742,note_on,46,0,1,,,,,,,,11,,,69,0
33742,note_on,46,0,5,,,,,,,,6,,,57,0
33742,note_on,46,0,3,,,,,,,,2,,,69,0
33744,note_on,2,0,6,,,,,,,,8,,,43,92
33744,note_on,2,0,5,,,,,,,,6,,,55,92
33744,note_on,2,0,3,,,,,,,,2,,,67,127
33744,note_on,2,0,2,,,,,,,,0,,,67,127
33744,note_on,2,0,4,,,,,,,,4,,,67,75
33744,note_on,2,0,1,,,,,,,,11,,,67,127
33790,note_on,46,0,2,,,,,,,,0,,,67,0
33790,note_on,46,0,5,,,,,,,,6,,,55,0
33790,note_on,46,0,6,,,,,,,,8,,,43,0
33790,note_on,46,0,3,,,,,,,,2,,,67,0
33790,note_on,46,0,4,,,,,,,,4,,,67,0
33790,note_on,46,0,1,,,,,,,,11,,,67,0
33792,note_on,2,0,1,,,,,,,,11,,,69,127
33792,note_on,2,0,6,,,,,,,,8,,,45,92
33792,note_on,2,0,3,,,,,,,,2,,,69,127
33792,note_on,2,0,2,,,,,,,,0,,,69,127
33792,note_on,2,0,4,,,,,,,,4,,,69,75
33792,note_on,2,0,5,,,,,,,,6,,,57,92
33886,note_on,94,0,1,,,,,,,,11,,,69,0
33886,note_on,94,0,3,,,,,,,,2,,,69,0
33886,note_on,94,0,2,,,,,,,,0,,,69,0
33888,note_on,2,0,1,,,,,,,,11,,,74,127
33888,note_on,2,0,2,,,,,,,,0,,,74,127
33888,note_on,2,0,3,,,,,,,,2,,,74,127
33952,note_on,160,0,6,,,,,,,,8,,,45,0
33952,note_on,160,0,5,,,,,,,,6,,,57,0
33952,note_on,160,0,4,,,,,,,,4,,,69,0
33982,note_on,94,0,3,,,,,,,,2,,,74,0
33982,note_on,94,0,1,,,,,,,,11,,,74,0
33982,note_on,94,0,2,,,,,,,,0,,,74,0
33984,note_on,32,0,4,,,,,,,,4,,,69,75
33984,note_on,32,0,5,,,,,,,,6,,,57,92
33984,note_on,2,0,2,,,,,,,,0,,,69,127
33984,note_on,32,0,6,,,,,,,,8,,,45,92
33984,note_on,2,0,1,,,,,,,,11,,,69,127
33984,note_on,2,0,3,,,,,,,,2,,,69,127
34078,note_on,94,0,6,,,,,,,,8,,,45,0
34078,note_on,94,0,1,,,,,,,,11,,,69,0
34078,note_on,94,0,5,,,,,,,,6,,,57,0
34078,note_on,94,0,2,,,,,,,,0,,,69,0
34078,note_on,94,0,4,,,,,,,,4,,,69,0
34078,note_on,94,0,3,,,,,,,,2,,,69,0
34080,note_on,2,0,2,,,,,,,,0,,,67,127
34080,note_on,2,0,3,,,,,,,,2,,,67,127
34080,note_on,2,0,1,,,,,,,,11,,,67,127
34080,note_on,2,0,5,,,,,,,,6,,,55,92
34080,note_on,2,0,4,,,,,,,,4,,,67,75
34080,note_on,2,0,6,,,,,,,,8,,,43,92
34126,note_on,46,0,2,,,,,,,,0,,,67,0
34126,note_on,46,0,1,,,,,,,,11,,,67,0
34126,note_on,46,0,3,,,,,,,,2,,,67,0
34126,note_on,46,0,4,,,,,,,,4,,,67,0
34126,note_on,46,0,6,,,,,,,,8,,,43,0
34126,note_on,46,0,5,,,,,,,,6,,,55,0
34128,note_on,2,0,5,,,,,,,,6,,,54,92
34128,note_on,2,0,3,,,,,,,,2,,,66,127
34128,note_on,2,0,1,,,,,,,,11,,,66,127
34128,note_on,2,0,4,,,,,,,,4,,,66,75
34128,note_on,2,0,2,,,,,,,,0,,,66,127
34128,note_on,2,0,6,,,,,,,,8,,,42,92
34174,note_on,46,0,4,,,,,,,,4,,,66,0
34174,note_on,46,0,5,,,,,,,,6,,,54,0
34174,note_on,46,0,1,,,,,,,,11,,,66,0
34174,note_on,46,0,2,,,,,,,,0,,,66,0
34174,note_on,46,0,3,,,,,,,,2,,,66,0
34174,note_on,46,0,6,,,,,,,,8,,,42,0
34176,note_on,2,0,2,,,,,,,,0,,,67,127
34176,note_on,2,0,1,,,,,,,,11,,,67,127
34176,note_on,2,0,6,,,,,,,,8,,,43,92
34176,note_on,2,0,4,,,,,,,,4,,,67,75
34176,note_on,2,0,3,,,,,,,,2,,,67,127
34176,note_on,2,0,5,,,,,,,,6,,,55,92
34270,note_on,94,0,1,,,,,,,,11,,,67,0
34270,note_on,94,0,3,,,,,,,,2,,,67,0
34270,note_on,94,0,2,,,,,,,,0,,,67,0
34272,note_on,2,0,2,,,,,,,,0,,,74,127
34272,note_on,2,0,3,,,,,,,,2,,,74,127
34272,note_on,2,0,1,,,,,,,,11,,,74,127
34336,note_on,160,0,6,,,,,,,,8,,,43,0
34336,note_on,160,0,4,,,,,,,,4,,,67,0
34336,note_on,160,0,5,,,,,,,,6,,,55,0
34366,note_on,94,0,2,,,,,,,,0,,,74,0
34366,note_on,94,0,1,,,,,,,,11,,,74,0
34366,note_on,94,0,3,,,,,,,,2,,,74,0
34368,note_on,2,0,3,,,,,,,,2,,,67,127
34368,note_on,2,0,2,,,,,,,,0,,,67,127
34368,note_on,32,0,4,,,,,,,,4,,,67,75
34368,note_on,32,0,5,,,,,,,,6,,,55,92
34368,note_on,32,0,6,,,,,,,,8,,,43,92
34368,note_on,2,0,1,,,,,,,,11,,,67,127
34462,note_on,94,0,6,,,,,,,,8,,,43,0
34462,note_on,94,0,2,,,,,,,,0,,,67,0
34462,note_on,94,0,3,,,,,,,,2,,,67,0
34462,note_on,94,0,1,,,,,,,,11,,,67,0
34462,note_on,94,0,4,,,,,,,,4,,,67,0
34462,note_on,94,0,5,,,,,,,,6,,,55,0
34464,note_on,2,0,1,,,,,,,,11,,,66,127
34464,note_on,2,0,6,,,,,,,,8,,,42,92
34464,note_on,2,0,4,,,,,,,,4,,,66,75
34464,note_on,2,0,3,,,,,,,,2,,,66,127
34464,note_on,2,0,5,,,,,,,,6,,,54,92
34464,note_on,2,0,2,,,,,,,,0,,,66,127
34510,note_on,46,0,1,,,,,,,,11,,,66,0
34510,note_on,46,0,3,,,,,,,,2,,,66,0
34510,note_on,46,0,4,,,,,,,,4,,,66,0
34510,note_on,46,0,2,,,,,,,,0,,,66,0
34510,note_on,46,0,5,,,,,,,,6,,,54,0
34510,note_on,46,0,6,,,,,,,,8,,,42,0
34512,note_on,2,0,5,,,,,,,,6,,,52,92
34512,note_on,2,0,1,,,,,,,,11,,,64,127
34512,note_on,2,0,2,,,,,,,,0,,,64,127
34512,note_on,2,0,4,,,,,,,,4,,,64,75
34512,note_on,2,0,6,,,,,,,,8,,,40,92
34512,note_on,2,0,3,,,,,,,,2,,,64,127
34558,note_on,46,0,6,,,,,,,,8,,,40,0
34558,note_on,46,0,2,,,,,,,,0,,,64,0
34558,note_on,46,0,3,,,,,,,,2,,,64,0
34558,note_on,46,0,4,,,,,,,,4,,,64,0
34558,note_on,46,0,1,,,,,,,,11,,,64,0
34558,note_on,46,0,5,,,,,,,,6,,,52,0
34560,note_on,2,0,6,,,,,,,,8,,,42,92
34560,note_on,2,0,4,,,,,,,,4,,,66,75
34560,note_on,2,0,5,,,,,,,,6,,,54,92
34560,note_on,2,0,2,,,,,,,,0,,,66,127
34560,note_on,2,0,3,,,,,,,,2,,,66,127
34560,note_on,2,0,1,,,,,,,,11,,,66,127
34654,note_on,94,0,2,,,,,,,,0,,,66,0
34654,note_on,94,0,3,,,,,,,,2,,,66,0
34654,note_on,94,0,1,,,,,,,,11,,,66,0
34656,note_on,2,0,2,,,,,,,,0,,,74,127
34656,note_on,2,0,1,,,,,,,,11,,,74,127
34656,note_on,2,0,3,,,,,,,,2,,,74,127
34720,note_on,160,0,5,,,,,,,,6,,,54,0
34720,note_on,160,0,4,,,,,,,,4,,,66,0
34720,note_on,160,0,6,,,,,,,,8,,,42,0
34750,note_on,94,0,1,,,,,,,,11,,,74,0
34750,note_on,94,0,3,,,,,,,,2,,,74,0
34750,note_on,94,0,2,,,,,,,,0,,,74,0
34752,note_on,2,0,1,,,,,,,,11,,,66,127
34752,note_on,2,0,3,,,,,,,,2,,,66,127
34752,note_on,32,0,4,,,,,,,,4,,,66,75
34752,note_on,32,0,6,,,,,,,,8,,,42,92
34752,note_on,32,0,5,,,,,,,,6,,,54,92
34752,note_on,2,0,2,,,,,,,,0,,,66,127
34846,note_on,94,0,4,,,,,,,,4,,,66,0
34846,note_on,94,0,2,,,,,,,,0,,,66,0
34846,note_on,94,0,3,,,,,,,,2,,,66,0
34846,note_on,94,0,1,,,,,,,,11,,,66,0
34846,note_on,94,0,6,,,,,,,,8,,,42,0
34846,note_on,94,0,5,,,,,,,,6,,,54,0
34848,note_on,2,0,6,,,,,,,,8,,,40,92
34848,note_on,2,0,3,,,,,,,,2,,,64,127
34848,note_on,2,0,4,,,,,,,,4,,,64,75
34848,note_on,2,0,5,,,,,,,,6,,,52,92
34848,note_on,2,0,2,,,,,,,,0,,,64,127
34848,note_on,2,0,1,,,,,,,,11,,,64,127
34894,note_on,46,0,3,,,,,,,,2,,,64,0
34894,note_on,46,0,6,,,,,,,,8,,,40,0
34894,note_on,46,0,2,,,,,,,,0,,,64,0
34894,note_on,46,0,1,,,,,,,,11,,,64,0
34894,note_on,46,0,5,,,,,,,,6,,,52,0
34894,note_on,46,0,4,,,,,,,,4,,,64,0
34896,note_on,2,0,1,,,,,,,,11,,,62,127
34896,note_on,2,0,4,,,,,,,,4,,,62,75
34896,note_on,2,0,3,,,,,,,,2,,,62,127
34896,note_on,2,0,6,,,,,,,,8,,,38,92
34896,note_on,2,0,5,,,,,,,,6,,,50,92
34896,note_on,2,0,2,,,,,,,,0,,,62,127
34942,note_on,46,0,1,,,,,,,,11,,,62,0
34942,note_on,46,0,4,,,,,,,,4,,,62,0
34942,note_on,46,0,2,,,,,,,,0,,,62,0
34942,note_on,46,0,6,,,,,,,,8,,,38,0
34942,note_on,46,0,5,,,,,,,,6,,,50,0
34942,note_on,46,0,3,,,,,,,,2,,,62,0
34944,note_on,2,0,3,,,,,,,,2,,,64,127
34944,note_on,2,0,1,,,,,,,,11,,,64,127
34944,note_on,2,0,5,,,,,,,,6,,,52,92
34944,note_on,2,0,4,,,,,,,,4,,,64,75
34944,note_on,2,0,2,,,,,,,,0,,,64,127
34944,note_on,2,0,6,,,,,,,,8,,,40,92
35038,note_on,94,0,2,,,,,,,,0,,,64,0
35038,note_on,94,0,3,,,,,,,,2,,,64,0
35038,note_on,94,0,1,,,,,,,,11,,,64,0
35040,note_on,2,0,3,,,,,,,,2,,,74,127
35040,note_on,2,0,2,,,,,,,,0,,,74,127
35040,note_on,2,0,1,,,,,,,,11,,,74,127
35104,note_on,160,0,5,,,,,,,,6,,,52,0
35104,note_on,160,0,4,,,,,,,,4,,,64,0
35104,note_on,160,0,6,,,,,,,,8,,,40,0
35134,note_on,94,0,3,,,,,,,,2,,,74,0
35134,note_on,94,0,1,,,,,,,,11,,,74,0
35134,note_on,94,0,2,,,,,,,,0,,,74,0
35136,note_on,32,0,6,,,,,,,,8,,,40,92
35136,note_on,32,0,5,,,,,,,,6,,,52,92
35136,note_on,2,0,3,,,,,,,,2,,,64,127
35136,note_on,32,0,4,,,,,,,,4,,,64,75
35136,note_on,2,0,2,,,,,,,,0,,,64,127
35136,note_on,2,0,1,,,,,,,,11,,,64,127
35230,note_on,94,0,4,,,,,,,,4,,,64,0
35230,note_on,94,0,1,,,,,,,,11,,,64,0
35230,note_on,94,0,2,,,,,,,,0,,,64,0
35230,note_on,94,0,5,,,,,,,,6,,,52,0
35230,note_on,94,0,3,,,,,,,,2,,,64,0
35230,note_on,94,0,6,,,,,,,,8,,,40,0
35232,note_on,2,0,1,,,,,,,,11,,,62,127
35232,note_on,2,0,4,,,,,,,,4,,,62,75
35232,note_on,2,0,3,,,,,,,,2,,,62,127
35232,note_on,2,0,6,,,,,,,,8,,,38,92
35232,note_on,2,0,2,,,,,,,,0,,,62,127
35232,note_on,2,0,5,,,,,,,,6,,,50,92
35278,note_on,46,0,1,,,,,,,,11,,,62,0
35278,note_on,46,0,5,,,,,,,,6,,,50,0
35278,note_on,46,0,3,,,,,,,,2,,,62,0
35278,note_on,46,0,6,,,,,,,,8,,,38,0
35278,note_on,46,0,2,,,,,,,,0,,,62,0
35278,note_on,46,0,4,,,,,,,,4,,,62,0
35280,note_on,2,0,4,,,,,,,,4,,,60,75
35280,note_on,2,0,6,,,,,,,,8,,,36,92
35280,note_on,2,0,2,,,,,,,,0,,,60,127
35280,note_on,2,0,3,,,,,,,,2,,,60,127
35280,note_on,2,0,5,,,,,,,,6,,,48,92
35280,note_on,2,0,1,,,,,,,,11,,,60,127
35326,note_on,46,0,3,,,,,,,,2,,,60,0
35326,note_on,46,0,2,,,,,,,,0,,,60,0
35326,note_on,46,0,4,,,,,,,,4,,,60,0
35326,note_on,46,0,5,,,,,,,,6,,,48,0
35326,note_on,46,0,1,,,,,,,,11,,,60,0
35326,note_on,46,0,6,,,,,,,,8,,,36,0
35328,note_on,2,0,2,,,,,,,,0,,,62,127
35328,note_on,2,0,1,,,,,,,,11,,,62,127
35328,note_on,2,0,4,,,,,,,,4,,,62,75
35328,note_on,2,0,6,,,,,,,,8,,,38,92
35328,note_on,2,0,3,,,,,,,,2,,,62,127
35328,note_on,2,0,5,,,,,,,,6,,,50,92
35374,note_on,46,0,1,,,,,,,,11,,,62,0
35376,note_on,2,0,1,,,,,,,,11,,,66,127
35422,note_on,46,0,1,,,,,,,,11,,,66,0
35424,note_on,2,0,1,,,,,,,,11,,,64,127
35470,note_on,46,0,1,,,,,,,,11,,,64,0
35472,note_on,2,0,1,,,,,,,,11,,,67,127
35488,note_on,160,0,3,,,,,,,,2,,,62,0
35488,note_on,160,0,2,,,,,,,,0,,,62,0
35488,note_on,160,0,4,,,,,,,,4,,,62,0
35518,note_on,46,0,1,,,,,,,,11,,,67,0
35520,note_on,2,0,1,,,,,,,,11,,,66,127
35566,note_on,46,0,1,,,,,,,,11,,,66,0
35568,note_on,2,0,1,,,,,,,,11,,,69,127
35614,note_on,46,0,1,,,,,,,,11,,,69,0
35616,note_on,2,0,1,,,,,,,,11,,,67,127
35662,note_on,46,0,1,,,,,,,,11,,,67,0
35664,note_on,2,0,1,,,,,,,,11,,,71,127
35710,note_on,46,0,1,,,,,,,,11,,,71,0
35712,note_on,2,0,1,,,,,,,,11,,,69,127
35758,note_on,46,0,1,,,,,,,,11,,,69,0
35760,note_on,2,0,1,,,,,,,,11,,,72,127
35806,note_on,46,0,1,,,,,,,,11,,,72,0
35808,note_on,2,0,1,,,,,,,,11,,,71,127
35854,note_on,46,0,1,,,,,,,,11,,,71,0
35856,note_on,2,0,1,,,,,,,,11,,,74,127
35902,note_on,46,0,1,,,,,,,,11,,,74,0
35904,note_on,2,0,1,,,,,,,,11,,,72,127
35950,note_on,46,0,1,,,,,,,,11,,,72,0
35952,note_on,2,0,1,,,,,,,,11,,,76,127
35998,note_on,46,0,1,,,,,,,,11,,,76,0
36000,note_on,2,0,1,,,,,,,,11,,,74,127
36046,note_on,46,0,1,,,,,,,,11,,,74,0
36048,note_on,720,0,6,,,,,,,,8,,,38,0
36048,note_on,720,0,5,,,,,,,,6,,,50,0
36048,note_on,2,0,1,,,,,,,,11,,,72,127
36094,note_on,46,0,1,,,,,,,,11,,,72,0
36096,note_on,48,0,5,,,,,,,,6,,,43,92
36096,control_change,608,0,2,,,,,,,,0,10,0,,
36096,note_on,0,0,2,,,,,,,,0,,,74,127
36096,note_on,0,0,3,,,,,,,,2,,,71,127
36096,control_change,608,0,4,,,,,,,,4,10,0,,
36096,note_on,0,0,4,,,,,,,,4,,,55,75
36096,control_change,608,0,3,,,,,,,,2,10,0,,
36096,note_on,2,0,1,,,,,,,,11,,,71,127
36096,note_on,48,0,6,,,,,,,,8,,,31,92
36128,note_on,32,0,2,,,,,,,,0,,,74,0
36128,note_on,32,0,4,,,,,,,,4,,,55,0
36128,note_on,32,0,3,,,,,,,,2,,,71,0
36142,note_on,46,0,1,,,,,,,,11,,,71,0
36144,note_on,2,0,1,,,,,,,,11,,,67,127
36190,note_on,46,0,1,,,,,,,,11,,,67,0
36192,note_on,64,0,4,,,,,,,,4,,,55,75
36192,note_on,64,0,2,,,,,,,,0,,,74,127
36192,note_on,64,0,3,,,,,,,,2,,,71,127
36192,note_on,2,0,1,,,,,,,,11,,,66,127
36224,note_on,32,0,3,,,,,,,,2,,,71,0
36224,note_on,32,0,4,,,,,,,,4,,,55,0
36224,note_on,32,0,2,,,,,,,,0,,,74,0
36238,note_on,46,0,1,,,,,,,,11,,,66,0
36240,note_on,2,0,1,,,,,,,,11,,,67,127
36286,note_on,46,0,1,,,,,,,,11,,,67,0
36288,note_on,2,0,1,,,,,,,,11,,,71,127
36288,note_on,64,0,2,,,,,,,,0,,,74,127
36288,note_on,64,0,4,,,,,,,,4,,,55,75
36288,note_on,64,0,3,,,,,,,,2,,,71,127
36320,note_on,32,0,3,,,,,,,,2,,,71,0
36320,note_on,32,0,4,,,,,,,,4,,,55,0
36320,note_on,32,0,2,,,,,,,,0,,,74,0
36334,note_on,46,0,1,,,,,,,,11,,,71,0
36336,note_on,2,0,1,,,,,,,,11,,,74,127
36382,note_on,46,0,1,,,,,,,,11,,,74,0
36384,note_on,64,0,2,,,,,,,,0,,,74,127
36384,note_on,64,0,4,,,,,,,,4,,,55,75
36384,note_on,2,0,1,,,,,,,,11,,,72,127
36384,note_on,64,0,3,,,,,,,,2,,,71,127
36416,note_on,32,0,4,,,,,,,,4,,,55,0
36416,note_on,32,0,3,,,,,,,,2,,,71,0
36416,note_on,32,0,2,,,,,,,,0,,,74,0
36430,note_on,46,0,1,,,,,,,,11,,,72,0
36432,note_on,336,0,6,,,,,,,,8,,,31,0
36432,note_on,2,0,1,,,,,,,,11,,,74,127
36432,note_on,336,0,5,,,,,,,,6,,,43,0
36478,note_on,46,0,1,,,,,,,,11,,,74,0
36480,note_on,64,0,4,,,,,,,,4,,,56,75
36480,note_on,2,0,1,,,,,,,,11,,,76,127
36480,note_on,64,0,3,,,,,,,,2,,,71,127
36480,note_on,64,0,2,,,,,,,,0,,,76,127
36512,note_on,32,0,4,,,,,,,,4,,,56,0
36512,note_on,32,0,2,,,,,,,,0,,,76,0
36512,note_on,32,0,3,,,,,,,,2,,,71,0
36526,note_on,46,0,1,,,,,,,,11,,,76,0
36528,note_on,2,0,1,,,,,,,,11,,,71,127
36574,note_on,46,0,1,,,,,,,,11,,,71,0
36576,note_on,64,0,2,,,,,,,,0,,,76,127
36576,note_on,2,0,1,,,,,,,,11,,,69,127
36576,note_on,64,0,3,,,,,,,,2,,,71,127
36576,note_on,64,0,4,,,,,,,,4,,,56,75
36608,note_on,32,0,4,,,,,,,,4,,,56,0
36608,note_on,32,0,3,,,,,,,,2,,,71,0
36608,note_on,32,0,2,,,,,,,,0,,,76,0
36622,note_on,46,0,1,,,,,,,,11,,,69,0
36624,note_on,2,0,1,,,,,,,,11,,,71,127
36670,note_on,46,0,1,,,,,,,,11,,,71,0
36672,note_on,64,0,2,,,,,,,,0,,,76,127
36672,note_on,64,0,4,,,,,,,,4,,,56,75
36672,note_on,64,0,3,,,,,,,,2,,,71,127
36672,note_on,2,0,1,,,,,,,,11,,,76,127
36704,note_on,32,0,2,,,,,,,,0,,,76,0
36704,note_on,32,0,3,,,,,,,,2,,,71,0
36704,note_on,32,0,4,,,,,,,,4,,,56,0
36718,note_on,46,0,1,,,,,,,,11,,,76,0
36720,note_on,2,0,1,,,,,,,,11,,,71,127
36766,note_on,46,0,1,,,,,,,,11,,,71,0
36768,note_on,2,0,1,,,,,,,,11,,,69,127
36768,note_on,64,0,2,,,,,,,,0,,,76,127
36768,note_on,64,0,4,,,,,,,,4,,,56,75
36768,note_on,64,0,3,,,,,,,,2,,,71,127
36800,note_on,32,0,2,,,,,,,,0,,,76,0
36800,note_on,32,0,4,,,,,,,,4,,,56,0
36800,note_on,32,0,3,,,,,,,,2,,,71,0
36814,note_on,46,0,1,,,,,,,,11,,,69,0
36816,note_on,2,0,1,,,,,,,,11,,,71,127
36862,note_on,46,0,1,,,,,,,,11,,,71,0
36864,note_on,64,0,2,,,,,,,,0,,,76,127
36864,note_on,64,0,4,,,,,,,,4,,,56,75
36864,note_on,64,0,3,,,,,,,,2,,,71,127
36864,note_on,2,0,1,,,,,,,,11,,,76,127
36896,note_on,32,0,3,,,,,,,,2,,,71,0
36896,note_on,32,0,4,,,,,,,,4,,,56,0
36896,note_on,32,0,2,,,,,,,,0,,,76,0
36910,note_on,46,0,1,,,,,,,,11,,,76,0
36912,note_on,2,0,1,,,,,,,,11,,,71,127
36958,note_on,46,0,1,,,,,,,,11,,,71,0
36960,note_on,64,0,2,,,,,,,,0,,,76,127
36960,note_on,64,0,3,,,,,,,,2,,,71,127
36960,note_on,64,0,4,,,,,,,,4,,,56,75
36960,note_on,2,0,1,,,,,,,,11,,,69,127
36992,note_on,32,0,2,,,,,,,,0,,,76,0
36992,note_on,32,0,3,,,,,,,,2,,,71,0
36992,note_on,32,0,4,,,,,,,,4,,,56,0
37006,note_on,46,0,1,,,,,,,,11,,,69,0
37008,note_on,2,0,1,,,,,,,,11,,,71,127
37054,note_on,46,0,1,,,,,,,,11,,,71,0
37056,note_on,64,0,4,,,,,,,,4,,,56,75
37056,note_on,2,0,1,,,,,,,,11,,,76,127
37056,note_on,64,0,3,,,,,,,,2,,,71,127
37056,note_on,64,0,2,,,,,,,,0,,,76,127
37088,note_on,32,0,3,,,,,,,,2,,,71,0
37088,note_on,32,0,2,,,,,,,,0,,,76,0
37088,note_on,32,0,4,,,,,,,,4,,,56,0
37102,note_on,46,0,1,,,,,,,,11,,,76,0
37104,note_on,2,0,1,,,,,,,,11,,,71,127
37150,note_on,46,0,1,,,,,,,,11,,,71,0
37152,note_on,64,0,4,,,,,,,,4,,,56,75
37152,note_on,64,0,3,,,,,,,,2,,,71,127
37152,note_on,64,0,2,,,,,,,,0,,,76,127
37152,note_on,2,0,1,,,,,,,,11,,,69,127
37184,note_on,32,0,2,,,,,,,,0,,,76,0
37184,note_on,32,0,3,,,,,,,,2,,,71,0
37184,note_on,32,0,4,,,,,,,,4,,,56,0
37198,note_on,46,0,1,,,,,,,,11,,,69,0
37200,note_on,2,0,1,,,,,,,,11,,,71,127
37246,note_on,46,0,1,,,,,,,,11,,,71,0
37248,note_on,64,0,4,,,,,,,,4,,,57,75
37248,note_on,64,0,2,,,,,,,,0,,,76,127
37248,note_on,64,0,3,,,,,,,,2,,,72,127
37248,note_on,2,0,1,,,,,,,,11,,,72,127
37280,note_on,32,0,2,,,,,,,,0,,,76,0
37280,note_on,32,0,4,,,,,,,,4,,,57,0
37280,note_on,32,0,3,,,,,,,,2,,,72,0
37294,note_on,46,0,1,,,,,,,,11,,,72,0
37296,note_on,2,0,1,,,,,,,,11,,,69,127
37342,note_on,46,0,1,,,,,,,,11,,,69,0
37344,note_on,64,0,2,,,,,,,,0,,,76,127
37344,note_on,64,0,3,,,,,,,,2,,,72,127
37344,note_on,64,0,4,,,,,,,,4,,,57,75
37344,note_on,2,0,1,,,,,,,,11,,,67,127
37376,note_on,32,0,3,,,,,,,,2,,,72,0
37376,note_on,32,0,2,,,,,,,,0,,,76,0
37376,note_on,32,0,4,,,,,,,,4,,,57,0
37390,note_on,46,0,1,,,,,,,,11,,,67,0
37392,note_on,2,0,1,,,,,,,,11,,,69,127
37438,note_on,46,0,1,,,,,,,,11,,,69,0
37440,note_on,2,0,1,,,,,,,,11,,,72,127
37440,note_on,64,0,2,,,,,,,,0,,,76,127
37440,note_on,64,0,3,,,,,,,,2,,,72,127
37440,note_on,64,0,4,,,,,,,,4,,,57,75
37472,note_on,32,0,4,,,,,,,,4,,,57,0
37472,note_on,32,0,3,,,,,,,,2,,,72,0
37472,note_on,32,0,2,,,,,,,,0,,,76,0
37486,note_on,46,0,1,,,,,,,,11,,,72,0
37488,note_on,2,0,1,,,,,,,,11,,,69,127
37534,note_on,46,0,1,,,,,,,,11,,,69,0
37536,note_on,2,0,1,,,,,,,,11,,,67,127
37536,note_on,64,0,4,,,,,,,,4,,,57,75
37536,note_on,64,0,3,,,,,,,,2,,,72,127
37536,note_on,64,0,2,,,,,,,,0,,,76,127
37568,note_on,32,0,2,,,,,,,,0,,,76,0
37568,note_on,32,0,3,,,,,,,,2,,,72,0
37568,note_on,32,0,4,,,,,,,,4,,,57,0
37582,note_on,46,0,1,,,,,,,,11,,,67,0
37584,note_on,2,0,1,,,,,,,,11,,,69,127
37630,note_on,46,0,1,,,,,,,,11,,,69,0
37632,note_on,64,0,4,,,,,,,,4,,,57,75
37632,note_on,64,0,3,,,,,,,,2,,,72,127
37632,note_on,64,0,2,,,,,,,,0,,,76,127
37632,note_on,2,0,1,,,,,,,,11,,,72,127
37664,note_on,32,0,2,,,,,,,,0,,,76,0
37664,note_on,32,0,4,,,,,,,,4,,,57,0
37664,note_on,32,0,3,,,,,,,,2,,,72,0
37678,note_on,46,0,1,,,,,,,,11,,,72,0
37680,note_on,2,0,1,,,,,,,,11,,,69,127
37726,note_on,46,0,1,,,,,,,,11,,,69,0
37728,note_on,64,0,2,,,,,,,,0,,,76,127
37728,note_on,2,0,1,,,,,,,,11,,,67,127
37728,note_on,64,0,4,,,,,,,,4,,,57,75
37728,note_on,64,0,3,,,,,,,,2,,,72,127
37760,note_on,32,0,2,,,,,,,,0,,,76,0
37760,note_on,32,0,3,,,,,,,,2,,,72,0
37760,note_on,32,0,4,,,,,,,,4,,,57,0
37774,note_on,46,0,1,,,,,,,,11,,,67,0
37776,note_on,2,0,1,,,,,,,,11,,,69,127
37822,note_on,46,0,1,,,,,,,,11,,,69,0
37824,note_on,64,0,3,,,,,,,,2,,,72,127
37824,note_on,2,0,1,,,,,,,,11,,,72,127
37824,note_on,64,0,2,,,,,,,,0,,,76,127
37824,note_on,64,0,4,,,,,,,,4,,,57,75
37856,note_on,32,0,3,,,,,,,,2,,,72,0
37856,note_on,32,0,4,,,,,,,,4,,,57,0
37856,note_on,32,0,2,,,,,,,,0,,,76,0
37870,note_on,46,0,1,,,,,,,,11,,,72,0
37872,note_on,2,0,1,,,,,,,,11,,,69,127
37918,note_on,46,0,1,,,,,,,,11,,,69,0
37920,note_on,64,0,4,,,,,,,,4,,,57,75
37920,note_on,64,0,3,,,,,,,,2,,,72,127
37920,note_on,2,0,1,,,,,,,,11,,,67,127
37920,note_on,64,0,2,,,,,,,,0,,,76,127
37952,note_on,32,0,3,,,,,,,,2,,,72,0
37952,note_on,32,0,4,,,,,,,,4,,,57,0
37952,note_on,32,0,2,,,,,,,,0,,,76,0
37966,note_on,46,0,1,,,,,,,,11,,,67,0
37968,note_on,2,0,1,,,,,,,,11,,,69,127
38014,note_on,46,0,1,,,,,,,,11,,,69,0
38016,note_on,64,0,3,,,,,,,,2,,,73,127
38016,note_on,64,0,2,,,,,,,,0,,,78,127
38016,note_on,2,0,1,,,,,,,,11,,,78,127
38016,note_on,64,0,4,,,,,,,,4,,,58,75
38048,note_on,32,0,2,,,,,,,,0,,,78,0
38048,note_on,32,0,3,,,,,,,,2,,,73,0
38048,note_on,32,0,4,,,,,,,,4,,,58,0
38062,note_on,46,0,1,,,,,,,,11,,,78,0
38064,note_on,2,0,1,,,,,,,,11,,,73,127
38110,note_on,46,0,1,,,,,,,,11,,,73,0
38112,note_on,64,0,4,,,,,,,,4,,,58,75
38112,note_on,2,0,1,,,,,,,,11,,,71,127
38112,note_on,64,0,3,,,,,,,,2,,,73,127
38112,note_on,64,0,2,,,,,,,,0,,,78,127
38144,note_on,32,0,2,,,,,,,,0,,,78,0
38144,note_on,32,0,3,,,,,,,,2,,,73,0
38144,note_on,32,0,4,,,,,,,,4,,,58,0
38158,note_on,46,0,1,,,,,,,,11,,,71,0
38160,note_on,2,0,1,,,,,,,,11,,,73,127
38206,note_on,46,0,1,,,,,,,,11,,,73,0
38208,note_on,64,0,4,,,,,,,,4,,,58,75
38208,note_on,64,0,2,,,,,,,,0,,,78,127
38208,note_on,64,0,3,,,,,,,,2,,,73,127
38208,note_on,2,0,1,,,,,,,,11,,,78,127
38240,note_on,32,0,2,,,,,,,,0,,,78,0
38240,note_on,32,0,4,,,,,,,,4,,,58,0
38240,note_on,32,0,3,,,,,,,,2,,,73,0
38254,note_on,46,0,1,,,,,,,,11,,,78,0
38256,note_on,2,0,1,,,,,,,,11,,,73,127
38302,note_on,46,0,1,,,,,,,,11,,,73,0
38304,note_on,2,0,1,,,,,,,,11,,,71,127
38304,note_on,64,0,4,,,,,,,,4,,,58,75
38304,note_on,64,0,3,,,,,,,,2,,,73,127
38304,note_on,64,0,2,,,,,,,,0,,,78,127
38336,note_on,32,0,3,,,,,,,,2,,,73,0
38336,note_on,32,0,4,,,,,,,,4,,,58,0
38336,note_on,32,0,2,,,,,,,,0,,,78,0
38350,note_on,46,0,1,,,,,,,,11,,,71,0
38352,note_on,2,0,1,,,,,,,,11,,,73,127
38398,note_on,46,0,1,,,,,,,,11,,,73,0
38400,note_on,64,0,2,,,,,,,,0,,,78,127
38400,note_on,64,0,3,,,,,,,,2,,,73,127
38400,note_on,2,0,1,,,,,,,,11,,,78,127
38400,note_on,64,0,4,,,,,,,,4,,,58,75
38432,note_on,32,0,2,,,,,,,,0,,,78,0
38432,note_on,32,0,4,,,,,,,,4,,,58,0
38432,note_on,32,0,3,,,,,,,,2,,,73,0
38446,note_on,46,0,1,,,,,,,,11,,,78,0
38448,note_on,2,0,1,,,,,,,,11,,,73,127
38494,note_on,46,0,1,,,,,,,,11,,,73,0
38496,note_on,2,0,1,,,,,,,,11,,,71,127
38496,note_on,64,0,3,,,,,,,,2,,,73,127
38496,note_on,64,0,2,,,,,,,,0,,,78,127
38496,note_on,64,0,4,,,,,,,,4,,,58,75
38528,note_on,32,0,3,,,,,,,,2,,,73,0
38528,note_on,32,0,4,,,,,,,,4,,,58,0
38528,note_on,32,0,2,,,,,,,,0,,,78,0
38542,note_on,46,0,1,,,,,,,,11,,,71,0
38544,note_on,2,0,1,,,,,,,,11,,,73,127
38590,note_on,46,0,1,,,,,,,,11,,,73,0
38592,note_on,64,0,3,,,,,,,,2,,,73,127
38592,note_on,64,0,4,,,,,,,,4,,,58,75
38592,note_on,2,0,1,,,,,,,,11,,,78,127
38592,note_on,64,0,2,,,,,,,,0,,,78,127
38624,note_on,32,0,4,,,,,,,,4,,,58,0
38624,note_on,32,0,3,,,,,,,,2,,,73,0
38624,note_on,32,0,2,,,,,,,,0,,,78,0
38638,note_on,46,0,1,,,,,,,,11,,,78,0
38640,note_on,2,0,1,,,,,,,,11,,,73,127
38686,note_on,46,0,1,,,,,,,,11,,,73,0
38688,note_on,64,0,2,,,,,,,,0,,,78,127
38688,note_on,2,0,1,,,,,,,,11,,,71,127
38688,note_on,64,0,4,,,,,,,,4,,,58,75
38688,note_on,64,0,3,,,,,,,,2,,,73,127
38720,note_on,32,0,3,,,,,,,,2,,,73,0
38720,note_on,32,0,2,,,,,,,,0,,,78,0
38720,note_on,32,0,4,,,,,,,,4,,,58,0
38734,note_on,46,0,1,,,,,,,,11,,,71,0
38736,note_on,2,0,1,,,,,,,,11,,,73,127
38782,note_on,46,0,1,,,,,,,,11,,,73,0
38784,note_on,64,0,3,,,,,,,,2,,,75,127
38784,note_on,64,0,2,,,,,,,,0,,,78,127
38784,note_on,2,0,1,,,,,,,,11,,,75,127
38784,note_on,64,0,4,,,,,,,,4,,,59,75
38816,note_on,32,0,4,,,,,,,,4,,,59,0
38816,note_on,32,0,2,,,,,,,,0,,,78,0
38816,note_on,32,0,3,,,,,,,,2,,,75,0
38830,note_on,46,0,1,,,,,,,,11,,,75,0
38832,note_on,2,0,1,,,,,,,,11,,,71,127
38878,note_on,46,0,1,,,,,,,,11,,,71,0
38880,note_on,64,0,4,,,,,,,,4,,,59,75
38880,note_on,2,0,1,,,,,,,,11,,,69,127
38880,note_on,64,0,3,,,,,,,,2,,,75,127
38880,note_on,64,0,2,,,,,,,,0,,,78,127
38912,note_on,32,0,4,,,,,,,,4,,,59,0
38912,note_on,32,0,3,,,,,,,,2,,,75,0
38912,note_on,32,0,2,,,,,,,,0,,,78,0
38926,note_on,46,0,1,,,,,,,,11,,,69,0
38928,note_on,2,0,1,,,,,,,,11,,,71,127
38974,note_on,46,0,1,,,,,,,,11,,,71,0
38976,note_on,2,0,1,,,,,,,,11,,,76,127
38976,note_on,64,0,2,,,,,,,,0,,,79,127
38976,note_on,64,0,4,,,,,,,,4,,,59,75
38976,note_on,64,0,3,,,,,,,,2,,,76,127
39008,note_on,32,0,2,,,,,,,,0,,,79,0
39008,note_on,32,0,4,,,,,,,,4,,,59,0
39008,note_on,32,0,3,,,,,,,,2,,,76,0
39022,note_on,46,0,1,,,,,,,,11,,,76,0
39024,note_on,2,0,1,,,,,,,,11,,,71,127
39070,note_on,46,0,1,,,,,,,,11,,,71,0
39072,note_on,64,0,3,,,,,,,,2,,,76,127
39072,note_on,64,0,2,,,,,,,,0,,,79,127
39072,note_on,2,0,1,,,,,,,,11,,,69,127
39072,note_on,64,0,4,,,,,,,,4,,,59,75
39104,note_on,32,0,2,,,,,,,,0,,,79,0
39104,note_on,32,0,4,,,,,,,,4,,,59,0
39104,note_on,32,0,3,,,,,,,,2,,,76,0
39118,note_on,46,0,1,,,,,,,,11,,,69,0
39120,note_on,2,0,1,,,,,,,,11,,,71,127
39166,note_on,46,0,1,,,,,,,,11,,,71,0
39168,note_on,2,0,1,,,,,,,,11,,,78,127
39168,note_on,64,0,2,,,,,,,,0,,,78,127
39168,note_on,64,0,3,,,,,,,,2,,,75,127
39168,note_on,64,0,4,,,,,,,,4,,,59,75
39200,note_on,32,0,2,,,,,,,,0,,,78,0
39200,note_on,32,0,3,,,,,,,,2,,,75,0
39200,note_on,32,0,4,,,,,,,,4,,,59,0
39214,note_on,46,0,1,,,,,,,,11,,,78,0
39216,note_on,2,0,1,,,,,,,,11,,,71,127
39262,note_on,46,0,1,,,,,,,,11,,,71,0
39264,note_on,2,0,1,,,,,,,,11,,,69,127
39264,note_on,64,0,4,,,,,,,,4,,,59,75
39264,note_on,64,0,3,,,,,,,,2,,,75,127
39264,note_on,64,0,2,,,,,,,,0,,,78,127
39296,note_on,32,0,3,,,,,,,,2,,,75,0
39296,note_on,32,0,2,,,,,,,,0,,,78,0
39296,note_on,32,0,4,,,,,,,,4,,,59,0
39310,note_on,46,0,1,,,,,,,,11,,,69,0
39312,note_on,2,0,1,,,,,,,,11,,,71,127
39358,note_on,46,0,1,,,,,,,,11,,,71,0
39360,note_on,64,0,2,,,,,,,,0,,,79,127
39360,note_on,64,0,3,,,,,,,,2,,,76,127
39360,note_on,64,0,4,,,,,,,,4,,,59,75
39360,note_on,2,0,1,,,,,,,,11,,,79,127
39392,note_on,32,0,2,,,,,,,,0,,,79,0
39392,note_on,32,0,3,,,,,,,,2,,,76,0
39392,note_on,32,0,4,,,,,,,,4,,,59,0
39406,note_on,46,0,1,,,,,,,,11,,,79,0
39408,note_on,2,0,1,,,,,,,,11,,,71,127
39454,note_on,46,0,1,,,,,,,,11,,,71,0
39456,note_on,2,0,1,,,,,,,,11,,,69,127
39456,note_on,64,0,4,,,,,,,,4,,,59,75
39456,note_on,64,0,2,,,,,,,,0,,,79,127
39456,note_on,64,0,3,,,,,,,,2,,,76,127
39488,note_on,32,0,2,,,,,,,,0,,,79,0
39488,note_on,32,0,4,,,,,,,,4,,,59,0
39488,note_on,32,0,3,,,,,,,,2,,,76,0
39502,note_on,46,0,1,,,,,,,,11,,,69,0
39504,note_on,2,0,1,,,,,,,,11,,,71,127
39550,note_on,46,0,1,,,,,,,,11,,,71,0
39552,note_on,64,0,3,,,,,,,,2,,,78,127
39552,note_on,2,0,1,,,,,,,,11,,,81,127
39552,note_on,64,0,2,,,,,,,,0,,,81,127
39552,note_on,64,0,4,,,,,,,,4,,,59,75
39584,note_on,32,0,2,,,,,,,,0,,,81,0
39584,note_on,32,0,4,,,,,,,,4,,,59,0
39584,note_on,32,0,3,,,,,,,,2,,,78,0
39598,note_on,46,0,1,,,,,,,,11,,,81,0
39600,note_on,2,0,1,,,,,,,,11,,,78,127
39646,note_on,46,0,1,,,,,,,,11,,,78,0
39648,note_on,64,0,2,,,,,,,,0,,,79,127
39648,note_on,64,0,3,,,,,,,,2,,,76,127
39648,note_on,2,0,1,,,,,,,,11,,,79,127
39648,note_on,64,0,4,,,,,,,,4,,,59,75
39680,note_on,32,0,2,,,,,,,,0,,,79,0
39680,note_on,32,0,4,,,,,,,,4,,,59,0
39680,note_on,32,0,3,,,,,,,,2,,,76,0
39694,note_on,46,0,1,,,,,,,,11,,,79,0
39696,note_on,2,0,1,,,,,,,,11,,,76,127
39742,note_on,46,0,1,,,,,,,,11,,,76,0
39744,note_on,64,0,2,,,,,,,,0,,,81,127
39744,note_on,64,0,4,,,,,,,,4,,,59,75
39744,note_on,2,0,1,,,,,,,,11,,,81,127
39744,note_on,64,0,3,,,,,,,,2,,,78,127
39776,note_on,32,0,4,,,,,,,,4,,,59,0
39776,note_on,32,0,2,,,,,,,,0,,,81,0
39776,note_on,32,0,3,,,,,,,,2,,,78,0
39790,note_on,46,0,1,,,,,,,,11,,,81,0
39792,note_on,2,0,1,,,,,,,,11,,,78,127
39838,note_on,46,0,1,,,,,,,,11,,,78,0
39840,note_on,64,0,2,,,,,,,,0,,,79,127
39840,note_on,64,0,3,,,,,,,,2,,,76,127
39840,note_on,64,0,4,,,,,,,,4,,,59,75
39840,note_on,2,0,1,,,,,,,,11,,,79,127
39872,note_on,32,0,2,,,,,,,,0,,,79,0
39872,note_on,32,0,3,,,,,,,,2,,,76,0
39872,note_on,32,0,4,,,,,,,,4,,,59,0
39886,note_on,46,0,1,,,,,,,,11,,,79,0
39888,note_on,2,0,1,,,,,,,,11,,,76,127
39934,note_on,46,0,1,,,,,,,,11,,,76,0
39936,note_on,2,0,1,,,,,,,,11,,,75,127
39936,note_on,64,0,3,,,,,,,,2,,,75,127
39936,note_on,64,0,2,,,,,,,,0,,,78,127
39936,note_on,64,0,4,,,,,,,,4,,,59,75
39968,note_on,32,0,4,,,,,,,,4,,,59,0
39968,note_on,32,0,3,,,,,,,,2,,,75,0
39968,note_on,32,0,2,,,,,,,,0,,,78,0
39982,note_on,46,0,1,,,,,,,,11,,,75,0
39984,note_on,2,0,1,,,,,,,,11,,,71,127
40030,note_on,46,0,1,,,,,,,,11,,,71,0
40032,note_on,64,0,2,,,,,,,,0,,,79,127
40032,note_on,64,0,3,,,,,,,,2,,,76,127
40032,note_on,64,0,4,,,,,,,,4,,,59,75
40032,note_on,2,0,1,,,,,,,,11,,,79,127
40064,note_on,32,0,3,,,,,,,,2,,,76,0
40064,note_on,32,0,2,,,,,,,,0,,,79,0
40064,note_on,32,0,4,,,,,,,,4,,,59,0
40078,note_on,46,0,1,,,,,,,,11,,,79,0
40080,note_on,2,0,1,,,,,,,,11,,,76,127
40126,note_on,46,0,1,,,,,,,,11,,,76,0
40128,note_on,64,0,2,,,,,,,,0,,,78,127
40128,note_on,64,0,3,,,,,,,,2,,,76,127
40128,note_on,64,0,4,,,,,,,,4,,,59,75
40128,note_on,2,0,1,,,,,,,,11,,,76,127
40160,note_on,32,0,3,,,,,,,,2,,,76,0
40160,note_on,32,0,2,,,,,,,,0,,,78,0
40160,note_on,32,0,4,,,,,,,,4,,,59,0
40174,note_on,46,0,1,,,,,,,,11,,,76,0
40176,note_on,2,0,1,,,,,,,,11,,,75,127
40198,note_on,22,0,1,,,,,,,,11,,,75,0
40200,note_on,2,0,1,,,,,,,,11,,,76,127
40222,note_on,22,0,1,,,,,,,,11,,,76,0
40224,note_on,64,0,2,,,,,,,,0,,,79,127
40224,note_on,2,0,1,,,,,,,,11,,,75,127
40224,note_on,64,0,4,,,,,,,,4,,,59,75
40224,note_on,64,0,3,,,,,,,,2,,,75,127
40246,note_on,22,0,1,,,,,,,,11,,,75,0
40248,note_on,2,0,1,,,,,,,,11,,,76,127
40256,note_on,32,0,2,,,,,,,,0,,,79,0
40256,note_on,32,0,3,,,,,,,,2,,,75,0
40256,note_on,32,0,4,,,,,,,,4,,,59,0
40270,note_on,22,0,1,,,,,,,,11,,,76,0
40272,note_on,2,0,1,,,,,,,,11,,,75,127
40318,note_on,46,0,1,,,,,,,,11,,,75,0
40320,control_change,64,0,2,,,,,,,,0,10,64,,
40320,note_on,3888,0,5,,,,,,,,6,,,52,92
40320,note_on,0,0,4,,,,,,,,4,,,59,75
40320,control_change,64,0,4,,,,,,,,4,10,64,,
40320,note_on,3888,0,6,,,,,,,,8,,,40,92
40320,note_on,0,0,3,,,,,,,,2,,,76,127
40320,note_on,2,0,1,,,,,,,,11,,,76,127
40320,note_on,0,0,2,,,,,,,,0,,,79,127
40320,control_change,64,0,3,,,,,,,,2,10,64,,
40414,note_on,94,0,5,,,,,,,,6,,,52,0
40414,note_on,94,0,6,,,,,,,,8,,,40,0
40416,note_on,2,0,5,,,,,,,,6,,,64,92
40416,note_on,2,0,6,,,,,,,,8,,,52,92
40462,note_on,46,0,6,,,,,,,,8,,,52,0
40462,note_on,46,0,5,,,,,,,,6,,,64,0
40464,note_on,2,0,6,,,,,,,,8,,,51,92
40464,note_on,2,0,5,,,,,,,,6,,,63,92
40510,note_on,46,0,6,,,,,,,,8,,,51,0
40510,note_on,46,0,5,,,,,,,,6,,,63,0
40512,note_on,2,0,6,,,,,,,,8,,,52,92
40512,note_on,2,0,5,,,,,,,,6,,,64,92
40576,note_on,256,0,2,,,,,,,,0,,,79,0
40576,note_on,256,0,4,,,,,,,,4,,,59,0
40576,note_on,256,0,3,,,,,,,,2,,,76,0
40606,note_on,94,0,5,,,,,,,,6,,,64,0
40606,note_on,94,0,6,,,,,,,,8,,,52,0
40608,note_on,32,0,3,,,,,,,,2,,,78,127
40608,note_on,2,0,5,,,,,,,,6,,,52,92
40608,note_on,32,0,2,,,,,,,,0,,,81,127
40608,note_on,32,0,4,,,,,,,,4,,,71,75
40608,note_on,2,0,6,,,,,,,,8,,,40,92
40654,note_on,46,0,3,,,,,,,,2,,,78,0
40654,note_on,46,0,2,,,,,,,,0,,,81,0
40656,note_on,2,0,3,,,,,,,,2,,,76,127
40656,note_on,336,0,1,,,,,,,,11,,,76,0
40656,note_on,2,0,2,,,,,,,,0,,,79,127
40702,note_on,46,0,3,,,,,,,,2,,,76,0
40702,note_on,46,0,2,,,,,,,,0,,,79,0
40702,note_on,94,0,4,,,,,,,,4,,,71,0
40702,note_on,94,0,6,,,,,,,,8,,,40,0
40702,note_on,94,0,5,,,,,,,,6,,,52,0
40704,note_on,2,0,5,,,,,,,,6,,,47,92
40704,note_on,2,0,3,,,,,,,,2,,,75,127
40704,note_on,2,0,2,,,,,,,,0,,,78,127
40704,note_on,2,0,4,,,,,,,,4,,,71,75
40704,note_on,2,0,6,,,,,,,,8,,,35,92
40798,note_on,94,0,5,,,,,,,,6,,,47,0
40798,note_on,94,0,6,,,,,,,,8,,,35,0
40800,note_on,2,0,6,,,,,,,,8,,,47,92
40800,note_on,2,0,5,,,,,,,,6,,,59,92
40846,note_on,46,0,6,,,,,,,,8,,,47,0
40846,note_on,46,0,5,,,,,,,,6,,,59,0
40848,note_on,2,0,5,,,,,,,,6,,,57,92
40848,note_on,2,0,6,,,,,,,,8,,,45,92
40894,note_on,46,0,6,,,,,,,,8,,,45,0
40894,note_on,46,0,5,,,,,,,,6,,,57,0
40896,note_on,2,0,5,,,,,,,,6,,,59,92
40896,note_on,2,0,6,,,,,,,,8,,,47,92
40960,note_on,256,0,3,,,,,,,,2,,,75,0
40960,note_on,256,0,4,,,,,,,,4,,,71,0
40960,note_on,256,0,2,,,,,,,,0,,,78,0
40990,note_on,94,0,5,,,,,,,,6,,,59,0
40990,note_on,94,0,6,,,,,,,,8,,,47,0
40992,note_on,32,0,2,,,,,,,,0,,,76,127
40992,note_on,32,0,3,,,,,,,,2,,,73,127
40992,note_on,32,0,4,,,,,,,,4,,,71,75
40992,note_on,2,0,6,,,,,,,,8,,,35,92
40992,note_on,2,0,5,,,,,,,,6,,,47,92
41038,note_on,46,0,3,,,,,,,,2,,,73,0
41038,note_on,46,0,2,,,,,,,,0,,,76,0
41040,note_on,2,0,3,,,,,,,,2,,,71,127
41040,note_on,2,0,2,,,,,,,,0,,,75,127
41086,note_on,94,0,4,,,,,,,,4,,,71,0
41086,note_on,46,0,3,,,,,,,,2,,,71,0
41086,note_on,94,0,5,,,,,,,,6,,,47,0
41086,note_on,94,0,6,,,,,,,,8,,,35,0
41086,note_on,46,0,2,,,,,,,,0,,,75,0
41088,note_on,2,0,3,,,,,,,,2,,,79,127
41088,note_on,2,0,4,,,,,,,,4,,,71,75
41088,note_on,2,0,6,,,,,,,,8,,,40,92
41088,note_on,2,0,2,,,,,,,,0,,,76,127
41088,note_on,2,0,5,,,,,,,,6,,,52,92
41182,note_on,94,0,3,,,,,,,,2,,,79,0
41182,note_on,94,0,6,,,,,,,,8,,,40,0
41182,note_on,94,0,5,,,,,,,,6,,,52,0
41182,note_on,94,0,2,,,,,,,,0,,,76,0
41182,note_on,94,0,4,,,,,,,,4,,,71,0
41184,note_on,2,0,2,,,,,,,,0,,,78,127
41184,note_on,2,0,5,,,,,,,,6,,,45,92
41184,note_on,2,0,4,,,,,,,,4,,,72,75
41184,note_on,2,0,3,,,,,,,,2,,,81,127
41184,note_on,2,0,6,,,,,,,,8,,,33,92
41278,note_on,94,0,3,,,,,,,,2,,,81,0
41278,note_on,94,0,4,,,,,,,,4,,,72,0
41278,note_on,94,0,5,,,,,,,,6,,,45,0
41278,note_on,94,0,2,,,,,,,,0,,,78,0
41278,note_on,94,0,6,,,,,,,,8,,,33,0
41280,note_on,2,0,6,,,,,,,,8,,,40,92
41280,note_on,2,0,4,,,,,,,,4,,,71,75
41280,note_on,2,0,2,,,,,,,,0,,,76,127
41280,note_on,2,0,5,,,,,,,,6,,,52,92
41280,note_on,2,0,3,,,,,,,,2,,,79,127
41374,note_on,94,0,5,,,,,,,,6,,,52,0
41374,note_on,94,0,6,,,,,,,,8,,,40,0
41374,note_on,94,0,4,,,,,,,,4,,,71,0
41376,note_on,2,0,5,,,,,,,,6,,,46,92
41376,note_on,2,0,6,,,,,,,,8,,,34,92
41376,note_on,2,0,4,,,,,,,,4,,,73,75
41440,note_on,160,0,2,,,,,,,,0,,,76,0
41440,note_on,160,0,3,,,,,,,,2,,,79,0
41470,note_on,94,0,6,,,,,,,,8,,,34,0
41470,note_on,94,0,5,,,,,,,,6,,,46,0
41470,note_on,94,0,4,,,,,,,,4,,,73,0
41472,note_on,2,0,5,,,,,,,,6,,,47,92
41472,note_on,2,0,4,,,,,,,,4,,,66,75
41472,note_on,2,0,6,,,,,,,,8,,,35,92
41472,note_on,32,0,3,,,,,,,,2,,,78,127
41472,note_on,32,0,2,,,,,,,,0,,,75,127
41566,note_on,94,0,5,,,,,,,,6,,,47,0
41566,note_on,94,0,6,,,,,,,,8,,,35,0
41568,note_on,2,0,5,,,,,,,,6,,,59,92
41568,note_on,2,0,6,,,,,,,,8,,,47,92
41614,note_on,46,0,6,,,,,,,,8,,,47,0
41614,note_on,46,0,5,,,,,,,,6,,,59,0
41616,note_on,2,0,6,,,,,,,,8,,,45,92
41616,note_on,2,0,5,,,,,,,,6,,,57,92
41632,note_on,160,0,4,,,,,,,,4,,,66,0
41662,note_on,46,0,5,,,,,,,,6,,,57,0
41662,note_on,46,0,6,,,,,,,,8,,,45,0
41664,note_on,32,0,4,,,,,,,,4,,,75,75
41664,note_on,2,0,5,,,,,,,,6,,,59,92
41664,note_on,2,0,6,,,,,,,,8,,,47,92
41728,note_on,256,0,2,,,,,,,,0,,,75,0
41728,note_on,256,0,3,,,,,,,,2,,,78,0
41758,note_on,94,0,5,,,,,,,,6,,,59,0
41758,note_on,94,0,6,,,,,,,,8,,,47,0
41758,note_on,94,0,4,,,,,,,,4,,,75,0
41760,note_on,2,0,4,,,,,,,,4,,,71,75
41760,note_on,32,0,3,,,,,,,,2,,,76,127
41760,note_on,2,0,5,,,,,,,,6,,,52,92
41760,note_on,2,0,6,,,,,,,,8,,,40,92
41760,note_on,32,0,2,,,,,,,,0,,,79,127
41854,note_on,94,0,4,,,,,,,,4,,,71,0
41854,note_on,94,0,3,,,,,,,,2,,,76,0
41854,note_on,94,0,5,,,,,,,,6,,,52,0
41854,note_on,94,0,6,,,,,,,,8,,,40,0
41854,note_on,94,0,2,,,,,,,,0,,,79,0
41856,note_on,2,0,3,,,,,,,,2,,,76,127
41856,note_on,2,0,6,,,,,,,,8,,,40,92
41856,note_on,2,0,5,,,,,,,,6,,,52,92
41856,note_on,2,0,2,,,,,,,,0,,,79,127
41856,note_on,2,0,4,,,,,,,,4,,,71,75
41950,note_on,94,0,6,,,,,,,,8,,,40,0
41950,note_on,94,0,5,,,,,,,,6,,,52,0
41952,note_on,2,0,6,,,,,,,,8,,,52,92
41952,note_on,2,0,5,,,,,,,,6,,,64,92
41998,note_on,46,0,5,,,,,,,,6,,,64,0
41998,note_on,46,0,6,,,,,,,,8,,,52,0
42000,note_on,2,0,5,,,,,,,,6,,,63,92
42000,note_on,2,0,6,,,,,,,,8,,,51,92
42046,note_on,46,0,6,,,,,,,,8,,,51,0
42046,note_on,46,0,5,,,,,,,,6,,,63,0
42048,note_on,2,0,5,,,,,,,,6,,,64,92
42048,note_on,2,0,6,,,,,,,,8,,,52,92
42112,note_on,256,0,4,,,,,,,,4,,,71,0
42112,note_on,256,0,2,,,,,,,,0,,,79,0
42112,note_on,256,0,3,,,,,,,,2,,,76,0
42142,note_on,94,0,6,,,,,,,,8,,,52,0
42142,note_on,94,0,5,,,,,,,,6,,,64,0
42144,note_on,32,0,4,,,,,,,,4,,,71,75
42144,note_on,2,0,6,,,,,,,,8,,,40,92
42144,note_on,32,0,2,,,,,,,,0,,,81,127
42144,note_on,2,0,5,,,,,,,,6,,,52,92
42144,note_on,32,0,3,,,,,,,,2,,,78,127
42190,note_on,46,0,3,,,,,,,,2,,,78,0
42190,note_on,46,0,2,,,,,,,,0,,,81,0
42192,note_on,2,0,2,,,,,,,,0,,,79,127
42192,note_on,2,0,3,,,,,,,,2,,,76,127
42238,note_on,94,0,4,,,,,,,,4,,,71,0
42238,note_on,46,0,3,,,,,,,,2,,,76,0
42238,note_on,94,0,6,,,,,,,,8,,,40,0
42238,note_on,46,0,2,,,,,,,,0,,,79,0
42238,note_on,94,0,5,,,,,,,,6,,,52,0
42240,note_on,2,0,5,,,,,,,,6,,,47,92
42240,note_on,2,0,2,,,,,,,,0,,,78,127
42240,note_on,2,0,4,,,,,,,,4,,,71,75
42240,note_on,2,0,3,,,,,,,,2,,,75,127
42240,note_on,2,0,6,,,,,,,,8,,,35,92
42334,note_on,94,0,5,,,,,,,,6,,,47,0
42334,note_on,94,0,6,,,,,,,,8,,,35,0
42336,note_on,2,0,5,,,,,,,,6,,,59,92
42336,note_on,2,0,6,,,,,,,,8,,,47,92
42382,note_on,46,0,6,,,,,,,,8,,,47,0
42382,note_on,46,0,5,,,,,,,,6,,,59,0
42384,note_on,2,0,6,,,,,,,,8,,,45,92
42384,note_on,2,0,5,,,,,,,,6,,,57,92
42430,note_on,46,0,6,,,,,,,,8,,,45,0
42430,note_on,46,0,5,,,,,,,,6,,,57,0
42432,note_on,2,0,6,,,,,,,,8,,,47,92
42432,note_on,2,0,5,,,,,,,,6,,,59,92
42496,note_on,256,0,2,,,,,,,,0,,,78,0
42496,note_on,256,0,4,,,,,,,,4,,,71,0
42496,note_on,256,0,3,,,,,,,,2,,,75,0
42526,note_on,94,0,6,,,,,,,,8,,,47,0
42526,note_on,94,0,5,,,,,,,,6,,,59,0
42528,note_on,2,0,6,,,,,,,,8,,,35,92
42528,note_on,32,0,3,,,,,,,,2,,,73,127
42528,note_on,32,0,2,,,,,,,,0,,,76,127
42528,note_on,32,0,4,,,,,,,,4,,,71,75
42528,note_on,2,0,5,,,,,,,,6,,,47,92
42574,note_on,46,0,3,,,,,,,,2,,,73,0
42574,note_on,46,0,2,,,,,,,,0,,,76,0
42576,note_on,2,0,3,,,,,,,,2,,,71,127
42576,note_on,2,0,2,,,,,,,,0,,,75,127
42622,note_on,94,0,6,,,,,,,,8,,,35,0
42622,note_on,94,0,5,,,,,,,,6,,,47,0
42622,note_on,94,0,4,,,,,,,,4,,,71,0
42622,note_on,46,0,2,,,,,,,,0,,,75,0
42622,note_on,46,0,3,,,,,,,,2,,,71,0
42624,note_on,2,0,5,,,,,,,,6,,,52,92
42624,note_on,2,0,2,,,,,,,,0,,,76,127
42624,note_on,2,0,3,,,,,,,,2,,,79,127
42624,note_on,2,0,4,,,,,,,,4,,,71,75
42624,note_on,2,0,6,,,,,,,,8,,,40,92
42718,note_on,94,0,3,,,,,,,,2,,,79,0
42718,note_on,94,0,6,,,,,,,,8,,,40,0
42718,note_on,94,0,2,,,,,,,,0,,,76,0
42718,note_on,94,0,5,,,,,,,,6,,,52,0
42718,note_on,94,0,4,,,,,,,,4,,,71,0
42720,note_on,2,0,6,,,,,,,,8,,,33,92
42720,note_on,2,0,5,,,,,,,,6,,,45,92
42720,note_on,2,0,3,,,,,,,,2,,,81,127
42720,note_on,2,0,4,,,,,,,,4,,,72,75
42720,note_on,2,0,2,,,,,,,,0,,,78,127
42814,note_on,94,0,2,,,,,,,,0,,,78,0
42814,note_on,94,0,4,,,,,,,,4,,,72,0
42814,note_on,94,0,3,,,,,,,,2,,,81,0
42814,note_on,94,0,5,,,,,,,,6,,,45,0
42814,note_on,94,0,6,,,,,,,,8,,,33,0
42816,note_on,2,0,4,,,,,,,,4,,,71,75
42816,note_on,2,0,6,,,,,,,,8,,,40,92
42816,note_on,2,0,2,,,,,,,,0,,,76,127
42816,note_on,2,0,5,,,,,,,,6,,,52,92
42816,note_on,2,0,3,,,,,,,,2,,,79,127
42910,note_on,94,0,4,,,,,,,,4,,,71,0
42910,note_on,94,0,6,,,,,,,,8,,,40,0
42910,note_on,94,0,5,,,,,,,,6,,,52,0
42912,note_on,2,0,6,,,,,,,,8,,,34,92
42912,note_on,2,0,5,,,,,,,,6,,,46,92
42912,note_on,2,0,4,,,,,,,,4,,,73,75
42976,note_on,160,0,2,,,,,,,,0,,,76,0
42976,note_on,160,0,3,,,,,,,,2,,,79,0
43006,note_on,94,0,4,,,,,,,,4,,,73,0
43006,note_on,94,0,5,,,,,,,,6,,,46,0
43006,note_on,94,0,6,,,,,,,,8,,,34,0
43008,note_on,2,0,6,,,,,,,,8,,,35,92
43008,note_on,2,0,4,,,,,,,,4,,,66,75
43008,note_on,32,0,2,,,,,,,,0,,,75,127
43008,note_on,32,0,3,,,,,,,,2,,,78,127
43008,note_on,2,0,5,,,,,,,,6,,,47,92
43102,note_on,94,0,5,,,,,,,,6,,,47,0
43102,note_on,94,0,6,,,,,,,,8,,,35,0
43104,note_on,2,0,6,,,,,,,,8,,,47,92
43104,note_on,2,0,5,,,,,,,,6,,,59,92
43150,note_on,46,0,6,,,,,,,,8,,,47,0
43150,note_on,46,0,5,,,,,,,,6,,,59,0
43152,note_on,2,0,5,,,,,,,,6,,,57,92
43152,note_on,2,0,6,,,,,,,,8,,,45,92
43168,note_on,160,0,4,,,,,,,,4,,,66,0
43198,note_on,46,0,5,,,,,,,,6,,,57,0
43198,note_on,46,0,6,,,,,,,,8,,,45,0
43200,note_on,2,0,6,,,,,,,,8,,,47,92
43200,note_on,2,0,5,,,,,,,,6,,,59,92
43264,note_on,256,0,3,,,,,,,,2,,,78,0
43264,note_on,256,0,2,,,,,,,,0,,,75,0
43294,note_on,94,0,5,,,,,,,,6,,,59,0
43294,note_on,94,0,6,,,,,,,,8,,,47,0
43296,control_change,32,0,2,,,,,,,,0,10,0,,
43296,note_on,128,0,4,,,,,,,,4,,,63,75
43296,control_change,32,0,3,,,,,,,,2,10,0,,
43296,note_on,0,0,3,,,,,,,,2,,,78,92
43296,note_on,2,0,6,,,,,,,,8,,,35,92
43296,note_on,0,0,2,,,,,,,,0,,,83,92
43296,note_on,2640,0,1,,,,,,,,11,,,78,127
43296,note_on,2,0,5,,,,,,,,6,,,47,92
43390,note_on,94,0,4,,,,,,,,4,,,63,0
43390,note_on,94,0,2,,,,,,,,0,,,83,0
43390,note_on,94,0,6,,,,,,,,8,,,35,0
43390,note_on,94,0,3,,,,,,,,2,,,78,0
43390,note_on,94,0,5,,,,,,,,6,,,47,0
43390,note_on,94,0,1,,,,,,,,11,,,78,0
43392,note_on,2,0,2,,,,,,,,0,,,59,92
43392,note_on,2,0,4,,,,,,,,4,,,63,75
43392,note_on,2,0,6,,,,,,,,8,,,35,92
43392,note_on,2,0,1,,,,,,,,11,,,78,127
43392,note_on,2,0,5,,,,,,,,6,,,47,92
43392,note_on,2,0,3,,,,,,,,2,,,59,92
43438,note_on,46,0,1,,,,,,,,11,,,78,0
43440,note_on,2,0,1,,,,,,,,11,,,76,127
43486,note_on,46,0,1,,,,,,,,11,,,76,0
43486,note_on,94,0,2,,,,,,,,0,,,59,0
43486,note_on,94,0,3,,,,,,,,2,,,59,0
43488,note_on,2,0,2,,,,,,,,0,,,83,92
43488,note_on,2,0,1,,,,,,,,11,,,78,127
43488,note_on,2,0,3,,,,,,,,2,,,78,92
43552,note_on,160,0,6,,,,,,,,8,,,35,0
43552,note_on,160,0,4,,,,,,,,4,,,63,0
43552,note_on,160,0,5,,,,,,,,6,,,47,0
43582,note_on,94,0,2,,,,,,,,0,,,83,0
43582,note_on,94,0,1,,,,,,,,11,,,78,0
43582,note_on,94,0,3,,,,,,,,2,,,78,0
43584,note_on,2,0,1,,,,,,,,11,,,78,127
43584,note_on,32,0,5,,,,,,,,6,,,47,92
43584,note_on,2,0,2,,,,,,,,0,,,59,92
43584,note_on,32,0,6,,,,,,,,8,,,35,92
43584,note_on,2,0,3,,,,,,,,2,,,59,92
43584,note_on,32,0,4,,,,,,,,4,,,63,75
43630,note_on,46,0,1,,,,,,,,11,,,78,0
43632,note_on,2,0,1,,,,,,,,11,,,76,127
43678,note_on,46,0,1,,,,,,,,11,,,76,0
43678,note_on,94,0,3,,,,,,,,2,,,59,0
43678,note_on,94,0,2,,,,,,,,0,,,59,0
43680,note_on,2,0,3,,,,,,,,2,,,78,92
43680,note_on,2,0,2,,,,,,,,0,,,83,92
43680,note_on,2,0,1,,,,,,,,11,,,78,127
43744,note_on,160,0,4,,,,,,,,4,,,63,0
43744,note_on,160,0,6,,,,,,,,8,,,35,0
43744,note_on,160,0,5,,,,,,,,6,,,47,0
43774,note_on,94,0,1,,,,,,,,11,,,78,0
43774,note_on,94,0,3,,,,,,,,2,,,78,0
43774,note_on,94,0,2,,,,,,,,0,,,83,0
43776,note_on,32,0,5,,,,,,,,6,,,47,92
43776,note_on,32,0,4,,,,,,,,4,,,63,75
43776,note_on,32,0,6,,,,,,,,8,,,35,92
43776,note_on,2,0,2,,,,,,,,0,,,59,92
43776,note_on,2,0,1,,,,,,,,11,,,78,127
43776,note_on,2,0,3,,,,,,,,2,,,59,92
43870,note_on,94,0,2,,,,,,,,0,,,59,0
43870,note_on,94,0,1,,,,,,,,11,,,78,0
43870,note_on,94,0,3,,,,,,,,2,,,59,0
43872,note_on,2,0,2,,,,,,,,0,,,83,92
43872,note_on,2,0,1,,,,,,,,11,,,78,127
43872,note_on,2,0,3,,,,,,,,2,,,78,92
43936,note_on,160,0,4,,,,,,,,4,,,63,0
43936,note_on,160,0,5,,,,,,,,6,,,47,0
43936,note_on,160,0,6,,,,,,,,8,,,35,0
43966,note_on,94,0,2,,,,,,,,0,,,83,0
43966,note_on,94,0,1,,,,,,,,11,,,78,0
43966,note_on,94,0,3,,,,,,,,2,,,78,0
43968,note_on,2,0,1,,,,,,,,11,,,83,127
43968,note_on,2,0,2,,,,,,,,0,,,83,92
43968,note_on,2,0,3,,,,,,,,2,,,78,92
44062,note_on,94,0,3,,,,,,,,2,,,78,0
44062,note_on,94,0,2,,,,,,,,0,,,83,0
44064,note_on,2,0,2,,,,,,,,0,,,81,92
44064,note_on,2,0,3,,,,,,,,2,,,78,92
44110,note_on,46,0,2,,,,,,,,0,,,81,0
44110,note_on,46,0,3,,,,,,,,2,,,78,0
44112,note_on,2,0,2,,,,,,,,0,,,79,92
44112,note_on,2,0,3,,,,,,,,2,,,76,92
44128,note_on,160,0,1,,,,,,,,11,,,83,0
44158,note_on,46,0,2,,,,,,,,0,,,79,0
44158,note_on,46,0,3,,,,,,,,2,,,76,0
44160,note_on,224,0,5,,,,,,,,6,,,47,92
44160,note_on,2,0,2,,,,,,,,0,,,81,92
44160,note_on,32,0,1,,,,,,,,11,,,78,127
44160,note_on,224,0,6,,,,,,,,8,,,35,92
44160,note_on,2,0,3,,,,,,,,2,,,78,92
44160,note_on,224,0,4,,,,,,,,4,,,63,75
44206,note_on,46,0,1,,,,,,,,11,,,78,0
44208,note_on,2,0,1,,,,,,,,11,,,76,127
44254,note_on,94,0,2,,,,,,,,0,,,81,0
44254,note_on,46,0,1,,,,,,,,11,,,76,0
44254,note_on,94,0,3,,,,,,,,2,,,78,0
44256,note_on,2,0,2,,,,,,,,0,,,81,92
44256,note_on,2,0,1,,,,,,,,11,,,78,127
44256,note_on,2,0,3,,,,,,,,2,,,78,92
44320,note_on,160,0,4,,,,,,,,4,,,63,0
44320,note_on,160,0,5,,,,,,,,6,,,47,0
44320,note_on,160,0,6,,,,,,,,8,,,35,0
44350,note_on,94,0,3,,,,,,,,2,,,78,0
44350,note_on,94,0,2,,,,,,,,0,,,81,0
44350,note_on,94,0,1,,,,,,,,11,,,78,0
44352,note_on,32,0,6,,,,,,,,8,,,35,92
44352,note_on,2,0,3,,,,,,,,2,,,59,92
44352,note_on,32,0,4,,,,,,,,4,,,63,75
44352,note_on,2,0,1,,,,,,,,11,,,78,127
44352,note_on,2,0,2,,,,,,,,0,,,59,92
44352,note_on,32,0,5,,,,,,,,6,,,47,92
44398,note_on,46,0,1,,,,,,,,11,,,78,0
44400,note_on,2,0,1,,,,,,,,11,,,76,127
44446,note_on,46,0,1,,,,,,,,11,,,76,0
44446,note_on,94,0,3,,,,,,,,2,,,59,0
44446,note_on,94,0,2,,,,,,,,0,,,59,0
44448,note_on,2,0,1,,,,,,,,11,,,78,127
44448,note_on,2,0,3,,,,,,,,2,,,78,92
44448,note_on,2,0,2,,,,,,,,0,,,81,92
44512,note_on,160,0,6,,,,,,,,8,,,35,0
44512,note_on,160,0,5,,,,,,,,6,,,47,0
44512,note_on,160,0,4,,,,,,,,4,,,63,0
44542,note_on,94,0,2,,,,,,,,0,,,81,0
44542,note_on,94,0,1,,,,,,,,11,,,78,0
44542,note_on,94,0,3,,,,,,,,2,,,78,0
44544,note_on,32,0,6,,,,,,,,8,,,35,92
44544,note_on,2,0,1,,,,,,,,11,,,78,127
44544,note_on,32,0,5,,,,,,,,6,,,47,92
44544,note_on,32,0,4,,,,,,,,4,,,63,75
44544,note_on,2,0,3,,,,,,,,2,,,59,92
44544,note_on,2,0,2,,,,,,,,0,,,59,92
44638,note_on,94,0,1,,,,,,,,11,,,78,0
44638,note_on,94,0,3,,,,,,,,2,,,59,0
44638,note_on,94,0,2,,,,,,,,0,,,59,0
44640,note_on,2,0,2,,,,,,,,0,,,81,92
44640,note_on,2,0,1,,,,,,,,11,,,78,127
44640,note_on,2,0,3,,,,,,,,2,,,78,92
44704,note_on,160,0,6,,,,,,,,8,,,35,0
44704,note_on,160,0,5,,,,,,,,6,,,47,0
44704,note_on,160,0,4,,,,,,,,4,,,63,0
44734,note_on,94,0,1,,,,,,,,11,,,78,0
44734,note_on,94,0,2,,,,,,,,0,,,81,0
44734,note_on,94,0,3,,,,,,,,2,,,78,0
44736,note_on,2,0,1,,,,,,,,11,,,81,127
44736,note_on,2,0,3,,,,,,,,2,,,78,92
44736,note_on,2,0,2,,,,,,,,0,,,81,92
44830,note_on,94,0,2,,,,,,,,0,,,81,0
44830,note_on,94,0,3,,,,,,,,2,,,78,0
44832,note_on,2,0,2,,,,,,,,0,,,79,92
44832,note_on,2,0,3,,,,,,,,2,,,76,92
44878,note_on,46,0,2,,,,,,,,0,,,79,0
44878,note_on,46,0,3,,,,,,,,2,,,76,0
44880,note_on,2,0,2,,,,,,,,0,,,78,92
44880,note_on,2,0,3,,,,,,,,2,,,75,92
44896,note_on,160,0,1,,,,,,,,11,,,81,0
44926,note_on,46,0,3,,,,,,,,2,,,75,0
44926,note_on,46,0,2,,,,,,,,0,,,78,0
44928,note_on,224,0,5,,,,,,,,6,,,52,92
44928,note_on,32,0,1,,,,,,,,11,,,76,127
44928,note_on,2,0,3,,,,,,,,2,,,76,92
44928,note_on,2,0,2,,,,,,,,0,,,79,92
44928,note_on,224,0,4,,,,,,,,4,,,59,75
44928,note_on,224,0,6,,,,,,,,8,,,40,92
44974,note_on,46,0,1,,,,,,,,11,,,76,0
44976,note_on,2,0,1,,,,,,,,11,,,75,127
45022,note_on,94,0,3,,,,,,,,2,,,76,0
45022,note_on,46,0,1,,,,,,,,11,,,75,0
45022,note_on,94,0,2,,,,,,,,0,,,79,0
45024,note_on,2,0,3,,,,,,,,2,,,76,92
45024,note_on,2,0,1,,,,,,,,11,,,76,127
45024,note_on,2,0,2,,,,,,,,0,,,79,92
45088,note_on,160,0,4,,,,,,,,4,,,59,0
45088,note_on,160,0,5,,,,,,,,6,,,52,0
45088,note_on,160,0,6,,,,,,,,8,,,40,0
45118,note_on,94,0,1,,,,,,,,11,,,76,0
45118,note_on,94,0,3,,,,,,,,2,,,76,0
45118,note_on,94,0,2,,,,,,,,0,,,79,0
45120,note_on,32,0,5,,,,,,,,6,,,52,92
45120,note_on,2,0,3,,,,,,,,2,,,64,92
45120,note_on,32,0,4,,,,,,,,4,,,59,75
45120,note_on,32,0,6,,,,,,,,8,,,40,92
45120,note_on,2,0,2,,,,,,,,0,,,64,92
45120,note_on,2,0,1,,,,,,,,11,,,76,127
45166,note_on,46,0,1,,,,,,,,11,,,76,0
45168,note_on,2,0,1,,,,,,,,11,,,75,127
45214,note_on,94,0,2,,,,,,,,0,,,64,0
45214,note_on,94,0,3,,,,,,,,2,,,64,0
45214,note_on,46,0,1,,,,,,,,11,,,75,0
45216,note_on,2,0,3,,,,,,,,2,,,76,92
45216,note_on,2,0,1,,,,,,,,11,,,76,127
45216,note_on,2,0,2,,,,,,,,0,,,79,92
45280,note_on,160,0,4,,,,,,,,4,,,59,0
45280,note_on,160,0,5,,,,,,,,6,,,52,0
45280,note_on,160,0,6,,,,,,,,8,,,40,0
45310,note_on,94,0,1,,,,,,,,11,,,76,0
45310,note_on,94,0,3,,,,,,,,2,,,76,0
45310,note_on,94,0,2,,,,,,,,0,,,79,0
45312,note_on,2,0,1,,,,,,,,11,,,76,127
45312,note_on,2,0,3,,,,,,,,2,,,64,92
45312,note_on,32,0,4,,,,,,,,4,,,59,75
45312,note_on,32,0,5,,,,,,,,6,,,52,92
45312,note_on,32,0,6,,,,,,,,8,,,40,92
45312,note_on,2,0,2,,,,,,,,0,,,64,92
45406,note_on,94,0,1,,,,,,,,11,,,76,0
45406,note_on,94,0,3,,,,,,,,2,,,64,0
45406,note_on,94,0,2,,,,,,,,0,,,64,0
45408,note_on,2,0,2,,,,,,,,0,,,79,92
45408,note_on,2,0,1,,,,,,,,11,,,76,127
45408,note_on,2,0,3,,,,,,,,2,,,76,92
45472,note_on,160,0,4,,,,,,,,4,,,59,0
45472,note_on,160,0,6,,,,,,,,8,,,40,0
45472,note_on,160,0,5,,,,,,,,6,,,52,0
45502,note_on,94,0,2,,,,,,,,0,,,79,0
45502,note_on,94,0,3,,,,,,,,2,,,76,0
45502,note_on,94,0,1,,,,,,,,11,,,76,0
45504,note_on,2,0,3,,,,,,,,2,,,76,92
45504,note_on,2,0,2,,,,,,,,0,,,79,92
45504,note_on,2,0,1,,,,,,,,11,,,79,127
45598,note_on,94,0,3,,,,,,,,2,,,76,0
45598,note_on,94,0,2,,,,,,,,0,,,79,0
45600,note_on,2,0,3,,,,,,,,2,,,75,92
45600,note_on,2,0,2,,,,,,,,0,,,78,92
45646,note_on,46,0,3,,,,,,,,2,,,75,0
45646,note_on,46,0,2,,,,,,,,0,,,78,0
45648,note_on,2,0,3,,,,,,,,2,,,73,92
45648,note_on,2,0,2,,,,,,,,0,,,76,92
45664,note_on,160,0,1,,,,,,,,11,,,79,0
45694,note_on,46,0,3,,,,,,,,2,,,73,0
45694,note_on,46,0,2,,,,,,,,0,,,76,0
45696,note_on,224,0,6,,,,,,,,8,,,39,92
45696,control_change,2,0,2,,,,,,,,0,10,127,,
45696,note_on,0,0,2,,,,,,,,0,,,71,127
45696,note_on,0,0,3,,,,,,,,2,,,71,127
45696,control_change,2,0,3,,,,,,,,2,10,127,,
45696,note_on,224,0,4,,,,,,,,4,,,66,75
45696,note_on,224,0,5,,,,,,,,6,,,51,92
45696,note_on,32,0,1,,,,,,,,11,,,71,127
45742,note_on,46,0,3,,,,,,,,2,,,71,0
45742,note_on,46,0,2,,,,,,,,0,,,71,0
45742,note_on,46,0,1,,,,,,,,11,,,71,0
45744,note_on,2,0,3,,,,,,,,2,,,69,127
45744,note_on,2,0,2,,,,,,,,0,,,69,127
45744,note_on,2,0,1,,,,,,,,11,,,69,127
45790,note_on,94,0,5,,,,,,,,6,,,51,0
45790,note_on,94,0,4,,,,,,,,4,,,66,0
45790,note_on,46,0,3,,,,,,,,2,,,69,0
45790,note_on,46,0,2,,,,,,,,0,,,69,0
45790,note_on,94,0,6,,,,,,,,8,,,39,0
45790,note_on,46,0,1,,,,,,,,11,,,69,0
45792,note_on,2,0,4,,,,,,,,4,,,66,75
45792,note_on,2,0,5,,,,,,,,6,,,51,92
45792,note_on,2,0,6,,,,,,,,8,,,39,92
45792,note_on,2,0,2,,,,,,,,0,,,71,127
45792,note_on,2,0,1,,,,,,,,11,,,71,127
45792,note_on,2,0,3,,,,,,,,2,,,71,127
45838,note_on,46,0,1,,,,,,,,11,,,71,0
45838,note_on,46,0,3,,,,,,,,2,,,71,0
45838,note_on,46,0,2,,,,,,,,0,,,71,0
45840,note_on,2,0,3,,,,,,,,2,,,73,127
45840,note_on,2,0,2,,,,,,,,0,,,73,127
45840,note_on,2,0,1,,,,,,,,11,,,73,127
45886,note_on,46,0,3,,,,,,,,2,,,73,0
45886,note_on,94,0,4,,,,,,,,4,,,66,0
45886,note_on,46,0,2,,,,,,,,0,,,73,0
45886,note_on,94,0,5,,,,,,,,6,,,51,0
45886,note_on,94,0,6,,,,,,,,8,,,39,0
45886,note_on,46,0,1,,,,,,,,11,,,73,0
45888,note_on,2,0,3,,,,,,,,2,,,75,127
45888,note_on,2,0,5,,,,,,,,6,,,51,92
45888,note_on,2,0,6,,,,,,,,8,,,39,92
45888,note_on,2,0,2,,,,,,,,0,,,75,127
45888,note_on,2,0,4,,,,,,,,4,,,66,75
45888,note_on,2,0,1,,,,,,,,11,,,75,127
45934,note_on,46,0,1,,,,,,,,11,,,75,0
45934,note_on,46,0,3,,,,,,,,2,,,75,0
45934,note_on,46,0,2,,,,,,,,0,,,75,0
45936,note_on,2,0,1,,,,,,,,11,,,73,127
45936,note_on,2,0,2,,,,,,,,0,,,73,127
45936,note_on,2,0,3,,,,,,,,2,,,73,127
45982,note_on,94,0,5,,,,,,,,6,,,51,0
45982,note_on,46,0,2,,,,,,,,0,,,73,0
45982,note_on,46,0,1,,,,,,,,11,,,73,0
45982,note_on,94,0,4,,,,,,,,4,,,66,0
45982,note_on,46,0,3,,,,,,,,2,,,73,0
45982,note_on,94,0,6,,,,,,,,8,,,39,0
45984,note_on,2,0,1,,,,,,,,11,,,75,127
45984,note_on,2,0,2,,,,,,,,0,,,75,127
45984,note_on,2,0,5,,,,,,,,6,,,51,92
45984,note_on,2,0,4,,,,,,,,4,,,66,75
45984,note_on,2,0,6,,,,,,,,8,,,39,92
45984,note_on,2,0,3,,,,,,,,2,,,75,127
46030,note_on,46,0,3,,,,,,,,2,,,75,0
46030,note_on,46,0,1,,,,,,,,11,,,75,0
46030,note_on,46,0,2,,,,,,,,0,,,75,0
46032,note_on,2,0,3,,,,,,,,2,,,76,127
46032,note_on,2,0,1,,,,,,,,11,,,76,127
46032,note_on,2,0,2,,,,,,,,0,,,76,127
46078,note_on,46,0,3,,,,,,,,2,,,76,0
46078,note_on,46,0,1,,,,,,,,11,,,76,0
46078,note_on,94,0,4,,,,,,,,4,,,66,0
46078,note_on,46,0,2,,,,,,,,0,,,76,0
46078,note_on,94,0,5,,,,,,,,6,,,51,0
46078,note_on,94,0,6,,,,,,,,8,,,39,0
46080,note_on,2,0,2,,,,,,,,0,,,78,127
46080,note_on,2,0,1,,,,,,,,11,,,78,127
46080,note_on,2,0,3,,,,,,,,2,,,78,127
46080,note_on,2,0,5,,,,,,,,6,,,51,92
46080,note_on,2,0,6,,,,,,,,8,,,39,92
46080,note_on,2,0,4,,,,,,,,4,,,66,75
46126,note_on,46,0,1,,,,,,,,11,,,78,0
46126,note_on,46,0,3,,,,,,,,2,,,78,0
46126,note_on,46,0,2,,,,,,,,0,,,78,0
46128,note_on,2,0,2,,,,,,,,0,,,76,127
46128,note_on,2,0,1,,,,,,,,11,,,76,127
46128,note_on,2,0,3,,,,,,,,2,,,76,127
46174,note_on,94,0,6,,,,,,,,8,,,39,0
46174,note_on,46,0,2,,,,,,,,0,,,76,0
46174,note_on,94,0,5,,,,,,,,6,,,51,0
46174,note_on,94,0,4,,,,,,,,4,,,66,0
46174,note_on,46,0,1,,,,,,,,11,,,76,0
46174,note_on,46,0,3,,,,,,,,2,,,76,0
46176,note_on,2,0,1,,,,,,,,11,,,78,127
46176,note_on,2,0,3,,,,,,,,2,,,78,127
46176,note_on,2,0,6,,,,,,,,8,,,39,92
46176,note_on,2,0,4,,,,,,,,4,,,66,75
46176,note_on,2,0,2,,,,,,,,0,,,78,127
46176,note_on,2,0,5,,,,,,,,6,,,51,92
46222,note_on,46,0,1,,,,,,,,11,,,78,0
46222,note_on,46,0,3,,,,,,,,2,,,78,0
46222,note_on,46,0,2,,,,,,,,0,,,78,0
46224,note_on,2,0,1,,,,,,,,11,,,79,127
46224,note_on,2,0,2,,,,,,,,0,,,79,127
46224,note_on,2,0,3,,,,,,,,2,,,79,127
46270,note_on,46,0,2,,,,,,,,0,,,79,0
46270,note_on,46,0,1,,,,,,,,11,,,79,0
46270,note_on,94,0,6,,,,,,,,8,,,39,0
46270,note_on,94,0,4,,,,,,,,4,,,66,0
46270,note_on,46,0,3,,,,,,,,2,,,79,0
46270,note_on,94,0,5,,,,,,,,6,,,51,0
46272,note_on,2,0,4,,,,,,,,4,,,63,75
46272,note_on,2,0,2,,,,,,,,0,,,81,127
46272,note_on,2,0,6,,,,,,,,8,,,39,92
46272,note_on,2,0,3,,,,,,,,2,,,81,127
46272,note_on,2,0,5,,,,,,,,6,,,51,92
46272,note_on,2,0,1,,,,,,,,11,,,81,127
46318,note_on,46,0,2,,,,,,,,0,,,81,0
46318,note_on,46,0,3,,,,,,,,2,,,81,0
46318,note_on,46,0,1,,,,,,,,11,,,81,0
46320,note_on,2,0,2,,,,,,,,0,,,79,127
46320,note_on,2,0,3,,,,,,,,2,,,79,127
46320,note_on,2,0,1,,,,,,,,11,,,79,127
46366,note_on,46,0,2,,,,,,,,0,,,79,0
46366,note_on,94,0,5,,,,,,,,6,,,51,0
46366,note_on,94,0,6,,,,,,,,8,,,39,0
46366,note_on,46,0,3,,,,,,,,2,,,79,0
46366,note_on,94,0,4,,,,,,,,4,,,63,0
46366,note_on,46,0,1,,,,,,,,11,,,79,0
46368,note_on,2,0,2,,,,,,,,0,,,81,127
46368,note_on,2,0,1,,,,,,,,11,,,81,127
46368,note_on,2,0,3,,,,,,,,2,,,81,127
46368,note_on,2,0,6,,,,,,,,8,,,39,92
46368,note_on,2,0,4,,,,,,,,4,,,63,75
46368,note_on,2,0,5,,,,,,,,6,,,51,92
46414,note_on,46,0,3,,,,,,,,2,,,81,0
46414,note_on,46,0,1,,,,,,,,11,,,81,0
46414,note_on,46,0,2,,,,,,,,0,,,81,0
46416,note_on,2,0,1,,,,,,,,11,,,78,127
46416,note_on,2,0,3,,,,,,,,2,,,78,127
46416,note_on,2,0,2,,,,,,,,0,,,78,127
46462,note_on,46,0,1,,,,,,,,11,,,78,0
46462,note_on,94,0,6,,,,,,,,8,,,39,0
46462,note_on,94,0,5,,,,,,,,6,,,51,0
46462,note_on,46,0,2,,,,,,,,0,,,78,0
46462,note_on,94,0,4,,,,,,,,4,,,63,0
46462,note_on,46,0,3,,,,,,,,2,,,78,0
46464,note_on,2,0,3,,,,,,,,2,,,64,127
46464,note_on,2,0,4,,,,,,,,4,,,59,75
46464,note_on,2,0,2,,,,,,,,0,,,64,127
46464,note_on,2,0,1,,,,,,,,11,,,64,127
46464,note_on,2,0,6,,,,,,,,8,,,40,92
46464,note_on,2,0,5,,,,,,,,6,,,52,92
46510,note_on,46,0,3,,,,,,,,2,,,64,0
46510,note_on,46,0,2,,,,,,,,0,,,64,0
46510,note_on,46,0,1,,,,,,,,11,,,64,0
46512,note_on,2,0,3,,,,,,,,2,,,62,127
46512,note_on,2,0,1,,,,,,,,11,,,62,127
46512,note_on,2,0,2,,,,,,,,0,,,62,127
46558,note_on,46,0,2,,,,,,,,0,,,62,0
46558,note_on,94,0,4,,,,,,,,4,,,59,0
46558,note_on,46,0,1,,,,,,,,11,,,62,0
46558,note_on,94,0,6,,,,,,,,8,,,40,0
46558,note_on,46,0,3,,,,,,,,2,,,62,0
46558,note_on,94,0,5,,,,,,,,6,,,52,0
46560,note_on,2,0,6,,,,,,,,8,,,40,92
46560,note_on,2,0,4,,,,,,,,4,,,59,75
46560,note_on,2,0,2,,,,,,,,0,,,64,127
46560,note_on,2,0,5,,,,,,,,6,,,52,92
46560,note_on,2,0,1,,,,,,,,11,,,64,127
46560,note_on,2,0,3,,,,,,,,2,,,64,127
46606,note_on,46,0,2,,,,,,,,0,,,64,0
46606,note_on,46,0,3,,,,,,,,2,,,64,0
46606,note_on,46,0,1,,,,,,,,11,,,64,0
46608,note_on,2,0,3,,,,,,,,2,,,66,127
46608,note_on,2,0,2,,,,,,,,0,,,66,127
46608,note_on,2,0,1,,,,,,,,11,,,66,127
46654,note_on,46,0,2,,,,,,,,0,,,66,0
46654,note_on,46,0,1,,,,,,,,11,,,66,0
46654,note_on,94,0,6,,,,,,,,8,,,40,0
46654,note_on,46,0,3,,,,,,,,2,,,66,0
46654,note_on,94,0,4,,,,,,,,4,,,59,0
46654,note_on,94,0,5,,,,,,,,6,,,52,0
46656,note_on,2,0,4,,,,,,,,4,,,59,75
46656,note_on,2,0,2,,,,,,,,0,,,68,127
46656,note_on,2,0,1,,,,,,,,11,,,68,127
46656,note_on,2,0,5,,,,,,,,6,,,52,92
46656,note_on,2,0,6,,,,,,,,8,,,40,92
46656,note_on,2,0,3,,,,,,,,2,,,68,127
46702,note_on,46,0,3,,,,,,,,2,,,68,0
46702,note_on,46,0,1,,,,,,,,11,,,68,0
46702,note_on,46,0,2,,,,,,,,0,,,68,0
46704,note_on,2,0,1,,,,,,,,11,,,66,127
46704,note_on,2,0,3,,,,,,,,2,,,66,127
46704,note_on,2,0,2,,,,,,,,0,,,66,127
46750,note_on,94,0,5,,,,,,,,6,,,52,0
46750,note_on,46,0,3,,,,,,,,2,,,66,0
46750,note_on,94,0,6,,,,,,,,8,,,40,0
46750,note_on,46,0,1,,,,,,,,11,,,66,0
46750,note_on,46,0,2,,,,,,,,0,,,66,0
46750,note_on,94,0,4,,,,,,,,4,,,59,0
46752,note_on,2,0,5,,,,,,,,6,,,52,92
46752,note_on,2,0,1,,,,,,,,11,,,68,127
46752,note_on,2,0,2,,,,,,,,0,,,68,127
46752,note_on,2,0,6,,,,,,,,8,,,40,92
46752,note_on,2,0,4,,,,,,,,4,,,59,75
46752,note_on,2,0,3,,,,,,,,2,,,68,127
46798,note_on,46,0,1,,,,,,,,11,,,68,0
46798,note_on,46,0,3,,,,,,,,2,,,68,0
46798,note_on,46,0,2,,,,,,,,0,,,68,0
46800,note_on,2,0,1,,,,,,,,11,,,69,127
46800,note_on,2,0,2,,,,,,,,0,,,69,127
46800,note_on,2,0,3,,,,,,,,2,,,69,127
46846,note_on,46,0,1,,,,,,,,11,,,69,0
46846,note_on,46,0,2,,,,,,,,0,,,69,0
46846,note_on,94,0,5,,,,,,,,6,,,52,0
46846,note_on,94,0,6,,,,,,,,8,,,40,0
46846,note_on,46,0,3,,,,,,,,2,,,69,0
46846,note_on,94,0,4,,,,,,,,4,,,59,0
46848,note_on,2,0,2,,,,,,,,0,,,71,127
46848,note_on,2,0,6,,,,,,,,8,,,40,92
46848,note_on,2,0,3,,,,,,,,2,,,71,127
46848,note_on,2,0,4,,,,,,,,4,,,68,75
46848,note_on,2,0,5,,,,,,,,6,,,52,92
46848,note_on,2,0,1,,,,,,,,11,,,71,127
46894,note_on,46,0,2,,,,,,,,0,,,71,0
46894,note_on,46,0,1,,,,,,,,11,,,71,0
46894,note_on,46,0,3,,,,,,,,2,,,71,0
46896,note_on,2,0,3,,,,,,,,2,,,69,127
46896,note_on,2,0,2,,,,,,,,0,,,69,127
46896,note_on,2,0,1,,,,,,,,11,,,69,127
46942,note_on,94,0,4,,,,,,,,4,,,68,0
46942,note_on,94,0,5,,,,,,,,6,,,52,0
46942,note_on,46,0,3,,,,,,,,2,,,69,0
46942,note_on,46,0,2,,,,,,,,0,,,69,0
46942,note_on,46,0,1,,,,,,,,11,,,69,0
46942,note_on,94,0,6,,,,,,,,8,,,40,0
46944,note_on,2,0,6,,,,,,,,8,,,40,92
46944,note_on,2,0,4,,,,,,,,4,,,68,75
46944,note_on,2,0,1,,,,,,,,11,,,71,127
46944,note_on,2,0,5,,,,,,,,6,,,52,92
46944,note_on,2,0,3,,,,,,,,2,,,71,127
46944,note_on,2,0,2,,,,,,,,0,,,71,127
46990,note_on,46,0,3,,,,,,,,2,,,71,0
46990,note_on,46,0,1,,,,,,,,11,,,71,0
46990,note_on,46,0,2,,,,,,,,0,,,71,0
46992,note_on,2,0,2,,,,,,,,0,,,72,127
46992,note_on,2,0,3,,,,,,,,2,,,72,127
46992,note_on,2,0,1,,,,,,,,11,,,72,127
47038,note_on,46,0,1,,,,,,,,11,,,72,0
47038,note_on,94,0,6,,,,,,,,8,,,40,0
47038,note_on,46,0,2,,,,,,,,0,,,72,0
47038,note_on,94,0,4,,,,,,,,4,,,68,0
47038,note_on,46,0,3,,,,,,,,2,,,72,0
47038,note_on,94,0,5,,,,,,,,6,,,52,0
47040,note_on,2,0,4,,,,,,,,4,,,64,75
47040,note_on,2,0,2,,,,,,,,0,,,74,127
47040,note_on,2,0,1,,,,,,,,11,,,74,127
47040,note_on,2,0,3,,,,,,,,2,,,74,127
47040,note_on,2,0,5,,,,,,,,6,,,52,92
47040,note_on,2,0,6,,,,,,,,8,,,40,92
47086,note_on,46,0,2,,,,,,,,0,,,74,0
47086,note_on,46,0,3,,,,,,,,2,,,74,0
47086,note_on,46,0,1,,,,,,,,11,,,74,0
47088,note_on,2,0,2,,,,,,,,0,,,72,127
47088,note_on,2,0,3,,,,,,,,2,,,72,127
47088,note_on,2,0,1,,,,,,,,11,,,72,127
47134,note_on,46,0,2,,,,,,,,0,,,72,0
47134,note_on,94,0,5,,,,,,,,6,,,52,0
47134,note_on,94,0,6,,,,,,,,8,,,40,0
47134,note_on,46,0,1,,,,,,,,11,,,72,0
47134,note_on,94,0,4,,,,,,,,4,,,64,0
47134,note_on,46,0,3,,,,,,,,2,,,72,0
47136,note_on,2,0,5,,,,,,,,6,,,52,92
47136,note_on,2,0,4,,,,,,,,4,,,64,75
47136,note_on,2,0,6,,,,,,,,8,,,40,92
47136,note_on,2,0,2,,,,,,,,0,,,74,127
47136,note_on,2,0,3,,,,,,,,2,,,74,127
47136,note_on,2,0,1,,,,,,,,11,,,74,127
47182,note_on,46,0,1,,,,,,,,11,,,74,0
47182,note_on,46,0,2,,,,,,,,0,,,74,0
47182,note_on,46,0,3,,,,,,,,2,,,74,0
47184,note_on,2,0,3,,,,,,,,2,,,71,127
47184,note_on,2,0,1,,,,,,,,11,,,71,127
47184,note_on,2,0,2,,,,,,,,0,,,71,127
47230,note_on,46,0,2,,,,,,,,0,,,71,0
47230,note_on,94,0,5,,,,,,,,6,,,52,0
47230,note_on,46,0,1,,,,,,,,11,,,71,0
47230,note_on,94,0,6,,,,,,,,8,,,40,0
47230,note_on,46,0,3,,,,,,,,2,,,71,0
47230,note_on,94,0,4,,,,,,,,4,,,64,0
47232,note_on,2,0,5,,,,,,,,6,,,45,92
47232,note_on,2,0,6,,,,,,,,8,,,33,92
47232,note_on,2,0,4,,,,,,,,4,,,61,75
47232,note_on,2,0,3,,,,,,,,2,,,69,127
47232,note_on,2,0,2,,,,,,,,0,,,69,127
47232,note_on,2,0,1,,,,,,,,11,,,69,127
47278,note_on,46,0,1,,,,,,,,11,,,69,0
47278,note_on,46,0,2,,,,,,,,0,,,69,0
47278,note_on,46,0,3,,,,,,,,2,,,69,0
47280,note_on,2,0,2,,,,,,,,0,,,68,127
47280,note_on,2,0,1,,,,,,,,11,,,68,127
47280,note_on,2,0,3,,,,,,,,2,,,68,127
47326,note_on,94,0,5,,,,,,,,6,,,45,0
47326,note_on,46,0,2,,,,,,,,0,,,68,0
47326,note_on,46,0,3,,,,,,,,2,,,68,0
47326,note_on,46,0,1,,,,,,,,11,,,68,0
47326,note_on,94,0,6,,,,,,,,8,,,33,0
47326,note_on,94,0,4,,,,,,,,4,,,61,0
47328,note_on,2,0,2,,,,,,,,0,,,69,127
47328,note_on,2,0,3,,,,,,,,2,,,69,127
47328,note_on,2,0,5,,,,,,,,6,,,45,92
47328,note_on,2,0,6,,,,,,,,8,,,33,92
47328,note_on,2,0,1,,,,,,,,11,,,69,127
47328,note_on,2,0,4,,,,,,,,4,,,61,75
47374,note_on,46,0,1,,,,,,,,11,,,69,0
47374,note_on,46,0,3,,,,,,,,2,,,69,0
47374,note_on,46,0,2,,,,,,,,0,,,69,0
47376,note_on,2,0,2,,,,,,,,0,,,71,127
47376,note_on,2,0,3,,,,,,,,2,,,71,127
47376,note_on,2,0,1,,,,,,,,11,,,71,127
47422,note_on,46,0,3,,,,,,,,2,,,71,0
47422,note_on,94,0,5,,,,,,,,6,,,45,0
47422,note_on,46,0,2,,,,,,,,0,,,71,0
47422,note_on,94,0,4,,,,,,,,4,,,61,0
47422,note_on,94,0,6,,,,,,,,8,,,33,0
47422,note_on,46,0,1,,,,,,,,11,,,71,0
47424,note_on,2,0,3,,,,,,,,2,,,73,127
47424,note_on,2,0,4,,,,,,,,4,,,61,75
47424,note_on,2,0,1,,,,,,,,11,,,73,127
47424,note_on,2,0,6,,,,,,,,8,,,33,92
47424,note_on,2,0,5,,,,,,,,6,,,45,92
47424,note_on,2,0,2,,,,,,,,0,,,73,127
47470,note_on,46,0,2,,,,,,,,0,,,73,0
47470,note_on,46,0,1,,,,,,,,11,,,73,0
47470,note_on,46,0,3,,,,,,,,2,,,73,0
47472,note_on,2,0,1,,,,,,,,11,,,71,127
47472,note_on,2,0,3,,,,,,,,2,,,71,127
47472,note_on,2,0,2,,,,,,,,0,,,71,127
47518,note_on,46,0,3,,,,,,,,2,,,71,0
47518,note_on,94,0,5,,,,,,,,6,,,45,0
47518,note_on,46,0,1,,,,,,,,11,,,71,0
47518,note_on,94,0,4,,,,,,,,4,,,61,0
47518,note_on,46,0,2,,,,,,,,0,,,71,0
47518,note_on,94,0,6,,,,,,,,8,,,33,0
47520,note_on,2,0,5,,,,,,,,6,,,45,92
47520,note_on,2,0,6,,,,,,,,8,,,33,92
47520,note_on,2,0,2,,,,,,,,0,,,73,127
47520,note_on,2,0,3,,,,,,,,2,,,73,127
47520,note_on,2,0,1,,,,,,,,11,,,73,127
47520,note_on,2,0,4,,,,,,,,4,,,61,75
47566,note_on,46,0,3,,,,,,,,2,,,73,0
47566,note_on,46,0,2,,,,,,,,0,,,73,0
47566,note_on,46,0,1,,,,,,,,11,,,73,0
47568,note_on,2,0,1,,,,,,,,11,,,75,127
47568,note_on,2,0,3,,,,,,,,2,,,75,127
47568,note_on,2,0,2,,,,,,,,0,,,75,127
47614,note_on,46,0,1,,,,,,,,11,,,75,0
47614,note_on,94,0,4,,,,,,,,4,,,61,0
47614,note_on,46,0,3,,,,,,,,2,,,75,0
47614,note_on,94,0,6,,,,,,,,8,,,33,0
47614,note_on,46,0,2,,,,,,,,0,,,75,0
47614,note_on,94,0,5,,,,,,,,6,,,45,0
47616,note_on,2,0,4,,,,,,,,4,,,61,75
47616,note_on,2,0,3,,,,,,,,2,,,76,127
47616,note_on,2,0,5,,,,,,,,6,,,46,92
47616,note_on,2,0,2,,,,,,,,0,,,76,127
47616,note_on,2,0,6,,,,,,,,8,,,34,92
47616,note_on,2,0,1,,,,,,,,11,,,76,127
47662,note_on,46,0,2,,,,,,,,0,,,76,0
47662,note_on,46,0,3,,,,,,,,2,,,76,0
47662,note_on,46,0,1,,,,,,,,11,,,76,0
47664,note_on,2,0,3,,,,,,,,2,,,75,127
47664,note_on,2,0,2,,,,,,,,0,,,75,127
47664,note_on,2,0,1,,,,,,,,11,,,75,127
47710,note_on,94,0,4,,,,,,,,4,,,61,0
47710,note_on,46,0,1,,,,,,,,11,,,75,0
47710,note_on,46,0,3,,,,,,,,2,,,75,0
47710,note_on,94,0,6,,,,,,,,8,,,34,0
47710,note_on,94,0,5,,,,,,,,6,,,46,0
47710,note_on,46,0,2,,,,,,,,0,,,75,0
47712,note_on,2,0,1,,,,,,,,11,,,76,127
47712,note_on,2,0,6,,,,,,,,8,,,34,92
47712,note_on,2,0,4,,,,,,,,4,,,61,75
47712,note_on,2,0,5,,,,,,,,6,,,46,92
47712,note_on,2,0,3,,,,,,,,2,,,76,127
47712,note_on,2,0,2,,,,,,,,0,,,76,127
47758,note_on,46,0,2,,,,,,,,0,,,76,0
47758,note_on,46,0,3,,,,,,,,2,,,76,0
47758,note_on,46,0,1,,,,,,,,11,,,76,0
47760,note_on,2,0,2,,,,,,,,0,,,78,127
47760,note_on,2,0,1,,,,,,,,11,,,78,127
47760,note_on,2,0,3,,,,,,,,2,,,78,127
47806,note_on,94,0,6,,,,,,,,8,,,34,0
47806,note_on,46,0,1,,,,,,,,11,,,78,0
47806,note_on,94,0,4,,,,,,,,4,,,61,0
47806,note_on,46,0,3,,,,,,,,2,,,78,0
47806,note_on,94,0,5,,,,,,,,6,,,46,0
47806,note_on,46,0,2,,,,,,,,0,,,78,0
47808,note_on,2,0,1,,,,,,,,11,,,79,127
47808,note_on,2,0,3,,,,,,,,2,,,79,127
47808,note_on,2,0,6,,,,,,,,8,,,34,92
47808,note_on,2,0,2,,,,,,,,0,,,79,127
47808,note_on,2,0,5,,,,,,,,6,,,46,92
47808,note_on,2,0,4,,,,,,,,4,,,58,75
47854,note_on,46,0,1,,,,,,,,11,,,79,0
47854,note_on,46,0,3,,,,,,,,2,,,79,0
47854,note_on,46,0,2,,,,,,,,0,,,79,0
47856,note_on,2,0,3,,,,,,,,2,,,78,127
47856,note_on,2,0,2,,,,,,,,0,,,78,127
47856,note_on,2,0,1,,,,,,,,11,,,78,127
47902,note_on,94,0,4,,,,,,,,4,,,58,0
47902,note_on,46,0,3,,,,,,,,2,,,78,0
47902,note_on,46,0,1,,,,,,,,11,,,78,0
47902,note_on,94,0,5,,,,,,,,6,,,46,0
47902,note_on,94,0,6,,,,,,,,8,,,34,0
47902,note_on,46,0,2,,,,,,,,0,,,78,0
47904,note_on,2,0,2,,,,,,,,0,,,79,127
47904,note_on,2,0,4,,,,,,,,4,,,58,75
47904,note_on,2,0,3,,,,,,,,2,,,79,127
47904,note_on,2,0,5,,,,,,,,6,,,46,92
47904,note_on,2,0,1,,,,,,,,11,,,79,127
47904,note_on,2,0,6,,,,,,,,8,,,34,92
47950,note_on,46,0,2,,,,,,,,0,,,79,0
47950,note_on,46,0,1,,,,,,,,11,,,79,0
47950,note_on,46,0,3,,,,,,,,2,,,79,0
47952,note_on,2,0,1,,,,,,,,11,,,76,127
47952,note_on,2,0,3,,,,,,,,2,,,76,127
47952,note_on,2,0,2,,,,,,,,0,,,76,127
47998,note_on,46,0,1,,,,,,,,11,,,76,0
47998,note_on,94,0,5,,,,,,,,6,,,46,0
47998,note_on,46,0,2,,,,,,,,0,,,76,0
47998,note_on,94,0,4,,,,,,,,4,,,58,0
47998,note_on,46,0,3,,,,,,,,2,,,76,0
47998,note_on,94,0,6,,,,,,,,8,,,34,0
48000,note_on,2,0,1,,,,,,,,11,,,71,127
48000,note_on,2,0,5,,,,,,,,6,,,47,92
48000,note_on,2,0,2,,,,,,,,0,,,71,127
48000,note_on,2,0,4,,,,,,,,4,,,54,75
48000,note_on,2,0,3,,,,,,,,2,,,71,127
48000,note_on,2,0,6,,,,,,,,8,,,35,92
48046,note_on,46,0,3,,,,,,,,2,,,71,0
48046,note_on,46,0,1,,,,,,,,11,,,71,0
48046,note_on,46,0,2,,,,,,,,0,,,71,0
48048,note_on,2,0,3,,,,,,,,2,,,69,127
48048,note_on,2,0,1,,,,,,,,11,,,69,127
48048,note_on,2,0,2,,,,,,,,0,,,69,127
48094,note_on,94,0,6,,,,,,,,8,,,35,0
48094,note_on,46,0,3,,,,,,,,2,,,69,0
48094,note_on,94,0,4,,,,,,,,4,,,54,0
48094,note_on,46,0,1,,,,,,,,11,,,69,0
48094,note_on,94,0,5,,,,,,,,6,,,47,0
48094,note_on,46,0,2,,,,,,,,0,,,69,0
48096,note_on,2,0,6,,,,,,,,8,,,35,92
48096,note_on,2,0,2,,,,,,,,0,,,71,127
48096,note_on,2,0,1,,,,,,,,11,,,71,127
48096,note_on,2,0,3,,,,,,,,2,,,71,127
48096,note_on,2,0,4,,,,,,,,4,,,66,75
48096,note_on,2,0,5,,,,,,,,6,,,47,92
48142,note_on,46,0,3,,,,,,,,2,,,71,0
48142,note_on,46,0,2,,,,,,,,0,,,71,0
48142,note_on,46,0,1,,,,,,,,11,,,71,0
48144,note_on,2,0,1,,,,,,,,11,,,73,127
48144,note_on,2,0,3,,,,,,,,2,,,73,127
48144,note_on,2,0,2,,,,,,,,0,,,73,127
48190,note_on,46,0,1,,,,,,,,11,,,73,0
48190,note_on,94,0,4,,,,,,,,4,,,66,0
48190,note_on,94,0,6,,,,,,,,8,,,35,0
48190,note_on,46,0,2,,,,,,,,0,,,73,0
48190,note_on,94,0,5,,,,,,,,6,,,47,0
48190,note_on,46,0,3,,,,,,,,2,,,73,0
48192,note_on,2,0,6,,,,,,,,8,,,35,92
48192,note_on,2,0,4,,,,,,,,4,,,66,75
48192,note_on,2,0,2,,,,,,,,0,,,75,127
48192,note_on,2,0,1,,,,,,,,11,,,75,127
48192,note_on,2,0,3,,,,,,,,2,,,75,127
48192,note_on,2,0,5,,,,,,,,6,,,47,92
48238,note_on,46,0,2,,,,,,,,0,,,75,0
48238,note_on,46,0,1,,,,,,,,11,,,75,0
48238,note_on,46,0,3,,,,,,,,2,,,75,0
48240,note_on,2,0,2,,,,,,,,0,,,73,127
48240,note_on,2,0,3,,,,,,,,2,,,73,127
48240,note_on,2,0,1,,,,,,,,11,,,73,127
48286,note_on,46,0,3,,,,,,,,2,,,73,0
48286,note_on,94,0,6,,,,,,,,8,,,35,0
48286,note_on,46,0,2,,,,,,,,0,,,73,0
48286,note_on,94,0,4,,,,,,,,4,,,66,0
48286,note_on,94,0,5,,,,,,,,6,,,47,0
48286,note_on,46,0,1,,,,,,,,11,,,73,0
48288,note_on,2,0,2,,,,,,,,0,,,75,127
48288,note_on,2,0,6,,,,,,,,8,,,35,92
48288,note_on,2,0,3,,,,,,,,2,,,75,127
48288,note_on,2,0,1,,,,,,,,11,,,75,127
48288,note_on,2,0,5,,,,,,,,6,,,47,92
48288,note_on,2,0,4,,,,,,,,4,,,66,75
48334,note_on,46,0,3,,,,,,,,2,,,75,0
48334,note_on,46,0,1,,,,,,,,11,,,75,0
48334,note_on,46,0,2,,,,,,,,0,,,75,0
48336,note_on,2,0,1,,,,,,,,11,,,76,127
48336,note_on,2,0,3,,,,,,,,2,,,76,127
48336,note_on,2,0,2,,,,,,,,0,,,76,127
48382,note_on,46,0,1,,,,,,,,11,,,76,0
48382,note_on,94,0,5,,,,,,,,6,,,47,0
48382,note_on,94,0,4,,,,,,,,4,,,66,0
48382,note_on,94,0,6,,,,,,,,8,,,35,0
48382,note_on,46,0,2,,,,,,,,0,,,76,0
48382,note_on,46,0,3,,,,,,,,2,,,76,0
48384,note_on,2,0,2,,,,,,,,0,,,78,127
48384,note_on,2,0,3,,,,,,,,2,,,78,127
48384,note_on,2,0,6,,,,,,,,8,,,35,92
48384,note_on,2,0,1,,,,,,,,11,,,78,127
48384,note_on,2,0,4,,,,,,,,4,,,66,75
48384,note_on,2,0,5,,,,,,,,6,,,47,92
48430,note_on,46,0,3,,,,,,,,2,,,78,0
48430,note_on,46,0,1,,,,,,,,11,,,78,0
48430,note_on,46,0,2,,,,,,,,0,,,78,0
48432,note_on,2,0,3,,,,,,,,2,,,76,127
48432,note_on,2,0,2,,,,,,,,0,,,76,127
48432,note_on,2,0,1,,,,,,,,11,,,76,127
48478,note_on,94,0,6,,,,,,,,8,,,35,0
48478,note_on,46,0,1,,,,,,,,11,,,76,0
48478,note_on,46,0,2,,,,,,,,0,,,76,0
48478,note_on,94,0,5,,,,,,,,6,,,47,0
48478,note_on,94,0,4,,,,,,,,4,,,66,0
48478,note_on,46,0,3,,,,,,,,2,,,76,0
48480,note_on,2,0,4,,,,,,,,4,,,66,75
48480,note_on,2,0,1,,,,,,,,11,,,78,127
48480,note_on,2,0,6,,,,,,,,8,,,35,92
48480,note_on,2,0,2,,,,,,,,0,,,78,127
48480,note_on,2,0,5,,,,,,,,6,,,47,92
48480,note_on,2,0,3,,,,,,,,2,,,78,127
48526,note_on,46,0,1,,,,,,,,11,,,78,0
48526,note_on,46,0,2,,,,,,,,0,,,78,0
48526,note_on,46,0,3,,,,,,,,2,,,78,0
48528,note_on,2,0,3,,,,,,,,2,,,79,127
48528,note_on,2,0,1,,,,,,,,11,,,79,127
48528,note_on,2,0,2,,,,,,,,0,,,79,127
48574,note_on,46,0,3,,,,,,,,2,,,79,0
48574,note_on,46,0,1,,,,,,,,11,,,79,0
48574,note_on,94,0,6,,,,,,,,8,,,35,0
48574,note_on,94,0,5,,,,,,,,6,,,47,0
48574,note_on,94,0,4,,,,,,,,4,,,66,0
48574,note_on,46,0,2,,,,,,,,0,,,79,0
48576,note_on,2,0,2,,,,,,,,0,,,81,127
48576,note_on,2,0,3,,,,,,,,2,,,81,127
48576,note_on,2,0,4,,,,,,,,4,,,63,75
48576,note_on,2,0,1,,,,,,,,11,,,81,127
48576,note_on,2,0,5,,,,,,,,6,,,47,92
48576,note_on,2,0,6,,,,,,,,8,,,35,92
48622,note_on,46,0,3,,,,,,,,2,,,81,0
48622,note_on,46,0,2,,,,,,,,0,,,81,0
48622,note_on,46,0,1,,,,,,,,11,,,81,0
48624,note_on,2,0,1,,,,,,,,11,,,79,127
48624,note_on,2,0,2,,,,,,,,0,,,79,127
48624,note_on,2,0,3,,,,,,,,2,,,79,127
48670,note_on,46,0,3,,,,,,,,2,,,79,0
48670,note_on,46,0,2,,,,,,,,0,,,79,0
48670,note_on,94,0,4,,,,,,,,4,,,63,0
48670,note_on,46,0,1,,,,,,,,11,,,79,0
48670,note_on,94,0,5,,,,,,,,6,,,47,0
48670,note_on,94,0,6,,,,,,,,8,,,35,0
48672,note_on,2,0,6,,,,,,,,8,,,35,92
48672,note_on,2,0,2,,,,,,,,0,,,81,127
48672,note_on,2,0,4,,,,,,,,4,,,63,75
48672,note_on,2,0,1,,,,,,,,11,,,81,127
48672,note_on,2,0,3,,,,,,,,2,,,81,127
48672,note_on,2,0,5,,,,,,,,6,,,47,92
48718,note_on,46,0,3,,,,,,,,2,,,81,0
48718,note_on,46,0,2,,,,,,,,0,,,81,0
48718,note_on,46,0,1,,,,,,,,11,,,81,0
48720,note_on,2,0,3,,,,,,,,2,,,78,127
48720,note_on,2,0,2,,,,,,,,0,,,78,127
48720,note_on,2,0,1,,,,,,,,11,,,78,127
48766,note_on,94,0,5,,,,,,,,6,,,47,0
48766,note_on,46,0,3,,,,,,,,2,,,78,0
48766,note_on,46,0,2,,,,,,,,0,,,78,0
48766,note_on,46,0,1,,,,,,,,11,,,78,0
48766,note_on,94,0,6,,,,,,,,8,,,35,0
48766,note_on,94,0,4,,,,,,,,4,,,63,0
48768,note_on,2,0,4,,,,,,,,4,,,59,75
48768,note_on,2,0,1,,,,,,,,11,,,79,127
48768,note_on,2,0,6,,,,,,,,8,,,40,92
48768,note_on,2,0,5,,,,,,,,6,,,52,92
48768,note_on,2,0,2,,,,,,,,0,,,79,127
48768,note_on,2,0,3,,,,,,,,2,,,79,127
48862,note_on,94,0,1,,,,,,,,11,,,79,0
48862,note_on,94,0,3,,,,,,,,2,,,79,0
48862,note_on,94,0,5,,,,,,,,6,,,52,0
48862,note_on,94,0,4,,,,,,,,4,,,59,0
48862,note_on,94,0,6,,,,,,,,8,,,40,0
48862,note_on,94,0,2,,,,,,,,0,,,79,0
48864,note_on,2,0,2,,,,,,,,0,,,76,127
48864,note_on,2,0,3,,,,,,,,2,,,76,127
48864,note_on,2,0,4,,,,,,,,4,,,71,75
48864,note_on,2,0,1,,,,,,,,11,,,76,127
48864,note_on,2,0,6,,,,,,,,8,,,40,92
48864,note_on,2,0,5,,,,,,,,6,,,52,92
48958,note_on,94,0,3,,,,,,,,2,,,76,0
48958,note_on,94,0,2,,,,,,,,0,,,76,0
48958,note_on,94,0,4,,,,,,,,4,,,71,0
48958,note_on,94,0,6,,,,,,,,8,,,40,0
48958,note_on,94,0,1,,,,,,,,11,,,76,0
48958,note_on,94,0,5,,,,,,,,6,,,52,0
48960,note_on,2,0,3,,,,,,,,2,,,78,127
48960,note_on,2,0,2,,,,,,,,0,,,78,127
48960,note_on,2,0,4,,,,,,,,4,,,72,75
48960,note_on,2,0,6,,,,,,,,8,,,33,92
48960,note_on,2,0,5,,,,,,,,6,,,45,92
48960,note_on,2,0,1,,,,,,,,11,,,78,127
49054,note_on,94,0,6,,,,,,,,8,,,33,0
49054,note_on,94,0,4,,,,,,,,4,,,72,0
49054,note_on,94,0,1,,,,,,,,11,,,78,0
49054,note_on,94,0,5,,,,,,,,6,,,45,0
49054,note_on,94,0,2,,,,,,,,0,,,78,0
49054,note_on,94,0,3,,,,,,,,2,,,78,0
49056,note_on,2,0,6,,,,,,,,8,,,35,92
49056,note_on,2,0,1,,,,,,,,11,,,75,127
49056,note_on,2,0,5,,,,,,,,6,,,47,92
49056,note_on,2,0,2,,,,,,,,0,,,75,127
49056,note_on,2,0,3,,,,,,,,2,,,75,127
49056,note_on,2,0,4,,,,,,,,4,,,66,75
49150,note_on,94,0,3,,,,,,,,2,,,75,0
49150,note_on,94,0,4,,,,,,,,4,,,66,0
49150,note_on,94,0,2,,,,,,,,0,,,75,0
49150,note_on,94,0,5,,,,,,,,6,,,47,0
49150,note_on,94,0,6,,,,,,,,8,,,35,0
49150,note_on,94,0,1,,,,,,,,11,,,75,0
49152,note_on,0,0,2,,,,,,,,0,,,76,127
49152,note_on,2,0,1,,,,,,,,11,,,76,127
49152,control_change,2,0,3,,,,,,,,2,10,0,,
49152,note_on,0,0,3,,,,,,,,2,,,76,127
49152,control_change,2,0,2,,,,,,,,0,10,0,,
49152,note_on,2,0,5,,,,,,,,6,,,52,92
49152,note_on,0,0,4,,,,,,,,4,,,67,75
49152,control_change,2,0,4,,,,,,,,4,10,0,,
49152,note_on,2,0,6,,,,,,,,8,,,40,92
49198,note_on,46,0,1,,,,,,,,11,,,76,0
49200,note_on,2,0,1,,,,,,,,11,,,71,127
49246,note_on,94,0,4,,,,,,,,4,,,67,0
49246,note_on,94,0,2,,,,,,,,0,,,76,0
49246,note_on,46,0,1,,,,,,,,11,,,71,0
49246,note_on,94,0,3,,,,,,,,2,,,76,0
49248,note_on,2,0,3,,,,,,,,2,,,67,127
49248,note_on,2,0,1,,,,,,,,11,,,76,127
49248,note_on,2,0,4,,,,,,,,4,,,64,75
49248,note_on,2,0,2,,,,,,,,0,,,71,127
49280,note_on,32,0,3,,,,,,,,2,,,67,0
49280,note_on,32,0,4,,,,,,,,4,,,64,0
49280,note_on,32,0,2,,,,,,,,0,,,71,0
49294,note_on,46,0,1,,,,,,,,11,,,76,0
49296,note_on,2,0,1,,,,,,,,11,,,79,127
49312,note_on,160,0,5,,,,,,,,6,,,52,0
49312,note_on,160,0,6,,,,,,,,8,,,40,0
49342,note_on,46,0,1,,,,,,,,11,,,79,0
49344,note_on,64,0,4,,,,,,,,4,,,64,75
49344,note_on,64,0,3,,,,,,,,2,,,67,127
49344,note_on,64,0,2,,,,,,,,0,,,71,127
49344,note_on,2,0,1,,,,,,,,11,,,76,127
49376,note_on,32,0,4,,,,,,,,4,,,64,0
49376,note_on,32,0,2,,,,,,,,0,,,71,0
49376,note_on,32,0,3,,,,,,,,2,,,67,0
49390,note_on,46,0,1,,,,,,,,11,,,76,0
49392,note_on,2,0,1,,,,,,,,11,,,71,127
49438,note_on,46,0,1,,,,,,,,11,,,71,0
49440,note_on,2,0,1,,,,,,,,11,,,76,127
49440,note_on,64,0,3,,,,,,,,2,,,67,127
49440,note_on,64,0,4,,,,,,,,4,,,64,75
49440,note_on,64,0,2,,,,,,,,0,,,71,127
49472,note_on,32,0,3,,,,,,,,2,,,67,0
49472,note_on,32,0,4,,,,,,,,4,,,64,0
49472,note_on,32,0,2,,,,,,,,0,,,71,0
49486,note_on,46,0,1,,,,,,,,11,,,76,0
49488,note_on,2,0,1,,,,,,,,11,,,79,127
49534,note_on,46,0,1,,,,,,,,11,,,79,0
49536,note_on,2,0,1,,,,,,,,11,,,72,127
49536,note_on,64,0,4,,,,,,,,4,,,57,75
49536,note_on,64,0,3,,,,,,,,2,,,64,127
49536,note_on,64,0,2,,,,,,,,0,,,72,127
49568,note_on,32,0,2,,,,,,,,0,,,72,0
49568,note_on,32,0,3,,,,,,,,2,,,64,0
49568,note_on,32,0,4,,,,,,,,4,,,57,0
49582,note_on,46,0,1,,,,,,,,11,,,72,0
49584,note_on,2,0,1,,,,,,,,11,,,69,127
49630,note_on,46,0,1,,,,,,,,11,,,69,0
49632,note_on,2,0,1,,,,,,,,11,,,72,127
49632,note_on,64,0,2,,,,,,,,0,,,72,127
49632,note_on,64,0,3,,,,,,,,2,,,64,127
49632,note_on,64,0,4,,,,,,,,4,,,57,75
49664,note_on,32,0,4,,,,,,,,4,,,57,0
49664,note_on,32,0,2,,,,,,,,0,,,72,0
49664,note_on,32,0,3,,,,,,,,2,,,64,0
49678,note_on,46,0,1,,,,,,,,11,,,72,0
49680,note_on,2,0,1,,,,,,,,11,,,76,127
49726,note_on,46,0,1,,,,,,,,11,,,76,0
49728,note_on,64,0,3,,,,,,,,2,,,64,127
49728,note_on,64,0,4,,,,,,,,4,,,57,75
49728,note_on,2,0,1,,,,,,,,11,,,72,127
49728,note_on,64,0,2,,,,,,,,0,,,72,127
49760,note_on,32,0,3,,,,,,,,2,,,64,0
49760,note_on,32,0,4,,,,,,,,4,,,57,0
49760,note_on,32,0,2,,,,,,,,0,,,72,0
49774,note_on,46,0,1,,,,,,,,11,,,72,0
49776,note_on,2,0,1,,,,,,,,11,,,69,127
49822,note_on,46,0,1,,,,,,,,11,,,69,0
49824,note_on,2,0,1,,,,,,,,11,,,72,127
49824,note_on,64,0,3,,,,,,,,2,,,64,127
49824,note_on,64,0,4,,,,,,,,4,,,57,75
49824,note_on,64,0,2,,,,,,,,0,,,72,127
49856,note_on,32,0,3,,,,,,,,2,,,64,0
49856,note_on,32,0,4,,,,,,,,4,,,57,0
49856,note_on,32,0,2,,,,,,,,0,,,72,0
49870,note_on,46,0,1,,,,,,,,11,,,72,0
49872,note_on,2,0,1,,,,,,,,11,,,76,127
49918,note_on,46,0,1,,,,,,,,11,,,76,0
49920,note_on,64,0,3,,,,,,,,2,,,69,127
49920,note_on,2,0,1,,,,,,,,11,,,74,127
49920,note_on,64,0,2,,,,,,,,0,,,74,127
49920,note_on,64,0,4,,,,,,,,4,,,54,75
49952,note_on,32,0,3,,,,,,,,2,,,69,0
49952,note_on,32,0,2,,,,,,,,0,,,74,0
49952,note_on,32,0,4,,,,,,,,4,,,54,0
49966,note_on,46,0,1,,,,,,,,11,,,74,0
49968,note_on,2,0,1,,,,,,,,11,,,69,127
50014,note_on,46,0,1,,,,,,,,11,,,69,0
50016,note_on,2,0,1,,,,,,,,11,,,74,127
50016,note_on,64,0,4,,,,,,,,4,,,54,75
50016,note_on,64,0,2,,,,,,,,0,,,74,127
50016,note_on,64,0,3,,,,,,,,2,,,69,127
50048,note_on,32,0,4,,,,,,,,4,,,54,0
50048,note_on,32,0,2,,,,,,,,0,,,74,0
50048,note_on,32,0,3,,,,,,,,2,,,69,0
50062,note_on,46,0,1,,,,,,,,11,,,74,0
50064,note_on,2,0,1,,,,,,,,11,,,78,127
50110,note_on,46,0,1,,,,,,,,11,,,78,0
50112,note_on,2,0,1,,,,,,,,11,,,74,127
50112,note_on,64,0,4,,,,,,,,4,,,54,75
50112,note_on,64,0,3,,,,,,,,2,,,69,127
50112,note_on,64,0,2,,,,,,,,0,,,74,127
50144,note_on,32,0,2,,,,,,,,0,,,74,0
50144,note_on,32,0,4,,,,,,,,4,,,54,0
50144,note_on,32,0,3,,,,,,,,2,,,69,0
50158,note_on,46,0,1,,,,,,,,11,,,74,0
50160,note_on,2,0,1,,,,,,,,11,,,69,127
50206,note_on,46,0,1,,,,,,,,11,,,69,0
50208,note_on,2,0,1,,,,,,,,11,,,74,127
50208,note_on,64,0,4,,,,,,,,4,,,54,75
50208,note_on,64,0,3,,,,,,,,2,,,69,127
50208,note_on,64,0,2,,,,,,,,0,,,74,127
50240,note_on,32,0,4,,,,,,,,4,,,54,0
50240,note_on,32,0,2,,,,,,,,0,,,74,0
50240,note_on,32,0,3,,,,,,,,2,,,69,0
50254,note_on,46,0,1,,,,,,,,11,,,74,0
50256,note_on,2,0,1,,,,,,,,11,,,78,127
50302,note_on,46,0,1,,,,,,,,11,,,78,0
50304,note_on,64,0,2,,,,,,,,0,,,71,127
50304,note_on,2,0,1,,,,,,,,11,,,71,127
50304,note_on,64,0,3,,,,,,,,2,,,62,127
50304,note_on,64,0,4,,,,,,,,4,,,55,75
50336,note_on,32,0,2,,,,,,,,0,,,71,0
50336,note_on,32,0,3,,,,,,,,2,,,62,0
50336,note_on,32,0,4,,,,,,,,4,,,55,0
50350,note_on,46,0,1,,,,,,,,11,,,71,0
50352,note_on,2,0,1,,,,,,,,11,,,67,127
50398,note_on,46,0,1,,,,,,,,11,,,67,0
50400,note_on,64,0,3,,,,,,,,2,,,62,127
50400,note_on,64,0,4,,,,,,,,4,,,55,75
50400,note_on,64,0,2,,,,,,,,0,,,71,127
50400,note_on,2,0,1,,,,,,,,11,,,71,127
50432,note_on,32,0,4,,,,,,,,4,,,55,0
50432,note_on,32,0,3,,,,,,,,2,,,62,0
50432,note_on,32,0,2,,,,,,,,0,,,71,0
50446,note_on,46,0,1,,,,,,,,11,,,71,0
50448,note_on,2,0,1,,,,,,,,11,,,74,127
50494,note_on,46,0,1,,,,,,,,11,,,74,0
50496,note_on,2,0,1,,,,,,,,11,,,71,127
50496,note_on,64,0,3,,,,,,,,2,,,62,127
50496,note_on,64,0,2,,,,,,,,0,,,71,127
50496,note_on,64,0,4,,,,,,,,4,,,55,75
50528,note_on,32,0,4,,,,,,,,4,,,55,0
50528,note_on,32,0,2,,,,,,,,0,,,71,0
50528,note_on,32,0,3,,,,,,,,2,,,62,0
50542,note_on,46,0,1,,,,,,,,11,,,71,0
50544,note_on,2,0,1,,,,,,,,11,,,67,127
50590,note_on,46,0,1,,,,,,,,11,,,67,0
50592,note_on,64,0,2,,,,,,,,0,,,71,127
50592,note_on,64,0,3,,,,,,,,2,,,62,127
50592,note_on,64,0,4,,,,,,,,4,,,55,75
50592,note_on,2,0,1,,,,,,,,11,,,71,127
50624,note_on,32,0,2,,,,,,,,0,,,71,0
50624,note_on,32,0,3,,,,,,,,2,,,62,0
50624,note_on,32,0,4,,,,,,,,4,,,55,0
50638,note_on,46,0,1,,,,,,,,11,,,71,0
50640,note_on,2,0,1,,,,,,,,11,,,74,127
50686,note_on,46,0,1,,,,,,,,11,,,74,0
50688,note_on,64,0,3,,,,,,,,2,,,67,127
50688,note_on,2,0,1,,,,,,,,11,,,72,127
50688,note_on,64,0,4,,,,,,,,4,,,52,75
50688,note_on,64,0,2,,,,,,,,0,,,72,127
50720,note_on,32,0,4,,,,,,,,4,,,52,0
50720,note_on,32,0,3,,,,,,,,2,,,67,0
50720,note_on,32,0,2,,,,,,,,0,,,72,0
50734,note_on,46,0,1,,,,,,,,11,,,72,0
50736,note_on,2,0,1,,,,,,,,11,,,67,127
50782,note_on,46,0,1,,,,,,,,11,,,67,0
50784,note_on,64,0,3,,,,,,,,2,,,67,127
50784,note_on,64,0,2,,,,,,,,0,,,72,127
50784,note_on,2,0,1,,,,,,,,11,,,72,127
50784,note_on,64,0,4,,,,,,,,4,,,52,75
50816,note_on,32,0,3,,,,,,,,2,,,67,0
50816,note_on,32,0,4,,,,,,,,4,,,52,0
50816,note_on,32,0,2,,,,,,,,0,,,72,0
50830,note_on,46,0,1,,,,,,,,11,,,72,0
50832,note_on,2,0,1,,,,,,,,11,,,76,127
50878,note_on,46,0,1,,,,,,,,11,,,76,0
50880,note_on,64,0,2,,,,,,,,0,,,72,127
50880,note_on,2,0,1,,,,,,,,11,,,72,127
50880,note_on,64,0,4,,,,,,,,4,,,52,75
50880,note_on,64,0,3,,,,,,,,2,,,67,127
50912,note_on,32,0,4,,,,,,,,4,,,52,0
50912,note_on,32,0,3,,,,,,,,2,,,67,0
50912,note_on,32,0,2,,,,,,,,0,,,72,0
50926,note_on,46,0,1,,,,,,,,11,,,72,0
50928,note_on,2,0,1,,,,,,,,11,,,67,127
50974,note_on,46,0,1,,,,,,,,11,,,67,0
50976,note_on,2,0,1,,,,,,,,11,,,72,127
50976,note_on,64,0,4,,,,,,,,4,,,52,75
50976,note_on,64,0,2,,,,,,,,0,,,72,127
50976,note_on,64,0,3,,,,,,,,2,,,67,127
51008,note_on,32,0,3,,,,,,,,2,,,67,0
51008,note_on,32,0,4,,,,,,,,4,,,52,0
51008,note_on,32,0,2,,,,,,,,0,,,72,0
51022,note_on,46,0,1,,,,,,,,11,,,72,0
51024,note_on,2,0,1,,,,,,,,11,,,76,127
51070,note_on,46,0,1,,,,,,,,11,,,76,0
51072,note_on,64,0,3,,,,,,,,2,,,69,127
51072,note_on,64,0,2,,,,,,,,0,,,72,127
51072,note_on,2,0,1,,,,,,,,11,,,69,127
51072,note_on,64,0,4,,,,,,,,4,,,53,75
51104,note_on,32,0,4,,,,,,,,4,,,53,0
51104,note_on,32,0,3,,,,,,,,2,,,69,0
51104,note_on,32,0,2,,,,,,,,0,,,72,0
51118,note_on,46,0,1,,,,,,,,11,,,69,0
51120,note_on,2,0,1,,,,,,,,11,,,65,127
51166,note_on,46,0,1,,,,,,,,11,,,65,0
51168,note_on,64,0,4,,,,,,,,4,,,53,75
51168,note_on,64,0,3,,,,,,,,2,,,69,127
51168,note_on,64,0,2,,,,,,,,0,,,72,127
51168,note_on,2,0,1,,,,,,,,11,,,69,127
51200,note_on,32,0,2,,,,,,,,0,,,72,0
51200,note_on,32,0,4,,,,,,,,4,,,53,0
51200,note_on,32,0,3,,,,,,,,2,,,69,0
51214,note_on,46,0,1,,,,,,,,11,,,69,0
51216,note_on,2,0,1,,,,,,,,11,,,72,127
51262,note_on,46,0,1,,,,,,,,11,,,72,0
51264,note_on,64,0,3,,,,,,,,2,,,72,127
51264,note_on,64,0,2,,,,,,,,0,,,77,127
51264,note_on,2,0,1,,,,,,,,11,,,69,127
51264,note_on,64,0,4,,,,,,,,4,,,53,75
51296,note_on,32,0,2,,,,,,,,0,,,77,0
51296,note_on,32,0,3,,,,,,,,2,,,72,0
51296,note_on,32,0,4,,,,,,,,4,,,53,0
51310,note_on,46,0,1,,,,,,,,11,,,69,0
51312,note_on,2,0,1,,,,,,,,11,,,65,127
51358,note_on,46,0,1,,,,,,,,11,,,65,0
51360,note_on,64,0,3,,,,,,,,2,,,72,127
51360,note_on,64,0,2,,,,,,,,0,,,77,127
51360,note_on,2,0,1,,,,,,,,11,,,69,127
51360,note_on,64,0,4,,,,,,,,4,,,53,75
51392,note_on,32,0,2,,,,,,,,0,,,77,0
51392,note_on,32,0,3,,,,,,,,2,,,72,0
51392,note_on,32,0,4,,,,,,,,4,,,53,0
51406,note_on,46,0,1,,,,,,,,11,,,69,0
51408,note_on,2,0,1,,,,,,,,11,,,72,127
51454,note_on,46,0,1,,,,,,,,11,,,72,0
51456,note_on,2,0,1,,,,,,,,11,,,71,127
51456,note_on,64,0,2,,,,,,,,0,,,74,127
51456,note_on,64,0,3,,,,,,,,2,,,71,127
51456,note_on,64,0,4,,,,,,,,4,,,55,75
51488,note_on,32,0,3,,,,,,,,2,,,71,0
51488,note_on,32,0,4,,,,,,,,4,,,55,0
51488,note_on,32,0,2,,,,,,,,0,,,74,0
51502,note_on,46,0,1,,,,,,,,11,,,71,0
51504,note_on,2,0,1,,,,,,,,11,,,65,127
51550,note_on,46,0,1,,,,,,,,11,,,65,0
51552,note_on,2,0,1,,,,,,,,11,,,71,127
51552,note_on,64,0,4,,,,,,,,4,,,55,75
51552,note_on,64,0,2,,,,,,,,0,,,74,127
51552,note_on,64,0,3,,,,,,,,2,,,71,127
51584,note_on,32,0,2,,,,,,,,0,,,74,0
51584,note_on,32,0,4,,,,,,,,4,,,55,0
51584,note_on,32,0,3,,,,,,,,2,,,71,0
51598,note_on,46,0,1,,,,,,,,11,,,71,0
51600,note_on,2,0,1,,,,,,,,11,,,74,127
51646,note_on,46,0,1,,,,,,,,11,,,74,0
51648,note_on,2,0,1,,,,,,,,11,,,71,127
51648,note_on,64,0,4,,,,,,,,4,,,55,75
51648,note_on,64,0,2,,,,,,,,0,,,74,127
51648,note_on,64,0,3,,,,,,,,2,,,71,127
51680,note_on,32,0,2,,,,,,,,0,,,74,0
51680,note_on,32,0,3,,,,,,,,2,,,71,0
51680,note_on,32,0,4,,,,,,,,4,,,55,0
51694,note_on,46,0,1,,,,,,,,11,,,71,0
51696,note_on,2,0,1,,,,,,,,11,,,65,127
51742,note_on,46,0,1,,,,,,,,11,,,65,0
51744,note_on,64,0,3,,,,,,,,2,,,71,127
51744,note_on,64,0,2,,,,,,,,0,,,74,127
51744,note_on,64,0,4,,,,,,,,4,,,55,75
51744,note_on,2,0,1,,,,,,,,11,,,71,127
51776,note_on,32,0,2,,,,,,,,0,,,74,0
51776,note_on,32,0,3,,,,,,,,2,,,71,0
51776,note_on,32,0,4,,,,,,,,4,,,55,0
51790,note_on,46,0,1,,,,,,,,11,,,71,0
51792,note_on,2,0,1,,,,,,,,11,,,74,127
51838,note_on,46,0,1,,,,,,,,11,,,74,0
51840,note_on,64,0,4,,,,,,,,4,,,55,75
51840,note_on,2,0,1,,,,,,,,11,,,72,127
51840,note_on,64,0,2,,,,,,,,0,,,76,127
51840,note_on,64,0,3,,,,,,,,2,,,72,127
51872,note_on,32,0,3,,,,,,,,2,,,72,0
51872,note_on,32,0,4,,,,,,,,4,,,55,0
51872,note_on,32,0,2,,,,,,,,0,,,76,0
51886,note_on,46,0,1,,,,,,,,11,,,72,0
51888,note_on,2,0,1,,,,,,,,11,,,67,127
51934,note_on,46,0,1,,,,,,,,11,,,67,0
51936,note_on,64,0,4,,,,,,,,4,,,55,75
51936,note_on,64,0,3,,,,,,,,2,,,72,127
51936,note_on,64,0,2,,,,,,,,0,,,76,127
51936,note_on,2,0,1,,,,,,,,11,,,72,127
51968,note_on,32,0,3,,,,,,,,2,,,72,0
51968,note_on,32,0,4,,,,,,,,4,,,55,0
51968,note_on,32,0,2,,,,,,,,0,,,76,0
51982,note_on,46,0,1,,,,,,,,11,,,72,0
51984,note_on,2,0,1,,,,,,,,11,,,76,127
52030,note_on,46,0,1,,,,,,,,11,,,76,0
52032,note_on,64,0,4,,,,,,,,4,,,55,75
52032,note_on,64,0,3,,,,,,,,2,,,72,127
52032,note_on,64,0,2,,,,,,,,0,,,76,127
52032,note_on,2,0,1,,,,,,,,11,,,72,127
52064,note_on,32,0,2,,,,,,,,0,,,76,0
52064,note_on,32,0,4,,,,,,,,4,,,55,0
52064,note_on,32,0,3,,,,,,,,2,,,72,0
52078,note_on,46,0,1,,,,,,,,11,,,72,0
52080,note_on,2,0,1,,,,,,,,11,,,67,127
52126,note_on,46,0,1,,,,,,,,11,,,67,0
52128,note_on,64,0,4,,,,,,,,4,,,55,75
52128,note_on,64,0,3,,,,,,,,2,,,72,127
52128,note_on,64,0,2,,,,,,,,0,,,76,127
52128,note_on,2,0,1,,,,,,,,11,,,72,127
52160,note_on,32,0,2,,,,,,,,0,,,76,0
52160,note_on,32,0,3,,,,,,,,2,,,72,0
52160,note_on,32,0,4,,,,,,,,4,,,55,0
52174,note_on,46,0,1,,,,,,,,11,,,72,0
52176,note_on,2,0,1,,,,,,,,11,,,76,127
52222,note_on,46,0,1,,,,,,,,11,,,76,0
52224,note_on,64,0,2,,,,,,,,0,,,74,127
52224,note_on,64,0,3,,,,,,,,2,,,71,127
52224,note_on,2,0,1,,,,,,,,11,,,74,127
52224,note_on,64,0,4,,,,,,,,4,,,55,75
52256,note_on,32,0,3,,,,,,,,2,,,71,0
52256,note_on,32,0,4,,,,,,,,4,,,55,0
52256,note_on,32,0,2,,,,,,,,0,,,74,0
52270,note_on,46,0,1,,,,,,,,11,,,74,0
52272,note_on,2,0,1,,,,,,,,11,,,71,127
52318,note_on,46,0,1,,,,,,,,11,,,71,0
52320,note_on,64,0,4,,,,,,,,4,,,55,75
52320,note_on,64,0,2,,,,,,,,0,,,74,127
52320,note_on,2,0,1,,,,,,,,11,,,74,127
52320,note_on,64,0,3,,,,,,,,2,,,71,127
52352,note_on,32,0,4,,,,,,,,4,,,55,0
52352,note_on,32,0,2,,,,,,,,0,,,74,0
52352,note_on,32,0,3,,,,,,,,2,,,71,0
52366,note_on,46,0,1,,,,,,,,11,,,74,0
52368,note_on,2,0,1,,,,,,,,11,,,79,127
52414,note_on,46,0,1,,,,,,,,11,,,79,0
52416,note_on,64,0,3,,,,,,,,2,,,71,127
52416,note_on,64,0,2,,,,,,,,0,,,74,127
52416,note_on,2,0,1,,,,,,,,11,,,74,127
52416,note_on,64,0,4,,,,,,,,4,,,55,75
52448,note_on,32,0,2,,,,,,,,0,,,74,0
52448,note_on,32,0,3,,,,,,,,2,,,71,0
52448,note_on,32,0,4,,,,,,,,4,,,55,0
52462,note_on,46,0,1,,,,,,,,11,,,74,0
52464,note_on,2,0,1,,,,,,,,11,,,71,127
52510,note_on,46,0,1,,,,,,,,11,,,71,0
52512,note_on,64,0,4,,,,,,,,4,,,55,75
52512,note_on,64,0,2,,,,,,,,0,,,74,127
52512,note_on,64,0,3,,,,,,,,2,,,71,127
52512,note_on,2,0,1,,,,,,,,11,,,74,127
52544,note_on,32,0,3,,,,,,,,2,,,71,0
52544,note_on,32,0,4,,,,,,,,4,,,55,0
52544,note_on,32,0,2,,,,,,,,0,,,74,0
52558,note_on,46,0,1,,,,,,,,11,,,74,0
52560,note_on,2,0,1,,,,,,,,11,,,79,127
52606,note_on,46,0,1,,,,,,,,11,,,79,0
52608,note_on,64,0,2,,,,,,,,0,,,76,127
52608,note_on,64,0,4,,,,,,,,4,,,55,75
52608,note_on,2,0,1,,,,,,,,11,,,76,127
52608,note_on,64,0,3,,,,,,,,2,,,72,127
52640,note_on,32,0,2,,,,,,,,0,,,76,0
52640,note_on,32,0,4,,,,,,,,4,,,55,0
52640,note_on,32,0,3,,,,,,,,2,,,72,0
52654,note_on,46,0,1,,,,,,,,11,,,76,0
52656,note_on,2,0,1,,,,,,,,11,,,72,127
52702,note_on,46,0,1,,,,,,,,11,,,72,0
52704,note_on,64,0,2,,,,,,,,0,,,76,127
52704,note_on,64,0,4,,,,,,,,4,,,55,75
52704,note_on,2,0,1,,,,,,,,11,,,76,127
52704,note_on,64,0,3,,,,,,,,2,,,72,127
52736,note_on,32,0,3,,,,,,,,2,,,72,0
52736,note_on,32,0,4,,,,,,,,4,,,55,0
52736,note_on,32,0,2,,,,,,,,0,,,76,0
52750,note_on,46,0,1,,,,,,,,11,,,76,0
52752,note_on,2,0,1,,,,,,,,11,,,79,127
52798,note_on,46,0,1,,,,,,,,11,,,79,0
52800,note_on,2,0,1,,,,,,,,11,,,76,127
52800,note_on,64,0,2,,,,,,,,0,,,76,127
52800,note_on,64,0,3,,,,,,,,2,,,72,127
52800,note_on,64,0,4,,,,,,,,4,,,55,75
52832,note_on,32,0,3,,,,,,,,2,,,72,0
52832,note_on,32,0,2,,,,,,,,0,,,76,0
52832,note_on,32,0,4,,,,,,,,4,,,55,0
52846,note_on,46,0,1,,,,,,,,11,,,76,0
52848,note_on,2,0,1,,,,,,,,11,,,72,127
52894,note_on,46,0,1,,,,,,,,11,,,72,0
52896,note_on,2,0,1,,,,,,,,11,,,76,127
52896,note_on,64,0,4,,,,,,,,4,,,55,75
52896,note_on,64,0,3,,,,,,,,2,,,72,127
52896,note_on,64,0,2,,,,,,,,0,,,76,127
52928,note_on,32,0,4,,,,,,,,4,,,55,0
52928,note_on,32,0,3,,,,,,,,2,,,72,0
52928,note_on,32,0,2,,,,,,,,0,,,76,0
52942,note_on,46,0,1,,,,,,,,11,,,76,0
52944,note_on,2,0,1,,,,,,,,11,,,79,127
52990,note_on,46,0,1,,,,,,,,11,,,79,0
52992,note_on,64,0,4,,,,,,,,4,,,55,75
52992,note_on,2,0,1,,,,,,,,11,,,74,127
52992,note_on,64,0,3,,,,,,,,2,,,71,127
52992,note_on,64,0,2,,,,,,,,0,,,74,127
53024,note_on,32,0,3,,,,,,,,2,,,71,0
53024,note_on,32,0,4,,,,,,,,4,,,55,0
53024,note_on,32,0,2,,,,,,,,0,,,74,0
53038,note_on,46,0,1,,,,,,,,11,,,74,0
53040,note_on,2,0,1,,,,,,,,11,,,71,127
53086,note_on,46,0,1,,,,,,,,11,,,71,0
53088,note_on,2,0,1,,,,,,,,11,,,74,127
53088,note_on,64,0,3,,,,,,,,2,,,71,127
53088,note_on,64,0,2,,,,,,,,0,,,74,127
53088,note_on,64,0,4,,,,,,,,4,,,55,75
53120,note_on,32,0,3,,,,,,,,2,,,71,0
53120,note_on,32,0,2,,,,,,,,0,,,74,0
53120,note_on,32,0,4,,,,,,,,4,,,55,0
53134,note_on,46,0,1,,,,,,,,11,,,74,0
53136,note_on,2,0,1,,,,,,,,11,,,79,127
53182,note_on,46,0,1,,,,,,,,11,,,79,0
53184,note_on,2,0,1,,,,,,,,11,,,74,127
53184,note_on,64,0,2,,,,,,,,0,,,74,127
53184,note_on,64,0,3,,,,,,,,2,,,71,127
53184,note_on,64,0,4,,,,,,,,4,,,55,75
53216,note_on,32,0,2,,,,,,,,0,,,74,0
53216,note_on,32,0,3,,,,,,,,2,,,71,0
53216,note_on,32,0,4,,,,,,,,4,,,55,0
53230,note_on,46,0,1,,,,,,,,11,,,74,0
53232,note_on,2,0,1,,,,,,,,11,,,71,127
53278,note_on,46,0,1,,,,,,,,11,,,71,0
53280,note_on,2,0,1,,,,,,,,11,,,74,127
53280,note_on,64,0,4,,,,,,,,4,,,55,75
53280,note_on,64,0,2,,,,,,,,0,,,74,127
53280,note_on,64,0,3,,,,,,,,2,,,71,127
53312,note_on,32,0,4,,,,,,,,4,,,55,0
53312,note_on,32,0,2,,,,,,,,0,,,74,0
53312,note_on,32,0,3,,,,,,,,2,,,71,0
53326,note_on,46,0,1,,,,,,,,11,,,74,0
53328,note_on,2,0,1,,,,,,,,11,,,79,127
53374,note_on,46,0,1,,,,,,,,11,,,79,0
53376,note_on,64,0,3,,,,,,,,2,,,72,127
53376,note_on,2,0,1,,,,,,,,11,,,76,127
53376,note_on,64,0,4,,,,,,,,4,,,55,75
53376,note_on,64,0,2,,,,,,,,0,,,76,127
53408,note_on,32,0,4,,,,,,,,4,,,55,0
53408,note_on,32,0,3,,,,,,,,2,,,72,0
53408,note_on,32,0,2,,,,,,,,0,,,76,0
53422,note_on,46,0,1,,,,,,,,11,,,76,0
53424,note_on,2,0,1,,,,,,,,11,,,72,127
53470,note_on,46,0,1,,,,,,,,11,,,72,0
53472,note_on,64,0,2,,,,,,,,0,,,76,127
53472,note_on,64,0,3,,,,,,,,2,,,72,127
53472,note_on,2,0,1,,,,,,,,11,,,76,127
53472,note_on,64,0,4,,,,,,,,4,,,55,75
53504,note_on,32,0,4,,,,,,,,4,,,55,0
53504,note_on,32,0,2,,,,,,,,0,,,76,0
53504,note_on,32,0,3,,,,,,,,2,,,72,0
53518,note_on,46,0,1,,,,,,,,11,,,76,0
53520,note_on,2,0,1,,,,,,,,11,,,79,127
53566,note_on,46,0,1,,,,,,,,11,,,79,0
53568,note_on,64,0,4,,,,,,,,4,,,55,75
53568,note_on,64,0,3,,,,,,,,2,,,72,127
53568,note_on,64,0,2,,,,,,,,0,,,76,127
53568,note_on,2,0,1,,,,,,,,11,,,76,127
53600,note_on,32,0,3,,,,,,,,2,,,72,0
53600,note_on,32,0,4,,,,,,,,4,,,55,0
53600,note_on,32,0,2,,,,,,,,0,,,76,0
53614,note_on,46,0,1,,,,,,,,11,,,76,0
53616,note_on,2,0,1,,,,,,,,11,,,72,127
53662,note_on,46,0,1,,,,,,,,11,,,72,0
53664,note_on,2,0,1,,,,,,,,11,,,76,127
53664,note_on,64,0,4,,,,,,,,4,,,55,75
53664,note_on,64,0,3,,,,,,,,2,,,72,127
53664,note_on,64,0,2,,,,,,,,0,,,76,127
53696,note_on,32,0,2,,,,,,,,0,,,76,0
53696,note_on,32,0,4,,,,,,,,4,,,55,0
53696,note_on,32,0,3,,,,,,,,2,,,72,0
53710,note_on,46,0,1,,,,,,,,11,,,76,0
53712,note_on,2,0,1,,,,,,,,11,,,79,127
53758,note_on,46,0,1,,,,,,,,11,,,79,0
53760,note_on,64,0,3,,,,,,,,2,,,71,127
53760,note_on,64,0,4,,,,,,,,4,,,55,75
53760,note_on,2,0,1,,,,,,,,11,,,74,127
53760,note_on,64,0,2,,,,,,,,0,,,74,127
53792,note_on,32,0,3,,,,,,,,2,,,71,0
53792,note_on,32,0,2,,,,,,,,0,,,74,0
53792,note_on,32,0,4,,,,,,,,4,,,55,0
53806,note_on,46,0,1,,,,,,,,11,,,74,0
53808,note_on,2,0,1,,,,,,,,11,,,71,127
53854,note_on,46,0,1,,,,,,,,11,,,71,0
53856,note_on,64,0,3,,,,,,,,2,,,71,127
53856,note_on,2,0,1,,,,,,,,11,,,74,127
53856,note_on,64,0,4,,,,,,,,4,,,55,75
53856,note_on,64,0,2,,,,,,,,0,,,74,127
53888,note_on,32,0,2,,,,,,,,0,,,74,0
53888,note_on,32,0,4,,,,,,,,4,,,55,0
53888,note_on,32,0,3,,,,,,,,2,,,71,0
53902,note_on,46,0,1,,,,,,,,11,,,74,0
53904,note_on,2,0,1,,,,,,,,11,,,79,127
53950,note_on,46,0,1,,,,,,,,11,,,79,0
53952,note_on,64,0,3,,,,,,,,2,,,71,127
53952,note_on,64,0,4,,,,,,,,4,,,55,75
53952,note_on,2,0,1,,,,,,,,11,,,74,127
53952,note_on,64,0,2,,,,,,,,0,,,74,127
53984,note_on,32,0,2,,,,,,,,0,,,74,0
53984,note_on,32,0,4,,,,,,,,4,,,55,0
53984,note_on,32,0,3,,,,,,,,2,,,71,0
53998,note_on,46,0,1,,,,,,,,11,,,74,0
54000,note_on,2,0,1,,,,,,,,11,,,71,127
54046,note_on,46,0,1,,,,,,,,11,,,71,0
54048,note_on,64,0,2,,,,,,,,0,,,74,127
54048,note_on,64,0,3,,,,,,,,2,,,71,127
54048,note_on,2,0,1,,,,,,,,11,,,74,127
54048,note_on,64,0,4,,,,,,,,4,,,55,75
54080,note_on,32,0,2,,,,,,,,0,,,74,0
54080,note_on,32,0,4,,,,,,,,4,,,55,0
54080,note_on,32,0,3,,,,,,,,2,,,71,0
54094,note_on,46,0,1,,,,,,,,11,,,74,0
54096,note_on,2,0,1,,,,,,,,11,,,79,127
54142,note_on,46,0,1,,,,,,,,11,,,79,0
54144,control_change,64,0,4,,,,,,,,4,10,64,,
54144,note_on,4832,0,6,,,,,,,,8,,,36,92
54144,control_change,64,0,3,,,,,,,,2,10,64,,
54144,note_on,0,0,3,,,,,,,,2,,,72,127
54144,note_on,0,0,2,,,,,,,,0,,,76,127
54144,note_on,4832,0,5,,,,,,,,6,,,48,92
54144,control_change,64,0,2,,,,,,,,0,10,64,,
54144,note_on,0,0,4,,,,,,,,4,,,55,75
54144,note_on,2,0,1,,,,,,,,11,,,76,127
54238,note_on,94,0,2,,,,,,,,0,,,76,0
54238,note_on,94,0,1,,,,,,,,11,,,76,0
54238,note_on,94,0,3,,,,,,,,2,,,72,0
54240,note_on,2,0,1,,,,,,,,11,,,79,127
54240,note_on,2,0,3,,,,,,,,2,,,79,127
54240,note_on,2,0,2,,,,,,,,0,,,79,127
54304,note_on,160,0,4,,,,,,,,4,,,55,0
54304,note_on,160,0,6,,,,,,,,8,,,36,0
54304,note_on,160,0,5,,,,,,,,6,,,48,0
54334,note_on,94,0,1,,,,,,,,11,,,79,0
54334,note_on,94,0,2,,,,,,,,0,,,79,0
54334,note_on,94,0,3,,,,,,,,2,,,79,0
54336,note_on,32,0,4,,,,,,,,4,,,76,75
54336,note_on,2,0,3,,,,,,,,2,,,76,127
54336,note_on,32,0,6,,,,,,,,8,,,52,92
54336,note_on,32,0,5,,,,,,,,6,,,64,92
54336,note_on,2,0,2,,,,,,,,0,,,76,127
54336,note_on,2,0,1,,,,,,,,11,,,76,127
54430,note_on,94,0,2,,,,,,,,0,,,76,0
54430,note_on,94,0,1,,,,,,,,11,,,76,0
54430,note_on,94,0,5,,,,,,,,6,,,64,0
54430,note_on,94,0,4,,,,,,,,4,,,76,0
54430,note_on,94,0,3,,,,,,,,2,,,76,0
54430,note_on,94,0,6,,,,,,,,8,,,52,0
54432,note_on,2,0,1,,,,,,,,11,,,74,127
54432,note_on,2,0,4,,,,,,,,4,,,74,75
54432,note_on,2,0,5,,,,,,,,6,,,62,92
54432,note_on,2,0,3,,,,,,,,2,,,74,127
54432,note_on,2,0,2,,,,,,,,0,,,74,127
54432,note_on,2,0,6,,,,,,,,8,,,50,92
54478,note_on,46,0,1,,,,,,,,11,,,74,0
54478,note_on,46,0,5,,,,,,,,6,,,62,0
54478,note_on,46,0,2,,,,,,,,0,,,74,0
54478,note_on,46,0,3,,,,,,,,2,,,74,0
54478,note_on,46,0,4,,,,,,,,4,,,74,0
54478,note_on,46,0,6,,,,,,,,8,,,50,0
54480,note_on,2,0,2,,,,,,,,0,,,72,127
54480,note_on,2,0,4,,,,,,,,4,,,72,75
54480,note_on,2,0,6,,,,,,,,8,,,48,92
54480,note_on,2,0,1,,,,,,,,11,,,72,127
54480,note_on,2,0,3,,,,,,,,2,,,72,127
54480,note_on,2,0,5,,,,,,,,6,,,60,92
54526,note_on,46,0,4,,,,,,,,4,,,72,0
54526,note_on,46,0,6,,,,,,,,8,,,48,0
54526,note_on,46,0,1,,,,,,,,11,,,72,0
54526,note_on,46,0,2,,,,,,,,0,,,72,0
54526,note_on,46,0,5,,,,,,,,6,,,60,0
54526,note_on,46,0,3,,,,,,,,2,,,72,0
54528,note_on,2,0,5,,,,,,,,6,,,62,92
54528,note_on,2,0,3,,,,,,,,2,,,74,127
54528,note_on,2,0,2,,,,,,,,0,,,74,127
54528,note_on,2,0,6,,,,,,,,8,,,50,92
54528,note_on,2,0,1,,,,,,,,11,,,74,127
54528,note_on,2,0,4,,,,,,,,4,,,74,75
54622,note_on,94,0,1,,,,,,,,11,,,74,0
54622,note_on,94,0,2,,,,,,,,0,,,74,0
54622,note_on,94,0,3,,,,,,,,2,,,74,0
54624,note_on,2,0,1,,,,,,,,11,,,79,127
54624,note_on,2,0,2,,,,,,,,0,,,79,127
54624,note_on,2,0,3,,,,,,,,2,,,79,127
54688,note_on,160,0,4,,,,,,,,4,,,74,0
54688,note_on,160,0,6,,,,,,,,8,,,50,0
54688,note_on,160,0,5,,,,,,,,6,,,62,0
54718,note_on,94,0,1,,,,,,,,11,,,79,0
54718,note_on,94,0,2,,,,,,,,0,,,79,0
54718,note_on,94,0,3,,,,,,,,2,,,79,0
54720,note_on,2,0,3,,,,,,,,2,,,74,127
54720,note_on,2,0,2,,,,,,,,0,,,74,127
54720,note_on,32,0,5,,,,,,,,6,,,62,92
54720,note_on,2,0,1,,,,,,,,11,,,74,127
54720,note_on,32,0,4,,,,,,,,4,,,74,75
54720,note_on,32,0,6,,,,,,,,8,,,50,92
54814,note_on,94,0,2,,,,,,,,0,,,74,0
54814,note_on,94,0,1,,,,,,,,11,,,74,0
54814,note_on,94,0,6,,,,,,,,8,,,50,0
54814,note_on,94,0,5,,,,,,,,6,,,62,0
54814,note_on,94,0,4,,,,,,,,4,,,74,0
54814,note_on,94,0,3,,,,,,,,2,,,74,0
54816,note_on,2,0,5,,,,,,,,6,,,60,92
54816,note_on,2,0,4,,,,,,,,4,,,72,75
54816,note_on,2,0,6,,,,,,,,8,,,48,92
54816,note_on,2,0,2,,,,,,,,0,,,72,127
54816,note_on,2,0,3,,,,,,,,2,,,72,127
54816,note_on,2,0,1,,,,,,,,11,,,72,127
54862,note_on,46,0,5,,,,,,,,6,,,60,0
54862,note_on,46,0,3,,,,,,,,2,,,72,0
54862,note_on,46,0,4,,,,,,,,4,,,72,0
54862,note_on,46,0,6,,,,,,,,8,,,48,0
54862,note_on,46,0,2,,,,,,,,0,,,72,0
54862,note_on,46,0,1,,,,,,,,11,,,72,0
54864,note_on,2,0,6,,,,,,,,8,,,47,92
54864,note_on,2,0,5,,,,,,,,6,,,59,92
54864,note_on,2,0,3,,,,,,,,2,,,71,127
54864,note_on,2,0,1,,,,,,,,11,,,71,127
54864,note_on,2,0,2,,,,,,,,0,,,71,127
54864,note_on,2,0,4,,,,,,,,4,,,71,75
54910,note_on,46,0,6,,,,,,,,8,,,47,0
54910,note_on,46,0,1,,,,,,,,11,,,71,0
54910,note_on,46,0,3,,,,,,,,2,,,71,0
54910,note_on,46,0,2,,,,,,,,0,,,71,0
54910,note_on,46,0,5,,,,,,,,6,,,59,0
54910,note_on,46,0,4,,,,,,,,4,,,71,0
54912,note_on,2,0,5,,,,,,,,6,,,60,92
54912,note_on,2,0,6,,,,,,,,8,,,48,92
54912,note_on,2,0,1,,,,,,,,11,,,72,127
54912,note_on,2,0,2,,,,,,,,0,,,72,127
54912,note_on,2,0,3,,,,,,,,2,,,72,127
54912,note_on,2,0,4,,,,,,,,4,,,72,75
55006,note_on,94,0,3,,,,,,,,2,,,72,0
55006,note_on,94,0,1,,,,,,,,11,,,72,0
55006,note_on,94,0,2,,,,,,,,0,,,72,0
55008,note_on,2,0,2,,,,,,,,0,,,79,127
55008,note_on,2,0,1,,,,,,,,11,,,79,127
55008,note_on,2,0,3,,,,,,,,2,,,79,127
55072,note_on,160,0,4,,,,,,,,4,,,72,0
55072,note_on,160,0,5,,,,,,,,6,,,60,0
55072,note_on,160,0,6,,,,,,,,8,,,48,0
55102,note_on,94,0,3,,,,,,,,2,,,79,0
55102,note_on,94,0,2,,,,,,,,0,,,79,0
55102,note_on,94,0,1,,,,,,,,11,,,79,0
55104,note_on,2,0,3,,,,,,,,2,,,72,127
55104,note_on,2,0,2,,,,,,,,0,,,72,127
55104,note_on,32,0,4,,,,,,,,4,,,72,75
55104,note_on,32,0,6,,,,,,,,8,,,48,92
55104,note_on,32,0,5,,,,,,,,6,,,60,92
55104,note_on,2,0,1,,,,,,,,11,,,72,127
55198,note_on,94,0,2,,,,,,,,0,,,72,0
55198,note_on,94,0,5,,,,,,,,6,,,60,0
55198,note_on,94,0,4,,,,,,,,4,,,72,0
55198,note_on,94,0,3,,,,,,,,2,,,72,0
55198,note_on,94,0,1,,,,,,,,11,,,72,0
55198,note_on,94,0,6,,,,,,,,8,,,48,0
55200,note_on,2,0,1,,,,,,,,11,,,71,127
55200,note_on,2,0,2,,,,,,,,0,,,71,127
55200,note_on,2,0,3,,,,,,,,2,,,71,127
55200,note_on,2,0,4,,,,,,,,4,,,71,75
55200,note_on,2,0,6,,,,,,,,8,,,47,92
55200,note_on,2,0,5,,,,,,,,6,,,59,92
55246,note_on,46,0,4,,,,,,,,4,,,71,0
55246,note_on,46,0,3,,,,,,,,2,,,71,0
55246,note_on,46,0,5,,,,,,,,6,,,59,0
55246,note_on,46,0,2,,,,,,,,0,,,71,0
55246,note_on,46,0,6,,,,,,,,8,,,47,0
55246,note_on,46,0,1,,,,,,,,11,,,71,0
55248,note_on,2,0,6,,,,,,,,8,,,45,92
55248,note_on,2,0,3,,,,,,,,2,,,69,127
55248,note_on,2,0,5,,,,,,,,6,,,57,92
55248,note_on,2,0,2,,,,,,,,0,,,69,127
55248,note_on,2,0,4,,,,,,,,4,,,69,75
55248,note_on,2,0,1,,,,,,,,11,,,69,127
55294,note_on,46,0,2,,,,,,,,0,,,69,0
55294,note_on,46,0,1,,,,,,,,11,,,69,0
55294,note_on,46,0,3,,,,,,,,2,,,69,0
55294,note_on,46,0,4,,,,,,,,4,,,69,0
55294,note_on,46,0,6,,,,,,,,8,,,45,0
55294,note_on,46,0,5,,,,,,,,6,,,57,0
55296,note_on,2,0,4,,,,,,,,4,,,71,75
55296,note_on,2,0,3,,,,,,,,2,,,71,127
55296,note_on,2,0,6,,,,,,,,8,,,47,92
55296,note_on,2,0,5,,,,,,,,6,,,59,92
55296,note_on,2,0,1,,,,,,,,11,,,71,127
55296,note_on,2,0,2,,,,,,,,0,,,71,127
55390,note_on,94,0,1,,,,,,,,11,,,71,0
55390,note_on,94,0,2,,,,,,,,0,,,71,0
55390,note_on,94,0,3,,,,,,,,2,,,71,0
55392,note_on,2,0,1,,,,,,,,11,,,79,127
55392,note_on,2,0,3,,,,,,,,2,,,79,127
55392,note_on,2,0,2,,,,,,,,0,,,79,127
55456,note_on,160,0,4,,,,,,,,4,,,71,0
55456,note_on,160,0,6,,,,,,,,8,,,47,0
55456,note_on,160,0,5,,,,,,,,6,,,59,0
55486,note_on,94,0,1,,,,,,,,11,,,79,0
55486,note_on,94,0,3,,,,,,,,2,,,79,0
55486,note_on,94,0,2,,,,,,,,0,,,79,0
55488,note_on,32,0,4,,,,,,,,4,,,71,75
55488,note_on,2,0,1,,,,,,,,11,,,71,127
55488,note_on,2,0,2,,,,,,,,0,,,71,127
55488,note_on,2,0,3,,,,,,,,2,,,71,127
55488,note_on,32,0,5,,,,,,,,6,,,59,92
55488,note_on,32,0,6,,,,,,,,8,,,47,92
55582,note_on,94,0,4,,,,,,,,4,,,71,0
55582,note_on,94,0,6,,,,,,,,8,,,47,0
55582,note_on,94,0,5,,,,,,,,6,,,59,0
55582,note_on,94,0,2,,,,,,,,0,,,71,0
55582,note_on,94,0,1,,,,,,,,11,,,71,0
55582,note_on,94,0,3,,,,,,,,2,,,71,0
55584,note_on,2,0,3,,,,,,,,2,,,69,127
55584,note_on,2,0,4,,,,,,,,4,,,69,75
55584,note_on,2,0,6,,,,,,,,8,,,45,92
55584,note_on,2,0,5,,,,,,,,6,,,57,92
55584,note_on,2,0,2,,,,,,,,0,,,69,127
55584,note_on,2,0,1,,,,,,,,11,,,69,127
55630,note_on,46,0,4,,,,,,,,4,,,69,0
55630,note_on,46,0,2,,,,,,,,0,,,69,0
55630,note_on,46,0,3,,,,,,,,2,,,69,0
55630,note_on,46,0,6,,,,,,,,8,,,45,0
55630,note_on,46,0,1,,,,,,,,11,,,69,0
55630,note_on,46,0,5,,,,,,,,6,,,57,0
55632,note_on,2,0,3,,,,,,,,2,,,67,127
55632,note_on,2,0,4,,,,,,,,4,,,67,75
55632,note_on,2,0,1,,,,,,,,11,,,67,127
55632,note_on,2,0,2,,,,,,,,0,,,67,127
55632,note_on,2,0,5,,,,,,,,6,,,55,92
55632,note_on,2,0,6,,,,,,,,8,,,43,92
55678,note_on,46,0,3,,,,,,,,2,,,67,0
55678,note_on,46,0,5,,,,,,,,6,,,55,0
55678,note_on,46,0,6,,,,,,,,8,,,43,0
55678,note_on,46,0,1,,,,,,,,11,,,67,0
55678,note_on,46,0,2,,,,,,,,0,,,67,0
55678,note_on,46,0,4,,,,,,,,4,,,67,0
55680,note_on,2,0,2,,,,,,,,0,,,69,127
55680,note_on,2,0,5,,,,,,,,6,,,57,92
55680,note_on,2,0,4,,,,,,,,4,,,69,75
55680,note_on,2,0,6,,,,,,,,8,,,45,92
55680,note_on,2,0,3,,,,,,,,2,,,69,127
55680,note_on,2,0,1,,,,,,,,11,,,69,127
55774,note_on,94,0,3,,,,,,,,2,,,69,0
55774,note_on,94,0,2,,,,,,,,0,,,69,0
55774,note_on,94,0,1,,,,,,,,11,,,69,0
55776,note_on,2,0,1,,,,,,,,11,,,79,127
55776,note_on,2,0,3,,,,,,,,2,,,79,127
55776,note_on,2,0,2,,,,,,,,0,,,79,127
55840,note_on,160,0,6,,,,,,,,8,,,45,0
55840,note_on,160,0,5,,,,,,,,6,,,57,0
55840,note_on,160,0,4,,,,,,,,4,,,69,0
55870,note_on,94,0,1,,,,,,,,11,,,79,0
55870,note_on,94,0,2,,,,,,,,0,,,79,0
55870,note_on,94,0,3,,,,,,,,2,,,79,0
55872,note_on,2,0,3,,,,,,,,2,,,69,127
55872,note_on,2,0,1,,,,,,,,11,,,69,127
55872,note_on,32,0,5,,,,,,,,6,,,57,92
55872,note_on,32,0,6,,,,,,,,8,,,45,92
55872,note_on,2,0,2,,,,,,,,0,,,69,127
55872,note_on,32,0,4,,,,,,,,4,,,69,75
55966,note_on,94,0,5,,,,,,,,6,,,57,0
55966,note_on,94,0,2,,,,,,,,0,,,69,0
55966,note_on,94,0,6,,,,,,,,8,,,45,0
55966,note_on,94,0,3,,,,,,,,2,,,69,0
55966,note_on,94,0,1,,,,,,,,11,,,69,0
55966,note_on,94,0,4,,,,,,,,4,,,69,0
55968,note_on,2,0,6,,,,,,,,8,,,43,92
55968,note_on,2,0,2,,,,,,,,0,,,67,127
55968,note_on,2,0,1,,,,,,,,11,,,67,127
55968,note_on,2,0,3,,,,,,,,2,,,67,127
55968,note_on,2,0,5,,,,,,,,6,,,55,92
55968,note_on,2,0,4,,,,,,,,4,,,67,75
56014,note_on,46,0,6,,,,,,,,8,,,43,0
56014,note_on,46,0,2,,,,,,,,0,,,67,0
56014,note_on,46,0,1,,,,,,,,11,,,67,0
56014,note_on,46,0,5,,,,,,,,6,,,55,0
56014,note_on,46,0,3,,,,,,,,2,,,67,0
56014,note_on,46,0,4,,,,,,,,4,,,67,0
56016,note_on,2,0,4,,,,,,,,4,,,65,75
56016,note_on,2,0,2,,,,,,,,0,,,65,127
56016,note_on,2,0,6,,,,,,,,8,,,41,92
56016,note_on,2,0,1,,,,,,,,11,,,65,127
56016,note_on,2,0,5,,,,,,,,6,,,53,92
56016,note_on,2,0,3,,,,,,,,2,,,65,127
56062,note_on,46,0,3,,,,,,,,2,,,65,0
56062,note_on,46,0,4,,,,,,,,4,,,65,0
56062,note_on,46,0,6,,,,,,,,8,,,41,0
56062,note_on,46,0,1,,,,,,,,11,,,65,0
56062,note_on,46,0,5,,,,,,,,6,,,53,0
56062,note_on,46,0,2,,,,,,,,0,,,65,0
56064,note_on,2,0,4,,,,,,,,4,,,67,75
56064,note_on,2,0,3,,,,,,,,2,,,67,127
56064,note_on,2,0,2,,,,,,,,0,,,67,127
56064,note_on,2,0,1,,,,,,,,11,,,67,127
56064,note_on,2,0,5,,,,,,,,6,,,55,92
56064,note_on,2,0,6,,,,,,,,8,,,43,92
56158,note_on,94,0,2,,,,,,,,0,,,67,0
56158,note_on,94,0,3,,,,,,,,2,,,67,0
56158,note_on,94,0,4,,,,,,,,4,,,67,0
56160,note_on,0,0,3,,,,,,,,2,,,71,127
56160,control_change,2,0,3,,,,,,,,2,10,0,,
56160,note_on,0,0,4,,,,,,,,4,,,67,75
56160,control_change,2,0,4,,,,,,,,4,10,0,,
56160,control_change,2,0,2,,,,,,,,0,10,0,,
56160,note_on,0,0,2,,,,,,,,0,,,74,127
56192,note_on,32,0,3,,,,,,,,2,,,71,0
56192,note_on,32,0,4,,,,,,,,4,,,67,0
56192,note_on,32,0,2,,,,,,,,0,,,74,0
56224,note_on,160,0,6,,,,,,,,8,,,43,0
56224,note_on,160,0,5,,,,,,,,6,,,55,0
56256,note_on,64,0,2,,,,,,,,0,,,74,127
56256,note_on,64,0,3,,,,,,,,2,,,71,127
56256,note_on,64,0,4,,,,,,,,4,,,65,75
56288,note_on,32,0,2,,,,,,,,0,,,74,0
56288,note_on,32,0,3,,,,,,,,2,,,71,0
56288,note_on,32,0,4,,,,,,,,4,,,65,0
56320,note_on,256,0,1,,,,,,,,11,,,67,0
56352,note_on,32,0,1,,,,,,,,11,,,79,127
56352,note_on,64,0,4,,,,,,,,4,,,65,75
56352,note_on,64,0,2,,,,,,,,0,,,74,127
56352,note_on,64,0,3,,,,,,,,2,,,71,127
56384,note_on,32,0,3,,,,,,,,2,,,71,0
56384,note_on,32,0,4,,,,,,,,4,,,65,0
56384,note_on,32,0,2,,,,,,,,0,,,74,0
56446,note_on,94,0,1,,,,,,,,11,,,79,0
56448,note_on,64,0,2,,,,,,,,0,,,72,127
56448,note_on,2,0,1,,,,,,,,11,,,79,127
56448,note_on,64,0,3,,,,,,,,2,,,67,127
56448,note_on,64,0,4,,,,,,,,4,,,64,75
56480,note_on,32,0,2,,,,,,,,0,,,72,0
56480,note_on,32,0,4,,,,,,,,4,,,64,0
56480,note_on,32,0,3,,,,,,,,2,,,67,0
56542,note_on,94,0,1,,,,,,,,11,,,79,0
56544,note_on,64,0,4,,,,,,,,4,,,64,75
56544,note_on,64,0,2,,,,,,,,0,,,72,127
56544,note_on,2,0,1,,,,,,,,11,,,72,127
56544,note_on,64,0,3,,,,,,,,2,,,67,127
56576,note_on,32,0,4,,,,,,,,4,,,64,0
56576,note_on,32,0,2,,,,,,,,0,,,72,0
56576,note_on,32,0,3,,,,,,,,2,,,67,0
56638,note_on,94,0,1,,,,,,,,11,,,72,0
56640,note_on,64,0,2,,,,,,,,0,,,72,127
56640,note_on,64,0,4,,,,,,,,4,,,64,75
56640,note_on,2,0,1,,,,,,,,11,,,72,127
56640,note_on,64,0,3,,,,,,,,2,,,67,127
56672,note_on,32,0,2,,,,,,,,0,,,72,0
56672,note_on,32,0,4,,,,,,,,4,,,64,0
56672,note_on,32,0,3,,,,,,,,2,,,67,0
56734,note_on,94,0,1,,,,,,,,11,,,72,0
56736,note_on,64,0,2,,,,,,,,0,,,72,127
56736,note_on,64,0,4,,,,,,,,4,,,64,75
56736,note_on,2,0,1,,,,,,,,11,,,70,127
56736,note_on,64,0,3,,,,,,,,2,,,67,127
56768,note_on,32,0,3,,,,,,,,2,,,67,0
56768,note_on,32,0,2,,,,,,,,0,,,72,0
56768,note_on,32,0,4,,,,,,,,4,,,64,0
56830,note_on,94,0,1,,,,,,,,11,,,70,0
56832,note_on,2,0,1,,,,,,,,11,,,70,127
56832,note_on,64,0,4,,,,,,,,4,,,65,75
56832,note_on,64,0,2,,,,,,,,0,,,72,127
56832,note_on,64,0,3,,,,,,,,2,,,65,127
56864,note_on,32,0,4,,,,,,,,4,,,65,0
56864,note_on,32,0,2,,,,,,,,0,,,72,0
56864,note_on,32,0,3,,,,,,,,2,,,65,0
56878,note_on,46,0,1,,,,,,,,11,,,70,0
56880,note_on,2,0,1,,,,,,,,11,,,74,127
56926,note_on,46,0,1,,,,,,,,11,,,74,0
56928,note_on,2,0,1,,,,,,,,11,,,72,127
56928,note_on,64,0,4,,,,,,,,4,,,65,75
56928,note_on,64,0,2,,,,,,,,0,,,72,127
56928,note_on,64,0,3,,,,,,,,2,,,65,127
56960,note_on,32,0,4,,,,,,,,4,,,65,0
56960,note_on,32,0,2,,,,,,,,0,,,72,0
56960,note_on,32,0,3,,,,,,,,2,,,65,0
56974,note_on,46,0,1,,,,,,,,11,,,72,0
56976,note_on,2,0,1,,,,,,,,11,,,70,127
57022,note_on,46,0,1,,,,,,,,11,,,70,0
57024,note_on,64,0,2,,,,,,,,0,,,72,127
57024,note_on,2,0,1,,,,,,,,11,,,69,127
57024,note_on,64,0,3,,,,,,,,2,,,65,127
57024,note_on,64,0,4,,,,,,,,4,,,65,75
57056,note_on,32,0,3,,,,,,,,2,,,65,0
57056,note_on,32,0,2,,,,,,,,0,,,72,0
57056,note_on,32,0,4,,,,,,,,4,,,65,0
57118,note_on,94,0,1,,,,,,,,11,,,69,0
57120,note_on,64,0,4,,,,,,,,4,,,65,75
57120,note_on,64,0,3,,,,,,,,2,,,65,127
57120,note_on,2,0,1,,,,,,,,11,,,81,127
57120,note_on,64,0,2,,,,,,,,0,,,72,127
57152,note_on,32,0,2,,,,,,,,0,,,72,0
57152,note_on,32,0,4,,,,,,,,4,,,65,0
57152,note_on,32,0,3,,,,,,,,2,,,65,0
57214,note_on,94,0,1,,,,,,,,11,,,81,0
57216,note_on,64,0,4,,,,,,,,4,,,66,75
57216,note_on,2,0,1,,,,,,,,11,,,81,127
57216,note_on,64,0,3,,,,,,,,2,,,69,127
57216,note_on,64,0,2,,,,,,,,0,,,74,127
57248,note_on,32,0,2,,,,,,,,0,,,74,0
57248,note_on,32,0,4,,,,,,,,4,,,66,0
57248,note_on,32,0,3,,,,,,,,2,,,69,0
57310,note_on,94,0,1,,,,,,,,11,,,81,0
57312,note_on,64,0,3,,,,,,,,2,,,69,127
57312,note_on,64,0,2,,,,,,,,0,,,74,127
57312,note_on,64,0,4,,,,,,,,4,,,66,75
57312,note_on,2,0,1,,,,,,,,11,,,74,127
57344,note_on,32,0,2,,,,,,,,0,,,74,0
57344,note_on,32,0,4,,,,,,,,4,,,66,0
57344,note_on,32,0,3,,,,,,,,2,,,69,0
57406,note_on,94,0,1,,,,,,,,11,,,74,0
57408,note_on,64,0,4,,,,,,,,4,,,66,75
57408,note_on,64,0,2,,,,,,,,0,,,74,127
57408,note_on,2,0,1,,,,,,,,11,,,74,127
57408,note_on,64,0,3,,,,,,,,2,,,69,127
57440,note_on,32,0,4,,,,,,,,4,,,66,0
57440,note_on,32,0,3,,,,,,,,2,,,69,0
57440,note_on,32,0,2,,,,,,,,0,,,74,0
57502,note_on,94,0,1,,,,,,,,11,,,74,0
57504,note_on,2,0,1,,,,,,,,11,,,72,127
57504,note_on,64,0,2,,,,,,,,0,,,74,127
57504,note_on,64,0,3,,,,,,,,2,,,69,127
57504,note_on,64,0,4,,,,,,,,4,,,66,75
57536,note_on,32,0,3,,,,,,,,2,,,69,0
57536,note_on,32,0,2,,,,,,,,0,,,74,0
57536,note_on,32,0,4,,,,,,,,4,,,66,0
57598,note_on,94,0,1,,,,,,,,11,,,72,0
57600,note_on,64,0,4,,,,,,,,4,,,67,75
57600,note_on,2,0,1,,,,,,,,11,,,72,127
57600,note_on,64,0,3,,,,,,,,2,,,67,127
57600,note_on,64,0,2,,,,,,,,0,,,74,127
57632,note_on,32,0,3,,,,,,,,2,,,67,0
57632,note_on,32,0,2,,,,,,,,0,,,74,0
57632,note_on,32,0,4,,,,,,,,4,,,67,0
57646,note_on,46,0,1,,,,,,,,11,,,72,0
57648,note_on,2,0,1,,,,,,,,11,,,76,127
57694,note_on,46,0,1,,,,,,,,11,,,76,0
57696,note_on,2,0,1,,,,,,,,11,,,74,127
57696,note_on,64,0,4,,,,,,,,4,,,67,75
57696,note_on,64,0,2,,,,,,,,0,,,74,127
57696,note_on,64,0,3,,,,,,,,2,,,67,127
57728,note_on,32,0,2,,,,,,,,0,,,74,0
57728,note_on,32,0,3,,,,,,,,2,,,67,0
57728,note_on,32,0,4,,,,,,,,4,,,67,0
57742,note_on,46,0,1,,,,,,,,11,,,74,0
57744,note_on,2,0,1,,,,,,,,11,,,72,127
57790,note_on,46,0,1,,,,,,,,11,,,72,0
57792,note_on,64,0,3,,,,,,,,2,,,67,127
57792,note_on,64,0,4,,,,,,,,4,,,67,75
57792,note_on,64,0,2,,,,,,,,0,,,74,127
57792,note_on,2,0,1,,,,,,,,11,,,71,127
57824,note_on,32,0,3,,,,,,,,2,,,67,0
57824,note_on,32,0,4,,,,,,,,4,,,67,0
57824,note_on,32,0,2,,,,,,,,0,,,74,0
57886,note_on,94,0,1,,,,,,,,11,,,71,0
57888,note_on,2,0,1,,,,,,,,11,,,74,127
57888,note_on,64,0,3,,,,,,,,2,,,67,127
57888,note_on,64,0,4,,,,,,,,4,,,67,75
57888,note_on,64,0,2,,,,,,,,0,,,74,127
57920,note_on,32,0,3,,,,,,,,2,,,67,0
57920,note_on,32,0,4,,,,,,,,4,,,67,0
57920,note_on,32,0,2,,,,,,,,0,,,74,0
57982,note_on,94,0,1,,,,,,,,11,,,74,0
57984,note_on,64,0,3,,,,,,,,2,,,72,127
57984,note_on,64,0,2,,,,,,,,0,,,76,127
57984,note_on,2,0,1,,,,,,,,11,,,76,127
57984,note_on,64,0,4,,,,,,,,4,,,55,75
58014,note_on,30,0,1,,,,,,,,11,,,76,0
58016,note_on,32,0,2,,,,,,,,0,,,76,0
58016,note_on,32,0,4,,,,,,,,4,,,55,0
58016,note_on,2,0,1,,,,,,,,11,,,79,127
58016,note_on,32,0,3,,,,,,,,2,,,72,0
58046,note_on,30,0,1,,,,,,,,11,,,79,0
58048,note_on,2,0,1,,,,,,,,11,,,77,127
58078,note_on,30,0,1,,,,,,,,11,,,77,0
58080,note_on,64,0,2,,,,,,,,0,,,76,127
58080,note_on,64,0,4,,,,,,,,4,,,55,75
58080,note_on,64,0,3,,,,,,,,2,,,72,127
58080,note_on,2,0,1,,,,,,,,11,,,76,127
58110,note_on,30,0,1,,,,,,,,11,,,76,0
58112,note_on,32,0,2,,,,,,,,0,,,76,0
58112,note_on,32,0,4,,,,,,,,4,,,55,0
58112,note_on,2,0,1,,,,,,,,11,,,74,127
58112,note_on,32,0,3,,,,,,,,2,,,72,0
58142,note_on,30,0,1,,,,,,,,11,,,74,0
58144,note_on,2,0,1,,,,,,,,11,,,72,127
58174,note_on,30,0,1,,,,,,,,11,,,72,0
58176,note_on,64,0,2,,,,,,,,0,,,76,127
58176,note_on,64,0,3,,,,,,,,2,,,72,127
58176,note_on,2,0,1,,,,,,,,11,,,76,127
58176,note_on,64,0,4,,,,,,,,4,,,55,75
58206,note_on,30,0,1,,,,,,,,11,,,76,0
58208,note_on,32,0,4,,,,,,,,4,,,55,0
58208,note_on,2,0,1,,,,,,,,11,,,79,127
58208,note_on,32,0,2,,,,,,,,0,,,76,0
58208,note_on,32,0,3,,,,,,,,2,,,72,0
58238,note_on,30,0,1,,,,,,,,11,,,79,0
58240,note_on,2,0,1,,,,,,,,11,,,77,127
58270,note_on,30,0,1,,,,,,,,11,,,77,0
58272,note_on,64,0,2,,,,,,,,0,,,76,127
58272,note_on,64,0,3,,,,,,,,2,,,72,127
58272,note_on,2,0,1,,,,,,,,11,,,76,127
58272,note_on,64,0,4,,,,,,,,4,,,55,75
58302,note_on,30,0,1,,,,,,,,11,,,76,0
58304,note_on,32,0,2,,,,,,,,0,,,76,0
58304,note_on,32,0,4,,,,,,,,4,,,55,0
58304,note_on,32,0,3,,,,,,,,2,,,72,0
58304,note_on,2,0,1,,,,,,,,11,,,74,127
58334,note_on,30,0,1,,,,,,,,11,,,74,0
58336,note_on,2,0,1,,,,,,,,11,,,72,127
58366,note_on,30,0,1,,,,,,,,11,,,72,0
58368,note_on,2,0,1,,,,,,,,11,,,74,127
58368,note_on,64,0,2,,,,,,,,0,,,74,127
58368,note_on,64,0,4,,,,,,,,4,,,55,75
58368,note_on,64,0,3,,,,,,,,2,,,71,127
58398,note_on,30,0,1,,,,,,,,11,,,74,0
58400,note_on,2,0,1,,,,,,,,11,,,77,127
58400,note_on,32,0,4,,,,,,,,4,,,55,0
58400,note_on,32,0,2,,,,,,,,0,,,74,0
58400,note_on,32,0,3,,,,,,,,2,,,71,0
58430,note_on,30,0,1,,,,,,,,11,,,77,0
58432,note_on,2,0,1,,,,,,,,11,,,76,127
58462,note_on,30,0,1,,,,,,,,11,,,76,0
58464,note_on,64,0,2,,,,,,,,0,,,74,127
58464,note_on,64,0,4,,,,,,,,4,,,55,75
58464,note_on,64,0,3,,,,,,,,2,,,71,127
58464,note_on,2,0,1,,,,,,,,11,,,74,127
58494,note_on,30,0,1,,,,,,,,11,,,74,0
58496,note_on,32,0,4,,,,,,,,4,,,55,0
58496,note_on,32,0,3,,,,,,,,2,,,71,0
58496,note_on,32,0,2,,,,,,,,0,,,74,0
58496,note_on,2,0,1,,,,,,,,11,,,72,127
58526,note_on,30,0,1,,,,,,,,11,,,72,0
58528,note_on,2,0,1,,,,,,,,11,,,71,127
58558,note_on,30,0,1,,,,,,,,11,,,71,0
58560,note_on,64,0,4,,,,,,,,4,,,55,75
58560,note_on,64,0,3,,,,,,,,2,,,71,127
58560,note_on,2,0,1,,,,,,,,11,,,74,127
58560,note_on,64,0,2,,,,,,,,0,,,74,127
58590,note_on,30,0,1,,,,,,,,11,,,74,0
58592,note_on,32,0,2,,,,,,,,0,,,74,0
58592,note_on,32,0,4,,,,,,,,4,,,55,0
58592,note_on,32,0,3,,,,,,,,2,,,71,0
58592,note_on,2,0,1,,,,,,,,11,,,77,127
58622,note_on,30,0,1,,,,,,,,11,,,77,0
58624,note_on,2,0,1,,,,,,,,11,,,76,127
58654,note_on,30,0,1,,,,,,,,11,,,76,0
58656,note_on,2,0,1,,,,,,,,11,,,74,127
58656,note_on,64,0,2,,,,,,,,0,,,74,127
58656,note_on,64,0,4,,,,,,,,4,,,55,75
58656,note_on,64,0,3,,,,,,,,2,,,71,127
58686,note_on,30,0,1,,,,,,,,11,,,74,0
58688,note_on,2,0,1,,,,,,,,11,,,72,127
58688,note_on,32,0,2,,,,,,,,0,,,74,0
58688,note_on,32,0,4,,,,,,,,4,,,55,0
58688,note_on,32,0,3,,,,,,,,2,,,71,0
58718,note_on,30,0,1,,,,,,,,11,,,72,0
58720,note_on,2,0,1,,,,,,,,11,,,71,127
58750,note_on,30,0,1,,,,,,,,11,,,71,0
58752,note_on,64,0,2,,,,,,,,0,,,76,127
58752,note_on,64,0,4,,,,,,,,4,,,55,75
58752,note_on,2,0,1,,,,,,,,11,,,72,127
58752,note_on,64,0,3,,,,,,,,2,,,72,127
58782,note_on,30,0,1,,,,,,,,11,,,72,0
58784,note_on,32,0,2,,,,,,,,0,,,76,0
58784,note_on,2,0,1,,,,,,,,11,,,76,127
58784,note_on,32,0,4,,,,,,,,4,,,55,0
58784,note_on,32,0,3,,,,,,,,2,,,72,0
58814,note_on,30,0,1,,,,,,,,11,,,76,0
58816,note_on,2,0,1,,,,,,,,11,,,74,127
58846,note_on,30,0,1,,,,,,,,11,,,74,0
58848,note_on,2,0,1,,,,,,,,11,,,72,127
58848,note_on,64,0,3,,,,,,,,2,,,72,127
58848,note_on,64,0,2,,,,,,,,0,,,76,127
58848,note_on,64,0,4,,,,,,,,4,,,55,75
58878,note_on,30,0,1,,,,,,,,11,,,72,0
58880,note_on,2,0,1,,,,,,,,11,,,71,127
58880,note_on,32,0,3,,,,,,,,2,,,72,0
58880,note_on,32,0,2,,,,,,,,0,,,76,0
58880,note_on,32,0,4,,,,,,,,4,,,55,0
58910,note_on,30,0,1,,,,,,,,11,,,71,0
58912,note_on,2,0,1,,,,,,,,11,,,69,127
58942,note_on,30,0,1,,,,,,,,11,,,69,0
58944,note_on,2,0,1,,,,,,,,11,,,72,127
58944,note_on,64,0,2,,,,,,,,0,,,76,127
58944,note_on,64,0,4,,,,,,,,4,,,55,75
58944,note_on,64,0,3,,,,,,,,2,,,72,127
58974,note_on,30,0,1,,,,,,,,11,,,72,0
58976,note_on,32,0,2,,,,,,,,0,,,76,0
58976,note_on,2,0,1,,,,,,,,11,,,76,127
58976,note_on,32,0,3,,,,,,,,2,,,72,0
58976,note_on,32,0,4,,,,,,,,4,,,55,0
59006,note_on,30,0,1,,,,,,,,11,,,76,0
59008,note_on,2,0,1,,,,,,,,11,,,74,127
59038,note_on,30,0,1,,,,,,,,11,,,74,0
59040,note_on,2,0,1,,,,,,,,11,,,72,127
59040,note_on,64,0,3,,,,,,,,2,,,72,127
59040,note_on,64,0,2,,,,,,,,0,,,76,127
59040,note_on,64,0,4,,,,,,,,4,,,55,75
59070,note_on,30,0,1,,,,,,,,11,,,72,0
59072,note_on,2,0,1,,,,,,,,11,,,71,127
59072,note_on,32,0,2,,,,,,,,0,,,76,0
59072,note_on,32,0,3,,,,,,,,2,,,72,0
59072,note_on,32,0,4,,,,,,,,4,,,55,0
59102,note_on,30,0,1,,,,,,,,11,,,71,0
59104,note_on,2,0,1,,,,,,,,11,,,69,127
59134,note_on,30,0,1,,,,,,,,11,,,69,0
59136,note_on,64,0,2,,,,,,,,0,,,74,92
59136,note_on,64,0,3,,,,,,,,2,,,71,92
59136,note_on,2912,0,5,,,,,,,,6,,,43,92
59136,control_change,64,0,4,,,,,,,,4,10,64,,
59136,note_on,0,0,4,,,,,,,,4,,,55,92
59136,note_on,2912,0,6,,,,,,,,8,,,31,92
59136,note_on,2,0,1,,,,,,,,11,,,71,127
59182,note_on,46,0,1,,,,,,,,11,,,71,0
59184,note_on,2,0,1,,,,,,,,11,,,69,127
59230,note_on,46,0,1,,,,,,,,11,,,69,0
59232,note_on,2,0,1,,,,,,,,11,,,71,127
59278,note_on,46,0,1,,,,,,,,11,,,71,0
59280,note_on,2,0,1,,,,,,,,11,,,72,127
59326,note_on,46,0,1,,,,,,,,11,,,72,0
59328,note_on,2,0,1,,,,,,,,11,,,74,127
59374,note_on,46,0,1,,,,,,,,11,,,74,0
59376,note_on,2,0,1,,,,,,,,11,,,72,127
59392,note_on,256,0,2,,,,,,,,0,,,74,0
59392,note_on,256,0,6,,,,,,,,8,,,31,0
59392,note_on,256,0,3,,,,,,,,2,,,71,0
59392,note_on,256,0,5,,,,,,,,6,,,43,0
59392,note_on,256,0,4,,,,,,,,4,,,55,0
59422,note_on,46,0,1,,,,,,,,11,,,72,0
59424,note_on,32,0,6,,,,,,,,8,,,43,92
59424,note_on,32,0,5,,,,,,,,6,,,55,92
59424,note_on,32,0,2,,,,,,,,0,,,67,92
59424,note_on,2,0,1,,,,,,,,11,,,74,127
59424,note_on,32,0,3,,,,,,,,2,,,67,92
59424,note_on,32,0,4,,,,,,,,4,,,67,92
59470,note_on,46,0,1,,,,,,,,11,,,74,0
59472,note_on,2,0,1,,,,,,,,11,,,76,127
59518,note_on,94,0,3,,,,,,,,2,,,67,0
59518,note_on,94,0,2,,,,,,,,0,,,67,0
59518,note_on,94,0,4,,,,,,,,4,,,67,0
59518,note_on,94,0,6,,,,,,,,8,,,43,0
59518,note_on,46,0,1,,,,,,,,11,,,76,0
59518,note_on,94,0,5,,,,,,,,6,,,55,0
59520,note_on,2,0,3,,,,,,,,2,,,55,92
59520,note_on,2,0,2,,,,,,,,0,,,55,92
59520,note_on,2,0,6,,,,,,,,8,,,31,92
59520,note_on,2,0,4,,,,,,,,4,,,55,92
59520,note_on,2,0,1,,,,,,,,11,,,77,127
59520,note_on,2,0,5,,,,,,,,6,,,43,92
59614,note_on,94,0,5,,,,,,,,6,,,43,0
59614,note_on,94,0,3,,,,,,,,2,,,55,0
59614,note_on,94,0,4,,,,,,,,4,,,55,0
59614,note_on,94,0,2,,,,,,,,0,,,55,0
59614,note_on,94,0,6,,,,,,,,8,,,31,0
59616,note_on,2,0,6,,,,,,,,8,,,43,92
59616,note_on,2,0,2,,,,,,,,0,,,67,92
59616,note_on,2,0,4,,,,,,,,4,,,67,92
59616,note_on,2,0,5,,,,,,,,6,,,55,92
59616,note_on,2,0,3,,,,,,,,2,,,67,92
59710,note_on,94,0,2,,,,,,,,0,,,67,0
59710,note_on,94,0,3,,,,,,,,2,,,67,0
59710,note_on,94,0,5,,,,,,,,6,,,55,0
59710,note_on,94,0,6,,,,,,,,8,,,43,0
59710,note_on,94,0,4,,,,,,,,4,,,67,0
59712,note_on,2,0,5,,,,,,,,6,,,43,92
59712,note_on,2,0,6,,,,,,,,8,,,31,92
59712,note_on,2,0,4,,,,,,,,4,,,55,92
59712,note_on,2,0,3,,,,,,,,2,,,55,92
59712,note_on,2,0,2,,,,,,,,0,,,55,92
59806,note_on,94,0,5,,,,,,,,6,,,43,0
59806,note_on,94,0,6,,,,,,,,8,,,31,0
59806,note_on,94,0,3,,,,,,,,2,,,55,0
59806,note_on,94,0,2,,,,,,,,0,,,55,0
59806,note_on,94,0,4,,,,,,,,4,,,55,0
59808,note_on,2,0,4,,,,,,,,4,,,67,92
59808,note_on,2,0,5,,,,,,,,6,,,55,92
59808,note_on,2,0,6,,,,,,,,8,,,43,92
59808,note_on,2,0,2,,,,,,,,0,,,67,92
59808,note_on,2,0,3,,,,,,,,2,,,67,92
59856,note_on,336,0,1,,,,,,,,11,,,77,0
59902,note_on,94,0,4,,,,,,,,4,,,67,0
59902,note_on,94,0,5,,,,,,,,6,,,55,0
59902,note_on,94,0,6,,,,,,,,8,,,43,0
59902,note_on,94,0,3,,,,,,,,2,,,67,0
59902,note_on,94,0,2,,,,,,,,0,,,67,0
59904,note_on,2,0,4,,,,,,,,4,,,55,92
59904,note_on,2,0,2,,,,,,,,0,,,55,92
59904,note_on,48,0,1,,,,,,,,11,,,71,127
59904,note_on,2,0,5,,,,,,,,6,,,43,92
59904,note_on,2,0,6,,,,,,,,8,,,31,92
59904,note_on,2,0,3,,,,,,,,2,,,55,92
59950,note_on,46,0,1,,,,,,,,11,,,71,0
59952,note_on,2,0,1,,,,,,,,11,,,69,127
59998,note_on,46,0,1,,,,,,,,11,,,69,0
60000,note_on,2,0,1,,,,,,,,11,,,71,127
60046,note_on,46,0,1,,,,,,,,11,,,71,0
60048,note_on,2,0,1,,,,,,,,11,,,72,127
60094,note_on,46,0,1,,,,,,,,11,,,72,0
60096,note_on,2,0,1,,,,,,,,11,,,74,127
60142,note_on,46,0,1,,,,,,,,11,,,74,0
60144,note_on,2,0,1,,,,,,,,11,,,72,127
60160,note_on,256,0,2,,,,,,,,0,,,55,0
60160,note_on,256,0,4,,,,,,,,4,,,55,0
60160,note_on,256,0,6,,,,,,,,8,,,31,0
60160,note_on,256,0,5,,,,,,,,6,,,43,0
60160,note_on,256,0,3,,,,,,,,2,,,55,0
60190,note_on,46,0,1,,,,,,,,11,,,72,0
60192,note_on,2,0,1,,,,,,,,11,,,74,127
60192,note_on,32,0,2,,,,,,,,0,,,67,92
60192,note_on,32,0,3,,,,,,,,2,,,67,92
60192,note_on,32,0,4,,,,,,,,4,,,67,92
60192,note_on,32,0,5,,,,,,,,6,,,55,92
60192,note_on,32,0,6,,,,,,,,8,,,43,92
60238,note_on,46,0,1,,,,,,,,11,,,74,0
60240,note_on,2,0,1,,,,,,,,11,,,76,127
60286,note_on,94,0,4,,,,,,,,4,,,67,0
60286,note_on,46,0,1,,,,,,,,11,,,76,0
60286,note_on,94,0,6,,,,,,,,8,,,43,0
60286,note_on,94,0,2,,,,,,,,0,,,67,0
60286,note_on,94,0,3,,,,,,,,2,,,67,0
60286,note_on,94,0,5,,,,,,,,6,,,55,0
60288,note_on,2,0,5,,,,,,,,6,,,43,92
60288,note_on,2,0,2,,,,,,,,0,,,55,92
60288,note_on,2,0,4,,,,,,,,4,,,55,92
60288,note_on,2,0,3,,,,,,,,2,,,55,92
60288,note_on,2,0,1,,,,,,,,11,,,77,127
60288,note_on,2,0,6,,,,,,,,8,,,31,92
60382,note_on,94,0,3,,,,,,,,2,,,55,0
60382,note_on,94,0,4,,,,,,,,4,,,55,0
60382,note_on,94,0,6,,,,,,,,8,,,31,0
60382,note_on,94,0,5,,,,,,,,6,,,43,0
60382,note_on,94,0,2,,,,,,,,0,,,55,0
60384,note_on,2,0,6,,,,,,,,8,,,43,92
60384,note_on,2,0,3,,,,,,,,2,,,67,92
60384,note_on,2,0,2,,,,,,,,0,,,67,92
60384,note_on,2,0,4,,,,,,,,4,,,67,92
60384,note_on,2,0,5,,,,,,,,6,,,55,92
60478,note_on,94,0,3,,,,,,,,2,,,67,0
60478,note_on,94,0,6,,,,,,,,8,,,43,0
60478,note_on,94,0,2,,,,,,,,0,,,67,0
60478,note_on,94,0,5,,,,,,,,6,,,55,0
60478,note_on,94,0,4,,,,,,,,4,,,67,0
60480,note_on,2,0,2,,,,,,,,0,,,55,92
60480,note_on,2,0,5,,,,,,,,6,,,43,92
60480,note_on,2,0,4,,,,,,,,4,,,55,92
60480,note_on,2,0,6,,,,,,,,8,,,31,92
60480,note_on,2,0,3,,,,,,,,2,,,55,92
60574,note_on,94,0,6,,,,,,,,8,,,31,0
60574,note_on,94,0,4,,,,,,,,4,,,55,0
60574,note_on,94,0,5,,,,,,,,6,,,43,0
60574,note_on,94,0,2,,,,,,,,0,,,55,0
60574,note_on,94,0,3,,,,,,,,2,,,55,0
60576,note_on,2,0,3,,,,,,,,2,,,67,92
60576,note_on,2,0,4,,,,,,,,4,,,67,92
60576,note_on,2,0,2,,,,,,,,0,,,67,92
60576,note_on,2,0,5,,,,,,,,6,,,55,92
60576,note_on,2,0,6,,,,,,,,8,,,43,92
60624,note_on,336,0,1,,,,,,,,11,,,77,0
60670,note_on,94,0,5,,,,,,,,6,,,55,0
60670,note_on,94,0,2,,,,,,,,0,,,67,0
60670,note_on,94,0,6,,,,,,,,8,,,43,0
60670,note_on,94,0,4,,,,,,,,4,,,67,0
60670,note_on,94,0,3,,,,,,,,2,,,67,0
60672,note_on,2,0,2,,,,,,,,0,,,55,92
60672,note_on,48,0,1,,,,,,,,11,,,77,127
60672,note_on,2,0,6,,,,,,,,8,,,31,92
60672,note_on,2,0,4,,,,,,,,4,,,55,92
60672,note_on,2,0,5,,,,,,,,6,,,43,92
60672,note_on,2,0,3,,,,,,,,2,,,55,92
60718,note_on,46,0,1,,,,,,,,11,,,77,0
60720,note_on,2,0,1,,,,,,,,11,,,76,127
60766,note_on,46,0,1,,,,,,,,11,,,76,0
60768,note_on,2,0,1,,,,,,,,11,,,77,127
60814,note_on,46,0,1,,,,,,,,11,,,77,0
60816,note_on,2,0,1,,,,,,,,11,,,79,127
60862,note_on,46,0,1,,,,,,,,11,,,79,0
60864,note_on,2,0,1,,,,,,,,11,,,81,127
60910,note_on,46,0,1,,,,,,,,11,,,81,0
60912,note_on,2,0,1,,,,,,,,11,,,79,127
60958,note_on,46,0,1,,,,,,,,11,,,79,0
60960,note_on,2,0,1,,,,,,,,11,,,81,127
61006,note_on,46,0,1,,,,,,,,11,,,81,0
61008,note_on,336,0,5,,,,,,,,6,,,43,0
61008,note_on,2,0,1,,,,,,,,11,,,83,127
61008,note_on,336,0,2,,,,,,,,0,,,55,0
61008,note_on,336,0,4,,,,,,,,4,,,55,0
61008,note_on,336,0,6,,,,,,,,8,,,31,0
61008,note_on,336,0,3,,,,,,,,2,,,55,0
61054,note_on,46,0,1,,,,,,,,11,,,83,0
61056,note_on,2,0,1,,,,,,,,11,,,84,127
61150,note_on,94,0,1,,,,,,,,11,,,84,0
61152,note_on,2,0,1,,,,,,,,11,,,72,127
61246,note_on,94,0,1,,,,,,,,11,,,72,0
61248,note_on,2,0,1,,,,,,,,11,,,76,127
61294,note_on,46,0,1,,,,,,,,11,,,76,0
61296,note_on,2,0,1,,,,,,,,11,,,74,127
61318,note_on,22,0,1,,,,,,,,11,,,74,0
61320,note_on,2,0,1,,,,,,,,11,,,76,127
61342,note_on,22,0,1,,,,,,,,11,,,76,0
61344,note_on,2,0,1,,,,,,,,11,,,74,127
61366,note_on,22,0,1,,,,,,,,11,,,74,0
61368,note_on,2,0,1,,,,,,,,11,,,76,127
61390,note_on,22,0,1,,,,,,,,11,,,76,0
61392,note_on,2,0,1,,,,,,,,11,,,74,127
61438,note_on,46,0,1,,,,,,,,11,,,74,0
61440,note_on,2,0,1,,,,,,,,11,,,72,127
61440,note_on,432,0,3,,,,,,,,2,,,72,127
61440,note_on,0,0,2,,,,,,,,0,,,72,127
61440,control_change,432,0,2,,,,,,,,0,10,127,,
61440,note_on,432,0,4,,,,,,,,4,,,60,92
61440,note_on,432,0,6,,,,,,,,8,,,36,92
61440,note_on,432,0,5,,,,,,,,6,,,48,92
61534,note_on,94,0,3,,,,,,,,2,,,72,0
61534,note_on,94,0,1,,,,,,,,11,,,72,0
61534,note_on,94,0,2,,,,,,,,0,,,72,0
61536,note_on,2,0,2,,,,,,,,0,,,79,127
61536,note_on,2,0,1,,,,,,,,11,,,79,127
61536,note_on,2,0,3,,,,,,,,2,,,79,127
61600,note_on,160,0,5,,,,,,,,6,,,48,0
61600,note_on,160,0,4,,,,,,,,4,,,60,0
61600,note_on,160,0,6,,,,,,,,8,,,36,0
61630,note_on,94,0,1,,,,,,,,11,,,79,0
61630,note_on,94,0,3,,,,,,,,2,,,79,0
61630,note_on,94,0,2,,,,,,,,0,,,79,0
61632,note_on,32,0,6,,,,,,,,8,,,52,92
61632,note_on,2,0,1,,,,,,,,11,,,76,127
61632,note_on,32,0,5,,,,,,,,6,,,64,92
61632,note_on,32,0,4,,,,,,,,4,,,76,92
61632,note_on,2,0,2,,,,,,,,0,,,76,127
61632,note_on,2,0,3,,,,,,,,2,,,76,127
61726,note_on,94,0,3,,,,,,,,2,,,76,0
61726,note_on,94,0,6,,,,,,,,8,,,52,0
61726,note_on,94,0,5,,,,,,,,6,,,64,0
61726,note_on,94,0,1,,,,,,,,11,,,76,0
61726,note_on,94,0,4,,,,,,,,4,,,76,0
61726,note_on,94,0,2,,,,,,,,0,,,76,0
61728,note_on,2,0,3,,,,,,,,2,,,74,127
61728,note_on,2,0,6,,,,,,,,8,,,50,92
61728,note_on,2,0,5,,,,,,,,6,,,62,92
61728,note_on,2,0,2,,,,,,,,0,,,74,127
61728,note_on,2,0,1,,,,,,,,11,,,74,127
61728,note_on,2,0,4,,,,,,,,4,,,74,92
61774,note_on,46,0,1,,,,,,,,11,,,74,0
61774,note_on,46,0,5,,,,,,,,6,,,62,0
61774,note_on,46,0,2,,,,,,,,0,,,74,0
61774,note_on,46,0,6,,,,,,,,8,,,50,0
61774,note_on,46,0,3,,,,,,,,2,,,74,0
61774,note_on,46,0,4,,,,,,,,4,,,74,0
61776,note_on,2,0,5,,,,,,,,6,,,60,92
61776,note_on,2,0,3,,,,,,,,2,,,72,127
61776,note_on,2,0,4,,,,,,,,4,,,72,92
61776,note_on,2,0,2,,,,,,,,0,,,72,127
61776,note_on,2,0,1,,,,,,,,11,,,72,127
61776,note_on,2,0,6,,,,,,,,8,,,48,92
61822,note_on,46,0,6,,,,,,,,8,,,48,0
61822,note_on,46,0,4,,,,,,,,4,,,72,0
61822,note_on,46,0,2,,,,,,,,0,,,72,0
61822,note_on,46,0,3,,,,,,,,2,,,72,0
61822,note_on,46,0,1,,,,,,,,11,,,72,0
61822,note_on,46,0,5,,,,,,,,6,,,60,0
61824,note_on,2,0,4,,,,,,,,4,,,74,92
61824,note_on,2,0,5,,,,,,,,6,,,62,92
61824,note_on,2,0,6,,,,,,,,8,,,50,92
61824,note_on,2,0,2,,,,,,,,0,,,74,127
61824,note_on,2,0,3,,,,,,,,2,,,74,127
61824,note_on,2,0,1,,,,,,,,11,,,74,127
61918,note_on,94,0,1,,,,,,,,11,,,74,0
61918,note_on,94,0,2,,,,,,,,0,,,74,0
61918,note_on,94,0,3,,,,,,,,2,,,74,0
61920,note_on,2,0,1,,,,,,,,11,,,79,127
61920,note_on,2,0,2,,,,,,,,0,,,79,127
61920,note_on,2,0,3,,,,,,,,2,,,79,127
61984,note_on,160,0,5,,,,,,,,6,,,62,0
61984,note_on,160,0,6,,,,,,,,8,,,50,0
61984,note_on,160,0,4,,,,,,,,4,,,74,0
62014,note_on,94,0,3,,,,,,,,2,,,79,0
62014,note_on,94,0,2,,,,,,,,0,,,79,0
62014,note_on,94,0,1,,,,,,,,11,,,79,0
62016,note_on,32,0,5,,,,,,,,6,,,62,92
62016,note_on,2,0,1,,,,,,,,11,,,74,127
62016,note_on,2,0,2,,,,,,,,0,,,74,127
62016,note_on,32,0,4,,,,,,,,4,,,74,92
62016,note_on,32,0,6,,,,,,,,8,,,50,92
62016,note_on,2,0,3,,,,,,,,2,,,74,127
62110,note_on,94,0,1,,,,,,,,11,,,74,0
62110,note_on,94,0,2,,,,,,,,0,,,74,0
62110,note_on,94,0,3,,,,,,,,2,,,74,0
62110,note_on,94,0,4,,,,,,,,4,,,74,0
62110,note_on,94,0,5,,,,,,,,6,,,62,0
62110,note_on,94,0,6,,,,,,,,8,,,50,0
62112,note_on,2,0,4,,,,,,,,4,,,72,92
62112,note_on,2,0,3,,,,,,,,2,,,72,127
62112,note_on,2,0,5,,,,,,,,6,,,60,92
62112,note_on,2,0,6,,,,,,,,8,,,48,92
62112,note_on,2,0,1,,,,,,,,11,,,72,127
62112,note_on,2,0,2,,,,,,,,0,,,72,127
62158,note_on,46,0,2,,,,,,,,0,,,72,0
62158,note_on,46,0,1,,,,,,,,11,,,72,0
62158,note_on,46,0,6,,,,,,,,8,,,48,0
62158,note_on,46,0,5,,,,,,,,6,,,60,0
62158,note_on,46,0,4,,,,,,,,4,,,72,0
62158,note_on,46,0,3,,,,,,,,2,,,72,0
62160,note_on,2,0,6,,,,,,,,8,,,47,92
62160,note_on,2,0,5,,,,,,,,6,,,59,92
62160,note_on,2,0,1,,,,,,,,11,,,71,127
62160,note_on,2,0,4,,,,,,,,4,,,71,92
62160,note_on,2,0,2,,,,,,,,0,,,71,127
62160,note_on,2,0,3,,,,,,,,2,,,71,127
62206,note_on,46,0,6,,,,,,,,8,,,47,0
62206,note_on,46,0,2,,,,,,,,0,,,71,0
62206,note_on,46,0,4,,,,,,,,4,,,71,0
62206,note_on,46,0,3,,,,,,,,2,,,71,0
62206,note_on,46,0,1,,,,,,,,11,,,71,0
62206,note_on,46,0,5,,,,,,,,6,,,59,0
62208,note_on,2,0,1,,,,,,,,11,,,72,127
62208,note_on,2,0,2,,,,,,,,0,,,72,127
62208,note_on,2,0,5,,,,,,,,6,,,60,92
62208,note_on,2,0,4,,,,,,,,4,,,72,92
62208,note_on,2,0,6,,,,,,,,8,,,48,92
62208,note_on,2,0,3,,,,,,,,2,,,72,127
62302,note_on,94,0,3,,,,,,,,2,,,72,0
62302,note_on,94,0,2,,,,,,,,0,,,72,0
62302,note_on,94,0,1,,,,,,,,11,,,72,0
62304,note_on,2,0,3,,,,,,,,2,,,79,127
62304,note_on,2,0,2,,,,,,,,0,,,79,127
62304,note_on,2,0,1,,,,,,,,11,,,79,127
62368,note_on,160,0,4,,,,,,,,4,,,72,0
62368,note_on,160,0,5,,,,,,,,6,,,60,0
62368,note_on,160,0,6,,,,,,,,8,,,48,0
62398,note_on,94,0,2,,,,,,,,0,,,79,0
62398,note_on,94,0,1,,,,,,,,11,,,79,0
62398,note_on,94,0,3,,,,,,,,2,,,79,0
62400,note_on,2,0,2,,,,,,,,0,,,72,127
62400,note_on,32,0,6,,,,,,,,8,,,48,92
62400,note_on,2,0,3,,,,,,,,2,,,72,127
62400,note_on,32,0,5,,,,,,,,6,,,60,92
62400,note_on,32,0,4,,,,,,,,4,,,72,92
62400,note_on,2,0,1,,,,,,,,11,,,72,127
62494,note_on,94,0,1,,,,,,,,11,,,72,0
62494,note_on,94,0,5,,,,,,,,6,,,60,0
62494,note_on,94,0,6,,,,,,,,8,,,48,0
62494,note_on,94,0,2,,,,,,,,0,,,72,0
62494,note_on,94,0,4,,,,,,,,4,,,72,0
62494,note_on,94,0,3,,,,,,,,2,,,72,0
62496,note_on,2,0,5,,,,,,,,6,,,59,92
62496,note_on,2,0,6,,,,,,,,8,,,47,92
62496,note_on,2,0,1,,,,,,,,11,,,71,127
62496,note_on,2,0,2,,,,,,,,0,,,71,127
62496,note_on,2,0,4,,,,,,,,4,,,71,92
62496,note_on,2,0,3,,,,,,,,2,,,71,127
62542,note_on,46,0,6,,,,,,,,8,,,47,0
62542,note_on,46,0,2,,,,,,,,0,,,71,0
62542,note_on,46,0,3,,,,,,,,2,,,71,0
62542,note_on,46,0,5,,,,,,,,6,,,59,0
62542,note_on,46,0,4,,,,,,,,4,,,71,0
62542,note_on,46,0,1,,,,,,,,11,,,71,0
62544,note_on,2,0,2,,,,,,,,0,,,69,127
62544,note_on,2,0,5,,,,,,,,6,,,57,92
62544,note_on,2,0,1,,,,,,,,11,,,69,127
62544,note_on,2,0,6,,,,,,,,8,,,45,92
62544,note_on,2,0,4,,,,,,,,4,,,69,92
62544,note_on,2,0,3,,,,,,,,2,,,69,127
62590,note_on,46,0,1,,,,,,,,11,,,69,0
62590,note_on,46,0,4,,,,,,,,4,,,69,0
62590,note_on,46,0,3,,,,,,,,2,,,69,0
62590,note_on,46,0,2,,,,,,,,0,,,69,0
62590,note_on,46,0,6,,,,,,,,8,,,45,0
62590,note_on,46,0,5,,,,,,,,6,,,57,0
62592,note_on,2,0,6,,,,,,,,8,,,43,92
62592,note_on,2,0,3,,,,,,,,2,,,67,127
62592,note_on,2,0,1,,,,,,,,11,,,67,127
62592,note_on,2,0,4,,,,,,,,4,,,67,92
62592,note_on,2,0,2,,,,,,,,0,,,67,127
62592,note_on,2,0,5,,,,,,,,6,,,55,92
62638,note_on,46,0,2,,,,,,,,0,,,67,0
62638,note_on,46,0,1,,,,,,,,11,,,67,0
62638,note_on,46,0,3,,,,,,,,2,,,67,0
62640,note_on,2,0,1,,,,,,,,11,,,65,127
62640,note_on,2,0,2,,,,,,,,0,,,65,127
62640,note_on,2,0,3,,,,,,,,2,,,65,127
62686,note_on,46,0,1,,,,,,,,11,,,65,0
62686,note_on,46,0,2,,,,,,,,0,,,65,0
62686,note_on,94,0,6,,,,,,,,8,,,43,0
62686,note_on,94,0,4,,,,,,,,4,,,67,0
62686,note_on,46,0,3,,,,,,,,2,,,65,0
62686,note_on,94,0,5,,,,,,,,6,,,55,0
62688,note_on,2,0,2,,,,,,,,0,,,67,127
62688,note_on,2,0,4,,,,,,,,4,,,59,92
62688,note_on,2,0,5,,,,,,,,6,,,55,92
62688,note_on,2,0,3,,,,,,,,2,,,67,127
62688,note_on,2,0,6,,,,,,,,8,,,43,92
62688,note_on,2,0,1,,,,,,,,11,,,67,127
62734,note_on,46,0,2,,,,,,,,0,,,67,0
62734,note_on,46,0,3,,,,,,,,2,,,67,0
62734,note_on,46,0,1,,,,,,,,11,,,67,0
62736,note_on,2,0,1,,,,,,,,11,,,69,127
62736,note_on,2,0,3,,,,,,,,2,,,69,127
62736,note_on,2,0,2,,,,,,,,0,,,69,127
62782,note_on,94,0,6,,,,,,,,8,,,43,0
62782,note_on,94,0,5,,,,,,,,6,,,55,0
62782,note_on,94,0,4,,,,,,,,4,,,59,0
62782,note_on,46,0,3,,,,,,,,2,,,69,0
62782,note_on,46,0,2,,,,,,,,0,,,69,0
62782,note_on,46,0,1,,,,,,,,11,,,69,0
62784,note_on,2,0,3,,,,,,,,2,,,71,127
62784,note_on,2,0,5,,,,,,,,6,,,55,92
62784,note_on,2,0,2,,,,,,,,0,,,71,127
62784,note_on,2,0,4,,,,,,,,4,,,59,92
62784,note_on,2,0,6,,,,,,,,8,,,43,92
62784,note_on,2,0,1,,,,,,,,11,,,71,127
62830,note_on,46,0,1,,,,,,,,11,,,71,0
62830,note_on,46,0,3,,,,,,,,2,,,71,0
62830,note_on,46,0,2,,,,,,,,0,,,71,0
62832,note_on,2,0,1,,,,,,,,11,,,69,127
62832,note_on,2,0,3,,,,,,,,2,,,69,127
62832,note_on,2,0,2,,,,,,,,0,,,69,127
62878,note_on,94,0,5,,,,,,,,6,,,55,0
62878,note_on,94,0,4,,,,,,,,4,,,59,0
62878,note_on,46,0,1,,,,,,,,11,,,69,0
62878,note_on,46,0,3,,,,,,,,2,,,69,0
62878,note_on,94,0,6,,,,,,,,8,,,43,0
62878,note_on,46,0,2,,,,,,,,0,,,69,0
62880,note_on,2,0,4,,,,,,,,4,,,59,92
62880,note_on,2,0,3,,,,,,,,2,,,71,127
62880,note_on,2,0,1,,,,,,,,11,,,71,127
62880,note_on,2,0,2,,,,,,,,0,,,71,127
62880,note_on,2,0,6,,,,,,,,8,,,43,92
62880,note_on,2,0,5,,,,,,,,6,,,55,92
62926,note_on,46,0,3,,,,,,,,2,,,71,0
62926,note_on,46,0,1,,,,,,,,11,,,71,0
62926,note_on,46,0,2,,,,,,,,0,,,71,0
62928,note_on,2,0,3,,,,,,,,2,,,72,127
62928,note_on,2,0,2,,,,,,,,0,,,72,127
62928,note_on,2,0,1,,,,,,,,11,,,72,127
62974,note_on,94,0,4,,,,,,,,4,,,59,0
62974,note_on,94,0,6,,,,,,,,8,,,43,0
62974,note_on,46,0,3,,,,,,,,2,,,72,0
62974,note_on,46,0,1,,,,,,,,11,,,72,0
62974,note_on,94,0,5,,,,,,,,6,,,55,0
62974,note_on,46,0,2,,,,,,,,0,,,72,0
62976,note_on,2,0,6,,,,,,,,8,,,43,92
62976,note_on,2,0,1,,,,,,,,11,,,74,127
62976,note_on,2,0,2,,,,,,,,0,,,74,127
62976,note_on,2,0,5,,,,,,,,6,,,55,92
62976,note_on,2,0,3,,,,,,,,2,,,74,127
62976,note_on,2,0,4,,,,,,,,4,,,59,92
63022,note_on,46,0,1,,,,,,,,11,,,74,0
63022,note_on,46,0,2,,,,,,,,0,,,74,0
63022,note_on,46,0,3,,,,,,,,2,,,74,0
63024,note_on,2,0,3,,,,,,,,2,,,72,127
63024,note_on,2,0,1,,,,,,,,11,,,72,127
63024,note_on,2,0,2,,,,,,,,0,,,72,127
63070,note_on,46,0,1,,,,,,,,11,,,72,0
63070,note_on,46,0,2,,,,,,,,0,,,72,0
63070,note_on,94,0,5,,,,,,,,6,,,55,0
63070,note_on,94,0,6,,,,,,,,8,,,43,0
63070,note_on,46,0,3,,,,,,,,2,,,72,0
63070,note_on,94,0,4,,,,,,,,4,,,59,0
63072,note_on,2,0,2,,,,,,,,0,,,74,127
63072,note_on,2,0,3,,,,,,,,2,,,74,127
63072,note_on,2,0,1,,,,,,,,11,,,74,127
63072,note_on,2,0,4,,,,,,,,4,,,59,92
63072,note_on,2,0,5,,,,,,,,6,,,55,92
63072,note_on,2,0,6,,,,,,,,8,,,43,92
63118,note_on,46,0,1,,,,,,,,11,,,74,0
63118,note_on,46,0,2,,,,,,,,0,,,74,0
63118,note_on,46,0,3,,,,,,,,2,,,74,0
63120,note_on,2,0,2,,,,,,,,0,,,76,127
63120,note_on,2,0,3,,,,,,,,2,,,76,127
63120,note_on,2,0,1,,,,,,,,11,,,76,127
63166,note_on,94,0,5,,,,,,,,6,,,55,0
63166,note_on,46,0,3,,,,,,,,2,,,76,0
63166,note_on,94,0,6,,,,,,,,8,,,43,0
63166,note_on,94,0,4,,,,,,,,4,,,59,0
63166,note_on,46,0,2,,,,,,,,0,,,76,0
63166,note_on,46,0,1,,,,,,,,11,,,76,0
63168,note_on,2,0,2,,,,,,,,0,,,77,127
63168,note_on,2,0,6,,,,,,,,8,,,43,92
63168,note_on,2,0,5,,,,,,,,6,,,55,92
63168,note_on,2,0,3,,,,,,,,2,,,77,127
63168,note_on,2,0,4,,,,,,,,4,,,62,92
63168,note_on,2,0,1,,,,,,,,11,,,77,127
63214,note_on,46,0,1,,,,,,,,11,,,77,0
63214,note_on,46,0,3,,,,,,,,2,,,77,0
63214,note_on,46,0,2,,,,,,,,0,,,77,0
63216,note_on,2,0,1,,,,,,,,11,,,76,127
63216,note_on,2,0,3,,,,,,,,2,,,76,127
63216,note_on,2,0,2,,,,,,,,0,,,76,127
63262,note_on,94,0,4,,,,,,,,4,,,62,0
63262,note_on,94,0,5,,,,,,,,6,,,55,0
63262,note_on,46,0,2,,,,,,,,0,,,76,0
63262,note_on,46,0,3,,,,,,,,2,,,76,0
63262,note_on,46,0,1,,,,,,,,11,,,76,0
63262,note_on,94,0,6,,,,,,,,8,,,43,0
63264,note_on,2,0,1,,,,,,,,11,,,77,127
63264,note_on,2,0,5,,,,,,,,6,,,55,92
63264,note_on,2,0,4,,,,,,,,4,,,62,92
63264,note_on,2,0,6,,,,,,,,8,,,43,92
63264,note_on,2,0,3,,,,,,,,2,,,77,127
63264,note_on,2,0,2,,,,,,,,0,,,77,127
63310,note_on,46,0,3,,,,,,,,2,,,77,0
63310,note_on,46,0,1,,,,,,,,11,,,77,0
63310,note_on,46,0,2,,,,,,,,0,,,77,0
63312,note_on,2,0,3,,,,,,,,2,,,79,127
63312,note_on,2,0,1,,,,,,,,11,,,79,127
63312,note_on,2,0,2,,,,,,,,0,,,79,127
63358,note_on,46,0,2,,,,,,,,0,,,79,0
63358,note_on,46,0,1,,,,,,,,11,,,79,0
63358,note_on,94,0,5,,,,,,,,6,,,55,0
63358,note_on,46,0,3,,,,,,,,2,,,79,0
63358,note_on,94,0,4,,,,,,,,4,,,62,0
63358,note_on,94,0,6,,,,,,,,8,,,43,0
63360,note_on,2,0,1,,,,,,,,11,,,72,127
63360,note_on,2,0,3,,,,,,,,2,,,72,127
63360,note_on,2,0,2,,,,,,,,0,,,72,127
63360,note_on,2,0,6,,,,,,,,8,,,36,92
63360,note_on,2,0,5,,,,,,,,6,,,48,92
63360,note_on,2,0,4,,,,,,,,4,,,55,92
63406,note_on,46,0,3,,,,,,,,2,,,72,0
63406,note_on,46,0,1,,,,,,,,11,,,72,0
63406,note_on,46,0,2,,,,,,,,0,,,72,0
63408,note_on,2,0,2,,,,,,,,0,,,71,127
63408,note_on,2,0,3,,,,,,,,2,,,71,127
63408,note_on,2,0,1,,,,,,,,11,,,71,127
63454,note_on,46,0,3,,,,,,,,2,,,71,0
63454,note_on,94,0,6,,,,,,,,8,,,36,0
63454,note_on,94,0,4,,,,,,,,4,,,55,0
63454,note_on,46,0,2,,,,,,,,0,,,71,0
63454,note_on,94,0,5,,,,,,,,6,,,48,0
63454,note_on,46,0,1,,,,,,,,11,,,71,0
63456,note_on,2,0,2,,,,,,,,0,,,72,127
63456,note_on,2,0,4,,,,,,,,4,,,55,92
63456,note_on,2,0,5,,,,,,,,6,,,48,92
63456,note_on,2,0,3,,,,,,,,2,,,72,127
63456,note_on,2,0,6,,,,,,,,8,,,36,92
63456,note_on,2,0,1,,,,,,,,11,,,72,127
63502,note_on,46,0,2,,,,,,,,0,,,72,0
63502,note_on,46,0,3,,,,,,,,2,,,72,0
63502,note_on,46,0,1,,,,,,,,11,,,72,0
63504,note_on,2,0,2,,,,,,,,0,,,74,127
63504,note_on,2,0,3,,,,,,,,2,,,74,127
63504,note_on,2,0,1,,,,,,,,11,,,74,127
63550,note_on,94,0,4,,,,,,,,4,,,55,0
63550,note_on,94,0,5,,,,,,,,6,,,48,0
63550,note_on,46,0,3,,,,,,,,2,,,74,0
63550,note_on,94,0,6,,,,,,,,8,,,36,0
63550,note_on,46,0,2,,,,,,,,0,,,74,0
63550,note_on,46,0,1,,,,,,,,11,,,74,0
63552,note_on,2,0,1,,,,,,,,11,,,76,127
63552,note_on,2,0,6,,,,,,,,8,,,36,92
63552,note_on,2,0,2,,,,,,,,0,,,76,127
63552,note_on,2,0,4,,,,,,,,4,,,67,92
63552,note_on,2,0,5,,,,,,,,6,,,48,92
63552,note_on,2,0,3,,,,,,,,2,,,76,127
63598,note_on,46,0,3,,,,,,,,2,,,76,0
63598,note_on,46,0,2,,,,,,,,0,,,76,0
63598,note_on,46,0,1,,,,,,,,11,,,76,0
63600,note_on,2,0,2,,,,,,,,0,,,74,127
63600,note_on,2,0,3,,,,,,,,2,,,74,127
63600,note_on,2,0,1,,,,,,,,11,,,74,127
63646,note_on,46,0,1,,,,,,,,11,,,74,0
63646,note_on,46,0,2,,,,,,,,0,,,74,0
63646,note_on,94,0,4,,,,,,,,4,,,67,0
63646,note_on,46,0,3,,,,,,,,2,,,74,0
63646,note_on,94,0,6,,,,,,,,8,,,36,0
63646,note_on,94,0,5,,,,,,,,6,,,48,0
63648,note_on,2,0,2,,,,,,,,0,,,76,127
63648,note_on,2,0,5,,,,,,,,6,,,48,92
63648,note_on,2,0,3,,,,,,,,2,,,76,127
63648,note_on,2,0,6,,,,,,,,8,,,36,92
63648,note_on,2,0,1,,,,,,,,11,,,76,127
63648,note_on,2,0,4,,,,,,,,4,,,67,92
63694,note_on,46,0,1,,,,,,,,11,,,76,0
63694,note_on,46,0,3,,,,,,,,2,,,76,0
63694,note_on,46,0,2,,,,,,,,0,,,76,0
63696,note_on,2,0,1,,,,,,,,11,,,77,127
63696,note_on,2,0,2,,,,,,,,0,,,77,127
63696,note_on,2,0,3,,,,,,,,2,,,77,127
63742,note_on,94,0,5,,,,,,,,6,,,48,0
63742,note_on,46,0,2,,,,,,,,0,,,77,0
63742,note_on,46,0,1,,,,,,,,11,,,77,0
63742,note_on,94,0,4,,,,,,,,4,,,67,0
63742,note_on,46,0,3,,,,,,,,2,,,77,0
63742,note_on,94,0,6,,,,,,,,8,,,36,0
63744,note_on,2,0,4,,,,,,,,4,,,64,92
63744,note_on,2,0,5,,,,,,,,6,,,48,92
63744,note_on,2,0,3,,,,,,,,2,,,79,127
63744,note_on,2,0,1,,,,,,,,11,,,79,127
63744,note_on,2,0,6,,,,,,,,8,,,36,92
63744,note_on,2,0,2,,,,,,,,0,,,79,127
63790,note_on,46,0,3,,,,,,,,2,,,79,0
63790,note_on,46,0,2,,,,,,,,0,,,79,0
63790,note_on,46,0,1,,,,,,,,11,,,79,0
63792,note_on,2,0,1,,,,,,,,11,,,77,127
63792,note_on,2,0,3,,,,,,,,2,,,77,127
63792,note_on,2,0,2,,,,,,,,0,,,77,127
63838,note_on,94,0,5,,,,,,,,6,,,48,0
63838,note_on,46,0,1,,,,,,,,11,,,77,0
63838,note_on,94,0,4,,,,,,,,4,,,64,0
63838,note_on,46,0,3,,,,,,,,2,,,77,0
63838,note_on,94,0,6,,,,,,,,8,,,36,0
63838,note_on,46,0,2,,,,,,,,0,,,77,0
63840,note_on,2,0,4,,,,,,,,4,,,64,92
63840,note_on,2,0,5,,,,,,,,6,,,48,92
63840,note_on,2,0,2,,,,,,,,0,,,79,127
63840,note_on,2,0,6,,,,,,,,8,,,36,92
63840,note_on,2,0,3,,,,,,,,2,,,79,127
63840,note_on,2,0,1,,,,,,,,11,,,79,127
63886,note_on,46,0,2,,,,,,,,0,,,79,0
63886,note_on,46,0,3,,,,,,,,2,,,79,0
63886,note_on,46,0,1,,,,,,,,11,,,79,0
63888,note_on,2,0,3,,,,,,,,2,,,81,127
63888,note_on,2,0,1,,,,,,,,11,,,81,127
63888,note_on,2,0,2,,,,,,,,0,,,81,127
63934,note_on,94,0,6,,,,,,,,8,,,36,0
63934,note_on,46,0,1,,,,,,,,11,,,81,0
63934,note_on,46,0,2,,,,,,,,0,,,81,0
63934,note_on,46,0,3,,,,,,,,2,,,81,0
63934,note_on,94,0,5,,,,,,,,6,,,48,0
63934,note_on,94,0,4,,,,,,,,4,,,64,0
63936,note_on,2,0,6,,,,,,,,8,,,36,92
63936,note_on,2,0,2,,,,,,,,0,,,82,127
63936,note_on,2,0,1,,,,,,,,11,,,82,127
63936,note_on,2,0,3,,,,,,,,2,,,82,127
63936,note_on,2,0,5,,,,,,,,6,,,48,92
63936,note_on,2,0,4,,,,,,,,4,,,64,92
63982,note_on,46,0,2,,,,,,,,0,,,82,0
63982,note_on,46,0,1,,,,,,,,11,,,82,0
63982,note_on,46,0,3,,,,,,,,2,,,82,0
63984,note_on,2,0,1,,,,,,,,11,,,81,127
63984,note_on,2,0,3,,,,,,,,2,,,81,127
63984,note_on,2,0,2,,,,,,,,0,,,81,127
64030,note_on,94,0,4,,,,,,,,4,,,64,0
64030,note_on,46,0,1,,,,,,,,11,,,81,0
64030,note_on,94,0,6,,,,,,,,8,,,36,0
64030,note_on,46,0,2,,,,,,,,0,,,81,0
64030,note_on,94,0,5,,,,,,,,6,,,48,0
64030,note_on,46,0,3,,,,,,,,2,,,81,0
64032,note_on,2,0,4,,,,,,,,4,,,64,92
64032,note_on,2,0,5,,,,,,,,6,,,48,92
64032,note_on,2,0,2,,,,,,,,0,,,82,127
64032,note_on,2,0,1,,,,,,,,11,,,82,127
64032,note_on,2,0,3,,,,,,,,2,,,82,127
64032,note_on,2,0,6,,,,,,,,8,,,36,92
64078,note_on,46,0,1,,,,,,,,11,,,82,0
64078,note_on,46,0,2,,,,,,,,0,,,82,0
64078,note_on,46,0,3,,,,,,,,2,,,82,0
64080,note_on,2,0,3,,,,,,,,2,,,84,127
64080,note_on,2,0,1,,,,,,,,11,,,84,127
64080,note_on,2,0,2,,,,,,,,0,,,84,127
64126,note_on,46,0,2,,,,,,,,0,,,84,0
64126,note_on,94,0,4,,,,,,,,4,,,64,0
64126,note_on,46,0,3,,,,,,,,2,,,84,0
64126,note_on,94,0,5,,,,,,,,6,,,48,0
64126,note_on,46,0,1,,,,,,,,11,,,84,0
64126,note_on,94,0,6,,,,,,,,8,,,36,0
64128,note_on,2,0,3,,,,,,,,2,,,81,127
64128,note_on,2,0,1,,,,,,,,11,,,81,127
64128,note_on,2,0,4,,,,,,,,4,,,60,92
64128,note_on,2,0,5,,,,,,,,6,,,53,92
64128,note_on,2,0,2,,,,,,,,0,,,81,127
64128,note_on,2,0,6,,,,,,,,8,,,41,92
64174,note_on,46,0,3,,,,,,,,2,,,81,0
64174,note_on,46,0,2,,,,,,,,0,,,81,0
64174,note_on,46,0,1,,,,,,,,11,,,81,0
64176,note_on,2,0,1,,,,,,,,11,,,82,127
64176,note_on,2,0,2,,,,,,,,0,,,82,127
64176,note_on,2,0,3,,,,,,,,2,,,82,127
64222,note_on,46,0,1,,,,,,,,11,,,82,0
64222,note_on,94,0,4,,,,,,,,4,,,60,0
64222,note_on,94,0,5,,,,,,,,6,,,53,0
64222,note_on,46,0,2,,,,,,,,0,,,82,0
64222,note_on,46,0,3,,,,,,,,2,,,82,0
64222,note_on,94,0,6,,,,,,,,8,,,41,0
64224,note_on,2,0,1,,,,,,,,11,,,81,127
64224,note_on,2,0,2,,,,,,,,0,,,81,127
64224,note_on,2,0,5,,,,,,,,6,,,53,92
64224,note_on,2,0,3,,,,,,,,2,,,81,127
64224,note_on,2,0,6,,,,,,,,8,,,41,92
64224,note_on,2,0,4,,,,,,,,4,,,60,92
64270,note_on,46,0,2,,,,,,,,0,,,81,0
64270,note_on,46,0,3,,,,,,,,2,,,81,0
64270,note_on,46,0,1,,,,,,,,11,,,81,0
64272,note_on,2,0,1,,,,,,,,11,,,79,127
64272,note_on,2,0,2,,,,,,,,0,,,79,127
64272,note_on,2,0,3,,,,,,,,2,,,79,127
64318,note_on,46,0,3,,,,,,,,2,,,79,0
64318,note_on,94,0,6,,,,,,,,8,,,41,0
64318,note_on,94,0,5,,,,,,,,6,,,53,0
64318,note_on,94,0,4,,,,,,,,4,,,60,0
64318,note_on,46,0,2,,,,,,,,0,,,79,0
64318,note_on,46,0,1,,,,,,,,11,,,79,0
64320,note_on,2,0,1,,,,,,,,11,,,77,127
64320,note_on,2,0,2,,,,,,,,0,,,77,127
64320,note_on,2,0,3,,,,,,,,2,,,77,127
64320,note_on,2,0,4,,,,,,,,4,,,60,92
64320,note_on,2,0,5,,,,,,,,6,,,53,92
64320,note_on,2,0,6,,,,,,,,8,,,41,92
64366,note_on,46,0,1,,,,,,,,11,,,77,0
64366,note_on,46,0,3,,,,,,,,2,,,77,0
64366,note_on,46,0,2,,,,,,,,0,,,77,0
64368,note_on,2,0,2,,,,,,,,0,,,76,127
64368,note_on,2,0,3,,,,,,,,2,,,76,127
64368,note_on,2,0,1,,,,,,,,11,,,76,127
64414,note_on,94,0,5,,,,,,,,6,,,53,0
64414,note_on,46,0,3,,,,,,,,2,,,76,0
64414,note_on,46,0,2,,,,,,,,0,,,76,0
64414,note_on,46,0,1,,,,,,,,11,,,76,0
64414,note_on,94,0,4,,,,,,,,4,,,60,0
64414,note_on,94,0,6,,,,,,,,8,,,41,0
64416,note_on,2,0,2,,,,,,,,0,,,74,127
64416,note_on,2,0,6,,,,,,,,8,,,41,92
64416,note_on,2,0,5,,,,,,,,6,,,53,92
64416,note_on,2,0,4,,,,,,,,4,,,60,92
64416,note_on,2,0,1,,,,,,,,11,,,74,127
64416,note_on,2,0,3,,,,,,,,2,,,74,127
64462,note_on,46,0,2,,,,,,,,0,,,74,0
64462,note_on,46,0,3,,,,,,,,2,,,74,0
64462,note_on,46,0,1,,,,,,,,11,,,74,0
64464,note_on,2,0,2,,,,,,,,0,,,72,127
64464,note_on,2,0,3,,,,,,,,2,,,72,127
64464,note_on,2,0,1,,,,,,,,11,,,72,127
64510,note_on,46,0,2,,,,,,,,0,,,72,0
64510,note_on,94,0,5,,,,,,,,6,,,53,0
64510,note_on,46,0,1,,,,,,,,11,,,72,0
64510,note_on,94,0,4,,,,,,,,4,,,60,0
64510,note_on,46,0,3,,,,,,,,2,,,72,0
64510,note_on,94,0,6,,,,,,,,8,,,41,0
64512,note_on,2,0,1,,,,,,,,11,,,77,127
64512,note_on,2,0,3,,,,,,,,2,,,77,127
64512,note_on,2,0,5,,,,,,,,6,,,53,92
64512,note_on,2,0,2,,,,,,,,0,,,77,127
64512,note_on,2,0,6,,,,,,,,8,,,41,92
64512,note_on,2,0,4,,,,,,,,4,,,60,92
64558,note_on,46,0,2,,,,,,,,0,,,77,0
64558,note_on,46,0,1,,,,,,,,11,,,77,0
64558,note_on,46,0,3,,,,,,,,2,,,77,0
64560,note_on,2,0,3,,,,,,,,2,,,79,127
64560,note_on,2,0,2,,,,,,,,0,,,79,127
64560,note_on,2,0,1,,,,,,,,11,,,79,127
64606,note_on,46,0,1,,,,,,,,11,,,79,0
64606,note_on,94,0,5,,,,,,,,6,,,53,0
64606,note_on,94,0,6,,,,,,,,8,,,41,0
64606,note_on,46,0,3,,,,,,,,2,,,79,0
64606,note_on,46,0,2,,,,,,,,0,,,79,0
64606,note_on,94,0,4,,,,,,,,4,,,60,0
64608,note_on,2,0,5,,,,,,,,6,,,53,92
64608,note_on,2,0,3,,,,,,,,2,,,77,127
64608,note_on,2,0,4,,,,,,,,4,,,60,92
64608,note_on,2,0,1,,,,,,,,11,,,77,127
64608,note_on,2,0,2,,,,,,,,0,,,77,127
64608,note_on,2,0,6,,,,,,,,8,,,41,92
64654,note_on,46,0,3,,,,,,,,2,,,77,0
64654,note_on,46,0,1,,,,,,,,11,,,77,0
64654,note_on,46,0,2,,,,,,,,0,,,77,0
64656,note_on,2,0,3,,,,,,,,2,,,76,127
64656,note_on,2,0,1,,,,,,,,11,,,76,127
64656,note_on,2,0,2,,,,,,,,0,,,76,127
64702,note_on,94,0,6,,,,,,,,8,,,41,0
64702,note_on,46,0,2,,,,,,,,0,,,76,0
64702,note_on,46,0,1,,,,,,,,11,,,76,0
64702,note_on,94,0,5,,,,,,,,6,,,53,0
64702,note_on,46,0,3,,,,,,,,2,,,76,0
64702,note_on,94,0,4,,,,,,,,4,,,60,0
64704,note_on,2,0,6,,,,,,,,8,,,41,92
64704,note_on,2,0,2,,,,,,,,0,,,74,127
64704,note_on,2,0,1,,,,,,,,11,,,74,127
64704,note_on,2,0,3,,,,,,,,2,,,74,127
64704,note_on,2,0,4,,,,,,,,4,,,69,92
64704,note_on,2,0,5,,,,,,,,6,,,53,92
64750,note_on,46,0,3,,,,,,,,2,,,74,0
64750,note_on,46,0,1,,,,,,,,11,,,74,0
64750,note_on,46,0,2,,,,,,,,0,,,74,0
64752,note_on,2,0,2,,,,,,,,0,,,72,127
64752,note_on,2,0,1,,,,,,,,11,,,72,127
64752,note_on,2,0,3,,,,,,,,2,,,72,127
64798,note_on,94,0,5,,,,,,,,6,,,53,0
64798,note_on,46,0,1,,,,,,,,11,,,72,0
64798,note_on,46,0,3,,,,,,,,2,,,72,0
64798,note_on,94,0,6,,,,,,,,8,,,41,0
64798,note_on,46,0,2,,,,,,,,0,,,72,0
64798,note_on,94,0,4,,,,,,,,4,,,69,0
64800,note_on,2,0,3,,,,,,,,2,,,71,127
64800,note_on,2,0,5,,,,,,,,6,,,53,92
64800,note_on,2,0,1,,,,,,,,11,,,71,127
64800,note_on,2,0,6,,,,,,,,8,,,41,92
64800,note_on,2,0,2,,,,,,,,0,,,71,127
64800,note_on,2,0,4,,,,,,,,4,,,69,92
64846,note_on,46,0,1,,,,,,,,11,,,71,0
64846,note_on,46,0,3,,,,,,,,2,,,71,0
64846,note_on,46,0,2,,,,,,,,0,,,71,0
64848,note_on,2,0,1,,,,,,,,11,,,69,127
64848,note_on,2,0,3,,,,,,,,2,,,69,127
64848,note_on,2,0,2,,,,,,,,0,,,69,127
64894,note_on,94,0,4,,,,,,,,4,,,69,0
64894,note_on,46,0,1,,,,,,,,11,,,69,0
64894,note_on,46,0,2,,,,,,,,0,,,69,0
64894,note_on,94,0,5,,,,,,,,6,,,53,0
64894,note_on,94,0,6,,,,,,,,8,,,41,0
64894,note_on,46,0,3,,,,,,,,2,,,69,0
64896,note_on,2,0,6,,,,,,,,8,,,43,92
64896,note_on,2,0,5,,,,,,,,6,,,55,92
64896,note_on,2,0,4,,,,,,,,4,,,62,92
64896,note_on,2,0,2,,,,,,,,0,,,67,127
64896,note_on,2,0,1,,,,,,,,11,,,67,127
64896,note_on,2,0,3,,,,,,,,2,,,67,127
64896,set_tempo,64128,1,0,545454,,,,,,,,,,,
64990,note_on,94,0,4,,,,,,,,4,,,62,0
64990,note_on,94,0,1,,,,,,,,11,,,67,0
64990,note_on,94,0,5,,,,,,,,6,,,55,0
64990,note_on,94,0,6,,,,,,,,8,,,43,0
64990,note_on,94,0,3,,,,,,,,2,,,67,0
64990,note_on,94,0,2,,,,,,,,0,,,67,0
64992,note_on,2,0,3,,,,,,,,2,,,72,127
64992,note_on,2,0,5,,,,,,,,6,,,48,92
64992,note_on,2,0,4,,,,,,,,4,,,64,92
64992,set_tempo,96,1,0,600000,,,,,,,,,,,
64992,note_on,2,0,6,,,,,,,,8,,,36,92
64992,note_on,2,0,2,,,,,,,,0,,,72,127
64992,note_on,2,0,1,,,,,,,,11,,,72,127
65086,note_on,94,0,5,,,,,,,,6,,,48,0
65086,note_on,94,0,3,,,,,,,,2,,,72,0
65086,note_on,94,0,4,,,,,,,,4,,,64,0
65086,note_on,94,0,6,,,,,,,,8,,,36,0
65086,note_on,94,0,2,,,,,,,,0,,,72,0
65086,note_on,94,0,1,,,,,,,,11,,,72,0
65088,note_on,2,0,4,,,,,,,,4,,,62,92
65088,note_on,2,0,5,,,,,,,,6,,,55,92
65088,set_tempo,96,1,0,666666,,,,,,,,,,,
65088,note_on,2,0,3,,,,,,,,2,,,55,127
65088,note_on,2,0,6,,,,,,,,8,,,43,92
65088,end_of_track,0,1,0,,,,,,,,,,,,
65088,note_on,2,0,1,,,,,,,,11,,,67,127
65088,note_on,2,0,2,,,,,,,,0,,,55,127
65182,note_on,94,0,1,,,,,,,,11,,,67,0
65182,note_on,94,0,6,,,,,,,,8,,,43,0
65182,note_on,94,0,2,,,,,,,,0,,,55,0
65182,note_on,94,0,5,,,,,,,,6,,,55,0
65182,note_on,94,0,4,,,,,,,,4,,,62,0
65182,note_on,94,0,3,,,,,,,,2,,,55,0
65184,note_on,2,0,6,,,,,,,,8,,,31,92
65184,note_on,2,0,3,,,,,,,,2,,,71,127
65184,note_on,2,0,4,,,,,,,,4,,,62,92
65184,note_on,2,0,2,,,,,,,,0,,,71,127
65184,note_on,2,0,5,,,,,,,,6,,,43,92
65184,note_on,2,0,1,,,,,,,,11,,,71,127
65278,note_on,94,0,2,,,,,,,,0,,,71,0
65278,note_on,94,0,3,,,,,,,,2,,,71,0
65278,note_on,94,0,4,,,,,,,,4,,,62,0
65278,note_on,94,0,5,,,,,,,,6,,,43,0
65278,note_on,94,0,6,,,,,,,,8,,,31,0
65278,note_on,94,0,1,,,,,,,,11,,,71,0
65280,note_on,2,0,5,,,,,,,,6,,,48,92
65280,note_on,2,0,6,,,,,,,,8,,,36,92
65280,note_on,2,0,4,,,,,,,,4,,,64,92
65280,note_on,2,0,2,,,,,,,,0,,,72,127
65280,note_on,2,0,3,,,,,,,,2,,,72,127
65280,note_on,2,0,1,,,,,,,,11,,,72,127
65616,end_of_track,0,1,6,,,,,,,,,,,,
65616,note_on,336,0,6,,,,,,,,8,,,36,0
65616,end_of_track,0,1,3,,,,,,,,,,,,
65616,end_of_track,0,1,2,,,,,,,,,,,,
65616,end_of_track,0,1,1,,,,,,,,,,,,
65616,note_on,336,0,1,,,,,,,,11,,,72,0
65616,end_of_track,0,1,4,,,,,,,,,,,,
65616,note_on,336,0,5,,,,,,,,6,,,48,0
65616,note_on,336,0,4,,,,,,,,4,,,64,0
65616,note_on,336,0,3,,,,,,,,2,,,72,0
65616,note_on,336,0,2,,,,,,,,0,,,72,0
65616,end_of_track,0,1,5,,,,,,,,,,,,
