tick,type,time,meta,track,numerator,denominator,clocks_per_click,notated_32nd_notes_per_beat,key,tempo,program,channel,control,value,note,velocity
0,track_name,0,1,0,,,,,,,,,,,,
0,track_name,0,1,5,,,,,,,,,,,,
0,note_on,0,0,4,,,,,,,,3,,,62,85
0,control_change,0,0,4,,,,,,,,3,91,113,,
0,control_change,0,0,4,,,,,,,,3,10,42,,
0,control_change,0,0,4,,,,,,,,3,7,127,,
0,program_change,0,0,4,,,,,,,48,3,,,,
0,track_name,0,1,4,,,,,,,,,,,,
0,end_of_track,0,1,12,,,,,,,,,,,,
0,control_change,0,0,3,,,,,,,,2,91,115,,
0,control_change,0,0,3,,,,,,,,2,10,127,,
0,control_change,0,0,3,,,,,,,,2,7,127,,
0,program_change,0,0,3,,,,,,,48,2,,,,
0,track_name,0,1,3,,,,,,,,,,,,
0,note_on,0,0,2,,,,,,,,1,,,70,85
0,control_change,0,0,2,,,,,,,,1,91,118,,
0,control_change,0,0,2,,,,,,,,1,10,0,,
0,control_change,0,0,2,,,,,,,,1,7,127,,
0,program_change,0,0,5,,,,,,,48,4,,,,
0,program_change,0,0,2,,,,,,,48,1,,,,
0,control_change,0,0,5,,,,,,,,4,7,127,,
0,control_change,0,0,5,,,,,,,,4,91,116,,
0,track_name,0,1,12,,,,,,,,,,,,
0,end_of_track,0,1,11,,,,,,,,,,,,
0,track_name,0,1,11,,,,,,,,,,,,
0,end_of_track,0,1,10,,,,,,,,,,,,
0,track_name,0,1,10,,,,,,,,,,,,
0,end_of_track,0,1,9,,,,,,,,,,,,
0,track_name,0,1,9,,,,,,,,,,,,
0,end_of_track,0,1,8,,,,,,,,,,,,
0,track_name,0,1,8,,,,,,,,,,,,
0,end_of_track,0,1,7,,,,,,,,,,,,
0,track_name,0,1,7,,,,,,,,,,,,
0,note_on,0,0,6,,,,,,,,5,,,46,85
0,control_change,0,0,6,,,,,,,,5,10,64,,
0,control_change,0,0,6,,,,,,,,5,7,127,,
0,program_change,0,0,6,,,,,,,48,5,,,,
0,track_name,0,1,6,,,,,,,,,,,,
0,note_on,0,0,5,,,,,,,,4,,,46,85
0,control_change,0,0,5,,,,,,,,4,10,84,,
0,track_name,0,1,2,,,,,,,,,,,,
0,end_of_track,0,1,13,,,,,,,,,,,,
0,time_signature,0,1,0,3,4,24,8,,,,,,,,
0,note_on,0,0,1,,,,,,,,0,,,70,64
0,control_change,0,0,1,,,,,,,,0,91,127,,
0,set_tempo,0,1,0,,,,,,352941,,,,,,
0,marker,0,1,0,,,,,,,,,,,,
0,key_signature,0,1,0,,,,,Bb,,,,,,,
0,control_change,0,0,1,,,,,,,,0,10,91,,
0,control_change,0,0,1,,,,,,,,0,7,127,,
0,program_change,0,0,1,,,,,,,40,0,,,,
0,track_name,0,1,1,,,,,,,,,,,,
225,note_on,225,0,4,,,,,,,,3,,,62,0
225,note_on,225,0,6,,,,,,,,5,,,46,0
225,note_on,225,0,5,,,,,,,,4,,,46,0
240,note_on,15,0,4,,,,,,,,3,,,62,85
240,note_on,15,0,5,,,,,,,,4,,,46,85
240,note_on,15,0,6,,,,,,,,5,,,46,85
355,note_on,115,0,5,,,,,,,,4,,,46,0
355,note_on,115,0,4,,,,,,,,3,,,62,0
355,note_on,115,0,6,,,,,,,,5,,,46,0
360,note_on,5,0,4,,,,,,,,3,,,62,85
360,note_on,5,0,6,,,,,,,,5,,,46,85
360,note_on,5,0,5,,,,,,,,4,,,46,85
445,note_on,445,0,2,,,,,,,,1,,,70,0
445,note_on,445,0,1,,,,,,,,0,,,70,0
475,note_on,115,0,6,,,,,,,,5,,,46,0
475,note_on,115,0,5,,,,,,,,4,,,46,0
475,note_on,115,0,4,,,,,,,,3,,,62,0
480,note_on,5,0,5,,,,,,,,4,,,46,85
480,note_on,5,0,6,,,,,,,,5,,,46,85
480,note_on,35,0,1,,,,,,,,0,,,82,80
480,note_on,35,0,2,,,,,,,,1,,,82,101
480,note_on,5,0,4,,,,,,,,3,,,62,85
540,note_on,60,0,2,,,,,,,,1,,,82,0
540,note_on,60,0,1,,,,,,,,0,,,82,0
720,note_on,180,0,2,,,,,,,,1,,,70,85
720,note_on,180,0,1,,,,,,,,0,,,70,64
780,note_on,60,0,1,,,,,,,,0,,,70,0
780,note_on,60,0,2,,,,,,,,1,,,70,0
925,note_on,445,0,5,,,,,,,,4,,,46,0
925,note_on,445,0,4,,,,,,,,3,,,62,0
925,note_on,445,0,6,,,,,,,,5,,,46,0
960,note_on,35,0,4,,,,,,,,3,,,62,85
960,note_on,180,0,1,,,,,,,,0,,,70,64
960,note_on,180,0,2,,,,,,,,1,,,70,85
960,note_on,35,0,6,,,,,,,,5,,,58,85
960,note_on,35,0,5,,,,,,,,4,,,58,85
1020,note_on,60,0,1,,,,,,,,0,,,70,0
1020,note_on,60,0,2,,,,,,,,1,,,70,0
1200,note_on,180,0,1,,,,,,,,0,,,70,64
1200,note_on,180,0,2,,,,,,,,1,,,70,85
1260,note_on,60,0,2,,,,,,,,1,,,70,0
1260,note_on,60,0,1,,,,,,,,0,,,70,0
1405,note_on,445,0,5,,,,,,,,4,,,58,0
1405,note_on,445,0,4,,,,,,,,3,,,62,0
1405,note_on,445,0,6,,,,,,,,5,,,58,0
1440,note_on,35,0,5,,,,,,,,4,,,46,85
1440,note_on,35,0,4,,,,,,,,3,,,62,85
1440,note_on,180,0,1,,,,,,,,0,,,70,64
1440,note_on,35,0,6,,,,,,,,5,,,46,85
1440,note_on,180,0,2,,,,,,,,1,,,70,85
1665,note_on,225,0,5,,,,,,,,4,,,46,0
1665,note_on,225,0,6,,,,,,,,5,,,46,0
1665,note_on,225,0,4,,,,,,,,3,,,62,0
1680,note_on,15,0,5,,,,,,,,4,,,46,85
1680,note_on,15,0,6,,,,,,,,5,,,46,85
1680,note_on,15,0,4,,,,,,,,3,,,62,85
1795,note_on,115,0,6,,,,,,,,5,,,46,0
1795,note_on,115,0,4,,,,,,,,3,,,62,0
1795,note_on,115,0,5,,,,,,,,4,,,46,0
1800,note_on,5,0,6,,,,,,,,5,,,46,85
1800,note_on,5,0,5,,,,,,,,4,,,46,85
1800,note_on,5,0,4,,,,,,,,3,,,62,85
1885,note_on,445,0,1,,,,,,,,0,,,70,0
1885,note_on,445,0,2,,,,,,,,1,,,70,0
1915,note_on,115,0,5,,,,,,,,4,,,46,0
1915,note_on,115,0,4,,,,,,,,3,,,62,0
1915,note_on,115,0,6,,,,,,,,5,,,46,0
1920,note_on,5,0,4,,,,,,,,3,,,62,85
1920,note_on,35,0,1,,,,,,,,0,,,82,80
1920,note_on,5,0,6,,,,,,,,5,,,46,85
1920,note_on,35,0,2,,,,,,,,1,,,82,101
1920,note_on,5,0,5,,,,,,,,4,,,46,85
1980,note_on,60,0,2,,,,,,,,1,,,82,0
1980,note_on,60,0,1,,,,,,,,0,,,82,0
2160,note_on,180,0,2,,,,,,,,1,,,70,85
2160,note_on,180,0,1,,,,,,,,0,,,70,64
2220,note_on,60,0,1,,,,,,,,0,,,70,0
2220,note_on,60,0,2,,,,,,,,1,,,70,0
2365,note_on,445,0,4,,,,,,,,3,,,62,0
2365,note_on,445,0,5,,,,,,,,4,,,46,0
2365,note_on,445,0,6,,,,,,,,5,,,46,0
2400,note_on,35,0,6,,,,,,,,5,,,58,85
2400,note_on,35,0,4,,,,,,,,3,,,62,85
2400,note_on,180,0,2,,,,,,,,1,,,70,85
2400,note_on,180,0,1,,,,,,,,0,,,70,64
2400,note_on,35,0,5,,,,,,,,4,,,58,85
2460,note_on,60,0,2,,,,,,,,1,,,70,0
2460,note_on,60,0,1,,,,,,,,0,,,70,0
2640,note_on,180,0,2,,,,,,,,1,,,70,85
2640,note_on,180,0,1,,,,,,,,0,,,70,64
2700,note_on,60,0,2,,,,,,,,1,,,70,0
2700,note_on,60,0,1,,,,,,,,0,,,70,0
2845,note_on,445,0,5,,,,,,,,4,,,58,0
2845,note_on,445,0,6,,,,,,,,5,,,58,0
2845,note_on,445,0,4,,,,,,,,3,,,62,0
2880,note_on,35,0,6,,,,,,,,5,,,46,85
2880,note_on,35,0,4,,,,,,,,3,,,62,85
2880,note_on,180,0,2,,,,,,,,1,,,70,85
2880,note_on,35,0,5,,,,,,,,4,,,46,85
2880,note_on,180,0,1,,,,,,,,0,,,70,64
3105,note_on,225,0,4,,,,,,,,3,,,62,0
3105,note_on,225,0,6,,,,,,,,5,,,46,0
3105,note_on,225,0,5,,,,,,,,4,,,46,0
3120,note_on,15,0,5,,,,,,,,4,,,46,85
3120,note_on,15,0,4,,,,,,,,3,,,62,85
3120,note_on,15,0,6,,,,,,,,5,,,46,85
3235,note_on,115,0,4,,,,,,,,3,,,62,0
3235,note_on,115,0,5,,,,,,,,4,,,46,0
3235,note_on,115,0,6,,,,,,,,5,,,46,0
3240,note_on,5,0,4,,,,,,,,3,,,62,85
3240,note_on,5,0,5,,,,,,,,4,,,46,85
3240,note_on,5,0,6,,,,,,,,5,,,46,85
3325,note_on,445,0,2,,,,,,,,1,,,70,0
3325,note_on,445,0,1,,,,,,,,0,,,70,0
3355,note_on,115,0,5,,,,,,,,4,,,46,0
3355,note_on,115,0,6,,,,,,,,5,,,46,0
3355,note_on,115,0,4,,,,,,,,3,,,62,0
3360,note_on,5,0,4,,,,,,,,3,,,62,85
3360,note_on,5,0,5,,,,,,,,4,,,46,85
3360,note_on,5,0,6,,,,,,,,5,,,46,85
3360,note_on,35,0,1,,,,,,,,0,,,70,64
3360,note_on,35,0,2,,,,,,,,1,,,70,85
3420,note_on,60,0,2,,,,,,,,1,,,70,0
3420,note_on,60,0,1,,,,,,,,0,,,70,0
3600,note_on,180,0,1,,,,,,,,0,,,77,64
3600,note_on,180,0,2,,,,,,,,1,,,77,85
3660,note_on,60,0,1,,,,,,,,0,,,77,0
3660,note_on,60,0,2,,,,,,,,1,,,77,0
3805,note_on,445,0,5,,,,,,,,4,,,46,0
3805,note_on,445,0,4,,,,,,,,3,,,62,0
3805,note_on,445,0,6,,,,,,,,5,,,46,0
3840,note_on,180,0,2,,,,,,,,1,,,75,85
3840,note_on,35,0,5,,,,,,,,4,,,58,85
3840,note_on,35,0,6,,,,,,,,5,,,58,85
3840,note_on,35,0,4,,,,,,,,3,,,62,85
3840,note_on,180,0,1,,,,,,,,0,,,75,64
3900,note_on,60,0,2,,,,,,,,1,,,75,0
3900,note_on,60,0,1,,,,,,,,0,,,75,0
4080,note_on,180,0,1,,,,,,,,0,,,74,64
4080,note_on,180,0,2,,,,,,,,1,,,74,85
4140,note_on,60,0,2,,,,,,,,1,,,74,0
4140,note_on,60,0,1,,,,,,,,0,,,74,0
4285,note_on,445,0,4,,,,,,,,3,,,62,0
4285,note_on,445,0,5,,,,,,,,4,,,58,0
4285,note_on,445,0,6,,,,,,,,5,,,58,0
4320,note_on,180,0,2,,,,,,,,1,,,72,101
4320,note_on,35,0,6,,,,,,,,5,,,41,85
4320,note_on,4320,0,3,,,,,,,,2,,,65,85
4320,note_on,35,0,5,,,,,,,,4,,,41,85
4320,note_on,180,0,1,,,,,,,,0,,,72,80
4320,note_on,35,0,4,,,,,,,,3,,,57,85
4545,note_on,225,0,5,,,,,,,,4,,,41,0
4545,note_on,225,0,4,,,,,,,,3,,,57,0
4545,note_on,225,0,6,,,,,,,,5,,,41,0
4560,note_on,15,0,5,,,,,,,,4,,,41,85
4560,note_on,15,0,6,,,,,,,,5,,,41,85
4560,note_on,15,0,4,,,,,,,,3,,,57,85
4675,note_on,115,0,6,,,,,,,,5,,,41,0
4675,note_on,115,0,4,,,,,,,,3,,,57,0
4675,note_on,115,0,5,,,,,,,,4,,,41,0
4680,note_on,5,0,6,,,,,,,,5,,,41,85
4680,note_on,5,0,4,,,,,,,,3,,,57,85
4680,note_on,5,0,5,,,,,,,,4,,,41,85
4765,note_on,445,0,3,,,,,,,,2,,,65,0
4795,note_on,115,0,5,,,,,,,,4,,,41,0
4795,note_on,115,0,4,,,,,,,,3,,,57,0
4795,note_on,115,0,6,,,,,,,,5,,,41,0
4800,note_on,480,0,1,,,,,,,,0,,,72,0
4800,note_on,480,0,2,,,,,,,,1,,,72,0
4800,note_on,35,0,3,,,,,,,,2,,,77,101
4800,note_on,0,0,2,,,,,,,,1,,,65,85
4800,note_on,5,0,5,,,,,,,,4,,,41,85
4800,note_on,0,0,1,,,,,,,,0,,,65,64
4800,note_on,5,0,6,,,,,,,,5,,,41,85
4800,note_on,5,0,4,,,,,,,,3,,,57,85
4860,note_on,60,0,3,,,,,,,,2,,,77,0
5040,note_on,180,0,3,,,,,,,,2,,,65,85
5100,note_on,60,0,3,,,,,,,,2,,,65,0
5245,note_on,445,0,1,,,,,,,,0,,,65,0
5245,note_on,445,0,6,,,,,,,,5,,,41,0
5245,note_on,445,0,5,,,,,,,,4,,,41,0
5245,note_on,445,0,2,,,,,,,,1,,,65,0
5245,note_on,445,0,4,,,,,,,,3,,,57,0
5280,note_on,35,0,6,,,,,,,,5,,,53,85
5280,note_on,35,0,5,,,,,,,,4,,,53,85
5280,note_on,180,0,3,,,,,,,,2,,,65,85
5280,note_on,35,0,4,,,,,,,,3,,,57,85
5340,note_on,60,0,3,,,,,,,,2,,,65,0
5520,note_on,180,0,3,,,,,,,,2,,,65,85
5580,note_on,60,0,3,,,,,,,,2,,,65,0
5725,note_on,445,0,4,,,,,,,,3,,,57,0
5725,note_on,445,0,5,,,,,,,,4,,,53,0
5725,note_on,445,0,6,,,,,,,,5,,,53,0
5760,note_on,180,0,3,,,,,,,,2,,,65,85
5760,note_on,35,0,5,,,,,,,,4,,,41,85
5760,note_on,515,0,1,,,,,,,,0,,,65,64
5760,note_on,35,0,4,,,,,,,,3,,,57,85
5760,note_on,515,0,2,,,,,,,,1,,,65,85
5760,note_on,35,0,6,,,,,,,,5,,,41,85
5985,note_on,225,0,4,,,,,,,,3,,,57,0
5985,note_on,225,0,5,,,,,,,,4,,,41,0
5985,note_on,225,0,6,,,,,,,,5,,,41,0
6000,note_on,15,0,4,,,,,,,,3,,,57,85
6000,note_on,15,0,5,,,,,,,,4,,,41,85
6000,note_on,15,0,6,,,,,,,,5,,,41,85
6115,note_on,115,0,5,,,,,,,,4,,,41,0
6115,note_on,115,0,6,,,,,,,,5,,,41,0
6115,note_on,115,0,4,,,,,,,,3,,,57,0
6120,note_on,5,0,6,,,,,,,,5,,,41,85
6120,note_on,5,0,4,,,,,,,,3,,,57,85
6120,note_on,5,0,5,,,,,,,,4,,,41,85
6205,note_on,445,0,2,,,,,,,,1,,,65,0
6205,note_on,445,0,3,,,,,,,,2,,,65,0
6205,note_on,445,0,1,,,,,,,,0,,,65,0
6235,note_on,115,0,4,,,,,,,,3,,,57,0
6235,note_on,115,0,6,,,,,,,,5,,,41,0
6235,note_on,115,0,5,,,,,,,,4,,,41,0
6240,note_on,5,0,4,,,,,,,,3,,,57,85
6240,note_on,35,0,3,,,,,,,,2,,,77,101
6240,note_on,5,0,6,,,,,,,,5,,,41,85
6240,note_on,5,0,5,,,,,,,,4,,,41,85
6300,note_on,60,0,3,,,,,,,,2,,,77,0
6480,note_on,275,0,2,,,,,,,,1,,,67,85
6480,note_on,275,0,1,,,,,,,,0,,,67,64
6480,note_on,180,0,3,,,,,,,,2,,,65,85
6540,note_on,60,0,3,,,,,,,,2,,,65,0
6595,note_on,115,0,2,,,,,,,,1,,,67,0
6595,note_on,115,0,1,,,,,,,,0,,,67,0
6600,note_on,5,0,1,,,,,,,,0,,,69,64
6600,note_on,5,0,2,,,,,,,,1,,,69,85
6685,note_on,445,0,5,,,,,,,,4,,,41,0
6685,note_on,445,0,6,,,,,,,,5,,,41,0
6685,note_on,445,0,4,,,,,,,,3,,,57,0
6715,note_on,115,0,1,,,,,,,,0,,,69,0
6715,note_on,115,0,2,,,,,,,,1,,,69,0
6720,note_on,5,0,1,,,,,,,,0,,,70,64
6720,note_on,35,0,5,,,,,,,,4,,,53,85
6720,note_on,180,0,3,,,,,,,,2,,,65,85
6720,note_on,35,0,6,,,,,,,,5,,,53,85
6720,note_on,5,0,2,,,,,,,,1,,,70,85
6720,note_on,35,0,4,,,,,,,,3,,,57,85
6780,note_on,60,0,3,,,,,,,,2,,,65,0
6835,note_on,115,0,1,,,,,,,,0,,,70,0
6835,note_on,115,0,2,,,,,,,,1,,,70,0
6840,note_on,5,0,1,,,,,,,,0,,,72,64
6840,note_on,5,0,2,,,,,,,,1,,,72,85
6955,note_on,115,0,1,,,,,,,,0,,,72,0
6955,note_on,115,0,2,,,,,,,,1,,,72,0
6960,note_on,5,0,2,,,,,,,,1,,,74,85
6960,note_on,5,0,1,,,,,,,,0,,,74,64
6960,note_on,180,0,3,,,,,,,,2,,,65,85
7020,note_on,60,0,3,,,,,,,,2,,,65,0
7075,note_on,115,0,1,,,,,,,,0,,,74,0
7075,note_on,115,0,2,,,,,,,,1,,,74,0
7080,note_on,5,0,1,,,,,,,,0,,,75,64
7080,note_on,5,0,2,,,,,,,,1,,,75,85
7165,note_on,445,0,6,,,,,,,,5,,,53,0
7165,note_on,445,0,5,,,,,,,,4,,,53,0
7165,note_on,445,0,4,,,,,,,,3,,,57,0
7195,note_on,115,0,1,,,,,,,,0,,,75,0
7195,note_on,115,0,2,,,,,,,,1,,,75,0
7200,note_on,35,0,4,,,,,,,,3,,,57,85
7200,note_on,5,0,1,,,,,,,,0,,,77,80
7200,note_on,35,0,5,,,,,,,,4,,,41,85
7200,note_on,35,0,6,,,,,,,,5,,,41,85
7200,note_on,5,0,2,,,,,,,,1,,,77,101
7200,note_on,180,0,3,,,,,,,,2,,,65,85
7425,note_on,225,0,5,,,,,,,,4,,,41,0
7425,note_on,225,0,4,,,,,,,,3,,,57,0
7425,note_on,225,0,6,,,,,,,,5,,,41,0
7440,note_on,15,0,5,,,,,,,,4,,,41,85
7440,note_on,15,0,4,,,,,,,,3,,,57,85
7440,note_on,15,0,6,,,,,,,,5,,,41,85
7555,note_on,115,0,4,,,,,,,,3,,,57,0
7555,note_on,115,0,5,,,,,,,,4,,,41,0
7555,note_on,115,0,6,,,,,,,,5,,,41,0
7560,note_on,5,0,6,,,,,,,,5,,,41,85
7560,note_on,5,0,5,,,,,,,,4,,,41,85
7560,note_on,5,0,4,,,,,,,,3,,,57,85
7645,note_on,445,0,3,,,,,,,,2,,,65,0
7675,note_on,115,0,4,,,,,,,,3,,,57,0
7675,note_on,115,0,5,,,,,,,,4,,,41,0
7675,note_on,115,0,6,,,,,,,,5,,,41,0
7680,note_on,5,0,5,,,,,,,,4,,,41,85
7680,note_on,5,0,6,,,,,,,,5,,,41,85
7680,note_on,0,0,1,,,,,,,,0,,,65,64
7680,note_on,480,0,1,,,,,,,,0,,,77,0
7680,note_on,5,0,4,,,,,,,,3,,,57,85
7680,note_on,35,0,3,,,,,,,,2,,,65,85
7680,note_on,480,0,2,,,,,,,,1,,,77,0
7680,note_on,0,0,2,,,,,,,,1,,,65,85
7740,note_on,60,0,3,,,,,,,,2,,,65,0
7920,note_on,180,0,3,,,,,,,,2,,,75,85
7980,note_on,60,0,3,,,,,,,,2,,,75,0
8125,note_on,445,0,2,,,,,,,,1,,,65,0
8125,note_on,445,0,1,,,,,,,,0,,,65,0
8125,note_on,445,0,5,,,,,,,,4,,,41,0
8125,note_on,445,0,6,,,,,,,,5,,,41,0
8125,note_on,445,0,4,,,,,,,,3,,,57,0
8160,note_on,35,0,6,,,,,,,,5,,,53,85
8160,note_on,35,0,4,,,,,,,,3,,,57,85
8160,note_on,35,0,5,,,,,,,,4,,,53,85
8160,note_on,180,0,3,,,,,,,,2,,,74,85
8220,note_on,60,0,3,,,,,,,,2,,,74,0
8400,note_on,180,0,3,,,,,,,,2,,,72,85
8460,note_on,60,0,3,,,,,,,,2,,,72,0
8605,note_on,445,0,4,,,,,,,,3,,,57,0
8605,note_on,445,0,5,,,,,,,,4,,,53,0
8605,note_on,445,0,6,,,,,,,,5,,,53,0
8640,note_on,515,0,2,,,,,,,,1,,,70,85
8640,note_on,515,0,1,,,,,,,,0,,,70,64
8640,note_on,35,0,4,,,,,,,,3,,,53,85
8640,note_on,35,0,6,,,,,,,,5,,,46,85
8640,note_on,180,0,3,,,,,,,,2,,,74,101
8640,note_on,35,0,5,,,,,,,,4,,,46,85
8865,note_on,225,0,5,,,,,,,,4,,,46,0
8865,note_on,225,0,6,,,,,,,,5,,,46,0
8865,note_on,225,0,4,,,,,,,,3,,,53,0
8880,note_on,15,0,4,,,,,,,,3,,,62,85
8880,note_on,15,0,5,,,,,,,,4,,,46,85
8880,note_on,15,0,6,,,,,,,,5,,,46,85
8995,note_on,115,0,5,,,,,,,,4,,,46,0
8995,note_on,115,0,4,,,,,,,,3,,,62,0
8995,note_on,115,0,6,,,,,,,,5,,,46,0
9000,note_on,5,0,6,,,,,,,,5,,,46,85
9000,note_on,5,0,5,,,,,,,,4,,,46,85
9000,note_on,5,0,4,,,,,,,,3,,,62,85
9085,note_on,445,0,1,,,,,,,,0,,,70,0
9085,note_on,445,0,2,,,,,,,,1,,,70,0
9115,note_on,115,0,4,,,,,,,,3,,,62,0
9115,note_on,115,0,5,,,,,,,,4,,,46,0
9115,note_on,115,0,6,,,,,,,,5,,,46,0
9120,note_on,5,0,5,,,,,,,,4,,,46,85
9120,note_on,5,0,4,,,,,,,,3,,,62,85
9120,note_on,35,0,1,,,,,,,,0,,,82,80
9120,note_on,5,0,6,,,,,,,,5,,,46,85
9120,note_on,35,0,2,,,,,,,,1,,,82,101
9120,note_on,480,0,3,,,,,,,,2,,,74,0
9120,note_on,0,0,3,,,,,,,,2,,,70,85
9180,note_on,60,0,1,,,,,,,,0,,,82,0
9180,note_on,60,0,2,,,,,,,,1,,,82,0
9360,note_on,180,0,1,,,,,,,,0,,,70,64
9360,note_on,180,0,2,,,,,,,,1,,,70,85
9420,note_on,60,0,2,,,,,,,,1,,,70,0
9420,note_on,60,0,1,,,,,,,,0,,,70,0
9565,note_on,445,0,5,,,,,,,,4,,,46,0
9565,note_on,445,0,6,,,,,,,,5,,,46,0
9565,note_on,445,0,4,,,,,,,,3,,,62,0
9565,note_on,445,0,3,,,,,,,,2,,,70,0
9600,note_on,35,0,6,,,,,,,,5,,,58,85
9600,note_on,35,0,5,,,,,,,,4,,,58,85
9600,note_on,180,0,1,,,,,,,,0,,,70,64
9600,note_on,35,0,4,,,,,,,,3,,,62,85
9600,note_on,180,0,2,,,,,,,,1,,,70,85
9660,note_on,60,0,2,,,,,,,,1,,,70,0
9660,note_on,60,0,1,,,,,,,,0,,,70,0
9840,note_on,180,0,2,,,,,,,,1,,,70,85
9840,note_on,180,0,1,,,,,,,,0,,,70,64
9900,note_on,60,0,2,,,,,,,,1,,,70,0
9900,note_on,60,0,1,,,,,,,,0,,,70,0
10045,note_on,445,0,4,,,,,,,,3,,,62,0
10045,note_on,445,0,6,,,,,,,,5,,,58,0
10045,note_on,445,0,5,,,,,,,,4,,,58,0
10080,note_on,180,0,1,,,,,,,,0,,,70,64
10080,note_on,515,0,3,,,,,,,,2,,,70,85
10080,note_on,35,0,5,,,,,,,,4,,,46,85
10080,note_on,35,0,4,,,,,,,,3,,,62,85
10080,note_on,180,0,2,,,,,,,,1,,,70,85
10080,note_on,35,0,6,,,,,,,,5,,,46,85
10305,note_on,225,0,4,,,,,,,,3,,,62,0
10305,note_on,225,0,5,,,,,,,,4,,,46,0
10305,note_on,225,0,6,,,,,,,,5,,,46,0
10320,note_on,15,0,5,,,,,,,,4,,,46,85
10320,note_on,15,0,4,,,,,,,,3,,,62,85
10320,note_on,15,0,6,,,,,,,,5,,,46,85
10435,note_on,115,0,6,,,,,,,,5,,,46,0
10435,note_on,115,0,5,,,,,,,,4,,,46,0
10435,note_on,115,0,4,,,,,,,,3,,,62,0
10440,note_on,5,0,5,,,,,,,,4,,,46,85
10440,note_on,5,0,4,,,,,,,,3,,,62,85
10440,note_on,5,0,6,,,,,,,,5,,,46,85
10525,note_on,445,0,3,,,,,,,,2,,,70,0
10525,note_on,445,0,1,,,,,,,,0,,,70,0
10525,note_on,445,0,2,,,,,,,,1,,,70,0
10555,note_on,115,0,4,,,,,,,,3,,,62,0
10555,note_on,115,0,6,,,,,,,,5,,,46,0
10555,note_on,115,0,5,,,,,,,,4,,,46,0
10560,note_on,5,0,6,,,,,,,,5,,,46,85
10560,note_on,5,0,4,,,,,,,,3,,,62,85
10560,note_on,35,0,1,,,,,,,,0,,,80,80
10560,note_on,5,0,5,,,,,,,,4,,,46,85
10560,note_on,35,0,2,,,,,,,,1,,,80,101
10620,note_on,60,0,1,,,,,,,,0,,,80,0
10620,note_on,60,0,2,,,,,,,,1,,,80,0
10800,note_on,180,0,1,,,,,,,,0,,,70,64
10800,note_on,180,0,2,,,,,,,,1,,,70,85
10800,note_on,275,0,3,,,,,,,,2,,,72,85
10860,note_on,60,0,1,,,,,,,,0,,,70,0
10860,note_on,60,0,2,,,,,,,,1,,,70,0
10915,note_on,115,0,3,,,,,,,,2,,,72,0
10920,note_on,5,0,3,,,,,,,,2,,,74,85
11005,note_on,445,0,5,,,,,,,,4,,,46,0
11005,note_on,445,0,6,,,,,,,,5,,,46,0
11005,note_on,445,0,4,,,,,,,,3,,,62,0
11035,note_on,115,0,3,,,,,,,,2,,,74,0
11040,note_on,35,0,4,,,,,,,,3,,,62,85
11040,note_on,180,0,1,,,,,,,,0,,,70,64
11040,note_on,35,0,6,,,,,,,,5,,,58,85
11040,note_on,5,0,3,,,,,,,,2,,,75,85
11040,note_on,180,0,2,,,,,,,,1,,,70,85
11040,note_on,35,0,5,,,,,,,,4,,,58,85
11100,note_on,60,0,2,,,,,,,,1,,,70,0
11100,note_on,60,0,1,,,,,,,,0,,,70,0
11155,note_on,115,0,3,,,,,,,,2,,,75,0
11160,note_on,5,0,3,,,,,,,,2,,,77,85
11275,note_on,115,0,3,,,,,,,,2,,,77,0
11280,note_on,180,0,1,,,,,,,,0,,,70,64
11280,note_on,180,0,2,,,,,,,,1,,,70,85
11280,note_on,5,0,3,,,,,,,,2,,,79,85
11340,note_on,60,0,2,,,,,,,,1,,,70,0
11340,note_on,60,0,1,,,,,,,,0,,,70,0
11395,note_on,115,0,3,,,,,,,,2,,,79,0
11400,note_on,5,0,3,,,,,,,,2,,,80,85
11485,note_on,445,0,5,,,,,,,,4,,,58,0
11485,note_on,445,0,4,,,,,,,,3,,,62,0
11485,note_on,445,0,6,,,,,,,,5,,,58,0
11515,note_on,115,0,3,,,,,,,,2,,,80,0
11520,note_on,180,0,2,,,,,,,,1,,,70,85
11520,note_on,35,0,6,,,,,,,,5,,,46,85
11520,note_on,35,0,4,,,,,,,,3,,,62,85
11520,note_on,180,0,1,,,,,,,,0,,,70,64
11520,note_on,35,0,5,,,,,,,,4,,,46,85
11520,note_on,5,0,3,,,,,,,,2,,,82,101
11745,note_on,225,0,6,,,,,,,,5,,,46,0
11745,note_on,225,0,5,,,,,,,,4,,,46,0
11745,note_on,225,0,4,,,,,,,,3,,,62,0
11760,note_on,15,0,5,,,,,,,,4,,,46,85
11760,note_on,15,0,6,,,,,,,,5,,,46,85
11760,note_on,15,0,4,,,,,,,,3,,,62,85
11875,note_on,115,0,5,,,,,,,,4,,,46,0
11875,note_on,115,0,6,,,,,,,,5,,,46,0
11875,note_on,115,0,4,,,,,,,,3,,,62,0
11880,note_on,5,0,6,,,,,,,,5,,,46,85
11880,note_on,5,0,4,,,,,,,,3,,,62,85
11880,note_on,5,0,5,,,,,,,,4,,,46,85
11965,note_on,445,0,2,,,,,,,,1,,,70,0
11965,note_on,445,0,1,,,,,,,,0,,,70,0
11995,note_on,115,0,4,,,,,,,,3,,,62,0
11995,note_on,115,0,5,,,,,,,,4,,,46,0
11995,note_on,115,0,6,,,,,,,,5,,,46,0
12000,note_on,5,0,5,,,,,,,,4,,,46,85
12000,note_on,35,0,1,,,,,,,,0,,,70,64
12000,note_on,0,0,3,,,,,,,,2,,,70,85
12000,note_on,35,0,2,,,,,,,,1,,,70,85
12000,note_on,5,0,4,,,,,,,,3,,,62,85
12000,note_on,5,0,6,,,,,,,,5,,,46,85
12000,note_on,480,0,3,,,,,,,,2,,,82,0
12060,note_on,60,0,1,,,,,,,,0,,,70,0
12060,note_on,60,0,2,,,,,,,,1,,,70,0
12240,note_on,180,0,2,,,,,,,,1,,,80,85
12240,note_on,180,0,1,,,,,,,,0,,,80,64
12300,note_on,60,0,1,,,,,,,,0,,,80,0
12300,note_on,60,0,2,,,,,,,,1,,,80,0
12445,note_on,445,0,4,,,,,,,,3,,,62,0
12445,note_on,445,0,3,,,,,,,,2,,,70,0
12445,note_on,445,0,5,,,,,,,,4,,,46,0
12445,note_on,445,0,6,,,,,,,,5,,,46,0
12480,note_on,180,0,1,,,,,,,,0,,,79,64
12480,note_on,35,0,4,,,,,,,,3,,,62,85
12480,note_on,180,0,2,,,,,,,,1,,,79,85
12480,note_on,35,0,5,,,,,,,,4,,,58,85
12480,note_on,35,0,6,,,,,,,,5,,,58,85
12540,note_on,60,0,1,,,,,,,,0,,,79,0
12540,note_on,60,0,2,,,,,,,,1,,,79,0
12720,note_on,180,0,1,,,,,,,,0,,,77,64
12720,note_on,180,0,2,,,,,,,,1,,,77,85
12780,note_on,60,0,1,,,,,,,,0,,,77,0
12780,note_on,60,0,2,,,,,,,,1,,,77,0
12925,note_on,445,0,4,,,,,,,,3,,,62,0
12925,note_on,445,0,6,,,,,,,,5,,,58,0
12925,note_on,445,0,5,,,,,,,,4,,,58,0
12960,note_on,180,0,2,,,,,,,,1,,,79,85
12960,note_on,180,0,1,,,,,,,,0,,,79,64
12960,note_on,35,0,4,,,,,,,,3,,,58,85
12960,note_on,35,0,5,,,,,,,,4,,,39,85
12960,note_on,515,0,3,,,,,,,,2,,,63,85
12960,note_on,35,0,6,,,,,,,,5,,,39,85
13185,note_on,225,0,4,,,,,,,,3,,,58,0
13185,note_on,225,0,6,,,,,,,,5,,,39,0
13185,note_on,225,0,5,,,,,,,,4,,,39,0
13200,note_on,15,0,5,,,,,,,,4,,,39,85
13200,note_on,15,0,6,,,,,,,,5,,,39,85
13200,note_on,15,0,4,,,,,,,,3,,,55,85
13315,note_on,115,0,5,,,,,,,,4,,,39,0
13315,note_on,115,0,6,,,,,,,,5,,,39,0
13315,note_on,115,0,4,,,,,,,,3,,,55,0
13320,note_on,5,0,5,,,,,,,,4,,,39,85
13320,note_on,5,0,6,,,,,,,,5,,,39,85
13320,note_on,5,0,4,,,,,,,,3,,,55,85
13405,note_on,445,0,1,,,,,,,,0,,,79,0
13405,note_on,445,0,3,,,,,,,,2,,,63,0
13405,note_on,445,0,2,,,,,,,,1,,,79,0
13435,note_on,115,0,5,,,,,,,,4,,,39,0
13435,note_on,115,0,6,,,,,,,,5,,,39,0
13435,note_on,115,0,4,,,,,,,,3,,,55,0
13440,note_on,35,0,3,,,,,,,,2,,,75,101
13440,note_on,35,0,1,,,,,,,,0,,,75,64
13440,note_on,5,0,6,,,,,,,,5,,,39,85
13440,note_on,35,0,2,,,,,,,,1,,,75,85
13440,note_on,5,0,5,,,,,,,,4,,,39,85
13440,note_on,5,0,4,,,,,,,,3,,,55,85
13500,note_on,60,0,3,,,,,,,,2,,,75,0
13680,note_on,180,0,3,,,,,,,,2,,,63,85
13740,note_on,60,0,3,,,,,,,,2,,,63,0
13885,note_on,445,0,5,,,,,,,,4,,,39,0
13885,note_on,445,0,1,,,,,,,,0,,,75,0
13885,note_on,445,0,6,,,,,,,,5,,,39,0
13885,note_on,445,0,2,,,,,,,,1,,,75,0
13885,note_on,445,0,4,,,,,,,,3,,,55,0
13920,note_on,35,0,4,,,,,,,,3,,,55,85
13920,note_on,180,0,3,,,,,,,,2,,,63,85
13920,note_on,35,0,6,,,,,,,,5,,,51,85
13920,note_on,35,0,5,,,,,,,,4,,,51,85
13980,note_on,60,0,3,,,,,,,,2,,,63,0
14160,note_on,180,0,3,,,,,,,,2,,,63,85
14220,note_on,60,0,3,,,,,,,,2,,,63,0
14365,note_on,445,0,4,,,,,,,,3,,,55,0
14365,note_on,445,0,6,,,,,,,,5,,,51,0
14365,note_on,445,0,5,,,,,,,,4,,,51,0
14400,note_on,515,0,1,,,,,,,,0,,,63,64
14400,note_on,35,0,5,,,,,,,,4,,,39,85
14400,note_on,35,0,4,,,,,,,,3,,,55,85
14400,note_on,515,0,2,,,,,,,,1,,,63,85
14400,note_on,180,0,3,,,,,,,,2,,,63,85
14400,note_on,35,0,6,,,,,,,,5,,,39,85
14625,note_on,225,0,4,,,,,,,,3,,,55,0
14625,note_on,225,0,6,,,,,,,,5,,,39,0
14625,note_on,225,0,5,,,,,,,,4,,,39,0
14640,note_on,15,0,4,,,,,,,,3,,,55,85
14640,note_on,15,0,6,,,,,,,,5,,,39,85
14640,note_on,15,0,5,,,,,,,,4,,,39,85
14755,note_on,115,0,4,,,,,,,,3,,,55,0
14755,note_on,115,0,5,,,,,,,,4,,,39,0
14755,note_on,115,0,6,,,,,,,,5,,,39,0
14760,note_on,5,0,4,,,,,,,,3,,,55,85
14760,note_on,5,0,6,,,,,,,,5,,,39,85
14760,note_on,5,0,5,,,,,,,,4,,,39,85
14845,note_on,445,0,3,,,,,,,,2,,,63,0
14845,note_on,445,0,2,,,,,,,,1,,,63,0
14845,note_on,445,0,1,,,,,,,,0,,,63,0
14875,note_on,115,0,4,,,,,,,,3,,,55,0
14875,note_on,115,0,5,,,,,,,,4,,,39,0
14875,note_on,115,0,6,,,,,,,,5,,,39,0
14880,note_on,5,0,5,,,,,,,,4,,,39,85
14880,note_on,5,0,6,,,,,,,,5,,,39,85
14880,note_on,35,0,3,,,,,,,,2,,,73,101
14880,note_on,5,0,4,,,,,,,,3,,,55,85
14940,note_on,60,0,3,,,,,,,,2,,,73,0
15120,note_on,275,0,1,,,,,,,,0,,,65,64
15120,note_on,180,0,3,,,,,,,,2,,,63,85
15120,note_on,275,0,2,,,,,,,,1,,,65,85
15180,note_on,60,0,3,,,,,,,,2,,,63,0
15235,note_on,115,0,1,,,,,,,,0,,,65,0
15235,note_on,115,0,2,,,,,,,,1,,,65,0
15240,note_on,5,0,1,,,,,,,,0,,,67,64
15240,note_on,5,0,2,,,,,,,,1,,,67,85
15325,note_on,445,0,6,,,,,,,,5,,,39,0
15325,note_on,445,0,5,,,,,,,,4,,,39,0
15325,note_on,445,0,4,,,,,,,,3,,,55,0
15355,note_on,115,0,1,,,,,,,,0,,,67,0
15355,note_on,115,0,2,,,,,,,,1,,,67,0
15360,note_on,35,0,4,,,,,,,,3,,,55,85
15360,note_on,5,0,2,,,,,,,,1,,,68,85
15360,note_on,5,0,1,,,,,,,,0,,,68,64
15360,note_on,35,0,6,,,,,,,,5,,,51,85
15360,note_on,35,0,5,,,,,,,,4,,,51,85
15360,note_on,180,0,3,,,,,,,,2,,,63,85
15420,note_on,60,0,3,,,,,,,,2,,,63,0
15475,note_on,115,0,2,,,,,,,,1,,,68,0
15475,note_on,115,0,1,,,,,,,,0,,,68,0
15480,note_on,5,0,1,,,,,,,,0,,,70,64
15480,note_on,5,0,2,,,,,,,,1,,,70,85
15595,note_on,115,0,1,,,,,,,,0,,,70,0
15595,note_on,115,0,2,,,,,,,,1,,,70,0
15600,note_on,5,0,1,,,,,,,,0,,,72,64
15600,note_on,5,0,2,,,,,,,,1,,,72,85
15600,note_on,180,0,3,,,,,,,,2,,,63,85
15660,note_on,60,0,3,,,,,,,,2,,,63,0
15715,note_on,115,0,1,,,,,,,,0,,,72,0
15715,note_on,115,0,2,,,,,,,,1,,,72,0
15720,note_on,5,0,2,,,,,,,,1,,,74,85
15720,note_on,5,0,1,,,,,,,,0,,,74,64
15805,note_on,445,0,4,,,,,,,,3,,,55,0
15805,note_on,445,0,6,,,,,,,,5,,,51,0
15805,note_on,445,0,5,,,,,,,,4,,,51,0
15835,note_on,115,0,1,,,,,,,,0,,,74,0
15835,note_on,115,0,2,,,,,,,,1,,,74,0
15840,note_on,35,0,6,,,,,,,,5,,,39,85
15840,note_on,5,0,2,,,,,,,,1,,,75,101
15840,note_on,5,0,1,,,,,,,,0,,,75,80
15840,note_on,35,0,5,,,,,,,,4,,,39,85
15840,note_on,35,0,4,,,,,,,,3,,,55,85
15840,note_on,180,0,3,,,,,,,,2,,,63,85
16065,note_on,225,0,6,,,,,,,,5,,,39,0
16065,note_on,225,0,4,,,,,,,,3,,,55,0
16065,note_on,225,0,5,,,,,,,,4,,,39,0
16080,note_on,15,0,4,,,,,,,,3,,,55,85
16080,note_on,15,0,5,,,,,,,,4,,,39,85
16080,note_on,15,0,6,,,,,,,,5,,,39,85
16195,note_on,115,0,6,,,,,,,,5,,,39,0
16195,note_on,115,0,5,,,,,,,,4,,,39,0
16195,note_on,115,0,4,,,,,,,,3,,,55,0
16200,note_on,5,0,6,,,,,,,,5,,,39,85
16200,note_on,5,0,5,,,,,,,,4,,,39,85
16200,note_on,5,0,4,,,,,,,,3,,,55,85
16285,note_on,445,0,3,,,,,,,,2,,,63,0
16315,note_on,115,0,5,,,,,,,,4,,,39,0
16315,note_on,115,0,4,,,,,,,,3,,,55,0
16315,note_on,115,0,6,,,,,,,,5,,,39,0
16320,note_on,0,0,2,,,,,,,,1,,,63,85
16320,note_on,35,0,3,,,,,,,,2,,,63,85
16320,note_on,480,0,1,,,,,,,,0,,,75,0
16320,note_on,0,0,1,,,,,,,,0,,,63,64
16320,note_on,5,0,4,,,,,,,,3,,,55,85
16320,note_on,480,0,2,,,,,,,,1,,,75,0
16320,note_on,5,0,5,,,,,,,,4,,,39,85
16320,note_on,5,0,6,,,,,,,,5,,,39,85
16380,note_on,60,0,3,,,,,,,,2,,,63,0
16560,note_on,180,0,3,,,,,,,,2,,,73,85
16620,note_on,60,0,3,,,,,,,,2,,,73,0
16765,note_on,445,0,4,,,,,,,,3,,,55,0
16765,note_on,445,0,6,,,,,,,,5,,,39,0
16765,note_on,445,0,2,,,,,,,,1,,,63,0
16765,note_on,445,0,1,,,,,,,,0,,,63,0
16765,note_on,445,0,5,,,,,,,,4,,,39,0
16800,note_on,35,0,4,,,,,,,,3,,,55,85
16800,note_on,180,0,3,,,,,,,,2,,,72,85
16800,note_on,35,0,5,,,,,,,,4,,,51,85
16800,note_on,35,0,6,,,,,,,,5,,,51,85
16860,note_on,60,0,3,,,,,,,,2,,,72,0
17040,note_on,180,0,3,,,,,,,,2,,,70,85
17100,note_on,60,0,3,,,,,,,,2,,,70,0
17245,note_on,445,0,4,,,,,,,,3,,,55,0
17245,note_on,445,0,6,,,,,,,,5,,,51,0
17245,note_on,445,0,5,,,,,,,,4,,,51,0
17280,note_on,35,0,6,,,,,,,,5,,,44,85
17280,note_on,35,0,4,,,,,,,,3,,,63,85
17280,note_on,35,0,5,,,,,,,,4,,,44,85
17280,note_on,515,0,1,,,,,,,,0,,,72,64
17280,note_on,180,0,3,,,,,,,,2,,,72,85
17280,note_on,515,0,2,,,,,,,,1,,,72,85
17505,note_on,225,0,5,,,,,,,,4,,,44,0
17505,note_on,225,0,4,,,,,,,,3,,,63,0
17505,note_on,225,0,6,,,,,,,,5,,,44,0
17520,note_on,15,0,5,,,,,,,,4,,,44,85
17520,note_on,15,0,4,,,,,,,,3,,,63,85
17520,note_on,15,0,6,,,,,,,,5,,,44,85
17635,note_on,115,0,4,,,,,,,,3,,,63,0
17635,note_on,115,0,5,,,,,,,,4,,,44,0
17635,note_on,115,0,6,,,,,,,,5,,,44,0
17640,note_on,5,0,5,,,,,,,,4,,,44,85
17640,note_on,5,0,4,,,,,,,,3,,,63,85
17640,note_on,5,0,6,,,,,,,,5,,,44,85
17725,note_on,445,0,2,,,,,,,,1,,,72,0
17725,note_on,445,0,3,,,,,,,,2,,,72,0
17725,note_on,445,0,1,,,,,,,,0,,,72,0
17755,note_on,115,0,4,,,,,,,,3,,,63,0
17755,note_on,115,0,5,,,,,,,,4,,,44,0
17755,note_on,115,0,6,,,,,,,,5,,,44,0
17760,note_on,35,0,2,,,,,,,,1,,,84,101
17760,note_on,35,0,1,,,,,,,,0,,,84,80
17760,note_on,5,0,5,,,,,,,,4,,,44,85
17760,note_on,5,0,4,,,,,,,,3,,,63,85
17760,note_on,5,0,6,,,,,,,,5,,,44,85
17760,note_on,35,0,3,,,,,,,,2,,,68,85
17820,note_on,60,0,2,,,,,,,,1,,,84,0
17820,note_on,60,0,1,,,,,,,,0,,,84,0
18000,note_on,180,0,2,,,,,,,,1,,,72,85
18000,note_on,180,0,1,,,,,,,,0,,,72,64
18060,note_on,60,0,2,,,,,,,,1,,,72,0
18060,note_on,60,0,1,,,,,,,,0,,,72,0
18205,note_on,445,0,6,,,,,,,,5,,,44,0
18205,note_on,445,0,5,,,,,,,,4,,,44,0
18205,note_on,445,0,3,,,,,,,,2,,,68,0
18205,note_on,445,0,4,,,,,,,,3,,,63,0
18240,note_on,35,0,6,,,,,,,,5,,,53,85
18240,note_on,35,0,5,,,,,,,,4,,,53,85
18240,note_on,180,0,1,,,,,,,,0,,,72,64
18240,note_on,180,0,2,,,,,,,,1,,,72,85
18240,note_on,35,0,4,,,,,,,,3,,,68,85
18300,note_on,60,0,2,,,,,,,,1,,,72,0
18300,note_on,60,0,1,,,,,,,,0,,,72,0
18480,note_on,180,0,2,,,,,,,,1,,,72,85
18480,note_on,180,0,1,,,,,,,,0,,,72,64
18540,note_on,60,0,2,,,,,,,,1,,,72,0
18540,note_on,60,0,1,,,,,,,,0,,,72,0
18685,note_on,445,0,5,,,,,,,,4,,,53,0
18685,note_on,445,0,6,,,,,,,,5,,,53,0
18685,note_on,445,0,4,,,,,,,,3,,,68,0
18720,note_on,35,0,4,,,,,,,,3,,,67,85
18720,note_on,180,0,2,,,,,,,,1,,,72,85
18720,note_on,35,0,6,,,,,,,,5,,,52,85
18720,note_on,515,0,3,,,,,,,,2,,,72,85
18720,note_on,180,0,1,,,,,,,,0,,,72,64
18720,note_on,35,0,5,,,,,,,,4,,,52,85
18945,note_on,225,0,5,,,,,,,,4,,,52,0
18945,note_on,225,0,6,,,,,,,,5,,,52,0
18945,note_on,225,0,4,,,,,,,,3,,,67,0
18960,note_on,15,0,5,,,,,,,,4,,,52,85
18960,note_on,15,0,6,,,,,,,,5,,,52,85
18960,note_on,15,0,4,,,,,,,,3,,,67,85
19075,note_on,115,0,5,,,,,,,,4,,,52,0
19075,note_on,115,0,4,,,,,,,,3,,,67,0
19075,note_on,115,0,6,,,,,,,,5,,,52,0
19080,note_on,5,0,5,,,,,,,,4,,,52,85
19080,note_on,5,0,4,,,,,,,,3,,,67,85
19080,note_on,5,0,6,,,,,,,,5,,,52,85
19165,note_on,445,0,1,,,,,,,,0,,,72,0
19165,note_on,445,0,2,,,,,,,,1,,,72,0
19165,note_on,445,0,3,,,,,,,,2,,,72,0
19195,note_on,115,0,4,,,,,,,,3,,,67,0
19195,note_on,115,0,6,,,,,,,,5,,,52,0
19195,note_on,115,0,5,,,,,,,,4,,,52,0
19200,note_on,5,0,5,,,,,,,,4,,,52,85
19200,note_on,5,0,6,,,,,,,,5,,,52,85
19200,note_on,35,0,1,,,,,,,,0,,,72,64
19200,note_on,35,0,2,,,,,,,,1,,,72,85
19200,note_on,5,0,4,,,,,,,,3,,,67,85
19260,note_on,60,0,1,,,,,,,,0,,,72,0
19260,note_on,60,0,2,,,,,,,,1,,,72,0
19440,note_on,275,0,3,,,,,,,,2,,,74,85
19440,note_on,180,0,2,,,,,,,,1,,,82,85
19440,note_on,180,0,1,,,,,,,,0,,,82,64
19500,note_on,60,0,2,,,,,,,,1,,,82,0
19500,note_on,60,0,1,,,,,,,,0,,,82,0
19555,note_on,115,0,3,,,,,,,,2,,,74,0
19560,note_on,5,0,3,,,,,,,,2,,,76,85
19645,note_on,445,0,4,,,,,,,,3,,,67,0
19645,note_on,445,0,5,,,,,,,,4,,,52,0
19645,note_on,445,0,6,,,,,,,,5,,,52,0
19675,note_on,115,0,3,,,,,,,,2,,,76,0
19680,note_on,35,0,5,,,,,,,,4,,,64,85
19680,note_on,5,0,3,,,,,,,,2,,,77,85
19680,note_on,180,0,1,,,,,,,,0,,,81,64
19680,note_on,180,0,2,,,,,,,,1,,,81,85
19680,note_on,35,0,4,,,,,,,,3,,,67,85
19680,note_on,35,0,6,,,,,,,,5,,,64,85
19740,note_on,60,0,1,,,,,,,,0,,,81,0
19740,note_on,60,0,2,,,,,,,,1,,,81,0
19795,note_on,115,0,3,,,,,,,,2,,,77,0
19800,note_on,5,0,3,,,,,,,,2,,,79,85
19915,note_on,115,0,3,,,,,,,,2,,,79,0
19920,note_on,180,0,1,,,,,,,,0,,,79,64
19920,note_on,180,0,2,,,,,,,,1,,,79,85
19920,note_on,5,0,3,,,,,,,,2,,,81,85
19980,note_on,60,0,1,,,,,,,,0,,,79,0
19980,note_on,60,0,2,,,,,,,,1,,,79,0
20035,note_on,115,0,3,,,,,,,,2,,,81,0
20040,note_on,5,0,3,,,,,,,,2,,,82,85
20125,note_on,445,0,4,,,,,,,,3,,,67,0
20125,note_on,445,0,5,,,,,,,,4,,,64,0
20125,note_on,445,0,6,,,,,,,,5,,,64,0
20155,note_on,115,0,3,,,,,,,,2,,,82,0
20160,note_on,35,0,4,,,,,,,,3,,,67,85
20160,note_on,35,0,5,,,,,,,,4,,,52,85
20160,note_on,180,0,2,,,,,,,,1,,,72,85
20160,note_on,5,0,3,,,,,,,,2,,,84,101
20160,note_on,180,0,1,,,,,,,,0,,,72,64
20160,note_on,35,0,6,,,,,,,,5,,,52,85
20385,note_on,225,0,4,,,,,,,,3,,,67,0
20385,note_on,225,0,5,,,,,,,,4,,,52,0
20385,note_on,225,0,6,,,,,,,,5,,,52,0
20400,note_on,15,0,6,,,,,,,,5,,,52,85
20400,note_on,15,0,4,,,,,,,,3,,,67,85
20400,note_on,15,0,5,,,,,,,,4,,,52,85
20515,note_on,115,0,4,,,,,,,,3,,,67,0
20515,note_on,115,0,5,,,,,,,,4,,,52,0
20515,note_on,115,0,6,,,,,,,,5,,,52,0
20520,note_on,5,0,4,,,,,,,,3,,,67,85
20520,note_on,5,0,6,,,,,,,,5,,,52,85
20520,note_on,5,0,5,,,,,,,,4,,,52,85
20605,note_on,445,0,2,,,,,,,,1,,,72,0
20605,note_on,445,0,1,,,,,,,,0,,,72,0
20635,note_on,115,0,4,,,,,,,,3,,,67,0
20635,note_on,115,0,5,,,,,,,,4,,,52,0
20635,note_on,115,0,6,,,,,,,,5,,,52,0
20640,note_on,0,0,3,,,,,,,,2,,,72,85
20640,note_on,480,0,3,,,,,,,,2,,,84,0
20640,note_on,35,0,1,,,,,,,,0,,,72,64
20640,note_on,5,0,6,,,,,,,,5,,,52,85
20640,note_on,35,0,2,,,,,,,,1,,,72,85
20640,note_on,5,0,4,,,,,,,,3,,,67,85
20640,note_on,5,0,5,,,,,,,,4,,,52,85
20700,note_on,60,0,2,,,,,,,,1,,,72,0
20700,note_on,60,0,1,,,,,,,,0,,,72,0
20880,note_on,180,0,2,,,,,,,,1,,,82,85
20880,note_on,180,0,1,,,,,,,,0,,,82,64
20940,note_on,60,0,2,,,,,,,,1,,,82,0
20940,note_on,60,0,1,,,,,,,,0,,,82,0
21085,note_on,445,0,3,,,,,,,,2,,,72,0
21085,note_on,445,0,4,,,,,,,,3,,,67,0
21085,note_on,445,0,5,,,,,,,,4,,,52,0
21085,note_on,445,0,6,,,,,,,,5,,,52,0
21120,note_on,180,0,1,,,,,,,,0,,,81,64
21120,note_on,35,0,6,,,,,,,,5,,,64,85
21120,note_on,180,0,2,,,,,,,,1,,,81,85
21120,note_on,35,0,5,,,,,,,,4,,,64,85
21120,note_on,35,0,4,,,,,,,,3,,,64,85
21180,note_on,60,0,2,,,,,,,,1,,,81,0
21180,note_on,60,0,1,,,,,,,,0,,,81,0
21360,note_on,180,0,2,,,,,,,,1,,,79,85
21360,note_on,180,0,1,,,,,,,,0,,,79,64
21420,note_on,60,0,1,,,,,,,,0,,,79,0
21420,note_on,60,0,2,,,,,,,,1,,,79,0
21565,note_on,445,0,4,,,,,,,,3,,,64,0
21565,note_on,445,0,5,,,,,,,,4,,,64,0
21565,note_on,445,0,6,,,,,,,,5,,,64,0
21600,note_on,35,0,4,,,,,,,,3,,,60,85
21600,note_on,515,0,3,,,,,,,,2,,,65,85
21600,note_on,180,0,2,,,,,,,,1,,,81,85
21600,note_on,180,0,1,,,,,,,,0,,,81,64
21600,note_on,35,0,5,,,,,,,,4,,,53,85
21600,note_on,35,0,6,,,,,,,,5,,,53,85
21825,note_on,225,0,5,,,,,,,,4,,,53,0
21825,note_on,225,0,6,,,,,,,,5,,,53,0
21825,note_on,225,0,4,,,,,,,,3,,,60,0
21840,note_on,15,0,4,,,,,,,,3,,,57,85
21840,note_on,15,0,5,,,,,,,,4,,,41,85
21840,note_on,15,0,6,,,,,,,,5,,,41,85
21955,note_on,115,0,4,,,,,,,,3,,,57,0
21955,note_on,115,0,5,,,,,,,,4,,,41,0
21955,note_on,115,0,6,,,,,,,,5,,,41,0
21960,note_on,5,0,4,,,,,,,,3,,,57,85
21960,note_on,5,0,5,,,,,,,,4,,,41,85
21960,note_on,5,0,6,,,,,,,,5,,,41,85
22045,note_on,445,0,3,,,,,,,,2,,,65,0
22045,note_on,445,0,2,,,,,,,,1,,,81,0
22045,note_on,445,0,1,,,,,,,,0,,,81,0
22075,note_on,115,0,6,,,,,,,,5,,,41,0
22075,note_on,115,0,5,,,,,,,,4,,,41,0
22075,note_on,115,0,4,,,,,,,,3,,,57,0
22080,note_on,5,0,5,,,,,,,,4,,,41,85
22080,note_on,5,0,6,,,,,,,,5,,,41,85
22080,note_on,35,0,1,,,,,,,,0,,,77,64
22080,note_on,35,0,2,,,,,,,,1,,,77,85
22080,note_on,35,0,3,,,,,,,,2,,,77,101
22080,note_on,5,0,4,,,,,,,,3,,,57,85
22140,note_on,60,0,3,,,,,,,,2,,,77,0
22320,note_on,180,0,3,,,,,,,,2,,,65,85
22380,note_on,60,0,3,,,,,,,,2,,,65,0
22525,note_on,445,0,4,,,,,,,,3,,,57,0
22525,note_on,445,0,5,,,,,,,,4,,,41,0
22525,note_on,445,0,1,,,,,,,,0,,,77,0
22525,note_on,445,0,6,,,,,,,,5,,,41,0
22525,note_on,445,0,2,,,,,,,,1,,,77,0
22560,note_on,35,0,6,,,,,,,,5,,,53,85
22560,note_on,35,0,4,,,,,,,,3,,,57,85
22560,note_on,35,0,5,,,,,,,,4,,,53,85
22560,note_on,180,0,3,,,,,,,,2,,,65,85
22620,note_on,60,0,3,,,,,,,,2,,,65,0
22800,note_on,180,0,3,,,,,,,,2,,,65,85
22860,note_on,60,0,3,,,,,,,,2,,,65,0
23005,note_on,445,0,6,,,,,,,,5,,,53,0
23005,note_on,445,0,5,,,,,,,,4,,,53,0
23005,note_on,445,0,4,,,,,,,,3,,,57,0
23040,note_on,35,0,6,,,,,,,,5,,,41,85
23040,note_on,515,0,1,,,,,,,,0,,,65,64
23040,note_on,35,0,4,,,,,,,,3,,,57,85
23040,note_on,35,0,5,,,,,,,,4,,,41,85
23040,note_on,180,0,3,,,,,,,,2,,,65,85
23040,note_on,515,0,2,,,,,,,,1,,,65,85
23265,note_on,225,0,5,,,,,,,,4,,,41,0
23265,note_on,225,0,6,,,,,,,,5,,,41,0
23265,note_on,225,0,4,,,,,,,,3,,,57,0
23280,note_on,15,0,6,,,,,,,,5,,,41,85
23280,note_on,15,0,4,,,,,,,,3,,,57,85
23280,note_on,15,0,5,,,,,,,,4,,,41,85
23395,note_on,115,0,5,,,,,,,,4,,,41,0
23395,note_on,115,0,6,,,,,,,,5,,,41,0
23395,note_on,115,0,4,,,,,,,,3,,,57,0
23400,note_on,5,0,5,,,,,,,,4,,,41,85
23400,note_on,5,0,6,,,,,,,,5,,,41,85
23400,note_on,5,0,4,,,,,,,,3,,,57,85
23485,note_on,445,0,1,,,,,,,,0,,,65,0
23485,note_on,445,0,3,,,,,,,,2,,,65,0
23485,note_on,445,0,2,,,,,,,,1,,,65,0
23515,note_on,115,0,4,,,,,,,,3,,,57,0
23515,note_on,115,0,6,,,,,,,,5,,,41,0
23515,note_on,115,0,5,,,,,,,,4,,,41,0
23520,note_on,35,0,3,,,,,,,,2,,,75,101
23520,note_on,5,0,6,,,,,,,,5,,,41,85
23520,note_on,5,0,4,,,,,,,,3,,,57,85
23520,note_on,5,0,5,,,,,,,,4,,,41,85
23580,note_on,60,0,3,,,,,,,,2,,,75,0
23760,note_on,180,0,3,,,,,,,,2,,,65,85
23760,note_on,275,0,1,,,,,,,,0,,,67,64
23760,note_on,275,0,2,,,,,,,,1,,,67,85
23820,note_on,60,0,3,,,,,,,,2,,,65,0
23875,note_on,115,0,1,,,,,,,,0,,,67,0
23875,note_on,115,0,2,,,,,,,,1,,,67,0
23880,note_on,5,0,1,,,,,,,,0,,,69,64
23880,note_on,5,0,2,,,,,,,,1,,,69,85
23965,note_on,445,0,6,,,,,,,,5,,,41,0
23965,note_on,445,0,4,,,,,,,,3,,,57,0
23965,note_on,445,0,5,,,,,,,,4,,,41,0
23995,note_on,115,0,1,,,,,,,,0,,,69,0
23995,note_on,115,0,2,,,,,,,,1,,,69,0
24000,note_on,35,0,6,,,,,,,,5,,,53,85
24000,note_on,5,0,1,,,,,,,,0,,,70,64
24000,note_on,35,0,4,,,,,,,,3,,,57,85
24000,note_on,5,0,2,,,,,,,,1,,,70,85
24000,note_on,180,0,3,,,,,,,,2,,,65,85
24000,note_on,35,0,5,,,,,,,,4,,,53,85
24060,note_on,60,0,3,,,,,,,,2,,,65,0
24115,note_on,115,0,2,,,,,,,,1,,,70,0
24115,note_on,115,0,1,,,,,,,,0,,,70,0
24120,note_on,5,0,2,,,,,,,,1,,,72,85
24120,note_on,5,0,1,,,,,,,,0,,,72,64
24235,note_on,115,0,2,,,,,,,,1,,,72,0
24235,note_on,115,0,1,,,,,,,,0,,,72,0
24240,note_on,180,0,3,,,,,,,,2,,,65,85
24240,note_on,5,0,1,,,,,,,,0,,,74,64
24240,note_on,5,0,2,,,,,,,,1,,,74,85
24300,note_on,60,0,3,,,,,,,,2,,,65,0
24355,note_on,115,0,1,,,,,,,,0,,,74,0
24355,note_on,115,0,2,,,,,,,,1,,,74,0
24360,note_on,5,0,1,,,,,,,,0,,,75,64
24360,note_on,5,0,2,,,,,,,,1,,,75,85
24445,note_on,445,0,5,,,,,,,,4,,,53,0
24445,note_on,445,0,6,,,,,,,,5,,,53,0
24445,note_on,445,0,4,,,,,,,,3,,,57,0
24475,note_on,115,0,2,,,,,,,,1,,,75,0
24475,note_on,115,0,1,,,,,,,,0,,,75,0
24480,note_on,180,0,3,,,,,,,,2,,,65,85
24480,note_on,35,0,4,,,,,,,,3,,,57,85
24480,note_on,5,0,2,,,,,,,,1,,,77,101
24480,note_on,5,0,1,,,,,,,,0,,,77,80
24480,note_on,35,0,6,,,,,,,,5,,,41,85
24480,note_on,35,0,5,,,,,,,,4,,,41,85
24705,note_on,225,0,6,,,,,,,,5,,,41,0
24705,note_on,225,0,4,,,,,,,,3,,,57,0
24705,note_on,225,0,5,,,,,,,,4,,,41,0
24720,note_on,15,0,5,,,,,,,,4,,,41,85
24720,note_on,15,0,6,,,,,,,,5,,,41,85
24720,note_on,15,0,4,,,,,,,,3,,,57,85
24835,note_on,115,0,5,,,,,,,,4,,,41,0
24835,note_on,115,0,4,,,,,,,,3,,,57,0
24835,note_on,115,0,6,,,,,,,,5,,,41,0
24840,note_on,5,0,6,,,,,,,,5,,,41,85
24840,note_on,5,0,5,,,,,,,,4,,,41,85
24840,note_on,5,0,4,,,,,,,,3,,,57,85
24925,note_on,445,0,3,,,,,,,,2,,,65,0
24955,note_on,115,0,5,,,,,,,,4,,,41,0
24955,note_on,115,0,6,,,,,,,,5,,,41,0
24955,note_on,115,0,4,,,,,,,,3,,,57,0
24960,note_on,480,0,2,,,,,,,,1,,,77,0
24960,note_on,480,0,1,,,,,,,,0,,,77,0
24960,note_on,0,0,1,,,,,,,,0,,,65,64
24960,note_on,5,0,5,,,,,,,,4,,,41,85
24960,note_on,0,0,2,,,,,,,,1,,,65,85
24960,note_on,35,0,3,,,,,,,,2,,,65,85
24960,note_on,5,0,6,,,,,,,,5,,,41,85
24960,note_on,5,0,4,,,,,,,,3,,,57,85
25020,note_on,60,0,3,,,,,,,,2,,,65,0
25200,note_on,180,0,3,,,,,,,,2,,,75,85
25260,note_on,60,0,3,,,,,,,,2,,,75,0
25405,note_on,445,0,1,,,,,,,,0,,,65,0
25405,note_on,445,0,5,,,,,,,,4,,,41,0
25405,note_on,445,0,2,,,,,,,,1,,,65,0
25405,note_on,445,0,6,,,,,,,,5,,,41,0
25405,note_on,445,0,4,,,,,,,,3,,,57,0
25440,note_on,35,0,6,,,,,,,,5,,,53,85
25440,note_on,35,0,4,,,,,,,,3,,,57,85
25440,note_on,180,0,3,,,,,,,,2,,,74,85
25440,note_on,35,0,5,,,,,,,,4,,,53,85
25500,note_on,60,0,3,,,,,,,,2,,,74,0
25680,note_on,180,0,3,,,,,,,,2,,,72,85
25740,note_on,60,0,3,,,,,,,,2,,,72,0
25885,note_on,445,0,5,,,,,,,,4,,,53,0
25885,note_on,445,0,6,,,,,,,,5,,,53,0
25885,note_on,445,0,4,,,,,,,,3,,,57,0
25920,note_on,35,0,4,,,,,,,,3,,,58,85
25920,note_on,35,0,6,,,,,,,,5,,,46,85
25920,note_on,35,0,5,,,,,,,,4,,,46,85
25920,note_on,180,0,3,,,,,,,,2,,,74,85
26160,note_on,755,0,2,,,,,,,,1,,,82,85
26160,note_on,755,0,1,,,,,,,,0,,,82,64
26365,note_on,445,0,3,,,,,,,,2,,,74,0
26385,note_on,225,0,2,,,,,,,,1,,,82,0
26385,note_on,225,0,1,,,,,,,,0,,,82,0
26400,note_on,15,0,2,,,,,,,,1,,,81,85
26400,note_on,15,0,1,,,,,,,,0,,,81,64
26625,note_on,225,0,1,,,,,,,,0,,,81,0
26625,note_on,225,0,2,,,,,,,,1,,,81,0
26640,note_on,15,0,2,,,,,,,,1,,,79,85
26640,note_on,15,0,1,,,,,,,,0,,,79,64
26865,note_on,225,0,2,,,,,,,,1,,,79,0
26865,note_on,225,0,1,,,,,,,,0,,,79,0
26880,note_on,15,0,2,,,,,,,,1,,,77,85
26880,note_on,15,0,1,,,,,,,,0,,,77,64
27105,note_on,225,0,2,,,,,,,,1,,,77,0
27105,note_on,225,0,1,,,,,,,,0,,,77,0
27120,note_on,15,0,1,,,,,,,,0,,,75,64
27120,note_on,15,0,2,,,,,,,,1,,,75,85
27345,note_on,225,0,2,,,,,,,,1,,,75,0
27345,note_on,225,0,1,,,,,,,,0,,,75,0
27360,note_on,15,0,2,,,,,,,,1,,,74,85
27360,note_on,15,0,1,,,,,,,,0,,,74,64
27585,note_on,225,0,2,,,,,,,,1,,,74,0
27585,note_on,225,0,1,,,,,,,,0,,,74,0
27600,note_on,15,0,2,,,,,,,,1,,,79,85
27600,note_on,15,0,1,,,,,,,,0,,,79,64
27600,note_on,1235,0,3,,,,,,,,2,,,82,85
27825,note_on,225,0,1,,,,,,,,0,,,79,0
27825,note_on,225,0,3,,,,,,,,2,,,82,0
27825,note_on,225,0,2,,,,,,,,1,,,79,0
27840,note_on,15,0,3,,,,,,,,2,,,81,85
27840,note_on,15,0,1,,,,,,,,0,,,77,64
27840,note_on,15,0,2,,,,,,,,1,,,77,85
28065,note_on,225,0,2,,,,,,,,1,,,77,0
28065,note_on,225,0,3,,,,,,,,2,,,81,0
28065,note_on,225,0,1,,,,,,,,0,,,77,0
28080,note_on,15,0,2,,,,,,,,1,,,75,85
28080,note_on,15,0,3,,,,,,,,2,,,79,85
28080,note_on,15,0,1,,,,,,,,0,,,75,64
28305,note_on,225,0,1,,,,,,,,0,,,75,0
28305,note_on,225,0,2,,,,,,,,1,,,75,0
28305,note_on,225,0,3,,,,,,,,2,,,79,0
28320,note_on,15,0,1,,,,,,,,0,,,74,64
28320,note_on,15,0,3,,,,,,,,2,,,77,85
28320,note_on,15,0,2,,,,,,,,1,,,74,85
28545,note_on,225,0,3,,,,,,,,2,,,77,0
28545,note_on,225,0,2,,,,,,,,1,,,74,0
28545,note_on,225,0,1,,,,,,,,0,,,74,0
28560,note_on,15,0,1,,,,,,,,0,,,72,64
28560,note_on,15,0,2,,,,,,,,1,,,72,85
28560,note_on,15,0,3,,,,,,,,2,,,75,85
28785,note_on,225,0,1,,,,,,,,0,,,72,0
28785,note_on,225,0,2,,,,,,,,1,,,72,0
28785,note_on,225,0,3,,,,,,,,2,,,75,0
28800,note_on,15,0,1,,,,,,,,0,,,70,64
28800,note_on,15,0,2,,,,,,,,1,,,70,85
28800,note_on,15,0,3,,,,,,,,2,,,74,85
29025,note_on,225,0,2,,,,,,,,1,,,70,0
29025,note_on,225,0,1,,,,,,,,0,,,70,0
29025,note_on,225,0,3,,,,,,,,2,,,74,0
29040,note_on,15,0,2,,,,,,,,1,,,74,85
29040,note_on,15,0,1,,,,,,,,0,,,74,64
29040,note_on,15,0,3,,,,,,,,2,,,77,85
29265,note_on,225,0,2,,,,,,,,1,,,74,0
29265,note_on,225,0,1,,,,,,,,0,,,74,0
29265,note_on,225,0,3,,,,,,,,2,,,77,0
29280,note_on,15,0,1,,,,,,,,0,,,72,64
29280,note_on,15,0,3,,,,,,,,2,,,75,85
29280,note_on,15,0,2,,,,,,,,1,,,72,85
29505,note_on,225,0,3,,,,,,,,2,,,75,0
29505,note_on,225,0,1,,,,,,,,0,,,72,0
29505,note_on,225,0,2,,,,,,,,1,,,72,0
29520,note_on,15,0,3,,,,,,,,2,,,74,85
29520,note_on,15,0,1,,,,,,,,0,,,70,64
29520,note_on,15,0,2,,,,,,,,1,,,70,85
29745,note_on,225,0,3,,,,,,,,2,,,74,0
29745,note_on,225,0,1,,,,,,,,0,,,70,0
29745,note_on,225,0,2,,,,,,,,1,,,70,0
29760,note_on,15,0,2,,,,,,,,1,,,69,85
29760,note_on,15,0,1,,,,,,,,0,,,69,64
29760,note_on,15,0,3,,,,,,,,2,,,72,85
29985,note_on,225,0,3,,,,,,,,2,,,72,0
29985,note_on,225,0,2,,,,,,,,1,,,69,0
29985,note_on,225,0,1,,,,,,,,0,,,69,0
30000,note_on,15,0,3,,,,,,,,2,,,70,85
30000,note_on,15,0,1,,,,,,,,0,,,67,64
30000,note_on,15,0,2,,,,,,,,1,,,67,85
30125,note_on,4205,0,5,,,,,,,,4,,,46,0
30125,note_on,4205,0,6,,,,,,,,5,,,46,0
30125,note_on,4205,0,4,,,,,,,,3,,,58,0
30225,note_on,225,0,1,,,,,,,,0,,,67,0
30225,note_on,225,0,2,,,,,,,,1,,,67,0
30225,note_on,225,0,3,,,,,,,,2,,,70,0
30240,note_on,15,0,1,,,,,,,,0,,,65,85
30240,note_on,15,0,2,,,,,,,,1,,,65,85
30240,note_on,15,0,3,,,,,,,,2,,,65,85
30240,note_on,115,0,4,,,,,,,,3,,,60,85
30240,note_on,115,0,5,,,,,,,,4,,,53,85
30240,note_on,115,0,6,,,,,,,,5,,,53,85
30685,note_on,445,0,5,,,,,,,,4,,,53,0
30685,note_on,445,0,2,,,,,,,,1,,,65,0
30685,note_on,445,0,4,,,,,,,,3,,,60,0
30685,note_on,445,0,6,,,,,,,,5,,,53,0
30685,note_on,445,0,3,,,,,,,,2,,,65,0
30685,note_on,445,0,1,,,,,,,,0,,,65,0
30720,note_on,35,0,5,,,,,,,,4,,,53,101
30720,note_on,35,0,2,,,,,,,,1,,,77,101
30720,note_on,35,0,6,,,,,,,,5,,,53,101
30720,note_on,35,0,3,,,,,,,,2,,,77,101
30720,note_on,35,0,4,,,,,,,,3,,,69,101
30720,note_on,35,0,1,,,,,,,,0,,,77,101
30780,note_on,60,0,5,,,,,,,,4,,,53,0
30780,note_on,60,0,2,,,,,,,,1,,,77,0
30780,note_on,60,0,6,,,,,,,,5,,,53,0
30780,note_on,60,0,3,,,,,,,,2,,,77,0
30780,note_on,60,0,4,,,,,,,,3,,,69,0
30780,note_on,60,0,1,,,,,,,,0,,,77,0
30960,note_on,180,0,5,,,,,,,,4,,,53,85
30960,note_on,180,0,2,,,,,,,,1,,,65,85
30960,note_on,180,0,3,,,,,,,,2,,,65,85
30960,note_on,180,0,4,,,,,,,,3,,,65,85
30960,note_on,180,0,1,,,,,,,,0,,,65,85
30960,note_on,180,0,6,,,,,,,,5,,,53,85
31020,note_on,60,0,2,,,,,,,,1,,,65,0
31020,note_on,60,0,1,,,,,,,,0,,,65,0
31020,note_on,60,0,4,,,,,,,,3,,,65,0
31020,note_on,60,0,6,,,,,,,,5,,,53,0
31020,note_on,60,0,3,,,,,,,,2,,,65,0
31020,note_on,60,0,5,,,,,,,,4,,,53,0
31200,note_on,180,0,4,,,,,,,,3,,,65,85
31200,note_on,180,0,5,,,,,,,,4,,,53,85
31200,note_on,180,0,1,,,,,,,,0,,,65,85
31200,note_on,180,0,6,,,,,,,,5,,,53,85
31200,note_on,180,0,3,,,,,,,,2,,,65,85
31200,note_on,180,0,2,,,,,,,,1,,,65,85
31260,note_on,60,0,2,,,,,,,,1,,,65,0
31260,note_on,60,0,3,,,,,,,,2,,,65,0
31260,note_on,60,0,6,,,,,,,,5,,,53,0
31260,note_on,60,0,5,,,,,,,,4,,,53,0
31260,note_on,60,0,4,,,,,,,,3,,,65,0
31260,note_on,60,0,1,,,,,,,,0,,,65,0
31440,note_on,180,0,4,,,,,,,,3,,,65,85
31440,note_on,180,0,2,,,,,,,,1,,,65,85
31440,note_on,180,0,1,,,,,,,,0,,,65,85
31440,note_on,180,0,5,,,,,,,,4,,,53,85
31440,note_on,180,0,6,,,,,,,,5,,,53,85
31440,note_on,180,0,3,,,,,,,,2,,,65,85
31500,note_on,60,0,3,,,,,,,,2,,,65,0
31500,note_on,60,0,4,,,,,,,,3,,,65,0
31500,note_on,60,0,1,,,,,,,,0,,,65,0
31500,note_on,60,0,5,,,,,,,,4,,,53,0
31500,note_on,60,0,6,,,,,,,,5,,,53,0
31500,note_on,60,0,2,,,,,,,,1,,,65,0
31680,note_on,180,0,4,,,,,,,,3,,,65,85
31680,note_on,180,0,1,,,,,,,,0,,,65,85
31680,note_on,180,0,5,,,,,,,,4,,,53,85
31680,note_on,180,0,2,,,,,,,,1,,,65,85
31680,note_on,180,0,6,,,,,,,,5,,,53,85
31680,note_on,180,0,3,,,,,,,,2,,,65,85
32125,note_on,445,0,4,,,,,,,,3,,,65,0
32125,note_on,445,0,6,,,,,,,,5,,,53,0
32125,note_on,445,0,5,,,,,,,,4,,,53,0
32125,note_on,445,0,1,,,,,,,,0,,,65,0
32125,note_on,445,0,3,,,,,,,,2,,,65,0
32125,note_on,445,0,2,,,,,,,,1,,,65,0
32160,note_on,35,0,2,,,,,,,,1,,,75,80
32160,note_on,35,0,5,,,,,,,,4,,,53,80
32160,note_on,35,0,1,,,,,,,,0,,,75,80
32160,note_on,35,0,6,,,,,,,,5,,,53,80
32160,note_on,35,0,3,,,,,,,,2,,,75,80
32160,note_on,35,0,4,,,,,,,,3,,,72,80
32220,note_on,60,0,3,,,,,,,,2,,,75,0
32220,note_on,60,0,5,,,,,,,,4,,,53,0
32220,note_on,60,0,4,,,,,,,,3,,,72,0
32220,note_on,60,0,1,,,,,,,,0,,,75,0
32220,note_on,60,0,2,,,,,,,,1,,,75,0
32220,note_on,60,0,6,,,,,,,,5,,,53,0
32400,note_on,180,0,4,,,,,,,,3,,,65,64
32400,note_on,180,0,3,,,,,,,,2,,,65,64
32400,note_on,180,0,1,,,,,,,,0,,,65,64
32400,note_on,180,0,6,,,,,,,,5,,,53,64
32400,note_on,180,0,5,,,,,,,,4,,,53,64
32400,note_on,180,0,2,,,,,,,,1,,,65,64
32460,note_on,60,0,1,,,,,,,,0,,,65,0
32460,note_on,60,0,4,,,,,,,,3,,,65,0
32460,note_on,60,0,3,,,,,,,,2,,,65,0
32460,note_on,60,0,6,,,,,,,,5,,,53,0
32460,note_on,60,0,2,,,,,,,,1,,,65,0
32460,note_on,60,0,5,,,,,,,,4,,,53,0
32640,note_on,180,0,5,,,,,,,,4,,,53,64
32640,note_on,180,0,3,,,,,,,,2,,,65,64
32640,note_on,180,0,4,,,,,,,,3,,,65,64
32640,note_on,180,0,1,,,,,,,,0,,,65,64
32640,note_on,180,0,2,,,,,,,,1,,,65,64
32640,note_on,180,0,6,,,,,,,,5,,,53,64
32700,note_on,60,0,6,,,,,,,,5,,,53,0
32700,note_on,60,0,1,,,,,,,,0,,,65,0
32700,note_on,60,0,2,,,,,,,,1,,,65,0
32700,note_on,60,0,5,,,,,,,,4,,,53,0
32700,note_on,60,0,4,,,,,,,,3,,,65,0
32700,note_on,60,0,3,,,,,,,,2,,,65,0
32880,note_on,180,0,4,,,,,,,,3,,,65,64
32880,note_on,180,0,1,,,,,,,,0,,,65,64
32880,note_on,180,0,6,,,,,,,,5,,,53,64
32880,note_on,180,0,5,,,,,,,,4,,,53,64
32880,note_on,180,0,3,,,,,,,,2,,,65,64
32880,note_on,180,0,2,,,,,,,,1,,,65,64
32940,note_on,60,0,6,,,,,,,,5,,,53,0
32940,note_on,60,0,3,,,,,,,,2,,,65,0
32940,note_on,60,0,5,,,,,,,,4,,,53,0
32940,note_on,60,0,4,,,,,,,,3,,,65,0
32940,note_on,60,0,2,,,,,,,,1,,,65,0
32940,note_on,60,0,1,,,,,,,,0,,,65,0
33120,note_on,180,0,2,,,,,,,,1,,,65,64
33120,note_on,180,0,3,,,,,,,,2,,,65,64
33120,note_on,180,0,5,,,,,,,,4,,,53,64
33120,note_on,180,0,6,,,,,,,,5,,,53,64
33120,note_on,180,0,4,,,,,,,,3,,,65,64
33120,note_on,180,0,1,,,,,,,,0,,,65,64
33565,note_on,445,0,3,,,,,,,,2,,,65,0
33565,note_on,445,0,2,,,,,,,,1,,,65,0
33565,note_on,445,0,4,,,,,,,,3,,,65,0
33565,note_on,445,0,5,,,,,,,,4,,,53,0
33565,note_on,445,0,6,,,,,,,,5,,,53,0
33565,note_on,445,0,1,,,,,,,,0,,,65,0
33600,note_on,35,0,6,,,,,,,,5,,,53,65
33600,note_on,35,0,3,,,,,,,,2,,,74,65
33600,note_on,35,0,1,,,,,,,,0,,,74,65
33600,note_on,35,0,4,,,,,,,,3,,,70,65
33600,note_on,35,0,2,,,,,,,,1,,,74,65
33600,note_on,35,0,5,,,,,,,,4,,,53,65
33660,note_on,60,0,6,,,,,,,,5,,,53,0
33660,note_on,60,0,4,,,,,,,,3,,,70,0
33660,note_on,60,0,2,,,,,,,,1,,,74,0
33660,note_on,60,0,1,,,,,,,,0,,,74,0
33660,note_on,60,0,3,,,,,,,,2,,,74,0
33660,note_on,60,0,5,,,,,,,,4,,,53,0
33840,note_on,180,0,5,,,,,,,,4,,,53,49
33840,note_on,180,0,2,,,,,,,,1,,,65,49
33840,note_on,180,0,3,,,,,,,,2,,,65,49
33840,note_on,180,0,4,,,,,,,,3,,,65,49
33840,note_on,180,0,1,,,,,,,,0,,,65,49
33840,note_on,180,0,6,,,,,,,,5,,,53,49
33900,note_on,60,0,1,,,,,,,,0,,,65,0
33900,note_on,60,0,2,,,,,,,,1,,,65,0
33900,note_on,60,0,6,,,,,,,,5,,,53,0
33900,note_on,60,0,4,,,,,,,,3,,,65,0
33900,note_on,60,0,5,,,,,,,,4,,,53,0
33900,note_on,60,0,3,,,,,,,,2,,,65,0
34080,note_on,180,0,3,,,,,,,,2,,,65,49
34080,note_on,180,0,4,,,,,,,,3,,,65,49
34080,note_on,180,0,5,,,,,,,,4,,,53,49
34080,note_on,180,0,1,,,,,,,,0,,,65,49
34080,note_on,180,0,2,,,,,,,,1,,,65,49
34080,note_on,180,0,6,,,,,,,,5,,,53,49
34140,note_on,60,0,4,,,,,,,,3,,,65,0
34140,note_on,60,0,5,,,,,,,,4,,,53,0
34140,note_on,60,0,2,,,,,,,,1,,,65,0
34140,note_on,60,0,6,,,,,,,,5,,,53,0
34140,note_on,60,0,1,,,,,,,,0,,,65,0
34140,note_on,60,0,3,,,,,,,,2,,,65,0
34320,note_on,180,0,2,,,,,,,,1,,,65,49
34320,note_on,180,0,4,,,,,,,,3,,,65,49
34320,note_on,180,0,3,,,,,,,,2,,,65,49
34320,note_on,180,0,6,,,,,,,,5,,,53,49
34320,note_on,180,0,1,,,,,,,,0,,,65,49
34320,note_on,180,0,5,,,,,,,,4,,,53,49
34380,note_on,60,0,4,,,,,,,,3,,,65,0
34380,note_on,60,0,2,,,,,,,,1,,,65,0
34380,note_on,60,0,5,,,,,,,,4,,,53,0
34380,note_on,60,0,1,,,,,,,,0,,,65,0
34380,note_on,60,0,3,,,,,,,,2,,,65,0
34380,note_on,60,0,6,,,,,,,,5,,,53,0
34560,note_on,180,0,4,,,,,,,,3,,,65,49
34560,note_on,180,0,5,,,,,,,,4,,,53,49
34560,note_on,180,0,2,,,,,,,,1,,,65,49
34560,note_on,180,0,1,,,,,,,,0,,,65,49
34560,note_on,180,0,3,,,,,,,,2,,,65,49
34560,note_on,180,0,6,,,,,,,,5,,,53,49
35005,note_on,445,0,5,,,,,,,,4,,,53,0
35005,note_on,445,0,1,,,,,,,,0,,,65,0
35005,note_on,445,0,3,,,,,,,,2,,,65,0
35005,note_on,445,0,2,,,,,,,,1,,,65,0
35005,note_on,445,0,6,,,,,,,,5,,,53,0
35005,note_on,445,0,4,,,,,,,,3,,,65,0
35040,note_on,35,0,4,,,,,,,,3,,,69,50
35040,note_on,35,0,1,,,,,,,,0,,,72,50
35040,note_on,35,0,3,,,,,,,,2,,,72,50
35040,note_on,35,0,2,,,,,,,,1,,,72,50
35040,note_on,35,0,5,,,,,,,,4,,,53,50
35040,note_on,35,0,6,,,,,,,,5,,,53,50
35100,note_on,60,0,5,,,,,,,,4,,,53,0
35100,note_on,60,0,4,,,,,,,,3,,,69,0
35100,note_on,60,0,2,,,,,,,,1,,,72,0
35100,note_on,60,0,6,,,,,,,,5,,,53,0
35100,note_on,60,0,3,,,,,,,,2,,,72,0
35100,note_on,60,0,1,,,,,,,,0,,,72,0
35280,note_on,180,0,6,,,,,,,,5,,,53,34
35280,note_on,180,0,3,,,,,,,,2,,,65,34
35280,note_on,180,0,2,,,,,,,,1,,,65,34
35280,note_on,180,0,1,,,,,,,,0,,,65,34
35280,note_on,180,0,4,,,,,,,,3,,,65,34
35280,note_on,180,0,5,,,,,,,,4,,,53,34
35340,note_on,60,0,5,,,,,,,,4,,,53,0
35340,note_on,60,0,1,,,,,,,,0,,,65,0
35340,note_on,60,0,4,,,,,,,,3,,,65,0
35340,note_on,60,0,3,,,,,,,,2,,,65,0
35340,note_on,60,0,2,,,,,,,,1,,,65,0
35340,note_on,60,0,6,,,,,,,,5,,,53,0
35520,note_on,180,0,3,,,,,,,,2,,,65,34
35520,note_on,180,0,6,,,,,,,,5,,,53,34
35520,note_on,180,0,2,,,,,,,,1,,,65,34
35520,note_on,180,0,1,,,,,,,,0,,,65,34
35520,note_on,180,0,5,,,,,,,,4,,,53,34
35520,note_on,180,0,4,,,,,,,,3,,,65,34
35580,note_on,60,0,4,,,,,,,,3,,,65,0
35580,note_on,60,0,6,,,,,,,,5,,,53,0
35580,note_on,60,0,2,,,,,,,,1,,,65,0
35580,note_on,60,0,3,,,,,,,,2,,,65,0
35580,note_on,60,0,5,,,,,,,,4,,,53,0
35580,note_on,60,0,1,,,,,,,,0,,,65,0
35760,note_on,180,0,3,,,,,,,,2,,,65,34
35760,note_on,180,0,6,,,,,,,,5,,,53,34
35760,note_on,180,0,5,,,,,,,,4,,,53,34
35760,note_on,180,0,1,,,,,,,,0,,,65,34
35760,note_on,180,0,2,,,,,,,,1,,,65,34
35760,note_on,180,0,4,,,,,,,,3,,,65,34
35820,note_on,60,0,6,,,,,,,,5,,,53,0
35820,note_on,60,0,5,,,,,,,,4,,,53,0
35820,note_on,60,0,3,,,,,,,,2,,,65,0
35820,note_on,60,0,1,,,,,,,,0,,,65,0
35820,note_on,60,0,2,,,,,,,,1,,,65,0
35820,note_on,60,0,4,,,,,,,,3,,,65,0
36000,note_on,180,0,2,,,,,,,,1,,,65,34
36000,note_on,180,0,1,,,,,,,,0,,,65,34
36000,note_on,180,0,3,,,,,,,,2,,,65,34
36000,note_on,180,0,6,,,,,,,,5,,,53,34
36000,note_on,180,0,4,,,,,,,,3,,,65,34
36000,note_on,180,0,5,,,,,,,,4,,,53,34
36445,note_on,445,0,4,,,,,,,,3,,,65,0
36445,note_on,445,0,2,,,,,,,,1,,,65,0
36445,note_on,445,0,5,,,,,,,,4,,,53,0
36445,note_on,445,0,6,,,,,,,,5,,,53,0
36445,note_on,445,0,1,,,,,,,,0,,,65,0
36445,note_on,445,0,3,,,,,,,,2,,,65,0
37440,note_on,995,0,5,,,,,,,,4,,,46,85
37440,note_on,995,0,1,,,,,,,,0,,,70,85
37440,note_on,995,0,4,,,,,,,,3,,,62,85
37440,note_on,995,0,6,,,,,,,,5,,,46,85
37440,note_on,995,0,2,,,,,,,,1,,,70,85
37440,note_on,995,0,3,,,,,,,,2,,,70,85
37665,note_on,225,0,5,,,,,,,,4,,,46,0
37665,note_on,225,0,6,,,,,,,,5,,,46,0
37665,note_on,225,0,4,,,,,,,,3,,,62,0
37680,note_on,15,0,6,,,,,,,,5,,,58,85
37680,note_on,15,0,5,,,,,,,,4,,,58,85
37680,note_on,15,0,4,,,,,,,,3,,,74,85
37885,note_on,445,0,1,,,,,,,,0,,,70,0
37885,note_on,445,0,3,,,,,,,,2,,,70,0
37885,note_on,445,0,2,,,,,,,,1,,,70,0
37905,note_on,225,0,4,,,,,,,,3,,,74,0
37905,note_on,225,0,6,,,,,,,,5,,,58,0
37905,note_on,225,0,5,,,,,,,,4,,,58,0
37920,note_on,15,0,6,,,,,,,,5,,,53,85
37920,note_on,15,0,4,,,,,,,,3,,,69,85
37920,note_on,15,0,5,,,,,,,,4,,,53,85
38145,note_on,225,0,6,,,,,,,,5,,,53,0
38145,note_on,225,0,5,,,,,,,,4,,,53,0
38145,note_on,225,0,4,,,,,,,,3,,,69,0
38160,note_on,15,0,5,,,,,,,,4,,,51,85
38160,note_on,15,0,4,,,,,,,,3,,,67,85
38160,note_on,275,0,1,,,,,,,,0,,,72,85
38160,note_on,275,0,2,,,,,,,,1,,,72,85
38160,note_on,15,0,6,,,,,,,,5,,,51,85
38160,note_on,275,0,3,,,,,,,,2,,,72,85
38275,note_on,115,0,1,,,,,,,,0,,,72,0
38275,note_on,115,0,3,,,,,,,,2,,,72,0
38275,note_on,115,0,2,,,,,,,,1,,,72,0
38280,note_on,5,0,1,,,,,,,,0,,,74,85
38280,note_on,5,0,2,,,,,,,,1,,,74,85
38280,note_on,5,0,3,,,,,,,,2,,,74,85
38385,note_on,225,0,5,,,,,,,,4,,,51,0
38385,note_on,225,0,6,,,,,,,,5,,,51,0
38385,note_on,225,0,4,,,,,,,,3,,,67,0
38395,note_on,115,0,2,,,,,,,,1,,,74,0
38395,note_on,115,0,3,,,,,,,,2,,,74,0
38395,note_on,115,0,1,,,,,,,,0,,,74,0
38400,note_on,5,0,1,,,,,,,,0,,,75,85
38400,note_on,5,0,2,,,,,,,,1,,,75,85
38400,note_on,15,0,5,,,,,,,,4,,,50,85
38400,note_on,15,0,6,,,,,,,,5,,,50,85
38400,note_on,5,0,3,,,,,,,,2,,,75,85
38400,note_on,15,0,4,,,,,,,,3,,,65,85
38515,note_on,115,0,2,,,,,,,,1,,,75,0
38515,note_on,115,0,1,,,,,,,,0,,,75,0
38515,note_on,115,0,3,,,,,,,,2,,,75,0
38520,note_on,5,0,1,,,,,,,,0,,,77,85
38520,note_on,5,0,2,,,,,,,,1,,,77,85
38520,note_on,5,0,3,,,,,,,,2,,,77,85
38625,note_on,225,0,6,,,,,,,,5,,,50,0
38625,note_on,225,0,5,,,,,,,,4,,,50,0
38625,note_on,225,0,4,,,,,,,,3,,,65,0
38635,note_on,115,0,1,,,,,,,,0,,,77,0
38635,note_on,115,0,2,,,,,,,,1,,,77,0
38635,note_on,115,0,3,,,,,,,,2,,,77,0
38640,note_on,15,0,6,,,,,,,,5,,,48,85
38640,note_on,5,0,1,,,,,,,,0,,,79,85
38640,note_on,5,0,3,,,,,,,,2,,,79,85
38640,note_on,15,0,4,,,,,,,,3,,,63,85
38640,note_on,5,0,2,,,,,,,,1,,,79,85
38640,note_on,15,0,5,,,,,,,,4,,,48,85
38755,note_on,115,0,3,,,,,,,,2,,,79,0
38755,note_on,115,0,1,,,,,,,,0,,,79,0
38755,note_on,115,0,2,,,,,,,,1,,,79,0
38760,note_on,5,0,3,,,,,,,,2,,,81,85
38760,note_on,5,0,2,,,,,,,,1,,,81,85
38760,note_on,5,0,1,,,,,,,,0,,,81,85
38865,note_on,225,0,5,,,,,,,,4,,,48,0
38865,note_on,225,0,6,,,,,,,,5,,,48,0
38865,note_on,225,0,4,,,,,,,,3,,,63,0
38875,note_on,115,0,3,,,,,,,,2,,,81,0
38875,note_on,115,0,1,,,,,,,,0,,,81,0
38875,note_on,115,0,2,,,,,,,,1,,,81,0
38880,note_on,5,0,3,,,,,,,,2,,,82,101
38880,note_on,5,0,1,,,,,,,,0,,,82,101
38880,note_on,15,0,5,,,,,,,,4,,,46,85
38880,note_on,5,0,2,,,,,,,,1,,,82,101
38880,note_on,15,0,6,,,,,,,,5,,,46,85
38880,note_on,15,0,4,,,,,,,,3,,,62,85
38940,note_on,60,0,3,,,,,,,,2,,,82,0
38940,note_on,60,0,1,,,,,,,,0,,,82,0
38940,note_on,60,0,2,,,,,,,,1,,,82,0
39120,note_on,180,0,2,,,,,,,,1,,,70,85
39120,note_on,180,0,3,,,,,,,,2,,,70,85
39120,note_on,180,0,1,,,,,,,,0,,,70,85
39180,note_on,60,0,3,,,,,,,,2,,,70,0
39180,note_on,60,0,1,,,,,,,,0,,,70,0
39180,note_on,60,0,2,,,,,,,,1,,,70,0
39325,note_on,445,0,5,,,,,,,,4,,,46,0
39325,note_on,445,0,6,,,,,,,,5,,,46,0
39325,note_on,445,0,4,,,,,,,,3,,,62,0
39360,note_on,180,0,3,,,,,,,,2,,,72,85
39360,note_on,35,0,5,,,,,,,,4,,,53,85
39360,note_on,35,0,6,,,,,,,,5,,,53,85
39360,note_on,35,0,4,,,,,,,,3,,,69,85
39360,note_on,180,0,1,,,,,,,,0,,,72,85
39360,note_on,180,0,2,,,,,,,,1,,,72,85
39585,note_on,225,0,5,,,,,,,,4,,,53,0
39585,note_on,225,0,6,,,,,,,,5,,,53,0
39600,note_on,15,0,5,,,,,,,,4,,,53,85
39600,note_on,15,0,6,,,,,,,,5,,,53,85
39805,note_on,445,0,1,,,,,,,,0,,,72,0
39805,note_on,445,0,2,,,,,,,,1,,,72,0
39805,note_on,445,0,3,,,,,,,,2,,,72,0
39805,note_on,445,0,4,,,,,,,,3,,,69,0
39825,note_on,225,0,5,,,,,,,,4,,,53,0
39825,note_on,225,0,6,,,,,,,,5,,,53,0
39840,note_on,15,0,6,,,,,,,,5,,,41,85
39840,note_on,15,0,5,,,,,,,,4,,,41,85
39840,note_on,35,0,3,,,,,,,,2,,,69,85
39840,note_on,35,0,1,,,,,,,,0,,,69,85
39840,note_on,35,0,4,,,,,,,,3,,,65,85
39840,note_on,35,0,2,,,,,,,,1,,,69,85
40065,note_on,225,0,6,,,,,,,,5,,,41,0
40065,note_on,225,0,5,,,,,,,,4,,,41,0
40080,note_on,15,0,6,,,,,,,,5,,,41,85
40080,note_on,15,0,5,,,,,,,,4,,,41,85
40285,note_on,445,0,3,,,,,,,,2,,,69,0
40285,note_on,445,0,2,,,,,,,,1,,,69,0
40285,note_on,445,0,4,,,,,,,,3,,,65,0
40285,note_on,445,0,1,,,,,,,,0,,,69,0
40305,note_on,225,0,6,,,,,,,,5,,,41,0
40305,note_on,225,0,5,,,,,,,,4,,,41,0
40320,note_on,35,0,3,,,,,,,,2,,,58,64
40320,note_on,35,0,1,,,,,,,,0,,,58,64
40320,note_on,35,0,4,,,,,,,,3,,,62,64
40320,note_on,15,0,6,,,,,,,,5,,,46,64
40320,note_on,35,0,2,,,,,,,,1,,,58,64
40320,note_on,15,0,5,,,,,,,,4,,,46,64
40545,note_on,225,0,4,,,,,,,,3,,,62,0
40545,note_on,225,0,6,,,,,,,,5,,,46,0
40545,note_on,225,0,5,,,,,,,,4,,,46,0
40560,note_on,15,0,5,,,,,,,,4,,,58,64
40560,note_on,15,0,4,,,,,,,,3,,,74,64
40560,note_on,15,0,6,,,,,,,,5,,,58,64
40765,note_on,445,0,2,,,,,,,,1,,,58,0
40765,note_on,445,0,3,,,,,,,,2,,,58,0
40765,note_on,445,0,1,,,,,,,,0,,,58,0
40785,note_on,225,0,5,,,,,,,,4,,,58,0
40785,note_on,225,0,4,,,,,,,,3,,,74,0
40785,note_on,225,0,6,,,,,,,,5,,,58,0
40800,note_on,15,0,5,,,,,,,,4,,,53,64
40800,note_on,15,0,4,,,,,,,,3,,,69,64
40800,note_on,15,0,6,,,,,,,,5,,,53,64
41025,note_on,225,0,5,,,,,,,,4,,,53,0
41025,note_on,225,0,4,,,,,,,,3,,,69,0
41025,note_on,225,0,6,,,,,,,,5,,,53,0
41040,note_on,275,0,3,,,,,,,,2,,,60,64
41040,note_on,15,0,5,,,,,,,,4,,,51,64
41040,note_on,15,0,4,,,,,,,,3,,,67,64
41040,note_on,275,0,2,,,,,,,,1,,,60,64
41040,note_on,15,0,6,,,,,,,,5,,,51,64
41040,note_on,275,0,1,,,,,,,,0,,,60,64
41155,note_on,115,0,3,,,,,,,,2,,,60,0
41155,note_on,115,0,1,,,,,,,,0,,,60,0
41155,note_on,115,0,2,,,,,,,,1,,,60,0
41160,note_on,5,0,3,,,,,,,,2,,,62,64
41160,note_on,5,0,2,,,,,,,,1,,,62,64
41160,note_on,5,0,1,,,,,,,,0,,,62,64
41265,note_on,225,0,6,,,,,,,,5,,,51,0
41265,note_on,225,0,5,,,,,,,,4,,,51,0
41265,note_on,225,0,4,,,,,,,,3,,,67,0
41275,note_on,115,0,3,,,,,,,,2,,,62,0
41275,note_on,115,0,1,,,,,,,,0,,,62,0
41275,note_on,115,0,2,,,,,,,,1,,,62,0
41280,note_on,5,0,2,,,,,,,,1,,,63,64
41280,note_on,5,0,1,,,,,,,,0,,,63,64
41280,note_on,5,0,3,,,,,,,,2,,,63,64
41280,note_on,15,0,5,,,,,,,,4,,,50,64
41280,note_on,15,0,6,,,,,,,,5,,,50,64
41280,note_on,15,0,4,,,,,,,,3,,,65,64
41395,note_on,115,0,2,,,,,,,,1,,,63,0
41395,note_on,115,0,3,,,,,,,,2,,,63,0
41395,note_on,115,0,1,,,,,,,,0,,,63,0
41400,note_on,5,0,2,,,,,,,,1,,,65,64
41400,note_on,5,0,3,,,,,,,,2,,,65,64
41400,note_on,5,0,1,,,,,,,,0,,,65,64
41505,note_on,225,0,6,,,,,,,,5,,,50,0
41505,note_on,225,0,5,,,,,,,,4,,,50,0
41505,note_on,225,0,4,,,,,,,,3,,,65,0
41515,note_on,115,0,2,,,,,,,,1,,,65,0
41515,note_on,115,0,3,,,,,,,,2,,,65,0
41515,note_on,115,0,1,,,,,,,,0,,,65,0
41520,note_on,15,0,6,,,,,,,,5,,,48,64
41520,note_on,5,0,1,,,,,,,,0,,,67,64
41520,note_on,15,0,4,,,,,,,,3,,,63,64
41520,note_on,5,0,3,,,,,,,,2,,,67,64
41520,note_on,5,0,2,,,,,,,,1,,,67,64
41520,note_on,15,0,5,,,,,,,,4,,,48,64
41635,note_on,115,0,3,,,,,,,,2,,,67,0
41635,note_on,115,0,2,,,,,,,,1,,,67,0
41635,note_on,115,0,1,,,,,,,,0,,,67,0
41640,note_on,5,0,2,,,,,,,,1,,,69,64
41640,note_on,5,0,3,,,,,,,,2,,,69,64
41640,note_on,5,0,1,,,,,,,,0,,,69,64
41745,note_on,225,0,6,,,,,,,,5,,,48,0
41745,note_on,225,0,4,,,,,,,,3,,,63,0
41745,note_on,225,0,5,,,,,,,,4,,,48,0
41755,note_on,115,0,1,,,,,,,,0,,,69,0
41755,note_on,115,0,2,,,,,,,,1,,,69,0
41755,note_on,115,0,3,,,,,,,,2,,,69,0
41760,note_on,15,0,4,,,,,,,,3,,,62,64
41760,note_on,5,0,1,,,,,,,,0,,,70,80
41760,note_on,5,0,2,,,,,,,,1,,,70,80
41760,note_on,15,0,5,,,,,,,,4,,,46,64
41760,note_on,15,0,6,,,,,,,,5,,,46,64
41760,note_on,5,0,3,,,,,,,,2,,,70,80
41820,note_on,60,0,2,,,,,,,,1,,,70,0
41820,note_on,60,0,3,,,,,,,,2,,,70,0
41820,note_on,60,0,1,,,,,,,,0,,,70,0
42000,note_on,180,0,2,,,,,,,,1,,,58,64
42000,note_on,180,0,1,,,,,,,,0,,,58,64
42000,note_on,180,0,3,,,,,,,,2,,,58,64
42060,note_on,60,0,3,,,,,,,,2,,,58,0
42060,note_on,60,0,2,,,,,,,,1,,,58,0
42060,note_on,60,0,1,,,,,,,,0,,,58,0
42205,note_on,445,0,5,,,,,,,,4,,,46,0
42205,note_on,445,0,6,,,,,,,,5,,,46,0
42205,note_on,445,0,4,,,,,,,,3,,,62,0
42240,note_on,180,0,1,,,,,,,,0,,,60,64
42240,note_on,35,0,5,,,,,,,,4,,,53,64
42240,note_on,180,0,3,,,,,,,,2,,,60,64
42240,note_on,180,0,2,,,,,,,,1,,,60,64
42240,note_on,35,0,6,,,,,,,,5,,,53,64
42240,note_on,35,0,4,,,,,,,,3,,,69,64
42465,note_on,225,0,6,,,,,,,,5,,,53,0
42465,note_on,225,0,5,,,,,,,,4,,,53,0
42480,note_on,15,0,6,,,,,,,,5,,,53,64
42480,note_on,15,0,5,,,,,,,,4,,,53,64
42685,note_on,445,0,1,,,,,,,,0,,,60,0
42685,note_on,445,0,3,,,,,,,,2,,,60,0
42685,note_on,445,0,2,,,,,,,,1,,,60,0
42685,note_on,445,0,4,,,,,,,,3,,,69,0
42705,note_on,225,0,5,,,,,,,,4,,,53,0
42705,note_on,225,0,6,,,,,,,,5,,,53,0
42720,note_on,35,0,1,,,,,,,,0,,,57,64
42720,note_on,15,0,5,,,,,,,,4,,,41,64
42720,note_on,15,0,6,,,,,,,,5,,,41,64
42720,note_on,35,0,2,,,,,,,,1,,,57,64
42720,note_on,35,0,4,,,,,,,,3,,,65,64
42720,note_on,35,0,3,,,,,,,,2,,,57,64
42945,note_on,225,0,6,,,,,,,,5,,,41,0
42945,note_on,225,0,5,,,,,,,,4,,,41,0
42960,note_on,15,0,6,,,,,,,,5,,,41,64
42960,note_on,15,0,5,,,,,,,,4,,,41,64
43165,note_on,445,0,2,,,,,,,,1,,,57,0
43165,note_on,445,0,1,,,,,,,,0,,,57,0
43165,note_on,445,0,3,,,,,,,,2,,,57,0
43165,note_on,445,0,4,,,,,,,,3,,,65,0
43185,note_on,225,0,5,,,,,,,,4,,,41,0
43185,note_on,225,0,6,,,,,,,,5,,,41,0
43200,note_on,15,0,5,,,,,,,,4,,,46,64
43200,note_on,35,0,4,,,,,,,,3,,,62,64
43200,note_on,35,0,3,,,,,,,,2,,,58,64
43200,note_on,15,0,6,,,,,,,,5,,,46,64
43200,note_on,35,0,1,,,,,,,,0,,,58,122
43200,note_on,35,0,2,,,,,,,,1,,,58,64
43360,note_on,160,0,1,,,,,,,,0,,,58,0
43360,note_on,0,0,1,,,,,,,,0,,,60,106
43510,note_on,150,0,1,,,,,,,,0,,,60,0
43520,note_on,10,0,1,,,,,,,,0,,,58,106
43645,note_on,445,0,2,,,,,,,,1,,,58,0
43645,note_on,445,0,3,,,,,,,,2,,,58,0
43645,note_on,445,0,4,,,,,,,,3,,,62,0
43645,note_on,445,0,6,,,,,,,,5,,,46,0
43645,note_on,445,0,5,,,,,,,,4,,,46,0
43670,note_on,150,0,1,,,,,,,,0,,,58,0
43680,note_on,10,0,1,,,,,,,,0,,,62,122
43840,note_on,160,0,1,,,,,,,,0,,,62,0
43840,note_on,0,0,1,,,,,,,,0,,,63,106
43990,note_on,150,0,1,,,,,,,,0,,,63,0
44000,note_on,10,0,1,,,,,,,,0,,,62,106
44150,note_on,150,0,1,,,,,,,,0,,,62,0
44160,note_on,10,0,1,,,,,,,,0,,,65,122
44320,note_on,160,0,1,,,,,,,,0,,,65,0
44320,note_on,0,0,1,,,,,,,,0,,,67,106
44470,note_on,150,0,1,,,,,,,,0,,,67,0
44480,note_on,10,0,1,,,,,,,,0,,,65,106
44630,note_on,150,0,1,,,,,,,,0,,,65,0
44640,note_on,10,0,1,,,,,,,,0,,,70,122
44800,note_on,160,0,1,,,,,,,,0,,,70,0
44800,note_on,0,0,1,,,,,,,,0,,,72,106
44950,note_on,150,0,1,,,,,,,,0,,,72,0
44960,note_on,10,0,1,,,,,,,,0,,,70,106
45110,note_on,150,0,1,,,,,,,,0,,,70,0
45120,note_on,10,0,1,,,,,,,,0,,,74,122
45280,note_on,160,0,1,,,,,,,,0,,,74,0
45280,note_on,0,0,1,,,,,,,,0,,,75,106
45430,note_on,150,0,1,,,,,,,,0,,,75,0
45440,note_on,10,0,1,,,,,,,,0,,,74,106
45590,note_on,150,0,1,,,,,,,,0,,,74,0
45600,note_on,10,0,1,,,,,,,,0,,,77,122
45760,note_on,160,0,1,,,,,,,,0,,,77,0
45760,note_on,0,0,1,,,,,,,,0,,,79,106
45910,note_on,150,0,1,,,,,,,,0,,,79,0
45920,note_on,10,0,1,,,,,,,,0,,,77,106
46070,note_on,150,0,1,,,,,,,,0,,,77,0
46080,note_on,2435,0,4,,,,,,,,3,,,70,64
46080,note_on,10,0,1,,,,,,,,0,,,82,122
46080,note_on,2435,0,3,,,,,,,,2,,,74,64
46080,note_on,2435,0,2,,,,,,,,1,,,77,64
46080,note_on,2435,0,6,,,,,,,,5,,,46,64
46080,note_on,2435,0,5,,,,,,,,4,,,46,64
46525,note_on,445,0,5,,,,,,,,4,,,46,0
46525,note_on,445,0,3,,,,,,,,2,,,74,0
46525,note_on,445,0,6,,,,,,,,5,,,46,0
46525,note_on,445,0,4,,,,,,,,3,,,70,0
46525,note_on,445,0,2,,,,,,,,1,,,77,0
46560,note_on,35,0,5,,,,,,,,4,,,46,64
46560,note_on,35,0,6,,,,,,,,5,,,46,64
46560,note_on,480,0,1,,,,,,,,0,,,82,0
46560,note_on,0,0,1,,,,,,,,0,,,70,122
46560,note_on,35,0,2,,,,,,,,1,,,82,64
46560,note_on,35,0,4,,,,,,,,3,,,70,64
46560,note_on,35,0,3,,,,,,,,2,,,77,64
46785,note_on,225,0,2,,,,,,,,1,,,82,0
46785,note_on,225,0,6,,,,,,,,5,,,46,0
46785,note_on,225,0,3,,,,,,,,2,,,77,0
46785,note_on,225,0,5,,,,,,,,4,,,46,0
46785,note_on,225,0,4,,,,,,,,3,,,70,0
46800,note_on,15,0,6,,,,,,,,5,,,46,64
46800,note_on,15,0,3,,,,,,,,2,,,74,64
46800,note_on,15,0,5,,,,,,,,4,,,46,64
46800,note_on,15,0,2,,,,,,,,1,,,77,64
46800,note_on,15,0,4,,,,,,,,3,,,70,64
47025,note_on,225,0,3,,,,,,,,2,,,74,0
47025,note_on,225,0,2,,,,,,,,1,,,77,0
47025,note_on,225,0,5,,,,,,,,4,,,46,0
47025,note_on,225,0,4,,,,,,,,3,,,70,0
47025,note_on,225,0,6,,,,,,,,5,,,46,0
47040,note_on,15,0,4,,,,,,,,3,,,70,64
47040,note_on,15,0,3,,,,,,,,2,,,74,64
47040,note_on,15,0,5,,,,,,,,4,,,46,64
47040,note_on,480,0,1,,,,,,,,0,,,70,0
47040,note_on,15,0,2,,,,,,,,1,,,77,64
47040,note_on,15,0,6,,,,,,,,5,,,46,64
47265,note_on,225,0,6,,,,,,,,5,,,46,0
47265,note_on,225,0,5,,,,,,,,4,,,46,0
47265,note_on,225,0,4,,,,,,,,3,,,70,0
47265,note_on,225,0,3,,,,,,,,2,,,74,0
47265,note_on,225,0,2,,,,,,,,1,,,77,0
47280,note_on,15,0,5,,,,,,,,4,,,46,64
47280,note_on,15,0,3,,,,,,,,2,,,74,64
47280,note_on,15,0,4,,,,,,,,3,,,70,64
47280,note_on,15,0,2,,,,,,,,1,,,77,64
47280,note_on,15,0,6,,,,,,,,5,,,46,64
47505,note_on,225,0,3,,,,,,,,2,,,74,0
47505,note_on,225,0,4,,,,,,,,3,,,70,0
47505,note_on,225,0,5,,,,,,,,4,,,46,0
47505,note_on,225,0,2,,,,,,,,1,,,77,0
47505,note_on,225,0,6,,,,,,,,5,,,46,0
47520,note_on,15,0,6,,,,,,,,5,,,46,64
47520,note_on,15,0,2,,,,,,,,1,,,77,64
47520,note_on,15,0,4,,,,,,,,3,,,70,64
47520,note_on,0,0,1,,,,,,,,0,,,70,106
47520,note_on,480,0,1,,,,,,,,0,,,74,106
47520,note_on,15,0,3,,,,,,,,2,,,74,64
47520,note_on,15,0,5,,,,,,,,4,,,46,64
47965,note_on,445,0,3,,,,,,,,2,,,74,0
47965,note_on,445,0,4,,,,,,,,3,,,70,0
47965,note_on,445,0,1,,,,,,,,0,,,70,0
47965,note_on,0,0,1,,,,,,,,0,,,74,0
47965,note_on,445,0,2,,,,,,,,1,,,77,0
47965,note_on,445,0,6,,,,,,,,5,,,46,0
47965,note_on,445,0,5,,,,,,,,4,,,46,0
48000,note_on,0,0,1,,,,,,,,0,,,70,106
48000,note_on,35,0,1,,,,,,,,0,,,74,106
48000,note_on,35,0,6,,,,,,,,5,,,46,64
48000,note_on,35,0,5,,,,,,,,4,,,46,64
48060,note_on,60,0,1,,,,,,,,0,,,70,0
48060,note_on,0,0,1,,,,,,,,0,,,74,0
48240,note_on,180,0,1,,,,,,,,0,,,74,106
48240,note_on,0,0,1,,,,,,,,0,,,70,106
48300,note_on,60,0,1,,,,,,,,0,,,70,0
48300,note_on,0,0,1,,,,,,,,0,,,74,0
48445,note_on,445,0,5,,,,,,,,4,,,46,0
48445,note_on,445,0,6,,,,,,,,5,,,46,0
48480,note_on,35,0,5,,,,,,,,4,,,45,64
48480,note_on,180,0,1,,,,,,,,0,,,75,106
48480,note_on,0,0,1,,,,,,,,0,,,72,106
48480,note_on,35,0,6,,,,,,,,5,,,45,64
48540,note_on,60,0,1,,,,,,,,0,,,72,0
48540,note_on,0,0,1,,,,,,,,0,,,75,0
48720,note_on,0,0,1,,,,,,,,0,,,72,106
48720,note_on,180,0,1,,,,,,,,0,,,75,106
48780,note_on,0,0,1,,,,,,,,0,,,75,0
48780,note_on,60,0,1,,,,,,,,0,,,72,0
48925,note_on,445,0,5,,,,,,,,4,,,45,0
48925,note_on,445,0,6,,,,,,,,5,,,45,0
48960,note_on,0,0,1,,,,,,,,0,,,70,106
48960,note_on,180,0,1,,,,,,,,0,,,74,106
48960,note_on,35,0,6,,,,,,,,5,,,46,64
48960,note_on,35,0,5,,,,,,,,4,,,46,64
49405,note_on,445,0,6,,,,,,,,5,,,46,0
49405,note_on,0,0,1,,,,,,,,0,,,74,0
49405,note_on,445,0,5,,,,,,,,4,,,46,0
49405,note_on,445,0,1,,,,,,,,0,,,70,0
49440,note_on,35,0,5,,,,,,,,4,,,46,64
49440,note_on,0,0,1,,,,,,,,0,,,70,106
49440,note_on,35,0,6,,,,,,,,5,,,46,64
49440,note_on,35,0,1,,,,,,,,0,,,74,106
49500,note_on,60,0,1,,,,,,,,0,,,70,0
49500,note_on,0,0,1,,,,,,,,0,,,74,0
49680,note_on,180,0,1,,,,,,,,0,,,74,106
49680,note_on,0,0,1,,,,,,,,0,,,70,106
49740,note_on,60,0,1,,,,,,,,0,,,70,0
49740,note_on,0,0,1,,,,,,,,0,,,74,0
49885,note_on,445,0,6,,,,,,,,5,,,46,0
49885,note_on,445,0,5,,,,,,,,4,,,46,0
49920,note_on,35,0,6,,,,,,,,5,,,45,64
49920,note_on,35,0,5,,,,,,,,4,,,45,64
49920,note_on,180,0,1,,,,,,,,0,,,75,106
49920,note_on,0,0,1,,,,,,,,0,,,72,106
49980,note_on,60,0,1,,,,,,,,0,,,72,0
49980,note_on,0,0,1,,,,,,,,0,,,75,0
50160,note_on,180,0,1,,,,,,,,0,,,75,106
50160,note_on,0,0,1,,,,,,,,0,,,72,106
50220,note_on,0,0,1,,,,,,,,0,,,75,0
50220,note_on,60,0,1,,,,,,,,0,,,72,0
50365,note_on,445,0,6,,,,,,,,5,,,45,0
50365,note_on,445,0,5,,,,,,,,4,,,45,0
50400,note_on,0,0,1,,,,,,,,0,,,70,106
50400,note_on,180,0,1,,,,,,,,0,,,74,106
50400,note_on,35,0,6,,,,,,,,5,,,46,64
50400,note_on,35,0,5,,,,,,,,4,,,46,64
50845,note_on,445,0,6,,,,,,,,5,,,46,0
50845,note_on,0,0,1,,,,,,,,0,,,74,0
50845,note_on,445,0,1,,,,,,,,0,,,70,0
50845,note_on,445,0,5,,,,,,,,4,,,46,0
50880,note_on,35,0,5,,,,,,,,4,,,46,64
50880,note_on,35,0,6,,,,,,,,5,,,46,64
50880,note_on,0,0,1,,,,,,,,0,,,70,106
50880,note_on,35,0,1,,,,,,,,0,,,74,106
50940,note_on,0,0,1,,,,,,,,0,,,74,0
50940,note_on,60,0,1,,,,,,,,0,,,70,0
51120,note_on,0,0,1,,,,,,,,0,,,70,106
51120,note_on,180,0,1,,,,,,,,0,,,74,106
51180,note_on,60,0,1,,,,,,,,0,,,70,0
51180,note_on,0,0,1,,,,,,,,0,,,74,0
51325,note_on,445,0,6,,,,,,,,5,,,46,0
51325,note_on,445,0,5,,,,,,,,4,,,46,0
51360,note_on,35,0,6,,,,,,,,5,,,45,64
51360,note_on,0,0,1,,,,,,,,0,,,72,106
51360,note_on,180,0,1,,,,,,,,0,,,75,106
51360,note_on,35,0,5,,,,,,,,4,,,45,64
51420,note_on,0,0,1,,,,,,,,0,,,75,0
51420,note_on,60,0,1,,,,,,,,0,,,72,0
51600,note_on,0,0,1,,,,,,,,0,,,72,106
51600,note_on,180,0,1,,,,,,,,0,,,75,106
51660,note_on,0,0,1,,,,,,,,0,,,75,0
51660,note_on,60,0,1,,,,,,,,0,,,72,0
51805,note_on,445,0,5,,,,,,,,4,,,45,0
51805,note_on,445,0,6,,,,,,,,5,,,45,0
51840,note_on,180,0,1,,,,,,,,0,,,74,106
51840,note_on,0,0,1,,,,,,,,0,,,70,106
51840,note_on,35,0,5,,,,,,,,4,,,46,64
51840,note_on,35,0,6,,,,,,,,5,,,46,64
51960,note_on,120,0,1,,,,,,,,0,,,70,0
51960,note_on,0,0,1,,,,,,,,0,,,74,0
52285,note_on,445,0,5,,,,,,,,4,,,46,0
52285,note_on,445,0,6,,,,,,,,5,,,46,0
52320,note_on,35,0,5,,,,,,,,4,,,46,64
52320,note_on,35,0,6,,,,,,,,5,,,46,64
52320,note_on,0,0,1,,,,,,,,0,,,65,106
52320,note_on,360,0,1,,,,,,,,0,,,70,106
52440,note_on,120,0,1,,,,,,,,0,,,65,0
52440,note_on,0,0,1,,,,,,,,0,,,70,0
52765,note_on,445,0,6,,,,,,,,5,,,46,0
52765,note_on,445,0,5,,,,,,,,4,,,46,0
52800,note_on,0,0,1,,,,,,,,0,,,62,106
52800,note_on,35,0,6,,,,,,,,5,,,46,64
52800,note_on,360,0,1,,,,,,,,0,,,70,106
52800,note_on,35,0,5,,,,,,,,4,,,46,64
53245,note_on,0,0,1,,,,,,,,0,,,70,0
53245,note_on,445,0,1,,,,,,,,0,,,62,0
53245,note_on,445,0,5,,,,,,,,4,,,46,0
53245,note_on,445,0,6,,,,,,,,5,,,46,0
53280,note_on,35,0,1,,,,,,,,0,,,74,64
53280,note_on,0,0,1,,,,,,,,0,,,70,64
53280,note_on,35,0,6,,,,,,,,5,,,46,64
53280,note_on,35,0,5,,,,,,,,4,,,46,64
53725,note_on,445,0,1,,,,,,,,0,,,70,0
53725,note_on,445,0,6,,,,,,,,5,,,46,0
53725,note_on,0,0,1,,,,,,,,0,,,74,0
53725,note_on,445,0,5,,,,,,,,4,,,46,0
53760,note_on,35,0,1,,,,,,,,0,,,74,64
53760,note_on,35,0,6,,,,,,,,5,,,46,64
53760,note_on,0,0,1,,,,,,,,0,,,70,64
53760,note_on,35,0,5,,,,,,,,4,,,46,64
53820,note_on,60,0,1,,,,,,,,0,,,70,0
53820,note_on,0,0,1,,,,,,,,0,,,74,0
54000,note_on,0,0,1,,,,,,,,0,,,70,64
54000,note_on,180,0,1,,,,,,,,0,,,74,64
54060,note_on,0,0,1,,,,,,,,0,,,74,0
54060,note_on,60,0,1,,,,,,,,0,,,70,0
54205,note_on,445,0,6,,,,,,,,5,,,46,0
54205,note_on,445,0,5,,,,,,,,4,,,46,0
54240,note_on,180,0,1,,,,,,,,0,,,75,64
54240,note_on,0,0,1,,,,,,,,0,,,72,64
54240,note_on,35,0,6,,,,,,,,5,,,45,64
54240,note_on,35,0,5,,,,,,,,4,,,45,64
54300,note_on,0,0,1,,,,,,,,0,,,75,0
54300,note_on,60,0,1,,,,,,,,0,,,72,0
54480,note_on,180,0,1,,,,,,,,0,,,75,64
54480,note_on,0,0,1,,,,,,,,0,,,72,64
54540,note_on,60,0,1,,,,,,,,0,,,72,0
54540,note_on,0,0,1,,,,,,,,0,,,75,0
54685,note_on,445,0,5,,,,,,,,4,,,45,0
54685,note_on,445,0,6,,,,,,,,5,,,45,0
54720,note_on,180,0,1,,,,,,,,0,,,74,64
54720,note_on,0,0,1,,,,,,,,0,,,70,64
54720,note_on,35,0,6,,,,,,,,5,,,46,64
54720,note_on,35,0,5,,,,,,,,4,,,46,64
55165,note_on,445,0,1,,,,,,,,0,,,70,0
55165,note_on,445,0,6,,,,,,,,5,,,46,0
55165,note_on,0,0,1,,,,,,,,0,,,74,0
55165,note_on,445,0,5,,,,,,,,4,,,46,0
55200,note_on,35,0,5,,,,,,,,4,,,46,64
55200,note_on,35,0,6,,,,,,,,5,,,46,64
55200,note_on,35,0,1,,,,,,,,0,,,74,64
55200,note_on,0,0,1,,,,,,,,0,,,70,64
55260,note_on,60,0,1,,,,,,,,0,,,70,0
55260,note_on,0,0,1,,,,,,,,0,,,74,0
55440,note_on,180,0,1,,,,,,,,0,,,74,64
55440,note_on,0,0,1,,,,,,,,0,,,70,64
55500,note_on,60,0,1,,,,,,,,0,,,70,0
55500,note_on,0,0,1,,,,,,,,0,,,74,0
55645,note_on,445,0,5,,,,,,,,4,,,46,0
55645,note_on,445,0,6,,,,,,,,5,,,46,0
55680,note_on,35,0,6,,,,,,,,5,,,45,64
55680,note_on,180,0,1,,,,,,,,0,,,75,64
55680,note_on,0,0,1,,,,,,,,0,,,72,64
55680,note_on,35,0,5,,,,,,,,4,,,45,64
55740,note_on,60,0,1,,,,,,,,0,,,72,0
55740,note_on,0,0,1,,,,,,,,0,,,75,0
55920,note_on,180,0,1,,,,,,,,0,,,75,64
55920,note_on,0,0,1,,,,,,,,0,,,72,64
55980,note_on,60,0,1,,,,,,,,0,,,72,0
55980,note_on,0,0,1,,,,,,,,0,,,75,0
56125,note_on,445,0,5,,,,,,,,4,,,45,0
56125,note_on,445,0,6,,,,,,,,5,,,45,0
56160,note_on,35,0,6,,,,,,,,5,,,46,64
56160,note_on,35,0,5,,,,,,,,4,,,46,64
56160,note_on,180,0,1,,,,,,,,0,,,74,64
56160,note_on,0,0,1,,,,,,,,0,,,70,64
56605,note_on,0,0,1,,,,,,,,0,,,74,0
56605,note_on,445,0,1,,,,,,,,0,,,70,0
56605,note_on,445,0,6,,,,,,,,5,,,46,0
56605,note_on,445,0,5,,,,,,,,4,,,46,0
56640,note_on,35,0,6,,,,,,,,5,,,46,64
56640,note_on,0,0,1,,,,,,,,0,,,70,64
56640,note_on,35,0,5,,,,,,,,4,,,46,64
56640,note_on,35,0,1,,,,,,,,0,,,74,64
56700,note_on,0,0,1,,,,,,,,0,,,74,0
56700,note_on,60,0,1,,,,,,,,0,,,70,0
56880,note_on,0,0,1,,,,,,,,0,,,70,64
56880,note_on,180,0,1,,,,,,,,0,,,74,64
56940,note_on,60,0,1,,,,,,,,0,,,70,0
56940,note_on,0,0,1,,,,,,,,0,,,74,0
57085,note_on,445,0,6,,,,,,,,5,,,46,0
57085,note_on,445,0,5,,,,,,,,4,,,46,0
57120,note_on,35,0,5,,,,,,,,4,,,45,64
57120,note_on,35,0,6,,,,,,,,5,,,45,64
57120,note_on,180,0,1,,,,,,,,0,,,75,64
57120,note_on,0,0,1,,,,,,,,0,,,72,64
57180,note_on,0,0,1,,,,,,,,0,,,75,0
57180,note_on,60,0,1,,,,,,,,0,,,72,0
57360,note_on,180,0,1,,,,,,,,0,,,75,64
57360,note_on,0,0,1,,,,,,,,0,,,72,64
57420,note_on,0,0,1,,,,,,,,0,,,75,0
57420,note_on,60,0,1,,,,,,,,0,,,72,0
57565,note_on,445,0,6,,,,,,,,5,,,45,0
57565,note_on,445,0,5,,,,,,,,4,,,45,0
57600,note_on,35,0,6,,,,,,,,5,,,46,64
57600,note_on,35,0,5,,,,,,,,4,,,46,64
57600,note_on,180,0,1,,,,,,,,0,,,74,64
57600,note_on,0,0,1,,,,,,,,0,,,70,64
57720,note_on,120,0,1,,,,,,,,0,,,70,0
57720,note_on,0,0,1,,,,,,,,0,,,74,0
58045,note_on,445,0,6,,,,,,,,5,,,46,0
58045,note_on,445,0,5,,,,,,,,4,,,46,0
58080,note_on,35,0,5,,,,,,,,4,,,46,64
58080,note_on,0,0,1,,,,,,,,0,,,65,64
58080,note_on,360,0,1,,,,,,,,0,,,70,64
58080,note_on,35,0,6,,,,,,,,5,,,46,64
58200,note_on,0,0,1,,,,,,,,0,,,70,0
58200,note_on,120,0,1,,,,,,,,0,,,65,0
58525,note_on,445,0,5,,,,,,,,4,,,46,0
58525,note_on,445,0,6,,,,,,,,5,,,46,0
58560,note_on,0,0,1,,,,,,,,0,,,62,64
58560,note_on,35,0,6,,,,,,,,5,,,46,64
58560,note_on,360,0,1,,,,,,,,0,,,70,64
58560,note_on,35,0,5,,,,,,,,4,,,46,64
59005,note_on,445,0,6,,,,,,,,5,,,46,0
59005,note_on,0,0,1,,,,,,,,0,,,70,0
59005,note_on,445,0,1,,,,,,,,0,,,62,0
59005,note_on,445,0,5,,,,,,,,4,,,46,0
59040,note_on,35,0,6,,,,,,,,5,,,46,64
59040,note_on,35,0,5,,,,,,,,4,,,46,64
59040,note_on,35,0,1,,,,,,,,0,,,70,122
59200,note_on,0,0,1,,,,,,,,0,,,72,106
59200,note_on,160,0,1,,,,,,,,0,,,70,0
59350,note_on,150,0,1,,,,,,,,0,,,72,0
59360,note_on,10,0,1,,,,,,,,0,,,70,106
59510,note_on,150,0,1,,,,,,,,0,,,70,0
59520,note_on,10,0,1,,,,,,,,0,,,74,122
59680,note_on,0,0,1,,,,,,,,0,,,75,106
59680,note_on,160,0,1,,,,,,,,0,,,74,0
59830,note_on,150,0,1,,,,,,,,0,,,75,0
59840,note_on,10,0,1,,,,,,,,0,,,74,106
59925,note_on,885,0,5,,,,,,,,4,,,46,0
59925,note_on,885,0,6,,,,,,,,5,,,46,0
59990,note_on,150,0,1,,,,,,,,0,,,74,0
60000,note_on,75,0,6,,,,,,,,5,,,50,64
60000,note_on,75,0,5,,,,,,,,4,,,50,64
60000,note_on,10,0,1,,,,,,,,0,,,77,122
60160,note_on,160,0,1,,,,,,,,0,,,77,0
60160,note_on,0,0,1,,,,,,,,0,,,79,106
60310,note_on,150,0,1,,,,,,,,0,,,79,0
60320,note_on,10,0,1,,,,,,,,0,,,77,106
60445,note_on,445,0,6,,,,,,,,5,,,50,0
60445,note_on,445,0,5,,,,,,,,4,,,50,0
60470,note_on,150,0,1,,,,,,,,0,,,77,0
60480,note_on,35,0,6,,,,,,,,5,,,51,64
60480,note_on,10,0,1,,,,,,,,0,,,63,122
60480,note_on,35,0,5,,,,,,,,4,,,51,64
60640,note_on,0,0,1,,,,,,,,0,,,65,106
60640,note_on,160,0,1,,,,,,,,0,,,63,0
60790,note_on,150,0,1,,,,,,,,0,,,65,0
60800,note_on,10,0,1,,,,,,,,0,,,63,106
60950,note_on,150,0,1,,,,,,,,0,,,63,0
60960,note_on,10,0,1,,,,,,,,0,,,67,122
61120,note_on,0,0,1,,,,,,,,0,,,69,106
61120,note_on,160,0,1,,,,,,,,0,,,67,0
61270,note_on,150,0,1,,,,,,,,0,,,69,0
61280,note_on,10,0,1,,,,,,,,0,,,67,106
61365,note_on,885,0,5,,,,,,,,4,,,51,0
61365,note_on,885,0,6,,,,,,,,5,,,51,0
61430,note_on,150,0,1,,,,,,,,0,,,67,0
61440,note_on,10,0,1,,,,,,,,0,,,70,122
61600,note_on,160,0,1,,,,,,,,0,,,70,0
61600,note_on,0,0,1,,,,,,,,0,,,72,106
61750,note_on,150,0,1,,,,,,,,0,,,72,0
61760,note_on,10,0,1,,,,,,,,0,,,70,106
61910,note_on,150,0,1,,,,,,,,0,,,70,0
61920,note_on,555,0,6,,,,,,,,5,,,51,64
61920,note_on,10,0,1,,,,,,,,0,,,72,122
61920,note_on,555,0,5,,,,,,,,4,,,51,64
62080,note_on,160,0,1,,,,,,,,0,,,72,0
62080,note_on,0,0,1,,,,,,,,0,,,74,106
62230,note_on,150,0,1,,,,,,,,0,,,74,0
62240,note_on,10,0,1,,,,,,,,0,,,72,106
62390,note_on,150,0,1,,,,,,,,0,,,72,0
62400,note_on,10,0,1,,,,,,,,0,,,75,122
62560,note_on,0,0,1,,,,,,,,0,,,77,106
62560,note_on,160,0,1,,,,,,,,0,,,75,0
62710,note_on,150,0,1,,,,,,,,0,,,77,0
62720,note_on,10,0,1,,,,,,,,0,,,75,106
62805,note_on,885,0,6,,,,,,,,5,,,51,0
62805,note_on,885,0,5,,,,,,,,4,,,51,0
62870,note_on,150,0,1,,,,,,,,0,,,75,0
62880,note_on,10,0,1,,,,,,,,0,,,79,122
63040,note_on,160,0,1,,,,,,,,0,,,79,0
63040,note_on,0,0,1,,,,,,,,0,,,81,106
63190,note_on,150,0,1,,,,,,,,0,,,81,0
63200,note_on,10,0,1,,,,,,,,0,,,79,106
63350,note_on,150,0,1,,,,,,,,0,,,79,0
63360,note_on,10,0,1,,,,,,,,0,,,65,122
63360,note_on,555,0,5,,,,,,,,4,,,53,64
63360,note_on,555,0,6,,,,,,,,5,,,53,64
63520,note_on,0,0,1,,,,,,,,0,,,67,106
63520,note_on,160,0,1,,,,,,,,0,,,65,0
63670,note_on,150,0,1,,,,,,,,0,,,67,0
63680,note_on,10,0,1,,,,,,,,0,,,65,106
63830,note_on,150,0,1,,,,,,,,0,,,65,0
63840,note_on,10,0,1,,,,,,,,0,,,69,122
64000,note_on,160,0,1,,,,,,,,0,,,69,0
64000,note_on,0,0,1,,,,,,,,0,,,70,106
64150,note_on,150,0,1,,,,,,,,0,,,70,0
64160,note_on,10,0,1,,,,,,,,0,,,69,106
64245,note_on,885,0,6,,,,,,,,5,,,53,0
64245,note_on,885,0,5,,,,,,,,4,,,53,0
64310,note_on,150,0,1,,,,,,,,0,,,69,0
64320,note_on,10,0,1,,,,,,,,0,,,72,122
64480,note_on,0,0,1,,,,,,,,0,,,74,106
64480,note_on,160,0,1,,,,,,,,0,,,72,0
64630,note_on,150,0,1,,,,,,,,0,,,74,0
64640,note_on,10,0,1,,,,,,,,0,,,72,106
64790,note_on,150,0,1,,,,,,,,0,,,72,0
64800,note_on,10,0,1,,,,,,,,0,,,74,122
64800,note_on,555,0,6,,,,,,,,5,,,53,64
64800,note_on,555,0,5,,,,,,,,4,,,53,64
64960,note_on,0,0,1,,,,,,,,0,,,75,106
64960,note_on,160,0,1,,,,,,,,0,,,74,0
65110,note_on,150,0,1,,,,,,,,0,,,75,0
65120,note_on,10,0,1,,,,,,,,0,,,74,106
65270,note_on,150,0,1,,,,,,,,0,,,74,0
65280,note_on,10,0,1,,,,,,,,0,,,77,122
65440,note_on,160,0,1,,,,,,,,0,,,77,0
65440,note_on,0,0,1,,,,,,,,0,,,79,106
65590,note_on,150,0,1,,,,,,,,0,,,79,0
65600,note_on,10,0,1,,,,,,,,0,,,77,106
65685,note_on,885,0,6,,,,,,,,5,,,53,0
65685,note_on,885,0,5,,,,,,,,4,,,53,0
65750,note_on,150,0,1,,,,,,,,0,,,77,0
65760,note_on,10,0,1,,,,,,,,0,,,81,122
65920,note_on,160,0,1,,,,,,,,0,,,81,0
65920,note_on,0,0,1,,,,,,,,0,,,82,106
66070,note_on,150,0,1,,,,,,,,0,,,82,0
66080,note_on,10,0,1,,,,,,,,0,,,81,106
66230,note_on,150,0,1,,,,,,,,0,,,81,0
66240,note_on,555,0,5,,,,,,,,4,,,55,64
66240,note_on,10,0,1,,,,,,,,0,,,67,122
66240,note_on,555,0,6,,,,,,,,5,,,55,64
66400,note_on,160,0,1,,,,,,,,0,,,67,0
66400,note_on,0,0,1,,,,,,,,0,,,69,106
66550,note_on,150,0,1,,,,,,,,0,,,69,0
66560,note_on,10,0,1,,,,,,,,0,,,67,106
66710,note_on,150,0,1,,,,,,,,0,,,67,0
66720,note_on,10,0,1,,,,,,,,0,,,70,122
66880,note_on,160,0,1,,,,,,,,0,,,70,0
66880,note_on,0,0,1,,,,,,,,0,,,72,106
67030,note_on,150,0,1,,,,,,,,0,,,72,0
67040,note_on,10,0,1,,,,,,,,0,,,70,106
67125,note_on,885,0,6,,,,,,,,5,,,55,0
67125,note_on,885,0,5,,,,,,,,4,,,55,0
67190,note_on,150,0,1,,,,,,,,0,,,70,0
67200,note_on,10,0,1,,,,,,,,0,,,74,122
67360,note_on,0,0,1,,,,,,,,0,,,75,106
67360,note_on,160,0,1,,,,,,,,0,,,74,0
67510,note_on,150,0,1,,,,,,,,0,,,75,0
67520,note_on,10,0,1,,,,,,,,0,,,74,106
67670,note_on,150,0,1,,,,,,,,0,,,74,0
67680,note_on,10,0,1,,,,,,,,0,,,75,106
67680,note_on,555,0,5,,,,,,,,4,,,55,64
67680,note_on,555,0,6,,,,,,,,5,,,55,64
67830,note_on,150,0,1,,,,,,,,0,,,75,0
67840,note_on,10,0,1,,,,,,,,0,,,77,106
67990,note_on,150,0,1,,,,,,,,0,,,77,0
68000,note_on,10,0,1,,,,,,,,0,,,75,106
68150,note_on,150,0,1,,,,,,,,0,,,75,0
68160,note_on,10,0,1,,,,,,,,0,,,79,106
68310,note_on,150,0,1,,,,,,,,0,,,79,0
68320,note_on,10,0,1,,,,,,,,0,,,81,106
68470,note_on,150,0,1,,,,,,,,0,,,81,0
68480,note_on,10,0,1,,,,,,,,0,,,79,106
68565,note_on,885,0,6,,,,,,,,5,,,55,0
68565,note_on,885,0,5,,,,,,,,4,,,55,0
68630,note_on,150,0,1,,,,,,,,0,,,79,0
68640,note_on,10,0,1,,,,,,,,0,,,82,106
68790,note_on,150,0,1,,,,,,,,0,,,82,0
68800,note_on,10,0,1,,,,,,,,0,,,84,106
68950,note_on,150,0,1,,,,,,,,0,,,84,0
68960,note_on,10,0,1,,,,,,,,0,,,82,106
69110,note_on,150,0,1,,,,,,,,0,,,82,0
69120,note_on,555,0,5,,,,,,,,4,,,60,64
69120,note_on,555,0,6,,,,,,,,5,,,60,64
69120,note_on,10,0,1,,,,,,,,0,,,87,106
69270,note_on,150,0,1,,,,,,,,0,,,87,0
69280,note_on,10,0,1,,,,,,,,0,,,86,106
69430,note_on,150,0,1,,,,,,,,0,,,86,0
69440,note_on,10,0,1,,,,,,,,0,,,84,106
69565,note_on,445,0,6,,,,,,,,5,,,60,0
69565,note_on,445,0,5,,,,,,,,4,,,60,0
69590,note_on,150,0,1,,,,,,,,0,,,84,0
69600,note_on,35,0,6,,,,,,,,5,,,58,64
69600,note_on,35,0,5,,,,,,,,4,,,58,64
69600,note_on,10,0,1,,,,,,,,0,,,86,106
69750,note_on,150,0,1,,,,,,,,0,,,86,0
69760,note_on,10,0,1,,,,,,,,0,,,84,106
69910,note_on,150,0,1,,,,,,,,0,,,84,0
69920,note_on,10,0,1,,,,,,,,0,,,82,106
70045,note_on,445,0,5,,,,,,,,4,,,58,0
70045,note_on,445,0,6,,,,,,,,5,,,58,0
70070,note_on,150,0,1,,,,,,,,0,,,82,0
70080,note_on,35,0,5,,,,,,,,4,,,57,64
70080,note_on,35,0,6,,,,,,,,5,,,57,64
70080,note_on,10,0,1,,,,,,,,0,,,84,106
70230,note_on,150,0,1,,,,,,,,0,,,84,0
70240,note_on,10,0,1,,,,,,,,0,,,82,106
70390,note_on,150,0,1,,,,,,,,0,,,82,0
70400,note_on,10,0,1,,,,,,,,0,,,81,106
70525,note_on,445,0,5,,,,,,,,4,,,57,0
70525,note_on,445,0,6,,,,,,,,5,,,57,0
70550,note_on,150,0,1,,,,,,,,0,,,81,0
70560,note_on,10,0,1,,,,,,,,0,,,82,106
70560,note_on,35,0,5,,,,,,,,4,,,55,64
70560,note_on,35,0,6,,,,,,,,5,,,55,64
70710,note_on,150,0,1,,,,,,,,0,,,82,0
70720,note_on,10,0,1,,,,,,,,0,,,81,106
70870,note_on,150,0,1,,,,,,,,0,,,81,0
70880,note_on,10,0,1,,,,,,,,0,,,79,106
71005,note_on,445,0,6,,,,,,,,5,,,55,0
71005,note_on,445,0,5,,,,,,,,4,,,55,0
71030,note_on,150,0,1,,,,,,,,0,,,79,0
71040,note_on,35,0,6,,,,,,,,5,,,53,64
71040,note_on,10,0,1,,,,,,,,0,,,81,106
71040,note_on,35,0,5,,,,,,,,4,,,53,64
71190,note_on,150,0,1,,,,,,,,0,,,81,0
71200,note_on,10,0,1,,,,,,,,0,,,79,106
71350,note_on,150,0,1,,,,,,,,0,,,79,0
71360,note_on,10,0,1,,,,,,,,0,,,77,106
71485,note_on,445,0,6,,,,,,,,5,,,53,0
71485,note_on,445,0,5,,,,,,,,4,,,53,0
71510,note_on,150,0,1,,,,,,,,0,,,77,0
71520,note_on,35,0,5,,,,,,,,4,,,48,64
71520,note_on,35,0,6,,,,,,,,5,,,48,64
71520,note_on,10,0,1,,,,,,,,0,,,76,106
71670,note_on,150,0,1,,,,,,,,0,,,76,0
71680,note_on,10,0,1,,,,,,,,0,,,77,106
71830,note_on,150,0,1,,,,,,,,0,,,77,0
71840,note_on,10,0,1,,,,,,,,0,,,79,106
71965,note_on,445,0,5,,,,,,,,4,,,48,0
71965,note_on,445,0,6,,,,,,,,5,,,48,0
71990,note_on,150,0,1,,,,,,,,0,,,79,0
72000,note_on,10,0,1,,,,,,,,0,,,77,106
72000,note_on,35,0,6,,,,,,,,5,,,53,85
72000,note_on,35,0,5,,,,,,,,4,,,53,85
72445,note_on,445,0,6,,,,,,,,5,,,53,0
72445,note_on,445,0,5,,,,,,,,4,,,53,0
72480,note_on,35,0,6,,,,,,,,5,,,53,85
72480,note_on,35,0,5,,,,,,,,4,,,53,85
72540,note_on,60,0,5,,,,,,,,4,,,53,0
72540,note_on,60,0,6,,,,,,,,5,,,53,0
72720,note_on,180,0,5,,,,,,,,4,,,53,85
72720,note_on,180,0,6,,,,,,,,5,,,53,85
72780,note_on,60,0,6,,,,,,,,5,,,53,0
72780,note_on,60,0,5,,,,,,,,4,,,53,0
72960,note_on,180,0,6,,,,,,,,5,,,53,85
72960,note_on,180,0,5,,,,,,,,4,,,53,85
73020,note_on,60,0,6,,,,,,,,5,,,53,0
73020,note_on,60,0,5,,,,,,,,4,,,53,0
73200,note_on,180,0,5,,,,,,,,4,,,53,85
73200,note_on,180,0,6,,,,,,,,5,,,53,85
73260,note_on,60,0,6,,,,,,,,5,,,53,0
73260,note_on,60,0,5,,,,,,,,4,,,53,0
73325,note_on,1325,0,1,,,,,,,,0,,,77,0
73440,note_on,180,0,6,,,,,,,,5,,,60,49
73440,note_on,115,0,1,,,,,,,,0,,,87,64
73440,note_on,180,0,5,,,,,,,,4,,,60,49
73590,note_on,150,0,1,,,,,,,,0,,,87,0
73600,note_on,10,0,1,,,,,,,,0,,,86,64
73750,note_on,150,0,1,,,,,,,,0,,,86,0
73760,note_on,10,0,1,,,,,,,,0,,,84,64
73885,note_on,445,0,5,,,,,,,,4,,,60,0
73885,note_on,445,0,6,,,,,,,,5,,,60,0
73910,note_on,150,0,1,,,,,,,,0,,,84,0
73920,note_on,35,0,6,,,,,,,,5,,,58,49
73920,note_on,10,0,1,,,,,,,,0,,,86,64
73920,note_on,35,0,5,,,,,,,,4,,,58,49
74070,note_on,150,0,1,,,,,,,,0,,,86,0
74080,note_on,10,0,1,,,,,,,,0,,,84,64
74230,note_on,150,0,1,,,,,,,,0,,,84,0
74240,note_on,10,0,1,,,,,,,,0,,,82,64
74365,note_on,445,0,6,,,,,,,,5,,,58,0
74365,note_on,445,0,5,,,,,,,,4,,,58,0
74390,note_on,150,0,1,,,,,,,,0,,,82,0
74400,note_on,35,0,6,,,,,,,,5,,,57,49
74400,note_on,35,0,5,,,,,,,,4,,,57,49
74400,note_on,10,0,1,,,,,,,,0,,,84,64
74550,note_on,150,0,1,,,,,,,,0,,,84,0
74560,note_on,10,0,1,,,,,,,,0,,,82,64
74710,note_on,150,0,1,,,,,,,,0,,,82,0
74720,note_on,10,0,1,,,,,,,,0,,,81,64
74845,note_on,445,0,5,,,,,,,,4,,,57,0
74845,note_on,445,0,6,,,,,,,,5,,,57,0
74870,note_on,150,0,1,,,,,,,,0,,,81,0
74880,note_on,35,0,6,,,,,,,,5,,,55,49
74880,note_on,35,0,5,,,,,,,,4,,,55,49
74880,note_on,10,0,1,,,,,,,,0,,,82,64
75030,note_on,150,0,1,,,,,,,,0,,,82,0
75040,note_on,10,0,1,,,,,,,,0,,,81,64
75190,note_on,150,0,1,,,,,,,,0,,,81,0
75200,note_on,10,0,1,,,,,,,,0,,,79,64
75325,note_on,445,0,6,,,,,,,,5,,,55,0
75325,note_on,445,0,5,,,,,,,,4,,,55,0
75350,note_on,150,0,1,,,,,,,,0,,,79,0
75360,note_on,10,0,1,,,,,,,,0,,,81,64
75360,note_on,35,0,5,,,,,,,,4,,,53,49
75360,note_on,35,0,6,,,,,,,,5,,,53,49
75510,note_on,150,0,1,,,,,,,,0,,,81,0
75520,note_on,10,0,1,,,,,,,,0,,,79,64
75670,note_on,150,0,1,,,,,,,,0,,,79,0
75680,note_on,10,0,1,,,,,,,,0,,,77,64
75805,note_on,445,0,5,,,,,,,,4,,,53,0
75805,note_on,445,0,6,,,,,,,,5,,,53,0
75830,note_on,150,0,1,,,,,,,,0,,,77,0
75840,note_on,10,0,1,,,,,,,,0,,,76,64
75840,note_on,35,0,6,,,,,,,,5,,,48,49
75840,note_on,35,0,5,,,,,,,,4,,,48,49
75990,note_on,150,0,1,,,,,,,,0,,,76,0
76000,note_on,10,0,1,,,,,,,,0,,,77,64
76150,note_on,150,0,1,,,,,,,,0,,,77,0
76160,note_on,10,0,1,,,,,,,,0,,,79,64
76285,note_on,445,0,6,,,,,,,,5,,,48,0
76285,note_on,445,0,5,,,,,,,,4,,,48,0
76310,note_on,150,0,1,,,,,,,,0,,,79,0
76320,note_on,10,0,1,,,,,,,,0,,,77,64
76320,note_on,35,0,5,,,,,,,,4,,,53,49
76320,note_on,35,0,6,,,,,,,,5,,,53,49
76765,note_on,445,0,5,,,,,,,,4,,,53,0
76765,note_on,445,0,6,,,,,,,,5,,,53,0
76800,note_on,35,0,5,,,,,,,,4,,,53,49
76800,note_on,35,0,6,,,,,,,,5,,,53,49
76860,note_on,60,0,5,,,,,,,,4,,,53,0
76860,note_on,60,0,6,,,,,,,,5,,,53,0
77040,note_on,180,0,5,,,,,,,,4,,,53,49
77040,note_on,180,0,6,,,,,,,,5,,,53,49
77100,note_on,60,0,5,,,,,,,,4,,,53,0
77100,note_on,60,0,6,,,,,,,,5,,,53,0
77280,note_on,180,0,6,,,,,,,,5,,,53,49
77280,note_on,180,0,5,,,,,,,,4,,,53,49
77340,note_on,60,0,5,,,,,,,,4,,,53,0
77340,note_on,60,0,6,,,,,,,,5,,,53,0
77520,note_on,180,0,5,,,,,,,,4,,,53,49
77520,note_on,180,0,6,,,,,,,,5,,,53,49
77580,note_on,60,0,6,,,,,,,,5,,,53,0
77580,note_on,60,0,5,,,,,,,,4,,,53,0
77645,note_on,1325,0,1,,,,,,,,0,,,77,0
77760,note_on,180,0,6,,,,,,,,5,,,53,49
77760,note_on,115,0,1,,,,,,,,0,,,77,106
77760,note_on,0,0,1,,,,,,,,0,,,72,106
77760,note_on,180,0,5,,,,,,,,4,,,53,49
78205,note_on,445,0,1,,,,,,,,0,,,72,0
78205,note_on,445,0,5,,,,,,,,4,,,53,0
78205,note_on,0,0,1,,,,,,,,0,,,77,0
78205,note_on,445,0,6,,,,,,,,5,,,53,0
78240,note_on,0,0,1,,,,,,,,0,,,72,106
78240,note_on,35,0,1,,,,,,,,0,,,77,106
78300,note_on,60,0,1,,,,,,,,0,,,72,0
78300,note_on,0,0,1,,,,,,,,0,,,77,0
78480,note_on,180,0,1,,,,,,,,0,,,77,106
78480,note_on,0,0,1,,,,,,,,0,,,72,106
78540,note_on,0,0,1,,,,,,,,0,,,77,0
78540,note_on,60,0,1,,,,,,,,0,,,72,0
78720,note_on,0,0,1,,,,,,,,0,,,69,106
78720,note_on,180,0,1,,,,,,,,0,,,77,106
78780,note_on,60,0,1,,,,,,,,0,,,69,0
78780,note_on,0,0,1,,,,,,,,0,,,77,0
78960,note_on,0,0,1,,,,,,,,0,,,72,106
78960,note_on,180,0,1,,,,,,,,0,,,77,106
79020,note_on,0,0,1,,,,,,,,0,,,77,0
79020,note_on,60,0,1,,,,,,,,0,,,72,0
79200,note_on,0,0,1,,,,,,,,0,,,72,106
79200,note_on,180,0,1,,,,,,,,0,,,81,106
79200,note_on,995,0,5,,,,,,,,4,,,53,49
79200,note_on,995,0,6,,,,,,,,5,,,53,49
79645,note_on,445,0,5,,,,,,,,4,,,53,0
79645,note_on,0,0,1,,,,,,,,0,,,81,0
79645,note_on,445,0,1,,,,,,,,0,,,72,0
79645,note_on,445,0,6,,,,,,,,5,,,53,0
79680,note_on,35,0,1,,,,,,,,0,,,77,106
79680,note_on,0,0,1,,,,,,,,0,,,72,106
79740,note_on,60,0,1,,,,,,,,0,,,72,0
79740,note_on,0,0,1,,,,,,,,0,,,77,0
79920,note_on,180,0,1,,,,,,,,0,,,77,106
79920,note_on,0,0,1,,,,,,,,0,,,72,106
79980,note_on,60,0,1,,,,,,,,0,,,72,0
79980,note_on,0,0,1,,,,,,,,0,,,77,0
80160,note_on,0,0,1,,,,,,,,0,,,69,106
80160,note_on,180,0,1,,,,,,,,0,,,77,106
80220,note_on,60,0,1,,,,,,,,0,,,69,0
80220,note_on,0,0,1,,,,,,,,0,,,77,0
80400,note_on,180,0,1,,,,,,,,0,,,77,106
80400,note_on,0,0,1,,,,,,,,0,,,72,106
80460,note_on,60,0,1,,,,,,,,0,,,72,0
80460,note_on,0,0,1,,,,,,,,0,,,77,0
80640,note_on,180,0,1,,,,,,,,0,,,81,106
80640,note_on,0,0,1,,,,,,,,0,,,72,106
80640,note_on,995,0,6,,,,,,,,5,,,53,49
80640,note_on,995,0,5,,,,,,,,4,,,53,49
81085,note_on,445,0,1,,,,,,,,0,,,81,0
81120,note_on,35,0,1,,,,,,,,0,,,79,106
81565,note_on,445,0,1,,,,,,,,0,,,79,0
81600,note_on,35,0,1,,,,,,,,0,,,77,106
81720,note_on,120,0,1,,,,,,,,0,,,77,0
81965,note_on,1325,0,5,,,,,,,,4,,,53,0
81965,note_on,1325,0,6,,,,,,,,5,,,53,0
82080,note_on,115,0,5,,,,,,,,4,,,60,49
82080,note_on,115,0,6,,,,,,,,5,,,60,49
82080,note_on,360,0,1,,,,,,,,0,,,79,106
82525,note_on,445,0,1,,,,,,,,0,,,79,0
82560,note_on,35,0,1,,,,,,,,0,,,77,106
82965,note_on,885,0,6,,,,,,,,5,,,60,0
82965,note_on,885,0,5,,,,,,,,4,,,60,0
83005,note_on,445,0,1,,,,,,,,0,,,77,0
83040,note_on,35,0,1,,,,,,,,0,,,76,106
83040,note_on,75,0,5,,,,,,,,4,,,48,49
83040,note_on,75,0,6,,,,,,,,5,,,48,49
83160,note_on,120,0,1,,,,,,,,0,,,76,0
83405,note_on,245,0,1,,,,,,,,0,,,72,0
83485,note_on,445,0,5,,,,,,,,4,,,48,0
83485,note_on,445,0,6,,,,,,,,5,,,48,0
83520,note_on,35,0,5,,,,,,,,4,,,53,49
83520,note_on,35,0,6,,,,,,,,5,,,53,49
83520,note_on,0,0,1,,,,,,,,0,,,72,106
83520,note_on,115,0,1,,,,,,,,0,,,77,106
83965,note_on,445,0,6,,,,,,,,5,,,53,0
83965,note_on,445,0,5,,,,,,,,4,,,53,0
84000,note_on,35,0,6,,,,,,,,5,,,53,49
84000,note_on,35,0,5,,,,,,,,4,,,53,49
84060,note_on,60,0,6,,,,,,,,5,,,53,0
84060,note_on,60,0,5,,,,,,,,4,,,53,0
84240,note_on,180,0,6,,,,,,,,5,,,53,49
84240,note_on,180,0,5,,,,,,,,4,,,53,49
84300,note_on,60,0,6,,,,,,,,5,,,53,0
84300,note_on,60,0,5,,,,,,,,4,,,53,0
84480,note_on,180,0,6,,,,,,,,5,,,53,49
84480,note_on,180,0,5,,,,,,,,4,,,53,49
84540,note_on,60,0,5,,,,,,,,4,,,53,0
84540,note_on,60,0,6,,,,,,,,5,,,53,0
84720,note_on,180,0,5,,,,,,,,4,,,53,49
84720,note_on,180,0,6,,,,,,,,5,,,53,49
84780,note_on,60,0,5,,,,,,,,4,,,53,0
84780,note_on,60,0,6,,,,,,,,5,,,53,0
84845,note_on,1325,0,1,,,,,,,,0,,,72,0
84845,note_on,0,0,1,,,,,,,,0,,,77,0
84960,note_on,180,0,6,,,,,,,,5,,,53,49
84960,note_on,180,0,5,,,,,,,,4,,,53,49
84960,note_on,115,0,1,,,,,,,,0,,,77,64
84960,note_on,0,0,1,,,,,,,,0,,,72,64
85405,note_on,445,0,6,,,,,,,,5,,,53,0
85405,note_on,445,0,1,,,,,,,,0,,,72,0
85405,note_on,0,0,1,,,,,,,,0,,,77,0
85405,note_on,445,0,5,,,,,,,,4,,,53,0
85440,note_on,35,0,1,,,,,,,,0,,,77,64
85440,note_on,0,0,1,,,,,,,,0,,,72,64
85500,note_on,60,0,1,,,,,,,,0,,,72,0
85500,note_on,0,0,1,,,,,,,,0,,,77,0
85680,note_on,180,0,1,,,,,,,,0,,,77,64
85680,note_on,0,0,1,,,,,,,,0,,,72,64
85740,note_on,60,0,1,,,,,,,,0,,,72,0
85740,note_on,0,0,1,,,,,,,,0,,,77,0
85920,note_on,180,0,1,,,,,,,,0,,,77,64
85920,note_on,0,0,1,,,,,,,,0,,,69,64
85980,note_on,60,0,1,,,,,,,,0,,,69,0
85980,note_on,0,0,1,,,,,,,,0,,,77,0
86160,note_on,180,0,1,,,,,,,,0,,,77,64
86160,note_on,0,0,1,,,,,,,,0,,,72,64
86220,note_on,0,0,1,,,,,,,,0,,,77,0
86220,note_on,60,0,1,,,,,,,,0,,,72,0
86400,note_on,995,0,6,,,,,,,,5,,,53,49
86400,note_on,995,0,5,,,,,,,,4,,,53,49
86400,note_on,0,0,1,,,,,,,,0,,,72,64
86400,note_on,180,0,1,,,,,,,,0,,,81,64
86845,note_on,445,0,6,,,,,,,,5,,,53,0
86845,note_on,445,0,5,,,,,,,,4,,,53,0
86845,note_on,445,0,1,,,,,,,,0,,,72,0
86845,note_on,0,0,1,,,,,,,,0,,,81,0
86880,note_on,35,0,1,,,,,,,,0,,,77,64
86880,note_on,0,0,1,,,,,,,,0,,,72,64
86940,note_on,0,0,1,,,,,,,,0,,,77,0
86940,note_on,60,0,1,,,,,,,,0,,,72,0
87120,note_on,0,0,1,,,,,,,,0,,,72,64
87120,note_on,180,0,1,,,,,,,,0,,,77,64
87180,note_on,60,0,1,,,,,,,,0,,,72,0
87180,note_on,0,0,1,,,,,,,,0,,,77,0
87360,note_on,180,0,1,,,,,,,,0,,,77,64
87360,note_on,0,0,1,,,,,,,,0,,,69,64
87420,note_on,60,0,1,,,,,,,,0,,,69,0
87420,note_on,0,0,1,,,,,,,,0,,,77,0
87600,note_on,180,0,1,,,,,,,,0,,,77,64
87600,note_on,0,0,1,,,,,,,,0,,,72,64
87660,note_on,0,0,1,,,,,,,,0,,,77,0
87660,note_on,60,0,1,,,,,,,,0,,,72,0
87840,note_on,0,0,1,,,,,,,,0,,,72,64
87840,note_on,180,0,1,,,,,,,,0,,,81,64
87840,note_on,995,0,6,,,,,,,,5,,,53,49
87840,note_on,995,0,5,,,,,,,,4,,,53,49
88285,note_on,445,0,1,,,,,,,,0,,,81,0
88320,note_on,35,0,1,,,,,,,,0,,,79,64
88765,note_on,445,0,1,,,,,,,,0,,,79,0
88800,note_on,35,0,1,,,,,,,,0,,,77,64
88920,note_on,120,0,1,,,,,,,,0,,,77,0
89165,note_on,1325,0,6,,,,,,,,5,,,53,0
89165,note_on,1325,0,5,,,,,,,,4,,,53,0
89280,note_on,360,0,1,,,,,,,,0,,,79,64
89280,note_on,115,0,6,,,,,,,,5,,,60,49
89280,note_on,115,0,5,,,,,,,,4,,,60,49
89725,note_on,445,0,1,,,,,,,,0,,,79,0
89760,note_on,35,0,1,,,,,,,,0,,,77,64
90165,note_on,885,0,6,,,,,,,,5,,,60,0
90165,note_on,885,0,5,,,,,,,,4,,,60,0
90205,note_on,445,0,1,,,,,,,,0,,,77,0
90240,note_on,35,0,1,,,,,,,,0,,,76,64
90240,note_on,75,0,5,,,,,,,,4,,,48,49
90240,note_on,75,0,6,,,,,,,,5,,,48,49
90360,note_on,120,0,1,,,,,,,,0,,,76,0
90605,note_on,245,0,1,,,,,,,,0,,,72,0
90685,note_on,445,0,6,,,,,,,,5,,,48,0
90685,note_on,445,0,5,,,,,,,,4,,,48,0
90720,note_on,35,0,5,,,,,,,,4,,,53,85
90720,note_on,0,0,1,,,,,,,,0,,,72,64
90720,note_on,42755,0,4,,,,,,,,3,,,69,64
90720,note_on,115,0,1,,,,,,,,0,,,77,64
90720,note_on,35,0,6,,,,,,,,5,,,53,85
90720,note_on,42755,0,2,,,,,,,,1,,,65,64
90945,note_on,225,0,4,,,,,,,,3,,,69,0
90945,note_on,225,0,6,,,,,,,,5,,,53,0
90945,note_on,225,0,5,,,,,,,,4,,,53,0
90960,note_on,15,0,5,,,,,,,,4,,,53,85
90960,note_on,15,0,6,,,,,,,,5,,,53,85
90960,note_on,15,0,4,,,,,,,,3,,,69,64
91075,note_on,115,0,6,,,,,,,,5,,,53,0
91075,note_on,115,0,4,,,,,,,,3,,,69,0
91075,note_on,115,0,5,,,,,,,,4,,,53,0
91080,note_on,5,0,5,,,,,,,,4,,,53,85
91080,note_on,5,0,6,,,,,,,,5,,,53,85
91080,note_on,5,0,4,,,,,,,,3,,,69,64
91165,note_on,0,0,1,,,,,,,,0,,,77,0
91165,note_on,445,0,1,,,,,,,,0,,,72,0
91165,note_on,445,0,2,,,,,,,,1,,,65,0
91195,note_on,115,0,6,,,,,,,,5,,,53,0
91195,note_on,115,0,4,,,,,,,,3,,,69,0
91195,note_on,115,0,5,,,,,,,,4,,,53,0
91200,note_on,5,0,5,,,,,,,,4,,,53,85
91200,note_on,5,0,6,,,,,,,,5,,,53,85
91200,note_on,5,0,4,,,,,,,,3,,,69,64
91200,note_on,35,0,1,,,,,,,,0,,,77,80
91200,note_on,35,0,2,,,,,,,,1,,,77,80
91260,note_on,60,0,2,,,,,,,,1,,,77,0
91260,note_on,60,0,1,,,,,,,,0,,,77,0
91440,note_on,180,0,1,,,,,,,,0,,,65,64
91440,note_on,180,0,2,,,,,,,,1,,,65,64
91500,note_on,60,0,1,,,,,,,,0,,,65,0
91500,note_on,60,0,2,,,,,,,,1,,,65,0
91645,note_on,445,0,5,,,,,,,,4,,,53,0
91645,note_on,445,0,6,,,,,,,,5,,,53,0
91645,note_on,445,0,4,,,,,,,,3,,,69,0
91680,note_on,35,0,6,,,,,,,,5,,,65,85
91680,note_on,180,0,2,,,,,,,,1,,,65,64
91680,note_on,180,0,1,,,,,,,,0,,,65,64
91680,note_on,35,0,5,,,,,,,,4,,,65,85
91680,note_on,35,0,4,,,,,,,,3,,,69,64
91740,note_on,60,0,1,,,,,,,,0,,,65,0
91740,note_on,60,0,2,,,,,,,,1,,,65,0
91920,note_on,180,0,2,,,,,,,,1,,,65,64
91920,note_on,180,0,1,,,,,,,,0,,,65,64
91980,note_on,60,0,1,,,,,,,,0,,,65,0
91980,note_on,60,0,2,,,,,,,,1,,,65,0
92125,note_on,445,0,5,,,,,,,,4,,,65,0
92125,note_on,445,0,6,,,,,,,,5,,,65,0
92125,note_on,445,0,4,,,,,,,,3,,,69,0
92160,note_on,180,0,1,,,,,,,,0,,,65,64
92160,note_on,35,0,4,,,,,,,,3,,,69,64
92160,note_on,35,0,5,,,,,,,,4,,,53,85
92160,note_on,35,0,6,,,,,,,,5,,,53,85
92160,note_on,180,0,2,,,,,,,,1,,,65,64
92385,note_on,225,0,6,,,,,,,,5,,,53,0
92385,note_on,225,0,5,,,,,,,,4,,,53,0
92385,note_on,225,0,4,,,,,,,,3,,,69,0
92400,note_on,15,0,4,,,,,,,,3,,,69,64
92400,note_on,15,0,5,,,,,,,,4,,,53,85
92400,note_on,15,0,6,,,,,,,,5,,,53,85
92515,note_on,115,0,6,,,,,,,,5,,,53,0
92515,note_on,115,0,5,,,,,,,,4,,,53,0
92515,note_on,115,0,4,,,,,,,,3,,,69,0
92520,note_on,5,0,6,,,,,,,,5,,,53,85
92520,note_on,5,0,5,,,,,,,,4,,,53,85
92520,note_on,5,0,4,,,,,,,,3,,,69,64
92605,note_on,445,0,1,,,,,,,,0,,,65,0
92605,note_on,445,0,2,,,,,,,,1,,,65,0
92635,note_on,115,0,5,,,,,,,,4,,,53,0
92635,note_on,115,0,4,,,,,,,,3,,,69,0
92635,note_on,115,0,6,,,,,,,,5,,,53,0
92640,note_on,5,0,6,,,,,,,,5,,,53,85
92640,note_on,35,0,1,,,,,,,,0,,,77,80
92640,note_on,5,0,5,,,,,,,,4,,,53,85
92640,note_on,5,0,4,,,,,,,,3,,,69,64
92640,note_on,35,0,2,,,,,,,,1,,,77,80
92700,note_on,60,0,1,,,,,,,,0,,,77,0
92700,note_on,60,0,2,,,,,,,,1,,,77,0
92880,note_on,180,0,1,,,,,,,,0,,,65,64
92880,note_on,180,0,2,,,,,,,,1,,,65,64
92940,note_on,60,0,2,,,,,,,,1,,,65,0
92940,note_on,60,0,1,,,,,,,,0,,,65,0
93085,note_on,445,0,6,,,,,,,,5,,,53,0
93085,note_on,445,0,4,,,,,,,,3,,,69,0
93085,note_on,445,0,5,,,,,,,,4,,,53,0
93120,note_on,180,0,1,,,,,,,,0,,,65,64
93120,note_on,35,0,6,,,,,,,,5,,,65,85
93120,note_on,180,0,2,,,,,,,,1,,,65,64
93120,note_on,35,0,4,,,,,,,,3,,,69,64
93120,note_on,35,0,5,,,,,,,,4,,,65,85
93180,note_on,60,0,1,,,,,,,,0,,,65,0
93180,note_on,60,0,2,,,,,,,,1,,,65,0
93360,note_on,180,0,1,,,,,,,,0,,,65,64
93360,note_on,180,0,2,,,,,,,,1,,,65,64
93420,note_on,60,0,2,,,,,,,,1,,,65,0
93420,note_on,60,0,1,,,,,,,,0,,,65,0
93565,note_on,445,0,6,,,,,,,,5,,,65,0
93565,note_on,445,0,5,,,,,,,,4,,,65,0
93565,note_on,445,0,4,,,,,,,,3,,,69,0
93600,note_on,180,0,2,,,,,,,,1,,,65,64
93600,note_on,35,0,5,,,,,,,,4,,,53,85
93600,note_on,35,0,6,,,,,,,,5,,,53,85
93600,note_on,180,0,1,,,,,,,,0,,,65,64
93600,note_on,35,0,4,,,,,,,,3,,,69,64
93825,note_on,225,0,5,,,,,,,,4,,,53,0
93825,note_on,225,0,6,,,,,,,,5,,,53,0
93825,note_on,225,0,4,,,,,,,,3,,,69,0
93840,note_on,15,0,5,,,,,,,,4,,,53,85
93840,note_on,15,0,4,,,,,,,,3,,,69,64
93840,note_on,15,0,6,,,,,,,,5,,,53,85
93955,note_on,115,0,5,,,,,,,,4,,,53,0
93955,note_on,115,0,6,,,,,,,,5,,,53,0
93955,note_on,115,0,4,,,,,,,,3,,,69,0
93960,note_on,5,0,5,,,,,,,,4,,,53,85
93960,note_on,5,0,6,,,,,,,,5,,,53,85
93960,note_on,5,0,4,,,,,,,,3,,,69,64
94045,note_on,445,0,2,,,,,,,,1,,,65,0
94045,note_on,445,0,1,,,,,,,,0,,,65,0
94075,note_on,115,0,5,,,,,,,,4,,,53,0
94075,note_on,115,0,4,,,,,,,,3,,,69,0
94075,note_on,115,0,6,,,,,,,,5,,,53,0
94080,note_on,5,0,4,,,,,,,,3,,,69,64
94080,note_on,5,0,5,,,,,,,,4,,,53,85
94080,note_on,35,0,2,,,,,,,,1,,,65,64
94080,note_on,35,0,1,,,,,,,,0,,,65,64
94080,note_on,5,0,6,,,,,,,,5,,,53,85
94140,note_on,60,0,2,,,,,,,,1,,,65,0
94305,note_on,225,0,1,,,,,,,,0,,,65,0
94320,note_on,15,0,1,,,,,,,,0,,,72,64
94320,note_on,180,0,2,,,,,,,,1,,,72,64
94380,note_on,60,0,2,,,,,,,,1,,,72,0
94525,note_on,445,0,4,,,,,,,,3,,,69,0
94525,note_on,445,0,6,,,,,,,,5,,,53,0
94525,note_on,445,0,5,,,,,,,,4,,,53,0
94545,note_on,225,0,1,,,,,,,,0,,,72,0
94560,note_on,15,0,1,,,,,,,,0,,,70,64
94560,note_on,35,0,5,,,,,,,,4,,,65,85
94560,note_on,35,0,6,,,,,,,,5,,,65,85
94560,note_on,35,0,4,,,,,,,,3,,,69,64
94560,note_on,180,0,2,,,,,,,,1,,,70,64
94620,note_on,60,0,2,,,,,,,,1,,,70,0
94785,note_on,225,0,1,,,,,,,,0,,,70,0
94800,note_on,180,0,2,,,,,,,,1,,,69,64
94800,note_on,15,0,1,,,,,,,,0,,,69,64
94860,note_on,60,0,2,,,,,,,,1,,,69,0
95005,note_on,445,0,6,,,,,,,,5,,,65,0
95005,note_on,445,0,5,,,,,,,,4,,,65,0
95005,note_on,445,0,4,,,,,,,,3,,,69,0
95025,note_on,225,0,1,,,,,,,,0,,,69,0
95040,note_on,15,0,1,,,,,,,,0,,,67,64
95040,note_on,180,0,2,,,,,,,,1,,,67,64
95040,note_on,47075,0,3,,,,,,,,2,,,60,85
95040,note_on,35,0,4,,,,,,,,3,,,64,64
95040,note_on,35,0,6,,,,,,,,5,,,48,85
95040,note_on,35,0,5,,,,,,,,4,,,48,85
95265,note_on,225,0,4,,,,,,,,3,,,64,0
95265,note_on,225,0,5,,,,,,,,4,,,48,0
95265,note_on,225,0,6,,,,,,,,5,,,48,0
95280,note_on,15,0,6,,,,,,,,5,,,48,85
95280,note_on,15,0,4,,,,,,,,3,,,64,64
95280,note_on,15,0,5,,,,,,,,4,,,48,85
95395,note_on,115,0,4,,,,,,,,3,,,64,0
95395,note_on,115,0,5,,,,,,,,4,,,48,0
95395,note_on,115,0,6,,,,,,,,5,,,48,0
95400,note_on,5,0,6,,,,,,,,5,,,48,85
95400,note_on,5,0,4,,,,,,,,3,,,64,64
95400,note_on,5,0,5,,,,,,,,4,,,48,85
95485,note_on,445,0,3,,,,,,,,2,,,60,0
95485,note_on,445,0,1,,,,,,,,0,,,67,0
95485,note_on,445,0,2,,,,,,,,1,,,67,0
95515,note_on,115,0,6,,,,,,,,5,,,48,0
95515,note_on,115,0,4,,,,,,,,3,,,64,0
95515,note_on,115,0,5,,,,,,,,4,,,48,0
95520,note_on,35,0,3,,,,,,,,2,,,72,101
95520,note_on,5,0,4,,,,,,,,3,,,64,64
95520,note_on,5,0,5,,,,,,,,4,,,48,85
95520,note_on,5,0,6,,,,,,,,5,,,48,85
95580,note_on,60,0,3,,,,,,,,2,,,72,0
95760,note_on,180,0,3,,,,,,,,2,,,60,85
95820,note_on,60,0,3,,,,,,,,2,,,60,0
95965,note_on,445,0,4,,,,,,,,3,,,64,0
95965,note_on,445,0,5,,,,,,,,4,,,48,0
95965,note_on,445,0,6,,,,,,,,5,,,48,0
96000,note_on,35,0,4,,,,,,,,3,,,64,64
96000,note_on,35,0,6,,,,,,,,5,,,60,85
96000,note_on,35,0,5,,,,,,,,4,,,60,85
96000,note_on,180,0,3,,,,,,,,2,,,60,85
96060,note_on,60,0,3,,,,,,,,2,,,60,0
96240,note_on,180,0,3,,,,,,,,2,,,60,85
96300,note_on,60,0,3,,,,,,,,2,,,60,0
96445,note_on,445,0,4,,,,,,,,3,,,64,0
96445,note_on,445,0,5,,,,,,,,4,,,60,0
96445,note_on,445,0,6,,,,,,,,5,,,60,0
96480,note_on,995,0,1,,,,,,,,0,,,72,64
96480,note_on,180,0,3,,,,,,,,2,,,60,85
96480,note_on,35,0,6,,,,,,,,5,,,48,85
96480,note_on,995,0,2,,,,,,,,1,,,72,64
96480,note_on,35,0,5,,,,,,,,4,,,48,85
96480,note_on,35,0,4,,,,,,,,3,,,64,64
96705,note_on,225,0,6,,,,,,,,5,,,48,0
96705,note_on,225,0,5,,,,,,,,4,,,48,0
96705,note_on,225,0,4,,,,,,,,3,,,64,0
96720,note_on,15,0,4,,,,,,,,3,,,64,64
96720,note_on,15,0,6,,,,,,,,5,,,48,85
96720,note_on,15,0,5,,,,,,,,4,,,48,85
96835,note_on,115,0,4,,,,,,,,3,,,64,0
96835,note_on,115,0,5,,,,,,,,4,,,48,0
96835,note_on,115,0,6,,,,,,,,5,,,48,0
96840,note_on,5,0,6,,,,,,,,5,,,48,85
96840,note_on,5,0,5,,,,,,,,4,,,48,85
96840,note_on,5,0,4,,,,,,,,3,,,64,64
96925,note_on,445,0,2,,,,,,,,1,,,72,0
96925,note_on,445,0,3,,,,,,,,2,,,60,0
96925,note_on,445,0,1,,,,,,,,0,,,72,0
96955,note_on,115,0,5,,,,,,,,4,,,48,0
96955,note_on,115,0,6,,,,,,,,5,,,48,0
96955,note_on,115,0,4,,,,,,,,3,,,64,0
96960,note_on,35,0,3,,,,,,,,2,,,70,101
96960,note_on,5,0,4,,,,,,,,3,,,64,64
96960,note_on,5,0,5,,,,,,,,4,,,48,85
96960,note_on,5,0,6,,,,,,,,5,,,48,85
97020,note_on,60,0,3,,,,,,,,2,,,70,0
97200,note_on,180,0,3,,,,,,,,2,,,60,85
97200,note_on,275,0,2,,,,,,,,1,,,74,64
97200,note_on,275,0,1,,,,,,,,0,,,74,64
97260,note_on,60,0,3,,,,,,,,2,,,60,0
97315,note_on,115,0,2,,,,,,,,1,,,74,0
97315,note_on,115,0,1,,,,,,,,0,,,74,0
97320,note_on,5,0,1,,,,,,,,0,,,76,64
97320,note_on,5,0,2,,,,,,,,1,,,76,64
97405,note_on,445,0,6,,,,,,,,5,,,48,0
97405,note_on,445,0,5,,,,,,,,4,,,48,0
97405,note_on,445,0,4,,,,,,,,3,,,64,0
97435,note_on,115,0,2,,,,,,,,1,,,76,0
97435,note_on,115,0,1,,,,,,,,0,,,76,0
97440,note_on,35,0,4,,,,,,,,3,,,64,64
97440,note_on,5,0,2,,,,,,,,1,,,77,64
97440,note_on,35,0,6,,,,,,,,5,,,60,85
97440,note_on,180,0,3,,,,,,,,2,,,60,85
97440,note_on,5,0,1,,,,,,,,0,,,77,64
97440,note_on,35,0,5,,,,,,,,4,,,60,85
97500,note_on,60,0,3,,,,,,,,2,,,60,0
97555,note_on,115,0,1,,,,,,,,0,,,77,0
97555,note_on,115,0,2,,,,,,,,1,,,77,0
97560,note_on,5,0,2,,,,,,,,1,,,79,64
97560,note_on,5,0,1,,,,,,,,0,,,79,64
97675,note_on,115,0,2,,,,,,,,1,,,79,0
97675,note_on,115,0,1,,,,,,,,0,,,79,0
97680,note_on,5,0,2,,,,,,,,1,,,81,64
97680,note_on,180,0,3,,,,,,,,2,,,60,85
97680,note_on,5,0,1,,,,,,,,0,,,81,64
97740,note_on,60,0,3,,,,,,,,2,,,60,0
97795,note_on,115,0,1,,,,,,,,0,,,81,0
97795,note_on,115,0,2,,,,,,,,1,,,81,0
97800,note_on,5,0,1,,,,,,,,0,,,82,64
97800,note_on,5,0,2,,,,,,,,1,,,82,64
97885,note_on,445,0,5,,,,,,,,4,,,60,0
97885,note_on,445,0,4,,,,,,,,3,,,64,0
97885,note_on,445,0,6,,,,,,,,5,,,60,0
97915,note_on,115,0,1,,,,,,,,0,,,82,0
97915,note_on,115,0,2,,,,,,,,1,,,82,0
97920,note_on,35,0,5,,,,,,,,4,,,48,85
97920,note_on,35,0,6,,,,,,,,5,,,48,85
97920,note_on,5,0,1,,,,,,,,0,,,84,64
97920,note_on,5,0,2,,,,,,,,1,,,84,64
97920,note_on,180,0,3,,,,,,,,2,,,60,85
97920,note_on,35,0,4,,,,,,,,3,,,64,64
98145,note_on,225,0,4,,,,,,,,3,,,64,0
98145,note_on,225,0,5,,,,,,,,4,,,48,0
98145,note_on,225,0,6,,,,,,,,5,,,48,0
98160,note_on,15,0,5,,,,,,,,4,,,48,85
98160,note_on,15,0,6,,,,,,,,5,,,48,85
98160,note_on,15,0,4,,,,,,,,3,,,64,64
98275,note_on,115,0,6,,,,,,,,5,,,48,0
98275,note_on,115,0,4,,,,,,,,3,,,64,0
98275,note_on,115,0,5,,,,,,,,4,,,48,0
98280,note_on,5,0,4,,,,,,,,3,,,64,64
98280,note_on,5,0,5,,,,,,,,4,,,48,85
98280,note_on,5,0,6,,,,,,,,5,,,48,85
98365,note_on,445,0,1,,,,,,,,0,,,84,0
98365,note_on,445,0,3,,,,,,,,2,,,60,0
98365,note_on,445,0,2,,,,,,,,1,,,84,0
98395,note_on,115,0,5,,,,,,,,4,,,48,0
98395,note_on,115,0,4,,,,,,,,3,,,64,0
98395,note_on,115,0,6,,,,,,,,5,,,48,0
98400,note_on,5,0,6,,,,,,,,5,,,48,85
98400,note_on,35,0,2,,,,,,,,1,,,72,64
98400,note_on,5,0,4,,,,,,,,3,,,64,64
98400,note_on,35,0,1,,,,,,,,0,,,72,64
98400,note_on,35,0,3,,,,,,,,2,,,60,85
98400,note_on,5,0,5,,,,,,,,4,,,48,85
98460,note_on,60,0,3,,,,,,,,2,,,60,0
98640,note_on,180,0,3,,,,,,,,2,,,70,85
98700,note_on,60,0,3,,,,,,,,2,,,70,0
98845,note_on,445,0,2,,,,,,,,1,,,72,0
98845,note_on,445,0,5,,,,,,,,4,,,48,0
98845,note_on,445,0,6,,,,,,,,5,,,48,0
98845,note_on,445,0,1,,,,,,,,0,,,72,0
98845,note_on,445,0,4,,,,,,,,3,,,64,0
98880,note_on,35,0,5,,,,,,,,4,,,60,85
98880,note_on,35,0,4,,,,,,,,3,,,64,64
98880,note_on,35,0,6,,,,,,,,5,,,60,85
98880,note_on,180,0,3,,,,,,,,2,,,69,85
98940,note_on,60,0,3,,,,,,,,2,,,69,0
99120,note_on,180,0,3,,,,,,,,2,,,67,85
99180,note_on,60,0,3,,,,,,,,2,,,67,0
99325,note_on,445,0,4,,,,,,,,3,,,64,0
99325,note_on,445,0,6,,,,,,,,5,,,60,0
99325,note_on,445,0,5,,,,,,,,4,,,60,0
99360,note_on,180,0,3,,,,,,,,2,,,65,85
99360,note_on,35,0,4,,,,,,,,3,,,65,64
99360,note_on,35,0,5,,,,,,,,4,,,53,85
99360,note_on,35,0,6,,,,,,,,5,,,53,85
99600,note_on,755,0,2,,,,,,,,1,,,77,64
99600,note_on,755,0,1,,,,,,,,0,,,77,64
99805,note_on,445,0,3,,,,,,,,2,,,65,0
99825,note_on,225,0,1,,,,,,,,0,,,77,0
99825,note_on,225,0,2,,,,,,,,1,,,77,0
99840,note_on,15,0,2,,,,,,,,1,,,76,64
99840,note_on,15,0,1,,,,,,,,0,,,76,64
100065,note_on,225,0,1,,,,,,,,0,,,76,0
100065,note_on,225,0,2,,,,,,,,1,,,76,0
100080,note_on,15,0,1,,,,,,,,0,,,74,64
100080,note_on,15,0,2,,,,,,,,1,,,74,64
100305,note_on,225,0,1,,,,,,,,0,,,74,0
100305,note_on,225,0,2,,,,,,,,1,,,74,0
100320,note_on,15,0,2,,,,,,,,1,,,72,64
100320,note_on,15,0,1,,,,,,,,0,,,72,64
100545,note_on,225,0,2,,,,,,,,1,,,72,0
100545,note_on,225,0,1,,,,,,,,0,,,72,0
100560,note_on,15,0,2,,,,,,,,1,,,70,64
100560,note_on,15,0,1,,,,,,,,0,,,70,64
100785,note_on,225,0,2,,,,,,,,1,,,70,0
100785,note_on,225,0,1,,,,,,,,0,,,70,0
100800,note_on,15,0,2,,,,,,,,1,,,69,64
100800,note_on,15,0,1,,,,,,,,0,,,69,64
101025,note_on,225,0,1,,,,,,,,0,,,69,0
101025,note_on,225,0,2,,,,,,,,1,,,69,0
101040,note_on,15,0,1,,,,,,,,0,,,74,64
101040,note_on,15,0,2,,,,,,,,1,,,74,64
101040,note_on,1235,0,3,,,,,,,,2,,,77,85
101265,note_on,225,0,1,,,,,,,,0,,,74,0
101265,note_on,225,0,2,,,,,,,,1,,,74,0
101265,note_on,225,0,3,,,,,,,,2,,,77,0
101280,note_on,15,0,2,,,,,,,,1,,,72,64
101280,note_on,15,0,3,,,,,,,,2,,,76,85
101280,note_on,15,0,1,,,,,,,,0,,,72,64
101505,note_on,225,0,3,,,,,,,,2,,,76,0
101505,note_on,225,0,1,,,,,,,,0,,,72,0
101505,note_on,225,0,2,,,,,,,,1,,,72,0
101520,note_on,15,0,3,,,,,,,,2,,,74,85
101520,note_on,15,0,1,,,,,,,,0,,,70,64
101520,note_on,15,0,2,,,,,,,,1,,,70,64
101745,note_on,225,0,2,,,,,,,,1,,,70,0
101745,note_on,225,0,1,,,,,,,,0,,,70,0
101745,note_on,225,0,3,,,,,,,,2,,,74,0
101760,note_on,15,0,3,,,,,,,,2,,,72,85
101760,note_on,15,0,2,,,,,,,,1,,,69,64
101760,note_on,15,0,1,,,,,,,,0,,,69,64
101985,note_on,225,0,2,,,,,,,,1,,,69,0
101985,note_on,225,0,1,,,,,,,,0,,,69,0
101985,note_on,225,0,3,,,,,,,,2,,,72,0
102000,note_on,15,0,2,,,,,,,,1,,,67,64
102000,note_on,15,0,3,,,,,,,,2,,,70,85
102000,note_on,15,0,1,,,,,,,,0,,,67,64
102225,note_on,225,0,1,,,,,,,,0,,,67,0
102225,note_on,225,0,3,,,,,,,,2,,,70,0
102225,note_on,225,0,2,,,,,,,,1,,,67,0
102240,note_on,15,0,1,,,,,,,,0,,,65,64
102240,note_on,15,0,2,,,,,,,,1,,,65,64
102240,note_on,15,0,3,,,,,,,,2,,,69,85
102465,note_on,225,0,3,,,,,,,,2,,,69,0
102465,note_on,225,0,1,,,,,,,,0,,,65,0
102465,note_on,225,0,2,,,,,,,,1,,,65,0
102480,note_on,15,0,2,,,,,,,,1,,,72,64
102480,note_on,15,0,1,,,,,,,,0,,,72,64
102480,note_on,15,0,3,,,,,,,,2,,,69,85
102705,note_on,225,0,2,,,,,,,,1,,,72,0
102705,note_on,225,0,3,,,,,,,,2,,,69,0
102705,note_on,225,0,1,,,,,,,,0,,,72,0
102720,note_on,15,0,1,,,,,,,,0,,,70,64
102720,note_on,15,0,2,,,,,,,,1,,,70,64
102720,note_on,15,0,3,,,,,,,,2,,,67,85
102945,note_on,225,0,2,,,,,,,,1,,,70,0
102945,note_on,225,0,3,,,,,,,,2,,,67,0
102945,note_on,225,0,1,,,,,,,,0,,,70,0
102960,note_on,15,0,2,,,,,,,,1,,,69,64
102960,note_on,15,0,3,,,,,,,,2,,,65,85
102960,note_on,15,0,1,,,,,,,,0,,,69,64
103185,note_on,225,0,2,,,,,,,,1,,,69,0
103185,note_on,225,0,3,,,,,,,,2,,,65,0
103185,note_on,225,0,1,,,,,,,,0,,,69,0
103200,note_on,15,0,1,,,,,,,,0,,,67,64
103200,note_on,15,0,2,,,,,,,,1,,,67,64
103200,note_on,15,0,3,,,,,,,,2,,,64,85
103425,note_on,225,0,1,,,,,,,,0,,,67,0
103425,note_on,225,0,3,,,,,,,,2,,,64,0
103425,note_on,225,0,2,,,,,,,,1,,,67,0
103440,note_on,15,0,1,,,,,,,,0,,,65,64
103440,note_on,15,0,3,,,,,,,,2,,,62,85
103440,note_on,15,0,2,,,,,,,,1,,,65,64
103565,note_on,4205,0,6,,,,,,,,5,,,53,0
103565,note_on,4205,0,5,,,,,,,,4,,,53,0
103565,note_on,4205,0,4,,,,,,,,3,,,65,0
103665,note_on,225,0,1,,,,,,,,0,,,65,0
103665,note_on,225,0,3,,,,,,,,2,,,62,0
103665,note_on,225,0,2,,,,,,,,1,,,65,0
103680,note_on,15,0,1,,,,,,,,0,,,60,64
103680,note_on,115,0,6,,,,,,,,5,,,48,85
103680,note_on,115,0,5,,,,,,,,4,,,48,85
103680,note_on,15,0,2,,,,,,,,1,,,60,64
103680,note_on,115,0,4,,,,,,,,3,,,67,64
103680,note_on,15,0,3,,,,,,,,2,,,60,85
104125,note_on,445,0,3,,,,,,,,2,,,60,0
104125,note_on,445,0,1,,,,,,,,0,,,60,0
104125,note_on,445,0,2,,,,,,,,1,,,60,0
104125,note_on,445,0,4,,,,,,,,3,,,67,0
104125,note_on,445,0,5,,,,,,,,4,,,48,0
104125,note_on,445,0,6,,,,,,,,5,,,48,0
104160,note_on,35,0,4,,,,,,,,3,,,60,101
104160,note_on,35,0,1,,,,,,,,0,,,72,101
104160,note_on,35,0,5,,,,,,,,4,,,48,101
104160,note_on,35,0,2,,,,,,,,1,,,72,101
104160,note_on,35,0,3,,,,,,,,2,,,72,101
104160,note_on,35,0,6,,,,,,,,5,,,48,101
104220,note_on,60,0,3,,,,,,,,2,,,72,0
104220,note_on,60,0,6,,,,,,,,5,,,48,0
104220,note_on,60,0,1,,,,,,,,0,,,72,0
104220,note_on,60,0,5,,,,,,,,4,,,48,0
104220,note_on,60,0,4,,,,,,,,3,,,60,0
104220,note_on,60,0,2,,,,,,,,1,,,72,0
104400,note_on,180,0,6,,,,,,,,5,,,48,85
104400,note_on,180,0,3,,,,,,,,2,,,60,85
104400,note_on,180,0,5,,,,,,,,4,,,48,85
104400,note_on,180,0,2,,,,,,,,1,,,60,85
104400,note_on,180,0,4,,,,,,,,3,,,60,85
104400,note_on,180,0,1,,,,,,,,0,,,60,85
104460,note_on,60,0,2,,,,,,,,1,,,60,0
104460,note_on,60,0,1,,,,,,,,0,,,60,0
104460,note_on,60,0,5,,,,,,,,4,,,48,0
104460,note_on,60,0,3,,,,,,,,2,,,60,0
104460,note_on,60,0,6,,,,,,,,5,,,48,0
104460,note_on,60,0,4,,,,,,,,3,,,60,0
104640,note_on,180,0,2,,,,,,,,1,,,60,85
104640,note_on,180,0,6,,,,,,,,5,,,48,85
104640,note_on,180,0,5,,,,,,,,4,,,48,85
104640,note_on,180,0,4,,,,,,,,3,,,60,85
104640,note_on,180,0,3,,,,,,,,2,,,60,85
104640,note_on,180,0,1,,,,,,,,0,,,60,85
104700,note_on,60,0,2,,,,,,,,1,,,60,0
104700,note_on,60,0,6,,,,,,,,5,,,48,0
104700,note_on,60,0,3,,,,,,,,2,,,60,0
104700,note_on,60,0,5,,,,,,,,4,,,48,0
104700,note_on,60,0,1,,,,,,,,0,,,60,0
104700,note_on,60,0,4,,,,,,,,3,,,60,0
104880,note_on,180,0,5,,,,,,,,4,,,48,85
104880,note_on,180,0,1,,,,,,,,0,,,60,85
104880,note_on,180,0,3,,,,,,,,2,,,60,85
104880,note_on,180,0,6,,,,,,,,5,,,48,85
104880,note_on,180,0,4,,,,,,,,3,,,60,85
104880,note_on,180,0,2,,,,,,,,1,,,60,85
104940,note_on,60,0,6,,,,,,,,5,,,48,0
104940,note_on,60,0,4,,,,,,,,3,,,60,0
104940,note_on,60,0,5,,,,,,,,4,,,48,0
104940,note_on,60,0,3,,,,,,,,2,,,60,0
104940,note_on,60,0,2,,,,,,,,1,,,60,0
104940,note_on,60,0,1,,,,,,,,0,,,60,0
105120,note_on,180,0,3,,,,,,,,2,,,60,85
105120,note_on,180,0,2,,,,,,,,1,,,60,85
105120,note_on,180,0,6,,,,,,,,5,,,48,85
105120,note_on,180,0,1,,,,,,,,0,,,60,85
105120,note_on,180,0,4,,,,,,,,3,,,60,85
105120,note_on,180,0,5,,,,,,,,4,,,48,85
105565,note_on,445,0,5,,,,,,,,4,,,48,0
105565,note_on,445,0,2,,,,,,,,1,,,60,0
105565,note_on,445,0,6,,,,,,,,5,,,48,0
105565,note_on,445,0,1,,,,,,,,0,,,60,0
105565,note_on,445,0,4,,,,,,,,3,,,60,0
105565,note_on,445,0,3,,,,,,,,2,,,60,0
105600,note_on,35,0,3,,,,,,,,2,,,70,80
105600,note_on,35,0,5,,,,,,,,4,,,48,80
105600,note_on,35,0,4,,,,,,,,3,,,67,80
105600,note_on,35,0,6,,,,,,,,5,,,48,80
105600,note_on,35,0,1,,,,,,,,0,,,70,80
105600,note_on,35,0,2,,,,,,,,1,,,70,80
105660,note_on,60,0,3,,,,,,,,2,,,70,0
105660,note_on,60,0,2,,,,,,,,1,,,70,0
105660,note_on,60,0,1,,,,,,,,0,,,70,0
105660,note_on,60,0,6,,,,,,,,5,,,48,0
105660,note_on,60,0,4,,,,,,,,3,,,67,0
105660,note_on,60,0,5,,,,,,,,4,,,48,0
105840,note_on,180,0,2,,,,,,,,1,,,60,64
105840,note_on,180,0,1,,,,,,,,0,,,60,64
105840,note_on,180,0,6,,,,,,,,5,,,48,64
105840,note_on,180,0,5,,,,,,,,4,,,48,64
105840,note_on,180,0,3,,,,,,,,2,,,60,64
105840,note_on,180,0,4,,,,,,,,3,,,60,64
105900,note_on,60,0,6,,,,,,,,5,,,48,0
105900,note_on,60,0,4,,,,,,,,3,,,60,0
105900,note_on,60,0,3,,,,,,,,2,,,60,0
105900,note_on,60,0,1,,,,,,,,0,,,60,0
105900,note_on,60,0,2,,,,,,,,1,,,60,0
105900,note_on,60,0,5,,,,,,,,4,,,48,0
106080,note_on,180,0,6,,,,,,,,5,,,48,64
106080,note_on,180,0,5,,,,,,,,4,,,48,64
106080,note_on,180,0,2,,,,,,,,1,,,60,64
106080,note_on,180,0,4,,,,,,,,3,,,60,64
106080,note_on,180,0,1,,,,,,,,0,,,60,64
106080,note_on,180,0,3,,,,,,,,2,,,60,64
106140,note_on,60,0,6,,,,,,,,5,,,48,0
106140,note_on,60,0,4,,,,,,,,3,,,60,0
106140,note_on,60,0,1,,,,,,,,0,,,60,0
106140,note_on,60,0,5,,,,,,,,4,,,48,0
106140,note_on,60,0,2,,,,,,,,1,,,60,0
106140,note_on,60,0,3,,,,,,,,2,,,60,0
106320,note_on,180,0,5,,,,,,,,4,,,48,64
106320,note_on,180,0,6,,,,,,,,5,,,48,64
106320,note_on,180,0,2,,,,,,,,1,,,60,64
106320,note_on,180,0,1,,,,,,,,0,,,60,64
106320,note_on,180,0,4,,,,,,,,3,,,60,64
106320,note_on,180,0,3,,,,,,,,2,,,60,64
106380,note_on,60,0,1,,,,,,,,0,,,60,0
106380,note_on,60,0,3,,,,,,,,2,,,60,0
106380,note_on,60,0,5,,,,,,,,4,,,48,0
106380,note_on,60,0,4,,,,,,,,3,,,60,0
106380,note_on,60,0,2,,,,,,,,1,,,60,0
106380,note_on,60,0,6,,,,,,,,5,,,48,0
106560,note_on,180,0,5,,,,,,,,4,,,48,64
106560,note_on,180,0,3,,,,,,,,2,,,60,64
106560,note_on,180,0,4,,,,,,,,3,,,60,64
106560,note_on,180,0,1,,,,,,,,0,,,60,64
106560,note_on,180,0,6,,,,,,,,5,,,48,64
106560,note_on,180,0,2,,,,,,,,1,,,60,64
107005,note_on,445,0,1,,,,,,,,0,,,60,0
107005,note_on,445,0,2,,,,,,,,1,,,60,0
107005,note_on,445,0,3,,,,,,,,2,,,60,0
107005,note_on,445,0,4,,,,,,,,3,,,60,0
107005,note_on,445,0,5,,,,,,,,4,,,48,0
107005,note_on,445,0,6,,,,,,,,5,,,48,0
107040,note_on,35,0,4,,,,,,,,3,,,65,65
107040,note_on,35,0,2,,,,,,,,1,,,69,65
107040,note_on,35,0,1,,,,,,,,0,,,69,65
107040,note_on,35,0,3,,,,,,,,2,,,69,65
107040,note_on,35,0,6,,,,,,,,5,,,48,65
107040,note_on,35,0,5,,,,,,,,4,,,48,65
107100,note_on,60,0,3,,,,,,,,2,,,69,0
107100,note_on,60,0,1,,,,,,,,0,,,69,0
107100,note_on,60,0,6,,,,,,,,5,,,48,0
107100,note_on,60,0,5,,,,,,,,4,,,48,0
107100,note_on,60,0,4,,,,,,,,3,,,65,0
107100,note_on,60,0,2,,,,,,,,1,,,69,0
107280,note_on,180,0,5,,,,,,,,4,,,48,49
107280,note_on,180,0,6,,,,,,,,5,,,48,49
107280,note_on,180,0,4,,,,,,,,3,,,60,49
107280,note_on,180,0,2,,,,,,,,1,,,60,49
107280,note_on,180,0,1,,,,,,,,0,,,60,49
107280,note_on,180,0,3,,,,,,,,2,,,60,49
107340,note_on,60,0,3,,,,,,,,2,,,60,0
107340,note_on,60,0,2,,,,,,,,1,,,60,0
107340,note_on,60,0,4,,,,,,,,3,,,60,0
107340,note_on,60,0,6,,,,,,,,5,,,48,0
107340,note_on,60,0,5,,,,,,,,4,,,48,0
107340,note_on,60,0,1,,,,,,,,0,,,60,0
107520,note_on,180,0,5,,,,,,,,4,,,48,49
107520,note_on,180,0,2,,,,,,,,1,,,60,49
107520,note_on,180,0,6,,,,,,,,5,,,48,49
107520,note_on,180,0,4,,,,,,,,3,,,60,49
107520,note_on,180,0,3,,,,,,,,2,,,60,49
107520,note_on,180,0,1,,,,,,,,0,,,60,49
107580,note_on,60,0,5,,,,,,,,4,,,48,0
107580,note_on,60,0,2,,,,,,,,1,,,60,0
107580,note_on,60,0,6,,,,,,,,5,,,48,0
107580,note_on,60,0,4,,,,,,,,3,,,60,0
107580,note_on,60,0,3,,,,,,,,2,,,60,0
107580,note_on,60,0,1,,,,,,,,0,,,60,0
107760,note_on,180,0,6,,,,,,,,5,,,48,49
107760,note_on,180,0,1,,,,,,,,0,,,60,49
107760,note_on,180,0,5,,,,,,,,4,,,48,49
107760,note_on,180,0,4,,,,,,,,3,,,60,49
107760,note_on,180,0,2,,,,,,,,1,,,60,49
107760,note_on,180,0,3,,,,,,,,2,,,60,49
107820,note_on,60,0,4,,,,,,,,3,,,60,0
107820,note_on,60,0,1,,,,,,,,0,,,60,0
107820,note_on,60,0,6,,,,,,,,5,,,48,0
107820,note_on,60,0,2,,,,,,,,1,,,60,0
107820,note_on,60,0,3,,,,,,,,2,,,60,0
107820,note_on,60,0,5,,,,,,,,4,,,48,0
108000,note_on,180,0,3,,,,,,,,2,,,60,49
108000,note_on,180,0,6,,,,,,,,5,,,48,49
108000,note_on,180,0,2,,,,,,,,1,,,60,49
108000,note_on,180,0,5,,,,,,,,4,,,48,49
108000,note_on,180,0,1,,,,,,,,0,,,60,49
108000,note_on,180,0,4,,,,,,,,3,,,60,49
108445,note_on,445,0,5,,,,,,,,4,,,48,0
108445,note_on,445,0,1,,,,,,,,0,,,60,0
108445,note_on,445,0,2,,,,,,,,1,,,60,0
108445,note_on,445,0,4,,,,,,,,3,,,60,0
108445,note_on,445,0,3,,,,,,,,2,,,60,0
108445,note_on,445,0,6,,,,,,,,5,,,48,0
108480,note_on,35,0,1,,,,,,,,0,,,67,50
108480,note_on,35,0,3,,,,,,,,2,,,67,50
108480,note_on,35,0,6,,,,,,,,5,,,48,50
108480,note_on,35,0,4,,,,,,,,3,,,64,50
108480,note_on,35,0,5,,,,,,,,4,,,48,50
108480,note_on,35,0,2,,,,,,,,1,,,67,50
108540,note_on,60,0,1,,,,,,,,0,,,67,0
108540,note_on,60,0,5,,,,,,,,4,,,48,0
108540,note_on,60,0,2,,,,,,,,1,,,67,0
108540,note_on,60,0,6,,,,,,,,5,,,48,0
108540,note_on,60,0,3,,,,,,,,2,,,67,0
108540,note_on,60,0,4,,,,,,,,3,,,64,0
108720,note_on,180,0,3,,,,,,,,2,,,60,34
108720,note_on,180,0,4,,,,,,,,3,,,60,34
108720,note_on,180,0,5,,,,,,,,4,,,48,34
108720,note_on,180,0,6,,,,,,,,5,,,48,34
108720,note_on,180,0,2,,,,,,,,1,,,60,34
108720,note_on,180,0,1,,,,,,,,0,,,60,34
108780,note_on,60,0,3,,,,,,,,2,,,60,0
108780,note_on,60,0,2,,,,,,,,1,,,60,0
108780,note_on,60,0,6,,,,,,,,5,,,48,0
108780,note_on,60,0,1,,,,,,,,0,,,60,0
108780,note_on,60,0,4,,,,,,,,3,,,60,0
108780,note_on,60,0,5,,,,,,,,4,,,48,0
108960,note_on,180,0,3,,,,,,,,2,,,60,34
108960,note_on,180,0,1,,,,,,,,0,,,60,34
108960,note_on,180,0,5,,,,,,,,4,,,48,34
108960,note_on,180,0,6,,,,,,,,5,,,48,34
108960,note_on,180,0,4,,,,,,,,3,,,60,34
108960,note_on,180,0,2,,,,,,,,1,,,60,34
109020,note_on,60,0,1,,,,,,,,0,,,60,0
109020,note_on,60,0,4,,,,,,,,3,,,60,0
109020,note_on,60,0,3,,,,,,,,2,,,60,0
109020,note_on,60,0,6,,,,,,,,5,,,48,0
109020,note_on,60,0,2,,,,,,,,1,,,60,0
109020,note_on,60,0,5,,,,,,,,4,,,48,0
109200,note_on,180,0,6,,,,,,,,5,,,48,34
109200,note_on,180,0,2,,,,,,,,1,,,60,34
109200,note_on,180,0,3,,,,,,,,2,,,60,34
109200,note_on,180,0,4,,,,,,,,3,,,60,34
109200,note_on,180,0,1,,,,,,,,0,,,60,34
109200,note_on,180,0,5,,,,,,,,4,,,48,34
109260,note_on,60,0,6,,,,,,,,5,,,48,0
109260,note_on,60,0,4,,,,,,,,3,,,60,0
109260,note_on,60,0,3,,,,,,,,2,,,60,0
109260,note_on,60,0,1,,,,,,,,0,,,60,0
109260,note_on,60,0,2,,,,,,,,1,,,60,0
109260,note_on,60,0,5,,,,,,,,4,,,48,0
109440,note_on,180,0,3,,,,,,,,2,,,60,34
109440,note_on,180,0,4,,,,,,,,3,,,60,34
109440,note_on,180,0,5,,,,,,,,4,,,48,34
109440,note_on,180,0,6,,,,,,,,5,,,48,34
109440,note_on,180,0,2,,,,,,,,1,,,60,34
109440,note_on,180,0,1,,,,,,,,0,,,60,34
110325,note_on,885,0,6,,,,,,,,5,,,48,0
110325,note_on,885,0,2,,,,,,,,1,,,60,0
110325,note_on,885,0,5,,,,,,,,4,,,48,0
110325,note_on,885,0,1,,,,,,,,0,,,60,0
110325,note_on,885,0,3,,,,,,,,2,,,60,0
110325,note_on,885,0,4,,,,,,,,3,,,60,0
110880,note_on,555,0,6,,,,,,,,5,,,53,85
110880,note_on,555,0,5,,,,,,,,4,,,53,85
110880,note_on,555,0,1,,,,,,,,0,,,65,85
110880,note_on,555,0,2,,,,,,,,1,,,65,85
110880,note_on,555,0,4,,,,,,,,3,,,60,85
110880,note_on,555,0,3,,,,,,,,2,,,65,85
111325,note_on,445,0,6,,,,,,,,5,,,53,0
111325,note_on,445,0,1,,,,,,,,0,,,65,0
111325,note_on,445,0,4,,,,,,,,3,,,60,0
111325,note_on,445,0,3,,,,,,,,2,,,65,0
111325,note_on,445,0,2,,,,,,,,1,,,65,0
111325,note_on,445,0,5,,,,,,,,4,,,53,0
111600,note_on,275,0,3,,,,,,,,2,,,67,85
111600,note_on,275,0,2,,,,,,,,1,,,67,85
111600,note_on,275,0,1,,,,,,,,0,,,67,85
111715,note_on,115,0,2,,,,,,,,1,,,67,0
111715,note_on,115,0,1,,,,,,,,0,,,67,0
111715,note_on,115,0,3,,,,,,,,2,,,67,0
111720,note_on,5,0,1,,,,,,,,0,,,69,85
111720,note_on,5,0,2,,,,,,,,1,,,69,85
111720,note_on,5,0,3,,,,,,,,2,,,69,85
111835,note_on,115,0,3,,,,,,,,2,,,69,0
111835,note_on,115,0,2,,,,,,,,1,,,69,0
111835,note_on,115,0,1,,,,,,,,0,,,69,0
111840,note_on,5,0,2,,,,,,,,1,,,70,85
111840,note_on,5,0,3,,,,,,,,2,,,70,85
111840,note_on,5,0,1,,,,,,,,0,,,70,85
111955,note_on,115,0,1,,,,,,,,0,,,70,0
111955,note_on,115,0,2,,,,,,,,1,,,70,0
111955,note_on,115,0,3,,,,,,,,2,,,70,0
111960,note_on,5,0,2,,,,,,,,1,,,72,85
111960,note_on,5,0,1,,,,,,,,0,,,72,85
111960,note_on,5,0,3,,,,,,,,2,,,72,85
112075,note_on,115,0,2,,,,,,,,1,,,72,0
112075,note_on,115,0,3,,,,,,,,2,,,72,0
112075,note_on,115,0,1,,,,,,,,0,,,72,0
112080,note_on,5,0,3,,,,,,,,2,,,74,85
112080,note_on,5,0,2,,,,,,,,1,,,74,85
112080,note_on,5,0,1,,,,,,,,0,,,74,85
112195,note_on,115,0,3,,,,,,,,2,,,74,0
112195,note_on,115,0,1,,,,,,,,0,,,74,0
112195,note_on,115,0,2,,,,,,,,1,,,74,0
112200,note_on,5,0,2,,,,,,,,1,,,76,85
112200,note_on,5,0,1,,,,,,,,0,,,76,85
112200,note_on,5,0,3,,,,,,,,2,,,76,85
112315,note_on,115,0,1,,,,,,,,0,,,76,0
112315,note_on,115,0,2,,,,,,,,1,,,76,0
112315,note_on,115,0,3,,,,,,,,2,,,76,0
112320,note_on,5,0,2,,,,,,,,1,,,77,85
112320,note_on,995,0,5,,,,,,,,4,,,53,85
112320,note_on,995,0,6,,,,,,,,5,,,53,85
112320,note_on,5,0,1,,,,,,,,0,,,77,85
112320,note_on,5,0,3,,,,,,,,2,,,77,85
112320,note_on,995,0,4,,,,,,,,3,,,60,85
112545,note_on,225,0,3,,,,,,,,2,,,77,0
112545,note_on,225,0,1,,,,,,,,0,,,77,0
112545,note_on,225,0,2,,,,,,,,1,,,77,0
112560,note_on,15,0,3,,,,,,,,2,,,65,85
112560,note_on,15,0,1,,,,,,,,0,,,65,85
112560,note_on,15,0,2,,,,,,,,1,,,65,85
112765,note_on,445,0,6,,,,,,,,5,,,53,0
112765,note_on,445,0,5,,,,,,,,4,,,53,0
112765,note_on,445,0,4,,,,,,,,3,,,60,0
112785,note_on,225,0,2,,,,,,,,1,,,65,0
112785,note_on,225,0,1,,,,,,,,0,,,65,0
112785,note_on,225,0,3,,,,,,,,2,,,65,0
112800,note_on,15,0,2,,,,,,,,1,,,67,85
112800,note_on,35,0,6,,,,,,,,5,,,46,85
112800,note_on,35,0,4,,,,,,,,3,,,62,85
112800,note_on,35,0,5,,,,,,,,4,,,46,85
112800,note_on,15,0,3,,,,,,,,2,,,67,85
112800,note_on,15,0,1,,,,,,,,0,,,67,85
113245,note_on,445,0,3,,,,,,,,2,,,67,0
113245,note_on,445,0,6,,,,,,,,5,,,46,0
113245,note_on,445,0,1,,,,,,,,0,,,67,0
113245,note_on,445,0,2,,,,,,,,1,,,67,0
113245,note_on,445,0,4,,,,,,,,3,,,62,0
113245,note_on,445,0,5,,,,,,,,4,,,46,0
113280,note_on,35,0,3,,,,,,,,2,,,64,85
113280,note_on,35,0,2,,,,,,,,1,,,64,85
113280,note_on,35,0,4,,,,,,,,3,,,60,85
113280,note_on,35,0,6,,,,,,,,5,,,48,85
113280,note_on,35,0,1,,,,,,,,0,,,64,85
113280,note_on,35,0,5,,,,,,,,4,,,48,85
113725,note_on,445,0,4,,,,,,,,3,,,60,0
113725,note_on,445,0,2,,,,,,,,1,,,64,0
113725,note_on,445,0,5,,,,,,,,4,,,48,0
113725,note_on,445,0,6,,,,,,,,5,,,48,0
113725,note_on,445,0,1,,,,,,,,0,,,64,0
113725,note_on,445,0,3,,,,,,,,2,,,64,0
113760,note_on,35,0,5,,,,,,,,4,,,41,85
113760,note_on,35,0,3,,,,,,,,2,,,65,49
113760,note_on,35,0,4,,,,,,,,3,,,57,85
113760,note_on,35,0,1,,,,,,,,0,,,65,49
113760,note_on,35,0,6,,,,,,,,5,,,41,85
113760,note_on,35,0,2,,,,,,,,1,,,65,49
114205,note_on,445,0,4,,,,,,,,3,,,57,0
114205,note_on,445,0,5,,,,,,,,4,,,41,0
114205,note_on,445,0,3,,,,,,,,2,,,65,0
114205,note_on,445,0,1,,,,,,,,0,,,65,0
114205,note_on,445,0,6,,,,,,,,5,,,41,0
114205,note_on,445,0,2,,,,,,,,1,,,65,0
114480,note_on,275,0,2,,,,,,,,1,,,67,49
114480,note_on,275,0,1,,,,,,,,0,,,67,49
114480,note_on,275,0,3,,,,,,,,2,,,67,49
114595,note_on,115,0,3,,,,,,,,2,,,67,0
114595,note_on,115,0,2,,,,,,,,1,,,67,0
114595,note_on,115,0,1,,,,,,,,0,,,67,0
114600,note_on,5,0,2,,,,,,,,1,,,69,49
114600,note_on,5,0,3,,,,,,,,2,,,69,49
114600,note_on,5,0,1,,,,,,,,0,,,69,49
114715,note_on,115,0,3,,,,,,,,2,,,69,0
114715,note_on,115,0,2,,,,,,,,1,,,69,0
114715,note_on,115,0,1,,,,,,,,0,,,69,0
114720,note_on,5,0,1,,,,,,,,0,,,70,49
114720,note_on,5,0,3,,,,,,,,2,,,70,49
114720,note_on,5,0,2,,,,,,,,1,,,70,49
114835,note_on,115,0,1,,,,,,,,0,,,70,0
114835,note_on,115,0,3,,,,,,,,2,,,70,0
114835,note_on,115,0,2,,,,,,,,1,,,70,0
114840,note_on,5,0,3,,,,,,,,2,,,72,49
114840,note_on,5,0,1,,,,,,,,0,,,72,49
114840,note_on,5,0,2,,,,,,,,1,,,72,49
114955,note_on,115,0,1,,,,,,,,0,,,72,0
114955,note_on,115,0,3,,,,,,,,2,,,72,0
114955,note_on,115,0,2,,,,,,,,1,,,72,0
114960,note_on,5,0,2,,,,,,,,1,,,74,49
114960,note_on,5,0,1,,,,,,,,0,,,74,49
114960,note_on,5,0,3,,,,,,,,2,,,74,49
115075,note_on,115,0,2,,,,,,,,1,,,74,0
115075,note_on,115,0,1,,,,,,,,0,,,74,0
115075,note_on,115,0,3,,,,,,,,2,,,74,0
115080,note_on,5,0,1,,,,,,,,0,,,76,49
115080,note_on,5,0,2,,,,,,,,1,,,76,49
115080,note_on,5,0,3,,,,,,,,2,,,76,49
115195,note_on,115,0,2,,,,,,,,1,,,76,0
115195,note_on,115,0,1,,,,,,,,0,,,76,0
115195,note_on,115,0,3,,,,,,,,2,,,76,0
115200,note_on,995,0,6,,,,,,,,5,,,53,85
115200,note_on,5,0,1,,,,,,,,0,,,77,49
115200,note_on,5,0,2,,,,,,,,1,,,77,49
115200,note_on,995,0,5,,,,,,,,4,,,53,85
115200,note_on,995,0,4,,,,,,,,3,,,57,85
115200,note_on,5,0,3,,,,,,,,2,,,77,49
115425,note_on,225,0,1,,,,,,,,0,,,77,0
115425,note_on,225,0,3,,,,,,,,2,,,77,0
115425,note_on,225,0,2,,,,,,,,1,,,77,0
115440,note_on,15,0,1,,,,,,,,0,,,65,49
115440,note_on,15,0,3,,,,,,,,2,,,65,49
115440,note_on,15,0,2,,,,,,,,1,,,65,49
115645,note_on,445,0,6,,,,,,,,5,,,53,0
115645,note_on,445,0,4,,,,,,,,3,,,57,0
115645,note_on,445,0,5,,,,,,,,4,,,53,0
115665,note_on,225,0,2,,,,,,,,1,,,65,0
115665,note_on,225,0,1,,,,,,,,0,,,65,0
115665,note_on,225,0,3,,,,,,,,2,,,65,0
115680,note_on,15,0,2,,,,,,,,1,,,67,49
115680,note_on,35,0,6,,,,,,,,5,,,46,85
115680,note_on,15,0,1,,,,,,,,0,,,67,49
115680,note_on,15,0,3,,,,,,,,2,,,67,49
115680,note_on,35,0,4,,,,,,,,3,,,62,85
115680,note_on,35,0,5,,,,,,,,4,,,46,85
116082,note_on,402,0,2,,,,,,,,1,,,67,0
116125,note_on,445,0,4,,,,,,,,3,,,62,0
116125,note_on,445,0,6,,,,,,,,5,,,46,0
116125,note_on,445,0,1,,,,,,,,0,,,67,0
116125,note_on,445,0,3,,,,,,,,2,,,67,0
116125,note_on,445,0,5,,,,,,,,4,,,46,0
116160,note_on,35,0,4,,,,,,,,3,,,60,85
116160,note_on,35,0,1,,,,,,,,0,,,64,49
116160,note_on,35,0,6,,,,,,,,5,,,48,85
116160,note_on,78,0,2,,,,,,,,1,,,64,49
116160,note_on,35,0,5,,,,,,,,4,,,48,85
116160,note_on,35,0,3,,,,,,,,2,,,64,49
116605,note_on,445,0,5,,,,,,,,4,,,48,0
116605,note_on,445,0,6,,,,,,,,5,,,48,0
116605,note_on,445,0,2,,,,,,,,1,,,64,0
116605,note_on,445,0,4,,,,,,,,3,,,60,0
116605,note_on,445,0,3,,,,,,,,2,,,64,0
116605,note_on,445,0,1,,,,,,,,0,,,64,0
116640,note_on,35,0,3,,,,,,,,2,,,65,49
116640,note_on,35,0,6,,,,,,,,5,,,53,64
116640,note_on,0,0,1,,,,,,,,0,,,65,106
116640,note_on,35,0,5,,,,,,,,4,,,53,64
116640,note_on,35,0,2,,,,,,,,1,,,65,49
116640,note_on,35,0,4,,,,,,,,3,,,57,85
116640,note_on,35,0,1,,,,,,,,0,,,72,106
116700,note_on,60,0,1,,,,,,,,0,,,65,0
116700,note_on,0,0,1,,,,,,,,0,,,72,0
116880,note_on,180,0,1,,,,,,,,0,,,72,106
116880,note_on,0,0,1,,,,,,,,0,,,69,106
116940,note_on,60,0,1,,,,,,,,0,,,69,0
116940,note_on,0,0,1,,,,,,,,0,,,72,0
117085,note_on,445,0,2,,,,,,,,1,,,65,0
117085,note_on,445,0,4,,,,,,,,3,,,57,0
117085,note_on,445,0,3,,,,,,,,2,,,65,0
117120,note_on,180,0,1,,,,,,,,0,,,72,106
117120,note_on,0,0,1,,,,,,,,0,,,65,106
117180,note_on,60,0,1,,,,,,,,0,,,65,0
117180,note_on,0,0,1,,,,,,,,0,,,72,0
117360,note_on,180,0,1,,,,,,,,0,,,72,106
117360,note_on,0,0,1,,,,,,,,0,,,69,106
117420,note_on,0,0,1,,,,,,,,0,,,72,0
117420,note_on,60,0,1,,,,,,,,0,,,69,0
117525,note_on,885,0,5,,,,,,,,4,,,53,0
117525,note_on,885,0,6,,,,,,,,5,,,53,0
117600,note_on,180,0,1,,,,,,,,0,,,72,106
117600,note_on,0,0,1,,,,,,,,0,,,65,106
117660,note_on,60,0,1,,,,,,,,0,,,65,0
117660,note_on,0,0,1,,,,,,,,0,,,72,0
117840,note_on,180,0,1,,,,,,,,0,,,72,106
117840,note_on,0,0,1,,,,,,,,0,,,69,106
117900,note_on,60,0,1,,,,,,,,0,,,69,0
117900,note_on,0,0,1,,,,,,,,0,,,72,0
118080,note_on,180,0,1,,,,,,,,0,,,74,106
118080,note_on,555,0,5,,,,,,,,4,,,46,64
118080,note_on,0,0,1,,,,,,,,0,,,65,106
118080,note_on,555,0,6,,,,,,,,5,,,46,64
118140,note_on,60,0,1,,,,,,,,0,,,65,0
118140,note_on,0,0,1,,,,,,,,0,,,74,0
118320,note_on,0,0,1,,,,,,,,0,,,70,106
118320,note_on,180,0,1,,,,,,,,0,,,74,106
118380,note_on,0,0,1,,,,,,,,0,,,74,0
118380,note_on,60,0,1,,,,,,,,0,,,70,0
118560,note_on,0,0,1,,,,,,,,0,,,65,106
118560,note_on,180,0,1,,,,,,,,0,,,74,106
118620,note_on,0,0,1,,,,,,,,0,,,74,0
118620,note_on,60,0,1,,,,,,,,0,,,65,0
118800,note_on,0,0,1,,,,,,,,0,,,70,106
118800,note_on,180,0,1,,,,,,,,0,,,74,106
118860,note_on,60,0,1,,,,,,,,0,,,70,0
118860,note_on,0,0,1,,,,,,,,0,,,74,0
118965,note_on,885,0,5,,,,,,,,4,,,46,0
118965,note_on,885,0,6,,,,,,,,5,,,46,0
119040,note_on,180,0,1,,,,,,,,0,,,74,106
119040,note_on,0,0,1,,,,,,,,0,,,65,106
119100,note_on,0,0,1,,,,,,,,0,,,74,0
119100,note_on,60,0,1,,,,,,,,0,,,65,0
119280,note_on,180,0,1,,,,,,,,0,,,74,106
119280,note_on,0,0,1,,,,,,,,0,,,70,106
119340,note_on,0,0,1,,,,,,,,0,,,74,0
119340,note_on,60,0,1,,,,,,,,0,,,70,0
119520,note_on,0,0,1,,,,,,,,0,,,65,85
119520,note_on,555,0,6,,,,,,,,5,,,53,64
119520,note_on,180,0,1,,,,,,,,0,,,72,85
119520,note_on,555,0,5,,,,,,,,4,,,53,64
119580,note_on,0,0,1,,,,,,,,0,,,72,0
119580,note_on,60,0,1,,,,,,,,0,,,65,0
119760,note_on,0,0,1,,,,,,,,0,,,69,85
119760,note_on,180,0,1,,,,,,,,0,,,72,85
119820,note_on,0,0,1,,,,,,,,0,,,72,0
119820,note_on,60,0,1,,,,,,,,0,,,69,0
120000,note_on,180,0,1,,,,,,,,0,,,72,85
120000,note_on,0,0,1,,,,,,,,0,,,65,85
120060,note_on,0,0,1,,,,,,,,0,,,72,0
120060,note_on,60,0,1,,,,,,,,0,,,65,0
120240,note_on,0,0,1,,,,,,,,0,,,69,85
120240,note_on,180,0,1,,,,,,,,0,,,72,85
120300,note_on,60,0,1,,,,,,,,0,,,69,0
120300,note_on,0,0,1,,,,,,,,0,,,72,0
120405,note_on,885,0,6,,,,,,,,5,,,53,0
120405,note_on,885,0,5,,,,,,,,4,,,53,0
120480,note_on,180,0,1,,,,,,,,0,,,72,85
120480,note_on,0,0,1,,,,,,,,0,,,65,85
120540,note_on,0,0,1,,,,,,,,0,,,72,0
120540,note_on,60,0,1,,,,,,,,0,,,65,0
120720,note_on,0,0,1,,,,,,,,0,,,69,85
120720,note_on,180,0,1,,,,,,,,0,,,72,85
120780,note_on,0,0,1,,,,,,,,0,,,72,0
120780,note_on,60,0,1,,,,,,,,0,,,69,0
120960,note_on,0,0,1,,,,,,,,0,,,65,85
120960,note_on,180,0,1,,,,,,,,0,,,74,85
120960,note_on,555,0,6,,,,,,,,5,,,46,64
120960,note_on,555,0,5,,,,,,,,4,,,46,64
121020,note_on,60,0,1,,,,,,,,0,,,65,0
121020,note_on,0,0,1,,,,,,,,0,,,74,0
121200,note_on,180,0,1,,,,,,,,0,,,74,85
121200,note_on,0,0,1,,,,,,,,0,,,70,85
121260,note_on,60,0,1,,,,,,,,0,,,70,0
121260,note_on,0,0,1,,,,,,,,0,,,74,0
121440,note_on,180,0,1,,,,,,,,0,,,74,85
121440,note_on,0,0,1,,,,,,,,0,,,65,85
121500,note_on,60,0,1,,,,,,,,0,,,65,0
121500,note_on,0,0,1,,,,,,,,0,,,74,0
121680,note_on,180,0,1,,,,,,,,0,,,74,85
121680,note_on,0,0,1,,,,,,,,0,,,70,85
121740,note_on,60,0,1,,,,,,,,0,,,70,0
121740,note_on,0,0,1,,,,,,,,0,,,74,0
121845,note_on,885,0,5,,,,,,,,4,,,46,0
121845,note_on,885,0,6,,,,,,,,5,,,46,0
121920,note_on,180,0,1,,,,,,,,0,,,74,85
121920,note_on,0,0,1,,,,,,,,0,,,65,85
121980,note_on,60,0,1,,,,,,,,0,,,65,0
121980,note_on,0,0,1,,,,,,,,0,,,74,0
122160,note_on,180,0,1,,,,,,,,0,,,74,85
122160,note_on,0,0,1,,,,,,,,0,,,70,85
122220,note_on,60,0,1,,,,,,,,0,,,70,0
122220,note_on,0,0,1,,,,,,,,0,,,74,0
122400,note_on,555,0,6,,,,,,,,5,,,55,64
122400,note_on,555,0,5,,,,,,,,4,,,55,64
122400,note_on,180,0,1,,,,,,,,0,,,74,106
122400,note_on,0,0,1,,,,,,,,0,,,67,106
122460,note_on,60,0,1,,,,,,,,0,,,67,0
122460,note_on,0,0,1,,,,,,,,0,,,74,0
122640,note_on,180,0,1,,,,,,,,0,,,74,106
122640,note_on,0,0,1,,,,,,,,0,,,71,106
122700,note_on,60,0,1,,,,,,,,0,,,71,0
122700,note_on,0,0,1,,,,,,,,0,,,74,0
122880,note_on,0,0,1,,,,,,,,0,,,67,106
122880,note_on,180,0,1,,,,,,,,0,,,74,106
122940,note_on,0,0,1,,,,,,,,0,,,74,0
122940,note_on,60,0,1,,,,,,,,0,,,67,0
123120,note_on,180,0,1,,,,,,,,0,,,74,106
123120,note_on,0,0,1,,,,,,,,0,,,71,106
123180,note_on,60,0,1,,,,,,,,0,,,71,0
123180,note_on,0,0,1,,,,,,,,0,,,74,0
123285,note_on,885,0,6,,,,,,,,5,,,55,0
123285,note_on,885,0,5,,,,,,,,4,,,55,0
123360,note_on,180,0,1,,,,,,,,0,,,74,106
123360,note_on,0,0,1,,,,,,,,0,,,67,106
123420,note_on,60,0,1,,,,,,,,0,,,67,0
123420,note_on,0,0,1,,,,,,,,0,,,74,0
123600,note_on,0,0,1,,,,,,,,0,,,71,106
123600,note_on,180,0,1,,,,,,,,0,,,74,106
123660,note_on,60,0,1,,,,,,,,0,,,71,0
123660,note_on,0,0,1,,,,,,,,0,,,74,0
123840,note_on,555,0,6,,,,,,,,5,,,48,64
123840,note_on,180,0,1,,,,,,,,0,,,75,106
123840,note_on,0,0,1,,,,,,,,0,,,67,106
123840,note_on,555,0,5,,,,,,,,4,,,48,64
123900,note_on,60,0,1,,,,,,,,0,,,67,0
123900,note_on,0,0,1,,,,,,,,0,,,75,0
124080,note_on,0,0,1,,,,,,,,0,,,72,106
124080,note_on,180,0,1,,,,,,,,0,,,75,106
124140,note_on,0,0,1,,,,,,,,0,,,75,0
124140,note_on,60,0,1,,,,,,,,0,,,72,0
124320,note_on,0,0,1,,,,,,,,0,,,67,106
124320,note_on,180,0,1,,,,,,,,0,,,75,106
124380,note_on,0,0,1,,,,,,,,0,,,75,0
124380,note_on,60,0,1,,,,,,,,0,,,67,0
124560,note_on,180,0,1,,,,,,,,0,,,75,106
124560,note_on,0,0,1,,,,,,,,0,,,72,106
124620,note_on,0,0,1,,,,,,,,0,,,75,0
124620,note_on,60,0,1,,,,,,,,0,,,72,0
124725,note_on,885,0,5,,,,,,,,4,,,48,0
124725,note_on,885,0,6,,,,,,,,5,,,48,0
124800,note_on,180,0,1,,,,,,,,0,,,75,106
124800,note_on,0,0,1,,,,,,,,0,,,67,106
124860,note_on,60,0,1,,,,,,,,0,,,67,0
124860,note_on,0,0,1,,,,,,,,0,,,75,0
125040,note_on,0,0,1,,,,,,,,0,,,72,106
125040,note_on,180,0,1,,,,,,,,0,,,75,106
125100,note_on,0,0,1,,,,,,,,0,,,75,0
125100,note_on,60,0,1,,,,,,,,0,,,72,0
125280,note_on,555,0,6,,,,,,,,5,,,55,64
125280,note_on,0,0,1,,,,,,,,0,,,67,85
125280,note_on,180,0,1,,,,,,,,0,,,74,85
125280,note_on,555,0,5,,,,,,,,4,,,55,64
125340,note_on,0,0,1,,,,,,,,0,,,74,0
125340,note_on,60,0,1,,,,,,,,0,,,67,0
125520,note_on,0,0,1,,,,,,,,0,,,71,85
125520,note_on,180,0,1,,,,,,,,0,,,74,85
125580,note_on,0,0,1,,,,,,,,0,,,74,0
125580,note_on,60,0,1,,,,,,,,0,,,71,0
125760,note_on,180,0,1,,,,,,,,0,,,74,85
125760,note_on,0,0,1,,,,,,,,0,,,67,85
125820,note_on,0,0,1,,,,,,,,0,,,74,0
125820,note_on,60,0,1,,,,,,,,0,,,67,0
126000,note_on,180,0,1,,,,,,,,0,,,74,85
126000,note_on,0,0,1,,,,,,,,0,,,71,85
126060,note_on,0,0,1,,,,,,,,0,,,74,0
126060,note_on,60,0,1,,,,,,,,0,,,71,0
126165,note_on,885,0,5,,,,,,,,4,,,55,0
126165,note_on,885,0,6,,,,,,,,5,,,55,0
126240,note_on,180,0,1,,,,,,,,0,,,74,85
126240,note_on,0,0,1,,,,,,,,0,,,67,85
126300,note_on,0,0,1,,,,,,,,0,,,74,0
126300,note_on,60,0,1,,,,,,,,0,,,67,0
126480,note_on,0,0,1,,,,,,,,0,,,71,85
126480,note_on,180,0,1,,,,,,,,0,,,74,85
126540,note_on,60,0,1,,,,,,,,0,,,71,0
126540,note_on,0,0,1,,,,,,,,0,,,74,0
126720,note_on,555,0,5,,,,,,,,4,,,48,64
126720,note_on,555,0,6,,,,,,,,5,,,48,64
126720,note_on,0,0,1,,,,,,,,0,,,67,85
126720,note_on,180,0,1,,,,,,,,0,,,75,85
126780,note_on,0,0,1,,,,,,,,0,,,75,0
126780,note_on,60,0,1,,,,,,,,0,,,67,0
126960,note_on,0,0,1,,,,,,,,0,,,72,85
126960,note_on,180,0,1,,,,,,,,0,,,75,85
127020,note_on,0,0,1,,,,,,,,0,,,75,0
127020,note_on,60,0,1,,,,,,,,0,,,72,0
127200,note_on,0,0,1,,,,,,,,0,,,67,85
127200,note_on,180,0,1,,,,,,,,0,,,75,85
127260,note_on,60,0,1,,,,,,,,0,,,67,0
127260,note_on,0,0,1,,,,,,,,0,,,75,0
127440,note_on,0,0,1,,,,,,,,0,,,72,85
127440,note_on,180,0,1,,,,,,,,0,,,75,85
127500,note_on,60,0,1,,,,,,,,0,,,72,0
127500,note_on,0,0,1,,,,,,,,0,,,75,0
127605,note_on,885,0,6,,,,,,,,5,,,48,0
127605,note_on,885,0,5,,,,,,,,4,,,48,0
127680,note_on,0,0,1,,,,,,,,0,,,67,85
127680,note_on,180,0,1,,,,,,,,0,,,75,85
127740,note_on,0,0,1,,,,,,,,0,,,75,0
127740,note_on,60,0,1,,,,,,,,0,,,67,0
127920,note_on,0,0,1,,,,,,,,0,,,72,85
127920,note_on,180,0,1,,,,,,,,0,,,75,85
127980,note_on,0,0,1,,,,,,,,0,,,75,0
127980,note_on,60,0,1,,,,,,,,0,,,72,0
128160,note_on,180,0,1,,,,,,,,0,,,76,106
128160,note_on,555,0,6,,,,,,,,5,,,57,64
128160,note_on,555,0,5,,,,,,,,4,,,57,64
128160,note_on,0,0,1,,,,,,,,0,,,69,106
128220,note_on,0,0,1,,,,,,,,0,,,76,0
128220,note_on,60,0,1,,,,,,,,0,,,69,0
128400,note_on,180,0,1,,,,,,,,0,,,76,106
128400,note_on,0,0,1,,,,,,,,0,,,73,106
128460,note_on,0,0,1,,,,,,,,0,,,76,0
128460,note_on,60,0,1,,,,,,,,0,,,73,0
128640,note_on,0,0,1,,,,,,,,0,,,69,106
128640,note_on,180,0,1,,,,,,,,0,,,76,106
128700,note_on,60,0,1,,,,,,,,0,,,69,0
128700,note_on,0,0,1,,,,,,,,0,,,76,0
128880,note_on,0,0,1,,,,,,,,0,,,73,106
128880,note_on,180,0,1,,,,,,,,0,,,76,106
128940,note_on,0,0,1,,,,,,,,0,,,76,0
128940,note_on,60,0,1,,,,,,,,0,,,73,0
129045,note_on,885,0,5,,,,,,,,4,,,57,0
129045,note_on,885,0,6,,,,,,,,5,,,57,0
129120,note_on,0,0,1,,,,,,,,0,,,69,106
129120,note_on,180,0,1,,,,,,,,0,,,76,106
129180,note_on,60,0,1,,,,,,,,0,,,69,0
129180,note_on,0,0,1,,,,,,,,0,,,76,0
129360,note_on,180,0,1,,,,,,,,0,,,76,106
129360,note_on,0,0,1,,,,,,,,0,,,73,106
129420,note_on,0,0,1,,,,,,,,0,,,76,0
129420,note_on,60,0,1,,,,,,,,0,,,73,0
129600,note_on,555,0,6,,,,,,,,5,,,50,64
129600,note_on,555,0,5,,,,,,,,4,,,50,64
129600,note_on,180,0,1,,,,,,,,0,,,77,106
129600,note_on,0,0,1,,,,,,,,0,,,69,106
129660,note_on,60,0,1,,,,,,,,0,,,69,0
129660,note_on,0,0,1,,,,,,,,0,,,77,0
129840,note_on,180,0,1,,,,,,,,0,,,77,106
129840,note_on,0,0,1,,,,,,,,0,,,74,106
129900,note_on,60,0,1,,,,,,,,0,,,74,0
129900,note_on,0,0,1,,,,,,,,0,,,77,0
130080,note_on,0,0,1,,,,,,,,0,,,69,106
130080,note_on,180,0,1,,,,,,,,0,,,77,106
130140,note_on,0,0,1,,,,,,,,0,,,77,0
130140,note_on,60,0,1,,,,,,,,0,,,69,0
130320,note_on,0,0,1,,,,,,,,0,,,74,106
130320,note_on,180,0,1,,,,,,,,0,,,77,106
130380,note_on,0,0,1,,,,,,,,0,,,77,0
130380,note_on,60,0,1,,,,,,,,0,,,74,0
130485,note_on,885,0,6,,,,,,,,5,,,50,0
130485,note_on,885,0,5,,,,,,,,4,,,50,0
130560,note_on,0,0,1,,,,,,,,0,,,69,106
130560,note_on,180,0,1,,,,,,,,0,,,77,106
130620,note_on,60,0,1,,,,,,,,0,,,69,0
130620,note_on,0,0,1,,,,,,,,0,,,77,0
130800,note_on,0,0,1,,,,,,,,0,,,74,106
130800,note_on,180,0,1,,,,,,,,0,,,77,106
130860,note_on,0,0,1,,,,,,,,0,,,77,0
130860,note_on,60,0,1,,,,,,,,0,,,74,0
131040,note_on,0,0,1,,,,,,,,0,,,69,85
131040,note_on,180,0,1,,,,,,,,0,,,76,85
131040,note_on,555,0,5,,,,,,,,4,,,57,64
131040,note_on,555,0,6,,,,,,,,5,,,57,64
131100,note_on,0,0,1,,,,,,,,0,,,76,0
131100,note_on,60,0,1,,,,,,,,0,,,69,0
131280,note_on,0,0,1,,,,,,,,0,,,73,85
131280,note_on,180,0,1,,,,,,,,0,,,76,85
131340,note_on,0,0,1,,,,,,,,0,,,76,0
131340,note_on,60,0,1,,,,,,,,0,,,73,0
131520,note_on,180,0,1,,,,,,,,0,,,76,85
131520,note_on,0,0,1,,,,,,,,0,,,69,85
131580,note_on,60,0,1,,,,,,,,0,,,69,0
131580,note_on,0,0,1,,,,,,,,0,,,76,0
131760,note_on,180,0,1,,,,,,,,0,,,76,85
131760,note_on,0,0,1,,,,,,,,0,,,73,85
131820,note_on,60,0,1,,,,,,,,0,,,73,0
131820,note_on,0,0,1,,,,,,,,0,,,76,0
131925,note_on,885,0,6,,,,,,,,5,,,57,0
131925,note_on,885,0,5,,,,,,,,4,,,57,0
132000,note_on,0,0,1,,,,,,,,0,,,69,85
132000,note_on,180,0,1,,,,,,,,0,,,76,85
132060,note_on,0,0,1,,,,,,,,0,,,76,0
132060,note_on,60,0,1,,,,,,,,0,,,69,0
132240,note_on,0,0,1,,,,,,,,0,,,73,85
132240,note_on,180,0,1,,,,,,,,0,,,76,85
132300,note_on,60,0,1,,,,,,,,0,,,73,0
132300,note_on,0,0,1,,,,,,,,0,,,76,0
132480,note_on,180,0,1,,,,,,,,0,,,77,85
132480,note_on,555,0,5,,,,,,,,4,,,50,64
132480,note_on,555,0,6,,,,,,,,5,,,50,64
132480,note_on,0,0,1,,,,,,,,0,,,69,85
132540,note_on,60,0,1,,,,,,,,0,,,69,0
132540,note_on,0,0,1,,,,,,,,0,,,77,0
132720,note_on,180,0,1,,,,,,,,0,,,77,85
132720,note_on,0,0,1,,,,,,,,0,,,74,85
132780,note_on,60,0,1,,,,,,,,0,,,74,0
132780,note_on,0,0,1,,,,,,,,0,,,77,0
132960,note_on,180,0,1,,,,,,,,0,,,77,85
132960,note_on,0,0,1,,,,,,,,0,,,69,85
133020,note_on,60,0,1,,,,,,,,0,,,69,0
133020,note_on,0,0,1,,,,,,,,0,,,77,0
133200,note_on,0,0,1,,,,,,,,0,,,74,85
133200,note_on,180,0,1,,,,,,,,0,,,77,85
133260,note_on,60,0,1,,,,,,,,0,,,74,0
133260,note_on,0,0,1,,,,,,,,0,,,77,0
133365,note_on,885,0,5,,,,,,,,4,,,50,0
133365,note_on,885,0,6,,,,,,,,5,,,50,0
133440,note_on,180,0,1,,,,,,,,0,,,77,85
133440,note_on,0,0,1,,,,,,,,0,,,69,85
133500,note_on,0,0,1,,,,,,,,0,,,77,0
133500,note_on,60,0,1,,,,,,,,0,,,69,0
133680,note_on,180,0,1,,,,,,,,0,,,77,85
133680,note_on,0,0,1,,,,,,,,0,,,74,85
133740,note_on,60,0,1,,,,,,,,0,,,74,0
133740,note_on,0,0,1,,,,,,,,0,,,77,0
133920,note_on,180,0,1,,,,,,,,0,,,82,122
134080,note_on,0,0,1,,,,,,,,0,,,81,106
134080,note_on,160,0,1,,,,,,,,0,,,82,0
134230,note_on,150,0,1,,,,,,,,0,,,81,0
134240,note_on,10,0,1,,,,,,,,0,,,82,106
134390,note_on,150,0,1,,,,,,,,0,,,82,0
134400,note_on,10,0,1,,,,,,,,0,,,79,122
134560,note_on,160,0,1,,,,,,,,0,,,79,0
134560,note_on,0,0,1,,,,,,,,0,,,77,106
134710,note_on,150,0,1,,,,,,,,0,,,77,0
134720,note_on,10,0,1,,,,,,,,0,,,79,106
134870,note_on,150,0,1,,,,,,,,0,,,79,0
134880,note_on,10,0,1,,,,,,,,0,,,76,122
135040,note_on,160,0,1,,,,,,,,0,,,76,0
135040,note_on,0,0,1,,,,,,,,0,,,74,106
135190,note_on,150,0,1,,,,,,,,0,,,74,0
135200,note_on,10,0,1,,,,,,,,0,,,76,106
135350,note_on,150,0,1,,,,,,,,0,,,76,0
135360,note_on,10,0,1,,,,,,,,0,,,73,122
135360,note_on,18275,0,3,,,,,,,,2,,,73,101
135360,note_on,1995,0,5,,,,,,,,4,,,61,101
135360,note_on,18275,0,4,,,,,,,,3,,,73,101
135360,note_on,1995,0,6,,,,,,,,5,,,61,101
135360,note_on,18275,0,2,,,,,,,,1,,,73,65
135420,note_on,60,0,6,,,,,,,,5,,,61,0
135420,note_on,60,0,3,,,,,,,,2,,,73,0
135420,note_on,60,0,5,,,,,,,,4,,,61,0
135420,note_on,60,0,1,,,,,,,,0,,,73,0
135420,note_on,60,0,2,,,,,,,,1,,,73,0
135420,note_on,60,0,4,,,,,,,,3,,,73,0
135600,note_on,180,0,6,,,,,,,,5,,,59,85
135600,note_on,180,0,1,,,,,,,,0,,,71,106
135600,note_on,180,0,3,,,,,,,,2,,,71,85
135600,note_on,180,0,5,,,,,,,,4,,,59,85
135600,note_on,180,0,2,,,,,,,,1,,,71,85
135600,note_on,180,0,4,,,,,,,,3,,,71,85
135715,note_on,115,0,2,,,,,,,,1,,,71,0
135715,note_on,115,0,1,,,,,,,,0,,,71,0
135715,note_on,115,0,3,,,,,,,,2,,,71,0
135715,note_on,115,0,5,,,,,,,,4,,,59,0
135715,note_on,115,0,4,,,,,,,,3,,,71,0
135715,note_on,115,0,6,,,,,,,,5,,,59,0
135720,note_on,5,0,3,,,,,,,,2,,,69,85
135720,note_on,5,0,4,,,,,,,,3,,,69,85
135720,note_on,5,0,5,,,,,,,,4,,,57,85
135720,note_on,5,0,1,,,,,,,,0,,,69,106
135720,note_on,5,0,2,,,,,,,,1,,,69,85
135720,note_on,5,0,6,,,,,,,,5,,,57,85
135835,note_on,115,0,4,,,,,,,,3,,,69,0
135835,note_on,115,0,6,,,,,,,,5,,,57,0
135835,note_on,115,0,1,,,,,,,,0,,,69,0
135835,note_on,115,0,2,,,,,,,,1,,,69,0
135835,note_on,115,0,5,,,,,,,,4,,,57,0
135835,note_on,115,0,3,,,,,,,,2,,,69,0
135840,note_on,5,0,6,,,,,,,,5,,,55,85
135840,note_on,5,0,1,,,,,,,,0,,,67,106
135840,note_on,5,0,3,,,,,,,,2,,,67,85
135840,note_on,5,0,4,,,,,,,,3,,,67,85
135840,note_on,5,0,2,,,,,,,,1,,,67,85
135840,note_on,5,0,5,,,,,,,,4,,,55,85
135955,note_on,115,0,4,,,,,,,,3,,,67,0
135955,note_on,115,0,3,,,,,,,,2,,,67,0
135955,note_on,115,0,2,,,,,,,,1,,,67,0
135955,note_on,115,0,1,,,,,,,,0,,,67,0
135955,note_on,115,0,6,,,,,,,,5,,,55,0
135955,note_on,115,0,5,,,,,,,,4,,,55,0
135960,note_on,5,0,5,,,,,,,,4,,,53,85
135960,note_on,5,0,3,,,,,,,,2,,,65,85
135960,note_on,5,0,2,,,,,,,,1,,,65,85
135960,note_on,5,0,4,,,,,,,,3,,,65,85
135960,note_on,5,0,6,,,,,,,,5,,,53,85
135960,note_on,5,0,1,,,,,,,,0,,,65,106
136075,note_on,115,0,5,,,,,,,,4,,,53,0
136075,note_on,115,0,6,,,,,,,,5,,,53,0
136075,note_on,115,0,1,,,,,,,,0,,,65,0
136075,note_on,115,0,3,,,,,,,,2,,,65,0
136075,note_on,115,0,4,,,,,,,,3,,,65,0
136075,note_on,115,0,2,,,,,,,,1,,,65,0
136080,note_on,5,0,4,,,,,,,,3,,,64,85
136080,note_on,5,0,5,,,,,,,,4,,,52,85
136080,note_on,5,0,2,,,,,,,,1,,,64,85
136080,note_on,5,0,6,,,,,,,,5,,,52,85
136080,note_on,5,0,3,,,,,,,,2,,,64,85
136080,note_on,5,0,1,,,,,,,,0,,,64,106
136195,note_on,115,0,5,,,,,,,,4,,,52,0
136195,note_on,115,0,1,,,,,,,,0,,,64,0
136195,note_on,115,0,3,,,,,,,,2,,,64,0
136195,note_on,115,0,4,,,,,,,,3,,,64,0
136195,note_on,115,0,6,,,,,,,,5,,,52,0
136195,note_on,115,0,2,,,,,,,,1,,,64,0
136200,note_on,5,0,4,,,,,,,,3,,,62,85
136200,note_on,5,0,1,,,,,,,,0,,,62,106
136200,note_on,5,0,3,,,,,,,,2,,,62,85
136200,note_on,5,0,5,,,,,,,,4,,,50,85
136200,note_on,5,0,6,,,,,,,,5,,,50,85
136200,note_on,5,0,2,,,,,,,,1,,,62,85
136315,note_on,115,0,5,,,,,,,,4,,,50,0
136315,note_on,115,0,1,,,,,,,,0,,,62,0
136315,note_on,115,0,3,,,,,,,,2,,,62,0
136315,note_on,115,0,4,,,,,,,,3,,,62,0
136315,note_on,115,0,2,,,,,,,,1,,,62,0
136315,note_on,115,0,6,,,,,,,,5,,,50,0
136320,note_on,5,0,2,,,,,,,,1,,,61,101
136320,note_on,5,0,5,,,,,,,,4,,,49,101
136320,note_on,5,0,4,,,,,,,,3,,,61,101
136320,note_on,5,0,3,,,,,,,,2,,,61,101
136320,note_on,5,0,1,,,,,,,,0,,,61,122
136320,note_on,5,0,6,,,,,,,,5,,,49,101
136560,note_on,240,0,1,,,,,,,,0,,,61,0
136560,note_on,240,0,2,,,,,,,,1,,,61,0
136560,note_on,240,0,5,,,,,,,,4,,,49,0
136560,note_on,240,0,4,,,,,,,,3,,,61,0
136560,note_on,240,0,6,,,,,,,,5,,,49,0
136560,note_on,240,0,3,,,,,,,,2,,,61,0
136800,note_on,240,0,1,,,,,,,,0,,,81,106
136950,note_on,150,0,1,,,,,,,,0,,,81,0
136960,note_on,10,0,1,,,,,,,,0,,,79,106
137110,note_on,150,0,1,,,,,,,,0,,,79,0
137120,note_on,10,0,1,,,,,,,,0,,,81,106
137270,note_on,150,0,1,,,,,,,,0,,,81,0
137280,note_on,10,0,1,,,,,,,,0,,,77,106
137430,note_on,150,0,1,,,,,,,,0,,,77,0
137440,note_on,10,0,1,,,,,,,,0,,,76,106
137590,note_on,150,0,1,,,,,,,,0,,,76,0
137600,note_on,10,0,1,,,,,,,,0,,,77,106
137750,note_on,150,0,1,,,,,,,,0,,,77,0
137760,note_on,10,0,1,,,,,,,,0,,,74,106
137910,note_on,150,0,1,,,,,,,,0,,,74,0
137920,note_on,10,0,1,,,,,,,,0,,,72,106
138070,note_on,150,0,1,,,,,,,,0,,,72,0
138080,note_on,10,0,1,,,,,,,,0,,,74,106
138230,note_on,150,0,1,,,,,,,,0,,,74,0
138240,note_on,1680,0,2,,,,,,,,1,,,70,101
138240,note_on,1680,0,6,,,,,,,,5,,,58,101
138240,note_on,10,0,1,,,,,,,,0,,,70,122
138240,note_on,1680,0,4,,,,,,,,3,,,70,101
138240,note_on,1680,0,3,,,,,,,,2,,,70,101
138240,note_on,1680,0,5,,,,,,,,4,,,58,101
138300,note_on,60,0,1,,,,,,,,0,,,70,0
138300,note_on,60,0,2,,,,,,,,1,,,70,0
138300,note_on,60,0,4,,,,,,,,3,,,70,0
138300,note_on,60,0,3,,,,,,,,2,,,70,0
138300,note_on,60,0,6,,,,,,,,5,,,58,0
138300,note_on,60,0,5,,,,,,,,4,,,58,0
138480,note_on,180,0,3,,,,,,,,2,,,69,85
138480,note_on,180,0,1,,,,,,,,0,,,69,106
138480,note_on,180,0,6,,,,,,,,5,,,57,85
138480,note_on,180,0,5,,,,,,,,4,,,57,85
138480,note_on,180,0,2,,,,,,,,1,,,69,85
138480,note_on,180,0,4,,,,,,,,3,,,69,85
138595,note_on,115,0,5,,,,,,,,4,,,57,0
138595,note_on,115,0,3,,,,,,,,2,,,69,0
138595,note_on,115,0,4,,,,,,,,3,,,69,0
138595,note_on,115,0,1,,,,,,,,0,,,69,0
138595,note_on,115,0,2,,,,,,,,1,,,69,0
138595,note_on,115,0,6,,,,,,,,5,,,57,0
138600,note_on,5,0,3,,,,,,,,2,,,67,85
138600,note_on,5,0,2,,,,,,,,1,,,67,85
138600,note_on,5,0,6,,,,,,,,5,,,55,85
138600,note_on,5,0,1,,,,,,,,0,,,67,106
138600,note_on,5,0,5,,,,,,,,4,,,55,85
138600,note_on,5,0,4,,,,,,,,3,,,67,85
138715,note_on,115,0,6,,,,,,,,5,,,55,0
138715,note_on,115,0,5,,,,,,,,4,,,55,0
138715,note_on,115,0,3,,,,,,,,2,,,67,0
138715,note_on,115,0,1,,,,,,,,0,,,67,0
138715,note_on,115,0,2,,,,,,,,1,,,67,0
138715,note_on,115,0,4,,,,,,,,3,,,67,0
138720,note_on,5,0,4,,,,,,,,3,,,65,85
138720,note_on,5,0,5,,,,,,,,4,,,53,85
138720,note_on,5,0,3,,,,,,,,2,,,65,85
138720,note_on,5,0,1,,,,,,,,0,,,65,106
138720,note_on,5,0,6,,,,,,,,5,,,53,85
138720,note_on,5,0,2,,,,,,,,1,,,65,85
138835,note_on,115,0,4,,,,,,,,3,,,65,0
138835,note_on,115,0,5,,,,,,,,4,,,53,0
138835,note_on,115,0,1,,,,,,,,0,,,65,0
138835,note_on,115,0,3,,,,,,,,2,,,65,0
138835,note_on,115,0,6,,,,,,,,5,,,53,0
138835,note_on,115,0,2,,,,,,,,1,,,65,0
138840,note_on,5,0,1,,,,,,,,0,,,64,106
138840,note_on,5,0,4,,,,,,,,3,,,64,85
138840,note_on,5,0,2,,,,,,,,1,,,64,85
138840,note_on,5,0,5,,,,,,,,4,,,52,85
138840,note_on,5,0,3,,,,,,,,2,,,64,85
138840,note_on,5,0,6,,,,,,,,5,,,52,85
138955,note_on,115,0,6,,,,,,,,5,,,52,0
138955,note_on,115,0,2,,,,,,,,1,,,64,0
138955,note_on,115,0,1,,,,,,,,0,,,64,0
138955,note_on,115,0,4,,,,,,,,3,,,64,0
138955,note_on,115,0,5,,,,,,,,4,,,52,0
138955,note_on,115,0,3,,,,,,,,2,,,64,0
138960,note_on,5,0,1,,,,,,,,0,,,62,106
138960,note_on,5,0,4,,,,,,,,3,,,62,85
138960,note_on,5,0,2,,,,,,,,1,,,62,85
138960,note_on,5,0,5,,,,,,,,4,,,50,85
138960,note_on,5,0,3,,,,,,,,2,,,62,85
138960,note_on,5,0,6,,,,,,,,5,,,50,85
139075,note_on,115,0,1,,,,,,,,0,,,62,0
139075,note_on,115,0,4,,,,,,,,3,,,62,0
139075,note_on,115,0,5,,,,,,,,4,,,50,0
139075,note_on,115,0,6,,,,,,,,5,,,50,0
139075,note_on,115,0,2,,,,,,,,1,,,62,0
139075,note_on,115,0,3,,,,,,,,2,,,62,0
139080,note_on,5,0,5,,,,,,,,4,,,48,85
139080,note_on,5,0,2,,,,,,,,1,,,60,85
139080,note_on,5,0,1,,,,,,,,0,,,60,106
139080,note_on,5,0,6,,,,,,,,5,,,48,85
139080,note_on,5,0,3,,,,,,,,2,,,60,85
139080,note_on,5,0,4,,,,,,,,3,,,60,85
139195,note_on,115,0,2,,,,,,,,1,,,60,0
139195,note_on,115,0,1,,,,,,,,0,,,60,0
139195,note_on,115,0,6,,,,,,,,5,,,48,0
139195,note_on,115,0,3,,,,,,,,2,,,60,0
139195,note_on,115,0,5,,,,,,,,4,,,48,0
139195,note_on,115,0,4,,,,,,,,3,,,60,0
139200,note_on,5,0,5,,,,,,,,4,,,46,101
139200,note_on,5,0,3,,,,,,,,2,,,58,101
139200,note_on,5,0,4,,,,,,,,3,,,58,101
139200,note_on,5,0,1,,,,,,,,0,,,58,122
139200,note_on,5,0,6,,,,,,,,5,,,46,101
139200,note_on,5,0,2,,,,,,,,1,,,58,101
139440,note_on,240,0,3,,,,,,,,2,,,58,0
139440,note_on,240,0,6,,,,,,,,5,,,46,0
139440,note_on,240,0,2,,,,,,,,1,,,58,0
139440,note_on,240,0,5,,,,,,,,4,,,46,0
139440,note_on,240,0,4,,,,,,,,3,,,58,0
139440,note_on,240,0,1,,,,,,,,0,,,58,0
139680,note_on,240,0,1,,,,,,,,0,,,79,106
139830,note_on,150,0,1,,,,,,,,0,,,79,0
139840,note_on,10,0,1,,,,,,,,0,,,77,106
139990,note_on,150,0,1,,,,,,,,0,,,77,0
140000,note_on,10,0,1,,,,,,,,0,,,79,106
140150,note_on,150,0,1,,,,,,,,0,,,79,0
140160,note_on,10,0,1,,,,,,,,0,,,76,106
140310,note_on,150,0,1,,,,,,,,0,,,76,0
140320,note_on,10,0,1,,,,,,,,0,,,74,106
140470,note_on,150,0,1,,,,,,,,0,,,74,0
140480,note_on,10,0,1,,,,,,,,0,,,76,106
140630,note_on,150,0,1,,,,,,,,0,,,76,0
140640,note_on,10,0,1,,,,,,,,0,,,73,106
140790,note_on,150,0,1,,,,,,,,0,,,73,0
140800,note_on,10,0,1,,,,,,,,0,,,71,106
140950,note_on,150,0,1,,,,,,,,0,,,71,0
140960,note_on,10,0,1,,,,,,,,0,,,73,106
141110,note_on,150,0,1,,,,,,,,0,,,73,0
141120,note_on,1680,0,2,,,,,,,,1,,,69,101
141120,note_on,1680,0,4,,,,,,,,3,,,69,101
141120,note_on,1680,0,6,,,,,,,,5,,,57,101
141120,note_on,1680,0,5,,,,,,,,4,,,57,101
141120,note_on,1680,0,3,,,,,,,,2,,,69,101
141120,note_on,10,0,1,,,,,,,,0,,,69,122
141180,note_on,60,0,1,,,,,,,,0,,,69,0
141180,note_on,60,0,5,,,,,,,,4,,,57,0
141180,note_on,60,0,6,,,,,,,,5,,,57,0
141180,note_on,60,0,2,,,,,,,,1,,,69,0
141180,note_on,60,0,4,,,,,,,,3,,,69,0
141180,note_on,60,0,3,,,,,,,,2,,,69,0
141360,note_on,180,0,3,,,,,,,,2,,,67,85
141360,note_on,180,0,6,,,,,,,,5,,,55,85
141360,note_on,180,0,2,,,,,,,,1,,,67,85
141360,note_on,180,0,1,,,,,,,,0,,,67,106
141360,note_on,180,0,5,,,,,,,,4,,,55,85
141360,note_on,180,0,4,,,,,,,,3,,,67,85
141475,note_on,115,0,5,,,,,,,,4,,,55,0
141475,note_on,115,0,2,,,,,,,,1,,,67,0
141475,note_on,115,0,1,,,,,,,,0,,,67,0
141475,note_on,115,0,6,,,,,,,,5,,,55,0
141475,note_on,115,0,3,,,,,,,,2,,,67,0
141475,note_on,115,0,4,,,,,,,,3,,,67,0
141480,note_on,5,0,2,,,,,,,,1,,,65,85
141480,note_on,5,0,3,,,,,,,,2,,,65,85
141480,note_on,5,0,1,,,,,,,,0,,,65,106
141480,note_on,5,0,4,,,,,,,,3,,,65,85
141480,note_on,5,0,5,,,,,,,,4,,,53,85
141480,note_on,5,0,6,,,,,,,,5,,,53,85
141595,note_on,115,0,3,,,,,,,,2,,,65,0
141595,note_on,115,0,6,,,,,,,,5,,,53,0
141595,note_on,115,0,2,,,,,,,,1,,,65,0
141595,note_on,115,0,4,,,,,,,,3,,,65,0
141595,note_on,115,0,1,,,,,,,,0,,,65,0
141595,note_on,115,0,5,,,,,,,,4,,,53,0
141600,note_on,5,0,2,,,,,,,,1,,,64,85
141600,note_on,5,0,1,,,,,,,,0,,,64,106
141600,note_on,5,0,3,,,,,,,,2,,,64,85
141600,note_on,5,0,5,,,,,,,,4,,,52,85
141600,note_on,5,0,6,,,,,,,,5,,,52,85
141600,note_on,5,0,4,,,,,,,,3,,,64,85
141715,note_on,115,0,5,,,,,,,,4,,,52,0
141715,note_on,115,0,6,,,,,,,,5,,,52,0
141715,note_on,115,0,1,,,,,,,,0,,,64,0
141715,note_on,115,0,4,,,,,,,,3,,,64,0
141715,note_on,115,0,2,,,,,,,,1,,,64,0
141715,note_on,115,0,3,,,,,,,,2,,,64,0
141720,note_on,5,0,6,,,,,,,,5,,,50,85
141720,note_on,5,0,3,,,,,,,,2,,,62,85
141720,note_on,5,0,1,,,,,,,,0,,,62,106
141720,note_on,5,0,4,,,,,,,,3,,,62,85
141720,note_on,5,0,5,,,,,,,,4,,,50,85
141720,note_on,5,0,2,,,,,,,,1,,,62,85
141835,note_on,115,0,1,,,,,,,,0,,,62,0
141835,note_on,115,0,5,,,,,,,,4,,,50,0
141835,note_on,115,0,6,,,,,,,,5,,,50,0
141835,note_on,115,0,4,,,,,,,,3,,,62,0
141835,note_on,115,0,3,,,,,,,,2,,,62,0
141835,note_on,115,0,2,,,,,,,,1,,,62,0
141840,note_on,5,0,5,,,,,,,,4,,,49,85
141840,note_on,5,0,6,,,,,,,,5,,,49,85
141840,note_on,5,0,3,,,,,,,,2,,,61,85
141840,note_on,5,0,1,,,,,,,,0,,,61,106
141840,note_on,5,0,2,,,,,,,,1,,,61,85
141840,note_on,5,0,4,,,,,,,,3,,,61,85
141955,note_on,115,0,1,,,,,,,,0,,,61,0
141955,note_on,115,0,3,,,,,,,,2,,,61,0
141955,note_on,115,0,2,,,,,,,,1,,,61,0
141955,note_on,115,0,5,,,,,,,,4,,,49,0
141955,note_on,115,0,6,,,,,,,,5,,,49,0
141955,note_on,115,0,4,,,,,,,,3,,,61,0
141960,note_on,5,0,4,,,,,,,,3,,,59,85
141960,note_on,5,0,2,,,,,,,,1,,,59,85
141960,note_on,5,0,3,,,,,,,,2,,,59,85
141960,note_on,5,0,5,,,,,,,,4,,,47,85
141960,note_on,5,0,6,,,,,,,,5,,,47,85
141960,note_on,5,0,1,,,,,,,,0,,,59,106
142075,note_on,115,0,5,,,,,,,,4,,,47,0
142075,note_on,115,0,6,,,,,,,,5,,,47,0
142075,note_on,115,0,1,,,,,,,,0,,,59,0
142075,note_on,115,0,4,,,,,,,,3,,,59,0
142075,note_on,115,0,2,,,,,,,,1,,,59,0
142075,note_on,115,0,3,,,,,,,,2,,,59,0
142080,note_on,5,0,1,,,,,,,,0,,,57,122
142080,note_on,5,0,4,,,,,,,,3,,,57,101
142080,note_on,5,0,2,,,,,,,,1,,,57,101
142080,note_on,5,0,6,,,,,,,,5,,,45,101
142080,note_on,5,0,3,,,,,,,,2,,,57,101
142080,note_on,5,0,5,,,,,,,,4,,,45,101
142320,note_on,240,0,1,,,,,,,,0,,,57,0
142320,note_on,240,0,4,,,,,,,,3,,,57,0
142320,note_on,240,0,5,,,,,,,,4,,,45,0
142320,note_on,240,0,3,,,,,,,,2,,,57,0
142320,note_on,240,0,2,,,,,,,,1,,,57,0
142320,note_on,240,0,6,,,,,,,,5,,,45,0
142560,note_on,240,0,1,,,,,,,,0,,,74,106
142560,note_on,240,0,5,,,,,,,,4,,,53,85
142560,note_on,240,0,6,,,,,,,,5,,,53,85
142710,note_on,150,0,1,,,,,,,,0,,,74,0
142720,note_on,10,0,1,,,,,,,,0,,,77,106
142870,note_on,150,0,1,,,,,,,,0,,,77,0
142880,note_on,10,0,1,,,,,,,,0,,,81,106
143005,note_on,445,0,5,,,,,,,,4,,,53,0
143005,note_on,445,0,6,,,,,,,,5,,,53,0
143030,note_on,150,0,1,,,,,,,,0,,,81,0
143040,note_on,35,0,5,,,,,,,,4,,,41,85
143040,note_on,10,0,1,,,,,,,,0,,,86,106
143040,note_on,35,0,6,,,,,,,,5,,,41,85
143190,note_on,150,0,1,,,,,,,,0,,,86,0
143200,note_on,10,0,1,,,,,,,,0,,,81,106
143350,note_on,150,0,1,,,,,,,,0,,,81,0
143360,note_on,10,0,1,,,,,,,,0,,,77,106
143485,note_on,445,0,5,,,,,,,,4,,,41,0
143485,note_on,445,0,6,,,,,,,,5,,,41,0
143510,note_on,150,0,1,,,,,,,,0,,,77,0
143520,note_on,35,0,5,,,,,,,,4,,,53,85
143520,note_on,35,0,6,,,,,,,,5,,,53,85
143520,note_on,10,0,1,,,,,,,,0,,,74,106
143670,note_on,150,0,1,,,,,,,,0,,,74,0
143680,note_on,10,0,1,,,,,,,,0,,,77,106
143830,note_on,150,0,1,,,,,,,,0,,,77,0
143840,note_on,10,0,1,,,,,,,,0,,,81,106
143965,note_on,445,0,6,,,,,,,,5,,,53,0
143965,note_on,445,0,5,,,,,,,,4,,,53,0
143990,note_on,150,0,1,,,,,,,,0,,,81,0
144000,note_on,35,0,6,,,,,,,,5,,,58,85
144000,note_on,35,0,5,,,,,,,,4,,,58,85
144000,note_on,10,0,1,,,,,,,,0,,,67,106
144150,note_on,150,0,1,,,,,,,,0,,,67,0
144160,note_on,10,0,1,,,,,,,,0,,,70,106
144310,note_on,150,0,1,,,,,,,,0,,,70,0
144320,note_on,10,0,1,,,,,,,,0,,,74,106
144445,note_on,445,0,5,,,,,,,,4,,,58,0
144445,note_on,445,0,6,,,,,,,,5,,,58,0
144470,note_on,150,0,1,,,,,,,,0,,,74,0
144480,note_on,35,0,5,,,,,,,,4,,,46,85
144480,note_on,35,0,6,,,,,,,,5,,,46,85
144480,note_on,10,0,1,,,,,,,,0,,,79,106
144630,note_on,150,0,1,,,,,,,,0,,,79,0
144640,note_on,10,0,1,,,,,,,,0,,,74,106
144790,note_on,150,0,1,,,,,,,,0,,,74,0
144800,note_on,10,0,1,,,,,,,,0,,,70,106
144925,note_on,445,0,5,,,,,,,,4,,,46,0
144925,note_on,445,0,6,,,,,,,,5,,,46,0
144950,note_on,150,0,1,,,,,,,,0,,,70,0
144960,note_on,35,0,5,,,,,,,,4,,,58,85
144960,note_on,35,0,6,,,,,,,,5,,,58,85
144960,note_on,10,0,1,,,,,,,,0,,,67,106
145110,note_on,150,0,1,,,,,,,,0,,,67,0
145120,note_on,10,0,1,,,,,,,,0,,,70,106
145270,note_on,150,0,1,,,,,,,,0,,,70,0
145280,note_on,10,0,1,,,,,,,,0,,,74,106
145405,note_on,445,0,5,,,,,,,,4,,,58,0
145405,note_on,445,0,6,,,,,,,,5,,,58,0
145430,note_on,150,0,1,,,,,,,,0,,,74,0
145440,note_on,35,0,6,,,,,,,,5,,,52,85
145440,note_on,10,0,1,,,,,,,,0,,,72,106
145440,note_on,35,0,5,,,,,,,,4,,,52,85
145590,note_on,150,0,1,,,,,,,,0,,,72,0
145600,note_on,10,0,1,,,,,,,,0,,,76,106
145750,note_on,150,0,1,,,,,,,,0,,,76,0
145760,note_on,10,0,1,,,,,,,,0,,,79,106
145885,note_on,445,0,5,,,,,,,,4,,,52,0
145885,note_on,445,0,6,,,,,,,,5,,,52,0
145910,note_on,150,0,1,,,,,,,,0,,,79,0
145920,note_on,35,0,6,,,,,,,,5,,,40,85
145920,note_on,35,0,5,,,,,,,,4,,,40,85
145920,note_on,10,0,1,,,,,,,,0,,,84,106
146070,note_on,150,0,1,,,,,,,,0,,,84,0
146080,note_on,10,0,1,,,,,,,,0,,,79,106
146230,note_on,150,0,1,,,,,,,,0,,,79,0
146240,note_on,10,0,1,,,,,,,,0,,,76,106
146365,note_on,445,0,6,,,,,,,,5,,,40,0
146365,note_on,445,0,5,,,,,,,,4,,,40,0
146390,note_on,150,0,1,,,,,,,,0,,,76,0
146400,note_on,35,0,5,,,,,,,,4,,,52,85
146400,note_on,35,0,6,,,,,,,,5,,,52,85
146400,note_on,10,0,1,,,,,,,,0,,,72,106
146550,note_on,150,0,1,,,,,,,,0,,,72,0
146560,note_on,10,0,1,,,,,,,,0,,,76,106
146710,note_on,150,0,1,,,,,,,,0,,,76,0
146720,note_on,10,0,1,,,,,,,,0,,,79,106
146845,note_on,445,0,5,,,,,,,,4,,,52,0
146845,note_on,445,0,6,,,,,,,,5,,,52,0
146870,note_on,150,0,1,,,,,,,,0,,,79,0
146880,note_on,35,0,5,,,,,,,,4,,,57,85
146880,note_on,35,0,6,,,,,,,,5,,,57,85
146880,note_on,10,0,1,,,,,,,,0,,,65,106
147030,note_on,150,0,1,,,,,,,,0,,,65,0
147040,note_on,10,0,1,,,,,,,,0,,,69,106
147190,note_on,150,0,1,,,,,,,,0,,,69,0
147200,note_on,10,0,1,,,,,,,,0,,,72,106
147325,note_on,445,0,6,,,,,,,,5,,,57,0
147325,note_on,445,0,5,,,,,,,,4,,,57,0
147350,note_on,150,0,1,,,,,,,,0,,,72,0
147360,note_on,35,0,6,,,,,,,,5,,,45,85
147360,note_on,10,0,1,,,,,,,,0,,,77,106
147360,note_on,35,0,5,,,,,,,,4,,,45,85
147510,note_on,150,0,1,,,,,,,,0,,,77,0
147520,note_on,10,0,1,,,,,,,,0,,,72,106
147670,note_on,150,0,1,,,,,,,,0,,,72,0
147680,note_on,10,0,1,,,,,,,,0,,,69,106
147805,note_on,445,0,5,,,,,,,,4,,,45,0
147805,note_on,445,0,6,,,,,,,,5,,,45,0
147830,note_on,150,0,1,,,,,,,,0,,,69,0
147840,note_on,35,0,5,,,,,,,,4,,,57,85
147840,note_on,35,0,6,,,,,,,,5,,,57,85
147840,note_on,10,0,1,,,,,,,,0,,,65,106
147990,note_on,150,0,1,,,,,,,,0,,,65,0
148000,note_on,10,0,1,,,,,,,,0,,,69,106
148150,note_on,150,0,1,,,,,,,,0,,,69,0
148160,note_on,10,0,1,,,,,,,,0,,,72,106
148285,note_on,445,0,6,,,,,,,,5,,,57,0
148285,note_on,445,0,5,,,,,,,,4,,,57,0
148310,note_on,150,0,1,,,,,,,,0,,,72,0
148320,note_on,10,0,1,,,,,,,,0,,,70,106
148320,note_on,35,0,6,,,,,,,,5,,,50,85
148320,note_on,35,0,5,,,,,,,,4,,,50,85
148470,note_on,150,0,1,,,,,,,,0,,,70,0
148480,note_on,10,0,1,,,,,,,,0,,,74,106
148630,note_on,150,0,1,,,,,,,,0,,,74,0
148640,note_on,10,0,1,,,,,,,,0,,,77,106
148765,note_on,445,0,5,,,,,,,,4,,,50,0
148765,note_on,445,0,6,,,,,,,,5,,,50,0
148790,note_on,150,0,1,,,,,,,,0,,,77,0
148800,note_on,10,0,1,,,,,,,,0,,,82,106
148800,note_on,35,0,5,,,,,,,,4,,,38,85
148800,note_on,35,0,6,,,,,,,,5,,,38,85
148950,note_on,150,0,1,,,,,,,,0,,,82,0
148960,note_on,10,0,1,,,,,,,,0,,,77,106
149110,note_on,150,0,1,,,,,,,,0,,,77,0
149120,note_on,10,0,1,,,,,,,,0,,,74,106
149245,note_on,445,0,6,,,,,,,,5,,,38,0
149245,note_on,445,0,5,,,,,,,,4,,,38,0
149270,note_on,150,0,1,,,,,,,,0,,,74,0
149280,note_on,35,0,5,,,,,,,,4,,,50,85
149280,note_on,10,0,1,,,,,,,,0,,,70,106
149280,note_on,35,0,6,,,,,,,,5,,,50,85
149430,note_on,150,0,1,,,,,,,,0,,,70,0
149440,note_on,10,0,1,,,,,,,,0,,,74,106
149590,note_on,150,0,1,,,,,,,,0,,,74,0
149600,note_on,10,0,1,,,,,,,,0,,,77,106
149725,note_on,445,0,6,,,,,,,,5,,,50,0
149725,note_on,445,0,5,,,,,,,,4,,,50,0
149750,note_on,150,0,1,,,,,,,,0,,,77,0
149760,note_on,35,0,5,,,,,,,,4,,,55,85
149760,note_on,10,0,1,,,,,,,,0,,,63,106
149760,note_on,35,0,6,,,,,,,,5,,,55,85
149910,note_on,150,0,1,,,,,,,,0,,,63,0
149920,note_on,10,0,1,,,,,,,,0,,,67,106
150070,note_on,150,0,1,,,,,,,,0,,,67,0
150080,note_on,10,0,1,,,,,,,,0,,,70,106
150205,note_on,445,0,5,,,,,,,,4,,,55,0
150205,note_on,445,0,6,,,,,,,,5,,,55,0
150230,note_on,150,0,1,,,,,,,,0,,,70,0
150240,note_on,10,0,1,,,,,,,,0,,,75,106
150240,note_on,35,0,5,,,,,,,,4,,,43,85
150240,note_on,35,0,6,,,,,,,,5,,,43,85
150390,note_on,150,0,1,,,,,,,,0,,,75,0
150400,note_on,10,0,1,,,,,,,,0,,,70,106
150550,note_on,150,0,1,,,,,,,,0,,,70,0
150560,note_on,10,0,1,,,,,,,,0,,,67,106
150685,note_on,445,0,5,,,,,,,,4,,,43,0
150685,note_on,445,0,6,,,,,,,,5,,,43,0
150710,note_on,150,0,1,,,,,,,,0,,,67,0
150720,note_on,35,0,5,,,,,,,,4,,,55,85
150720,note_on,35,0,6,,,,,,,,5,,,55,85
150720,note_on,10,0,1,,,,,,,,0,,,63,106
150870,note_on,150,0,1,,,,,,,,0,,,63,0
150880,note_on,10,0,1,,,,,,,,0,,,67,106
151030,note_on,150,0,1,,,,,,,,0,,,67,0
151040,note_on,10,0,1,,,,,,,,0,,,70,106
151165,note_on,445,0,6,,,,,,,,5,,,55,0
151165,note_on,445,0,5,,,,,,,,4,,,55,0
151190,note_on,150,0,1,,,,,,,,0,,,70,0
151200,note_on,35,0,6,,,,,,,,5,,,62,85
151200,note_on,35,0,5,,,,,,,,4,,,62,85
151200,note_on,10,0,1,,,,,,,,0,,,66,106
151350,note_on,150,0,1,,,,,,,,0,,,66,0
151360,note_on,10,0,1,,,,,,,,0,,,69,106
151510,note_on,150,0,1,,,,,,,,0,,,69,0
151520,note_on,10,0,1,,,,,,,,0,,,72,106
151645,note_on,445,0,5,,,,,,,,4,,,62,0
151645,note_on,445,0,6,,,,,,,,5,,,62,0
151670,note_on,150,0,1,,,,,,,,0,,,72,0
151680,note_on,35,0,5,,,,,,,,4,,,54,85
151680,note_on,10,0,1,,,,,,,,0,,,75,106
151680,note_on,35,0,6,,,,,,,,5,,,54,85
151830,note_on,150,0,1,,,,,,,,0,,,75,0
151840,note_on,10,0,1,,,,,,,,0,,,72,106
151990,note_on,150,0,1,,,,,,,,0,,,72,0
152000,note_on,10,0,1,,,,,,,,0,,,69,106
152125,note_on,445,0,5,,,,,,,,4,,,54,0
152125,note_on,445,0,6,,,,,,,,5,,,54,0
152150,note_on,150,0,1,,,,,,,,0,,,69,0
152160,note_on,10,0,1,,,,,,,,0,,,66,106
152160,note_on,35,0,5,,,,,,,,4,,,62,85
152160,note_on,35,0,6,,,,,,,,5,,,62,85
152310,note_on,150,0,1,,,,,,,,0,,,66,0
152320,note_on,10,0,1,,,,,,,,0,,,69,106
152470,note_on,150,0,1,,,,,,,,0,,,69,0
152480,note_on,10,0,1,,,,,,,,0,,,72,106
152605,note_on,445,0,5,,,,,,,,4,,,62,0
152605,note_on,445,0,6,,,,,,,,5,,,62,0
152630,note_on,150,0,1,,,,,,,,0,,,72,0
152640,note_on,10,0,1,,,,,,,,0,,,71,106
152640,note_on,35,0,6,,,,,,,,5,,,55,85
152640,note_on,35,0,5,,,,,,,,4,,,55,85
152790,note_on,150,0,1,,,,,,,,0,,,71,0
152800,note_on,10,0,1,,,,,,,,0,,,74,106
152950,note_on,150,0,1,,,,,,,,0,,,74,0
152960,note_on,10,0,1,,,,,,,,0,,,77,106
153085,note_on,445,0,5,,,,,,,,4,,,55,0
153085,note_on,445,0,6,,,,,,,,5,,,55,0
153110,note_on,150,0,1,,,,,,,,0,,,77,0
153120,note_on,35,0,5,,,,,,,,4,,,43,85
153120,note_on,10,0,1,,,,,,,,0,,,80,106
153120,note_on,35,0,6,,,,,,,,5,,,43,85
153270,note_on,150,0,1,,,,,,,,0,,,80,0
153280,note_on,10,0,1,,,,,,,,0,,,77,106
153430,note_on,150,0,1,,,,,,,,0,,,77,0
153440,note_on,10,0,1,,,,,,,,0,,,74,106
153565,note_on,445,0,6,,,,,,,,5,,,43,0
153565,note_on,445,0,5,,,,,,,,4,,,43,0
153590,note_on,150,0,1,,,,,,,,0,,,74,0
153600,note_on,35,0,6,,,,,,,,5,,,55,85
153600,note_on,35,0,5,,,,,,,,4,,,55,85
153600,note_on,10,0,1,,,,,,,,0,,,71,106
153750,note_on,150,0,1,,,,,,,,0,,,71,0
153760,note_on,10,0,1,,,,,,,,0,,,74,106
153910,note_on,150,0,1,,,,,,,,0,,,74,0
153920,note_on,10,0,1,,,,,,,,0,,,77,106
154045,note_on,445,0,6,,,,,,,,5,,,55,0
154045,note_on,445,0,5,,,,,,,,4,,,55,0
154070,note_on,150,0,1,,,,,,,,0,,,77,0
154080,note_on,35,0,5,,,,,,,,4,,,48,85
154080,note_on,10,0,1,,,,,,,,0,,,75,106
154080,note_on,35,0,6,,,,,,,,5,,,48,85
154230,note_on,150,0,1,,,,,,,,0,,,75,0
154240,note_on,10,0,1,,,,,,,,0,,,72,106
154390,note_on,150,0,1,,,,,,,,0,,,72,0
154400,note_on,10,0,1,,,,,,,,0,,,75,106
154525,note_on,445,0,6,,,,,,,,5,,,48,0
154525,note_on,445,0,5,,,,,,,,4,,,48,0
154550,note_on,150,0,1,,,,,,,,0,,,75,0
154560,note_on,35,0,6,,,,,,,,5,,,50,85
154560,note_on,10,0,1,,,,,,,,0,,,77,106
154560,note_on,35,0,5,,,,,,,,4,,,50,85
154710,note_on,150,0,1,,,,,,,,0,,,77,0
154720,note_on,10,0,1,,,,,,,,0,,,74,106
154870,note_on,150,0,1,,,,,,,,0,,,74,0
154880,note_on,10,0,1,,,,,,,,0,,,77,106
155005,note_on,445,0,5,,,,,,,,4,,,50,0
155005,note_on,445,0,6,,,,,,,,5,,,50,0
155030,note_on,150,0,1,,,,,,,,0,,,77,0
155040,note_on,35,0,6,,,,,,,,5,,,51,85
155040,note_on,10,0,1,,,,,,,,0,,,79,106
155040,note_on,35,0,5,,,,,,,,4,,,51,85
155190,note_on,150,0,1,,,,,,,,0,,,79,0
155200,note_on,10,0,1,,,,,,,,0,,,75,106
155350,note_on,150,0,1,,,,,,,,0,,,75,0
155360,note_on,10,0,1,,,,,,,,0,,,79,106
155485,note_on,445,0,5,,,,,,,,4,,,51,0
155485,note_on,445,0,6,,,,,,,,5,,,51,0
155510,note_on,150,0,1,,,,,,,,0,,,79,0
155520,note_on,35,0,5,,,,,,,,4,,,53,85
155520,note_on,35,0,6,,,,,,,,5,,,53,85
155520,note_on,10,0,1,,,,,,,,0,,,80,106
155560,note_on,40,0,1,,,,,,,,0,,,80,0
155680,note_on,120,0,1,,,,,,,,0,,,77,106
155720,note_on,40,0,1,,,,,,,,0,,,77,0
155840,note_on,120,0,1,,,,,,,,0,,,80,106
155880,note_on,40,0,1,,,,,,,,0,,,80,0
155965,note_on,445,0,6,,,,,,,,5,,,53,0
155965,note_on,445,0,5,,,,,,,,4,,,53,0
156000,note_on,35,0,5,,,,,,,,4,,,50,85
156000,note_on,120,0,1,,,,,,,,0,,,77,106
156000,note_on,35,0,6,,,,,,,,5,,,50,85
156040,note_on,40,0,1,,,,,,,,0,,,77,0
156160,note_on,120,0,1,,,,,,,,0,,,74,106
156200,note_on,40,0,1,,,,,,,,0,,,74,0
156320,note_on,120,0,1,,,,,,,,0,,,77,106
156360,note_on,40,0,1,,,,,,,,0,,,77,0
156445,note_on,445,0,5,,,,,,,,4,,,50,0
156445,note_on,445,0,6,,,,,,,,5,,,50,0
156480,note_on,35,0,5,,,,,,,,4,,,53,85
156480,note_on,120,0,1,,,,,,,,0,,,74,106
156480,note_on,35,0,6,,,,,,,,5,,,53,85
156520,note_on,40,0,1,,,,,,,,0,,,74,0
156640,note_on,120,0,1,,,,,,,,0,,,71,106
156680,note_on,40,0,1,,,,,,,,0,,,71,0
156800,note_on,120,0,1,,,,,,,,0,,,74,106
156840,note_on,40,0,1,,,,,,,,0,,,74,0
156925,note_on,445,0,6,,,,,,,,5,,,53,0
156925,note_on,445,0,5,,,,,,,,4,,,53,0
156960,note_on,35,0,6,,,,,,,,5,,,55,85
156960,note_on,120,0,1,,,,,,,,0,,,65,106
156960,note_on,35,0,5,,,,,,,,4,,,55,85
157110,note_on,150,0,1,,,,,,,,0,,,65,0
157120,note_on,10,0,1,,,,,,,,0,,,71,106
157270,note_on,150,0,1,,,,,,,,0,,,71,0
157280,note_on,10,0,1,,,,,,,,0,,,74,106
157320,note_on,40,0,1,,,,,,,,0,,,74,0
157405,note_on,445,0,5,,,,,,,,4,,,55,0
157405,note_on,445,0,6,,,,,,,,5,,,55,0
157440,note_on,35,0,6,,,,,,,,5,,,43,85
157440,note_on,35,0,5,,,,,,,,4,,,43,85
157440,note_on,120,0,1,,,,,,,,0,,,65,106
157590,note_on,150,0,1,,,,,,,,0,,,65,0
157600,note_on,10,0,1,,,,,,,,0,,,71,106
157750,note_on,150,0,1,,,,,,,,0,,,71,0
157760,note_on,10,0,1,,,,,,,,0,,,74,106
157800,note_on,40,0,1,,,,,,,,0,,,74,0
157885,note_on,445,0,5,,,,,,,,4,,,43,0
157885,note_on,445,0,6,,,,,,,,5,,,43,0
157920,note_on,120,0,1,,,,,,,,0,,,65,106
157920,note_on,35,0,6,,,,,,,,5,,,55,85
157920,note_on,35,0,5,,,,,,,,4,,,55,85
157960,note_on,40,0,1,,,,,,,,0,,,65,0
158080,note_on,120,0,1,,,,,,,,0,,,63,106
158120,note_on,40,0,1,,,,,,,,0,,,63,0
158240,note_on,120,0,1,,,,,,,,0,,,62,106
158280,note_on,40,0,1,,,,,,,,0,,,62,0
158365,note_on,445,0,5,,,,,,,,4,,,55,0
158365,note_on,445,0,6,,,,,,,,5,,,55,0
158400,note_on,120,0,1,,,,,,,,0,,,63,106
158400,note_on,35,0,6,,,,,,,,5,,,48,85
158400,note_on,35,0,5,,,,,,,,4,,,48,85
158550,note_on,150,0,1,,,,,,,,0,,,63,0
158560,note_on,10,0,1,,,,,,,,0,,,67,106
158710,note_on,150,0,1,,,,,,,,0,,,67,0
158720,note_on,10,0,1,,,,,,,,0,,,72,106
158760,note_on,40,0,1,,,,,,,,0,,,72,0
158845,note_on,445,0,6,,,,,,,,5,,,48,0
158845,note_on,445,0,5,,,,,,,,4,,,48,0
158880,note_on,35,0,5,,,,,,,,4,,,55,85
158880,note_on,120,0,1,,,,,,,,0,,,63,106
158880,note_on,35,0,6,,,,,,,,5,,,55,85
159030,note_on,150,0,1,,,,,,,,0,,,63,0
159040,note_on,10,0,1,,,,,,,,0,,,67,106
159190,note_on,150,0,1,,,,,,,,0,,,67,0
159200,note_on,10,0,1,,,,,,,,0,,,72,106
159240,note_on,40,0,1,,,,,,,,0,,,72,0
159325,note_on,445,0,5,,,,,,,,4,,,55,0
159325,note_on,445,0,6,,,,,,,,5,,,55,0
159360,note_on,120,0,1,,,,,,,,0,,,62,106
159360,note_on,35,0,6,,,,,,,,5,,,43,85
159360,note_on,35,0,5,,,,,,,,4,,,43,85
159510,note_on,150,0,1,,,,,,,,0,,,62,0
159520,note_on,10,0,1,,,,,,,,0,,,67,106
159670,note_on,150,0,1,,,,,,,,0,,,67,0
159680,note_on,10,0,1,,,,,,,,0,,,71,106
159720,note_on,40,0,1,,,,,,,,0,,,71,0
159805,note_on,445,0,6,,,,,,,,5,,,43,0
159805,note_on,445,0,5,,,,,,,,4,,,43,0
159840,note_on,17520,0,3,,,,,,,,2,,,75,85
159840,note_on,35,0,6,,,,,,,,5,,,48,85
159840,note_on,17520,0,4,,,,,,,,3,,,67,85
159840,note_on,120,0,1,,,,,,,,0,,,72,64
159840,note_on,17520,0,2,,,,,,,,1,,,72,85
159840,note_on,35,0,5,,,,,,,,4,,,48,85
160065,note_on,225,0,6,,,,,,,,5,,,48,0
160065,note_on,225,0,4,,,,,,,,3,,,67,0
160065,note_on,225,0,5,,,,,,,,4,,,48,0
160080,note_on,15,0,6,,,,,,,,5,,,48,85
160080,note_on,15,0,4,,,,,,,,3,,,67,85
160080,note_on,15,0,5,,,,,,,,4,,,48,85
160195,note_on,115,0,5,,,,,,,,4,,,48,0
160195,note_on,115,0,6,,,,,,,,5,,,48,0
160195,note_on,115,0,4,,,,,,,,3,,,67,0
160200,note_on,5,0,5,,,,,,,,4,,,48,85
160200,note_on,5,0,6,,,,,,,,5,,,48,85
160200,note_on,5,0,4,,,,,,,,3,,,67,85
160285,note_on,445,0,2,,,,,,,,1,,,72,0
160285,note_on,445,0,1,,,,,,,,0,,,72,0
160285,note_on,445,0,3,,,,,,,,2,,,75,0
160315,note_on,115,0,4,,,,,,,,3,,,67,0
160315,note_on,115,0,6,,,,,,,,5,,,48,0
160315,note_on,115,0,5,,,,,,,,4,,,48,0
160320,note_on,35,0,2,,,,,,,,1,,,84,101
160320,note_on,5,0,6,,,,,,,,5,,,48,85
160320,note_on,5,0,5,,,,,,,,4,,,48,85
160320,note_on,5,0,4,,,,,,,,3,,,67,85
160320,note_on,35,0,3,,,,,,,,2,,,79,101
160320,note_on,35,0,1,,,,,,,,0,,,84,80
160380,note_on,60,0,2,,,,,,,,1,,,84,0
160380,note_on,60,0,3,,,,,,,,2,,,79,0
160380,note_on,60,0,1,,,,,,,,0,,,84,0
160560,note_on,180,0,3,,,,,,,,2,,,75,85
160560,note_on,180,0,1,,,,,,,,0,,,72,64
160560,note_on,180,0,2,,,,,,,,1,,,72,85
160620,note_on,60,0,2,,,,,,,,1,,,72,0
160620,note_on,60,0,3,,,,,,,,2,,,75,0
160620,note_on,60,0,1,,,,,,,,0,,,72,0
160765,note_on,445,0,5,,,,,,,,4,,,48,0
160765,note_on,445,0,6,,,,,,,,5,,,48,0
160765,note_on,445,0,4,,,,,,,,3,,,67,0
160800,note_on,35,0,4,,,,,,,,3,,,67,85
160800,note_on,35,0,6,,,,,,,,5,,,60,85
160800,note_on,35,0,5,,,,,,,,4,,,60,85
160800,note_on,180,0,3,,,,,,,,2,,,75,85
160800,note_on,180,0,2,,,,,,,,1,,,72,85
160800,note_on,180,0,1,,,,,,,,0,,,72,64
160860,note_on,60,0,1,,,,,,,,0,,,72,0
160860,note_on,60,0,3,,,,,,,,2,,,75,0
160860,note_on,60,0,2,,,,,,,,1,,,72,0
161040,note_on,180,0,3,,,,,,,,2,,,75,85
161040,note_on,180,0,2,,,,,,,,1,,,72,85
161040,note_on,180,0,1,,,,,,,,0,,,72,64
161100,note_on,60,0,2,,,,,,,,1,,,72,0
161100,note_on,60,0,3,,,,,,,,2,,,75,0
161100,note_on,60,0,1,,,,,,,,0,,,72,0
161245,note_on,445,0,6,,,,,,,,5,,,60,0
161245,note_on,445,0,4,,,,,,,,3,,,67,0
161245,note_on,445,0,5,,,,,,,,4,,,60,0
161280,note_on,35,0,6,,,,,,,,5,,,48,85
161280,note_on,180,0,3,,,,,,,,2,,,75,85
161280,note_on,180,0,1,,,,,,,,0,,,72,64
161280,note_on,180,0,2,,,,,,,,1,,,72,85
161280,note_on,35,0,5,,,,,,,,4,,,48,85
161280,note_on,35,0,4,,,,,,,,3,,,67,85
161505,note_on,225,0,5,,,,,,,,4,,,48,0
161505,note_on,225,0,6,,,,,,,,5,,,48,0
161505,note_on,225,0,4,,,,,,,,3,,,67,0
161520,note_on,15,0,6,,,,,,,,5,,,48,85
161520,note_on,15,0,5,,,,,,,,4,,,48,85
161520,note_on,15,0,4,,,,,,,,3,,,67,85
161635,note_on,115,0,5,,,,,,,,4,,,48,0
161635,note_on,115,0,6,,,,,,,,5,,,48,0
161635,note_on,115,0,4,,,,,,,,3,,,67,0
161640,note_on,5,0,5,,,,,,,,4,,,48,85
161640,note_on,5,0,4,,,,,,,,3,,,67,85
161640,note_on,5,0,6,,,,,,,,5,,,48,85
161725,note_on,445,0,1,,,,,,,,0,,,72,0
161725,note_on,445,0,2,,,,,,,,1,,,72,0
161725,note_on,445,0,3,,,,,,,,2,,,75,0
161755,note_on,115,0,4,,,,,,,,3,,,67,0
161755,note_on,115,0,5,,,,,,,,4,,,48,0
161755,note_on,115,0,6,,,,,,,,5,,,48,0
161760,note_on,35,0,2,,,,,,,,1,,,84,101
161760,note_on,5,0,4,,,,,,,,3,,,67,85
161760,note_on,5,0,5,,,,,,,,4,,,48,85
161760,note_on,35,0,3,,,,,,,,2,,,79,101
161760,note_on,5,0,6,,,,,,,,5,,,48,85
161760,note_on,35,0,1,,,,,,,,0,,,84,80
161820,note_on,60,0,2,,,,,,,,1,,,84,0
161820,note_on,60,0,1,,,,,,,,0,,,84,0
161820,note_on,60,0,3,,,,,,,,2,,,79,0
162000,note_on,180,0,3,,,,,,,,2,,,75,85
162000,note_on,180,0,1,,,,,,,,0,,,72,64
162000,note_on,180,0,2,,,,,,,,1,,,72,85
162060,note_on,60,0,3,,,,,,,,2,,,75,0
162060,note_on,60,0,2,,,,,,,,1,,,72,0
162060,note_on,60,0,1,,,,,,,,0,,,72,0
162205,note_on,445,0,4,,,,,,,,3,,,67,0
162205,note_on,445,0,6,,,,,,,,5,,,48,0
162205,note_on,445,0,5,,,,,,,,4,,,48,0
162240,note_on,180,0,3,,,,,,,,2,,,75,85
162240,note_on,35,0,4,,,,,,,,3,,,67,85
162240,note_on,35,0,5,,,,,,,,4,,,60,85
162240,note_on,180,0,1,,,,,,,,0,,,72,64
162240,note_on,35,0,6,,,,,,,,5,,,60,85
162240,note_on,180,0,2,,,,,,,,1,,,72,85
162300,note_on,60,0,2,,,,,,,,1,,,72,0
162300,note_on,60,0,3,,,,,,,,2,,,75,0
162300,note_on,60,0,1,,,,,,,,0,,,72,0
162480,note_on,180,0,2,,,,,,,,1,,,72,85
162480,note_on,180,0,1,,,,,,,,0,,,72,64
162480,note_on,180,0,3,,,,,,,,2,,,75,85
162540,note_on,60,0,3,,,,,,,,2,,,75,0
162540,note_on,60,0,1,,,,,,,,0,,,72,0
162540,note_on,60,0,2,,,,,,,,1,,,72,0
162685,note_on,445,0,6,,,,,,,,5,,,60,0
162685,note_on,445,0,5,,,,,,,,4,,,60,0
162685,note_on,445,0,4,,,,,,,,3,,,67,0
162720,note_on,180,0,1,,,,,,,,0,,,72,64
162720,note_on,35,0,5,,,,,,,,4,,,48,85
162720,note_on,35,0,6,,,,,,,,5,,,48,85
162720,note_on,180,0,2,,,,,,,,1,,,72,85
162720,note_on,180,0,3,,,,,,,,2,,,75,85
162720,note_on,35,0,4,,,,,,,,3,,,67,85
162945,note_on,225,0,4,,,,,,,,3,,,67,0
162945,note_on,225,0,6,,,,,,,,5,,,48,0
162945,note_on,225,0,5,,,,,,,,4,,,48,0
162960,note_on,15,0,5,,,,,,,,4,,,48,85
162960,note_on,15,0,6,,,,,,,,5,,,48,85
162960,note_on,15,0,4,,,,,,,,3,,,67,85
163075,note_on,115,0,4,,,,,,,,3,,,67,0
163075,note_on,115,0,5,,,,,,,,4,,,48,0
163075,note_on,115,0,6,,,,,,,,5,,,48,0
163080,note_on,5,0,4,,,,,,,,3,,,67,85
163080,note_on,5,0,5,,,,,,,,4,,,48,85
163080,note_on,5,0,6,,,,,,,,5,,,48,85
163165,note_on,445,0,3,,,,,,,,2,,,75,0
163165,note_on,445,0,2,,,,,,,,1,,,72,0
163165,note_on,445,0,1,,,,,,,,0,,,72,0
163195,note_on,115,0,5,,,,,,,,4,,,48,0
163195,note_on,115,0,4,,,,,,,,3,,,67,0
163195,note_on,115,0,6,,,,,,,,5,,,48,0
163200,note_on,35,0,1,,,,,,,,0,,,84,80
163200,note_on,5,0,6,,,,,,,,5,,,48,85
163200,note_on,35,0,3,,,,,,,,2,,,79,101
163200,note_on,5,0,4,,,,,,,,3,,,67,85
163200,note_on,35,0,2,,,,,,,,1,,,84,101
163200,note_on,5,0,5,,,,,,,,4,,,48,85
163260,note_on,60,0,2,,,,,,,,1,,,84,0
163260,note_on,60,0,1,,,,,,,,0,,,84,0
163260,note_on,60,0,3,,,,,,,,2,,,79,0
163440,note_on,180,0,3,,,,,,,,2,,,75,85
163440,note_on,180,0,1,,,,,,,,0,,,72,64
163440,note_on,180,0,2,,,,,,,,1,,,72,85
163500,note_on,60,0,1,,,,,,,,0,,,72,0
163500,note_on,60,0,3,,,,,,,,2,,,75,0
163500,note_on,60,0,2,,,,,,,,1,,,72,0
163645,note_on,445,0,5,,,,,,,,4,,,48,0
163645,note_on,445,0,4,,,,,,,,3,,,67,0
163645,note_on,445,0,6,,,,,,,,5,,,48,0
163680,note_on,35,0,6,,,,,,,,5,,,60,85
163680,note_on,180,0,2,,,,,,,,1,,,72,85
163680,note_on,180,0,3,,,,,,,,2,,,75,85
163680,note_on,35,0,5,,,,,,,,4,,,60,85
163680,note_on,180,0,1,,,,,,,,0,,,72,64
163680,note_on,35,0,4,,,,,,,,3,,,67,85
163740,note_on,60,0,2,,,,,,,,1,,,72,0
163740,note_on,60,0,1,,,,,,,,0,,,72,0
163740,note_on,60,0,3,,,,,,,,2,,,75,0
163920,note_on,180,0,3,,,,,,,,2,,,75,85
163920,note_on,180,0,2,,,,,,,,1,,,72,85
163920,note_on,180,0,1,,,,,,,,0,,,72,64
163980,note_on,60,0,3,,,,,,,,2,,,75,0
163980,note_on,60,0,2,,,,,,,,1,,,72,0
163980,note_on,60,0,1,,,,,,,,0,,,72,0
164125,note_on,445,0,6,,,,,,,,5,,,60,0
164125,note_on,445,0,4,,,,,,,,3,,,67,0
164125,note_on,445,0,5,,,,,,,,4,,,60,0
164160,note_on,180,0,3,,,,,,,,2,,,74,85
164160,note_on,35,0,6,,,,,,,,5,,,43,85
164160,note_on,180,0,2,,,,,,,,1,,,74,85
164160,note_on,180,0,1,,,,,,,,0,,,74,64
164160,note_on,35,0,5,,,,,,,,4,,,43,85
164160,note_on,35,0,4,,,,,,,,3,,,59,85
164385,note_on,225,0,4,,,,,,,,3,,,59,0
164385,note_on,225,0,5,,,,,,,,4,,,43,0
164385,note_on,225,0,6,,,,,,,,5,,,43,0
164400,note_on,15,0,4,,,,,,,,3,,,59,85
164400,note_on,15,0,6,,,,,,,,5,,,43,85
164400,note_on,15,0,5,,,,,,,,4,,,43,85
164515,note_on,115,0,4,,,,,,,,3,,,59,0
164515,note_on,115,0,5,,,,,,,,4,,,43,0
164515,note_on,115,0,6,,,,,,,,5,,,43,0
164520,note_on,5,0,4,,,,,,,,3,,,59,85
164520,note_on,5,0,6,,,,,,,,5,,,43,85
164520,note_on,5,0,5,,,,,,,,4,,,43,85
164605,note_on,445,0,3,,,,,,,,2,,,74,0
164605,note_on,445,0,2,,,,,,,,1,,,74,0
164605,note_on,445,0,1,,,,,,,,0,,,74,0
164635,note_on,115,0,4,,,,,,,,3,,,59,0
164635,note_on,115,0,5,,,,,,,,4,,,43,0
164635,note_on,115,0,6,,,,,,,,5,,,43,0
164640,note_on,5,0,6,,,,,,,,5,,,43,85
164640,note_on,5,0,4,,,,,,,,3,,,59,85
164640,note_on,35,0,1,,,,,,,,0,,,83,80
164640,note_on,35,0,3,,,,,,,,2,,,77,101
164640,note_on,5,0,5,,,,,,,,4,,,43,85
164640,note_on,35,0,2,,,,,,,,1,,,83,101
164700,note_on,60,0,2,,,,,,,,1,,,83,0
164700,note_on,60,0,1,,,,,,,,0,,,83,0
164700,note_on,60,0,3,,,,,,,,2,,,77,0
164880,note_on,180,0,2,,,,,,,,1,,,77,85
164880,note_on,180,0,1,,,,,,,,0,,,77,64
164880,note_on,180,0,3,,,,,,,,2,,,74,85
164940,note_on,60,0,3,,,,,,,,2,,,74,0
164940,note_on,60,0,1,,,,,,,,0,,,77,0
164940,note_on,60,0,2,,,,,,,,1,,,77,0
165085,note_on,445,0,5,,,,,,,,4,,,43,0
165085,note_on,445,0,4,,,,,,,,3,,,59,0
165085,note_on,445,0,6,,,,,,,,5,,,43,0
165120,note_on,35,0,6,,,,,,,,5,,,55,85
165120,note_on,180,0,3,,,,,,,,2,,,74,85
165120,note_on,180,0,1,,,,,,,,0,,,77,64
165120,note_on,180,0,2,,,,,,,,1,,,77,85
165120,note_on,35,0,5,,,,,,,,4,,,55,85
165120,note_on,35,0,4,,,,,,,,3,,,59,85
165180,note_on,60,0,3,,,,,,,,2,,,74,0
165180,note_on,60,0,2,,,,,,,,1,,,77,0
165180,note_on,60,0,1,,,,,,,,0,,,77,0
165360,note_on,180,0,2,,,,,,,,1,,,77,85
165360,note_on,180,0,1,,,,,,,,0,,,77,64
165360,note_on,180,0,3,,,,,,,,2,,,74,85
165420,note_on,60,0,3,,,,,,,,2,,,74,0
165420,note_on,60,0,1,,,,,,,,0,,,77,0
165420,note_on,60,0,2,,,,,,,,1,,,77,0
165565,note_on,445,0,6,,,,,,,,5,,,55,0
165565,note_on,445,0,4,,,,,,,,3,,,59,0
165565,note_on,445,0,5,,,,,,,,4,,,55,0
165600,note_on,180,0,2,,,,,,,,1,,,74,85
165600,note_on,35,0,5,,,,,,,,4,,,43,85
165600,note_on,35,0,6,,,,,,,,5,,,43,85
165600,note_on,35,0,4,,,,,,,,3,,,59,85
165600,note_on,180,0,3,,,,,,,,2,,,74,85
165600,note_on,180,0,1,,,,,,,,0,,,74,64
165825,note_on,225,0,5,,,,,,,,4,,,43,0
165825,note_on,225,0,6,,,,,,,,5,,,43,0
165825,note_on,225,0,4,,,,,,,,3,,,59,0
165840,note_on,15,0,4,,,,,,,,3,,,59,85
165840,note_on,15,0,6,,,,,,,,5,,,43,85
165840,note_on,15,0,5,,,,,,,,4,,,43,85
165955,note_on,115,0,6,,,,,,,,5,,,43,0
165955,note_on,115,0,4,,,,,,,,3,,,59,0
165955,note_on,115,0,5,,,,,,,,4,,,43,0
165960,note_on,5,0,5,,,,,,,,4,,,43,85
165960,note_on,5,0,4,,,,,,,,3,,,59,85
165960,note_on,5,0,6,,,,,,,,5,,,43,85
166045,note_on,445,0,3,,,,,,,,2,,,74,0
166045,note_on,445,0,1,,,,,,,,0,,,74,0
166045,note_on,445,0,2,,,,,,,,1,,,74,0
166075,note_on,115,0,6,,,,,,,,5,,,43,0
166075,note_on,115,0,5,,,,,,,,4,,,43,0
166075,note_on,115,0,4,,,,,,,,3,,,59,0
166080,note_on,35,0,3,,,,,,,,2,,,77,101
166080,note_on,35,0,2,,,,,,,,1,,,83,101
166080,note_on,5,0,4,,,,,,,,3,,,59,85
166080,note_on,5,0,5,,,,,,,,4,,,43,85
166080,note_on,5,0,6,,,,,,,,5,,,43,85
166080,note_on,35,0,1,,,,,,,,0,,,83,80
166140,note_on,60,0,2,,,,,,,,1,,,83,0
166140,note_on,60,0,1,,,,,,,,0,,,83,0
166140,note_on,60,0,3,,,,,,,,2,,,77,0
166320,note_on,180,0,1,,,,,,,,0,,,77,64
166320,note_on,180,0,2,,,,,,,,1,,,77,85
166320,note_on,180,0,3,,,,,,,,2,,,74,85
166380,note_on,60,0,1,,,,,,,,0,,,77,0
166380,note_on,60,0,2,,,,,,,,1,,,77,0
166380,note_on,60,0,3,,,,,,,,2,,,74,0
166525,note_on,445,0,4,,,,,,,,3,,,59,0
166525,note_on,445,0,6,,,,,,,,5,,,43,0
166525,note_on,445,0,5,,,,,,,,4,,,43,0
166560,note_on,35,0,5,,,,,,,,4,,,55,85
166560,note_on,180,0,2,,,,,,,,1,,,77,85
166560,note_on,35,0,4,,,,,,,,3,,,59,85
166560,note_on,35,0,6,,,,,,,,5,,,55,85
166560,note_on,180,0,1,,,,,,,,0,,,77,64
166560,note_on,180,0,3,,,,,,,,2,,,74,85
166620,note_on,60,0,2,,,,,,,,1,,,77,0
166620,note_on,60,0,1,,,,,,,,0,,,77,0
166620,note_on,60,0,3,,,,,,,,2,,,74,0
166800,note_on,180,0,2,,,,,,,,1,,,77,85
166800,note_on,180,0,1,,,,,,,,0,,,77,64
166800,note_on,180,0,3,,,,,,,,2,,,74,85
166860,note_on,60,0,1,,,,,,,,0,,,77,0
166860,note_on,60,0,2,,,,,,,,1,,,77,0
166860,note_on,60,0,3,,,,,,,,2,,,74,0
167005,note_on,445,0,6,,,,,,,,5,,,55,0
167005,note_on,445,0,4,,,,,,,,3,,,59,0
167005,note_on,445,0,5,,,,,,,,4,,,55,0
167040,note_on,180,0,1,,,,,,,,0,,,74,64
167040,note_on,180,0,2,,,,,,,,1,,,74,85
167040,note_on,180,0,3,,,,,,,,2,,,74,85
167040,note_on,35,0,5,,,,,,,,4,,,43,85
167040,note_on,35,0,6,,,,,,,,5,,,43,85
167040,note_on,35,0,4,,,,,,,,3,,,59,85
167265,note_on,225,0,6,,,,,,,,5,,,43,0
167265,note_on,225,0,5,,,,,,,,4,,,43,0
167265,note_on,225,0,4,,,,,,,,3,,,59,0
167280,note_on,15,0,5,,,,,,,,4,,,43,85
167280,note_on,15,0,6,,,,,,,,5,,,43,85
167280,note_on,15,0,4,,,,,,,,3,,,59,85
167395,note_on,115,0,5,,,,,,,,4,,,43,0
167395,note_on,115,0,4,,,,,,,,3,,,59,0
167395,note_on,115,0,6,,,,,,,,5,,,43,0
167400,note_on,5,0,4,,,,,,,,3,,,59,85
167400,note_on,5,0,5,,,,,,,,4,,,43,85
167400,note_on,5,0,6,,,,,,,,5,,,43,85
167485,note_on,445,0,1,,,,,,,,0,,,74,0
167485,note_on,445,0,3,,,,,,,,2,,,74,0
167485,note_on,445,0,2,,,,,,,,1,,,74,0
167515,note_on,115,0,5,,,,,,,,4,,,43,0
167515,note_on,115,0,6,,,,,,,,5,,,43,0
167515,note_on,115,0,4,,,,,,,,3,,,59,0
167520,note_on,5,0,6,,,,,,,,5,,,43,85
167520,note_on,35,0,2,,,,,,,,1,,,83,101
167520,note_on,35,0,3,,,,,,,,2,,,77,101
167520,note_on,35,0,1,,,,,,,,0,,,83,80
167520,note_on,5,0,5,,,,,,,,4,,,43,85
167520,note_on,5,0,4,,,,,,,,3,,,59,85
167580,note_on,60,0,2,,,,,,,,1,,,83,0
167580,note_on,60,0,3,,,,,,,,2,,,77,0
167580,note_on,60,0,1,,,,,,,,0,,,83,0
167760,note_on,180,0,1,,,,,,,,0,,,77,64
167760,note_on,180,0,2,,,,,,,,1,,,77,85
167760,note_on,180,0,3,,,,,,,,2,,,74,85
167820,note_on,60,0,2,,,,,,,,1,,,77,0
167820,note_on,60,0,1,,,,,,,,0,,,77,0
167820,note_on,60,0,3,,,,,,,,2,,,74,0
167965,note_on,445,0,6,,,,,,,,5,,,43,0
167965,note_on,445,0,5,,,,,,,,4,,,43,0
167965,note_on,445,0,4,,,,,,,,3,,,59,0
168000,note_on,35,0,6,,,,,,,,5,,,55,85
168000,note_on,180,0,2,,,,,,,,1,,,77,85
168000,note_on,180,0,3,,,,,,,,2,,,74,85
168000,note_on,35,0,4,,,,,,,,3,,,59,85
168000,note_on,35,0,5,,,,,,,,4,,,55,85
168000,note_on,180,0,1,,,,,,,,0,,,77,64
168060,note_on,60,0,1,,,,,,,,0,,,77,0
168060,note_on,60,0,3,,,,,,,,2,,,74,0
168060,note_on,60,0,2,,,,,,,,1,,,77,0
168240,note_on,180,0,1,,,,,,,,0,,,77,64
168240,note_on,180,0,3,,,,,,,,2,,,74,85
168240,note_on,180,0,2,,,,,,,,1,,,77,85
168300,note_on,60,0,1,,,,,,,,0,,,77,0
168300,note_on,60,0,3,,,,,,,,2,,,74,0
168300,note_on,60,0,2,,,,,,,,1,,,77,0
168445,note_on,445,0,4,,,,,,,,3,,,59,0
168445,note_on,445,0,6,,,,,,,,5,,,55,0
168445,note_on,445,0,5,,,,,,,,4,,,55,0
168480,note_on,180,0,2,,,,,,,,1,,,75,85
168480,note_on,35,0,4,,,,,,,,3,,,55,85
168480,note_on,180,0,1,,,,,,,,0,,,75,64
168480,note_on,180,0,3,,,,,,,,2,,,72,85
168480,note_on,35,0,6,,,,,,,,5,,,48,85
168480,note_on,35,0,5,,,,,,,,4,,,48,85
168925,note_on,445,0,4,,,,,,,,3,,,55,0
168925,note_on,445,0,3,,,,,,,,2,,,72,0
168925,note_on,445,0,6,,,,,,,,5,,,48,0
168925,note_on,445,0,2,,,,,,,,1,,,75,0
168925,note_on,445,0,5,,,,,,,,4,,,48,0
168925,note_on,445,0,1,,,,,,,,0,,,75,0
168960,note_on,35,0,6,,,,,,,,5,,,60,101
168960,note_on,35,0,5,,,,,,,,4,,,60,101
168960,note_on,35,0,3,,,,,,,,2,,,72,101
168960,note_on,35,0,1,,,,,,,,0,,,72,101
168960,note_on,35,0,2,,,,,,,,1,,,72,101
168960,note_on,35,0,4,,,,,,,,3,,,72,101
169020,note_on,60,0,1,,,,,,,,0,,,72,0
169020,note_on,60,0,4,,,,,,,,3,,,72,0
169020,note_on,60,0,6,,,,,,,,5,,,60,0
169020,note_on,60,0,2,,,,,,,,1,,,72,0
169020,note_on,60,0,3,,,,,,,,2,,,72,0
169020,note_on,60,0,5,,,,,,,,4,,,60,0
169200,note_on,180,0,6,,,,,,,,5,,,48,85
169200,note_on,180,0,1,,,,,,,,0,,,60,85
169200,note_on,180,0,2,,,,,,,,1,,,60,85
169200,note_on,180,0,5,,,,,,,,4,,,48,85
169200,note_on,180,0,3,,,,,,,,2,,,60,85
169200,note_on,180,0,4,,,,,,,,3,,,60,85
169260,note_on,60,0,6,,,,,,,,5,,,48,0
169260,note_on,60,0,1,,,,,,,,0,,,60,0
169260,note_on,60,0,2,,,,,,,,1,,,60,0
169260,note_on,60,0,5,,,,,,,,4,,,48,0
169260,note_on,60,0,4,,,,,,,,3,,,60,0
169260,note_on,60,0,3,,,,,,,,2,,,60,0
169440,note_on,180,0,6,,,,,,,,5,,,48,85
169440,note_on,180,0,1,,,,,,,,0,,,60,85
169440,note_on,180,0,3,,,,,,,,2,,,60,85
169440,note_on,180,0,2,,,,,,,,1,,,60,85
169440,note_on,180,0,4,,,,,,,,3,,,60,85
169440,note_on,180,0,5,,,,,,,,4,,,48,85
169500,note_on,60,0,3,,,,,,,,2,,,60,0
169500,note_on,60,0,2,,,,,,,,1,,,60,0
169500,note_on,60,0,5,,,,,,,,4,,,48,0
169500,note_on,60,0,4,,,,,,,,3,,,60,0
169500,note_on,60,0,1,,,,,,,,0,,,60,0
169500,note_on,60,0,6,,,,,,,,5,,,48,0
169680,note_on,180,0,1,,,,,,,,0,,,60,85
169680,note_on,180,0,6,,,,,,,,5,,,48,85
169680,note_on,180,0,2,,,,,,,,1,,,60,85
169680,note_on,180,0,3,,,,,,,,2,,,60,85
169680,note_on,180,0,4,,,,,,,,3,,,60,85
169680,note_on,180,0,5,,,,,,,,4,,,48,85
169740,note_on,60,0,3,,,,,,,,2,,,60,0
169740,note_on,60,0,2,,,,,,,,1,,,60,0
169740,note_on,60,0,6,,,,,,,,5,,,48,0
169740,note_on,60,0,1,,,,,,,,0,,,60,0
169740,note_on,60,0,5,,,,,,,,4,,,48,0
169740,note_on,60,0,4,,,,,,,,3,,,60,0
169920,note_on,180,0,1,,,,,,,,0,,,60,85
169920,note_on,180,0,2,,,,,,,,1,,,60,85
169920,note_on,180,0,6,,,,,,,,5,,,48,85
169920,note_on,180,0,3,,,,,,,,2,,,60,85
169920,note_on,180,0,5,,,,,,,,4,,,48,85
169920,note_on,180,0,4,,,,,,,,3,,,60,85
170365,note_on,445,0,5,,,,,,,,4,,,48,0
170365,note_on,445,0,4,,,,,,,,3,,,60,0
170365,note_on,445,0,6,,,,,,,,5,,,48,0
170365,note_on,445,0,3,,,,,,,,2,,,60,0
170365,note_on,445,0,1,,,,,,,,0,,,60,0
170365,note_on,445,0,2,,,,,,,,1,,,60,0
170400,note_on,35,0,1,,,,,,,,0,,,70,80
170400,note_on,35,0,3,,,,,,,,2,,,70,80
170400,note_on,35,0,5,,,,,,,,4,,,58,80
170400,note_on,35,0,2,,,,,,,,1,,,70,80
170400,note_on,35,0,6,,,,,,,,5,,,58,80
170400,note_on,35,0,4,,,,,,,,3,,,70,80
170460,note_on,60,0,2,,,,,,,,1,,,70,0
170460,note_on,60,0,6,,,,,,,,5,,,58,0
170460,note_on,60,0,4,,,,,,,,3,,,70,0
170460,note_on,60,0,1,,,,,,,,0,,,70,0
170460,note_on,60,0,3,,,,,,,,2,,,70,0
170460,note_on,60,0,5,,,,,,,,4,,,58,0
170640,note_on,180,0,2,,,,,,,,1,,,60,64
170640,note_on,180,0,5,,,,,,,,4,,,48,64
170640,note_on,180,0,1,,,,,,,,0,,,60,64
170640,note_on,180,0,4,,,,,,,,3,,,60,64
170640,note_on,180,0,3,,,,,,,,2,,,60,64
170640,note_on,180,0,6,,,,,,,,5,,,48,64
170700,note_on,60,0,4,,,,,,,,3,,,60,0
170700,note_on,60,0,2,,,,,,,,1,,,60,0
170700,note_on,60,0,3,,,,,,,,2,,,60,0
170700,note_on,60,0,5,,,,,,,,4,,,48,0
170700,note_on,60,0,1,,,,,,,,0,,,60,0
170700,note_on,60,0,6,,,,,,,,5,,,48,0
170880,note_on,180,0,4,,,,,,,,3,,,60,64
170880,note_on,180,0,5,,,,,,,,4,,,48,64
170880,note_on,180,0,6,,,,,,,,5,,,48,64
170880,note_on,180,0,2,,,,,,,,1,,,60,64
170880,note_on,180,0,1,,,,,,,,0,,,60,64
170880,note_on,180,0,3,,,,,,,,2,,,60,64
170940,note_on,60,0,2,,,,,,,,1,,,60,0
170940,note_on,60,0,6,,,,,,,,5,,,48,0
170940,note_on,60,0,3,,,,,,,,2,,,60,0
170940,note_on,60,0,4,,,,,,,,3,,,60,0
170940,note_on,60,0,5,,,,,,,,4,,,48,0
170940,note_on,60,0,1,,,,,,,,0,,,60,0
171120,note_on,180,0,2,,,,,,,,1,,,60,64
171120,note_on,180,0,3,,,,,,,,2,,,60,64
171120,note_on,180,0,5,,,,,,,,4,,,48,64
171120,note_on,180,0,1,,,,,,,,0,,,60,64
171120,note_on,180,0,4,,,,,,,,3,,,60,64
171120,note_on,180,0,6,,,,,,,,5,,,48,64
171180,note_on,60,0,1,,,,,,,,0,,,60,0
171180,note_on,60,0,3,,,,,,,,2,,,60,0
171180,note_on,60,0,2,,,,,,,,1,,,60,0
171180,note_on,60,0,6,,,,,,,,5,,,48,0
171180,note_on,60,0,5,,,,,,,,4,,,48,0
171180,note_on,60,0,4,,,,,,,,3,,,60,0
171360,note_on,180,0,5,,,,,,,,4,,,48,64
171360,note_on,180,0,1,,,,,,,,0,,,60,64
171360,note_on,180,0,3,,,,,,,,2,,,60,64
171360,note_on,180,0,4,,,,,,,,3,,,60,64
171360,note_on,180,0,2,,,,,,,,1,,,60,64
171360,note_on,180,0,6,,,,,,,,5,,,48,64
171805,note_on,445,0,2,,,,,,,,1,,,60,0
171805,note_on,445,0,6,,,,,,,,5,,,48,0
171805,note_on,445,0,5,,,,,,,,4,,,48,0
171805,note_on,445,0,4,,,,,,,,3,,,60,0
171805,note_on,445,0,1,,,,,,,,0,,,60,0
171805,note_on,445,0,3,,,,,,,,2,,,60,0
171840,note_on,35,0,1,,,,,,,,0,,,68,65
171840,note_on,35,0,5,,,,,,,,4,,,56,65
171840,note_on,35,0,4,,,,,,,,3,,,68,65
171840,note_on,35,0,6,,,,,,,,5,,,56,65
171840,note_on,35,0,2,,,,,,,,1,,,68,65
171840,note_on,35,0,3,,,,,,,,2,,,68,65
171900,note_on,60,0,3,,,,,,,,2,,,68,0
171900,note_on,60,0,5,,,,,,,,4,,,56,0
171900,note_on,60,0,4,,,,,,,,3,,,68,0
171900,note_on,60,0,6,,,,,,,,5,,,56,0
171900,note_on,60,0,1,,,,,,,,0,,,68,0
171900,note_on,60,0,2,,,,,,,,1,,,68,0
172080,note_on,180,0,6,,,,,,,,5,,,48,49
172080,note_on,180,0,2,,,,,,,,1,,,60,49
172080,note_on,180,0,1,,,,,,,,0,,,60,49
172080,note_on,180,0,3,,,,,,,,2,,,60,49
172080,note_on,180,0,4,,,,,,,,3,,,60,49
172080,note_on,180,0,5,,,,,,,,4,,,48,49
172140,note_on,60,0,4,,,,,,,,3,,,60,0
172140,note_on,60,0,6,,,,,,,,5,,,48,0
172140,note_on,60,0,2,,,,,,,,1,,,60,0
172140,note_on,60,0,5,,,,,,,,4,,,48,0
172140,note_on,60,0,3,,,,,,,,2,,,60,0
172140,note_on,60,0,1,,,,,,,,0,,,60,0
172320,note_on,180,0,4,,,,,,,,3,,,60,49
172320,note_on,180,0,5,,,,,,,,4,,,48,49
172320,note_on,180,0,3,,,,,,,,2,,,60,49
172320,note_on,180,0,6,,,,,,,,5,,,48,49
172320,note_on,180,0,2,,,,,,,,1,,,60,49
172320,note_on,180,0,1,,,,,,,,0,,,60,49
172380,note_on,60,0,2,,,,,,,,1,,,60,0
172380,note_on,60,0,3,,,,,,,,2,,,60,0
172380,note_on,60,0,4,,,,,,,,3,,,60,0
172380,note_on,60,0,1,,,,,,,,0,,,60,0
172380,note_on,60,0,6,,,,,,,,5,,,48,0
172380,note_on,60,0,5,,,,,,,,4,,,48,0
172560,note_on,180,0,5,,,,,,,,4,,,48,49
172560,note_on,180,0,2,,,,,,,,1,,,60,49
172560,note_on,180,0,6,,,,,,,,5,,,48,49
172560,note_on,180,0,4,,,,,,,,3,,,60,49
172560,note_on,180,0,3,,,,,,,,2,,,60,49
172560,note_on,180,0,1,,,,,,,,0,,,60,49
172620,note_on,60,0,3,,,,,,,,2,,,60,0
172620,note_on,60,0,1,,,,,,,,0,,,60,0
172620,note_on,60,0,5,,,,,,,,4,,,48,0
172620,note_on,60,0,4,,,,,,,,3,,,60,0
172620,note_on,60,0,2,,,,,,,,1,,,60,0
172620,note_on,60,0,6,,,,,,,,5,,,48,0
172800,note_on,180,0,1,,,,,,,,0,,,60,49
172800,note_on,180,0,5,,,,,,,,4,,,48,49
172800,note_on,180,0,4,,,,,,,,3,,,60,49
172800,note_on,180,0,2,,,,,,,,1,,,60,49
172800,note_on,180,0,3,,,,,,,,2,,,60,49
172800,note_on,180,0,6,,,,,,,,5,,,48,49
173245,note_on,445,0,3,,,,,,,,2,,,60,0
173245,note_on,445,0,4,,,,,,,,3,,,60,0
173245,note_on,445,0,2,,,,,,,,1,,,60,0
173245,note_on,445,0,5,,,,,,,,4,,,48,0
173245,note_on,445,0,1,,,,,,,,0,,,60,0
173245,note_on,445,0,6,,,,,,,,5,,,48,0
173280,note_on,35,0,6,,,,,,,,5,,,55,50
173280,note_on,35,0,4,,,,,,,,3,,,67,50
173280,note_on,35,0,3,,,,,,,,2,,,67,50
173280,note_on,35,0,1,,,,,,,,0,,,67,50
173280,note_on,35,0,2,,,,,,,,1,,,67,50
173280,note_on,35,0,5,,,,,,,,4,,,55,50
173340,note_on,60,0,5,,,,,,,,4,,,55,0
173340,note_on,60,0,4,,,,,,,,3,,,67,0
173340,note_on,60,0,1,,,,,,,,0,,,67,0
173340,note_on,60,0,2,,,,,,,,1,,,67,0
173340,note_on,60,0,6,,,,,,,,5,,,55,0
173340,note_on,60,0,3,,,,,,,,2,,,67,0
173520,note_on,180,0,2,,,,,,,,1,,,60,34
173520,note_on,180,0,3,,,,,,,,2,,,60,34
173520,note_on,180,0,4,,,,,,,,3,,,60,34
173520,note_on,180,0,5,,,,,,,,4,,,48,34
173520,note_on,180,0,6,,,,,,,,5,,,48,34
173520,note_on,180,0,1,,,,,,,,0,,,60,34
173580,note_on,60,0,5,,,,,,,,4,,,48,0
173580,note_on,60,0,1,,,,,,,,0,,,60,0
173580,note_on,60,0,4,,,,,,,,3,,,60,0
173580,note_on,60,0,2,,,,,,,,1,,,60,0
173580,note_on,60,0,6,,,,,,,,5,,,48,0
173580,note_on,60,0,3,,,,,,,,2,,,60,0
173760,note_on,180,0,6,,,,,,,,5,,,48,34
173760,note_on,180,0,4,,,,,,,,3,,,60,34
173760,note_on,180,0,3,,,,,,,,2,,,60,34
173760,note_on,180,0,2,,,,,,,,1,,,60,34
173760,note_on,180,0,5,,,,,,,,4,,,48,34
173760,note_on,180,0,1,,,,,,,,0,,,60,34
173820,note_on,60,0,1,,,,,,,,0,,,60,0
173820,note_on,60,0,5,,,,,,,,4,,,48,0
173820,note_on,60,0,6,,,,,,,,5,,,48,0
173820,note_on,60,0,3,,,,,,,,2,,,60,0
173820,note_on,60,0,2,,,,,,,,1,,,60,0
173820,note_on,60,0,4,,,,,,,,3,,,60,0
174000,note_on,180,0,2,,,,,,,,1,,,60,34
174000,note_on,180,0,5,,,,,,,,4,,,48,34
174000,note_on,180,0,4,,,,,,,,3,,,60,34
174000,note_on,180,0,1,,,,,,,,0,,,60,34
174000,note_on,180,0,3,,,,,,,,2,,,60,34
174000,note_on,180,0,6,,,,,,,,5,,,48,34
174060,note_on,60,0,5,,,,,,,,4,,,48,0
174060,note_on,60,0,4,,,,,,,,3,,,60,0
174060,note_on,60,0,1,,,,,,,,0,,,60,0
174060,note_on,60,0,3,,,,,,,,2,,,60,0
174060,note_on,60,0,2,,,,,,,,1,,,60,0
174060,note_on,60,0,6,,,,,,,,5,,,48,0
174240,note_on,180,0,6,,,,,,,,5,,,50,34
174240,note_on,180,0,3,,,,,,,,2,,,66,65
174240,note_on,180,0,5,,,,,,,,4,,,50,34
174240,note_on,180,0,1,,,,,,,,0,,,66,50
174240,note_on,180,0,2,,,,,,,,1,,,66,50
174240,note_on,180,0,4,,,,,,,,3,,,62,49
174480,note_on,240,0,1,,,,,,,,0,,,66,0
174480,note_on,0,0,1,,,,,,,,0,,,62,34
174480,note_on,0,0,2,,,,,,,,1,,,62,49
174480,note_on,240,0,2,,,,,,,,1,,,66,0
174480,note_on,0,0,3,,,,,,,,2,,,62,49
174480,note_on,240,0,3,,,,,,,,2,,,66,0
174685,note_on,445,0,4,,,,,,,,3,,,62,0
174685,note_on,445,0,6,,,,,,,,5,,,50,0
174685,note_on,445,0,5,,,,,,,,4,,,50,0
174705,note_on,225,0,2,,,,,,,,1,,,62,0
174705,note_on,225,0,3,,,,,,,,2,,,62,0
174705,note_on,225,0,1,,,,,,,,0,,,62,0
174720,note_on,15,0,2,,,,,,,,1,,,67,65
174720,note_on,15,0,3,,,,,,,,2,,,67,65
174720,note_on,35,0,4,,,,,,,,3,,,62,49
174720,note_on,35,0,5,,,,,,,,4,,,50,64
174720,note_on,15,0,1,,,,,,,,0,,,67,65
174720,note_on,35,0,6,,,,,,,,5,,,50,64
174960,note_on,240,0,3,,,,,,,,2,,,67,0
174960,note_on,0,0,2,,,,,,,,1,,,62,64
174960,note_on,0,0,3,,,,,,,,2,,,62,49
174960,note_on,240,0,1,,,,,,,,0,,,67,0
174960,note_on,0,0,1,,,,,,,,0,,,62,49
174960,note_on,240,0,2,,,,,,,,1,,,67,0
175165,note_on,445,0,4,,,,,,,,3,,,62,0
175165,note_on,445,0,6,,,,,,,,5,,,50,0
175165,note_on,445,0,5,,,,,,,,4,,,50,0
175185,note_on,225,0,3,,,,,,,,2,,,62,0
175185,note_on,225,0,2,,,,,,,,1,,,62,0
175185,note_on,225,0,1,,,,,,,,0,,,62,0
175200,note_on,35,0,6,,,,,,,,5,,,50,85
175200,note_on,15,0,1,,,,,,,,0,,,69,80
175200,note_on,15,0,2,,,,,,,,1,,,69,80
175200,note_on,35,0,4,,,,,,,,3,,,62,49
175200,note_on,15,0,3,,,,,,,,2,,,69,65
175200,note_on,35,0,5,,,,,,,,4,,,50,85
175440,note_on,240,0,3,,,,,,,,2,,,69,0
175440,note_on,240,0,1,,,,,,,,0,,,69,0
175440,note_on,0,0,3,,,,,,,,2,,,62,64
175440,note_on,0,0,1,,,,,,,,0,,,62,64
175440,note_on,240,0,2,,,,,,,,1,,,69,0
175440,note_on,0,0,2,,,,,,,,1,,,62,64
175645,note_on,445,0,4,,,,,,,,3,,,62,0
175645,note_on,445,0,5,,,,,,,,4,,,50,0
175645,note_on,445,0,6,,,,,,,,5,,,50,0
175665,note_on,225,0,2,,,,,,,,1,,,62,0
175665,note_on,225,0,3,,,,,,,,2,,,62,0
175665,note_on,225,0,1,,,,,,,,0,,,62,0
175680,note_on,35,0,5,,,,,,,,4,,,55,85
175680,note_on,15,0,3,,,,,,,,2,,,70,80
175680,note_on,15,0,2,,,,,,,,1,,,70,101
175680,note_on,35,0,4,,,,,,,,3,,,67,85
175680,note_on,35,0,6,,,,,,,,5,,,55,85
175680,note_on,15,0,1,,,,,,,,0,,,70,80
175740,note_on,60,0,3,,,,,,,,2,,,70,0
175740,note_on,60,0,2,,,,,,,,1,,,70,0
175740,note_on,60,0,1,,,,,,,,0,,,70,0
175800,note_on,120,0,6,,,,,,,,5,,,55,0
175800,note_on,120,0,5,,,,,,,,4,,,55,0
175800,note_on,120,0,4,,,,,,,,3,,,67,0
175920,note_on,180,0,3,,,,,,,,2,,,67,64
175920,note_on,180,0,2,,,,,,,,1,,,67,85
175920,note_on,180,0,1,,,,,,,,0,,,67,85
175980,note_on,60,0,2,,,,,,,,1,,,67,0
175980,note_on,60,0,1,,,,,,,,0,,,67,0
175980,note_on,60,0,3,,,,,,,,2,,,67,0
176160,note_on,180,0,3,,,,,,,,2,,,74,64
176160,note_on,360,0,5,,,,,,,,4,,,62,85
176160,note_on,180,0,1,,,,,,,,0,,,74,85
176160,note_on,360,0,4,,,,,,,,3,,,74,85
176160,note_on,360,0,6,,,,,,,,5,,,62,85
176160,note_on,180,0,2,,,,,,,,1,,,74,85
176605,note_on,445,0,6,,,,,,,,5,,,62,0
176605,note_on,445,0,1,,,,,,,,0,,,74,0
176605,note_on,445,0,3,,,,,,,,2,,,74,0
176605,note_on,445,0,5,,,,,,,,4,,,62,0
176605,note_on,445,0,2,,,,,,,,1,,,74,0
176605,note_on,445,0,4,,,,,,,,3,,,74,0
176640,note_on,35,0,4,,,,,,,,3,,,62,85
176640,note_on,35,0,5,,,,,,,,4,,,50,85
176640,note_on,35,0,3,,,,,,,,2,,,62,64
176640,note_on,35,0,6,,,,,,,,5,,,50,85
176640,note_on,35,0,2,,,,,,,,1,,,62,85
176640,note_on,35,0,1,,,,,,,,0,,,62,85
177085,note_on,445,0,3,,,,,,,,2,,,62,0
177085,note_on,445,0,4,,,,,,,,3,,,62,0
177085,note_on,445,0,2,,,,,,,,1,,,62,0
177085,note_on,445,0,5,,,,,,,,4,,,50,0
177085,note_on,445,0,1,,,,,,,,0,,,62,0
177085,note_on,445,0,6,,,,,,,,5,,,50,0
177120,note_on,35,0,6,,,,,,,,5,,,55,85
177120,note_on,35,0,5,,,,,,,,4,,,55,85
177120,note_on,35,0,1,,,,,,,,0,,,79,106
177120,note_on,0,0,1,,,,,,,,0,,,74,106
177235,note_on,115,0,1,,,,,,,,0,,,74,0
177240,note_on,5,0,1,,,,,,,,0,,,70,106
177345,note_on,105,0,1,,,,,,,,0,,,79,0
177355,note_on,10,0,1,,,,,,,,0,,,70,0
177360,note_on,5,0,1,,,,,,,,0,,,79,106
177360,note_on,0,0,1,,,,,,,,0,,,74,106
177475,note_on,115,0,1,,,,,,,,0,,,74,0
177480,note_on,5,0,1,,,,,,,,0,,,70,106
177565,note_on,445,0,5,,,,,,,,4,,,55,0
177565,note_on,445,0,6,,,,,,,,5,,,55,0
177585,note_on,105,0,1,,,,,,,,0,,,79,0
177595,note_on,10,0,1,,,,,,,,0,,,70,0
177600,note_on,5,0,1,,,,,,,,0,,,79,106
177600,note_on,0,0,1,,,,,,,,0,,,74,106
177715,note_on,115,0,1,,,,,,,,0,,,74,0
177720,note_on,5,0,1,,,,,,,,0,,,70,106
177825,note_on,105,0,1,,,,,,,,0,,,79,0
177835,note_on,10,0,1,,,,,,,,0,,,70,0
177840,note_on,5,0,1,,,,,,,,0,,,79,106
177840,note_on,0,0,1,,,,,,,,0,,,74,106
177955,note_on,115,0,1,,,,,,,,0,,,74,0
177960,note_on,5,0,1,,,,,,,,0,,,70,106
178065,note_on,105,0,1,,,,,,,,0,,,79,0
178075,note_on,10,0,1,,,,,,,,0,,,70,0
178080,note_on,5,0,1,,,,,,,,0,,,79,106
178080,note_on,0,0,1,,,,,,,,0,,,74,106
178195,note_on,115,0,1,,,,,,,,0,,,74,0
178200,note_on,5,0,1,,,,,,,,0,,,70,106
178305,note_on,105,0,1,,,,,,,,0,,,79,0
178315,note_on,10,0,1,,,,,,,,0,,,70,0
178320,note_on,5,0,1,,,,,,,,0,,,79,106
178320,note_on,0,0,1,,,,,,,,0,,,74,106
178435,note_on,115,0,1,,,,,,,,0,,,74,0
178440,note_on,5,0,1,,,,,,,,0,,,70,106
178545,note_on,105,0,1,,,,,,,,0,,,79,0
178555,note_on,10,0,1,,,,,,,,0,,,70,0
178560,note_on,0,0,1,,,,,,,,0,,,67,64
178560,note_on,5,0,1,,,,,,,,0,,,70,64
178560,note_on,995,0,5,,,,,,,,4,,,55,85
178560,note_on,995,0,6,,,,,,,,5,,,55,85
178620,note_on,0,0,1,,,,,,,,0,,,70,0
178620,note_on,60,0,1,,,,,,,,0,,,67,0
178800,note_on,180,0,1,,,,,,,,0,,,70,64
178800,note_on,0,0,1,,,,,,,,0,,,62,64
178860,note_on,0,0,1,,,,,,,,0,,,70,0
178860,note_on,60,0,1,,,,,,,,0,,,62,0
179005,note_on,445,0,5,,,,,,,,4,,,55,0
179005,note_on,445,0,6,,,,,,,,5,,,55,0
179040,note_on,180,0,1,,,,,,,,0,,,70,64
179040,note_on,0,0,1,,,,,,,,0,,,67,64
179100,note_on,0,0,1,,,,,,,,0,,,70,0
179100,note_on,60,0,1,,,,,,,,0,,,67,0
179280,note_on,180,0,1,,,,,,,,0,,,70,64
179280,note_on,0,0,1,,,,,,,,0,,,62,64
179340,note_on,60,0,1,,,,,,,,0,,,62,0
179340,note_on,0,0,1,,,,,,,,0,,,70,0
179520,note_on,180,0,1,,,,,,,,0,,,70,64
179520,note_on,0,0,1,,,,,,,,0,,,67,64
179580,note_on,0,0,1,,,,,,,,0,,,70,0
179580,note_on,60,0,1,,,,,,,,0,,,67,0
179760,note_on,180,0,1,,,,,,,,0,,,70,64
179760,note_on,0,0,1,,,,,,,,0,,,62,64
179820,note_on,60,0,1,,,,,,,,0,,,62,0
179820,note_on,0,0,1,,,,,,,,0,,,70,0
180000,note_on,995,0,5,,,,,,,,4,,,55,85
180000,note_on,180,0,1,,,,,,,,0,,,79,106
180000,note_on,0,0,1,,,,,,,,0,,,74,106
180000,note_on,995,0,6,,,,,,,,5,,,55,85
180115,note_on,115,0,1,,,,,,,,0,,,74,0
180120,note_on,5,0,1,,,,,,,,0,,,70,106
180225,note_on,105,0,1,,,,,,,,0,,,79,0
180235,note_on,10,0,1,,,,,,,,0,,,70,0
180240,note_on,5,0,1,,,,,,,,0,,,79,106
180240,note_on,0,0,1,,,,,,,,0,,,74,106
180355,note_on,115,0,1,,,,,,,,0,,,74,0
180360,note_on,5,0,1,,,,,,,,0,,,70,106
180445,note_on,445,0,5,,,,,,,,4,,,55,0
180445,note_on,445,0,6,,,,,,,,5,,,55,0
180465,note_on,105,0,1,,,,,,,,0,,,79,0
180475,note_on,10,0,1,,,,,,,,0,,,70,0
180480,note_on,5,0,1,,,,,,,,0,,,79,106
180480,note_on,0,0,1,,,,,,,,0,,,74,106
180595,note_on,115,0,1,,,,,,,,0,,,74,0
180600,note_on,5,0,1,,,,,,,,0,,,70,106
180705,note_on,105,0,1,,,,,,,,0,,,79,0
180715,note_on,10,0,1,,,,,,,,0,,,70,0
180720,note_on,0,0,1,,,,,,,,0,,,74,106
180720,note_on,5,0,1,,,,,,,,0,,,79,106
180835,note_on,115,0,1,,,,,,,,0,,,74,0
180840,note_on,5,0,1,,,,,,,,0,,,70,106
180945,note_on,105,0,1,,,,,,,,0,,,79,0
180955,note_on,10,0,1,,,,,,,,0,,,70,0
180960,note_on,5,0,1,,,,,,,,0,,,79,106
180960,note_on,0,0,1,,,,,,,,0,,,74,106
181075,note_on,115,0,1,,,,,,,,0,,,74,0
181080,note_on,5,0,1,,,,,,,,0,,,70,106
181185,note_on,105,0,1,,,,,,,,0,,,79,0
181195,note_on,10,0,1,,,,,,,,0,,,70,0
181200,note_on,0,0,1,,,,,,,,0,,,74,106
181200,note_on,5,0,1,,,,,,,,0,,,79,106
181315,note_on,115,0,1,,,,,,,,0,,,74,0
181320,note_on,5,0,1,,,,,,,,0,,,70,106
181425,note_on,105,0,1,,,,,,,,0,,,79,0
181435,note_on,10,0,1,,,,,,,,0,,,70,0
181440,note_on,0,0,1,,,,,,,,0,,,67,64
181440,note_on,5,0,1,,,,,,,,0,,,70,64
181440,note_on,995,0,6,,,,,,,,5,,,55,85
181440,note_on,995,0,5,,,,,,,,4,,,55,85
181500,note_on,60,0,1,,,,,,,,0,,,67,0
181500,note_on,0,0,1,,,,,,,,0,,,70,0
181680,note_on,0,0,1,,,,,,,,0,,,62,64
181680,note_on,180,0,1,,,,,,,,0,,,70,64
181740,note_on,0,0,1,,,,,,,,0,,,70,0
181740,note_on,60,0,1,,,,,,,,0,,,62,0
181885,note_on,445,0,6,,,,,,,,5,,,55,0
181885,note_on,445,0,5,,,,,,,,4,,,55,0
181920,note_on,0,0,1,,,,,,,,0,,,67,64
181920,note_on,180,0,1,,,,,,,,0,,,70,64
181980,note_on,0,0,1,,,,,,,,0,,,70,0
181980,note_on,60,0,1,,,,,,,,0,,,67,0
182160,note_on,0,0,1,,,,,,,,0,,,62,64
182160,note_on,180,0,1,,,,,,,,0,,,70,64
182220,note_on,60,0,1,,,,,,,,0,,,62,0
182220,note_on,0,0,1,,,,,,,,0,,,70,0
182400,note_on,0,0,1,,,,,,,,0,,,67,64
182400,note_on,180,0,1,,,,,,,,0,,,70,64
182460,note_on,0,0,1,,,,,,,,0,,,70,0
182460,note_on,60,0,1,,,,,,,,0,,,67,0
182640,note_on,180,0,1,,,,,,,,0,,,70,64
182640,note_on,0,0,1,,,,,,,,0,,,62,64
182700,note_on,0,0,1,,,,,,,,0,,,70,0
182700,note_on,60,0,1,,,,,,,,0,,,62,0
182880,note_on,995,0,5,,,,,,,,4,,,55,85
182880,note_on,995,0,6,,,,,,,,5,,,55,85
182880,note_on,180,0,1,,,,,,,,0,,,79,106
182995,note_on,115,0,1,,,,,,,,0,,,79,0
183000,note_on,5,0,1,,,,,,,,0,,,82,106
183115,note_on,115,0,1,,,,,,,,0,,,82,0
183120,note_on,5,0,1,,,,,,,,0,,,81,106
183235,note_on,115,0,1,,,,,,,,0,,,81,0
183240,note_on,5,0,1,,,,,,,,0,,,82,106
183325,note_on,445,0,5,,,,,,,,4,,,55,0
183325,note_on,445,0,6,,,,,,,,5,,,55,0
183355,note_on,115,0,1,,,,,,,,0,,,82,0
183360,note_on,5,0,1,,,,,,,,0,,,79,106
183475,note_on,115,0,1,,,,,,,,0,,,79,0
183480,note_on,5,0,1,,,,,,,,0,,,82,106
183595,note_on,115,0,1,,,,,,,,0,,,82,0
183600,note_on,5,0,1,,,,,,,,0,,,81,106
183715,note_on,115,0,1,,,,,,,,0,,,81,0
183720,note_on,5,0,1,,,,,,,,0,,,82,106
183835,note_on,115,0,1,,,,,,,,0,,,82,0
183840,note_on,5,0,1,,,,,,,,0,,,79,106
183955,note_on,115,0,1,,,,,,,,0,,,79,0
183960,note_on,5,0,1,,,,,,,,0,,,82,106
184075,note_on,115,0,1,,,,,,,,0,,,82,0
184080,note_on,5,0,1,,,,,,,,0,,,81,106
184195,note_on,115,0,1,,,,,,,,0,,,81,0
184200,note_on,5,0,1,,,,,,,,0,,,79,106
184315,note_on,115,0,1,,,,,,,,0,,,79,0
184320,note_on,5,0,1,,,,,,,,0,,,81,106
184320,note_on,995,0,6,,,,,,,,5,,,50,85
184320,note_on,995,0,5,,,,,,,,4,,,50,85
184380,note_on,60,0,1,,,,,,,,0,,,81,0
184560,note_on,180,0,1,,,,,,,,0,,,78,106
184620,note_on,60,0,1,,,,,,,,0,,,78,0
184765,note_on,445,0,5,,,,,,,,4,,,50,0
184765,note_on,445,0,6,,,,,,,,5,,,50,0
184800,note_on,35,0,6,,,,,,,,5,,,62,101
184800,note_on,180,0,1,,,,,,,,0,,,74,106
184800,note_on,35,0,5,,,,,,,,4,,,62,101
184860,note_on,60,0,5,,,,,,,,4,,,62,0
184860,note_on,60,0,6,,,,,,,,5,,,62,0
185040,note_on,180,0,5,,,,,,,,4,,,50,85
185040,note_on,180,0,6,,,,,,,,5,,,50,85
185100,note_on,60,0,5,,,,,,,,4,,,50,0
185100,note_on,60,0,6,,,,,,,,5,,,50,0
185245,note_on,445,0,1,,,,,,,,0,,,74,0
185280,note_on,180,0,6,,,,,,,,5,,,50,85
185280,note_on,180,0,5,,,,,,,,4,,,50,85
185340,note_on,60,0,5,,,,,,,,4,,,50,0
185340,note_on,60,0,6,,,,,,,,5,,,50,0
185520,note_on,180,0,5,,,,,,,,4,,,50,85
185520,note_on,180,0,6,,,,,,,,5,,,50,85
185580,note_on,60,0,6,,,,,,,,5,,,50,0
185580,note_on,60,0,5,,,,,,,,4,,,50,0
185760,note_on,180,0,6,,,,,,,,5,,,50,85
185760,note_on,180,0,5,,,,,,,,4,,,50,85
185760,note_on,515,0,1,,,,,,,,0,,,82,106
185875,note_on,115,0,1,,,,,,,,0,,,82,0
185880,note_on,5,0,1,,,,,,,,0,,,81,106
185995,note_on,115,0,1,,,,,,,,0,,,81,0
186000,note_on,5,0,1,,,,,,,,0,,,79,106
186115,note_on,115,0,1,,,,,,,,0,,,79,0
186120,note_on,5,0,1,,,,,,,,0,,,77,106
186205,note_on,445,0,5,,,,,,,,4,,,50,0
186205,note_on,445,0,6,,,,,,,,5,,,50,0
186235,note_on,115,0,1,,,,,,,,0,,,77,0
186240,note_on,5,0,1,,,,,,,,0,,,82,106
186355,note_on,115,0,1,,,,,,,,0,,,82,0
186360,note_on,5,0,1,,,,,,,,0,,,81,106
186475,note_on,115,0,1,,,,,,,,0,,,81,0
186480,note_on,5,0,1,,,,,,,,0,,,79,106
186595,note_on,115,0,1,,,,,,,,0,,,79,0
186600,note_on,5,0,1,,,,,,,,0,,,77,106
186715,note_on,115,0,1,,,,,,,,0,,,77,0
186720,note_on,5,0,1,,,,,,,,0,,,82,106
186835,note_on,115,0,1,,,,,,,,0,,,82,0
186840,note_on,5,0,1,,,,,,,,0,,,81,106
186955,note_on,115,0,1,,,,,,,,0,,,81,0
186960,note_on,5,0,1,,,,,,,,0,,,79,106
187075,note_on,115,0,1,,,,,,,,0,,,79,0
187080,note_on,5,0,1,,,,,,,,0,,,77,106
187195,note_on,115,0,1,,,,,,,,0,,,77,0
187200,note_on,995,0,5,,,,,,,,4,,,51,64
187200,note_on,995,0,6,,,,,,,,5,,,51,64
187200,note_on,10115,0,3,,,,,,,,2,,,63,49
187200,note_on,10115,0,2,,,,,,,,1,,,63,49
187200,note_on,5,0,1,,,,,,,,0,,,79,64
187200,note_on,10115,0,4,,,,,,,,3,,,63,64
187645,note_on,445,0,5,,,,,,,,4,,,51,0
187645,note_on,445,0,1,,,,,,,,0,,,79,0
187645,note_on,445,0,3,,,,,,,,2,,,63,0
187645,note_on,445,0,4,,,,,,,,3,,,63,0
187645,note_on,445,0,2,,,,,,,,1,,,63,0
187645,note_on,445,0,6,,,,,,,,5,,,51,0
187680,note_on,35,0,2,,,,,,,,1,,,75,65
187680,note_on,35,0,4,,,,,,,,3,,,63,80
187680,note_on,35,0,1,,,,,,,,0,,,75,80
187680,note_on,35,0,3,,,,,,,,2,,,75,65
187680,note_on,35,0,5,,,,,,,,4,,,63,80
187680,note_on,35,0,6,,,,,,,,5,,,63,80
187740,note_on,60,0,4,,,,,,,,3,,,63,0
187740,note_on,60,0,6,,,,,,,,5,,,63,0
187740,note_on,60,0,1,,,,,,,,0,,,75,0
187740,note_on,60,0,2,,,,,,,,1,,,75,0
187740,note_on,60,0,5,,,,,,,,4,,,63,0
187740,note_on,60,0,3,,,,,,,,2,,,75,0
187920,note_on,180,0,6,,,,,,,,5,,,51,64
187920,note_on,180,0,4,,,,,,,,3,,,63,64
187920,note_on,180,0,1,,,,,,,,0,,,63,64
187920,note_on,180,0,3,,,,,,,,2,,,63,49
187920,note_on,180,0,2,,,,,,,,1,,,63,49
187920,note_on,180,0,5,,,,,,,,4,,,51,64
187980,note_on,60,0,6,,,,,,,,5,,,51,0
187980,note_on,60,0,1,,,,,,,,0,,,63,0
187980,note_on,60,0,2,,,,,,,,1,,,63,0
187980,note_on,60,0,3,,,,,,,,2,,,63,0
187980,note_on,60,0,4,,,,,,,,3,,,63,0
187980,note_on,60,0,5,,,,,,,,4,,,51,0
188160,note_on,180,0,3,,,,,,,,2,,,63,49
188160,note_on,180,0,5,,,,,,,,4,,,51,64
188160,note_on,180,0,6,,,,,,,,5,,,51,64
188160,note_on,180,0,1,,,,,,,,0,,,63,64
188160,note_on,180,0,4,,,,,,,,3,,,63,64
188160,note_on,180,0,2,,,,,,,,1,,,63,49
188220,note_on,60,0,6,,,,,,,,5,,,51,0
188220,note_on,60,0,4,,,,,,,,3,,,63,0
188220,note_on,60,0,1,,,,,,,,0,,,63,0
188220,note_on,60,0,2,,,,,,,,1,,,63,0
188220,note_on,60,0,5,,,,,,,,4,,,51,0
188220,note_on,60,0,3,,,,,,,,2,,,63,0
188400,note_on,180,0,4,,,,,,,,3,,,63,64
188400,note_on,180,0,6,,,,,,,,5,,,51,64
188400,note_on,180,0,3,,,,,,,,2,,,63,49
188400,note_on,180,0,5,,,,,,,,4,,,51,64
188400,note_on,180,0,1,,,,,,,,0,,,63,64
188400,note_on,180,0,2,,,,,,,,1,,,63,49
188460,note_on,60,0,2,,,,,,,,1,,,63,0
188460,note_on,60,0,4,,,,,,,,3,,,63,0
188460,note_on,60,0,6,,,,,,,,5,,,51,0
188460,note_on,60,0,3,,,,,,,,2,,,63,0
188460,note_on,60,0,1,,,,,,,,0,,,63,0
188460,note_on,60,0,5,,,,,,,,4,,,51,0
188640,note_on,180,0,6,,,,,,,,5,,,52,64
188640,note_on,180,0,5,,,,,,,,4,,,52,64
188640,note_on,180,0,2,,,,,,,,1,,,64,49
188640,note_on,180,0,3,,,,,,,,2,,,64,49
188640,note_on,180,0,4,,,,,,,,3,,,64,64
188640,note_on,180,0,1,,,,,,,,0,,,84,106
188755,note_on,115,0,1,,,,,,,,0,,,84,0
188760,note_on,5,0,1,,,,,,,,0,,,82,106
188875,note_on,115,0,1,,,,,,,,0,,,82,0
188880,note_on,5,0,1,,,,,,,,0,,,81,106
188995,note_on,115,0,1,,,,,,,,0,,,81,0
189000,note_on,5,0,1,,,,,,,,0,,,79,106
189085,note_on,445,0,5,,,,,,,,4,,,52,0
189085,note_on,445,0,6,,,,,,,,5,,,52,0
189085,note_on,445,0,2,,,,,,,,1,,,64,0
189085,note_on,445,0,3,,,,,,,,2,,,64,0
189085,note_on,445,0,4,,,,,,,,3,,,64,0
189115,note_on,115,0,1,,,,,,,,0,,,79,0
189120,note_on,5,0,1,,,,,,,,0,,,84,106
189235,note_on,115,0,1,,,,,,,,0,,,84,0
189240,note_on,5,0,1,,,,,,,,0,,,82,106
189355,note_on,115,0,1,,,,,,,,0,,,82,0
189360,note_on,5,0,1,,,,,,,,0,,,81,106
189475,note_on,115,0,1,,,,,,,,0,,,81,0
189480,note_on,5,0,1,,,,,,,,0,,,79,106
189595,note_on,115,0,1,,,,,,,,0,,,79,0
189600,note_on,5,0,1,,,,,,,,0,,,84,106
189715,note_on,115,0,1,,,,,,,,0,,,84,0
189720,note_on,5,0,1,,,,,,,,0,,,82,106
189835,note_on,115,0,1,,,,,,,,0,,,82,0
189840,note_on,5,0,1,,,,,,,,0,,,81,106
189955,note_on,115,0,1,,,,,,,,0,,,81,0
189960,note_on,5,0,1,,,,,,,,0,,,79,106
190075,note_on,115,0,1,,,,,,,,0,,,79,0
190080,note_on,995,0,6,,,,,,,,5,,,53,64
190080,note_on,995,0,4,,,,,,,,3,,,65,64
190080,note_on,995,0,2,,,,,,,,1,,,65,49
190080,note_on,995,0,5,,,,,,,,4,,,53,64
190080,note_on,5,0,1,,,,,,,,0,,,81,106
190080,note_on,995,0,3,,,,,,,,2,,,65,49
190525,note_on,445,0,5,,,,,,,,4,,,53,0
190525,note_on,445,0,6,,,,,,,,5,,,53,0
190525,note_on,445,0,3,,,,,,,,2,,,65,0
190525,note_on,445,0,2,,,,,,,,1,,,65,0
190525,note_on,445,0,1,,,,,,,,0,,,81,0
190525,note_on,445,0,4,,,,,,,,3,,,65,0
190560,note_on,35,0,5,,,,,,,,4,,,65,80
190560,note_on,35,0,2,,,,,,,,1,,,77,65
190560,note_on,35,0,4,,,,,,,,3,,,65,80
190560,note_on,35,0,1,,,,,,,,0,,,77,80
190560,note_on,35,0,3,,,,,,,,2,,,77,65
190560,note_on,35,0,6,,,,,,,,5,,,65,80
190620,note_on,60,0,3,,,,,,,,2,,,77,0
190620,note_on,60,0,1,,,,,,,,0,,,77,0
190620,note_on,60,0,5,,,,,,,,4,,,65,0
190620,note_on,60,0,2,,,,,,,,1,,,77,0
190620,note_on,60,0,4,,,,,,,,3,,,65,0
190620,note_on,60,0,6,,,,,,,,5,,,65,0
190800,note_on,180,0,1,,,,,,,,0,,,65,64
190800,note_on,180,0,4,,,,,,,,3,,,65,64
190800,note_on,180,0,3,,,,,,,,2,,,65,49
190800,note_on,180,0,5,,,,,,,,4,,,53,64
190800,note_on,180,0,2,,,,,,,,1,,,65,49
190800,note_on,180,0,6,,,,,,,,5,,,53,64
190860,note_on,60,0,5,,,,,,,,4,,,53,0
190860,note_on,60,0,2,,,,,,,,1,,,65,0
190860,note_on,60,0,3,,,,,,,,2,,,65,0
190860,note_on,60,0,4,,,,,,,,3,,,65,0
190860,note_on,60,0,6,,,,,,,,5,,,53,0
190860,note_on,60,0,1,,,,,,,,0,,,65,0
191040,note_on,180,0,4,,,,,,,,3,,,65,64
191040,note_on,180,0,5,,,,,,,,4,,,53,64
191040,note_on,180,0,2,,,,,,,,1,,,65,49
191040,note_on,180,0,3,,,,,,,,2,,,65,49
191040,note_on,180,0,1,,,,,,,,0,,,65,64
191040,note_on,180,0,6,,,,,,,,5,,,53,64
191100,note_on,60,0,1,,,,,,,,0,,,65,0
191100,note_on,60,0,4,,,,,,,,3,,,65,0
191100,note_on,60,0,5,,,,,,,,4,,,53,0
191100,note_on,60,0,2,,,,,,,,1,,,65,0
191100,note_on,60,0,3,,,,,,,,2,,,65,0
191100,note_on,60,0,6,,,,,,,,5,,,53,0
191280,note_on,180,0,5,,,,,,,,4,,,53,64
191280,note_on,180,0,2,,,,,,,,1,,,65,49
191280,note_on,180,0,3,,,,,,,,2,,,65,49
191280,note_on,180,0,1,,,,,,,,0,,,65,64
191280,note_on,180,0,4,,,,,,,,3,,,65,64
191280,note_on,180,0,6,,,,,,,,5,,,53,64
191340,note_on,60,0,5,,,,,,,,4,,,53,0
191340,note_on,60,0,2,,,,,,,,1,,,65,0
191340,note_on,60,0,6,,,,,,,,5,,,53,0
191340,note_on,60,0,4,,,,,,,,3,,,65,0
191340,note_on,60,0,1,,,,,,,,0,,,65,0
191340,note_on,60,0,3,,,,,,,,2,,,65,0
191520,note_on,180,0,6,,,,,,,,5,,,54,64
191520,note_on,180,0,1,,,,,,,,0,,,86,106
191520,note_on,180,0,5,,,,,,,,4,,,54,64
191520,note_on,180,0,4,,,,,,,,3,,,66,64
191520,note_on,180,0,3,,,,,,,,2,,,66,49
191520,note_on,180,0,2,,,,,,,,1,,,66,49
191635,note_on,115,0,1,,,,,,,,0,,,86,0
191640,note_on,5,0,1,,,,,,,,0,,,84,106
191755,note_on,115,0,1,,,,,,,,0,,,84,0
191760,note_on,5,0,1,,,,,,,,0,,,82,106
191875,note_on,115,0,1,,,,,,,,0,,,82,0
191880,note_on,5,0,1,,,,,,,,0,,,81,106
191965,note_on,445,0,3,,,,,,,,2,,,66,0
191965,note_on,445,0,5,,,,,,,,4,,,54,0
191965,note_on,445,0,4,,,,,,,,3,,,66,0
191965,note_on,445,0,6,,,,,,,,5,,,54,0
191965,note_on,445,0,2,,,,,,,,1,,,66,0
191995,note_on,115,0,1,,,,,,,,0,,,81,0
192000,note_on,5,0,1,,,,,,,,0,,,86,106
192115,note_on,115,0,1,,,,,,,,0,,,86,0
192120,note_on,5,0,1,,,,,,,,0,,,84,106
192235,note_on,115,0,1,,,,,,,,0,,,84,0
192240,note_on,5,0,1,,,,,,,,0,,,82,106
192355,note_on,115,0,1,,,,,,,,0,,,82,0
192360,note_on,5,0,1,,,,,,,,0,,,81,106
192475,note_on,115,0,1,,,,,,,,0,,,81,0
192480,note_on,5,0,1,,,,,,,,0,,,86,106
192595,note_on,115,0,1,,,,,,,,0,,,86,0
192600,note_on,5,0,1,,,,,,,,0,,,84,106
192715,note_on,115,0,1,,,,,,,,0,,,84,0
192720,note_on,5,0,1,,,,,,,,0,,,82,106
192835,note_on,115,0,1,,,,,,,,0,,,82,0
192840,note_on,5,0,1,,,,,,,,0,,,81,106
192955,note_on,115,0,1,,,,,,,,0,,,81,0
192960,note_on,995,0,6,,,,,,,,5,,,55,64
192960,note_on,995,0,4,,,,,,,,3,,,67,64
192960,note_on,995,0,5,,,,,,,,4,,,55,64
192960,note_on,995,0,2,,,,,,,,1,,,67,49
192960,note_on,995,0,3,,,,,,,,2,,,67,49
192960,note_on,5,0,1,,,,,,,,0,,,82,106
193405,note_on,445,0,5,,,,,,,,4,,,55,0
193405,note_on,445,0,4,,,,,,,,3,,,67,0
193405,note_on,445,0,2,,,,,,,,1,,,67,0
193405,note_on,445,0,1,,,,,,,,0,,,82,0
193405,note_on,445,0,3,,,,,,,,2,,,67,0
193405,note_on,445,0,6,,,,,,,,5,,,55,0
193440,note_on,35,0,4,,,,,,,,3,,,67,80
193440,note_on,35,0,3,,,,,,,,2,,,79,65
193440,note_on,35,0,6,,,,,,,,5,,,67,80
193440,note_on,35,0,5,,,,,,,,4,,,67,80
193440,note_on,35,0,2,,,,,,,,1,,,79,65
193440,note_on,35,0,1,,,,,,,,0,,,79,80
193500,note_on,60,0,2,,,,,,,,1,,,79,0
193500,note_on,60,0,1,,,,,,,,0,,,79,0
193500,note_on,60,0,3,,,,,,,,2,,,79,0
193500,note_on,60,0,5,,,,,,,,4,,,67,0
193500,note_on,60,0,4,,,,,,,,3,,,67,0
193500,note_on,60,0,6,,,,,,,,5,,,67,0
193680,note_on,180,0,5,,,,,,,,4,,,55,64
193680,note_on,180,0,2,,,,,,,,1,,,67,49
193680,note_on,180,0,6,,,,,,,,5,,,55,64
193680,note_on,180,0,3,,,,,,,,2,,,67,49
193680,note_on,180,0,4,,,,,,,,3,,,67,64
193680,note_on,180,0,1,,,,,,,,0,,,67,64
193740,note_on,60,0,1,,,,,,,,0,,,67,0
193740,note_on,60,0,4,,,,,,,,3,,,67,0
193740,note_on,60,0,3,,,,,,,,2,,,67,0
193740,note_on,60,0,5,,,,,,,,4,,,55,0
193740,note_on,60,0,2,,,,,,,,1,,,67,0
193740,note_on,60,0,6,,,,,,,,5,,,55,0
193920,note_on,180,0,4,,,,,,,,3,,,67,64
193920,note_on,180,0,6,,,,,,,,5,,,55,64
193920,note_on,180,0,2,,,,,,,,1,,,67,49
193920,note_on,180,0,3,,,,,,,,2,,,67,49
193920,note_on,180,0,1,,,,,,,,0,,,67,64
193920,note_on,180,0,5,,,,,,,,4,,,55,64
193980,note_on,60,0,1,,,,,,,,0,,,67,0
193980,note_on,60,0,5,,,,,,,,4,,,55,0
193980,note_on,60,0,2,,,,,,,,1,,,67,0
193980,note_on,60,0,6,,,,,,,,5,,,55,0
193980,note_on,60,0,4,,,,,,,,3,,,67,0
193980,note_on,60,0,3,,,,,,,,2,,,67,0
194160,note_on,180,0,2,,,,,,,,1,,,67,49
194160,note_on,180,0,6,,,,,,,,5,,,55,64
194160,note_on,180,0,3,,,,,,,,2,,,67,49
194160,note_on,180,0,1,,,,,,,,0,,,67,64
194160,note_on,180,0,4,,,,,,,,3,,,67,64
194160,note_on,180,0,5,,,,,,,,4,,,55,64
194220,note_on,60,0,6,,,,,,,,5,,,55,0
194220,note_on,60,0,1,,,,,,,,0,,,67,0
194220,note_on,60,0,2,,,,,,,,1,,,67,0
194220,note_on,60,0,3,,,,,,,,2,,,67,0
194220,note_on,60,0,4,,,,,,,,3,,,67,0
194220,note_on,60,0,5,,,,,,,,4,,,55,0
194400,note_on,180,0,5,,,,,,,,4,,,55,64
194400,note_on,180,0,2,,,,,,,,1,,,67,49
194400,note_on,180,0,1,,,,,,,,0,,,87,106
194400,note_on,180,0,3,,,,,,,,2,,,67,49
194400,note_on,180,0,4,,,,,,,,3,,,67,64
194400,note_on,180,0,6,,,,,,,,5,,,55,64
194515,note_on,115,0,1,,,,,,,,0,,,87,0
194520,note_on,5,0,1,,,,,,,,0,,,86,106
194635,note_on,115,0,1,,,,,,,,0,,,86,0
194640,note_on,5,0,1,,,,,,,,0,,,84,106
194755,note_on,115,0,1,,,,,,,,0,,,84,0
194760,note_on,5,0,1,,,,,,,,0,,,82,106
194845,note_on,445,0,3,,,,,,,,2,,,67,0
194845,note_on,445,0,6,,,,,,,,5,,,55,0
194845,note_on,445,0,5,,,,,,,,4,,,55,0
194845,note_on,445,0,2,,,,,,,,1,,,67,0
194845,note_on,445,0,4,,,,,,,,3,,,67,0
194875,note_on,115,0,1,,,,,,,,0,,,82,0
194880,note_on,5,0,1,,,,,,,,0,,,87,106
194995,note_on,115,0,1,,,,,,,,0,,,87,0
195000,note_on,5,0,1,,,,,,,,0,,,86,106
195115,note_on,115,0,1,,,,,,,,0,,,86,0
195120,note_on,5,0,1,,,,,,,,0,,,84,106
195235,note_on,115,0,1,,,,,,,,0,,,84,0
195240,note_on,5,0,1,,,,,,,,0,,,82,106
195355,note_on,115,0,1,,,,,,,,0,,,82,0
195360,note_on,5,0,1,,,,,,,,0,,,87,106
195475,note_on,115,0,1,,,,,,,,0,,,87,0
195480,note_on,5,0,1,,,,,,,,0,,,86,106
195595,note_on,115,0,1,,,,,,,,0,,,86,0
195600,note_on,5,0,1,,,,,,,,0,,,84,106
195715,note_on,115,0,1,,,,,,,,0,,,84,0
195720,note_on,5,0,1,,,,,,,,0,,,82,106
195835,note_on,115,0,1,,,,,,,,0,,,82,0
195840,note_on,5,0,1,,,,,,,,0,,,69,106
195840,note_on,995,0,5,,,,,,,,4,,,53,64
195840,note_on,995,0,6,,,,,,,,5,,,53,64
195900,note_on,60,0,1,,,,,,,,0,,,69,0
196080,note_on,180,0,1,,,,,,,,0,,,65,106
196140,note_on,60,0,1,,,,,,,,0,,,65,0
196285,note_on,445,0,6,,,,,,,,5,,,53,0
196285,note_on,445,0,5,,,,,,,,4,,,53,0
196320,note_on,180,0,1,,,,,,,,0,,,60,106
196545,note_on,225,0,1,,,,,,,,0,,,60,0
196560,note_on,15,0,1,,,,,,,,0,,,65,106
196560,note_on,275,0,6,,,,,,,,5,,,53,64
196560,note_on,275,0,5,,,,,,,,4,,,53,64
196620,note_on,60,0,6,,,,,,,,5,,,53,0
196620,note_on,60,0,5,,,,,,,,4,,,53,0
196785,note_on,225,0,1,,,,,,,,0,,,65,0
196800,note_on,15,0,1,,,,,,,,0,,,69,106
196800,note_on,180,0,6,,,,,,,,5,,,41,64
196800,note_on,180,0,5,,,,,,,,4,,,41,64
196860,note_on,60,0,6,,,,,,,,5,,,41,0
196860,note_on,60,0,5,,,,,,,,4,,,41,0
197040,note_on,180,0,6,,,,,,,,5,,,53,64
197040,note_on,180,0,5,,,,,,,,4,,,53,64
197100,note_on,60,0,5,,,,,,,,4,,,53,0
197100,note_on,60,0,6,,,,,,,,5,,,53,0
197245,note_on,445,0,1,,,,,,,,0,,,69,0
197280,note_on,180,0,5,,,,,,,,4,,,58,64
197280,note_on,35,0,1,,,,,,,,0,,,70,106
197280,note_on,180,0,6,,,,,,,,5,,,58,64
197340,note_on,60,0,1,,,,,,,,0,,,70,0
197520,note_on,180,0,1,,,,,,,,0,,,65,106
197580,note_on,60,0,1,,,,,,,,0,,,65,0
197725,note_on,445,0,5,,,,,,,,4,,,58,0
197725,note_on,445,0,6,,,,,,,,5,,,58,0
197760,note_on,180,0,1,,,,,,,,0,,,58,106
197985,note_on,225,0,1,,,,,,,,0,,,58,0
198000,note_on,275,0,6,,,,,,,,5,,,46,64
198000,note_on,275,0,5,,,,,,,,4,,,46,64
198000,note_on,15,0,1,,,,,,,,0,,,65,106
198060,note_on,60,0,5,,,,,,,,4,,,46,0
198060,note_on,60,0,6,,,,,,,,5,,,46,0
198225,note_on,225,0,1,,,,,,,,0,,,65,0
198240,note_on,15,0,1,,,,,,,,0,,,70,106
198240,note_on,180,0,5,,,,,,,,4,,,50,64
198240,note_on,180,0,6,,,,,,,,5,,,50,64
198300,note_on,60,0,6,,,,,,,,5,,,50,0
198300,note_on,60,0,5,,,,,,,,4,,,50,0
198480,note_on,180,0,6,,,,,,,,5,,,46,64
198480,note_on,180,0,5,,,,,,,,4,,,46,64
198540,note_on,60,0,5,,,,,,,,4,,,46,0
198540,note_on,60,0,6,,,,,,,,5,,,46,0
198685,note_on,445,0,1,,,,,,,,0,,,70,0
198720,note_on,180,0,6,,,,,,,,5,,,53,64
198720,note_on,180,0,5,,,,,,,,4,,,53,64
198720,note_on,35,0,1,,,,,,,,0,,,72,106
198780,note_on,60,0,1,,,,,,,,0,,,72,0
198960,note_on,180,0,1,,,,,,,,0,,,65,106
199020,note_on,60,0,1,,,,,,,,0,,,65,0
199165,note_on,445,0,5,,,,,,,,4,,,53,0
199165,note_on,445,0,6,,,,,,,,5,,,53,0
199200,note_on,180,0,1,,,,,,,,0,,,57,106
199425,note_on,225,0,1,,,,,,,,0,,,57,0
199440,note_on,275,0,5,,,,,,,,4,,,53,64
199440,note_on,275,0,6,,,,,,,,5,,,53,64
199440,note_on,15,0,1,,,,,,,,0,,,65,106
199500,note_on,60,0,5,,,,,,,,4,,,53,0
199500,note_on,60,0,6,,,,,,,,5,,,53,0
199665,note_on,225,0,1,,,,,,,,0,,,65,0
199680,note_on,15,0,1,,,,,,,,0,,,72,106
199680,note_on,180,0,6,,,,,,,,5,,,57,64
199680,note_on,180,0,5,,,,,,,,4,,,57,64
199740,note_on,60,0,5,,,,,,,,4,,,57,0
199740,note_on,60,0,6,,,,,,,,5,,,57,0
199920,note_on,180,0,5,,,,,,,,4,,,53,64
199920,note_on,180,0,6,,,,,,,,5,,,53,64
199980,note_on,60,0,6,,,,,,,,5,,,53,0
199980,note_on,60,0,5,,,,,,,,4,,,53,0
200125,note_on,445,0,1,,,,,,,,0,,,72,0
200160,note_on,180,0,5,,,,,,,,4,,,58,64
200160,note_on,35,0,1,,,,,,,,0,,,74,106
200160,note_on,180,0,6,,,,,,,,5,,,58,64
200220,note_on,60,0,1,,,,,,,,0,,,74,0
200400,note_on,180,0,1,,,,,,,,0,,,65,106
200460,note_on,60,0,1,,,,,,,,0,,,65,0
200605,note_on,445,0,5,,,,,,,,4,,,58,0
200605,note_on,445,0,6,,,,,,,,5,,,58,0
200640,note_on,180,0,1,,,,,,,,0,,,58,106
200865,note_on,225,0,1,,,,,,,,0,,,58,0
200880,note_on,275,0,6,,,,,,,,5,,,58,64
200880,note_on,15,0,1,,,,,,,,0,,,65,106
200880,note_on,275,0,5,,,,,,,,4,,,58,64
200940,note_on,60,0,6,,,,,,,,5,,,58,0
200940,note_on,60,0,5,,,,,,,,4,,,58,0
201105,note_on,225,0,1,,,,,,,,0,,,65,0
201120,note_on,15,0,1,,,,,,,,0,,,74,106
201120,note_on,180,0,5,,,,,,,,4,,,50,64
201120,note_on,180,0,6,,,,,,,,5,,,50,64
201180,note_on,60,0,5,,,,,,,,4,,,50,0
201180,note_on,60,0,6,,,,,,,,5,,,50,0
201360,note_on,180,0,5,,,,,,,,4,,,46,64
201360,note_on,180,0,6,,,,,,,,5,,,46,64
201420,note_on,60,0,5,,,,,,,,4,,,46,0
201420,note_on,60,0,6,,,,,,,,5,,,46,0
201565,note_on,445,0,1,,,,,,,,0,,,74,0
201600,note_on,35,0,1,,,,,,,,0,,,75,106
201600,note_on,180,0,5,,,,,,,,4,,,53,64
201600,note_on,180,0,6,,,,,,,,5,,,53,64
201660,note_on,60,0,1,,,,,,,,0,,,75,0
201720,note_on,120,0,6,,,,,,,,5,,,53,0
201720,note_on,120,0,5,,,,,,,,4,,,53,0
201840,note_on,180,0,1,,,,,,,,0,,,65,106
201900,note_on,60,0,1,,,,,,,,0,,,65,0
202080,note_on,180,0,1,,,,,,,,0,,,57,106
202305,note_on,225,0,1,,,,,,,,0,,,57,0
202320,note_on,15,0,1,,,,,,,,0,,,65,106
202320,note_on,600,0,5,,,,,,,,4,,,53,64
202320,note_on,600,0,6,,,,,,,,5,,,53,64
202380,note_on,60,0,5,,,,,,,,4,,,53,0
202380,note_on,60,0,6,,,,,,,,5,,,53,0
202545,note_on,225,0,1,,,,,,,,0,,,65,0
202560,note_on,180,0,6,,,,,,,,5,,,57,64
202560,note_on,180,0,5,,,,,,,,4,,,57,64
202560,note_on,15,0,1,,,,,,,,0,,,75,106
202620,note_on,60,0,6,,,,,,,,5,,,57,0
202620,note_on,60,0,5,,,,,,,,4,,,57,0
202800,note_on,180,0,5,,,,,,,,4,,,53,64
202800,note_on,180,0,6,,,,,,,,5,,,53,64
202860,note_on,60,0,6,,,,,,,,5,,,53,0
202860,note_on,60,0,5,,,,,,,,4,,,53,0
203005,note_on,445,0,1,,,,,,,,0,,,75,0
203040,note_on,180,0,5,,,,,,,,4,,,58,64
203040,note_on,35,0,1,,,,,,,,0,,,75,106
203040,note_on,180,0,6,,,,,,,,5,,,58,64
203265,note_on,225,0,1,,,,,,,,0,,,75,0
203280,note_on,15,0,1,,,,,,,,0,,,72,106
203485,note_on,445,0,6,,,,,,,,5,,,58,0
203485,note_on,445,0,5,,,,,,,,4,,,58,0
203505,note_on,225,0,1,,,,,,,,0,,,72,0
203520,note_on,35,0,5,,,,,,,,4,,,46,64
203520,note_on,35,0,6,,,,,,,,5,,,46,64
203520,note_on,15,0,1,,,,,,,,0,,,74,106
203580,note_on,60,0,6,,,,,,,,5,,,46,0
203580,note_on,60,0,5,,,,,,,,4,,,46,0
203760,note_on,180,0,5,,,,,,,,4,,,48,64
203760,note_on,180,0,6,,,,,,,,5,,,48,64
203820,note_on,60,0,5,,,,,,,,4,,,48,0
203820,note_on,60,0,6,,,,,,,,5,,,48,0
204000,note_on,180,0,6,,,,,,,,5,,,50,64
204000,note_on,180,0,5,,,,,,,,4,,,50,64
204225,note_on,225,0,5,,,,,,,,4,,,50,0
204225,note_on,225,0,6,,,,,,,,5,,,50,0
204240,note_on,15,0,6,,,,,,,,5,,,48,64
204240,note_on,15,0,5,,,,,,,,4,,,48,64
204405,note_on,885,0,1,,,,,,,,0,,,74,0
204465,note_on,225,0,6,,,,,,,,5,,,48,0
204465,note_on,225,0,5,,,,,,,,4,,,48,0
204480,note_on,75,0,1,,,,,,,,0,,,82,106
204480,note_on,15,0,5,,,,,,,,4,,,46,64
204480,note_on,15,0,6,,,,,,,,5,,,46,64
204595,note_on,115,0,1,,,,,,,,0,,,82,0
204600,note_on,5,0,1,,,,,,,,0,,,81,106
204715,note_on,115,0,1,,,,,,,,0,,,81,0
204720,note_on,5,0,1,,,,,,,,0,,,79,106
204835,note_on,115,0,1,,,,,,,,0,,,79,0
204840,note_on,5,0,1,,,,,,,,0,,,77,106
204925,note_on,445,0,5,,,,,,,,4,,,46,0
204925,note_on,445,0,6,,,,,,,,5,,,46,0
204955,note_on,115,0,1,,,,,,,,0,,,77,0
204960,note_on,5,0,1,,,,,,,,0,,,79,106
205075,note_on,115,0,1,,,,,,,,0,,,79,0
205080,note_on,5,0,1,,,,,,,,0,,,77,106
205195,note_on,115,0,1,,,,,,,,0,,,77,0
205200,note_on,5,0,1,,,,,,,,0,,,75,106
205315,note_on,115,0,1,,,,,,,,0,,,75,0
205320,note_on,5,0,1,,,,,,,,0,,,74,106
205435,note_on,115,0,1,,,,,,,,0,,,74,0
205440,note_on,5,0,1,,,,,,,,0,,,75,106
205555,note_on,115,0,1,,,,,,,,0,,,75,0
205560,note_on,5,0,1,,,,,,,,0,,,74,106
205675,note_on,115,0,1,,,,,,,,0,,,74,0
205680,note_on,5,0,1,,,,,,,,0,,,72,106
205795,note_on,115,0,1,,,,,,,,0,,,72,0
205800,note_on,5,0,1,,,,,,,,0,,,70,106
205915,note_on,115,0,1,,,,,,,,0,,,70,0
205920,note_on,5,0,1,,,,,,,,0,,,72,106
206035,note_on,115,0,1,,,,,,,,0,,,72,0
206040,note_on,5,0,1,,,,,,,,0,,,70,106
206155,note_on,115,0,1,,,,,,,,0,,,70,0
206160,note_on,5,0,1,,,,,,,,0,,,69,106
206275,note_on,115,0,1,,,,,,,,0,,,69,0
206280,note_on,5,0,1,,,,,,,,0,,,67,106
206395,note_on,115,0,1,,,,,,,,0,,,67,0
206400,note_on,5,0,1,,,,,,,,0,,,69,106
206515,note_on,115,0,1,,,,,,,,0,,,69,0
206520,note_on,5,0,1,,,,,,,,0,,,67,106
206635,note_on,115,0,1,,,,,,,,0,,,67,0
206640,note_on,5,0,1,,,,,,,,0,,,65,106
206755,note_on,115,0,1,,,,,,,,0,,,65,0
206760,note_on,5,0,1,,,,,,,,0,,,63,106
206875,note_on,115,0,1,,,,,,,,0,,,63,0
206880,note_on,5,0,1,,,,,,,,0,,,65,106
206995,note_on,115,0,1,,,,,,,,0,,,65,0
207000,note_on,5,0,1,,,,,,,,0,,,63,106
207115,note_on,115,0,1,,,,,,,,0,,,63,0
207120,note_on,5,0,1,,,,,,,,0,,,62,106
207235,note_on,115,0,1,,,,,,,,0,,,62,0
207240,note_on,5,0,1,,,,,,,,0,,,60,106
207355,note_on,115,0,1,,,,,,,,0,,,60,0
207360,note_on,5,0,1,,,,,,,,0,,,62,106
207360,note_on,2435,0,6,,,,,,,,5,,,46,64
207360,note_on,2435,0,5,,,,,,,,4,,,46,64
207420,note_on,60,0,1,,,,,,,,0,,,62,0
207600,note_on,180,0,1,,,,,,,,0,,,77,106
207660,note_on,60,0,1,,,,,,,,0,,,77,0
207805,note_on,445,0,5,,,,,,,,4,,,46,0
207805,note_on,445,0,6,,,,,,,,5,,,46,0
207840,note_on,180,0,1,,,,,,,,0,,,82,106
207900,note_on,60,0,1,,,,,,,,0,,,82,0
208080,note_on,275,0,6,,,,,,,,5,,,46,64
208080,note_on,275,0,5,,,,,,,,4,,,46,64
208080,note_on,180,0,1,,,,,,,,0,,,74,106
208140,note_on,60,0,6,,,,,,,,5,,,46,0
208140,note_on,60,0,1,,,,,,,,0,,,74,0
208140,note_on,60,0,5,,,,,,,,4,,,46,0
208320,note_on,180,0,1,,,,,,,,0,,,72,106
208320,note_on,180,0,5,,,,,,,,4,,,53,64
208320,note_on,180,0,6,,,,,,,,5,,,53,64
208380,note_on,60,0,6,,,,,,,,5,,,53,0
208380,note_on,60,0,5,,,,,,,,4,,,53,0
208380,note_on,60,0,1,,,,,,,,0,,,72,0
208560,note_on,180,0,5,,,,,,,,4,,,41,64
208560,note_on,180,0,1,,,,,,,,0,,,81,106
208560,note_on,180,0,6,,,,,,,,5,,,41,64
208620,note_on,60,0,5,,,,,,,,4,,,41,0
208620,note_on,60,0,1,,,,,,,,0,,,81,0
208620,note_on,60,0,6,,,,,,,,5,,,41,0
208800,note_on,180,0,5,,,,,,,,4,,,46,64
208800,note_on,180,0,1,,,,,,,,0,,,82,106
208800,note_on,180,0,6,,,,,,,,5,,,46,64
209245,note_on,445,0,5,,,,,,,,4,,,46,0
209245,note_on,445,0,6,,,,,,,,5,,,46,0
209245,note_on,445,0,1,,,,,,,,0,,,82,0
209280,note_on,35,0,6,,,,,,,,5,,,58,80
209280,note_on,35,0,5,,,,,,,,4,,,58,80
209340,note_on,60,0,5,,,,,,,,4,,,58,0
209340,note_on,60,0,6,,,,,,,,5,,,58,0
209520,note_on,180,0,5,,,,,,,,4,,,46,64
209520,note_on,180,0,6,,,,,,,,5,,,46,64
209580,note_on,60,0,5,,,,,,,,4,,,46,0
209580,note_on,60,0,6,,,,,,,,5,,,46,0
209760,note_on,180,0,5,,,,,,,,4,,,46,64
209760,note_on,180,0,6,,,,,,,,5,,,46,64
209820,note_on,60,0,5,,,,,,,,4,,,46,0
209820,note_on,60,0,6,,,,,,,,5,,,46,0
210000,note_on,180,0,5,,,,,,,,4,,,46,64
210000,note_on,180,0,6,,,,,,,,5,,,46,64
210060,note_on,60,0,6,,,,,,,,5,,,46,0
210060,note_on,60,0,5,,,,,,,,4,,,46,0
210240,note_on,995,0,1,,,,,,,,0,,,82,64
210240,note_on,180,0,6,,,,,,,,5,,,46,64
210240,note_on,180,0,5,,,,,,,,4,,,46,64
210355,note_on,115,0,1,,,,,,,,0,,,82,0
210360,note_on,5,0,1,,,,,,,,0,,,81,64
210475,note_on,115,0,1,,,,,,,,0,,,81,0
210480,note_on,5,0,1,,,,,,,,0,,,79,64
210595,note_on,115,0,1,,,,,,,,0,,,79,0
210600,note_on,5,0,1,,,,,,,,0,,,77,64
210685,note_on,445,0,6,,,,,,,,5,,,46,0
210685,note_on,445,0,5,,,,,,,,4,,,46,0
210715,note_on,115,0,1,,,,,,,,0,,,77,0
210720,note_on,5,0,1,,,,,,,,0,,,79,64
210835,note_on,115,0,1,,,,,,,,0,,,79,0
210840,note_on,5,0,1,,,,,,,,0,,,77,64
210955,note_on,115,0,1,,,,,,,,0,,,77,0
210960,note_on,5,0,1,,,,,,,,0,,,75,64
211075,note_on,115,0,1,,,,,,,,0,,,75,0
211080,note_on,5,0,1,,,,,,,,0,,,74,64
211195,note_on,115,0,1,,,,,,,,0,,,74,0
211200,note_on,5,0,1,,,,,,,,0,,,75,64
211315,note_on,115,0,1,,,,,,,,0,,,75,0
211320,note_on,5,0,1,,,,,,,,0,,,74,64
211435,note_on,115,0,1,,,,,,,,0,,,74,0
211440,note_on,5,0,1,,,,,,,,0,,,72,64
211555,note_on,115,0,1,,,,,,,,0,,,72,0
211560,note_on,5,0,1,,,,,,,,0,,,70,64
211675,note_on,115,0,1,,,,,,,,0,,,70,0
211680,note_on,5,0,1,,,,,,,,0,,,72,64
211795,note_on,115,0,1,,,,,,,,0,,,72,0
211800,note_on,5,0,1,,,,,,,,0,,,70,64
211915,note_on,115,0,1,,,,,,,,0,,,70,0
211920,note_on,5,0,1,,,,,,,,0,,,69,64
212035,note_on,115,0,1,,,,,,,,0,,,69,0
212040,note_on,5,0,1,,,,,,,,0,,,67,64
212155,note_on,115,0,1,,,,,,,,0,,,67,0
212160,note_on,5,0,1,,,,,,,,0,,,69,64
212275,note_on,115,0,1,,,,,,,,0,,,69,0
212280,note_on,5,0,1,,,,,,,,0,,,67,64
212395,note_on,115,0,1,,,,,,,,0,,,67,0
212400,note_on,5,0,1,,,,,,,,0,,,65,64
212515,note_on,115,0,1,,,,,,,,0,,,65,0
212520,note_on,5,0,1,,,,,,,,0,,,63,64
212635,note_on,115,0,1,,,,,,,,0,,,63,0
212640,note_on,5,0,1,,,,,,,,0,,,65,64
212755,note_on,115,0,1,,,,,,,,0,,,65,0
212760,note_on,5,0,1,,,,,,,,0,,,63,64
212875,note_on,115,0,1,,,,,,,,0,,,63,0
212880,note_on,5,0,1,,,,,,,,0,,,62,64
212995,note_on,115,0,1,,,,,,,,0,,,62,0
213000,note_on,5,0,1,,,,,,,,0,,,60,64
213115,note_on,115,0,1,,,,,,,,0,,,60,0
213120,note_on,2435,0,5,,,,,,,,4,,,46,64
213120,note_on,2435,0,6,,,,,,,,5,,,46,64
213120,note_on,5,0,1,,,,,,,,0,,,62,64
213180,note_on,60,0,1,,,,,,,,0,,,62,0
213360,note_on,180,0,1,,,,,,,,0,,,77,64
213420,note_on,60,0,1,,,,,,,,0,,,77,0
213565,note_on,445,0,6,,,,,,,,5,,,46,0
213565,note_on,445,0,5,,,,,,,,4,,,46,0
213600,note_on,180,0,1,,,,,,,,0,,,82,64
213660,note_on,60,0,1,,,,,,,,0,,,82,0
213840,note_on,275,0,6,,,,,,,,5,,,46,64
213840,note_on,180,0,1,,,,,,,,0,,,74,64
213840,note_on,275,0,5,,,,,,,,4,,,46,64
213900,note_on,60,0,1,,,,,,,,0,,,74,0
213900,note_on,60,0,5,,,,,,,,4,,,46,0
213900,note_on,60,0,6,,,,,,,,5,,,46,0
214080,note_on,180,0,6,,,,,,,,5,,,53,64
214080,note_on,180,0,5,,,,,,,,4,,,53,64
214080,note_on,180,0,1,,,,,,,,0,,,72,64
214140,note_on,60,0,1,,,,,,,,0,,,72,0
214140,note_on,60,0,6,,,,,,,,5,,,53,0
214140,note_on,60,0,5,,,,,,,,4,,,53,0
214320,note_on,180,0,6,,,,,,,,5,,,41,64
214320,note_on,180,0,5,,,,,,,,4,,,41,64
214320,note_on,180,0,1,,,,,,,,0,,,81,64
214380,note_on,60,0,6,,,,,,,,5,,,41,0
214380,note_on,60,0,5,,,,,,,,4,,,41,0
214380,note_on,60,0,1,,,,,,,,0,,,81,0
214560,note_on,19715,0,3,,,,,,,,2,,,74,49
214560,note_on,19715,0,4,,,,,,,,3,,,58,85
214560,note_on,180,0,5,,,,,,,,4,,,46,85
214560,note_on,180,0,1,,,,,,,,0,,,82,64
214560,note_on,180,0,6,,,,,,,,5,,,46,85
214785,note_on,225,0,1,,,,,,,,0,,,82,0
214800,note_on,15,0,1,,,,,,,,0,,,82,64
214800,note_on,19955,0,2,,,,,,,,1,,,82,85
215005,note_on,445,0,3,,,,,,,,2,,,74,0
215025,note_on,225,0,2,,,,,,,,1,,,82,0
215025,note_on,225,0,1,,,,,,,,0,,,82,0
215040,note_on,15,0,2,,,,,,,,1,,,81,85
215040,note_on,15,0,1,,,,,,,,0,,,81,64
215265,note_on,225,0,2,,,,,,,,1,,,81,0
215265,note_on,225,0,1,,,,,,,,0,,,81,0
215280,note_on,15,0,2,,,,,,,,1,,,79,85
215280,note_on,15,0,1,,,,,,,,0,,,79,64
215505,note_on,225,0,2,,,,,,,,1,,,79,0
215505,note_on,225,0,1,,,,,,,,0,,,79,0
215520,note_on,15,0,2,,,,,,,,1,,,77,85
215520,note_on,15,0,1,,,,,,,,0,,,77,64
215745,note_on,225,0,2,,,,,,,,1,,,77,0
215745,note_on,225,0,1,,,,,,,,0,,,77,0
215760,note_on,15,0,1,,,,,,,,0,,,75,64
215760,note_on,15,0,2,,,,,,,,1,,,75,85
215985,note_on,225,0,1,,,,,,,,0,,,75,0
215985,note_on,225,0,2,,,,,,,,1,,,75,0
216000,note_on,15,0,1,,,,,,,,0,,,74,64
216000,note_on,15,0,2,,,,,,,,1,,,74,85
216225,note_on,225,0,1,,,,,,,,0,,,74,0
216225,note_on,225,0,2,,,,,,,,1,,,74,0
216240,note_on,1235,0,3,,,,,,,,2,,,82,85
216240,note_on,15,0,1,,,,,,,,0,,,79,64
216240,note_on,15,0,2,,,,,,,,1,,,79,85
216465,note_on,225,0,1,,,,,,,,0,,,79,0
216465,note_on,225,0,3,,,,,,,,2,,,82,0
216465,note_on,225,0,2,,,,,,,,1,,,79,0
216480,note_on,15,0,1,,,,,,,,0,,,77,64
216480,note_on,15,0,2,,,,,,,,1,,,77,85
216480,note_on,15,0,3,,,,,,,,2,,,81,85
216705,note_on,225,0,1,,,,,,,,0,,,77,0
216705,note_on,225,0,2,,,,,,,,1,,,77,0
216705,note_on,225,0,3,,,,,,,,2,,,81,0
216720,note_on,15,0,2,,,,,,,,1,,,75,85
216720,note_on,15,0,3,,,,,,,,2,,,79,85
216720,note_on,15,0,1,,,,,,,,0,,,75,64
216945,note_on,225,0,3,,,,,,,,2,,,79,0
216945,note_on,225,0,1,,,,,,,,0,,,75,0
216945,note_on,225,0,2,,,,,,,,1,,,75,0
216960,note_on,15,0,3,,,,,,,,2,,,77,85
216960,note_on,15,0,1,,,,,,,,0,,,74,64
216960,note_on,15,0,2,,,,,,,,1,,,74,85
217185,note_on,225,0,1,,,,,,,,0,,,74,0
217185,note_on,225,0,2,,,,,,,,1,,,74,0
217185,note_on,225,0,3,,,,,,,,2,,,77,0
217200,note_on,15,0,1,,,,,,,,0,,,72,64
217200,note_on,15,0,2,,,,,,,,1,,,72,85
217200,note_on,15,0,3,,,,,,,,2,,,75,85
217425,note_on,225,0,1,,,,,,,,0,,,72,0
217425,note_on,225,0,2,,,,,,,,1,,,72,0
217425,note_on,225,0,3,,,,,,,,2,,,75,0
217440,note_on,15,0,2,,,,,,,,1,,,70,85
217440,note_on,15,0,3,,,,,,,,2,,,74,85
217440,note_on,15,0,1,,,,,,,,0,,,70,64
217665,note_on,225,0,2,,,,,,,,1,,,70,0
217665,note_on,225,0,3,,,,,,,,2,,,74,0
217665,note_on,225,0,1,,,,,,,,0,,,70,0
217680,note_on,15,0,3,,,,,,,,2,,,77,85
217680,note_on,15,0,1,,,,,,,,0,,,74,64
217680,note_on,15,0,2,,,,,,,,1,,,74,85
217905,note_on,225,0,2,,,,,,,,1,,,74,0
217905,note_on,225,0,1,,,,,,,,0,,,74,0
217905,note_on,225,0,3,,,,,,,,2,,,77,0
217920,note_on,15,0,1,,,,,,,,0,,,72,64
217920,note_on,15,0,2,,,,,,,,1,,,72,85
217920,note_on,15,0,3,,,,,,,,2,,,75,85
218145,note_on,225,0,1,,,,,,,,0,,,72,0
218145,note_on,225,0,2,,,,,,,,1,,,72,0
218145,note_on,225,0,3,,,,,,,,2,,,75,0
218160,note_on,15,0,2,,,,,,,,1,,,70,85
218160,note_on,15,0,1,,,,,,,,0,,,70,64
218160,note_on,15,0,3,,,,,,,,2,,,74,85
218385,note_on,225,0,2,,,,,,,,1,,,70,0
218385,note_on,225,0,1,,,,,,,,0,,,70,0
218385,note_on,225,0,3,,,,,,,,2,,,74,0
218400,note_on,15,0,2,,,,,,,,1,,,69,85
218400,note_on,15,0,1,,,,,,,,0,,,69,64
218400,note_on,15,0,3,,,,,,,,2,,,72,85
218625,note_on,225,0,1,,,,,,,,0,,,69,0
218625,note_on,225,0,3,,,,,,,,2,,,72,0
218625,note_on,225,0,2,,,,,,,,1,,,69,0
218640,note_on,15,0,3,,,,,,,,2,,,70,85
218640,note_on,15,0,1,,,,,,,,0,,,67,64
218640,note_on,15,0,2,,,,,,,,1,,,67,85
218765,note_on,4205,0,4,,,,,,,,3,,,58,0
218765,note_on,4205,0,5,,,,,,,,4,,,46,0
218765,note_on,4205,0,6,,,,,,,,5,,,46,0
218865,note_on,225,0,1,,,,,,,,0,,,67,0
218865,note_on,225,0,2,,,,,,,,1,,,67,0
218865,note_on,225,0,3,,,,,,,,2,,,70,0
218880,note_on,115,0,4,,,,,,,,3,,,60,85
218880,note_on,15,0,2,,,,,,,,1,,,65,85
218880,note_on,115,0,5,,,,,,,,4,,,53,85
218880,note_on,15,0,3,,,,,,,,2,,,65,85
218880,note_on,15,0,1,,,,,,,,0,,,65,85
218880,note_on,115,0,6,,,,,,,,5,,,53,85
219325,note_on,445,0,3,,,,,,,,2,,,65,0
219325,note_on,445,0,1,,,,,,,,0,,,65,0
219325,note_on,445,0,4,,,,,,,,3,,,60,0
219325,note_on,445,0,2,,,,,,,,1,,,65,0
219325,note_on,445,0,6,,,,,,,,5,,,53,0
219325,note_on,445,0,5,,,,,,,,4,,,53,0
219360,note_on,35,0,6,,,,,,,,5,,,53,101
219360,note_on,35,0,2,,,,,,,,1,,,77,101
219360,note_on,35,0,3,,,,,,,,2,,,77,101
219360,note_on,35,0,5,,,,,,,,4,,,53,101
219360,note_on,35,0,1,,,,,,,,0,,,77,101
219360,note_on,35,0,4,,,,,,,,3,,,69,101
219420,note_on,60,0,2,,,,,,,,1,,,77,0
219420,note_on,60,0,1,,,,,,,,0,,,77,0
219420,note_on,60,0,6,,,,,,,,5,,,53,0
219420,note_on,60,0,4,,,,,,,,3,,,69,0
219420,note_on,60,0,5,,,,,,,,4,,,53,0
219420,note_on,60,0,3,,,,,,,,2,,,77,0
219600,note_on,180,0,1,,,,,,,,0,,,65,85
219600,note_on,180,0,6,,,,,,,,5,,,53,85
219600,note_on,180,0,3,,,,,,,,2,,,65,85
219600,note_on,180,0,2,,,,,,,,1,,,65,85
219600,note_on,180,0,4,,,,,,,,3,,,65,85
219600,note_on,180,0,5,,,,,,,,4,,,53,85
219660,note_on,60,0,4,,,,,,,,3,,,65,0
219660,note_on,60,0,3,,,,,,,,2,,,65,0
219660,note_on,60,0,1,,,,,,,,0,,,65,0
219660,note_on,60,0,5,,,,,,,,4,,,53,0
219660,note_on,60,0,2,,,,,,,,1,,,65,0
219660,note_on,60,0,6,,,,,,,,5,,,53,0
219840,note_on,180,0,3,,,,,,,,2,,,65,85
219840,note_on,180,0,4,,,,,,,,3,,,65,85
219840,note_on,180,0,1,,,,,,,,0,,,65,85
219840,note_on,180,0,2,,,,,,,,1,,,65,85
219840,note_on,180,0,6,,,,,,,,5,,,53,85
219840,note_on,180,0,5,,,,,,,,4,,,53,85
219900,note_on,60,0,2,,,,,,,,1,,,65,0
219900,note_on,60,0,6,,,,,,,,5,,,53,0
219900,note_on,60,0,4,,,,,,,,3,,,65,0
219900,note_on,60,0,5,,,,,,,,4,,,53,0
219900,note_on,60,0,3,,,,,,,,2,,,65,0
219900,note_on,60,0,1,,,,,,,,0,,,65,0
220080,note_on,180,0,1,,,,,,,,0,,,65,85
220080,note_on,180,0,2,,,,,,,,1,,,65,85
220080,note_on,180,0,4,,,,,,,,3,,,65,85
220080,note_on,180,0,5,,,,,,,,4,,,53,85
220080,note_on,180,0,3,,,,,,,,2,,,65,85
220080,note_on,180,0,6,,,,,,,,5,,,53,85
220140,note_on,60,0,3,,,,,,,,2,,,65,0
220140,note_on,60,0,6,,,,,,,,5,,,53,0
220140,note_on,60,0,5,,,,,,,,4,,,53,0
220140,note_on,60,0,4,,,,,,,,3,,,65,0
220140,note_on,60,0,2,,,,,,,,1,,,65,0
220140,note_on,60,0,1,,,,,,,,0,,,65,0
220320,note_on,180,0,3,,,,,,,,2,,,65,85
220320,note_on,180,0,2,,,,,,,,1,,,65,85
220320,note_on,180,0,5,,,,,,,,4,,,53,85
220320,note_on,180,0,6,,,,,,,,5,,,53,85
220320,note_on,180,0,4,,,,,,,,3,,,65,85
220320,note_on,180,0,1,,,,,,,,0,,,65,85
220765,note_on,445,0,4,,,,,,,,3,,,65,0
220765,note_on,445,0,5,,,,,,,,4,,,53,0
220765,note_on,445,0,3,,,,,,,,2,,,65,0
220765,note_on,445,0,6,,,,,,,,5,,,53,0
220765,note_on,445,0,1,,,,,,,,0,,,65,0
220765,note_on,445,0,2,,,,,,,,1,,,65,0
220800,note_on,35,0,1,,,,,,,,0,,,75,80
220800,note_on,35,0,4,,,,,,,,3,,,72,80
220800,note_on,35,0,5,,,,,,,,4,,,53,80
220800,note_on,35,0,6,,,,,,,,5,,,53,80
220800,note_on,35,0,3,,,,,,,,2,,,75,80
220800,note_on,35,0,2,,,,,,,,1,,,75,80
220860,note_on,60,0,4,,,,,,,,3,,,72,0
220860,note_on,60,0,6,,,,,,,,5,,,53,0
220860,note_on,60,0,5,,,,,,,,4,,,53,0
220860,note_on,60,0,3,,,,,,,,2,,,75,0
220860,note_on,60,0,2,,,,,,,,1,,,75,0
220860,note_on,60,0,1,,,,,,,,0,,,75,0
221040,note_on,180,0,6,,,,,,,,5,,,53,64
221040,note_on,180,0,4,,,,,,,,3,,,65,64
221040,note_on,180,0,2,,,,,,,,1,,,65,64
221040,note_on,180,0,3,,,,,,,,2,,,65,64
221040,note_on,180,0,1,,,,,,,,0,,,65,64
221040,note_on,180,0,5,,,,,,,,4,,,53,64
221100,note_on,60,0,2,,,,,,,,1,,,65,0
221100,note_on,60,0,6,,,,,,,,5,,,53,0
221100,note_on,60,0,1,,,,,,,,0,,,65,0
221100,note_on,60,0,4,,,,,,,,3,,,65,0
221100,note_on,60,0,5,,,,,,,,4,,,53,0
221100,note_on,60,0,3,,,,,,,,2,,,65,0
221280,note_on,180,0,5,,,,,,,,4,,,53,64
221280,note_on,180,0,2,,,,,,,,1,,,65,64
221280,note_on,180,0,6,,,,,,,,5,,,53,64
221280,note_on,180,0,3,,,,,,,,2,,,65,64
221280,note_on,180,0,4,,,,,,,,3,,,65,64
221280,note_on,180,0,1,,,,,,,,0,,,65,64
221340,note_on,60,0,4,,,,,,,,3,,,65,0
221340,note_on,60,0,6,,,,,,,,5,,,53,0
221340,note_on,60,0,2,,,,,,,,1,,,65,0
221340,note_on,60,0,3,,,,,,,,2,,,65,0
221340,note_on,60,0,1,,,,,,,,0,,,65,0
221340,note_on,60,0,5,,,,,,,,4,,,53,0
221520,note_on,180,0,2,,,,,,,,1,,,65,64
221520,note_on,180,0,1,,,,,,,,0,,,65,64
221520,note_on,180,0,5,,,,,,,,4,,,53,64
221520,note_on,180,0,6,,,,,,,,5,,,53,64
221520,note_on,180,0,4,,,,,,,,3,,,65,64
221520,note_on,180,0,3,,,,,,,,2,,,65,64
221580,note_on,60,0,6,,,,,,,,5,,,53,0
221580,note_on,60,0,3,,,,,,,,2,,,65,0
221580,note_on,60,0,4,,,,,,,,3,,,65,0
221580,note_on,60,0,1,,,,,,,,0,,,65,0
221580,note_on,60,0,5,,,,,,,,4,,,53,0
221580,note_on,60,0,2,,,,,,,,1,,,65,0
221760,note_on,180,0,3,,,,,,,,2,,,65,64
221760,note_on,180,0,2,,,,,,,,1,,,65,64
221760,note_on,180,0,1,,,,,,,,0,,,65,64
221760,note_on,180,0,6,,,,,,,,5,,,53,64
221760,note_on,180,0,4,,,,,,,,3,,,65,64
221760,note_on,180,0,5,,,,,,,,4,,,53,64
222205,note_on,445,0,2,,,,,,,,1,,,65,0
222205,note_on,445,0,3,,,,,,,,2,,,65,0
222205,note_on,445,0,6,,,,,,,,5,,,53,0
222205,note_on,445,0,5,,,,,,,,4,,,53,0
222205,note_on,445,0,1,,,,,,,,0,,,65,0
222205,note_on,445,0,4,,,,,,,,3,,,65,0
222240,note_on,35,0,1,,,,,,,,0,,,74,65
222240,note_on,35,0,6,,,,,,,,5,,,53,65
222240,note_on,35,0,2,,,,,,,,1,,,74,65
222240,note_on,35,0,4,,,,,,,,3,,,70,65
222240,note_on,35,0,5,,,,,,,,4,,,53,65
222240,note_on,35,0,3,,,,,,,,2,,,74,65
222300,note_on,60,0,6,,,,,,,,5,,,53,0
222300,note_on,60,0,5,,,,,,,,4,,,53,0
222300,note_on,60,0,4,,,,,,,,3,,,70,0
222300,note_on,60,0,2,,,,,,,,1,,,74,0
222300,note_on,60,0,3,,,,,,,,2,,,74,0
222300,note_on,60,0,1,,,,,,,,0,,,74,0
222480,note_on,180,0,2,,,,,,,,1,,,65,49
222480,note_on,180,0,6,,,,,,,,5,,,53,49
222480,note_on,180,0,4,,,,,,,,3,,,65,49
222480,note_on,180,0,3,,,,,,,,2,,,65,49
222480,note_on,180,0,1,,,,,,,,0,,,65,49
222480,note_on,180,0,5,,,,,,,,4,,,53,49
222540,note_on,60,0,5,,,,,,,,4,,,53,0
222540,note_on,60,0,2,,,,,,,,1,,,65,0
222540,note_on,60,0,6,,,,,,,,5,,,53,0
222540,note_on,60,0,4,,,,,,,,3,,,65,0
222540,note_on,60,0,3,,,,,,,,2,,,65,0
222540,note_on,60,0,1,,,,,,,,0,,,65,0
222720,note_on,180,0,2,,,,,,,,1,,,65,49
222720,note_on,180,0,6,,,,,,,,5,,,53,49
222720,note_on,180,0,1,,,,,,,,0,,,65,49
222720,note_on,180,0,4,,,,,,,,3,,,65,49
222720,note_on,180,0,3,,,,,,,,2,,,65,49
222720,note_on,180,0,5,,,,,,,,4,,,53,49
222780,note_on,60,0,5,,,,,,,,4,,,53,0
222780,note_on,60,0,3,,,,,,,,2,,,65,0
222780,note_on,60,0,4,,,,,,,,3,,,65,0
222780,note_on,60,0,6,,,,,,,,5,,,53,0
222780,note_on,60,0,2,,,,,,,,1,,,65,0
222780,note_on,60,0,1,,,,,,,,0,,,65,0
222960,note_on,180,0,4,,,,,,,,3,,,65,49
222960,note_on,180,0,2,,,,,,,,1,,,65,49
222960,note_on,180,0,1,,,,,,,,0,,,65,49
222960,note_on,180,0,3,,,,,,,,2,,,65,49
222960,note_on,180,0,5,,,,,,,,4,,,53,49
222960,note_on,180,0,6,,,,,,,,5,,,53,49
223020,note_on,60,0,1,,,,,,,,0,,,65,0
223020,note_on,60,0,4,,,,,,,,3,,,65,0
223020,note_on,60,0,2,,,,,,,,1,,,65,0
223020,note_on,60,0,3,,,,,,,,2,,,65,0
223020,note_on,60,0,5,,,,,,,,4,,,53,0
223020,note_on,60,0,6,,,,,,,,5,,,53,0
223200,note_on,180,0,5,,,,,,,,4,,,53,49
223200,note_on,180,0,1,,,,,,,,0,,,65,49
223200,note_on,180,0,4,,,,,,,,3,,,65,49
223200,note_on,180,0,3,,,,,,,,2,,,65,49
223200,note_on,180,0,6,,,,,,,,5,,,53,49
223200,note_on,180,0,2,,,,,,,,1,,,65,49
223645,note_on,445,0,1,,,,,,,,0,,,65,0
223645,note_on,445,0,6,,,,,,,,5,,,53,0
223645,note_on,445,0,3,,,,,,,,2,,,65,0
223645,note_on,445,0,4,,,,,,,,3,,,65,0
223645,note_on,445,0,5,,,,,,,,4,,,53,0
223645,note_on,445,0,2,,,,,,,,1,,,65,0
223680,note_on,35,0,2,,,,,,,,1,,,72,50
223680,note_on,35,0,1,,,,,,,,0,,,72,50
223680,note_on,35,0,3,,,,,,,,2,,,72,50
223680,note_on,35,0,4,,,,,,,,3,,,69,50
223680,note_on,35,0,6,,,,,,,,5,,,53,50
223680,note_on,35,0,5,,,,,,,,4,,,53,50
223740,note_on,60,0,6,,,,,,,,5,,,53,0
223740,note_on,60,0,4,,,,,,,,3,,,69,0
223740,note_on,60,0,2,,,,,,,,1,,,72,0
223740,note_on,60,0,3,,,,,,,,2,,,72,0
223740,note_on,60,0,5,,,,,,,,4,,,53,0
223740,note_on,60,0,1,,,,,,,,0,,,72,0
223920,note_on,180,0,5,,,,,,,,4,,,53,34
223920,note_on,180,0,2,,,,,,,,1,,,65,34
223920,note_on,180,0,3,,,,,,,,2,,,65,34
223920,note_on,180,0,4,,,,,,,,3,,,65,34
223920,note_on,180,0,6,,,,,,,,5,,,53,34
223920,note_on,180,0,1,,,,,,,,0,,,65,34
223980,note_on,60,0,5,,,,,,,,4,,,53,0
223980,note_on,60,0,3,,,,,,,,2,,,65,0
223980,note_on,60,0,4,,,,,,,,3,,,65,0
223980,note_on,60,0,1,,,,,,,,0,,,65,0
223980,note_on,60,0,6,,,,,,,,5,,,53,0
223980,note_on,60,0,2,,,,,,,,1,,,65,0
224160,note_on,180,0,3,,,,,,,,2,,,65,34
224160,note_on,180,0,2,,,,,,,,1,,,65,34
224160,note_on,180,0,1,,,,,,,,0,,,65,34
224160,note_on,180,0,6,,,,,,,,5,,,53,34
224160,note_on,180,0,4,,,,,,,,3,,,65,34
224160,note_on,180,0,5,,,,,,,,4,,,53,34
224220,note_on,60,0,3,,,,,,,,2,,,65,0
224220,note_on,60,0,1,,,,,,,,0,,,65,0
224220,note_on,60,0,5,,,,,,,,4,,,53,0
224220,note_on,60,0,4,,,,,,,,3,,,65,0
224220,note_on,60,0,2,,,,,,,,1,,,65,0
224220,note_on,60,0,6,,,,,,,,5,,,53,0
224400,note_on,180,0,3,,,,,,,,2,,,65,34
224400,note_on,180,0,6,,,,,,,,5,,,53,34
224400,note_on,180,0,4,,,,,,,,3,,,65,34
224400,note_on,180,0,5,,,,,,,,4,,,53,34
224400,note_on,180,0,1,,,,,,,,0,,,65,34
224400,note_on,180,0,2,,,,,,,,1,,,65,34
224460,note_on,60,0,4,,,,,,,,3,,,65,0
224460,note_on,60,0,6,,,,,,,,5,,,53,0
224460,note_on,60,0,1,,,,,,,,0,,,65,0
224460,note_on,60,0,3,,,,,,,,2,,,65,0
224460,note_on,60,0,2,,,,,,,,1,,,65,0
224460,note_on,60,0,5,,,,,,,,4,,,53,0
224640,note_on,180,0,6,,,,,,,,5,,,53,34
224640,note_on,180,0,4,,,,,,,,3,,,65,34
224640,note_on,180,0,2,,,,,,,,1,,,65,34
224640,note_on,180,0,3,,,,,,,,2,,,65,34
224640,note_on,180,0,1,,,,,,,,0,,,65,34
224640,note_on,180,0,5,,,,,,,,4,,,53,34
225085,note_on,445,0,2,,,,,,,,1,,,65,0
225085,note_on,445,0,3,,,,,,,,2,,,65,0
225085,note_on,445,0,5,,,,,,,,4,,,53,0
225085,note_on,445,0,1,,,,,,,,0,,,65,0
225085,note_on,445,0,6,,,,,,,,5,,,53,0
225085,note_on,445,0,4,,,,,,,,3,,,65,0
226080,note_on,995,0,6,,,,,,,,5,,,46,85
226080,note_on,995,0,1,,,,,,,,0,,,70,85
226080,note_on,995,0,2,,,,,,,,1,,,70,85
226080,note_on,995,0,4,,,,,,,,3,,,62,85
226080,note_on,995,0,5,,,,,,,,4,,,46,85
226080,note_on,995,0,3,,,,,,,,2,,,70,85
226305,note_on,225,0,4,,,,,,,,3,,,62,0
226305,note_on,225,0,6,,,,,,,,5,,,46,0
226305,note_on,225,0,5,,,,,,,,4,,,46,0
226320,note_on,15,0,5,,,,,,,,4,,,58,85
226320,note_on,15,0,4,,,,,,,,3,,,74,85
226320,note_on,15,0,6,,,,,,,,5,,,58,85
226525,note_on,445,0,2,,,,,,,,1,,,70,0
226525,note_on,445,0,3,,,,,,,,2,,,70,0
226525,note_on,445,0,1,,,,,,,,0,,,70,0
226545,note_on,225,0,5,,,,,,,,4,,,58,0
226545,note_on,225,0,6,,,,,,,,5,,,58,0
226545,note_on,225,0,4,,,,,,,,3,,,74,0
226560,note_on,15,0,4,,,,,,,,3,,,69,85
226560,note_on,15,0,5,,,,,,,,4,,,53,85
226560,note_on,15,0,6,,,,,,,,5,,,53,85
226785,note_on,225,0,5,,,,,,,,4,,,53,0
226785,note_on,225,0,6,,,,,,,,5,,,53,0
226785,note_on,225,0,4,,,,,,,,3,,,69,0
226800,note_on,275,0,2,,,,,,,,1,,,72,85
226800,note_on,15,0,5,,,,,,,,4,,,51,85
226800,note_on,275,0,3,,,,,,,,2,,,72,85
226800,note_on,15,0,4,,,,,,,,3,,,67,85
226800,note_on,15,0,6,,,,,,,,5,,,51,85
226800,note_on,275,0,1,,,,,,,,0,,,72,85
226915,note_on,115,0,1,,,,,,,,0,,,72,0
226915,note_on,115,0,2,,,,,,,,1,,,72,0
226915,note_on,115,0,3,,,,,,,,2,,,72,0
226920,note_on,5,0,1,,,,,,,,0,,,74,85
226920,note_on,5,0,2,,,,,,,,1,,,74,85
226920,note_on,5,0,3,,,,,,,,2,,,74,85
227025,note_on,225,0,5,,,,,,,,4,,,51,0
227025,note_on,225,0,4,,,,,,,,3,,,67,0
227025,note_on,225,0,6,,,,,,,,5,,,51,0
227035,note_on,115,0,2,,,,,,,,1,,,74,0
227035,note_on,115,0,1,,,,,,,,0,,,74,0
227035,note_on,115,0,3,,,,,,,,2,,,74,0
227040,note_on,15,0,5,,,,,,,,4,,,50,85
227040,note_on,15,0,4,,,,,,,,3,,,65,85
227040,note_on,5,0,3,,,,,,,,2,,,75,85
227040,note_on,5,0,2,,,,,,,,1,,,75,85
227040,note_on,5,0,1,,,,,,,,0,,,75,85
227040,note_on,15,0,6,,,,,,,,5,,,50,85
227155,note_on,115,0,1,,,,,,,,0,,,75,0
227155,note_on,115,0,2,,,,,,,,1,,,75,0
227155,note_on,115,0,3,,,,,,,,2,,,75,0
227160,note_on,5,0,1,,,,,,,,0,,,77,85
227160,note_on,5,0,2,,,,,,,,1,,,77,85
227160,note_on,5,0,3,,,,,,,,2,,,77,85
227265,note_on,225,0,6,,,,,,,,5,,,50,0
227265,note_on,225,0,5,,,,,,,,4,,,50,0
227265,note_on,225,0,4,,,,,,,,3,,,65,0
227275,note_on,115,0,1,,,,,,,,0,,,77,0
227275,note_on,115,0,2,,,,,,,,1,,,77,0
227275,note_on,115,0,3,,,,,,,,2,,,77,0
227280,note_on,15,0,4,,,,,,,,3,,,63,85
227280,note_on,15,0,6,,,,,,,,5,,,48,85
227280,note_on,5,0,2,,,,,,,,1,,,79,85
227280,note_on,15,0,5,,,,,,,,4,,,48,85
227280,note_on,5,0,3,,,,,,,,2,,,79,85
227280,note_on,5,0,1,,,,,,,,0,,,79,85
227395,note_on,115,0,1,,,,,,,,0,,,79,0
227395,note_on,115,0,2,,,,,,,,1,,,79,0
227395,note_on,115,0,3,,,,,,,,2,,,79,0
227400,note_on,5,0,2,,,,,,,,1,,,81,85
227400,note_on,5,0,1,,,,,,,,0,,,81,85
227400,note_on,5,0,3,,,,,,,,2,,,81,85
227505,note_on,225,0,6,,,,,,,,5,,,48,0
227505,note_on,225,0,5,,,,,,,,4,,,48,0
227505,note_on,225,0,4,,,,,,,,3,,,63,0
227515,note_on,115,0,3,,,,,,,,2,,,81,0
227515,note_on,115,0,2,,,,,,,,1,,,81,0
227515,note_on,115,0,1,,,,,,,,0,,,81,0
227520,note_on,15,0,4,,,,,,,,3,,,62,85
227520,note_on,5,0,1,,,,,,,,0,,,82,101
227520,note_on,15,0,5,,,,,,,,4,,,46,85
227520,note_on,5,0,2,,,,,,,,1,,,82,101
227520,note_on,5,0,3,,,,,,,,2,,,82,101
227520,note_on,15,0,6,,,,,,,,5,,,46,85
227580,note_on,60,0,1,,,,,,,,0,,,82,0
227580,note_on,60,0,2,,,,,,,,1,,,82,0
227580,note_on,60,0,3,,,,,,,,2,,,82,0
227760,note_on,180,0,2,,,,,,,,1,,,70,85
227760,note_on,180,0,3,,,,,,,,2,,,70,85
227760,note_on,180,0,1,,,,,,,,0,,,70,85
227820,note_on,60,0,1,,,,,,,,0,,,70,0
227820,note_on,60,0,3,,,,,,,,2,,,70,0
227820,note_on,60,0,2,,,,,,,,1,,,70,0
227965,note_on,445,0,4,,,,,,,,3,,,62,0
227965,note_on,445,0,5,,,,,,,,4,,,46,0
227965,note_on,445,0,6,,,,,,,,5,,,46,0
228000,note_on,35,0,5,,,,,,,,4,,,53,85
228000,note_on,35,0,4,,,,,,,,3,,,69,85
228000,note_on,180,0,1,,,,,,,,0,,,72,85
228000,note_on,180,0,2,,,,,,,,1,,,72,85
228000,note_on,35,0,6,,,,,,,,5,,,53,85
228000,note_on,180,0,3,,,,,,,,2,,,72,85
228225,note_on,225,0,5,,,,,,,,4,,,53,0
228225,note_on,225,0,6,,,,,,,,5,,,53,0
228240,note_on,15,0,6,,,,,,,,5,,,53,85
228240,note_on,15,0,5,,,,,,,,4,,,53,85
228445,note_on,445,0,1,,,,,,,,0,,,72,0
228445,note_on,445,0,2,,,,,,,,1,,,72,0
228445,note_on,445,0,3,,,,,,,,2,,,72,0
228445,note_on,445,0,4,,,,,,,,3,,,69,0
228465,note_on,225,0,5,,,,,,,,4,,,53,0
228465,note_on,225,0,6,,,,,,,,5,,,53,0
228480,note_on,35,0,1,,,,,,,,0,,,69,85
228480,note_on,35,0,4,,,,,,,,3,,,65,85
228480,note_on,35,0,2,,,,,,,,1,,,69,85
228480,note_on,35,0,3,,,,,,,,2,,,69,85
228480,note_on,15,0,6,,,,,,,,5,,,41,85
228480,note_on,15,0,5,,,,,,,,4,,,41,85
228705,note_on,225,0,6,,,,,,,,5,,,41,0
228705,note_on,225,0,5,,,,,,,,4,,,41,0
228720,note_on,15,0,6,,,,,,,,5,,,41,85
228720,note_on,15,0,5,,,,,,,,4,,,41,85
228925,note_on,445,0,2,,,,,,,,1,,,69,0
228925,note_on,445,0,3,,,,,,,,2,,,69,0
228925,note_on,445,0,1,,,,,,,,0,,,69,0
228925,note_on,445,0,4,,,,,,,,3,,,65,0
228945,note_on,225,0,6,,,,,,,,5,,,41,0
228945,note_on,225,0,5,,,,,,,,4,,,41,0
228960,note_on,15,0,5,,,,,,,,4,,,46,64
228960,note_on,35,0,3,,,,,,,,2,,,58,64
228960,note_on,15,0,6,,,,,,,,5,,,46,64
228960,note_on,35,0,2,,,,,,,,1,,,58,64
228960,note_on,35,0,1,,,,,,,,0,,,58,64
228960,note_on,35,0,4,,,,,,,,3,,,62,64
229185,note_on,225,0,4,,,,,,,,3,,,62,0
229185,note_on,225,0,6,,,,,,,,5,,,46,0
229185,note_on,225,0,5,,,,,,,,4,,,46,0
229200,note_on,15,0,5,,,,,,,,4,,,58,64
229200,note_on,15,0,4,,,,,,,,3,,,74,64
229200,note_on,15,0,6,,,,,,,,5,,,58,64
229405,note_on,445,0,3,,,,,,,,2,,,58,0
229405,note_on,445,0,1,,,,,,,,0,,,58,0
229405,note_on,445,0,2,,,,,,,,1,,,58,0
229425,note_on,225,0,6,,,,,,,,5,,,58,0
229425,note_on,225,0,5,,,,,,,,4,,,58,0
229425,note_on,225,0,4,,,,,,,,3,,,74,0
229440,note_on,15,0,6,,,,,,,,5,,,53,64
229440,note_on,15,0,4,,,,,,,,3,,,69,64
229440,note_on,15,0,5,,,,,,,,4,,,53,64
229665,note_on,225,0,4,,,,,,,,3,,,69,0
229665,note_on,225,0,6,,,,,,,,5,,,53,0
229665,note_on,225,0,5,,,,,,,,4,,,53,0
229680,note_on,275,0,3,,,,,,,,2,,,60,64
229680,note_on,275,0,2,,,,,,,,1,,,60,64
229680,note_on,275,0,1,,,,,,,,0,,,60,64
229680,note_on,15,0,5,,,,,,,,4,,,51,64
229680,note_on,15,0,4,,,,,,,,3,,,67,64
229680,note_on,15,0,6,,,,,,,,5,,,51,64
229795,note_on,115,0,1,,,,,,,,0,,,60,0
229795,note_on,115,0,3,,,,,,,,2,,,60,0
229795,note_on,115,0,2,,,,,,,,1,,,60,0
229800,note_on,5,0,3,,,,,,,,2,,,62,64
229800,note_on,5,0,1,,,,,,,,0,,,62,64
229800,note_on,5,0,2,,,,,,,,1,,,62,64
229905,note_on,225,0,4,,,,,,,,3,,,67,0
229905,note_on,225,0,5,,,,,,,,4,,,51,0
229905,note_on,225,0,6,,,,,,,,5,,,51,0
229915,note_on,115,0,2,,,,,,,,1,,,62,0
229915,note_on,115,0,3,,,,,,,,2,,,62,0
229915,note_on,115,0,1,,,,,,,,0,,,62,0
229920,note_on,5,0,2,,,,,,,,1,,,63,64
229920,note_on,5,0,1,,,,,,,,0,,,63,64
229920,note_on,5,0,3,,,,,,,,2,,,63,64
229920,note_on,15,0,6,,,,,,,,5,,,50,64
229920,note_on,15,0,5,,,,,,,,4,,,50,64
229920,note_on,15,0,4,,,,,,,,3,,,65,64
230035,note_on,115,0,2,,,,,,,,1,,,63,0
230035,note_on,115,0,1,,,,,,,,0,,,63,0
230035,note_on,115,0,3,,,,,,,,2,,,63,0
230040,note_on,5,0,3,,,,,,,,2,,,65,64
230040,note_on,5,0,2,,,,,,,,1,,,65,64
230040,note_on,5,0,1,,,,,,,,0,,,65,64
230145,note_on,225,0,4,,,,,,,,3,,,65,0
230145,note_on,225,0,6,,,,,,,,5,,,50,0
230145,note_on,225,0,5,,,,,,,,4,,,50,0
230155,note_on,115,0,1,,,,,,,,0,,,65,0
230155,note_on,115,0,2,,,,,,,,1,,,65,0
230155,note_on,115,0,3,,,,,,,,2,,,65,0
230160,note_on,5,0,1,,,,,,,,0,,,67,64
230160,note_on,15,0,4,,,,,,,,3,,,63,64
230160,note_on,5,0,3,,,,,,,,2,,,67,64
230160,note_on,15,0,6,,,,,,,,5,,,48,64
230160,note_on,15,0,5,,,,,,,,4,,,48,64
230160,note_on,5,0,2,,,,,,,,1,,,67,64
230275,note_on,115,0,3,,,,,,,,2,,,67,0
230275,note_on,115,0,1,,,,,,,,0,,,67,0
230275,note_on,115,0,2,,,,,,,,1,,,67,0
230280,note_on,5,0,2,,,,,,,,1,,,69,64
230280,note_on,5,0,1,,,,,,,,0,,,69,64
230280,note_on,5,0,3,,,,,,,,2,,,69,64
230385,note_on,225,0,6,,,,,,,,5,,,48,0
230385,note_on,225,0,5,,,,,,,,4,,,48,0
230385,note_on,225,0,4,,,,,,,,3,,,63,0
230395,note_on,115,0,1,,,,,,,,0,,,69,0
230395,note_on,115,0,2,,,,,,,,1,,,69,0
230395,note_on,115,0,3,,,,,,,,2,,,69,0
230400,note_on,15,0,5,,,,,,,,4,,,46,64
230400,note_on,5,0,3,,,,,,,,2,,,70,80
230400,note_on,15,0,6,,,,,,,,5,,,46,64
230400,note_on,15,0,4,,,,,,,,3,,,62,64
230400,note_on,5,0,1,,,,,,,,0,,,70,80
230400,note_on,5,0,2,,,,,,,,1,,,70,80
230460,note_on,60,0,3,,,,,,,,2,,,70,0
230460,note_on,60,0,1,,,,,,,,0,,,70,0
230460,note_on,60,0,2,,,,,,,,1,,,70,0
230640,note_on,180,0,2,,,,,,,,1,,,58,64
230640,note_on,180,0,3,,,,,,,,2,,,58,64
230640,note_on,180,0,1,,,,,,,,0,,,58,64
230692,note_on,52,0,1,,,,,,,,0,,,58,0
230700,note_on,60,0,3,,,,,,,,2,,,58,0
230700,note_on,60,0,2,,,,,,,,1,,,58,0
230845,note_on,445,0,4,,,,,,,,3,,,62,0
230845,note_on,445,0,5,,,,,,,,4,,,46,0
230845,note_on,445,0,6,,,,,,,,5,,,46,0
230880,note_on,35,0,6,,,,,,,,5,,,51,64
230880,note_on,35,0,5,,,,,,,,4,,,51,64
230880,note_on,180,0,3,,,,,,,,2,,,60,64
230880,note_on,35,0,4,,,,,,,,3,,,55,64
230880,note_on,180,0,2,,,,,,,,1,,,60,64
230880,set_tempo,230880,1,0,,,,,,400000,,,,,,
230880,note_on,188,0,1,,,,,,,,0,,,60,64
230993,note_on,113,0,1,,,,,,,,0,,,60,0
231000,note_on,120,0,2,,,,,,,,1,,,60,0
231000,note_on,120,0,5,,,,,,,,4,,,51,0
231000,note_on,120,0,4,,,,,,,,3,,,55,0
231000,note_on,120,0,6,,,,,,,,5,,,51,0
231000,note_on,120,0,3,,,,,,,,2,,,60,0
231360,note_on,367,0,1,,,,,,,,0,,,57,64
231360,note_on,360,0,4,,,,,,,,3,,,48,64
231360,note_on,360,0,3,,,,,,,,2,,,57,64
231360,note_on,360,0,6,,,,,,,,5,,,51,64
231360,note_on,360,0,2,,,,,,,,1,,,57,64
231360,note_on,360,0,5,,,,,,,,4,,,51,64
231360,set_tempo,480,1,0,,,,,,545455,,,,,,
231473,note_on,113,0,1,,,,,,,,0,,,57,0
231480,note_on,120,0,3,,,,,,,,2,,,57,0
231480,note_on,120,0,6,,,,,,,,5,,,51,0
231480,note_on,120,0,4,,,,,,,,3,,,48,0
231480,note_on,120,0,2,,,,,,,,1,,,57,0
231480,note_on,120,0,5,,,,,,,,4,,,51,0
231656,set_tempo,296,1,0,,,,,,750000,,,,,,
231840,note_on,360,0,3,,,,,,,,2,,,58,64
231840,note_on,360,0,6,,,,,,,,5,,,46,64
231840,note_on,360,0,2,,,,,,,,1,,,58,64
231840,note_on,360,0,4,,,,,,,,3,,,50,64
231840,note_on,367,0,1,,,,,,,,0,,,58,64
231840,note_on,360,0,5,,,,,,,,4,,,46,64
233159,note_on,1319,0,1,,,,,,,,0,,,58,0
233165,note_on,1325,0,4,,,,,,,,3,,,50,0
233165,note_on,1325,0,5,,,,,,,,4,,,46,0
233165,note_on,1325,0,2,,,,,,,,1,,,58,0
233165,note_on,1325,0,3,,,,,,,,2,,,58,0
233165,note_on,1325,0,6,,,,,,,,5,,,46,0
234720,note_on,1555,0,5,,,,,,,,4,,,62,64
234720,note_on,1555,0,3,,,,,,,,2,,,69,64
234720,time_signature,3064,1,0,3,8,12,8,,,,,,,,
234720,set_tempo,0,1,0,,,,,,1500000,,,,,,
234720,marker,0,1,0,,,,,,,,,,,,
234720,note_on,1555,0,2,,,,,,,,1,,,74,64
234720,note_on,1561,0,1,,,,,,,,0,,,81,106
234720,note_on,1555,0,4,,,,,,,,3,,,65,64
234720,note_on,1555,0,6,,,,,,,,5,,,62,64
234945,note_on,225,0,6,,,,,,,,5,,,62,0
234945,note_on,225,0,5,,,,,,,,4,,,62,0
234945,note_on,225,0,1,,,,,,,,0,,,81,0
234960,note_on,15,0,6,,,,,,,,5,,,50,64
234960,note_on,15,0,5,,,,,,,,4,,,50,64
234960,note_on,15,0,1,,,,,,,,0,,,74,106
235075,note_on,115,0,1,,,,,,,,0,,,74,0
235080,note_on,5,0,1,,,,,,,,0,,,82,106
235165,note_on,445,0,4,,,,,,,,3,,,65,0
235165,note_on,445,0,2,,,,,,,,1,,,74,0
235165,note_on,445,0,3,,,,,,,,2,,,69,0
235185,note_on,225,0,5,,,,,,,,4,,,50,0
235185,note_on,225,0,6,,,,,,,,5,,,50,0
235195,note_on,115,0,1,,,,,,,,0,,,82,0
235200,note_on,35,0,3,,,,,,,,2,,,62,64
235200,note_on,35,0,4,,,,,,,,3,,,67,64
235200,note_on,15,0,5,,,,,,,,4,,,55,64
235200,note_on,5,0,1,,,,,,,,0,,,76,106
235200,note_on,15,0,6,,,,,,,,5,,,55,64
235200,note_on,35,0,2,,,,,,,,1,,,64,64
235425,note_on,225,0,6,,,,,,,,5,,,55,0
235425,note_on,225,0,5,,,,,,,,4,,,55,0
235425,note_on,225,0,1,,,,,,,,0,,,76,0
235440,note_on,15,0,5,,,,,,,,4,,,43,64
235440,note_on,15,0,6,,,,,,,,5,,,43,64
235440,note_on,15,0,1,,,,,,,,0,,,77,106
235555,note_on,115,0,1,,,,,,,,0,,,77,0
235560,note_on,5,0,1,,,,,,,,0,,,79,106
235645,note_on,445,0,4,,,,,,,,3,,,67,0
235645,note_on,445,0,3,,,,,,,,2,,,62,0
235645,note_on,445,0,2,,,,,,,,1,,,64,0
235665,note_on,225,0,5,,,,,,,,4,,,43,0
235665,note_on,225,0,6,,,,,,,,5,,,43,0
235675,note_on,115,0,1,,,,,,,,0,,,79,0
235680,note_on,35,0,4,,,,,,,,3,,,61,64
235680,note_on,15,0,5,,,,,,,,4,,,57,64
235680,note_on,15,0,6,,,,,,,,5,,,57,64
235680,note_on,35,0,3,,,,,,,,2,,,64,64
235680,note_on,5,0,1,,,,,,,,0,,,73,106
235680,note_on,35,0,2,,,,,,,,1,,,69,64
235905,note_on,225,0,1,,,,,,,,0,,,73,0
235905,note_on,225,0,6,,,,,,,,5,,,57,0
235905,note_on,225,0,5,,,,,,,,4,,,57,0
235905,note_on,225,0,2,,,,,,,,1,,,69,0
235905,note_on,225,0,4,,,,,,,,3,,,61,0
235920,note_on,15,0,6,,,,,,,,5,,,58,64
235920,note_on,15,0,1,,,,,,,,0,,,74,106
235920,note_on,15,0,4,,,,,,,,3,,,62,64
235920,note_on,15,0,5,,,,,,,,4,,,58,64
235920,note_on,15,0,2,,,,,,,,1,,,67,64
236125,note_on,445,0,3,,,,,,,,2,,,64,0
236145,note_on,225,0,2,,,,,,,,1,,,67,0
236145,note_on,225,0,5,,,,,,,,4,,,58,0
236145,note_on,225,0,1,,,,,,,,0,,,74,0
236145,note_on,225,0,4,,,,,,,,3,,,62,0
236145,note_on,225,0,6,,,,,,,,5,,,58,0
236400,note_on,255,0,1,,,,,,,,0,,,81,106
236400,note_on,255,0,6,,,,,,,,5,,,53,64
236400,note_on,275,0,3,,,,,,,,2,,,69,64
236400,note_on,255,0,2,,,,,,,,1,,,74,64
236400,note_on,255,0,5,,,,,,,,4,,,53,64
236400,note_on,255,0,4,,,,,,,,3,,,65,64
236625,note_on,225,0,2,,,,,,,,1,,,74,0
236625,note_on,225,0,6,,,,,,,,5,,,53,0
236625,note_on,225,0,4,,,,,,,,3,,,65,0
236625,note_on,225,0,3,,,,,,,,2,,,69,0
236625,note_on,225,0,1,,,,,,,,0,,,81,0
236625,note_on,225,0,5,,,,,,,,4,,,53,0
236640,note_on,15,0,6,,,,,,,,5,,,55,64
236640,note_on,15,0,3,,,,,,,,2,,,67,64
236640,note_on,15,0,1,,,,,,,,0,,,82,106
236640,note_on,15,0,4,,,,,,,,3,,,62,64
236640,note_on,15,0,2,,,,,,,,1,,,70,64
236640,note_on,15,0,5,,,,,,,,4,,,55,64
236865,note_on,225,0,1,,,,,,,,0,,,82,0
236865,note_on,225,0,5,,,,,,,,4,,,55,0
236865,note_on,225,0,6,,,,,,,,5,,,55,0
236880,note_on,15,0,5,,,,,,,,4,,,53,64
236880,note_on,15,0,1,,,,,,,,0,,,81,106
236880,note_on,15,0,6,,,,,,,,5,,,53,64
236995,note_on,115,0,1,,,,,,,,0,,,81,0
237000,note_on,5,0,1,,,,,,,,0,,,82,106
237085,note_on,445,0,4,,,,,,,,3,,,62,0
237085,note_on,445,0,2,,,,,,,,1,,,70,0
237085,note_on,445,0,3,,,,,,,,2,,,67,0
237105,note_on,225,0,6,,,,,,,,5,,,53,0
237105,note_on,225,0,5,,,,,,,,4,,,53,0
237115,note_on,115,0,1,,,,,,,,0,,,82,0
237120,note_on,15,0,5,,,,,,,,4,,,47,64
237120,note_on,15,0,6,,,,,,,,5,,,47,64
237120,note_on,35,0,3,,,,,,,,2,,,71,64
237120,note_on,35,0,2,,,,,,,,1,,,74,64
237120,note_on,5,0,1,,,,,,,,0,,,74,106
237120,note_on,35,0,4,,,,,,,,3,,,67,64
237345,note_on,225,0,5,,,,,,,,4,,,47,0
237345,note_on,225,0,1,,,,,,,,0,,,74,0
237345,note_on,225,0,6,,,,,,,,5,,,47,0
237360,note_on,15,0,5,,,,,,,,4,,,43,64
237360,note_on,15,0,6,,,,,,,,5,,,43,64
237360,note_on,15,0,1,,,,,,,,0,,,76,106
237455,note_on,335,0,4,,,,,,,,3,,,67,0
237475,note_on,115,0,1,,,,,,,,0,,,76,0
237480,note_on,25,0,4,,,,,,,,3,,,65,64
237480,note_on,5,0,1,,,,,,,,0,,,77,106
237565,note_on,445,0,3,,,,,,,,2,,,71,0
237565,note_on,445,0,2,,,,,,,,1,,,74,0
237585,note_on,225,0,6,,,,,,,,5,,,43,0
237585,note_on,225,0,5,,,,,,,,4,,,43,0
237595,note_on,115,0,4,,,,,,,,3,,,65,0
237595,note_on,115,0,1,,,,,,,,0,,,77,0
237600,note_on,5,0,4,,,,,,,,3,,,64,64
237600,note_on,5,0,1,,,,,,,,0,,,76,106
237600,note_on,35,0,3,,,,,,,,2,,,67,64
237600,note_on,15,0,6,,,,,,,,5,,,48,64
237600,note_on,35,0,2,,,,,,,,1,,,72,64
237600,note_on,15,0,5,,,,,,,,4,,,48,64
237715,note_on,115,0,1,,,,,,,,0,,,76,0
237720,note_on,5,0,1,,,,,,,,0,,,74,106
237825,note_on,225,0,5,,,,,,,,4,,,48,0
237825,note_on,225,0,6,,,,,,,,5,,,48,0
237835,note_on,115,0,1,,,,,,,,0,,,74,0
237840,note_on,15,0,5,,,,,,,,4,,,36,64
237840,note_on,15,0,6,,,,,,,,5,,,36,64
237840,note_on,5,0,1,,,,,,,,0,,,72,106
238045,note_on,445,0,3,,,,,,,,2,,,67,0
238045,note_on,445,0,2,,,,,,,,1,,,72,0
238045,note_on,445,0,4,,,,,,,,3,,,64,0
238065,note_on,225,0,6,,,,,,,,5,,,36,0
238065,note_on,225,0,1,,,,,,,,0,,,72,0
238065,note_on,225,0,5,,,,,,,,4,,,36,0
238320,note_on,275,0,2,,,,,,,,1,,,70,64
238320,note_on,255,0,1,,,,,,,,0,,,82,106
238320,note_on,275,0,3,,,,,,,,2,,,67,64
238320,note_on,255,0,5,,,,,,,,4,,,48,64
238320,note_on,255,0,6,,,,,,,,5,,,48,64
238320,note_on,275,0,4,,,,,,,,3,,,64,64
238545,note_on,225,0,3,,,,,,,,2,,,67,0
238545,note_on,225,0,6,,,,,,,,5,,,48,0
238545,note_on,225,0,2,,,,,,,,1,,,70,0
238545,note_on,225,0,1,,,,,,,,0,,,82,0
238545,note_on,225,0,4,,,,,,,,3,,,64,0
238545,note_on,225,0,5,,,,,,,,4,,,48,0
238560,note_on,15,0,3,,,,,,,,2,,,69,64
238560,note_on,15,0,2,,,,,,,,1,,,72,64
238560,note_on,15,0,5,,,,,,,,4,,,53,64
238560,note_on,15,0,6,,,,,,,,5,,,53,64
238560,note_on,15,0,4,,,,,,,,3,,,65,64
238560,note_on,15,0,1,,,,,,,,0,,,81,106
238675,note_on,115,0,1,,,,,,,,0,,,81,0
238675,note_on,115,0,6,,,,,,,,5,,,53,0
238675,note_on,115,0,5,,,,,,,,4,,,53,0
238680,note_on,5,0,6,,,,,,,,5,,,58,64
238680,note_on,5,0,5,,,,,,,,4,,,58,64
238680,note_on,5,0,1,,,,,,,,0,,,86,106
238785,note_on,225,0,4,,,,,,,,3,,,65,0
238785,note_on,225,0,2,,,,,,,,1,,,72,0
238785,note_on,225,0,3,,,,,,,,2,,,69,0
238795,note_on,115,0,1,,,,,,,,0,,,86,0
238795,note_on,115,0,6,,,,,,,,5,,,58,0
238795,note_on,115,0,5,,,,,,,,4,,,58,0
238800,note_on,5,0,1,,,,,,,,0,,,84,106
238800,note_on,15,0,2,,,,,,,,1,,,77,64
238800,note_on,15,0,3,,,,,,,,2,,,72,64
238800,note_on,15,0,4,,,,,,,,3,,,69,64
238800,note_on,5,0,5,,,,,,,,4,,,57,64
238800,note_on,5,0,6,,,,,,,,5,,,57,64
238915,note_on,115,0,6,,,,,,,,5,,,57,0
238915,note_on,115,0,5,,,,,,,,4,,,57,0
238915,note_on,115,0,1,,,,,,,,0,,,84,0
238920,note_on,5,0,5,,,,,,,,4,,,58,64
238920,note_on,5,0,6,,,,,,,,5,,,58,64
238920,note_on,5,0,1,,,,,,,,0,,,74,106
239025,note_on,225,0,2,,,,,,,,1,,,77,0
239025,note_on,225,0,4,,,,,,,,3,,,69,0
239025,note_on,225,0,3,,,,,,,,2,,,72,0
239035,note_on,115,0,1,,,,,,,,0,,,74,0
239035,note_on,115,0,5,,,,,,,,4,,,58,0
239035,note_on,115,0,6,,,,,,,,5,,,58,0
239040,note_on,5,0,5,,,,,,,,4,,,60,64
239040,note_on,15,0,4,,,,,,,,3,,,69,64
239040,note_on,15,0,2,,,,,,,,1,,,77,64
239040,note_on,15,0,3,,,,,,,,2,,,72,64
239040,note_on,5,0,1,,,,,,,,0,,,77,106
239040,note_on,5,0,6,,,,,,,,5,,,60,64
239070,note_on,0,0,1,,,,,,,,0,,,76,106
239070,note_on,30,0,1,,,,,,,,0,,,77,0
239100,note_on,0,0,1,,,,,,,,0,,,77,106
239100,note_on,30,0,1,,,,,,,,0,,,76,0
239130,note_on,30,0,1,,,,,,,,0,,,77,0
239130,note_on,0,0,1,,,,,,,,0,,,76,106
239160,note_on,0,0,1,,,,,,,,0,,,77,106
239160,note_on,30,0,1,,,,,,,,0,,,76,0
239190,note_on,0,0,1,,,,,,,,0,,,76,106
239190,note_on,30,0,1,,,,,,,,0,,,77,0
239220,note_on,0,0,1,,,,,,,,0,,,77,106
239220,note_on,30,0,1,,,,,,,,0,,,76,0
239250,note_on,0,0,1,,,,,,,,0,,,76,106
239250,note_on,30,0,1,,,,,,,,0,,,77,0
239265,note_on,225,0,4,,,,,,,,3,,,69,0
239265,note_on,225,0,3,,,,,,,,2,,,72,0
239265,note_on,225,0,6,,,,,,,,5,,,60,0
239265,note_on,225,0,5,,,,,,,,4,,,60,0
239265,note_on,225,0,2,,,,,,,,1,,,77,0
239280,note_on,15,0,2,,,,,,,,1,,,76,64
239280,note_on,15,0,3,,,,,,,,2,,,72,64
239280,note_on,15,0,4,,,,,,,,3,,,67,64
239280,note_on,15,0,6,,,,,,,,5,,,48,64
239280,note_on,15,0,5,,,,,,,,4,,,48,64
239395,note_on,145,0,1,,,,,,,,0,,,76,0
239400,note_on,5,0,1,,,,,,,,0,,,77,106
239505,note_on,225,0,2,,,,,,,,1,,,76,0
239505,note_on,225,0,3,,,,,,,,2,,,72,0
239505,note_on,225,0,4,,,,,,,,3,,,67,0
239505,note_on,225,0,6,,,,,,,,5,,,48,0
239505,note_on,225,0,5,,,,,,,,4,,,48,0
239515,note_on,115,0,1,,,,,,,,0,,,77,0
239520,note_on,15,0,4,,,,,,,,3,,,69,64
239520,note_on,15,0,6,,,,,,,,5,,,53,64
239520,note_on,5,0,1,,,,,,,,0,,,77,106
239520,note_on,15,0,3,,,,,,,,2,,,72,64
239520,note_on,15,0,2,,,,,,,,1,,,77,64
239520,note_on,15,0,5,,,,,,,,4,,,53,64
240000,note_on,480,0,2,,,,,,,,1,,,77,0
240000,note_on,480,0,6,,,,,,,,5,,,53,0
240000,note_on,480,0,3,,,,,,,,2,,,72,0
240000,note_on,480,0,1,,,,,,,,0,,,77,0
240000,note_on,480,0,5,,,,,,,,4,,,53,0
240000,note_on,480,0,4,,,,,,,,3,,,69,0
240480,note_on,480,0,5,,,,,,,,4,,,62,64
240480,note_on,480,0,3,,,,,,,,2,,,69,64
240480,note_on,480,0,1,,,,,,,,0,,,81,106
240480,note_on,480,0,4,,,,,,,,3,,,65,64
240480,note_on,480,0,2,,,,,,,,1,,,74,64
240480,note_on,480,0,6,,,,,,,,5,,,62,64
240705,note_on,225,0,5,,,,,,,,4,,,62,0
240705,note_on,225,0,1,,,,,,,,0,,,81,0
240705,note_on,225,0,6,,,,,,,,5,,,62,0
240720,note_on,15,0,5,,,,,,,,4,,,50,64
240720,note_on,15,0,1,,,,,,,,0,,,74,106
240720,note_on,15,0,6,,,,,,,,5,,,50,64
240780,note_on,60,0,1,,,,,,,,0,,,74,0
240780,note_on,0,0,1,,,,,,,,0,,,79,106
240840,note_on,60,0,1,,,,,,,,0,,,79,0
240840,note_on,0,0,1,,,,,,,,0,,,82,106
240925,note_on,445,0,4,,,,,,,,3,,,65,0
240925,note_on,445,0,3,,,,,,,,2,,,69,0
240925,note_on,445,0,2,,,,,,,,1,,,74,0
240945,note_on,225,0,6,,,,,,,,5,,,50,0
240945,note_on,225,0,5,,,,,,,,4,,,50,0
240955,note_on,115,0,1,,,,,,,,0,,,82,0
240960,note_on,5,0,1,,,,,,,,0,,,76,106
240960,note_on,15,0,6,,,,,,,,5,,,55,64
240960,note_on,15,0,5,,,,,,,,4,,,55,64
240960,note_on,35,0,3,,,,,,,,2,,,62,64
240960,note_on,35,0,4,,,,,,,,3,,,67,64
240960,note_on,35,0,2,,,,,,,,1,,,64,64
241130,note_on,170,0,1,,,,,,,,0,,,76,0
241140,note_on,10,0,1,,,,,,,,0,,,77,106
241170,note_on,0,0,1,,,,,,,,0,,,76,106
241170,note_on,30,0,1,,,,,,,,0,,,77,0
241185,note_on,225,0,5,,,,,,,,4,,,55,0
241185,note_on,225,0,6,,,,,,,,5,,,55,0
241200,note_on,15,0,5,,,,,,,,4,,,43,64
241200,note_on,0,0,1,,,,,,,,0,,,77,106
241200,note_on,15,0,6,,,,,,,,5,,,43,64
241200,note_on,30,0,1,,,,,,,,0,,,76,0
241315,note_on,115,0,1,,,,,,,,0,,,77,0
241320,note_on,5,0,1,,,,,,,,0,,,79,106
241405,note_on,445,0,2,,,,,,,,1,,,64,0
241405,note_on,445,0,3,,,,,,,,2,,,62,0
241405,note_on,445,0,4,,,,,,,,3,,,67,0
241425,note_on,225,0,5,,,,,,,,4,,,43,0
241425,note_on,225,0,6,,,,,,,,5,,,43,0
241435,note_on,115,0,1,,,,,,,,0,,,79,0
241440,note_on,35,0,4,,,,,,,,3,,,61,64
241440,note_on,35,0,3,,,,,,,,2,,,64,64
241440,note_on,15,0,5,,,,,,,,4,,,57,64
241440,note_on,35,0,2,,,,,,,,1,,,69,64
241440,note_on,15,0,6,,,,,,,,5,,,57,64
241440,note_on,5,0,1,,,,,,,,0,,,73,106
241480,note_on,0,0,1,,,,,,,,0,,,74,106
241480,note_on,40,0,1,,,,,,,,0,,,73,0
241520,note_on,0,0,1,,,,,,,,0,,,73,106
241520,note_on,40,0,1,,,,,,,,0,,,74,0
241560,note_on,0,0,1,,,,,,,,0,,,71,106
241560,note_on,40,0,1,,,,,,,,0,,,73,0
241620,note_on,0,0,1,,,,,,,,0,,,73,106
241620,note_on,60,0,1,,,,,,,,0,,,71,0
241665,note_on,225,0,2,,,,,,,,1,,,69,0
241665,note_on,225,0,6,,,,,,,,5,,,57,0
241665,note_on,225,0,5,,,,,,,,4,,,57,0
241680,note_on,15,0,6,,,,,,,,5,,,58,64
241680,note_on,15,0,5,,,,,,,,4,,,58,64
241680,note_on,60,0,1,,,,,,,,0,,,73,0
241680,note_on,0,0,1,,,,,,,,0,,,74,106
241680,note_on,15,0,2,,,,,,,,1,,,67,64
241885,note_on,445,0,4,,,,,,,,3,,,61,0
241885,note_on,445,0,3,,,,,,,,2,,,64,0
241905,note_on,225,0,5,,,,,,,,4,,,58,0
241905,note_on,225,0,6,,,,,,,,5,,,58,0
241905,note_on,225,0,1,,,,,,,,0,,,74,0
241905,note_on,225,0,2,,,,,,,,1,,,67,0
242160,note_on,255,0,2,,,,,,,,1,,,74,64
242160,note_on,255,0,5,,,,,,,,4,,,53,64
242160,note_on,255,0,1,,,,,,,,0,,,81,106
242160,note_on,255,0,6,,,,,,,,5,,,53,64
242160,note_on,275,0,3,,,,,,,,2,,,69,64
242160,note_on,275,0,4,,,,,,,,3,,,65,64
242190,note_on,0,0,1,,,,,,,,0,,,82,106
242190,note_on,30,0,1,,,,,,,,0,,,81,0
242220,note_on,30,0,1,,,,,,,,0,,,82,0
242220,note_on,0,0,1,,,,,,,,0,,,81,106
242385,note_on,225,0,6,,,,,,,,5,,,53,0
242385,note_on,225,0,4,,,,,,,,3,,,65,0
242385,note_on,225,0,2,,,,,,,,1,,,74,0
242385,note_on,225,0,3,,,,,,,,2,,,69,0
242385,note_on,225,0,5,,,,,,,,4,,,53,0
242390,note_on,170,0,1,,,,,,,,0,,,81,0
242400,note_on,10,0,1,,,,,,,,0,,,82,106
242400,note_on,15,0,4,,,,,,,,3,,,62,64
242400,note_on,15,0,3,,,,,,,,2,,,67,64
242400,note_on,15,0,6,,,,,,,,5,,,55,64
242400,note_on,15,0,2,,,,,,,,1,,,70,64
242400,note_on,15,0,5,,,,,,,,4,,,55,64
242625,note_on,225,0,5,,,,,,,,4,,,55,0
242625,note_on,225,0,1,,,,,,,,0,,,82,0
242625,note_on,225,0,6,,,,,,,,5,,,55,0
242640,note_on,15,0,1,,,,,,,,0,,,81,106
242640,note_on,15,0,6,,,,,,,,5,,,53,64
242640,note_on,15,0,5,,,,,,,,4,,,53,64
242755,note_on,115,0,1,,,,,,,,0,,,81,0
242760,note_on,5,0,1,,,,,,,,0,,,82,106
242845,note_on,445,0,2,,,,,,,,1,,,70,0
242845,note_on,445,0,3,,,,,,,,2,,,67,0
242845,note_on,445,0,4,,,,,,,,3,,,62,0
242865,note_on,225,0,5,,,,,,,,4,,,53,0
242865,note_on,225,0,6,,,,,,,,5,,,53,0
242875,note_on,115,0,1,,,,,,,,0,,,82,0
242880,note_on,15,0,6,,,,,,,,5,,,47,64
242880,note_on,15,0,5,,,,,,,,4,,,47,64
242880,note_on,35,0,3,,,,,,,,2,,,71,64
242880,note_on,5,0,1,,,,,,,,0,,,74,106
242880,note_on,35,0,2,,,,,,,,1,,,74,64
242880,note_on,35,0,4,,,,,,,,3,,,67,64
243050,note_on,170,0,1,,,,,,,,0,,,74,0
243060,note_on,10,0,1,,,,,,,,0,,,76,106
243090,note_on,30,0,1,,,,,,,,0,,,76,0
243090,note_on,0,0,1,,,,,,,,0,,,74,106
243105,note_on,225,0,5,,,,,,,,4,,,47,0
243105,note_on,225,0,6,,,,,,,,5,,,47,0
243120,note_on,30,0,1,,,,,,,,0,,,74,0
243120,note_on,0,0,1,,,,,,,,0,,,76,106
243120,note_on,15,0,5,,,,,,,,4,,,43,64
243120,note_on,15,0,6,,,,,,,,5,,,43,64
243215,note_on,335,0,4,,,,,,,,3,,,67,0
243235,note_on,115,0,1,,,,,,,,0,,,76,0
243240,note_on,25,0,4,,,,,,,,3,,,65,64
243240,note_on,5,0,1,,,,,,,,0,,,77,106
243325,note_on,445,0,3,,,,,,,,2,,,71,0
243325,note_on,445,0,2,,,,,,,,1,,,74,0
243345,note_on,225,0,5,,,,,,,,4,,,43,0
243345,note_on,225,0,6,,,,,,,,5,,,43,0
243355,note_on,115,0,4,,,,,,,,3,,,65,0
243355,note_on,115,0,1,,,,,,,,0,,,77,0
243360,note_on,35,0,3,,,,,,,,2,,,67,64
243360,note_on,35,0,2,,,,,,,,1,,,72,64
243360,note_on,5,0,4,,,,,,,,3,,,64,64
243360,note_on,15,0,6,,,,,,,,5,,,48,64
243360,note_on,5,0,1,,,,,,,,0,,,76,106
243360,note_on,15,0,5,,,,,,,,4,,,48,64
243400,note_on,40,0,1,,,,,,,,0,,,76,0
243400,note_on,0,0,1,,,,,,,,0,,,77,106
243440,note_on,0,0,1,,,,,,,,0,,,76,106
243440,note_on,40,0,1,,,,,,,,0,,,77,0
243480,note_on,40,0,1,,,,,,,,0,,,76,0
243480,note_on,0,0,1,,,,,,,,0,,,74,106
243520,note_on,40,0,1,,,,,,,,0,,,74,0
243520,note_on,0,0,1,,,,,,,,0,,,76,106
243560,note_on,40,0,1,,,,,,,,0,,,76,0
243560,note_on,0,0,1,,,,,,,,0,,,74,106
243585,note_on,225,0,5,,,,,,,,4,,,48,0
243585,note_on,225,0,6,,,,,,,,5,,,48,0
243600,note_on,15,0,5,,,,,,,,4,,,36,64
243600,note_on,15,0,6,,,,,,,,5,,,36,64
243600,note_on,0,0,1,,,,,,,,0,,,72,106
243600,note_on,40,0,1,,,,,,,,0,,,74,0
243630,note_on,30,0,1,,,,,,,,0,,,72,0
243630,note_on,0,0,1,,,,,,,,0,,,71,106
243660,note_on,30,0,1,,,,,,,,0,,,71,0
243660,note_on,0,0,1,,,,,,,,0,,,72,106
243805,note_on,445,0,4,,,,,,,,3,,,64,0
243805,note_on,445,0,2,,,,,,,,1,,,72,0
243805,note_on,445,0,3,,,,,,,,2,,,67,0
243825,note_on,225,0,6,,,,,,,,5,,,36,0
243825,note_on,225,0,5,,,,,,,,4,,,36,0
243830,note_on,170,0,1,,,,,,,,0,,,72,0
244080,note_on,255,0,5,,,,,,,,4,,,48,64
244080,note_on,250,0,1,,,,,,,,0,,,82,106
244080,note_on,275,0,4,,,,,,,,3,,,64,64
244080,note_on,255,0,6,,,,,,,,5,,,48,64
244080,note_on,275,0,2,,,,,,,,1,,,70,64
244080,note_on,275,0,3,,,,,,,,2,,,67,64
244110,note_on,30,0,1,,,,,,,,0,,,82,0
244110,note_on,0,0,1,,,,,,,,0,,,81,106
244140,note_on,0,0,1,,,,,,,,0,,,82,106
244140,note_on,30,0,1,,,,,,,,0,,,81,0
244305,note_on,225,0,6,,,,,,,,5,,,48,0
244305,note_on,225,0,5,,,,,,,,4,,,48,0
244305,note_on,225,0,2,,,,,,,,1,,,70,0
244305,note_on,225,0,3,,,,,,,,2,,,67,0
244305,note_on,225,0,4,,,,,,,,3,,,64,0
244310,note_on,170,0,1,,,,,,,,0,,,82,0
244320,note_on,15,0,4,,,,,,,,3,,,65,64
244320,note_on,15,0,2,,,,,,,,1,,,72,64
244320,note_on,15,0,3,,,,,,,,2,,,69,64
244320,note_on,10,0,1,,,,,,,,0,,,81,106
244320,note_on,15,0,6,,,,,,,,5,,,53,64
244320,note_on,15,0,5,,,,,,,,4,,,53,64
244435,note_on,115,0,6,,,,,,,,5,,,53,0
244435,note_on,115,0,1,,,,,,,,0,,,81,0
244435,note_on,115,0,5,,,,,,,,4,,,53,0
244440,note_on,5,0,5,,,,,,,,4,,,58,64
244440,note_on,5,0,6,,,,,,,,5,,,58,64
244440,note_on,5,0,1,,,,,,,,0,,,86,106
244545,note_on,225,0,3,,,,,,,,2,,,69,0
244545,note_on,225,0,4,,,,,,,,3,,,65,0
244545,note_on,225,0,2,,,,,,,,1,,,72,0
244555,note_on,115,0,6,,,,,,,,5,,,58,0
244555,note_on,115,0,1,,,,,,,,0,,,86,0
244555,note_on,115,0,5,,,,,,,,4,,,58,0
244560,note_on,5,0,6,,,,,,,,5,,,57,64
244560,note_on,15,0,4,,,,,,,,3,,,69,64
244560,note_on,15,0,2,,,,,,,,1,,,77,64
244560,note_on,5,0,1,,,,,,,,0,,,84,106
244560,note_on,5,0,5,,,,,,,,4,,,57,64
244560,note_on,15,0,3,,,,,,,,2,,,72,64
244590,note_on,30,0,1,,,,,,,,0,,,84,0
244590,note_on,0,0,1,,,,,,,,0,,,82,106
244620,note_on,30,0,1,,,,,,,,0,,,82,0
244620,note_on,0,0,1,,,,,,,,0,,,81,106
244650,note_on,30,0,1,,,,,,,,0,,,81,0
244650,note_on,0,0,1,,,,,,,,0,,,79,106
244675,note_on,115,0,5,,,,,,,,4,,,57,0
244675,note_on,115,0,6,,,,,,,,5,,,57,0
244680,note_on,5,0,5,,,,,,,,4,,,58,64
244680,note_on,0,0,1,,,,,,,,0,,,77,106
244680,note_on,30,0,1,,,,,,,,0,,,79,0
244680,note_on,5,0,6,,,,,,,,5,,,58,64
244710,note_on,0,0,1,,,,,,,,0,,,76,106
244710,note_on,30,0,1,,,,,,,,0,,,77,0
244740,note_on,30,0,1,,,,,,,,0,,,76,0
244740,note_on,0,0,1,,,,,,,,0,,,74,106
244770,note_on,30,0,1,,,,,,,,0,,,74,0
244770,note_on,0,0,1,,,,,,,,0,,,76,106
244785,note_on,225,0,2,,,,,,,,1,,,77,0
244785,note_on,225,0,4,,,,,,,,3,,,69,0
244785,note_on,225,0,3,,,,,,,,2,,,72,0
244795,note_on,115,0,5,,,,,,,,4,,,58,0
244795,note_on,115,0,6,,,,,,,,5,,,58,0
244800,note_on,30,0,1,,,,,,,,0,,,76,0
244800,note_on,0,0,1,,,,,,,,0,,,77,106
244800,note_on,15,0,4,,,,,,,,3,,,69,64
244800,note_on,5,0,6,,,,,,,,5,,,60,64
244800,note_on,15,0,3,,,,,,,,2,,,72,64
244800,note_on,5,0,5,,,,,,,,4,,,60,64
244800,note_on,15,0,2,,,,,,,,1,,,77,64
244830,note_on,0,0,1,,,,,,,,0,,,76,106
244830,note_on,30,0,1,,,,,,,,0,,,77,0
244860,note_on,30,0,1,,,,,,,,0,,,76,0
244860,note_on,0,0,1,,,,,,,,0,,,77,106
244890,note_on,30,0,1,,,,,,,,0,,,77,0
244890,note_on,0,0,1,,,,,,,,0,,,76,106
244920,note_on,0,0,1,,,,,,,,0,,,77,106
244920,note_on,30,0,1,,,,,,,,0,,,76,0
244950,note_on,0,0,1,,,,,,,,0,,,76,106
244950,note_on,30,0,1,,,,,,,,0,,,77,0
244980,note_on,0,0,1,,,,,,,,0,,,74,106
244980,note_on,30,0,1,,,,,,,,0,,,76,0
245010,note_on,30,0,1,,,,,,,,0,,,74,0
245010,note_on,0,0,1,,,,,,,,0,,,76,106
245025,note_on,225,0,5,,,,,,,,4,,,60,0
245025,note_on,225,0,2,,,,,,,,1,,,77,0
245025,note_on,225,0,6,,,,,,,,5,,,60,0
245025,note_on,225,0,3,,,,,,,,2,,,72,0
245025,note_on,225,0,4,,,,,,,,3,,,69,0
245040,note_on,15,0,5,,,,,,,,4,,,48,64
245040,note_on,15,0,3,,,,,,,,2,,,72,64
245040,note_on,15,0,4,,,,,,,,3,,,67,64
245040,note_on,15,0,2,,,,,,,,1,,,76,64
245040,note_on,15,0,6,,,,,,,,5,,,48,64
245155,note_on,145,0,1,,,,,,,,0,,,76,0
245160,note_on,5,0,1,,,,,,,,0,,,77,106
245265,note_on,225,0,3,,,,,,,,2,,,72,0
245265,note_on,225,0,4,,,,,,,,3,,,67,0
245265,note_on,225,0,6,,,,,,,,5,,,48,0
245265,note_on,225,0,2,,,,,,,,1,,,76,0
245265,note_on,225,0,5,,,,,,,,4,,,48,0
245275,note_on,115,0,1,,,,,,,,0,,,77,0
245280,note_on,15,0,4,,,,,,,,3,,,69,64
245280,note_on,15,0,5,,,,,,,,4,,,53,64
245280,note_on,15,0,6,,,,,,,,5,,,53,64
245280,note_on,5,0,1,,,,,,,,0,,,77,106
245280,note_on,15,0,3,,,,,,,,2,,,72,64
245280,note_on,15,0,2,,,,,,,,1,,,77,64
245310,note_on,0,0,1,,,,,,,,0,,,76,106
245310,note_on,30,0,1,,,,,,,,0,,,77,0
245340,note_on,30,0,1,,,,,,,,0,,,76,0
245340,note_on,0,0,1,,,,,,,,0,,,77,106
245874,note_on,594,0,2,,,,,,,,1,,,77,0
245874,note_on,594,0,6,,,,,,,,5,,,53,0
245874,note_on,594,0,5,,,,,,,,4,,,53,0
245874,note_on,594,0,3,,,,,,,,2,,,72,0
245874,note_on,594,0,4,,,,,,,,3,,,69,0
245875,note_on,535,0,1,,,,,,,,0,,,77,0
246240,note_on,365,0,1,,,,,,,,0,,,81,106
246240,note_on,366,0,6,,,,,,,,5,,,54,64
246240,note_on,366,0,2,,,,,,,,1,,,74,64
246240,note_on,366,0,4,,,,,,,,3,,,66,64
246240,note_on,366,0,3,,,,,,,,2,,,69,64
246240,note_on,366,0,5,,,,,,,,4,,,54,64
246465,note_on,225,0,1,,,,,,,,0,,,81,0
246465,note_on,225,0,5,,,,,,,,4,,,54,0
246465,note_on,225,0,6,,,,,,,,5,,,54,0
246480,note_on,15,0,1,,,,,,,,0,,,78,106
246480,note_on,15,0,6,,,,,,,,5,,,50,64
246480,note_on,15,0,5,,,,,,,,4,,,50,64
246595,note_on,115,0,1,,,,,,,,0,,,78,0
246600,note_on,5,0,1,,,,,,,,0,,,81,106
246685,note_on,445,0,2,,,,,,,,1,,,74,0
246685,note_on,445,0,4,,,,,,,,3,,,66,0
246685,note_on,445,0,3,,,,,,,,2,,,69,0
246705,note_on,225,0,6,,,,,,,,5,,,50,0
246705,note_on,225,0,5,,,,,,,,4,,,50,0
246715,note_on,115,0,1,,,,,,,,0,,,81,0
246720,note_on,15,0,6,,,,,,,,5,,,57,64
246720,note_on,15,0,5,,,,,,,,4,,,57,64
246720,note_on,35,0,3,,,,,,,,2,,,69,64
246720,note_on,35,0,4,,,,,,,,3,,,66,64
246720,note_on,35,0,2,,,,,,,,1,,,72,64
246720,note_on,5,0,1,,,,,,,,0,,,72,106
246945,note_on,225,0,6,,,,,,,,5,,,57,0
246945,note_on,225,0,5,,,,,,,,4,,,57,0
246945,note_on,225,0,1,,,,,,,,0,,,72,0
246960,note_on,15,0,6,,,,,,,,5,,,54,64
246960,note_on,15,0,5,,,,,,,,4,,,54,64
246960,note_on,15,0,1,,,,,,,,0,,,81,106
247165,note_on,445,0,3,,,,,,,,2,,,69,0
247165,note_on,445,0,2,,,,,,,,1,,,72,0
247165,note_on,445,0,4,,,,,,,,3,,,66,0
247185,note_on,225,0,1,,,,,,,,0,,,81,0
247185,note_on,225,0,6,,,,,,,,5,,,54,0
247185,note_on,225,0,5,,,,,,,,4,,,54,0
247200,note_on,15,0,5,,,,,,,,4,,,55,64
247200,note_on,15,0,6,,,,,,,,5,,,55,64
247200,note_on,35,0,3,,,,,,,,2,,,67,64
247200,note_on,35,0,2,,,,,,,,1,,,70,64
247200,note_on,35,0,4,,,,,,,,3,,,62,64
247200,note_on,15,0,1,,,,,,,,0,,,82,106
247315,note_on,115,0,1,,,,,,,,0,,,82,0
247320,note_on,5,0,1,,,,,,,,0,,,81,106
247425,note_on,225,0,6,,,,,,,,5,,,55,0
247425,note_on,225,0,5,,,,,,,,4,,,55,0
247435,note_on,115,0,1,,,,,,,,0,,,81,0
247440,note_on,15,0,5,,,,,,,,4,,,43,64
247440,note_on,15,0,6,,,,,,,,5,,,43,64
247440,note_on,5,0,1,,,,,,,,0,,,79,106
247665,note_on,225,0,5,,,,,,,,4,,,43,0
247665,note_on,225,0,1,,,,,,,,0,,,79,0
247665,note_on,225,0,6,,,,,,,,5,,,43,0
247865,note_on,665,0,3,,,,,,,,2,,,67,0
247865,note_on,665,0,4,,,,,,,,3,,,62,0
247865,note_on,665,0,2,,,,,,,,1,,,70,0
247920,note_on,55,0,2,,,,,,,,1,,,73,64
247920,note_on,55,0,4,,,,,,,,3,,,63,64
247920,note_on,255,0,1,,,,,,,,0,,,73,106
247920,note_on,255,0,5,,,,,,,,4,,,51,64
247920,note_on,55,0,3,,,,,,,,2,,,67,64
247920,note_on,255,0,6,,,,,,,,5,,,51,64
248145,note_on,225,0,6,,,,,,,,5,,,51,0
248145,note_on,225,0,4,,,,,,,,3,,,63,0
248145,note_on,225,0,5,,,,,,,,4,,,51,0
248145,note_on,225,0,2,,,,,,,,1,,,73,0
248145,note_on,225,0,1,,,,,,,,0,,,73,0
248145,note_on,225,0,3,,,,,,,,2,,,67,0
248160,note_on,15,0,3,,,,,,,,2,,,69,64
248160,note_on,15,0,5,,,,,,,,4,,,50,64
248160,note_on,15,0,4,,,,,,,,3,,,65,64
248160,note_on,15,0,1,,,,,,,,0,,,74,106
248160,note_on,15,0,6,,,,,,,,5,,,50,64
248160,note_on,15,0,2,,,,,,,,1,,,74,64
248275,note_on,115,0,1,,,,,,,,0,,,74,0
248280,note_on,5,0,1,,,,,,,,0,,,82,106
248385,note_on,225,0,3,,,,,,,,2,,,69,0
248385,note_on,225,0,4,,,,,,,,3,,,65,0
248385,note_on,225,0,5,,,,,,,,4,,,50,0
248385,note_on,225,0,6,,,,,,,,5,,,50,0
248385,note_on,225,0,2,,,,,,,,1,,,74,0
248395,note_on,115,0,1,,,,,,,,0,,,82,0
248400,note_on,15,0,6,,,,,,,,5,,,48,64
248400,note_on,15,0,2,,,,,,,,1,,,75,64
248400,note_on,15,0,5,,,,,,,,4,,,48,64
248400,note_on,5,0,1,,,,,,,,0,,,81,106
248400,note_on,15,0,3,,,,,,,,2,,,69,64
248400,note_on,15,0,4,,,,,,,,3,,,67,64
248515,note_on,115,0,1,,,,,,,,0,,,81,0
248520,note_on,5,0,1,,,,,,,,0,,,79,106
248625,note_on,225,0,4,,,,,,,,3,,,67,0
248625,note_on,225,0,2,,,,,,,,1,,,75,0
248625,note_on,225,0,6,,,,,,,,5,,,48,0
248625,note_on,225,0,5,,,,,,,,4,,,48,0
248625,note_on,225,0,3,,,,,,,,2,,,69,0
248635,note_on,115,0,1,,,,,,,,0,,,79,0
248640,note_on,15,0,6,,,,,,,,5,,,50,64
248640,note_on,15,0,2,,,,,,,,1,,,74,64
248640,note_on,15,0,5,,,,,,,,4,,,50,64
248640,note_on,15,0,3,,,,,,,,2,,,70,64
248640,note_on,5,0,1,,,,,,,,0,,,79,106
248640,note_on,15,0,4,,,,,,,,3,,,67,64
248670,note_on,30,0,1,,,,,,,,0,,,79,0
248670,note_on,0,0,1,,,,,,,,0,,,78,106
248700,note_on,30,0,1,,,,,,,,0,,,78,0
248700,note_on,0,0,1,,,,,,,,0,,,79,106
248730,note_on,0,0,1,,,,,,,,0,,,78,106
248730,note_on,30,0,1,,,,,,,,0,,,79,0
248760,note_on,30,0,1,,,,,,,,0,,,78,0
248760,note_on,0,0,1,,,,,,,,0,,,79,106
248790,note_on,30,0,1,,,,,,,,0,,,79,0
248790,note_on,0,0,1,,,,,,,,0,,,78,106
248820,note_on,0,0,1,,,,,,,,0,,,79,106
248820,note_on,30,0,1,,,,,,,,0,,,78,0
248850,note_on,30,0,1,,,,,,,,0,,,79,0
248850,note_on,0,0,1,,,,,,,,0,,,78,106
248865,note_on,225,0,4,,,,,,,,3,,,67,0
248865,note_on,225,0,3,,,,,,,,2,,,70,0
248865,note_on,225,0,6,,,,,,,,5,,,50,0
248865,note_on,225,0,5,,,,,,,,4,,,50,0
248880,note_on,15,0,4,,,,,,,,3,,,66,64
248880,note_on,15,0,5,,,,,,,,4,,,38,64
248880,note_on,15,0,3,,,,,,,,2,,,69,64
248880,note_on,15,0,6,,,,,,,,5,,,38,64
248995,note_on,145,0,1,,,,,,,,0,,,78,0
249000,note_on,5,0,1,,,,,,,,0,,,79,106
249105,note_on,225,0,5,,,,,,,,4,,,38,0
249105,note_on,225,0,4,,,,,,,,3,,,66,0
249105,note_on,465,0,2,,,,,,,,1,,,74,0
249105,note_on,225,0,6,,,,,,,,5,,,38,0
249105,note_on,225,0,3,,,,,,,,2,,,69,0
249115,note_on,115,0,1,,,,,,,,0,,,79,0
249120,note_on,15,0,4,,,,,,,,3,,,62,64
249120,note_on,15,0,5,,,,,,,,4,,,43,64
249120,note_on,15,0,3,,,,,,,,2,,,67,64
249120,note_on,15,0,2,,,,,,,,1,,,70,64
249120,note_on,15,0,6,,,,,,,,5,,,43,64
249120,note_on,5,0,1,,,,,,,,0,,,79,106
249565,note_on,445,0,3,,,,,,,,2,,,67,0
249565,note_on,445,0,6,,,,,,,,5,,,43,0
249565,note_on,445,0,4,,,,,,,,3,,,62,0
249565,note_on,445,0,2,,,,,,,,1,,,70,0
249565,note_on,445,0,5,,,,,,,,4,,,43,0
249565,note_on,445,0,1,,,,,,,,0,,,79,0
249840,note_on,275,0,1,,,,,,,,0,,,74,106
249840,note_on,275,0,3,,,,,,,,2,,,70,64
249840,note_on,275,0,2,,,,,,,,1,,,74,64
249840,note_on,275,0,5,,,,,,,,4,,,55,64
249840,note_on,275,0,4,,,,,,,,3,,,67,64
249840,note_on,275,0,6,,,,,,,,5,,,55,64
250065,note_on,225,0,2,,,,,,,,1,,,74,0
250065,note_on,225,0,4,,,,,,,,3,,,67,0
250065,note_on,225,0,3,,,,,,,,2,,,70,0
250065,note_on,225,0,5,,,,,,,,4,,,55,0
250065,note_on,225,0,6,,,,,,,,5,,,55,0
250065,note_on,225,0,1,,,,,,,,0,,,74,0
250080,note_on,15,0,5,,,,,,,,4,,,53,64
250080,note_on,15,0,6,,,,,,,,5,,,53,64
250080,note_on,15,0,4,,,,,,,,3,,,65,64
250080,note_on,15,0,1,,,,,,,,0,,,81,106
250080,note_on,15,0,2,,,,,,,,1,,,74,64
250080,note_on,15,0,3,,,,,,,,2,,,69,64
250305,note_on,225,0,5,,,,,,,,4,,,53,0
250305,note_on,225,0,1,,,,,,,,0,,,81,0
250305,note_on,225,0,6,,,,,,,,5,,,53,0
250320,note_on,15,0,5,,,,,,,,4,,,50,64
250320,note_on,15,0,1,,,,,,,,0,,,74,106
250320,note_on,15,0,6,,,,,,,,5,,,50,64
250435,note_on,115,0,1,,,,,,,,0,,,74,0
250440,note_on,5,0,1,,,,,,,,0,,,82,106
250525,note_on,445,0,3,,,,,,,,2,,,69,0
250525,note_on,445,0,2,,,,,,,,1,,,74,0
250525,note_on,445,0,4,,,,,,,,3,,,65,0
250545,note_on,225,0,6,,,,,,,,5,,,50,0
250545,note_on,225,0,5,,,,,,,,4,,,50,0
250555,note_on,115,0,1,,,,,,,,0,,,82,0
250560,note_on,5,0,1,,,,,,,,0,,,76,106
250560,note_on,35,0,3,,,,,,,,2,,,74,64
250560,note_on,15,0,6,,,,,,,,5,,,55,64
250560,note_on,15,0,5,,,,,,,,4,,,55,64
250560,note_on,35,0,2,,,,,,,,1,,,76,64
250785,note_on,225,0,6,,,,,,,,5,,,55,0
250785,note_on,225,0,5,,,,,,,,4,,,55,0
250785,note_on,225,0,1,,,,,,,,0,,,76,0
250800,note_on,15,0,5,,,,,,,,4,,,43,64
250800,note_on,15,0,1,,,,,,,,0,,,77,106
250800,note_on,15,0,6,,,,,,,,5,,,43,64
250915,note_on,115,0,1,,,,,,,,0,,,77,0
250920,note_on,5,0,1,,,,,,,,0,,,79,106
251005,note_on,445,0,2,,,,,,,,1,,,76,0
251005,note_on,445,0,3,,,,,,,,2,,,74,0
251025,note_on,225,0,6,,,,,,,,5,,,43,0
251025,note_on,225,0,5,,,,,,,,4,,,43,0
251035,note_on,115,0,1,,,,,,,,0,,,79,0
251040,note_on,5,0,1,,,,,,,,0,,,73,106
251040,note_on,35,0,2,,,,,,,,1,,,76,64
251040,note_on,35,0,3,,,,,,,,2,,,73,64
251040,note_on,15,0,6,,,,,,,,5,,,57,64
251040,note_on,515,0,4,,,,,,,,3,,,69,64
251040,note_on,15,0,5,,,,,,,,4,,,57,64
251265,note_on,225,0,1,,,,,,,,0,,,73,0
251265,note_on,225,0,5,,,,,,,,4,,,57,0
251265,note_on,225,0,6,,,,,,,,5,,,57,0
251265,note_on,225,0,2,,,,,,,,1,,,76,0
251265,note_on,225,0,4,,,,,,,,3,,,69,0
251265,note_on,225,0,3,,,,,,,,2,,,73,0
251280,note_on,15,0,3,,,,,,,,2,,,70,64
251280,note_on,15,0,6,,,,,,,,5,,,58,64
251280,note_on,15,0,1,,,,,,,,0,,,74,106
251280,note_on,15,0,2,,,,,,,,1,,,74,64
251280,note_on,15,0,5,,,,,,,,4,,,58,64
251280,note_on,15,0,4,,,,,,,,3,,,67,64
251505,note_on,225,0,3,,,,,,,,2,,,70,0
251505,note_on,225,0,6,,,,,,,,5,,,58,0
251505,note_on,225,0,5,,,,,,,,4,,,58,0
251505,note_on,225,0,4,,,,,,,,3,,,67,0
251505,note_on,225,0,1,,,,,,,,0,,,74,0
251505,note_on,225,0,2,,,,,,,,1,,,74,0
251760,note_on,255,0,5,,,,,,,,4,,,53,64
251760,note_on,255,0,1,,,,,,,,0,,,81,106
251760,note_on,255,0,3,,,,,,,,2,,,69,64
251760,note_on,255,0,4,,,,,,,,3,,,65,64
251760,note_on,255,0,2,,,,,,,,1,,,74,64
251760,note_on,255,0,6,,,,,,,,5,,,53,64
251985,note_on,225,0,5,,,,,,,,4,,,53,0
251985,note_on,225,0,2,,,,,,,,1,,,74,0
251985,note_on,225,0,1,,,,,,,,0,,,81,0
251985,note_on,225,0,3,,,,,,,,2,,,69,0
251985,note_on,225,0,6,,,,,,,,5,,,53,0
251985,note_on,225,0,4,,,,,,,,3,,,65,0
252000,note_on,15,0,5,,,,,,,,4,,,55,64
252000,note_on,15,0,3,,,,,,,,2,,,67,64
252000,note_on,15,0,6,,,,,,,,5,,,55,64
252000,note_on,15,0,1,,,,,,,,0,,,70,106
252000,note_on,15,0,2,,,,,,,,1,,,70,64
252000,note_on,15,0,4,,,,,,,,3,,,62,64
252225,note_on,225,0,5,,,,,,,,4,,,55,0
252225,note_on,225,0,6,,,,,,,,5,,,55,0
252225,note_on,225,0,1,,,,,,,,0,,,70,0
252240,note_on,15,0,6,,,,,,,,5,,,43,64
252240,note_on,15,0,5,,,,,,,,4,,,43,64
252240,note_on,15,0,1,,,,,,,,0,,,76,106
252355,note_on,115,0,1,,,,,,,,0,,,76,0
252360,note_on,5,0,1,,,,,,,,0,,,79,106
252445,note_on,445,0,3,,,,,,,,2,,,67,0
252445,note_on,445,0,4,,,,,,,,3,,,62,0
252445,note_on,445,0,2,,,,,,,,1,,,70,0
252465,note_on,225,0,6,,,,,,,,5,,,43,0
252465,note_on,225,0,5,,,,,,,,4,,,43,0
252475,note_on,115,0,1,,,,,,,,0,,,79,0
252480,note_on,35,0,3,,,,,,,,2,,,67,64
252480,note_on,15,0,5,,,,,,,,4,,,55,64
252480,note_on,15,0,6,,,,,,,,5,,,55,64
252480,note_on,35,0,2,,,,,,,,1,,,71,64
252480,note_on,35,0,4,,,,,,,,3,,,62,64
252480,note_on,5,0,1,,,,,,,,0,,,71,106
252705,note_on,225,0,1,,,,,,,,0,,,71,0
252705,note_on,225,0,5,,,,,,,,4,,,55,0
252705,note_on,225,0,6,,,,,,,,5,,,55,0
252720,note_on,15,0,1,,,,,,,,0,,,73,106
252720,note_on,15,0,6,,,,,,,,5,,,53,64
252720,note_on,15,0,5,,,,,,,,4,,,53,64
252835,note_on,115,0,1,,,,,,,,0,,,73,0
252840,note_on,5,0,1,,,,,,,,0,,,74,106
252925,note_on,445,0,3,,,,,,,,2,,,67,0
252925,note_on,445,0,2,,,,,,,,1,,,71,0
252925,note_on,445,0,4,,,,,,,,3,,,62,0
252945,note_on,225,0,6,,,,,,,,5,,,53,0
252945,note_on,225,0,5,,,,,,,,4,,,53,0
252955,note_on,115,0,1,,,,,,,,0,,,74,0
252960,note_on,15,0,5,,,,,,,,4,,,52,64
252960,note_on,35,0,3,,,,,,,,2,,,67,64
252960,note_on,5,0,1,,,,,,,,0,,,73,106
252960,note_on,35,0,4,,,,,,,,3,,,64,64
252960,note_on,35,0,2,,,,,,,,1,,,73,64
252960,note_on,15,0,6,,,,,,,,5,,,52,64
253185,note_on,225,0,5,,,,,,,,4,,,52,0
253185,note_on,225,0,1,,,,,,,,0,,,73,0
253185,note_on,225,0,6,,,,,,,,5,,,52,0
253200,note_on,15,0,1,,,,,,,,0,,,77,106
253200,note_on,15,0,6,,,,,,,,5,,,57,64
253200,note_on,15,0,5,,,,,,,,4,,,57,64
253315,note_on,115,0,1,,,,,,,,0,,,77,0
253320,note_on,5,0,1,,,,,,,,0,,,81,106
253405,note_on,445,0,2,,,,,,,,1,,,73,0
253405,note_on,445,0,4,,,,,,,,3,,,64,0
253405,note_on,445,0,3,,,,,,,,2,,,67,0
253425,note_on,225,0,6,,,,,,,,5,,,57,0
253425,note_on,225,0,5,,,,,,,,4,,,57,0
253435,note_on,115,0,1,,,,,,,,0,,,81,0
253440,note_on,35,0,3,,,,,,,,2,,,73,64
253440,note_on,35,0,4,,,,,,,,3,,,64,64
253440,note_on,35,0,2,,,,,,,,1,,,76,64
253440,note_on,15,0,5,,,,,,,,4,,,57,64
253440,note_on,15,0,6,,,,,,,,5,,,57,64
253440,note_on,5,0,1,,,,,,,,0,,,73,106
253665,note_on,225,0,5,,,,,,,,4,,,57,0
253665,note_on,225,0,6,,,,,,,,5,,,57,0
253665,note_on,225,0,1,,,,,,,,0,,,73,0
253680,note_on,15,0,1,,,,,,,,0,,,74,106
253680,note_on,15,0,5,,,,,,,,4,,,55,64
253680,note_on,15,0,6,,,,,,,,5,,,55,64
253795,note_on,115,0,1,,,,,,,,0,,,74,0
253800,note_on,5,0,1,,,,,,,,0,,,76,106
253885,note_on,445,0,2,,,,,,,,1,,,76,0
253885,note_on,445,0,3,,,,,,,,2,,,73,0
253885,note_on,445,0,4,,,,,,,,3,,,64,0
253905,note_on,225,0,5,,,,,,,,4,,,55,0
253905,note_on,225,0,6,,,,,,,,5,,,55,0
253915,note_on,115,0,1,,,,,,,,0,,,76,0
253920,note_on,15,0,5,,,,,,,,4,,,53,64
253920,note_on,35,0,3,,,,,,,,2,,,69,64
253920,note_on,15,0,6,,,,,,,,5,,,53,64
253920,note_on,35,0,4,,,,,,,,3,,,65,64
253920,note_on,35,0,2,,,,,,,,1,,,74,64
253920,note_on,5,0,1,,,,,,,,0,,,74,106
254145,note_on,225,0,6,,,,,,,,5,,,53,0
254145,note_on,225,0,1,,,,,,,,0,,,74,0
254145,note_on,225,0,5,,,,,,,,4,,,53,0
254160,note_on,15,0,5,,,,,,,,4,,,58,64
254160,note_on,15,0,6,,,,,,,,5,,,58,64
254160,note_on,15,0,1,,,,,,,,0,,,79,106
254275,note_on,115,0,1,,,,,,,,0,,,79,0
254280,note_on,5,0,1,,,,,,,,0,,,82,106
254365,note_on,445,0,3,,,,,,,,2,,,69,0
254365,note_on,445,0,4,,,,,,,,3,,,65,0
254365,note_on,445,0,2,,,,,,,,1,,,74,0
254385,note_on,225,0,5,,,,,,,,4,,,58,0
254385,note_on,225,0,6,,,,,,,,5,,,58,0
254395,note_on,115,0,1,,,,,,,,0,,,82,0
254400,note_on,15,0,5,,,,,,,,4,,,55,64
254400,note_on,15,0,6,,,,,,,,5,,,55,64
254400,note_on,35,0,4,,,,,,,,3,,,64,64
254400,note_on,5,0,1,,,,,,,,0,,,76,106
254400,note_on,35,0,3,,,,,,,,2,,,74,64
254625,note_on,225,0,1,,,,,,,,0,,,76,0
254625,note_on,225,0,5,,,,,,,,4,,,55,0
254625,note_on,225,0,6,,,,,,,,5,,,55,0
254640,note_on,15,0,1,,,,,,,,0,,,77,106
254640,note_on,15,0,5,,,,,,,,4,,,43,64
254640,note_on,15,0,6,,,,,,,,5,,,43,64
254755,note_on,115,0,1,,,,,,,,0,,,77,0
254760,note_on,5,0,1,,,,,,,,0,,,79,106
254845,note_on,445,0,4,,,,,,,,3,,,64,0
254845,note_on,445,0,3,,,,,,,,2,,,74,0
254865,note_on,225,0,5,,,,,,,,4,,,43,0
254865,note_on,225,0,6,,,,,,,,5,,,43,0
254875,note_on,115,0,1,,,,,,,,0,,,79,0
254880,note_on,15,0,5,,,,,,,,4,,,45,64
254880,note_on,515,0,2,,,,,,,,1,,,73,64
254880,note_on,35,0,3,,,,,,,,2,,,69,64
254880,note_on,15,0,6,,,,,,,,5,,,45,64
254880,note_on,35,0,4,,,,,,,,3,,,64,64
254880,note_on,5,0,1,,,,,,,,0,,,67,106
255105,note_on,225,0,6,,,,,,,,5,,,45,0
255105,note_on,225,0,5,,,,,,,,4,,,45,0
255120,note_on,15,0,5,,,,,,,,4,,,47,64
255120,note_on,15,0,6,,,,,,,,5,,,47,64
255325,note_on,445,0,4,,,,,,,,3,,,64,0
255325,note_on,445,0,2,,,,,,,,1,,,73,0
255325,note_on,445,0,3,,,,,,,,2,,,69,0
255345,note_on,225,0,5,,,,,,,,4,,,47,0
255345,note_on,225,0,6,,,,,,,,5,,,47,0
255360,note_on,35,0,4,,,,,,,,3,,,67,64
255360,note_on,15,0,5,,,,,,,,4,,,49,64
255360,note_on,15,0,6,,,,,,,,5,,,49,64
255360,note_on,35,0,2,,,,,,,,1,,,69,64
255545,note_on,665,0,1,,,,,,,,0,,,67,0
255585,note_on,225,0,6,,,,,,,,5,,,49,0
255585,note_on,225,0,5,,,,,,,,4,,,49,0
255600,note_on,55,0,1,,,,,,,,0,,,79,106
255600,note_on,15,0,6,,,,,,,,5,,,45,64
255600,note_on,15,0,5,,,,,,,,4,,,45,64
255805,note_on,445,0,2,,,,,,,,1,,,69,0
255805,note_on,445,0,4,,,,,,,,3,,,67,0
255825,note_on,225,0,5,,,,,,,,4,,,45,0
255825,note_on,225,0,6,,,,,,,,5,,,45,0
255825,note_on,225,0,1,,,,,,,,0,,,79,0
255840,note_on,35,0,2,,,,,,,,1,,,77,64
255840,note_on,15,0,1,,,,,,,,0,,,77,106
255840,note_on,35,0,4,,,,,,,,3,,,69,64
255840,note_on,15,0,6,,,,,,,,5,,,50,64
255840,note_on,15,0,5,,,,,,,,4,,,50,64
255840,note_on,515,0,3,,,,,,,,2,,,74,64
256065,note_on,225,0,2,,,,,,,,1,,,77,0
256065,note_on,225,0,5,,,,,,,,4,,,50,0
256065,note_on,225,0,6,,,,,,,,5,,,50,0
256065,note_on,225,0,1,,,,,,,,0,,,77,0
256080,note_on,15,0,6,,,,,,,,5,,,55,64
256080,note_on,15,0,1,,,,,,,,0,,,76,106
256080,note_on,15,0,2,,,,,,,,1,,,76,64
256080,note_on,15,0,5,,,,,,,,4,,,55,64
256195,note_on,115,0,1,,,,,,,,0,,,76,0
256200,note_on,5,0,1,,,,,,,,0,,,74,106
256285,note_on,445,0,3,,,,,,,,2,,,74,0
256285,note_on,445,0,4,,,,,,,,3,,,69,0
256305,note_on,225,0,2,,,,,,,,1,,,76,0
256305,note_on,225,0,6,,,,,,,,5,,,55,0
256305,note_on,225,0,5,,,,,,,,4,,,55,0
256315,note_on,115,0,1,,,,,,,,0,,,74,0
256320,note_on,15,0,2,,,,,,,,1,,,74,64
256320,note_on,5,0,1,,,,,,,,0,,,74,106
256320,note_on,15,0,6,,,,,,,,5,,,57,64
256320,note_on,15,0,5,,,,,,,,4,,,57,64
256350,note_on,30,0,1,,,,,,,,0,,,74,0
256350,note_on,0,0,1,,,,,,,,0,,,73,106
256380,note_on,30,0,1,,,,,,,,0,,,73,0
256380,note_on,0,0,1,,,,,,,,0,,,74,106
256410,note_on,0,0,1,,,,,,,,0,,,73,106
256410,note_on,30,0,1,,,,,,,,0,,,74,0
256440,note_on,30,0,1,,,,,,,,0,,,73,0
256440,note_on,0,0,1,,,,,,,,0,,,74,106
256470,note_on,30,0,1,,,,,,,,0,,,74,0
256470,note_on,0,0,1,,,,,,,,0,,,73,106
256500,note_on,30,0,1,,,,,,,,0,,,73,0
256500,note_on,0,0,1,,,,,,,,0,,,74,106
256530,note_on,0,0,1,,,,,,,,0,,,73,106
256530,note_on,30,0,1,,,,,,,,0,,,74,0
256545,note_on,225,0,2,,,,,,,,1,,,74,0
256545,note_on,225,0,5,,,,,,,,4,,,57,0
256545,note_on,225,0,6,,,,,,,,5,,,57,0
256560,note_on,15,0,5,,,,,,,,4,,,45,64
256560,note_on,15,0,6,,,,,,,,5,,,45,64
256560,note_on,275,0,4,,,,,,,,3,,,64,64
256560,note_on,15,0,2,,,,,,,,1,,,73,64
256560,note_on,275,0,3,,,,,,,,2,,,69,64
256675,note_on,145,0,1,,,,,,,,0,,,73,0
256680,note_on,5,0,1,,,,,,,,0,,,74,106
256785,note_on,225,0,4,,,,,,,,3,,,64,0
256785,note_on,225,0,6,,,,,,,,5,,,45,0
256785,note_on,225,0,2,,,,,,,,1,,,73,0
256785,note_on,225,0,5,,,,,,,,4,,,45,0
256785,note_on,225,0,3,,,,,,,,2,,,69,0
256795,note_on,115,0,1,,,,,,,,0,,,74,0
256800,note_on,15,0,2,,,,,,,,1,,,74,64
256800,note_on,15,0,6,,,,,,,,5,,,50,64
256800,note_on,15,0,3,,,,,,,,2,,,69,64
256800,note_on,5,0,1,,,,,,,,0,,,74,106
256800,note_on,15,0,4,,,,,,,,3,,,65,64
256800,note_on,15,0,5,,,,,,,,4,,,50,64
257398,note_on,598,0,6,,,,,,,,5,,,50,0
257398,note_on,598,0,1,,,,,,,,0,,,74,0
257398,note_on,598,0,4,,,,,,,,3,,,65,0
257398,note_on,598,0,2,,,,,,,,1,,,74,0
257398,note_on,598,0,3,,,,,,,,2,,,69,0
257398,note_on,598,0,5,,,,,,,,4,,,50,0
257760,note_on,362,0,3,,,,,,,,2,,,69,64
257760,note_on,362,0,6,,,,,,,,5,,,54,64
257760,note_on,362,0,5,,,,,,,,4,,,54,64
257760,note_on,362,0,4,,,,,,,,3,,,66,64
257760,note_on,362,0,2,,,,,,,,1,,,74,64
257760,note_on,362,0,1,,,,,,,,0,,,81,106
257790,note_on,0,0,1,,,,,,,,0,,,79,106
257790,note_on,30,0,1,,,,,,,,0,,,81,0
257820,note_on,30,0,1,,,,,,,,0,,,79,0
257820,note_on,0,0,1,,,,,,,,0,,,81,106
257985,note_on,225,0,5,,,,,,,,4,,,54,0
257985,note_on,225,0,6,,,,,,,,5,,,54,0
257990,note_on,170,0,1,,,,,,,,0,,,81,0
258000,note_on,15,0,6,,,,,,,,5,,,50,64
258000,note_on,15,0,5,,,,,,,,4,,,50,64
258000,note_on,10,0,1,,,,,,,,0,,,78,106
258170,note_on,170,0,1,,,,,,,,0,,,78,0
258180,note_on,10,0,1,,,,,,,,0,,,79,106
258205,note_on,445,0,3,,,,,,,,2,,,69,0
258205,note_on,445,0,2,,,,,,,,1,,,74,0
258205,note_on,445,0,4,,,,,,,,3,,,66,0
258210,note_on,30,0,1,,,,,,,,0,,,79,0
258210,note_on,0,0,1,,,,,,,,0,,,81,106
258225,note_on,225,0,5,,,,,,,,4,,,50,0
258225,note_on,225,0,6,,,,,,,,5,,,50,0
258240,note_on,15,0,5,,,,,,,,4,,,57,64
258240,note_on,35,0,3,,,,,,,,2,,,69,64
258240,note_on,0,0,1,,,,,,,,0,,,72,106
258240,note_on,15,0,6,,,,,,,,5,,,57,64
258240,note_on,35,0,4,,,,,,,,3,,,66,64
258240,note_on,30,0,1,,,,,,,,0,,,81,0
258240,note_on,35,0,2,,,,,,,,1,,,72,64
258355,note_on,115,0,1,,,,,,,,0,,,72,0
258360,note_on,5,0,1,,,,,,,,0,,,74,106
258390,note_on,30,0,1,,,,,,,,0,,,74,0
258390,note_on,0,0,1,,,,,,,,0,,,76,106
258420,note_on,30,0,1,,,,,,,,0,,,76,0
258420,note_on,0,0,1,,,,,,,,0,,,78,106
258450,note_on,30,0,1,,,,,,,,0,,,78,0
258450,note_on,0,0,1,,,,,,,,0,,,79,106
258465,note_on,225,0,5,,,,,,,,4,,,57,0
258465,note_on,225,0,6,,,,,,,,5,,,57,0
258480,note_on,30,0,1,,,,,,,,0,,,79,0
258480,note_on,0,0,1,,,,,,,,0,,,81,106
258480,note_on,15,0,5,,,,,,,,4,,,54,64
258480,note_on,15,0,6,,,,,,,,5,,,54,64
258520,note_on,40,0,1,,,,,,,,0,,,81,0
258520,note_on,0,0,1,,,,,,,,0,,,82,106
258560,note_on,40,0,1,,,,,,,,0,,,82,0
258560,note_on,0,0,1,,,,,,,,0,,,81,106
258600,note_on,0,0,1,,,,,,,,0,,,79,106
258600,note_on,40,0,1,,,,,,,,0,,,81,0
258660,note_on,60,0,1,,,,,,,,0,,,79,0
258660,note_on,0,0,1,,,,,,,,0,,,81,106
258685,note_on,445,0,2,,,,,,,,1,,,72,0
258685,note_on,445,0,3,,,,,,,,2,,,69,0
258685,note_on,445,0,4,,,,,,,,3,,,66,0
258705,note_on,225,0,6,,,,,,,,5,,,54,0
258705,note_on,225,0,5,,,,,,,,4,,,54,0
258720,note_on,35,0,4,,,,,,,,3,,,62,64
258720,note_on,60,0,1,,,,,,,,0,,,81,0
258720,note_on,15,0,5,,,,,,,,4,,,55,64
258720,note_on,0,0,1,,,,,,,,0,,,82,106
258720,note_on,35,0,3,,,,,,,,2,,,67,64
258720,note_on,35,0,2,,,,,,,,1,,,70,64
258720,note_on,15,0,6,,,,,,,,5,,,55,64
258835,note_on,115,0,1,,,,,,,,0,,,82,0
258840,note_on,5,0,1,,,,,,,,0,,,81,106
258880,note_on,0,0,1,,,,,,,,0,,,82,106
258880,note_on,40,0,1,,,,,,,,0,,,81,0
258920,note_on,40,0,1,,,,,,,,0,,,82,0
258920,note_on,0,0,1,,,,,,,,0,,,81,106
258945,note_on,225,0,6,,,,,,,,5,,,55,0
258945,note_on,225,0,5,,,,,,,,4,,,55,0
258960,note_on,15,0,6,,,,,,,,5,,,43,64
258960,note_on,40,0,1,,,,,,,,0,,,81,0
258960,note_on,0,0,1,,,,,,,,0,,,79,106
258960,note_on,15,0,5,,,,,,,,4,,,43,64
259185,note_on,225,0,5,,,,,,,,4,,,43,0
259185,note_on,225,0,1,,,,,,,,0,,,79,0
259185,note_on,225,0,6,,,,,,,,5,,,43,0
259385,note_on,665,0,2,,,,,,,,1,,,70,0
259385,note_on,665,0,3,,,,,,,,2,,,67,0
259385,note_on,665,0,4,,,,,,,,3,,,62,0
259440,note_on,255,0,1,,,,,,,,0,,,73,106
259440,note_on,55,0,3,,,,,,,,2,,,67,64
259440,note_on,55,0,2,,,,,,,,1,,,73,64
259440,note_on,255,0,5,,,,,,,,4,,,51,64
259440,note_on,255,0,6,,,,,,,,5,,,51,64
259440,note_on,55,0,4,,,,,,,,3,,,63,64
259470,note_on,30,0,1,,,,,,,,0,,,73,0
259470,note_on,0,0,1,,,,,,,,0,,,74,106
259500,note_on,30,0,1,,,,,,,,0,,,74,0
259500,note_on,0,0,1,,,,,,,,0,,,73,106
259665,note_on,225,0,4,,,,,,,,3,,,63,0
259665,note_on,225,0,3,,,,,,,,2,,,67,0
259665,note_on,225,0,6,,,,,,,,5,,,51,0
259665,note_on,225,0,5,,,,,,,,4,,,51,0
259665,note_on,225,0,2,,,,,,,,1,,,73,0
259670,note_on,170,0,1,,,,,,,,0,,,73,0
259680,note_on,15,0,2,,,,,,,,1,,,74,64
259680,note_on,15,0,6,,,,,,,,5,,,50,64
259680,note_on,10,0,1,,,,,,,,0,,,74,106
259680,note_on,15,0,4,,,,,,,,3,,,65,64
259680,note_on,15,0,5,,,,,,,,4,,,50,64
259680,note_on,15,0,3,,,,,,,,2,,,69,64
259850,note_on,170,0,1,,,,,,,,0,,,74,0
259860,note_on,10,0,1,,,,,,,,0,,,82,106
259905,note_on,225,0,2,,,,,,,,1,,,74,0
259905,note_on,225,0,5,,,,,,,,4,,,50,0
259905,note_on,225,0,6,,,,,,,,5,,,50,0
259905,note_on,225,0,4,,,,,,,,3,,,65,0
259905,note_on,225,0,3,,,,,,,,2,,,69,0
259920,note_on,0,0,1,,,,,,,,0,,,81,106
259920,note_on,15,0,4,,,,,,,,3,,,67,64
259920,note_on,15,0,6,,,,,,,,5,,,48,64
259920,note_on,15,0,3,,,,,,,,2,,,69,64
259920,note_on,15,0,5,,,,,,,,4,,,48,64
259920,note_on,60,0,1,,,,,,,,0,,,82,0
259920,note_on,15,0,2,,,,,,,,1,,,75,64
260090,note_on,170,0,1,,,,,,,,0,,,81,0
260100,note_on,10,0,1,,,,,,,,0,,,79,106
260145,note_on,225,0,4,,,,,,,,3,,,67,0
260145,note_on,225,0,6,,,,,,,,5,,,48,0
260145,note_on,225,0,2,,,,,,,,1,,,75,0
260145,note_on,225,0,5,,,,,,,,4,,,48,0
260145,note_on,225,0,3,,,,,,,,2,,,69,0
260160,note_on,60,0,1,,,,,,,,0,,,79,0
260160,note_on,15,0,2,,,,,,,,1,,,74,64
260160,note_on,15,0,5,,,,,,,,4,,,50,64
260160,note_on,15,0,6,,,,,,,,5,,,50,64
260160,note_on,0,0,1,,,,,,,,0,,,79,106
260160,note_on,15,0,4,,,,,,,,3,,,67,64
260160,note_on,15,0,3,,,,,,,,2,,,70,64
260190,note_on,0,0,1,,,,,,,,0,,,78,106
260190,note_on,30,0,1,,,,,,,,0,,,79,0
260220,note_on,30,0,1,,,,,,,,0,,,78,0
260220,note_on,0,0,1,,,,,,,,0,,,79,106
260250,note_on,0,0,1,,,,,,,,0,,,78,106
260250,note_on,30,0,1,,,,,,,,0,,,79,0
260280,note_on,0,0,1,,,,,,,,0,,,79,106
260280,note_on,30,0,1,,,,,,,,0,,,78,0
260310,note_on,0,0,1,,,,,,,,0,,,78,106
260310,note_on,30,0,1,,,,,,,,0,,,79,0
260340,note_on,30,0,1,,,,,,,,0,,,78,0
260340,note_on,0,0,1,,,,,,,,0,,,79,106
260370,note_on,30,0,1,,,,,,,,0,,,79,0
260370,note_on,0,0,1,,,,,,,,0,,,78,106
260385,note_on,225,0,6,,,,,,,,5,,,50,0
260385,note_on,225,0,4,,,,,,,,3,,,67,0
260385,note_on,225,0,3,,,,,,,,2,,,70,0
260385,note_on,225,0,5,,,,,,,,4,,,50,0
260400,note_on,15,0,4,,,,,,,,3,,,66,64
260400,note_on,15,0,6,,,,,,,,5,,,38,64
260400,note_on,15,0,3,,,,,,,,2,,,69,64
260400,note_on,15,0,5,,,,,,,,4,,,38,64
260515,note_on,145,0,1,,,,,,,,0,,,78,0
260520,note_on,5,0,1,,,,,,,,0,,,79,106
260625,note_on,225,0,6,,,,,,,,5,,,38,0
260625,note_on,225,0,3,,,,,,,,2,,,69,0
260625,note_on,225,0,5,,,,,,,,4,,,38,0
260625,note_on,465,0,2,,,,,,,,1,,,74,0
260625,note_on,225,0,4,,,,,,,,3,,,66,0
260635,note_on,115,0,1,,,,,,,,0,,,79,0
260640,note_on,5,0,1,,,,,,,,0,,,79,106
260640,note_on,15,0,5,,,,,,,,4,,,43,64
260640,note_on,15,0,3,,,,,,,,2,,,67,64
260640,note_on,15,0,4,,,,,,,,3,,,62,64
260640,note_on,15,0,2,,,,,,,,1,,,70,64
260640,note_on,15,0,6,,,,,,,,5,,,43,64
260670,note_on,0,0,1,,,,,,,,0,,,78,106
260670,note_on,30,0,1,,,,,,,,0,,,79,0
260700,note_on,0,0,1,,,,,,,,0,,,79,106
260700,note_on,30,0,1,,,,,,,,0,,,78,0
261085,note_on,445,0,6,,,,,,,,5,,,43,0
261085,note_on,445,0,5,,,,,,,,4,,,43,0
261085,note_on,445,0,4,,,,,,,,3,,,62,0
261085,note_on,445,0,2,,,,,,,,1,,,70,0
261085,note_on,445,0,3,,,,,,,,2,,,67,0
261120,note_on,420,0,1,,,,,,,,0,,,79,0
261360,note_on,275,0,3,,,,,,,,2,,,70,64
261360,note_on,275,0,5,,,,,,,,4,,,55,64
261360,note_on,240,0,1,,,,,,,,0,,,74,106
261360,note_on,275,0,4,,,,,,,,3,,,67,64
261360,note_on,275,0,6,,,,,,,,5,,,55,64
261360,note_on,275,0,2,,,,,,,,1,,,74,64
261530,note_on,170,0,1,,,,,,,,0,,,74,0
261540,note_on,10,0,1,,,,,,,,0,,,76,106
261560,note_on,0,0,1,,,,,,,,0,,,78,106
261560,note_on,20,0,1,,,,,,,,0,,,76,0
261580,note_on,20,0,1,,,,,,,,0,,,78,0
261580,note_on,0,0,1,,,,,,,,0,,,79,106
261585,note_on,225,0,2,,,,,,,,1,,,74,0
261585,note_on,225,0,5,,,,,,,,4,,,55,0
261585,note_on,225,0,4,,,,,,,,3,,,67,0
261585,note_on,225,0,6,,,,,,,,5,,,55,0
261585,note_on,225,0,3,,,,,,,,2,,,70,0
261600,note_on,15,0,5,,,,,,,,4,,,53,64
261600,note_on,0,0,1,,,,,,,,0,,,81,106
261600,note_on,15,0,2,,,,,,,,1,,,74,64
261600,note_on,20,0,1,,,,,,,,0,,,79,0
261600,note_on,15,0,3,,,,,,,,2,,,69,64
261600,note_on,15,0,4,,,,,,,,3,,,65,64
261600,note_on,15,0,6,,,,,,,,5,,,53,64
261825,note_on,225,0,1,,,,,,,,0,,,81,0
261825,note_on,225,0,6,,,,,,,,5,,,53,0
261825,note_on,225,0,5,,,,,,,,4,,,53,0
261840,note_on,15,0,6,,,,,,,,5,,,50,64
261840,note_on,15,0,1,,,,,,,,0,,,74,106
261840,note_on,15,0,5,,,,,,,,4,,,50,64
261955,note_on,115,0,1,,,,,,,,0,,,74,0
261960,note_on,5,0,1,,,,,,,,0,,,82,106
262045,note_on,445,0,3,,,,,,,,2,,,69,0
262045,note_on,445,0,4,,,,,,,,3,,,65,0
262045,note_on,445,0,2,,,,,,,,1,,,74,0
262065,note_on,225,0,6,,,,,,,,5,,,50,0
262065,note_on,225,0,5,,,,,,,,4,,,50,0
262075,note_on,115,0,1,,,,,,,,0,,,82,0
262080,note_on,15,0,5,,,,,,,,4,,,55,64
262080,note_on,5,0,1,,,,,,,,0,,,76,106
262080,note_on,35,0,3,,,,,,,,2,,,74,64
262080,note_on,35,0,2,,,,,,,,1,,,76,64
262080,note_on,15,0,6,,,,,,,,5,,,55,64
262305,note_on,225,0,5,,,,,,,,4,,,55,0
262305,note_on,225,0,1,,,,,,,,0,,,76,0
262305,note_on,225,0,6,,,,,,,,5,,,55,0
262320,note_on,15,0,6,,,,,,,,5,,,43,64
262320,note_on,15,0,1,,,,,,,,0,,,77,106
262320,note_on,15,0,5,,,,,,,,4,,,43,64
262360,note_on,40,0,1,,,,,,,,0,,,77,0
262360,note_on,0,0,1,,,,,,,,0,,,76,106
262400,note_on,40,0,1,,,,,,,,0,,,76,0
262400,note_on,0,0,1,,,,,,,,0,,,77,106
262440,note_on,0,0,1,,,,,,,,0,,,79,106
262440,note_on,40,0,1,,,,,,,,0,,,77,0
262525,note_on,445,0,2,,,,,,,,1,,,76,0
262525,note_on,445,0,3,,,,,,,,2,,,74,0
262545,note_on,225,0,6,,,,,,,,5,,,43,0
262545,note_on,225,0,5,,,,,,,,4,,,43,0
262555,note_on,115,0,1,,,,,,,,0,,,79,0
262560,note_on,15,0,5,,,,,,,,4,,,57,64
262560,note_on,35,0,2,,,,,,,,1,,,76,64
262560,note_on,5,0,1,,,,,,,,0,,,73,106
262560,note_on,15,0,6,,,,,,,,5,,,57,64
262560,note_on,35,0,3,,,,,,,,2,,,73,64
262560,note_on,515,0,4,,,,,,,,3,,,69,64
262620,note_on,0,0,1,,,,,,,,0,,,74,106
262620,note_on,60,0,1,,,,,,,,0,,,73,0
262680,note_on,60,0,1,,,,,,,,0,,,74,0
262680,note_on,0,0,1,,,,,,,,0,,,73,106
262740,note_on,0,0,1,,,,,,,,0,,,71,106
262740,note_on,60,0,1,,,,,,,,0,,,73,0
262770,note_on,0,0,1,,,,,,,,0,,,73,106
262770,note_on,30,0,1,,,,,,,,0,,,71,0
262785,note_on,225,0,4,,,,,,,,3,,,69,0
262785,note_on,225,0,3,,,,,,,,2,,,73,0
262785,note_on,225,0,2,,,,,,,,1,,,76,0
262785,note_on,225,0,6,,,,,,,,5,,,57,0
262785,note_on,225,0,5,,,,,,,,4,,,57,0
262800,note_on,15,0,2,,,,,,,,1,,,74,64
262800,note_on,0,0,1,,,,,,,,0,,,74,106
262800,note_on,15,0,3,,,,,,,,2,,,70,64
262800,note_on,15,0,5,,,,,,,,4,,,58,64
262800,note_on,15,0,4,,,,,,,,3,,,67,64
262800,note_on,15,0,6,,,,,,,,5,,,58,64
262800,note_on,30,0,1,,,,,,,,0,,,73,0
263025,note_on,225,0,3,,,,,,,,2,,,70,0
263025,note_on,225,0,4,,,,,,,,3,,,67,0
263025,note_on,225,0,1,,,,,,,,0,,,74,0
263025,note_on,225,0,2,,,,,,,,1,,,74,0
263025,note_on,225,0,6,,,,,,,,5,,,58,0
263025,note_on,225,0,5,,,,,,,,4,,,58,0
263280,note_on,255,0,2,,,,,,,,1,,,74,64
263280,note_on,255,0,4,,,,,,,,3,,,65,64
263280,note_on,255,0,6,,,,,,,,5,,,53,64
263280,note_on,255,0,3,,,,,,,,2,,,69,64
263280,note_on,255,0,1,,,,,,,,0,,,81,106
263280,note_on,255,0,5,,,,,,,,4,,,53,64
263505,note_on,225,0,1,,,,,,,,0,,,81,0
263505,note_on,225,0,4,,,,,,,,3,,,65,0
263505,note_on,225,0,3,,,,,,,,2,,,69,0
263505,note_on,225,0,5,,,,,,,,4,,,53,0
263505,note_on,225,0,6,,,,,,,,5,,,53,0
263505,note_on,225,0,2,,,,,,,,1,,,74,0
263520,note_on,15,0,3,,,,,,,,2,,,67,64
263520,note_on,15,0,2,,,,,,,,1,,,70,64
263520,note_on,15,0,4,,,,,,,,3,,,62,64
263520,note_on,15,0,6,,,,,,,,5,,,55,64
263520,note_on,15,0,5,,,,,,,,4,,,55,64
263520,note_on,15,0,1,,,,,,,,0,,,70,106
263745,note_on,225,0,1,,,,,,,,0,,,70,0
263745,note_on,225,0,6,,,,,,,,5,,,55,0
263745,note_on,225,0,5,,,,,,,,4,,,55,0
263760,note_on,15,0,5,,,,,,,,4,,,43,64
263760,note_on,15,0,1,,,,,,,,0,,,76,106
263760,note_on,15,0,6,,,,,,,,5,,,43,64
263875,note_on,115,0,1,,,,,,,,0,,,76,0
263880,note_on,5,0,1,,,,,,,,0,,,79,106
263965,note_on,445,0,3,,,,,,,,2,,,67,0
263965,note_on,445,0,4,,,,,,,,3,,,62,0
263965,note_on,445,0,2,,,,,,,,1,,,70,0
263985,note_on,225,0,5,,,,,,,,4,,,43,0
263985,note_on,225,0,6,,,,,,,,5,,,43,0
263995,note_on,115,0,1,,,,,,,,0,,,79,0
264000,note_on,15,0,6,,,,,,,,5,,,55,64
264000,note_on,15,0,5,,,,,,,,4,,,55,64
264000,note_on,35,0,2,,,,,,,,1,,,71,64
264000,note_on,35,0,4,,,,,,,,3,,,62,64
264000,note_on,35,0,3,,,,,,,,2,,,67,64
264000,note_on,5,0,1,,,,,,,,0,,,71,106
264225,note_on,225,0,5,,,,,,,,4,,,55,0
264225,note_on,225,0,6,,,,,,,,5,,,55,0
264225,note_on,225,0,1,,,,,,,,0,,,71,0
264240,note_on,15,0,5,,,,,,,,4,,,53,64
264240,note_on,15,0,6,,,,,,,,5,,,53,64
264240,note_on,15,0,1,,,,,,,,0,,,73,106
264355,note_on,115,0,1,,,,,,,,0,,,73,0
264360,note_on,5,0,1,,,,,,,,0,,,74,106
264445,note_on,445,0,2,,,,,,,,1,,,71,0
264445,note_on,445,0,3,,,,,,,,2,,,67,0
264445,note_on,445,0,4,,,,,,,,3,,,62,0
264465,note_on,225,0,5,,,,,,,,4,,,53,0
264465,note_on,225,0,6,,,,,,,,5,,,53,0
264475,note_on,115,0,1,,,,,,,,0,,,74,0
264480,note_on,35,0,2,,,,,,,,1,,,73,64
264480,note_on,15,0,6,,,,,,,,5,,,52,64
264480,note_on,35,0,3,,,,,,,,2,,,67,64
264480,note_on,35,0,4,,,,,,,,3,,,64,64
264480,note_on,5,0,1,,,,,,,,0,,,73,106
264480,note_on,15,0,5,,,,,,,,4,,,52,64
264705,note_on,225,0,5,,,,,,,,4,,,52,0
264705,note_on,225,0,6,,,,,,,,5,,,52,0
264705,note_on,225,0,1,,,,,,,,0,,,73,0
264720,note_on,15,0,1,,,,,,,,0,,,77,106
264720,note_on,15,0,5,,,,,,,,4,,,57,64
264720,note_on,15,0,6,,,,,,,,5,,,57,64
264835,note_on,115,0,1,,,,,,,,0,,,77,0
264840,note_on,5,0,1,,,,,,,,0,,,81,106
264925,note_on,445,0,4,,,,,,,,3,,,64,0
264925,note_on,445,0,2,,,,,,,,1,,,73,0
264925,note_on,445,0,3,,,,,,,,2,,,67,0
264945,note_on,225,0,6,,,,,,,,5,,,57,0
264945,note_on,225,0,5,,,,,,,,4,,,57,0
264955,note_on,115,0,1,,,,,,,,0,,,81,0
264960,note_on,35,0,2,,,,,,,,1,,,76,64
264960,note_on,15,0,6,,,,,,,,5,,,57,64
264960,note_on,15,0,5,,,,,,,,4,,,57,64
264960,note_on,35,0,3,,,,,,,,2,,,73,64
264960,note_on,5,0,1,,,,,,,,0,,,73,106
264960,note_on,35,0,4,,,,,,,,3,,,64,64
265185,note_on,225,0,1,,,,,,,,0,,,73,0
265185,note_on,225,0,6,,,,,,,,5,,,57,0
265185,note_on,225,0,5,,,,,,,,4,,,57,0
265200,note_on,15,0,6,,,,,,,,5,,,55,64
265200,note_on,15,0,5,,,,,,,,4,,,55,64
265200,note_on,15,0,1,,,,,,,,0,,,74,106
265315,note_on,115,0,1,,,,,,,,0,,,74,0
265320,note_on,5,0,1,,,,,,,,0,,,76,106
265405,note_on,445,0,4,,,,,,,,3,,,64,0
265405,note_on,445,0,2,,,,,,,,1,,,76,0
265405,note_on,445,0,3,,,,,,,,2,,,73,0
265425,note_on,225,0,6,,,,,,,,5,,,55,0
265425,note_on,225,0,5,,,,,,,,4,,,55,0
265435,note_on,115,0,1,,,,,,,,0,,,76,0
265440,note_on,15,0,6,,,,,,,,5,,,53,64
265440,note_on,35,0,3,,,,,,,,2,,,69,64
265440,note_on,5,0,1,,,,,,,,0,,,74,106
265440,note_on,15,0,5,,,,,,,,4,,,53,64
265440,note_on,35,0,4,,,,,,,,3,,,65,64
265440,note_on,35,0,2,,,,,,,,1,,,74,64
265665,note_on,225,0,6,,,,,,,,5,,,53,0
265665,note_on,225,0,1,,,,,,,,0,,,74,0
265665,note_on,225,0,5,,,,,,,,4,,,53,0
265680,note_on,15,0,1,,,,,,,,0,,,79,106
265680,note_on,15,0,5,,,,,,,,4,,,58,64
265680,note_on,15,0,6,,,,,,,,5,,,58,64
265795,note_on,115,0,1,,,,,,,,0,,,79,0
265800,note_on,5,0,1,,,,,,,,0,,,82,106
265885,note_on,445,0,2,,,,,,,,1,,,74,0
265885,note_on,445,0,3,,,,,,,,2,,,69,0
265885,note_on,445,0,4,,,,,,,,3,,,65,0
265905,note_on,225,0,6,,,,,,,,5,,,58,0
265905,note_on,225,0,5,,,,,,,,4,,,58,0
265915,note_on,115,0,1,,,,,,,,0,,,82,0
265920,note_on,15,0,6,,,,,,,,5,,,55,64
265920,note_on,35,0,3,,,,,,,,2,,,74,64
265920,note_on,15,0,5,,,,,,,,4,,,55,64
265920,note_on,35,0,4,,,,,,,,3,,,64,64
265920,note_on,5,0,1,,,,,,,,0,,,76,106
266145,note_on,225,0,5,,,,,,,,4,,,55,0
266145,note_on,225,0,6,,,,,,,,5,,,55,0
266145,note_on,225,0,1,,,,,,,,0,,,76,0
266160,note_on,15,0,1,,,,,,,,0,,,77,106
266160,note_on,15,0,6,,,,,,,,5,,,43,64
266160,note_on,15,0,5,,,,,,,,4,,,43,64
266275,note_on,115,0,1,,,,,,,,0,,,77,0
266280,note_on,5,0,1,,,,,,,,0,,,79,106
266365,note_on,445,0,4,,,,,,,,3,,,64,0
266365,note_on,445,0,3,,,,,,,,2,,,74,0
266385,note_on,225,0,6,,,,,,,,5,,,43,0
266385,note_on,225,0,5,,,,,,,,4,,,43,0
266395,note_on,115,0,1,,,,,,,,0,,,79,0
266400,note_on,515,0,2,,,,,,,,1,,,73,64
266400,note_on,35,0,3,,,,,,,,2,,,69,64
266400,note_on,35,0,4,,,,,,,,3,,,64,64
266400,note_on,5,0,1,,,,,,,,0,,,67,106
266400,note_on,15,0,6,,,,,,,,5,,,45,64
266400,note_on,15,0,5,,,,,,,,4,,,45,64
266625,note_on,225,0,6,,,,,,,,5,,,45,0
266625,note_on,225,0,5,,,,,,,,4,,,45,0
266640,note_on,15,0,6,,,,,,,,5,,,47,64
266640,note_on,15,0,5,,,,,,,,4,,,47,64
266845,note_on,445,0,3,,,,,,,,2,,,69,0
266845,note_on,445,0,4,,,,,,,,3,,,64,0
266845,note_on,445,0,2,,,,,,,,1,,,73,0
266865,note_on,225,0,5,,,,,,,,4,,,47,0
266865,note_on,225,0,6,,,,,,,,5,,,47,0
266880,note_on,35,0,4,,,,,,,,3,,,67,64
266880,note_on,15,0,5,,,,,,,,4,,,49,64
266880,note_on,35,0,2,,,,,,,,1,,,69,64
266880,note_on,15,0,6,,,,,,,,5,,,49,64
267065,note_on,665,0,1,,,,,,,,0,,,67,0
267105,note_on,225,0,5,,,,,,,,4,,,49,0
267105,note_on,225,0,6,,,,,,,,5,,,49,0
267120,note_on,15,0,6,,,,,,,,5,,,45,64
267120,note_on,15,0,5,,,,,,,,4,,,45,64
267120,note_on,55,0,1,,,,,,,,0,,,79,106
267325,note_on,445,0,4,,,,,,,,3,,,67,0
267325,note_on,445,0,2,,,,,,,,1,,,69,0
267345,note_on,225,0,5,,,,,,,,4,,,45,0
267345,note_on,225,0,6,,,,,,,,5,,,45,0
267345,note_on,225,0,1,,,,,,,,0,,,79,0
267360,note_on,15,0,5,,,,,,,,4,,,50,64
267360,note_on,35,0,2,,,,,,,,1,,,77,64
267360,note_on,15,0,6,,,,,,,,5,,,50,64
267360,note_on,15,0,1,,,,,,,,0,,,77,106
267360,note_on,515,0,3,,,,,,,,2,,,74,64
267360,note_on,35,0,4,,,,,,,,3,,,69,64
267585,note_on,225,0,1,,,,,,,,0,,,77,0
267585,note_on,225,0,5,,,,,,,,4,,,50,0
267585,note_on,225,0,6,,,,,,,,5,,,50,0
267585,note_on,225,0,2,,,,,,,,1,,,77,0
267600,note_on,15,0,1,,,,,,,,0,,,76,106
267600,note_on,15,0,6,,,,,,,,5,,,55,64
267600,note_on,15,0,5,,,,,,,,4,,,55,64
267600,note_on,15,0,2,,,,,,,,1,,,76,64
267715,note_on,115,0,1,,,,,,,,0,,,76,0
267720,note_on,5,0,1,,,,,,,,0,,,74,106
267805,note_on,445,0,3,,,,,,,,2,,,74,0
267805,note_on,445,0,4,,,,,,,,3,,,69,0
267825,note_on,225,0,2,,,,,,,,1,,,76,0
267825,note_on,225,0,6,,,,,,,,5,,,55,0
267825,note_on,225,0,5,,,,,,,,4,,,55,0
267835,note_on,115,0,1,,,,,,,,0,,,74,0
267840,note_on,15,0,2,,,,,,,,1,,,74,64
267840,note_on,15,0,6,,,,,,,,5,,,57,64
267840,note_on,5,0,1,,,,,,,,0,,,74,106
267840,note_on,15,0,5,,,,,,,,4,,,57,64
267870,note_on,0,0,1,,,,,,,,0,,,73,106
267870,note_on,30,0,1,,,,,,,,0,,,74,0
267900,note_on,30,0,1,,,,,,,,0,,,73,0
267900,note_on,0,0,1,,,,,,,,0,,,74,106
267930,note_on,30,0,1,,,,,,,,0,,,74,0
267930,note_on,0,0,1,,,,,,,,0,,,73,106
267960,note_on,0,0,1,,,,,,,,0,,,74,106
267960,note_on,30,0,1,,,,,,,,0,,,73,0
267990,note_on,0,0,1,,,,,,,,0,,,73,106
267990,note_on,30,0,1,,,,,,,,0,,,74,0
268020,note_on,30,0,1,,,,,,,,0,,,73,0
268020,note_on,0,0,1,,,,,,,,0,,,74,106
268050,note_on,0,0,1,,,,,,,,0,,,73,106
268050,note_on,30,0,1,,,,,,,,0,,,74,0
268065,note_on,225,0,2,,,,,,,,1,,,74,0
268065,note_on,225,0,5,,,,,,,,4,,,57,0
268065,note_on,225,0,6,,,,,,,,5,,,57,0
268080,set_tempo,33360,1,0,,,,,,2000000,,,,,,
268080,note_on,15,0,2,,,,,,,,1,,,73,64
268080,note_on,275,0,3,,,,,,,,2,,,69,64
268080,note_on,15,0,5,,,,,,,,4,,,45,64
268080,note_on,15,0,6,,,,,,,,5,,,45,64
268080,note_on,275,0,4,,,,,,,,3,,,64,64
268195,note_on,145,0,1,,,,,,,,0,,,73,0
268198,set_tempo,118,1,0,,,,,,2400000,,,,,,
268200,note_on,5,0,1,,,,,,,,0,,,74,106
268274,note_on,74,0,1,,,,,,,,0,,,74,0
268304,set_tempo,106,1,0,,,,,,3750000,,,,,,
268305,note_on,225,0,3,,,,,,,,2,,,69,0
268305,note_on,225,0,6,,,,,,,,5,,,45,0
268305,note_on,225,0,2,,,,,,,,1,,,73,0
268305,note_on,225,0,4,,,,,,,,3,,,64,0
268305,note_on,225,0,5,,,,,,,,4,,,45,0
268320,note_on,15,0,4,,,,,,,,3,,,65,64
268320,note_on,15,0,5,,,,,,,,4,,,50,64
268320,note_on,15,0,6,,,,,,,,5,,,50,64
268320,note_on,46,0,1,,,,,,,,0,,,74,106
268320,set_tempo,16,1,0,,,,,,1333333,,,,,,
268320,note_on,15,0,2,,,,,,,,1,,,74,64
268320,note_on,15,0,3,,,,,,,,2,,,69,64
268560,set_tempo,240,1,0,,,,,,2000000,,,,,,
269205,note_on,885,0,6,,,,,,,,5,,,50,0
269205,note_on,885,0,4,,,,,,,,3,,,65,0
269205,note_on,885,0,2,,,,,,,,1,,,74,0
269205,note_on,885,0,1,,,,,,,,0,,,74,0
269205,note_on,885,0,3,,,,,,,,2,,,69,0
269205,note_on,885,0,5,,,,,,,,4,,,50,0
269280,note_on,75,0,4,,,,,,,,3,,,65,85
269280,marker,0,1,0,,,,,,,,,,,,
269280,note_on,75,0,3,,,,,,,,2,,,70,64
269280,note_on,75,0,6,,,,,,,,5,,,58,85
269280,note_on,75,0,1,,,,,,,,0,,,70,64
269280,end_of_track,0,1,0,,,,,,,,,,,,
269280,note_on,75,0,2,,,,,,,,1,,,70,64
269280,set_tempo,720,1,0,,,,,,500000,,,,,,
269280,note_on,75,0,5,,,,,,,,4,,,58,85
269340,note_on,60,0,5,,,,,,,,4,,,58,0
269340,note_on,60,0,6,,,,,,,,5,,,58,0
269340,note_on,60,0,4,,,,,,,,3,,,65,0
269395,note_on,115,0,2,,,,,,,,1,,,70,0
269395,note_on,115,0,1,,,,,,,,0,,,70,0
269395,note_on,115,0,3,,,,,,,,2,,,70,0
269400,note_on,5,0,2,,,,,,,,1,,,74,64
269400,note_on,5,0,1,,,,,,,,0,,,74,64
269400,note_on,5,0,3,,,,,,,,2,,,74,64
269515,note_on,115,0,2,,,,,,,,1,,,74,0
269515,note_on,115,0,3,,,,,,,,2,,,74,0
269515,note_on,115,0,1,,,,,,,,0,,,74,0
269520,note_on,180,0,4,,,,,,,,3,,,65,85
269520,note_on,5,0,2,,,,,,,,1,,,77,64
269520,note_on,180,0,5,,,,,,,,4,,,62,85
269520,note_on,5,0,1,,,,,,,,0,,,77,64
269520,note_on,5,0,3,,,,,,,,2,,,77,64
269520,note_on,180,0,6,,,,,,,,5,,,62,85
269635,note_on,115,0,6,,,,,,,,5,,,62,0
269635,note_on,115,0,5,,,,,,,,4,,,62,0
269635,note_on,115,0,4,,,,,,,,3,,,65,0
269640,note_on,5,0,5,,,,,,,,4,,,60,85
269640,note_on,5,0,6,,,,,,,,5,,,60,85
269640,note_on,5,0,4,,,,,,,,3,,,63,85
269745,note_on,225,0,3,,,,,,,,2,,,77,0
269745,note_on,225,0,1,,,,,,,,0,,,77,0
269745,note_on,225,0,2,,,,,,,,1,,,77,0
269755,note_on,115,0,6,,,,,,,,5,,,60,0
269755,note_on,115,0,4,,,,,,,,3,,,63,0
269755,note_on,115,0,5,,,,,,,,4,,,60,0
269760,note_on,15,0,3,,,,,,,,2,,,82,64
269760,note_on,5,0,6,,,,,,,,5,,,58,85
269760,note_on,5,0,4,,,,,,,,3,,,62,85
269760,note_on,15,0,1,,,,,,,,0,,,82,64
269760,note_on,5,0,5,,,,,,,,4,,,58,85
269760,note_on,15,0,2,,,,,,,,1,,,82,64
269820,note_on,60,0,1,,,,,,,,0,,,82,0
269820,note_on,60,0,2,,,,,,,,1,,,82,0
269820,note_on,60,0,3,,,,,,,,2,,,82,0
269985,note_on,225,0,5,,,,,,,,4,,,58,0
269985,note_on,225,0,4,,,,,,,,3,,,62,0
269985,note_on,225,0,6,,,,,,,,5,,,58,0
270000,note_on,15,0,5,,,,,,,,4,,,46,85
270000,note_on,180,0,2,,,,,,,,1,,,70,64
270000,note_on,15,0,6,,,,,,,,5,,,46,85
270000,note_on,15,0,4,,,,,,,,3,,,62,85
270000,note_on,180,0,3,,,,,,,,2,,,70,64
270000,note_on,180,0,1,,,,,,,,0,,,70,64
270060,note_on,60,0,2,,,,,,,,1,,,70,0
270060,note_on,60,0,4,,,,,,,,3,,,62,0
270060,note_on,60,0,1,,,,,,,,0,,,70,0
270060,note_on,60,0,3,,,,,,,,2,,,70,0
270060,note_on,60,0,6,,,,,,,,5,,,46,0
270060,note_on,60,0,5,,,,,,,,4,,,46,0
270240,note_on,180,0,4,,,,,,,,3,,,65,85
270240,note_on,180,0,6,,,,,,,,5,,,50,85
270240,note_on,180,0,3,,,,,,,,2,,,65,64
270240,note_on,180,0,2,,,,,,,,1,,,65,64
270240,note_on,180,0,5,,,,,,,,4,,,50,85
270240,note_on,180,0,1,,,,,,,,0,,,65,64
270300,note_on,60,0,1,,,,,,,,0,,,65,0
270300,note_on,60,0,2,,,,,,,,1,,,65,0
270300,note_on,60,0,3,,,,,,,,2,,,65,0
270355,note_on,115,0,4,,,,,,,,3,,,65,0
270355,note_on,115,0,5,,,,,,,,4,,,50,0
270355,note_on,115,0,6,,,,,,,,5,,,50,0
270360,note_on,5,0,5,,,,,,,,4,,,48,85
270360,note_on,5,0,4,,,,,,,,3,,,63,85
270360,note_on,5,0,6,,,,,,,,5,,,48,85
270475,note_on,115,0,4,,,,,,,,3,,,63,0
270475,note_on,115,0,5,,,,,,,,4,,,48,0
270475,note_on,115,0,6,,,,,,,,5,,,48,0
270480,note_on,180,0,2,,,,,,,,1,,,58,64
270480,note_on,180,0,3,,,,,,,,2,,,58,64
270480,note_on,180,0,1,,,,,,,,0,,,58,64
270480,note_on,5,0,4,,,,,,,,3,,,62,85
270480,note_on,5,0,5,,,,,,,,4,,,46,85
270480,note_on,5,0,6,,,,,,,,5,,,46,85
270540,note_on,60,0,1,,,,,,,,0,,,58,0
270540,note_on,60,0,3,,,,,,,,2,,,58,0
270540,note_on,60,0,2,,,,,,,,1,,,58,0
270705,note_on,225,0,6,,,,,,,,5,,,46,0
270705,note_on,225,0,5,,,,,,,,4,,,46,0
270705,note_on,225,0,4,,,,,,,,3,,,62,0
270720,note_on,15,0,6,,,,,,,,5,,,58,85
270720,note_on,180,0,2,,,,,,,,1,,,70,64
270720,note_on,15,0,4,,,,,,,,3,,,65,85
270720,note_on,180,0,1,,,,,,,,0,,,70,64
270720,note_on,180,0,3,,,,,,,,2,,,70,64
270720,note_on,15,0,5,,,,,,,,4,,,58,85
270780,note_on,60,0,6,,,,,,,,5,,,58,0
270780,note_on,60,0,4,,,,,,,,3,,,65,0
270780,note_on,60,0,5,,,,,,,,4,,,58,0
270835,note_on,115,0,2,,,,,,,,1,,,70,0
270835,note_on,115,0,1,,,,,,,,0,,,70,0
270835,note_on,115,0,3,,,,,,,,2,,,70,0
270840,note_on,5,0,2,,,,,,,,1,,,74,64
270840,note_on,5,0,3,,,,,,,,2,,,74,64
270840,note_on,5,0,1,,,,,,,,0,,,74,64
270955,note_on,115,0,3,,,,,,,,2,,,74,0
270955,note_on,115,0,1,,,,,,,,0,,,74,0
270955,note_on,115,0,2,,,,,,,,1,,,74,0
270960,note_on,5,0,3,,,,,,,,2,,,77,64
270960,note_on,5,0,1,,,,,,,,0,,,77,64
270960,note_on,180,0,5,,,,,,,,4,,,62,85
270960,note_on,180,0,6,,,,,,,,5,,,62,85
270960,note_on,180,0,4,,,,,,,,3,,,65,85
270960,note_on,5,0,2,,,,,,,,1,,,77,64
271075,note_on,115,0,6,,,,,,,,5,,,62,0
271075,note_on,115,0,4,,,,,,,,3,,,65,0
271075,note_on,115,0,5,,,,,,,,4,,,62,0
271080,note_on,5,0,4,,,,,,,,3,,,63,85
271080,note_on,5,0,6,,,,,,,,5,,,60,85
271080,note_on,5,0,5,,,,,,,,4,,,60,85
271185,note_on,225,0,2,,,,,,,,1,,,77,0
271185,note_on,225,0,1,,,,,,,,0,,,77,0
271185,note_on,225,0,3,,,,,,,,2,,,77,0
271195,note_on,115,0,4,,,,,,,,3,,,63,0
271195,note_on,115,0,5,,,,,,,,4,,,60,0
271195,note_on,115,0,6,,,,,,,,5,,,60,0
271200,note_on,5,0,4,,,,,,,,3,,,62,85
271200,note_on,15,0,3,,,,,,,,2,,,82,64
271200,note_on,15,0,2,,,,,,,,1,,,82,64
271200,note_on,5,0,6,,,,,,,,5,,,58,85
271200,note_on,5,0,5,,,,,,,,4,,,58,85
271200,note_on,15,0,1,,,,,,,,0,,,82,64
271260,note_on,60,0,3,,,,,,,,2,,,82,0
271260,note_on,60,0,1,,,,,,,,0,,,82,0
271260,note_on,60,0,2,,,,,,,,1,,,82,0
271425,note_on,225,0,6,,,,,,,,5,,,58,0
271425,note_on,225,0,5,,,,,,,,4,,,58,0
271425,note_on,225,0,4,,,,,,,,3,,,62,0
271440,note_on,180,0,3,,,,,,,,2,,,70,64
271440,note_on,180,0,1,,,,,,,,0,,,70,64
271440,note_on,15,0,4,,,,,,,,3,,,62,85
271440,note_on,180,0,2,,,,,,,,1,,,70,64
271440,note_on,15,0,6,,,,,,,,5,,,46,85
271440,note_on,15,0,5,,,,,,,,4,,,46,85
271500,note_on,60,0,4,,,,,,,,3,,,62,0
271500,note_on,60,0,1,,,,,,,,0,,,70,0
271500,note_on,60,0,5,,,,,,,,4,,,46,0
271500,note_on,60,0,6,,,,,,,,5,,,46,0
271500,note_on,60,0,3,,,,,,,,2,,,70,0
271500,note_on,60,0,2,,,,,,,,1,,,70,0
271680,note_on,180,0,3,,,,,,,,2,,,65,64
271680,note_on,180,0,2,,,,,,,,1,,,65,64
271680,note_on,180,0,6,,,,,,,,5,,,50,85
271680,note_on,180,0,4,,,,,,,,3,,,65,85
271680,note_on,180,0,5,,,,,,,,4,,,50,85
271680,note_on,180,0,1,,,,,,,,0,,,65,64
271740,note_on,60,0,3,,,,,,,,2,,,65,0
271740,note_on,60,0,2,,,,,,,,1,,,65,0
271740,note_on,60,0,1,,,,,,,,0,,,65,0
271795,note_on,115,0,4,,,,,,,,3,,,65,0
271795,note_on,115,0,6,,,,,,,,5,,,50,0
271795,note_on,115,0,5,,,,,,,,4,,,50,0
271800,note_on,5,0,6,,,,,,,,5,,,48,85
271800,note_on,5,0,5,,,,,,,,4,,,48,85
271800,note_on,5,0,4,,,,,,,,3,,,63,85
271915,note_on,115,0,6,,,,,,,,5,,,48,0
271915,note_on,115,0,5,,,,,,,,4,,,48,0
271915,note_on,115,0,4,,,,,,,,3,,,63,0
271920,note_on,5,0,6,,,,,,,,5,,,46,85
271920,note_on,5,0,4,,,,,,,,3,,,62,85
271920,note_on,180,0,1,,,,,,,,0,,,58,64
271920,note_on,5,0,5,,,,,,,,4,,,46,85
271920,note_on,180,0,3,,,,,,,,2,,,58,64
271920,note_on,180,0,2,,,,,,,,1,,,58,64
271980,note_on,60,0,3,,,,,,,,2,,,58,0
271980,note_on,60,0,1,,,,,,,,0,,,58,0
271980,note_on,60,0,2,,,,,,,,1,,,58,0
272145,note_on,225,0,5,,,,,,,,4,,,46,0
272145,note_on,225,0,4,,,,,,,,3,,,62,0
272145,note_on,225,0,6,,,,,,,,5,,,46,0
272160,note_on,15,0,4,,,,,,,,3,,,70,85
272160,note_on,15,0,6,,,,,,,,5,,,58,85
272160,note_on,180,0,1,,,,,,,,0,,,70,64
272160,note_on,15,0,5,,,,,,,,4,,,58,85
272160,note_on,180,0,3,,,,,,,,2,,,70,64
272160,note_on,180,0,2,,,,,,,,1,,,70,64
272385,note_on,225,0,1,,,,,,,,0,,,70,0
272385,note_on,225,0,3,,,,,,,,2,,,70,0
272385,note_on,225,0,2,,,,,,,,1,,,70,0
272385,note_on,225,0,5,,,,,,,,4,,,58,0
272385,note_on,225,0,6,,,,,,,,5,,,58,0
272385,note_on,225,0,4,,,,,,,,3,,,70,0
272400,note_on,15,0,3,,,,,,,,2,,,69,64
272400,note_on,15,0,5,,,,,,,,4,,,57,85
272400,note_on,15,0,4,,,,,,,,3,,,69,85
272400,note_on,15,0,1,,,,,,,,0,,,69,64
272400,note_on,15,0,2,,,,,,,,1,,,69,64
272400,note_on,15,0,6,,,,,,,,5,,,57,85
272515,note_on,115,0,3,,,,,,,,2,,,69,0
272515,note_on,115,0,5,,,,,,,,4,,,57,0
272515,note_on,115,0,6,,,,,,,,5,,,57,0
272515,note_on,115,0,4,,,,,,,,3,,,69,0
272515,note_on,115,0,2,,,,,,,,1,,,69,0
272515,note_on,115,0,1,,,,,,,,0,,,69,0
272520,note_on,5,0,3,,,,,,,,2,,,67,64
272520,note_on,5,0,4,,,,,,,,3,,,67,85
272520,note_on,5,0,6,,,,,,,,5,,,55,85
272520,note_on,5,0,1,,,,,,,,0,,,67,64
272520,note_on,5,0,2,,,,,,,,1,,,67,64
272520,note_on,5,0,5,,,,,,,,4,,,55,85
272635,note_on,115,0,4,,,,,,,,3,,,67,0
272635,note_on,115,0,2,,,,,,,,1,,,67,0
272635,note_on,115,0,3,,,,,,,,2,,,67,0
272635,note_on,115,0,1,,,,,,,,0,,,67,0
272635,note_on,115,0,6,,,,,,,,5,,,55,0
272635,note_on,115,0,5,,,,,,,,4,,,55,0
272640,note_on,5,0,3,,,,,,,,2,,,65,64
272640,note_on,5,0,6,,,,,,,,5,,,53,85
272640,note_on,5,0,5,,,,,,,,4,,,53,85
272640,note_on,5,0,4,,,,,,,,3,,,65,85
272640,note_on,5,0,1,,,,,,,,0,,,65,64
272640,note_on,5,0,2,,,,,,,,1,,,65,64
272755,note_on,115,0,6,,,,,,,,5,,,53,0
272755,note_on,115,0,2,,,,,,,,1,,,65,0
272755,note_on,115,0,4,,,,,,,,3,,,65,0
272755,note_on,115,0,5,,,,,,,,4,,,53,0
272755,note_on,115,0,3,,,,,,,,2,,,65,0
272755,note_on,115,0,1,,,,,,,,0,,,65,0
272760,note_on,5,0,1,,,,,,,,0,,,63,64
272760,note_on,5,0,2,,,,,,,,1,,,63,64
272760,note_on,5,0,5,,,,,,,,4,,,51,85
272760,note_on,5,0,3,,,,,,,,2,,,63,64
272760,note_on,5,0,6,,,,,,,,5,,,51,85
272760,note_on,5,0,4,,,,,,,,3,,,63,85
272875,note_on,115,0,4,,,,,,,,3,,,63,0
272875,note_on,115,0,6,,,,,,,,5,,,51,0
272875,note_on,115,0,1,,,,,,,,0,,,63,0
272875,note_on,115,0,2,,,,,,,,1,,,63,0
272875,note_on,115,0,5,,,,,,,,4,,,51,0
272875,note_on,115,0,3,,,,,,,,2,,,63,0
272880,note_on,5,0,1,,,,,,,,0,,,62,64
272880,note_on,5,0,2,,,,,,,,1,,,62,64
272880,note_on,5,0,5,,,,,,,,4,,,50,85
272880,note_on,5,0,6,,,,,,,,5,,,50,85
272880,note_on,5,0,4,,,,,,,,3,,,62,85
272880,note_on,5,0,3,,,,,,,,2,,,62,64
272940,note_on,60,0,1,,,,,,,,0,,,62,0
272940,note_on,60,0,5,,,,,,,,4,,,50,0
272940,note_on,60,0,3,,,,,,,,2,,,62,0
272940,note_on,60,0,4,,,,,,,,3,,,62,0
272940,note_on,60,0,2,,,,,,,,1,,,62,0
272940,note_on,60,0,6,,,,,,,,5,,,50,0
273120,note_on,180,0,4,,,,,,,,3,,,60,85
273120,note_on,180,0,6,,,,,,,,5,,,48,85
273120,note_on,180,0,1,,,,,,,,0,,,60,64
273120,note_on,180,0,2,,,,,,,,1,,,60,64
273120,note_on,180,0,5,,,,,,,,4,,,48,85
273120,note_on,180,0,3,,,,,,,,2,,,60,64
273180,note_on,60,0,2,,,,,,,,1,,,60,0
273180,note_on,60,0,5,,,,,,,,4,,,48,0
273180,note_on,60,0,4,,,,,,,,3,,,60,0
273180,note_on,60,0,3,,,,,,,,2,,,60,0
273180,note_on,60,0,6,,,,,,,,5,,,48,0
273180,note_on,60,0,1,,,,,,,,0,,,60,0
273360,note_on,180,0,6,,,,,,,,5,,,46,85
273360,note_on,180,0,4,,,,,,,,3,,,58,85
273360,note_on,180,0,2,,,,,,,,1,,,58,64
273360,note_on,180,0,5,,,,,,,,4,,,46,85
273360,note_on,180,0,1,,,,,,,,0,,,58,64
273360,note_on,180,0,3,,,,,,,,2,,,58,64
273420,note_on,60,0,5,,,,,,,,4,,,46,0
273420,note_on,60,0,2,,,,,,,,1,,,58,0
273420,note_on,60,0,3,,,,,,,,2,,,58,0
273420,note_on,60,0,1,,,,,,,,0,,,58,0
273420,note_on,60,0,4,,,,,,,,3,,,58,0
273420,note_on,60,0,6,,,,,,,,5,,,46,0
273600,note_on,180,0,3,,,,,,,,2,,,70,64
273600,note_on,180,0,5,,,,,,,,4,,,58,85
273600,note_on,180,0,4,,,,,,,,3,,,65,85
273600,note_on,180,0,1,,,,,,,,0,,,70,64
273600,note_on,180,0,6,,,,,,,,5,,,58,85
273600,note_on,180,0,2,,,,,,,,1,,,70,64
273660,note_on,60,0,4,,,,,,,,3,,,65,0
273660,note_on,60,0,5,,,,,,,,4,,,58,0
273660,note_on,60,0,6,,,,,,,,5,,,58,0
273715,note_on,115,0,3,,,,,,,,2,,,70,0
273715,note_on,115,0,1,,,,,,,,0,,,70,0
273715,note_on,115,0,2,,,,,,,,1,,,70,0
273720,note_on,5,0,2,,,,,,,,1,,,74,64
273720,note_on,5,0,1,,,,,,,,0,,,74,64
273720,note_on,5,0,3,,,,,,,,2,,,74,64
273835,note_on,115,0,1,,,,,,,,0,,,74,0
273835,note_on,115,0,3,,,,,,,,2,,,74,0
273835,note_on,115,0,2,,,,,,,,1,,,74,0
273840,note_on,180,0,6,,,,,,,,5,,,62,85
273840,note_on,180,0,5,,,,,,,,4,,,62,85
273840,note_on,5,0,3,,,,,,,,2,,,77,64
273840,note_on,5,0,1,,,,,,,,0,,,77,64
273840,note_on,180,0,4,,,,,,,,3,,,65,85
273840,note_on,5,0,2,,,,,,,,1,,,77,64
273955,note_on,115,0,6,,,,,,,,5,,,62,0
273955,note_on,115,0,5,,,,,,,,4,,,62,0
273955,note_on,115,0,4,,,,,,,,3,,,65,0
273960,note_on,5,0,5,,,,,,,,4,,,60,85
273960,note_on,5,0,4,,,,,,,,3,,,63,85
273960,note_on,5,0,6,,,,,,,,5,,,60,85
274065,note_on,225,0,3,,,,,,,,2,,,77,0
274065,note_on,225,0,2,,,,,,,,1,,,77,0
274065,note_on,225,0,1,,,,,,,,0,,,77,0
274075,note_on,115,0,6,,,,,,,,5,,,60,0
274075,note_on,115,0,4,,,,,,,,3,,,63,0
274075,note_on,115,0,5,,,,,,,,4,,,60,0
274080,note_on,5,0,6,,,,,,,,5,,,58,85
274080,note_on,15,0,1,,,,,,,,0,,,82,64
274080,note_on,5,0,4,,,,,,,,3,,,62,85
274080,note_on,15,0,2,,,,,,,,1,,,82,64
274080,note_on,5,0,5,,,,,,,,4,,,58,85
274080,note_on,15,0,3,,,,,,,,2,,,82,64
274140,note_on,60,0,1,,,,,,,,0,,,82,0
274140,note_on,60,0,3,,,,,,,,2,,,82,0
274140,note_on,60,0,2,,,,,,,,1,,,82,0
274305,note_on,225,0,4,,,,,,,,3,,,62,0
274305,note_on,225,0,6,,,,,,,,5,,,58,0
274305,note_on,225,0,5,,,,,,,,4,,,58,0
274320,note_on,15,0,5,,,,,,,,4,,,46,85
274320,note_on,180,0,1,,,,,,,,0,,,70,64
274320,note_on,15,0,4,,,,,,,,3,,,62,85
274320,note_on,15,0,6,,,,,,,,5,,,46,85
274320,note_on,180,0,3,,,,,,,,2,,,70,64
274320,note_on,180,0,2,,,,,,,,1,,,70,64
274380,note_on,60,0,6,,,,,,,,5,,,46,0
274380,note_on,60,0,4,,,,,,,,3,,,62,0
274380,note_on,60,0,2,,,,,,,,1,,,70,0
274380,note_on,60,0,5,,,,,,,,4,,,46,0
274380,note_on,60,0,3,,,,,,,,2,,,70,0
274380,note_on,60,0,1,,,,,,,,0,,,70,0
274560,note_on,180,0,3,,,,,,,,2,,,65,64
274560,note_on,180,0,6,,,,,,,,5,,,50,85
274560,note_on,180,0,4,,,,,,,,3,,,65,85
274560,note_on,180,0,1,,,,,,,,0,,,65,64
274560,note_on,180,0,2,,,,,,,,1,,,65,64
274560,note_on,180,0,5,,,,,,,,4,,,50,85
274620,note_on,60,0,1,,,,,,,,0,,,65,0
274620,note_on,60,0,3,,,,,,,,2,,,65,0
274620,note_on,60,0,2,,,,,,,,1,,,65,0
274675,note_on,115,0,5,,,,,,,,4,,,50,0
274675,note_on,115,0,4,,,,,,,,3,,,65,0
274675,note_on,115,0,6,,,,,,,,5,,,50,0
274680,note_on,5,0,5,,,,,,,,4,,,48,85
274680,note_on,5,0,4,,,,,,,,3,,,63,85
274680,note_on,5,0,6,,,,,,,,5,,,48,85
274795,note_on,115,0,4,,,,,,,,3,,,63,0
274795,note_on,115,0,5,,,,,,,,4,,,48,0
274795,note_on,115,0,6,,,,,,,,5,,,48,0
274800,note_on,180,0,2,,,,,,,,1,,,58,64
274800,note_on,5,0,6,,,,,,,,5,,,46,64
274800,note_on,5,0,5,,,,,,,,4,,,46,64
274800,note_on,180,0,1,,,,,,,,0,,,58,64
274800,note_on,5,0,4,,,,,,,,3,,,62,85
274800,note_on,180,0,3,,,,,,,,2,,,58,64
274860,note_on,60,0,2,,,,,,,,1,,,58,0
274860,note_on,60,0,1,,,,,,,,0,,,58,0
274860,note_on,60,0,3,,,,,,,,2,,,58,0
275025,note_on,225,0,4,,,,,,,,3,,,62,0
275025,note_on,225,0,6,,,,,,,,5,,,46,0
275025,note_on,225,0,5,,,,,,,,4,,,46,0
275040,note_on,15,0,6,,,,,,,,5,,,58,64
275040,note_on,15,0,5,,,,,,,,4,,,58,64
275040,note_on,15,0,4,,,,,,,,3,,,65,85
275040,note_on,180,0,1,,,,,,,,0,,,70,64
275040,note_on,180,0,2,,,,,,,,1,,,70,64
275040,note_on,180,0,3,,,,,,,,2,,,70,64
275100,note_on,60,0,5,,,,,,,,4,,,58,0
275100,note_on,60,0,4,,,,,,,,3,,,65,0
275100,note_on,60,0,6,,,,,,,,5,,,58,0
275155,note_on,115,0,2,,,,,,,,1,,,70,0
275155,note_on,115,0,3,,,,,,,,2,,,70,0
275155,note_on,115,0,1,,,,,,,,0,,,70,0
275160,note_on,5,0,2,,,,,,,,1,,,74,64
275160,note_on,5,0,3,,,,,,,,2,,,74,64
275160,note_on,5,0,1,,,,,,,,0,,,74,64
275275,note_on,115,0,2,,,,,,,,1,,,74,0
275275,note_on,115,0,1,,,,,,,,0,,,74,0
275275,note_on,115,0,3,,,,,,,,2,,,74,0
275280,note_on,180,0,4,,,,,,,,3,,,65,85
275280,note_on,5,0,2,,,,,,,,1,,,77,64
275280,note_on,180,0,5,,,,,,,,4,,,62,64
275280,note_on,180,0,6,,,,,,,,5,,,62,64
275280,note_on,5,0,1,,,,,,,,0,,,77,64
275280,note_on,5,0,3,,,,,,,,2,,,77,64
275395,note_on,115,0,6,,,,,,,,5,,,62,0
275395,note_on,115,0,5,,,,,,,,4,,,62,0
275395,note_on,115,0,4,,,,,,,,3,,,65,0
275400,note_on,5,0,6,,,,,,,,5,,,60,64
275400,note_on,5,0,4,,,,,,,,3,,,63,85
275400,note_on,5,0,5,,,,,,,,4,,,60,64
275505,note_on,225,0,3,,,,,,,,2,,,77,0
275505,note_on,225,0,2,,,,,,,,1,,,77,0
275505,note_on,225,0,1,,,,,,,,0,,,77,0
275515,note_on,115,0,6,,,,,,,,5,,,60,0
275515,note_on,115,0,4,,,,,,,,3,,,63,0
275515,note_on,115,0,5,,,,,,,,4,,,60,0
275520,note_on,5,0,6,,,,,,,,5,,,58,64
275520,note_on,5,0,4,,,,,,,,3,,,62,85
275520,note_on,15,0,3,,,,,,,,2,,,82,64
275520,note_on,5,0,5,,,,,,,,4,,,58,64
275520,note_on,15,0,1,,,,,,,,0,,,82,64
275520,note_on,15,0,2,,,,,,,,1,,,82,64
275580,note_on,60,0,3,,,,,,,,2,,,82,0
275580,note_on,60,0,1,,,,,,,,0,,,82,0
275580,note_on,60,0,2,,,,,,,,1,,,82,0
275745,note_on,225,0,5,,,,,,,,4,,,58,0
275745,note_on,225,0,6,,,,,,,,5,,,58,0
275745,note_on,225,0,4,,,,,,,,3,,,62,0
275760,note_on,15,0,4,,,,,,,,3,,,62,85
275760,note_on,15,0,6,,,,,,,,5,,,46,64
275760,note_on,15,0,5,,,,,,,,4,,,46,64
275760,note_on,180,0,2,,,,,,,,1,,,70,64
275760,note_on,180,0,1,,,,,,,,0,,,70,64
275760,note_on,180,0,3,,,,,,,,2,,,70,64
275820,note_on,60,0,3,,,,,,,,2,,,70,0
275820,note_on,60,0,1,,,,,,,,0,,,70,0
275820,note_on,60,0,5,,,,,,,,4,,,46,0
275820,note_on,60,0,4,,,,,,,,3,,,62,0
275820,note_on,60,0,6,,,,,,,,5,,,46,0
275820,note_on,60,0,2,,,,,,,,1,,,70,0
276000,note_on,180,0,2,,,,,,,,1,,,65,64
276000,note_on,180,0,6,,,,,,,,5,,,50,64
276000,note_on,180,0,1,,,,,,,,0,,,65,64
276000,note_on,180,0,4,,,,,,,,3,,,65,85
276000,note_on,180,0,3,,,,,,,,2,,,65,64
276000,note_on,180,0,5,,,,,,,,4,,,50,64
276060,note_on,60,0,1,,,,,,,,0,,,65,0
276060,note_on,60,0,2,,,,,,,,1,,,65,0
276060,note_on,60,0,3,,,,,,,,2,,,65,0
276115,note_on,115,0,6,,,,,,,,5,,,50,0
276115,note_on,115,0,4,,,,,,,,3,,,65,0
276115,note_on,115,0,5,,,,,,,,4,,,50,0
276120,note_on,5,0,6,,,,,,,,5,,,48,64
276120,note_on,5,0,4,,,,,,,,3,,,63,85
276120,note_on,5,0,5,,,,,,,,4,,,48,64
276235,note_on,115,0,5,,,,,,,,4,,,48,0
276235,note_on,115,0,6,,,,,,,,5,,,48,0
276235,note_on,115,0,4,,,,,,,,3,,,63,0
276240,note_on,180,0,3,,,,,,,,2,,,58,64
276240,note_on,5,0,5,,,,,,,,4,,,46,64
276240,note_on,5,0,4,,,,,,,,3,,,62,85
276240,note_on,5,0,6,,,,,,,,5,,,46,64
276240,note_on,180,0,2,,,,,,,,1,,,58,64
276240,note_on,180,0,1,,,,,,,,0,,,58,64
276300,note_on,60,0,3,,,,,,,,2,,,58,0
276300,note_on,60,0,2,,,,,,,,1,,,58,0
276300,note_on,60,0,1,,,,,,,,0,,,58,0
276465,note_on,225,0,6,,,,,,,,5,,,46,0
276465,note_on,225,0,4,,,,,,,,3,,,62,0
276465,note_on,225,0,5,,,,,,,,4,,,46,0
276480,note_on,180,0,2,,,,,,,,1,,,77,64
276480,note_on,180,0,1,,,,,,,,0,,,77,64
276480,note_on,15,0,5,,,,,,,,4,,,65,64
276480,note_on,180,0,3,,,,,,,,2,,,77,64
276480,note_on,15,0,6,,,,,,,,5,,,65,64
276480,note_on,15,0,4,,,,,,,,3,,,65,85
276705,note_on,225,0,4,,,,,,,,3,,,65,0
276705,note_on,225,0,1,,,,,,,,0,,,77,0
276705,note_on,225,0,3,,,,,,,,2,,,77,0
276705,note_on,225,0,6,,,,,,,,5,,,65,0
276705,note_on,225,0,2,,,,,,,,1,,,77,0
276705,note_on,225,0,5,,,,,,,,4,,,65,0
276720,note_on,15,0,1,,,,,,,,0,,,75,64
276720,note_on,15,0,3,,,,,,,,2,,,75,64
276720,note_on,15,0,2,,,,,,,,1,,,75,64
276720,note_on,15,0,5,,,,,,,,4,,,63,64
276720,note_on,15,0,4,,,,,,,,3,,,63,85
276720,note_on,15,0,6,,,,,,,,5,,,63,64
276835,note_on,115,0,2,,,,,,,,1,,,75,0
276835,note_on,115,0,1,,,,,,,,0,,,75,0
276835,note_on,115,0,4,,,,,,,,3,,,63,0
276835,note_on,115,0,6,,,,,,,,5,,,63,0
276835,note_on,115,0,3,,,,,,,,2,,,75,0
276835,note_on,115,0,5,,,,,,,,4,,,63,0
276840,note_on,5,0,2,,,,,,,,1,,,74,64
276840,note_on,5,0,6,,,,,,,,5,,,62,64
276840,note_on,5,0,3,,,,,,,,2,,,74,64
276840,note_on,5,0,1,,,,,,,,0,,,74,64
276840,note_on,5,0,4,,,,,,,,3,,,62,85
276840,note_on,5,0,5,,,,,,,,4,,,62,64
276955,note_on,115,0,5,,,,,,,,4,,,62,0
276955,note_on,115,0,1,,,,,,,,0,,,74,0
276955,note_on,115,0,3,,,,,,,,2,,,74,0
276955,note_on,115,0,2,,,,,,,,1,,,74,0
276955,note_on,115,0,6,,,,,,,,5,,,62,0
276955,note_on,115,0,4,,,,,,,,3,,,62,0
276960,note_on,5,0,6,,,,,,,,5,,,60,64
276960,note_on,5,0,3,,,,,,,,2,,,72,64
276960,note_on,5,0,2,,,,,,,,1,,,72,64
276960,note_on,5,0,5,,,,,,,,4,,,60,64
276960,note_on,5,0,1,,,,,,,,0,,,72,64
276960,note_on,5,0,4,,,,,,,,3,,,60,85
277075,note_on,115,0,2,,,,,,,,1,,,72,0
277075,note_on,115,0,5,,,,,,,,4,,,60,0
277075,note_on,115,0,1,,,,,,,,0,,,72,0
277075,note_on,115,0,4,,,,,,,,3,,,60,0
277075,note_on,115,0,6,,,,,,,,5,,,60,0
277075,note_on,115,0,3,,,,,,,,2,,,72,0
277080,note_on,5,0,6,,,,,,,,5,,,58,64
277080,note_on,5,0,5,,,,,,,,4,,,58,64
277080,note_on,5,0,4,,,,,,,,3,,,58,85
277080,note_on,5,0,3,,,,,,,,2,,,70,64
277080,note_on,5,0,2,,,,,,,,1,,,70,64
277080,note_on,5,0,1,,,,,,,,0,,,70,64
277195,note_on,115,0,3,,,,,,,,2,,,70,0
277195,note_on,115,0,6,,,,,,,,5,,,58,0
277195,note_on,115,0,2,,,,,,,,1,,,70,0
277195,note_on,115,0,4,,,,,,,,3,,,58,0
277195,note_on,115,0,1,,,,,,,,0,,,70,0
277195,note_on,115,0,5,,,,,,,,4,,,58,0
277200,note_on,5,0,5,,,,,,,,4,,,53,64
277200,note_on,5,0,6,,,,,,,,5,,,53,64
277200,note_on,5,0,4,,,,,,,,3,,,65,85
277200,note_on,5,0,3,,,,,,,,2,,,65,64
277200,note_on,5,0,1,,,,,,,,0,,,65,64
277200,note_on,5,0,2,,,,,,,,1,,,65,64
277260,note_on,60,0,6,,,,,,,,5,,,53,0
277260,note_on,60,0,5,,,,,,,,4,,,53,0
277440,note_on,180,0,6,,,,,,,,5,,,57,64
277440,note_on,180,0,5,,,,,,,,4,,,57,64
277555,note_on,115,0,5,,,,,,,,4,,,57,0
277555,note_on,115,0,6,,,,,,,,5,,,57,0
277560,note_on,5,0,5,,,,,,,,4,,,55,64
277560,note_on,5,0,6,,,,,,,,5,,,55,64
277675,note_on,115,0,5,,,,,,,,4,,,55,0
277675,note_on,115,0,6,,,,,,,,5,,,55,0
277680,note_on,5,0,5,,,,,,,,4,,,53,64
277680,note_on,5,0,6,,,,,,,,5,,,53,64
277865,note_on,665,0,3,,,,,,,,2,,,65,0
277865,note_on,665,0,2,,,,,,,,1,,,65,0
277865,note_on,665,0,1,,,,,,,,0,,,65,0
277865,note_on,665,0,4,,,,,,,,3,,,65,0
277905,note_on,225,0,5,,,,,,,,4,,,53,0
277905,note_on,225,0,6,,,,,,,,5,,,53,0
277920,note_on,55,0,4,,,,,,,,3,,,65,85
277920,note_on,55,0,1,,,,,,,,0,,,72,64
277920,note_on,55,0,2,,,,,,,,1,,,72,49
277920,note_on,55,0,3,,,,,,,,2,,,72,49
278035,note_on,115,0,1,,,,,,,,0,,,72,0
278035,note_on,115,0,3,,,,,,,,2,,,72,0
278035,note_on,115,0,2,,,,,,,,1,,,72,0
278040,note_on,5,0,2,,,,,,,,1,,,73,49
278040,note_on,5,0,1,,,,,,,,0,,,73,64
278040,note_on,5,0,3,,,,,,,,2,,,73,49
278155,note_on,115,0,3,,,,,,,,2,,,73,0
278155,note_on,115,0,2,,,,,,,,1,,,73,0
278155,note_on,115,0,1,,,,,,,,0,,,73,0
278160,note_on,5,0,3,,,,,,,,2,,,75,49
278160,note_on,5,0,2,,,,,,,,1,,,75,49
278160,note_on,5,0,1,,,,,,,,0,,,75,64
278365,note_on,445,0,4,,,,,,,,3,,,65,0
278385,note_on,225,0,2,,,,,,,,1,,,75,0
278385,note_on,225,0,1,,,,,,,,0,,,75,0
278385,note_on,225,0,3,,,,,,,,2,,,75,0
278400,note_on,15,0,1,,,,,,,,0,,,73,64
278400,note_on,15,0,3,,,,,,,,2,,,73,49
278400,note_on,35,0,4,,,,,,,,3,,,58,85
278400,note_on,15,0,2,,,,,,,,1,,,73,49
278460,note_on,60,0,1,,,,,,,,0,,,73,0
278460,note_on,60,0,2,,,,,,,,1,,,73,0
278460,note_on,60,0,3,,,,,,,,2,,,73,0
278625,note_on,225,0,4,,,,,,,,3,,,58,0
278640,note_on,15,0,4,,,,,,,,3,,,65,85
278640,note_on,180,0,3,,,,,,,,2,,,72,49
278640,note_on,180,0,1,,,,,,,,0,,,72,64
278640,note_on,180,0,2,,,,,,,,1,,,72,49
278865,note_on,225,0,2,,,,,,,,1,,,72,0
278865,note_on,225,0,3,,,,,,,,2,,,72,0
278865,note_on,225,0,1,,,,,,,,0,,,72,0
278880,note_on,15,0,2,,,,,,,,1,,,70,49
278880,note_on,15,0,3,,,,,,,,2,,,70,49
278880,note_on,15,0,1,,,,,,,,0,,,70,64
279085,note_on,445,0,4,,,,,,,,3,,,65,0
279105,note_on,225,0,3,,,,,,,,2,,,70,0
279105,note_on,225,0,2,,,,,,,,1,,,70,0
279105,note_on,225,0,1,,,,,,,,0,,,70,0
279120,note_on,15,0,3,,,,,,,,2,,,72,49
279120,note_on,15,0,1,,,,,,,,0,,,72,64
279120,note_on,35,0,4,,,,,,,,3,,,65,85
279120,note_on,15,0,2,,,,,,,,1,,,72,49
279180,note_on,60,0,2,,,,,,,,1,,,72,0
279180,note_on,60,0,3,,,,,,,,2,,,72,0
279180,note_on,60,0,1,,,,,,,,0,,,72,0
279345,note_on,225,0,4,,,,,,,,3,,,65,0
279360,note_on,180,0,1,,,,,,,,0,,,72,64
279360,note_on,15,0,4,,,,,,,,3,,,65,85
279360,note_on,180,0,3,,,,,,,,2,,,72,49
279360,note_on,180,0,2,,,,,,,,1,,,72,49
279475,note_on,115,0,2,,,,,,,,1,,,72,0
279475,note_on,115,0,1,,,,,,,,0,,,72,0
279475,note_on,115,0,3,,,,,,,,2,,,72,0
279480,note_on,5,0,1,,,,,,,,0,,,73,64
279480,note_on,5,0,2,,,,,,,,1,,,73,49
279480,note_on,5,0,3,,,,,,,,2,,,73,49
279595,note_on,115,0,1,,,,,,,,0,,,73,0
279595,note_on,115,0,3,,,,,,,,2,,,73,0
279595,note_on,115,0,2,,,,,,,,1,,,73,0
279600,note_on,5,0,1,,,,,,,,0,,,75,64
279600,note_on,5,0,2,,,,,,,,1,,,75,49
279600,note_on,5,0,3,,,,,,,,2,,,75,49
279805,note_on,445,0,4,,,,,,,,3,,,65,0
279825,note_on,225,0,1,,,,,,,,0,,,75,0
279825,note_on,225,0,2,,,,,,,,1,,,75,0
279825,note_on,225,0,3,,,,,,,,2,,,75,0
279840,note_on,35,0,4,,,,,,,,3,,,58,85
279840,note_on,15,0,3,,,,,,,,2,,,73,49
279840,note_on,15,0,1,,,,,,,,0,,,73,64
279840,note_on,15,0,2,,,,,,,,1,,,73,49
279900,note_on,60,0,3,,,,,,,,2,,,73,0
279900,note_on,60,0,1,,,,,,,,0,,,73,0
279900,note_on,60,0,2,,,,,,,,1,,,73,0
280065,note_on,225,0,4,,,,,,,,3,,,58,0
280080,note_on,15,0,4,,,,,,,,3,,,65,85
280080,note_on,180,0,2,,,,,,,,1,,,72,49
280080,note_on,180,0,3,,,,,,,,2,,,72,49
280080,note_on,180,0,1,,,,,,,,0,,,72,64
280305,note_on,225,0,1,,,,,,,,0,,,72,0
280305,note_on,225,0,3,,,,,,,,2,,,72,0
280305,note_on,225,0,2,,,,,,,,1,,,72,0
280320,note_on,15,0,2,,,,,,,,1,,,70,49
280320,note_on,15,0,3,,,,,,,,2,,,70,49
280320,note_on,15,0,1,,,,,,,,0,,,70,64
280525,note_on,445,0,4,,,,,,,,3,,,65,0
280545,note_on,225,0,3,,,,,,,,2,,,70,0
280545,note_on,225,0,2,,,,,,,,1,,,70,0
280545,note_on,225,0,1,,,,,,,,0,,,70,0
280560,note_on,15,0,2,,,,,,,,1,,,72,49
280560,note_on,15,0,3,,,,,,,,2,,,72,49
280560,note_on,35,0,4,,,,,,,,3,,,65,85
280560,note_on,15,0,1,,,,,,,,0,,,72,64
280620,note_on,60,0,2,,,,,,,,1,,,72,0
280620,note_on,60,0,3,,,,,,,,2,,,72,0
280620,note_on,60,0,1,,,,,,,,0,,,72,0
280785,note_on,225,0,4,,,,,,,,3,,,65,0
280800,note_on,180,0,3,,,,,,,,2,,,82,49
280800,note_on,2895,0,5,,,,,,,,4,,,58,85
280800,note_on,180,0,2,,,,,,,,1,,,82,49
280800,note_on,15,0,4,,,,,,,,3,,,74,85
280800,note_on,180,0,1,,,,,,,,0,,,82,64
280800,note_on,2895,0,6,,,,,,,,5,,,58,85
280915,note_on,115,0,1,,,,,,,,0,,,82,0
280915,note_on,115,0,3,,,,,,,,2,,,82,0
280915,note_on,115,0,2,,,,,,,,1,,,82,0
280920,note_on,5,0,2,,,,,,,,1,,,70,49
280920,note_on,5,0,3,,,,,,,,2,,,70,49
280920,note_on,5,0,1,,,,,,,,0,,,70,64
281025,note_on,225,0,6,,,,,,,,5,,,58,0
281025,note_on,225,0,4,,,,,,,,3,,,74,0
281025,note_on,225,0,5,,,,,,,,4,,,58,0
281035,note_on,115,0,2,,,,,,,,1,,,70,0
281035,note_on,115,0,1,,,,,,,,0,,,70,0
281035,note_on,115,0,3,,,,,,,,2,,,70,0
281040,note_on,5,0,2,,,,,,,,1,,,82,49
281040,note_on,15,0,5,,,,,,,,4,,,58,85
281040,note_on,15,0,4,,,,,,,,3,,,74,85
281040,note_on,15,0,6,,,,,,,,5,,,58,85
281040,note_on,5,0,1,,,,,,,,0,,,82,64
281040,note_on,5,0,3,,,,,,,,2,,,82,49
281265,note_on,225,0,4,,,,,,,,3,,,74,0
281265,note_on,225,0,5,,,,,,,,4,,,58,0
281265,note_on,225,0,6,,,,,,,,5,,,58,0
281280,note_on,15,0,4,,,,,,,,3,,,74,85
281280,note_on,15,0,6,,,,,,,,5,,,58,85
281280,note_on,15,0,5,,,,,,,,4,,,58,85
281485,note_on,445,0,2,,,,,,,,1,,,82,0
281485,note_on,445,0,1,,,,,,,,0,,,82,0
281485,note_on,445,0,3,,,,,,,,2,,,82,0
281505,note_on,225,0,6,,,,,,,,5,,,58,0
281505,note_on,225,0,5,,,,,,,,4,,,58,0
281505,note_on,225,0,4,,,,,,,,3,,,74,0
281520,note_on,15,0,5,,,,,,,,4,,,57,85
281520,note_on,15,0,4,,,,,,,,3,,,72,85
281520,note_on,35,0,3,,,,,,,,2,,,82,49
281520,note_on,35,0,2,,,,,,,,1,,,82,49
281520,note_on,35,0,1,,,,,,,,0,,,82,64
281520,note_on,15,0,6,,,,,,,,5,,,57,85
281635,note_on,115,0,2,,,,,,,,1,,,82,0
281635,note_on,115,0,1,,,,,,,,0,,,82,0
281635,note_on,115,0,3,,,,,,,,2,,,82,0
281640,note_on,5,0,1,,,,,,,,0,,,70,64
281640,note_on,5,0,2,,,,,,,,1,,,70,49
281640,note_on,5,0,3,,,,,,,,2,,,70,49
281745,note_on,225,0,6,,,,,,,,5,,,57,0
281745,note_on,225,0,5,,,,,,,,4,,,57,0
281745,note_on,225,0,4,,,,,,,,3,,,72,0
281755,note_on,115,0,1,,,,,,,,0,,,70,0
281755,note_on,115,0,3,,,,,,,,2,,,70,0
281755,note_on,115,0,2,,,,,,,,1,,,70,0
281760,note_on,5,0,3,,,,,,,,2,,,82,49
281760,note_on,5,0,2,,,,,,,,1,,,82,49
281760,note_on,15,0,6,,,,,,,,5,,,57,85
281760,note_on,15,0,4,,,,,,,,3,,,72,85
281760,note_on,15,0,5,,,,,,,,4,,,57,85
281760,note_on,5,0,1,,,,,,,,0,,,82,64
281985,note_on,225,0,5,,,,,,,,4,,,57,0
281985,note_on,225,0,6,,,,,,,,5,,,57,0
281985,note_on,225,0,4,,,,,,,,3,,,72,0
282000,note_on,15,0,6,,,,,,,,5,,,57,85
282000,note_on,15,0,5,,,,,,,,4,,,57,85
282000,note_on,15,0,4,,,,,,,,3,,,72,85
282205,note_on,445,0,3,,,,,,,,2,,,82,0
282205,note_on,445,0,2,,,,,,,,1,,,82,0
282205,note_on,445,0,1,,,,,,,,0,,,82,0
282225,note_on,225,0,5,,,,,,,,4,,,57,0
282225,note_on,225,0,4,,,,,,,,3,,,72,0
282225,note_on,225,0,6,,,,,,,,5,,,57,0
282240,note_on,35,0,2,,,,,,,,1,,,82,49
282240,note_on,15,0,4,,,,,,,,3,,,70,85
282240,note_on,15,0,6,,,,,,,,5,,,55,85
282240,note_on,35,0,1,,,,,,,,0,,,82,64
282240,note_on,15,0,5,,,,,,,,4,,,55,85
282240,note_on,35,0,3,,,,,,,,2,,,82,49
282355,note_on,115,0,2,,,,,,,,1,,,82,0
282355,note_on,115,0,1,,,,,,,,0,,,82,0
282355,note_on,115,0,3,,,,,,,,2,,,82,0
282360,note_on,5,0,1,,,,,,,,0,,,70,64
282360,note_on,5,0,2,,,,,,,,1,,,70,49
282360,note_on,5,0,3,,,,,,,,2,,,70,49
282465,note_on,225,0,5,,,,,,,,4,,,55,0
282465,note_on,225,0,6,,,,,,,,5,,,55,0
282465,note_on,225,0,4,,,,,,,,3,,,70,0
282475,note_on,115,0,1,,,,,,,,0,,,70,0
282475,note_on,115,0,2,,,,,,,,1,,,70,0
282475,note_on,115,0,3,,,,,,,,2,,,70,0
282480,note_on,5,0,1,,,,,,,,0,,,82,64
282480,note_on,15,0,4,,,,,,,,3,,,70,85
282480,note_on,15,0,6,,,,,,,,5,,,55,85
282480,note_on,15,0,5,,,,,,,,4,,,55,85
282480,note_on,5,0,2,,,,,,,,1,,,82,49
282480,note_on,5,0,3,,,,,,,,2,,,82,49
282705,note_on,225,0,6,,,,,,,,5,,,55,0
282705,note_on,225,0,5,,,,,,,,4,,,55,0
282705,note_on,225,0,4,,,,,,,,3,,,70,0
282720,note_on,15,0,5,,,,,,,,4,,,55,85
282720,note_on,15,0,4,,,,,,,,3,,,70,85
282720,note_on,15,0,6,,,,,,,,5,,,55,85
282925,note_on,445,0,3,,,,,,,,2,,,82,0
282925,note_on,445,0,2,,,,,,,,1,,,82,0
282925,note_on,445,0,1,,,,,,,,0,,,82,0
282945,note_on,225,0,6,,,,,,,,5,,,55,0
282945,note_on,225,0,5,,,,,,,,4,,,55,0
282945,note_on,225,0,4,,,,,,,,3,,,70,0
282960,note_on,15,0,5,,,,,,,,4,,,53,85
282960,note_on,35,0,3,,,,,,,,2,,,82,49
282960,note_on,15,0,4,,,,,,,,3,,,69,85
282960,note_on,35,0,2,,,,,,,,1,,,82,49
282960,note_on,15,0,6,,,,,,,,5,,,53,85
282960,note_on,35,0,1,,,,,,,,0,,,82,64
283075,note_on,115,0,1,,,,,,,,0,,,82,0
283075,note_on,115,0,3,,,,,,,,2,,,82,0
283075,note_on,115,0,2,,,,,,,,1,,,82,0
283080,note_on,5,0,1,,,,,,,,0,,,70,64
283080,note_on,5,0,3,,,,,,,,2,,,70,49
283080,note_on,5,0,2,,,,,,,,1,,,70,49
283185,note_on,225,0,6,,,,,,,,5,,,53,0
283185,note_on,225,0,5,,,,,,,,4,,,53,0
283185,note_on,225,0,4,,,,,,,,3,,,69,0
283195,note_on,115,0,3,,,,,,,,2,,,70,0
283195,note_on,115,0,1,,,,,,,,0,,,70,0
283195,note_on,115,0,2,,,,,,,,1,,,70,0
283200,note_on,15,0,4,,,,,,,,3,,,69,85
283200,note_on,5,0,2,,,,,,,,1,,,82,49
283200,note_on,15,0,6,,,,,,,,5,,,53,85
283200,note_on,5,0,1,,,,,,,,0,,,82,64
283200,note_on,15,0,5,,,,,,,,4,,,53,85
283200,note_on,5,0,3,,,,,,,,2,,,82,49
283425,note_on,225,0,4,,,,,,,,3,,,69,0
283425,note_on,225,0,6,,,,,,,,5,,,53,0
283425,note_on,225,0,5,,,,,,,,4,,,53,0
283440,note_on,15,0,5,,,,,,,,4,,,53,85
283440,note_on,15,0,4,,,,,,,,3,,,69,85
283440,note_on,15,0,6,,,,,,,,5,,,53,85
283645,note_on,445,0,3,,,,,,,,2,,,82,0
283645,note_on,445,0,2,,,,,,,,1,,,82,0
283645,note_on,445,0,1,,,,,,,,0,,,82,0
283665,note_on,225,0,6,,,,,,,,5,,,53,0
283665,note_on,225,0,5,,,,,,,,4,,,53,0
283665,note_on,225,0,4,,,,,,,,3,,,69,0
283680,note_on,35,0,3,,,,,,,,2,,,82,49
283680,note_on,15,0,6,,,,,,,,5,,,51,85
283680,note_on,15,0,5,,,,,,,,4,,,51,85
283680,note_on,15,0,4,,,,,,,,3,,,67,85
283680,note_on,35,0,1,,,,,,,,0,,,82,64
283680,note_on,35,0,2,,,,,,,,1,,,82,49
283795,note_on,115,0,3,,,,,,,,2,,,82,0
283795,note_on,115,0,1,,,,,,,,0,,,82,0
283795,note_on,115,0,2,,,,,,,,1,,,82,0
283800,note_on,5,0,1,,,,,,,,0,,,70,64
283800,note_on,5,0,2,,,,,,,,1,,,70,49
283800,note_on,5,0,3,,,,,,,,2,,,70,49
283905,note_on,225,0,4,,,,,,,,3,,,67,0
283905,note_on,225,0,5,,,,,,,,4,,,51,0
283905,note_on,225,0,6,,,,,,,,5,,,51,0
283915,note_on,115,0,2,,,,,,,,1,,,70,0
283915,note_on,115,0,1,,,,,,,,0,,,70,0
283915,note_on,115,0,3,,,,,,,,2,,,70,0
283920,note_on,5,0,3,,,,,,,,2,,,82,49
283920,note_on,5,0,2,,,,,,,,1,,,82,49
283920,note_on,15,0,6,,,,,,,,5,,,51,85
283920,note_on,5,0,1,,,,,,,,0,,,82,64
283920,note_on,15,0,4,,,,,,,,3,,,67,85
283920,note_on,15,0,5,,,,,,,,4,,,51,85
284145,note_on,225,0,5,,,,,,,,4,,,51,0
284145,note_on,225,0,6,,,,,,,,5,,,51,0
284145,note_on,225,0,4,,,,,,,,3,,,67,0
284160,note_on,15,0,4,,,,,,,,3,,,67,85
284160,note_on,15,0,6,,,,,,,,5,,,51,85
284160,note_on,15,0,5,,,,,,,,4,,,51,85
284365,note_on,445,0,2,,,,,,,,1,,,82,0
284365,note_on,445,0,3,,,,,,,,2,,,82,0
284365,note_on,445,0,1,,,,,,,,0,,,82,0
284385,note_on,225,0,6,,,,,,,,5,,,51,0
284385,note_on,225,0,5,,,,,,,,4,,,51,0
284385,note_on,225,0,4,,,,,,,,3,,,67,0
284400,note_on,15,0,6,,,,,,,,5,,,58,85
284400,note_on,15,0,5,,,,,,,,4,,,58,85
284400,note_on,35,0,1,,,,,,,,0,,,74,64
284400,note_on,15,0,4,,,,,,,,3,,,65,85
284400,note_on,35,0,2,,,,,,,,1,,,74,49
284400,note_on,35,0,3,,,,,,,,2,,,74,49
284460,note_on,60,0,1,,,,,,,,0,,,74,0
284460,note_on,60,0,2,,,,,,,,1,,,74,0
284460,note_on,60,0,3,,,,,,,,2,,,74,0
284625,note_on,225,0,6,,,,,,,,5,,,58,0
284625,note_on,225,0,5,,,,,,,,4,,,58,0
284625,note_on,225,0,4,,,,,,,,3,,,65,0
284640,note_on,15,0,4,,,,,,,,3,,,72,85
284640,note_on,180,0,2,,,,,,,,1,,,75,49
284640,note_on,15,0,6,,,,,,,,5,,,51,85
284640,note_on,15,0,5,,,,,,,,4,,,51,85
284640,note_on,180,0,1,,,,,,,,0,,,75,64
284640,note_on,180,0,3,,,,,,,,2,,,75,49
284700,note_on,60,0,1,,,,,,,,0,,,75,0
284700,note_on,60,0,3,,,,,,,,2,,,75,0
284700,note_on,60,0,2,,,,,,,,1,,,75,0
284865,note_on,225,0,6,,,,,,,,5,,,51,0
284865,note_on,225,0,4,,,,,,,,3,,,72,0
284865,note_on,225,0,5,,,,,,,,4,,,51,0
284880,note_on,180,0,1,,,,,,,,0,,,72,64
284880,note_on,15,0,5,,,,,,,,4,,,53,85
284880,note_on,15,0,4,,,,,,,,3,,,69,85
284880,note_on,180,0,3,,,,,,,,2,,,72,49
284880,note_on,15,0,6,,,,,,,,5,,,53,85
284880,note_on,180,0,2,,,,,,,,1,,,72,49
284940,note_on,60,0,2,,,,,,,,1,,,72,0
284940,note_on,60,0,3,,,,,,,,2,,,72,0
284940,note_on,60,0,1,,,,,,,,0,,,72,0
285105,note_on,225,0,6,,,,,,,,5,,,53,0
285105,note_on,225,0,5,,,,,,,,4,,,53,0
285105,note_on,225,0,4,,,,,,,,3,,,69,0
285120,note_on,15,0,6,,,,,,,,5,,,46,85
285120,note_on,15,0,4,,,,,,,,3,,,70,85
285120,note_on,180,0,3,,,,,,,,2,,,70,49
285120,note_on,180,0,1,,,,,,,,0,,,70,64
285120,note_on,15,0,5,,,,,,,,4,,,46,85
285120,note_on,180,0,2,,,,,,,,1,,,70,49
285565,note_on,445,0,1,,,,,,,,0,,,70,0
285565,note_on,445,0,5,,,,,,,,4,,,46,0
285565,note_on,445,0,4,,,,,,,,3,,,70,0
285565,note_on,445,0,2,,,,,,,,1,,,70,0
285565,note_on,445,0,3,,,,,,,,2,,,70,0
285565,note_on,445,0,6,,,,,,,,5,,,46,0
285840,note_on,275,0,1,,,,,,,,0,,,82,49
285840,note_on,275,0,5,,,,,,,,4,,,58,64
285840,note_on,275,0,2,,,,,,,,1,,,82,49
285840,note_on,275,0,4,,,,,,,,3,,,74,64
285840,note_on,275,0,3,,,,,,,,2,,,82,49
285840,note_on,275,0,6,,,,,,,,5,,,58,64
285955,note_on,115,0,1,,,,,,,,0,,,82,0
285955,note_on,115,0,2,,,,,,,,1,,,82,0
285955,note_on,115,0,3,,,,,,,,2,,,82,0
285960,note_on,5,0,3,,,,,,,,2,,,70,49
285960,note_on,5,0,2,,,,,,,,1,,,70,49
285960,note_on,5,0,1,,,,,,,,0,,,70,49
286065,note_on,225,0,4,,,,,,,,3,,,74,0
286065,note_on,225,0,5,,,,,,,,4,,,58,0
286065,note_on,225,0,6,,,,,,,,5,,,58,0
286075,note_on,115,0,1,,,,,,,,0,,,70,0
286075,note_on,115,0,3,,,,,,,,2,,,70,0
286075,note_on,115,0,2,,,,,,,,1,,,70,0
286080,note_on,15,0,4,,,,,,,,3,,,74,64
286080,note_on,5,0,1,,,,,,,,0,,,82,49
286080,note_on,15,0,5,,,,,,,,4,,,58,64
286080,note_on,15,0,6,,,,,,,,5,,,58,64
286080,note_on,5,0,2,,,,,,,,1,,,82,49
286080,note_on,5,0,3,,,,,,,,2,,,82,49
286305,note_on,225,0,5,,,,,,,,4,,,58,0
286305,note_on,225,0,6,,,,,,,,5,,,58,0
286305,note_on,225,0,4,,,,,,,,3,,,74,0
286320,note_on,15,0,4,,,,,,,,3,,,74,64
286320,note_on,15,0,6,,,,,,,,5,,,58,64
286320,note_on,15,0,5,,,,,,,,4,,,58,64
286525,note_on,445,0,2,,,,,,,,1,,,82,0
286525,note_on,445,0,1,,,,,,,,0,,,82,0
286525,note_on,445,0,3,,,,,,,,2,,,82,0
286545,note_on,225,0,5,,,,,,,,4,,,58,0
286545,note_on,225,0,4,,,,,,,,3,,,74,0
286545,note_on,225,0,6,,,,,,,,5,,,58,0
286560,note_on,35,0,3,,,,,,,,2,,,82,49
286560,note_on,15,0,6,,,,,,,,5,,,57,64
286560,note_on,15,0,5,,,,,,,,4,,,57,64
286560,note_on,35,0,1,,,,,,,,0,,,82,49
286560,note_on,35,0,2,,,,,,,,1,,,82,49
286560,note_on,15,0,4,,,,,,,,3,,,72,64
286675,note_on,115,0,3,,,,,,,,2,,,82,0
286675,note_on,115,0,2,,,,,,,,1,,,82,0
286675,note_on,115,0,1,,,,,,,,0,,,82,0
286680,note_on,5,0,2,,,,,,,,1,,,70,49
286680,note_on,5,0,1,,,,,,,,0,,,70,49
286680,note_on,5,0,3,,,,,,,,2,,,70,49
286785,note_on,225,0,6,,,,,,,,5,,,57,0
286785,note_on,225,0,4,,,,,,,,3,,,72,0
286785,note_on,225,0,5,,,,,,,,4,,,57,0
286795,note_on,115,0,3,,,,,,,,2,,,70,0
286795,note_on,115,0,1,,,,,,,,0,,,70,0
286795,note_on,115,0,2,,,,,,,,1,,,70,0
286800,note_on,15,0,5,,,,,,,,4,,,57,64
286800,note_on,15,0,4,,,,,,,,3,,,72,64
286800,note_on,15,0,6,,,,,,,,5,,,57,64
286800,note_on,5,0,1,,,,,,,,0,,,82,49
286800,note_on,5,0,2,,,,,,,,1,,,82,49
286800,note_on,5,0,3,,,,,,,,2,,,82,49
287025,note_on,225,0,4,,,,,,,,3,,,72,0
287025,note_on,225,0,6,,,,,,,,5,,,57,0
287025,note_on,225,0,5,,,,,,,,4,,,57,0
287040,note_on,15,0,4,,,,,,,,3,,,72,64
287040,note_on,15,0,6,,,,,,,,5,,,57,64
287040,note_on,15,0,5,,,,,,,,4,,,57,64
287245,note_on,445,0,1,,,,,,,,0,,,82,0
287245,note_on,445,0,3,,,,,,,,2,,,82,0
287245,note_on,445,0,2,,,,,,,,1,,,82,0
287265,note_on,225,0,4,,,,,,,,3,,,72,0
287265,note_on,225,0,5,,,,,,,,4,,,57,0
287265,note_on,225,0,6,,,,,,,,5,,,57,0
287280,note_on,15,0,5,,,,,,,,4,,,55,64
287280,note_on,15,0,6,,,,,,,,5,,,55,64
287280,note_on,35,0,2,,,,,,,,1,,,82,49
287280,note_on,35,0,1,,,,,,,,0,,,82,49
287280,note_on,15,0,4,,,,,,,,3,,,70,64
287280,note_on,35,0,3,,,,,,,,2,,,82,49
287395,note_on,115,0,1,,,,,,,,0,,,82,0
287395,note_on,115,0,2,,,,,,,,1,,,82,0
287395,note_on,115,0,3,,,,,,,,2,,,82,0
287400,note_on,5,0,2,,,,,,,,1,,,70,49
287400,note_on,5,0,3,,,,,,,,2,,,70,49
287400,note_on,5,0,1,,,,,,,,0,,,70,49
287505,note_on,225,0,4,,,,,,,,3,,,70,0
287505,note_on,225,0,5,,,,,,,,4,,,55,0
287505,note_on,225,0,6,,,,,,,,5,,,55,0
287515,note_on,115,0,1,,,,,,,,0,,,70,0
287515,note_on,115,0,3,,,,,,,,2,,,70,0
287515,note_on,115,0,2,,,,,,,,1,,,70,0
287520,note_on,15,0,4,,,,,,,,3,,,70,64
287520,note_on,15,0,5,,,,,,,,4,,,55,64
287520,note_on,5,0,3,,,,,,,,2,,,82,49
287520,note_on,15,0,6,,,,,,,,5,,,55,64
287520,note_on,5,0,2,,,,,,,,1,,,82,49
287520,note_on,5,0,1,,,,,,,,0,,,82,49
287745,note_on,225,0,4,,,,,,,,3,,,70,0
287745,note_on,225,0,6,,,,,,,,5,,,55,0
287745,note_on,225,0,5,,,,,,,,4,,,55,0
287760,note_on,15,0,4,,,,,,,,3,,,70,64
287760,note_on,15,0,5,,,,,,,,4,,,55,64
287760,note_on,15,0,6,,,,,,,,5,,,55,64
287965,note_on,445,0,3,,,,,,,,2,,,82,0
287965,note_on,445,0,2,,,,,,,,1,,,82,0
287965,note_on,445,0,1,,,,,,,,0,,,82,0
287985,note_on,225,0,5,,,,,,,,4,,,55,0
287985,note_on,225,0,6,,,,,,,,5,,,55,0
287985,note_on,225,0,4,,,,,,,,3,,,70,0
288000,note_on,35,0,1,,,,,,,,0,,,82,49
288000,note_on,15,0,4,,,,,,,,3,,,69,64
288000,note_on,15,0,5,,,,,,,,4,,,53,64
288000,note_on,35,0,3,,,,,,,,2,,,82,49
288000,note_on,35,0,2,,,,,,,,1,,,82,49
288000,note_on,15,0,6,,,,,,,,5,,,53,64
288115,note_on,115,0,1,,,,,,,,0,,,82,0
288115,note_on,115,0,2,,,,,,,,1,,,82,0
288115,note_on,115,0,3,,,,,,,,2,,,82,0
288120,note_on,5,0,1,,,,,,,,0,,,70,49
288120,note_on,5,0,2,,,,,,,,1,,,70,49
288120,note_on,5,0,3,,,,,,,,2,,,70,49
288225,note_on,225,0,6,,,,,,,,5,,,53,0
288225,note_on,225,0,5,,,,,,,,4,,,53,0
288225,note_on,225,0,4,,,,,,,,3,,,69,0
288235,note_on,115,0,2,,,,,,,,1,,,70,0
288235,note_on,115,0,3,,,,,,,,2,,,70,0
288235,note_on,115,0,1,,,,,,,,0,,,70,0
288240,note_on,15,0,4,,,,,,,,3,,,69,64
288240,note_on,5,0,2,,,,,,,,1,,,82,49
288240,note_on,15,0,5,,,,,,,,4,,,53,64
288240,note_on,5,0,3,,,,,,,,2,,,82,49
288240,note_on,5,0,1,,,,,,,,0,,,82,49
288240,note_on,15,0,6,,,,,,,,5,,,53,64
288465,note_on,225,0,4,,,,,,,,3,,,69,0
288465,note_on,225,0,5,,,,,,,,4,,,53,0
288465,note_on,225,0,6,,,,,,,,5,,,53,0
288480,note_on,15,0,6,,,,,,,,5,,,53,64
288480,note_on,15,0,5,,,,,,,,4,,,53,64
288480,note_on,15,0,4,,,,,,,,3,,,69,64
288685,note_on,445,0,2,,,,,,,,1,,,82,0
288685,note_on,445,0,1,,,,,,,,0,,,82,0
288685,note_on,445,0,3,,,,,,,,2,,,82,0
288705,note_on,225,0,6,,,,,,,,5,,,53,0
288705,note_on,225,0,4,,,,,,,,3,,,69,0
288705,note_on,225,0,5,,,,,,,,4,,,53,0
288720,note_on,15,0,5,,,,,,,,4,,,51,64
288720,note_on,35,0,2,,,,,,,,1,,,82,49
288720,note_on,15,0,6,,,,,,,,5,,,51,64
288720,note_on,35,0,3,,,,,,,,2,,,82,49
288720,note_on,15,0,4,,,,,,,,3,,,67,64
288720,note_on,35,0,1,,,,,,,,0,,,82,49
288835,note_on,115,0,2,,,,,,,,1,,,82,0
288835,note_on,115,0,3,,,,,,,,2,,,82,0
288835,note_on,115,0,1,,,,,,,,0,,,82,0
288840,note_on,5,0,3,,,,,,,,2,,,70,49
288840,note_on,5,0,2,,,,,,,,1,,,70,49
288840,note_on,5,0,1,,,,,,,,0,,,70,49
288945,note_on,225,0,5,,,,,,,,4,,,51,0
288945,note_on,225,0,4,,,,,,,,3,,,67,0
288945,note_on,225,0,6,,,,,,,,5,,,51,0
288955,note_on,115,0,3,,,,,,,,2,,,70,0
288955,note_on,115,0,2,,,,,,,,1,,,70,0
288955,note_on,115,0,1,,,,,,,,0,,,70,0
288960,note_on,5,0,1,,,,,,,,0,,,82,49
288960,note_on,5,0,2,,,,,,,,1,,,82,49
288960,note_on,15,0,6,,,,,,,,5,,,51,64
288960,note_on,15,0,5,,,,,,,,4,,,51,64
288960,note_on,5,0,3,,,,,,,,2,,,82,49
288960,note_on,15,0,4,,,,,,,,3,,,67,64
289185,note_on,225,0,5,,,,,,,,4,,,51,0
289185,note_on,225,0,6,,,,,,,,5,,,51,0
289185,note_on,225,0,4,,,,,,,,3,,,67,0
289200,note_on,15,0,6,,,,,,,,5,,,51,64
289200,note_on,15,0,5,,,,,,,,4,,,51,64
289200,note_on,15,0,4,,,,,,,,3,,,67,64
289405,note_on,445,0,2,,,,,,,,1,,,82,0
289405,note_on,445,0,3,,,,,,,,2,,,82,0
289405,note_on,445,0,1,,,,,,,,0,,,82,0
289425,note_on,225,0,5,,,,,,,,4,,,51,0
289425,note_on,225,0,6,,,,,,,,5,,,51,0
289425,note_on,225,0,4,,,,,,,,3,,,67,0
289440,note_on,15,0,6,,,,,,,,5,,,58,64
289440,note_on,35,0,2,,,,,,,,1,,,74,49
289440,note_on,35,0,3,,,,,,,,2,,,74,49
289440,note_on,35,0,1,,,,,,,,0,,,74,49
289440,note_on,15,0,5,,,,,,,,4,,,58,64
289440,note_on,15,0,4,,,,,,,,3,,,65,64
289500,note_on,60,0,6,,,,,,,,5,,,58,0
289500,note_on,60,0,2,,,,,,,,1,,,74,0
289500,note_on,60,0,5,,,,,,,,4,,,58,0
289500,note_on,60,0,4,,,,,,,,3,,,65,0
289500,note_on,60,0,3,,,,,,,,2,,,74,0
289500,note_on,60,0,1,,,,,,,,0,,,74,0
289680,note_on,180,0,2,,,,,,,,1,,,75,49
289680,note_on,180,0,5,,,,,,,,4,,,51,64
289680,note_on,180,0,4,,,,,,,,3,,,72,64
289680,note_on,180,0,6,,,,,,,,5,,,51,64
289680,note_on,180,0,1,,,,,,,,0,,,75,49
289680,note_on,180,0,3,,,,,,,,2,,,75,49
289740,note_on,60,0,4,,,,,,,,3,,,72,0
289740,note_on,60,0,5,,,,,,,,4,,,51,0
289740,note_on,60,0,2,,,,,,,,1,,,75,0
289740,note_on,60,0,6,,,,,,,,5,,,51,0
289740,note_on,60,0,3,,,,,,,,2,,,75,0
289740,note_on,60,0,1,,,,,,,,0,,,75,0
289920,note_on,180,0,3,,,,,,,,2,,,72,49
289920,note_on,180,0,5,,,,,,,,4,,,53,64
289920,note_on,180,0,4,,,,,,,,3,,,69,64
289920,note_on,180,0,6,,,,,,,,5,,,53,64
289920,note_on,180,0,2,,,,,,,,1,,,72,49
289920,note_on,180,0,1,,,,,,,,0,,,72,49
289980,note_on,60,0,3,,,,,,,,2,,,72,0
289980,note_on,60,0,1,,,,,,,,0,,,72,0
289980,note_on,60,0,2,,,,,,,,1,,,72,0
289980,note_on,60,0,5,,,,,,,,4,,,53,0
289980,note_on,60,0,4,,,,,,,,3,,,69,0
289980,note_on,60,0,6,,,,,,,,5,,,53,0
290160,note_on,180,0,2,,,,,,,,1,,,70,49
290160,note_on,180,0,5,,,,,,,,4,,,46,64
290160,note_on,180,0,6,,,,,,,,5,,,46,64
290160,note_on,180,0,4,,,,,,,,3,,,70,64
290160,note_on,180,0,3,,,,,,,,2,,,70,49
290160,note_on,180,0,1,,,,,,,,0,,,70,106
290275,note_on,115,0,1,,,,,,,,0,,,70,0
290280,note_on,5,0,1,,,,,,,,0,,,74,106
290395,note_on,115,0,1,,,,,,,,0,,,74,0
290400,note_on,5,0,1,,,,,,,,0,,,77,106
290515,note_on,115,0,1,,,,,,,,0,,,77,0
290520,note_on,5,0,1,,,,,,,,0,,,82,106
290550,note_on,30,0,1,,,,,,,,0,,,82,0
290605,note_on,445,0,6,,,,,,,,5,,,46,0
290605,note_on,445,0,3,,,,,,,,2,,,70,0
290605,note_on,445,0,4,,,,,,,,3,,,70,0
290605,note_on,445,0,5,,,,,,,,4,,,46,0
290605,note_on,445,0,2,,,,,,,,1,,,70,0
290640,note_on,90,0,1,,,,,,,,0,,,82,106
290670,note_on,30,0,1,,,,,,,,0,,,82,0
290760,note_on,90,0,1,,,,,,,,0,,,82,106
290790,note_on,30,0,1,,,,,,,,0,,,82,0
290880,note_on,275,0,5,,,,,,,,4,,,46,64
290880,note_on,275,0,6,,,,,,,,5,,,46,64
290880,note_on,90,0,1,,,,,,,,0,,,70,106
290995,note_on,115,0,1,,,,,,,,0,,,70,0
291000,note_on,5,0,1,,,,,,,,0,,,74,106
291115,note_on,115,0,1,,,,,,,,0,,,74,0
291120,note_on,5,0,1,,,,,,,,0,,,77,106
291235,note_on,115,0,1,,,,,,,,0,,,77,0
291240,note_on,5,0,1,,,,,,,,0,,,82,106
291270,note_on,30,0,1,,,,,,,,0,,,82,0
291325,note_on,445,0,6,,,,,,,,5,,,46,0
291325,note_on,445,0,5,,,,,,,,4,,,46,0
291360,note_on,90,0,1,,,,,,,,0,,,82,106
291390,note_on,30,0,1,,,,,,,,0,,,82,0
291480,note_on,90,0,1,,,,,,,,0,,,82,106
291510,note_on,30,0,1,,,,,,,,0,,,82,0
291600,note_on,275,0,5,,,,,,,,4,,,53,64
291600,note_on,90,0,1,,,,,,,,0,,,69,106
291600,note_on,275,0,6,,,,,,,,5,,,53,64
291715,note_on,115,0,1,,,,,,,,0,,,69,0
291720,note_on,5,0,1,,,,,,,,0,,,72,106
291835,note_on,115,0,1,,,,,,,,0,,,72,0
291840,note_on,5,0,1,,,,,,,,0,,,77,106
291955,note_on,115,0,1,,,,,,,,0,,,77,0
291960,note_on,5,0,1,,,,,,,,0,,,81,106
291990,note_on,30,0,1,,,,,,,,0,,,81,0
292045,note_on,445,0,6,,,,,,,,5,,,53,0
292045,note_on,445,0,5,,,,,,,,4,,,53,0
292080,note_on,90,0,1,,,,,,,,0,,,81,106
292110,note_on,30,0,1,,,,,,,,0,,,81,0
292200,note_on,90,0,1,,,,,,,,0,,,81,106
292230,note_on,30,0,1,,,,,,,,0,,,81,0
292320,note_on,90,0,1,,,,,,,,0,,,69,106
292320,note_on,275,0,5,,,,,,,,4,,,53,64
292320,note_on,275,0,6,,,,,,,,5,,,53,64
292435,note_on,115,0,1,,,,,,,,0,,,69,0
292440,note_on,5,0,1,,,,,,,,0,,,72,106
292555,note_on,115,0,1,,,,,,,,0,,,72,0
292560,note_on,5,0,1,,,,,,,,0,,,77,106
292675,note_on,115,0,1,,,,,,,,0,,,77,0
292680,note_on,5,0,1,,,,,,,,0,,,81,106
292710,note_on,30,0,1,,,,,,,,0,,,81,0
292765,note_on,445,0,5,,,,,,,,4,,,53,0
292765,note_on,445,0,6,,,,,,,,5,,,53,0
292800,note_on,90,0,1,,,,,,,,0,,,81,106
292830,note_on,30,0,1,,,,,,,,0,,,81,0
292920,note_on,90,0,1,,,,,,,,0,,,81,106
292950,note_on,30,0,1,,,,,,,,0,,,81,0
293040,note_on,275,0,6,,,,,,,,5,,,51,64
293040,note_on,90,0,1,,,,,,,,0,,,67,106
293040,note_on,275,0,5,,,,,,,,4,,,51,64
293155,note_on,115,0,1,,,,,,,,0,,,67,0
293160,note_on,5,0,1,,,,,,,,0,,,70,106
293275,note_on,115,0,1,,,,,,,,0,,,70,0
293280,note_on,5,0,1,,,,,,,,0,,,75,106
293395,note_on,115,0,1,,,,,,,,0,,,75,0
293400,note_on,5,0,1,,,,,,,,0,,,79,106
293430,note_on,30,0,1,,,,,,,,0,,,79,0
293485,note_on,445,0,5,,,,,,,,4,,,51,0
293485,note_on,445,0,6,,,,,,,,5,,,51,0
293520,note_on,90,0,1,,,,,,,,0,,,79,106
293550,note_on,30,0,1,,,,,,,,0,,,79,0
293640,note_on,90,0,1,,,,,,,,0,,,79,106
293670,note_on,30,0,1,,,,,,,,0,,,79,0
293760,note_on,275,0,5,,,,,,,,4,,,51,64
293760,note_on,90,0,1,,,,,,,,0,,,67,106
293760,note_on,275,0,6,,,,,,,,5,,,51,64
293875,note_on,115,0,1,,,,,,,,0,,,67,0
293880,note_on,5,0,1,,,,,,,,0,,,70,106
293995,note_on,115,0,1,,,,,,,,0,,,70,0
294000,note_on,5,0,1,,,,,,,,0,,,75,106
294115,note_on,115,0,1,,,,,,,,0,,,75,0
294120,note_on,5,0,1,,,,,,,,0,,,79,106
294150,note_on,30,0,1,,,,,,,,0,,,79,0
294205,note_on,445,0,5,,,,,,,,4,,,51,0
294205,note_on,445,0,6,,,,,,,,5,,,51,0
294240,note_on,90,0,1,,,,,,,,0,,,79,106
294270,note_on,30,0,1,,,,,,,,0,,,79,0
294360,note_on,90,0,1,,,,,,,,0,,,79,106
294390,note_on,30,0,1,,,,,,,,0,,,79,0
294480,note_on,275,0,6,,,,,,,,5,,,50,64
294480,note_on,90,0,1,,,,,,,,0,,,65,106
294480,note_on,275,0,5,,,,,,,,4,,,50,64
294595,note_on,115,0,1,,,,,,,,0,,,65,0
294600,note_on,5,0,1,,,,,,,,0,,,69,106
294715,note_on,115,0,1,,,,,,,,0,,,69,0
294720,note_on,5,0,1,,,,,,,,0,,,74,106
294835,note_on,115,0,1,,,,,,,,0,,,74,0
294840,note_on,5,0,1,,,,,,,,0,,,77,106
294870,note_on,30,0,1,,,,,,,,0,,,77,0
294925,note_on,445,0,6,,,,,,,,5,,,50,0
294925,note_on,445,0,5,,,,,,,,4,,,50,0
294960,note_on,90,0,1,,,,,,,,0,,,77,106
294990,note_on,30,0,1,,,,,,,,0,,,77,0
295080,note_on,90,0,1,,,,,,,,0,,,77,106
295110,note_on,30,0,1,,,,,,,,0,,,77,0
295200,note_on,275,0,5,,,,,,,,4,,,50,64
295200,note_on,275,0,6,,,,,,,,5,,,50,64
295200,note_on,90,0,1,,,,,,,,0,,,65,106
295315,note_on,115,0,1,,,,,,,,0,,,65,0
295320,note_on,5,0,1,,,,,,,,0,,,69,106
295435,note_on,115,0,1,,,,,,,,0,,,69,0
295440,note_on,5,0,1,,,,,,,,0,,,74,106
295555,note_on,115,0,1,,,,,,,,0,,,74,0
295560,note_on,5,0,1,,,,,,,,0,,,77,106
295590,note_on,30,0,1,,,,,,,,0,,,77,0
295645,note_on,445,0,6,,,,,,,,5,,,50,0
295645,note_on,445,0,5,,,,,,,,4,,,50,0
295680,note_on,90,0,1,,,,,,,,0,,,77,106
295710,note_on,30,0,1,,,,,,,,0,,,77,0
295800,note_on,90,0,1,,,,,,,,0,,,77,106
295830,note_on,30,0,1,,,,,,,,0,,,77,0
295920,note_on,275,0,5,,,,,,,,4,,,55,64
295920,note_on,90,0,1,,,,,,,,0,,,63,106
295920,note_on,275,0,6,,,,,,,,5,,,55,64
296035,note_on,115,0,1,,,,,,,,0,,,63,0
296040,note_on,5,0,1,,,,,,,,0,,,67,106
296155,note_on,115,0,1,,,,,,,,0,,,67,0
296160,note_on,5,0,1,,,,,,,,0,,,70,106
296275,note_on,115,0,1,,,,,,,,0,,,70,0
296280,note_on,5,0,1,,,,,,,,0,,,75,106
296310,note_on,30,0,1,,,,,,,,0,,,75,0
296365,note_on,445,0,6,,,,,,,,5,,,55,0
296365,note_on,445,0,5,,,,,,,,4,,,55,0
296400,note_on,90,0,1,,,,,,,,0,,,75,106
296430,note_on,30,0,1,,,,,,,,0,,,75,0
296520,note_on,90,0,1,,,,,,,,0,,,75,106
296550,note_on,30,0,1,,,,,,,,0,,,75,0
296640,note_on,275,0,6,,,,,,,,5,,,55,64
296640,note_on,90,0,1,,,,,,,,0,,,63,106
296640,note_on,275,0,5,,,,,,,,4,,,55,64
296755,note_on,115,0,1,,,,,,,,0,,,63,0
296760,note_on,5,0,1,,,,,,,,0,,,67,106
296875,note_on,115,0,1,,,,,,,,0,,,67,0
296880,note_on,5,0,1,,,,,,,,0,,,70,106
296995,note_on,115,0,1,,,,,,,,0,,,70,0
297000,note_on,5,0,1,,,,,,,,0,,,75,106
297030,note_on,30,0,1,,,,,,,,0,,,75,0
297085,note_on,445,0,6,,,,,,,,5,,,55,0
297085,note_on,445,0,5,,,,,,,,4,,,55,0
297120,note_on,90,0,1,,,,,,,,0,,,75,106
297150,note_on,30,0,1,,,,,,,,0,,,75,0
297240,note_on,90,0,1,,,,,,,,0,,,75,106
297270,note_on,30,0,1,,,,,,,,0,,,75,0
297360,note_on,275,0,6,,,,,,,,5,,,53,64
297360,note_on,275,0,5,,,,,,,,4,,,53,64
297360,note_on,90,0,1,,,,,,,,0,,,69,106
297420,note_on,60,0,1,,,,,,,,0,,,69,0
297585,note_on,225,0,5,,,,,,,,4,,,53,0
297585,note_on,225,0,6,,,,,,,,5,,,53,0
297600,note_on,180,0,1,,,,,,,,0,,,65,106
297600,note_on,15,0,5,,,,,,,,4,,,53,64
297600,note_on,15,0,6,,,,,,,,5,,,53,64
297660,note_on,60,0,1,,,,,,,,0,,,65,0
297715,note_on,115,0,5,,,,,,,,4,,,53,0
297715,note_on,115,0,6,,,,,,,,5,,,53,0
297720,note_on,5,0,5,,,,,,,,4,,,51,64
297720,note_on,5,0,6,,,,,,,,5,,,51,64
297835,note_on,115,0,6,,,,,,,,5,,,51,0
297835,note_on,115,0,5,,,,,,,,4,,,51,0
297840,note_on,5,0,6,,,,,,,,5,,,50,64
297840,note_on,5,0,5,,,,,,,,4,,,50,64
297955,note_on,115,0,6,,,,,,,,5,,,50,0
297955,note_on,115,0,5,,,,,,,,4,,,50,0
297960,note_on,5,0,5,,,,,,,,4,,,48,64
297960,note_on,5,0,6,,,,,,,,5,,,48,64
298075,note_on,115,0,5,,,,,,,,4,,,48,0
298075,note_on,115,0,6,,,,,,,,5,,,48,0
298080,note_on,5,0,5,,,,,,,,4,,,46,64
298080,note_on,5,0,6,,,,,,,,5,,,46,64
298080,note_on,420,0,1,,,,,,,,0,,,74,106
298195,note_on,115,0,1,,,,,,,,0,,,74,0
298200,note_on,5,0,1,,,,,,,,0,,,77,106
298315,note_on,115,0,1,,,,,,,,0,,,77,0
298320,note_on,5,0,1,,,,,,,,0,,,82,106
298435,note_on,115,0,1,,,,,,,,0,,,82,0
298440,note_on,5,0,1,,,,,,,,0,,,86,106
298470,note_on,30,0,1,,,,,,,,0,,,86,0
298525,note_on,445,0,6,,,,,,,,5,,,46,0
298525,note_on,445,0,5,,,,,,,,4,,,46,0
298560,note_on,90,0,1,,,,,,,,0,,,86,106
298590,note_on,30,0,1,,,,,,,,0,,,86,0
298680,note_on,90,0,1,,,,,,,,0,,,86,106
298710,note_on,30,0,1,,,,,,,,0,,,86,0
298800,note_on,275,0,6,,,,,,,,5,,,58,64
298800,note_on,275,0,5,,,,,,,,4,,,58,64
298800,note_on,90,0,1,,,,,,,,0,,,74,106
298915,note_on,115,0,1,,,,,,,,0,,,74,0
298920,note_on,5,0,1,,,,,,,,0,,,77,106
299035,note_on,115,0,1,,,,,,,,0,,,77,0
299040,note_on,5,0,1,,,,,,,,0,,,82,106
299155,note_on,115,0,1,,,,,,,,0,,,82,0
299160,note_on,5,0,1,,,,,,,,0,,,86,106
299190,note_on,30,0,1,,,,,,,,0,,,86,0
299245,note_on,445,0,6,,,,,,,,5,,,58,0
299245,note_on,445,0,5,,,,,,,,4,,,58,0
299280,note_on,90,0,1,,,,,,,,0,,,86,106
299310,note_on,30,0,1,,,,,,,,0,,,86,0
299400,note_on,90,0,1,,,,,,,,0,,,86,106
299430,note_on,30,0,1,,,,,,,,0,,,86,0
299520,note_on,275,0,6,,,,,,,,5,,,55,64
299520,note_on,90,0,1,,,,,,,,0,,,75,106
299520,note_on,275,0,5,,,,,,,,4,,,55,64
299635,note_on,115,0,1,,,,,,,,0,,,75,0
299640,note_on,5,0,1,,,,,,,,0,,,79,106
299755,note_on,115,0,1,,,,,,,,0,,,79,0
299760,note_on,5,0,1,,,,,,,,0,,,82,106
299875,note_on,115,0,1,,,,,,,,0,,,82,0
299880,note_on,5,0,1,,,,,,,,0,,,86,106
299910,note_on,30,0,1,,,,,,,,0,,,86,0
299965,note_on,445,0,6,,,,,,,,5,,,55,0
299965,note_on,445,0,5,,,,,,,,4,,,55,0
300000,note_on,90,0,1,,,,,,,,0,,,86,106
300030,note_on,30,0,1,,,,,,,,0,,,86,0
300120,note_on,90,0,1,,,,,,,,0,,,86,106
300150,note_on,30,0,1,,,,,,,,0,,,86,0
300240,note_on,90,0,1,,,,,,,,0,,,75,106
300240,note_on,275,0,5,,,,,,,,4,,,55,64
300240,note_on,275,0,6,,,,,,,,5,,,55,64
300355,note_on,115,0,1,,,,,,,,0,,,75,0
300360,note_on,5,0,1,,,,,,,,0,,,79,106
300475,note_on,115,0,1,,,,,,,,0,,,79,0
300480,note_on,5,0,1,,,,,,,,0,,,82,106
300595,note_on,115,0,1,,,,,,,,0,,,82,0
300600,note_on,5,0,1,,,,,,,,0,,,86,106
300630,note_on,30,0,1,,,,,,,,0,,,86,0
300685,note_on,445,0,5,,,,,,,,4,,,55,0
300685,note_on,445,0,6,,,,,,,,5,,,55,0
300720,note_on,90,0,1,,,,,,,,0,,,86,106
300750,note_on,30,0,1,,,,,,,,0,,,86,0
300840,note_on,90,0,1,,,,,,,,0,,,86,106
300870,note_on,30,0,1,,,,,,,,0,,,86,0
300960,note_on,275,0,5,,,,,,,,4,,,55,64
300960,note_on,90,0,1,,,,,,,,0,,,75,106
300960,note_on,275,0,6,,,,,,,,5,,,55,64
301075,note_on,115,0,1,,,,,,,,0,,,75,0
301080,note_on,5,0,1,,,,,,,,0,,,79,106
301195,note_on,115,0,1,,,,,,,,0,,,79,0
301200,note_on,5,0,1,,,,,,,,0,,,82,106
301315,note_on,115,0,1,,,,,,,,0,,,82,0
301320,note_on,5,0,1,,,,,,,,0,,,87,106
301350,note_on,30,0,1,,,,,,,,0,,,87,0
301405,note_on,445,0,6,,,,,,,,5,,,55,0
301405,note_on,445,0,5,,,,,,,,4,,,55,0
301440,note_on,90,0,1,,,,,,,,0,,,87,106
301470,note_on,30,0,1,,,,,,,,0,,,87,0
301560,note_on,90,0,1,,,,,,,,0,,,87,106
301590,note_on,30,0,1,,,,,,,,0,,,87,0
301680,note_on,275,0,5,,,,,,,,4,,,55,64
301680,note_on,90,0,1,,,,,,,,0,,,75,106
301680,note_on,275,0,6,,,,,,,,5,,,55,64
301795,note_on,115,0,1,,,,,,,,0,,,75,0
301800,note_on,5,0,1,,,,,,,,0,,,79,106
301915,note_on,115,0,1,,,,,,,,0,,,79,0
301920,note_on,5,0,1,,,,,,,,0,,,82,106
302035,note_on,115,0,1,,,,,,,,0,,,82,0
302040,note_on,5,0,1,,,,,,,,0,,,87,106
302070,note_on,30,0,1,,,,,,,,0,,,87,0
302125,note_on,445,0,5,,,,,,,,4,,,55,0
302125,note_on,445,0,6,,,,,,,,5,,,55,0
302160,note_on,90,0,1,,,,,,,,0,,,87,106
302190,note_on,30,0,1,,,,,,,,0,,,87,0
302280,note_on,90,0,1,,,,,,,,0,,,87,106
302310,note_on,30,0,1,,,,,,,,0,,,87,0
302400,note_on,275,0,5,,,,,,,,4,,,57,64
302400,note_on,275,0,6,,,,,,,,5,,,57,64
302400,note_on,90,0,1,,,,,,,,0,,,77,106
302515,note_on,115,0,1,,,,,,,,0,,,77,0
302520,note_on,5,0,1,,,,,,,,0,,,81,106
302635,note_on,115,0,1,,,,,,,,0,,,81,0
302640,note_on,5,0,1,,,,,,,,0,,,84,106
302755,note_on,115,0,1,,,,,,,,0,,,84,0
302760,note_on,5,0,1,,,,,,,,0,,,87,106
302790,note_on,30,0,1,,,,,,,,0,,,87,0
302845,note_on,445,0,6,,,,,,,,5,,,57,0
302845,note_on,445,0,5,,,,,,,,4,,,57,0
302880,note_on,90,0,1,,,,,,,,0,,,87,106
302910,note_on,30,0,1,,,,,,,,0,,,87,0
303000,note_on,90,0,1,,,,,,,,0,,,87,106
303030,note_on,30,0,1,,,,,,,,0,,,87,0
303120,note_on,90,0,1,,,,,,,,0,,,77,106
303120,note_on,275,0,6,,,,,,,,5,,,57,64
303120,note_on,275,0,5,,,,,,,,4,,,57,64
303235,note_on,115,0,1,,,,,,,,0,,,77,0
303240,note_on,5,0,1,,,,,,,,0,,,81,106
303355,note_on,115,0,1,,,,,,,,0,,,81,0
303360,note_on,5,0,1,,,,,,,,0,,,84,106
303475,note_on,115,0,1,,,,,,,,0,,,84,0
303480,note_on,5,0,1,,,,,,,,0,,,87,106
303510,note_on,30,0,1,,,,,,,,0,,,87,0
303565,note_on,445,0,5,,,,,,,,4,,,57,0
303565,note_on,445,0,6,,,,,,,,5,,,57,0
303600,note_on,90,0,1,,,,,,,,0,,,87,106
303630,note_on,30,0,1,,,,,,,,0,,,87,0
303720,note_on,90,0,1,,,,,,,,0,,,87,106
303750,note_on,30,0,1,,,,,,,,0,,,87,0
303840,note_on,275,0,5,,,,,,,,4,,,57,64
303840,note_on,275,0,6,,,,,,,,5,,,57,64
303840,note_on,90,0,1,,,,,,,,0,,,77,106
303955,note_on,115,0,1,,,,,,,,0,,,77,0
303960,note_on,5,0,1,,,,,,,,0,,,81,106
304075,note_on,115,0,1,,,,,,,,0,,,81,0
304080,note_on,5,0,1,,,,,,,,0,,,84,106
304195,note_on,115,0,1,,,,,,,,0,,,84,0
304200,note_on,5,0,1,,,,,,,,0,,,89,106
304230,note_on,30,0,1,,,,,,,,0,,,89,0
304285,note_on,445,0,6,,,,,,,,5,,,57,0
304285,note_on,445,0,5,,,,,,,,4,,,57,0
304320,note_on,90,0,1,,,,,,,,0,,,89,106
304350,note_on,30,0,1,,,,,,,,0,,,89,0
304440,note_on,90,0,1,,,,,,,,0,,,89,106
304470,note_on,30,0,1,,,,,,,,0,,,89,0
304560,note_on,275,0,5,,,,,,,,4,,,57,64
304560,note_on,275,0,6,,,,,,,,5,,,57,64
304560,note_on,90,0,1,,,,,,,,0,,,77,106
304675,note_on,115,0,1,,,,,,,,0,,,77,0
304680,note_on,5,0,1,,,,,,,,0,,,81,106
304795,note_on,115,0,1,,,,,,,,0,,,81,0
304800,note_on,5,0,1,,,,,,,,0,,,84,106
304915,note_on,115,0,1,,,,,,,,0,,,84,0
304920,note_on,5,0,1,,,,,,,,0,,,89,106
304950,note_on,30,0,1,,,,,,,,0,,,89,0
305005,note_on,445,0,5,,,,,,,,4,,,57,0
305005,note_on,445,0,6,,,,,,,,5,,,57,0
305040,note_on,90,0,1,,,,,,,,0,,,89,106
305070,note_on,30,0,1,,,,,,,,0,,,89,0
305160,note_on,90,0,1,,,,,,,,0,,,89,106
305190,note_on,30,0,1,,,,,,,,0,,,89,0
305280,note_on,275,0,5,,,,,,,,4,,,58,64
305280,note_on,90,0,1,,,,,,,,0,,,77,106
305280,note_on,275,0,6,,,,,,,,5,,,58,64
305395,note_on,115,0,1,,,,,,,,0,,,77,0
305400,note_on,5,0,1,,,,,,,,0,,,82,106
305515,note_on,115,0,1,,,,,,,,0,,,82,0
305520,note_on,5,0,1,,,,,,,,0,,,86,106
305635,note_on,115,0,1,,,,,,,,0,,,86,0
305640,note_on,5,0,1,,,,,,,,0,,,89,106
305670,note_on,30,0,1,,,,,,,,0,,,89,0
305725,note_on,445,0,5,,,,,,,,4,,,58,0
305725,note_on,445,0,6,,,,,,,,5,,,58,0
305760,note_on,90,0,1,,,,,,,,0,,,89,106
305790,note_on,30,0,1,,,,,,,,0,,,89,0
305880,note_on,90,0,1,,,,,,,,0,,,89,106
305910,note_on,30,0,1,,,,,,,,0,,,89,0
306000,note_on,275,0,5,,,,,,,,4,,,58,64
306000,note_on,90,0,1,,,,,,,,0,,,77,106
306000,note_on,275,0,6,,,,,,,,5,,,58,64
306115,note_on,115,0,1,,,,,,,,0,,,77,0
306120,note_on,5,0,1,,,,,,,,0,,,82,106
306235,note_on,115,0,1,,,,,,,,0,,,82,0
306240,note_on,5,0,1,,,,,,,,0,,,86,106
306355,note_on,115,0,1,,,,,,,,0,,,86,0
306360,note_on,5,0,1,,,,,,,,0,,,89,106
306390,note_on,30,0,1,,,,,,,,0,,,89,0
306445,note_on,445,0,6,,,,,,,,5,,,58,0
306445,note_on,445,0,5,,,,,,,,4,,,58,0
306480,note_on,90,0,1,,,,,,,,0,,,89,106
306510,note_on,30,0,1,,,,,,,,0,,,89,0
306600,note_on,90,0,1,,,,,,,,0,,,89,106
306630,note_on,30,0,1,,,,,,,,0,,,89,0
306720,note_on,90,0,1,,,,,,,,0,,,77,106
306720,note_on,275,0,6,,,,,,,,5,,,57,64
306720,note_on,275,0,5,,,,,,,,4,,,57,64
306835,note_on,115,0,1,,,,,,,,0,,,77,0
306840,note_on,5,0,1,,,,,,,,0,,,81,106
306955,note_on,115,0,1,,,,,,,,0,,,81,0
306960,note_on,5,0,1,,,,,,,,0,,,84,106
307075,note_on,115,0,1,,,,,,,,0,,,84,0
307080,note_on,5,0,1,,,,,,,,0,,,89,106
307110,note_on,30,0,1,,,,,,,,0,,,89,0
307165,note_on,445,0,5,,,,,,,,4,,,57,0
307165,note_on,445,0,6,,,,,,,,5,,,57,0
307200,note_on,90,0,1,,,,,,,,0,,,89,106
307230,note_on,30,0,1,,,,,,,,0,,,89,0
307320,note_on,90,0,1,,,,,,,,0,,,89,106
307350,note_on,30,0,1,,,,,,,,0,,,89,0
307440,note_on,275,0,5,,,,,,,,4,,,57,64
307440,note_on,90,0,1,,,,,,,,0,,,77,106
307440,note_on,275,0,6,,,,,,,,5,,,57,64
307555,note_on,115,0,1,,,,,,,,0,,,77,0
307560,note_on,5,0,1,,,,,,,,0,,,81,106
307675,note_on,115,0,1,,,,,,,,0,,,81,0
307680,note_on,5,0,1,,,,,,,,0,,,84,106
307795,note_on,115,0,1,,,,,,,,0,,,84,0
307800,note_on,5,0,1,,,,,,,,0,,,89,106
307830,note_on,30,0,1,,,,,,,,0,,,89,0
307885,note_on,445,0,5,,,,,,,,4,,,57,0
307885,note_on,445,0,6,,,,,,,,5,,,57,0
307920,note_on,90,0,1,,,,,,,,0,,,89,106
307950,note_on,30,0,1,,,,,,,,0,,,89,0
308040,note_on,90,0,1,,,,,,,,0,,,89,106
308070,note_on,30,0,1,,,,,,,,0,,,89,0
308160,note_on,275,0,6,,,,,,,,5,,,58,64
308160,note_on,275,0,5,,,,,,,,4,,,58,64
308160,note_on,90,0,1,,,,,,,,0,,,77,106
308275,note_on,115,0,1,,,,,,,,0,,,77,0
308280,note_on,5,0,1,,,,,,,,0,,,82,106
308395,note_on,115,0,1,,,,,,,,0,,,82,0
308400,note_on,5,0,1,,,,,,,,0,,,86,106
308515,note_on,115,0,1,,,,,,,,0,,,86,0
308520,note_on,5,0,1,,,,,,,,0,,,89,106
308550,note_on,30,0,1,,,,,,,,0,,,89,0
308605,note_on,445,0,5,,,,,,,,4,,,58,0
308605,note_on,445,0,6,,,,,,,,5,,,58,0
308640,note_on,90,0,1,,,,,,,,0,,,89,106
308670,note_on,30,0,1,,,,,,,,0,,,89,0
308760,note_on,90,0,1,,,,,,,,0,,,89,106
308790,note_on,30,0,1,,,,,,,,0,,,89,0
308880,note_on,90,0,1,,,,,,,,0,,,77,106
308880,note_on,275,0,5,,,,,,,,4,,,58,64
308880,note_on,275,0,6,,,,,,,,5,,,58,64
308995,note_on,115,0,1,,,,,,,,0,,,77,0
309000,note_on,5,0,1,,,,,,,,0,,,82,106
309115,note_on,115,0,1,,,,,,,,0,,,82,0
309120,note_on,5,0,1,,,,,,,,0,,,86,106
309235,note_on,115,0,1,,,,,,,,0,,,86,0
309240,note_on,5,0,1,,,,,,,,0,,,89,106
309270,note_on,30,0,1,,,,,,,,0,,,89,0
309325,note_on,445,0,6,,,,,,,,5,,,58,0
309325,note_on,445,0,5,,,,,,,,4,,,58,0
309360,note_on,90,0,1,,,,,,,,0,,,89,106
309390,note_on,30,0,1,,,,,,,,0,,,89,0
309480,note_on,90,0,1,,,,,,,,0,,,89,106
309510,note_on,30,0,1,,,,,,,,0,,,89,0
309600,note_on,275,0,6,,,,,,,,5,,,57,64
309600,note_on,275,0,5,,,,,,,,4,,,57,64
309600,note_on,90,0,1,,,,,,,,0,,,84,106
309825,note_on,225,0,6,,,,,,,,5,,,57,0
309825,note_on,225,0,1,,,,,,,,0,,,84,0
309825,note_on,225,0,5,,,,,,,,4,,,57,0
309840,note_on,15,0,5,,,,,,,,4,,,60,64
309840,note_on,15,0,6,,,,,,,,5,,,60,64
309840,note_on,15,0,1,,,,,,,,0,,,77,106
309955,note_on,115,0,5,,,,,,,,4,,,60,0
309955,note_on,115,0,6,,,,,,,,5,,,60,0
309960,note_on,5,0,5,,,,,,,,4,,,58,64
309960,note_on,5,0,6,,,,,,,,5,,,58,64
310065,note_on,225,0,1,,,,,,,,0,,,77,0
310075,note_on,115,0,6,,,,,,,,5,,,58,0
310075,note_on,115,0,5,,,,,,,,4,,,58,0
310080,note_on,5,0,5,,,,,,,,4,,,57,64
310080,note_on,5,0,6,,,,,,,,5,,,57,64
310195,note_on,115,0,6,,,,,,,,5,,,57,0
310195,note_on,115,0,5,,,,,,,,4,,,57,0
310200,note_on,5,0,6,,,,,,,,5,,,55,64
310200,note_on,5,0,5,,,,,,,,4,,,55,64
310315,note_on,115,0,5,,,,,,,,4,,,55,0
310315,note_on,115,0,6,,,,,,,,5,,,55,0
310320,note_on,5,0,6,,,,,,,,5,,,53,64
310320,note_on,5,0,5,,,,,,,,4,,,53,64
310320,note_on,255,0,1,,,,,,,,0,,,77,106
310320,note_on,0,0,1,,,,,,,,0,,,69,64
310655,note_on,335,0,1,,,,,,,,0,,,77,0
310680,note_on,25,0,1,,,,,,,,0,,,76,106
310765,note_on,445,0,6,,,,,,,,5,,,53,0
310765,note_on,445,0,5,,,,,,,,4,,,53,0
310765,note_on,85,0,1,,,,,,,,0,,,69,0
310795,note_on,30,0,1,,,,,,,,0,,,76,0
310800,note_on,35,0,6,,,,,,,,5,,,58,64
310800,note_on,35,0,5,,,,,,,,4,,,58,64
310800,note_on,5,0,1,,,,,,,,0,,,74,106
311025,note_on,225,0,5,,,,,,,,4,,,58,0
311025,note_on,225,0,6,,,,,,,,5,,,58,0
311025,note_on,225,0,1,,,,,,,,0,,,74,0
311040,note_on,15,0,5,,,,,,,,4,,,60,64
311040,note_on,0,0,1,,,,,,,,0,,,64,64
311040,note_on,15,0,1,,,,,,,,0,,,72,106
311040,note_on,15,0,6,,,,,,,,5,,,60,64
311375,note_on,335,0,1,,,,,,,,0,,,72,0
311400,note_on,25,0,1,,,,,,,,0,,,70,106
311485,note_on,85,0,1,,,,,,,,0,,,64,0
311485,note_on,445,0,6,,,,,,,,5,,,60,0
311485,note_on,445,0,5,,,,,,,,4,,,60,0
311515,note_on,30,0,1,,,,,,,,0,,,70,0
311520,note_on,35,0,5,,,,,,,,4,,,53,64
311520,note_on,35,0,6,,,,,,,,5,,,53,64
311520,note_on,0,0,1,,,,,,,,0,,,65,64
311520,note_on,5,0,1,,,,,,,,0,,,69,106
311745,note_on,0,0,1,,,,,,,,0,,,69,0
311745,note_on,225,0,1,,,,,,,,0,,,65,0
311745,note_on,225,0,6,,,,,,,,5,,,53,0
311745,note_on,225,0,5,,,,,,,,4,,,53,0
311760,note_on,0,0,1,,,,,,,,0,,,57,64
311760,note_on,15,0,1,,,,,,,,0,,,65,106
311760,note_on,15,0,6,,,,,,,,5,,,57,64
311760,note_on,15,0,5,,,,,,,,4,,,57,64
311985,note_on,225,0,5,,,,,,,,4,,,57,0
311985,note_on,225,0,1,,,,,,,,0,,,57,0
311985,note_on,0,0,1,,,,,,,,0,,,65,0
311985,note_on,225,0,6,,,,,,,,5,,,57,0
312000,note_on,15,0,6,,,,,,,,5,,,58,64
312000,note_on,15,0,5,,,,,,,,4,,,58,64
312000,note_on,15,0,1,,,,,,,,0,,,65,106
312000,note_on,0,0,1,,,,,,,,0,,,58,64
312225,note_on,225,0,6,,,,,,,,5,,,58,0
312225,note_on,225,0,1,,,,,,,,0,,,58,0
312225,note_on,0,0,1,,,,,,,,0,,,65,0
312225,note_on,225,0,5,,,,,,,,4,,,58,0
312240,note_on,15,0,6,,,,,,,,5,,,60,64
312240,note_on,15,0,1,,,,,,,,0,,,64,106
312240,note_on,0,0,1,,,,,,,,0,,,60,64
312240,note_on,15,0,5,,,,,,,,4,,,60,64
312465,note_on,225,0,5,,,,,,,,4,,,60,0
312465,note_on,225,0,1,,,,,,,,0,,,60,0
312465,note_on,225,0,6,,,,,,,,5,,,60,0
312465,note_on,0,0,1,,,,,,,,0,,,64,0
312480,note_on,15,0,6,,,,,,,,5,,,53,64
312480,note_on,15,0,5,,,,,,,,4,,,53,64
312480,note_on,15,0,1,,,,,,,,0,,,69,106
312480,note_on,0,0,1,,,,,,,,0,,,60,64
312705,note_on,225,0,5,,,,,,,,4,,,53,0
312705,note_on,225,0,6,,,,,,,,5,,,53,0
312720,note_on,15,0,5,,,,,,,,4,,,60,64
312720,note_on,15,0,6,,,,,,,,5,,,60,64
312835,note_on,115,0,5,,,,,,,,4,,,60,0
312835,note_on,115,0,6,,,,,,,,5,,,60,0
312840,note_on,5,0,5,,,,,,,,4,,,58,64
312840,note_on,5,0,6,,,,,,,,5,,,58,64
312925,note_on,445,0,1,,,,,,,,0,,,60,0
312925,note_on,0,0,1,,,,,,,,0,,,69,0
312955,note_on,115,0,5,,,,,,,,4,,,58,0
312955,note_on,115,0,6,,,,,,,,5,,,58,0
312960,note_on,5,0,6,,,,,,,,5,,,57,64
312960,note_on,5,0,5,,,,,,,,4,,,57,64
313075,note_on,115,0,6,,,,,,,,5,,,57,0
313075,note_on,115,0,5,,,,,,,,4,,,57,0
313080,note_on,5,0,6,,,,,,,,5,,,55,64
313080,note_on,5,0,5,,,,,,,,4,,,55,64
313195,note_on,115,0,5,,,,,,,,4,,,55,0
313195,note_on,115,0,6,,,,,,,,5,,,55,0
313200,note_on,275,0,1,,,,,,,,0,,,77,64
313200,note_on,5,0,6,,,,,,,,5,,,53,49
313200,note_on,0,0,1,,,,,,,,0,,,69,64
313200,note_on,5,0,5,,,,,,,,4,,,53,49
313535,note_on,335,0,1,,,,,,,,0,,,77,0
313560,note_on,25,0,1,,,,,,,,0,,,76,64
313645,note_on,445,0,5,,,,,,,,4,,,53,0
313645,note_on,85,0,1,,,,,,,,0,,,69,0
313645,note_on,445,0,6,,,,,,,,5,,,53,0
313675,note_on,30,0,1,,,,,,,,0,,,76,0
313680,note_on,5,0,1,,,,,,,,0,,,74,64
313680,note_on,35,0,6,,,,,,,,5,,,58,49
313680,note_on,35,0,5,,,,,,,,4,,,58,49
313905,note_on,225,0,6,,,,,,,,5,,,58,0
313905,note_on,225,0,1,,,,,,,,0,,,74,0
313905,note_on,225,0,5,,,,,,,,4,,,58,0
313920,note_on,15,0,6,,,,,,,,5,,,60,49
313920,note_on,15,0,1,,,,,,,,0,,,72,64
313920,note_on,15,0,5,,,,,,,,4,,,60,49
313920,note_on,0,0,1,,,,,,,,0,,,64,64
314255,note_on,335,0,1,,,,,,,,0,,,72,0
314280,note_on,25,0,1,,,,,,,,0,,,70,64
314365,note_on,445,0,5,,,,,,,,4,,,60,0
314365,note_on,85,0,1,,,,,,,,0,,,64,0
314365,note_on,445,0,6,,,,,,,,5,,,60,0
314395,note_on,30,0,1,,,,,,,,0,,,70,0
314400,note_on,35,0,5,,,,,,,,4,,,53,49
314400,note_on,5,0,1,,,,,,,,0,,,69,64
314400,note_on,0,0,1,,,,,,,,0,,,65,64
314400,note_on,35,0,6,,,,,,,,5,,,53,49
314625,note_on,225,0,6,,,,,,,,5,,,53,0
314625,note_on,225,0,5,,,,,,,,4,,,53,0
314625,note_on,225,0,1,,,,,,,,0,,,65,0
314625,note_on,0,0,1,,,,,,,,0,,,69,0
314640,note_on,15,0,6,,,,,,,,5,,,57,49
314640,note_on,15,0,1,,,,,,,,0,,,65,64
314640,note_on,0,0,1,,,,,,,,0,,,57,64
314640,note_on,15,0,5,,,,,,,,4,,,57,49
314865,note_on,225,0,1,,,,,,,,0,,,57,0
314865,note_on,0,0,1,,,,,,,,0,,,65,0
314865,note_on,225,0,5,,,,,,,,4,,,57,0
314865,note_on,225,0,6,,,,,,,,5,,,57,0
314880,note_on,0,0,1,,,,,,,,0,,,58,64
314880,note_on,15,0,6,,,,,,,,5,,,58,49
314880,note_on,15,0,5,,,,,,,,4,,,58,49
314880,note_on,15,0,1,,,,,,,,0,,,65,64
315105,note_on,225,0,6,,,,,,,,5,,,58,0
315105,note_on,225,0,5,,,,,,,,4,,,58,0
315105,note_on,225,0,1,,,,,,,,0,,,58,0
315105,note_on,0,0,1,,,,,,,,0,,,65,0
315120,note_on,15,0,6,,,,,,,,5,,,60,49
315120,note_on,15,0,5,,,,,,,,4,,,60,49
315120,note_on,15,0,1,,,,,,,,0,,,64,64
315120,note_on,0,0,1,,,,,,,,0,,,60,64
315345,note_on,225,0,6,,,,,,,,5,,,60,0
315345,note_on,225,0,1,,,,,,,,0,,,60,0
315345,note_on,0,0,1,,,,,,,,0,,,64,0
315345,note_on,225,0,5,,,,,,,,4,,,60,0
315360,note_on,24755,0,2,,,,,,,,1,,,65,64
315360,note_on,15,0,1,,,,,,,,0,,,65,64
315360,note_on,24755,0,4,,,,,,,,3,,,60,64
315360,note_on,24755,0,3,,,,,,,,2,,,65,64
315360,note_on,15,0,6,,,,,,,,5,,,53,85
315360,note_on,15,0,5,,,,,,,,4,,,53,85
315475,note_on,115,0,1,,,,,,,,0,,,65,0
315475,note_on,115,0,3,,,,,,,,2,,,65,0
315475,note_on,115,0,2,,,,,,,,1,,,65,0
315480,note_on,5,0,3,,,,,,,,2,,,69,64
315480,note_on,5,0,1,,,,,,,,0,,,69,64
315480,note_on,5,0,2,,,,,,,,1,,,69,64
315585,note_on,225,0,5,,,,,,,,4,,,53,0
315585,note_on,225,0,6,,,,,,,,5,,,53,0
315585,note_on,225,0,4,,,,,,,,3,,,60,0
315595,note_on,115,0,2,,,,,,,,1,,,69,0
315595,note_on,115,0,1,,,,,,,,0,,,69,0
315595,note_on,115,0,3,,,,,,,,2,,,69,0
315600,note_on,15,0,5,,,,,,,,4,,,57,85
315600,note_on,15,0,4,,,,,,,,3,,,60,64
315600,note_on,15,0,6,,,,,,,,5,,,57,85
315600,note_on,5,0,2,,,,,,,,1,,,72,64
315600,note_on,5,0,3,,,,,,,,2,,,72,64
315600,note_on,5,0,1,,,,,,,,0,,,72,64
315715,note_on,115,0,5,,,,,,,,4,,,57,0
315715,note_on,115,0,4,,,,,,,,3,,,60,0
315715,note_on,115,0,6,,,,,,,,5,,,57,0
315720,note_on,5,0,4,,,,,,,,3,,,58,64
315720,note_on,5,0,6,,,,,,,,5,,,55,85
315720,note_on,5,0,5,,,,,,,,4,,,55,85
315825,note_on,225,0,2,,,,,,,,1,,,72,0
315825,note_on,225,0,3,,,,,,,,2,,,72,0
315825,note_on,225,0,1,,,,,,,,0,,,72,0
315835,note_on,115,0,5,,,,,,,,4,,,55,0
315835,note_on,115,0,4,,,,,,,,3,,,58,0
315835,note_on,115,0,6,,,,,,,,5,,,55,0
315840,note_on,5,0,5,,,,,,,,4,,,53,85
315840,note_on,5,0,4,,,,,,,,3,,,57,64
315840,note_on,15,0,1,,,,,,,,0,,,77,64
315840,note_on,15,0,3,,,,,,,,2,,,77,64
315840,note_on,5,0,6,,,,,,,,5,,,53,85
315840,note_on,15,0,2,,,,,,,,1,,,77,64
315900,note_on,60,0,2,,,,,,,,1,,,77,0
315900,note_on,60,0,1,,,,,,,,0,,,77,0
315900,note_on,60,0,3,,,,,,,,2,,,77,0
316065,note_on,225,0,4,,,,,,,,3,,,57,0
316065,note_on,225,0,6,,,,,,,,5,,,53,0
316065,note_on,225,0,5,,,,,,,,4,,,53,0
316080,note_on,180,0,2,,,,,,,,1,,,72,64
316080,note_on,180,0,3,,,,,,,,2,,,72,64
316080,note_on,15,0,6,,,,,,,,5,,,41,85
316080,note_on,15,0,4,,,,,,,,3,,,57,64
316080,note_on,15,0,5,,,,,,,,4,,,41,85
316080,note_on,180,0,1,,,,,,,,0,,,72,64
316140,note_on,60,0,1,,,,,,,,0,,,72,0
316140,note_on,60,0,2,,,,,,,,1,,,72,0
316140,note_on,60,0,3,,,,,,,,2,,,72,0
316305,note_on,225,0,4,,,,,,,,3,,,57,0
316305,note_on,225,0,5,,,,,,,,4,,,41,0
316305,note_on,225,0,6,,,,,,,,5,,,41,0
316320,note_on,15,0,4,,,,,,,,3,,,60,64
316320,note_on,180,0,1,,,,,,,,0,,,65,64
316320,note_on,15,0,5,,,,,,,,4,,,45,85
316320,note_on,180,0,2,,,,,,,,1,,,65,64
316320,note_on,180,0,3,,,,,,,,2,,,65,64
316320,note_on,15,0,6,,,,,,,,5,,,45,85
316380,note_on,60,0,2,,,,,,,,1,,,65,0
316380,note_on,60,0,3,,,,,,,,2,,,65,0
316380,note_on,60,0,1,,,,,,,,0,,,65,0
316435,note_on,115,0,4,,,,,,,,3,,,60,0
316435,note_on,115,0,5,,,,,,,,4,,,45,0
316435,note_on,115,0,6,,,,,,,,5,,,45,0
316440,note_on,5,0,5,,,,,,,,4,,,43,85
316440,note_on,5,0,6,,,,,,,,5,,,43,85
316440,note_on,5,0,4,,,,,,,,3,,,58,64
316555,note_on,115,0,4,,,,,,,,3,,,58,0
316555,note_on,115,0,6,,,,,,,,5,,,43,0
316555,note_on,115,0,5,,,,,,,,4,,,43,0
316560,note_on,5,0,5,,,,,,,,4,,,41,85
316560,note_on,5,0,6,,,,,,,,5,,,41,85
316560,note_on,180,0,1,,,,,,,,0,,,60,64
316560,note_on,180,0,2,,,,,,,,1,,,60,64
316560,note_on,180,0,3,,,,,,,,2,,,60,64
316560,note_on,5,0,4,,,,,,,,3,,,57,64
316620,note_on,60,0,1,,,,,,,,0,,,60,0
316620,note_on,60,0,2,,,,,,,,1,,,60,0
316620,note_on,60,0,3,,,,,,,,2,,,60,0
316785,note_on,225,0,5,,,,,,,,4,,,41,0
316785,note_on,225,0,4,,,,,,,,3,,,57,0
316785,note_on,225,0,6,,,,,,,,5,,,41,0
316800,note_on,180,0,3,,,,,,,,2,,,65,64
316800,note_on,180,0,1,,,,,,,,0,,,65,64
316800,note_on,15,0,4,,,,,,,,3,,,60,64
316800,note_on,180,0,2,,,,,,,,1,,,65,64
316800,note_on,15,0,6,,,,,,,,5,,,53,85
316800,note_on,15,0,5,,,,,,,,4,,,53,85
316915,note_on,115,0,3,,,,,,,,2,,,65,0
316915,note_on,115,0,1,,,,,,,,0,,,65,0
316915,note_on,115,0,2,,,,,,,,1,,,65,0
316920,note_on,5,0,3,,,,,,,,2,,,69,64
316920,note_on,5,0,2,,,,,,,,1,,,69,64
316920,note_on,5,0,1,,,,,,,,0,,,69,64
317025,note_on,225,0,6,,,,,,,,5,,,53,0
317025,note_on,225,0,4,,,,,,,,3,,,60,0
317025,note_on,225,0,5,,,,,,,,4,,,53,0
317035,note_on,115,0,2,,,,,,,,1,,,69,0
317035,note_on,115,0,1,,,,,,,,0,,,69,0
317035,note_on,115,0,3,,,,,,,,2,,,69,0
317040,note_on,15,0,4,,,,,,,,3,,,60,64
317040,note_on,5,0,2,,,,,,,,1,,,72,64
317040,note_on,15,0,6,,,,,,,,5,,,57,85
317040,note_on,5,0,1,,,,,,,,0,,,72,64
317040,note_on,5,0,3,,,,,,,,2,,,72,64
317040,note_on,15,0,5,,,,,,,,4,,,57,85
317155,note_on,115,0,5,,,,,,,,4,,,57,0
317155,note_on,115,0,6,,,,,,,,5,,,57,0
317155,note_on,115,0,4,,,,,,,,3,,,60,0
317160,note_on,5,0,5,,,,,,,,4,,,55,85
317160,note_on,5,0,6,,,,,,,,5,,,55,85
317160,note_on,5,0,4,,,,,,,,3,,,58,64
317265,note_on,225,0,1,,,,,,,,0,,,72,0
317265,note_on,225,0,2,,,,,,,,1,,,72,0
317265,note_on,225,0,3,,,,,,,,2,,,72,0
317275,note_on,115,0,5,,,,,,,,4,,,55,0
317275,note_on,115,0,4,,,,,,,,3,,,58,0
317275,note_on,115,0,6,,,,,,,,5,,,55,0
317280,note_on,5,0,6,,,,,,,,5,,,53,85
317280,note_on,15,0,1,,,,,,,,0,,,77,64
317280,note_on,5,0,4,,,,,,,,3,,,57,64
317280,note_on,15,0,2,,,,,,,,1,,,77,64
317280,note_on,15,0,3,,,,,,,,2,,,77,64
317280,note_on,5,0,5,,,,,,,,4,,,53,85
317340,note_on,60,0,2,,,,,,,,1,,,77,0
317340,note_on,60,0,1,,,,,,,,0,,,77,0
317340,note_on,60,0,3,,,,,,,,2,,,77,0
317505,note_on,225,0,4,,,,,,,,3,,,57,0
317505,note_on,225,0,5,,,,,,,,4,,,53,0
317505,note_on,225,0,6,,,,,,,,5,,,53,0
317520,note_on,15,0,6,,,,,,,,5,,,41,85
317520,note_on,180,0,2,,,,,,,,1,,,72,64
317520,note_on,180,0,3,,,,,,,,2,,,72,64
317520,note_on,15,0,4,,,,,,,,3,,,57,64
317520,note_on,180,0,1,,,,,,,,0,,,72,64
317520,note_on,15,0,5,,,,,,,,4,,,41,85
317580,note_on,60,0,2,,,,,,,,1,,,72,0
317580,note_on,60,0,3,,,,,,,,2,,,72,0
317580,note_on,60,0,1,,,,,,,,0,,,72,0
317745,note_on,225,0,4,,,,,,,,3,,,57,0
317745,note_on,225,0,5,,,,,,,,4,,,41,0
317745,note_on,225,0,6,,,,,,,,5,,,41,0
317760,note_on,15,0,4,,,,,,,,3,,,60,64
317760,note_on,180,0,3,,,,,,,,2,,,65,64
317760,note_on,180,0,1,,,,,,,,0,,,65,64
317760,note_on,15,0,6,,,,,,,,5,,,45,85
317760,note_on,180,0,2,,,,,,,,1,,,65,64
317760,note_on,15,0,5,,,,,,,,4,,,45,85
317820,note_on,60,0,1,,,,,,,,0,,,65,0
317820,note_on,60,0,3,,,,,,,,2,,,65,0
317820,note_on,60,0,2,,,,,,,,1,,,65,0
317875,note_on,115,0,6,,,,,,,,5,,,45,0
317875,note_on,115,0,4,,,,,,,,3,,,60,0
317875,note_on,115,0,5,,,,,,,,4,,,45,0
317880,note_on,5,0,6,,,,,,,,5,,,43,85
317880,note_on,5,0,4,,,,,,,,3,,,58,64
317880,note_on,5,0,5,,,,,,,,4,,,43,85
317995,note_on,115,0,4,,,,,,,,3,,,58,0
317995,note_on,115,0,5,,,,,,,,4,,,43,0
317995,note_on,115,0,6,,,,,,,,5,,,43,0
318000,note_on,180,0,3,,,,,,,,2,,,60,64
318000,note_on,5,0,6,,,,,,,,5,,,41,85
318000,note_on,180,0,2,,,,,,,,1,,,60,64
318000,note_on,5,0,4,,,,,,,,3,,,57,64
318000,note_on,5,0,5,,,,,,,,4,,,41,85
318000,note_on,180,0,1,,,,,,,,0,,,60,64
318060,note_on,60,0,2,,,,,,,,1,,,60,0
318060,note_on,60,0,3,,,,,,,,2,,,60,0
318060,note_on,60,0,1,,,,,,,,0,,,60,0
318225,note_on,225,0,5,,,,,,,,4,,,41,0
318225,note_on,225,0,4,,,,,,,,3,,,57,0
318225,note_on,225,0,6,,,,,,,,5,,,41,0
318240,note_on,180,0,1,,,,,,,,0,,,72,64
318240,note_on,15,0,6,,,,,,,,5,,,60,85
318240,note_on,180,0,2,,,,,,,,1,,,72,64
318240,note_on,15,0,4,,,,,,,,3,,,72,64
318240,note_on,15,0,5,,,,,,,,4,,,60,85
318240,note_on,180,0,3,,,,,,,,2,,,72,64
318465,note_on,225,0,1,,,,,,,,0,,,72,0
318465,note_on,225,0,5,,,,,,,,4,,,60,0
318465,note_on,225,0,6,,,,,,,,5,,,60,0
318465,note_on,225,0,2,,,,,,,,1,,,72,0
318465,note_on,225,0,4,,,,,,,,3,,,72,0
318465,note_on,225,0,3,,,,,,,,2,,,72,0
318480,note_on,15,0,5,,,,,,,,4,,,58,85
318480,note_on,15,0,2,,,,,,,,1,,,70,64
318480,note_on,15,0,1,,,,,,,,0,,,70,64
318480,note_on,15,0,6,,,,,,,,5,,,58,85
318480,note_on,15,0,3,,,,,,,,2,,,70,64
318480,note_on,15,0,4,,,,,,,,3,,,70,64
318595,note_on,115,0,1,,,,,,,,0,,,70,0
318595,note_on,115,0,5,,,,,,,,4,,,58,0
318595,note_on,115,0,6,,,,,,,,5,,,58,0
318595,note_on,115,0,2,,,,,,,,1,,,70,0
318595,note_on,115,0,4,,,,,,,,3,,,70,0
318595,note_on,115,0,3,,,,,,,,2,,,70,0
318600,note_on,5,0,1,,,,,,,,0,,,69,64
318600,note_on,5,0,5,,,,,,,,4,,,57,85
318600,note_on,5,0,6,,,,,,,,5,,,57,85
318600,note_on,5,0,2,,,,,,,,1,,,69,64
318600,note_on,5,0,4,,,,,,,,3,,,69,64
318600,note_on,5,0,3,,,,,,,,2,,,69,64
318715,note_on,115,0,6,,,,,,,,5,,,57,0
318715,note_on,115,0,4,,,,,,,,3,,,69,0
318715,note_on,115,0,1,,,,,,,,0,,,69,0
318715,note_on,115,0,3,,,,,,,,2,,,69,0
318715,note_on,115,0,2,,,,,,,,1,,,69,0
318715,note_on,115,0,5,,,,,,,,4,,,57,0
318720,note_on,5,0,4,,,,,,,,3,,,67,64
318720,note_on,5,0,2,,,,,,,,1,,,67,64
318720,note_on,5,0,6,,,,,,,,5,,,55,85
318720,note_on,5,0,5,,,,,,,,4,,,55,85
318720,note_on,5,0,3,,,,,,,,2,,,67,64
318720,note_on,5,0,1,,,,,,,,0,,,67,64
318835,note_on,115,0,3,,,,,,,,2,,,67,0
318835,note_on,115,0,4,,,,,,,,3,,,67,0
318835,note_on,115,0,5,,,,,,,,4,,,55,0
318835,note_on,115,0,1,,,,,,,,0,,,67,0
318835,note_on,115,0,6,,,,,,,,5,,,55,0
318835,note_on,115,0,2,,,,,,,,1,,,67,0
318840,note_on,5,0,6,,,,,,,,5,,,53,85
318840,note_on,5,0,1,,,,,,,,0,,,65,64
318840,note_on,5,0,5,,,,,,,,4,,,53,85
318840,note_on,5,0,4,,,,,,,,3,,,65,64
318840,note_on,5,0,3,,,,,,,,2,,,65,64
318840,note_on,5,0,2,,,,,,,,1,,,65,64
318955,note_on,115,0,1,,,,,,,,0,,,65,0
318955,note_on,115,0,6,,,,,,,,5,,,53,0
318955,note_on,115,0,5,,,,,,,,4,,,53,0
318955,note_on,115,0,3,,,,,,,,2,,,65,0
318955,note_on,115,0,2,,,,,,,,1,,,65,0
318955,note_on,115,0,4,,,,,,,,3,,,65,0
318960,note_on,5,0,1,,,,,,,,0,,,64,64
318960,note_on,5,0,6,,,,,,,,5,,,52,85
318960,note_on,5,0,5,,,,,,,,4,,,52,85
318960,note_on,5,0,3,,,,,,,,2,,,64,64
318960,note_on,5,0,2,,,,,,,,1,,,64,64
318960,note_on,5,0,4,,,,,,,,3,,,64,64
319020,note_on,60,0,2,,,,,,,,1,,,64,0
319020,note_on,60,0,1,,,,,,,,0,,,64,0
319020,note_on,60,0,3,,,,,,,,2,,,64,0
319185,note_on,225,0,5,,,,,,,,4,,,52,0
319185,note_on,225,0,6,,,,,,,,5,,,52,0
319185,note_on,225,0,4,,,,,,,,3,,,64,0
319200,note_on,15,0,6,,,,,,,,5,,,50,85
319200,note_on,15,0,5,,,,,,,,4,,,50,85
319200,note_on,180,0,3,,,,,,,,2,,,62,64
319200,note_on,180,0,1,,,,,,,,0,,,62,64
319200,note_on,180,0,2,,,,,,,,1,,,62,64
319200,note_on,15,0,4,,,,,,,,3,,,62,64
319260,note_on,60,0,3,,,,,,,,2,,,62,0
319260,note_on,60,0,2,,,,,,,,1,,,62,0
319260,note_on,60,0,1,,,,,,,,0,,,62,0
319425,note_on,225,0,5,,,,,,,,4,,,50,0
319425,note_on,225,0,6,,,,,,,,5,,,50,0
319425,note_on,225,0,4,,,,,,,,3,,,62,0
319440,note_on,180,0,1,,,,,,,,0,,,60,64
319440,note_on,180,0,3,,,,,,,,2,,,60,64
319440,note_on,180,0,2,,,,,,,,1,,,60,64
319440,note_on,15,0,5,,,,,,,,4,,,48,85
319440,note_on,15,0,6,,,,,,,,5,,,48,85
319440,note_on,15,0,4,,,,,,,,3,,,60,64
319500,note_on,60,0,3,,,,,,,,2,,,60,0
319500,note_on,60,0,2,,,,,,,,1,,,60,0
319500,note_on,60,0,1,,,,,,,,0,,,60,0
319665,note_on,225,0,6,,,,,,,,5,,,48,0
319665,note_on,225,0,5,,,,,,,,4,,,48,0
319665,note_on,225,0,4,,,,,,,,3,,,60,0
319680,note_on,15,0,6,,,,,,,,5,,,55,85
319680,note_on,15,0,5,,,,,,,,4,,,55,85
319680,note_on,180,0,2,,,,,,,,1,,,67,64
319680,note_on,180,0,3,,,,,,,,2,,,67,64
319680,note_on,15,0,4,,,,,,,,3,,,62,64
319680,note_on,180,0,1,,,,,,,,0,,,67,64
319795,note_on,115,0,1,,,,,,,,0,,,67,0
319795,note_on,115,0,3,,,,,,,,2,,,67,0
319795,note_on,115,0,2,,,,,,,,1,,,67,0
319800,note_on,5,0,1,,,,,,,,0,,,70,64
319800,note_on,5,0,3,,,,,,,,2,,,70,64
319800,note_on,5,0,2,,,,,,,,1,,,70,64
319905,note_on,225,0,5,,,,,,,,4,,,55,0
319905,note_on,225,0,6,,,,,,,,5,,,55,0
319905,note_on,225,0,4,,,,,,,,3,,,62,0
319915,note_on,115,0,1,,,,,,,,0,,,70,0
319915,note_on,115,0,2,,,,,,,,1,,,70,0
319915,note_on,115,0,3,,,,,,,,2,,,70,0
319920,note_on,15,0,6,,,,,,,,5,,,58,85
319920,note_on,5,0,2,,,,,,,,1,,,74,64
319920,note_on,5,0,1,,,,,,,,0,,,74,64
319920,note_on,15,0,4,,,,,,,,3,,,62,64
319920,note_on,15,0,5,,,,,,,,4,,,58,85
319920,note_on,5,0,3,,,,,,,,2,,,74,64
320035,note_on,115,0,4,,,,,,,,3,,,62,0
320035,note_on,115,0,5,,,,,,,,4,,,58,0
320035,note_on,115,0,6,,,,,,,,5,,,58,0
320040,note_on,5,0,4,,,,,,,,3,,,60,64
320040,note_on,5,0,5,,,,,,,,4,,,57,85
320040,note_on,5,0,6,,,,,,,,5,,,57,85
320145,note_on,225,0,2,,,,,,,,1,,,74,0
320145,note_on,225,0,3,,,,,,,,2,,,74,0
320145,note_on,225,0,1,,,,,,,,0,,,74,0
320155,note_on,115,0,6,,,,,,,,5,,,57,0
320155,note_on,115,0,4,,,,,,,,3,,,60,0
320155,note_on,115,0,5,,,,,,,,4,,,57,0
320160,note_on,5,0,4,,,,,,,,3,,,58,64
320160,note_on,5,0,6,,,,,,,,5,,,55,85
320160,note_on,15,0,3,,,,,,,,2,,,79,64
320160,note_on,15,0,2,,,,,,,,1,,,79,64
320160,note_on,15,0,1,,,,,,,,0,,,79,64
320160,note_on,5,0,5,,,,,,,,4,,,55,85
320220,note_on,60,0,1,,,,,,,,0,,,79,0
320220,note_on,60,0,3,,,,,,,,2,,,79,0
320220,note_on,60,0,2,,,,,,,,1,,,79,0
320385,note_on,225,0,4,,,,,,,,3,,,58,0
320385,note_on,225,0,5,,,,,,,,4,,,55,0
320385,note_on,225,0,6,,,,,,,,5,,,55,0
320400,note_on,15,0,4,,,,,,,,3,,,58,64
320400,note_on,180,0,1,,,,,,,,0,,,74,64
320400,note_on,15,0,5,,,,,,,,4,,,43,85
320400,note_on,180,0,2,,,,,,,,1,,,74,64
320400,note_on,180,0,3,,,,,,,,2,,,74,64
320400,note_on,15,0,6,,,,,,,,5,,,43,85
320460,note_on,60,0,2,,,,,,,,1,,,74,0
320460,note_on,60,0,3,,,,,,,,2,,,74,0
320460,note_on,60,0,1,,,,,,,,0,,,74,0
320625,note_on,225,0,6,,,,,,,,5,,,43,0
320625,note_on,225,0,5,,,,,,,,4,,,43,0
320625,note_on,225,0,4,,,,,,,,3,,,58,0
320640,note_on,15,0,4,,,,,,,,3,,,62,64
320640,note_on,15,0,5,,,,,,,,4,,,46,85
320640,note_on,180,0,2,,,,,,,,1,,,67,64
320640,note_on,15,0,6,,,,,,,,5,,,46,85
320640,note_on,180,0,3,,,,,,,,2,,,67,64
320640,note_on,180,0,1,,,,,,,,0,,,67,64
320700,note_on,60,0,2,,,,,,,,1,,,67,0
320700,note_on,60,0,3,,,,,,,,2,,,67,0
320700,note_on,60,0,1,,,,,,,,0,,,67,0
320755,note_on,115,0,5,,,,,,,,4,,,46,0
320755,note_on,115,0,4,,,,,,,,3,,,62,0
320755,note_on,115,0,6,,,,,,,,5,,,46,0
320760,note_on,5,0,4,,,,,,,,3,,,60,64
320760,note_on,5,0,5,,,,,,,,4,,,45,85
320760,note_on,5,0,6,,,,,,,,5,,,45,85
320875,note_on,115,0,4,,,,,,,,3,,,60,0
320875,note_on,115,0,6,,,,,,,,5,,,45,0
320875,note_on,115,0,5,,,,,,,,4,,,45,0
320880,note_on,5,0,6,,,,,,,,5,,,43,85
320880,note_on,180,0,1,,,,,,,,0,,,62,64
320880,note_on,5,0,5,,,,,,,,4,,,43,85
320880,note_on,180,0,2,,,,,,,,1,,,62,64
320880,note_on,5,0,4,,,,,,,,3,,,58,64
320880,note_on,180,0,3,,,,,,,,2,,,62,64
320940,note_on,60,0,1,,,,,,,,0,,,62,0
320940,note_on,60,0,3,,,,,,,,2,,,62,0
320940,note_on,60,0,2,,,,,,,,1,,,62,0
321105,note_on,225,0,6,,,,,,,,5,,,43,0
321105,note_on,225,0,4,,,,,,,,3,,,58,0
321105,note_on,225,0,5,,,,,,,,4,,,43,0
321120,note_on,180,0,2,,,,,,,,1,,,67,64
321120,note_on,180,0,3,,,,,,,,2,,,67,64
321120,note_on,15,0,6,,,,,,,,5,,,55,85
321120,note_on,15,0,4,,,,,,,,3,,,62,64
321120,note_on,15,0,5,,,,,,,,4,,,55,85
321120,note_on,180,0,1,,,,,,,,0,,,67,64
321235,note_on,115,0,1,,,,,,,,0,,,67,0
321235,note_on,115,0,2,,,,,,,,1,,,67,0
321235,note_on,115,0,3,,,,,,,,2,,,67,0
321240,note_on,5,0,2,,,,,,,,1,,,70,64
321240,note_on,5,0,1,,,,,,,,0,,,70,64
321240,note_on,5,0,3,,,,,,,,2,,,70,64
321345,note_on,225,0,5,,,,,,,,4,,,55,0
321345,note_on,225,0,6,,,,,,,,5,,,55,0
321345,note_on,225,0,4,,,,,,,,3,,,62,0
321355,note_on,115,0,3,,,,,,,,2,,,70,0
321355,note_on,115,0,1,,,,,,,,0,,,70,0
321355,note_on,115,0,2,,,,,,,,1,,,70,0
321360,note_on,5,0,3,,,,,,,,2,,,74,64
321360,note_on,15,0,5,,,,,,,,4,,,58,85
321360,note_on,5,0,1,,,,,,,,0,,,74,64
321360,note_on,15,0,6,,,,,,,,5,,,58,85
321360,note_on,15,0,4,,,,,,,,3,,,62,64
321360,note_on,5,0,2,,,,,,,,1,,,74,64
321475,note_on,115,0,6,,,,,,,,5,,,58,0
321475,note_on,115,0,5,,,,,,,,4,,,58,0
321475,note_on,115,0,4,,,,,,,,3,,,62,0
321480,note_on,5,0,4,,,,,,,,3,,,60,64
321480,note_on,5,0,5,,,,,,,,4,,,57,85
321480,note_on,5,0,6,,,,,,,,5,,,57,85
321585,note_on,225,0,2,,,,,,,,1,,,74,0
321585,note_on,225,0,1,,,,,,,,0,,,74,0
321585,note_on,225,0,3,,,,,,,,2,,,74,0
321595,note_on,115,0,5,,,,,,,,4,,,57,0
321595,note_on,115,0,4,,,,,,,,3,,,60,0
321595,note_on,115,0,6,,,,,,,,5,,,57,0
321600,note_on,5,0,6,,,,,,,,5,,,55,85
321600,note_on,5,0,5,,,,,,,,4,,,55,85
321600,note_on,15,0,1,,,,,,,,0,,,79,64
321600,note_on,15,0,2,,,,,,,,1,,,79,64
321600,note_on,5,0,4,,,,,,,,3,,,58,64
321600,note_on,15,0,3,,,,,,,,2,,,79,64
321660,note_on,60,0,3,,,,,,,,2,,,79,0
321660,note_on,60,0,1,,,,,,,,0,,,79,0
321660,note_on,60,0,2,,,,,,,,1,,,79,0
321825,note_on,225,0,5,,,,,,,,4,,,55,0
321825,note_on,225,0,6,,,,,,,,5,,,55,0
321825,note_on,225,0,4,,,,,,,,3,,,58,0
321840,note_on,15,0,4,,,,,,,,3,,,58,64
321840,note_on,15,0,6,,,,,,,,5,,,43,85
321840,note_on,180,0,2,,,,,,,,1,,,74,64
321840,note_on,180,0,3,,,,,,,,2,,,74,64
321840,note_on,15,0,5,,,,,,,,4,,,43,85
321840,note_on,180,0,1,,,,,,,,0,,,74,64
321900,note_on,60,0,1,,,,,,,,0,,,74,0
321900,note_on,60,0,3,,,,,,,,2,,,74,0
321900,note_on,60,0,2,,,,,,,,1,,,74,0
322065,note_on,225,0,6,,,,,,,,5,,,43,0
322065,note_on,225,0,5,,,,,,,,4,,,43,0
322065,note_on,225,0,4,,,,,,,,3,,,58,0
322080,note_on,180,0,1,,,,,,,,0,,,67,64
322080,note_on,15,0,6,,,,,,,,5,,,46,85
322080,note_on,15,0,5,,,,,,,,4,,,46,85
322080,note_on,180,0,3,,,,,,,,2,,,67,64
322080,note_on,180,0,2,,,,,,,,1,,,67,64
322080,note_on,15,0,4,,,,,,,,3,,,62,64
322140,note_on,60,0,3,,,,,,,,2,,,67,0
322140,note_on,60,0,2,,,,,,,,1,,,67,0
322140,note_on,60,0,1,,,,,,,,0,,,67,0
322195,note_on,115,0,6,,,,,,,,5,,,46,0
322195,note_on,115,0,4,,,,,,,,3,,,62,0
322195,note_on,115,0,5,,,,,,,,4,,,46,0
322200,note_on,5,0,6,,,,,,,,5,,,45,85
322200,note_on,5,0,5,,,,,,,,4,,,45,85
322200,note_on,5,0,4,,,,,,,,3,,,60,64
322315,note_on,115,0,5,,,,,,,,4,,,45,0
322315,note_on,115,0,4,,,,,,,,3,,,60,0
322315,note_on,115,0,6,,,,,,,,5,,,45,0
322320,note_on,180,0,3,,,,,,,,2,,,62,64
322320,note_on,180,0,1,,,,,,,,0,,,62,64
322320,note_on,5,0,6,,,,,,,,5,,,43,85
322320,note_on,180,0,2,,,,,,,,1,,,62,64
322320,note_on,5,0,5,,,,,,,,4,,,43,85
322320,note_on,5,0,4,,,,,,,,3,,,58,64
322380,note_on,60,0,3,,,,,,,,2,,,62,0
322380,note_on,60,0,2,,,,,,,,1,,,62,0
322380,note_on,60,0,1,,,,,,,,0,,,62,0
322545,note_on,225,0,4,,,,,,,,3,,,58,0
322545,note_on,225,0,5,,,,,,,,4,,,43,0
322545,note_on,225,0,6,,,,,,,,5,,,43,0
322560,note_on,180,0,2,,,,,,,,1,,,74,64
322560,note_on,15,0,5,,,,,,,,4,,,62,85
322560,note_on,180,0,1,,,,,,,,0,,,74,64
322560,note_on,180,0,3,,,,,,,,2,,,74,64
322560,note_on,15,0,4,,,,,,,,3,,,74,64
322560,note_on,15,0,6,,,,,,,,5,,,62,85
322785,note_on,225,0,3,,,,,,,,2,,,74,0
322785,note_on,225,0,4,,,,,,,,3,,,74,0
322785,note_on,225,0,5,,,,,,,,4,,,62,0
322785,note_on,225,0,6,,,,,,,,5,,,62,0
322785,note_on,225,0,2,,,,,,,,1,,,74,0
322785,note_on,225,0,1,,,,,,,,0,,,74,0
322800,note_on,15,0,4,,,,,,,,3,,,72,64
322800,note_on,15,0,1,,,,,,,,0,,,72,64
322800,note_on,15,0,3,,,,,,,,2,,,72,64
322800,note_on,15,0,2,,,,,,,,1,,,72,64
322800,note_on,15,0,6,,,,,,,,5,,,60,85
322800,note_on,15,0,5,,,,,,,,4,,,60,85
322915,note_on,115,0,6,,,,,,,,5,,,60,0
322915,note_on,115,0,3,,,,,,,,2,,,72,0
322915,note_on,115,0,4,,,,,,,,3,,,72,0
322915,note_on,115,0,5,,,,,,,,4,,,60,0
322915,note_on,115,0,1,,,,,,,,0,,,72,0
322915,note_on,115,0,2,,,,,,,,1,,,72,0
322920,note_on,5,0,4,,,,,,,,3,,,70,64
322920,note_on,5,0,5,,,,,,,,4,,,58,85
322920,note_on,5,0,2,,,,,,,,1,,,70,64
322920,note_on,5,0,1,,,,,,,,0,,,70,64
322920,note_on,5,0,6,,,,,,,,5,,,58,85
322920,note_on,5,0,3,,,,,,,,2,,,70,64
323035,note_on,115,0,2,,,,,,,,1,,,70,0
323035,note_on,115,0,1,,,,,,,,0,,,70,0
323035,note_on,115,0,5,,,,,,,,4,,,58,0
323035,note_on,115,0,4,,,,,,,,3,,,70,0
323035,note_on,115,0,3,,,,,,,,2,,,70,0
323035,note_on,115,0,6,,,,,,,,5,,,58,0
323040,note_on,5,0,2,,,,,,,,1,,,69,64
323040,note_on,5,0,6,,,,,,,,5,,,57,85
323040,note_on,5,0,1,,,,,,,,0,,,69,64
323040,note_on,5,0,4,,,,,,,,3,,,69,64
323040,note_on,5,0,5,,,,,,,,4,,,57,85
323040,note_on,5,0,3,,,,,,,,2,,,69,64
323155,note_on,115,0,4,,,,,,,,3,,,69,0
323155,note_on,115,0,3,,,,,,,,2,,,69,0
323155,note_on,115,0,1,,,,,,,,0,,,69,0
323155,note_on,115,0,2,,,,,,,,1,,,69,0
323155,note_on,115,0,5,,,,,,,,4,,,57,0
323155,note_on,115,0,6,,,,,,,,5,,,57,0
323160,note_on,5,0,3,,,,,,,,2,,,67,64
323160,note_on,5,0,1,,,,,,,,0,,,67,64
323160,note_on,5,0,4,,,,,,,,3,,,67,64
323160,note_on,5,0,2,,,,,,,,1,,,67,64
323160,note_on,5,0,5,,,,,,,,4,,,55,85
323160,note_on,5,0,6,,,,,,,,5,,,55,85
323275,note_on,115,0,5,,,,,,,,4,,,55,0
323275,note_on,115,0,3,,,,,,,,2,,,67,0
323275,note_on,115,0,4,,,,,,,,3,,,67,0
323275,note_on,115,0,2,,,,,,,,1,,,67,0
323275,note_on,115,0,6,,,,,,,,5,,,55,0
323275,note_on,115,0,1,,,,,,,,0,,,67,0
323280,note_on,5,0,4,,,,,,,,3,,,66,64
323280,note_on,5,0,2,,,,,,,,1,,,66,64
323280,note_on,5,0,1,,,,,,,,0,,,66,64
323280,note_on,5,0,3,,,,,,,,2,,,66,64
323280,note_on,5,0,6,,,,,,,,5,,,54,85
323280,note_on,5,0,5,,,,,,,,4,,,54,85
323340,note_on,60,0,2,,,,,,,,1,,,66,0
323340,note_on,60,0,1,,,,,,,,0,,,66,0
323340,note_on,60,0,3,,,,,,,,2,,,66,0
323505,note_on,225,0,4,,,,,,,,3,,,66,0
323505,note_on,225,0,6,,,,,,,,5,,,54,0
323505,note_on,225,0,5,,,,,,,,4,,,54,0
323520,note_on,180,0,1,,,,,,,,0,,,64,64
323520,note_on,15,0,6,,,,,,,,5,,,52,85
323520,note_on,180,0,3,,,,,,,,2,,,64,64
323520,note_on,180,0,2,,,,,,,,1,,,64,64
323520,note_on,15,0,5,,,,,,,,4,,,52,85
323520,note_on,15,0,4,,,,,,,,3,,,64,64
323580,note_on,60,0,2,,,,,,,,1,,,64,0
323580,note_on,60,0,3,,,,,,,,2,,,64,0
323580,note_on,60,0,1,,,,,,,,0,,,64,0
323745,note_on,225,0,4,,,,,,,,3,,,64,0
323745,note_on,225,0,5,,,,,,,,4,,,52,0
323745,note_on,225,0,6,,,,,,,,5,,,52,0
323760,note_on,180,0,3,,,,,,,,2,,,62,64
323760,note_on,15,0,5,,,,,,,,4,,,50,85
323760,note_on,15,0,4,,,,,,,,3,,,62,64
323760,note_on,180,0,2,,,,,,,,1,,,62,64
323760,note_on,15,0,6,,,,,,,,5,,,50,85
323760,note_on,180,0,1,,,,,,,,0,,,62,64
323820,note_on,60,0,2,,,,,,,,1,,,62,0
323820,note_on,60,0,1,,,,,,,,0,,,62,0
323820,note_on,60,0,3,,,,,,,,2,,,62,0
323985,note_on,225,0,4,,,,,,,,3,,,62,0
323985,note_on,225,0,5,,,,,,,,4,,,50,0
323985,note_on,225,0,6,,,,,,,,5,,,50,0
324000,note_on,15,0,4,,,,,,,,3,,,70,64
324000,note_on,180,0,2,,,,,,,,1,,,79,64
324000,note_on,15,0,5,,,,,,,,4,,,55,85
324000,note_on,180,0,1,,,,,,,,0,,,79,64
324000,note_on,15,0,6,,,,,,,,5,,,55,85
324000,note_on,180,0,3,,,,,,,,2,,,79,64
324115,note_on,115,0,1,,,,,,,,0,,,79,0
324115,note_on,115,0,2,,,,,,,,1,,,79,0
324115,note_on,115,0,3,,,,,,,,2,,,79,0
324120,note_on,5,0,3,,,,,,,,2,,,67,64
324120,note_on,5,0,1,,,,,,,,0,,,67,64
324120,note_on,5,0,2,,,,,,,,1,,,67,64
324225,note_on,225,0,5,,,,,,,,4,,,55,0
324225,note_on,225,0,4,,,,,,,,3,,,70,0
324225,note_on,225,0,6,,,,,,,,5,,,55,0
324235,note_on,115,0,2,,,,,,,,1,,,67,0
324235,note_on,115,0,3,,,,,,,,2,,,67,0
324235,note_on,115,0,1,,,,,,,,0,,,67,0
324240,note_on,15,0,6,,,,,,,,5,,,55,85
324240,note_on,5,0,3,,,,,,,,2,,,79,64
324240,note_on,5,0,2,,,,,,,,1,,,79,64
324240,note_on,15,0,4,,,,,,,,3,,,70,64
324240,note_on,15,0,5,,,,,,,,4,,,55,85
324240,note_on,5,0,1,,,,,,,,0,,,79,64
324465,note_on,225,0,6,,,,,,,,5,,,55,0
324465,note_on,225,0,5,,,,,,,,4,,,55,0
324465,note_on,225,0,4,,,,,,,,3,,,70,0
324480,note_on,15,0,4,,,,,,,,3,,,70,64
324480,note_on,15,0,6,,,,,,,,5,,,55,85
324480,note_on,15,0,5,,,,,,,,4,,,55,85
324685,note_on,445,0,2,,,,,,,,1,,,79,0
324685,note_on,445,0,3,,,,,,,,2,,,79,0
324685,note_on,445,0,1,,,,,,,,0,,,79,0
324705,note_on,225,0,5,,,,,,,,4,,,55,0
324705,note_on,225,0,4,,,,,,,,3,,,70,0
324705,note_on,225,0,6,,,,,,,,5,,,55,0
324720,note_on,35,0,2,,,,,,,,1,,,67,64
324720,note_on,35,0,3,,,,,,,,2,,,67,64
324720,note_on,35,0,1,,,,,,,,0,,,67,64
324720,note_on,15,0,5,,,,,,,,4,,,53,85
324720,note_on,15,0,6,,,,,,,,5,,,53,85
324720,note_on,15,0,4,,,,,,,,3,,,69,64
324835,note_on,115,0,3,,,,,,,,2,,,67,0
324835,note_on,115,0,2,,,,,,,,1,,,67,0
324835,note_on,115,0,1,,,,,,,,0,,,67,0
324840,note_on,5,0,3,,,,,,,,2,,,55,64
324840,note_on,5,0,1,,,,,,,,0,,,55,64
324840,note_on,5,0,2,,,,,,,,1,,,55,64
324945,note_on,225,0,6,,,,,,,,5,,,53,0
324945,note_on,225,0,4,,,,,,,,3,,,69,0
324945,note_on,225,0,5,,,,,,,,4,,,53,0
324955,note_on,115,0,3,,,,,,,,2,,,55,0
324955,note_on,115,0,2,,,,,,,,1,,,55,0
324955,note_on,115,0,1,,,,,,,,0,,,55,0
324960,note_on,5,0,3,,,,,,,,2,,,67,64
324960,note_on,15,0,4,,,,,,,,3,,,69,64
324960,note_on,15,0,5,,,,,,,,4,,,53,85
324960,note_on,15,0,6,,,,,,,,5,,,53,85
324960,note_on,5,0,2,,,,,,,,1,,,67,64
324960,note_on,5,0,1,,,,,,,,0,,,67,64
325185,note_on,225,0,5,,,,,,,,4,,,53,0
325185,note_on,225,0,4,,,,,,,,3,,,69,0
325185,note_on,225,0,6,,,,,,,,5,,,53,0
325200,note_on,15,0,5,,,,,,,,4,,,53,85
325200,note_on,15,0,6,,,,,,,,5,,,53,85
325200,note_on,15,0,4,,,,,,,,3,,,69,64
325405,note_on,445,0,2,,,,,,,,1,,,67,0
325405,note_on,445,0,3,,,,,,,,2,,,67,0
325405,note_on,445,0,1,,,,,,,,0,,,67,0
325425,note_on,225,0,5,,,,,,,,4,,,53,0
325425,note_on,225,0,4,,,,,,,,3,,,69,0
325425,note_on,225,0,6,,,,,,,,5,,,53,0
325440,note_on,35,0,1,,,,,,,,0,,,79,64
325440,note_on,35,0,2,,,,,,,,1,,,79,64
325440,note_on,35,0,3,,,,,,,,2,,,79,64
325440,note_on,15,0,5,,,,,,,,4,,,51,85
325440,note_on,15,0,4,,,,,,,,3,,,67,64
325440,note_on,15,0,6,,,,,,,,5,,,51,85
325555,note_on,115,0,2,,,,,,,,1,,,79,0
325555,note_on,115,0,1,,,,,,,,0,,,79,0
325555,note_on,115,0,3,,,,,,,,2,,,79,0
325560,note_on,5,0,1,,,,,,,,0,,,67,64
325560,note_on,5,0,3,,,,,,,,2,,,67,64
325560,note_on,5,0,2,,,,,,,,1,,,67,64
325665,note_on,225,0,4,,,,,,,,3,,,67,0
325665,note_on,225,0,6,,,,,,,,5,,,51,0
325665,note_on,225,0,5,,,,,,,,4,,,51,0
325675,note_on,115,0,1,,,,,,,,0,,,67,0
325675,note_on,115,0,3,,,,,,,,2,,,67,0
325675,note_on,115,0,2,,,,,,,,1,,,67,0
325680,note_on,15,0,5,,,,,,,,4,,,51,85
325680,note_on,15,0,6,,,,,,,,5,,,51,85
325680,note_on,5,0,3,,,,,,,,2,,,79,64
325680,note_on,5,0,1,,,,,,,,0,,,79,64
325680,note_on,5,0,2,,,,,,,,1,,,79,64
325680,note_on,15,0,4,,,,,,,,3,,,67,64
325905,note_on,225,0,4,,,,,,,,3,,,67,0
325905,note_on,225,0,5,,,,,,,,4,,,51,0
325905,note_on,225,0,6,,,,,,,,5,,,51,0
325920,note_on,15,0,5,,,,,,,,4,,,51,85
325920,note_on,15,0,4,,,,,,,,3,,,67,64
325920,note_on,15,0,6,,,,,,,,5,,,51,85
326125,note_on,445,0,1,,,,,,,,0,,,79,0
326125,note_on,445,0,2,,,,,,,,1,,,79,0
326125,note_on,445,0,3,,,,,,,,2,,,79,0
326145,note_on,225,0,5,,,,,,,,4,,,51,0
326145,note_on,225,0,6,,,,,,,,5,,,51,0
326145,note_on,225,0,4,,,,,,,,3,,,67,0
326160,note_on,35,0,1,,,,,,,,0,,,67,64
326160,note_on,35,0,3,,,,,,,,2,,,67,64
326160,note_on,15,0,5,,,,,,,,4,,,50,85
326160,note_on,15,0,6,,,,,,,,5,,,50,85
326160,note_on,35,0,2,,,,,,,,1,,,67,64
326160,note_on,15,0,4,,,,,,,,3,,,65,64
326275,note_on,115,0,2,,,,,,,,1,,,67,0
326275,note_on,115,0,1,,,,,,,,0,,,67,0
326275,note_on,115,0,3,,,,,,,,2,,,67,0
326280,note_on,5,0,1,,,,,,,,0,,,55,64
326280,note_on,5,0,2,,,,,,,,1,,,55,64
326280,note_on,5,0,3,,,,,,,,2,,,55,64
326385,note_on,225,0,4,,,,,,,,3,,,65,0
326385,note_on,225,0,5,,,,,,,,4,,,50,0
326385,note_on,225,0,6,,,,,,,,5,,,50,0
326395,note_on,115,0,3,,,,,,,,2,,,55,0
326395,note_on,115,0,1,,,,,,,,0,,,55,0
326395,note_on,115,0,2,,,,,,,,1,,,55,0
326400,note_on,5,0,2,,,,,,,,1,,,67,64
326400,note_on,15,0,5,,,,,,,,4,,,50,85
326400,note_on,5,0,3,,,,,,,,2,,,67,64
326400,note_on,15,0,4,,,,,,,,3,,,65,64
326400,note_on,15,0,6,,,,,,,,5,,,50,85
326400,note_on,5,0,1,,,,,,,,0,,,67,64
326625,note_on,225,0,6,,,,,,,,5,,,50,0
326625,note_on,225,0,5,,,,,,,,4,,,50,0
326625,note_on,225,0,4,,,,,,,,3,,,65,0
326640,note_on,15,0,6,,,,,,,,5,,,50,85
326640,note_on,15,0,4,,,,,,,,3,,,65,64
326640,note_on,15,0,5,,,,,,,,4,,,50,85
326845,note_on,445,0,3,,,,,,,,2,,,67,0
326845,note_on,445,0,2,,,,,,,,1,,,67,0
326845,note_on,445,0,1,,,,,,,,0,,,67,0
326865,note_on,225,0,6,,,,,,,,5,,,50,0
326865,note_on,225,0,4,,,,,,,,3,,,65,0
326865,note_on,225,0,5,,,,,,,,4,,,50,0
326880,note_on,35,0,2,,,,,,,,1,,,79,64
326880,note_on,35,0,3,,,,,,,,2,,,79,64
326880,note_on,35,0,1,,,,,,,,0,,,79,64
326880,note_on,15,0,6,,,,,,,,5,,,48,85
326880,note_on,15,0,5,,,,,,,,4,,,48,85
326880,note_on,15,0,4,,,,,,,,3,,,63,64
326995,note_on,115,0,1,,,,,,,,0,,,79,0
326995,note_on,115,0,3,,,,,,,,2,,,79,0
326995,note_on,115,0,2,,,,,,,,1,,,79,0
327000,note_on,5,0,1,,,,,,,,0,,,67,64
327000,note_on,5,0,3,,,,,,,,2,,,67,64
327000,note_on,5,0,2,,,,,,,,1,,,67,64
327105,note_on,225,0,5,,,,,,,,4,,,48,0
327105,note_on,225,0,6,,,,,,,,5,,,48,0
327105,note_on,225,0,4,,,,,,,,3,,,63,0
327115,note_on,115,0,1,,,,,,,,0,,,67,0
327115,note_on,115,0,3,,,,,,,,2,,,67,0
327115,note_on,115,0,2,,,,,,,,1,,,67,0
327120,note_on,5,0,3,,,,,,,,2,,,79,64
327120,note_on,5,0,1,,,,,,,,0,,,79,64
327120,note_on,15,0,5,,,,,,,,4,,,48,85
327120,note_on,15,0,6,,,,,,,,5,,,48,85
327120,note_on,5,0,2,,,,,,,,1,,,79,64
327120,note_on,15,0,4,,,,,,,,3,,,63,64
327345,note_on,225,0,5,,,,,,,,4,,,48,0
327345,note_on,225,0,4,,,,,,,,3,,,63,0
327345,note_on,225,0,6,,,,,,,,5,,,48,0
327360,note_on,15,0,4,,,,,,,,3,,,63,64
327360,note_on,15,0,5,,,,,,,,4,,,48,85
327360,note_on,15,0,6,,,,,,,,5,,,48,85
327565,note_on,445,0,3,,,,,,,,2,,,79,0
327565,note_on,445,0,1,,,,,,,,0,,,79,0
327565,note_on,445,0,2,,,,,,,,1,,,79,0
327585,note_on,225,0,5,,,,,,,,4,,,48,0
327585,note_on,225,0,4,,,,,,,,3,,,63,0
327585,note_on,225,0,6,,,,,,,,5,,,48,0
327600,note_on,35,0,1,,,,,,,,0,,,79,64
327600,note_on,35,0,3,,,,,,,,2,,,79,64
327600,note_on,35,0,2,,,,,,,,1,,,79,64
327600,note_on,15,0,5,,,,,,,,4,,,46,85
327600,note_on,15,0,4,,,,,,,,3,,,62,64
327600,note_on,15,0,6,,,,,,,,5,,,46,85
327825,note_on,225,0,5,,,,,,,,4,,,46,0
327825,note_on,225,0,1,,,,,,,,0,,,79,0
327825,note_on,225,0,6,,,,,,,,5,,,46,0
327825,note_on,225,0,4,,,,,,,,3,,,62,0
327825,note_on,225,0,2,,,,,,,,1,,,79,0
327825,note_on,225,0,3,,,,,,,,2,,,79,0
327840,note_on,15,0,3,,,,,,,,2,,,81,64
327840,note_on,15,0,4,,,,,,,,3,,,63,64
327840,note_on,15,0,6,,,,,,,,5,,,48,85
327840,note_on,15,0,5,,,,,,,,4,,,48,85
327840,note_on,15,0,1,,,,,,,,0,,,81,64
327840,note_on,15,0,2,,,,,,,,1,,,81,64
328065,note_on,225,0,1,,,,,,,,0,,,81,0
328065,note_on,225,0,5,,,,,,,,4,,,48,0
328065,note_on,225,0,3,,,,,,,,2,,,81,0
328065,note_on,225,0,6,,,,,,,,5,,,48,0
328065,note_on,225,0,2,,,,,,,,1,,,81,0
328065,note_on,225,0,4,,,,,,,,3,,,63,0
328080,note_on,15,0,3,,,,,,,,2,,,78,64
328080,note_on,15,0,2,,,,,,,,1,,,78,64
328080,note_on,15,0,6,,,,,,,,5,,,50,85
328080,note_on,15,0,5,,,,,,,,4,,,50,85
328080,note_on,15,0,4,,,,,,,,3,,,62,64
328080,note_on,15,0,1,,,,,,,,0,,,78,64
328305,note_on,225,0,5,,,,,,,,4,,,50,0
328305,note_on,225,0,6,,,,,,,,5,,,50,0
328305,note_on,225,0,3,,,,,,,,2,,,78,0
328305,note_on,225,0,4,,,,,,,,3,,,62,0
328305,note_on,225,0,2,,,,,,,,1,,,78,0
328305,note_on,225,0,1,,,,,,,,0,,,78,0
328320,note_on,15,0,4,,,,,,,,3,,,58,64
328320,note_on,15,0,2,,,,,,,,1,,,79,64
328320,note_on,15,0,3,,,,,,,,2,,,79,64
328320,note_on,15,0,5,,,,,,,,4,,,43,64
328320,note_on,15,0,6,,,,,,,,5,,,43,64
328320,note_on,15,0,1,,,,,,,,0,,,79,106
328435,note_on,115,0,1,,,,,,,,0,,,79,0
328440,note_on,5,0,1,,,,,,,,0,,,79,106
328555,note_on,115,0,1,,,,,,,,0,,,79,0
328560,note_on,5,0,1,,,,,,,,0,,,74,106
328675,note_on,115,0,1,,,,,,,,0,,,74,0
328680,note_on,5,0,1,,,,,,,,0,,,79,106
328765,note_on,445,0,6,,,,,,,,5,,,43,0
328765,note_on,445,0,4,,,,,,,,3,,,58,0
328765,note_on,445,0,5,,,,,,,,4,,,43,0
328765,note_on,445,0,3,,,,,,,,2,,,79,0
328765,note_on,445,0,2,,,,,,,,1,,,79,0
328795,note_on,115,0,1,,,,,,,,0,,,79,0
328800,note_on,5,0,1,,,,,,,,0,,,70,106
328915,note_on,115,0,1,,,,,,,,0,,,70,0
328920,note_on,5,0,1,,,,,,,,0,,,74,106
329035,note_on,115,0,1,,,,,,,,0,,,74,0
329040,note_on,275,0,5,,,,,,,,4,,,43,64
329040,note_on,275,0,6,,,,,,,,5,,,43,64
329040,note_on,5,0,1,,,,,,,,0,,,67,106
329155,note_on,115,0,1,,,,,,,,0,,,67,0
329160,note_on,5,0,1,,,,,,,,0,,,70,106
329275,note_on,115,0,1,,,,,,,,0,,,70,0
329280,note_on,5,0,1,,,,,,,,0,,,62,106
329395,note_on,115,0,1,,,,,,,,0,,,62,0
329400,note_on,5,0,1,,,,,,,,0,,,67,106
329485,note_on,445,0,6,,,,,,,,5,,,43,0
329485,note_on,445,0,5,,,,,,,,4,,,43,0
329515,note_on,115,0,1,,,,,,,,0,,,67,0
329520,note_on,5,0,1,,,,,,,,0,,,58,106
329635,note_on,115,0,1,,,,,,,,0,,,58,0
329640,note_on,5,0,1,,,,,,,,0,,,62,106
329755,note_on,115,0,1,,,,,,,,0,,,62,0
329760,note_on,5,0,1,,,,,,,,0,,,55,106
329760,note_on,275,0,6,,,,,,,,5,,,43,64
329760,note_on,275,0,5,,,,,,,,4,,,43,64
330205,note_on,445,0,6,,,,,,,,5,,,43,0
330205,note_on,445,0,1,,,,,,,,0,,,55,0
330205,note_on,445,0,5,,,,,,,,4,,,43,0
330240,note_on,35,0,1,,,,,,,,0,,,77,106
330465,note_on,225,0,1,,,,,,,,0,,,77,0
330480,note_on,275,0,6,,,,,,,,5,,,43,64
330480,note_on,15,0,1,,,,,,,,0,,,82,106
330480,note_on,275,0,5,,,,,,,,4,,,43,64
330595,note_on,115,0,6,,,,,,,,5,,,43,0
330595,note_on,115,0,5,,,,,,,,4,,,43,0
330600,note_on,5,0,5,,,,,,,,4,,,45,64
330600,note_on,5,0,6,,,,,,,,5,,,45,64
330705,note_on,225,0,1,,,,,,,,0,,,82,0
330715,note_on,115,0,5,,,,,,,,4,,,45,0
330715,note_on,115,0,6,,,,,,,,5,,,45,0
330720,note_on,5,0,5,,,,,,,,4,,,46,64
330720,note_on,15,0,1,,,,,,,,0,,,81,106
330720,note_on,5,0,6,,,,,,,,5,,,46,64
330945,note_on,225,0,6,,,,,,,,5,,,46,0
330945,note_on,225,0,5,,,,,,,,4,,,46,0
330945,note_on,225,0,1,,,,,,,,0,,,81,0
330960,note_on,15,0,6,,,,,,,,5,,,48,64
330960,note_on,15,0,5,,,,,,,,4,,,48,64
330960,note_on,15,0,1,,,,,,,,0,,,79,106
331185,note_on,225,0,6,,,,,,,,5,,,48,0
331185,note_on,225,0,5,,,,,,,,4,,,48,0
331185,note_on,225,0,1,,,,,,,,0,,,79,0
331200,note_on,15,0,1,,,,,,,,0,,,81,106
331200,note_on,15,0,5,,,,,,,,4,,,50,64
331200,note_on,15,0,6,,,,,,,,5,,,50,64
331260,note_on,0,0,1,,,,,,,,0,,,79,106
331260,note_on,60,0,1,,,,,,,,0,,,81,0
331320,note_on,0,0,1,,,,,,,,0,,,81,106
331320,note_on,60,0,1,,,,,,,,0,,,79,0
331380,note_on,0,0,1,,,,,,,,0,,,79,106
331380,note_on,60,0,1,,,,,,,,0,,,81,0
331645,note_on,445,0,6,,,,,,,,5,,,50,0
331645,note_on,445,0,5,,,,,,,,4,,,50,0
331665,note_on,285,0,1,,,,,,,,0,,,79,0
331680,note_on,35,0,5,,,,,,,,4,,,38,64
331680,note_on,15,0,1,,,,,,,,0,,,78,106
331680,note_on,35,0,6,,,,,,,,5,,,38,64
331905,note_on,225,0,6,,,,,,,,5,,,38,0
331905,note_on,225,0,5,,,,,,,,4,,,38,0
331905,note_on,225,0,1,,,,,,,,0,,,78,0
331920,note_on,15,0,5,,,,,,,,4,,,43,64
331920,note_on,15,0,6,,,,,,,,5,,,43,64
332040,note_on,135,0,1,,,,,,,,0,,,79,106
332155,note_on,115,0,1,,,,,,,,0,,,79,0
332160,note_on,5,0,1,,,,,,,,0,,,74,106
332275,note_on,115,0,1,,,,,,,,0,,,74,0
332280,note_on,5,0,1,,,,,,,,0,,,79,106
332365,note_on,445,0,5,,,,,,,,4,,,43,0
332365,note_on,445,0,6,,,,,,,,5,,,43,0
332395,note_on,115,0,1,,,,,,,,0,,,79,0
332400,note_on,5,0,1,,,,,,,,0,,,70,106
332515,note_on,115,0,1,,,,,,,,0,,,70,0
332520,note_on,5,0,1,,,,,,,,0,,,74,106
332635,note_on,115,0,1,,,,,,,,0,,,74,0
332640,note_on,275,0,6,,,,,,,,5,,,43,64
332640,note_on,275,0,5,,,,,,,,4,,,43,64
332640,note_on,5,0,1,,,,,,,,0,,,67,106
332755,note_on,115,0,1,,,,,,,,0,,,67,0
332760,note_on,5,0,1,,,,,,,,0,,,70,106
332875,note_on,115,0,1,,,,,,,,0,,,70,0
332880,note_on,5,0,1,,,,,,,,0,,,62,106
332995,note_on,115,0,1,,,,,,,,0,,,62,0
333000,note_on,5,0,1,,,,,,,,0,,,67,106
333085,note_on,445,0,6,,,,,,,,5,,,43,0
333085,note_on,445,0,5,,,,,,,,4,,,43,0
333115,note_on,115,0,1,,,,,,,,0,,,67,0
333120,note_on,5,0,1,,,,,,,,0,,,58,106
333235,note_on,115,0,1,,,,,,,,0,,,58,0
333240,note_on,5,0,1,,,,,,,,0,,,62,106
333355,note_on,115,0,1,,,,,,,,0,,,62,0
333360,note_on,5,0,1,,,,,,,,0,,,55,106
333360,note_on,275,0,6,,,,,,,,5,,,43,64
333360,note_on,275,0,5,,,,,,,,4,,,43,64
333805,note_on,445,0,6,,,,,,,,5,,,43,0
333805,note_on,445,0,1,,,,,,,,0,,,55,0
333805,note_on,445,0,5,,,,,,,,4,,,43,0
333840,note_on,35,0,1,,,,,,,,0,,,82,106
334065,note_on,225,0,1,,,,,,,,0,,,82,0
334080,note_on,275,0,5,,,,,,,,4,,,43,64
334080,note_on,15,0,1,,,,,,,,0,,,86,106
334080,note_on,275,0,6,,,,,,,,5,,,43,64
334195,note_on,115,0,6,,,,,,,,5,,,43,0
334195,note_on,115,0,5,,,,,,,,4,,,43,0
334200,note_on,5,0,5,,,,,,,,4,,,45,64
334200,note_on,5,0,6,,,,,,,,5,,,45,64
334305,note_on,225,0,1,,,,,,,,0,,,86,0
334315,note_on,115,0,6,,,,,,,,5,,,45,0
334315,note_on,115,0,5,,,,,,,,4,,,45,0
334320,note_on,5,0,5,,,,,,,,4,,,46,64
334320,note_on,15,0,1,,,,,,,,0,,,84,106
334320,note_on,5,0,6,,,,,,,,5,,,46,64
334545,note_on,225,0,5,,,,,,,,4,,,46,0
334545,note_on,225,0,1,,,,,,,,0,,,84,0
334545,note_on,225,0,6,,,,,,,,5,,,46,0
334560,note_on,15,0,5,,,,,,,,4,,,48,64
334560,note_on,15,0,6,,,,,,,,5,,,48,64
334560,note_on,15,0,1,,,,,,,,0,,,82,106
334785,note_on,225,0,6,,,,,,,,5,,,48,0
334785,note_on,225,0,1,,,,,,,,0,,,82,0
334785,note_on,225,0,5,,,,,,,,4,,,48,0
334800,note_on,15,0,1,,,,,,,,0,,,84,106
334800,note_on,15,0,6,,,,,,,,5,,,50,64
334800,note_on,15,0,5,,,,,,,,4,,,50,64
334860,note_on,60,0,1,,,,,,,,0,,,84,0
334860,note_on,0,0,1,,,,,,,,0,,,82,106
334920,note_on,60,0,1,,,,,,,,0,,,82,0
334920,note_on,0,0,1,,,,,,,,0,,,84,106
334980,note_on,60,0,1,,,,,,,,0,,,84,0
334980,note_on,0,0,1,,,,,,,,0,,,82,106
335245,note_on,445,0,5,,,,,,,,4,,,50,0
335245,note_on,445,0,6,,,,,,,,5,,,50,0
335265,note_on,285,0,1,,,,,,,,0,,,82,0
335280,note_on,35,0,5,,,,,,,,4,,,38,64
335280,note_on,15,0,1,,,,,,,,0,,,81,106
335280,note_on,35,0,6,,,,,,,,5,,,38,64
335505,note_on,225,0,1,,,,,,,,0,,,81,0
335505,note_on,225,0,5,,,,,,,,4,,,38,0
335505,note_on,225,0,6,,,,,,,,5,,,38,0
335520,note_on,15,0,5,,,,,,,,4,,,50,64
335520,note_on,15,0,6,,,,,,,,5,,,50,64
335640,note_on,135,0,1,,,,,,,,0,,,86,106
335755,note_on,115,0,1,,,,,,,,0,,,86,0
335760,note_on,5,0,1,,,,,,,,0,,,81,106
335875,note_on,115,0,1,,,,,,,,0,,,81,0
335880,note_on,5,0,1,,,,,,,,0,,,86,106
335965,note_on,445,0,5,,,,,,,,4,,,50,0
335965,note_on,445,0,6,,,,,,,,5,,,50,0
335995,note_on,115,0,1,,,,,,,,0,,,86,0
336000,note_on,5,0,1,,,,,,,,0,,,78,106
336115,note_on,115,0,1,,,,,,,,0,,,78,0
336120,note_on,5,0,1,,,,,,,,0,,,81,106
336235,note_on,115,0,1,,,,,,,,0,,,81,0
336240,note_on,5,0,1,,,,,,,,0,,,74,106
336240,note_on,275,0,6,,,,,,,,5,,,54,64
336240,note_on,275,0,5,,,,,,,,4,,,54,64
336355,note_on,115,0,1,,,,,,,,0,,,74,0
336360,note_on,5,0,1,,,,,,,,0,,,76,106
336475,note_on,115,0,1,,,,,,,,0,,,76,0
336480,note_on,5,0,1,,,,,,,,0,,,78,106
336595,note_on,115,0,1,,,,,,,,0,,,78,0
336600,note_on,5,0,1,,,,,,,,0,,,79,106
336685,note_on,445,0,5,,,,,,,,4,,,54,0
336685,note_on,445,0,6,,,,,,,,5,,,54,0
336715,note_on,115,0,1,,,,,,,,0,,,79,0
336720,note_on,5,0,1,,,,,,,,0,,,81,106
336835,note_on,115,0,1,,,,,,,,0,,,81,0
336840,note_on,5,0,1,,,,,,,,0,,,82,106
336955,note_on,115,0,1,,,,,,,,0,,,82,0
336960,note_on,275,0,5,,,,,,,,4,,,50,64
336960,note_on,5,0,1,,,,,,,,0,,,84,106
336960,note_on,275,0,6,,,,,,,,5,,,50,64
337185,note_on,225,0,1,,,,,,,,0,,,84,0
337200,note_on,15,0,1,,,,,,,,0,,,82,106
337405,note_on,445,0,5,,,,,,,,4,,,50,0
337405,note_on,445,0,6,,,,,,,,5,,,50,0
337425,note_on,225,0,1,,,,,,,,0,,,82,0
337440,note_on,15,0,1,,,,,,,,0,,,81,106
337665,note_on,225,0,1,,,,,,,,0,,,81,0
337680,note_on,15,0,1,,,,,,,,0,,,82,106
337680,note_on,275,0,6,,,,,,,,5,,,55,64
337680,note_on,275,0,5,,,,,,,,4,,,55,64
337795,note_on,115,0,1,,,,,,,,0,,,82,0
337800,note_on,5,0,1,,,,,,,,0,,,79,106
337915,note_on,115,0,1,,,,,,,,0,,,79,0
337920,note_on,5,0,1,,,,,,,,0,,,74,106
338035,note_on,115,0,1,,,,,,,,0,,,74,0
338040,note_on,5,0,1,,,,,,,,0,,,79,106
338125,note_on,445,0,6,,,,,,,,5,,,55,0
338125,note_on,445,0,5,,,,,,,,4,,,55,0
338155,note_on,115,0,1,,,,,,,,0,,,79,0
338160,note_on,5,0,1,,,,,,,,0,,,70,106
338275,note_on,115,0,1,,,,,,,,0,,,70,0
338280,note_on,5,0,1,,,,,,,,0,,,74,106
338395,note_on,115,0,1,,,,,,,,0,,,74,0
338400,note_on,275,0,5,,,,,,,,4,,,47,64
338400,note_on,275,0,6,,,,,,,,5,,,47,64
338400,note_on,5,0,1,,,,,,,,0,,,67,106
338515,note_on,115,0,1,,,,,,,,0,,,67,0
338520,note_on,5,0,1,,,,,,,,0,,,69,106
338635,note_on,115,0,1,,,,,,,,0,,,69,0
338640,note_on,5,0,1,,,,,,,,0,,,71,106
338755,note_on,115,0,1,,,,,,,,0,,,71,0
338760,note_on,5,0,1,,,,,,,,0,,,72,106
338845,note_on,445,0,5,,,,,,,,4,,,47,0
338845,note_on,445,0,6,,,,,,,,5,,,47,0
338875,note_on,115,0,1,,,,,,,,0,,,72,0
338880,note_on,5,0,1,,,,,,,,0,,,74,106
338995,note_on,115,0,1,,,,,,,,0,,,74,0
339000,note_on,5,0,1,,,,,,,,0,,,75,106
339115,note_on,115,0,1,,,,,,,,0,,,75,0
339120,note_on,275,0,5,,,,,,,,4,,,43,64
339120,note_on,275,0,6,,,,,,,,5,,,43,64
339120,note_on,5,0,1,,,,,,,,0,,,77,106
339345,note_on,225,0,1,,,,,,,,0,,,77,0
339360,note_on,15,0,1,,,,,,,,0,,,75,106
339565,note_on,445,0,5,,,,,,,,4,,,43,0
339565,note_on,445,0,6,,,,,,,,5,,,43,0
339585,note_on,225,0,1,,,,,,,,0,,,75,0
339600,note_on,15,0,1,,,,,,,,0,,,74,106
339825,note_on,225,0,1,,,,,,,,0,,,74,0
339840,note_on,275,0,5,,,,,,,,4,,,48,64
339840,note_on,275,0,6,,,,,,,,5,,,48,64
339840,note_on,15,0,1,,,,,,,,0,,,75,106
340065,note_on,225,0,1,,,,,,,,0,,,75,0
340080,note_on,15,0,1,,,,,,,,0,,,74,106
340285,note_on,445,0,5,,,,,,,,4,,,48,0
340285,note_on,445,0,6,,,,,,,,5,,,48,0
340305,note_on,225,0,1,,,,,,,,0,,,74,0
340320,note_on,35,0,6,,,,,,,,5,,,51,64
340320,note_on,15,0,1,,,,,,,,0,,,72,106
340320,note_on,35,0,5,,,,,,,,4,,,51,64
340545,note_on,225,0,6,,,,,,,,5,,,51,0
340545,note_on,225,0,5,,,,,,,,4,,,51,0
340545,note_on,225,0,1,,,,,,,,0,,,72,0
340560,note_on,15,0,5,,,,,,,,4,,,53,64
340560,note_on,15,0,1,,,,,,,,0,,,73,106
340560,note_on,15,0,6,,,,,,,,5,,,53,64
340785,note_on,225,0,1,,,,,,,,0,,,73,0
340800,note_on,15,0,1,,,,,,,,0,,,72,106
341005,note_on,445,0,5,,,,,,,,4,,,53,0
341005,note_on,445,0,6,,,,,,,,5,,,53,0
341025,note_on,225,0,1,,,,,,,,0,,,72,0
341040,note_on,35,0,5,,,,,,,,4,,,55,64
341040,note_on,15,0,1,,,,,,,,0,,,71,106
341040,note_on,35,0,6,,,,,,,,5,,,55,64
341265,note_on,225,0,5,,,,,,,,4,,,55,0
341265,note_on,225,0,1,,,,,,,,0,,,71,0
341265,note_on,225,0,6,,,,,,,,5,,,55,0
341280,note_on,15,0,5,,,,,,,,4,,,51,64
341280,note_on,15,0,6,,,,,,,,5,,,51,64
341280,note_on,15,0,1,,,,,,,,0,,,72,106
341395,note_on,115,0,1,,,,,,,,0,,,72,0
341400,note_on,5,0,1,,,,,,,,0,,,74,106
341505,note_on,225,0,6,,,,,,,,5,,,51,0
341505,note_on,225,0,5,,,,,,,,4,,,51,0
341515,note_on,115,0,1,,,,,,,,0,,,74,0
341520,note_on,5,0,1,,,,,,,,0,,,75,106
341520,note_on,15,0,5,,,,,,,,4,,,50,64
341520,note_on,15,0,6,,,,,,,,5,,,50,64
341635,note_on,115,0,1,,,,,,,,0,,,75,0
341640,note_on,5,0,1,,,,,,,,0,,,77,106
341745,note_on,225,0,5,,,,,,,,4,,,50,0
341745,note_on,225,0,6,,,,,,,,5,,,50,0
341755,note_on,115,0,1,,,,,,,,0,,,77,0
341760,note_on,5,0,1,,,,,,,,0,,,79,106
341760,note_on,15,0,6,,,,,,,,5,,,48,64
341760,note_on,15,0,5,,,,,,,,4,,,48,64
341985,note_on,225,0,1,,,,,,,,0,,,79,0
341985,note_on,225,0,6,,,,,,,,5,,,48,0
341985,note_on,225,0,5,,,,,,,,4,,,48,0
342000,note_on,15,0,5,,,,,,,,4,,,51,64
342000,note_on,15,0,6,,,,,,,,5,,,51,64
342000,note_on,15,0,1,,,,,,,,0,,,72,106
342165,note_on,165,0,1,,,,,,,,0,,,72,0
342225,note_on,225,0,5,,,,,,,,4,,,51,0
342225,note_on,225,0,6,,,,,,,,5,,,51,0
342240,note_on,15,0,5,,,,,,,,4,,,53,64
342240,note_on,15,0,6,,,,,,,,5,,,53,64
342240,note_on,75,0,1,,,,,,,,0,,,74,106
342397,note_on,157,0,1,,,,,,,,0,,,74,0
342465,note_on,225,0,6,,,,,,,,5,,,53,0
342465,note_on,225,0,5,,,,,,,,4,,,53,0
342480,note_on,15,0,5,,,,,,,,4,,,55,64
342480,note_on,83,0,1,,,,,,,,0,,,71,106
342480,note_on,15,0,6,,,,,,,,5,,,55,64
342633,note_on,153,0,1,,,,,,,,0,,,71,0
342705,note_on,225,0,5,,,,,,,,4,,,55,0
342705,note_on,225,0,6,,,,,,,,5,,,55,0
342720,note_on,87,0,1,,,,,,,,0,,,72,64
342720,note_on,15,0,5,,,,,,,,4,,,48,85
342720,note_on,13955,0,2,,,,,,,,1,,,72,64
342720,note_on,13955,0,4,,,,,,,,3,,,67,85
342720,note_on,15,0,6,,,,,,,,5,,,48,85
342720,note_on,13955,0,3,,,,,,,,2,,,72,64
342835,note_on,115,0,3,,,,,,,,2,,,72,0
342835,note_on,115,0,1,,,,,,,,0,,,72,0
342835,note_on,115,0,2,,,,,,,,1,,,72,0
342840,note_on,5,0,3,,,,,,,,2,,,75,64
342840,note_on,5,0,1,,,,,,,,0,,,75,64
342840,note_on,5,0,2,,,,,,,,1,,,75,64
342945,note_on,225,0,6,,,,,,,,5,,,48,0
342945,note_on,225,0,4,,,,,,,,3,,,67,0
342945,note_on,225,0,5,,,,,,,,4,,,48,0
342955,note_on,115,0,3,,,,,,,,2,,,75,0
342955,note_on,115,0,2,,,,,,,,1,,,75,0
342955,note_on,115,0,1,,,,,,,,0,,,75,0
342960,note_on,5,0,3,,,,,,,,2,,,79,64
342960,note_on,5,0,1,,,,,,,,0,,,79,64
342960,note_on,15,0,5,,,,,,,,4,,,51,85
342960,note_on,5,0,2,,,,,,,,1,,,79,64
342960,note_on,15,0,6,,,,,,,,5,,,51,85
342960,note_on,15,0,4,,,,,,,,3,,,67,85
343075,note_on,115,0,6,,,,,,,,5,,,51,0
343075,note_on,115,0,4,,,,,,,,3,,,67,0
343075,note_on,115,0,5,,,,,,,,4,,,51,0
343080,note_on,5,0,4,,,,,,,,3,,,65,85
343080,note_on,5,0,6,,,,,,,,5,,,50,85
343080,note_on,5,0,5,,,,,,,,4,,,50,85
343185,note_on,225,0,1,,,,,,,,0,,,79,0
343185,note_on,225,0,3,,,,,,,,2,,,79,0
343185,note_on,225,0,2,,,,,,,,1,,,79,0
343195,note_on,115,0,6,,,,,,,,5,,,50,0
343195,note_on,115,0,4,,,,,,,,3,,,65,0
343195,note_on,115,0,5,,,,,,,,4,,,50,0
343200,note_on,5,0,4,,,,,,,,3,,,63,85
343200,note_on,5,0,5,,,,,,,,4,,,48,85
343200,note_on,15,0,3,,,,,,,,2,,,84,64
343200,note_on,15,0,1,,,,,,,,0,,,84,64
343200,note_on,5,0,6,,,,,,,,5,,,48,85
343200,note_on,15,0,2,,,,,,,,1,,,84,64
343260,note_on,60,0,2,,,,,,,,1,,,84,0
343260,note_on,60,0,1,,,,,,,,0,,,84,0
343260,note_on,60,0,3,,,,,,,,2,,,84,0
343425,note_on,225,0,4,,,,,,,,3,,,63,0
343425,note_on,225,0,5,,,,,,,,4,,,48,0
343425,note_on,225,0,6,,,,,,,,5,,,48,0
343440,note_on,180,0,3,,,,,,,,2,,,72,64
343440,note_on,15,0,4,,,,,,,,3,,,63,85
343440,note_on,180,0,2,,,,,,,,1,,,72,64
343440,note_on,15,0,5,,,,,,,,4,,,48,85
343440,note_on,180,0,1,,,,,,,,0,,,72,64
343440,note_on,15,0,6,,,,,,,,5,,,48,85
343500,note_on,60,0,6,,,,,,,,5,,,48,0
343500,note_on,60,0,2,,,,,,,,1,,,72,0
343500,note_on,60,0,5,,,,,,,,4,,,48,0
343500,note_on,60,0,1,,,,,,,,0,,,72,0
343500,note_on,60,0,3,,,,,,,,2,,,72,0
343500,note_on,60,0,4,,,,,,,,3,,,63,0
343680,note_on,180,0,2,,,,,,,,1,,,67,64
343680,note_on,180,0,3,,,,,,,,2,,,67,64
343680,note_on,180,0,5,,,,,,,,4,,,51,85
343680,note_on,180,0,1,,,,,,,,0,,,67,64
343680,note_on,180,0,4,,,,,,,,3,,,67,85
343680,note_on,180,0,6,,,,,,,,5,,,51,85
343740,note_on,60,0,3,,,,,,,,2,,,67,0
343740,note_on,60,0,1,,,,,,,,0,,,67,0
343740,note_on,60,0,2,,,,,,,,1,,,67,0
343795,note_on,115,0,5,,,,,,,,4,,,51,0
343795,note_on,115,0,6,,,,,,,,5,,,51,0
343795,note_on,115,0,4,,,,,,,,3,,,67,0
343800,note_on,5,0,6,,,,,,,,5,,,50,85
343800,note_on,5,0,5,,,,,,,,4,,,50,85
343800,note_on,5,0,4,,,,,,,,3,,,65,85
343915,note_on,115,0,4,,,,,,,,3,,,65,0
343915,note_on,115,0,5,,,,,,,,4,,,50,0
343915,note_on,115,0,6,,,,,,,,5,,,50,0
343920,note_on,180,0,2,,,,,,,,1,,,60,64
343920,note_on,180,0,1,,,,,,,,0,,,60,64
343920,note_on,5,0,5,,,,,,,,4,,,48,85
343920,note_on,5,0,6,,,,,,,,5,,,48,85
343920,note_on,5,0,4,,,,,,,,3,,,63,85
343920,note_on,180,0,3,,,,,,,,2,,,60,64
343980,note_on,60,0,3,,,,,,,,2,,,60,0
343980,note_on,60,0,2,,,,,,,,1,,,60,0
343980,note_on,60,0,1,,,,,,,,0,,,60,0
344145,note_on,225,0,6,,,,,,,,5,,,48,0
344145,note_on,225,0,4,,,,,,,,3,,,63,0
344145,note_on,225,0,5,,,,,,,,4,,,48,0
344160,note_on,15,0,4,,,,,,,,3,,,67,85
344160,note_on,15,0,5,,,,,,,,4,,,48,85
344160,note_on,180,0,3,,,,,,,,2,,,72,64
344160,note_on,15,0,6,,,,,,,,5,,,48,85
344160,note_on,180,0,1,,,,,,,,0,,,72,64
344160,note_on,180,0,2,,,,,,,,1,,,72,64
344220,note_on,60,0,4,,,,,,,,3,,,67,0
344220,note_on,60,0,5,,,,,,,,4,,,48,0
344220,note_on,60,0,6,,,,,,,,5,,,48,0
344275,note_on,115,0,3,,,,,,,,2,,,72,0
344275,note_on,115,0,1,,,,,,,,0,,,72,0
344275,note_on,115,0,2,,,,,,,,1,,,72,0
344280,note_on,5,0,3,,,,,,,,2,,,75,64
344280,note_on,5,0,1,,,,,,,,0,,,75,64
344280,note_on,5,0,2,,,,,,,,1,,,75,64
344395,note_on,115,0,1,,,,,,,,0,,,75,0
344395,note_on,115,0,3,,,,,,,,2,,,75,0
344395,note_on,115,0,2,,,,,,,,1,,,75,0
344400,note_on,5,0,3,,,,,,,,2,,,79,64
344400,note_on,5,0,1,,,,,,,,0,,,79,64
344400,note_on,5,0,2,,,,,,,,1,,,79,64
344400,note_on,180,0,6,,,,,,,,5,,,51,85
344400,note_on,180,0,4,,,,,,,,3,,,67,85
344400,note_on,180,0,5,,,,,,,,4,,,51,85
344515,note_on,115,0,6,,,,,,,,5,,,51,0
344515,note_on,115,0,4,,,,,,,,3,,,67,0
344515,note_on,115,0,5,,,,,,,,4,,,51,0
344520,note_on,5,0,5,,,,,,,,4,,,50,85
344520,note_on,5,0,4,,,,,,,,3,,,65,85
344520,note_on,5,0,6,,,,,,,,5,,,50,85
344625,note_on,225,0,3,,,,,,,,2,,,79,0
344625,note_on,225,0,2,,,,,,,,1,,,79,0
344625,note_on,225,0,1,,,,,,,,0,,,79,0
344635,note_on,115,0,5,,,,,,,,4,,,50,0
344635,note_on,115,0,4,,,,,,,,3,,,65,0
344635,note_on,115,0,6,,,,,,,,5,,,50,0
344640,note_on,5,0,4,,,,,,,,3,,,63,85
344640,note_on,5,0,5,,,,,,,,4,,,48,85
344640,note_on,15,0,2,,,,,,,,1,,,84,64
344640,note_on,5,0,6,,,,,,,,5,,,48,85
344640,note_on,15,0,3,,,,,,,,2,,,84,64
344640,note_on,15,0,1,,,,,,,,0,,,84,64
344700,note_on,60,0,1,,,,,,,,0,,,84,0
344700,note_on,60,0,3,,,,,,,,2,,,84,0
344700,note_on,60,0,2,,,,,,,,1,,,84,0
344865,note_on,225,0,4,,,,,,,,3,,,63,0
344865,note_on,225,0,5,,,,,,,,4,,,48,0
344865,note_on,225,0,6,,,,,,,,5,,,48,0
344880,note_on,180,0,2,,,,,,,,1,,,72,64
344880,note_on,15,0,4,,,,,,,,3,,,63,85
344880,note_on,180,0,1,,,,,,,,0,,,72,64
344880,note_on,15,0,6,,,,,,,,5,,,48,85
344880,note_on,15,0,5,,,,,,,,4,,,48,85
344880,note_on,180,0,3,,,,,,,,2,,,72,64
344940,note_on,60,0,5,,,,,,,,4,,,48,0
344940,note_on,60,0,6,,,,,,,,5,,,48,0
344940,note_on,60,0,1,,,,,,,,0,,,72,0
344940,note_on,60,0,4,,,,,,,,3,,,63,0
344940,note_on,60,0,3,,,,,,,,2,,,72,0
344940,note_on,60,0,2,,,,,,,,1,,,72,0
345120,note_on,180,0,2,,,,,,,,1,,,67,64
345120,note_on,180,0,4,,,,,,,,3,,,67,85
345120,note_on,180,0,1,,,,,,,,0,,,67,64
345120,note_on,180,0,6,,,,,,,,5,,,51,85
345120,note_on,180,0,3,,,,,,,,2,,,67,64
345120,note_on,180,0,5,,,,,,,,4,,,51,85
345180,note_on,60,0,2,,,,,,,,1,,,67,0
345180,note_on,60,0,3,,,,,,,,2,,,67,0
345180,note_on,60,0,1,,,,,,,,0,,,67,0
345235,note_on,115,0,4,,,,,,,,3,,,67,0
345235,note_on,115,0,5,,,,,,,,4,,,51,0
345235,note_on,115,0,6,,,,,,,,5,,,51,0
345240,note_on,5,0,4,,,,,,,,3,,,65,85
345240,note_on,5,0,5,,,,,,,,4,,,50,85
345240,note_on,5,0,6,,,,,,,,5,,,50,85
345355,note_on,115,0,4,,,,,,,,3,,,65,0
345355,note_on,115,0,6,,,,,,,,5,,,50,0
345355,note_on,115,0,5,,,,,,,,4,,,50,0
345360,note_on,5,0,6,,,,,,,,5,,,48,85
345360,note_on,180,0,2,,,,,,,,1,,,60,64
345360,note_on,5,0,5,,,,,,,,4,,,48,85
345360,note_on,180,0,3,,,,,,,,2,,,60,64
345360,note_on,180,0,1,,,,,,,,0,,,60,64
345360,note_on,5,0,4,,,,,,,,3,,,63,85
345420,note_on,60,0,1,,,,,,,,0,,,60,0
345420,note_on,60,0,2,,,,,,,,1,,,60,0
345420,note_on,60,0,3,,,,,,,,2,,,60,0
345585,note_on,225,0,6,,,,,,,,5,,,48,0
345585,note_on,225,0,5,,,,,,,,4,,,48,0
345585,note_on,225,0,4,,,,,,,,3,,,63,0
345600,note_on,180,0,2,,,,,,,,1,,,72,64
345600,note_on,15,0,5,,,,,,,,4,,,60,85
345600,note_on,180,0,3,,,,,,,,2,,,72,64
345600,note_on,15,0,4,,,,,,,,3,,,72,85
345600,note_on,15,0,6,,,,,,,,5,,,60,85
345600,note_on,180,0,1,,,,,,,,0,,,72,64
345825,note_on,225,0,3,,,,,,,,2,,,72,0
345825,note_on,225,0,2,,,,,,,,1,,,72,0
345825,note_on,225,0,4,,,,,,,,3,,,72,0
345825,note_on,225,0,6,,,,,,,,5,,,60,0
345825,note_on,225,0,1,,,,,,,,0,,,72,0
345825,note_on,225,0,5,,,,,,,,4,,,60,0
345840,note_on,15,0,5,,,,,,,,4,,,58,85
345840,note_on,15,0,4,,,,,,,,3,,,70,85
345840,note_on,15,0,6,,,,,,,,5,,,58,85
345840,note_on,15,0,3,,,,,,,,2,,,70,64
345840,note_on,15,0,2,,,,,,,,1,,,70,64
345840,note_on,15,0,1,,,,,,,,0,,,70,64
345955,note_on,115,0,4,,,,,,,,3,,,70,0
345955,note_on,115,0,1,,,,,,,,0,,,70,0
345955,note_on,115,0,3,,,,,,,,2,,,70,0
345955,note_on,115,0,5,,,,,,,,4,,,58,0
345955,note_on,115,0,6,,,,,,,,5,,,58,0
345955,note_on,115,0,2,,,,,,,,1,,,70,0
345960,note_on,5,0,1,,,,,,,,0,,,68,64
345960,note_on,5,0,4,,,,,,,,3,,,68,85
345960,note_on,5,0,3,,,,,,,,2,,,68,64
345960,note_on,5,0,2,,,,,,,,1,,,68,64
345960,note_on,5,0,5,,,,,,,,4,,,56,85
345960,note_on,5,0,6,,,,,,,,5,,,56,85
346075,note_on,115,0,3,,,,,,,,2,,,68,0
346075,note_on,115,0,2,,,,,,,,1,,,68,0
346075,note_on,115,0,6,,,,,,,,5,,,56,0
346075,note_on,115,0,5,,,,,,,,4,,,56,0
346075,note_on,115,0,4,,,,,,,,3,,,68,0
346075,note_on,115,0,1,,,,,,,,0,,,68,0
346080,note_on,5,0,4,,,,,,,,3,,,67,85
346080,note_on,5,0,3,,,,,,,,2,,,67,64
346080,note_on,5,0,5,,,,,,,,4,,,55,85
346080,note_on,5,0,2,,,,,,,,1,,,67,64
346080,note_on,5,0,6,,,,,,,,5,,,55,85
346080,note_on,5,0,1,,,,,,,,0,,,67,64
346195,note_on,115,0,4,,,,,,,,3,,,67,0
346195,note_on,115,0,2,,,,,,,,1,,,67,0
346195,note_on,115,0,1,,,,,,,,0,,,67,0
346195,note_on,115,0,5,,,,,,,,4,,,55,0
346195,note_on,115,0,3,,,,,,,,2,,,67,0
346195,note_on,115,0,6,,,,,,,,5,,,55,0
346200,note_on,5,0,4,,,,,,,,3,,,65,85
346200,note_on,5,0,5,,,,,,,,4,,,53,85
346200,note_on,5,0,2,,,,,,,,1,,,65,64
346200,note_on,5,0,1,,,,,,,,0,,,65,64
346200,note_on,5,0,6,,,,,,,,5,,,53,85
346200,note_on,5,0,3,,,,,,,,2,,,65,64
346315,note_on,115,0,3,,,,,,,,2,,,65,0
346315,note_on,115,0,4,,,,,,,,3,,,65,0
346315,note_on,115,0,5,,,,,,,,4,,,53,0
346315,note_on,115,0,2,,,,,,,,1,,,65,0
346315,note_on,115,0,1,,,,,,,,0,,,65,0
346315,note_on,115,0,6,,,,,,,,5,,,53,0
346320,note_on,5,0,5,,,,,,,,4,,,51,85
346320,note_on,5,0,1,,,,,,,,0,,,63,64
346320,note_on,5,0,3,,,,,,,,2,,,63,64
346320,note_on,5,0,6,,,,,,,,5,,,51,85
346320,note_on,5,0,2,,,,,,,,1,,,63,64
346320,note_on,5,0,4,,,,,,,,3,,,63,85
346380,note_on,60,0,1,,,,,,,,0,,,63,0
346380,note_on,60,0,6,,,,,,,,5,,,51,0
346380,note_on,60,0,4,,,,,,,,3,,,63,0
346380,note_on,60,0,5,,,,,,,,4,,,51,0
346380,note_on,60,0,3,,,,,,,,2,,,63,0
346380,note_on,60,0,2,,,,,,,,1,,,63,0
346560,note_on,180,0,1,,,,,,,,0,,,62,64
346560,note_on,180,0,6,,,,,,,,5,,,50,85
346560,note_on,180,0,4,,,,,,,,3,,,62,85
346560,note_on,180,0,5,,,,,,,,4,,,50,85
346560,note_on,180,0,2,,,,,,,,1,,,62,64
346560,note_on,180,0,3,,,,,,,,2,,,62,64
346620,note_on,60,0,1,,,,,,,,0,,,62,0
346620,note_on,60,0,2,,,,,,,,1,,,62,0
346620,note_on,60,0,3,,,,,,,,2,,,62,0
346620,note_on,60,0,6,,,,,,,,5,,,50,0
346620,note_on,60,0,5,,,,,,,,4,,,50,0
346620,note_on,60,0,4,,,,,,,,3,,,62,0
346800,note_on,180,0,1,,,,,,,,0,,,60,64
346800,note_on,180,0,3,,,,,,,,2,,,60,64
346800,note_on,180,0,6,,,,,,,,5,,,48,85
346800,note_on,180,0,5,,,,,,,,4,,,48,85
346800,note_on,180,0,2,,,,,,,,1,,,60,64
346800,note_on,180,0,4,,,,,,,,3,,,60,85
346860,note_on,60,0,2,,,,,,,,1,,,60,0
346860,note_on,60,0,5,,,,,,,,4,,,48,0
346860,note_on,60,0,3,,,,,,,,2,,,60,0
346860,note_on,60,0,4,,,,,,,,3,,,60,0
346860,note_on,60,0,1,,,,,,,,0,,,60,0
346860,note_on,60,0,6,,,,,,,,5,,,48,0
347040,note_on,180,0,2,,,,,,,,1,,,72,64
347040,note_on,180,0,3,,,,,,,,2,,,72,64
347040,note_on,180,0,5,,,,,,,,4,,,48,85
347040,note_on,180,0,6,,,,,,,,5,,,48,85
347040,note_on,180,0,1,,,,,,,,0,,,72,64
347040,note_on,180,0,4,,,,,,,,3,,,67,85
347100,note_on,60,0,4,,,,,,,,3,,,67,0
347100,note_on,60,0,5,,,,,,,,4,,,48,0
347100,note_on,60,0,6,,,,,,,,5,,,48,0
347155,note_on,115,0,2,,,,,,,,1,,,72,0
347155,note_on,115,0,1,,,,,,,,0,,,72,0
347155,note_on,115,0,3,,,,,,,,2,,,72,0
347160,note_on,5,0,1,,,,,,,,0,,,75,64
347160,note_on,5,0,2,,,,,,,,1,,,75,64
347160,note_on,5,0,3,,,,,,,,2,,,75,64
347275,note_on,115,0,3,,,,,,,,2,,,75,0
347275,note_on,115,0,1,,,,,,,,0,,,75,0
347275,note_on,115,0,2,,,,,,,,1,,,75,0
347280,note_on,180,0,5,,,,,,,,4,,,51,85
347280,note_on,5,0,3,,,,,,,,2,,,79,64
347280,note_on,5,0,1,,,,,,,,0,,,79,64
347280,note_on,180,0,6,,,,,,,,5,,,51,85
347280,note_on,180,0,4,,,,,,,,3,,,67,85
347280,note_on,5,0,2,,,,,,,,1,,,79,64
347395,note_on,115,0,4,,,,,,,,3,,,67,0
347395,note_on,115,0,5,,,,,,,,4,,,51,0
347395,note_on,115,0,6,,,,,,,,5,,,51,0
347400,note_on,5,0,5,,,,,,,,4,,,50,85
347400,note_on,5,0,4,,,,,,,,3,,,65,85
347400,note_on,5,0,6,,,,,,,,5,,,50,85
347505,note_on,225,0,3,,,,,,,,2,,,79,0
347505,note_on,225,0,1,,,,,,,,0,,,79,0
347505,note_on,225,0,2,,,,,,,,1,,,79,0
347515,note_on,115,0,6,,,,,,,,5,,,50,0
347515,note_on,115,0,5,,,,,,,,4,,,50,0
347515,note_on,115,0,4,,,,,,,,3,,,65,0
347520,note_on,5,0,6,,,,,,,,5,,,48,85
347520,note_on,15,0,3,,,,,,,,2,,,84,64
347520,note_on,15,0,1,,,,,,,,0,,,84,64
347520,note_on,5,0,5,,,,,,,,4,,,48,85
347520,note_on,5,0,4,,,,,,,,3,,,63,85
347520,note_on,15,0,2,,,,,,,,1,,,84,64
347580,note_on,60,0,3,,,,,,,,2,,,84,0
347580,note_on,60,0,1,,,,,,,,0,,,84,0
347580,note_on,60,0,2,,,,,,,,1,,,84,0
347745,note_on,225,0,6,,,,,,,,5,,,48,0
347745,note_on,225,0,5,,,,,,,,4,,,48,0
347745,note_on,225,0,4,,,,,,,,3,,,63,0
347760,note_on,15,0,4,,,,,,,,3,,,63,85
347760,note_on,180,0,2,,,,,,,,1,,,72,64
347760,note_on,180,0,1,,,,,,,,0,,,72,64
347760,note_on,15,0,6,,,,,,,,5,,,48,85
347760,note_on,180,0,3,,,,,,,,2,,,72,64
347760,note_on,15,0,5,,,,,,,,4,,,48,85
347820,note_on,60,0,6,,,,,,,,5,,,48,0
347820,note_on,60,0,3,,,,,,,,2,,,72,0
347820,note_on,60,0,2,,,,,,,,1,,,72,0
347820,note_on,60,0,1,,,,,,,,0,,,72,0
347820,note_on,60,0,5,,,,,,,,4,,,48,0
347820,note_on,60,0,4,,,,,,,,3,,,63,0
348000,note_on,180,0,4,,,,,,,,3,,,67,85
348000,note_on,180,0,3,,,,,,,,2,,,67,64
348000,note_on,180,0,2,,,,,,,,1,,,67,64
348000,note_on,180,0,1,,,,,,,,0,,,67,64
348000,note_on,180,0,6,,,,,,,,5,,,51,85
348000,note_on,180,0,5,,,,,,,,4,,,51,85
348030,note_on,30,0,5,,,,,,,,4,,,51,0
348030,note_on,30,0,4,,,,,,,,3,,,67,0
348030,note_on,30,0,6,,,,,,,,5,,,51,0
348060,note_on,60,0,1,,,,,,,,0,,,67,0
348060,note_on,60,0,3,,,,,,,,2,,,67,0
348060,note_on,60,0,2,,,,,,,,1,,,67,0
348120,note_on,90,0,6,,,,,,,,5,,,50,85
348120,note_on,90,0,4,,,,,,,,3,,,65,85
348120,note_on,90,0,5,,,,,,,,4,,,50,85
348150,note_on,30,0,4,,,,,,,,3,,,65,0
348150,note_on,30,0,5,,,,,,,,4,,,50,0
348150,note_on,30,0,6,,,,,,,,5,,,50,0
348240,note_on,90,0,6,,,,,,,,5,,,48,85
348240,note_on,180,0,3,,,,,,,,2,,,60,64
348240,note_on,90,0,4,,,,,,,,3,,,63,85
348240,note_on,180,0,2,,,,,,,,1,,,60,64
348240,note_on,180,0,1,,,,,,,,0,,,60,64
348240,note_on,90,0,5,,,,,,,,4,,,48,85
348300,note_on,60,0,6,,,,,,,,5,,,48,0
348300,note_on,60,0,1,,,,,,,,0,,,60,0
348300,note_on,60,0,2,,,,,,,,1,,,60,0
348300,note_on,60,0,4,,,,,,,,3,,,63,0
348300,note_on,60,0,5,,,,,,,,4,,,48,0
348300,note_on,60,0,3,,,,,,,,2,,,60,0
348480,note_on,180,0,1,,,,,,,,0,,,72,64
348480,note_on,180,0,5,,,,,,,,4,,,48,85
348480,note_on,180,0,4,,,,,,,,3,,,67,85
348480,note_on,180,0,3,,,,,,,,2,,,72,64
348480,note_on,180,0,2,,,,,,,,1,,,72,64
348480,note_on,180,0,6,,,,,,,,5,,,48,85
348595,note_on,115,0,3,,,,,,,,2,,,72,0
348595,note_on,115,0,1,,,,,,,,0,,,72,0
348595,note_on,115,0,2,,,,,,,,1,,,72,0
348600,note_on,5,0,1,,,,,,,,0,,,75,64
348600,note_on,5,0,2,,,,,,,,1,,,75,64
348600,note_on,5,0,3,,,,,,,,2,,,75,64
348705,note_on,225,0,4,,,,,,,,3,,,67,0
348705,note_on,225,0,5,,,,,,,,4,,,48,0
348705,note_on,225,0,6,,,,,,,,5,,,48,0
348715,note_on,115,0,1,,,,,,,,0,,,75,0
348715,note_on,115,0,3,,,,,,,,2,,,75,0
348715,note_on,115,0,2,,,,,,,,1,,,75,0
348720,note_on,15,0,6,,,,,,,,5,,,51,85
348720,note_on,5,0,3,,,,,,,,2,,,79,64
348720,note_on,15,0,4,,,,,,,,3,,,67,85
348720,note_on,15,0,5,,,,,,,,4,,,51,85
348720,note_on,5,0,2,,,,,,,,1,,,79,64
348720,note_on,5,0,1,,,,,,,,0,,,79,64
348835,note_on,115,0,4,,,,,,,,3,,,67,0
348835,note_on,115,0,6,,,,,,,,5,,,51,0
348835,note_on,115,0,5,,,,,,,,4,,,51,0
348840,note_on,5,0,5,,,,,,,,4,,,50,85
348840,note_on,5,0,4,,,,,,,,3,,,65,85
348840,note_on,5,0,6,,,,,,,,5,,,50,85
348945,note_on,225,0,3,,,,,,,,2,,,79,0
348945,note_on,225,0,1,,,,,,,,0,,,79,0
348945,note_on,225,0,2,,,,,,,,1,,,79,0
348955,note_on,115,0,5,,,,,,,,4,,,50,0
348955,note_on,115,0,6,,,,,,,,5,,,50,0
348955,note_on,115,0,4,,,,,,,,3,,,65,0
348960,note_on,5,0,4,,,,,,,,3,,,63,85
348960,note_on,15,0,1,,,,,,,,0,,,84,64
348960,note_on,15,0,3,,,,,,,,2,,,84,64
348960,note_on,5,0,6,,,,,,,,5,,,48,85
348960,note_on,15,0,2,,,,,,,,1,,,84,64
348960,note_on,5,0,5,,,,,,,,4,,,48,85
349020,note_on,60,0,4,,,,,,,,3,,,63,0
349020,note_on,60,0,3,,,,,,,,2,,,84,0
349020,note_on,60,0,6,,,,,,,,5,,,48,0
349020,note_on,60,0,2,,,,,,,,1,,,84,0
349020,note_on,60,0,5,,,,,,,,4,,,48,0
349020,note_on,60,0,1,,,,,,,,0,,,84,0
349200,note_on,180,0,6,,,,,,,,5,,,48,85
349200,note_on,180,0,2,,,,,,,,1,,,72,64
349200,note_on,180,0,3,,,,,,,,2,,,72,64
349200,note_on,180,0,4,,,,,,,,3,,,63,85
349200,note_on,180,0,5,,,,,,,,4,,,48,85
349200,note_on,180,0,1,,,,,,,,0,,,72,64
349260,note_on,60,0,2,,,,,,,,1,,,72,0
349260,note_on,60,0,5,,,,,,,,4,,,48,0
349260,note_on,60,0,1,,,,,,,,0,,,72,0
349260,note_on,60,0,4,,,,,,,,3,,,63,0
349260,note_on,60,0,6,,,,,,,,5,,,48,0
349260,note_on,60,0,3,,,,,,,,2,,,72,0
349440,note_on,180,0,6,,,,,,,,5,,,51,85
349440,note_on,180,0,1,,,,,,,,0,,,67,64
349440,note_on,180,0,5,,,,,,,,4,,,51,85
349440,note_on,180,0,2,,,,,,,,1,,,67,64
349440,note_on,180,0,3,,,,,,,,2,,,67,64
349440,note_on,180,0,4,,,,,,,,3,,,67,85
349500,note_on,60,0,1,,,,,,,,0,,,67,0
349500,note_on,60,0,2,,,,,,,,1,,,67,0
349500,note_on,60,0,3,,,,,,,,2,,,67,0
349555,note_on,115,0,6,,,,,,,,5,,,51,0
349555,note_on,115,0,5,,,,,,,,4,,,51,0
349555,note_on,115,0,4,,,,,,,,3,,,67,0
349560,note_on,5,0,5,,,,,,,,4,,,50,85
349560,note_on,5,0,6,,,,,,,,5,,,50,85
349560,note_on,5,0,4,,,,,,,,3,,,65,85
349675,note_on,115,0,5,,,,,,,,4,,,50,0
349675,note_on,115,0,6,,,,,,,,5,,,50,0
349675,note_on,115,0,4,,,,,,,,3,,,65,0
349680,note_on,5,0,4,,,,,,,,3,,,63,85
349680,note_on,180,0,2,,,,,,,,1,,,60,64
349680,note_on,5,0,6,,,,,,,,5,,,48,85
349680,note_on,180,0,3,,,,,,,,2,,,60,64
349680,note_on,180,0,1,,,,,,,,0,,,60,64
349680,note_on,5,0,5,,,,,,,,4,,,48,85
349740,note_on,60,0,2,,,,,,,,1,,,60,0
349740,note_on,60,0,3,,,,,,,,2,,,60,0
349740,note_on,60,0,1,,,,,,,,0,,,60,0
349905,note_on,225,0,4,,,,,,,,3,,,63,0
349905,note_on,225,0,5,,,,,,,,4,,,48,0
349905,note_on,225,0,6,,,,,,,,5,,,48,0
349920,note_on,15,0,5,,,,,,,,4,,,55,85
349920,note_on,180,0,3,,,,,,,,2,,,67,64
349920,note_on,15,0,6,,,,,,,,5,,,55,85
349920,note_on,180,0,2,,,,,,,,1,,,67,64
349920,note_on,15,0,4,,,,,,,,3,,,67,85
349920,note_on,180,0,1,,,,,,,,0,,,67,64
350145,note_on,225,0,6,,,,,,,,5,,,55,0
350145,note_on,225,0,1,,,,,,,,0,,,67,0
350145,note_on,225,0,4,,,,,,,,3,,,67,0
350145,note_on,225,0,2,,,,,,,,1,,,67,0
350145,note_on,225,0,5,,,,,,,,4,,,55,0
350145,note_on,225,0,3,,,,,,,,2,,,67,0
350160,note_on,15,0,6,,,,,,,,5,,,53,85
350160,note_on,15,0,5,,,,,,,,4,,,53,85
350160,note_on,15,0,4,,,,,,,,3,,,65,85
350160,note_on,15,0,3,,,,,,,,2,,,65,64
350160,note_on,15,0,1,,,,,,,,0,,,65,64
350160,note_on,15,0,2,,,,,,,,1,,,65,64
350275,note_on,115,0,2,,,,,,,,1,,,65,0
350275,note_on,115,0,5,,,,,,,,4,,,53,0
350275,note_on,115,0,6,,,,,,,,5,,,53,0
350275,note_on,115,0,4,,,,,,,,3,,,65,0
350275,note_on,115,0,3,,,,,,,,2,,,65,0
350275,note_on,115,0,1,,,,,,,,0,,,65,0
350280,note_on,5,0,5,,,,,,,,4,,,51,85
350280,note_on,5,0,2,,,,,,,,1,,,63,64
350280,note_on,5,0,3,,,,,,,,2,,,63,64
350280,note_on,5,0,1,,,,,,,,0,,,63,64
350280,note_on,5,0,4,,,,,,,,3,,,63,85
350280,note_on,5,0,6,,,,,,,,5,,,51,85
350395,note_on,115,0,1,,,,,,,,0,,,63,0
350395,note_on,115,0,2,,,,,,,,1,,,63,0
350395,note_on,115,0,3,,,,,,,,2,,,63,0
350395,note_on,115,0,5,,,,,,,,4,,,51,0
350395,note_on,115,0,4,,,,,,,,3,,,63,0
350395,note_on,115,0,6,,,,,,,,5,,,51,0
350400,note_on,5,0,2,,,,,,,,1,,,62,64
350400,note_on,5,0,3,,,,,,,,2,,,62,64
350400,note_on,5,0,6,,,,,,,,5,,,50,85
350400,note_on,5,0,5,,,,,,,,4,,,50,85
350400,note_on,5,0,4,,,,,,,,3,,,62,85
350400,note_on,5,0,1,,,,,,,,0,,,62,64
350515,note_on,115,0,2,,,,,,,,1,,,62,0
350515,note_on,115,0,4,,,,,,,,3,,,62,0
350515,note_on,115,0,6,,,,,,,,5,,,50,0
350515,note_on,115,0,1,,,,,,,,0,,,62,0
350515,note_on,115,0,5,,,,,,,,4,,,50,0
350515,note_on,115,0,3,,,,,,,,2,,,62,0
350520,note_on,5,0,6,,,,,,,,5,,,48,85
350520,note_on,5,0,2,,,,,,,,1,,,60,64
350520,note_on,5,0,1,,,,,,,,0,,,60,64
350520,note_on,5,0,5,,,,,,,,4,,,48,85
350520,note_on,5,0,3,,,,,,,,2,,,60,64
350520,note_on,5,0,4,,,,,,,,3,,,60,85
350635,note_on,115,0,1,,,,,,,,0,,,60,0
350635,note_on,115,0,3,,,,,,,,2,,,60,0
350635,note_on,115,0,4,,,,,,,,3,,,60,0
350635,note_on,115,0,6,,,,,,,,5,,,48,0
350635,note_on,115,0,5,,,,,,,,4,,,48,0
350635,note_on,115,0,2,,,,,,,,1,,,60,0
350640,note_on,5,0,3,,,,,,,,2,,,55,64
350640,note_on,5,0,5,,,,,,,,4,,,43,85
350640,note_on,5,0,1,,,,,,,,0,,,55,64
350640,note_on,5,0,4,,,,,,,,3,,,55,85
350640,note_on,5,0,6,,,,,,,,5,,,43,85
350640,note_on,5,0,2,,,,,,,,1,,,55,64
351085,note_on,445,0,6,,,,,,,,5,,,43,0
351085,note_on,445,0,5,,,,,,,,4,,,43,0
351085,note_on,445,0,1,,,,,,,,0,,,55,0
351085,note_on,445,0,4,,,,,,,,3,,,55,0
351085,note_on,445,0,2,,,,,,,,1,,,55,0
351085,note_on,445,0,3,,,,,,,,2,,,55,0
351360,note_on,275,0,1,,,,,,,,0,,,75,49
351360,note_on,275,0,3,,,,,,,,2,,,75,49
351360,note_on,275,0,2,,,,,,,,1,,,75,49
351360,note_on,275,0,4,,,,,,,,3,,,60,64
351475,note_on,115,0,1,,,,,,,,0,,,75,0
351475,note_on,115,0,3,,,,,,,,2,,,75,0
351475,note_on,115,0,2,,,,,,,,1,,,75,0
351480,note_on,5,0,2,,,,,,,,1,,,77,49
351480,note_on,5,0,3,,,,,,,,2,,,77,49
351480,note_on,5,0,1,,,,,,,,0,,,77,49
351595,note_on,115,0,2,,,,,,,,1,,,77,0
351595,note_on,115,0,3,,,,,,,,2,,,77,0
351595,note_on,115,0,1,,,,,,,,0,,,77,0
351600,note_on,5,0,1,,,,,,,,0,,,79,49
351600,note_on,5,0,3,,,,,,,,2,,,79,49
351600,note_on,5,0,2,,,,,,,,1,,,79,49
351805,note_on,445,0,4,,,,,,,,3,,,60,0
351825,note_on,225,0,3,,,,,,,,2,,,79,0
351825,note_on,225,0,1,,,,,,,,0,,,79,0
351825,note_on,225,0,2,,,,,,,,1,,,79,0
351840,note_on,15,0,1,,,,,,,,0,,,77,49
351840,note_on,35,0,4,,,,,,,,3,,,55,64
351840,note_on,15,0,3,,,,,,,,2,,,77,49
351840,note_on,15,0,2,,,,,,,,1,,,77,49
351900,note_on,60,0,1,,,,,,,,0,,,77,0
351900,note_on,60,0,3,,,,,,,,2,,,77,0
351900,note_on,60,0,2,,,,,,,,1,,,77,0
352065,note_on,225,0,4,,,,,,,,3,,,55,0
352080,note_on,180,0,1,,,,,,,,0,,,75,49
352080,note_on,180,0,3,,,,,,,,2,,,75,49
352080,note_on,180,0,2,,,,,,,,1,,,75,49
352080,note_on,15,0,4,,,,,,,,3,,,60,64
352140,note_on,60,0,1,,,,,,,,0,,,75,0
352140,note_on,60,0,2,,,,,,,,1,,,75,0
352140,note_on,60,0,3,,,,,,,,2,,,75,0
352320,note_on,180,0,3,,,,,,,,2,,,74,49
352320,note_on,180,0,2,,,,,,,,1,,,74,49
352320,note_on,180,0,1,,,,,,,,0,,,74,49
352380,note_on,60,0,3,,,,,,,,2,,,74,0
352380,note_on,60,0,2,,,,,,,,1,,,74,0
352380,note_on,60,0,1,,,,,,,,0,,,74,0
352525,note_on,445,0,4,,,,,,,,3,,,60,0
352560,note_on,35,0,4,,,,,,,,3,,,48,64
352560,note_on,180,0,2,,,,,,,,1,,,75,49
352560,note_on,180,0,1,,,,,,,,0,,,75,49
352560,note_on,180,0,3,,,,,,,,2,,,75,49
352620,note_on,60,0,2,,,,,,,,1,,,75,0
352620,note_on,60,0,1,,,,,,,,0,,,75,0
352620,note_on,60,0,3,,,,,,,,2,,,75,0
352785,note_on,225,0,4,,,,,,,,3,,,48,0
352800,note_on,180,0,3,,,,,,,,2,,,75,49
352800,note_on,180,0,1,,,,,,,,0,,,75,49
352800,note_on,15,0,4,,,,,,,,3,,,60,64
352800,note_on,180,0,2,,,,,,,,1,,,75,49
352915,note_on,115,0,3,,,,,,,,2,,,75,0
352915,note_on,115,0,1,,,,,,,,0,,,75,0
352915,note_on,115,0,2,,,,,,,,1,,,75,0
352920,note_on,5,0,2,,,,,,,,1,,,77,49
352920,note_on,5,0,1,,,,,,,,0,,,77,49
352920,note_on,5,0,3,,,,,,,,2,,,77,49
353035,note_on,115,0,2,,,,,,,,1,,,77,0
353035,note_on,115,0,1,,,,,,,,0,,,77,0
353035,note_on,115,0,3,,,,,,,,2,,,77,0
353040,note_on,5,0,1,,,,,,,,0,,,79,49
353040,note_on,5,0,3,,,,,,,,2,,,79,49
353040,note_on,5,0,2,,,,,,,,1,,,79,49
353245,note_on,445,0,4,,,,,,,,3,,,60,0
353265,note_on,225,0,1,,,,,,,,0,,,79,0
353265,note_on,225,0,3,,,,,,,,2,,,79,0
353265,note_on,225,0,2,,,,,,,,1,,,79,0
353280,note_on,35,0,4,,,,,,,,3,,,55,64
353280,note_on,15,0,1,,,,,,,,0,,,77,49
353280,note_on,15,0,2,,,,,,,,1,,,77,49
353280,note_on,15,0,3,,,,,,,,2,,,77,49
353340,note_on,60,0,2,,,,,,,,1,,,77,0
353340,note_on,60,0,3,,,,,,,,2,,,77,0
353340,note_on,60,0,1,,,,,,,,0,,,77,0
353505,note_on,225,0,4,,,,,,,,3,,,55,0
353520,note_on,180,0,2,,,,,,,,1,,,75,49
353520,note_on,180,0,3,,,,,,,,2,,,75,49
353520,note_on,180,0,1,,,,,,,,0,,,75,49
353520,note_on,15,0,4,,,,,,,,3,,,60,64
353580,note_on,60,0,3,,,,,,,,2,,,75,0
353580,note_on,60,0,2,,,,,,,,1,,,75,0
353580,note_on,60,0,1,,,,,,,,0,,,75,0
353760,note_on,180,0,3,,,,,,,,2,,,74,49
353760,note_on,180,0,2,,,,,,,,1,,,74,49
353760,note_on,180,0,1,,,,,,,,0,,,74,49
353820,note_on,60,0,2,,,,,,,,1,,,74,0
353820,note_on,60,0,3,,,,,,,,2,,,74,0
353820,note_on,60,0,1,,,,,,,,0,,,74,0
353965,note_on,445,0,4,,,,,,,,3,,,60,0
354000,note_on,35,0,4,,,,,,,,3,,,48,64
354000,note_on,180,0,2,,,,,,,,1,,,75,49
354000,note_on,180,0,1,,,,,,,,0,,,75,49
354000,note_on,180,0,3,,,,,,,,2,,,75,49
354060,note_on,60,0,1,,,,,,,,0,,,75,0
354060,note_on,60,0,2,,,,,,,,1,,,75,0
354060,note_on,60,0,3,,,,,,,,2,,,75,0
354225,note_on,225,0,4,,,,,,,,3,,,48,0
354240,note_on,180,0,1,,,,,,,,0,,,75,49
354240,note_on,3155,0,5,,,,,,,,4,,,48,64
354240,note_on,180,0,2,,,,,,,,1,,,75,49
354240,note_on,15,0,4,,,,,,,,3,,,60,64
354240,note_on,180,0,3,,,,,,,,2,,,75,49
354240,note_on,3155,0,6,,,,,,,,5,,,48,64
354300,note_on,60,0,2,,,,,,,,1,,,75,0
354300,note_on,60,0,3,,,,,,,,2,,,75,0
354300,note_on,60,0,1,,,,,,,,0,,,75,0
354300,note_on,60,0,5,,,,,,,,4,,,48,0
354300,note_on,60,0,4,,,,,,,,3,,,60,0
354300,note_on,60,0,6,,,,,,,,5,,,48,0
354480,note_on,180,0,4,,,,,,,,3,,,53,64
354480,note_on,180,0,5,,,,,,,,4,,,41,64
354480,note_on,180,0,1,,,,,,,,0,,,77,49
354480,note_on,180,0,3,,,,,,,,2,,,77,49
354480,note_on,180,0,2,,,,,,,,1,,,77,49
354480,note_on,180,0,6,,,,,,,,5,,,41,64
354540,note_on,60,0,6,,,,,,,,5,,,41,0
354540,note_on,60,0,5,,,,,,,,4,,,41,0
354540,note_on,60,0,3,,,,,,,,2,,,77,0
354540,note_on,60,0,2,,,,,,,,1,,,77,0
354540,note_on,60,0,1,,,,,,,,0,,,77,0
354540,note_on,60,0,4,,,,,,,,3,,,53,0
354720,note_on,180,0,6,,,,,,,,5,,,43,64
354720,note_on,180,0,3,,,,,,,,2,,,74,49
354720,note_on,180,0,2,,,,,,,,1,,,74,49
354720,note_on,180,0,5,,,,,,,,4,,,43,64
354720,note_on,180,0,1,,,,,,,,0,,,74,49
354720,note_on,180,0,4,,,,,,,,3,,,55,64
354780,note_on,60,0,2,,,,,,,,1,,,74,0
354780,note_on,60,0,4,,,,,,,,3,,,55,0
354780,note_on,60,0,6,,,,,,,,5,,,43,0
354780,note_on,60,0,3,,,,,,,,2,,,74,0
354780,note_on,60,0,5,,,,,,,,4,,,43,0
354780,note_on,60,0,1,,,,,,,,0,,,74,0
354960,note_on,180,0,5,,,,,,,,4,,,60,64
354960,note_on,180,0,2,,,,,,,,1,,,72,49
354960,note_on,180,0,6,,,,,,,,5,,,60,64
354960,note_on,180,0,4,,,,,,,,3,,,60,64
354960,note_on,180,0,3,,,,,,,,2,,,72,49
354960,note_on,180,0,1,,,,,,,,0,,,72,106
355121,note_on,161,0,1,,,,,,,,0,,,72,0
355185,note_on,225,0,6,,,,,,,,5,,,60,0
355185,note_on,225,0,5,,,,,,,,4,,,60,0
355200,note_on,79,0,1,,,,,,,,0,,,74,106
355200,note_on,15,0,5,,,,,,,,4,,,51,64
355200,note_on,15,0,6,,,,,,,,5,,,51,64
355260,note_on,0,0,1,,,,,,,,0,,,72,106
355260,note_on,60,0,1,,,,,,,,0,,,74,0
355320,note_on,60,0,1,,,,,,,,0,,,72,0
355320,note_on,0,0,1,,,,,,,,0,,,74,106
355380,note_on,60,0,1,,,,,,,,0,,,74,0
355380,note_on,0,0,1,,,,,,,,0,,,72,106
355405,note_on,445,0,2,,,,,,,,1,,,72,0
355405,note_on,445,0,3,,,,,,,,2,,,72,0
355405,note_on,445,0,4,,,,,,,,3,,,60,0
355425,note_on,225,0,6,,,,,,,,5,,,51,0
355425,note_on,225,0,5,,,,,,,,4,,,51,0
355440,note_on,15,0,5,,,,,,,,4,,,48,64
355440,note_on,0,0,1,,,,,,,,0,,,74,106
355440,note_on,15,0,6,,,,,,,,5,,,48,64
355440,note_on,60,0,1,,,,,,,,0,,,72,0
355500,note_on,0,0,1,,,,,,,,0,,,72,106
355500,note_on,60,0,1,,,,,,,,0,,,74,0
355560,note_on,0,0,1,,,,,,,,0,,,71,106
355560,note_on,60,0,1,,,,,,,,0,,,72,0
355620,note_on,60,0,1,,,,,,,,0,,,71,0
355620,note_on,0,0,1,,,,,,,,0,,,72,106
355665,note_on,225,0,6,,,,,,,,5,,,48,0
355665,note_on,225,0,5,,,,,,,,4,,,48,0
355680,note_on,15,0,5,,,,,,,,4,,,55,64
355680,note_on,15,0,6,,,,,,,,5,,,55,64
355680,note_on,0,0,1,,,,,,,,0,,,74,106
355680,note_on,60,0,1,,,,,,,,0,,,72,0
355845,note_on,165,0,1,,,,,,,,0,,,74,0
355905,note_on,225,0,5,,,,,,,,4,,,55,0
355905,note_on,225,0,6,,,,,,,,5,,,55,0
355920,note_on,75,0,1,,,,,,,,0,,,75,106
355920,note_on,15,0,5,,,,,,,,4,,,47,64
355920,note_on,15,0,6,,,,,,,,5,,,47,64
355980,note_on,0,0,1,,,,,,,,0,,,74,106
355980,note_on,60,0,1,,,,,,,,0,,,75,0
356040,note_on,0,0,1,,,,,,,,0,,,75,106
356040,note_on,60,0,1,,,,,,,,0,,,74,0
356100,note_on,60,0,1,,,,,,,,0,,,75,0
356100,note_on,0,0,1,,,,,,,,0,,,74,106
356145,note_on,225,0,5,,,,,,,,4,,,47,0
356145,note_on,225,0,6,,,,,,,,5,,,47,0
356160,note_on,15,0,6,,,,,,,,5,,,43,64
356160,note_on,15,0,5,,,,,,,,4,,,43,64
356160,note_on,60,0,1,,,,,,,,0,,,74,0
356160,note_on,0,0,1,,,,,,,,0,,,75,106
356220,note_on,0,0,1,,,,,,,,0,,,74,106
356220,note_on,60,0,1,,,,,,,,0,,,75,0
356280,note_on,0,0,1,,,,,,,,0,,,72,106
356280,note_on,60,0,1,,,,,,,,0,,,74,0
356340,note_on,0,0,1,,,,,,,,0,,,74,106
356340,note_on,60,0,1,,,,,,,,0,,,72,0
356385,note_on,225,0,5,,,,,,,,4,,,43,0
356385,note_on,225,0,6,,,,,,,,5,,,43,0
356400,note_on,15,0,6,,,,,,,,5,,,60,64
356400,note_on,15,0,5,,,,,,,,4,,,60,64
356400,note_on,60,0,1,,,,,,,,0,,,74,0
356400,note_on,0,0,1,,,,,,,,0,,,75,106
356569,note_on,169,0,1,,,,,,,,0,,,75,0
356625,note_on,225,0,5,,,,,,,,4,,,60,0
356625,note_on,225,0,6,,,,,,,,5,,,60,0
356640,note_on,15,0,6,,,,,,,,5,,,51,64
356640,note_on,15,0,5,,,,,,,,4,,,51,64
356640,note_on,71,0,1,,,,,,,,0,,,77,106
356700,note_on,60,0,1,,,,,,,,0,,,77,0
356700,note_on,0,0,1,,,,,,,,0,,,75,106
356760,note_on,60,0,1,,,,,,,,0,,,75,0
356760,note_on,0,0,1,,,,,,,,0,,,77,106
356820,note_on,60,0,1,,,,,,,,0,,,77,0
356820,note_on,0,0,1,,,,,,,,0,,,75,106
356865,note_on,225,0,6,,,,,,,,5,,,51,0
356865,note_on,225,0,5,,,,,,,,4,,,51,0
356880,note_on,60,0,1,,,,,,,,0,,,75,0
356880,note_on,0,0,1,,,,,,,,0,,,77,106
356880,note_on,15,0,6,,,,,,,,5,,,48,64
356880,note_on,15,0,5,,,,,,,,4,,,48,64
356940,note_on,0,0,1,,,,,,,,0,,,75,106
356940,note_on,60,0,1,,,,,,,,0,,,77,0
357000,note_on,60,0,1,,,,,,,,0,,,75,0
357000,note_on,0,0,1,,,,,,,,0,,,74,106
357060,note_on,0,0,1,,,,,,,,0,,,75,106
357060,note_on,60,0,1,,,,,,,,0,,,74,0
357105,note_on,225,0,5,,,,,,,,4,,,48,0
357105,note_on,225,0,6,,,,,,,,5,,,48,0
357120,note_on,0,0,1,,,,,,,,0,,,77,106
357120,note_on,60,0,1,,,,,,,,0,,,75,0
357120,note_on,15,0,6,,,,,,,,5,,,62,64
357120,note_on,15,0,5,,,,,,,,4,,,62,64
357269,note_on,149,0,1,,,,,,,,0,,,77,0
357345,note_on,225,0,5,,,,,,,,4,,,62,0
357345,note_on,225,0,6,,,,,,,,5,,,62,0
357360,note_on,15,0,5,,,,,,,,4,,,59,64
357360,note_on,91,0,1,,,,,,,,0,,,79,106
357360,note_on,15,0,6,,,,,,,,5,,,59,64
357420,note_on,0,0,1,,,,,,,,0,,,77,106
357420,note_on,60,0,1,,,,,,,,0,,,79,0
357480,note_on,60,0,1,,,,,,,,0,,,77,0
357480,note_on,0,0,1,,,,,,,,0,,,79,106
357540,note_on,0,0,1,,,,,,,,0,,,77,106
357540,note_on,60,0,1,,,,,,,,0,,,79,0
357585,note_on,225,0,5,,,,,,,,4,,,59,0
357585,note_on,225,0,6,,,,,,,,5,,,59,0
357600,note_on,60,0,1,,,,,,,,0,,,77,0
357600,note_on,0,0,1,,,,,,,,0,,,79,106
357600,note_on,15,0,6,,,,,,,,5,,,55,64
357600,note_on,15,0,5,,,,,,,,4,,,55,64
357660,note_on,0,0,1,,,,,,,,0,,,77,106
357660,note_on,60,0,1,,,,,,,,0,,,79,0
357720,note_on,0,0,1,,,,,,,,0,,,75,106
357720,note_on,60,0,1,,,,,,,,0,,,77,0
357780,note_on,60,0,1,,,,,,,,0,,,75,0
357780,note_on,0,0,1,,,,,,,,0,,,77,106
357825,note_on,225,0,5,,,,,,,,4,,,55,0
357825,note_on,225,0,6,,,,,,,,5,,,55,0
357840,note_on,15,0,5,,,,,,,,4,,,60,64
357840,note_on,0,0,1,,,,,,,,0,,,79,106
357840,note_on,60,0,1,,,,,,,,0,,,77,0
357840,note_on,15,0,6,,,,,,,,5,,,60,64
357977,note_on,137,0,1,,,,,,,,0,,,79,0
358080,note_on,103,0,1,,,,,,,,0,,,75,106
358217,note_on,137,0,1,,,,,,,,0,,,75,0
358285,note_on,445,0,5,,,,,,,,4,,,60,0
358285,note_on,445,0,6,,,,,,,,5,,,60,0
358320,note_on,35,0,5,,,,,,,,4,,,48,64
358320,note_on,103,0,1,,,,,,,,0,,,72,106
358320,note_on,35,0,6,,,,,,,,5,,,48,64
358445,note_on,125,0,1,,,,,,,,0,,,72,0
358545,note_on,225,0,6,,,,,,,,5,,,48,0
358545,note_on,225,0,5,,,,,,,,4,,,48,0
358560,note_on,15,0,6,,,,,,,,5,,,57,64
358560,note_on,15,0,5,,,,,,,,4,,,57,64
358560,note_on,115,0,1,,,,,,,,0,,,79,106
358725,note_on,165,0,1,,,,,,,,0,,,79,0
358785,note_on,225,0,6,,,,,,,,5,,,57,0
358785,note_on,225,0,5,,,,,,,,4,,,57,0
358800,note_on,15,0,6,,,,,,,,5,,,55,64
358800,note_on,15,0,5,,,,,,,,4,,,55,64
358800,note_on,75,0,1,,,,,,,,0,,,81,106
358860,note_on,60,0,1,,,,,,,,0,,,81,0
358860,note_on,0,0,1,,,,,,,,0,,,79,106
358920,note_on,60,0,1,,,,,,,,0,,,79,0
358920,note_on,0,0,1,,,,,,,,0,,,81,106
358980,note_on,60,0,1,,,,,,,,0,,,81,0
358980,note_on,0,0,1,,,,,,,,0,,,79,106
359025,note_on,225,0,5,,,,,,,,4,,,55,0
359025,note_on,225,0,6,,,,,,,,5,,,55,0
359040,note_on,15,0,6,,,,,,,,5,,,43,64
359040,note_on,0,0,1,,,,,,,,0,,,81,106
359040,note_on,60,0,1,,,,,,,,0,,,79,0
359040,note_on,15,0,5,,,,,,,,4,,,43,64
359100,note_on,0,0,1,,,,,,,,0,,,79,106
359100,note_on,60,0,1,,,,,,,,0,,,81,0
359160,note_on,0,0,1,,,,,,,,0,,,78,106
359160,note_on,60,0,1,,,,,,,,0,,,79,0
359220,note_on,0,0,1,,,,,,,,0,,,79,106
359220,note_on,60,0,1,,,,,,,,0,,,78,0
359265,note_on,225,0,5,,,,,,,,4,,,43,0
359265,note_on,225,0,6,,,,,,,,5,,,43,0
359280,note_on,15,0,6,,,,,,,,5,,,54,64
359280,note_on,60,0,1,,,,,,,,0,,,79,0
359280,note_on,15,0,5,,,,,,,,4,,,54,64
359280,note_on,0,0,1,,,,,,,,0,,,81,106
359441,note_on,161,0,1,,,,,,,,0,,,81,0
359505,note_on,225,0,5,,,,,,,,4,,,54,0
359505,note_on,225,0,6,,,,,,,,5,,,54,0
359520,note_on,79,0,1,,,,,,,,0,,,82,106
359520,note_on,15,0,5,,,,,,,,4,,,45,64
359520,note_on,15,0,6,,,,,,,,5,,,45,64
359580,note_on,60,0,1,,,,,,,,0,,,82,0
359580,note_on,0,0,1,,,,,,,,0,,,81,106
359640,note_on,60,0,1,,,,,,,,0,,,81,0
359640,note_on,0,0,1,,,,,,,,0,,,82,106
359700,note_on,0,0,1,,,,,,,,0,,,81,106
359700,note_on,60,0,1,,,,,,,,0,,,82,0
359745,note_on,225,0,5,,,,,,,,4,,,45,0
359745,note_on,225,0,6,,,,,,,,5,,,45,0
359760,note_on,60,0,1,,,,,,,,0,,,81,0
359760,note_on,0,0,1,,,,,,,,0,,,82,106
359760,note_on,15,0,5,,,,,,,,4,,,42,64
359760,note_on,15,0,6,,,,,,,,5,,,42,64
359820,note_on,60,0,1,,,,,,,,0,,,82,0
359820,note_on,0,0,1,,,,,,,,0,,,81,106
359880,note_on,60,0,1,,,,,,,,0,,,81,0
359880,note_on,0,0,1,,,,,,,,0,,,79,106
359940,note_on,60,0,1,,,,,,,,0,,,79,0
359940,note_on,0,0,1,,,,,,,,0,,,81,106
359985,note_on,225,0,5,,,,,,,,4,,,42,0
359985,note_on,225,0,6,,,,,,,,5,,,42,0
360000,note_on,15,0,5,,,,,,,,4,,,55,64
360000,note_on,15,0,6,,,,,,,,5,,,55,64
360000,note_on,60,0,1,,,,,,,,0,,,81,0
360000,note_on,0,0,1,,,,,,,,0,,,82,106
360153,note_on,153,0,1,,,,,,,,0,,,82,0
360225,note_on,225,0,5,,,,,,,,4,,,55,0
360225,note_on,225,0,6,,,,,,,,5,,,55,0
360240,note_on,15,0,5,,,,,,,,4,,,46,64
360240,note_on,87,0,1,,,,,,,,0,,,84,106
360240,note_on,15,0,6,,,,,,,,5,,,46,64
360300,note_on,60,0,1,,,,,,,,0,,,84,0
360300,note_on,0,0,1,,,,,,,,0,,,82,106
360360,note_on,60,0,1,,,,,,,,0,,,82,0
360360,note_on,0,0,1,,,,,,,,0,,,84,106
360420,note_on,0,0,1,,,,,,,,0,,,82,106
360420,note_on,60,0,1,,,,,,,,0,,,84,0
360465,note_on,225,0,5,,,,,,,,4,,,46,0
360465,note_on,225,0,6,,,,,,,,5,,,46,0
360480,note_on,15,0,6,,,,,,,,5,,,43,64
360480,note_on,0,0,1,,,,,,,,0,,,84,106
360480,note_on,60,0,1,,,,,,,,0,,,82,0
360480,note_on,15,0,5,,,,,,,,4,,,43,64
360540,note_on,60,0,1,,,,,,,,0,,,84,0
360540,note_on,0,0,1,,,,,,,,0,,,82,106
360600,note_on,0,0,1,,,,,,,,0,,,81,106
360600,note_on,60,0,1,,,,,,,,0,,,82,0
360660,note_on,0,0,1,,,,,,,,0,,,82,106
360660,note_on,60,0,1,,,,,,,,0,,,81,0
360705,note_on,225,0,6,,,,,,,,5,,,43,0
360705,note_on,225,0,5,,,,,,,,4,,,43,0
360720,note_on,15,0,5,,,,,,,,4,,,57,64
360720,note_on,0,0,1,,,,,,,,0,,,84,106
360720,note_on,60,0,1,,,,,,,,0,,,82,0
360720,note_on,15,0,6,,,,,,,,5,,,57,64
360904,note_on,184,0,1,,,,,,,,0,,,84,0
360945,note_on,225,0,6,,,,,,,,5,,,57,0
360945,note_on,225,0,5,,,,,,,,4,,,57,0
360960,note_on,15,0,5,,,,,,,,4,,,54,64
360960,note_on,15,0,6,,,,,,,,5,,,54,64
360960,note_on,56,0,1,,,,,,,,0,,,86,106
361020,note_on,0,0,1,,,,,,,,0,,,84,106
361020,note_on,60,0,1,,,,,,,,0,,,86,0
361080,note_on,60,0,1,,,,,,,,0,,,84,0
361080,note_on,0,0,1,,,,,,,,0,,,86,106
361140,note_on,60,0,1,,,,,,,,0,,,86,0
361140,note_on,0,0,1,,,,,,,,0,,,84,106
361185,note_on,225,0,6,,,,,,,,5,,,54,0
361185,note_on,225,0,5,,,,,,,,4,,,54,0
361200,note_on,60,0,1,,,,,,,,0,,,84,0
361200,note_on,0,0,1,,,,,,,,0,,,86,106
361200,note_on,15,0,5,,,,,,,,4,,,50,64
361200,note_on,15,0,6,,,,,,,,5,,,50,64
361260,note_on,0,0,1,,,,,,,,0,,,84,106
361260,note_on,60,0,1,,,,,,,,0,,,86,0
361320,note_on,0,0,1,,,,,,,,0,,,82,106
361320,note_on,60,0,1,,,,,,,,0,,,84,0
361380,note_on,60,0,1,,,,,,,,0,,,82,0
361380,note_on,0,0,1,,,,,,,,0,,,84,106
361425,note_on,225,0,6,,,,,,,,5,,,50,0
361425,note_on,225,0,5,,,,,,,,4,,,50,0
361440,note_on,60,0,1,,,,,,,,0,,,84,0
361440,note_on,15,0,5,,,,,,,,4,,,58,64
361440,note_on,0,0,1,,,,,,,,0,,,86,106
361440,note_on,15,0,6,,,,,,,,5,,,58,64
361585,note_on,145,0,1,,,,,,,,0,,,86,0
361665,note_on,225,0,6,,,,,,,,5,,,58,0
361665,note_on,225,0,5,,,,,,,,4,,,58,0
361680,note_on,15,0,6,,,,,,,,5,,,55,64
361680,note_on,15,0,5,,,,,,,,4,,,55,64
361680,note_on,95,0,1,,,,,,,,0,,,82,106
361805,note_on,125,0,1,,,,,,,,0,,,82,0
361905,note_on,225,0,6,,,,,,,,5,,,55,0
361905,note_on,225,0,5,,,,,,,,4,,,55,0
361920,note_on,115,0,1,,,,,,,,0,,,79,106
361920,note_on,15,0,5,,,,,,,,4,,,43,64
361920,note_on,15,0,6,,,,,,,,5,,,43,64
362057,note_on,137,0,1,,,,,,,,0,,,79,0
362145,note_on,225,0,5,,,,,,,,4,,,43,0
362145,note_on,225,0,6,,,,,,,,5,,,43,0
362160,note_on,6755,0,2,,,,,,,,1,,,67,49
362160,note_on,6755,0,3,,,,,,,,2,,,67,49
362160,note_on,103,0,1,,,,,,,,0,,,82,106
362235,note_on,75,0,1,,,,,,,,0,,,82,0
362240,note_on,5,0,1,,,,,,,,0,,,84,106
362315,note_on,75,0,1,,,,,,,,0,,,84,0
362320,note_on,5,0,1,,,,,,,,0,,,86,106
362385,note_on,225,0,3,,,,,,,,2,,,67,0
362385,note_on,225,0,2,,,,,,,,1,,,67,0
362395,note_on,75,0,1,,,,,,,,0,,,86,0
362400,note_on,15,0,3,,,,,,,,2,,,67,49
362400,note_on,15,0,2,,,,,,,,1,,,67,49
362400,note_on,5,0,1,,,,,,,,0,,,82,106
362475,note_on,75,0,1,,,,,,,,0,,,82,0
362480,note_on,5,0,1,,,,,,,,0,,,84,106
362555,note_on,75,0,1,,,,,,,,0,,,84,0
362560,note_on,5,0,1,,,,,,,,0,,,86,106
362625,note_on,225,0,3,,,,,,,,2,,,67,0
362625,note_on,225,0,2,,,,,,,,1,,,67,0
362635,note_on,75,0,1,,,,,,,,0,,,86,0
362640,note_on,15,0,3,,,,,,,,2,,,67,49
362640,note_on,15,0,2,,,,,,,,1,,,67,49
362640,note_on,5,0,1,,,,,,,,0,,,82,106
362715,note_on,75,0,1,,,,,,,,0,,,82,0
362720,note_on,5,0,1,,,,,,,,0,,,84,106
362795,note_on,75,0,1,,,,,,,,0,,,84,0
362800,note_on,5,0,1,,,,,,,,0,,,86,106
362865,note_on,225,0,3,,,,,,,,2,,,67,0
362865,note_on,225,0,2,,,,,,,,1,,,67,0
362875,note_on,75,0,1,,,,,,,,0,,,86,0
362880,note_on,5,0,1,,,,,,,,0,,,75,106
362880,note_on,15,0,3,,,,,,,,2,,,60,49
362880,note_on,15,0,2,,,,,,,,1,,,60,49
362955,note_on,75,0,1,,,,,,,,0,,,75,0
362960,note_on,5,0,1,,,,,,,,0,,,77,106
363035,note_on,75,0,1,,,,,,,,0,,,77,0
363040,note_on,5,0,1,,,,,,,,0,,,79,106
363105,note_on,225,0,3,,,,,,,,2,,,60,0
363105,note_on,225,0,2,,,,,,,,1,,,60,0
363115,note_on,75,0,1,,,,,,,,0,,,79,0
363120,note_on,15,0,2,,,,,,,,1,,,60,49
363120,note_on,15,0,3,,,,,,,,2,,,60,49
363120,note_on,5,0,1,,,,,,,,0,,,75,106
363195,note_on,75,0,1,,,,,,,,0,,,75,0
363200,note_on,5,0,1,,,,,,,,0,,,77,106
363275,note_on,75,0,1,,,,,,,,0,,,77,0
363280,note_on,5,0,1,,,,,,,,0,,,79,106
363345,note_on,225,0,3,,,,,,,,2,,,60,0
363345,note_on,225,0,2,,,,,,,,1,,,60,0
363355,note_on,75,0,1,,,,,,,,0,,,79,0
363360,note_on,15,0,3,,,,,,,,2,,,60,49
363360,note_on,15,0,2,,,,,,,,1,,,60,49
363360,note_on,5,0,1,,,,,,,,0,,,75,106
363435,note_on,75,0,1,,,,,,,,0,,,75,0
363440,note_on,5,0,1,,,,,,,,0,,,77,106
363515,note_on,75,0,1,,,,,,,,0,,,77,0
363520,note_on,5,0,1,,,,,,,,0,,,79,106
363585,note_on,225,0,3,,,,,,,,2,,,60,0
363585,note_on,225,0,2,,,,,,,,1,,,60,0
363595,note_on,75,0,1,,,,,,,,0,,,79,0
363600,note_on,5,0,1,,,,,,,,0,,,81,106
363600,note_on,15,0,3,,,,,,,,2,,,65,49
363600,note_on,15,0,2,,,,,,,,1,,,65,49
363675,note_on,75,0,1,,,,,,,,0,,,81,0
363680,note_on,5,0,1,,,,,,,,0,,,82,106
363755,note_on,75,0,1,,,,,,,,0,,,82,0
363760,note_on,5,0,1,,,,,,,,0,,,84,106
363825,note_on,225,0,3,,,,,,,,2,,,65,0
363825,note_on,225,0,2,,,,,,,,1,,,65,0
363835,note_on,75,0,1,,,,,,,,0,,,84,0
363840,note_on,15,0,3,,,,,,,,2,,,65,49
363840,note_on,15,0,2,,,,,,,,1,,,65,49
363840,note_on,5,0,1,,,,,,,,0,,,81,106
363915,note_on,75,0,1,,,,,,,,0,,,81,0
363920,note_on,5,0,1,,,,,,,,0,,,82,106
363995,note_on,75,0,1,,,,,,,,0,,,82,0
364000,note_on,5,0,1,,,,,,,,0,,,84,106
364065,note_on,225,0,3,,,,,,,,2,,,65,0
364065,note_on,225,0,2,,,,,,,,1,,,65,0
364075,note_on,75,0,1,,,,,,,,0,,,84,0
364080,note_on,5,0,1,,,,,,,,0,,,81,106
364080,note_on,15,0,3,,,,,,,,2,,,65,49
364080,note_on,15,0,2,,,,,,,,1,,,65,49
364155,note_on,75,0,1,,,,,,,,0,,,81,0
364160,note_on,5,0,1,,,,,,,,0,,,82,106
364235,note_on,75,0,1,,,,,,,,0,,,82,0
364240,note_on,5,0,1,,,,,,,,0,,,84,106
364305,note_on,225,0,3,,,,,,,,2,,,65,0
364305,note_on,225,0,2,,,,,,,,1,,,65,0
364315,note_on,75,0,1,,,,,,,,0,,,84,0
364320,note_on,5,0,1,,,,,,,,0,,,74,106
364320,note_on,15,0,2,,,,,,,,1,,,58,49
364320,note_on,15,0,3,,,,,,,,2,,,58,49
364395,note_on,75,0,1,,,,,,,,0,,,74,0
364400,note_on,5,0,1,,,,,,,,0,,,75,106
364475,note_on,75,0,1,,,,,,,,0,,,75,0
364480,note_on,5,0,1,,,,,,,,0,,,77,106
364545,note_on,225,0,2,,,,,,,,1,,,58,0
364545,note_on,225,0,3,,,,,,,,2,,,58,0
364555,note_on,75,0,1,,,,,,,,0,,,77,0
364560,note_on,5,0,1,,,,,,,,0,,,74,106
364560,note_on,15,0,2,,,,,,,,1,,,58,49
364560,note_on,15,0,3,,,,,,,,2,,,58,49
364635,note_on,75,0,1,,,,,,,,0,,,74,0
364640,note_on,5,0,1,,,,,,,,0,,,75,106
364715,note_on,75,0,1,,,,,,,,0,,,75,0
364720,note_on,5,0,1,,,,,,,,0,,,77,106
364785,note_on,225,0,2,,,,,,,,1,,,58,0
364785,note_on,225,0,3,,,,,,,,2,,,58,0
364795,note_on,75,0,1,,,,,,,,0,,,77,0
364800,note_on,15,0,2,,,,,,,,1,,,58,49
364800,note_on,15,0,3,,,,,,,,2,,,58,49
364800,note_on,5,0,1,,,,,,,,0,,,74,106
364875,note_on,75,0,1,,,,,,,,0,,,74,0
364880,note_on,5,0,1,,,,,,,,0,,,75,106
364955,note_on,75,0,1,,,,,,,,0,,,75,0
364960,note_on,5,0,1,,,,,,,,0,,,77,106
365025,note_on,225,0,2,,,,,,,,1,,,58,0
365025,note_on,225,0,3,,,,,,,,2,,,58,0
365035,note_on,75,0,1,,,,,,,,0,,,77,0
365040,note_on,5,0,1,,,,,,,,0,,,79,106
365040,note_on,15,0,2,,,,,,,,1,,,63,49
365040,note_on,15,0,3,,,,,,,,2,,,63,49
365115,note_on,75,0,1,,,,,,,,0,,,79,0
365120,note_on,5,0,1,,,,,,,,0,,,81,106
365195,note_on,75,0,1,,,,,,,,0,,,81,0
365200,note_on,5,0,1,,,,,,,,0,,,82,106
365265,note_on,225,0,2,,,,,,,,1,,,63,0
365265,note_on,225,0,3,,,,,,,,2,,,63,0
365275,note_on,75,0,1,,,,,,,,0,,,82,0
365280,note_on,15,0,2,,,,,,,,1,,,63,49
365280,note_on,15,0,3,,,,,,,,2,,,63,49
365280,note_on,5,0,1,,,,,,,,0,,,79,106
365355,note_on,75,0,1,,,,,,,,0,,,79,0
365360,note_on,5,0,1,,,,,,,,0,,,81,106
365435,note_on,75,0,1,,,,,,,,0,,,81,0
365440,note_on,5,0,1,,,,,,,,0,,,82,106
365505,note_on,225,0,2,,,,,,,,1,,,63,0
365505,note_on,225,0,3,,,,,,,,2,,,63,0
365515,note_on,75,0,1,,,,,,,,0,,,82,0
365520,note_on,15,0,2,,,,,,,,1,,,63,49
365520,note_on,5,0,1,,,,,,,,0,,,79,106
365520,note_on,15,0,3,,,,,,,,2,,,63,49
365595,note_on,75,0,1,,,,,,,,0,,,79,0
365600,note_on,5,0,1,,,,,,,,0,,,81,106
365675,note_on,75,0,1,,,,,,,,0,,,81,0
365680,note_on,5,0,1,,,,,,,,0,,,82,106
365745,note_on,225,0,2,,,,,,,,1,,,63,0
365745,note_on,225,0,3,,,,,,,,2,,,63,0
365755,note_on,75,0,1,,,,,,,,0,,,82,0
365760,note_on,15,0,3,,,,,,,,2,,,57,49
365760,note_on,5,0,1,,,,,,,,0,,,72,106
365760,note_on,15,0,2,,,,,,,,1,,,57,49
365835,note_on,75,0,1,,,,,,,,0,,,72,0
365840,note_on,5,0,1,,,,,,,,0,,,74,106
365915,note_on,75,0,1,,,,,,,,0,,,74,0
365920,note_on,5,0,1,,,,,,,,0,,,75,106
365985,note_on,225,0,2,,,,,,,,1,,,57,0
365985,note_on,225,0,3,,,,,,,,2,,,57,0
365995,note_on,75,0,1,,,,,,,,0,,,75,0
366000,note_on,15,0,2,,,,,,,,1,,,57,49
366000,note_on,5,0,1,,,,,,,,0,,,72,106
366000,note_on,15,0,3,,,,,,,,2,,,57,49
366075,note_on,75,0,1,,,,,,,,0,,,72,0
366080,note_on,5,0,1,,,,,,,,0,,,74,106
366155,note_on,75,0,1,,,,,,,,0,,,74,0
366160,note_on,5,0,1,,,,,,,,0,,,75,106
366225,note_on,225,0,2,,,,,,,,1,,,57,0
366225,note_on,225,0,3,,,,,,,,2,,,57,0
366235,note_on,75,0,1,,,,,,,,0,,,75,0
366240,note_on,15,0,3,,,,,,,,2,,,57,49
366240,note_on,15,0,2,,,,,,,,1,,,57,49
366240,note_on,5,0,1,,,,,,,,0,,,72,106
366315,note_on,75,0,1,,,,,,,,0,,,72,0
366320,note_on,5,0,1,,,,,,,,0,,,74,106
366395,note_on,75,0,1,,,,,,,,0,,,74,0
366400,note_on,5,0,1,,,,,,,,0,,,75,106
366465,note_on,225,0,2,,,,,,,,1,,,57,0
366465,note_on,225,0,3,,,,,,,,2,,,57,0
366475,note_on,75,0,1,,,,,,,,0,,,75,0
366480,note_on,15,0,2,,,,,,,,1,,,62,49
366480,note_on,15,0,3,,,,,,,,2,,,62,49
366480,note_on,5,0,1,,,,,,,,0,,,77,106
366555,note_on,75,0,1,,,,,,,,0,,,77,0
366560,note_on,5,0,1,,,,,,,,0,,,79,106
366635,note_on,75,0,1,,,,,,,,0,,,79,0
366640,note_on,5,0,1,,,,,,,,0,,,81,106
366705,note_on,225,0,3,,,,,,,,2,,,62,0
366705,note_on,225,0,2,,,,,,,,1,,,62,0
366715,note_on,75,0,1,,,,,,,,0,,,81,0
366720,note_on,5,0,1,,,,,,,,0,,,77,106
366720,note_on,15,0,3,,,,,,,,2,,,62,49
366720,note_on,15,0,2,,,,,,,,1,,,62,49
366795,note_on,75,0,1,,,,,,,,0,,,77,0
366800,note_on,5,0,1,,,,,,,,0,,,79,106
366875,note_on,75,0,1,,,,,,,,0,,,79,0
366880,note_on,5,0,1,,,,,,,,0,,,81,106
366945,note_on,225,0,3,,,,,,,,2,,,62,0
366945,note_on,225,0,2,,,,,,,,1,,,62,0
366955,note_on,75,0,1,,,,,,,,0,,,81,0
366960,note_on,5,0,1,,,,,,,,0,,,77,106
366960,note_on,15,0,2,,,,,,,,1,,,62,49
366960,note_on,15,0,3,,,,,,,,2,,,62,49
367035,note_on,75,0,1,,,,,,,,0,,,77,0
367040,note_on,5,0,1,,,,,,,,0,,,79,106
367115,note_on,75,0,1,,,,,,,,0,,,79,0
367120,note_on,5,0,1,,,,,,,,0,,,81,106
367185,note_on,225,0,3,,,,,,,,2,,,62,0
367185,note_on,225,0,2,,,,,,,,1,,,62,0
367195,note_on,75,0,1,,,,,,,,0,,,81,0
367200,note_on,15,0,3,,,,,,,,2,,,67,49
367200,note_on,15,0,2,,,,,,,,1,,,67,49
367200,note_on,5,0,1,,,,,,,,0,,,70,106
367275,note_on,75,0,1,,,,,,,,0,,,70,0
367280,note_on,5,0,1,,,,,,,,0,,,72,106
367355,note_on,75,0,1,,,,,,,,0,,,72,0
367360,note_on,5,0,1,,,,,,,,0,,,74,106
367425,note_on,225,0,2,,,,,,,,1,,,67,0
367425,note_on,225,0,3,,,,,,,,2,,,67,0
367435,note_on,75,0,1,,,,,,,,0,,,74,0
367440,note_on,15,0,2,,,,,,,,1,,,67,49
367440,note_on,15,0,3,,,,,,,,2,,,67,49
367440,note_on,5,0,1,,,,,,,,0,,,70,106
367515,note_on,75,0,1,,,,,,,,0,,,70,0
367520,note_on,5,0,1,,,,,,,,0,,,72,106
367595,note_on,75,0,1,,,,,,,,0,,,72,0
367600,note_on,5,0,1,,,,,,,,0,,,74,106
367665,note_on,225,0,2,,,,,,,,1,,,67,0
367665,note_on,225,0,3,,,,,,,,2,,,67,0
367675,note_on,75,0,1,,,,,,,,0,,,74,0
367680,note_on,15,0,2,,,,,,,,1,,,67,49
367680,note_on,5,0,1,,,,,,,,0,,,70,106
367680,note_on,15,0,3,,,,,,,,2,,,67,49
367755,note_on,75,0,1,,,,,,,,0,,,70,0
367760,note_on,5,0,1,,,,,,,,0,,,72,106
367835,note_on,75,0,1,,,,,,,,0,,,72,0
367840,note_on,5,0,1,,,,,,,,0,,,74,106
367905,note_on,225,0,3,,,,,,,,2,,,67,0
367905,note_on,225,0,2,,,,,,,,1,,,67,0
367915,note_on,75,0,1,,,,,,,,0,,,74,0
367920,note_on,5,0,1,,,,,,,,0,,,63,106
367920,note_on,15,0,3,,,,,,,,2,,,60,49
367920,note_on,15,0,2,,,,,,,,1,,,60,49
367995,note_on,75,0,1,,,,,,,,0,,,63,0
368000,note_on,5,0,1,,,,,,,,0,,,65,106
368075,note_on,75,0,1,,,,,,,,0,,,65,0
368080,note_on,5,0,1,,,,,,,,0,,,67,106
368145,note_on,225,0,2,,,,,,,,1,,,60,0
368145,note_on,225,0,3,,,,,,,,2,,,60,0
368155,note_on,75,0,1,,,,,,,,0,,,67,0
368160,note_on,15,0,2,,,,,,,,1,,,60,49
368160,note_on,5,0,1,,,,,,,,0,,,63,106
368160,note_on,15,0,3,,,,,,,,2,,,60,49
368235,note_on,75,0,1,,,,,,,,0,,,63,0
368240,note_on,5,0,1,,,,,,,,0,,,65,106
368315,note_on,75,0,1,,,,,,,,0,,,65,0
368320,note_on,5,0,1,,,,,,,,0,,,67,106
368385,note_on,225,0,2,,,,,,,,1,,,60,0
368385,note_on,225,0,3,,,,,,,,2,,,60,0
368395,note_on,75,0,1,,,,,,,,0,,,67,0
368400,note_on,15,0,3,,,,,,,,2,,,60,49
368400,note_on,5,0,1,,,,,,,,0,,,63,106
368400,note_on,15,0,2,,,,,,,,1,,,60,49
368475,note_on,75,0,1,,,,,,,,0,,,63,0
368480,note_on,5,0,1,,,,,,,,0,,,65,106
368555,note_on,75,0,1,,,,,,,,0,,,65,0
368560,note_on,5,0,1,,,,,,,,0,,,67,106
368625,note_on,225,0,3,,,,,,,,2,,,60,0
368625,note_on,225,0,2,,,,,,,,1,,,60,0
368635,note_on,75,0,1,,,,,,,,0,,,67,0
368640,note_on,15,0,2,,,,,,,,1,,,69,49
368640,note_on,5,0,1,,,,,,,,0,,,72,106
368640,note_on,15,0,3,,,,,,,,2,,,69,49
368715,note_on,75,0,1,,,,,,,,0,,,72,0
368720,note_on,5,0,1,,,,,,,,0,,,74,106
368795,note_on,75,0,1,,,,,,,,0,,,74,0
368800,note_on,5,0,1,,,,,,,,0,,,75,106
368865,note_on,225,0,2,,,,,,,,1,,,69,0
368865,note_on,225,0,3,,,,,,,,2,,,69,0
368875,note_on,75,0,1,,,,,,,,0,,,75,0
368880,note_on,5,0,1,,,,,,,,0,,,72,106
368880,note_on,15,0,2,,,,,,,,1,,,69,49
368880,note_on,15,0,3,,,,,,,,2,,,69,49
368955,note_on,75,0,1,,,,,,,,0,,,72,0
368960,note_on,5,0,1,,,,,,,,0,,,74,106
369035,note_on,75,0,1,,,,,,,,0,,,74,0
369040,note_on,5,0,1,,,,,,,,0,,,75,106
369105,note_on,225,0,3,,,,,,,,2,,,69,0
369105,note_on,225,0,2,,,,,,,,1,,,69,0
369115,note_on,75,0,1,,,,,,,,0,,,75,0
369120,note_on,15,0,2,,,,,,,,1,,,69,49
369120,note_on,5,0,1,,,,,,,,0,,,72,106
369120,note_on,15,0,3,,,,,,,,2,,,69,49
369195,note_on,75,0,1,,,,,,,,0,,,72,0
369200,note_on,5,0,1,,,,,,,,0,,,74,106
369275,note_on,75,0,1,,,,,,,,0,,,74,0
369280,note_on,5,0,1,,,,,,,,0,,,75,106
369345,note_on,225,0,3,,,,,,,,2,,,69,0
369345,note_on,225,0,2,,,,,,,,1,,,69,0
369355,note_on,75,0,1,,,,,,,,0,,,75,0
369360,note_on,15,0,3,,,,,,,,2,,,62,49
369360,note_on,15,0,2,,,,,,,,1,,,62,49
369360,note_on,5,0,1,,,,,,,,0,,,65,106
369435,note_on,75,0,1,,,,,,,,0,,,65,0
369440,note_on,5,0,1,,,,,,,,0,,,67,106
369515,note_on,75,0,1,,,,,,,,0,,,67,0
369520,note_on,5,0,1,,,,,,,,0,,,69,106
369585,note_on,225,0,2,,,,,,,,1,,,62,0
369585,note_on,225,0,3,,,,,,,,2,,,62,0
369595,note_on,75,0,1,,,,,,,,0,,,69,0
369600,note_on,15,0,2,,,,,,,,1,,,62,49
369600,note_on,5,0,1,,,,,,,,0,,,65,106
369600,note_on,15,0,3,,,,,,,,2,,,62,49
369675,note_on,75,0,1,,,,,,,,0,,,65,0
369680,note_on,5,0,1,,,,,,,,0,,,67,106
369755,note_on,75,0,1,,,,,,,,0,,,67,0
369760,note_on,5,0,1,,,,,,,,0,,,69,106
369825,note_on,225,0,3,,,,,,,,2,,,62,0
369825,note_on,225,0,2,,,,,,,,1,,,62,0
369835,note_on,75,0,1,,,,,,,,0,,,69,0
369840,note_on,15,0,3,,,,,,,,2,,,62,49
369840,note_on,15,0,2,,,,,,,,1,,,62,49
369840,note_on,5,0,1,,,,,,,,0,,,65,106
369915,note_on,75,0,1,,,,,,,,0,,,65,0
369920,note_on,5,0,1,,,,,,,,0,,,67,106
369995,note_on,75,0,1,,,,,,,,0,,,67,0
370000,note_on,5,0,1,,,,,,,,0,,,69,106
370065,note_on,225,0,3,,,,,,,,2,,,62,0
370065,note_on,225,0,2,,,,,,,,1,,,62,0
370075,note_on,75,0,1,,,,,,,,0,,,69,0
370080,note_on,15,0,2,,,,,,,,1,,,70,49
370080,note_on,5,0,1,,,,,,,,0,,,74,106
370080,note_on,15,0,3,,,,,,,,2,,,70,49
370155,note_on,75,0,1,,,,,,,,0,,,74,0
370160,note_on,5,0,1,,,,,,,,0,,,75,106
370235,note_on,75,0,1,,,,,,,,0,,,75,0
370240,note_on,5,0,1,,,,,,,,0,,,77,106
370305,note_on,225,0,3,,,,,,,,2,,,70,0
370305,note_on,225,0,2,,,,,,,,1,,,70,0
370315,note_on,75,0,1,,,,,,,,0,,,77,0
370320,note_on,15,0,3,,,,,,,,2,,,70,49
370320,note_on,15,0,2,,,,,,,,1,,,70,49
370320,note_on,5,0,1,,,,,,,,0,,,74,106
370395,note_on,75,0,1,,,,,,,,0,,,74,0
370400,note_on,5,0,1,,,,,,,,0,,,75,106
370475,note_on,75,0,1,,,,,,,,0,,,75,0
370480,note_on,5,0,1,,,,,,,,0,,,77,106
370545,note_on,225,0,3,,,,,,,,2,,,70,0
370545,note_on,225,0,2,,,,,,,,1,,,70,0
370555,note_on,75,0,1,,,,,,,,0,,,77,0
370560,note_on,5,0,1,,,,,,,,0,,,74,106
370560,note_on,15,0,3,,,,,,,,2,,,70,49
370560,note_on,15,0,2,,,,,,,,1,,,70,49
370635,note_on,75,0,1,,,,,,,,0,,,74,0
370640,note_on,5,0,1,,,,,,,,0,,,75,106
370715,note_on,75,0,1,,,,,,,,0,,,75,0
370720,note_on,5,0,1,,,,,,,,0,,,77,106
370785,note_on,225,0,3,,,,,,,,2,,,70,0
370785,note_on,225,0,2,,,,,,,,1,,,70,0
370795,note_on,75,0,1,,,,,,,,0,,,77,0
370800,note_on,15,0,2,,,,,,,,1,,,63,49
370800,note_on,5,0,1,,,,,,,,0,,,67,106
370800,note_on,15,0,3,,,,,,,,2,,,63,49
370875,note_on,75,0,1,,,,,,,,0,,,67,0
370880,note_on,5,0,1,,,,,,,,0,,,69,106
370955,note_on,75,0,1,,,,,,,,0,,,69,0
370960,note_on,5,0,1,,,,,,,,0,,,70,106
371025,note_on,225,0,3,,,,,,,,2,,,63,0
371025,note_on,225,0,2,,,,,,,,1,,,63,0
371035,note_on,75,0,1,,,,,,,,0,,,70,0
371040,note_on,15,0,2,,,,,,,,1,,,63,49
371040,note_on,5,0,1,,,,,,,,0,,,67,106
371040,note_on,15,0,3,,,,,,,,2,,,63,49
371115,note_on,75,0,1,,,,,,,,0,,,67,0
371120,note_on,5,0,1,,,,,,,,0,,,69,106
371195,note_on,75,0,1,,,,,,,,0,,,69,0
371200,note_on,5,0,1,,,,,,,,0,,,70,106
371265,note_on,225,0,3,,,,,,,,2,,,63,0
371265,note_on,225,0,2,,,,,,,,1,,,63,0
371275,note_on,75,0,1,,,,,,,,0,,,70,0
371280,note_on,15,0,2,,,,,,,,1,,,63,49
371280,note_on,5,0,1,,,,,,,,0,,,67,106
371280,note_on,15,0,3,,,,,,,,2,,,63,49
371355,note_on,75,0,1,,,,,,,,0,,,67,0
371360,note_on,5,0,1,,,,,,,,0,,,69,106
371435,note_on,75,0,1,,,,,,,,0,,,69,0
371440,note_on,5,0,1,,,,,,,,0,,,70,106
371505,note_on,225,0,2,,,,,,,,1,,,63,0
371505,note_on,225,0,3,,,,,,,,2,,,63,0
371515,note_on,75,0,1,,,,,,,,0,,,70,0
371520,note_on,5,0,1,,,,,,,,0,,,75,106
371520,note_on,15,0,2,,,,,,,,1,,,72,49
371520,note_on,15,0,3,,,,,,,,2,,,72,49
371595,note_on,75,0,1,,,,,,,,0,,,75,0
371600,note_on,5,0,1,,,,,,,,0,,,77,106
371675,note_on,75,0,1,,,,,,,,0,,,77,0
371680,note_on,5,0,1,,,,,,,,0,,,79,106
371745,note_on,225,0,2,,,,,,,,1,,,72,0
371745,note_on,225,0,3,,,,,,,,2,,,72,0
371755,note_on,75,0,1,,,,,,,,0,,,79,0
371760,note_on,5,0,1,,,,,,,,0,,,75,106
371760,note_on,15,0,2,,,,,,,,1,,,72,49
371760,note_on,15,0,3,,,,,,,,2,,,72,49
371835,note_on,75,0,1,,,,,,,,0,,,75,0
371840,note_on,5,0,1,,,,,,,,0,,,77,106
371915,note_on,75,0,1,,,,,,,,0,,,77,0
371920,note_on,5,0,1,,,,,,,,0,,,79,106
371985,note_on,225,0,2,,,,,,,,1,,,72,0
371985,note_on,225,0,3,,,,,,,,2,,,72,0
371995,note_on,75,0,1,,,,,,,,0,,,79,0
372000,note_on,15,0,2,,,,,,,,1,,,72,49
372000,note_on,5,0,1,,,,,,,,0,,,75,106
372000,note_on,15,0,3,,,,,,,,2,,,72,49
372075,note_on,75,0,1,,,,,,,,0,,,75,0
372080,note_on,5,0,1,,,,,,,,0,,,77,106
372155,note_on,75,0,1,,,,,,,,0,,,77,0
372160,note_on,5,0,1,,,,,,,,0,,,79,106
372225,note_on,225,0,2,,,,,,,,1,,,72,0
372225,note_on,225,0,3,,,,,,,,2,,,72,0
372235,note_on,75,0,1,,,,,,,,0,,,79,0
372240,note_on,15,0,2,,,,,,,,1,,,65,49
372240,note_on,15,0,3,,,,,,,,2,,,65,49
372240,note_on,10095,0,5,,,,,,,,4,,,53,64
372240,note_on,10095,0,6,,,,,,,,5,,,53,64
372240,note_on,5,0,1,,,,,,,,0,,,69,106
372355,note_on,115,0,5,,,,,,,,4,,,53,0
372355,note_on,115,0,6,,,,,,,,5,,,53,0
372360,note_on,5,0,6,,,,,,,,5,,,55,64
372360,note_on,5,0,5,,,,,,,,4,,,55,64
372475,note_on,115,0,6,,,,,,,,5,,,55,0
372475,note_on,115,0,5,,,,,,,,4,,,55,0
372480,note_on,5,0,5,,,,,,,,4,,,57,64
372480,note_on,5,0,6,,,,,,,,5,,,57,64
372595,note_on,115,0,6,,,,,,,,5,,,57,0
372595,note_on,115,0,5,,,,,,,,4,,,57,0
372600,note_on,5,0,6,,,,,,,,5,,,58,64
372600,note_on,5,0,5,,,,,,,,4,,,58,64
372685,note_on,445,0,3,,,,,,,,2,,,65,0
372685,note_on,445,0,1,,,,,,,,0,,,69,0
372685,note_on,445,0,2,,,,,,,,1,,,65,0
372715,note_on,115,0,6,,,,,,,,5,,,58,0
372715,note_on,115,0,5,,,,,,,,4,,,58,0
372720,note_on,5,0,5,,,,,,,,4,,,60,64
372720,note_on,5,0,6,,,,,,,,5,,,60,64
372835,note_on,115,0,5,,,,,,,,4,,,60,0
372835,note_on,115,0,6,,,,,,,,5,,,60,0
372840,note_on,5,0,5,,,,,,,,4,,,57,64
372840,note_on,5,0,6,,,,,,,,5,,,57,64
372955,note_on,115,0,5,,,,,,,,4,,,57,0
372955,note_on,115,0,6,,,,,,,,5,,,57,0
372960,note_on,275,0,1,,,,,,,,0,,,65,106
372960,note_on,5,0,5,,,,,,,,4,,,53,64
372960,note_on,5,0,6,,,,,,,,5,,,53,64
373075,note_on,115,0,1,,,,,,,,0,,,65,0
373080,note_on,5,0,1,,,,,,,,0,,,69,106
373195,note_on,115,0,1,,,,,,,,0,,,69,0
373200,note_on,5,0,1,,,,,,,,0,,,72,106
373405,note_on,445,0,5,,,,,,,,4,,,53,0
373405,note_on,445,0,6,,,,,,,,5,,,53,0
373425,note_on,225,0,1,,,,,,,,0,,,72,0
373440,note_on,15,0,1,,,,,,,,0,,,75,106
373665,note_on,225,0,1,,,,,,,,0,,,75,0
373680,note_on,15,0,1,,,,,,,,0,,,69,106
373680,note_on,275,0,6,,,,,,,,5,,,53,64
373680,note_on,275,0,5,,,,,,,,4,,,53,64
373795,note_on,115,0,1,,,,,,,,0,,,69,0
373800,note_on,5,0,1,,,,,,,,0,,,72,106
373915,note_on,115,0,1,,,,,,,,0,,,72,0
373920,note_on,5,0,1,,,,,,,,0,,,75,106
374125,note_on,445,0,6,,,,,,,,5,,,53,0
374125,note_on,445,0,5,,,,,,,,4,,,53,0
374145,note_on,225,0,1,,,,,,,,0,,,75,0
374160,note_on,15,0,1,,,,,,,,0,,,81,106
374385,note_on,225,0,1,,,,,,,,0,,,81,0
374400,note_on,275,0,6,,,,,,,,5,,,46,64
374400,note_on,275,0,5,,,,,,,,4,,,46,64
374400,note_on,15,0,1,,,,,,,,0,,,82,106
374515,note_on,115,0,1,,,,,,,,0,,,82,0
374520,note_on,5,0,1,,,,,,,,0,,,81,106
374635,note_on,115,0,1,,,,,,,,0,,,81,0
374640,note_on,5,0,1,,,,,,,,0,,,79,106
374755,note_on,115,0,1,,,,,,,,0,,,79,0
374760,note_on,5,0,1,,,,,,,,0,,,77,106
374845,note_on,445,0,5,,,,,,,,4,,,46,0
374845,note_on,445,0,6,,,,,,,,5,,,46,0
374875,note_on,115,0,1,,,,,,,,0,,,77,0
374880,note_on,5,0,1,,,,,,,,0,,,75,106
374995,note_on,115,0,1,,,,,,,,0,,,75,0
375000,note_on,5,0,1,,,,,,,,0,,,74,106
375115,note_on,115,0,1,,,,,,,,0,,,74,0
375120,note_on,5,0,1,,,,,,,,0,,,72,106
375235,note_on,115,0,1,,,,,,,,0,,,72,0
375240,note_on,5,0,1,,,,,,,,0,,,70,106
375355,note_on,115,0,1,,,,,,,,0,,,70,0
375360,note_on,5,0,1,,,,,,,,0,,,69,106
375475,note_on,115,0,1,,,,,,,,0,,,69,0
375480,note_on,5,0,1,,,,,,,,0,,,67,106
375595,note_on,115,0,1,,,,,,,,0,,,67,0
375600,note_on,5,0,1,,,,,,,,0,,,65,106
375715,note_on,115,0,1,,,,,,,,0,,,65,0
375720,note_on,5,0,1,,,,,,,,0,,,63,106
375835,note_on,115,0,1,,,,,,,,0,,,63,0
375840,note_on,995,0,6,,,,,,,,5,,,46,64
375840,note_on,5,0,1,,,,,,,,0,,,62,106
375840,note_on,995,0,5,,,,,,,,4,,,46,64
375955,note_on,115,0,5,,,,,,,,4,,,46,0
375955,note_on,115,0,6,,,,,,,,5,,,46,0
375960,note_on,5,0,5,,,,,,,,4,,,48,64
375960,note_on,5,0,6,,,,,,,,5,,,48,64
376065,note_on,225,0,1,,,,,,,,0,,,62,0
376075,note_on,115,0,5,,,,,,,,4,,,48,0
376075,note_on,115,0,6,,,,,,,,5,,,48,0
376080,note_on,15,0,1,,,,,,,,0,,,58,106
376080,note_on,5,0,6,,,,,,,,5,,,50,64
376080,note_on,5,0,5,,,,,,,,4,,,50,64
376305,note_on,225,0,5,,,,,,,,4,,,50,0
376305,note_on,225,0,1,,,,,,,,0,,,58,0
376305,note_on,225,0,6,,,,,,,,5,,,50,0
376320,note_on,15,0,6,,,,,,,,5,,,48,64
376320,note_on,15,0,5,,,,,,,,4,,,48,64
376545,note_on,225,0,5,,,,,,,,4,,,48,0
376545,note_on,225,0,6,,,,,,,,5,,,48,0
376560,note_on,15,0,5,,,,,,,,4,,,46,64
376560,note_on,15,0,6,,,,,,,,5,,,46,64
376560,note_on,255,0,1,,,,,,,,0,,,85,106
376785,note_on,225,0,1,,,,,,,,0,,,85,0
376800,note_on,15,0,1,,,,,,,,0,,,84,106
377005,note_on,445,0,6,,,,,,,,5,,,46,0
377005,note_on,445,0,5,,,,,,,,4,,,46,0
377025,note_on,225,0,1,,,,,,,,0,,,84,0
377040,note_on,15,0,1,,,,,,,,0,,,82,106
377265,note_on,225,0,1,,,,,,,,0,,,82,0
377280,note_on,275,0,5,,,,,,,,4,,,51,64
377280,note_on,275,0,6,,,,,,,,5,,,51,64
377280,note_on,15,0,1,,,,,,,,0,,,83,106
377505,note_on,225,0,1,,,,,,,,0,,,83,0
377520,note_on,15,0,1,,,,,,,,0,,,82,106
377725,note_on,445,0,5,,,,,,,,4,,,51,0
377725,note_on,445,0,6,,,,,,,,5,,,51,0
377745,note_on,225,0,1,,,,,,,,0,,,82,0
377760,note_on,35,0,6,,,,,,,,5,,,53,64
377760,note_on,15,0,1,,,,,,,,0,,,81,106
377760,note_on,35,0,5,,,,,,,,4,,,53,64
377985,note_on,225,0,6,,,,,,,,5,,,53,0
377985,note_on,225,0,5,,,,,,,,4,,,53,0
377985,note_on,225,0,1,,,,,,,,0,,,81,0
378000,note_on,15,0,1,,,,,,,,0,,,82,106
378000,note_on,15,0,5,,,,,,,,4,,,49,64
378000,note_on,15,0,6,,,,,,,,5,,,49,64
378225,note_on,225,0,1,,,,,,,,0,,,82,0
378240,note_on,15,0,1,,,,,,,,0,,,77,106
378445,note_on,445,0,6,,,,,,,,5,,,49,0
378445,note_on,445,0,5,,,,,,,,4,,,49,0
378465,note_on,225,0,1,,,,,,,,0,,,77,0
378480,note_on,15,0,1,,,,,,,,0,,,85,106
378480,note_on,35,0,5,,,,,,,,4,,,46,64
378480,note_on,35,0,6,,,,,,,,5,,,46,64
378705,note_on,225,0,5,,,,,,,,4,,,46,0
378705,note_on,225,0,1,,,,,,,,0,,,85,0
378705,note_on,225,0,6,,,,,,,,5,,,46,0
378720,note_on,15,0,6,,,,,,,,5,,,51,64
378720,note_on,15,0,5,,,,,,,,4,,,51,64
378720,note_on,15,0,1,,,,,,,,0,,,84,106
378835,note_on,115,0,1,,,,,,,,0,,,84,0
378840,note_on,5,0,1,,,,,,,,0,,,82,106
378945,note_on,225,0,5,,,,,,,,4,,,51,0
378945,note_on,225,0,6,,,,,,,,5,,,51,0
378955,note_on,115,0,1,,,,,,,,0,,,82,0
378960,note_on,15,0,6,,,,,,,,5,,,53,64
378960,note_on,5,0,1,,,,,,,,0,,,82,106
378960,note_on,15,0,5,,,,,,,,4,,,53,64
379020,note_on,60,0,1,,,,,,,,0,,,82,0
379020,note_on,0,0,1,,,,,,,,0,,,81,106
379080,note_on,0,0,1,,,,,,,,0,,,82,106
379080,note_on,60,0,1,,,,,,,,0,,,81,0
379140,note_on,60,0,1,,,,,,,,0,,,82,0
379140,note_on,0,0,1,,,,,,,,0,,,81,106
379185,note_on,225,0,5,,,,,,,,4,,,53,0
379185,note_on,225,0,6,,,,,,,,5,,,53,0
379200,note_on,15,0,5,,,,,,,,4,,,41,64
379200,note_on,15,0,6,,,,,,,,5,,,41,64
379320,note_on,180,0,1,,,,,,,,0,,,81,0
379320,note_on,0,0,1,,,,,,,,0,,,82,106
379425,note_on,225,0,5,,,,,,,,4,,,41,0
379425,note_on,225,0,6,,,,,,,,5,,,41,0
379435,note_on,115,0,1,,,,,,,,0,,,82,0
379440,note_on,15,0,6,,,,,,,,5,,,46,64
379440,note_on,15,0,5,,,,,,,,4,,,46,64
379440,note_on,5,0,1,,,,,,,,0,,,82,106
379555,note_on,115,0,6,,,,,,,,5,,,46,0
379555,note_on,115,0,5,,,,,,,,4,,,46,0
379560,note_on,5,0,6,,,,,,,,5,,,48,64
379560,note_on,5,0,5,,,,,,,,4,,,48,64
379675,note_on,115,0,6,,,,,,,,5,,,48,0
379675,note_on,115,0,5,,,,,,,,4,,,48,0
379680,note_on,5,0,5,,,,,,,,4,,,49,64
379680,note_on,5,0,6,,,,,,,,5,,,49,64
379885,note_on,445,0,1,,,,,,,,0,,,82,0
379905,note_on,225,0,6,,,,,,,,5,,,49,0
379905,note_on,225,0,5,,,,,,,,4,,,49,0
379920,note_on,15,0,5,,,,,,,,4,,,48,64
379920,note_on,15,0,6,,,,,,,,5,,,48,64
380145,note_on,225,0,5,,,,,,,,4,,,48,0
380145,note_on,225,0,6,,,,,,,,5,,,48,0
380160,note_on,15,0,5,,,,,,,,4,,,46,64
380160,note_on,15,0,6,,,,,,,,5,,,46,64
380160,note_on,275,0,1,,,,,,,,0,,,73,64
380385,note_on,225,0,1,,,,,,,,0,,,73,0
380400,note_on,15,0,1,,,,,,,,0,,,72,64
380605,note_on,445,0,5,,,,,,,,4,,,46,0
380605,note_on,445,0,6,,,,,,,,5,,,46,0
380625,note_on,225,0,1,,,,,,,,0,,,72,0
380640,note_on,15,0,1,,,,,,,,0,,,70,64
380865,note_on,225,0,1,,,,,,,,0,,,70,0
380880,note_on,15,0,1,,,,,,,,0,,,71,64
380880,note_on,275,0,5,,,,,,,,4,,,51,64
380880,note_on,275,0,6,,,,,,,,5,,,51,64
381105,note_on,225,0,1,,,,,,,,0,,,71,0
381120,note_on,15,0,1,,,,,,,,0,,,70,64
381325,note_on,445,0,6,,,,,,,,5,,,51,0
381325,note_on,445,0,5,,,,,,,,4,,,51,0
381345,note_on,225,0,1,,,,,,,,0,,,70,0
381360,note_on,15,0,1,,,,,,,,0,,,69,64
381360,note_on,35,0,6,,,,,,,,5,,,53,64
381360,note_on,35,0,5,,,,,,,,4,,,53,64
381585,note_on,225,0,6,,,,,,,,5,,,53,0
381585,note_on,225,0,1,,,,,,,,0,,,69,0
381585,note_on,225,0,5,,,,,,,,4,,,53,0
381600,note_on,15,0,6,,,,,,,,5,,,49,64
381600,note_on,15,0,1,,,,,,,,0,,,70,64
381600,note_on,15,0,5,,,,,,,,4,,,49,64
381825,note_on,225,0,1,,,,,,,,0,,,70,0
381840,note_on,15,0,1,,,,,,,,0,,,65,64
382045,note_on,445,0,5,,,,,,,,4,,,49,0
382045,note_on,445,0,6,,,,,,,,5,,,49,0
382065,note_on,225,0,1,,,,,,,,0,,,65,0
382080,note_on,35,0,5,,,,,,,,4,,,46,64
382080,note_on,35,0,6,,,,,,,,5,,,46,64
382080,note_on,15,0,1,,,,,,,,0,,,73,64
382305,note_on,225,0,5,,,,,,,,4,,,46,0
382305,note_on,225,0,6,,,,,,,,5,,,46,0
382305,note_on,225,0,1,,,,,,,,0,,,73,0
382320,note_on,15,0,1,,,,,,,,0,,,72,64
382320,note_on,15,0,6,,,,,,,,5,,,51,64
382320,note_on,15,0,5,,,,,,,,4,,,51,64
382435,note_on,115,0,1,,,,,,,,0,,,72,0
382440,note_on,5,0,1,,,,,,,,0,,,70,64
382545,note_on,225,0,6,,,,,,,,5,,,51,0
382545,note_on,225,0,5,,,,,,,,4,,,51,0
382555,note_on,115,0,1,,,,,,,,0,,,70,0
382560,note_on,15,0,5,,,,,,,,4,,,53,64
382560,note_on,15,0,6,,,,,,,,5,,,53,64
382560,note_on,5,0,1,,,,,,,,0,,,70,64
382620,note_on,60,0,1,,,,,,,,0,,,70,0
382620,note_on,0,0,1,,,,,,,,0,,,69,64
382680,note_on,60,0,1,,,,,,,,0,,,69,0
382680,note_on,0,0,1,,,,,,,,0,,,70,64
382740,note_on,60,0,1,,,,,,,,0,,,70,0
382740,note_on,0,0,1,,,,,,,,0,,,69,64
382785,note_on,225,0,6,,,,,,,,5,,,53,0
382785,note_on,225,0,5,,,,,,,,4,,,53,0
382800,note_on,15,0,6,,,,,,,,5,,,41,64
382800,note_on,15,0,5,,,,,,,,4,,,41,64
382915,note_on,175,0,1,,,,,,,,0,,,69,0
382920,note_on,5,0,1,,,,,,,,0,,,70,64
383025,note_on,225,0,6,,,,,,,,5,,,41,0
383025,note_on,225,0,5,,,,,,,,4,,,41,0
383035,note_on,115,0,1,,,,,,,,0,,,70,0
383040,note_on,5,0,1,,,,,,,,0,,,70,64
383040,note_on,10355,0,3,,,,,,,,2,,,70,64
383040,note_on,15,0,6,,,,,,,,5,,,58,85
383040,note_on,10355,0,2,,,,,,,,1,,,70,64
383040,note_on,15,0,5,,,,,,,,4,,,58,85
383040,note_on,27635,0,4,,,,,,,,3,,,65,85
383100,note_on,60,0,4,,,,,,,,3,,,65,0
383100,note_on,60,0,6,,,,,,,,5,,,58,0
383100,note_on,60,0,5,,,,,,,,4,,,58,0
383155,note_on,115,0,3,,,,,,,,2,,,70,0
383155,note_on,115,0,2,,,,,,,,1,,,70,0
383155,note_on,115,0,1,,,,,,,,0,,,70,0
383160,note_on,5,0,3,,,,,,,,2,,,74,64
383160,note_on,5,0,2,,,,,,,,1,,,74,64
383160,note_on,5,0,1,,,,,,,,0,,,74,64
383275,note_on,115,0,3,,,,,,,,2,,,74,0
383275,note_on,115,0,1,,,,,,,,0,,,74,0
383275,note_on,115,0,2,,,,,,,,1,,,74,0
383280,note_on,180,0,5,,,,,,,,4,,,62,85
383280,note_on,5,0,2,,,,,,,,1,,,77,64
383280,note_on,180,0,6,,,,,,,,5,,,62,85
383280,note_on,5,0,1,,,,,,,,0,,,77,64
383280,note_on,180,0,4,,,,,,,,3,,,65,85
383280,note_on,5,0,3,,,,,,,,2,,,77,64
383395,note_on,115,0,4,,,,,,,,3,,,65,0
383395,note_on,115,0,6,,,,,,,,5,,,62,0
383395,note_on,115,0,5,,,,,,,,4,,,62,0
383400,note_on,5,0,6,,,,,,,,5,,,60,85
383400,note_on,5,0,5,,,,,,,,4,,,60,85
383400,note_on,5,0,4,,,,,,,,3,,,63,85
383505,note_on,225,0,2,,,,,,,,1,,,77,0
383505,note_on,225,0,3,,,,,,,,2,,,77,0
383505,note_on,225,0,1,,,,,,,,0,,,77,0
383515,note_on,115,0,5,,,,,,,,4,,,60,0
383515,note_on,115,0,4,,,,,,,,3,,,63,0
383515,note_on,115,0,6,,,,,,,,5,,,60,0
383520,note_on,5,0,5,,,,,,,,4,,,58,85
383520,note_on,5,0,4,,,,,,,,3,,,62,85
383520,note_on,15,0,3,,,,,,,,2,,,82,64
383520,note_on,15,0,2,,,,,,,,1,,,82,64
383520,note_on,15,0,1,,,,,,,,0,,,82,64
383520,note_on,5,0,6,,,,,,,,5,,,58,85
383580,note_on,60,0,1,,,,,,,,0,,,82,0
383580,note_on,60,0,2,,,,,,,,1,,,82,0
383580,note_on,60,0,3,,,,,,,,2,,,82,0
383745,note_on,225,0,6,,,,,,,,5,,,58,0
383745,note_on,225,0,4,,,,,,,,3,,,62,0
383745,note_on,225,0,5,,,,,,,,4,,,58,0
383760,note_on,180,0,1,,,,,,,,0,,,70,64
383760,note_on,180,0,2,,,,,,,,1,,,70,64
383760,note_on,15,0,4,,,,,,,,3,,,62,85
383760,note_on,15,0,5,,,,,,,,4,,,46,85
383760,note_on,180,0,3,,,,,,,,2,,,70,64
383760,note_on,15,0,6,,,,,,,,5,,,46,85
383820,note_on,60,0,3,,,,,,,,2,,,70,0
383820,note_on,60,0,5,,,,,,,,4,,,46,0
383820,note_on,60,0,6,,,,,,,,5,,,46,0
383820,note_on,60,0,4,,,,,,,,3,,,62,0
383820,note_on,60,0,1,,,,,,,,0,,,70,0
383820,note_on,60,0,2,,,,,,,,1,,,70,0
384000,note_on,180,0,3,,,,,,,,2,,,65,64
384000,note_on,180,0,2,,,,,,,,1,,,65,64
384000,note_on,180,0,5,,,,,,,,4,,,50,85
384000,note_on,180,0,6,,,,,,,,5,,,50,85
384000,note_on,180,0,4,,,,,,,,3,,,65,85
384000,note_on,180,0,1,,,,,,,,0,,,65,64
384060,note_on,60,0,3,,,,,,,,2,,,65,0
384060,note_on,60,0,1,,,,,,,,0,,,65,0
384060,note_on,60,0,2,,,,,,,,1,,,65,0
384115,note_on,115,0,6,,,,,,,,5,,,50,0
384115,note_on,115,0,4,,,,,,,,3,,,65,0
384115,note_on,115,0,5,,,,,,,,4,,,50,0
384120,note_on,5,0,5,,,,,,,,4,,,48,85
384120,note_on,5,0,4,,,,,,,,3,,,63,85
384120,note_on,5,0,6,,,,,,,,5,,,48,85
384235,note_on,115,0,4,,,,,,,,3,,,63,0
384235,note_on,115,0,6,,,,,,,,5,,,48,0
384235,note_on,115,0,5,,,,,,,,4,,,48,0
384240,note_on,180,0,1,,,,,,,,0,,,58,64
384240,note_on,5,0,4,,,,,,,,3,,,62,85
384240,note_on,180,0,3,,,,,,,,2,,,58,64
384240,note_on,5,0,6,,,,,,,,5,,,46,85
384240,note_on,5,0,5,,,,,,,,4,,,46,85
384240,note_on,180,0,2,,,,,,,,1,,,58,64
384300,note_on,60,0,1,,,,,,,,0,,,58,0
384300,note_on,60,0,2,,,,,,,,1,,,58,0
384300,note_on,60,0,3,,,,,,,,2,,,58,0
384465,note_on,225,0,6,,,,,,,,5,,,46,0
384465,note_on,225,0,4,,,,,,,,3,,,62,0
384465,note_on,225,0,5,,,,,,,,4,,,46,0
384480,note_on,15,0,5,,,,,,,,4,,,58,85
384480,note_on,180,0,1,,,,,,,,0,,,70,64
384480,note_on,180,0,3,,,,,,,,2,,,70,64
384480,note_on,15,0,4,,,,,,,,3,,,65,85
384480,note_on,180,0,2,,,,,,,,1,,,70,64
384480,note_on,15,0,6,,,,,,,,5,,,58,85
384540,note_on,60,0,5,,,,,,,,4,,,58,0
384540,note_on,60,0,4,,,,,,,,3,,,65,0
384540,note_on,60,0,6,,,,,,,,5,,,58,0
384595,note_on,115,0,1,,,,,,,,0,,,70,0
384595,note_on,115,0,2,,,,,,,,1,,,70,0
384595,note_on,115,0,3,,,,,,,,2,,,70,0
384600,note_on,5,0,2,,,,,,,,1,,,74,64
384600,note_on,5,0,3,,,,,,,,2,,,74,64
384600,note_on,5,0,1,,,,,,,,0,,,74,64
384715,note_on,115,0,2,,,,,,,,1,,,74,0
384715,note_on,115,0,3,,,,,,,,2,,,74,0
384715,note_on,115,0,1,,,,,,,,0,,,74,0
384720,note_on,5,0,2,,,,,,,,1,,,77,64
384720,note_on,5,0,3,,,,,,,,2,,,77,64
384720,note_on,180,0,6,,,,,,,,5,,,62,85
384720,note_on,180,0,4,,,,,,,,3,,,65,85
384720,note_on,180,0,5,,,,,,,,4,,,62,85
384720,note_on,5,0,1,,,,,,,,0,,,77,64
384835,note_on,115,0,6,,,,,,,,5,,,62,0
384835,note_on,115,0,5,,,,,,,,4,,,62,0
384835,note_on,115,0,4,,,,,,,,3,,,65,0
384840,note_on,5,0,4,,,,,,,,3,,,63,85
384840,note_on,5,0,6,,,,,,,,5,,,60,85
384840,note_on,5,0,5,,,,,,,,4,,,60,85
384945,note_on,225,0,2,,,,,,,,1,,,77,0
384945,note_on,225,0,3,,,,,,,,2,,,77,0
384945,note_on,225,0,1,,,,,,,,0,,,77,0
384955,note_on,115,0,6,,,,,,,,5,,,60,0
384955,note_on,115,0,5,,,,,,,,4,,,60,0
384955,note_on,115,0,4,,,,,,,,3,,,63,0
384960,note_on,5,0,5,,,,,,,,4,,,58,85
384960,note_on,5,0,6,,,,,,,,5,,,58,85
384960,note_on,15,0,2,,,,,,,,1,,,82,64
384960,note_on,15,0,1,,,,,,,,0,,,82,64
384960,note_on,5,0,4,,,,,,,,3,,,62,85
384960,note_on,15,0,3,,,,,,,,2,,,82,64
385020,note_on,60,0,3,,,,,,,,2,,,82,0
385020,note_on,60,0,1,,,,,,,,0,,,82,0
385020,note_on,60,0,2,,,,,,,,1,,,82,0
385185,note_on,225,0,6,,,,,,,,5,,,58,0
385185,note_on,225,0,4,,,,,,,,3,,,62,0
385185,note_on,225,0,5,,,,,,,,4,,,58,0
385200,note_on,180,0,1,,,,,,,,0,,,70,64
385200,note_on,180,0,3,,,,,,,,2,,,70,64
385200,note_on,15,0,4,,,,,,,,3,,,62,85
385200,note_on,180,0,2,,,,,,,,1,,,70,64
385200,note_on,15,0,5,,,,,,,,4,,,46,85
385200,note_on,15,0,6,,,,,,,,5,,,46,85
385260,note_on,60,0,4,,,,,,,,3,,,62,0
385260,note_on,60,0,2,,,,,,,,1,,,70,0
385260,note_on,60,0,5,,,,,,,,4,,,46,0
385260,note_on,60,0,6,,,,,,,,5,,,46,0
385260,note_on,60,0,3,,,,,,,,2,,,70,0
385260,note_on,60,0,1,,,,,,,,0,,,70,0
385440,note_on,180,0,6,,,,,,,,5,,,50,85
385440,note_on,180,0,4,,,,,,,,3,,,65,85
385440,note_on,180,0,1,,,,,,,,0,,,65,64
385440,note_on,180,0,2,,,,,,,,1,,,65,64
385440,note_on,180,0,5,,,,,,,,4,,,50,85
385440,note_on,180,0,3,,,,,,,,2,,,65,64
385500,note_on,60,0,2,,,,,,,,1,,,65,0
385500,note_on,60,0,3,,,,,,,,2,,,65,0
385500,note_on,60,0,1,,,,,,,,0,,,65,0
385555,note_on,115,0,4,,,,,,,,3,,,65,0
385555,note_on,115,0,5,,,,,,,,4,,,50,0
385555,note_on,115,0,6,,,,,,,,5,,,50,0
385560,note_on,5,0,5,,,,,,,,4,,,48,85
385560,note_on,5,0,4,,,,,,,,3,,,63,85
385560,note_on,5,0,6,,,,,,,,5,,,48,85
385675,note_on,115,0,6,,,,,,,,5,,,48,0
385675,note_on,115,0,5,,,,,,,,4,,,48,0
385675,note_on,115,0,4,,,,,,,,3,,,63,0
385680,note_on,5,0,6,,,,,,,,5,,,46,85
385680,note_on,180,0,1,,,,,,,,0,,,58,64
385680,note_on,5,0,4,,,,,,,,3,,,62,85
385680,note_on,5,0,5,,,,,,,,4,,,46,85
385680,note_on,180,0,3,,,,,,,,2,,,58,64
385680,note_on,180,0,2,,,,,,,,1,,,58,64
385740,note_on,60,0,1,,,,,,,,0,,,58,0
385740,note_on,60,0,2,,,,,,,,1,,,58,0
385740,note_on,60,0,3,,,,,,,,2,,,58,0
385905,note_on,225,0,4,,,,,,,,3,,,62,0
385905,note_on,225,0,5,,,,,,,,4,,,46,0
385905,note_on,225,0,6,,,,,,,,5,,,46,0
385920,note_on,180,0,1,,,,,,,,0,,,82,64
385920,note_on,15,0,6,,,,,,,,5,,,58,85
385920,note_on,180,0,3,,,,,,,,2,,,82,64
385920,note_on,15,0,4,,,,,,,,3,,,74,85
385920,note_on,180,0,2,,,,,,,,1,,,82,64
385920,note_on,15,0,5,,,,,,,,4,,,58,85
386035,note_on,115,0,1,,,,,,,,0,,,82,0
386035,note_on,115,0,2,,,,,,,,1,,,82,0
386035,note_on,115,0,3,,,,,,,,2,,,82,0
386040,note_on,5,0,2,,,,,,,,1,,,70,64
386040,note_on,5,0,1,,,,,,,,0,,,70,64
386040,note_on,5,0,3,,,,,,,,2,,,70,64
386145,note_on,225,0,4,,,,,,,,3,,,74,0
386145,note_on,225,0,6,,,,,,,,5,,,58,0
386145,note_on,225,0,5,,,,,,,,4,,,58,0
386155,note_on,115,0,1,,,,,,,,0,,,70,0
386155,note_on,115,0,2,,,,,,,,1,,,70,0
386155,note_on,115,0,3,,,,,,,,2,,,70,0
386160,note_on,15,0,6,,,,,,,,5,,,58,85
386160,note_on,15,0,5,,,,,,,,4,,,58,85
386160,note_on,5,0,3,,,,,,,,2,,,82,64
386160,note_on,5,0,1,,,,,,,,0,,,82,64
386160,note_on,5,0,2,,,,,,,,1,,,82,64
386160,note_on,15,0,4,,,,,,,,3,,,74,85
386385,note_on,225,0,5,,,,,,,,4,,,58,0
386385,note_on,225,0,4,,,,,,,,3,,,74,0
386385,note_on,225,0,6,,,,,,,,5,,,58,0
386400,note_on,15,0,4,,,,,,,,3,,,74,85
386400,note_on,15,0,6,,,,,,,,5,,,58,85
386400,note_on,15,0,5,,,,,,,,4,,,58,85
386605,note_on,445,0,3,,,,,,,,2,,,82,0
386605,note_on,445,0,1,,,,,,,,0,,,82,0
386605,note_on,445,0,2,,,,,,,,1,,,82,0
386625,note_on,225,0,6,,,,,,,,5,,,58,0
386625,note_on,225,0,4,,,,,,,,3,,,74,0
386625,note_on,225,0,5,,,,,,,,4,,,58,0
386640,note_on,15,0,4,,,,,,,,3,,,72,85
386640,note_on,15,0,6,,,,,,,,5,,,57,85
386640,note_on,35,0,3,,,,,,,,2,,,82,64
386640,note_on,15,0,5,,,,,,,,4,,,57,85
386640,note_on,35,0,1,,,,,,,,0,,,82,64
386640,note_on,35,0,2,,,,,,,,1,,,82,64
386755,note_on,115,0,1,,,,,,,,0,,,82,0
386755,note_on,115,0,2,,,,,,,,1,,,82,0
386755,note_on,115,0,3,,,,,,,,2,,,82,0
386760,note_on,5,0,2,,,,,,,,1,,,70,64
386760,note_on,5,0,1,,,,,,,,0,,,70,64
386760,note_on,5,0,3,,,,,,,,2,,,70,64
386865,note_on,225,0,4,,,,,,,,3,,,72,0
386865,note_on,225,0,5,,,,,,,,4,,,57,0
386865,note_on,225,0,6,,,,,,,,5,,,57,0
386875,note_on,115,0,1,,,,,,,,0,,,70,0
386875,note_on,115,0,2,,,,,,,,1,,,70,0
386875,note_on,115,0,3,,,,,,,,2,,,70,0
386880,note_on,5,0,2,,,,,,,,1,,,82,64
386880,note_on,15,0,4,,,,,,,,3,,,72,85
386880,note_on,15,0,6,,,,,,,,5,,,57,85
386880,note_on,5,0,3,,,,,,,,2,,,82,64
386880,note_on,5,0,1,,,,,,,,0,,,82,64
386880,note_on,15,0,5,,,,,,,,4,,,57,85
387105,note_on,225,0,6,,,,,,,,5,,,57,0
387105,note_on,225,0,4,,,,,,,,3,,,72,0
387105,note_on,225,0,5,,,,,,,,4,,,57,0
387120,note_on,15,0,6,,,,,,,,5,,,57,85
387120,note_on,15,0,4,,,,,,,,3,,,72,85
387120,note_on,15,0,5,,,,,,,,4,,,57,85
387325,note_on,445,0,1,,,,,,,,0,,,82,0
387325,note_on,445,0,3,,,,,,,,2,,,82,0
387325,note_on,445,0,2,,,,,,,,1,,,82,0
387345,note_on,225,0,4,,,,,,,,3,,,72,0
387345,note_on,225,0,5,,,,,,,,4,,,57,0
387345,note_on,225,0,6,,,,,,,,5,,,57,0
387360,note_on,35,0,1,,,,,,,,0,,,82,64
387360,note_on,15,0,6,,,,,,,,5,,,55,85
387360,note_on,35,0,2,,,,,,,,1,,,82,64
387360,note_on,15,0,5,,,,,,,,4,,,55,85
387360,note_on,35,0,3,,,,,,,,2,,,82,64
387360,note_on,15,0,4,,,,,,,,3,,,70,85
387475,note_on,115,0,1,,,,,,,,0,,,82,0
387475,note_on,115,0,2,,,,,,,,1,,,82,0
387475,note_on,115,0,3,,,,,,,,2,,,82,0
387480,note_on,5,0,3,,,,,,,,2,,,70,64
387480,note_on,5,0,2,,,,,,,,1,,,70,64
387480,note_on,5,0,1,,,,,,,,0,,,70,64
387585,note_on,225,0,4,,,,,,,,3,,,70,0
387585,note_on,225,0,6,,,,,,,,5,,,55,0
387585,note_on,225,0,5,,,,,,,,4,,,55,0
387595,note_on,115,0,3,,,,,,,,2,,,70,0
387595,note_on,115,0,1,,,,,,,,0,,,70,0
387595,note_on,115,0,2,,,,,,,,1,,,70,0
387600,note_on,15,0,4,,,,,,,,3,,,70,85
387600,note_on,15,0,6,,,,,,,,5,,,55,85
387600,note_on,5,0,1,,,,,,,,0,,,82,64
387600,note_on,5,0,3,,,,,,,,2,,,82,64
387600,note_on,15,0,5,,,,,,,,4,,,55,85
387600,note_on,5,0,2,,,,,,,,1,,,82,64
387825,note_on,225,0,6,,,,,,,,5,,,55,0
387825,note_on,225,0,5,,,,,,,,4,,,55,0
387825,note_on,225,0,4,,,,,,,,3,,,70,0
387840,note_on,15,0,6,,,,,,,,5,,,55,85
387840,note_on,15,0,5,,,,,,,,4,,,55,85
387840,note_on,15,0,4,,,,,,,,3,,,70,85
388045,note_on,445,0,1,,,,,,,,0,,,82,0
388045,note_on,445,0,2,,,,,,,,1,,,82,0
388045,note_on,445,0,3,,,,,,,,2,,,82,0
388065,note_on,225,0,4,,,,,,,,3,,,70,0
388065,note_on,225,0,5,,,,,,,,4,,,55,0
388065,note_on,225,0,6,,,,,,,,5,,,55,0
388080,note_on,15,0,6,,,,,,,,5,,,53,85
388080,note_on,15,0,4,,,,,,,,3,,,69,85
388080,note_on,35,0,2,,,,,,,,1,,,82,64
388080,note_on,35,0,3,,,,,,,,2,,,82,64
388080,note_on,15,0,5,,,,,,,,4,,,53,85
388080,note_on,35,0,1,,,,,,,,0,,,82,64
388195,note_on,115,0,3,,,,,,,,2,,,82,0
388195,note_on,115,0,1,,,,,,,,0,,,82,0
388195,note_on,115,0,2,,,,,,,,1,,,82,0
388200,note_on,5,0,3,,,,,,,,2,,,70,64
388200,note_on,5,0,2,,,,,,,,1,,,70,64
388200,note_on,5,0,1,,,,,,,,0,,,70,64
388305,note_on,225,0,4,,,,,,,,3,,,69,0
388305,note_on,225,0,5,,,,,,,,4,,,53,0
388305,note_on,225,0,6,,,,,,,,5,,,53,0
388315,note_on,115,0,1,,,,,,,,0,,,70,0
388315,note_on,115,0,2,,,,,,,,1,,,70,0
388315,note_on,115,0,3,,,,,,,,2,,,70,0
388320,note_on,15,0,4,,,,,,,,3,,,69,85
388320,note_on,5,0,1,,,,,,,,0,,,82,64
388320,note_on,5,0,2,,,,,,,,1,,,82,64
388320,note_on,5,0,3,,,,,,,,2,,,82,64
388320,note_on,15,0,6,,,,,,,,5,,,53,85
388320,note_on,15,0,5,,,,,,,,4,,,53,85
388545,note_on,225,0,5,,,,,,,,4,,,53,0
388545,note_on,225,0,6,,,,,,,,5,,,53,0
388545,note_on,225,0,4,,,,,,,,3,,,69,0
388560,note_on,15,0,6,,,,,,,,5,,,53,85
388560,note_on,15,0,4,,,,,,,,3,,,69,85
388560,note_on,15,0,5,,,,,,,,4,,,53,85
388765,note_on,445,0,1,,,,,,,,0,,,82,0
388765,note_on,445,0,2,,,,,,,,1,,,82,0
388765,note_on,445,0,3,,,,,,,,2,,,82,0
388785,note_on,225,0,4,,,,,,,,3,,,69,0
388785,note_on,225,0,6,,,,,,,,5,,,53,0
388785,note_on,225,0,5,,,,,,,,4,,,53,0
388800,note_on,35,0,1,,,,,,,,0,,,82,64
388800,note_on,15,0,4,,,,,,,,3,,,67,85
388800,note_on,35,0,2,,,,,,,,1,,,82,64
388800,note_on,15,0,5,,,,,,,,4,,,51,85
388800,note_on,15,0,6,,,,,,,,5,,,51,85
388800,note_on,35,0,3,,,,,,,,2,,,82,64
388915,note_on,115,0,3,,,,,,,,2,,,82,0
388915,note_on,115,0,2,,,,,,,,1,,,82,0
388915,note_on,115,0,1,,,,,,,,0,,,82,0
388920,note_on,5,0,3,,,,,,,,2,,,70,64
388920,note_on,5,0,1,,,,,,,,0,,,70,64
388920,note_on,5,0,2,,,,,,,,1,,,70,64
389025,note_on,225,0,5,,,,,,,,4,,,51,0
389025,note_on,225,0,6,,,,,,,,5,,,51,0
389025,note_on,225,0,4,,,,,,,,3,,,67,0
389035,note_on,115,0,1,,,,,,,,0,,,70,0
389035,note_on,115,0,3,,,,,,,,2,,,70,0
389035,note_on,115,0,2,,,,,,,,1,,,70,0
389040,note_on,15,0,4,,,,,,,,3,,,67,85
389040,note_on,5,0,1,,,,,,,,0,,,82,64
389040,note_on,15,0,6,,,,,,,,5,,,51,85
389040,note_on,5,0,2,,,,,,,,1,,,82,64
389040,note_on,5,0,3,,,,,,,,2,,,82,64
389040,note_on,15,0,5,,,,,,,,4,,,51,85
389265,note_on,225,0,6,,,,,,,,5,,,51,0
389265,note_on,225,0,5,,,,,,,,4,,,51,0
389265,note_on,225,0,4,,,,,,,,3,,,67,0
389280,note_on,15,0,4,,,,,,,,3,,,67,85
389280,note_on,15,0,6,,,,,,,,5,,,51,85
389280,note_on,15,0,5,,,,,,,,4,,,51,85
389485,note_on,445,0,2,,,,,,,,1,,,82,0
389485,note_on,445,0,1,,,,,,,,0,,,82,0
389485,note_on,445,0,3,,,,,,,,2,,,82,0
389505,note_on,225,0,5,,,,,,,,4,,,51,0
389505,note_on,225,0,6,,,,,,,,5,,,51,0
389505,note_on,225,0,4,,,,,,,,3,,,67,0
389520,note_on,35,0,2,,,,,,,,1,,,74,64
389520,note_on,15,0,5,,,,,,,,4,,,58,85
389520,note_on,15,0,6,,,,,,,,5,,,58,85
389520,note_on,35,0,3,,,,,,,,2,,,74,64
389520,note_on,35,0,1,,,,,,,,0,,,74,64
389520,note_on,15,0,4,,,,,,,,3,,,65,85
389580,note_on,60,0,3,,,,,,,,2,,,74,0
389580,note_on,60,0,2,,,,,,,,1,,,74,0
389580,note_on,60,0,1,,,,,,,,0,,,74,0
389745,note_on,225,0,4,,,,,,,,3,,,65,0
389745,note_on,225,0,5,,,,,,,,4,,,58,0
389745,note_on,225,0,6,,,,,,,,5,,,58,0
389760,note_on,15,0,4,,,,,,,,3,,,72,85
389760,note_on,15,0,6,,,,,,,,5,,,51,85
389760,note_on,180,0,1,,,,,,,,0,,,75,64
389760,note_on,180,0,3,,,,,,,,2,,,75,64
389760,note_on,15,0,5,,,,,,,,4,,,51,85
389760,note_on,180,0,2,,,,,,,,1,,,75,64
389820,note_on,60,0,2,,,,,,,,1,,,75,0
389820,note_on,60,0,1,,,,,,,,0,,,75,0
389820,note_on,60,0,3,,,,,,,,2,,,75,0
389985,note_on,225,0,4,,,,,,,,3,,,72,0
389985,note_on,225,0,5,,,,,,,,4,,,51,0
389985,note_on,225,0,6,,,,,,,,5,,,51,0
390000,note_on,180,0,2,,,,,,,,1,,,72,64
390000,note_on,180,0,1,,,,,,,,0,,,72,64
390000,note_on,15,0,4,,,,,,,,3,,,69,85
390000,note_on,180,0,3,,,,,,,,2,,,72,64
390000,note_on,15,0,5,,,,,,,,4,,,53,85
390000,note_on,15,0,6,,,,,,,,5,,,53,85
390060,note_on,60,0,1,,,,,,,,0,,,72,0
390060,note_on,60,0,2,,,,,,,,1,,,72,0
390060,note_on,60,0,3,,,,,,,,2,,,72,0
390225,note_on,225,0,4,,,,,,,,3,,,69,0
390225,note_on,225,0,5,,,,,,,,4,,,53,0
390225,note_on,225,0,6,,,,,,,,5,,,53,0
390240,note_on,15,0,4,,,,,,,,3,,,70,85
390240,note_on,180,0,3,,,,,,,,2,,,70,64
390240,note_on,180,0,2,,,,,,,,1,,,70,64
390240,note_on,15,0,5,,,,,,,,4,,,58,85
390240,note_on,180,0,1,,,,,,,,0,,,70,64
390240,note_on,15,0,6,,,,,,,,5,,,58,85
390465,note_on,225,0,6,,,,,,,,5,,,58,0
390465,note_on,225,0,5,,,,,,,,4,,,58,0
390465,note_on,225,0,4,,,,,,,,3,,,70,0
390465,note_on,225,0,2,,,,,,,,1,,,70,0
390465,note_on,225,0,1,,,,,,,,0,,,70,0
390465,note_on,225,0,3,,,,,,,,2,,,70,0
390480,note_on,15,0,6,,,,,,,,5,,,57,85
390480,note_on,15,0,5,,,,,,,,4,,,57,85
390480,note_on,15,0,4,,,,,,,,3,,,69,85
390480,note_on,15,0,3,,,,,,,,2,,,69,64
390480,note_on,15,0,2,,,,,,,,1,,,69,64
390480,note_on,15,0,1,,,,,,,,0,,,69,64
390595,note_on,115,0,1,,,,,,,,0,,,69,0
390595,note_on,115,0,4,,,,,,,,3,,,69,0
390595,note_on,115,0,3,,,,,,,,2,,,69,0
390595,note_on,115,0,2,,,,,,,,1,,,69,0
390595,note_on,115,0,5,,,,,,,,4,,,57,0
390595,note_on,115,0,6,,,,,,,,5,,,57,0
390600,note_on,5,0,2,,,,,,,,1,,,67,64
390600,note_on,5,0,3,,,,,,,,2,,,67,64
390600,note_on,5,0,5,,,,,,,,4,,,55,85
390600,note_on,5,0,6,,,,,,,,5,,,55,85
390600,note_on,5,0,4,,,,,,,,3,,,67,85
390600,note_on,5,0,1,,,,,,,,0,,,67,64
390715,note_on,115,0,2,,,,,,,,1,,,67,0
390715,note_on,115,0,5,,,,,,,,4,,,55,0
390715,note_on,115,0,3,,,,,,,,2,,,67,0
390715,note_on,115,0,6,,,,,,,,5,,,55,0
390715,note_on,115,0,4,,,,,,,,3,,,67,0
390715,note_on,115,0,1,,,,,,,,0,,,67,0
390720,note_on,5,0,5,,,,,,,,4,,,53,85
390720,note_on,5,0,2,,,,,,,,1,,,65,64
390720,note_on,5,0,4,,,,,,,,3,,,65,85
390720,note_on,5,0,6,,,,,,,,5,,,53,85
390720,note_on,5,0,1,,,,,,,,0,,,65,64
390720,note_on,5,0,3,,,,,,,,2,,,65,64
390835,note_on,115,0,1,,,,,,,,0,,,65,0
390835,note_on,115,0,5,,,,,,,,4,,,53,0
390835,note_on,115,0,4,,,,,,,,3,,,65,0
390835,note_on,115,0,2,,,,,,,,1,,,65,0
390835,note_on,115,0,6,,,,,,,,5,,,53,0
390835,note_on,115,0,3,,,,,,,,2,,,65,0
390840,note_on,5,0,4,,,,,,,,3,,,63,85
390840,note_on,5,0,3,,,,,,,,2,,,63,64
390840,note_on,5,0,2,,,,,,,,1,,,63,64
390840,note_on,5,0,6,,,,,,,,5,,,51,85
390840,note_on,5,0,5,,,,,,,,4,,,51,85
390840,note_on,5,0,1,,,,,,,,0,,,63,64
390955,note_on,115,0,4,,,,,,,,3,,,63,0
390955,note_on,115,0,3,,,,,,,,2,,,63,0
390955,note_on,115,0,1,,,,,,,,0,,,63,0
390955,note_on,115,0,2,,,,,,,,1,,,63,0
390955,note_on,115,0,6,,,,,,,,5,,,51,0
390955,note_on,115,0,5,,,,,,,,4,,,51,0
390960,note_on,5,0,1,,,,,,,,0,,,62,64
390960,note_on,5,0,4,,,,,,,,3,,,62,85
390960,note_on,5,0,2,,,,,,,,1,,,62,64
390960,note_on,5,0,3,,,,,,,,2,,,62,64
390960,note_on,5,0,6,,,,,,,,5,,,50,85
390960,note_on,5,0,5,,,,,,,,4,,,50,85
391020,note_on,60,0,1,,,,,,,,0,,,62,0
391020,note_on,60,0,4,,,,,,,,3,,,62,0
391020,note_on,60,0,3,,,,,,,,2,,,62,0
391020,note_on,60,0,2,,,,,,,,1,,,62,0
391020,note_on,60,0,5,,,,,,,,4,,,50,0
391020,note_on,60,0,6,,,,,,,,5,,,50,0
391200,note_on,180,0,2,,,,,,,,1,,,58,64
391200,note_on,180,0,1,,,,,,,,0,,,58,64
391200,note_on,180,0,5,,,,,,,,4,,,46,85
391200,note_on,180,0,3,,,,,,,,2,,,58,64
391200,note_on,180,0,6,,,,,,,,5,,,46,85
391200,note_on,180,0,4,,,,,,,,3,,,58,85
391260,note_on,60,0,4,,,,,,,,3,,,58,0
391260,note_on,60,0,5,,,,,,,,4,,,46,0
391260,note_on,60,0,1,,,,,,,,0,,,58,0
391260,note_on,60,0,3,,,,,,,,2,,,58,0
391260,note_on,60,0,6,,,,,,,,5,,,46,0
391260,note_on,60,0,2,,,,,,,,1,,,58,0
391440,note_on,180,0,3,,,,,,,,2,,,65,64
391440,note_on,180,0,1,,,,,,,,0,,,65,64
391440,note_on,180,0,2,,,,,,,,1,,,65,64
391440,note_on,180,0,6,,,,,,,,5,,,53,85
391440,note_on,180,0,5,,,,,,,,4,,,53,85
391440,note_on,180,0,4,,,,,,,,3,,,65,85
391500,note_on,60,0,6,,,,,,,,5,,,53,0
391500,note_on,60,0,2,,,,,,,,1,,,65,0
391500,note_on,60,0,4,,,,,,,,3,,,65,0
391500,note_on,60,0,1,,,,,,,,0,,,65,0
391500,note_on,60,0,5,,,,,,,,4,,,53,0
391500,note_on,60,0,3,,,,,,,,2,,,65,0
391680,note_on,180,0,5,,,,,,,,4,,,51,85
391680,note_on,180,0,3,,,,,,,,2,,,63,64
391680,note_on,180,0,1,,,,,,,,0,,,63,64
391680,note_on,180,0,2,,,,,,,,1,,,63,64
391680,note_on,180,0,4,,,,,,,,3,,,63,85
391680,note_on,180,0,6,,,,,,,,5,,,51,85
391740,note_on,60,0,1,,,,,,,,0,,,63,0
391740,note_on,60,0,2,,,,,,,,1,,,63,0
391740,note_on,60,0,4,,,,,,,,3,,,63,0
391740,note_on,60,0,3,,,,,,,,2,,,63,0
391740,note_on,60,0,6,,,,,,,,5,,,51,0
391740,note_on,60,0,5,,,,,,,,4,,,51,0
391920,note_on,180,0,4,,,,,,,,3,,,60,85
391920,note_on,180,0,6,,,,,,,,5,,,48,85
391920,note_on,180,0,5,,,,,,,,4,,,48,85
391920,note_on,180,0,3,,,,,,,,2,,,60,64
391920,note_on,180,0,2,,,,,,,,1,,,60,64
391920,note_on,180,0,1,,,,,,,,0,,,60,64
391980,note_on,60,0,4,,,,,,,,3,,,60,0
391980,note_on,60,0,2,,,,,,,,1,,,60,0
391980,note_on,60,0,5,,,,,,,,4,,,48,0
391980,note_on,60,0,6,,,,,,,,5,,,48,0
391980,note_on,60,0,1,,,,,,,,0,,,60,0
391980,note_on,60,0,3,,,,,,,,2,,,60,0
392160,note_on,180,0,1,,,,,,,,0,,,65,64
392160,note_on,180,0,6,,,,,,,,5,,,53,85
392160,note_on,180,0,2,,,,,,,,1,,,65,64
392160,note_on,180,0,5,,,,,,,,4,,,53,85
392160,note_on,180,0,4,,,,,,,,3,,,65,85
392160,note_on,180,0,3,,,,,,,,2,,,65,64
392220,note_on,60,0,2,,,,,,,,1,,,65,0
392220,note_on,60,0,5,,,,,,,,4,,,53,0
392220,note_on,60,0,4,,,,,,,,3,,,65,0
392220,note_on,60,0,1,,,,,,,,0,,,65,0
392220,note_on,60,0,6,,,,,,,,5,,,53,0
392220,note_on,60,0,3,,,,,,,,2,,,65,0
392400,note_on,180,0,6,,,,,,,,5,,,46,85
392400,note_on,180,0,1,,,,,,,,0,,,58,64
392400,note_on,180,0,5,,,,,,,,4,,,46,85
392400,note_on,180,0,3,,,,,,,,2,,,58,64
392400,note_on,180,0,2,,,,,,,,1,,,58,64
392400,note_on,180,0,4,,,,,,,,3,,,58,85
392845,note_on,445,0,1,,,,,,,,0,,,58,0
392845,note_on,445,0,5,,,,,,,,4,,,46,0
392845,note_on,445,0,6,,,,,,,,5,,,46,0
392845,note_on,445,0,4,,,,,,,,3,,,58,0
392845,note_on,445,0,3,,,,,,,,2,,,58,0
392845,note_on,445,0,2,,,,,,,,1,,,58,0
392880,note_on,35,0,4,,,,,,,,3,,,65,49
392880,note_on,35,0,6,,,,,,,,5,,,53,49
392880,note_on,35,0,5,,,,,,,,4,,,53,49
392880,note_on,35,0,1,,,,,,,,0,,,65,49
392880,note_on,35,0,2,,,,,,,,1,,,65,49
392880,note_on,35,0,3,,,,,,,,2,,,65,49
393105,note_on,225,0,3,,,,,,,,2,,,65,0
393105,note_on,225,0,5,,,,,,,,4,,,53,0
393105,note_on,225,0,1,,,,,,,,0,,,65,0
393105,note_on,225,0,2,,,,,,,,1,,,65,0
393105,note_on,225,0,6,,,,,,,,5,,,53,0
393105,note_on,225,0,4,,,,,,,,3,,,65,0
393120,note_on,15,0,4,,,,,,,,3,,,63,49
393120,note_on,15,0,6,,,,,,,,5,,,51,49
393120,note_on,15,0,5,,,,,,,,4,,,51,49
393120,note_on,15,0,1,,,,,,,,0,,,63,49
393120,note_on,15,0,2,,,,,,,,1,,,63,49
393120,note_on,15,0,3,,,,,,,,2,,,63,49
393180,note_on,60,0,3,,,,,,,,2,,,63,0
393180,note_on,60,0,6,,,,,,,,5,,,51,0
393180,note_on,60,0,5,,,,,,,,4,,,51,0
393180,note_on,60,0,2,,,,,,,,1,,,63,0
393180,note_on,60,0,1,,,,,,,,0,,,63,0
393180,note_on,60,0,4,,,,,,,,3,,,63,0
393360,note_on,180,0,6,,,,,,,,5,,,48,49
393360,note_on,180,0,2,,,,,,,,1,,,60,49
393360,note_on,180,0,4,,,,,,,,3,,,60,49
393360,note_on,180,0,1,,,,,,,,0,,,60,49
393360,note_on,180,0,3,,,,,,,,2,,,60,49
393360,note_on,180,0,5,,,,,,,,4,,,48,49
393420,note_on,60,0,4,,,,,,,,3,,,60,0
393420,note_on,60,0,6,,,,,,,,5,,,48,0
393420,note_on,60,0,3,,,,,,,,2,,,60,0
393420,note_on,60,0,1,,,,,,,,0,,,60,0
393420,note_on,60,0,5,,,,,,,,4,,,48,0
393420,note_on,60,0,2,,,,,,,,1,,,60,0
393600,note_on,180,0,5,,,,,,,,4,,,53,49
393600,note_on,180,0,4,,,,,,,,3,,,65,49
393600,note_on,180,0,6,,,,,,,,5,,,53,49
393600,note_on,180,0,1,,,,,,,,0,,,65,49
393600,note_on,180,0,3,,,,,,,,2,,,65,49
393600,note_on,180,0,2,,,,,,,,1,,,65,49
393660,note_on,60,0,6,,,,,,,,5,,,53,0
393660,note_on,60,0,2,,,,,,,,1,,,65,0
393660,note_on,60,0,4,,,,,,,,3,,,65,0
393660,note_on,60,0,3,,,,,,,,2,,,65,0
393660,note_on,60,0,5,,,,,,,,4,,,53,0
393660,note_on,60,0,1,,,,,,,,0,,,65,0
393960,note_on,300,0,4,,,,,,,,3,,,58,49
393960,note_on,300,0,1,,,,,,,,0,,,58,49
393960,note_on,300,0,6,,,,,,,,5,,,46,49
393960,note_on,300,0,2,,,,,,,,1,,,58,49
393960,note_on,300,0,5,,,,,,,,4,,,46,49
393960,note_on,300,0,3,,,,,,,,2,,,58,49
394555,note_on,595,0,3,,,,,,,,2,,,58,0
394555,note_on,595,0,6,,,,,,,,5,,,46,0
394555,end_of_track,0,1,2,,,,,,,,,,,,
394555,note_on,595,0,2,,,,,,,,1,,,58,0
394555,end_of_track,0,1,1,,,,,,,,,,,,
394555,end_of_track,0,1,3,,,,,,,,,,,,
394555,end_of_track,0,1,5,,,,,,,,,,,,
394555,note_on,595,0,5,,,,,,,,4,,,46,0
394555,end_of_track,0,1,4,,,,,,,,,,,,
394555,note_on,595,0,4,,,,,,,,3,,,58,0
394555,end_of_track,0,1,6,,,,,,,,,,,,
394555,note_on,595,0,1,,,,,,,,0,,,58,0
