tick,type,time,meta,track,tempo,key,numerator,denominator,clocks_per_click,notated_32nd_notes_per_beat,port,program,channel,control,value,note,velocity
0,track_name,0,1,0,,,,,,,,,,,,,
0,control_change,0,0,4,,,,,,,,,4,7,115,,
0,program_change,0,0,4,,,,,,,,48,4,,,,
0,program_change,0,0,4,,,,,,,,48,4,,,,
0,track_name,0,1,4,,,,,,,,,,,,,
0,midi_port,0,1,4,,,,,,,0,,,,,,
0,time_signature,0,1,3,,,12,8,24,8,,,,,,,
0,key_signature,0,1,3,,A,,,,,,,,,,,
0,control_change,0,0,3,,,,,,,,,2,10,0,,
0,control_change,0,0,3,,,,,,,,,2,7,127,,
0,control_change,0,0,4,,,,,,,,,4,10,64,,
0,program_change,0,0,3,,,,,,,,48,2,,,,
0,track_name,0,1,3,,,,,,,,,,,,,
0,midi_port,0,1,3,,,,,,,0,,,,,,
0,time_signature,0,1,7,,,12,8,24,8,,,,,,,
0,time_signature,0,1,2,,,12,8,24,8,,,,,,,
0,key_signature,0,1,2,,A,,,,,,,,,,,
0,control_change,0,0,2,,,,,,,,,0,10,127,,
0,control_change,0,0,2,,,,,,,,,0,7,127,,
0,program_change,0,0,2,,,,,,,,48,0,,,,
0,program_change,0,0,2,,,,,,,,48,0,,,,
0,program_change,0,0,3,,,,,,,,48,2,,,,
0,track_name,0,1,2,,,,,,,,,,,,,
0,key_signature,0,1,4,,A,,,,,,,,,,,
0,midi_port,0,1,5,,,,,,,0,,,,,,
0,key_signature,0,1,7,,A,,,,,,,,,,,
0,control_change,0,0,7,,,,,,,,,0,10,64,,
0,control_change,0,0,7,,,,,,,,,0,7,127,,
0,track_name,0,1,7,,,,,,,,,,,,,
0,midi_port,0,1,7,,,,,,,0,,,,,,
0,time_signature,0,1,6,,,12,8,24,8,,,,,,,
0,key_signature,0,1,6,,A,,,,,,,,,,,
0,control_change,0,0,6,,,,,,,,,8,10,64,,
0,control_change,0,0,6,,,,,,,,,8,7,115,,
0,time_signature,0,1,4,,,12,8,24,8,,,,,,,
0,program_change,0,0,6,,,,,,,,48,8,,,,
0,track_name,0,1,6,,,,,,,,,,,,,
0,midi_port,0,1,6,,,,,,,0,,,,,,
0,time_signature,0,1,5,,,12,8,24,8,,,,,,,
0,key_signature,0,1,5,,A,,,,,,,,,,,
0,control_change,0,0,5,,,,,,,,,6,10,64,,
0,control_change,0,0,5,,,,,,,,,6,7,115,,
0,program_change,0,0,5,,,,,,,,48,6,,,,
0,program_change,0,0,5,,,,,,,,48,6,,,,
0,track_name,0,1,5,,,,,,,,,,,,,
0,program_change,0,0,6,,,,,,,,48,8,,,,
0,midi_port,0,1,2,,,,,,,0,,,,,,
0,end_of_track,0,1,7,,,,,,,,,,,,,
0,text,0,1,0,,,,,,,,,,,,,
0,midi_port,0,1,1,,,,,,,0,,,,,,
0,program_change,0,0,1,,,,,,,,40,11,,,,
0,control_change,0,0,1,,,,,,,,,11,7,127,,
0,control_change,0,0,1,,,,,,,,,11,10,64,,
0,key_signature,0,1,1,,A,,,,,,,,,,,
0,time_signature,0,1,1,,,12,8,24,8,,,,,,,
0,set_tempo,0,1,0,320855,,,,,,,,,,,,
0,track_name,0,1,1,,,,,,,,,,,,,
0,program_change,0,0,1,,,,,,,,40,11,,,,
0,end_of_track,0,1,0,,,,,,,,,,,,,
0,time_signature,0,1,0,,,12,8,24,8,,,,,,,
0,key_signature,0,1,0,,A,,,,,,,,,,,
1152,note_on,1152,0,4,,,,,,,,,4,,,64,75
1152,note_on,0,0,3,,,,,,,,,2,,,69,110
1152,control_change,1152,0,2,,,,,,,,,0,10,127,,
1152,control_change,1152,0,3,,,,,,,,,2,10,0,,
1152,note_on,1152,0,1,,,,,,,,,11,,,69,110
1152,note_on,1152,0,5,,,,,,,,,6,,,45,92
1152,note_on,1152,0,6,,,,,,,,,8,,,33,92
1152,note_on,0,0,2,,,,,,,,,0,,,69,110
1246,note_on,94,0,1,,,,,,,,,11,,,69,0
1246,note_on,94,0,3,,,,,,,,,2,,,69,0
1246,note_on,94,0,2,,,,,,,,,0,,,69,0
1248,note_on,2,0,1,,,,,,,,,11,,,73,110
1248,note_on,2,0,2,,,,,,,,,0,,,73,110
1248,note_on,2,0,3,,,,,,,,,2,,,73,110
1342,note_on,94,0,2,,,,,,,,,0,,,73,0
1342,note_on,94,0,1,,,,,,,,,11,,,73,0
1342,note_on,94,0,3,,,,,,,,,2,,,73,0
1344,note_on,2,0,2,,,,,,,,,0,,,76,110
1344,note_on,2,0,3,,,,,,,,,2,,,76,110
1344,note_on,2,0,1,,,,,,,,,11,,,76,110
1408,note_on,256,0,4,,,,,,,,,4,,,64,0
1408,note_on,256,0,6,,,,,,,,,8,,,33,0
1408,note_on,256,0,5,,,,,,,,,6,,,45,0
1438,note_on,94,0,3,,,,,,,,,2,,,76,0
1438,note_on,94,0,1,,,,,,,,,11,,,76,0
1438,note_on,94,0,2,,,,,,,,,0,,,76,0
1440,note_on,32,0,4,,,,,,,,,4,,,64,75
1440,note_on,2,0,3,,,,,,,,,2,,,81,110
1440,note_on,2,0,1,,,,,,,,,11,,,81,110
1440,note_on,2,0,2,,,,,,,,,0,,,81,110
1440,note_on,32,0,6,,,,,,,,,8,,,33,92
1440,note_on,32,0,5,,,,,,,,,6,,,45,92
1534,note_on,94,0,2,,,,,,,,,0,,,81,0
1534,note_on,94,0,1,,,,,,,,,11,,,81,0
1534,note_on,94,0,3,,,,,,,,,2,,,81,0
1536,note_on,2,0,2,,,,,,,,,0,,,76,110
1536,note_on,2,0,1,,,,,,,,,11,,,76,110
1536,note_on,2,0,3,,,,,,,,,2,,,76,110
1630,note_on,94,0,3,,,,,,,,,2,,,76,0
1630,note_on,94,0,2,,,,,,,,,0,,,76,0
1630,note_on,94,0,1,,,,,,,,,11,,,76,0
1632,note_on,2,0,2,,,,,,,,,0,,,73,110
1632,note_on,2,0,1,,,,,,,,,11,,,73,110
1632,note_on,2,0,3,,,,,,,,,2,,,73,110
1696,note_on,256,0,6,,,,,,,,,8,,,33,0
1696,note_on,256,0,5,,,,,,,,,6,,,45,0
1696,note_on,256,0,4,,,,,,,,,4,,,64,0
1726,note_on,94,0,3,,,,,,,,,2,,,73,0
1726,note_on,94,0,2,,,,,,,,,0,,,73,0
1726,note_on,94,0,1,,,,,,,,,11,,,73,0
1728,note_on,32,0,6,,,,,,,,,8,,,40,92
1728,note_on,2,0,1,,,,,,,,,11,,,71,110
1728,note_on,32,0,4,,,,,,,,,4,,,68,75
1728,note_on,32,0,5,,,,,,,,,6,,,52,92
1728,note_on,2,0,2,,,,,,,,,0,,,71,110
1728,note_on,2,0,3,,,,,,,,,2,,,71,110
1984,note_on,256,0,4,,,,,,,,,4,,,68,0
1984,note_on,256,0,2,,,,,,,,,0,,,71,0
1984,note_on,256,0,1,,,,,,,,,11,,,71,0
1984,note_on,256,0,6,,,,,,,,,8,,,40,0
1984,note_on,256,0,3,,,,,,,,,2,,,71,0
1984,note_on,256,0,5,,,,,,,,,6,,,52,0
2016,note_on,32,0,3,,,,,,,,,2,,,69,110
2016,note_on,32,0,4,,,,,,,,,4,,,64,75
2016,note_on,32,0,1,,,,,,,,,11,,,69,110
2016,note_on,32,0,5,,,,,,,,,6,,,45,92
2016,note_on,32,0,2,,,,,,,,,0,,,69,110
2016,note_on,32,0,6,,,,,,,,,8,,,33,92
2110,note_on,94,0,3,,,,,,,,,2,,,69,0
2110,note_on,94,0,2,,,,,,,,,0,,,69,0
2110,note_on,94,0,5,,,,,,,,,6,,,45,0
2110,note_on,94,0,1,,,,,,,,,11,,,69,0
2110,note_on,94,0,4,,,,,,,,,4,,,64,0
2110,note_on,94,0,6,,,,,,,,,8,,,33,0
2208,note_on,98,0,2,,,,,,,,,0,,,73,110
2208,note_on,98,0,1,,,,,,,,,11,,,73,110
2208,note_on,98,0,3,,,,,,,,,2,,,73,110
2302,note_on,94,0,1,,,,,,,,,11,,,73,0
2302,note_on,94,0,2,,,,,,,,,0,,,73,0
2302,note_on,94,0,3,,,,,,,,,2,,,73,0
2304,note_on,194,0,5,,,,,,,,,6,,,45,92
2304,note_on,2,0,2,,,,,,,,,0,,,69,110
2304,note_on,2,0,3,,,,,,,,,2,,,69,110
2304,note_on,2,0,1,,,,,,,,,11,,,69,110
2304,note_on,194,0,6,,,,,,,,,8,,,33,92
2304,note_on,194,0,4,,,,,,,,,4,,,61,75
2398,note_on,94,0,2,,,,,,,,,0,,,69,0
2398,note_on,94,0,1,,,,,,,,,11,,,69,0
2398,note_on,94,0,3,,,,,,,,,2,,,69,0
2400,note_on,2,0,3,,,,,,,,,2,,,64,110
2400,note_on,2,0,2,,,,,,,,,0,,,64,110
2400,note_on,2,0,1,,,,,,,,,11,,,64,110
2494,note_on,94,0,3,,,,,,,,,2,,,64,0
2494,note_on,94,0,1,,,,,,,,,11,,,64,0
2494,note_on,94,0,2,,,,,,,,,0,,,64,0
2496,note_on,2,0,2,,,,,,,,,0,,,69,110
2496,note_on,2,0,1,,,,,,,,,11,,,69,110
2496,note_on,2,0,3,,,,,,,,,2,,,69,110
2560,note_on,256,0,4,,,,,,,,,4,,,61,0
2560,note_on,256,0,5,,,,,,,,,6,,,45,0
2560,note_on,256,0,6,,,,,,,,,8,,,33,0
2590,note_on,94,0,1,,,,,,,,,11,,,69,0
2590,note_on,94,0,3,,,,,,,,,2,,,69,0
2590,note_on,94,0,2,,,,,,,,,0,,,69,0
2592,note_on,32,0,4,,,,,,,,,4,,,68,75
2592,note_on,2,0,3,,,,,,,,,2,,,71,110
2592,note_on,32,0,6,,,,,,,,,8,,,40,92
2592,note_on,32,0,5,,,,,,,,,6,,,52,92
2592,note_on,2,0,2,,,,,,,,,0,,,71,110
2592,note_on,2,0,1,,,,,,,,,11,,,71,110
2686,note_on,94,0,1,,,,,,,,,11,,,71,0
2686,note_on,94,0,2,,,,,,,,,0,,,71,0
2686,note_on,94,0,3,,,,,,,,,2,,,71,0
2688,note_on,2,0,1,,,,,,,,,11,,,73,110
2688,note_on,2,0,2,,,,,,,,,0,,,73,110
2688,note_on,2,0,3,,,,,,,,,2,,,73,110
2782,note_on,94,0,1,,,,,,,,,11,,,73,0
2782,note_on,94,0,3,,,,,,,,,2,,,73,0
2782,note_on,94,0,2,,,,,,,,,0,,,73,0
2784,note_on,2,0,2,,,,,,,,,0,,,74,110
2784,note_on,2,0,1,,,,,,,,,11,,,74,110
2784,note_on,2,0,3,,,,,,,,,2,,,74,110
2848,note_on,256,0,5,,,,,,,,,6,,,52,0
2848,note_on,256,0,4,,,,,,,,,4,,,68,0
2848,note_on,256,0,6,,,,,,,,,8,,,40,0
2878,note_on,94,0,3,,,,,,,,,2,,,74,0
2878,note_on,94,0,2,,,,,,,,,0,,,74,0
2878,note_on,94,0,1,,,,,,,,,11,,,74,0
2880,note_on,32,0,6,,,,,,,,,8,,,45,92
2880,note_on,2,0,2,,,,,,,,,0,,,74,110
2880,note_on,32,0,4,,,,,,,,,4,,,64,75
2880,note_on,2,0,1,,,,,,,,,11,,,74,110
2880,note_on,2,0,3,,,,,,,,,2,,,74,110
2880,note_on,32,0,5,,,,,,,,,6,,,57,92
3136,note_on,256,0,5,,,,,,,,,6,,,57,0
3136,note_on,256,0,3,,,,,,,,,2,,,74,0
3136,note_on,256,0,1,,,,,,,,,11,,,74,0
3136,note_on,256,0,4,,,,,,,,,4,,,64,0
3136,note_on,256,0,2,,,,,,,,,0,,,74,0
3136,note_on,256,0,6,,,,,,,,,8,,,45,0
3168,note_on,32,0,5,,,,,,,,,6,,,45,92
3168,note_on,32,0,6,,,,,,,,,8,,,33,92
3168,note_on,32,0,4,,,,,,,,,4,,,64,75
3168,note_on,32,0,2,,,,,,,,,0,,,73,110
3168,note_on,32,0,1,,,,,,,,,11,,,73,110
3168,note_on,32,0,3,,,,,,,,,2,,,73,110
3262,note_on,94,0,6,,,,,,,,,8,,,33,0
3262,note_on,94,0,1,,,,,,,,,11,,,73,0
3262,note_on,94,0,2,,,,,,,,,0,,,73,0
3262,note_on,94,0,3,,,,,,,,,2,,,73,0
3262,note_on,94,0,5,,,,,,,,,6,,,45,0
3262,note_on,94,0,4,,,,,,,,,4,,,64,0
3360,note_on,98,0,2,,,,,,,,,0,,,76,110
3360,note_on,98,0,3,,,,,,,,,2,,,76,110
3360,note_on,98,0,1,,,,,,,,,11,,,76,110
3454,note_on,94,0,1,,,,,,,,,11,,,76,0
3454,note_on,94,0,2,,,,,,,,,0,,,76,0
3454,note_on,94,0,3,,,,,,,,,2,,,76,0
3456,note_on,194,0,4,,,,,,,,,4,,,61,75
3456,note_on,2,0,1,,,,,,,,,11,,,69,110
3456,note_on,2,0,3,,,,,,,,,2,,,69,110
3456,note_on,194,0,5,,,,,,,,,6,,,45,92
3456,note_on,2,0,2,,,,,,,,,0,,,69,110
3456,note_on,194,0,6,,,,,,,,,8,,,33,92
3550,note_on,94,0,1,,,,,,,,,11,,,69,0
3550,note_on,94,0,2,,,,,,,,,0,,,69,0
3550,note_on,94,0,3,,,,,,,,,2,,,69,0
3552,note_on,2,0,2,,,,,,,,,0,,,64,110
3552,note_on,2,0,3,,,,,,,,,2,,,64,110
3552,note_on,2,0,1,,,,,,,,,11,,,64,110
3646,note_on,94,0,2,,,,,,,,,0,,,64,0
3646,note_on,94,0,3,,,,,,,,,2,,,64,0
3646,note_on,94,0,1,,,,,,,,,11,,,64,0
3648,note_on,2,0,3,,,,,,,,,2,,,69,110
3648,note_on,2,0,1,,,,,,,,,11,,,69,110
3648,note_on,2,0,2,,,,,,,,,0,,,69,110
3712,note_on,256,0,5,,,,,,,,,6,,,45,0
3712,note_on,256,0,6,,,,,,,,,8,,,33,0
3712,note_on,256,0,4,,,,,,,,,4,,,61,0
3742,note_on,94,0,3,,,,,,,,,2,,,69,0
3742,note_on,94,0,1,,,,,,,,,11,,,69,0
3742,note_on,94,0,2,,,,,,,,,0,,,69,0
3744,note_on,32,0,4,,,,,,,,,4,,,68,75
3744,note_on,32,0,5,,,,,,,,,6,,,52,92
3744,note_on,2,0,1,,,,,,,,,11,,,71,110
3744,note_on,2,0,2,,,,,,,,,0,,,71,110
3744,note_on,32,0,6,,,,,,,,,8,,,40,92
3744,note_on,2,0,3,,,,,,,,,2,,,71,110
3838,note_on,94,0,3,,,,,,,,,2,,,71,0
3838,note_on,94,0,2,,,,,,,,,0,,,71,0
3838,note_on,94,0,1,,,,,,,,,11,,,71,0
3840,note_on,2,0,1,,,,,,,,,11,,,73,110
3840,note_on,2,0,3,,,,,,,,,2,,,73,110
3840,note_on,2,0,2,,,,,,,,,0,,,73,110
3934,note_on,94,0,1,,,,,,,,,11,,,73,0
3934,note_on,94,0,2,,,,,,,,,0,,,73,0
3934,note_on,94,0,3,,,,,,,,,2,,,73,0
3936,note_on,2,0,2,,,,,,,,,0,,,74,110
3936,note_on,2,0,1,,,,,,,,,11,,,74,110
3936,note_on,2,0,3,,,,,,,,,2,,,74,110
4000,note_on,256,0,5,,,,,,,,,6,,,52,0
4000,note_on,256,0,6,,,,,,,,,8,,,40,0
4000,note_on,256,0,4,,,,,,,,,4,,,68,0
4030,note_on,94,0,2,,,,,,,,,0,,,74,0
4030,note_on,94,0,1,,,,,,,,,11,,,74,0
4030,note_on,94,0,3,,,,,,,,,2,,,74,0
4032,note_on,2,0,1,,,,,,,,,11,,,74,110
4032,note_on,32,0,6,,,,,,,,,8,,,45,92
4032,note_on,32,0,4,,,,,,,,,4,,,64,75
4032,note_on,2,0,3,,,,,,,,,2,,,74,110
4032,note_on,2,0,2,,,,,,,,,0,,,74,110
4032,note_on,32,0,5,,,,,,,,,6,,,57,92
4288,note_on,256,0,5,,,,,,,,,6,,,57,0
4288,note_on,256,0,6,,,,,,,,,8,,,45,0
4288,note_on,256,0,3,,,,,,,,,2,,,74,0
4288,note_on,256,0,1,,,,,,,,,11,,,74,0
4288,note_on,256,0,2,,,,,,,,,0,,,74,0
4288,note_on,256,0,4,,,,,,,,,4,,,64,0
4320,note_on,32,0,1,,,,,,,,,11,,,73,110
4320,note_on,32,0,3,,,,,,,,,2,,,73,110
4320,note_on,32,0,4,,,,,,,,,4,,,64,75
4320,note_on,32,0,5,,,,,,,,,6,,,45,92
4320,note_on,32,0,2,,,,,,,,,0,,,73,110
4320,note_on,32,0,6,,,,,,,,,8,,,33,92
4414,note_on,94,0,3,,,,,,,,,2,,,73,0
4414,note_on,94,0,4,,,,,,,,,4,,,64,0
4414,note_on,94,0,1,,,,,,,,,11,,,73,0
4414,note_on,94,0,2,,,,,,,,,0,,,73,0
4414,note_on,94,0,6,,,,,,,,,8,,,33,0
4414,note_on,94,0,5,,,,,,,,,6,,,45,0
4512,note_on,98,0,3,,,,,,,,,2,,,76,110
4512,note_on,98,0,2,,,,,,,,,0,,,76,110
4512,note_on,98,0,1,,,,,,,,,11,,,76,110
4606,note_on,94,0,2,,,,,,,,,0,,,76,0
4606,note_on,94,0,1,,,,,,,,,11,,,76,0
4606,note_on,94,0,3,,,,,,,,,2,,,76,0
4608,note_on,194,0,5,,,,,,,,,6,,,61,92
4608,note_on,2,0,2,,,,,,,,,0,,,81,110
4608,note_on,2,0,1,,,,,,,,,11,,,81,110
4608,note_on,2,0,3,,,,,,,,,2,,,81,110
4608,note_on,194,0,4,,,,,,,,,4,,,76,75
4608,note_on,194,0,6,,,,,,,,,8,,,49,92
4654,note_on,46,0,2,,,,,,,,,0,,,81,0
4654,note_on,46,0,3,,,,,,,,,2,,,81,0
4654,note_on,46,0,1,,,,,,,,,11,,,81,0
4656,note_on,2,0,2,,,,,,,,,0,,,80,110
4656,note_on,2,0,3,,,,,,,,,2,,,80,110
4656,note_on,2,0,1,,,,,,,,,11,,,80,110
4702,note_on,46,0,2,,,,,,,,,0,,,80,0
4702,note_on,46,0,1,,,,,,,,,11,,,80,0
4702,note_on,46,0,3,,,,,,,,,2,,,80,0
4704,note_on,2,0,3,,,,,,,,,2,,,78,110
4704,note_on,2,0,1,,,,,,,,,11,,,78,110
4704,note_on,2,0,2,,,,,,,,,0,,,78,110
4798,note_on,94,0,1,,,,,,,,,11,,,78,0
4798,note_on,94,0,2,,,,,,,,,0,,,78,0
4798,note_on,94,0,3,,,,,,,,,2,,,78,0
4800,note_on,2,0,2,,,,,,,,,0,,,76,110
4800,note_on,2,0,1,,,,,,,,,11,,,76,110
4800,note_on,2,0,3,,,,,,,,,2,,,76,110
4864,note_on,256,0,5,,,,,,,,,6,,,61,0
4864,note_on,256,0,6,,,,,,,,,8,,,49,0
4864,note_on,256,0,4,,,,,,,,,4,,,76,0
4894,note_on,94,0,3,,,,,,,,,2,,,76,0
4894,note_on,94,0,2,,,,,,,,,0,,,76,0
4894,note_on,94,0,1,,,,,,,,,11,,,76,0
4896,note_on,32,0,5,,,,,,,,,6,,,57,92
4896,note_on,2,0,3,,,,,,,,,2,,,78,110
4896,note_on,2,0,2,,,,,,,,,0,,,78,110
4896,note_on,2,0,1,,,,,,,,,11,,,78,110
4896,note_on,32,0,6,,,,,,,,,8,,,45,92
4896,note_on,32,0,4,,,,,,,,,4,,,73,75
4942,note_on,46,0,2,,,,,,,,,0,,,78,0
4942,note_on,46,0,3,,,,,,,,,2,,,78,0
4942,note_on,46,0,1,,,,,,,,,11,,,78,0
4944,note_on,2,0,3,,,,,,,,,2,,,76,110
4944,note_on,2,0,2,,,,,,,,,0,,,76,110
4944,note_on,2,0,1,,,,,,,,,11,,,76,110
4990,note_on,46,0,1,,,,,,,,,11,,,76,0
4990,note_on,46,0,3,,,,,,,,,2,,,76,0
4990,note_on,46,0,2,,,,,,,,,0,,,76,0
4992,note_on,2,0,2,,,,,,,,,0,,,74,110
4992,note_on,2,0,3,,,,,,,,,2,,,74,110
4992,note_on,2,0,1,,,,,,,,,11,,,74,110
5086,note_on,94,0,2,,,,,,,,,0,,,74,0
5086,note_on,94,0,3,,,,,,,,,2,,,74,0
5086,note_on,94,0,1,,,,,,,,,11,,,74,0
5088,note_on,2,0,3,,,,,,,,,2,,,73,110
5088,note_on,2,0,2,,,,,,,,,0,,,73,110
5088,note_on,2,0,1,,,,,,,,,11,,,73,110
5152,note_on,256,0,5,,,,,,,,,6,,,57,0
5152,note_on,256,0,4,,,,,,,,,4,,,73,0
5152,note_on,256,0,6,,,,,,,,,8,,,45,0
5182,note_on,94,0,3,,,,,,,,,2,,,73,0
5182,note_on,94,0,1,,,,,,,,,11,,,73,0
5182,note_on,94,0,2,,,,,,,,,0,,,73,0
5184,note_on,2,0,3,,,,,,,,,2,,,74,110
5184,note_on,32,0,4,,,,,,,,,4,,,69,75
5184,note_on,32,0,5,,,,,,,,,6,,,54,92
5184,note_on,2,0,1,,,,,,,,,11,,,74,110
5184,note_on,32,0,6,,,,,,,,,8,,,42,92
5184,note_on,2,0,2,,,,,,,,,0,,,74,110
5230,note_on,46,0,3,,,,,,,,,2,,,74,0
5230,note_on,46,0,2,,,,,,,,,0,,,74,0
5230,note_on,46,0,1,,,,,,,,,11,,,74,0
5232,note_on,2,0,1,,,,,,,,,11,,,73,110
5232,note_on,2,0,3,,,,,,,,,2,,,73,110
5232,note_on,2,0,2,,,,,,,,,0,,,73,110
5278,note_on,46,0,1,,,,,,,,,11,,,73,0
5278,note_on,46,0,2,,,,,,,,,0,,,73,0
5278,note_on,46,0,3,,,,,,,,,2,,,73,0
5280,note_on,2,0,3,,,,,,,,,2,,,71,110
5280,note_on,2,0,2,,,,,,,,,0,,,71,110
5280,note_on,2,0,1,,,,,,,,,11,,,71,110
5374,note_on,94,0,2,,,,,,,,,0,,,71,0
5374,note_on,94,0,1,,,,,,,,,11,,,71,0
5374,note_on,94,0,3,,,,,,,,,2,,,71,0
5376,note_on,2,0,2,,,,,,,,,0,,,69,110
5376,note_on,2,0,1,,,,,,,,,11,,,69,110
5376,note_on,2,0,3,,,,,,,,,2,,,69,110
5440,note_on,256,0,6,,,,,,,,,8,,,42,0
5440,note_on,256,0,4,,,,,,,,,4,,,69,0
5440,note_on,256,0,5,,,,,,,,,6,,,54,0
5470,note_on,94,0,1,,,,,,,,,11,,,69,0
5470,note_on,94,0,3,,,,,,,,,2,,,69,0
5470,note_on,94,0,2,,,,,,,,,0,,,69,0
5472,note_on,32,0,4,,,,,,,,,4,,,66,75
5472,note_on,2,0,1,,,,,,,,,11,,,71,110
5472,note_on,32,0,5,,,,,,,,,6,,,51,92
5472,note_on,2,0,2,,,,,,,,,0,,,71,110
5472,note_on,32,0,6,,,,,,,,,8,,,39,92
5472,note_on,2,0,3,,,,,,,,,2,,,71,110
5518,note_on,46,0,2,,,,,,,,,0,,,71,0
5518,note_on,46,0,1,,,,,,,,,11,,,71,0
5518,note_on,46,0,3,,,,,,,,,2,,,71,0
5520,note_on,2,0,2,,,,,,,,,0,,,69,110
5520,note_on,2,0,1,,,,,,,,,11,,,69,110
5520,note_on,2,0,3,,,,,,,,,2,,,69,110
5566,note_on,46,0,3,,,,,,,,,2,,,69,0
5566,note_on,46,0,1,,,,,,,,,11,,,69,0
5566,note_on,46,0,2,,,,,,,,,0,,,69,0
5568,note_on,2,0,2,,,,,,,,,0,,,68,110
5568,note_on,2,0,3,,,,,,,,,2,,,68,110
5568,note_on,2,0,1,,,,,,,,,11,,,68,110
5662,note_on,94,0,1,,,,,,,,,11,,,68,0
5662,note_on,94,0,3,,,,,,,,,2,,,68,0
5662,note_on,94,0,2,,,,,,,,,0,,,68,0
5664,note_on,2,0,3,,,,,,,,,2,,,66,110
5664,note_on,2,0,2,,,,,,,,,0,,,66,110
5664,note_on,2,0,1,,,,,,,,,11,,,66,110
5728,note_on,256,0,5,,,,,,,,,6,,,51,0
5728,note_on,256,0,6,,,,,,,,,8,,,39,0
5728,note_on,256,0,4,,,,,,,,,4,,,66,0
5758,note_on,94,0,1,,,,,,,,,11,,,66,0
5758,note_on,94,0,3,,,,,,,,,2,,,66,0
5758,note_on,94,0,2,,,,,,,,,0,,,66,0
5760,note_on,2,0,1,,,,,,,,,11,,,64,110
5760,note_on,32,0,4,,,,,,,,,4,,,59,75
5760,note_on,2,0,3,,,,,,,,,2,,,64,110
5760,note_on,2,0,2,,,,,,,,,0,,,64,110
5760,note_on,32,0,6,,,,,,,,,8,,,40,92
5760,note_on,32,0,5,,,,,,,,,6,,,52,92
5854,note_on,94,0,5,,,,,,,,,6,,,52,0
5854,note_on,94,0,6,,,,,,,,,8,,,40,0
5856,note_on,2,0,5,,,,,,,,,6,,,59,92
5856,note_on,2,0,6,,,,,,,,,8,,,47,92
5950,note_on,94,0,5,,,,,,,,,6,,,59,0
5950,note_on,94,0,6,,,,,,,,,8,,,47,0
5952,note_on,2,0,6,,,,,,,,,8,,,45,92
5952,note_on,2,0,5,,,,,,,,,6,,,57,92
6046,note_on,94,0,5,,,,,,,,,6,,,57,0
6046,note_on,94,0,6,,,,,,,,,8,,,45,0
6048,note_on,2,0,5,,,,,,,,,6,,,56,92
6048,note_on,2,0,6,,,,,,,,,8,,,44,92
6094,note_on,334,0,4,,,,,,,,,4,,,59,0
6142,note_on,94,0,6,,,,,,,,,8,,,44,0
6142,note_on,94,0,5,,,,,,,,,6,,,56,0
6144,note_on,2,0,5,,,,,,,,,6,,,54,92
6144,note_on,2,0,6,,,,,,,,,8,,,42,92
6238,note_on,478,0,1,,,,,,,,,11,,,64,0
6238,note_on,478,0,2,,,,,,,,,0,,,64,0
6238,note_on,94,0,5,,,,,,,,,6,,,54,0
6238,note_on,94,0,6,,,,,,,,,8,,,42,0
6238,note_on,478,0,3,,,,,,,,,2,,,64,0
6240,note_on,2,0,1,,,,,,,,,11,,,76,110
6240,note_on,2,0,2,,,,,,,,,0,,,76,110
6240,note_on,2,0,6,,,,,,,,,8,,,40,92
6240,note_on,2,0,3,,,,,,,,,2,,,76,110
6240,note_on,2,0,5,,,,,,,,,6,,,52,92
6334,note_on,94,0,6,,,,,,,,,8,,,40,0
6334,note_on,94,0,5,,,,,,,,,6,,,52,0
6334,note_on,94,0,3,,,,,,,,,2,,,76,0
6334,note_on,94,0,1,,,,,,,,,11,,,76,0
6334,note_on,94,0,2,,,,,,,,,0,,,76,0
6336,note_on,2,0,1,,,,,,,,,11,,,73,110
6336,note_on,2,0,3,,,,,,,,,2,,,73,110
6336,note_on,2,0,5,,,,,,,,,6,,,57,92
6336,note_on,2,0,2,,,,,,,,,0,,,73,110
6336,note_on,2,0,6,,,,,,,,,8,,,45,92
6336,note_on,242,0,4,,,,,,,,,4,,,64,75
6430,note_on,94,0,3,,,,,,,,,2,,,73,0
6430,note_on,94,0,1,,,,,,,,,11,,,73,0
6430,note_on,94,0,2,,,,,,,,,0,,,73,0
6432,note_on,2,0,1,,,,,,,,,11,,,64,110
6432,note_on,2,0,3,,,,,,,,,2,,,64,110
6432,note_on,2,0,2,,,,,,,,,0,,,64,110
6526,note_on,94,0,3,,,,,,,,,2,,,64,0
6526,note_on,94,0,2,,,,,,,,,0,,,64,0
6526,note_on,94,0,1,,,,,,,,,11,,,64,0
6528,note_on,2,0,3,,,,,,,,,2,,,73,110
6528,note_on,2,0,2,,,,,,,,,0,,,73,110
6528,note_on,2,0,1,,,,,,,,,11,,,73,110
6592,note_on,256,0,4,,,,,,,,,4,,,64,0
6592,note_on,256,0,6,,,,,,,,,8,,,45,0
6592,note_on,256,0,5,,,,,,,,,6,,,57,0
6622,note_on,94,0,3,,,,,,,,,2,,,73,0
6622,note_on,94,0,1,,,,,,,,,11,,,73,0
6622,note_on,94,0,2,,,,,,,,,0,,,73,0
6624,note_on,2,0,2,,,,,,,,,0,,,81,110
6624,note_on,2,0,3,,,,,,,,,2,,,81,110
6624,note_on,32,0,5,,,,,,,,,6,,,45,92
6624,note_on,32,0,6,,,,,,,,,8,,,33,92
6624,note_on,2,0,1,,,,,,,,,11,,,81,110
6624,note_on,32,0,4,,,,,,,,,4,,,66,75
6718,note_on,94,0,2,,,,,,,,,0,,,81,0
6718,note_on,94,0,1,,,,,,,,,11,,,81,0
6718,note_on,94,0,3,,,,,,,,,2,,,81,0
6720,note_on,2,0,3,,,,,,,,,2,,,80,110
6720,note_on,2,0,2,,,,,,,,,0,,,80,110
6720,note_on,2,0,1,,,,,,,,,11,,,80,110
6814,note_on,94,0,3,,,,,,,,,2,,,80,0
6814,note_on,94,0,1,,,,,,,,,11,,,80,0
6814,note_on,94,0,2,,,,,,,,,0,,,80,0
6816,note_on,2,0,3,,,,,,,,,2,,,78,110
6816,note_on,2,0,1,,,,,,,,,11,,,78,110
6816,note_on,2,0,2,,,,,,,,,0,,,78,110
6880,note_on,256,0,6,,,,,,,,,8,,,33,0
6880,note_on,256,0,4,,,,,,,,,4,,,66,0
6880,note_on,256,0,5,,,,,,,,,6,,,45,0
6910,note_on,94,0,3,,,,,,,,,2,,,78,0
6910,note_on,94,0,1,,,,,,,,,11,,,78,0
6910,note_on,94,0,2,,,,,,,,,0,,,78,0
6912,note_on,2,0,3,,,,,,,,,2,,,78,110
6912,note_on,32,0,6,,,,,,,,,8,,,50,92
6912,note_on,32,0,5,,,,,,,,,6,,,62,92
6912,note_on,2,0,1,,,,,,,,,11,,,78,110
6912,note_on,32,0,4,,,,,,,,,4,,,69,75
6912,note_on,2,0,2,,,,,,,,,0,,,78,110
7168,note_on,256,0,1,,,,,,,,,11,,,78,0
7168,note_on,256,0,4,,,,,,,,,4,,,69,0
7168,note_on,256,0,2,,,,,,,,,0,,,78,0
7168,note_on,256,0,6,,,,,,,,,8,,,50,0
7168,note_on,256,0,5,,,,,,,,,6,,,62,0
7168,note_on,256,0,3,,,,,,,,,2,,,78,0
7200,note_on,32,0,6,,,,,,,,,8,,,44,92
7200,note_on,32,0,2,,,,,,,,,0,,,76,110
7200,note_on,32,0,5,,,,,,,,,6,,,56,92
7200,note_on,32,0,3,,,,,,,,,2,,,76,110
7200,note_on,32,0,1,,,,,,,,,11,,,76,110
7200,note_on,32,0,4,,,,,,,,,4,,,71,75
7294,note_on,94,0,6,,,,,,,,,8,,,44,0
7294,note_on,94,0,2,,,,,,,,,0,,,76,0
7294,note_on,94,0,4,,,,,,,,,4,,,71,0
7294,note_on,94,0,3,,,,,,,,,2,,,76,0
7294,note_on,94,0,5,,,,,,,,,6,,,56,0
7294,note_on,94,0,1,,,,,,,,,11,,,76,0
7392,note_on,98,0,2,,,,,,,,,0,,,74,110
7392,note_on,98,0,1,,,,,,,,,11,,,74,110
7392,note_on,98,0,3,,,,,,,,,2,,,74,110
7486,note_on,94,0,3,,,,,,,,,2,,,74,0
7486,note_on,94,0,2,,,,,,,,,0,,,74,0
7486,note_on,94,0,1,,,,,,,,,11,,,74,0
7488,note_on,194,0,5,,,,,,,,,6,,,45,92
7488,note_on,2,0,3,,,,,,,,,2,,,73,110
7488,note_on,194,0,6,,,,,,,,,8,,,33,92
7488,note_on,2,0,1,,,,,,,,,11,,,73,110
7488,note_on,2,0,2,,,,,,,,,0,,,73,110
7488,note_on,194,0,4,,,,,,,,,4,,,64,75
7582,note_on,94,0,3,,,,,,,,,2,,,73,0
7582,note_on,94,0,1,,,,,,,,,11,,,73,0
7582,note_on,94,0,2,,,,,,,,,0,,,73,0
7584,note_on,2,0,3,,,,,,,,,2,,,64,110
7584,note_on,2,0,2,,,,,,,,,0,,,64,110
7584,note_on,2,0,1,,,,,,,,,11,,,64,110
7678,note_on,94,0,2,,,,,,,,,0,,,64,0
7678,note_on,94,0,3,,,,,,,,,2,,,64,0
7678,note_on,94,0,1,,,,,,,,,11,,,64,0
7680,note_on,2,0,3,,,,,,,,,2,,,73,110
7680,note_on,2,0,1,,,,,,,,,11,,,73,110
7680,note_on,2,0,2,,,,,,,,,0,,,73,110
7744,note_on,256,0,5,,,,,,,,,6,,,45,0
7744,note_on,256,0,6,,,,,,,,,8,,,33,0
7744,note_on,256,0,4,,,,,,,,,4,,,64,0
7774,note_on,94,0,3,,,,,,,,,2,,,73,0
7774,note_on,94,0,2,,,,,,,,,0,,,73,0
7774,note_on,94,0,1,,,,,,,,,11,,,73,0
7776,note_on,32,0,5,,,,,,,,,6,,,57,92
7776,note_on,2,0,1,,,,,,,,,11,,,81,110
7776,note_on,32,0,4,,,,,,,,,4,,,66,75
7776,note_on,2,0,3,,,,,,,,,2,,,81,110
7776,note_on,2,0,2,,,,,,,,,0,,,81,110
7776,note_on,32,0,6,,,,,,,,,8,,,45,92
7870,note_on,94,0,1,,,,,,,,,11,,,81,0
7870,note_on,94,0,2,,,,,,,,,0,,,81,0
7870,note_on,94,0,3,,,,,,,,,2,,,81,0
7872,note_on,2,0,3,,,,,,,,,2,,,80,110
7872,note_on,2,0,2,,,,,,,,,0,,,80,110
7872,note_on,2,0,1,,,,,,,,,11,,,80,110
7966,note_on,94,0,1,,,,,,,,,11,,,80,0
7966,note_on,94,0,2,,,,,,,,,0,,,80,0
7966,note_on,94,0,3,,,,,,,,,2,,,80,0
7968,note_on,2,0,2,,,,,,,,,0,,,78,110
7968,note_on,2,0,3,,,,,,,,,2,,,78,110
7968,note_on,2,0,1,,,,,,,,,11,,,78,110
8032,note_on,256,0,6,,,,,,,,,8,,,45,0
8032,note_on,256,0,4,,,,,,,,,4,,,66,0
8032,note_on,256,0,5,,,,,,,,,6,,,57,0
8062,note_on,94,0,1,,,,,,,,,11,,,78,0
8062,note_on,94,0,2,,,,,,,,,0,,,78,0
8062,note_on,94,0,3,,,,,,,,,2,,,78,0
8064,note_on,32,0,5,,,,,,,,,6,,,62,92
8064,note_on,32,0,4,,,,,,,,,4,,,69,75
8064,note_on,2,0,1,,,,,,,,,11,,,78,110
8064,note_on,2,0,3,,,,,,,,,2,,,78,110
8064,note_on,32,0,6,,,,,,,,,8,,,50,92
8064,note_on,2,0,2,,,,,,,,,0,,,78,110
8320,note_on,256,0,6,,,,,,,,,8,,,50,0
8320,note_on,256,0,5,,,,,,,,,6,,,62,0
8320,note_on,256,0,4,,,,,,,,,4,,,69,0
8320,note_on,256,0,1,,,,,,,,,11,,,78,0
8320,note_on,256,0,3,,,,,,,,,2,,,78,0
8320,note_on,256,0,2,,,,,,,,,0,,,78,0
8352,note_on,32,0,4,,,,,,,,,4,,,73,75
8352,note_on,32,0,6,,,,,,,,,8,,,45,92
8352,note_on,32,0,5,,,,,,,,,6,,,57,92
8352,note_on,32,0,3,,,,,,,,,2,,,76,110
8352,note_on,32,0,1,,,,,,,,,11,,,76,110
8352,note_on,32,0,2,,,,,,,,,0,,,76,110
8446,note_on,94,0,1,,,,,,,,,11,,,76,0
8446,note_on,94,0,3,,,,,,,,,2,,,76,0
8446,note_on,94,0,2,,,,,,,,,0,,,76,0
8446,note_on,94,0,6,,,,,,,,,8,,,45,0
8446,note_on,94,0,4,,,,,,,,,4,,,73,0
8446,note_on,94,0,5,,,,,,,,,6,,,57,0
8544,note_on,98,0,1,,,,,,,,,11,,,73,110
8544,note_on,98,0,2,,,,,,,,,0,,,73,110
8544,note_on,98,0,3,,,,,,,,,2,,,73,110
8638,note_on,94,0,1,,,,,,,,,11,,,73,0
8638,note_on,94,0,2,,,,,,,,,0,,,73,0
8638,note_on,94,0,3,,,,,,,,,2,,,73,0
8640,note_on,2,0,1,,,,,,,,,11,,,71,110
8640,note_on,194,0,6,,,,,,,,,8,,,40,92
8640,note_on,2,0,3,,,,,,,,,2,,,71,110
8640,note_on,194,0,5,,,,,,,,,6,,,52,92
8640,note_on,194,0,4,,,,,,,,,4,,,68,75
8640,note_on,2,0,2,,,,,,,,,0,,,71,110
8734,note_on,94,0,2,,,,,,,,,0,,,71,0
8734,note_on,94,0,3,,,,,,,,,2,,,71,0
8734,note_on,94,0,1,,,,,,,,,11,,,71,0
8736,note_on,2,0,2,,,,,,,,,0,,,64,110
8736,note_on,2,0,3,,,,,,,,,2,,,64,110
8736,note_on,2,0,1,,,,,,,,,11,,,64,110
8830,note_on,94,0,2,,,,,,,,,0,,,64,0
8830,note_on,94,0,1,,,,,,,,,11,,,64,0
8830,note_on,94,0,3,,,,,,,,,2,,,64,0
8832,note_on,2,0,1,,,,,,,,,11,,,71,110
8832,note_on,2,0,2,,,,,,,,,0,,,71,110
8832,note_on,2,0,3,,,,,,,,,2,,,71,110
8896,note_on,256,0,4,,,,,,,,,4,,,68,0
8896,note_on,256,0,5,,,,,,,,,6,,,52,0
8896,note_on,256,0,6,,,,,,,,,8,,,40,0
8926,note_on,94,0,2,,,,,,,,,0,,,71,0
8926,note_on,94,0,3,,,,,,,,,2,,,71,0
8926,note_on,94,0,1,,,,,,,,,11,,,71,0
8928,note_on,32,0,4,,,,,,,,,4,,,69,75
8928,note_on,2,0,3,,,,,,,,,2,,,73,110
8928,note_on,32,0,5,,,,,,,,,6,,,52,92
8928,note_on,32,0,6,,,,,,,,,8,,,40,92
8928,note_on,2,0,2,,,,,,,,,0,,,73,110
8928,note_on,2,0,1,,,,,,,,,11,,,73,110
9022,note_on,94,0,2,,,,,,,,,0,,,73,0
9022,note_on,94,0,1,,,,,,,,,11,,,73,0
9022,note_on,94,0,3,,,,,,,,,2,,,73,0
9024,note_on,2,0,1,,,,,,,,,11,,,64,110
9024,note_on,2,0,2,,,,,,,,,0,,,64,110
9024,note_on,2,0,3,,,,,,,,,2,,,64,110
9118,note_on,94,0,2,,,,,,,,,0,,,64,0
9118,note_on,94,0,1,,,,,,,,,11,,,64,0
9118,note_on,94,0,3,,,,,,,,,2,,,64,0
9120,note_on,2,0,2,,,,,,,,,0,,,73,110
9120,note_on,2,0,1,,,,,,,,,11,,,73,110
9120,note_on,2,0,3,,,,,,,,,2,,,73,110
9184,note_on,256,0,5,,,,,,,,,6,,,52,0
9184,note_on,256,0,4,,,,,,,,,4,,,69,0
9184,note_on,256,0,6,,,,,,,,,8,,,40,0
9214,note_on,94,0,1,,,,,,,,,11,,,73,0
9214,note_on,94,0,2,,,,,,,,,0,,,73,0
9214,note_on,94,0,3,,,,,,,,,2,,,73,0
9216,note_on,32,0,6,,,,,,,,,8,,,40,92
9216,note_on,32,0,4,,,,,,,,,4,,,68,75
9216,note_on,2,0,3,,,,,,,,,2,,,71,110
9216,note_on,32,0,5,,,,,,,,,6,,,52,92
9216,note_on,2,0,2,,,,,,,,,0,,,71,110
9216,note_on,2,0,1,,,,,,,,,11,,,71,110
9310,note_on,94,0,2,,,,,,,,,0,,,71,0
9310,note_on,94,0,1,,,,,,,,,11,,,71,0
9310,note_on,94,0,3,,,,,,,,,2,,,71,0
9312,note_on,2,0,1,,,,,,,,,11,,,64,110
9312,note_on,2,0,3,,,,,,,,,2,,,64,110
9312,note_on,2,0,2,,,,,,,,,0,,,64,110
9406,note_on,94,0,2,,,,,,,,,0,,,64,0
9406,note_on,94,0,1,,,,,,,,,11,,,64,0
9406,note_on,94,0,3,,,,,,,,,2,,,64,0
9408,note_on,2,0,3,,,,,,,,,2,,,71,110
9408,note_on,2,0,1,,,,,,,,,11,,,71,110
9408,note_on,2,0,2,,,,,,,,,0,,,71,110
9472,note_on,256,0,6,,,,,,,,,8,,,40,0
9472,note_on,256,0,4,,,,,,,,,4,,,68,0
9472,note_on,256,0,5,,,,,,,,,6,,,52,0
9502,note_on,94,0,3,,,,,,,,,2,,,71,0
9502,note_on,94,0,2,,,,,,,,,0,,,71,0
9502,note_on,94,0,1,,,,,,,,,11,,,71,0
9504,note_on,2,0,1,,,,,,,,,11,,,73,110
9504,note_on,2,0,2,,,,,,,,,0,,,73,110
9504,note_on,32,0,6,,,,,,,,,8,,,40,92
9504,note_on,32,0,5,,,,,,,,,6,,,52,92
9504,note_on,2,0,3,,,,,,,,,2,,,73,110
9504,note_on,32,0,4,,,,,,,,,4,,,69,75
9598,note_on,94,0,2,,,,,,,,,0,,,73,0
9598,note_on,94,0,3,,,,,,,,,2,,,73,0
9598,note_on,94,0,1,,,,,,,,,11,,,73,0
9600,note_on,2,0,2,,,,,,,,,0,,,64,110
9600,note_on,2,0,1,,,,,,,,,11,,,64,110
9600,note_on,2,0,3,,,,,,,,,2,,,64,110
9694,note_on,94,0,1,,,,,,,,,11,,,64,0
9694,note_on,94,0,3,,,,,,,,,2,,,64,0
9694,note_on,94,0,2,,,,,,,,,0,,,64,0
9696,note_on,2,0,1,,,,,,,,,11,,,73,110
9696,note_on,2,0,2,,,,,,,,,0,,,73,110
9696,note_on,2,0,3,,,,,,,,,2,,,73,110
9760,note_on,256,0,4,,,,,,,,,4,,,69,0
9760,note_on,256,0,5,,,,,,,,,6,,,52,0
9760,note_on,256,0,6,,,,,,,,,8,,,40,0
9790,note_on,94,0,1,,,,,,,,,11,,,73,0
9790,note_on,94,0,2,,,,,,,,,0,,,73,0
9790,note_on,94,0,3,,,,,,,,,2,,,73,0
9792,note_on,2,0,1,,,,,,,,,11,,,75,110
9792,note_on,32,0,4,,,,,,,,,4,,,66,75
9792,note_on,32,0,5,,,,,,,,,6,,,47,92
9792,note_on,2,0,2,,,,,,,,,0,,,75,110
9792,note_on,2,0,3,,,,,,,,,2,,,75,110
9792,note_on,32,0,6,,,,,,,,,8,,,35,92
9838,note_on,46,0,2,,,,,,,,,0,,,75,0
9838,note_on,46,0,3,,,,,,,,,2,,,75,0
9838,note_on,46,0,1,,,,,,,,,11,,,75,0
9840,note_on,2,0,2,,,,,,,,,0,,,73,110
9840,note_on,2,0,1,,,,,,,,,11,,,73,110
9840,note_on,2,0,3,,,,,,,,,2,,,73,110
9886,note_on,46,0,2,,,,,,,,,0,,,73,0
9886,note_on,46,0,1,,,,,,,,,11,,,73,0
9886,note_on,46,0,3,,,,,,,,,2,,,73,0
9888,note_on,2,0,1,,,,,,,,,11,,,71,110
9888,note_on,2,0,3,,,,,,,,,2,,,71,110
9888,note_on,2,0,2,,,,,,,,,0,,,71,110
10048,note_on,160,0,2,,,,,,,,,0,,,71,0
10048,note_on,256,0,6,,,,,,,,,8,,,35,0
10048,note_on,256,0,5,,,,,,,,,6,,,47,0
10048,note_on,160,0,3,,,,,,,,,2,,,71,0
10048,note_on,160,0,1,,,,,,,,,11,,,71,0
10048,note_on,256,0,4,,,,,,,,,4,,,66,0
10080,note_on,32,0,2,,,,,,,,,0,,,81,110
10080,note_on,32,0,5,,,,,,,,,6,,,51,92
10080,note_on,32,0,6,,,,,,,,,8,,,39,92
10080,note_on,32,0,3,,,,,,,,,2,,,81,110
10080,note_on,32,0,4,,,,,,,,,4,,,71,75
10080,note_on,32,0,1,,,,,,,,,11,,,81,110
10336,note_on,256,0,5,,,,,,,,,6,,,51,0
10336,note_on,256,0,1,,,,,,,,,11,,,81,0
10336,note_on,256,0,4,,,,,,,,,4,,,71,0
10336,note_on,256,0,2,,,,,,,,,0,,,81,0
10336,note_on,256,0,3,,,,,,,,,2,,,81,0
10336,note_on,256,0,6,,,,,,,,,8,,,39,0
10368,note_on,32,0,1,,,,,,,,,11,,,80,110
10368,note_on,32,0,2,,,,,,,,,0,,,80,110
10368,note_on,32,0,5,,,,,,,,,6,,,52,92
10368,note_on,32,0,4,,,,,,,,,4,,,71,75
10368,note_on,32,0,6,,,,,,,,,8,,,40,92
10368,note_on,32,0,3,,,,,,,,,2,,,80,110
10462,note_on,94,0,6,,,,,,,,,8,,,40,0
10462,note_on,94,0,3,,,,,,,,,2,,,80,0
10462,note_on,94,0,2,,,,,,,,,0,,,80,0
10462,note_on,94,0,5,,,,,,,,,6,,,52,0
10462,note_on,94,0,1,,,,,,,,,11,,,80,0
10462,note_on,94,0,4,,,,,,,,,4,,,71,0
10656,note_on,194,0,5,,,,,,,,,6,,,47,92
10656,note_on,194,0,2,,,,,,,,,0,,,78,110
10656,note_on,194,0,4,,,,,,,,,4,,,71,75
10656,note_on,194,0,1,,,,,,,,,11,,,78,110
10656,note_on,194,0,3,,,,,,,,,2,,,78,110
10656,note_on,194,0,6,,,,,,,,,8,,,35,92
10816,note_on,160,0,3,,,,,,,,,2,,,78,0
10816,note_on,160,0,1,,,,,,,,,11,,,78,0
10816,note_on,160,0,2,,,,,,,,,0,,,78,0
10816,note_on,160,0,4,,,,,,,,,4,,,71,0
10816,note_on,160,0,5,,,,,,,,,6,,,47,0
10816,note_on,160,0,6,,,,,,,,,8,,,35,0
10944,note_on,128,0,3,,,,,,,,,2,,,76,110
10944,note_on,128,0,1,,,,,,,,,11,,,76,110
10944,note_on,128,0,2,,,,,,,,,0,,,76,110
10944,note_on,128,0,4,,,,,,,,,4,,,68,75
10944,note_on,128,0,5,,,,,,,,,6,,,52,92
10944,note_on,128,0,6,,,,,,,,,8,,,40,92
11038,note_on,94,0,6,,,,,,,,,8,,,40,0
11038,note_on,94,0,5,,,,,,,,,6,,,52,0
11040,note_on,2,0,6,,,,,,,,,8,,,47,92
11040,note_on,2,0,5,,,,,,,,,6,,,59,92
11134,note_on,94,0,5,,,,,,,,,6,,,59,0
11134,note_on,94,0,6,,,,,,,,,8,,,47,0
11136,note_on,2,0,6,,,,,,,,,8,,,45,92
11136,note_on,2,0,5,,,,,,,,,6,,,57,92
11230,note_on,94,0,5,,,,,,,,,6,,,57,0
11230,note_on,94,0,6,,,,,,,,,8,,,45,0
11232,note_on,2,0,5,,,,,,,,,6,,,56,92
11232,note_on,2,0,6,,,,,,,,,8,,,44,92
11302,note_on,358,0,4,,,,,,,,,4,,,68,0
11326,note_on,94,0,6,,,,,,,,,8,,,44,0
11326,note_on,94,0,5,,,,,,,,,6,,,56,0
11328,note_on,2,0,5,,,,,,,,,6,,,54,92
11328,note_on,2,0,6,,,,,,,,,8,,,42,92
11422,note_on,94,0,6,,,,,,,,,8,,,42,0
11422,note_on,478,0,3,,,,,,,,,2,,,76,0
11422,note_on,478,0,1,,,,,,,,,11,,,76,0
11422,note_on,478,0,2,,,,,,,,,0,,,76,0
11422,note_on,94,0,5,,,,,,,,,6,,,54,0
11424,note_on,2,0,1,,,,,,,,,11,,,76,110
11424,note_on,2,0,2,,,,,,,,,0,,,76,110
11424,note_on,2,0,6,,,,,,,,,8,,,44,92
11424,note_on,2,0,3,,,,,,,,,2,,,76,110
11424,note_on,2,0,5,,,,,,,,,6,,,56,92
11518,note_on,94,0,5,,,,,,,,,6,,,56,0
11518,note_on,94,0,2,,,,,,,,,0,,,76,0
11518,note_on,94,0,1,,,,,,,,,11,,,76,0
11518,note_on,94,0,3,,,,,,,,,2,,,76,0
11518,note_on,94,0,6,,,,,,,,,8,,,44,0
11520,note_on,2,0,3,,,,,,,,,2,,,69,110
11520,note_on,2,0,6,,,,,,,,,8,,,45,92
11520,note_on,2,0,1,,,,,,,,,11,,,69,110
11520,note_on,218,0,4,,,,,,,,,4,,,61,75
11520,note_on,2,0,2,,,,,,,,,0,,,69,110
11520,note_on,2,0,5,,,,,,,,,6,,,57,92
11614,note_on,94,0,3,,,,,,,,,2,,,69,0
11614,note_on,94,0,1,,,,,,,,,11,,,69,0
11614,note_on,94,0,2,,,,,,,,,0,,,69,0
11616,note_on,2,0,3,,,,,,,,,2,,,73,110
11616,note_on,2,0,1,,,,,,,,,11,,,73,110
11616,note_on,2,0,2,,,,,,,,,0,,,73,110
11710,note_on,94,0,1,,,,,,,,,11,,,73,0
11710,note_on,94,0,3,,,,,,,,,2,,,73,0
11710,note_on,94,0,2,,,,,,,,,0,,,73,0
11712,note_on,2,0,3,,,,,,,,,2,,,76,110
11712,note_on,2,0,2,,,,,,,,,0,,,76,110
11712,note_on,2,0,1,,,,,,,,,11,,,76,110
11776,note_on,256,0,6,,,,,,,,,8,,,45,0
11776,note_on,256,0,5,,,,,,,,,6,,,57,0
11776,note_on,256,0,4,,,,,,,,,4,,,61,0
11806,note_on,94,0,1,,,,,,,,,11,,,76,0
11806,note_on,94,0,3,,,,,,,,,2,,,76,0
11806,note_on,94,0,2,,,,,,,,,0,,,76,0
11808,note_on,2,0,2,,,,,,,,,0,,,81,110
11808,note_on,32,0,5,,,,,,,,,6,,,45,92
11808,note_on,32,0,6,,,,,,,,,8,,,33,92
11808,note_on,2,0,1,,,,,,,,,11,,,81,110
11808,note_on,32,0,4,,,,,,,,,4,,,61,75
11808,note_on,2,0,3,,,,,,,,,2,,,81,110
11902,note_on,94,0,2,,,,,,,,,0,,,81,0
11902,note_on,94,0,3,,,,,,,,,2,,,81,0
11902,note_on,94,0,1,,,,,,,,,11,,,81,0
11904,note_on,2,0,1,,,,,,,,,11,,,76,110
11904,note_on,2,0,3,,,,,,,,,2,,,76,110
11904,note_on,2,0,2,,,,,,,,,0,,,76,110
11998,note_on,94,0,1,,,,,,,,,11,,,76,0
11998,note_on,94,0,3,,,,,,,,,2,,,76,0
11998,note_on,94,0,2,,,,,,,,,0,,,76,0
12000,note_on,2,0,3,,,,,,,,,2,,,73,110
12000,note_on,2,0,1,,,,,,,,,11,,,73,110
12000,note_on,2,0,2,,,,,,,,,0,,,73,110
12064,note_on,256,0,5,,,,,,,,,6,,,45,0
12064,note_on,256,0,4,,,,,,,,,4,,,61,0
12064,note_on,256,0,6,,,,,,,,,8,,,33,0
12094,note_on,94,0,2,,,,,,,,,0,,,73,0
12094,note_on,94,0,1,,,,,,,,,11,,,73,0
12094,note_on,94,0,3,,,,,,,,,2,,,73,0
12096,note_on,2,0,2,,,,,,,,,0,,,73,110
12096,note_on,2,0,1,,,,,,,,,11,,,73,110
12096,note_on,32,0,5,,,,,,,,,6,,,50,92
12096,note_on,32,0,6,,,,,,,,,8,,,38,92
12096,note_on,32,0,4,,,,,,,,,4,,,66,75
12096,note_on,2,0,3,,,,,,,,,2,,,73,110
12352,note_on,256,0,2,,,,,,,,,0,,,73,0
12352,note_on,256,0,6,,,,,,,,,8,,,38,0
12352,note_on,256,0,4,,,,,,,,,4,,,66,0
12352,note_on,256,0,5,,,,,,,,,6,,,50,0
12352,note_on,256,0,3,,,,,,,,,2,,,73,0
12352,note_on,256,0,1,,,,,,,,,11,,,73,0
12384,note_on,32,0,5,,,,,,,,,6,,,38,92
12384,note_on,32,0,3,,,,,,,,,2,,,74,110
12384,note_on,32,0,4,,,,,,,,,4,,,69,75
12384,note_on,32,0,6,,,,,,,,,8,,,26,92
12384,note_on,32,0,1,,,,,,,,,11,,,74,110
12384,note_on,32,0,2,,,,,,,,,0,,,74,110
12478,note_on,94,0,6,,,,,,,,,8,,,26,0
12478,note_on,94,0,1,,,,,,,,,11,,,74,0
12478,note_on,94,0,4,,,,,,,,,4,,,69,0
12478,note_on,94,0,2,,,,,,,,,0,,,74,0
12478,note_on,94,0,5,,,,,,,,,6,,,38,0
12478,note_on,94,0,3,,,,,,,,,2,,,74,0
12576,note_on,98,0,2,,,,,,,,,0,,,78,110
12576,note_on,98,0,3,,,,,,,,,2,,,78,110
12576,note_on,98,0,1,,,,,,,,,11,,,78,110
12670,note_on,94,0,3,,,,,,,,,2,,,78,0
12670,note_on,94,0,1,,,,,,,,,11,,,78,0
12670,note_on,94,0,2,,,,,,,,,0,,,78,0
12672,note_on,194,0,6,,,,,,,,,8,,,39,92
12672,note_on,2,0,3,,,,,,,,,2,,,71,110
12672,note_on,194,0,4,,,,,,,,,4,,,66,75
12672,note_on,194,0,5,,,,,,,,,6,,,51,92
12672,note_on,2,0,2,,,,,,,,,0,,,71,110
12672,note_on,2,0,1,,,,,,,,,11,,,71,110
12766,note_on,94,0,3,,,,,,,,,2,,,71,0
12766,note_on,94,0,2,,,,,,,,,0,,,71,0
12766,note_on,94,0,1,,,,,,,,,11,,,71,0
12768,note_on,2,0,1,,,,,,,,,11,,,75,110
12768,note_on,2,0,2,,,,,,,,,0,,,75,110
12768,note_on,2,0,3,,,,,,,,,2,,,75,110
12862,note_on,94,0,1,,,,,,,,,11,,,75,0
12862,note_on,94,0,3,,,,,,,,,2,,,75,0
12862,note_on,94,0,2,,,,,,,,,0,,,75,0
12864,note_on,2,0,3,,,,,,,,,2,,,78,110
12864,note_on,2,0,2,,,,,,,,,0,,,78,110
12864,note_on,2,0,1,,,,,,,,,11,,,78,110
12928,note_on,256,0,5,,,,,,,,,6,,,51,0
12928,note_on,256,0,6,,,,,,,,,8,,,39,0
12928,note_on,256,0,4,,,,,,,,,4,,,66,0
12958,note_on,94,0,1,,,,,,,,,11,,,78,0
12958,note_on,94,0,3,,,,,,,,,2,,,78,0
12958,note_on,94,0,2,,,,,,,,,0,,,78,0
12960,note_on,2,0,1,,,,,,,,,11,,,83,110
12960,note_on,2,0,3,,,,,,,,,2,,,83,110
12960,note_on,2,0,2,,,,,,,,,0,,,83,110
12960,note_on,32,0,4,,,,,,,,,4,,,63,75
12960,note_on,32,0,5,,,,,,,,,6,,,47,92
12960,note_on,32,0,6,,,,,,,,,8,,,35,92
13054,note_on,94,0,2,,,,,,,,,0,,,83,0
13054,note_on,94,0,1,,,,,,,,,11,,,83,0
13054,note_on,94,0,3,,,,,,,,,2,,,83,0
13056,note_on,2,0,3,,,,,,,,,2,,,78,110
13056,note_on,2,0,2,,,,,,,,,0,,,78,110
13056,note_on,2,0,1,,,,,,,,,11,,,78,110
13150,note_on,94,0,1,,,,,,,,,11,,,78,0
13150,note_on,94,0,3,,,,,,,,,2,,,78,0
13150,note_on,94,0,2,,,,,,,,,0,,,78,0
13152,note_on,2,0,3,,,,,,,,,2,,,75,110
13152,note_on,2,0,2,,,,,,,,,0,,,75,110
13152,note_on,2,0,1,,,,,,,,,11,,,75,110
13216,note_on,256,0,5,,,,,,,,,6,,,47,0
13216,note_on,256,0,4,,,,,,,,,4,,,63,0
13216,note_on,256,0,6,,,,,,,,,8,,,35,0
13246,note_on,94,0,2,,,,,,,,,0,,,75,0
13246,note_on,94,0,1,,,,,,,,,11,,,75,0
13246,note_on,94,0,3,,,,,,,,,2,,,75,0
13248,note_on,32,0,5,,,,,,,,,6,,,52,92
13248,note_on,2,0,1,,,,,,,,,11,,,75,110
13248,note_on,2,0,3,,,,,,,,,2,,,75,110
13248,note_on,32,0,6,,,,,,,,,8,,,40,92
13248,note_on,32,0,4,,,,,,,,,4,,,59,75
13248,note_on,2,0,2,,,,,,,,,0,,,75,110
13504,note_on,256,0,1,,,,,,,,,11,,,75,0
13504,note_on,256,0,3,,,,,,,,,2,,,75,0
13504,note_on,256,0,4,,,,,,,,,4,,,59,0
13504,note_on,256,0,6,,,,,,,,,8,,,40,0
13504,note_on,256,0,2,,,,,,,,,0,,,75,0
13504,note_on,256,0,5,,,,,,,,,6,,,52,0
13536,note_on,32,0,1,,,,,,,,,11,,,76,110
13536,note_on,32,0,5,,,,,,,,,6,,,40,92
13536,note_on,32,0,6,,,,,,,,,8,,,28,92
13536,note_on,32,0,4,,,,,,,,,4,,,68,75
13536,note_on,32,0,3,,,,,,,,,2,,,76,110
13536,note_on,32,0,2,,,,,,,,,0,,,76,110
13630,note_on,94,0,1,,,,,,,,,11,,,76,0
13630,note_on,94,0,6,,,,,,,,,8,,,28,0
13630,note_on,94,0,3,,,,,,,,,2,,,76,0
13630,note_on,94,0,4,,,,,,,,,4,,,68,0
13630,note_on,94,0,5,,,,,,,,,6,,,40,0
13630,note_on,94,0,2,,,,,,,,,0,,,76,0
13728,note_on,98,0,3,,,,,,,,,2,,,73,110
13728,note_on,98,0,1,,,,,,,,,11,,,73,110
13728,note_on,98,0,2,,,,,,,,,0,,,73,110
13822,note_on,94,0,1,,,,,,,,,11,,,73,0
13822,note_on,94,0,2,,,,,,,,,0,,,73,0
13822,note_on,94,0,3,,,,,,,,,2,,,73,0
13824,note_on,194,0,5,,,,,,,,,6,,,45,92
13824,note_on,2,0,2,,,,,,,,,0,,,69,110
13824,note_on,2,0,3,,,,,,,,,2,,,69,110
13824,note_on,2,0,1,,,,,,,,,11,,,69,110
13824,note_on,194,0,6,,,,,,,,,8,,,33,92
13824,note_on,194,0,4,,,,,,,,,4,,,64,75
13918,note_on,94,0,3,,,,,,,,,2,,,69,0
13918,note_on,94,0,2,,,,,,,,,0,,,69,0
13918,note_on,94,0,1,,,,,,,,,11,,,69,0
13920,note_on,2,0,2,,,,,,,,,0,,,64,110
13920,note_on,2,0,1,,,,,,,,,11,,,64,110
13920,note_on,2,0,3,,,,,,,,,2,,,64,110
14014,note_on,94,0,1,,,,,,,,,11,,,64,0
14014,note_on,94,0,3,,,,,,,,,2,,,64,0
14014,note_on,94,0,2,,,,,,,,,0,,,64,0
14016,note_on,2,0,1,,,,,,,,,11,,,69,110
14016,note_on,2,0,3,,,,,,,,,2,,,69,110
14016,note_on,2,0,2,,,,,,,,,0,,,69,110
14080,note_on,256,0,5,,,,,,,,,6,,,45,0
14080,note_on,256,0,6,,,,,,,,,8,,,33,0
14080,note_on,256,0,4,,,,,,,,,4,,,64,0
14110,note_on,94,0,1,,,,,,,,,11,,,69,0
14110,note_on,94,0,3,,,,,,,,,2,,,69,0
14110,note_on,94,0,2,,,,,,,,,0,,,69,0
14112,note_on,2,0,2,,,,,,,,,0,,,71,110
14112,note_on,32,0,5,,,,,,,,,6,,,52,92
14112,note_on,2,0,1,,,,,,,,,11,,,71,110
14112,note_on,2,0,3,,,,,,,,,2,,,71,110
14112,note_on,32,0,6,,,,,,,,,8,,,40,92
14112,note_on,32,0,4,,,,,,,,,4,,,68,75
14206,note_on,94,0,3,,,,,,,,,2,,,71,0
14206,note_on,94,0,1,,,,,,,,,11,,,71,0
14206,note_on,94,0,2,,,,,,,,,0,,,71,0
14208,note_on,2,0,1,,,,,,,,,11,,,73,110
14208,note_on,2,0,2,,,,,,,,,0,,,73,110
14208,note_on,2,0,3,,,,,,,,,2,,,73,110
14302,note_on,94,0,1,,,,,,,,,11,,,73,0
14302,note_on,94,0,3,,,,,,,,,2,,,73,0
14302,note_on,94,0,2,,,,,,,,,0,,,73,0
14304,note_on,2,0,2,,,,,,,,,0,,,74,110
14304,note_on,2,0,1,,,,,,,,,11,,,74,110
14304,note_on,2,0,3,,,,,,,,,2,,,74,110
14368,note_on,256,0,6,,,,,,,,,8,,,40,0
14368,note_on,256,0,4,,,,,,,,,4,,,68,0
14368,note_on,256,0,5,,,,,,,,,6,,,52,0
14398,note_on,94,0,3,,,,,,,,,2,,,74,0
14398,note_on,94,0,2,,,,,,,,,0,,,74,0
14398,note_on,94,0,1,,,,,,,,,11,,,74,0
14400,note_on,2,0,1,,,,,,,,,11,,,74,110
14400,note_on,32,0,4,,,,,,,,,4,,,64,75
14400,note_on,2,0,3,,,,,,,,,2,,,74,110
14400,note_on,32,0,6,,,,,,,,,8,,,45,92
14400,note_on,2,0,2,,,,,,,,,0,,,74,110
14400,note_on,32,0,5,,,,,,,,,6,,,57,92
14656,note_on,256,0,5,,,,,,,,,6,,,57,0
14656,note_on,256,0,1,,,,,,,,,11,,,74,0
14656,note_on,256,0,3,,,,,,,,,2,,,74,0
14656,note_on,256,0,4,,,,,,,,,4,,,64,0
14656,note_on,256,0,6,,,,,,,,,8,,,45,0
14656,note_on,256,0,2,,,,,,,,,0,,,74,0
14688,note_on,32,0,2,,,,,,,,,0,,,73,110
14688,note_on,32,0,3,,,,,,,,,2,,,73,110
14688,note_on,32,0,5,,,,,,,,,6,,,45,92
14688,note_on,32,0,1,,,,,,,,,11,,,73,110
14688,note_on,32,0,6,,,,,,,,,8,,,33,92
14688,note_on,32,0,4,,,,,,,,,4,,,64,75
14782,note_on,94,0,6,,,,,,,,,8,,,33,0
14782,note_on,94,0,5,,,,,,,,,6,,,45,0
14782,note_on,94,0,2,,,,,,,,,0,,,73,0
14782,note_on,94,0,4,,,,,,,,,4,,,64,0
14782,note_on,94,0,3,,,,,,,,,2,,,73,0
14782,note_on,94,0,1,,,,,,,,,11,,,73,0
14880,note_on,98,0,2,,,,,,,,,0,,,76,110
14880,note_on,98,0,1,,,,,,,,,11,,,76,110
14880,note_on,98,0,3,,,,,,,,,2,,,76,110
14974,note_on,94,0,1,,,,,,,,,11,,,76,0
14974,note_on,94,0,3,,,,,,,,,2,,,76,0
14974,note_on,94,0,2,,,,,,,,,0,,,76,0
14976,note_on,2,0,3,,,,,,,,,2,,,69,110
14976,note_on,2,0,2,,,,,,,,,0,,,69,110
14976,note_on,194,0,5,,,,,,,,,6,,,45,92
14976,note_on,194,0,6,,,,,,,,,8,,,33,92
14976,note_on,2,0,1,,,,,,,,,11,,,69,110
14976,note_on,194,0,4,,,,,,,,,4,,,64,75
15070,note_on,94,0,1,,,,,,,,,11,,,69,0
15070,note_on,94,0,2,,,,,,,,,0,,,69,0
15070,note_on,94,0,3,,,,,,,,,2,,,69,0
15072,note_on,2,0,1,,,,,,,,,11,,,64,110
15072,note_on,2,0,2,,,,,,,,,0,,,64,110
15072,note_on,2,0,3,,,,,,,,,2,,,64,110
15166,note_on,94,0,2,,,,,,,,,0,,,64,0
15166,note_on,94,0,1,,,,,,,,,11,,,64,0
15166,note_on,94,0,3,,,,,,,,,2,,,64,0
15168,note_on,2,0,2,,,,,,,,,0,,,69,110
15168,note_on,2,0,1,,,,,,,,,11,,,69,110
15168,note_on,2,0,3,,,,,,,,,2,,,69,110
15232,note_on,256,0,6,,,,,,,,,8,,,33,0
15232,note_on,256,0,5,,,,,,,,,6,,,45,0
15232,note_on,256,0,4,,,,,,,,,4,,,64,0
15262,note_on,94,0,2,,,,,,,,,0,,,69,0
15262,note_on,94,0,1,,,,,,,,,11,,,69,0
15262,note_on,94,0,3,,,,,,,,,2,,,69,0
15264,note_on,2,0,3,,,,,,,,,2,,,71,110
15264,note_on,2,0,2,,,,,,,,,0,,,71,110
15264,note_on,32,0,4,,,,,,,,,4,,,68,75
15264,note_on,32,0,6,,,,,,,,,8,,,40,92
15264,note_on,2,0,1,,,,,,,,,11,,,71,110
15264,note_on,32,0,5,,,,,,,,,6,,,52,92
15358,note_on,94,0,2,,,,,,,,,0,,,71,0
15358,note_on,94,0,1,,,,,,,,,11,,,71,0
15358,note_on,94,0,3,,,,,,,,,2,,,71,0
15360,note_on,2,0,2,,,,,,,,,0,,,73,110
15360,note_on,2,0,3,,,,,,,,,2,,,73,110
15360,note_on,2,0,1,,,,,,,,,11,,,73,110
15454,note_on,94,0,2,,,,,,,,,0,,,73,0
15454,note_on,94,0,3,,,,,,,,,2,,,73,0
15454,note_on,94,0,1,,,,,,,,,11,,,73,0
15456,note_on,2,0,3,,,,,,,,,2,,,74,110
15456,note_on,2,0,2,,,,,,,,,0,,,74,110
15456,note_on,2,0,1,,,,,,,,,11,,,74,110
15520,note_on,256,0,6,,,,,,,,,8,,,40,0
15520,note_on,256,0,4,,,,,,,,,4,,,68,0
15520,note_on,256,0,5,,,,,,,,,6,,,52,0
15550,note_on,94,0,3,,,,,,,,,2,,,74,0
15550,note_on,94,0,1,,,,,,,,,11,,,74,0
15550,note_on,94,0,2,,,,,,,,,0,,,74,0
15552,note_on,2,0,1,,,,,,,,,11,,,74,110
15552,note_on,2,0,3,,,,,,,,,2,,,74,110
15552,note_on,32,0,4,,,,,,,,,4,,,64,75
15552,note_on,32,0,5,,,,,,,,,6,,,57,92
15552,note_on,32,0,6,,,,,,,,,8,,,45,92
15552,note_on,2,0,2,,,,,,,,,0,,,74,110
15808,note_on,256,0,4,,,,,,,,,4,,,64,0
15808,note_on,256,0,5,,,,,,,,,6,,,57,0
15808,note_on,256,0,3,,,,,,,,,2,,,74,0
15808,note_on,256,0,6,,,,,,,,,8,,,45,0
15808,note_on,256,0,2,,,,,,,,,0,,,74,0
15808,note_on,256,0,1,,,,,,,,,11,,,74,0
15840,note_on,32,0,1,,,,,,,,,11,,,73,110
15840,note_on,32,0,4,,,,,,,,,4,,,64,75
15840,note_on,32,0,2,,,,,,,,,0,,,73,110
15840,note_on,32,0,3,,,,,,,,,2,,,73,110
16000,note_on,160,0,1,,,,,,,,,11,,,73,0
16000,note_on,160,0,4,,,,,,,,,4,,,64,0
16000,note_on,160,0,2,,,,,,,,,0,,,73,0
16000,note_on,160,0,3,,,,,,,,,2,,,73,0
16032,note_on,32,0,4,,,,,,,,,4,,,69,75
16032,note_on,224,0,5,,,,,,,,,6,,,57,92
16032,note_on,32,0,2,,,,,,,,,0,,,81,110
16032,note_on,32,0,3,,,,,,,,,2,,,81,110
16032,note_on,32,0,1,,,,,,,,,11,,,81,110
16032,note_on,224,0,6,,,,,,,,,8,,,45,92
16126,note_on,94,0,2,,,,,,,,,0,,,81,0
16126,note_on,94,0,3,,,,,,,,,2,,,81,0
16126,note_on,94,0,4,,,,,,,,,4,,,69,0
16126,note_on,94,0,6,,,,,,,,,8,,,45,0
16126,note_on,94,0,1,,,,,,,,,11,,,81,0
16126,note_on,94,0,5,,,,,,,,,6,,,57,0
16128,note_on,2,0,5,,,,,,,,,6,,,57,92
16128,note_on,2,0,3,,,,,,,,,2,,,69,110
16128,note_on,2,0,4,,,,,,,,,4,,,69,75
16128,note_on,2,0,6,,,,,,,,,8,,,45,92
16128,note_on,2,0,1,,,,,,,,,11,,,69,110
16128,note_on,2,0,2,,,,,,,,,0,,,69,110
16222,note_on,94,0,4,,,,,,,,,4,,,69,0
16222,note_on,94,0,2,,,,,,,,,0,,,69,0
16222,note_on,94,0,1,,,,,,,,,11,,,69,0
16222,note_on,94,0,5,,,,,,,,,6,,,57,0
16222,note_on,94,0,6,,,,,,,,,8,,,45,0
16222,note_on,94,0,3,,,,,,,,,2,,,69,0
16224,note_on,2,0,5,,,,,,,,,6,,,52,92
16224,note_on,2,0,6,,,,,,,,,8,,,40,92
16224,note_on,2,0,2,,,,,,,,,0,,,64,110
16224,note_on,2,0,1,,,,,,,,,11,,,64,110
16224,note_on,2,0,4,,,,,,,,,4,,,64,75
16224,note_on,2,0,3,,,,,,,,,2,,,64,110
16318,note_on,94,0,5,,,,,,,,,6,,,52,0
16318,note_on,94,0,6,,,,,,,,,8,,,40,0
16318,note_on,94,0,2,,,,,,,,,0,,,64,0
16318,note_on,94,0,4,,,,,,,,,4,,,64,0
16318,note_on,94,0,3,,,,,,,,,2,,,64,0
16318,note_on,94,0,1,,,,,,,,,11,,,64,0
16320,note_on,2,0,5,,,,,,,,,6,,,50,92
16320,note_on,2,0,6,,,,,,,,,8,,,38,92
16320,note_on,2,0,3,,,,,,,,,2,,,62,110
16320,note_on,2,0,1,,,,,,,,,11,,,62,110
16320,note_on,2,0,2,,,,,,,,,0,,,62,110
16320,note_on,2,0,4,,,,,,,,,4,,,62,75
16414,note_on,94,0,1,,,,,,,,,11,,,62,0
16414,note_on,94,0,2,,,,,,,,,0,,,62,0
16414,note_on,94,0,3,,,,,,,,,2,,,62,0
16414,note_on,94,0,6,,,,,,,,,8,,,38,0
16414,note_on,94,0,4,,,,,,,,,4,,,62,0
16414,note_on,94,0,5,,,,,,,,,6,,,50,0
16416,note_on,2,0,2,,,,,,,,,0,,,61,110
16416,note_on,2,0,3,,,,,,,,,2,,,61,110
16416,note_on,2,0,5,,,,,,,,,6,,,49,92
16416,note_on,2,0,6,,,,,,,,,8,,,37,92
16416,note_on,2,0,4,,,,,,,,,4,,,61,75
16416,note_on,2,0,1,,,,,,,,,11,,,61,110
16510,note_on,94,0,4,,,,,,,,,4,,,61,0
16510,note_on,94,0,6,,,,,,,,,8,,,37,0
16510,note_on,94,0,3,,,,,,,,,2,,,61,0
16510,note_on,94,0,5,,,,,,,,,6,,,49,0
16510,note_on,94,0,2,,,,,,,,,0,,,61,0
16510,note_on,94,0,1,,,,,,,,,11,,,61,0
16512,note_on,2,0,5,,,,,,,,,6,,,47,92
16512,note_on,2,0,6,,,,,,,,,8,,,35,92
16512,note_on,2,0,3,,,,,,,,,2,,,59,110
16512,note_on,2,0,2,,,,,,,,,0,,,59,110
16512,note_on,2,0,1,,,,,,,,,11,,,59,110
16512,note_on,2,0,4,,,,,,,,,4,,,59,75
16606,note_on,94,0,3,,,,,,,,,2,,,59,0
16606,note_on,94,0,5,,,,,,,,,6,,,47,0
16606,note_on,94,0,4,,,,,,,,,4,,,59,0
16606,note_on,94,0,1,,,,,,,,,11,,,59,0
16606,note_on,94,0,2,,,,,,,,,0,,,59,0
16606,note_on,94,0,6,,,,,,,,,8,,,35,0
16608,note_on,2,0,4,,,,,,,,,4,,,57,75
16608,note_on,2,0,1,,,,,,,,,11,,,57,110
16608,note_on,2,0,2,,,,,,,,,0,,,57,110
16608,note_on,2,0,5,,,,,,,,,6,,,45,92
16608,note_on,2,0,6,,,,,,,,,8,,,33,92
16608,note_on,2,0,3,,,,,,,,,2,,,57,110
16702,note_on,94,0,6,,,,,,,,,8,,,33,0
16702,note_on,94,0,1,,,,,,,,,11,,,57,0
16702,note_on,94,0,2,,,,,,,,,0,,,57,0
16702,note_on,94,0,3,,,,,,,,,2,,,57,0
16702,note_on,94,0,5,,,,,,,,,6,,,45,0
16702,note_on,94,0,4,,,,,,,,,4,,,57,0
16704,note_on,2,0,6,,,,,,,,,8,,,45,92
16704,note_on,2,0,5,,,,,,,,,6,,,57,92
16704,note_on,2,0,2,,,,,,,,,0,,,69,110
16704,note_on,2,0,3,,,,,,,,,2,,,69,110
16704,note_on,2,0,4,,,,,,,,,4,,,69,75
16704,note_on,2,0,1,,,,,,,,,11,,,69,110
16798,note_on,94,0,1,,,,,,,,,11,,,69,0
16798,note_on,94,0,5,,,,,,,,,6,,,57,0
16798,note_on,94,0,4,,,,,,,,,4,,,69,0
16798,note_on,94,0,2,,,,,,,,,0,,,69,0
16798,note_on,94,0,6,,,,,,,,,8,,,45,0
16798,note_on,94,0,3,,,,,,,,,2,,,69,0
16800,note_on,2,0,6,,,,,,,,,8,,,40,92
16800,note_on,2,0,3,,,,,,,,,2,,,64,110
16800,note_on,2,0,1,,,,,,,,,11,,,64,110
16800,note_on,2,0,5,,,,,,,,,6,,,52,92
16800,note_on,2,0,4,,,,,,,,,4,,,64,75
16800,note_on,2,0,2,,,,,,,,,0,,,64,110
16894,note_on,94,0,6,,,,,,,,,8,,,40,0
16894,note_on,94,0,4,,,,,,,,,4,,,64,0
16894,note_on,94,0,2,,,,,,,,,0,,,64,0
16894,note_on,94,0,1,,,,,,,,,11,,,64,0
16894,note_on,94,0,3,,,,,,,,,2,,,64,0
16894,note_on,94,0,5,,,,,,,,,6,,,52,0
16896,note_on,2,0,5,,,,,,,,,6,,,50,92
16896,note_on,2,0,4,,,,,,,,,4,,,62,75
16896,note_on,2,0,6,,,,,,,,,8,,,38,92
16896,note_on,2,0,3,,,,,,,,,2,,,62,110
16896,note_on,2,0,1,,,,,,,,,11,,,62,110
16896,note_on,2,0,2,,,,,,,,,0,,,62,110
16990,note_on,94,0,5,,,,,,,,,6,,,50,0
16990,note_on,94,0,2,,,,,,,,,0,,,62,0
16990,note_on,94,0,4,,,,,,,,,4,,,62,0
16990,note_on,94,0,1,,,,,,,,,11,,,62,0
16990,note_on,94,0,6,,,,,,,,,8,,,38,0
16990,note_on,94,0,3,,,,,,,,,2,,,62,0
16992,note_on,2,0,2,,,,,,,,,0,,,61,110
16992,note_on,2,0,3,,,,,,,,,2,,,61,110
16992,note_on,2,0,5,,,,,,,,,6,,,49,92
16992,note_on,2,0,6,,,,,,,,,8,,,37,92
16992,note_on,2,0,4,,,,,,,,,4,,,61,75
16992,note_on,2,0,1,,,,,,,,,11,,,61,110
17086,note_on,94,0,2,,,,,,,,,0,,,61,0
17086,note_on,94,0,6,,,,,,,,,8,,,37,0
17086,note_on,94,0,1,,,,,,,,,11,,,61,0
17086,note_on,94,0,3,,,,,,,,,2,,,61,0
17086,note_on,94,0,4,,,,,,,,,4,,,61,0
17086,note_on,94,0,5,,,,,,,,,6,,,49,0
17088,note_on,2,0,4,,,,,,,,,4,,,59,75
17088,note_on,2,0,6,,,,,,,,,8,,,35,92
17088,note_on,2,0,5,,,,,,,,,6,,,47,92
17088,note_on,2,0,2,,,,,,,,,0,,,59,110
17088,note_on,2,0,3,,,,,,,,,2,,,59,110
17088,note_on,2,0,1,,,,,,,,,11,,,59,110
17182,note_on,94,0,5,,,,,,,,,6,,,47,0
17182,note_on,94,0,4,,,,,,,,,4,,,59,0
17182,note_on,94,0,1,,,,,,,,,11,,,59,0
17182,note_on,94,0,6,,,,,,,,,8,,,35,0
17182,note_on,94,0,3,,,,,,,,,2,,,59,0
17182,note_on,94,0,2,,,,,,,,,0,,,59,0
17184,note_on,2,0,6,,,,,,,,,8,,,33,92
17184,note_on,2,0,3,,,,,,,,,2,,,57,110
17184,note_on,2,0,5,,,,,,,,,6,,,45,92
17184,note_on,2,0,2,,,,,,,,,0,,,57,110
17184,note_on,2,0,4,,,,,,,,,4,,,57,75
17184,note_on,2,0,1,,,,,,,,,11,,,57,110
17278,note_on,94,0,2,,,,,,,,,0,,,57,0
17278,note_on,94,0,6,,,,,,,,,8,,,33,0
17278,note_on,94,0,3,,,,,,,,,2,,,57,0
17278,note_on,94,0,1,,,,,,,,,11,,,57,0
17278,note_on,94,0,5,,,,,,,,,6,,,45,0
17278,note_on,94,0,4,,,,,,,,,4,,,57,0
17280,note_on,2,0,3,,,,,,,,,2,,,69,110
17280,note_on,2,0,1,,,,,,,,,11,,,73,110
17280,note_on,2,0,6,,,,,,,,,8,,,33,92
17280,note_on,2,0,5,,,,,,,,,6,,,45,92
17280,note_on,2,0,2,,,,,,,,,0,,,73,110
17280,note_on,2,0,4,,,,,,,,,4,,,64,75
17536,note_on,256,0,4,,,,,,,,,4,,,64,0
17536,note_on,256,0,6,,,,,,,,,8,,,33,0
17536,note_on,256,0,5,,,,,,,,,6,,,45,0
17536,note_on,256,0,3,,,,,,,,,2,,,69,0
17536,note_on,256,0,2,,,,,,,,,0,,,73,0
17536,note_on,256,0,1,,,,,,,,,11,,,73,0
17568,note_on,32,0,5,,,,,,,,,6,,,52,92
17568,note_on,32,0,3,,,,,,,,,2,,,68,110
17568,note_on,32,0,2,,,,,,,,,0,,,71,110
17568,note_on,32,0,1,,,,,,,,,11,,,71,110
17568,note_on,32,0,6,,,,,,,,,8,,,40,92
17568,note_on,32,0,4,,,,,,,,,4,,,64,75
17662,note_on,94,0,1,,,,,,,,,11,,,71,0
17662,note_on,94,0,3,,,,,,,,,2,,,68,0
17662,note_on,94,0,5,,,,,,,,,6,,,52,0
17662,note_on,94,0,2,,,,,,,,,0,,,71,0
17662,note_on,94,0,4,,,,,,,,,4,,,64,0
17662,note_on,94,0,6,,,,,,,,,8,,,40,0
17856,note_on,194,0,3,,,,,,,,,2,,,69,110
17856,note_on,194,0,2,,,,,,,,,0,,,69,110
17856,note_on,194,0,4,,,,,,,,,4,,,61,75
17856,note_on,194,0,1,,,,,,,,,11,,,69,110
17856,note_on,194,0,5,,,,,,,,,6,,,57,92
17856,note_on,194,0,6,,,,,,,,,8,,,45,92
18112,note_on,256,0,5,,,,,,,,,6,,,57,0
18112,note_on,256,0,6,,,,,,,,,8,,,45,0
18334,note_on,478,0,3,,,,,,,,,2,,,69,0
18334,note_on,478,0,4,,,,,,,,,4,,,61,0
18334,note_on,478,0,1,,,,,,,,,11,,,69,0
18334,note_on,478,0,2,,,,,,,,,0,,,69,0
18336,note_on,2,0,3,,,,,,,,,2,,,81,110
18336,note_on,224,0,5,,,,,,,,,6,,,57,92
18336,note_on,224,0,6,,,,,,,,,8,,,45,92
18336,note_on,2,0,4,,,,,,,,,4,,,69,75
18336,note_on,2,0,1,,,,,,,,,11,,,81,110
18336,note_on,2,0,2,,,,,,,,,0,,,81,110
18430,note_on,94,0,2,,,,,,,,,0,,,81,0
18430,note_on,94,0,1,,,,,,,,,11,,,81,0
18430,note_on,94,0,6,,,,,,,,,8,,,45,0
18430,note_on,94,0,4,,,,,,,,,4,,,69,0
18430,note_on,94,0,5,,,,,,,,,6,,,57,0
18430,note_on,94,0,3,,,,,,,,,2,,,81,0
18432,note_on,2,0,5,,,,,,,,,6,,,57,92
18432,note_on,2,0,4,,,,,,,,,4,,,69,75
18432,note_on,2,0,3,,,,,,,,,2,,,69,110
18432,note_on,2,0,2,,,,,,,,,0,,,69,110
18432,note_on,2,0,6,,,,,,,,,8,,,45,92
18432,note_on,2,0,1,,,,,,,,,11,,,69,110
18526,note_on,94,0,3,,,,,,,,,2,,,69,0
18526,note_on,94,0,6,,,,,,,,,8,,,45,0
18526,note_on,94,0,1,,,,,,,,,11,,,69,0
18526,note_on,94,0,5,,,,,,,,,6,,,57,0
18526,note_on,94,0,2,,,,,,,,,0,,,69,0
18526,note_on,94,0,4,,,,,,,,,4,,,69,0
18528,note_on,2,0,1,,,,,,,,,11,,,64,110
18528,note_on,2,0,3,,,,,,,,,2,,,64,110
18528,note_on,2,0,2,,,,,,,,,0,,,64,110
18528,note_on,2,0,4,,,,,,,,,4,,,64,75
18528,note_on,2,0,5,,,,,,,,,6,,,52,92
18528,note_on,2,0,6,,,,,,,,,8,,,40,92
18622,note_on,94,0,3,,,,,,,,,2,,,64,0
18622,note_on,94,0,2,,,,,,,,,0,,,64,0
18622,note_on,94,0,4,,,,,,,,,4,,,64,0
18622,note_on,94,0,6,,,,,,,,,8,,,40,0
18622,note_on,94,0,1,,,,,,,,,11,,,64,0
18622,note_on,94,0,5,,,,,,,,,6,,,52,0
18624,note_on,2,0,2,,,,,,,,,0,,,62,110
18624,note_on,2,0,6,,,,,,,,,8,,,38,92
18624,note_on,2,0,1,,,,,,,,,11,,,62,110
18624,note_on,2,0,3,,,,,,,,,2,,,62,110
18624,note_on,2,0,5,,,,,,,,,6,,,50,92
18624,note_on,2,0,4,,,,,,,,,4,,,62,75
18718,note_on,94,0,1,,,,,,,,,11,,,62,0
18718,note_on,94,0,5,,,,,,,,,6,,,50,0
18718,note_on,94,0,3,,,,,,,,,2,,,62,0
18718,note_on,94,0,6,,,,,,,,,8,,,38,0
18718,note_on,94,0,2,,,,,,,,,0,,,62,0
18718,note_on,94,0,4,,,,,,,,,4,,,62,0
18720,note_on,2,0,2,,,,,,,,,0,,,61,110
18720,note_on,2,0,1,,,,,,,,,11,,,61,110
18720,note_on,2,0,3,,,,,,,,,2,,,61,110
18720,note_on,2,0,4,,,,,,,,,4,,,61,75
18720,note_on,2,0,6,,,,,,,,,8,,,37,92
18720,note_on,2,0,5,,,,,,,,,6,,,49,92
18814,note_on,94,0,2,,,,,,,,,0,,,61,0
18814,note_on,94,0,1,,,,,,,,,11,,,61,0
18814,note_on,94,0,4,,,,,,,,,4,,,61,0
18814,note_on,94,0,5,,,,,,,,,6,,,49,0
18814,note_on,94,0,6,,,,,,,,,8,,,37,0
18814,note_on,94,0,3,,,,,,,,,2,,,61,0
18816,note_on,2,0,4,,,,,,,,,4,,,59,75
18816,note_on,2,0,1,,,,,,,,,11,,,59,110
18816,note_on,2,0,3,,,,,,,,,2,,,59,110
18816,note_on,2,0,6,,,,,,,,,8,,,35,92
18816,note_on,2,0,5,,,,,,,,,6,,,47,92
18816,note_on,2,0,2,,,,,,,,,0,,,59,110
18910,note_on,94,0,1,,,,,,,,,11,,,59,0
18910,note_on,94,0,2,,,,,,,,,0,,,59,0
18910,note_on,94,0,6,,,,,,,,,8,,,35,0
18910,note_on,94,0,4,,,,,,,,,4,,,59,0
18910,note_on,94,0,5,,,,,,,,,6,,,47,0
18910,note_on,94,0,3,,,,,,,,,2,,,59,0
18912,note_on,2,0,6,,,,,,,,,8,,,33,92
18912,note_on,2,0,3,,,,,,,,,2,,,57,110
18912,note_on,2,0,5,,,,,,,,,6,,,45,92
18912,note_on,2,0,4,,,,,,,,,4,,,57,75
18912,note_on,2,0,2,,,,,,,,,0,,,57,110
18912,note_on,2,0,1,,,,,,,,,11,,,57,110
19006,note_on,94,0,3,,,,,,,,,2,,,57,0
19006,note_on,94,0,5,,,,,,,,,6,,,45,0
19006,note_on,94,0,2,,,,,,,,,0,,,57,0
19006,note_on,94,0,6,,,,,,,,,8,,,33,0
19006,note_on,94,0,1,,,,,,,,,11,,,57,0
19006,note_on,94,0,4,,,,,,,,,4,,,57,0
19008,note_on,2,0,4,,,,,,,,,4,,,69,75
19008,note_on,2,0,2,,,,,,,,,0,,,69,110
19008,note_on,2,0,3,,,,,,,,,2,,,69,110
19008,note_on,2,0,6,,,,,,,,,8,,,45,92
19008,note_on,2,0,5,,,,,,,,,6,,,57,92
19008,note_on,2,0,1,,,,,,,,,11,,,69,110
19102,note_on,94,0,1,,,,,,,,,11,,,69,0
19102,note_on,94,0,4,,,,,,,,,4,,,69,0
19102,note_on,94,0,6,,,,,,,,,8,,,45,0
19102,note_on,94,0,5,,,,,,,,,6,,,57,0
19102,note_on,94,0,3,,,,,,,,,2,,,69,0
19102,note_on,94,0,2,,,,,,,,,0,,,69,0
19104,note_on,2,0,3,,,,,,,,,2,,,64,110
19104,note_on,2,0,6,,,,,,,,,8,,,40,92
19104,note_on,2,0,5,,,,,,,,,6,,,52,92
19104,note_on,2,0,4,,,,,,,,,4,,,64,75
19104,note_on,2,0,1,,,,,,,,,11,,,64,110
19104,note_on,2,0,2,,,,,,,,,0,,,64,110
19198,note_on,94,0,2,,,,,,,,,0,,,64,0
19198,note_on,94,0,3,,,,,,,,,2,,,64,0
19198,note_on,94,0,6,,,,,,,,,8,,,40,0
19198,note_on,94,0,5,,,,,,,,,6,,,52,0
19198,note_on,94,0,4,,,,,,,,,4,,,64,0
19198,note_on,94,0,1,,,,,,,,,11,,,64,0
19200,note_on,2,0,1,,,,,,,,,11,,,62,110
19200,note_on,2,0,4,,,,,,,,,4,,,62,75
19200,note_on,2,0,6,,,,,,,,,8,,,38,92
19200,note_on,2,0,2,,,,,,,,,0,,,62,110
19200,note_on,2,0,3,,,,,,,,,2,,,62,110
19200,note_on,2,0,5,,,,,,,,,6,,,50,92
19294,note_on,94,0,3,,,,,,,,,2,,,62,0
19294,note_on,94,0,4,,,,,,,,,4,,,62,0
19294,note_on,94,0,2,,,,,,,,,0,,,62,0
19294,note_on,94,0,1,,,,,,,,,11,,,62,0
19294,note_on,94,0,6,,,,,,,,,8,,,38,0
19294,note_on,94,0,5,,,,,,,,,6,,,50,0
19296,note_on,2,0,1,,,,,,,,,11,,,61,110
19296,note_on,2,0,6,,,,,,,,,8,,,37,92
19296,note_on,2,0,5,,,,,,,,,6,,,49,92
19296,note_on,2,0,4,,,,,,,,,4,,,61,75
19296,note_on,2,0,3,,,,,,,,,2,,,61,110
19296,note_on,2,0,2,,,,,,,,,0,,,61,110
19390,note_on,94,0,4,,,,,,,,,4,,,61,0
19390,note_on,94,0,1,,,,,,,,,11,,,61,0
19390,note_on,94,0,6,,,,,,,,,8,,,37,0
19390,note_on,94,0,5,,,,,,,,,6,,,49,0
19390,note_on,94,0,3,,,,,,,,,2,,,61,0
19390,note_on,94,0,2,,,,,,,,,0,,,61,0
19392,note_on,2,0,5,,,,,,,,,6,,,47,92
19392,note_on,2,0,3,,,,,,,,,2,,,59,110
19392,note_on,2,0,1,,,,,,,,,11,,,59,110
19392,note_on,2,0,2,,,,,,,,,0,,,59,110
19392,note_on,2,0,4,,,,,,,,,4,,,59,75
19392,note_on,2,0,6,,,,,,,,,8,,,35,92
19486,note_on,94,0,3,,,,,,,,,2,,,59,0
19486,note_on,94,0,2,,,,,,,,,0,,,59,0
19486,note_on,94,0,4,,,,,,,,,4,,,59,0
19486,note_on,94,0,5,,,,,,,,,6,,,47,0
19486,note_on,94,0,1,,,,,,,,,11,,,59,0
19486,note_on,94,0,6,,,,,,,,,8,,,35,0
19488,note_on,2,0,1,,,,,,,,,11,,,57,110
19488,note_on,2,0,5,,,,,,,,,6,,,45,92
19488,note_on,2,0,6,,,,,,,,,8,,,33,92
19488,note_on,2,0,3,,,,,,,,,2,,,57,110
19488,note_on,2,0,4,,,,,,,,,4,,,57,75
19488,note_on,2,0,2,,,,,,,,,0,,,57,110
19582,note_on,94,0,3,,,,,,,,,2,,,57,0
19582,note_on,94,0,5,,,,,,,,,6,,,45,0
19582,note_on,94,0,6,,,,,,,,,8,,,33,0
19582,note_on,94,0,1,,,,,,,,,11,,,57,0
19582,note_on,94,0,2,,,,,,,,,0,,,57,0
19582,note_on,94,0,4,,,,,,,,,4,,,57,0
19584,note_on,2,0,1,,,,,,,,,11,,,73,110
19584,note_on,2,0,4,,,,,,,,,4,,,64,75
19584,note_on,2,0,2,,,,,,,,,0,,,73,110
19584,note_on,2,0,3,,,,,,,,,2,,,69,110
19584,note_on,2,0,6,,,,,,,,,8,,,40,92
19584,note_on,2,0,5,,,,,,,,,6,,,52,92
19840,note_on,256,0,3,,,,,,,,,2,,,69,0
19840,note_on,256,0,2,,,,,,,,,0,,,73,0
19840,note_on,256,0,1,,,,,,,,,11,,,73,0
19840,note_on,256,0,5,,,,,,,,,6,,,52,0
19840,note_on,256,0,6,,,,,,,,,8,,,40,0
19840,note_on,256,0,4,,,,,,,,,4,,,64,0
19872,note_on,32,0,5,,,,,,,,,6,,,40,92
19872,note_on,32,0,4,,,,,,,,,4,,,64,75
19872,note_on,32,0,2,,,,,,,,,0,,,71,110
19872,note_on,32,0,3,,,,,,,,,2,,,68,110
19872,note_on,32,0,1,,,,,,,,,11,,,71,110
19872,note_on,32,0,6,,,,,,,,,8,,,28,92
20128,note_on,256,0,6,,,,,,,,,8,,,28,0
20128,note_on,256,0,2,,,,,,,,,0,,,71,0
20128,note_on,256,0,5,,,,,,,,,6,,,40,0
20128,note_on,256,0,4,,,,,,,,,4,,,64,0
20128,note_on,256,0,3,,,,,,,,,2,,,68,0
20128,note_on,256,0,1,,,,,,,,,11,,,71,0
20160,note_on,32,0,4,,,,,,,,,4,,,61,75
20160,note_on,32,0,1,,,,,,,,,11,,,69,110
20160,note_on,32,0,2,,,,,,,,,0,,,69,110
20160,note_on,32,0,3,,,,,,,,,2,,,69,110
20160,note_on,32,0,5,,,,,,,,,6,,,45,92
20160,note_on,32,0,6,,,,,,,,,8,,,33,92
20518,note_on,358,0,2,,,,,,,,,0,,,69,0
20518,note_on,358,0,5,,,,,,,,,6,,,45,0
20518,note_on,358,0,4,,,,,,,,,4,,,61,0
20518,note_on,358,0,3,,,,,,,,,2,,,69,0
20518,note_on,358,0,6,,,,,,,,,8,,,33,0
20638,note_on,478,0,1,,,,,,,,,11,,,69,0
20640,note_on,2,0,1,,,,,,,,,11,,,81,110
20734,note_on,94,0,1,,,,,,,,,11,,,81,0
20736,note_on,218,0,5,,,,,,,,,6,,,61,92
20736,note_on,2,0,1,,,,,,,,,11,,,81,110
20992,note_on,256,0,5,,,,,,,,,6,,,61,0
20992,note_on,256,0,1,,,,,,,,,11,,,81,0
21024,note_on,32,0,1,,,,,,,,,11,,,80,110
21024,note_on,32,0,5,,,,,,,,,6,,,59,92
21184,note_on,160,0,1,,,,,,,,,11,,,80,0
21216,note_on,32,0,1,,,,,,,,,11,,,78,110
21280,note_on,256,0,5,,,,,,,,,6,,,59,0
21310,note_on,94,0,1,,,,,,,,,11,,,78,0
21312,note_on,2,0,1,,,,,,,,,11,,,78,110
21312,note_on,32,0,5,,,,,,,,,6,,,57,92
21568,note_on,256,0,1,,,,,,,,,11,,,78,0
21568,note_on,256,0,5,,,,,,,,,6,,,57,0
21600,note_on,32,0,1,,,,,,,,,11,,,76,110
21600,note_on,32,0,5,,,,,,,,,6,,,56,92
21760,note_on,160,0,1,,,,,,,,,11,,,76,0
21792,note_on,32,0,1,,,,,,,,,11,,,74,110
21856,note_on,256,0,5,,,,,,,,,6,,,56,0
21886,note_on,94,0,1,,,,,,,,,11,,,74,0
21888,note_on,32,0,5,,,,,,,,,6,,,57,92
21888,note_on,2,0,1,,,,,,,,,11,,,73,110
21934,note_on,46,0,1,,,,,,,,,11,,,73,0
21936,note_on,2,0,1,,,,,,,,,11,,,71,110
21982,note_on,46,0,1,,,,,,,,,11,,,71,0
21982,note_on,94,0,5,,,,,,,,,6,,,57,0
21984,note_on,2,0,5,,,,,,,,,6,,,52,92
21984,note_on,2,0,1,,,,,,,,,11,,,69,110
22078,note_on,94,0,5,,,,,,,,,6,,,52,0
22080,note_on,2,0,5,,,,,,,,,6,,,50,92
22144,note_on,160,0,1,,,,,,,,,11,,,69,0
22174,note_on,94,0,5,,,,,,,,,6,,,50,0
22176,note_on,2,0,5,,,,,,,,,6,,,49,92
22270,note_on,94,0,5,,,,,,,,,6,,,49,0
22272,note_on,2,0,5,,,,,,,,,6,,,47,92
22366,note_on,94,0,5,,,,,,,,,6,,,47,0
22368,note_on,2,0,5,,,,,,,,,6,,,45,92
22368,note_on,224,0,1,,,,,,,,,11,,,88,110
22462,note_on,94,0,1,,,,,,,,,11,,,88,0
22462,note_on,94,0,5,,,,,,,,,6,,,45,0
22464,note_on,2,0,1,,,,,,,,,11,,,88,110
22464,note_on,2,0,5,,,,,,,,,6,,,56,92
22720,note_on,256,0,1,,,,,,,,,11,,,88,0
22720,note_on,256,0,5,,,,,,,,,6,,,56,0
22752,note_on,32,0,5,,,,,,,,,6,,,54,92
22752,note_on,32,0,1,,,,,,,,,11,,,86,110
22912,note_on,160,0,1,,,,,,,,,11,,,86,0
22944,note_on,32,0,1,,,,,,,,,11,,,85,110
23008,note_on,256,0,5,,,,,,,,,6,,,54,0
23038,note_on,94,0,1,,,,,,,,,11,,,85,0
23040,note_on,32,0,5,,,,,,,,,6,,,52,92
23040,note_on,2,0,1,,,,,,,,,11,,,85,110
23296,note_on,256,0,1,,,,,,,,,11,,,85,0
23296,note_on,256,0,5,,,,,,,,,6,,,52,0
23328,note_on,32,0,1,,,,,,,,,11,,,83,110
23328,note_on,32,0,5,,,,,,,,,6,,,51,92
23488,note_on,160,0,1,,,,,,,,,11,,,83,0
23520,note_on,32,0,1,,,,,,,,,11,,,81,110
23584,note_on,256,0,5,,,,,,,,,6,,,51,0
23614,note_on,94,0,1,,,,,,,,,11,,,81,0
23616,note_on,32,0,5,,,,,,,,,6,,,52,92
23616,note_on,2,0,1,,,,,,,,,11,,,80,110
23662,note_on,46,0,1,,,,,,,,,11,,,80,0
23664,note_on,2,0,1,,,,,,,,,11,,,78,110
23710,note_on,46,0,1,,,,,,,,,11,,,78,0
23710,note_on,94,0,5,,,,,,,,,6,,,52,0
23712,note_on,2,0,5,,,,,,,,,6,,,59,92
23712,note_on,2,0,1,,,,,,,,,11,,,76,110
23806,note_on,94,0,5,,,,,,,,,6,,,59,0
23808,note_on,2,0,5,,,,,,,,,6,,,57,92
23872,note_on,160,0,1,,,,,,,,,11,,,76,0
23902,note_on,94,0,5,,,,,,,,,6,,,57,0
23904,note_on,2,0,5,,,,,,,,,6,,,56,92
23998,note_on,94,0,5,,,,,,,,,6,,,56,0
24000,note_on,2,0,5,,,,,,,,,6,,,54,92
24094,note_on,94,0,5,,,,,,,,,6,,,54,0
24096,note_on,224,0,1,,,,,,,,,11,,,80,110
24096,note_on,2,0,5,,,,,,,,,6,,,52,92
24190,note_on,94,0,1,,,,,,,,,11,,,80,0
24190,note_on,94,0,5,,,,,,,,,6,,,52,0
24192,note_on,2,0,5,,,,,,,,,6,,,52,92
24192,note_on,2,0,1,,,,,,,,,11,,,83,110
24286,note_on,94,0,1,,,,,,,,,11,,,83,0
24288,note_on,2,0,1,,,,,,,,,11,,,80,110
24382,note_on,94,0,1,,,,,,,,,11,,,80,0
24384,note_on,2,0,1,,,,,,,,,11,,,74,110
24478,note_on,94,0,1,,,,,,,,,11,,,74,0
24480,note_on,2,0,1,,,,,,,,,11,,,62,110
24526,note_on,334,0,5,,,,,,,,,6,,,52,0
24574,note_on,94,0,1,,,,,,,,,11,,,62,0
24576,note_on,2,0,1,,,,,,,,,11,,,80,110
24670,note_on,94,0,1,,,,,,,,,11,,,80,0
24672,note_on,2,0,1,,,,,,,,,11,,,83,110
24766,note_on,94,0,1,,,,,,,,,11,,,83,0
24768,note_on,2,0,1,,,,,,,,,11,,,81,110
24768,note_on,242,0,5,,,,,,,,,6,,,45,92
24862,note_on,94,0,1,,,,,,,,,11,,,81,0
24864,note_on,2,0,1,,,,,,,,,11,,,76,110
24910,note_on,46,0,1,,,,,,,,,11,,,76,0
24912,note_on,2,0,1,,,,,,,,,11,,,74,110
24958,note_on,46,0,1,,,,,,,,,11,,,74,0
24960,note_on,2,0,1,,,,,,,,,11,,,73,110
25006,note_on,46,0,1,,,,,,,,,11,,,73,0
25008,note_on,2,0,1,,,,,,,,,11,,,71,110
25024,note_on,256,0,5,,,,,,,,,6,,,45,0
25054,note_on,46,0,1,,,,,,,,,11,,,71,0
25056,note_on,2,0,1,,,,,,,,,11,,,69,110
25056,note_on,32,0,5,,,,,,,,,6,,,45,92
25150,note_on,94,0,1,,,,,,,,,11,,,69,0
25152,note_on,2,0,1,,,,,,,,,11,,,64,110
25198,note_on,46,0,1,,,,,,,,,11,,,64,0
25200,note_on,2,0,1,,,,,,,,,11,,,62,110
25246,note_on,46,0,1,,,,,,,,,11,,,62,0
25248,note_on,2,0,1,,,,,,,,,11,,,61,110
25294,note_on,46,0,1,,,,,,,,,11,,,61,0
25296,note_on,2,0,1,,,,,,,,,11,,,59,110
25312,note_on,256,0,5,,,,,,,,,6,,,45,0
25342,note_on,46,0,1,,,,,,,,,11,,,59,0
25344,note_on,32,0,5,,,,,,,,,6,,,45,92
25344,note_on,2,0,1,,,,,,,,,11,,,57,110
25438,note_on,94,0,1,,,,,,,,,11,,,57,0
25440,note_on,2,0,1,,,,,,,,,11,,,69,110
25534,note_on,94,0,1,,,,,,,,,11,,,69,0
25536,note_on,2,0,1,,,,,,,,,11,,,71,110
25630,note_on,94,0,1,,,,,,,,,11,,,71,0
25632,note_on,2,0,1,,,,,,,,,11,,,73,110
25678,note_on,334,0,5,,,,,,,,,6,,,45,0
25726,note_on,94,0,1,,,,,,,,,11,,,73,0
25728,note_on,2,0,1,,,,,,,,,11,,,71,110
25822,note_on,94,0,1,,,,,,,,,11,,,71,0
25824,note_on,2,0,1,,,,,,,,,11,,,69,110
25918,note_on,94,0,1,,,,,,,,,11,,,69,0
25920,note_on,242,0,5,,,,,,,,,6,,,52,92
25920,note_on,2,0,1,,,,,,,,,11,,,83,110
26014,note_on,94,0,1,,,,,,,,,11,,,83,0
26016,note_on,2,0,1,,,,,,,,,11,,,80,110
26110,note_on,94,0,1,,,,,,,,,11,,,80,0
26112,note_on,2,0,1,,,,,,,,,11,,,74,110
26206,note_on,94,0,1,,,,,,,,,11,,,74,0
26208,note_on,2,0,1,,,,,,,,,11,,,62,110
26254,note_on,334,0,5,,,,,,,,,6,,,52,0
26302,note_on,94,0,1,,,,,,,,,11,,,62,0
26304,note_on,2,0,1,,,,,,,,,11,,,80,110
26398,note_on,94,0,1,,,,,,,,,11,,,80,0
26400,note_on,2,0,1,,,,,,,,,11,,,81,110
26494,note_on,94,0,1,,,,,,,,,11,,,81,0
26496,note_on,242,0,5,,,,,,,,,6,,,45,92
26496,note_on,2,0,1,,,,,,,,,11,,,81,110
26590,note_on,94,0,1,,,,,,,,,11,,,81,0
26592,note_on,2,0,1,,,,,,,,,11,,,76,110
26638,note_on,46,0,1,,,,,,,,,11,,,76,0
26640,note_on,2,0,1,,,,,,,,,11,,,74,110
26686,note_on,46,0,1,,,,,,,,,11,,,74,0
26688,note_on,2,0,1,,,,,,,,,11,,,73,110
26734,note_on,46,0,1,,,,,,,,,11,,,73,0
26736,note_on,2,0,1,,,,,,,,,11,,,71,110
26752,note_on,256,0,5,,,,,,,,,6,,,45,0
26782,note_on,46,0,1,,,,,,,,,11,,,71,0
26784,note_on,2,0,1,,,,,,,,,11,,,69,110
26784,note_on,32,0,5,,,,,,,,,6,,,45,92
26878,note_on,94,0,1,,,,,,,,,11,,,69,0
26880,note_on,2,0,1,,,,,,,,,11,,,64,110
26926,note_on,46,0,1,,,,,,,,,11,,,64,0
26928,note_on,2,0,1,,,,,,,,,11,,,62,110
26974,note_on,46,0,1,,,,,,,,,11,,,62,0
26976,note_on,2,0,1,,,,,,,,,11,,,61,110
27022,note_on,46,0,1,,,,,,,,,11,,,61,0
27024,note_on,2,0,1,,,,,,,,,11,,,59,110
27040,note_on,256,0,5,,,,,,,,,6,,,45,0
27070,note_on,46,0,1,,,,,,,,,11,,,59,0
27072,note_on,32,0,5,,,,,,,,,6,,,45,92
27072,note_on,2,0,1,,,,,,,,,11,,,57,110
27166,note_on,94,0,1,,,,,,,,,11,,,57,0
27168,note_on,2,0,1,,,,,,,,,11,,,81,110
27262,note_on,94,0,1,,,,,,,,,11,,,81,0
27264,note_on,2,0,1,,,,,,,,,11,,,83,110
27358,note_on,94,0,1,,,,,,,,,11,,,83,0
27360,note_on,2,0,1,,,,,,,,,11,,,85,110
27430,note_on,358,0,5,,,,,,,,,6,,,45,0
27454,note_on,94,0,1,,,,,,,,,11,,,85,0
27456,note_on,2,0,1,,,,,,,,,11,,,83,110
27550,note_on,94,0,1,,,,,,,,,11,,,83,0
27552,note_on,2,0,1,,,,,,,,,11,,,81,110
27646,note_on,94,0,1,,,,,,,,,11,,,81,0
27648,note_on,2,0,1,,,,,,,,,11,,,88,110
27744,note_on,314,0,5,,,,,,,,,6,,,52,92
27838,note_on,94,0,5,,,,,,,,,6,,,52,0
27840,note_on,2,0,5,,,,,,,,,6,,,54,92
27904,note_on,256,0,1,,,,,,,,,11,,,88,0
27934,note_on,94,0,5,,,,,,,,,6,,,54,0
27936,note_on,2,0,5,,,,,,,,,6,,,56,92
27936,note_on,32,0,1,,,,,,,,,11,,,88,110
27982,note_on,46,0,1,,,,,,,,,11,,,88,0
27984,note_on,2,0,1,,,,,,,,,11,,,86,110
28030,note_on,94,0,5,,,,,,,,,6,,,56,0
28030,note_on,46,0,1,,,,,,,,,11,,,86,0
28032,note_on,2,0,5,,,,,,,,,6,,,54,92
28032,note_on,2,0,1,,,,,,,,,11,,,88,110
28078,note_on,46,0,1,,,,,,,,,11,,,88,0
28080,note_on,2,0,1,,,,,,,,,11,,,86,110
28126,note_on,94,0,5,,,,,,,,,6,,,54,0
28126,note_on,46,0,1,,,,,,,,,11,,,86,0
28128,note_on,2,0,1,,,,,,,,,11,,,88,110
28128,note_on,2,0,5,,,,,,,,,6,,,52,92
28174,note_on,46,0,1,,,,,,,,,11,,,88,0
28176,note_on,2,0,1,,,,,,,,,11,,,86,110
28222,note_on,46,0,1,,,,,,,,,11,,,86,0
28222,note_on,94,0,5,,,,,,,,,6,,,52,0
28224,note_on,2,0,1,,,,,,,,,11,,,85,110
28224,note_on,2,0,5,,,,,,,,,6,,,57,92
28318,note_on,94,0,1,,,,,,,,,11,,,85,0
28320,note_on,2,0,1,,,,,,,,,11,,,81,110
28414,note_on,94,0,1,,,,,,,,,11,,,81,0
28416,note_on,2,0,1,,,,,,,,,11,,,83,110
28510,note_on,94,0,1,,,,,,,,,11,,,83,0
28512,note_on,2,0,1,,,,,,,,,11,,,85,110
28558,note_on,334,0,5,,,,,,,,,6,,,57,0
28606,note_on,94,0,1,,,,,,,,,11,,,85,0
28608,note_on,2,0,1,,,,,,,,,11,,,83,110
28702,note_on,94,0,1,,,,,,,,,11,,,83,0
28704,note_on,2,0,1,,,,,,,,,11,,,81,110
28798,note_on,94,0,1,,,,,,,,,11,,,81,0
28800,note_on,2,0,1,,,,,,,,,11,,,86,110
28896,note_on,338,0,5,,,,,,,,,6,,,47,92
28990,note_on,94,0,5,,,,,,,,,6,,,47,0
28992,note_on,2,0,5,,,,,,,,,6,,,49,92
29056,note_on,256,0,1,,,,,,,,,11,,,86,0
29086,note_on,94,0,5,,,,,,,,,6,,,49,0
29088,note_on,32,0,1,,,,,,,,,11,,,86,110
29088,note_on,2,0,5,,,,,,,,,6,,,51,92
29134,note_on,46,0,1,,,,,,,,,11,,,86,0
29136,note_on,2,0,1,,,,,,,,,11,,,85,110
29182,note_on,94,0,5,,,,,,,,,6,,,51,0
29182,note_on,46,0,1,,,,,,,,,11,,,85,0
29184,note_on,2,0,5,,,,,,,,,6,,,52,92
29184,note_on,2,0,1,,,,,,,,,11,,,86,110
29230,note_on,46,0,1,,,,,,,,,11,,,86,0
29232,note_on,2,0,1,,,,,,,,,11,,,85,110
29278,note_on,46,0,1,,,,,,,,,11,,,85,0
29278,note_on,94,0,5,,,,,,,,,6,,,52,0
29280,note_on,2,0,1,,,,,,,,,11,,,86,110
29280,note_on,2,0,5,,,,,,,,,6,,,54,92
29326,note_on,46,0,1,,,,,,,,,11,,,86,0
29328,note_on,2,0,1,,,,,,,,,11,,,85,110
29374,note_on,46,0,1,,,,,,,,,11,,,85,0
29374,note_on,94,0,5,,,,,,,,,6,,,54,0
29376,note_on,2,0,1,,,,,,,,,11,,,83,110
29376,note_on,2,0,5,,,,,,,,,6,,,56,92
29470,note_on,94,0,5,,,,,,,,,6,,,56,0
29472,note_on,2,0,5,,,,,,,,,6,,,57,92
29566,note_on,94,0,5,,,,,,,,,6,,,57,0
29568,note_on,2,0,5,,,,,,,,,6,,,59,92
29662,note_on,94,0,5,,,,,,,,,6,,,59,0
29664,note_on,2,0,5,,,,,,,,,6,,,57,92
29734,note_on,358,0,1,,,,,,,,,11,,,83,0
29758,note_on,94,0,5,,,,,,,,,6,,,57,0
29760,note_on,2,0,5,,,,,,,,,6,,,56,92
29854,note_on,94,0,5,,,,,,,,,6,,,56,0
29856,note_on,2,0,5,,,,,,,,,6,,,54,92
29950,note_on,94,0,5,,,,,,,,,6,,,54,0
29952,note_on,218,0,1,,,,,,,,,11,,,57,110
29952,note_on,2,0,5,,,,,,,,,6,,,45,92
30046,note_on,94,0,1,,,,,,,,,11,,,57,0
30048,note_on,2,0,1,,,,,,,,,11,,,69,110
30094,note_on,46,0,1,,,,,,,,,11,,,69,0
30096,note_on,2,0,1,,,,,,,,,11,,,71,110
30142,note_on,46,0,1,,,,,,,,,11,,,71,0
30144,note_on,2,0,1,,,,,,,,,11,,,73,110
30190,note_on,46,0,1,,,,,,,,,11,,,73,0
30192,note_on,2,0,1,,,,,,,,,11,,,74,110
30238,note_on,46,0,1,,,,,,,,,11,,,74,0
30240,note_on,2,0,1,,,,,,,,,11,,,76,110
30286,note_on,334,0,5,,,,,,,,,6,,,45,0
30334,note_on,94,0,1,,,,,,,,,11,,,76,0
30336,note_on,2,0,1,,,,,,,,,11,,,74,110
30430,note_on,94,0,1,,,,,,,,,11,,,74,0
30432,note_on,2,0,1,,,,,,,,,11,,,73,110
30526,note_on,94,0,1,,,,,,,,,11,,,73,0
30528,note_on,242,0,5,,,,,,,,,6,,,52,92
30528,note_on,2,0,1,,,,,,,,,11,,,64,110
30622,note_on,94,0,1,,,,,,,,,11,,,64,0
30624,note_on,2,0,1,,,,,,,,,11,,,76,110
30670,note_on,46,0,1,,,,,,,,,11,,,76,0
30672,note_on,2,0,1,,,,,,,,,11,,,78,110
30718,note_on,46,0,1,,,,,,,,,11,,,78,0
30720,note_on,2,0,1,,,,,,,,,11,,,80,110
30766,note_on,46,0,1,,,,,,,,,11,,,80,0
30768,note_on,2,0,1,,,,,,,,,11,,,81,110
30814,note_on,46,0,1,,,,,,,,,11,,,81,0
30816,note_on,2,0,1,,,,,,,,,11,,,83,110
30862,note_on,334,0,5,,,,,,,,,6,,,52,0
30910,note_on,94,0,1,,,,,,,,,11,,,83,0
30912,note_on,2,0,1,,,,,,,,,11,,,81,110
31006,note_on,94,0,1,,,,,,,,,11,,,81,0
31008,note_on,2,0,1,,,,,,,,,11,,,80,110
31102,note_on,94,0,1,,,,,,,,,11,,,80,0
31104,note_on,2,0,1,,,,,,,,,11,,,57,110
31104,note_on,242,0,5,,,,,,,,,6,,,45,92
31198,note_on,94,0,1,,,,,,,,,11,,,57,0
31200,note_on,2,0,1,,,,,,,,,11,,,69,110
31246,note_on,46,0,1,,,,,,,,,11,,,69,0
31248,note_on,2,0,1,,,,,,,,,11,,,71,110
31294,note_on,46,0,1,,,,,,,,,11,,,71,0
31296,note_on,2,0,1,,,,,,,,,11,,,73,110
31342,note_on,46,0,1,,,,,,,,,11,,,73,0
31344,note_on,2,0,1,,,,,,,,,11,,,74,110
31390,note_on,46,0,1,,,,,,,,,11,,,74,0
31392,note_on,2,0,1,,,,,,,,,11,,,76,110
31438,note_on,334,0,5,,,,,,,,,6,,,45,0
31486,note_on,94,0,1,,,,,,,,,11,,,76,0
31488,note_on,2,0,1,,,,,,,,,11,,,74,110
31582,note_on,94,0,1,,,,,,,,,11,,,74,0
31584,note_on,2,0,1,,,,,,,,,11,,,73,110
31678,note_on,94,0,1,,,,,,,,,11,,,73,0
31680,note_on,2,0,1,,,,,,,,,11,,,64,110
31680,note_on,242,0,5,,,,,,,,,6,,,52,92
31774,note_on,94,0,1,,,,,,,,,11,,,64,0
31776,note_on,2,0,1,,,,,,,,,11,,,76,110
31822,note_on,46,0,1,,,,,,,,,11,,,76,0
31824,note_on,2,0,1,,,,,,,,,11,,,78,110
31870,note_on,46,0,1,,,,,,,,,11,,,78,0
31872,note_on,2,0,1,,,,,,,,,11,,,80,110
31918,note_on,46,0,1,,,,,,,,,11,,,80,0
31920,note_on,2,0,1,,,,,,,,,11,,,81,110
31966,note_on,46,0,1,,,,,,,,,11,,,81,0
31968,note_on,2,0,1,,,,,,,,,11,,,83,110
32038,note_on,358,0,5,,,,,,,,,6,,,52,0
32224,note_on,256,0,1,,,,,,,,,11,,,83,0
32256,note_on,11738,0,2,,,,,,,,,0,,,64,110
32256,note_on,32,0,1,,,,,,,,,11,,,83,110
32350,note_on,94,0,2,,,,,,,,,0,,,64,0
32352,note_on,2,0,2,,,,,,,,,0,,,71,110
32446,note_on,94,0,2,,,,,,,,,0,,,71,0
32448,note_on,2,0,2,,,,,,,,,0,,,69,110
32512,note_on,256,0,1,,,,,,,,,11,,,83,0
32542,note_on,94,0,2,,,,,,,,,0,,,69,0
32544,note_on,2,0,2,,,,,,,,,0,,,68,110
32544,note_on,32,0,1,,,,,,,,,11,,,85,110
32590,note_on,46,0,1,,,,,,,,,11,,,85,0
32592,note_on,2,0,1,,,,,,,,,11,,,83,110
32638,note_on,94,0,2,,,,,,,,,0,,,68,0
32638,note_on,46,0,1,,,,,,,,,11,,,83,0
32640,note_on,2,0,2,,,,,,,,,0,,,66,110
32640,note_on,2,0,1,,,,,,,,,11,,,85,110
32686,note_on,46,0,1,,,,,,,,,11,,,85,0
32688,note_on,2,0,1,,,,,,,,,11,,,83,110
32734,note_on,94,0,2,,,,,,,,,0,,,66,0
32734,note_on,46,0,1,,,,,,,,,11,,,83,0
32736,note_on,2,0,1,,,,,,,,,11,,,81,110
32736,note_on,2,0,2,,,,,,,,,0,,,64,110
32782,note_on,46,0,1,,,,,,,,,11,,,81,0
32784,note_on,2,0,1,,,,,,,,,11,,,83,110
32830,note_on,46,0,1,,,,,,,,,11,,,83,0
32830,note_on,94,0,2,,,,,,,,,0,,,64,0
32832,note_on,2,0,1,,,,,,,,,11,,,85,110
32832,note_on,2,0,2,,,,,,,,,0,,,69,110
32878,note_on,46,0,1,,,,,,,,,11,,,85,0
32880,note_on,2,0,1,,,,,,,,,11,,,83,110
32926,note_on,94,0,2,,,,,,,,,0,,,69,0
32926,note_on,46,0,1,,,,,,,,,11,,,83,0
32928,note_on,2,0,1,,,,,,,,,11,,,81,110
32928,note_on,2,0,2,,,,,,,,,0,,,76,110
33022,note_on,94,0,2,,,,,,,,,0,,,76,0
33024,note_on,2,0,2,,,,,,,,,0,,,74,110
33088,note_on,160,0,1,,,,,,,,,11,,,81,0
33118,note_on,94,0,2,,,,,,,,,0,,,74,0
33120,note_on,2,0,2,,,,,,,,,0,,,73,110
33214,note_on,94,0,2,,,,,,,,,0,,,73,0
33216,note_on,2,0,2,,,,,,,,,0,,,71,110
33310,note_on,94,0,2,,,,,,,,,0,,,71,0
33312,note_on,2,0,2,,,,,,,,,0,,,69,110
33406,note_on,94,0,2,,,,,,,,,0,,,69,0
33408,note_on,320,0,1,,,,,,,,,11,,,85,110
33408,note_on,2,0,2,,,,,,,,,0,,,57,110
33502,note_on,94,0,2,,,,,,,,,0,,,57,0
33504,note_on,2,0,2,,,,,,,,,0,,,64,110
33598,note_on,94,0,2,,,,,,,,,0,,,64,0
33600,note_on,2,0,2,,,,,,,,,0,,,62,110
33664,note_on,256,0,1,,,,,,,,,11,,,85,0
33694,note_on,94,0,2,,,,,,,,,0,,,62,0
33696,note_on,2,0,2,,,,,,,,,0,,,61,110
33696,note_on,32,0,1,,,,,,,,,11,,,86,110
33742,note_on,46,0,1,,,,,,,,,11,,,86,0
33744,note_on,2,0,1,,,,,,,,,11,,,85,110
33790,note_on,46,0,1,,,,,,,,,11,,,85,0
33790,note_on,94,0,2,,,,,,,,,0,,,61,0
33792,note_on,2,0,1,,,,,,,,,11,,,86,110
33792,note_on,2,0,2,,,,,,,,,0,,,59,110
33838,note_on,46,0,1,,,,,,,,,11,,,86,0
33840,note_on,2,0,1,,,,,,,,,11,,,85,110
33886,note_on,46,0,1,,,,,,,,,11,,,85,0
33886,note_on,94,0,2,,,,,,,,,0,,,59,0
33888,note_on,2,0,2,,,,,,,,,0,,,57,110
33888,note_on,2,0,1,,,,,,,,,11,,,83,110
33934,note_on,46,0,1,,,,,,,,,11,,,83,0
33936,note_on,2,0,1,,,,,,,,,11,,,85,110
33982,note_on,46,0,1,,,,,,,,,11,,,85,0
33982,note_on,94,0,2,,,,,,,,,0,,,57,0
33984,note_on,2,0,1,,,,,,,,,11,,,87,110
33984,note_on,2,0,2,,,,,,,,,0,,,59,110
34030,note_on,46,0,1,,,,,,,,,11,,,87,0
34032,note_on,2,0,1,,,,,,,,,11,,,85,110
34078,note_on,46,0,1,,,,,,,,,11,,,85,0
34078,note_on,94,0,2,,,,,,,,,0,,,59,0
34080,note_on,2,0,1,,,,,,,,,11,,,83,110
34080,note_on,2,0,2,,,,,,,,,0,,,71,110
34174,note_on,94,0,2,,,,,,,,,0,,,71,0
34176,note_on,2,0,2,,,,,,,,,0,,,69,110
34240,note_on,160,0,1,,,,,,,,,11,,,83,0
34270,note_on,94,0,2,,,,,,,,,0,,,69,0
34272,note_on,32,0,1,,,,,,,,,11,,,88,110
34272,note_on,2,0,2,,,,,,,,,0,,,68,110
34366,note_on,94,0,2,,,,,,,,,0,,,68,0
34368,note_on,2,0,2,,,,,,,,,0,,,66,110
34462,note_on,94,0,2,,,,,,,,,0,,,66,0
34464,note_on,2,0,2,,,,,,,,,0,,,64,110
34558,note_on,94,0,2,,,,,,,,,0,,,64,0
34560,note_on,2,0,2,,,,,,,,,0,,,66,110
34654,note_on,382,0,1,,,,,,,,,11,,,88,0
34656,note_on,2,0,1,,,,,,,,,11,,,86,110
34702,note_on,46,0,1,,,,,,,,,11,,,86,0
34704,note_on,2,0,1,,,,,,,,,11,,,85,110
34720,note_on,160,0,2,,,,,,,,,0,,,66,0
34750,note_on,46,0,1,,,,,,,,,11,,,85,0
34752,note_on,32,0,2,,,,,,,,,0,,,68,110
34752,note_on,2,0,1,,,,,,,,,11,,,83,110
34846,note_on,94,0,2,,,,,,,,,0,,,68,0
34846,note_on,94,0,1,,,,,,,,,11,,,83,0
34848,note_on,2,0,1,,,,,,,,,11,,,85,110
34848,note_on,2,0,2,,,,,,,,,0,,,69,110
34942,note_on,94,0,1,,,,,,,,,11,,,85,0
34944,note_on,2,0,1,,,,,,,,,11,,,83,110
34990,note_on,46,0,1,,,,,,,,,11,,,83,0
34992,note_on,2,0,1,,,,,,,,,11,,,81,110
35008,note_on,160,0,2,,,,,,,,,0,,,69,0
35038,note_on,46,0,1,,,,,,,,,11,,,81,0
35040,note_on,2,0,1,,,,,,,,,11,,,80,110
35040,note_on,32,0,2,,,,,,,,,0,,,64,110
35134,note_on,94,0,2,,,,,,,,,0,,,64,0
35134,note_on,94,0,1,,,,,,,,,11,,,80,0
35136,note_on,2,0,1,,,,,,,,,11,,,81,110
35136,note_on,2,0,2,,,,,,,,,0,,,66,110
35230,note_on,94,0,1,,,,,,,,,11,,,81,0
35232,note_on,2,0,1,,,,,,,,,11,,,80,110
35278,note_on,46,0,1,,,,,,,,,11,,,80,0
35280,note_on,2,0,1,,,,,,,,,11,,,78,110
35296,note_on,160,0,2,,,,,,,,,0,,,66,0
35326,note_on,46,0,1,,,,,,,,,11,,,78,0
35328,note_on,2,0,1,,,,,,,,,11,,,76,110
35328,note_on,32,0,2,,,,,,,,,0,,,73,110
35422,note_on,94,0,1,,,,,,,,,11,,,76,0
35422,note_on,94,0,2,,,,,,,,,0,,,73,0
35424,note_on,2,0,1,,,,,,,,,11,,,80,110
35424,note_on,2,0,2,,,,,,,,,0,,,71,110
35470,note_on,46,0,1,,,,,,,,,11,,,80,0
35472,note_on,2,0,1,,,,,,,,,11,,,78,110
35518,note_on,46,0,1,,,,,,,,,11,,,78,0
35520,note_on,2,0,1,,,,,,,,,11,,,80,110
35566,note_on,46,0,1,,,,,,,,,11,,,80,0
35568,note_on,2,0,1,,,,,,,,,11,,,78,110
35584,note_on,160,0,2,,,,,,,,,0,,,71,0
35614,note_on,46,0,1,,,,,,,,,11,,,78,0
35616,note_on,2,0,1,,,,,,,,,11,,,80,110
35616,note_on,32,0,2,,,,,,,,,0,,,59,110
35662,note_on,46,0,1,,,,,,,,,11,,,80,0
35664,note_on,2,0,1,,,,,,,,,11,,,78,110
35710,note_on,46,0,1,,,,,,,,,11,,,78,0
35710,note_on,94,0,2,,,,,,,,,0,,,59,0
35712,note_on,2,0,2,,,,,,,,,0,,,64,110
35712,note_on,2,0,1,,,,,,,,,11,,,76,110
35806,note_on,94,0,2,,,,,,,,,0,,,64,0
35808,note_on,2,0,2,,,,,,,,,0,,,71,110
35902,note_on,94,0,2,,,,,,,,,0,,,71,0
35904,note_on,2,0,2,,,,,,,,,0,,,69,110
35968,note_on,256,0,1,,,,,,,,,11,,,76,0
35998,note_on,94,0,2,,,,,,,,,0,,,69,0
36000,note_on,32,0,1,,,,,,,,,11,,,88,110
36000,note_on,2,0,2,,,,,,,,,0,,,68,110
36094,note_on,94,0,2,,,,,,,,,0,,,68,0
36096,note_on,2,0,2,,,,,,,,,0,,,66,110
36190,note_on,94,0,2,,,,,,,,,0,,,66,0
36192,note_on,2,0,2,,,,,,,,,0,,,64,110
36286,note_on,94,0,2,,,,,,,,,0,,,64,0
36288,note_on,2,0,2,,,,,,,,,0,,,66,110
36336,note_on,336,0,1,,,,,,,,,11,,,88,0
36384,note_on,48,0,1,,,,,,,,,11,,,83,110
36478,note_on,94,0,1,,,,,,,,,11,,,83,0
36480,note_on,2,0,1,,,,,,,,,11,,,81,110
36544,note_on,256,0,2,,,,,,,,,0,,,66,0
36574,note_on,94,0,1,,,,,,,,,11,,,81,0
36576,note_on,2,0,1,,,,,,,,,11,,,80,110
36576,note_on,32,0,2,,,,,,,,,0,,,64,110
36670,note_on,94,0,1,,,,,,,,,11,,,80,0
36672,note_on,2,0,1,,,,,,,,,11,,,78,110
36766,note_on,94,0,1,,,,,,,,,11,,,78,0
36768,note_on,2,0,1,,,,,,,,,11,,,76,110
36832,note_on,256,0,2,,,,,,,,,0,,,64,0
36862,note_on,94,0,1,,,,,,,,,11,,,76,0
36864,note_on,2,0,1,,,,,,,,,11,,,64,110
36958,note_on,94,0,1,,,,,,,,,11,,,64,0
36960,note_on,2,0,1,,,,,,,,,11,,,76,110
37054,note_on,94,0,1,,,,,,,,,11,,,76,0
37056,note_on,2,0,1,,,,,,,,,11,,,78,110
37056,note_on,224,0,2,,,,,,,,,0,,,69,110
37150,note_on,94,0,2,,,,,,,,,0,,,69,0
37150,note_on,94,0,1,,,,,,,,,11,,,78,0
37152,note_on,2,0,1,,,,,,,,,11,,,80,110
37152,note_on,2,0,2,,,,,,,,,0,,,71,110
37198,note_on,46,0,1,,,,,,,,,11,,,80,0
37200,note_on,2,0,1,,,,,,,,,11,,,78,110
37246,note_on,46,0,1,,,,,,,,,11,,,78,0
37248,note_on,2,0,1,,,,,,,,,11,,,80,110
37294,note_on,46,0,1,,,,,,,,,11,,,80,0
37296,note_on,2,0,1,,,,,,,,,11,,,78,110
37312,note_on,160,0,2,,,,,,,,,0,,,71,0
37342,note_on,46,0,1,,,,,,,,,11,,,78,0
37344,note_on,32,0,2,,,,,,,,,0,,,59,110
37344,note_on,2,0,1,,,,,,,,,11,,,80,110
37390,note_on,46,0,1,,,,,,,,,11,,,80,0
37392,note_on,2,0,1,,,,,,,,,11,,,78,110
37438,note_on,94,0,2,,,,,,,,,0,,,59,0
37438,note_on,46,0,1,,,,,,,,,11,,,78,0
37440,note_on,16922,0,4,,,,,,,,,4,,,59,75
37440,note_on,5402,0,5,,,,,,,,,6,,,52,92
37440,note_on,2,0,2,,,,,,,,,0,,,64,110
37440,note_on,16922,0,6,,,,,,,,,8,,,40,92
37440,note_on,16922,0,3,,,,,,,,,2,,,64,110
37440,note_on,2,0,1,,,,,,,,,11,,,64,110
37534,note_on,94,0,1,,,,,,,,,11,,,64,0
37534,note_on,94,0,2,,,,,,,,,0,,,64,0
37534,note_on,94,0,3,,,,,,,,,2,,,64,0
37536,note_on,2,0,1,,,,,,,,,11,,,68,110
37536,note_on,2,0,3,,,,,,,,,2,,,68,110
37536,note_on,2,0,2,,,,,,,,,0,,,68,110
37630,note_on,94,0,2,,,,,,,,,0,,,68,0
37630,note_on,94,0,1,,,,,,,,,11,,,68,0
37630,note_on,94,0,3,,,,,,,,,2,,,68,0
37632,note_on,2,0,2,,,,,,,,,0,,,71,110
37632,note_on,2,0,1,,,,,,,,,11,,,71,110
37632,note_on,2,0,3,,,,,,,,,2,,,71,110
37696,note_on,256,0,6,,,,,,,,,8,,,40,0
37696,note_on,256,0,5,,,,,,,,,6,,,52,0
37696,note_on,256,0,4,,,,,,,,,4,,,59,0
37726,note_on,94,0,3,,,,,,,,,2,,,71,0
37726,note_on,94,0,1,,,,,,,,,11,,,71,0
37726,note_on,94,0,2,,,,,,,,,0,,,71,0
37728,note_on,2,0,2,,,,,,,,,0,,,76,110
37728,note_on,32,0,5,,,,,,,,,6,,,52,92
37728,note_on,32,0,6,,,,,,,,,8,,,40,92
37728,note_on,32,0,4,,,,,,,,,4,,,59,75
37728,note_on,2,0,3,,,,,,,,,2,,,76,110
37728,note_on,2,0,1,,,,,,,,,11,,,76,110
37822,note_on,94,0,1,,,,,,,,,11,,,76,0
37822,note_on,94,0,3,,,,,,,,,2,,,76,0
37822,note_on,94,0,2,,,,,,,,,0,,,76,0
37824,note_on,2,0,3,,,,,,,,,2,,,71,110
37824,note_on,2,0,2,,,,,,,,,0,,,71,110
37824,note_on,2,0,1,,,,,,,,,11,,,71,110
37918,note_on,94,0,2,,,,,,,,,0,,,71,0
37918,note_on,94,0,3,,,,,,,,,2,,,71,0
37918,note_on,94,0,1,,,,,,,,,11,,,71,0
37920,note_on,2,0,1,,,,,,,,,11,,,68,110
37920,note_on,2,0,2,,,,,,,,,0,,,68,110
37920,note_on,2,0,3,,,,,,,,,2,,,68,110
37984,note_on,256,0,4,,,,,,,,,4,,,59,0
37984,note_on,256,0,5,,,,,,,,,6,,,52,0
37984,note_on,256,0,6,,,,,,,,,8,,,40,0
38014,note_on,94,0,2,,,,,,,,,0,,,68,0
38014,note_on,94,0,1,,,,,,,,,11,,,68,0
38014,note_on,94,0,3,,,,,,,,,2,,,68,0
38016,note_on,2,0,1,,,,,,,,,11,,,66,110
38016,note_on,2,0,3,,,,,,,,,2,,,66,110
38016,note_on,32,0,5,,,,,,,,,6,,,47,92
38016,note_on,32,0,4,,,,,,,,,4,,,63,75
38016,note_on,32,0,6,,,,,,,,,8,,,35,92
38016,note_on,2,0,2,,,,,,,,,0,,,66,110
38272,note_on,256,0,1,,,,,,,,,11,,,66,0
38272,note_on,256,0,2,,,,,,,,,0,,,66,0
38272,note_on,256,0,4,,,,,,,,,4,,,63,0
38272,note_on,256,0,6,,,,,,,,,8,,,35,0
38272,note_on,256,0,3,,,,,,,,,2,,,66,0
38272,note_on,256,0,5,,,,,,,,,6,,,47,0
38304,note_on,32,0,6,,,,,,,,,8,,,40,92
38304,note_on,32,0,5,,,,,,,,,6,,,52,92
38304,note_on,32,0,3,,,,,,,,,2,,,64,110
38304,note_on,32,0,4,,,,,,,,,4,,,59,75
38304,note_on,32,0,1,,,,,,,,,11,,,64,110
38304,note_on,32,0,2,,,,,,,,,0,,,64,110
38398,note_on,94,0,5,,,,,,,,,6,,,52,0
38398,note_on,94,0,3,,,,,,,,,2,,,64,0
38398,note_on,94,0,6,,,,,,,,,8,,,40,0
38398,note_on,94,0,4,,,,,,,,,4,,,59,0
38398,note_on,94,0,1,,,,,,,,,11,,,64,0
38398,note_on,94,0,2,,,,,,,,,0,,,64,0
38496,note_on,98,0,3,,,,,,,,,2,,,80,110
38496,note_on,98,0,2,,,,,,,,,0,,,80,110
38496,note_on,98,0,1,,,,,,,,,11,,,80,110
38590,note_on,94,0,3,,,,,,,,,2,,,80,0
38590,note_on,94,0,2,,,,,,,,,0,,,80,0
38590,note_on,94,0,1,,,,,,,,,11,,,80,0
38592,note_on,194,0,6,,,,,,,,,8,,,40,92
38592,note_on,194,0,5,,,,,,,,,6,,,52,92
38592,note_on,2,0,3,,,,,,,,,2,,,76,110
38592,note_on,2,0,2,,,,,,,,,0,,,76,110
38592,note_on,2,0,1,,,,,,,,,11,,,76,110
38592,note_on,194,0,4,,,,,,,,,4,,,59,75
38686,note_on,94,0,2,,,,,,,,,0,,,76,0
38686,note_on,94,0,3,,,,,,,,,2,,,76,0
38686,note_on,94,0,1,,,,,,,,,11,,,76,0
38688,note_on,2,0,2,,,,,,,,,0,,,71,110
38688,note_on,2,0,3,,,,,,,,,2,,,71,110
38688,note_on,2,0,1,,,,,,,,,11,,,71,110
38782,note_on,94,0,2,,,,,,,,,0,,,71,0
38782,note_on,94,0,1,,,,,,,,,11,,,71,0
38782,note_on,94,0,3,,,,,,,,,2,,,71,0
38784,note_on,2,0,3,,,,,,,,,2,,,76,110
38784,note_on,2,0,1,,,,,,,,,11,,,76,110
38784,note_on,2,0,2,,,,,,,,,0,,,76,110
38848,note_on,256,0,5,,,,,,,,,6,,,52,0
38848,note_on,256,0,4,,,,,,,,,4,,,59,0
38848,note_on,256,0,6,,,,,,,,,8,,,40,0
38878,note_on,94,0,2,,,,,,,,,0,,,76,0
38878,note_on,94,0,1,,,,,,,,,11,,,76,0
38878,note_on,94,0,3,,,,,,,,,2,,,76,0
38880,note_on,2,0,2,,,,,,,,,0,,,78,110
38880,note_on,2,0,1,,,,,,,,,11,,,78,110
38880,note_on,32,0,6,,,,,,,,,8,,,35,92
38880,note_on,2,0,3,,,,,,,,,2,,,78,110
38880,note_on,32,0,5,,,,,,,,,6,,,47,92
38880,note_on,32,0,4,,,,,,,,,4,,,63,75
38974,note_on,94,0,1,,,,,,,,,11,,,78,0
38974,note_on,94,0,3,,,,,,,,,2,,,78,0
38974,note_on,94,0,2,,,,,,,,,0,,,78,0
38976,note_on,2,0,2,,,,,,,,,0,,,80,110
38976,note_on,2,0,3,,,,,,,,,2,,,80,110
38976,note_on,2,0,1,,,,,,,,,11,,,80,110
39070,note_on,94,0,3,,,,,,,,,2,,,80,0
39070,note_on,94,0,2,,,,,,,,,0,,,80,0
39070,note_on,94,0,1,,,,,,,,,11,,,80,0
39072,note_on,2,0,3,,,,,,,,,2,,,81,110
39072,note_on,2,0,1,,,,,,,,,11,,,81,110
39072,note_on,2,0,2,,,,,,,,,0,,,81,110
39136,note_on,256,0,5,,,,,,,,,6,,,47,0
39136,note_on,256,0,4,,,,,,,,,4,,,63,0
39136,note_on,256,0,6,,,,,,,,,8,,,35,0
39166,note_on,94,0,3,,,,,,,,,2,,,81,0
39166,note_on,94,0,1,,,,,,,,,11,,,81,0
39166,note_on,94,0,2,,,,,,,,,0,,,81,0
39168,note_on,32,0,6,,,,,,,,,8,,,40,92
39168,note_on,2,0,3,,,,,,,,,2,,,81,110
39168,note_on,32,0,4,,,,,,,,,4,,,59,75
39168,note_on,2,0,1,,,,,,,,,11,,,81,110
39168,note_on,32,0,5,,,,,,,,,6,,,52,92
39168,note_on,2,0,2,,,,,,,,,0,,,81,110
39424,note_on,256,0,2,,,,,,,,,0,,,81,0
39424,note_on,256,0,4,,,,,,,,,4,,,59,0
39424,note_on,256,0,1,,,,,,,,,11,,,81,0
39424,note_on,256,0,5,,,,,,,,,6,,,52,0
39424,note_on,256,0,3,,,,,,,,,2,,,81,0
39424,note_on,256,0,6,,,,,,,,,8,,,40,0
39456,note_on,32,0,3,,,,,,,,,2,,,80,110
39456,note_on,32,0,5,,,,,,,,,6,,,40,92
39456,note_on,32,0,6,,,,,,,,,8,,,28,92
39456,note_on,32,0,4,,,,,,,,,4,,,59,75
39456,note_on,32,0,2,,,,,,,,,0,,,80,110
39456,note_on,32,0,1,,,,,,,,,11,,,80,110
39550,note_on,94,0,2,,,,,,,,,0,,,80,0
39550,note_on,94,0,3,,,,,,,,,2,,,80,0
39550,note_on,94,0,6,,,,,,,,,8,,,28,0
39550,note_on,94,0,4,,,,,,,,,4,,,59,0
39550,note_on,94,0,5,,,,,,,,,6,,,40,0
39550,note_on,94,0,1,,,,,,,,,11,,,80,0
39648,note_on,98,0,2,,,,,,,,,0,,,83,110
39648,note_on,98,0,3,,,,,,,,,2,,,83,110
39648,note_on,98,0,1,,,,,,,,,11,,,83,110
39742,note_on,94,0,1,,,,,,,,,11,,,83,0
39742,note_on,94,0,2,,,,,,,,,0,,,83,0
39742,note_on,94,0,3,,,,,,,,,2,,,83,0
39744,note_on,194,0,5,,,,,,,,,6,,,52,92
39744,note_on,194,0,6,,,,,,,,,8,,,40,92
39744,note_on,2,0,3,,,,,,,,,2,,,76,110
39744,note_on,2,0,1,,,,,,,,,11,,,76,110
39744,note_on,194,0,4,,,,,,,,,4,,,68,75
39744,note_on,2,0,2,,,,,,,,,0,,,76,110
39838,note_on,94,0,1,,,,,,,,,11,,,76,0
39838,note_on,94,0,2,,,,,,,,,0,,,76,0
39838,note_on,94,0,3,,,,,,,,,2,,,76,0
39840,note_on,2,0,1,,,,,,,,,11,,,71,110
39840,note_on,2,0,2,,,,,,,,,0,,,71,110
39840,note_on,2,0,3,,,,,,,,,2,,,71,110
39934,note_on,94,0,2,,,,,,,,,0,,,71,0
39934,note_on,94,0,1,,,,,,,,,11,,,71,0
39934,note_on,94,0,3,,,,,,,,,2,,,71,0
39936,note_on,2,0,2,,,,,,,,,0,,,76,110
39936,note_on,2,0,1,,,,,,,,,11,,,76,110
39936,note_on,2,0,3,,,,,,,,,2,,,76,110
40000,note_on,256,0,5,,,,,,,,,6,,,52,0
40000,note_on,256,0,6,,,,,,,,,8,,,40,0
40000,note_on,256,0,4,,,,,,,,,4,,,68,0
40030,note_on,94,0,1,,,,,,,,,11,,,76,0
40030,note_on,94,0,2,,,,,,,,,0,,,76,0
40030,note_on,94,0,3,,,,,,,,,2,,,76,0
40032,note_on,2,0,2,,,,,,,,,0,,,78,110
40032,note_on,2,0,3,,,,,,,,,2,,,78,110
40032,note_on,2,0,1,,,,,,,,,11,,,78,110
40032,note_on,32,0,6,,,,,,,,,8,,,35,92
40032,note_on,32,0,5,,,,,,,,,6,,,47,92
40032,note_on,32,0,4,,,,,,,,,4,,,63,75
40126,note_on,94,0,2,,,,,,,,,0,,,78,0
40126,note_on,94,0,1,,,,,,,,,11,,,78,0
40126,note_on,94,0,3,,,,,,,,,2,,,78,0
40128,note_on,2,0,2,,,,,,,,,0,,,80,110
40128,note_on,2,0,1,,,,,,,,,11,,,80,110
40128,note_on,2,0,3,,,,,,,,,2,,,80,110
40222,note_on,94,0,2,,,,,,,,,0,,,80,0
40222,note_on,94,0,3,,,,,,,,,2,,,80,0
40222,note_on,94,0,1,,,,,,,,,11,,,80,0
40224,note_on,2,0,1,,,,,,,,,11,,,81,110
40224,note_on,2,0,3,,,,,,,,,2,,,81,110
40224,note_on,2,0,2,,,,,,,,,0,,,81,110
40288,note_on,256,0,5,,,,,,,,,6,,,47,0
40288,note_on,256,0,6,,,,,,,,,8,,,35,0
40288,note_on,256,0,4,,,,,,,,,4,,,63,0
40318,note_on,94,0,3,,,,,,,,,2,,,81,0
40318,note_on,94,0,2,,,,,,,,,0,,,81,0
40318,note_on,94,0,1,,,,,,,,,11,,,81,0
40320,note_on,32,0,5,,,,,,,,,6,,,52,92
40320,note_on,32,0,6,,,,,,,,,8,,,40,92
40320,note_on,32,0,4,,,,,,,,,4,,,59,75
40320,note_on,2,0,1,,,,,,,,,11,,,81,110
40320,note_on,2,0,3,,,,,,,,,2,,,81,110
40320,note_on,2,0,2,,,,,,,,,0,,,81,110
40576,note_on,256,0,1,,,,,,,,,11,,,81,0
40576,note_on,256,0,6,,,,,,,,,8,,,40,0
40576,note_on,256,0,2,,,,,,,,,0,,,81,0
40576,note_on,256,0,3,,,,,,,,,2,,,81,0
40576,note_on,256,0,4,,,,,,,,,4,,,59,0
40576,note_on,256,0,5,,,,,,,,,6,,,52,0
40608,note_on,32,0,1,,,,,,,,,11,,,80,110
40608,note_on,32,0,6,,,,,,,,,8,,,28,92
40608,note_on,32,0,4,,,,,,,,,4,,,59,75
40608,note_on,32,0,5,,,,,,,,,6,,,40,92
40608,note_on,32,0,2,,,,,,,,,0,,,80,110
40608,note_on,32,0,3,,,,,,,,,2,,,80,110
40702,note_on,94,0,1,,,,,,,,,11,,,80,0
40702,note_on,94,0,3,,,,,,,,,2,,,80,0
40702,note_on,94,0,4,,,,,,,,,4,,,59,0
40702,note_on,94,0,6,,,,,,,,,8,,,28,0
40702,note_on,94,0,5,,,,,,,,,6,,,40,0
40702,note_on,94,0,2,,,,,,,,,0,,,80,0
40800,note_on,98,0,2,,,,,,,,,0,,,85,110
40800,note_on,98,0,1,,,,,,,,,11,,,85,110
40800,note_on,98,0,3,,,,,,,,,2,,,85,110
40894,note_on,94,0,1,,,,,,,,,11,,,85,0
40894,note_on,94,0,3,,,,,,,,,2,,,85,0
40894,note_on,94,0,2,,,,,,,,,0,,,85,0
40896,note_on,2,0,2,,,,,,,,,0,,,78,110
40896,note_on,194,0,5,,,,,,,,,6,,,54,92
40896,note_on,2,0,1,,,,,,,,,11,,,78,110
40896,note_on,2,0,3,,,,,,,,,2,,,78,110
40896,note_on,194,0,4,,,,,,,,,4,,,69,75
40896,note_on,194,0,6,,,,,,,,,8,,,42,92
40990,note_on,94,0,1,,,,,,,,,11,,,78,0
40990,note_on,94,0,3,,,,,,,,,2,,,78,0
40990,note_on,94,0,2,,,,,,,,,0,,,78,0
40992,note_on,2,0,3,,,,,,,,,2,,,73,110
40992,note_on,2,0,2,,,,,,,,,0,,,73,110
40992,note_on,2,0,1,,,,,,,,,11,,,73,110
41086,note_on,94,0,2,,,,,,,,,0,,,73,0
41086,note_on,94,0,1,,,,,,,,,11,,,73,0
41086,note_on,94,0,3,,,,,,,,,2,,,73,0
41088,note_on,2,0,2,,,,,,,,,0,,,78,110
41088,note_on,2,0,3,,,,,,,,,2,,,78,110
41088,note_on,2,0,1,,,,,,,,,11,,,78,110
41152,note_on,256,0,4,,,,,,,,,4,,,69,0
41152,note_on,256,0,6,,,,,,,,,8,,,42,0
41152,note_on,256,0,5,,,,,,,,,6,,,54,0
41182,note_on,94,0,3,,,,,,,,,2,,,78,0
41182,note_on,94,0,2,,,,,,,,,0,,,78,0
41182,note_on,94,0,1,,,,,,,,,11,,,78,0
41184,note_on,32,0,6,,,,,,,,,8,,,37,92
41184,note_on,2,0,1,,,,,,,,,11,,,80,110
41184,note_on,32,0,5,,,,,,,,,6,,,49,92
41184,note_on,2,0,2,,,,,,,,,0,,,80,110
41184,note_on,2,0,3,,,,,,,,,2,,,80,110
41184,note_on,32,0,4,,,,,,,,,4,,,65,75
41278,note_on,94,0,1,,,,,,,,,11,,,80,0
41278,note_on,94,0,2,,,,,,,,,0,,,80,0
41278,note_on,94,0,3,,,,,,,,,2,,,80,0
41280,note_on,2,0,1,,,,,,,,,11,,,81,110
41280,note_on,2,0,2,,,,,,,,,0,,,81,110
41280,note_on,2,0,3,,,,,,,,,2,,,81,110
41374,note_on,94,0,3,,,,,,,,,2,,,81,0
41374,note_on,94,0,1,,,,,,,,,11,,,81,0
41374,note_on,94,0,2,,,,,,,,,0,,,81,0
41376,note_on,2,0,1,,,,,,,,,11,,,83,110
41376,note_on,2,0,2,,,,,,,,,0,,,83,110
41376,note_on,2,0,3,,,,,,,,,2,,,83,110
41440,note_on,256,0,5,,,,,,,,,6,,,49,0
41440,note_on,256,0,4,,,,,,,,,4,,,65,0
41440,note_on,256,0,6,,,,,,,,,8,,,37,0
41470,note_on,94,0,2,,,,,,,,,0,,,83,0
41470,note_on,94,0,1,,,,,,,,,11,,,83,0
41470,note_on,94,0,3,,,,,,,,,2,,,83,0
41472,note_on,2,0,1,,,,,,,,,11,,,83,110
41472,note_on,32,0,5,,,,,,,,,6,,,54,92
41472,note_on,32,0,4,,,,,,,,,4,,,61,75
41472,note_on,32,0,6,,,,,,,,,8,,,42,92
41472,note_on,2,0,2,,,,,,,,,0,,,83,110
41472,note_on,2,0,3,,,,,,,,,2,,,83,110
41728,note_on,256,0,5,,,,,,,,,6,,,54,0
41728,note_on,256,0,6,,,,,,,,,8,,,42,0
41728,note_on,256,0,2,,,,,,,,,0,,,83,0
41728,note_on,256,0,3,,,,,,,,,2,,,83,0
41728,note_on,256,0,1,,,,,,,,,11,,,83,0
41728,note_on,256,0,4,,,,,,,,,4,,,61,0
41760,note_on,32,0,3,,,,,,,,,2,,,81,110
41760,note_on,32,0,5,,,,,,,,,6,,,42,92
41760,note_on,32,0,1,,,,,,,,,11,,,81,110
41760,note_on,32,0,6,,,,,,,,,8,,,30,92
41760,note_on,32,0,4,,,,,,,,,4,,,61,75
41760,note_on,32,0,2,,,,,,,,,0,,,81,110
41854,note_on,94,0,1,,,,,,,,,11,,,81,0
41854,note_on,94,0,4,,,,,,,,,4,,,61,0
41854,note_on,94,0,3,,,,,,,,,2,,,81,0
41854,note_on,94,0,2,,,,,,,,,0,,,81,0
41854,note_on,94,0,6,,,,,,,,,8,,,30,0
41854,note_on,94,0,5,,,,,,,,,6,,,42,0
41952,note_on,98,0,1,,,,,,,,,11,,,85,110
41952,note_on,98,0,2,,,,,,,,,0,,,85,110
41952,note_on,98,0,3,,,,,,,,,2,,,85,110
42046,note_on,94,0,2,,,,,,,,,0,,,85,0
42046,note_on,94,0,1,,,,,,,,,11,,,85,0
42046,note_on,94,0,3,,,,,,,,,2,,,85,0
42048,note_on,194,0,4,,,,,,,,,4,,,69,75
42048,note_on,2,0,1,,,,,,,,,11,,,78,110
42048,note_on,2,0,3,,,,,,,,,2,,,78,110
42048,note_on,2,0,2,,,,,,,,,0,,,78,110
42048,note_on,194,0,5,,,,,,,,,6,,,54,92
42048,note_on,194,0,6,,,,,,,,,8,,,42,92
42142,note_on,94,0,1,,,,,,,,,11,,,78,0
42142,note_on,94,0,3,,,,,,,,,2,,,78,0
42142,note_on,94,0,2,,,,,,,,,0,,,78,0
42144,note_on,2,0,1,,,,,,,,,11,,,73,110
42144,note_on,2,0,2,,,,,,,,,0,,,73,110
42144,note_on,2,0,3,,,,,,,,,2,,,73,110
42238,note_on,94,0,1,,,,,,,,,11,,,73,0
42238,note_on,94,0,2,,,,,,,,,0,,,73,0
42238,note_on,94,0,3,,,,,,,,,2,,,73,0
42240,note_on,2,0,1,,,,,,,,,11,,,78,110
42240,note_on,2,0,2,,,,,,,,,0,,,78,110
42240,note_on,2,0,3,,,,,,,,,2,,,78,110
42304,note_on,256,0,6,,,,,,,,,8,,,42,0
42304,note_on,256,0,5,,,,,,,,,6,,,54,0
42304,note_on,256,0,4,,,,,,,,,4,,,69,0
42334,note_on,94,0,1,,,,,,,,,11,,,78,0
42334,note_on,94,0,2,,,,,,,,,0,,,78,0
42334,note_on,94,0,3,,,,,,,,,2,,,78,0
42336,note_on,32,0,4,,,,,,,,,4,,,65,75
42336,note_on,2,0,2,,,,,,,,,0,,,80,110
42336,note_on,2,0,3,,,,,,,,,2,,,80,110
42336,note_on,32,0,5,,,,,,,,,6,,,49,92
42336,note_on,2,0,1,,,,,,,,,11,,,80,110
42336,note_on,32,0,6,,,,,,,,,8,,,37,92
42430,note_on,94,0,1,,,,,,,,,11,,,80,0
42430,note_on,94,0,2,,,,,,,,,0,,,80,0
42430,note_on,94,0,3,,,,,,,,,2,,,80,0
42432,note_on,2,0,1,,,,,,,,,11,,,81,110
42432,note_on,2,0,2,,,,,,,,,0,,,81,110
42432,note_on,2,0,3,,,,,,,,,2,,,81,110
42526,note_on,94,0,3,,,,,,,,,2,,,81,0
42526,note_on,94,0,1,,,,,,,,,11,,,81,0
42526,note_on,94,0,2,,,,,,,,,0,,,81,0
42528,note_on,2,0,3,,,,,,,,,2,,,83,110
42528,note_on,2,0,2,,,,,,,,,0,,,83,110
42528,note_on,2,0,1,,,,,,,,,11,,,83,110
42592,note_on,256,0,6,,,,,,,,,8,,,37,0
42592,note_on,256,0,4,,,,,,,,,4,,,65,0
42592,note_on,256,0,5,,,,,,,,,6,,,49,0
42622,note_on,94,0,3,,,,,,,,,2,,,83,0
42622,note_on,94,0,1,,,,,,,,,11,,,83,0
42622,note_on,94,0,2,,,,,,,,,0,,,83,0
42624,note_on,32,0,6,,,,,,,,,8,,,42,92
42624,note_on,32,0,4,,,,,,,,,4,,,61,75
42624,note_on,2,0,1,,,,,,,,,11,,,83,110
42624,note_on,2,0,3,,,,,,,,,2,,,83,110
42624,note_on,32,0,5,,,,,,,,,6,,,54,92
42624,note_on,2,0,2,,,,,,,,,0,,,83,110
42880,note_on,256,0,5,,,,,,,,,6,,,54,0
42880,note_on,256,0,2,,,,,,,,,0,,,83,0
42880,note_on,256,0,4,,,,,,,,,4,,,61,0
42880,note_on,256,0,6,,,,,,,,,8,,,42,0
42880,note_on,256,0,1,,,,,,,,,11,,,83,0
42880,note_on,256,0,3,,,,,,,,,2,,,83,0
42912,note_on,32,0,5,,,,,,,,,6,,,42,92
42912,note_on,32,0,6,,,,,,,,,8,,,30,92
42912,note_on,32,0,2,,,,,,,,,0,,,81,110
42912,note_on,32,0,1,,,,,,,,,11,,,81,110
42912,note_on,32,0,3,,,,,,,,,2,,,81,110
42912,note_on,32,0,4,,,,,,,,,4,,,61,75
43006,note_on,94,0,6,,,,,,,,,8,,,30,0
43006,note_on,94,0,1,,,,,,,,,11,,,81,0
43006,note_on,94,0,2,,,,,,,,,0,,,81,0
43006,note_on,94,0,3,,,,,,,,,2,,,81,0
43006,note_on,94,0,4,,,,,,,,,4,,,61,0
43006,note_on,94,0,5,,,,,,,,,6,,,42,0
43104,note_on,98,0,5,,,,,,,,,6,,,61,92
43104,note_on,98,0,4,,,,,,,,,4,,,61,75
43104,note_on,98,0,3,,,,,,,,,2,,,73,110
43104,note_on,98,0,1,,,,,,,,,11,,,73,110
43104,note_on,98,0,6,,,,,,,,,8,,,49,92
43104,note_on,98,0,2,,,,,,,,,0,,,73,110
43198,note_on,94,0,4,,,,,,,,,4,,,61,0
43198,note_on,94,0,1,,,,,,,,,11,,,73,0
43198,note_on,94,0,5,,,,,,,,,6,,,61,0
43198,note_on,94,0,2,,,,,,,,,0,,,73,0
43198,note_on,94,0,3,,,,,,,,,2,,,73,0
43198,note_on,94,0,6,,,,,,,,,8,,,49,0
43200,note_on,2,0,5,,,,,,,,,6,,,66,92
43200,note_on,2,0,3,,,,,,,,,2,,,78,110
43200,note_on,2,0,4,,,,,,,,,4,,,66,75
43200,note_on,2,0,1,,,,,,,,,11,,,78,110
43200,note_on,2,0,6,,,,,,,,,8,,,54,92
43200,note_on,2,0,2,,,,,,,,,0,,,78,110
43294,note_on,94,0,4,,,,,,,,,4,,,66,0
43294,note_on,94,0,1,,,,,,,,,11,,,78,0
43294,note_on,94,0,3,,,,,,,,,2,,,78,0
43294,note_on,94,0,2,,,,,,,,,0,,,78,0
43294,note_on,94,0,6,,,,,,,,,8,,,54,0
43294,note_on,94,0,5,,,,,,,,,6,,,66,0
43296,note_on,2,0,4,,,,,,,,,4,,,61,75
43296,note_on,2,0,3,,,,,,,,,2,,,73,110
43296,note_on,2,0,1,,,,,,,,,11,,,73,110
43296,note_on,2,0,2,,,,,,,,,0,,,73,110
43296,note_on,2,0,6,,,,,,,,,8,,,49,92
43296,note_on,2,0,5,,,,,,,,,6,,,61,92
43390,note_on,94,0,6,,,,,,,,,8,,,49,0
43390,note_on,94,0,5,,,,,,,,,6,,,61,0
43390,note_on,94,0,1,,,,,,,,,11,,,73,0
43390,note_on,94,0,2,,,,,,,,,0,,,73,0
43390,note_on,94,0,4,,,,,,,,,4,,,61,0
43390,note_on,94,0,3,,,,,,,,,2,,,73,0
43392,note_on,2,0,5,,,,,,,,,6,,,59,92
43392,note_on,2,0,1,,,,,,,,,11,,,71,110
43392,note_on,2,0,6,,,,,,,,,8,,,47,92
43392,note_on,2,0,2,,,,,,,,,0,,,71,110
43392,note_on,2,0,4,,,,,,,,,4,,,59,75
43392,note_on,2,0,3,,,,,,,,,2,,,71,110
43486,note_on,94,0,2,,,,,,,,,0,,,71,0
43486,note_on,94,0,1,,,,,,,,,11,,,71,0
43486,note_on,94,0,4,,,,,,,,,4,,,59,0
43486,note_on,94,0,6,,,,,,,,,8,,,47,0
43486,note_on,94,0,5,,,,,,,,,6,,,59,0
43486,note_on,94,0,3,,,,,,,,,2,,,71,0
43488,note_on,2,0,3,,,,,,,,,2,,,69,110
43488,note_on,2,0,2,,,,,,,,,0,,,69,110
43488,note_on,2,0,4,,,,,,,,,4,,,57,75
43488,note_on,2,0,1,,,,,,,,,11,,,69,110
43488,note_on,2,0,5,,,,,,,,,6,,,57,92
43488,note_on,2,0,6,,,,,,,,,8,,,45,92
43582,note_on,94,0,5,,,,,,,,,6,,,57,0
43582,note_on,94,0,4,,,,,,,,,4,,,57,0
43582,note_on,94,0,3,,,,,,,,,2,,,69,0
43582,note_on,94,0,2,,,,,,,,,0,,,69,0
43582,note_on,94,0,1,,,,,,,,,11,,,69,0
43582,note_on,94,0,6,,,,,,,,,8,,,45,0
43584,note_on,2,0,2,,,,,,,,,0,,,68,110
43584,note_on,2,0,5,,,,,,,,,6,,,56,92
43584,note_on,2,0,3,,,,,,,,,2,,,68,110
43584,note_on,2,0,6,,,,,,,,,8,,,44,92
43584,note_on,2,0,1,,,,,,,,,11,,,68,110
43584,note_on,2,0,4,,,,,,,,,4,,,56,75
43678,note_on,94,0,2,,,,,,,,,0,,,68,0
43678,note_on,94,0,1,,,,,,,,,11,,,68,0
43678,note_on,94,0,6,,,,,,,,,8,,,44,0
43678,note_on,94,0,5,,,,,,,,,6,,,56,0
43678,note_on,94,0,4,,,,,,,,,4,,,56,0
43678,note_on,94,0,3,,,,,,,,,2,,,68,0
43680,note_on,2,0,1,,,,,,,,,11,,,66,110
43680,note_on,2,0,4,,,,,,,,,4,,,54,75
43680,note_on,2,0,5,,,,,,,,,6,,,54,92
43680,note_on,2,0,6,,,,,,,,,8,,,42,92
43680,note_on,2,0,3,,,,,,,,,2,,,66,110
43680,note_on,2,0,2,,,,,,,,,0,,,66,110
43774,note_on,94,0,2,,,,,,,,,0,,,66,0
43774,note_on,94,0,1,,,,,,,,,11,,,66,0
43774,note_on,94,0,4,,,,,,,,,4,,,54,0
43774,note_on,94,0,6,,,,,,,,,8,,,42,0
43774,note_on,94,0,5,,,,,,,,,6,,,54,0
43774,note_on,94,0,3,,,,,,,,,2,,,66,0
43776,note_on,2,0,3,,,,,,,,,2,,,78,110
43776,note_on,2,0,6,,,,,,,,,8,,,54,92
43776,note_on,2,0,5,,,,,,,,,6,,,66,92
43776,note_on,2,0,2,,,,,,,,,0,,,78,110
43776,note_on,2,0,4,,,,,,,,,4,,,66,75
43776,note_on,2,0,1,,,,,,,,,11,,,78,110
43870,note_on,94,0,5,,,,,,,,,6,,,66,0
43870,note_on,94,0,3,,,,,,,,,2,,,78,0
43870,note_on,94,0,2,,,,,,,,,0,,,78,0
43870,note_on,94,0,6,,,,,,,,,8,,,54,0
43870,note_on,94,0,4,,,,,,,,,4,,,66,0
43870,note_on,94,0,1,,,,,,,,,11,,,78,0
43872,note_on,2,0,4,,,,,,,,,4,,,61,75
43872,note_on,2,0,6,,,,,,,,,8,,,49,92
43872,note_on,2,0,2,,,,,,,,,0,,,73,110
43872,note_on,2,0,3,,,,,,,,,2,,,73,110
43872,note_on,2,0,5,,,,,,,,,6,,,61,92
43872,note_on,2,0,1,,,,,,,,,11,,,73,110
43966,note_on,94,0,1,,,,,,,,,11,,,73,0
43966,note_on,94,0,6,,,,,,,,,8,,,49,0
43966,note_on,94,0,4,,,,,,,,,4,,,61,0
43966,note_on,94,0,5,,,,,,,,,6,,,61,0
43966,note_on,94,0,3,,,,,,,,,2,,,73,0
43966,note_on,94,0,2,,,,,,,,,0,,,73,0
43968,note_on,2,0,1,,,,,,,,,11,,,71,110
43968,note_on,2,0,3,,,,,,,,,2,,,71,110
43968,note_on,2,0,5,,,,,,,,,6,,,59,92
43968,note_on,2,0,4,,,,,,,,,4,,,59,75
43968,note_on,2,0,2,,,,,,,,,0,,,71,110
43968,note_on,2,0,6,,,,,,,,,8,,,47,92
44062,note_on,94,0,4,,,,,,,,,4,,,59,0
44062,note_on,94,0,3,,,,,,,,,2,,,71,0
44062,note_on,94,0,6,,,,,,,,,8,,,47,0
44062,note_on,94,0,5,,,,,,,,,6,,,59,0
44062,note_on,94,0,2,,,,,,,,,0,,,71,0
44062,note_on,94,0,1,,,,,,,,,11,,,71,0
44064,note_on,2,0,1,,,,,,,,,11,,,69,110
44064,note_on,2,0,4,,,,,,,,,4,,,57,75
44064,note_on,2,0,3,,,,,,,,,2,,,69,110
44064,note_on,2,0,2,,,,,,,,,0,,,69,110
44064,note_on,2,0,5,,,,,,,,,6,,,57,92
44064,note_on,2,0,6,,,,,,,,,8,,,45,92
44158,note_on,94,0,6,,,,,,,,,8,,,45,0
44158,note_on,94,0,1,,,,,,,,,11,,,69,0
44158,note_on,94,0,4,,,,,,,,,4,,,57,0
44158,note_on,94,0,3,,,,,,,,,2,,,69,0
44158,note_on,94,0,2,,,,,,,,,0,,,69,0
44158,note_on,94,0,5,,,,,,,,,6,,,57,0
44160,note_on,2,0,3,,,,,,,,,2,,,68,110
44160,note_on,2,0,6,,,,,,,,,8,,,44,92
44160,note_on,2,0,5,,,,,,,,,6,,,56,92
44160,note_on,2,0,4,,,,,,,,,4,,,56,75
44160,note_on,2,0,1,,,,,,,,,11,,,68,110
44160,note_on,2,0,2,,,,,,,,,0,,,68,110
44254,note_on,94,0,3,,,,,,,,,2,,,68,0
44254,note_on,94,0,2,,,,,,,,,0,,,68,0
44254,note_on,94,0,6,,,,,,,,,8,,,44,0
44254,note_on,94,0,4,,,,,,,,,4,,,56,0
44254,note_on,94,0,5,,,,,,,,,6,,,56,0
44254,note_on,94,0,1,,,,,,,,,11,,,68,0
44256,note_on,2,0,1,,,,,,,,,11,,,66,110
44256,note_on,2,0,2,,,,,,,,,0,,,66,110
44256,note_on,2,0,3,,,,,,,,,2,,,66,110
44256,note_on,2,0,6,,,,,,,,,8,,,42,92
44256,note_on,2,0,4,,,,,,,,,4,,,54,75
44256,note_on,2,0,5,,,,,,,,,6,,,54,92
44350,note_on,94,0,5,,,,,,,,,6,,,54,0
44350,note_on,94,0,4,,,,,,,,,4,,,54,0
44350,note_on,94,0,1,,,,,,,,,11,,,66,0
44350,note_on,94,0,2,,,,,,,,,0,,,66,0
44350,note_on,94,0,6,,,,,,,,,8,,,42,0
44350,note_on,94,0,3,,,,,,,,,2,,,66,0
44352,note_on,2,0,1,,,,,,,,,11,,,81,110
44352,note_on,2,0,4,,,,,,,,,4,,,61,75
44352,note_on,2,0,3,,,,,,,,,2,,,78,110
44352,note_on,2,0,6,,,,,,,,,8,,,30,92
44352,note_on,2,0,2,,,,,,,,,0,,,81,110
44352,note_on,2,0,5,,,,,,,,,6,,,42,92
44608,note_on,256,0,2,,,,,,,,,0,,,81,0
44608,note_on,256,0,5,,,,,,,,,6,,,42,0
44608,note_on,256,0,6,,,,,,,,,8,,,30,0
44608,note_on,256,0,3,,,,,,,,,2,,,78,0
44608,note_on,256,0,1,,,,,,,,,11,,,81,0
44608,note_on,256,0,4,,,,,,,,,4,,,61,0
44640,note_on,32,0,3,,,,,,,,,2,,,77,110
44640,note_on,32,0,6,,,,,,,,,8,,,37,92
44640,note_on,32,0,5,,,,,,,,,6,,,49,92
44640,note_on,32,0,1,,,,,,,,,11,,,80,110
44640,note_on,32,0,2,,,,,,,,,0,,,80,110
44640,note_on,32,0,4,,,,,,,,,4,,,61,75
44896,note_on,256,0,1,,,,,,,,,11,,,80,0
44896,note_on,256,0,5,,,,,,,,,6,,,49,0
44896,note_on,256,0,3,,,,,,,,,2,,,77,0
44896,note_on,256,0,2,,,,,,,,,0,,,80,0
44896,note_on,256,0,4,,,,,,,,,4,,,61,0
44896,note_on,256,0,6,,,,,,,,,8,,,37,0
44928,note_on,32,0,1,,,,,,,,,11,,,78,110
44928,note_on,32,0,2,,,,,,,,,0,,,78,110
44928,note_on,32,0,3,,,,,,,,,2,,,78,110
44928,note_on,32,0,4,,,,,,,,,4,,,57,75
44928,note_on,32,0,5,,,,,,,,,6,,,42,92
44928,note_on,32,0,6,,,,,,,,,8,,,30,92
45406,note_on,478,0,6,,,,,,,,,8,,,30,0
45406,note_on,478,0,3,,,,,,,,,2,,,78,0
45406,note_on,478,0,5,,,,,,,,,6,,,42,0
45406,note_on,478,0,4,,,,,,,,,4,,,57,0
45406,note_on,478,0,2,,,,,,,,,0,,,78,0
45406,note_on,478,0,1,,,,,,,,,11,,,78,0
45408,note_on,2,0,1,,,,,,,,,11,,,73,110
45408,note_on,2,0,3,,,,,,,,,2,,,73,110
45408,note_on,2,0,6,,,,,,,,,8,,,49,92
45408,note_on,2,0,4,,,,,,,,,4,,,61,75
45408,note_on,2,0,2,,,,,,,,,0,,,73,110
45408,note_on,2,0,5,,,,,,,,,6,,,61,92
45502,note_on,94,0,3,,,,,,,,,2,,,73,0
45502,note_on,94,0,5,,,,,,,,,6,,,61,0
45502,note_on,94,0,4,,,,,,,,,4,,,61,0
45502,note_on,94,0,2,,,,,,,,,0,,,73,0
45502,note_on,94,0,6,,,,,,,,,8,,,49,0
45502,note_on,94,0,1,,,,,,,,,11,,,73,0
45504,note_on,2,0,1,,,,,,,,,11,,,78,110
45504,note_on,2,0,6,,,,,,,,,8,,,54,92
45504,note_on,2,0,4,,,,,,,,,4,,,66,75
45504,note_on,2,0,2,,,,,,,,,0,,,78,110
45504,note_on,2,0,5,,,,,,,,,6,,,66,92
45504,note_on,2,0,3,,,,,,,,,2,,,78,110
45598,note_on,94,0,6,,,,,,,,,8,,,54,0
45598,note_on,94,0,3,,,,,,,,,2,,,78,0
45598,note_on,94,0,2,,,,,,,,,0,,,78,0
45598,note_on,94,0,4,,,,,,,,,4,,,66,0
45598,note_on,94,0,5,,,,,,,,,6,,,66,0
45598,note_on,94,0,1,,,,,,,,,11,,,78,0
45600,note_on,2,0,6,,,,,,,,,8,,,49,92
45600,note_on,2,0,4,,,,,,,,,4,,,61,75
45600,note_on,2,0,2,,,,,,,,,0,,,73,110
45600,note_on,2,0,3,,,,,,,,,2,,,73,110
45600,note_on,2,0,5,,,,,,,,,6,,,61,92
45600,note_on,2,0,1,,,,,,,,,11,,,73,110
45694,note_on,94,0,3,,,,,,,,,2,,,73,0
45694,note_on,94,0,6,,,,,,,,,8,,,49,0
45694,note_on,94,0,4,,,,,,,,,4,,,61,0
45694,note_on,94,0,2,,,,,,,,,0,,,73,0
45694,note_on,94,0,1,,,,,,,,,11,,,73,0
45694,note_on,94,0,5,,,,,,,,,6,,,61,0
45696,note_on,2,0,6,,,,,,,,,8,,,47,92
45696,note_on,2,0,3,,,,,,,,,2,,,71,110
45696,note_on,2,0,1,,,,,,,,,11,,,71,110
45696,note_on,2,0,2,,,,,,,,,0,,,71,110
45696,note_on,2,0,5,,,,,,,,,6,,,59,92
45696,note_on,2,0,4,,,,,,,,,4,,,59,75
45790,note_on,94,0,5,,,,,,,,,6,,,59,0
45790,note_on,94,0,6,,,,,,,,,8,,,47,0
45790,note_on,94,0,4,,,,,,,,,4,,,59,0
45790,note_on,94,0,3,,,,,,,,,2,,,71,0
45790,note_on,94,0,2,,,,,,,,,0,,,71,0
45790,note_on,94,0,1,,,,,,,,,11,,,71,0
45792,note_on,2,0,3,,,,,,,,,2,,,69,110
45792,note_on,2,0,5,,,,,,,,,6,,,57,92
45792,note_on,2,0,1,,,,,,,,,11,,,69,110
45792,note_on,2,0,4,,,,,,,,,4,,,57,75
45792,note_on,2,0,2,,,,,,,,,0,,,69,110
45792,note_on,2,0,6,,,,,,,,,8,,,45,92
45886,note_on,94,0,5,,,,,,,,,6,,,57,0
45886,note_on,94,0,2,,,,,,,,,0,,,69,0
45886,note_on,94,0,6,,,,,,,,,8,,,45,0
45886,note_on,94,0,4,,,,,,,,,4,,,57,0
45886,note_on,94,0,3,,,,,,,,,2,,,69,0
45886,note_on,94,0,1,,,,,,,,,11,,,69,0
45888,note_on,2,0,2,,,,,,,,,0,,,68,110
45888,note_on,2,0,3,,,,,,,,,2,,,68,110
45888,note_on,2,0,1,,,,,,,,,11,,,68,110
45888,note_on,2,0,4,,,,,,,,,4,,,56,75
45888,note_on,2,0,5,,,,,,,,,6,,,56,92
45888,note_on,2,0,6,,,,,,,,,8,,,44,92
45982,note_on,94,0,4,,,,,,,,,4,,,56,0
45982,note_on,94,0,6,,,,,,,,,8,,,44,0
45982,note_on,94,0,2,,,,,,,,,0,,,68,0
45982,note_on,94,0,3,,,,,,,,,2,,,68,0
45982,note_on,94,0,5,,,,,,,,,6,,,56,0
45982,note_on,94,0,1,,,,,,,,,11,,,68,0
45984,note_on,2,0,3,,,,,,,,,2,,,66,110
45984,note_on,2,0,6,,,,,,,,,8,,,42,92
45984,note_on,2,0,5,,,,,,,,,6,,,54,92
45984,note_on,2,0,2,,,,,,,,,0,,,66,110
45984,note_on,2,0,4,,,,,,,,,4,,,54,75
45984,note_on,2,0,1,,,,,,,,,11,,,66,110
46078,note_on,94,0,2,,,,,,,,,0,,,66,0
46078,note_on,94,0,6,,,,,,,,,8,,,42,0
46078,note_on,94,0,4,,,,,,,,,4,,,54,0
46078,note_on,94,0,5,,,,,,,,,6,,,54,0
46078,note_on,94,0,1,,,,,,,,,11,,,66,0
46078,note_on,94,0,3,,,,,,,,,2,,,66,0
46080,note_on,2,0,5,,,,,,,,,6,,,66,92
46080,note_on,2,0,1,,,,,,,,,11,,,78,110
46080,note_on,2,0,3,,,,,,,,,2,,,78,110
46080,note_on,2,0,4,,,,,,,,,4,,,66,75
46080,note_on,2,0,6,,,,,,,,,8,,,54,92
46080,note_on,2,0,2,,,,,,,,,0,,,78,110
46174,note_on,94,0,2,,,,,,,,,0,,,78,0
46174,note_on,94,0,3,,,,,,,,,2,,,78,0
46174,note_on,94,0,4,,,,,,,,,4,,,66,0
46174,note_on,94,0,5,,,,,,,,,6,,,66,0
46174,note_on,94,0,6,,,,,,,,,8,,,54,0
46174,note_on,94,0,1,,,,,,,,,11,,,78,0
46176,note_on,2,0,6,,,,,,,,,8,,,49,92
46176,note_on,2,0,3,,,,,,,,,2,,,73,110
46176,note_on,2,0,1,,,,,,,,,11,,,73,110
46176,note_on,2,0,2,,,,,,,,,0,,,73,110
46176,note_on,2,0,5,,,,,,,,,6,,,61,92
46176,note_on,2,0,4,,,,,,,,,4,,,61,75
46270,note_on,94,0,4,,,,,,,,,4,,,61,0
46270,note_on,94,0,2,,,,,,,,,0,,,73,0
46270,note_on,94,0,6,,,,,,,,,8,,,49,0
46270,note_on,94,0,1,,,,,,,,,11,,,73,0
46270,note_on,94,0,5,,,,,,,,,6,,,61,0
46270,note_on,94,0,3,,,,,,,,,2,,,73,0
46272,note_on,2,0,6,,,,,,,,,8,,,47,92
46272,note_on,2,0,1,,,,,,,,,11,,,71,110
46272,note_on,2,0,2,,,,,,,,,0,,,71,110
46272,note_on,2,0,3,,,,,,,,,2,,,71,110
46272,note_on,2,0,4,,,,,,,,,4,,,59,75
46272,note_on,2,0,5,,,,,,,,,6,,,59,92
46366,note_on,94,0,2,,,,,,,,,0,,,71,0
46366,note_on,94,0,1,,,,,,,,,11,,,71,0
46366,note_on,94,0,5,,,,,,,,,6,,,59,0
46366,note_on,94,0,6,,,,,,,,,8,,,47,0
46366,note_on,94,0,3,,,,,,,,,2,,,71,0
46366,note_on,94,0,4,,,,,,,,,4,,,59,0
46368,note_on,2,0,4,,,,,,,,,4,,,57,75
46368,note_on,2,0,2,,,,,,,,,0,,,69,110
46368,note_on,2,0,3,,,,,,,,,2,,,69,110
46368,note_on,2,0,6,,,,,,,,,8,,,45,92
46368,note_on,2,0,1,,,,,,,,,11,,,69,110
46368,note_on,2,0,5,,,,,,,,,6,,,57,92
46462,note_on,94,0,4,,,,,,,,,4,,,57,0
46462,note_on,94,0,2,,,,,,,,,0,,,69,0
46462,note_on,94,0,5,,,,,,,,,6,,,57,0
46462,note_on,94,0,6,,,,,,,,,8,,,45,0
46462,note_on,94,0,1,,,,,,,,,11,,,69,0
46462,note_on,94,0,3,,,,,,,,,2,,,69,0
46464,note_on,2,0,1,,,,,,,,,11,,,68,110
46464,note_on,2,0,5,,,,,,,,,6,,,56,92
46464,note_on,2,0,2,,,,,,,,,0,,,68,110
46464,note_on,2,0,4,,,,,,,,,4,,,56,75
46464,note_on,2,0,3,,,,,,,,,2,,,68,110
46464,note_on,2,0,6,,,,,,,,,8,,,44,92
46558,note_on,94,0,5,,,,,,,,,6,,,56,0
46558,note_on,94,0,1,,,,,,,,,11,,,68,0
46558,note_on,94,0,4,,,,,,,,,4,,,56,0
46558,note_on,94,0,3,,,,,,,,,2,,,68,0
46558,note_on,94,0,6,,,,,,,,,8,,,44,0
46558,note_on,94,0,2,,,,,,,,,0,,,68,0
46560,note_on,2,0,5,,,,,,,,,6,,,54,92
46560,note_on,2,0,4,,,,,,,,,4,,,54,75
46560,note_on,2,0,6,,,,,,,,,8,,,42,92
46560,note_on,2,0,1,,,,,,,,,11,,,66,110
46560,note_on,2,0,2,,,,,,,,,0,,,66,110
46560,note_on,2,0,3,,,,,,,,,2,,,66,110
46654,note_on,94,0,2,,,,,,,,,0,,,66,0
46654,note_on,94,0,4,,,,,,,,,4,,,54,0
46654,note_on,94,0,3,,,,,,,,,2,,,66,0
46654,note_on,94,0,1,,,,,,,,,11,,,66,0
46654,note_on,94,0,6,,,,,,,,,8,,,42,0
46654,note_on,94,0,5,,,,,,,,,6,,,54,0
46656,note_on,2,0,6,,,,,,,,,8,,,30,92
46656,note_on,2,0,4,,,,,,,,,4,,,61,75
46656,note_on,2,0,2,,,,,,,,,0,,,81,110
46656,note_on,2,0,1,,,,,,,,,11,,,81,110
46656,note_on,2,0,5,,,,,,,,,6,,,42,92
46656,note_on,2,0,3,,,,,,,,,2,,,78,110
46912,note_on,256,0,6,,,,,,,,,8,,,30,0
46912,note_on,256,0,2,,,,,,,,,0,,,81,0
46912,note_on,256,0,4,,,,,,,,,4,,,61,0
46912,note_on,256,0,1,,,,,,,,,11,,,81,0
46912,note_on,256,0,5,,,,,,,,,6,,,42,0
46912,note_on,256,0,3,,,,,,,,,2,,,78,0
46944,note_on,32,0,6,,,,,,,,,8,,,37,92
46944,note_on,32,0,4,,,,,,,,,4,,,61,75
46944,note_on,32,0,3,,,,,,,,,2,,,77,110
46944,note_on,32,0,5,,,,,,,,,6,,,49,92
46944,note_on,32,0,2,,,,,,,,,0,,,80,110
46944,note_on,32,0,1,,,,,,,,,11,,,80,110
47200,note_on,256,0,3,,,,,,,,,2,,,77,0
47200,note_on,256,0,5,,,,,,,,,6,,,49,0
47200,note_on,256,0,2,,,,,,,,,0,,,80,0
47200,note_on,256,0,6,,,,,,,,,8,,,37,0
47200,note_on,256,0,1,,,,,,,,,11,,,80,0
47200,note_on,256,0,4,,,,,,,,,4,,,61,0
47232,note_on,32,0,1,,,,,,,,,11,,,78,110
47232,note_on,32,0,3,,,,,,,,,2,,,78,110
47232,note_on,32,0,2,,,,,,,,,0,,,78,110
47232,note_on,32,0,4,,,,,,,,,4,,,69,75
47326,note_on,94,0,1,,,,,,,,,11,,,78,0
47326,note_on,94,0,2,,,,,,,,,0,,,78,0
47326,note_on,94,0,4,,,,,,,,,4,,,69,0
47326,note_on,94,0,3,,,,,,,,,2,,,78,0
47328,note_on,0,0,3,,,,,,,,,2,,,73,110
47328,note_on,2,0,1,,,,,,,,,11,,,73,110
47328,control_change,2,0,2,,,,,,,,,0,10,0,,
47328,control_change,2,0,4,,,,,,,,,4,10,0,,
47328,note_on,0,0,4,,,,,,,,,4,,,69,75
47328,note_on,0,0,2,,,,,,,,,0,,,78,110
47328,control_change,2,0,3,,,,,,,,,2,10,0,,
47360,note_on,32,0,3,,,,,,,,,2,,,73,0
47360,note_on,32,0,4,,,,,,,,,4,,,69,0
47360,note_on,32,0,2,,,,,,,,,0,,,78,0
47374,note_on,46,0,1,,,,,,,,,11,,,73,0
47376,note_on,2,0,1,,,,,,,,,11,,,69,110
47422,note_on,46,0,1,,,,,,,,,11,,,69,0
47424,note_on,2,0,1,,,,,,,,,11,,,73,110
47424,note_on,64,0,3,,,,,,,,,2,,,73,110
47424,note_on,64,0,2,,,,,,,,,0,,,78,110
47424,note_on,64,0,4,,,,,,,,,4,,,69,75
47456,note_on,32,0,3,,,,,,,,,2,,,73,0
47456,note_on,32,0,2,,,,,,,,,0,,,78,0
47456,note_on,32,0,4,,,,,,,,,4,,,69,0
47470,note_on,46,0,1,,,,,,,,,11,,,73,0
47472,note_on,2,0,1,,,,,,,,,11,,,69,110
47518,note_on,46,0,1,,,,,,,,,11,,,69,0
47520,note_on,2,0,1,,,,,,,,,11,,,69,110
47520,note_on,64,0,3,,,,,,,,,2,,,73,110
47520,note_on,64,0,4,,,,,,,,,4,,,69,75
47520,note_on,64,0,2,,,,,,,,,0,,,78,110
47552,note_on,32,0,4,,,,,,,,,4,,,69,0
47552,note_on,32,0,2,,,,,,,,,0,,,78,0
47552,note_on,32,0,3,,,,,,,,,2,,,73,0
47614,note_on,94,0,1,,,,,,,,,11,,,69,0
47616,note_on,64,0,4,,,,,,,,,4,,,69,75
47616,note_on,64,0,2,,,,,,,,,0,,,78,110
47616,note_on,64,0,3,,,,,,,,,2,,,73,110
47616,note_on,2,0,1,,,,,,,,,11,,,73,110
47648,note_on,32,0,3,,,,,,,,,2,,,73,0
47648,note_on,32,0,4,,,,,,,,,4,,,69,0
47648,note_on,32,0,2,,,,,,,,,0,,,78,0
47710,note_on,94,0,1,,,,,,,,,11,,,73,0
47712,note_on,2,0,1,,,,,,,,,11,,,78,110
47712,note_on,64,0,2,,,,,,,,,0,,,78,110
47712,note_on,64,0,4,,,,,,,,,4,,,69,75
47712,note_on,64,0,3,,,,,,,,,2,,,73,110
47744,note_on,32,0,3,,,,,,,,,2,,,73,0
47744,note_on,32,0,4,,,,,,,,,4,,,69,0
47744,note_on,32,0,2,,,,,,,,,0,,,78,0
47806,note_on,94,0,1,,,,,,,,,11,,,78,0
47808,note_on,64,0,3,,,,,,,,,2,,,73,110
47808,note_on,2,0,1,,,,,,,,,11,,,78,110
47808,note_on,64,0,4,,,,,,,,,4,,,69,75
47808,note_on,64,0,2,,,,,,,,,0,,,78,110
47840,note_on,32,0,4,,,,,,,,,4,,,69,0
47840,note_on,32,0,3,,,,,,,,,2,,,73,0
47840,note_on,32,0,2,,,,,,,,,0,,,78,0
47902,note_on,94,0,1,,,,,,,,,11,,,78,0
47904,note_on,64,0,4,,,,,,,,,4,,,69,75
47904,note_on,64,0,2,,,,,,,,,0,,,78,110
47904,note_on,2,0,1,,,,,,,,,11,,,73,110
47904,note_on,64,0,3,,,,,,,,,2,,,73,110
47936,note_on,32,0,2,,,,,,,,,0,,,78,0
47936,note_on,32,0,3,,,,,,,,,2,,,73,0
47936,note_on,32,0,4,,,,,,,,,4,,,69,0
47950,note_on,46,0,1,,,,,,,,,11,,,73,0
47952,note_on,2,0,1,,,,,,,,,11,,,69,110
47998,note_on,46,0,1,,,,,,,,,11,,,69,0
48000,note_on,64,0,4,,,,,,,,,4,,,69,75
48000,note_on,64,0,3,,,,,,,,,2,,,73,110
48000,note_on,2,0,1,,,,,,,,,11,,,73,110
48000,note_on,64,0,2,,,,,,,,,0,,,78,110
48032,note_on,32,0,3,,,,,,,,,2,,,73,0
48032,note_on,32,0,2,,,,,,,,,0,,,78,0
48032,note_on,32,0,4,,,,,,,,,4,,,69,0
48046,note_on,46,0,1,,,,,,,,,11,,,73,0
48048,note_on,2,0,1,,,,,,,,,11,,,69,110
48094,note_on,46,0,1,,,,,,,,,11,,,69,0
48096,note_on,64,0,2,,,,,,,,,0,,,78,110
48096,note_on,2,0,1,,,,,,,,,11,,,69,110
48096,note_on,64,0,3,,,,,,,,,2,,,73,110
48096,note_on,64,0,4,,,,,,,,,4,,,66,75
48128,note_on,32,0,4,,,,,,,,,4,,,66,0
48128,note_on,32,0,3,,,,,,,,,2,,,73,0
48128,note_on,32,0,2,,,,,,,,,0,,,78,0
48190,note_on,94,0,1,,,,,,,,,11,,,69,0
48192,note_on,64,0,3,,,,,,,,,2,,,73,110
48192,note_on,64,0,2,,,,,,,,,0,,,78,110
48192,note_on,2,0,1,,,,,,,,,11,,,73,110
48192,note_on,64,0,4,,,,,,,,,4,,,66,75
48224,note_on,32,0,3,,,,,,,,,2,,,73,0
48224,note_on,32,0,2,,,,,,,,,0,,,78,0
48224,note_on,32,0,4,,,,,,,,,4,,,66,0
48286,note_on,94,0,1,,,,,,,,,11,,,73,0
48288,note_on,64,0,4,,,,,,,,,4,,,66,75
48288,note_on,2,0,1,,,,,,,,,11,,,78,110
48288,note_on,64,0,2,,,,,,,,,0,,,78,110
48288,note_on,64,0,3,,,,,,,,,2,,,73,110
48320,note_on,32,0,4,,,,,,,,,4,,,66,0
48320,note_on,32,0,3,,,,,,,,,2,,,73,0
48320,note_on,32,0,2,,,,,,,,,0,,,78,0
48382,note_on,94,0,1,,,,,,,,,11,,,78,0
48384,note_on,64,0,4,,,,,,,,,4,,,73,75
48384,note_on,64,0,3,,,,,,,,,2,,,77,110
48384,note_on,64,0,2,,,,,,,,,0,,,80,110
48384,note_on,2,0,1,,,,,,,,,11,,,80,110
48416,note_on,32,0,4,,,,,,,,,4,,,73,0
48416,note_on,32,0,3,,,,,,,,,2,,,77,0
48416,note_on,32,0,2,,,,,,,,,0,,,80,0
48478,note_on,94,0,1,,,,,,,,,11,,,80,0
48480,note_on,64,0,4,,,,,,,,,4,,,73,75
48480,note_on,64,0,3,,,,,,,,,2,,,77,110
48480,note_on,2,0,1,,,,,,,,,11,,,77,110
48480,note_on,64,0,2,,,,,,,,,0,,,80,110
48512,note_on,32,0,2,,,,,,,,,0,,,80,0
48512,note_on,32,0,3,,,,,,,,,2,,,77,0
48512,note_on,32,0,4,,,,,,,,,4,,,73,0
48526,note_on,46,0,1,,,,,,,,,11,,,77,0
48528,note_on,2,0,1,,,,,,,,,11,,,73,110
48574,note_on,46,0,1,,,,,,,,,11,,,73,0
48576,note_on,64,0,3,,,,,,,,,2,,,77,110
48576,note_on,64,0,2,,,,,,,,,0,,,80,110
48576,note_on,64,0,4,,,,,,,,,4,,,73,75
48576,note_on,2,0,1,,,,,,,,,11,,,77,110
48608,note_on,32,0,2,,,,,,,,,0,,,80,0
48608,note_on,32,0,4,,,,,,,,,4,,,73,0
48608,note_on,32,0,3,,,,,,,,,2,,,77,0
48622,note_on,46,0,1,,,,,,,,,11,,,77,0
48624,note_on,2,0,1,,,,,,,,,11,,,73,110
48670,note_on,46,0,1,,,,,,,,,11,,,73,0
48672,note_on,64,0,2,,,,,,,,,0,,,80,110
48672,note_on,64,0,3,,,,,,,,,2,,,77,110
48672,note_on,2,0,1,,,,,,,,,11,,,73,110
48672,note_on,64,0,4,,,,,,,,,4,,,73,75
48704,note_on,32,0,2,,,,,,,,,0,,,80,0
48704,note_on,32,0,4,,,,,,,,,4,,,73,0
48704,note_on,32,0,3,,,,,,,,,2,,,77,0
48766,note_on,94,0,1,,,,,,,,,11,,,73,0
48768,note_on,64,0,2,,,,,,,,,0,,,80,110
48768,note_on,64,0,4,,,,,,,,,4,,,73,75
48768,note_on,2,0,1,,,,,,,,,11,,,77,110
48768,note_on,64,0,3,,,,,,,,,2,,,77,110
48800,note_on,32,0,3,,,,,,,,,2,,,77,0
48800,note_on,32,0,4,,,,,,,,,4,,,73,0
48800,note_on,32,0,2,,,,,,,,,0,,,80,0
48862,note_on,94,0,1,,,,,,,,,11,,,77,0
48864,note_on,64,0,3,,,,,,,,,2,,,77,110
48864,note_on,64,0,2,,,,,,,,,0,,,80,110
48864,note_on,2,0,1,,,,,,,,,11,,,80,110
48864,note_on,64,0,4,,,,,,,,,4,,,73,75
48896,note_on,32,0,4,,,,,,,,,4,,,73,0
48896,note_on,32,0,3,,,,,,,,,2,,,77,0
48896,note_on,32,0,2,,,,,,,,,0,,,80,0
48958,note_on,94,0,1,,,,,,,,,11,,,80,0
48960,note_on,64,0,4,,,,,,,,,4,,,73,75
48960,note_on,64,0,3,,,,,,,,,2,,,77,110
48960,note_on,2,0,1,,,,,,,,,11,,,80,110
48960,note_on,64,0,2,,,,,,,,,0,,,80,110
48992,note_on,32,0,4,,,,,,,,,4,,,73,0
48992,note_on,32,0,3,,,,,,,,,2,,,77,0
48992,note_on,32,0,2,,,,,,,,,0,,,80,0
49054,note_on,94,0,1,,,,,,,,,11,,,80,0
49056,note_on,2,0,1,,,,,,,,,11,,,77,110
49056,note_on,64,0,3,,,,,,,,,2,,,77,110
49056,note_on,64,0,4,,,,,,,,,4,,,73,75
49056,note_on,64,0,2,,,,,,,,,0,,,80,110
49088,note_on,32,0,2,,,,,,,,,0,,,80,0
49088,note_on,32,0,3,,,,,,,,,2,,,77,0
49088,note_on,32,0,4,,,,,,,,,4,,,73,0
49102,note_on,46,0,1,,,,,,,,,11,,,77,0
49104,note_on,2,0,1,,,,,,,,,11,,,73,110
49150,note_on,46,0,1,,,,,,,,,11,,,73,0
49152,note_on,2,0,1,,,,,,,,,11,,,77,110
49152,note_on,64,0,4,,,,,,,,,4,,,73,75
49152,note_on,64,0,3,,,,,,,,,2,,,77,110
49152,note_on,64,0,2,,,,,,,,,0,,,80,110
49184,note_on,32,0,4,,,,,,,,,4,,,73,0
49184,note_on,32,0,2,,,,,,,,,0,,,80,0
49184,note_on,32,0,3,,,,,,,,,2,,,77,0
49198,note_on,46,0,1,,,,,,,,,11,,,77,0
49200,note_on,2,0,1,,,,,,,,,11,,,73,110
49246,note_on,46,0,1,,,,,,,,,11,,,73,0
49248,note_on,64,0,4,,,,,,,,,4,,,73,75
49248,note_on,64,0,3,,,,,,,,,2,,,77,110
49248,note_on,2,0,1,,,,,,,,,11,,,73,110
49248,note_on,64,0,2,,,,,,,,,0,,,80,110
49280,note_on,32,0,4,,,,,,,,,4,,,73,0
49280,note_on,32,0,3,,,,,,,,,2,,,77,0
49280,note_on,32,0,2,,,,,,,,,0,,,80,0
49342,note_on,94,0,1,,,,,,,,,11,,,73,0
49344,note_on,2,0,1,,,,,,,,,11,,,77,110
49344,note_on,64,0,4,,,,,,,,,4,,,73,75
49344,note_on,64,0,3,,,,,,,,,2,,,77,110
49344,note_on,64,0,2,,,,,,,,,0,,,80,110
49376,note_on,32,0,4,,,,,,,,,4,,,73,0
49376,note_on,32,0,3,,,,,,,,,2,,,77,0
49376,note_on,32,0,2,,,,,,,,,0,,,80,0
49438,note_on,94,0,1,,,,,,,,,11,,,77,0
49440,note_on,64,0,2,,,,,,,,,0,,,80,110
49440,note_on,2,0,1,,,,,,,,,11,,,80,110
49440,note_on,64,0,4,,,,,,,,,4,,,73,75
49440,note_on,64,0,3,,,,,,,,,2,,,77,110
49472,note_on,32,0,2,,,,,,,,,0,,,80,0
49472,note_on,32,0,3,,,,,,,,,2,,,77,0
49472,note_on,32,0,4,,,,,,,,,4,,,73,0
49534,note_on,94,0,1,,,,,,,,,11,,,80,0
49536,note_on,2,0,1,,,,,,,,,11,,,81,110
49536,note_on,64,0,4,,,,,,,,,4,,,69,75
49536,note_on,64,0,3,,,,,,,,,2,,,73,110
49536,note_on,64,0,2,,,,,,,,,0,,,78,110
49568,note_on,32,0,3,,,,,,,,,2,,,73,0
49568,note_on,32,0,2,,,,,,,,,0,,,78,0
49568,note_on,32,0,4,,,,,,,,,4,,,69,0
49630,note_on,94,0,1,,,,,,,,,11,,,81,0
49632,note_on,64,0,4,,,,,,,,,4,,,69,75
49632,note_on,64,0,3,,,,,,,,,2,,,73,110
49632,note_on,2,0,1,,,,,,,,,11,,,78,110
49632,note_on,64,0,2,,,,,,,,,0,,,78,110
49664,note_on,32,0,3,,,,,,,,,2,,,73,0
49664,note_on,32,0,4,,,,,,,,,4,,,69,0
49664,note_on,32,0,2,,,,,,,,,0,,,78,0
49678,note_on,46,0,1,,,,,,,,,11,,,78,0
49680,note_on,2,0,1,,,,,,,,,11,,,73,110
49726,note_on,46,0,1,,,,,,,,,11,,,73,0
49728,note_on,64,0,4,,,,,,,,,4,,,69,75
49728,note_on,64,0,3,,,,,,,,,2,,,73,110
49728,note_on,2,0,1,,,,,,,,,11,,,78,110
49728,note_on,64,0,2,,,,,,,,,0,,,78,110
49760,note_on,32,0,3,,,,,,,,,2,,,73,0
49760,note_on,32,0,2,,,,,,,,,0,,,78,0
49760,note_on,32,0,4,,,,,,,,,4,,,69,0
49774,note_on,46,0,1,,,,,,,,,11,,,78,0
49776,note_on,2,0,1,,,,,,,,,11,,,73,110
49822,note_on,46,0,1,,,,,,,,,11,,,73,0
49824,note_on,64,0,2,,,,,,,,,0,,,78,110
49824,note_on,64,0,3,,,,,,,,,2,,,73,110
49824,note_on,64,0,4,,,,,,,,,4,,,69,75
49824,note_on,2,0,1,,,,,,,,,11,,,73,110
49856,note_on,32,0,3,,,,,,,,,2,,,73,0
49856,note_on,32,0,4,,,,,,,,,4,,,69,0
49856,note_on,32,0,2,,,,,,,,,0,,,78,0
49918,note_on,94,0,1,,,,,,,,,11,,,73,0
49920,note_on,64,0,3,,,,,,,,,2,,,73,110
49920,note_on,64,0,4,,,,,,,,,4,,,69,75
49920,note_on,2,0,1,,,,,,,,,11,,,78,110
49920,note_on,64,0,2,,,,,,,,,0,,,78,110
49952,note_on,32,0,3,,,,,,,,,2,,,73,0
49952,note_on,32,0,4,,,,,,,,,4,,,69,0
49952,note_on,32,0,2,,,,,,,,,0,,,78,0
50014,note_on,94,0,1,,,,,,,,,11,,,78,0
50016,note_on,2,0,1,,,,,,,,,11,,,81,110
50016,note_on,64,0,4,,,,,,,,,4,,,69,75
50016,note_on,64,0,2,,,,,,,,,0,,,78,110
50016,note_on,64,0,3,,,,,,,,,2,,,73,110
50048,note_on,32,0,4,,,,,,,,,4,,,69,0
50048,note_on,32,0,2,,,,,,,,,0,,,78,0
50048,note_on,32,0,3,,,,,,,,,2,,,73,0
50110,note_on,94,0,1,,,,,,,,,11,,,81,0
50112,note_on,64,0,3,,,,,,,,,2,,,73,110
50112,note_on,2,0,1,,,,,,,,,11,,,81,110
50112,note_on,64,0,4,,,,,,,,,4,,,69,75
50112,note_on,64,0,2,,,,,,,,,0,,,78,110
50144,note_on,32,0,3,,,,,,,,,2,,,73,0
50144,note_on,32,0,2,,,,,,,,,0,,,78,0
50144,note_on,32,0,4,,,,,,,,,4,,,69,0
50206,note_on,94,0,1,,,,,,,,,11,,,81,0
50208,note_on,64,0,3,,,,,,,,,2,,,73,110
50208,note_on,64,0,4,,,,,,,,,4,,,69,75
50208,note_on,64,0,2,,,,,,,,,0,,,78,110
50208,note_on,2,0,1,,,,,,,,,11,,,78,110
50240,note_on,32,0,4,,,,,,,,,4,,,69,0
50240,note_on,32,0,2,,,,,,,,,0,,,78,0
50240,note_on,32,0,3,,,,,,,,,2,,,73,0
50254,note_on,46,0,1,,,,,,,,,11,,,78,0
50256,note_on,2,0,1,,,,,,,,,11,,,73,110
50302,note_on,46,0,1,,,,,,,,,11,,,73,0
50304,note_on,64,0,4,,,,,,,,,4,,,69,75
50304,note_on,64,0,3,,,,,,,,,2,,,73,110
50304,note_on,2,0,1,,,,,,,,,11,,,78,110
50304,note_on,64,0,2,,,,,,,,,0,,,78,110
50336,note_on,32,0,4,,,,,,,,,4,,,69,0
50336,note_on,32,0,3,,,,,,,,,2,,,73,0
50336,note_on,32,0,2,,,,,,,,,0,,,78,0
50350,note_on,46,0,1,,,,,,,,,11,,,78,0
50352,note_on,2,0,1,,,,,,,,,11,,,73,110
50398,note_on,46,0,1,,,,,,,,,11,,,73,0
50400,note_on,64,0,3,,,,,,,,,2,,,73,110
50400,note_on,64,0,2,,,,,,,,,0,,,78,110
50400,note_on,64,0,4,,,,,,,,,4,,,69,75
50400,note_on,2,0,1,,,,,,,,,11,,,73,110
50432,note_on,32,0,4,,,,,,,,,4,,,69,0
50432,note_on,32,0,2,,,,,,,,,0,,,78,0
50432,note_on,32,0,3,,,,,,,,,2,,,73,0
50494,note_on,94,0,1,,,,,,,,,11,,,73,0
50496,note_on,64,0,2,,,,,,,,,0,,,78,110
50496,note_on,2,0,1,,,,,,,,,11,,,78,110
50496,note_on,64,0,3,,,,,,,,,2,,,73,110
50496,note_on,64,0,4,,,,,,,,,4,,,69,75
50528,note_on,32,0,4,,,,,,,,,4,,,69,0
50528,note_on,32,0,3,,,,,,,,,2,,,73,0
50528,note_on,32,0,2,,,,,,,,,0,,,78,0
50590,note_on,94,0,1,,,,,,,,,11,,,78,0
50592,note_on,64,0,2,,,,,,,,,0,,,78,110
50592,note_on,64,0,4,,,,,,,,,4,,,69,75
50592,note_on,64,0,3,,,,,,,,,2,,,73,110
50592,note_on,2,0,1,,,,,,,,,11,,,81,110
50624,note_on,32,0,3,,,,,,,,,2,,,73,0
50624,note_on,32,0,2,,,,,,,,,0,,,78,0
50624,note_on,32,0,4,,,,,,,,,4,,,69,0
50686,note_on,94,0,1,,,,,,,,,11,,,81,0
50688,note_on,64,0,3,,,,,,,,,2,,,73,110
50688,note_on,64,0,2,,,,,,,,,0,,,82,110
50688,note_on,64,0,4,,,,,,,,,4,,,66,75
50688,note_on,2,0,1,,,,,,,,,11,,,82,110
50720,note_on,32,0,2,,,,,,,,,0,,,82,0
50720,note_on,32,0,3,,,,,,,,,2,,,73,0
50720,note_on,32,0,4,,,,,,,,,4,,,66,0
50782,note_on,94,0,1,,,,,,,,,11,,,82,0
50784,note_on,64,0,2,,,,,,,,,0,,,82,110
50784,note_on,64,0,3,,,,,,,,,2,,,73,110
50784,note_on,2,0,1,,,,,,,,,11,,,76,110
50784,note_on,64,0,4,,,,,,,,,4,,,66,75
50816,note_on,32,0,2,,,,,,,,,0,,,82,0
50816,note_on,32,0,4,,,,,,,,,4,,,66,0
50816,note_on,32,0,3,,,,,,,,,2,,,73,0
50830,note_on,46,0,1,,,,,,,,,11,,,76,0
50832,note_on,2,0,1,,,,,,,,,11,,,73,110
50878,note_on,46,0,1,,,,,,,,,11,,,73,0
50880,note_on,64,0,2,,,,,,,,,0,,,82,110
50880,note_on,64,0,4,,,,,,,,,4,,,66,75
50880,note_on,2,0,1,,,,,,,,,11,,,76,110
50880,note_on,64,0,3,,,,,,,,,2,,,73,110
50912,note_on,32,0,3,,,,,,,,,2,,,73,0
50912,note_on,32,0,2,,,,,,,,,0,,,82,0
50912,note_on,32,0,4,,,,,,,,,4,,,66,0
50926,note_on,46,0,1,,,,,,,,,11,,,76,0
50928,note_on,2,0,1,,,,,,,,,11,,,73,110
50974,note_on,46,0,1,,,,,,,,,11,,,73,0
50976,note_on,64,0,2,,,,,,,,,0,,,82,110
50976,note_on,2,0,1,,,,,,,,,11,,,73,110
50976,note_on,64,0,3,,,,,,,,,2,,,73,110
50976,note_on,64,0,4,,,,,,,,,4,,,66,75
51008,note_on,32,0,2,,,,,,,,,0,,,82,0
51008,note_on,32,0,3,,,,,,,,,2,,,73,0
51008,note_on,32,0,4,,,,,,,,,4,,,66,0
51070,note_on,94,0,1,,,,,,,,,11,,,73,0
51072,note_on,2,0,1,,,,,,,,,11,,,76,110
51072,note_on,64,0,3,,,,,,,,,2,,,73,110
51072,note_on,64,0,2,,,,,,,,,0,,,82,110
51072,note_on,64,0,4,,,,,,,,,4,,,66,75
51104,note_on,32,0,3,,,,,,,,,2,,,73,0
51104,note_on,32,0,2,,,,,,,,,0,,,82,0
51104,note_on,32,0,4,,,,,,,,,4,,,66,0
51166,note_on,94,0,1,,,,,,,,,11,,,76,0
51168,note_on,2,0,1,,,,,,,,,11,,,82,110
51168,note_on,64,0,2,,,,,,,,,0,,,82,110
51168,note_on,64,0,3,,,,,,,,,2,,,73,110
51168,note_on,64,0,4,,,,,,,,,4,,,66,75
51200,note_on,32,0,3,,,,,,,,,2,,,73,0
51200,note_on,32,0,4,,,,,,,,,4,,,66,0
51200,note_on,32,0,2,,,,,,,,,0,,,82,0
51262,note_on,94,0,1,,,,,,,,,11,,,82,0
51264,note_on,64,0,2,,,,,,,,,0,,,82,110
51264,note_on,64,0,3,,,,,,,,,2,,,73,110
51264,note_on,64,0,4,,,,,,,,,4,,,66,75
51264,note_on,2,0,1,,,,,,,,,11,,,82,110
51296,note_on,32,0,2,,,,,,,,,0,,,82,0
51296,note_on,32,0,3,,,,,,,,,2,,,73,0
51296,note_on,32,0,4,,,,,,,,,4,,,66,0
51358,note_on,94,0,1,,,,,,,,,11,,,82,0
51360,note_on,64,0,2,,,,,,,,,0,,,82,110
51360,note_on,64,0,3,,,,,,,,,2,,,73,110
51360,note_on,64,0,4,,,,,,,,,4,,,66,75
51360,note_on,2,0,1,,,,,,,,,11,,,76,110
51392,note_on,32,0,4,,,,,,,,,4,,,66,0
51392,note_on,32,0,2,,,,,,,,,0,,,82,0
51392,note_on,32,0,3,,,,,,,,,2,,,73,0
51406,note_on,46,0,1,,,,,,,,,11,,,76,0
51408,note_on,2,0,1,,,,,,,,,11,,,73,110
51454,note_on,46,0,1,,,,,,,,,11,,,73,0
51456,note_on,2,0,1,,,,,,,,,11,,,76,110
51456,note_on,64,0,4,,,,,,,,,4,,,66,75
51456,note_on,64,0,3,,,,,,,,,2,,,73,110
51456,note_on,64,0,2,,,,,,,,,0,,,82,110
51488,note_on,32,0,2,,,,,,,,,0,,,82,0
51488,note_on,32,0,3,,,,,,,,,2,,,73,0
51488,note_on,32,0,4,,,,,,,,,4,,,66,0
51502,note_on,46,0,1,,,,,,,,,11,,,76,0
51504,note_on,2,0,1,,,,,,,,,11,,,73,110
51550,note_on,46,0,1,,,,,,,,,11,,,73,0
51552,note_on,64,0,2,,,,,,,,,0,,,82,110
51552,note_on,64,0,3,,,,,,,,,2,,,73,110
51552,note_on,2,0,1,,,,,,,,,11,,,73,110
51552,note_on,64,0,4,,,,,,,,,4,,,66,75
51584,note_on,32,0,3,,,,,,,,,2,,,73,0
51584,note_on,32,0,2,,,,,,,,,0,,,82,0
51584,note_on,32,0,4,,,,,,,,,4,,,66,0
51646,note_on,94,0,1,,,,,,,,,11,,,73,0
51648,note_on,2,0,1,,,,,,,,,11,,,76,110
51648,note_on,64,0,2,,,,,,,,,0,,,82,110
51648,note_on,64,0,3,,,,,,,,,2,,,73,110
51648,note_on,64,0,4,,,,,,,,,4,,,66,75
51680,note_on,32,0,3,,,,,,,,,2,,,73,0
51680,note_on,32,0,4,,,,,,,,,4,,,66,0
51680,note_on,32,0,2,,,,,,,,,0,,,82,0
51742,note_on,94,0,1,,,,,,,,,11,,,76,0
51744,note_on,64,0,3,,,,,,,,,2,,,73,110
51744,note_on,2,0,1,,,,,,,,,11,,,82,110
51744,note_on,64,0,4,,,,,,,,,4,,,66,75
51744,note_on,64,0,2,,,,,,,,,0,,,82,110
51776,note_on,32,0,2,,,,,,,,,0,,,82,0
51776,note_on,32,0,4,,,,,,,,,4,,,66,0
51776,note_on,32,0,3,,,,,,,,,2,,,73,0
51838,note_on,94,0,1,,,,,,,,,11,,,82,0
51840,note_on,64,0,2,,,,,,,,,0,,,78,110
51840,note_on,2,0,1,,,,,,,,,11,,,83,110
51840,note_on,64,0,3,,,,,,,,,2,,,74,110
51840,note_on,64,0,4,,,,,,,,,4,,,71,75
51872,note_on,32,0,4,,,,,,,,,4,,,71,0
51872,note_on,32,0,3,,,,,,,,,2,,,74,0
51872,note_on,32,0,2,,,,,,,,,0,,,78,0
51934,note_on,94,0,1,,,,,,,,,11,,,83,0
51936,note_on,64,0,3,,,,,,,,,2,,,74,110
51936,note_on,64,0,2,,,,,,,,,0,,,78,110
51936,note_on,64,0,4,,,,,,,,,4,,,71,75
51936,note_on,2,0,1,,,,,,,,,11,,,78,110
51968,note_on,32,0,4,,,,,,,,,4,,,71,0
51968,note_on,32,0,3,,,,,,,,,2,,,74,0
51968,note_on,32,0,2,,,,,,,,,0,,,78,0
51982,note_on,46,0,1,,,,,,,,,11,,,78,0
51984,note_on,2,0,1,,,,,,,,,11,,,74,110
52030,note_on,46,0,1,,,,,,,,,11,,,74,0
52032,note_on,64,0,3,,,,,,,,,2,,,74,110
52032,note_on,64,0,4,,,,,,,,,4,,,71,75
52032,note_on,2,0,1,,,,,,,,,11,,,78,110
52032,note_on,64,0,2,,,,,,,,,0,,,78,110
52064,note_on,32,0,2,,,,,,,,,0,,,78,0
52064,note_on,32,0,4,,,,,,,,,4,,,71,0
52064,note_on,32,0,3,,,,,,,,,2,,,74,0
52078,note_on,46,0,1,,,,,,,,,11,,,78,0
52080,note_on,2,0,1,,,,,,,,,11,,,74,110
52126,note_on,46,0,1,,,,,,,,,11,,,74,0
52128,note_on,64,0,2,,,,,,,,,0,,,78,110
52128,note_on,64,0,3,,,,,,,,,2,,,74,110
52128,note_on,2,0,1,,,,,,,,,11,,,74,110
52128,note_on,64,0,4,,,,,,,,,4,,,71,75
52160,note_on,32,0,2,,,,,,,,,0,,,78,0
52160,note_on,32,0,4,,,,,,,,,4,,,71,0
52160,note_on,32,0,3,,,,,,,,,2,,,74,0
52222,note_on,94,0,1,,,,,,,,,11,,,74,0
52224,note_on,64,0,4,,,,,,,,,4,,,71,75
52224,note_on,64,0,2,,,,,,,,,0,,,78,110
52224,note_on,64,0,3,,,,,,,,,2,,,74,110
52224,note_on,2,0,1,,,,,,,,,11,,,78,110
52256,note_on,32,0,4,,,,,,,,,4,,,71,0
52256,note_on,32,0,3,,,,,,,,,2,,,74,0
52256,note_on,32,0,2,,,,,,,,,0,,,78,0
52318,note_on,94,0,1,,,,,,,,,11,,,78,0
52320,note_on,2,0,1,,,,,,,,,11,,,83,110
52320,note_on,64,0,2,,,,,,,,,0,,,78,110
52320,note_on,64,0,4,,,,,,,,,4,,,71,75
52320,note_on,64,0,3,,,,,,,,,2,,,74,110
52352,note_on,32,0,2,,,,,,,,,0,,,78,0
52352,note_on,32,0,3,,,,,,,,,2,,,74,0
52352,note_on,32,0,4,,,,,,,,,4,,,71,0
52414,note_on,94,0,1,,,,,,,,,11,,,83,0
52416,note_on,2,0,1,,,,,,,,,11,,,83,110
52416,note_on,64,0,2,,,,,,,,,0,,,78,110
52416,note_on,64,0,4,,,,,,,,,4,,,71,75
52416,note_on,64,0,3,,,,,,,,,2,,,74,110
52448,note_on,32,0,3,,,,,,,,,2,,,74,0
52448,note_on,32,0,4,,,,,,,,,4,,,71,0
52448,note_on,32,0,2,,,,,,,,,0,,,78,0
52510,note_on,94,0,1,,,,,,,,,11,,,83,0
52512,note_on,64,0,3,,,,,,,,,2,,,74,110
52512,note_on,64,0,2,,,,,,,,,0,,,78,110
52512,note_on,2,0,1,,,,,,,,,11,,,78,110
52512,note_on,64,0,4,,,,,,,,,4,,,71,75
52544,note_on,32,0,2,,,,,,,,,0,,,78,0
52544,note_on,32,0,4,,,,,,,,,4,,,71,0
52544,note_on,32,0,3,,,,,,,,,2,,,74,0
52558,note_on,46,0,1,,,,,,,,,11,,,78,0
52560,note_on,2,0,1,,,,,,,,,11,,,74,110
52606,note_on,46,0,1,,,,,,,,,11,,,74,0
52608,note_on,64,0,3,,,,,,,,,2,,,74,110
52608,note_on,64,0,4,,,,,,,,,4,,,71,75
52608,note_on,2,0,1,,,,,,,,,11,,,78,110
52608,note_on,64,0,2,,,,,,,,,0,,,78,110
52640,note_on,32,0,3,,,,,,,,,2,,,74,0
52640,note_on,32,0,2,,,,,,,,,0,,,78,0
52640,note_on,32,0,4,,,,,,,,,4,,,71,0
52654,note_on,46,0,1,,,,,,,,,11,,,78,0
52656,note_on,2,0,1,,,,,,,,,11,,,74,110
52702,note_on,46,0,1,,,,,,,,,11,,,74,0
52704,note_on,64,0,3,,,,,,,,,2,,,74,110
52704,note_on,64,0,4,,,,,,,,,4,,,71,75
52704,note_on,64,0,2,,,,,,,,,0,,,78,110
52704,note_on,2,0,1,,,,,,,,,11,,,74,110
52736,note_on,32,0,2,,,,,,,,,0,,,78,0
52736,note_on,32,0,3,,,,,,,,,2,,,74,0
52736,note_on,32,0,4,,,,,,,,,4,,,71,0
52798,note_on,94,0,1,,,,,,,,,11,,,74,0
52800,note_on,64,0,4,,,,,,,,,4,,,71,75
52800,note_on,2,0,1,,,,,,,,,11,,,78,110
52800,note_on,64,0,2,,,,,,,,,0,,,78,110
52800,note_on,64,0,3,,,,,,,,,2,,,74,110
52832,note_on,32,0,4,,,,,,,,,4,,,71,0
52832,note_on,32,0,3,,,,,,,,,2,,,74,0
52832,note_on,32,0,2,,,,,,,,,0,,,78,0
52894,note_on,94,0,1,,,,,,,,,11,,,78,0
52896,note_on,64,0,3,,,,,,,,,2,,,74,110
52896,note_on,2,0,1,,,,,,,,,11,,,83,110
52896,note_on,64,0,2,,,,,,,,,0,,,78,110
52896,note_on,64,0,4,,,,,,,,,4,,,71,75
52928,note_on,32,0,2,,,,,,,,,0,,,78,0
52928,note_on,32,0,4,,,,,,,,,4,,,71,0
52928,note_on,32,0,3,,,,,,,,,2,,,74,0
52990,note_on,94,0,1,,,,,,,,,11,,,83,0
52992,note_on,2,0,1,,,,,,,,,11,,,81,110
52992,note_on,64,0,2,,,,,,,,,0,,,81,110
52992,note_on,64,0,3,,,,,,,,,2,,,75,110
52992,note_on,64,0,4,,,,,,,,,4,,,71,75
53024,note_on,32,0,3,,,,,,,,,2,,,75,0
53024,note_on,32,0,4,,,,,,,,,4,,,71,0
53024,note_on,32,0,2,,,,,,,,,0,,,81,0
53086,note_on,94,0,1,,,,,,,,,11,,,81,0
53088,note_on,64,0,2,,,,,,,,,0,,,81,110
53088,note_on,64,0,4,,,,,,,,,4,,,71,75
53088,note_on,64,0,3,,,,,,,,,2,,,75,110
53088,note_on,2,0,1,,,,,,,,,11,,,75,110
53120,note_on,32,0,2,,,,,,,,,0,,,81,0
53120,note_on,32,0,3,,,,,,,,,2,,,75,0
53120,note_on,32,0,4,,,,,,,,,4,,,71,0
53134,note_on,46,0,1,,,,,,,,,11,,,75,0
53136,note_on,2,0,1,,,,,,,,,11,,,71,110
53182,note_on,46,0,1,,,,,,,,,11,,,71,0
53184,note_on,64,0,4,,,,,,,,,4,,,71,75
53184,note_on,64,0,2,,,,,,,,,0,,,81,110
53184,note_on,64,0,3,,,,,,,,,2,,,75,110
53184,note_on,2,0,1,,,,,,,,,11,,,75,110
53216,note_on,32,0,4,,,,,,,,,4,,,71,0
53216,note_on,32,0,3,,,,,,,,,2,,,75,0
53216,note_on,32,0,2,,,,,,,,,0,,,81,0
53230,note_on,46,0,1,,,,,,,,,11,,,75,0
53232,note_on,2,0,1,,,,,,,,,11,,,71,110
53278,note_on,46,0,1,,,,,,,,,11,,,71,0
53280,note_on,64,0,4,,,,,,,,,4,,,71,75
53280,note_on,2,0,1,,,,,,,,,11,,,71,110
53280,note_on,64,0,3,,,,,,,,,2,,,75,110
53280,note_on,64,0,2,,,,,,,,,0,,,81,110
53312,note_on,32,0,2,,,,,,,,,0,,,81,0
53312,note_on,32,0,3,,,,,,,,,2,,,75,0
53312,note_on,32,0,4,,,,,,,,,4,,,71,0
53374,note_on,94,0,1,,,,,,,,,11,,,71,0
53376,note_on,64,0,2,,,,,,,,,0,,,81,110
53376,note_on,2,0,1,,,,,,,,,11,,,75,110
53376,note_on,64,0,3,,,,,,,,,2,,,75,110
53376,note_on,64,0,4,,,,,,,,,4,,,71,75
53408,note_on,32,0,3,,,,,,,,,2,,,75,0
53408,note_on,32,0,4,,,,,,,,,4,,,71,0
53408,note_on,32,0,2,,,,,,,,,0,,,81,0
53470,note_on,94,0,1,,,,,,,,,11,,,75,0
53472,note_on,64,0,4,,,,,,,,,4,,,71,75
53472,note_on,64,0,3,,,,,,,,,2,,,75,110
53472,note_on,64,0,2,,,,,,,,,0,,,81,110
53472,note_on,2,0,1,,,,,,,,,11,,,81,110
53504,note_on,32,0,4,,,,,,,,,4,,,71,0
53504,note_on,32,0,3,,,,,,,,,2,,,75,0
53504,note_on,32,0,2,,,,,,,,,0,,,81,0
53566,note_on,94,0,1,,,,,,,,,11,,,81,0
53568,note_on,64,0,3,,,,,,,,,2,,,75,110
53568,note_on,64,0,2,,,,,,,,,0,,,81,110
53568,note_on,2,0,1,,,,,,,,,11,,,81,110
53568,note_on,64,0,4,,,,,,,,,4,,,71,75
53600,note_on,32,0,2,,,,,,,,,0,,,81,0
53600,note_on,32,0,4,,,,,,,,,4,,,71,0
53600,note_on,32,0,3,,,,,,,,,2,,,75,0
53662,note_on,94,0,1,,,,,,,,,11,,,81,0
53664,note_on,64,0,2,,,,,,,,,0,,,81,110
53664,note_on,64,0,4,,,,,,,,,4,,,71,75
53664,note_on,64,0,3,,,,,,,,,2,,,75,110
53664,note_on,2,0,1,,,,,,,,,11,,,75,110
53696,note_on,32,0,4,,,,,,,,,4,,,71,0
53696,note_on,32,0,2,,,,,,,,,0,,,81,0
53696,note_on,32,0,3,,,,,,,,,2,,,75,0
53710,note_on,46,0,1,,,,,,,,,11,,,75,0
53712,note_on,2,0,1,,,,,,,,,11,,,71,110
53758,note_on,46,0,1,,,,,,,,,11,,,71,0
53760,note_on,64,0,2,,,,,,,,,0,,,81,110
53760,note_on,64,0,4,,,,,,,,,4,,,71,75
53760,note_on,64,0,3,,,,,,,,,2,,,75,110
53760,note_on,2,0,1,,,,,,,,,11,,,75,110
53792,note_on,32,0,3,,,,,,,,,2,,,75,0
53792,note_on,32,0,2,,,,,,,,,0,,,81,0
53792,note_on,32,0,4,,,,,,,,,4,,,71,0
53806,note_on,46,0,1,,,,,,,,,11,,,75,0
53808,note_on,2,0,1,,,,,,,,,11,,,71,110
53854,note_on,46,0,1,,,,,,,,,11,,,71,0
53856,note_on,64,0,3,,,,,,,,,2,,,75,110
53856,note_on,64,0,2,,,,,,,,,0,,,81,110
53856,note_on,64,0,4,,,,,,,,,4,,,71,75
53856,note_on,2,0,1,,,,,,,,,11,,,71,110
53888,note_on,32,0,2,,,,,,,,,0,,,81,0
53888,note_on,32,0,4,,,,,,,,,4,,,71,0
53888,note_on,32,0,3,,,,,,,,,2,,,75,0
53950,note_on,94,0,1,,,,,,,,,11,,,71,0
53952,note_on,64,0,2,,,,,,,,,0,,,81,110
53952,note_on,2,0,1,,,,,,,,,11,,,75,110
53952,note_on,64,0,4,,,,,,,,,4,,,71,75
53952,note_on,64,0,3,,,,,,,,,2,,,75,110
53984,note_on,32,0,3,,,,,,,,,2,,,75,0
53984,note_on,32,0,2,,,,,,,,,0,,,81,0
53984,note_on,32,0,4,,,,,,,,,4,,,71,0
54046,note_on,94,0,1,,,,,,,,,11,,,75,0
54048,note_on,64,0,3,,,,,,,,,2,,,75,110
54048,note_on,64,0,2,,,,,,,,,0,,,81,110
54048,note_on,64,0,4,,,,,,,,,4,,,71,75
54048,note_on,2,0,1,,,,,,,,,11,,,81,110
54080,note_on,32,0,3,,,,,,,,,2,,,75,0
54080,note_on,32,0,2,,,,,,,,,0,,,81,0
54080,note_on,32,0,4,,,,,,,,,4,,,71,0
54142,note_on,94,0,1,,,,,,,,,11,,,81,0
54144,note_on,64,0,2,,,,,,,,,0,,,79,110
54144,note_on,64,0,3,,,,,,,,,2,,,71,110
54144,note_on,64,0,4,,,,,,,,,4,,,64,75
54144,note_on,2,0,1,,,,,,,,,11,,,79,110
54176,note_on,32,0,4,,,,,,,,,4,,,64,0
54176,note_on,32,0,3,,,,,,,,,2,,,71,0
54176,note_on,32,0,2,,,,,,,,,0,,,79,0
54238,note_on,94,0,1,,,,,,,,,11,,,79,0
54240,note_on,64,0,4,,,,,,,,,4,,,64,75
54240,note_on,64,0,2,,,,,,,,,0,,,79,110
54240,note_on,64,0,3,,,,,,,,,2,,,71,110
54240,note_on,2,0,1,,,,,,,,,11,,,76,110
54272,note_on,32,0,2,,,,,,,,,0,,,79,0
54272,note_on,32,0,3,,,,,,,,,2,,,71,0
54272,note_on,32,0,4,,,,,,,,,4,,,64,0
54286,note_on,46,0,1,,,,,,,,,11,,,76,0
54288,note_on,2,0,1,,,,,,,,,11,,,71,110
54334,note_on,46,0,1,,,,,,,,,11,,,71,0
54336,note_on,64,0,4,,,,,,,,,4,,,64,75
54336,note_on,64,0,3,,,,,,,,,2,,,71,110
54336,note_on,2,0,1,,,,,,,,,11,,,76,110
54336,note_on,64,0,2,,,,,,,,,0,,,79,110
54368,note_on,32,0,4,,,,,,,,,4,,,64,0
54368,note_on,32,0,3,,,,,,,,,2,,,71,0
54368,note_on,32,0,2,,,,,,,,,0,,,79,0
54382,note_on,46,0,1,,,,,,,,,11,,,76,0
54384,note_on,2,0,1,,,,,,,,,11,,,71,110
54430,note_on,46,0,1,,,,,,,,,11,,,71,0
54432,note_on,2,0,1,,,,,,,,,11,,,71,110
54432,note_on,64,0,4,,,,,,,,,4,,,64,75
54432,note_on,64,0,3,,,,,,,,,2,,,71,110
54432,note_on,64,0,2,,,,,,,,,0,,,79,110
54464,note_on,32,0,4,,,,,,,,,4,,,64,0
54464,note_on,32,0,3,,,,,,,,,2,,,71,0
54464,note_on,32,0,2,,,,,,,,,0,,,79,0
54526,note_on,94,0,1,,,,,,,,,11,,,71,0
54528,note_on,2,0,1,,,,,,,,,11,,,76,110
54528,note_on,64,0,2,,,,,,,,,0,,,79,110
54528,note_on,64,0,4,,,,,,,,,4,,,64,75
54528,note_on,64,0,3,,,,,,,,,2,,,71,110
54560,note_on,32,0,4,,,,,,,,,4,,,64,0
54560,note_on,32,0,3,,,,,,,,,2,,,71,0
54560,note_on,32,0,2,,,,,,,,,0,,,79,0
54622,note_on,94,0,1,,,,,,,,,11,,,76,0
54624,note_on,64,0,2,,,,,,,,,0,,,79,110
54624,note_on,2,0,1,,,,,,,,,11,,,79,110
54624,note_on,64,0,4,,,,,,,,,4,,,64,75
54624,note_on,64,0,3,,,,,,,,,2,,,71,110
54656,note_on,32,0,3,,,,,,,,,2,,,71,0
54656,note_on,32,0,4,,,,,,,,,4,,,64,0
54656,note_on,32,0,2,,,,,,,,,0,,,79,0
54718,note_on,94,0,1,,,,,,,,,11,,,79,0
54720,note_on,2,0,1,,,,,,,,,11,,,79,110
54720,note_on,64,0,2,,,,,,,,,0,,,79,110
54720,note_on,64,0,3,,,,,,,,,2,,,71,110
54720,note_on,64,0,4,,,,,,,,,4,,,64,75
54752,note_on,32,0,3,,,,,,,,,2,,,71,0
54752,note_on,32,0,4,,,,,,,,,4,,,64,0
54752,note_on,32,0,2,,,,,,,,,0,,,79,0
54814,note_on,94,0,1,,,,,,,,,11,,,79,0
54816,note_on,2,0,1,,,,,,,,,11,,,76,110
54816,note_on,64,0,4,,,,,,,,,4,,,64,75
54816,note_on,64,0,3,,,,,,,,,2,,,71,110
54816,note_on,64,0,2,,,,,,,,,0,,,79,110
54848,note_on,32,0,3,,,,,,,,,2,,,71,0
54848,note_on,32,0,4,,,,,,,,,4,,,64,0
54848,note_on,32,0,2,,,,,,,,,0,,,79,0
54862,note_on,46,0,1,,,,,,,,,11,,,76,0
54864,note_on,2,0,1,,,,,,,,,11,,,71,110
54910,note_on,46,0,1,,,,,,,,,11,,,71,0
54912,note_on,64,0,2,,,,,,,,,0,,,79,110
54912,note_on,64,0,4,,,,,,,,,4,,,64,75
54912,note_on,2,0,1,,,,,,,,,11,,,76,110
54912,note_on,64,0,3,,,,,,,,,2,,,71,110
54944,note_on,32,0,4,,,,,,,,,4,,,64,0
54944,note_on,32,0,3,,,,,,,,,2,,,71,0
54944,note_on,32,0,2,,,,,,,,,0,,,79,0
54958,note_on,46,0,1,,,,,,,,,11,,,76,0
54960,note_on,2,0,1,,,,,,,,,11,,,71,110
55006,note_on,46,0,1,,,,,,,,,11,,,71,0
55008,note_on,64,0,4,,,,,,,,,4,,,64,75
55008,note_on,2,0,1,,,,,,,,,11,,,71,110
55008,note_on,64,0,2,,,,,,,,,0,,,79,110
55008,note_on,64,0,3,,,,,,,,,2,,,71,110
55040,note_on,32,0,4,,,,,,,,,4,,,64,0
55040,note_on,32,0,2,,,,,,,,,0,,,79,0
55040,note_on,32,0,3,,,,,,,,,2,,,71,0
55102,note_on,94,0,1,,,,,,,,,11,,,71,0
55104,note_on,64,0,2,,,,,,,,,0,,,79,110
55104,note_on,64,0,3,,,,,,,,,2,,,71,110
55104,note_on,2,0,1,,,,,,,,,11,,,76,110
55104,note_on,64,0,4,,,,,,,,,4,,,64,75
55136,note_on,32,0,3,,,,,,,,,2,,,71,0
55136,note_on,32,0,2,,,,,,,,,0,,,79,0
55136,note_on,32,0,4,,,,,,,,,4,,,64,0
55198,note_on,94,0,1,,,,,,,,,11,,,76,0
55200,note_on,64,0,4,,,,,,,,,4,,,64,75
55200,note_on,64,0,2,,,,,,,,,0,,,79,110
55200,note_on,64,0,3,,,,,,,,,2,,,71,110
55200,note_on,2,0,1,,,,,,,,,11,,,79,110
55232,note_on,32,0,4,,,,,,,,,4,,,64,0
55232,note_on,32,0,3,,,,,,,,,2,,,71,0
55232,note_on,32,0,2,,,,,,,,,0,,,79,0
55294,note_on,94,0,1,,,,,,,,,11,,,79,0
55296,note_on,64,0,3,,,,,,,,,2,,,73,110
55296,note_on,64,0,4,,,,,,,,,4,,,69,75
55296,note_on,2,0,1,,,,,,,,,11,,,79,110
55296,note_on,64,0,2,,,,,,,,,0,,,79,110
55328,note_on,32,0,4,,,,,,,,,4,,,69,0
55328,note_on,32,0,3,,,,,,,,,2,,,73,0
55328,note_on,32,0,2,,,,,,,,,0,,,79,0
55390,note_on,94,0,1,,,,,,,,,11,,,79,0
55392,note_on,64,0,3,,,,,,,,,2,,,73,110
55392,note_on,64,0,2,,,,,,,,,0,,,79,110
55392,note_on,64,0,4,,,,,,,,,4,,,69,75
55392,note_on,2,0,1,,,,,,,,,11,,,73,110
55424,note_on,32,0,3,,,,,,,,,2,,,73,0
55424,note_on,32,0,2,,,,,,,,,0,,,79,0
55424,note_on,32,0,4,,,,,,,,,4,,,69,0
55438,note_on,46,0,1,,,,,,,,,11,,,73,0
55440,note_on,2,0,1,,,,,,,,,11,,,69,110
55486,note_on,46,0,1,,,,,,,,,11,,,69,0
55488,note_on,64,0,2,,,,,,,,,0,,,79,110
55488,note_on,64,0,4,,,,,,,,,4,,,69,75
55488,note_on,64,0,3,,,,,,,,,2,,,73,110
55488,note_on,2,0,1,,,,,,,,,11,,,73,110
55520,note_on,32,0,3,,,,,,,,,2,,,73,0
55520,note_on,32,0,4,,,,,,,,,4,,,69,0
55520,note_on,32,0,2,,,,,,,,,0,,,79,0
55534,note_on,46,0,1,,,,,,,,,11,,,73,0
55536,note_on,2,0,1,,,,,,,,,11,,,69,110
55582,note_on,46,0,1,,,,,,,,,11,,,69,0
55584,note_on,64,0,3,,,,,,,,,2,,,73,110
55584,note_on,64,0,2,,,,,,,,,0,,,79,110
55584,note_on,2,0,1,,,,,,,,,11,,,69,110
55584,note_on,64,0,4,,,,,,,,,4,,,69,75
55616,note_on,32,0,3,,,,,,,,,2,,,73,0
55616,note_on,32,0,4,,,,,,,,,4,,,69,0
55616,note_on,32,0,2,,,,,,,,,0,,,79,0
55678,note_on,94,0,1,,,,,,,,,11,,,69,0
55680,note_on,2,0,1,,,,,,,,,11,,,73,110
55680,note_on,64,0,4,,,,,,,,,4,,,69,75
55680,note_on,64,0,3,,,,,,,,,2,,,73,110
55680,note_on,64,0,2,,,,,,,,,0,,,79,110
55712,note_on,32,0,4,,,,,,,,,4,,,69,0
55712,note_on,32,0,3,,,,,,,,,2,,,73,0
55712,note_on,32,0,2,,,,,,,,,0,,,79,0
55774,note_on,94,0,1,,,,,,,,,11,,,73,0
55776,note_on,64,0,3,,,,,,,,,2,,,73,110
55776,note_on,2,0,1,,,,,,,,,11,,,79,110
55776,note_on,64,0,4,,,,,,,,,4,,,69,75
55776,note_on,64,0,2,,,,,,,,,0,,,79,110
55808,note_on,32,0,4,,,,,,,,,4,,,69,0
55808,note_on,32,0,2,,,,,,,,,0,,,79,0
55808,note_on,32,0,3,,,,,,,,,2,,,73,0
55870,note_on,94,0,1,,,,,,,,,11,,,79,0
55872,note_on,64,0,3,,,,,,,,,2,,,73,110
55872,note_on,64,0,2,,,,,,,,,0,,,79,110
55872,note_on,2,0,1,,,,,,,,,11,,,79,110
55872,note_on,64,0,4,,,,,,,,,4,,,69,75
55904,note_on,32,0,3,,,,,,,,,2,,,73,0
55904,note_on,32,0,4,,,,,,,,,4,,,69,0
55904,note_on,32,0,2,,,,,,,,,0,,,79,0
55966,note_on,94,0,1,,,,,,,,,11,,,79,0
55968,note_on,64,0,3,,,,,,,,,2,,,73,110
55968,note_on,64,0,2,,,,,,,,,0,,,79,110
55968,note_on,64,0,4,,,,,,,,,4,,,69,75
55968,note_on,2,0,1,,,,,,,,,11,,,73,110
56000,note_on,32,0,4,,,,,,,,,4,,,69,0
56000,note_on,32,0,3,,,,,,,,,2,,,73,0
56000,note_on,32,0,2,,,,,,,,,0,,,79,0
56014,note_on,46,0,1,,,,,,,,,11,,,73,0
56016,note_on,2,0,1,,,,,,,,,11,,,69,110
56062,note_on,46,0,1,,,,,,,,,11,,,69,0
56064,note_on,2,0,1,,,,,,,,,11,,,73,110
56064,note_on,64,0,2,,,,,,,,,0,,,79,110
56064,note_on,64,0,3,,,,,,,,,2,,,73,110
56064,note_on,64,0,4,,,,,,,,,4,,,69,75
56096,note_on,32,0,2,,,,,,,,,0,,,79,0
56096,note_on,32,0,3,,,,,,,,,2,,,73,0
56096,note_on,32,0,4,,,,,,,,,4,,,69,0
56110,note_on,46,0,1,,,,,,,,,11,,,73,0
56112,note_on,2,0,1,,,,,,,,,11,,,69,110
56158,note_on,46,0,1,,,,,,,,,11,,,69,0
56160,note_on,64,0,2,,,,,,,,,0,,,79,110
56160,note_on,64,0,3,,,,,,,,,2,,,73,110
56160,note_on,64,0,4,,,,,,,,,4,,,69,75
56160,note_on,2,0,1,,,,,,,,,11,,,69,110
56192,note_on,32,0,4,,,,,,,,,4,,,69,0
56192,note_on,32,0,3,,,,,,,,,2,,,73,0
56192,note_on,32,0,2,,,,,,,,,0,,,79,0
56254,note_on,94,0,1,,,,,,,,,11,,,69,0
56256,note_on,64,0,3,,,,,,,,,2,,,73,110
56256,note_on,2,0,1,,,,,,,,,11,,,73,110
56256,note_on,64,0,2,,,,,,,,,0,,,79,110
56256,note_on,64,0,4,,,,,,,,,4,,,69,75
56288,note_on,32,0,2,,,,,,,,,0,,,79,0
56288,note_on,32,0,4,,,,,,,,,4,,,69,0
56288,note_on,32,0,3,,,,,,,,,2,,,73,0
56350,note_on,94,0,1,,,,,,,,,11,,,73,0
56352,note_on,64,0,2,,,,,,,,,0,,,79,110
56352,note_on,64,0,4,,,,,,,,,4,,,69,75
56352,note_on,64,0,3,,,,,,,,,2,,,73,110
56352,note_on,2,0,1,,,,,,,,,11,,,79,110
56384,note_on,32,0,2,,,,,,,,,0,,,79,0
56384,note_on,32,0,4,,,,,,,,,4,,,69,0
56384,note_on,32,0,3,,,,,,,,,2,,,73,0
56446,note_on,94,0,1,,,,,,,,,11,,,79,0
56448,note_on,64,0,2,,,,,,,,,0,,,78,110
56448,note_on,64,0,4,,,,,,,,,4,,,62,75
56448,note_on,2,0,1,,,,,,,,,11,,,78,110
56448,note_on,64,0,3,,,,,,,,,2,,,69,110
56480,note_on,32,0,4,,,,,,,,,4,,,62,0
56480,note_on,32,0,2,,,,,,,,,0,,,78,0
56480,note_on,32,0,3,,,,,,,,,2,,,69,0
56542,note_on,94,0,1,,,,,,,,,11,,,78,0
56544,note_on,64,0,4,,,,,,,,,4,,,62,75
56544,note_on,64,0,2,,,,,,,,,0,,,78,110
56544,note_on,64,0,3,,,,,,,,,2,,,69,110
56544,note_on,2,0,1,,,,,,,,,11,,,74,110
56576,note_on,32,0,4,,,,,,,,,4,,,62,0
56576,note_on,32,0,3,,,,,,,,,2,,,69,0
56576,note_on,32,0,2,,,,,,,,,0,,,78,0
56590,note_on,46,0,1,,,,,,,,,11,,,74,0
56592,note_on,2,0,1,,,,,,,,,11,,,69,110
56638,note_on,46,0,1,,,,,,,,,11,,,69,0
56640,note_on,64,0,4,,,,,,,,,4,,,62,75
56640,note_on,64,0,3,,,,,,,,,2,,,69,110
56640,note_on,2,0,1,,,,,,,,,11,,,74,110
56640,note_on,64,0,2,,,,,,,,,0,,,78,110
56672,note_on,32,0,2,,,,,,,,,0,,,78,0
56672,note_on,32,0,4,,,,,,,,,4,,,62,0
56672,note_on,32,0,3,,,,,,,,,2,,,69,0
56686,note_on,46,0,1,,,,,,,,,11,,,74,0
56688,note_on,2,0,1,,,,,,,,,11,,,69,110
56734,note_on,46,0,1,,,,,,,,,11,,,69,0
56736,note_on,2,0,1,,,,,,,,,11,,,69,110
56736,note_on,64,0,3,,,,,,,,,2,,,69,110
56736,note_on,64,0,4,,,,,,,,,4,,,62,75
56736,note_on,64,0,2,,,,,,,,,0,,,78,110
56768,note_on,32,0,3,,,,,,,,,2,,,69,0
56768,note_on,32,0,4,,,,,,,,,4,,,62,0
56768,note_on,32,0,2,,,,,,,,,0,,,78,0
56830,note_on,94,0,1,,,,,,,,,11,,,69,0
56832,note_on,64,0,3,,,,,,,,,2,,,69,110
56832,note_on,64,0,2,,,,,,,,,0,,,78,110
56832,note_on,2,0,1,,,,,,,,,11,,,74,110
56832,note_on,64,0,4,,,,,,,,,4,,,62,75
56864,note_on,32,0,3,,,,,,,,,2,,,69,0
56864,note_on,32,0,4,,,,,,,,,4,,,62,0
56864,note_on,32,0,2,,,,,,,,,0,,,78,0
56926,note_on,94,0,1,,,,,,,,,11,,,74,0
56928,note_on,2,0,1,,,,,,,,,11,,,78,110
56928,note_on,64,0,4,,,,,,,,,4,,,62,75
56928,note_on,64,0,2,,,,,,,,,0,,,78,110
56928,note_on,64,0,3,,,,,,,,,2,,,69,110
56960,note_on,32,0,2,,,,,,,,,0,,,78,0
56960,note_on,32,0,3,,,,,,,,,2,,,69,0
56960,note_on,32,0,4,,,,,,,,,4,,,62,0
57022,note_on,94,0,1,,,,,,,,,11,,,78,0
57024,note_on,2,0,1,,,,,,,,,11,,,78,110
57024,note_on,64,0,3,,,,,,,,,2,,,69,110
57024,note_on,64,0,4,,,,,,,,,4,,,62,75
57024,note_on,64,0,2,,,,,,,,,0,,,78,110
57056,note_on,32,0,2,,,,,,,,,0,,,78,0
57056,note_on,32,0,3,,,,,,,,,2,,,69,0
57056,note_on,32,0,4,,,,,,,,,4,,,62,0
57118,note_on,94,0,1,,,,,,,,,11,,,78,0
57120,note_on,64,0,2,,,,,,,,,0,,,78,110
57120,note_on,64,0,4,,,,,,,,,4,,,62,75
57120,note_on,2,0,1,,,,,,,,,11,,,74,110
57120,note_on,64,0,3,,,,,,,,,2,,,69,110
57152,note_on,32,0,2,,,,,,,,,0,,,78,0
57152,note_on,32,0,4,,,,,,,,,4,,,62,0
57152,note_on,32,0,3,,,,,,,,,2,,,69,0
57166,note_on,46,0,1,,,,,,,,,11,,,74,0
57168,note_on,2,0,1,,,,,,,,,11,,,69,110
57214,note_on,46,0,1,,,,,,,,,11,,,69,0
57216,note_on,64,0,3,,,,,,,,,2,,,69,110
57216,note_on,64,0,4,,,,,,,,,4,,,62,75
57216,note_on,2,0,1,,,,,,,,,11,,,74,110
57216,note_on,64,0,2,,,,,,,,,0,,,78,110
57248,note_on,32,0,3,,,,,,,,,2,,,69,0
57248,note_on,32,0,2,,,,,,,,,0,,,78,0
57248,note_on,32,0,4,,,,,,,,,4,,,62,0
57262,note_on,46,0,1,,,,,,,,,11,,,74,0
57264,note_on,2,0,1,,,,,,,,,11,,,69,110
57310,note_on,46,0,1,,,,,,,,,11,,,69,0
57312,note_on,64,0,4,,,,,,,,,4,,,62,75
57312,note_on,64,0,2,,,,,,,,,0,,,78,110
57312,note_on,64,0,3,,,,,,,,,2,,,69,110
57312,note_on,2,0,1,,,,,,,,,11,,,69,110
57344,note_on,32,0,2,,,,,,,,,0,,,78,0
57344,note_on,32,0,3,,,,,,,,,2,,,69,0
57344,note_on,32,0,4,,,,,,,,,4,,,62,0
57406,note_on,94,0,1,,,,,,,,,11,,,69,0
57408,note_on,64,0,2,,,,,,,,,0,,,78,110
57408,note_on,64,0,4,,,,,,,,,4,,,62,75
57408,note_on,2,0,1,,,,,,,,,11,,,74,110
57408,note_on,64,0,3,,,,,,,,,2,,,69,110
57440,note_on,32,0,3,,,,,,,,,2,,,69,0
57440,note_on,32,0,2,,,,,,,,,0,,,78,0
57440,note_on,32,0,4,,,,,,,,,4,,,62,0
57502,note_on,94,0,1,,,,,,,,,11,,,74,0
57504,note_on,2,0,1,,,,,,,,,11,,,78,110
57504,note_on,64,0,4,,,,,,,,,4,,,62,75
57504,note_on,64,0,2,,,,,,,,,0,,,78,110
57504,note_on,64,0,3,,,,,,,,,2,,,69,110
57536,note_on,32,0,4,,,,,,,,,4,,,62,0
57536,note_on,32,0,2,,,,,,,,,0,,,78,0
57536,note_on,32,0,3,,,,,,,,,2,,,69,0
57598,note_on,94,0,1,,,,,,,,,11,,,78,0
57600,note_on,2,0,1,,,,,,,,,11,,,76,110
57600,note_on,64,0,3,,,,,,,,,2,,,70,110
57600,note_on,64,0,4,,,,,,,,,4,,,66,75
57600,note_on,64,0,2,,,,,,,,,0,,,76,110
57632,note_on,32,0,4,,,,,,,,,4,,,66,0
57632,note_on,32,0,2,,,,,,,,,0,,,76,0
57632,note_on,32,0,3,,,,,,,,,2,,,70,0
57694,note_on,94,0,1,,,,,,,,,11,,,76,0
57696,note_on,64,0,2,,,,,,,,,0,,,76,110
57696,note_on,64,0,4,,,,,,,,,4,,,66,75
57696,note_on,2,0,1,,,,,,,,,11,,,73,110
57696,note_on,64,0,3,,,,,,,,,2,,,70,110
57728,note_on,32,0,4,,,,,,,,,4,,,66,0
57728,note_on,32,0,2,,,,,,,,,0,,,76,0
57728,note_on,32,0,3,,,,,,,,,2,,,70,0
57742,note_on,46,0,1,,,,,,,,,11,,,73,0
57744,note_on,2,0,1,,,,,,,,,11,,,70,110
57790,note_on,46,0,1,,,,,,,,,11,,,70,0
57792,note_on,64,0,3,,,,,,,,,2,,,70,110
57792,note_on,2,0,1,,,,,,,,,11,,,73,110
57792,note_on,64,0,4,,,,,,,,,4,,,66,75
57792,note_on,64,0,2,,,,,,,,,0,,,76,110
57824,note_on,32,0,2,,,,,,,,,0,,,76,0
57824,note_on,32,0,3,,,,,,,,,2,,,70,0
57824,note_on,32,0,4,,,,,,,,,4,,,66,0
57838,note_on,46,0,1,,,,,,,,,11,,,73,0
57840,note_on,2,0,1,,,,,,,,,11,,,70,110
57886,note_on,46,0,1,,,,,,,,,11,,,70,0
57888,note_on,2,0,1,,,,,,,,,11,,,70,110
57888,note_on,64,0,4,,,,,,,,,4,,,66,75
57888,note_on,64,0,3,,,,,,,,,2,,,70,110
57888,note_on,64,0,2,,,,,,,,,0,,,76,110
57920,note_on,32,0,2,,,,,,,,,0,,,76,0
57920,note_on,32,0,3,,,,,,,,,2,,,70,0
57920,note_on,32,0,4,,,,,,,,,4,,,66,0
57982,note_on,94,0,1,,,,,,,,,11,,,70,0
57984,note_on,64,0,3,,,,,,,,,2,,,70,110
57984,note_on,64,0,2,,,,,,,,,0,,,76,110
57984,note_on,64,0,4,,,,,,,,,4,,,66,75
57984,note_on,2,0,1,,,,,,,,,11,,,73,110
58016,note_on,32,0,2,,,,,,,,,0,,,76,0
58016,note_on,32,0,4,,,,,,,,,4,,,66,0
58016,note_on,32,0,3,,,,,,,,,2,,,70,0
58078,note_on,94,0,1,,,,,,,,,11,,,73,0
58080,note_on,64,0,2,,,,,,,,,0,,,76,110
58080,note_on,64,0,3,,,,,,,,,2,,,70,110
58080,note_on,64,0,4,,,,,,,,,4,,,66,75
58080,note_on,2,0,1,,,,,,,,,11,,,76,110
58112,note_on,32,0,2,,,,,,,,,0,,,76,0
58112,note_on,32,0,4,,,,,,,,,4,,,66,0
58112,note_on,32,0,3,,,,,,,,,2,,,70,0
58174,note_on,94,0,1,,,,,,,,,11,,,76,0
58176,note_on,2,0,1,,,,,,,,,11,,,76,110
58176,note_on,64,0,2,,,,,,,,,0,,,76,110
58176,note_on,64,0,3,,,,,,,,,2,,,70,110
58176,note_on,64,0,4,,,,,,,,,4,,,66,75
58208,note_on,32,0,4,,,,,,,,,4,,,66,0
58208,note_on,32,0,3,,,,,,,,,2,,,70,0
58208,note_on,32,0,2,,,,,,,,,0,,,76,0
58270,note_on,94,0,1,,,,,,,,,11,,,76,0
58272,note_on,2,0,1,,,,,,,,,11,,,73,110
58272,note_on,64,0,2,,,,,,,,,0,,,76,110
58272,note_on,64,0,4,,,,,,,,,4,,,66,75
58272,note_on,64,0,3,,,,,,,,,2,,,70,110
58304,note_on,32,0,2,,,,,,,,,0,,,76,0
58304,note_on,32,0,3,,,,,,,,,2,,,70,0
58304,note_on,32,0,4,,,,,,,,,4,,,66,0
58318,note_on,46,0,1,,,,,,,,,11,,,73,0
58320,note_on,2,0,1,,,,,,,,,11,,,70,110
58366,note_on,46,0,1,,,,,,,,,11,,,70,0
58368,note_on,2,0,1,,,,,,,,,11,,,73,110
58368,note_on,64,0,4,,,,,,,,,4,,,66,75
58368,note_on,64,0,2,,,,,,,,,0,,,76,110
58368,note_on,64,0,3,,,,,,,,,2,,,70,110
58400,note_on,32,0,4,,,,,,,,,4,,,66,0
58400,note_on,32,0,3,,,,,,,,,2,,,70,0
58400,note_on,32,0,2,,,,,,,,,0,,,76,0
58414,note_on,46,0,1,,,,,,,,,11,,,73,0
58416,note_on,2,0,1,,,,,,,,,11,,,70,110
58462,note_on,46,0,1,,,,,,,,,11,,,70,0
58464,note_on,64,0,4,,,,,,,,,4,,,66,75
58464,note_on,64,0,3,,,,,,,,,2,,,70,110
58464,note_on,64,0,2,,,,,,,,,0,,,76,110
58464,note_on,2,0,1,,,,,,,,,11,,,70,110
58496,note_on,32,0,3,,,,,,,,,2,,,70,0
58496,note_on,32,0,4,,,,,,,,,4,,,66,0
58496,note_on,32,0,2,,,,,,,,,0,,,76,0
58558,note_on,94,0,1,,,,,,,,,11,,,70,0
58560,note_on,64,0,2,,,,,,,,,0,,,76,110
58560,note_on,64,0,3,,,,,,,,,2,,,70,110
58560,note_on,64,0,4,,,,,,,,,4,,,66,75
58560,note_on,2,0,1,,,,,,,,,11,,,73,110
58592,note_on,32,0,2,,,,,,,,,0,,,76,0
58592,note_on,32,0,3,,,,,,,,,2,,,70,0
58592,note_on,32,0,4,,,,,,,,,4,,,66,0
58654,note_on,94,0,1,,,,,,,,,11,,,73,0
58656,note_on,64,0,2,,,,,,,,,0,,,76,110
58656,note_on,2,0,1,,,,,,,,,11,,,76,110
58656,note_on,64,0,3,,,,,,,,,2,,,70,110
58656,note_on,64,0,4,,,,,,,,,4,,,66,75
58688,note_on,32,0,3,,,,,,,,,2,,,70,0
58688,note_on,32,0,4,,,,,,,,,4,,,66,0
58688,note_on,32,0,2,,,,,,,,,0,,,76,0
58750,note_on,94,0,1,,,,,,,,,11,,,76,0
58752,note_on,64,0,3,,,,,,,,,2,,,74,110
58752,note_on,2,0,1,,,,,,,,,11,,,78,110
58752,note_on,64,0,4,,,,,,,,,4,,,71,75
58752,note_on,64,0,2,,,,,,,,,0,,,78,110
58784,note_on,32,0,3,,,,,,,,,2,,,74,0
58784,note_on,32,0,2,,,,,,,,,0,,,78,0
58784,note_on,32,0,4,,,,,,,,,4,,,71,0
58846,note_on,94,0,1,,,,,,,,,11,,,78,0
58848,note_on,64,0,2,,,,,,,,,0,,,78,110
58848,note_on,2,0,1,,,,,,,,,11,,,74,110
58848,note_on,64,0,4,,,,,,,,,4,,,71,75
58848,note_on,64,0,3,,,,,,,,,2,,,74,110
58880,note_on,32,0,2,,,,,,,,,0,,,78,0
58880,note_on,32,0,4,,,,,,,,,4,,,71,0
58880,note_on,32,0,3,,,,,,,,,2,,,74,0
58894,note_on,46,0,1,,,,,,,,,11,,,74,0
58896,note_on,2,0,1,,,,,,,,,11,,,71,110
58942,note_on,46,0,1,,,,,,,,,11,,,71,0
58944,note_on,2,0,1,,,,,,,,,11,,,74,110
58944,note_on,64,0,4,,,,,,,,,4,,,71,75
58944,note_on,64,0,2,,,,,,,,,0,,,78,110
58944,note_on,64,0,3,,,,,,,,,2,,,74,110
58976,note_on,32,0,2,,,,,,,,,0,,,78,0
58976,note_on,32,0,3,,,,,,,,,2,,,74,0
58976,note_on,32,0,4,,,,,,,,,4,,,71,0
58990,note_on,46,0,1,,,,,,,,,11,,,74,0
58992,note_on,2,0,1,,,,,,,,,11,,,71,110
59038,note_on,46,0,1,,,,,,,,,11,,,71,0
59040,note_on,64,0,2,,,,,,,,,0,,,78,110
59040,note_on,64,0,4,,,,,,,,,4,,,71,75
59040,note_on,2,0,1,,,,,,,,,11,,,71,110
59040,note_on,64,0,3,,,,,,,,,2,,,74,110
59072,note_on,32,0,2,,,,,,,,,0,,,78,0
59072,note_on,32,0,4,,,,,,,,,4,,,71,0
59072,note_on,32,0,3,,,,,,,,,2,,,74,0
59134,note_on,94,0,1,,,,,,,,,11,,,71,0
59136,note_on,64,0,3,,,,,,,,,2,,,74,110
59136,note_on,64,0,2,,,,,,,,,0,,,78,110
59136,note_on,64,0,4,,,,,,,,,4,,,71,75
59136,note_on,2,0,1,,,,,,,,,11,,,74,110
59168,note_on,32,0,3,,,,,,,,,2,,,74,0
59168,note_on,32,0,2,,,,,,,,,0,,,78,0
59168,note_on,32,0,4,,,,,,,,,4,,,71,0
59230,note_on,94,0,1,,,,,,,,,11,,,74,0
59232,note_on,64,0,3,,,,,,,,,2,,,74,110
59232,note_on,64,0,4,,,,,,,,,4,,,71,75
59232,note_on,2,0,1,,,,,,,,,11,,,78,110
59232,note_on,64,0,2,,,,,,,,,0,,,78,110
59264,note_on,32,0,3,,,,,,,,,2,,,74,0
59264,note_on,32,0,4,,,,,,,,,4,,,71,0
59264,note_on,32,0,2,,,,,,,,,0,,,78,0
59326,note_on,94,0,1,,,,,,,,,11,,,78,0
59328,note_on,2,0,1,,,,,,,,,11,,,78,110
59328,note_on,64,0,2,,,,,,,,,0,,,78,110
59328,note_on,64,0,4,,,,,,,,,4,,,71,75
59328,note_on,64,0,3,,,,,,,,,2,,,74,110
59360,note_on,32,0,2,,,,,,,,,0,,,78,0
59360,note_on,32,0,4,,,,,,,,,4,,,71,0
59360,note_on,32,0,3,,,,,,,,,2,,,74,0
59422,note_on,94,0,1,,,,,,,,,11,,,78,0
59424,note_on,64,0,4,,,,,,,,,4,,,71,75
59424,note_on,2,0,1,,,,,,,,,11,,,74,110
59424,note_on,64,0,3,,,,,,,,,2,,,74,110
59424,note_on,64,0,2,,,,,,,,,0,,,78,110
59456,note_on,32,0,3,,,,,,,,,2,,,74,0
59456,note_on,32,0,4,,,,,,,,,4,,,71,0
59456,note_on,32,0,2,,,,,,,,,0,,,78,0
59470,note_on,46,0,1,,,,,,,,,11,,,74,0
59472,note_on,2,0,1,,,,,,,,,11,,,71,110
59518,note_on,46,0,1,,,,,,,,,11,,,71,0
59520,note_on,2,0,1,,,,,,,,,11,,,74,110
59520,note_on,64,0,3,,,,,,,,,2,,,74,110
59520,note_on,64,0,2,,,,,,,,,0,,,78,110
59520,note_on,64,0,4,,,,,,,,,4,,,71,75
59552,note_on,32,0,3,,,,,,,,,2,,,74,0
59552,note_on,32,0,2,,,,,,,,,0,,,78,0
59552,note_on,32,0,4,,,,,,,,,4,,,71,0
59566,note_on,46,0,1,,,,,,,,,11,,,74,0
59568,note_on,2,0,1,,,,,,,,,11,,,71,110
59614,note_on,46,0,1,,,,,,,,,11,,,71,0
59616,note_on,64,0,3,,,,,,,,,2,,,74,110
59616,note_on,64,0,4,,,,,,,,,4,,,71,75
59616,note_on,64,0,2,,,,,,,,,0,,,78,110
59616,note_on,2,0,1,,,,,,,,,11,,,71,110
59648,note_on,32,0,4,,,,,,,,,4,,,71,0
59648,note_on,32,0,3,,,,,,,,,2,,,74,0
59648,note_on,32,0,2,,,,,,,,,0,,,78,0
59710,note_on,94,0,1,,,,,,,,,11,,,71,0
59712,note_on,64,0,3,,,,,,,,,2,,,74,110
59712,note_on,2,0,1,,,,,,,,,11,,,74,110
59712,note_on,64,0,4,,,,,,,,,4,,,71,75
59712,note_on,64,0,2,,,,,,,,,0,,,78,110
59744,note_on,32,0,2,,,,,,,,,0,,,78,0
59744,note_on,32,0,4,,,,,,,,,4,,,71,0
59744,note_on,32,0,3,,,,,,,,,2,,,74,0
59806,note_on,94,0,1,,,,,,,,,11,,,74,0
59808,note_on,64,0,2,,,,,,,,,0,,,78,110
59808,note_on,64,0,4,,,,,,,,,4,,,71,75
59808,note_on,64,0,3,,,,,,,,,2,,,74,110
59808,note_on,2,0,1,,,,,,,,,11,,,78,110
59840,note_on,32,0,2,,,,,,,,,0,,,78,0
59840,note_on,32,0,3,,,,,,,,,2,,,74,0
59840,note_on,32,0,4,,,,,,,,,4,,,71,0
59902,note_on,94,0,1,,,,,,,,,11,,,78,0
59904,note_on,64,0,3,,,,,,,,,2,,,75,110
59904,note_on,2,0,1,,,,,,,,,11,,,80,110
59904,note_on,64,0,4,,,,,,,,,4,,,72,75
59904,note_on,64,0,2,,,,,,,,,0,,,80,110
59936,note_on,32,0,3,,,,,,,,,2,,,75,0
59936,note_on,32,0,2,,,,,,,,,0,,,80,0
59936,note_on,32,0,4,,,,,,,,,4,,,72,0
59998,note_on,94,0,1,,,,,,,,,11,,,80,0
60000,note_on,64,0,3,,,,,,,,,2,,,75,110
60000,note_on,64,0,2,,,,,,,,,0,,,80,110
60000,note_on,2,0,1,,,,,,,,,11,,,75,110
60000,note_on,64,0,4,,,,,,,,,4,,,72,75
60032,note_on,32,0,4,,,,,,,,,4,,,72,0
60032,note_on,32,0,2,,,,,,,,,0,,,80,0
60032,note_on,32,0,3,,,,,,,,,2,,,75,0
60046,note_on,46,0,1,,,,,,,,,11,,,75,0
60048,note_on,2,0,1,,,,,,,,,11,,,72,110
60094,note_on,46,0,1,,,,,,,,,11,,,72,0
60096,note_on,64,0,2,,,,,,,,,0,,,80,110
60096,note_on,2,0,1,,,,,,,,,11,,,75,110
60096,note_on,64,0,3,,,,,,,,,2,,,75,110
60096,note_on,64,0,4,,,,,,,,,4,,,72,75
60128,note_on,32,0,4,,,,,,,,,4,,,72,0
60128,note_on,32,0,2,,,,,,,,,0,,,80,0
60128,note_on,32,0,3,,,,,,,,,2,,,75,0
60142,note_on,46,0,1,,,,,,,,,11,,,75,0
60144,note_on,2,0,1,,,,,,,,,11,,,72,110
60190,note_on,46,0,1,,,,,,,,,11,,,72,0
60192,note_on,64,0,3,,,,,,,,,2,,,75,110
60192,note_on,2,0,1,,,,,,,,,11,,,72,110
60192,note_on,64,0,2,,,,,,,,,0,,,80,110
60192,note_on,64,0,4,,,,,,,,,4,,,72,75
60224,note_on,32,0,2,,,,,,,,,0,,,80,0
60224,note_on,32,0,3,,,,,,,,,2,,,75,0
60224,note_on,32,0,4,,,,,,,,,4,,,72,0
60286,note_on,94,0,1,,,,,,,,,11,,,72,0
60288,note_on,64,0,2,,,,,,,,,0,,,80,110
60288,note_on,64,0,4,,,,,,,,,4,,,72,75
60288,note_on,64,0,3,,,,,,,,,2,,,75,110
60288,note_on,2,0,1,,,,,,,,,11,,,75,110
60320,note_on,32,0,3,,,,,,,,,2,,,75,0
60320,note_on,32,0,4,,,,,,,,,4,,,72,0
60320,note_on,32,0,2,,,,,,,,,0,,,80,0
60382,note_on,94,0,1,,,,,,,,,11,,,75,0
60384,note_on,64,0,3,,,,,,,,,2,,,75,110
60384,note_on,64,0,4,,,,,,,,,4,,,72,75
60384,note_on,2,0,1,,,,,,,,,11,,,80,110
60384,note_on,64,0,2,,,,,,,,,0,,,80,110
60416,note_on,32,0,3,,,,,,,,,2,,,75,0
60416,note_on,32,0,2,,,,,,,,,0,,,80,0
60416,note_on,32,0,4,,,,,,,,,4,,,72,0
60478,note_on,94,0,1,,,,,,,,,11,,,80,0
60480,note_on,64,0,4,,,,,,,,,4,,,72,75
60480,note_on,2,0,1,,,,,,,,,11,,,80,110
60480,note_on,64,0,2,,,,,,,,,0,,,80,110
60480,note_on,64,0,3,,,,,,,,,2,,,75,110
60512,note_on,32,0,3,,,,,,,,,2,,,75,0
60512,note_on,32,0,4,,,,,,,,,4,,,72,0
60512,note_on,32,0,2,,,,,,,,,0,,,80,0
60574,note_on,94,0,1,,,,,,,,,11,,,80,0
60576,note_on,64,0,4,,,,,,,,,4,,,72,75
60576,note_on,64,0,3,,,,,,,,,2,,,75,110
60576,note_on,2,0,1,,,,,,,,,11,,,75,110
60576,note_on,64,0,2,,,,,,,,,0,,,80,110
60608,note_on,32,0,4,,,,,,,,,4,,,72,0
60608,note_on,32,0,3,,,,,,,,,2,,,75,0
60608,note_on,32,0,2,,,,,,,,,0,,,80,0
60622,note_on,46,0,1,,,,,,,,,11,,,75,0
60624,note_on,2,0,1,,,,,,,,,11,,,72,110
60670,note_on,46,0,1,,,,,,,,,11,,,72,0
60672,note_on,64,0,3,,,,,,,,,2,,,75,110
60672,note_on,64,0,2,,,,,,,,,0,,,80,110
60672,note_on,2,0,1,,,,,,,,,11,,,75,110
60672,note_on,64,0,4,,,,,,,,,4,,,72,75
60704,note_on,32,0,3,,,,,,,,,2,,,75,0
60704,note_on,32,0,4,,,,,,,,,4,,,72,0
60704,note_on,32,0,2,,,,,,,,,0,,,80,0
60718,note_on,46,0,1,,,,,,,,,11,,,75,0
60720,note_on,2,0,1,,,,,,,,,11,,,72,110
60766,note_on,46,0,1,,,,,,,,,11,,,72,0
60768,note_on,64,0,4,,,,,,,,,4,,,72,75
60768,note_on,64,0,2,,,,,,,,,0,,,80,110
60768,note_on,64,0,3,,,,,,,,,2,,,75,110
60768,note_on,2,0,1,,,,,,,,,11,,,72,110
60800,note_on,32,0,2,,,,,,,,,0,,,80,0
60800,note_on,32,0,4,,,,,,,,,4,,,72,0
60800,note_on,32,0,3,,,,,,,,,2,,,75,0
60862,note_on,94,0,1,,,,,,,,,11,,,72,0
60864,note_on,2,0,1,,,,,,,,,11,,,75,110
60864,note_on,64,0,3,,,,,,,,,2,,,75,110
60864,note_on,64,0,2,,,,,,,,,0,,,80,110
60864,note_on,64,0,4,,,,,,,,,4,,,72,75
60896,note_on,32,0,3,,,,,,,,,2,,,75,0
60896,note_on,32,0,2,,,,,,,,,0,,,80,0
60896,note_on,32,0,4,,,,,,,,,4,,,72,0
60958,note_on,94,0,1,,,,,,,,,11,,,75,0
60960,note_on,64,0,4,,,,,,,,,4,,,72,75
60960,note_on,2,0,1,,,,,,,,,11,,,80,110
60960,note_on,64,0,2,,,,,,,,,0,,,80,110
60960,note_on,64,0,3,,,,,,,,,2,,,75,110
60992,note_on,32,0,4,,,,,,,,,4,,,72,0
60992,note_on,32,0,2,,,,,,,,,0,,,80,0
60992,note_on,32,0,3,,,,,,,,,2,,,75,0
61054,note_on,94,0,1,,,,,,,,,11,,,80,0
61056,note_on,2,0,1,,,,,,,,,11,,,80,110
61056,note_on,64,0,4,,,,,,,,,4,,,73,75
61056,note_on,64,0,2,,,,,,,,,0,,,80,110
61056,note_on,64,0,3,,,,,,,,,2,,,76,110
61088,note_on,32,0,2,,,,,,,,,0,,,80,0
61088,note_on,32,0,4,,,,,,,,,4,,,73,0
61088,note_on,32,0,3,,,,,,,,,2,,,76,0
61150,note_on,94,0,1,,,,,,,,,11,,,80,0
61152,note_on,64,0,3,,,,,,,,,2,,,76,110
61152,note_on,64,0,2,,,,,,,,,0,,,80,110
61152,note_on,64,0,4,,,,,,,,,4,,,73,75
61152,note_on,2,0,1,,,,,,,,,11,,,76,110
61184,note_on,32,0,2,,,,,,,,,0,,,80,0
61184,note_on,32,0,3,,,,,,,,,2,,,76,0
61184,note_on,32,0,4,,,,,,,,,4,,,73,0
61198,note_on,46,0,1,,,,,,,,,11,,,76,0
61200,note_on,2,0,1,,,,,,,,,11,,,73,110
61246,note_on,46,0,1,,,,,,,,,11,,,73,0
61248,note_on,64,0,2,,,,,,,,,0,,,80,110
61248,note_on,2,0,1,,,,,,,,,11,,,76,110
61248,note_on,64,0,4,,,,,,,,,4,,,73,75
61248,note_on,64,0,3,,,,,,,,,2,,,76,110
61280,note_on,32,0,2,,,,,,,,,0,,,80,0
61280,note_on,32,0,3,,,,,,,,,2,,,76,0
61280,note_on,32,0,4,,,,,,,,,4,,,73,0
61294,note_on,46,0,1,,,,,,,,,11,,,76,0
61296,note_on,2,0,1,,,,,,,,,11,,,73,110
61342,note_on,46,0,1,,,,,,,,,11,,,73,0
61344,note_on,64,0,3,,,,,,,,,2,,,76,110
61344,note_on,2,0,1,,,,,,,,,11,,,73,110
61344,note_on,64,0,2,,,,,,,,,0,,,80,110
61344,note_on,64,0,4,,,,,,,,,4,,,73,75
61376,note_on,32,0,4,,,,,,,,,4,,,73,0
61376,note_on,32,0,2,,,,,,,,,0,,,80,0
61376,note_on,32,0,3,,,,,,,,,2,,,76,0
61438,note_on,94,0,1,,,,,,,,,11,,,73,0
61440,note_on,64,0,2,,,,,,,,,0,,,80,110
61440,note_on,64,0,4,,,,,,,,,4,,,73,75
61440,note_on,64,0,3,,,,,,,,,2,,,76,110
61440,note_on,2,0,1,,,,,,,,,11,,,76,110
61472,note_on,32,0,2,,,,,,,,,0,,,80,0
61472,note_on,32,0,3,,,,,,,,,2,,,76,0
61472,note_on,32,0,4,,,,,,,,,4,,,73,0
61534,note_on,94,0,1,,,,,,,,,11,,,76,0
61536,note_on,2,0,1,,,,,,,,,11,,,80,110
61536,note_on,64,0,4,,,,,,,,,4,,,73,75
61536,note_on,64,0,2,,,,,,,,,0,,,80,110
61536,note_on,64,0,3,,,,,,,,,2,,,76,110
61568,note_on,32,0,4,,,,,,,,,4,,,73,0
61568,note_on,32,0,3,,,,,,,,,2,,,76,0
61568,note_on,32,0,2,,,,,,,,,0,,,80,0
61630,note_on,94,0,1,,,,,,,,,11,,,80,0
61632,note_on,2,0,1,,,,,,,,,11,,,80,110
61632,note_on,64,0,3,,,,,,,,,2,,,76,110
61632,note_on,64,0,4,,,,,,,,,4,,,73,75
61632,note_on,64,0,2,,,,,,,,,0,,,80,110
61664,note_on,32,0,4,,,,,,,,,4,,,73,0
61664,note_on,32,0,3,,,,,,,,,2,,,76,0
61664,note_on,32,0,2,,,,,,,,,0,,,80,0
61726,note_on,94,0,1,,,,,,,,,11,,,80,0
61728,note_on,2,0,1,,,,,,,,,11,,,76,110
61728,note_on,64,0,3,,,,,,,,,2,,,76,110
61728,note_on,64,0,4,,,,,,,,,4,,,73,75
61728,note_on,64,0,2,,,,,,,,,0,,,80,110
61760,note_on,32,0,3,,,,,,,,,2,,,76,0
61760,note_on,32,0,4,,,,,,,,,4,,,73,0
61760,note_on,32,0,2,,,,,,,,,0,,,80,0
61774,note_on,46,0,1,,,,,,,,,11,,,76,0
61776,note_on,2,0,1,,,,,,,,,11,,,73,110
61822,note_on,46,0,1,,,,,,,,,11,,,73,0
61824,note_on,2,0,1,,,,,,,,,11,,,76,110
61824,note_on,64,0,2,,,,,,,,,0,,,80,110
61824,note_on,64,0,3,,,,,,,,,2,,,76,110
61824,note_on,64,0,4,,,,,,,,,4,,,73,75
61856,note_on,32,0,2,,,,,,,,,0,,,80,0
61856,note_on,32,0,4,,,,,,,,,4,,,73,0
61856,note_on,32,0,3,,,,,,,,,2,,,76,0
61870,note_on,46,0,1,,,,,,,,,11,,,76,0
61872,note_on,2,0,1,,,,,,,,,11,,,73,110
61918,note_on,46,0,1,,,,,,,,,11,,,73,0
61920,note_on,64,0,4,,,,,,,,,4,,,73,75
61920,note_on,64,0,3,,,,,,,,,2,,,76,110
61920,note_on,2,0,1,,,,,,,,,11,,,73,110
61920,note_on,64,0,2,,,,,,,,,0,,,80,110
61952,note_on,32,0,3,,,,,,,,,2,,,76,0
61952,note_on,32,0,4,,,,,,,,,4,,,73,0
61952,note_on,32,0,2,,,,,,,,,0,,,80,0
62014,note_on,94,0,1,,,,,,,,,11,,,73,0
62016,note_on,64,0,4,,,,,,,,,4,,,73,75
62016,note_on,64,0,2,,,,,,,,,0,,,80,110
62016,note_on,64,0,3,,,,,,,,,2,,,76,110
62016,note_on,2,0,1,,,,,,,,,11,,,76,110
62048,note_on,32,0,3,,,,,,,,,2,,,76,0
62048,note_on,32,0,4,,,,,,,,,4,,,73,0
62048,note_on,32,0,2,,,,,,,,,0,,,80,0
62110,note_on,94,0,1,,,,,,,,,11,,,76,0
62112,note_on,64,0,2,,,,,,,,,0,,,80,110
62112,note_on,2,0,1,,,,,,,,,11,,,80,110
62112,note_on,64,0,4,,,,,,,,,4,,,73,75
62112,note_on,64,0,3,,,,,,,,,2,,,76,110
62144,note_on,32,0,3,,,,,,,,,2,,,76,0
62144,note_on,32,0,2,,,,,,,,,0,,,80,0
62144,note_on,32,0,4,,,,,,,,,4,,,73,0
62206,note_on,94,0,1,,,,,,,,,11,,,80,0
62208,note_on,64,0,4,,,,,,,,,4,,,73,75
62208,note_on,64,0,2,,,,,,,,,0,,,80,110
62208,note_on,2,0,1,,,,,,,,,11,,,80,110
62208,note_on,64,0,3,,,,,,,,,2,,,77,110
62240,note_on,32,0,3,,,,,,,,,2,,,77,0
62240,note_on,32,0,2,,,,,,,,,0,,,80,0
62240,note_on,32,0,4,,,,,,,,,4,,,73,0
62302,note_on,94,0,1,,,,,,,,,11,,,80,0
62304,note_on,2,0,1,,,,,,,,,11,,,77,110
62304,note_on,64,0,3,,,,,,,,,2,,,77,110
62304,note_on,64,0,2,,,,,,,,,0,,,80,110
62304,note_on,64,0,4,,,,,,,,,4,,,73,75
62336,note_on,32,0,2,,,,,,,,,0,,,80,0
62336,note_on,32,0,4,,,,,,,,,4,,,73,0
62336,note_on,32,0,3,,,,,,,,,2,,,77,0
62350,note_on,46,0,1,,,,,,,,,11,,,77,0
62352,note_on,2,0,1,,,,,,,,,11,,,73,110
62398,note_on,46,0,1,,,,,,,,,11,,,73,0
62400,note_on,64,0,4,,,,,,,,,4,,,73,75
62400,note_on,2,0,1,,,,,,,,,11,,,77,110
62400,note_on,64,0,2,,,,,,,,,0,,,80,110
62400,note_on,64,0,3,,,,,,,,,2,,,77,110
62432,note_on,32,0,3,,,,,,,,,2,,,77,0
62432,note_on,32,0,2,,,,,,,,,0,,,80,0
62432,note_on,32,0,4,,,,,,,,,4,,,73,0
62446,note_on,46,0,1,,,,,,,,,11,,,77,0
62448,note_on,2,0,1,,,,,,,,,11,,,73,110
62494,note_on,46,0,1,,,,,,,,,11,,,73,0
62496,note_on,64,0,3,,,,,,,,,2,,,77,110
62496,note_on,64,0,2,,,,,,,,,0,,,80,110
62496,note_on,64,0,4,,,,,,,,,4,,,73,75
62496,note_on,2,0,1,,,,,,,,,11,,,73,110
62528,note_on,32,0,3,,,,,,,,,2,,,77,0
62528,note_on,32,0,2,,,,,,,,,0,,,80,0
62528,note_on,32,0,4,,,,,,,,,4,,,73,0
62590,note_on,94,0,1,,,,,,,,,11,,,73,0
62592,note_on,64,0,4,,,,,,,,,4,,,73,75
62592,note_on,64,0,2,,,,,,,,,0,,,80,110
62592,note_on,64,0,3,,,,,,,,,2,,,77,110
62592,note_on,2,0,1,,,,,,,,,11,,,77,110
62624,note_on,32,0,4,,,,,,,,,4,,,73,0
62624,note_on,32,0,2,,,,,,,,,0,,,80,0
62624,note_on,32,0,3,,,,,,,,,2,,,77,0
62686,note_on,94,0,1,,,,,,,,,11,,,77,0
62688,note_on,64,0,4,,,,,,,,,4,,,73,75
62688,note_on,64,0,3,,,,,,,,,2,,,77,110
62688,note_on,64,0,2,,,,,,,,,0,,,80,110
62688,note_on,2,0,1,,,,,,,,,11,,,80,110
62720,note_on,32,0,2,,,,,,,,,0,,,80,0
62720,note_on,32,0,3,,,,,,,,,2,,,77,0
62720,note_on,32,0,4,,,,,,,,,4,,,73,0
62782,note_on,94,0,1,,,,,,,,,11,,,80,0
62784,note_on,2,0,1,,,,,,,,,11,,,80,110
62784,note_on,64,0,3,,,,,,,,,2,,,77,110
62784,note_on,64,0,4,,,,,,,,,4,,,73,75
62784,note_on,64,0,2,,,,,,,,,0,,,80,110
62816,note_on,32,0,3,,,,,,,,,2,,,77,0
62816,note_on,32,0,4,,,,,,,,,4,,,73,0
62816,note_on,32,0,2,,,,,,,,,0,,,80,0
62878,note_on,94,0,1,,,,,,,,,11,,,80,0
62880,note_on,64,0,4,,,,,,,,,4,,,73,75
62880,note_on,64,0,2,,,,,,,,,0,,,80,110
62880,note_on,2,0,1,,,,,,,,,11,,,77,110
62880,note_on,64,0,3,,,,,,,,,2,,,77,110
62912,note_on,32,0,4,,,,,,,,,4,,,73,0
62912,note_on,32,0,3,,,,,,,,,2,,,77,0
62912,note_on,32,0,2,,,,,,,,,0,,,80,0
62926,note_on,46,0,1,,,,,,,,,11,,,77,0
62928,note_on,2,0,1,,,,,,,,,11,,,73,110
62974,note_on,46,0,1,,,,,,,,,11,,,73,0
62976,note_on,2,0,1,,,,,,,,,11,,,77,110
62976,note_on,64,0,3,,,,,,,,,2,,,77,110
62976,note_on,64,0,2,,,,,,,,,0,,,80,110
62976,note_on,64,0,4,,,,,,,,,4,,,73,75
63008,note_on,32,0,2,,,,,,,,,0,,,80,0
63008,note_on,32,0,4,,,,,,,,,4,,,73,0
63008,note_on,32,0,3,,,,,,,,,2,,,77,0
63022,note_on,46,0,1,,,,,,,,,11,,,77,0
63024,note_on,2,0,1,,,,,,,,,11,,,73,110
63070,note_on,46,0,1,,,,,,,,,11,,,73,0
63072,note_on,2,0,1,,,,,,,,,11,,,73,110
63072,note_on,64,0,2,,,,,,,,,0,,,80,110
63072,note_on,64,0,4,,,,,,,,,4,,,73,75
63072,note_on,64,0,3,,,,,,,,,2,,,77,110
63104,note_on,32,0,2,,,,,,,,,0,,,80,0
63104,note_on,32,0,4,,,,,,,,,4,,,73,0
63104,note_on,32,0,3,,,,,,,,,2,,,77,0
63166,note_on,94,0,1,,,,,,,,,11,,,73,0
63168,note_on,2,0,1,,,,,,,,,11,,,77,110
63168,note_on,64,0,3,,,,,,,,,2,,,77,110
63168,note_on,64,0,2,,,,,,,,,0,,,80,110
63168,note_on,64,0,4,,,,,,,,,4,,,73,75
63200,note_on,32,0,3,,,,,,,,,2,,,77,0
63200,note_on,32,0,4,,,,,,,,,4,,,73,0
63200,note_on,32,0,2,,,,,,,,,0,,,80,0
63262,note_on,94,0,1,,,,,,,,,11,,,77,0
63264,note_on,64,0,4,,,,,,,,,4,,,73,75
63264,note_on,2,0,1,,,,,,,,,11,,,80,110
63264,note_on,64,0,3,,,,,,,,,2,,,77,110
63264,note_on,64,0,2,,,,,,,,,0,,,80,110
63296,note_on,32,0,2,,,,,,,,,0,,,80,0
63296,note_on,32,0,4,,,,,,,,,4,,,73,0
63296,note_on,32,0,3,,,,,,,,,2,,,77,0
63358,note_on,94,0,1,,,,,,,,,11,,,80,0
63360,note_on,2,0,1,,,,,,,,,11,,,81,110
63360,note_on,64,0,3,,,,,,,,,2,,,73,110
63360,note_on,64,0,4,,,,,,,,,4,,,69,75
63360,note_on,64,0,2,,,,,,,,,0,,,78,110
63392,note_on,32,0,3,,,,,,,,,2,,,73,0
63392,note_on,32,0,4,,,,,,,,,4,,,69,0
63392,note_on,32,0,2,,,,,,,,,0,,,78,0
63454,note_on,94,0,1,,,,,,,,,11,,,81,0
63456,note_on,64,0,2,,,,,,,,,0,,,78,110
63456,note_on,64,0,4,,,,,,,,,4,,,69,75
63456,note_on,2,0,1,,,,,,,,,11,,,78,110
63456,note_on,64,0,3,,,,,,,,,2,,,73,110
63488,note_on,32,0,2,,,,,,,,,0,,,78,0
63488,note_on,32,0,3,,,,,,,,,2,,,73,0
63488,note_on,32,0,4,,,,,,,,,4,,,69,0
63502,note_on,46,0,1,,,,,,,,,11,,,78,0
63504,note_on,2,0,1,,,,,,,,,11,,,73,110
63550,note_on,46,0,1,,,,,,,,,11,,,73,0
63552,note_on,64,0,3,,,,,,,,,2,,,73,110
63552,note_on,64,0,4,,,,,,,,,4,,,69,75
63552,note_on,64,0,2,,,,,,,,,0,,,78,110
63552,note_on,2,0,1,,,,,,,,,11,,,78,110
63584,note_on,32,0,4,,,,,,,,,4,,,69,0
63584,note_on,32,0,2,,,,,,,,,0,,,78,0
63584,note_on,32,0,3,,,,,,,,,2,,,73,0
63598,note_on,46,0,1,,,,,,,,,11,,,78,0
63600,note_on,2,0,1,,,,,,,,,11,,,73,110
63646,note_on,46,0,1,,,,,,,,,11,,,73,0
63648,note_on,64,0,4,,,,,,,,,4,,,69,75
63648,note_on,2,0,1,,,,,,,,,11,,,73,110
63648,note_on,64,0,3,,,,,,,,,2,,,73,110
63648,note_on,64,0,2,,,,,,,,,0,,,78,110
63680,note_on,32,0,2,,,,,,,,,0,,,78,0
63680,note_on,32,0,4,,,,,,,,,4,,,69,0
63680,note_on,32,0,3,,,,,,,,,2,,,73,0
63742,note_on,94,0,1,,,,,,,,,11,,,73,0
63744,note_on,64,0,4,,,,,,,,,4,,,69,75
63744,note_on,64,0,2,,,,,,,,,0,,,78,110
63744,note_on,64,0,3,,,,,,,,,2,,,73,110
63744,note_on,2,0,1,,,,,,,,,11,,,78,110
63776,note_on,32,0,2,,,,,,,,,0,,,78,0
63776,note_on,32,0,4,,,,,,,,,4,,,69,0
63776,note_on,32,0,3,,,,,,,,,2,,,73,0
63838,note_on,94,0,1,,,,,,,,,11,,,78,0
63840,note_on,2,0,1,,,,,,,,,11,,,81,110
63840,note_on,64,0,2,,,,,,,,,0,,,78,110
63840,note_on,64,0,4,,,,,,,,,4,,,69,75
63840,note_on,64,0,3,,,,,,,,,2,,,73,110
63872,note_on,32,0,4,,,,,,,,,4,,,69,0
63872,note_on,32,0,3,,,,,,,,,2,,,73,0
63872,note_on,32,0,2,,,,,,,,,0,,,78,0
63934,note_on,94,0,1,,,,,,,,,11,,,81,0
63936,note_on,2,0,1,,,,,,,,,11,,,81,110
63936,note_on,64,0,4,,,,,,,,,4,,,69,75
63936,note_on,64,0,3,,,,,,,,,2,,,73,110
63936,note_on,64,0,2,,,,,,,,,0,,,78,110
63968,note_on,32,0,2,,,,,,,,,0,,,78,0
63968,note_on,32,0,4,,,,,,,,,4,,,69,0
63968,note_on,32,0,3,,,,,,,,,2,,,73,0
64030,note_on,94,0,1,,,,,,,,,11,,,81,0
64032,note_on,64,0,2,,,,,,,,,0,,,78,110
64032,note_on,64,0,3,,,,,,,,,2,,,73,110
64032,note_on,64,0,4,,,,,,,,,4,,,69,75
64032,note_on,2,0,1,,,,,,,,,11,,,78,110
64064,note_on,32,0,4,,,,,,,,,4,,,69,0
64064,note_on,32,0,2,,,,,,,,,0,,,78,0
64064,note_on,32,0,3,,,,,,,,,2,,,73,0
64078,note_on,46,0,1,,,,,,,,,11,,,78,0
64080,note_on,2,0,1,,,,,,,,,11,,,73,110
64126,note_on,46,0,1,,,,,,,,,11,,,73,0
64128,note_on,2,0,1,,,,,,,,,11,,,78,110
64128,note_on,64,0,2,,,,,,,,,0,,,78,110
64128,note_on,64,0,4,,,,,,,,,4,,,69,75
64128,note_on,64,0,3,,,,,,,,,2,,,73,110
64160,note_on,32,0,2,,,,,,,,,0,,,78,0
64160,note_on,32,0,4,,,,,,,,,4,,,69,0
64160,note_on,32,0,3,,,,,,,,,2,,,73,0
64174,note_on,46,0,1,,,,,,,,,11,,,78,0
64176,note_on,2,0,1,,,,,,,,,11,,,73,110
64222,note_on,46,0,1,,,,,,,,,11,,,73,0
64224,note_on,64,0,2,,,,,,,,,0,,,78,110
64224,note_on,2,0,1,,,,,,,,,11,,,73,110
64224,note_on,64,0,3,,,,,,,,,2,,,73,110
64224,note_on,64,0,4,,,,,,,,,4,,,69,75
64256,note_on,32,0,3,,,,,,,,,2,,,73,0
64256,note_on,32,0,2,,,,,,,,,0,,,78,0
64256,note_on,32,0,4,,,,,,,,,4,,,69,0
64318,note_on,94,0,1,,,,,,,,,11,,,73,0
64320,note_on,64,0,3,,,,,,,,,2,,,73,110
64320,note_on,64,0,4,,,,,,,,,4,,,69,75
64320,note_on,64,0,2,,,,,,,,,0,,,78,110
64320,note_on,2,0,1,,,,,,,,,11,,,78,110
64352,note_on,32,0,3,,,,,,,,,2,,,73,0
64352,note_on,32,0,2,,,,,,,,,0,,,78,0
64352,note_on,32,0,4,,,,,,,,,4,,,69,0
64414,note_on,94,0,1,,,,,,,,,11,,,78,0
64416,note_on,64,0,2,,,,,,,,,0,,,78,110
64416,note_on,2,0,1,,,,,,,,,11,,,81,110
64416,note_on,64,0,4,,,,,,,,,4,,,69,75
64416,note_on,64,0,3,,,,,,,,,2,,,73,110
64448,note_on,32,0,3,,,,,,,,,2,,,73,0
64448,note_on,32,0,4,,,,,,,,,4,,,69,0
64448,note_on,32,0,2,,,,,,,,,0,,,78,0
64510,note_on,94,0,1,,,,,,,,,11,,,81,0
64512,note_on,64,0,3,,,,,,,,,2,,,72,110
64512,note_on,64,0,4,,,,,,,,,4,,,68,75
64512,note_on,64,0,2,,,,,,,,,0,,,78,110
64512,note_on,2,0,1,,,,,,,,,11,,,84,110
64544,note_on,32,0,3,,,,,,,,,2,,,72,0
64544,note_on,32,0,2,,,,,,,,,0,,,78,0
64544,note_on,32,0,4,,,,,,,,,4,,,68,0
64606,note_on,94,0,1,,,,,,,,,11,,,84,0
64608,note_on,64,0,3,,,,,,,,,2,,,72,110
64608,note_on,64,0,2,,,,,,,,,0,,,78,110
64608,note_on,2,0,1,,,,,,,,,11,,,78,110
64608,note_on,64,0,4,,,,,,,,,4,,,68,75
64640,note_on,32,0,3,,,,,,,,,2,,,72,0
64640,note_on,32,0,2,,,,,,,,,0,,,78,0
64640,note_on,32,0,4,,,,,,,,,4,,,68,0
64654,note_on,46,0,1,,,,,,,,,11,,,78,0
64656,note_on,2,0,1,,,,,,,,,11,,,75,110
64702,note_on,46,0,1,,,,,,,,,11,,,75,0
64704,note_on,64,0,3,,,,,,,,,2,,,72,110
64704,note_on,64,0,2,,,,,,,,,0,,,78,110
64704,note_on,2,0,1,,,,,,,,,11,,,78,110
64704,note_on,64,0,4,,,,,,,,,4,,,68,75
64736,note_on,32,0,3,,,,,,,,,2,,,72,0
64736,note_on,32,0,2,,,,,,,,,0,,,78,0
64736,note_on,32,0,4,,,,,,,,,4,,,68,0
64750,note_on,46,0,1,,,,,,,,,11,,,78,0
64752,note_on,2,0,1,,,,,,,,,11,,,75,110
64798,note_on,46,0,1,,,,,,,,,11,,,75,0
64800,note_on,64,0,2,,,,,,,,,0,,,78,110
64800,note_on,2,0,1,,,,,,,,,11,,,75,110
64800,note_on,64,0,4,,,,,,,,,4,,,68,75
64800,note_on,64,0,3,,,,,,,,,2,,,72,110
64832,note_on,32,0,3,,,,,,,,,2,,,72,0
64832,note_on,32,0,4,,,,,,,,,4,,,68,0
64832,note_on,32,0,2,,,,,,,,,0,,,78,0
64894,note_on,94,0,1,,,,,,,,,11,,,75,0
64896,note_on,64,0,3,,,,,,,,,2,,,72,110
64896,note_on,64,0,4,,,,,,,,,4,,,68,75
64896,note_on,64,0,2,,,,,,,,,0,,,78,110
64896,note_on,2,0,1,,,,,,,,,11,,,78,110
64928,note_on,32,0,4,,,,,,,,,4,,,68,0
64928,note_on,32,0,2,,,,,,,,,0,,,78,0
64928,note_on,32,0,3,,,,,,,,,2,,,72,0
64990,note_on,94,0,1,,,,,,,,,11,,,78,0
64992,note_on,64,0,4,,,,,,,,,4,,,68,75
64992,note_on,2,0,1,,,,,,,,,11,,,84,110
64992,note_on,64,0,3,,,,,,,,,2,,,72,110
64992,note_on,64,0,2,,,,,,,,,0,,,78,110
65024,note_on,32,0,4,,,,,,,,,4,,,68,0
65024,note_on,32,0,2,,,,,,,,,0,,,78,0
65024,note_on,32,0,3,,,,,,,,,2,,,72,0
65086,note_on,94,0,1,,,,,,,,,11,,,84,0
65088,note_on,64,0,4,,,,,,,,,4,,,68,75
65088,note_on,64,0,3,,,,,,,,,2,,,72,110
65088,note_on,64,0,2,,,,,,,,,0,,,78,110
65088,note_on,2,0,1,,,,,,,,,11,,,84,110
65120,note_on,32,0,3,,,,,,,,,2,,,72,0
65120,note_on,32,0,2,,,,,,,,,0,,,78,0
65120,note_on,32,0,4,,,,,,,,,4,,,68,0
65182,note_on,94,0,1,,,,,,,,,11,,,84,0
65184,note_on,64,0,4,,,,,,,,,4,,,68,75
65184,note_on,2,0,1,,,,,,,,,11,,,78,110
65184,note_on,64,0,2,,,,,,,,,0,,,78,110
65184,note_on,64,0,3,,,,,,,,,2,,,72,110
65216,note_on,32,0,4,,,,,,,,,4,,,68,0
65216,note_on,32,0,3,,,,,,,,,2,,,72,0
65216,note_on,32,0,2,,,,,,,,,0,,,78,0
65230,note_on,46,0,1,,,,,,,,,11,,,78,0
65232,note_on,2,0,1,,,,,,,,,11,,,75,110
65278,note_on,46,0,1,,,,,,,,,11,,,75,0
65280,note_on,64,0,2,,,,,,,,,0,,,78,110
65280,note_on,64,0,4,,,,,,,,,4,,,68,75
65280,note_on,2,0,1,,,,,,,,,11,,,78,110
65280,note_on,64,0,3,,,,,,,,,2,,,72,110
65312,note_on,32,0,2,,,,,,,,,0,,,78,0
65312,note_on,32,0,4,,,,,,,,,4,,,68,0
65312,note_on,32,0,3,,,,,,,,,2,,,72,0
65326,note_on,46,0,1,,,,,,,,,11,,,78,0
65328,note_on,2,0,1,,,,,,,,,11,,,75,110
65374,note_on,46,0,1,,,,,,,,,11,,,75,0
65376,note_on,64,0,4,,,,,,,,,4,,,68,75
65376,note_on,64,0,2,,,,,,,,,0,,,78,110
65376,note_on,64,0,3,,,,,,,,,2,,,72,110
65376,note_on,2,0,1,,,,,,,,,11,,,75,110
65408,note_on,32,0,3,,,,,,,,,2,,,72,0
65408,note_on,32,0,4,,,,,,,,,4,,,68,0
65408,note_on,32,0,2,,,,,,,,,0,,,78,0
65470,note_on,94,0,1,,,,,,,,,11,,,75,0
65472,note_on,64,0,2,,,,,,,,,0,,,78,110
65472,note_on,64,0,4,,,,,,,,,4,,,68,75
65472,note_on,64,0,3,,,,,,,,,2,,,72,110
65472,note_on,2,0,1,,,,,,,,,11,,,78,110
65504,note_on,32,0,3,,,,,,,,,2,,,72,0
65504,note_on,32,0,2,,,,,,,,,0,,,78,0
65504,note_on,32,0,4,,,,,,,,,4,,,68,0
65566,note_on,94,0,1,,,,,,,,,11,,,78,0
65568,note_on,2,0,1,,,,,,,,,11,,,84,110
65568,note_on,64,0,2,,,,,,,,,0,,,78,110
65568,note_on,64,0,3,,,,,,,,,2,,,72,110
65568,note_on,64,0,4,,,,,,,,,4,,,68,75
65600,note_on,32,0,3,,,,,,,,,2,,,72,0
65600,note_on,32,0,4,,,,,,,,,4,,,68,0
65600,note_on,32,0,2,,,,,,,,,0,,,78,0
65662,note_on,94,0,1,,,,,,,,,11,,,84,0
65664,note_on,64,0,2,,,,,,,,,0,,,76,110
65664,note_on,2,0,1,,,,,,,,,11,,,85,110
65664,note_on,64,0,4,,,,,,,,,4,,,61,75
65664,note_on,64,0,3,,,,,,,,,2,,,68,110
65696,note_on,32,0,2,,,,,,,,,0,,,76,0
65696,note_on,32,0,3,,,,,,,,,2,,,68,0
65696,note_on,32,0,4,,,,,,,,,4,,,61,0
65758,note_on,94,0,1,,,,,,,,,11,,,85,0
65760,note_on,64,0,3,,,,,,,,,2,,,68,110
65760,note_on,64,0,4,,,,,,,,,4,,,61,75
65760,note_on,64,0,2,,,,,,,,,0,,,76,110
65760,note_on,2,0,1,,,,,,,,,11,,,80,110
65792,note_on,32,0,4,,,,,,,,,4,,,61,0
65792,note_on,32,0,3,,,,,,,,,2,,,68,0
65792,note_on,32,0,2,,,,,,,,,0,,,76,0
65806,note_on,46,0,1,,,,,,,,,11,,,80,0
65808,note_on,2,0,1,,,,,,,,,11,,,76,110
65854,note_on,46,0,1,,,,,,,,,11,,,76,0
65856,note_on,2,0,1,,,,,,,,,11,,,80,110
65856,note_on,64,0,4,,,,,,,,,4,,,61,75
65856,note_on,64,0,3,,,,,,,,,2,,,68,110
65856,note_on,64,0,2,,,,,,,,,0,,,76,110
65888,note_on,32,0,4,,,,,,,,,4,,,61,0
65888,note_on,32,0,3,,,,,,,,,2,,,68,0
65888,note_on,32,0,2,,,,,,,,,0,,,76,0
65902,note_on,46,0,1,,,,,,,,,11,,,80,0
65904,note_on,2,0,1,,,,,,,,,11,,,76,110
65950,note_on,46,0,1,,,,,,,,,11,,,76,0
65952,note_on,64,0,2,,,,,,,,,0,,,76,110
65952,note_on,2,0,1,,,,,,,,,11,,,76,110
65952,note_on,64,0,3,,,,,,,,,2,,,68,110
65952,note_on,64,0,4,,,,,,,,,4,,,61,75
65984,note_on,32,0,4,,,,,,,,,4,,,61,0
65984,note_on,32,0,2,,,,,,,,,0,,,76,0
65984,note_on,32,0,3,,,,,,,,,2,,,68,0
66046,note_on,94,0,1,,,,,,,,,11,,,76,0
66048,note_on,64,0,3,,,,,,,,,2,,,68,110
66048,note_on,2,0,1,,,,,,,,,11,,,80,110
66048,note_on,64,0,4,,,,,,,,,4,,,61,75
66048,note_on,64,0,2,,,,,,,,,0,,,76,110
66080,note_on,32,0,3,,,,,,,,,2,,,68,0
66080,note_on,32,0,2,,,,,,,,,0,,,76,0
66080,note_on,32,0,4,,,,,,,,,4,,,61,0
66142,note_on,94,0,1,,,,,,,,,11,,,80,0
66144,note_on,64,0,4,,,,,,,,,4,,,61,75
66144,note_on,64,0,3,,,,,,,,,2,,,68,110
66144,note_on,64,0,2,,,,,,,,,0,,,76,110
66144,note_on,2,0,1,,,,,,,,,11,,,85,110
66176,note_on,32,0,4,,,,,,,,,4,,,61,0
66176,note_on,32,0,3,,,,,,,,,2,,,68,0
66176,note_on,32,0,2,,,,,,,,,0,,,76,0
66238,note_on,94,0,1,,,,,,,,,11,,,85,0
66240,note_on,64,0,4,,,,,,,,,4,,,61,75
66240,note_on,2,0,1,,,,,,,,,11,,,85,110
66240,note_on,64,0,3,,,,,,,,,2,,,76,110
66240,note_on,64,0,2,,,,,,,,,0,,,85,110
66272,note_on,32,0,4,,,,,,,,,4,,,61,0
66272,note_on,32,0,3,,,,,,,,,2,,,76,0
66272,note_on,32,0,2,,,,,,,,,0,,,85,0
66334,note_on,94,0,1,,,,,,,,,11,,,85,0
66336,note_on,64,0,4,,,,,,,,,4,,,61,75
66336,note_on,64,0,3,,,,,,,,,2,,,76,110
66336,note_on,64,0,2,,,,,,,,,0,,,85,110
66336,note_on,2,0,1,,,,,,,,,11,,,80,110
66368,note_on,32,0,3,,,,,,,,,2,,,76,0
66368,note_on,32,0,2,,,,,,,,,0,,,85,0
66368,note_on,32,0,4,,,,,,,,,4,,,61,0
66382,note_on,46,0,1,,,,,,,,,11,,,80,0
66384,note_on,2,0,1,,,,,,,,,11,,,76,110
66430,note_on,46,0,1,,,,,,,,,11,,,76,0
66432,note_on,2,0,1,,,,,,,,,11,,,80,110
66432,note_on,64,0,2,,,,,,,,,0,,,85,110
66432,note_on,64,0,4,,,,,,,,,4,,,61,75
66432,note_on,64,0,3,,,,,,,,,2,,,76,110
66464,note_on,32,0,4,,,,,,,,,4,,,61,0
66464,note_on,32,0,3,,,,,,,,,2,,,76,0
66464,note_on,32,0,2,,,,,,,,,0,,,85,0
66478,note_on,46,0,1,,,,,,,,,11,,,80,0
66480,note_on,2,0,1,,,,,,,,,11,,,76,110
66526,note_on,46,0,1,,,,,,,,,11,,,76,0
66528,note_on,64,0,4,,,,,,,,,4,,,61,75
66528,note_on,64,0,3,,,,,,,,,2,,,76,110
66528,note_on,64,0,2,,,,,,,,,0,,,85,110
66528,note_on,2,0,1,,,,,,,,,11,,,76,110
66560,note_on,32,0,3,,,,,,,,,2,,,76,0
66560,note_on,32,0,2,,,,,,,,,0,,,85,0
66560,note_on,32,0,4,,,,,,,,,4,,,61,0
66622,note_on,94,0,1,,,,,,,,,11,,,76,0
66624,note_on,64,0,3,,,,,,,,,2,,,76,110
66624,note_on,64,0,2,,,,,,,,,0,,,85,110
66624,note_on,2,0,1,,,,,,,,,11,,,80,110
66624,note_on,64,0,4,,,,,,,,,4,,,61,75
66656,note_on,32,0,4,,,,,,,,,4,,,61,0
66656,note_on,32,0,3,,,,,,,,,2,,,76,0
66656,note_on,32,0,2,,,,,,,,,0,,,85,0
66718,note_on,94,0,1,,,,,,,,,11,,,80,0
66720,note_on,64,0,2,,,,,,,,,0,,,85,110
66720,note_on,2,0,1,,,,,,,,,11,,,85,110
66720,note_on,64,0,4,,,,,,,,,4,,,61,75
66720,note_on,64,0,3,,,,,,,,,2,,,76,110
66752,note_on,32,0,2,,,,,,,,,0,,,85,0
66752,note_on,32,0,4,,,,,,,,,4,,,61,0
66752,note_on,32,0,3,,,,,,,,,2,,,76,0
66814,note_on,94,0,1,,,,,,,,,11,,,85,0
66816,note_on,64,0,2,,,,,,,,,0,,,85,110
66816,note_on,2,0,1,,,,,,,,,11,,,85,110
66816,note_on,64,0,4,,,,,,,,,4,,,68,75
66816,note_on,64,0,3,,,,,,,,,2,,,75,110
66848,note_on,32,0,4,,,,,,,,,4,,,68,0
66848,note_on,32,0,3,,,,,,,,,2,,,75,0
66848,note_on,32,0,2,,,,,,,,,0,,,85,0
66910,note_on,94,0,1,,,,,,,,,11,,,85,0
66912,note_on,64,0,4,,,,,,,,,4,,,68,75
66912,note_on,64,0,3,,,,,,,,,2,,,75,110
66912,note_on,64,0,2,,,,,,,,,0,,,85,110
66912,note_on,2,0,1,,,,,,,,,11,,,80,110
66944,note_on,32,0,2,,,,,,,,,0,,,85,0
66944,note_on,32,0,4,,,,,,,,,4,,,68,0
66944,note_on,32,0,3,,,,,,,,,2,,,75,0
66958,note_on,46,0,1,,,,,,,,,11,,,80,0
66960,note_on,2,0,1,,,,,,,,,11,,,75,110
67006,note_on,46,0,1,,,,,,,,,11,,,75,0
67008,note_on,2,0,1,,,,,,,,,11,,,80,110
67008,note_on,64,0,3,,,,,,,,,2,,,75,110
67008,note_on,64,0,2,,,,,,,,,0,,,85,110
67008,note_on,64,0,4,,,,,,,,,4,,,68,75
67040,note_on,32,0,3,,,,,,,,,2,,,75,0
67040,note_on,32,0,4,,,,,,,,,4,,,68,0
67040,note_on,32,0,2,,,,,,,,,0,,,85,0
67054,note_on,46,0,1,,,,,,,,,11,,,80,0
67056,note_on,2,0,1,,,,,,,,,11,,,75,110
67102,note_on,46,0,1,,,,,,,,,11,,,75,0
67104,note_on,64,0,4,,,,,,,,,4,,,68,75
67104,note_on,64,0,3,,,,,,,,,2,,,75,110
67104,note_on,64,0,2,,,,,,,,,0,,,85,110
67104,note_on,2,0,1,,,,,,,,,11,,,75,110
67136,note_on,32,0,3,,,,,,,,,2,,,75,0
67136,note_on,32,0,4,,,,,,,,,4,,,68,0
67136,note_on,32,0,2,,,,,,,,,0,,,85,0
67198,note_on,94,0,1,,,,,,,,,11,,,75,0
67200,note_on,64,0,4,,,,,,,,,4,,,68,75
67200,note_on,64,0,3,,,,,,,,,2,,,75,110
67200,note_on,64,0,2,,,,,,,,,0,,,85,110
67200,note_on,2,0,1,,,,,,,,,11,,,80,110
67232,note_on,32,0,4,,,,,,,,,4,,,68,0
67232,note_on,32,0,2,,,,,,,,,0,,,85,0
67232,note_on,32,0,3,,,,,,,,,2,,,75,0
67294,note_on,94,0,1,,,,,,,,,11,,,80,0
67296,note_on,64,0,4,,,,,,,,,4,,,68,75
67296,note_on,2,0,1,,,,,,,,,11,,,85,110
67296,note_on,64,0,2,,,,,,,,,0,,,85,110
67296,note_on,64,0,3,,,,,,,,,2,,,75,110
67328,note_on,32,0,2,,,,,,,,,0,,,85,0
67328,note_on,32,0,4,,,,,,,,,4,,,68,0
67328,note_on,32,0,3,,,,,,,,,2,,,75,0
67390,note_on,94,0,1,,,,,,,,,11,,,85,0
67392,note_on,64,0,2,,,,,,,,,0,,,85,110
67392,note_on,64,0,4,,,,,,,,,4,,,68,75
67392,note_on,2,0,1,,,,,,,,,11,,,85,110
67392,note_on,64,0,3,,,,,,,,,2,,,75,110
67424,note_on,32,0,2,,,,,,,,,0,,,85,0
67424,note_on,32,0,4,,,,,,,,,4,,,68,0
67424,note_on,32,0,3,,,,,,,,,2,,,75,0
67486,note_on,94,0,1,,,,,,,,,11,,,85,0
67488,note_on,64,0,3,,,,,,,,,2,,,75,110
67488,note_on,2,0,1,,,,,,,,,11,,,80,110
67488,note_on,64,0,2,,,,,,,,,0,,,85,110
67488,note_on,64,0,4,,,,,,,,,4,,,68,75
67520,note_on,32,0,3,,,,,,,,,2,,,75,0
67520,note_on,32,0,4,,,,,,,,,4,,,68,0
67520,note_on,32,0,2,,,,,,,,,0,,,85,0
67534,note_on,46,0,1,,,,,,,,,11,,,80,0
67536,note_on,2,0,1,,,,,,,,,11,,,75,110
67582,note_on,46,0,1,,,,,,,,,11,,,75,0
67584,note_on,2,0,1,,,,,,,,,11,,,80,110
67584,note_on,64,0,3,,,,,,,,,2,,,75,110
67584,note_on,64,0,4,,,,,,,,,4,,,68,75
67584,note_on,64,0,2,,,,,,,,,0,,,85,110
67616,note_on,32,0,4,,,,,,,,,4,,,68,0
67616,note_on,32,0,2,,,,,,,,,0,,,85,0
67616,note_on,32,0,3,,,,,,,,,2,,,75,0
67630,note_on,46,0,1,,,,,,,,,11,,,80,0
67632,note_on,2,0,1,,,,,,,,,11,,,75,110
67678,note_on,46,0,1,,,,,,,,,11,,,75,0
67680,note_on,64,0,2,,,,,,,,,0,,,85,110
67680,note_on,64,0,4,,,,,,,,,4,,,68,75
67680,note_on,64,0,3,,,,,,,,,2,,,75,110
67680,note_on,2,0,1,,,,,,,,,11,,,75,110
67712,note_on,32,0,2,,,,,,,,,0,,,85,0
67712,note_on,32,0,3,,,,,,,,,2,,,75,0
67712,note_on,32,0,4,,,,,,,,,4,,,68,0
67774,note_on,94,0,1,,,,,,,,,11,,,75,0
67776,note_on,64,0,3,,,,,,,,,2,,,75,110
67776,note_on,2,0,1,,,,,,,,,11,,,80,110
67776,note_on,64,0,4,,,,,,,,,4,,,68,75
67776,note_on,64,0,2,,,,,,,,,0,,,85,110
67808,note_on,32,0,4,,,,,,,,,4,,,68,0
67808,note_on,32,0,3,,,,,,,,,2,,,75,0
67808,note_on,32,0,2,,,,,,,,,0,,,85,0
67870,note_on,94,0,1,,,,,,,,,11,,,80,0
67872,note_on,64,0,3,,,,,,,,,2,,,75,110
67872,note_on,2,0,1,,,,,,,,,11,,,85,110
67872,note_on,64,0,2,,,,,,,,,0,,,85,110
67872,note_on,64,0,4,,,,,,,,,4,,,68,75
67904,note_on,32,0,2,,,,,,,,,0,,,85,0
67904,note_on,32,0,3,,,,,,,,,2,,,75,0
67904,note_on,32,0,4,,,,,,,,,4,,,68,0
67966,note_on,94,0,1,,,,,,,,,11,,,85,0
67968,note_on,64,0,4,,,,,,,,,4,,,56,75
67968,note_on,64,0,2,,,,,,,,,0,,,84,110
67968,note_on,64,0,3,,,,,,,,,2,,,75,110
67968,note_on,2,0,1,,,,,,,,,11,,,84,110
68000,note_on,32,0,2,,,,,,,,,0,,,84,0
68000,note_on,32,0,3,,,,,,,,,2,,,75,0
68000,note_on,32,0,4,,,,,,,,,4,,,56,0
68062,note_on,94,0,1,,,,,,,,,11,,,84,0
68064,note_on,64,0,4,,,,,,,,,4,,,56,75
68064,note_on,2,0,1,,,,,,,,,11,,,80,110
68064,note_on,64,0,2,,,,,,,,,0,,,84,110
68064,note_on,64,0,3,,,,,,,,,2,,,75,110
68096,note_on,32,0,3,,,,,,,,,2,,,75,0
68096,note_on,32,0,2,,,,,,,,,0,,,84,0
68096,note_on,32,0,4,,,,,,,,,4,,,56,0
68110,note_on,46,0,1,,,,,,,,,11,,,80,0
68112,note_on,2,0,1,,,,,,,,,11,,,75,110
68158,note_on,46,0,1,,,,,,,,,11,,,75,0
68160,note_on,64,0,3,,,,,,,,,2,,,75,110
68160,note_on,2,0,1,,,,,,,,,11,,,80,110
68160,note_on,64,0,2,,,,,,,,,0,,,84,110
68160,note_on,64,0,4,,,,,,,,,4,,,56,75
68192,note_on,32,0,2,,,,,,,,,0,,,84,0
68192,note_on,32,0,3,,,,,,,,,2,,,75,0
68192,note_on,32,0,4,,,,,,,,,4,,,56,0
68206,note_on,46,0,1,,,,,,,,,11,,,80,0
68208,note_on,2,0,1,,,,,,,,,11,,,75,110
68254,note_on,46,0,1,,,,,,,,,11,,,75,0
68256,note_on,64,0,2,,,,,,,,,0,,,84,110
68256,note_on,2,0,1,,,,,,,,,11,,,75,110
68256,note_on,64,0,3,,,,,,,,,2,,,75,110
68256,note_on,64,0,4,,,,,,,,,4,,,56,75
68288,note_on,32,0,4,,,,,,,,,4,,,56,0
68288,note_on,32,0,3,,,,,,,,,2,,,75,0
68288,note_on,32,0,2,,,,,,,,,0,,,84,0
68350,note_on,94,0,1,,,,,,,,,11,,,75,0
68352,note_on,64,0,3,,,,,,,,,2,,,75,110
68352,note_on,64,0,4,,,,,,,,,4,,,56,75
68352,note_on,2,0,1,,,,,,,,,11,,,80,110
68352,note_on,64,0,2,,,,,,,,,0,,,84,110
68384,note_on,32,0,4,,,,,,,,,4,,,56,0
68384,note_on,32,0,2,,,,,,,,,0,,,84,0
68384,note_on,32,0,3,,,,,,,,,2,,,75,0
68446,note_on,94,0,1,,,,,,,,,11,,,80,0
68448,note_on,64,0,2,,,,,,,,,0,,,84,110
68448,note_on,64,0,3,,,,,,,,,2,,,75,110
68448,note_on,64,0,4,,,,,,,,,4,,,56,75
68448,note_on,2,0,1,,,,,,,,,11,,,84,110
68480,note_on,32,0,2,,,,,,,,,0,,,84,0
68480,note_on,32,0,4,,,,,,,,,4,,,56,0
68480,note_on,32,0,3,,,,,,,,,2,,,75,0
68542,note_on,94,0,1,,,,,,,,,11,,,84,0
68544,note_on,64,0,3,,,,,,,,,2,,,75,110
68544,note_on,2,0,1,,,,,,,,,11,,,84,110
68544,note_on,64,0,4,,,,,,,,,4,,,56,75
68544,note_on,64,0,2,,,,,,,,,0,,,84,110
68576,note_on,32,0,4,,,,,,,,,4,,,56,0
68576,note_on,32,0,2,,,,,,,,,0,,,84,0
68576,note_on,32,0,3,,,,,,,,,2,,,75,0
68638,note_on,94,0,1,,,,,,,,,11,,,84,0
68640,note_on,64,0,2,,,,,,,,,0,,,84,110
68640,note_on,64,0,4,,,,,,,,,4,,,56,75
68640,note_on,64,0,3,,,,,,,,,2,,,75,110
68640,note_on,2,0,1,,,,,,,,,11,,,80,110
68672,note_on,32,0,4,,,,,,,,,4,,,56,0
68672,note_on,32,0,3,,,,,,,,,2,,,75,0
68672,note_on,32,0,2,,,,,,,,,0,,,84,0
68686,note_on,46,0,1,,,,,,,,,11,,,80,0
68688,note_on,2,0,1,,,,,,,,,11,,,75,110
68734,note_on,46,0,1,,,,,,,,,11,,,75,0
68736,note_on,2,0,1,,,,,,,,,11,,,80,110
68736,note_on,64,0,2,,,,,,,,,0,,,84,110
68736,note_on,64,0,4,,,,,,,,,4,,,56,75
68736,note_on,64,0,3,,,,,,,,,2,,,75,110
68768,note_on,32,0,3,,,,,,,,,2,,,75,0
68768,note_on,32,0,2,,,,,,,,,0,,,84,0
68768,note_on,32,0,4,,,,,,,,,4,,,56,0
68782,note_on,46,0,1,,,,,,,,,11,,,80,0
68784,note_on,2,0,1,,,,,,,,,11,,,75,110
68830,note_on,46,0,1,,,,,,,,,11,,,75,0
68832,note_on,2,0,1,,,,,,,,,11,,,75,110
68832,note_on,64,0,2,,,,,,,,,0,,,84,110
68832,note_on,64,0,4,,,,,,,,,4,,,56,75
68832,note_on,64,0,3,,,,,,,,,2,,,75,110
68864,note_on,32,0,4,,,,,,,,,4,,,56,0
68864,note_on,32,0,3,,,,,,,,,2,,,75,0
68864,note_on,32,0,2,,,,,,,,,0,,,84,0
68926,note_on,94,0,1,,,,,,,,,11,,,75,0
68928,note_on,64,0,4,,,,,,,,,4,,,56,75
68928,note_on,64,0,2,,,,,,,,,0,,,84,110
68928,note_on,64,0,3,,,,,,,,,2,,,75,110
68928,note_on,2,0,1,,,,,,,,,11,,,80,110
68960,note_on,32,0,3,,,,,,,,,2,,,75,0
68960,note_on,32,0,4,,,,,,,,,4,,,56,0
68960,note_on,32,0,2,,,,,,,,,0,,,84,0
69022,note_on,94,0,1,,,,,,,,,11,,,80,0
69024,note_on,2,0,1,,,,,,,,,11,,,84,110
69024,note_on,64,0,2,,,,,,,,,0,,,84,110
69024,note_on,64,0,4,,,,,,,,,4,,,56,75
69024,note_on,64,0,3,,,,,,,,,2,,,75,110
69056,note_on,32,0,2,,,,,,,,,0,,,84,0
69056,note_on,32,0,3,,,,,,,,,2,,,75,0
69056,note_on,32,0,4,,,,,,,,,4,,,56,0
69118,note_on,94,0,1,,,,,,,,,11,,,84,0
69120,note_on,21920,0,5,,,,,,,,,6,,,49,92
69120,note_on,0,0,2,,,,,,,,,0,,,64,110
69120,control_change,64,0,2,,,,,,,,,0,10,127,,
69120,note_on,64,0,3,,,,,,,,,2,,,64,110
69120,note_on,21920,0,6,,,,,,,,,8,,,37,92
69120,note_on,64,0,4,,,,,,,,,4,,,56,75
69120,note_on,2,0,1,,,,,,,,,11,,,85,110
69214,note_on,94,0,2,,,,,,,,,0,,,64,0
69214,note_on,94,0,3,,,,,,,,,2,,,64,0
69214,note_on,94,0,1,,,,,,,,,11,,,85,0
69216,note_on,2,0,3,,,,,,,,,2,,,73,110
69216,note_on,2,0,1,,,,,,,,,11,,,73,110
69216,note_on,2,0,2,,,,,,,,,0,,,73,110
69310,note_on,94,0,1,,,,,,,,,11,,,73,0
69310,note_on,94,0,2,,,,,,,,,0,,,73,0
69310,note_on,94,0,3,,,,,,,,,2,,,73,0
69312,note_on,2,0,1,,,,,,,,,11,,,76,110
69312,note_on,2,0,3,,,,,,,,,2,,,76,110
69312,note_on,2,0,2,,,,,,,,,0,,,76,110
69376,note_on,256,0,5,,,,,,,,,6,,,49,0
69376,note_on,256,0,6,,,,,,,,,8,,,37,0
69376,note_on,256,0,4,,,,,,,,,4,,,56,0
69406,note_on,94,0,1,,,,,,,,,11,,,76,0
69406,note_on,94,0,3,,,,,,,,,2,,,76,0
69406,note_on,94,0,2,,,,,,,,,0,,,76,0
69408,note_on,32,0,5,,,,,,,,,6,,,49,92
69408,note_on,2,0,3,,,,,,,,,2,,,80,110
69408,note_on,2,0,2,,,,,,,,,0,,,80,110
69408,note_on,32,0,4,,,,,,,,,4,,,56,75
69408,note_on,2,0,1,,,,,,,,,11,,,80,110
69408,note_on,32,0,6,,,,,,,,,8,,,37,92
69502,note_on,94,0,1,,,,,,,,,11,,,80,0
69502,note_on,94,0,3,,,,,,,,,2,,,80,0
69502,note_on,94,0,2,,,,,,,,,0,,,80,0
69504,note_on,2,0,2,,,,,,,,,0,,,76,110
69504,note_on,2,0,1,,,,,,,,,11,,,76,110
69504,note_on,2,0,3,,,,,,,,,2,,,76,110
69598,note_on,94,0,2,,,,,,,,,0,,,76,0
69598,note_on,94,0,3,,,,,,,,,2,,,76,0
69598,note_on,94,0,1,,,,,,,,,11,,,76,0
69600,note_on,2,0,2,,,,,,,,,0,,,73,110
69600,note_on,2,0,3,,,,,,,,,2,,,73,110
69600,note_on,2,0,1,,,,,,,,,11,,,73,110
69664,note_on,256,0,4,,,,,,,,,4,,,56,0
69664,note_on,256,0,5,,,,,,,,,6,,,49,0
69664,note_on,256,0,6,,,,,,,,,8,,,37,0
69694,note_on,94,0,2,,,,,,,,,0,,,73,0
69694,note_on,94,0,1,,,,,,,,,11,,,73,0
69694,note_on,94,0,3,,,,,,,,,2,,,73,0
69696,note_on,2,0,2,,,,,,,,,0,,,64,110
69696,note_on,32,0,4,,,,,,,,,4,,,56,75
69696,note_on,2,0,3,,,,,,,,,2,,,64,110
69696,note_on,32,0,6,,,,,,,,,8,,,37,92
69696,note_on,32,0,5,,,,,,,,,6,,,49,92
69696,note_on,2,0,1,,,,,,,,,11,,,64,110
69790,note_on,94,0,3,,,,,,,,,2,,,64,0
69790,note_on,94,0,1,,,,,,,,,11,,,64,0
69790,note_on,94,0,2,,,,,,,,,0,,,64,0
69792,note_on,2,0,2,,,,,,,,,0,,,73,110
69792,note_on,2,0,3,,,,,,,,,2,,,73,110
69792,note_on,2,0,1,,,,,,,,,11,,,73,110
69886,note_on,94,0,3,,,,,,,,,2,,,73,0
69886,note_on,94,0,1,,,,,,,,,11,,,73,0
69886,note_on,94,0,2,,,,,,,,,0,,,73,0
69888,note_on,2,0,3,,,,,,,,,2,,,76,110
69888,note_on,2,0,2,,,,,,,,,0,,,76,110
69888,note_on,2,0,1,,,,,,,,,11,,,76,110
69952,note_on,256,0,6,,,,,,,,,8,,,37,0
69952,note_on,256,0,5,,,,,,,,,6,,,49,0
69952,note_on,256,0,4,,,,,,,,,4,,,56,0
69982,note_on,94,0,1,,,,,,,,,11,,,76,0
69982,note_on,94,0,3,,,,,,,,,2,,,76,0
69982,note_on,94,0,2,,,,,,,,,0,,,76,0
69984,note_on,2,0,3,,,,,,,,,2,,,80,110
69984,note_on,32,0,5,,,,,,,,,6,,,49,92
69984,note_on,32,0,4,,,,,,,,,4,,,56,75
69984,note_on,2,0,2,,,,,,,,,0,,,80,110
69984,note_on,32,0,6,,,,,,,,,8,,,37,92
69984,note_on,2,0,1,,,,,,,,,11,,,80,110
70078,note_on,94,0,2,,,,,,,,,0,,,80,0
70078,note_on,94,0,1,,,,,,,,,11,,,80,0
70078,note_on,94,0,3,,,,,,,,,2,,,80,0
70080,note_on,2,0,2,,,,,,,,,0,,,76,110
70080,note_on,2,0,1,,,,,,,,,11,,,76,110
70080,note_on,2,0,3,,,,,,,,,2,,,76,110
70174,note_on,94,0,2,,,,,,,,,0,,,76,0
70174,note_on,94,0,1,,,,,,,,,11,,,76,0
70174,note_on,94,0,3,,,,,,,,,2,,,76,0
70176,note_on,2,0,2,,,,,,,,,0,,,73,110
70176,note_on,2,0,3,,,,,,,,,2,,,73,110
70176,note_on,2,0,1,,,,,,,,,11,,,73,110
70240,note_on,256,0,4,,,,,,,,,4,,,56,0
70240,note_on,256,0,5,,,,,,,,,6,,,49,0
70240,note_on,256,0,6,,,,,,,,,8,,,37,0
70270,note_on,94,0,2,,,,,,,,,0,,,73,0
70270,note_on,94,0,3,,,,,,,,,2,,,73,0
70270,note_on,94,0,1,,,,,,,,,11,,,73,0
70272,note_on,32,0,5,,,,,,,,,6,,,49,92
70272,note_on,2,0,1,,,,,,,,,11,,,64,110
70272,note_on,32,0,6,,,,,,,,,8,,,37,92
70272,note_on,32,0,4,,,,,,,,,4,,,56,75
70272,note_on,2,0,3,,,,,,,,,2,,,64,110
70272,note_on,2,0,2,,,,,,,,,0,,,64,110
70366,note_on,94,0,5,,,,,,,,,6,,,49,0
70366,note_on,94,0,6,,,,,,,,,8,,,37,0
70368,note_on,2,0,6,,,,,,,,,8,,,44,92
70368,note_on,2,0,5,,,,,,,,,6,,,56,92
70462,note_on,94,0,5,,,,,,,,,6,,,56,0
70462,note_on,94,0,6,,,,,,,,,8,,,44,0
70464,note_on,2,0,5,,,,,,,,,6,,,54,92
70464,note_on,2,0,6,,,,,,,,,8,,,42,92
70558,note_on,94,0,5,,,,,,,,,6,,,54,0
70558,note_on,94,0,6,,,,,,,,,8,,,42,0
70560,note_on,2,0,6,,,,,,,,,8,,,40,92
70560,note_on,2,0,5,,,,,,,,,6,,,52,92
70606,note_on,334,0,4,,,,,,,,,4,,,56,0
70654,note_on,94,0,6,,,,,,,,,8,,,40,0
70654,note_on,94,0,5,,,,,,,,,6,,,52,0
70656,note_on,2,0,6,,,,,,,,,8,,,39,92
70656,note_on,2,0,5,,,,,,,,,6,,,51,92
70750,note_on,478,0,1,,,,,,,,,11,,,64,0
70750,note_on,94,0,6,,,,,,,,,8,,,39,0
70750,note_on,478,0,2,,,,,,,,,0,,,64,0
70750,note_on,478,0,3,,,,,,,,,2,,,64,0
70750,note_on,94,0,5,,,,,,,,,6,,,51,0
70752,note_on,2,0,1,,,,,,,,,11,,,80,110
70752,note_on,2,0,6,,,,,,,,,8,,,37,92
70752,note_on,2,0,2,,,,,,,,,0,,,80,110
70752,note_on,2,0,3,,,,,,,,,2,,,80,110
70752,note_on,2,0,5,,,,,,,,,6,,,49,92
70846,note_on,94,0,1,,,,,,,,,11,,,80,0
70846,note_on,94,0,2,,,,,,,,,0,,,80,0
70846,note_on,94,0,3,,,,,,,,,2,,,80,0
70846,note_on,94,0,6,,,,,,,,,8,,,37,0
70846,note_on,94,0,5,,,,,,,,,6,,,49,0
70848,note_on,2,0,3,,,,,,,,,2,,,73,110
70848,note_on,2,0,1,,,,,,,,,11,,,73,110
70848,note_on,2,0,2,,,,,,,,,0,,,73,110
70848,note_on,2,0,6,,,,,,,,,8,,,37,92
70848,note_on,2,0,5,,,,,,,,,6,,,49,92
70848,note_on,242,0,4,,,,,,,,,4,,,68,75
70942,note_on,94,0,1,,,,,,,,,11,,,73,0
70942,note_on,94,0,2,,,,,,,,,0,,,73,0
70942,note_on,94,0,3,,,,,,,,,2,,,73,0
70944,note_on,2,0,3,,,,,,,,,2,,,68,110
70944,note_on,2,0,1,,,,,,,,,11,,,68,110
70944,note_on,2,0,2,,,,,,,,,0,,,68,110
71038,note_on,94,0,3,,,,,,,,,2,,,68,0
71038,note_on,94,0,2,,,,,,,,,0,,,68,0
71038,note_on,94,0,1,,,,,,,,,11,,,68,0
71040,note_on,2,0,2,,,,,,,,,0,,,73,110
71040,note_on,2,0,1,,,,,,,,,11,,,73,110
71040,note_on,2,0,3,,,,,,,,,2,,,73,110
71104,note_on,256,0,5,,,,,,,,,6,,,49,0
71104,note_on,256,0,4,,,,,,,,,4,,,68,0
71104,note_on,256,0,6,,,,,,,,,8,,,37,0
71134,note_on,94,0,2,,,,,,,,,0,,,73,0
71134,note_on,94,0,1,,,,,,,,,11,,,73,0
71134,note_on,94,0,3,,,,,,,,,2,,,73,0
71136,note_on,32,0,5,,,,,,,,,6,,,56,92
71136,note_on,2,0,1,,,,,,,,,11,,,75,110
71136,note_on,2,0,2,,,,,,,,,0,,,75,110
71136,note_on,32,0,6,,,,,,,,,8,,,44,92
71136,note_on,2,0,3,,,,,,,,,2,,,75,110
71136,note_on,32,0,4,,,,,,,,,4,,,72,75
71230,note_on,94,0,1,,,,,,,,,11,,,75,0
71230,note_on,94,0,3,,,,,,,,,2,,,75,0
71230,note_on,94,0,2,,,,,,,,,0,,,75,0
71232,note_on,2,0,2,,,,,,,,,0,,,76,110
71232,note_on,2,0,3,,,,,,,,,2,,,76,110
71232,note_on,2,0,1,,,,,,,,,11,,,76,110
71326,note_on,94,0,2,,,,,,,,,0,,,76,0
71326,note_on,94,0,1,,,,,,,,,11,,,76,0
71326,note_on,94,0,3,,,,,,,,,2,,,76,0
71328,note_on,2,0,3,,,,,,,,,2,,,78,110
71328,note_on,2,0,1,,,,,,,,,11,,,78,110
71328,note_on,2,0,2,,,,,,,,,0,,,78,110
71392,note_on,256,0,4,,,,,,,,,4,,,72,0
71392,note_on,256,0,6,,,,,,,,,8,,,44,0
71392,note_on,256,0,5,,,,,,,,,6,,,56,0
71422,note_on,94,0,2,,,,,,,,,0,,,78,0
71422,note_on,94,0,1,,,,,,,,,11,,,78,0
71422,note_on,94,0,3,,,,,,,,,2,,,78,0
71424,note_on,2,0,1,,,,,,,,,11,,,78,110
71424,note_on,32,0,6,,,,,,,,,8,,,49,92
71424,note_on,32,0,5,,,,,,,,,6,,,61,92
71424,note_on,2,0,2,,,,,,,,,0,,,78,110
71424,note_on,2,0,3,,,,,,,,,2,,,78,110
71424,note_on,32,0,4,,,,,,,,,4,,,68,75
71680,note_on,256,0,1,,,,,,,,,11,,,78,0
71680,note_on,256,0,5,,,,,,,,,6,,,61,0
71680,note_on,256,0,2,,,,,,,,,0,,,78,0
71680,note_on,256,0,3,,,,,,,,,2,,,78,0
71680,note_on,256,0,4,,,,,,,,,4,,,68,0
71680,note_on,256,0,6,,,,,,,,,8,,,49,0
71712,note_on,32,0,3,,,,,,,,,2,,,76,110
71712,note_on,32,0,4,,,,,,,,,4,,,68,75
71712,note_on,32,0,6,,,,,,,,,8,,,37,92
71712,note_on,32,0,1,,,,,,,,,11,,,76,110
71712,note_on,32,0,2,,,,,,,,,0,,,76,110
71712,note_on,32,0,5,,,,,,,,,6,,,49,92
71806,note_on,94,0,4,,,,,,,,,4,,,68,0
71806,note_on,94,0,2,,,,,,,,,0,,,76,0
71806,note_on,94,0,5,,,,,,,,,6,,,49,0
71806,note_on,94,0,3,,,,,,,,,2,,,76,0
71806,note_on,94,0,1,,,,,,,,,11,,,76,0
71806,note_on,94,0,6,,,,,,,,,8,,,37,0
71904,note_on,98,0,3,,,,,,,,,2,,,80,110
71904,note_on,98,0,1,,,,,,,,,11,,,80,110
71904,note_on,98,0,2,,,,,,,,,0,,,80,110
71998,note_on,94,0,1,,,,,,,,,11,,,80,0
71998,note_on,94,0,3,,,,,,,,,2,,,80,0
71998,note_on,94,0,2,,,,,,,,,0,,,80,0
72000,note_on,194,0,5,,,,,,,,,6,,,49,92
72000,note_on,2,0,1,,,,,,,,,11,,,73,110
72000,note_on,194,0,4,,,,,,,,,4,,,68,75
72000,note_on,2,0,3,,,,,,,,,2,,,73,110
72000,note_on,194,0,6,,,,,,,,,8,,,37,92
72000,note_on,2,0,2,,,,,,,,,0,,,73,110
72094,note_on,94,0,2,,,,,,,,,0,,,73,0
72094,note_on,94,0,1,,,,,,,,,11,,,73,0
72094,note_on,94,0,3,,,,,,,,,2,,,73,0
72096,note_on,2,0,1,,,,,,,,,11,,,68,110
72096,note_on,2,0,3,,,,,,,,,2,,,68,110
72096,note_on,2,0,2,,,,,,,,,0,,,68,110
72190,note_on,94,0,3,,,,,,,,,2,,,68,0
72190,note_on,94,0,2,,,,,,,,,0,,,68,0
72190,note_on,94,0,1,,,,,,,,,11,,,68,0
72192,note_on,2,0,3,,,,,,,,,2,,,73,110
72192,note_on,2,0,2,,,,,,,,,0,,,73,110
72192,note_on,2,0,1,,,,,,,,,11,,,73,110
72256,note_on,256,0,4,,,,,,,,,4,,,68,0
72256,note_on,256,0,6,,,,,,,,,8,,,37,0
72256,note_on,256,0,5,,,,,,,,,6,,,49,0
72286,note_on,94,0,1,,,,,,,,,11,,,73,0
72286,note_on,94,0,2,,,,,,,,,0,,,73,0
72286,note_on,94,0,3,,,,,,,,,2,,,73,0
72288,note_on,2,0,1,,,,,,,,,11,,,75,110
72288,note_on,32,0,4,,,,,,,,,4,,,72,75
72288,note_on,32,0,5,,,,,,,,,6,,,56,92
72288,note_on,32,0,6,,,,,,,,,8,,,44,92
72288,note_on,2,0,3,,,,,,,,,2,,,75,110
72288,note_on,2,0,2,,,,,,,,,0,,,75,110
72382,note_on,94,0,3,,,,,,,,,2,,,75,0
72382,note_on,94,0,2,,,,,,,,,0,,,75,0
72382,note_on,94,0,1,,,,,,,,,11,,,75,0
72384,note_on,2,0,2,,,,,,,,,0,,,76,110
72384,note_on,2,0,1,,,,,,,,,11,,,76,110
72384,note_on,2,0,3,,,,,,,,,2,,,76,110
72478,note_on,94,0,2,,,,,,,,,0,,,76,0
72478,note_on,94,0,1,,,,,,,,,11,,,76,0
72478,note_on,94,0,3,,,,,,,,,2,,,76,0
72480,note_on,2,0,3,,,,,,,,,2,,,78,110
72480,note_on,2,0,1,,,,,,,,,11,,,78,110
72480,note_on,2,0,2,,,,,,,,,0,,,78,110
72544,note_on,256,0,4,,,,,,,,,4,,,72,0
72544,note_on,256,0,5,,,,,,,,,6,,,56,0
72544,note_on,256,0,6,,,,,,,,,8,,,44,0
72574,note_on,94,0,2,,,,,,,,,0,,,78,0
72574,note_on,94,0,3,,,,,,,,,2,,,78,0
72574,note_on,94,0,1,,,,,,,,,11,,,78,0
72576,note_on,2,0,2,,,,,,,,,0,,,78,110
72576,note_on,32,0,5,,,,,,,,,6,,,61,92
72576,note_on,2,0,1,,,,,,,,,11,,,78,110
72576,note_on,32,0,4,,,,,,,,,4,,,68,75
72576,note_on,2,0,3,,,,,,,,,2,,,78,110
72576,note_on,32,0,6,,,,,,,,,8,,,49,92
72832,note_on,256,0,1,,,,,,,,,11,,,78,0
72832,note_on,256,0,6,,,,,,,,,8,,,49,0
72832,note_on,256,0,5,,,,,,,,,6,,,61,0
72832,note_on,256,0,2,,,,,,,,,0,,,78,0
72832,note_on,256,0,3,,,,,,,,,2,,,78,0
72832,note_on,256,0,4,,,,,,,,,4,,,68,0
72864,note_on,32,0,4,,,,,,,,,4,,,68,75
72864,note_on,32,0,5,,,,,,,,,6,,,49,92
72864,note_on,32,0,6,,,,,,,,,8,,,37,92
72864,note_on,32,0,3,,,,,,,,,2,,,76,110
72864,note_on,32,0,1,,,,,,,,,11,,,76,110
72864,note_on,32,0,2,,,,,,,,,0,,,76,110
72958,note_on,94,0,3,,,,,,,,,2,,,76,0
72958,note_on,94,0,1,,,,,,,,,11,,,76,0
72958,note_on,94,0,6,,,,,,,,,8,,,37,0
72958,note_on,94,0,2,,,,,,,,,0,,,76,0
72958,note_on,94,0,5,,,,,,,,,6,,,49,0
72958,note_on,94,0,4,,,,,,,,,4,,,68,0
73056,note_on,98,0,3,,,,,,,,,2,,,80,110
73056,note_on,98,0,1,,,,,,,,,11,,,80,110
73056,note_on,98,0,2,,,,,,,,,0,,,80,110
73150,note_on,94,0,3,,,,,,,,,2,,,80,0
73150,note_on,94,0,2,,,,,,,,,0,,,80,0
73150,note_on,94,0,1,,,,,,,,,11,,,80,0
73152,note_on,2,0,3,,,,,,,,,2,,,81,110
73152,note_on,2,0,1,,,,,,,,,11,,,81,110
73152,note_on,194,0,4,,,,,,,,,4,,,61,75
73152,note_on,194,0,5,,,,,,,,,6,,,54,92
73152,note_on,194,0,6,,,,,,,,,8,,,42,92
73152,note_on,2,0,2,,,,,,,,,0,,,81,110
73198,note_on,46,0,1,,,,,,,,,11,,,81,0
73198,note_on,46,0,2,,,,,,,,,0,,,81,0
73198,note_on,46,0,3,,,,,,,,,2,,,81,0
73200,note_on,2,0,2,,,,,,,,,0,,,80,110
73200,note_on,2,0,3,,,,,,,,,2,,,80,110
73200,note_on,2,0,1,,,,,,,,,11,,,80,110
73246,note_on,46,0,2,,,,,,,,,0,,,80,0
73246,note_on,46,0,3,,,,,,,,,2,,,80,0
73246,note_on,46,0,1,,,,,,,,,11,,,80,0
73248,note_on,2,0,3,,,,,,,,,2,,,78,110
73248,note_on,2,0,2,,,,,,,,,0,,,78,110
73248,note_on,2,0,1,,,,,,,,,11,,,78,110
73342,note_on,94,0,1,,,,,,,,,11,,,78,0
73342,note_on,94,0,2,,,,,,,,,0,,,78,0
73342,note_on,94,0,3,,,,,,,,,2,,,78,0
73344,note_on,2,0,3,,,,,,,,,2,,,78,110
73344,note_on,2,0,2,,,,,,,,,0,,,78,110
73344,note_on,2,0,1,,,,,,,,,11,,,78,110
73408,note_on,256,0,5,,,,,,,,,6,,,54,0
73408,note_on,256,0,6,,,,,,,,,8,,,42,0
73408,note_on,256,0,4,,,,,,,,,4,,,61,0
73438,note_on,94,0,1,,,,,,,,,11,,,78,0
73438,note_on,94,0,3,,,,,,,,,2,,,78,0
73438,note_on,94,0,2,,,,,,,,,0,,,78,0
73440,note_on,32,0,4,,,,,,,,,4,,,63,75
73440,note_on,2,0,1,,,,,,,,,11,,,78,110
73440,note_on,32,0,5,,,,,,,,,6,,,54,92
73440,note_on,2,0,3,,,,,,,,,2,,,78,110
73440,note_on,32,0,6,,,,,,,,,8,,,42,92
73440,note_on,2,0,2,,,,,,,,,0,,,78,110
73486,note_on,46,0,3,,,,,,,,,2,,,78,0
73486,note_on,46,0,1,,,,,,,,,11,,,78,0
73486,note_on,46,0,2,,,,,,,,,0,,,78,0
73488,note_on,2,0,3,,,,,,,,,2,,,76,110
73488,note_on,2,0,1,,,,,,,,,11,,,76,110
73488,note_on,2,0,2,,,,,,,,,0,,,76,110
73534,note_on,46,0,1,,,,,,,,,11,,,76,0
73534,note_on,46,0,3,,,,,,,,,2,,,76,0
73534,note_on,46,0,2,,,,,,,,,0,,,76,0
73536,note_on,2,0,3,,,,,,,,,2,,,75,110
73536,note_on,2,0,1,,,,,,,,,11,,,75,110
73536,note_on,2,0,2,,,,,,,,,0,,,75,110
73630,note_on,94,0,2,,,,,,,,,0,,,75,0
73630,note_on,94,0,3,,,,,,,,,2,,,75,0
73630,note_on,94,0,1,,,,,,,,,11,,,75,0
73632,note_on,2,0,2,,,,,,,,,0,,,75,110
73632,note_on,2,0,3,,,,,,,,,2,,,75,110
73632,note_on,2,0,1,,,,,,,,,11,,,75,110
73696,note_on,256,0,4,,,,,,,,,4,,,63,0
73696,note_on,256,0,5,,,,,,,,,6,,,54,0
73696,note_on,256,0,6,,,,,,,,,8,,,42,0
73726,note_on,94,0,2,,,,,,,,,0,,,75,0
73726,note_on,94,0,1,,,,,,,,,11,,,75,0
73726,note_on,94,0,3,,,,,,,,,2,,,75,0
73728,note_on,32,0,6,,,,,,,,,8,,,42,92
73728,note_on,2,0,1,,,,,,,,,11,,,75,110
73728,note_on,32,0,5,,,,,,,,,6,,,54,92
73728,note_on,32,0,4,,,,,,,,,4,,,69,75
73728,note_on,2,0,2,,,,,,,,,0,,,75,110
73728,note_on,2,0,3,,,,,,,,,2,,,75,110
73774,note_on,46,0,3,,,,,,,,,2,,,75,0
73774,note_on,46,0,1,,,,,,,,,11,,,75,0
73774,note_on,46,0,2,,,,,,,,,0,,,75,0
73776,note_on,2,0,3,,,,,,,,,2,,,76,110
73776,note_on,2,0,1,,,,,,,,,11,,,76,110
73776,note_on,2,0,2,,,,,,,,,0,,,76,110
73822,note_on,46,0,1,,,,,,,,,11,,,76,0
73822,note_on,46,0,2,,,,,,,,,0,,,76,0
73822,note_on,46,0,3,,,,,,,,,2,,,76,0
73824,note_on,2,0,2,,,,,,,,,0,,,78,110
73824,note_on,2,0,3,,,,,,,,,2,,,78,110
73824,note_on,2,0,1,,,,,,,,,11,,,78,110
73918,note_on,94,0,2,,,,,,,,,0,,,78,0
73918,note_on,94,0,3,,,,,,,,,2,,,78,0
73918,note_on,94,0,1,,,,,,,,,11,,,78,0
73920,note_on,2,0,2,,,,,,,,,0,,,78,110
73920,note_on,2,0,3,,,,,,,,,2,,,78,110
73920,note_on,2,0,1,,,,,,,,,11,,,78,110
73984,note_on,256,0,4,,,,,,,,,4,,,69,0
73984,note_on,256,0,5,,,,,,,,,6,,,54,0
73984,note_on,256,0,6,,,,,,,,,8,,,42,0
74014,note_on,94,0,3,,,,,,,,,2,,,78,0
74014,note_on,94,0,2,,,,,,,,,0,,,78,0
74014,note_on,94,0,1,,,,,,,,,11,,,78,0
74016,note_on,32,0,4,,,,,,,,,4,,,69,75
74016,note_on,32,0,6,,,,,,,,,8,,,42,92
74016,note_on,2,0,1,,,,,,,,,11,,,78,110
74016,note_on,2,0,3,,,,,,,,,2,,,78,110
74016,note_on,32,0,5,,,,,,,,,6,,,54,92
74016,note_on,2,0,2,,,,,,,,,0,,,78,110
74062,note_on,46,0,1,,,,,,,,,11,,,78,0
74062,note_on,46,0,3,,,,,,,,,2,,,78,0
74062,note_on,46,0,2,,,,,,,,,0,,,78,0
74064,note_on,2,0,1,,,,,,,,,11,,,80,110
74064,note_on,2,0,3,,,,,,,,,2,,,80,110
74064,note_on,2,0,2,,,,,,,,,0,,,80,110
74110,note_on,46,0,1,,,,,,,,,11,,,80,0
74110,note_on,46,0,2,,,,,,,,,0,,,80,0
74110,note_on,46,0,3,,,,,,,,,2,,,80,0
74112,note_on,2,0,1,,,,,,,,,11,,,81,110
74112,note_on,2,0,3,,,,,,,,,2,,,81,110
74112,note_on,2,0,2,,,,,,,,,0,,,81,110
74206,note_on,94,0,1,,,,,,,,,11,,,81,0
74206,note_on,94,0,2,,,,,,,,,0,,,81,0
74206,note_on,94,0,3,,,,,,,,,2,,,81,0
74208,note_on,2,0,2,,,,,,,,,0,,,81,110
74208,note_on,2,0,3,,,,,,,,,2,,,81,110
74208,note_on,2,0,1,,,,,,,,,11,,,81,110
74272,note_on,256,0,6,,,,,,,,,8,,,42,0
74272,note_on,256,0,5,,,,,,,,,6,,,54,0
74272,note_on,256,0,4,,,,,,,,,4,,,69,0
74302,note_on,94,0,3,,,,,,,,,2,,,81,0
74302,note_on,94,0,1,,,,,,,,,11,,,81,0
74302,note_on,94,0,2,,,,,,,,,0,,,81,0
74304,note_on,32,0,5,,,,,,,,,6,,,56,92
74304,note_on,2,0,1,,,,,,,,,11,,,72,110
74304,note_on,2,0,2,,,,,,,,,0,,,72,110
74304,note_on,32,0,4,,,,,,,,,4,,,63,75
74304,note_on,32,0,6,,,,,,,,,8,,,44,92
74304,note_on,2,0,3,,,,,,,,,2,,,72,110
74782,note_on,478,0,2,,,,,,,,,0,,,72,0
74782,note_on,478,0,6,,,,,,,,,8,,,44,0
74782,note_on,478,0,5,,,,,,,,,6,,,56,0
74782,note_on,478,0,4,,,,,,,,,4,,,63,0
74782,note_on,478,0,1,,,,,,,,,11,,,72,0
74782,note_on,478,0,3,,,,,,,,,2,,,72,0
74784,note_on,2,0,2,,,,,,,,,0,,,80,110
74784,note_on,2,0,3,,,,,,,,,2,,,80,110
74784,note_on,2,0,4,,,,,,,,,4,,,68,75
74784,note_on,2,0,5,,,,,,,,,6,,,56,92
74784,note_on,2,0,6,,,,,,,,,8,,,44,92
74784,note_on,2,0,1,,,,,,,,,11,,,80,110
74878,note_on,94,0,3,,,,,,,,,2,,,80,0
74878,note_on,94,0,5,,,,,,,,,6,,,56,0
74878,note_on,94,0,1,,,,,,,,,11,,,80,0
74878,note_on,94,0,2,,,,,,,,,0,,,80,0
74878,note_on,94,0,4,,,,,,,,,4,,,68,0
74878,note_on,94,0,6,,,,,,,,,8,,,44,0
74880,note_on,2,0,6,,,,,,,,,8,,,49,92
74880,note_on,2,0,2,,,,,,,,,0,,,85,110
74880,note_on,2,0,4,,,,,,,,,4,,,73,75
74880,note_on,2,0,5,,,,,,,,,6,,,61,92
74880,note_on,2,0,3,,,,,,,,,2,,,85,110
74880,note_on,2,0,1,,,,,,,,,11,,,85,110
74974,note_on,94,0,6,,,,,,,,,8,,,49,0
74974,note_on,94,0,1,,,,,,,,,11,,,85,0
74974,note_on,94,0,2,,,,,,,,,0,,,85,0
74974,note_on,94,0,5,,,,,,,,,6,,,61,0
74974,note_on,94,0,3,,,,,,,,,2,,,85,0
74974,note_on,94,0,4,,,,,,,,,4,,,73,0
74976,note_on,2,0,6,,,,,,,,,8,,,44,92
74976,note_on,2,0,2,,,,,,,,,0,,,80,110
74976,note_on,2,0,4,,,,,,,,,4,,,68,75
74976,note_on,2,0,5,,,,,,,,,6,,,56,92
74976,note_on,2,0,3,,,,,,,,,2,,,80,110
74976,note_on,2,0,1,,,,,,,,,11,,,80,110
75070,note_on,94,0,6,,,,,,,,,8,,,44,0
75070,note_on,94,0,4,,,,,,,,,4,,,68,0
75070,note_on,94,0,2,,,,,,,,,0,,,80,0
75070,note_on,94,0,5,,,,,,,,,6,,,56,0
75070,note_on,94,0,1,,,,,,,,,11,,,80,0
75070,note_on,94,0,3,,,,,,,,,2,,,80,0
75072,note_on,2,0,1,,,,,,,,,11,,,78,110
75072,note_on,2,0,3,,,,,,,,,2,,,78,110
75072,note_on,2,0,2,,,,,,,,,0,,,78,110
75072,note_on,2,0,5,,,,,,,,,6,,,54,92
75072,note_on,2,0,6,,,,,,,,,8,,,42,92
75072,note_on,2,0,4,,,,,,,,,4,,,66,75
75166,note_on,94,0,5,,,,,,,,,6,,,54,0
75166,note_on,94,0,6,,,,,,,,,8,,,42,0
75166,note_on,94,0,3,,,,,,,,,2,,,78,0
75166,note_on,94,0,1,,,,,,,,,11,,,78,0
75166,note_on,94,0,4,,,,,,,,,4,,,66,0
75166,note_on,94,0,2,,,,,,,,,0,,,78,0
75168,note_on,2,0,6,,,,,,,,,8,,,40,92
75168,note_on,2,0,3,,,,,,,,,2,,,76,110
75168,note_on,2,0,1,,,,,,,,,11,,,76,110
75168,note_on,2,0,2,,,,,,,,,0,,,76,110
75168,note_on,2,0,4,,,,,,,,,4,,,64,75
75168,note_on,2,0,5,,,,,,,,,6,,,52,92
75262,note_on,94,0,1,,,,,,,,,11,,,76,0
75262,note_on,94,0,2,,,,,,,,,0,,,76,0
75262,note_on,94,0,6,,,,,,,,,8,,,40,0
75262,note_on,94,0,5,,,,,,,,,6,,,52,0
75262,note_on,94,0,4,,,,,,,,,4,,,64,0
75262,note_on,94,0,3,,,,,,,,,2,,,76,0
75264,note_on,2,0,6,,,,,,,,,8,,,39,92
75264,note_on,2,0,1,,,,,,,,,11,,,75,110
75264,note_on,2,0,3,,,,,,,,,2,,,75,110
75264,note_on,2,0,2,,,,,,,,,0,,,75,110
75264,note_on,2,0,5,,,,,,,,,6,,,51,92
75264,note_on,2,0,4,,,,,,,,,4,,,63,75
75358,note_on,94,0,2,,,,,,,,,0,,,75,0
75358,note_on,94,0,6,,,,,,,,,8,,,39,0
75358,note_on,94,0,3,,,,,,,,,2,,,75,0
75358,note_on,94,0,1,,,,,,,,,11,,,75,0
75358,note_on,94,0,5,,,,,,,,,6,,,51,0
75358,note_on,94,0,4,,,,,,,,,4,,,63,0
75360,note_on,2,0,6,,,,,,,,,8,,,37,92
75360,note_on,2,0,3,,,,,,,,,2,,,73,110
75360,note_on,2,0,2,,,,,,,,,0,,,73,110
75360,note_on,2,0,4,,,,,,,,,4,,,61,75
75360,note_on,2,0,1,,,,,,,,,11,,,73,110
75360,note_on,2,0,5,,,,,,,,,6,,,49,92
75454,note_on,94,0,5,,,,,,,,,6,,,49,0
75454,note_on,94,0,4,,,,,,,,,4,,,61,0
75454,note_on,94,0,6,,,,,,,,,8,,,37,0
75454,note_on,94,0,2,,,,,,,,,0,,,73,0
75454,note_on,94,0,1,,,,,,,,,11,,,73,0
75454,note_on,94,0,3,,,,,,,,,2,,,73,0
75456,note_on,2,0,4,,,,,,,,,4,,,73,75
75456,note_on,2,0,5,,,,,,,,,6,,,61,92
75456,note_on,2,0,1,,,,,,,,,11,,,85,110
75456,note_on,2,0,3,,,,,,,,,2,,,85,110
75456,note_on,2,0,2,,,,,,,,,0,,,85,110
75456,note_on,2,0,6,,,,,,,,,8,,,49,92
75550,note_on,94,0,6,,,,,,,,,8,,,49,0
75550,note_on,94,0,2,,,,,,,,,0,,,85,0
75550,note_on,94,0,3,,,,,,,,,2,,,85,0
75550,note_on,94,0,4,,,,,,,,,4,,,73,0
75550,note_on,94,0,1,,,,,,,,,11,,,85,0
75550,note_on,94,0,5,,,,,,,,,6,,,61,0
75552,note_on,2,0,4,,,,,,,,,4,,,68,75
75552,note_on,2,0,6,,,,,,,,,8,,,44,92
75552,note_on,2,0,5,,,,,,,,,6,,,56,92
75552,note_on,2,0,2,,,,,,,,,0,,,80,110
75552,note_on,2,0,1,,,,,,,,,11,,,80,110
75552,note_on,2,0,3,,,,,,,,,2,,,80,110
75646,note_on,94,0,1,,,,,,,,,11,,,80,0
75646,note_on,94,0,4,,,,,,,,,4,,,68,0
75646,note_on,94,0,3,,,,,,,,,2,,,80,0
75646,note_on,94,0,6,,,,,,,,,8,,,44,0
75646,note_on,94,0,2,,,,,,,,,0,,,80,0
75646,note_on,94,0,5,,,,,,,,,6,,,56,0
75648,note_on,2,0,4,,,,,,,,,4,,,66,75
75648,note_on,2,0,1,,,,,,,,,11,,,78,110
75648,note_on,2,0,2,,,,,,,,,0,,,78,110
75648,note_on,2,0,6,,,,,,,,,8,,,42,92
75648,note_on,2,0,5,,,,,,,,,6,,,54,92
75648,note_on,2,0,3,,,,,,,,,2,,,78,110
75742,note_on,94,0,2,,,,,,,,,0,,,78,0
75742,note_on,94,0,3,,,,,,,,,2,,,78,0
75742,note_on,94,0,1,,,,,,,,,11,,,78,0
75742,note_on,94,0,4,,,,,,,,,4,,,66,0
75742,note_on,94,0,5,,,,,,,,,6,,,54,0
75742,note_on,94,0,6,,,,,,,,,8,,,42,0
75744,note_on,2,0,4,,,,,,,,,4,,,64,75
75744,note_on,2,0,5,,,,,,,,,6,,,52,92
75744,note_on,2,0,2,,,,,,,,,0,,,76,110
75744,note_on,2,0,1,,,,,,,,,11,,,76,110
75744,note_on,2,0,6,,,,,,,,,8,,,40,92
75744,note_on,2,0,3,,,,,,,,,2,,,76,110
75838,note_on,94,0,5,,,,,,,,,6,,,52,0
75838,note_on,94,0,3,,,,,,,,,2,,,76,0
75838,note_on,94,0,1,,,,,,,,,11,,,76,0
75838,note_on,94,0,6,,,,,,,,,8,,,40,0
75838,note_on,94,0,4,,,,,,,,,4,,,64,0
75838,note_on,94,0,2,,,,,,,,,0,,,76,0
75840,note_on,2,0,1,,,,,,,,,11,,,75,110
75840,note_on,2,0,6,,,,,,,,,8,,,39,92
75840,note_on,2,0,2,,,,,,,,,0,,,75,110
75840,note_on,2,0,3,,,,,,,,,2,,,75,110
75840,note_on,2,0,5,,,,,,,,,6,,,51,92
75840,note_on,2,0,4,,,,,,,,,4,,,63,75
75934,note_on,94,0,2,,,,,,,,,0,,,75,0
75934,note_on,94,0,6,,,,,,,,,8,,,39,0
75934,note_on,94,0,1,,,,,,,,,11,,,75,0
75934,note_on,94,0,5,,,,,,,,,6,,,51,0
75934,note_on,94,0,4,,,,,,,,,4,,,63,0
75934,note_on,94,0,3,,,,,,,,,2,,,75,0
75936,note_on,2,0,3,,,,,,,,,2,,,73,110
75936,note_on,2,0,4,,,,,,,,,4,,,61,75
75936,note_on,2,0,5,,,,,,,,,6,,,49,92
75936,note_on,2,0,1,,,,,,,,,11,,,73,110
75936,note_on,2,0,2,,,,,,,,,0,,,73,110
75936,note_on,2,0,6,,,,,,,,,8,,,37,92
76030,note_on,94,0,5,,,,,,,,,6,,,49,0
76030,note_on,94,0,4,,,,,,,,,4,,,61,0
76030,note_on,94,0,3,,,,,,,,,2,,,73,0
76030,note_on,94,0,1,,,,,,,,,11,,,73,0
76030,note_on,94,0,6,,,,,,,,,8,,,37,0
76030,note_on,94,0,2,,,,,,,,,0,,,73,0
76032,note_on,2,0,6,,,,,,,,,8,,,37,92
76032,note_on,2,0,3,,,,,,,,,2,,,73,110
76032,note_on,2,0,1,,,,,,,,,11,,,76,110
76032,note_on,2,0,2,,,,,,,,,0,,,76,110
76032,note_on,2,0,4,,,,,,,,,4,,,68,75
76032,note_on,2,0,5,,,,,,,,,6,,,49,92
76288,note_on,256,0,3,,,,,,,,,2,,,73,0
76288,note_on,256,0,4,,,,,,,,,4,,,68,0
76288,note_on,256,0,6,,,,,,,,,8,,,37,0
76288,note_on,256,0,1,,,,,,,,,11,,,76,0
76288,note_on,256,0,5,,,,,,,,,6,,,49,0
76288,note_on,256,0,2,,,,,,,,,0,,,76,0
76320,note_on,32,0,6,,,,,,,,,8,,,44,92
76320,note_on,32,0,3,,,,,,,,,2,,,72,110
76320,note_on,32,0,1,,,,,,,,,11,,,75,110
76320,note_on,32,0,5,,,,,,,,,6,,,56,92
76320,note_on,32,0,4,,,,,,,,,4,,,68,75
76320,note_on,32,0,2,,,,,,,,,0,,,75,110
76576,note_on,256,0,1,,,,,,,,,11,,,75,0
76576,note_on,256,0,2,,,,,,,,,0,,,75,0
76576,note_on,256,0,5,,,,,,,,,6,,,56,0
76576,note_on,256,0,3,,,,,,,,,2,,,72,0
76576,note_on,256,0,4,,,,,,,,,4,,,68,0
76576,note_on,256,0,6,,,,,,,,,8,,,44,0
76608,note_on,32,0,5,,,,,,,,,6,,,49,92
76608,note_on,32,0,4,,,,,,,,,4,,,64,75
76608,note_on,32,0,6,,,,,,,,,8,,,37,92
76608,note_on,32,0,3,,,,,,,,,2,,,73,110
76608,note_on,32,0,2,,,,,,,,,0,,,73,110
76608,note_on,32,0,1,,,,,,,,,11,,,73,110
77086,note_on,478,0,3,,,,,,,,,2,,,73,0
77086,note_on,478,0,5,,,,,,,,,6,,,49,0
77086,note_on,478,0,4,,,,,,,,,4,,,64,0
77086,note_on,478,0,1,,,,,,,,,11,,,73,0
77086,note_on,478,0,2,,,,,,,,,0,,,73,0
77086,note_on,478,0,6,,,,,,,,,8,,,37,0
77088,note_on,2,0,4,,,,,,,,,4,,,68,75
77088,note_on,2,0,6,,,,,,,,,8,,,44,92
77088,note_on,2,0,3,,,,,,,,,2,,,80,110
77088,note_on,2,0,2,,,,,,,,,0,,,80,110
77088,note_on,2,0,1,,,,,,,,,11,,,80,110
77088,note_on,2,0,5,,,,,,,,,6,,,56,92
77182,note_on,94,0,5,,,,,,,,,6,,,56,0
77182,note_on,94,0,2,,,,,,,,,0,,,80,0
77182,note_on,94,0,3,,,,,,,,,2,,,80,0
77182,note_on,94,0,6,,,,,,,,,8,,,44,0
77182,note_on,94,0,1,,,,,,,,,11,,,80,0
77182,note_on,94,0,4,,,,,,,,,4,,,68,0
77184,note_on,2,0,2,,,,,,,,,0,,,85,110
77184,note_on,2,0,1,,,,,,,,,11,,,85,110
77184,note_on,2,0,6,,,,,,,,,8,,,49,92
77184,note_on,2,0,4,,,,,,,,,4,,,73,75
77184,note_on,2,0,5,,,,,,,,,6,,,61,92
77184,note_on,2,0,3,,,,,,,,,2,,,85,110
77278,note_on,94,0,4,,,,,,,,,4,,,73,0
77278,note_on,94,0,2,,,,,,,,,0,,,85,0
77278,note_on,94,0,6,,,,,,,,,8,,,49,0
77278,note_on,94,0,5,,,,,,,,,6,,,61,0
77278,note_on,94,0,3,,,,,,,,,2,,,85,0
77278,note_on,94,0,1,,,,,,,,,11,,,85,0
77280,note_on,2,0,1,,,,,,,,,11,,,80,110
77280,note_on,2,0,5,,,,,,,,,6,,,56,92
77280,note_on,2,0,6,,,,,,,,,8,,,44,92
77280,note_on,2,0,3,,,,,,,,,2,,,80,110
77280,note_on,2,0,4,,,,,,,,,4,,,68,75
77280,note_on,2,0,2,,,,,,,,,0,,,80,110
77374,note_on,94,0,2,,,,,,,,,0,,,80,0
77374,note_on,94,0,3,,,,,,,,,2,,,80,0
77374,note_on,94,0,1,,,,,,,,,11,,,80,0
77374,note_on,94,0,5,,,,,,,,,6,,,56,0
77374,note_on,94,0,4,,,,,,,,,4,,,68,0
77374,note_on,94,0,6,,,,,,,,,8,,,44,0
77376,note_on,2,0,2,,,,,,,,,0,,,78,110
77376,note_on,2,0,5,,,,,,,,,6,,,54,92
77376,note_on,2,0,1,,,,,,,,,11,,,78,110
77376,note_on,2,0,6,,,,,,,,,8,,,42,92
77376,note_on,2,0,4,,,,,,,,,4,,,66,75
77376,note_on,2,0,3,,,,,,,,,2,,,78,110
77470,note_on,94,0,6,,,,,,,,,8,,,42,0
77470,note_on,94,0,3,,,,,,,,,2,,,78,0
77470,note_on,94,0,1,,,,,,,,,11,,,78,0
77470,note_on,94,0,5,,,,,,,,,6,,,54,0
77470,note_on,94,0,4,,,,,,,,,4,,,66,0
77470,note_on,94,0,2,,,,,,,,,0,,,78,0
77472,note_on,2,0,3,,,,,,,,,2,,,76,110
77472,note_on,2,0,6,,,,,,,,,8,,,40,92
77472,note_on,2,0,1,,,,,,,,,11,,,76,110
77472,note_on,2,0,5,,,,,,,,,6,,,52,92
77472,note_on,2,0,2,,,,,,,,,0,,,76,110
77472,note_on,2,0,4,,,,,,,,,4,,,64,75
77566,note_on,94,0,5,,,,,,,,,6,,,52,0
77566,note_on,94,0,3,,,,,,,,,2,,,76,0
77566,note_on,94,0,2,,,,,,,,,0,,,76,0
77566,note_on,94,0,1,,,,,,,,,11,,,76,0
77566,note_on,94,0,6,,,,,,,,,8,,,40,0
77566,note_on,94,0,4,,,,,,,,,4,,,64,0
77568,note_on,2,0,3,,,,,,,,,2,,,75,110
77568,note_on,2,0,6,,,,,,,,,8,,,39,92
77568,note_on,2,0,1,,,,,,,,,11,,,75,110
77568,note_on,2,0,5,,,,,,,,,6,,,51,92
77568,note_on,2,0,2,,,,,,,,,0,,,75,110
77568,note_on,2,0,4,,,,,,,,,4,,,63,75
77662,note_on,94,0,6,,,,,,,,,8,,,39,0
77662,note_on,94,0,4,,,,,,,,,4,,,63,0
77662,note_on,94,0,5,,,,,,,,,6,,,51,0
77662,note_on,94,0,3,,,,,,,,,2,,,75,0
77662,note_on,94,0,1,,,,,,,,,11,,,75,0
77662,note_on,94,0,2,,,,,,,,,0,,,75,0
77664,note_on,2,0,3,,,,,,,,,2,,,73,110
77664,note_on,2,0,2,,,,,,,,,0,,,73,110
77664,note_on,2,0,4,,,,,,,,,4,,,61,75
77664,note_on,2,0,6,,,,,,,,,8,,,37,92
77664,note_on,2,0,1,,,,,,,,,11,,,73,110
77664,note_on,2,0,5,,,,,,,,,6,,,49,92
77758,note_on,94,0,1,,,,,,,,,11,,,73,0
77758,note_on,94,0,3,,,,,,,,,2,,,73,0
77758,note_on,94,0,2,,,,,,,,,0,,,73,0
77758,note_on,94,0,4,,,,,,,,,4,,,61,0
77758,note_on,94,0,5,,,,,,,,,6,,,49,0
77758,note_on,94,0,6,,,,,,,,,8,,,37,0
77760,note_on,2,0,3,,,,,,,,,2,,,85,110
77760,note_on,2,0,5,,,,,,,,,6,,,61,92
77760,note_on,2,0,6,,,,,,,,,8,,,49,92
77760,note_on,2,0,4,,,,,,,,,4,,,73,75
77760,note_on,2,0,2,,,,,,,,,0,,,85,110
77760,note_on,2,0,1,,,,,,,,,11,,,85,110
77854,note_on,94,0,6,,,,,,,,,8,,,49,0
77854,note_on,94,0,2,,,,,,,,,0,,,85,0
77854,note_on,94,0,4,,,,,,,,,4,,,73,0
77854,note_on,94,0,5,,,,,,,,,6,,,61,0
77854,note_on,94,0,1,,,,,,,,,11,,,85,0
77854,note_on,94,0,3,,,,,,,,,2,,,85,0
77856,note_on,2,0,3,,,,,,,,,2,,,80,110
77856,note_on,2,0,1,,,,,,,,,11,,,80,110
77856,note_on,2,0,6,,,,,,,,,8,,,44,92
77856,note_on,2,0,2,,,,,,,,,0,,,80,110
77856,note_on,2,0,5,,,,,,,,,6,,,56,92
77856,note_on,2,0,4,,,,,,,,,4,,,68,75
77950,note_on,94,0,3,,,,,,,,,2,,,80,0
77950,note_on,94,0,5,,,,,,,,,6,,,56,0
77950,note_on,94,0,6,,,,,,,,,8,,,44,0
77950,note_on,94,0,1,,,,,,,,,11,,,80,0
77950,note_on,94,0,4,,,,,,,,,4,,,68,0
77950,note_on,94,0,2,,,,,,,,,0,,,80,0
77952,note_on,2,0,4,,,,,,,,,4,,,66,75
77952,note_on,2,0,5,,,,,,,,,6,,,54,92
77952,note_on,2,0,3,,,,,,,,,2,,,78,110
77952,note_on,2,0,2,,,,,,,,,0,,,78,110
77952,note_on,2,0,6,,,,,,,,,8,,,42,92
77952,note_on,2,0,1,,,,,,,,,11,,,78,110
78046,note_on,94,0,6,,,,,,,,,8,,,42,0
78046,note_on,94,0,1,,,,,,,,,11,,,78,0
78046,note_on,94,0,5,,,,,,,,,6,,,54,0
78046,note_on,94,0,3,,,,,,,,,2,,,78,0
78046,note_on,94,0,4,,,,,,,,,4,,,66,0
78046,note_on,94,0,2,,,,,,,,,0,,,78,0
78048,note_on,2,0,3,,,,,,,,,2,,,76,110
78048,note_on,2,0,6,,,,,,,,,8,,,40,92
78048,note_on,2,0,4,,,,,,,,,4,,,64,75
78048,note_on,2,0,1,,,,,,,,,11,,,76,110
78048,note_on,2,0,2,,,,,,,,,0,,,76,110
78048,note_on,2,0,5,,,,,,,,,6,,,52,92
78142,note_on,94,0,1,,,,,,,,,11,,,76,0
78142,note_on,94,0,2,,,,,,,,,0,,,76,0
78142,note_on,94,0,6,,,,,,,,,8,,,40,0
78142,note_on,94,0,3,,,,,,,,,2,,,76,0
78142,note_on,94,0,4,,,,,,,,,4,,,64,0
78142,note_on,94,0,5,,,,,,,,,6,,,52,0
78144,note_on,2,0,4,,,,,,,,,4,,,63,75
78144,note_on,2,0,5,,,,,,,,,6,,,51,92
78144,note_on,2,0,1,,,,,,,,,11,,,75,110
78144,note_on,2,0,3,,,,,,,,,2,,,75,110
78144,note_on,2,0,2,,,,,,,,,0,,,75,110
78144,note_on,2,0,6,,,,,,,,,8,,,39,92
78238,note_on,94,0,5,,,,,,,,,6,,,51,0
78238,note_on,94,0,6,,,,,,,,,8,,,39,0
78238,note_on,94,0,4,,,,,,,,,4,,,63,0
78238,note_on,94,0,1,,,,,,,,,11,,,75,0
78238,note_on,94,0,3,,,,,,,,,2,,,75,0
78238,note_on,94,0,2,,,,,,,,,0,,,75,0
78240,note_on,2,0,2,,,,,,,,,0,,,73,110
78240,note_on,2,0,5,,,,,,,,,6,,,49,92
78240,note_on,2,0,6,,,,,,,,,8,,,37,92
78240,note_on,2,0,4,,,,,,,,,4,,,61,75
78240,note_on,2,0,1,,,,,,,,,11,,,73,110
78240,note_on,2,0,3,,,,,,,,,2,,,73,110
78334,note_on,94,0,2,,,,,,,,,0,,,73,0
78334,note_on,94,0,6,,,,,,,,,8,,,37,0
78334,note_on,94,0,5,,,,,,,,,6,,,49,0
78334,note_on,94,0,3,,,,,,,,,2,,,73,0
78334,note_on,94,0,4,,,,,,,,,4,,,61,0
78334,note_on,94,0,1,,,,,,,,,11,,,73,0
78336,note_on,2,0,3,,,,,,,,,2,,,73,110
78336,note_on,2,0,6,,,,,,,,,8,,,37,92
78336,note_on,2,0,1,,,,,,,,,11,,,76,110
78336,note_on,2,0,4,,,,,,,,,4,,,68,75
78336,note_on,2,0,2,,,,,,,,,0,,,76,110
78336,note_on,2,0,5,,,,,,,,,6,,,49,92
78592,note_on,256,0,3,,,,,,,,,2,,,73,0
78592,note_on,256,0,4,,,,,,,,,4,,,68,0
78592,note_on,256,0,2,,,,,,,,,0,,,76,0
78592,note_on,256,0,6,,,,,,,,,8,,,37,0
78592,note_on,256,0,1,,,,,,,,,11,,,76,0
78592,note_on,256,0,5,,,,,,,,,6,,,49,0
78624,note_on,32,0,5,,,,,,,,,6,,,56,92
78624,note_on,32,0,4,,,,,,,,,4,,,68,75
78624,note_on,32,0,3,,,,,,,,,2,,,72,110
78624,note_on,32,0,6,,,,,,,,,8,,,44,92
78624,note_on,32,0,1,,,,,,,,,11,,,75,110
78624,note_on,32,0,2,,,,,,,,,0,,,75,110
78880,note_on,256,0,6,,,,,,,,,8,,,44,0
78880,note_on,256,0,1,,,,,,,,,11,,,75,0
78880,note_on,256,0,4,,,,,,,,,4,,,68,0
78880,note_on,256,0,2,,,,,,,,,0,,,75,0
78880,note_on,256,0,3,,,,,,,,,2,,,72,0
78880,note_on,256,0,5,,,,,,,,,6,,,56,0
78912,note_on,32,0,2,,,,,,,,,0,,,73,110
78912,note_on,32,0,5,,,,,,,,,6,,,49,92
78912,note_on,32,0,6,,,,,,,,,8,,,37,92
78912,note_on,32,0,4,,,,,,,,,4,,,64,75
78912,note_on,32,0,3,,,,,,,,,2,,,73,110
78912,note_on,32,0,1,,,,,,,,,11,,,73,110
79006,note_on,94,0,1,,,,,,,,,11,,,73,0
79008,note_on,2,0,1,,,,,,,,,11,,,72,110
79102,note_on,94,0,1,,,,,,,,,11,,,72,0
79104,note_on,2,0,1,,,,,,,,,11,,,73,110
79168,note_on,256,0,5,,,,,,,,,6,,,49,0
79168,note_on,256,0,6,,,,,,,,,8,,,37,0
79198,note_on,94,0,1,,,,,,,,,11,,,73,0
79200,note_on,32,0,5,,,,,,,,,6,,,56,92
79200,note_on,2,0,1,,,,,,,,,11,,,75,110
79246,note_on,334,0,2,,,,,,,,,0,,,73,0
79246,note_on,334,0,3,,,,,,,,,2,,,73,0
79246,note_on,334,0,4,,,,,,,,,4,,,64,0
79294,note_on,94,0,1,,,,,,,,,11,,,75,0
79296,note_on,2,0,1,,,,,,,,,11,,,73,110
79390,note_on,94,0,1,,,,,,,,,11,,,73,0
79392,note_on,2,0,1,,,,,,,,,11,,,72,110
79456,note_on,256,0,5,,,,,,,,,6,,,56,0
79486,note_on,94,0,1,,,,,,,,,11,,,72,0
79488,note_on,32,0,5,,,,,,,,,6,,,49,92
79488,note_on,2,0,1,,,,,,,,,11,,,73,110
79582,note_on,94,0,1,,,,,,,,,11,,,73,0
79584,note_on,2,0,1,,,,,,,,,11,,,72,110
79678,note_on,94,0,1,,,,,,,,,11,,,72,0
79680,note_on,2,0,1,,,,,,,,,11,,,73,110
79744,note_on,256,0,5,,,,,,,,,6,,,49,0
79774,note_on,94,0,1,,,,,,,,,11,,,73,0
79776,note_on,2,0,1,,,,,,,,,11,,,75,110
79776,note_on,32,0,5,,,,,,,,,6,,,56,92
79870,note_on,94,0,1,,,,,,,,,11,,,75,0
79872,note_on,2,0,1,,,,,,,,,11,,,73,110
79966,note_on,94,0,1,,,,,,,,,11,,,73,0
79968,note_on,2,0,1,,,,,,,,,11,,,72,110
80032,note_on,256,0,5,,,,,,,,,6,,,56,0
80062,note_on,94,0,1,,,,,,,,,11,,,72,0
80064,note_on,32,0,5,,,,,,,,,6,,,49,92
80064,note_on,2,0,1,,,,,,,,,11,,,73,110
80158,note_on,94,0,1,,,,,,,,,11,,,73,0
80160,note_on,2,0,1,,,,,,,,,11,,,75,110
80254,note_on,94,0,1,,,,,,,,,11,,,75,0
80256,note_on,2,0,1,,,,,,,,,11,,,76,110
80350,note_on,94,0,1,,,,,,,,,11,,,76,0
80352,note_on,2,0,1,,,,,,,,,11,,,78,110
80422,note_on,358,0,5,,,,,,,,,6,,,49,0
80446,note_on,94,0,1,,,,,,,,,11,,,78,0
80448,note_on,2,0,1,,,,,,,,,11,,,80,110
80542,note_on,94,0,1,,,,,,,,,11,,,80,0
80544,note_on,2,0,1,,,,,,,,,11,,,81,110
80638,note_on,94,0,1,,,,,,,,,11,,,81,0
80640,note_on,218,0,5,,,,,,,,,6,,,48,92
80640,note_on,2,0,1,,,,,,,,,11,,,81,110
80896,note_on,256,0,5,,,,,,,,,6,,,48,0
80896,note_on,256,0,1,,,,,,,,,11,,,81,0
80928,note_on,32,0,5,,,,,,,,,6,,,48,92
80928,note_on,32,0,1,,,,,,,,,11,,,80,110
81088,note_on,160,0,1,,,,,,,,,11,,,80,0
81120,note_on,32,0,1,,,,,,,,,11,,,78,110
81184,note_on,256,0,5,,,,,,,,,6,,,48,0
81214,note_on,94,0,1,,,,,,,,,11,,,78,0
81216,note_on,32,0,5,,,,,,,,,6,,,49,92
81216,note_on,2,0,1,,,,,,,,,11,,,76,110
81310,note_on,94,0,1,,,,,,,,,11,,,76,0
81310,note_on,94,0,5,,,,,,,,,6,,,49,0
81312,note_on,2,0,5,,,,,,,,,6,,,56,92
81312,note_on,2,0,1,,,,,,,,,11,,,75,110
81406,note_on,94,0,5,,,,,,,,,6,,,56,0
81406,note_on,94,0,1,,,,,,,,,11,,,75,0
81408,note_on,2,0,5,,,,,,,,,6,,,54,92
81408,note_on,2,0,1,,,,,,,,,11,,,73,110
81502,note_on,94,0,5,,,,,,,,,6,,,54,0
81504,note_on,2,0,5,,,,,,,,,6,,,52,92
81574,note_on,166,0,1,,,,,,,,,11,,,73,0
81598,note_on,94,0,5,,,,,,,,,6,,,52,0
81600,note_on,2,0,5,,,,,,,,,6,,,51,92
81694,note_on,94,0,5,,,,,,,,,6,,,51,0
81696,note_on,2,0,5,,,,,,,,,6,,,49,92
81790,note_on,94,0,5,,,,,,,,,6,,,49,0
81792,note_on,2,0,5,,,,,,,,,6,,,56,92
81792,note_on,218,0,1,,,,,,,,,11,,,80,110
81886,note_on,94,0,1,,,,,,,,,11,,,80,0
81888,note_on,2,0,1,,,,,,,,,11,,,79,110
81982,note_on,94,0,1,,,,,,,,,11,,,79,0
81984,note_on,2,0,1,,,,,,,,,11,,,80,110
82048,note_on,256,0,5,,,,,,,,,6,,,56,0
82078,note_on,94,0,1,,,,,,,,,11,,,80,0
82080,note_on,2,0,1,,,,,,,,,11,,,82,110
82080,note_on,32,0,5,,,,,,,,,6,,,51,92
82174,note_on,94,0,1,,,,,,,,,11,,,82,0
82176,note_on,2,0,1,,,,,,,,,11,,,80,110
82270,note_on,94,0,1,,,,,,,,,11,,,80,0
82272,note_on,2,0,1,,,,,,,,,11,,,79,110
82336,note_on,256,0,5,,,,,,,,,6,,,51,0
82366,note_on,94,0,1,,,,,,,,,11,,,79,0
82368,note_on,2,0,1,,,,,,,,,11,,,80,110
82368,note_on,32,0,5,,,,,,,,,6,,,56,92
82462,note_on,94,0,1,,,,,,,,,11,,,80,0
82464,note_on,2,0,1,,,,,,,,,11,,,79,110
82558,note_on,94,0,1,,,,,,,,,11,,,79,0
82560,note_on,2,0,1,,,,,,,,,11,,,80,110
82624,note_on,256,0,5,,,,,,,,,6,,,56,0
82654,note_on,94,0,1,,,,,,,,,11,,,80,0
82656,note_on,32,0,5,,,,,,,,,6,,,51,92
82656,note_on,2,0,1,,,,,,,,,11,,,82,110
82750,note_on,94,0,1,,,,,,,,,11,,,82,0
82752,note_on,2,0,1,,,,,,,,,11,,,80,110
82846,note_on,94,0,1,,,,,,,,,11,,,80,0
82848,note_on,2,0,1,,,,,,,,,11,,,79,110
82912,note_on,256,0,5,,,,,,,,,6,,,51,0
82942,note_on,94,0,1,,,,,,,,,11,,,79,0
82944,note_on,32,0,5,,,,,,,,,6,,,56,92
82944,note_on,2,0,1,,,,,,,,,11,,,80,110
83038,note_on,94,0,1,,,,,,,,,11,,,80,0
83040,note_on,2,0,1,,,,,,,,,11,,,82,110
83134,note_on,94,0,1,,,,,,,,,11,,,82,0
83136,note_on,2,0,1,,,,,,,,,11,,,83,110
83230,note_on,94,0,1,,,,,,,,,11,,,83,0
83232,note_on,2,0,1,,,,,,,,,11,,,85,110
83278,note_on,334,0,5,,,,,,,,,6,,,56,0
83326,note_on,94,0,1,,,,,,,,,11,,,85,0
83328,note_on,2,0,1,,,,,,,,,11,,,87,110
83422,note_on,94,0,1,,,,,,,,,11,,,87,0
83424,note_on,2,0,1,,,,,,,,,11,,,88,110
83518,note_on,94,0,1,,,,,,,,,11,,,88,0
83520,note_on,2,0,1,,,,,,,,,11,,,88,110
83520,note_on,242,0,5,,,,,,,,,6,,,55,92
83776,note_on,256,0,1,,,,,,,,,11,,,88,0
83776,note_on,256,0,5,,,,,,,,,6,,,55,0
83808,note_on,32,0,5,,,,,,,,,6,,,55,92
83808,note_on,32,0,1,,,,,,,,,11,,,87,110
83968,note_on,160,0,1,,,,,,,,,11,,,87,0
84000,note_on,32,0,1,,,,,,,,,11,,,85,110
84064,note_on,256,0,5,,,,,,,,,6,,,55,0
84094,note_on,94,0,1,,,,,,,,,11,,,85,0
84096,note_on,32,0,5,,,,,,,,,6,,,56,92
84096,note_on,2,0,1,,,,,,,,,11,,,83,110
84190,note_on,94,0,1,,,,,,,,,11,,,83,0
84190,note_on,94,0,5,,,,,,,,,6,,,56,0
84192,note_on,2,0,1,,,,,,,,,11,,,82,110
84192,note_on,2,0,5,,,,,,,,,6,,,63,92
84286,note_on,94,0,5,,,,,,,,,6,,,63,0
84286,note_on,94,0,1,,,,,,,,,11,,,82,0
84288,note_on,2,0,5,,,,,,,,,6,,,61,92
84288,note_on,2,0,1,,,,,,,,,11,,,80,110
84382,note_on,94,0,5,,,,,,,,,6,,,61,0
84384,note_on,2,0,5,,,,,,,,,6,,,59,92
84454,note_on,166,0,1,,,,,,,,,11,,,80,0
84478,note_on,94,0,5,,,,,,,,,6,,,59,0
84480,note_on,2,0,5,,,,,,,,,6,,,58,92
84574,note_on,94,0,5,,,,,,,,,6,,,58,0
84576,note_on,2,0,5,,,,,,,,,6,,,56,92
84670,note_on,94,0,5,,,,,,,,,6,,,56,0
84672,note_on,218,0,1,,,,,,,,,11,,,83,110
84672,note_on,5426,0,4,,,,,,,,,4,,,59,75
84766,note_on,94,0,1,,,,,,,,,11,,,83,0
84768,note_on,2,0,1,,,,,,,,,11,,,86,110
84814,note_on,46,0,1,,,,,,,,,11,,,86,0
84816,note_on,2,0,1,,,,,,,,,11,,,85,110
84862,note_on,46,0,1,,,,,,,,,11,,,85,0
84864,note_on,2,0,1,,,,,,,,,11,,,83,110
84910,note_on,46,0,1,,,,,,,,,11,,,83,0
84912,note_on,2,0,1,,,,,,,,,11,,,81,110
84928,note_on,256,0,4,,,,,,,,,4,,,59,0
84958,note_on,46,0,1,,,,,,,,,11,,,81,0
84960,note_on,2,0,1,,,,,,,,,11,,,80,110
84960,note_on,32,0,4,,,,,,,,,4,,,59,75
85054,note_on,94,0,1,,,,,,,,,11,,,80,0
85056,note_on,2,0,1,,,,,,,,,11,,,83,110
85102,note_on,46,0,1,,,,,,,,,11,,,83,0
85104,note_on,2,0,1,,,,,,,,,11,,,81,110
85150,note_on,46,0,1,,,,,,,,,11,,,81,0
85152,note_on,2,0,1,,,,,,,,,11,,,80,110
85198,note_on,46,0,1,,,,,,,,,11,,,80,0
85200,note_on,2,0,1,,,,,,,,,11,,,78,110
85216,note_on,256,0,4,,,,,,,,,4,,,59,0
85246,note_on,46,0,1,,,,,,,,,11,,,78,0
85248,note_on,32,0,4,,,,,,,,,4,,,61,75
85248,note_on,2,0,1,,,,,,,,,11,,,77,110
85342,note_on,94,0,4,,,,,,,,,4,,,61,0
85344,note_on,2,0,4,,,,,,,,,4,,,68,75
85438,note_on,94,0,4,,,,,,,,,4,,,68,0
85440,note_on,2,0,4,,,,,,,,,4,,,66,75
85504,note_on,256,0,1,,,,,,,,,11,,,77,0
85534,note_on,94,0,4,,,,,,,,,4,,,66,0
85536,note_on,32,0,1,,,,,,,,,11,,,85,110
85536,note_on,2,0,4,,,,,,,,,4,,,65,75
85582,note_on,46,0,1,,,,,,,,,11,,,85,0
85584,note_on,2,0,1,,,,,,,,,11,,,83,110
85630,note_on,94,0,4,,,,,,,,,4,,,65,0
85630,note_on,46,0,1,,,,,,,,,11,,,83,0
85632,note_on,2,0,4,,,,,,,,,4,,,63,75
85632,note_on,2,0,1,,,,,,,,,11,,,85,110
85678,note_on,46,0,1,,,,,,,,,11,,,85,0
85680,note_on,2,0,1,,,,,,,,,11,,,83,110
85726,note_on,46,0,1,,,,,,,,,11,,,83,0
85726,note_on,94,0,4,,,,,,,,,4,,,63,0
85728,note_on,2,0,4,,,,,,,,,4,,,61,75
85728,note_on,2,0,1,,,,,,,,,11,,,85,110
85774,note_on,46,0,1,,,,,,,,,11,,,85,0
85776,note_on,2,0,1,,,,,,,,,11,,,83,110
85822,note_on,94,0,4,,,,,,,,,4,,,61,0
85822,note_on,46,0,1,,,,,,,,,11,,,83,0
85824,note_on,2,0,4,,,,,,,,,4,,,66,75
85824,note_on,2,0,1,,,,,,,,,11,,,81,110
85870,note_on,46,0,1,,,,,,,,,11,,,81,0
85872,note_on,2,0,1,,,,,,,,,11,,,80,110
85918,note_on,94,0,4,,,,,,,,,4,,,66,0
85918,note_on,46,0,1,,,,,,,,,11,,,80,0
85920,note_on,2,0,4,,,,,,,,,4,,,73,75
85920,note_on,2,0,1,,,,,,,,,11,,,78,110
86014,note_on,94,0,4,,,,,,,,,4,,,73,0
86016,note_on,2,0,4,,,,,,,,,4,,,71,75
86080,note_on,160,0,1,,,,,,,,,11,,,78,0
86110,note_on,94,0,4,,,,,,,,,4,,,71,0
86112,note_on,2,0,4,,,,,,,,,4,,,69,75
86206,note_on,94,0,4,,,,,,,,,4,,,69,0
86208,note_on,2,0,4,,,,,,,,,4,,,68,75
86302,note_on,94,0,4,,,,,,,,,4,,,68,0
86304,note_on,2,0,4,,,,,,,,,4,,,66,75
86398,note_on,94,0,4,,,,,,,,,4,,,66,0
86400,note_on,2,0,4,,,,,,,,,4,,,66,75
86400,note_on,320,0,1,,,,,,,,,11,,,81,110
86494,note_on,94,0,1,,,,,,,,,11,,,81,0
86496,note_on,2,0,1,,,,,,,,,11,,,85,110
86542,note_on,46,0,1,,,,,,,,,11,,,85,0
86544,note_on,2,0,1,,,,,,,,,11,,,83,110
86590,note_on,46,0,1,,,,,,,,,11,,,83,0
86592,note_on,2,0,1,,,,,,,,,11,,,81,110
86638,note_on,46,0,1,,,,,,,,,11,,,81,0
86640,note_on,2,0,1,,,,,,,,,11,,,80,110
86656,note_on,256,0,4,,,,,,,,,4,,,66,0
86686,note_on,46,0,1,,,,,,,,,11,,,80,0
86688,note_on,2,0,1,,,,,,,,,11,,,78,110
86688,note_on,32,0,4,,,,,,,,,4,,,66,75
86782,note_on,94,0,1,,,,,,,,,11,,,78,0
86784,note_on,2,0,1,,,,,,,,,11,,,81,110
86830,note_on,46,0,1,,,,,,,,,11,,,81,0
86832,note_on,2,0,1,,,,,,,,,11,,,80,110
86878,note_on,46,0,1,,,,,,,,,11,,,80,0
86880,note_on,2,0,1,,,,,,,,,11,,,78,110
86926,note_on,46,0,1,,,,,,,,,11,,,78,0
86928,note_on,2,0,1,,,,,,,,,11,,,76,110
86944,note_on,256,0,4,,,,,,,,,4,,,66,0
86974,note_on,46,0,1,,,,,,,,,11,,,76,0
86976,note_on,32,0,4,,,,,,,,,4,,,59,75
86976,note_on,2,0,1,,,,,,,,,11,,,75,110
87070,note_on,94,0,4,,,,,,,,,4,,,59,0
87072,note_on,2,0,4,,,,,,,,,4,,,66,75
87166,note_on,94,0,4,,,,,,,,,4,,,66,0
87168,note_on,2,0,4,,,,,,,,,4,,,65,75
87232,note_on,256,0,1,,,,,,,,,11,,,75,0
87262,note_on,94,0,4,,,,,,,,,4,,,65,0
87264,note_on,2,0,4,,,,,,,,,4,,,63,75
87264,note_on,32,0,1,,,,,,,,,11,,,83,110
87310,note_on,46,0,1,,,,,,,,,11,,,83,0
87312,note_on,2,0,1,,,,,,,,,11,,,81,110
87358,note_on,94,0,4,,,,,,,,,4,,,63,0
87358,note_on,46,0,1,,,,,,,,,11,,,81,0
87360,note_on,2,0,1,,,,,,,,,11,,,83,110
87360,note_on,2,0,4,,,,,,,,,4,,,61,75
87406,note_on,46,0,1,,,,,,,,,11,,,83,0
87408,note_on,2,0,1,,,,,,,,,11,,,81,110
87454,note_on,94,0,4,,,,,,,,,4,,,61,0
87454,note_on,46,0,1,,,,,,,,,11,,,81,0
87456,note_on,2,0,4,,,,,,,,,4,,,59,75
87456,note_on,2,0,1,,,,,,,,,11,,,83,110
87502,note_on,46,0,1,,,,,,,,,11,,,83,0
87504,note_on,2,0,1,,,,,,,,,11,,,81,110
87550,note_on,46,0,1,,,,,,,,,11,,,81,0
87550,note_on,94,0,4,,,,,,,,,4,,,59,0
87552,note_on,2,0,1,,,,,,,,,11,,,80,110
87552,note_on,2,0,4,,,,,,,,,4,,,64,75
87598,note_on,46,0,1,,,,,,,,,11,,,80,0
87600,note_on,2,0,1,,,,,,,,,11,,,78,110
87646,note_on,94,0,4,,,,,,,,,4,,,64,0
87646,note_on,46,0,1,,,,,,,,,11,,,78,0
87648,note_on,2,0,1,,,,,,,,,11,,,76,110
87648,note_on,2,0,4,,,,,,,,,4,,,71,75
87742,note_on,94,0,4,,,,,,,,,4,,,71,0
87744,note_on,2,0,4,,,,,,,,,4,,,69,75
87808,note_on,160,0,1,,,,,,,,,11,,,76,0
87838,note_on,94,0,4,,,,,,,,,4,,,69,0
87840,note_on,2,0,4,,,,,,,,,4,,,68,75
87934,note_on,94,0,4,,,,,,,,,4,,,68,0
87936,note_on,2,0,4,,,,,,,,,4,,,66,75
88030,note_on,94,0,4,,,,,,,,,4,,,66,0
88032,note_on,2,0,4,,,,,,,,,4,,,64,75
88126,note_on,94,0,4,,,,,,,,,4,,,64,0
88128,note_on,320,0,1,,,,,,,,,11,,,80,110
88128,note_on,2,0,4,,,,,,,,,4,,,64,75
88222,note_on,94,0,1,,,,,,,,,11,,,80,0
88224,note_on,2,0,1,,,,,,,,,11,,,83,110
88270,note_on,46,0,1,,,,,,,,,11,,,83,0
88272,note_on,2,0,1,,,,,,,,,11,,,81,110
88318,note_on,46,0,1,,,,,,,,,11,,,81,0
88320,note_on,2,0,1,,,,,,,,,11,,,80,110
88366,note_on,46,0,1,,,,,,,,,11,,,80,0
88368,note_on,2,0,1,,,,,,,,,11,,,78,110
88384,note_on,256,0,4,,,,,,,,,4,,,64,0
88414,note_on,46,0,1,,,,,,,,,11,,,78,0
88416,note_on,32,0,4,,,,,,,,,4,,,64,75
88416,note_on,2,0,1,,,,,,,,,11,,,76,110
88510,note_on,94,0,1,,,,,,,,,11,,,76,0
88512,note_on,2,0,1,,,,,,,,,11,,,80,110
88558,note_on,46,0,1,,,,,,,,,11,,,80,0
88560,note_on,2,0,1,,,,,,,,,11,,,78,110
88606,note_on,46,0,1,,,,,,,,,11,,,78,0
88608,note_on,2,0,1,,,,,,,,,11,,,76,110
88654,note_on,46,0,1,,,,,,,,,11,,,76,0
88656,note_on,2,0,1,,,,,,,,,11,,,75,110
88672,note_on,256,0,4,,,,,,,,,4,,,64,0
88702,note_on,46,0,1,,,,,,,,,11,,,75,0
88704,note_on,32,0,4,,,,,,,,,4,,,64,75
88704,note_on,2,0,1,,,,,,,,,11,,,73,110
88798,note_on,94,0,4,,,,,,,,,4,,,64,0
88800,note_on,2,0,4,,,,,,,,,4,,,68,75
88894,note_on,94,0,4,,,,,,,,,4,,,68,0
88896,note_on,2,0,4,,,,,,,,,4,,,66,75
88960,note_on,256,0,1,,,,,,,,,11,,,73,0
88990,note_on,94,0,4,,,,,,,,,4,,,66,0
88992,note_on,32,0,1,,,,,,,,,11,,,81,110
88992,note_on,2,0,4,,,,,,,,,4,,,64,75
89038,note_on,46,0,1,,,,,,,,,11,,,81,0
89040,note_on,2,0,1,,,,,,,,,11,,,80,110
89086,note_on,46,0,1,,,,,,,,,11,,,80,0
89086,note_on,94,0,4,,,,,,,,,4,,,64,0
89088,note_on,2,0,1,,,,,,,,,11,,,81,110
89088,note_on,2,0,4,,,,,,,,,4,,,63,75
89134,note_on,46,0,1,,,,,,,,,11,,,81,0
89136,note_on,2,0,1,,,,,,,,,11,,,80,110
89182,note_on,94,0,4,,,,,,,,,4,,,63,0
89182,note_on,46,0,1,,,,,,,,,11,,,80,0
89184,note_on,2,0,4,,,,,,,,,4,,,61,75
89184,note_on,2,0,1,,,,,,,,,11,,,81,110
89230,note_on,46,0,1,,,,,,,,,11,,,81,0
89232,note_on,2,0,1,,,,,,,,,11,,,80,110
89278,note_on,94,0,4,,,,,,,,,4,,,61,0
89278,note_on,46,0,1,,,,,,,,,11,,,80,0
89280,note_on,2,0,4,,,,,,,,,4,,,75,75
89280,note_on,2,0,1,,,,,,,,,11,,,78,110
89374,note_on,94,0,1,,,,,,,,,11,,,78,0
89376,note_on,2,0,1,,,,,,,,,11,,,76,110
89470,note_on,94,0,1,,,,,,,,,11,,,76,0
89472,note_on,2,0,1,,,,,,,,,11,,,75,110
89536,note_on,256,0,4,,,,,,,,,4,,,75,0
89566,note_on,94,0,1,,,,,,,,,11,,,75,0
89568,note_on,2,0,1,,,,,,,,,11,,,80,110
89568,note_on,32,0,4,,,,,,,,,4,,,75,75
89614,note_on,46,0,1,,,,,,,,,11,,,80,0
89616,note_on,2,0,1,,,,,,,,,11,,,78,110
89662,note_on,46,0,1,,,,,,,,,11,,,78,0
89664,note_on,2,0,1,,,,,,,,,11,,,80,110
89710,note_on,46,0,1,,,,,,,,,11,,,80,0
89712,note_on,2,0,1,,,,,,,,,11,,,78,110
89758,note_on,46,0,1,,,,,,,,,11,,,78,0
89760,note_on,2,0,1,,,,,,,,,11,,,80,110
89806,note_on,46,0,1,,,,,,,,,11,,,80,0
89808,note_on,2,0,1,,,,,,,,,11,,,78,110
89824,note_on,256,0,4,,,,,,,,,4,,,75,0
89854,note_on,46,0,1,,,,,,,,,11,,,78,0
89856,note_on,2,0,1,,,,,,,,,11,,,76,110
89856,note_on,32,0,4,,,,,,,,,4,,,73,75
89950,note_on,94,0,1,,,,,,,,,11,,,76,0
89952,note_on,2,0,1,,,,,,,,,11,,,75,110
90046,note_on,94,0,1,,,,,,,,,11,,,75,0
90048,note_on,2,0,1,,,,,,,,,11,,,73,110
90112,note_on,256,0,4,,,,,,,,,4,,,73,0
90142,note_on,94,0,1,,,,,,,,,11,,,73,0
90144,note_on,32,0,4,,,,,,,,,4,,,67,75
90144,note_on,2,0,1,,,,,,,,,11,,,78,110
90190,note_on,46,0,1,,,,,,,,,11,,,78,0
90192,note_on,2,0,1,,,,,,,,,11,,,76,110
90238,note_on,46,0,1,,,,,,,,,11,,,76,0
90240,note_on,2,0,1,,,,,,,,,11,,,78,110
90286,note_on,46,0,1,,,,,,,,,11,,,78,0
90288,note_on,2,0,1,,,,,,,,,11,,,76,110
90334,note_on,46,0,1,,,,,,,,,11,,,76,0
90336,note_on,2,0,1,,,,,,,,,11,,,78,110
90382,note_on,46,0,1,,,,,,,,,11,,,78,0
90384,note_on,2,0,1,,,,,,,,,11,,,76,110
90400,note_on,256,0,4,,,,,,,,,4,,,67,0
90430,note_on,46,0,1,,,,,,,,,11,,,76,0
90432,note_on,2,0,1,,,,,,,,,11,,,75,110
90432,note_on,32,0,4,,,,,,,,,4,,,68,75
90526,note_on,94,0,1,,,,,,,,,11,,,75,0
90528,note_on,2,0,1,,,,,,,,,11,,,72,110
90574,note_on,46,0,1,,,,,,,,,11,,,72,0
90576,note_on,2,0,1,,,,,,,,,11,,,73,110
90622,note_on,46,0,1,,,,,,,,,11,,,73,0
90624,note_on,2,0,1,,,,,,,,,11,,,75,110
90670,note_on,46,0,1,,,,,,,,,11,,,75,0
90672,note_on,2,0,1,,,,,,,,,11,,,76,110
90718,note_on,46,0,1,,,,,,,,,11,,,76,0
90720,note_on,2,0,1,,,,,,,,,11,,,78,110
90766,note_on,334,0,4,,,,,,,,,4,,,68,0
90814,note_on,94,0,1,,,,,,,,,11,,,78,0
90816,note_on,2,0,1,,,,,,,,,11,,,75,110
90862,note_on,46,0,1,,,,,,,,,11,,,75,0
90864,note_on,2,0,1,,,,,,,,,11,,,76,110
90910,note_on,46,0,1,,,,,,,,,11,,,76,0
90912,note_on,2,0,1,,,,,,,,,11,,,78,110
90958,note_on,46,0,1,,,,,,,,,11,,,78,0
90960,note_on,2,0,1,,,,,,,,,11,,,80,110
91006,note_on,46,0,1,,,,,,,,,11,,,80,0
91008,note_on,2,0,1,,,,,,,,,11,,,81,110
91102,note_on,94,0,1,,,,,,,,,11,,,81,0
91104,note_on,2,0,1,,,,,,,,,11,,,78,110
91198,note_on,94,0,1,,,,,,,,,11,,,78,0
91200,note_on,2,0,1,,,,,,,,,11,,,75,110
91294,note_on,94,0,1,,,,,,,,,11,,,75,0
91296,note_on,2,0,1,,,,,,,,,11,,,72,110
91390,note_on,94,0,1,,,,,,,,,11,,,72,0
91392,note_on,2,0,1,,,,,,,,,11,,,75,110
91486,note_on,94,0,1,,,,,,,,,11,,,75,0
91488,note_on,2,0,1,,,,,,,,,11,,,72,110
91582,note_on,94,0,1,,,,,,,,,11,,,72,0
91584,note_on,2,0,1,,,,,,,,,11,,,68,110
91584,note_on,818,0,4,,,,,,,,,4,,,68,75
91678,note_on,94,0,4,,,,,,,,,4,,,68,0
91680,note_on,2,0,4,,,,,,,,,4,,,75,75
91774,note_on,94,0,4,,,,,,,,,4,,,75,0
91776,note_on,2,0,4,,,,,,,,,4,,,73,75
91870,note_on,94,0,4,,,,,,,,,4,,,73,0
91872,note_on,2,0,4,,,,,,,,,4,,,72,75
91966,note_on,94,0,4,,,,,,,,,4,,,72,0
91968,note_on,2,0,4,,,,,,,,,4,,,70,75
92062,note_on,94,0,4,,,,,,,,,4,,,70,0
92062,note_on,478,0,1,,,,,,,,,11,,,68,0
92064,note_on,2,0,4,,,,,,,,,4,,,68,75
92064,note_on,2,0,1,,,,,,,,,11,,,80,110
92158,note_on,94,0,4,,,,,,,,,4,,,68,0
92158,note_on,94,0,1,,,,,,,,,11,,,80,0
92160,note_on,2,0,4,,,,,,,,,4,,,73,75
92160,note_on,2,0,1,,,,,,,,,11,,,76,110
92254,note_on,94,0,1,,,,,,,,,11,,,76,0
92256,note_on,2,0,1,,,,,,,,,11,,,73,110
92350,note_on,94,0,1,,,,,,,,,11,,,73,0
92352,note_on,2,0,1,,,,,,,,,11,,,76,110
92416,note_on,256,0,4,,,,,,,,,4,,,73,0
92446,note_on,94,0,1,,,,,,,,,11,,,76,0
92448,note_on,32,0,4,,,,,,,,,4,,,61,75
92448,note_on,2,0,1,,,,,,,,,11,,,85,110
92542,note_on,94,0,1,,,,,,,,,11,,,85,0
92544,note_on,2,0,1,,,,,,,,,11,,,83,110
92638,note_on,94,0,1,,,,,,,,,11,,,83,0
92640,note_on,2,0,1,,,,,,,,,11,,,81,110
92704,note_on,256,0,4,,,,,,,,,4,,,61,0
92734,note_on,94,0,1,,,,,,,,,11,,,81,0
92736,note_on,32,0,4,,,,,,,,,4,,,60,75
92736,note_on,2,0,1,,,,,,,,,11,,,81,110
92992,note_on,256,0,1,,,,,,,,,11,,,81,0
92992,note_on,256,0,4,,,,,,,,,4,,,60,0
93024,note_on,32,0,1,,,,,,,,,11,,,80,110
93024,note_on,32,0,4,,,,,,,,,4,,,60,75
93184,note_on,160,0,1,,,,,,,,,11,,,80,0
93216,note_on,32,0,1,,,,,,,,,11,,,78,110
93280,note_on,256,0,4,,,,,,,,,4,,,60,0
93310,note_on,94,0,1,,,,,,,,,11,,,78,0
93312,note_on,32,0,4,,,,,,,,,4,,,73,75
93312,note_on,2,0,1,,,,,,,,,11,,,76,110
93406,note_on,94,0,1,,,,,,,,,11,,,76,0
93408,note_on,2,0,1,,,,,,,,,11,,,73,110
93502,note_on,94,0,1,,,,,,,,,11,,,73,0
93504,note_on,2,0,1,,,,,,,,,11,,,76,110
93568,note_on,256,0,4,,,,,,,,,4,,,73,0
93598,note_on,94,0,1,,,,,,,,,11,,,76,0
93600,note_on,2,0,1,,,,,,,,,11,,,85,110
93600,note_on,32,0,4,,,,,,,,,4,,,61,75
93694,note_on,94,0,1,,,,,,,,,11,,,85,0
93696,note_on,2,0,1,,,,,,,,,11,,,83,110
93790,note_on,94,0,1,,,,,,,,,11,,,83,0
93792,note_on,2,0,1,,,,,,,,,11,,,81,110
93856,note_on,256,0,4,,,,,,,,,4,,,61,0
93886,note_on,94,0,1,,,,,,,,,11,,,81,0
93888,note_on,2,0,1,,,,,,,,,11,,,81,110
93888,note_on,32,0,4,,,,,,,,,4,,,60,75
94144,note_on,256,0,1,,,,,,,,,11,,,81,0
94144,note_on,256,0,4,,,,,,,,,4,,,60,0
94176,note_on,32,0,1,,,,,,,,,11,,,80,110
94176,note_on,32,0,4,,,,,,,,,4,,,61,75
94336,note_on,160,0,1,,,,,,,,,11,,,80,0
94368,note_on,32,0,1,,,,,,,,,11,,,76,110
94432,note_on,256,0,4,,,,,,,,,4,,,61,0
94462,note_on,94,0,1,,,,,,,,,11,,,76,0
94464,note_on,2,0,1,,,,,,,,,11,,,73,110
94464,note_on,32,0,4,,,,,,,,,4,,,57,75
94558,note_on,94,0,1,,,,,,,,,11,,,73,0
94560,note_on,2,0,1,,,,,,,,,11,,,64,110
94654,note_on,94,0,1,,,,,,,,,11,,,64,0
94656,note_on,2,0,1,,,,,,,,,11,,,73,110
94720,note_on,256,0,4,,,,,,,,,4,,,57,0
94750,note_on,94,0,1,,,,,,,,,11,,,73,0
94752,note_on,32,0,4,,,,,,,,,4,,,57,75
94752,note_on,2,0,1,,,,,,,,,11,,,81,110
94846,note_on,94,0,1,,,,,,,,,11,,,81,0
94848,note_on,2,0,1,,,,,,,,,11,,,80,110
94942,note_on,94,0,1,,,,,,,,,11,,,80,0
94944,note_on,2,0,1,,,,,,,,,11,,,78,110
95008,note_on,256,0,4,,,,,,,,,4,,,57,0
95038,note_on,94,0,1,,,,,,,,,11,,,78,0
95040,note_on,32,0,4,,,,,,,,,4,,,62,75
95040,note_on,2,0,1,,,,,,,,,11,,,78,110
95296,note_on,256,0,1,,,,,,,,,11,,,78,0
95296,note_on,256,0,4,,,,,,,,,4,,,62,0
95328,note_on,32,0,1,,,,,,,,,11,,,76,110
95328,note_on,32,0,4,,,,,,,,,4,,,57,75
95488,note_on,160,0,1,,,,,,,,,11,,,76,0
95520,note_on,32,0,1,,,,,,,,,11,,,74,110
95584,note_on,256,0,4,,,,,,,,,4,,,57,0
95614,note_on,94,0,1,,,,,,,,,11,,,74,0
95616,note_on,32,0,4,,,,,,,,,4,,,57,75
95616,note_on,2,0,1,,,,,,,,,11,,,73,110
95710,note_on,94,0,1,,,,,,,,,11,,,73,0
95712,note_on,2,0,1,,,,,,,,,11,,,64,110
95806,note_on,94,0,1,,,,,,,,,11,,,64,0
95808,note_on,2,0,1,,,,,,,,,11,,,73,110
95872,note_on,256,0,4,,,,,,,,,4,,,57,0
95902,note_on,94,0,1,,,,,,,,,11,,,73,0
95904,note_on,2,0,1,,,,,,,,,11,,,81,110
95904,note_on,32,0,4,,,,,,,,,4,,,57,75
95998,note_on,94,0,1,,,,,,,,,11,,,81,0
96000,note_on,2,0,1,,,,,,,,,11,,,80,110
96094,note_on,94,0,1,,,,,,,,,11,,,80,0
96096,note_on,2,0,1,,,,,,,,,11,,,78,110
96160,note_on,256,0,4,,,,,,,,,4,,,57,0
96190,note_on,94,0,1,,,,,,,,,11,,,78,0
96192,note_on,32,0,4,,,,,,,,,4,,,62,75
96192,note_on,2,0,1,,,,,,,,,11,,,78,110
96448,note_on,256,0,1,,,,,,,,,11,,,78,0
96448,note_on,256,0,4,,,,,,,,,4,,,62,0
96480,note_on,32,0,4,,,,,,,,,4,,,57,75
96480,note_on,32,0,1,,,,,,,,,11,,,76,110
96640,note_on,160,0,1,,,,,,,,,11,,,76,0
96672,note_on,32,0,1,,,,,,,,,11,,,73,110
96736,note_on,256,0,4,,,,,,,,,4,,,57,0
96766,note_on,94,0,1,,,,,,,,,11,,,73,0
96768,note_on,32,0,4,,,,,,,,,4,,,64,75
96768,note_on,2,0,1,,,,,,,,,11,,,71,110
96814,note_on,46,0,1,,,,,,,,,11,,,71,0
96816,note_on,2,0,1,,,,,,,,,11,,,64,110
96862,note_on,46,0,1,,,,,,,,,11,,,64,0
96862,note_on,94,0,4,,,,,,,,,4,,,64,0
96864,note_on,2,0,4,,,,,,,,,4,,,64,75
96864,note_on,2,0,1,,,,,,,,,11,,,71,110
96910,note_on,46,0,1,,,,,,,,,11,,,71,0
96912,note_on,2,0,1,,,,,,,,,11,,,64,110
96958,note_on,94,0,4,,,,,,,,,4,,,64,0
96958,note_on,46,0,1,,,,,,,,,11,,,64,0
96960,note_on,2,0,4,,,,,,,,,4,,,64,75
96960,note_on,2,0,1,,,,,,,,,11,,,71,110
97006,note_on,46,0,1,,,,,,,,,11,,,71,0
97008,note_on,2,0,1,,,,,,,,,11,,,64,110
97054,note_on,94,0,4,,,,,,,,,4,,,64,0
97054,note_on,46,0,1,,,,,,,,,11,,,64,0
97056,note_on,2,0,4,,,,,,,,,4,,,64,75
97056,note_on,2,0,1,,,,,,,,,11,,,73,110
97102,note_on,46,0,1,,,,,,,,,11,,,73,0
97104,note_on,2,0,1,,,,,,,,,11,,,64,110
97150,note_on,46,0,1,,,,,,,,,11,,,64,0
97150,note_on,94,0,4,,,,,,,,,4,,,64,0
97152,note_on,2,0,1,,,,,,,,,11,,,73,110
97152,note_on,2,0,4,,,,,,,,,4,,,64,75
97198,note_on,46,0,1,,,,,,,,,11,,,73,0
97200,note_on,2,0,1,,,,,,,,,11,,,64,110
97246,note_on,94,0,4,,,,,,,,,4,,,64,0
97246,note_on,46,0,1,,,,,,,,,11,,,64,0
97248,note_on,2,0,4,,,,,,,,,4,,,64,75
97248,note_on,2,0,1,,,,,,,,,11,,,73,110
97294,note_on,46,0,1,,,,,,,,,11,,,73,0
97296,note_on,2,0,1,,,,,,,,,11,,,64,110
97342,note_on,94,0,4,,,,,,,,,4,,,64,0
97342,note_on,46,0,1,,,,,,,,,11,,,64,0
97344,note_on,2,0,4,,,,,,,,,4,,,64,75
97344,note_on,2,0,1,,,,,,,,,11,,,74,110
97390,note_on,46,0,1,,,,,,,,,11,,,74,0
97392,note_on,2,0,1,,,,,,,,,11,,,64,110
97438,note_on,94,0,4,,,,,,,,,4,,,64,0
97438,note_on,46,0,1,,,,,,,,,11,,,64,0
97440,note_on,2,0,1,,,,,,,,,11,,,74,110
97440,note_on,2,0,4,,,,,,,,,4,,,64,75
97486,note_on,46,0,1,,,,,,,,,11,,,74,0
97488,note_on,2,0,1,,,,,,,,,11,,,64,110
97534,note_on,46,0,1,,,,,,,,,11,,,64,0
97534,note_on,94,0,4,,,,,,,,,4,,,64,0
97536,note_on,2,0,1,,,,,,,,,11,,,74,110
97536,note_on,2,0,4,,,,,,,,,4,,,64,75
97582,note_on,46,0,1,,,,,,,,,11,,,74,0
97584,note_on,2,0,1,,,,,,,,,11,,,64,110
97630,note_on,94,0,4,,,,,,,,,4,,,64,0
97630,note_on,46,0,1,,,,,,,,,11,,,64,0
97632,note_on,2,0,1,,,,,,,,,11,,,73,110
97632,note_on,2,0,4,,,,,,,,,4,,,64,75
97678,note_on,46,0,1,,,,,,,,,11,,,73,0
97680,note_on,2,0,1,,,,,,,,,11,,,64,110
97726,note_on,94,0,4,,,,,,,,,4,,,64,0
97726,note_on,46,0,1,,,,,,,,,11,,,64,0
97728,note_on,2,0,1,,,,,,,,,11,,,73,110
97728,note_on,2,0,4,,,,,,,,,4,,,64,75
97774,note_on,46,0,1,,,,,,,,,11,,,73,0
97776,note_on,2,0,1,,,,,,,,,11,,,64,110
97822,note_on,46,0,1,,,,,,,,,11,,,64,0
97822,note_on,94,0,4,,,,,,,,,4,,,64,0
97824,note_on,2,0,1,,,,,,,,,11,,,73,110
97824,note_on,2,0,4,,,,,,,,,4,,,64,75
97870,note_on,46,0,1,,,,,,,,,11,,,73,0
97872,note_on,2,0,1,,,,,,,,,11,,,64,110
97918,note_on,94,0,4,,,,,,,,,4,,,64,0
97918,note_on,46,0,1,,,,,,,,,11,,,64,0
97920,note_on,2,0,4,,,,,,,,,4,,,64,75
97920,note_on,2,0,1,,,,,,,,,11,,,74,110
97966,note_on,46,0,1,,,,,,,,,11,,,74,0
97968,note_on,2,0,1,,,,,,,,,11,,,64,110
98014,note_on,94,0,4,,,,,,,,,4,,,64,0
98014,note_on,46,0,1,,,,,,,,,11,,,64,0
98016,note_on,2,0,4,,,,,,,,,4,,,64,75
98016,note_on,2,0,1,,,,,,,,,11,,,74,110
98062,note_on,46,0,1,,,,,,,,,11,,,74,0
98064,note_on,2,0,1,,,,,,,,,11,,,64,110
98110,note_on,94,0,4,,,,,,,,,4,,,64,0
98110,note_on,46,0,1,,,,,,,,,11,,,64,0
98112,note_on,2,0,1,,,,,,,,,11,,,74,110
98112,note_on,2,0,4,,,,,,,,,4,,,64,75
98158,note_on,46,0,1,,,,,,,,,11,,,74,0
98160,note_on,2,0,1,,,,,,,,,11,,,64,110
98206,note_on,94,0,4,,,,,,,,,4,,,64,0
98206,note_on,46,0,1,,,,,,,,,11,,,64,0
98208,note_on,2,0,4,,,,,,,,,4,,,64,75
98208,note_on,2,0,1,,,,,,,,,11,,,73,110
98254,note_on,46,0,1,,,,,,,,,11,,,73,0
98256,note_on,2,0,1,,,,,,,,,11,,,64,110
98302,note_on,46,0,1,,,,,,,,,11,,,64,0
98302,note_on,94,0,4,,,,,,,,,4,,,64,0
98304,note_on,2,0,1,,,,,,,,,11,,,73,110
98304,note_on,2,0,4,,,,,,,,,4,,,64,75
98350,note_on,46,0,1,,,,,,,,,11,,,73,0
98352,note_on,2,0,1,,,,,,,,,11,,,64,110
98398,note_on,46,0,1,,,,,,,,,11,,,64,0
98398,note_on,94,0,4,,,,,,,,,4,,,64,0
98400,note_on,2,0,1,,,,,,,,,11,,,73,110
98400,note_on,2,0,4,,,,,,,,,4,,,64,75
98446,note_on,46,0,1,,,,,,,,,11,,,73,0
98448,note_on,2,0,1,,,,,,,,,11,,,64,110
98494,note_on,46,0,1,,,,,,,,,11,,,64,0
98494,note_on,94,0,4,,,,,,,,,4,,,64,0
98496,note_on,2,0,1,,,,,,,,,11,,,64,110
98496,note_on,0,0,1,,,,,,,,,11,,,73,110
98496,note_on,2,0,4,,,,,,,,,4,,,64,75
98590,note_on,94,0,4,,,,,,,,,4,,,64,0
98592,note_on,2,0,4,,,,,,,,,4,,,64,75
98686,note_on,94,0,4,,,,,,,,,4,,,64,0
98688,note_on,2,0,4,,,,,,,,,4,,,64,75
98752,note_on,256,0,1,,,,,,,,,11,,,64,0
98752,note_on,0,0,1,,,,,,,,,11,,,73,0
98782,note_on,94,0,4,,,,,,,,,4,,,64,0
98784,note_on,2,0,4,,,,,,,,,4,,,64,75
98784,note_on,32,0,1,,,,,,,,,11,,,73,110
98830,note_on,46,0,1,,,,,,,,,11,,,73,0
98832,note_on,2,0,1,,,,,,,,,11,,,71,110
98878,note_on,94,0,4,,,,,,,,,4,,,64,0
98878,note_on,46,0,1,,,,,,,,,11,,,71,0
98880,note_on,2,0,1,,,,,,,,,11,,,73,110
98880,note_on,2,0,4,,,,,,,,,4,,,64,75
98926,note_on,46,0,1,,,,,,,,,11,,,73,0
98928,note_on,2,0,1,,,,,,,,,11,,,71,110
98974,note_on,46,0,1,,,,,,,,,11,,,71,0
98974,note_on,94,0,4,,,,,,,,,4,,,64,0
98976,note_on,2,0,1,,,,,,,,,11,,,73,110
98976,note_on,2,0,4,,,,,,,,,4,,,64,75
99022,note_on,46,0,1,,,,,,,,,11,,,73,0
99024,note_on,2,0,1,,,,,,,,,11,,,71,110
99070,note_on,94,0,4,,,,,,,,,4,,,64,0
99070,note_on,46,0,1,,,,,,,,,11,,,71,0
99072,note_on,2,0,1,,,,,,,,,11,,,69,110
99072,note_on,19826,0,2,,,,,,,,,0,,,69,110
99072,note_on,2,0,4,,,,,,,,,4,,,64,75
99072,note_on,19904,0,6,,,,,,,,,8,,,33,92
99072,note_on,19826,0,3,,,,,,,,,2,,,69,110
99072,note_on,14402,0,5,,,,,,,,,6,,,45,92
99166,note_on,94,0,1,,,,,,,,,11,,,69,0
99166,note_on,94,0,2,,,,,,,,,0,,,69,0
99166,note_on,94,0,3,,,,,,,,,2,,,69,0
99168,note_on,2,0,3,,,,,,,,,2,,,73,110
99168,note_on,2,0,2,,,,,,,,,0,,,73,110
99168,note_on,2,0,1,,,,,,,,,11,,,73,110
99262,note_on,94,0,1,,,,,,,,,11,,,73,0
99262,note_on,94,0,3,,,,,,,,,2,,,73,0
99262,note_on,94,0,2,,,,,,,,,0,,,73,0
99264,note_on,2,0,2,,,,,,,,,0,,,76,110
99264,note_on,2,0,1,,,,,,,,,11,,,76,110
99264,note_on,2,0,3,,,,,,,,,2,,,76,110
99328,note_on,256,0,5,,,,,,,,,6,,,45,0
99328,note_on,256,0,6,,,,,,,,,8,,,33,0
99328,note_on,256,0,4,,,,,,,,,4,,,64,0
99358,note_on,94,0,3,,,,,,,,,2,,,76,0
99358,note_on,94,0,1,,,,,,,,,11,,,76,0
99358,note_on,94,0,2,,,,,,,,,0,,,76,0
99360,note_on,2,0,2,,,,,,,,,0,,,81,110
99360,note_on,2,0,3,,,,,,,,,2,,,81,110
99360,note_on,32,0,4,,,,,,,,,4,,,64,75
99360,note_on,2,0,1,,,,,,,,,11,,,81,110
99360,note_on,32,0,6,,,,,,,,,8,,,33,92
99360,note_on,32,0,5,,,,,,,,,6,,,45,92
99454,note_on,94,0,2,,,,,,,,,0,,,81,0
99454,note_on,94,0,1,,,,,,,,,11,,,81,0
99454,note_on,94,0,3,,,,,,,,,2,,,81,0
99456,note_on,2,0,1,,,,,,,,,11,,,76,110
99456,note_on,2,0,3,,,,,,,,,2,,,76,110
99456,note_on,2,0,2,,,,,,,,,0,,,76,110
99550,note_on,94,0,1,,,,,,,,,11,,,76,0
99550,note_on,94,0,2,,,,,,,,,0,,,76,0
99550,note_on,94,0,3,,,,,,,,,2,,,76,0
99552,note_on,2,0,1,,,,,,,,,11,,,73,110
99552,note_on,2,0,3,,,,,,,,,2,,,73,110
99552,note_on,2,0,2,,,,,,,,,0,,,73,110
99616,note_on,256,0,6,,,,,,,,,8,,,33,0
99616,note_on,256,0,4,,,,,,,,,4,,,64,0
99616,note_on,256,0,5,,,,,,,,,6,,,45,0
99646,note_on,94,0,2,,,,,,,,,0,,,73,0
99646,note_on,94,0,1,,,,,,,,,11,,,73,0
99646,note_on,94,0,3,,,,,,,,,2,,,73,0
99648,note_on,32,0,4,,,,,,,,,4,,,68,75
99648,note_on,32,0,6,,,,,,,,,8,,,40,92
99648,note_on,2,0,3,,,,,,,,,2,,,71,110
99648,note_on,2,0,2,,,,,,,,,0,,,71,110
99648,note_on,2,0,1,,,,,,,,,11,,,71,110
99648,note_on,32,0,5,,,,,,,,,6,,,52,92
99904,note_on,256,0,1,,,,,,,,,11,,,71,0
99904,note_on,256,0,4,,,,,,,,,4,,,68,0
99904,note_on,256,0,5,,,,,,,,,6,,,52,0
99904,note_on,256,0,6,,,,,,,,,8,,,40,0
99904,note_on,256,0,3,,,,,,,,,2,,,71,0
99904,note_on,256,0,2,,,,,,,,,0,,,71,0
99936,note_on,32,0,3,,,,,,,,,2,,,69,110
99936,note_on,32,0,5,,,,,,,,,6,,,45,92
99936,note_on,32,0,2,,,,,,,,,0,,,69,110
99936,note_on,32,0,1,,,,,,,,,11,,,69,110
99936,note_on,32,0,4,,,,,,,,,4,,,64,75
99936,note_on,32,0,6,,,,,,,,,8,,,33,92
100096,note_on,160,0,2,,,,,,,,,0,,,69,0
100096,note_on,160,0,3,,,,,,,,,2,,,69,0
100096,note_on,160,0,1,,,,,,,,,11,,,69,0
100128,note_on,32,0,3,,,,,,,,,2,,,73,110
100128,note_on,32,0,2,,,,,,,,,0,,,73,110
100128,note_on,32,0,1,,,,,,,,,11,,,73,110
100192,note_on,256,0,5,,,,,,,,,6,,,45,0
100192,note_on,256,0,6,,,,,,,,,8,,,33,0
100192,note_on,256,0,4,,,,,,,,,4,,,64,0
100222,note_on,94,0,2,,,,,,,,,0,,,73,0
100222,note_on,94,0,1,,,,,,,,,11,,,73,0
100222,note_on,94,0,3,,,,,,,,,2,,,73,0
100224,note_on,32,0,6,,,,,,,,,8,,,33,92
100224,note_on,32,0,4,,,,,,,,,4,,,61,75
100224,note_on,2,0,2,,,,,,,,,0,,,69,110
100224,note_on,2,0,1,,,,,,,,,11,,,69,110
100224,note_on,32,0,5,,,,,,,,,6,,,45,92
100224,note_on,2,0,3,,,,,,,,,2,,,69,110
100318,note_on,94,0,1,,,,,,,,,11,,,69,0
100318,note_on,94,0,3,,,,,,,,,2,,,69,0
100318,note_on,94,0,2,,,,,,,,,0,,,69,0
100320,note_on,2,0,2,,,,,,,,,0,,,64,110
100320,note_on,2,0,3,,,,,,,,,2,,,64,110
100320,note_on,2,0,1,,,,,,,,,11,,,64,110
100414,note_on,94,0,3,,,,,,,,,2,,,64,0
100414,note_on,94,0,2,,,,,,,,,0,,,64,0
100414,note_on,94,0,1,,,,,,,,,11,,,64,0
100416,note_on,2,0,2,,,,,,,,,0,,,69,110
100416,note_on,2,0,3,,,,,,,,,2,,,69,110
100416,note_on,2,0,1,,,,,,,,,11,,,69,110
100480,note_on,256,0,5,,,,,,,,,6,,,45,0
100480,note_on,256,0,4,,,,,,,,,4,,,61,0
100480,note_on,256,0,6,,,,,,,,,8,,,33,0
100510,note_on,94,0,1,,,,,,,,,11,,,69,0
100510,note_on,94,0,2,,,,,,,,,0,,,69,0
100510,note_on,94,0,3,,,,,,,,,2,,,69,0
100512,note_on,2,0,1,,,,,,,,,11,,,71,110
100512,note_on,32,0,6,,,,,,,,,8,,,40,92
100512,note_on,32,0,4,,,,,,,,,4,,,68,75
100512,note_on,2,0,3,,,,,,,,,2,,,71,110
100512,note_on,32,0,5,,,,,,,,,6,,,52,92
100512,note_on,2,0,2,,,,,,,,,0,,,71,110
100606,note_on,94,0,2,,,,,,,,,0,,,71,0
100606,note_on,94,0,3,,,,,,,,,2,,,71,0
100606,note_on,94,0,1,,,,,,,,,11,,,71,0
100608,note_on,2,0,2,,,,,,,,,0,,,73,110
100608,note_on,2,0,3,,,,,,,,,2,,,73,110
100608,note_on,2,0,1,,,,,,,,,11,,,73,110
100702,note_on,94,0,2,,,,,,,,,0,,,73,0
100702,note_on,94,0,3,,,,,,,,,2,,,73,0
100702,note_on,94,0,1,,,,,,,,,11,,,73,0
100704,note_on,2,0,3,,,,,,,,,2,,,74,110
100704,note_on,2,0,1,,,,,,,,,11,,,74,110
100704,note_on,2,0,2,,,,,,,,,0,,,74,110
100768,note_on,256,0,4,,,,,,,,,4,,,68,0
100768,note_on,256,0,6,,,,,,,,,8,,,40,0
100768,note_on,256,0,5,,,,,,,,,6,,,52,0
100798,note_on,94,0,2,,,,,,,,,0,,,74,0
100798,note_on,94,0,3,,,,,,,,,2,,,74,0
100798,note_on,94,0,1,,,,,,,,,11,,,74,0
100800,note_on,2,0,3,,,,,,,,,2,,,74,110
100800,note_on,2,0,1,,,,,,,,,11,,,74,110
100800,note_on,32,0,6,,,,,,,,,8,,,45,92
100800,note_on,32,0,5,,,,,,,,,6,,,57,92
100800,note_on,32,0,4,,,,,,,,,4,,,64,75
100800,note_on,2,0,2,,,,,,,,,0,,,74,110
101056,note_on,256,0,3,,,,,,,,,2,,,74,0
101056,note_on,256,0,1,,,,,,,,,11,,,74,0
101056,note_on,256,0,2,,,,,,,,,0,,,74,0
101056,note_on,256,0,6,,,,,,,,,8,,,45,0
101056,note_on,256,0,5,,,,,,,,,6,,,57,0
101056,note_on,256,0,4,,,,,,,,,4,,,64,0
101088,note_on,32,0,5,,,,,,,,,6,,,45,92
101088,note_on,32,0,3,,,,,,,,,2,,,73,110
101088,note_on,32,0,1,,,,,,,,,11,,,73,110
101088,note_on,32,0,2,,,,,,,,,0,,,73,110
101088,note_on,32,0,6,,,,,,,,,8,,,33,92
101088,note_on,32,0,4,,,,,,,,,4,,,64,75
101248,note_on,160,0,1,,,,,,,,,11,,,73,0
101248,note_on,160,0,2,,,,,,,,,0,,,73,0
101248,note_on,160,0,3,,,,,,,,,2,,,73,0
101280,note_on,32,0,1,,,,,,,,,11,,,76,110
101280,note_on,32,0,2,,,,,,,,,0,,,76,110
101280,note_on,32,0,3,,,,,,,,,2,,,76,110
101344,note_on,256,0,4,,,,,,,,,4,,,64,0
101344,note_on,256,0,6,,,,,,,,,8,,,33,0
101344,note_on,256,0,5,,,,,,,,,6,,,45,0
101374,note_on,94,0,2,,,,,,,,,0,,,76,0
101374,note_on,94,0,1,,,,,,,,,11,,,76,0
101374,note_on,94,0,3,,,,,,,,,2,,,76,0
101376,note_on,2,0,3,,,,,,,,,2,,,69,110
101376,note_on,32,0,5,,,,,,,,,6,,,45,92
101376,note_on,32,0,6,,,,,,,,,8,,,33,92
101376,note_on,32,0,4,,,,,,,,,4,,,61,75
101376,note_on,2,0,1,,,,,,,,,11,,,69,110
101376,note_on,2,0,2,,,,,,,,,0,,,69,110
101470,note_on,94,0,3,,,,,,,,,2,,,69,0
101470,note_on,94,0,2,,,,,,,,,0,,,69,0
101470,note_on,94,0,1,,,,,,,,,11,,,69,0
101472,note_on,2,0,2,,,,,,,,,0,,,64,110
101472,note_on,2,0,1,,,,,,,,,11,,,64,110
101472,note_on,2,0,3,,,,,,,,,2,,,64,110
101566,note_on,94,0,2,,,,,,,,,0,,,64,0
101566,note_on,94,0,3,,,,,,,,,2,,,64,0
101566,note_on,94,0,1,,,,,,,,,11,,,64,0
101568,note_on,2,0,2,,,,,,,,,0,,,69,110
101568,note_on,2,0,3,,,,,,,,,2,,,69,110
101568,note_on,2,0,1,,,,,,,,,11,,,69,110
101632,note_on,256,0,6,,,,,,,,,8,,,33,0
101632,note_on,256,0,5,,,,,,,,,6,,,45,0
101632,note_on,256,0,4,,,,,,,,,4,,,61,0
101662,note_on,94,0,2,,,,,,,,,0,,,69,0
101662,note_on,94,0,1,,,,,,,,,11,,,69,0
101662,note_on,94,0,3,,,,,,,,,2,,,69,0
101664,note_on,2,0,1,,,,,,,,,11,,,71,110
101664,note_on,32,0,6,,,,,,,,,8,,,40,92
101664,note_on,2,0,2,,,,,,,,,0,,,71,110
101664,note_on,32,0,5,,,,,,,,,6,,,52,92
101664,note_on,2,0,3,,,,,,,,,2,,,71,110
101664,note_on,32,0,4,,,,,,,,,4,,,68,75
101758,note_on,94,0,3,,,,,,,,,2,,,71,0
101758,note_on,94,0,2,,,,,,,,,0,,,71,0
101758,note_on,94,0,1,,,,,,,,,11,,,71,0
101760,note_on,2,0,3,,,,,,,,,2,,,73,110
101760,note_on,2,0,2,,,,,,,,,0,,,73,110
101760,note_on,2,0,1,,,,,,,,,11,,,73,110
101854,note_on,94,0,1,,,,,,,,,11,,,73,0
101854,note_on,94,0,3,,,,,,,,,2,,,73,0
101854,note_on,94,0,2,,,,,,,,,0,,,73,0
101856,note_on,2,0,2,,,,,,,,,0,,,74,110
101856,note_on,2,0,1,,,,,,,,,11,,,74,110
101856,note_on,2,0,3,,,,,,,,,2,,,74,110
101920,note_on,256,0,6,,,,,,,,,8,,,40,0
101920,note_on,256,0,4,,,,,,,,,4,,,68,0
101920,note_on,256,0,5,,,,,,,,,6,,,52,0
101950,note_on,94,0,2,,,,,,,,,0,,,74,0
101950,note_on,94,0,3,,,,,,,,,2,,,74,0
101950,note_on,94,0,1,,,,,,,,,11,,,74,0
101952,note_on,32,0,5,,,,,,,,,6,,,57,92
101952,note_on,2,0,2,,,,,,,,,0,,,74,110
101952,note_on,32,0,4,,,,,,,,,4,,,64,75
101952,note_on,2,0,3,,,,,,,,,2,,,74,110
101952,note_on,2,0,1,,,,,,,,,11,,,74,110
101952,note_on,32,0,6,,,,,,,,,8,,,45,92
102208,note_on,256,0,3,,,,,,,,,2,,,74,0
102208,note_on,256,0,5,,,,,,,,,6,,,57,0
102208,note_on,256,0,1,,,,,,,,,11,,,74,0
102208,note_on,256,0,4,,,,,,,,,4,,,64,0
102208,note_on,256,0,2,,,,,,,,,0,,,74,0
102208,note_on,256,0,6,,,,,,,,,8,,,45,0
102240,note_on,32,0,6,,,,,,,,,8,,,33,92
102240,note_on,32,0,5,,,,,,,,,6,,,45,92
102240,note_on,32,0,2,,,,,,,,,0,,,73,110
102240,note_on,32,0,1,,,,,,,,,11,,,73,110
102240,note_on,32,0,4,,,,,,,,,4,,,64,75
102240,note_on,32,0,3,,,,,,,,,2,,,73,110
102400,note_on,160,0,1,,,,,,,,,11,,,73,0
102400,note_on,160,0,2,,,,,,,,,0,,,73,0
102400,note_on,160,0,3,,,,,,,,,2,,,73,0
102432,note_on,32,0,3,,,,,,,,,2,,,76,110
102432,note_on,32,0,1,,,,,,,,,11,,,76,110
102432,note_on,32,0,2,,,,,,,,,0,,,76,110
102496,note_on,256,0,6,,,,,,,,,8,,,33,0
102496,note_on,256,0,4,,,,,,,,,4,,,64,0
102496,note_on,256,0,5,,,,,,,,,6,,,45,0
102526,note_on,94,0,2,,,,,,,,,0,,,76,0
102526,note_on,94,0,3,,,,,,,,,2,,,76,0
102526,note_on,94,0,1,,,,,,,,,11,,,76,0
102528,note_on,32,0,6,,,,,,,,,8,,,49,92
102528,note_on,2,0,3,,,,,,,,,2,,,81,110
102528,note_on,32,0,4,,,,,,,,,4,,,76,75
102528,note_on,2,0,2,,,,,,,,,0,,,81,110
102528,note_on,32,0,5,,,,,,,,,6,,,61,92
102528,note_on,2,0,1,,,,,,,,,11,,,81,110
102574,note_on,46,0,1,,,,,,,,,11,,,81,0
102574,note_on,46,0,2,,,,,,,,,0,,,81,0
102574,note_on,46,0,3,,,,,,,,,2,,,81,0
102576,note_on,2,0,1,,,,,,,,,11,,,80,110
102576,note_on,2,0,3,,,,,,,,,2,,,80,110
102576,note_on,2,0,2,,,,,,,,,0,,,80,110
102622,note_on,46,0,1,,,,,,,,,11,,,80,0
102622,note_on,46,0,2,,,,,,,,,0,,,80,0
102622,note_on,46,0,3,,,,,,,,,2,,,80,0
102624,note_on,2,0,3,,,,,,,,,2,,,78,110
102624,note_on,2,0,1,,,,,,,,,11,,,78,110
102624,note_on,2,0,2,,,,,,,,,0,,,78,110
102718,note_on,94,0,3,,,,,,,,,2,,,78,0
102718,note_on,94,0,2,,,,,,,,,0,,,78,0
102718,note_on,94,0,1,,,,,,,,,11,,,78,0
102720,note_on,2,0,3,,,,,,,,,2,,,76,110
102720,note_on,2,0,2,,,,,,,,,0,,,76,110
102720,note_on,2,0,1,,,,,,,,,11,,,76,110
102784,note_on,256,0,4,,,,,,,,,4,,,76,0
102784,note_on,256,0,6,,,,,,,,,8,,,49,0
102784,note_on,256,0,5,,,,,,,,,6,,,61,0
102814,note_on,94,0,2,,,,,,,,,0,,,76,0
102814,note_on,94,0,3,,,,,,,,,2,,,76,0
102814,note_on,94,0,1,,,,,,,,,11,,,76,0
102816,note_on,32,0,4,,,,,,,,,4,,,73,75
102816,note_on,2,0,3,,,,,,,,,2,,,78,110
102816,note_on,2,0,2,,,,,,,,,0,,,78,110
102816,note_on,2,0,1,,,,,,,,,11,,,78,110
102816,note_on,32,0,6,,,,,,,,,8,,,45,92
102816,note_on,32,0,5,,,,,,,,,6,,,57,92
102862,note_on,46,0,2,,,,,,,,,0,,,78,0
102862,note_on,46,0,1,,,,,,,,,11,,,78,0
102862,note_on,46,0,3,,,,,,,,,2,,,78,0
102864,note_on,2,0,2,,,,,,,,,0,,,76,110
102864,note_on,2,0,3,,,,,,,,,2,,,76,110
102864,note_on,2,0,1,,,,,,,,,11,,,76,110
102910,note_on,46,0,2,,,,,,,,,0,,,76,0
102910,note_on,46,0,3,,,,,,,,,2,,,76,0
102910,note_on,46,0,1,,,,,,,,,11,,,76,0
102912,note_on,2,0,2,,,,,,,,,0,,,74,110
102912,note_on,2,0,1,,,,,,,,,11,,,74,110
102912,note_on,2,0,3,,,,,,,,,2,,,74,110
103006,note_on,94,0,3,,,,,,,,,2,,,74,0
103006,note_on,94,0,2,,,,,,,,,0,,,74,0
103006,note_on,94,0,1,,,,,,,,,11,,,74,0
103008,note_on,2,0,1,,,,,,,,,11,,,73,110
103008,note_on,2,0,2,,,,,,,,,0,,,73,110
103008,note_on,2,0,3,,,,,,,,,2,,,73,110
103072,note_on,256,0,4,,,,,,,,,4,,,73,0
103072,note_on,256,0,5,,,,,,,,,6,,,57,0
103072,note_on,256,0,6,,,,,,,,,8,,,45,0
103102,note_on,94,0,2,,,,,,,,,0,,,73,0
103102,note_on,94,0,3,,,,,,,,,2,,,73,0
103102,note_on,94,0,1,,,,,,,,,11,,,73,0
103104,note_on,32,0,4,,,,,,,,,4,,,69,75
103104,note_on,32,0,5,,,,,,,,,6,,,54,92
103104,note_on,32,0,6,,,,,,,,,8,,,42,92
103104,note_on,2,0,2,,,,,,,,,0,,,74,110
103104,note_on,2,0,1,,,,,,,,,11,,,74,110
103104,note_on,2,0,3,,,,,,,,,2,,,74,110
103150,note_on,46,0,2,,,,,,,,,0,,,74,0
103150,note_on,46,0,3,,,,,,,,,2,,,74,0
103150,note_on,46,0,1,,,,,,,,,11,,,74,0
103152,note_on,2,0,2,,,,,,,,,0,,,73,110
103152,note_on,2,0,1,,,,,,,,,11,,,73,110
103152,note_on,2,0,3,,,,,,,,,2,,,73,110
103198,note_on,46,0,2,,,,,,,,,0,,,73,0
103198,note_on,46,0,1,,,,,,,,,11,,,73,0
103198,note_on,46,0,3,,,,,,,,,2,,,73,0
103200,note_on,2,0,2,,,,,,,,,0,,,71,110
103200,note_on,2,0,1,,,,,,,,,11,,,71,110
103200,note_on,2,0,3,,,,,,,,,2,,,71,110
103294,note_on,94,0,1,,,,,,,,,11,,,71,0
103294,note_on,94,0,2,,,,,,,,,0,,,71,0
103294,note_on,94,0,3,,,,,,,,,2,,,71,0
103296,note_on,2,0,2,,,,,,,,,0,,,69,110
103296,note_on,2,0,3,,,,,,,,,2,,,69,110
103296,note_on,2,0,1,,,,,,,,,11,,,69,110
103360,note_on,256,0,6,,,,,,,,,8,,,42,0
103360,note_on,256,0,4,,,,,,,,,4,,,69,0
103360,note_on,256,0,5,,,,,,,,,6,,,54,0
103390,note_on,94,0,2,,,,,,,,,0,,,69,0
103390,note_on,94,0,3,,,,,,,,,2,,,69,0
103390,note_on,94,0,1,,,,,,,,,11,,,69,0
103392,note_on,32,0,4,,,,,,,,,4,,,66,75
103392,note_on,32,0,6,,,,,,,,,8,,,39,92
103392,note_on,32,0,5,,,,,,,,,6,,,51,92
103392,note_on,2,0,2,,,,,,,,,0,,,71,110
103392,note_on,2,0,1,,,,,,,,,11,,,71,110
103392,note_on,2,0,3,,,,,,,,,2,,,71,110
103438,note_on,46,0,2,,,,,,,,,0,,,71,0
103438,note_on,46,0,1,,,,,,,,,11,,,71,0
103438,note_on,46,0,3,,,,,,,,,2,,,71,0
103440,note_on,2,0,1,,,,,,,,,11,,,69,110
103440,note_on,2,0,2,,,,,,,,,0,,,69,110
103440,note_on,2,0,3,,,,,,,,,2,,,69,110
103486,note_on,46,0,1,,,,,,,,,11,,,69,0
103486,note_on,46,0,3,,,,,,,,,2,,,69,0
103486,note_on,46,0,2,,,,,,,,,0,,,69,0
103488,note_on,2,0,3,,,,,,,,,2,,,68,110
103488,note_on,2,0,2,,,,,,,,,0,,,68,110
103488,note_on,2,0,1,,,,,,,,,11,,,68,110
103582,note_on,94,0,3,,,,,,,,,2,,,68,0
103582,note_on,94,0,2,,,,,,,,,0,,,68,0
103582,note_on,94,0,1,,,,,,,,,11,,,68,0
103584,note_on,2,0,3,,,,,,,,,2,,,66,110
103584,note_on,2,0,1,,,,,,,,,11,,,66,110
103584,note_on,2,0,2,,,,,,,,,0,,,66,110
103648,note_on,256,0,4,,,,,,,,,4,,,66,0
103648,note_on,256,0,5,,,,,,,,,6,,,51,0
103648,note_on,256,0,6,,,,,,,,,8,,,39,0
103678,note_on,94,0,1,,,,,,,,,11,,,66,0
103678,note_on,94,0,3,,,,,,,,,2,,,66,0
103678,note_on,94,0,2,,,,,,,,,0,,,66,0
103680,note_on,2,0,1,,,,,,,,,11,,,64,110
103680,note_on,2,0,2,,,,,,,,,0,,,76,110
103774,note_on,94,0,1,,,,,,,,,11,,,64,0
103776,note_on,2,0,1,,,,,,,,,11,,,81,110
103870,note_on,94,0,1,,,,,,,,,11,,,81,0
103872,note_on,2,0,1,,,,,,,,,11,,,80,110
103936,note_on,256,0,2,,,,,,,,,0,,,76,0
103966,note_on,94,0,1,,,,,,,,,11,,,80,0
103968,note_on,32,0,2,,,,,,,,,0,,,76,110
103968,note_on,2,0,1,,,,,,,,,11,,,64,110
104062,note_on,94,0,1,,,,,,,,,11,,,64,0
104062,note_on,94,0,2,,,,,,,,,0,,,76,0
104064,note_on,2,0,1,,,,,,,,,11,,,80,110
104158,note_on,94,0,1,,,,,,,,,11,,,80,0
104160,note_on,2,0,1,,,,,,,,,11,,,78,110
104254,note_on,94,0,1,,,,,,,,,11,,,78,0
104256,note_on,194,0,2,,,,,,,,,0,,,76,110
104256,note_on,2,0,1,,,,,,,,,11,,,64,110
104350,note_on,94,0,1,,,,,,,,,11,,,64,0
104352,note_on,2,0,1,,,,,,,,,11,,,78,110
104446,note_on,94,0,1,,,,,,,,,11,,,78,0
104448,note_on,2,0,1,,,,,,,,,11,,,76,110
104512,note_on,256,0,2,,,,,,,,,0,,,76,0
104542,note_on,94,0,1,,,,,,,,,11,,,76,0
104544,note_on,32,0,2,,,,,,,,,0,,,76,110
104544,note_on,2,0,1,,,,,,,,,11,,,64,110
104638,note_on,94,0,1,,,,,,,,,11,,,64,0
104638,note_on,94,0,2,,,,,,,,,0,,,76,0
104640,note_on,2,0,1,,,,,,,,,11,,,76,110
104734,note_on,94,0,1,,,,,,,,,11,,,76,0
104736,note_on,2,0,1,,,,,,,,,11,,,74,110
104830,note_on,94,0,1,,,,,,,,,11,,,74,0
104832,note_on,194,0,2,,,,,,,,,0,,,76,110
104832,note_on,2,0,1,,,,,,,,,11,,,64,110
104926,note_on,94,0,1,,,,,,,,,11,,,64,0
104928,note_on,2,0,1,,,,,,,,,11,,,74,110
105022,note_on,94,0,1,,,,,,,,,11,,,74,0
105024,note_on,2,0,1,,,,,,,,,11,,,73,110
105088,note_on,256,0,2,,,,,,,,,0,,,76,0
105118,note_on,94,0,1,,,,,,,,,11,,,73,0
105120,note_on,2,0,1,,,,,,,,,11,,,64,110
105120,note_on,32,0,2,,,,,,,,,0,,,76,110
105214,note_on,94,0,2,,,,,,,,,0,,,76,0
105214,note_on,94,0,1,,,,,,,,,11,,,64,0
105216,note_on,2,0,1,,,,,,,,,11,,,73,110
105310,note_on,94,0,1,,,,,,,,,11,,,73,0
105312,note_on,2,0,1,,,,,,,,,11,,,71,110
105406,note_on,94,0,1,,,,,,,,,11,,,71,0
105408,note_on,0,0,1,,,,,,,,,11,,,73,110
105408,note_on,2,0,1,,,,,,,,,11,,,64,110
105408,note_on,194,0,2,,,,,,,,,0,,,64,110
105454,note_on,46,0,1,,,,,,,,,11,,,73,0
105456,note_on,2,0,1,,,,,,,,,11,,,71,110
105502,note_on,94,0,2,,,,,,,,,0,,,64,0
105502,note_on,46,0,1,,,,,,,,,11,,,71,0
105504,note_on,2,0,2,,,,,,,,,0,,,71,110
105504,note_on,2,0,1,,,,,,,,,11,,,73,110
105550,note_on,46,0,1,,,,,,,,,11,,,73,0
105552,note_on,2,0,1,,,,,,,,,11,,,71,110
105598,note_on,94,0,2,,,,,,,,,0,,,71,0
105598,note_on,46,0,1,,,,,,,,,11,,,71,0
105600,note_on,2,0,2,,,,,,,,,0,,,69,110
105600,note_on,2,0,1,,,,,,,,,11,,,73,110
105646,note_on,46,0,1,,,,,,,,,11,,,73,0
105648,note_on,2,0,1,,,,,,,,,11,,,71,110
105694,note_on,94,0,2,,,,,,,,,0,,,69,0
105696,note_on,2,0,2,,,,,,,,,0,,,68,110
105790,note_on,94,0,2,,,,,,,,,0,,,68,0
105792,note_on,2,0,2,,,,,,,,,0,,,66,110
105886,note_on,94,0,2,,,,,,,,,0,,,66,0
105888,note_on,2,0,2,,,,,,,,,0,,,64,110
105936,note_on,288,0,1,,,,,,,,,11,,,64,0
105952,note_on,16,0,1,,,,,,,,,11,,,71,0
105982,note_on,94,0,2,,,,,,,,,0,,,64,0
105984,note_on,32,0,1,,,,,,,,,11,,,64,110
105984,note_on,2,0,2,,,,,,,,,0,,,64,110
106030,note_on,46,0,1,,,,,,,,,11,,,64,0
106032,note_on,2,0,1,,,,,,,,,11,,,69,110
106078,note_on,46,0,1,,,,,,,,,11,,,69,0
106080,note_on,2,0,1,,,,,,,,,11,,,71,110
106126,note_on,46,0,1,,,,,,,,,11,,,71,0
106128,note_on,2,0,1,,,,,,,,,11,,,73,110
106174,note_on,46,0,1,,,,,,,,,11,,,73,0
106176,note_on,2,0,1,,,,,,,,,11,,,71,110
106222,note_on,46,0,1,,,,,,,,,11,,,71,0
106224,note_on,2,0,1,,,,,,,,,11,,,69,110
106270,note_on,46,0,1,,,,,,,,,11,,,69,0
106272,note_on,2,0,1,,,,,,,,,11,,,64,110
106318,note_on,334,0,2,,,,,,,,,0,,,64,0
106366,note_on,94,0,1,,,,,,,,,11,,,64,0
106368,note_on,2,0,1,,,,,,,,,11,,,76,110
106462,note_on,94,0,1,,,,,,,,,11,,,76,0
106464,note_on,2,0,1,,,,,,,,,11,,,81,110
106558,note_on,94,0,1,,,,,,,,,11,,,81,0
106560,note_on,2,0,1,,,,,,,,,11,,,80,110
106560,note_on,242,0,2,,,,,,,,,0,,,64,110
106606,note_on,46,0,1,,,,,,,,,11,,,80,0
106608,note_on,2,0,1,,,,,,,,,11,,,69,110
106654,note_on,46,0,1,,,,,,,,,11,,,69,0
106656,note_on,2,0,1,,,,,,,,,11,,,71,110
106702,note_on,46,0,1,,,,,,,,,11,,,71,0
106704,note_on,2,0,1,,,,,,,,,11,,,73,110
106750,note_on,46,0,1,,,,,,,,,11,,,73,0
106752,note_on,2,0,1,,,,,,,,,11,,,71,110
106798,note_on,46,0,1,,,,,,,,,11,,,71,0
106800,note_on,2,0,1,,,,,,,,,11,,,69,110
106846,note_on,46,0,1,,,,,,,,,11,,,69,0
106848,note_on,2,0,1,,,,,,,,,11,,,64,110
106894,note_on,334,0,2,,,,,,,,,0,,,64,0
106942,note_on,94,0,1,,,,,,,,,11,,,64,0
106944,note_on,2,0,1,,,,,,,,,11,,,81,110
107038,note_on,94,0,1,,,,,,,,,11,,,81,0
107040,note_on,2,0,1,,,,,,,,,11,,,85,110
107134,note_on,94,0,1,,,,,,,,,11,,,85,0
107136,note_on,2,0,1,,,,,,,,,11,,,83,110
107136,note_on,242,0,2,,,,,,,,,0,,,64,110
107182,note_on,46,0,1,,,,,,,,,11,,,83,0
107184,note_on,2,0,1,,,,,,,,,11,,,69,110
107230,note_on,46,0,1,,,,,,,,,11,,,69,0
107232,note_on,2,0,1,,,,,,,,,11,,,71,110
107278,note_on,46,0,1,,,,,,,,,11,,,71,0
107280,note_on,2,0,1,,,,,,,,,11,,,73,110
107326,note_on,46,0,1,,,,,,,,,11,,,73,0
107328,note_on,2,0,1,,,,,,,,,11,,,71,110
107374,note_on,46,0,1,,,,,,,,,11,,,71,0
107376,note_on,2,0,1,,,,,,,,,11,,,71,110
107422,note_on,46,0,1,,,,,,,,,11,,,71,0
107424,note_on,2,0,1,,,,,,,,,11,,,64,110
107470,note_on,334,0,2,,,,,,,,,0,,,64,0
107518,note_on,94,0,1,,,,,,,,,11,,,64,0
107520,note_on,2,0,1,,,,,,,,,11,,,83,110
107614,note_on,94,0,1,,,,,,,,,11,,,83,0
107616,note_on,2,0,1,,,,,,,,,11,,,86,110
107710,note_on,94,0,1,,,,,,,,,11,,,86,0
107712,note_on,242,0,2,,,,,,,,,0,,,64,110
107712,note_on,2,0,1,,,,,,,,,11,,,85,110
107758,note_on,46,0,1,,,,,,,,,11,,,85,0
107760,note_on,2,0,1,,,,,,,,,11,,,69,110
107806,note_on,46,0,1,,,,,,,,,11,,,69,0
107808,note_on,2,0,1,,,,,,,,,11,,,71,110
107854,note_on,46,0,1,,,,,,,,,11,,,71,0
107856,note_on,2,0,1,,,,,,,,,11,,,73,110
107902,note_on,46,0,1,,,,,,,,,11,,,73,0
107904,note_on,2,0,1,,,,,,,,,11,,,71,110
107950,note_on,46,0,1,,,,,,,,,11,,,71,0
107952,note_on,2,0,1,,,,,,,,,11,,,69,110
107998,note_on,46,0,1,,,,,,,,,11,,,69,0
108000,note_on,2,0,1,,,,,,,,,11,,,64,110
108070,note_on,358,0,2,,,,,,,,,0,,,64,0
108094,note_on,94,0,1,,,,,,,,,11,,,64,0
108096,note_on,2,0,1,,,,,,,,,11,,,85,110
108190,note_on,94,0,1,,,,,,,,,11,,,85,0
108192,note_on,2,0,1,,,,,,,,,11,,,88,110
108286,note_on,94,0,1,,,,,,,,,11,,,88,0
108288,note_on,218,0,2,,,,,,,,,0,,,64,110
108288,note_on,2,0,1,,,,,,,,,11,,,86,110
108334,note_on,46,0,1,,,,,,,,,11,,,86,0
108336,note_on,2,0,1,,,,,,,,,11,,,69,110
108382,note_on,46,0,1,,,,,,,,,11,,,69,0
108384,note_on,2,0,1,,,,,,,,,11,,,71,110
108430,note_on,46,0,1,,,,,,,,,11,,,71,0
108432,note_on,2,0,1,,,,,,,,,11,,,73,110
108478,note_on,46,0,1,,,,,,,,,11,,,73,0
108480,note_on,2,0,1,,,,,,,,,11,,,71,110
108526,note_on,46,0,1,,,,,,,,,11,,,71,0
108528,note_on,2,0,1,,,,,,,,,11,,,69,110
108574,note_on,46,0,1,,,,,,,,,11,,,69,0
108576,note_on,2,0,1,,,,,,,,,11,,,64,110
108622,note_on,334,0,2,,,,,,,,,0,,,64,0
108670,note_on,94,0,1,,,,,,,,,11,,,64,0
108672,note_on,2,0,1,,,,,,,,,11,,,86,110
108766,note_on,94,0,1,,,,,,,,,11,,,86,0
108768,note_on,2,0,1,,,,,,,,,11,,,90,110
108862,note_on,94,0,1,,,,,,,,,11,,,90,0
108864,note_on,2,0,1,,,,,,,,,11,,,88,110
108864,note_on,242,0,2,,,,,,,,,0,,,64,110
108958,note_on,94,0,2,,,,,,,,,0,,,64,0
108960,note_on,2,0,2,,,,,,,,,0,,,71,110
109054,note_on,94,0,2,,,,,,,,,0,,,71,0
109056,note_on,2,0,2,,,,,,,,,0,,,69,110
109150,note_on,94,0,2,,,,,,,,,0,,,69,0
109152,note_on,2,0,2,,,,,,,,,0,,,68,110
109198,note_on,334,0,1,,,,,,,,,11,,,88,0
109246,note_on,94,0,2,,,,,,,,,0,,,68,0
109248,note_on,2,0,2,,,,,,,,,0,,,66,110
109342,note_on,94,0,2,,,,,,,,,0,,,66,0
109344,note_on,2,0,2,,,,,,,,,0,,,64,110
109438,note_on,94,0,2,,,,,,,,,0,,,64,0
109440,note_on,242,0,1,,,,,,,,,11,,,88,110
109440,note_on,2,0,2,,,,,,,,,0,,,73,110
109486,note_on,46,0,1,,,,,,,,,11,,,88,0
109488,note_on,2,0,1,,,,,,,,,11,,,85,110
109534,note_on,46,0,1,,,,,,,,,11,,,85,0
109536,note_on,2,0,1,,,,,,,,,11,,,86,110
109582,note_on,46,0,1,,,,,,,,,11,,,86,0
109584,note_on,2,0,1,,,,,,,,,11,,,88,110
109630,note_on,46,0,1,,,,,,,,,11,,,88,0
109632,note_on,2,0,1,,,,,,,,,11,,,86,110
109678,note_on,46,0,1,,,,,,,,,11,,,86,0
109680,note_on,2,0,1,,,,,,,,,11,,,85,110
109696,note_on,256,0,2,,,,,,,,,0,,,73,0
109726,note_on,46,0,1,,,,,,,,,11,,,85,0
109728,note_on,32,0,2,,,,,,,,,0,,,71,110
109728,note_on,2,0,1,,,,,,,,,11,,,86,110
109774,note_on,46,0,1,,,,,,,,,11,,,86,0
109776,note_on,2,0,1,,,,,,,,,11,,,83,110
109822,note_on,46,0,1,,,,,,,,,11,,,83,0
109824,note_on,2,0,1,,,,,,,,,11,,,85,110
109870,note_on,46,0,1,,,,,,,,,11,,,85,0
109872,note_on,2,0,1,,,,,,,,,11,,,86,110
109918,note_on,46,0,1,,,,,,,,,11,,,86,0
109920,note_on,2,0,1,,,,,,,,,11,,,85,110
109966,note_on,46,0,1,,,,,,,,,11,,,85,0
109968,note_on,2,0,1,,,,,,,,,11,,,83,110
109984,note_on,256,0,2,,,,,,,,,0,,,71,0
110014,note_on,46,0,1,,,,,,,,,11,,,83,0
110016,note_on,32,0,2,,,,,,,,,0,,,69,110
110016,note_on,2,0,1,,,,,,,,,11,,,85,110
110062,note_on,46,0,1,,,,,,,,,11,,,85,0
110064,note_on,2,0,1,,,,,,,,,11,,,81,110
110110,note_on,46,0,1,,,,,,,,,11,,,81,0
110112,note_on,2,0,1,,,,,,,,,11,,,83,110
110158,note_on,46,0,1,,,,,,,,,11,,,83,0
110160,note_on,2,0,1,,,,,,,,,11,,,85,110
110206,note_on,46,0,1,,,,,,,,,11,,,85,0
110208,note_on,2,0,1,,,,,,,,,11,,,83,110
110254,note_on,46,0,1,,,,,,,,,11,,,83,0
110256,note_on,2,0,1,,,,,,,,,11,,,81,110
110272,note_on,256,0,2,,,,,,,,,0,,,69,0
110302,note_on,46,0,1,,,,,,,,,11,,,81,0
110304,note_on,2,0,1,,,,,,,,,11,,,83,110
110304,note_on,32,0,2,,,,,,,,,0,,,68,110
110350,note_on,46,0,1,,,,,,,,,11,,,83,0
110352,note_on,2,0,1,,,,,,,,,11,,,80,110
110398,note_on,46,0,1,,,,,,,,,11,,,80,0
110400,note_on,2,0,1,,,,,,,,,11,,,81,110
110446,note_on,46,0,1,,,,,,,,,11,,,81,0
110448,note_on,2,0,1,,,,,,,,,11,,,83,110
110494,note_on,46,0,1,,,,,,,,,11,,,83,0
110496,note_on,2,0,1,,,,,,,,,11,,,81,110
110542,note_on,46,0,1,,,,,,,,,11,,,81,0
110544,note_on,2,0,1,,,,,,,,,11,,,80,110
110560,note_on,256,0,2,,,,,,,,,0,,,68,0
110590,note_on,46,0,1,,,,,,,,,11,,,80,0
110592,note_on,2,0,1,,,,,,,,,11,,,81,110
110592,note_on,32,0,2,,,,,,,,,0,,,66,110
110638,note_on,46,0,1,,,,,,,,,11,,,81,0
110640,note_on,2,0,1,,,,,,,,,11,,,78,110
110686,note_on,46,0,1,,,,,,,,,11,,,78,0
110688,note_on,2,0,1,,,,,,,,,11,,,80,110
110734,note_on,46,0,1,,,,,,,,,11,,,80,0
110736,note_on,2,0,1,,,,,,,,,11,,,81,110
110782,note_on,46,0,1,,,,,,,,,11,,,81,0
110784,note_on,2,0,1,,,,,,,,,11,,,80,110
110830,note_on,46,0,1,,,,,,,,,11,,,80,0
110832,note_on,2,0,1,,,,,,,,,11,,,78,110
110848,note_on,256,0,2,,,,,,,,,0,,,66,0
110878,note_on,46,0,1,,,,,,,,,11,,,78,0
110880,note_on,2,0,1,,,,,,,,,11,,,80,110
110880,note_on,32,0,2,,,,,,,,,0,,,64,110
110926,note_on,46,0,1,,,,,,,,,11,,,80,0
110928,note_on,2,0,1,,,,,,,,,11,,,76,110
110974,note_on,46,0,1,,,,,,,,,11,,,76,0
110976,note_on,2,0,1,,,,,,,,,11,,,78,110
111022,note_on,46,0,1,,,,,,,,,11,,,78,0
111024,note_on,2,0,1,,,,,,,,,11,,,80,110
111070,note_on,46,0,1,,,,,,,,,11,,,80,0
111072,note_on,2,0,1,,,,,,,,,11,,,78,110
111118,note_on,46,0,1,,,,,,,,,11,,,78,0
111120,note_on,2,0,1,,,,,,,,,11,,,76,110
111136,note_on,256,0,2,,,,,,,,,0,,,64,0
111166,note_on,46,0,1,,,,,,,,,11,,,76,0
111168,note_on,2,0,1,,,,,,,,,11,,,74,110
111168,note_on,32,0,2,,,,,,,,,0,,,64,110
111262,note_on,94,0,2,,,,,,,,,0,,,64,0
111262,note_on,94,0,1,,,,,,,,,11,,,74,0
111264,note_on,2,0,1,,,,,,,,,11,,,64,110
111264,note_on,2,0,2,,,,,,,,,0,,,71,110
111358,note_on,94,0,2,,,,,,,,,0,,,71,0
111358,note_on,94,0,1,,,,,,,,,11,,,64,0
111360,note_on,2,0,1,,,,,,,,,11,,,74,110
111360,note_on,2,0,2,,,,,,,,,0,,,69,110
111454,note_on,94,0,2,,,,,,,,,0,,,69,0
111454,note_on,94,0,1,,,,,,,,,11,,,74,0
111456,note_on,2,0,1,,,,,,,,,11,,,76,110
111456,note_on,2,0,2,,,,,,,,,0,,,68,110
111502,note_on,46,0,1,,,,,,,,,11,,,76,0
111504,note_on,2,0,1,,,,,,,,,11,,,74,110
111550,note_on,94,0,2,,,,,,,,,0,,,68,0
111550,note_on,46,0,1,,,,,,,,,11,,,74,0
111552,note_on,2,0,2,,,,,,,,,0,,,66,110
111552,note_on,2,0,1,,,,,,,,,11,,,76,110
111598,note_on,46,0,1,,,,,,,,,11,,,76,0
111600,note_on,2,0,1,,,,,,,,,11,,,74,110
111646,note_on,94,0,2,,,,,,,,,0,,,66,0
111646,note_on,46,0,1,,,,,,,,,11,,,74,0
111648,note_on,2,0,2,,,,,,,,,0,,,64,110
111648,note_on,2,0,1,,,,,,,,,11,,,76,110
111694,note_on,46,0,1,,,,,,,,,11,,,76,0
111696,note_on,2,0,1,,,,,,,,,11,,,74,110
111742,note_on,94,0,2,,,,,,,,,0,,,64,0
111742,note_on,46,0,1,,,,,,,,,11,,,74,0
111744,note_on,2,0,2,,,,,,,,,0,,,57,110
111744,note_on,2,0,1,,,,,,,,,11,,,73,110
111790,note_on,46,0,1,,,,,,,,,11,,,73,0
111792,note_on,2,0,1,,,,,,,,,11,,,64,110
111838,note_on,46,0,1,,,,,,,,,11,,,64,0
111840,note_on,2,0,1,,,,,,,,,11,,,57,110
111886,note_on,46,0,1,,,,,,,,,11,,,57,0
111888,note_on,2,0,1,,,,,,,,,11,,,64,110
111934,note_on,46,0,1,,,,,,,,,11,,,64,0
111936,note_on,2,0,1,,,,,,,,,11,,,73,110
112030,note_on,94,0,1,,,,,,,,,11,,,73,0
112032,note_on,2,0,1,,,,,,,,,11,,,74,110
112078,note_on,334,0,2,,,,,,,,,0,,,57,0
112078,note_on,46,0,1,,,,,,,,,11,,,74,0
112080,note_on,2,0,1,,,,,,,,,11,,,73,110
112126,note_on,46,0,1,,,,,,,,,11,,,73,0
112128,note_on,2,0,1,,,,,,,,,11,,,74,110
112174,note_on,46,0,1,,,,,,,,,11,,,74,0
112176,note_on,2,0,1,,,,,,,,,11,,,73,110
112222,note_on,46,0,1,,,,,,,,,11,,,73,0
112224,note_on,2,0,1,,,,,,,,,11,,,74,110
112270,note_on,46,0,1,,,,,,,,,11,,,74,0
112272,note_on,2,0,1,,,,,,,,,11,,,73,110
112318,note_on,46,0,1,,,,,,,,,11,,,73,0
112320,note_on,242,0,2,,,,,,,,,0,,,64,110
112320,note_on,2,0,1,,,,,,,,,11,,,71,110
112414,note_on,94,0,1,,,,,,,,,11,,,71,0
112414,note_on,94,0,2,,,,,,,,,0,,,64,0
112416,note_on,2,0,2,,,,,,,,,0,,,71,110
112416,note_on,2,0,1,,,,,,,,,11,,,64,110
112510,note_on,94,0,1,,,,,,,,,11,,,64,0
112510,note_on,94,0,2,,,,,,,,,0,,,71,0
112512,note_on,2,0,1,,,,,,,,,11,,,71,110
112512,note_on,2,0,2,,,,,,,,,0,,,69,110
112606,note_on,94,0,2,,,,,,,,,0,,,69,0
112606,note_on,94,0,1,,,,,,,,,11,,,71,0
112608,note_on,2,0,1,,,,,,,,,11,,,73,110
112608,note_on,2,0,2,,,,,,,,,0,,,68,110
112654,note_on,46,0,1,,,,,,,,,11,,,73,0
112656,note_on,2,0,1,,,,,,,,,11,,,71,110
112702,note_on,94,0,2,,,,,,,,,0,,,68,0
112702,note_on,46,0,1,,,,,,,,,11,,,71,0
112704,note_on,2,0,1,,,,,,,,,11,,,73,110
112704,note_on,2,0,2,,,,,,,,,0,,,66,110
112750,note_on,46,0,1,,,,,,,,,11,,,73,0
112752,note_on,2,0,1,,,,,,,,,11,,,71,110
112798,note_on,46,0,1,,,,,,,,,11,,,71,0
112798,note_on,94,0,2,,,,,,,,,0,,,66,0
112800,note_on,2,0,1,,,,,,,,,11,,,73,110
112800,note_on,2,0,2,,,,,,,,,0,,,64,110
112846,note_on,46,0,1,,,,,,,,,11,,,73,0
112848,note_on,2,0,1,,,,,,,,,11,,,71,110
112894,note_on,94,0,2,,,,,,,,,0,,,64,0
112894,note_on,46,0,1,,,,,,,,,11,,,71,0
112896,note_on,2,0,2,,,,,,,,,0,,,57,110
112896,note_on,2,0,1,,,,,,,,,11,,,69,110
112942,note_on,46,0,1,,,,,,,,,11,,,69,0
112944,note_on,2,0,1,,,,,,,,,11,,,64,110
112990,note_on,46,0,1,,,,,,,,,11,,,64,0
112992,note_on,2,0,1,,,,,,,,,11,,,57,110
113038,note_on,46,0,1,,,,,,,,,11,,,57,0
113040,note_on,2,0,1,,,,,,,,,11,,,64,110
113086,note_on,46,0,1,,,,,,,,,11,,,64,0
113088,note_on,2,0,1,,,,,,,,,11,,,69,110
113182,note_on,94,0,1,,,,,,,,,11,,,69,0
113184,note_on,2,0,1,,,,,,,,,11,,,71,110
113230,note_on,46,0,1,,,,,,,,,11,,,71,0
113230,note_on,334,0,2,,,,,,,,,0,,,57,0
113232,note_on,2,0,1,,,,,,,,,11,,,69,110
113278,note_on,46,0,1,,,,,,,,,11,,,69,0
113280,note_on,2,0,1,,,,,,,,,11,,,71,110
113326,note_on,46,0,1,,,,,,,,,11,,,71,0
113328,note_on,2,0,1,,,,,,,,,11,,,69,110
113374,note_on,46,0,1,,,,,,,,,11,,,69,0
113376,note_on,2,0,1,,,,,,,,,11,,,71,110
113422,note_on,46,0,1,,,,,,,,,11,,,71,0
113424,note_on,2,0,1,,,,,,,,,11,,,69,110
113470,note_on,46,0,1,,,,,,,,,11,,,69,0
113472,note_on,2,0,1,,,,,,,,,11,,,68,110
113472,note_on,242,0,2,,,,,,,,,0,,,64,110
113518,note_on,46,0,1,,,,,,,,,11,,,68,0
113520,note_on,2,0,1,,,,,,,,,11,,,66,110
113566,note_on,46,0,1,,,,,,,,,11,,,66,0
113568,note_on,2,0,1,,,,,,,,,11,,,64,110
113662,note_on,94,0,1,,,,,,,,,11,,,64,0
113664,note_on,2,0,1,,,,,,,,,11,,,68,110
113728,note_on,256,0,2,,,,,,,,,0,,,64,0
113758,note_on,94,0,1,,,,,,,,,11,,,68,0
113760,note_on,2,0,1,,,,,,,,,11,,,71,110
113760,note_on,32,0,2,,,,,,,,,0,,,64,110
113806,note_on,46,0,1,,,,,,,,,11,,,71,0
113808,note_on,2,0,1,,,,,,,,,11,,,69,110
113854,note_on,46,0,1,,,,,,,,,11,,,69,0
113856,note_on,2,0,1,,,,,,,,,11,,,68,110
113950,note_on,94,0,1,,,,,,,,,11,,,68,0
113952,note_on,2,0,1,,,,,,,,,11,,,71,110
114016,note_on,256,0,2,,,,,,,,,0,,,64,0
114046,note_on,94,0,1,,,,,,,,,11,,,71,0
114048,note_on,2,0,1,,,,,,,,,11,,,74,110
114048,note_on,32,0,2,,,,,,,,,0,,,64,110
114094,note_on,46,0,1,,,,,,,,,11,,,74,0
114096,note_on,2,0,1,,,,,,,,,11,,,73,110
114142,note_on,46,0,1,,,,,,,,,11,,,73,0
114144,note_on,2,0,1,,,,,,,,,11,,,71,110
114238,note_on,94,0,1,,,,,,,,,11,,,71,0
114240,note_on,2,0,1,,,,,,,,,11,,,74,110
114304,note_on,256,0,2,,,,,,,,,0,,,64,0
114334,note_on,94,0,1,,,,,,,,,11,,,74,0
114336,note_on,2,0,1,,,,,,,,,11,,,80,110
114336,note_on,32,0,2,,,,,,,,,0,,,64,110
114382,note_on,46,0,1,,,,,,,,,11,,,80,0
114384,note_on,2,0,1,,,,,,,,,11,,,78,110
114430,note_on,46,0,1,,,,,,,,,11,,,78,0
114432,note_on,2,0,1,,,,,,,,,11,,,76,110
114526,note_on,94,0,1,,,,,,,,,11,,,76,0
114528,note_on,2,0,1,,,,,,,,,11,,,80,110
114592,note_on,256,0,2,,,,,,,,,0,,,64,0
114622,note_on,94,0,1,,,,,,,,,11,,,80,0
114624,note_on,32,0,2,,,,,,,,,0,,,64,110
114624,note_on,2,0,1,,,,,,,,,11,,,83,110
114670,note_on,46,0,1,,,,,,,,,11,,,83,0
114672,note_on,2,0,1,,,,,,,,,11,,,81,110
114718,note_on,46,0,1,,,,,,,,,11,,,81,0
114720,note_on,2,0,1,,,,,,,,,11,,,80,110
114814,note_on,94,0,1,,,,,,,,,11,,,80,0
114816,note_on,2,0,1,,,,,,,,,11,,,83,110
114880,note_on,256,0,2,,,,,,,,,0,,,64,0
114910,note_on,94,0,1,,,,,,,,,11,,,83,0
114912,note_on,32,0,2,,,,,,,,,0,,,64,110
114912,note_on,2,0,1,,,,,,,,,11,,,86,110
115168,note_on,256,0,2,,,,,,,,,0,,,64,0
115200,note_on,32,0,2,,,,,,,,,0,,,64,110
115246,note_on,334,0,1,,,,,,,,,11,,,86,0
115248,note_on,2,0,1,,,,,,,,,11,,,85,110
115294,note_on,46,0,1,,,,,,,,,11,,,85,0
115296,note_on,2,0,1,,,,,,,,,11,,,83,110
115342,note_on,46,0,1,,,,,,,,,11,,,83,0
115344,note_on,2,0,1,,,,,,,,,11,,,81,110
115390,note_on,46,0,1,,,,,,,,,11,,,81,0
115392,note_on,2,0,1,,,,,,,,,11,,,80,110
115438,note_on,46,0,1,,,,,,,,,11,,,80,0
115440,note_on,2,0,1,,,,,,,,,11,,,78,110
115456,note_on,256,0,2,,,,,,,,,0,,,64,0
115486,note_on,46,0,1,,,,,,,,,11,,,78,0
115488,note_on,32,0,2,,,,,,,,,0,,,64,110
115488,note_on,2,0,1,,,,,,,,,11,,,76,110
115582,note_on,94,0,1,,,,,,,,,11,,,76,0
115584,note_on,2,0,1,,,,,,,,,11,,,83,110
115678,note_on,94,0,1,,,,,,,,,11,,,83,0
115680,note_on,2,0,1,,,,,,,,,11,,,86,110
115744,note_on,256,0,2,,,,,,,,,0,,,64,0
115774,note_on,94,0,1,,,,,,,,,11,,,86,0
115776,note_on,2,0,1,,,,,,,,,11,,,85,110
115776,note_on,32,0,2,,,,,,,,,0,,,69,110
115870,note_on,94,0,2,,,,,,,,,0,,,69,0
115872,note_on,2,0,2,,,,,,,,,0,,,76,110
115966,note_on,94,0,2,,,,,,,,,0,,,76,0
115968,note_on,2,0,2,,,,,,,,,0,,,74,110
116062,note_on,94,0,2,,,,,,,,,0,,,74,0
116064,note_on,2,0,2,,,,,,,,,0,,,73,110
116110,note_on,334,0,1,,,,,,,,,11,,,85,0
116158,note_on,94,0,2,,,,,,,,,0,,,73,0
116160,note_on,2,0,2,,,,,,,,,0,,,71,110
116254,note_on,94,0,2,,,,,,,,,0,,,71,0
116256,note_on,2,0,2,,,,,,,,,0,,,69,110
116350,note_on,94,0,2,,,,,,,,,0,,,69,0
116352,note_on,12674,0,3,,,,,,,,,2,,,72,110
116352,note_on,242,0,1,,,,,,,,,11,,,84,110
116352,note_on,12704,0,4,,,,,,,,,4,,,69,75
116352,note_on,2,0,2,,,,,,,,,0,,,76,110
116446,note_on,94,0,1,,,,,,,,,11,,,84,0
116448,note_on,2,0,1,,,,,,,,,11,,,83,110
116542,note_on,94,0,1,,,,,,,,,11,,,83,0
116544,note_on,2,0,1,,,,,,,,,11,,,84,110
116608,note_on,256,0,3,,,,,,,,,2,,,72,0
116608,note_on,256,0,4,,,,,,,,,4,,,69,0
116608,note_on,256,0,2,,,,,,,,,0,,,76,0
116638,note_on,94,0,1,,,,,,,,,11,,,84,0
116640,note_on,32,0,3,,,,,,,,,2,,,71,110
116640,note_on,2,0,1,,,,,,,,,11,,,86,110
116640,note_on,32,0,4,,,,,,,,,4,,,68,75
116640,note_on,32,0,2,,,,,,,,,0,,,76,110
116734,note_on,94,0,1,,,,,,,,,11,,,86,0
116736,note_on,2,0,1,,,,,,,,,11,,,84,110
116830,note_on,94,0,1,,,,,,,,,11,,,84,0
116832,note_on,2,0,1,,,,,,,,,11,,,83,110
116896,note_on,256,0,2,,,,,,,,,0,,,76,0
116896,note_on,256,0,3,,,,,,,,,2,,,71,0
116896,note_on,256,0,4,,,,,,,,,4,,,68,0
116926,note_on,94,0,1,,,,,,,,,11,,,83,0
116928,note_on,32,0,2,,,,,,,,,0,,,76,110
116928,note_on,32,0,4,,,,,,,,,4,,,69,75
116928,note_on,2,0,1,,,,,,,,,11,,,81,110
116928,note_on,32,0,3,,,,,,,,,2,,,72,110
117184,note_on,256,0,2,,,,,,,,,0,,,76,0
117184,note_on,256,0,4,,,,,,,,,4,,,69,0
117184,note_on,256,0,3,,,,,,,,,2,,,72,0
117216,note_on,32,0,4,,,,,,,,,4,,,57,75
117216,note_on,32,0,3,,,,,,,,,2,,,72,110
117216,note_on,32,0,2,,,,,,,,,0,,,76,110
117456,note_on,528,0,1,,,,,,,,,11,,,81,0
117472,note_on,256,0,2,,,,,,,,,0,,,76,0
117472,note_on,256,0,3,,,,,,,,,2,,,72,0
117472,note_on,256,0,4,,,,,,,,,4,,,57,0
117504,note_on,32,0,4,,,,,,,,,4,,,57,75
117504,note_on,48,0,1,,,,,,,,,11,,,76,110
117504,note_on,32,0,2,,,,,,,,,0,,,72,110
117504,note_on,32,0,3,,,,,,,,,2,,,69,110
117598,note_on,94,0,1,,,,,,,,,11,,,76,0
117600,note_on,2,0,1,,,,,,,,,11,,,74,110
117694,note_on,94,0,1,,,,,,,,,11,,,74,0
117696,note_on,2,0,1,,,,,,,,,11,,,76,110
117790,note_on,94,0,1,,,,,,,,,11,,,76,0
117792,note_on,2,0,1,,,,,,,,,11,,,77,110
117838,note_on,334,0,4,,,,,,,,,4,,,57,0
117838,note_on,334,0,3,,,,,,,,,2,,,69,0
117838,note_on,334,0,2,,,,,,,,,0,,,72,0
117886,note_on,94,0,1,,,,,,,,,11,,,77,0
117888,note_on,2,0,1,,,,,,,,,11,,,76,110
117982,note_on,94,0,1,,,,,,,,,11,,,76,0
117984,note_on,2,0,1,,,,,,,,,11,,,74,110
118078,note_on,94,0,1,,,,,,,,,11,,,74,0
118080,note_on,2,0,1,,,,,,,,,11,,,64,110
118080,note_on,242,0,4,,,,,,,,,4,,,64,75
118080,note_on,242,0,3,,,,,,,,,2,,,71,110
118080,note_on,242,0,2,,,,,,,,,0,,,74,110
118174,note_on,94,0,1,,,,,,,,,11,,,64,0
118176,note_on,2,0,1,,,,,,,,,11,,,74,110
118270,note_on,94,0,1,,,,,,,,,11,,,74,0
118272,note_on,2,0,1,,,,,,,,,11,,,76,110
118366,note_on,94,0,1,,,,,,,,,11,,,76,0
118368,note_on,2,0,1,,,,,,,,,11,,,77,110
118414,note_on,334,0,2,,,,,,,,,0,,,74,0
118414,note_on,334,0,4,,,,,,,,,4,,,64,0
118414,note_on,334,0,3,,,,,,,,,2,,,71,0
118462,note_on,94,0,1,,,,,,,,,11,,,77,0
118464,note_on,2,0,1,,,,,,,,,11,,,76,110
118558,note_on,94,0,1,,,,,,,,,11,,,76,0
118560,note_on,2,0,1,,,,,,,,,11,,,74,110
118654,note_on,94,0,1,,,,,,,,,11,,,74,0
118656,note_on,242,0,3,,,,,,,,,2,,,69,110
118656,note_on,242,0,4,,,,,,,,,4,,,64,75
118656,note_on,242,0,2,,,,,,,,,0,,,72,110
118656,note_on,2,0,1,,,,,,,,,11,,,64,110
118750,note_on,94,0,1,,,,,,,,,11,,,64,0
118752,note_on,2,0,1,,,,,,,,,11,,,72,110
118846,note_on,94,0,1,,,,,,,,,11,,,72,0
118848,note_on,2,0,1,,,,,,,,,11,,,74,110
118942,note_on,94,0,1,,,,,,,,,11,,,74,0
118944,note_on,2,0,1,,,,,,,,,11,,,76,110
118990,note_on,334,0,3,,,,,,,,,2,,,69,0
118990,note_on,334,0,4,,,,,,,,,4,,,64,0
118990,note_on,334,0,2,,,,,,,,,0,,,72,0
119038,note_on,94,0,1,,,,,,,,,11,,,76,0
119040,note_on,2,0,1,,,,,,,,,11,,,74,110
119134,note_on,94,0,1,,,,,,,,,11,,,74,0
119136,note_on,2,0,1,,,,,,,,,11,,,72,110
119230,note_on,94,0,1,,,,,,,,,11,,,72,0
119232,note_on,242,0,3,,,,,,,,,2,,,67,110
119232,note_on,242,0,2,,,,,,,,,0,,,71,110
119232,note_on,2,0,1,,,,,,,,,11,,,64,110
119232,note_on,242,0,4,,,,,,,,,4,,,64,75
119326,note_on,94,0,1,,,,,,,,,11,,,64,0
119328,note_on,2,0,1,,,,,,,,,11,,,71,110
119422,note_on,94,0,1,,,,,,,,,11,,,71,0
119424,note_on,2,0,1,,,,,,,,,11,,,72,110
119518,note_on,94,0,1,,,,,,,,,11,,,72,0
119520,note_on,2,0,1,,,,,,,,,11,,,74,110
119590,note_on,358,0,3,,,,,,,,,2,,,67,0
119590,note_on,358,0,4,,,,,,,,,4,,,64,0
119590,note_on,358,0,2,,,,,,,,,0,,,71,0
119614,note_on,94,0,1,,,,,,,,,11,,,74,0
119616,note_on,2,0,1,,,,,,,,,11,,,72,110
119710,note_on,94,0,1,,,,,,,,,11,,,72,0
119712,note_on,2,0,1,,,,,,,,,11,,,71,110
119806,note_on,94,0,1,,,,,,,,,11,,,71,0
119808,note_on,218,0,3,,,,,,,,,2,,,65,110
119808,note_on,2,0,1,,,,,,,,,11,,,76,110
119808,note_on,218,0,4,,,,,,,,,4,,,64,75
119808,note_on,218,0,2,,,,,,,,,0,,,69,110
119902,note_on,94,0,1,,,,,,,,,11,,,76,0
119904,note_on,2,0,1,,,,,,,,,11,,,69,110
119998,note_on,94,0,1,,,,,,,,,11,,,69,0
120000,note_on,2,0,1,,,,,,,,,11,,,71,110
120094,note_on,94,0,1,,,,,,,,,11,,,71,0
120096,note_on,2,0,1,,,,,,,,,11,,,72,110
120142,note_on,334,0,4,,,,,,,,,4,,,64,0
120142,note_on,334,0,2,,,,,,,,,0,,,69,0
120142,note_on,334,0,3,,,,,,,,,2,,,65,0
120190,note_on,94,0,1,,,,,,,,,11,,,72,0
120192,note_on,2,0,1,,,,,,,,,11,,,71,110
120286,note_on,94,0,1,,,,,,,,,11,,,71,0
120288,note_on,2,0,1,,,,,,,,,11,,,69,110
120382,note_on,94,0,1,,,,,,,,,11,,,69,0
120384,note_on,242,0,2,,,,,,,,,0,,,72,110
120384,note_on,242,0,3,,,,,,,,,2,,,68,110
120384,note_on,2,0,1,,,,,,,,,11,,,64,110
120384,note_on,242,0,4,,,,,,,,,4,,,64,75
120544,note_on,160,0,1,,,,,,,,,11,,,64,0
120576,note_on,32,0,1,,,,,,,,,11,,,72,110
120670,note_on,94,0,1,,,,,,,,,11,,,72,0
120672,note_on,2,0,1,,,,,,,,,11,,,81,110
120718,note_on,334,0,2,,,,,,,,,0,,,72,0
120718,note_on,334,0,4,,,,,,,,,4,,,64,0
120718,note_on,334,0,3,,,,,,,,,2,,,68,0
120766,note_on,94,0,1,,,,,,,,,11,,,81,0
120768,note_on,2,0,1,,,,,,,,,11,,,79,110
120862,note_on,94,0,1,,,,,,,,,11,,,79,0
120864,note_on,2,0,1,,,,,,,,,11,,,77,110
120958,note_on,94,0,1,,,,,,,,,11,,,77,0
120960,note_on,242,0,2,,,,,,,,,0,,,77,110
120960,note_on,242,0,4,,,,,,,,,4,,,56,75
120960,note_on,2,0,1,,,,,,,,,11,,,77,110
120960,note_on,242,0,3,,,,,,,,,2,,,74,110
121216,note_on,256,0,1,,,,,,,,,11,,,77,0
121216,note_on,256,0,2,,,,,,,,,0,,,77,0
121216,note_on,256,0,3,,,,,,,,,2,,,74,0
121216,note_on,256,0,4,,,,,,,,,4,,,56,0
121248,note_on,32,0,3,,,,,,,,,2,,,72,110
121248,note_on,32,0,4,,,,,,,,,4,,,56,75
121248,note_on,32,0,2,,,,,,,,,0,,,76,110
121248,note_on,32,0,1,,,,,,,,,11,,,76,110
121408,note_on,160,0,3,,,,,,,,,2,,,72,0
121408,note_on,160,0,2,,,,,,,,,0,,,76,0
121408,note_on,160,0,1,,,,,,,,,11,,,76,0
121440,note_on,32,0,1,,,,,,,,,11,,,74,110
121440,note_on,32,0,3,,,,,,,,,2,,,71,110
121440,note_on,32,0,2,,,,,,,,,0,,,74,110
121504,note_on,256,0,4,,,,,,,,,4,,,56,0
121534,note_on,94,0,2,,,,,,,,,0,,,74,0
121534,note_on,94,0,3,,,,,,,,,2,,,71,0
121534,note_on,94,0,1,,,,,,,,,11,,,74,0
121536,note_on,2,0,2,,,,,,,,,0,,,72,110
121536,note_on,32,0,4,,,,,,,,,4,,,57,75
121536,note_on,2,0,1,,,,,,,,,11,,,72,110
121536,note_on,2,0,3,,,,,,,,,2,,,69,110
121630,note_on,94,0,1,,,,,,,,,11,,,72,0
121632,note_on,2,0,1,,,,,,,,,11,,,64,110
121726,note_on,94,0,1,,,,,,,,,11,,,64,0
121728,note_on,2,0,1,,,,,,,,,11,,,72,110
121822,note_on,94,0,1,,,,,,,,,11,,,72,0
121824,note_on,2,0,1,,,,,,,,,11,,,81,110
121894,note_on,358,0,4,,,,,,,,,4,,,57,0
121894,note_on,358,0,3,,,,,,,,,2,,,69,0
121894,note_on,358,0,2,,,,,,,,,0,,,72,0
121918,note_on,94,0,1,,,,,,,,,11,,,81,0
121920,note_on,2,0,1,,,,,,,,,11,,,79,110
122014,note_on,94,0,1,,,,,,,,,11,,,79,0
122016,note_on,2,0,1,,,,,,,,,11,,,77,110
122110,note_on,94,0,1,,,,,,,,,11,,,77,0
122112,note_on,218,0,4,,,,,,,,,4,,,56,75
122112,note_on,2,0,1,,,,,,,,,11,,,77,110
122112,note_on,218,0,3,,,,,,,,,2,,,74,110
122112,note_on,218,0,2,,,,,,,,,0,,,77,110
122368,note_on,256,0,1,,,,,,,,,11,,,77,0
122368,note_on,256,0,3,,,,,,,,,2,,,74,0
122368,note_on,256,0,2,,,,,,,,,0,,,77,0
122368,note_on,256,0,4,,,,,,,,,4,,,56,0
122400,note_on,32,0,1,,,,,,,,,11,,,76,110
122400,note_on,32,0,4,,,,,,,,,4,,,57,75
122400,note_on,32,0,2,,,,,,,,,0,,,76,110
122400,note_on,32,0,3,,,,,,,,,2,,,72,110
122560,note_on,160,0,1,,,,,,,,,11,,,76,0
122560,note_on,160,0,4,,,,,,,,,4,,,57,0
122560,note_on,160,0,2,,,,,,,,,0,,,76,0
122560,note_on,160,0,3,,,,,,,,,2,,,72,0
122592,note_on,32,0,4,,,,,,,,,4,,,57,75
122592,note_on,32,0,3,,,,,,,,,2,,,72,110
122592,note_on,32,0,2,,,,,,,,,0,,,76,110
122592,note_on,32,0,1,,,,,,,,,11,,,72,110
122686,note_on,94,0,3,,,,,,,,,2,,,72,0
122686,note_on,94,0,2,,,,,,,,,0,,,76,0
122686,note_on,94,0,4,,,,,,,,,4,,,57,0
122686,note_on,94,0,1,,,,,,,,,11,,,72,0
122688,note_on,2,0,1,,,,,,,,,11,,,69,110
122688,note_on,2,0,4,,,,,,,,,4,,,57,75
122688,note_on,2,0,2,,,,,,,,,0,,,76,110
122688,note_on,2,0,3,,,,,,,,,2,,,72,110
122782,note_on,94,0,1,,,,,,,,,11,,,69,0
122784,note_on,2,0,1,,,,,,,,,11,,,64,110
122878,note_on,94,0,1,,,,,,,,,11,,,64,0
122880,note_on,2,0,1,,,,,,,,,11,,,69,110
122974,note_on,94,0,1,,,,,,,,,11,,,69,0
122976,note_on,2,0,1,,,,,,,,,11,,,71,110
123022,note_on,334,0,3,,,,,,,,,2,,,72,0
123022,note_on,334,0,2,,,,,,,,,0,,,76,0
123022,note_on,334,0,4,,,,,,,,,4,,,57,0
123070,note_on,94,0,1,,,,,,,,,11,,,71,0
123072,note_on,2,0,1,,,,,,,,,11,,,72,110
123166,note_on,94,0,1,,,,,,,,,11,,,72,0
123168,note_on,2,0,1,,,,,,,,,11,,,74,110
123262,note_on,94,0,1,,,,,,,,,11,,,74,0
123264,note_on,2,0,1,,,,,,,,,11,,,74,110
123264,note_on,242,0,4,,,,,,,,,4,,,64,75
123520,note_on,256,0,4,,,,,,,,,4,,,64,0
123520,note_on,256,0,1,,,,,,,,,11,,,74,0
123552,note_on,32,0,4,,,,,,,,,4,,,64,75
123552,note_on,32,0,1,,,,,,,,,11,,,72,110
123712,note_on,160,0,1,,,,,,,,,11,,,72,0
123744,note_on,32,0,1,,,,,,,,,11,,,71,110
123808,note_on,256,0,4,,,,,,,,,4,,,64,0
123838,note_on,94,0,1,,,,,,,,,11,,,71,0
123840,note_on,2,0,1,,,,,,,,,11,,,69,110
123840,note_on,32,0,4,,,,,,,,,4,,,64,75
123934,note_on,94,0,1,,,,,,,,,11,,,69,0
123936,note_on,2,0,1,,,,,,,,,11,,,64,110
124030,note_on,94,0,1,,,,,,,,,11,,,64,0
124032,note_on,2,0,1,,,,,,,,,11,,,69,110
124096,note_on,256,0,4,,,,,,,,,4,,,64,0
124126,note_on,94,0,1,,,,,,,,,11,,,69,0
124128,note_on,2,0,1,,,,,,,,,11,,,71,110
124128,note_on,32,0,4,,,,,,,,,4,,,64,75
124222,note_on,94,0,1,,,,,,,,,11,,,71,0
124224,note_on,2,0,1,,,,,,,,,11,,,72,110
124318,note_on,94,0,1,,,,,,,,,11,,,72,0
124320,note_on,2,0,1,,,,,,,,,11,,,74,110
124384,note_on,256,0,4,,,,,,,,,4,,,64,0
124414,note_on,94,0,1,,,,,,,,,11,,,74,0
124416,note_on,2,0,1,,,,,,,,,11,,,74,110
124416,note_on,32,0,4,,,,,,,,,4,,,64,75
124672,note_on,256,0,1,,,,,,,,,11,,,74,0
124672,note_on,256,0,4,,,,,,,,,4,,,64,0
124704,note_on,32,0,4,,,,,,,,,4,,,64,75
124704,note_on,32,0,1,,,,,,,,,11,,,72,110
124960,note_on,256,0,4,,,,,,,,,4,,,64,0
124960,note_on,256,0,1,,,,,,,,,11,,,72,0
124992,note_on,32,0,4,,,,,,,,,4,,,57,75
124992,note_on,32,0,1,,,,,,,,,11,,,57,110
125086,note_on,94,0,1,,,,,,,,,11,,,57,0
125088,note_on,2,0,1,,,,,,,,,11,,,72,110
125182,note_on,94,0,1,,,,,,,,,11,,,72,0
125184,note_on,2,0,1,,,,,,,,,11,,,71,110
125248,note_on,256,0,4,,,,,,,,,4,,,57,0
125278,note_on,94,0,1,,,,,,,,,11,,,71,0
125280,note_on,32,0,4,,,,,,,,,4,,,57,75
125280,note_on,2,0,1,,,,,,,,,11,,,57,110
125374,note_on,94,0,1,,,,,,,,,11,,,57,0
125376,note_on,2,0,1,,,,,,,,,11,,,74,110
125470,note_on,94,0,1,,,,,,,,,11,,,74,0
125472,note_on,2,0,1,,,,,,,,,11,,,72,110
125536,note_on,256,0,4,,,,,,,,,4,,,57,0
125566,note_on,94,0,1,,,,,,,,,11,,,72,0
125568,note_on,32,0,4,,,,,,,,,4,,,57,75
125568,note_on,2,0,1,,,,,,,,,11,,,57,110
125662,note_on,94,0,1,,,,,,,,,11,,,57,0
125664,note_on,2,0,1,,,,,,,,,11,,,76,110
125758,note_on,94,0,1,,,,,,,,,11,,,76,0
125760,note_on,2,0,1,,,,,,,,,11,,,74,110
125824,note_on,256,0,4,,,,,,,,,4,,,57,0
125854,note_on,94,0,1,,,,,,,,,11,,,74,0
125856,note_on,32,0,4,,,,,,,,,4,,,57,75
125856,note_on,2,0,1,,,,,,,,,11,,,57,110
125950,note_on,94,0,1,,,,,,,,,11,,,57,0
125952,note_on,2,0,1,,,,,,,,,11,,,77,110
126046,note_on,94,0,1,,,,,,,,,11,,,77,0
126048,note_on,2,0,1,,,,,,,,,11,,,76,110
126112,note_on,256,0,4,,,,,,,,,4,,,57,0
126142,note_on,94,0,1,,,,,,,,,11,,,76,0
126144,note_on,2,0,1,,,,,,,,,11,,,57,110
126144,note_on,32,0,4,,,,,,,,,4,,,57,75
126400,note_on,256,0,1,,,,,,,,,11,,,57,0
126400,note_on,256,0,4,,,,,,,,,4,,,57,0
126432,note_on,32,0,1,,,,,,,,,11,,,81,110
126432,note_on,32,0,4,,,,,,,,,4,,,72,75
126526,note_on,94,0,4,,,,,,,,,4,,,72,0
126528,note_on,2,0,4,,,,,,,,,4,,,74,75
126622,note_on,94,0,4,,,,,,,,,4,,,74,0
126624,note_on,2,0,4,,,,,,,,,4,,,72,75
126688,note_on,256,0,1,,,,,,,,,11,,,81,0
126718,note_on,94,0,4,,,,,,,,,4,,,72,0
126720,note_on,2,0,4,,,,,,,,,4,,,71,75
126720,note_on,32,0,1,,,,,,,,,11,,,79,110
126814,note_on,94,0,4,,,,,,,,,4,,,71,0
126816,note_on,2,0,4,,,,,,,,,4,,,72,75
126910,note_on,94,0,4,,,,,,,,,4,,,72,0
126912,note_on,2,0,4,,,,,,,,,4,,,71,75
126976,note_on,256,0,1,,,,,,,,,11,,,79,0
127006,note_on,94,0,4,,,,,,,,,4,,,71,0
127008,note_on,32,0,1,,,,,,,,,11,,,77,110
127008,note_on,2,0,4,,,,,,,,,4,,,69,75
127102,note_on,94,0,4,,,,,,,,,4,,,69,0
127104,note_on,2,0,4,,,,,,,,,4,,,71,75
127198,note_on,94,0,4,,,,,,,,,4,,,71,0
127200,note_on,2,0,4,,,,,,,,,4,,,69,75
127264,note_on,256,0,1,,,,,,,,,11,,,77,0
127294,note_on,94,0,4,,,,,,,,,4,,,69,0
127296,note_on,2,0,4,,,,,,,,,4,,,64,75
127296,note_on,32,0,1,,,,,,,,,11,,,64,110
127390,note_on,94,0,1,,,,,,,,,11,,,64,0
127392,note_on,2,0,1,,,,,,,,,11,,,77,110
127486,note_on,94,0,1,,,,,,,,,11,,,77,0
127488,note_on,2,0,1,,,,,,,,,11,,,76,110
127552,note_on,256,0,4,,,,,,,,,4,,,64,0
127582,note_on,94,0,1,,,,,,,,,11,,,76,0
127584,note_on,32,0,4,,,,,,,,,4,,,64,75
127584,note_on,2,0,1,,,,,,,,,11,,,64,110
127678,note_on,94,0,1,,,,,,,,,11,,,64,0
127680,note_on,2,0,1,,,,,,,,,11,,,80,110
127774,note_on,94,0,1,,,,,,,,,11,,,80,0
127776,note_on,2,0,1,,,,,,,,,11,,,78,110
127840,note_on,256,0,4,,,,,,,,,4,,,64,0
127870,note_on,94,0,1,,,,,,,,,11,,,78,0
127872,note_on,2,0,1,,,,,,,,,11,,,64,110
127872,note_on,32,0,4,,,,,,,,,4,,,64,75
127966,note_on,94,0,1,,,,,,,,,11,,,64,0
127968,note_on,2,0,1,,,,,,,,,11,,,81,110
128062,note_on,94,0,1,,,,,,,,,11,,,81,0
128064,note_on,2,0,1,,,,,,,,,11,,,80,110
128128,note_on,256,0,4,,,,,,,,,4,,,64,0
128158,note_on,94,0,1,,,,,,,,,11,,,80,0
128160,note_on,32,0,4,,,,,,,,,4,,,64,75
128160,note_on,2,0,1,,,,,,,,,11,,,64,110
128254,note_on,94,0,1,,,,,,,,,11,,,64,0
128256,note_on,2,0,1,,,,,,,,,11,,,83,110
128350,note_on,94,0,1,,,,,,,,,11,,,83,0
128352,note_on,2,0,1,,,,,,,,,11,,,81,110
128416,note_on,256,0,4,,,,,,,,,4,,,64,0
128446,note_on,94,0,1,,,,,,,,,11,,,81,0
128448,note_on,32,0,4,,,,,,,,,4,,,64,75
128448,note_on,2,0,1,,,,,,,,,11,,,64,110
128704,note_on,256,0,1,,,,,,,,,11,,,64,0
128704,note_on,256,0,4,,,,,,,,,4,,,64,0
128736,note_on,32,0,1,,,,,,,,,11,,,86,110
128736,note_on,32,0,4,,,,,,,,,4,,,71,75
128830,note_on,94,0,4,,,,,,,,,4,,,71,0
128832,note_on,2,0,4,,,,,,,,,4,,,72,75
128926,note_on,94,0,4,,,,,,,,,4,,,72,0
128928,note_on,2,0,4,,,,,,,,,4,,,71,75
128992,note_on,256,0,1,,,,,,,,,11,,,86,0
129022,note_on,94,0,4,,,,,,,,,4,,,71,0
129024,note_on,2,0,4,,,,,,,,,4,,,69,75
129024,note_on,32,0,1,,,,,,,,,11,,,84,110
129118,note_on,94,0,4,,,,,,,,,4,,,69,0
129120,note_on,2,0,4,,,,,,,,,4,,,71,75
129214,note_on,94,0,4,,,,,,,,,4,,,71,0
129216,note_on,2,0,4,,,,,,,,,4,,,69,75
129280,note_on,256,0,1,,,,,,,,,11,,,84,0
129310,note_on,94,0,4,,,,,,,,,4,,,69,0
129312,note_on,32,0,1,,,,,,,,,11,,,83,110
129312,note_on,2,0,4,,,,,,,,,4,,,68,75
129406,note_on,94,0,4,,,,,,,,,4,,,68,0
129408,note_on,2,0,4,,,,,,,,,4,,,66,75
129502,note_on,94,0,4,,,,,,,,,4,,,66,0
129504,note_on,2,0,4,,,,,,,,,4,,,64,75
129568,note_on,256,0,1,,,,,,,,,11,,,83,0
129598,note_on,94,0,4,,,,,,,,,4,,,64,0
129600,note_on,32,0,1,,,,,,,,,11,,,84,110
129600,note_on,2,0,4,,,,,,,,,4,,,69,75
129694,note_on,94,0,4,,,,,,,,,4,,,69,0
129696,note_on,2,0,4,,,,,,,,,4,,,64,75
129790,note_on,94,0,4,,,,,,,,,4,,,64,0
129792,note_on,2,0,4,,,,,,,,,4,,,62,75
129886,note_on,94,0,4,,,,,,,,,4,,,62,0
129888,note_on,2,0,4,,,,,,,,,4,,,61,75
129982,note_on,94,0,4,,,,,,,,,4,,,61,0
129984,note_on,2,0,4,,,,,,,,,4,,,59,75
130078,note_on,478,0,1,,,,,,,,,11,,,84,0
130078,note_on,94,0,4,,,,,,,,,4,,,59,0
130080,note_on,2,0,1,,,,,,,,,11,,,81,110
130080,note_on,2,0,4,,,,,,,,,4,,,57,75
130174,note_on,94,0,1,,,,,,,,,11,,,81,0
130174,note_on,94,0,4,,,,,,,,,4,,,57,0
130176,note_on,2,0,1,,,,,,,,,11,,,80,110
130176,note_on,2,0,4,,,,,,,,,4,,,64,75
130270,note_on,94,0,1,,,,,,,,,11,,,80,0
130272,note_on,2,0,1,,,,,,,,,11,,,78,110
130366,note_on,94,0,1,,,,,,,,,11,,,78,0
130368,note_on,2,0,1,,,,,,,,,11,,,76,110
130432,note_on,256,0,4,,,,,,,,,4,,,64,0
130462,note_on,94,0,1,,,,,,,,,11,,,76,0
130464,note_on,32,0,4,,,,,,,,,4,,,57,75
130464,note_on,2,0,1,,,,,,,,,11,,,73,110
130558,note_on,94,0,1,,,,,,,,,11,,,73,0
130560,note_on,2,0,1,,,,,,,,,11,,,71,110
130654,note_on,94,0,1,,,,,,,,,11,,,71,0
130656,note_on,2,0,1,,,,,,,,,11,,,69,110
130720,note_on,256,0,4,,,,,,,,,4,,,57,0
130750,note_on,94,0,1,,,,,,,,,11,,,69,0
130752,note_on,32,0,4,,,,,,,,,4,,,64,75
130752,note_on,2,0,1,,,,,,,,,11,,,68,110
130846,note_on,94,0,1,,,,,,,,,11,,,68,0
130848,note_on,2,0,1,,,,,,,,,11,,,66,110
130942,note_on,94,0,1,,,,,,,,,11,,,66,0
130944,note_on,2,0,1,,,,,,,,,11,,,64,110
131008,note_on,256,0,4,,,,,,,,,4,,,64,0
131038,note_on,94,0,1,,,,,,,,,11,,,64,0
131040,note_on,2,0,1,,,,,,,,,11,,,61,110
131040,note_on,32,0,4,,,,,,,,,4,,,57,75
131134,note_on,94,0,1,,,,,,,,,11,,,61,0
131136,note_on,2,0,1,,,,,,,,,11,,,59,110
131230,note_on,94,0,1,,,,,,,,,11,,,59,0
131232,note_on,2,0,1,,,,,,,,,11,,,57,110
131296,note_on,256,0,4,,,,,,,,,4,,,57,0
131326,note_on,94,0,1,,,,,,,,,11,,,57,0
131328,note_on,2,0,1,,,,,,,,,11,,,85,110
131520,note_on,224,0,4,,,,,,,,,4,,,69,75
131584,note_on,256,0,1,,,,,,,,,11,,,85,0
131614,note_on,94,0,4,,,,,,,,,4,,,69,0
131616,note_on,2,0,4,,,,,,,,,4,,,76,75
131616,note_on,32,0,1,,,,,,,,,11,,,85,110
131662,note_on,46,0,1,,,,,,,,,11,,,85,0
131664,note_on,2,0,1,,,,,,,,,11,,,83,110
131710,note_on,46,0,1,,,,,,,,,11,,,83,0
131712,note_on,2,0,1,,,,,,,,,11,,,85,110
131758,note_on,46,0,1,,,,,,,,,11,,,85,0
131760,note_on,2,0,1,,,,,,,,,11,,,83,110
131776,note_on,160,0,4,,,,,,,,,4,,,76,0
131806,note_on,46,0,1,,,,,,,,,11,,,83,0
131808,note_on,32,0,4,,,,,,,,,4,,,64,75
131808,note_on,2,0,1,,,,,,,,,11,,,85,110
131854,note_on,46,0,1,,,,,,,,,11,,,85,0
131856,note_on,2,0,1,,,,,,,,,11,,,83,110
131902,note_on,46,0,1,,,,,,,,,11,,,83,0
131902,note_on,94,0,4,,,,,,,,,4,,,64,0
131904,note_on,2,0,4,,,,,,,,,4,,,69,75
131904,note_on,2,0,1,,,,,,,,,11,,,81,110
131998,note_on,94,0,4,,,,,,,,,4,,,69,0
132000,note_on,2,0,4,,,,,,,,,4,,,64,75
132094,note_on,94,0,4,,,,,,,,,4,,,64,0
132096,note_on,2,0,4,,,,,,,,,4,,,62,75
132190,note_on,94,0,4,,,,,,,,,4,,,62,0
132192,note_on,2,0,4,,,,,,,,,4,,,61,75
132286,note_on,94,0,4,,,,,,,,,4,,,61,0
132288,note_on,2,0,4,,,,,,,,,4,,,59,75
132382,note_on,94,0,4,,,,,,,,,4,,,59,0
132382,note_on,478,0,1,,,,,,,,,11,,,81,0
132384,note_on,2,0,1,,,,,,,,,11,,,81,110
132384,note_on,2,0,4,,,,,,,,,4,,,57,75
132478,note_on,94,0,1,,,,,,,,,11,,,81,0
132478,note_on,94,0,4,,,,,,,,,4,,,57,0
132480,note_on,2,0,4,,,,,,,,,4,,,64,75
132480,note_on,2,0,1,,,,,,,,,11,,,80,110
132526,note_on,46,0,1,,,,,,,,,11,,,80,0
132528,note_on,2,0,1,,,,,,,,,11,,,78,110
132574,note_on,46,0,1,,,,,,,,,11,,,78,0
132576,note_on,2,0,1,,,,,,,,,11,,,76,110
132670,note_on,94,0,1,,,,,,,,,11,,,76,0
132672,note_on,2,0,1,,,,,,,,,11,,,76,110
132736,note_on,256,0,4,,,,,,,,,4,,,64,0
132766,note_on,94,0,1,,,,,,,,,11,,,76,0
132768,note_on,2,0,1,,,,,,,,,11,,,73,110
132768,note_on,32,0,4,,,,,,,,,4,,,57,75
132814,note_on,46,0,1,,,,,,,,,11,,,73,0
132816,note_on,2,0,1,,,,,,,,,11,,,71,110
132862,note_on,46,0,1,,,,,,,,,11,,,71,0
132864,note_on,2,0,1,,,,,,,,,11,,,69,110
132958,note_on,94,0,1,,,,,,,,,11,,,69,0
132960,note_on,2,0,1,,,,,,,,,11,,,69,110
133024,note_on,256,0,4,,,,,,,,,4,,,57,0
133054,note_on,94,0,1,,,,,,,,,11,,,69,0
133056,note_on,2,0,1,,,,,,,,,11,,,68,110
133056,note_on,32,0,4,,,,,,,,,4,,,64,75
133102,note_on,46,0,1,,,,,,,,,11,,,68,0
133104,note_on,2,0,1,,,,,,,,,11,,,66,110
133150,note_on,46,0,1,,,,,,,,,11,,,66,0
133152,note_on,2,0,1,,,,,,,,,11,,,64,110
133246,note_on,94,0,1,,,,,,,,,11,,,64,0
133248,note_on,2,0,1,,,,,,,,,11,,,64,110
133312,note_on,256,0,4,,,,,,,,,4,,,64,0
133342,note_on,94,0,1,,,,,,,,,11,,,64,0
133344,note_on,2,0,1,,,,,,,,,11,,,61,110
133344,note_on,32,0,4,,,,,,,,,4,,,57,75
133390,note_on,46,0,1,,,,,,,,,11,,,61,0
133392,note_on,2,0,1,,,,,,,,,11,,,59,110
133438,note_on,46,0,1,,,,,,,,,11,,,59,0
133440,note_on,2,0,1,,,,,,,,,11,,,57,110
133534,note_on,94,0,1,,,,,,,,,11,,,57,0
133536,note_on,2,0,1,,,,,,,,,11,,,57,110
133600,note_on,256,0,4,,,,,,,,,4,,,57,0
133630,note_on,94,0,1,,,,,,,,,11,,,57,0
133632,note_on,2,0,1,,,,,,,,,11,,,85,110
133824,note_on,224,0,4,,,,,,,,,4,,,69,75
133888,note_on,256,0,1,,,,,,,,,11,,,85,0
133918,note_on,94,0,4,,,,,,,,,4,,,69,0
133920,note_on,32,0,1,,,,,,,,,11,,,85,110
133920,note_on,2,0,4,,,,,,,,,4,,,76,75
133966,note_on,46,0,1,,,,,,,,,11,,,85,0
133968,note_on,2,0,1,,,,,,,,,11,,,83,110
134014,note_on,46,0,1,,,,,,,,,11,,,83,0
134016,note_on,2,0,1,,,,,,,,,11,,,85,110
134062,note_on,46,0,1,,,,,,,,,11,,,85,0
134064,note_on,2,0,1,,,,,,,,,11,,,83,110
134080,note_on,160,0,4,,,,,,,,,4,,,76,0
134110,note_on,46,0,1,,,,,,,,,11,,,83,0
134112,note_on,32,0,4,,,,,,,,,4,,,64,75
134112,note_on,2,0,1,,,,,,,,,11,,,85,110
134158,note_on,46,0,1,,,,,,,,,11,,,85,0
134160,note_on,2,0,1,,,,,,,,,11,,,83,110
134206,note_on,46,0,1,,,,,,,,,11,,,83,0
134206,note_on,94,0,4,,,,,,,,,4,,,64,0
134208,note_on,2,0,1,,,,,,,,,11,,,81,110
134208,note_on,2,0,4,,,,,,,,,4,,,61,75
134208,note_on,30560,0,5,,,,,,,,,6,,,45,92
134208,note_on,30560,0,6,,,,,,,,,8,,,33,92
134208,note_on,11186,0,2,,,,,,,,,0,,,69,110
134208,note_on,11186,0,3,,,,,,,,,2,,,69,110
134302,note_on,94,0,1,,,,,,,,,11,,,81,0
134302,note_on,94,0,3,,,,,,,,,2,,,69,0
134302,note_on,94,0,2,,,,,,,,,0,,,69,0
134304,note_on,2,0,1,,,,,,,,,11,,,73,110
134304,note_on,2,0,3,,,,,,,,,2,,,73,110
134304,note_on,2,0,2,,,,,,,,,0,,,73,110
134398,note_on,94,0,2,,,,,,,,,0,,,73,0
134398,note_on,94,0,1,,,,,,,,,11,,,73,0
134398,note_on,94,0,3,,,,,,,,,2,,,73,0
134400,note_on,2,0,2,,,,,,,,,0,,,76,110
134400,note_on,2,0,1,,,,,,,,,11,,,76,110
134400,note_on,2,0,3,,,,,,,,,2,,,76,110
134464,note_on,256,0,6,,,,,,,,,8,,,33,0
134464,note_on,256,0,5,,,,,,,,,6,,,45,0
134464,note_on,256,0,4,,,,,,,,,4,,,61,0
134494,note_on,94,0,3,,,,,,,,,2,,,76,0
134494,note_on,94,0,2,,,,,,,,,0,,,76,0
134494,note_on,94,0,1,,,,,,,,,11,,,76,0
134496,note_on,2,0,1,,,,,,,,,11,,,81,110
134496,note_on,32,0,4,,,,,,,,,4,,,61,75
134496,note_on,32,0,6,,,,,,,,,8,,,33,92
134496,note_on,2,0,3,,,,,,,,,2,,,81,110
134496,note_on,32,0,5,,,,,,,,,6,,,45,92
134496,note_on,2,0,2,,,,,,,,,0,,,81,110
134590,note_on,94,0,1,,,,,,,,,11,,,81,0
134590,note_on,94,0,3,,,,,,,,,2,,,81,0
134590,note_on,94,0,2,,,,,,,,,0,,,81,0
134592,note_on,2,0,2,,,,,,,,,0,,,76,110
134592,note_on,2,0,3,,,,,,,,,2,,,76,110
134592,note_on,2,0,1,,,,,,,,,11,,,76,110
134686,note_on,94,0,2,,,,,,,,,0,,,76,0
134686,note_on,94,0,1,,,,,,,,,11,,,76,0
134686,note_on,94,0,3,,,,,,,,,2,,,76,0
134688,note_on,2,0,2,,,,,,,,,0,,,73,110
134688,note_on,2,0,3,,,,,,,,,2,,,73,110
134688,note_on,2,0,1,,,,,,,,,11,,,73,110
134752,note_on,256,0,5,,,,,,,,,6,,,45,0
134752,note_on,256,0,6,,,,,,,,,8,,,33,0
134752,note_on,256,0,4,,,,,,,,,4,,,61,0
134782,note_on,94,0,2,,,,,,,,,0,,,73,0
134782,note_on,94,0,1,,,,,,,,,11,,,73,0
134782,note_on,94,0,3,,,,,,,,,2,,,73,0
134784,note_on,2,0,1,,,,,,,,,11,,,73,110
134784,note_on,32,0,5,,,,,,,,,6,,,50,92
134784,note_on,32,0,4,,,,,,,,,4,,,66,75
134784,note_on,2,0,2,,,,,,,,,0,,,73,110
134784,note_on,2,0,3,,,,,,,,,2,,,73,110
134784,note_on,32,0,6,,,,,,,,,8,,,38,92
135040,note_on,256,0,2,,,,,,,,,0,,,73,0
135040,note_on,256,0,4,,,,,,,,,4,,,66,0
135040,note_on,256,0,5,,,,,,,,,6,,,50,0
135040,note_on,256,0,6,,,,,,,,,8,,,38,0
135040,note_on,256,0,1,,,,,,,,,11,,,73,0
135040,note_on,256,0,3,,,,,,,,,2,,,73,0
135072,note_on,32,0,3,,,,,,,,,2,,,74,110
135072,note_on,32,0,5,,,,,,,,,6,,,38,92
135072,note_on,32,0,6,,,,,,,,,8,,,26,92
135072,note_on,32,0,4,,,,,,,,,4,,,69,75
135072,note_on,32,0,1,,,,,,,,,11,,,74,110
135072,note_on,32,0,2,,,,,,,,,0,,,74,110
135166,note_on,94,0,4,,,,,,,,,4,,,69,0
135166,note_on,94,0,5,,,,,,,,,6,,,38,0
135166,note_on,94,0,3,,,,,,,,,2,,,74,0
135166,note_on,94,0,1,,,,,,,,,11,,,74,0
135166,note_on,94,0,6,,,,,,,,,8,,,26,0
135166,note_on,94,0,2,,,,,,,,,0,,,74,0
135264,note_on,98,0,2,,,,,,,,,0,,,78,110
135264,note_on,98,0,3,,,,,,,,,2,,,78,110
135264,note_on,98,0,1,,,,,,,,,11,,,78,110
135358,note_on,94,0,1,,,,,,,,,11,,,78,0
135358,note_on,94,0,2,,,,,,,,,0,,,78,0
135358,note_on,94,0,3,,,,,,,,,2,,,78,0
135360,note_on,2,0,3,,,,,,,,,2,,,71,110
135360,note_on,2,0,2,,,,,,,,,0,,,71,110
135360,note_on,2,0,1,,,,,,,,,11,,,71,110
135360,note_on,194,0,5,,,,,,,,,6,,,51,92
135360,note_on,194,0,4,,,,,,,,,4,,,66,75
135360,note_on,194,0,6,,,,,,,,,8,,,39,92
135454,note_on,94,0,2,,,,,,,,,0,,,71,0
135454,note_on,94,0,1,,,,,,,,,11,,,71,0
135454,note_on,94,0,3,,,,,,,,,2,,,71,0
135456,note_on,2,0,3,,,,,,,,,2,,,75,110
135456,note_on,2,0,2,,,,,,,,,0,,,75,110
135456,note_on,2,0,1,,,,,,,,,11,,,75,110
135550,note_on,94,0,3,,,,,,,,,2,,,75,0
135550,note_on,94,0,2,,,,,,,,,0,,,75,0
135550,note_on,94,0,1,,,,,,,,,11,,,75,0
135552,note_on,2,0,3,,,,,,,,,2,,,78,110
135552,note_on,2,0,2,,,,,,,,,0,,,78,110
135552,note_on,2,0,1,,,,,,,,,11,,,78,110
135616,note_on,256,0,5,,,,,,,,,6,,,51,0
135616,note_on,256,0,4,,,,,,,,,4,,,66,0
135616,note_on,256,0,6,,,,,,,,,8,,,39,0
135646,note_on,94,0,3,,,,,,,,,2,,,78,0
135646,note_on,94,0,2,,,,,,,,,0,,,78,0
135646,note_on,94,0,1,,,,,,,,,11,,,78,0
135648,note_on,2,0,2,,,,,,,,,0,,,83,110
135648,note_on,2,0,3,,,,,,,,,2,,,83,110
135648,note_on,32,0,6,,,,,,,,,8,,,35,92
135648,note_on,32,0,5,,,,,,,,,6,,,47,92
135648,note_on,2,0,1,,,,,,,,,11,,,83,110
135648,note_on,32,0,4,,,,,,,,,4,,,63,75
135742,note_on,94,0,3,,,,,,,,,2,,,83,0
135742,note_on,94,0,1,,,,,,,,,11,,,83,0
135742,note_on,94,0,2,,,,,,,,,0,,,83,0
135744,note_on,2,0,3,,,,,,,,,2,,,78,110
135744,note_on,2,0,1,,,,,,,,,11,,,78,110
135744,note_on,2,0,2,,,,,,,,,0,,,78,110
135838,note_on,94,0,3,,,,,,,,,2,,,78,0
135838,note_on,94,0,1,,,,,,,,,11,,,78,0
135838,note_on,94,0,2,,,,,,,,,0,,,78,0
135840,note_on,2,0,1,,,,,,,,,11,,,75,110
135840,note_on,2,0,2,,,,,,,,,0,,,75,110
135840,note_on,2,0,3,,,,,,,,,2,,,75,110
135904,note_on,256,0,6,,,,,,,,,8,,,35,0
135904,note_on,256,0,4,,,,,,,,,4,,,63,0
135904,note_on,256,0,5,,,,,,,,,6,,,47,0
135934,note_on,94,0,2,,,,,,,,,0,,,75,0
135934,note_on,94,0,1,,,,,,,,,11,,,75,0
135934,note_on,94,0,3,,,,,,,,,2,,,75,0
135936,note_on,2,0,2,,,,,,,,,0,,,75,110
135936,note_on,2,0,1,,,,,,,,,11,,,75,110
135936,note_on,32,0,5,,,,,,,,,6,,,52,92
135936,note_on,2,0,3,,,,,,,,,2,,,75,110
135936,note_on,32,0,4,,,,,,,,,4,,,59,75
135936,note_on,32,0,6,,,,,,,,,8,,,40,92
136192,note_on,256,0,2,,,,,,,,,0,,,75,0
136192,note_on,256,0,3,,,,,,,,,2,,,75,0
136192,note_on,256,0,6,,,,,,,,,8,,,40,0
136192,note_on,256,0,1,,,,,,,,,11,,,75,0
136192,note_on,256,0,4,,,,,,,,,4,,,59,0
136192,note_on,256,0,5,,,,,,,,,6,,,52,0
136224,note_on,32,0,5,,,,,,,,,6,,,40,92
136224,note_on,32,0,2,,,,,,,,,0,,,76,110
136224,note_on,32,0,1,,,,,,,,,11,,,76,110
136224,note_on,32,0,3,,,,,,,,,2,,,76,110
136224,note_on,32,0,4,,,,,,,,,4,,,68,75
136224,note_on,32,0,6,,,,,,,,,8,,,28,92
136318,note_on,94,0,5,,,,,,,,,6,,,40,0
136318,note_on,94,0,3,,,,,,,,,2,,,76,0
136318,note_on,94,0,4,,,,,,,,,4,,,68,0
136318,note_on,94,0,2,,,,,,,,,0,,,76,0
136318,note_on,94,0,1,,,,,,,,,11,,,76,0
136318,note_on,94,0,6,,,,,,,,,8,,,28,0
136416,note_on,98,0,1,,,,,,,,,11,,,73,110
136416,note_on,98,0,2,,,,,,,,,0,,,73,110
136416,note_on,98,0,3,,,,,,,,,2,,,73,110
136510,note_on,94,0,2,,,,,,,,,0,,,73,0
136510,note_on,94,0,3,,,,,,,,,2,,,73,0
136510,note_on,94,0,1,,,,,,,,,11,,,73,0
136512,note_on,194,0,6,,,,,,,,,8,,,33,92
136512,note_on,194,0,4,,,,,,,,,4,,,64,75
136512,note_on,2,0,3,,,,,,,,,2,,,69,110
136512,note_on,2,0,2,,,,,,,,,0,,,69,110
136512,note_on,2,0,1,,,,,,,,,11,,,69,110
136512,note_on,194,0,5,,,,,,,,,6,,,45,92
136606,note_on,94,0,2,,,,,,,,,0,,,69,0
136606,note_on,94,0,1,,,,,,,,,11,,,69,0
136606,note_on,94,0,3,,,,,,,,,2,,,69,0
136608,note_on,2,0,1,,,,,,,,,11,,,64,110
136608,note_on,2,0,2,,,,,,,,,0,,,64,110
136608,note_on,2,0,3,,,,,,,,,2,,,64,110
136702,note_on,94,0,2,,,,,,,,,0,,,64,0
136702,note_on,94,0,1,,,,,,,,,11,,,64,0
136702,note_on,94,0,3,,,,,,,,,2,,,64,0
136704,note_on,2,0,1,,,,,,,,,11,,,69,110
136704,note_on,2,0,3,,,,,,,,,2,,,69,110
136704,note_on,2,0,2,,,,,,,,,0,,,69,110
136768,note_on,256,0,5,,,,,,,,,6,,,45,0
136768,note_on,256,0,6,,,,,,,,,8,,,33,0
136768,note_on,256,0,4,,,,,,,,,4,,,64,0
136798,note_on,94,0,1,,,,,,,,,11,,,69,0
136798,note_on,94,0,2,,,,,,,,,0,,,69,0
136798,note_on,94,0,3,,,,,,,,,2,,,69,0
136800,note_on,2,0,1,,,,,,,,,11,,,71,110
136800,note_on,32,0,6,,,,,,,,,8,,,40,92
136800,note_on,2,0,3,,,,,,,,,2,,,71,110
136800,note_on,32,0,4,,,,,,,,,4,,,68,75
136800,note_on,2,0,2,,,,,,,,,0,,,71,110
136800,note_on,32,0,5,,,,,,,,,6,,,52,92
136894,note_on,94,0,3,,,,,,,,,2,,,71,0
136894,note_on,94,0,1,,,,,,,,,11,,,71,0
136894,note_on,94,0,2,,,,,,,,,0,,,71,0
136896,note_on,2,0,3,,,,,,,,,2,,,73,110
136896,note_on,2,0,2,,,,,,,,,0,,,73,110
136896,note_on,2,0,1,,,,,,,,,11,,,73,110
136990,note_on,94,0,3,,,,,,,,,2,,,73,0
136990,note_on,94,0,2,,,,,,,,,0,,,73,0
136990,note_on,94,0,1,,,,,,,,,11,,,73,0
136992,note_on,2,0,3,,,,,,,,,2,,,74,110
136992,note_on,2,0,1,,,,,,,,,11,,,74,110
136992,note_on,2,0,2,,,,,,,,,0,,,74,110
137056,note_on,256,0,4,,,,,,,,,4,,,68,0
137056,note_on,256,0,5,,,,,,,,,6,,,52,0
137056,note_on,256,0,6,,,,,,,,,8,,,40,0
137086,note_on,94,0,2,,,,,,,,,0,,,74,0
137086,note_on,94,0,1,,,,,,,,,11,,,74,0
137086,note_on,94,0,3,,,,,,,,,2,,,74,0
137088,note_on,32,0,4,,,,,,,,,4,,,64,75
137088,note_on,32,0,5,,,,,,,,,6,,,57,92
137088,note_on,2,0,3,,,,,,,,,2,,,74,110
137088,note_on,2,0,1,,,,,,,,,11,,,74,110
137088,note_on,2,0,2,,,,,,,,,0,,,74,110
137088,note_on,32,0,6,,,,,,,,,8,,,45,92
137344,note_on,256,0,5,,,,,,,,,6,,,57,0
137344,note_on,256,0,3,,,,,,,,,2,,,74,0
137344,note_on,256,0,4,,,,,,,,,4,,,64,0
137344,note_on,256,0,1,,,,,,,,,11,,,74,0
137344,note_on,256,0,6,,,,,,,,,8,,,45,0
137344,note_on,256,0,2,,,,,,,,,0,,,74,0
137376,note_on,32,0,3,,,,,,,,,2,,,73,110
137376,note_on,32,0,5,,,,,,,,,6,,,45,92
137376,note_on,32,0,6,,,,,,,,,8,,,33,92
137376,note_on,32,0,2,,,,,,,,,0,,,73,110
137376,note_on,32,0,1,,,,,,,,,11,,,73,110
137376,note_on,32,0,4,,,,,,,,,4,,,64,75
137470,note_on,94,0,6,,,,,,,,,8,,,33,0
137470,note_on,94,0,4,,,,,,,,,4,,,64,0
137470,note_on,94,0,3,,,,,,,,,2,,,73,0
137470,note_on,94,0,2,,,,,,,,,0,,,73,0
137470,note_on,94,0,1,,,,,,,,,11,,,73,0
137470,note_on,94,0,5,,,,,,,,,6,,,45,0
137568,note_on,98,0,2,,,,,,,,,0,,,76,110
137568,note_on,98,0,1,,,,,,,,,11,,,76,110
137568,note_on,98,0,3,,,,,,,,,2,,,76,110
137662,note_on,94,0,2,,,,,,,,,0,,,76,0
137662,note_on,94,0,1,,,,,,,,,11,,,76,0
137662,note_on,94,0,3,,,,,,,,,2,,,76,0
137664,note_on,2,0,2,,,,,,,,,0,,,69,110
137664,note_on,194,0,4,,,,,,,,,4,,,61,75
137664,note_on,194,0,5,,,,,,,,,6,,,45,92
137664,note_on,194,0,6,,,,,,,,,8,,,33,92
137664,note_on,2,0,1,,,,,,,,,11,,,69,110
137664,note_on,2,0,3,,,,,,,,,2,,,69,110
137758,note_on,94,0,3,,,,,,,,,2,,,69,0
137758,note_on,94,0,1,,,,,,,,,11,,,69,0
137758,note_on,94,0,2,,,,,,,,,0,,,69,0
137760,note_on,2,0,1,,,,,,,,,11,,,64,110
137760,note_on,2,0,3,,,,,,,,,2,,,64,110
137760,note_on,2,0,2,,,,,,,,,0,,,64,110
137854,note_on,94,0,2,,,,,,,,,0,,,64,0
137854,note_on,94,0,1,,,,,,,,,11,,,64,0
137854,note_on,94,0,3,,,,,,,,,2,,,64,0
137856,note_on,2,0,2,,,,,,,,,0,,,69,110
137856,note_on,2,0,1,,,,,,,,,11,,,69,110
137856,note_on,2,0,3,,,,,,,,,2,,,69,110
137920,note_on,256,0,5,,,,,,,,,6,,,45,0
137920,note_on,256,0,6,,,,,,,,,8,,,33,0
137920,note_on,256,0,4,,,,,,,,,4,,,61,0
137950,note_on,94,0,2,,,,,,,,,0,,,69,0
137950,note_on,94,0,3,,,,,,,,,2,,,69,0
137950,note_on,94,0,1,,,,,,,,,11,,,69,0
137952,note_on,2,0,2,,,,,,,,,0,,,71,110
137952,note_on,2,0,1,,,,,,,,,11,,,71,110
137952,note_on,32,0,4,,,,,,,,,4,,,68,75
137952,note_on,2,0,3,,,,,,,,,2,,,71,110
137952,note_on,32,0,5,,,,,,,,,6,,,52,92
137952,note_on,32,0,6,,,,,,,,,8,,,40,92
138046,note_on,94,0,2,,,,,,,,,0,,,71,0
138046,note_on,94,0,1,,,,,,,,,11,,,71,0
138046,note_on,94,0,3,,,,,,,,,2,,,71,0
138048,note_on,2,0,2,,,,,,,,,0,,,73,110
138048,note_on,2,0,1,,,,,,,,,11,,,73,110
138048,note_on,2,0,3,,,,,,,,,2,,,73,110
138142,note_on,94,0,1,,,,,,,,,11,,,73,0
138142,note_on,94,0,2,,,,,,,,,0,,,73,0
138142,note_on,94,0,3,,,,,,,,,2,,,73,0
138144,note_on,2,0,2,,,,,,,,,0,,,74,110
138144,note_on,2,0,1,,,,,,,,,11,,,74,110
138144,note_on,2,0,3,,,,,,,,,2,,,74,110
138208,note_on,256,0,6,,,,,,,,,8,,,40,0
138208,note_on,256,0,4,,,,,,,,,4,,,68,0
138208,note_on,256,0,5,,,,,,,,,6,,,52,0
138238,note_on,94,0,1,,,,,,,,,11,,,74,0
138238,note_on,94,0,2,,,,,,,,,0,,,74,0
138238,note_on,94,0,3,,,,,,,,,2,,,74,0
138240,note_on,32,0,6,,,,,,,,,8,,,33,92
138240,note_on,32,0,4,,,,,,,,,4,,,64,75
138240,note_on,2,0,1,,,,,,,,,11,,,74,110
138240,note_on,32,0,5,,,,,,,,,6,,,45,92
138240,note_on,2,0,3,,,,,,,,,2,,,74,110
138240,note_on,2,0,2,,,,,,,,,0,,,74,110
138496,note_on,256,0,6,,,,,,,,,8,,,33,0
138496,note_on,256,0,1,,,,,,,,,11,,,74,0
138496,note_on,256,0,2,,,,,,,,,0,,,74,0
138496,note_on,256,0,3,,,,,,,,,2,,,74,0
138496,note_on,256,0,5,,,,,,,,,6,,,45,0
138496,note_on,256,0,4,,,,,,,,,4,,,64,0
138528,note_on,32,0,2,,,,,,,,,0,,,73,110
138528,note_on,32,0,4,,,,,,,,,4,,,64,75
138528,note_on,32,0,3,,,,,,,,,2,,,73,110
138528,note_on,32,0,6,,,,,,,,,8,,,33,92
138528,note_on,32,0,1,,,,,,,,,11,,,73,110
138528,note_on,32,0,5,,,,,,,,,6,,,45,92
138622,note_on,94,0,3,,,,,,,,,2,,,73,0
138622,note_on,94,0,4,,,,,,,,,4,,,64,0
138622,note_on,94,0,6,,,,,,,,,8,,,33,0
138622,note_on,94,0,1,,,,,,,,,11,,,73,0
138622,note_on,94,0,5,,,,,,,,,6,,,45,0
138622,note_on,94,0,2,,,,,,,,,0,,,73,0
138720,note_on,98,0,6,,,,,,,,,8,,,45,92
138720,note_on,98,0,1,,,,,,,,,11,,,81,110
138720,note_on,98,0,5,,,,,,,,,6,,,57,92
138720,note_on,98,0,2,,,,,,,,,0,,,81,110
138720,note_on,98,0,4,,,,,,,,,4,,,69,75
138720,note_on,98,0,3,,,,,,,,,2,,,81,110
138814,note_on,94,0,2,,,,,,,,,0,,,81,0
138814,note_on,94,0,6,,,,,,,,,8,,,45,0
138814,note_on,94,0,3,,,,,,,,,2,,,81,0
138814,note_on,94,0,5,,,,,,,,,6,,,57,0
138814,note_on,94,0,1,,,,,,,,,11,,,81,0
138814,note_on,94,0,4,,,,,,,,,4,,,69,0
138816,note_on,2,0,3,,,,,,,,,2,,,69,110
138816,note_on,2,0,4,,,,,,,,,4,,,69,75
138816,note_on,2,0,2,,,,,,,,,0,,,69,110
138816,note_on,2,0,6,,,,,,,,,8,,,45,92
138816,note_on,2,0,5,,,,,,,,,6,,,57,92
138816,note_on,2,0,1,,,,,,,,,11,,,69,110
138910,note_on,94,0,4,,,,,,,,,4,,,69,0
138910,note_on,94,0,6,,,,,,,,,8,,,45,0
138910,note_on,94,0,3,,,,,,,,,2,,,69,0
138910,note_on,94,0,1,,,,,,,,,11,,,69,0
138910,note_on,94,0,2,,,,,,,,,0,,,69,0
138910,note_on,94,0,5,,,,,,,,,6,,,57,0
138912,note_on,2,0,1,,,,,,,,,11,,,64,110
138912,note_on,2,0,2,,,,,,,,,0,,,64,110
138912,note_on,2,0,4,,,,,,,,,4,,,64,75
138912,note_on,2,0,3,,,,,,,,,2,,,64,110
138912,note_on,2,0,5,,,,,,,,,6,,,52,92
138912,note_on,2,0,6,,,,,,,,,8,,,40,92
139006,note_on,94,0,4,,,,,,,,,4,,,64,0
139006,note_on,94,0,6,,,,,,,,,8,,,40,0
139006,note_on,94,0,1,,,,,,,,,11,,,64,0
139006,note_on,94,0,5,,,,,,,,,6,,,52,0
139006,note_on,94,0,2,,,,,,,,,0,,,64,0
139006,note_on,94,0,3,,,,,,,,,2,,,64,0
139008,note_on,2,0,6,,,,,,,,,8,,,38,92
139008,note_on,2,0,1,,,,,,,,,11,,,62,110
139008,note_on,2,0,5,,,,,,,,,6,,,50,92
139008,note_on,2,0,2,,,,,,,,,0,,,62,110
139008,note_on,2,0,3,,,,,,,,,2,,,62,110
139008,note_on,2,0,4,,,,,,,,,4,,,62,75
139102,note_on,94,0,1,,,,,,,,,11,,,62,0
139102,note_on,94,0,4,,,,,,,,,4,,,62,0
139102,note_on,94,0,2,,,,,,,,,0,,,62,0
139102,note_on,94,0,5,,,,,,,,,6,,,50,0
139102,note_on,94,0,6,,,,,,,,,8,,,38,0
139102,note_on,94,0,3,,,,,,,,,2,,,62,0
139104,note_on,2,0,6,,,,,,,,,8,,,37,92
139104,note_on,2,0,4,,,,,,,,,4,,,61,75
139104,note_on,2,0,5,,,,,,,,,6,,,49,92
139104,note_on,2,0,1,,,,,,,,,11,,,61,110
139104,note_on,2,0,3,,,,,,,,,2,,,61,110
139104,note_on,2,0,2,,,,,,,,,0,,,61,110
139198,note_on,94,0,6,,,,,,,,,8,,,37,0
139198,note_on,94,0,5,,,,,,,,,6,,,49,0
139198,note_on,94,0,2,,,,,,,,,0,,,61,0
139198,note_on,94,0,4,,,,,,,,,4,,,61,0
139198,note_on,94,0,1,,,,,,,,,11,,,61,0
139198,note_on,94,0,3,,,,,,,,,2,,,61,0
139200,note_on,2,0,4,,,,,,,,,4,,,59,75
139200,note_on,2,0,5,,,,,,,,,6,,,47,92
139200,note_on,2,0,1,,,,,,,,,11,,,59,110
139200,note_on,2,0,2,,,,,,,,,0,,,59,110
139200,note_on,2,0,6,,,,,,,,,8,,,35,92
139200,note_on,2,0,3,,,,,,,,,2,,,59,110
139294,note_on,94,0,5,,,,,,,,,6,,,47,0
139294,note_on,94,0,1,,,,,,,,,11,,,59,0
139294,note_on,94,0,3,,,,,,,,,2,,,59,0
139294,note_on,94,0,6,,,,,,,,,8,,,35,0
139294,note_on,94,0,2,,,,,,,,,0,,,59,0
139294,note_on,94,0,4,,,,,,,,,4,,,59,0
139296,note_on,2,0,3,,,,,,,,,2,,,57,110
139296,note_on,2,0,1,,,,,,,,,11,,,57,110
139296,note_on,2,0,5,,,,,,,,,6,,,45,92
139296,note_on,2,0,4,,,,,,,,,4,,,57,75
139296,note_on,2,0,6,,,,,,,,,8,,,33,92
139296,note_on,2,0,2,,,,,,,,,0,,,57,110
139390,note_on,94,0,3,,,,,,,,,2,,,57,0
139390,note_on,94,0,1,,,,,,,,,11,,,57,0
139390,note_on,94,0,2,,,,,,,,,0,,,57,0
139390,note_on,94,0,4,,,,,,,,,4,,,57,0
139390,note_on,94,0,5,,,,,,,,,6,,,45,0
139390,note_on,94,0,6,,,,,,,,,8,,,33,0
139392,note_on,2,0,4,,,,,,,,,4,,,69,75
139392,note_on,2,0,5,,,,,,,,,6,,,57,92
139392,note_on,2,0,1,,,,,,,,,11,,,69,110
139392,note_on,2,0,6,,,,,,,,,8,,,45,92
139392,note_on,2,0,2,,,,,,,,,0,,,69,110
139392,note_on,2,0,3,,,,,,,,,2,,,69,110
139486,note_on,94,0,2,,,,,,,,,0,,,69,0
139486,note_on,94,0,4,,,,,,,,,4,,,69,0
139486,note_on,94,0,5,,,,,,,,,6,,,57,0
139486,note_on,94,0,1,,,,,,,,,11,,,69,0
139486,note_on,94,0,6,,,,,,,,,8,,,45,0
139486,note_on,94,0,3,,,,,,,,,2,,,69,0
139488,note_on,2,0,6,,,,,,,,,8,,,40,92
139488,note_on,2,0,4,,,,,,,,,4,,,64,75
139488,note_on,2,0,3,,,,,,,,,2,,,64,110
139488,note_on,2,0,1,,,,,,,,,11,,,64,110
139488,note_on,2,0,5,,,,,,,,,6,,,52,92
139488,note_on,2,0,2,,,,,,,,,0,,,64,110
139582,note_on,94,0,2,,,,,,,,,0,,,64,0
139582,note_on,94,0,6,,,,,,,,,8,,,40,0
139582,note_on,94,0,3,,,,,,,,,2,,,64,0
139582,note_on,94,0,4,,,,,,,,,4,,,64,0
139582,note_on,94,0,1,,,,,,,,,11,,,64,0
139582,note_on,94,0,5,,,,,,,,,6,,,52,0
139584,note_on,2,0,4,,,,,,,,,4,,,62,75
139584,note_on,2,0,1,,,,,,,,,11,,,62,110
139584,note_on,2,0,3,,,,,,,,,2,,,62,110
139584,note_on,2,0,6,,,,,,,,,8,,,38,92
139584,note_on,2,0,5,,,,,,,,,6,,,50,92
139584,note_on,2,0,2,,,,,,,,,0,,,62,110
139678,note_on,94,0,2,,,,,,,,,0,,,62,0
139678,note_on,94,0,5,,,,,,,,,6,,,50,0
139678,note_on,94,0,4,,,,,,,,,4,,,62,0
139678,note_on,94,0,1,,,,,,,,,11,,,62,0
139678,note_on,94,0,3,,,,,,,,,2,,,62,0
139678,note_on,94,0,6,,,,,,,,,8,,,38,0
139680,note_on,2,0,5,,,,,,,,,6,,,49,92
139680,note_on,2,0,6,,,,,,,,,8,,,37,92
139680,note_on,2,0,1,,,,,,,,,11,,,61,110
139680,note_on,2,0,3,,,,,,,,,2,,,61,110
139680,note_on,2,0,4,,,,,,,,,4,,,61,75
139680,note_on,2,0,2,,,,,,,,,0,,,61,110
139774,note_on,94,0,3,,,,,,,,,2,,,61,0
139774,note_on,94,0,1,,,,,,,,,11,,,61,0
139774,note_on,94,0,4,,,,,,,,,4,,,61,0
139774,note_on,94,0,2,,,,,,,,,0,,,61,0
139774,note_on,94,0,5,,,,,,,,,6,,,49,0
139774,note_on,94,0,6,,,,,,,,,8,,,37,0
139776,note_on,2,0,5,,,,,,,,,6,,,47,92
139776,note_on,2,0,3,,,,,,,,,2,,,59,110
139776,note_on,2,0,1,,,,,,,,,11,,,59,110
139776,note_on,2,0,4,,,,,,,,,4,,,59,75
139776,note_on,2,0,2,,,,,,,,,0,,,59,110
139776,note_on,2,0,6,,,,,,,,,8,,,35,92
139870,note_on,94,0,5,,,,,,,,,6,,,47,0
139870,note_on,94,0,2,,,,,,,,,0,,,59,0
139870,note_on,94,0,6,,,,,,,,,8,,,35,0
139870,note_on,94,0,1,,,,,,,,,11,,,59,0
139870,note_on,94,0,4,,,,,,,,,4,,,59,0
139870,note_on,94,0,3,,,,,,,,,2,,,59,0
139872,note_on,2,0,5,,,,,,,,,6,,,45,92
139872,note_on,2,0,4,,,,,,,,,4,,,57,75
139872,note_on,2,0,1,,,,,,,,,11,,,57,110
139872,note_on,2,0,3,,,,,,,,,2,,,57,110
139872,note_on,2,0,2,,,,,,,,,0,,,57,110
139872,note_on,2,0,6,,,,,,,,,8,,,33,92
139966,note_on,94,0,3,,,,,,,,,2,,,57,0
139966,note_on,94,0,4,,,,,,,,,4,,,57,0
139966,note_on,94,0,2,,,,,,,,,0,,,57,0
139966,note_on,94,0,6,,,,,,,,,8,,,33,0
139966,note_on,94,0,1,,,,,,,,,11,,,57,0
139966,note_on,94,0,5,,,,,,,,,6,,,45,0
139968,note_on,2,0,6,,,,,,,,,8,,,40,92
139968,note_on,2,0,5,,,,,,,,,6,,,52,92
139968,note_on,2,0,4,,,,,,,,,4,,,64,75
139968,note_on,2,0,1,,,,,,,,,11,,,73,110
139968,note_on,2,0,3,,,,,,,,,2,,,69,110
139968,note_on,2,0,2,,,,,,,,,0,,,73,110
140224,note_on,256,0,6,,,,,,,,,8,,,40,0
140224,note_on,256,0,2,,,,,,,,,0,,,73,0
140224,note_on,256,0,5,,,,,,,,,6,,,52,0
140224,note_on,256,0,4,,,,,,,,,4,,,64,0
140224,note_on,256,0,1,,,,,,,,,11,,,73,0
140224,note_on,256,0,3,,,,,,,,,2,,,69,0
140256,note_on,32,0,2,,,,,,,,,0,,,71,110
140256,note_on,32,0,4,,,,,,,,,4,,,64,75
140256,note_on,32,0,5,,,,,,,,,6,,,40,92
140256,note_on,32,0,6,,,,,,,,,8,,,28,92
140256,note_on,32,0,1,,,,,,,,,11,,,71,110
140256,note_on,32,0,3,,,,,,,,,2,,,68,110
140512,note_on,256,0,1,,,,,,,,,11,,,71,0
140512,note_on,256,0,2,,,,,,,,,0,,,71,0
140512,note_on,256,0,3,,,,,,,,,2,,,68,0
140512,note_on,256,0,4,,,,,,,,,4,,,64,0
140512,note_on,256,0,6,,,,,,,,,8,,,28,0
140512,note_on,256,0,5,,,,,,,,,6,,,40,0
140544,note_on,32,0,1,,,,,,,,,11,,,69,110
140544,note_on,32,0,6,,,,,,,,,8,,,33,92
140544,note_on,32,0,4,,,,,,,,,4,,,61,75
140544,note_on,32,0,2,,,,,,,,,0,,,69,110
140544,note_on,32,0,3,,,,,,,,,2,,,69,110
140544,note_on,32,0,5,,,,,,,,,6,,,45,92
141022,note_on,478,0,3,,,,,,,,,2,,,69,0
141022,note_on,478,0,1,,,,,,,,,11,,,69,0
141022,note_on,478,0,6,,,,,,,,,8,,,33,0
141022,note_on,478,0,5,,,,,,,,,6,,,45,0
141022,note_on,478,0,4,,,,,,,,,4,,,61,0
141022,note_on,478,0,2,,,,,,,,,0,,,69,0
141024,note_on,2,0,6,,,,,,,,,8,,,45,92
141024,note_on,2,0,2,,,,,,,,,0,,,81,110
141024,note_on,2,0,4,,,,,,,,,4,,,69,75
141024,note_on,2,0,5,,,,,,,,,6,,,57,92
141024,note_on,2,0,3,,,,,,,,,2,,,81,110
141024,note_on,2,0,1,,,,,,,,,11,,,81,110
141118,note_on,94,0,5,,,,,,,,,6,,,57,0
141118,note_on,94,0,6,,,,,,,,,8,,,45,0
141118,note_on,94,0,3,,,,,,,,,2,,,81,0
141118,note_on,94,0,1,,,,,,,,,11,,,81,0
141118,note_on,94,0,2,,,,,,,,,0,,,81,0
141118,note_on,94,0,4,,,,,,,,,4,,,69,0
141120,note_on,2,0,1,,,,,,,,,11,,,69,110
141120,note_on,2,0,2,,,,,,,,,0,,,69,110
141120,note_on,2,0,3,,,,,,,,,2,,,69,110
141120,note_on,2,0,6,,,,,,,,,8,,,45,92
141120,note_on,2,0,4,,,,,,,,,4,,,69,75
141120,note_on,2,0,5,,,,,,,,,6,,,57,92
141214,note_on,94,0,3,,,,,,,,,2,,,69,0
141214,note_on,94,0,2,,,,,,,,,0,,,69,0
141214,note_on,94,0,5,,,,,,,,,6,,,57,0
141214,note_on,94,0,1,,,,,,,,,11,,,69,0
141214,note_on,94,0,6,,,,,,,,,8,,,45,0
141214,note_on,94,0,4,,,,,,,,,4,,,69,0
141216,note_on,2,0,5,,,,,,,,,6,,,52,92
141216,note_on,2,0,1,,,,,,,,,11,,,64,110
141216,note_on,2,0,2,,,,,,,,,0,,,64,110
141216,note_on,2,0,6,,,,,,,,,8,,,40,92
141216,note_on,2,0,4,,,,,,,,,4,,,64,75
141216,note_on,2,0,3,,,,,,,,,2,,,64,110
141310,note_on,94,0,4,,,,,,,,,4,,,64,0
141310,note_on,94,0,6,,,,,,,,,8,,,40,0
141310,note_on,94,0,3,,,,,,,,,2,,,64,0
141310,note_on,94,0,2,,,,,,,,,0,,,64,0
141310,note_on,94,0,1,,,,,,,,,11,,,64,0
141310,note_on,94,0,5,,,,,,,,,6,,,52,0
141312,note_on,2,0,3,,,,,,,,,2,,,62,110
141312,note_on,2,0,4,,,,,,,,,4,,,62,75
141312,note_on,2,0,2,,,,,,,,,0,,,62,110
141312,note_on,2,0,5,,,,,,,,,6,,,50,92
141312,note_on,2,0,6,,,,,,,,,8,,,38,92
141312,note_on,2,0,1,,,,,,,,,11,,,62,110
141406,note_on,94,0,3,,,,,,,,,2,,,62,0
141406,note_on,94,0,6,,,,,,,,,8,,,38,0
141406,note_on,94,0,2,,,,,,,,,0,,,62,0
141406,note_on,94,0,1,,,,,,,,,11,,,62,0
141406,note_on,94,0,4,,,,,,,,,4,,,62,0
141406,note_on,94,0,5,,,,,,,,,6,,,50,0
141408,note_on,2,0,5,,,,,,,,,6,,,49,92
141408,note_on,2,0,3,,,,,,,,,2,,,61,110
141408,note_on,2,0,4,,,,,,,,,4,,,61,75
141408,note_on,2,0,6,,,,,,,,,8,,,37,92
141408,note_on,2,0,2,,,,,,,,,0,,,61,110
141408,note_on,2,0,1,,,,,,,,,11,,,61,110
141502,note_on,94,0,5,,,,,,,,,6,,,49,0
141502,note_on,94,0,3,,,,,,,,,2,,,61,0
141502,note_on,94,0,2,,,,,,,,,0,,,61,0
141502,note_on,94,0,6,,,,,,,,,8,,,37,0
141502,note_on,94,0,4,,,,,,,,,4,,,61,0
141502,note_on,94,0,1,,,,,,,,,11,,,61,0
141504,note_on,2,0,1,,,,,,,,,11,,,59,110
141504,note_on,2,0,6,,,,,,,,,8,,,35,92
141504,note_on,2,0,3,,,,,,,,,2,,,59,110
141504,note_on,2,0,5,,,,,,,,,6,,,47,92
141504,note_on,2,0,4,,,,,,,,,4,,,59,75
141504,note_on,2,0,2,,,,,,,,,0,,,59,110
141598,note_on,94,0,3,,,,,,,,,2,,,59,0
141598,note_on,94,0,6,,,,,,,,,8,,,35,0
141598,note_on,94,0,1,,,,,,,,,11,,,59,0
141598,note_on,94,0,4,,,,,,,,,4,,,59,0
141598,note_on,94,0,5,,,,,,,,,6,,,47,0
141598,note_on,94,0,2,,,,,,,,,0,,,59,0
141600,note_on,2,0,2,,,,,,,,,0,,,57,110
141600,note_on,2,0,4,,,,,,,,,4,,,57,75
141600,note_on,2,0,5,,,,,,,,,6,,,45,92
141600,note_on,2,0,1,,,,,,,,,11,,,57,110
141600,note_on,2,0,3,,,,,,,,,2,,,57,110
141600,note_on,2,0,6,,,,,,,,,8,,,33,92
141694,note_on,94,0,5,,,,,,,,,6,,,45,0
141694,note_on,94,0,1,,,,,,,,,11,,,57,0
141694,note_on,94,0,6,,,,,,,,,8,,,33,0
141694,note_on,94,0,4,,,,,,,,,4,,,57,0
141694,note_on,94,0,3,,,,,,,,,2,,,57,0
141694,note_on,94,0,2,,,,,,,,,0,,,57,0
141696,note_on,2,0,6,,,,,,,,,8,,,45,92
141696,note_on,2,0,2,,,,,,,,,0,,,69,110
141696,note_on,2,0,4,,,,,,,,,4,,,69,75
141696,note_on,2,0,3,,,,,,,,,2,,,69,110
141696,note_on,2,0,1,,,,,,,,,11,,,69,110
141696,note_on,2,0,5,,,,,,,,,6,,,57,92
141790,note_on,94,0,5,,,,,,,,,6,,,57,0
141790,note_on,94,0,1,,,,,,,,,11,,,69,0
141790,note_on,94,0,2,,,,,,,,,0,,,69,0
141790,note_on,94,0,4,,,,,,,,,4,,,69,0
141790,note_on,94,0,3,,,,,,,,,2,,,69,0
141790,note_on,94,0,6,,,,,,,,,8,,,45,0
141792,note_on,2,0,5,,,,,,,,,6,,,52,92
141792,note_on,2,0,1,,,,,,,,,11,,,64,110
141792,note_on,2,0,4,,,,,,,,,4,,,64,75
141792,note_on,2,0,3,,,,,,,,,2,,,64,110
141792,note_on,2,0,6,,,,,,,,,8,,,40,92
141792,note_on,2,0,2,,,,,,,,,0,,,64,110
141886,note_on,94,0,6,,,,,,,,,8,,,40,0
141886,note_on,94,0,1,,,,,,,,,11,,,64,0
141886,note_on,94,0,5,,,,,,,,,6,,,52,0
141886,note_on,94,0,4,,,,,,,,,4,,,64,0
141886,note_on,94,0,2,,,,,,,,,0,,,64,0
141886,note_on,94,0,3,,,,,,,,,2,,,64,0
141888,note_on,2,0,1,,,,,,,,,11,,,62,110
141888,note_on,2,0,6,,,,,,,,,8,,,38,92
141888,note_on,2,0,4,,,,,,,,,4,,,62,75
141888,note_on,2,0,5,,,,,,,,,6,,,50,92
141888,note_on,2,0,2,,,,,,,,,0,,,62,110
141888,note_on,2,0,3,,,,,,,,,2,,,62,110
141982,note_on,94,0,4,,,,,,,,,4,,,62,0
141982,note_on,94,0,2,,,,,,,,,0,,,62,0
141982,note_on,94,0,6,,,,,,,,,8,,,38,0
141982,note_on,94,0,5,,,,,,,,,6,,,50,0
141982,note_on,94,0,1,,,,,,,,,11,,,62,0
141982,note_on,94,0,3,,,,,,,,,2,,,62,0
141984,note_on,2,0,1,,,,,,,,,11,,,61,110
141984,note_on,2,0,4,,,,,,,,,4,,,61,75
141984,note_on,2,0,2,,,,,,,,,0,,,61,110
141984,note_on,2,0,3,,,,,,,,,2,,,61,110
141984,note_on,2,0,6,,,,,,,,,8,,,37,92
141984,note_on,2,0,5,,,,,,,,,6,,,49,92
142078,note_on,94,0,5,,,,,,,,,6,,,49,0
142078,note_on,94,0,2,,,,,,,,,0,,,61,0
142078,note_on,94,0,4,,,,,,,,,4,,,61,0
142078,note_on,94,0,1,,,,,,,,,11,,,61,0
142078,note_on,94,0,3,,,,,,,,,2,,,61,0
142078,note_on,94,0,6,,,,,,,,,8,,,37,0
142080,note_on,2,0,2,,,,,,,,,0,,,59,110
142080,note_on,2,0,3,,,,,,,,,2,,,59,110
142080,note_on,2,0,5,,,,,,,,,6,,,47,92
142080,note_on,2,0,1,,,,,,,,,11,,,59,110
142080,note_on,2,0,6,,,,,,,,,8,,,35,92
142080,note_on,2,0,4,,,,,,,,,4,,,59,75
142174,note_on,94,0,5,,,,,,,,,6,,,47,0
142174,note_on,94,0,2,,,,,,,,,0,,,59,0
142174,note_on,94,0,1,,,,,,,,,11,,,59,0
142174,note_on,94,0,6,,,,,,,,,8,,,35,0
142174,note_on,94,0,3,,,,,,,,,2,,,59,0
142174,note_on,94,0,4,,,,,,,,,4,,,59,0
142176,note_on,2,0,1,,,,,,,,,11,,,57,110
142176,note_on,2,0,6,,,,,,,,,8,,,33,92
142176,note_on,2,0,2,,,,,,,,,0,,,57,110
142176,note_on,2,0,3,,,,,,,,,2,,,57,110
142176,note_on,2,0,4,,,,,,,,,4,,,57,75
142176,note_on,2,0,5,,,,,,,,,6,,,45,92
142270,note_on,94,0,4,,,,,,,,,4,,,57,0
142270,note_on,94,0,2,,,,,,,,,0,,,57,0
142270,note_on,94,0,3,,,,,,,,,2,,,57,0
142270,note_on,94,0,6,,,,,,,,,8,,,33,0
142270,note_on,94,0,1,,,,,,,,,11,,,57,0
142270,note_on,94,0,5,,,,,,,,,6,,,45,0
142272,note_on,2,0,1,,,,,,,,,11,,,81,110
142272,note_on,2,0,2,,,,,,,,,0,,,81,110
142272,note_on,2,0,3,,,,,,,,,2,,,73,110
142272,note_on,2,0,6,,,,,,,,,8,,,40,92
142272,note_on,2,0,5,,,,,,,,,6,,,52,92
142272,note_on,2,0,4,,,,,,,,,4,,,64,75
142528,note_on,256,0,6,,,,,,,,,8,,,40,0
142528,note_on,256,0,3,,,,,,,,,2,,,73,0
142528,note_on,256,0,1,,,,,,,,,11,,,81,0
142528,note_on,256,0,2,,,,,,,,,0,,,81,0
142528,note_on,256,0,4,,,,,,,,,4,,,64,0
142528,note_on,256,0,5,,,,,,,,,6,,,52,0
142560,note_on,32,0,2,,,,,,,,,0,,,80,110
142560,note_on,32,0,4,,,,,,,,,4,,,64,75
142560,note_on,32,0,3,,,,,,,,,2,,,71,110
142560,note_on,32,0,6,,,,,,,,,8,,,28,92
142560,note_on,32,0,1,,,,,,,,,11,,,80,110
142560,note_on,32,0,5,,,,,,,,,6,,,40,92
142720,note_on,160,0,5,,,,,,,,,6,,,40,0
142720,note_on,160,0,6,,,,,,,,,8,,,28,0
142720,note_on,160,0,3,,,,,,,,,2,,,71,0
142720,note_on,160,0,4,,,,,,,,,4,,,64,0
142720,note_on,160,0,2,,,,,,,,,0,,,80,0
142720,note_on,160,0,1,,,,,,,,,11,,,80,0
142848,note_on,128,0,1,,,,,,,,,11,,,81,110
142848,note_on,128,0,3,,,,,,,,,2,,,73,110
142848,end_of_track,0,1,6,,,,,,,,,,,,,
142848,note_on,128,0,6,,,,,,,,,8,,,33,92
142848,note_on,128,0,4,,,,,,,,,4,,,64,75
142848,end_of_track,0,1,5,,,,,,,,,,,,,
142848,note_on,128,0,5,,,,,,,,,6,,,45,92
142848,end_of_track,0,1,2,,,,,,,,,,,,,
142848,note_on,128,0,2,,,,,,,,,0,,,81,110
142848,end_of_track,0,1,1,,,,,,,,,,,,,
143568,end_of_track,0,1,4,,,,,,,,,,,,,
143568,note_on,720,0,4,,,,,,,,,4,,,64,0
143568,end_of_track,0,1,3,,,,,,,,,,,,,
143568,note_on,720,0,3,,,,,,,,,2,,,73,0
