tick,type,time,meta,track,key,numerator,denominator,clocks_per_click,notated_32nd_notes_per_beat,tempo,port,program,channel,control,value,note,velocity
0,track_name,0,1,0,,,,,,,,,,,,,
0,time_signature,0,1,4,,4,4,24,8,,,,,,,,
0,midi_port,0,1,5,,,,,,,0,,,,,,
0,track_name,0,1,5,,,,,,,,,,,,,
0,program_change,0,0,5,,,,,,,,48,6,,,,
0,control_change,0,0,5,,,,,,,,,6,7,110,,
0,control_change,0,0,5,,,,,,,,,6,10,64,,
0,key_signature,0,1,4,A,,,,,,,,,,,,
0,key_signature,0,1,5,A,,,,,,,,,,,,
0,track_name,0,1,3,,,,,,,,,,,,,
0,midi_port,0,1,6,,,,,,,0,,,,,,
0,track_name,0,1,6,,,,,,,,,,,,,
0,program_change,0,0,6,,,,,,,,48,8,,,,
0,control_change,0,0,6,,,,,,,,,8,7,110,,
0,control_change,0,0,6,,,,,,,,,8,10,64,,
0,time_signature,0,1,5,,4,4,24,8,,,,,,,,
0,key_signature,0,1,6,A,,,,,,,,,,,,
0,control_change,0,0,4,,,,,,,,,4,10,64,,
0,program_change,0,0,4,,,,,,,,48,4,,,,
0,program_change,0,0,3,,,,,,,,48,3,,,,
0,control_change,0,0,3,,,,,,,,,3,7,127,,
0,control_change,0,0,3,,,,,,,,,3,10,64,,
0,key_signature,0,1,3,A,,,,,,,,,,,,
0,time_signature,0,1,3,,4,4,24,8,,,,,,,,
0,time_signature,0,1,2,,4,4,24,8,,,,,,,,
0,control_change,0,0,4,,,,,,,,,4,7,110,,
0,key_signature,0,1,2,A,,,,,,,,,,,,
0,control_change,0,0,2,,,,,,,,,0,7,127,,
0,program_change,0,0,2,,,,,,,,48,0,,,,
0,track_name,0,1,2,,,,,,,,,,,,,
0,midi_port,0,1,2,,,,,,,0,,,,,,
0,midi_port,0,1,4,,,,,,,0,,,,,,
0,track_name,0,1,4,,,,,,,,,,,,,
0,control_change,0,0,2,,,,,,,,,0,10,64,,
0,time_signature,0,1,6,,4,4,24,8,,,,,,,,
0,midi_port,0,1,3,,,,,,,0,,,,,,
0,control_change,0,0,1,,,,,,,,,11,7,127,,
0,key_signature,0,1,1,A,,,,,,,,,,,,
0,time_signature,0,1,1,,4,4,24,8,,,,,,,,
0,control_change,0,0,1,,,,,,,,,11,10,64,,
0,program_change,0,0,1,,,,,,,,40,11,,,,
0,track_name,0,1,1,,,,,,,,,,,,,
0,midi_port,0,1,1,,,,,,,0,,,,,,
0,text,0,1,0,,,,,,,,,,,,,
0,key_signature,0,1,0,A,,,,,,,,,,,,
0,time_signature,0,1,0,,4,4,24,8,,,,,,,,
1536,note_on,1536,0,6,,,,,,,,,8,,,33,92
1536,note_on,1536,0,5,,,,,,,,,6,,,45,92
1536,note_on,0,0,2,,,,,,,,,0,,,81,127
1536,set_tempo,1536,1,0,,,,,,461538,,,,,,,
1536,note_on,0,0,3,,,,,,,,,3,,,81,127
1536,control_change,1536,0,3,,,,,,,,,3,10,0,,
1536,note_on,1536,0,1,,,,,,,,,11,,,81,127
1536,control_change,1536,0,2,,,,,,,,,0,10,127,,
1536,note_on,1536,0,4,,,,,,,,,4,,,61,92
1630,note_on,94,0,3,,,,,,,,,3,,,81,0
1630,note_on,94,0,1,,,,,,,,,11,,,81,0
1630,note_on,94,0,2,,,,,,,,,0,,,81,0
1632,note_on,2,0,3,,,,,,,,,3,,,80,127
1632,note_on,2,0,1,,,,,,,,,11,,,80,127
1632,note_on,2,0,2,,,,,,,,,0,,,80,127
1678,note_on,46,0,2,,,,,,,,,0,,,80,0
1678,note_on,46,0,3,,,,,,,,,3,,,80,0
1678,note_on,46,0,1,,,,,,,,,11,,,80,0
1680,note_on,2,0,3,,,,,,,,,3,,,78,127
1680,note_on,2,0,2,,,,,,,,,0,,,78,127
1680,note_on,2,0,1,,,,,,,,,11,,,78,127
1696,note_on,160,0,6,,,,,,,,,8,,,33,0
1696,note_on,160,0,4,,,,,,,,,4,,,61,0
1696,note_on,160,0,5,,,,,,,,,6,,,45,0
1726,note_on,46,0,1,,,,,,,,,11,,,78,0
1726,note_on,46,0,3,,,,,,,,,3,,,78,0
1726,note_on,46,0,2,,,,,,,,,0,,,78,0
1728,note_on,2,0,2,,,,,,,,,0,,,76,127
1728,note_on,2,0,3,,,,,,,,,3,,,76,127
1728,note_on,2,0,1,,,,,,,,,11,,,76,127
1774,note_on,46,0,1,,,,,,,,,11,,,76,0
1774,note_on,46,0,2,,,,,,,,,0,,,76,0
1774,note_on,46,0,3,,,,,,,,,3,,,76,0
1776,note_on,2,0,1,,,,,,,,,11,,,74,127
1776,note_on,2,0,2,,,,,,,,,0,,,74,127
1776,note_on,2,0,3,,,,,,,,,3,,,74,127
1822,note_on,46,0,3,,,,,,,,,3,,,74,0
1822,note_on,46,0,1,,,,,,,,,11,,,74,0
1822,note_on,46,0,2,,,,,,,,,0,,,74,0
1824,note_on,2,0,1,,,,,,,,,11,,,73,127
1824,note_on,2,0,2,,,,,,,,,0,,,73,127
1824,note_on,2,0,3,,,,,,,,,3,,,73,127
1870,note_on,46,0,2,,,,,,,,,0,,,73,0
1870,note_on,46,0,1,,,,,,,,,11,,,73,0
1870,note_on,46,0,3,,,,,,,,,3,,,73,0
1872,note_on,2,0,3,,,,,,,,,3,,,71,127
1872,note_on,2,0,1,,,,,,,,,11,,,71,127
1872,note_on,2,0,2,,,,,,,,,0,,,71,127
1918,note_on,46,0,3,,,,,,,,,3,,,71,0
1918,note_on,46,0,2,,,,,,,,,0,,,71,0
1918,note_on,46,0,1,,,,,,,,,11,,,71,0
1920,note_on,2,0,2,,,,,,,,,0,,,69,127
1920,note_on,224,0,4,,,,,,,,,4,,,69,92
1920,note_on,224,0,5,,,,,,,,,6,,,57,92
1920,note_on,224,0,6,,,,,,,,,8,,,45,92
1920,note_on,2,0,1,,,,,,,,,11,,,69,127
1920,note_on,2,0,3,,,,,,,,,3,,,69,127
2014,note_on,94,0,2,,,,,,,,,0,,,69,0
2014,note_on,94,0,3,,,,,,,,,3,,,69,0
2014,note_on,94,0,6,,,,,,,,,8,,,45,0
2014,note_on,94,0,1,,,,,,,,,11,,,69,0
2014,note_on,94,0,4,,,,,,,,,4,,,69,0
2014,note_on,94,0,5,,,,,,,,,6,,,57,0
2016,note_on,2,0,3,,,,,,,,,3,,,64,127
2016,note_on,2,0,5,,,,,,,,,6,,,52,92
2016,note_on,2,0,4,,,,,,,,,4,,,64,92
2016,note_on,2,0,2,,,,,,,,,0,,,64,127
2016,note_on,2,0,6,,,,,,,,,8,,,40,92
2016,note_on,2,0,1,,,,,,,,,11,,,64,127
2110,note_on,94,0,5,,,,,,,,,6,,,52,0
2110,note_on,94,0,6,,,,,,,,,8,,,40,0
2110,note_on,94,0,3,,,,,,,,,3,,,64,0
2110,note_on,94,0,4,,,,,,,,,4,,,64,0
2110,note_on,94,0,2,,,,,,,,,0,,,64,0
2110,note_on,94,0,1,,,,,,,,,11,,,64,0
2112,note_on,2,0,2,,,,,,,,,0,,,57,127
2112,note_on,2,0,3,,,,,,,,,3,,,57,127
2112,note_on,2,0,5,,,,,,,,,6,,,45,92
2112,note_on,2,0,1,,,,,,,,,11,,,57,127
2112,note_on,2,0,6,,,,,,,,,8,,,33,92
2112,note_on,2,0,4,,,,,,,,,4,,,57,92
2272,note_on,160,0,3,,,,,,,,,3,,,57,0
2272,note_on,160,0,2,,,,,,,,,0,,,57,0
2272,note_on,160,0,6,,,,,,,,,8,,,33,0
2272,note_on,160,0,1,,,,,,,,,11,,,57,0
2272,note_on,160,0,5,,,,,,,,,6,,,45,0
2272,note_on,160,0,4,,,,,,,,,4,,,57,0
2304,note_on,32,0,5,,,,,,,,,6,,,45,92
2304,note_on,32,0,3,,,,,,,,,3,,,81,127
2304,note_on,32,0,1,,,,,,,,,11,,,81,127
2304,note_on,32,0,2,,,,,,,,,0,,,81,127
2304,note_on,32,0,6,,,,,,,,,8,,,33,92
2304,note_on,32,0,4,,,,,,,,,4,,,61,92
2398,note_on,94,0,2,,,,,,,,,0,,,81,0
2398,note_on,94,0,3,,,,,,,,,3,,,81,0
2398,note_on,94,0,1,,,,,,,,,11,,,81,0
2400,note_on,2,0,2,,,,,,,,,0,,,80,127
2400,note_on,2,0,3,,,,,,,,,3,,,80,127
2400,note_on,2,0,1,,,,,,,,,11,,,80,127
2446,note_on,46,0,1,,,,,,,,,11,,,80,0
2446,note_on,46,0,2,,,,,,,,,0,,,80,0
2446,note_on,46,0,3,,,,,,,,,3,,,80,0
2448,note_on,2,0,1,,,,,,,,,11,,,78,127
2448,note_on,2,0,3,,,,,,,,,3,,,78,127
2448,note_on,2,0,2,,,,,,,,,0,,,78,127
2464,note_on,160,0,4,,,,,,,,,4,,,61,0
2464,note_on,160,0,5,,,,,,,,,6,,,45,0
2464,note_on,160,0,6,,,,,,,,,8,,,33,0
2494,note_on,46,0,1,,,,,,,,,11,,,78,0
2494,note_on,46,0,2,,,,,,,,,0,,,78,0
2494,note_on,46,0,3,,,,,,,,,3,,,78,0
2496,note_on,2,0,2,,,,,,,,,0,,,76,127
2496,note_on,2,0,1,,,,,,,,,11,,,76,127
2496,note_on,2,0,3,,,,,,,,,3,,,76,127
2542,note_on,46,0,1,,,,,,,,,11,,,76,0
2542,note_on,46,0,2,,,,,,,,,0,,,76,0
2542,note_on,46,0,3,,,,,,,,,3,,,76,0
2544,note_on,2,0,2,,,,,,,,,0,,,74,127
2544,note_on,2,0,1,,,,,,,,,11,,,74,127
2544,note_on,2,0,3,,,,,,,,,3,,,74,127
2590,note_on,46,0,1,,,,,,,,,11,,,74,0
2590,note_on,46,0,2,,,,,,,,,0,,,74,0
2590,note_on,46,0,3,,,,,,,,,3,,,74,0
2592,note_on,2,0,3,,,,,,,,,3,,,73,127
2592,note_on,2,0,2,,,,,,,,,0,,,73,127
2592,note_on,2,0,1,,,,,,,,,11,,,73,127
2638,note_on,46,0,2,,,,,,,,,0,,,73,0
2638,note_on,46,0,1,,,,,,,,,11,,,73,0
2638,note_on,46,0,3,,,,,,,,,3,,,73,0
2640,note_on,2,0,2,,,,,,,,,0,,,71,127
2640,note_on,2,0,1,,,,,,,,,11,,,71,127
2640,note_on,2,0,3,,,,,,,,,3,,,71,127
2686,note_on,46,0,2,,,,,,,,,0,,,71,0
2686,note_on,46,0,3,,,,,,,,,3,,,71,0
2686,note_on,46,0,1,,,,,,,,,11,,,71,0
2688,note_on,224,0,4,,,,,,,,,4,,,69,92
2688,note_on,2,0,1,,,,,,,,,11,,,69,127
2688,note_on,2,0,3,,,,,,,,,3,,,69,127
2688,note_on,224,0,5,,,,,,,,,6,,,57,92
2688,note_on,224,0,6,,,,,,,,,8,,,45,92
2688,note_on,2,0,2,,,,,,,,,0,,,69,127
2782,note_on,94,0,4,,,,,,,,,4,,,69,0
2782,note_on,94,0,5,,,,,,,,,6,,,57,0
2782,note_on,94,0,3,,,,,,,,,3,,,69,0
2782,note_on,94,0,2,,,,,,,,,0,,,69,0
2782,note_on,94,0,1,,,,,,,,,11,,,69,0
2782,note_on,94,0,6,,,,,,,,,8,,,45,0
2784,note_on,2,0,1,,,,,,,,,11,,,64,127
2784,note_on,2,0,3,,,,,,,,,3,,,64,127
2784,note_on,2,0,5,,,,,,,,,6,,,52,92
2784,note_on,2,0,6,,,,,,,,,8,,,40,92
2784,note_on,2,0,4,,,,,,,,,4,,,64,92
2784,note_on,2,0,2,,,,,,,,,0,,,64,127
2878,note_on,94,0,5,,,,,,,,,6,,,52,0
2878,note_on,94,0,2,,,,,,,,,0,,,64,0
2878,note_on,94,0,3,,,,,,,,,3,,,64,0
2878,note_on,94,0,4,,,,,,,,,4,,,64,0
2878,note_on,94,0,6,,,,,,,,,8,,,40,0
2878,note_on,94,0,1,,,,,,,,,11,,,64,0
2880,note_on,2,0,3,,,,,,,,,3,,,57,127
2880,note_on,2,0,6,,,,,,,,,8,,,33,92
2880,note_on,2,0,1,,,,,,,,,11,,,57,127
2880,note_on,2,0,5,,,,,,,,,6,,,45,92
2880,note_on,2,0,4,,,,,,,,,4,,,57,92
2880,note_on,2,0,2,,,,,,,,,0,,,57,127
3040,note_on,160,0,4,,,,,,,,,4,,,57,0
3040,note_on,160,0,6,,,,,,,,,8,,,33,0
3040,note_on,160,0,3,,,,,,,,,3,,,57,0
3040,note_on,160,0,2,,,,,,,,,0,,,57,0
3040,note_on,160,0,5,,,,,,,,,6,,,45,0
3040,note_on,160,0,1,,,,,,,,,11,,,57,0
3072,note_on,32,0,3,,,,,,,,,3,,,73,127
3072,note_on,32,0,4,,,,,,,,,4,,,64,92
3072,note_on,32,0,5,,,,,,,,,6,,,57,92
3072,note_on,32,0,6,,,,,,,,,8,,,45,92
3072,note_on,32,0,1,,,,,,,,,11,,,73,127
3072,note_on,32,0,2,,,,,,,,,0,,,73,127
3118,note_on,46,0,2,,,,,,,,,0,,,73,0
3118,note_on,46,0,1,,,,,,,,,11,,,73,0
3118,note_on,46,0,3,,,,,,,,,3,,,73,0
3120,note_on,2,0,1,,,,,,,,,11,,,69,127
3120,note_on,2,0,3,,,,,,,,,3,,,69,127
3120,note_on,2,0,2,,,,,,,,,0,,,69,127
3166,note_on,94,0,6,,,,,,,,,8,,,45,0
3166,note_on,46,0,3,,,,,,,,,3,,,69,0
3166,note_on,94,0,5,,,,,,,,,6,,,57,0
3166,note_on,46,0,1,,,,,,,,,11,,,69,0
3166,note_on,46,0,2,,,,,,,,,0,,,69,0
3168,note_on,2,0,1,,,,,,,,,11,,,64,127
3168,note_on,2,0,5,,,,,,,,,6,,,57,92
3168,note_on,2,0,3,,,,,,,,,3,,,64,127
3168,note_on,2,0,6,,,,,,,,,8,,,45,92
3168,note_on,2,0,2,,,,,,,,,0,,,64,127
3214,note_on,46,0,1,,,,,,,,,11,,,64,0
3214,note_on,46,0,2,,,,,,,,,0,,,64,0
3214,note_on,46,0,3,,,,,,,,,3,,,64,0
3216,note_on,2,0,1,,,,,,,,,11,,,73,127
3216,note_on,2,0,2,,,,,,,,,0,,,73,127
3216,note_on,2,0,3,,,,,,,,,3,,,73,127
3232,note_on,160,0,4,,,,,,,,,4,,,64,0
3262,note_on,46,0,2,,,,,,,,,0,,,73,0
3262,note_on,94,0,5,,,,,,,,,6,,,57,0
3262,note_on,94,0,6,,,,,,,,,8,,,45,0
3262,note_on,46,0,3,,,,,,,,,3,,,73,0
3262,note_on,46,0,1,,,,,,,,,11,,,73,0
3264,note_on,2,0,5,,,,,,,,,6,,,56,92
3264,note_on,2,0,1,,,,,,,,,11,,,74,127
3264,note_on,2,0,6,,,,,,,,,8,,,44,92
3264,note_on,32,0,4,,,,,,,,,4,,,64,92
3264,note_on,2,0,3,,,,,,,,,3,,,74,127
3264,note_on,2,0,2,,,,,,,,,0,,,74,127
3310,note_on,46,0,1,,,,,,,,,11,,,74,0
3310,note_on,46,0,3,,,,,,,,,3,,,74,0
3310,note_on,46,0,2,,,,,,,,,0,,,74,0
3312,note_on,2,0,1,,,,,,,,,11,,,71,127
3312,note_on,2,0,3,,,,,,,,,3,,,71,127
3312,note_on,2,0,2,,,,,,,,,0,,,71,127
3358,note_on,46,0,3,,,,,,,,,3,,,71,0
3358,note_on,46,0,1,,,,,,,,,11,,,71,0
3358,note_on,94,0,5,,,,,,,,,6,,,56,0
3358,note_on,46,0,2,,,,,,,,,0,,,71,0
3358,note_on,94,0,6,,,,,,,,,8,,,44,0
3360,note_on,2,0,3,,,,,,,,,3,,,64,127
3360,note_on,2,0,1,,,,,,,,,11,,,64,127
3360,note_on,2,0,5,,,,,,,,,6,,,56,92
3360,note_on,2,0,6,,,,,,,,,8,,,44,92
3360,note_on,2,0,2,,,,,,,,,0,,,64,127
3406,note_on,46,0,2,,,,,,,,,0,,,64,0
3406,note_on,46,0,1,,,,,,,,,11,,,64,0
3406,note_on,46,0,3,,,,,,,,,3,,,64,0
3408,note_on,2,0,2,,,,,,,,,0,,,74,127
3408,note_on,2,0,3,,,,,,,,,3,,,74,127
3408,note_on,2,0,1,,,,,,,,,11,,,74,127
3424,note_on,160,0,4,,,,,,,,,4,,,64,0
3454,note_on,94,0,5,,,,,,,,,6,,,56,0
3454,note_on,94,0,6,,,,,,,,,8,,,44,0
3454,note_on,46,0,2,,,,,,,,,0,,,74,0
3454,note_on,46,0,1,,,,,,,,,11,,,74,0
3454,note_on,46,0,3,,,,,,,,,3,,,74,0
3456,note_on,2,0,3,,,,,,,,,3,,,73,127
3456,note_on,2,0,6,,,,,,,,,8,,,45,92
3456,note_on,2,0,1,,,,,,,,,11,,,73,127
3456,note_on,2,0,2,,,,,,,,,0,,,73,127
3456,note_on,2,0,5,,,,,,,,,6,,,57,92
3456,note_on,32,0,4,,,,,,,,,4,,,64,92
3502,note_on,46,0,3,,,,,,,,,3,,,73,0
3502,note_on,46,0,1,,,,,,,,,11,,,73,0
3502,note_on,46,0,2,,,,,,,,,0,,,73,0
3504,note_on,2,0,3,,,,,,,,,3,,,69,127
3504,note_on,2,0,2,,,,,,,,,0,,,69,127
3504,note_on,2,0,1,,,,,,,,,11,,,69,127
3550,note_on,46,0,1,,,,,,,,,11,,,69,0
3550,note_on,46,0,3,,,,,,,,,3,,,69,0
3550,note_on,94,0,5,,,,,,,,,6,,,57,0
3550,note_on,94,0,6,,,,,,,,,8,,,45,0
3550,note_on,46,0,2,,,,,,,,,0,,,69,0
3552,note_on,2,0,1,,,,,,,,,11,,,64,127
3552,note_on,2,0,3,,,,,,,,,3,,,64,127
3552,note_on,2,0,2,,,,,,,,,0,,,64,127
3552,note_on,2,0,6,,,,,,,,,8,,,45,92
3552,note_on,2,0,5,,,,,,,,,6,,,57,92
3598,note_on,46,0,2,,,,,,,,,0,,,64,0
3598,note_on,46,0,3,,,,,,,,,3,,,64,0
3598,note_on,46,0,1,,,,,,,,,11,,,64,0
3600,note_on,2,0,1,,,,,,,,,11,,,73,127
3600,note_on,2,0,2,,,,,,,,,0,,,73,127
3600,note_on,2,0,3,,,,,,,,,3,,,73,127
3616,note_on,160,0,4,,,,,,,,,4,,,64,0
3646,note_on,46,0,1,,,,,,,,,11,,,73,0
3646,note_on,46,0,3,,,,,,,,,3,,,73,0
3646,note_on,46,0,2,,,,,,,,,0,,,73,0
3646,note_on,94,0,6,,,,,,,,,8,,,45,0
3646,note_on,94,0,5,,,,,,,,,6,,,57,0
3648,note_on,2,0,6,,,,,,,,,8,,,44,92
3648,note_on,2,0,2,,,,,,,,,0,,,74,127
3648,note_on,2,0,1,,,,,,,,,11,,,74,127
3648,note_on,2,0,5,,,,,,,,,6,,,56,92
3648,note_on,32,0,4,,,,,,,,,4,,,64,92
3648,note_on,2,0,3,,,,,,,,,3,,,74,127
3694,note_on,46,0,1,,,,,,,,,11,,,74,0
3694,note_on,46,0,2,,,,,,,,,0,,,74,0
3694,note_on,46,0,3,,,,,,,,,3,,,74,0
3696,note_on,2,0,3,,,,,,,,,3,,,71,127
3696,note_on,2,0,1,,,,,,,,,11,,,71,127
3696,note_on,2,0,2,,,,,,,,,0,,,71,127
3742,note_on,94,0,5,,,,,,,,,6,,,56,0
3742,note_on,46,0,3,,,,,,,,,3,,,71,0
3742,note_on,46,0,1,,,,,,,,,11,,,71,0
3742,note_on,46,0,2,,,,,,,,,0,,,71,0
3742,note_on,94,0,6,,,,,,,,,8,,,44,0
3744,note_on,2,0,6,,,,,,,,,8,,,44,92
3744,note_on,2,0,3,,,,,,,,,3,,,64,127
3744,note_on,2,0,2,,,,,,,,,0,,,64,127
3744,note_on,2,0,5,,,,,,,,,6,,,56,92
3744,note_on,2,0,1,,,,,,,,,11,,,64,127
3790,note_on,46,0,3,,,,,,,,,3,,,64,0
3790,note_on,46,0,2,,,,,,,,,0,,,64,0
3790,note_on,46,0,1,,,,,,,,,11,,,64,0
3792,note_on,2,0,3,,,,,,,,,3,,,74,127
3792,note_on,2,0,1,,,,,,,,,11,,,74,127
3792,note_on,2,0,2,,,,,,,,,0,,,74,127
3808,note_on,160,0,4,,,,,,,,,4,,,64,0
3838,note_on,46,0,3,,,,,,,,,3,,,74,0
3838,note_on,94,0,6,,,,,,,,,8,,,44,0
3838,note_on,46,0,1,,,,,,,,,11,,,74,0
3838,note_on,46,0,2,,,,,,,,,0,,,74,0
3838,note_on,94,0,5,,,,,,,,,6,,,56,0
3840,note_on,2,0,1,,,,,,,,,11,,,73,127
3840,note_on,2,0,3,,,,,,,,,3,,,73,127
3840,note_on,2,0,2,,,,,,,,,0,,,73,127
3840,note_on,2,0,6,,,,,,,,,8,,,45,92
3840,note_on,2,0,5,,,,,,,,,6,,,57,92
3840,note_on,32,0,4,,,,,,,,,4,,,64,92
3886,note_on,46,0,1,,,,,,,,,11,,,73,0
3886,note_on,46,0,3,,,,,,,,,3,,,73,0
3886,note_on,46,0,2,,,,,,,,,0,,,73,0
3888,note_on,2,0,3,,,,,,,,,3,,,69,127
3888,note_on,2,0,2,,,,,,,,,0,,,69,127
3888,note_on,2,0,1,,,,,,,,,11,,,69,127
3934,note_on,94,0,5,,,,,,,,,6,,,57,0
3934,note_on,46,0,3,,,,,,,,,3,,,69,0
3934,note_on,46,0,1,,,,,,,,,11,,,69,0
3934,note_on,94,0,6,,,,,,,,,8,,,45,0
3934,note_on,46,0,2,,,,,,,,,0,,,69,0
3936,note_on,2,0,3,,,,,,,,,3,,,64,127
3936,note_on,2,0,5,,,,,,,,,6,,,57,92
3936,note_on,2,0,6,,,,,,,,,8,,,45,92
3936,note_on,2,0,1,,,,,,,,,11,,,64,127
3936,note_on,2,0,2,,,,,,,,,0,,,64,127
3982,note_on,46,0,3,,,,,,,,,3,,,64,0
3982,note_on,46,0,1,,,,,,,,,11,,,64,0
3982,note_on,46,0,2,,,,,,,,,0,,,64,0
3984,note_on,2,0,2,,,,,,,,,0,,,73,127
3984,note_on,2,0,3,,,,,,,,,3,,,73,127
3984,note_on,2,0,1,,,,,,,,,11,,,73,127
4000,note_on,160,0,4,,,,,,,,,4,,,64,0
4030,note_on,46,0,1,,,,,,,,,11,,,73,0
4030,note_on,46,0,2,,,,,,,,,0,,,73,0
4030,note_on,46,0,3,,,,,,,,,3,,,73,0
4030,note_on,94,0,5,,,,,,,,,6,,,57,0
4030,note_on,94,0,6,,,,,,,,,8,,,45,0
4032,note_on,2,0,2,,,,,,,,,0,,,74,127
4032,note_on,32,0,4,,,,,,,,,4,,,64,92
4032,note_on,2,0,5,,,,,,,,,6,,,56,92
4032,note_on,2,0,3,,,,,,,,,3,,,74,127
4032,note_on,2,0,1,,,,,,,,,11,,,74,127
4032,note_on,2,0,6,,,,,,,,,8,,,44,92
4078,note_on,46,0,2,,,,,,,,,0,,,74,0
4078,note_on,46,0,1,,,,,,,,,11,,,74,0
4078,note_on,46,0,3,,,,,,,,,3,,,74,0
4080,note_on,2,0,1,,,,,,,,,11,,,71,127
4080,note_on,2,0,2,,,,,,,,,0,,,71,127
4080,note_on,2,0,3,,,,,,,,,3,,,71,127
4126,note_on,94,0,5,,,,,,,,,6,,,56,0
4126,note_on,46,0,1,,,,,,,,,11,,,71,0
4126,note_on,46,0,2,,,,,,,,,0,,,71,0
4126,note_on,94,0,6,,,,,,,,,8,,,44,0
4126,note_on,46,0,3,,,,,,,,,3,,,71,0
4128,note_on,2,0,2,,,,,,,,,0,,,64,127
4128,note_on,2,0,5,,,,,,,,,6,,,56,92
4128,note_on,2,0,1,,,,,,,,,11,,,64,127
4128,note_on,2,0,6,,,,,,,,,8,,,44,92
4128,note_on,2,0,3,,,,,,,,,3,,,64,127
4174,note_on,46,0,3,,,,,,,,,3,,,64,0
4174,note_on,46,0,1,,,,,,,,,11,,,64,0
4174,note_on,46,0,2,,,,,,,,,0,,,64,0
4176,note_on,2,0,2,,,,,,,,,0,,,74,127
4176,note_on,2,0,1,,,,,,,,,11,,,74,127
4176,note_on,2,0,3,,,,,,,,,3,,,74,127
4192,note_on,160,0,4,,,,,,,,,4,,,64,0
4222,note_on,46,0,1,,,,,,,,,11,,,74,0
4222,note_on,94,0,6,,,,,,,,,8,,,44,0
4222,note_on,94,0,5,,,,,,,,,6,,,56,0
4222,note_on,46,0,2,,,,,,,,,0,,,74,0
4222,note_on,46,0,3,,,,,,,,,3,,,74,0
4224,note_on,2,0,6,,,,,,,,,8,,,45,92
4224,note_on,2,0,3,,,,,,,,,3,,,73,127
4224,note_on,32,0,4,,,,,,,,,4,,,64,92
4224,note_on,2,0,1,,,,,,,,,11,,,73,127
4224,note_on,2,0,5,,,,,,,,,6,,,57,92
4224,note_on,2,0,2,,,,,,,,,0,,,73,127
4318,note_on,94,0,5,,,,,,,,,6,,,57,0
4318,note_on,94,0,2,,,,,,,,,0,,,73,0
4318,note_on,94,0,6,,,,,,,,,8,,,45,0
4318,note_on,94,0,3,,,,,,,,,3,,,73,0
4318,note_on,94,0,4,,,,,,,,,4,,,64,0
4318,note_on,94,0,1,,,,,,,,,11,,,73,0
4320,note_on,2,0,2,,,,,,,,,0,,,69,127
4320,note_on,2,0,4,,,,,,,,,4,,,61,92
4320,note_on,2,0,3,,,,,,,,,3,,,69,127
4320,note_on,2,0,1,,,,,,,,,11,,,69,127
4320,note_on,2,0,6,,,,,,,,,8,,,45,92
4320,note_on,2,0,5,,,,,,,,,6,,,57,92
4414,note_on,94,0,5,,,,,,,,,6,,,57,0
4414,note_on,94,0,6,,,,,,,,,8,,,45,0
4414,note_on,94,0,4,,,,,,,,,4,,,61,0
4414,note_on,94,0,1,,,,,,,,,11,,,69,0
4414,note_on,94,0,2,,,,,,,,,0,,,69,0
4414,note_on,94,0,3,,,,,,,,,3,,,69,0
4608,note_on,194,0,5,,,,,,,,,6,,,45,92
4608,note_on,194,0,4,,,,,,,,,4,,,61,92
4608,note_on,194,0,1,,,,,,,,,11,,,81,127
4608,note_on,194,0,3,,,,,,,,,3,,,81,127
4608,note_on,194,0,6,,,,,,,,,8,,,33,92
4608,note_on,194,0,2,,,,,,,,,0,,,81,127
4702,note_on,94,0,2,,,,,,,,,0,,,81,0
4702,note_on,94,0,3,,,,,,,,,3,,,81,0
4702,note_on,94,0,1,,,,,,,,,11,,,81,0
4704,note_on,2,0,2,,,,,,,,,0,,,80,127
4704,note_on,2,0,3,,,,,,,,,3,,,80,127
4704,note_on,2,0,1,,,,,,,,,11,,,80,127
4750,note_on,46,0,2,,,,,,,,,0,,,80,0
4750,note_on,46,0,3,,,,,,,,,3,,,80,0
4750,note_on,46,0,1,,,,,,,,,11,,,80,0
4752,note_on,2,0,1,,,,,,,,,11,,,78,127
4752,note_on,2,0,2,,,,,,,,,0,,,78,127
4752,note_on,2,0,3,,,,,,,,,3,,,78,127
4768,note_on,160,0,6,,,,,,,,,8,,,33,0
4768,note_on,160,0,5,,,,,,,,,6,,,45,0
4768,note_on,160,0,4,,,,,,,,,4,,,61,0
4798,note_on,46,0,1,,,,,,,,,11,,,78,0
4798,note_on,46,0,2,,,,,,,,,0,,,78,0
4798,note_on,46,0,3,,,,,,,,,3,,,78,0
4800,note_on,2,0,1,,,,,,,,,11,,,76,127
4800,note_on,2,0,3,,,,,,,,,3,,,76,127
4800,note_on,2,0,2,,,,,,,,,0,,,76,127
4846,note_on,46,0,2,,,,,,,,,0,,,76,0
4846,note_on,46,0,3,,,,,,,,,3,,,76,0
4846,note_on,46,0,1,,,,,,,,,11,,,76,0
4848,note_on,2,0,2,,,,,,,,,0,,,74,127
4848,note_on,2,0,1,,,,,,,,,11,,,74,127
4848,note_on,2,0,3,,,,,,,,,3,,,74,127
4894,note_on,46,0,2,,,,,,,,,0,,,74,0
4894,note_on,46,0,1,,,,,,,,,11,,,74,0
4894,note_on,46,0,3,,,,,,,,,3,,,74,0
4896,note_on,2,0,2,,,,,,,,,0,,,73,127
4896,note_on,2,0,1,,,,,,,,,11,,,73,127
4896,note_on,2,0,3,,,,,,,,,3,,,73,127
4942,note_on,46,0,1,,,,,,,,,11,,,73,0
4942,note_on,46,0,3,,,,,,,,,3,,,73,0
4942,note_on,46,0,2,,,,,,,,,0,,,73,0
4944,note_on,2,0,1,,,,,,,,,11,,,71,127
4944,note_on,2,0,2,,,,,,,,,0,,,71,127
4944,note_on,2,0,3,,,,,,,,,3,,,71,127
4990,note_on,46,0,2,,,,,,,,,0,,,71,0
4990,note_on,46,0,1,,,,,,,,,11,,,71,0
4990,note_on,46,0,3,,,,,,,,,3,,,71,0
4992,note_on,2,0,1,,,,,,,,,11,,,69,127
4992,note_on,224,0,6,,,,,,,,,8,,,45,92
4992,note_on,224,0,5,,,,,,,,,6,,,57,92
4992,note_on,2,0,3,,,,,,,,,3,,,69,127
4992,note_on,224,0,4,,,,,,,,,4,,,69,92
4992,note_on,2,0,2,,,,,,,,,0,,,69,127
5086,note_on,94,0,4,,,,,,,,,4,,,69,0
5086,note_on,94,0,2,,,,,,,,,0,,,69,0
5086,note_on,94,0,1,,,,,,,,,11,,,69,0
5086,note_on,94,0,3,,,,,,,,,3,,,69,0
5086,note_on,94,0,5,,,,,,,,,6,,,57,0
5086,note_on,94,0,6,,,,,,,,,8,,,45,0
5088,note_on,2,0,2,,,,,,,,,0,,,64,127
5088,note_on,2,0,6,,,,,,,,,8,,,40,92
5088,note_on,2,0,3,,,,,,,,,3,,,64,127
5088,note_on,2,0,5,,,,,,,,,6,,,52,92
5088,note_on,2,0,4,,,,,,,,,4,,,64,92
5088,note_on,2,0,1,,,,,,,,,11,,,64,127
5182,note_on,94,0,4,,,,,,,,,4,,,64,0
5182,note_on,94,0,6,,,,,,,,,8,,,40,0
5182,note_on,94,0,5,,,,,,,,,6,,,52,0
5182,note_on,94,0,2,,,,,,,,,0,,,64,0
5182,note_on,94,0,3,,,,,,,,,3,,,64,0
5182,note_on,94,0,1,,,,,,,,,11,,,64,0
5184,note_on,2,0,3,,,,,,,,,3,,,57,127
5184,note_on,2,0,4,,,,,,,,,4,,,57,92
5184,note_on,2,0,2,,,,,,,,,0,,,57,127
5184,note_on,2,0,1,,,,,,,,,11,,,57,127
5184,note_on,2,0,5,,,,,,,,,6,,,45,92
5184,note_on,2,0,6,,,,,,,,,8,,,33,92
5344,note_on,160,0,6,,,,,,,,,8,,,33,0
5344,note_on,160,0,5,,,,,,,,,6,,,45,0
5344,note_on,160,0,2,,,,,,,,,0,,,57,0
5344,note_on,160,0,3,,,,,,,,,3,,,57,0
5344,note_on,160,0,1,,,,,,,,,11,,,57,0
5344,note_on,160,0,4,,,,,,,,,4,,,57,0
5376,note_on,32,0,1,,,,,,,,,11,,,81,127
5376,note_on,32,0,4,,,,,,,,,4,,,61,92
5376,note_on,32,0,5,,,,,,,,,6,,,45,92
5376,note_on,32,0,2,,,,,,,,,0,,,81,127
5376,note_on,32,0,6,,,,,,,,,8,,,33,92
5376,note_on,32,0,3,,,,,,,,,3,,,81,127
5470,note_on,94,0,1,,,,,,,,,11,,,81,0
5470,note_on,94,0,2,,,,,,,,,0,,,81,0
5470,note_on,94,0,3,,,,,,,,,3,,,81,0
5472,note_on,2,0,2,,,,,,,,,0,,,80,127
5472,note_on,2,0,3,,,,,,,,,3,,,80,127
5472,note_on,2,0,1,,,,,,,,,11,,,80,127
5518,note_on,46,0,2,,,,,,,,,0,,,80,0
5518,note_on,46,0,1,,,,,,,,,11,,,80,0
5518,note_on,46,0,3,,,,,,,,,3,,,80,0
5520,note_on,2,0,1,,,,,,,,,11,,,78,127
5520,note_on,2,0,2,,,,,,,,,0,,,78,127
5520,note_on,2,0,3,,,,,,,,,3,,,78,127
5536,note_on,160,0,5,,,,,,,,,6,,,45,0
5536,note_on,160,0,4,,,,,,,,,4,,,61,0
5536,note_on,160,0,6,,,,,,,,,8,,,33,0
5566,note_on,46,0,2,,,,,,,,,0,,,78,0
5566,note_on,46,0,1,,,,,,,,,11,,,78,0
5566,note_on,46,0,3,,,,,,,,,3,,,78,0
5568,note_on,2,0,3,,,,,,,,,3,,,76,127
5568,note_on,2,0,2,,,,,,,,,0,,,76,127
5568,note_on,2,0,1,,,,,,,,,11,,,76,127
5614,note_on,46,0,3,,,,,,,,,3,,,76,0
5614,note_on,46,0,1,,,,,,,,,11,,,76,0
5614,note_on,46,0,2,,,,,,,,,0,,,76,0
5616,note_on,2,0,1,,,,,,,,,11,,,74,127
5616,note_on,2,0,3,,,,,,,,,3,,,74,127
5616,note_on,2,0,2,,,,,,,,,0,,,74,127
5662,note_on,46,0,1,,,,,,,,,11,,,74,0
5662,note_on,46,0,2,,,,,,,,,0,,,74,0
5662,note_on,46,0,3,,,,,,,,,3,,,74,0
5664,note_on,2,0,3,,,,,,,,,3,,,73,127
5664,note_on,2,0,2,,,,,,,,,0,,,73,127
5664,note_on,2,0,1,,,,,,,,,11,,,73,127
5710,note_on,46,0,2,,,,,,,,,0,,,73,0
5710,note_on,46,0,1,,,,,,,,,11,,,73,0
5710,note_on,46,0,3,,,,,,,,,3,,,73,0
5712,note_on,2,0,2,,,,,,,,,0,,,71,127
5712,note_on,2,0,1,,,,,,,,,11,,,71,127
5712,note_on,2,0,3,,,,,,,,,3,,,71,127
5758,note_on,46,0,1,,,,,,,,,11,,,71,0
5758,note_on,46,0,3,,,,,,,,,3,,,71,0
5758,note_on,46,0,2,,,,,,,,,0,,,71,0
5760,note_on,224,0,5,,,,,,,,,6,,,57,92
5760,note_on,2,0,1,,,,,,,,,11,,,69,127
5760,note_on,224,0,4,,,,,,,,,4,,,69,92
5760,note_on,2,0,3,,,,,,,,,3,,,69,127
5760,note_on,224,0,6,,,,,,,,,8,,,45,92
5760,note_on,2,0,2,,,,,,,,,0,,,69,127
5854,note_on,94,0,2,,,,,,,,,0,,,69,0
5854,note_on,94,0,1,,,,,,,,,11,,,69,0
5854,note_on,94,0,4,,,,,,,,,4,,,69,0
5854,note_on,94,0,5,,,,,,,,,6,,,57,0
5854,note_on,94,0,6,,,,,,,,,8,,,45,0
5854,note_on,94,0,3,,,,,,,,,3,,,69,0
5856,note_on,2,0,1,,,,,,,,,11,,,64,127
5856,note_on,2,0,4,,,,,,,,,4,,,64,92
5856,note_on,2,0,6,,,,,,,,,8,,,40,92
5856,note_on,2,0,3,,,,,,,,,3,,,64,127
5856,note_on,2,0,5,,,,,,,,,6,,,52,92
5856,note_on,2,0,2,,,,,,,,,0,,,64,127
5950,note_on,94,0,6,,,,,,,,,8,,,40,0
5950,note_on,94,0,2,,,,,,,,,0,,,64,0
5950,note_on,94,0,5,,,,,,,,,6,,,52,0
5950,note_on,94,0,4,,,,,,,,,4,,,64,0
5950,note_on,94,0,1,,,,,,,,,11,,,64,0
5950,note_on,94,0,3,,,,,,,,,3,,,64,0
5952,note_on,2,0,2,,,,,,,,,0,,,57,127
5952,note_on,2,0,3,,,,,,,,,3,,,57,127
5952,note_on,2,0,1,,,,,,,,,11,,,57,127
5952,note_on,2,0,5,,,,,,,,,6,,,45,92
5952,note_on,2,0,4,,,,,,,,,4,,,57,92
5952,note_on,2,0,6,,,,,,,,,8,,,33,92
6112,note_on,160,0,5,,,,,,,,,6,,,45,0
6112,note_on,160,0,1,,,,,,,,,11,,,57,0
6112,note_on,160,0,4,,,,,,,,,4,,,57,0
6112,note_on,160,0,6,,,,,,,,,8,,,33,0
6112,note_on,160,0,2,,,,,,,,,0,,,57,0
6112,note_on,160,0,3,,,,,,,,,3,,,57,0
6144,note_on,32,0,1,,,,,,,,,11,,,80,127
6144,note_on,32,0,5,,,,,,,,,6,,,52,92
6144,note_on,32,0,4,,,,,,,,,4,,,71,92
6144,note_on,32,0,6,,,,,,,,,8,,,40,92
6144,note_on,32,0,2,,,,,,,,,0,,,80,127
6144,note_on,32,0,3,,,,,,,,,3,,,80,127
6190,note_on,46,0,3,,,,,,,,,3,,,80,0
6190,note_on,46,0,2,,,,,,,,,0,,,80,0
6190,note_on,46,0,1,,,,,,,,,11,,,80,0
6192,note_on,2,0,2,,,,,,,,,0,,,76,127
6192,note_on,2,0,3,,,,,,,,,3,,,76,127
6192,note_on,2,0,1,,,,,,,,,11,,,76,127
6238,note_on,94,0,5,,,,,,,,,6,,,52,0
6238,note_on,94,0,6,,,,,,,,,8,,,40,0
6238,note_on,46,0,3,,,,,,,,,3,,,76,0
6238,note_on,46,0,1,,,,,,,,,11,,,76,0
6238,note_on,46,0,2,,,,,,,,,0,,,76,0
6240,note_on,2,0,2,,,,,,,,,0,,,71,127
6240,note_on,2,0,5,,,,,,,,,6,,,52,92
6240,note_on,2,0,3,,,,,,,,,3,,,71,127
6240,note_on,2,0,6,,,,,,,,,8,,,40,92
6240,note_on,2,0,1,,,,,,,,,11,,,71,127
6286,note_on,46,0,1,,,,,,,,,11,,,71,0
6286,note_on,46,0,3,,,,,,,,,3,,,71,0
6286,note_on,46,0,2,,,,,,,,,0,,,71,0
6288,note_on,2,0,1,,,,,,,,,11,,,80,127
6288,note_on,2,0,3,,,,,,,,,3,,,80,127
6288,note_on,2,0,2,,,,,,,,,0,,,80,127
6304,note_on,160,0,4,,,,,,,,,4,,,71,0
6334,note_on,94,0,5,,,,,,,,,6,,,52,0
6334,note_on,46,0,1,,,,,,,,,11,,,80,0
6334,note_on,94,0,6,,,,,,,,,8,,,40,0
6334,note_on,46,0,3,,,,,,,,,3,,,80,0
6334,note_on,46,0,2,,,,,,,,,0,,,80,0
6336,note_on,2,0,6,,,,,,,,,8,,,39,92
6336,note_on,32,0,4,,,,,,,,,4,,,71,92
6336,note_on,2,0,1,,,,,,,,,11,,,81,127
6336,note_on,2,0,2,,,,,,,,,0,,,81,127
6336,note_on,2,0,3,,,,,,,,,3,,,81,127
6336,note_on,2,0,5,,,,,,,,,6,,,51,92
6382,note_on,46,0,2,,,,,,,,,0,,,81,0
6382,note_on,46,0,1,,,,,,,,,11,,,81,0
6382,note_on,46,0,3,,,,,,,,,3,,,81,0
6384,note_on,2,0,1,,,,,,,,,11,,,78,127
6384,note_on,2,0,2,,,,,,,,,0,,,78,127
6384,note_on,2,0,3,,,,,,,,,3,,,78,127
6430,note_on,94,0,5,,,,,,,,,6,,,51,0
6430,note_on,46,0,1,,,,,,,,,11,,,78,0
6430,note_on,46,0,3,,,,,,,,,3,,,78,0
6430,note_on,94,0,6,,,,,,,,,8,,,39,0
6430,note_on,46,0,2,,,,,,,,,0,,,78,0
6432,note_on,2,0,1,,,,,,,,,11,,,71,127
6432,note_on,2,0,6,,,,,,,,,8,,,39,92
6432,note_on,2,0,3,,,,,,,,,3,,,71,127
6432,note_on,2,0,5,,,,,,,,,6,,,51,92
6432,note_on,2,0,2,,,,,,,,,0,,,71,127
6478,note_on,46,0,2,,,,,,,,,0,,,71,0
6478,note_on,46,0,1,,,,,,,,,11,,,71,0
6478,note_on,46,0,3,,,,,,,,,3,,,71,0
6480,note_on,2,0,2,,,,,,,,,0,,,81,127
6480,note_on,2,0,3,,,,,,,,,3,,,81,127
6480,note_on,2,0,1,,,,,,,,,11,,,81,127
6496,note_on,160,0,4,,,,,,,,,4,,,71,0
6526,note_on,94,0,5,,,,,,,,,6,,,51,0
6526,note_on,46,0,2,,,,,,,,,0,,,81,0
6526,note_on,46,0,3,,,,,,,,,3,,,81,0
6526,note_on,94,0,6,,,,,,,,,8,,,39,0
6526,note_on,46,0,1,,,,,,,,,11,,,81,0
6528,note_on,2,0,2,,,,,,,,,0,,,80,127
6528,note_on,2,0,6,,,,,,,,,8,,,40,92
6528,note_on,32,0,4,,,,,,,,,4,,,71,92
6528,note_on,2,0,1,,,,,,,,,11,,,80,127
6528,note_on,2,0,3,,,,,,,,,3,,,80,127
6528,note_on,2,0,5,,,,,,,,,6,,,52,92
6574,note_on,46,0,1,,,,,,,,,11,,,80,0
6574,note_on,46,0,3,,,,,,,,,3,,,80,0
6574,note_on,46,0,2,,,,,,,,,0,,,80,0
6576,note_on,2,0,1,,,,,,,,,11,,,76,127
6576,note_on,2,0,3,,,,,,,,,3,,,76,127
6576,note_on,2,0,2,,,,,,,,,0,,,76,127
6622,note_on,46,0,1,,,,,,,,,11,,,76,0
6622,note_on,46,0,3,,,,,,,,,3,,,76,0
6622,note_on,94,0,6,,,,,,,,,8,,,40,0
6622,note_on,46,0,2,,,,,,,,,0,,,76,0
6622,note_on,94,0,5,,,,,,,,,6,,,52,0
6624,note_on,2,0,5,,,,,,,,,6,,,52,92
6624,note_on,2,0,6,,,,,,,,,8,,,40,92
6624,note_on,2,0,3,,,,,,,,,3,,,71,127
6624,note_on,2,0,2,,,,,,,,,0,,,71,127
6624,note_on,2,0,1,,,,,,,,,11,,,71,127
6670,note_on,46,0,1,,,,,,,,,11,,,71,0
6670,note_on,46,0,2,,,,,,,,,0,,,71,0
6670,note_on,46,0,3,,,,,,,,,3,,,71,0
6672,note_on,2,0,3,,,,,,,,,3,,,80,127
6672,note_on,2,0,1,,,,,,,,,11,,,80,127
6672,note_on,2,0,2,,,,,,,,,0,,,80,127
6688,note_on,160,0,4,,,,,,,,,4,,,71,0
6718,note_on,94,0,5,,,,,,,,,6,,,52,0
6718,note_on,46,0,3,,,,,,,,,3,,,80,0
6718,note_on,94,0,6,,,,,,,,,8,,,40,0
6718,note_on,46,0,2,,,,,,,,,0,,,80,0
6718,note_on,46,0,1,,,,,,,,,11,,,80,0
6720,note_on,2,0,2,,,,,,,,,0,,,81,127
6720,note_on,2,0,3,,,,,,,,,3,,,81,127
6720,note_on,2,0,6,,,,,,,,,8,,,39,92
6720,note_on,2,0,5,,,,,,,,,6,,,51,92
6720,note_on,32,0,4,,,,,,,,,4,,,71,92
6720,note_on,2,0,1,,,,,,,,,11,,,81,127
6766,note_on,46,0,1,,,,,,,,,11,,,81,0
6766,note_on,46,0,2,,,,,,,,,0,,,81,0
6766,note_on,46,0,3,,,,,,,,,3,,,81,0
6768,note_on,2,0,3,,,,,,,,,3,,,78,127
6768,note_on,2,0,1,,,,,,,,,11,,,78,127
6768,note_on,2,0,2,,,,,,,,,0,,,78,127
6814,note_on,46,0,1,,,,,,,,,11,,,78,0
6814,note_on,94,0,5,,,,,,,,,6,,,51,0
6814,note_on,94,0,6,,,,,,,,,8,,,39,0
6814,note_on,46,0,2,,,,,,,,,0,,,78,0
6814,note_on,46,0,3,,,,,,,,,3,,,78,0
6816,note_on,2,0,5,,,,,,,,,6,,,51,92
6816,note_on,2,0,6,,,,,,,,,8,,,39,92
6816,note_on,2,0,2,,,,,,,,,0,,,71,127
6816,note_on,2,0,1,,,,,,,,,11,,,71,127
6816,note_on,2,0,3,,,,,,,,,3,,,71,127
6862,note_on,46,0,2,,,,,,,,,0,,,71,0
6862,note_on,46,0,1,,,,,,,,,11,,,71,0
6862,note_on,46,0,3,,,,,,,,,3,,,71,0
6864,note_on,2,0,3,,,,,,,,,3,,,81,127
6864,note_on,2,0,1,,,,,,,,,11,,,81,127
6864,note_on,2,0,2,,,,,,,,,0,,,81,127
6880,note_on,160,0,4,,,,,,,,,4,,,71,0
6910,note_on,46,0,2,,,,,,,,,0,,,81,0
6910,note_on,46,0,1,,,,,,,,,11,,,81,0
6910,note_on,94,0,5,,,,,,,,,6,,,51,0
6910,note_on,46,0,3,,,,,,,,,3,,,81,0
6910,note_on,94,0,6,,,,,,,,,8,,,39,0
6912,note_on,2,0,6,,,,,,,,,8,,,40,92
6912,note_on,2,0,1,,,,,,,,,11,,,80,127
6912,note_on,32,0,4,,,,,,,,,4,,,71,92
6912,note_on,2,0,5,,,,,,,,,6,,,52,92
6912,note_on,2,0,2,,,,,,,,,0,,,80,127
6912,note_on,2,0,3,,,,,,,,,3,,,80,127
6958,note_on,46,0,1,,,,,,,,,11,,,80,0
6958,note_on,46,0,2,,,,,,,,,0,,,80,0
6958,note_on,46,0,3,,,,,,,,,3,,,80,0
6960,note_on,2,0,3,,,,,,,,,3,,,76,127
6960,note_on,2,0,1,,,,,,,,,11,,,76,127
6960,note_on,2,0,2,,,,,,,,,0,,,76,127
7006,note_on,94,0,5,,,,,,,,,6,,,52,0
7006,note_on,46,0,3,,,,,,,,,3,,,76,0
7006,note_on,46,0,2,,,,,,,,,0,,,76,0
7006,note_on,94,0,6,,,,,,,,,8,,,40,0
7006,note_on,46,0,1,,,,,,,,,11,,,76,0
7008,note_on,2,0,2,,,,,,,,,0,,,71,127
7008,note_on,2,0,5,,,,,,,,,6,,,52,92
7008,note_on,2,0,3,,,,,,,,,3,,,71,127
7008,note_on,2,0,1,,,,,,,,,11,,,71,127
7008,note_on,2,0,6,,,,,,,,,8,,,40,92
7054,note_on,46,0,1,,,,,,,,,11,,,71,0
7054,note_on,46,0,3,,,,,,,,,3,,,71,0
7054,note_on,46,0,2,,,,,,,,,0,,,71,0
7056,note_on,2,0,2,,,,,,,,,0,,,80,127
7056,note_on,2,0,1,,,,,,,,,11,,,80,127
7056,note_on,2,0,3,,,,,,,,,3,,,80,127
7072,note_on,160,0,4,,,,,,,,,4,,,71,0
7102,note_on,46,0,2,,,,,,,,,0,,,80,0
7102,note_on,46,0,1,,,,,,,,,11,,,80,0
7102,note_on,94,0,5,,,,,,,,,6,,,52,0
7102,note_on,46,0,3,,,,,,,,,3,,,80,0
7102,note_on,94,0,6,,,,,,,,,8,,,40,0
7104,note_on,32,0,4,,,,,,,,,4,,,71,92
7104,note_on,2,0,3,,,,,,,,,3,,,81,127
7104,note_on,2,0,1,,,,,,,,,11,,,81,127
7104,note_on,2,0,5,,,,,,,,,6,,,51,92
7104,note_on,2,0,2,,,,,,,,,0,,,81,127
7104,note_on,2,0,6,,,,,,,,,8,,,39,92
7150,note_on,46,0,2,,,,,,,,,0,,,81,0
7150,note_on,46,0,3,,,,,,,,,3,,,81,0
7150,note_on,46,0,1,,,,,,,,,11,,,81,0
7152,note_on,2,0,3,,,,,,,,,3,,,78,127
7152,note_on,2,0,2,,,,,,,,,0,,,78,127
7152,note_on,2,0,1,,,,,,,,,11,,,78,127
7198,note_on,46,0,3,,,,,,,,,3,,,78,0
7198,note_on,46,0,2,,,,,,,,,0,,,78,0
7198,note_on,94,0,6,,,,,,,,,8,,,39,0
7198,note_on,46,0,1,,,,,,,,,11,,,78,0
7198,note_on,94,0,5,,,,,,,,,6,,,51,0
7200,note_on,2,0,1,,,,,,,,,11,,,71,127
7200,note_on,2,0,5,,,,,,,,,6,,,51,92
7200,note_on,2,0,3,,,,,,,,,3,,,71,127
7200,note_on,2,0,2,,,,,,,,,0,,,71,127
7200,note_on,2,0,6,,,,,,,,,8,,,39,92
7246,note_on,46,0,1,,,,,,,,,11,,,71,0
7246,note_on,46,0,2,,,,,,,,,0,,,71,0
7246,note_on,46,0,3,,,,,,,,,3,,,71,0
7248,note_on,2,0,1,,,,,,,,,11,,,81,127
7248,note_on,2,0,2,,,,,,,,,0,,,81,127
7248,note_on,2,0,3,,,,,,,,,3,,,81,127
7264,note_on,160,0,4,,,,,,,,,4,,,71,0
7294,note_on,94,0,5,,,,,,,,,6,,,51,0
7294,note_on,94,0,6,,,,,,,,,8,,,39,0
7294,note_on,46,0,2,,,,,,,,,0,,,81,0
7294,note_on,46,0,1,,,,,,,,,11,,,81,0
7294,note_on,46,0,3,,,,,,,,,3,,,81,0
7296,note_on,2,0,2,,,,,,,,,0,,,80,127
7296,note_on,2,0,3,,,,,,,,,3,,,80,127
7296,note_on,2,0,1,,,,,,,,,11,,,80,127
7296,note_on,32,0,4,,,,,,,,,4,,,71,92
7296,note_on,2,0,6,,,,,,,,,8,,,40,92
7296,note_on,2,0,5,,,,,,,,,6,,,52,92
7390,note_on,94,0,6,,,,,,,,,8,,,40,0
7390,note_on,94,0,1,,,,,,,,,11,,,80,0
7390,note_on,94,0,4,,,,,,,,,4,,,71,0
7390,note_on,94,0,5,,,,,,,,,6,,,52,0
7390,note_on,94,0,3,,,,,,,,,3,,,80,0
7390,note_on,94,0,2,,,,,,,,,0,,,80,0
7392,note_on,2,0,4,,,,,,,,,4,,,68,92
7392,note_on,2,0,1,,,,,,,,,11,,,76,127
7392,note_on,2,0,3,,,,,,,,,3,,,76,127
7392,note_on,2,0,6,,,,,,,,,8,,,28,92
7392,note_on,2,0,5,,,,,,,,,6,,,40,92
7392,note_on,2,0,2,,,,,,,,,0,,,76,127
7486,note_on,94,0,4,,,,,,,,,4,,,68,0
7486,note_on,94,0,3,,,,,,,,,3,,,76,0
7486,note_on,94,0,5,,,,,,,,,6,,,40,0
7486,note_on,94,0,6,,,,,,,,,8,,,28,0
7486,note_on,94,0,1,,,,,,,,,11,,,76,0
7486,note_on,94,0,2,,,,,,,,,0,,,76,0
7680,note_on,194,0,2,,,,,,,,,0,,,81,127
7680,note_on,194,0,5,,,,,,,,,6,,,45,92
7680,note_on,194,0,6,,,,,,,,,8,,,33,92
7680,control_change,194,0,3,,,,,,,,,3,10,64,,
7680,note_on,194,0,1,,,,,,,,,11,,,81,127
7680,note_on,194,0,4,,,,,,,,,4,,,61,92
7774,note_on,94,0,4,,,,,,,,,4,,,61,0
7774,note_on,94,0,6,,,,,,,,,8,,,33,0
7774,note_on,94,0,2,,,,,,,,,0,,,81,0
7774,note_on,94,0,5,,,,,,,,,6,,,45,0
7774,note_on,94,0,1,,,,,,,,,11,,,81,0
7776,note_on,2,0,4,,,,,,,,,4,,,61,92
7776,note_on,2,0,1,,,,,,,,,11,,,80,127
7776,note_on,2,0,5,,,,,,,,,6,,,45,92
7776,note_on,2,0,6,,,,,,,,,8,,,33,92
7776,note_on,2,0,2,,,,,,,,,0,,,80,127
7822,note_on,46,0,1,,,,,,,,,11,,,80,0
7822,note_on,46,0,2,,,,,,,,,0,,,80,0
7824,note_on,2,0,1,,,,,,,,,11,,,78,127
7824,note_on,2,0,2,,,,,,,,,0,,,78,127
7870,note_on,94,0,5,,,,,,,,,6,,,45,0
7870,note_on,94,0,4,,,,,,,,,4,,,61,0
7870,note_on,46,0,2,,,,,,,,,0,,,78,0
7870,note_on,94,0,6,,,,,,,,,8,,,33,0
7870,note_on,46,0,1,,,,,,,,,11,,,78,0
7872,note_on,2,0,5,,,,,,,,,6,,,45,92
7872,note_on,2,0,1,,,,,,,,,11,,,76,127
7872,note_on,2,0,2,,,,,,,,,0,,,76,127
7872,note_on,2,0,6,,,,,,,,,8,,,33,92
7872,note_on,2,0,4,,,,,,,,,4,,,61,92
7918,note_on,46,0,1,,,,,,,,,11,,,76,0
7918,note_on,46,0,2,,,,,,,,,0,,,76,0
7920,note_on,2,0,2,,,,,,,,,0,,,74,127
7920,note_on,2,0,1,,,,,,,,,11,,,74,127
7966,note_on,94,0,6,,,,,,,,,8,,,33,0
7966,note_on,94,0,5,,,,,,,,,6,,,45,0
7966,note_on,94,0,4,,,,,,,,,4,,,61,0
7966,note_on,46,0,1,,,,,,,,,11,,,74,0
7966,note_on,46,0,2,,,,,,,,,0,,,74,0
7968,note_on,2,0,4,,,,,,,,,4,,,61,92
7968,note_on,2,0,2,,,,,,,,,0,,,73,127
7968,note_on,2,0,5,,,,,,,,,6,,,45,92
7968,note_on,2,0,6,,,,,,,,,8,,,33,92
7968,note_on,2,0,1,,,,,,,,,11,,,73,127
8014,note_on,46,0,2,,,,,,,,,0,,,73,0
8014,note_on,46,0,1,,,,,,,,,11,,,73,0
8016,note_on,2,0,2,,,,,,,,,0,,,71,127
8016,note_on,2,0,1,,,,,,,,,11,,,71,127
8062,note_on,94,0,4,,,,,,,,,4,,,61,0
8062,note_on,46,0,1,,,,,,,,,11,,,71,0
8062,note_on,94,0,5,,,,,,,,,6,,,45,0
8062,note_on,94,0,6,,,,,,,,,8,,,33,0
8062,note_on,46,0,2,,,,,,,,,0,,,71,0
8064,note_on,2,0,1,,,,,,,,,11,,,69,127
8064,note_on,2,0,5,,,,,,,,,6,,,45,92
8064,note_on,2,0,4,,,,,,,,,4,,,61,92
8064,note_on,2,0,2,,,,,,,,,0,,,69,127
8064,note_on,2,0,6,,,,,,,,,8,,,33,92
8064,note_on,384,0,3,,,,,,,,,3,,,81,127
8158,note_on,94,0,5,,,,,,,,,6,,,45,0
8158,note_on,94,0,4,,,,,,,,,4,,,61,0
8158,note_on,94,0,2,,,,,,,,,0,,,69,0
8158,note_on,94,0,1,,,,,,,,,11,,,69,0
8158,note_on,94,0,6,,,,,,,,,8,,,33,0
8158,note_on,94,0,3,,,,,,,,,3,,,81,0
8160,note_on,2,0,4,,,,,,,,,4,,,61,92
8160,note_on,2,0,2,,,,,,,,,0,,,64,127
8160,note_on,2,0,1,,,,,,,,,11,,,64,127
8160,note_on,2,0,5,,,,,,,,,6,,,45,92
8160,note_on,2,0,3,,,,,,,,,3,,,80,127
8160,note_on,2,0,6,,,,,,,,,8,,,33,92
8206,note_on,46,0,3,,,,,,,,,3,,,80,0
8208,note_on,2,0,3,,,,,,,,,3,,,78,127
8254,note_on,94,0,6,,,,,,,,,8,,,33,0
8254,note_on,94,0,4,,,,,,,,,4,,,61,0
8254,note_on,94,0,5,,,,,,,,,6,,,45,0
8254,note_on,94,0,1,,,,,,,,,11,,,64,0
8254,note_on,46,0,3,,,,,,,,,3,,,78,0
8254,note_on,94,0,2,,,,,,,,,0,,,64,0
8256,note_on,2,0,2,,,,,,,,,0,,,57,127
8256,note_on,2,0,3,,,,,,,,,3,,,76,127
8256,note_on,2,0,6,,,,,,,,,8,,,33,92
8256,note_on,2,0,4,,,,,,,,,4,,,61,92
8256,note_on,2,0,5,,,,,,,,,6,,,45,92
8256,note_on,2,0,1,,,,,,,,,11,,,57,127
8302,note_on,46,0,3,,,,,,,,,3,,,76,0
8304,note_on,2,0,3,,,,,,,,,3,,,74,127
8350,note_on,94,0,5,,,,,,,,,6,,,45,0
8350,note_on,94,0,4,,,,,,,,,4,,,61,0
8350,note_on,46,0,3,,,,,,,,,3,,,74,0
8350,note_on,94,0,6,,,,,,,,,8,,,33,0
8352,note_on,2,0,3,,,,,,,,,3,,,73,127
8352,note_on,2,0,4,,,,,,,,,4,,,61,92
8352,note_on,2,0,6,,,,,,,,,8,,,33,92
8352,note_on,2,0,5,,,,,,,,,6,,,45,92
8398,note_on,46,0,3,,,,,,,,,3,,,73,0
8400,note_on,2,0,3,,,,,,,,,3,,,71,127
8416,note_on,160,0,1,,,,,,,,,11,,,57,0
8416,note_on,160,0,2,,,,,,,,,0,,,57,0
8446,note_on,46,0,3,,,,,,,,,3,,,71,0
8446,note_on,94,0,4,,,,,,,,,4,,,61,0
8446,note_on,94,0,5,,,,,,,,,6,,,45,0
8446,note_on,94,0,6,,,,,,,,,8,,,33,0
8448,note_on,2,0,3,,,,,,,,,3,,,69,127
8448,note_on,2,0,5,,,,,,,,,6,,,45,92
8448,note_on,2,0,6,,,,,,,,,8,,,33,92
8448,note_on,32,0,1,,,,,,,,,11,,,73,127
8448,note_on,2,0,4,,,,,,,,,4,,,64,92
8448,note_on,32,0,2,,,,,,,,,0,,,73,127
8494,note_on,46,0,1,,,,,,,,,11,,,73,0
8494,note_on,46,0,2,,,,,,,,,0,,,73,0
8496,note_on,2,0,1,,,,,,,,,11,,,74,127
8496,note_on,2,0,2,,,,,,,,,0,,,74,127
8542,note_on,46,0,1,,,,,,,,,11,,,74,0
8542,note_on,46,0,2,,,,,,,,,0,,,74,0
8542,note_on,94,0,6,,,,,,,,,8,,,33,0
8542,note_on,94,0,5,,,,,,,,,6,,,45,0
8542,note_on,94,0,4,,,,,,,,,4,,,64,0
8542,note_on,94,0,3,,,,,,,,,3,,,69,0
8544,note_on,2,0,6,,,,,,,,,8,,,33,92
8544,note_on,2,0,5,,,,,,,,,6,,,45,92
8544,note_on,2,0,1,,,,,,,,,11,,,76,127
8544,note_on,2,0,3,,,,,,,,,3,,,64,127
8544,note_on,2,0,4,,,,,,,,,4,,,64,92
8544,note_on,2,0,2,,,,,,,,,0,,,76,127
8590,note_on,46,0,1,,,,,,,,,11,,,76,0
8590,note_on,46,0,2,,,,,,,,,0,,,76,0
8592,note_on,2,0,1,,,,,,,,,11,,,78,127
8592,note_on,2,0,2,,,,,,,,,0,,,78,127
8638,note_on,94,0,4,,,,,,,,,4,,,64,0
8638,note_on,46,0,2,,,,,,,,,0,,,78,0
8638,note_on,94,0,3,,,,,,,,,3,,,64,0
8638,note_on,46,0,1,,,,,,,,,11,,,78,0
8638,note_on,94,0,5,,,,,,,,,6,,,45,0
8638,note_on,94,0,6,,,,,,,,,8,,,33,0
8640,note_on,2,0,3,,,,,,,,,3,,,57,127
8640,note_on,2,0,5,,,,,,,,,6,,,45,92
8640,note_on,2,0,2,,,,,,,,,0,,,79,127
8640,note_on,2,0,4,,,,,,,,,4,,,61,92
8640,note_on,2,0,6,,,,,,,,,8,,,33,92
8640,note_on,2,0,1,,,,,,,,,11,,,79,127
8734,note_on,94,0,6,,,,,,,,,8,,,33,0
8734,note_on,94,0,5,,,,,,,,,6,,,45,0
8734,note_on,94,0,4,,,,,,,,,4,,,61,0
8736,note_on,2,0,4,,,,,,,,,4,,,57,92
8736,note_on,2,0,6,,,,,,,,,8,,,33,92
8736,note_on,2,0,5,,,,,,,,,6,,,45,92
8800,note_on,160,0,2,,,,,,,,,0,,,79,0
8800,note_on,160,0,3,,,,,,,,,3,,,57,0
8800,note_on,160,0,1,,,,,,,,,11,,,79,0
8830,note_on,94,0,4,,,,,,,,,4,,,57,0
8830,note_on,94,0,6,,,,,,,,,8,,,33,0
8830,note_on,94,0,5,,,,,,,,,6,,,45,0
8832,note_on,32,0,1,,,,,,,,,11,,,78,127
8832,note_on,2,0,4,,,,,,,,,4,,,57,92
8832,note_on,2,0,6,,,,,,,,,8,,,38,92
8832,note_on,32,0,2,,,,,,,,,0,,,78,127
8832,note_on,32,0,3,,,,,,,,,3,,,74,127
8832,note_on,2,0,5,,,,,,,,,6,,,50,92
8878,note_on,46,0,3,,,,,,,,,3,,,74,0
8880,note_on,2,0,3,,,,,,,,,3,,,76,127
8926,note_on,94,0,2,,,,,,,,,0,,,78,0
8926,note_on,94,0,1,,,,,,,,,11,,,78,0
8926,note_on,46,0,3,,,,,,,,,3,,,76,0
8926,note_on,94,0,4,,,,,,,,,4,,,57,0
8926,note_on,94,0,6,,,,,,,,,8,,,38,0
8926,note_on,94,0,5,,,,,,,,,6,,,50,0
8928,note_on,2,0,3,,,,,,,,,3,,,78,127
8928,note_on,2,0,2,,,,,,,,,0,,,66,127
8928,note_on,2,0,5,,,,,,,,,6,,,50,92
8928,note_on,2,0,1,,,,,,,,,11,,,66,127
8928,note_on,2,0,4,,,,,,,,,4,,,57,92
8928,note_on,2,0,6,,,,,,,,,8,,,38,92
8974,note_on,46,0,3,,,,,,,,,3,,,78,0
8976,note_on,2,0,3,,,,,,,,,3,,,79,127
9022,note_on,94,0,5,,,,,,,,,6,,,50,0
9022,note_on,94,0,1,,,,,,,,,11,,,66,0
9022,note_on,46,0,3,,,,,,,,,3,,,79,0
9022,note_on,94,0,6,,,,,,,,,8,,,38,0
9022,note_on,94,0,4,,,,,,,,,4,,,57,0
9022,note_on,94,0,2,,,,,,,,,0,,,66,0
9024,note_on,2,0,4,,,,,,,,,4,,,57,92
9024,note_on,2,0,6,,,,,,,,,8,,,38,92
9024,note_on,2,0,3,,,,,,,,,3,,,81,127
9024,note_on,2,0,5,,,,,,,,,6,,,50,92
9118,note_on,94,0,4,,,,,,,,,4,,,57,0
9118,note_on,94,0,5,,,,,,,,,6,,,50,0
9118,note_on,94,0,6,,,,,,,,,8,,,38,0
9120,note_on,2,0,6,,,,,,,,,8,,,38,92
9120,note_on,2,0,5,,,,,,,,,6,,,50,92
9120,note_on,2,0,4,,,,,,,,,4,,,57,92
9184,note_on,160,0,3,,,,,,,,,3,,,81,0
9214,note_on,94,0,4,,,,,,,,,4,,,57,0
9214,note_on,94,0,6,,,,,,,,,8,,,38,0
9214,note_on,94,0,5,,,,,,,,,6,,,50,0
9216,note_on,2,0,6,,,,,,,,,8,,,35,92
9216,note_on,2,0,4,,,,,,,,,4,,,63,92
9216,note_on,194,0,1,,,,,,,,,11,,,83,127
9216,note_on,194,0,2,,,,,,,,,0,,,83,127
9216,note_on,2,0,5,,,,,,,,,6,,,47,92
9310,note_on,94,0,5,,,,,,,,,6,,,47,0
9310,note_on,94,0,1,,,,,,,,,11,,,83,0
9310,note_on,94,0,6,,,,,,,,,8,,,35,0
9310,note_on,94,0,2,,,,,,,,,0,,,83,0
9310,note_on,94,0,4,,,,,,,,,4,,,63,0
9312,note_on,2,0,4,,,,,,,,,4,,,63,92
9312,note_on,2,0,2,,,,,,,,,0,,,81,127
9312,note_on,2,0,5,,,,,,,,,6,,,47,92
9312,note_on,2,0,6,,,,,,,,,8,,,35,92
9312,note_on,2,0,1,,,,,,,,,11,,,81,127
9358,note_on,46,0,2,,,,,,,,,0,,,81,0
9358,note_on,46,0,1,,,,,,,,,11,,,81,0
9360,note_on,2,0,1,,,,,,,,,11,,,80,127
9360,note_on,2,0,2,,,,,,,,,0,,,80,127
9406,note_on,94,0,6,,,,,,,,,8,,,35,0
9406,note_on,94,0,4,,,,,,,,,4,,,63,0
9406,note_on,94,0,5,,,,,,,,,6,,,47,0
9406,note_on,46,0,1,,,,,,,,,11,,,80,0
9406,note_on,46,0,2,,,,,,,,,0,,,80,0
9408,note_on,2,0,6,,,,,,,,,8,,,35,92
9408,note_on,2,0,2,,,,,,,,,0,,,78,127
9408,note_on,2,0,1,,,,,,,,,11,,,78,127
9408,note_on,2,0,5,,,,,,,,,6,,,47,92
9408,note_on,2,0,4,,,,,,,,,4,,,63,92
9454,note_on,46,0,2,,,,,,,,,0,,,78,0
9454,note_on,46,0,1,,,,,,,,,11,,,78,0
9456,note_on,2,0,2,,,,,,,,,0,,,76,127
9456,note_on,2,0,1,,,,,,,,,11,,,76,127
9502,note_on,94,0,5,,,,,,,,,6,,,47,0
9502,note_on,94,0,6,,,,,,,,,8,,,35,0
9502,note_on,46,0,1,,,,,,,,,11,,,76,0
9502,note_on,46,0,2,,,,,,,,,0,,,76,0
9502,note_on,94,0,4,,,,,,,,,4,,,63,0
9504,note_on,2,0,6,,,,,,,,,8,,,35,92
9504,note_on,2,0,2,,,,,,,,,0,,,75,127
9504,note_on,2,0,4,,,,,,,,,4,,,63,92
9504,note_on,2,0,1,,,,,,,,,11,,,75,127
9504,note_on,2,0,5,,,,,,,,,6,,,47,92
9550,note_on,46,0,2,,,,,,,,,0,,,75,0
9550,note_on,46,0,1,,,,,,,,,11,,,75,0
9552,note_on,2,0,2,,,,,,,,,0,,,73,127
9552,note_on,2,0,1,,,,,,,,,11,,,73,127
9598,note_on,94,0,5,,,,,,,,,6,,,47,0
9598,note_on,94,0,4,,,,,,,,,4,,,63,0
9598,note_on,46,0,1,,,,,,,,,11,,,73,0
9598,note_on,94,0,6,,,,,,,,,8,,,35,0
9598,note_on,46,0,2,,,,,,,,,0,,,73,0
9600,note_on,2,0,1,,,,,,,,,11,,,71,127
9600,note_on,2,0,4,,,,,,,,,4,,,63,92
9600,note_on,2,0,5,,,,,,,,,6,,,47,92
9600,note_on,416,0,3,,,,,,,,,3,,,83,127
9600,note_on,2,0,2,,,,,,,,,0,,,71,127
9600,note_on,2,0,6,,,,,,,,,8,,,35,92
9694,note_on,94,0,5,,,,,,,,,6,,,47,0
9694,note_on,94,0,4,,,,,,,,,4,,,63,0
9694,note_on,94,0,2,,,,,,,,,0,,,71,0
9694,note_on,94,0,3,,,,,,,,,3,,,83,0
9694,note_on,94,0,6,,,,,,,,,8,,,35,0
9694,note_on,94,0,1,,,,,,,,,11,,,71,0
9696,note_on,2,0,1,,,,,,,,,11,,,66,127
9696,note_on,2,0,3,,,,,,,,,3,,,81,127
9696,note_on,2,0,4,,,,,,,,,4,,,63,92
9696,note_on,2,0,5,,,,,,,,,6,,,47,92
9696,note_on,2,0,2,,,,,,,,,0,,,66,127
9696,note_on,2,0,6,,,,,,,,,8,,,35,92
9742,note_on,46,0,3,,,,,,,,,3,,,81,0
9744,note_on,2,0,3,,,,,,,,,3,,,80,127
9790,note_on,94,0,6,,,,,,,,,8,,,35,0
9790,note_on,94,0,5,,,,,,,,,6,,,47,0
9790,note_on,94,0,1,,,,,,,,,11,,,66,0
9790,note_on,94,0,4,,,,,,,,,4,,,63,0
9790,note_on,94,0,2,,,,,,,,,0,,,66,0
9790,note_on,46,0,3,,,,,,,,,3,,,80,0
9792,note_on,2,0,3,,,,,,,,,3,,,78,127
9792,note_on,2,0,1,,,,,,,,,11,,,59,127
9792,note_on,2,0,6,,,,,,,,,8,,,35,92
9792,note_on,2,0,5,,,,,,,,,6,,,47,92
9792,note_on,2,0,4,,,,,,,,,4,,,63,92
9792,note_on,2,0,2,,,,,,,,,0,,,59,127
9838,note_on,46,0,3,,,,,,,,,3,,,78,0
9840,note_on,2,0,3,,,,,,,,,3,,,76,127
9886,note_on,94,0,4,,,,,,,,,4,,,63,0
9886,note_on,94,0,5,,,,,,,,,6,,,47,0
9886,note_on,46,0,3,,,,,,,,,3,,,76,0
9886,note_on,94,0,6,,,,,,,,,8,,,35,0
9888,note_on,2,0,4,,,,,,,,,4,,,63,92
9888,note_on,2,0,5,,,,,,,,,6,,,47,92
9888,note_on,2,0,6,,,,,,,,,8,,,35,92
9888,note_on,2,0,3,,,,,,,,,3,,,75,127
9934,note_on,46,0,3,,,,,,,,,3,,,75,0
9936,note_on,2,0,3,,,,,,,,,3,,,73,127
9952,note_on,160,0,1,,,,,,,,,11,,,59,0
9952,note_on,160,0,2,,,,,,,,,0,,,59,0
9982,note_on,46,0,3,,,,,,,,,3,,,73,0
9982,note_on,94,0,6,,,,,,,,,8,,,35,0
9982,note_on,94,0,4,,,,,,,,,4,,,63,0
9982,note_on,94,0,5,,,,,,,,,6,,,47,0
9984,note_on,32,0,1,,,,,,,,,11,,,75,127
9984,note_on,2,0,6,,,,,,,,,8,,,35,92
9984,note_on,32,0,2,,,,,,,,,0,,,75,127
9984,note_on,2,0,4,,,,,,,,,4,,,66,92
9984,note_on,2,0,3,,,,,,,,,3,,,71,127
9984,note_on,2,0,5,,,,,,,,,6,,,47,92
10030,note_on,46,0,1,,,,,,,,,11,,,75,0
10030,note_on,46,0,2,,,,,,,,,0,,,75,0
10032,note_on,2,0,1,,,,,,,,,11,,,76,127
10032,note_on,2,0,2,,,,,,,,,0,,,76,127
10078,note_on,94,0,5,,,,,,,,,6,,,47,0
10078,note_on,46,0,1,,,,,,,,,11,,,76,0
10078,note_on,94,0,4,,,,,,,,,4,,,66,0
10078,note_on,46,0,2,,,,,,,,,0,,,76,0
10078,note_on,94,0,3,,,,,,,,,3,,,71,0
10078,note_on,94,0,6,,,,,,,,,8,,,35,0
10080,note_on,2,0,1,,,,,,,,,11,,,78,127
10080,note_on,2,0,3,,,,,,,,,3,,,66,127
10080,note_on,2,0,6,,,,,,,,,8,,,35,92
10080,note_on,2,0,4,,,,,,,,,4,,,66,92
10080,note_on,2,0,2,,,,,,,,,0,,,78,127
10080,note_on,2,0,5,,,,,,,,,6,,,47,92
10126,note_on,46,0,2,,,,,,,,,0,,,78,0
10126,note_on,46,0,1,,,,,,,,,11,,,78,0
10128,note_on,2,0,1,,,,,,,,,11,,,80,127
10128,note_on,2,0,2,,,,,,,,,0,,,80,127
10174,note_on,46,0,1,,,,,,,,,11,,,80,0
10174,note_on,94,0,6,,,,,,,,,8,,,35,0
10174,note_on,94,0,4,,,,,,,,,4,,,66,0
10174,note_on,46,0,2,,,,,,,,,0,,,80,0
10174,note_on,94,0,5,,,,,,,,,6,,,47,0
10174,note_on,94,0,3,,,,,,,,,3,,,66,0
10176,note_on,2,0,3,,,,,,,,,3,,,59,127
10176,note_on,2,0,5,,,,,,,,,6,,,47,92
10176,note_on,2,0,4,,,,,,,,,4,,,66,92
10176,note_on,2,0,2,,,,,,,,,0,,,81,127
10176,note_on,2,0,6,,,,,,,,,8,,,35,92
10176,note_on,2,0,1,,,,,,,,,11,,,81,127
10270,note_on,94,0,4,,,,,,,,,4,,,66,0
10270,note_on,94,0,5,,,,,,,,,6,,,47,0
10270,note_on,94,0,6,,,,,,,,,8,,,35,0
10272,note_on,2,0,5,,,,,,,,,6,,,47,92
10272,note_on,2,0,6,,,,,,,,,8,,,35,92
10272,note_on,2,0,4,,,,,,,,,4,,,63,92
10336,note_on,160,0,1,,,,,,,,,11,,,81,0
10336,note_on,160,0,2,,,,,,,,,0,,,81,0
10336,note_on,160,0,3,,,,,,,,,3,,,59,0
10366,note_on,94,0,6,,,,,,,,,8,,,35,0
10366,note_on,94,0,5,,,,,,,,,6,,,47,0
10366,note_on,94,0,4,,,,,,,,,4,,,63,0
10368,note_on,32,0,3,,,,,,,,,3,,,76,127
10368,note_on,2,0,5,,,,,,,,,6,,,52,92
10368,note_on,2,0,6,,,,,,,,,8,,,40,92
10368,note_on,32,0,2,,,,,,,,,0,,,80,127
10368,note_on,32,0,1,,,,,,,,,11,,,80,127
10368,note_on,2,0,4,,,,,,,,,4,,,59,92
10414,note_on,46,0,3,,,,,,,,,3,,,76,0
10416,note_on,2,0,3,,,,,,,,,3,,,78,127
10462,note_on,94,0,5,,,,,,,,,6,,,52,0
10462,note_on,94,0,1,,,,,,,,,11,,,80,0
10462,note_on,94,0,6,,,,,,,,,8,,,40,0
10462,note_on,46,0,3,,,,,,,,,3,,,78,0
10462,note_on,94,0,2,,,,,,,,,0,,,80,0
10462,note_on,94,0,4,,,,,,,,,4,,,59,0
10464,note_on,2,0,6,,,,,,,,,8,,,40,92
10464,note_on,2,0,2,,,,,,,,,0,,,64,127
10464,note_on,2,0,4,,,,,,,,,4,,,59,92
10464,note_on,2,0,5,,,,,,,,,6,,,52,92
10464,note_on,2,0,3,,,,,,,,,3,,,80,127
10464,note_on,2,0,1,,,,,,,,,11,,,64,127
10510,note_on,46,0,3,,,,,,,,,3,,,80,0
10512,note_on,2,0,3,,,,,,,,,3,,,81,127
10558,note_on,46,0,3,,,,,,,,,3,,,81,0
10558,note_on,94,0,6,,,,,,,,,8,,,40,0
10558,note_on,94,0,4,,,,,,,,,4,,,59,0
10558,note_on,94,0,1,,,,,,,,,11,,,64,0
10558,note_on,94,0,2,,,,,,,,,0,,,64,0
10558,note_on,94,0,5,,,,,,,,,6,,,52,0
10560,note_on,2,0,3,,,,,,,,,3,,,83,127
10560,note_on,2,0,6,,,,,,,,,8,,,40,92
10560,note_on,2,0,5,,,,,,,,,6,,,52,92
10560,note_on,2,0,4,,,,,,,,,4,,,59,92
10654,note_on,94,0,4,,,,,,,,,4,,,59,0
10654,note_on,94,0,6,,,,,,,,,8,,,40,0
10654,note_on,94,0,5,,,,,,,,,6,,,52,0
10656,note_on,2,0,5,,,,,,,,,6,,,52,92
10656,note_on,2,0,4,,,,,,,,,4,,,68,92
10656,note_on,2,0,6,,,,,,,,,8,,,40,92
10720,note_on,160,0,3,,,,,,,,,3,,,83,0
10750,note_on,94,0,4,,,,,,,,,4,,,68,0
10750,note_on,94,0,6,,,,,,,,,8,,,40,0
10750,note_on,94,0,5,,,,,,,,,6,,,52,0
10752,note_on,2,0,6,,,,,,,,,8,,,45,92
10752,control_change,194,0,2,,,,,,,,,0,10,64,,
10752,note_on,0,0,2,,,,,,,,,0,,,72,127
10752,note_on,32,0,3,,,,,,,,,3,,,81,127
10752,note_on,194,0,1,,,,,,,,,11,,,72,127
10752,note_on,2,0,5,,,,,,,,,6,,,57,92
10752,note_on,2,0,4,,,,,,,,,4,,,64,92
10798,note_on,46,0,2,,,,,,,,,0,,,72,0
10798,note_on,46,0,3,,,,,,,,,3,,,81,0
10798,note_on,46,0,1,,,,,,,,,11,,,72,0
10800,note_on,2,0,3,,,,,,,,,3,,,80,127
10800,note_on,2,0,1,,,,,,,,,11,,,69,127
10800,note_on,2,0,2,,,,,,,,,0,,,69,127
10846,note_on,46,0,3,,,,,,,,,3,,,80,0
10846,note_on,46,0,2,,,,,,,,,0,,,69,0
10846,note_on,46,0,1,,,,,,,,,11,,,69,0
10846,note_on,94,0,5,,,,,,,,,6,,,57,0
10846,note_on,94,0,6,,,,,,,,,8,,,45,0
10848,note_on,2,0,5,,,,,,,,,6,,,57,92
10848,note_on,2,0,1,,,,,,,,,11,,,64,127
10848,note_on,2,0,6,,,,,,,,,8,,,45,92
10848,note_on,2,0,3,,,,,,,,,3,,,78,127
10848,note_on,2,0,2,,,,,,,,,0,,,64,127
10894,note_on,46,0,2,,,,,,,,,0,,,64,0
10894,note_on,46,0,3,,,,,,,,,3,,,78,0
10894,note_on,46,0,1,,,,,,,,,11,,,64,0
10896,note_on,2,0,1,,,,,,,,,11,,,72,127
10896,note_on,2,0,2,,,,,,,,,0,,,72,127
10896,note_on,2,0,3,,,,,,,,,3,,,76,127
10912,note_on,160,0,4,,,,,,,,,4,,,64,0
10942,note_on,46,0,1,,,,,,,,,11,,,72,0
10942,note_on,94,0,6,,,,,,,,,8,,,45,0
10942,note_on,94,0,5,,,,,,,,,6,,,57,0
10942,note_on,46,0,3,,,,,,,,,3,,,76,0
10942,note_on,46,0,2,,,,,,,,,0,,,72,0
10944,note_on,2,0,3,,,,,,,,,3,,,83,127
10944,note_on,2,0,6,,,,,,,,,8,,,44,92
10944,note_on,2,0,2,,,,,,,,,0,,,74,127
10944,note_on,32,0,4,,,,,,,,,4,,,64,92
10944,note_on,2,0,5,,,,,,,,,6,,,56,92
10944,note_on,2,0,1,,,,,,,,,11,,,74,127
10990,note_on,46,0,1,,,,,,,,,11,,,74,0
10990,note_on,46,0,2,,,,,,,,,0,,,74,0
10992,note_on,2,0,1,,,,,,,,,11,,,71,127
10992,note_on,2,0,2,,,,,,,,,0,,,71,127
11038,note_on,94,0,5,,,,,,,,,6,,,56,0
11038,note_on,46,0,2,,,,,,,,,0,,,71,0
11038,note_on,46,0,1,,,,,,,,,11,,,71,0
11038,note_on,94,0,6,,,,,,,,,8,,,44,0
11040,note_on,2,0,6,,,,,,,,,8,,,44,92
11040,note_on,2,0,2,,,,,,,,,0,,,64,127
11040,note_on,2,0,5,,,,,,,,,6,,,56,92
11040,note_on,2,0,1,,,,,,,,,11,,,64,127
11086,note_on,46,0,2,,,,,,,,,0,,,64,0
11086,note_on,46,0,1,,,,,,,,,11,,,64,0
11088,note_on,2,0,2,,,,,,,,,0,,,74,127
11088,note_on,2,0,1,,,,,,,,,11,,,74,127
11104,note_on,160,0,3,,,,,,,,,3,,,83,0
11104,note_on,160,0,4,,,,,,,,,4,,,64,0
11134,note_on,94,0,6,,,,,,,,,8,,,44,0
11134,note_on,94,0,5,,,,,,,,,6,,,56,0
11134,note_on,46,0,1,,,,,,,,,11,,,74,0
11134,note_on,46,0,2,,,,,,,,,0,,,74,0
11136,note_on,32,0,4,,,,,,,,,4,,,64,92
11136,note_on,2,0,6,,,,,,,,,8,,,45,92
11136,note_on,2,0,2,,,,,,,,,0,,,72,127
11136,note_on,32,0,3,,,,,,,,,3,,,81,127
11136,note_on,2,0,1,,,,,,,,,11,,,72,127
11136,note_on,2,0,5,,,,,,,,,6,,,57,92
11182,note_on,46,0,2,,,,,,,,,0,,,72,0
11182,note_on,46,0,1,,,,,,,,,11,,,72,0
11182,note_on,46,0,3,,,,,,,,,3,,,81,0
11184,note_on,2,0,2,,,,,,,,,0,,,69,127
11184,note_on,2,0,1,,,,,,,,,11,,,69,127
11184,note_on,2,0,3,,,,,,,,,3,,,80,127
11230,note_on,46,0,1,,,,,,,,,11,,,69,0
11230,note_on,94,0,6,,,,,,,,,8,,,45,0
11230,note_on,46,0,2,,,,,,,,,0,,,69,0
11230,note_on,94,0,5,,,,,,,,,6,,,57,0
11230,note_on,46,0,3,,,,,,,,,3,,,80,0
11232,note_on,2,0,2,,,,,,,,,0,,,64,127
11232,note_on,2,0,6,,,,,,,,,8,,,45,92
11232,note_on,2,0,1,,,,,,,,,11,,,64,127
11232,note_on,2,0,5,,,,,,,,,6,,,57,92
11232,note_on,2,0,3,,,,,,,,,3,,,78,127
11278,note_on,46,0,2,,,,,,,,,0,,,64,0
11278,note_on,46,0,1,,,,,,,,,11,,,64,0
11278,note_on,46,0,3,,,,,,,,,3,,,78,0
11280,note_on,2,0,1,,,,,,,,,11,,,72,127
11280,note_on,2,0,2,,,,,,,,,0,,,72,127
11280,note_on,2,0,3,,,,,,,,,3,,,76,127
11296,note_on,160,0,4,,,,,,,,,4,,,64,0
11326,note_on,46,0,2,,,,,,,,,0,,,72,0
11326,note_on,46,0,1,,,,,,,,,11,,,72,0
11326,note_on,94,0,6,,,,,,,,,8,,,45,0
11326,note_on,46,0,3,,,,,,,,,3,,,76,0
11326,note_on,94,0,5,,,,,,,,,6,,,57,0
11328,note_on,2,0,6,,,,,,,,,8,,,44,92
11328,note_on,32,0,4,,,,,,,,,4,,,64,92
11328,note_on,2,0,1,,,,,,,,,11,,,74,127
11328,note_on,2,0,3,,,,,,,,,3,,,83,127
11328,note_on,2,0,2,,,,,,,,,0,,,74,127
11328,note_on,2,0,5,,,,,,,,,6,,,56,92
11374,note_on,46,0,2,,,,,,,,,0,,,74,0
11374,note_on,46,0,1,,,,,,,,,11,,,74,0
11376,note_on,2,0,1,,,,,,,,,11,,,71,127
11376,note_on,2,0,2,,,,,,,,,0,,,71,127
11422,note_on,46,0,1,,,,,,,,,11,,,71,0
11422,note_on,94,0,6,,,,,,,,,8,,,44,0
11422,note_on,46,0,2,,,,,,,,,0,,,71,0
11422,note_on,94,0,5,,,,,,,,,6,,,56,0
11424,note_on,2,0,2,,,,,,,,,0,,,64,127
11424,note_on,2,0,6,,,,,,,,,8,,,44,92
11424,note_on,2,0,5,,,,,,,,,6,,,56,92
11424,note_on,2,0,1,,,,,,,,,11,,,64,127
11470,note_on,46,0,1,,,,,,,,,11,,,64,0
11470,note_on,46,0,2,,,,,,,,,0,,,64,0
11472,note_on,2,0,1,,,,,,,,,11,,,74,127
11472,note_on,2,0,2,,,,,,,,,0,,,74,127
11488,note_on,160,0,3,,,,,,,,,3,,,83,0
11488,note_on,160,0,4,,,,,,,,,4,,,64,0
11518,note_on,46,0,1,,,,,,,,,11,,,74,0
11518,note_on,46,0,2,,,,,,,,,0,,,74,0
11518,note_on,94,0,5,,,,,,,,,6,,,56,0
11518,note_on,94,0,6,,,,,,,,,8,,,44,0
11520,note_on,2,0,2,,,,,,,,,0,,,72,127
11520,note_on,2,0,5,,,,,,,,,6,,,57,92
11520,note_on,32,0,4,,,,,,,,,4,,,64,92
11520,note_on,2,0,6,,,,,,,,,8,,,45,92
11520,note_on,32,0,3,,,,,,,,,3,,,81,127
11520,note_on,2,0,1,,,,,,,,,11,,,72,127
11566,note_on,46,0,3,,,,,,,,,3,,,81,0
11566,note_on,46,0,1,,,,,,,,,11,,,72,0
11566,note_on,46,0,2,,,,,,,,,0,,,72,0
11568,note_on,2,0,3,,,,,,,,,3,,,80,127
11568,note_on,2,0,1,,,,,,,,,11,,,69,127
11568,note_on,2,0,2,,,,,,,,,0,,,69,127
11614,note_on,94,0,6,,,,,,,,,8,,,45,0
11614,note_on,46,0,3,,,,,,,,,3,,,80,0
11614,note_on,46,0,2,,,,,,,,,0,,,69,0
11614,note_on,46,0,1,,,,,,,,,11,,,69,0
11614,note_on,94,0,5,,,,,,,,,6,,,57,0
11616,note_on,2,0,2,,,,,,,,,0,,,64,127
11616,note_on,2,0,3,,,,,,,,,3,,,78,127
11616,note_on,2,0,1,,,,,,,,,11,,,64,127
11616,note_on,2,0,5,,,,,,,,,6,,,57,92
11616,note_on,2,0,6,,,,,,,,,8,,,45,92
11662,note_on,46,0,3,,,,,,,,,3,,,78,0
11662,note_on,46,0,2,,,,,,,,,0,,,64,0
11662,note_on,46,0,1,,,,,,,,,11,,,64,0
11664,note_on,2,0,3,,,,,,,,,3,,,76,127
11664,note_on,2,0,2,,,,,,,,,0,,,72,127
11664,note_on,2,0,1,,,,,,,,,11,,,72,127
11680,note_on,160,0,4,,,,,,,,,4,,,64,0
11710,note_on,94,0,5,,,,,,,,,6,,,57,0
11710,note_on,46,0,3,,,,,,,,,3,,,76,0
11710,note_on,94,0,6,,,,,,,,,8,,,45,0
11710,note_on,46,0,2,,,,,,,,,0,,,72,0
11710,note_on,46,0,1,,,,,,,,,11,,,72,0
11712,note_on,2,0,3,,,,,,,,,3,,,83,127
11712,note_on,2,0,2,,,,,,,,,0,,,74,127
11712,note_on,2,0,6,,,,,,,,,8,,,44,92
11712,note_on,32,0,4,,,,,,,,,4,,,64,92
11712,note_on,2,0,5,,,,,,,,,6,,,56,92
11712,note_on,2,0,1,,,,,,,,,11,,,74,127
11758,note_on,46,0,1,,,,,,,,,11,,,74,0
11758,note_on,46,0,2,,,,,,,,,0,,,74,0
11760,note_on,2,0,1,,,,,,,,,11,,,71,127
11760,note_on,2,0,2,,,,,,,,,0,,,71,127
11806,note_on,94,0,5,,,,,,,,,6,,,56,0
11806,note_on,46,0,2,,,,,,,,,0,,,71,0
11806,note_on,46,0,1,,,,,,,,,11,,,71,0
11806,note_on,94,0,6,,,,,,,,,8,,,44,0
11808,note_on,2,0,1,,,,,,,,,11,,,64,127
11808,note_on,2,0,5,,,,,,,,,6,,,56,92
11808,note_on,2,0,2,,,,,,,,,0,,,64,127
11808,note_on,2,0,6,,,,,,,,,8,,,44,92
11854,note_on,46,0,2,,,,,,,,,0,,,64,0
11854,note_on,46,0,1,,,,,,,,,11,,,64,0
11856,note_on,2,0,1,,,,,,,,,11,,,74,127
11856,note_on,2,0,2,,,,,,,,,0,,,74,127
11872,note_on,160,0,3,,,,,,,,,3,,,83,0
11872,note_on,160,0,4,,,,,,,,,4,,,64,0
11902,note_on,94,0,5,,,,,,,,,6,,,56,0
11902,note_on,94,0,6,,,,,,,,,8,,,44,0
11902,note_on,46,0,1,,,,,,,,,11,,,74,0
11902,note_on,46,0,2,,,,,,,,,0,,,74,0
11904,note_on,0,0,3,,,,,,,,,3,,,81,127
11904,note_on,32,0,4,,,,,,,,,4,,,64,92
11904,note_on,2,0,2,,,,,,,,,0,,,72,127
11904,note_on,2,0,6,,,,,,,,,8,,,45,92
11904,note_on,2,0,5,,,,,,,,,6,,,57,92
11904,control_change,32,0,3,,,,,,,,,3,10,0,,
11904,note_on,2,0,1,,,,,,,,,11,,,72,127
12064,note_on,160,0,2,,,,,,,,,0,,,72,0
12064,note_on,160,0,1,,,,,,,,,11,,,72,0
12064,note_on,160,0,6,,,,,,,,,8,,,45,0
12064,note_on,160,0,5,,,,,,,,,6,,,57,0
12064,note_on,160,0,3,,,,,,,,,3,,,81,0
12064,note_on,160,0,4,,,,,,,,,4,,,64,0
12096,note_on,0,0,2,,,,,,,,,0,,,81,127
12096,note_on,32,0,6,,,,,,,,,8,,,45,92
12096,control_change,32,0,2,,,,,,,,,0,10,127,,
12096,note_on,32,0,4,,,,,,,,,4,,,69,92
12096,note_on,32,0,5,,,,,,,,,6,,,57,92
12096,note_on,32,0,1,,,,,,,,,11,,,81,127
12096,note_on,32,0,3,,,,,,,,,3,,,81,127
12192,note_on,96,0,1,,,,,,,,,11,,,81,0
12192,note_on,0,0,3,,,,,,,,,3,,,81,127
12192,note_on,0,0,1,,,,,,,,,11,,,81,127
12192,note_on,0,0,5,,,,,,,,,6,,,57,92
12192,note_on,96,0,5,,,,,,,,,6,,,57,0
12192,note_on,96,0,6,,,,,,,,,8,,,45,0
12192,note_on,0,0,6,,,,,,,,,8,,,45,92
12192,note_on,0,0,4,,,,,,,,,4,,,69,92
12192,note_on,96,0,4,,,,,,,,,4,,,69,0
12192,note_on,96,0,3,,,,,,,,,3,,,81,0
12192,note_on,0,0,2,,,,,,,,,0,,,81,127
12192,note_on,96,0,2,,,,,,,,,0,,,81,0
12288,note_on,0,0,5,,,,,,,,,6,,,53,92
12288,note_on,96,0,5,,,,,,,,,6,,,57,0
12288,note_on,0,0,6,,,,,,,,,8,,,41,92
12288,note_on,96,0,2,,,,,,,,,0,,,81,0
12288,note_on,0,0,2,,,,,,,,,0,,,77,127
12288,note_on,96,0,3,,,,,,,,,3,,,81,0
12288,note_on,96,0,1,,,,,,,,,11,,,81,0
12288,note_on,0,0,1,,,,,,,,,11,,,77,127
12288,note_on,0,0,4,,,,,,,,,4,,,65,92
12288,note_on,96,0,4,,,,,,,,,4,,,69,0
12288,note_on,0,0,3,,,,,,,,,3,,,77,127
12288,note_on,96,0,6,,,,,,,,,8,,,45,0
12384,note_on,0,0,4,,,,,,,,,4,,,65,92
12384,note_on,96,0,5,,,,,,,,,6,,,53,0
12384,note_on,0,0,2,,,,,,,,,0,,,77,127
12384,note_on,96,0,2,,,,,,,,,0,,,77,0
12384,note_on,0,0,3,,,,,,,,,3,,,77,127
12384,note_on,96,0,3,,,,,,,,,3,,,77,0
12384,note_on,96,0,4,,,,,,,,,4,,,65,0
12384,note_on,0,0,5,,,,,,,,,6,,,53,92
12384,note_on,96,0,6,,,,,,,,,8,,,41,0
12384,note_on,0,0,6,,,,,,,,,8,,,41,92
12384,note_on,96,0,1,,,,,,,,,11,,,77,0
12384,note_on,0,0,1,,,,,,,,,11,,,77,127
12480,note_on,0,0,6,,,,,,,,,8,,,39,92
12480,note_on,0,0,4,,,,,,,,,4,,,63,92
12480,note_on,0,0,1,,,,,,,,,11,,,75,127
12480,note_on,96,0,4,,,,,,,,,4,,,65,0
12480,note_on,0,0,2,,,,,,,,,0,,,75,127
12480,note_on,96,0,6,,,,,,,,,8,,,41,0
12480,note_on,0,0,5,,,,,,,,,6,,,51,92
12480,note_on,96,0,1,,,,,,,,,11,,,77,0
12480,note_on,0,0,3,,,,,,,,,3,,,75,127
12480,note_on,96,0,3,,,,,,,,,3,,,77,0
12480,note_on,96,0,5,,,,,,,,,6,,,53,0
12480,note_on,96,0,2,,,,,,,,,0,,,77,0
12576,note_on,0,0,4,,,,,,,,,4,,,63,92
12576,note_on,96,0,5,,,,,,,,,6,,,51,0
12576,note_on,96,0,4,,,,,,,,,4,,,63,0
12576,note_on,0,0,5,,,,,,,,,6,,,51,92
12576,note_on,0,0,2,,,,,,,,,0,,,75,127
12576,note_on,96,0,2,,,,,,,,,0,,,75,0
12576,note_on,96,0,1,,,,,,,,,11,,,75,0
12576,note_on,96,0,6,,,,,,,,,8,,,39,0
12576,note_on,0,0,1,,,,,,,,,11,,,75,127
12576,note_on,96,0,3,,,,,,,,,3,,,75,0
12576,note_on,0,0,3,,,,,,,,,3,,,75,127
12576,note_on,0,0,6,,,,,,,,,8,,,39,92
12672,note_on,96,0,6,,,,,,,,,8,,,39,0
12672,note_on,0,0,6,,,,,,,,,8,,,40,92
12672,note_on,96,0,2,,,,,,,,,0,,,75,0
12672,note_on,96,0,4,,,,,,,,,4,,,63,0
12672,note_on,0,0,4,,,,,,,,,4,,,64,92
12672,note_on,96,0,5,,,,,,,,,6,,,51,0
12672,note_on,96,0,3,,,,,,,,,3,,,75,0
12672,note_on,0,0,3,,,,,,,,,3,,,76,127
12672,note_on,0,0,1,,,,,,,,,11,,,76,127
12672,note_on,96,0,1,,,,,,,,,11,,,75,0
12672,note_on,0,0,2,,,,,,,,,0,,,76,127
12672,note_on,0,0,5,,,,,,,,,6,,,52,92
12832,note_on,160,0,2,,,,,,,,,0,,,76,0
12832,note_on,160,0,3,,,,,,,,,3,,,76,0
12832,note_on,160,0,4,,,,,,,,,4,,,64,0
12832,note_on,160,0,1,,,,,,,,,11,,,76,0
12832,note_on,160,0,6,,,,,,,,,8,,,40,0
12832,note_on,160,0,5,,,,,,,,,6,,,52,0
12864,note_on,32,0,5,,,,,,,,,6,,,48,92
12864,note_on,32,0,3,,,,,,,,,3,,,72,127
12864,note_on,32,0,4,,,,,,,,,4,,,60,92
12864,note_on,32,0,6,,,,,,,,,8,,,36,92
12864,note_on,32,0,1,,,,,,,,,11,,,72,127
12864,note_on,32,0,2,,,,,,,,,0,,,72,127
12958,note_on,94,0,5,,,,,,,,,6,,,48,0
12958,note_on,94,0,4,,,,,,,,,4,,,60,0
12958,note_on,94,0,3,,,,,,,,,3,,,72,0
12958,note_on,94,0,6,,,,,,,,,8,,,36,0
12958,note_on,94,0,1,,,,,,,,,11,,,72,0
12958,note_on,94,0,2,,,,,,,,,0,,,72,0
12960,note_on,2,0,6,,,,,,,,,8,,,36,92
12960,note_on,2,0,1,,,,,,,,,11,,,72,127
12960,note_on,2,0,4,,,,,,,,,4,,,60,92
12960,note_on,2,0,5,,,,,,,,,6,,,48,92
12960,note_on,2,0,2,,,,,,,,,0,,,72,127
12960,note_on,2,0,3,,,,,,,,,3,,,72,127
13054,note_on,94,0,3,,,,,,,,,3,,,72,0
13054,note_on,94,0,4,,,,,,,,,4,,,60,0
13054,note_on,94,0,5,,,,,,,,,6,,,48,0
13054,note_on,94,0,1,,,,,,,,,11,,,72,0
13054,note_on,94,0,2,,,,,,,,,0,,,72,0
13054,note_on,94,0,6,,,,,,,,,8,,,36,0
13056,note_on,2,0,3,,,,,,,,,3,,,70,127
13056,note_on,2,0,4,,,,,,,,,4,,,58,92
13056,note_on,2,0,1,,,,,,,,,11,,,70,127
13056,note_on,2,0,6,,,,,,,,,8,,,34,92
13056,note_on,2,0,2,,,,,,,,,0,,,70,127
13056,note_on,2,0,5,,,,,,,,,6,,,46,92
13150,note_on,94,0,6,,,,,,,,,8,,,34,0
13150,note_on,94,0,4,,,,,,,,,4,,,58,0
13150,note_on,94,0,1,,,,,,,,,11,,,70,0
13150,note_on,94,0,2,,,,,,,,,0,,,70,0
13150,note_on,94,0,3,,,,,,,,,3,,,70,0
13150,note_on,94,0,5,,,,,,,,,6,,,46,0
13152,note_on,2,0,2,,,,,,,,,0,,,70,127
13152,note_on,2,0,1,,,,,,,,,11,,,70,127
13152,note_on,2,0,5,,,,,,,,,6,,,46,92
13152,note_on,2,0,3,,,,,,,,,3,,,70,127
13152,note_on,2,0,4,,,,,,,,,4,,,58,92
13152,note_on,2,0,6,,,,,,,,,8,,,34,92
13246,note_on,94,0,6,,,,,,,,,8,,,34,0
13246,note_on,94,0,1,,,,,,,,,11,,,70,0
13246,note_on,94,0,3,,,,,,,,,3,,,70,0
13246,note_on,94,0,4,,,,,,,,,4,,,58,0
13246,note_on,94,0,5,,,,,,,,,6,,,46,0
13246,note_on,94,0,2,,,,,,,,,0,,,70,0
13248,note_on,2,0,4,,,,,,,,,4,,,56,92
13248,note_on,2,0,1,,,,,,,,,11,,,68,127
13248,note_on,2,0,6,,,,,,,,,8,,,32,92
13248,note_on,2,0,5,,,,,,,,,6,,,44,92
13248,note_on,2,0,3,,,,,,,,,3,,,68,127
13248,note_on,2,0,2,,,,,,,,,0,,,68,127
13342,note_on,94,0,2,,,,,,,,,0,,,68,0
13342,note_on,94,0,5,,,,,,,,,6,,,44,0
13342,note_on,94,0,3,,,,,,,,,3,,,68,0
13342,note_on,94,0,6,,,,,,,,,8,,,32,0
13342,note_on,94,0,4,,,,,,,,,4,,,56,0
13342,note_on,94,0,1,,,,,,,,,11,,,68,0
13344,note_on,2,0,2,,,,,,,,,0,,,68,127
13344,note_on,2,0,5,,,,,,,,,6,,,44,92
13344,note_on,2,0,1,,,,,,,,,11,,,68,127
13344,note_on,2,0,3,,,,,,,,,3,,,68,127
13344,note_on,2,0,4,,,,,,,,,4,,,56,92
13344,note_on,2,0,6,,,,,,,,,8,,,32,92
13438,note_on,94,0,5,,,,,,,,,6,,,44,0
13438,note_on,94,0,1,,,,,,,,,11,,,68,0
13438,note_on,94,0,3,,,,,,,,,3,,,68,0
13438,note_on,94,0,6,,,,,,,,,8,,,32,0
13438,note_on,94,0,2,,,,,,,,,0,,,68,0
13438,note_on,94,0,4,,,,,,,,,4,,,56,0
13440,note_on,2,0,5,,,,,,,,,6,,,45,92
13440,control_change,2,0,3,,,,,,,,,3,10,64,,
13440,note_on,0,0,3,,,,,,,,,3,,,69,127
13440,note_on,2,0,6,,,,,,,,,8,,,33,92
13440,note_on,2,0,2,,,,,,,,,0,,,69,127
13440,note_on,2,0,1,,,,,,,,,11,,,69,127
13440,note_on,2,0,4,,,,,,,,,4,,,57,92
13534,note_on,94,0,2,,,,,,,,,0,,,69,0
13534,note_on,94,0,3,,,,,,,,,3,,,69,0
13534,note_on,94,0,1,,,,,,,,,11,,,69,0
13536,note_on,2,0,3,,,,,,,,,3,,,76,127
13536,note_on,2,0,2,,,,,,,,,0,,,73,127
13536,note_on,2,0,1,,,,,,,,,11,,,73,127
13582,note_on,46,0,1,,,,,,,,,11,,,73,0
13582,note_on,46,0,3,,,,,,,,,3,,,76,0
13582,note_on,46,0,2,,,,,,,,,0,,,73,0
13584,note_on,2,0,1,,,,,,,,,11,,,69,127
13584,note_on,2,0,3,,,,,,,,,3,,,73,127
13584,note_on,2,0,2,,,,,,,,,0,,,69,127
13600,note_on,160,0,4,,,,,,,,,4,,,57,0
13600,note_on,160,0,6,,,,,,,,,8,,,33,0
13600,note_on,160,0,5,,,,,,,,,6,,,45,0
13630,note_on,46,0,1,,,,,,,,,11,,,69,0
13630,note_on,46,0,2,,,,,,,,,0,,,69,0
13630,note_on,46,0,3,,,,,,,,,3,,,73,0
13632,note_on,2,0,3,,,,,,,,,3,,,76,127
13632,note_on,2,0,2,,,,,,,,,0,,,73,127
13632,note_on,2,0,1,,,,,,,,,11,,,73,127
13678,note_on,46,0,3,,,,,,,,,3,,,76,0
13678,note_on,46,0,2,,,,,,,,,0,,,73,0
13678,note_on,46,0,1,,,,,,,,,11,,,73,0
13680,note_on,2,0,3,,,,,,,,,3,,,73,127
13680,note_on,2,0,1,,,,,,,,,11,,,69,127
13680,note_on,2,0,2,,,,,,,,,0,,,69,127
13726,note_on,46,0,2,,,,,,,,,0,,,69,0
13726,note_on,46,0,3,,,,,,,,,3,,,73,0
13726,note_on,46,0,1,,,,,,,,,11,,,69,0
13728,note_on,128,0,4,,,,,,,,,4,,,69,92
13728,note_on,2,0,3,,,,,,,,,3,,,76,127
13728,note_on,2,0,1,,,,,,,,,11,,,73,127
13728,note_on,2,0,2,,,,,,,,,0,,,73,127
13774,note_on,46,0,3,,,,,,,,,3,,,76,0
13774,note_on,46,0,2,,,,,,,,,0,,,73,0
13774,note_on,46,0,4,,,,,,,,,4,,,69,0
13774,note_on,46,0,1,,,,,,,,,11,,,73,0
13776,note_on,2,0,3,,,,,,,,,3,,,73,127
13776,note_on,2,0,1,,,,,,,,,11,,,69,127
13776,note_on,2,0,2,,,,,,,,,0,,,69,127
13776,note_on,2,0,4,,,,,,,,,4,,,68,92
13822,note_on,46,0,4,,,,,,,,,4,,,68,0
13822,note_on,46,0,3,,,,,,,,,3,,,73,0
13822,note_on,46,0,1,,,,,,,,,11,,,69,0
13822,note_on,46,0,2,,,,,,,,,0,,,69,0
13824,note_on,2,0,3,,,,,,,,,3,,,74,127
13824,note_on,2,0,1,,,,,,,,,11,,,78,127
13824,note_on,2,0,4,,,,,,,,,4,,,69,92
13824,note_on,2,0,2,,,,,,,,,0,,,78,127
13918,note_on,94,0,2,,,,,,,,,0,,,78,0
13918,note_on,94,0,3,,,,,,,,,3,,,74,0
13918,note_on,94,0,1,,,,,,,,,11,,,78,0
13918,note_on,94,0,4,,,,,,,,,4,,,69,0
13920,note_on,2,0,3,,,,,,,,,3,,,74,127
13920,note_on,320,0,5,,,,,,,,,6,,,62,92
13920,note_on,320,0,6,,,,,,,,,8,,,50,92
13920,note_on,2,0,4,,,,,,,,,4,,,69,92
13920,note_on,2,0,2,,,,,,,,,0,,,78,127
13920,note_on,2,0,1,,,,,,,,,11,,,78,127
13966,note_on,46,0,2,,,,,,,,,0,,,78,0
13966,note_on,46,0,3,,,,,,,,,3,,,74,0
13966,note_on,46,0,6,,,,,,,,,8,,,50,0
13966,note_on,46,0,5,,,,,,,,,6,,,62,0
13966,note_on,46,0,1,,,,,,,,,11,,,78,0
13968,note_on,2,0,1,,,,,,,,,11,,,74,127
13968,note_on,2,0,2,,,,,,,,,0,,,74,127
13968,note_on,2,0,6,,,,,,,,,8,,,49,92
13968,note_on,2,0,3,,,,,,,,,3,,,69,127
13968,note_on,2,0,5,,,,,,,,,6,,,61,92
14014,note_on,46,0,2,,,,,,,,,0,,,74,0
14014,note_on,94,0,4,,,,,,,,,4,,,69,0
14014,note_on,46,0,3,,,,,,,,,3,,,69,0
14014,note_on,46,0,6,,,,,,,,,8,,,49,0
14014,note_on,46,0,1,,,,,,,,,11,,,74,0
14014,note_on,46,0,5,,,,,,,,,6,,,61,0
14016,note_on,2,0,5,,,,,,,,,6,,,62,92
14016,note_on,2,0,3,,,,,,,,,3,,,74,127
14016,note_on,2,0,6,,,,,,,,,8,,,50,92
14016,note_on,2,0,1,,,,,,,,,11,,,78,127
14016,note_on,2,0,2,,,,,,,,,0,,,78,127
14062,note_on,46,0,1,,,,,,,,,11,,,78,0
14062,note_on,46,0,2,,,,,,,,,0,,,78,0
14062,note_on,46,0,3,,,,,,,,,3,,,74,0
14064,note_on,2,0,1,,,,,,,,,11,,,74,127
14064,note_on,2,0,2,,,,,,,,,0,,,74,127
14064,note_on,2,0,3,,,,,,,,,3,,,69,127
14110,note_on,46,0,2,,,,,,,,,0,,,74,0
14110,note_on,46,0,3,,,,,,,,,3,,,69,0
14110,note_on,94,0,5,,,,,,,,,6,,,62,0
14110,note_on,94,0,6,,,,,,,,,8,,,50,0
14110,note_on,46,0,1,,,,,,,,,11,,,74,0
14112,note_on,98,0,4,,,,,,,,,4,,,69,92
14112,note_on,2,0,1,,,,,,,,,11,,,78,127
14112,note_on,2,0,3,,,,,,,,,3,,,74,127
14112,note_on,2,0,6,,,,,,,,,8,,,38,92
14112,note_on,2,0,2,,,,,,,,,0,,,78,127
14112,note_on,2,0,5,,,,,,,,,6,,,50,92
14158,note_on,46,0,4,,,,,,,,,4,,,69,0
14158,note_on,46,0,3,,,,,,,,,3,,,74,0
14158,note_on,46,0,2,,,,,,,,,0,,,78,0
14158,note_on,46,0,1,,,,,,,,,11,,,78,0
14160,note_on,2,0,2,,,,,,,,,0,,,74,127
14160,note_on,2,0,1,,,,,,,,,11,,,74,127
14160,note_on,2,0,4,,,,,,,,,4,,,68,92
14160,note_on,2,0,3,,,,,,,,,3,,,69,127
14206,note_on,46,0,3,,,,,,,,,3,,,69,0
14206,note_on,46,0,1,,,,,,,,,11,,,74,0
14206,note_on,46,0,4,,,,,,,,,4,,,68,0
14206,note_on,94,0,5,,,,,,,,,6,,,50,0
14206,note_on,46,0,2,,,,,,,,,0,,,74,0
14206,note_on,94,0,6,,,,,,,,,8,,,38,0
14208,note_on,2,0,2,,,,,,,,,0,,,76,127
14208,note_on,2,0,4,,,,,,,,,4,,,69,92
14208,note_on,2,0,1,,,,,,,,,11,,,76,127
14208,note_on,2,0,3,,,,,,,,,3,,,73,127
14302,note_on,94,0,4,,,,,,,,,4,,,69,0
14302,note_on,94,0,1,,,,,,,,,11,,,76,0
14302,note_on,94,0,3,,,,,,,,,3,,,73,0
14302,note_on,94,0,2,,,,,,,,,0,,,76,0
14304,note_on,98,0,5,,,,,,,,,6,,,57,92
14304,note_on,98,0,6,,,,,,,,,8,,,45,92
14304,note_on,2,0,4,,,,,,,,,4,,,69,92
14304,note_on,2,0,2,,,,,,,,,0,,,73,127
14304,note_on,2,0,1,,,,,,,,,11,,,73,127
14304,note_on,2,0,3,,,,,,,,,3,,,76,127
14350,note_on,46,0,2,,,,,,,,,0,,,73,0
14350,note_on,46,0,3,,,,,,,,,3,,,76,0
14350,note_on,46,0,5,,,,,,,,,6,,,57,0
14350,note_on,46,0,6,,,,,,,,,8,,,45,0
14350,note_on,46,0,1,,,,,,,,,11,,,73,0
14352,note_on,2,0,5,,,,,,,,,6,,,56,92
14352,note_on,2,0,1,,,,,,,,,11,,,69,127
14352,note_on,2,0,2,,,,,,,,,0,,,69,127
14352,note_on,2,0,6,,,,,,,,,8,,,44,92
14352,note_on,2,0,3,,,,,,,,,3,,,73,127
14398,note_on,46,0,1,,,,,,,,,11,,,69,0
14398,note_on,94,0,4,,,,,,,,,4,,,69,0
14398,note_on,46,0,6,,,,,,,,,8,,,44,0
14398,note_on,46,0,3,,,,,,,,,3,,,73,0
14398,note_on,46,0,5,,,,,,,,,6,,,56,0
14398,note_on,46,0,2,,,,,,,,,0,,,69,0
14400,note_on,2,0,3,,,,,,,,,3,,,76,127
14400,note_on,2,0,5,,,,,,,,,6,,,57,92
14400,note_on,2,0,2,,,,,,,,,0,,,73,127
14400,note_on,2,0,6,,,,,,,,,8,,,45,92
14400,note_on,2,0,1,,,,,,,,,11,,,73,127
14446,note_on,46,0,3,,,,,,,,,3,,,76,0
14446,note_on,46,0,2,,,,,,,,,0,,,73,0
14446,note_on,46,0,1,,,,,,,,,11,,,73,0
14448,note_on,2,0,1,,,,,,,,,11,,,69,127
14448,note_on,2,0,2,,,,,,,,,0,,,69,127
14448,note_on,2,0,3,,,,,,,,,3,,,73,127
14494,note_on,46,0,3,,,,,,,,,3,,,73,0
14494,note_on,94,0,6,,,,,,,,,8,,,45,0
14494,note_on,46,0,1,,,,,,,,,11,,,69,0
14494,note_on,46,0,2,,,,,,,,,0,,,69,0
14494,note_on,94,0,5,,,,,,,,,6,,,57,0
14496,note_on,2,0,3,,,,,,,,,3,,,76,127
14496,note_on,98,0,4,,,,,,,,,4,,,69,92
14496,note_on,2,0,5,,,,,,,,,6,,,45,92
14496,note_on,2,0,2,,,,,,,,,0,,,73,127
14496,note_on,2,0,6,,,,,,,,,8,,,33,92
14496,note_on,2,0,1,,,,,,,,,11,,,73,127
14542,note_on,46,0,4,,,,,,,,,4,,,69,0
14542,note_on,46,0,1,,,,,,,,,11,,,73,0
14542,note_on,46,0,3,,,,,,,,,3,,,76,0
14542,note_on,46,0,2,,,,,,,,,0,,,73,0
14544,note_on,2,0,1,,,,,,,,,11,,,69,127
14544,note_on,2,0,3,,,,,,,,,3,,,73,127
14544,note_on,2,0,4,,,,,,,,,4,,,68,92
14544,note_on,2,0,2,,,,,,,,,0,,,69,127
14590,note_on,94,0,5,,,,,,,,,6,,,45,0
14590,note_on,46,0,1,,,,,,,,,11,,,69,0
14590,note_on,94,0,6,,,,,,,,,8,,,33,0
14590,note_on,46,0,3,,,,,,,,,3,,,73,0
14590,note_on,46,0,2,,,,,,,,,0,,,69,0
14590,note_on,46,0,4,,,,,,,,,4,,,68,0
14592,note_on,2,0,2,,,,,,,,,0,,,78,127
14592,note_on,2,0,4,,,,,,,,,4,,,69,92
14592,note_on,2,0,1,,,,,,,,,11,,,78,127
14592,note_on,2,0,3,,,,,,,,,3,,,74,127
14686,note_on,94,0,4,,,,,,,,,4,,,69,0
14686,note_on,94,0,1,,,,,,,,,11,,,78,0
14686,note_on,94,0,2,,,,,,,,,0,,,78,0
14686,note_on,94,0,3,,,,,,,,,3,,,74,0
14688,note_on,98,0,6,,,,,,,,,8,,,50,92
14688,note_on,98,0,5,,,,,,,,,6,,,62,92
14688,note_on,2,0,3,,,,,,,,,3,,,74,127
14688,note_on,2,0,1,,,,,,,,,11,,,78,127
14688,note_on,2,0,2,,,,,,,,,0,,,78,127
14688,note_on,2,0,4,,,,,,,,,4,,,69,92
14734,note_on,46,0,5,,,,,,,,,6,,,62,0
14734,note_on,46,0,6,,,,,,,,,8,,,50,0
14734,note_on,46,0,1,,,,,,,,,11,,,78,0
14734,note_on,46,0,3,,,,,,,,,3,,,74,0
14734,note_on,46,0,2,,,,,,,,,0,,,78,0
14736,note_on,2,0,6,,,,,,,,,8,,,49,92
14736,note_on,2,0,2,,,,,,,,,0,,,74,127
14736,note_on,2,0,1,,,,,,,,,11,,,74,127
14736,note_on,2,0,3,,,,,,,,,3,,,69,127
14736,note_on,2,0,5,,,,,,,,,6,,,61,92
14782,note_on,46,0,5,,,,,,,,,6,,,61,0
14782,note_on,94,0,4,,,,,,,,,4,,,69,0
14782,note_on,46,0,3,,,,,,,,,3,,,69,0
14782,note_on,46,0,6,,,,,,,,,8,,,49,0
14782,note_on,46,0,2,,,,,,,,,0,,,74,0
14782,note_on,46,0,1,,,,,,,,,11,,,74,0
14784,note_on,2,0,5,,,,,,,,,6,,,62,92
14784,note_on,2,0,6,,,,,,,,,8,,,50,92
14784,note_on,2,0,1,,,,,,,,,11,,,78,127
14784,note_on,2,0,2,,,,,,,,,0,,,78,127
14784,note_on,2,0,3,,,,,,,,,3,,,74,127
14830,note_on,46,0,2,,,,,,,,,0,,,78,0
14830,note_on,46,0,3,,,,,,,,,3,,,74,0
14830,note_on,46,0,1,,,,,,,,,11,,,78,0
14832,note_on,2,0,1,,,,,,,,,11,,,74,127
14832,note_on,2,0,3,,,,,,,,,3,,,69,127
14832,note_on,2,0,2,,,,,,,,,0,,,74,127
14878,note_on,46,0,3,,,,,,,,,3,,,69,0
14878,note_on,46,0,1,,,,,,,,,11,,,74,0
14878,note_on,46,0,2,,,,,,,,,0,,,74,0
14878,note_on,94,0,6,,,,,,,,,8,,,50,0
14878,note_on,94,0,5,,,,,,,,,6,,,62,0
14880,note_on,2,0,1,,,,,,,,,11,,,78,127
14880,note_on,2,0,6,,,,,,,,,8,,,38,92
14880,note_on,2,0,2,,,,,,,,,0,,,78,127
14880,note_on,98,0,4,,,,,,,,,4,,,69,92
14880,note_on,2,0,3,,,,,,,,,3,,,74,127
14880,note_on,2,0,5,,,,,,,,,6,,,50,92
14926,note_on,46,0,1,,,,,,,,,11,,,78,0
14926,note_on,46,0,2,,,,,,,,,0,,,78,0
14926,note_on,46,0,3,,,,,,,,,3,,,74,0
14926,note_on,46,0,4,,,,,,,,,4,,,69,0
14928,note_on,2,0,1,,,,,,,,,11,,,74,127
14928,note_on,2,0,4,,,,,,,,,4,,,68,92
14928,note_on,2,0,3,,,,,,,,,3,,,69,127
14928,note_on,2,0,2,,,,,,,,,0,,,74,127
14974,note_on,46,0,2,,,,,,,,,0,,,74,0
14974,note_on,94,0,6,,,,,,,,,8,,,38,0
14974,note_on,46,0,4,,,,,,,,,4,,,68,0
14974,note_on,46,0,1,,,,,,,,,11,,,74,0
14974,note_on,46,0,3,,,,,,,,,3,,,69,0
14974,note_on,94,0,5,,,,,,,,,6,,,50,0
14976,note_on,2,0,2,,,,,,,,,0,,,76,127
14976,note_on,2,0,4,,,,,,,,,4,,,69,92
14976,note_on,2,0,5,,,,,,,,,6,,,45,92
14976,note_on,2,0,3,,,,,,,,,3,,,73,127
14976,note_on,2,0,6,,,,,,,,,8,,,33,92
14976,note_on,2,0,1,,,,,,,,,11,,,76,127
15136,note_on,160,0,5,,,,,,,,,6,,,45,0
15136,note_on,160,0,1,,,,,,,,,11,,,76,0
15136,note_on,160,0,2,,,,,,,,,0,,,76,0
15136,note_on,160,0,4,,,,,,,,,4,,,69,0
15136,note_on,160,0,3,,,,,,,,,3,,,73,0
15136,note_on,160,0,6,,,,,,,,,8,,,33,0
15168,note_on,32,0,3,,,,,,,,,3,,,81,127
15168,note_on,32,0,4,,,,,,,,,4,,,69,92
15168,note_on,32,0,2,,,,,,,,,0,,,81,127
15168,note_on,32,0,1,,,,,,,,,11,,,81,127
15168,note_on,32,0,6,,,,,,,,,8,,,45,92
15168,note_on,32,0,5,,,,,,,,,6,,,57,92
15262,note_on,94,0,3,,,,,,,,,3,,,81,0
15262,note_on,94,0,4,,,,,,,,,4,,,69,0
15262,note_on,94,0,5,,,,,,,,,6,,,57,0
15262,note_on,94,0,1,,,,,,,,,11,,,81,0
15262,note_on,94,0,6,,,,,,,,,8,,,45,0
15262,note_on,94,0,2,,,,,,,,,0,,,81,0
15264,note_on,2,0,5,,,,,,,,,6,,,56,92
15264,note_on,2,0,4,,,,,,,,,4,,,68,92
15264,note_on,2,0,2,,,,,,,,,0,,,80,127
15264,note_on,2,0,6,,,,,,,,,8,,,44,92
15264,note_on,2,0,3,,,,,,,,,3,,,80,127
15264,note_on,2,0,1,,,,,,,,,11,,,80,127
15310,note_on,46,0,2,,,,,,,,,0,,,80,0
15310,note_on,46,0,6,,,,,,,,,8,,,44,0
15310,note_on,46,0,1,,,,,,,,,11,,,80,0
15310,note_on,46,0,4,,,,,,,,,4,,,68,0
15310,note_on,46,0,3,,,,,,,,,3,,,80,0
15310,note_on,46,0,5,,,,,,,,,6,,,56,0
15312,note_on,2,0,1,,,,,,,,,11,,,78,127
15312,note_on,2,0,3,,,,,,,,,3,,,78,127
15312,note_on,2,0,4,,,,,,,,,4,,,66,92
15312,note_on,2,0,2,,,,,,,,,0,,,78,127
15312,note_on,2,0,6,,,,,,,,,8,,,42,92
15312,note_on,2,0,5,,,,,,,,,6,,,54,92
15358,note_on,46,0,1,,,,,,,,,11,,,78,0
15358,note_on,46,0,3,,,,,,,,,3,,,78,0
15358,note_on,46,0,6,,,,,,,,,8,,,42,0
15358,note_on,46,0,4,,,,,,,,,4,,,66,0
15358,note_on,46,0,5,,,,,,,,,6,,,54,0
15358,note_on,46,0,2,,,,,,,,,0,,,78,0
15360,note_on,2,0,4,,,,,,,,,4,,,64,92
15360,note_on,2,0,3,,,,,,,,,3,,,76,127
15360,note_on,2,0,2,,,,,,,,,0,,,76,127
15360,note_on,2,0,1,,,,,,,,,11,,,76,127
15360,note_on,2,0,6,,,,,,,,,8,,,40,92
15360,note_on,2,0,5,,,,,,,,,6,,,52,92
15454,note_on,94,0,3,,,,,,,,,3,,,76,0
15454,note_on,94,0,2,,,,,,,,,0,,,76,0
15454,note_on,94,0,6,,,,,,,,,8,,,40,0
15454,note_on,94,0,1,,,,,,,,,11,,,76,0
15454,note_on,94,0,5,,,,,,,,,6,,,52,0
15454,note_on,94,0,4,,,,,,,,,4,,,64,0
15456,note_on,2,0,4,,,,,,,,,4,,,57,92
15456,note_on,2,0,3,,,,,,,,,3,,,69,127
15456,note_on,2,0,2,,,,,,,,,0,,,69,127
15456,note_on,2,0,1,,,,,,,,,11,,,69,127
15456,note_on,2,0,5,,,,,,,,,6,,,45,92
15456,note_on,2,0,6,,,,,,,,,8,,,33,92
15550,note_on,94,0,2,,,,,,,,,0,,,69,0
15550,note_on,94,0,4,,,,,,,,,4,,,57,0
15550,note_on,94,0,5,,,,,,,,,6,,,45,0
15550,note_on,94,0,6,,,,,,,,,8,,,33,0
15550,note_on,94,0,1,,,,,,,,,11,,,69,0
15550,note_on,94,0,3,,,,,,,,,3,,,69,0
15552,note_on,2,0,3,,,,,,,,,3,,,73,127
15552,note_on,2,0,5,,,,,,,,,6,,,52,92
15552,note_on,2,0,6,,,,,,,,,8,,,40,92
15552,note_on,2,0,2,,,,,,,,,0,,,73,127
15552,note_on,2,0,1,,,,,,,,,11,,,73,127
15552,note_on,2,0,4,,,,,,,,,4,,,66,92
15574,note_on,22,0,2,,,,,,,,,0,,,73,0
15574,note_on,22,0,3,,,,,,,,,3,,,73,0
15574,note_on,22,0,4,,,,,,,,,4,,,66,0
15574,note_on,22,0,1,,,,,,,,,11,,,73,0
15576,note_on,2,0,4,,,,,,,,,4,,,64,92
15576,note_on,2,0,3,,,,,,,,,3,,,71,127
15576,note_on,2,0,1,,,,,,,,,11,,,71,127
15576,note_on,2,0,2,,,,,,,,,0,,,71,127
15598,note_on,22,0,4,,,,,,,,,4,,,64,0
15598,note_on,22,0,3,,,,,,,,,3,,,71,0
15598,note_on,22,0,1,,,,,,,,,11,,,71,0
15598,note_on,22,0,2,,,,,,,,,0,,,71,0
15600,note_on,2,0,3,,,,,,,,,3,,,73,127
15600,note_on,2,0,4,,,,,,,,,4,,,66,92
15600,note_on,2,0,1,,,,,,,,,11,,,73,127
15600,note_on,2,0,2,,,,,,,,,0,,,73,127
15622,note_on,22,0,2,,,,,,,,,0,,,73,0
15622,note_on,22,0,4,,,,,,,,,4,,,66,0
15622,note_on,22,0,1,,,,,,,,,11,,,73,0
15622,note_on,22,0,3,,,,,,,,,3,,,73,0
15624,note_on,2,0,2,,,,,,,,,0,,,71,127
15624,note_on,2,0,1,,,,,,,,,11,,,71,127
15624,note_on,2,0,3,,,,,,,,,3,,,71,127
15624,note_on,2,0,4,,,,,,,,,4,,,64,92
15712,note_on,160,0,6,,,,,,,,,8,,,40,0
15712,note_on,160,0,5,,,,,,,,,6,,,52,0
15742,note_on,118,0,3,,,,,,,,,3,,,71,0
15742,note_on,118,0,2,,,,,,,,,0,,,71,0
15742,note_on,118,0,4,,,,,,,,,4,,,64,0
15742,note_on,118,0,1,,,,,,,,,11,,,71,0
15744,note_on,2,0,3,,,,,,,,,3,,,69,127
15744,note_on,2,0,2,,,,,,,,,0,,,69,127
15744,note_on,32,0,5,,,,,,,,,6,,,57,92
15744,note_on,2,0,4,,,,,,,,,4,,,69,92
15744,note_on,32,0,6,,,,,,,,,8,,,45,92
15744,note_on,2,0,1,,,,,,,,,11,,,69,127
15838,note_on,94,0,1,,,,,,,,,11,,,69,0
15838,note_on,94,0,3,,,,,,,,,3,,,69,0
15838,note_on,94,0,2,,,,,,,,,0,,,69,0
15838,note_on,94,0,6,,,,,,,,,8,,,45,0
15838,note_on,94,0,4,,,,,,,,,4,,,69,0
15838,note_on,94,0,5,,,,,,,,,6,,,57,0
15840,note_on,2,0,3,,,,,,,,,3,,,64,127
15840,note_on,2,0,2,,,,,,,,,0,,,64,127
15840,note_on,2,0,4,,,,,,,,,4,,,64,92
15840,note_on,2,0,1,,,,,,,,,11,,,64,127
15840,note_on,2,0,5,,,,,,,,,6,,,52,92
15840,note_on,2,0,6,,,,,,,,,8,,,40,92
15934,note_on,94,0,3,,,,,,,,,3,,,64,0
15934,note_on,94,0,1,,,,,,,,,11,,,64,0
15934,note_on,94,0,2,,,,,,,,,0,,,64,0
15934,note_on,94,0,4,,,,,,,,,4,,,64,0
15934,note_on,94,0,5,,,,,,,,,6,,,52,0
15934,note_on,94,0,6,,,,,,,,,8,,,40,0
15936,note_on,2,0,5,,,,,,,,,6,,,45,92
15936,note_on,2,0,1,,,,,,,,,11,,,57,127
15936,note_on,2,0,4,,,,,,,,,4,,,57,92
15936,note_on,2,0,2,,,,,,,,,0,,,57,127
15936,note_on,2,0,3,,,,,,,,,3,,,57,127
15936,note_on,2,0,6,,,,,,,,,8,,,33,92
16096,note_on,160,0,2,,,,,,,,,0,,,57,0
16096,note_on,160,0,1,,,,,,,,,11,,,57,0
16096,note_on,160,0,6,,,,,,,,,8,,,33,0
16096,note_on,160,0,3,,,,,,,,,3,,,57,0
16096,note_on,160,0,5,,,,,,,,,6,,,45,0
16096,note_on,160,0,4,,,,,,,,,4,,,57,0
16128,note_on,32,0,3,,,,,,,,,3,,,69,127
16128,note_on,32,0,1,,,,,,,,,11,,,69,127
16128,note_on,32,0,4,,,,,,,,,4,,,69,92
16128,note_on,32,0,5,,,,,,,,,6,,,57,92
16128,note_on,32,0,6,,,,,,,,,8,,,45,92
16128,note_on,32,0,2,,,,,,,,,0,,,69,127
16222,note_on,94,0,5,,,,,,,,,6,,,57,0
16222,note_on,94,0,6,,,,,,,,,8,,,45,0
16222,note_on,94,0,1,,,,,,,,,11,,,69,0
16222,note_on,94,0,2,,,,,,,,,0,,,69,0
16222,note_on,94,0,3,,,,,,,,,3,,,69,0
16222,note_on,94,0,4,,,,,,,,,4,,,69,0
16224,note_on,2,0,6,,,,,,,,,8,,,40,92
16224,note_on,2,0,2,,,,,,,,,0,,,64,127
16224,note_on,2,0,3,,,,,,,,,3,,,64,127
16224,note_on,2,0,4,,,,,,,,,4,,,64,92
16224,note_on,2,0,1,,,,,,,,,11,,,64,127
16224,note_on,2,0,5,,,,,,,,,6,,,52,92
16318,note_on,94,0,3,,,,,,,,,3,,,64,0
16318,note_on,94,0,1,,,,,,,,,11,,,64,0
16318,note_on,94,0,6,,,,,,,,,8,,,40,0
16318,note_on,94,0,2,,,,,,,,,0,,,64,0
16318,note_on,94,0,5,,,,,,,,,6,,,52,0
16318,note_on,94,0,4,,,,,,,,,4,,,64,0
16320,note_on,2,0,2,,,,,,,,,0,,,57,127
16320,note_on,2,0,1,,,,,,,,,11,,,57,127
16320,note_on,2,0,6,,,,,,,,,8,,,33,92
16320,note_on,2,0,4,,,,,,,,,4,,,57,92
16320,note_on,2,0,3,,,,,,,,,3,,,57,127
16320,note_on,2,0,5,,,,,,,,,6,,,45,92
16480,note_on,160,0,4,,,,,,,,,4,,,57,0
16480,note_on,160,0,3,,,,,,,,,3,,,57,0
16480,note_on,160,0,2,,,,,,,,,0,,,57,0
16480,note_on,160,0,6,,,,,,,,,8,,,33,0
16480,note_on,160,0,1,,,,,,,,,11,,,57,0
16480,note_on,160,0,5,,,,,,,,,6,,,45,0
16512,note_on,32,0,6,,,,,,,,,8,,,45,92
16512,note_on,32,0,4,,,,,,,,,4,,,69,92
16512,note_on,32,0,5,,,,,,,,,6,,,57,92
16512,note_on,32,0,1,,,,,,,,,11,,,69,127
16512,note_on,32,0,3,,,,,,,,,3,,,69,127
16512,note_on,32,0,2,,,,,,,,,0,,,69,127
16606,note_on,94,0,1,,,,,,,,,11,,,69,0
16606,note_on,94,0,2,,,,,,,,,0,,,69,0
16606,note_on,94,0,3,,,,,,,,,3,,,69,0
16606,note_on,94,0,5,,,,,,,,,6,,,57,0
16606,note_on,94,0,4,,,,,,,,,4,,,69,0
16606,note_on,94,0,6,,,,,,,,,8,,,45,0
16608,note_on,2,0,1,,,,,,,,,11,,,64,127
16608,note_on,2,0,3,,,,,,,,,3,,,64,127
16608,note_on,2,0,5,,,,,,,,,6,,,52,92
16608,note_on,2,0,6,,,,,,,,,8,,,40,92
16608,note_on,2,0,4,,,,,,,,,4,,,64,92
16608,note_on,2,0,2,,,,,,,,,0,,,64,127
16702,note_on,94,0,5,,,,,,,,,6,,,52,0
16702,note_on,94,0,6,,,,,,,,,8,,,40,0
16702,note_on,94,0,4,,,,,,,,,4,,,64,0
16702,note_on,94,0,1,,,,,,,,,11,,,64,0
16702,note_on,94,0,2,,,,,,,,,0,,,64,0
16702,note_on,94,0,3,,,,,,,,,3,,,64,0
16704,note_on,2,0,3,,,,,,,,,3,,,57,127
16704,note_on,2,0,4,,,,,,,,,4,,,57,92
16704,note_on,2,0,2,,,,,,,,,0,,,57,127
16704,note_on,2,0,1,,,,,,,,,11,,,57,127
16704,note_on,2,0,5,,,,,,,,,6,,,45,92
16704,note_on,2,0,6,,,,,,,,,8,,,33,92
16864,note_on,160,0,3,,,,,,,,,3,,,57,0
16864,note_on,160,0,1,,,,,,,,,11,,,57,0
16864,note_on,160,0,5,,,,,,,,,6,,,45,0
16864,note_on,160,0,4,,,,,,,,,4,,,57,0
16864,note_on,160,0,6,,,,,,,,,8,,,33,0
16864,note_on,160,0,2,,,,,,,,,0,,,57,0
16896,note_on,32,0,1,,,,,,,,,11,,,64,127
16896,note_on,32,0,5,,,,,,,,,6,,,45,92
16942,note_on,46,0,1,,,,,,,,,11,,,64,0
16944,note_on,2,0,1,,,,,,,,,11,,,69,127
16990,note_on,46,0,1,,,,,,,,,11,,,69,0
16992,note_on,2,0,1,,,,,,,,,11,,,73,127
17038,note_on,46,0,1,,,,,,,,,11,,,73,0
17040,note_on,2,0,1,,,,,,,,,11,,,69,127
17056,note_on,160,0,5,,,,,,,,,6,,,45,0
17086,note_on,46,0,1,,,,,,,,,11,,,69,0
17088,note_on,2,0,1,,,,,,,,,11,,,64,127
17088,note_on,32,0,5,,,,,,,,,6,,,45,92
17134,note_on,46,0,1,,,,,,,,,11,,,64,0
17136,note_on,2,0,1,,,,,,,,,11,,,69,127
17182,note_on,46,0,1,,,,,,,,,11,,,69,0
17184,note_on,2,0,1,,,,,,,,,11,,,73,127
17230,note_on,46,0,1,,,,,,,,,11,,,73,0
17232,note_on,2,0,1,,,,,,,,,11,,,69,127
17248,note_on,160,0,5,,,,,,,,,6,,,45,0
17278,note_on,46,0,1,,,,,,,,,11,,,69,0
17280,note_on,32,0,5,,,,,,,,,6,,,45,92
17280,note_on,2,0,1,,,,,,,,,11,,,64,127
17326,note_on,46,0,1,,,,,,,,,11,,,64,0
17328,note_on,2,0,1,,,,,,,,,11,,,73,127
17374,note_on,46,0,1,,,,,,,,,11,,,73,0
17376,note_on,2,0,1,,,,,,,,,11,,,76,127
17422,note_on,46,0,1,,,,,,,,,11,,,76,0
17424,note_on,2,0,1,,,,,,,,,11,,,73,127
17440,note_on,160,0,5,,,,,,,,,6,,,45,0
17470,note_on,46,0,1,,,,,,,,,11,,,73,0
17472,note_on,2,0,1,,,,,,,,,11,,,64,127
17472,note_on,32,0,5,,,,,,,,,6,,,45,92
17518,note_on,46,0,1,,,,,,,,,11,,,64,0
17520,note_on,2,0,1,,,,,,,,,11,,,73,127
17566,note_on,46,0,1,,,,,,,,,11,,,73,0
17568,note_on,2,0,1,,,,,,,,,11,,,76,127
17614,note_on,46,0,1,,,,,,,,,11,,,76,0
17616,note_on,2,0,1,,,,,,,,,11,,,73,127
17632,note_on,160,0,5,,,,,,,,,6,,,45,0
17662,note_on,46,0,1,,,,,,,,,11,,,73,0
17664,note_on,32,0,5,,,,,,,,,6,,,45,92
17664,note_on,2,0,1,,,,,,,,,11,,,64,127
17710,note_on,46,0,1,,,,,,,,,11,,,64,0
17712,note_on,2,0,1,,,,,,,,,11,,,76,127
17758,note_on,46,0,1,,,,,,,,,11,,,76,0
17760,note_on,2,0,1,,,,,,,,,11,,,81,127
17806,note_on,46,0,1,,,,,,,,,11,,,81,0
17808,note_on,2,0,1,,,,,,,,,11,,,76,127
17824,note_on,160,0,5,,,,,,,,,6,,,45,0
17854,note_on,46,0,1,,,,,,,,,11,,,76,0
17856,note_on,32,0,5,,,,,,,,,6,,,45,92
17856,note_on,2,0,1,,,,,,,,,11,,,64,127
17902,note_on,46,0,1,,,,,,,,,11,,,64,0
17904,note_on,2,0,1,,,,,,,,,11,,,76,127
17950,note_on,46,0,1,,,,,,,,,11,,,76,0
17952,note_on,2,0,1,,,,,,,,,11,,,81,127
17998,note_on,46,0,1,,,,,,,,,11,,,81,0
18000,note_on,2,0,1,,,,,,,,,11,,,76,127
18016,note_on,160,0,5,,,,,,,,,6,,,45,0
18046,note_on,46,0,1,,,,,,,,,11,,,76,0
18048,note_on,2,0,1,,,,,,,,,11,,,64,127
18048,note_on,32,0,5,,,,,,,,,6,,,45,92
18094,note_on,46,0,1,,,,,,,,,11,,,64,0
18096,note_on,2,0,1,,,,,,,,,11,,,81,127
18142,note_on,46,0,1,,,,,,,,,11,,,81,0
18144,note_on,2,0,1,,,,,,,,,11,,,85,127
18190,note_on,46,0,1,,,,,,,,,11,,,85,0
18192,note_on,2,0,1,,,,,,,,,11,,,81,127
18208,note_on,160,0,5,,,,,,,,,6,,,45,0
18238,note_on,46,0,1,,,,,,,,,11,,,81,0
18240,note_on,32,0,5,,,,,,,,,6,,,45,92
18240,note_on,2,0,1,,,,,,,,,11,,,64,127
18286,note_on,46,0,1,,,,,,,,,11,,,64,0
18288,note_on,2,0,1,,,,,,,,,11,,,81,127
18334,note_on,46,0,1,,,,,,,,,11,,,81,0
18336,note_on,2,0,1,,,,,,,,,11,,,85,127
18382,note_on,46,0,1,,,,,,,,,11,,,85,0
18384,note_on,2,0,1,,,,,,,,,11,,,81,127
18400,note_on,160,0,5,,,,,,,,,6,,,45,0
18430,note_on,46,0,1,,,,,,,,,11,,,81,0
18432,note_on,2,0,1,,,,,,,,,11,,,64,127
18432,note_on,32,0,5,,,,,,,,,6,,,45,92
18478,note_on,46,0,1,,,,,,,,,11,,,64,0
18480,note_on,2,0,1,,,,,,,,,11,,,85,127
18526,note_on,46,0,1,,,,,,,,,11,,,85,0
18528,note_on,2,0,1,,,,,,,,,11,,,88,127
18574,note_on,46,0,1,,,,,,,,,11,,,88,0
18576,note_on,2,0,1,,,,,,,,,11,,,85,127
18592,note_on,160,0,5,,,,,,,,,6,,,45,0
18622,note_on,46,0,1,,,,,,,,,11,,,85,0
18624,note_on,2,0,1,,,,,,,,,11,,,64,127
18624,note_on,32,0,5,,,,,,,,,6,,,45,92
18670,note_on,46,0,1,,,,,,,,,11,,,64,0
18672,note_on,2,0,1,,,,,,,,,11,,,85,127
18718,note_on,46,0,1,,,,,,,,,11,,,85,0
18720,note_on,2,0,1,,,,,,,,,11,,,88,127
18766,note_on,46,0,1,,,,,,,,,11,,,88,0
18768,note_on,2,0,1,,,,,,,,,11,,,85,127
18784,note_on,160,0,5,,,,,,,,,6,,,45,0
18814,note_on,46,0,1,,,,,,,,,11,,,85,0
18816,control_change,1952,0,2,,,,,,,,,0,10,0,,
18816,note_on,2,0,1,,,,,,,,,11,,,64,127
18816,note_on,0,0,2,,,,,,,,,0,,,64,127
18862,note_on,46,0,1,,,,,,,,,11,,,64,0
18864,note_on,2,0,1,,,,,,,,,11,,,81,127
18910,note_on,46,0,1,,,,,,,,,11,,,81,0
18912,note_on,2,0,1,,,,,,,,,11,,,85,127
18958,note_on,46,0,1,,,,,,,,,11,,,85,0
18960,note_on,2,0,1,,,,,,,,,11,,,81,127
18976,note_on,160,0,2,,,,,,,,,0,,,64,0
19006,note_on,46,0,1,,,,,,,,,11,,,81,0
19008,note_on,2,0,1,,,,,,,,,11,,,64,127
19008,note_on,32,0,2,,,,,,,,,0,,,64,127
19054,note_on,46,0,1,,,,,,,,,11,,,64,0
19056,note_on,2,0,1,,,,,,,,,11,,,81,127
19102,note_on,46,0,1,,,,,,,,,11,,,81,0
19104,note_on,2,0,1,,,,,,,,,11,,,85,127
19150,note_on,46,0,1,,,,,,,,,11,,,85,0
19152,note_on,2,0,1,,,,,,,,,11,,,81,127
19168,note_on,160,0,2,,,,,,,,,0,,,64,0
19198,note_on,46,0,1,,,,,,,,,11,,,81,0
19200,note_on,2,0,1,,,,,,,,,11,,,64,127
19200,note_on,32,0,2,,,,,,,,,0,,,64,127
19246,note_on,46,0,1,,,,,,,,,11,,,64,0
19248,note_on,2,0,1,,,,,,,,,11,,,80,127
19294,note_on,46,0,1,,,,,,,,,11,,,80,0
19296,note_on,2,0,1,,,,,,,,,11,,,83,127
19342,note_on,46,0,1,,,,,,,,,11,,,83,0
19344,note_on,2,0,1,,,,,,,,,11,,,80,127
19360,note_on,160,0,2,,,,,,,,,0,,,64,0
19390,note_on,46,0,1,,,,,,,,,11,,,80,0
19392,note_on,2,0,1,,,,,,,,,11,,,64,127
19392,note_on,32,0,2,,,,,,,,,0,,,64,127
19438,note_on,46,0,1,,,,,,,,,11,,,64,0
19440,note_on,2,0,1,,,,,,,,,11,,,80,127
19486,note_on,46,0,1,,,,,,,,,11,,,80,0
19488,note_on,2,0,1,,,,,,,,,11,,,83,127
19534,note_on,46,0,1,,,,,,,,,11,,,83,0
19536,note_on,2,0,1,,,,,,,,,11,,,80,127
19552,note_on,160,0,2,,,,,,,,,0,,,64,0
19582,note_on,46,0,1,,,,,,,,,11,,,80,0
19584,note_on,32,0,2,,,,,,,,,0,,,64,127
19584,note_on,2,0,1,,,,,,,,,11,,,64,127
19630,note_on,46,0,1,,,,,,,,,11,,,64,0
19632,note_on,2,0,1,,,,,,,,,11,,,81,127
19678,note_on,46,0,1,,,,,,,,,11,,,81,0
19680,note_on,2,0,1,,,,,,,,,11,,,85,127
19726,note_on,46,0,1,,,,,,,,,11,,,85,0
19728,note_on,2,0,1,,,,,,,,,11,,,81,127
19744,note_on,160,0,2,,,,,,,,,0,,,64,0
19774,note_on,46,0,1,,,,,,,,,11,,,81,0
19776,note_on,2,0,1,,,,,,,,,11,,,64,127
19776,note_on,32,0,2,,,,,,,,,0,,,64,127
19822,note_on,46,0,1,,,,,,,,,11,,,64,0
19824,note_on,2,0,1,,,,,,,,,11,,,81,127
19870,note_on,46,0,1,,,,,,,,,11,,,81,0
19872,note_on,2,0,1,,,,,,,,,11,,,85,127
19918,note_on,46,0,1,,,,,,,,,11,,,85,0
19920,note_on,2,0,1,,,,,,,,,11,,,81,127
19936,note_on,160,0,2,,,,,,,,,0,,,64,0
19966,note_on,46,0,1,,,,,,,,,11,,,81,0
19968,note_on,1184,0,5,,,,,,,,,6,,,52,92
19968,note_on,2,0,1,,,,,,,,,11,,,64,127
19968,note_on,32,0,2,,,,,,,,,0,,,64,127
19992,note_on,24,0,1,,,,,,,,,11,,,76,127
20016,note_on,24,0,1,,,,,,,,,11,,,83,127
20062,note_on,94,0,5,,,,,,,,,6,,,52,0
20064,note_on,2,0,5,,,,,,,,,6,,,50,92
20128,note_on,160,0,2,,,,,,,,,0,,,64,0
20128,note_on,112,0,1,,,,,,,,,11,,,64,0
20152,note_on,24,0,1,,,,,,,,,11,,,76,0
20158,note_on,6,0,1,,,,,,,,,11,,,83,0
20158,note_on,94,0,5,,,,,,,,,6,,,50,0
20160,note_on,2,0,5,,,,,,,,,6,,,49,92
20254,note_on,94,0,5,,,,,,,,,6,,,49,0
20256,note_on,2,0,5,,,,,,,,,6,,,47,92
20350,note_on,94,0,5,,,,,,,,,6,,,47,0
20352,note_on,2,0,5,,,,,,,,,6,,,45,92
20352,note_on,194,0,1,,,,,,,,,11,,,64,127
20352,note_on,224,0,2,,,,,,,,,0,,,64,127
20398,note_on,46,0,1,,,,,,,,,11,,,64,0
20400,note_on,2,0,1,,,,,,,,,11,,,81,127
20446,note_on,46,0,1,,,,,,,,,11,,,81,0
20448,note_on,2,0,1,,,,,,,,,11,,,85,127
20494,note_on,46,0,1,,,,,,,,,11,,,85,0
20496,note_on,2,0,1,,,,,,,,,11,,,81,127
20512,note_on,160,0,2,,,,,,,,,0,,,64,0
20512,note_on,160,0,5,,,,,,,,,6,,,45,0
20542,note_on,46,0,1,,,,,,,,,11,,,81,0
20544,note_on,32,0,2,,,,,,,,,0,,,64,127
20544,note_on,2,0,1,,,,,,,,,11,,,64,127
20590,note_on,46,0,1,,,,,,,,,11,,,64,0
20592,note_on,2,0,1,,,,,,,,,11,,,81,127
20638,note_on,46,0,1,,,,,,,,,11,,,81,0
20640,note_on,2,0,1,,,,,,,,,11,,,85,127
20686,note_on,46,0,1,,,,,,,,,11,,,85,0
20688,note_on,2,0,1,,,,,,,,,11,,,81,127
20704,note_on,160,0,2,,,,,,,,,0,,,64,0
20734,note_on,46,0,1,,,,,,,,,11,,,81,0
20736,note_on,32,0,2,,,,,,,,,0,,,64,127
20736,note_on,2,0,1,,,,,,,,,11,,,64,127
20782,note_on,46,0,1,,,,,,,,,11,,,64,0
20784,note_on,2,0,1,,,,,,,,,11,,,80,127
20830,note_on,46,0,1,,,,,,,,,11,,,80,0
20832,note_on,2,0,1,,,,,,,,,11,,,83,127
20878,note_on,46,0,1,,,,,,,,,11,,,83,0
20880,note_on,2,0,1,,,,,,,,,11,,,80,127
20896,note_on,160,0,2,,,,,,,,,0,,,64,0
20926,note_on,46,0,1,,,,,,,,,11,,,80,0
20928,note_on,2,0,1,,,,,,,,,11,,,64,127
20928,note_on,32,0,2,,,,,,,,,0,,,64,127
20974,note_on,46,0,1,,,,,,,,,11,,,64,0
20976,note_on,2,0,1,,,,,,,,,11,,,80,127
21022,note_on,46,0,1,,,,,,,,,11,,,80,0
21024,note_on,2,0,1,,,,,,,,,11,,,83,127
21070,note_on,46,0,1,,,,,,,,,11,,,83,0
21072,note_on,2,0,1,,,,,,,,,11,,,80,127
21088,note_on,160,0,2,,,,,,,,,0,,,64,0
21118,note_on,46,0,1,,,,,,,,,11,,,80,0
21120,note_on,2,0,1,,,,,,,,,11,,,64,127
21120,note_on,32,0,2,,,,,,,,,0,,,64,127
21166,note_on,46,0,1,,,,,,,,,11,,,64,0
21168,note_on,2,0,1,,,,,,,,,11,,,81,127
21214,note_on,46,0,1,,,,,,,,,11,,,81,0
21216,note_on,2,0,1,,,,,,,,,11,,,85,127
21262,note_on,46,0,1,,,,,,,,,11,,,85,0
21264,note_on,2,0,1,,,,,,,,,11,,,81,127
21280,note_on,160,0,2,,,,,,,,,0,,,64,0
21310,note_on,46,0,1,,,,,,,,,11,,,81,0
21312,note_on,2,0,1,,,,,,,,,11,,,64,127
21312,note_on,32,0,2,,,,,,,,,0,,,64,127
21358,note_on,46,0,1,,,,,,,,,11,,,64,0
21360,note_on,2,0,1,,,,,,,,,11,,,81,127
21406,note_on,46,0,1,,,,,,,,,11,,,81,0
21408,note_on,2,0,1,,,,,,,,,11,,,85,127
21454,note_on,46,0,1,,,,,,,,,11,,,85,0
21456,note_on,2,0,1,,,,,,,,,11,,,81,127
21472,note_on,160,0,2,,,,,,,,,0,,,64,0
21502,note_on,46,0,1,,,,,,,,,11,,,81,0
21504,note_on,992,0,5,,,,,,,,,6,,,52,92
21504,note_on,32,0,2,,,,,,,,,0,,,64,127
21504,note_on,2,0,1,,,,,,,,,11,,,64,127
21528,note_on,24,0,1,,,,,,,,,11,,,76,127
21552,note_on,24,0,1,,,,,,,,,11,,,83,127
21598,note_on,94,0,5,,,,,,,,,6,,,52,0
21600,note_on,2,0,5,,,,,,,,,6,,,50,92
21664,note_on,112,0,1,,,,,,,,,11,,,64,0
21664,note_on,160,0,2,,,,,,,,,0,,,64,0
21688,note_on,24,0,1,,,,,,,,,11,,,76,0
21694,note_on,6,0,1,,,,,,,,,11,,,83,0
21694,note_on,94,0,5,,,,,,,,,6,,,50,0
21696,note_on,2,0,5,,,,,,,,,6,,,49,92
21790,note_on,94,0,5,,,,,,,,,6,,,49,0
21792,note_on,2,0,5,,,,,,,,,6,,,45,92
21886,note_on,94,0,5,,,,,,,,,6,,,45,0
21888,note_on,2,0,5,,,,,,,,,6,,,52,92
21888,note_on,194,0,1,,,,,,,,,11,,,88,127
21934,note_on,46,0,1,,,,,,,,,11,,,88,0
21936,note_on,2,0,1,,,,,,,,,11,,,80,127
21982,note_on,46,0,1,,,,,,,,,11,,,80,0
21984,note_on,320,0,2,,,,,,,,,0,,,64,127
21984,note_on,2,0,1,,,,,,,,,11,,,78,127
22030,note_on,46,0,1,,,,,,,,,11,,,78,0
22032,note_on,2,0,1,,,,,,,,,11,,,80,127
22048,note_on,160,0,5,,,,,,,,,6,,,52,0
22078,note_on,46,0,1,,,,,,,,,11,,,80,0
22078,note_on,94,0,2,,,,,,,,,0,,,64,0
22080,note_on,2,0,2,,,,,,,,,0,,,71,127
22080,note_on,2,0,1,,,,,,,,,11,,,64,127
22126,note_on,46,0,1,,,,,,,,,11,,,64,0
22128,note_on,2,0,1,,,,,,,,,11,,,80,127
22174,note_on,46,0,1,,,,,,,,,11,,,80,0
22174,note_on,94,0,2,,,,,,,,,0,,,71,0
22176,note_on,2,0,1,,,,,,,,,11,,,78,127
22176,note_on,2,0,2,,,,,,,,,0,,,64,127
22222,note_on,46,0,1,,,,,,,,,11,,,78,0
22224,note_on,2,0,1,,,,,,,,,11,,,80,127
22270,note_on,46,0,1,,,,,,,,,11,,,80,0
22270,note_on,94,0,2,,,,,,,,,0,,,64,0
22272,note_on,2,0,1,,,,,,,,,11,,,64,127
22318,note_on,46,0,1,,,,,,,,,11,,,64,0
22320,note_on,2,0,1,,,,,,,,,11,,,80,127
22366,note_on,46,0,1,,,,,,,,,11,,,80,0
22368,note_on,2,0,1,,,,,,,,,11,,,64,127
22414,note_on,46,0,1,,,,,,,,,11,,,64,0
22416,note_on,2,0,1,,,,,,,,,11,,,80,127
22462,note_on,46,0,1,,,,,,,,,11,,,80,0
22464,note_on,2,0,1,,,,,,,,,11,,,71,127
22510,note_on,46,0,1,,,,,,,,,11,,,71,0
22512,note_on,2,0,1,,,,,,,,,11,,,80,127
22558,note_on,46,0,1,,,,,,,,,11,,,80,0
22560,note_on,2,0,1,,,,,,,,,11,,,64,127
22606,note_on,46,0,1,,,,,,,,,11,,,64,0
22608,note_on,2,0,1,,,,,,,,,11,,,80,127
22654,note_on,46,0,1,,,,,,,,,11,,,80,0
22656,note_on,2,0,1,,,,,,,,,11,,,88,127
22702,note_on,46,0,1,,,,,,,,,11,,,88,0
22704,note_on,2,0,1,,,,,,,,,11,,,78,127
22750,note_on,46,0,1,,,,,,,,,11,,,78,0
22752,note_on,482,0,2,,,,,,,,,0,,,64,127
22752,note_on,2,0,1,,,,,,,,,11,,,76,127
22798,note_on,46,0,1,,,,,,,,,11,,,76,0
22800,note_on,2,0,1,,,,,,,,,11,,,78,127
22846,note_on,46,0,1,,,,,,,,,11,,,78,0
22846,note_on,94,0,2,,,,,,,,,0,,,64,0
22848,note_on,2,0,2,,,,,,,,,0,,,71,127
22848,note_on,2,0,1,,,,,,,,,11,,,64,127
22894,note_on,46,0,1,,,,,,,,,11,,,64,0
22896,note_on,2,0,1,,,,,,,,,11,,,78,127
22942,note_on,46,0,1,,,,,,,,,11,,,78,0
22942,note_on,94,0,2,,,,,,,,,0,,,71,0
22944,note_on,2,0,2,,,,,,,,,0,,,64,127
22944,note_on,2,0,1,,,,,,,,,11,,,76,127
22990,note_on,46,0,1,,,,,,,,,11,,,76,0
22992,note_on,2,0,1,,,,,,,,,11,,,78,127
23038,note_on,46,0,1,,,,,,,,,11,,,78,0
23038,note_on,94,0,2,,,,,,,,,0,,,64,0
23040,note_on,2,0,1,,,,,,,,,11,,,64,127
23086,note_on,46,0,1,,,,,,,,,11,,,64,0
23088,note_on,2,0,1,,,,,,,,,11,,,78,127
23134,note_on,46,0,1,,,,,,,,,11,,,78,0
23136,note_on,2,0,1,,,,,,,,,11,,,64,127
23182,note_on,46,0,1,,,,,,,,,11,,,64,0
23184,note_on,2,0,1,,,,,,,,,11,,,78,127
23230,note_on,46,0,1,,,,,,,,,11,,,78,0
23232,note_on,2,0,1,,,,,,,,,11,,,71,127
23278,note_on,46,0,1,,,,,,,,,11,,,71,0
23280,note_on,2,0,1,,,,,,,,,11,,,78,127
23326,note_on,46,0,1,,,,,,,,,11,,,78,0
23328,note_on,2,0,1,,,,,,,,,11,,,64,127
23374,note_on,46,0,1,,,,,,,,,11,,,64,0
23376,note_on,2,0,1,,,,,,,,,11,,,78,127
23422,note_on,46,0,1,,,,,,,,,11,,,78,0
23424,note_on,2,0,1,,,,,,,,,11,,,86,127
23470,note_on,46,0,1,,,,,,,,,11,,,86,0
23472,note_on,2,0,1,,,,,,,,,11,,,78,127
23518,note_on,46,0,1,,,,,,,,,11,,,78,0
23520,note_on,2,0,1,,,,,,,,,11,,,76,127
23520,note_on,482,0,2,,,,,,,,,0,,,64,127
23566,note_on,46,0,1,,,,,,,,,11,,,76,0
23568,note_on,2,0,1,,,,,,,,,11,,,78,127
23614,note_on,94,0,2,,,,,,,,,0,,,64,0
23614,note_on,46,0,1,,,,,,,,,11,,,78,0
23616,note_on,2,0,2,,,,,,,,,0,,,69,127
23616,note_on,2,0,1,,,,,,,,,11,,,64,127
23662,note_on,46,0,1,,,,,,,,,11,,,64,0
23664,note_on,2,0,1,,,,,,,,,11,,,78,127
23710,note_on,94,0,2,,,,,,,,,0,,,69,0
23710,note_on,46,0,1,,,,,,,,,11,,,78,0
23712,note_on,2,0,1,,,,,,,,,11,,,76,127
23712,note_on,2,0,2,,,,,,,,,0,,,64,127
23758,note_on,46,0,1,,,,,,,,,11,,,76,0
23760,note_on,2,0,1,,,,,,,,,11,,,78,127
23806,note_on,94,0,2,,,,,,,,,0,,,64,0
23806,note_on,46,0,1,,,,,,,,,11,,,78,0
23808,note_on,2,0,1,,,,,,,,,11,,,64,127
23854,note_on,46,0,1,,,,,,,,,11,,,64,0
23856,note_on,2,0,1,,,,,,,,,11,,,78,127
23902,note_on,46,0,1,,,,,,,,,11,,,78,0
23904,note_on,2,0,1,,,,,,,,,11,,,64,127
23950,note_on,46,0,1,,,,,,,,,11,,,64,0
23952,note_on,2,0,1,,,,,,,,,11,,,78,127
23998,note_on,46,0,1,,,,,,,,,11,,,78,0
24000,note_on,2,0,1,,,,,,,,,11,,,69,127
24046,note_on,46,0,1,,,,,,,,,11,,,69,0
24048,note_on,2,0,1,,,,,,,,,11,,,78,127
24094,note_on,46,0,1,,,,,,,,,11,,,78,0
24096,note_on,2,0,1,,,,,,,,,11,,,64,127
24142,note_on,46,0,1,,,,,,,,,11,,,64,0
24144,note_on,2,0,1,,,,,,,,,11,,,78,127
24190,note_on,46,0,1,,,,,,,,,11,,,78,0
24192,note_on,2,0,1,,,,,,,,,11,,,86,127
24238,note_on,46,0,1,,,,,,,,,11,,,86,0
24240,note_on,2,0,1,,,,,,,,,11,,,76,127
24286,note_on,46,0,1,,,,,,,,,11,,,76,0
24288,note_on,482,0,2,,,,,,,,,0,,,64,127
24288,note_on,2,0,1,,,,,,,,,11,,,74,127
24334,note_on,46,0,1,,,,,,,,,11,,,74,0
24336,note_on,2,0,1,,,,,,,,,11,,,76,127
24382,note_on,46,0,1,,,,,,,,,11,,,76,0
24382,note_on,94,0,2,,,,,,,,,0,,,64,0
24384,note_on,2,0,2,,,,,,,,,0,,,69,127
24384,note_on,2,0,1,,,,,,,,,11,,,64,127
24430,note_on,46,0,1,,,,,,,,,11,,,64,0
24432,note_on,2,0,1,,,,,,,,,11,,,76,127
24478,note_on,94,0,2,,,,,,,,,0,,,69,0
24478,note_on,46,0,1,,,,,,,,,11,,,76,0
24480,note_on,2,0,1,,,,,,,,,11,,,74,127
24480,note_on,2,0,2,,,,,,,,,0,,,64,127
24526,note_on,46,0,1,,,,,,,,,11,,,74,0
24528,note_on,2,0,1,,,,,,,,,11,,,76,127
24574,note_on,46,0,1,,,,,,,,,11,,,76,0
24574,note_on,94,0,2,,,,,,,,,0,,,64,0
24576,note_on,2,0,1,,,,,,,,,11,,,64,127
24622,note_on,46,0,1,,,,,,,,,11,,,64,0
24624,note_on,2,0,1,,,,,,,,,11,,,76,127
24670,note_on,46,0,1,,,,,,,,,11,,,76,0
24672,note_on,2,0,1,,,,,,,,,11,,,64,127
24718,note_on,46,0,1,,,,,,,,,11,,,64,0
24720,note_on,2,0,1,,,,,,,,,11,,,76,127
24766,note_on,46,0,1,,,,,,,,,11,,,76,0
24768,note_on,2,0,1,,,,,,,,,11,,,69,127
24814,note_on,46,0,1,,,,,,,,,11,,,69,0
24816,note_on,2,0,1,,,,,,,,,11,,,76,127
24862,note_on,46,0,1,,,,,,,,,11,,,76,0
24864,note_on,2,0,1,,,,,,,,,11,,,64,127
24910,note_on,46,0,1,,,,,,,,,11,,,64,0
24912,note_on,2,0,1,,,,,,,,,11,,,76,127
24958,note_on,46,0,1,,,,,,,,,11,,,76,0
24960,note_on,2,0,1,,,,,,,,,11,,,85,127
25006,note_on,46,0,1,,,,,,,,,11,,,85,0
25008,note_on,2,0,1,,,,,,,,,11,,,76,127
25054,note_on,46,0,1,,,,,,,,,11,,,76,0
25056,note_on,2,0,1,,,,,,,,,11,,,74,127
25056,note_on,482,0,2,,,,,,,,,0,,,64,127
25102,note_on,46,0,1,,,,,,,,,11,,,74,0
25104,note_on,2,0,1,,,,,,,,,11,,,76,127
25150,note_on,94,0,2,,,,,,,,,0,,,64,0
25150,note_on,46,0,1,,,,,,,,,11,,,76,0
25152,note_on,2,0,1,,,,,,,,,11,,,64,127
25152,note_on,2,0,2,,,,,,,,,0,,,69,127
25198,note_on,46,0,1,,,,,,,,,11,,,64,0
25200,note_on,2,0,1,,,,,,,,,11,,,76,127
25246,note_on,46,0,1,,,,,,,,,11,,,76,0
25246,note_on,94,0,2,,,,,,,,,0,,,69,0
25248,note_on,2,0,2,,,,,,,,,0,,,64,127
25248,note_on,2,0,1,,,,,,,,,11,,,74,127
25294,note_on,46,0,1,,,,,,,,,11,,,74,0
25296,note_on,2,0,1,,,,,,,,,11,,,76,127
25342,note_on,94,0,2,,,,,,,,,0,,,64,0
25342,note_on,46,0,1,,,,,,,,,11,,,76,0
25344,note_on,2,0,1,,,,,,,,,11,,,64,127
25390,note_on,46,0,1,,,,,,,,,11,,,64,0
25392,note_on,2,0,1,,,,,,,,,11,,,76,127
25438,note_on,46,0,1,,,,,,,,,11,,,76,0
25440,note_on,2,0,1,,,,,,,,,11,,,64,127
25486,note_on,46,0,1,,,,,,,,,11,,,64,0
25488,note_on,2,0,1,,,,,,,,,11,,,76,127
25534,note_on,46,0,1,,,,,,,,,11,,,76,0
25536,note_on,2,0,1,,,,,,,,,11,,,66,127
25582,note_on,46,0,1,,,,,,,,,11,,,66,0
25584,note_on,2,0,1,,,,,,,,,11,,,76,127
25630,note_on,46,0,1,,,,,,,,,11,,,76,0
25632,note_on,2,0,1,,,,,,,,,11,,,64,127
25678,note_on,46,0,1,,,,,,,,,11,,,64,0
25680,note_on,2,0,1,,,,,,,,,11,,,76,127
25726,note_on,46,0,1,,,,,,,,,11,,,76,0
25728,note_on,2,0,1,,,,,,,,,11,,,85,127
25774,note_on,46,0,1,,,,,,,,,11,,,85,0
25776,note_on,2,0,1,,,,,,,,,11,,,74,127
25822,note_on,46,0,1,,,,,,,,,11,,,74,0
25824,note_on,2,0,1,,,,,,,,,11,,,73,127
25824,note_on,482,0,2,,,,,,,,,0,,,64,127
25870,note_on,46,0,1,,,,,,,,,11,,,73,0
25872,note_on,2,0,1,,,,,,,,,11,,,74,127
25918,note_on,46,0,1,,,,,,,,,11,,,74,0
25918,note_on,94,0,2,,,,,,,,,0,,,64,0
25920,note_on,2,0,1,,,,,,,,,11,,,64,127
25920,note_on,2,0,2,,,,,,,,,0,,,68,127
25966,note_on,46,0,1,,,,,,,,,11,,,64,0
25968,note_on,2,0,1,,,,,,,,,11,,,74,127
26014,note_on,46,0,1,,,,,,,,,11,,,74,0
26014,note_on,94,0,2,,,,,,,,,0,,,68,0
26016,note_on,2,0,2,,,,,,,,,0,,,64,127
26016,note_on,2,0,1,,,,,,,,,11,,,73,127
26062,note_on,46,0,1,,,,,,,,,11,,,73,0
26064,note_on,2,0,1,,,,,,,,,11,,,74,127
26110,note_on,94,0,2,,,,,,,,,0,,,64,0
26110,note_on,46,0,1,,,,,,,,,11,,,74,0
26112,note_on,2,0,1,,,,,,,,,11,,,64,127
26158,note_on,46,0,1,,,,,,,,,11,,,64,0
26160,note_on,2,0,1,,,,,,,,,11,,,74,127
26206,note_on,46,0,1,,,,,,,,,11,,,74,0
26208,note_on,2,0,1,,,,,,,,,11,,,64,127
26254,note_on,46,0,1,,,,,,,,,11,,,64,0
26256,note_on,2,0,1,,,,,,,,,11,,,74,127
26302,note_on,46,0,1,,,,,,,,,11,,,74,0
26304,note_on,2,0,1,,,,,,,,,11,,,66,127
26350,note_on,46,0,1,,,,,,,,,11,,,66,0
26352,note_on,2,0,1,,,,,,,,,11,,,74,127
26398,note_on,46,0,1,,,,,,,,,11,,,74,0
26400,note_on,2,0,1,,,,,,,,,11,,,64,127
26446,note_on,46,0,1,,,,,,,,,11,,,64,0
26448,note_on,2,0,1,,,,,,,,,11,,,74,127
26494,note_on,46,0,1,,,,,,,,,11,,,74,0
26496,note_on,2,0,1,,,,,,,,,11,,,83,127
26542,note_on,46,0,1,,,,,,,,,11,,,83,0
26544,note_on,2,0,1,,,,,,,,,11,,,74,127
26590,note_on,46,0,1,,,,,,,,,11,,,74,0
26592,note_on,482,0,2,,,,,,,,,0,,,64,127
26592,note_on,2,0,1,,,,,,,,,11,,,73,127
26638,note_on,46,0,1,,,,,,,,,11,,,73,0
26640,note_on,2,0,1,,,,,,,,,11,,,74,127
26686,note_on,94,0,2,,,,,,,,,0,,,64,0
26686,note_on,46,0,1,,,,,,,,,11,,,74,0
26688,note_on,2,0,1,,,,,,,,,11,,,64,127
26688,note_on,2,0,2,,,,,,,,,0,,,68,127
26734,note_on,46,0,1,,,,,,,,,11,,,64,0
26736,note_on,2,0,1,,,,,,,,,11,,,74,127
26782,note_on,46,0,1,,,,,,,,,11,,,74,0
26782,note_on,94,0,2,,,,,,,,,0,,,68,0
26784,note_on,2,0,1,,,,,,,,,11,,,73,127
26784,note_on,2,0,2,,,,,,,,,0,,,64,127
26830,note_on,46,0,1,,,,,,,,,11,,,73,0
26832,note_on,2,0,1,,,,,,,,,11,,,74,127
26878,note_on,46,0,1,,,,,,,,,11,,,74,0
26878,note_on,94,0,2,,,,,,,,,0,,,64,0
26880,note_on,2,0,1,,,,,,,,,11,,,64,127
26926,note_on,46,0,1,,,,,,,,,11,,,64,0
26928,note_on,2,0,1,,,,,,,,,11,,,74,127
26974,note_on,46,0,1,,,,,,,,,11,,,74,0
26976,note_on,2,0,1,,,,,,,,,11,,,64,127
27022,note_on,46,0,1,,,,,,,,,11,,,64,0
27024,note_on,2,0,1,,,,,,,,,11,,,74,127
27070,note_on,46,0,1,,,,,,,,,11,,,74,0
27072,note_on,2,0,1,,,,,,,,,11,,,66,127
27118,note_on,46,0,1,,,,,,,,,11,,,66,0
27120,note_on,2,0,1,,,,,,,,,11,,,74,127
27166,note_on,46,0,1,,,,,,,,,11,,,74,0
27168,note_on,2,0,1,,,,,,,,,11,,,64,127
27214,note_on,46,0,1,,,,,,,,,11,,,64,0
27216,note_on,2,0,1,,,,,,,,,11,,,74,127
27262,note_on,46,0,1,,,,,,,,,11,,,74,0
27264,note_on,2,0,1,,,,,,,,,11,,,83,127
27310,note_on,46,0,1,,,,,,,,,11,,,83,0
27312,note_on,2,0,1,,,,,,,,,11,,,73,127
27358,note_on,46,0,1,,,,,,,,,11,,,73,0
27360,note_on,2,0,1,,,,,,,,,11,,,71,127
27360,note_on,482,0,2,,,,,,,,,0,,,64,127
27406,note_on,46,0,1,,,,,,,,,11,,,71,0
27408,note_on,2,0,1,,,,,,,,,11,,,73,127
27454,note_on,46,0,1,,,,,,,,,11,,,73,0
27454,note_on,94,0,2,,,,,,,,,0,,,64,0
27456,note_on,2,0,2,,,,,,,,,0,,,66,127
27456,note_on,2,0,1,,,,,,,,,11,,,64,127
27502,note_on,46,0,1,,,,,,,,,11,,,64,0
27504,note_on,2,0,1,,,,,,,,,11,,,73,127
27550,note_on,46,0,1,,,,,,,,,11,,,73,0
27550,note_on,94,0,2,,,,,,,,,0,,,66,0
27552,note_on,2,0,1,,,,,,,,,11,,,74,127
27552,note_on,2,0,2,,,,,,,,,0,,,64,127
27598,note_on,46,0,1,,,,,,,,,11,,,74,0
27600,note_on,2,0,1,,,,,,,,,11,,,73,127
27646,note_on,46,0,1,,,,,,,,,11,,,73,0
27646,note_on,94,0,2,,,,,,,,,0,,,64,0
27648,note_on,2,0,1,,,,,,,,,11,,,64,127
27694,note_on,46,0,1,,,,,,,,,11,,,64,0
27696,note_on,2,0,1,,,,,,,,,11,,,73,127
27742,note_on,46,0,1,,,,,,,,,11,,,73,0
27744,note_on,2,0,1,,,,,,,,,11,,,64,127
27790,note_on,46,0,1,,,,,,,,,11,,,64,0
27792,note_on,2,0,1,,,,,,,,,11,,,73,127
27838,note_on,46,0,1,,,,,,,,,11,,,73,0
27840,note_on,2,0,1,,,,,,,,,11,,,66,127
27886,note_on,46,0,1,,,,,,,,,11,,,66,0
27888,note_on,2,0,1,,,,,,,,,11,,,73,127
27934,note_on,46,0,1,,,,,,,,,11,,,73,0
27936,note_on,2,0,1,,,,,,,,,11,,,64,127
27982,note_on,46,0,1,,,,,,,,,11,,,64,0
27984,note_on,2,0,1,,,,,,,,,11,,,73,127
28030,note_on,46,0,1,,,,,,,,,11,,,73,0
28032,note_on,2,0,1,,,,,,,,,11,,,81,127
28078,note_on,46,0,1,,,,,,,,,11,,,81,0
28080,note_on,2,0,1,,,,,,,,,11,,,73,127
28126,note_on,46,0,1,,,,,,,,,11,,,73,0
28128,note_on,482,0,2,,,,,,,,,0,,,64,127
28128,note_on,2,0,1,,,,,,,,,11,,,71,127
28174,note_on,46,0,1,,,,,,,,,11,,,71,0
28176,note_on,2,0,1,,,,,,,,,11,,,73,127
28222,note_on,46,0,1,,,,,,,,,11,,,73,0
28222,note_on,94,0,2,,,,,,,,,0,,,64,0
28224,note_on,2,0,1,,,,,,,,,11,,,64,127
28224,note_on,2,0,2,,,,,,,,,0,,,66,127
28270,note_on,46,0,1,,,,,,,,,11,,,64,0
28272,note_on,2,0,1,,,,,,,,,11,,,73,127
28318,note_on,46,0,1,,,,,,,,,11,,,73,0
28318,note_on,94,0,2,,,,,,,,,0,,,66,0
28320,note_on,2,0,2,,,,,,,,,0,,,64,127
28320,note_on,2,0,1,,,,,,,,,11,,,74,127
28366,note_on,46,0,1,,,,,,,,,11,,,74,0
28368,note_on,2,0,1,,,,,,,,,11,,,73,127
28414,note_on,46,0,1,,,,,,,,,11,,,73,0
28414,note_on,94,0,2,,,,,,,,,0,,,64,0
28416,note_on,2,0,1,,,,,,,,,11,,,64,127
28462,note_on,46,0,1,,,,,,,,,11,,,64,0
28464,note_on,2,0,1,,,,,,,,,11,,,73,127
28510,note_on,46,0,1,,,,,,,,,11,,,73,0
28512,note_on,2,0,1,,,,,,,,,11,,,64,127
28558,note_on,46,0,1,,,,,,,,,11,,,64,0
28560,note_on,2,0,1,,,,,,,,,11,,,73,127
28606,note_on,46,0,1,,,,,,,,,11,,,73,0
28608,note_on,2,0,1,,,,,,,,,11,,,66,127
28654,note_on,46,0,1,,,,,,,,,11,,,66,0
28656,note_on,2,0,1,,,,,,,,,11,,,73,127
28702,note_on,46,0,1,,,,,,,,,11,,,73,0
28704,note_on,2,0,1,,,,,,,,,11,,,64,127
28750,note_on,46,0,1,,,,,,,,,11,,,64,0
28752,note_on,2,0,1,,,,,,,,,11,,,73,127
28798,note_on,46,0,1,,,,,,,,,11,,,73,0
28800,note_on,2,0,1,,,,,,,,,11,,,80,127
28846,note_on,46,0,1,,,,,,,,,11,,,80,0
28848,note_on,2,0,1,,,,,,,,,11,,,71,127
28894,note_on,46,0,1,,,,,,,,,11,,,71,0
28896,note_on,482,0,2,,,,,,,,,0,,,64,127
28896,note_on,2,0,1,,,,,,,,,11,,,69,127
28942,note_on,46,0,1,,,,,,,,,11,,,69,0
28944,note_on,2,0,1,,,,,,,,,11,,,71,127
28990,note_on,94,0,2,,,,,,,,,0,,,64,0
28990,note_on,46,0,1,,,,,,,,,11,,,71,0
28992,note_on,2,0,2,,,,,,,,,0,,,68,127
28992,note_on,2,0,1,,,,,,,,,11,,,64,127
29038,note_on,46,0,1,,,,,,,,,11,,,64,0
29040,note_on,2,0,1,,,,,,,,,11,,,71,127
29086,note_on,46,0,1,,,,,,,,,11,,,71,0
29086,note_on,94,0,2,,,,,,,,,0,,,68,0
29088,note_on,2,0,1,,,,,,,,,11,,,73,127
29088,note_on,2,0,2,,,,,,,,,0,,,64,127
29134,note_on,46,0,1,,,,,,,,,11,,,73,0
29136,note_on,2,0,1,,,,,,,,,11,,,71,127
29182,note_on,94,0,2,,,,,,,,,0,,,64,0
29182,note_on,46,0,1,,,,,,,,,11,,,71,0
29184,note_on,2,0,1,,,,,,,,,11,,,64,127
29230,note_on,46,0,1,,,,,,,,,11,,,64,0
29232,note_on,2,0,1,,,,,,,,,11,,,71,127
29278,note_on,46,0,1,,,,,,,,,11,,,71,0
29280,note_on,2,0,1,,,,,,,,,11,,,64,127
29326,note_on,46,0,1,,,,,,,,,11,,,64,0
29328,note_on,2,0,1,,,,,,,,,11,,,71,127
29374,note_on,46,0,1,,,,,,,,,11,,,71,0
29376,note_on,2,0,1,,,,,,,,,11,,,68,127
29422,note_on,46,0,1,,,,,,,,,11,,,68,0
29424,note_on,2,0,1,,,,,,,,,11,,,71,127
29470,note_on,46,0,1,,,,,,,,,11,,,71,0
29472,note_on,2,0,1,,,,,,,,,11,,,64,127
29518,note_on,46,0,1,,,,,,,,,11,,,64,0
29520,note_on,2,0,1,,,,,,,,,11,,,71,127
29566,note_on,46,0,1,,,,,,,,,11,,,71,0
29568,note_on,2,0,1,,,,,,,,,11,,,81,127
29614,note_on,46,0,1,,,,,,,,,11,,,81,0
29616,note_on,2,0,1,,,,,,,,,11,,,73,127
29662,note_on,46,0,1,,,,,,,,,11,,,73,0
29664,note_on,482,0,2,,,,,,,,,0,,,64,127
29664,note_on,2,0,1,,,,,,,,,11,,,71,127
29710,note_on,46,0,1,,,,,,,,,11,,,71,0
29712,note_on,2,0,1,,,,,,,,,11,,,73,127
29758,note_on,46,0,1,,,,,,,,,11,,,73,0
29758,note_on,94,0,2,,,,,,,,,0,,,64,0
29760,note_on,2,0,2,,,,,,,,,0,,,66,127
29760,note_on,2,0,1,,,,,,,,,11,,,64,127
29806,note_on,46,0,1,,,,,,,,,11,,,64,0
29808,note_on,2,0,1,,,,,,,,,11,,,73,127
29854,note_on,46,0,1,,,,,,,,,11,,,73,0
29854,note_on,94,0,2,,,,,,,,,0,,,66,0
29856,note_on,2,0,2,,,,,,,,,0,,,64,127
29856,note_on,2,0,1,,,,,,,,,11,,,74,127
29902,note_on,46,0,1,,,,,,,,,11,,,74,0
29904,note_on,2,0,1,,,,,,,,,11,,,73,127
29950,note_on,94,0,2,,,,,,,,,0,,,64,0
29950,note_on,46,0,1,,,,,,,,,11,,,73,0
29952,note_on,2,0,1,,,,,,,,,11,,,64,127
29998,note_on,46,0,1,,,,,,,,,11,,,64,0
30000,note_on,2,0,1,,,,,,,,,11,,,73,127
30046,note_on,46,0,1,,,,,,,,,11,,,73,0
30048,note_on,2,0,1,,,,,,,,,11,,,64,127
30094,note_on,46,0,1,,,,,,,,,11,,,64,0
30096,note_on,2,0,1,,,,,,,,,11,,,73,127
30142,note_on,46,0,1,,,,,,,,,11,,,73,0
30144,note_on,2,0,1,,,,,,,,,11,,,66,127
30190,note_on,46,0,1,,,,,,,,,11,,,66,0
30192,note_on,2,0,1,,,,,,,,,11,,,73,127
30238,note_on,46,0,1,,,,,,,,,11,,,73,0
30240,note_on,2,0,1,,,,,,,,,11,,,64,127
30286,note_on,46,0,1,,,,,,,,,11,,,64,0
30288,note_on,2,0,1,,,,,,,,,11,,,73,127
30334,note_on,46,0,1,,,,,,,,,11,,,73,0
30336,note_on,2,0,1,,,,,,,,,11,,,80,127
30382,note_on,46,0,1,,,,,,,,,11,,,80,0
30384,note_on,2,0,1,,,,,,,,,11,,,71,127
30430,note_on,46,0,1,,,,,,,,,11,,,71,0
30432,note_on,2,0,1,,,,,,,,,11,,,69,127
30432,note_on,482,0,2,,,,,,,,,0,,,64,127
30478,note_on,46,0,1,,,,,,,,,11,,,69,0
30480,note_on,2,0,1,,,,,,,,,11,,,71,127
30526,note_on,46,0,1,,,,,,,,,11,,,71,0
30526,note_on,94,0,2,,,,,,,,,0,,,64,0
30528,note_on,2,0,2,,,,,,,,,0,,,68,127
30528,note_on,2,0,1,,,,,,,,,11,,,64,127
30574,note_on,46,0,1,,,,,,,,,11,,,64,0
30576,note_on,2,0,1,,,,,,,,,11,,,71,127
30622,note_on,46,0,1,,,,,,,,,11,,,71,0
30622,note_on,94,0,2,,,,,,,,,0,,,68,0
30624,note_on,2,0,1,,,,,,,,,11,,,69,127
30624,note_on,2,0,2,,,,,,,,,0,,,64,127
30670,note_on,46,0,1,,,,,,,,,11,,,69,0
30672,note_on,2,0,1,,,,,,,,,11,,,71,127
30718,note_on,94,0,2,,,,,,,,,0,,,64,0
30718,note_on,46,0,1,,,,,,,,,11,,,71,0
30720,note_on,2,0,1,,,,,,,,,11,,,64,127
30766,note_on,46,0,1,,,,,,,,,11,,,64,0
30768,note_on,2,0,1,,,,,,,,,11,,,71,127
30814,note_on,46,0,1,,,,,,,,,11,,,71,0
30816,note_on,98,0,2,,,,,,,,,0,,,64,127
30816,note_on,2,0,1,,,,,,,,,11,,,64,127
30862,note_on,46,0,1,,,,,,,,,11,,,64,0
30864,note_on,2,0,1,,,,,,,,,11,,,71,127
30910,note_on,94,0,2,,,,,,,,,0,,,64,0
30910,note_on,46,0,1,,,,,,,,,11,,,71,0
30912,note_on,2,0,1,,,,,,,,,11,,,68,127
30912,note_on,2,0,2,,,,,,,,,0,,,68,127
30958,note_on,46,0,1,,,,,,,,,11,,,68,0
30960,note_on,2,0,1,,,,,,,,,11,,,71,127
31006,note_on,94,0,2,,,,,,,,,0,,,68,0
31006,note_on,46,0,1,,,,,,,,,11,,,71,0
31008,note_on,2,0,2,,,,,,,,,0,,,64,127
31008,note_on,2,0,1,,,,,,,,,11,,,64,127
31054,note_on,46,0,1,,,,,,,,,11,,,64,0
31056,note_on,2,0,1,,,,,,,,,11,,,71,127
31102,note_on,94,0,2,,,,,,,,,0,,,64,0
31102,note_on,46,0,1,,,,,,,,,11,,,71,0
31104,note_on,2,0,1,,,,,,,,,11,,,64,127
31150,note_on,46,0,1,,,,,,,,,11,,,64,0
31152,note_on,2,0,1,,,,,,,,,11,,,71,127
31198,note_on,46,0,1,,,,,,,,,11,,,71,0
31200,note_on,2,0,1,,,,,,,,,11,,,64,127
31200,note_on,98,0,2,,,,,,,,,0,,,64,127
31246,note_on,46,0,1,,,,,,,,,11,,,64,0
31248,note_on,2,0,1,,,,,,,,,11,,,71,127
31294,note_on,94,0,2,,,,,,,,,0,,,64,0
31294,note_on,46,0,1,,,,,,,,,11,,,71,0
31296,note_on,2,0,1,,,,,,,,,11,,,68,127
31296,note_on,2,0,2,,,,,,,,,0,,,68,127
31342,note_on,46,0,1,,,,,,,,,11,,,68,0
31344,note_on,2,0,1,,,,,,,,,11,,,71,127
31390,note_on,94,0,2,,,,,,,,,0,,,68,0
31390,note_on,46,0,1,,,,,,,,,11,,,71,0
31392,note_on,2,0,2,,,,,,,,,0,,,64,127
31392,note_on,2,0,1,,,,,,,,,11,,,64,127
31438,note_on,46,0,1,,,,,,,,,11,,,64,0
31440,note_on,2,0,1,,,,,,,,,11,,,71,127
31486,note_on,94,0,2,,,,,,,,,0,,,64,0
31486,note_on,46,0,1,,,,,,,,,11,,,71,0
31488,note_on,2,0,1,,,,,,,,,11,,,64,127
31534,note_on,46,0,1,,,,,,,,,11,,,64,0
31536,note_on,2,0,1,,,,,,,,,11,,,71,127
31582,note_on,46,0,1,,,,,,,,,11,,,71,0
31584,note_on,98,0,2,,,,,,,,,0,,,64,127
31584,note_on,2,0,1,,,,,,,,,11,,,64,127
31630,note_on,46,0,1,,,,,,,,,11,,,64,0
31632,note_on,2,0,1,,,,,,,,,11,,,71,127
31678,note_on,46,0,1,,,,,,,,,11,,,71,0
31678,note_on,94,0,2,,,,,,,,,0,,,64,0
31680,note_on,2,0,1,,,,,,,,,11,,,68,127
31680,note_on,2,0,2,,,,,,,,,0,,,68,127
31726,note_on,46,0,1,,,,,,,,,11,,,68,0
31728,note_on,2,0,1,,,,,,,,,11,,,71,127
31774,note_on,46,0,1,,,,,,,,,11,,,71,0
31774,note_on,94,0,2,,,,,,,,,0,,,68,0
31776,note_on,2,0,1,,,,,,,,,11,,,64,127
31776,note_on,2,0,2,,,,,,,,,0,,,64,127
31822,note_on,46,0,1,,,,,,,,,11,,,64,0
31824,note_on,2,0,1,,,,,,,,,11,,,71,127
31870,note_on,94,0,2,,,,,,,,,0,,,64,0
31870,note_on,46,0,1,,,,,,,,,11,,,71,0
31872,note_on,2,0,1,,,,,,,,,11,,,64,127
31968,note_on,0,0,2,,,,,,,,,0,,,80,127
31968,control_change,98,0,2,,,,,,,,,0,10,64,,
31968,note_on,0,0,3,,,,,,,,,3,,,76,127
31968,control_change,15104,0,3,,,,,,,,,3,10,64,,
31968,note_on,15104,0,4,,,,,,,,,4,,,64,92
32014,note_on,46,0,3,,,,,,,,,3,,,76,0
32014,note_on,46,0,2,,,,,,,,,0,,,80,0
32016,note_on,2,0,3,,,,,,,,,3,,,71,127
32016,note_on,2,0,2,,,,,,,,,0,,,76,127
32032,note_on,160,0,1,,,,,,,,,11,,,64,0
32062,note_on,46,0,3,,,,,,,,,3,,,71,0
32062,note_on,46,0,2,,,,,,,,,0,,,76,0
32062,note_on,94,0,4,,,,,,,,,4,,,64,0
32064,note_on,2,0,4,,,,,,,,,4,,,64,92
32064,note_on,2,0,3,,,,,,,,,3,,,76,127
32064,note_on,2,0,2,,,,,,,,,0,,,80,127
32110,note_on,46,0,3,,,,,,,,,3,,,76,0
32110,note_on,46,0,2,,,,,,,,,0,,,80,0
32112,note_on,2,0,2,,,,,,,,,0,,,76,127
32112,note_on,2,0,3,,,,,,,,,3,,,71,127
32158,note_on,46,0,2,,,,,,,,,0,,,76,0
32158,note_on,94,0,4,,,,,,,,,4,,,64,0
32158,note_on,46,0,3,,,,,,,,,3,,,71,0
32160,note_on,2,0,4,,,,,,,,,4,,,64,92
32160,note_on,2,0,3,,,,,,,,,3,,,76,127
32160,note_on,2,0,2,,,,,,,,,0,,,80,127
32206,note_on,46,0,3,,,,,,,,,3,,,76,0
32206,note_on,46,0,2,,,,,,,,,0,,,80,0
32208,note_on,2,0,2,,,,,,,,,0,,,76,127
32208,note_on,2,0,3,,,,,,,,,3,,,71,127
32254,note_on,46,0,3,,,,,,,,,3,,,71,0
32254,note_on,46,0,2,,,,,,,,,0,,,76,0
32254,note_on,94,0,4,,,,,,,,,4,,,64,0
32256,note_on,2,0,4,,,,,,,,,4,,,64,92
32256,note_on,224,0,1,,,,,,,,,11,,,88,127
32256,note_on,2,0,3,,,,,,,,,3,,,80,127
32256,note_on,2,0,2,,,,,,,,,0,,,83,127
32350,note_on,94,0,3,,,,,,,,,3,,,80,0
32350,note_on,94,0,2,,,,,,,,,0,,,83,0
32350,note_on,94,0,4,,,,,,,,,4,,,64,0
32352,note_on,2,0,4,,,,,,,,,4,,,64,92
32352,note_on,2,0,2,,,,,,,,,0,,,71,127
32352,note_on,2,0,3,,,,,,,,,3,,,68,127
32446,note_on,94,0,3,,,,,,,,,3,,,68,0
32446,note_on,94,0,2,,,,,,,,,0,,,71,0
32446,note_on,94,0,4,,,,,,,,,4,,,64,0
32448,note_on,2,0,4,,,,,,,,,4,,,64,92
32448,note_on,2,0,2,,,,,,,,,0,,,71,127
32448,note_on,2,0,3,,,,,,,,,3,,,68,127
32494,note_on,238,0,1,,,,,,,,,11,,,88,0
32496,note_on,2,0,1,,,,,,,,,11,,,86,127
32542,note_on,46,0,1,,,,,,,,,11,,,86,0
32544,note_on,2,0,1,,,,,,,,,11,,,85,127
32590,note_on,46,0,1,,,,,,,,,11,,,85,0
32592,note_on,2,0,1,,,,,,,,,11,,,83,127
32608,note_on,160,0,2,,,,,,,,,0,,,71,0
32608,note_on,160,0,3,,,,,,,,,3,,,68,0
32608,note_on,160,0,4,,,,,,,,,4,,,64,0
32638,note_on,46,0,1,,,,,,,,,11,,,83,0
32640,note_on,2,0,1,,,,,,,,,11,,,81,127
32686,note_on,46,0,1,,,,,,,,,11,,,81,0
32688,note_on,2,0,1,,,,,,,,,11,,,80,127
32734,note_on,46,0,1,,,,,,,,,11,,,80,0
32736,note_on,2,0,1,,,,,,,,,11,,,78,127
32782,note_on,46,0,1,,,,,,,,,11,,,78,0
32784,note_on,2,0,1,,,,,,,,,11,,,76,127
32830,note_on,46,0,1,,,,,,,,,11,,,76,0
32832,note_on,2,0,1,,,,,,,,,11,,,74,127
32878,note_on,46,0,1,,,,,,,,,11,,,74,0
32880,note_on,2,0,1,,,,,,,,,11,,,73,127
32926,note_on,46,0,1,,,,,,,,,11,,,73,0
32928,note_on,2,0,1,,,,,,,,,11,,,71,127
32974,note_on,46,0,1,,,,,,,,,11,,,71,0
32976,note_on,2,0,1,,,,,,,,,11,,,69,127
33022,note_on,46,0,1,,,,,,,,,11,,,69,0
33024,note_on,2,0,1,,,,,,,,,11,,,68,127
33070,note_on,46,0,1,,,,,,,,,11,,,68,0
33072,note_on,2,0,1,,,,,,,,,11,,,69,127
33118,note_on,46,0,1,,,,,,,,,11,,,69,0
33120,note_on,2,0,1,,,,,,,,,11,,,68,127
33166,note_on,46,0,1,,,,,,,,,11,,,68,0
33168,note_on,2,0,1,,,,,,,,,11,,,66,127
33214,note_on,46,0,1,,,,,,,,,11,,,66,0
33216,note_on,2,0,1,,,,,,,,,11,,,64,127
33310,note_on,94,0,1,,,,,,,,,11,,,64,0
33312,note_on,0,0,4,,,,,,,,,4,,,64,92
33312,note_on,0,0,3,,,,,,,,,3,,,71,127
33312,control_change,704,0,2,,,,,,,,,0,10,0,,
33312,note_on,0,0,2,,,,,,,,,0,,,80,127
33312,control_change,704,0,3,,,,,,,,,3,10,0,,
33312,control_change,704,0,4,,,,,,,,,4,10,0,,
33312,note_on,2,0,1,,,,,,,,,11,,,76,127
33380,note_on,68,0,4,,,,,,,,,4,,,64,0
33380,note_on,68,0,2,,,,,,,,,0,,,80,0
33380,note_on,68,0,3,,,,,,,,,3,,,71,0
33406,note_on,94,0,1,,,,,,,,,11,,,76,0
33408,note_on,2,0,1,,,,,,,,,11,,,78,127
33408,note_on,28,0,4,,,,,,,,,4,,,59,92
33408,note_on,28,0,2,,,,,,,,,0,,,75,127
33408,note_on,28,0,3,,,,,,,,,3,,,71,127
33430,note_on,22,0,1,,,,,,,,,11,,,78,0
33432,note_on,2,0,1,,,,,,,,,11,,,80,127
33454,note_on,22,0,1,,,,,,,,,11,,,80,0
33456,note_on,2,0,1,,,,,,,,,11,,,81,127
33476,note_on,68,0,4,,,,,,,,,4,,,59,0
33476,note_on,68,0,2,,,,,,,,,0,,,75,0
33476,note_on,68,0,3,,,,,,,,,3,,,71,0
33478,note_on,22,0,1,,,,,,,,,11,,,81,0
33480,note_on,2,0,1,,,,,,,,,11,,,80,127
33502,note_on,22,0,1,,,,,,,,,11,,,80,0
33504,note_on,2,0,1,,,,,,,,,11,,,78,127
33504,note_on,28,0,2,,,,,,,,,0,,,75,127
33504,note_on,28,0,4,,,,,,,,,4,,,59,92
33504,note_on,28,0,3,,,,,,,,,3,,,71,127
33572,note_on,68,0,2,,,,,,,,,0,,,75,0
33572,note_on,68,0,4,,,,,,,,,4,,,59,0
33572,note_on,68,0,3,,,,,,,,,3,,,71,0
33598,note_on,94,0,1,,,,,,,,,11,,,78,0
33600,note_on,2,0,1,,,,,,,,,11,,,80,127
33600,note_on,28,0,4,,,,,,,,,4,,,64,92
33600,note_on,28,0,2,,,,,,,,,0,,,76,127
33600,note_on,28,0,3,,,,,,,,,3,,,71,127
33622,note_on,22,0,1,,,,,,,,,11,,,80,0
33624,note_on,2,0,1,,,,,,,,,11,,,81,127
33646,note_on,22,0,1,,,,,,,,,11,,,81,0
33648,note_on,2,0,1,,,,,,,,,11,,,83,127
33668,note_on,68,0,4,,,,,,,,,4,,,64,0
33668,note_on,68,0,2,,,,,,,,,0,,,76,0
33668,note_on,68,0,3,,,,,,,,,3,,,71,0
33670,note_on,22,0,1,,,,,,,,,11,,,83,0
33672,note_on,2,0,1,,,,,,,,,11,,,81,127
33694,note_on,22,0,1,,,,,,,,,11,,,81,0
33696,note_on,28,0,2,,,,,,,,,0,,,76,127
33696,note_on,28,0,3,,,,,,,,,3,,,71,127
33696,note_on,28,0,4,,,,,,,,,4,,,64,92
33696,note_on,2,0,1,,,,,,,,,11,,,80,127
33764,note_on,68,0,3,,,,,,,,,3,,,71,0
33764,note_on,68,0,4,,,,,,,,,4,,,64,0
33764,note_on,68,0,2,,,,,,,,,0,,,76,0
33790,note_on,94,0,1,,,,,,,,,11,,,80,0
33792,note_on,28,0,2,,,,,,,,,0,,,73,127
33792,note_on,28,0,4,,,,,,,,,4,,,66,92
33792,note_on,2,0,1,,,,,,,,,11,,,81,127
33792,note_on,28,0,3,,,,,,,,,3,,,69,127
33814,note_on,22,0,1,,,,,,,,,11,,,81,0
33816,note_on,2,0,1,,,,,,,,,11,,,83,127
33838,note_on,22,0,1,,,,,,,,,11,,,83,0
33840,note_on,2,0,1,,,,,,,,,11,,,85,127
33860,note_on,68,0,3,,,,,,,,,3,,,69,0
33860,note_on,68,0,2,,,,,,,,,0,,,73,0
33860,note_on,68,0,4,,,,,,,,,4,,,66,0
33862,note_on,22,0,1,,,,,,,,,11,,,85,0
33864,note_on,2,0,1,,,,,,,,,11,,,83,127
33886,note_on,22,0,1,,,,,,,,,11,,,83,0
33888,note_on,28,0,4,,,,,,,,,4,,,66,92
33888,note_on,28,0,2,,,,,,,,,0,,,73,127
33888,note_on,2,0,1,,,,,,,,,11,,,81,127
33888,note_on,28,0,3,,,,,,,,,3,,,73,127
33956,note_on,68,0,4,,,,,,,,,4,,,66,0
33956,note_on,68,0,3,,,,,,,,,3,,,73,0
33956,note_on,68,0,2,,,,,,,,,0,,,73,0
33982,note_on,94,0,1,,,,,,,,,11,,,81,0
33984,note_on,28,0,3,,,,,,,,,3,,,71,127
33984,note_on,2,0,1,,,,,,,,,11,,,83,127
33984,note_on,28,0,2,,,,,,,,,0,,,75,127
33984,note_on,28,0,4,,,,,,,,,4,,,59,92
34006,note_on,22,0,1,,,,,,,,,11,,,83,0
34008,note_on,2,0,1,,,,,,,,,11,,,85,127
34030,note_on,22,0,1,,,,,,,,,11,,,85,0
34032,note_on,2,0,1,,,,,,,,,11,,,87,127
34052,note_on,68,0,2,,,,,,,,,0,,,75,0
34052,note_on,68,0,3,,,,,,,,,3,,,71,0
34052,note_on,68,0,4,,,,,,,,,4,,,59,0
34054,note_on,22,0,1,,,,,,,,,11,,,87,0
34056,note_on,2,0,1,,,,,,,,,11,,,85,127
34078,note_on,22,0,1,,,,,,,,,11,,,85,0
34080,note_on,28,0,2,,,,,,,,,0,,,75,127
34080,note_on,2,0,1,,,,,,,,,11,,,83,127
34080,note_on,28,0,3,,,,,,,,,3,,,71,127
34080,note_on,28,0,4,,,,,,,,,4,,,57,92
34148,note_on,68,0,3,,,,,,,,,3,,,71,0
34148,note_on,68,0,2,,,,,,,,,0,,,75,0
34148,note_on,68,0,4,,,,,,,,,4,,,57,0
34174,note_on,94,0,1,,,,,,,,,11,,,83,0
34176,note_on,28,0,4,,,,,,,,,4,,,56,92
34176,note_on,2,0,1,,,,,,,,,11,,,88,127
34176,note_on,28,0,3,,,,,,,,,3,,,71,127
34176,note_on,28,0,2,,,,,,,,,0,,,76,127
34244,note_on,68,0,3,,,,,,,,,3,,,71,0
34244,note_on,68,0,2,,,,,,,,,0,,,76,0
34244,note_on,68,0,4,,,,,,,,,4,,,56,0
34270,note_on,94,0,1,,,,,,,,,11,,,88,0
34272,note_on,2,0,1,,,,,,,,,11,,,76,127
34272,note_on,28,0,4,,,,,,,,,4,,,56,92
34272,note_on,28,0,2,,,,,,,,,0,,,76,127
34272,note_on,28,0,3,,,,,,,,,3,,,71,127
34340,note_on,68,0,2,,,,,,,,,0,,,76,0
34340,note_on,68,0,3,,,,,,,,,3,,,71,0
34340,note_on,68,0,4,,,,,,,,,4,,,56,0
34366,note_on,94,0,1,,,,,,,,,11,,,76,0
34368,note_on,28,0,3,,,,,,,,,3,,,71,127
34368,note_on,28,0,2,,,,,,,,,0,,,76,127
34368,note_on,28,0,4,,,,,,,,,4,,,56,92
34436,note_on,68,0,3,,,,,,,,,3,,,71,0
34436,note_on,68,0,2,,,,,,,,,0,,,76,0
34436,note_on,68,0,4,,,,,,,,,4,,,56,0
34464,note_on,28,0,4,,,,,,,,,4,,,64,92
34464,note_on,28,0,3,,,,,,,,,3,,,71,127
34464,note_on,28,0,2,,,,,,,,,0,,,80,127
34464,note_on,98,0,1,,,,,,,,,11,,,76,127
34532,note_on,68,0,2,,,,,,,,,0,,,80,0
34532,note_on,68,0,3,,,,,,,,,3,,,71,0
34532,note_on,68,0,4,,,,,,,,,4,,,64,0
34558,note_on,94,0,1,,,,,,,,,11,,,76,0
34560,note_on,28,0,4,,,,,,,,,4,,,71,92
34560,note_on,28,0,2,,,,,,,,,0,,,78,127
34560,note_on,28,0,3,,,,,,,,,3,,,75,127
34560,note_on,2,0,1,,,,,,,,,11,,,87,127
34582,note_on,22,0,1,,,,,,,,,11,,,87,0
34584,note_on,2,0,1,,,,,,,,,11,,,88,127
34606,note_on,22,0,1,,,,,,,,,11,,,88,0
34608,note_on,2,0,1,,,,,,,,,11,,,90,127
34628,note_on,68,0,4,,,,,,,,,4,,,71,0
34628,note_on,68,0,3,,,,,,,,,3,,,75,0
34628,note_on,68,0,2,,,,,,,,,0,,,78,0
34630,note_on,22,0,1,,,,,,,,,11,,,90,0
34632,note_on,2,0,1,,,,,,,,,11,,,88,127
34654,note_on,22,0,1,,,,,,,,,11,,,88,0
34656,note_on,2,0,1,,,,,,,,,11,,,87,127
34656,note_on,28,0,4,,,,,,,,,4,,,71,92
34656,note_on,28,0,2,,,,,,,,,0,,,78,127
34656,note_on,28,0,3,,,,,,,,,3,,,75,127
34724,note_on,68,0,4,,,,,,,,,4,,,71,0
34724,note_on,68,0,2,,,,,,,,,0,,,78,0
34724,note_on,68,0,3,,,,,,,,,3,,,75,0
34750,note_on,94,0,1,,,,,,,,,11,,,87,0
34752,note_on,2,0,1,,,,,,,,,11,,,88,127
34752,note_on,28,0,4,,,,,,,,,4,,,64,92
34752,note_on,28,0,3,,,,,,,,,3,,,71,127
34752,note_on,28,0,2,,,,,,,,,0,,,80,127
34774,note_on,22,0,1,,,,,,,,,11,,,88,0
34776,note_on,2,0,1,,,,,,,,,11,,,90,127
34798,note_on,22,0,1,,,,,,,,,11,,,90,0
34800,note_on,2,0,1,,,,,,,,,11,,,92,127
34820,note_on,68,0,2,,,,,,,,,0,,,80,0
34820,note_on,68,0,3,,,,,,,,,3,,,71,0
34820,note_on,68,0,4,,,,,,,,,4,,,64,0
34822,note_on,22,0,1,,,,,,,,,11,,,92,0
34824,note_on,2,0,1,,,,,,,,,11,,,90,127
34846,note_on,22,0,1,,,,,,,,,11,,,90,0
34848,note_on,2,0,1,,,,,,,,,11,,,88,127
34848,note_on,28,0,3,,,,,,,,,3,,,71,127
34848,note_on,28,0,4,,,,,,,,,4,,,64,92
34848,note_on,28,0,2,,,,,,,,,0,,,80,127
34916,note_on,68,0,4,,,,,,,,,4,,,64,0
34916,note_on,68,0,3,,,,,,,,,3,,,71,0
34916,note_on,68,0,2,,,,,,,,,0,,,80,0
34942,note_on,94,0,1,,,,,,,,,11,,,88,0
34944,note_on,28,0,4,,,,,,,,,4,,,63,92
34944,note_on,28,0,2,,,,,,,,,0,,,78,127
34944,note_on,2,0,1,,,,,,,,,11,,,90,127
34944,note_on,28,0,3,,,,,,,,,3,,,71,127
34966,note_on,22,0,1,,,,,,,,,11,,,90,0
34968,note_on,2,0,1,,,,,,,,,11,,,92,127
34990,note_on,22,0,1,,,,,,,,,11,,,92,0
34992,note_on,2,0,1,,,,,,,,,11,,,93,127
35012,note_on,68,0,3,,,,,,,,,3,,,71,0
35012,note_on,68,0,4,,,,,,,,,4,,,63,0
35012,note_on,68,0,2,,,,,,,,,0,,,78,0
35038,note_on,46,0,1,,,,,,,,,11,,,93,0
35040,note_on,2,0,1,,,,,,,,,11,,,92,127
35040,note_on,28,0,3,,,,,,,,,3,,,71,127
35040,note_on,28,0,2,,,,,,,,,0,,,76,127
35040,note_on,28,0,4,,,,,,,,,4,,,59,92
35108,note_on,68,0,3,,,,,,,,,3,,,71,0
35108,note_on,68,0,4,,,,,,,,,4,,,59,0
35136,note_on,28,0,3,,,,,,,,,3,,,71,127
35136,note_on,28,0,4,,,,,,,,,4,,,61,92
35204,note_on,68,0,4,,,,,,,,,4,,,61,0
35204,note_on,164,0,2,,,,,,,,,0,,,76,0
35204,note_on,68,0,3,,,,,,,,,3,,,71,0
35230,note_on,190,0,1,,,,,,,,,11,,,92,0
35232,note_on,2,0,1,,,,,,,,,11,,,90,127
35232,note_on,28,0,4,,,,,,,,,4,,,63,92
35232,note_on,28,0,2,,,,,,,,,0,,,75,127
35232,note_on,28,0,3,,,,,,,,,3,,,71,127
35300,note_on,68,0,4,,,,,,,,,4,,,63,0
35300,note_on,68,0,2,,,,,,,,,0,,,75,0
35300,note_on,68,0,3,,,,,,,,,3,,,71,0
35326,note_on,94,0,1,,,,,,,,,11,,,90,0
35328,note_on,28,0,4,,,,,,,,,4,,,64,92
35328,note_on,28,0,2,,,,,,,,,0,,,80,127
35328,note_on,2,0,1,,,,,,,,,11,,,83,127
35328,note_on,28,0,3,,,,,,,,,3,,,71,127
35358,note_on,30,0,1,,,,,,,,,11,,,83,0
35360,note_on,2,0,1,,,,,,,,,11,,,88,127
35390,note_on,30,0,1,,,,,,,,,11,,,88,0
35392,note_on,2,0,1,,,,,,,,,11,,,90,127
35396,note_on,68,0,3,,,,,,,,,3,,,71,0
35396,note_on,68,0,4,,,,,,,,,4,,,64,0
35396,note_on,68,0,2,,,,,,,,,0,,,80,0
35422,note_on,30,0,1,,,,,,,,,11,,,90,0
35424,note_on,28,0,3,,,,,,,,,3,,,71,127
35424,note_on,28,0,2,,,,,,,,,0,,,80,127
35424,note_on,2,0,1,,,,,,,,,11,,,92,127
35424,note_on,28,0,4,,,,,,,,,4,,,64,92
35454,note_on,30,0,1,,,,,,,,,11,,,92,0
35456,note_on,2,0,1,,,,,,,,,11,,,90,127
35486,note_on,30,0,1,,,,,,,,,11,,,90,0
35488,note_on,2,0,1,,,,,,,,,11,,,88,127
35492,note_on,68,0,3,,,,,,,,,3,,,71,0
35492,note_on,68,0,2,,,,,,,,,0,,,80,0
35492,note_on,68,0,4,,,,,,,,,4,,,64,0
35518,note_on,30,0,1,,,,,,,,,11,,,88,0
35520,note_on,28,0,2,,,,,,,,,0,,,80,127
35520,note_on,28,0,3,,,,,,,,,3,,,71,127
35520,note_on,2,0,1,,,,,,,,,11,,,83,127
35520,note_on,28,0,4,,,,,,,,,4,,,64,92
35550,note_on,30,0,1,,,,,,,,,11,,,83,0
35552,note_on,2,0,1,,,,,,,,,11,,,88,127
35582,note_on,30,0,1,,,,,,,,,11,,,88,0
35584,note_on,2,0,1,,,,,,,,,11,,,90,127
35588,note_on,68,0,4,,,,,,,,,4,,,64,0
35588,note_on,68,0,2,,,,,,,,,0,,,80,0
35588,note_on,68,0,3,,,,,,,,,3,,,71,0
35614,note_on,30,0,1,,,,,,,,,11,,,90,0
35616,note_on,2,0,1,,,,,,,,,11,,,92,127
35616,note_on,28,0,4,,,,,,,,,4,,,64,92
35616,note_on,28,0,3,,,,,,,,,3,,,71,127
35616,note_on,28,0,2,,,,,,,,,0,,,80,127
35646,note_on,30,0,1,,,,,,,,,11,,,92,0
35648,note_on,2,0,1,,,,,,,,,11,,,90,127
35678,note_on,30,0,1,,,,,,,,,11,,,90,0
35680,note_on,2,0,1,,,,,,,,,11,,,88,127
35684,note_on,68,0,4,,,,,,,,,4,,,64,0
35684,note_on,68,0,2,,,,,,,,,0,,,80,0
35684,note_on,68,0,3,,,,,,,,,3,,,71,0
35710,note_on,30,0,1,,,,,,,,,11,,,88,0
35712,note_on,28,0,3,,,,,,,,,3,,,71,127
35712,note_on,28,0,2,,,,,,,,,0,,,80,127
35712,note_on,28,0,4,,,,,,,,,4,,,64,92
35712,note_on,2,0,1,,,,,,,,,11,,,83,127
35742,note_on,30,0,1,,,,,,,,,11,,,83,0
35744,note_on,2,0,1,,,,,,,,,11,,,88,127
35774,note_on,30,0,1,,,,,,,,,11,,,88,0
35776,note_on,2,0,1,,,,,,,,,11,,,90,127
35780,note_on,68,0,4,,,,,,,,,4,,,64,0
35780,note_on,68,0,3,,,,,,,,,3,,,71,0
35780,note_on,68,0,2,,,,,,,,,0,,,80,0
35806,note_on,30,0,1,,,,,,,,,11,,,90,0
35808,note_on,28,0,3,,,,,,,,,3,,,71,127
35808,note_on,28,0,2,,,,,,,,,0,,,80,127
35808,note_on,28,0,4,,,,,,,,,4,,,64,92
35808,note_on,2,0,1,,,,,,,,,11,,,92,127
35838,note_on,30,0,1,,,,,,,,,11,,,92,0
35840,note_on,2,0,1,,,,,,,,,11,,,90,127
35870,note_on,30,0,1,,,,,,,,,11,,,90,0
35872,note_on,2,0,1,,,,,,,,,11,,,88,127
35876,note_on,68,0,4,,,,,,,,,4,,,64,0
35876,note_on,68,0,2,,,,,,,,,0,,,80,0
35876,note_on,68,0,3,,,,,,,,,3,,,71,0
35902,note_on,30,0,1,,,,,,,,,11,,,88,0
35904,note_on,2,0,1,,,,,,,,,11,,,92,127
35904,note_on,28,0,2,,,,,,,,,0,,,78,127
35904,note_on,28,0,4,,,,,,,,,4,,,71,92
35904,note_on,28,0,3,,,,,,,,,3,,,75,127
35926,note_on,22,0,1,,,,,,,,,11,,,92,0
35928,note_on,2,0,1,,,,,,,,,11,,,90,127
35950,note_on,22,0,1,,,,,,,,,11,,,90,0
35952,note_on,2,0,1,,,,,,,,,11,,,92,127
35972,note_on,68,0,4,,,,,,,,,4,,,71,0
35972,note_on,68,0,2,,,,,,,,,0,,,78,0
35972,note_on,68,0,3,,,,,,,,,3,,,75,0
35974,note_on,22,0,1,,,,,,,,,11,,,92,0
35976,note_on,2,0,1,,,,,,,,,11,,,90,127
36000,note_on,28,0,3,,,,,,,,,3,,,75,127
36000,note_on,28,0,4,,,,,,,,,4,,,59,92
36000,note_on,28,0,2,,,,,,,,,0,,,78,127
36068,note_on,68,0,4,,,,,,,,,4,,,59,0
36068,note_on,68,0,3,,,,,,,,,3,,,75,0
36068,note_on,68,0,2,,,,,,,,,0,,,78,0
36094,note_on,118,0,1,,,,,,,,,11,,,90,0
36096,note_on,28,0,2,,,,,,,,,0,,,80,127
36096,note_on,28,0,4,,,,,,,,,4,,,64,92
36096,note_on,28,0,3,,,,,,,,,3,,,71,127
36096,note_on,2,0,1,,,,,,,,,11,,,88,127
36216,note_on,120,0,4,,,,,,,,,4,,,64,0
36216,note_on,120,0,2,,,,,,,,,0,,,80,0
36216,note_on,120,0,3,,,,,,,,,3,,,71,0
36256,note_on,160,0,1,,,,,,,,,11,,,88,0
36384,note_on,168,0,4,,,,,,,,,4,,,64,92
36384,note_on,128,0,1,,,,,,,,,11,,,76,127
36384,note_on,168,0,2,,,,,,,,,0,,,71,127
36384,note_on,168,0,3,,,,,,,,,3,,,68,127
36452,note_on,68,0,2,,,,,,,,,0,,,71,0
36452,note_on,68,0,3,,,,,,,,,3,,,68,0
36452,note_on,68,0,4,,,,,,,,,4,,,64,0
36478,note_on,94,0,1,,,,,,,,,11,,,76,0
36480,note_on,28,0,2,,,,,,,,,0,,,75,127
36480,note_on,28,0,3,,,,,,,,,3,,,66,127
36480,note_on,28,0,4,,,,,,,,,4,,,59,92
36480,note_on,2,0,1,,,,,,,,,11,,,75,127
36502,note_on,22,0,1,,,,,,,,,11,,,75,0
36504,note_on,2,0,1,,,,,,,,,11,,,76,127
36526,note_on,22,0,1,,,,,,,,,11,,,76,0
36528,note_on,2,0,1,,,,,,,,,11,,,78,127
36548,note_on,68,0,4,,,,,,,,,4,,,59,0
36548,note_on,68,0,2,,,,,,,,,0,,,75,0
36548,note_on,68,0,3,,,,,,,,,3,,,66,0
36550,note_on,22,0,1,,,,,,,,,11,,,78,0
36552,note_on,2,0,1,,,,,,,,,11,,,76,127
36574,note_on,22,0,1,,,,,,,,,11,,,76,0
36576,note_on,28,0,2,,,,,,,,,0,,,75,127
36576,note_on,2,0,1,,,,,,,,,11,,,75,127
36576,note_on,28,0,3,,,,,,,,,3,,,66,127
36576,note_on,28,0,4,,,,,,,,,4,,,59,92
36644,note_on,68,0,3,,,,,,,,,3,,,66,0
36644,note_on,68,0,4,,,,,,,,,4,,,59,0
36644,note_on,68,0,2,,,,,,,,,0,,,75,0
36670,note_on,94,0,1,,,,,,,,,11,,,75,0
36672,note_on,28,0,4,,,,,,,,,4,,,64,92
36672,note_on,28,0,3,,,,,,,,,3,,,68,127
36672,note_on,28,0,2,,,,,,,,,0,,,71,127
36672,note_on,2,0,1,,,,,,,,,11,,,76,127
36694,note_on,22,0,1,,,,,,,,,11,,,76,0
36696,note_on,2,0,1,,,,,,,,,11,,,78,127
36718,note_on,22,0,1,,,,,,,,,11,,,78,0
36720,note_on,2,0,1,,,,,,,,,11,,,80,127
36740,note_on,68,0,4,,,,,,,,,4,,,64,0
36740,note_on,68,0,3,,,,,,,,,3,,,68,0
36740,note_on,68,0,2,,,,,,,,,0,,,71,0
36742,note_on,22,0,1,,,,,,,,,11,,,80,0
36744,note_on,2,0,1,,,,,,,,,11,,,78,127
36766,note_on,22,0,1,,,,,,,,,11,,,78,0
36768,note_on,28,0,2,,,,,,,,,0,,,71,127
36768,note_on,28,0,3,,,,,,,,,3,,,68,127
36768,note_on,28,0,4,,,,,,,,,4,,,64,92
36768,note_on,2,0,1,,,,,,,,,11,,,76,127
36836,note_on,68,0,2,,,,,,,,,0,,,71,0
36836,note_on,68,0,3,,,,,,,,,3,,,68,0
36836,note_on,68,0,4,,,,,,,,,4,,,64,0
36862,note_on,94,0,1,,,,,,,,,11,,,76,0
36864,note_on,2,0,1,,,,,,,,,11,,,78,127
36864,note_on,28,0,3,,,,,,,,,3,,,71,127
36864,note_on,28,0,2,,,,,,,,,0,,,78,127
36864,note_on,28,0,4,,,,,,,,,4,,,63,92
36886,note_on,22,0,1,,,,,,,,,11,,,78,0
36888,note_on,2,0,1,,,,,,,,,11,,,80,127
36910,note_on,22,0,1,,,,,,,,,11,,,80,0
36912,note_on,2,0,1,,,,,,,,,11,,,81,127
36932,note_on,68,0,3,,,,,,,,,3,,,71,0
36932,note_on,68,0,2,,,,,,,,,0,,,78,0
36932,note_on,68,0,4,,,,,,,,,4,,,63,0
36958,note_on,46,0,1,,,,,,,,,11,,,81,0
36960,note_on,2,0,1,,,,,,,,,11,,,80,127
36960,note_on,28,0,3,,,,,,,,,3,,,71,127
36960,note_on,28,0,2,,,,,,,,,0,,,76,127
36960,note_on,28,0,4,,,,,,,,,4,,,59,92
37028,note_on,68,0,3,,,,,,,,,3,,,71,0
37028,note_on,68,0,4,,,,,,,,,4,,,59,0
37056,note_on,28,0,4,,,,,,,,,4,,,61,92
37056,note_on,28,0,3,,,,,,,,,3,,,71,127
37124,note_on,68,0,4,,,,,,,,,4,,,61,0
37124,note_on,164,0,2,,,,,,,,,0,,,76,0
37124,note_on,68,0,3,,,,,,,,,3,,,71,0
37150,note_on,190,0,1,,,,,,,,,11,,,80,0
37152,note_on,2,0,1,,,,,,,,,11,,,78,127
37152,note_on,28,0,2,,,,,,,,,0,,,75,127
37152,note_on,28,0,4,,,,,,,,,4,,,63,92
37152,note_on,28,0,3,,,,,,,,,3,,,71,127
37220,note_on,68,0,2,,,,,,,,,0,,,75,0
37220,note_on,68,0,4,,,,,,,,,4,,,63,0
37220,note_on,68,0,3,,,,,,,,,3,,,71,0
37246,note_on,94,0,1,,,,,,,,,11,,,78,0
37248,note_on,2,0,1,,,,,,,,,11,,,71,127
37248,note_on,28,0,4,,,,,,,,,4,,,64,92
37248,note_on,28,0,2,,,,,,,,,0,,,71,127
37248,note_on,28,0,3,,,,,,,,,3,,,68,127
37278,note_on,30,0,1,,,,,,,,,11,,,71,0
37280,note_on,2,0,1,,,,,,,,,11,,,76,127
37310,note_on,30,0,1,,,,,,,,,11,,,76,0
37312,note_on,2,0,1,,,,,,,,,11,,,78,127
37316,note_on,68,0,4,,,,,,,,,4,,,64,0
37316,note_on,68,0,3,,,,,,,,,3,,,68,0
37316,note_on,68,0,2,,,,,,,,,0,,,71,0
37342,note_on,30,0,1,,,,,,,,,11,,,78,0
37344,note_on,28,0,3,,,,,,,,,3,,,68,127
37344,note_on,28,0,4,,,,,,,,,4,,,64,92
37344,note_on,28,0,2,,,,,,,,,0,,,71,127
37344,note_on,2,0,1,,,,,,,,,11,,,80,127
37374,note_on,30,0,1,,,,,,,,,11,,,80,0
37376,note_on,2,0,1,,,,,,,,,11,,,78,127
37406,note_on,30,0,1,,,,,,,,,11,,,78,0
37408,note_on,2,0,1,,,,,,,,,11,,,76,127
37412,note_on,68,0,3,,,,,,,,,3,,,68,0
37412,note_on,68,0,4,,,,,,,,,4,,,64,0
37412,note_on,68,0,2,,,,,,,,,0,,,71,0
37438,note_on,30,0,1,,,,,,,,,11,,,76,0
37440,note_on,28,0,4,,,,,,,,,4,,,64,92
37440,note_on,28,0,2,,,,,,,,,0,,,71,127
37440,note_on,28,0,3,,,,,,,,,3,,,68,127
37440,note_on,2,0,1,,,,,,,,,11,,,71,127
37470,note_on,30,0,1,,,,,,,,,11,,,71,0
37472,note_on,2,0,1,,,,,,,,,11,,,76,127
37502,note_on,30,0,1,,,,,,,,,11,,,76,0
37504,note_on,2,0,1,,,,,,,,,11,,,78,127
37508,note_on,68,0,4,,,,,,,,,4,,,64,0
37508,note_on,68,0,3,,,,,,,,,3,,,68,0
37508,note_on,68,0,2,,,,,,,,,0,,,71,0
37534,note_on,30,0,1,,,,,,,,,11,,,78,0
37536,note_on,2,0,1,,,,,,,,,11,,,80,127
37536,note_on,28,0,4,,,,,,,,,4,,,64,92
37536,note_on,28,0,2,,,,,,,,,0,,,71,127
37536,note_on,28,0,3,,,,,,,,,3,,,68,127
37566,note_on,30,0,1,,,,,,,,,11,,,80,0
37568,note_on,2,0,1,,,,,,,,,11,,,78,127
37598,note_on,30,0,1,,,,,,,,,11,,,78,0
37600,note_on,2,0,1,,,,,,,,,11,,,76,127
37604,note_on,68,0,4,,,,,,,,,4,,,64,0
37604,note_on,68,0,2,,,,,,,,,0,,,71,0
37604,note_on,68,0,3,,,,,,,,,3,,,68,0
37630,note_on,30,0,1,,,,,,,,,11,,,76,0
37632,note_on,28,0,3,,,,,,,,,3,,,68,127
37632,note_on,28,0,4,,,,,,,,,4,,,64,92
37632,note_on,2,0,1,,,,,,,,,11,,,71,127
37632,note_on,28,0,2,,,,,,,,,0,,,71,127
37662,note_on,30,0,1,,,,,,,,,11,,,71,0
37664,note_on,2,0,1,,,,,,,,,11,,,76,127
37694,note_on,30,0,1,,,,,,,,,11,,,76,0
37696,note_on,2,0,1,,,,,,,,,11,,,78,127
37700,note_on,68,0,2,,,,,,,,,0,,,71,0
37700,note_on,68,0,4,,,,,,,,,4,,,64,0
37700,note_on,68,0,3,,,,,,,,,3,,,68,0
37726,note_on,30,0,1,,,,,,,,,11,,,78,0
37728,note_on,2,0,1,,,,,,,,,11,,,80,127
37728,note_on,28,0,4,,,,,,,,,4,,,64,92
37728,note_on,28,0,2,,,,,,,,,0,,,71,127
37728,note_on,28,0,3,,,,,,,,,3,,,71,127
37758,note_on,30,0,1,,,,,,,,,11,,,80,0
37760,note_on,2,0,1,,,,,,,,,11,,,78,127
37790,note_on,30,0,1,,,,,,,,,11,,,78,0
37792,note_on,2,0,1,,,,,,,,,11,,,76,127
37796,note_on,68,0,2,,,,,,,,,0,,,71,0
37796,note_on,68,0,3,,,,,,,,,3,,,71,0
37796,note_on,68,0,4,,,,,,,,,4,,,64,0
37822,note_on,30,0,1,,,,,,,,,11,,,76,0
37824,note_on,28,0,3,,,,,,,,,3,,,71,127
37824,note_on,28,0,2,,,,,,,,,0,,,75,127
37824,note_on,28,0,4,,,,,,,,,4,,,59,92
37824,note_on,2,0,1,,,,,,,,,11,,,80,127
37846,note_on,22,0,1,,,,,,,,,11,,,80,0
37848,note_on,2,0,1,,,,,,,,,11,,,78,127
37870,note_on,22,0,1,,,,,,,,,11,,,78,0
37872,note_on,2,0,1,,,,,,,,,11,,,80,127
37892,note_on,68,0,2,,,,,,,,,0,,,75,0
37892,note_on,68,0,3,,,,,,,,,3,,,71,0
37892,note_on,68,0,4,,,,,,,,,4,,,59,0
37894,note_on,22,0,1,,,,,,,,,11,,,80,0
37896,note_on,2,0,1,,,,,,,,,11,,,78,127
37920,note_on,28,0,2,,,,,,,,,0,,,75,127
37920,note_on,28,0,3,,,,,,,,,3,,,66,127
37920,note_on,28,0,4,,,,,,,,,4,,,59,92
37988,note_on,68,0,4,,,,,,,,,4,,,59,0
37988,note_on,68,0,3,,,,,,,,,3,,,66,0
38014,note_on,118,0,1,,,,,,,,,11,,,78,0
38016,note_on,2,0,1,,,,,,,,,11,,,76,127
38016,note_on,96,0,2,,,,,,,,,0,,,75,0
38016,note_on,15968,0,5,,,,,,,,,6,,,52,92
38016,control_change,28,0,4,,,,,,,,,4,10,64,,
38016,note_on,0,0,4,,,,,,,,,4,,,71,92
38016,note_on,21152,0,6,,,,,,,,,8,,,40,92
38016,note_on,28,0,3,,,,,,,,,3,,,80,127
38016,note_on,0,0,2,,,,,,,,,0,,,80,127
38016,control_change,0,0,2,,,,,,,,,0,10,127,,
38062,note_on,46,0,3,,,,,,,,,3,,,80,0
38062,note_on,46,0,2,,,,,,,,,0,,,80,0
38064,note_on,2,0,3,,,,,,,,,3,,,76,127
38064,note_on,2,0,2,,,,,,,,,0,,,76,127
38110,note_on,46,0,2,,,,,,,,,0,,,76,0
38110,note_on,94,0,6,,,,,,,,,8,,,40,0
38110,note_on,94,0,5,,,,,,,,,6,,,52,0
38110,note_on,46,0,3,,,,,,,,,3,,,76,0
38112,note_on,2,0,5,,,,,,,,,6,,,52,92
38112,note_on,2,0,3,,,,,,,,,3,,,71,127
38112,note_on,2,0,6,,,,,,,,,8,,,40,92
38112,note_on,2,0,2,,,,,,,,,0,,,71,127
38158,note_on,46,0,3,,,,,,,,,3,,,71,0
38158,note_on,142,0,1,,,,,,,,,11,,,76,0
38158,note_on,46,0,2,,,,,,,,,0,,,71,0
38160,note_on,2,0,2,,,,,,,,,0,,,80,127
38160,note_on,2,0,1,,,,,,,,,11,,,80,127
38160,note_on,2,0,3,,,,,,,,,3,,,80,127
38176,note_on,160,0,4,,,,,,,,,4,,,71,0
38206,note_on,94,0,6,,,,,,,,,8,,,40,0
38206,note_on,46,0,3,,,,,,,,,3,,,80,0
38206,note_on,46,0,1,,,,,,,,,11,,,80,0
38206,note_on,94,0,5,,,,,,,,,6,,,52,0
38206,note_on,46,0,2,,,,,,,,,0,,,80,0
38208,note_on,2,0,5,,,,,,,,,6,,,51,92
38208,note_on,32,0,4,,,,,,,,,4,,,71,92
38208,note_on,2,0,1,,,,,,,,,11,,,81,127
38208,note_on,2,0,3,,,,,,,,,3,,,81,127
38208,note_on,2,0,6,,,,,,,,,8,,,39,92
38208,note_on,2,0,2,,,,,,,,,0,,,81,127
38254,note_on,46,0,2,,,,,,,,,0,,,81,0
38254,note_on,46,0,1,,,,,,,,,11,,,81,0
38254,note_on,46,0,3,,,,,,,,,3,,,81,0
38256,note_on,2,0,3,,,,,,,,,3,,,78,127
38256,note_on,2,0,2,,,,,,,,,0,,,78,127
38256,note_on,2,0,1,,,,,,,,,11,,,78,127
38302,note_on,46,0,3,,,,,,,,,3,,,78,0
38302,note_on,94,0,5,,,,,,,,,6,,,51,0
38302,note_on,46,0,2,,,,,,,,,0,,,78,0
38302,note_on,46,0,1,,,,,,,,,11,,,78,0
38302,note_on,94,0,6,,,,,,,,,8,,,39,0
38304,note_on,2,0,3,,,,,,,,,3,,,71,127
38304,note_on,2,0,1,,,,,,,,,11,,,71,127
38304,note_on,2,0,5,,,,,,,,,6,,,51,92
38304,note_on,2,0,6,,,,,,,,,8,,,39,92
38304,note_on,2,0,2,,,,,,,,,0,,,71,127
38350,note_on,46,0,2,,,,,,,,,0,,,71,0
38350,note_on,46,0,1,,,,,,,,,11,,,71,0
38350,note_on,46,0,3,,,,,,,,,3,,,71,0
38352,note_on,2,0,2,,,,,,,,,0,,,81,127
38352,note_on,2,0,1,,,,,,,,,11,,,81,127
38352,note_on,2,0,3,,,,,,,,,3,,,81,127
38368,note_on,160,0,4,,,,,,,,,4,,,71,0
38398,note_on,46,0,3,,,,,,,,,3,,,81,0
38398,note_on,46,0,2,,,,,,,,,0,,,81,0
38398,note_on,46,0,1,,,,,,,,,11,,,81,0
38398,note_on,94,0,5,,,,,,,,,6,,,51,0
38398,note_on,94,0,6,,,,,,,,,8,,,39,0
38400,note_on,2,0,1,,,,,,,,,11,,,80,127
38400,note_on,2,0,5,,,,,,,,,6,,,52,92
38400,note_on,2,0,6,,,,,,,,,8,,,40,92
38400,note_on,2,0,2,,,,,,,,,0,,,80,127
38400,note_on,2,0,3,,,,,,,,,3,,,80,127
38400,note_on,32,0,4,,,,,,,,,4,,,71,92
38446,note_on,46,0,1,,,,,,,,,11,,,80,0
38446,note_on,46,0,3,,,,,,,,,3,,,80,0
38446,note_on,46,0,2,,,,,,,,,0,,,80,0
38448,note_on,2,0,1,,,,,,,,,11,,,76,127
38448,note_on,2,0,3,,,,,,,,,3,,,76,127
38448,note_on,2,0,2,,,,,,,,,0,,,76,127
38494,note_on,94,0,6,,,,,,,,,8,,,40,0
38494,note_on,46,0,1,,,,,,,,,11,,,76,0
38494,note_on,46,0,3,,,,,,,,,3,,,76,0
38494,note_on,46,0,2,,,,,,,,,0,,,76,0
38494,note_on,94,0,5,,,,,,,,,6,,,52,0
38496,note_on,2,0,6,,,,,,,,,8,,,40,92
38496,note_on,2,0,1,,,,,,,,,11,,,71,127
38496,note_on,2,0,2,,,,,,,,,0,,,71,127
38496,note_on,2,0,3,,,,,,,,,3,,,71,127
38496,note_on,2,0,5,,,,,,,,,6,,,52,92
38542,note_on,46,0,1,,,,,,,,,11,,,71,0
38542,note_on,46,0,2,,,,,,,,,0,,,71,0
38542,note_on,46,0,3,,,,,,,,,3,,,71,0
38544,note_on,2,0,2,,,,,,,,,0,,,80,127
38544,note_on,2,0,1,,,,,,,,,11,,,80,127
38544,note_on,2,0,3,,,,,,,,,3,,,80,127
38560,note_on,160,0,4,,,,,,,,,4,,,71,0
38590,note_on,46,0,1,,,,,,,,,11,,,80,0
38590,note_on,94,0,6,,,,,,,,,8,,,40,0
38590,note_on,46,0,2,,,,,,,,,0,,,80,0
38590,note_on,46,0,3,,,,,,,,,3,,,80,0
38590,note_on,94,0,5,,,,,,,,,6,,,52,0
38592,note_on,2,0,1,,,,,,,,,11,,,81,127
38592,note_on,2,0,2,,,,,,,,,0,,,81,127
38592,note_on,32,0,4,,,,,,,,,4,,,71,92
38592,note_on,2,0,5,,,,,,,,,6,,,51,92
38592,note_on,2,0,6,,,,,,,,,8,,,39,92
38592,note_on,2,0,3,,,,,,,,,3,,,81,127
38638,note_on,46,0,2,,,,,,,,,0,,,81,0
38638,note_on,46,0,1,,,,,,,,,11,,,81,0
38638,note_on,46,0,3,,,,,,,,,3,,,81,0
38640,note_on,2,0,3,,,,,,,,,3,,,78,127
38640,note_on,2,0,1,,,,,,,,,11,,,78,127
38640,note_on,2,0,2,,,,,,,,,0,,,78,127
38686,note_on,46,0,3,,,,,,,,,3,,,78,0
38686,note_on,46,0,1,,,,,,,,,11,,,78,0
38686,note_on,94,0,5,,,,,,,,,6,,,51,0
38686,note_on,94,0,6,,,,,,,,,8,,,39,0
38686,note_on,46,0,2,,,,,,,,,0,,,78,0
38688,note_on,2,0,6,,,,,,,,,8,,,39,92
38688,note_on,2,0,3,,,,,,,,,3,,,71,127
38688,note_on,2,0,5,,,,,,,,,6,,,51,92
38688,note_on,2,0,2,,,,,,,,,0,,,71,127
38688,note_on,2,0,1,,,,,,,,,11,,,71,127
38734,note_on,46,0,3,,,,,,,,,3,,,71,0
38734,note_on,46,0,1,,,,,,,,,11,,,71,0
38734,note_on,46,0,2,,,,,,,,,0,,,71,0
38736,note_on,2,0,2,,,,,,,,,0,,,81,127
38736,note_on,2,0,1,,,,,,,,,11,,,81,127
38736,note_on,2,0,3,,,,,,,,,3,,,81,127
38752,note_on,160,0,4,,,,,,,,,4,,,71,0
38782,note_on,94,0,5,,,,,,,,,6,,,51,0
38782,note_on,46,0,2,,,,,,,,,0,,,81,0
38782,note_on,46,0,3,,,,,,,,,3,,,81,0
38782,note_on,46,0,1,,,,,,,,,11,,,81,0
38782,note_on,94,0,6,,,,,,,,,8,,,39,0
38784,note_on,2,0,3,,,,,,,,,3,,,80,127
38784,note_on,2,0,6,,,,,,,,,8,,,40,92
38784,note_on,32,0,4,,,,,,,,,4,,,71,92
38784,note_on,2,0,1,,,,,,,,,11,,,80,127
38784,note_on,2,0,5,,,,,,,,,6,,,52,92
38784,note_on,2,0,2,,,,,,,,,0,,,80,127
38830,note_on,46,0,1,,,,,,,,,11,,,80,0
38830,note_on,46,0,3,,,,,,,,,3,,,80,0
38830,note_on,46,0,2,,,,,,,,,0,,,80,0
38832,note_on,2,0,1,,,,,,,,,11,,,76,127
38832,note_on,2,0,2,,,,,,,,,0,,,76,127
38832,note_on,2,0,3,,,,,,,,,3,,,76,127
38878,note_on,46,0,3,,,,,,,,,3,,,76,0
38878,note_on,46,0,1,,,,,,,,,11,,,76,0
38878,note_on,94,0,6,,,,,,,,,8,,,40,0
38878,note_on,94,0,5,,,,,,,,,6,,,52,0
38878,note_on,46,0,2,,,,,,,,,0,,,76,0
38880,note_on,2,0,2,,,,,,,,,0,,,71,127
38880,note_on,2,0,5,,,,,,,,,6,,,52,92
38880,note_on,2,0,6,,,,,,,,,8,,,40,92
38880,note_on,2,0,1,,,,,,,,,11,,,71,127
38880,note_on,2,0,3,,,,,,,,,3,,,71,127
38926,note_on,46,0,2,,,,,,,,,0,,,71,0
38926,note_on,46,0,1,,,,,,,,,11,,,71,0
38926,note_on,46,0,3,,,,,,,,,3,,,71,0
38928,note_on,2,0,2,,,,,,,,,0,,,80,127
38928,note_on,2,0,3,,,,,,,,,3,,,80,127
38928,note_on,2,0,1,,,,,,,,,11,,,80,127
38944,note_on,160,0,4,,,,,,,,,4,,,71,0
38974,note_on,46,0,3,,,,,,,,,3,,,80,0
38974,note_on,46,0,1,,,,,,,,,11,,,80,0
38974,note_on,94,0,5,,,,,,,,,6,,,52,0
38974,note_on,46,0,2,,,,,,,,,0,,,80,0
38974,note_on,94,0,6,,,,,,,,,8,,,40,0
38976,note_on,2,0,2,,,,,,,,,0,,,81,127
38976,note_on,2,0,5,,,,,,,,,6,,,51,92
38976,note_on,2,0,1,,,,,,,,,11,,,81,127
38976,note_on,2,0,3,,,,,,,,,3,,,81,127
38976,note_on,2,0,6,,,,,,,,,8,,,39,92
38976,note_on,32,0,4,,,,,,,,,4,,,71,92
39022,note_on,46,0,1,,,,,,,,,11,,,81,0
39022,note_on,46,0,3,,,,,,,,,3,,,81,0
39022,note_on,46,0,2,,,,,,,,,0,,,81,0
39024,note_on,2,0,1,,,,,,,,,11,,,78,127
39024,note_on,2,0,3,,,,,,,,,3,,,78,127
39024,note_on,2,0,2,,,,,,,,,0,,,78,127
39070,note_on,46,0,2,,,,,,,,,0,,,78,0
39070,note_on,46,0,1,,,,,,,,,11,,,78,0
39070,note_on,94,0,6,,,,,,,,,8,,,39,0
39070,note_on,46,0,3,,,,,,,,,3,,,78,0
39070,note_on,94,0,5,,,,,,,,,6,,,51,0
39072,note_on,2,0,3,,,,,,,,,3,,,71,127
39072,note_on,2,0,5,,,,,,,,,6,,,51,92
39072,note_on,2,0,6,,,,,,,,,8,,,39,92
39072,note_on,2,0,1,,,,,,,,,11,,,71,127
39072,note_on,2,0,2,,,,,,,,,0,,,71,127
39118,note_on,46,0,2,,,,,,,,,0,,,71,0
39118,note_on,46,0,3,,,,,,,,,3,,,71,0
39118,note_on,46,0,1,,,,,,,,,11,,,71,0
39120,note_on,2,0,2,,,,,,,,,0,,,81,127
39120,note_on,2,0,1,,,,,,,,,11,,,81,127
39120,note_on,2,0,3,,,,,,,,,3,,,81,127
39136,note_on,160,0,4,,,,,,,,,4,,,71,0
39166,note_on,94,0,5,,,,,,,,,6,,,51,0
39166,note_on,46,0,2,,,,,,,,,0,,,81,0
39166,note_on,94,0,6,,,,,,,,,8,,,39,0
39166,note_on,46,0,1,,,,,,,,,11,,,81,0
39166,note_on,46,0,3,,,,,,,,,3,,,81,0
39168,note_on,32,0,4,,,,,,,,,4,,,71,92
39168,note_on,2,0,1,,,,,,,,,11,,,80,127
39168,note_on,2,0,3,,,,,,,,,3,,,80,127
39168,note_on,2,0,2,,,,,,,,,0,,,80,127
39168,note_on,2,0,6,,,,,,,,,8,,,40,92
39168,note_on,2,0,5,,,,,,,,,6,,,52,92
39262,note_on,94,0,1,,,,,,,,,11,,,80,0
39262,note_on,94,0,5,,,,,,,,,6,,,52,0
39262,note_on,94,0,6,,,,,,,,,8,,,40,0
39262,note_on,94,0,2,,,,,,,,,0,,,80,0
39262,note_on,94,0,4,,,,,,,,,4,,,71,0
39262,note_on,94,0,3,,,,,,,,,3,,,80,0
39264,note_on,2,0,2,,,,,,,,,0,,,76,127
39264,note_on,2,0,3,,,,,,,,,3,,,76,127
39264,note_on,2,0,6,,,,,,,,,8,,,42,92
39264,note_on,2,0,4,,,,,,,,,4,,,69,92
39264,note_on,2,0,1,,,,,,,,,11,,,76,127
39264,note_on,2,0,5,,,,,,,,,6,,,54,92
39358,note_on,94,0,2,,,,,,,,,0,,,76,0
39358,note_on,94,0,6,,,,,,,,,8,,,42,0
39358,note_on,94,0,4,,,,,,,,,4,,,69,0
39358,note_on,94,0,1,,,,,,,,,11,,,76,0
39358,note_on,94,0,5,,,,,,,,,6,,,54,0
39358,note_on,94,0,3,,,,,,,,,3,,,76,0
39360,note_on,2,0,4,,,,,,,,,4,,,71,92
39360,note_on,2,0,5,,,,,,,,,6,,,56,92
39360,note_on,2,0,6,,,,,,,,,8,,,44,92
39454,note_on,94,0,6,,,,,,,,,8,,,44,0
39454,note_on,94,0,5,,,,,,,,,6,,,56,0
39454,note_on,94,0,4,,,,,,,,,4,,,71,0
39456,note_on,2,0,6,,,,,,,,,8,,,40,92
39456,note_on,2,0,4,,,,,,,,,4,,,68,92
39456,note_on,2,0,5,,,,,,,,,6,,,52,92
39550,note_on,94,0,6,,,,,,,,,8,,,40,0
39550,note_on,94,0,4,,,,,,,,,4,,,68,0
39550,note_on,94,0,5,,,,,,,,,6,,,52,0
39552,note_on,2,0,4,,,,,,,,,4,,,66,92
39552,note_on,194,0,2,,,,,,,,,0,,,83,127
39552,note_on,2,0,6,,,,,,,,,8,,,35,92
39552,note_on,2,0,5,,,,,,,,,6,,,47,92
39552,note_on,194,0,1,,,,,,,,,11,,,83,127
39646,note_on,94,0,4,,,,,,,,,4,,,66,0
39646,note_on,94,0,6,,,,,,,,,8,,,35,0
39646,note_on,94,0,5,,,,,,,,,6,,,47,0
39646,note_on,94,0,1,,,,,,,,,11,,,83,0
39646,note_on,94,0,2,,,,,,,,,0,,,83,0
39648,note_on,2,0,1,,,,,,,,,11,,,81,127
39648,note_on,2,0,6,,,,,,,,,8,,,35,92
39648,note_on,2,0,5,,,,,,,,,6,,,47,92
39648,note_on,2,0,4,,,,,,,,,4,,,66,92
39648,note_on,2,0,2,,,,,,,,,0,,,81,127
39694,note_on,46,0,1,,,,,,,,,11,,,81,0
39694,note_on,46,0,2,,,,,,,,,0,,,81,0
39696,note_on,2,0,2,,,,,,,,,0,,,80,127
39696,note_on,2,0,1,,,,,,,,,11,,,80,127
39742,note_on,94,0,5,,,,,,,,,6,,,47,0
39742,note_on,46,0,1,,,,,,,,,11,,,80,0
39742,note_on,94,0,6,,,,,,,,,8,,,35,0
39742,note_on,46,0,2,,,,,,,,,0,,,80,0
39742,note_on,94,0,4,,,,,,,,,4,,,66,0
39744,note_on,2,0,2,,,,,,,,,0,,,78,127
39744,note_on,2,0,6,,,,,,,,,8,,,35,92
39744,note_on,2,0,1,,,,,,,,,11,,,78,127
39744,note_on,2,0,4,,,,,,,,,4,,,66,92
39744,note_on,2,0,5,,,,,,,,,6,,,47,92
39790,note_on,46,0,2,,,,,,,,,0,,,78,0
39790,note_on,46,0,1,,,,,,,,,11,,,78,0
39792,note_on,2,0,2,,,,,,,,,0,,,76,127
39792,note_on,2,0,1,,,,,,,,,11,,,76,127
39838,note_on,94,0,4,,,,,,,,,4,,,66,0
39838,note_on,46,0,2,,,,,,,,,0,,,76,0
39838,note_on,94,0,5,,,,,,,,,6,,,47,0
39838,note_on,94,0,6,,,,,,,,,8,,,35,0
39838,note_on,46,0,1,,,,,,,,,11,,,76,0
39840,note_on,2,0,5,,,,,,,,,6,,,47,92
39840,note_on,2,0,2,,,,,,,,,0,,,75,127
39840,note_on,2,0,6,,,,,,,,,8,,,35,92
39840,note_on,2,0,1,,,,,,,,,11,,,75,127
39840,note_on,2,0,4,,,,,,,,,4,,,66,92
39886,note_on,46,0,1,,,,,,,,,11,,,75,0
39886,note_on,46,0,2,,,,,,,,,0,,,75,0
39888,note_on,2,0,2,,,,,,,,,0,,,73,127
39888,note_on,2,0,1,,,,,,,,,11,,,73,127
39934,note_on,46,0,2,,,,,,,,,0,,,73,0
39934,note_on,46,0,1,,,,,,,,,11,,,73,0
39934,note_on,94,0,4,,,,,,,,,4,,,66,0
39934,note_on,94,0,5,,,,,,,,,6,,,47,0
39934,note_on,94,0,6,,,,,,,,,8,,,35,0
39936,note_on,2,0,2,,,,,,,,,0,,,71,127
39936,note_on,0,0,3,,,,,,,,,3,,,83,127
39936,note_on,2,0,5,,,,,,,,,6,,,47,92
39936,note_on,2,0,1,,,,,,,,,11,,,71,127
39936,note_on,2,0,4,,,,,,,,,4,,,63,92
39936,note_on,2,0,6,,,,,,,,,8,,,35,92
39936,control_change,578,0,3,,,,,,,,,3,10,64,,
40030,note_on,94,0,2,,,,,,,,,0,,,71,0
40030,note_on,94,0,1,,,,,,,,,11,,,71,0
40030,note_on,94,0,6,,,,,,,,,8,,,35,0
40030,note_on,94,0,4,,,,,,,,,4,,,63,0
40030,note_on,94,0,5,,,,,,,,,6,,,47,0
40030,note_on,94,0,3,,,,,,,,,3,,,83,0
40032,note_on,2,0,4,,,,,,,,,4,,,63,92
40032,note_on,2,0,5,,,,,,,,,6,,,47,92
40032,note_on,2,0,6,,,,,,,,,8,,,35,92
40032,note_on,2,0,2,,,,,,,,,0,,,66,127
40032,note_on,2,0,1,,,,,,,,,11,,,66,127
40032,note_on,2,0,3,,,,,,,,,3,,,81,127
40078,note_on,46,0,3,,,,,,,,,3,,,81,0
40080,note_on,2,0,3,,,,,,,,,3,,,80,127
40126,note_on,94,0,1,,,,,,,,,11,,,66,0
40126,note_on,94,0,5,,,,,,,,,6,,,47,0
40126,note_on,94,0,2,,,,,,,,,0,,,66,0
40126,note_on,94,0,6,,,,,,,,,8,,,35,0
40126,note_on,94,0,4,,,,,,,,,4,,,63,0
40126,note_on,46,0,3,,,,,,,,,3,,,80,0
40128,note_on,2,0,2,,,,,,,,,0,,,59,127
40128,note_on,2,0,1,,,,,,,,,11,,,59,127
40128,note_on,2,0,6,,,,,,,,,8,,,35,92
40128,note_on,2,0,3,,,,,,,,,3,,,78,127
40128,note_on,2,0,5,,,,,,,,,6,,,47,92
40128,note_on,2,0,4,,,,,,,,,4,,,63,92
40174,note_on,46,0,3,,,,,,,,,3,,,78,0
40176,note_on,2,0,3,,,,,,,,,3,,,76,127
40222,note_on,94,0,6,,,,,,,,,8,,,35,0
40222,note_on,94,0,5,,,,,,,,,6,,,47,0
40222,note_on,46,0,3,,,,,,,,,3,,,76,0
40222,note_on,94,0,4,,,,,,,,,4,,,63,0
40224,note_on,2,0,4,,,,,,,,,4,,,63,92
40224,note_on,2,0,6,,,,,,,,,8,,,35,92
40224,note_on,2,0,3,,,,,,,,,3,,,75,127
40224,note_on,2,0,5,,,,,,,,,6,,,47,92
40270,note_on,46,0,3,,,,,,,,,3,,,75,0
40272,note_on,2,0,3,,,,,,,,,3,,,73,127
40288,note_on,160,0,1,,,,,,,,,11,,,59,0
40288,note_on,160,0,2,,,,,,,,,0,,,59,0
40318,note_on,94,0,6,,,,,,,,,8,,,35,0
40318,note_on,94,0,5,,,,,,,,,6,,,47,0
40318,note_on,46,0,3,,,,,,,,,3,,,73,0
40318,note_on,94,0,4,,,,,,,,,4,,,63,0
40320,note_on,2,0,5,,,,,,,,,6,,,47,92
40320,note_on,2,0,6,,,,,,,,,8,,,35,92
40320,note_on,2,0,4,,,,,,,,,4,,,66,92
40320,note_on,32,0,1,,,,,,,,,11,,,75,127
40320,note_on,32,0,2,,,,,,,,,0,,,75,127
40320,note_on,2,0,3,,,,,,,,,3,,,71,127
40366,note_on,46,0,1,,,,,,,,,11,,,75,0
40366,note_on,46,0,2,,,,,,,,,0,,,75,0
40368,note_on,2,0,1,,,,,,,,,11,,,76,127
40368,note_on,2,0,2,,,,,,,,,0,,,76,127
40414,note_on,94,0,4,,,,,,,,,4,,,66,0
40414,note_on,94,0,3,,,,,,,,,3,,,71,0
40414,note_on,94,0,6,,,,,,,,,8,,,35,0
40414,note_on,46,0,2,,,,,,,,,0,,,76,0
40414,note_on,46,0,1,,,,,,,,,11,,,76,0
40414,note_on,94,0,5,,,,,,,,,6,,,47,0
40416,note_on,2,0,4,,,,,,,,,4,,,66,92
40416,note_on,2,0,1,,,,,,,,,11,,,78,127
40416,note_on,2,0,2,,,,,,,,,0,,,78,127
40416,note_on,2,0,3,,,,,,,,,3,,,66,127
40416,note_on,2,0,6,,,,,,,,,8,,,35,92
40416,note_on,2,0,5,,,,,,,,,6,,,47,92
40462,note_on,46,0,2,,,,,,,,,0,,,78,0
40462,note_on,46,0,1,,,,,,,,,11,,,78,0
40464,note_on,2,0,2,,,,,,,,,0,,,80,127
40464,note_on,2,0,1,,,,,,,,,11,,,80,127
40510,note_on,46,0,2,,,,,,,,,0,,,80,0
40510,note_on,94,0,4,,,,,,,,,4,,,66,0
40510,note_on,94,0,5,,,,,,,,,6,,,47,0
40510,note_on,94,0,3,,,,,,,,,3,,,66,0
40510,note_on,94,0,6,,,,,,,,,8,,,35,0
40510,note_on,46,0,1,,,,,,,,,11,,,80,0
40512,note_on,2,0,5,,,,,,,,,6,,,47,92
40512,note_on,2,0,4,,,,,,,,,4,,,66,92
40512,note_on,2,0,3,,,,,,,,,3,,,59,127
40512,note_on,2,0,2,,,,,,,,,0,,,81,127
40512,note_on,2,0,6,,,,,,,,,8,,,35,92
40512,note_on,2,0,1,,,,,,,,,11,,,81,127
40606,note_on,94,0,5,,,,,,,,,6,,,47,0
40606,note_on,94,0,4,,,,,,,,,4,,,66,0
40606,note_on,94,0,6,,,,,,,,,8,,,35,0
40608,note_on,2,0,5,,,,,,,,,6,,,47,92
40608,note_on,2,0,4,,,,,,,,,4,,,63,92
40608,note_on,2,0,6,,,,,,,,,8,,,35,92
40672,note_on,160,0,1,,,,,,,,,11,,,81,0
40672,note_on,160,0,2,,,,,,,,,0,,,81,0
40672,note_on,160,0,3,,,,,,,,,3,,,59,0
40702,note_on,94,0,5,,,,,,,,,6,,,47,0
40702,note_on,94,0,4,,,,,,,,,4,,,63,0
40702,note_on,94,0,6,,,,,,,,,8,,,35,0
40704,control_change,32,0,2,,,,,,,,,0,10,64,,
40704,note_on,32,0,3,,,,,,,,,3,,,76,127
40704,note_on,2,0,5,,,,,,,,,6,,,52,92
40704,note_on,32,0,1,,,,,,,,,11,,,79,127
40704,note_on,2,0,4,,,,,,,,,4,,,59,92
40704,note_on,0,0,2,,,,,,,,,0,,,79,127
40704,note_on,2,0,6,,,,,,,,,8,,,40,92
40750,note_on,46,0,3,,,,,,,,,3,,,76,0
40750,note_on,46,0,1,,,,,,,,,11,,,79,0
40750,note_on,46,0,2,,,,,,,,,0,,,79,0
40752,note_on,2,0,1,,,,,,,,,11,,,76,127
40752,note_on,2,0,2,,,,,,,,,0,,,76,127
40752,note_on,2,0,3,,,,,,,,,3,,,75,127
40798,note_on,46,0,1,,,,,,,,,11,,,76,0
40798,note_on,46,0,3,,,,,,,,,3,,,75,0
40798,note_on,94,0,5,,,,,,,,,6,,,52,0
40798,note_on,94,0,6,,,,,,,,,8,,,40,0
40798,note_on,46,0,2,,,,,,,,,0,,,76,0
40800,note_on,2,0,3,,,,,,,,,3,,,73,127
40800,note_on,2,0,5,,,,,,,,,6,,,52,92
40800,note_on,2,0,6,,,,,,,,,8,,,40,92
40800,note_on,2,0,2,,,,,,,,,0,,,71,127
40800,note_on,2,0,1,,,,,,,,,11,,,71,127
40846,note_on,46,0,1,,,,,,,,,11,,,71,0
40846,note_on,46,0,2,,,,,,,,,0,,,71,0
40846,note_on,46,0,3,,,,,,,,,3,,,73,0
40848,note_on,2,0,3,,,,,,,,,3,,,71,127
40848,note_on,2,0,1,,,,,,,,,11,,,79,127
40848,note_on,2,0,2,,,,,,,,,0,,,79,127
40864,note_on,160,0,4,,,,,,,,,4,,,59,0
40894,note_on,94,0,6,,,,,,,,,8,,,40,0
40894,note_on,46,0,3,,,,,,,,,3,,,71,0
40894,note_on,94,0,5,,,,,,,,,6,,,52,0
40894,note_on,46,0,1,,,,,,,,,11,,,79,0
40894,note_on,46,0,2,,,,,,,,,0,,,79,0
40896,note_on,2,0,5,,,,,,,,,6,,,51,92
40896,note_on,32,0,4,,,,,,,,,4,,,71,92
40896,note_on,2,0,2,,,,,,,,,0,,,81,127
40896,note_on,2,0,6,,,,,,,,,8,,,39,92
40896,note_on,2,0,1,,,,,,,,,11,,,81,127
40896,note_on,2,0,3,,,,,,,,,3,,,78,127
40942,note_on,46,0,1,,,,,,,,,11,,,81,0
40942,note_on,46,0,2,,,,,,,,,0,,,81,0
40944,note_on,2,0,1,,,,,,,,,11,,,78,127
40944,note_on,2,0,2,,,,,,,,,0,,,78,127
40990,note_on,94,0,5,,,,,,,,,6,,,51,0
40990,note_on,46,0,2,,,,,,,,,0,,,78,0
40990,note_on,46,0,1,,,,,,,,,11,,,78,0
40990,note_on,94,0,6,,,,,,,,,8,,,39,0
40992,note_on,2,0,1,,,,,,,,,11,,,71,127
40992,note_on,2,0,2,,,,,,,,,0,,,71,127
40992,note_on,2,0,6,,,,,,,,,8,,,39,92
40992,note_on,2,0,5,,,,,,,,,6,,,51,92
41038,note_on,46,0,2,,,,,,,,,0,,,71,0
41038,note_on,46,0,1,,,,,,,,,11,,,71,0
41040,note_on,2,0,2,,,,,,,,,0,,,81,127
41040,note_on,2,0,1,,,,,,,,,11,,,81,127
41056,note_on,160,0,4,,,,,,,,,4,,,71,0
41056,note_on,160,0,3,,,,,,,,,3,,,78,0
41086,note_on,46,0,2,,,,,,,,,0,,,81,0
41086,note_on,94,0,6,,,,,,,,,8,,,39,0
41086,note_on,46,0,1,,,,,,,,,11,,,81,0
41086,note_on,94,0,5,,,,,,,,,6,,,51,0
41088,note_on,2,0,6,,,,,,,,,8,,,40,92
41088,note_on,2,0,5,,,,,,,,,6,,,52,92
41088,note_on,32,0,3,,,,,,,,,3,,,76,127
41088,note_on,2,0,1,,,,,,,,,11,,,79,127
41088,note_on,32,0,4,,,,,,,,,4,,,71,92
41088,note_on,2,0,2,,,,,,,,,0,,,79,127
41134,note_on,46,0,1,,,,,,,,,11,,,79,0
41134,note_on,46,0,2,,,,,,,,,0,,,79,0
41134,note_on,46,0,3,,,,,,,,,3,,,76,0
41136,note_on,2,0,3,,,,,,,,,3,,,75,127
41136,note_on,2,0,1,,,,,,,,,11,,,76,127
41136,note_on,2,0,2,,,,,,,,,0,,,76,127
41182,note_on,94,0,6,,,,,,,,,8,,,40,0
41182,note_on,94,0,5,,,,,,,,,6,,,52,0
41182,note_on,46,0,3,,,,,,,,,3,,,75,0
41182,note_on,46,0,2,,,,,,,,,0,,,76,0
41182,note_on,46,0,1,,,,,,,,,11,,,76,0
41184,note_on,2,0,2,,,,,,,,,0,,,71,127
41184,note_on,2,0,5,,,,,,,,,6,,,52,92
41184,note_on,2,0,1,,,,,,,,,11,,,71,127
41184,note_on,2,0,6,,,,,,,,,8,,,40,92
41184,note_on,2,0,3,,,,,,,,,3,,,73,127
41230,note_on,46,0,3,,,,,,,,,3,,,73,0
41230,note_on,46,0,1,,,,,,,,,11,,,71,0
41230,note_on,46,0,2,,,,,,,,,0,,,71,0
41232,note_on,2,0,2,,,,,,,,,0,,,79,127
41232,note_on,2,0,3,,,,,,,,,3,,,71,127
41232,note_on,2,0,1,,,,,,,,,11,,,79,127
41248,note_on,160,0,4,,,,,,,,,4,,,71,0
41278,note_on,94,0,5,,,,,,,,,6,,,52,0
41278,note_on,46,0,2,,,,,,,,,0,,,79,0
41278,note_on,46,0,1,,,,,,,,,11,,,79,0
41278,note_on,94,0,6,,,,,,,,,8,,,40,0
41278,note_on,46,0,3,,,,,,,,,3,,,71,0
41280,note_on,2,0,5,,,,,,,,,6,,,51,92
41280,note_on,32,0,4,,,,,,,,,4,,,71,92
41280,note_on,2,0,3,,,,,,,,,3,,,78,127
41280,note_on,2,0,2,,,,,,,,,0,,,81,127
41280,note_on,2,0,1,,,,,,,,,11,,,81,127
41280,note_on,2,0,6,,,,,,,,,8,,,39,92
41326,note_on,46,0,1,,,,,,,,,11,,,81,0
41326,note_on,46,0,2,,,,,,,,,0,,,81,0
41328,note_on,2,0,2,,,,,,,,,0,,,78,127
41328,note_on,2,0,1,,,,,,,,,11,,,78,127
41374,note_on,46,0,2,,,,,,,,,0,,,78,0
41374,note_on,94,0,6,,,,,,,,,8,,,39,0
41374,note_on,46,0,1,,,,,,,,,11,,,78,0
41374,note_on,94,0,5,,,,,,,,,6,,,51,0
41376,note_on,2,0,6,,,,,,,,,8,,,39,92
41376,note_on,2,0,2,,,,,,,,,0,,,71,127
41376,note_on,2,0,5,,,,,,,,,6,,,51,92
41376,note_on,2,0,1,,,,,,,,,11,,,71,127
41422,note_on,46,0,2,,,,,,,,,0,,,71,0
41422,note_on,46,0,1,,,,,,,,,11,,,71,0
41424,note_on,2,0,1,,,,,,,,,11,,,81,127
41424,note_on,2,0,2,,,,,,,,,0,,,81,127
41440,note_on,160,0,4,,,,,,,,,4,,,71,0
41440,note_on,160,0,3,,,,,,,,,3,,,78,0
41470,note_on,94,0,5,,,,,,,,,6,,,51,0
41470,note_on,46,0,2,,,,,,,,,0,,,81,0
41470,note_on,46,0,1,,,,,,,,,11,,,81,0
41470,note_on,94,0,6,,,,,,,,,8,,,39,0
41472,note_on,2,0,1,,,,,,,,,11,,,79,127
41472,note_on,32,0,3,,,,,,,,,3,,,76,127
41472,note_on,32,0,4,,,,,,,,,4,,,71,92
41472,note_on,2,0,6,,,,,,,,,8,,,40,92
41472,note_on,2,0,5,,,,,,,,,6,,,52,92
41472,note_on,2,0,2,,,,,,,,,0,,,79,127
41518,note_on,46,0,1,,,,,,,,,11,,,79,0
41518,note_on,46,0,3,,,,,,,,,3,,,76,0
41518,note_on,46,0,2,,,,,,,,,0,,,79,0
41520,note_on,2,0,1,,,,,,,,,11,,,76,127
41520,note_on,2,0,3,,,,,,,,,3,,,75,127
41520,note_on,2,0,2,,,,,,,,,0,,,76,127
41566,note_on,46,0,3,,,,,,,,,3,,,75,0
41566,note_on,46,0,2,,,,,,,,,0,,,76,0
41566,note_on,46,0,1,,,,,,,,,11,,,76,0
41566,note_on,94,0,6,,,,,,,,,8,,,40,0
41566,note_on,94,0,5,,,,,,,,,6,,,52,0
41568,note_on,2,0,3,,,,,,,,,3,,,73,127
41568,note_on,2,0,6,,,,,,,,,8,,,40,92
41568,note_on,2,0,1,,,,,,,,,11,,,71,127
41568,note_on,2,0,2,,,,,,,,,0,,,71,127
41568,note_on,2,0,5,,,,,,,,,6,,,52,92
41614,note_on,46,0,1,,,,,,,,,11,,,71,0
41614,note_on,46,0,3,,,,,,,,,3,,,73,0
41614,note_on,46,0,2,,,,,,,,,0,,,71,0
41616,note_on,2,0,3,,,,,,,,,3,,,71,127
41616,note_on,2,0,1,,,,,,,,,11,,,79,127
41616,note_on,2,0,2,,,,,,,,,0,,,79,127
41632,note_on,160,0,4,,,,,,,,,4,,,71,0
41662,note_on,46,0,3,,,,,,,,,3,,,71,0
41662,note_on,46,0,2,,,,,,,,,0,,,79,0
41662,note_on,94,0,6,,,,,,,,,8,,,40,0
41662,note_on,46,0,1,,,,,,,,,11,,,79,0
41662,note_on,94,0,5,,,,,,,,,6,,,52,0
41664,note_on,2,0,5,,,,,,,,,6,,,51,92
41664,note_on,2,0,6,,,,,,,,,8,,,39,92
41664,note_on,2,0,2,,,,,,,,,0,,,81,127
41664,note_on,2,0,1,,,,,,,,,11,,,81,127
41664,note_on,2,0,3,,,,,,,,,3,,,78,127
41664,note_on,32,0,4,,,,,,,,,4,,,71,92
41710,note_on,46,0,2,,,,,,,,,0,,,81,0
41710,note_on,46,0,1,,,,,,,,,11,,,81,0
41712,note_on,2,0,2,,,,,,,,,0,,,78,127
41712,note_on,2,0,1,,,,,,,,,11,,,78,127
41758,note_on,46,0,2,,,,,,,,,0,,,78,0
41758,note_on,46,0,1,,,,,,,,,11,,,78,0
41758,note_on,94,0,5,,,,,,,,,6,,,51,0
41758,note_on,94,0,6,,,,,,,,,8,,,39,0
41760,note_on,2,0,2,,,,,,,,,0,,,71,127
41760,note_on,2,0,6,,,,,,,,,8,,,39,92
41760,note_on,2,0,5,,,,,,,,,6,,,51,92
41760,note_on,2,0,1,,,,,,,,,11,,,71,127
41806,note_on,46,0,2,,,,,,,,,0,,,71,0
41806,note_on,46,0,1,,,,,,,,,11,,,71,0
41808,note_on,2,0,1,,,,,,,,,11,,,81,127
41808,note_on,2,0,2,,,,,,,,,0,,,81,127
41824,note_on,160,0,4,,,,,,,,,4,,,71,0
41824,note_on,160,0,3,,,,,,,,,3,,,78,0
41854,note_on,46,0,1,,,,,,,,,11,,,81,0
41854,note_on,94,0,6,,,,,,,,,8,,,39,0
41854,note_on,46,0,2,,,,,,,,,0,,,81,0
41854,note_on,94,0,5,,,,,,,,,6,,,51,0
41856,note_on,2,0,5,,,,,,,,,6,,,52,92
41856,note_on,2,0,2,,,,,,,,,0,,,79,127
41856,control_change,32,0,3,,,,,,,,,3,10,0,,
41856,note_on,0,0,3,,,,,,,,,3,,,76,127
41856,note_on,2,0,6,,,,,,,,,8,,,40,92
41856,note_on,32,0,4,,,,,,,,,4,,,71,92
41856,note_on,2,0,1,,,,,,,,,11,,,79,127
42016,note_on,160,0,4,,,,,,,,,4,,,71,0
42016,note_on,160,0,3,,,,,,,,,3,,,76,0
42016,note_on,160,0,5,,,,,,,,,6,,,52,0
42016,note_on,160,0,1,,,,,,,,,11,,,79,0
42016,note_on,160,0,2,,,,,,,,,0,,,79,0
42016,note_on,160,0,6,,,,,,,,,8,,,40,0
42048,note_on,32,0,6,,,,,,,,,8,,,52,92
42048,note_on,32,0,4,,,,,,,,,4,,,76,92
42048,note_on,32,0,3,,,,,,,,,3,,,76,127
42048,note_on,32,0,5,,,,,,,,,6,,,64,92
42048,note_on,32,0,1,,,,,,,,,11,,,76,127
42048,control_change,32,0,2,,,,,,,,,0,10,127,,
42048,note_on,0,0,2,,,,,,,,,0,,,76,127
42142,note_on,94,0,4,,,,,,,,,4,,,76,0
42142,note_on,94,0,5,,,,,,,,,6,,,64,0
42142,note_on,94,0,3,,,,,,,,,3,,,76,0
42142,note_on,94,0,1,,,,,,,,,11,,,76,0
42142,note_on,94,0,2,,,,,,,,,0,,,76,0
42142,note_on,94,0,6,,,,,,,,,8,,,52,0
42144,note_on,2,0,1,,,,,,,,,11,,,76,127
42144,note_on,2,0,3,,,,,,,,,3,,,76,127
42144,note_on,2,0,5,,,,,,,,,6,,,64,92
42144,note_on,2,0,2,,,,,,,,,0,,,76,127
42144,note_on,2,0,4,,,,,,,,,4,,,76,92
42144,note_on,2,0,6,,,,,,,,,8,,,52,92
42238,note_on,94,0,4,,,,,,,,,4,,,76,0
42238,note_on,94,0,1,,,,,,,,,11,,,76,0
42238,note_on,94,0,5,,,,,,,,,6,,,64,0
42238,note_on,94,0,2,,,,,,,,,0,,,76,0
42238,note_on,94,0,3,,,,,,,,,3,,,76,0
42238,note_on,94,0,6,,,,,,,,,8,,,52,0
42240,note_on,2,0,1,,,,,,,,,11,,,72,127
42240,note_on,2,0,2,,,,,,,,,0,,,72,127
42240,note_on,2,0,3,,,,,,,,,3,,,72,127
42240,note_on,2,0,6,,,,,,,,,8,,,48,92
42240,note_on,2,0,4,,,,,,,,,4,,,72,92
42240,note_on,2,0,5,,,,,,,,,6,,,60,92
42334,note_on,94,0,5,,,,,,,,,6,,,60,0
42334,note_on,94,0,6,,,,,,,,,8,,,48,0
42334,note_on,94,0,1,,,,,,,,,11,,,72,0
42334,note_on,94,0,2,,,,,,,,,0,,,72,0
42334,note_on,94,0,4,,,,,,,,,4,,,72,0
42334,note_on,94,0,3,,,,,,,,,3,,,72,0
42336,note_on,2,0,5,,,,,,,,,6,,,60,92
42336,note_on,2,0,6,,,,,,,,,8,,,48,92
42336,note_on,2,0,4,,,,,,,,,4,,,72,92
42336,note_on,2,0,2,,,,,,,,,0,,,72,127
42336,note_on,2,0,1,,,,,,,,,11,,,72,127
42336,note_on,2,0,3,,,,,,,,,3,,,72,127
42430,note_on,94,0,6,,,,,,,,,8,,,48,0
42430,note_on,94,0,2,,,,,,,,,0,,,72,0
42430,note_on,94,0,3,,,,,,,,,3,,,72,0
42430,note_on,94,0,4,,,,,,,,,4,,,72,0
42430,note_on,94,0,5,,,,,,,,,6,,,60,0
42430,note_on,94,0,1,,,,,,,,,11,,,72,0
42432,note_on,2,0,3,,,,,,,,,3,,,70,127
42432,note_on,2,0,2,,,,,,,,,0,,,70,127
42432,note_on,2,0,4,,,,,,,,,4,,,70,92
42432,note_on,2,0,5,,,,,,,,,6,,,58,92
42432,note_on,2,0,6,,,,,,,,,8,,,46,92
42432,note_on,2,0,1,,,,,,,,,11,,,70,127
42526,note_on,94,0,1,,,,,,,,,11,,,70,0
42526,note_on,94,0,6,,,,,,,,,8,,,46,0
42526,note_on,94,0,2,,,,,,,,,0,,,70,0
42526,note_on,94,0,4,,,,,,,,,4,,,70,0
42526,note_on,94,0,3,,,,,,,,,3,,,70,0
42526,note_on,94,0,5,,,,,,,,,6,,,58,0
42528,note_on,2,0,1,,,,,,,,,11,,,70,127
42528,note_on,2,0,2,,,,,,,,,0,,,70,127
42528,note_on,2,0,4,,,,,,,,,4,,,70,92
42528,note_on,2,0,5,,,,,,,,,6,,,58,92
42528,note_on,2,0,6,,,,,,,,,8,,,46,92
42528,note_on,2,0,3,,,,,,,,,3,,,70,127
42622,note_on,94,0,2,,,,,,,,,0,,,70,0
42622,note_on,94,0,6,,,,,,,,,8,,,46,0
42622,note_on,94,0,4,,,,,,,,,4,,,70,0
42622,note_on,94,0,1,,,,,,,,,11,,,70,0
42622,note_on,94,0,5,,,,,,,,,6,,,58,0
42622,note_on,94,0,3,,,,,,,,,3,,,70,0
42624,note_on,2,0,6,,,,,,,,,8,,,47,92
42624,note_on,2,0,4,,,,,,,,,4,,,71,92
42624,note_on,2,0,2,,,,,,,,,0,,,71,127
42624,note_on,2,0,5,,,,,,,,,6,,,59,92
42624,note_on,2,0,3,,,,,,,,,3,,,71,127
42624,note_on,2,0,1,,,,,,,,,11,,,71,127
42784,note_on,160,0,4,,,,,,,,,4,,,71,0
42784,note_on,160,0,2,,,,,,,,,0,,,71,0
42784,note_on,160,0,1,,,,,,,,,11,,,71,0
42784,note_on,160,0,6,,,,,,,,,8,,,47,0
42784,note_on,160,0,3,,,,,,,,,3,,,71,0
42784,note_on,160,0,5,,,,,,,,,6,,,59,0
42816,note_on,32,0,2,,,,,,,,,0,,,81,127
42816,note_on,32,0,4,,,,,,,,,4,,,69,92
42816,note_on,32,0,6,,,,,,,,,8,,,45,92
42816,note_on,32,0,5,,,,,,,,,6,,,57,92
42816,note_on,32,0,1,,,,,,,,,11,,,81,127
42816,note_on,32,0,3,,,,,,,,,3,,,81,127
42910,note_on,94,0,6,,,,,,,,,8,,,45,0
42910,note_on,94,0,4,,,,,,,,,4,,,69,0
42910,note_on,94,0,1,,,,,,,,,11,,,81,0
42910,note_on,94,0,3,,,,,,,,,3,,,81,0
42910,note_on,94,0,5,,,,,,,,,6,,,57,0
42910,note_on,94,0,2,,,,,,,,,0,,,81,0
42912,note_on,2,0,2,,,,,,,,,0,,,81,127
42912,note_on,2,0,5,,,,,,,,,6,,,57,92
42912,note_on,2,0,3,,,,,,,,,3,,,81,127
42912,note_on,2,0,4,,,,,,,,,4,,,69,92
42912,note_on,2,0,1,,,,,,,,,11,,,81,127
42912,note_on,2,0,6,,,,,,,,,8,,,45,92
43006,note_on,94,0,2,,,,,,,,,0,,,81,0
43006,note_on,94,0,4,,,,,,,,,4,,,69,0
43006,note_on,94,0,1,,,,,,,,,11,,,81,0
43006,note_on,94,0,5,,,,,,,,,6,,,57,0
43006,note_on,94,0,6,,,,,,,,,8,,,45,0
43006,note_on,94,0,3,,,,,,,,,3,,,81,0
43008,note_on,2,0,3,,,,,,,,,3,,,77,127
43008,note_on,2,0,2,,,,,,,,,0,,,77,127
43008,note_on,2,0,5,,,,,,,,,6,,,53,92
43008,note_on,2,0,6,,,,,,,,,8,,,41,92
43008,note_on,2,0,1,,,,,,,,,11,,,77,127
43008,note_on,2,0,4,,,,,,,,,4,,,65,92
43102,note_on,94,0,2,,,,,,,,,0,,,77,0
43102,note_on,94,0,6,,,,,,,,,8,,,41,0
43102,note_on,94,0,1,,,,,,,,,11,,,77,0
43102,note_on,94,0,3,,,,,,,,,3,,,77,0
43102,note_on,94,0,5,,,,,,,,,6,,,53,0
43102,note_on,94,0,4,,,,,,,,,4,,,65,0
43104,note_on,2,0,3,,,,,,,,,3,,,77,127
43104,note_on,2,0,1,,,,,,,,,11,,,77,127
43104,note_on,2,0,2,,,,,,,,,0,,,77,127
43104,note_on,2,0,4,,,,,,,,,4,,,65,92
43104,note_on,2,0,6,,,,,,,,,8,,,41,92
43104,note_on,2,0,5,,,,,,,,,6,,,53,92
43198,note_on,94,0,4,,,,,,,,,4,,,65,0
43198,note_on,94,0,1,,,,,,,,,11,,,77,0
43198,note_on,94,0,5,,,,,,,,,6,,,53,0
43198,note_on,94,0,3,,,,,,,,,3,,,77,0
43198,note_on,94,0,6,,,,,,,,,8,,,41,0
43198,note_on,94,0,2,,,,,,,,,0,,,77,0
43200,note_on,2,0,2,,,,,,,,,0,,,75,127
43200,note_on,2,0,5,,,,,,,,,6,,,51,92
43200,note_on,2,0,6,,,,,,,,,8,,,39,92
43200,note_on,2,0,4,,,,,,,,,4,,,63,92
43200,note_on,2,0,1,,,,,,,,,11,,,75,127
43200,note_on,2,0,3,,,,,,,,,3,,,75,127
43294,note_on,94,0,1,,,,,,,,,11,,,75,0
43294,note_on,94,0,4,,,,,,,,,4,,,63,0
43294,note_on,94,0,3,,,,,,,,,3,,,75,0
43294,note_on,94,0,6,,,,,,,,,8,,,39,0
43294,note_on,94,0,5,,,,,,,,,6,,,51,0
43294,note_on,94,0,2,,,,,,,,,0,,,75,0
43296,note_on,2,0,6,,,,,,,,,8,,,39,92
43296,note_on,2,0,2,,,,,,,,,0,,,75,127
43296,note_on,2,0,5,,,,,,,,,6,,,51,92
43296,note_on,2,0,4,,,,,,,,,4,,,63,92
43296,note_on,2,0,3,,,,,,,,,3,,,75,127
43296,note_on,2,0,1,,,,,,,,,11,,,75,127
43390,note_on,94,0,4,,,,,,,,,4,,,63,0
43390,note_on,94,0,3,,,,,,,,,3,,,75,0
43390,note_on,94,0,5,,,,,,,,,6,,,51,0
43390,note_on,94,0,2,,,,,,,,,0,,,75,0
43390,note_on,94,0,6,,,,,,,,,8,,,39,0
43390,note_on,94,0,1,,,,,,,,,11,,,75,0
43392,note_on,2,0,4,,,,,,,,,4,,,64,92
43392,note_on,2,0,2,,,,,,,,,0,,,76,127
43392,note_on,2,0,3,,,,,,,,,3,,,76,127
43392,note_on,2,0,6,,,,,,,,,8,,,40,92
43392,note_on,2,0,5,,,,,,,,,6,,,52,92
43392,note_on,2,0,1,,,,,,,,,11,,,76,127
43486,note_on,94,0,6,,,,,,,,,8,,,40,0
43486,note_on,94,0,2,,,,,,,,,0,,,76,0
43486,note_on,94,0,1,,,,,,,,,11,,,76,0
43486,note_on,94,0,3,,,,,,,,,3,,,76,0
43486,note_on,94,0,5,,,,,,,,,6,,,52,0
43488,note_on,2,0,5,,,,,,,,,6,,,64,92
43488,note_on,2,0,6,,,,,,,,,8,,,52,92
43488,note_on,2,0,2,,,,,,,,,0,,,80,127
43488,note_on,2,0,1,,,,,,,,,11,,,80,127
43488,note_on,2,0,3,,,,,,,,,3,,,83,127
43534,note_on,46,0,1,,,,,,,,,11,,,80,0
43534,note_on,46,0,5,,,,,,,,,6,,,64,0
43534,note_on,46,0,6,,,,,,,,,8,,,52,0
43534,note_on,46,0,2,,,,,,,,,0,,,80,0
43534,note_on,46,0,3,,,,,,,,,3,,,83,0
43536,note_on,2,0,6,,,,,,,,,8,,,51,92
43536,note_on,2,0,5,,,,,,,,,6,,,63,92
43536,note_on,2,0,1,,,,,,,,,11,,,76,127
43536,note_on,2,0,2,,,,,,,,,0,,,76,127
43536,note_on,2,0,3,,,,,,,,,3,,,80,127
43552,note_on,160,0,4,,,,,,,,,4,,,64,0
43582,note_on,46,0,3,,,,,,,,,3,,,80,0
43582,note_on,46,0,6,,,,,,,,,8,,,51,0
43582,note_on,46,0,2,,,,,,,,,0,,,76,0
43582,note_on,46,0,1,,,,,,,,,11,,,76,0
43582,note_on,46,0,5,,,,,,,,,6,,,63,0
43584,note_on,2,0,6,,,,,,,,,8,,,52,92
43584,note_on,2,0,2,,,,,,,,,0,,,80,127
43584,note_on,2,0,1,,,,,,,,,11,,,80,127
43584,note_on,2,0,3,,,,,,,,,3,,,83,127
43584,note_on,2,0,5,,,,,,,,,6,,,64,92
43630,note_on,46,0,1,,,,,,,,,11,,,80,0
43630,note_on,46,0,3,,,,,,,,,3,,,83,0
43630,note_on,46,0,2,,,,,,,,,0,,,80,0
43632,note_on,2,0,2,,,,,,,,,0,,,76,127
43632,note_on,2,0,1,,,,,,,,,11,,,76,127
43632,note_on,2,0,3,,,,,,,,,3,,,80,127
43678,note_on,46,0,1,,,,,,,,,11,,,76,0
43678,note_on,46,0,2,,,,,,,,,0,,,76,0
43678,note_on,94,0,5,,,,,,,,,6,,,64,0
43678,note_on,46,0,3,,,,,,,,,3,,,80,0
43678,note_on,94,0,6,,,,,,,,,8,,,52,0
43680,note_on,2,0,5,,,,,,,,,6,,,52,92
43680,note_on,2,0,2,,,,,,,,,0,,,80,127
43680,note_on,128,0,4,,,,,,,,,4,,,76,92
43680,note_on,2,0,3,,,,,,,,,3,,,83,127
43680,note_on,2,0,6,,,,,,,,,8,,,40,92
43680,note_on,2,0,1,,,,,,,,,11,,,80,127
43726,note_on,46,0,2,,,,,,,,,0,,,80,0
43726,note_on,46,0,1,,,,,,,,,11,,,80,0
43726,note_on,46,0,4,,,,,,,,,4,,,76,0
43726,note_on,46,0,3,,,,,,,,,3,,,83,0
43728,note_on,2,0,2,,,,,,,,,0,,,76,127
43728,note_on,2,0,3,,,,,,,,,3,,,80,127
43728,note_on,2,0,4,,,,,,,,,4,,,75,92
43728,note_on,2,0,1,,,,,,,,,11,,,76,127
43774,note_on,46,0,3,,,,,,,,,3,,,80,0
43774,note_on,94,0,6,,,,,,,,,8,,,40,0
43774,note_on,46,0,4,,,,,,,,,4,,,75,0
43774,note_on,46,0,1,,,,,,,,,11,,,76,0
43774,note_on,46,0,2,,,,,,,,,0,,,76,0
43774,note_on,94,0,5,,,,,,,,,6,,,52,0
43776,note_on,2,0,4,,,,,,,,,4,,,76,92
43776,note_on,2,0,1,,,,,,,,,11,,,85,127
43776,note_on,2,0,3,,,,,,,,,3,,,81,127
43776,note_on,2,0,2,,,,,,,,,0,,,85,127
43870,note_on,94,0,1,,,,,,,,,11,,,85,0
43870,note_on,94,0,3,,,,,,,,,3,,,81,0
43870,note_on,94,0,2,,,,,,,,,0,,,85,0
43870,note_on,94,0,4,,,,,,,,,4,,,76,0
43872,note_on,98,0,6,,,,,,,,,8,,,45,92
43872,note_on,2,0,1,,,,,,,,,11,,,85,127
43872,note_on,2,0,3,,,,,,,,,3,,,81,127
43872,note_on,2,0,4,,,,,,,,,4,,,64,92
43872,note_on,2,0,2,,,,,,,,,0,,,85,127
43872,note_on,98,0,5,,,,,,,,,6,,,57,92
43918,note_on,46,0,2,,,,,,,,,0,,,85,0
43918,note_on,46,0,5,,,,,,,,,6,,,57,0
43918,note_on,46,0,1,,,,,,,,,11,,,85,0
43918,note_on,46,0,6,,,,,,,,,8,,,45,0
43918,note_on,46,0,3,,,,,,,,,3,,,81,0
43920,note_on,2,0,3,,,,,,,,,3,,,76,127
43920,note_on,2,0,5,,,,,,,,,6,,,56,92
43920,note_on,2,0,2,,,,,,,,,0,,,81,127
43920,note_on,2,0,1,,,,,,,,,11,,,81,127
43920,note_on,2,0,6,,,,,,,,,8,,,44,92
43966,note_on,46,0,5,,,,,,,,,6,,,56,0
43966,note_on,94,0,4,,,,,,,,,4,,,64,0
43966,note_on,46,0,3,,,,,,,,,3,,,76,0
43966,note_on,46,0,1,,,,,,,,,11,,,81,0
43966,note_on,46,0,6,,,,,,,,,8,,,44,0
43966,note_on,46,0,2,,,,,,,,,0,,,81,0
43968,note_on,2,0,2,,,,,,,,,0,,,85,127
43968,note_on,2,0,3,,,,,,,,,3,,,81,127
43968,note_on,2,0,5,,,,,,,,,6,,,57,92
43968,note_on,2,0,1,,,,,,,,,11,,,85,127
43968,note_on,2,0,6,,,,,,,,,8,,,45,92
44014,note_on,46,0,2,,,,,,,,,0,,,85,0
44014,note_on,46,0,3,,,,,,,,,3,,,81,0
44014,note_on,46,0,1,,,,,,,,,11,,,85,0
44016,note_on,2,0,3,,,,,,,,,3,,,76,127
44016,note_on,2,0,1,,,,,,,,,11,,,81,127
44016,note_on,2,0,2,,,,,,,,,0,,,81,127
44062,note_on,46,0,3,,,,,,,,,3,,,76,0
44062,note_on,46,0,1,,,,,,,,,11,,,81,0
44062,note_on,94,0,5,,,,,,,,,6,,,57,0
44062,note_on,46,0,2,,,,,,,,,0,,,81,0
44062,note_on,94,0,6,,,,,,,,,8,,,45,0
44064,note_on,2,0,6,,,,,,,,,8,,,33,92
44064,note_on,2,0,1,,,,,,,,,11,,,85,127
44064,note_on,2,0,5,,,,,,,,,6,,,45,92
44064,note_on,98,0,4,,,,,,,,,4,,,76,92
44064,note_on,2,0,3,,,,,,,,,3,,,81,127
44064,note_on,2,0,2,,,,,,,,,0,,,85,127
44110,note_on,46,0,1,,,,,,,,,11,,,85,0
44110,note_on,46,0,3,,,,,,,,,3,,,81,0
44110,note_on,46,0,2,,,,,,,,,0,,,85,0
44110,note_on,46,0,4,,,,,,,,,4,,,76,0
44112,note_on,2,0,4,,,,,,,,,4,,,75,92
44112,note_on,2,0,3,,,,,,,,,3,,,76,127
44112,note_on,2,0,2,,,,,,,,,0,,,81,127
44112,note_on,2,0,1,,,,,,,,,11,,,81,127
44158,note_on,46,0,1,,,,,,,,,11,,,81,0
44158,note_on,94,0,6,,,,,,,,,8,,,33,0
44158,note_on,46,0,3,,,,,,,,,3,,,76,0
44158,note_on,94,0,5,,,,,,,,,6,,,45,0
44158,note_on,46,0,4,,,,,,,,,4,,,75,0
44158,note_on,46,0,2,,,,,,,,,0,,,81,0
44160,note_on,2,0,2,,,,,,,,,0,,,83,127
44160,note_on,2,0,4,,,,,,,,,4,,,76,92
44160,note_on,2,0,6,,,,,,,,,8,,,40,92
44160,note_on,2,0,3,,,,,,,,,3,,,80,127
44160,note_on,2,0,5,,,,,,,,,6,,,52,92
44160,note_on,2,0,1,,,,,,,,,11,,,83,127
44254,note_on,94,0,5,,,,,,,,,6,,,52,0
44254,note_on,94,0,6,,,,,,,,,8,,,40,0
44254,note_on,94,0,1,,,,,,,,,11,,,83,0
44254,note_on,94,0,2,,,,,,,,,0,,,83,0
44254,note_on,94,0,3,,,,,,,,,3,,,80,0
44254,note_on,94,0,4,,,,,,,,,4,,,76,0
44256,note_on,2,0,5,,,,,,,,,6,,,40,92
44256,note_on,2,0,1,,,,,,,,,11,,,76,127
44256,note_on,2,0,6,,,,,,,,,8,,,28,92
44256,note_on,2,0,2,,,,,,,,,0,,,76,127
44256,note_on,2,0,4,,,,,,,,,4,,,71,92
44256,note_on,2,0,3,,,,,,,,,3,,,76,127
44350,note_on,94,0,4,,,,,,,,,4,,,71,0
44350,note_on,94,0,5,,,,,,,,,6,,,40,0
44350,note_on,94,0,1,,,,,,,,,11,,,76,0
44350,note_on,94,0,6,,,,,,,,,8,,,28,0
44350,note_on,94,0,2,,,,,,,,,0,,,76,0
44350,note_on,94,0,3,,,,,,,,,3,,,76,0
44352,note_on,2,0,6,,,,,,,,,8,,,47,92
44352,note_on,2,0,2,,,,,,,,,0,,,80,127
44352,note_on,2,0,4,,,,,,,,,4,,,73,92
44352,note_on,2,0,1,,,,,,,,,11,,,80,127
44352,note_on,2,0,3,,,,,,,,,3,,,80,127
44352,note_on,2,0,5,,,,,,,,,6,,,59,92
44374,note_on,22,0,2,,,,,,,,,0,,,80,0
44374,note_on,22,0,3,,,,,,,,,3,,,80,0
44374,note_on,22,0,4,,,,,,,,,4,,,73,0
44374,note_on,22,0,1,,,,,,,,,11,,,80,0
44376,note_on,2,0,2,,,,,,,,,0,,,78,127
44376,note_on,2,0,4,,,,,,,,,4,,,71,92
44376,note_on,2,0,1,,,,,,,,,11,,,78,127
44376,note_on,2,0,3,,,,,,,,,3,,,78,127
44398,note_on,22,0,1,,,,,,,,,11,,,78,0
44398,note_on,22,0,2,,,,,,,,,0,,,78,0
44398,note_on,22,0,4,,,,,,,,,4,,,71,0
44398,note_on,22,0,3,,,,,,,,,3,,,78,0
44400,note_on,2,0,1,,,,,,,,,11,,,80,127
44400,note_on,2,0,4,,,,,,,,,4,,,73,92
44400,note_on,2,0,3,,,,,,,,,3,,,80,127
44400,note_on,2,0,2,,,,,,,,,0,,,80,127
44422,note_on,22,0,2,,,,,,,,,0,,,80,0
44422,note_on,22,0,3,,,,,,,,,3,,,80,0
44422,note_on,22,0,4,,,,,,,,,4,,,73,0
44422,note_on,22,0,1,,,,,,,,,11,,,80,0
44424,note_on,2,0,2,,,,,,,,,0,,,78,127
44424,note_on,2,0,3,,,,,,,,,3,,,78,127
44424,note_on,2,0,1,,,,,,,,,11,,,78,127
44424,note_on,2,0,4,,,,,,,,,4,,,75,92
44446,note_on,94,0,5,,,,,,,,,6,,,59,0
44446,note_on,94,0,6,,,,,,,,,8,,,47,0
44448,note_on,2,0,5,,,,,,,,,6,,,47,92
44448,note_on,2,0,6,,,,,,,,,8,,,35,92
44542,note_on,118,0,2,,,,,,,,,0,,,78,0
44542,note_on,118,0,1,,,,,,,,,11,,,78,0
44542,note_on,118,0,4,,,,,,,,,4,,,75,0
44542,note_on,94,0,5,,,,,,,,,6,,,47,0
44542,note_on,94,0,6,,,,,,,,,8,,,35,0
44542,note_on,118,0,3,,,,,,,,,3,,,78,0
44544,note_on,2,0,5,,,,,,,,,6,,,64,92
44544,note_on,2,0,3,,,,,,,,,3,,,76,127
44544,note_on,2,0,1,,,,,,,,,11,,,76,127
44544,note_on,2,0,2,,,,,,,,,0,,,76,127
44544,note_on,2,0,4,,,,,,,,,4,,,76,92
44544,note_on,2,0,6,,,,,,,,,8,,,52,92
44638,note_on,94,0,2,,,,,,,,,0,,,76,0
44638,note_on,94,0,4,,,,,,,,,4,,,76,0
44638,note_on,94,0,5,,,,,,,,,6,,,64,0
44638,note_on,94,0,6,,,,,,,,,8,,,52,0
44638,note_on,94,0,3,,,,,,,,,3,,,76,0
44638,note_on,94,0,1,,,,,,,,,11,,,76,0
44640,note_on,2,0,1,,,,,,,,,11,,,71,127
44640,note_on,2,0,6,,,,,,,,,8,,,47,92
44640,note_on,2,0,3,,,,,,,,,3,,,71,127
44640,note_on,2,0,4,,,,,,,,,4,,,71,92
44640,note_on,2,0,2,,,,,,,,,0,,,71,127
44640,note_on,2,0,5,,,,,,,,,6,,,59,92
44734,note_on,94,0,6,,,,,,,,,8,,,47,0
44734,note_on,94,0,4,,,,,,,,,4,,,71,0
44734,note_on,94,0,1,,,,,,,,,11,,,71,0
44734,note_on,94,0,2,,,,,,,,,0,,,71,0
44734,note_on,94,0,3,,,,,,,,,3,,,71,0
44734,note_on,94,0,5,,,,,,,,,6,,,59,0
44736,note_on,2,0,5,,,,,,,,,6,,,52,92
44736,note_on,2,0,2,,,,,,,,,0,,,64,127
44736,note_on,2,0,6,,,,,,,,,8,,,40,92
44736,note_on,2,0,1,,,,,,,,,11,,,64,127
44736,note_on,2,0,4,,,,,,,,,4,,,64,92
44736,note_on,2,0,3,,,,,,,,,3,,,64,127
44896,note_on,160,0,1,,,,,,,,,11,,,64,0
44896,note_on,160,0,5,,,,,,,,,6,,,52,0
44896,note_on,160,0,2,,,,,,,,,0,,,64,0
44896,note_on,160,0,4,,,,,,,,,4,,,64,0
44896,note_on,160,0,3,,,,,,,,,3,,,64,0
44896,note_on,160,0,6,,,,,,,,,8,,,40,0
44928,note_on,32,0,3,,,,,,,,,3,,,76,127
44928,note_on,32,0,2,,,,,,,,,0,,,76,127
44928,note_on,32,0,4,,,,,,,,,4,,,76,92
44928,note_on,32,0,6,,,,,,,,,8,,,52,92
44928,note_on,32,0,1,,,,,,,,,11,,,76,127
44928,note_on,32,0,5,,,,,,,,,6,,,64,92
45022,note_on,94,0,4,,,,,,,,,4,,,76,0
45022,note_on,94,0,6,,,,,,,,,8,,,52,0
45022,note_on,94,0,3,,,,,,,,,3,,,76,0
45022,note_on,94,0,1,,,,,,,,,11,,,76,0
45022,note_on,94,0,5,,,,,,,,,6,,,64,0
45022,note_on,94,0,2,,,,,,,,,0,,,76,0
45024,note_on,2,0,1,,,,,,,,,11,,,71,127
45024,note_on,2,0,5,,,,,,,,,6,,,59,92
45024,note_on,2,0,3,,,,,,,,,3,,,71,127
45024,note_on,2,0,4,,,,,,,,,4,,,71,92
45024,note_on,2,0,6,,,,,,,,,8,,,47,92
45024,note_on,2,0,2,,,,,,,,,0,,,71,127
45118,note_on,94,0,2,,,,,,,,,0,,,71,0
45118,note_on,94,0,3,,,,,,,,,3,,,71,0
45118,note_on,94,0,4,,,,,,,,,4,,,71,0
45118,note_on,94,0,1,,,,,,,,,11,,,71,0
45118,note_on,94,0,6,,,,,,,,,8,,,47,0
45118,note_on,94,0,5,,,,,,,,,6,,,59,0
45120,note_on,2,0,1,,,,,,,,,11,,,64,127
45120,note_on,2,0,6,,,,,,,,,8,,,40,92
45120,note_on,2,0,4,,,,,,,,,4,,,64,92
45120,note_on,2,0,5,,,,,,,,,6,,,52,92
45120,note_on,2,0,3,,,,,,,,,3,,,64,127
45120,note_on,2,0,2,,,,,,,,,0,,,64,127
45280,note_on,160,0,6,,,,,,,,,8,,,40,0
45280,note_on,160,0,4,,,,,,,,,4,,,64,0
45280,note_on,160,0,5,,,,,,,,,6,,,52,0
45280,note_on,160,0,2,,,,,,,,,0,,,64,0
45280,note_on,160,0,3,,,,,,,,,3,,,64,0
45280,note_on,160,0,1,,,,,,,,,11,,,64,0
45312,note_on,32,0,5,,,,,,,,,6,,,49,60
45312,note_on,32,0,1,,,,,,,,,11,,,76,127
45312,set_tempo,43776,1,0,,,,,,480000,,,,,,,
45344,note_on,32,0,1,,,,,,,,,11,,,76,0
45344,note_on,0,0,1,,,,,,,,,11,,,80,127
45376,note_on,0,0,1,,,,,,,,,11,,,78,127
45376,note_on,32,0,1,,,,,,,,,11,,,80,0
45408,note_on,0,0,1,,,,,,,,,11,,,76,127
45408,note_on,32,0,1,,,,,,,,,11,,,78,0
45440,note_on,32,0,1,,,,,,,,,11,,,76,0
45440,note_on,0,0,1,,,,,,,,,11,,,75,127
45472,note_on,160,0,5,,,,,,,,,6,,,49,0
45472,note_on,32,0,1,,,,,,,,,11,,,75,0
45472,note_on,0,0,1,,,,,,,,,11,,,73,127
45504,note_on,32,0,5,,,,,,,,,6,,,54,60
45504,note_on,32,0,1,,,,,,,,,11,,,73,0
45504,note_on,0,0,1,,,,,,,,,11,,,81,127
45536,note_on,32,0,1,,,,,,,,,11,,,81,0
45536,note_on,0,0,1,,,,,,,,,11,,,80,127
45568,note_on,32,0,1,,,,,,,,,11,,,80,0
45568,note_on,0,0,1,,,,,,,,,11,,,78,127
45600,note_on,32,0,1,,,,,,,,,11,,,78,0
45600,note_on,0,0,1,,,,,,,,,11,,,76,127
45632,note_on,0,0,1,,,,,,,,,11,,,75,127
45632,note_on,32,0,1,,,,,,,,,11,,,76,0
45664,note_on,160,0,5,,,,,,,,,6,,,54,0
45664,note_on,32,0,1,,,,,,,,,11,,,75,0
45664,note_on,0,0,1,,,,,,,,,11,,,73,127
45696,note_on,32,0,5,,,,,,,,,6,,,56,60
45696,note_on,32,0,1,,,,,,,,,11,,,73,0
45696,note_on,0,0,1,,,,,,,,,11,,,72,127
45728,note_on,0,0,1,,,,,,,,,11,,,75,127
45728,note_on,32,0,1,,,,,,,,,11,,,72,0
45760,note_on,0,0,1,,,,,,,,,11,,,73,127
45760,note_on,32,0,1,,,,,,,,,11,,,75,0
45792,note_on,0,0,1,,,,,,,,,11,,,72,127
45792,note_on,32,0,1,,,,,,,,,11,,,73,0
45824,note_on,32,0,1,,,,,,,,,11,,,72,0
45824,note_on,0,0,1,,,,,,,,,11,,,73,127
45856,note_on,160,0,5,,,,,,,,,6,,,56,0
45856,note_on,32,0,1,,,,,,,,,11,,,73,0
45856,note_on,0,0,1,,,,,,,,,11,,,75,127
45888,note_on,32,0,5,,,,,,,,,6,,,44,60
45888,note_on,32,0,1,,,,,,,,,11,,,75,0
45888,note_on,0,0,1,,,,,,,,,11,,,68,127
45920,note_on,0,0,1,,,,,,,,,11,,,75,127
45920,note_on,32,0,1,,,,,,,,,11,,,68,0
45952,note_on,0,0,1,,,,,,,,,11,,,73,127
45952,note_on,32,0,1,,,,,,,,,11,,,75,0
45984,note_on,32,0,1,,,,,,,,,11,,,73,0
45984,note_on,0,0,1,,,,,,,,,11,,,72,127
46016,note_on,32,0,1,,,,,,,,,11,,,72,0
46016,note_on,0,0,1,,,,,,,,,11,,,73,127
46048,note_on,160,0,5,,,,,,,,,6,,,44,0
46048,note_on,32,0,1,,,,,,,,,11,,,73,0
46048,note_on,0,0,1,,,,,,,,,11,,,75,127
46080,note_on,32,0,5,,,,,,,,,6,,,44,60
46080,note_on,32,0,1,,,,,,,,,11,,,75,0
46080,note_on,0,0,1,,,,,,,,,11,,,66,127
46112,note_on,32,0,1,,,,,,,,,11,,,66,0
46112,note_on,0,0,1,,,,,,,,,11,,,75,127
46144,note_on,32,0,1,,,,,,,,,11,,,75,0
46144,note_on,0,0,1,,,,,,,,,11,,,73,127
46176,note_on,0,0,1,,,,,,,,,11,,,72,127
46176,note_on,32,0,1,,,,,,,,,11,,,73,0
46208,note_on,32,0,1,,,,,,,,,11,,,72,0
46208,note_on,0,0,1,,,,,,,,,11,,,73,127
46240,note_on,32,0,1,,,,,,,,,11,,,73,0
46240,note_on,0,0,1,,,,,,,,,11,,,75,127
46240,note_on,160,0,5,,,,,,,,,6,,,44,0
46272,note_on,32,0,1,,,,,,,,,11,,,75,0
46272,note_on,0,0,1,,,,,,,,,11,,,66,127
46272,note_on,32,0,5,,,,,,,,,6,,,44,60
46304,note_on,0,0,1,,,,,,,,,11,,,75,127
46304,note_on,32,0,1,,,,,,,,,11,,,66,0
46336,note_on,32,0,1,,,,,,,,,11,,,75,0
46336,note_on,0,0,1,,,,,,,,,11,,,73,127
46368,note_on,32,0,1,,,,,,,,,11,,,73,0
46368,note_on,0,0,1,,,,,,,,,11,,,72,127
46400,note_on,32,0,1,,,,,,,,,11,,,72,0
46400,note_on,0,0,1,,,,,,,,,11,,,73,127
46432,note_on,32,0,1,,,,,,,,,11,,,73,0
46432,note_on,0,0,1,,,,,,,,,11,,,75,127
46432,note_on,160,0,5,,,,,,,,,6,,,44,0
46464,note_on,32,0,1,,,,,,,,,11,,,75,0
46464,note_on,32,0,5,,,,,,,,,6,,,49,60
46464,note_on,0,0,1,,,,,,,,,11,,,64,127
46558,note_on,94,0,1,,,,,,,,,11,,,64,0
46558,note_on,94,0,5,,,,,,,,,6,,,49,0
46560,note_on,2,0,5,,,,,,,,,6,,,51,60
46560,note_on,2,0,1,,,,,,,,,11,,,61,127
46654,note_on,94,0,1,,,,,,,,,11,,,61,0
46654,note_on,94,0,5,,,,,,,,,6,,,51,0
46656,control_change,1376,0,2,,,,,,,,,0,10,0,,
46656,note_on,2,0,5,,,,,,,,,6,,,52,60
46656,control_change,1376,0,3,,,,,,,,,3,10,0,,
46750,note_on,94,0,5,,,,,,,,,6,,,52,0
46752,note_on,96,0,3,,,,,,,,,3,,,73,127
46752,note_on,98,0,1,,,,,,,,,11,,,80,127
46752,note_on,96,0,2,,,,,,,,,0,,,76,127
46752,note_on,2,0,5,,,,,,,,,6,,,49,60
46846,note_on,94,0,1,,,,,,,,,11,,,80,0
46846,note_on,94,0,5,,,,,,,,,6,,,49,0
46846,note_on,94,0,3,,,,,,,,,3,,,73,0
46846,note_on,94,0,2,,,,,,,,,0,,,76,0
46848,note_on,2,0,1,,,,,,,,,11,,,81,127
46848,note_on,2,0,3,,,,,,,,,3,,,73,127
46848,note_on,2,0,2,,,,,,,,,0,,,76,127
46872,note_on,24,0,1,,,,,,,,,11,,,81,0
46872,note_on,0,0,1,,,,,,,,,11,,,80,127
46896,note_on,0,0,1,,,,,,,,,11,,,78,127
46896,note_on,24,0,1,,,,,,,,,11,,,80,0
46942,note_on,94,0,3,,,,,,,,,3,,,73,0
46942,note_on,94,0,2,,,,,,,,,0,,,76,0
46944,note_on,2,0,3,,,,,,,,,3,,,73,127
46944,note_on,0,0,1,,,,,,,,,11,,,80,127
46944,note_on,2,0,2,,,,,,,,,0,,,76,127
46944,note_on,48,0,1,,,,,,,,,11,,,78,0
47038,note_on,94,0,3,,,,,,,,,3,,,73,0
47038,note_on,94,0,2,,,,,,,,,0,,,76,0
47040,note_on,0,0,1,,,,,,,,,11,,,81,127
47040,note_on,2,0,3,,,,,,,,,3,,,73,127
47040,note_on,2,0,2,,,,,,,,,0,,,76,127
47040,note_on,96,0,1,,,,,,,,,11,,,80,0
47064,note_on,0,0,1,,,,,,,,,11,,,80,127
47064,note_on,24,0,1,,,,,,,,,11,,,81,0
47088,note_on,0,0,1,,,,,,,,,11,,,78,127
47088,note_on,24,0,1,,,,,,,,,11,,,80,0
47134,note_on,94,0,3,,,,,,,,,3,,,73,0
47134,note_on,94,0,2,,,,,,,,,0,,,76,0
47136,note_on,2,0,3,,,,,,,,,3,,,73,127
47136,note_on,2,0,2,,,,,,,,,0,,,76,127
47136,note_on,48,0,1,,,,,,,,,11,,,78,0
47136,note_on,0,0,1,,,,,,,,,11,,,80,127
47230,note_on,94,0,3,,,,,,,,,3,,,73,0
47230,note_on,94,0,2,,,,,,,,,0,,,76,0
47232,note_on,2,0,3,,,,,,,,,3,,,71,127
47232,note_on,96,0,1,,,,,,,,,11,,,80,0
47232,note_on,0,0,1,,,,,,,,,11,,,86,127
47232,note_on,2,0,2,,,,,,,,,0,,,74,127
47326,note_on,94,0,3,,,,,,,,,3,,,71,0
47326,note_on,94,0,2,,,,,,,,,0,,,74,0
47328,note_on,2,0,3,,,,,,,,,3,,,71,127
47328,note_on,2,0,2,,,,,,,,,0,,,74,127
47422,note_on,94,0,2,,,,,,,,,0,,,74,0
47422,note_on,94,0,3,,,,,,,,,3,,,71,0
47424,note_on,2,0,3,,,,,,,,,3,,,71,127
47424,note_on,2,0,2,,,,,,,,,0,,,74,127
47424,note_on,0,0,1,,,,,,,,,11,,,85,127
47424,note_on,192,0,1,,,,,,,,,11,,,86,0
47456,note_on,32,0,1,,,,,,,,,11,,,85,0
47456,note_on,0,0,1,,,,,,,,,11,,,83,127
47488,note_on,0,0,1,,,,,,,,,11,,,81,127
47488,note_on,32,0,1,,,,,,,,,11,,,83,0
47518,note_on,94,0,3,,,,,,,,,3,,,71,0
47518,note_on,94,0,2,,,,,,,,,0,,,74,0
47520,note_on,2,0,3,,,,,,,,,3,,,71,127
47520,note_on,2,0,2,,,,,,,,,0,,,74,127
47520,note_on,0,0,1,,,,,,,,,11,,,80,127
47520,note_on,32,0,1,,,,,,,,,11,,,81,0
47552,note_on,0,0,1,,,,,,,,,11,,,78,127
47552,note_on,32,0,1,,,,,,,,,11,,,80,0
47584,note_on,0,0,1,,,,,,,,,11,,,77,127
47584,note_on,32,0,1,,,,,,,,,11,,,78,0
47614,note_on,94,0,3,,,,,,,,,3,,,71,0
47614,note_on,94,0,2,,,,,,,,,0,,,74,0
47616,note_on,32,0,1,,,,,,,,,11,,,77,0
47616,note_on,0,0,1,,,,,,,,,11,,,80,127
47616,note_on,2,0,3,,,,,,,,,3,,,69,127
47616,note_on,2,0,2,,,,,,,,,0,,,73,127
47640,note_on,24,0,1,,,,,,,,,11,,,80,0
47640,note_on,0,0,1,,,,,,,,,11,,,78,127
47664,note_on,24,0,1,,,,,,,,,11,,,78,0
47664,note_on,0,0,1,,,,,,,,,11,,,77,127
47710,note_on,94,0,2,,,,,,,,,0,,,73,0
47710,note_on,94,0,3,,,,,,,,,3,,,69,0
47712,note_on,2,0,2,,,,,,,,,0,,,73,127
47712,note_on,48,0,1,,,,,,,,,11,,,77,0
47712,note_on,0,0,1,,,,,,,,,11,,,78,127
47712,note_on,2,0,3,,,,,,,,,3,,,69,127
47806,note_on,94,0,2,,,,,,,,,0,,,73,0
47806,note_on,94,0,3,,,,,,,,,3,,,69,0
47808,note_on,96,0,1,,,,,,,,,11,,,78,0
47808,note_on,0,0,1,,,,,,,,,11,,,80,127
47808,note_on,2,0,2,,,,,,,,,0,,,73,127
47808,note_on,2,0,3,,,,,,,,,3,,,69,127
47832,note_on,24,0,1,,,,,,,,,11,,,80,0
47832,note_on,0,0,1,,,,,,,,,11,,,78,127
47856,note_on,0,0,1,,,,,,,,,11,,,77,127
47856,note_on,24,0,1,,,,,,,,,11,,,78,0
47902,note_on,94,0,2,,,,,,,,,0,,,73,0
47902,note_on,94,0,3,,,,,,,,,3,,,69,0
47904,note_on,2,0,2,,,,,,,,,0,,,73,127
47904,note_on,0,0,1,,,,,,,,,11,,,78,127
47904,note_on,2,0,3,,,,,,,,,3,,,69,127
47904,note_on,48,0,1,,,,,,,,,11,,,77,0
47998,note_on,94,0,2,,,,,,,,,0,,,73,0
47998,note_on,94,0,3,,,,,,,,,3,,,69,0
48000,note_on,2,0,2,,,,,,,,,0,,,73,127
48000,note_on,2,0,3,,,,,,,,,3,,,69,127
48000,note_on,0,0,1,,,,,,,,,11,,,85,127
48000,note_on,96,0,1,,,,,,,,,11,,,78,0
48094,note_on,94,0,3,,,,,,,,,3,,,69,0
48094,note_on,94,0,2,,,,,,,,,0,,,73,0
48096,note_on,2,0,3,,,,,,,,,3,,,69,127
48096,note_on,2,0,2,,,,,,,,,0,,,73,127
48190,note_on,94,0,3,,,,,,,,,3,,,69,0
48190,note_on,94,0,2,,,,,,,,,0,,,73,0
48192,note_on,2,0,2,,,,,,,,,0,,,73,127
48192,note_on,192,0,1,,,,,,,,,11,,,85,0
48192,note_on,0,0,1,,,,,,,,,11,,,83,127
48192,note_on,2,0,3,,,,,,,,,3,,,69,127
48224,note_on,32,0,1,,,,,,,,,11,,,83,0
48224,note_on,0,0,1,,,,,,,,,11,,,81,127
48256,note_on,0,0,1,,,,,,,,,11,,,80,127
48256,note_on,32,0,1,,,,,,,,,11,,,81,0
48286,note_on,94,0,3,,,,,,,,,3,,,69,0
48286,note_on,94,0,2,,,,,,,,,0,,,73,0
48288,note_on,32,0,1,,,,,,,,,11,,,80,0
48288,note_on,2,0,3,,,,,,,,,3,,,69,127
48288,note_on,0,0,1,,,,,,,,,11,,,78,127
48288,note_on,2,0,2,,,,,,,,,0,,,73,127
48320,note_on,0,0,1,,,,,,,,,11,,,76,127
48320,note_on,32,0,1,,,,,,,,,11,,,78,0
48352,note_on,0,0,1,,,,,,,,,11,,,75,127
48352,note_on,32,0,1,,,,,,,,,11,,,76,0
48382,note_on,94,0,3,,,,,,,,,3,,,69,0
48382,note_on,94,0,2,,,,,,,,,0,,,73,0
48384,note_on,2,0,3,,,,,,,,,3,,,68,127
48384,note_on,32,0,1,,,,,,,,,11,,,75,0
48384,note_on,0,0,1,,,,,,,,,11,,,78,127
48384,note_on,2,0,2,,,,,,,,,0,,,71,127
48408,note_on,24,0,1,,,,,,,,,11,,,78,0
48408,note_on,0,0,1,,,,,,,,,11,,,76,127
48432,note_on,0,0,1,,,,,,,,,11,,,75,127
48432,note_on,24,0,1,,,,,,,,,11,,,76,0
48478,note_on,94,0,2,,,,,,,,,0,,,71,0
48478,note_on,94,0,3,,,,,,,,,3,,,68,0
48480,note_on,2,0,2,,,,,,,,,0,,,71,127
48480,note_on,0,0,1,,,,,,,,,11,,,76,127
48480,note_on,48,0,1,,,,,,,,,11,,,75,0
48480,note_on,2,0,3,,,,,,,,,3,,,68,127
48574,note_on,94,0,3,,,,,,,,,3,,,68,0
48574,note_on,94,0,2,,,,,,,,,0,,,71,0
48576,note_on,96,0,1,,,,,,,,,11,,,76,0
48576,note_on,0,0,1,,,,,,,,,11,,,78,127
48576,note_on,2,0,3,,,,,,,,,3,,,68,127
48576,note_on,2,0,2,,,,,,,,,0,,,71,127
48600,note_on,0,0,1,,,,,,,,,11,,,76,127
48600,note_on,24,0,1,,,,,,,,,11,,,78,0
48624,note_on,0,0,1,,,,,,,,,11,,,75,127
48624,note_on,24,0,1,,,,,,,,,11,,,76,0
48670,note_on,94,0,2,,,,,,,,,0,,,71,0
48670,note_on,94,0,3,,,,,,,,,3,,,68,0
48672,note_on,2,0,2,,,,,,,,,0,,,71,127
48672,note_on,2,0,3,,,,,,,,,3,,,68,127
48672,note_on,0,0,1,,,,,,,,,11,,,76,127
48672,note_on,48,0,1,,,,,,,,,11,,,75,0
48766,note_on,94,0,2,,,,,,,,,0,,,71,0
48766,note_on,94,0,3,,,,,,,,,3,,,68,0
48768,note_on,2,0,3,,,,,,,,,3,,,68,127
48768,note_on,2,0,2,,,,,,,,,0,,,71,127
48768,note_on,96,0,1,,,,,,,,,11,,,76,0
48768,note_on,0,0,1,,,,,,,,,11,,,83,127
48862,note_on,94,0,3,,,,,,,,,3,,,68,0
48862,note_on,94,0,2,,,,,,,,,0,,,71,0
48864,note_on,2,0,3,,,,,,,,,3,,,68,127
48864,note_on,2,0,2,,,,,,,,,0,,,71,127
48958,note_on,94,0,3,,,,,,,,,3,,,68,0
48958,note_on,94,0,2,,,,,,,,,0,,,71,0
48960,note_on,0,0,1,,,,,,,,,11,,,81,127
48960,note_on,2,0,2,,,,,,,,,0,,,71,127
48960,note_on,192,0,1,,,,,,,,,11,,,83,0
48960,note_on,2,0,3,,,,,,,,,3,,,68,127
48992,note_on,0,0,1,,,,,,,,,11,,,80,127
48992,note_on,32,0,1,,,,,,,,,11,,,81,0
49024,note_on,0,0,1,,,,,,,,,11,,,78,127
49024,note_on,32,0,1,,,,,,,,,11,,,80,0
49054,note_on,94,0,2,,,,,,,,,0,,,71,0
49054,note_on,94,0,3,,,,,,,,,3,,,68,0
49056,note_on,2,0,3,,,,,,,,,3,,,68,127
49056,note_on,2,0,2,,,,,,,,,0,,,71,127
49056,note_on,0,0,1,,,,,,,,,11,,,76,127
49056,note_on,32,0,1,,,,,,,,,11,,,78,0
49088,note_on,32,0,1,,,,,,,,,11,,,76,0
49088,note_on,0,0,1,,,,,,,,,11,,,75,127
49120,note_on,0,0,1,,,,,,,,,11,,,73,127
49120,note_on,32,0,1,,,,,,,,,11,,,75,0
49150,note_on,94,0,3,,,,,,,,,3,,,68,0
49150,note_on,94,0,2,,,,,,,,,0,,,71,0
49152,note_on,2,0,3,,,,,,,,,3,,,66,127
49152,note_on,2,0,2,,,,,,,,,0,,,69,127
49152,note_on,32,0,1,,,,,,,,,11,,,73,0
49152,note_on,0,0,1,,,,,,,,,11,,,76,127
49176,note_on,0,0,1,,,,,,,,,11,,,75,127
49176,note_on,24,0,1,,,,,,,,,11,,,76,0
49200,note_on,24,0,1,,,,,,,,,11,,,75,0
49200,note_on,0,0,1,,,,,,,,,11,,,73,127
49246,note_on,94,0,2,,,,,,,,,0,,,69,0
49246,note_on,94,0,3,,,,,,,,,3,,,66,0
49248,note_on,48,0,1,,,,,,,,,11,,,73,0
49248,note_on,0,0,1,,,,,,,,,11,,,75,127
49248,note_on,2,0,2,,,,,,,,,0,,,69,127
49248,note_on,2,0,3,,,,,,,,,3,,,66,127
49342,note_on,94,0,2,,,,,,,,,0,,,69,0
49342,note_on,94,0,3,,,,,,,,,3,,,66,0
49344,note_on,2,0,2,,,,,,,,,0,,,69,127
49344,note_on,2,0,3,,,,,,,,,3,,,60,127
49344,note_on,0,0,1,,,,,,,,,11,,,76,127
49344,note_on,96,0,1,,,,,,,,,11,,,75,0
49368,note_on,24,0,1,,,,,,,,,11,,,76,0
49368,note_on,0,0,1,,,,,,,,,11,,,75,127
49392,note_on,24,0,1,,,,,,,,,11,,,75,0
49392,note_on,0,0,1,,,,,,,,,11,,,73,127
49438,note_on,94,0,3,,,,,,,,,3,,,60,0
49438,note_on,94,0,2,,,,,,,,,0,,,69,0
49440,note_on,48,0,1,,,,,,,,,11,,,73,0
49440,note_on,0,0,1,,,,,,,,,11,,,75,127
49440,note_on,2,0,2,,,,,,,,,0,,,69,127
49440,note_on,2,0,3,,,,,,,,,3,,,60,127
49534,note_on,94,0,3,,,,,,,,,3,,,60,0
49534,note_on,94,0,2,,,,,,,,,0,,,69,0
49536,note_on,2,0,3,,,,,,,,,3,,,61,127
49536,note_on,0,0,1,,,,,,,,,11,,,76,127
49536,note_on,96,0,1,,,,,,,,,11,,,75,0
49536,note_on,2,0,2,,,,,,,,,0,,,68,127
49568,note_on,32,0,1,,,,,,,,,11,,,76,0
49568,note_on,0,0,1,,,,,,,,,11,,,80,127
49600,note_on,32,0,1,,,,,,,,,11,,,80,0
49600,note_on,0,0,1,,,,,,,,,11,,,78,127
49630,note_on,94,0,3,,,,,,,,,3,,,61,0
49630,note_on,94,0,2,,,,,,,,,0,,,68,0
49632,note_on,2,0,3,,,,,,,,,3,,,61,127
49632,note_on,2,0,2,,,,,,,,,0,,,68,127
49632,note_on,0,0,1,,,,,,,,,11,,,76,127
49632,note_on,32,0,1,,,,,,,,,11,,,78,0
49664,note_on,0,0,1,,,,,,,,,11,,,75,127
49664,note_on,32,0,1,,,,,,,,,11,,,76,0
49696,note_on,0,0,1,,,,,,,,,11,,,73,127
49696,note_on,32,0,1,,,,,,,,,11,,,75,0
49726,note_on,94,0,2,,,,,,,,,0,,,68,0
49726,note_on,94,0,3,,,,,,,,,3,,,61,0
49728,note_on,2,0,2,,,,,,,,,0,,,69,127
49728,note_on,2,0,3,,,,,,,,,3,,,66,127
49728,note_on,0,0,1,,,,,,,,,11,,,81,127
49728,note_on,32,0,1,,,,,,,,,11,,,73,0
49760,note_on,0,0,1,,,,,,,,,11,,,80,127
49760,note_on,32,0,1,,,,,,,,,11,,,81,0
49792,note_on,32,0,1,,,,,,,,,11,,,80,0
49792,note_on,0,0,1,,,,,,,,,11,,,78,127
49822,note_on,94,0,2,,,,,,,,,0,,,69,0
49822,note_on,94,0,3,,,,,,,,,3,,,66,0
49824,note_on,0,0,1,,,,,,,,,11,,,76,127
49824,note_on,32,0,1,,,,,,,,,11,,,78,0
49824,note_on,2,0,3,,,,,,,,,3,,,66,127
49824,note_on,2,0,2,,,,,,,,,0,,,69,127
49856,note_on,0,0,1,,,,,,,,,11,,,75,127
49856,note_on,32,0,1,,,,,,,,,11,,,76,0
49888,note_on,0,0,1,,,,,,,,,11,,,73,127
49888,note_on,32,0,1,,,,,,,,,11,,,75,0
49918,note_on,94,0,3,,,,,,,,,3,,,66,0
49918,note_on,94,0,2,,,,,,,,,0,,,69,0
49920,note_on,32,0,1,,,,,,,,,11,,,73,0
49920,note_on,2,0,2,,,,,,,,,0,,,68,127
49920,note_on,0,0,1,,,,,,,,,11,,,73,127
49920,note_on,2,0,3,,,,,,,,,3,,,68,127
50014,note_on,94,0,2,,,,,,,,,0,,,68,0
50014,note_on,94,0,3,,,,,,,,,3,,,68,0
50016,note_on,2,0,2,,,,,,,,,0,,,68,127
50016,note_on,2,0,3,,,,,,,,,3,,,68,127
50080,note_on,160,0,1,,,,,,,,,11,,,73,0
50110,note_on,94,0,2,,,,,,,,,0,,,68,0
50110,note_on,94,0,3,,,,,,,,,3,,,68,0
50112,note_on,2,0,2,,,,,,,,,0,,,68,127
50112,note_on,32,0,1,,,,,,,,,11,,,72,127
50112,note_on,2,0,3,,,,,,,,,3,,,68,127
50206,note_on,94,0,2,,,,,,,,,0,,,68,0
50206,note_on,94,0,3,,,,,,,,,3,,,68,0
50208,note_on,2,0,3,,,,,,,,,3,,,68,127
50208,note_on,2,0,2,,,,,,,,,0,,,68,127
50272,note_on,160,0,1,,,,,,,,,11,,,72,0
50302,note_on,94,0,3,,,,,,,,,3,,,68,0
50302,note_on,94,0,2,,,,,,,,,0,,,68,0
50304,note_on,2,0,3,,,,,,,,,3,,,61,127
50304,note_on,2,0,2,,,,,,,,,0,,,64,127
50304,note_on,32,0,1,,,,,,,,,11,,,64,127
50352,note_on,0,0,1,,,,,,,,,11,,,73,127
50352,note_on,48,0,1,,,,,,,,,11,,,64,0
50376,note_on,24,0,1,,,,,,,,,11,,,73,0
50376,note_on,0,0,1,,,,,,,,,11,,,71,127
50400,note_on,24,0,1,,,,,,,,,11,,,71,0
50400,note_on,0,0,1,,,,,,,,,11,,,73,127
50446,note_on,142,0,3,,,,,,,,,3,,,61,0
50446,note_on,142,0,2,,,,,,,,,0,,,64,0
50448,note_on,48,0,1,,,,,,,,,11,,,73,0
50448,note_on,0,0,1,,,,,,,,,11,,,64,127
50448,note_on,2,0,3,,,,,,,,,3,,,61,127
50448,note_on,2,0,2,,,,,,,,,0,,,64,127
50494,note_on,46,0,3,,,,,,,,,3,,,61,0
50494,note_on,46,0,2,,,,,,,,,0,,,64,0
50496,note_on,2,0,2,,,,,,,,,0,,,66,127
50496,note_on,48,0,1,,,,,,,,,11,,,64,0
50496,note_on,0,0,1,,,,,,,,,11,,,66,127
50496,note_on,2,0,3,,,,,,,,,3,,,63,127
50544,note_on,48,0,1,,,,,,,,,11,,,66,0
50544,note_on,0,0,1,,,,,,,,,11,,,73,127
50568,note_on,24,0,1,,,,,,,,,11,,,73,0
50568,note_on,0,0,1,,,,,,,,,11,,,71,127
50592,note_on,0,0,1,,,,,,,,,11,,,73,127
50592,note_on,24,0,1,,,,,,,,,11,,,71,0
50638,note_on,142,0,2,,,,,,,,,0,,,66,0
50638,note_on,142,0,3,,,,,,,,,3,,,63,0
50640,note_on,2,0,2,,,,,,,,,0,,,66,127
50640,note_on,0,0,1,,,,,,,,,11,,,66,127
50640,note_on,2,0,3,,,,,,,,,3,,,63,127
50640,note_on,48,0,1,,,,,,,,,11,,,73,0
50686,note_on,46,0,3,,,,,,,,,3,,,63,0
50686,note_on,46,0,2,,,,,,,,,0,,,66,0
50688,note_on,2,0,2,,,,,,,,,0,,,68,127
50688,note_on,0,0,1,,,,,,,,,11,,,68,127
50688,note_on,2,0,3,,,,,,,,,3,,,64,127
50688,note_on,48,0,1,,,,,,,,,11,,,66,0
50736,note_on,48,0,1,,,,,,,,,11,,,68,0
50736,note_on,0,0,1,,,,,,,,,11,,,73,127
50760,note_on,24,0,1,,,,,,,,,11,,,73,0
50760,note_on,0,0,1,,,,,,,,,11,,,72,127
50784,note_on,24,0,1,,,,,,,,,11,,,72,0
50784,note_on,0,0,1,,,,,,,,,11,,,73,127
50830,note_on,142,0,3,,,,,,,,,3,,,64,0
50830,note_on,142,0,2,,,,,,,,,0,,,68,0
50832,note_on,2,0,2,,,,,,,,,0,,,68,127
50832,note_on,2,0,3,,,,,,,,,3,,,64,127
50832,note_on,0,0,1,,,,,,,,,11,,,68,127
50832,note_on,48,0,1,,,,,,,,,11,,,73,0
50878,note_on,46,0,3,,,,,,,,,3,,,64,0
50878,note_on,46,0,2,,,,,,,,,0,,,68,0
50880,note_on,2,0,2,,,,,,,,,0,,,69,127
50880,note_on,48,0,1,,,,,,,,,11,,,68,0
50880,note_on,0,0,1,,,,,,,,,11,,,69,127
50880,note_on,2,0,3,,,,,,,,,3,,,66,127
50928,note_on,0,0,1,,,,,,,,,11,,,73,127
50928,note_on,48,0,1,,,,,,,,,11,,,69,0
50952,note_on,0,0,1,,,,,,,,,11,,,72,127
50952,note_on,24,0,1,,,,,,,,,11,,,73,0
50976,note_on,0,0,1,,,,,,,,,11,,,73,127
50976,note_on,24,0,1,,,,,,,,,11,,,72,0
51022,note_on,142,0,2,,,,,,,,,0,,,69,0
51022,note_on,142,0,3,,,,,,,,,3,,,66,0
51024,note_on,0,0,1,,,,,,,,,11,,,69,127
51024,note_on,2,0,3,,,,,,,,,3,,,66,127
51024,note_on,2,0,2,,,,,,,,,0,,,69,127
51024,note_on,48,0,1,,,,,,,,,11,,,73,0
51070,note_on,46,0,2,,,,,,,,,0,,,69,0
51070,note_on,46,0,3,,,,,,,,,3,,,66,0
51072,note_on,0,0,1,,,,,,,,,11,,,68,127
51072,note_on,2,0,2,,,,,,,,,0,,,68,127
51072,note_on,2,0,3,,,,,,,,,3,,,64,127
51072,note_on,48,0,1,,,,,,,,,11,,,69,0
51120,note_on,48,0,1,,,,,,,,,11,,,68,0
51120,note_on,0,0,1,,,,,,,,,11,,,73,127
51144,note_on,24,0,1,,,,,,,,,11,,,73,0
51144,note_on,0,0,1,,,,,,,,,11,,,72,127
51168,note_on,24,0,1,,,,,,,,,11,,,72,0
51168,note_on,0,0,1,,,,,,,,,11,,,73,127
51214,note_on,142,0,3,,,,,,,,,3,,,64,0
51214,note_on,142,0,2,,,,,,,,,0,,,68,0
51216,note_on,48,0,1,,,,,,,,,11,,,73,0
51216,note_on,0,0,1,,,,,,,,,11,,,68,127
51216,note_on,2,0,2,,,,,,,,,0,,,68,127
51216,note_on,2,0,3,,,,,,,,,3,,,64,127
51262,note_on,46,0,2,,,,,,,,,0,,,68,0
51262,note_on,46,0,3,,,,,,,,,3,,,64,0
51264,note_on,48,0,1,,,,,,,,,11,,,68,0
51264,note_on,2,0,2,,,,,,,,,0,,,66,127
51264,note_on,0,0,1,,,,,,,,,11,,,66,127
51264,note_on,2,0,3,,,,,,,,,3,,,63,127
51312,note_on,48,0,1,,,,,,,,,11,,,66,0
51312,note_on,0,0,1,,,,,,,,,11,,,73,127
51336,note_on,0,0,1,,,,,,,,,11,,,72,127
51336,note_on,24,0,1,,,,,,,,,11,,,73,0
51360,note_on,24,0,1,,,,,,,,,11,,,72,0
51360,note_on,0,0,1,,,,,,,,,11,,,73,127
51406,note_on,142,0,2,,,,,,,,,0,,,66,0
51406,note_on,142,0,3,,,,,,,,,3,,,63,0
51408,note_on,2,0,2,,,,,,,,,0,,,66,127
51408,note_on,48,0,1,,,,,,,,,11,,,73,0
51408,note_on,0,0,1,,,,,,,,,11,,,66,127
51408,note_on,2,0,3,,,,,,,,,3,,,63,127
51454,note_on,46,0,2,,,,,,,,,0,,,66,0
51454,note_on,46,0,3,,,,,,,,,3,,,63,0
51456,note_on,2,0,3,,,,,,,,,3,,,61,127
51456,note_on,2,0,2,,,,,,,,,0,,,64,127
51456,note_on,0,0,1,,,,,,,,,11,,,64,127
51456,note_on,48,0,1,,,,,,,,,11,,,66,0
51504,note_on,0,0,1,,,,,,,,,11,,,80,127
51504,note_on,48,0,1,,,,,,,,,11,,,64,0
51552,note_on,48,0,1,,,,,,,,,11,,,80,0
51552,note_on,0,0,1,,,,,,,,,11,,,81,127
51600,note_on,48,0,1,,,,,,,,,11,,,81,0
51600,note_on,0,0,1,,,,,,,,,11,,,78,127
51616,note_on,160,0,3,,,,,,,,,3,,,61,0
51616,note_on,160,0,2,,,,,,,,,0,,,64,0
51648,note_on,48,0,1,,,,,,,,,11,,,78,0
51648,note_on,0,0,1,,,,,,,,,11,,,76,127
51696,note_on,0,0,1,,,,,,,,,11,,,75,127
51696,note_on,48,0,1,,,,,,,,,11,,,76,0
51744,note_on,0,0,1,,,,,,,,,11,,,73,127
51744,note_on,48,0,1,,,,,,,,,11,,,75,0
51792,note_on,48,0,1,,,,,,,,,11,,,73,0
51792,note_on,0,0,1,,,,,,,,,11,,,72,127
51840,note_on,48,0,1,,,,,,,,,11,,,72,0
51840,note_on,224,0,2,,,,,,,,,0,,,64,127
51840,note_on,0,0,1,,,,,,,,,11,,,73,127
51840,note_on,224,0,3,,,,,,,,,3,,,61,127
51888,note_on,48,0,1,,,,,,,,,11,,,73,0
51888,note_on,0,0,1,,,,,,,,,11,,,75,127
51936,note_on,48,0,1,,,,,,,,,11,,,75,0
51936,note_on,0,0,1,,,,,,,,,11,,,73,127
51984,note_on,48,0,1,,,,,,,,,11,,,73,0
51984,note_on,0,0,1,,,,,,,,,11,,,72,127
52000,note_on,160,0,2,,,,,,,,,0,,,64,0
52000,note_on,160,0,3,,,,,,,,,3,,,61,0
52032,note_on,48,0,1,,,,,,,,,11,,,72,0
52032,note_on,0,0,1,,,,,,,,,11,,,73,127
52080,note_on,0,0,1,,,,,,,,,11,,,75,127
52080,note_on,48,0,1,,,,,,,,,11,,,73,0
52128,note_on,0,0,1,,,,,,,,,11,,,73,127
52128,note_on,48,0,1,,,,,,,,,11,,,75,0
52176,note_on,0,0,1,,,,,,,,,11,,,72,127
52176,note_on,48,0,1,,,,,,,,,11,,,73,0
52224,note_on,0,0,1,,,,,,,,,11,,,73,127
52224,note_on,224,0,3,,,,,,,,,3,,,61,127
52224,note_on,224,0,2,,,,,,,,,0,,,64,127
52224,note_on,48,0,1,,,,,,,,,11,,,72,0
52272,note_on,0,0,1,,,,,,,,,11,,,75,127
52272,note_on,48,0,1,,,,,,,,,11,,,73,0
52296,note_on,0,0,1,,,,,,,,,11,,,76,127
52296,note_on,24,0,1,,,,,,,,,11,,,75,0
52320,note_on,0,0,1,,,,,,,,,11,,,76,127
52320,note_on,24,0,1,,,,,,,,,11,,,76,0
52368,note_on,0,0,1,,,,,,,,,11,,,78,127
52368,note_on,48,0,1,,,,,,,,,11,,,76,0
52384,note_on,160,0,2,,,,,,,,,0,,,64,0
52384,note_on,160,0,3,,,,,,,,,3,,,61,0
52392,note_on,0,0,1,,,,,,,,,11,,,80,127
52392,note_on,24,0,1,,,,,,,,,11,,,78,0
52416,note_on,24,0,1,,,,,,,,,11,,,80,0
52416,note_on,32,0,2,,,,,,,,,0,,,72,127
52416,note_on,32,0,3,,,,,,,,,3,,,68,127
52416,note_on,0,0,1,,,,,,,,,11,,,76,127
52440,note_on,24,0,1,,,,,,,,,11,,,76,0
52440,note_on,0,0,1,,,,,,,,,11,,,75,127
52464,note_on,0,0,1,,,,,,,,,11,,,76,127
52464,note_on,24,0,1,,,,,,,,,11,,,75,0
52488,note_on,24,0,1,,,,,,,,,11,,,76,0
52488,note_on,0,0,1,,,,,,,,,11,,,75,127
52576,note_on,160,0,2,,,,,,,,,0,,,72,0
52576,note_on,160,0,3,,,,,,,,,3,,,68,0
52608,note_on,120,0,1,,,,,,,,,11,,,75,0
52608,note_on,0,0,2,,,,,,,,,0,,,85,127
52608,control_change,32,0,2,,,,,,,,,0,10,127,,
52608,note_on,32,0,3,,,,,,,,,3,,,85,127
52608,set_tempo,7296,1,0,,,,,,461538,,,,,,,
52608,note_on,7328,0,6,,,,,,,,,8,,,37,92
52608,note_on,0,0,1,,,,,,,,,11,,,73,127
52608,note_on,7328,0,4,,,,,,,,,4,,,64,92
52608,note_on,5762,0,5,,,,,,,,,6,,,49,60
52702,note_on,94,0,3,,,,,,,,,3,,,85,0
52702,note_on,94,0,2,,,,,,,,,0,,,85,0
52702,note_on,94,0,1,,,,,,,,,11,,,73,0
52704,note_on,2,0,3,,,,,,,,,3,,,83,127
52704,note_on,2,0,2,,,,,,,,,0,,,83,127
52704,note_on,2,0,1,,,,,,,,,11,,,83,127
52750,note_on,46,0,3,,,,,,,,,3,,,83,0
52750,note_on,46,0,2,,,,,,,,,0,,,83,0
52750,note_on,46,0,1,,,,,,,,,11,,,83,0
52752,note_on,2,0,3,,,,,,,,,3,,,81,127
52752,note_on,2,0,1,,,,,,,,,11,,,81,127
52752,note_on,2,0,2,,,,,,,,,0,,,81,127
52768,note_on,160,0,6,,,,,,,,,8,,,37,0
52768,note_on,160,0,5,,,,,,,,,6,,,49,0
52768,note_on,160,0,4,,,,,,,,,4,,,64,0
52798,note_on,46,0,1,,,,,,,,,11,,,81,0
52798,note_on,46,0,3,,,,,,,,,3,,,81,0
52798,note_on,46,0,2,,,,,,,,,0,,,81,0
52800,note_on,2,0,1,,,,,,,,,11,,,80,127
52800,note_on,2,0,3,,,,,,,,,3,,,80,127
52800,note_on,2,0,2,,,,,,,,,0,,,80,127
52846,note_on,46,0,1,,,,,,,,,11,,,80,0
52846,note_on,46,0,3,,,,,,,,,3,,,80,0
52846,note_on,46,0,2,,,,,,,,,0,,,80,0
52848,note_on,2,0,1,,,,,,,,,11,,,78,127
52848,note_on,2,0,3,,,,,,,,,3,,,78,127
52848,note_on,2,0,2,,,,,,,,,0,,,78,127
52894,note_on,46,0,3,,,,,,,,,3,,,78,0
52894,note_on,46,0,2,,,,,,,,,0,,,78,0
52894,note_on,46,0,1,,,,,,,,,11,,,78,0
52896,note_on,2,0,3,,,,,,,,,3,,,76,127
52896,note_on,2,0,1,,,,,,,,,11,,,76,127
52896,note_on,2,0,2,,,,,,,,,0,,,76,127
52942,note_on,46,0,3,,,,,,,,,3,,,76,0
52942,note_on,46,0,1,,,,,,,,,11,,,76,0
52942,note_on,46,0,2,,,,,,,,,0,,,76,0
52944,note_on,2,0,3,,,,,,,,,3,,,75,127
52944,note_on,2,0,1,,,,,,,,,11,,,75,127
52944,note_on,2,0,2,,,,,,,,,0,,,75,127
52990,note_on,46,0,3,,,,,,,,,3,,,75,0
52990,note_on,46,0,2,,,,,,,,,0,,,75,0
52990,note_on,46,0,1,,,,,,,,,11,,,75,0
52992,note_on,2,0,1,,,,,,,,,11,,,73,127
52992,note_on,2,0,3,,,,,,,,,3,,,73,127
52992,note_on,224,0,4,,,,,,,,,4,,,73,92
52992,note_on,224,0,6,,,,,,,,,8,,,49,92
52992,note_on,2,0,2,,,,,,,,,0,,,73,127
52992,note_on,224,0,5,,,,,,,,,6,,,61,60
53086,note_on,94,0,6,,,,,,,,,8,,,49,0
53086,note_on,94,0,4,,,,,,,,,4,,,73,0
53086,note_on,94,0,1,,,,,,,,,11,,,73,0
53086,note_on,94,0,2,,,,,,,,,0,,,73,0
53086,note_on,94,0,3,,,,,,,,,3,,,73,0
53086,note_on,94,0,5,,,,,,,,,6,,,61,0
53088,note_on,2,0,4,,,,,,,,,4,,,68,92
53088,note_on,2,0,1,,,,,,,,,11,,,68,127
53088,note_on,2,0,3,,,,,,,,,3,,,68,127
53088,note_on,2,0,5,,,,,,,,,6,,,56,60
53088,note_on,2,0,2,,,,,,,,,0,,,68,127
53088,note_on,2,0,6,,,,,,,,,8,,,44,92
53182,note_on,94,0,3,,,,,,,,,3,,,68,0
53182,note_on,94,0,4,,,,,,,,,4,,,68,0
53182,note_on,94,0,6,,,,,,,,,8,,,44,0
53182,note_on,94,0,5,,,,,,,,,6,,,56,0
53182,note_on,94,0,1,,,,,,,,,11,,,68,0
53182,note_on,94,0,2,,,,,,,,,0,,,68,0
53184,note_on,2,0,5,,,,,,,,,6,,,49,60
53184,note_on,2,0,3,,,,,,,,,3,,,61,127
53184,note_on,2,0,6,,,,,,,,,8,,,37,92
53184,note_on,2,0,4,,,,,,,,,4,,,61,92
53184,note_on,2,0,1,,,,,,,,,11,,,61,127
53184,note_on,2,0,2,,,,,,,,,0,,,61,127
53344,note_on,160,0,1,,,,,,,,,11,,,61,0
53344,note_on,160,0,5,,,,,,,,,6,,,49,0
53344,note_on,160,0,2,,,,,,,,,0,,,61,0
53344,note_on,160,0,4,,,,,,,,,4,,,61,0
53344,note_on,160,0,3,,,,,,,,,3,,,61,0
53344,note_on,160,0,6,,,,,,,,,8,,,37,0
53376,note_on,32,0,5,,,,,,,,,6,,,49,60
53376,note_on,32,0,3,,,,,,,,,3,,,85,127
53376,note_on,32,0,4,,,,,,,,,4,,,64,92
53376,note_on,32,0,1,,,,,,,,,11,,,85,127
53376,note_on,32,0,2,,,,,,,,,0,,,85,127
53376,note_on,32,0,6,,,,,,,,,8,,,37,92
53470,note_on,94,0,3,,,,,,,,,3,,,85,0
53470,note_on,94,0,2,,,,,,,,,0,,,85,0
53470,note_on,94,0,1,,,,,,,,,11,,,85,0
53472,note_on,2,0,1,,,,,,,,,11,,,83,127
53472,note_on,2,0,3,,,,,,,,,3,,,83,127
53472,note_on,2,0,2,,,,,,,,,0,,,83,127
53518,note_on,46,0,1,,,,,,,,,11,,,83,0
53518,note_on,46,0,2,,,,,,,,,0,,,83,0
53518,note_on,46,0,3,,,,,,,,,3,,,83,0
53520,note_on,2,0,1,,,,,,,,,11,,,81,127
53520,note_on,2,0,3,,,,,,,,,3,,,81,127
53520,note_on,2,0,2,,,,,,,,,0,,,81,127
53536,note_on,160,0,6,,,,,,,,,8,,,37,0
53536,note_on,160,0,4,,,,,,,,,4,,,64,0
53536,note_on,160,0,5,,,,,,,,,6,,,49,0
53566,note_on,46,0,2,,,,,,,,,0,,,81,0
53566,note_on,46,0,1,,,,,,,,,11,,,81,0
53566,note_on,46,0,3,,,,,,,,,3,,,81,0
53568,note_on,2,0,3,,,,,,,,,3,,,80,127
53568,note_on,2,0,1,,,,,,,,,11,,,80,127
53568,note_on,2,0,2,,,,,,,,,0,,,80,127
53614,note_on,46,0,1,,,,,,,,,11,,,80,0
53614,note_on,46,0,3,,,,,,,,,3,,,80,0
53614,note_on,46,0,2,,,,,,,,,0,,,80,0
53616,note_on,2,0,2,,,,,,,,,0,,,78,127
53616,note_on,2,0,1,,,,,,,,,11,,,78,127
53616,note_on,2,0,3,,,,,,,,,3,,,78,127
53662,note_on,46,0,3,,,,,,,,,3,,,78,0
53662,note_on,46,0,1,,,,,,,,,11,,,78,0
53662,note_on,46,0,2,,,,,,,,,0,,,78,0
53664,note_on,2,0,3,,,,,,,,,3,,,76,127
53664,note_on,2,0,1,,,,,,,,,11,,,76,127
53664,note_on,2,0,2,,,,,,,,,0,,,76,127
53710,note_on,46,0,3,,,,,,,,,3,,,76,0
53710,note_on,46,0,1,,,,,,,,,11,,,76,0
53710,note_on,46,0,2,,,,,,,,,0,,,76,0
53712,note_on,2,0,1,,,,,,,,,11,,,75,127
53712,note_on,2,0,3,,,,,,,,,3,,,75,127
53712,note_on,2,0,2,,,,,,,,,0,,,75,127
53758,note_on,46,0,3,,,,,,,,,3,,,75,0
53758,note_on,46,0,2,,,,,,,,,0,,,75,0
53758,note_on,46,0,1,,,,,,,,,11,,,75,0
53760,note_on,2,0,1,,,,,,,,,11,,,73,127
53760,note_on,224,0,6,,,,,,,,,8,,,49,92
53760,note_on,2,0,2,,,,,,,,,0,,,73,127
53760,note_on,224,0,5,,,,,,,,,6,,,61,60
53760,note_on,2,0,3,,,,,,,,,3,,,73,127
53760,note_on,224,0,4,,,,,,,,,4,,,73,92
53854,note_on,94,0,3,,,,,,,,,3,,,73,0
53854,note_on,94,0,5,,,,,,,,,6,,,61,0
53854,note_on,94,0,2,,,,,,,,,0,,,73,0
53854,note_on,94,0,1,,,,,,,,,11,,,73,0
53854,note_on,94,0,6,,,,,,,,,8,,,49,0
53854,note_on,94,0,4,,,,,,,,,4,,,73,0
53856,note_on,2,0,2,,,,,,,,,0,,,68,127
53856,note_on,2,0,1,,,,,,,,,11,,,68,127
53856,note_on,2,0,4,,,,,,,,,4,,,68,92
53856,note_on,2,0,6,,,,,,,,,8,,,44,92
53856,note_on,2,0,3,,,,,,,,,3,,,68,127
53856,note_on,2,0,5,,,,,,,,,6,,,56,60
53950,note_on,94,0,6,,,,,,,,,8,,,44,0
53950,note_on,94,0,4,,,,,,,,,4,,,68,0
53950,note_on,94,0,2,,,,,,,,,0,,,68,0
53950,note_on,94,0,5,,,,,,,,,6,,,56,0
53950,note_on,94,0,1,,,,,,,,,11,,,68,0
53950,note_on,94,0,3,,,,,,,,,3,,,68,0
53952,note_on,2,0,4,,,,,,,,,4,,,61,92
53952,note_on,2,0,6,,,,,,,,,8,,,37,92
53952,note_on,2,0,5,,,,,,,,,6,,,49,60
53952,note_on,2,0,1,,,,,,,,,11,,,61,127
53952,note_on,2,0,2,,,,,,,,,0,,,61,127
53952,note_on,2,0,3,,,,,,,,,3,,,61,127
54112,note_on,160,0,6,,,,,,,,,8,,,37,0
54112,note_on,160,0,5,,,,,,,,,6,,,49,0
54112,note_on,160,0,1,,,,,,,,,11,,,61,0
54112,note_on,160,0,3,,,,,,,,,3,,,61,0
54112,note_on,160,0,2,,,,,,,,,0,,,61,0
54112,note_on,160,0,4,,,,,,,,,4,,,61,0
54144,note_on,32,0,4,,,,,,,,,4,,,64,92
54144,note_on,32,0,6,,,,,,,,,8,,,49,92
54144,note_on,32,0,5,,,,,,,,,6,,,61,60
54144,note_on,32,0,2,,,,,,,,,0,,,80,127
54144,note_on,32,0,3,,,,,,,,,3,,,80,127
54144,note_on,32,0,1,,,,,,,,,11,,,80,127
54190,note_on,46,0,3,,,,,,,,,3,,,80,0
54190,note_on,46,0,2,,,,,,,,,0,,,80,0
54190,note_on,46,0,1,,,,,,,,,11,,,80,0
54192,note_on,2,0,2,,,,,,,,,0,,,76,127
54192,note_on,2,0,1,,,,,,,,,11,,,76,127
54192,note_on,2,0,3,,,,,,,,,3,,,76,127
54238,note_on,94,0,6,,,,,,,,,8,,,49,0
54238,note_on,94,0,5,,,,,,,,,6,,,61,0
54238,note_on,46,0,2,,,,,,,,,0,,,76,0
54238,note_on,94,0,4,,,,,,,,,4,,,64,0
54238,note_on,46,0,3,,,,,,,,,3,,,76,0
54238,note_on,46,0,1,,,,,,,,,11,,,76,0
54240,note_on,2,0,4,,,,,,,,,4,,,64,92
54240,note_on,2,0,1,,,,,,,,,11,,,73,127
54240,note_on,2,0,3,,,,,,,,,3,,,73,127
54240,note_on,2,0,2,,,,,,,,,0,,,73,127
54240,note_on,2,0,6,,,,,,,,,8,,,49,92
54240,note_on,2,0,5,,,,,,,,,6,,,61,60
54286,note_on,46,0,2,,,,,,,,,0,,,73,0
54286,note_on,46,0,3,,,,,,,,,3,,,73,0
54286,note_on,46,0,1,,,,,,,,,11,,,73,0
54288,note_on,2,0,3,,,,,,,,,3,,,80,127
54288,note_on,2,0,1,,,,,,,,,11,,,80,127
54288,note_on,2,0,2,,,,,,,,,0,,,80,127
54334,note_on,94,0,5,,,,,,,,,6,,,61,0
54334,note_on,94,0,4,,,,,,,,,4,,,64,0
54334,note_on,46,0,1,,,,,,,,,11,,,80,0
54334,note_on,46,0,2,,,,,,,,,0,,,80,0
54334,note_on,46,0,3,,,,,,,,,3,,,80,0
54334,note_on,94,0,6,,,,,,,,,8,,,49,0
54336,note_on,2,0,2,,,,,,,,,0,,,81,127
54336,note_on,2,0,4,,,,,,,,,4,,,73,92
54336,note_on,2,0,1,,,,,,,,,11,,,81,127
54336,note_on,2,0,3,,,,,,,,,3,,,81,127
54336,note_on,2,0,5,,,,,,,,,6,,,54,60
54336,note_on,2,0,6,,,,,,,,,8,,,42,92
54382,note_on,46,0,2,,,,,,,,,0,,,81,0
54382,note_on,46,0,3,,,,,,,,,3,,,81,0
54382,note_on,46,0,1,,,,,,,,,11,,,81,0
54384,note_on,2,0,2,,,,,,,,,0,,,78,127
54384,note_on,2,0,3,,,,,,,,,3,,,78,127
54384,note_on,2,0,1,,,,,,,,,11,,,78,127
54430,note_on,46,0,2,,,,,,,,,0,,,78,0
54430,note_on,46,0,1,,,,,,,,,11,,,78,0
54430,note_on,94,0,6,,,,,,,,,8,,,42,0
54430,note_on,94,0,5,,,,,,,,,6,,,54,0
54430,note_on,94,0,4,,,,,,,,,4,,,73,0
54430,note_on,46,0,3,,,,,,,,,3,,,78,0
54432,note_on,2,0,4,,,,,,,,,4,,,73,92
54432,note_on,2,0,1,,,,,,,,,11,,,73,127
54432,note_on,2,0,3,,,,,,,,,3,,,73,127
54432,note_on,2,0,6,,,,,,,,,8,,,42,92
54432,note_on,2,0,2,,,,,,,,,0,,,73,127
54432,note_on,2,0,5,,,,,,,,,6,,,54,60
54478,note_on,46,0,3,,,,,,,,,3,,,73,0
54478,note_on,46,0,1,,,,,,,,,11,,,73,0
54478,note_on,46,0,2,,,,,,,,,0,,,73,0
54480,note_on,2,0,1,,,,,,,,,11,,,81,127
54480,note_on,2,0,2,,,,,,,,,0,,,81,127
54480,note_on,2,0,3,,,,,,,,,3,,,81,127
54526,note_on,46,0,3,,,,,,,,,3,,,81,0
54526,note_on,46,0,2,,,,,,,,,0,,,81,0
54526,note_on,94,0,6,,,,,,,,,8,,,42,0
54526,note_on,94,0,4,,,,,,,,,4,,,73,0
54526,note_on,94,0,5,,,,,,,,,6,,,54,0
54526,note_on,46,0,1,,,,,,,,,11,,,81,0
54528,note_on,2,0,4,,,,,,,,,4,,,64,92
54528,note_on,2,0,3,,,,,,,,,3,,,80,127
54528,note_on,2,0,2,,,,,,,,,0,,,80,127
54528,note_on,2,0,6,,,,,,,,,8,,,49,92
54528,note_on,2,0,5,,,,,,,,,6,,,61,60
54528,note_on,2,0,1,,,,,,,,,11,,,80,127
54574,note_on,46,0,3,,,,,,,,,3,,,80,0
54574,note_on,46,0,2,,,,,,,,,0,,,80,0
54574,note_on,46,0,1,,,,,,,,,11,,,80,0
54576,note_on,2,0,2,,,,,,,,,0,,,76,127
54576,note_on,2,0,1,,,,,,,,,11,,,76,127
54576,note_on,2,0,3,,,,,,,,,3,,,76,127
54622,note_on,94,0,4,,,,,,,,,4,,,64,0
54622,note_on,46,0,1,,,,,,,,,11,,,76,0
54622,note_on,94,0,6,,,,,,,,,8,,,49,0
54622,note_on,94,0,5,,,,,,,,,6,,,61,0
54622,note_on,46,0,3,,,,,,,,,3,,,76,0
54622,note_on,46,0,2,,,,,,,,,0,,,76,0
54624,note_on,2,0,6,,,,,,,,,8,,,49,92
54624,note_on,2,0,3,,,,,,,,,3,,,73,127
54624,note_on,2,0,2,,,,,,,,,0,,,73,127
54624,note_on,2,0,4,,,,,,,,,4,,,64,92
54624,note_on,2,0,1,,,,,,,,,11,,,73,127
54624,note_on,2,0,5,,,,,,,,,6,,,61,60
54670,note_on,46,0,2,,,,,,,,,0,,,73,0
54670,note_on,46,0,1,,,,,,,,,11,,,73,0
54670,note_on,46,0,3,,,,,,,,,3,,,73,0
54672,note_on,2,0,2,,,,,,,,,0,,,80,127
54672,note_on,2,0,1,,,,,,,,,11,,,80,127
54672,note_on,2,0,3,,,,,,,,,3,,,80,127
54718,note_on,46,0,3,,,,,,,,,3,,,80,0
54718,note_on,46,0,2,,,,,,,,,0,,,80,0
54718,note_on,46,0,1,,,,,,,,,11,,,80,0
54718,note_on,94,0,6,,,,,,,,,8,,,49,0
54718,note_on,94,0,5,,,,,,,,,6,,,61,0
54718,note_on,94,0,4,,,,,,,,,4,,,64,0
54720,note_on,2,0,3,,,,,,,,,3,,,81,127
54720,note_on,2,0,2,,,,,,,,,0,,,81,127
54720,note_on,2,0,5,,,,,,,,,6,,,54,60
54720,note_on,2,0,1,,,,,,,,,11,,,81,127
54720,note_on,2,0,6,,,,,,,,,8,,,42,92
54720,note_on,2,0,4,,,,,,,,,4,,,73,92
54766,note_on,46,0,1,,,,,,,,,11,,,81,0
54766,note_on,46,0,2,,,,,,,,,0,,,81,0
54766,note_on,46,0,3,,,,,,,,,3,,,81,0
54768,note_on,2,0,2,,,,,,,,,0,,,78,127
54768,note_on,2,0,3,,,,,,,,,3,,,78,127
54768,note_on,2,0,1,,,,,,,,,11,,,78,127
54814,note_on,94,0,6,,,,,,,,,8,,,42,0
54814,note_on,94,0,5,,,,,,,,,6,,,54,0
54814,note_on,94,0,4,,,,,,,,,4,,,73,0
54814,note_on,46,0,1,,,,,,,,,11,,,78,0
54814,note_on,46,0,2,,,,,,,,,0,,,78,0
54814,note_on,46,0,3,,,,,,,,,3,,,78,0
54816,note_on,2,0,6,,,,,,,,,8,,,42,92
54816,note_on,2,0,5,,,,,,,,,6,,,54,60
54816,note_on,2,0,4,,,,,,,,,4,,,73,92
54816,note_on,2,0,1,,,,,,,,,11,,,73,127
54816,note_on,2,0,2,,,,,,,,,0,,,73,127
54816,note_on,2,0,3,,,,,,,,,3,,,73,127
54862,note_on,46,0,1,,,,,,,,,11,,,73,0
54862,note_on,46,0,3,,,,,,,,,3,,,73,0
54862,note_on,46,0,2,,,,,,,,,0,,,73,0
54864,note_on,2,0,2,,,,,,,,,0,,,81,127
54864,note_on,2,0,3,,,,,,,,,3,,,81,127
54864,note_on,2,0,1,,,,,,,,,11,,,81,127
54910,note_on,94,0,5,,,,,,,,,6,,,54,0
54910,note_on,94,0,4,,,,,,,,,4,,,73,0
54910,note_on,94,0,6,,,,,,,,,8,,,42,0
54910,note_on,46,0,2,,,,,,,,,0,,,81,0
54910,note_on,46,0,1,,,,,,,,,11,,,81,0
54910,note_on,46,0,3,,,,,,,,,3,,,81,0
54912,note_on,2,0,1,,,,,,,,,11,,,80,127
54912,note_on,2,0,6,,,,,,,,,8,,,49,92
54912,note_on,2,0,3,,,,,,,,,3,,,80,127
54912,note_on,2,0,4,,,,,,,,,4,,,64,92
54912,note_on,2,0,5,,,,,,,,,6,,,61,60
54912,note_on,2,0,2,,,,,,,,,0,,,80,127
54958,note_on,46,0,3,,,,,,,,,3,,,80,0
54958,note_on,46,0,1,,,,,,,,,11,,,80,0
54958,note_on,46,0,2,,,,,,,,,0,,,80,0
54960,note_on,2,0,2,,,,,,,,,0,,,76,127
54960,note_on,2,0,3,,,,,,,,,3,,,76,127
54960,note_on,2,0,1,,,,,,,,,11,,,76,127
55006,note_on,94,0,5,,,,,,,,,6,,,61,0
55006,note_on,94,0,6,,,,,,,,,8,,,49,0
55006,note_on,46,0,2,,,,,,,,,0,,,76,0
55006,note_on,94,0,4,,,,,,,,,4,,,64,0
55006,note_on,46,0,3,,,,,,,,,3,,,76,0
55006,note_on,46,0,1,,,,,,,,,11,,,76,0
55008,note_on,2,0,6,,,,,,,,,8,,,49,92
55008,note_on,2,0,5,,,,,,,,,6,,,61,60
55008,note_on,2,0,3,,,,,,,,,3,,,73,127
55008,note_on,2,0,4,,,,,,,,,4,,,64,92
55008,note_on,2,0,1,,,,,,,,,11,,,73,127
55008,note_on,2,0,2,,,,,,,,,0,,,73,127
55054,note_on,46,0,1,,,,,,,,,11,,,73,0
55054,note_on,46,0,3,,,,,,,,,3,,,73,0
55054,note_on,46,0,2,,,,,,,,,0,,,73,0
55056,note_on,2,0,2,,,,,,,,,0,,,80,127
55056,note_on,2,0,1,,,,,,,,,11,,,80,127
55056,note_on,2,0,3,,,,,,,,,3,,,80,127
55102,note_on,46,0,1,,,,,,,,,11,,,80,0
55102,note_on,94,0,5,,,,,,,,,6,,,61,0
55102,note_on,46,0,2,,,,,,,,,0,,,80,0
55102,note_on,94,0,6,,,,,,,,,8,,,49,0
55102,note_on,46,0,3,,,,,,,,,3,,,80,0
55102,note_on,94,0,4,,,,,,,,,4,,,64,0
55104,note_on,2,0,2,,,,,,,,,0,,,81,127
55104,note_on,2,0,3,,,,,,,,,3,,,81,127
55104,note_on,2,0,4,,,,,,,,,4,,,73,92
55104,note_on,2,0,6,,,,,,,,,8,,,42,92
55104,note_on,2,0,1,,,,,,,,,11,,,81,127
55104,note_on,2,0,5,,,,,,,,,6,,,54,60
55150,note_on,46,0,3,,,,,,,,,3,,,81,0
55150,note_on,46,0,1,,,,,,,,,11,,,81,0
55150,note_on,46,0,2,,,,,,,,,0,,,81,0
55152,note_on,2,0,3,,,,,,,,,3,,,78,127
55152,note_on,2,0,1,,,,,,,,,11,,,78,127
55152,note_on,2,0,2,,,,,,,,,0,,,78,127
55198,note_on,46,0,3,,,,,,,,,3,,,78,0
55198,note_on,94,0,6,,,,,,,,,8,,,42,0
55198,note_on,46,0,2,,,,,,,,,0,,,78,0
55198,note_on,94,0,4,,,,,,,,,4,,,73,0
55198,note_on,46,0,1,,,,,,,,,11,,,78,0
55198,note_on,94,0,5,,,,,,,,,6,,,54,0
55200,note_on,2,0,2,,,,,,,,,0,,,73,127
55200,note_on,2,0,1,,,,,,,,,11,,,73,127
55200,note_on,2,0,3,,,,,,,,,3,,,73,127
55200,note_on,2,0,4,,,,,,,,,4,,,73,92
55200,note_on,2,0,5,,,,,,,,,6,,,54,60
55200,note_on,2,0,6,,,,,,,,,8,,,42,92
55246,note_on,46,0,1,,,,,,,,,11,,,73,0
55246,note_on,46,0,3,,,,,,,,,3,,,73,0
55246,note_on,46,0,2,,,,,,,,,0,,,73,0
55248,note_on,2,0,2,,,,,,,,,0,,,81,127
55248,note_on,2,0,1,,,,,,,,,11,,,81,127
55248,note_on,2,0,3,,,,,,,,,3,,,81,127
55294,note_on,94,0,6,,,,,,,,,8,,,42,0
55294,note_on,94,0,5,,,,,,,,,6,,,54,0
55294,note_on,94,0,4,,,,,,,,,4,,,73,0
55294,note_on,46,0,1,,,,,,,,,11,,,81,0
55294,note_on,46,0,2,,,,,,,,,0,,,81,0
55294,note_on,46,0,3,,,,,,,,,3,,,81,0
55296,note_on,2,0,4,,,,,,,,,4,,,64,92
55296,note_on,2,0,3,,,,,,,,,3,,,80,127
55296,note_on,2,0,1,,,,,,,,,11,,,80,127
55296,note_on,2,0,5,,,,,,,,,6,,,61,60
55296,note_on,2,0,6,,,,,,,,,8,,,49,92
55296,note_on,2,0,2,,,,,,,,,0,,,80,127
55390,note_on,94,0,2,,,,,,,,,0,,,80,0
55390,note_on,94,0,6,,,,,,,,,8,,,49,0
55390,note_on,94,0,5,,,,,,,,,6,,,61,0
55390,note_on,94,0,4,,,,,,,,,4,,,64,0
55390,note_on,94,0,3,,,,,,,,,3,,,80,0
55390,note_on,94,0,1,,,,,,,,,11,,,80,0
55392,note_on,2,0,3,,,,,,,,,3,,,73,127
55392,note_on,2,0,6,,,,,,,,,8,,,37,92
55392,note_on,2,0,2,,,,,,,,,0,,,73,127
55392,note_on,2,0,5,,,,,,,,,6,,,49,60
55392,note_on,2,0,4,,,,,,,,,4,,,64,92
55392,note_on,2,0,1,,,,,,,,,11,,,73,127
55486,note_on,94,0,6,,,,,,,,,8,,,37,0
55486,note_on,94,0,4,,,,,,,,,4,,,64,0
55486,note_on,94,0,3,,,,,,,,,3,,,73,0
55486,note_on,94,0,2,,,,,,,,,0,,,73,0
55486,note_on,94,0,1,,,,,,,,,11,,,73,0
55486,note_on,94,0,5,,,,,,,,,6,,,49,0
55488,note_on,2,0,4,,,,,,,,,4,,,68,92
55488,note_on,2,0,5,,,,,,,,,6,,,53,60
55488,note_on,2,0,6,,,,,,,,,8,,,41,92
55582,note_on,94,0,4,,,,,,,,,4,,,68,0
55582,note_on,94,0,6,,,,,,,,,8,,,41,0
55582,note_on,94,0,5,,,,,,,,,6,,,53,0
55584,note_on,2,0,6,,,,,,,,,8,,,37,92
55584,note_on,2,0,5,,,,,,,,,6,,,49,60
55584,note_on,2,0,4,,,,,,,,,4,,,65,92
55678,note_on,94,0,4,,,,,,,,,4,,,65,0
55678,note_on,94,0,5,,,,,,,,,6,,,49,0
55678,note_on,94,0,6,,,,,,,,,8,,,37,0
55680,note_on,2,0,6,,,,,,,,,8,,,42,92
55680,note_on,2,0,4,,,,,,,,,4,,,57,92
55680,note_on,2,0,5,,,,,,,,,6,,,54,60
55680,note_on,194,0,1,,,,,,,,,11,,,73,127
55680,note_on,194,0,3,,,,,,,,,3,,,73,127
55680,note_on,194,0,2,,,,,,,,,0,,,73,127
55726,note_on,46,0,1,,,,,,,,,11,,,73,0
55726,note_on,46,0,2,,,,,,,,,0,,,73,0
55726,note_on,46,0,3,,,,,,,,,3,,,73,0
55728,note_on,2,0,2,,,,,,,,,0,,,69,127
55728,note_on,2,0,1,,,,,,,,,11,,,69,127
55728,note_on,2,0,3,,,,,,,,,3,,,69,127
55774,note_on,94,0,5,,,,,,,,,6,,,54,0
55774,note_on,46,0,1,,,,,,,,,11,,,69,0
55774,note_on,94,0,6,,,,,,,,,8,,,42,0
55774,note_on,94,0,4,,,,,,,,,4,,,57,0
55774,note_on,46,0,3,,,,,,,,,3,,,69,0
55774,note_on,46,0,2,,,,,,,,,0,,,69,0
55776,note_on,2,0,1,,,,,,,,,11,,,66,127
55776,note_on,2,0,5,,,,,,,,,6,,,54,60
55776,note_on,2,0,6,,,,,,,,,8,,,42,92
55776,note_on,2,0,4,,,,,,,,,4,,,57,92
55776,note_on,2,0,3,,,,,,,,,3,,,66,127
55776,note_on,2,0,2,,,,,,,,,0,,,66,127
55822,note_on,46,0,3,,,,,,,,,3,,,66,0
55822,note_on,46,0,2,,,,,,,,,0,,,66,0
55822,note_on,46,0,1,,,,,,,,,11,,,66,0
55824,note_on,2,0,3,,,,,,,,,3,,,73,127
55824,note_on,2,0,1,,,,,,,,,11,,,73,127
55824,note_on,2,0,2,,,,,,,,,0,,,73,127
55870,note_on,46,0,2,,,,,,,,,0,,,73,0
55870,note_on,94,0,4,,,,,,,,,4,,,57,0
55870,note_on,94,0,5,,,,,,,,,6,,,54,0
55870,note_on,46,0,1,,,,,,,,,11,,,73,0
55870,note_on,46,0,3,,,,,,,,,3,,,73,0
55870,note_on,94,0,6,,,,,,,,,8,,,42,0
55872,note_on,2,0,6,,,,,,,,,8,,,35,92
55872,note_on,2,0,3,,,,,,,,,3,,,74,127
55872,note_on,2,0,4,,,,,,,,,4,,,66,92
55872,note_on,2,0,5,,,,,,,,,6,,,47,60
55872,note_on,2,0,1,,,,,,,,,11,,,74,127
55872,note_on,2,0,2,,,,,,,,,0,,,74,127
55918,note_on,46,0,3,,,,,,,,,3,,,74,0
55918,note_on,46,0,1,,,,,,,,,11,,,74,0
55918,note_on,46,0,2,,,,,,,,,0,,,74,0
55920,note_on,2,0,1,,,,,,,,,11,,,71,127
55920,note_on,2,0,3,,,,,,,,,3,,,71,127
55920,note_on,2,0,2,,,,,,,,,0,,,71,127
55966,note_on,46,0,1,,,,,,,,,11,,,71,0
55966,note_on,46,0,3,,,,,,,,,3,,,71,0
55966,note_on,94,0,5,,,,,,,,,6,,,47,0
55966,note_on,94,0,6,,,,,,,,,8,,,35,0
55966,note_on,94,0,4,,,,,,,,,4,,,66,0
55966,note_on,46,0,2,,,,,,,,,0,,,71,0
55968,note_on,2,0,2,,,,,,,,,0,,,66,127
55968,note_on,2,0,6,,,,,,,,,8,,,35,92
55968,note_on,2,0,5,,,,,,,,,6,,,47,60
55968,note_on,2,0,1,,,,,,,,,11,,,66,127
55968,note_on,2,0,3,,,,,,,,,3,,,66,127
55968,note_on,2,0,4,,,,,,,,,4,,,66,92
56014,note_on,46,0,1,,,,,,,,,11,,,66,0
56014,note_on,46,0,3,,,,,,,,,3,,,66,0
56014,note_on,46,0,2,,,,,,,,,0,,,66,0
56016,note_on,2,0,1,,,,,,,,,11,,,74,127
56016,note_on,2,0,2,,,,,,,,,0,,,74,127
56016,note_on,2,0,3,,,,,,,,,3,,,74,127
56062,note_on,46,0,1,,,,,,,,,11,,,74,0
56062,note_on,46,0,2,,,,,,,,,0,,,74,0
56062,note_on,94,0,5,,,,,,,,,6,,,47,0
56062,note_on,94,0,4,,,,,,,,,4,,,66,0
56062,note_on,94,0,6,,,,,,,,,8,,,35,0
56062,note_on,46,0,3,,,,,,,,,3,,,74,0
56064,note_on,2,0,5,,,,,,,,,6,,,54,60
56064,note_on,2,0,6,,,,,,,,,8,,,42,92
56064,note_on,2,0,3,,,,,,,,,3,,,73,127
56064,note_on,2,0,4,,,,,,,,,4,,,57,92
56064,note_on,2,0,2,,,,,,,,,0,,,73,127
56064,note_on,2,0,1,,,,,,,,,11,,,73,127
56110,note_on,46,0,3,,,,,,,,,3,,,73,0
56110,note_on,46,0,2,,,,,,,,,0,,,73,0
56110,note_on,46,0,1,,,,,,,,,11,,,73,0
56112,note_on,2,0,3,,,,,,,,,3,,,69,127
56112,note_on,2,0,1,,,,,,,,,11,,,69,127
56112,note_on,2,0,2,,,,,,,,,0,,,69,127
56158,note_on,94,0,4,,,,,,,,,4,,,57,0
56158,note_on,46,0,1,,,,,,,,,11,,,69,0
56158,note_on,94,0,5,,,,,,,,,6,,,54,0
56158,note_on,46,0,2,,,,,,,,,0,,,69,0
56158,note_on,46,0,3,,,,,,,,,3,,,69,0
56158,note_on,94,0,6,,,,,,,,,8,,,42,0
56160,note_on,2,0,1,,,,,,,,,11,,,66,127
56160,note_on,2,0,2,,,,,,,,,0,,,66,127
56160,note_on,2,0,6,,,,,,,,,8,,,42,92
56160,note_on,2,0,4,,,,,,,,,4,,,57,92
56160,note_on,2,0,3,,,,,,,,,3,,,66,127
56160,note_on,2,0,5,,,,,,,,,6,,,54,60
56206,note_on,46,0,2,,,,,,,,,0,,,66,0
56206,note_on,46,0,3,,,,,,,,,3,,,66,0
56206,note_on,46,0,1,,,,,,,,,11,,,66,0
56208,note_on,2,0,2,,,,,,,,,0,,,73,127
56208,note_on,2,0,1,,,,,,,,,11,,,73,127
56208,note_on,2,0,3,,,,,,,,,3,,,73,127
56254,note_on,94,0,6,,,,,,,,,8,,,42,0
56254,note_on,94,0,4,,,,,,,,,4,,,57,0
56254,note_on,46,0,2,,,,,,,,,0,,,73,0
56254,note_on,46,0,1,,,,,,,,,11,,,73,0
56254,note_on,94,0,5,,,,,,,,,6,,,54,0
56254,note_on,46,0,3,,,,,,,,,3,,,73,0
56256,note_on,2,0,1,,,,,,,,,11,,,74,127
56256,note_on,2,0,5,,,,,,,,,6,,,47,60
56256,note_on,2,0,2,,,,,,,,,0,,,74,127
56256,note_on,2,0,4,,,,,,,,,4,,,66,92
56256,note_on,2,0,6,,,,,,,,,8,,,35,92
56256,note_on,2,0,3,,,,,,,,,3,,,74,127
56302,note_on,46,0,2,,,,,,,,,0,,,74,0
56302,note_on,46,0,1,,,,,,,,,11,,,74,0
56302,note_on,46,0,3,,,,,,,,,3,,,74,0
56304,note_on,2,0,2,,,,,,,,,0,,,71,127
56304,note_on,2,0,3,,,,,,,,,3,,,71,127
56304,note_on,2,0,1,,,,,,,,,11,,,71,127
56350,note_on,46,0,3,,,,,,,,,3,,,71,0
56350,note_on,46,0,2,,,,,,,,,0,,,71,0
56350,note_on,94,0,5,,,,,,,,,6,,,47,0
56350,note_on,46,0,1,,,,,,,,,11,,,71,0
56350,note_on,94,0,6,,,,,,,,,8,,,35,0
56350,note_on,94,0,4,,,,,,,,,4,,,66,0
56352,note_on,2,0,3,,,,,,,,,3,,,66,127
56352,note_on,2,0,2,,,,,,,,,0,,,66,127
56352,note_on,2,0,5,,,,,,,,,6,,,47,60
56352,note_on,2,0,1,,,,,,,,,11,,,66,127
56352,note_on,2,0,6,,,,,,,,,8,,,35,92
56352,note_on,2,0,4,,,,,,,,,4,,,66,92
56398,note_on,46,0,2,,,,,,,,,0,,,66,0
56398,note_on,46,0,1,,,,,,,,,11,,,66,0
56398,note_on,46,0,3,,,,,,,,,3,,,66,0
56400,note_on,2,0,2,,,,,,,,,0,,,74,127
56400,note_on,2,0,1,,,,,,,,,11,,,74,127
56400,note_on,2,0,3,,,,,,,,,3,,,74,127
56446,note_on,46,0,1,,,,,,,,,11,,,74,0
56446,note_on,94,0,6,,,,,,,,,8,,,35,0
56446,note_on,94,0,5,,,,,,,,,6,,,47,0
56446,note_on,46,0,3,,,,,,,,,3,,,74,0
56446,note_on,46,0,2,,,,,,,,,0,,,74,0
56446,note_on,94,0,4,,,,,,,,,4,,,66,0
56448,note_on,2,0,4,,,,,,,,,4,,,57,92
56448,note_on,2,0,1,,,,,,,,,11,,,73,127
56448,note_on,2,0,3,,,,,,,,,3,,,73,127
56448,note_on,2,0,5,,,,,,,,,6,,,54,60
56448,note_on,2,0,2,,,,,,,,,0,,,73,127
56448,note_on,2,0,6,,,,,,,,,8,,,42,92
56494,note_on,46,0,3,,,,,,,,,3,,,73,0
56494,note_on,46,0,2,,,,,,,,,0,,,73,0
56494,note_on,46,0,1,,,,,,,,,11,,,73,0
56496,note_on,2,0,3,,,,,,,,,3,,,69,127
56496,note_on,2,0,1,,,,,,,,,11,,,69,127
56496,note_on,2,0,2,,,,,,,,,0,,,69,127
56542,note_on,94,0,6,,,,,,,,,8,,,42,0
56542,note_on,46,0,3,,,,,,,,,3,,,69,0
56542,note_on,46,0,1,,,,,,,,,11,,,69,0
56542,note_on,94,0,5,,,,,,,,,6,,,54,0
56542,note_on,94,0,4,,,,,,,,,4,,,57,0
56542,note_on,46,0,2,,,,,,,,,0,,,69,0
56544,note_on,2,0,3,,,,,,,,,3,,,66,127
56544,note_on,2,0,5,,,,,,,,,6,,,54,60
56544,note_on,2,0,2,,,,,,,,,0,,,66,127
56544,note_on,2,0,1,,,,,,,,,11,,,66,127
56544,note_on,2,0,6,,,,,,,,,8,,,42,92
56544,note_on,2,0,4,,,,,,,,,4,,,57,92
56590,note_on,46,0,1,,,,,,,,,11,,,66,0
56590,note_on,46,0,3,,,,,,,,,3,,,66,0
56590,note_on,46,0,2,,,,,,,,,0,,,66,0
56592,note_on,2,0,3,,,,,,,,,3,,,73,127
56592,note_on,2,0,2,,,,,,,,,0,,,73,127
56592,note_on,2,0,1,,,,,,,,,11,,,73,127
56638,note_on,46,0,3,,,,,,,,,3,,,73,0
56638,note_on,46,0,2,,,,,,,,,0,,,73,0
56638,note_on,94,0,5,,,,,,,,,6,,,54,0
56638,note_on,94,0,4,,,,,,,,,4,,,57,0
56638,note_on,94,0,6,,,,,,,,,8,,,42,0
56638,note_on,46,0,1,,,,,,,,,11,,,73,0
56640,note_on,2,0,6,,,,,,,,,8,,,35,92
56640,note_on,2,0,3,,,,,,,,,3,,,74,127
56640,note_on,2,0,4,,,,,,,,,4,,,66,92
56640,note_on,2,0,2,,,,,,,,,0,,,74,127
56640,note_on,2,0,5,,,,,,,,,6,,,47,60
56640,note_on,2,0,1,,,,,,,,,11,,,74,127
56686,note_on,46,0,3,,,,,,,,,3,,,74,0
56686,note_on,46,0,2,,,,,,,,,0,,,74,0
56686,note_on,46,0,1,,,,,,,,,11,,,74,0
56688,note_on,2,0,3,,,,,,,,,3,,,71,127
56688,note_on,2,0,2,,,,,,,,,0,,,71,127
56688,note_on,2,0,1,,,,,,,,,11,,,71,127
56734,note_on,46,0,1,,,,,,,,,11,,,71,0
56734,note_on,94,0,5,,,,,,,,,6,,,47,0
56734,note_on,46,0,3,,,,,,,,,3,,,71,0
56734,note_on,94,0,4,,,,,,,,,4,,,66,0
56734,note_on,46,0,2,,,,,,,,,0,,,71,0
56734,note_on,94,0,6,,,,,,,,,8,,,35,0
56736,note_on,2,0,6,,,,,,,,,8,,,35,92
56736,note_on,2,0,2,,,,,,,,,0,,,66,127
56736,note_on,2,0,5,,,,,,,,,6,,,47,60
56736,note_on,2,0,1,,,,,,,,,11,,,66,127
56736,note_on,2,0,4,,,,,,,,,4,,,66,92
56736,note_on,2,0,3,,,,,,,,,3,,,66,127
56782,note_on,46,0,1,,,,,,,,,11,,,66,0
56782,note_on,46,0,3,,,,,,,,,3,,,66,0
56782,note_on,46,0,2,,,,,,,,,0,,,66,0
56784,note_on,2,0,2,,,,,,,,,0,,,74,127
56784,note_on,2,0,3,,,,,,,,,3,,,74,127
56784,note_on,2,0,1,,,,,,,,,11,,,74,127
56830,note_on,46,0,1,,,,,,,,,11,,,74,0
56830,note_on,46,0,3,,,,,,,,,3,,,74,0
56830,note_on,46,0,2,,,,,,,,,0,,,74,0
56830,note_on,94,0,6,,,,,,,,,8,,,35,0
56830,note_on,94,0,5,,,,,,,,,6,,,47,0
56830,note_on,94,0,4,,,,,,,,,4,,,66,0
56832,note_on,2,0,3,,,,,,,,,3,,,73,127
56832,note_on,2,0,2,,,,,,,,,0,,,73,127
56832,note_on,2,0,5,,,,,,,,,6,,,54,60
56832,note_on,2,0,6,,,,,,,,,8,,,42,92
56832,note_on,2,0,4,,,,,,,,,4,,,57,92
56832,note_on,2,0,1,,,,,,,,,11,,,73,127
56992,note_on,160,0,2,,,,,,,,,0,,,73,0
56992,note_on,160,0,6,,,,,,,,,8,,,42,0
56992,note_on,160,0,4,,,,,,,,,4,,,57,0
56992,note_on,160,0,3,,,,,,,,,3,,,73,0
56992,note_on,160,0,5,,,,,,,,,6,,,54,0
56992,note_on,160,0,1,,,,,,,,,11,,,73,0
57024,note_on,32,0,4,,,,,,,,,4,,,73,92
57024,note_on,32,0,6,,,,,,,,,8,,,49,92
57024,note_on,32,0,2,,,,,,,,,0,,,85,127
57024,note_on,32,0,3,,,,,,,,,3,,,85,127
57024,note_on,32,0,5,,,,,,,,,6,,,61,60
57024,note_on,32,0,1,,,,,,,,,11,,,85,127
57118,note_on,94,0,2,,,,,,,,,0,,,85,0
57118,note_on,94,0,4,,,,,,,,,4,,,73,0
57118,note_on,94,0,3,,,,,,,,,3,,,85,0
57118,note_on,94,0,1,,,,,,,,,11,,,85,0
57118,note_on,94,0,6,,,,,,,,,8,,,49,0
57118,note_on,94,0,5,,,,,,,,,6,,,61,0
57120,note_on,2,0,6,,,,,,,,,8,,,49,92
57120,note_on,2,0,3,,,,,,,,,3,,,85,127
57120,note_on,2,0,2,,,,,,,,,0,,,85,127
57120,note_on,2,0,4,,,,,,,,,4,,,73,92
57120,note_on,2,0,1,,,,,,,,,11,,,85,127
57120,note_on,2,0,5,,,,,,,,,6,,,61,60
57214,note_on,94,0,4,,,,,,,,,4,,,73,0
57214,note_on,94,0,6,,,,,,,,,8,,,49,0
57214,note_on,94,0,2,,,,,,,,,0,,,85,0
57214,note_on,94,0,5,,,,,,,,,6,,,61,0
57214,note_on,94,0,1,,,,,,,,,11,,,85,0
57214,note_on,94,0,3,,,,,,,,,3,,,85,0
57216,note_on,2,0,5,,,,,,,,,6,,,57,60
57216,note_on,2,0,2,,,,,,,,,0,,,81,127
57216,note_on,2,0,6,,,,,,,,,8,,,45,92
57216,note_on,2,0,3,,,,,,,,,3,,,81,127
57216,note_on,2,0,4,,,,,,,,,4,,,69,92
57216,note_on,2,0,1,,,,,,,,,11,,,81,127
57310,note_on,94,0,1,,,,,,,,,11,,,81,0
57310,note_on,94,0,5,,,,,,,,,6,,,57,0
57310,note_on,94,0,4,,,,,,,,,4,,,69,0
57310,note_on,94,0,2,,,,,,,,,0,,,81,0
57310,note_on,94,0,6,,,,,,,,,8,,,45,0
57310,note_on,94,0,3,,,,,,,,,3,,,81,0
57312,note_on,2,0,1,,,,,,,,,11,,,81,127
57312,note_on,2,0,4,,,,,,,,,4,,,69,92
57312,note_on,2,0,2,,,,,,,,,0,,,81,127
57312,note_on,2,0,3,,,,,,,,,3,,,81,127
57312,note_on,2,0,6,,,,,,,,,8,,,45,92
57312,note_on,2,0,5,,,,,,,,,6,,,57,60
57406,note_on,94,0,5,,,,,,,,,6,,,57,0
57406,note_on,94,0,3,,,,,,,,,3,,,81,0
57406,note_on,94,0,6,,,,,,,,,8,,,45,0
57406,note_on,94,0,4,,,,,,,,,4,,,69,0
57406,note_on,94,0,1,,,,,,,,,11,,,81,0
57406,note_on,94,0,2,,,,,,,,,0,,,81,0
57408,note_on,2,0,1,,,,,,,,,11,,,77,127
57408,note_on,2,0,6,,,,,,,,,8,,,41,92
57408,note_on,2,0,5,,,,,,,,,6,,,53,60
57408,note_on,2,0,4,,,,,,,,,4,,,65,92
57408,note_on,2,0,3,,,,,,,,,3,,,77,127
57408,note_on,2,0,2,,,,,,,,,0,,,77,127
57502,note_on,94,0,2,,,,,,,,,0,,,77,0
57502,note_on,94,0,3,,,,,,,,,3,,,77,0
57502,note_on,94,0,6,,,,,,,,,8,,,41,0
57502,note_on,94,0,4,,,,,,,,,4,,,65,0
57502,note_on,94,0,1,,,,,,,,,11,,,77,0
57502,note_on,94,0,5,,,,,,,,,6,,,53,0
57504,note_on,2,0,2,,,,,,,,,0,,,77,127
57504,note_on,2,0,6,,,,,,,,,8,,,41,92
57504,note_on,2,0,5,,,,,,,,,6,,,53,60
57504,note_on,2,0,4,,,,,,,,,4,,,65,92
57504,note_on,2,0,3,,,,,,,,,3,,,77,127
57504,note_on,2,0,1,,,,,,,,,11,,,77,127
57598,note_on,94,0,3,,,,,,,,,3,,,77,0
57598,note_on,94,0,1,,,,,,,,,11,,,77,0
57598,note_on,94,0,6,,,,,,,,,8,,,41,0
57598,note_on,94,0,4,,,,,,,,,4,,,65,0
57598,note_on,94,0,2,,,,,,,,,0,,,77,0
57598,note_on,94,0,5,,,,,,,,,6,,,53,0
57600,note_on,2,0,3,,,,,,,,,3,,,78,127
57600,note_on,2,0,4,,,,,,,,,4,,,66,92
57600,note_on,2,0,1,,,,,,,,,11,,,78,127
57600,note_on,2,0,2,,,,,,,,,0,,,78,127
57600,note_on,2,0,6,,,,,,,,,8,,,42,92
57600,note_on,2,0,5,,,,,,,,,6,,,54,60
57760,note_on,160,0,6,,,,,,,,,8,,,42,0
57760,note_on,160,0,5,,,,,,,,,6,,,54,0
57760,note_on,160,0,4,,,,,,,,,4,,,66,0
57760,note_on,160,0,2,,,,,,,,,0,,,78,0
57760,note_on,160,0,3,,,,,,,,,3,,,78,0
57760,note_on,160,0,1,,,,,,,,,11,,,78,0
57792,note_on,32,0,3,,,,,,,,,3,,,73,127
57792,note_on,32,0,4,,,,,,,,,4,,,61,92
57792,note_on,32,0,2,,,,,,,,,0,,,73,127
57792,note_on,32,0,1,,,,,,,,,11,,,73,127
57792,note_on,32,0,6,,,,,,,,,8,,,37,92
57792,note_on,32,0,5,,,,,,,,,6,,,49,60
57886,note_on,94,0,5,,,,,,,,,6,,,49,0
57886,note_on,94,0,4,,,,,,,,,4,,,61,0
57886,note_on,94,0,3,,,,,,,,,3,,,73,0
57886,note_on,94,0,6,,,,,,,,,8,,,37,0
57886,note_on,94,0,2,,,,,,,,,0,,,73,0
57886,note_on,94,0,1,,,,,,,,,11,,,73,0
57888,note_on,2,0,3,,,,,,,,,3,,,73,127
57888,note_on,2,0,5,,,,,,,,,6,,,49,60
57888,note_on,2,0,1,,,,,,,,,11,,,73,127
57888,note_on,2,0,4,,,,,,,,,4,,,61,92
57888,note_on,2,0,2,,,,,,,,,0,,,73,127
57888,note_on,2,0,6,,,,,,,,,8,,,37,92
57982,note_on,94,0,3,,,,,,,,,3,,,73,0
57982,note_on,94,0,5,,,,,,,,,6,,,49,0
57982,note_on,94,0,4,,,,,,,,,4,,,61,0
57982,note_on,94,0,6,,,,,,,,,8,,,37,0
57982,note_on,94,0,1,,,,,,,,,11,,,73,0
57982,note_on,94,0,2,,,,,,,,,0,,,73,0
57984,note_on,2,0,4,,,,,,,,,4,,,57,92
57984,note_on,2,0,1,,,,,,,,,11,,,69,127
57984,note_on,2,0,6,,,,,,,,,8,,,33,92
57984,note_on,2,0,5,,,,,,,,,6,,,45,60
57984,note_on,2,0,2,,,,,,,,,0,,,69,127
57984,note_on,2,0,3,,,,,,,,,3,,,69,127
58078,note_on,94,0,5,,,,,,,,,6,,,45,0
58078,note_on,94,0,6,,,,,,,,,8,,,33,0
58078,note_on,94,0,1,,,,,,,,,11,,,69,0
58078,note_on,94,0,2,,,,,,,,,0,,,69,0
58078,note_on,94,0,3,,,,,,,,,3,,,69,0
58078,note_on,94,0,4,,,,,,,,,4,,,57,0
58080,note_on,2,0,5,,,,,,,,,6,,,45,60
58080,note_on,2,0,4,,,,,,,,,4,,,57,92
58080,note_on,2,0,6,,,,,,,,,8,,,33,92
58080,note_on,2,0,2,,,,,,,,,0,,,69,127
58080,note_on,2,0,1,,,,,,,,,11,,,69,127
58080,note_on,2,0,3,,,,,,,,,3,,,69,127
58174,note_on,94,0,2,,,,,,,,,0,,,69,0
58174,note_on,94,0,6,,,,,,,,,8,,,33,0
58174,note_on,94,0,5,,,,,,,,,6,,,45,0
58174,note_on,94,0,3,,,,,,,,,3,,,69,0
58174,note_on,94,0,1,,,,,,,,,11,,,69,0
58174,note_on,94,0,4,,,,,,,,,4,,,57,0
58176,note_on,2,0,5,,,,,,,,,6,,,41,60
58176,note_on,2,0,4,,,,,,,,,4,,,53,92
58176,note_on,2,0,6,,,,,,,,,8,,,29,92
58176,note_on,2,0,2,,,,,,,,,0,,,65,127
58176,note_on,2,0,3,,,,,,,,,3,,,65,127
58176,note_on,2,0,1,,,,,,,,,11,,,65,127
58270,note_on,94,0,6,,,,,,,,,8,,,29,0
58270,note_on,94,0,4,,,,,,,,,4,,,53,0
58270,note_on,94,0,2,,,,,,,,,0,,,65,0
58270,note_on,94,0,3,,,,,,,,,3,,,65,0
58270,note_on,94,0,5,,,,,,,,,6,,,41,0
58270,note_on,94,0,1,,,,,,,,,11,,,65,0
58272,note_on,2,0,1,,,,,,,,,11,,,65,127
58272,note_on,2,0,3,,,,,,,,,3,,,65,127
58272,note_on,2,0,2,,,,,,,,,0,,,65,127
58272,note_on,2,0,5,,,,,,,,,6,,,41,60
58272,note_on,2,0,6,,,,,,,,,8,,,29,92
58272,note_on,2,0,4,,,,,,,,,4,,,53,92
58366,note_on,94,0,4,,,,,,,,,4,,,53,0
58366,note_on,94,0,2,,,,,,,,,0,,,65,0
58366,note_on,94,0,3,,,,,,,,,3,,,65,0
58366,note_on,94,0,5,,,,,,,,,6,,,41,0
58366,note_on,94,0,1,,,,,,,,,11,,,65,0
58366,note_on,94,0,6,,,,,,,,,8,,,29,0
58368,note_on,2,0,3,,,,,,,,,3,,,66,127
58368,note_on,2,0,5,,,,,,,,,6,,,42,60
58368,note_on,2,0,2,,,,,,,,,0,,,66,127
58368,note_on,2,0,1,,,,,,,,,11,,,66,127
58368,note_on,2,0,4,,,,,,,,,4,,,54,92
58368,note_on,2,0,6,,,,,,,,,8,,,30,92
58528,note_on,160,0,3,,,,,,,,,3,,,66,0
58528,note_on,160,0,2,,,,,,,,,0,,,66,0
58528,note_on,160,0,6,,,,,,,,,8,,,30,0
58528,note_on,160,0,1,,,,,,,,,11,,,66,0
58528,note_on,160,0,4,,,,,,,,,4,,,54,0
58528,note_on,160,0,5,,,,,,,,,6,,,42,0
58560,note_on,32,0,1,,,,,,,,,11,,,78,127
58560,note_on,32,0,4,,,,,,,,,4,,,66,92
58560,note_on,32,0,5,,,,,,,,,6,,,54,60
58560,note_on,32,0,2,,,,,,,,,0,,,78,127
58560,note_on,32,0,3,,,,,,,,,3,,,78,127
58560,note_on,32,0,6,,,,,,,,,8,,,42,92
58654,note_on,94,0,2,,,,,,,,,0,,,78,0
58654,note_on,94,0,3,,,,,,,,,3,,,78,0
58654,note_on,94,0,5,,,,,,,,,6,,,54,0
58654,note_on,94,0,1,,,,,,,,,11,,,78,0
58654,note_on,94,0,6,,,,,,,,,8,,,42,0
58654,note_on,94,0,4,,,,,,,,,4,,,66,0
58656,note_on,2,0,6,,,,,,,,,8,,,40,92
58656,note_on,2,0,1,,,,,,,,,11,,,76,127
58656,note_on,2,0,5,,,,,,,,,6,,,52,60
58656,note_on,2,0,4,,,,,,,,,4,,,64,92
58656,note_on,2,0,2,,,,,,,,,0,,,76,127
58656,note_on,2,0,3,,,,,,,,,3,,,76,127
58702,note_on,46,0,5,,,,,,,,,6,,,52,0
58702,note_on,46,0,4,,,,,,,,,4,,,64,0
58702,note_on,46,0,6,,,,,,,,,8,,,40,0
58702,note_on,46,0,3,,,,,,,,,3,,,76,0
58702,note_on,46,0,1,,,,,,,,,11,,,76,0
58702,note_on,46,0,2,,,,,,,,,0,,,76,0
58704,note_on,2,0,6,,,,,,,,,8,,,38,92
58704,note_on,2,0,2,,,,,,,,,0,,,74,127
58704,note_on,2,0,1,,,,,,,,,11,,,74,127
58704,note_on,2,0,5,,,,,,,,,6,,,50,60
58704,note_on,2,0,3,,,,,,,,,3,,,74,127
58704,note_on,2,0,4,,,,,,,,,4,,,62,92
58750,note_on,46,0,4,,,,,,,,,4,,,62,0
58750,note_on,46,0,3,,,,,,,,,3,,,74,0
58750,note_on,46,0,5,,,,,,,,,6,,,50,0
58750,note_on,46,0,2,,,,,,,,,0,,,74,0
58750,note_on,46,0,6,,,,,,,,,8,,,38,0
58750,note_on,46,0,1,,,,,,,,,11,,,74,0
58752,note_on,2,0,2,,,,,,,,,0,,,73,127
58752,note_on,2,0,4,,,,,,,,,4,,,61,92
58752,note_on,2,0,6,,,,,,,,,8,,,37,92
58752,note_on,2,0,5,,,,,,,,,6,,,49,60
58752,note_on,2,0,1,,,,,,,,,11,,,73,127
58752,note_on,2,0,3,,,,,,,,,3,,,73,127
58846,note_on,94,0,5,,,,,,,,,6,,,49,0
58846,note_on,94,0,2,,,,,,,,,0,,,73,0
58846,note_on,94,0,3,,,,,,,,,3,,,73,0
58846,note_on,94,0,1,,,,,,,,,11,,,73,0
58846,note_on,94,0,4,,,,,,,,,4,,,61,0
58846,note_on,94,0,6,,,,,,,,,8,,,37,0
58848,note_on,2,0,4,,,,,,,,,4,,,54,92
58848,note_on,2,0,3,,,,,,,,,3,,,66,127
58848,note_on,2,0,6,,,,,,,,,8,,,30,92
58848,note_on,2,0,2,,,,,,,,,0,,,66,127
58848,note_on,2,0,1,,,,,,,,,11,,,66,127
58848,note_on,2,0,5,,,,,,,,,6,,,42,60
58942,note_on,94,0,3,,,,,,,,,3,,,66,0
58942,note_on,94,0,6,,,,,,,,,8,,,30,0
58942,note_on,94,0,2,,,,,,,,,0,,,66,0
58942,note_on,94,0,1,,,,,,,,,11,,,66,0
58942,note_on,94,0,5,,,,,,,,,6,,,42,0
58942,note_on,94,0,4,,,,,,,,,4,,,54,0
58944,note_on,2,0,4,,,,,,,,,4,,,61,92
58944,note_on,2,0,2,,,,,,,,,0,,,81,127
58944,note_on,2,0,3,,,,,,,,,3,,,81,127
58944,note_on,2,0,1,,,,,,,,,11,,,81,127
58944,note_on,2,0,6,,,,,,,,,8,,,37,92
58944,note_on,2,0,5,,,,,,,,,6,,,49,60
58966,note_on,22,0,1,,,,,,,,,11,,,81,0
58966,note_on,22,0,2,,,,,,,,,0,,,81,0
58966,note_on,22,0,3,,,,,,,,,3,,,81,0
58968,note_on,2,0,3,,,,,,,,,3,,,80,127
58968,note_on,2,0,1,,,,,,,,,11,,,80,127
58968,note_on,2,0,2,,,,,,,,,0,,,80,127
58990,note_on,22,0,3,,,,,,,,,3,,,80,0
58990,note_on,22,0,1,,,,,,,,,11,,,80,0
58990,note_on,22,0,2,,,,,,,,,0,,,80,0
58992,note_on,2,0,1,,,,,,,,,11,,,81,127
58992,note_on,2,0,2,,,,,,,,,0,,,81,127
58992,note_on,2,0,3,,,,,,,,,3,,,81,127
59014,note_on,22,0,2,,,,,,,,,0,,,81,0
59014,note_on,22,0,1,,,,,,,,,11,,,81,0
59014,note_on,22,0,3,,,,,,,,,3,,,81,0
59016,note_on,2,0,1,,,,,,,,,11,,,80,127
59016,note_on,2,0,3,,,,,,,,,3,,,80,127
59016,note_on,2,0,2,,,,,,,,,0,,,80,127
59038,note_on,94,0,4,,,,,,,,,4,,,61,0
59038,note_on,94,0,5,,,,,,,,,6,,,49,0
59038,note_on,94,0,6,,,,,,,,,8,,,37,0
59040,note_on,2,0,5,,,,,,,,,6,,,37,60
59040,note_on,2,0,6,,,,,,,,,8,,,25,92
59040,note_on,2,0,4,,,,,,,,,4,,,49,92
59134,note_on,94,0,5,,,,,,,,,6,,,37,0
59134,note_on,118,0,1,,,,,,,,,11,,,80,0
59134,note_on,94,0,4,,,,,,,,,4,,,49,0
59134,note_on,118,0,3,,,,,,,,,3,,,80,0
59134,note_on,94,0,6,,,,,,,,,8,,,25,0
59134,note_on,118,0,2,,,,,,,,,0,,,80,0
59136,note_on,2,0,3,,,,,,,,,3,,,78,127
59136,note_on,2,0,5,,,,,,,,,6,,,54,60
59136,note_on,2,0,4,,,,,,,,,4,,,66,92
59136,note_on,2,0,6,,,,,,,,,8,,,42,92
59136,note_on,2,0,1,,,,,,,,,11,,,78,127
59136,note_on,2,0,2,,,,,,,,,0,,,78,127
59230,note_on,94,0,4,,,,,,,,,4,,,66,0
59230,note_on,94,0,5,,,,,,,,,6,,,54,0
59230,note_on,94,0,2,,,,,,,,,0,,,78,0
59230,note_on,94,0,1,,,,,,,,,11,,,78,0
59230,note_on,94,0,3,,,,,,,,,3,,,78,0
59230,note_on,94,0,6,,,,,,,,,8,,,42,0
59232,note_on,2,0,5,,,,,,,,,6,,,49,60
59232,note_on,2,0,1,,,,,,,,,11,,,73,127
59232,note_on,2,0,4,,,,,,,,,4,,,61,92
59232,note_on,2,0,2,,,,,,,,,0,,,73,127
59232,note_on,2,0,6,,,,,,,,,8,,,37,92
59232,note_on,2,0,3,,,,,,,,,3,,,73,127
59326,note_on,94,0,3,,,,,,,,,3,,,73,0
59326,note_on,94,0,5,,,,,,,,,6,,,49,0
59326,note_on,94,0,4,,,,,,,,,4,,,61,0
59326,note_on,94,0,2,,,,,,,,,0,,,73,0
59326,note_on,94,0,6,,,,,,,,,8,,,37,0
59326,note_on,94,0,1,,,,,,,,,11,,,73,0
59328,note_on,2,0,5,,,,,,,,,6,,,42,60
59328,note_on,2,0,1,,,,,,,,,11,,,66,127
59328,note_on,2,0,3,,,,,,,,,3,,,66,127
59328,note_on,2,0,6,,,,,,,,,8,,,30,92
59328,note_on,2,0,2,,,,,,,,,0,,,66,127
59328,note_on,2,0,4,,,,,,,,,4,,,54,92
59488,note_on,160,0,1,,,,,,,,,11,,,66,0
59488,note_on,160,0,3,,,,,,,,,3,,,66,0
59488,note_on,160,0,2,,,,,,,,,0,,,66,0
59488,note_on,160,0,5,,,,,,,,,6,,,42,0
59488,note_on,160,0,6,,,,,,,,,8,,,30,0
59488,note_on,160,0,4,,,,,,,,,4,,,54,0
59520,note_on,32,0,2,,,,,,,,,0,,,78,127
59520,note_on,32,0,3,,,,,,,,,3,,,78,127
59520,note_on,32,0,5,,,,,,,,,6,,,54,60
59520,note_on,32,0,1,,,,,,,,,11,,,78,127
59520,note_on,32,0,4,,,,,,,,,4,,,66,92
59520,note_on,32,0,6,,,,,,,,,8,,,42,92
59614,note_on,94,0,3,,,,,,,,,3,,,78,0
59614,note_on,94,0,4,,,,,,,,,4,,,66,0
59614,note_on,94,0,2,,,,,,,,,0,,,78,0
59614,note_on,94,0,1,,,,,,,,,11,,,78,0
59614,note_on,94,0,5,,,,,,,,,6,,,54,0
59614,note_on,94,0,6,,,,,,,,,8,,,42,0
59616,note_on,2,0,5,,,,,,,,,6,,,49,60
59616,note_on,2,0,2,,,,,,,,,0,,,73,127
59616,note_on,2,0,1,,,,,,,,,11,,,73,127
59616,note_on,2,0,4,,,,,,,,,4,,,61,92
59616,note_on,2,0,6,,,,,,,,,8,,,37,92
59616,note_on,2,0,3,,,,,,,,,3,,,73,127
59710,note_on,94,0,3,,,,,,,,,3,,,73,0
59710,note_on,94,0,6,,,,,,,,,8,,,37,0
59710,note_on,94,0,4,,,,,,,,,4,,,61,0
59710,note_on,94,0,1,,,,,,,,,11,,,73,0
59710,note_on,94,0,5,,,,,,,,,6,,,49,0
59710,note_on,94,0,2,,,,,,,,,0,,,73,0
59712,note_on,2,0,1,,,,,,,,,11,,,66,127
59712,note_on,2,0,5,,,,,,,,,6,,,42,60
59712,note_on,2,0,4,,,,,,,,,4,,,54,92
59712,note_on,2,0,3,,,,,,,,,3,,,66,127
59712,note_on,2,0,2,,,,,,,,,0,,,66,127
59712,note_on,2,0,6,,,,,,,,,8,,,30,92
59872,note_on,160,0,2,,,,,,,,,0,,,66,0
59872,note_on,160,0,4,,,,,,,,,4,,,54,0
59872,note_on,160,0,6,,,,,,,,,8,,,30,0
59872,note_on,160,0,5,,,,,,,,,6,,,42,0
59872,note_on,160,0,3,,,,,,,,,3,,,66,0
59872,note_on,160,0,1,,,,,,,,,11,,,66,0
59904,note_on,32,0,5,,,,,,,,,6,,,45,60
59904,note_on,32,0,1,,,,,,,,,11,,,81,127
59998,note_on,94,0,1,,,,,,,,,11,,,81,0
60000,note_on,2,0,1,,,,,,,,,11,,,80,127
60046,note_on,46,0,1,,,,,,,,,11,,,80,0
60048,note_on,2,0,1,,,,,,,,,11,,,78,127
60064,note_on,160,0,5,,,,,,,,,6,,,45,0
60094,note_on,46,0,1,,,,,,,,,11,,,78,0
60096,note_on,2,0,1,,,,,,,,,11,,,76,127
60142,note_on,46,0,1,,,,,,,,,11,,,76,0
60144,note_on,2,0,1,,,,,,,,,11,,,74,127
60190,note_on,46,0,1,,,,,,,,,11,,,74,0
60192,note_on,2,0,1,,,,,,,,,11,,,73,127
60238,note_on,46,0,1,,,,,,,,,11,,,73,0
60240,note_on,2,0,1,,,,,,,,,11,,,71,127
60286,note_on,46,0,1,,,,,,,,,11,,,71,0
60288,note_on,224,0,5,,,,,,,,,6,,,57,60
60288,note_on,2,0,1,,,,,,,,,11,,,73,127
60334,note_on,46,0,1,,,,,,,,,11,,,73,0
60336,note_on,2,0,1,,,,,,,,,11,,,69,127
60382,note_on,46,0,1,,,,,,,,,11,,,69,0
60382,note_on,94,0,5,,,,,,,,,6,,,57,0
60384,note_on,2,0,5,,,,,,,,,6,,,57,60
60384,note_on,2,0,1,,,,,,,,,11,,,64,127
60430,note_on,46,0,1,,,,,,,,,11,,,64,0
60432,note_on,2,0,1,,,,,,,,,11,,,73,127
60478,note_on,46,0,1,,,,,,,,,11,,,73,0
60478,note_on,94,0,5,,,,,,,,,6,,,57,0
60480,note_on,2,0,1,,,,,,,,,11,,,74,127
60480,note_on,2,0,5,,,,,,,,,6,,,56,60
60526,note_on,46,0,1,,,,,,,,,11,,,74,0
60528,note_on,2,0,1,,,,,,,,,11,,,71,127
60574,note_on,46,0,1,,,,,,,,,11,,,71,0
60574,note_on,94,0,5,,,,,,,,,6,,,56,0
60576,note_on,2,0,5,,,,,,,,,6,,,56,60
60576,note_on,2,0,1,,,,,,,,,11,,,64,127
60622,note_on,46,0,1,,,,,,,,,11,,,64,0
60624,note_on,2,0,1,,,,,,,,,11,,,74,127
60670,note_on,46,0,1,,,,,,,,,11,,,74,0
60670,note_on,94,0,5,,,,,,,,,6,,,56,0
60672,note_on,2,0,5,,,,,,,,,6,,,57,60
60672,note_on,2,0,1,,,,,,,,,11,,,73,127
60718,note_on,46,0,1,,,,,,,,,11,,,73,0
60720,note_on,2,0,1,,,,,,,,,11,,,69,127
60766,note_on,46,0,1,,,,,,,,,11,,,69,0
60766,note_on,94,0,5,,,,,,,,,6,,,57,0
60768,note_on,2,0,1,,,,,,,,,11,,,64,127
60768,note_on,2,0,5,,,,,,,,,6,,,57,60
60814,note_on,46,0,1,,,,,,,,,11,,,64,0
60816,note_on,2,0,1,,,,,,,,,11,,,73,127
60862,note_on,94,0,5,,,,,,,,,6,,,57,0
60862,note_on,46,0,1,,,,,,,,,11,,,73,0
60864,note_on,2,0,5,,,,,,,,,6,,,56,60
60864,note_on,2,0,1,,,,,,,,,11,,,74,127
60910,note_on,46,0,1,,,,,,,,,11,,,74,0
60912,note_on,2,0,1,,,,,,,,,11,,,71,127
60958,note_on,46,0,1,,,,,,,,,11,,,71,0
60958,note_on,94,0,5,,,,,,,,,6,,,56,0
60960,note_on,2,0,5,,,,,,,,,6,,,56,60
60960,note_on,2,0,1,,,,,,,,,11,,,64,127
61006,note_on,46,0,1,,,,,,,,,11,,,64,0
61008,note_on,2,0,1,,,,,,,,,11,,,74,127
61054,note_on,94,0,5,,,,,,,,,6,,,56,0
61054,note_on,46,0,1,,,,,,,,,11,,,74,0
61056,note_on,2,0,1,,,,,,,,,11,,,73,127
61056,note_on,2,0,5,,,,,,,,,6,,,57,60
61102,note_on,46,0,1,,,,,,,,,11,,,73,0
61104,note_on,2,0,1,,,,,,,,,11,,,69,127
61150,note_on,94,0,5,,,,,,,,,6,,,57,0
61150,note_on,46,0,1,,,,,,,,,11,,,69,0
61152,note_on,2,0,1,,,,,,,,,11,,,64,127
61152,note_on,2,0,5,,,,,,,,,6,,,57,60
61198,note_on,46,0,1,,,,,,,,,11,,,64,0
61200,note_on,2,0,1,,,,,,,,,11,,,73,127
61246,note_on,46,0,1,,,,,,,,,11,,,73,0
61246,note_on,94,0,5,,,,,,,,,6,,,57,0
61248,note_on,2,0,1,,,,,,,,,11,,,74,127
61248,note_on,2,0,5,,,,,,,,,6,,,56,60
61294,note_on,46,0,1,,,,,,,,,11,,,74,0
61296,note_on,2,0,1,,,,,,,,,11,,,71,127
61342,note_on,46,0,1,,,,,,,,,11,,,71,0
61342,note_on,94,0,5,,,,,,,,,6,,,56,0
61344,note_on,2,0,5,,,,,,,,,6,,,56,60
61344,note_on,2,0,1,,,,,,,,,11,,,64,127
61390,note_on,46,0,1,,,,,,,,,11,,,64,0
61392,note_on,2,0,1,,,,,,,,,11,,,74,127
61438,note_on,46,0,1,,,,,,,,,11,,,74,0
61438,note_on,94,0,5,,,,,,,,,6,,,56,0
61440,control_change,1568,0,2,,,,,,,,,0,10,0,,
61440,note_on,2,0,1,,,,,,,,,11,,,69,127
61534,note_on,94,0,1,,,,,,,,,11,,,69,0
61536,note_on,0,0,1,,,,,,,,,11,,,76,127
61536,note_on,2,0,1,,,,,,,,,11,,,73,127
61536,note_on,96,0,2,,,,,,,,,0,,,57,127
61582,note_on,0,0,1,,,,,,,,,11,,,76,0
61582,note_on,46,0,1,,,,,,,,,11,,,73,0
61582,note_on,46,0,2,,,,,,,,,0,,,57,0
61584,note_on,2,0,2,,,,,,,,,0,,,59,127
61584,note_on,2,0,1,,,,,,,,,11,,,69,127
61630,note_on,46,0,2,,,,,,,,,0,,,59,0
61630,note_on,46,0,1,,,,,,,,,11,,,69,0
61632,note_on,2,0,1,,,,,,,,,11,,,73,127
61632,note_on,0,0,1,,,,,,,,,11,,,76,127
61632,note_on,2,0,2,,,,,,,,,0,,,61,127
61678,note_on,0,0,1,,,,,,,,,11,,,76,0
61678,note_on,46,0,1,,,,,,,,,11,,,73,0
61680,note_on,2,0,1,,,,,,,,,11,,,69,127
61726,note_on,46,0,1,,,,,,,,,11,,,69,0
61726,note_on,94,0,2,,,,,,,,,0,,,61,0
61728,note_on,0,0,1,,,,,,,,,11,,,76,127
61728,note_on,2,0,1,,,,,,,,,11,,,73,127
61728,note_on,2,0,2,,,,,,,,,0,,,59,127
61774,note_on,46,0,1,,,,,,,,,11,,,73,0
61774,note_on,0,0,1,,,,,,,,,11,,,76,0
61776,note_on,2,0,1,,,,,,,,,11,,,69,127
61822,note_on,94,0,2,,,,,,,,,0,,,59,0
61822,note_on,46,0,1,,,,,,,,,11,,,69,0
61824,note_on,2,0,2,,,,,,,,,0,,,57,127
61824,note_on,2,0,1,,,,,,,,,11,,,81,127
61918,note_on,94,0,1,,,,,,,,,11,,,81,0
61918,note_on,94,0,2,,,,,,,,,0,,,57,0
61920,note_on,2,0,1,,,,,,,,,11,,,80,127
61920,note_on,2,0,2,,,,,,,,,0,,,59,127
61966,note_on,46,0,1,,,,,,,,,11,,,80,0
61968,note_on,2,0,1,,,,,,,,,11,,,78,127
62014,note_on,46,0,1,,,,,,,,,11,,,78,0
62014,note_on,94,0,2,,,,,,,,,0,,,59,0
62016,note_on,2,0,2,,,,,,,,,0,,,61,127
62016,note_on,2,0,1,,,,,,,,,11,,,76,127
62110,note_on,94,0,2,,,,,,,,,0,,,61,0
62110,note_on,94,0,1,,,,,,,,,11,,,76,0
62112,note_on,2,0,2,,,,,,,,,0,,,62,127
62112,note_on,0,0,1,,,,,,,,,11,,,78,127
62112,note_on,2,0,1,,,,,,,,,11,,,74,127
62206,note_on,94,0,1,,,,,,,,,11,,,74,0
62206,note_on,94,0,2,,,,,,,,,0,,,62,0
62206,note_on,0,0,1,,,,,,,,,11,,,78,0
62208,note_on,2,0,2,,,,,,,,,0,,,57,127
62208,note_on,0,0,1,,,,,,,,,11,,,76,127
62208,note_on,2,0,1,,,,,,,,,11,,,73,127
62302,note_on,0,0,1,,,,,,,,,11,,,76,0
62302,note_on,94,0,2,,,,,,,,,0,,,57,0
62302,note_on,94,0,1,,,,,,,,,11,,,73,0
62304,note_on,2,0,2,,,,,,,,,0,,,57,127
62304,note_on,2,0,1,,,,,,,,,11,,,73,127
62304,note_on,0,0,1,,,,,,,,,11,,,76,127
62350,note_on,46,0,1,,,,,,,,,11,,,73,0
62350,note_on,0,0,1,,,,,,,,,11,,,76,0
62350,note_on,46,0,2,,,,,,,,,0,,,57,0
62352,note_on,2,0,1,,,,,,,,,11,,,69,127
62352,note_on,2,0,2,,,,,,,,,0,,,59,127
62398,note_on,46,0,1,,,,,,,,,11,,,69,0
62398,note_on,46,0,2,,,,,,,,,0,,,59,0
62400,note_on,0,0,1,,,,,,,,,11,,,76,127
62400,note_on,2,0,2,,,,,,,,,0,,,61,127
62400,note_on,2,0,1,,,,,,,,,11,,,73,127
62446,note_on,0,0,1,,,,,,,,,11,,,76,0
62446,note_on,46,0,1,,,,,,,,,11,,,73,0
62448,note_on,2,0,1,,,,,,,,,11,,,69,127
62494,note_on,46,0,1,,,,,,,,,11,,,69,0
62494,note_on,94,0,2,,,,,,,,,0,,,61,0
62496,note_on,2,0,1,,,,,,,,,11,,,73,127
62496,note_on,0,0,1,,,,,,,,,11,,,76,127
62496,note_on,2,0,2,,,,,,,,,0,,,59,127
62542,note_on,46,0,1,,,,,,,,,11,,,73,0
62542,note_on,0,0,1,,,,,,,,,11,,,76,0
62544,note_on,2,0,1,,,,,,,,,11,,,69,127
62590,note_on,94,0,2,,,,,,,,,0,,,59,0
62590,note_on,46,0,1,,,,,,,,,11,,,69,0
62592,note_on,2,0,2,,,,,,,,,0,,,57,127
62592,note_on,2,0,1,,,,,,,,,11,,,81,127
62686,note_on,94,0,2,,,,,,,,,0,,,57,0
62686,note_on,94,0,1,,,,,,,,,11,,,81,0
62688,note_on,2,0,2,,,,,,,,,0,,,59,127
62688,note_on,2,0,1,,,,,,,,,11,,,80,127
62734,note_on,46,0,1,,,,,,,,,11,,,80,0
62736,note_on,2,0,1,,,,,,,,,11,,,78,127
62782,note_on,46,0,1,,,,,,,,,11,,,78,0
62782,note_on,94,0,2,,,,,,,,,0,,,59,0
62784,note_on,2,0,2,,,,,,,,,0,,,61,127
62784,note_on,2,0,1,,,,,,,,,11,,,76,127
62878,note_on,94,0,1,,,,,,,,,11,,,76,0
62878,note_on,94,0,2,,,,,,,,,0,,,61,0
62880,note_on,2,0,2,,,,,,,,,0,,,62,127
62880,note_on,0,0,1,,,,,,,,,11,,,78,127
62880,note_on,2,0,1,,,,,,,,,11,,,74,127
62974,note_on,94,0,2,,,,,,,,,0,,,62,0
62974,note_on,94,0,1,,,,,,,,,11,,,74,0
62974,note_on,0,0,1,,,,,,,,,11,,,78,0
62976,note_on,2,0,1,,,,,,,,,11,,,73,127
62976,note_on,0,0,1,,,,,,,,,11,,,76,127
62976,note_on,2,0,2,,,,,,,,,0,,,57,127
62976,control_change,3104,0,4,,,,,,,,,4,10,127,,
63070,note_on,94,0,1,,,,,,,,,11,,,73,0
63070,note_on,0,0,1,,,,,,,,,11,,,76,0
63072,note_on,2,0,1,,,,,,,,,11,,,61,127
63072,note_on,0,0,1,,,,,,,,,11,,,64,127
63072,note_on,96,0,4,,,,,,,,,4,,,57,75
63118,note_on,46,0,4,,,,,,,,,4,,,57,0
63118,note_on,46,0,1,,,,,,,,,11,,,61,0
63118,note_on,0,0,1,,,,,,,,,11,,,64,0
63120,note_on,2,0,4,,,,,,,,,4,,,59,75
63120,note_on,2,0,1,,,,,,,,,11,,,57,127
63136,note_on,160,0,2,,,,,,,,,0,,,57,0
63166,note_on,46,0,4,,,,,,,,,4,,,59,0
63166,note_on,46,0,1,,,,,,,,,11,,,57,0
63168,note_on,0,0,1,,,,,,,,,11,,,64,127
63168,note_on,2,0,1,,,,,,,,,11,,,61,127
63168,note_on,2,0,4,,,,,,,,,4,,,61,75
63214,note_on,46,0,1,,,,,,,,,11,,,61,0
63214,note_on,0,0,1,,,,,,,,,11,,,64,0
63216,note_on,2,0,1,,,,,,,,,11,,,57,127
63262,note_on,46,0,1,,,,,,,,,11,,,57,0
63262,note_on,94,0,4,,,,,,,,,4,,,61,0
63264,note_on,2,0,1,,,,,,,,,11,,,61,127
63264,note_on,0,0,1,,,,,,,,,11,,,64,127
63264,note_on,2,0,4,,,,,,,,,4,,,59,75
63310,note_on,46,0,1,,,,,,,,,11,,,61,0
63310,note_on,0,0,1,,,,,,,,,11,,,64,0
63312,note_on,2,0,1,,,,,,,,,11,,,57,127
63358,note_on,46,0,1,,,,,,,,,11,,,57,0
63358,note_on,94,0,4,,,,,,,,,4,,,59,0
63360,note_on,2,0,1,,,,,,,,,11,,,69,127
63360,note_on,2,0,4,,,,,,,,,4,,,57,75
63454,note_on,94,0,1,,,,,,,,,11,,,69,0
63454,note_on,94,0,4,,,,,,,,,4,,,57,0
63456,note_on,2,0,4,,,,,,,,,4,,,59,75
63456,note_on,2,0,1,,,,,,,,,11,,,68,127
63502,note_on,46,0,1,,,,,,,,,11,,,68,0
63504,note_on,2,0,1,,,,,,,,,11,,,66,127
63550,note_on,46,0,1,,,,,,,,,11,,,66,0
63550,note_on,94,0,4,,,,,,,,,4,,,59,0
63552,note_on,2,0,4,,,,,,,,,4,,,61,75
63552,note_on,2,0,1,,,,,,,,,11,,,64,127
63646,note_on,94,0,1,,,,,,,,,11,,,64,0
63646,note_on,94,0,4,,,,,,,,,4,,,61,0
63648,note_on,2,0,4,,,,,,,,,4,,,62,75
63648,note_on,2,0,1,,,,,,,,,11,,,62,127
63648,note_on,0,0,1,,,,,,,,,11,,,66,127
63742,note_on,94,0,1,,,,,,,,,11,,,62,0
63742,note_on,0,0,1,,,,,,,,,11,,,66,0
63742,note_on,94,0,4,,,,,,,,,4,,,62,0
63744,note_on,2,0,1,,,,,,,,,11,,,61,127
63744,note_on,0,0,1,,,,,,,,,11,,,64,127
63744,note_on,2,0,4,,,,,,,,,4,,,57,75
63838,note_on,94,0,1,,,,,,,,,11,,,61,0
63838,note_on,0,0,1,,,,,,,,,11,,,64,0
63838,note_on,94,0,4,,,,,,,,,4,,,57,0
63840,note_on,2,0,1,,,,,,,,,11,,,61,127
63840,note_on,0,0,1,,,,,,,,,11,,,64,127
63840,note_on,2,0,4,,,,,,,,,4,,,57,75
63886,note_on,46,0,4,,,,,,,,,4,,,57,0
63886,note_on,46,0,1,,,,,,,,,11,,,61,0
63886,note_on,0,0,1,,,,,,,,,11,,,64,0
63888,note_on,2,0,1,,,,,,,,,11,,,57,127
63888,note_on,2,0,4,,,,,,,,,4,,,59,75
63934,note_on,46,0,4,,,,,,,,,4,,,59,0
63934,note_on,46,0,1,,,,,,,,,11,,,57,0
63936,note_on,2,0,1,,,,,,,,,11,,,61,127
63936,note_on,2,0,4,,,,,,,,,4,,,61,75
63936,note_on,0,0,1,,,,,,,,,11,,,64,127
63982,note_on,46,0,1,,,,,,,,,11,,,61,0
63982,note_on,0,0,1,,,,,,,,,11,,,64,0
63984,note_on,2,0,1,,,,,,,,,11,,,57,127
64030,note_on,46,0,1,,,,,,,,,11,,,57,0
64030,note_on,94,0,4,,,,,,,,,4,,,61,0
64032,note_on,2,0,1,,,,,,,,,11,,,61,127
64032,note_on,0,0,1,,,,,,,,,11,,,64,127
64032,note_on,2,0,4,,,,,,,,,4,,,59,75
64078,note_on,0,0,1,,,,,,,,,11,,,64,0
64078,note_on,46,0,1,,,,,,,,,11,,,61,0
64080,note_on,2,0,1,,,,,,,,,11,,,57,127
64126,note_on,46,0,1,,,,,,,,,11,,,57,0
64126,note_on,94,0,4,,,,,,,,,4,,,59,0
64128,note_on,2,0,1,,,,,,,,,11,,,69,127
64128,note_on,2,0,4,,,,,,,,,4,,,57,75
64222,note_on,94,0,1,,,,,,,,,11,,,69,0
64222,note_on,94,0,4,,,,,,,,,4,,,57,0
64224,note_on,2,0,1,,,,,,,,,11,,,68,127
64224,note_on,2,0,4,,,,,,,,,4,,,59,75
64270,note_on,46,0,1,,,,,,,,,11,,,68,0
64272,note_on,2,0,1,,,,,,,,,11,,,66,127
64318,note_on,46,0,1,,,,,,,,,11,,,66,0
64318,note_on,94,0,4,,,,,,,,,4,,,59,0
64320,note_on,2,0,4,,,,,,,,,4,,,61,75
64320,note_on,2,0,1,,,,,,,,,11,,,64,127
64414,note_on,94,0,4,,,,,,,,,4,,,61,0
64414,note_on,94,0,1,,,,,,,,,11,,,64,0
64416,note_on,2,0,4,,,,,,,,,4,,,62,75
64416,note_on,0,0,1,,,,,,,,,11,,,66,127
64416,note_on,2,0,1,,,,,,,,,11,,,62,127
64510,note_on,94,0,4,,,,,,,,,4,,,62,0
64510,note_on,0,0,1,,,,,,,,,11,,,66,0
64510,note_on,94,0,1,,,,,,,,,11,,,62,0
64512,note_on,2,0,1,,,,,,,,,11,,,61,127
64512,note_on,0,0,1,,,,,,,,,11,,,64,127
64512,note_on,2,0,4,,,,,,,,,4,,,57,75
64512,note_on,1376,0,2,,,,,,,,,0,,,57,127
64558,note_on,0,0,1,,,,,,,,,11,,,64,0
64558,note_on,46,0,1,,,,,,,,,11,,,61,0
64560,note_on,0,0,1,,,,,,,,,11,,,76,127
64560,note_on,2,0,1,,,,,,,,,11,,,73,127
64606,note_on,46,0,1,,,,,,,,,11,,,73,0
64606,note_on,94,0,2,,,,,,,,,0,,,57,0
64606,note_on,0,0,1,,,,,,,,,11,,,76,0
64608,note_on,0,0,1,,,,,,,,,11,,,76,127
64608,note_on,2,0,2,,,,,,,,,0,,,59,127
64608,note_on,2,0,1,,,,,,,,,11,,,73,127
64654,note_on,0,0,1,,,,,,,,,11,,,76,0
64654,note_on,46,0,1,,,,,,,,,11,,,73,0
64656,note_on,0,0,1,,,,,,,,,11,,,76,127
64656,note_on,2,0,1,,,,,,,,,11,,,73,127
64672,note_on,160,0,4,,,,,,,,,4,,,57,0
64702,note_on,0,0,1,,,,,,,,,11,,,76,0
64702,note_on,46,0,1,,,,,,,,,11,,,73,0
64702,note_on,94,0,2,,,,,,,,,0,,,59,0
64704,note_on,2,0,2,,,,,,,,,0,,,61,127
64704,note_on,2,0,1,,,,,,,,,11,,,73,127
64704,note_on,0,0,1,,,,,,,,,11,,,81,127
64750,note_on,46,0,1,,,,,,,,,11,,,73,0
64750,note_on,0,0,1,,,,,,,,,11,,,81,0
64752,note_on,2,0,1,,,,,,,,,11,,,73,127
64752,note_on,0,0,1,,,,,,,,,11,,,76,127
64798,note_on,94,0,2,,,,,,,,,0,,,61,0
64798,note_on,0,0,1,,,,,,,,,11,,,76,0
64798,note_on,46,0,1,,,,,,,,,11,,,73,0
64800,note_on,2,0,1,,,,,,,,,11,,,73,127
64800,note_on,0,0,1,,,,,,,,,11,,,76,127
64800,note_on,2,0,2,,,,,,,,,0,,,57,127
64846,note_on,46,0,1,,,,,,,,,11,,,73,0
64846,note_on,0,0,1,,,,,,,,,11,,,76,0
64848,note_on,2,0,1,,,,,,,,,11,,,73,127
64848,note_on,0,0,1,,,,,,,,,11,,,76,127
64894,note_on,0,0,1,,,,,,,,,11,,,76,0
64894,note_on,46,0,1,,,,,,,,,11,,,73,0
64894,note_on,94,0,2,,,,,,,,,0,,,57,0
64896,note_on,2,0,2,,,,,,,,,0,,,62,127
64896,note_on,2,0,1,,,,,,,,,11,,,74,127
64896,note_on,0,0,1,,,,,,,,,11,,,78,127
64942,note_on,46,0,1,,,,,,,,,11,,,74,0
64942,note_on,0,0,1,,,,,,,,,11,,,78,0
64944,note_on,2,0,1,,,,,,,,,11,,,74,127
64944,note_on,0,0,1,,,,,,,,,11,,,78,127
64990,note_on,94,0,2,,,,,,,,,0,,,62,0
64990,note_on,46,0,1,,,,,,,,,11,,,74,0
64990,note_on,0,0,1,,,,,,,,,11,,,78,0
64992,note_on,2,0,2,,,,,,,,,0,,,61,127
64992,note_on,2,0,1,,,,,,,,,11,,,74,127
64992,note_on,0,0,1,,,,,,,,,11,,,78,127
65038,note_on,0,0,1,,,,,,,,,11,,,78,0
65038,note_on,46,0,1,,,,,,,,,11,,,74,0
65040,note_on,2,0,1,,,,,,,,,11,,,74,127
65040,note_on,0,0,1,,,,,,,,,11,,,78,127
65086,note_on,46,0,1,,,,,,,,,11,,,74,0
65086,note_on,0,0,1,,,,,,,,,11,,,78,0
65086,note_on,94,0,2,,,,,,,,,0,,,61,0
65088,note_on,2,0,2,,,,,,,,,0,,,62,127
65088,note_on,2,0,1,,,,,,,,,11,,,74,127
65088,note_on,0,0,1,,,,,,,,,11,,,83,127
65134,note_on,0,0,1,,,,,,,,,11,,,83,0
65134,note_on,46,0,1,,,,,,,,,11,,,74,0
65136,note_on,0,0,1,,,,,,,,,11,,,78,127
65136,note_on,2,0,1,,,,,,,,,11,,,74,127
65182,note_on,46,0,1,,,,,,,,,11,,,74,0
65182,note_on,0,0,1,,,,,,,,,11,,,78,0
65182,note_on,94,0,2,,,,,,,,,0,,,62,0
65184,note_on,2,0,2,,,,,,,,,0,,,56,127
65184,note_on,2,0,1,,,,,,,,,11,,,74,127
65184,note_on,0,0,1,,,,,,,,,11,,,78,127
65230,note_on,46,0,1,,,,,,,,,11,,,74,0
65230,note_on,0,0,1,,,,,,,,,11,,,78,0
65232,note_on,0,0,1,,,,,,,,,11,,,78,127
65232,note_on,2,0,1,,,,,,,,,11,,,74,127
65278,note_on,0,0,1,,,,,,,,,11,,,78,0
65278,note_on,46,0,1,,,,,,,,,11,,,74,0
65278,note_on,94,0,2,,,,,,,,,0,,,56,0
65280,note_on,2,0,1,,,,,,,,,11,,,74,127
65280,note_on,0,0,1,,,,,,,,,11,,,80,127
65280,note_on,2,0,2,,,,,,,,,0,,,57,127
65302,note_on,22,0,1,,,,,,,,,11,,,80,0
65304,note_on,2,0,1,,,,,,,,,11,,,78,127
65326,note_on,22,0,1,,,,,,,,,11,,,78,0
65328,note_on,2,0,1,,,,,,,,,11,,,80,127
65350,note_on,22,0,1,,,,,,,,,11,,,80,0
65352,note_on,2,0,1,,,,,,,,,11,,,78,127
65374,note_on,94,0,2,,,,,,,,,0,,,57,0
65376,note_on,2,0,2,,,,,,,,,0,,,59,127
65440,note_on,88,0,1,,,,,,,,,11,,,74,0
65470,note_on,94,0,2,,,,,,,,,0,,,59,0
65470,note_on,30,0,1,,,,,,,,,11,,,78,0
65472,note_on,2,0,2,,,,,,,,,0,,,61,127
65472,note_on,2,0,1,,,,,,,,,11,,,73,127
65472,note_on,0,0,1,,,,,,,,,11,,,76,127
65566,note_on,94,0,2,,,,,,,,,0,,,61,0
65568,note_on,2,0,2,,,,,,,,,0,,,57,127
65632,note_on,160,0,1,,,,,,,,,11,,,73,0
65632,note_on,0,0,1,,,,,,,,,11,,,76,0
65662,note_on,94,0,2,,,,,,,,,0,,,57,0
65664,note_on,992,0,4,,,,,,,,,4,,,57,75
65712,note_on,80,0,1,,,,,,,,,11,,,61,127
65712,note_on,0,0,1,,,,,,,,,11,,,64,127
65758,note_on,94,0,4,,,,,,,,,4,,,57,0
65758,note_on,46,0,1,,,,,,,,,11,,,61,0
65758,note_on,0,0,1,,,,,,,,,11,,,64,0
65760,note_on,2,0,4,,,,,,,,,4,,,59,75
65760,note_on,2,0,1,,,,,,,,,11,,,61,127
65760,note_on,0,0,1,,,,,,,,,11,,,64,127
65806,note_on,46,0,1,,,,,,,,,11,,,61,0
65806,note_on,0,0,1,,,,,,,,,11,,,64,0
65808,note_on,2,0,1,,,,,,,,,11,,,61,127
65808,note_on,0,0,1,,,,,,,,,11,,,64,127
65854,note_on,0,0,1,,,,,,,,,11,,,64,0
65854,note_on,46,0,1,,,,,,,,,11,,,61,0
65854,note_on,94,0,4,,,,,,,,,4,,,59,0
65856,note_on,0,0,1,,,,,,,,,11,,,69,127
65856,note_on,2,0,1,,,,,,,,,11,,,61,127
65856,note_on,2,0,4,,,,,,,,,4,,,61,75
65902,note_on,0,0,1,,,,,,,,,11,,,69,0
65902,note_on,46,0,1,,,,,,,,,11,,,61,0
65904,note_on,2,0,1,,,,,,,,,11,,,61,127
65904,note_on,0,0,1,,,,,,,,,11,,,64,127
65950,note_on,0,0,1,,,,,,,,,11,,,64,0
65950,note_on,94,0,4,,,,,,,,,4,,,61,0
65950,note_on,46,0,1,,,,,,,,,11,,,61,0
65952,note_on,2,0,4,,,,,,,,,4,,,59,75
65952,note_on,2,0,1,,,,,,,,,11,,,61,127
65952,note_on,0,0,1,,,,,,,,,11,,,64,127
65998,note_on,46,0,1,,,,,,,,,11,,,61,0
65998,note_on,0,0,1,,,,,,,,,11,,,64,0
66000,note_on,2,0,1,,,,,,,,,11,,,61,127
66000,note_on,0,0,1,,,,,,,,,11,,,64,127
66046,note_on,46,0,1,,,,,,,,,11,,,61,0
66046,note_on,94,0,4,,,,,,,,,4,,,59,0
66046,note_on,0,0,1,,,,,,,,,11,,,64,0
66048,note_on,2,0,1,,,,,,,,,11,,,62,127
66048,note_on,0,0,1,,,,,,,,,11,,,66,127
66048,note_on,2,0,4,,,,,,,,,4,,,62,75
66094,note_on,46,0,1,,,,,,,,,11,,,62,0
66094,note_on,0,0,1,,,,,,,,,11,,,66,0
66096,note_on,2,0,1,,,,,,,,,11,,,62,127
66096,note_on,0,0,1,,,,,,,,,11,,,66,127
66142,note_on,94,0,4,,,,,,,,,4,,,62,0
66142,note_on,0,0,1,,,,,,,,,11,,,66,0
66142,note_on,46,0,1,,,,,,,,,11,,,62,0
66144,note_on,2,0,1,,,,,,,,,11,,,62,127
66144,note_on,0,0,1,,,,,,,,,11,,,66,127
66144,note_on,2,0,4,,,,,,,,,4,,,61,75
66190,note_on,46,0,1,,,,,,,,,11,,,62,0
66190,note_on,0,0,1,,,,,,,,,11,,,66,0
66192,note_on,2,0,1,,,,,,,,,11,,,62,127
66192,note_on,0,0,1,,,,,,,,,11,,,66,127
66238,note_on,94,0,4,,,,,,,,,4,,,61,0
66238,note_on,0,0,1,,,,,,,,,11,,,66,0
66238,note_on,46,0,1,,,,,,,,,11,,,62,0
66240,note_on,2,0,4,,,,,,,,,4,,,62,75
66240,note_on,0,0,1,,,,,,,,,11,,,71,127
66240,note_on,2,0,1,,,,,,,,,11,,,62,127
66286,note_on,0,0,1,,,,,,,,,11,,,71,0
66286,note_on,46,0,1,,,,,,,,,11,,,62,0
66288,note_on,0,0,1,,,,,,,,,11,,,66,127
66288,note_on,2,0,1,,,,,,,,,11,,,62,127
66334,note_on,94,0,4,,,,,,,,,4,,,62,0
66334,note_on,0,0,1,,,,,,,,,11,,,66,0
66334,note_on,46,0,1,,,,,,,,,11,,,62,0
66336,note_on,0,0,1,,,,,,,,,11,,,66,127
66336,note_on,2,0,1,,,,,,,,,11,,,62,127
66336,note_on,2,0,4,,,,,,,,,4,,,56,75
66382,note_on,0,0,1,,,,,,,,,11,,,66,0
66382,note_on,46,0,1,,,,,,,,,11,,,62,0
66384,note_on,0,0,1,,,,,,,,,11,,,66,127
66384,note_on,2,0,1,,,,,,,,,11,,,62,127
66430,note_on,0,0,1,,,,,,,,,11,,,66,0
66430,note_on,46,0,1,,,,,,,,,11,,,62,0
66430,note_on,94,0,4,,,,,,,,,4,,,56,0
66432,note_on,2,0,4,,,,,,,,,4,,,57,75
66432,note_on,2,0,1,,,,,,,,,11,,,62,127
66432,note_on,0,0,1,,,,,,,,,11,,,68,127
66454,note_on,22,0,1,,,,,,,,,11,,,62,0
66454,note_on,0,0,1,,,,,,,,,11,,,68,0
66456,note_on,2,0,1,,,,,,,,,11,,,66,127
66478,note_on,22,0,1,,,,,,,,,11,,,66,0
66480,note_on,2,0,1,,,,,,,,,11,,,68,127
66502,note_on,22,0,1,,,,,,,,,11,,,68,0
66504,note_on,2,0,1,,,,,,,,,11,,,66,127
66526,note_on,94,0,4,,,,,,,,,4,,,57,0
66528,note_on,2,0,4,,,,,,,,,4,,,59,75
66622,note_on,94,0,4,,,,,,,,,4,,,59,0
66622,note_on,118,0,1,,,,,,,,,11,,,66,0
66624,note_on,2,0,1,,,,,,,,,11,,,61,127
66624,note_on,0,0,1,,,,,,,,,11,,,64,127
66624,note_on,2,0,4,,,,,,,,,4,,,61,75
66718,note_on,94,0,4,,,,,,,,,4,,,61,0
66720,note_on,2,0,4,,,,,,,,,4,,,57,75
66784,note_on,160,0,1,,,,,,,,,11,,,61,0
66784,note_on,0,0,1,,,,,,,,,11,,,64,0
66814,note_on,94,0,4,,,,,,,,,4,,,57,0
66816,note_on,32,0,1,,,,,,,,,11,,,76,127
66862,note_on,46,0,1,,,,,,,,,11,,,76,0
66864,note_on,2,0,1,,,,,,,,,11,,,73,127
66910,note_on,46,0,1,,,,,,,,,11,,,73,0
66912,note_on,1250,0,2,,,,,,,,,0,,,61,127
66912,note_on,2,0,1,,,,,,,,,11,,,71,127
66958,note_on,46,0,1,,,,,,,,,11,,,71,0
66960,note_on,2,0,1,,,,,,,,,11,,,69,127
67006,note_on,94,0,2,,,,,,,,,0,,,61,0
67006,note_on,46,0,1,,,,,,,,,11,,,69,0
67008,note_on,2,0,2,,,,,,,,,0,,,64,127
67008,note_on,2,0,1,,,,,,,,,11,,,79,127
67102,note_on,94,0,2,,,,,,,,,0,,,64,0
67104,note_on,2,0,2,,,,,,,,,0,,,57,127
67168,note_on,160,0,1,,,,,,,,,11,,,79,0
67198,note_on,94,0,2,,,,,,,,,0,,,57,0
67200,note_on,32,0,1,,,,,,,,,11,,,78,127
67246,note_on,46,0,1,,,,,,,,,11,,,78,0
67248,note_on,2,0,1,,,,,,,,,11,,,75,127
67294,note_on,46,0,1,,,,,,,,,11,,,75,0
67296,note_on,2,0,1,,,,,,,,,11,,,73,127
67296,note_on,98,0,2,,,,,,,,,0,,,63,127
67342,note_on,46,0,1,,,,,,,,,11,,,73,0
67344,note_on,2,0,1,,,,,,,,,11,,,71,127
67390,note_on,94,0,2,,,,,,,,,0,,,63,0
67390,note_on,46,0,1,,,,,,,,,11,,,71,0
67392,note_on,2,0,2,,,,,,,,,0,,,66,127
67392,note_on,2,0,1,,,,,,,,,11,,,81,127
67486,note_on,94,0,2,,,,,,,,,0,,,66,0
67488,note_on,2,0,2,,,,,,,,,0,,,59,127
67552,note_on,160,0,1,,,,,,,,,11,,,81,0
67582,note_on,94,0,2,,,,,,,,,0,,,59,0
67584,note_on,32,0,1,,,,,,,,,11,,,80,127
67630,note_on,46,0,1,,,,,,,,,11,,,80,0
67632,note_on,2,0,1,,,,,,,,,11,,,77,127
67678,note_on,46,0,1,,,,,,,,,11,,,77,0
67680,note_on,98,0,2,,,,,,,,,0,,,65,127
67680,note_on,2,0,1,,,,,,,,,11,,,75,127
67726,note_on,46,0,1,,,,,,,,,11,,,75,0
67728,note_on,2,0,1,,,,,,,,,11,,,73,127
67774,note_on,46,0,1,,,,,,,,,11,,,73,0
67774,note_on,94,0,2,,,,,,,,,0,,,65,0
67776,note_on,2,0,1,,,,,,,,,11,,,83,127
67776,note_on,2,0,2,,,,,,,,,0,,,68,127
67870,note_on,94,0,2,,,,,,,,,0,,,68,0
67872,note_on,2,0,2,,,,,,,,,0,,,61,127
67936,note_on,160,0,1,,,,,,,,,11,,,83,0
67966,note_on,94,0,2,,,,,,,,,0,,,61,0
67968,note_on,32,0,1,,,,,,,,,11,,,81,127
68014,note_on,46,0,1,,,,,,,,,11,,,81,0
68016,note_on,2,0,1,,,,,,,,,11,,,78,127
68062,note_on,46,0,1,,,,,,,,,11,,,78,0
68064,note_on,2,0,1,,,,,,,,,11,,,76,127
68064,note_on,98,0,2,,,,,,,,,0,,,66,127
68110,note_on,46,0,1,,,,,,,,,11,,,76,0
68112,note_on,2,0,1,,,,,,,,,11,,,74,127
68158,note_on,46,0,1,,,,,,,,,11,,,74,0
68158,note_on,94,0,2,,,,,,,,,0,,,66,0
68160,note_on,2,0,1,,,,,,,,,11,,,84,127
68160,note_on,2,0,2,,,,,,,,,0,,,69,127
68254,note_on,94,0,2,,,,,,,,,0,,,69,0
68256,note_on,2,0,2,,,,,,,,,0,,,62,127
68320,note_on,160,0,1,,,,,,,,,11,,,84,0
68350,note_on,94,0,2,,,,,,,,,0,,,62,0
68352,note_on,32,0,1,,,,,,,,,11,,,83,127
68398,note_on,46,0,1,,,,,,,,,11,,,83,0
68400,note_on,2,0,1,,,,,,,,,11,,,80,127
68446,note_on,46,0,1,,,,,,,,,11,,,80,0
68448,note_on,2,0,1,,,,,,,,,11,,,78,127
68448,note_on,98,0,2,,,,,,,,,0,,,68,127
68494,note_on,46,0,1,,,,,,,,,11,,,78,0
68496,note_on,2,0,1,,,,,,,,,11,,,76,127
68542,note_on,94,0,2,,,,,,,,,0,,,68,0
68542,note_on,46,0,1,,,,,,,,,11,,,76,0
68544,note_on,2,0,2,,,,,,,,,0,,,71,127
68544,note_on,2,0,1,,,,,,,,,11,,,86,127
68638,note_on,94,0,2,,,,,,,,,0,,,71,0
68640,note_on,2,0,2,,,,,,,,,0,,,64,127
68704,note_on,160,0,1,,,,,,,,,11,,,86,0
68734,note_on,94,0,2,,,,,,,,,0,,,64,0
68736,note_on,32,0,1,,,,,,,,,11,,,85,127
68832,note_on,98,0,2,,,,,,,,,0,,,69,127
68896,note_on,160,0,1,,,,,,,,,11,,,85,0
68926,note_on,94,0,2,,,,,,,,,0,,,69,0
68928,note_on,2,0,2,,,,,,,,,0,,,73,127
69022,note_on,94,0,2,,,,,,,,,0,,,73,0
69024,note_on,0,0,1,,,,,,,,,11,,,76,127
69024,note_on,2,0,2,,,,,,,,,0,,,69,127
69024,note_on,128,0,1,,,,,,,,,11,,,73,127
69118,note_on,0,0,1,,,,,,,,,11,,,76,0
69118,note_on,94,0,1,,,,,,,,,11,,,73,0
69118,note_on,94,0,2,,,,,,,,,0,,,69,0
69120,note_on,2,0,1,,,,,,,,,11,,,74,127
69120,note_on,0,0,1,,,,,,,,,11,,,78,127
69214,note_on,94,0,1,,,,,,,,,11,,,74,0
69214,note_on,0,0,1,,,,,,,,,11,,,78,0
69216,note_on,2,0,1,,,,,,,,,11,,,73,127
69216,note_on,0,0,1,,,,,,,,,11,,,76,127
69216,note_on,98,0,2,,,,,,,,,0,,,57,127
69310,note_on,94,0,1,,,,,,,,,11,,,73,0
69310,note_on,94,0,2,,,,,,,,,0,,,57,0
69310,note_on,0,0,1,,,,,,,,,11,,,76,0
69312,note_on,2,0,2,,,,,,,,,0,,,61,127
69406,note_on,94,0,2,,,,,,,,,0,,,61,0
69408,note_on,2,0,2,,,,,,,,,0,,,57,127
69408,note_on,0,0,1,,,,,,,,,11,,,64,127
69408,note_on,98,0,1,,,,,,,,,11,,,61,127
69502,note_on,94,0,2,,,,,,,,,0,,,57,0
69502,note_on,94,0,1,,,,,,,,,11,,,61,0
69502,note_on,0,0,1,,,,,,,,,11,,,64,0
69504,note_on,2,0,1,,,,,,,,,11,,,62,127
69504,note_on,0,0,1,,,,,,,,,11,,,66,127
69598,note_on,94,0,1,,,,,,,,,11,,,62,0
69598,note_on,0,0,1,,,,,,,,,11,,,66,0
69600,note_on,2786,0,4,,,,,,,,,4,,,57,75
69600,note_on,2,0,1,,,,,,,,,11,,,61,127
69600,note_on,0,0,1,,,,,,,,,11,,,64,127
69694,note_on,94,0,4,,,,,,,,,4,,,57,0
69694,note_on,94,0,1,,,,,,,,,11,,,61,0
69694,note_on,0,0,1,,,,,,,,,11,,,64,0
69696,note_on,2,0,4,,,,,,,,,4,,,61,75
69744,note_on,50,0,1,,,,,,,,,11,,,61,127
69744,note_on,0,0,1,,,,,,,,,11,,,64,127
69790,note_on,46,0,1,,,,,,,,,11,,,61,0
69790,note_on,0,0,1,,,,,,,,,11,,,64,0
69790,note_on,94,0,4,,,,,,,,,4,,,61,0
69792,note_on,0,0,1,,,,,,,,,11,,,64,127
69792,note_on,2,0,1,,,,,,,,,11,,,61,127
69792,note_on,2,0,4,,,,,,,,,4,,,57,75
69838,note_on,46,0,1,,,,,,,,,11,,,61,0
69838,note_on,0,0,1,,,,,,,,,11,,,64,0
69840,note_on,0,0,1,,,,,,,,,11,,,64,127
69840,note_on,2,0,1,,,,,,,,,11,,,61,127
69886,note_on,0,0,1,,,,,,,,,11,,,64,0
69886,note_on,94,0,4,,,,,,,,,4,,,57,0
69886,note_on,46,0,1,,,,,,,,,11,,,61,0
69888,note_on,0,0,1,,,,,,,,,11,,,66,127
69888,note_on,2,0,1,,,,,,,,,11,,,62,127
69982,note_on,94,0,1,,,,,,,,,11,,,62,0
69982,note_on,0,0,1,,,,,,,,,11,,,66,0
69984,note_on,2,0,1,,,,,,,,,11,,,61,127
69984,note_on,0,0,1,,,,,,,,,11,,,64,127
69984,note_on,482,0,2,,,,,,,,,0,,,57,127
70078,note_on,0,0,1,,,,,,,,,11,,,64,0
70078,note_on,94,0,2,,,,,,,,,0,,,57,0
70078,note_on,94,0,1,,,,,,,,,11,,,61,0
70080,note_on,2,0,2,,,,,,,,,0,,,61,127
70128,note_on,50,0,1,,,,,,,,,11,,,73,127
70128,note_on,0,0,1,,,,,,,,,11,,,76,127
70174,note_on,46,0,1,,,,,,,,,11,,,73,0
70174,note_on,0,0,1,,,,,,,,,11,,,76,0
70174,note_on,94,0,2,,,,,,,,,0,,,61,0
70176,note_on,0,0,1,,,,,,,,,11,,,76,127
70176,note_on,2,0,1,,,,,,,,,11,,,73,127
70176,note_on,2,0,2,,,,,,,,,0,,,57,127
70222,note_on,46,0,1,,,,,,,,,11,,,73,0
70222,note_on,0,0,1,,,,,,,,,11,,,76,0
70224,note_on,2,0,1,,,,,,,,,11,,,73,127
70224,note_on,0,0,1,,,,,,,,,11,,,76,127
70270,note_on,94,0,2,,,,,,,,,0,,,57,0
70270,note_on,46,0,1,,,,,,,,,11,,,73,0
70270,note_on,0,0,1,,,,,,,,,11,,,76,0
70272,note_on,2,0,1,,,,,,,,,11,,,74,127
70272,note_on,0,0,1,,,,,,,,,11,,,78,127
70366,note_on,0,0,1,,,,,,,,,11,,,78,0
70366,note_on,94,0,1,,,,,,,,,11,,,74,0
70368,note_on,482,0,4,,,,,,,,,4,,,57,75
70368,note_on,2,0,1,,,,,,,,,11,,,73,127
70368,note_on,0,0,1,,,,,,,,,11,,,76,127
70462,note_on,0,0,1,,,,,,,,,11,,,76,0
70462,note_on,94,0,1,,,,,,,,,11,,,73,0
70462,note_on,94,0,4,,,,,,,,,4,,,57,0
70464,note_on,2,0,4,,,,,,,,,4,,,61,75
70558,note_on,94,0,4,,,,,,,,,4,,,61,0
70560,note_on,290,0,2,,,,,,,,,0,,,69,127
70560,note_on,98,0,1,,,,,,,,,11,,,76,127
70560,note_on,2,0,4,,,,,,,,,4,,,57,75
70654,note_on,94,0,1,,,,,,,,,11,,,76,0
70654,note_on,94,0,4,,,,,,,,,4,,,57,0
70654,note_on,94,0,2,,,,,,,,,0,,,69,0
70656,note_on,2,0,1,,,,,,,,,11,,,78,127
70656,note_on,2,0,2,,,,,,,,,0,,,62,127
70688,note_on,32,0,1,,,,,,,,,11,,,78,0
70688,note_on,0,0,1,,,,,,,,,11,,,76,127
70720,note_on,32,0,1,,,,,,,,,11,,,76,0
70720,note_on,0,0,1,,,,,,,,,11,,,74,127
70750,note_on,94,0,2,,,,,,,,,0,,,62,0
70752,note_on,2,0,2,,,,,,,,,0,,,64,127
70752,note_on,0,0,1,,,,,,,,,11,,,80,127
70752,note_on,32,0,1,,,,,,,,,11,,,74,0
70784,note_on,0,0,1,,,,,,,,,11,,,78,127
70784,note_on,32,0,1,,,,,,,,,11,,,80,0
70816,note_on,32,0,1,,,,,,,,,11,,,78,0
70816,note_on,0,0,1,,,,,,,,,11,,,76,127
70846,note_on,94,0,2,,,,,,,,,0,,,64,0
70848,note_on,0,0,1,,,,,,,,,11,,,81,127
70848,note_on,2,0,2,,,,,,,,,0,,,66,127
70848,note_on,32,0,1,,,,,,,,,11,,,76,0
70880,note_on,32,0,1,,,,,,,,,11,,,81,0
70880,note_on,0,0,1,,,,,,,,,11,,,80,127
70912,note_on,32,0,1,,,,,,,,,11,,,80,0
70912,note_on,0,0,1,,,,,,,,,11,,,78,127
70942,note_on,94,0,2,,,,,,,,,0,,,66,0
70944,note_on,2,0,2,,,,,,,,,0,,,68,127
70944,note_on,32,0,1,,,,,,,,,11,,,78,0
70944,note_on,0,0,1,,,,,,,,,11,,,83,127
70976,note_on,32,0,1,,,,,,,,,11,,,83,0
70976,note_on,0,0,1,,,,,,,,,11,,,81,127
71008,note_on,32,0,1,,,,,,,,,11,,,81,0
71008,note_on,0,0,1,,,,,,,,,11,,,80,127
71038,note_on,94,0,2,,,,,,,,,0,,,68,0
71040,note_on,2,0,2,,,,,,,,,0,,,69,127
71040,note_on,0,0,1,,,,,,,,,11,,,85,127
71040,note_on,32,0,1,,,,,,,,,11,,,80,0
71072,note_on,32,0,1,,,,,,,,,11,,,85,0
71072,note_on,0,0,1,,,,,,,,,11,,,83,127
71104,note_on,32,0,1,,,,,,,,,11,,,83,0
71104,note_on,0,0,1,,,,,,,,,11,,,81,127
71134,note_on,94,0,2,,,,,,,,,0,,,69,0
71136,note_on,32,0,1,,,,,,,,,11,,,81,0
71136,note_on,2,0,2,,,,,,,,,0,,,71,127
71136,note_on,0,0,1,,,,,,,,,11,,,86,127
71168,note_on,32,0,1,,,,,,,,,11,,,86,0
71168,note_on,0,0,1,,,,,,,,,11,,,85,127
71200,note_on,32,0,1,,,,,,,,,11,,,85,0
71200,note_on,0,0,1,,,,,,,,,11,,,83,127
71230,note_on,94,0,2,,,,,,,,,0,,,71,0
71232,note_on,32,0,1,,,,,,,,,11,,,83,0
71232,note_on,2,0,2,,,,,,,,,0,,,73,127
71232,note_on,0,0,1,,,,,,,,,11,,,88,127
71264,note_on,0,0,1,,,,,,,,,11,,,86,127
71264,note_on,32,0,1,,,,,,,,,11,,,88,0
71296,note_on,32,0,1,,,,,,,,,11,,,86,0
71296,note_on,0,0,1,,,,,,,,,11,,,85,127
71326,note_on,94,0,2,,,,,,,,,0,,,73,0
71328,note_on,32,0,1,,,,,,,,,11,,,85,0
71328,note_on,0,0,1,,,,,,,,,11,,,90,127
71328,note_on,2,0,2,,,,,,,,,0,,,74,127
71360,note_on,32,0,1,,,,,,,,,11,,,90,0
71360,note_on,0,0,1,,,,,,,,,11,,,88,127
71392,note_on,0,0,1,,,,,,,,,11,,,86,127
71392,note_on,32,0,1,,,,,,,,,11,,,88,0
71422,note_on,94,0,2,,,,,,,,,0,,,74,0
71424,note_on,0,0,1,,,,,,,,,11,,,92,127
71424,note_on,32,0,1,,,,,,,,,11,,,86,0
71424,note_on,2,0,2,,,,,,,,,0,,,76,127
71456,note_on,32,0,1,,,,,,,,,11,,,92,0
71456,note_on,0,0,1,,,,,,,,,11,,,90,127
71488,note_on,32,0,1,,,,,,,,,11,,,90,0
71488,note_on,0,0,1,,,,,,,,,11,,,88,127
71518,note_on,94,0,2,,,,,,,,,0,,,76,0
71520,note_on,2,0,2,,,,,,,,,0,,,73,127
71520,note_on,32,0,1,,,,,,,,,11,,,88,0
71520,note_on,0,0,1,,,,,,,,,11,,,93,127
71566,note_on,46,0,2,,,,,,,,,0,,,73,0
71568,note_on,2,0,2,,,,,,,,,0,,,69,127
71568,note_on,0,0,1,,,,,,,,,11,,,81,127
71568,note_on,48,0,1,,,,,,,,,11,,,93,0
71614,note_on,46,0,2,,,,,,,,,0,,,69,0
71616,note_on,48,0,1,,,,,,,,,11,,,81,0
71616,note_on,2,0,2,,,,,,,,,0,,,76,127
71616,note_on,0,0,1,,,,,,,,,11,,,85,127
71640,note_on,0,0,1,,,,,,,,,11,,,83,127
71640,note_on,24,0,1,,,,,,,,,11,,,85,0
71664,note_on,0,0,1,,,,,,,,,11,,,85,127
71664,note_on,24,0,1,,,,,,,,,11,,,83,0
71688,note_on,0,0,1,,,,,,,,,11,,,83,127
71688,note_on,24,0,1,,,,,,,,,11,,,85,0
71710,note_on,94,0,2,,,,,,,,,0,,,76,0
71712,note_on,2,0,2,,,,,,,,,0,,,64,127
71806,note_on,94,0,2,,,,,,,,,0,,,64,0
71808,note_on,0,0,1,,,,,,,,,11,,,81,127
71808,note_on,120,0,1,,,,,,,,,11,,,83,0
71808,note_on,2,0,2,,,,,,,,,0,,,57,127
71904,note_on,1250,0,4,,,,,,,,,4,,,57,75
71968,note_on,160,0,1,,,,,,,,,11,,,81,0
71968,note_on,160,0,2,,,,,,,,,0,,,57,0
71998,note_on,94,0,4,,,,,,,,,4,,,57,0
72000,note_on,2,0,4,,,,,,,,,4,,,61,75
72094,note_on,94,0,4,,,,,,,,,4,,,61,0
72096,note_on,2,0,4,,,,,,,,,4,,,57,75
72096,note_on,128,0,1,,,,,,,,,11,,,64,127
72190,note_on,94,0,4,,,,,,,,,4,,,57,0
72190,note_on,94,0,1,,,,,,,,,11,,,64,0
72192,note_on,2,0,4,,,,,,,,,4,,,50,75
72192,note_on,2,0,1,,,,,,,,,11,,,66,127
72224,note_on,0,0,1,,,,,,,,,11,,,64,127
72224,note_on,32,0,1,,,,,,,,,11,,,66,0
72256,note_on,0,0,1,,,,,,,,,11,,,62,127
72256,note_on,32,0,1,,,,,,,,,11,,,64,0
72286,note_on,94,0,4,,,,,,,,,4,,,50,0
72288,note_on,0,0,1,,,,,,,,,11,,,68,127
72288,note_on,32,0,1,,,,,,,,,11,,,62,0
72288,note_on,2,0,4,,,,,,,,,4,,,52,75
72320,note_on,32,0,1,,,,,,,,,11,,,68,0
72320,note_on,0,0,1,,,,,,,,,11,,,66,127
72352,note_on,0,0,1,,,,,,,,,11,,,64,127
72352,note_on,32,0,1,,,,,,,,,11,,,66,0
72382,note_on,94,0,4,,,,,,,,,4,,,52,0
72384,note_on,32,0,1,,,,,,,,,11,,,64,0
72384,note_on,0,0,1,,,,,,,,,11,,,69,127
72384,note_on,2,0,4,,,,,,,,,4,,,54,75
72416,note_on,32,0,1,,,,,,,,,11,,,69,0
72416,note_on,0,0,1,,,,,,,,,11,,,68,127
72448,note_on,0,0,1,,,,,,,,,11,,,66,127
72448,note_on,32,0,1,,,,,,,,,11,,,68,0
72478,note_on,94,0,4,,,,,,,,,4,,,54,0
72480,note_on,2,0,4,,,,,,,,,4,,,56,75
72480,note_on,0,0,1,,,,,,,,,11,,,71,127
72480,note_on,32,0,1,,,,,,,,,11,,,66,0
72512,note_on,0,0,1,,,,,,,,,11,,,69,127
72512,note_on,32,0,1,,,,,,,,,11,,,71,0
72544,note_on,0,0,1,,,,,,,,,11,,,68,127
72544,note_on,32,0,1,,,,,,,,,11,,,69,0
72574,note_on,94,0,4,,,,,,,,,4,,,56,0
72576,note_on,0,0,1,,,,,,,,,11,,,73,127
72576,note_on,32,0,1,,,,,,,,,11,,,68,0
72576,note_on,2,0,4,,,,,,,,,4,,,57,75
72608,note_on,32,0,1,,,,,,,,,11,,,73,0
72608,note_on,0,0,1,,,,,,,,,11,,,71,127
72640,note_on,32,0,1,,,,,,,,,11,,,71,0
72640,note_on,0,0,1,,,,,,,,,11,,,69,127
72670,note_on,94,0,4,,,,,,,,,4,,,57,0
72672,note_on,32,0,1,,,,,,,,,11,,,69,0
72672,note_on,0,0,1,,,,,,,,,11,,,74,127
72672,note_on,2,0,4,,,,,,,,,4,,,59,75
72704,note_on,32,0,1,,,,,,,,,11,,,74,0
72704,note_on,0,0,1,,,,,,,,,11,,,73,127
72736,note_on,32,0,1,,,,,,,,,11,,,73,0
72736,note_on,0,0,1,,,,,,,,,11,,,71,127
72766,note_on,94,0,4,,,,,,,,,4,,,59,0
72768,note_on,2,0,4,,,,,,,,,4,,,61,75
72768,note_on,32,0,1,,,,,,,,,11,,,71,0
72768,note_on,0,0,1,,,,,,,,,11,,,76,127
72800,note_on,32,0,1,,,,,,,,,11,,,76,0
72800,note_on,0,0,1,,,,,,,,,11,,,74,127
72832,note_on,0,0,1,,,,,,,,,11,,,73,127
72832,note_on,32,0,1,,,,,,,,,11,,,74,0
72862,note_on,94,0,4,,,,,,,,,4,,,61,0
72864,note_on,32,0,1,,,,,,,,,11,,,73,0
72864,note_on,0,0,1,,,,,,,,,11,,,78,127
72864,note_on,2,0,4,,,,,,,,,4,,,62,75
72896,note_on,32,0,1,,,,,,,,,11,,,78,0
72896,note_on,0,0,1,,,,,,,,,11,,,76,127
72928,note_on,32,0,1,,,,,,,,,11,,,76,0
72928,note_on,0,0,1,,,,,,,,,11,,,74,127
72958,note_on,94,0,4,,,,,,,,,4,,,62,0
72960,note_on,32,0,1,,,,,,,,,11,,,74,0
72960,note_on,0,0,1,,,,,,,,,11,,,80,127
72960,note_on,2,0,4,,,,,,,,,4,,,64,75
72992,note_on,32,0,1,,,,,,,,,11,,,80,0
72992,note_on,0,0,1,,,,,,,,,11,,,78,127
73024,note_on,32,0,1,,,,,,,,,11,,,78,0
73024,note_on,0,0,1,,,,,,,,,11,,,76,127
73054,note_on,94,0,4,,,,,,,,,4,,,64,0
73056,note_on,32,0,1,,,,,,,,,11,,,76,0
73056,note_on,0,0,1,,,,,,,,,11,,,81,127
73056,note_on,2,0,4,,,,,,,,,4,,,61,75
73102,note_on,46,0,1,,,,,,,,,11,,,81,0
73102,note_on,46,0,4,,,,,,,,,4,,,61,0
73104,note_on,2,0,1,,,,,,,,,11,,,69,127
73104,note_on,2,0,4,,,,,,,,,4,,,57,75
73150,note_on,46,0,4,,,,,,,,,4,,,57,0
73150,note_on,46,0,1,,,,,,,,,11,,,69,0
73152,set_tempo,20544,1,0,,,,,,480000,,,,,,,
73152,note_on,2,0,4,,,,,,,,,4,,,64,75
73152,note_on,2,0,1,,,,,,,,,11,,,64,127
73152,note_on,0,0,1,,,,,,,,,11,,,73,127
73174,note_on,22,0,1,,,,,,,,,11,,,73,0
73176,note_on,2,0,1,,,,,,,,,11,,,71,127
73198,note_on,22,0,1,,,,,,,,,11,,,71,0
73200,note_on,2,0,1,,,,,,,,,11,,,73,127
73222,note_on,22,0,1,,,,,,,,,11,,,73,0
73224,note_on,2,0,1,,,,,,,,,11,,,71,127
73246,note_on,94,0,4,,,,,,,,,4,,,64,0
73248,note_on,2,0,4,,,,,,,,,4,,,52,75
73294,note_on,70,0,1,,,,,,,,,11,,,71,0
73296,note_on,2,0,1,,,,,,,,,11,,,69,127
73296,set_tempo,144,1,0,,,,,,500000,,,,,,,
73312,note_on,16,0,1,,,,,,,,,11,,,64,0
73342,note_on,30,0,1,,,,,,,,,11,,,69,0
73342,note_on,94,0,4,,,,,,,,,4,,,52,0
73344,set_tempo,48,1,0,,,,,,200000,,,,,,,
74448,note_on,0,0,3,,,,,,,,,3,,,69,127
74448,note_on,0,0,6,,,,,,,,,8,,,33,75
74448,control_change,13010,0,5,,,,,,,,,6,10,0,,
74448,control_change,14576,0,6,,,,,,,,,8,10,0,,
74448,control_change,14576,0,3,,,,,,,,,3,10,0,,
74448,control_change,2480,0,2,,,,,,,,,0,10,0,,
74448,note_on,0,0,2,,,,,,,,,0,,,73,127
74448,note_on,0,0,5,,,,,,,,,6,,,45,60
74448,end_of_track,0,1,0,,,,,,,,,,,,,
74448,set_tempo,1104,1,0,,,,,,1333333,,,,,,,
74448,note_on,1106,0,1,,,,,,,,,11,,,73,127
74448,control_change,1106,0,4,,,,,,,,,4,10,0,,
74448,note_on,0,0,4,,,,,,,,,4,,,64,75
74494,note_on,46,0,4,,,,,,,,,4,,,64,0
74494,note_on,46,0,6,,,,,,,,,8,,,33,0
74494,note_on,46,0,3,,,,,,,,,3,,,69,0
74494,note_on,46,0,1,,,,,,,,,11,,,73,0
74494,note_on,46,0,2,,,,,,,,,0,,,73,0
74494,note_on,46,0,5,,,,,,,,,6,,,45,0
74496,note_on,2,0,5,,,,,,,,,6,,,45,60
74496,note_on,2,0,1,,,,,,,,,11,,,57,127
74496,note_on,2,0,4,,,,,,,,,4,,,64,75
74496,note_on,2,0,6,,,,,,,,,8,,,33,75
74496,note_on,0,0,1,,,,,,,,,11,,,64,127
74496,note_on,2,0,3,,,,,,,,,3,,,69,127
74496,note_on,2,0,2,,,,,,,,,0,,,73,127
74520,note_on,24,0,1,,,,,,,,,11,,,73,127
74638,note_on,142,0,4,,,,,,,,,4,,,64,0
74638,note_on,0,0,1,,,,,,,,,11,,,73,0
74638,note_on,142,0,3,,,,,,,,,3,,,69,0
74638,note_on,118,0,1,,,,,,,,,11,,,57,0
74638,note_on,142,0,2,,,,,,,,,0,,,73,0
74638,note_on,0,0,1,,,,,,,,,11,,,64,0
74638,note_on,142,0,5,,,,,,,,,6,,,45,0
74638,note_on,142,0,6,,,,,,,,,8,,,33,0
74640,note_on,2,0,4,,,,,,,,,4,,,68,75
74640,note_on,0,0,1,,,,,,,,,11,,,74,127
74640,note_on,2,0,1,,,,,,,,,11,,,64,127
74640,note_on,2,0,6,,,,,,,,,8,,,40,75
74640,note_on,2,0,3,,,,,,,,,3,,,71,127
74640,note_on,2,0,2,,,,,,,,,0,,,74,127
74640,note_on,2,0,5,,,,,,,,,6,,,52,60
74686,note_on,0,0,1,,,,,,,,,11,,,74,0
74686,note_on,46,0,1,,,,,,,,,11,,,64,0
74686,note_on,46,0,6,,,,,,,,,8,,,40,0
74686,note_on,46,0,2,,,,,,,,,0,,,74,0
74686,note_on,46,0,4,,,,,,,,,4,,,68,0
74686,note_on,46,0,3,,,,,,,,,3,,,71,0
74686,note_on,46,0,5,,,,,,,,,6,,,52,0
74688,note_on,0,0,1,,,,,,,,,11,,,74,127
74688,note_on,2,0,1,,,,,,,,,11,,,64,127
74688,note_on,2,0,3,,,,,,,,,3,,,71,127
74688,note_on,2,0,2,,,,,,,,,0,,,74,127
74688,note_on,2,0,5,,,,,,,,,6,,,52,60
74688,note_on,2,0,4,,,,,,,,,4,,,68,75
74688,note_on,2,0,6,,,,,,,,,8,,,40,75
74830,note_on,142,0,6,,,,,,,,,8,,,40,0
74830,note_on,142,0,3,,,,,,,,,3,,,71,0
74830,note_on,142,0,5,,,,,,,,,6,,,52,0
74830,note_on,142,0,4,,,,,,,,,4,,,68,0
74830,note_on,0,0,1,,,,,,,,,11,,,74,0
74830,note_on,142,0,1,,,,,,,,,11,,,64,0
74830,note_on,142,0,2,,,,,,,,,0,,,74,0
74832,note_on,2,0,5,,,,,,,,,6,,,45,60
74832,note_on,2,0,4,,,,,,,,,4,,,64,75
74832,note_on,2,0,3,,,,,,,,,3,,,69,127
74832,note_on,2,0,1,,,,,,,,,11,,,64,127
74832,note_on,2,0,2,,,,,,,,,0,,,73,127
74832,note_on,0,0,1,,,,,,,,,11,,,73,127
74832,note_on,2,0,6,,,,,,,,,8,,,33,75
74878,note_on,46,0,3,,,,,,,,,3,,,69,0
74878,note_on,46,0,5,,,,,,,,,6,,,45,0
74878,note_on,46,0,2,,,,,,,,,0,,,73,0
74878,note_on,46,0,6,,,,,,,,,8,,,33,0
74878,note_on,46,0,4,,,,,,,,,4,,,64,0
74878,note_on,46,0,1,,,,,,,,,11,,,64,0
74878,note_on,0,0,1,,,,,,,,,11,,,73,0
74880,note_on,2,0,1,,,,,,,,,11,,,57,127
74880,note_on,2,0,6,,,,,,,,,8,,,33,75
74880,note_on,0,0,1,,,,,,,,,11,,,64,127
74880,note_on,2,0,2,,,,,,,,,0,,,73,127
74880,note_on,2,0,3,,,,,,,,,3,,,69,127
74880,note_on,2,0,4,,,,,,,,,4,,,64,75
74880,note_on,2,0,5,,,,,,,,,6,,,45,60
74904,note_on,24,0,1,,,,,,,,,11,,,73,127
75040,note_on,160,0,5,,,,,,,,,6,,,45,0
75040,note_on,0,0,1,,,,,,,,,11,,,64,0
75040,note_on,136,0,1,,,,,,,,,11,,,57,0
75040,note_on,160,0,6,,,,,,,,,8,,,33,0
75040,note_on,160,0,2,,,,,,,,,0,,,73,0
75040,note_on,160,0,3,,,,,,,,,3,,,69,0
75040,note_on,160,0,4,,,,,,,,,4,,,64,0
75070,note_on,30,0,1,,,,,,,,,11,,,73,0
75216,note_on,146,0,1,,,,,,,,,11,,,81,127
75216,note_on,176,0,2,,,,,,,,,0,,,81,127
75216,note_on,176,0,3,,,,,,,,,3,,,73,127
75216,note_on,176,0,6,,,,,,,,,8,,,33,75
75216,note_on,176,0,4,,,,,,,,,4,,,64,75
75216,note_on,176,0,5,,,,,,,,,6,,,45,60
75262,note_on,46,0,6,,,,,,,,,8,,,33,0
75262,note_on,46,0,1,,,,,,,,,11,,,81,0
75262,note_on,46,0,2,,,,,,,,,0,,,81,0
75262,note_on,46,0,4,,,,,,,,,4,,,64,0
75262,note_on,46,0,3,,,,,,,,,3,,,73,0
75262,note_on,46,0,5,,,,,,,,,6,,,45,0
75264,note_on,2,0,4,,,,,,,,,4,,,64,75
75264,note_on,2,0,1,,,,,,,,,11,,,64,127
75264,note_on,2,0,3,,,,,,,,,3,,,73,127
75264,note_on,0,0,1,,,,,,,,,11,,,73,127
75264,note_on,2,0,2,,,,,,,,,0,,,81,127
75264,note_on,2,0,6,,,,,,,,,8,,,40,75
75264,note_on,2,0,5,,,,,,,,,6,,,52,60
75288,note_on,24,0,1,,,,,,,,,11,,,81,127
75406,note_on,142,0,3,,,,,,,,,3,,,73,0
75406,note_on,142,0,5,,,,,,,,,6,,,52,0
75406,note_on,118,0,1,,,,,,,,,11,,,81,0
75406,note_on,142,0,2,,,,,,,,,0,,,81,0
75406,note_on,142,0,6,,,,,,,,,8,,,40,0
75406,note_on,142,0,4,,,,,,,,,4,,,64,0
75408,note_on,2,0,6,,,,,,,,,8,,,28,75
75408,note_on,2,0,4,,,,,,,,,4,,,64,75
75408,note_on,2,0,5,,,,,,,,,6,,,40,60
75408,note_on,2,0,1,,,,,,,,,11,,,80,127
75408,note_on,2,0,3,,,,,,,,,3,,,71,127
75408,note_on,2,0,2,,,,,,,,,0,,,80,127
75424,note_on,0,0,1,,,,,,,,,11,,,73,0
75424,note_on,16,0,1,,,,,,,,,11,,,64,0
75454,note_on,46,0,3,,,,,,,,,3,,,71,0
75454,note_on,46,0,5,,,,,,,,,6,,,40,0
75454,note_on,46,0,2,,,,,,,,,0,,,80,0
75454,note_on,46,0,6,,,,,,,,,8,,,28,0
75454,note_on,46,0,4,,,,,,,,,4,,,64,0
75454,note_on,30,0,1,,,,,,,,,11,,,80,0
75456,note_on,2,0,1,,,,,,,,,11,,,64,127
75456,note_on,2,0,6,,,,,,,,,8,,,28,75
75456,note_on,2,0,4,,,,,,,,,4,,,64,75
75456,note_on,0,0,1,,,,,,,,,11,,,71,127
75456,note_on,2,0,5,,,,,,,,,6,,,40,60
75456,note_on,2,0,2,,,,,,,,,0,,,80,127
75456,note_on,2,0,3,,,,,,,,,3,,,71,127
75480,note_on,24,0,1,,,,,,,,,11,,,80,127
75598,note_on,118,0,1,,,,,,,,,11,,,80,0
75598,note_on,142,0,6,,,,,,,,,8,,,28,0
75598,note_on,142,0,2,,,,,,,,,0,,,80,0
75598,note_on,142,0,5,,,,,,,,,6,,,40,0
75598,note_on,142,0,4,,,,,,,,,4,,,64,0
75598,note_on,142,0,3,,,,,,,,,3,,,71,0
75600,note_on,2,0,3,,,,,,,,,3,,,80,127
75600,note_on,2,0,5,,,,,,,,,6,,,52,60
75600,note_on,2,0,2,,,,,,,,,0,,,86,127
75600,note_on,2,0,4,,,,,,,,,4,,,64,75
75600,note_on,2,0,1,,,,,,,,,11,,,86,127
75600,note_on,2,0,6,,,,,,,,,8,,,40,75
75616,note_on,16,0,1,,,,,,,,,11,,,64,0
75616,note_on,0,0,1,,,,,,,,,11,,,71,0
75646,note_on,46,0,5,,,,,,,,,6,,,52,0
75646,note_on,46,0,2,,,,,,,,,0,,,86,0
75646,note_on,30,0,1,,,,,,,,,11,,,86,0
75646,note_on,46,0,6,,,,,,,,,8,,,40,0
75646,note_on,46,0,3,,,,,,,,,3,,,80,0
75646,note_on,46,0,4,,,,,,,,,4,,,64,0
75648,note_on,2,0,2,,,,,,,,,0,,,86,127
75648,note_on,2,0,6,,,,,,,,,8,,,45,75
75648,note_on,2,0,3,,,,,,,,,3,,,76,127
75648,note_on,2,0,4,,,,,,,,,4,,,64,75
75648,note_on,2,0,1,,,,,,,,,11,,,86,127
75648,note_on,2,0,5,,,,,,,,,6,,,57,60
75742,note_on,94,0,5,,,,,,,,,6,,,57,0
75742,note_on,94,0,2,,,,,,,,,0,,,86,0
75742,note_on,94,0,1,,,,,,,,,11,,,86,0
75742,note_on,94,0,6,,,,,,,,,8,,,45,0
75744,note_on,2,0,6,,,,,,,,,8,,,33,75
75744,note_on,2,0,5,,,,,,,,,6,,,45,60
75744,note_on,2,0,1,,,,,,,,,11,,,85,127
75744,note_on,2,0,2,,,,,,,,,0,,,85,127
75808,note_on,160,0,3,,,,,,,,,3,,,76,0
75808,note_on,160,0,4,,,,,,,,,4,,,64,0
75838,note_on,94,0,6,,,,,,,,,8,,,33,0
75838,note_on,94,0,5,,,,,,,,,6,,,45,0
75838,note_on,94,0,2,,,,,,,,,0,,,85,0
75838,note_on,94,0,1,,,,,,,,,11,,,85,0
75984,note_on,146,0,6,,,,,,,,,8,,,45,75
75984,note_on,146,0,1,,,,,,,,,11,,,73,127
75984,note_on,146,0,2,,,,,,,,,0,,,76,127
75984,note_on,146,0,5,,,,,,,,,6,,,57,60
75984,note_on,176,0,4,,,,,,,,,4,,,64,75
75984,note_on,176,0,3,,,,,,,,,3,,,73,127
75984,note_on,0,0,1,,,,,,,,,11,,,76,127
76030,note_on,46,0,4,,,,,,,,,4,,,64,0
76030,note_on,0,0,1,,,,,,,,,11,,,76,0
76030,note_on,46,0,3,,,,,,,,,3,,,73,0
76030,note_on,46,0,1,,,,,,,,,11,,,73,0
76030,note_on,46,0,6,,,,,,,,,8,,,45,0
76030,note_on,46,0,2,,,,,,,,,0,,,76,0
76030,note_on,46,0,5,,,,,,,,,6,,,57,0
76032,note_on,2,0,6,,,,,,,,,8,,,45,75
76032,note_on,2,0,5,,,,,,,,,6,,,57,60
76032,note_on,2,0,4,,,,,,,,,4,,,64,75
76032,note_on,2,0,2,,,,,,,,,0,,,76,127
76032,note_on,2,0,3,,,,,,,,,3,,,73,127
76032,note_on,2,0,1,,,,,,,,,11,,,73,127
76032,note_on,0,0,1,,,,,,,,,11,,,76,127
76174,note_on,142,0,3,,,,,,,,,3,,,73,0
76174,note_on,142,0,5,,,,,,,,,6,,,57,0
76174,note_on,142,0,1,,,,,,,,,11,,,73,0
76174,note_on,142,0,6,,,,,,,,,8,,,45,0
76174,note_on,142,0,4,,,,,,,,,4,,,64,0
76174,note_on,0,0,1,,,,,,,,,11,,,76,0
76174,note_on,142,0,2,,,,,,,,,0,,,76,0
76176,note_on,2,0,2,,,,,,,,,0,,,81,127
76176,note_on,2,0,1,,,,,,,,,11,,,73,127
76176,note_on,2,0,5,,,,,,,,,6,,,57,60
76176,note_on,2,0,3,,,,,,,,,3,,,73,127
76176,note_on,0,0,1,,,,,,,,,11,,,81,127
76176,note_on,2,0,4,,,,,,,,,4,,,64,75
76176,note_on,2,0,6,,,,,,,,,8,,,45,75
76222,note_on,0,0,1,,,,,,,,,11,,,81,0
76222,note_on,46,0,3,,,,,,,,,3,,,73,0
76222,note_on,46,0,4,,,,,,,,,4,,,64,0
76222,note_on,46,0,2,,,,,,,,,0,,,81,0
76222,note_on,46,0,1,,,,,,,,,11,,,73,0
76222,note_on,46,0,6,,,,,,,,,8,,,45,0
76222,note_on,46,0,5,,,,,,,,,6,,,57,0
76224,note_on,2,0,6,,,,,,,,,8,,,45,75
76224,note_on,2,0,3,,,,,,,,,3,,,73,127
76224,note_on,2,0,4,,,,,,,,,4,,,64,75
76224,note_on,0,0,1,,,,,,,,,11,,,81,127
76224,note_on,2,0,1,,,,,,,,,11,,,73,127
76224,note_on,2,0,5,,,,,,,,,6,,,57,60
76224,note_on,2,0,2,,,,,,,,,0,,,81,127
76366,note_on,142,0,3,,,,,,,,,3,,,73,0
76366,note_on,142,0,1,,,,,,,,,11,,,73,0
76366,note_on,0,0,1,,,,,,,,,11,,,81,0
76366,note_on,142,0,5,,,,,,,,,6,,,57,0
76366,note_on,142,0,2,,,,,,,,,0,,,81,0
76366,note_on,142,0,4,,,,,,,,,4,,,64,0
76366,note_on,142,0,6,,,,,,,,,8,,,45,0
76368,note_on,2,0,2,,,,,,,,,0,,,81,127
76368,note_on,2,0,3,,,,,,,,,3,,,73,127
76368,note_on,2,0,5,,,,,,,,,6,,,57,60
76368,note_on,2,0,4,,,,,,,,,4,,,64,75
76368,note_on,0,0,1,,,,,,,,,11,,,81,127
76368,note_on,2,0,1,,,,,,,,,11,,,73,127
76368,note_on,2,0,6,,,,,,,,,8,,,45,75
76414,note_on,46,0,2,,,,,,,,,0,,,81,0
76414,note_on,46,0,4,,,,,,,,,4,,,64,0
76414,note_on,46,0,1,,,,,,,,,11,,,73,0
76414,note_on,46,0,5,,,,,,,,,6,,,57,0
76414,note_on,0,0,1,,,,,,,,,11,,,81,0
76414,note_on,46,0,3,,,,,,,,,3,,,73,0
76414,note_on,46,0,6,,,,,,,,,8,,,45,0
76416,note_on,0,0,1,,,,,,,,,11,,,81,127
76416,note_on,2,0,1,,,,,,,,,11,,,71,127
76416,note_on,2,0,5,,,,,,,,,6,,,51,60
76416,note_on,2,0,2,,,,,,,,,0,,,81,127
76416,note_on,2,0,6,,,,,,,,,8,,,39,75
76416,note_on,2,0,3,,,,,,,,,3,,,71,127
76416,note_on,2,0,4,,,,,,,,,4,,,66,75
76576,note_on,160,0,6,,,,,,,,,8,,,39,0
76576,note_on,160,0,3,,,,,,,,,3,,,71,0
76576,note_on,160,0,2,,,,,,,,,0,,,81,0
76576,note_on,0,0,1,,,,,,,,,11,,,81,0
76576,note_on,160,0,1,,,,,,,,,11,,,71,0
76576,note_on,160,0,5,,,,,,,,,6,,,51,0
76576,note_on,160,0,4,,,,,,,,,4,,,66,0
76752,note_on,176,0,2,,,,,,,,,0,,,80,127
76752,note_on,176,0,4,,,,,,,,,4,,,71,75
76752,note_on,176,0,6,,,,,,,,,8,,,40,75
76752,note_on,176,0,1,,,,,,,,,11,,,76,127
76752,note_on,176,0,5,,,,,,,,,6,,,52,60
76752,note_on,176,0,3,,,,,,,,,3,,,76,127
76752,note_on,0,0,1,,,,,,,,,11,,,80,127
76798,note_on,46,0,4,,,,,,,,,4,,,71,0
76798,note_on,46,0,5,,,,,,,,,6,,,52,0
76798,note_on,46,0,6,,,,,,,,,8,,,40,0
76798,note_on,46,0,3,,,,,,,,,3,,,76,0
76798,note_on,46,0,2,,,,,,,,,0,,,80,0
76798,note_on,0,0,1,,,,,,,,,11,,,80,0
76798,note_on,46,0,1,,,,,,,,,11,,,76,0
76800,note_on,2,0,1,,,,,,,,,11,,,76,127
76800,note_on,2,0,2,,,,,,,,,0,,,80,127
76800,note_on,2,0,5,,,,,,,,,6,,,52,60
76800,note_on,0,0,1,,,,,,,,,11,,,80,127
76800,note_on,2,0,4,,,,,,,,,4,,,71,75
76800,note_on,2,0,6,,,,,,,,,8,,,40,75
76800,note_on,2,0,3,,,,,,,,,3,,,76,127
76942,note_on,142,0,5,,,,,,,,,6,,,52,0
76942,note_on,142,0,1,,,,,,,,,11,,,76,0
76942,note_on,142,0,2,,,,,,,,,0,,,80,0
76942,note_on,0,0,1,,,,,,,,,11,,,80,0
76942,note_on,142,0,3,,,,,,,,,3,,,76,0
76942,note_on,142,0,6,,,,,,,,,8,,,40,0
76942,note_on,142,0,4,,,,,,,,,4,,,71,0
76944,note_on,2,0,1,,,,,,,,,11,,,76,127
76944,note_on,2,0,2,,,,,,,,,0,,,80,127
76944,note_on,0,0,1,,,,,,,,,11,,,80,127
76944,note_on,2,0,6,,,,,,,,,8,,,40,75
76944,note_on,2,0,3,,,,,,,,,3,,,76,127
76944,note_on,2,0,4,,,,,,,,,4,,,71,75
76944,note_on,2,0,5,,,,,,,,,6,,,52,60
76990,note_on,46,0,4,,,,,,,,,4,,,71,0
76990,note_on,46,0,1,,,,,,,,,11,,,76,0
76990,note_on,46,0,5,,,,,,,,,6,,,52,0
76990,note_on,46,0,3,,,,,,,,,3,,,76,0
76990,note_on,46,0,6,,,,,,,,,8,,,40,0
76990,note_on,46,0,2,,,,,,,,,0,,,80,0
76990,note_on,0,0,1,,,,,,,,,11,,,80,0
76992,note_on,0,0,1,,,,,,,,,11,,,80,127
76992,note_on,2,0,2,,,,,,,,,0,,,80,127
76992,note_on,2,0,1,,,,,,,,,11,,,76,127
76992,note_on,2,0,4,,,,,,,,,4,,,71,75
76992,note_on,2,0,5,,,,,,,,,6,,,52,60
76992,note_on,2,0,6,,,,,,,,,8,,,40,75
76992,note_on,2,0,3,,,,,,,,,3,,,76,127
77134,note_on,142,0,4,,,,,,,,,4,,,71,0
77134,note_on,142,0,6,,,,,,,,,8,,,40,0
77134,note_on,142,0,1,,,,,,,,,11,,,76,0
77134,note_on,142,0,2,,,,,,,,,0,,,80,0
77134,note_on,142,0,3,,,,,,,,,3,,,76,0
77134,note_on,0,0,1,,,,,,,,,11,,,80,0
77134,note_on,142,0,5,,,,,,,,,6,,,52,0
77136,note_on,2,0,6,,,,,,,,,8,,,40,75
77136,note_on,2,0,2,,,,,,,,,0,,,80,127
77136,note_on,2,0,1,,,,,,,,,11,,,76,127
77136,note_on,2,0,4,,,,,,,,,4,,,71,75
77136,note_on,2,0,3,,,,,,,,,3,,,76,127
77136,note_on,2,0,5,,,,,,,,,6,,,52,60
77136,note_on,0,0,1,,,,,,,,,11,,,80,127
77182,note_on,0,0,1,,,,,,,,,11,,,80,0
77182,note_on,46,0,3,,,,,,,,,3,,,76,0
77182,note_on,46,0,2,,,,,,,,,0,,,80,0
77182,note_on,46,0,4,,,,,,,,,4,,,71,0
77182,note_on,46,0,1,,,,,,,,,11,,,76,0
77182,note_on,46,0,5,,,,,,,,,6,,,52,0
77182,note_on,46,0,6,,,,,,,,,8,,,40,0
77184,note_on,2,0,3,,,,,,,,,3,,,76,127
77184,note_on,0,0,1,,,,,,,,,11,,,78,127
77184,note_on,2,0,1,,,,,,,,,11,,,76,127
77184,note_on,2,0,5,,,,,,,,,6,,,45,60
77184,note_on,2,0,6,,,,,,,,,8,,,33,75
77184,note_on,2,0,2,,,,,,,,,0,,,78,127
77184,note_on,2,0,4,,,,,,,,,4,,,73,75
77344,note_on,160,0,4,,,,,,,,,4,,,73,0
77344,note_on,160,0,2,,,,,,,,,0,,,78,0
77344,note_on,160,0,3,,,,,,,,,3,,,76,0
77344,note_on,0,0,1,,,,,,,,,11,,,78,0
77344,note_on,160,0,1,,,,,,,,,11,,,76,0
77344,note_on,160,0,6,,,,,,,,,8,,,33,0
77344,note_on,160,0,5,,,,,,,,,6,,,45,0
77520,note_on,176,0,4,,,,,,,,,4,,,69,75
77520,note_on,176,0,6,,,,,,,,,8,,,38,75
77520,note_on,176,0,3,,,,,,,,,3,,,74,127
77520,note_on,176,0,5,,,,,,,,,6,,,50,60
77520,note_on,176,0,2,,,,,,,,,0,,,78,127
77520,note_on,176,0,1,,,,,,,,,11,,,74,127
77520,note_on,0,0,1,,,,,,,,,11,,,78,127
77566,note_on,46,0,1,,,,,,,,,11,,,74,0
77566,note_on,46,0,4,,,,,,,,,4,,,69,0
77566,note_on,46,0,3,,,,,,,,,3,,,74,0
77566,note_on,46,0,5,,,,,,,,,6,,,50,0
77566,note_on,46,0,2,,,,,,,,,0,,,78,0
77566,note_on,46,0,6,,,,,,,,,8,,,38,0
77566,note_on,0,0,1,,,,,,,,,11,,,78,0
77568,note_on,2,0,4,,,,,,,,,4,,,69,75
77568,note_on,2,0,3,,,,,,,,,3,,,74,127
77568,note_on,2,0,1,,,,,,,,,11,,,74,127
77568,note_on,2,0,5,,,,,,,,,6,,,50,60
77568,note_on,2,0,6,,,,,,,,,8,,,38,75
77568,note_on,2,0,2,,,,,,,,,0,,,78,127
77568,note_on,0,0,1,,,,,,,,,11,,,78,127
77710,note_on,142,0,6,,,,,,,,,8,,,38,0
77710,note_on,0,0,1,,,,,,,,,11,,,78,0
77710,note_on,142,0,2,,,,,,,,,0,,,78,0
77710,note_on,142,0,5,,,,,,,,,6,,,50,0
77710,note_on,142,0,1,,,,,,,,,11,,,74,0
77710,note_on,142,0,3,,,,,,,,,3,,,74,0
77710,note_on,142,0,4,,,,,,,,,4,,,69,0
77712,note_on,2,0,2,,,,,,,,,0,,,78,127
77712,note_on,2,0,3,,,,,,,,,3,,,74,127
77712,note_on,2,0,4,,,,,,,,,4,,,69,75
77712,note_on,2,0,5,,,,,,,,,6,,,50,60
77712,note_on,0,0,1,,,,,,,,,11,,,78,127
77712,note_on,2,0,1,,,,,,,,,11,,,74,127
77712,note_on,2,0,6,,,,,,,,,8,,,38,75
77758,note_on,46,0,6,,,,,,,,,8,,,38,0
77758,note_on,46,0,5,,,,,,,,,6,,,50,0
77758,note_on,46,0,2,,,,,,,,,0,,,78,0
77758,note_on,0,0,1,,,,,,,,,11,,,78,0
77758,note_on,46,0,1,,,,,,,,,11,,,74,0
77758,note_on,46,0,3,,,,,,,,,3,,,74,0
77758,note_on,46,0,4,,,,,,,,,4,,,69,0
77760,note_on,2,0,2,,,,,,,,,0,,,78,127
77760,note_on,2,0,5,,,,,,,,,6,,,50,60
77760,note_on,2,0,3,,,,,,,,,3,,,74,127
77760,note_on,2,0,6,,,,,,,,,8,,,38,75
77760,note_on,2,0,4,,,,,,,,,4,,,69,75
77760,note_on,0,0,1,,,,,,,,,11,,,78,127
77760,note_on,2,0,1,,,,,,,,,11,,,74,127
77902,note_on,142,0,5,,,,,,,,,6,,,50,0
77902,note_on,142,0,2,,,,,,,,,0,,,78,0
77902,note_on,142,0,3,,,,,,,,,3,,,74,0
77902,note_on,142,0,1,,,,,,,,,11,,,74,0
77902,note_on,142,0,6,,,,,,,,,8,,,38,0
77902,note_on,0,0,1,,,,,,,,,11,,,78,0
77902,note_on,142,0,4,,,,,,,,,4,,,69,0
77904,note_on,2,0,5,,,,,,,,,6,,,50,60
77904,note_on,2,0,2,,,,,,,,,0,,,78,127
77904,note_on,0,0,1,,,,,,,,,11,,,78,127
77904,note_on,2,0,1,,,,,,,,,11,,,74,127
77904,note_on,2,0,3,,,,,,,,,3,,,74,127
77904,note_on,2,0,6,,,,,,,,,8,,,38,75
77904,note_on,2,0,4,,,,,,,,,4,,,66,75
77950,note_on,46,0,3,,,,,,,,,3,,,74,0
77950,note_on,46,0,6,,,,,,,,,8,,,38,0
77950,note_on,0,0,1,,,,,,,,,11,,,78,0
77950,note_on,46,0,5,,,,,,,,,6,,,50,0
77950,note_on,46,0,4,,,,,,,,,4,,,66,0
77950,note_on,46,0,1,,,,,,,,,11,,,74,0
77950,note_on,46,0,2,,,,,,,,,0,,,78,0
77952,note_on,2,0,1,,,,,,,,,11,,,74,127
77952,note_on,2,0,2,,,,,,,,,0,,,80,127
77952,note_on,2,0,6,,,,,,,,,8,,,40,75
77952,note_on,0,0,1,,,,,,,,,11,,,80,127
77952,note_on,2,0,4,,,,,,,,,4,,,59,75
77952,note_on,2,0,5,,,,,,,,,6,,,52,60
77952,note_on,2,0,3,,,,,,,,,3,,,74,127
78112,note_on,160,0,2,,,,,,,,,0,,,80,0
78112,note_on,160,0,6,,,,,,,,,8,,,40,0
78112,note_on,160,0,5,,,,,,,,,6,,,52,0
78112,note_on,0,0,1,,,,,,,,,11,,,80,0
78112,note_on,160,0,1,,,,,,,,,11,,,74,0
78112,note_on,160,0,4,,,,,,,,,4,,,59,0
78112,note_on,160,0,3,,,,,,,,,3,,,74,0
78288,note_on,176,0,1,,,,,,,,,11,,,81,127
78288,note_on,176,0,5,,,,,,,,,6,,,45,60
78288,note_on,176,0,6,,,,,,,,,8,,,33,75
78288,note_on,176,0,4,,,,,,,,,4,,,69,75
78288,note_on,176,0,2,,,,,,,,,0,,,81,127
78288,note_on,176,0,3,,,,,,,,,3,,,73,127
78334,note_on,46,0,6,,,,,,,,,8,,,33,0
78334,note_on,46,0,5,,,,,,,,,6,,,45,0
78334,note_on,46,0,1,,,,,,,,,11,,,81,0
78334,note_on,46,0,2,,,,,,,,,0,,,81,0
78334,note_on,46,0,4,,,,,,,,,4,,,69,0
78334,note_on,46,0,3,,,,,,,,,3,,,73,0
78336,note_on,0,0,1,,,,,,,,,11,,,73,127
78336,note_on,2,0,4,,,,,,,,,4,,,64,75
78336,note_on,2,0,3,,,,,,,,,3,,,73,127
78336,note_on,2,0,6,,,,,,,,,8,,,33,75
78336,note_on,2,0,5,,,,,,,,,6,,,45,60
78336,note_on,2,0,2,,,,,,,,,0,,,81,127
78336,note_on,2,0,1,,,,,,,,,11,,,64,127
78360,note_on,24,0,1,,,,,,,,,11,,,81,127
78496,note_on,160,0,2,,,,,,,,,0,,,81,0
78496,note_on,160,0,3,,,,,,,,,3,,,73,0
78496,note_on,160,0,4,,,,,,,,,4,,,64,0
78496,note_on,160,0,5,,,,,,,,,6,,,45,0
78496,note_on,0,0,1,,,,,,,,,11,,,73,0
78496,note_on,136,0,1,,,,,,,,,11,,,64,0
78496,note_on,160,0,6,,,,,,,,,8,,,33,0
78526,note_on,30,0,1,,,,,,,,,11,,,81,0
78672,note_on,176,0,5,,,,,,,,,6,,,50,60
78672,note_on,176,0,2,,,,,,,,,0,,,81,127
78672,note_on,146,0,1,,,,,,,,,11,,,81,127
78672,note_on,176,0,3,,,,,,,,,3,,,71,127
78672,note_on,176,0,4,,,,,,,,,4,,,66,75
78672,note_on,176,0,6,,,,,,,,,8,,,38,75
78718,note_on,46,0,4,,,,,,,,,4,,,66,0
78718,note_on,46,0,1,,,,,,,,,11,,,81,0
78718,note_on,46,0,5,,,,,,,,,6,,,50,0
78718,note_on,46,0,6,,,,,,,,,8,,,38,0
78718,note_on,46,0,2,,,,,,,,,0,,,81,0
78718,note_on,46,0,3,,,,,,,,,3,,,71,0
78720,note_on,0,0,1,,,,,,,,,11,,,71,127
78720,note_on,2,0,3,,,,,,,,,3,,,71,127
78720,note_on,2,0,2,,,,,,,,,0,,,81,127
78720,note_on,2,0,1,,,,,,,,,11,,,62,127
78720,note_on,2,0,6,,,,,,,,,8,,,38,75
78720,note_on,2,0,5,,,,,,,,,6,,,50,60
78720,note_on,2,0,4,,,,,,,,,4,,,66,75
78744,note_on,24,0,1,,,,,,,,,11,,,81,127
78880,note_on,160,0,2,,,,,,,,,0,,,81,0
78880,note_on,160,0,3,,,,,,,,,3,,,71,0
78880,note_on,160,0,6,,,,,,,,,8,,,38,0
78880,note_on,160,0,5,,,,,,,,,6,,,50,0
78880,note_on,160,0,4,,,,,,,,,4,,,66,0
78880,note_on,136,0,1,,,,,,,,,11,,,62,0
78880,note_on,0,0,1,,,,,,,,,11,,,71,0
78910,note_on,30,0,1,,,,,,,,,11,,,81,0
79056,note_on,176,0,4,,,,,,,,,4,,,64,75
79056,note_on,176,0,6,,,,,,,,,8,,,40,75
79056,note_on,176,0,2,,,,,,,,,0,,,80,127
79056,note_on,176,0,3,,,,,,,,,3,,,71,127
79056,note_on,146,0,1,,,,,,,,,11,,,80,127
79056,note_on,176,0,5,,,,,,,,,6,,,52,60
79102,note_on,46,0,2,,,,,,,,,0,,,80,0
79102,note_on,46,0,5,,,,,,,,,6,,,52,0
79102,note_on,46,0,3,,,,,,,,,3,,,71,0
79102,note_on,46,0,4,,,,,,,,,4,,,64,0
79102,note_on,46,0,1,,,,,,,,,11,,,80,0
79102,note_on,46,0,6,,,,,,,,,8,,,40,0
79104,note_on,2,0,2,,,,,,,,,0,,,80,127
79104,note_on,2,0,5,,,,,,,,,6,,,52,60
79104,note_on,0,0,1,,,,,,,,,11,,,71,127
79104,note_on,2,0,1,,,,,,,,,11,,,64,127
79104,note_on,2,0,6,,,,,,,,,8,,,40,75
79104,note_on,2,0,3,,,,,,,,,3,,,71,127
79104,note_on,2,0,4,,,,,,,,,4,,,64,75
79128,note_on,24,0,1,,,,,,,,,11,,,80,127
79264,note_on,136,0,1,,,,,,,,,11,,,64,0
79264,note_on,160,0,3,,,,,,,,,3,,,71,0
79264,note_on,160,0,6,,,,,,,,,8,,,40,0
79264,note_on,0,0,1,,,,,,,,,11,,,71,0
79264,note_on,160,0,5,,,,,,,,,6,,,52,0
79264,note_on,160,0,4,,,,,,,,,4,,,64,0
79264,note_on,160,0,2,,,,,,,,,0,,,80,0
79294,note_on,30,0,1,,,,,,,,,11,,,80,0
79440,note_on,176,0,2,,,,,,,,,0,,,81,127
79440,note_on,146,0,1,,,,,,,,,11,,,81,127
79440,note_on,176,0,5,,,,,,,,,6,,,45,60
79440,note_on,176,0,6,,,,,,,,,8,,,33,75
79440,note_on,176,0,3,,,,,,,,,3,,,73,127
79440,note_on,176,0,4,,,,,,,,,4,,,64,75
79486,note_on,46,0,2,,,,,,,,,0,,,81,0
79486,note_on,46,0,3,,,,,,,,,3,,,73,0
79486,note_on,46,0,1,,,,,,,,,11,,,81,0
79486,note_on,46,0,4,,,,,,,,,4,,,64,0
79486,note_on,46,0,5,,,,,,,,,6,,,45,0
79486,note_on,46,0,6,,,,,,,,,8,,,33,0
79488,note_on,0,0,1,,,,,,,,,11,,,64,127
79488,note_on,2,0,2,,,,,,,,,0,,,81,127
79488,note_on,2,0,5,,,,,,,,,6,,,45,60
79488,note_on,2,0,4,,,,,,,,,4,,,64,75
79488,note_on,2,0,3,,,,,,,,,3,,,73,127
79488,note_on,2,0,6,,,,,,,,,8,,,33,75
79488,note_on,2,0,1,,,,,,,,,11,,,57,127
79512,note_on,0,0,1,,,,,,,,,11,,,81,127
79512,note_on,24,0,1,,,,,,,,,11,,,73,127
79648,note_on,160,0,4,,,,,,,,,4,,,64,0
79648,note_on,160,0,3,,,,,,,,,3,,,73,0
79648,note_on,160,0,5,,,,,,,,,6,,,45,0
79648,note_on,136,0,1,,,,,,,,,11,,,57,0
79648,note_on,160,0,6,,,,,,,,,8,,,33,0
79648,note_on,0,0,1,,,,,,,,,11,,,64,0
79648,note_on,160,0,2,,,,,,,,,0,,,81,0
79678,note_on,30,0,1,,,,,,,,,11,,,73,0
79678,note_on,0,0,1,,,,,,,,,11,,,81,0
79872,note_on,194,0,1,,,,,,,,,11,,,81,127
79902,note_on,30,0,1,,,,,,,,,11,,,81,0
79904,note_on,2,0,1,,,,,,,,,11,,,76,127
79934,note_on,30,0,1,,,,,,,,,11,,,76,0
79936,note_on,2,0,1,,,,,,,,,11,,,73,127
79966,note_on,30,0,1,,,,,,,,,11,,,73,0
79968,note_on,2,0,1,,,,,,,,,11,,,69,127
79998,note_on,30,0,1,,,,,,,,,11,,,69,0
80000,note_on,2,0,1,,,,,,,,,11,,,64,127
80030,note_on,30,0,1,,,,,,,,,11,,,64,0
80032,note_on,2,0,1,,,,,,,,,11,,,61,127
80062,note_on,30,0,1,,,,,,,,,11,,,61,0
80064,note_on,2,0,1,,,,,,,,,11,,,57,127
80094,note_on,30,0,1,,,,,,,,,11,,,57,0
80096,note_on,2,0,1,,,,,,,,,11,,,69,127
80126,note_on,30,0,1,,,,,,,,,11,,,69,0
80128,note_on,2,0,1,,,,,,,,,11,,,73,127
80158,note_on,30,0,1,,,,,,,,,11,,,73,0
80160,note_on,2,0,1,,,,,,,,,11,,,76,127
80190,note_on,30,0,1,,,,,,,,,11,,,76,0
80192,note_on,2,0,1,,,,,,,,,11,,,81,127
80222,note_on,30,0,1,,,,,,,,,11,,,81,0
80224,note_on,2,0,1,,,,,,,,,11,,,85,127
80254,note_on,30,0,1,,,,,,,,,11,,,85,0
80256,note_on,0,0,4,,,,,,,,,4,,,64,75
80256,control_change,608,0,3,,,,,,,,,3,10,0,,
80256,note_on,0,0,2,,,,,,,,,0,,,71,127
80256,control_change,608,0,2,,,,,,,,,0,10,0,,
80256,note_on,2,0,1,,,,,,,,,11,,,83,127
80256,control_change,608,0,4,,,,,,,,,4,10,0,,
80256,note_on,0,0,3,,,,,,,,,3,,,68,127
80350,note_on,94,0,1,,,,,,,,,11,,,83,0
80352,note_on,2,0,1,,,,,,,,,11,,,76,127
80398,note_on,142,0,4,,,,,,,,,4,,,64,0
80398,note_on,142,0,2,,,,,,,,,0,,,71,0
80398,note_on,142,0,3,,,,,,,,,3,,,68,0
80400,note_on,2,0,2,,,,,,,,,0,,,71,127
80400,note_on,2,0,3,,,,,,,,,3,,,68,127
80400,note_on,2,0,4,,,,,,,,,4,,,64,75
80446,note_on,46,0,4,,,,,,,,,4,,,64,0
80446,note_on,46,0,3,,,,,,,,,3,,,68,0
80446,note_on,46,0,2,,,,,,,,,0,,,71,0
80446,note_on,94,0,1,,,,,,,,,11,,,76,0
80448,note_on,2,0,3,,,,,,,,,3,,,68,127
80448,note_on,2,0,2,,,,,,,,,0,,,71,127
80448,note_on,2,0,4,,,,,,,,,4,,,64,75
80544,note_on,98,0,1,,,,,,,,,11,,,76,127
80590,note_on,142,0,4,,,,,,,,,4,,,64,0
80590,note_on,142,0,3,,,,,,,,,3,,,68,0
80590,note_on,142,0,2,,,,,,,,,0,,,71,0
80592,note_on,2,0,2,,,,,,,,,0,,,71,127
80592,note_on,2,0,4,,,,,,,,,4,,,64,75
80592,note_on,2,0,3,,,,,,,,,3,,,68,127
80638,note_on,46,0,2,,,,,,,,,0,,,71,0
80638,note_on,94,0,1,,,,,,,,,11,,,76,0
80638,note_on,46,0,4,,,,,,,,,4,,,64,0
80638,note_on,46,0,3,,,,,,,,,3,,,68,0
80640,note_on,2,0,2,,,,,,,,,0,,,71,127
80640,note_on,2,0,1,,,,,,,,,11,,,86,127
80640,note_on,2,0,4,,,,,,,,,4,,,64,75
80640,note_on,2,0,3,,,,,,,,,3,,,68,127
80686,note_on,46,0,1,,,,,,,,,11,,,86,0
80688,note_on,2,0,1,,,,,,,,,11,,,85,127
80734,note_on,46,0,1,,,,,,,,,11,,,85,0
80736,note_on,2,0,1,,,,,,,,,11,,,83,127
80782,note_on,46,0,1,,,,,,,,,11,,,83,0
80784,note_on,2,0,1,,,,,,,,,11,,,81,127
80800,note_on,160,0,3,,,,,,,,,3,,,68,0
80800,note_on,160,0,4,,,,,,,,,4,,,64,0
80800,note_on,160,0,2,,,,,,,,,0,,,71,0
80830,note_on,46,0,1,,,,,,,,,11,,,81,0
80832,note_on,2,0,1,,,,,,,,,11,,,80,127
80878,note_on,46,0,1,,,,,,,,,11,,,80,0
80880,note_on,2,0,1,,,,,,,,,11,,,78,127
80926,note_on,46,0,1,,,,,,,,,11,,,78,0
80928,note_on,2,0,1,,,,,,,,,11,,,76,127
80974,note_on,46,0,1,,,,,,,,,11,,,76,0
80976,note_on,2,0,1,,,,,,,,,11,,,74,127
81022,note_on,46,0,1,,,,,,,,,11,,,74,0
81024,note_on,224,0,3,,,,,,,,,3,,,64,127
81024,note_on,224,0,4,,,,,,,,,4,,,57,75
81024,note_on,2,0,1,,,,,,,,,11,,,74,127
81024,note_on,224,0,2,,,,,,,,,0,,,74,127
81046,note_on,22,0,1,,,,,,,,,11,,,74,0
81048,note_on,2,0,1,,,,,,,,,11,,,78,127
81070,note_on,22,0,1,,,,,,,,,11,,,78,0
81072,note_on,2,0,1,,,,,,,,,11,,,76,127
81094,note_on,22,0,1,,,,,,,,,11,,,76,0
81096,note_on,2,0,1,,,,,,,,,11,,,74,127
81118,note_on,22,0,1,,,,,,,,,11,,,74,0
81120,note_on,2,0,1,,,,,,,,,11,,,73,127
81142,note_on,22,0,1,,,,,,,,,11,,,73,0
81144,note_on,2,0,1,,,,,,,,,11,,,74,127
81166,note_on,142,0,3,,,,,,,,,3,,,64,0
81166,note_on,142,0,2,,,,,,,,,0,,,74,0
81166,note_on,22,0,1,,,,,,,,,11,,,74,0
81166,note_on,142,0,4,,,,,,,,,4,,,57,0
81168,note_on,2,0,3,,,,,,,,,3,,,64,127
81168,note_on,2,0,2,,,,,,,,,0,,,73,127
81168,note_on,2,0,4,,,,,,,,,4,,,57,75
81168,note_on,2,0,1,,,,,,,,,11,,,73,127
81214,note_on,46,0,1,,,,,,,,,11,,,73,0
81214,note_on,46,0,2,,,,,,,,,0,,,73,0
81214,note_on,46,0,3,,,,,,,,,3,,,64,0
81214,note_on,46,0,4,,,,,,,,,4,,,57,0
81216,note_on,2,0,2,,,,,,,,,0,,,73,127
81216,note_on,2,0,4,,,,,,,,,4,,,57,75
81216,note_on,2,0,3,,,,,,,,,3,,,64,127
81358,note_on,142,0,2,,,,,,,,,0,,,73,0
81358,note_on,142,0,3,,,,,,,,,3,,,64,0
81358,note_on,142,0,4,,,,,,,,,4,,,57,0
81360,note_on,2,0,3,,,,,,,,,3,,,64,127
81360,note_on,2,0,2,,,,,,,,,0,,,73,127
81360,note_on,2,0,4,,,,,,,,,4,,,57,75
81406,note_on,46,0,2,,,,,,,,,0,,,73,0
81406,note_on,46,0,3,,,,,,,,,3,,,64,0
81406,note_on,46,0,4,,,,,,,,,4,,,57,0
81408,note_on,2,0,3,,,,,,,,,3,,,64,127
81408,note_on,194,0,1,,,,,,,,,11,,,81,127
81408,note_on,2,0,2,,,,,,,,,0,,,73,127
81408,note_on,2,0,4,,,,,,,,,4,,,57,75
81438,note_on,30,0,1,,,,,,,,,11,,,81,0
81440,note_on,2,0,1,,,,,,,,,11,,,76,127
81470,note_on,30,0,1,,,,,,,,,11,,,76,0
81472,note_on,2,0,1,,,,,,,,,11,,,73,127
81502,note_on,30,0,1,,,,,,,,,11,,,73,0
81504,note_on,2,0,1,,,,,,,,,11,,,69,127
81534,note_on,30,0,1,,,,,,,,,11,,,69,0
81536,note_on,2,0,1,,,,,,,,,11,,,64,127
81566,note_on,30,0,1,,,,,,,,,11,,,64,0
81568,note_on,160,0,3,,,,,,,,,3,,,64,0
81568,note_on,2,0,1,,,,,,,,,11,,,61,127
81568,note_on,160,0,4,,,,,,,,,4,,,57,0
81568,note_on,160,0,2,,,,,,,,,0,,,73,0
81598,note_on,30,0,1,,,,,,,,,11,,,61,0
81600,note_on,2,0,1,,,,,,,,,11,,,57,127
81694,note_on,94,0,1,,,,,,,,,11,,,57,0
81696,note_on,2,0,1,,,,,,,,,11,,,85,127
81790,note_on,94,0,1,,,,,,,,,11,,,85,0
81792,note_on,2,0,1,,,,,,,,,11,,,76,127
81792,note_on,224,0,3,,,,,,,,,3,,,68,127
81792,note_on,224,0,2,,,,,,,,,0,,,76,127
81792,note_on,224,0,4,,,,,,,,,4,,,59,75
81934,note_on,142,0,4,,,,,,,,,4,,,59,0
81934,note_on,142,0,2,,,,,,,,,0,,,76,0
81934,note_on,142,0,3,,,,,,,,,3,,,68,0
81936,note_on,2,0,3,,,,,,,,,3,,,68,127
81936,note_on,2,0,4,,,,,,,,,4,,,59,75
81936,note_on,2,0,2,,,,,,,,,0,,,76,127
81952,note_on,160,0,1,,,,,,,,,11,,,76,0
81982,note_on,46,0,3,,,,,,,,,3,,,68,0
81982,note_on,46,0,4,,,,,,,,,4,,,59,0
81982,note_on,46,0,2,,,,,,,,,0,,,76,0
81984,note_on,2,0,3,,,,,,,,,3,,,66,127
81984,note_on,32,0,1,,,,,,,,,11,,,75,127
81984,note_on,2,0,2,,,,,,,,,0,,,75,127
81984,note_on,2,0,4,,,,,,,,,4,,,59,75
82078,note_on,94,0,1,,,,,,,,,11,,,75,0
82080,note_on,2,0,1,,,,,,,,,11,,,71,127
82126,note_on,142,0,4,,,,,,,,,4,,,59,0
82126,note_on,142,0,3,,,,,,,,,3,,,66,0
82126,note_on,142,0,2,,,,,,,,,0,,,75,0
82128,note_on,2,0,3,,,,,,,,,3,,,66,127
82128,note_on,2,0,2,,,,,,,,,0,,,75,127
82128,note_on,2,0,4,,,,,,,,,4,,,59,75
82174,note_on,46,0,3,,,,,,,,,3,,,66,0
82174,note_on,94,0,1,,,,,,,,,11,,,71,0
82174,note_on,46,0,2,,,,,,,,,0,,,75,0
82174,note_on,46,0,4,,,,,,,,,4,,,59,0
82176,note_on,2,0,3,,,,,,,,,3,,,68,127
82176,note_on,2,0,2,,,,,,,,,0,,,71,127
82176,note_on,2,0,1,,,,,,,,,11,,,71,127
82176,note_on,2,0,4,,,,,,,,,4,,,64,75
82206,note_on,30,0,1,,,,,,,,,11,,,71,0
82208,note_on,2,0,1,,,,,,,,,11,,,69,127
82238,note_on,30,0,1,,,,,,,,,11,,,69,0
82240,note_on,2,0,1,,,,,,,,,11,,,71,127
82270,note_on,30,0,1,,,,,,,,,11,,,71,0
82272,note_on,2,0,1,,,,,,,,,11,,,73,127
82336,note_on,160,0,2,,,,,,,,,0,,,71,0
82336,note_on,160,0,4,,,,,,,,,4,,,64,0
82336,note_on,160,0,3,,,,,,,,,3,,,68,0
82366,note_on,94,0,1,,,,,,,,,11,,,73,0
82368,note_on,2,0,1,,,,,,,,,11,,,80,127
82398,note_on,30,0,1,,,,,,,,,11,,,80,0
82400,note_on,2,0,1,,,,,,,,,11,,,78,127
82430,note_on,30,0,1,,,,,,,,,11,,,78,0
82432,note_on,2,0,1,,,,,,,,,11,,,76,127
82462,note_on,30,0,1,,,,,,,,,11,,,76,0
82464,note_on,2,0,1,,,,,,,,,11,,,75,127
82494,note_on,30,0,1,,,,,,,,,11,,,75,0
82496,note_on,2,0,1,,,,,,,,,11,,,73,127
82526,note_on,30,0,1,,,,,,,,,11,,,73,0
82528,note_on,2,0,1,,,,,,,,,11,,,71,127
82558,note_on,30,0,1,,,,,,,,,11,,,71,0
82560,note_on,224,0,2,,,,,,,,,0,,,76,127
82560,note_on,224,0,3,,,,,,,,,3,,,73,127
82560,note_on,2,0,1,,,,,,,,,11,,,73,127
82560,note_on,224,0,4,,,,,,,,,4,,,57,75
82590,note_on,30,0,1,,,,,,,,,11,,,73,0
82592,note_on,2,0,1,,,,,,,,,11,,,69,127
82622,note_on,30,0,1,,,,,,,,,11,,,69,0
82624,note_on,2,0,1,,,,,,,,,11,,,71,127
82654,note_on,30,0,1,,,,,,,,,11,,,71,0
82656,note_on,2,0,1,,,,,,,,,11,,,73,127
82702,note_on,142,0,3,,,,,,,,,3,,,73,0
82702,note_on,142,0,4,,,,,,,,,4,,,57,0
82702,note_on,142,0,2,,,,,,,,,0,,,76,0
82704,note_on,2,0,4,,,,,,,,,4,,,57,75
82704,note_on,2,0,2,,,,,,,,,0,,,76,127
82704,note_on,2,0,3,,,,,,,,,3,,,73,127
82750,note_on,46,0,3,,,,,,,,,3,,,73,0
82750,note_on,46,0,2,,,,,,,,,0,,,76,0
82750,note_on,46,0,4,,,,,,,,,4,,,57,0
82752,note_on,2,0,2,,,,,,,,,0,,,76,127
82752,note_on,2,0,3,,,,,,,,,3,,,73,127
82752,note_on,2,0,4,,,,,,,,,4,,,57,75
82846,note_on,190,0,1,,,,,,,,,11,,,73,0
82848,note_on,2,0,1,,,,,,,,,11,,,73,127
82894,note_on,142,0,2,,,,,,,,,0,,,76,0
82894,note_on,142,0,4,,,,,,,,,4,,,57,0
82894,note_on,142,0,3,,,,,,,,,3,,,73,0
82896,note_on,2,0,3,,,,,,,,,3,,,73,127
82896,note_on,2,0,2,,,,,,,,,0,,,76,127
82896,note_on,2,0,4,,,,,,,,,4,,,57,75
82942,note_on,46,0,2,,,,,,,,,0,,,76,0
82942,note_on,46,0,3,,,,,,,,,3,,,73,0
82942,note_on,46,0,4,,,,,,,,,4,,,57,0
82942,note_on,94,0,1,,,,,,,,,11,,,73,0
82944,note_on,2,0,4,,,,,,,,,4,,,57,75
82944,note_on,2,0,1,,,,,,,,,11,,,73,127
82944,note_on,2,0,3,,,,,,,,,3,,,73,127
82944,note_on,2,0,2,,,,,,,,,0,,,78,127
82974,note_on,30,0,1,,,,,,,,,11,,,73,0
82976,note_on,2,0,1,,,,,,,,,11,,,71,127
83006,note_on,30,0,1,,,,,,,,,11,,,71,0
83008,note_on,2,0,1,,,,,,,,,11,,,73,127
83038,note_on,30,0,1,,,,,,,,,11,,,73,0
83040,note_on,2,0,1,,,,,,,,,11,,,78,127
83104,note_on,160,0,4,,,,,,,,,4,,,57,0
83104,note_on,160,0,2,,,,,,,,,0,,,78,0
83104,note_on,160,0,3,,,,,,,,,3,,,73,0
83134,note_on,94,0,1,,,,,,,,,11,,,78,0
83136,note_on,2,0,1,,,,,,,,,11,,,81,127
83166,note_on,30,0,1,,,,,,,,,11,,,81,0
83168,note_on,2,0,1,,,,,,,,,11,,,80,127
83198,note_on,30,0,1,,,,,,,,,11,,,80,0
83200,note_on,2,0,1,,,,,,,,,11,,,78,127
83230,note_on,30,0,1,,,,,,,,,11,,,78,0
83232,note_on,2,0,1,,,,,,,,,11,,,76,127
83262,note_on,30,0,1,,,,,,,,,11,,,76,0
83264,note_on,2,0,1,,,,,,,,,11,,,75,127
83294,note_on,30,0,1,,,,,,,,,11,,,75,0
83296,note_on,2,0,1,,,,,,,,,11,,,73,127
83326,note_on,30,0,1,,,,,,,,,11,,,73,0
83328,note_on,224,0,4,,,,,,,,,4,,,59,75
83328,note_on,2,0,1,,,,,,,,,11,,,75,127
83328,note_on,224,0,2,,,,,,,,,0,,,78,127
83328,note_on,224,0,3,,,,,,,,,3,,,75,127
83358,note_on,30,0,1,,,,,,,,,11,,,75,0
83360,note_on,2,0,1,,,,,,,,,11,,,71,127
83390,note_on,30,0,1,,,,,,,,,11,,,71,0
83392,note_on,2,0,1,,,,,,,,,11,,,73,127
83422,note_on,30,0,1,,,,,,,,,11,,,73,0
83424,note_on,2,0,1,,,,,,,,,11,,,75,127
83470,note_on,142,0,4,,,,,,,,,4,,,59,0
83470,note_on,142,0,2,,,,,,,,,0,,,78,0
83470,note_on,142,0,3,,,,,,,,,3,,,75,0
83472,note_on,2,0,2,,,,,,,,,0,,,78,127
83472,note_on,2,0,3,,,,,,,,,3,,,75,127
83472,note_on,2,0,4,,,,,,,,,4,,,59,75
83518,note_on,46,0,2,,,,,,,,,0,,,78,0
83518,note_on,46,0,3,,,,,,,,,3,,,75,0
83518,note_on,46,0,4,,,,,,,,,4,,,59,0
83520,note_on,2,0,3,,,,,,,,,3,,,75,127
83520,note_on,2,0,4,,,,,,,,,4,,,59,75
83520,note_on,2,0,2,,,,,,,,,0,,,78,127
83614,note_on,190,0,1,,,,,,,,,11,,,75,0
83616,note_on,2,0,1,,,,,,,,,11,,,75,127
83662,note_on,142,0,4,,,,,,,,,4,,,59,0
83662,note_on,142,0,2,,,,,,,,,0,,,78,0
83662,note_on,142,0,3,,,,,,,,,3,,,75,0
83664,note_on,2,0,4,,,,,,,,,4,,,59,75
83664,note_on,2,0,3,,,,,,,,,3,,,75,127
83664,note_on,2,0,2,,,,,,,,,0,,,78,127
83710,note_on,46,0,3,,,,,,,,,3,,,75,0
83710,note_on,94,0,1,,,,,,,,,11,,,75,0
83710,note_on,46,0,4,,,,,,,,,4,,,59,0
83710,note_on,46,0,2,,,,,,,,,0,,,78,0
83712,note_on,2,0,1,,,,,,,,,11,,,75,127
83712,note_on,2,0,4,,,,,,,,,4,,,59,75
83712,note_on,2,0,3,,,,,,,,,3,,,75,127
83712,note_on,2,0,2,,,,,,,,,0,,,80,127
83742,note_on,30,0,1,,,,,,,,,11,,,75,0
83744,note_on,2,0,1,,,,,,,,,11,,,73,127
83774,note_on,30,0,1,,,,,,,,,11,,,73,0
83776,note_on,2,0,1,,,,,,,,,11,,,75,127
83806,note_on,30,0,1,,,,,,,,,11,,,75,0
83808,note_on,2,0,1,,,,,,,,,11,,,80,127
83872,note_on,160,0,4,,,,,,,,,4,,,59,0
83872,note_on,160,0,3,,,,,,,,,3,,,75,0
83872,note_on,160,0,2,,,,,,,,,0,,,80,0
83902,note_on,94,0,1,,,,,,,,,11,,,80,0
83904,note_on,2,0,1,,,,,,,,,11,,,83,127
83934,note_on,30,0,1,,,,,,,,,11,,,83,0
83936,note_on,2,0,1,,,,,,,,,11,,,81,127
83966,note_on,30,0,1,,,,,,,,,11,,,81,0
83968,note_on,2,0,1,,,,,,,,,11,,,80,127
83998,note_on,30,0,1,,,,,,,,,11,,,80,0
84000,note_on,2,0,1,,,,,,,,,11,,,78,127
84030,note_on,30,0,1,,,,,,,,,11,,,78,0
84032,note_on,2,0,1,,,,,,,,,11,,,76,127
84062,note_on,30,0,1,,,,,,,,,11,,,76,0
84064,note_on,2,0,1,,,,,,,,,11,,,74,127
84094,note_on,30,0,1,,,,,,,,,11,,,74,0
84096,note_on,224,0,2,,,,,,,,,0,,,71,127
84096,note_on,224,0,3,,,,,,,,,3,,,68,127
84096,note_on,224,0,4,,,,,,,,,4,,,64,75
84096,note_on,2,0,1,,,,,,,,,11,,,62,127
84126,note_on,30,0,1,,,,,,,,,11,,,62,0
84128,note_on,2,0,1,,,,,,,,,11,,,71,127
84158,note_on,30,0,1,,,,,,,,,11,,,71,0
84160,note_on,2,0,1,,,,,,,,,11,,,80,127
84190,note_on,30,0,1,,,,,,,,,11,,,80,0
84192,note_on,2,0,1,,,,,,,,,11,,,83,127
84222,note_on,30,0,1,,,,,,,,,11,,,83,0
84224,note_on,2,0,1,,,,,,,,,11,,,81,127
84254,note_on,30,0,1,,,,,,,,,11,,,81,0
84256,note_on,2,0,1,,,,,,,,,11,,,80,127
84256,note_on,160,0,3,,,,,,,,,3,,,68,0
84256,note_on,160,0,4,,,,,,,,,4,,,64,0
84256,note_on,160,0,2,,,,,,,,,0,,,71,0
84286,note_on,30,0,1,,,,,,,,,11,,,80,0
84288,note_on,2,0,1,,,,,,,,,11,,,62,127
84288,note_on,32,0,3,,,,,,,,,3,,,68,127
84288,note_on,32,0,2,,,,,,,,,0,,,71,127
84288,note_on,32,0,4,,,,,,,,,4,,,64,75
84318,note_on,30,0,1,,,,,,,,,11,,,62,0
84320,note_on,2,0,1,,,,,,,,,11,,,71,127
84350,note_on,30,0,1,,,,,,,,,11,,,71,0
84352,note_on,2,0,1,,,,,,,,,11,,,80,127
84382,note_on,30,0,1,,,,,,,,,11,,,80,0
84384,note_on,2,0,1,,,,,,,,,11,,,83,127
84414,note_on,30,0,1,,,,,,,,,11,,,83,0
84416,note_on,2,0,1,,,,,,,,,11,,,81,127
84446,note_on,30,0,1,,,,,,,,,11,,,81,0
84448,note_on,160,0,3,,,,,,,,,3,,,68,0
84448,note_on,160,0,4,,,,,,,,,4,,,64,0
84448,note_on,160,0,2,,,,,,,,,0,,,71,0
84448,note_on,2,0,1,,,,,,,,,11,,,80,127
84478,note_on,30,0,1,,,,,,,,,11,,,80,0
84480,note_on,2,0,1,,,,,,,,,11,,,81,127
84480,note_on,32,0,4,,,,,,,,,4,,,59,75
84480,note_on,32,0,2,,,,,,,,,0,,,75,127
84480,note_on,32,0,3,,,,,,,,,3,,,66,127
84502,note_on,22,0,1,,,,,,,,,11,,,81,0
84504,note_on,2,0,1,,,,,,,,,11,,,80,127
84526,note_on,22,0,1,,,,,,,,,11,,,80,0
84528,note_on,2,0,1,,,,,,,,,11,,,81,127
84550,note_on,22,0,1,,,,,,,,,11,,,81,0
84552,note_on,2,0,1,,,,,,,,,11,,,80,127
84574,note_on,22,0,1,,,,,,,,,11,,,80,0
84576,note_on,2,0,1,,,,,,,,,11,,,78,127
84622,note_on,142,0,4,,,,,,,,,4,,,59,0
84622,note_on,142,0,3,,,,,,,,,3,,,66,0
84622,note_on,142,0,2,,,,,,,,,0,,,75,0
84624,note_on,2,0,3,,,,,,,,,3,,,66,127
84624,note_on,2,0,4,,,,,,,,,4,,,59,75
84624,note_on,2,0,2,,,,,,,,,0,,,75,127
84670,note_on,46,0,4,,,,,,,,,4,,,59,0
84670,note_on,46,0,2,,,,,,,,,0,,,75,0
84670,note_on,46,0,3,,,,,,,,,3,,,66,0
84672,note_on,2,0,4,,,,,,,,,4,,,59,75
84672,note_on,2,0,3,,,,,,,,,3,,,66,127
84672,note_on,2,0,2,,,,,,,,,0,,,75,127
84766,note_on,190,0,1,,,,,,,,,11,,,78,0
84768,note_on,2,0,1,,,,,,,,,11,,,78,127
84814,note_on,142,0,3,,,,,,,,,3,,,66,0
84814,note_on,142,0,2,,,,,,,,,0,,,75,0
84814,note_on,142,0,4,,,,,,,,,4,,,59,0
84816,note_on,2,0,3,,,,,,,,,3,,,71,127
84816,note_on,2,0,2,,,,,,,,,0,,,75,127
84816,note_on,2,0,4,,,,,,,,,4,,,59,75
84862,note_on,94,0,1,,,,,,,,,11,,,78,0
84862,note_on,46,0,4,,,,,,,,,4,,,59,0
84862,note_on,46,0,2,,,,,,,,,0,,,75,0
84862,note_on,46,0,3,,,,,,,,,3,,,71,0
84864,note_on,2,0,1,,,,,,,,,11,,,80,127
84864,note_on,2,0,4,,,,,,,,,4,,,64,75
84864,note_on,2,0,2,,,,,,,,,0,,,71,127
84864,note_on,2,0,3,,,,,,,,,3,,,68,127
84894,note_on,30,0,1,,,,,,,,,11,,,80,0
84896,note_on,2,0,1,,,,,,,,,11,,,76,127
84926,note_on,30,0,1,,,,,,,,,11,,,76,0
84928,note_on,2,0,1,,,,,,,,,11,,,83,127
84958,note_on,30,0,1,,,,,,,,,11,,,83,0
84960,note_on,2,0,1,,,,,,,,,11,,,80,127
84990,note_on,30,0,1,,,,,,,,,11,,,80,0
84992,note_on,2,0,1,,,,,,,,,11,,,78,127
85022,note_on,30,0,1,,,,,,,,,11,,,78,0
85024,note_on,160,0,4,,,,,,,,,4,,,64,0
85024,note_on,160,0,3,,,,,,,,,3,,,68,0
85024,note_on,160,0,2,,,,,,,,,0,,,71,0
85024,note_on,2,0,1,,,,,,,,,11,,,76,127
85054,note_on,30,0,1,,,,,,,,,11,,,76,0
85056,note_on,2,0,1,,,,,,,,,11,,,71,127
85056,note_on,0,0,1,,,,,,,,,11,,,80,127
85056,note_on,32,0,2,,,,,,,,,0,,,75,127
85056,note_on,32,0,3,,,,,,,,,3,,,71,127
85056,note_on,32,0,4,,,,,,,,,4,,,59,75
85078,note_on,22,0,1,,,,,,,,,11,,,80,0
85080,note_on,2,0,1,,,,,,,,,11,,,78,127
85102,note_on,22,0,1,,,,,,,,,11,,,78,0
85104,note_on,2,0,1,,,,,,,,,11,,,80,127
85126,note_on,22,0,1,,,,,,,,,11,,,80,0
85128,note_on,2,0,1,,,,,,,,,11,,,78,127
85198,note_on,70,0,1,,,,,,,,,11,,,78,0
85200,note_on,2,0,1,,,,,,,,,11,,,76,127
85216,note_on,160,0,3,,,,,,,,,3,,,71,0
85216,note_on,160,0,2,,,,,,,,,0,,,75,0
85216,note_on,16,0,1,,,,,,,,,11,,,71,0
85216,note_on,160,0,4,,,,,,,,,4,,,59,0
85246,note_on,30,0,1,,,,,,,,,11,,,76,0
85248,note_on,32,0,3,,,,,,,,,3,,,68,127
85248,note_on,32,0,2,,,,,,,,,0,,,71,127
85248,note_on,2,0,1,,,,,,,,,11,,,76,127
85248,note_on,32,0,4,,,,,,,,,4,,,64,75
85390,note_on,142,0,2,,,,,,,,,0,,,71,0
85390,note_on,142,0,3,,,,,,,,,3,,,68,0
85390,note_on,142,0,4,,,,,,,,,4,,,64,0
85392,note_on,2,0,3,,,,,,,,,3,,,68,127
85392,note_on,2,0,2,,,,,,,,,0,,,71,127
85392,note_on,2,0,4,,,,,,,,,4,,,64,75
85408,note_on,160,0,1,,,,,,,,,11,,,76,0
85438,note_on,46,0,3,,,,,,,,,3,,,68,0
85438,note_on,46,0,2,,,,,,,,,0,,,71,0
85438,note_on,46,0,4,,,,,,,,,4,,,64,0
85440,note_on,2,0,2,,,,,,,,,0,,,71,127
85440,note_on,2,0,4,,,,,,,,,4,,,64,75
85440,note_on,2,0,3,,,,,,,,,3,,,68,127
85536,note_on,128,0,1,,,,,,,,,11,,,76,127
85582,note_on,142,0,3,,,,,,,,,3,,,68,0
85582,note_on,142,0,4,,,,,,,,,4,,,64,0
85582,note_on,142,0,2,,,,,,,,,0,,,71,0
85584,note_on,2,0,3,,,,,,,,,3,,,68,127
85584,note_on,2,0,4,,,,,,,,,4,,,62,75
85584,note_on,2,0,2,,,,,,,,,0,,,71,127
85630,note_on,46,0,3,,,,,,,,,3,,,68,0
85630,note_on,46,0,4,,,,,,,,,4,,,62,0
85630,note_on,94,0,1,,,,,,,,,11,,,76,0
85630,note_on,46,0,2,,,,,,,,,0,,,71,0
85632,note_on,2,0,4,,,,,,,,,4,,,61,75
85632,note_on,2,0,1,,,,,,,,,11,,,81,127
85632,note_on,2,0,2,,,,,,,,,0,,,76,127
85632,note_on,2,0,3,,,,,,,,,3,,,69,127
85662,note_on,30,0,1,,,,,,,,,11,,,81,0
85664,note_on,2,0,1,,,,,,,,,11,,,76,127
85694,note_on,30,0,1,,,,,,,,,11,,,76,0
85696,note_on,2,0,1,,,,,,,,,11,,,73,127
85726,note_on,30,0,1,,,,,,,,,11,,,73,0
85728,note_on,2,0,1,,,,,,,,,11,,,69,127
85758,note_on,30,0,1,,,,,,,,,11,,,69,0
85760,note_on,2,0,1,,,,,,,,,11,,,64,127
85790,note_on,30,0,1,,,,,,,,,11,,,64,0
85792,note_on,160,0,3,,,,,,,,,3,,,69,0
85792,note_on,2,0,1,,,,,,,,,11,,,61,127
85792,note_on,160,0,2,,,,,,,,,0,,,76,0
85792,note_on,160,0,4,,,,,,,,,4,,,61,0
85822,note_on,30,0,1,,,,,,,,,11,,,61,0
85824,note_on,2,0,1,,,,,,,,,11,,,57,127
85918,note_on,94,0,1,,,,,,,,,11,,,57,0
85920,note_on,2,0,1,,,,,,,,,11,,,79,127
86014,note_on,94,0,1,,,,,,,,,11,,,79,0
86016,note_on,224,0,2,,,,,,,,,0,,,69,127
86016,note_on,224,0,3,,,,,,,,,3,,,66,127
86016,note_on,2,0,1,,,,,,,,,11,,,81,127
86016,note_on,224,0,4,,,,,,,,,4,,,62,75
86038,note_on,22,0,1,,,,,,,,,11,,,81,0
86040,note_on,2,0,1,,,,,,,,,11,,,79,127
86062,note_on,22,0,1,,,,,,,,,11,,,79,0
86064,note_on,2,0,1,,,,,,,,,11,,,81,127
86086,note_on,22,0,1,,,,,,,,,11,,,81,0
86088,note_on,2,0,1,,,,,,,,,11,,,79,127
86110,note_on,22,0,1,,,,,,,,,11,,,79,0
86112,note_on,2,0,1,,,,,,,,,11,,,78,127
86158,note_on,142,0,3,,,,,,,,,3,,,66,0
86158,note_on,142,0,4,,,,,,,,,4,,,62,0
86158,note_on,142,0,2,,,,,,,,,0,,,69,0
86160,note_on,2,0,3,,,,,,,,,3,,,66,127
86160,note_on,2,0,4,,,,,,,,,4,,,62,75
86160,note_on,2,0,2,,,,,,,,,0,,,69,127
86206,note_on,46,0,4,,,,,,,,,4,,,62,0
86206,note_on,46,0,3,,,,,,,,,3,,,66,0
86206,note_on,46,0,2,,,,,,,,,0,,,69,0
86208,note_on,2,0,4,,,,,,,,,4,,,62,75
86208,note_on,2,0,2,,,,,,,,,0,,,69,127
86208,note_on,2,0,3,,,,,,,,,3,,,66,127
86302,note_on,190,0,1,,,,,,,,,11,,,78,0
86304,note_on,2,0,1,,,,,,,,,11,,,78,127
86350,note_on,142,0,3,,,,,,,,,3,,,66,0
86350,note_on,142,0,4,,,,,,,,,4,,,62,0
86350,note_on,142,0,2,,,,,,,,,0,,,69,0
86352,note_on,2,0,3,,,,,,,,,3,,,66,127
86352,note_on,2,0,2,,,,,,,,,0,,,69,127
86352,note_on,2,0,4,,,,,,,,,4,,,62,75
86398,note_on,46,0,3,,,,,,,,,3,,,66,0
86398,note_on,46,0,4,,,,,,,,,4,,,62,0
86398,note_on,46,0,2,,,,,,,,,0,,,69,0
86398,note_on,94,0,1,,,,,,,,,11,,,78,0
86400,note_on,2,0,2,,,,,,,,,0,,,71,127
86400,note_on,2,0,4,,,,,,,,,4,,,63,75
86400,note_on,2,0,1,,,,,,,,,11,,,83,127
86400,note_on,2,0,3,,,,,,,,,3,,,66,127
86430,note_on,30,0,1,,,,,,,,,11,,,83,0
86432,note_on,2,0,1,,,,,,,,,11,,,78,127
86462,note_on,30,0,1,,,,,,,,,11,,,78,0
86464,note_on,2,0,1,,,,,,,,,11,,,75,127
86494,note_on,30,0,1,,,,,,,,,11,,,75,0
86496,note_on,2,0,1,,,,,,,,,11,,,71,127
86526,note_on,30,0,1,,,,,,,,,11,,,71,0
86528,note_on,2,0,1,,,,,,,,,11,,,66,127
86558,note_on,30,0,1,,,,,,,,,11,,,66,0
86560,note_on,2,0,1,,,,,,,,,11,,,64,127
86560,note_on,160,0,3,,,,,,,,,3,,,66,0
86560,note_on,160,0,4,,,,,,,,,4,,,63,0
86560,note_on,160,0,2,,,,,,,,,0,,,71,0
86590,note_on,30,0,1,,,,,,,,,11,,,64,0
86592,note_on,2,0,1,,,,,,,,,11,,,59,127
86686,note_on,94,0,1,,,,,,,,,11,,,59,0
86688,note_on,2,0,1,,,,,,,,,11,,,81,127
86782,note_on,94,0,1,,,,,,,,,11,,,81,0
86784,note_on,224,0,4,,,,,,,,,4,,,64,75
86784,note_on,2,0,1,,,,,,,,,11,,,83,127
86784,note_on,224,0,3,,,,,,,,,3,,,68,127
86784,note_on,224,0,2,,,,,,,,,0,,,71,127
86806,note_on,22,0,1,,,,,,,,,11,,,83,0
86808,note_on,2,0,1,,,,,,,,,11,,,81,127
86830,note_on,22,0,1,,,,,,,,,11,,,81,0
86832,note_on,2,0,1,,,,,,,,,11,,,83,127
86854,note_on,22,0,1,,,,,,,,,11,,,83,0
86856,note_on,2,0,1,,,,,,,,,11,,,81,127
86878,note_on,22,0,1,,,,,,,,,11,,,81,0
86880,note_on,2,0,1,,,,,,,,,11,,,80,127
86926,note_on,142,0,3,,,,,,,,,3,,,68,0
86926,note_on,142,0,2,,,,,,,,,0,,,71,0
86926,note_on,142,0,4,,,,,,,,,4,,,64,0
86928,note_on,2,0,4,,,,,,,,,4,,,64,75
86928,note_on,2,0,2,,,,,,,,,0,,,71,127
86928,note_on,2,0,3,,,,,,,,,3,,,68,127
86974,note_on,46,0,2,,,,,,,,,0,,,71,0
86974,note_on,46,0,3,,,,,,,,,3,,,68,0
86974,note_on,46,0,4,,,,,,,,,4,,,64,0
86976,note_on,2,0,4,,,,,,,,,4,,,64,75
86976,note_on,2,0,2,,,,,,,,,0,,,71,127
86976,note_on,2,0,3,,,,,,,,,3,,,68,127
87070,note_on,190,0,1,,,,,,,,,11,,,80,0
87072,note_on,2,0,1,,,,,,,,,11,,,80,127
87118,note_on,142,0,4,,,,,,,,,4,,,64,0
87118,note_on,142,0,2,,,,,,,,,0,,,71,0
87118,note_on,142,0,3,,,,,,,,,3,,,68,0
87120,note_on,2,0,3,,,,,,,,,3,,,68,127
87120,note_on,2,0,2,,,,,,,,,0,,,71,127
87120,note_on,2,0,4,,,,,,,,,4,,,64,75
87166,note_on,46,0,4,,,,,,,,,4,,,64,0
87166,note_on,46,0,3,,,,,,,,,3,,,68,0
87166,note_on,46,0,2,,,,,,,,,0,,,71,0
87166,note_on,94,0,1,,,,,,,,,11,,,80,0
87168,note_on,2,0,3,,,,,,,,,3,,,68,127
87168,note_on,2,0,1,,,,,,,,,11,,,64,127
87168,note_on,2,0,2,,,,,,,,,0,,,73,127
87168,note_on,2,0,4,,,,,,,,,4,,,64,75
87198,note_on,30,0,1,,,,,,,,,11,,,64,0
87200,note_on,2,0,1,,,,,,,,,11,,,73,127
87230,note_on,30,0,1,,,,,,,,,11,,,73,0
87232,note_on,2,0,1,,,,,,,,,11,,,80,127
87262,note_on,30,0,1,,,,,,,,,11,,,80,0
87264,note_on,2,0,1,,,,,,,,,11,,,75,127
87294,note_on,30,0,1,,,,,,,,,11,,,75,0
87296,note_on,2,0,1,,,,,,,,,11,,,73,127
87326,note_on,30,0,1,,,,,,,,,11,,,73,0
87328,note_on,160,0,2,,,,,,,,,0,,,73,0
87328,note_on,160,0,4,,,,,,,,,4,,,64,0
87328,note_on,160,0,3,,,,,,,,,3,,,68,0
87328,note_on,2,0,1,,,,,,,,,11,,,72,127
87358,note_on,30,0,1,,,,,,,,,11,,,72,0
87360,note_on,32,0,3,,,,,,,,,3,,,68,127
87360,note_on,2,0,1,,,,,,,,,11,,,64,127
87360,note_on,32,0,2,,,,,,,,,0,,,73,127
87360,note_on,32,0,4,,,,,,,,,4,,,64,75
87390,note_on,30,0,1,,,,,,,,,11,,,64,0
87392,note_on,2,0,1,,,,,,,,,11,,,73,127
87422,note_on,30,0,1,,,,,,,,,11,,,73,0
87424,note_on,2,0,1,,,,,,,,,11,,,80,127
87454,note_on,30,0,1,,,,,,,,,11,,,80,0
87456,note_on,2,0,1,,,,,,,,,11,,,75,127
87486,note_on,30,0,1,,,,,,,,,11,,,75,0
87488,note_on,2,0,1,,,,,,,,,11,,,73,127
87518,note_on,30,0,1,,,,,,,,,11,,,73,0
87520,note_on,2,0,1,,,,,,,,,11,,,72,127
87520,note_on,160,0,4,,,,,,,,,4,,,64,0
87520,note_on,160,0,3,,,,,,,,,3,,,68,0
87520,note_on,160,0,2,,,,,,,,,0,,,73,0
87550,note_on,30,0,1,,,,,,,,,11,,,72,0
87552,note_on,2,0,1,,,,,,,,,11,,,73,127
87552,note_on,32,0,4,,,,,,,,,4,,,64,75
87552,note_on,32,0,3,,,,,,,,,3,,,68,127
87552,note_on,32,0,2,,,,,,,,,0,,,73,127
87582,note_on,30,0,1,,,,,,,,,11,,,73,0
87584,note_on,2,0,1,,,,,,,,,11,,,75,127
87614,note_on,30,0,1,,,,,,,,,11,,,75,0
87616,note_on,2,0,1,,,,,,,,,11,,,76,127
87646,note_on,30,0,1,,,,,,,,,11,,,76,0
87648,note_on,2,0,1,,,,,,,,,11,,,76,127
87678,note_on,30,0,1,,,,,,,,,11,,,76,0
87680,note_on,2,0,1,,,,,,,,,11,,,78,127
87710,note_on,30,0,1,,,,,,,,,11,,,78,0
87712,note_on,2,0,1,,,,,,,,,11,,,80,127
87712,note_on,160,0,4,,,,,,,,,4,,,64,0
87712,note_on,160,0,2,,,,,,,,,0,,,73,0
87712,note_on,160,0,3,,,,,,,,,3,,,68,0
87742,note_on,30,0,1,,,,,,,,,11,,,80,0
87744,note_on,2,0,1,,,,,,,,,11,,,81,127
87774,note_on,30,0,1,,,,,,,,,11,,,81,0
87776,note_on,2,0,1,,,,,,,,,11,,,80,127
87806,note_on,30,0,1,,,,,,,,,11,,,80,0
87808,note_on,2,0,1,,,,,,,,,11,,,78,127
87838,note_on,30,0,1,,,,,,,,,11,,,78,0
87840,note_on,2,0,1,,,,,,,,,11,,,76,127
87870,note_on,30,0,1,,,,,,,,,11,,,76,0
87872,note_on,2,0,1,,,,,,,,,11,,,75,127
87902,note_on,30,0,1,,,,,,,,,11,,,75,0
87904,note_on,2,0,1,,,,,,,,,11,,,73,127
87934,note_on,30,0,1,,,,,,,,,11,,,73,0
87936,note_on,224,0,2,,,,,,,,,0,,,75,127
87936,note_on,224,0,4,,,,,,,,,4,,,68,75
87936,note_on,224,0,3,,,,,,,,,3,,,68,127
87936,note_on,2,0,1,,,,,,,,,11,,,75,127
87958,note_on,22,0,1,,,,,,,,,11,,,75,0
87960,note_on,2,0,1,,,,,,,,,11,,,73,127
87982,note_on,22,0,1,,,,,,,,,11,,,73,0
87984,note_on,2,0,1,,,,,,,,,11,,,75,127
88006,note_on,22,0,1,,,,,,,,,11,,,75,0
88008,note_on,2,0,1,,,,,,,,,11,,,73,127
88030,note_on,22,0,1,,,,,,,,,11,,,73,0
88032,note_on,2,0,1,,,,,,,,,11,,,72,127
88078,note_on,142,0,4,,,,,,,,,4,,,68,0
88078,note_on,142,0,3,,,,,,,,,3,,,68,0
88078,note_on,142,0,2,,,,,,,,,0,,,75,0
88080,note_on,2,0,3,,,,,,,,,3,,,68,127
88080,note_on,2,0,4,,,,,,,,,4,,,68,75
88080,note_on,2,0,2,,,,,,,,,0,,,75,127
88126,note_on,46,0,2,,,,,,,,,0,,,75,0
88126,note_on,46,0,4,,,,,,,,,4,,,68,0
88126,note_on,46,0,3,,,,,,,,,3,,,68,0
88128,note_on,2,0,3,,,,,,,,,3,,,68,127
88128,note_on,2,0,2,,,,,,,,,0,,,75,127
88128,note_on,2,0,4,,,,,,,,,4,,,60,75
88222,note_on,190,0,1,,,,,,,,,11,,,72,0
88224,note_on,2,0,1,,,,,,,,,11,,,80,127
88270,note_on,142,0,4,,,,,,,,,4,,,60,0
88270,note_on,142,0,2,,,,,,,,,0,,,75,0
88270,note_on,142,0,3,,,,,,,,,3,,,68,0
88272,note_on,2,0,4,,,,,,,,,4,,,60,75
88272,note_on,2,0,2,,,,,,,,,0,,,75,127
88272,note_on,2,0,3,,,,,,,,,3,,,68,127
88318,note_on,46,0,2,,,,,,,,,0,,,75,0
88318,note_on,94,0,1,,,,,,,,,11,,,80,0
88318,note_on,46,0,4,,,,,,,,,4,,,60,0
88318,note_on,46,0,3,,,,,,,,,3,,,68,0
88320,note_on,2,0,3,,,,,,,,,3,,,68,127
88320,note_on,2,0,2,,,,,,,,,0,,,76,127
88320,note_on,2,0,4,,,,,,,,,4,,,61,75
88320,note_on,2,0,1,,,,,,,,,11,,,85,127
88350,note_on,30,0,1,,,,,,,,,11,,,85,0
88352,note_on,2,0,1,,,,,,,,,11,,,80,127
88382,note_on,30,0,1,,,,,,,,,11,,,80,0
88384,note_on,2,0,1,,,,,,,,,11,,,76,127
88414,note_on,30,0,1,,,,,,,,,11,,,76,0
88416,note_on,2,0,1,,,,,,,,,11,,,73,127
88446,note_on,30,0,1,,,,,,,,,11,,,73,0
88448,note_on,2,0,1,,,,,,,,,11,,,64,127
88478,note_on,30,0,1,,,,,,,,,11,,,64,0
88480,note_on,160,0,3,,,,,,,,,3,,,68,0
88480,note_on,160,0,4,,,,,,,,,4,,,61,0
88480,note_on,160,0,2,,,,,,,,,0,,,76,0
88480,note_on,2,0,1,,,,,,,,,11,,,73,127
88510,note_on,30,0,1,,,,,,,,,11,,,73,0
88512,note_on,2,0,1,,,,,,,,,11,,,76,127
88542,note_on,30,0,1,,,,,,,,,11,,,76,0
88544,note_on,2,0,1,,,,,,,,,11,,,73,127
88574,note_on,30,0,1,,,,,,,,,11,,,73,0
88576,note_on,2,0,1,,,,,,,,,11,,,76,127
88606,note_on,30,0,1,,,,,,,,,11,,,76,0
88608,note_on,2,0,1,,,,,,,,,11,,,80,127
88638,note_on,30,0,1,,,,,,,,,11,,,80,0
88640,note_on,2,0,1,,,,,,,,,11,,,76,127
88670,note_on,30,0,1,,,,,,,,,11,,,76,0
88672,note_on,2,0,1,,,,,,,,,11,,,80,127
88702,note_on,30,0,1,,,,,,,,,11,,,80,0
88704,note_on,224,0,2,,,,,,,,,0,,,76,127
88704,note_on,224,0,4,,,,,,,,,4,,,61,75
88704,note_on,224,0,3,,,,,,,,,3,,,68,127
88704,note_on,2,0,1,,,,,,,,,11,,,85,127
88734,note_on,30,0,1,,,,,,,,,11,,,85,0
88736,note_on,2,0,1,,,,,,,,,11,,,80,127
88766,note_on,30,0,1,,,,,,,,,11,,,80,0
88768,note_on,2,0,1,,,,,,,,,11,,,76,127
88798,note_on,30,0,1,,,,,,,,,11,,,76,0
88800,note_on,2,0,1,,,,,,,,,11,,,73,127
88830,note_on,30,0,1,,,,,,,,,11,,,73,0
88832,note_on,2,0,1,,,,,,,,,11,,,64,127
88862,note_on,30,0,1,,,,,,,,,11,,,64,0
88864,note_on,160,0,2,,,,,,,,,0,,,76,0
88864,note_on,2,0,1,,,,,,,,,11,,,73,127
88864,note_on,160,0,4,,,,,,,,,4,,,61,0
88864,note_on,160,0,3,,,,,,,,,3,,,68,0
88894,note_on,30,0,1,,,,,,,,,11,,,73,0
88896,note_on,32,0,4,,,,,,,,,4,,,56,75
88896,note_on,2,0,1,,,,,,,,,11,,,76,127
88896,note_on,32,0,3,,,,,,,,,3,,,72,127
88896,note_on,32,0,2,,,,,,,,,0,,,75,127
88918,note_on,22,0,1,,,,,,,,,11,,,76,0
88920,note_on,2,0,1,,,,,,,,,11,,,75,127
88942,note_on,22,0,1,,,,,,,,,11,,,75,0
88944,note_on,2,0,1,,,,,,,,,11,,,76,127
88966,note_on,22,0,1,,,,,,,,,11,,,76,0
88968,note_on,2,0,1,,,,,,,,,11,,,75,127
88990,note_on,22,0,1,,,,,,,,,11,,,75,0
88992,note_on,2,0,1,,,,,,,,,11,,,76,127
89014,note_on,22,0,1,,,,,,,,,11,,,76,0
89016,note_on,2,0,1,,,,,,,,,11,,,75,127
89056,note_on,160,0,4,,,,,,,,,4,,,56,0
89056,note_on,160,0,3,,,,,,,,,3,,,72,0
89056,note_on,160,0,2,,,,,,,,,0,,,75,0
89086,note_on,70,0,1,,,,,,,,,11,,,75,0
89088,note_on,32,0,4,,,,,,,,,4,,,61,75
89088,note_on,32,0,3,,,,,,,,,3,,,68,127
89088,note_on,32,0,2,,,,,,,,,0,,,76,127
89088,note_on,2,0,1,,,,,,,,,11,,,73,127
89230,note_on,142,0,2,,,,,,,,,0,,,76,0
89230,note_on,142,0,4,,,,,,,,,4,,,61,0
89230,note_on,142,0,3,,,,,,,,,3,,,68,0
89232,note_on,2,0,3,,,,,,,,,3,,,68,127
89232,note_on,2,0,2,,,,,,,,,0,,,76,127
89232,note_on,2,0,4,,,,,,,,,4,,,61,75
89248,note_on,160,0,1,,,,,,,,,11,,,73,0
89278,note_on,46,0,2,,,,,,,,,0,,,76,0
89278,note_on,46,0,4,,,,,,,,,4,,,61,0
89278,note_on,46,0,3,,,,,,,,,3,,,68,0
89280,note_on,2,0,4,,,,,,,,,4,,,61,75
89280,note_on,2,0,3,,,,,,,,,3,,,68,127
89280,note_on,2,0,2,,,,,,,,,0,,,76,127
89376,note_on,128,0,1,,,,,,,,,11,,,76,127
89422,note_on,142,0,4,,,,,,,,,4,,,61,0
89422,note_on,142,0,3,,,,,,,,,3,,,68,0
89422,note_on,142,0,2,,,,,,,,,0,,,76,0
89424,note_on,2,0,3,,,,,,,,,3,,,68,127
89424,note_on,2,0,4,,,,,,,,,4,,,61,75
89424,note_on,2,0,2,,,,,,,,,0,,,76,127
89470,note_on,94,0,1,,,,,,,,,11,,,76,0
89470,note_on,46,0,2,,,,,,,,,0,,,76,0
89470,note_on,46,0,4,,,,,,,,,4,,,61,0
89470,note_on,46,0,3,,,,,,,,,3,,,68,0
89472,note_on,2,0,3,,,,,,,,,3,,,69,127
89472,note_on,2,0,1,,,,,,,,,11,,,81,127
89472,note_on,2,0,4,,,,,,,,,4,,,61,75
89472,note_on,2,0,2,,,,,,,,,0,,,76,127
89502,note_on,30,0,1,,,,,,,,,11,,,81,0
89504,note_on,2,0,1,,,,,,,,,11,,,76,127
89534,note_on,30,0,1,,,,,,,,,11,,,76,0
89536,note_on,2,0,1,,,,,,,,,11,,,73,127
89566,note_on,30,0,1,,,,,,,,,11,,,73,0
89568,note_on,2,0,1,,,,,,,,,11,,,69,127
89598,note_on,30,0,1,,,,,,,,,11,,,69,0
89600,note_on,2,0,1,,,,,,,,,11,,,64,127
89630,note_on,30,0,1,,,,,,,,,11,,,64,0
89632,note_on,2,0,1,,,,,,,,,11,,,61,127
89632,note_on,160,0,3,,,,,,,,,3,,,69,0
89632,note_on,160,0,4,,,,,,,,,4,,,61,0
89632,note_on,160,0,2,,,,,,,,,0,,,76,0
89662,note_on,30,0,1,,,,,,,,,11,,,61,0
89664,note_on,2,0,1,,,,,,,,,11,,,57,127
89758,note_on,94,0,1,,,,,,,,,11,,,57,0
89760,note_on,2,0,1,,,,,,,,,11,,,81,127
89854,note_on,94,0,1,,,,,,,,,11,,,81,0
89856,note_on,2,0,1,,,,,,,,,11,,,73,127
89856,note_on,224,0,3,,,,,,,,,3,,,73,127
89856,note_on,224,0,4,,,,,,,,,4,,,57,75
89856,note_on,224,0,2,,,,,,,,,0,,,76,127
89886,note_on,30,0,1,,,,,,,,,11,,,73,0
89888,note_on,2,0,1,,,,,,,,,11,,,71,127
89918,note_on,30,0,1,,,,,,,,,11,,,71,0
89920,note_on,2,0,1,,,,,,,,,11,,,69,127
89950,note_on,94,0,4,,,,,,,,,4,,,57,0
89950,note_on,94,0,3,,,,,,,,,3,,,73,0
89950,note_on,94,0,2,,,,,,,,,0,,,76,0
89950,note_on,30,0,1,,,,,,,,,11,,,69,0
89952,note_on,2,0,4,,,,,,,,,4,,,57,75
89952,note_on,2,0,1,,,,,,,,,11,,,67,127
89952,note_on,0,0,1,,,,,,,,,11,,,69,127
89952,note_on,2,0,2,,,,,,,,,0,,,76,127
89952,note_on,2,0,3,,,,,,,,,3,,,73,127
90046,note_on,94,0,4,,,,,,,,,4,,,57,0
90046,note_on,94,0,1,,,,,,,,,11,,,67,0
90046,note_on,94,0,2,,,,,,,,,0,,,76,0
90046,note_on,0,0,1,,,,,,,,,11,,,69,0
90046,note_on,94,0,3,,,,,,,,,3,,,73,0
90048,note_on,2,0,1,,,,,,,,,11,,,67,127
90048,note_on,0,0,1,,,,,,,,,11,,,69,127
90048,note_on,2,0,3,,,,,,,,,3,,,73,127
90048,note_on,2,0,2,,,,,,,,,0,,,76,127
90048,note_on,2,0,4,,,,,,,,,4,,,57,75
90142,note_on,94,0,3,,,,,,,,,3,,,73,0
90142,note_on,94,0,4,,,,,,,,,4,,,57,0
90142,note_on,0,0,1,,,,,,,,,11,,,69,0
90142,note_on,94,0,2,,,,,,,,,0,,,76,0
90142,note_on,94,0,1,,,,,,,,,11,,,67,0
90144,note_on,2,0,2,,,,,,,,,0,,,76,127
90144,note_on,2,0,3,,,,,,,,,3,,,73,127
90144,note_on,2,0,4,,,,,,,,,4,,,57,75
90144,note_on,2,0,1,,,,,,,,,11,,,81,127
90238,note_on,94,0,4,,,,,,,,,4,,,57,0
90238,note_on,94,0,1,,,,,,,,,11,,,81,0
90238,note_on,94,0,2,,,,,,,,,0,,,76,0
90238,note_on,94,0,3,,,,,,,,,3,,,73,0
90240,note_on,2,0,3,,,,,,,,,3,,,71,127
90240,note_on,2,0,2,,,,,,,,,0,,,68,127
90240,note_on,2,0,1,,,,,,,,,11,,,80,127
90240,note_on,2,0,4,,,,,,,,,4,,,64,75
90270,note_on,30,0,1,,,,,,,,,11,,,80,0
90272,note_on,2,0,1,,,,,,,,,11,,,78,127
90302,note_on,30,0,1,,,,,,,,,11,,,78,0
90304,note_on,2,0,1,,,,,,,,,11,,,76,127
90334,note_on,94,0,3,,,,,,,,,3,,,71,0
90334,note_on,94,0,2,,,,,,,,,0,,,68,0
90334,note_on,30,0,1,,,,,,,,,11,,,76,0
90334,note_on,94,0,4,,,,,,,,,4,,,64,0
90336,note_on,2,0,4,,,,,,,,,4,,,64,75
90336,note_on,2,0,2,,,,,,,,,0,,,68,127
90336,note_on,2,0,1,,,,,,,,,11,,,76,127
90336,note_on,2,0,3,,,,,,,,,3,,,71,127
90430,note_on,94,0,1,,,,,,,,,11,,,76,0
90430,note_on,94,0,3,,,,,,,,,3,,,71,0
90430,note_on,94,0,2,,,,,,,,,0,,,68,0
90430,note_on,94,0,4,,,,,,,,,4,,,64,0
90432,note_on,2,0,1,,,,,,,,,11,,,76,127
90432,note_on,2,0,2,,,,,,,,,0,,,68,127
90432,note_on,2,0,3,,,,,,,,,3,,,71,127
90432,note_on,2,0,4,,,,,,,,,4,,,64,75
90526,note_on,94,0,3,,,,,,,,,3,,,71,0
90526,note_on,94,0,2,,,,,,,,,0,,,68,0
90526,note_on,94,0,1,,,,,,,,,11,,,76,0
90526,note_on,94,0,4,,,,,,,,,4,,,64,0
90528,note_on,2,0,4,,,,,,,,,4,,,64,75
90528,note_on,2,0,1,,,,,,,,,11,,,80,127
90528,note_on,2,0,3,,,,,,,,,3,,,71,127
90528,note_on,2,0,2,,,,,,,,,0,,,68,127
90622,note_on,94,0,4,,,,,,,,,4,,,64,0
90622,note_on,94,0,3,,,,,,,,,3,,,71,0
90622,note_on,94,0,2,,,,,,,,,0,,,68,0
90622,note_on,94,0,1,,,,,,,,,11,,,80,0
90624,note_on,2,0,2,,,,,,,,,0,,,68,127
90624,note_on,2,0,4,,,,,,,,,4,,,64,75
90624,note_on,2,0,1,,,,,,,,,11,,,83,127
90624,note_on,2,0,3,,,,,,,,,3,,,71,127
90654,note_on,30,0,1,,,,,,,,,11,,,83,0
90656,note_on,2,0,1,,,,,,,,,11,,,80,127
90686,note_on,30,0,1,,,,,,,,,11,,,80,0
90688,note_on,2,0,1,,,,,,,,,11,,,76,127
90718,note_on,30,0,1,,,,,,,,,11,,,76,0
90718,note_on,94,0,2,,,,,,,,,0,,,68,0
90718,note_on,94,0,4,,,,,,,,,4,,,64,0
90718,note_on,94,0,3,,,,,,,,,3,,,71,0
90720,note_on,2,0,4,,,,,,,,,4,,,64,75
90720,note_on,2,0,1,,,,,,,,,11,,,86,127
90720,note_on,2,0,2,,,,,,,,,0,,,68,127
90720,note_on,2,0,3,,,,,,,,,3,,,71,127
90750,note_on,30,0,1,,,,,,,,,11,,,86,0
90752,note_on,2,0,1,,,,,,,,,11,,,83,127
90782,note_on,30,0,1,,,,,,,,,11,,,83,0
90784,note_on,2,0,1,,,,,,,,,11,,,80,127
90814,note_on,94,0,3,,,,,,,,,3,,,71,0
90814,note_on,94,0,4,,,,,,,,,4,,,64,0
90814,note_on,30,0,1,,,,,,,,,11,,,80,0
90814,note_on,94,0,2,,,,,,,,,0,,,68,0
90816,note_on,2,0,4,,,,,,,,,4,,,64,75
90816,note_on,2,0,1,,,,,,,,,11,,,62,127
90816,note_on,2,0,2,,,,,,,,,0,,,68,127
90816,note_on,2,0,3,,,,,,,,,3,,,71,127
90910,note_on,94,0,4,,,,,,,,,4,,,64,0
90910,note_on,94,0,1,,,,,,,,,11,,,62,0
90910,note_on,94,0,2,,,,,,,,,0,,,68,0
90910,note_on,94,0,3,,,,,,,,,3,,,71,0
90912,note_on,2,0,4,,,,,,,,,4,,,64,75
90912,note_on,2,0,3,,,,,,,,,3,,,71,127
90912,note_on,2,0,2,,,,,,,,,0,,,68,127
90912,note_on,2,0,1,,,,,,,,,11,,,74,127
91006,note_on,94,0,1,,,,,,,,,11,,,74,0
91006,note_on,94,0,2,,,,,,,,,0,,,68,0
91006,note_on,94,0,4,,,,,,,,,4,,,64,0
91006,note_on,94,0,3,,,,,,,,,3,,,71,0
91008,note_on,2,0,2,,,,,,,,,0,,,64,127
91008,note_on,2,0,4,,,,,,,,,4,,,57,75
91008,note_on,2,0,1,,,,,,,,,11,,,76,127
91008,note_on,2,0,3,,,,,,,,,3,,,69,127
91030,note_on,22,0,1,,,,,,,,,11,,,76,0
91032,note_on,2,0,1,,,,,,,,,11,,,74,127
91054,note_on,22,0,1,,,,,,,,,11,,,74,0
91056,note_on,2,0,1,,,,,,,,,11,,,76,127
91078,note_on,22,0,1,,,,,,,,,11,,,76,0
91080,note_on,2,0,1,,,,,,,,,11,,,74,127
91102,note_on,94,0,4,,,,,,,,,4,,,57,0
91102,note_on,94,0,2,,,,,,,,,0,,,64,0
91102,note_on,22,0,1,,,,,,,,,11,,,74,0
91102,note_on,94,0,3,,,,,,,,,3,,,69,0
91104,note_on,2,0,2,,,,,,,,,0,,,76,127
91104,note_on,2,0,1,,,,,,,,,11,,,73,127
91104,note_on,2,0,3,,,,,,,,,3,,,73,127
91104,note_on,2,0,4,,,,,,,,,4,,,57,75
91198,note_on,94,0,1,,,,,,,,,11,,,73,0
91198,note_on,94,0,2,,,,,,,,,0,,,76,0
91198,note_on,94,0,3,,,,,,,,,3,,,73,0
91198,note_on,94,0,4,,,,,,,,,4,,,57,0
91200,note_on,2,0,4,,,,,,,,,4,,,57,75
91200,note_on,2,0,3,,,,,,,,,3,,,73,127
91200,note_on,2,0,2,,,,,,,,,0,,,76,127
91294,note_on,94,0,4,,,,,,,,,4,,,57,0
91294,note_on,94,0,3,,,,,,,,,3,,,73,0
91294,note_on,94,0,2,,,,,,,,,0,,,76,0
91296,note_on,2,0,2,,,,,,,,,0,,,76,127
91296,note_on,2,0,3,,,,,,,,,3,,,73,127
91296,note_on,2,0,4,,,,,,,,,4,,,57,75
91296,note_on,98,0,1,,,,,,,,,11,,,76,127
91390,note_on,94,0,2,,,,,,,,,0,,,76,0
91390,note_on,94,0,1,,,,,,,,,11,,,76,0
91390,note_on,94,0,3,,,,,,,,,3,,,73,0
91390,note_on,94,0,4,,,,,,,,,4,,,57,0
91392,note_on,2,0,3,,,,,,,,,3,,,69,127
91392,note_on,2,0,2,,,,,,,,,0,,,73,127
91392,note_on,2,0,4,,,,,,,,,4,,,64,75
91392,note_on,2,0,1,,,,,,,,,11,,,69,127
91422,note_on,30,0,1,,,,,,,,,11,,,69,0
91424,note_on,2,0,1,,,,,,,,,11,,,64,127
91454,note_on,30,0,1,,,,,,,,,11,,,64,0
91456,note_on,2,0,1,,,,,,,,,11,,,69,127
91486,note_on,30,0,1,,,,,,,,,11,,,69,0
91488,note_on,2,0,1,,,,,,,,,11,,,73,127
91518,note_on,30,0,1,,,,,,,,,11,,,73,0
91520,note_on,2,0,1,,,,,,,,,11,,,71,127
91550,note_on,30,0,1,,,,,,,,,11,,,71,0
91552,note_on,2,0,1,,,,,,,,,11,,,69,127
91552,note_on,160,0,2,,,,,,,,,0,,,73,0
91552,note_on,160,0,3,,,,,,,,,3,,,69,0
91552,note_on,160,0,4,,,,,,,,,4,,,64,0
91582,note_on,30,0,1,,,,,,,,,11,,,69,0
91584,note_on,32,0,3,,,,,,,,,3,,,71,127
91584,note_on,2,0,1,,,,,,,,,11,,,71,127
91584,note_on,32,0,2,,,,,,,,,0,,,74,127
91584,note_on,32,0,4,,,,,,,,,4,,,64,75
91614,note_on,30,0,1,,,,,,,,,11,,,71,0
91616,note_on,2,0,1,,,,,,,,,11,,,64,127
91646,note_on,30,0,1,,,,,,,,,11,,,64,0
91648,note_on,2,0,1,,,,,,,,,11,,,71,127
91678,note_on,30,0,1,,,,,,,,,11,,,71,0
91680,note_on,2,0,1,,,,,,,,,11,,,74,127
91710,note_on,30,0,1,,,,,,,,,11,,,74,0
91712,note_on,2,0,1,,,,,,,,,11,,,73,127
91742,note_on,30,0,1,,,,,,,,,11,,,73,0
91744,note_on,160,0,3,,,,,,,,,3,,,71,0
91744,note_on,160,0,4,,,,,,,,,4,,,64,0
91744,note_on,2,0,1,,,,,,,,,11,,,71,127
91744,note_on,160,0,2,,,,,,,,,0,,,74,0
91774,note_on,30,0,1,,,,,,,,,11,,,71,0
91776,note_on,32,0,3,,,,,,,,,3,,,73,127
91776,note_on,32,0,4,,,,,,,,,4,,,64,75
91776,note_on,2,0,1,,,,,,,,,11,,,73,127
91776,note_on,32,0,2,,,,,,,,,0,,,76,127
91806,note_on,30,0,1,,,,,,,,,11,,,73,0
91808,note_on,2,0,1,,,,,,,,,11,,,64,127
91838,note_on,30,0,1,,,,,,,,,11,,,64,0
91840,note_on,2,0,1,,,,,,,,,11,,,73,127
91870,note_on,30,0,1,,,,,,,,,11,,,73,0
91872,note_on,2,0,1,,,,,,,,,11,,,76,127
91902,note_on,30,0,1,,,,,,,,,11,,,76,0
91904,note_on,2,0,1,,,,,,,,,11,,,74,127
91934,note_on,30,0,1,,,,,,,,,11,,,74,0
91936,note_on,160,0,4,,,,,,,,,4,,,64,0
91936,note_on,2,0,1,,,,,,,,,11,,,73,127
91936,note_on,160,0,2,,,,,,,,,0,,,76,0
91936,note_on,160,0,3,,,,,,,,,3,,,73,0
91966,note_on,30,0,1,,,,,,,,,11,,,73,0
91968,note_on,32,0,4,,,,,,,,,4,,,64,75
91968,note_on,2,0,1,,,,,,,,,11,,,71,127
91968,note_on,32,0,2,,,,,,,,,0,,,74,127
91968,note_on,32,0,3,,,,,,,,,3,,,71,127
91998,note_on,30,0,1,,,,,,,,,11,,,71,0
92000,note_on,2,0,1,,,,,,,,,11,,,62,127
92030,note_on,30,0,1,,,,,,,,,11,,,62,0
92032,note_on,2,0,1,,,,,,,,,11,,,71,127
92062,note_on,30,0,1,,,,,,,,,11,,,71,0
92064,note_on,2,0,1,,,,,,,,,11,,,74,127
92094,note_on,30,0,1,,,,,,,,,11,,,74,0
92096,note_on,2,0,1,,,,,,,,,11,,,73,127
92126,note_on,30,0,1,,,,,,,,,11,,,73,0
92128,note_on,160,0,2,,,,,,,,,0,,,74,0
92128,note_on,2,0,1,,,,,,,,,11,,,71,127
92128,note_on,160,0,3,,,,,,,,,3,,,71,0
92128,note_on,160,0,4,,,,,,,,,4,,,64,0
92158,note_on,30,0,1,,,,,,,,,11,,,71,0
92160,note_on,32,0,4,,,,,,,,,4,,,64,75
92160,note_on,32,0,2,,,,,,,,,0,,,73,127
92160,note_on,2,0,1,,,,,,,,,11,,,73,127
92160,note_on,32,0,3,,,,,,,,,3,,,69,127
92190,note_on,30,0,1,,,,,,,,,11,,,73,0
92192,note_on,2,0,1,,,,,,,,,11,,,76,127
92222,note_on,30,0,1,,,,,,,,,11,,,76,0
92224,note_on,2,0,1,,,,,,,,,11,,,69,127
92254,note_on,30,0,1,,,,,,,,,11,,,69,0
92256,note_on,2,0,1,,,,,,,,,11,,,73,127
92286,note_on,30,0,1,,,,,,,,,11,,,73,0
92288,note_on,2,0,1,,,,,,,,,11,,,71,127
92318,note_on,30,0,1,,,,,,,,,11,,,71,0
92320,note_on,2,0,1,,,,,,,,,11,,,69,127
92320,note_on,160,0,4,,,,,,,,,4,,,64,0
92320,note_on,160,0,2,,,,,,,,,0,,,73,0
92320,note_on,160,0,3,,,,,,,,,3,,,69,0
92350,note_on,30,0,1,,,,,,,,,11,,,69,0
92352,note_on,32,0,2,,,,,,,,,0,,,71,127
92352,note_on,32,0,3,,,,,,,,,3,,,68,127
92352,note_on,2,0,1,,,,,,,,,11,,,73,127
92352,note_on,32,0,4,,,,,,,,,4,,,64,75
92374,note_on,22,0,1,,,,,,,,,11,,,73,0
92376,note_on,2,0,1,,,,,,,,,11,,,71,127
92398,note_on,22,0,1,,,,,,,,,11,,,71,0
92400,note_on,2,0,1,,,,,,,,,11,,,73,127
92422,note_on,22,0,1,,,,,,,,,11,,,73,0
92424,note_on,2,0,1,,,,,,,,,11,,,71,127
92494,note_on,70,0,1,,,,,,,,,11,,,71,0
92496,note_on,2,0,1,,,,,,,,,11,,,69,127
92512,note_on,160,0,3,,,,,,,,,3,,,68,0
92512,note_on,160,0,2,,,,,,,,,0,,,71,0
92512,note_on,160,0,4,,,,,,,,,4,,,64,0
92542,note_on,46,0,1,,,,,,,,,11,,,69,0
92544,note_on,32,0,3,,,,,,,,,3,,,64,127
92544,note_on,32,0,4,,,,,,,,,4,,,57,75
92544,note_on,2,0,1,,,,,,,,,11,,,69,127
92544,note_on,32,0,2,,,,,,,,,0,,,73,127
92686,note_on,142,0,2,,,,,,,,,0,,,73,0
92686,note_on,142,0,3,,,,,,,,,3,,,64,0
92686,note_on,142,0,4,,,,,,,,,4,,,57,0
92688,note_on,2,0,4,,,,,,,,,4,,,57,75
92688,note_on,2,0,3,,,,,,,,,3,,,64,127
92688,note_on,2,0,2,,,,,,,,,0,,,73,127
92704,note_on,160,0,1,,,,,,,,,11,,,69,0
92734,note_on,46,0,4,,,,,,,,,4,,,57,0
92734,note_on,46,0,2,,,,,,,,,0,,,73,0
92734,note_on,46,0,3,,,,,,,,,3,,,64,0
92736,note_on,2,0,3,,,,,,,,,3,,,64,127
92736,note_on,2,0,4,,,,,,,,,4,,,57,75
92736,note_on,2,0,2,,,,,,,,,0,,,73,127
92832,note_on,128,0,1,,,,,,,,,11,,,69,127
92878,note_on,142,0,4,,,,,,,,,4,,,57,0
92878,note_on,142,0,3,,,,,,,,,3,,,64,0
92878,note_on,142,0,2,,,,,,,,,0,,,73,0
92880,note_on,2,0,2,,,,,,,,,0,,,73,127
92880,note_on,2,0,4,,,,,,,,,4,,,57,75
92880,note_on,2,0,3,,,,,,,,,3,,,64,127
92926,note_on,46,0,2,,,,,,,,,0,,,73,0
92926,note_on,46,0,4,,,,,,,,,4,,,57,0
92926,note_on,46,0,3,,,,,,,,,3,,,64,0
92926,note_on,94,0,1,,,,,,,,,11,,,69,0
92928,note_on,2,0,1,,,,,,,,,11,,,73,127
92928,note_on,2,0,3,,,,,,,,,3,,,64,127
92928,note_on,2,0,4,,,,,,,,,4,,,57,75
92928,note_on,2,0,2,,,,,,,,,0,,,73,127
92958,note_on,30,0,1,,,,,,,,,11,,,73,0
92960,note_on,2,0,1,,,,,,,,,11,,,69,127
92990,note_on,30,0,1,,,,,,,,,11,,,69,0
92992,note_on,2,0,1,,,,,,,,,11,,,73,127
93022,note_on,30,0,1,,,,,,,,,11,,,73,0
93024,note_on,2,0,1,,,,,,,,,11,,,76,127
93054,note_on,30,0,1,,,,,,,,,11,,,76,0
93056,note_on,2,0,1,,,,,,,,,11,,,73,127
93086,note_on,30,0,1,,,,,,,,,11,,,73,0
93088,note_on,160,0,2,,,,,,,,,0,,,73,0
93088,note_on,160,0,4,,,,,,,,,4,,,57,0
93088,note_on,160,0,3,,,,,,,,,3,,,64,0
93088,note_on,2,0,1,,,,,,,,,11,,,76,127
93118,note_on,30,0,1,,,,,,,,,11,,,76,0
93120,note_on,2,0,1,,,,,,,,,11,,,81,127
93150,note_on,30,0,1,,,,,,,,,11,,,81,0
93152,note_on,2,0,1,,,,,,,,,11,,,76,127
93182,note_on,30,0,1,,,,,,,,,11,,,76,0
93184,note_on,2,0,1,,,,,,,,,11,,,74,127
93214,note_on,30,0,1,,,,,,,,,11,,,74,0
93216,note_on,2,0,1,,,,,,,,,11,,,73,127
93246,note_on,30,0,1,,,,,,,,,11,,,73,0
93248,note_on,2,0,1,,,,,,,,,11,,,71,127
93278,note_on,30,0,1,,,,,,,,,11,,,71,0
93280,note_on,2,0,1,,,,,,,,,11,,,69,127
93310,note_on,30,0,1,,,,,,,,,11,,,69,0
93312,note_on,224,0,4,,,,,,,,,4,,,57,75
93312,note_on,224,0,3,,,,,,,,,3,,,64,127
93312,note_on,2,0,1,,,,,,,,,11,,,64,127
93312,note_on,224,0,2,,,,,,,,,0,,,73,127
93342,note_on,30,0,1,,,,,,,,,11,,,64,0
93344,note_on,2,0,1,,,,,,,,,11,,,69,127
93374,note_on,30,0,1,,,,,,,,,11,,,69,0
93376,note_on,2,0,1,,,,,,,,,11,,,71,127
93406,note_on,30,0,1,,,,,,,,,11,,,71,0
93408,note_on,2,0,1,,,,,,,,,11,,,73,127
93438,note_on,30,0,1,,,,,,,,,11,,,73,0
93440,note_on,2,0,1,,,,,,,,,11,,,71,127
93470,note_on,30,0,1,,,,,,,,,11,,,71,0
93472,note_on,160,0,2,,,,,,,,,0,,,73,0
93472,note_on,160,0,3,,,,,,,,,3,,,64,0
93472,note_on,2,0,1,,,,,,,,,11,,,69,127
93472,note_on,160,0,4,,,,,,,,,4,,,57,0
93502,note_on,30,0,1,,,,,,,,,11,,,69,0
93504,note_on,32,0,4,,,,,,,,,4,,,64,75
93504,note_on,32,0,2,,,,,,,,,0,,,71,127
93504,note_on,0,0,1,,,,,,,,,11,,,73,127
93504,note_on,2,0,1,,,,,,,,,11,,,64,127
93504,note_on,32,0,3,,,,,,,,,3,,,68,127
93526,note_on,22,0,1,,,,,,,,,11,,,73,0
93528,note_on,2,0,1,,,,,,,,,11,,,71,127
93550,note_on,22,0,1,,,,,,,,,11,,,71,0
93552,note_on,2,0,1,,,,,,,,,11,,,73,127
93574,note_on,22,0,1,,,,,,,,,11,,,73,0
93576,note_on,2,0,1,,,,,,,,,11,,,71,127
93646,note_on,70,0,1,,,,,,,,,11,,,71,0
93648,note_on,2,0,1,,,,,,,,,11,,,69,127
93664,note_on,160,0,3,,,,,,,,,3,,,68,0
93664,note_on,160,0,4,,,,,,,,,4,,,64,0
93664,note_on,160,0,2,,,,,,,,,0,,,71,0
93664,note_on,16,0,1,,,,,,,,,11,,,64,0
93694,note_on,30,0,1,,,,,,,,,11,,,69,0
93696,note_on,14048,0,5,,,,,,,,,6,,,45,60
93696,note_on,32,0,3,,,,,,,,,3,,,64,127
93696,note_on,32,0,4,,,,,,,,,4,,,64,75
93696,note_on,14048,0,6,,,,,,,,,8,,,33,75
93696,note_on,32,0,2,,,,,,,,,0,,,73,127
93696,note_on,0,0,1,,,,,,,,,11,,,64,127
93696,note_on,2,0,1,,,,,,,,,11,,,57,127
93718,note_on,22,0,1,,,,,,,,,11,,,57,0
93718,note_on,0,0,1,,,,,,,,,11,,,64,0
93720,note_on,2,0,1,,,,,,,,,11,,,73,127
93838,note_on,142,0,2,,,,,,,,,0,,,73,0
93838,note_on,142,0,5,,,,,,,,,6,,,45,0
93838,note_on,142,0,4,,,,,,,,,4,,,64,0
93838,note_on,118,0,1,,,,,,,,,11,,,73,0
93838,note_on,142,0,6,,,,,,,,,8,,,33,0
93838,note_on,142,0,3,,,,,,,,,3,,,64,0
93840,control_change,2,0,2,,,,,,,,,0,10,64,,
93840,note_on,0,0,2,,,,,,,,,0,,,81,127
93840,note_on,0,0,3,,,,,,,,,3,,,73,127
93840,note_on,0,0,6,,,,,,,,,8,,,33,75
93840,control_change,2,0,5,,,,,,,,,6,10,64,,
93840,control_change,2,0,6,,,,,,,,,8,10,64,,
93840,control_change,2,0,4,,,,,,,,,4,10,64,,
93840,note_on,0,0,4,,,,,,,,,4,,,64,75
93840,note_on,0,0,5,,,,,,,,,6,,,45,60
93840,note_on,2,0,1,,,,,,,,,11,,,64,127
93840,note_on,0,0,1,,,,,,,,,11,,,73,127
93840,control_change,2,0,3,,,,,,,,,3,10,64,,
93862,note_on,0,0,1,,,,,,,,,11,,,73,0
93862,note_on,22,0,1,,,,,,,,,11,,,64,0
93864,note_on,2,0,1,,,,,,,,,11,,,81,127
93886,note_on,46,0,6,,,,,,,,,8,,,33,0
93886,note_on,46,0,2,,,,,,,,,0,,,81,0
93886,note_on,46,0,4,,,,,,,,,4,,,64,0
93886,note_on,46,0,3,,,,,,,,,3,,,73,0
93886,note_on,22,0,1,,,,,,,,,11,,,81,0
93886,note_on,46,0,5,,,,,,,,,6,,,45,0
93888,note_on,2,0,6,,,,,,,,,8,,,33,75
93888,note_on,2,0,4,,,,,,,,,4,,,64,75
93888,note_on,2,0,1,,,,,,,,,11,,,64,127
93888,note_on,0,0,1,,,,,,,,,11,,,73,127
93888,note_on,2,0,5,,,,,,,,,6,,,45,60
93888,note_on,2,0,2,,,,,,,,,0,,,81,127
93888,note_on,2,0,3,,,,,,,,,3,,,73,127
93912,note_on,24,0,1,,,,,,,,,11,,,81,127
93982,note_on,70,0,1,,,,,,,,,11,,,64,0
93982,note_on,0,0,1,,,,,,,,,11,,,73,0
94030,note_on,142,0,4,,,,,,,,,4,,,64,0
94030,note_on,142,0,6,,,,,,,,,8,,,33,0
94030,note_on,142,0,2,,,,,,,,,0,,,81,0
94030,note_on,142,0,5,,,,,,,,,6,,,45,0
94030,note_on,48,0,1,,,,,,,,,11,,,81,0
94030,note_on,142,0,3,,,,,,,,,3,,,73,0
94032,note_on,2,0,4,,,,,,,,,4,,,64,75
94032,note_on,2,0,5,,,,,,,,,6,,,45,60
94032,note_on,0,0,1,,,,,,,,,11,,,73,127
94032,note_on,2,0,1,,,,,,,,,11,,,64,127
94032,note_on,2,0,6,,,,,,,,,8,,,33,75
94032,note_on,2,0,3,,,,,,,,,3,,,73,127
94032,note_on,2,0,2,,,,,,,,,0,,,81,127
94056,note_on,24,0,1,,,,,,,,,11,,,81,127
94078,note_on,46,0,5,,,,,,,,,6,,,45,0
94078,note_on,46,0,4,,,,,,,,,4,,,64,0
94078,note_on,46,0,6,,,,,,,,,8,,,33,0
94078,note_on,22,0,1,,,,,,,,,11,,,64,0
94078,note_on,46,0,3,,,,,,,,,3,,,73,0
94078,note_on,0,0,1,,,,,,,,,11,,,73,0
94078,note_on,46,0,2,,,,,,,,,0,,,81,0
94078,note_on,0,0,1,,,,,,,,,11,,,81,0
94080,note_on,2,0,1,,,,,,,,,11,,,64,127
94080,note_on,0,0,1,,,,,,,,,11,,,71,127
94080,note_on,2,0,2,,,,,,,,,0,,,81,127
94080,note_on,2,0,5,,,,,,,,,6,,,52,60
94080,note_on,2,0,4,,,,,,,,,4,,,64,75
94080,note_on,2,0,3,,,,,,,,,3,,,71,127
94080,note_on,2,0,6,,,,,,,,,8,,,40,75
94104,note_on,24,0,1,,,,,,,,,11,,,81,127
94126,note_on,22,0,1,,,,,,,,,11,,,64,0
94126,note_on,0,0,1,,,,,,,,,11,,,71,0
94222,note_on,142,0,6,,,,,,,,,8,,,40,0
94222,note_on,142,0,4,,,,,,,,,4,,,64,0
94222,note_on,96,0,1,,,,,,,,,11,,,81,0
94222,note_on,142,0,2,,,,,,,,,0,,,81,0
94222,note_on,142,0,5,,,,,,,,,6,,,52,0
94222,note_on,142,0,3,,,,,,,,,3,,,71,0
94224,note_on,2,0,4,,,,,,,,,4,,,64,75
94224,note_on,2,0,3,,,,,,,,,3,,,71,127
94224,note_on,2,0,2,,,,,,,,,0,,,81,127
94224,note_on,2,0,1,,,,,,,,,11,,,64,127
94224,note_on,2,0,6,,,,,,,,,8,,,40,75
94224,note_on,0,0,1,,,,,,,,,11,,,71,127
94224,note_on,2,0,5,,,,,,,,,6,,,52,60
94248,note_on,24,0,1,,,,,,,,,11,,,81,127
94270,note_on,46,0,6,,,,,,,,,8,,,40,0
94270,note_on,46,0,5,,,,,,,,,6,,,52,0
94270,note_on,46,0,3,,,,,,,,,3,,,71,0
94270,note_on,22,0,1,,,,,,,,,11,,,64,0
94270,note_on,0,0,1,,,,,,,,,11,,,81,0
94270,note_on,46,0,2,,,,,,,,,0,,,81,0
94270,note_on,46,0,4,,,,,,,,,4,,,64,0
94270,note_on,0,0,1,,,,,,,,,11,,,71,0
94272,note_on,2,0,1,,,,,,,,,11,,,64,127
94272,note_on,0,0,1,,,,,,,,,11,,,71,127
94272,note_on,2,0,6,,,,,,,,,8,,,40,75
94272,note_on,2,0,2,,,,,,,,,0,,,81,127
94272,note_on,2,0,5,,,,,,,,,6,,,52,60
94272,note_on,2,0,4,,,,,,,,,4,,,64,75
94272,note_on,2,0,3,,,,,,,,,3,,,71,127
94296,note_on,24,0,1,,,,,,,,,11,,,81,127
94318,note_on,22,0,1,,,,,,,,,11,,,64,0
94318,note_on,0,0,1,,,,,,,,,11,,,71,0
94414,note_on,142,0,4,,,,,,,,,4,,,64,0
94414,note_on,142,0,5,,,,,,,,,6,,,52,0
94414,note_on,142,0,6,,,,,,,,,8,,,40,0
94414,note_on,96,0,1,,,,,,,,,11,,,81,0
94414,note_on,142,0,3,,,,,,,,,3,,,71,0
94414,note_on,142,0,2,,,,,,,,,0,,,81,0
94416,note_on,2,0,2,,,,,,,,,0,,,81,127
94416,note_on,2,0,5,,,,,,,,,6,,,52,60
94416,note_on,2,0,4,,,,,,,,,4,,,64,75
94416,note_on,2,0,1,,,,,,,,,11,,,64,127
94416,note_on,0,0,1,,,,,,,,,11,,,71,127
94416,note_on,2,0,3,,,,,,,,,3,,,71,127
94416,note_on,2,0,6,,,,,,,,,8,,,40,75
94440,note_on,24,0,1,,,,,,,,,11,,,81,127
94462,note_on,46,0,2,,,,,,,,,0,,,81,0
94462,note_on,0,0,1,,,,,,,,,11,,,71,0
94462,note_on,22,0,1,,,,,,,,,11,,,64,0
94462,note_on,0,0,1,,,,,,,,,11,,,81,0
94462,note_on,46,0,5,,,,,,,,,6,,,52,0
94462,note_on,46,0,6,,,,,,,,,8,,,40,0
94462,note_on,46,0,3,,,,,,,,,3,,,71,0
94462,note_on,46,0,4,,,,,,,,,4,,,64,0
94464,note_on,2,0,3,,,,,,,,,3,,,71,127
94464,note_on,2,0,1,,,,,,,,,11,,,64,127
94464,note_on,2,0,5,,,,,,,,,6,,,40,60
94464,note_on,0,0,1,,,,,,,,,11,,,71,127
94464,note_on,2,0,6,,,,,,,,,8,,,28,75
94464,note_on,2,0,2,,,,,,,,,0,,,80,127
94464,note_on,2,0,4,,,,,,,,,4,,,64,75
94488,note_on,24,0,1,,,,,,,,,11,,,80,127
94510,note_on,0,0,1,,,,,,,,,11,,,71,0
94510,note_on,22,0,1,,,,,,,,,11,,,64,0
94606,note_on,142,0,6,,,,,,,,,8,,,28,0
94606,note_on,96,0,1,,,,,,,,,11,,,80,0
94606,note_on,142,0,5,,,,,,,,,6,,,40,0
94606,note_on,142,0,2,,,,,,,,,0,,,80,0
94606,note_on,142,0,4,,,,,,,,,4,,,64,0
94606,note_on,142,0,3,,,,,,,,,3,,,71,0
94608,note_on,2,0,1,,,,,,,,,11,,,64,127
94608,note_on,0,0,1,,,,,,,,,11,,,71,127
94608,note_on,2,0,2,,,,,,,,,0,,,80,127
94608,note_on,2,0,5,,,,,,,,,6,,,40,60
94608,note_on,2,0,4,,,,,,,,,4,,,64,75
94608,note_on,2,0,6,,,,,,,,,8,,,28,75
94608,note_on,2,0,3,,,,,,,,,3,,,71,127
94632,note_on,24,0,1,,,,,,,,,11,,,80,127
94654,note_on,46,0,5,,,,,,,,,6,,,40,0
94654,note_on,46,0,4,,,,,,,,,4,,,64,0
94654,note_on,0,0,1,,,,,,,,,11,,,80,0
94654,note_on,0,0,1,,,,,,,,,11,,,71,0
94654,note_on,22,0,1,,,,,,,,,11,,,64,0
94654,note_on,46,0,3,,,,,,,,,3,,,71,0
94654,note_on,46,0,6,,,,,,,,,8,,,28,0
94654,note_on,46,0,2,,,,,,,,,0,,,80,0
94656,note_on,2,0,4,,,,,,,,,4,,,64,75
94656,note_on,0,0,1,,,,,,,,,11,,,71,127
94656,note_on,2,0,6,,,,,,,,,8,,,28,75
94656,note_on,2,0,3,,,,,,,,,3,,,71,127
94656,note_on,2,0,5,,,,,,,,,6,,,40,60
94656,note_on,2,0,1,,,,,,,,,11,,,64,127
94656,note_on,2,0,2,,,,,,,,,0,,,80,127
94680,note_on,24,0,1,,,,,,,,,11,,,80,127
94702,note_on,0,0,1,,,,,,,,,11,,,71,0
94702,note_on,22,0,1,,,,,,,,,11,,,64,0
94798,note_on,96,0,1,,,,,,,,,11,,,80,0
94798,note_on,142,0,3,,,,,,,,,3,,,71,0
94798,note_on,142,0,2,,,,,,,,,0,,,80,0
94798,note_on,142,0,4,,,,,,,,,4,,,64,0
94798,note_on,142,0,6,,,,,,,,,8,,,28,0
94798,note_on,142,0,5,,,,,,,,,6,,,40,0
94800,note_on,2,0,4,,,,,,,,,4,,,64,75
94800,note_on,2,0,3,,,,,,,,,3,,,71,127
94800,note_on,2,0,1,,,,,,,,,11,,,64,127
94800,note_on,0,0,1,,,,,,,,,11,,,71,127
94800,note_on,2,0,2,,,,,,,,,0,,,80,127
94800,note_on,2,0,5,,,,,,,,,6,,,40,60
94800,note_on,2,0,6,,,,,,,,,8,,,28,75
94824,note_on,24,0,1,,,,,,,,,11,,,80,127
94846,note_on,0,0,1,,,,,,,,,11,,,71,0
94846,note_on,22,0,1,,,,,,,,,11,,,64,0
94846,note_on,0,0,1,,,,,,,,,11,,,80,0
94846,note_on,46,0,5,,,,,,,,,6,,,40,0
94846,note_on,46,0,2,,,,,,,,,0,,,80,0
94846,note_on,46,0,6,,,,,,,,,8,,,28,0
94846,note_on,46,0,3,,,,,,,,,3,,,71,0
94846,note_on,46,0,4,,,,,,,,,4,,,64,0
94848,note_on,2,0,3,,,,,,,,,3,,,73,127
94848,note_on,2,0,2,,,,,,,,,0,,,81,127
94848,note_on,2,0,1,,,,,,,,,11,,,57,127
94848,note_on,2,0,4,,,,,,,,,4,,,64,75
94848,note_on,2,0,5,,,,,,,,,6,,,45,60
94848,note_on,2,0,6,,,,,,,,,8,,,33,75
94848,note_on,0,0,1,,,,,,,,,11,,,64,127
94870,note_on,0,0,1,,,,,,,,,11,,,64,0
94870,note_on,22,0,1,,,,,,,,,11,,,57,0
94872,note_on,2,0,1,,,,,,,,,11,,,73,127
94872,note_on,0,0,1,,,,,,,,,11,,,81,127
95184,note_on,336,0,4,,,,,,,,,4,,,64,0
95184,end_of_track,0,1,2,,,,,,,,,,,,,
95184,end_of_track,0,1,3,,,,,,,,,,,,,
95184,note_on,336,0,3,,,,,,,,,3,,,73,0
95184,note_on,336,0,2,,,,,,,,,0,,,81,0
95184,note_on,336,0,6,,,,,,,,,8,,,33,0
95184,note_on,336,0,5,,,,,,,,,6,,,45,0
95184,end_of_track,0,1,5,,,,,,,,,,,,,
95184,end_of_track,0,1,4,,,,,,,,,,,,,
95184,end_of_track,0,1,6,,,,,,,,,,,,,
95200,end_of_track,0,1,1,,,,,,,,,,,,,
95200,note_on,0,0,1,,,,,,,,,11,,,81,0
95200,note_on,328,0,1,,,,,,,,,11,,,73,0
