tick,type,time,meta,track,numerator,denominator,clocks_per_click,notated_32nd_notes_per_beat,key,tempo,program,channel,control,value,note,velocity
0,track_name,0,1,0,,,,,,,,,,,,
0,control_change,0,0,2,,,,,,,,1,7,127,,
0,control_change,0,0,2,,,,,,,,1,10,34,,
0,track_name,0,1,3,,,,,,,,,,,,
0,program_change,0,0,3,,,,,,,48,2,,,,
0,control_change,0,0,3,,,,,,,,2,7,127,,
0,control_change,0,0,3,,,,,,,,2,10,42,,
0,end_of_track,0,1,11,,,,,,,,,,,,
0,track_name,0,1,4,,,,,,,,,,,,
0,program_change,0,0,4,,,,,,,48,3,,,,
0,control_change,0,0,4,,,,,,,,3,7,127,,
0,control_change,0,0,4,,,,,,,,3,10,85,,
0,track_name,0,1,5,,,,,,,,,,,,
0,program_change,0,0,5,,,,,,,48,4,,,,
0,program_change,0,0,2,,,,,,,48,1,,,,
0,control_change,0,0,5,,,,,,,,4,7,127,,
0,track_name,0,1,6,,,,,,,,,,,,
0,program_change,0,0,6,,,,,,,48,5,,,,
0,control_change,0,0,6,,,,,,,,5,7,127,,
0,control_change,0,0,6,,,,,,,,5,10,78,,
0,track_name,0,1,7,,,,,,,,,,,,
0,end_of_track,0,1,7,,,,,,,,,,,,
0,track_name,0,1,8,,,,,,,,,,,,
0,end_of_track,0,1,8,,,,,,,,,,,,
0,track_name,0,1,9,,,,,,,,,,,,
0,end_of_track,0,1,9,,,,,,,,,,,,
0,track_name,0,1,10,,,,,,,,,,,,
0,end_of_track,0,1,10,,,,,,,,,,,,
0,track_name,0,1,11,,,,,,,,,,,,
0,control_change,0,0,5,,,,,,,,4,10,96,,
0,track_name,0,1,2,,,,,,,,,,,,
0,end_of_track,0,1,12,,,,,,,,,,,,
0,time_signature,0,1,0,4,4,24,8,,,,,,,,
0,track_name,0,1,1,,,,,,,,,,,,
0,program_change,0,0,1,,,,,,,40,0,,,,
0,control_change,0,0,1,,,,,,,,0,7,107,,
0,control_change,0,0,1,,,,,,,,0,10,72,,
0,key_signature,0,1,0,,,,,F,,,,,,,
0,marker,0,1,0,,,,,,,,,,,,
0,set_tempo,0,1,0,,,,,,500000,,,,,,
1,note_on,0,0,5,,,,,,,,4,,,50,85
1,control_change,1,0,5,,,,,,,,4,91,100,,
1,control_change,1,0,4,,,,,,,,3,91,100,,
1,control_change,1,0,1,,,,,,,,0,91,127,,
1,control_change,1,0,6,,,,,,,,5,91,100,,
1,control_change,1,0,3,,,,,,,,2,91,100,,
1,note_on,0,0,6,,,,,,,,5,,,38,85
1,control_change,1,0,2,,,,,,,,1,91,100,,
240,note_on,239,0,1,,,,,,,,0,,,74,64
240,note_on,239,0,3,,,,,,,,2,,,74,64
240,note_on,239,0,2,,,,,,,,1,,,74,64
446,note_on,445,0,6,,,,,,,,5,,,38,0
446,note_on,445,0,5,,,,,,,,4,,,50,0
465,note_on,225,0,2,,,,,,,,1,,,74,0
465,note_on,225,0,1,,,,,,,,0,,,74,0
465,note_on,225,0,3,,,,,,,,2,,,74,0
480,note_on,15,0,2,,,,,,,,1,,,81,64
480,note_on,15,0,1,,,,,,,,0,,,81,64
480,note_on,15,0,3,,,,,,,,2,,,81,64
720,note_on,719,0,4,,,,,,,,3,,,65,85
720,note_on,274,0,6,,,,,,,,5,,,38,85
720,note_on,274,0,5,,,,,,,,4,,,50,85
945,note_on,225,0,6,,,,,,,,5,,,38,0
945,note_on,225,0,5,,,,,,,,4,,,50,0
945,note_on,225,0,4,,,,,,,,3,,,65,0
960,note_on,15,0,6,,,,,,,,5,,,46,85
960,note_on,15,0,4,,,,,,,,3,,,62,85
960,note_on,15,0,5,,,,,,,,4,,,58,85
1185,note_on,705,0,3,,,,,,,,2,,,81,0
1185,note_on,705,0,1,,,,,,,,0,,,81,0
1185,note_on,705,0,2,,,,,,,,1,,,81,0
1200,note_on,15,0,3,,,,,,,,2,,,79,64
1200,note_on,15,0,2,,,,,,,,1,,,79,64
1200,note_on,15,0,1,,,,,,,,0,,,79,64
1315,note_on,115,0,3,,,,,,,,2,,,79,0
1315,note_on,115,0,2,,,,,,,,1,,,79,0
1315,note_on,115,0,1,,,,,,,,0,,,79,0
1320,note_on,5,0,1,,,,,,,,0,,,77,64
1320,note_on,5,0,3,,,,,,,,2,,,77,64
1320,note_on,5,0,2,,,,,,,,1,,,77,64
1435,note_on,115,0,3,,,,,,,,2,,,77,0
1435,note_on,115,0,1,,,,,,,,0,,,77,0
1435,note_on,115,0,2,,,,,,,,1,,,77,0
1440,note_on,5,0,3,,,,,,,,2,,,76,64
1440,note_on,5,0,2,,,,,,,,1,,,76,64
1440,note_on,5,0,1,,,,,,,,0,,,76,64
1665,note_on,225,0,1,,,,,,,,0,,,76,0
1665,note_on,225,0,3,,,,,,,,2,,,76,0
1665,note_on,225,0,2,,,,,,,,1,,,76,0
1680,note_on,15,0,1,,,,,,,,0,,,74,64
1680,note_on,15,0,2,,,,,,,,1,,,74,64
1680,note_on,15,0,3,,,,,,,,2,,,74,64
1845,note_on,885,0,4,,,,,,,,3,,,62,0
1905,note_on,225,0,3,,,,,,,,2,,,74,0
1905,note_on,225,0,2,,,,,,,,1,,,74,0
1905,note_on,225,0,1,,,,,,,,0,,,74,0
1920,note_on,15,0,3,,,,,,,,2,,,73,64
1920,note_on,15,0,2,,,,,,,,1,,,73,64
1920,note_on,15,0,1,,,,,,,,0,,,73,64
1920,note_on,75,0,4,,,,,,,,3,,,64,85
2145,note_on,1185,0,5,,,,,,,,4,,,58,0
2145,note_on,225,0,2,,,,,,,,1,,,73,0
2145,note_on,225,0,3,,,,,,,,2,,,73,0
2145,note_on,1185,0,6,,,,,,,,5,,,46,0
2145,note_on,225,0,1,,,,,,,,0,,,73,0
2145,note_on,225,0,4,,,,,,,,3,,,64,0
2160,note_on,15,0,2,,,,,,,,1,,,74,64
2160,note_on,15,0,6,,,,,,,,5,,,45,85
2160,note_on,15,0,4,,,,,,,,3,,,70,85
2160,note_on,15,0,3,,,,,,,,2,,,74,64
2160,note_on,15,0,1,,,,,,,,0,,,74,64
2160,note_on,15,0,5,,,,,,,,4,,,57,85
2275,note_on,115,0,5,,,,,,,,4,,,57,0
2275,note_on,115,0,6,,,,,,,,5,,,45,0
2280,note_on,5,0,6,,,,,,,,5,,,43,85
2280,note_on,5,0,5,,,,,,,,4,,,55,85
2385,note_on,225,0,1,,,,,,,,0,,,74,0
2385,note_on,225,0,3,,,,,,,,2,,,74,0
2385,note_on,225,0,4,,,,,,,,3,,,70,0
2385,note_on,225,0,2,,,,,,,,1,,,74,0
2395,note_on,115,0,6,,,,,,,,5,,,43,0
2395,note_on,115,0,5,,,,,,,,4,,,55,0
2400,note_on,5,0,5,,,,,,,,4,,,53,85
2400,note_on,15,0,2,,,,,,,,1,,,76,64
2400,note_on,15,0,1,,,,,,,,0,,,76,64
2400,note_on,5,0,6,,,,,,,,5,,,41,85
2400,note_on,15,0,4,,,,,,,,3,,,69,85
2400,note_on,15,0,3,,,,,,,,2,,,76,64
2625,note_on,225,0,5,,,,,,,,4,,,53,0
2625,note_on,225,0,4,,,,,,,,3,,,69,0
2625,note_on,225,0,6,,,,,,,,5,,,41,0
2640,note_on,15,0,6,,,,,,,,5,,,40,85
2640,note_on,15,0,5,,,,,,,,4,,,52,85
2640,note_on,15,0,4,,,,,,,,3,,,67,85
2865,note_on,225,0,5,,,,,,,,4,,,52,0
2865,note_on,225,0,4,,,,,,,,3,,,67,0
2865,note_on,225,0,6,,,,,,,,5,,,40,0
2880,note_on,15,0,5,,,,,,,,4,,,53,85
2880,note_on,15,0,6,,,,,,,,5,,,41,85
2880,note_on,15,0,4,,,,,,,,3,,,69,85
3105,note_on,705,0,1,,,,,,,,0,,,76,0
3105,note_on,705,0,2,,,,,,,,1,,,76,0
3105,note_on,705,0,3,,,,,,,,2,,,76,0
3120,note_on,15,0,1,,,,,,,,0,,,69,64
3120,note_on,15,0,3,,,,,,,,2,,,69,64
3120,note_on,15,0,2,,,,,,,,1,,,69,64
3345,note_on,225,0,3,,,,,,,,2,,,69,0
3345,note_on,225,0,2,,,,,,,,1,,,69,0
3345,note_on,225,0,1,,,,,,,,0,,,69,0
3360,note_on,15,0,2,,,,,,,,1,,,74,64
3360,note_on,15,0,3,,,,,,,,2,,,74,64
3360,note_on,15,0,1,,,,,,,,0,,,74,64
3545,note_on,665,0,4,,,,,,,,3,,,69,0
3545,note_on,665,0,5,,,,,,,,4,,,53,0
3545,note_on,665,0,6,,,,,,,,5,,,41,0
3585,note_on,225,0,2,,,,,,,,1,,,74,0
3585,note_on,225,0,3,,,,,,,,2,,,74,0
3585,note_on,225,0,1,,,,,,,,0,,,74,0
3600,note_on,55,0,5,,,,,,,,4,,,52,85
3600,note_on,15,0,3,,,,,,,,2,,,76,64
3600,note_on,15,0,1,,,,,,,,0,,,76,64
3600,note_on,55,0,6,,,,,,,,5,,,40,85
3600,note_on,15,0,2,,,,,,,,1,,,76,64
3600,note_on,55,0,4,,,,,,,,3,,,67,85
3715,note_on,115,0,3,,,,,,,,2,,,76,0
3715,note_on,115,0,4,,,,,,,,3,,,67,0
3715,note_on,115,0,6,,,,,,,,5,,,40,0
3715,note_on,115,0,5,,,,,,,,4,,,52,0
3715,note_on,115,0,1,,,,,,,,0,,,76,0
3715,note_on,115,0,2,,,,,,,,1,,,76,0
3720,note_on,5,0,4,,,,,,,,3,,,65,85
3720,note_on,5,0,5,,,,,,,,4,,,50,85
3720,note_on,5,0,1,,,,,,,,0,,,77,64
3720,note_on,5,0,6,,,,,,,,5,,,38,85
3720,note_on,5,0,2,,,,,,,,1,,,77,64
3720,note_on,5,0,3,,,,,,,,2,,,77,64
3835,note_on,115,0,4,,,,,,,,3,,,65,0
3835,note_on,115,0,5,,,,,,,,4,,,50,0
3835,note_on,115,0,6,,,,,,,,5,,,38,0
3835,note_on,115,0,1,,,,,,,,0,,,77,0
3835,note_on,115,0,2,,,,,,,,1,,,77,0
3835,note_on,115,0,3,,,,,,,,2,,,77,0
3840,note_on,5,0,1,,,,,,,,0,,,79,64
3840,note_on,5,0,6,,,,,,,,5,,,37,85
3840,note_on,5,0,5,,,,,,,,4,,,49,85
3840,note_on,5,0,2,,,,,,,,1,,,79,64
3840,note_on,5,0,3,,,,,,,,2,,,79,64
3840,note_on,5,0,4,,,,,,,,3,,,64,85
4065,note_on,225,0,2,,,,,,,,1,,,79,0
4065,note_on,225,0,1,,,,,,,,0,,,79,0
4065,note_on,225,0,3,,,,,,,,2,,,79,0
4080,note_on,15,0,2,,,,,,,,1,,,76,64
4080,note_on,15,0,1,,,,,,,,0,,,76,64
4080,note_on,15,0,3,,,,,,,,2,,,76,64
4285,note_on,445,0,5,,,,,,,,4,,,49,0
4285,note_on,445,0,4,,,,,,,,3,,,64,0
4285,note_on,445,0,6,,,,,,,,5,,,37,0
4305,note_on,225,0,2,,,,,,,,1,,,76,0
4305,note_on,225,0,1,,,,,,,,0,,,76,0
4305,note_on,225,0,3,,,,,,,,2,,,76,0
4320,note_on,15,0,3,,,,,,,,2,,,81,64
4320,note_on,15,0,1,,,,,,,,0,,,81,64
4320,note_on,35,0,6,,,,,,,,5,,,33,85
4320,note_on,15,0,2,,,,,,,,1,,,81,64
4320,note_on,35,0,4,,,,,,,,3,,,61,85
4320,note_on,35,0,5,,,,,,,,4,,,45,85
4545,note_on,225,0,3,,,,,,,,2,,,81,0
4545,note_on,225,0,2,,,,,,,,1,,,81,0
4545,note_on,225,0,1,,,,,,,,0,,,81,0
4560,note_on,15,0,3,,,,,,,,2,,,79,64
4560,note_on,15,0,2,,,,,,,,1,,,79,64
4560,note_on,15,0,1,,,,,,,,0,,,79,64
4765,note_on,445,0,4,,,,,,,,3,,,61,0
4765,note_on,445,0,6,,,,,,,,5,,,33,0
4765,note_on,445,0,5,,,,,,,,4,,,45,0
4785,note_on,225,0,2,,,,,,,,1,,,79,0
4785,note_on,225,0,3,,,,,,,,2,,,79,0
4785,note_on,225,0,1,,,,,,,,0,,,79,0
4800,note_on,15,0,1,,,,,,,,0,,,77,64
4800,note_on,35,0,5,,,,,,,,4,,,50,85
4800,note_on,15,0,2,,,,,,,,1,,,77,64
4800,note_on,35,0,6,,,,,,,,5,,,38,85
4800,note_on,35,0,4,,,,,,,,3,,,57,85
4800,note_on,15,0,3,,,,,,,,2,,,77,64
5025,note_on,225,0,1,,,,,,,,0,,,77,0
5025,note_on,225,0,2,,,,,,,,1,,,77,0
5025,note_on,225,0,3,,,,,,,,2,,,77,0
5040,note_on,15,0,1,,,,,,,,0,,,74,64
5040,note_on,15,0,2,,,,,,,,1,,,74,64
5040,note_on,15,0,3,,,,,,,,2,,,74,64
5245,note_on,445,0,4,,,,,,,,3,,,57,0
5245,note_on,445,0,6,,,,,,,,5,,,38,0
5245,note_on,445,0,5,,,,,,,,4,,,50,0
5265,note_on,225,0,2,,,,,,,,1,,,74,0
5265,note_on,225,0,1,,,,,,,,0,,,74,0
5265,note_on,225,0,3,,,,,,,,2,,,74,0
5280,note_on,15,0,3,,,,,,,,2,,,77,64
5280,note_on,35,0,4,,,,,,,,3,,,69,85
5280,note_on,35,0,6,,,,,,,,5,,,50,85
5280,note_on,15,0,1,,,,,,,,0,,,77,64
5280,note_on,15,0,2,,,,,,,,1,,,77,64
5280,note_on,35,0,5,,,,,,,,4,,,62,85
5505,note_on,225,0,4,,,,,,,,3,,,69,0
5505,note_on,225,0,3,,,,,,,,2,,,77,0
5505,note_on,225,0,1,,,,,,,,0,,,77,0
5505,note_on,225,0,2,,,,,,,,1,,,77,0
5505,note_on,225,0,6,,,,,,,,5,,,50,0
5505,note_on,225,0,5,,,,,,,,4,,,62,0
5760,note_on,255,0,1,,,,,,,,0,,,75,64
5760,note_on,255,0,6,,,,,,,,5,,,43,85
5760,note_on,255,0,3,,,,,,,,2,,,75,64
5760,note_on,255,0,2,,,,,,,,1,,,75,64
5760,note_on,255,0,4,,,,,,,,3,,,70,85
5760,note_on,255,0,5,,,,,,,,4,,,55,85
5985,note_on,225,0,2,,,,,,,,1,,,75,0
5985,note_on,225,0,1,,,,,,,,0,,,75,0
5985,note_on,225,0,6,,,,,,,,5,,,43,0
5985,note_on,225,0,3,,,,,,,,2,,,75,0
5985,note_on,225,0,4,,,,,,,,3,,,70,0
5985,note_on,225,0,5,,,,,,,,4,,,55,0
6240,note_on,255,0,1,,,,,,,,0,,,74,64
6240,note_on,255,0,4,,,,,,,,3,,,71,85
6240,note_on,255,0,2,,,,,,,,1,,,74,64
6240,note_on,255,0,6,,,,,,,,5,,,44,85
6240,note_on,255,0,5,,,,,,,,4,,,56,85
6240,note_on,255,0,3,,,,,,,,2,,,74,64
6465,note_on,225,0,2,,,,,,,,1,,,74,0
6465,note_on,225,0,5,,,,,,,,4,,,56,0
6465,note_on,225,0,1,,,,,,,,0,,,74,0
6465,note_on,225,0,4,,,,,,,,3,,,71,0
6465,note_on,225,0,6,,,,,,,,5,,,44,0
6465,note_on,225,0,3,,,,,,,,2,,,74,0
6720,note_on,255,0,5,,,,,,,,4,,,57,85
6720,note_on,255,0,6,,,,,,,,5,,,45,85
6720,note_on,255,0,2,,,,,,,,1,,,73,64
6720,note_on,255,0,1,,,,,,,,0,,,73,64
6720,note_on,255,0,3,,,,,,,,2,,,73,64
6720,note_on,255,0,4,,,,,,,,3,,,64,85
6945,note_on,225,0,2,,,,,,,,1,,,73,0
6945,note_on,225,0,1,,,,,,,,0,,,73,0
6945,note_on,225,0,3,,,,,,,,2,,,73,0
6960,note_on,15,0,2,,,,,,,,1,,,76,64
6960,note_on,15,0,1,,,,,,,,0,,,76,64
6960,note_on,15,0,3,,,,,,,,2,,,76,64
7185,note_on,225,0,2,,,,,,,,1,,,76,0
7185,note_on,225,0,3,,,,,,,,2,,,76,0
7185,note_on,225,0,1,,,,,,,,0,,,76,0
7200,note_on,15,0,3,,,,,,,,2,,,81,64
7200,note_on,15,0,1,,,,,,,,0,,,81,64
7200,note_on,15,0,2,,,,,,,,1,,,81,64
7385,note_on,665,0,5,,,,,,,,4,,,57,0
7385,note_on,665,0,6,,,,,,,,5,,,45,0
7385,note_on,665,0,4,,,,,,,,3,,,64,0
7440,note_on,55,0,4,,,,,,,,3,,,69,85
7440,note_on,55,0,5,,,,,,,,4,,,57,85
7440,note_on,55,0,6,,,,,,,,5,,,45,85
7665,note_on,225,0,4,,,,,,,,3,,,69,0
7665,note_on,225,0,6,,,,,,,,5,,,45,0
7665,note_on,225,0,5,,,,,,,,4,,,57,0
7680,note_on,15,0,6,,,,,,,,5,,,50,85
7680,note_on,15,0,5,,,,,,,,4,,,62,85
7680,note_on,15,0,4,,,,,,,,3,,,66,85
7905,note_on,705,0,2,,,,,,,,1,,,81,0
7905,note_on,705,0,1,,,,,,,,0,,,81,0
7905,note_on,705,0,3,,,,,,,,2,,,81,0
7920,note_on,15,0,2,,,,,,,,1,,,78,64
7920,note_on,15,0,3,,,,,,,,2,,,78,64
7920,note_on,15,0,1,,,,,,,,0,,,78,64
8125,note_on,445,0,4,,,,,,,,3,,,66,0
8125,note_on,445,0,5,,,,,,,,4,,,62,0
8125,note_on,445,0,6,,,,,,,,5,,,50,0
8160,note_on,35,0,6,,,,,,,,5,,,48,85
8160,note_on,35,0,5,,,,,,,,4,,,60,85
8160,note_on,35,0,4,,,,,,,,3,,,69,85
8365,note_on,445,0,1,,,,,,,,0,,,78,0
8365,note_on,445,0,3,,,,,,,,2,,,78,0
8365,note_on,445,0,2,,,,,,,,1,,,78,0
8400,note_on,35,0,1,,,,,,,,0,,,79,64
8400,note_on,35,0,3,,,,,,,,2,,,79,64
8400,note_on,35,0,2,,,,,,,,1,,,79,64
8605,note_on,445,0,6,,,,,,,,5,,,48,0
8605,note_on,445,0,5,,,,,,,,4,,,60,0
8605,note_on,445,0,4,,,,,,,,3,,,69,0
8625,note_on,225,0,2,,,,,,,,1,,,79,0
8625,note_on,225,0,1,,,,,,,,0,,,79,0
8625,note_on,225,0,3,,,,,,,,2,,,79,0
8640,note_on,15,0,1,,,,,,,,0,,,67,64
8640,note_on,35,0,5,,,,,,,,4,,,58,85
8640,note_on,35,0,4,,,,,,,,3,,,62,85
8640,note_on,35,0,6,,,,,,,,5,,,46,85
8640,note_on,15,0,2,,,,,,,,1,,,67,64
8640,note_on,15,0,3,,,,,,,,2,,,67,64
8865,note_on,225,0,1,,,,,,,,0,,,67,0
8865,note_on,225,0,4,,,,,,,,3,,,62,0
8865,note_on,225,0,3,,,,,,,,2,,,67,0
8865,note_on,225,0,2,,,,,,,,1,,,67,0
8880,note_on,15,0,2,,,,,,,,1,,,70,64
8880,note_on,15,0,4,,,,,,,,3,,,67,85
8880,note_on,15,0,3,,,,,,,,2,,,70,64
8880,note_on,15,0,1,,,,,,,,0,,,70,64
9085,note_on,445,0,6,,,,,,,,5,,,46,0
9085,note_on,445,0,5,,,,,,,,4,,,58,0
9105,note_on,225,0,1,,,,,,,,0,,,70,0
9105,note_on,225,0,2,,,,,,,,1,,,70,0
9105,note_on,225,0,3,,,,,,,,2,,,70,0
9105,note_on,225,0,4,,,,,,,,3,,,67,0
9120,note_on,15,0,3,,,,,,,,2,,,74,64
9120,note_on,15,0,4,,,,,,,,3,,,70,85
9120,note_on,15,0,1,,,,,,,,0,,,74,64
9120,note_on,15,0,2,,,,,,,,1,,,74,64
9345,note_on,225,0,3,,,,,,,,2,,,74,0
9345,note_on,225,0,2,,,,,,,,1,,,74,0
9345,note_on,225,0,1,,,,,,,,0,,,74,0
9345,note_on,225,0,4,,,,,,,,3,,,70,0
9360,note_on,15,0,4,,,,,,,,3,,,74,85
9360,note_on,275,0,6,,,,,,,,5,,,46,85
9360,note_on,15,0,1,,,,,,,,0,,,79,64
9360,note_on,15,0,2,,,,,,,,1,,,79,64
9360,note_on,275,0,5,,,,,,,,4,,,58,85
9360,note_on,15,0,3,,,,,,,,2,,,79,64
9585,note_on,225,0,6,,,,,,,,5,,,46,0
9585,note_on,225,0,4,,,,,,,,3,,,74,0
9585,note_on,225,0,5,,,,,,,,4,,,58,0
9600,note_on,15,0,6,,,,,,,,5,,,48,85
9600,note_on,15,0,4,,,,,,,,3,,,64,85
9600,note_on,15,0,5,,,,,,,,4,,,60,85
9825,note_on,465,0,3,,,,,,,,2,,,79,0
9825,note_on,465,0,1,,,,,,,,0,,,79,0
9825,note_on,465,0,2,,,,,,,,1,,,79,0
9840,note_on,15,0,2,,,,,,,,1,,,76,64
9840,note_on,15,0,1,,,,,,,,0,,,76,64
9840,note_on,15,0,3,,,,,,,,2,,,76,64
10045,note_on,445,0,4,,,,,,,,3,,,64,0
10045,note_on,445,0,5,,,,,,,,4,,,60,0
10045,note_on,445,0,6,,,,,,,,5,,,48,0
10080,note_on,35,0,4,,,,,,,,3,,,67,85
10080,note_on,35,0,6,,,,,,,,5,,,46,85
10080,note_on,35,0,5,,,,,,,,4,,,58,85
10285,note_on,445,0,3,,,,,,,,2,,,76,0
10285,note_on,445,0,1,,,,,,,,0,,,76,0
10285,note_on,445,0,2,,,,,,,,1,,,76,0
10320,note_on,35,0,3,,,,,,,,2,,,77,64
10320,note_on,35,0,1,,,,,,,,0,,,77,64
10320,note_on,35,0,2,,,,,,,,1,,,77,64
10525,note_on,445,0,5,,,,,,,,4,,,58,0
10525,note_on,445,0,6,,,,,,,,5,,,46,0
10525,note_on,445,0,4,,,,,,,,3,,,67,0
10545,note_on,225,0,1,,,,,,,,0,,,77,0
10545,note_on,225,0,2,,,,,,,,1,,,77,0
10545,note_on,225,0,3,,,,,,,,2,,,77,0
10560,note_on,15,0,3,,,,,,,,2,,,65,64
10560,note_on,15,0,2,,,,,,,,1,,,65,64
10560,note_on,35,0,6,,,,,,,,5,,,45,85
10560,note_on,35,0,4,,,,,,,,3,,,60,85
10560,note_on,15,0,1,,,,,,,,0,,,65,64
10560,note_on,35,0,5,,,,,,,,4,,,57,85
10785,note_on,225,0,4,,,,,,,,3,,,60,0
10785,note_on,225,0,2,,,,,,,,1,,,65,0
10785,note_on,225,0,3,,,,,,,,2,,,65,0
10785,note_on,225,0,1,,,,,,,,0,,,65,0
10800,note_on,15,0,3,,,,,,,,2,,,69,64
10800,note_on,15,0,1,,,,,,,,0,,,69,64
10800,note_on,15,0,4,,,,,,,,3,,,65,85
10800,note_on,15,0,2,,,,,,,,1,,,69,64
11005,note_on,445,0,5,,,,,,,,4,,,57,0
11005,note_on,445,0,6,,,,,,,,5,,,45,0
11025,note_on,225,0,1,,,,,,,,0,,,69,0
11025,note_on,225,0,2,,,,,,,,1,,,69,0
11025,note_on,225,0,4,,,,,,,,3,,,65,0
11025,note_on,225,0,3,,,,,,,,2,,,69,0
11040,note_on,15,0,3,,,,,,,,2,,,72,64
11040,note_on,15,0,2,,,,,,,,1,,,72,64
11040,note_on,15,0,4,,,,,,,,3,,,69,85
11040,note_on,15,0,1,,,,,,,,0,,,72,64
11265,note_on,225,0,3,,,,,,,,2,,,72,0
11265,note_on,225,0,2,,,,,,,,1,,,72,0
11265,note_on,225,0,4,,,,,,,,3,,,69,0
11265,note_on,225,0,1,,,,,,,,0,,,72,0
11280,note_on,15,0,1,,,,,,,,0,,,77,64
11280,note_on,15,0,2,,,,,,,,1,,,77,64
11280,note_on,275,0,6,,,,,,,,5,,,45,85
11280,note_on,15,0,3,,,,,,,,2,,,77,64
11280,note_on,15,0,4,,,,,,,,3,,,72,85
11280,note_on,275,0,5,,,,,,,,4,,,57,85
11505,note_on,225,0,6,,,,,,,,5,,,45,0
11505,note_on,225,0,4,,,,,,,,3,,,72,0
11505,note_on,225,0,5,,,,,,,,4,,,57,0
11520,note_on,15,0,4,,,,,,,,3,,,70,85
11520,note_on,15,0,6,,,,,,,,5,,,43,85
11520,note_on,15,0,5,,,,,,,,4,,,55,85
11745,note_on,465,0,1,,,,,,,,0,,,77,0
11745,note_on,465,0,3,,,,,,,,2,,,77,0
11745,note_on,465,0,2,,,,,,,,1,,,77,0
11760,note_on,15,0,1,,,,,,,,0,,,76,64
11760,note_on,15,0,3,,,,,,,,2,,,76,64
11760,note_on,15,0,2,,,,,,,,1,,,76,64
11965,note_on,445,0,5,,,,,,,,4,,,55,0
11965,note_on,445,0,4,,,,,,,,3,,,70,0
11965,note_on,445,0,6,,,,,,,,5,,,43,0
12000,note_on,35,0,4,,,,,,,,3,,,71,85
12000,note_on,35,0,5,,,,,,,,4,,,56,85
12000,note_on,35,0,6,,,,,,,,5,,,44,85
12205,note_on,445,0,3,,,,,,,,2,,,76,0
12205,note_on,445,0,2,,,,,,,,1,,,76,0
12205,note_on,445,0,1,,,,,,,,0,,,76,0
12240,note_on,35,0,2,,,,,,,,1,,,74,64
12240,note_on,35,0,3,,,,,,,,2,,,74,64
12240,note_on,35,0,1,,,,,,,,0,,,74,64
12445,note_on,445,0,5,,,,,,,,4,,,56,0
12445,note_on,445,0,4,,,,,,,,3,,,71,0
12445,note_on,445,0,6,,,,,,,,5,,,44,0
12465,note_on,225,0,2,,,,,,,,1,,,74,0
12465,note_on,225,0,3,,,,,,,,2,,,74,0
12465,note_on,225,0,1,,,,,,,,0,,,74,0
12480,note_on,15,0,1,,,,,,,,0,,,73,64
12480,note_on,15,0,3,,,,,,,,2,,,73,64
12480,note_on,35,0,6,,,,,,,,5,,,45,85
12480,note_on,15,0,2,,,,,,,,1,,,73,64
12480,note_on,35,0,4,,,,,,,,3,,,64,85
12480,note_on,35,0,5,,,,,,,,4,,,57,85
12705,note_on,225,0,2,,,,,,,,1,,,73,0
12705,note_on,225,0,1,,,,,,,,0,,,73,0
12705,note_on,225,0,3,,,,,,,,2,,,73,0
12720,note_on,15,0,1,,,,,,,,0,,,81,64
12720,note_on,15,0,3,,,,,,,,2,,,81,64
12720,note_on,15,0,2,,,,,,,,1,,,81,64
12925,note_on,445,0,4,,,,,,,,3,,,64,0
12925,note_on,445,0,6,,,,,,,,5,,,45,0
12925,note_on,445,0,5,,,,,,,,4,,,57,0
12960,note_on,35,0,5,,,,,,,,4,,,49,85
12960,note_on,35,0,4,,,,,,,,3,,,64,85
12960,note_on,35,0,6,,,,,,,,5,,,37,85
13165,note_on,445,0,1,,,,,,,,0,,,81,0
13165,note_on,445,0,2,,,,,,,,1,,,81,0
13165,note_on,445,0,3,,,,,,,,2,,,81,0
13200,note_on,35,0,2,,,,,,,,1,,,79,64
13200,note_on,35,0,1,,,,,,,,0,,,79,64
13200,note_on,35,0,3,,,,,,,,2,,,79,64
13405,note_on,445,0,4,,,,,,,,3,,,64,0
13405,note_on,445,0,5,,,,,,,,4,,,49,0
13405,note_on,445,0,6,,,,,,,,5,,,37,0
13425,note_on,225,0,3,,,,,,,,2,,,79,0
13425,note_on,225,0,1,,,,,,,,0,,,79,0
13425,note_on,225,0,2,,,,,,,,1,,,79,0
13440,note_on,15,0,1,,,,,,,,0,,,77,64
13440,note_on,35,0,4,,,,,,,,3,,,57,85
13440,note_on,35,0,5,,,,,,,,4,,,50,85
13440,note_on,35,0,6,,,,,,,,5,,,38,85
13440,note_on,15,0,3,,,,,,,,2,,,77,64
13440,note_on,15,0,2,,,,,,,,1,,,77,64
13665,note_on,225,0,3,,,,,,,,2,,,77,0
13665,note_on,225,0,4,,,,,,,,3,,,57,0
13665,note_on,225,0,2,,,,,,,,1,,,77,0
13665,note_on,225,0,1,,,,,,,,0,,,77,0
13680,note_on,15,0,3,,,,,,,,2,,,74,64
13680,note_on,15,0,1,,,,,,,,0,,,74,64
13680,note_on,15,0,2,,,,,,,,1,,,74,64
13680,note_on,15,0,4,,,,,,,,3,,,65,85
13885,note_on,445,0,6,,,,,,,,5,,,38,0
13885,note_on,445,0,5,,,,,,,,4,,,50,0
13905,note_on,225,0,1,,,,,,,,0,,,74,0
13905,note_on,225,0,2,,,,,,,,1,,,74,0
13905,note_on,225,0,3,,,,,,,,2,,,74,0
13905,note_on,225,0,4,,,,,,,,3,,,65,0
13920,note_on,15,0,4,,,,,,,,3,,,62,85
13920,note_on,35,0,6,,,,,,,,5,,,43,85
13920,note_on,15,0,1,,,,,,,,0,,,82,64
13920,note_on,35,0,5,,,,,,,,4,,,55,85
13920,note_on,15,0,2,,,,,,,,1,,,82,64
13920,note_on,15,0,3,,,,,,,,2,,,82,64
14035,note_on,115,0,6,,,,,,,,5,,,43,0
14035,note_on,115,0,5,,,,,,,,4,,,55,0
14040,note_on,5,0,5,,,,,,,,4,,,57,85
14040,note_on,5,0,6,,,,,,,,5,,,45,85
14145,note_on,225,0,4,,,,,,,,3,,,62,0
14155,note_on,115,0,6,,,,,,,,5,,,45,0
14155,note_on,115,0,5,,,,,,,,4,,,57,0
14160,note_on,5,0,6,,,,,,,,5,,,46,85
14160,note_on,15,0,4,,,,,,,,3,,,67,85
14160,note_on,5,0,5,,,,,,,,4,,,58,85
14275,note_on,115,0,6,,,,,,,,5,,,46,0
14275,note_on,115,0,5,,,,,,,,4,,,58,0
14280,note_on,5,0,6,,,,,,,,5,,,43,85
14280,note_on,5,0,5,,,,,,,,4,,,55,85
14385,note_on,225,0,4,,,,,,,,3,,,67,0
14395,note_on,115,0,6,,,,,,,,5,,,43,0
14395,note_on,115,0,5,,,,,,,,4,,,55,0
14400,note_on,15,0,4,,,,,,,,3,,,64,85
14400,note_on,5,0,5,,,,,,,,4,,,60,85
14400,note_on,5,0,6,,,,,,,,5,,,48,85
14515,note_on,115,0,4,,,,,,,,3,,,64,0
14515,note_on,115,0,5,,,,,,,,4,,,60,0
14515,note_on,115,0,6,,,,,,,,5,,,48,0
14520,note_on,5,0,6,,,,,,,,5,,,50,85
14520,note_on,5,0,4,,,,,,,,3,,,65,85
14520,note_on,5,0,5,,,,,,,,4,,,62,85
14625,note_on,705,0,3,,,,,,,,2,,,82,0
14625,note_on,705,0,1,,,,,,,,0,,,82,0
14625,note_on,705,0,2,,,,,,,,1,,,82,0
14635,note_on,115,0,6,,,,,,,,5,,,50,0
14635,note_on,115,0,5,,,,,,,,4,,,62,0
14635,note_on,115,0,4,,,,,,,,3,,,65,0
14640,note_on,5,0,5,,,,,,,,4,,,64,85
14640,note_on,5,0,4,,,,,,,,3,,,67,85
14640,note_on,5,0,6,,,,,,,,5,,,52,85
14640,note_on,15,0,1,,,,,,,,0,,,76,64
14640,note_on,15,0,3,,,,,,,,2,,,76,64
14640,note_on,15,0,2,,,,,,,,1,,,76,64
14755,note_on,115,0,4,,,,,,,,3,,,67,0
14755,note_on,115,0,6,,,,,,,,5,,,52,0
14755,note_on,115,0,5,,,,,,,,4,,,64,0
14760,note_on,5,0,6,,,,,,,,5,,,48,85
14760,note_on,5,0,4,,,,,,,,3,,,64,85
14760,note_on,5,0,5,,,,,,,,4,,,60,85
14865,note_on,225,0,1,,,,,,,,0,,,76,0
14865,note_on,225,0,3,,,,,,,,2,,,76,0
14865,note_on,225,0,2,,,,,,,,1,,,76,0
14875,note_on,115,0,6,,,,,,,,5,,,48,0
14875,note_on,115,0,5,,,,,,,,4,,,60,0
14875,note_on,115,0,4,,,,,,,,3,,,64,0
14880,note_on,5,0,6,,,,,,,,5,,,41,85
14880,note_on,15,0,1,,,,,,,,0,,,81,64
14880,note_on,5,0,4,,,,,,,,3,,,60,85
14880,note_on,15,0,3,,,,,,,,2,,,81,64
14880,note_on,5,0,5,,,,,,,,4,,,53,85
14880,note_on,15,0,2,,,,,,,,1,,,81,64
14995,note_on,115,0,5,,,,,,,,4,,,53,0
14995,note_on,115,0,6,,,,,,,,5,,,41,0
15000,note_on,5,0,6,,,,,,,,5,,,43,85
15000,note_on,5,0,5,,,,,,,,4,,,55,85
15105,note_on,225,0,4,,,,,,,,3,,,60,0
15115,note_on,115,0,6,,,,,,,,5,,,43,0
15115,note_on,115,0,5,,,,,,,,4,,,55,0
15120,note_on,15,0,4,,,,,,,,3,,,65,85
15120,note_on,5,0,5,,,,,,,,4,,,57,85
15120,note_on,5,0,6,,,,,,,,5,,,45,85
15235,note_on,115,0,6,,,,,,,,5,,,45,0
15235,note_on,115,0,5,,,,,,,,4,,,57,0
15240,note_on,5,0,5,,,,,,,,4,,,53,85
15240,note_on,5,0,6,,,,,,,,5,,,41,85
15345,note_on,225,0,4,,,,,,,,3,,,65,0
15355,note_on,115,0,6,,,,,,,,5,,,41,0
15355,note_on,115,0,5,,,,,,,,4,,,53,0
15360,note_on,15,0,4,,,,,,,,3,,,62,85
15360,note_on,5,0,5,,,,,,,,4,,,58,85
15360,note_on,5,0,6,,,,,,,,5,,,46,85
15475,note_on,115,0,5,,,,,,,,4,,,58,0
15475,note_on,115,0,6,,,,,,,,5,,,46,0
15475,note_on,115,0,4,,,,,,,,3,,,62,0
15480,note_on,5,0,5,,,,,,,,4,,,60,85
15480,note_on,5,0,4,,,,,,,,3,,,64,85
15480,note_on,5,0,6,,,,,,,,5,,,48,85
15585,note_on,705,0,3,,,,,,,,2,,,81,0
15585,note_on,705,0,1,,,,,,,,0,,,81,0
15585,note_on,705,0,2,,,,,,,,1,,,81,0
15595,note_on,115,0,6,,,,,,,,5,,,48,0
15595,note_on,115,0,5,,,,,,,,4,,,60,0
15595,note_on,115,0,4,,,,,,,,3,,,64,0
15600,note_on,5,0,6,,,,,,,,5,,,50,85
15600,note_on,15,0,2,,,,,,,,1,,,74,64
15600,note_on,15,0,1,,,,,,,,0,,,74,64
15600,note_on,15,0,3,,,,,,,,2,,,74,64
15600,note_on,5,0,4,,,,,,,,3,,,65,85
15600,note_on,5,0,5,,,,,,,,4,,,62,85
15715,note_on,115,0,6,,,,,,,,5,,,50,0
15715,note_on,115,0,4,,,,,,,,3,,,65,0
15715,note_on,115,0,5,,,,,,,,4,,,62,0
15720,note_on,5,0,6,,,,,,,,5,,,48,85
15720,note_on,5,0,4,,,,,,,,3,,,64,85
15720,note_on,5,0,5,,,,,,,,4,,,60,85
15825,note_on,225,0,1,,,,,,,,0,,,74,0
15825,note_on,225,0,3,,,,,,,,2,,,74,0
15825,note_on,225,0,2,,,,,,,,1,,,74,0
15835,note_on,115,0,6,,,,,,,,5,,,48,0
15835,note_on,115,0,4,,,,,,,,3,,,64,0
15835,note_on,115,0,5,,,,,,,,4,,,60,0
15840,note_on,15,0,1,,,,,,,,0,,,79,64
15840,note_on,5,0,5,,,,,,,,4,,,58,85
15840,note_on,15,0,3,,,,,,,,2,,,79,64
15840,note_on,15,0,2,,,,,,,,1,,,79,64
15840,note_on,5,0,6,,,,,,,,5,,,46,85
15840,note_on,5,0,4,,,,,,,,3,,,62,85
15955,note_on,115,0,5,,,,,,,,4,,,58,0
15955,note_on,115,0,4,,,,,,,,3,,,62,0
15955,note_on,115,0,6,,,,,,,,5,,,46,0
15960,note_on,5,0,6,,,,,,,,5,,,45,85
15960,note_on,5,0,5,,,,,,,,4,,,57,85
15960,note_on,5,0,4,,,,,,,,3,,,60,85
16075,note_on,115,0,4,,,,,,,,3,,,60,0
16075,note_on,115,0,5,,,,,,,,4,,,57,0
16075,note_on,115,0,6,,,,,,,,5,,,45,0
16080,note_on,5,0,5,,,,,,,,4,,,55,85
16080,note_on,5,0,6,,,,,,,,5,,,43,85
16080,note_on,5,0,4,,,,,,,,3,,,58,85
16195,note_on,115,0,4,,,,,,,,3,,,58,0
16195,note_on,115,0,5,,,,,,,,4,,,55,0
16195,note_on,115,0,6,,,,,,,,5,,,43,0
16200,note_on,5,0,5,,,,,,,,4,,,58,85
16200,note_on,5,0,6,,,,,,,,5,,,46,85
16200,note_on,5,0,4,,,,,,,,3,,,62,85
16315,note_on,115,0,4,,,,,,,,3,,,62,0
16315,note_on,115,0,5,,,,,,,,4,,,58,0
16315,note_on,115,0,6,,,,,,,,5,,,46,0
16320,note_on,5,0,4,,,,,,,,3,,,61,85
16320,note_on,5,0,5,,,,,,,,4,,,57,85
16320,note_on,5,0,6,,,,,,,,5,,,45,85
16435,note_on,115,0,5,,,,,,,,4,,,57,0
16435,note_on,115,0,6,,,,,,,,5,,,45,0
16435,note_on,115,0,4,,,,,,,,3,,,61,0
16440,note_on,5,0,5,,,,,,,,4,,,59,85
16440,note_on,5,0,4,,,,,,,,3,,,62,85
16440,note_on,5,0,6,,,,,,,,5,,,47,85
16545,note_on,705,0,3,,,,,,,,2,,,79,0
16545,note_on,705,0,2,,,,,,,,1,,,79,0
16545,note_on,705,0,1,,,,,,,,0,,,79,0
16555,note_on,115,0,4,,,,,,,,3,,,62,0
16555,note_on,115,0,5,,,,,,,,4,,,59,0
16555,note_on,115,0,6,,,,,,,,5,,,47,0
16560,note_on,15,0,2,,,,,,,,1,,,69,64
16560,note_on,5,0,4,,,,,,,,3,,,64,85
16560,note_on,5,0,5,,,,,,,,4,,,61,85
16560,note_on,15,0,3,,,,,,,,2,,,69,64
16560,note_on,15,0,1,,,,,,,,0,,,69,64
16560,note_on,5,0,6,,,,,,,,5,,,49,85
16675,note_on,115,0,6,,,,,,,,5,,,49,0
16675,note_on,115,0,5,,,,,,,,4,,,61,0
16675,note_on,115,0,4,,,,,,,,3,,,64,0
16680,note_on,5,0,4,,,,,,,,3,,,61,85
16680,note_on,5,0,6,,,,,,,,5,,,45,85
16680,note_on,5,0,5,,,,,,,,4,,,57,85
16785,note_on,225,0,3,,,,,,,,2,,,69,0
16785,note_on,225,0,2,,,,,,,,1,,,69,0
16785,note_on,225,0,1,,,,,,,,0,,,69,0
16795,note_on,115,0,6,,,,,,,,5,,,45,0
16795,note_on,115,0,4,,,,,,,,3,,,61,0
16795,note_on,115,0,5,,,,,,,,4,,,57,0
16800,note_on,15,0,2,,,,,,,,1,,,77,64
16800,note_on,5,0,6,,,,,,,,5,,,38,85
16800,note_on,15,0,3,,,,,,,,2,,,77,64
16800,note_on,15,0,1,,,,,,,,0,,,77,64
16800,note_on,5,0,4,,,,,,,,3,,,57,85
16800,note_on,5,0,5,,,,,,,,4,,,50,85
16915,note_on,115,0,5,,,,,,,,4,,,50,0
16915,note_on,115,0,6,,,,,,,,5,,,38,0
16920,note_on,5,0,5,,,,,,,,4,,,52,85
16920,note_on,5,0,6,,,,,,,,5,,,40,85
17025,note_on,225,0,4,,,,,,,,3,,,57,0
17035,note_on,115,0,6,,,,,,,,5,,,40,0
17035,note_on,115,0,5,,,,,,,,4,,,52,0
17040,note_on,5,0,5,,,,,,,,4,,,53,85
17040,note_on,15,0,4,,,,,,,,3,,,69,85
17040,note_on,5,0,6,,,,,,,,5,,,41,85
17155,note_on,115,0,5,,,,,,,,4,,,53,0
17155,note_on,115,0,6,,,,,,,,5,,,41,0
17160,note_on,5,0,5,,,,,,,,4,,,50,85
17160,note_on,5,0,6,,,,,,,,5,,,38,85
17265,note_on,225,0,4,,,,,,,,3,,,69,0
17275,note_on,115,0,6,,,,,,,,5,,,38,0
17275,note_on,115,0,5,,,,,,,,4,,,50,0
17280,note_on,5,0,6,,,,,,,,5,,,43,85
17280,note_on,5,0,5,,,,,,,,4,,,55,85
17280,note_on,15,0,4,,,,,,,,3,,,70,85
17395,note_on,115,0,6,,,,,,,,5,,,43,0
17395,note_on,115,0,5,,,,,,,,4,,,55,0
17400,note_on,5,0,5,,,,,,,,4,,,57,85
17400,note_on,5,0,6,,,,,,,,5,,,45,85
17505,note_on,705,0,2,,,,,,,,1,,,77,0
17505,note_on,705,0,1,,,,,,,,0,,,77,0
17505,note_on,705,0,3,,,,,,,,2,,,77,0
17515,note_on,115,0,5,,,,,,,,4,,,57,0
17515,note_on,115,0,6,,,,,,,,5,,,45,0
17520,note_on,15,0,2,,,,,,,,1,,,76,64
17520,note_on,5,0,6,,,,,,,,5,,,46,85
17520,note_on,15,0,3,,,,,,,,2,,,76,64
17520,note_on,15,0,1,,,,,,,,0,,,76,64
17520,note_on,5,0,5,,,,,,,,4,,,58,85
17635,note_on,115,0,3,,,,,,,,2,,,76,0
17635,note_on,115,0,2,,,,,,,,1,,,76,0
17635,note_on,115,0,6,,,,,,,,5,,,46,0
17635,note_on,115,0,5,,,,,,,,4,,,58,0
17635,note_on,115,0,1,,,,,,,,0,,,76,0
17640,note_on,5,0,1,,,,,,,,0,,,74,64
17640,note_on,5,0,2,,,,,,,,1,,,74,64
17640,note_on,5,0,3,,,,,,,,2,,,74,64
17640,note_on,5,0,5,,,,,,,,4,,,55,85
17640,note_on,5,0,6,,,,,,,,5,,,43,85
17725,note_on,445,0,4,,,,,,,,3,,,70,0
17755,note_on,115,0,2,,,,,,,,1,,,74,0
17755,note_on,115,0,5,,,,,,,,4,,,55,0
17755,note_on,115,0,3,,,,,,,,2,,,74,0
17755,note_on,115,0,1,,,,,,,,0,,,74,0
17755,note_on,115,0,6,,,,,,,,5,,,43,0
17760,note_on,5,0,2,,,,,,,,1,,,74,64
17760,note_on,5,0,6,,,,,,,,5,,,45,85
17760,note_on,5,0,3,,,,,,,,2,,,74,64
17760,note_on,35,0,4,,,,,,,,3,,,64,85
17760,note_on,5,0,1,,,,,,,,0,,,74,64
17760,note_on,5,0,5,,,,,,,,4,,,57,85
17820,note_on,0,0,2,,,,,,,,1,,,73,64
17820,note_on,60,0,2,,,,,,,,1,,,74,0
17820,note_on,60,0,3,,,,,,,,2,,,74,0
17820,note_on,0,0,3,,,,,,,,2,,,73,64
17820,note_on,60,0,1,,,,,,,,0,,,74,0
17820,note_on,0,0,1,,,,,,,,0,,,73,64
17880,note_on,60,0,3,,,,,,,,2,,,73,0
17880,note_on,60,0,1,,,,,,,,0,,,73,0
17880,note_on,0,0,1,,,,,,,,0,,,74,64
17880,note_on,60,0,2,,,,,,,,1,,,73,0
17880,note_on,0,0,2,,,,,,,,1,,,74,64
17880,note_on,0,0,3,,,,,,,,2,,,74,64
17940,note_on,0,0,1,,,,,,,,0,,,73,64
17940,note_on,60,0,1,,,,,,,,0,,,74,0
17940,note_on,0,0,3,,,,,,,,2,,,73,64
17940,note_on,60,0,2,,,,,,,,1,,,74,0
17940,note_on,0,0,2,,,,,,,,1,,,73,64
17940,note_on,60,0,3,,,,,,,,2,,,74,0
17985,note_on,225,0,6,,,,,,,,5,,,45,0
17985,note_on,225,0,5,,,,,,,,4,,,57,0
18000,note_on,15,0,6,,,,,,,,5,,,33,85
18000,note_on,15,0,5,,,,,,,,4,,,45,85
18115,note_on,175,0,3,,,,,,,,2,,,73,0
18115,note_on,175,0,1,,,,,,,,0,,,73,0
18115,note_on,175,0,2,,,,,,,,1,,,73,0
18120,note_on,5,0,3,,,,,,,,2,,,74,64
18120,note_on,5,0,2,,,,,,,,1,,,74,64
18120,note_on,5,0,1,,,,,,,,0,,,74,64
18205,note_on,445,0,4,,,,,,,,3,,,64,0
18225,note_on,225,0,6,,,,,,,,5,,,33,0
18225,note_on,225,0,5,,,,,,,,4,,,45,0
18235,note_on,115,0,3,,,,,,,,2,,,74,0
18235,note_on,115,0,2,,,,,,,,1,,,74,0
18235,note_on,115,0,1,,,,,,,,0,,,74,0
18240,note_on,5,0,3,,,,,,,,2,,,74,64
18240,note_on,15,0,6,,,,,,,,5,,,38,85
18240,note_on,15,0,5,,,,,,,,4,,,50,85
18240,note_on,5,0,2,,,,,,,,1,,,74,64
18240,note_on,5,0,1,,,,,,,,0,,,74,64
18240,note_on,35,0,4,,,,,,,,3,,,65,85
18465,note_on,225,0,3,,,,,,,,2,,,74,0
18465,note_on,225,0,1,,,,,,,,0,,,74,0
18465,note_on,225,0,2,,,,,,,,1,,,74,0
18480,note_on,15,0,2,,,,,,,,1,,,69,64
18480,note_on,15,0,1,,,,,,,,0,,,69,64
18480,note_on,15,0,3,,,,,,,,2,,,69,64
18685,note_on,445,0,4,,,,,,,,3,,,65,0
18685,note_on,445,0,6,,,,,,,,5,,,38,0
18685,note_on,445,0,5,,,,,,,,4,,,50,0
18705,note_on,225,0,2,,,,,,,,1,,,69,0
18705,note_on,225,0,3,,,,,,,,2,,,69,0
18705,note_on,225,0,1,,,,,,,,0,,,69,0
18720,note_on,15,0,3,,,,,,,,2,,,70,64
18720,note_on,15,0,2,,,,,,,,1,,,70,64
18720,note_on,15,0,1,,,,,,,,0,,,70,64
18960,note_on,275,0,4,,,,,,,,3,,,65,85
18960,note_on,275,0,6,,,,,,,,5,,,38,85
18960,note_on,275,0,5,,,,,,,,4,,,50,85
19185,note_on,225,0,6,,,,,,,,5,,,38,0
19185,note_on,225,0,4,,,,,,,,3,,,65,0
19185,note_on,225,0,5,,,,,,,,4,,,50,0
19200,note_on,15,0,5,,,,,,,,4,,,49,85
19200,note_on,15,0,6,,,,,,,,5,,,37,85
19200,note_on,15,0,4,,,,,,,,3,,,64,85
19425,note_on,705,0,3,,,,,,,,2,,,70,0
19425,note_on,705,0,1,,,,,,,,0,,,70,0
19425,note_on,705,0,2,,,,,,,,1,,,70,0
19440,note_on,15,0,3,,,,,,,,2,,,69,64
19440,note_on,15,0,1,,,,,,,,0,,,69,64
19440,note_on,15,0,2,,,,,,,,1,,,69,64
19665,note_on,225,0,2,,,,,,,,1,,,69,0
19665,note_on,225,0,3,,,,,,,,2,,,69,0
19665,note_on,225,0,1,,,,,,,,0,,,69,0
19680,note_on,15,0,1,,,,,,,,0,,,79,64
19680,note_on,15,0,3,,,,,,,,2,,,79,64
19680,note_on,15,0,2,,,,,,,,1,,,79,64
19865,note_on,665,0,6,,,,,,,,5,,,37,0
19865,note_on,665,0,5,,,,,,,,4,,,49,0
19865,note_on,665,0,4,,,,,,,,3,,,64,0
19920,note_on,55,0,4,,,,,,,,3,,,61,85
19920,note_on,55,0,5,,,,,,,,4,,,45,85
19920,note_on,55,0,6,,,,,,,,5,,,33,85
20145,note_on,225,0,4,,,,,,,,3,,,61,0
20145,note_on,225,0,5,,,,,,,,4,,,45,0
20145,note_on,225,0,6,,,,,,,,5,,,33,0
20160,note_on,15,0,5,,,,,,,,4,,,50,85
20160,note_on,15,0,4,,,,,,,,3,,,57,85
20160,note_on,15,0,6,,,,,,,,5,,,38,85
20385,note_on,705,0,2,,,,,,,,1,,,79,0
20385,note_on,705,0,1,,,,,,,,0,,,79,0
20385,note_on,705,0,3,,,,,,,,2,,,79,0
20400,note_on,15,0,3,,,,,,,,2,,,77,64
20400,note_on,15,0,2,,,,,,,,1,,,77,64
20400,note_on,15,0,1,,,,,,,,0,,,77,64
20605,note_on,445,0,4,,,,,,,,3,,,57,0
20625,note_on,225,0,2,,,,,,,,1,,,77,0
20625,note_on,225,0,1,,,,,,,,0,,,77,0
20625,note_on,225,0,3,,,,,,,,2,,,77,0
20640,note_on,15,0,2,,,,,,,,1,,,82,64
20640,note_on,15,0,1,,,,,,,,0,,,82,64
20640,note_on,15,0,3,,,,,,,,2,,,82,64
20640,note_on,35,0,4,,,,,,,,3,,,65,85
20825,note_on,665,0,5,,,,,,,,4,,,50,0
20825,note_on,665,0,6,,,,,,,,5,,,38,0
20865,note_on,225,0,4,,,,,,,,3,,,65,0
20880,note_on,55,0,6,,,,,,,,5,,,43,85
20880,note_on,55,0,5,,,,,,,,4,,,55,85
20880,note_on,15,0,4,,,,,,,,3,,,62,85
21105,note_on,225,0,4,,,,,,,,3,,,62,0
21105,note_on,225,0,6,,,,,,,,5,,,43,0
21105,note_on,225,0,5,,,,,,,,4,,,55,0
21120,note_on,15,0,5,,,,,,,,4,,,49,85
21120,note_on,15,0,4,,,,,,,,3,,,64,85
21120,note_on,15,0,6,,,,,,,,5,,,37,85
21345,note_on,705,0,3,,,,,,,,2,,,82,0
21345,note_on,705,0,1,,,,,,,,0,,,82,0
21345,note_on,705,0,2,,,,,,,,1,,,82,0
21360,note_on,15,0,2,,,,,,,,1,,,81,64
21360,note_on,15,0,3,,,,,,,,2,,,81,64
21360,note_on,15,0,1,,,,,,,,0,,,81,64
21475,note_on,115,0,3,,,,,,,,2,,,81,0
21475,note_on,115,0,1,,,,,,,,0,,,81,0
21475,note_on,115,0,2,,,,,,,,1,,,81,0
21480,note_on,5,0,1,,,,,,,,0,,,79,64
21480,note_on,5,0,3,,,,,,,,2,,,79,64
21480,note_on,5,0,2,,,,,,,,1,,,79,64
21565,note_on,445,0,5,,,,,,,,4,,,49,0
21565,note_on,445,0,4,,,,,,,,3,,,64,0
21565,note_on,445,0,6,,,,,,,,5,,,37,0
21595,note_on,115,0,1,,,,,,,,0,,,79,0
21595,note_on,115,0,3,,,,,,,,2,,,79,0
21595,note_on,115,0,2,,,,,,,,1,,,79,0
21600,note_on,35,0,4,,,,,,,,3,,,69,85
21600,note_on,5,0,3,,,,,,,,2,,,77,64
21600,note_on,5,0,1,,,,,,,,0,,,77,64
21600,note_on,35,0,6,,,,,,,,5,,,38,85
21600,note_on,5,0,2,,,,,,,,1,,,77,64
21600,note_on,35,0,5,,,,,,,,4,,,50,85
21825,note_on,225,0,6,,,,,,,,5,,,38,0
21825,note_on,225,0,2,,,,,,,,1,,,77,0
21825,note_on,225,0,1,,,,,,,,0,,,77,0
21825,note_on,225,0,5,,,,,,,,4,,,50,0
21825,note_on,225,0,3,,,,,,,,2,,,77,0
21840,note_on,15,0,6,,,,,,,,5,,,37,85
21840,note_on,15,0,2,,,,,,,,1,,,76,64
21840,note_on,15,0,1,,,,,,,,0,,,76,64
21840,note_on,15,0,5,,,,,,,,4,,,49,85
21840,note_on,15,0,3,,,,,,,,2,,,76,64
22065,note_on,225,0,2,,,,,,,,1,,,76,0
22065,note_on,225,0,3,,,,,,,,2,,,76,0
22065,note_on,225,0,1,,,,,,,,0,,,76,0
22065,note_on,225,0,5,,,,,,,,4,,,49,0
22065,note_on,225,0,6,,,,,,,,5,,,37,0
22080,note_on,15,0,2,,,,,,,,1,,,77,64
22080,note_on,15,0,6,,,,,,,,5,,,38,85
22080,note_on,15,0,1,,,,,,,,0,,,77,64
22080,note_on,15,0,5,,,,,,,,4,,,50,85
22080,note_on,15,0,3,,,,,,,,2,,,77,64
22305,note_on,705,0,4,,,,,,,,3,,,69,0
22305,note_on,225,0,5,,,,,,,,4,,,50,0
22305,note_on,225,0,6,,,,,,,,5,,,38,0
22305,note_on,225,0,2,,,,,,,,1,,,77,0
22305,note_on,225,0,1,,,,,,,,0,,,77,0
22305,note_on,225,0,3,,,,,,,,2,,,77,0
22320,note_on,15,0,6,,,,,,,,5,,,43,85
22320,note_on,15,0,2,,,,,,,,1,,,76,64
22320,note_on,15,0,4,,,,,,,,3,,,70,85
22320,note_on,15,0,3,,,,,,,,2,,,76,64
22320,note_on,15,0,5,,,,,,,,4,,,55,85
22320,note_on,15,0,1,,,,,,,,0,,,76,64
22435,note_on,115,0,2,,,,,,,,1,,,76,0
22435,note_on,115,0,1,,,,,,,,0,,,76,0
22435,note_on,115,0,3,,,,,,,,2,,,76,0
22440,note_on,5,0,1,,,,,,,,0,,,74,64
22440,note_on,5,0,2,,,,,,,,1,,,74,64
22440,note_on,5,0,3,,,,,,,,2,,,74,64
22545,note_on,225,0,5,,,,,,,,4,,,55,0
22545,note_on,225,0,6,,,,,,,,5,,,43,0
22545,note_on,225,0,4,,,,,,,,3,,,70,0
22555,note_on,115,0,2,,,,,,,,1,,,74,0
22555,note_on,115,0,1,,,,,,,,0,,,74,0
22555,note_on,115,0,3,,,,,,,,2,,,74,0
22560,note_on,5,0,3,,,,,,,,2,,,74,64
22560,note_on,5,0,1,,,,,,,,0,,,74,64
22560,note_on,15,0,4,,,,,,,,3,,,64,85
22560,note_on,15,0,5,,,,,,,,4,,,57,85
22560,note_on,15,0,6,,,,,,,,5,,,45,85
22560,note_on,5,0,2,,,,,,,,1,,,74,64
22620,note_on,0,0,3,,,,,,,,2,,,73,64
22620,note_on,60,0,2,,,,,,,,1,,,74,0
22620,note_on,0,0,2,,,,,,,,1,,,73,64
22620,note_on,0,0,1,,,,,,,,0,,,73,64
22620,note_on,60,0,1,,,,,,,,0,,,74,0
22620,note_on,60,0,3,,,,,,,,2,,,74,0
22680,note_on,0,0,2,,,,,,,,1,,,74,64
22680,note_on,60,0,2,,,,,,,,1,,,73,0
22680,note_on,0,0,1,,,,,,,,0,,,74,64
22680,note_on,60,0,1,,,,,,,,0,,,73,0
22680,note_on,0,0,3,,,,,,,,2,,,74,64
22680,note_on,60,0,3,,,,,,,,2,,,73,0
22740,note_on,60,0,2,,,,,,,,1,,,74,0
22740,note_on,0,0,2,,,,,,,,1,,,73,64
22740,note_on,60,0,1,,,,,,,,0,,,74,0
22740,note_on,0,0,1,,,,,,,,0,,,73,64
22740,note_on,60,0,3,,,,,,,,2,,,74,0
22740,note_on,0,0,3,,,,,,,,2,,,73,64
22785,note_on,225,0,4,,,,,,,,3,,,64,0
22785,note_on,225,0,6,,,,,,,,5,,,45,0
22785,note_on,225,0,5,,,,,,,,4,,,57,0
22800,note_on,15,0,5,,,,,,,,4,,,45,85
22800,note_on,15,0,4,,,,,,,,3,,,69,85
22800,note_on,15,0,6,,,,,,,,5,,,33,85
22915,note_on,175,0,1,,,,,,,,0,,,73,0
22915,note_on,175,0,3,,,,,,,,2,,,73,0
22915,note_on,175,0,2,,,,,,,,1,,,73,0
22920,note_on,5,0,3,,,,,,,,2,,,74,64
22920,note_on,5,0,2,,,,,,,,1,,,74,64
22920,note_on,5,0,1,,,,,,,,0,,,74,64
23025,note_on,225,0,6,,,,,,,,5,,,33,0
23025,note_on,225,0,4,,,,,,,,3,,,69,0
23025,note_on,225,0,5,,,,,,,,4,,,45,0
23035,note_on,115,0,1,,,,,,,,0,,,74,0
23035,note_on,115,0,3,,,,,,,,2,,,74,0
23035,note_on,115,0,2,,,,,,,,1,,,74,0
23040,note_on,5,0,3,,,,,,,,2,,,74,64
23040,note_on,15,0,6,,,,,,,,5,,,38,85
23040,note_on,5,0,2,,,,,,,,1,,,74,64
23040,note_on,15,0,4,,,,,,,,3,,,65,85
23040,note_on,5,0,1,,,,,,,,0,,,74,106
23040,note_on,15,0,5,,,,,,,,4,,,50,85
23265,note_on,225,0,1,,,,,,,,0,,,74,0
23280,note_on,15,0,1,,,,,,,,0,,,74,106
23485,note_on,445,0,3,,,,,,,,2,,,74,0
23485,note_on,445,0,2,,,,,,,,1,,,74,0
23485,note_on,445,0,4,,,,,,,,3,,,65,0
23485,note_on,445,0,6,,,,,,,,5,,,38,0
23485,note_on,445,0,5,,,,,,,,4,,,50,0
23505,note_on,225,0,1,,,,,,,,0,,,74,0
23520,note_on,15,0,1,,,,,,,,0,,,81,106
23760,note_on,275,0,5,,,,,,,,4,,,50,64
23760,note_on,275,0,6,,,,,,,,5,,,38,64
23985,note_on,225,0,6,,,,,,,,5,,,38,0
23985,note_on,225,0,5,,,,,,,,4,,,50,0
24000,note_on,15,0,5,,,,,,,,4,,,58,64
24000,note_on,15,0,6,,,,,,,,5,,,46,64
24225,note_on,705,0,1,,,,,,,,0,,,81,0
24240,note_on,15,0,1,,,,,,,,0,,,79,106
24355,note_on,115,0,1,,,,,,,,0,,,79,0
24360,note_on,5,0,1,,,,,,,,0,,,77,106
24475,note_on,115,0,1,,,,,,,,0,,,77,0
24480,note_on,5,0,1,,,,,,,,0,,,76,106
24705,note_on,225,0,1,,,,,,,,0,,,76,0
24720,note_on,15,0,1,,,,,,,,0,,,74,106
24945,note_on,225,0,1,,,,,,,,0,,,74,0
24960,note_on,15,0,1,,,,,,,,0,,,73,106
25185,note_on,225,0,1,,,,,,,,0,,,73,0
25185,note_on,1185,0,5,,,,,,,,4,,,58,0
25185,note_on,1185,0,6,,,,,,,,5,,,46,0
25200,note_on,15,0,6,,,,,,,,5,,,45,64
25200,note_on,15,0,5,,,,,,,,4,,,57,64
25200,note_on,15,0,1,,,,,,,,0,,,74,106
25315,note_on,115,0,6,,,,,,,,5,,,45,0
25315,note_on,115,0,5,,,,,,,,4,,,57,0
25320,note_on,5,0,5,,,,,,,,4,,,55,64
25320,note_on,5,0,6,,,,,,,,5,,,43,64
25425,note_on,225,0,1,,,,,,,,0,,,74,0
25435,note_on,115,0,6,,,,,,,,5,,,43,0
25435,note_on,115,0,5,,,,,,,,4,,,55,0
25440,note_on,5,0,5,,,,,,,,4,,,53,64
25440,note_on,5,0,6,,,,,,,,5,,,41,64
25440,note_on,15,0,1,,,,,,,,0,,,76,106
25665,note_on,225,0,6,,,,,,,,5,,,41,0
25665,note_on,225,0,5,,,,,,,,4,,,53,0
25680,note_on,15,0,5,,,,,,,,4,,,52,64
25680,note_on,15,0,6,,,,,,,,5,,,40,64
25905,note_on,225,0,6,,,,,,,,5,,,40,0
25905,note_on,225,0,5,,,,,,,,4,,,52,0
25920,note_on,15,0,6,,,,,,,,5,,,41,64
25920,note_on,15,0,5,,,,,,,,4,,,53,64
26145,note_on,705,0,1,,,,,,,,0,,,76,0
26160,note_on,15,0,1,,,,,,,,0,,,69,106
26385,note_on,225,0,1,,,,,,,,0,,,69,0
26400,note_on,15,0,1,,,,,,,,0,,,74,106
26585,note_on,665,0,5,,,,,,,,4,,,53,0
26585,note_on,665,0,6,,,,,,,,5,,,41,0
26625,note_on,225,0,1,,,,,,,,0,,,74,0
26640,note_on,55,0,6,,,,,,,,5,,,40,64
26640,note_on,55,0,5,,,,,,,,4,,,52,64
26640,note_on,15,0,1,,,,,,,,0,,,76,106
26755,note_on,115,0,1,,,,,,,,0,,,76,0
26755,note_on,115,0,6,,,,,,,,5,,,40,0
26755,note_on,115,0,5,,,,,,,,4,,,52,0
26760,note_on,5,0,1,,,,,,,,0,,,77,106
26760,note_on,5,0,5,,,,,,,,4,,,50,64
26760,note_on,5,0,6,,,,,,,,5,,,38,64
26875,note_on,115,0,6,,,,,,,,5,,,38,0
26875,note_on,115,0,5,,,,,,,,4,,,50,0
26875,note_on,115,0,1,,,,,,,,0,,,77,0
26880,note_on,5,0,6,,,,,,,,5,,,37,64
26880,note_on,5,0,5,,,,,,,,4,,,49,64
26880,note_on,5,0,1,,,,,,,,0,,,79,106
27105,note_on,225,0,1,,,,,,,,0,,,79,0
27120,note_on,15,0,1,,,,,,,,0,,,76,106
27325,note_on,445,0,6,,,,,,,,5,,,37,0
27325,note_on,445,0,5,,,,,,,,4,,,49,0
27345,note_on,225,0,1,,,,,,,,0,,,76,0
27360,note_on,35,0,5,,,,,,,,4,,,45,64
27360,note_on,35,0,6,,,,,,,,5,,,33,64
27360,note_on,15,0,1,,,,,,,,0,,,81,106
27585,note_on,225,0,1,,,,,,,,0,,,81,0
27600,note_on,15,0,1,,,,,,,,0,,,79,106
27805,note_on,445,0,6,,,,,,,,5,,,33,0
27805,note_on,445,0,5,,,,,,,,4,,,45,0
27825,note_on,225,0,1,,,,,,,,0,,,79,0
27840,note_on,35,0,6,,,,,,,,5,,,38,64
27840,note_on,35,0,5,,,,,,,,4,,,50,64
27840,note_on,15,0,1,,,,,,,,0,,,77,106
28065,note_on,225,0,1,,,,,,,,0,,,77,0
28065,note_on,225,0,6,,,,,,,,5,,,38,0
28065,note_on,225,0,5,,,,,,,,4,,,50,0
28080,note_on,15,0,5,,,,,,,,4,,,52,64
28080,note_on,15,0,1,,,,,,,,0,,,74,106
28080,note_on,15,0,6,,,,,,,,5,,,40,64
28305,note_on,225,0,5,,,,,,,,4,,,52,0
28305,note_on,225,0,1,,,,,,,,0,,,74,0
28305,note_on,225,0,6,,,,,,,,5,,,40,0
28320,note_on,15,0,6,,,,,,,,5,,,41,64
28320,note_on,15,0,5,,,,,,,,4,,,53,64
28440,note_on,135,0,1,,,,,,,,0,,,74,106
28545,note_on,225,0,6,,,,,,,,5,,,41,0
28545,note_on,225,0,5,,,,,,,,4,,,53,0
28555,note_on,115,0,1,,,,,,,,0,,,74,0
28560,note_on,15,0,6,,,,,,,,5,,,40,64
28560,note_on,15,0,5,,,,,,,,4,,,52,64
28560,note_on,5,0,1,,,,,,,,0,,,69,106
28675,note_on,115,0,1,,,,,,,,0,,,69,0
28680,note_on,5,0,1,,,,,,,,0,,,74,106
28785,note_on,225,0,6,,,,,,,,5,,,40,0
28785,note_on,225,0,5,,,,,,,,4,,,52,0
28795,note_on,115,0,1,,,,,,,,0,,,74,0
28800,note_on,5,0,1,,,,,,,,0,,,77,106
28800,note_on,15,0,6,,,,,,,,5,,,38,64
28800,note_on,15,0,5,,,,,,,,4,,,50,64
28915,note_on,115,0,1,,,,,,,,0,,,77,0
28920,note_on,5,0,1,,,,,,,,0,,,74,106
29025,note_on,225,0,5,,,,,,,,4,,,50,0
29025,note_on,225,0,6,,,,,,,,5,,,38,0
29035,note_on,115,0,1,,,,,,,,0,,,74,0
29040,note_on,5,0,1,,,,,,,,0,,,69,106
29040,note_on,15,0,5,,,,,,,,4,,,53,64
29040,note_on,15,0,6,,,,,,,,5,,,41,64
29155,note_on,115,0,1,,,,,,,,0,,,69,0
29160,note_on,5,0,1,,,,,,,,0,,,74,106
29265,note_on,225,0,5,,,,,,,,4,,,53,0
29265,note_on,225,0,6,,,,,,,,5,,,41,0
29275,note_on,115,0,1,,,,,,,,0,,,74,0
29280,note_on,15,0,5,,,,,,,,4,,,52,64
29280,note_on,5,0,1,,,,,,,,0,,,77,106
29280,note_on,15,0,6,,,,,,,,5,,,40,64
29395,note_on,115,0,1,,,,,,,,0,,,77,0
29400,note_on,5,0,1,,,,,,,,0,,,74,106
29505,note_on,225,0,6,,,,,,,,5,,,40,0
29505,note_on,225,0,5,,,,,,,,4,,,52,0
29515,note_on,115,0,1,,,,,,,,0,,,74,0
29520,note_on,15,0,6,,,,,,,,5,,,38,64
29520,note_on,15,0,5,,,,,,,,4,,,50,64
29520,note_on,5,0,1,,,,,,,,0,,,69,106
29635,note_on,115,0,1,,,,,,,,0,,,69,0
29640,note_on,5,0,1,,,,,,,,0,,,74,106
29745,note_on,225,0,6,,,,,,,,5,,,38,0
29745,note_on,225,0,5,,,,,,,,4,,,50,0
29755,note_on,115,0,1,,,,,,,,0,,,74,0
29760,note_on,15,0,6,,,,,,,,5,,,31,64
29760,note_on,15,0,5,,,,,,,,4,,,43,64
29760,note_on,5,0,1,,,,,,,,0,,,70,106
29875,note_on,115,0,1,,,,,,,,0,,,70,0
29880,note_on,5,0,1,,,,,,,,0,,,67,106
29985,note_on,225,0,5,,,,,,,,4,,,43,0
29985,note_on,225,0,6,,,,,,,,5,,,31,0
29995,note_on,115,0,1,,,,,,,,0,,,67,0
30000,note_on,5,0,1,,,,,,,,0,,,62,106
30000,note_on,15,0,5,,,,,,,,4,,,46,64
30000,note_on,15,0,6,,,,,,,,5,,,34,64
30115,note_on,115,0,1,,,,,,,,0,,,62,0
30120,note_on,5,0,1,,,,,,,,0,,,67,106
30225,note_on,225,0,6,,,,,,,,5,,,34,0
30225,note_on,225,0,5,,,,,,,,4,,,46,0
30235,note_on,115,0,1,,,,,,,,0,,,67,0
30240,note_on,15,0,6,,,,,,,,5,,,33,64
30240,note_on,5,0,1,,,,,,,,0,,,70,106
30240,note_on,15,0,5,,,,,,,,4,,,45,64
30355,note_on,115,0,1,,,,,,,,0,,,70,0
30360,note_on,5,0,1,,,,,,,,0,,,67,106
30465,note_on,225,0,6,,,,,,,,5,,,33,0
30465,note_on,225,0,5,,,,,,,,4,,,45,0
30475,note_on,115,0,1,,,,,,,,0,,,67,0
30480,note_on,15,0,5,,,,,,,,4,,,43,64
30480,note_on,5,0,1,,,,,,,,0,,,62,106
30480,note_on,15,0,6,,,,,,,,5,,,31,64
30595,note_on,115,0,1,,,,,,,,0,,,62,0
30600,note_on,5,0,1,,,,,,,,0,,,67,106
30705,note_on,225,0,5,,,,,,,,4,,,43,0
30705,note_on,225,0,6,,,,,,,,5,,,31,0
30715,note_on,115,0,1,,,,,,,,0,,,67,0
30720,note_on,15,0,6,,,,,,,,5,,,40,64
30720,note_on,5,0,1,,,,,,,,0,,,72,106
30720,note_on,15,0,5,,,,,,,,4,,,52,64
30835,note_on,115,0,1,,,,,,,,0,,,72,0
30840,note_on,5,0,1,,,,,,,,0,,,70,106
30945,note_on,225,0,6,,,,,,,,5,,,40,0
30945,note_on,225,0,5,,,,,,,,4,,,52,0
30955,note_on,115,0,1,,,,,,,,0,,,70,0
30960,note_on,15,0,5,,,,,,,,4,,,50,64
30960,note_on,5,0,1,,,,,,,,0,,,72,106
30960,note_on,15,0,6,,,,,,,,5,,,38,64
31075,note_on,115,0,1,,,,,,,,0,,,72,0
31080,note_on,5,0,1,,,,,,,,0,,,74,106
31185,note_on,225,0,5,,,,,,,,4,,,50,0
31185,note_on,225,0,6,,,,,,,,5,,,38,0
31195,note_on,115,0,1,,,,,,,,0,,,74,0
31200,note_on,15,0,5,,,,,,,,4,,,52,64
31200,note_on,15,0,6,,,,,,,,5,,,40,64
31200,note_on,5,0,1,,,,,,,,0,,,72,106
31315,note_on,115,0,1,,,,,,,,0,,,72,0
31320,note_on,5,0,1,,,,,,,,0,,,70,106
31425,note_on,225,0,5,,,,,,,,4,,,52,0
31425,note_on,225,0,6,,,,,,,,5,,,40,0
31435,note_on,115,0,1,,,,,,,,0,,,70,0
31440,note_on,15,0,6,,,,,,,,5,,,36,64
31440,note_on,5,0,1,,,,,,,,0,,,69,106
31440,note_on,15,0,5,,,,,,,,4,,,48,64
31555,note_on,115,0,1,,,,,,,,0,,,69,0
31560,note_on,5,0,1,,,,,,,,0,,,67,106
31665,note_on,225,0,5,,,,,,,,4,,,48,0
31665,note_on,225,0,6,,,,,,,,5,,,36,0
31675,note_on,115,0,1,,,,,,,,0,,,67,0
31680,note_on,5,0,1,,,,,,,,0,,,65,106
31680,note_on,15,0,5,,,,,,,,4,,,53,64
31680,note_on,15,0,6,,,,,,,,5,,,41,64
31795,note_on,115,0,1,,,,,,,,0,,,65,0
31800,note_on,5,0,1,,,,,,,,0,,,60,106
31905,note_on,225,0,6,,,,,,,,5,,,41,0
31905,note_on,225,0,5,,,,,,,,4,,,53,0
31915,note_on,115,0,1,,,,,,,,0,,,60,0
31920,note_on,15,0,6,,,,,,,,5,,,43,64
31920,note_on,5,0,1,,,,,,,,0,,,57,106
31920,note_on,15,0,5,,,,,,,,4,,,55,64
32035,note_on,115,0,1,,,,,,,,0,,,57,0
32040,note_on,5,0,1,,,,,,,,0,,,60,106
32145,note_on,225,0,5,,,,,,,,4,,,55,0
32145,note_on,225,0,6,,,,,,,,5,,,43,0
32155,note_on,115,0,1,,,,,,,,0,,,60,0
32160,note_on,15,0,5,,,,,,,,4,,,57,64
32160,note_on,15,0,6,,,,,,,,5,,,45,64
32160,note_on,5,0,1,,,,,,,,0,,,65,106
32275,note_on,115,0,1,,,,,,,,0,,,65,0
32280,note_on,5,0,1,,,,,,,,0,,,60,106
32385,note_on,225,0,5,,,,,,,,4,,,57,0
32385,note_on,225,0,6,,,,,,,,5,,,45,0
32395,note_on,115,0,1,,,,,,,,0,,,60,0
32400,note_on,15,0,6,,,,,,,,5,,,43,64
32400,note_on,5,0,1,,,,,,,,0,,,57,106
32400,note_on,15,0,5,,,,,,,,4,,,55,64
32515,note_on,115,0,1,,,,,,,,0,,,57,0
32520,note_on,5,0,1,,,,,,,,0,,,60,106
32625,note_on,225,0,5,,,,,,,,4,,,55,0
32625,note_on,225,0,6,,,,,,,,5,,,43,0
32635,note_on,115,0,1,,,,,,,,0,,,60,0
32640,note_on,5,0,1,,,,,,,,0,,,74,106
32640,note_on,15,0,6,,,,,,,,5,,,42,64
32640,note_on,15,0,5,,,,,,,,4,,,54,64
32755,note_on,115,0,1,,,,,,,,0,,,74,0
32760,note_on,5,0,1,,,,,,,,0,,,72,106
32865,note_on,225,0,5,,,,,,,,4,,,54,0
32865,note_on,225,0,6,,,,,,,,5,,,42,0
32875,note_on,115,0,1,,,,,,,,0,,,72,0
32880,note_on,5,0,1,,,,,,,,0,,,74,106
32880,note_on,15,0,6,,,,,,,,5,,,40,64
32880,note_on,15,0,5,,,,,,,,4,,,52,64
32995,note_on,115,0,1,,,,,,,,0,,,74,0
33000,note_on,5,0,1,,,,,,,,0,,,76,106
33105,note_on,225,0,5,,,,,,,,4,,,52,0
33105,note_on,225,0,6,,,,,,,,5,,,40,0
33115,note_on,115,0,1,,,,,,,,0,,,76,0
33120,note_on,15,0,6,,,,,,,,5,,,42,64
33120,note_on,15,0,5,,,,,,,,4,,,54,64
33120,note_on,5,0,1,,,,,,,,0,,,74,106
33235,note_on,115,0,1,,,,,,,,0,,,74,0
33240,note_on,5,0,1,,,,,,,,0,,,72,106
33345,note_on,225,0,5,,,,,,,,4,,,54,0
33345,note_on,225,0,6,,,,,,,,5,,,42,0
33355,note_on,115,0,1,,,,,,,,0,,,72,0
33360,note_on,5,0,1,,,,,,,,0,,,71,106
33360,note_on,15,0,5,,,,,,,,4,,,50,64
33360,note_on,15,0,6,,,,,,,,5,,,38,64
33475,note_on,115,0,1,,,,,,,,0,,,71,0
33480,note_on,5,0,1,,,,,,,,0,,,69,106
33585,note_on,225,0,6,,,,,,,,5,,,38,0
33585,note_on,225,0,5,,,,,,,,4,,,50,0
33595,note_on,115,0,1,,,,,,,,0,,,69,0
33600,note_on,15,0,6,,,,,,,,5,,,43,64
33600,note_on,5,0,1,,,,,,,,0,,,71,106
33600,note_on,15,0,5,,,,,,,,4,,,55,64
33715,note_on,115,0,1,,,,,,,,0,,,71,0
33720,note_on,5,0,1,,,,,,,,0,,,67,106
33825,note_on,225,0,6,,,,,,,,5,,,43,0
33825,note_on,225,0,5,,,,,,,,4,,,55,0
33835,note_on,115,0,1,,,,,,,,0,,,67,0
33840,note_on,15,0,6,,,,,,,,5,,,42,64
33840,note_on,15,0,5,,,,,,,,4,,,54,64
33840,note_on,5,0,1,,,,,,,,0,,,62,106
33955,note_on,115,0,1,,,,,,,,0,,,62,0
33960,note_on,5,0,1,,,,,,,,0,,,67,106
34065,note_on,225,0,5,,,,,,,,4,,,54,0
34065,note_on,225,0,6,,,,,,,,5,,,42,0
34075,note_on,115,0,1,,,,,,,,0,,,67,0
34080,note_on,15,0,6,,,,,,,,5,,,43,64
34080,note_on,5,0,1,,,,,,,,0,,,71,106
34080,note_on,15,0,5,,,,,,,,4,,,55,64
34195,note_on,115,0,1,,,,,,,,0,,,71,0
34200,note_on,5,0,1,,,,,,,,0,,,67,106
34305,note_on,225,0,6,,,,,,,,5,,,43,0
34305,note_on,225,0,5,,,,,,,,4,,,55,0
34315,note_on,115,0,1,,,,,,,,0,,,67,0
34320,note_on,15,0,5,,,,,,,,4,,,43,64
34320,note_on,15,0,6,,,,,,,,5,,,31,64
34320,note_on,5,0,1,,,,,,,,0,,,62,106
34435,note_on,115,0,1,,,,,,,,0,,,62,0
34440,note_on,5,0,1,,,,,,,,0,,,67,106
34545,note_on,225,0,6,,,,,,,,5,,,31,0
34545,note_on,225,0,5,,,,,,,,4,,,43,0
34555,note_on,115,0,1,,,,,,,,0,,,67,0
34560,note_on,15,0,5,,,,,,,,4,,,56,64
34560,note_on,15,0,6,,,,,,,,5,,,44,64
34560,note_on,5,0,1,,,,,,,,0,,,76,106
34675,note_on,115,0,1,,,,,,,,0,,,76,0
34680,note_on,5,0,1,,,,,,,,0,,,74,106
34785,note_on,225,0,6,,,,,,,,5,,,44,0
34785,note_on,225,0,5,,,,,,,,4,,,56,0
34795,note_on,115,0,1,,,,,,,,0,,,74,0
34800,note_on,15,0,6,,,,,,,,5,,,42,64
34800,note_on,5,0,1,,,,,,,,0,,,76,106
34800,note_on,15,0,5,,,,,,,,4,,,54,64
34915,note_on,115,0,1,,,,,,,,0,,,76,0
34920,note_on,5,0,1,,,,,,,,0,,,77,106
35025,note_on,225,0,5,,,,,,,,4,,,54,0
35025,note_on,225,0,6,,,,,,,,5,,,42,0
35035,note_on,115,0,1,,,,,,,,0,,,77,0
35040,note_on,15,0,6,,,,,,,,5,,,44,64
35040,note_on,15,0,5,,,,,,,,4,,,56,64
35040,note_on,5,0,1,,,,,,,,0,,,76,106
35155,note_on,115,0,1,,,,,,,,0,,,76,0
35160,note_on,5,0,1,,,,,,,,0,,,74,106
35265,note_on,225,0,5,,,,,,,,4,,,56,0
35265,note_on,225,0,6,,,,,,,,5,,,44,0
35275,note_on,115,0,1,,,,,,,,0,,,74,0
35280,note_on,15,0,6,,,,,,,,5,,,40,64
35280,note_on,15,0,5,,,,,,,,4,,,52,64
35280,note_on,5,0,1,,,,,,,,0,,,73,106
35395,note_on,115,0,1,,,,,,,,0,,,73,0
35400,note_on,5,0,1,,,,,,,,0,,,71,106
35505,note_on,225,0,5,,,,,,,,4,,,52,0
35505,note_on,225,0,6,,,,,,,,5,,,40,0
35515,note_on,115,0,1,,,,,,,,0,,,71,0
35520,note_on,15,0,5,,,,,,,,4,,,57,64
35520,note_on,15,0,6,,,,,,,,5,,,45,64
35520,note_on,5,0,1,,,,,,,,0,,,73,106
35635,note_on,115,0,1,,,,,,,,0,,,73,0
35640,note_on,5,0,1,,,,,,,,0,,,69,106
35745,note_on,225,0,6,,,,,,,,5,,,45,0
35745,note_on,225,0,5,,,,,,,,4,,,57,0
35755,note_on,115,0,1,,,,,,,,0,,,69,0
35760,note_on,5,0,1,,,,,,,,0,,,64,106
35760,note_on,15,0,5,,,,,,,,4,,,56,64
35760,note_on,15,0,6,,,,,,,,5,,,44,64
35875,note_on,115,0,1,,,,,,,,0,,,64,0
35880,note_on,5,0,1,,,,,,,,0,,,69,106
35985,note_on,225,0,6,,,,,,,,5,,,44,0
35985,note_on,225,0,5,,,,,,,,4,,,56,0
35995,note_on,115,0,1,,,,,,,,0,,,69,0
36000,note_on,5,0,1,,,,,,,,0,,,73,106
36000,note_on,15,0,6,,,,,,,,5,,,45,64
36000,note_on,15,0,5,,,,,,,,4,,,57,64
36115,note_on,115,0,1,,,,,,,,0,,,73,0
36120,note_on,5,0,1,,,,,,,,0,,,69,106
36225,note_on,225,0,6,,,,,,,,5,,,45,0
36225,note_on,225,0,5,,,,,,,,4,,,57,0
36235,note_on,115,0,1,,,,,,,,0,,,69,0
36240,note_on,5,0,1,,,,,,,,0,,,64,106
36240,note_on,15,0,6,,,,,,,,5,,,33,64
36240,note_on,15,0,5,,,,,,,,4,,,45,64
36355,note_on,115,0,1,,,,,,,,0,,,64,0
36360,note_on,5,0,1,,,,,,,,0,,,69,106
36465,note_on,225,0,6,,,,,,,,5,,,33,0
36465,note_on,225,0,5,,,,,,,,4,,,45,0
36475,note_on,115,0,1,,,,,,,,0,,,69,0
36480,note_on,5,0,1,,,,,,,,0,,,81,106
36480,note_on,15,0,5,,,,,,,,4,,,61,64
36480,note_on,15,0,6,,,,,,,,5,,,49,64
36595,note_on,115,0,1,,,,,,,,0,,,81,0
36600,note_on,5,0,1,,,,,,,,0,,,79,106
36705,note_on,225,0,6,,,,,,,,5,,,49,0
36705,note_on,225,0,5,,,,,,,,4,,,61,0
36715,note_on,115,0,1,,,,,,,,0,,,79,0
36720,note_on,15,0,6,,,,,,,,5,,,47,64
36720,note_on,15,0,5,,,,,,,,4,,,59,64
36720,note_on,5,0,1,,,,,,,,0,,,81,106
36835,note_on,115,0,1,,,,,,,,0,,,81,0
36840,note_on,5,0,1,,,,,,,,0,,,82,106
36945,note_on,225,0,6,,,,,,,,5,,,47,0
36945,note_on,225,0,5,,,,,,,,4,,,59,0
36955,note_on,115,0,1,,,,,,,,0,,,82,0
36960,note_on,5,0,1,,,,,,,,0,,,81,106
36960,note_on,15,0,5,,,,,,,,4,,,61,64
36960,note_on,15,0,6,,,,,,,,5,,,49,64
37075,note_on,115,0,1,,,,,,,,0,,,81,0
37080,note_on,5,0,1,,,,,,,,0,,,79,106
37185,note_on,225,0,5,,,,,,,,4,,,61,0
37185,note_on,225,0,6,,,,,,,,5,,,49,0
37195,note_on,115,0,1,,,,,,,,0,,,79,0
37200,note_on,15,0,5,,,,,,,,4,,,57,64
37200,note_on,15,0,6,,,,,,,,5,,,45,64
37200,note_on,5,0,1,,,,,,,,0,,,77,106
37315,note_on,115,0,1,,,,,,,,0,,,77,0
37320,note_on,5,0,1,,,,,,,,0,,,76,106
37425,note_on,225,0,5,,,,,,,,4,,,57,0
37425,note_on,225,0,6,,,,,,,,5,,,45,0
37435,note_on,115,0,1,,,,,,,,0,,,76,0
37440,note_on,15,0,6,,,,,,,,5,,,50,64
37440,note_on,5,0,1,,,,,,,,0,,,77,106
37440,note_on,15,0,5,,,,,,,,4,,,62,64
37555,note_on,115,0,1,,,,,,,,0,,,77,0
37560,note_on,5,0,1,,,,,,,,0,,,74,106
37665,note_on,225,0,5,,,,,,,,4,,,62,0
37665,note_on,225,0,6,,,,,,,,5,,,50,0
37675,note_on,115,0,1,,,,,,,,0,,,74,0
37680,note_on,5,0,1,,,,,,,,0,,,69,106
37680,note_on,15,0,5,,,,,,,,4,,,61,64
37680,note_on,15,0,6,,,,,,,,5,,,49,64
37795,note_on,115,0,1,,,,,,,,0,,,69,0
37800,note_on,5,0,1,,,,,,,,0,,,74,106
37905,note_on,225,0,5,,,,,,,,4,,,61,0
37905,note_on,225,0,6,,,,,,,,5,,,49,0
37915,note_on,115,0,1,,,,,,,,0,,,74,0
37920,note_on,5,0,1,,,,,,,,0,,,77,106
37920,note_on,15,0,5,,,,,,,,4,,,62,64
37920,note_on,15,0,6,,,,,,,,5,,,50,64
38035,note_on,115,0,1,,,,,,,,0,,,77,0
38040,note_on,5,0,1,,,,,,,,0,,,74,106
38145,note_on,225,0,6,,,,,,,,5,,,50,0
38145,note_on,225,0,5,,,,,,,,4,,,62,0
38155,note_on,115,0,1,,,,,,,,0,,,74,0
38160,note_on,15,0,5,,,,,,,,4,,,50,64
38160,note_on,15,0,6,,,,,,,,5,,,38,64
38160,note_on,5,0,1,,,,,,,,0,,,69,106
38275,note_on,115,0,1,,,,,,,,0,,,69,0
38280,note_on,5,0,1,,,,,,,,0,,,74,106
38385,note_on,225,0,6,,,,,,,,5,,,38,0
38385,note_on,225,0,5,,,,,,,,4,,,50,0
38395,note_on,115,0,1,,,,,,,,0,,,74,0
38400,note_on,15,0,6,,,,,,,,5,,,49,64
38400,note_on,15,0,5,,,,,,,,4,,,61,64
38400,note_on,5,0,1,,,,,,,,0,,,76,106
38515,note_on,115,0,1,,,,,,,,0,,,76,0
38520,note_on,5,0,1,,,,,,,,0,,,73,106
38625,note_on,225,0,6,,,,,,,,5,,,49,0
38625,note_on,225,0,5,,,,,,,,4,,,61,0
38635,note_on,115,0,1,,,,,,,,0,,,73,0
38640,note_on,5,0,1,,,,,,,,0,,,69,106
38640,note_on,15,0,6,,,,,,,,5,,,47,64
38640,note_on,15,0,5,,,,,,,,4,,,59,64
38755,note_on,115,0,1,,,,,,,,0,,,69,0
38760,note_on,5,0,1,,,,,,,,0,,,73,106
38865,note_on,225,0,6,,,,,,,,5,,,47,0
38865,note_on,225,0,5,,,,,,,,4,,,59,0
38875,note_on,115,0,1,,,,,,,,0,,,73,0
38880,note_on,5,0,1,,,,,,,,0,,,76,106
38880,note_on,15,0,5,,,,,,,,4,,,57,64
38880,note_on,15,0,6,,,,,,,,5,,,45,64
38995,note_on,115,0,1,,,,,,,,0,,,76,0
39000,note_on,5,0,1,,,,,,,,0,,,73,106
39105,note_on,225,0,5,,,,,,,,4,,,57,0
39105,note_on,225,0,6,,,,,,,,5,,,45,0
39115,note_on,115,0,1,,,,,,,,0,,,73,0
39120,note_on,15,0,6,,,,,,,,5,,,49,64
39120,note_on,5,0,1,,,,,,,,0,,,69,106
39120,note_on,15,0,5,,,,,,,,4,,,61,64
39235,note_on,115,0,1,,,,,,,,0,,,69,0
39240,note_on,5,0,1,,,,,,,,0,,,73,106
39345,note_on,225,0,6,,,,,,,,5,,,49,0
39345,note_on,225,0,5,,,,,,,,4,,,61,0
39355,note_on,115,0,1,,,,,,,,0,,,73,0
39360,note_on,15,0,5,,,,,,,,4,,,62,64
39360,note_on,15,0,6,,,,,,,,5,,,50,64
39360,note_on,5,0,1,,,,,,,,0,,,77,106
39475,note_on,115,0,1,,,,,,,,0,,,77,0
39480,note_on,5,0,1,,,,,,,,0,,,74,106
39585,note_on,225,0,6,,,,,,,,5,,,50,0
39585,note_on,225,0,5,,,,,,,,4,,,62,0
39595,note_on,115,0,1,,,,,,,,0,,,74,0
39600,note_on,15,0,6,,,,,,,,5,,,49,64
39600,note_on,5,0,1,,,,,,,,0,,,69,106
39600,note_on,15,0,5,,,,,,,,4,,,61,64
39715,note_on,115,0,1,,,,,,,,0,,,69,0
39720,note_on,5,0,1,,,,,,,,0,,,74,106
39825,note_on,225,0,5,,,,,,,,4,,,61,0
39825,note_on,225,0,6,,,,,,,,5,,,49,0
39835,note_on,115,0,1,,,,,,,,0,,,74,0
39840,note_on,15,0,6,,,,,,,,5,,,50,64
39840,note_on,5,0,1,,,,,,,,0,,,77,106
39840,note_on,15,0,5,,,,,,,,4,,,62,64
39955,note_on,115,0,1,,,,,,,,0,,,77,0
39960,note_on,5,0,1,,,,,,,,0,,,74,106
40065,note_on,225,0,6,,,,,,,,5,,,50,0
40065,note_on,225,0,5,,,,,,,,4,,,62,0
40075,note_on,115,0,1,,,,,,,,0,,,74,0
40080,note_on,5,0,1,,,,,,,,0,,,69,106
40080,note_on,15,0,5,,,,,,,,4,,,50,64
40080,note_on,15,0,6,,,,,,,,5,,,38,64
40195,note_on,115,0,1,,,,,,,,0,,,69,0
40200,note_on,5,0,1,,,,,,,,0,,,74,106
40305,note_on,225,0,6,,,,,,,,5,,,38,0
40305,note_on,225,0,5,,,,,,,,4,,,50,0
40315,note_on,115,0,1,,,,,,,,0,,,74,0
40320,note_on,15,0,6,,,,,,,,5,,,44,64
40320,note_on,5,0,1,,,,,,,,0,,,71,106
40320,note_on,15,0,5,,,,,,,,4,,,56,64
40435,note_on,115,0,1,,,,,,,,0,,,71,0
40440,note_on,5,0,1,,,,,,,,0,,,68,106
40545,note_on,225,0,5,,,,,,,,4,,,56,0
40545,note_on,225,0,6,,,,,,,,5,,,44,0
40555,note_on,115,0,1,,,,,,,,0,,,68,0
40560,note_on,15,0,5,,,,,,,,4,,,54,64
40560,note_on,5,0,1,,,,,,,,0,,,64,106
40560,note_on,15,0,6,,,,,,,,5,,,42,64
40675,note_on,115,0,1,,,,,,,,0,,,64,0
40680,note_on,5,0,1,,,,,,,,0,,,68,106
40785,note_on,225,0,5,,,,,,,,4,,,54,0
40785,note_on,225,0,6,,,,,,,,5,,,42,0
40795,note_on,115,0,1,,,,,,,,0,,,68,0
40800,note_on,5,0,1,,,,,,,,0,,,71,106
40800,note_on,15,0,6,,,,,,,,5,,,40,64
40800,note_on,15,0,5,,,,,,,,4,,,52,64
40915,note_on,115,0,1,,,,,,,,0,,,71,0
40920,note_on,5,0,1,,,,,,,,0,,,68,106
41025,note_on,225,0,5,,,,,,,,4,,,52,0
41025,note_on,225,0,6,,,,,,,,5,,,40,0
41035,note_on,115,0,1,,,,,,,,0,,,68,0
41040,note_on,15,0,6,,,,,,,,5,,,44,64
41040,note_on,15,0,5,,,,,,,,4,,,56,64
41040,note_on,5,0,1,,,,,,,,0,,,64,106
41155,note_on,115,0,1,,,,,,,,0,,,64,0
41160,note_on,5,0,1,,,,,,,,0,,,68,106
41265,note_on,225,0,6,,,,,,,,5,,,44,0
41265,note_on,225,0,5,,,,,,,,4,,,56,0
41275,note_on,115,0,1,,,,,,,,0,,,68,0
41280,note_on,15,0,6,,,,,,,,5,,,45,64
41280,note_on,5,0,1,,,,,,,,0,,,72,106
41280,note_on,15,0,5,,,,,,,,4,,,57,64
41395,note_on,115,0,1,,,,,,,,0,,,72,0
41400,note_on,5,0,1,,,,,,,,0,,,69,106
41505,note_on,225,0,6,,,,,,,,5,,,45,0
41505,note_on,225,0,5,,,,,,,,4,,,57,0
41515,note_on,115,0,1,,,,,,,,0,,,69,0
41520,note_on,15,0,5,,,,,,,,4,,,56,64
41520,note_on,5,0,1,,,,,,,,0,,,64,106
41520,note_on,15,0,6,,,,,,,,5,,,44,64
41635,note_on,115,0,1,,,,,,,,0,,,64,0
41640,note_on,5,0,1,,,,,,,,0,,,69,106
41745,note_on,225,0,6,,,,,,,,5,,,44,0
41745,note_on,225,0,5,,,,,,,,4,,,56,0
41755,note_on,115,0,1,,,,,,,,0,,,69,0
41760,note_on,5,0,1,,,,,,,,0,,,72,106
41760,note_on,15,0,5,,,,,,,,4,,,57,64
41760,note_on,15,0,6,,,,,,,,5,,,45,64
41875,note_on,115,0,1,,,,,,,,0,,,72,0
41880,note_on,5,0,1,,,,,,,,0,,,69,106
41985,note_on,225,0,6,,,,,,,,5,,,45,0
41985,note_on,225,0,5,,,,,,,,4,,,57,0
41995,note_on,115,0,1,,,,,,,,0,,,69,0
42000,note_on,15,0,6,,,,,,,,5,,,33,64
42000,note_on,15,0,5,,,,,,,,4,,,45,64
42000,note_on,5,0,1,,,,,,,,0,,,64,106
42115,note_on,115,0,1,,,,,,,,0,,,64,0
42120,note_on,5,0,1,,,,,,,,0,,,69,106
42225,note_on,225,0,5,,,,,,,,4,,,45,0
42225,note_on,225,0,6,,,,,,,,5,,,33,0
42235,note_on,115,0,1,,,,,,,,0,,,69,0
42240,note_on,5,0,1,,,,,,,,0,,,71,106
42240,note_on,15,0,5,,,,,,,,4,,,56,64
42240,note_on,15,0,6,,,,,,,,5,,,44,64
42355,note_on,115,0,1,,,,,,,,0,,,71,0
42360,note_on,5,0,1,,,,,,,,0,,,68,106
42465,note_on,225,0,6,,,,,,,,5,,,44,0
42465,note_on,225,0,5,,,,,,,,4,,,56,0
42475,note_on,115,0,1,,,,,,,,0,,,68,0
42480,note_on,15,0,5,,,,,,,,4,,,54,64
42480,note_on,5,0,1,,,,,,,,0,,,64,106
42480,note_on,15,0,6,,,,,,,,5,,,42,64
42595,note_on,115,0,1,,,,,,,,0,,,64,0
42600,note_on,5,0,1,,,,,,,,0,,,68,106
42705,note_on,225,0,6,,,,,,,,5,,,42,0
42705,note_on,225,0,5,,,,,,,,4,,,54,0
42715,note_on,115,0,1,,,,,,,,0,,,68,0
42720,note_on,5,0,1,,,,,,,,0,,,71,106
42720,note_on,15,0,6,,,,,,,,5,,,40,64
42720,note_on,15,0,5,,,,,,,,4,,,52,64
42835,note_on,115,0,1,,,,,,,,0,,,71,0
42840,note_on,5,0,1,,,,,,,,0,,,68,106
42945,note_on,225,0,5,,,,,,,,4,,,52,0
42945,note_on,225,0,6,,,,,,,,5,,,40,0
42955,note_on,115,0,1,,,,,,,,0,,,68,0
42960,note_on,5,0,1,,,,,,,,0,,,64,106
42960,note_on,15,0,6,,,,,,,,5,,,44,64
42960,note_on,15,0,5,,,,,,,,4,,,56,64
43075,note_on,115,0,1,,,,,,,,0,,,64,0
43080,note_on,5,0,1,,,,,,,,0,,,68,106
43185,note_on,225,0,6,,,,,,,,5,,,44,0
43185,note_on,225,0,5,,,,,,,,4,,,56,0
43195,note_on,115,0,1,,,,,,,,0,,,68,0
43200,note_on,15,0,6,,,,,,,,5,,,45,64
43200,note_on,5,0,1,,,,,,,,0,,,72,106
43200,note_on,15,0,5,,,,,,,,4,,,57,64
43315,note_on,115,0,1,,,,,,,,0,,,72,0
43320,note_on,5,0,1,,,,,,,,0,,,69,106
43425,note_on,225,0,6,,,,,,,,5,,,45,0
43425,note_on,225,0,5,,,,,,,,4,,,57,0
43435,note_on,115,0,1,,,,,,,,0,,,69,0
43440,note_on,15,0,5,,,,,,,,4,,,56,64
43440,note_on,5,0,1,,,,,,,,0,,,64,106
43440,note_on,15,0,6,,,,,,,,5,,,44,64
43555,note_on,115,0,1,,,,,,,,0,,,64,0
43560,note_on,5,0,1,,,,,,,,0,,,69,106
43665,note_on,225,0,5,,,,,,,,4,,,56,0
43665,note_on,225,0,6,,,,,,,,5,,,44,0
43675,note_on,115,0,1,,,,,,,,0,,,69,0
43680,note_on,15,0,5,,,,,,,,4,,,57,64
43680,note_on,5,0,1,,,,,,,,0,,,72,106
43680,note_on,15,0,6,,,,,,,,5,,,45,64
43795,note_on,115,0,1,,,,,,,,0,,,72,0
43800,note_on,5,0,1,,,,,,,,0,,,69,106
43905,note_on,225,0,6,,,,,,,,5,,,45,0
43905,note_on,225,0,5,,,,,,,,4,,,57,0
43915,note_on,115,0,1,,,,,,,,0,,,69,0
43920,note_on,15,0,5,,,,,,,,4,,,45,64
43920,note_on,15,0,6,,,,,,,,5,,,33,64
43920,note_on,5,0,1,,,,,,,,0,,,64,106
44035,note_on,115,0,1,,,,,,,,0,,,64,0
44040,note_on,5,0,1,,,,,,,,0,,,69,106
44145,note_on,225,0,5,,,,,,,,4,,,45,0
44145,note_on,225,0,6,,,,,,,,5,,,33,0
44155,note_on,115,0,1,,,,,,,,0,,,69,0
44160,note_on,15,0,5,,,,,,,,4,,,52,64
44160,note_on,15,0,6,,,,,,,,5,,,40,64
44160,note_on,5,0,1,,,,,,,,0,,,71,106
44275,note_on,115,0,1,,,,,,,,0,,,71,0
44280,note_on,5,0,1,,,,,,,,0,,,69,106
44385,note_on,225,0,5,,,,,,,,4,,,52,0
44385,note_on,225,0,6,,,,,,,,5,,,40,0
44395,note_on,115,0,1,,,,,,,,0,,,69,0
44400,note_on,15,0,5,,,,,,,,4,,,40,64
44400,note_on,15,0,6,,,,,,,,5,,,28,64
44400,note_on,5,0,1,,,,,,,,0,,,64,106
44515,note_on,115,0,1,,,,,,,,0,,,64,0
44520,note_on,5,0,1,,,,,,,,0,,,69,106
44625,note_on,225,0,6,,,,,,,,5,,,28,0
44625,note_on,225,0,5,,,,,,,,4,,,40,0
44635,note_on,115,0,1,,,,,,,,0,,,69,0
44640,note_on,5,0,1,,,,,,,,0,,,71,106
44755,note_on,115,0,1,,,,,,,,0,,,71,0
44760,note_on,5,0,1,,,,,,,,0,,,69,106
44875,note_on,115,0,1,,,,,,,,0,,,69,0
44880,note_on,255,0,5,,,,,,,,4,,,52,64
44880,note_on,5,0,1,,,,,,,,0,,,64,106
44880,note_on,255,0,6,,,,,,,,5,,,40,64
44995,note_on,115,0,1,,,,,,,,0,,,64,0
45000,note_on,5,0,1,,,,,,,,0,,,69,106
45105,note_on,225,0,5,,,,,,,,4,,,52,0
45105,note_on,225,0,6,,,,,,,,5,,,40,0
45115,note_on,115,0,1,,,,,,,,0,,,69,0
45120,note_on,15,0,5,,,,,,,,4,,,52,64
45120,note_on,15,0,6,,,,,,,,5,,,40,64
45120,note_on,5,0,1,,,,,,,,0,,,71,106
45235,note_on,115,0,1,,,,,,,,0,,,71,0
45240,note_on,5,0,1,,,,,,,,0,,,68,106
45345,note_on,225,0,6,,,,,,,,5,,,40,0
45345,note_on,225,0,5,,,,,,,,4,,,52,0
45355,note_on,115,0,1,,,,,,,,0,,,68,0
45360,note_on,15,0,5,,,,,,,,4,,,40,64
45360,note_on,5,0,1,,,,,,,,0,,,64,106
45360,note_on,15,0,6,,,,,,,,5,,,28,64
45475,note_on,115,0,1,,,,,,,,0,,,64,0
45480,note_on,5,0,1,,,,,,,,0,,,68,106
45585,note_on,225,0,6,,,,,,,,5,,,28,0
45585,note_on,225,0,5,,,,,,,,4,,,40,0
45595,note_on,115,0,1,,,,,,,,0,,,68,0
45600,note_on,5,0,1,,,,,,,,0,,,71,106
45715,note_on,115,0,1,,,,,,,,0,,,71,0
45720,note_on,5,0,1,,,,,,,,0,,,68,106
45835,note_on,115,0,1,,,,,,,,0,,,68,0
45840,note_on,255,0,6,,,,,,,,5,,,40,64
45840,note_on,5,0,1,,,,,,,,0,,,64,106
45840,note_on,255,0,5,,,,,,,,4,,,52,64
45955,note_on,115,0,1,,,,,,,,0,,,64,0
45960,note_on,5,0,1,,,,,,,,0,,,68,106
46065,note_on,225,0,5,,,,,,,,4,,,52,0
46065,note_on,225,0,6,,,,,,,,5,,,40,0
46075,note_on,115,0,1,,,,,,,,0,,,68,0
46080,note_on,5,0,1,,,,,,,,0,,,69,106
46080,note_on,15,0,6,,,,,,,,5,,,33,64
46080,note_on,15,0,5,,,,,,,,4,,,45,64
46305,note_on,225,0,1,,,,,,,,0,,,69,0
46320,note_on,22835,0,2,,,,,,,,1,,,69,64
46320,note_on,15,0,1,,,,,,,,0,,,69,64
46320,note_on,22835,0,3,,,,,,,,2,,,69,64
46525,note_on,445,0,6,,,,,,,,5,,,33,0
46525,note_on,445,0,5,,,,,,,,4,,,45,0
46545,note_on,225,0,1,,,,,,,,0,,,69,0
46545,note_on,225,0,2,,,,,,,,1,,,69,0
46545,note_on,225,0,3,,,,,,,,2,,,69,0
46560,note_on,15,0,2,,,,,,,,1,,,76,64
46560,note_on,15,0,3,,,,,,,,2,,,76,64
46560,note_on,15,0,1,,,,,,,,0,,,76,64
46800,note_on,275,0,5,,,,,,,,4,,,45,85
46800,note_on,275,0,6,,,,,,,,5,,,33,85
46800,note_on,23315,0,4,,,,,,,,3,,,60,85
47025,note_on,225,0,5,,,,,,,,4,,,45,0
47025,note_on,225,0,4,,,,,,,,3,,,60,0
47025,note_on,225,0,6,,,,,,,,5,,,33,0
47040,note_on,15,0,6,,,,,,,,5,,,41,85
47040,note_on,15,0,5,,,,,,,,4,,,53,85
47040,note_on,15,0,4,,,,,,,,3,,,57,85
47265,note_on,705,0,2,,,,,,,,1,,,76,0
47265,note_on,705,0,1,,,,,,,,0,,,76,0
47265,note_on,705,0,3,,,,,,,,2,,,76,0
47280,note_on,15,0,1,,,,,,,,0,,,74,64
47280,note_on,15,0,2,,,,,,,,1,,,74,64
47280,note_on,15,0,3,,,,,,,,2,,,74,64
47395,note_on,115,0,2,,,,,,,,1,,,74,0
47395,note_on,115,0,1,,,,,,,,0,,,74,0
47395,note_on,115,0,3,,,,,,,,2,,,74,0
47400,note_on,5,0,3,,,,,,,,2,,,72,64
47400,note_on,5,0,2,,,,,,,,1,,,72,64
47400,note_on,5,0,1,,,,,,,,0,,,72,64
47515,note_on,115,0,2,,,,,,,,1,,,72,0
47515,note_on,115,0,1,,,,,,,,0,,,72,0
47515,note_on,115,0,3,,,,,,,,2,,,72,0
47520,note_on,5,0,1,,,,,,,,0,,,71,64
47520,note_on,5,0,3,,,,,,,,2,,,71,64
47520,note_on,5,0,2,,,,,,,,1,,,71,64
47745,note_on,225,0,3,,,,,,,,2,,,71,0
47745,note_on,225,0,2,,,,,,,,1,,,71,0
47745,note_on,225,0,1,,,,,,,,0,,,71,0
47760,note_on,15,0,2,,,,,,,,1,,,69,64
47760,note_on,15,0,3,,,,,,,,2,,,69,64
47760,note_on,15,0,1,,,,,,,,0,,,69,64
47925,note_on,885,0,4,,,,,,,,3,,,57,0
47985,note_on,225,0,3,,,,,,,,2,,,69,0
47985,note_on,225,0,2,,,,,,,,1,,,69,0
47985,note_on,225,0,1,,,,,,,,0,,,69,0
48000,note_on,15,0,1,,,,,,,,0,,,68,64
48000,note_on,75,0,4,,,,,,,,3,,,59,85
48000,note_on,15,0,2,,,,,,,,1,,,68,64
48000,note_on,15,0,3,,,,,,,,2,,,68,64
48225,note_on,225,0,1,,,,,,,,0,,,68,0
48225,note_on,225,0,2,,,,,,,,1,,,68,0
48225,note_on,1185,0,6,,,,,,,,5,,,41,0
48225,note_on,225,0,4,,,,,,,,3,,,59,0
48225,note_on,225,0,3,,,,,,,,2,,,68,0
48225,note_on,1185,0,5,,,,,,,,4,,,53,0
48240,note_on,15,0,4,,,,,,,,3,,,65,85
48240,note_on,15,0,1,,,,,,,,0,,,69,64
48240,note_on,15,0,6,,,,,,,,5,,,40,85
48240,note_on,15,0,3,,,,,,,,2,,,69,64
48240,note_on,15,0,2,,,,,,,,1,,,69,64
48240,note_on,15,0,5,,,,,,,,4,,,52,85
48355,note_on,115,0,6,,,,,,,,5,,,40,0
48355,note_on,115,0,5,,,,,,,,4,,,52,0
48360,note_on,5,0,5,,,,,,,,4,,,50,85
48360,note_on,5,0,6,,,,,,,,5,,,38,85
48465,note_on,225,0,4,,,,,,,,3,,,65,0
48465,note_on,225,0,2,,,,,,,,1,,,69,0
48465,note_on,225,0,1,,,,,,,,0,,,69,0
48465,note_on,225,0,3,,,,,,,,2,,,69,0
48475,note_on,115,0,6,,,,,,,,5,,,38,0
48475,note_on,115,0,5,,,,,,,,4,,,50,0
48480,note_on,15,0,4,,,,,,,,3,,,64,85
48480,note_on,15,0,3,,,,,,,,2,,,71,64
48480,note_on,15,0,2,,,,,,,,1,,,71,64
48480,note_on,5,0,5,,,,,,,,4,,,48,85
48480,note_on,15,0,1,,,,,,,,0,,,71,64
48480,note_on,5,0,6,,,,,,,,5,,,36,85
48705,note_on,225,0,5,,,,,,,,4,,,48,0
48705,note_on,225,0,6,,,,,,,,5,,,36,0
48705,note_on,225,0,4,,,,,,,,3,,,64,0
48720,note_on,15,0,4,,,,,,,,3,,,62,85
48720,note_on,15,0,5,,,,,,,,4,,,47,85
48720,note_on,15,0,6,,,,,,,,5,,,35,85
48945,note_on,225,0,5,,,,,,,,4,,,47,0
48945,note_on,225,0,4,,,,,,,,3,,,62,0
48945,note_on,225,0,6,,,,,,,,5,,,35,0
48960,note_on,15,0,5,,,,,,,,4,,,48,85
48960,note_on,15,0,6,,,,,,,,5,,,36,85
48960,note_on,15,0,4,,,,,,,,3,,,64,85
49185,note_on,705,0,3,,,,,,,,2,,,71,0
49185,note_on,705,0,1,,,,,,,,0,,,71,0
49185,note_on,705,0,2,,,,,,,,1,,,71,0
49200,note_on,15,0,2,,,,,,,,1,,,76,64
49200,note_on,15,0,1,,,,,,,,0,,,76,64
49200,note_on,15,0,3,,,,,,,,2,,,76,64
49425,note_on,225,0,3,,,,,,,,2,,,76,0
49425,note_on,225,0,1,,,,,,,,0,,,76,0
49425,note_on,225,0,2,,,,,,,,1,,,76,0
49440,note_on,15,0,1,,,,,,,,0,,,69,64
49440,note_on,15,0,2,,,,,,,,1,,,69,64
49440,note_on,15,0,3,,,,,,,,2,,,69,64
49625,note_on,665,0,6,,,,,,,,5,,,36,0
49625,note_on,665,0,5,,,,,,,,4,,,48,0
49625,note_on,665,0,4,,,,,,,,3,,,64,0
49665,note_on,225,0,2,,,,,,,,1,,,69,0
49665,note_on,225,0,3,,,,,,,,2,,,69,0
49665,note_on,225,0,1,,,,,,,,0,,,69,0
49680,note_on,55,0,4,,,,,,,,3,,,62,85
49680,note_on,15,0,2,,,,,,,,1,,,71,64
49680,note_on,15,0,1,,,,,,,,0,,,71,64
49680,note_on,55,0,6,,,,,,,,5,,,35,85
49680,note_on,55,0,5,,,,,,,,4,,,47,85
49680,note_on,15,0,3,,,,,,,,2,,,71,64
49795,note_on,115,0,2,,,,,,,,1,,,71,0
49795,note_on,115,0,6,,,,,,,,5,,,35,0
49795,note_on,115,0,4,,,,,,,,3,,,62,0
49795,note_on,115,0,5,,,,,,,,4,,,47,0
49795,note_on,115,0,1,,,,,,,,0,,,71,0
49795,note_on,115,0,3,,,,,,,,2,,,71,0
49800,note_on,5,0,6,,,,,,,,5,,,33,85
49800,note_on,5,0,5,,,,,,,,4,,,45,85
49800,note_on,5,0,4,,,,,,,,3,,,60,85
49800,note_on,5,0,1,,,,,,,,0,,,72,64
49800,note_on,5,0,2,,,,,,,,1,,,72,64
49800,note_on,5,0,3,,,,,,,,2,,,72,64
49915,note_on,115,0,5,,,,,,,,4,,,45,0
49915,note_on,115,0,2,,,,,,,,1,,,72,0
49915,note_on,115,0,4,,,,,,,,3,,,60,0
49915,note_on,115,0,6,,,,,,,,5,,,33,0
49915,note_on,115,0,1,,,,,,,,0,,,72,0
49915,note_on,115,0,3,,,,,,,,2,,,72,0
49920,note_on,5,0,2,,,,,,,,1,,,74,64
49920,note_on,5,0,4,,,,,,,,3,,,59,85
49920,note_on,5,0,3,,,,,,,,2,,,74,64
49920,note_on,5,0,6,,,,,,,,5,,,32,85
49920,note_on,5,0,5,,,,,,,,4,,,44,85
49920,note_on,5,0,1,,,,,,,,0,,,74,64
50145,note_on,225,0,3,,,,,,,,2,,,74,0
50145,note_on,225,0,2,,,,,,,,1,,,74,0
50145,note_on,225,0,1,,,,,,,,0,,,74,0
50160,note_on,15,0,2,,,,,,,,1,,,71,64
50160,note_on,15,0,1,,,,,,,,0,,,71,64
50160,note_on,15,0,3,,,,,,,,2,,,71,64
50365,note_on,445,0,5,,,,,,,,4,,,44,0
50365,note_on,445,0,4,,,,,,,,3,,,59,0
50365,note_on,445,0,6,,,,,,,,5,,,32,0
50385,note_on,225,0,3,,,,,,,,2,,,71,0
50385,note_on,225,0,2,,,,,,,,1,,,71,0
50385,note_on,225,0,1,,,,,,,,0,,,71,0
50400,note_on,35,0,6,,,,,,,,5,,,28,85
50400,note_on,15,0,2,,,,,,,,1,,,76,64
50400,note_on,35,0,5,,,,,,,,4,,,40,85
50400,note_on,15,0,1,,,,,,,,0,,,76,64
50400,note_on,15,0,3,,,,,,,,2,,,76,64
50400,note_on,35,0,4,,,,,,,,3,,,68,85
50625,note_on,225,0,3,,,,,,,,2,,,76,0
50625,note_on,225,0,2,,,,,,,,1,,,76,0
50625,note_on,225,0,1,,,,,,,,0,,,76,0
50640,note_on,15,0,3,,,,,,,,2,,,74,64
50640,note_on,15,0,2,,,,,,,,1,,,74,64
50640,note_on,15,0,1,,,,,,,,0,,,74,64
50845,note_on,445,0,4,,,,,,,,3,,,68,0
50845,note_on,445,0,6,,,,,,,,5,,,28,0
50845,note_on,445,0,5,,,,,,,,4,,,40,0
50865,note_on,225,0,2,,,,,,,,1,,,74,0
50865,note_on,225,0,3,,,,,,,,2,,,74,0
50865,note_on,225,0,1,,,,,,,,0,,,74,0
50880,note_on,15,0,1,,,,,,,,0,,,72,64
50880,note_on,35,0,5,,,,,,,,4,,,45,85
50880,note_on,15,0,2,,,,,,,,1,,,72,64
50880,note_on,15,0,3,,,,,,,,2,,,72,64
50880,note_on,35,0,4,,,,,,,,3,,,64,85
50880,note_on,35,0,6,,,,,,,,5,,,33,85
51105,note_on,225,0,2,,,,,,,,1,,,72,0
51105,note_on,225,0,3,,,,,,,,2,,,72,0
51105,note_on,225,0,1,,,,,,,,0,,,72,0
51120,note_on,15,0,3,,,,,,,,2,,,69,64
51120,note_on,15,0,2,,,,,,,,1,,,69,64
51120,note_on,15,0,1,,,,,,,,0,,,69,64
51325,note_on,445,0,5,,,,,,,,4,,,45,0
51325,note_on,445,0,4,,,,,,,,3,,,64,0
51325,note_on,445,0,6,,,,,,,,5,,,33,0
51345,note_on,225,0,1,,,,,,,,0,,,69,0
51345,note_on,225,0,3,,,,,,,,2,,,69,0
51345,note_on,225,0,2,,,,,,,,1,,,69,0
51360,note_on,35,0,5,,,,,,,,4,,,57,85
51360,note_on,35,0,4,,,,,,,,3,,,64,85
51360,note_on,35,0,6,,,,,,,,5,,,45,85
51360,note_on,15,0,1,,,,,,,,0,,,84,64
51360,note_on,15,0,3,,,,,,,,2,,,84,64
51360,note_on,15,0,2,,,,,,,,1,,,84,64
51585,note_on,225,0,2,,,,,,,,1,,,84,0
51585,note_on,225,0,3,,,,,,,,2,,,84,0
51585,note_on,225,0,6,,,,,,,,5,,,45,0
51585,note_on,225,0,4,,,,,,,,3,,,64,0
51585,note_on,225,0,1,,,,,,,,0,,,84,0
51585,note_on,225,0,5,,,,,,,,4,,,57,0
51840,note_on,255,0,3,,,,,,,,2,,,83,64
51840,note_on,255,0,4,,,,,,,,3,,,65,85
51840,note_on,255,0,1,,,,,,,,0,,,83,64
51840,note_on,255,0,2,,,,,,,,1,,,83,64
51840,note_on,255,0,6,,,,,,,,5,,,38,85
51840,note_on,255,0,5,,,,,,,,4,,,50,85
52065,note_on,225,0,3,,,,,,,,2,,,83,0
52065,note_on,225,0,2,,,,,,,,1,,,83,0
52065,note_on,225,0,5,,,,,,,,4,,,50,0
52065,note_on,225,0,1,,,,,,,,0,,,83,0
52065,note_on,225,0,4,,,,,,,,3,,,65,0
52065,note_on,225,0,6,,,,,,,,5,,,38,0
52320,note_on,255,0,3,,,,,,,,2,,,81,64
52320,note_on,255,0,2,,,,,,,,1,,,81,64
52320,note_on,255,0,6,,,,,,,,5,,,39,85
52320,note_on,255,0,5,,,,,,,,4,,,51,85
52320,note_on,255,0,4,,,,,,,,3,,,66,85
52320,note_on,255,0,1,,,,,,,,0,,,81,64
52545,note_on,225,0,6,,,,,,,,5,,,39,0
52545,note_on,225,0,3,,,,,,,,2,,,81,0
52545,note_on,225,0,4,,,,,,,,3,,,66,0
52545,note_on,225,0,2,,,,,,,,1,,,81,0
52545,note_on,225,0,1,,,,,,,,0,,,81,0
52545,note_on,225,0,5,,,,,,,,4,,,51,0
52800,note_on,255,0,6,,,,,,,,5,,,40,85
52800,note_on,255,0,3,,,,,,,,2,,,80,64
52800,note_on,255,0,2,,,,,,,,1,,,80,64
52800,note_on,255,0,4,,,,,,,,3,,,59,85
52800,note_on,255,0,1,,,,,,,,0,,,80,64
52800,note_on,255,0,5,,,,,,,,4,,,52,85
53025,note_on,225,0,3,,,,,,,,2,,,80,0
53025,note_on,225,0,4,,,,,,,,3,,,59,0
53025,note_on,225,0,5,,,,,,,,4,,,52,0
53025,note_on,225,0,2,,,,,,,,1,,,80,0
53025,note_on,225,0,6,,,,,,,,5,,,40,0
53025,note_on,225,0,1,,,,,,,,0,,,80,0
53040,note_on,15,0,5,,,,,,,,4,,,60,85
53040,note_on,15,0,4,,,,,,,,3,,,71,85
53040,note_on,15,0,1,,,,,,,,0,,,76,64
53040,note_on,15,0,2,,,,,,,,1,,,76,64
53040,note_on,15,0,3,,,,,,,,2,,,76,64
53040,note_on,15,0,6,,,,,,,,5,,,48,85
53155,note_on,115,0,5,,,,,,,,4,,,60,0
53155,note_on,115,0,6,,,,,,,,5,,,48,0
53160,note_on,5,0,5,,,,,,,,4,,,59,85
53160,note_on,5,0,6,,,,,,,,5,,,47,85
53265,note_on,225,0,4,,,,,,,,3,,,71,0
53265,note_on,225,0,2,,,,,,,,1,,,76,0
53265,note_on,225,0,3,,,,,,,,2,,,76,0
53265,note_on,225,0,1,,,,,,,,0,,,76,0
53275,note_on,115,0,5,,,,,,,,4,,,59,0
53275,note_on,115,0,6,,,,,,,,5,,,47,0
53280,note_on,5,0,6,,,,,,,,5,,,45,85
53280,note_on,5,0,5,,,,,,,,4,,,57,85
53280,note_on,15,0,1,,,,,,,,0,,,77,64
53280,note_on,15,0,2,,,,,,,,1,,,77,64
53280,note_on,15,0,3,,,,,,,,2,,,77,64
53280,note_on,15,0,4,,,,,,,,3,,,72,85
53395,note_on,115,0,6,,,,,,,,5,,,45,0
53395,note_on,115,0,5,,,,,,,,4,,,57,0
53395,note_on,115,0,4,,,,,,,,3,,,72,0
53400,note_on,5,0,4,,,,,,,,3,,,71,85
53400,note_on,5,0,5,,,,,,,,4,,,55,85
53400,note_on,5,0,6,,,,,,,,5,,,43,85
53515,note_on,115,0,5,,,,,,,,4,,,55,0
53515,note_on,115,0,6,,,,,,,,5,,,43,0
53515,note_on,115,0,4,,,,,,,,3,,,71,0
53520,note_on,5,0,4,,,,,,,,3,,,72,85
53520,note_on,5,0,6,,,,,,,,5,,,45,85
53520,note_on,5,0,5,,,,,,,,4,,,57,85
53635,note_on,115,0,4,,,,,,,,3,,,72,0
53635,note_on,115,0,6,,,,,,,,5,,,45,0
53635,note_on,115,0,5,,,,,,,,4,,,57,0
53640,note_on,5,0,5,,,,,,,,4,,,53,85
53640,note_on,5,0,4,,,,,,,,3,,,69,85
53640,note_on,5,0,6,,,,,,,,5,,,41,85
53755,note_on,115,0,6,,,,,,,,5,,,41,0
53755,note_on,115,0,5,,,,,,,,4,,,53,0
53755,note_on,115,0,4,,,,,,,,3,,,69,0
53760,note_on,5,0,5,,,,,,,,4,,,55,85
53760,note_on,5,0,4,,,,,,,,3,,,71,85
53760,note_on,5,0,6,,,,,,,,5,,,43,85
53875,note_on,115,0,5,,,,,,,,4,,,55,0
53875,note_on,115,0,6,,,,,,,,5,,,43,0
53875,note_on,115,0,4,,,,,,,,3,,,71,0
53880,note_on,5,0,6,,,,,,,,5,,,45,85
53880,note_on,5,0,4,,,,,,,,3,,,72,85
53880,note_on,5,0,5,,,,,,,,4,,,57,85
53985,note_on,705,0,3,,,,,,,,2,,,77,0
53985,note_on,705,0,1,,,,,,,,0,,,77,0
53985,note_on,705,0,2,,,,,,,,1,,,77,0
53995,note_on,115,0,4,,,,,,,,3,,,72,0
53995,note_on,115,0,6,,,,,,,,5,,,45,0
53995,note_on,115,0,5,,,,,,,,4,,,57,0
54000,note_on,5,0,5,,,,,,,,4,,,59,85
54000,note_on,5,0,6,,,,,,,,5,,,47,85
54000,note_on,5,0,4,,,,,,,,3,,,74,85
54000,note_on,15,0,3,,,,,,,,2,,,71,64
54000,note_on,15,0,2,,,,,,,,1,,,71,64
54000,note_on,15,0,1,,,,,,,,0,,,71,64
54115,note_on,115,0,5,,,,,,,,4,,,59,0
54115,note_on,115,0,4,,,,,,,,3,,,74,0
54115,note_on,115,0,6,,,,,,,,5,,,47,0
54120,note_on,5,0,5,,,,,,,,4,,,55,85
54120,note_on,5,0,4,,,,,,,,3,,,71,85
54120,note_on,5,0,6,,,,,,,,5,,,43,85
54225,note_on,225,0,1,,,,,,,,0,,,71,0
54225,note_on,225,0,3,,,,,,,,2,,,71,0
54225,note_on,225,0,2,,,,,,,,1,,,71,0
54235,note_on,115,0,5,,,,,,,,4,,,55,0
54235,note_on,115,0,6,,,,,,,,5,,,43,0
54235,note_on,115,0,4,,,,,,,,3,,,71,0
54240,note_on,5,0,6,,,,,,,,5,,,36,85
54240,note_on,5,0,5,,,,,,,,4,,,48,85
54240,note_on,15,0,2,,,,,,,,1,,,76,64
54240,note_on,15,0,3,,,,,,,,2,,,76,64
54240,note_on,15,0,1,,,,,,,,0,,,76,64
54240,note_on,5,0,4,,,,,,,,3,,,67,85
54355,note_on,115,0,5,,,,,,,,4,,,48,0
54355,note_on,115,0,6,,,,,,,,5,,,36,0
54360,note_on,5,0,5,,,,,,,,4,,,50,85
54360,note_on,5,0,6,,,,,,,,5,,,38,85
54465,note_on,225,0,4,,,,,,,,3,,,67,0
54475,note_on,115,0,6,,,,,,,,5,,,38,0
54475,note_on,115,0,5,,,,,,,,4,,,50,0
54480,note_on,5,0,6,,,,,,,,5,,,40,85
54480,note_on,5,0,5,,,,,,,,4,,,52,85
54480,note_on,15,0,4,,,,,,,,3,,,72,85
54595,note_on,115,0,6,,,,,,,,5,,,40,0
54595,note_on,115,0,5,,,,,,,,4,,,52,0
54600,note_on,5,0,5,,,,,,,,4,,,48,85
54600,note_on,5,0,6,,,,,,,,5,,,36,85
54705,note_on,225,0,4,,,,,,,,3,,,72,0
54715,note_on,115,0,5,,,,,,,,4,,,48,0
54715,note_on,115,0,6,,,,,,,,5,,,36,0
54720,note_on,5,0,6,,,,,,,,5,,,41,85
54720,note_on,15,0,4,,,,,,,,3,,,69,85
54720,note_on,5,0,5,,,,,,,,4,,,53,85
54835,note_on,115,0,6,,,,,,,,5,,,41,0
54835,note_on,115,0,5,,,,,,,,4,,,53,0
54835,note_on,115,0,4,,,,,,,,3,,,69,0
54840,note_on,5,0,6,,,,,,,,5,,,43,85
54840,note_on,5,0,5,,,,,,,,4,,,55,85
54840,note_on,5,0,4,,,,,,,,3,,,71,85
54945,note_on,705,0,2,,,,,,,,1,,,76,0
54945,note_on,705,0,1,,,,,,,,0,,,76,0
54945,note_on,705,0,3,,,,,,,,2,,,76,0
54955,note_on,115,0,4,,,,,,,,3,,,71,0
54955,note_on,115,0,5,,,,,,,,4,,,55,0
54955,note_on,115,0,6,,,,,,,,5,,,43,0
54960,note_on,15,0,2,,,,,,,,1,,,69,64
54960,note_on,15,0,1,,,,,,,,0,,,69,64
54960,note_on,15,0,3,,,,,,,,2,,,69,64
54960,note_on,5,0,6,,,,,,,,5,,,45,85
54960,note_on,5,0,4,,,,,,,,3,,,72,85
54960,note_on,5,0,5,,,,,,,,4,,,57,85
55075,note_on,115,0,6,,,,,,,,5,,,45,0
55075,note_on,115,0,4,,,,,,,,3,,,72,0
55075,note_on,115,0,5,,,,,,,,4,,,57,0
55080,note_on,5,0,6,,,,,,,,5,,,43,85
55080,note_on,5,0,5,,,,,,,,4,,,55,85
55080,note_on,5,0,4,,,,,,,,3,,,71,85
55185,note_on,225,0,1,,,,,,,,0,,,69,0
55185,note_on,225,0,2,,,,,,,,1,,,69,0
55185,note_on,225,0,3,,,,,,,,2,,,69,0
55195,note_on,115,0,4,,,,,,,,3,,,71,0
55195,note_on,115,0,6,,,,,,,,5,,,43,0
55195,note_on,115,0,5,,,,,,,,4,,,55,0
55200,note_on,15,0,1,,,,,,,,0,,,74,64
55200,note_on,5,0,5,,,,,,,,4,,,53,85
55200,note_on,5,0,4,,,,,,,,3,,,69,85
55200,note_on,15,0,2,,,,,,,,1,,,74,64
55200,note_on,5,0,6,,,,,,,,5,,,41,85
55200,note_on,15,0,3,,,,,,,,2,,,74,64
55315,note_on,115,0,4,,,,,,,,3,,,69,0
55315,note_on,115,0,6,,,,,,,,5,,,41,0
55315,note_on,115,0,5,,,,,,,,4,,,53,0
55320,note_on,5,0,6,,,,,,,,5,,,40,85
55320,note_on,5,0,4,,,,,,,,3,,,67,85
55320,note_on,5,0,5,,,,,,,,4,,,52,85
55435,note_on,115,0,6,,,,,,,,5,,,40,0
55435,note_on,115,0,4,,,,,,,,3,,,67,0
55435,note_on,115,0,5,,,,,,,,4,,,52,0
55440,note_on,5,0,5,,,,,,,,4,,,50,85
55440,note_on,5,0,4,,,,,,,,3,,,65,85
55440,note_on,5,0,6,,,,,,,,5,,,38,85
55555,note_on,115,0,4,,,,,,,,3,,,65,0
55555,note_on,115,0,5,,,,,,,,4,,,50,0
55555,note_on,115,0,6,,,,,,,,5,,,38,0
55560,note_on,5,0,6,,,,,,,,5,,,41,85
55560,note_on,5,0,4,,,,,,,,3,,,69,85
55560,note_on,5,0,5,,,,,,,,4,,,53,85
55675,note_on,115,0,5,,,,,,,,4,,,53,0
55675,note_on,115,0,6,,,,,,,,5,,,41,0
55675,note_on,115,0,4,,,,,,,,3,,,69,0
55680,note_on,5,0,4,,,,,,,,3,,,68,85
55680,note_on,5,0,6,,,,,,,,5,,,40,85
55680,note_on,5,0,5,,,,,,,,4,,,52,85
55795,note_on,115,0,6,,,,,,,,5,,,40,0
55795,note_on,115,0,5,,,,,,,,4,,,52,0
55795,note_on,115,0,4,,,,,,,,3,,,68,0
55800,note_on,5,0,4,,,,,,,,3,,,69,85
55800,note_on,5,0,5,,,,,,,,4,,,54,85
55800,note_on,5,0,6,,,,,,,,5,,,42,85
55905,note_on,705,0,1,,,,,,,,0,,,74,0
55905,note_on,705,0,3,,,,,,,,2,,,74,0
55905,note_on,705,0,2,,,,,,,,1,,,74,0
55915,note_on,115,0,4,,,,,,,,3,,,69,0
55915,note_on,115,0,5,,,,,,,,4,,,54,0
55915,note_on,115,0,6,,,,,,,,5,,,42,0
55920,note_on,15,0,1,,,,,,,,0,,,64,64
55920,note_on,15,0,3,,,,,,,,2,,,64,64
55920,note_on,5,0,4,,,,,,,,3,,,71,85
55920,note_on,5,0,6,,,,,,,,5,,,44,85
55920,note_on,15,0,2,,,,,,,,1,,,64,64
55920,note_on,5,0,5,,,,,,,,4,,,56,85
56035,note_on,115,0,6,,,,,,,,5,,,44,0
56035,note_on,115,0,4,,,,,,,,3,,,71,0
56035,note_on,115,0,5,,,,,,,,4,,,56,0
56040,note_on,5,0,4,,,,,,,,3,,,68,85
56040,note_on,5,0,6,,,,,,,,5,,,40,85
56040,note_on,5,0,5,,,,,,,,4,,,52,85
56145,note_on,225,0,1,,,,,,,,0,,,64,0
56145,note_on,225,0,3,,,,,,,,2,,,64,0
56145,note_on,225,0,2,,,,,,,,1,,,64,0
56155,note_on,115,0,5,,,,,,,,4,,,52,0
56155,note_on,115,0,4,,,,,,,,3,,,68,0
56155,note_on,115,0,6,,,,,,,,5,,,40,0
56160,note_on,5,0,6,,,,,,,,5,,,45,85
56160,note_on,5,0,5,,,,,,,,4,,,57,85
56160,note_on,15,0,2,,,,,,,,1,,,72,64
56160,note_on,15,0,3,,,,,,,,2,,,72,64
56160,note_on,15,0,1,,,,,,,,0,,,72,64
56160,note_on,5,0,4,,,,,,,,3,,,64,85
56275,note_on,115,0,6,,,,,,,,5,,,45,0
56275,note_on,115,0,5,,,,,,,,4,,,57,0
56280,note_on,5,0,6,,,,,,,,5,,,47,85
56280,note_on,5,0,5,,,,,,,,4,,,59,85
56385,note_on,225,0,4,,,,,,,,3,,,64,0
56395,note_on,115,0,5,,,,,,,,4,,,59,0
56395,note_on,115,0,6,,,,,,,,5,,,47,0
56400,note_on,5,0,6,,,,,,,,5,,,48,85
56400,note_on,15,0,4,,,,,,,,3,,,69,85
56400,note_on,5,0,5,,,,,,,,4,,,60,85
56515,note_on,115,0,5,,,,,,,,4,,,60,0
56515,note_on,115,0,6,,,,,,,,5,,,48,0
56520,note_on,5,0,6,,,,,,,,5,,,45,85
56520,note_on,5,0,5,,,,,,,,4,,,57,85
56625,note_on,225,0,4,,,,,,,,3,,,69,0
56635,note_on,115,0,5,,,,,,,,4,,,57,0
56635,note_on,115,0,6,,,,,,,,5,,,45,0
56640,note_on,15,0,4,,,,,,,,3,,,65,85
56640,note_on,5,0,5,,,,,,,,4,,,50,85
56640,note_on,5,0,6,,,,,,,,5,,,38,85
56755,note_on,115,0,5,,,,,,,,4,,,50,0
56755,note_on,115,0,6,,,,,,,,5,,,38,0
56760,note_on,5,0,5,,,,,,,,4,,,52,85
56760,note_on,5,0,6,,,,,,,,5,,,40,85
56865,note_on,705,0,3,,,,,,,,2,,,72,0
56865,note_on,705,0,1,,,,,,,,0,,,72,0
56865,note_on,705,0,2,,,,,,,,1,,,72,0
56875,note_on,115,0,6,,,,,,,,5,,,40,0
56875,note_on,115,0,5,,,,,,,,4,,,52,0
56880,note_on,5,0,6,,,,,,,,5,,,41,85
56880,note_on,15,0,3,,,,,,,,2,,,71,64
56880,note_on,5,0,5,,,,,,,,4,,,53,85
56880,note_on,15,0,1,,,,,,,,0,,,71,64
56880,note_on,15,0,2,,,,,,,,1,,,71,64
56995,note_on,115,0,6,,,,,,,,5,,,41,0
56995,note_on,115,0,2,,,,,,,,1,,,71,0
56995,note_on,115,0,3,,,,,,,,2,,,71,0
56995,note_on,115,0,1,,,,,,,,0,,,71,0
56995,note_on,115,0,5,,,,,,,,4,,,53,0
57000,note_on,5,0,6,,,,,,,,5,,,38,85
57000,note_on,5,0,3,,,,,,,,2,,,69,64
57000,note_on,5,0,5,,,,,,,,4,,,50,85
57000,note_on,5,0,2,,,,,,,,1,,,69,64
57000,note_on,5,0,1,,,,,,,,0,,,69,64
57085,note_on,445,0,4,,,,,,,,3,,,65,0
57115,note_on,115,0,1,,,,,,,,0,,,69,0
57115,note_on,115,0,6,,,,,,,,5,,,38,0
57115,note_on,115,0,3,,,,,,,,2,,,69,0
57115,note_on,115,0,2,,,,,,,,1,,,69,0
57115,note_on,115,0,5,,,,,,,,4,,,50,0
57120,note_on,35,0,4,,,,,,,,3,,,59,85
57120,note_on,5,0,3,,,,,,,,2,,,69,64
57120,note_on,5,0,1,,,,,,,,0,,,69,64
57120,note_on,5,0,2,,,,,,,,1,,,69,64
57120,note_on,5,0,6,,,,,,,,5,,,40,85
57120,note_on,5,0,5,,,,,,,,4,,,52,85
57180,note_on,0,0,1,,,,,,,,0,,,68,64
57180,note_on,0,0,3,,,,,,,,2,,,68,64
57180,note_on,60,0,3,,,,,,,,2,,,69,0
57180,note_on,60,0,1,,,,,,,,0,,,69,0
57180,note_on,60,0,2,,,,,,,,1,,,69,0
57180,note_on,0,0,2,,,,,,,,1,,,68,64
57240,note_on,0,0,1,,,,,,,,0,,,69,64
57240,note_on,60,0,1,,,,,,,,0,,,68,0
57240,note_on,0,0,3,,,,,,,,2,,,69,64
57240,note_on,60,0,3,,,,,,,,2,,,68,0
57240,note_on,60,0,2,,,,,,,,1,,,68,0
57240,note_on,0,0,2,,,,,,,,1,,,69,64
57300,note_on,0,0,2,,,,,,,,1,,,68,64
57300,note_on,60,0,1,,,,,,,,0,,,69,0
57300,note_on,0,0,1,,,,,,,,0,,,68,64
57300,note_on,60,0,3,,,,,,,,2,,,69,0
57300,note_on,0,0,3,,,,,,,,2,,,68,64
57300,note_on,60,0,2,,,,,,,,1,,,69,0
57345,note_on,225,0,6,,,,,,,,5,,,40,0
57345,note_on,225,0,4,,,,,,,,3,,,59,0
57345,note_on,225,0,5,,,,,,,,4,,,52,0
57360,note_on,15,0,6,,,,,,,,5,,,28,85
57360,note_on,15,0,4,,,,,,,,3,,,64,85
57360,note_on,15,0,5,,,,,,,,4,,,40,85
57475,note_on,175,0,1,,,,,,,,0,,,68,0
57475,note_on,175,0,2,,,,,,,,1,,,68,0
57475,note_on,175,0,3,,,,,,,,2,,,68,0
57480,note_on,5,0,3,,,,,,,,2,,,69,64
57480,note_on,5,0,1,,,,,,,,0,,,69,64
57480,note_on,5,0,2,,,,,,,,1,,,69,64
57585,note_on,225,0,4,,,,,,,,3,,,64,0
57585,note_on,225,0,5,,,,,,,,4,,,40,0
57585,note_on,225,0,6,,,,,,,,5,,,28,0
57595,note_on,115,0,3,,,,,,,,2,,,69,0
57595,note_on,115,0,1,,,,,,,,0,,,69,0
57595,note_on,115,0,2,,,,,,,,1,,,69,0
57600,note_on,15,0,6,,,,,,,,5,,,33,85
57600,note_on,5,0,3,,,,,,,,2,,,69,64
57600,note_on,5,0,2,,,,,,,,1,,,69,64
57600,note_on,15,0,5,,,,,,,,4,,,45,85
57600,note_on,5,0,1,,,,,,,,0,,,69,64
57600,note_on,15,0,4,,,,,,,,3,,,60,85
57825,note_on,225,0,2,,,,,,,,1,,,69,0
57825,note_on,225,0,1,,,,,,,,0,,,69,0
57825,note_on,225,0,3,,,,,,,,2,,,69,0
57840,note_on,15,0,3,,,,,,,,2,,,76,64
57840,note_on,15,0,2,,,,,,,,1,,,76,64
57840,note_on,15,0,1,,,,,,,,0,,,76,64
58045,note_on,445,0,6,,,,,,,,5,,,33,0
58045,note_on,445,0,4,,,,,,,,3,,,60,0
58045,note_on,445,0,5,,,,,,,,4,,,45,0
58065,note_on,225,0,3,,,,,,,,2,,,76,0
58065,note_on,225,0,2,,,,,,,,1,,,76,0
58065,note_on,225,0,1,,,,,,,,0,,,76,0
58080,note_on,15,0,1,,,,,,,,0,,,77,64
58080,note_on,15,0,3,,,,,,,,2,,,77,64
58080,note_on,15,0,2,,,,,,,,1,,,77,64
58320,note_on,275,0,6,,,,,,,,5,,,45,85
58320,note_on,275,0,5,,,,,,,,4,,,57,85
58320,note_on,275,0,4,,,,,,,,3,,,72,85
58545,note_on,225,0,4,,,,,,,,3,,,72,0
58545,note_on,225,0,5,,,,,,,,4,,,57,0
58545,note_on,225,0,6,,,,,,,,5,,,45,0
58560,note_on,15,0,5,,,,,,,,4,,,56,85
58560,note_on,15,0,6,,,,,,,,5,,,44,85
58560,note_on,15,0,4,,,,,,,,3,,,71,85
58785,note_on,705,0,2,,,,,,,,1,,,77,0
58785,note_on,705,0,1,,,,,,,,0,,,77,0
58785,note_on,705,0,3,,,,,,,,2,,,77,0
58800,note_on,15,0,2,,,,,,,,1,,,76,64
58800,note_on,15,0,1,,,,,,,,0,,,76,64
58800,note_on,15,0,3,,,,,,,,2,,,76,64
59025,note_on,225,0,2,,,,,,,,1,,,76,0
59025,note_on,225,0,3,,,,,,,,2,,,76,0
59025,note_on,225,0,1,,,,,,,,0,,,76,0
59040,note_on,15,0,1,,,,,,,,0,,,86,64
59040,note_on,15,0,3,,,,,,,,2,,,86,64
59040,note_on,15,0,2,,,,,,,,1,,,86,64
59225,note_on,665,0,6,,,,,,,,5,,,44,0
59225,note_on,665,0,5,,,,,,,,4,,,56,0
59225,note_on,665,0,4,,,,,,,,3,,,71,0
59280,note_on,55,0,6,,,,,,,,5,,,40,85
59280,note_on,55,0,4,,,,,,,,3,,,68,85
59280,note_on,55,0,5,,,,,,,,4,,,52,85
59505,note_on,225,0,4,,,,,,,,3,,,68,0
59505,note_on,225,0,6,,,,,,,,5,,,40,0
59505,note_on,225,0,5,,,,,,,,4,,,52,0
59520,note_on,15,0,6,,,,,,,,5,,,45,85
59520,note_on,15,0,5,,,,,,,,4,,,57,85
59520,note_on,15,0,4,,,,,,,,3,,,64,85
59745,note_on,705,0,2,,,,,,,,1,,,86,0
59745,note_on,705,0,3,,,,,,,,2,,,86,0
59745,note_on,705,0,1,,,,,,,,0,,,86,0
59760,note_on,15,0,2,,,,,,,,1,,,84,64
59760,note_on,15,0,1,,,,,,,,0,,,84,64
59760,note_on,15,0,3,,,,,,,,2,,,84,64
59965,note_on,445,0,4,,,,,,,,3,,,64,0
59985,note_on,225,0,3,,,,,,,,2,,,84,0
59985,note_on,225,0,2,,,,,,,,1,,,84,0
59985,note_on,225,0,1,,,,,,,,0,,,84,0
60000,note_on,15,0,3,,,,,,,,2,,,77,64
60000,note_on,15,0,2,,,,,,,,1,,,77,64
60000,note_on,15,0,1,,,,,,,,0,,,77,64
60000,note_on,35,0,4,,,,,,,,3,,,72,85
60185,note_on,665,0,6,,,,,,,,5,,,45,0
60185,note_on,665,0,5,,,,,,,,4,,,57,0
60225,note_on,225,0,4,,,,,,,,3,,,72,0
60240,note_on,55,0,5,,,,,,,,4,,,62,85
60240,note_on,15,0,4,,,,,,,,3,,,69,85
60240,note_on,55,0,6,,,,,,,,5,,,50,85
60465,note_on,225,0,6,,,,,,,,5,,,50,0
60465,note_on,225,0,5,,,,,,,,4,,,62,0
60465,note_on,225,0,4,,,,,,,,3,,,69,0
60480,note_on,15,0,5,,,,,,,,4,,,56,85
60480,note_on,15,0,6,,,,,,,,5,,,44,85
60480,note_on,15,0,4,,,,,,,,3,,,71,85
60705,note_on,705,0,3,,,,,,,,2,,,77,0
60705,note_on,705,0,1,,,,,,,,0,,,77,0
60705,note_on,705,0,2,,,,,,,,1,,,77,0
60720,note_on,15,0,3,,,,,,,,2,,,76,64
60720,note_on,15,0,2,,,,,,,,1,,,76,64
60720,note_on,15,0,1,,,,,,,,0,,,76,64
60835,note_on,115,0,2,,,,,,,,1,,,76,0
60835,note_on,115,0,1,,,,,,,,0,,,76,0
60835,note_on,115,0,3,,,,,,,,2,,,76,0
60840,note_on,5,0,3,,,,,,,,2,,,74,64
60840,note_on,5,0,1,,,,,,,,0,,,74,64
60840,note_on,5,0,2,,,,,,,,1,,,74,64
60925,note_on,445,0,4,,,,,,,,3,,,71,0
60925,note_on,445,0,5,,,,,,,,4,,,56,0
60925,note_on,445,0,6,,,,,,,,5,,,44,0
60955,note_on,115,0,1,,,,,,,,0,,,74,0
60955,note_on,115,0,2,,,,,,,,1,,,74,0
60955,note_on,115,0,3,,,,,,,,2,,,74,0
60960,note_on,5,0,2,,,,,,,,1,,,72,64
60960,note_on,35,0,4,,,,,,,,3,,,64,85
60960,note_on,35,0,6,,,,,,,,5,,,45,85
60960,note_on,35,0,5,,,,,,,,4,,,57,85
60960,note_on,5,0,1,,,,,,,,0,,,72,64
60960,note_on,5,0,3,,,,,,,,2,,,72,64
61185,note_on,225,0,1,,,,,,,,0,,,72,0
61185,note_on,225,0,2,,,,,,,,1,,,72,0
61185,note_on,225,0,3,,,,,,,,2,,,72,0
61185,note_on,225,0,6,,,,,,,,5,,,45,0
61185,note_on,225,0,5,,,,,,,,4,,,57,0
61200,note_on,15,0,3,,,,,,,,2,,,71,64
61200,note_on,15,0,6,,,,,,,,5,,,44,85
61200,note_on,15,0,2,,,,,,,,1,,,71,64
61200,note_on,15,0,5,,,,,,,,4,,,56,85
61200,note_on,15,0,1,,,,,,,,0,,,71,64
61425,note_on,225,0,3,,,,,,,,2,,,71,0
61425,note_on,225,0,6,,,,,,,,5,,,44,0
61425,note_on,225,0,2,,,,,,,,1,,,71,0
61425,note_on,225,0,5,,,,,,,,4,,,56,0
61425,note_on,225,0,1,,,,,,,,0,,,71,0
61440,note_on,15,0,6,,,,,,,,5,,,45,85
61440,note_on,15,0,1,,,,,,,,0,,,72,64
61440,note_on,15,0,3,,,,,,,,2,,,72,64
61440,note_on,15,0,2,,,,,,,,1,,,72,64
61440,note_on,15,0,5,,,,,,,,4,,,57,85
61665,note_on,225,0,5,,,,,,,,4,,,57,0
61665,note_on,225,0,1,,,,,,,,0,,,72,0
61665,note_on,225,0,3,,,,,,,,2,,,72,0
61665,note_on,705,0,4,,,,,,,,3,,,64,0
61665,note_on,225,0,6,,,,,,,,5,,,45,0
61665,note_on,225,0,2,,,,,,,,1,,,72,0
61680,note_on,15,0,1,,,,,,,,0,,,71,64
61680,note_on,15,0,4,,,,,,,,3,,,65,85
61680,note_on,15,0,3,,,,,,,,2,,,71,64
61680,note_on,15,0,5,,,,,,,,4,,,50,85
61680,note_on,15,0,2,,,,,,,,1,,,71,64
61680,note_on,15,0,6,,,,,,,,5,,,38,85
61795,note_on,115,0,2,,,,,,,,1,,,71,0
61795,note_on,115,0,1,,,,,,,,0,,,71,0
61795,note_on,115,0,3,,,,,,,,2,,,71,0
61800,note_on,5,0,1,,,,,,,,0,,,69,64
61800,note_on,5,0,2,,,,,,,,1,,,69,64
61800,note_on,5,0,3,,,,,,,,2,,,69,64
61905,note_on,225,0,5,,,,,,,,4,,,50,0
61905,note_on,225,0,6,,,,,,,,5,,,38,0
61905,note_on,225,0,4,,,,,,,,3,,,65,0
61915,note_on,115,0,2,,,,,,,,1,,,69,0
61915,note_on,115,0,3,,,,,,,,2,,,69,0
61915,note_on,115,0,1,,,,,,,,0,,,69,0
61920,note_on,5,0,1,,,,,,,,0,,,69,64
61920,note_on,15,0,6,,,,,,,,5,,,40,85
61920,note_on,15,0,4,,,,,,,,3,,,59,85
61920,note_on,15,0,5,,,,,,,,4,,,52,85
61920,note_on,5,0,2,,,,,,,,1,,,69,64
61920,note_on,5,0,3,,,,,,,,2,,,69,64
61980,note_on,0,0,1,,,,,,,,0,,,68,64
61980,note_on,60,0,1,,,,,,,,0,,,69,0
61980,note_on,0,0,2,,,,,,,,1,,,68,64
61980,note_on,60,0,2,,,,,,,,1,,,69,0
61980,note_on,60,0,3,,,,,,,,2,,,69,0
61980,note_on,0,0,3,,,,,,,,2,,,68,64
62040,note_on,60,0,3,,,,,,,,2,,,68,0
62040,note_on,60,0,1,,,,,,,,0,,,68,0
62040,note_on,60,0,2,,,,,,,,1,,,68,0
62040,note_on,0,0,2,,,,,,,,1,,,69,64
62040,note_on,0,0,1,,,,,,,,0,,,69,64
62040,note_on,0,0,3,,,,,,,,2,,,69,64
62100,note_on,60,0,3,,,,,,,,2,,,69,0
62100,note_on,0,0,2,,,,,,,,1,,,68,64
62100,note_on,0,0,3,,,,,,,,2,,,68,64
62100,note_on,60,0,2,,,,,,,,1,,,69,0
62100,note_on,60,0,1,,,,,,,,0,,,69,0
62100,note_on,0,0,1,,,,,,,,0,,,68,64
62145,note_on,225,0,6,,,,,,,,5,,,40,0
62145,note_on,225,0,5,,,,,,,,4,,,52,0
62145,note_on,225,0,4,,,,,,,,3,,,59,0
62160,note_on,15,0,4,,,,,,,,3,,,64,85
62160,note_on,15,0,6,,,,,,,,5,,,28,85
62160,note_on,15,0,5,,,,,,,,4,,,40,85
62275,note_on,175,0,3,,,,,,,,2,,,68,0
62275,note_on,175,0,2,,,,,,,,1,,,68,0
62275,note_on,175,0,1,,,,,,,,0,,,68,0
62280,note_on,5,0,1,,,,,,,,0,,,69,64
62280,note_on,5,0,2,,,,,,,,1,,,69,64
62280,note_on,5,0,3,,,,,,,,2,,,69,64
62385,note_on,225,0,4,,,,,,,,3,,,64,0
62385,note_on,225,0,5,,,,,,,,4,,,40,0
62385,note_on,225,0,6,,,,,,,,5,,,28,0
62395,note_on,115,0,1,,,,,,,,0,,,69,0
62395,note_on,115,0,2,,,,,,,,1,,,69,0
62395,note_on,115,0,3,,,,,,,,2,,,69,0
62400,note_on,15,0,6,,,,,,,,5,,,33,85
62400,note_on,15,0,5,,,,,,,,4,,,45,85
62400,note_on,15,0,4,,,,,,,,3,,,60,85
62400,note_on,5,0,3,,,,,,,,2,,,69,64
62400,note_on,5,0,1,,,,,,,,0,,,69,64
62400,note_on,5,0,2,,,,,,,,1,,,69,64
62625,note_on,225,0,1,,,,,,,,0,,,69,0
62640,note_on,15,0,1,,,,,,,,0,,,72,106
62700,note_on,60,0,1,,,,,,,,0,,,72,0
62700,note_on,0,0,1,,,,,,,,0,,,71,106
62760,note_on,0,0,1,,,,,,,,0,,,72,106
62760,note_on,60,0,1,,,,,,,,0,,,71,0
62820,note_on,0,0,1,,,,,,,,0,,,71,106
62820,note_on,60,0,1,,,,,,,,0,,,72,0
62845,note_on,445,0,2,,,,,,,,1,,,69,0
62845,note_on,445,0,6,,,,,,,,5,,,33,0
62845,note_on,445,0,3,,,,,,,,2,,,69,0
62845,note_on,445,0,5,,,,,,,,4,,,45,0
62845,note_on,445,0,4,,,,,,,,3,,,60,0
62880,note_on,35,0,5,,,,,,,,4,,,57,64
62880,note_on,35,0,6,,,,,,,,5,,,45,64
63105,note_on,285,0,1,,,,,,,,0,,,71,0
63120,note_on,15,0,1,,,,,,,,0,,,71,106
63235,note_on,115,0,1,,,,,,,,0,,,71,0
63240,note_on,5,0,1,,,,,,,,0,,,69,106
63325,note_on,445,0,6,,,,,,,,5,,,45,0
63325,note_on,445,0,5,,,,,,,,4,,,57,0
63355,note_on,115,0,1,,,,,,,,0,,,69,0
63360,note_on,5,0,1,,,,,,,,0,,,76,106
63360,note_on,35,0,5,,,,,,,,4,,,55,64
63360,note_on,35,0,6,,,,,,,,5,,,43,64
63585,note_on,225,0,1,,,,,,,,0,,,76,0
63600,note_on,15,0,1,,,,,,,,0,,,81,106
63660,note_on,0,0,1,,,,,,,,0,,,79,106
63660,note_on,60,0,1,,,,,,,,0,,,81,0
63720,note_on,0,0,1,,,,,,,,0,,,81,106
63720,note_on,60,0,1,,,,,,,,0,,,79,0
63780,note_on,0,0,1,,,,,,,,0,,,79,106
63780,note_on,60,0,1,,,,,,,,0,,,81,0
63805,note_on,445,0,6,,,,,,,,5,,,43,0
63805,note_on,445,0,5,,,,,,,,4,,,55,0
63840,note_on,35,0,5,,,,,,,,4,,,55,64
63840,note_on,35,0,6,,,,,,,,5,,,43,64
64065,note_on,285,0,1,,,,,,,,0,,,79,0
64080,note_on,15,0,1,,,,,,,,0,,,77,106
64195,note_on,115,0,1,,,,,,,,0,,,77,0
64200,note_on,5,0,1,,,,,,,,0,,,76,106
64285,note_on,445,0,6,,,,,,,,5,,,43,0
64285,note_on,445,0,5,,,,,,,,4,,,55,0
64315,note_on,115,0,1,,,,,,,,0,,,76,0
64320,note_on,35,0,5,,,,,,,,4,,,53,64
64320,note_on,5,0,1,,,,,,,,0,,,81,106
64320,note_on,35,0,6,,,,,,,,5,,,41,64
64545,note_on,225,0,1,,,,,,,,0,,,81,0
64560,note_on,15,0,1,,,,,,,,0,,,86,106
64620,note_on,0,0,1,,,,,,,,0,,,84,106
64620,note_on,60,0,1,,,,,,,,0,,,86,0
64680,note_on,0,0,1,,,,,,,,0,,,86,106
64680,note_on,60,0,1,,,,,,,,0,,,84,0
64740,note_on,0,0,1,,,,,,,,0,,,84,106
64740,note_on,60,0,1,,,,,,,,0,,,86,0
64765,note_on,445,0,6,,,,,,,,5,,,41,0
64765,note_on,445,0,5,,,,,,,,4,,,53,0
64800,note_on,35,0,6,,,,,,,,5,,,41,64
64800,note_on,35,0,5,,,,,,,,4,,,53,64
65025,note_on,285,0,1,,,,,,,,0,,,84,0
65040,note_on,15,0,1,,,,,,,,0,,,83,106
65155,note_on,115,0,1,,,,,,,,0,,,83,0
65160,note_on,5,0,1,,,,,,,,0,,,81,106
65245,note_on,445,0,5,,,,,,,,4,,,53,0
65245,note_on,445,0,6,,,,,,,,5,,,41,0
65275,note_on,115,0,1,,,,,,,,0,,,81,0
65280,note_on,5,0,1,,,,,,,,0,,,83,106
65280,note_on,35,0,5,,,,,,,,4,,,52,64
65280,note_on,35,0,6,,,,,,,,5,,,40,64
65505,note_on,225,0,6,,,,,,,,5,,,40,0
65505,note_on,225,0,5,,,,,,,,4,,,52,0
65505,note_on,225,0,1,,,,,,,,0,,,83,0
65520,note_on,15,0,5,,,,,,,,4,,,54,64
65520,note_on,15,0,6,,,,,,,,5,,,42,64
65520,note_on,15,0,1,,,,,,,,0,,,76,106
65745,note_on,225,0,5,,,,,,,,4,,,54,0
65745,note_on,225,0,6,,,,,,,,5,,,42,0
65745,note_on,225,0,1,,,,,,,,0,,,76,0
65760,note_on,15,0,6,,,,,,,,5,,,44,64
65760,note_on,15,0,5,,,,,,,,4,,,56,64
65880,note_on,135,0,1,,,,,,,,0,,,76,106
65985,note_on,225,0,5,,,,,,,,4,,,56,0
65985,note_on,225,0,6,,,,,,,,5,,,44,0
65995,note_on,115,0,1,,,,,,,,0,,,76,0
66000,note_on,5,0,1,,,,,,,,0,,,79,106
66000,note_on,15,0,5,,,,,,,,4,,,54,64
66000,note_on,15,0,6,,,,,,,,5,,,42,64
66115,note_on,115,0,1,,,,,,,,0,,,79,0
66120,note_on,5,0,1,,,,,,,,0,,,88,106
66225,note_on,225,0,6,,,,,,,,5,,,42,0
66225,note_on,225,0,5,,,,,,,,4,,,54,0
66235,note_on,115,0,1,,,,,,,,0,,,88,0
66240,note_on,5,0,1,,,,,,,,0,,,76,106
66240,note_on,15,0,5,,,,,,,,4,,,52,64
66240,note_on,15,0,6,,,,,,,,5,,,40,64
66355,note_on,115,0,1,,,,,,,,0,,,76,0
66360,note_on,5,0,1,,,,,,,,0,,,83,106
66465,note_on,225,0,5,,,,,,,,4,,,52,0
66465,note_on,225,0,6,,,,,,,,5,,,40,0
66475,note_on,115,0,1,,,,,,,,0,,,83,0
66480,note_on,5,0,1,,,,,,,,0,,,88,106
66480,note_on,15,0,5,,,,,,,,4,,,54,64
66480,note_on,15,0,6,,,,,,,,5,,,42,64
66595,note_on,115,0,1,,,,,,,,0,,,88,0
66600,note_on,5,0,1,,,,,,,,0,,,83,106
66705,note_on,225,0,5,,,,,,,,4,,,54,0
66705,note_on,225,0,6,,,,,,,,5,,,42,0
66715,note_on,115,0,1,,,,,,,,0,,,83,0
66720,note_on,15,0,5,,,,,,,,4,,,56,64
66720,note_on,5,0,1,,,,,,,,0,,,76,106
66720,note_on,15,0,6,,,,,,,,5,,,44,64
66835,note_on,115,0,1,,,,,,,,0,,,76,0
66840,note_on,5,0,1,,,,,,,,0,,,86,106
66945,note_on,225,0,6,,,,,,,,5,,,44,0
66945,note_on,225,0,5,,,,,,,,4,,,56,0
66955,note_on,115,0,1,,,,,,,,0,,,86,0
66960,note_on,5,0,1,,,,,,,,0,,,84,106
66960,note_on,15,0,6,,,,,,,,5,,,40,64
66960,note_on,15,0,5,,,,,,,,4,,,52,64
67075,note_on,115,0,1,,,,,,,,0,,,84,0
67080,note_on,5,0,1,,,,,,,,0,,,83,106
67185,note_on,225,0,6,,,,,,,,5,,,40,0
67185,note_on,225,0,5,,,,,,,,4,,,52,0
67195,note_on,115,0,1,,,,,,,,0,,,83,0
67200,note_on,15,0,5,,,,,,,,4,,,57,64
67200,note_on,15,0,6,,,,,,,,5,,,45,64
67200,note_on,5,0,1,,,,,,,,0,,,84,106
67315,note_on,115,0,1,,,,,,,,0,,,84,0
67320,note_on,5,0,1,,,,,,,,0,,,76,106
67435,note_on,115,0,1,,,,,,,,0,,,76,0
67440,note_on,5,0,1,,,,,,,,0,,,69,106
67555,note_on,115,0,1,,,,,,,,0,,,69,0
67560,note_on,5,0,1,,,,,,,,0,,,76,106
67645,note_on,445,0,6,,,,,,,,5,,,45,0
67645,note_on,445,0,5,,,,,,,,4,,,57,0
67675,note_on,115,0,1,,,,,,,,0,,,76,0
67680,note_on,5,0,1,,,,,,,,0,,,84,106
67795,note_on,115,0,1,,,,,,,,0,,,84,0
67800,note_on,5,0,1,,,,,,,,0,,,83,106
67915,note_on,115,0,1,,,,,,,,0,,,83,0
67920,note_on,5,0,1,,,,,,,,0,,,81,106
68035,note_on,115,0,1,,,,,,,,0,,,81,0
68040,note_on,5,0,1,,,,,,,,0,,,79,106
68155,note_on,115,0,1,,,,,,,,0,,,79,0
68160,note_on,515,0,6,,,,,,,,5,,,38,64
68160,note_on,515,0,5,,,,,,,,4,,,50,64
68160,note_on,5,0,1,,,,,,,,0,,,77,106
68275,note_on,115,0,1,,,,,,,,0,,,77,0
68280,note_on,5,0,1,,,,,,,,0,,,76,106
68385,note_on,225,0,5,,,,,,,,4,,,50,0
68385,note_on,225,0,6,,,,,,,,5,,,38,0
68395,note_on,115,0,1,,,,,,,,0,,,76,0
68400,note_on,15,0,5,,,,,,,,4,,,52,64
68400,note_on,15,0,6,,,,,,,,5,,,40,64
68400,note_on,5,0,1,,,,,,,,0,,,77,106
68515,note_on,115,0,1,,,,,,,,0,,,77,0
68520,note_on,5,0,1,,,,,,,,0,,,79,106
68625,note_on,225,0,5,,,,,,,,4,,,52,0
68625,note_on,225,0,6,,,,,,,,5,,,40,0
68635,note_on,115,0,1,,,,,,,,0,,,79,0
68640,note_on,5,0,1,,,,,,,,0,,,77,106
68640,note_on,15,0,5,,,,,,,,4,,,53,64
68640,note_on,15,0,6,,,,,,,,5,,,41,64
68755,note_on,115,0,1,,,,,,,,0,,,77,0
68760,note_on,5,0,1,,,,,,,,0,,,79,106
68865,note_on,225,0,6,,,,,,,,5,,,41,0
68865,note_on,225,0,5,,,,,,,,4,,,53,0
68875,note_on,115,0,1,,,,,,,,0,,,79,0
68880,note_on,15,0,5,,,,,,,,4,,,50,64
68880,note_on,15,0,6,,,,,,,,5,,,38,64
68880,note_on,5,0,1,,,,,,,,0,,,81,106
68995,note_on,115,0,1,,,,,,,,0,,,81,0
69000,note_on,5,0,1,,,,,,,,0,,,77,106
69105,note_on,225,0,6,,,,,,,,5,,,38,0
69105,note_on,225,0,5,,,,,,,,4,,,50,0
69115,note_on,115,0,1,,,,,,,,0,,,77,0
69120,note_on,15,0,6,,,,,,,,5,,,43,64
69120,note_on,15,0,5,,,,,,,,4,,,55,64
69120,note_on,5,0,1,,,,,,,,0,,,83,106
69235,note_on,115,0,1,,,,,,,,0,,,83,0
69240,note_on,5,0,1,,,,,,,,0,,,74,106
69355,note_on,115,0,1,,,,,,,,0,,,74,0
69360,note_on,5,0,1,,,,,,,,0,,,67,106
69475,note_on,115,0,1,,,,,,,,0,,,67,0
69480,note_on,5,0,1,,,,,,,,0,,,74,106
69565,note_on,445,0,5,,,,,,,,4,,,55,0
69565,note_on,445,0,6,,,,,,,,5,,,43,0
69595,note_on,115,0,1,,,,,,,,0,,,74,0
69600,note_on,5,0,1,,,,,,,,0,,,83,106
69715,note_on,115,0,1,,,,,,,,0,,,83,0
69720,note_on,5,0,1,,,,,,,,0,,,81,106
69835,note_on,115,0,1,,,,,,,,0,,,81,0
69840,note_on,5,0,1,,,,,,,,0,,,79,106
69955,note_on,115,0,1,,,,,,,,0,,,79,0
69960,note_on,5,0,1,,,,,,,,0,,,77,106
70075,note_on,115,0,1,,,,,,,,0,,,77,0
70080,note_on,515,0,5,,,,,,,,4,,,48,64
70080,note_on,5,0,1,,,,,,,,0,,,76,106
70080,note_on,515,0,6,,,,,,,,5,,,36,64
70195,note_on,115,0,1,,,,,,,,0,,,76,0
70200,note_on,5,0,1,,,,,,,,0,,,74,106
70305,note_on,225,0,6,,,,,,,,5,,,36,0
70305,note_on,225,0,5,,,,,,,,4,,,48,0
70315,note_on,115,0,1,,,,,,,,0,,,74,0
70320,note_on,15,0,5,,,,,,,,4,,,50,64
70320,note_on,15,0,6,,,,,,,,5,,,38,64
70320,note_on,5,0,1,,,,,,,,0,,,76,106
70435,note_on,115,0,1,,,,,,,,0,,,76,0
70440,note_on,5,0,1,,,,,,,,0,,,77,106
70545,note_on,225,0,5,,,,,,,,4,,,50,0
70545,note_on,225,0,6,,,,,,,,5,,,38,0
70555,note_on,115,0,1,,,,,,,,0,,,77,0
70560,note_on,15,0,5,,,,,,,,4,,,52,64
70560,note_on,15,0,6,,,,,,,,5,,,40,64
70560,note_on,5,0,1,,,,,,,,0,,,76,106
70675,note_on,115,0,1,,,,,,,,0,,,76,0
70680,note_on,5,0,1,,,,,,,,0,,,77,106
70785,note_on,225,0,5,,,,,,,,4,,,52,0
70785,note_on,225,0,6,,,,,,,,5,,,40,0
70795,note_on,115,0,1,,,,,,,,0,,,77,0
70800,note_on,15,0,5,,,,,,,,4,,,48,64
70800,note_on,5,0,1,,,,,,,,0,,,79,106
70800,note_on,15,0,6,,,,,,,,5,,,36,64
70915,note_on,115,0,1,,,,,,,,0,,,79,0
70920,note_on,5,0,1,,,,,,,,0,,,76,106
71025,note_on,225,0,5,,,,,,,,4,,,48,0
71025,note_on,225,0,6,,,,,,,,5,,,36,0
71035,note_on,115,0,1,,,,,,,,0,,,76,0
71040,note_on,15,0,6,,,,,,,,5,,,41,64
71040,note_on,15,0,5,,,,,,,,4,,,53,64
71040,note_on,5,0,1,,,,,,,,0,,,81,106
71155,note_on,115,0,1,,,,,,,,0,,,81,0
71160,note_on,5,0,1,,,,,,,,0,,,72,106
71275,note_on,115,0,1,,,,,,,,0,,,72,0
71280,note_on,5,0,1,,,,,,,,0,,,65,106
71395,note_on,115,0,1,,,,,,,,0,,,65,0
71400,note_on,5,0,1,,,,,,,,0,,,72,106
71485,note_on,445,0,5,,,,,,,,4,,,53,0
71485,note_on,445,0,6,,,,,,,,5,,,41,0
71515,note_on,115,0,1,,,,,,,,0,,,72,0
71520,note_on,5,0,1,,,,,,,,0,,,81,106
71635,note_on,115,0,1,,,,,,,,0,,,81,0
71640,note_on,5,0,1,,,,,,,,0,,,79,106
71755,note_on,115,0,1,,,,,,,,0,,,79,0
71760,note_on,5,0,1,,,,,,,,0,,,77,106
71875,note_on,115,0,1,,,,,,,,0,,,77,0
71880,note_on,5,0,1,,,,,,,,0,,,76,106
71995,note_on,115,0,1,,,,,,,,0,,,76,0
72000,note_on,5,0,1,,,,,,,,0,,,74,106
72000,note_on,515,0,5,,,,,,,,4,,,47,64
72000,note_on,515,0,6,,,,,,,,5,,,35,64
72115,note_on,115,0,1,,,,,,,,0,,,74,0
72120,note_on,5,0,1,,,,,,,,0,,,72,106
72225,note_on,225,0,5,,,,,,,,4,,,47,0
72225,note_on,225,0,6,,,,,,,,5,,,35,0
72235,note_on,115,0,1,,,,,,,,0,,,72,0
72240,note_on,15,0,6,,,,,,,,5,,,36,64
72240,note_on,5,0,1,,,,,,,,0,,,74,106
72240,note_on,15,0,5,,,,,,,,4,,,48,64
72355,note_on,115,0,1,,,,,,,,0,,,74,0
72360,note_on,5,0,1,,,,,,,,0,,,76,106
72465,note_on,225,0,6,,,,,,,,5,,,36,0
72465,note_on,225,0,5,,,,,,,,4,,,48,0
72475,note_on,115,0,1,,,,,,,,0,,,76,0
72480,note_on,5,0,1,,,,,,,,0,,,74,106
72480,note_on,15,0,6,,,,,,,,5,,,38,64
72480,note_on,15,0,5,,,,,,,,4,,,50,64
72595,note_on,115,0,1,,,,,,,,0,,,74,0
72600,note_on,5,0,1,,,,,,,,0,,,76,106
72705,note_on,225,0,5,,,,,,,,4,,,50,0
72705,note_on,225,0,6,,,,,,,,5,,,38,0
72715,note_on,115,0,1,,,,,,,,0,,,76,0
72720,note_on,15,0,5,,,,,,,,4,,,47,64
72720,note_on,15,0,6,,,,,,,,5,,,35,64
72720,note_on,5,0,1,,,,,,,,0,,,77,106
72835,note_on,115,0,1,,,,,,,,0,,,77,0
72840,note_on,5,0,1,,,,,,,,0,,,74,106
72945,note_on,225,0,5,,,,,,,,4,,,47,0
72945,note_on,225,0,6,,,,,,,,5,,,35,0
72955,note_on,115,0,1,,,,,,,,0,,,74,0
72960,note_on,5,0,1,,,,,,,,0,,,80,106
72960,note_on,15,0,6,,,,,,,,5,,,40,64
72960,note_on,15,0,5,,,,,,,,4,,,52,64
73075,note_on,115,0,1,,,,,,,,0,,,80,0
73080,note_on,5,0,1,,,,,,,,0,,,71,106
73185,note_on,225,0,5,,,,,,,,4,,,52,0
73185,note_on,225,0,6,,,,,,,,5,,,40,0
73195,note_on,115,0,1,,,,,,,,0,,,71,0
73200,note_on,15,0,5,,,,,,,,4,,,56,64
73200,note_on,15,0,6,,,,,,,,5,,,44,64
73200,note_on,5,0,1,,,,,,,,0,,,64,106
73315,note_on,115,0,1,,,,,,,,0,,,64,0
73320,note_on,5,0,1,,,,,,,,0,,,71,106
73425,note_on,225,0,6,,,,,,,,5,,,44,0
73425,note_on,225,0,5,,,,,,,,4,,,56,0
73435,note_on,115,0,1,,,,,,,,0,,,71,0
73440,note_on,15,0,5,,,,,,,,4,,,54,64
73440,note_on,5,0,1,,,,,,,,0,,,80,106
73440,note_on,15,0,6,,,,,,,,5,,,42,64
73555,note_on,115,0,1,,,,,,,,0,,,80,0
73560,note_on,5,0,1,,,,,,,,0,,,74,106
73665,note_on,225,0,5,,,,,,,,4,,,54,0
73665,note_on,225,0,6,,,,,,,,5,,,42,0
73675,note_on,115,0,1,,,,,,,,0,,,74,0
73680,note_on,15,0,6,,,,,,,,5,,,40,64
73680,note_on,15,0,5,,,,,,,,4,,,52,64
73680,note_on,5,0,1,,,,,,,,0,,,72,106
73795,note_on,115,0,1,,,,,,,,0,,,72,0
73800,note_on,5,0,1,,,,,,,,0,,,71,106
73905,note_on,225,0,5,,,,,,,,4,,,52,0
73905,note_on,225,0,6,,,,,,,,5,,,40,0
73915,note_on,115,0,1,,,,,,,,0,,,71,0
73920,note_on,15,0,5,,,,,,,,4,,,57,64
73920,note_on,5,0,1,,,,,,,,0,,,72,106
73920,note_on,15,0,6,,,,,,,,5,,,45,64
74035,note_on,115,0,1,,,,,,,,0,,,72,0
74040,note_on,5,0,1,,,,,,,,0,,,64,106
74155,note_on,115,0,1,,,,,,,,0,,,64,0
74160,note_on,5,0,1,,,,,,,,0,,,57,106
74275,note_on,115,0,1,,,,,,,,0,,,57,0
74280,note_on,5,0,1,,,,,,,,0,,,64,106
74365,note_on,445,0,5,,,,,,,,4,,,57,0
74365,note_on,445,0,6,,,,,,,,5,,,45,0
74395,note_on,115,0,1,,,,,,,,0,,,64,0
74400,note_on,5,0,1,,,,,,,,0,,,72,106
74515,note_on,115,0,1,,,,,,,,0,,,72,0
74520,note_on,5,0,1,,,,,,,,0,,,74,106
74635,note_on,115,0,1,,,,,,,,0,,,74,0
74640,note_on,5,0,1,,,,,,,,0,,,72,106
74755,note_on,115,0,1,,,,,,,,0,,,72,0
74760,note_on,5,0,1,,,,,,,,0,,,71,106
74875,note_on,115,0,1,,,,,,,,0,,,71,0
74880,note_on,515,0,6,,,,,,,,5,,,40,64
74880,note_on,515,0,5,,,,,,,,4,,,52,64
74880,note_on,5,0,1,,,,,,,,0,,,80,106
74995,note_on,115,0,1,,,,,,,,0,,,80,0
75000,note_on,5,0,1,,,,,,,,0,,,71,106
75105,note_on,225,0,6,,,,,,,,5,,,40,0
75105,note_on,225,0,5,,,,,,,,4,,,52,0
75115,note_on,115,0,1,,,,,,,,0,,,71,0
75120,note_on,15,0,5,,,,,,,,4,,,56,64
75120,note_on,5,0,1,,,,,,,,0,,,64,106
75120,note_on,15,0,6,,,,,,,,5,,,44,64
75235,note_on,115,0,1,,,,,,,,0,,,64,0
75240,note_on,5,0,1,,,,,,,,0,,,71,106
75345,note_on,225,0,6,,,,,,,,5,,,44,0
75345,note_on,225,0,5,,,,,,,,4,,,56,0
75355,note_on,115,0,1,,,,,,,,0,,,71,0
75360,note_on,15,0,5,,,,,,,,4,,,54,64
75360,note_on,15,0,6,,,,,,,,5,,,42,64
75360,note_on,5,0,1,,,,,,,,0,,,80,106
75475,note_on,115,0,1,,,,,,,,0,,,80,0
75480,note_on,5,0,1,,,,,,,,0,,,74,106
75585,note_on,225,0,5,,,,,,,,4,,,54,0
75585,note_on,225,0,6,,,,,,,,5,,,42,0
75595,note_on,115,0,1,,,,,,,,0,,,74,0
75600,note_on,15,0,6,,,,,,,,5,,,40,64
75600,note_on,15,0,5,,,,,,,,4,,,52,64
75600,note_on,5,0,1,,,,,,,,0,,,72,106
75715,note_on,115,0,1,,,,,,,,0,,,72,0
75720,note_on,5,0,1,,,,,,,,0,,,71,106
75825,note_on,225,0,6,,,,,,,,5,,,40,0
75825,note_on,225,0,5,,,,,,,,4,,,52,0
75835,note_on,115,0,1,,,,,,,,0,,,71,0
75840,note_on,15,0,5,,,,,,,,4,,,57,64
75840,note_on,5,0,1,,,,,,,,0,,,72,106
75840,note_on,15,0,6,,,,,,,,5,,,45,64
75955,note_on,115,0,1,,,,,,,,0,,,72,0
75960,note_on,5,0,1,,,,,,,,0,,,64,106
76075,note_on,115,0,1,,,,,,,,0,,,64,0
76080,note_on,5,0,1,,,,,,,,0,,,57,106
76195,note_on,115,0,1,,,,,,,,0,,,57,0
76200,note_on,5,0,1,,,,,,,,0,,,64,106
76285,note_on,445,0,6,,,,,,,,5,,,45,0
76285,note_on,445,0,5,,,,,,,,4,,,57,0
76315,note_on,115,0,1,,,,,,,,0,,,64,0
76320,note_on,5,0,1,,,,,,,,0,,,72,106
76435,note_on,115,0,1,,,,,,,,0,,,72,0
76440,note_on,5,0,1,,,,,,,,0,,,74,106
76555,note_on,115,0,1,,,,,,,,0,,,74,0
76560,note_on,5,0,1,,,,,,,,0,,,72,106
76675,note_on,115,0,1,,,,,,,,0,,,72,0
76680,note_on,5,0,1,,,,,,,,0,,,71,106
76795,note_on,115,0,1,,,,,,,,0,,,71,0
76800,note_on,5,0,1,,,,,,,,0,,,72,106
76800,note_on,515,0,5,,,,,,,,4,,,57,64
76800,note_on,515,0,6,,,,,,,,5,,,45,64
77025,note_on,225,0,1,,,,,,,,0,,,72,0
77040,note_on,14195,0,2,,,,,,,,1,,,69,64
77040,note_on,15,0,1,,,,,,,,0,,,69,106
77040,note_on,14195,0,3,,,,,,,,2,,,69,64
77245,note_on,445,0,5,,,,,,,,4,,,57,0
77245,note_on,445,0,6,,,,,,,,5,,,45,0
77265,note_on,225,0,2,,,,,,,,1,,,69,0
77265,note_on,225,0,1,,,,,,,,0,,,69,0
77265,note_on,225,0,3,,,,,,,,2,,,69,0
77280,note_on,15,0,1,,,,,,,,0,,,77,106
77280,note_on,15,0,2,,,,,,,,1,,,77,64
77280,note_on,15,0,3,,,,,,,,2,,,77,64
77520,note_on,275,0,6,,,,,,,,5,,,45,64
77520,note_on,14675,0,4,,,,,,,,3,,,72,85
77520,note_on,275,0,5,,,,,,,,4,,,57,64
77745,note_on,225,0,6,,,,,,,,5,,,45,0
77745,note_on,225,0,5,,,,,,,,4,,,57,0
77745,note_on,225,0,4,,,,,,,,3,,,72,0
77760,note_on,15,0,5,,,,,,,,4,,,56,64
77760,note_on,15,0,6,,,,,,,,5,,,44,64
77760,note_on,15,0,4,,,,,,,,3,,,71,85
77875,note_on,115,0,4,,,,,,,,3,,,71,0
77875,note_on,115,0,6,,,,,,,,5,,,44,0
77875,note_on,115,0,5,,,,,,,,4,,,56,0
77880,note_on,5,0,4,,,,,,,,3,,,72,85
77880,note_on,5,0,6,,,,,,,,5,,,45,64
77880,note_on,5,0,5,,,,,,,,4,,,57,64
77985,note_on,705,0,2,,,,,,,,1,,,77,0
77985,note_on,705,0,3,,,,,,,,2,,,77,0
77985,note_on,705,0,1,,,,,,,,0,,,77,0
77995,note_on,115,0,6,,,,,,,,5,,,45,0
77995,note_on,115,0,5,,,,,,,,4,,,57,0
77995,note_on,115,0,4,,,,,,,,3,,,72,0
78000,note_on,15,0,1,,,,,,,,0,,,71,106
78000,note_on,5,0,5,,,,,,,,4,,,59,64
78000,note_on,5,0,4,,,,,,,,3,,,74,85
78000,note_on,5,0,6,,,,,,,,5,,,47,64
78000,note_on,15,0,2,,,,,,,,1,,,71,64
78000,note_on,15,0,3,,,,,,,,2,,,71,64
78115,note_on,115,0,4,,,,,,,,3,,,74,0
78115,note_on,115,0,6,,,,,,,,5,,,47,0
78115,note_on,115,0,5,,,,,,,,4,,,59,0
78120,note_on,5,0,6,,,,,,,,5,,,45,64
78120,note_on,5,0,5,,,,,,,,4,,,57,64
78120,note_on,5,0,4,,,,,,,,3,,,72,85
78225,note_on,225,0,3,,,,,,,,2,,,71,0
78225,note_on,225,0,2,,,,,,,,1,,,71,0
78225,note_on,225,0,1,,,,,,,,0,,,71,0
78235,note_on,115,0,5,,,,,,,,4,,,57,0
78235,note_on,115,0,6,,,,,,,,5,,,45,0
78235,note_on,115,0,4,,,,,,,,3,,,72,0
78240,note_on,5,0,5,,,,,,,,4,,,55,64
78240,note_on,15,0,3,,,,,,,,2,,,76,64
78240,note_on,5,0,4,,,,,,,,3,,,71,85
78240,note_on,15,0,2,,,,,,,,1,,,76,64
78240,note_on,15,0,1,,,,,,,,0,,,76,106
78240,note_on,5,0,6,,,,,,,,5,,,43,64
78355,note_on,115,0,5,,,,,,,,4,,,55,0
78355,note_on,115,0,6,,,,,,,,5,,,43,0
78355,note_on,115,0,4,,,,,,,,3,,,71,0
78360,note_on,5,0,5,,,,,,,,4,,,57,64
78360,note_on,5,0,6,,,,,,,,5,,,45,64
78360,note_on,5,0,4,,,,,,,,3,,,72,85
78475,note_on,115,0,4,,,,,,,,3,,,72,0
78475,note_on,115,0,5,,,,,,,,4,,,57,0
78475,note_on,115,0,6,,,,,,,,5,,,45,0
78480,note_on,5,0,4,,,,,,,,3,,,74,85
78480,note_on,5,0,6,,,,,,,,5,,,47,64
78480,note_on,5,0,5,,,,,,,,4,,,59,64
78595,note_on,115,0,4,,,,,,,,3,,,74,0
78595,note_on,115,0,6,,,,,,,,5,,,47,0
78595,note_on,115,0,5,,,,,,,,4,,,59,0
78600,note_on,5,0,5,,,,,,,,4,,,55,64
78600,note_on,5,0,4,,,,,,,,3,,,71,85
78600,note_on,5,0,6,,,,,,,,5,,,43,64
78685,note_on,445,0,2,,,,,,,,1,,,76,0
78685,note_on,445,0,3,,,,,,,,2,,,76,0
78715,note_on,115,0,4,,,,,,,,3,,,71,0
78715,note_on,115,0,5,,,,,,,,4,,,55,0
78715,note_on,115,0,6,,,,,,,,5,,,43,0
78720,note_on,5,0,6,,,,,,,,5,,,42,64
78720,note_on,5,0,5,,,,,,,,4,,,54,64
78720,note_on,35,0,3,,,,,,,,2,,,76,64
78720,note_on,5,0,4,,,,,,,,3,,,69,85
78720,note_on,35,0,2,,,,,,,,1,,,76,64
78835,note_on,115,0,6,,,,,,,,5,,,42,0
78835,note_on,115,0,5,,,,,,,,4,,,54,0
78835,note_on,115,0,4,,,,,,,,3,,,69,0
78840,note_on,5,0,6,,,,,,,,5,,,43,64
78840,note_on,5,0,4,,,,,,,,3,,,71,85
78840,note_on,5,0,5,,,,,,,,4,,,55,64
78945,note_on,705,0,1,,,,,,,,0,,,76,0
78945,note_on,225,0,2,,,,,,,,1,,,76,0
78945,note_on,225,0,3,,,,,,,,2,,,76,0
78955,note_on,115,0,5,,,,,,,,4,,,55,0
78955,note_on,115,0,4,,,,,,,,3,,,71,0
78955,note_on,115,0,6,,,,,,,,5,,,43,0
78960,note_on,5,0,5,,,,,,,,4,,,57,64
78960,note_on,5,0,4,,,,,,,,3,,,72,85
78960,note_on,5,0,6,,,,,,,,5,,,45,64
78960,note_on,15,0,1,,,,,,,,0,,,69,106
78960,note_on,15,0,2,,,,,,,,1,,,69,64
78960,note_on,15,0,3,,,,,,,,2,,,69,64
79075,note_on,115,0,6,,,,,,,,5,,,45,0
79075,note_on,115,0,4,,,,,,,,3,,,72,0
79075,note_on,115,0,5,,,,,,,,4,,,57,0
79080,note_on,5,0,4,,,,,,,,3,,,71,85
79080,note_on,5,0,6,,,,,,,,5,,,43,64
79080,note_on,5,0,5,,,,,,,,4,,,55,64
79185,note_on,225,0,1,,,,,,,,0,,,69,0
79185,note_on,225,0,3,,,,,,,,2,,,69,0
79185,note_on,225,0,2,,,,,,,,1,,,69,0
79195,note_on,115,0,4,,,,,,,,3,,,71,0
79195,note_on,115,0,6,,,,,,,,5,,,43,0
79195,note_on,115,0,5,,,,,,,,4,,,55,0
79200,note_on,5,0,4,,,,,,,,3,,,69,85
79200,note_on,5,0,5,,,,,,,,4,,,53,64
79200,note_on,15,0,3,,,,,,,,2,,,74,64
79200,note_on,5,0,6,,,,,,,,5,,,41,64
79200,note_on,15,0,1,,,,,,,,0,,,74,106
79200,note_on,15,0,2,,,,,,,,1,,,74,64
79315,note_on,115,0,5,,,,,,,,4,,,53,0
79315,note_on,115,0,4,,,,,,,,3,,,69,0
79315,note_on,115,0,6,,,,,,,,5,,,41,0
79320,note_on,5,0,6,,,,,,,,5,,,43,64
79320,note_on,5,0,5,,,,,,,,4,,,55,64
79320,note_on,5,0,4,,,,,,,,3,,,71,85
79435,note_on,115,0,6,,,,,,,,5,,,43,0
79435,note_on,115,0,5,,,,,,,,4,,,55,0
79435,note_on,115,0,4,,,,,,,,3,,,71,0
79440,note_on,5,0,6,,,,,,,,5,,,45,64
79440,note_on,5,0,5,,,,,,,,4,,,57,64
79440,note_on,5,0,4,,,,,,,,3,,,72,85
79555,note_on,115,0,6,,,,,,,,5,,,45,0
79555,note_on,115,0,4,,,,,,,,3,,,72,0
79555,note_on,115,0,5,,,,,,,,4,,,57,0
79560,note_on,5,0,4,,,,,,,,3,,,69,85
79560,note_on,5,0,5,,,,,,,,4,,,53,64
79560,note_on,5,0,6,,,,,,,,5,,,41,64
79645,note_on,445,0,3,,,,,,,,2,,,74,0
79645,note_on,445,0,1,,,,,,,,0,,,74,0
79645,note_on,445,0,2,,,,,,,,1,,,74,0
79675,note_on,115,0,6,,,,,,,,5,,,41,0
79675,note_on,115,0,5,,,,,,,,4,,,53,0
79675,note_on,115,0,4,,,,,,,,3,,,69,0
79680,note_on,5,0,5,,,,,,,,4,,,52,64
79680,note_on,5,0,6,,,,,,,,5,,,40,64
79680,note_on,35,0,2,,,,,,,,1,,,74,64
79680,note_on,35,0,3,,,,,,,,2,,,70,64
79680,note_on,5,0,4,,,,,,,,3,,,68,64
79680,note_on,35,0,1,,,,,,,,0,,,80,106
79795,note_on,115,0,1,,,,,,,,0,,,80,0
79800,note_on,5,0,1,,,,,,,,0,,,74,106
79915,note_on,115,0,1,,,,,,,,0,,,74,0
79920,note_on,5,0,1,,,,,,,,0,,,64,106
80035,note_on,115,0,1,,,,,,,,0,,,64,0
80040,note_on,5,0,1,,,,,,,,0,,,74,106
80155,note_on,115,0,1,,,,,,,,0,,,74,0
80160,note_on,5,0,1,,,,,,,,0,,,80,106
80275,note_on,115,0,1,,,,,,,,0,,,80,0
80280,note_on,5,0,1,,,,,,,,0,,,74,106
80395,note_on,115,0,1,,,,,,,,0,,,74,0
80400,note_on,5,0,1,,,,,,,,0,,,64,106
80515,note_on,115,0,1,,,,,,,,0,,,64,0
80520,note_on,5,0,1,,,,,,,,0,,,74,106
80635,note_on,115,0,1,,,,,,,,0,,,74,0
80640,note_on,5,0,1,,,,,,,,0,,,83,106
80755,note_on,115,0,1,,,,,,,,0,,,83,0
80760,note_on,5,0,1,,,,,,,,0,,,74,106
80875,note_on,115,0,1,,,,,,,,0,,,74,0
80880,note_on,5,0,1,,,,,,,,0,,,64,106
80995,note_on,115,0,1,,,,,,,,0,,,64,0
81000,note_on,5,0,1,,,,,,,,0,,,74,106
81115,note_on,115,0,1,,,,,,,,0,,,74,0
81120,note_on,5,0,1,,,,,,,,0,,,83,106
81235,note_on,115,0,1,,,,,,,,0,,,83,0
81240,note_on,5,0,1,,,,,,,,0,,,74,106
81355,note_on,115,0,1,,,,,,,,0,,,74,0
81360,note_on,5,0,1,,,,,,,,0,,,64,106
81475,note_on,115,0,1,,,,,,,,0,,,64,0
81480,note_on,5,0,1,,,,,,,,0,,,74,106
81595,note_on,115,0,1,,,,,,,,0,,,74,0
81600,note_on,5,0,1,,,,,,,,0,,,80,106
81715,note_on,115,0,1,,,,,,,,0,,,80,0
81720,note_on,5,0,1,,,,,,,,0,,,74,106
81835,note_on,115,0,1,,,,,,,,0,,,74,0
81840,note_on,5,0,1,,,,,,,,0,,,64,106
81955,note_on,115,0,1,,,,,,,,0,,,64,0
81960,note_on,5,0,1,,,,,,,,0,,,74,106
82075,note_on,115,0,1,,,,,,,,0,,,74,0
82080,note_on,5,0,1,,,,,,,,0,,,80,106
82195,note_on,115,0,1,,,,,,,,0,,,80,0
82200,note_on,5,0,1,,,,,,,,0,,,74,106
82315,note_on,115,0,1,,,,,,,,0,,,74,0
82320,note_on,5,0,1,,,,,,,,0,,,64,106
82435,note_on,115,0,1,,,,,,,,0,,,64,0
82440,note_on,5,0,1,,,,,,,,0,,,74,106
82555,note_on,115,0,1,,,,,,,,0,,,74,0
82560,note_on,5,0,1,,,,,,,,0,,,83,106
82675,note_on,115,0,1,,,,,,,,0,,,83,0
82680,note_on,5,0,1,,,,,,,,0,,,74,106
82795,note_on,115,0,1,,,,,,,,0,,,74,0
82800,note_on,5,0,1,,,,,,,,0,,,64,106
82915,note_on,115,0,1,,,,,,,,0,,,64,0
82920,note_on,5,0,1,,,,,,,,0,,,74,106
83035,note_on,115,0,1,,,,,,,,0,,,74,0
83040,note_on,5,0,1,,,,,,,,0,,,83,106
83155,note_on,115,0,1,,,,,,,,0,,,83,0
83160,note_on,5,0,1,,,,,,,,0,,,74,106
83275,note_on,115,0,1,,,,,,,,0,,,74,0
83280,note_on,5,0,1,,,,,,,,0,,,64,106
83395,note_on,115,0,1,,,,,,,,0,,,64,0
83400,note_on,5,0,1,,,,,,,,0,,,74,106
83515,note_on,115,0,1,,,,,,,,0,,,74,0
83520,note_on,5,0,1,,,,,,,,0,,,76,106
83635,note_on,115,0,1,,,,,,,,0,,,76,0
83640,note_on,5,0,1,,,,,,,,0,,,74,106
83755,note_on,115,0,1,,,,,,,,0,,,74,0
83760,note_on,5,0,1,,,,,,,,0,,,64,106
83875,note_on,115,0,1,,,,,,,,0,,,64,0
83880,note_on,5,0,1,,,,,,,,0,,,74,106
83995,note_on,115,0,1,,,,,,,,0,,,74,0
84000,note_on,5,0,1,,,,,,,,0,,,76,106
84115,note_on,115,0,1,,,,,,,,0,,,76,0
84120,note_on,5,0,1,,,,,,,,0,,,74,106
84235,note_on,115,0,1,,,,,,,,0,,,74,0
84240,note_on,5,0,1,,,,,,,,0,,,64,106
84355,note_on,115,0,1,,,,,,,,0,,,64,0
84360,note_on,5,0,1,,,,,,,,0,,,74,106
84475,note_on,115,0,1,,,,,,,,0,,,74,0
84480,note_on,5,0,1,,,,,,,,0,,,76,106
84595,note_on,115,0,1,,,,,,,,0,,,76,0
84600,note_on,5,0,1,,,,,,,,0,,,74,106
84715,note_on,115,0,1,,,,,,,,0,,,74,0
84720,note_on,5,0,1,,,,,,,,0,,,68,106
84835,note_on,115,0,1,,,,,,,,0,,,68,0
84840,note_on,5,0,1,,,,,,,,0,,,74,106
84955,note_on,115,0,1,,,,,,,,0,,,74,0
84960,note_on,5,0,1,,,,,,,,0,,,76,106
85075,note_on,115,0,1,,,,,,,,0,,,76,0
85080,note_on,5,0,1,,,,,,,,0,,,74,106
85195,note_on,115,0,1,,,,,,,,0,,,74,0
85200,note_on,5,0,1,,,,,,,,0,,,68,106
85315,note_on,115,0,1,,,,,,,,0,,,68,0
85320,note_on,5,0,1,,,,,,,,0,,,74,106
85365,note_on,5685,0,3,,,,,,,,2,,,70,0
85365,note_on,5685,0,2,,,,,,,,1,,,74,0
85365,note_on,5685,0,4,,,,,,,,3,,,68,0
85365,note_on,5685,0,6,,,,,,,,5,,,40,0
85365,note_on,5685,0,5,,,,,,,,4,,,52,0
85435,note_on,115,0,1,,,,,,,,0,,,74,0
85440,note_on,75,0,2,,,,,,,,1,,,73,64
85440,note_on,75,0,4,,,,,,,,3,,,67,64
85440,note_on,75,0,6,,,,,,,,5,,,33,64
85440,note_on,75,0,5,,,,,,,,4,,,45,64
85440,note_on,5,0,1,,,,,,,,0,,,73,106
85440,note_on,75,0,3,,,,,,,,2,,,76,64
85555,note_on,115,0,1,,,,,,,,0,,,73,0
85560,note_on,5,0,1,,,,,,,,0,,,64,106
85675,note_on,115,0,1,,,,,,,,0,,,64,0
85680,note_on,5,0,1,,,,,,,,0,,,57,106
85795,note_on,115,0,1,,,,,,,,0,,,57,0
85800,note_on,5,0,1,,,,,,,,0,,,64,106
85915,note_on,115,0,1,,,,,,,,0,,,64,0
85920,note_on,5,0,1,,,,,,,,0,,,73,106
86035,note_on,115,0,1,,,,,,,,0,,,73,0
86040,note_on,5,0,1,,,,,,,,0,,,64,106
86155,note_on,115,0,1,,,,,,,,0,,,64,0
86160,note_on,5,0,1,,,,,,,,0,,,57,106
86275,note_on,115,0,1,,,,,,,,0,,,57,0
86280,note_on,5,0,1,,,,,,,,0,,,64,106
86395,note_on,115,0,1,,,,,,,,0,,,64,0
86400,note_on,5,0,1,,,,,,,,0,,,76,106
86515,note_on,115,0,1,,,,,,,,0,,,76,0
86520,note_on,5,0,1,,,,,,,,0,,,67,106
86635,note_on,115,0,1,,,,,,,,0,,,67,0
86640,note_on,5,0,1,,,,,,,,0,,,57,106
86755,note_on,115,0,1,,,,,,,,0,,,57,0
86760,note_on,5,0,1,,,,,,,,0,,,67,106
86875,note_on,115,0,1,,,,,,,,0,,,67,0
86880,note_on,5,0,1,,,,,,,,0,,,76,106
86995,note_on,115,0,1,,,,,,,,0,,,76,0
87000,note_on,5,0,1,,,,,,,,0,,,67,106
87115,note_on,115,0,1,,,,,,,,0,,,67,0
87120,note_on,5,0,1,,,,,,,,0,,,57,106
87235,note_on,115,0,1,,,,,,,,0,,,57,0
87240,note_on,5,0,1,,,,,,,,0,,,67,106
87355,note_on,115,0,1,,,,,,,,0,,,67,0
87360,note_on,5,0,1,,,,,,,,0,,,73,106
87475,note_on,115,0,1,,,,,,,,0,,,73,0
87480,note_on,5,0,1,,,,,,,,0,,,67,106
87595,note_on,115,0,1,,,,,,,,0,,,67,0
87600,note_on,5,0,1,,,,,,,,0,,,57,106
87715,note_on,115,0,1,,,,,,,,0,,,57,0
87720,note_on,5,0,1,,,,,,,,0,,,67,106
87835,note_on,115,0,1,,,,,,,,0,,,67,0
87840,note_on,5,0,1,,,,,,,,0,,,73,106
87955,note_on,115,0,1,,,,,,,,0,,,73,0
87960,note_on,5,0,1,,,,,,,,0,,,67,106
88075,note_on,115,0,1,,,,,,,,0,,,67,0
88080,note_on,5,0,1,,,,,,,,0,,,57,106
88170,note_on,2730,0,3,,,,,,,,2,,,76,0
88195,note_on,115,0,1,,,,,,,,0,,,57,0
88200,note_on,5,0,1,,,,,,,,0,,,67,106
88315,note_on,115,0,1,,,,,,,,0,,,67,0
88320,note_on,150,0,3,,,,,,,,2,,,76,64
88320,note_on,5,0,1,,,,,,,,0,,,76,106
88435,note_on,115,0,1,,,,,,,,0,,,76,0
88440,note_on,5,0,1,,,,,,,,0,,,67,106
88555,note_on,115,0,1,,,,,,,,0,,,67,0
88560,note_on,5,0,1,,,,,,,,0,,,57,106
88675,note_on,115,0,1,,,,,,,,0,,,57,0
88680,note_on,5,0,1,,,,,,,,0,,,67,106
88795,note_on,115,0,1,,,,,,,,0,,,67,0
88800,note_on,5,0,1,,,,,,,,0,,,76,106
88915,note_on,115,0,1,,,,,,,,0,,,76,0
88920,note_on,5,0,1,,,,,,,,0,,,67,106
89035,note_on,115,0,1,,,,,,,,0,,,67,0
89040,note_on,5,0,1,,,,,,,,0,,,57,106
89155,note_on,115,0,1,,,,,,,,0,,,57,0
89160,note_on,5,0,1,,,,,,,,0,,,67,106
89275,note_on,115,0,1,,,,,,,,0,,,67,0
89280,note_on,5,0,1,,,,,,,,0,,,69,106
89395,note_on,115,0,1,,,,,,,,0,,,69,0
89400,note_on,5,0,1,,,,,,,,0,,,67,106
89515,note_on,115,0,1,,,,,,,,0,,,67,0
89520,note_on,5,0,1,,,,,,,,0,,,57,106
89635,note_on,115,0,1,,,,,,,,0,,,57,0
89640,note_on,5,0,1,,,,,,,,0,,,67,106
89755,note_on,115,0,1,,,,,,,,0,,,67,0
89760,note_on,5,0,1,,,,,,,,0,,,69,106
89875,note_on,115,0,1,,,,,,,,0,,,69,0
89880,note_on,5,0,1,,,,,,,,0,,,67,106
89995,note_on,115,0,1,,,,,,,,0,,,67,0
90000,note_on,5,0,1,,,,,,,,0,,,57,106
90115,note_on,115,0,1,,,,,,,,0,,,57,0
90120,note_on,5,0,1,,,,,,,,0,,,67,106
90235,note_on,115,0,1,,,,,,,,0,,,67,0
90240,note_on,5,0,1,,,,,,,,0,,,69,106
90355,note_on,115,0,1,,,,,,,,0,,,69,0
90360,note_on,5,0,1,,,,,,,,0,,,67,106
90475,note_on,115,0,1,,,,,,,,0,,,67,0
90480,note_on,5,0,1,,,,,,,,0,,,61,106
90595,note_on,115,0,1,,,,,,,,0,,,61,0
90600,note_on,5,0,1,,,,,,,,0,,,67,106
90715,note_on,115,0,1,,,,,,,,0,,,67,0
90720,note_on,5,0,1,,,,,,,,0,,,69,106
90835,note_on,115,0,1,,,,,,,,0,,,69,0
90840,note_on,5,0,1,,,,,,,,0,,,67,106
90955,note_on,115,0,1,,,,,,,,0,,,67,0
90960,note_on,5,0,1,,,,,,,,0,,,61,106
91075,note_on,115,0,1,,,,,,,,0,,,61,0
91080,note_on,5,0,1,,,,,,,,0,,,67,106
91125,note_on,5685,0,6,,,,,,,,5,,,33,0
91125,note_on,2805,0,3,,,,,,,,2,,,76,0
91125,note_on,5685,0,2,,,,,,,,1,,,73,0
91125,note_on,5685,0,4,,,,,,,,3,,,67,0
91125,note_on,5685,0,5,,,,,,,,4,,,45,0
91195,note_on,115,0,1,,,,,,,,0,,,67,0
91200,note_on,75,0,5,,,,,,,,4,,,50,64
91200,note_on,75,0,4,,,,,,,,3,,,66,64
91200,note_on,75,0,2,,,,,,,,1,,,72,64
91200,note_on,75,0,6,,,,,,,,5,,,38,64
91200,note_on,75,0,3,,,,,,,,2,,,69,64
91200,note_on,5,0,1,,,,,,,,0,,,78,106
91315,note_on,115,0,1,,,,,,,,0,,,78,0
91320,note_on,5,0,1,,,,,,,,0,,,72,106
91435,note_on,115,0,1,,,,,,,,0,,,72,0
91440,note_on,5,0,1,,,,,,,,0,,,62,106
91555,note_on,115,0,1,,,,,,,,0,,,62,0
91560,note_on,5,0,1,,,,,,,,0,,,72,106
91675,note_on,115,0,1,,,,,,,,0,,,72,0
91680,note_on,5,0,1,,,,,,,,0,,,78,106
91795,note_on,115,0,1,,,,,,,,0,,,78,0
91800,note_on,5,0,1,,,,,,,,0,,,72,106
91915,note_on,115,0,1,,,,,,,,0,,,72,0
91920,note_on,5,0,1,,,,,,,,0,,,62,106
92035,note_on,115,0,1,,,,,,,,0,,,62,0
92040,note_on,5,0,1,,,,,,,,0,,,72,106
92155,note_on,115,0,1,,,,,,,,0,,,72,0
92160,note_on,5,0,1,,,,,,,,0,,,81,106
92275,note_on,115,0,1,,,,,,,,0,,,81,0
92280,note_on,5,0,1,,,,,,,,0,,,72,106
92395,note_on,115,0,1,,,,,,,,0,,,72,0
92400,note_on,5,0,1,,,,,,,,0,,,62,106
92515,note_on,115,0,1,,,,,,,,0,,,62,0
92520,note_on,5,0,1,,,,,,,,0,,,72,106
92635,note_on,115,0,1,,,,,,,,0,,,72,0
92640,note_on,5,0,1,,,,,,,,0,,,81,106
92755,note_on,115,0,1,,,,,,,,0,,,81,0
92760,note_on,5,0,1,,,,,,,,0,,,72,106
92875,note_on,115,0,1,,,,,,,,0,,,72,0
92880,note_on,5,0,1,,,,,,,,0,,,62,106
92995,note_on,115,0,1,,,,,,,,0,,,62,0
93000,note_on,5,0,1,,,,,,,,0,,,72,106
93115,note_on,115,0,1,,,,,,,,0,,,72,0
93120,note_on,5,0,1,,,,,,,,0,,,78,106
93235,note_on,115,0,1,,,,,,,,0,,,78,0
93240,note_on,5,0,1,,,,,,,,0,,,72,106
93355,note_on,115,0,1,,,,,,,,0,,,72,0
93360,note_on,5,0,1,,,,,,,,0,,,62,106
93475,note_on,115,0,1,,,,,,,,0,,,62,0
93480,note_on,5,0,1,,,,,,,,0,,,72,106
93595,note_on,115,0,1,,,,,,,,0,,,72,0
93600,note_on,5,0,1,,,,,,,,0,,,78,106
93715,note_on,115,0,1,,,,,,,,0,,,78,0
93720,note_on,5,0,1,,,,,,,,0,,,72,106
93835,note_on,115,0,1,,,,,,,,0,,,72,0
93840,note_on,5,0,1,,,,,,,,0,,,62,106
93930,note_on,2730,0,3,,,,,,,,2,,,69,0
93930,note_on,2730,0,6,,,,,,,,5,,,38,0
93930,note_on,2730,0,4,,,,,,,,3,,,66,0
93930,note_on,2730,0,2,,,,,,,,1,,,72,0
93930,note_on,2730,0,5,,,,,,,,4,,,50,0
93955,note_on,115,0,1,,,,,,,,0,,,62,0
93960,note_on,5,0,1,,,,,,,,0,,,72,106
94075,note_on,115,0,1,,,,,,,,0,,,72,0
94080,note_on,150,0,5,,,,,,,,4,,,54,64
94080,note_on,150,0,2,,,,,,,,1,,,72,64
94080,note_on,150,0,4,,,,,,,,3,,,66,64
94080,note_on,150,0,3,,,,,,,,2,,,69,64
94080,note_on,5,0,1,,,,,,,,0,,,81,106
94080,note_on,150,0,6,,,,,,,,5,,,42,64
94195,note_on,115,0,1,,,,,,,,0,,,81,0
94200,note_on,5,0,1,,,,,,,,0,,,72,106
94315,note_on,115,0,1,,,,,,,,0,,,72,0
94320,note_on,5,0,1,,,,,,,,0,,,62,106
94435,note_on,115,0,1,,,,,,,,0,,,62,0
94440,note_on,5,0,1,,,,,,,,0,,,72,106
94555,note_on,115,0,1,,,,,,,,0,,,72,0
94560,note_on,5,0,1,,,,,,,,0,,,81,106
94675,note_on,115,0,1,,,,,,,,0,,,81,0
94680,note_on,5,0,1,,,,,,,,0,,,72,106
94795,note_on,115,0,1,,,,,,,,0,,,72,0
94800,note_on,5,0,1,,,,,,,,0,,,62,106
94915,note_on,115,0,1,,,,,,,,0,,,62,0
94920,note_on,5,0,1,,,,,,,,0,,,72,106
95035,note_on,115,0,1,,,,,,,,0,,,72,0
95040,note_on,5,0,1,,,,,,,,0,,,81,106
95155,note_on,115,0,1,,,,,,,,0,,,81,0
95160,note_on,5,0,1,,,,,,,,0,,,72,106
95275,note_on,115,0,1,,,,,,,,0,,,72,0
95280,note_on,5,0,1,,,,,,,,0,,,66,106
95395,note_on,115,0,1,,,,,,,,0,,,66,0
95400,note_on,5,0,1,,,,,,,,0,,,72,106
95515,note_on,115,0,1,,,,,,,,0,,,72,0
95520,note_on,5,0,1,,,,,,,,0,,,81,106
95635,note_on,115,0,1,,,,,,,,0,,,81,0
95640,note_on,5,0,1,,,,,,,,0,,,72,106
95755,note_on,115,0,1,,,,,,,,0,,,72,0
95760,note_on,5,0,1,,,,,,,,0,,,66,106
95875,note_on,115,0,1,,,,,,,,0,,,66,0
95880,note_on,5,0,1,,,,,,,,0,,,72,106
95995,note_on,115,0,1,,,,,,,,0,,,72,0
96000,note_on,5,0,1,,,,,,,,0,,,81,106
96115,note_on,115,0,1,,,,,,,,0,,,81,0
96120,note_on,5,0,1,,,,,,,,0,,,72,106
96235,note_on,115,0,1,,,,,,,,0,,,72,0
96240,note_on,5,0,1,,,,,,,,0,,,66,106
96355,note_on,115,0,1,,,,,,,,0,,,66,0
96360,note_on,5,0,1,,,,,,,,0,,,72,106
96475,note_on,115,0,1,,,,,,,,0,,,72,0
96480,note_on,5,0,1,,,,,,,,0,,,81,106
96595,note_on,115,0,1,,,,,,,,0,,,81,0
96600,note_on,5,0,1,,,,,,,,0,,,72,106
96715,note_on,115,0,1,,,,,,,,0,,,72,0
96720,note_on,5,0,1,,,,,,,,0,,,66,106
96835,note_on,115,0,1,,,,,,,,0,,,66,0
96840,note_on,5,0,1,,,,,,,,0,,,72,106
96885,note_on,2805,0,3,,,,,,,,2,,,69,0
96885,note_on,2805,0,4,,,,,,,,3,,,66,0
96885,note_on,2805,0,2,,,,,,,,1,,,72,0
96885,note_on,2805,0,5,,,,,,,,4,,,54,0
96885,note_on,2805,0,6,,,,,,,,5,,,42,0
96955,note_on,115,0,1,,,,,,,,0,,,72,0
96960,note_on,75,0,3,,,,,,,,2,,,67,64
96960,note_on,75,0,2,,,,,,,,1,,,70,64
96960,note_on,75,0,6,,,,,,,,5,,,31,64
96960,note_on,75,0,5,,,,,,,,4,,,43,64
96960,note_on,75,0,4,,,,,,,,3,,,62,64
96960,note_on,5,0,1,,,,,,,,0,,,79,106
97075,note_on,115,0,1,,,,,,,,0,,,79,0
97080,note_on,5,0,1,,,,,,,,0,,,70,106
97195,note_on,115,0,1,,,,,,,,0,,,70,0
97200,note_on,5,0,1,,,,,,,,0,,,62,106
97315,note_on,115,0,1,,,,,,,,0,,,62,0
97320,note_on,5,0,1,,,,,,,,0,,,70,106
97435,note_on,115,0,1,,,,,,,,0,,,70,0
97440,note_on,5,0,1,,,,,,,,0,,,79,106
97555,note_on,115,0,1,,,,,,,,0,,,79,0
97560,note_on,5,0,1,,,,,,,,0,,,70,106
97675,note_on,115,0,1,,,,,,,,0,,,70,0
97680,note_on,5,0,1,,,,,,,,0,,,62,106
97795,note_on,115,0,1,,,,,,,,0,,,62,0
97800,note_on,5,0,1,,,,,,,,0,,,70,106
97915,note_on,115,0,1,,,,,,,,0,,,70,0
97920,note_on,5,0,1,,,,,,,,0,,,79,106
98035,note_on,115,0,1,,,,,,,,0,,,79,0
98040,note_on,5,0,1,,,,,,,,0,,,79,106
98100,note_on,0,0,1,,,,,,,,0,,,81,106
98100,note_on,60,0,1,,,,,,,,0,,,79,0
98160,note_on,60,0,1,,,,,,,,0,,,81,0
98160,note_on,0,0,1,,,,,,,,0,,,82,106
98275,note_on,115,0,1,,,,,,,,0,,,82,0
98280,note_on,5,0,1,,,,,,,,0,,,79,106
98395,note_on,115,0,1,,,,,,,,0,,,79,0
98400,note_on,5,0,1,,,,,,,,0,,,74,106
98515,note_on,115,0,1,,,,,,,,0,,,74,0
98520,note_on,5,0,1,,,,,,,,0,,,82,106
98580,note_on,60,0,1,,,,,,,,0,,,82,0
98580,note_on,0,0,1,,,,,,,,0,,,84,106
98640,note_on,0,0,1,,,,,,,,0,,,86,106
98640,note_on,60,0,1,,,,,,,,0,,,84,0
98755,note_on,115,0,1,,,,,,,,0,,,86,0
98760,note_on,5,0,1,,,,,,,,0,,,82,106
98875,note_on,115,0,1,,,,,,,,0,,,82,0
98880,note_on,5,0,1,,,,,,,,0,,,79,106
98995,note_on,115,0,1,,,,,,,,0,,,79,0
99000,note_on,5,0,1,,,,,,,,0,,,79,106
99060,note_on,0,0,1,,,,,,,,0,,,81,106
99060,note_on,60,0,1,,,,,,,,0,,,79,0
99120,note_on,60,0,1,,,,,,,,0,,,81,0
99120,note_on,0,0,1,,,,,,,,0,,,82,106
99235,note_on,115,0,1,,,,,,,,0,,,82,0
99240,note_on,5,0,1,,,,,,,,0,,,79,106
99355,note_on,115,0,1,,,,,,,,0,,,79,0
99360,note_on,5,0,1,,,,,,,,0,,,74,106
99475,note_on,115,0,1,,,,,,,,0,,,74,0
99480,note_on,5,0,1,,,,,,,,0,,,70,106
99540,note_on,0,0,1,,,,,,,,0,,,72,106
99540,note_on,60,0,1,,,,,,,,0,,,70,0
99600,note_on,0,0,1,,,,,,,,0,,,74,106
99600,note_on,60,0,1,,,,,,,,0,,,72,0
99715,note_on,115,0,1,,,,,,,,0,,,74,0
99720,note_on,5,0,1,,,,,,,,0,,,70,106
99835,note_on,115,0,1,,,,,,,,0,,,70,0
99840,note_on,5,0,1,,,,,,,,0,,,67,106
99955,note_on,115,0,1,,,,,,,,0,,,67,0
99960,note_on,5,0,1,,,,,,,,0,,,67,106
100020,note_on,0,0,1,,,,,,,,0,,,69,106
100020,note_on,60,0,1,,,,,,,,0,,,67,0
100080,note_on,0,0,1,,,,,,,,0,,,70,106
100080,note_on,60,0,1,,,,,,,,0,,,69,0
100195,note_on,115,0,1,,,,,,,,0,,,70,0
100200,note_on,5,0,1,,,,,,,,0,,,67,106
100315,note_on,115,0,1,,,,,,,,0,,,67,0
100320,note_on,5,0,1,,,,,,,,0,,,62,106
100435,note_on,115,0,1,,,,,,,,0,,,62,0
100440,note_on,5,0,1,,,,,,,,0,,,58,106
100500,note_on,0,0,1,,,,,,,,0,,,60,106
100500,note_on,60,0,1,,,,,,,,0,,,58,0
100560,note_on,60,0,1,,,,,,,,0,,,60,0
100560,note_on,0,0,1,,,,,,,,0,,,62,106
100675,note_on,115,0,1,,,,,,,,0,,,62,0
100680,note_on,5,0,1,,,,,,,,0,,,58,106
100795,note_on,115,0,1,,,,,,,,0,,,58,0
100800,note_on,5,0,1,,,,,,,,0,,,55,106
101025,note_on,225,0,1,,,,,,,,0,,,55,0
101025,note_on,4065,0,2,,,,,,,,1,,,70,0
101025,note_on,4065,0,3,,,,,,,,2,,,67,0
101040,note_on,15,0,1,,,,,,,,0,,,74,106
101040,note_on,15,0,3,,,,,,,,2,,,74,64
101040,note_on,15,0,2,,,,,,,,1,,,74,64
101245,note_on,4285,0,4,,,,,,,,3,,,62,0
101245,note_on,4285,0,6,,,,,,,,5,,,31,0
101245,note_on,4285,0,5,,,,,,,,4,,,43,0
101265,note_on,225,0,2,,,,,,,,1,,,74,0
101265,note_on,225,0,1,,,,,,,,0,,,74,0
101265,note_on,225,0,3,,,,,,,,2,,,74,0
101280,note_on,15,0,1,,,,,,,,0,,,79,106
101280,note_on,15,0,2,,,,,,,,1,,,79,64
101280,note_on,15,0,3,,,,,,,,2,,,79,64
101520,note_on,275,0,5,,,,,,,,4,,,55,64
101520,note_on,275,0,4,,,,,,,,3,,,59,64
101520,note_on,275,0,6,,,,,,,,5,,,43,64
101745,note_on,225,0,4,,,,,,,,3,,,59,0
101745,note_on,225,0,5,,,,,,,,4,,,55,0
101745,note_on,225,0,6,,,,,,,,5,,,43,0
101760,note_on,15,0,5,,,,,,,,4,,,56,64
101760,note_on,15,0,4,,,,,,,,3,,,60,64
101760,note_on,15,0,6,,,,,,,,5,,,44,64
101985,note_on,705,0,3,,,,,,,,2,,,79,0
101985,note_on,705,0,1,,,,,,,,0,,,79,0
101985,note_on,705,0,2,,,,,,,,1,,,79,0
102000,note_on,15,0,3,,,,,,,,2,,,77,64
102000,note_on,15,0,1,,,,,,,,0,,,77,106
102000,note_on,15,0,2,,,,,,,,1,,,77,64
102115,note_on,115,0,2,,,,,,,,1,,,77,0
102115,note_on,115,0,1,,,,,,,,0,,,77,0
102115,note_on,115,0,3,,,,,,,,2,,,77,0
102120,note_on,5,0,3,,,,,,,,2,,,75,64
102120,note_on,5,0,2,,,,,,,,1,,,75,64
102120,note_on,5,0,1,,,,,,,,0,,,75,106
102235,note_on,115,0,2,,,,,,,,1,,,75,0
102235,note_on,115,0,1,,,,,,,,0,,,75,0
102235,note_on,115,0,3,,,,,,,,2,,,75,0
102240,note_on,5,0,2,,,,,,,,1,,,74,64
102240,note_on,5,0,1,,,,,,,,0,,,74,106
102240,note_on,5,0,3,,,,,,,,2,,,74,64
102465,note_on,225,0,3,,,,,,,,2,,,74,0
102465,note_on,225,0,1,,,,,,,,0,,,74,0
102465,note_on,225,0,2,,,,,,,,1,,,74,0
102480,note_on,15,0,3,,,,,,,,2,,,72,64
102480,note_on,15,0,2,,,,,,,,1,,,72,64
102480,note_on,15,0,1,,,,,,,,0,,,72,106
102645,note_on,885,0,4,,,,,,,,3,,,60,0
102705,note_on,225,0,1,,,,,,,,0,,,72,0
102705,note_on,225,0,3,,,,,,,,2,,,72,0
102705,note_on,225,0,2,,,,,,,,1,,,72,0
102720,note_on,15,0,3,,,,,,,,2,,,71,64
102720,note_on,15,0,1,,,,,,,,0,,,71,106
102720,note_on,75,0,4,,,,,,,,3,,,62,64
102720,note_on,15,0,2,,,,,,,,1,,,71,64
102945,note_on,225,0,1,,,,,,,,0,,,71,0
102945,note_on,225,0,3,,,,,,,,2,,,71,0
102945,note_on,225,0,4,,,,,,,,3,,,62,0
102945,note_on,225,0,2,,,,,,,,1,,,71,0
102945,note_on,1185,0,5,,,,,,,,4,,,56,0
102945,note_on,1185,0,6,,,,,,,,5,,,44,0
102960,note_on,15,0,4,,,,,,,,3,,,68,64
102960,note_on,15,0,1,,,,,,,,0,,,72,106
102960,note_on,15,0,3,,,,,,,,2,,,72,64
102960,note_on,15,0,5,,,,,,,,4,,,55,64
102960,note_on,15,0,6,,,,,,,,5,,,43,64
102960,note_on,15,0,2,,,,,,,,1,,,72,64
103075,note_on,115,0,5,,,,,,,,4,,,55,0
103075,note_on,115,0,6,,,,,,,,5,,,43,0
103080,note_on,5,0,5,,,,,,,,4,,,53,64
103080,note_on,5,0,6,,,,,,,,5,,,41,64
103185,note_on,225,0,4,,,,,,,,3,,,68,0
103185,note_on,225,0,1,,,,,,,,0,,,72,0
103185,note_on,225,0,3,,,,,,,,2,,,72,0
103185,note_on,225,0,2,,,,,,,,1,,,72,0
103195,note_on,115,0,5,,,,,,,,4,,,53,0
103195,note_on,115,0,6,,,,,,,,5,,,41,0
103200,note_on,5,0,5,,,,,,,,4,,,51,64
103200,note_on,15,0,4,,,,,,,,3,,,67,64
103200,note_on,15,0,2,,,,,,,,1,,,74,64
103200,note_on,5,0,6,,,,,,,,5,,,39,64
103200,note_on,15,0,3,,,,,,,,2,,,74,64
103200,note_on,15,0,1,,,,,,,,0,,,74,106
103425,note_on,225,0,6,,,,,,,,5,,,39,0
103425,note_on,225,0,4,,,,,,,,3,,,67,0
103425,note_on,225,0,5,,,,,,,,4,,,51,0
103440,note_on,15,0,4,,,,,,,,3,,,65,64
103440,note_on,15,0,5,,,,,,,,4,,,50,64
103440,note_on,15,0,6,,,,,,,,5,,,38,64
103645,note_on,445,0,2,,,,,,,,1,,,74,0
103645,note_on,445,0,3,,,,,,,,2,,,74,0
103645,note_on,445,0,1,,,,,,,,0,,,74,0
103665,note_on,225,0,4,,,,,,,,3,,,65,0
103665,note_on,225,0,5,,,,,,,,4,,,50,0
103665,note_on,225,0,6,,,,,,,,5,,,38,0
103680,note_on,15,0,6,,,,,,,,5,,,39,64
103680,note_on,35,0,2,,,,,,,,1,,,74,64
103680,note_on,35,0,3,,,,,,,,2,,,74,64
103680,note_on,15,0,5,,,,,,,,4,,,51,64
103680,note_on,35,0,1,,,,,,,,0,,,74,106
103680,note_on,15,0,4,,,,,,,,3,,,67,64
103905,note_on,225,0,2,,,,,,,,1,,,74,0
103905,note_on,225,0,3,,,,,,,,2,,,74,0
103905,note_on,225,0,1,,,,,,,,0,,,74,0
103920,note_on,15,0,2,,,,,,,,1,,,67,64
103920,note_on,15,0,3,,,,,,,,2,,,67,64
103920,note_on,15,0,1,,,,,,,,0,,,67,106
104145,note_on,225,0,1,,,,,,,,0,,,67,0
104145,note_on,225,0,2,,,,,,,,1,,,67,0
104145,note_on,225,0,3,,,,,,,,2,,,67,0
104160,note_on,15,0,3,,,,,,,,2,,,72,64
104160,note_on,15,0,2,,,,,,,,1,,,72,64
104160,note_on,15,0,1,,,,,,,,0,,,72,106
104345,note_on,665,0,6,,,,,,,,5,,,39,0
104345,note_on,665,0,5,,,,,,,,4,,,51,0
104345,note_on,665,0,4,,,,,,,,3,,,67,0
104385,note_on,225,0,2,,,,,,,,1,,,72,0
104385,note_on,225,0,1,,,,,,,,0,,,72,0
104385,note_on,225,0,3,,,,,,,,2,,,72,0
104400,note_on,55,0,4,,,,,,,,3,,,65,64
104400,note_on,55,0,6,,,,,,,,5,,,38,64
104400,note_on,15,0,1,,,,,,,,0,,,74,106
104400,note_on,55,0,5,,,,,,,,4,,,50,64
104400,note_on,15,0,2,,,,,,,,1,,,74,64
104400,note_on,15,0,3,,,,,,,,2,,,74,64
104515,note_on,115,0,5,,,,,,,,4,,,50,0
104515,note_on,115,0,3,,,,,,,,2,,,74,0
104515,note_on,115,0,6,,,,,,,,5,,,38,0
104515,note_on,115,0,1,,,,,,,,0,,,74,0
104515,note_on,115,0,2,,,,,,,,1,,,74,0
104515,note_on,115,0,4,,,,,,,,3,,,65,0
104520,note_on,5,0,6,,,,,,,,5,,,36,64
104520,note_on,5,0,4,,,,,,,,3,,,63,64
104520,note_on,5,0,3,,,,,,,,2,,,75,64
104520,note_on,5,0,2,,,,,,,,1,,,75,64
104520,note_on,5,0,5,,,,,,,,4,,,48,64
104520,note_on,5,0,1,,,,,,,,0,,,75,106
104635,note_on,115,0,3,,,,,,,,2,,,75,0
104635,note_on,115,0,1,,,,,,,,0,,,75,0
104635,note_on,115,0,5,,,,,,,,4,,,48,0
104635,note_on,115,0,2,,,,,,,,1,,,75,0
104635,note_on,115,0,6,,,,,,,,5,,,36,0
104635,note_on,115,0,4,,,,,,,,3,,,63,0
104640,note_on,5,0,6,,,,,,,,5,,,35,64
104640,note_on,5,0,4,,,,,,,,3,,,62,64
104640,note_on,5,0,5,,,,,,,,4,,,47,64
104640,note_on,5,0,3,,,,,,,,2,,,77,64
104640,note_on,5,0,1,,,,,,,,0,,,77,106
104640,note_on,5,0,2,,,,,,,,1,,,77,64
104865,note_on,225,0,1,,,,,,,,0,,,77,0
104865,note_on,225,0,3,,,,,,,,2,,,77,0
104865,note_on,225,0,2,,,,,,,,1,,,77,0
104880,note_on,15,0,1,,,,,,,,0,,,74,106
104880,note_on,15,0,2,,,,,,,,1,,,74,64
104880,note_on,15,0,3,,,,,,,,2,,,74,64
105085,note_on,445,0,4,,,,,,,,3,,,62,0
105085,note_on,445,0,5,,,,,,,,4,,,47,0
105085,note_on,445,0,6,,,,,,,,5,,,35,0
105105,note_on,225,0,2,,,,,,,,1,,,74,0
105105,note_on,225,0,3,,,,,,,,2,,,74,0
105105,note_on,225,0,1,,,,,,,,0,,,74,0
105120,note_on,15,0,1,,,,,,,,0,,,79,106
105120,note_on,15,0,2,,,,,,,,1,,,79,64
105120,note_on,35,0,4,,,,,,,,3,,,59,64
105120,note_on,35,0,5,,,,,,,,4,,,43,64
105120,note_on,35,0,6,,,,,,,,5,,,31,64
105120,note_on,15,0,3,,,,,,,,2,,,79,64
105345,note_on,225,0,3,,,,,,,,2,,,79,0
105345,note_on,225,0,2,,,,,,,,1,,,79,0
105345,note_on,225,0,1,,,,,,,,0,,,79,0
105360,note_on,15,0,3,,,,,,,,2,,,77,64
105360,note_on,15,0,2,,,,,,,,1,,,77,64
105360,note_on,15,0,1,,,,,,,,0,,,77,106
105565,note_on,445,0,5,,,,,,,,4,,,43,0
105565,note_on,445,0,6,,,,,,,,5,,,31,0
105565,note_on,445,0,4,,,,,,,,3,,,59,0
105585,note_on,225,0,2,,,,,,,,1,,,77,0
105585,note_on,225,0,3,,,,,,,,2,,,77,0
105585,note_on,225,0,1,,,,,,,,0,,,77,0
105600,note_on,35,0,6,,,,,,,,5,,,36,64
105600,note_on,15,0,2,,,,,,,,1,,,75,64
105600,note_on,35,0,5,,,,,,,,4,,,48,64
105600,note_on,15,0,3,,,,,,,,2,,,75,64
105600,note_on,15,0,1,,,,,,,,0,,,75,106
105600,note_on,35,0,4,,,,,,,,3,,,55,64
105825,note_on,225,0,2,,,,,,,,1,,,75,0
105825,note_on,225,0,1,,,,,,,,0,,,75,0
105825,note_on,225,0,3,,,,,,,,2,,,75,0
105840,note_on,15,0,3,,,,,,,,2,,,72,64
105840,note_on,15,0,1,,,,,,,,0,,,72,106
105840,note_on,15,0,2,,,,,,,,1,,,72,64
106045,note_on,445,0,4,,,,,,,,3,,,55,0
106045,note_on,445,0,6,,,,,,,,5,,,36,0
106045,note_on,445,0,5,,,,,,,,4,,,48,0
106065,note_on,225,0,3,,,,,,,,2,,,72,0
106065,note_on,225,0,2,,,,,,,,1,,,72,0
106065,note_on,225,0,1,,,,,,,,0,,,72,0
106080,note_on,15,0,1,,,,,,,,0,,,84,106
106080,note_on,15,0,3,,,,,,,,2,,,84,64
106080,note_on,15,0,2,,,,,,,,1,,,84,64
106320,note_on,275,0,5,,,,,,,,4,,,60,64
106320,note_on,275,0,6,,,,,,,,5,,,48,64
106320,note_on,275,0,4,,,,,,,,3,,,69,64
106525,note_on,445,0,2,,,,,,,,1,,,84,0
106525,note_on,445,0,1,,,,,,,,0,,,84,0
106525,note_on,445,0,3,,,,,,,,2,,,84,0
106545,note_on,225,0,4,,,,,,,,3,,,69,0
106545,note_on,225,0,6,,,,,,,,5,,,48,0
106545,note_on,225,0,5,,,,,,,,4,,,60,0
106560,note_on,15,0,5,,,,,,,,4,,,65,64
106560,note_on,15,0,4,,,,,,,,3,,,74,64
106560,note_on,35,0,2,,,,,,,,1,,,84,64
106560,note_on,15,0,6,,,,,,,,5,,,53,64
106560,note_on,35,0,1,,,,,,,,0,,,84,106
106560,note_on,35,0,3,,,,,,,,2,,,84,64
106785,note_on,225,0,2,,,,,,,,1,,,84,0
106785,note_on,225,0,3,,,,,,,,2,,,84,0
106785,note_on,225,0,1,,,,,,,,0,,,84,0
106800,note_on,15,0,1,,,,,,,,0,,,82,106
106800,note_on,15,0,2,,,,,,,,1,,,82,64
106800,note_on,15,0,3,,,,,,,,2,,,82,64
106915,note_on,115,0,3,,,,,,,,2,,,82,0
106915,note_on,115,0,2,,,,,,,,1,,,82,0
106915,note_on,115,0,1,,,,,,,,0,,,82,0
106920,note_on,5,0,2,,,,,,,,1,,,81,64
106920,note_on,5,0,3,,,,,,,,2,,,81,64
106920,note_on,5,0,1,,,,,,,,0,,,81,106
107035,note_on,115,0,2,,,,,,,,1,,,81,0
107035,note_on,115,0,3,,,,,,,,2,,,81,0
107035,note_on,115,0,1,,,,,,,,0,,,81,0
107040,note_on,5,0,2,,,,,,,,1,,,79,64
107040,note_on,5,0,3,,,,,,,,2,,,79,64
107040,note_on,5,0,1,,,,,,,,0,,,79,106
107265,note_on,225,0,2,,,,,,,,1,,,79,0
107265,note_on,225,0,3,,,,,,,,2,,,79,0
107265,note_on,225,0,1,,,,,,,,0,,,79,0
107280,note_on,15,0,2,,,,,,,,1,,,77,64
107280,note_on,15,0,3,,,,,,,,2,,,77,64
107280,note_on,15,0,1,,,,,,,,0,,,77,106
107505,note_on,225,0,3,,,,,,,,2,,,77,0
107505,note_on,225,0,2,,,,,,,,1,,,77,0
107505,note_on,225,0,1,,,,,,,,0,,,77,0
107520,note_on,15,0,1,,,,,,,,0,,,82,106
107520,note_on,15,0,2,,,,,,,,1,,,82,64
107520,note_on,15,0,3,,,,,,,,2,,,82,64
107745,note_on,1185,0,5,,,,,,,,4,,,65,0
107745,note_on,1185,0,6,,,,,,,,5,,,53,0
107760,note_on,15,0,6,,,,,,,,5,,,51,64
107760,note_on,15,0,5,,,,,,,,4,,,63,64
107875,note_on,115,0,5,,,,,,,,4,,,63,0
107875,note_on,115,0,6,,,,,,,,5,,,51,0
107880,note_on,5,0,5,,,,,,,,4,,,62,64
107880,note_on,5,0,6,,,,,,,,5,,,50,64
107995,note_on,115,0,5,,,,,,,,4,,,62,0
107995,note_on,115,0,6,,,,,,,,5,,,50,0
108000,note_on,5,0,5,,,,,,,,4,,,60,64
108000,note_on,5,0,6,,,,,,,,5,,,48,64
108225,note_on,225,0,6,,,,,,,,5,,,48,0
108225,note_on,225,0,5,,,,,,,,4,,,60,0
108240,note_on,15,0,5,,,,,,,,4,,,58,64
108240,note_on,15,0,6,,,,,,,,5,,,46,64
108465,note_on,225,0,6,,,,,,,,5,,,46,0
108465,note_on,225,0,5,,,,,,,,4,,,58,0
108480,note_on,15,0,5,,,,,,,,4,,,63,64
108480,note_on,15,0,6,,,,,,,,5,,,51,64
108705,note_on,1185,0,3,,,,,,,,2,,,82,0
108705,note_on,1185,0,2,,,,,,,,1,,,82,0
108705,note_on,1185,0,1,,,,,,,,0,,,82,0
108720,note_on,15,0,3,,,,,,,,2,,,81,64
108720,note_on,15,0,2,,,,,,,,1,,,81,64
108720,note_on,15,0,1,,,,,,,,0,,,81,106
108835,note_on,115,0,2,,,,,,,,1,,,81,0
108835,note_on,115,0,3,,,,,,,,2,,,81,0
108835,note_on,115,0,1,,,,,,,,0,,,81,0
108840,note_on,5,0,1,,,,,,,,0,,,79,106
108840,note_on,5,0,2,,,,,,,,1,,,79,64
108840,note_on,5,0,3,,,,,,,,2,,,79,64
108955,note_on,115,0,3,,,,,,,,2,,,79,0
108955,note_on,115,0,2,,,,,,,,1,,,79,0
108955,note_on,115,0,1,,,,,,,,0,,,79,0
108960,note_on,5,0,1,,,,,,,,0,,,77,106
108960,note_on,5,0,2,,,,,,,,1,,,77,64
108960,note_on,5,0,3,,,,,,,,2,,,77,64
109185,note_on,225,0,1,,,,,,,,0,,,77,0
109185,note_on,225,0,3,,,,,,,,2,,,77,0
109185,note_on,225,0,2,,,,,,,,1,,,77,0
109200,note_on,15,0,3,,,,,,,,2,,,75,64
109200,note_on,15,0,2,,,,,,,,1,,,75,64
109200,note_on,15,0,1,,,,,,,,0,,,75,106
109290,note_on,2730,0,4,,,,,,,,3,,,74,0
109425,note_on,225,0,2,,,,,,,,1,,,75,0
109425,note_on,225,0,3,,,,,,,,2,,,75,0
109425,note_on,225,0,1,,,,,,,,0,,,75,0
109440,note_on,15,0,1,,,,,,,,0,,,81,106
109440,note_on,150,0,4,,,,,,,,3,,,72,64
109440,note_on,15,0,3,,,,,,,,2,,,81,64
109440,note_on,15,0,2,,,,,,,,1,,,81,64
109665,note_on,1185,0,5,,,,,,,,4,,,63,0
109665,note_on,1185,0,6,,,,,,,,5,,,51,0
109680,note_on,15,0,6,,,,,,,,5,,,50,64
109680,note_on,15,0,5,,,,,,,,4,,,62,64
109795,note_on,115,0,6,,,,,,,,5,,,50,0
109795,note_on,115,0,5,,,,,,,,4,,,62,0
109800,note_on,5,0,6,,,,,,,,5,,,48,64
109800,note_on,5,0,5,,,,,,,,4,,,60,64
109915,note_on,115,0,5,,,,,,,,4,,,60,0
109915,note_on,115,0,6,,,,,,,,5,,,48,0
109920,note_on,5,0,6,,,,,,,,5,,,46,64
109920,note_on,5,0,5,,,,,,,,4,,,58,64
110145,note_on,225,0,6,,,,,,,,5,,,46,0
110145,note_on,225,0,5,,,,,,,,4,,,58,0
110160,note_on,15,0,6,,,,,,,,5,,,45,64
110160,note_on,15,0,5,,,,,,,,4,,,57,64
110385,note_on,225,0,6,,,,,,,,5,,,45,0
110385,note_on,225,0,5,,,,,,,,4,,,57,0
110400,note_on,15,0,6,,,,,,,,5,,,50,64
110400,note_on,15,0,5,,,,,,,,4,,,62,64
110625,note_on,1185,0,3,,,,,,,,2,,,81,0
110625,note_on,1185,0,1,,,,,,,,0,,,81,0
110625,note_on,1185,0,2,,,,,,,,1,,,81,0
110640,note_on,15,0,3,,,,,,,,2,,,79,64
110640,note_on,15,0,1,,,,,,,,0,,,79,106
110640,note_on,15,0,2,,,,,,,,1,,,79,64
110755,note_on,115,0,3,,,,,,,,2,,,79,0
110755,note_on,115,0,1,,,,,,,,0,,,79,0
110755,note_on,115,0,2,,,,,,,,1,,,79,0
110760,note_on,5,0,3,,,,,,,,2,,,77,64
110760,note_on,5,0,1,,,,,,,,0,,,77,106
110760,note_on,5,0,2,,,,,,,,1,,,77,64
110875,note_on,115,0,3,,,,,,,,2,,,77,0
110875,note_on,115,0,1,,,,,,,,0,,,77,0
110875,note_on,115,0,2,,,,,,,,1,,,77,0
110880,note_on,5,0,1,,,,,,,,0,,,76,106
110880,note_on,5,0,3,,,,,,,,2,,,76,64
110880,note_on,5,0,2,,,,,,,,1,,,76,64
111105,note_on,225,0,2,,,,,,,,1,,,76,0
111105,note_on,225,0,3,,,,,,,,2,,,76,0
111105,note_on,225,0,1,,,,,,,,0,,,76,0
111120,note_on,15,0,1,,,,,,,,0,,,74,106
111120,note_on,15,0,2,,,,,,,,1,,,74,64
111120,note_on,15,0,3,,,,,,,,2,,,74,64
111210,note_on,1770,0,4,,,,,,,,3,,,72,0
111345,note_on,225,0,3,,,,,,,,2,,,74,0
111345,note_on,225,0,1,,,,,,,,0,,,74,0
111345,note_on,225,0,2,,,,,,,,1,,,74,0
111360,note_on,150,0,4,,,,,,,,3,,,70,64
111360,note_on,15,0,1,,,,,,,,0,,,79,106
111360,note_on,15,0,2,,,,,,,,1,,,79,64
111360,note_on,15,0,3,,,,,,,,2,,,79,64
111585,note_on,225,0,1,,,,,,,,0,,,79,0
111585,note_on,225,0,4,,,,,,,,3,,,70,0
111585,note_on,225,0,3,,,,,,,,2,,,79,0
111585,note_on,225,0,2,,,,,,,,1,,,79,0
111600,note_on,15,0,4,,,,,,,,3,,,72,64
111600,note_on,15,0,1,,,,,,,,0,,,81,106
111600,note_on,15,0,2,,,,,,,,1,,,81,64
111600,note_on,15,0,3,,,,,,,,2,,,81,64
111715,note_on,115,0,1,,,,,,,,0,,,81,0
111715,note_on,115,0,2,,,,,,,,1,,,81,0
111715,note_on,115,0,3,,,,,,,,2,,,81,0
111715,note_on,115,0,4,,,,,,,,3,,,72,0
111720,note_on,5,0,1,,,,,,,,0,,,82,106
111720,note_on,5,0,2,,,,,,,,1,,,82,64
111720,note_on,5,0,3,,,,,,,,2,,,82,64
111720,note_on,5,0,4,,,,,,,,3,,,74,64
111805,note_on,1405,0,6,,,,,,,,5,,,50,0
111805,note_on,1405,0,5,,,,,,,,4,,,62,0
111835,note_on,115,0,3,,,,,,,,2,,,82,0
111835,note_on,115,0,2,,,,,,,,1,,,82,0
111835,note_on,115,0,1,,,,,,,,0,,,82,0
111835,note_on,115,0,4,,,,,,,,3,,,74,0
111840,note_on,35,0,6,,,,,,,,5,,,49,64
111840,note_on,5,0,1,,,,,,,,0,,,81,106
111840,note_on,5,0,3,,,,,,,,2,,,81,64
111840,note_on,35,0,5,,,,,,,,4,,,61,64
111840,note_on,5,0,4,,,,,,,,3,,,64,64
111840,note_on,5,0,2,,,,,,,,1,,,81,64
112065,note_on,225,0,3,,,,,,,,2,,,81,0
112065,note_on,225,0,2,,,,,,,,1,,,81,0
112065,note_on,225,0,1,,,,,,,,0,,,81,0
112065,note_on,225,0,4,,,,,,,,3,,,64,0
112080,note_on,15,0,2,,,,,,,,1,,,79,64
112080,note_on,15,0,1,,,,,,,,0,,,79,106
112080,note_on,15,0,3,,,,,,,,2,,,79,64
112080,note_on,15,0,4,,,,,,,,3,,,69,64
112285,note_on,445,0,6,,,,,,,,5,,,49,0
112285,note_on,445,0,5,,,,,,,,4,,,61,0
112305,note_on,225,0,2,,,,,,,,1,,,79,0
112305,note_on,225,0,1,,,,,,,,0,,,79,0
112305,note_on,225,0,3,,,,,,,,2,,,79,0
112305,note_on,225,0,4,,,,,,,,3,,,69,0
112320,note_on,15,0,1,,,,,,,,0,,,77,106
112320,note_on,15,0,3,,,,,,,,2,,,77,64
112320,note_on,15,0,4,,,,,,,,3,,,69,64
112320,note_on,35,0,5,,,,,,,,4,,,62,64
112320,note_on,15,0,2,,,,,,,,1,,,77,64
112320,note_on,35,0,6,,,,,,,,5,,,50,64
112545,note_on,225,0,2,,,,,,,,1,,,77,0
112545,note_on,225,0,1,,,,,,,,0,,,77,0
112545,note_on,225,0,3,,,,,,,,2,,,77,0
112560,note_on,15,0,3,,,,,,,,2,,,74,64
112560,note_on,15,0,2,,,,,,,,1,,,74,64
112560,note_on,15,0,1,,,,,,,,0,,,74,106
112765,note_on,445,0,5,,,,,,,,4,,,62,0
112765,note_on,445,0,4,,,,,,,,3,,,69,0
112765,note_on,445,0,6,,,,,,,,5,,,50,0
112785,note_on,225,0,3,,,,,,,,2,,,74,0
112785,note_on,225,0,2,,,,,,,,1,,,74,0
112785,note_on,225,0,1,,,,,,,,0,,,74,0
112800,note_on,15,0,2,,,,,,,,1,,,77,64
112800,note_on,35,0,5,,,,,,,,4,,,62,64
112800,note_on,35,0,4,,,,,,,,3,,,69,64
112800,note_on,15,0,3,,,,,,,,2,,,77,64
112800,note_on,35,0,6,,,,,,,,5,,,50,64
112800,note_on,15,0,1,,,,,,,,0,,,77,106
113025,note_on,225,0,6,,,,,,,,5,,,50,0
113025,note_on,225,0,2,,,,,,,,1,,,77,0
113025,note_on,225,0,1,,,,,,,,0,,,77,0
113025,note_on,225,0,4,,,,,,,,3,,,69,0
113025,note_on,225,0,5,,,,,,,,4,,,62,0
113025,note_on,225,0,3,,,,,,,,2,,,77,0
113280,note_on,255,0,6,,,,,,,,5,,,43,64
113280,note_on,255,0,4,,,,,,,,3,,,70,64
113280,note_on,255,0,1,,,,,,,,0,,,75,106
113280,note_on,255,0,5,,,,,,,,4,,,55,64
113280,note_on,255,0,3,,,,,,,,2,,,75,64
113280,note_on,255,0,2,,,,,,,,1,,,75,64
113505,note_on,225,0,6,,,,,,,,5,,,43,0
113505,note_on,225,0,2,,,,,,,,1,,,75,0
113505,note_on,225,0,3,,,,,,,,2,,,75,0
113505,note_on,225,0,1,,,,,,,,0,,,75,0
113505,note_on,225,0,4,,,,,,,,3,,,70,0
113505,note_on,225,0,5,,,,,,,,4,,,55,0
113760,note_on,255,0,3,,,,,,,,2,,,74,64
113760,note_on,255,0,6,,,,,,,,5,,,44,64
113760,note_on,255,0,5,,,,,,,,4,,,56,64
113760,note_on,255,0,4,,,,,,,,3,,,71,64
113760,note_on,255,0,2,,,,,,,,1,,,74,64
113760,note_on,255,0,1,,,,,,,,0,,,74,106
113985,note_on,225,0,3,,,,,,,,2,,,74,0
113985,note_on,225,0,4,,,,,,,,3,,,71,0
113985,note_on,225,0,1,,,,,,,,0,,,74,0
113985,note_on,225,0,5,,,,,,,,4,,,56,0
113985,note_on,225,0,2,,,,,,,,1,,,74,0
113985,note_on,225,0,6,,,,,,,,5,,,44,0
114240,note_on,255,0,6,,,,,,,,5,,,45,64
114240,note_on,255,0,1,,,,,,,,0,,,73,106
114240,note_on,255,0,3,,,,,,,,2,,,73,64
114240,note_on,255,0,2,,,,,,,,1,,,73,64
114240,note_on,255,0,4,,,,,,,,3,,,64,64
114240,note_on,255,0,5,,,,,,,,4,,,57,64
114355,note_on,115,0,1,,,,,,,,0,,,73,0
114360,note_on,5,0,1,,,,,,,,0,,,81,106
114475,note_on,115,0,1,,,,,,,,0,,,81,0
114480,note_on,5,0,1,,,,,,,,0,,,69,106
114595,note_on,115,0,1,,,,,,,,0,,,69,0
114600,note_on,5,0,1,,,,,,,,0,,,79,106
114685,note_on,445,0,4,,,,,,,,3,,,64,0
114685,note_on,445,0,3,,,,,,,,2,,,73,0
114685,note_on,445,0,2,,,,,,,,1,,,73,0
114685,note_on,445,0,6,,,,,,,,5,,,45,0
114685,note_on,445,0,5,,,,,,,,4,,,57,0
114715,note_on,115,0,1,,,,,,,,0,,,79,0
114720,note_on,35,0,5,,,,,,,,4,,,50,64
114720,note_on,5,0,1,,,,,,,,0,,,77,106
114720,note_on,35,0,6,,,,,,,,5,,,38,64
114835,note_on,115,0,1,,,,,,,,0,,,77,0
114840,note_on,5,0,1,,,,,,,,0,,,74,106
114955,note_on,115,0,1,,,,,,,,0,,,74,0
114960,note_on,5,0,1,,,,,,,,0,,,62,106
115075,note_on,115,0,1,,,,,,,,0,,,62,0
115080,note_on,5,0,1,,,,,,,,0,,,74,106
115165,note_on,445,0,5,,,,,,,,4,,,50,0
115165,note_on,445,0,6,,,,,,,,5,,,38,0
115195,note_on,115,0,1,,,,,,,,0,,,74,0
115200,note_on,35,0,5,,,,,,,,4,,,55,64
115200,note_on,5,0,1,,,,,,,,0,,,70,106
115200,note_on,35,0,6,,,,,,,,5,,,43,64
115315,note_on,115,0,1,,,,,,,,0,,,70,0
115320,note_on,5,0,1,,,,,,,,0,,,79,106
115435,note_on,115,0,1,,,,,,,,0,,,79,0
115440,note_on,5,0,1,,,,,,,,0,,,74,106
115555,note_on,115,0,1,,,,,,,,0,,,74,0
115560,note_on,5,0,1,,,,,,,,0,,,79,106
115645,note_on,445,0,5,,,,,,,,4,,,55,0
115645,note_on,445,0,6,,,,,,,,5,,,43,0
115675,note_on,115,0,1,,,,,,,,0,,,79,0
115680,note_on,35,0,5,,,,,,,,4,,,48,64
115680,note_on,5,0,1,,,,,,,,0,,,76,106
115680,note_on,35,0,6,,,,,,,,5,,,36,64
115795,note_on,115,0,1,,,,,,,,0,,,76,0
115800,note_on,5,0,1,,,,,,,,0,,,72,106
115915,note_on,115,0,1,,,,,,,,0,,,72,0
115920,note_on,5,0,1,,,,,,,,0,,,60,106
116035,note_on,115,0,1,,,,,,,,0,,,60,0
116040,note_on,5,0,1,,,,,,,,0,,,72,106
116125,note_on,445,0,6,,,,,,,,5,,,36,0
116125,note_on,445,0,5,,,,,,,,4,,,48,0
116155,note_on,115,0,1,,,,,,,,0,,,72,0
116160,note_on,35,0,5,,,,,,,,4,,,53,64
116160,note_on,35,0,6,,,,,,,,5,,,41,64
116160,note_on,5,0,1,,,,,,,,0,,,69,106
116275,note_on,115,0,1,,,,,,,,0,,,69,0
116280,note_on,5,0,1,,,,,,,,0,,,77,106
116395,note_on,115,0,1,,,,,,,,0,,,77,0
116400,note_on,5,0,1,,,,,,,,0,,,72,106
116515,note_on,115,0,1,,,,,,,,0,,,72,0
116520,note_on,5,0,1,,,,,,,,0,,,77,106
116605,note_on,445,0,5,,,,,,,,4,,,53,0
116605,note_on,445,0,6,,,,,,,,5,,,41,0
116635,note_on,115,0,1,,,,,,,,0,,,77,0
116640,note_on,5,0,1,,,,,,,,0,,,74,106
116640,note_on,35,0,5,,,,,,,,4,,,58,64
116640,note_on,35,0,6,,,,,,,,5,,,46,64
116755,note_on,115,0,1,,,,,,,,0,,,74,0
116760,note_on,5,0,1,,,,,,,,0,,,70,106
116875,note_on,115,0,1,,,,,,,,0,,,70,0
116880,note_on,5,0,1,,,,,,,,0,,,58,106
116995,note_on,115,0,1,,,,,,,,0,,,58,0
117000,note_on,5,0,1,,,,,,,,0,,,70,106
117085,note_on,445,0,6,,,,,,,,5,,,46,0
117085,note_on,445,0,5,,,,,,,,4,,,58,0
117115,note_on,115,0,1,,,,,,,,0,,,70,0
117120,note_on,5,0,1,,,,,,,,0,,,67,106
117120,note_on,35,0,6,,,,,,,,5,,,40,64
117120,note_on,35,0,5,,,,,,,,4,,,52,64
117235,note_on,115,0,1,,,,,,,,0,,,67,0
117240,note_on,5,0,1,,,,,,,,0,,,76,106
117355,note_on,115,0,1,,,,,,,,0,,,76,0
117360,note_on,5,0,1,,,,,,,,0,,,71,106
117475,note_on,115,0,1,,,,,,,,0,,,71,0
117480,note_on,5,0,1,,,,,,,,0,,,76,106
117565,note_on,445,0,5,,,,,,,,4,,,52,0
117565,note_on,445,0,6,,,,,,,,5,,,40,0
117595,note_on,115,0,1,,,,,,,,0,,,76,0
117600,note_on,35,0,5,,,,,,,,4,,,57,64
117600,note_on,35,0,6,,,,,,,,5,,,45,64
117600,note_on,5,0,1,,,,,,,,0,,,73,106
117715,note_on,115,0,1,,,,,,,,0,,,73,0
117720,note_on,5,0,1,,,,,,,,0,,,69,106
117835,note_on,115,0,1,,,,,,,,0,,,69,0
117840,note_on,5,0,1,,,,,,,,0,,,57,106
117955,note_on,115,0,1,,,,,,,,0,,,57,0
117960,note_on,5,0,1,,,,,,,,0,,,69,106
118045,note_on,445,0,5,,,,,,,,4,,,57,0
118045,note_on,445,0,6,,,,,,,,5,,,45,0
118075,note_on,115,0,1,,,,,,,,0,,,69,0
118080,note_on,35,0,5,,,,,,,,4,,,50,64
118080,note_on,35,0,6,,,,,,,,5,,,38,64
118080,note_on,5,0,1,,,,,,,,0,,,65,106
118195,note_on,115,0,1,,,,,,,,0,,,65,0
118200,note_on,5,0,1,,,,,,,,0,,,74,106
118315,note_on,115,0,1,,,,,,,,0,,,74,0
118320,note_on,5,0,1,,,,,,,,0,,,69,106
118435,note_on,115,0,1,,,,,,,,0,,,69,0
118440,note_on,5,0,1,,,,,,,,0,,,74,106
118525,note_on,445,0,5,,,,,,,,4,,,50,0
118525,note_on,445,0,6,,,,,,,,5,,,38,0
118555,note_on,115,0,1,,,,,,,,0,,,74,0
118560,note_on,5,0,1,,,,,,,,0,,,65,106
118560,note_on,35,0,6,,,,,,,,5,,,38,64
118560,note_on,35,0,5,,,,,,,,4,,,50,64
118675,note_on,115,0,1,,,,,,,,0,,,65,0
118680,note_on,5,0,1,,,,,,,,0,,,74,106
118795,note_on,115,0,1,,,,,,,,0,,,74,0
118800,note_on,5,0,1,,,,,,,,0,,,69,106
118915,note_on,115,0,1,,,,,,,,0,,,69,0
118920,note_on,5,0,1,,,,,,,,0,,,74,106
119005,note_on,445,0,6,,,,,,,,5,,,38,0
119005,note_on,445,0,5,,,,,,,,4,,,50,0
119035,note_on,115,0,1,,,,,,,,0,,,74,0
119040,note_on,35,0,5,,,,,,,,4,,,55,64
119040,note_on,5,0,1,,,,,,,,0,,,55,106
119040,note_on,35,0,6,,,,,,,,5,,,43,64
119155,note_on,115,0,1,,,,,,,,0,,,55,0
119160,note_on,5,0,1,,,,,,,,0,,,74,106
119275,note_on,115,0,1,,,,,,,,0,,,74,0
119280,note_on,5,0,1,,,,,,,,0,,,69,106
119395,note_on,115,0,1,,,,,,,,0,,,69,0
119400,note_on,5,0,1,,,,,,,,0,,,74,106
119485,note_on,445,0,6,,,,,,,,5,,,43,0
119485,note_on,445,0,5,,,,,,,,4,,,55,0
119515,note_on,115,0,1,,,,,,,,0,,,74,0
119520,note_on,35,0,6,,,,,,,,5,,,45,64
119520,note_on,5,0,1,,,,,,,,0,,,55,106
119520,note_on,35,0,5,,,,,,,,4,,,57,64
119635,note_on,115,0,1,,,,,,,,0,,,55,0
119640,note_on,5,0,1,,,,,,,,0,,,74,106
119755,note_on,115,0,1,,,,,,,,0,,,74,0
119760,note_on,5,0,1,,,,,,,,0,,,69,106
119875,note_on,115,0,1,,,,,,,,0,,,69,0
119880,note_on,5,0,1,,,,,,,,0,,,74,106
119965,note_on,445,0,5,,,,,,,,4,,,57,0
119965,note_on,445,0,6,,,,,,,,5,,,45,0
119995,note_on,115,0,1,,,,,,,,0,,,74,0
120000,note_on,35,0,6,,,,,,,,5,,,46,64
120000,note_on,5,0,1,,,,,,,,0,,,58,106
120000,note_on,35,0,5,,,,,,,,4,,,58,64
120115,note_on,115,0,1,,,,,,,,0,,,58,0
120120,note_on,5,0,1,,,,,,,,0,,,74,106
120235,note_on,115,0,1,,,,,,,,0,,,74,0
120240,note_on,5,0,1,,,,,,,,0,,,69,106
120355,note_on,115,0,1,,,,,,,,0,,,69,0
120360,note_on,5,0,1,,,,,,,,0,,,74,106
120445,note_on,445,0,6,,,,,,,,5,,,46,0
120445,note_on,445,0,5,,,,,,,,4,,,58,0
120475,note_on,115,0,1,,,,,,,,0,,,74,0
120480,note_on,35,0,6,,,,,,,,5,,,38,64
120480,note_on,35,0,5,,,,,,,,4,,,50,64
120480,note_on,5,0,1,,,,,,,,0,,,65,106
120595,note_on,115,0,1,,,,,,,,0,,,65,0
120600,note_on,5,0,1,,,,,,,,0,,,74,106
120715,note_on,115,0,1,,,,,,,,0,,,74,0
120720,note_on,5,0,1,,,,,,,,0,,,69,106
120835,note_on,115,0,1,,,,,,,,0,,,69,0
120840,note_on,5,0,1,,,,,,,,0,,,74,106
120925,note_on,445,0,5,,,,,,,,4,,,50,0
120925,note_on,445,0,6,,,,,,,,5,,,38,0
120955,note_on,115,0,1,,,,,,,,0,,,74,0
120960,note_on,35,0,5,,,,,,,,4,,,55,64
120960,note_on,5,0,1,,,,,,,,0,,,55,106
120960,note_on,35,0,6,,,,,,,,5,,,43,64
121075,note_on,115,0,1,,,,,,,,0,,,55,0
121080,note_on,5,0,1,,,,,,,,0,,,74,106
121195,note_on,115,0,1,,,,,,,,0,,,74,0
121200,note_on,5,0,1,,,,,,,,0,,,69,106
121315,note_on,115,0,1,,,,,,,,0,,,69,0
121320,note_on,5,0,1,,,,,,,,0,,,74,106
121405,note_on,445,0,6,,,,,,,,5,,,43,0
121405,note_on,445,0,5,,,,,,,,4,,,55,0
121435,note_on,115,0,1,,,,,,,,0,,,74,0
121440,note_on,35,0,6,,,,,,,,5,,,45,64
121440,note_on,35,0,5,,,,,,,,4,,,57,64
121440,note_on,5,0,1,,,,,,,,0,,,55,106
121555,note_on,115,0,1,,,,,,,,0,,,55,0
121560,note_on,5,0,1,,,,,,,,0,,,74,106
121675,note_on,115,0,1,,,,,,,,0,,,74,0
121680,note_on,5,0,1,,,,,,,,0,,,69,106
121795,note_on,115,0,1,,,,,,,,0,,,69,0
121800,note_on,5,0,1,,,,,,,,0,,,74,106
121885,note_on,445,0,5,,,,,,,,4,,,57,0
121885,note_on,445,0,6,,,,,,,,5,,,45,0
121915,note_on,115,0,1,,,,,,,,0,,,74,0
121920,note_on,5,0,1,,,,,,,,0,,,58,106
121920,note_on,35,0,6,,,,,,,,5,,,46,64
121920,note_on,35,0,5,,,,,,,,4,,,58,64
122035,note_on,115,0,1,,,,,,,,0,,,58,0
122040,note_on,5,0,1,,,,,,,,0,,,74,106
122155,note_on,115,0,1,,,,,,,,0,,,74,0
122160,note_on,5,0,1,,,,,,,,0,,,69,106
122275,note_on,115,0,1,,,,,,,,0,,,69,0
122280,note_on,5,0,1,,,,,,,,0,,,74,106
122365,note_on,445,0,5,,,,,,,,4,,,58,0
122365,note_on,445,0,6,,,,,,,,5,,,46,0
122395,note_on,115,0,1,,,,,,,,0,,,74,0
122400,note_on,5,0,1,,,,,,,,0,,,65,106
122400,note_on,35,0,5,,,,,,,,4,,,50,64
122400,note_on,35,0,6,,,,,,,,5,,,38,64
122515,note_on,115,0,1,,,,,,,,0,,,65,0
122520,note_on,5,0,1,,,,,,,,0,,,77,106
122635,note_on,115,0,1,,,,,,,,0,,,77,0
122640,note_on,5,0,1,,,,,,,,0,,,76,106
122755,note_on,115,0,1,,,,,,,,0,,,76,0
122760,note_on,5,0,1,,,,,,,,0,,,74,106
122845,note_on,445,0,6,,,,,,,,5,,,38,0
122845,note_on,445,0,5,,,,,,,,4,,,50,0
122875,note_on,115,0,1,,,,,,,,0,,,74,0
122880,note_on,35,0,6,,,,,,,,5,,,45,64
122880,note_on,35,0,5,,,,,,,,4,,,57,64
122880,note_on,5,0,1,,,,,,,,0,,,73,106
122995,note_on,115,0,1,,,,,,,,0,,,73,0
123000,note_on,5,0,1,,,,,,,,0,,,81,106
123115,note_on,115,0,1,,,,,,,,0,,,81,0
123120,note_on,5,0,1,,,,,,,,0,,,76,106
123235,note_on,115,0,1,,,,,,,,0,,,76,0
123240,note_on,5,0,1,,,,,,,,0,,,81,106
123325,note_on,445,0,6,,,,,,,,5,,,45,0
123325,note_on,445,0,5,,,,,,,,4,,,57,0
123355,note_on,115,0,1,,,,,,,,0,,,81,0
123360,note_on,35,0,5,,,,,,,,4,,,57,64
123360,note_on,35,0,6,,,,,,,,5,,,45,64
123360,note_on,5,0,1,,,,,,,,0,,,69,106
123475,note_on,115,0,1,,,,,,,,0,,,69,0
123480,note_on,5,0,1,,,,,,,,0,,,81,106
123595,note_on,115,0,1,,,,,,,,0,,,81,0
123600,note_on,5,0,1,,,,,,,,0,,,76,106
123715,note_on,115,0,1,,,,,,,,0,,,76,0
123720,note_on,5,0,1,,,,,,,,0,,,81,106
123805,note_on,445,0,6,,,,,,,,5,,,45,0
123805,note_on,445,0,5,,,,,,,,4,,,57,0
123835,note_on,115,0,1,,,,,,,,0,,,81,0
123840,note_on,35,0,6,,,,,,,,5,,,47,64
123840,note_on,35,0,5,,,,,,,,4,,,59,64
123840,note_on,5,0,1,,,,,,,,0,,,71,106
123955,note_on,115,0,1,,,,,,,,0,,,71,0
123960,note_on,5,0,1,,,,,,,,0,,,81,106
124075,note_on,115,0,1,,,,,,,,0,,,81,0
124080,note_on,5,0,1,,,,,,,,0,,,76,106
124195,note_on,115,0,1,,,,,,,,0,,,76,0
124200,note_on,5,0,1,,,,,,,,0,,,81,106
124285,note_on,445,0,5,,,,,,,,4,,,59,0
124285,note_on,445,0,6,,,,,,,,5,,,47,0
124315,note_on,115,0,1,,,,,,,,0,,,81,0
124320,note_on,35,0,6,,,,,,,,5,,,49,64
124320,note_on,5,0,1,,,,,,,,0,,,73,106
124320,note_on,35,0,5,,,,,,,,4,,,61,64
124435,note_on,115,0,1,,,,,,,,0,,,73,0
124440,note_on,5,0,1,,,,,,,,0,,,81,106
124555,note_on,115,0,1,,,,,,,,0,,,81,0
124560,note_on,5,0,1,,,,,,,,0,,,76,106
124675,note_on,115,0,1,,,,,,,,0,,,76,0
124680,note_on,5,0,1,,,,,,,,0,,,81,106
124765,note_on,445,0,6,,,,,,,,5,,,49,0
124765,note_on,445,0,5,,,,,,,,4,,,61,0
124795,note_on,115,0,1,,,,,,,,0,,,81,0
124800,note_on,35,0,5,,,,,,,,4,,,62,64
124800,note_on,35,0,6,,,,,,,,5,,,50,64
124800,note_on,5,0,1,,,,,,,,0,,,74,106
124915,note_on,115,0,1,,,,,,,,0,,,74,0
124920,note_on,5,0,1,,,,,,,,0,,,81,106
125035,note_on,115,0,1,,,,,,,,0,,,81,0
125040,note_on,5,0,1,,,,,,,,0,,,76,106
125155,note_on,115,0,1,,,,,,,,0,,,76,0
125160,note_on,5,0,1,,,,,,,,0,,,81,106
125245,note_on,445,0,6,,,,,,,,5,,,50,0
125245,note_on,445,0,5,,,,,,,,4,,,62,0
125275,note_on,115,0,1,,,,,,,,0,,,81,0
125280,note_on,5,0,1,,,,,,,,0,,,69,106
125280,note_on,35,0,5,,,,,,,,4,,,57,64
125280,note_on,35,0,6,,,,,,,,5,,,45,64
125395,note_on,115,0,1,,,,,,,,0,,,69,0
125400,note_on,5,0,1,,,,,,,,0,,,81,106
125515,note_on,115,0,1,,,,,,,,0,,,81,0
125520,note_on,5,0,1,,,,,,,,0,,,76,106
125635,note_on,115,0,1,,,,,,,,0,,,76,0
125640,note_on,5,0,1,,,,,,,,0,,,81,106
125725,note_on,445,0,6,,,,,,,,5,,,45,0
125725,note_on,445,0,5,,,,,,,,4,,,57,0
125755,note_on,115,0,1,,,,,,,,0,,,81,0
125760,note_on,5,0,1,,,,,,,,0,,,71,106
125760,note_on,35,0,6,,,,,,,,5,,,47,64
125760,note_on,35,0,5,,,,,,,,4,,,59,64
125875,note_on,115,0,1,,,,,,,,0,,,71,0
125880,note_on,5,0,1,,,,,,,,0,,,81,106
125995,note_on,115,0,1,,,,,,,,0,,,81,0
126000,note_on,5,0,1,,,,,,,,0,,,76,106
126115,note_on,115,0,1,,,,,,,,0,,,76,0
126120,note_on,5,0,1,,,,,,,,0,,,81,106
126205,note_on,445,0,6,,,,,,,,5,,,47,0
126205,note_on,445,0,5,,,,,,,,4,,,59,0
126235,note_on,115,0,1,,,,,,,,0,,,81,0
126240,note_on,35,0,6,,,,,,,,5,,,49,64
126240,note_on,35,0,5,,,,,,,,4,,,61,64
126240,note_on,5,0,1,,,,,,,,0,,,73,106
126355,note_on,115,0,1,,,,,,,,0,,,73,0
126360,note_on,5,0,1,,,,,,,,0,,,81,106
126475,note_on,115,0,1,,,,,,,,0,,,81,0
126480,note_on,5,0,1,,,,,,,,0,,,76,106
126595,note_on,115,0,1,,,,,,,,0,,,76,0
126600,note_on,5,0,1,,,,,,,,0,,,81,106
126685,note_on,445,0,6,,,,,,,,5,,,49,0
126685,note_on,445,0,5,,,,,,,,4,,,61,0
126715,note_on,115,0,1,,,,,,,,0,,,81,0
126720,note_on,5,0,1,,,,,,,,0,,,74,106
126720,note_on,35,0,6,,,,,,,,5,,,50,64
126720,note_on,35,0,5,,,,,,,,4,,,62,64
126835,note_on,115,0,1,,,,,,,,0,,,74,0
126840,note_on,5,0,1,,,,,,,,0,,,74,106
126955,note_on,115,0,1,,,,,,,,0,,,74,0
126960,note_on,5,0,1,,,,,,,,0,,,69,106
127075,note_on,115,0,1,,,,,,,,0,,,69,0
127080,note_on,5,0,1,,,,,,,,0,,,74,106
127165,note_on,445,0,6,,,,,,,,5,,,50,0
127165,note_on,445,0,5,,,,,,,,4,,,62,0
127195,note_on,115,0,1,,,,,,,,0,,,74,0
127200,note_on,35,0,5,,,,,,,,4,,,53,64
127200,note_on,35,0,6,,,,,,,,5,,,41,64
127200,note_on,5,0,1,,,,,,,,0,,,65,106
127315,note_on,115,0,1,,,,,,,,0,,,65,0
127320,note_on,5,0,1,,,,,,,,0,,,74,106
127435,note_on,115,0,1,,,,,,,,0,,,74,0
127440,note_on,5,0,1,,,,,,,,0,,,69,106
127555,note_on,115,0,1,,,,,,,,0,,,69,0
127560,note_on,5,0,1,,,,,,,,0,,,74,106
127645,note_on,445,0,5,,,,,,,,4,,,53,0
127645,note_on,445,0,6,,,,,,,,5,,,41,0
127675,note_on,115,0,1,,,,,,,,0,,,74,0
127680,note_on,35,0,5,,,,,,,,4,,,55,64
127680,note_on,35,0,6,,,,,,,,5,,,43,64
127680,note_on,5,0,1,,,,,,,,0,,,67,106
127795,note_on,115,0,1,,,,,,,,0,,,67,0
127800,note_on,5,0,1,,,,,,,,0,,,74,106
127915,note_on,115,0,1,,,,,,,,0,,,74,0
127920,note_on,5,0,1,,,,,,,,0,,,69,106
128035,note_on,115,0,1,,,,,,,,0,,,69,0
128040,note_on,5,0,1,,,,,,,,0,,,74,106
128125,note_on,445,0,6,,,,,,,,5,,,43,0
128125,note_on,445,0,5,,,,,,,,4,,,55,0
128155,note_on,115,0,1,,,,,,,,0,,,74,0
128160,note_on,35,0,5,,,,,,,,4,,,53,64
128160,note_on,5,0,1,,,,,,,,0,,,65,106
128160,note_on,35,0,6,,,,,,,,5,,,41,64
128275,note_on,115,0,1,,,,,,,,0,,,65,0
128280,note_on,5,0,1,,,,,,,,0,,,74,106
128395,note_on,115,0,1,,,,,,,,0,,,74,0
128400,note_on,5,0,1,,,,,,,,0,,,69,106
128515,note_on,115,0,1,,,,,,,,0,,,69,0
128520,note_on,5,0,1,,,,,,,,0,,,74,106
128605,note_on,445,0,5,,,,,,,,4,,,53,0
128605,note_on,445,0,6,,,,,,,,5,,,41,0
128635,note_on,115,0,1,,,,,,,,0,,,74,0
128640,note_on,5,0,1,,,,,,,,0,,,67,106
128640,note_on,35,0,6,,,,,,,,5,,,43,64
128640,note_on,35,0,5,,,,,,,,4,,,55,64
128755,note_on,115,0,1,,,,,,,,0,,,67,0
128760,note_on,5,0,1,,,,,,,,0,,,74,106
128875,note_on,115,0,1,,,,,,,,0,,,74,0
128880,note_on,5,0,1,,,,,,,,0,,,69,106
128995,note_on,115,0,1,,,,,,,,0,,,69,0
129000,note_on,5,0,1,,,,,,,,0,,,74,106
129085,note_on,445,0,5,,,,,,,,4,,,55,0
129085,note_on,445,0,6,,,,,,,,5,,,43,0
129115,note_on,115,0,1,,,,,,,,0,,,74,0
129120,note_on,35,0,6,,,,,,,,5,,,38,64
129120,note_on,35,0,5,,,,,,,,4,,,50,64
129120,note_on,5,0,1,,,,,,,,0,,,65,106
129235,note_on,115,0,1,,,,,,,,0,,,65,0
129240,note_on,5,0,1,,,,,,,,0,,,74,106
129355,note_on,115,0,1,,,,,,,,0,,,74,0
129360,note_on,5,0,1,,,,,,,,0,,,69,106
129475,note_on,115,0,1,,,,,,,,0,,,69,0
129480,note_on,5,0,1,,,,,,,,0,,,74,106
129565,note_on,445,0,5,,,,,,,,4,,,50,0
129565,note_on,445,0,6,,,,,,,,5,,,38,0
129595,note_on,115,0,1,,,,,,,,0,,,74,0
129600,note_on,35,0,6,,,,,,,,5,,,45,64
129600,note_on,5,0,1,,,,,,,,0,,,64,106
129600,note_on,35,0,5,,,,,,,,4,,,57,64
129715,note_on,115,0,1,,,,,,,,0,,,64,0
129720,note_on,5,0,1,,,,,,,,0,,,74,106
129835,note_on,115,0,1,,,,,,,,0,,,74,0
129840,note_on,5,0,1,,,,,,,,0,,,69,106
129955,note_on,115,0,1,,,,,,,,0,,,69,0
129960,note_on,5,0,1,,,,,,,,0,,,74,106
130045,note_on,445,0,5,,,,,,,,4,,,57,0
130045,note_on,445,0,6,,,,,,,,5,,,45,0
130075,note_on,115,0,1,,,,,,,,0,,,74,0
130080,note_on,35,0,6,,,,,,,,5,,,33,64
130080,note_on,35,0,5,,,,,,,,4,,,45,64
130080,note_on,5,0,1,,,,,,,,0,,,64,106
130195,note_on,115,0,1,,,,,,,,0,,,64,0
130200,note_on,5,0,1,,,,,,,,0,,,73,106
130315,note_on,115,0,1,,,,,,,,0,,,73,0
130320,note_on,5,0,1,,,,,,,,0,,,69,106
130435,note_on,115,0,1,,,,,,,,0,,,69,0
130440,note_on,5,0,1,,,,,,,,0,,,73,106
130525,note_on,445,0,5,,,,,,,,4,,,45,0
130525,note_on,445,0,6,,,,,,,,5,,,33,0
130555,note_on,115,0,1,,,,,,,,0,,,73,0
130560,note_on,35,0,6,,,,,,,,5,,,38,85
130560,note_on,15875,0,3,,,,,,,,2,,,74,64
130560,note_on,35,0,5,,,,,,,,4,,,50,85
130560,note_on,5,0,1,,,,,,,,0,,,74,64
130560,note_on,15875,0,2,,,,,,,,1,,,74,64
130785,note_on,225,0,2,,,,,,,,1,,,74,0
130785,note_on,225,0,3,,,,,,,,2,,,74,0
130785,note_on,225,0,1,,,,,,,,0,,,74,0
130800,note_on,15,0,2,,,,,,,,1,,,74,64
130800,note_on,15,0,1,,,,,,,,0,,,74,64
130800,note_on,15,0,3,,,,,,,,2,,,74,64
131005,note_on,445,0,6,,,,,,,,5,,,38,0
131005,note_on,445,0,5,,,,,,,,4,,,50,0
131025,note_on,225,0,1,,,,,,,,0,,,74,0
131025,note_on,225,0,2,,,,,,,,1,,,74,0
131025,note_on,225,0,3,,,,,,,,2,,,74,0
131040,note_on,15,0,1,,,,,,,,0,,,81,64
131040,note_on,15,0,2,,,,,,,,1,,,81,64
131040,note_on,15,0,3,,,,,,,,2,,,81,64
131280,note_on,275,0,5,,,,,,,,4,,,50,85
131280,note_on,16595,0,4,,,,,,,,3,,,69,85
131280,note_on,275,0,6,,,,,,,,5,,,38,85
131505,note_on,225,0,5,,,,,,,,4,,,50,0
131505,note_on,225,0,4,,,,,,,,3,,,69,0
131505,note_on,225,0,6,,,,,,,,5,,,38,0
131520,note_on,15,0,5,,,,,,,,4,,,62,85
131520,note_on,15,0,4,,,,,,,,3,,,66,85
131520,note_on,15,0,6,,,,,,,,5,,,50,85
131705,note_on,665,0,2,,,,,,,,1,,,81,0
131705,note_on,665,0,1,,,,,,,,0,,,81,0
131705,note_on,665,0,3,,,,,,,,2,,,81,0
131760,note_on,55,0,2,,,,,,,,1,,,78,64
131760,note_on,55,0,1,,,,,,,,0,,,78,64
131760,note_on,55,0,3,,,,,,,,2,,,78,64
131965,note_on,445,0,5,,,,,,,,4,,,62,0
131965,note_on,445,0,4,,,,,,,,3,,,66,0
131965,note_on,445,0,6,,,,,,,,5,,,50,0
132000,note_on,35,0,6,,,,,,,,5,,,48,85
132000,note_on,35,0,4,,,,,,,,3,,,69,85
132000,note_on,35,0,5,,,,,,,,4,,,60,85
132205,note_on,445,0,2,,,,,,,,1,,,78,0
132205,note_on,445,0,3,,,,,,,,2,,,78,0
132205,note_on,445,0,1,,,,,,,,0,,,78,0
132240,note_on,35,0,1,,,,,,,,0,,,79,64
132240,note_on,35,0,3,,,,,,,,2,,,79,64
132240,note_on,35,0,2,,,,,,,,1,,,79,64
132445,note_on,445,0,5,,,,,,,,4,,,60,0
132445,note_on,445,0,6,,,,,,,,5,,,48,0
132445,note_on,445,0,4,,,,,,,,3,,,69,0
132465,note_on,225,0,3,,,,,,,,2,,,79,0
132465,note_on,225,0,1,,,,,,,,0,,,79,0
132465,note_on,225,0,2,,,,,,,,1,,,79,0
132480,note_on,15,0,1,,,,,,,,0,,,67,64
132480,note_on,35,0,4,,,,,,,,3,,,62,85
132480,note_on,35,0,5,,,,,,,,4,,,58,85
132480,note_on,35,0,6,,,,,,,,5,,,46,85
132480,note_on,15,0,2,,,,,,,,1,,,67,64
132480,note_on,15,0,3,,,,,,,,2,,,67,64
132705,note_on,225,0,1,,,,,,,,0,,,67,0
132705,note_on,225,0,4,,,,,,,,3,,,62,0
132705,note_on,225,0,2,,,,,,,,1,,,67,0
132705,note_on,225,0,3,,,,,,,,2,,,67,0
132720,note_on,15,0,2,,,,,,,,1,,,70,64
132720,note_on,15,0,1,,,,,,,,0,,,70,64
132720,note_on,15,0,3,,,,,,,,2,,,70,64
132720,note_on,15,0,4,,,,,,,,3,,,67,85
132925,note_on,445,0,5,,,,,,,,4,,,58,0
132925,note_on,445,0,6,,,,,,,,5,,,46,0
132945,note_on,225,0,2,,,,,,,,1,,,70,0
132945,note_on,225,0,4,,,,,,,,3,,,67,0
132945,note_on,225,0,3,,,,,,,,2,,,70,0
132945,note_on,225,0,1,,,,,,,,0,,,70,0
132960,note_on,15,0,4,,,,,,,,3,,,70,85
132960,note_on,15,0,2,,,,,,,,1,,,74,64
132960,note_on,15,0,1,,,,,,,,0,,,74,64
132960,note_on,15,0,3,,,,,,,,2,,,74,64
133185,note_on,225,0,4,,,,,,,,3,,,70,0
133185,note_on,225,0,2,,,,,,,,1,,,74,0
133185,note_on,225,0,3,,,,,,,,2,,,74,0
133185,note_on,225,0,1,,,,,,,,0,,,74,0
133200,note_on,15,0,3,,,,,,,,2,,,79,64
133200,note_on,275,0,6,,,,,,,,5,,,46,85
133200,note_on,15,0,4,,,,,,,,3,,,74,85
133200,note_on,275,0,5,,,,,,,,4,,,58,85
133200,note_on,15,0,1,,,,,,,,0,,,79,64
133200,note_on,15,0,2,,,,,,,,1,,,79,64
133425,note_on,225,0,4,,,,,,,,3,,,74,0
133425,note_on,225,0,5,,,,,,,,4,,,58,0
133425,note_on,225,0,6,,,,,,,,5,,,46,0
133440,note_on,15,0,5,,,,,,,,4,,,60,85
133440,note_on,15,0,6,,,,,,,,5,,,48,85
133440,note_on,15,0,4,,,,,,,,3,,,64,85
133645,note_on,445,0,2,,,,,,,,1,,,79,0
133645,note_on,445,0,1,,,,,,,,0,,,79,0
133645,note_on,445,0,3,,,,,,,,2,,,79,0
133680,note_on,35,0,2,,,,,,,,1,,,76,64
133680,note_on,35,0,1,,,,,,,,0,,,76,64
133680,note_on,35,0,3,,,,,,,,2,,,76,64
133885,note_on,445,0,6,,,,,,,,5,,,48,0
133885,note_on,445,0,5,,,,,,,,4,,,60,0
133885,note_on,445,0,4,,,,,,,,3,,,64,0
133920,note_on,35,0,6,,,,,,,,5,,,46,85
133920,note_on,35,0,5,,,,,,,,4,,,58,85
133920,note_on,35,0,4,,,,,,,,3,,,67,85
134125,note_on,445,0,3,,,,,,,,2,,,76,0
134125,note_on,445,0,1,,,,,,,,0,,,76,0
134125,note_on,445,0,2,,,,,,,,1,,,76,0
134160,note_on,35,0,1,,,,,,,,0,,,77,64
134160,note_on,35,0,3,,,,,,,,2,,,77,64
134160,note_on,35,0,2,,,,,,,,1,,,77,64
134365,note_on,445,0,6,,,,,,,,5,,,46,0
134365,note_on,445,0,5,,,,,,,,4,,,58,0
134365,note_on,445,0,4,,,,,,,,3,,,67,0
134385,note_on,225,0,1,,,,,,,,0,,,77,0
134385,note_on,225,0,3,,,,,,,,2,,,77,0
134385,note_on,225,0,2,,,,,,,,1,,,77,0
134400,note_on,35,0,4,,,,,,,,3,,,60,85
134400,note_on,15,0,1,,,,,,,,0,,,65,64
134400,note_on,35,0,6,,,,,,,,5,,,45,85
134400,note_on,35,0,5,,,,,,,,4,,,57,85
134400,note_on,15,0,3,,,,,,,,2,,,65,64
134400,note_on,15,0,2,,,,,,,,1,,,65,64
134625,note_on,225,0,4,,,,,,,,3,,,60,0
134625,note_on,225,0,2,,,,,,,,1,,,65,0
134625,note_on,225,0,1,,,,,,,,0,,,65,0
134625,note_on,225,0,3,,,,,,,,2,,,65,0
134640,note_on,15,0,2,,,,,,,,1,,,69,64
134640,note_on,15,0,1,,,,,,,,0,,,69,64
134640,note_on,15,0,3,,,,,,,,2,,,69,64
134640,note_on,15,0,4,,,,,,,,3,,,65,85
134845,note_on,445,0,5,,,,,,,,4,,,57,0
134845,note_on,445,0,6,,,,,,,,5,,,45,0
134865,note_on,225,0,1,,,,,,,,0,,,69,0
134865,note_on,225,0,4,,,,,,,,3,,,65,0
134865,note_on,225,0,3,,,,,,,,2,,,69,0
134865,note_on,225,0,2,,,,,,,,1,,,69,0
134880,note_on,15,0,2,,,,,,,,1,,,72,64
134880,note_on,15,0,4,,,,,,,,3,,,69,85
134880,note_on,15,0,1,,,,,,,,0,,,72,64
134880,note_on,15,0,3,,,,,,,,2,,,72,64
135105,note_on,225,0,4,,,,,,,,3,,,69,0
135105,note_on,225,0,2,,,,,,,,1,,,72,0
135105,note_on,225,0,3,,,,,,,,2,,,72,0
135105,note_on,225,0,1,,,,,,,,0,,,72,0
135120,note_on,275,0,5,,,,,,,,4,,,57,85
135120,note_on,15,0,1,,,,,,,,0,,,77,64
135120,note_on,15,0,2,,,,,,,,1,,,77,64
135120,note_on,15,0,4,,,,,,,,3,,,72,85
135120,note_on,275,0,6,,,,,,,,5,,,45,85
135120,note_on,15,0,3,,,,,,,,2,,,77,64
135345,note_on,225,0,4,,,,,,,,3,,,72,0
135345,note_on,225,0,6,,,,,,,,5,,,45,0
135345,note_on,225,0,5,,,,,,,,4,,,57,0
135360,note_on,15,0,4,,,,,,,,3,,,70,85
135360,note_on,15,0,5,,,,,,,,4,,,55,85
135360,note_on,15,0,6,,,,,,,,5,,,43,85
135565,note_on,445,0,2,,,,,,,,1,,,77,0
135565,note_on,445,0,1,,,,,,,,0,,,77,0
135565,note_on,445,0,3,,,,,,,,2,,,77,0
135600,note_on,35,0,2,,,,,,,,1,,,76,64
135600,note_on,35,0,1,,,,,,,,0,,,76,64
135600,note_on,35,0,3,,,,,,,,2,,,76,64
135805,note_on,445,0,5,,,,,,,,4,,,55,0
135805,note_on,445,0,4,,,,,,,,3,,,70,0
135805,note_on,445,0,6,,,,,,,,5,,,43,0
135840,note_on,35,0,4,,,,,,,,3,,,71,85
135840,note_on,35,0,5,,,,,,,,4,,,56,85
135840,note_on,35,0,6,,,,,,,,5,,,44,85
136045,note_on,445,0,2,,,,,,,,1,,,76,0
136045,note_on,445,0,3,,,,,,,,2,,,76,0
136045,note_on,445,0,1,,,,,,,,0,,,76,0
136080,note_on,35,0,3,,,,,,,,2,,,74,64
136080,note_on,35,0,2,,,,,,,,1,,,74,64
136080,note_on,35,0,1,,,,,,,,0,,,74,64
136285,note_on,445,0,6,,,,,,,,5,,,44,0
136285,note_on,445,0,4,,,,,,,,3,,,71,0
136285,note_on,445,0,5,,,,,,,,4,,,56,0
136305,note_on,225,0,3,,,,,,,,2,,,74,0
136305,note_on,225,0,2,,,,,,,,1,,,74,0
136305,note_on,225,0,1,,,,,,,,0,,,74,0
136320,note_on,15,0,3,,,,,,,,2,,,73,64
136320,note_on,35,0,4,,,,,,,,3,,,64,85
136320,note_on,15,0,1,,,,,,,,0,,,73,64
136320,note_on,15,0,2,,,,,,,,1,,,73,64
136320,note_on,35,0,5,,,,,,,,4,,,57,85
136320,note_on,35,0,6,,,,,,,,5,,,45,85
136545,note_on,225,0,2,,,,,,,,1,,,73,0
136545,note_on,225,0,3,,,,,,,,2,,,73,0
136545,note_on,225,0,1,,,,,,,,0,,,73,0
136560,note_on,15,0,1,,,,,,,,0,,,81,64
136560,note_on,15,0,2,,,,,,,,1,,,81,64
136560,note_on,15,0,3,,,,,,,,2,,,81,64
136765,note_on,445,0,5,,,,,,,,4,,,57,0
136765,note_on,445,0,4,,,,,,,,3,,,64,0
136765,note_on,445,0,6,,,,,,,,5,,,45,0
136800,note_on,35,0,5,,,,,,,,4,,,49,85
136800,note_on,35,0,4,,,,,,,,3,,,64,85
136800,note_on,35,0,6,,,,,,,,5,,,37,85
137005,note_on,445,0,3,,,,,,,,2,,,81,0
137005,note_on,445,0,1,,,,,,,,0,,,81,0
137005,note_on,445,0,2,,,,,,,,1,,,81,0
137040,note_on,35,0,2,,,,,,,,1,,,79,64
137040,note_on,35,0,1,,,,,,,,0,,,79,64
137040,note_on,35,0,3,,,,,,,,2,,,79,64
137245,note_on,445,0,4,,,,,,,,3,,,64,0
137245,note_on,445,0,5,,,,,,,,4,,,49,0
137245,note_on,445,0,6,,,,,,,,5,,,37,0
137265,note_on,225,0,3,,,,,,,,2,,,79,0
137265,note_on,225,0,2,,,,,,,,1,,,79,0
137265,note_on,225,0,1,,,,,,,,0,,,79,0
137280,note_on,15,0,2,,,,,,,,1,,,77,64
137280,note_on,35,0,5,,,,,,,,4,,,50,85
137280,note_on,15,0,3,,,,,,,,2,,,77,64
137280,note_on,15,0,1,,,,,,,,0,,,77,64
137280,note_on,35,0,4,,,,,,,,3,,,57,85
137280,note_on,35,0,6,,,,,,,,5,,,38,85
137505,note_on,225,0,1,,,,,,,,0,,,77,0
137505,note_on,225,0,2,,,,,,,,1,,,77,0
137505,note_on,225,0,4,,,,,,,,3,,,57,0
137505,note_on,225,0,3,,,,,,,,2,,,77,0
137520,note_on,15,0,3,,,,,,,,2,,,74,64
137520,note_on,15,0,4,,,,,,,,3,,,65,85
137520,note_on,15,0,1,,,,,,,,0,,,74,64
137520,note_on,15,0,2,,,,,,,,1,,,74,64
137725,note_on,445,0,6,,,,,,,,5,,,38,0
137725,note_on,445,0,5,,,,,,,,4,,,50,0
137745,note_on,225,0,1,,,,,,,,0,,,74,0
137745,note_on,225,0,2,,,,,,,,1,,,74,0
137745,note_on,225,0,4,,,,,,,,3,,,65,0
137745,note_on,225,0,3,,,,,,,,2,,,74,0
137760,note_on,35,0,5,,,,,,,,4,,,55,85
137760,note_on,15,0,1,,,,,,,,0,,,82,64
137760,note_on,15,0,4,,,,,,,,3,,,62,85
137760,note_on,15,0,3,,,,,,,,2,,,82,64
137760,note_on,35,0,6,,,,,,,,5,,,43,85
137760,note_on,15,0,2,,,,,,,,1,,,82,64
137875,note_on,115,0,5,,,,,,,,4,,,55,0
137875,note_on,115,0,6,,,,,,,,5,,,43,0
137880,note_on,5,0,5,,,,,,,,4,,,57,85
137880,note_on,5,0,6,,,,,,,,5,,,45,85
137985,note_on,225,0,4,,,,,,,,3,,,62,0
137995,note_on,115,0,5,,,,,,,,4,,,57,0
137995,note_on,115,0,6,,,,,,,,5,,,45,0
138000,note_on,15,0,4,,,,,,,,3,,,69,85
138000,note_on,5,0,5,,,,,,,,4,,,58,85
138000,note_on,5,0,6,,,,,,,,5,,,46,85
138115,note_on,115,0,5,,,,,,,,4,,,58,0
138115,note_on,115,0,6,,,,,,,,5,,,46,0
138120,note_on,5,0,5,,,,,,,,4,,,55,85
138120,note_on,5,0,6,,,,,,,,5,,,43,85
138225,note_on,225,0,4,,,,,,,,3,,,69,0
138235,note_on,115,0,5,,,,,,,,4,,,55,0
138235,note_on,115,0,6,,,,,,,,5,,,43,0
138240,note_on,5,0,5,,,,,,,,4,,,60,85
138240,note_on,5,0,6,,,,,,,,5,,,48,85
138240,note_on,15,0,4,,,,,,,,3,,,64,85
138355,note_on,115,0,6,,,,,,,,5,,,48,0
138355,note_on,115,0,5,,,,,,,,4,,,60,0
138355,note_on,115,0,4,,,,,,,,3,,,64,0
138360,note_on,5,0,5,,,,,,,,4,,,62,85
138360,note_on,5,0,6,,,,,,,,5,,,50,85
138360,note_on,5,0,4,,,,,,,,3,,,65,85
138465,note_on,705,0,3,,,,,,,,2,,,82,0
138465,note_on,705,0,2,,,,,,,,1,,,82,0
138465,note_on,705,0,1,,,,,,,,0,,,82,0
138475,note_on,115,0,6,,,,,,,,5,,,50,0
138475,note_on,115,0,5,,,,,,,,4,,,62,0
138475,note_on,115,0,4,,,,,,,,3,,,65,0
138480,note_on,15,0,2,,,,,,,,1,,,76,64
138480,note_on,5,0,4,,,,,,,,3,,,67,85
138480,note_on,15,0,3,,,,,,,,2,,,76,64
138480,note_on,5,0,5,,,,,,,,4,,,64,85
138480,note_on,5,0,6,,,,,,,,5,,,52,85
138480,note_on,15,0,1,,,,,,,,0,,,76,64
138595,note_on,115,0,5,,,,,,,,4,,,64,0
138595,note_on,115,0,4,,,,,,,,3,,,67,0
138595,note_on,115,0,6,,,,,,,,5,,,52,0
138600,note_on,5,0,6,,,,,,,,5,,,48,85
138600,note_on,5,0,5,,,,,,,,4,,,60,85
138600,note_on,5,0,4,,,,,,,,3,,,64,85
138705,note_on,225,0,3,,,,,,,,2,,,76,0
138705,note_on,225,0,2,,,,,,,,1,,,76,0
138705,note_on,225,0,1,,,,,,,,0,,,76,0
138715,note_on,115,0,5,,,,,,,,4,,,60,0
138715,note_on,115,0,4,,,,,,,,3,,,64,0
138715,note_on,115,0,6,,,,,,,,5,,,48,0
138720,note_on,5,0,5,,,,,,,,4,,,53,85
138720,note_on,15,0,1,,,,,,,,0,,,81,64
138720,note_on,5,0,4,,,,,,,,3,,,60,85
138720,note_on,15,0,2,,,,,,,,1,,,81,64
138720,note_on,15,0,3,,,,,,,,2,,,81,64
138720,note_on,5,0,6,,,,,,,,5,,,41,85
138835,note_on,115,0,6,,,,,,,,5,,,41,0
138835,note_on,115,0,5,,,,,,,,4,,,53,0
138840,note_on,5,0,5,,,,,,,,4,,,55,85
138840,note_on,5,0,6,,,,,,,,5,,,43,85
138945,note_on,225,0,4,,,,,,,,3,,,60,0
138955,note_on,115,0,6,,,,,,,,5,,,43,0
138955,note_on,115,0,5,,,,,,,,4,,,55,0
138960,note_on,5,0,5,,,,,,,,4,,,57,85
138960,note_on,5,0,6,,,,,,,,5,,,45,85
138960,note_on,15,0,4,,,,,,,,3,,,65,85
139075,note_on,115,0,6,,,,,,,,5,,,45,0
139075,note_on,115,0,5,,,,,,,,4,,,57,0
139080,note_on,5,0,5,,,,,,,,4,,,53,85
139080,note_on,5,0,6,,,,,,,,5,,,41,85
139185,note_on,225,0,4,,,,,,,,3,,,65,0
139195,note_on,115,0,5,,,,,,,,4,,,53,0
139195,note_on,115,0,6,,,,,,,,5,,,41,0
139200,note_on,5,0,5,,,,,,,,4,,,58,85
139200,note_on,15,0,4,,,,,,,,3,,,62,85
139200,note_on,5,0,6,,,,,,,,5,,,46,85
139315,note_on,115,0,5,,,,,,,,4,,,58,0
139315,note_on,115,0,6,,,,,,,,5,,,46,0
139315,note_on,115,0,4,,,,,,,,3,,,62,0
139320,note_on,5,0,6,,,,,,,,5,,,48,85
139320,note_on,5,0,5,,,,,,,,4,,,60,85
139320,note_on,5,0,4,,,,,,,,3,,,64,85
139385,note_on,665,0,2,,,,,,,,1,,,81,0
139385,note_on,665,0,3,,,,,,,,2,,,81,0
139385,note_on,665,0,1,,,,,,,,0,,,81,0
139435,note_on,115,0,6,,,,,,,,5,,,48,0
139435,note_on,115,0,5,,,,,,,,4,,,60,0
139435,note_on,115,0,4,,,,,,,,3,,,64,0
139440,note_on,55,0,2,,,,,,,,1,,,74,64
139440,note_on,5,0,6,,,,,,,,5,,,50,85
139440,note_on,5,0,4,,,,,,,,3,,,65,85
139440,note_on,55,0,3,,,,,,,,2,,,74,64
139440,note_on,5,0,5,,,,,,,,4,,,62,85
139440,note_on,55,0,1,,,,,,,,0,,,74,64
139555,note_on,115,0,5,,,,,,,,4,,,62,0
139555,note_on,115,0,4,,,,,,,,3,,,65,0
139555,note_on,115,0,6,,,,,,,,5,,,50,0
139560,note_on,5,0,4,,,,,,,,3,,,64,85
139560,note_on,5,0,6,,,,,,,,5,,,48,85
139560,note_on,5,0,5,,,,,,,,4,,,60,85
139665,note_on,225,0,3,,,,,,,,2,,,74,0
139665,note_on,225,0,2,,,,,,,,1,,,74,0
139665,note_on,225,0,1,,,,,,,,0,,,74,0
139675,note_on,115,0,6,,,,,,,,5,,,48,0
139675,note_on,115,0,5,,,,,,,,4,,,60,0
139675,note_on,115,0,4,,,,,,,,3,,,64,0
139680,note_on,5,0,6,,,,,,,,5,,,46,85
139680,note_on,5,0,4,,,,,,,,3,,,62,85
139680,note_on,15,0,3,,,,,,,,2,,,79,64
139680,note_on,5,0,5,,,,,,,,4,,,58,85
139680,note_on,15,0,2,,,,,,,,1,,,79,64
139680,note_on,15,0,1,,,,,,,,0,,,79,64
139795,note_on,115,0,5,,,,,,,,4,,,58,0
139795,note_on,115,0,4,,,,,,,,3,,,62,0
139795,note_on,115,0,6,,,,,,,,5,,,46,0
139800,note_on,5,0,4,,,,,,,,3,,,60,85
139800,note_on,5,0,5,,,,,,,,4,,,57,85
139800,note_on,5,0,6,,,,,,,,5,,,45,85
139915,note_on,115,0,6,,,,,,,,5,,,45,0
139915,note_on,115,0,4,,,,,,,,3,,,60,0
139915,note_on,115,0,5,,,,,,,,4,,,57,0
139920,note_on,5,0,5,,,,,,,,4,,,55,85
139920,note_on,5,0,6,,,,,,,,5,,,43,85
139920,note_on,5,0,4,,,,,,,,3,,,58,85
140035,note_on,115,0,5,,,,,,,,4,,,55,0
140035,note_on,115,0,6,,,,,,,,5,,,43,0
140035,note_on,115,0,4,,,,,,,,3,,,58,0
140040,note_on,5,0,6,,,,,,,,5,,,46,85
140040,note_on,5,0,5,,,,,,,,4,,,58,85
140040,note_on,5,0,4,,,,,,,,3,,,62,85
140155,note_on,115,0,5,,,,,,,,4,,,58,0
140155,note_on,115,0,6,,,,,,,,5,,,46,0
140155,note_on,115,0,4,,,,,,,,3,,,62,0
140160,note_on,5,0,6,,,,,,,,5,,,45,85
140160,note_on,5,0,4,,,,,,,,3,,,61,85
140160,note_on,5,0,5,,,,,,,,4,,,57,85
140275,note_on,115,0,4,,,,,,,,3,,,61,0
140275,note_on,115,0,6,,,,,,,,5,,,45,0
140275,note_on,115,0,5,,,,,,,,4,,,57,0
140280,note_on,5,0,5,,,,,,,,4,,,59,85
140280,note_on,5,0,4,,,,,,,,3,,,62,85
140280,note_on,5,0,6,,,,,,,,5,,,47,85
140385,note_on,705,0,2,,,,,,,,1,,,79,0
140385,note_on,705,0,3,,,,,,,,2,,,79,0
140385,note_on,705,0,1,,,,,,,,0,,,79,0
140395,note_on,115,0,6,,,,,,,,5,,,47,0
140395,note_on,115,0,4,,,,,,,,3,,,62,0
140395,note_on,115,0,5,,,,,,,,4,,,59,0
140400,note_on,5,0,6,,,,,,,,5,,,49,85
140400,note_on,5,0,4,,,,,,,,3,,,64,85
140400,note_on,15,0,1,,,,,,,,0,,,69,64
140400,note_on,15,0,3,,,,,,,,2,,,69,64
140400,note_on,15,0,2,,,,,,,,1,,,69,64
140400,note_on,5,0,5,,,,,,,,4,,,61,85
140515,note_on,115,0,6,,,,,,,,5,,,49,0
140515,note_on,115,0,5,,,,,,,,4,,,61,0
140515,note_on,115,0,4,,,,,,,,3,,,64,0
140520,note_on,5,0,6,,,,,,,,5,,,45,85
140520,note_on,5,0,4,,,,,,,,3,,,61,85
140520,note_on,5,0,5,,,,,,,,4,,,57,85
140625,note_on,225,0,2,,,,,,,,1,,,69,0
140625,note_on,225,0,3,,,,,,,,2,,,69,0
140625,note_on,225,0,1,,,,,,,,0,,,69,0
140635,note_on,115,0,4,,,,,,,,3,,,61,0
140635,note_on,115,0,5,,,,,,,,4,,,57,0
140635,note_on,115,0,6,,,,,,,,5,,,45,0
140640,note_on,5,0,4,,,,,,,,3,,,57,85
140640,note_on,5,0,5,,,,,,,,4,,,50,85
140640,note_on,5,0,6,,,,,,,,5,,,38,85
140640,note_on,15,0,1,,,,,,,,0,,,77,64
140640,note_on,15,0,3,,,,,,,,2,,,77,64
140640,note_on,15,0,2,,,,,,,,1,,,77,64
140755,note_on,115,0,6,,,,,,,,5,,,38,0
140755,note_on,115,0,5,,,,,,,,4,,,50,0
140760,note_on,5,0,6,,,,,,,,5,,,40,85
140760,note_on,5,0,5,,,,,,,,4,,,52,85
140865,note_on,225,0,4,,,,,,,,3,,,57,0
140875,note_on,115,0,6,,,,,,,,5,,,40,0
140875,note_on,115,0,5,,,,,,,,4,,,52,0
140880,note_on,5,0,6,,,,,,,,5,,,41,85
140880,note_on,5,0,5,,,,,,,,4,,,53,85
140880,note_on,15,0,4,,,,,,,,3,,,69,85
140995,note_on,115,0,5,,,,,,,,4,,,53,0
140995,note_on,115,0,6,,,,,,,,5,,,41,0
141000,note_on,5,0,5,,,,,,,,4,,,50,85
141000,note_on,5,0,6,,,,,,,,5,,,38,85
141105,note_on,225,0,4,,,,,,,,3,,,69,0
141115,note_on,115,0,6,,,,,,,,5,,,38,0
141115,note_on,115,0,5,,,,,,,,4,,,50,0
141120,note_on,5,0,6,,,,,,,,5,,,43,85
141120,note_on,15,0,4,,,,,,,,3,,,70,85
141120,note_on,5,0,5,,,,,,,,4,,,55,85
141235,note_on,115,0,6,,,,,,,,5,,,43,0
141235,note_on,115,0,5,,,,,,,,4,,,55,0
141240,note_on,5,0,5,,,,,,,,4,,,57,85
141240,note_on,5,0,6,,,,,,,,5,,,45,85
141305,note_on,665,0,3,,,,,,,,2,,,77,0
141305,note_on,665,0,2,,,,,,,,1,,,77,0
141305,note_on,665,0,1,,,,,,,,0,,,77,0
141355,note_on,115,0,5,,,,,,,,4,,,57,0
141355,note_on,115,0,6,,,,,,,,5,,,45,0
141360,note_on,55,0,2,,,,,,,,1,,,76,64
141360,note_on,55,0,1,,,,,,,,0,,,76,64
141360,note_on,5,0,5,,,,,,,,4,,,58,85
141360,note_on,5,0,6,,,,,,,,5,,,46,85
141360,note_on,55,0,3,,,,,,,,2,,,76,64
141475,note_on,115,0,3,,,,,,,,2,,,76,0
141475,note_on,115,0,5,,,,,,,,4,,,58,0
141475,note_on,115,0,2,,,,,,,,1,,,76,0
141475,note_on,115,0,6,,,,,,,,5,,,46,0
141475,note_on,115,0,1,,,,,,,,0,,,76,0
141480,note_on,5,0,1,,,,,,,,0,,,74,64
141480,note_on,5,0,2,,,,,,,,1,,,74,64
141480,note_on,5,0,5,,,,,,,,4,,,55,85
141480,note_on,5,0,3,,,,,,,,2,,,74,64
141480,note_on,5,0,6,,,,,,,,5,,,43,85
141565,note_on,445,0,4,,,,,,,,3,,,70,0
141595,note_on,115,0,1,,,,,,,,0,,,74,0
141595,note_on,115,0,2,,,,,,,,1,,,74,0
141595,note_on,115,0,5,,,,,,,,4,,,55,0
141595,note_on,115,0,3,,,,,,,,2,,,74,0
141595,note_on,115,0,6,,,,,,,,5,,,43,0
141600,note_on,5,0,2,,,,,,,,1,,,74,64
141600,note_on,35,0,4,,,,,,,,3,,,64,85
141600,note_on,5,0,6,,,,,,,,5,,,45,85
141600,note_on,5,0,5,,,,,,,,4,,,57,85
141600,note_on,5,0,3,,,,,,,,2,,,74,64
141600,note_on,5,0,1,,,,,,,,0,,,74,64
141660,note_on,60,0,2,,,,,,,,1,,,74,0
141660,note_on,0,0,3,,,,,,,,2,,,73,64
141660,note_on,60,0,3,,,,,,,,2,,,74,0
141660,note_on,0,0,2,,,,,,,,1,,,73,64
141660,note_on,60,0,1,,,,,,,,0,,,74,0
141660,note_on,0,0,1,,,,,,,,0,,,73,64
141720,note_on,60,0,3,,,,,,,,2,,,73,0
141720,note_on,60,0,2,,,,,,,,1,,,73,0
141720,note_on,0,0,2,,,,,,,,1,,,74,64
141720,note_on,0,0,3,,,,,,,,2,,,74,64
141720,note_on,0,0,1,,,,,,,,0,,,74,64
141720,note_on,60,0,1,,,,,,,,0,,,73,0
141780,note_on,0,0,1,,,,,,,,0,,,73,64
141780,note_on,60,0,1,,,,,,,,0,,,74,0
141780,note_on,0,0,2,,,,,,,,1,,,73,64
141780,note_on,60,0,3,,,,,,,,2,,,74,0
141780,note_on,0,0,3,,,,,,,,2,,,73,64
141780,note_on,60,0,2,,,,,,,,1,,,74,0
141825,note_on,225,0,5,,,,,,,,4,,,57,0
141825,note_on,225,0,6,,,,,,,,5,,,45,0
141840,note_on,15,0,5,,,,,,,,4,,,45,85
141840,note_on,15,0,6,,,,,,,,5,,,33,85
141955,note_on,175,0,1,,,,,,,,0,,,73,0
141955,note_on,175,0,3,,,,,,,,2,,,73,0
141955,note_on,175,0,2,,,,,,,,1,,,73,0
141960,note_on,5,0,2,,,,,,,,1,,,74,64
141960,note_on,5,0,3,,,,,,,,2,,,74,64
141960,note_on,5,0,1,,,,,,,,0,,,74,64
142045,note_on,445,0,4,,,,,,,,3,,,64,0
142065,note_on,225,0,6,,,,,,,,5,,,33,0
142065,note_on,225,0,5,,,,,,,,4,,,45,0
142075,note_on,115,0,1,,,,,,,,0,,,74,0
142075,note_on,115,0,3,,,,,,,,2,,,74,0
142075,note_on,115,0,2,,,,,,,,1,,,74,0
142080,note_on,5,0,1,,,,,,,,0,,,74,64
142080,note_on,15,0,6,,,,,,,,5,,,38,85
142080,note_on,15,0,5,,,,,,,,4,,,50,85
142080,note_on,5,0,2,,,,,,,,1,,,74,64
142080,note_on,5,0,3,,,,,,,,2,,,74,64
142080,note_on,35,0,4,,,,,,,,3,,,65,85
142305,note_on,225,0,2,,,,,,,,1,,,74,0
142305,note_on,225,0,1,,,,,,,,0,,,74,0
142305,note_on,225,0,3,,,,,,,,2,,,74,0
142320,note_on,15,0,2,,,,,,,,1,,,69,64
142320,note_on,15,0,3,,,,,,,,2,,,69,64
142320,note_on,15,0,1,,,,,,,,0,,,69,64
142525,note_on,445,0,5,,,,,,,,4,,,50,0
142525,note_on,445,0,4,,,,,,,,3,,,65,0
142525,note_on,445,0,6,,,,,,,,5,,,38,0
142545,note_on,225,0,3,,,,,,,,2,,,69,0
142545,note_on,225,0,1,,,,,,,,0,,,69,0
142545,note_on,225,0,2,,,,,,,,1,,,69,0
142560,note_on,15,0,1,,,,,,,,0,,,70,64
142560,note_on,15,0,3,,,,,,,,2,,,70,64
142560,note_on,15,0,2,,,,,,,,1,,,70,64
142800,note_on,275,0,5,,,,,,,,4,,,50,85
142800,note_on,275,0,6,,,,,,,,5,,,38,85
142800,note_on,275,0,4,,,,,,,,3,,,65,85
143025,note_on,225,0,5,,,,,,,,4,,,50,0
143025,note_on,225,0,4,,,,,,,,3,,,65,0
143025,note_on,225,0,6,,,,,,,,5,,,38,0
143040,note_on,15,0,5,,,,,,,,4,,,49,85
143040,note_on,15,0,4,,,,,,,,3,,,64,85
143040,note_on,15,0,6,,,,,,,,5,,,37,85
143225,note_on,665,0,1,,,,,,,,0,,,70,0
143225,note_on,665,0,2,,,,,,,,1,,,70,0
143225,note_on,665,0,3,,,,,,,,2,,,70,0
143280,note_on,55,0,2,,,,,,,,1,,,69,64
143280,note_on,55,0,1,,,,,,,,0,,,69,64
143280,note_on,55,0,3,,,,,,,,2,,,69,64
143505,note_on,225,0,1,,,,,,,,0,,,69,0
143505,note_on,225,0,2,,,,,,,,1,,,69,0
143505,note_on,225,0,3,,,,,,,,2,,,69,0
143520,note_on,15,0,2,,,,,,,,1,,,79,64
143520,note_on,15,0,3,,,,,,,,2,,,79,64
143520,note_on,15,0,1,,,,,,,,0,,,79,64
143705,note_on,665,0,4,,,,,,,,3,,,64,0
143705,note_on,665,0,5,,,,,,,,4,,,49,0
143705,note_on,665,0,6,,,,,,,,5,,,37,0
143760,note_on,55,0,5,,,,,,,,4,,,45,85
143760,note_on,55,0,6,,,,,,,,5,,,33,85
143760,note_on,55,0,4,,,,,,,,3,,,61,85
143985,note_on,225,0,5,,,,,,,,4,,,45,0
143985,note_on,225,0,4,,,,,,,,3,,,61,0
143985,note_on,225,0,6,,,,,,,,5,,,33,0
144000,note_on,15,0,4,,,,,,,,3,,,57,85
144000,note_on,15,0,5,,,,,,,,4,,,50,85
144000,note_on,15,0,6,,,,,,,,5,,,38,85
144225,note_on,705,0,1,,,,,,,,0,,,79,0
144225,note_on,705,0,3,,,,,,,,2,,,79,0
144225,note_on,705,0,2,,,,,,,,1,,,79,0
144240,note_on,15,0,2,,,,,,,,1,,,77,64
144240,note_on,15,0,3,,,,,,,,2,,,77,64
144240,note_on,15,0,1,,,,,,,,0,,,77,64
144445,note_on,445,0,4,,,,,,,,3,,,57,0
144465,note_on,225,0,3,,,,,,,,2,,,77,0
144465,note_on,225,0,1,,,,,,,,0,,,77,0
144465,note_on,225,0,2,,,,,,,,1,,,77,0
144480,note_on,15,0,3,,,,,,,,2,,,82,64
144480,note_on,15,0,2,,,,,,,,1,,,82,64
144480,note_on,15,0,1,,,,,,,,0,,,82,64
144480,note_on,35,0,4,,,,,,,,3,,,65,85
144665,note_on,665,0,5,,,,,,,,4,,,50,0
144665,note_on,665,0,6,,,,,,,,5,,,38,0
144705,note_on,225,0,4,,,,,,,,3,,,65,0
144720,note_on,55,0,6,,,,,,,,5,,,43,85
144720,note_on,55,0,5,,,,,,,,4,,,55,85
144720,note_on,15,0,4,,,,,,,,3,,,62,85
144945,note_on,225,0,5,,,,,,,,4,,,55,0
144945,note_on,225,0,6,,,,,,,,5,,,43,0
144945,note_on,225,0,4,,,,,,,,3,,,62,0
144960,note_on,15,0,5,,,,,,,,4,,,49,85
144960,note_on,15,0,6,,,,,,,,5,,,37,85
144960,note_on,15,0,4,,,,,,,,3,,,64,85
145145,note_on,665,0,3,,,,,,,,2,,,82,0
145145,note_on,665,0,2,,,,,,,,1,,,82,0
145145,note_on,665,0,1,,,,,,,,0,,,82,0
145200,note_on,55,0,2,,,,,,,,1,,,81,64
145200,note_on,55,0,1,,,,,,,,0,,,81,64
145200,note_on,55,0,3,,,,,,,,2,,,81,64
145315,note_on,115,0,1,,,,,,,,0,,,81,0
145315,note_on,115,0,2,,,,,,,,1,,,81,0
145315,note_on,115,0,3,,,,,,,,2,,,81,0
145320,note_on,5,0,1,,,,,,,,0,,,79,64
145320,note_on,5,0,3,,,,,,,,2,,,79,64
145320,note_on,5,0,2,,,,,,,,1,,,79,64
145405,note_on,445,0,5,,,,,,,,4,,,49,0
145405,note_on,445,0,4,,,,,,,,3,,,64,0
145405,note_on,445,0,6,,,,,,,,5,,,37,0
145435,note_on,115,0,2,,,,,,,,1,,,79,0
145435,note_on,115,0,3,,,,,,,,2,,,79,0
145435,note_on,115,0,1,,,,,,,,0,,,79,0
145440,note_on,35,0,4,,,,,,,,3,,,69,85
145440,note_on,35,0,6,,,,,,,,5,,,38,85
145440,note_on,35,0,5,,,,,,,,4,,,50,85
145440,note_on,5,0,2,,,,,,,,1,,,77,64
145440,note_on,5,0,1,,,,,,,,0,,,77,64
145440,note_on,5,0,3,,,,,,,,2,,,77,64
145665,note_on,225,0,2,,,,,,,,1,,,77,0
145665,note_on,225,0,1,,,,,,,,0,,,77,0
145665,note_on,225,0,5,,,,,,,,4,,,50,0
145665,note_on,225,0,6,,,,,,,,5,,,38,0
145665,note_on,225,0,3,,,,,,,,2,,,77,0
145680,note_on,15,0,2,,,,,,,,1,,,76,64
145680,note_on,15,0,6,,,,,,,,5,,,37,85
145680,note_on,15,0,3,,,,,,,,2,,,76,64
145680,note_on,15,0,1,,,,,,,,0,,,76,64
145680,note_on,15,0,5,,,,,,,,4,,,49,85
145905,note_on,225,0,1,,,,,,,,0,,,76,0
145905,note_on,225,0,6,,,,,,,,5,,,37,0
145905,note_on,225,0,2,,,,,,,,1,,,76,0
145905,note_on,225,0,3,,,,,,,,2,,,76,0
145905,note_on,225,0,5,,,,,,,,4,,,49,0
145920,note_on,15,0,1,,,,,,,,0,,,77,64
145920,note_on,15,0,5,,,,,,,,4,,,50,85
145920,note_on,15,0,3,,,,,,,,2,,,77,64
145920,note_on,15,0,2,,,,,,,,1,,,77,64
145920,note_on,15,0,6,,,,,,,,5,,,38,85
146145,note_on,705,0,4,,,,,,,,3,,,69,0
146145,note_on,225,0,1,,,,,,,,0,,,77,0
146145,note_on,225,0,6,,,,,,,,5,,,38,0
146145,note_on,225,0,5,,,,,,,,4,,,50,0
146145,note_on,225,0,2,,,,,,,,1,,,77,0
146145,note_on,225,0,3,,,,,,,,2,,,77,0
146160,note_on,15,0,1,,,,,,,,0,,,76,64
146160,note_on,15,0,5,,,,,,,,4,,,55,85
146160,note_on,15,0,3,,,,,,,,2,,,76,64
146160,note_on,15,0,2,,,,,,,,1,,,76,64
146160,note_on,15,0,6,,,,,,,,5,,,43,85
146160,note_on,15,0,4,,,,,,,,3,,,70,85
146275,note_on,115,0,2,,,,,,,,1,,,76,0
146275,note_on,115,0,3,,,,,,,,2,,,76,0
146275,note_on,115,0,1,,,,,,,,0,,,76,0
146280,note_on,5,0,2,,,,,,,,1,,,74,64
146280,note_on,5,0,3,,,,,,,,2,,,74,64
146280,note_on,5,0,1,,,,,,,,0,,,74,64
146385,note_on,225,0,4,,,,,,,,3,,,70,0
146385,note_on,225,0,6,,,,,,,,5,,,43,0
146385,note_on,225,0,5,,,,,,,,4,,,55,0
146395,note_on,115,0,1,,,,,,,,0,,,74,0
146395,note_on,115,0,2,,,,,,,,1,,,74,0
146395,note_on,115,0,3,,,,,,,,2,,,74,0
146400,note_on,15,0,5,,,,,,,,4,,,57,85
146400,note_on,5,0,1,,,,,,,,0,,,74,64
146400,set_tempo,146400,1,0,,,,,,666667,,,,,,
146400,note_on,5,0,2,,,,,,,,1,,,74,64
146400,note_on,15,0,6,,,,,,,,5,,,45,85
146400,note_on,5,0,3,,,,,,,,2,,,74,64
146400,note_on,15,0,4,,,,,,,,3,,,64,85
146460,note_on,0,0,3,,,,,,,,2,,,73,64
146460,note_on,60,0,1,,,,,,,,0,,,74,0
146460,note_on,0,0,1,,,,,,,,0,,,73,64
146460,note_on,60,0,3,,,,,,,,2,,,74,0
146460,note_on,60,0,2,,,,,,,,1,,,74,0
146460,note_on,0,0,2,,,,,,,,1,,,73,64
146520,note_on,0,0,3,,,,,,,,2,,,74,64
146520,note_on,60,0,3,,,,,,,,2,,,73,0
146520,note_on,0,0,1,,,,,,,,0,,,74,64
146520,note_on,60,0,1,,,,,,,,0,,,73,0
146520,note_on,60,0,2,,,,,,,,1,,,73,0
146520,note_on,0,0,2,,,,,,,,1,,,74,64
146580,note_on,60,0,1,,,,,,,,0,,,74,0
146580,note_on,60,0,3,,,,,,,,2,,,74,0
146580,note_on,0,0,3,,,,,,,,2,,,73,64
146580,note_on,60,0,2,,,,,,,,1,,,74,0
146580,note_on,0,0,2,,,,,,,,1,,,73,64
146580,note_on,0,0,1,,,,,,,,0,,,73,64
146625,note_on,225,0,4,,,,,,,,3,,,64,0
146625,note_on,225,0,6,,,,,,,,5,,,45,0
146625,note_on,225,0,5,,,,,,,,4,,,57,0
146640,note_on,15,0,5,,,,,,,,4,,,45,85
146640,note_on,15,0,4,,,,,,,,3,,,69,85
146640,note_on,15,0,6,,,,,,,,5,,,33,85
146640,set_tempo,240,1,0,,,,,,857143,,,,,,
146755,note_on,175,0,2,,,,,,,,1,,,73,0
146755,note_on,175,0,3,,,,,,,,2,,,73,0
146755,note_on,175,0,1,,,,,,,,0,,,73,0
146760,note_on,5,0,3,,,,,,,,2,,,74,64
146760,note_on,5,0,2,,,,,,,,1,,,74,64
146760,note_on,5,0,1,,,,,,,,0,,,74,64
146865,note_on,225,0,4,,,,,,,,3,,,69,0
146865,note_on,225,0,6,,,,,,,,5,,,33,0
146865,note_on,225,0,5,,,,,,,,4,,,45,0
146869,set_tempo,229,1,0,,,,,,1200000,,,,,,
146875,note_on,115,0,1,,,,,,,,0,,,74,0
146875,note_on,115,0,2,,,,,,,,1,,,74,0
146875,note_on,115,0,3,,,,,,,,2,,,74,0
147000,note_on,135,0,5,,,,,,,,4,,,50,85
147000,note_on,125,0,2,,,,,,,,1,,,74,64
147000,note_on,125,0,1,,,,,,,,0,,,74,64
147005,note_on,130,0,3,,,,,,,,2,,,74,64
147005,note_on,140,0,4,,,,,,,,3,,,65,85
147005,note_on,140,0,6,,,,,,,,5,,,38,85
147885,note_on,885,0,5,,,,,,,,4,,,50,0
147885,note_on,885,0,1,,,,,,,,0,,,74,0
147885,note_on,885,0,2,,,,,,,,1,,,74,0
147890,note_on,885,0,3,,,,,,,,2,,,74,0
147890,note_on,885,0,4,,,,,,,,3,,,65,0
147890,note_on,885,0,6,,,,,,,,5,,,38,0
149760,note_on,1875,0,1,,,,,,,,0,,,74,85
149760,time_signature,2891,1,0,3,4,24,8,,,,,,,,
149760,note_on,1875,0,5,,,,,,,,4,,,43,49
149760,marker,0,1,0,,,,,,,,,,,,
149760,note_on,1870,0,4,,,,,,,,3,,,55,49
149760,set_tempo,0,1,0,,,,,,952381,,,,,,
149985,note_on,225,0,4,,,,,,,,3,,,55,0
149985,note_on,225,0,5,,,,,,,,4,,,43,0
150000,note_on,2115,0,2,,,,,,,,1,,,67,64
150000,note_on,15,0,4,,,,,,,,3,,,55,49
150000,note_on,15,0,5,,,,,,,,4,,,43,49
150205,note_on,445,0,1,,,,,,,,0,,,74,0
150225,note_on,225,0,4,,,,,,,,3,,,55,0
150225,note_on,225,0,2,,,,,,,,1,,,67,0
150225,note_on,225,0,5,,,,,,,,4,,,43,0
150240,note_on,15,0,5,,,,,,,,4,,,43,49
150240,note_on,15,0,2,,,,,,,,1,,,70,64
150240,note_on,15,0,4,,,,,,,,3,,,55,49
150240,note_on,35,0,1,,,,,,,,0,,,79,85
150465,note_on,225,0,2,,,,,,,,1,,,70,0
150465,note_on,225,0,4,,,,,,,,3,,,55,0
150465,note_on,225,0,5,,,,,,,,4,,,43,0
150480,note_on,15,0,2,,,,,,,,1,,,74,64
150480,note_on,15,0,5,,,,,,,,4,,,43,49
150480,note_on,15,0,4,,,,,,,,3,,,55,49
150685,note_on,445,0,1,,,,,,,,0,,,79,0
150705,note_on,225,0,2,,,,,,,,1,,,74,0
150705,note_on,225,0,4,,,,,,,,3,,,55,0
150705,note_on,225,0,5,,,,,,,,4,,,43,0
150720,note_on,15,0,2,,,,,,,,1,,,70,64
150720,note_on,35,0,1,,,,,,,,0,,,82,85
150720,note_on,15,0,4,,,,,,,,3,,,55,49
150720,note_on,15,0,5,,,,,,,,4,,,43,49
150945,note_on,225,0,5,,,,,,,,4,,,43,0
150945,note_on,225,0,2,,,,,,,,1,,,70,0
150945,note_on,225,0,4,,,,,,,,3,,,55,0
150960,note_on,15,0,2,,,,,,,,1,,,67,64
150960,note_on,15,0,4,,,,,,,,3,,,55,49
150960,note_on,15,0,5,,,,,,,,4,,,43,49
151165,note_on,445,0,1,,,,,,,,0,,,82,0
151185,note_on,225,0,4,,,,,,,,3,,,55,0
151185,note_on,225,0,5,,,,,,,,4,,,43,0
151185,note_on,225,0,2,,,,,,,,1,,,67,0
151200,note_on,15,0,4,,,,,,,,3,,,62,49
151200,note_on,15,0,2,,,,,,,,1,,,69,64
151200,note_on,35,0,1,,,,,,,,0,,,78,85
151200,note_on,15,0,5,,,,,,,,4,,,50,49
151425,note_on,225,0,5,,,,,,,,4,,,50,0
151425,note_on,225,0,4,,,,,,,,3,,,62,0
151440,note_on,3550,0,3,,,,,,,,2,,,66,64
151440,note_on,15,0,4,,,,,,,,3,,,62,49
151440,note_on,15,0,5,,,,,,,,4,,,50,49
151645,note_on,445,0,2,,,,,,,,1,,,69,0
151665,note_on,225,0,3,,,,,,,,2,,,66,0
151665,note_on,225,0,5,,,,,,,,4,,,50,0
151665,note_on,225,0,4,,,,,,,,3,,,62,0
151680,note_on,15,0,3,,,,,,,,2,,,69,64
151680,note_on,15,0,4,,,,,,,,3,,,62,49
151680,note_on,15,0,5,,,,,,,,4,,,50,49
151865,note_on,665,0,1,,,,,,,,0,,,78,0
151905,note_on,225,0,4,,,,,,,,3,,,62,0
151905,note_on,225,0,5,,,,,,,,4,,,50,0
151905,note_on,225,0,3,,,,,,,,2,,,69,0
151920,note_on,15,0,4,,,,,,,,3,,,62,49
151920,note_on,55,0,1,,,,,,,,0,,,76,85
151920,note_on,15,0,5,,,,,,,,4,,,50,49
151920,note_on,15,0,3,,,,,,,,2,,,74,64
152145,note_on,225,0,5,,,,,,,,4,,,50,0
152145,note_on,225,0,1,,,,,,,,0,,,76,0
152145,note_on,225,0,4,,,,,,,,3,,,62,0
152145,note_on,225,0,3,,,,,,,,2,,,74,0
152160,note_on,15,0,1,,,,,,,,0,,,74,85
152160,note_on,15,0,4,,,,,,,,3,,,62,49
152160,note_on,15,0,5,,,,,,,,4,,,50,49
152160,note_on,15,0,3,,,,,,,,2,,,69,64
152385,note_on,225,0,4,,,,,,,,3,,,62,0
152385,note_on,225,0,5,,,,,,,,4,,,50,0
152385,note_on,225,0,3,,,,,,,,2,,,69,0
152400,note_on,15,0,5,,,,,,,,4,,,50,49
152400,note_on,15,0,4,,,,,,,,3,,,62,49
152400,note_on,15,0,3,,,,,,,,2,,,66,64
152605,note_on,445,0,1,,,,,,,,0,,,74,0
152625,note_on,225,0,4,,,,,,,,3,,,62,0
152625,note_on,225,0,3,,,,,,,,2,,,66,0
152625,note_on,225,0,5,,,,,,,,4,,,50,0
152640,note_on,15,0,3,,,,,,,,2,,,62,64
152640,note_on,15,0,4,,,,,,,,3,,,62,49
152640,note_on,15,0,5,,,,,,,,4,,,50,49
152640,note_on,35,0,1,,,,,,,,0,,,74,85
152865,note_on,225,0,4,,,,,,,,3,,,62,0
152865,note_on,225,0,5,,,,,,,,4,,,50,0
152880,note_on,15,0,4,,,,,,,,3,,,62,49
152880,note_on,1235,0,2,,,,,,,,1,,,66,64
152880,note_on,15,0,5,,,,,,,,4,,,50,49
153085,note_on,445,0,1,,,,,,,,0,,,74,0
153085,note_on,445,0,3,,,,,,,,2,,,62,0
153105,note_on,225,0,2,,,,,,,,1,,,66,0
153105,note_on,225,0,5,,,,,,,,4,,,50,0
153105,note_on,225,0,4,,,,,,,,3,,,62,0
153120,note_on,35,0,1,,,,,,,,0,,,78,85
153120,note_on,15,0,5,,,,,,,,4,,,50,49
153120,note_on,15,0,4,,,,,,,,3,,,62,49
153120,note_on,15,0,2,,,,,,,,1,,,69,64
153345,note_on,225,0,4,,,,,,,,3,,,62,0
153345,note_on,225,0,5,,,,,,,,4,,,50,0
153345,note_on,225,0,2,,,,,,,,1,,,69,0
153360,note_on,15,0,5,,,,,,,,4,,,50,49
153360,note_on,15,0,2,,,,,,,,1,,,74,64
153360,note_on,15,0,4,,,,,,,,3,,,62,49
153565,note_on,445,0,1,,,,,,,,0,,,78,0
153585,note_on,225,0,4,,,,,,,,3,,,62,0
153585,note_on,225,0,2,,,,,,,,1,,,74,0
153585,note_on,225,0,5,,,,,,,,4,,,50,0
153600,note_on,15,0,2,,,,,,,,1,,,69,64
153600,note_on,35,0,1,,,,,,,,0,,,84,85
153600,note_on,15,0,4,,,,,,,,3,,,62,49
153600,note_on,15,0,5,,,,,,,,4,,,50,49
153825,note_on,225,0,4,,,,,,,,3,,,62,0
153825,note_on,225,0,5,,,,,,,,4,,,50,0
153825,note_on,225,0,2,,,,,,,,1,,,69,0
153840,note_on,15,0,2,,,,,,,,1,,,66,64
153840,note_on,15,0,4,,,,,,,,3,,,62,49
153840,note_on,15,0,5,,,,,,,,4,,,50,49
154045,note_on,445,0,1,,,,,,,,0,,,84,0
154065,note_on,225,0,2,,,,,,,,1,,,66,0
154065,note_on,225,0,4,,,,,,,,3,,,62,0
154065,note_on,225,0,5,,,,,,,,4,,,50,0
154080,note_on,15,0,2,,,,,,,,1,,,67,64
154080,note_on,15,0,4,,,,,,,,3,,,55,49
154080,note_on,15,0,5,,,,,,,,4,,,43,49
154080,note_on,35,0,1,,,,,,,,0,,,84,85
154110,note_on,30,0,1,,,,,,,,0,,,84,0
154110,note_on,0,0,1,,,,,,,,0,,,82,85
154140,note_on,0,0,1,,,,,,,,0,,,84,85
154140,note_on,30,0,1,,,,,,,,0,,,82,0
154170,note_on,0,0,1,,,,,,,,0,,,82,85
154170,note_on,30,0,1,,,,,,,,0,,,84,0
154200,note_on,0,0,1,,,,,,,,0,,,84,85
154200,note_on,30,0,1,,,,,,,,0,,,82,0
154230,note_on,0,0,1,,,,,,,,0,,,82,85
154230,note_on,30,0,1,,,,,,,,0,,,84,0
154260,note_on,0,0,1,,,,,,,,0,,,84,85
154260,note_on,30,0,1,,,,,,,,0,,,82,0
154290,note_on,0,0,1,,,,,,,,0,,,82,85
154290,note_on,30,0,1,,,,,,,,0,,,84,0
154305,note_on,225,0,5,,,,,,,,4,,,43,0
154305,note_on,225,0,4,,,,,,,,3,,,55,0
154320,note_on,1235,0,3,,,,,,,,2,,,67,64
154320,note_on,30,0,1,,,,,,,,0,,,82,0
154320,note_on,0,0,1,,,,,,,,0,,,84,85
154320,note_on,15,0,5,,,,,,,,4,,,43,49
154320,note_on,15,0,4,,,,,,,,3,,,55,49
154350,note_on,30,0,1,,,,,,,,0,,,84,0
154350,note_on,0,0,1,,,,,,,,0,,,82,85
154380,note_on,0,0,1,,,,,,,,0,,,84,85
154380,note_on,30,0,1,,,,,,,,0,,,82,0
154410,note_on,30,0,1,,,,,,,,0,,,84,0
154410,note_on,0,0,1,,,,,,,,0,,,82,85
154440,note_on,30,0,1,,,,,,,,0,,,82,0
154440,note_on,0,0,1,,,,,,,,0,,,84,85
154470,note_on,0,0,1,,,,,,,,0,,,82,85
154470,note_on,30,0,1,,,,,,,,0,,,84,0
154525,note_on,445,0,2,,,,,,,,1,,,67,0
154545,note_on,225,0,5,,,,,,,,4,,,43,0
154545,note_on,225,0,4,,,,,,,,3,,,55,0
154545,note_on,225,0,3,,,,,,,,2,,,67,0
154560,note_on,15,0,3,,,,,,,,2,,,70,64
154560,note_on,15,0,5,,,,,,,,4,,,43,49
154560,note_on,15,0,4,,,,,,,,3,,,55,49
154785,note_on,225,0,5,,,,,,,,4,,,43,0
154785,note_on,315,0,1,,,,,,,,0,,,82,0
154785,note_on,225,0,3,,,,,,,,2,,,70,0
154785,note_on,225,0,4,,,,,,,,3,,,55,0
154800,note_on,15,0,1,,,,,,,,0,,,81,85
154800,note_on,15,0,4,,,,,,,,3,,,55,49
154800,note_on,15,0,5,,,,,,,,4,,,43,49
154800,note_on,15,0,3,,,,,,,,2,,,74,64
155025,note_on,225,0,5,,,,,,,,4,,,43,0
155025,note_on,225,0,1,,,,,,,,0,,,81,0
155025,note_on,225,0,3,,,,,,,,2,,,74,0
155025,note_on,225,0,4,,,,,,,,3,,,55,0
155040,note_on,15,0,1,,,,,,,,0,,,79,85
155040,note_on,15,0,5,,,,,,,,4,,,43,49
155040,note_on,15,0,3,,,,,,,,2,,,70,64
155040,note_on,15,0,4,,,,,,,,3,,,55,49
155265,note_on,225,0,4,,,,,,,,3,,,55,0
155265,note_on,225,0,5,,,,,,,,4,,,43,0
155265,note_on,225,0,3,,,,,,,,2,,,70,0
155280,note_on,15,0,3,,,,,,,,2,,,67,64
155280,note_on,15,0,5,,,,,,,,4,,,43,49
155280,note_on,15,0,4,,,,,,,,3,,,55,49
155485,note_on,445,0,1,,,,,,,,0,,,79,0
155505,note_on,225,0,3,,,,,,,,2,,,67,0
155505,note_on,225,0,5,,,,,,,,4,,,43,0
155505,note_on,225,0,4,,,,,,,,3,,,55,0
155520,note_on,35,0,1,,,,,,,,0,,,74,85
155520,note_on,15,0,3,,,,,,,,2,,,70,64
155520,note_on,15,0,4,,,,,,,,3,,,55,49
155520,note_on,15,0,5,,,,,,,,4,,,43,49
155745,note_on,225,0,5,,,,,,,,4,,,43,0
155745,note_on,225,0,4,,,,,,,,3,,,55,0
155760,note_on,1235,0,2,,,,,,,,1,,,67,64
155760,note_on,15,0,4,,,,,,,,3,,,55,49
155760,note_on,15,0,5,,,,,,,,4,,,43,49
155965,note_on,445,0,1,,,,,,,,0,,,74,0
155965,note_on,445,0,3,,,,,,,,2,,,70,0
155985,note_on,225,0,5,,,,,,,,4,,,43,0
155985,note_on,225,0,2,,,,,,,,1,,,67,0
155985,note_on,225,0,4,,,,,,,,3,,,55,0
156000,note_on,15,0,2,,,,,,,,1,,,70,64
156000,note_on,15,0,5,,,,,,,,4,,,43,49
156000,note_on,35,0,1,,,,,,,,0,,,79,85
156000,note_on,15,0,4,,,,,,,,3,,,55,49
156225,note_on,225,0,4,,,,,,,,3,,,55,0
156225,note_on,225,0,5,,,,,,,,4,,,43,0
156225,note_on,225,0,2,,,,,,,,1,,,70,0
156240,note_on,15,0,5,,,,,,,,4,,,43,49
156240,note_on,15,0,2,,,,,,,,1,,,74,64
156240,note_on,15,0,4,,,,,,,,3,,,55,49
156445,note_on,445,0,1,,,,,,,,0,,,79,0
156465,note_on,225,0,5,,,,,,,,4,,,43,0
156465,note_on,225,0,4,,,,,,,,3,,,55,0
156465,note_on,225,0,2,,,,,,,,1,,,74,0
156480,note_on,15,0,2,,,,,,,,1,,,70,64
156480,note_on,15,0,4,,,,,,,,3,,,55,49
156480,note_on,35,0,1,,,,,,,,0,,,82,85
156480,note_on,15,0,5,,,,,,,,4,,,43,49
156705,note_on,225,0,4,,,,,,,,3,,,55,0
156705,note_on,225,0,2,,,,,,,,1,,,70,0
156705,note_on,225,0,5,,,,,,,,4,,,43,0
156720,note_on,15,0,5,,,,,,,,4,,,43,49
156720,note_on,15,0,4,,,,,,,,3,,,55,49
156720,note_on,15,0,2,,,,,,,,1,,,67,64
156925,note_on,445,0,1,,,,,,,,0,,,82,0
156945,note_on,225,0,2,,,,,,,,1,,,67,0
156945,note_on,225,0,5,,,,,,,,4,,,43,0
156945,note_on,225,0,4,,,,,,,,3,,,55,0
156960,note_on,15,0,4,,,,,,,,3,,,57,49
156960,note_on,15,0,2,,,,,,,,1,,,64,64
156960,note_on,35,0,1,,,,,,,,0,,,73,85
156960,note_on,15,0,5,,,,,,,,4,,,45,49
157185,note_on,225,0,4,,,,,,,,3,,,57,0
157185,note_on,225,0,5,,,,,,,,4,,,45,0
157200,note_on,15,0,5,,,,,,,,4,,,45,49
157200,note_on,15,0,4,,,,,,,,3,,,57,49
157200,note_on,1235,0,3,,,,,,,,2,,,64,64
157405,note_on,445,0,2,,,,,,,,1,,,64,0
157425,note_on,225,0,5,,,,,,,,4,,,45,0
157425,note_on,225,0,4,,,,,,,,3,,,57,0
157425,note_on,225,0,3,,,,,,,,2,,,64,0
157440,note_on,15,0,4,,,,,,,,3,,,57,49
157440,note_on,15,0,5,,,,,,,,4,,,45,49
157440,note_on,15,0,3,,,,,,,,2,,,69,64
157625,note_on,665,0,1,,,,,,,,0,,,73,0
157665,note_on,225,0,4,,,,,,,,3,,,57,0
157665,note_on,225,0,3,,,,,,,,2,,,69,0
157665,note_on,225,0,5,,,,,,,,4,,,45,0
157680,note_on,15,0,4,,,,,,,,3,,,57,49
157680,note_on,55,0,1,,,,,,,,0,,,76,85
157680,note_on,15,0,5,,,,,,,,4,,,45,49
157680,note_on,15,0,3,,,,,,,,2,,,73,64
157905,note_on,225,0,3,,,,,,,,2,,,73,0
157905,note_on,225,0,4,,,,,,,,3,,,57,0
157905,note_on,225,0,5,,,,,,,,4,,,45,0
157905,note_on,225,0,1,,,,,,,,0,,,76,0
157920,note_on,15,0,3,,,,,,,,2,,,69,64
157920,note_on,15,0,4,,,,,,,,3,,,57,49
157920,note_on,15,0,1,,,,,,,,0,,,81,85
157920,note_on,15,0,5,,,,,,,,4,,,45,49
158145,note_on,225,0,4,,,,,,,,3,,,57,0
158145,note_on,225,0,5,,,,,,,,4,,,45,0
158145,note_on,225,0,3,,,,,,,,2,,,69,0
158160,note_on,15,0,4,,,,,,,,3,,,57,49
158160,note_on,15,0,3,,,,,,,,2,,,64,64
158160,note_on,15,0,5,,,,,,,,4,,,45,49
158365,note_on,445,0,1,,,,,,,,0,,,81,0
158385,note_on,225,0,5,,,,,,,,4,,,45,0
158385,note_on,225,0,3,,,,,,,,2,,,64,0
158385,note_on,225,0,4,,,,,,,,3,,,57,0
158400,note_on,15,0,3,,,,,,,,2,,,65,64
158400,note_on,15,0,4,,,,,,,,3,,,62,49
158400,note_on,15,0,5,,,,,,,,4,,,50,49
158400,note_on,35,0,1,,,,,,,,0,,,77,85
158625,note_on,225,0,3,,,,,,,,2,,,65,0
158625,note_on,225,0,5,,,,,,,,4,,,50,0
158625,note_on,225,0,1,,,,,,,,0,,,77,0
158625,note_on,225,0,4,,,,,,,,3,,,62,0
158640,note_on,15,0,4,,,,,,,,3,,,62,49
158640,note_on,15,0,5,,,,,,,,4,,,50,49
158640,note_on,15,0,3,,,,,,,,2,,,74,64
158640,note_on,1235,0,2,,,,,,,,1,,,69,64
158640,note_on,15,0,1,,,,,,,,0,,,81,85
158865,note_on,225,0,4,,,,,,,,3,,,62,0
158865,note_on,225,0,2,,,,,,,,1,,,69,0
158865,note_on,225,0,5,,,,,,,,4,,,50,0
158865,note_on,225,0,1,,,,,,,,0,,,81,0
158865,note_on,225,0,3,,,,,,,,2,,,74,0
158880,note_on,15,0,3,,,,,,,,2,,,76,64
158880,note_on,15,0,2,,,,,,,,1,,,73,64
158880,note_on,15,0,5,,,,,,,,4,,,57,49
158880,note_on,15,0,1,,,,,,,,0,,,77,85
158880,note_on,15,0,4,,,,,,,,3,,,69,49
158910,note_on,30,0,1,,,,,,,,0,,,77,0
158910,note_on,0,0,1,,,,,,,,0,,,76,85
158940,note_on,30,0,1,,,,,,,,0,,,76,0
158940,note_on,0,0,1,,,,,,,,0,,,77,85
158970,note_on,0,0,1,,,,,,,,0,,,76,85
158970,note_on,30,0,1,,,,,,,,0,,,77,0
159000,note_on,30,0,1,,,,,,,,0,,,76,0
159000,note_on,0,0,1,,,,,,,,0,,,77,85
159030,note_on,30,0,1,,,,,,,,0,,,77,0
159030,note_on,0,0,1,,,,,,,,0,,,76,85
159060,note_on,30,0,1,,,,,,,,0,,,76,0
159060,note_on,0,0,1,,,,,,,,0,,,77,85
159090,note_on,30,0,1,,,,,,,,0,,,77,0
159090,note_on,0,0,1,,,,,,,,0,,,76,85
159105,note_on,225,0,5,,,,,,,,4,,,57,0
159105,note_on,225,0,4,,,,,,,,3,,,69,0
159105,note_on,225,0,2,,,,,,,,1,,,73,0
159105,note_on,225,0,3,,,,,,,,2,,,76,0
159120,note_on,15,0,3,,,,,,,,2,,,81,64
159120,note_on,15,0,4,,,,,,,,3,,,69,49
159120,note_on,15,0,2,,,,,,,,1,,,76,64
159120,note_on,30,0,1,,,,,,,,0,,,76,0
159120,note_on,15,0,5,,,,,,,,4,,,57,49
159120,note_on,0,0,1,,,,,,,,0,,,77,85
159150,note_on,30,0,1,,,,,,,,0,,,77,0
159150,note_on,0,0,1,,,,,,,,0,,,76,85
159180,note_on,30,0,1,,,,,,,,0,,,76,0
159180,note_on,0,0,1,,,,,,,,0,,,77,85
159210,note_on,30,0,1,,,,,,,,0,,,77,0
159210,note_on,0,0,1,,,,,,,,0,,,76,85
159240,note_on,30,0,1,,,,,,,,0,,,76,0
159240,note_on,0,0,1,,,,,,,,0,,,77,85
159270,note_on,0,0,1,,,,,,,,0,,,76,85
159270,note_on,30,0,1,,,,,,,,0,,,77,0
159345,note_on,225,0,3,,,,,,,,2,,,81,0
159345,note_on,225,0,5,,,,,,,,4,,,57,0
159345,note_on,225,0,2,,,,,,,,1,,,76,0
159345,note_on,225,0,4,,,,,,,,3,,,69,0
159360,note_on,15,0,4,,,,,,,,3,,,57,49
159360,note_on,15,0,2,,,,,,,,1,,,73,64
159360,note_on,15,0,3,,,,,,,,2,,,76,64
159360,note_on,15,0,5,,,,,,,,4,,,45,49
159585,note_on,315,0,1,,,,,,,,0,,,76,0
159585,note_on,225,0,2,,,,,,,,1,,,73,0
159585,note_on,225,0,4,,,,,,,,3,,,57,0
159585,note_on,225,0,3,,,,,,,,2,,,76,0
159585,note_on,225,0,5,,,,,,,,4,,,45,0
159600,note_on,15,0,2,,,,,,,,1,,,69,64
159600,note_on,15,0,3,,,,,,,,2,,,73,64
159600,note_on,15,0,5,,,,,,,,4,,,45,49
159600,note_on,15,0,4,,,,,,,,3,,,57,49
159600,note_on,15,0,1,,,,,,,,0,,,74,85
159825,note_on,225,0,4,,,,,,,,3,,,57,0
159825,note_on,225,0,2,,,,,,,,1,,,69,0
159825,note_on,225,0,1,,,,,,,,0,,,74,0
159825,note_on,225,0,3,,,,,,,,2,,,73,0
159825,note_on,225,0,5,,,,,,,,4,,,45,0
159840,note_on,15,0,4,,,,,,,,3,,,62,49
159840,note_on,15,0,2,,,,,,,,1,,,65,64
159840,note_on,15,0,1,,,,,,,,0,,,74,85
159840,note_on,15,0,3,,,,,,,,2,,,74,64
159840,note_on,15,0,5,,,,,,,,4,,,50,49
161165,note_on,1325,0,2,,,,,,,,1,,,65,0
161165,note_on,1325,0,1,,,,,,,,0,,,74,0
161165,note_on,1325,0,5,,,,,,,,4,,,50,0
161165,note_on,1325,0,4,,,,,,,,3,,,62,0
161165,note_on,1325,0,3,,,,,,,,2,,,74,0
161280,note_on,115,0,5,,,,,,,,4,,,43,49
161280,note_on,115,0,4,,,,,,,,3,,,55,49
161280,note_on,115,0,1,,,,,,,,0,,,74,85
161505,note_on,225,0,5,,,,,,,,4,,,43,0
161505,note_on,225,0,4,,,,,,,,3,,,55,0
161520,note_on,15,0,4,,,,,,,,3,,,55,49
161520,note_on,15,0,5,,,,,,,,4,,,43,49
161520,note_on,355,0,2,,,,,,,,1,,,67,64
161615,note_on,335,0,1,,,,,,,,0,,,74,0
161640,note_on,25,0,1,,,,,,,,0,,,70,85
161745,note_on,225,0,5,,,,,,,,4,,,43,0
161745,note_on,225,0,4,,,,,,,,3,,,55,0
161745,note_on,225,0,2,,,,,,,,1,,,67,0
161755,note_on,115,0,1,,,,,,,,0,,,70,0
161760,note_on,15,0,5,,,,,,,,4,,,43,49
161760,note_on,15,0,2,,,,,,,,1,,,70,64
161760,note_on,5,0,1,,,,,,,,0,,,79,85
161760,note_on,15,0,4,,,,,,,,3,,,55,49
161985,note_on,225,0,4,,,,,,,,3,,,55,0
161985,note_on,225,0,2,,,,,,,,1,,,70,0
161985,note_on,225,0,5,,,,,,,,4,,,43,0
162000,note_on,15,0,5,,,,,,,,4,,,43,49
162000,note_on,15,0,4,,,,,,,,3,,,55,49
162000,note_on,15,0,2,,,,,,,,1,,,74,64
162095,note_on,335,0,1,,,,,,,,0,,,79,0
162120,note_on,25,0,1,,,,,,,,0,,,74,85
162225,note_on,225,0,5,,,,,,,,4,,,43,0
162225,note_on,225,0,2,,,,,,,,1,,,74,0
162225,note_on,225,0,4,,,,,,,,3,,,55,0
162235,note_on,115,0,1,,,,,,,,0,,,74,0
162240,note_on,15,0,5,,,,,,,,4,,,43,49
162240,note_on,15,0,2,,,,,,,,1,,,70,64
162240,note_on,5,0,1,,,,,,,,0,,,82,85
162240,note_on,15,0,4,,,,,,,,3,,,55,49
162465,note_on,225,0,2,,,,,,,,1,,,70,0
162465,note_on,225,0,4,,,,,,,,3,,,55,0
162465,note_on,225,0,5,,,,,,,,4,,,43,0
162480,note_on,15,0,4,,,,,,,,3,,,55,49
162480,note_on,15,0,5,,,,,,,,4,,,43,49
162480,note_on,15,0,2,,,,,,,,1,,,67,64
162575,note_on,335,0,1,,,,,,,,0,,,82,0
162600,note_on,25,0,1,,,,,,,,0,,,79,85
162705,note_on,225,0,4,,,,,,,,3,,,55,0
162705,note_on,225,0,5,,,,,,,,4,,,43,0
162705,note_on,225,0,2,,,,,,,,1,,,67,0
162715,note_on,115,0,1,,,,,,,,0,,,79,0
162720,note_on,15,0,2,,,,,,,,1,,,69,64
162720,note_on,5,0,1,,,,,,,,0,,,78,85
162720,note_on,15,0,4,,,,,,,,3,,,62,49
162720,note_on,15,0,5,,,,,,,,4,,,50,49
162795,note_on,75,0,1,,,,,,,,0,,,78,0
162800,note_on,5,0,1,,,,,,,,0,,,76,85
162875,note_on,75,0,1,,,,,,,,0,,,76,0
162880,note_on,5,0,1,,,,,,,,0,,,78,85
162945,note_on,225,0,4,,,,,,,,3,,,62,0
162945,note_on,225,0,5,,,,,,,,4,,,50,0
162955,note_on,75,0,1,,,,,,,,0,,,78,0
162960,note_on,1795,0,3,,,,,,,,2,,,66,64
162960,note_on,15,0,5,,,,,,,,4,,,50,49
162960,note_on,15,0,4,,,,,,,,3,,,62,49
162960,note_on,5,0,1,,,,,,,,0,,,79,85
163035,note_on,75,0,1,,,,,,,,0,,,79,0
163040,note_on,5,0,1,,,,,,,,0,,,78,85
163115,note_on,75,0,1,,,,,,,,0,,,78,0
163120,note_on,5,0,1,,,,,,,,0,,,79,85
163165,note_on,445,0,2,,,,,,,,1,,,69,0
163185,note_on,225,0,3,,,,,,,,2,,,66,0
163185,note_on,225,0,5,,,,,,,,4,,,50,0
163185,note_on,225,0,4,,,,,,,,3,,,62,0
163195,note_on,75,0,1,,,,,,,,0,,,79,0
163200,note_on,15,0,3,,,,,,,,2,,,69,64
163200,note_on,15,0,5,,,,,,,,4,,,50,49
163200,note_on,15,0,4,,,,,,,,3,,,62,49
163200,note_on,5,0,1,,,,,,,,0,,,81,85
163275,note_on,75,0,1,,,,,,,,0,,,81,0
163280,note_on,5,0,1,,,,,,,,0,,,79,85
163355,note_on,75,0,1,,,,,,,,0,,,79,0
163360,note_on,5,0,1,,,,,,,,0,,,78,85
163425,note_on,225,0,3,,,,,,,,2,,,69,0
163425,note_on,225,0,4,,,,,,,,3,,,62,0
163425,note_on,225,0,5,,,,,,,,4,,,50,0
163435,note_on,75,0,1,,,,,,,,0,,,78,0
163440,note_on,15,0,3,,,,,,,,2,,,74,64
163440,note_on,15,0,5,,,,,,,,4,,,50,49
163440,note_on,15,0,4,,,,,,,,3,,,62,49
163440,note_on,5,0,1,,,,,,,,0,,,79,85
163515,note_on,75,0,1,,,,,,,,0,,,79,0
163520,note_on,5,0,1,,,,,,,,0,,,78,85
163595,note_on,75,0,1,,,,,,,,0,,,78,0
163600,note_on,5,0,1,,,,,,,,0,,,76,85
163665,note_on,225,0,3,,,,,,,,2,,,74,0
163665,note_on,225,0,5,,,,,,,,4,,,50,0
163665,note_on,225,0,4,,,,,,,,3,,,62,0
163675,note_on,75,0,1,,,,,,,,0,,,76,0
163680,note_on,15,0,3,,,,,,,,2,,,69,64
163680,note_on,15,0,5,,,,,,,,4,,,50,49
163680,note_on,15,0,4,,,,,,,,3,,,62,49
163680,note_on,5,0,1,,,,,,,,0,,,74,85
163905,note_on,225,0,3,,,,,,,,2,,,69,0
163905,note_on,225,0,5,,,,,,,,4,,,50,0
163905,note_on,225,0,4,,,,,,,,3,,,62,0
163920,note_on,15,0,3,,,,,,,,2,,,66,64
163920,note_on,15,0,5,,,,,,,,4,,,50,49
163920,note_on,15,0,4,,,,,,,,3,,,62,49
164015,note_on,335,0,1,,,,,,,,0,,,74,0
164145,note_on,225,0,4,,,,,,,,3,,,62,0
164145,note_on,225,0,3,,,,,,,,2,,,66,0
164145,note_on,225,0,5,,,,,,,,4,,,50,0
164160,note_on,15,0,5,,,,,,,,4,,,50,49
164160,note_on,15,0,3,,,,,,,,2,,,62,64
164160,note_on,15,0,4,,,,,,,,3,,,62,49
164160,note_on,145,0,1,,,,,,,,0,,,74,85
164275,note_on,115,0,1,,,,,,,,0,,,74,0
164280,note_on,5,0,1,,,,,,,,0,,,72,85
164385,note_on,225,0,5,,,,,,,,4,,,50,0
164385,note_on,225,0,4,,,,,,,,3,,,62,0
164395,note_on,115,0,1,,,,,,,,0,,,72,0
164400,note_on,15,0,5,,,,,,,,4,,,50,49
164400,note_on,1235,0,2,,,,,,,,1,,,66,64
164400,note_on,15,0,4,,,,,,,,3,,,62,49
164400,note_on,5,0,1,,,,,,,,0,,,74,85
164515,note_on,115,0,1,,,,,,,,0,,,74,0
164520,note_on,5,0,1,,,,,,,,0,,,76,85
164605,note_on,445,0,3,,,,,,,,2,,,62,0
164625,note_on,225,0,4,,,,,,,,3,,,62,0
164625,note_on,225,0,5,,,,,,,,4,,,50,0
164625,note_on,225,0,2,,,,,,,,1,,,66,0
164635,note_on,115,0,1,,,,,,,,0,,,76,0
164640,note_on,15,0,5,,,,,,,,4,,,50,49
164640,note_on,5,0,1,,,,,,,,0,,,78,85
164640,note_on,15,0,4,,,,,,,,3,,,62,49
164640,note_on,15,0,2,,,,,,,,1,,,69,64
164755,note_on,115,0,1,,,,,,,,0,,,78,0
164760,note_on,5,0,1,,,,,,,,0,,,76,85
164865,note_on,225,0,4,,,,,,,,3,,,62,0
164865,note_on,225,0,2,,,,,,,,1,,,69,0
164865,note_on,225,0,5,,,,,,,,4,,,50,0
164875,note_on,115,0,1,,,,,,,,0,,,76,0
164880,note_on,15,0,5,,,,,,,,4,,,50,49
164880,note_on,15,0,4,,,,,,,,3,,,62,49
164880,note_on,15,0,2,,,,,,,,1,,,74,64
164880,note_on,5,0,1,,,,,,,,0,,,78,85
164995,note_on,115,0,1,,,,,,,,0,,,78,0
165000,note_on,5,0,1,,,,,,,,0,,,79,85
165060,note_on,0,0,1,,,,,,,,0,,,81,85
165060,note_on,60,0,1,,,,,,,,0,,,79,0
165090,note_on,0,0,1,,,,,,,,0,,,82,85
165090,note_on,30,0,1,,,,,,,,0,,,81,0
165105,note_on,225,0,2,,,,,,,,1,,,74,0
165105,note_on,225,0,4,,,,,,,,3,,,62,0
165105,note_on,225,0,5,,,,,,,,4,,,50,0
165120,note_on,15,0,5,,,,,,,,4,,,50,49
165120,note_on,30,0,1,,,,,,,,0,,,82,0
165120,note_on,0,0,1,,,,,,,,0,,,84,85
165120,note_on,15,0,2,,,,,,,,1,,,69,64
165120,note_on,15,0,4,,,,,,,,3,,,62,49
165345,note_on,225,0,2,,,,,,,,1,,,69,0
165345,note_on,225,0,5,,,,,,,,4,,,50,0
165345,note_on,225,0,4,,,,,,,,3,,,62,0
165360,note_on,15,0,2,,,,,,,,1,,,66,64
165360,note_on,15,0,5,,,,,,,,4,,,50,49
165360,note_on,15,0,4,,,,,,,,3,,,62,49
165565,note_on,445,0,1,,,,,,,,0,,,84,0
165585,note_on,225,0,4,,,,,,,,3,,,62,0
165585,note_on,225,0,2,,,,,,,,1,,,66,0
165585,note_on,225,0,5,,,,,,,,4,,,50,0
165600,note_on,35,0,1,,,,,,,,0,,,84,85
165600,note_on,15,0,4,,,,,,,,3,,,55,49
165600,note_on,15,0,2,,,,,,,,1,,,67,64
165600,note_on,15,0,5,,,,,,,,4,,,43,49
165630,note_on,0,0,1,,,,,,,,0,,,82,85
165630,note_on,30,0,1,,,,,,,,0,,,84,0
165660,note_on,30,0,1,,,,,,,,0,,,82,0
165660,note_on,0,0,1,,,,,,,,0,,,84,85
165690,note_on,30,0,1,,,,,,,,0,,,84,0
165690,note_on,0,0,1,,,,,,,,0,,,82,85
165720,note_on,30,0,1,,,,,,,,0,,,82,0
165720,note_on,0,0,1,,,,,,,,0,,,84,85
165750,note_on,0,0,1,,,,,,,,0,,,82,85
165750,note_on,30,0,1,,,,,,,,0,,,84,0
165780,note_on,0,0,1,,,,,,,,0,,,84,85
165780,note_on,30,0,1,,,,,,,,0,,,82,0
165810,note_on,0,0,1,,,,,,,,0,,,82,85
165810,note_on,30,0,1,,,,,,,,0,,,84,0
165825,note_on,225,0,4,,,,,,,,3,,,55,0
165825,note_on,225,0,5,,,,,,,,4,,,43,0
165840,note_on,0,0,1,,,,,,,,0,,,84,85
165840,note_on,30,0,1,,,,,,,,0,,,82,0
165840,note_on,15,0,4,,,,,,,,3,,,55,49
165840,note_on,15,0,5,,,,,,,,4,,,43,49
165840,note_on,1235,0,3,,,,,,,,2,,,67,64
165870,note_on,30,0,1,,,,,,,,0,,,84,0
165870,note_on,0,0,1,,,,,,,,0,,,82,85
165900,note_on,0,0,1,,,,,,,,0,,,84,85
165900,note_on,30,0,1,,,,,,,,0,,,82,0
165930,note_on,30,0,1,,,,,,,,0,,,84,0
165930,note_on,0,0,1,,,,,,,,0,,,82,85
165960,note_on,30,0,1,,,,,,,,0,,,82,0
165960,note_on,0,0,1,,,,,,,,0,,,84,85
165990,note_on,30,0,1,,,,,,,,0,,,84,0
165990,note_on,0,0,1,,,,,,,,0,,,82,85
166045,note_on,445,0,2,,,,,,,,1,,,67,0
166065,note_on,225,0,3,,,,,,,,2,,,67,0
166065,note_on,225,0,4,,,,,,,,3,,,55,0
166065,note_on,225,0,5,,,,,,,,4,,,43,0
166080,note_on,15,0,4,,,,,,,,3,,,55,49
166080,note_on,15,0,5,,,,,,,,4,,,43,49
166080,note_on,15,0,3,,,,,,,,2,,,70,64
166305,note_on,315,0,1,,,,,,,,0,,,82,0
166305,note_on,225,0,4,,,,,,,,3,,,55,0
166305,note_on,225,0,3,,,,,,,,2,,,70,0
166305,note_on,225,0,5,,,,,,,,4,,,43,0
166320,note_on,15,0,3,,,,,,,,2,,,74,64
166320,note_on,15,0,5,,,,,,,,4,,,43,49
166320,note_on,15,0,4,,,,,,,,3,,,55,49
166320,note_on,15,0,1,,,,,,,,0,,,81,85
166395,note_on,75,0,1,,,,,,,,0,,,81,0
166400,note_on,5,0,1,,,,,,,,0,,,82,85
166475,note_on,75,0,1,,,,,,,,0,,,82,0
166480,note_on,5,0,1,,,,,,,,0,,,81,85
166545,note_on,225,0,3,,,,,,,,2,,,74,0
166545,note_on,225,0,4,,,,,,,,3,,,55,0
166545,note_on,225,0,5,,,,,,,,4,,,43,0
166555,note_on,75,0,1,,,,,,,,0,,,81,0
166560,note_on,15,0,5,,,,,,,,4,,,43,49
166560,note_on,15,0,3,,,,,,,,2,,,70,64
166560,note_on,15,0,4,,,,,,,,3,,,55,49
166560,note_on,5,0,1,,,,,,,,0,,,79,85
166785,note_on,225,0,3,,,,,,,,2,,,70,0
166785,note_on,225,0,4,,,,,,,,3,,,55,0
166785,note_on,225,0,5,,,,,,,,4,,,43,0
166800,note_on,15,0,5,,,,,,,,4,,,43,49
166800,note_on,15,0,3,,,,,,,,2,,,67,64
166800,note_on,15,0,4,,,,,,,,3,,,55,49
166895,note_on,335,0,1,,,,,,,,0,,,79,0
167025,note_on,225,0,4,,,,,,,,3,,,55,0
167025,note_on,225,0,5,,,,,,,,4,,,43,0
167025,note_on,225,0,3,,,,,,,,2,,,67,0
167040,note_on,15,0,4,,,,,,,,3,,,55,49
167040,note_on,145,0,1,,,,,,,,0,,,74,85
167040,note_on,15,0,3,,,,,,,,2,,,70,64
167040,note_on,15,0,5,,,,,,,,4,,,43,49
167155,note_on,115,0,1,,,,,,,,0,,,74,0
167160,note_on,5,0,1,,,,,,,,0,,,72,85
167265,note_on,225,0,5,,,,,,,,4,,,43,0
167265,note_on,225,0,4,,,,,,,,3,,,55,0
167275,note_on,115,0,1,,,,,,,,0,,,72,0
167280,note_on,15,0,4,,,,,,,,3,,,55,49
167280,note_on,5,0,1,,,,,,,,0,,,74,85
167280,note_on,1235,0,2,,,,,,,,1,,,67,64
167280,note_on,15,0,5,,,,,,,,4,,,43,49
167395,note_on,115,0,1,,,,,,,,0,,,74,0
167400,note_on,5,0,1,,,,,,,,0,,,76,85
167460,note_on,0,0,1,,,,,,,,0,,,78,85
167460,note_on,60,0,1,,,,,,,,0,,,76,0
167485,note_on,445,0,3,,,,,,,,2,,,70,0
167505,note_on,225,0,2,,,,,,,,1,,,67,0
167505,note_on,225,0,5,,,,,,,,4,,,43,0
167505,note_on,225,0,4,,,,,,,,3,,,55,0
167520,note_on,15,0,5,,,,,,,,4,,,43,49
167520,note_on,15,0,2,,,,,,,,1,,,70,64
167520,note_on,60,0,1,,,,,,,,0,,,78,0
167520,note_on,0,0,1,,,,,,,,0,,,79,85
167520,note_on,15,0,4,,,,,,,,3,,,55,49
167635,note_on,115,0,1,,,,,,,,0,,,79,0
167640,note_on,5,0,1,,,,,,,,0,,,78,85
167745,note_on,225,0,4,,,,,,,,3,,,55,0
167745,note_on,225,0,2,,,,,,,,1,,,70,0
167745,note_on,225,0,5,,,,,,,,4,,,43,0
167755,note_on,115,0,1,,,,,,,,0,,,78,0
167760,note_on,5,0,1,,,,,,,,0,,,79,85
167760,note_on,15,0,2,,,,,,,,1,,,74,64
167760,note_on,15,0,5,,,,,,,,4,,,43,49
167760,note_on,15,0,4,,,,,,,,3,,,55,49
167875,note_on,115,0,1,,,,,,,,0,,,79,0
167880,note_on,5,0,1,,,,,,,,0,,,81,85
167985,note_on,225,0,4,,,,,,,,3,,,55,0
167985,note_on,225,0,5,,,,,,,,4,,,43,0
167985,note_on,225,0,2,,,,,,,,1,,,74,0
167995,note_on,115,0,1,,,,,,,,0,,,81,0
168000,note_on,5,0,1,,,,,,,,0,,,82,85
168000,note_on,15,0,5,,,,,,,,4,,,43,49
168000,note_on,15,0,4,,,,,,,,3,,,55,49
168000,note_on,15,0,2,,,,,,,,1,,,70,64
168115,note_on,115,0,1,,,,,,,,0,,,82,0
168120,note_on,5,0,1,,,,,,,,0,,,81,85
168180,note_on,0,0,1,,,,,,,,0,,,79,85
168180,note_on,60,0,1,,,,,,,,0,,,81,0
168225,note_on,225,0,5,,,,,,,,4,,,43,0
168225,note_on,225,0,2,,,,,,,,1,,,70,0
168225,note_on,225,0,4,,,,,,,,3,,,55,0
168240,note_on,15,0,4,,,,,,,,3,,,55,49
168240,note_on,15,0,5,,,,,,,,4,,,43,49
168240,note_on,60,0,1,,,,,,,,0,,,79,0
168240,note_on,0,0,1,,,,,,,,0,,,77,85
168240,note_on,15,0,2,,,,,,,,1,,,67,64
168355,note_on,115,0,1,,,,,,,,0,,,77,0
168360,note_on,5,0,1,,,,,,,,0,,,75,85
168420,note_on,60,0,1,,,,,,,,0,,,75,0
168420,note_on,0,0,1,,,,,,,,0,,,74,85
168465,note_on,225,0,4,,,,,,,,3,,,55,0
168465,note_on,225,0,2,,,,,,,,1,,,67,0
168465,note_on,225,0,5,,,,,,,,4,,,43,0
168480,note_on,15,0,2,,,,,,,,1,,,64,64
168480,note_on,15,0,4,,,,,,,,3,,,57,49
168480,note_on,60,0,1,,,,,,,,0,,,74,0
168480,note_on,0,0,1,,,,,,,,0,,,73,85
168480,note_on,15,0,5,,,,,,,,4,,,45,49
168595,note_on,115,0,1,,,,,,,,0,,,73,0
168600,note_on,5,0,1,,,,,,,,0,,,71,85
168705,note_on,225,0,4,,,,,,,,3,,,57,0
168705,note_on,225,0,5,,,,,,,,4,,,45,0
168715,note_on,115,0,1,,,,,,,,0,,,71,0
168720,note_on,15,0,5,,,,,,,,4,,,45,49
168720,note_on,1235,0,3,,,,,,,,2,,,64,64
168720,note_on,5,0,1,,,,,,,,0,,,69,85
168720,note_on,15,0,4,,,,,,,,3,,,57,49
168835,note_on,115,0,1,,,,,,,,0,,,69,0
168840,note_on,5,0,1,,,,,,,,0,,,71,85
168900,note_on,60,0,1,,,,,,,,0,,,71,0
168900,note_on,0,0,1,,,,,,,,0,,,73,85
168925,note_on,445,0,2,,,,,,,,1,,,64,0
168945,note_on,225,0,5,,,,,,,,4,,,45,0
168945,note_on,225,0,3,,,,,,,,2,,,64,0
168945,note_on,225,0,4,,,,,,,,3,,,57,0
168960,note_on,15,0,4,,,,,,,,3,,,57,49
168960,note_on,15,0,3,,,,,,,,2,,,69,64
168960,note_on,60,0,1,,,,,,,,0,,,73,0
168960,note_on,15,0,5,,,,,,,,4,,,45,49
168960,note_on,0,0,1,,,,,,,,0,,,74,85
169075,note_on,115,0,1,,,,,,,,0,,,74,0
169080,note_on,5,0,1,,,,,,,,0,,,73,85
169140,note_on,0,0,1,,,,,,,,0,,,74,85
169140,note_on,60,0,1,,,,,,,,0,,,73,0
169185,note_on,225,0,5,,,,,,,,4,,,45,0
169185,note_on,225,0,4,,,,,,,,3,,,57,0
169185,note_on,225,0,3,,,,,,,,2,,,69,0
169200,note_on,15,0,3,,,,,,,,2,,,73,64
169200,note_on,60,0,1,,,,,,,,0,,,74,0
169200,note_on,15,0,5,,,,,,,,4,,,45,49
169200,note_on,15,0,4,,,,,,,,3,,,57,49
169200,note_on,0,0,1,,,,,,,,0,,,76,85
169315,note_on,115,0,1,,,,,,,,0,,,76,0
169320,note_on,5,0,1,,,,,,,,0,,,77,85
169380,note_on,0,0,1,,,,,,,,0,,,79,85
169380,note_on,60,0,1,,,,,,,,0,,,77,0
169425,note_on,225,0,4,,,,,,,,3,,,57,0
169425,note_on,225,0,5,,,,,,,,4,,,45,0
169425,note_on,225,0,3,,,,,,,,2,,,73,0
169440,note_on,60,0,1,,,,,,,,0,,,79,0
169440,note_on,15,0,4,,,,,,,,3,,,57,49
169440,note_on,15,0,5,,,,,,,,4,,,45,49
169440,note_on,15,0,3,,,,,,,,2,,,69,64
169440,note_on,0,0,1,,,,,,,,0,,,81,85
169665,note_on,225,0,3,,,,,,,,2,,,69,0
169665,note_on,225,0,5,,,,,,,,4,,,45,0
169665,note_on,225,0,4,,,,,,,,3,,,57,0
169680,note_on,15,0,5,,,,,,,,4,,,45,49
169680,note_on,15,0,4,,,,,,,,3,,,57,49
169680,note_on,15,0,3,,,,,,,,2,,,64,64
169775,note_on,335,0,1,,,,,,,,0,,,81,0
169800,note_on,25,0,1,,,,,,,,0,,,79,85
169840,note_on,40,0,1,,,,,,,,0,,,79,0
169840,note_on,0,0,1,,,,,,,,0,,,77,85
169880,note_on,40,0,1,,,,,,,,0,,,77,0
169880,note_on,0,0,1,,,,,,,,0,,,76,85
169905,note_on,225,0,4,,,,,,,,3,,,57,0
169905,note_on,225,0,3,,,,,,,,2,,,64,0
169905,note_on,225,0,5,,,,,,,,4,,,45,0
169920,note_on,0,0,1,,,,,,,,0,,,77,85
169920,note_on,40,0,1,,,,,,,,0,,,76,0
169920,note_on,15,0,5,,,,,,,,4,,,50,49
169920,note_on,15,0,3,,,,,,,,2,,,65,64
169920,note_on,15,0,4,,,,,,,,3,,,62,49
170035,note_on,115,0,1,,,,,,,,0,,,77,0
170040,note_on,5,0,1,,,,,,,,0,,,79,85
170145,note_on,225,0,4,,,,,,,,3,,,62,0
170145,note_on,225,0,5,,,,,,,,4,,,50,0
170145,note_on,225,0,3,,,,,,,,2,,,65,0
170155,note_on,115,0,1,,,,,,,,0,,,79,0
170160,note_on,15,0,5,,,,,,,,4,,,50,49
170160,note_on,15,0,3,,,,,,,,2,,,74,64
170160,note_on,15,0,4,,,,,,,,3,,,62,49
170160,note_on,5,0,1,,,,,,,,0,,,81,85
170160,note_on,1235,0,2,,,,,,,,1,,,69,64
170275,note_on,115,0,1,,,,,,,,0,,,81,0
170280,note_on,5,0,1,,,,,,,,0,,,77,85
170385,note_on,225,0,2,,,,,,,,1,,,69,0
170385,note_on,225,0,5,,,,,,,,4,,,50,0
170385,note_on,225,0,3,,,,,,,,2,,,74,0
170385,note_on,225,0,4,,,,,,,,3,,,62,0
170395,note_on,115,0,1,,,,,,,,0,,,77,0
170400,note_on,15,0,4,,,,,,,,3,,,69,49
170400,note_on,5,0,1,,,,,,,,0,,,77,85
170400,note_on,15,0,2,,,,,,,,1,,,73,64
170400,note_on,15,0,5,,,,,,,,4,,,57,49
170400,note_on,15,0,3,,,,,,,,2,,,76,64
170430,note_on,30,0,1,,,,,,,,0,,,77,0
170430,note_on,0,0,1,,,,,,,,0,,,76,85
170460,note_on,30,0,1,,,,,,,,0,,,76,0
170460,note_on,0,0,1,,,,,,,,0,,,77,85
170490,note_on,30,0,1,,,,,,,,0,,,77,0
170490,note_on,0,0,1,,,,,,,,0,,,76,85
170520,note_on,30,0,1,,,,,,,,0,,,76,0
170520,note_on,0,0,1,,,,,,,,0,,,77,85
170550,note_on,0,0,1,,,,,,,,0,,,76,85
170550,note_on,30,0,1,,,,,,,,0,,,77,0
170580,note_on,0,0,1,,,,,,,,0,,,77,85
170580,note_on,30,0,1,,,,,,,,0,,,76,0
170610,note_on,30,0,1,,,,,,,,0,,,77,0
170610,note_on,0,0,1,,,,,,,,0,,,76,85
170625,note_on,225,0,4,,,,,,,,3,,,69,0
170625,note_on,225,0,2,,,,,,,,1,,,73,0
170625,note_on,225,0,3,,,,,,,,2,,,76,0
170625,note_on,225,0,5,,,,,,,,4,,,57,0
170640,note_on,0,0,1,,,,,,,,0,,,77,85
170640,note_on,15,0,2,,,,,,,,1,,,76,64
170640,note_on,15,0,3,,,,,,,,2,,,81,64
170640,note_on,15,0,5,,,,,,,,4,,,57,49
170640,note_on,30,0,1,,,,,,,,0,,,76,0
170640,note_on,15,0,4,,,,,,,,3,,,69,49
170670,note_on,0,0,1,,,,,,,,0,,,76,85
170670,note_on,30,0,1,,,,,,,,0,,,77,0
170700,note_on,30,0,1,,,,,,,,0,,,76,0
170700,note_on,0,0,1,,,,,,,,0,,,77,85
170730,note_on,0,0,1,,,,,,,,0,,,76,85
170730,note_on,30,0,1,,,,,,,,0,,,77,0
170760,note_on,30,0,1,,,,,,,,0,,,76,0
170760,note_on,0,0,1,,,,,,,,0,,,77,85
170790,note_on,0,0,1,,,,,,,,0,,,76,85
170790,note_on,30,0,1,,,,,,,,0,,,77,0
170865,note_on,225,0,5,,,,,,,,4,,,57,0
170865,note_on,225,0,2,,,,,,,,1,,,76,0
170865,note_on,225,0,4,,,,,,,,3,,,69,0
170865,note_on,225,0,3,,,,,,,,2,,,81,0
170880,note_on,15,0,5,,,,,,,,4,,,45,49
170880,note_on,15,0,2,,,,,,,,1,,,73,64
170880,note_on,15,0,3,,,,,,,,2,,,76,64
170880,note_on,15,0,4,,,,,,,,3,,,57,49
171105,note_on,225,0,5,,,,,,,,4,,,45,0
171105,note_on,225,0,2,,,,,,,,1,,,73,0
171105,note_on,315,0,1,,,,,,,,0,,,76,0
171105,note_on,225,0,4,,,,,,,,3,,,57,0
171105,note_on,225,0,3,,,,,,,,2,,,76,0
171120,note_on,15,0,5,,,,,,,,4,,,45,49
171120,note_on,15,0,3,,,,,,,,2,,,73,64
171120,note_on,15,0,2,,,,,,,,1,,,69,64
171120,note_on,15,0,1,,,,,,,,0,,,74,85
171120,note_on,15,0,4,,,,,,,,3,,,57,49
171235,note_on,115,0,1,,,,,,,,0,,,74,0
171240,note_on,5,0,1,,,,,,,,0,,,76,85
171345,note_on,225,0,4,,,,,,,,3,,,57,0
171345,note_on,225,0,3,,,,,,,,2,,,73,0
171345,note_on,225,0,2,,,,,,,,1,,,69,0
171345,note_on,225,0,5,,,,,,,,4,,,45,0
171355,note_on,115,0,1,,,,,,,,0,,,76,0
171360,note_on,15,0,3,,,,,,,,2,,,74,64
171360,note_on,5,0,1,,,,,,,,0,,,76,85
171360,note_on,15,0,4,,,,,,,,3,,,62,49
171360,note_on,15,0,5,,,,,,,,4,,,50,49
171360,note_on,15,0,2,,,,,,,,1,,,65,64
171475,note_on,115,0,1,,,,,,,,0,,,76,0
171480,note_on,5,0,1,,,,,,,,0,,,74,85
172685,note_on,1325,0,5,,,,,,,,4,,,50,0
172685,note_on,1325,0,2,,,,,,,,1,,,65,0
172685,note_on,1325,0,4,,,,,,,,3,,,62,0
172685,note_on,1325,0,3,,,,,,,,2,,,74,0
172725,note_on,1245,0,1,,,,,,,,0,,,74,0
172800,note_on,115,0,5,,,,,,,,4,,,43,49
172800,note_on,115,0,4,,,,,,,,3,,,55,49
172800,note_on,75,0,1,,,,,,,,0,,,86,85
173025,note_on,225,0,5,,,,,,,,4,,,43,0
173025,note_on,225,0,4,,,,,,,,3,,,55,0
173040,note_on,15,0,5,,,,,,,,4,,,43,49
173040,note_on,15,0,4,,,,,,,,3,,,55,49
173040,note_on,355,0,3,,,,,,,,2,,,71,64
173245,note_on,445,0,1,,,,,,,,0,,,86,0
173265,note_on,225,0,5,,,,,,,,4,,,43,0
173265,note_on,225,0,3,,,,,,,,2,,,71,0
173265,note_on,225,0,4,,,,,,,,3,,,55,0
173280,note_on,15,0,4,,,,,,,,3,,,55,49
173280,note_on,15,0,3,,,,,,,,2,,,74,64
173280,note_on,35,0,1,,,,,,,,0,,,83,85
173280,note_on,15,0,5,,,,,,,,4,,,43,49
173505,note_on,225,0,4,,,,,,,,3,,,55,0
173505,note_on,225,0,3,,,,,,,,2,,,74,0
173505,note_on,225,0,5,,,,,,,,4,,,43,0
173520,note_on,15,0,4,,,,,,,,3,,,55,49
173520,note_on,15,0,3,,,,,,,,2,,,79,64
173520,note_on,15,0,5,,,,,,,,4,,,43,49
173725,note_on,445,0,1,,,,,,,,0,,,83,0
173745,note_on,225,0,4,,,,,,,,3,,,55,0
173745,note_on,225,0,3,,,,,,,,2,,,79,0
173745,note_on,225,0,5,,,,,,,,4,,,43,0
173760,note_on,15,0,3,,,,,,,,2,,,74,64
173760,note_on,15,0,4,,,,,,,,3,,,55,49
173760,note_on,15,0,5,,,,,,,,4,,,43,49
173760,note_on,35,0,1,,,,,,,,0,,,77,85
173985,note_on,225,0,5,,,,,,,,4,,,43,0
173985,note_on,225,0,4,,,,,,,,3,,,55,0
173985,note_on,225,0,3,,,,,,,,2,,,74,0
174000,note_on,15,0,3,,,,,,,,2,,,71,64
174000,note_on,15,0,5,,,,,,,,4,,,43,49
174000,note_on,15,0,4,,,,,,,,3,,,55,49
174205,note_on,445,0,1,,,,,,,,0,,,77,0
174225,note_on,225,0,4,,,,,,,,3,,,55,0
174225,note_on,225,0,5,,,,,,,,4,,,43,0
174225,note_on,225,0,3,,,,,,,,2,,,71,0
174240,note_on,15,0,3,,,,,,,,2,,,67,64
174240,note_on,15,0,4,,,,,,,,3,,,60,49
174240,note_on,15,0,5,,,,,,,,4,,,48,49
174240,note_on,35,0,1,,,,,,,,0,,,75,85
174465,note_on,225,0,4,,,,,,,,3,,,60,0
174465,note_on,225,0,5,,,,,,,,4,,,48,0
174480,note_on,1795,0,2,,,,,,,,1,,,67,64
174480,note_on,15,0,5,,,,,,,,4,,,48,49
174480,note_on,15,0,4,,,,,,,,3,,,60,49
174685,note_on,445,0,3,,,,,,,,2,,,67,0
174705,note_on,225,0,2,,,,,,,,1,,,67,0
174705,note_on,225,0,5,,,,,,,,4,,,48,0
174705,note_on,225,0,4,,,,,,,,3,,,60,0
174720,note_on,15,0,4,,,,,,,,3,,,60,49
174720,note_on,15,0,2,,,,,,,,1,,,72,64
174720,note_on,15,0,5,,,,,,,,4,,,48,49
174905,note_on,665,0,1,,,,,,,,0,,,75,0
174945,note_on,225,0,5,,,,,,,,4,,,48,0
174945,note_on,225,0,4,,,,,,,,3,,,60,0
174945,note_on,225,0,2,,,,,,,,1,,,72,0
174960,note_on,15,0,4,,,,,,,,3,,,60,49
174960,note_on,55,0,1,,,,,,,,0,,,74,85
174960,note_on,15,0,5,,,,,,,,4,,,48,49
174960,note_on,15,0,2,,,,,,,,1,,,75,64
175185,note_on,225,0,1,,,,,,,,0,,,74,0
175185,note_on,225,0,5,,,,,,,,4,,,48,0
175185,note_on,225,0,2,,,,,,,,1,,,75,0
175185,note_on,225,0,4,,,,,,,,3,,,60,0
175200,note_on,15,0,2,,,,,,,,1,,,72,64
175200,note_on,15,0,1,,,,,,,,0,,,72,85
175200,note_on,15,0,4,,,,,,,,3,,,60,49
175200,note_on,15,0,5,,,,,,,,4,,,48,49
175425,note_on,225,0,5,,,,,,,,4,,,48,0
175425,note_on,225,0,4,,,,,,,,3,,,60,0
175425,note_on,225,0,2,,,,,,,,1,,,72,0
175440,note_on,15,0,4,,,,,,,,3,,,60,49
175440,note_on,15,0,2,,,,,,,,1,,,67,64
175440,note_on,15,0,5,,,,,,,,4,,,48,49
175645,note_on,445,0,1,,,,,,,,0,,,72,0
175665,note_on,225,0,2,,,,,,,,1,,,67,0
175665,note_on,225,0,5,,,,,,,,4,,,48,0
175665,note_on,225,0,4,,,,,,,,3,,,60,0
175680,note_on,35,0,1,,,,,,,,0,,,84,85
175680,note_on,15,0,2,,,,,,,,1,,,69,64
175680,note_on,15,0,4,,,,,,,,3,,,53,49
175680,note_on,15,0,5,,,,,,,,4,,,41,49
175905,note_on,225,0,4,,,,,,,,3,,,53,0
175905,note_on,225,0,5,,,,,,,,4,,,41,0
175920,note_on,1235,0,3,,,,,,,,2,,,69,64
175920,note_on,15,0,5,,,,,,,,4,,,41,49
175920,note_on,15,0,4,,,,,,,,3,,,53,49
176125,note_on,445,0,1,,,,,,,,0,,,84,0
176125,note_on,445,0,2,,,,,,,,1,,,69,0
176145,note_on,225,0,3,,,,,,,,2,,,69,0
176145,note_on,225,0,5,,,,,,,,4,,,41,0
176145,note_on,225,0,4,,,,,,,,3,,,53,0
176160,note_on,15,0,5,,,,,,,,4,,,41,49
176160,note_on,35,0,1,,,,,,,,0,,,81,85
176160,note_on,15,0,3,,,,,,,,2,,,72,64
176160,note_on,15,0,4,,,,,,,,3,,,53,49
176385,note_on,225,0,5,,,,,,,,4,,,41,0
176385,note_on,225,0,3,,,,,,,,2,,,72,0
176385,note_on,225,0,4,,,,,,,,3,,,53,0
176400,note_on,15,0,5,,,,,,,,4,,,41,49
176400,note_on,15,0,3,,,,,,,,2,,,77,64
176400,note_on,15,0,4,,,,,,,,3,,,53,49
176605,note_on,445,0,1,,,,,,,,0,,,81,0
176625,note_on,225,0,3,,,,,,,,2,,,77,0
176625,note_on,225,0,4,,,,,,,,3,,,53,0
176625,note_on,225,0,5,,,,,,,,4,,,41,0
176640,note_on,15,0,4,,,,,,,,3,,,53,49
176640,note_on,15,0,5,,,,,,,,4,,,41,49
176640,note_on,15,0,3,,,,,,,,2,,,72,64
176640,note_on,35,0,1,,,,,,,,0,,,75,85
176865,note_on,225,0,3,,,,,,,,2,,,72,0
176865,note_on,225,0,4,,,,,,,,3,,,53,0
176865,note_on,225,0,5,,,,,,,,4,,,41,0
176880,note_on,15,0,5,,,,,,,,4,,,41,49
176880,note_on,15,0,3,,,,,,,,2,,,69,64
176880,note_on,15,0,4,,,,,,,,3,,,53,49
177085,note_on,445,0,1,,,,,,,,0,,,75,0
177105,note_on,225,0,3,,,,,,,,2,,,69,0
177105,note_on,225,0,5,,,,,,,,4,,,41,0
177105,note_on,225,0,4,,,,,,,,3,,,53,0
177120,note_on,15,0,5,,,,,,,,4,,,46,49
177120,note_on,15,0,3,,,,,,,,2,,,65,64
177120,note_on,35,0,1,,,,,,,,0,,,75,85
177120,note_on,15,0,4,,,,,,,,3,,,58,49
177150,note_on,0,0,1,,,,,,,,0,,,74,85
177150,note_on,30,0,1,,,,,,,,0,,,75,0
177180,note_on,30,0,1,,,,,,,,0,,,74,0
177180,note_on,0,0,1,,,,,,,,0,,,75,85
177210,note_on,30,0,1,,,,,,,,0,,,75,0
177210,note_on,0,0,1,,,,,,,,0,,,74,85
177240,note_on,30,0,1,,,,,,,,0,,,74,0
177240,note_on,0,0,1,,,,,,,,0,,,75,85
177270,note_on,30,0,1,,,,,,,,0,,,75,0
177270,note_on,0,0,1,,,,,,,,0,,,74,85
177300,note_on,30,0,1,,,,,,,,0,,,74,0
177300,note_on,0,0,1,,,,,,,,0,,,75,85
177330,note_on,30,0,1,,,,,,,,0,,,75,0
177330,note_on,0,0,1,,,,,,,,0,,,74,85
177345,note_on,225,0,4,,,,,,,,3,,,58,0
177345,note_on,225,0,5,,,,,,,,4,,,46,0
177360,note_on,1235,0,2,,,,,,,,1,,,65,64
177360,note_on,15,0,5,,,,,,,,4,,,46,49
177360,note_on,0,0,1,,,,,,,,0,,,75,85
177360,note_on,15,0,4,,,,,,,,3,,,58,49
177360,note_on,30,0,1,,,,,,,,0,,,74,0
177390,note_on,0,0,1,,,,,,,,0,,,74,85
177390,note_on,30,0,1,,,,,,,,0,,,75,0
177420,note_on,30,0,1,,,,,,,,0,,,74,0
177420,note_on,0,0,1,,,,,,,,0,,,75,85
177450,note_on,30,0,1,,,,,,,,0,,,75,0
177450,note_on,0,0,1,,,,,,,,0,,,74,85
177480,note_on,30,0,1,,,,,,,,0,,,74,0
177480,note_on,0,0,1,,,,,,,,0,,,75,85
177510,note_on,30,0,1,,,,,,,,0,,,75,0
177510,note_on,0,0,1,,,,,,,,0,,,74,85
177565,note_on,445,0,3,,,,,,,,2,,,65,0
177585,note_on,225,0,5,,,,,,,,4,,,46,0
177585,note_on,225,0,4,,,,,,,,3,,,58,0
177585,note_on,225,0,2,,,,,,,,1,,,65,0
177600,note_on,15,0,4,,,,,,,,3,,,58,49
177600,note_on,15,0,2,,,,,,,,1,,,70,64
177600,note_on,15,0,5,,,,,,,,4,,,46,49
177825,note_on,225,0,4,,,,,,,,3,,,58,0
177825,note_on,315,0,1,,,,,,,,0,,,74,0
177825,note_on,225,0,2,,,,,,,,1,,,70,0
177825,note_on,225,0,5,,,,,,,,4,,,46,0
177840,note_on,15,0,4,,,,,,,,3,,,58,49
177840,note_on,15,0,1,,,,,,,,0,,,72,85
177840,note_on,15,0,2,,,,,,,,1,,,74,64
177840,note_on,15,0,5,,,,,,,,4,,,46,49
178065,note_on,225,0,5,,,,,,,,4,,,46,0
178065,note_on,225,0,1,,,,,,,,0,,,72,0
178065,note_on,225,0,2,,,,,,,,1,,,74,0
178065,note_on,225,0,4,,,,,,,,3,,,58,0
178080,note_on,15,0,5,,,,,,,,4,,,46,49
178080,note_on,15,0,1,,,,,,,,0,,,70,85
178080,note_on,15,0,4,,,,,,,,3,,,58,49
178080,note_on,15,0,2,,,,,,,,1,,,70,64
178305,note_on,225,0,4,,,,,,,,3,,,58,0
178305,note_on,225,0,5,,,,,,,,4,,,46,0
178305,note_on,225,0,2,,,,,,,,1,,,70,0
178320,note_on,15,0,4,,,,,,,,3,,,58,49
178320,note_on,15,0,2,,,,,,,,1,,,65,64
178320,note_on,15,0,5,,,,,,,,4,,,46,49
178525,note_on,445,0,1,,,,,,,,0,,,70,0
178545,note_on,225,0,4,,,,,,,,3,,,58,0
178545,note_on,225,0,2,,,,,,,,1,,,65,0
178545,note_on,225,0,5,,,,,,,,4,,,46,0
178560,note_on,15,0,4,,,,,,,,3,,,58,49
178560,note_on,15,0,5,,,,,,,,4,,,46,49
178560,note_on,35,0,1,,,,,,,,0,,,74,85
178560,note_on,15,0,2,,,,,,,,1,,,67,64
178785,note_on,225,0,4,,,,,,,,3,,,58,0
178785,note_on,225,0,5,,,,,,,,4,,,46,0
178800,note_on,1235,0,3,,,,,,,,2,,,67,64
178800,note_on,15,0,5,,,,,,,,4,,,46,49
178800,note_on,15,0,4,,,,,,,,3,,,58,49
179005,note_on,445,0,2,,,,,,,,1,,,67,0
179005,note_on,445,0,1,,,,,,,,0,,,74,0
179025,note_on,225,0,5,,,,,,,,4,,,46,0
179025,note_on,225,0,4,,,,,,,,3,,,58,0
179025,note_on,225,0,3,,,,,,,,2,,,67,0
179040,note_on,15,0,4,,,,,,,,3,,,58,49
179040,note_on,15,0,5,,,,,,,,4,,,46,49
179040,note_on,15,0,3,,,,,,,,2,,,70,64
179040,note_on,35,0,1,,,,,,,,0,,,79,85
179265,note_on,225,0,5,,,,,,,,4,,,46,0
179265,note_on,225,0,3,,,,,,,,2,,,70,0
179265,note_on,225,0,4,,,,,,,,3,,,58,0
179280,note_on,15,0,4,,,,,,,,3,,,58,49
179280,note_on,15,0,5,,,,,,,,4,,,46,49
179280,note_on,15,0,3,,,,,,,,2,,,74,64
179485,note_on,445,0,1,,,,,,,,0,,,79,0
179505,note_on,225,0,4,,,,,,,,3,,,58,0
179505,note_on,225,0,5,,,,,,,,4,,,46,0
179505,note_on,225,0,3,,,,,,,,2,,,74,0
179520,note_on,15,0,5,,,,,,,,4,,,46,49
179520,note_on,35,0,1,,,,,,,,0,,,82,85
179520,note_on,15,0,3,,,,,,,,2,,,70,64
179520,note_on,15,0,4,,,,,,,,3,,,58,49
179745,note_on,225,0,5,,,,,,,,4,,,46,0
179745,note_on,225,0,4,,,,,,,,3,,,58,0
179745,note_on,225,0,3,,,,,,,,2,,,70,0
179760,note_on,15,0,3,,,,,,,,2,,,67,64
179760,note_on,15,0,4,,,,,,,,3,,,58,49
179760,note_on,15,0,5,,,,,,,,4,,,46,49
179965,note_on,445,0,1,,,,,,,,0,,,82,0
179985,note_on,225,0,3,,,,,,,,2,,,67,0
179985,note_on,225,0,4,,,,,,,,3,,,58,0
179985,note_on,225,0,5,,,,,,,,4,,,46,0
180000,note_on,15,0,3,,,,,,,,2,,,63,64
180000,note_on,15,0,4,,,,,,,,3,,,60,49
180000,note_on,15,0,5,,,,,,,,4,,,48,49
180000,note_on,35,0,1,,,,,,,,0,,,80,85
180225,note_on,225,0,4,,,,,,,,3,,,60,0
180225,note_on,225,0,5,,,,,,,,4,,,48,0
180240,note_on,15,0,4,,,,,,,,3,,,60,49
180240,note_on,1235,0,2,,,,,,,,1,,,68,64
180240,note_on,15,0,5,,,,,,,,4,,,48,49
180445,note_on,445,0,3,,,,,,,,2,,,63,0
180465,note_on,225,0,4,,,,,,,,3,,,60,0
180465,note_on,225,0,2,,,,,,,,1,,,68,0
180465,note_on,225,0,5,,,,,,,,4,,,48,0
180480,note_on,15,0,4,,,,,,,,3,,,60,49
180480,note_on,15,0,2,,,,,,,,1,,,72,64
180480,note_on,15,0,5,,,,,,,,4,,,48,49
180665,note_on,665,0,1,,,,,,,,0,,,80,0
180705,note_on,225,0,4,,,,,,,,3,,,60,0
180705,note_on,225,0,5,,,,,,,,4,,,48,0
180705,note_on,225,0,2,,,,,,,,1,,,72,0
180720,note_on,15,0,5,,,,,,,,4,,,48,49
180720,note_on,55,0,1,,,,,,,,0,,,82,85
180720,note_on,15,0,4,,,,,,,,3,,,60,49
180720,note_on,15,0,2,,,,,,,,1,,,75,64
180945,note_on,225,0,2,,,,,,,,1,,,75,0
180945,note_on,225,0,5,,,,,,,,4,,,48,0
180945,note_on,225,0,1,,,,,,,,0,,,82,0
180945,note_on,225,0,4,,,,,,,,3,,,60,0
180960,note_on,15,0,4,,,,,,,,3,,,60,49
180960,note_on,15,0,2,,,,,,,,1,,,72,64
180960,note_on,15,0,5,,,,,,,,4,,,48,49
180960,note_on,15,0,1,,,,,,,,0,,,84,85
181185,note_on,225,0,4,,,,,,,,3,,,60,0
181185,note_on,225,0,2,,,,,,,,1,,,72,0
181185,note_on,225,0,5,,,,,,,,4,,,48,0
181200,note_on,15,0,4,,,,,,,,3,,,60,49
181200,note_on,15,0,2,,,,,,,,1,,,68,64
181200,note_on,15,0,5,,,,,,,,4,,,48,49
181405,note_on,445,0,1,,,,,,,,0,,,84,0
181425,note_on,225,0,4,,,,,,,,3,,,60,0
181425,note_on,225,0,2,,,,,,,,1,,,68,0
181425,note_on,225,0,5,,,,,,,,4,,,48,0
181440,note_on,35,0,1,,,,,,,,0,,,82,85
181440,note_on,15,0,4,,,,,,,,3,,,55,49
181440,note_on,15,0,5,,,,,,,,4,,,43,49
181440,note_on,15,0,2,,,,,,,,1,,,67,64
181665,note_on,225,0,2,,,,,,,,1,,,67,0
181665,note_on,225,0,5,,,,,,,,4,,,43,0
181665,note_on,225,0,1,,,,,,,,0,,,82,0
181665,note_on,225,0,4,,,,,,,,3,,,55,0
181680,note_on,15,0,2,,,,,,,,1,,,67,64
181680,note_on,15,0,5,,,,,,,,4,,,43,49
181680,note_on,15,0,1,,,,,,,,0,,,79,85
181680,note_on,15,0,4,,,,,,,,3,,,55,49
181680,note_on,1235,0,3,,,,,,,,2,,,62,64
181905,note_on,225,0,5,,,,,,,,4,,,43,0
181905,note_on,225,0,3,,,,,,,,2,,,62,0
181905,note_on,225,0,4,,,,,,,,3,,,55,0
181905,note_on,225,0,2,,,,,,,,1,,,67,0
181905,note_on,225,0,1,,,,,,,,0,,,79,0
181920,note_on,15,0,5,,,,,,,,4,,,50,49
181920,note_on,15,0,3,,,,,,,,2,,,66,64
181920,note_on,15,0,2,,,,,,,,1,,,69,64
181920,note_on,15,0,4,,,,,,,,3,,,62,49
181920,note_on,15,0,1,,,,,,,,0,,,79,85
181950,note_on,0,0,1,,,,,,,,0,,,78,85
181950,note_on,30,0,1,,,,,,,,0,,,79,0
181980,note_on,0,0,1,,,,,,,,0,,,79,85
181980,note_on,30,0,1,,,,,,,,0,,,78,0
182010,note_on,0,0,1,,,,,,,,0,,,78,85
182010,note_on,30,0,1,,,,,,,,0,,,79,0
182040,note_on,0,0,1,,,,,,,,0,,,79,85
182040,note_on,30,0,1,,,,,,,,0,,,78,0
182070,note_on,30,0,1,,,,,,,,0,,,79,0
182070,note_on,0,0,1,,,,,,,,0,,,78,85
182100,note_on,30,0,1,,,,,,,,0,,,78,0
182100,note_on,0,0,1,,,,,,,,0,,,79,85
182130,note_on,30,0,1,,,,,,,,0,,,79,0
182130,note_on,0,0,1,,,,,,,,0,,,78,85
182145,note_on,225,0,5,,,,,,,,4,,,50,0
182145,note_on,225,0,4,,,,,,,,3,,,62,0
182145,note_on,225,0,2,,,,,,,,1,,,69,0
182145,note_on,225,0,3,,,,,,,,2,,,66,0
182160,note_on,15,0,4,,,,,,,,3,,,62,49
182160,note_on,0,0,1,,,,,,,,0,,,79,85
182160,note_on,15,0,2,,,,,,,,1,,,74,64
182160,note_on,30,0,1,,,,,,,,0,,,78,0
182160,note_on,15,0,5,,,,,,,,4,,,50,49
182160,note_on,15,0,3,,,,,,,,2,,,69,64
182190,note_on,30,0,1,,,,,,,,0,,,79,0
182190,note_on,0,0,1,,,,,,,,0,,,78,85
182220,note_on,30,0,1,,,,,,,,0,,,78,0
182220,note_on,0,0,1,,,,,,,,0,,,79,85
182250,note_on,30,0,1,,,,,,,,0,,,79,0
182250,note_on,0,0,1,,,,,,,,0,,,78,85
182280,note_on,0,0,1,,,,,,,,0,,,79,85
182280,note_on,30,0,1,,,,,,,,0,,,78,0
182310,note_on,30,0,1,,,,,,,,0,,,79,0
182310,note_on,0,0,1,,,,,,,,0,,,78,85
182385,note_on,225,0,5,,,,,,,,4,,,50,0
182385,note_on,225,0,4,,,,,,,,3,,,62,0
182385,note_on,225,0,2,,,,,,,,1,,,74,0
182385,note_on,225,0,3,,,,,,,,2,,,69,0
182400,note_on,15,0,5,,,,,,,,4,,,38,49
182400,note_on,15,0,3,,,,,,,,2,,,74,64
182400,note_on,15,0,2,,,,,,,,1,,,69,64
182400,note_on,15,0,4,,,,,,,,3,,,50,49
182625,note_on,225,0,2,,,,,,,,1,,,69,0
182625,note_on,225,0,4,,,,,,,,3,,,50,0
182625,note_on,315,0,1,,,,,,,,0,,,78,0
182625,note_on,225,0,5,,,,,,,,4,,,38,0
182625,note_on,225,0,3,,,,,,,,2,,,74,0
182640,note_on,15,0,2,,,,,,,,1,,,74,64
182640,note_on,15,0,5,,,,,,,,4,,,38,49
182640,note_on,15,0,4,,,,,,,,3,,,50,49
182640,note_on,15,0,3,,,,,,,,2,,,69,64
182640,note_on,15,0,1,,,,,,,,0,,,79,85
182865,note_on,225,0,2,,,,,,,,1,,,74,0
182865,note_on,225,0,1,,,,,,,,0,,,79,0
182865,note_on,225,0,4,,,,,,,,3,,,50,0
182865,note_on,225,0,3,,,,,,,,2,,,69,0
182865,note_on,225,0,5,,,,,,,,4,,,38,0
182880,note_on,15,0,5,,,,,,,,4,,,43,49
182880,note_on,15,0,4,,,,,,,,3,,,55,49
182880,note_on,15,0,1,,,,,,,,0,,,79,85
182880,note_on,15,0,2,,,,,,,,1,,,70,64
182880,note_on,15,0,3,,,,,,,,2,,,70,64
184205,note_on,1325,0,5,,,,,,,,4,,,43,0
184205,note_on,1325,0,4,,,,,,,,3,,,55,0
184205,note_on,1325,0,1,,,,,,,,0,,,79,0
184205,note_on,1325,0,2,,,,,,,,1,,,70,0
184205,note_on,1325,0,3,,,,,,,,2,,,70,0
184320,note_on,115,0,1,,,,,,,,0,,,86,85
184320,note_on,115,0,4,,,,,,,,3,,,55,49
184320,note_on,115,0,5,,,,,,,,4,,,43,49
184545,note_on,225,0,4,,,,,,,,3,,,55,0
184545,note_on,225,0,5,,,,,,,,4,,,43,0
184560,note_on,15,0,4,,,,,,,,3,,,55,49
184560,note_on,15,0,5,,,,,,,,4,,,43,49
184560,note_on,355,0,3,,,,,,,,2,,,71,64
184765,note_on,445,0,1,,,,,,,,0,,,86,0
184785,note_on,225,0,3,,,,,,,,2,,,71,0
184785,note_on,225,0,5,,,,,,,,4,,,43,0
184785,note_on,225,0,4,,,,,,,,3,,,55,0
184800,note_on,15,0,3,,,,,,,,2,,,74,64
184800,note_on,15,0,5,,,,,,,,4,,,43,49
184800,note_on,35,0,1,,,,,,,,0,,,83,85
184800,note_on,15,0,4,,,,,,,,3,,,55,49
185025,note_on,225,0,4,,,,,,,,3,,,55,0
185025,note_on,225,0,5,,,,,,,,4,,,43,0
185025,note_on,225,0,3,,,,,,,,2,,,74,0
185040,note_on,15,0,4,,,,,,,,3,,,55,49
185040,note_on,15,0,5,,,,,,,,4,,,43,49
185040,note_on,15,0,3,,,,,,,,2,,,79,64
185245,note_on,445,0,1,,,,,,,,0,,,83,0
185265,note_on,225,0,4,,,,,,,,3,,,55,0
185265,note_on,225,0,5,,,,,,,,4,,,43,0
185265,note_on,225,0,3,,,,,,,,2,,,79,0
185280,note_on,15,0,4,,,,,,,,3,,,55,49
185280,note_on,35,0,1,,,,,,,,0,,,77,85
185280,note_on,15,0,5,,,,,,,,4,,,43,49
185280,note_on,15,0,3,,,,,,,,2,,,74,64
185505,note_on,225,0,4,,,,,,,,3,,,55,0
185505,note_on,225,0,5,,,,,,,,4,,,43,0
185505,note_on,225,0,3,,,,,,,,2,,,74,0
185520,note_on,15,0,4,,,,,,,,3,,,55,49
185520,note_on,15,0,5,,,,,,,,4,,,43,49
185520,note_on,15,0,3,,,,,,,,2,,,71,64
185725,note_on,445,0,1,,,,,,,,0,,,77,0
185745,note_on,225,0,3,,,,,,,,2,,,71,0
185745,note_on,225,0,5,,,,,,,,4,,,43,0
185745,note_on,225,0,4,,,,,,,,3,,,55,0
185760,note_on,35,0,1,,,,,,,,0,,,75,85
185760,note_on,15,0,4,,,,,,,,3,,,60,49
185760,note_on,15,0,5,,,,,,,,4,,,48,49
185760,note_on,15,0,3,,,,,,,,2,,,67,64
185985,note_on,225,0,5,,,,,,,,4,,,48,0
185985,note_on,225,0,4,,,,,,,,3,,,60,0
186000,note_on,1795,0,2,,,,,,,,1,,,67,64
186000,note_on,15,0,5,,,,,,,,4,,,48,49
186000,note_on,15,0,4,,,,,,,,3,,,60,49
186205,note_on,445,0,3,,,,,,,,2,,,67,0
186225,note_on,225,0,2,,,,,,,,1,,,67,0
186225,note_on,225,0,4,,,,,,,,3,,,60,0
186225,note_on,225,0,5,,,,,,,,4,,,48,0
186240,note_on,15,0,4,,,,,,,,3,,,60,49
186240,note_on,15,0,2,,,,,,,,1,,,72,64
186240,note_on,15,0,5,,,,,,,,4,,,48,49
186425,note_on,665,0,1,,,,,,,,0,,,75,0
186465,note_on,225,0,2,,,,,,,,1,,,72,0
186465,note_on,225,0,4,,,,,,,,3,,,60,0
186465,note_on,225,0,5,,,,,,,,4,,,48,0
186480,note_on,15,0,4,,,,,,,,3,,,60,49
186480,note_on,15,0,5,,,,,,,,4,,,48,49
186480,note_on,55,0,1,,,,,,,,0,,,74,85
186480,note_on,15,0,2,,,,,,,,1,,,75,64
186555,note_on,75,0,1,,,,,,,,0,,,74,0
186560,note_on,5,0,1,,,,,,,,0,,,75,85
186635,note_on,75,0,1,,,,,,,,0,,,75,0
186640,note_on,5,0,1,,,,,,,,0,,,74,85
186705,note_on,225,0,2,,,,,,,,1,,,75,0
186705,note_on,225,0,5,,,,,,,,4,,,48,0
186705,note_on,225,0,4,,,,,,,,3,,,60,0
186715,note_on,75,0,1,,,,,,,,0,,,74,0
186720,note_on,15,0,5,,,,,,,,4,,,48,49
186720,note_on,5,0,1,,,,,,,,0,,,72,85
186720,note_on,15,0,4,,,,,,,,3,,,60,49
186720,note_on,15,0,2,,,,,,,,1,,,72,64
186945,note_on,225,0,4,,,,,,,,3,,,60,0
186945,note_on,225,0,1,,,,,,,,0,,,72,0
186945,note_on,225,0,5,,,,,,,,4,,,48,0
186945,note_on,225,0,2,,,,,,,,1,,,72,0
186960,note_on,15,0,1,,,,,,,,0,,,71,85
186960,note_on,15,0,5,,,,,,,,4,,,48,49
186960,note_on,15,0,4,,,,,,,,3,,,60,49
186960,note_on,15,0,2,,,,,,,,1,,,67,64
186990,note_on,0,0,1,,,,,,,,0,,,72,85
186990,note_on,30,0,1,,,,,,,,0,,,71,0
187020,note_on,0,0,1,,,,,,,,0,,,74,85
187020,note_on,30,0,1,,,,,,,,0,,,72,0
187050,note_on,0,0,1,,,,,,,,0,,,75,85
187050,note_on,30,0,1,,,,,,,,0,,,74,0
187080,note_on,30,0,1,,,,,,,,0,,,75,0
187080,note_on,0,0,1,,,,,,,,0,,,77,85
187110,note_on,0,0,1,,,,,,,,0,,,79,85
187110,note_on,30,0,1,,,,,,,,0,,,77,0
187140,note_on,0,0,1,,,,,,,,0,,,81,85
187140,note_on,30,0,1,,,,,,,,0,,,79,0
187170,note_on,0,0,1,,,,,,,,0,,,83,85
187170,note_on,30,0,1,,,,,,,,0,,,81,0
187185,note_on,225,0,5,,,,,,,,4,,,48,0
187185,note_on,225,0,2,,,,,,,,1,,,67,0
187185,note_on,225,0,4,,,,,,,,3,,,60,0
187200,note_on,15,0,2,,,,,,,,1,,,69,64
187200,note_on,0,0,1,,,,,,,,0,,,84,85
187200,note_on,15,0,4,,,,,,,,3,,,53,49
187200,note_on,15,0,5,,,,,,,,4,,,41,49
187200,note_on,30,0,1,,,,,,,,0,,,83,0
187425,note_on,225,0,5,,,,,,,,4,,,41,0
187425,note_on,225,0,4,,,,,,,,3,,,53,0
187440,note_on,15,0,5,,,,,,,,4,,,41,49
187440,note_on,15,0,4,,,,,,,,3,,,53,49
187440,note_on,1235,0,3,,,,,,,,2,,,69,64
187535,note_on,335,0,1,,,,,,,,0,,,84,0
187560,note_on,25,0,1,,,,,,,,0,,,82,85
187620,note_on,0,0,1,,,,,,,,0,,,84,85
187620,note_on,60,0,1,,,,,,,,0,,,82,0
187645,note_on,445,0,2,,,,,,,,1,,,69,0
187665,note_on,225,0,4,,,,,,,,3,,,53,0
187665,note_on,225,0,5,,,,,,,,4,,,41,0
187665,note_on,225,0,3,,,,,,,,2,,,69,0
187680,note_on,60,0,1,,,,,,,,0,,,84,0
187680,note_on,0,0,1,,,,,,,,0,,,81,85
187680,note_on,15,0,4,,,,,,,,3,,,53,49
187680,note_on,15,0,3,,,,,,,,2,,,72,64
187680,note_on,15,0,5,,,,,,,,4,,,41,49
187905,note_on,225,0,4,,,,,,,,3,,,53,0
187905,note_on,225,0,3,,,,,,,,2,,,72,0
187905,note_on,225,0,5,,,,,,,,4,,,41,0
187920,note_on,15,0,3,,,,,,,,2,,,77,64
187920,note_on,15,0,4,,,,,,,,3,,,53,49
187920,note_on,15,0,5,,,,,,,,4,,,41,49
188015,note_on,335,0,1,,,,,,,,0,,,81,0
188040,note_on,25,0,1,,,,,,,,0,,,79,85
188100,note_on,60,0,1,,,,,,,,0,,,79,0
188100,note_on,0,0,1,,,,,,,,0,,,81,85
188145,note_on,225,0,5,,,,,,,,4,,,41,0
188145,note_on,225,0,4,,,,,,,,3,,,53,0
188145,note_on,225,0,3,,,,,,,,2,,,77,0
188160,note_on,15,0,3,,,,,,,,2,,,72,64
188160,note_on,60,0,1,,,,,,,,0,,,81,0
188160,note_on,15,0,4,,,,,,,,3,,,53,49
188160,note_on,15,0,5,,,,,,,,4,,,41,49
188160,note_on,0,0,1,,,,,,,,0,,,75,85
188385,note_on,225,0,3,,,,,,,,2,,,72,0
188385,note_on,225,0,5,,,,,,,,4,,,41,0
188385,note_on,225,0,4,,,,,,,,3,,,53,0
188400,note_on,15,0,5,,,,,,,,4,,,41,49
188400,note_on,15,0,3,,,,,,,,2,,,69,64
188400,note_on,15,0,4,,,,,,,,3,,,53,49
188495,note_on,335,0,1,,,,,,,,0,,,75,0
188520,note_on,25,0,1,,,,,,,,0,,,74,85
188580,note_on,60,0,1,,,,,,,,0,,,74,0
188580,note_on,0,0,1,,,,,,,,0,,,75,85
188625,note_on,225,0,3,,,,,,,,2,,,69,0
188625,note_on,225,0,5,,,,,,,,4,,,41,0
188625,note_on,225,0,4,,,,,,,,3,,,53,0
188640,note_on,0,0,1,,,,,,,,0,,,75,85
188640,note_on,60,0,1,,,,,,,,0,,,75,0
188640,note_on,15,0,3,,,,,,,,2,,,65,64
188640,note_on,15,0,4,,,,,,,,3,,,58,49
188640,note_on,15,0,5,,,,,,,,4,,,46,49
188670,note_on,0,0,1,,,,,,,,0,,,74,85
188670,note_on,30,0,1,,,,,,,,0,,,75,0
188700,note_on,30,0,1,,,,,,,,0,,,74,0
188700,note_on,0,0,1,,,,,,,,0,,,75,85
188730,note_on,0,0,1,,,,,,,,0,,,74,85
188730,note_on,30,0,1,,,,,,,,0,,,75,0
188760,note_on,30,0,1,,,,,,,,0,,,74,0
188760,note_on,0,0,1,,,,,,,,0,,,75,85
188790,note_on,30,0,1,,,,,,,,0,,,75,0
188790,note_on,0,0,1,,,,,,,,0,,,74,85
188820,note_on,0,0,1,,,,,,,,0,,,75,85
188820,note_on,30,0,1,,,,,,,,0,,,74,0
188850,note_on,0,0,1,,,,,,,,0,,,74,85
188850,note_on,30,0,1,,,,,,,,0,,,75,0
188865,note_on,225,0,4,,,,,,,,3,,,58,0
188865,note_on,225,0,5,,,,,,,,4,,,46,0
188880,note_on,0,0,1,,,,,,,,0,,,75,85
188880,note_on,1235,0,2,,,,,,,,1,,,65,64
188880,note_on,15,0,5,,,,,,,,4,,,46,49
188880,note_on,15,0,4,,,,,,,,3,,,58,49
188880,note_on,30,0,1,,,,,,,,0,,,74,0
188910,note_on,30,0,1,,,,,,,,0,,,75,0
188910,note_on,0,0,1,,,,,,,,0,,,74,85
188940,note_on,30,0,1,,,,,,,,0,,,74,0
188940,note_on,0,0,1,,,,,,,,0,,,75,85
188970,note_on,30,0,1,,,,,,,,0,,,75,0
188970,note_on,0,0,1,,,,,,,,0,,,74,85
189000,note_on,0,0,1,,,,,,,,0,,,75,85
189000,note_on,30,0,1,,,,,,,,0,,,74,0
189030,note_on,0,0,1,,,,,,,,0,,,74,85
189030,note_on,30,0,1,,,,,,,,0,,,75,0
189085,note_on,445,0,3,,,,,,,,2,,,65,0
189105,note_on,225,0,2,,,,,,,,1,,,65,0
189105,note_on,225,0,5,,,,,,,,4,,,46,0
189105,note_on,225,0,4,,,,,,,,3,,,58,0
189120,note_on,15,0,4,,,,,,,,3,,,58,49
189120,note_on,15,0,2,,,,,,,,1,,,70,64
189120,note_on,15,0,5,,,,,,,,4,,,46,49
189345,note_on,315,0,1,,,,,,,,0,,,74,0
189345,note_on,225,0,2,,,,,,,,1,,,70,0
189345,note_on,225,0,5,,,,,,,,4,,,46,0
189345,note_on,225,0,4,,,,,,,,3,,,58,0
189360,note_on,15,0,2,,,,,,,,1,,,74,64
189360,note_on,15,0,1,,,,,,,,0,,,72,85
189360,note_on,15,0,4,,,,,,,,3,,,58,49
189360,note_on,15,0,5,,,,,,,,4,,,46,49
189435,note_on,75,0,1,,,,,,,,0,,,72,0
189440,note_on,5,0,1,,,,,,,,0,,,74,85
189515,note_on,75,0,1,,,,,,,,0,,,74,0
189520,note_on,5,0,1,,,,,,,,0,,,72,85
189585,note_on,225,0,4,,,,,,,,3,,,58,0
189585,note_on,225,0,2,,,,,,,,1,,,74,0
189585,note_on,225,0,5,,,,,,,,4,,,46,0
189595,note_on,75,0,1,,,,,,,,0,,,72,0
189600,note_on,5,0,1,,,,,,,,0,,,70,85
189600,note_on,15,0,4,,,,,,,,3,,,58,49
189600,note_on,15,0,2,,,,,,,,1,,,70,64
189600,note_on,15,0,5,,,,,,,,4,,,46,49
189825,note_on,225,0,4,,,,,,,,3,,,58,0
189825,note_on,225,0,2,,,,,,,,1,,,70,0
189825,note_on,225,0,5,,,,,,,,4,,,46,0
189840,note_on,15,0,2,,,,,,,,1,,,65,64
189840,note_on,15,0,5,,,,,,,,4,,,46,49
189840,note_on,15,0,4,,,,,,,,3,,,58,49
189935,note_on,335,0,1,,,,,,,,0,,,70,0
190065,note_on,225,0,2,,,,,,,,1,,,65,0
190065,note_on,225,0,5,,,,,,,,4,,,46,0
190065,note_on,225,0,4,,,,,,,,3,,,58,0
190080,note_on,145,0,1,,,,,,,,0,,,74,85
190080,note_on,15,0,5,,,,,,,,4,,,46,49
190080,note_on,15,0,2,,,,,,,,1,,,67,64
190080,note_on,15,0,4,,,,,,,,3,,,58,49
190305,note_on,225,0,5,,,,,,,,4,,,46,0
190305,note_on,225,0,4,,,,,,,,3,,,58,0
190320,note_on,15,0,5,,,,,,,,4,,,46,49
190320,note_on,1235,0,3,,,,,,,,2,,,67,64
190320,note_on,15,0,4,,,,,,,,3,,,58,49
190525,note_on,445,0,2,,,,,,,,1,,,67,0
190525,note_on,445,0,1,,,,,,,,0,,,74,0
190545,note_on,225,0,4,,,,,,,,3,,,58,0
190545,note_on,225,0,3,,,,,,,,2,,,67,0
190545,note_on,225,0,5,,,,,,,,4,,,46,0
190560,note_on,35,0,1,,,,,,,,0,,,79,85
190560,note_on,15,0,3,,,,,,,,2,,,70,64
190560,note_on,15,0,4,,,,,,,,3,,,58,49
190560,note_on,15,0,5,,,,,,,,4,,,46,49
190785,note_on,225,0,4,,,,,,,,3,,,58,0
190785,note_on,225,0,3,,,,,,,,2,,,70,0
190785,note_on,225,0,5,,,,,,,,4,,,46,0
190800,note_on,15,0,5,,,,,,,,4,,,46,49
190800,note_on,15,0,3,,,,,,,,2,,,74,64
190800,note_on,15,0,4,,,,,,,,3,,,58,49
191005,note_on,445,0,1,,,,,,,,0,,,79,0
191025,note_on,225,0,3,,,,,,,,2,,,74,0
191025,note_on,225,0,5,,,,,,,,4,,,46,0
191025,note_on,225,0,4,,,,,,,,3,,,58,0
191040,note_on,15,0,4,,,,,,,,3,,,58,49
191040,note_on,15,0,5,,,,,,,,4,,,46,49
191040,note_on,35,0,1,,,,,,,,0,,,82,85
191040,note_on,15,0,3,,,,,,,,2,,,70,64
191265,note_on,225,0,5,,,,,,,,4,,,46,0
191265,note_on,225,0,3,,,,,,,,2,,,70,0
191265,note_on,225,0,4,,,,,,,,3,,,58,0
191280,note_on,15,0,5,,,,,,,,4,,,46,49
191280,note_on,15,0,4,,,,,,,,3,,,58,49
191280,note_on,15,0,3,,,,,,,,2,,,67,64
191485,note_on,445,0,1,,,,,,,,0,,,82,0
191505,note_on,225,0,4,,,,,,,,3,,,58,0
191505,note_on,225,0,5,,,,,,,,4,,,46,0
191505,note_on,225,0,3,,,,,,,,2,,,67,0
191520,note_on,15,0,3,,,,,,,,2,,,63,64
191520,note_on,15,0,4,,,,,,,,3,,,60,49
191520,note_on,15,0,5,,,,,,,,4,,,48,49
191520,note_on,35,0,1,,,,,,,,0,,,80,85
191745,note_on,225,0,5,,,,,,,,4,,,48,0
191745,note_on,225,0,4,,,,,,,,3,,,60,0
191760,note_on,15,0,4,,,,,,,,3,,,60,49
191760,note_on,1235,0,2,,,,,,,,1,,,68,64
191760,note_on,15,0,5,,,,,,,,4,,,48,49
191855,note_on,335,0,1,,,,,,,,0,,,80,0
191880,note_on,25,0,1,,,,,,,,0,,,79,85
191965,note_on,445,0,3,,,,,,,,2,,,63,0
191985,note_on,225,0,2,,,,,,,,1,,,68,0
191985,note_on,225,0,5,,,,,,,,4,,,48,0
191985,note_on,225,0,4,,,,,,,,3,,,60,0
191995,note_on,115,0,1,,,,,,,,0,,,79,0
192000,note_on,5,0,1,,,,,,,,0,,,80,85
192000,note_on,15,0,2,,,,,,,,1,,,72,64
192000,note_on,15,0,4,,,,,,,,3,,,60,49
192000,note_on,15,0,5,,,,,,,,4,,,48,49
192225,note_on,225,0,2,,,,,,,,1,,,72,0
192225,note_on,225,0,4,,,,,,,,3,,,60,0
192225,note_on,225,0,5,,,,,,,,4,,,48,0
192240,note_on,15,0,4,,,,,,,,3,,,60,49
192240,note_on,15,0,2,,,,,,,,1,,,75,64
192240,note_on,15,0,5,,,,,,,,4,,,48,49
192335,note_on,335,0,1,,,,,,,,0,,,80,0
192360,note_on,25,0,1,,,,,,,,0,,,82,85
192465,note_on,225,0,2,,,,,,,,1,,,75,0
192465,note_on,225,0,5,,,,,,,,4,,,48,0
192465,note_on,225,0,4,,,,,,,,3,,,60,0
192475,note_on,115,0,1,,,,,,,,0,,,82,0
192480,note_on,15,0,2,,,,,,,,1,,,72,64
192480,note_on,5,0,1,,,,,,,,0,,,84,85
192480,note_on,15,0,4,,,,,,,,3,,,60,49
192480,note_on,15,0,5,,,,,,,,4,,,48,49
192705,note_on,225,0,5,,,,,,,,4,,,48,0
192705,note_on,225,0,4,,,,,,,,3,,,60,0
192705,note_on,225,0,2,,,,,,,,1,,,72,0
192720,note_on,15,0,5,,,,,,,,4,,,48,49
192720,note_on,15,0,4,,,,,,,,3,,,60,49
192720,note_on,15,0,2,,,,,,,,1,,,68,64
192925,note_on,445,0,1,,,,,,,,0,,,84,0
192945,note_on,225,0,5,,,,,,,,4,,,48,0
192945,note_on,225,0,4,,,,,,,,3,,,60,0
192945,note_on,225,0,2,,,,,,,,1,,,68,0
192960,note_on,15,0,4,,,,,,,,3,,,55,49
192960,note_on,15,0,2,,,,,,,,1,,,67,64
192960,note_on,15,0,5,,,,,,,,4,,,43,49
192960,note_on,35,0,1,,,,,,,,0,,,82,85
193185,note_on,225,0,5,,,,,,,,4,,,43,0
193185,note_on,225,0,4,,,,,,,,3,,,55,0
193185,note_on,225,0,2,,,,,,,,1,,,67,0
193200,note_on,1235,0,3,,,,,,,,2,,,62,64
193200,note_on,15,0,2,,,,,,,,1,,,67,64
193200,note_on,15,0,4,,,,,,,,3,,,55,49
193200,note_on,15,0,5,,,,,,,,4,,,43,49
193295,note_on,335,0,1,,,,,,,,0,,,82,0
193320,note_on,25,0,1,,,,,,,,0,,,79,85
193425,note_on,225,0,3,,,,,,,,2,,,62,0
193425,note_on,225,0,4,,,,,,,,3,,,55,0
193425,note_on,225,0,2,,,,,,,,1,,,67,0
193425,note_on,225,0,5,,,,,,,,4,,,43,0
193435,note_on,115,0,1,,,,,,,,0,,,79,0
193440,note_on,15,0,3,,,,,,,,2,,,66,64
193440,note_on,15,0,4,,,,,,,,3,,,62,49
193440,note_on,15,0,5,,,,,,,,4,,,50,49
193440,note_on,5,0,1,,,,,,,,0,,,79,85
193440,note_on,15,0,2,,,,,,,,1,,,69,64
193470,note_on,30,0,1,,,,,,,,0,,,79,0
193470,note_on,0,0,1,,,,,,,,0,,,78,85
193500,note_on,30,0,1,,,,,,,,0,,,78,0
193500,note_on,0,0,1,,,,,,,,0,,,79,85
193530,note_on,0,0,1,,,,,,,,0,,,78,85
193530,note_on,30,0,1,,,,,,,,0,,,79,0
193560,note_on,0,0,1,,,,,,,,0,,,79,85
193560,note_on,30,0,1,,,,,,,,0,,,78,0
193590,note_on,0,0,1,,,,,,,,0,,,78,85
193590,note_on,30,0,1,,,,,,,,0,,,79,0
193620,note_on,0,0,1,,,,,,,,0,,,79,85
193620,note_on,30,0,1,,,,,,,,0,,,78,0
193650,note_on,0,0,1,,,,,,,,0,,,78,85
193650,note_on,30,0,1,,,,,,,,0,,,79,0
193665,note_on,225,0,3,,,,,,,,2,,,66,0
193665,note_on,225,0,4,,,,,,,,3,,,62,0
193665,note_on,225,0,5,,,,,,,,4,,,50,0
193665,note_on,225,0,2,,,,,,,,1,,,69,0
193680,note_on,15,0,3,,,,,,,,2,,,69,64
193680,note_on,15,0,4,,,,,,,,3,,,62,49
193680,note_on,15,0,5,,,,,,,,4,,,50,49
193680,note_on,30,0,1,,,,,,,,0,,,78,0
193680,note_on,0,0,1,,,,,,,,0,,,79,85
193680,note_on,15,0,2,,,,,,,,1,,,74,64
193710,note_on,30,0,1,,,,,,,,0,,,79,0
193710,note_on,0,0,1,,,,,,,,0,,,78,85
193740,note_on,30,0,1,,,,,,,,0,,,78,0
193740,note_on,0,0,1,,,,,,,,0,,,79,85
193770,note_on,30,0,1,,,,,,,,0,,,79,0
193770,note_on,0,0,1,,,,,,,,0,,,78,85
193800,note_on,0,0,1,,,,,,,,0,,,79,85
193800,note_on,30,0,1,,,,,,,,0,,,78,0
193830,note_on,30,0,1,,,,,,,,0,,,79,0
193830,note_on,0,0,1,,,,,,,,0,,,78,85
193905,note_on,225,0,2,,,,,,,,1,,,74,0
193905,note_on,225,0,5,,,,,,,,4,,,50,0
193905,note_on,225,0,4,,,,,,,,3,,,62,0
193905,note_on,225,0,3,,,,,,,,2,,,69,0
193920,note_on,15,0,4,,,,,,,,3,,,50,49
193920,note_on,15,0,3,,,,,,,,2,,,74,64
193920,note_on,15,0,5,,,,,,,,4,,,38,49
193920,note_on,15,0,2,,,,,,,,1,,,69,64
194145,note_on,225,0,3,,,,,,,,2,,,74,0
194145,note_on,315,0,1,,,,,,,,0,,,78,0
194145,note_on,225,0,5,,,,,,,,4,,,38,0
194145,note_on,225,0,2,,,,,,,,1,,,69,0
194145,note_on,225,0,4,,,,,,,,3,,,50,0
194160,note_on,15,0,4,,,,,,,,3,,,50,49
194160,note_on,15,0,3,,,,,,,,2,,,69,64
194160,note_on,15,0,5,,,,,,,,4,,,38,49
194160,note_on,15,0,1,,,,,,,,0,,,76,85
194160,note_on,15,0,2,,,,,,,,1,,,74,64
194275,note_on,115,0,1,,,,,,,,0,,,76,0
194280,note_on,5,0,1,,,,,,,,0,,,78,85
194385,note_on,225,0,2,,,,,,,,1,,,74,0
194385,note_on,225,0,5,,,,,,,,4,,,38,0
194385,note_on,225,0,3,,,,,,,,2,,,69,0
194385,note_on,225,0,4,,,,,,,,3,,,50,0
194395,note_on,115,0,1,,,,,,,,0,,,78,0
194640,note_on,245,0,1,,,,,,,,0,,,79,85
194640,note_on,255,0,2,,,,,,,,1,,,70,64
194640,note_on,255,0,4,,,,,,,,3,,,55,49
194640,note_on,255,0,3,,,,,,,,2,,,70,64
194640,note_on,255,0,5,,,,,,,,4,,,43,49
195765,note_on,1125,0,3,,,,,,,,2,,,70,0
195765,note_on,1125,0,4,,,,,,,,3,,,55,0
195765,note_on,1125,0,5,,,,,,,,4,,,43,0
195765,note_on,1125,0,1,,,,,,,,0,,,79,0
195765,note_on,1125,0,2,,,,,,,,1,,,70,0
195840,set_tempo,46080,1,0,,,,,,416667,,,,,,
197280,note_on,1515,0,4,,,,,,,,3,,,65,85
197280,note_on,1515,0,5,,,,,,,,4,,,50,85
197280,note_on,1515,0,2,,,,,,,,1,,,81,64
197280,note_on,1515,0,1,,,,,,,,0,,,81,64
197280,marker,1440,1,0,,,,,,,,,,,,
197280,note_on,1515,0,3,,,,,,,,2,,,81,64
197280,note_on,49390,0,6,,,,,,,,5,,,50,85
197505,note_on,225,0,2,,,,,,,,1,,,81,0
197505,note_on,225,0,1,,,,,,,,0,,,81,0
197505,note_on,225,0,3,,,,,,,,2,,,81,0
197520,note_on,15,0,1,,,,,,,,0,,,74,64
197520,note_on,15,0,3,,,,,,,,2,,,74,64
197520,note_on,15,0,2,,,,,,,,1,,,74,64
197635,note_on,115,0,1,,,,,,,,0,,,74,0
197635,note_on,115,0,3,,,,,,,,2,,,74,0
197635,note_on,115,0,2,,,,,,,,1,,,74,0
197640,note_on,5,0,3,,,,,,,,2,,,76,64
197640,note_on,5,0,2,,,,,,,,1,,,76,64
197640,note_on,5,0,1,,,,,,,,0,,,76,64
197725,note_on,445,0,5,,,,,,,,4,,,50,0
197725,note_on,445,0,4,,,,,,,,3,,,65,0
197725,note_on,445,0,6,,,,,,,,5,,,50,0
197755,note_on,115,0,3,,,,,,,,2,,,76,0
197755,note_on,115,0,1,,,,,,,,0,,,76,0
197755,note_on,115,0,2,,,,,,,,1,,,76,0
197760,note_on,35,0,6,,,,,,,,5,,,50,85
197760,note_on,5,0,1,,,,,,,,0,,,77,64
197760,note_on,35,0,4,,,,,,,,3,,,65,85
197760,note_on,5,0,3,,,,,,,,2,,,77,64
197760,note_on,5,0,2,,,,,,,,1,,,77,64
197760,note_on,35,0,5,,,,,,,,4,,,50,85
197985,note_on,225,0,3,,,,,,,,2,,,77,0
197985,note_on,225,0,1,,,,,,,,0,,,77,0
197985,note_on,225,0,2,,,,,,,,1,,,77,0
198000,note_on,15,0,3,,,,,,,,2,,,76,64
198000,note_on,15,0,1,,,,,,,,0,,,76,64
198000,note_on,15,0,2,,,,,,,,1,,,76,64
198205,note_on,445,0,5,,,,,,,,4,,,50,0
198205,note_on,445,0,6,,,,,,,,5,,,50,0
198205,note_on,445,0,4,,,,,,,,3,,,65,0
198225,note_on,225,0,2,,,,,,,,1,,,76,0
198225,note_on,225,0,3,,,,,,,,2,,,76,0
198225,note_on,225,0,1,,,,,,,,0,,,76,0
198240,note_on,35,0,6,,,,,,,,5,,,50,85
198240,note_on,15,0,2,,,,,,,,1,,,77,64
198240,note_on,35,0,4,,,,,,,,3,,,65,85
198240,note_on,15,0,1,,,,,,,,0,,,77,64
198240,note_on,15,0,3,,,,,,,,2,,,77,64
198240,note_on,35,0,5,,,,,,,,4,,,50,85
198465,note_on,225,0,3,,,,,,,,2,,,77,0
198465,note_on,225,0,1,,,,,,,,0,,,77,0
198465,note_on,225,0,2,,,,,,,,1,,,77,0
198480,note_on,15,0,3,,,,,,,,2,,,74,64
198480,note_on,15,0,1,,,,,,,,0,,,74,64
198480,note_on,15,0,2,,,,,,,,1,,,74,64
198685,note_on,445,0,4,,,,,,,,3,,,65,0
198685,note_on,445,0,6,,,,,,,,5,,,50,0
198685,note_on,445,0,5,,,,,,,,4,,,50,0
198705,note_on,225,0,1,,,,,,,,0,,,74,0
198705,note_on,225,0,2,,,,,,,,1,,,74,0
198705,note_on,225,0,3,,,,,,,,2,,,74,0
198720,note_on,15,0,1,,,,,,,,0,,,81,64
198720,note_on,15,0,2,,,,,,,,1,,,81,64
198720,note_on,35,0,4,,,,,,,,3,,,64,85
198720,note_on,35,0,5,,,,,,,,4,,,48,85
198720,note_on,15,0,3,,,,,,,,2,,,81,64
198720,note_on,35,0,6,,,,,,,,5,,,48,85
198945,note_on,225,0,3,,,,,,,,2,,,81,0
198945,note_on,225,0,1,,,,,,,,0,,,81,0
198945,note_on,225,0,2,,,,,,,,1,,,81,0
198960,note_on,15,0,2,,,,,,,,1,,,69,64
198960,note_on,15,0,3,,,,,,,,2,,,69,64
198960,note_on,15,0,1,,,,,,,,0,,,69,64
199075,note_on,115,0,2,,,,,,,,1,,,69,0
199075,note_on,115,0,3,,,,,,,,2,,,69,0
199075,note_on,115,0,1,,,,,,,,0,,,69,0
199080,note_on,5,0,2,,,,,,,,1,,,70,64
199080,note_on,5,0,3,,,,,,,,2,,,70,64
199080,note_on,5,0,1,,,,,,,,0,,,70,64
199165,note_on,445,0,4,,,,,,,,3,,,64,0
199165,note_on,445,0,6,,,,,,,,5,,,48,0
199165,note_on,445,0,5,,,,,,,,4,,,48,0
199195,note_on,115,0,2,,,,,,,,1,,,70,0
199195,note_on,115,0,1,,,,,,,,0,,,70,0
199195,note_on,115,0,3,,,,,,,,2,,,70,0
199200,note_on,35,0,4,,,,,,,,3,,,64,85
199200,note_on,5,0,1,,,,,,,,0,,,72,64
199200,note_on,35,0,5,,,,,,,,4,,,48,85
199200,note_on,5,0,3,,,,,,,,2,,,72,64
199200,note_on,5,0,2,,,,,,,,1,,,72,64
199200,note_on,35,0,6,,,,,,,,5,,,48,85
199425,note_on,225,0,2,,,,,,,,1,,,72,0
199425,note_on,225,0,3,,,,,,,,2,,,72,0
199425,note_on,225,0,1,,,,,,,,0,,,72,0
199440,note_on,15,0,3,,,,,,,,2,,,70,64
199440,note_on,15,0,2,,,,,,,,1,,,70,64
199440,note_on,15,0,1,,,,,,,,0,,,70,64
199645,note_on,445,0,6,,,,,,,,5,,,48,0
199645,note_on,445,0,4,,,,,,,,3,,,64,0
199645,note_on,445,0,5,,,,,,,,4,,,48,0
199665,note_on,225,0,1,,,,,,,,0,,,70,0
199665,note_on,225,0,3,,,,,,,,2,,,70,0
199665,note_on,225,0,2,,,,,,,,1,,,70,0
199680,note_on,35,0,4,,,,,,,,3,,,64,85
199680,note_on,35,0,5,,,,,,,,4,,,48,85
199680,note_on,15,0,3,,,,,,,,2,,,72,64
199680,note_on,15,0,1,,,,,,,,0,,,72,64
199680,note_on,35,0,6,,,,,,,,5,,,48,85
199680,note_on,15,0,2,,,,,,,,1,,,72,64
199905,note_on,225,0,2,,,,,,,,1,,,72,0
199905,note_on,225,0,1,,,,,,,,0,,,72,0
199905,note_on,225,0,3,,,,,,,,2,,,72,0
199920,note_on,15,0,2,,,,,,,,1,,,69,64
199920,note_on,15,0,1,,,,,,,,0,,,69,64
199920,note_on,15,0,3,,,,,,,,2,,,69,64
200125,note_on,445,0,5,,,,,,,,4,,,48,0
200125,note_on,445,0,6,,,,,,,,5,,,48,0
200125,note_on,445,0,4,,,,,,,,3,,,64,0
200145,note_on,225,0,2,,,,,,,,1,,,69,0
200145,note_on,225,0,3,,,,,,,,2,,,69,0
200145,note_on,225,0,1,,,,,,,,0,,,69,0
200160,note_on,15,0,2,,,,,,,,1,,,74,64
200160,note_on,15,0,3,,,,,,,,2,,,74,64
200160,note_on,15,0,1,,,,,,,,0,,,74,64
200160,note_on,35,0,4,,,,,,,,3,,,62,85
200160,note_on,35,0,6,,,,,,,,5,,,46,85
200160,note_on,35,0,5,,,,,,,,4,,,46,85
200385,note_on,225,0,1,,,,,,,,0,,,74,0
200385,note_on,225,0,3,,,,,,,,2,,,74,0
200385,note_on,225,0,2,,,,,,,,1,,,74,0
200400,note_on,15,0,3,,,,,,,,2,,,62,64
200400,note_on,15,0,1,,,,,,,,0,,,62,64
200400,note_on,15,0,2,,,,,,,,1,,,62,64
200515,note_on,115,0,3,,,,,,,,2,,,62,0
200515,note_on,115,0,1,,,,,,,,0,,,62,0
200515,note_on,115,0,2,,,,,,,,1,,,62,0
200520,note_on,5,0,1,,,,,,,,0,,,64,64
200520,note_on,5,0,3,,,,,,,,2,,,64,64
200520,note_on,5,0,2,,,,,,,,1,,,64,64
200605,note_on,445,0,6,,,,,,,,5,,,46,0
200605,note_on,445,0,4,,,,,,,,3,,,62,0
200605,note_on,445,0,5,,,,,,,,4,,,46,0
200635,note_on,115,0,3,,,,,,,,2,,,64,0
200635,note_on,115,0,1,,,,,,,,0,,,64,0
200635,note_on,115,0,2,,,,,,,,1,,,64,0
200640,note_on,35,0,6,,,,,,,,5,,,46,85
200640,note_on,5,0,2,,,,,,,,1,,,65,64
200640,note_on,35,0,4,,,,,,,,3,,,62,85
200640,note_on,5,0,3,,,,,,,,2,,,65,64
200640,note_on,35,0,5,,,,,,,,4,,,46,85
200640,note_on,5,0,1,,,,,,,,0,,,65,64
200865,note_on,225,0,2,,,,,,,,1,,,65,0
200865,note_on,225,0,3,,,,,,,,2,,,65,0
200865,note_on,225,0,1,,,,,,,,0,,,65,0
200880,note_on,15,0,3,,,,,,,,2,,,64,64
200880,note_on,15,0,2,,,,,,,,1,,,64,64
200880,note_on,15,0,1,,,,,,,,0,,,64,64
201085,note_on,445,0,5,,,,,,,,4,,,46,0
201085,note_on,445,0,6,,,,,,,,5,,,46,0
201085,note_on,445,0,4,,,,,,,,3,,,62,0
201105,note_on,225,0,3,,,,,,,,2,,,64,0
201105,note_on,225,0,2,,,,,,,,1,,,64,0
201105,note_on,225,0,1,,,,,,,,0,,,64,0
201120,note_on,15,0,1,,,,,,,,0,,,65,64
201120,note_on,35,0,6,,,,,,,,5,,,46,85
201120,note_on,35,0,5,,,,,,,,4,,,46,85
201120,note_on,15,0,3,,,,,,,,2,,,65,64
201120,note_on,35,0,4,,,,,,,,3,,,62,85
201120,note_on,15,0,2,,,,,,,,1,,,65,64
201345,note_on,225,0,1,,,,,,,,0,,,65,0
201345,note_on,225,0,2,,,,,,,,1,,,65,0
201345,note_on,225,0,3,,,,,,,,2,,,65,0
201360,note_on,15,0,3,,,,,,,,2,,,62,64
201360,note_on,15,0,1,,,,,,,,0,,,62,64
201360,note_on,15,0,2,,,,,,,,1,,,62,64
201565,note_on,445,0,6,,,,,,,,5,,,46,0
201565,note_on,445,0,4,,,,,,,,3,,,62,0
201565,note_on,445,0,5,,,,,,,,4,,,46,0
201585,note_on,225,0,3,,,,,,,,2,,,62,0
201585,note_on,225,0,2,,,,,,,,1,,,62,0
201585,note_on,225,0,1,,,,,,,,0,,,62,0
201600,note_on,15,0,3,,,,,,,,2,,,69,64
201600,note_on,35,0,6,,,,,,,,5,,,45,85
201600,note_on,35,0,5,,,,,,,,4,,,45,85
201600,note_on,15,0,1,,,,,,,,0,,,69,64
201600,note_on,35,0,4,,,,,,,,3,,,61,85
201600,note_on,15,0,2,,,,,,,,1,,,69,64
201825,note_on,225,0,3,,,,,,,,2,,,69,0
201825,note_on,225,0,1,,,,,,,,0,,,69,0
201825,note_on,225,0,2,,,,,,,,1,,,69,0
201840,note_on,15,0,3,,,,,,,,2,,,73,64
201840,note_on,15,0,1,,,,,,,,0,,,73,64
201840,note_on,15,0,2,,,,,,,,1,,,73,64
201955,note_on,115,0,1,,,,,,,,0,,,73,0
201955,note_on,115,0,2,,,,,,,,1,,,73,0
201955,note_on,115,0,3,,,,,,,,2,,,73,0
201960,note_on,5,0,1,,,,,,,,0,,,74,64
201960,note_on,5,0,2,,,,,,,,1,,,74,64
201960,note_on,5,0,3,,,,,,,,2,,,74,64
202045,note_on,445,0,6,,,,,,,,5,,,45,0
202045,note_on,445,0,4,,,,,,,,3,,,61,0
202045,note_on,445,0,5,,,,,,,,4,,,45,0
202075,note_on,115,0,1,,,,,,,,0,,,74,0
202075,note_on,115,0,3,,,,,,,,2,,,74,0
202075,note_on,115,0,2,,,,,,,,1,,,74,0
202080,note_on,35,0,6,,,,,,,,5,,,45,85
202080,note_on,35,0,4,,,,,,,,3,,,61,85
202080,note_on,35,0,5,,,,,,,,4,,,45,85
202080,note_on,5,0,1,,,,,,,,0,,,76,64
202080,note_on,5,0,2,,,,,,,,1,,,76,64
202080,note_on,5,0,3,,,,,,,,2,,,76,64
202305,note_on,225,0,2,,,,,,,,1,,,76,0
202305,note_on,225,0,3,,,,,,,,2,,,76,0
202305,note_on,225,0,1,,,,,,,,0,,,76,0
202320,note_on,15,0,3,,,,,,,,2,,,77,64
202320,note_on,15,0,2,,,,,,,,1,,,77,64
202320,note_on,15,0,1,,,,,,,,0,,,77,64
202525,note_on,445,0,6,,,,,,,,5,,,45,0
202525,note_on,445,0,5,,,,,,,,4,,,45,0
202525,note_on,445,0,4,,,,,,,,3,,,61,0
202545,note_on,225,0,2,,,,,,,,1,,,77,0
202545,note_on,225,0,3,,,,,,,,2,,,77,0
202545,note_on,225,0,1,,,,,,,,0,,,77,0
202560,note_on,35,0,6,,,,,,,,5,,,45,85
202560,note_on,35,0,5,,,,,,,,4,,,45,85
202560,note_on,15,0,2,,,,,,,,1,,,79,64
202560,note_on,35,0,4,,,,,,,,3,,,61,85
202560,note_on,15,0,3,,,,,,,,2,,,79,64
202560,note_on,15,0,1,,,,,,,,0,,,79,64
202785,note_on,225,0,3,,,,,,,,2,,,79,0
202785,note_on,225,0,2,,,,,,,,1,,,79,0
202785,note_on,225,0,1,,,,,,,,0,,,79,0
202800,note_on,15,0,1,,,,,,,,0,,,81,64
202800,note_on,15,0,3,,,,,,,,2,,,81,64
202800,note_on,15,0,2,,,,,,,,1,,,81,64
203005,note_on,445,0,4,,,,,,,,3,,,61,0
203005,note_on,445,0,6,,,,,,,,5,,,45,0
203005,note_on,445,0,5,,,,,,,,4,,,45,0
203025,note_on,225,0,1,,,,,,,,0,,,81,0
203025,note_on,225,0,3,,,,,,,,2,,,81,0
203025,note_on,225,0,2,,,,,,,,1,,,81,0
203040,note_on,35,0,4,,,,,,,,3,,,57,85
203040,note_on,15,0,3,,,,,,,,2,,,77,85
203040,note_on,35,0,5,,,,,,,,4,,,50,85
203040,note_on,15,0,2,,,,,,,,1,,,77,64
203040,note_on,15,0,1,,,,,,,,0,,,77,64
203040,note_on,35,0,6,,,,,,,,5,,,50,85
203265,note_on,225,0,4,,,,,,,,3,,,57,0
203265,note_on,225,0,6,,,,,,,,5,,,50,0
203265,note_on,225,0,5,,,,,,,,4,,,50,0
203280,note_on,15,0,6,,,,,,,,5,,,62,85
203280,note_on,15,0,4,,,,,,,,3,,,65,85
203280,note_on,15,0,5,,,,,,,,4,,,62,85
203395,note_on,115,0,6,,,,,,,,5,,,62,0
203395,note_on,115,0,4,,,,,,,,3,,,65,0
203395,note_on,115,0,5,,,,,,,,4,,,62,0
203400,note_on,5,0,4,,,,,,,,3,,,67,85
203400,note_on,5,0,6,,,,,,,,5,,,64,85
203400,note_on,5,0,5,,,,,,,,4,,,64,85
203485,note_on,445,0,2,,,,,,,,1,,,77,0
203485,note_on,445,0,1,,,,,,,,0,,,77,0
203515,note_on,115,0,4,,,,,,,,3,,,67,0
203515,note_on,115,0,5,,,,,,,,4,,,64,0
203515,note_on,115,0,6,,,,,,,,5,,,64,0
203520,note_on,5,0,4,,,,,,,,3,,,69,85
203520,note_on,35,0,2,,,,,,,,1,,,74,64
203520,note_on,35,0,1,,,,,,,,0,,,74,64
203520,note_on,5,0,5,,,,,,,,4,,,65,85
203520,note_on,5,0,6,,,,,,,,5,,,65,85
203745,note_on,225,0,4,,,,,,,,3,,,69,0
203745,note_on,225,0,6,,,,,,,,5,,,65,0
203745,note_on,225,0,5,,,,,,,,4,,,65,0
203760,note_on,15,0,6,,,,,,,,5,,,64,85
203760,note_on,15,0,5,,,,,,,,4,,,64,85
203760,note_on,15,0,4,,,,,,,,3,,,67,85
203965,note_on,445,0,2,,,,,,,,1,,,74,0
203965,note_on,445,0,1,,,,,,,,0,,,74,0
203985,note_on,225,0,5,,,,,,,,4,,,64,0
203985,note_on,225,0,4,,,,,,,,3,,,67,0
203985,note_on,225,0,6,,,,,,,,5,,,64,0
204000,note_on,15,0,4,,,,,,,,3,,,69,85
204000,note_on,15,0,5,,,,,,,,4,,,65,85
204000,note_on,15,0,6,,,,,,,,5,,,65,85
204225,note_on,225,0,4,,,,,,,,3,,,69,0
204225,note_on,225,0,6,,,,,,,,5,,,65,0
204225,note_on,225,0,5,,,,,,,,4,,,65,0
204240,note_on,15,0,6,,,,,,,,5,,,62,85
204240,note_on,15,0,4,,,,,,,,3,,,65,85
204240,note_on,15,0,5,,,,,,,,4,,,62,85
204465,note_on,225,0,6,,,,,,,,5,,,62,0
204465,note_on,225,0,5,,,,,,,,4,,,62,0
204465,note_on,225,0,4,,,,,,,,3,,,65,0
204480,note_on,15,0,5,,,,,,,,4,,,55,85
204480,note_on,515,0,1,,,,,,,,0,,,82,64
204480,note_on,15,0,6,,,,,,,,5,,,55,85
204480,note_on,515,0,2,,,,,,,,1,,,82,64
204480,note_on,15,0,4,,,,,,,,3,,,62,85
204705,note_on,225,0,6,,,,,,,,5,,,55,0
204705,note_on,225,0,5,,,,,,,,4,,,55,0
204705,note_on,1665,0,3,,,,,,,,2,,,77,0
204720,note_on,15,0,6,,,,,,,,5,,,55,85
204720,note_on,15,0,5,,,,,,,,4,,,55,85
204720,note_on,15,0,3,,,,,,,,2,,,70,85
204835,note_on,115,0,6,,,,,,,,5,,,55,0
204835,note_on,115,0,5,,,,,,,,4,,,55,0
204835,note_on,115,0,3,,,,,,,,2,,,70,0
204840,note_on,5,0,6,,,,,,,,5,,,57,85
204840,note_on,5,0,3,,,,,,,,2,,,72,85
204840,note_on,5,0,5,,,,,,,,4,,,57,85
204955,note_on,115,0,6,,,,,,,,5,,,57,0
204955,note_on,115,0,5,,,,,,,,4,,,57,0
204955,note_on,115,0,3,,,,,,,,2,,,72,0
204960,note_on,5,0,3,,,,,,,,2,,,74,85
204960,note_on,5,0,6,,,,,,,,5,,,58,85
204960,note_on,5,0,5,,,,,,,,4,,,58,85
205185,note_on,225,0,3,,,,,,,,2,,,74,0
205185,note_on,225,0,6,,,,,,,,5,,,58,0
205185,note_on,225,0,5,,,,,,,,4,,,58,0
205200,note_on,15,0,6,,,,,,,,5,,,57,85
205200,note_on,15,0,5,,,,,,,,4,,,57,85
205200,note_on,15,0,3,,,,,,,,2,,,72,85
205365,note_on,885,0,4,,,,,,,,3,,,62,0
205425,note_on,225,0,3,,,,,,,,2,,,72,0
205425,note_on,225,0,6,,,,,,,,5,,,57,0
205425,note_on,225,0,5,,,,,,,,4,,,57,0
205440,note_on,15,0,6,,,,,,,,5,,,58,85
205440,note_on,15,0,5,,,,,,,,4,,,58,85
205440,note_on,75,0,4,,,,,,,,3,,,70,85
205440,note_on,15,0,3,,,,,,,,2,,,74,85
205665,note_on,225,0,5,,,,,,,,4,,,58,0
205665,note_on,225,0,3,,,,,,,,2,,,74,0
205665,note_on,225,0,6,,,,,,,,5,,,58,0
205680,note_on,15,0,3,,,,,,,,2,,,70,85
205680,note_on,15,0,5,,,,,,,,4,,,55,85
205680,note_on,15,0,6,,,,,,,,5,,,55,85
205885,note_on,445,0,4,,,,,,,,3,,,70,0
205905,note_on,225,0,5,,,,,,,,4,,,55,0
205905,note_on,225,0,3,,,,,,,,2,,,70,0
205905,note_on,225,0,6,,,,,,,,5,,,55,0
205920,note_on,15,0,5,,,,,,,,4,,,60,85
205920,note_on,35,0,4,,,,,,,,3,,,67,85
205920,note_on,15,0,3,,,,,,,,2,,,76,85
205920,note_on,15,0,6,,,,,,,,5,,,60,85
206145,note_on,225,0,6,,,,,,,,5,,,60,0
206145,note_on,225,0,5,,,,,,,,4,,,60,0
206145,note_on,1665,0,1,,,,,,,,0,,,82,0
206145,note_on,1665,0,2,,,,,,,,1,,,82,0
206160,note_on,15,0,1,,,,,,,,0,,,76,64
206160,note_on,15,0,2,,,,,,,,1,,,76,64
206160,note_on,15,0,5,,,,,,,,4,,,60,85
206160,note_on,15,0,6,,,,,,,,5,,,60,85
206275,note_on,115,0,5,,,,,,,,4,,,60,0
206275,note_on,115,0,1,,,,,,,,0,,,76,0
206275,note_on,115,0,6,,,,,,,,5,,,60,0
206275,note_on,115,0,2,,,,,,,,1,,,76,0
206280,note_on,5,0,1,,,,,,,,0,,,77,64
206280,note_on,5,0,2,,,,,,,,1,,,77,64
206280,note_on,5,0,6,,,,,,,,5,,,62,85
206280,note_on,5,0,5,,,,,,,,4,,,62,85
206395,note_on,115,0,1,,,,,,,,0,,,77,0
206395,note_on,115,0,5,,,,,,,,4,,,62,0
206395,note_on,115,0,2,,,,,,,,1,,,77,0
206395,note_on,115,0,6,,,,,,,,5,,,62,0
206400,note_on,5,0,2,,,,,,,,1,,,79,64
206400,note_on,5,0,5,,,,,,,,4,,,64,85
206400,note_on,5,0,6,,,,,,,,5,,,64,85
206400,note_on,5,0,1,,,,,,,,0,,,79,64
206625,note_on,225,0,6,,,,,,,,5,,,64,0
206625,note_on,225,0,5,,,,,,,,4,,,64,0
206625,note_on,225,0,2,,,,,,,,1,,,79,0
206625,note_on,225,0,1,,,,,,,,0,,,79,0
206640,note_on,15,0,5,,,,,,,,4,,,62,85
206640,note_on,15,0,1,,,,,,,,0,,,77,64
206640,note_on,15,0,6,,,,,,,,5,,,62,85
206640,note_on,15,0,2,,,,,,,,1,,,77,64
206805,note_on,885,0,4,,,,,,,,3,,,67,0
206865,note_on,225,0,6,,,,,,,,5,,,62,0
206865,note_on,225,0,1,,,,,,,,0,,,77,0
206865,note_on,225,0,5,,,,,,,,4,,,62,0
206865,note_on,225,0,2,,,,,,,,1,,,77,0
206880,note_on,15,0,6,,,,,,,,5,,,64,85
206880,note_on,15,0,5,,,,,,,,4,,,64,85
206880,note_on,15,0,2,,,,,,,,1,,,79,64
206880,note_on,15,0,1,,,,,,,,0,,,79,64
206880,note_on,75,0,4,,,,,,,,3,,,64,85
207105,note_on,225,0,1,,,,,,,,0,,,79,0
207105,note_on,225,0,2,,,,,,,,1,,,79,0
207105,note_on,225,0,6,,,,,,,,5,,,64,0
207105,note_on,225,0,5,,,,,,,,4,,,64,0
207120,note_on,15,0,5,,,,,,,,4,,,60,85
207120,note_on,15,0,1,,,,,,,,0,,,76,64
207120,note_on,15,0,6,,,,,,,,5,,,60,85
207120,note_on,15,0,2,,,,,,,,1,,,76,64
207325,note_on,445,0,4,,,,,,,,3,,,64,0
207345,note_on,225,0,5,,,,,,,,4,,,60,0
207345,note_on,225,0,6,,,,,,,,5,,,60,0
207345,note_on,225,0,1,,,,,,,,0,,,76,0
207345,note_on,225,0,2,,,,,,,,1,,,76,0
207360,note_on,35,0,4,,,,,,,,3,,,60,85
207360,note_on,15,0,6,,,,,,,,5,,,53,85
207360,note_on,15,0,1,,,,,,,,0,,,81,64
207360,note_on,15,0,5,,,,,,,,4,,,53,85
207360,note_on,15,0,2,,,,,,,,1,,,81,64
207585,note_on,1665,0,3,,,,,,,,2,,,76,0
207585,note_on,225,0,5,,,,,,,,4,,,53,0
207585,note_on,225,0,6,,,,,,,,5,,,53,0
207600,note_on,15,0,6,,,,,,,,5,,,53,85
207600,note_on,15,0,5,,,,,,,,4,,,53,85
207600,note_on,15,0,3,,,,,,,,2,,,69,85
207715,note_on,115,0,5,,,,,,,,4,,,53,0
207715,note_on,115,0,6,,,,,,,,5,,,53,0
207715,note_on,115,0,3,,,,,,,,2,,,69,0
207720,note_on,5,0,3,,,,,,,,2,,,70,85
207720,note_on,5,0,6,,,,,,,,5,,,55,85
207720,note_on,5,0,5,,,,,,,,4,,,55,85
207835,note_on,115,0,3,,,,,,,,2,,,70,0
207835,note_on,115,0,6,,,,,,,,5,,,55,0
207835,note_on,115,0,5,,,,,,,,4,,,55,0
207840,note_on,5,0,6,,,,,,,,5,,,57,85
207840,note_on,5,0,3,,,,,,,,2,,,72,85
207840,note_on,5,0,5,,,,,,,,4,,,57,85
208065,note_on,225,0,6,,,,,,,,5,,,57,0
208065,note_on,225,0,3,,,,,,,,2,,,72,0
208065,note_on,225,0,5,,,,,,,,4,,,57,0
208080,note_on,15,0,6,,,,,,,,5,,,55,85
208080,note_on,15,0,5,,,,,,,,4,,,55,85
208080,note_on,15,0,3,,,,,,,,2,,,70,85
208245,note_on,885,0,4,,,,,,,,3,,,60,0
208305,note_on,225,0,5,,,,,,,,4,,,55,0
208305,note_on,225,0,6,,,,,,,,5,,,55,0
208305,note_on,225,0,3,,,,,,,,2,,,70,0
208320,note_on,15,0,5,,,,,,,,4,,,57,85
208320,note_on,15,0,3,,,,,,,,2,,,72,85
208320,note_on,15,0,6,,,,,,,,5,,,57,85
208320,note_on,75,0,4,,,,,,,,3,,,69,85
208545,note_on,225,0,3,,,,,,,,2,,,72,0
208545,note_on,225,0,6,,,,,,,,5,,,57,0
208545,note_on,225,0,5,,,,,,,,4,,,57,0
208560,note_on,15,0,3,,,,,,,,2,,,69,85
208560,note_on,15,0,6,,,,,,,,5,,,53,85
208560,note_on,15,0,5,,,,,,,,4,,,53,85
208765,note_on,445,0,4,,,,,,,,3,,,69,0
208785,note_on,225,0,5,,,,,,,,4,,,53,0
208785,note_on,225,0,6,,,,,,,,5,,,53,0
208785,note_on,225,0,3,,,,,,,,2,,,69,0
208800,note_on,15,0,3,,,,,,,,2,,,74,85
208800,note_on,15,0,5,,,,,,,,4,,,58,85
208800,note_on,35,0,4,,,,,,,,3,,,65,85
208800,note_on,15,0,6,,,,,,,,5,,,58,85
209025,note_on,225,0,6,,,,,,,,5,,,58,0
209025,note_on,1665,0,1,,,,,,,,0,,,81,0
209025,note_on,225,0,5,,,,,,,,4,,,58,0
209025,note_on,1665,0,2,,,,,,,,1,,,81,0
209040,note_on,15,0,6,,,,,,,,5,,,58,85
209040,note_on,15,0,2,,,,,,,,1,,,74,64
209040,note_on,15,0,5,,,,,,,,4,,,58,85
209040,note_on,15,0,1,,,,,,,,0,,,74,64
209155,note_on,115,0,6,,,,,,,,5,,,58,0
209155,note_on,115,0,1,,,,,,,,0,,,74,0
209155,note_on,115,0,5,,,,,,,,4,,,58,0
209155,note_on,115,0,2,,,,,,,,1,,,74,0
209160,note_on,5,0,6,,,,,,,,5,,,60,85
209160,note_on,5,0,5,,,,,,,,4,,,60,85
209160,note_on,5,0,1,,,,,,,,0,,,76,64
209160,note_on,5,0,2,,,,,,,,1,,,76,64
209275,note_on,115,0,5,,,,,,,,4,,,60,0
209275,note_on,115,0,1,,,,,,,,0,,,76,0
209275,note_on,115,0,6,,,,,,,,5,,,60,0
209275,note_on,115,0,2,,,,,,,,1,,,76,0
209280,note_on,5,0,2,,,,,,,,1,,,77,64
209280,note_on,5,0,1,,,,,,,,0,,,77,64
209280,note_on,5,0,5,,,,,,,,4,,,62,85
209280,note_on,5,0,6,,,,,,,,5,,,62,85
209505,note_on,225,0,2,,,,,,,,1,,,77,0
209505,note_on,225,0,5,,,,,,,,4,,,62,0
209505,note_on,225,0,1,,,,,,,,0,,,77,0
209505,note_on,225,0,6,,,,,,,,5,,,62,0
209520,note_on,15,0,6,,,,,,,,5,,,60,85
209520,note_on,15,0,2,,,,,,,,1,,,76,64
209520,note_on,15,0,5,,,,,,,,4,,,60,85
209520,note_on,15,0,1,,,,,,,,0,,,76,64
209685,note_on,885,0,4,,,,,,,,3,,,65,0
209745,note_on,225,0,6,,,,,,,,5,,,60,0
209745,note_on,225,0,5,,,,,,,,4,,,60,0
209745,note_on,225,0,2,,,,,,,,1,,,76,0
209745,note_on,225,0,1,,,,,,,,0,,,76,0
209760,note_on,15,0,5,,,,,,,,4,,,62,85
209760,note_on,15,0,6,,,,,,,,5,,,62,85
209760,note_on,75,0,4,,,,,,,,3,,,62,85
209760,note_on,15,0,1,,,,,,,,0,,,77,64
209760,note_on,15,0,2,,,,,,,,1,,,77,64
209985,note_on,225,0,5,,,,,,,,4,,,62,0
209985,note_on,225,0,6,,,,,,,,5,,,62,0
209985,note_on,225,0,2,,,,,,,,1,,,77,0
209985,note_on,225,0,1,,,,,,,,0,,,77,0
210000,note_on,15,0,2,,,,,,,,1,,,74,64
210000,note_on,15,0,5,,,,,,,,4,,,58,85
210000,note_on,15,0,1,,,,,,,,0,,,74,64
210000,note_on,15,0,6,,,,,,,,5,,,58,85
210205,note_on,445,0,4,,,,,,,,3,,,62,0
210225,note_on,225,0,2,,,,,,,,1,,,74,0
210225,note_on,225,0,5,,,,,,,,4,,,58,0
210225,note_on,225,0,1,,,,,,,,0,,,74,0
210225,note_on,225,0,6,,,,,,,,5,,,58,0
210240,note_on,35,0,4,,,,,,,,3,,,58,85
210240,note_on,15,0,6,,,,,,,,5,,,52,85
210240,note_on,15,0,2,,,,,,,,1,,,79,64
210240,note_on,15,0,5,,,,,,,,4,,,52,85
210240,note_on,15,0,1,,,,,,,,0,,,79,64
210465,note_on,225,0,6,,,,,,,,5,,,52,0
210465,note_on,225,0,5,,,,,,,,4,,,52,0
210465,note_on,1665,0,3,,,,,,,,2,,,74,0
210480,note_on,15,0,6,,,,,,,,5,,,52,85
210480,note_on,15,0,3,,,,,,,,2,,,67,85
210480,note_on,15,0,5,,,,,,,,4,,,52,85
210595,note_on,115,0,5,,,,,,,,4,,,52,0
210595,note_on,115,0,3,,,,,,,,2,,,67,0
210595,note_on,115,0,6,,,,,,,,5,,,52,0
210600,note_on,5,0,5,,,,,,,,4,,,53,85
210600,note_on,5,0,3,,,,,,,,2,,,69,85
210600,note_on,5,0,6,,,,,,,,5,,,53,85
210715,note_on,115,0,5,,,,,,,,4,,,53,0
210715,note_on,115,0,3,,,,,,,,2,,,69,0
210715,note_on,115,0,6,,,,,,,,5,,,53,0
210720,note_on,5,0,3,,,,,,,,2,,,70,85
210720,note_on,5,0,6,,,,,,,,5,,,55,85
210720,note_on,5,0,5,,,,,,,,4,,,55,85
210945,note_on,225,0,6,,,,,,,,5,,,55,0
210945,note_on,225,0,5,,,,,,,,4,,,55,0
210945,note_on,225,0,3,,,,,,,,2,,,70,0
210960,note_on,15,0,5,,,,,,,,4,,,53,85
210960,note_on,15,0,3,,,,,,,,2,,,69,85
210960,note_on,15,0,6,,,,,,,,5,,,53,85
211125,note_on,885,0,4,,,,,,,,3,,,58,0
211185,note_on,225,0,5,,,,,,,,4,,,53,0
211185,note_on,225,0,3,,,,,,,,2,,,69,0
211185,note_on,225,0,6,,,,,,,,5,,,53,0
211200,note_on,15,0,5,,,,,,,,4,,,55,85
211200,note_on,15,0,6,,,,,,,,5,,,55,85
211200,note_on,75,0,4,,,,,,,,3,,,67,85
211200,note_on,15,0,3,,,,,,,,2,,,70,85
211425,note_on,225,0,3,,,,,,,,2,,,70,0
211425,note_on,225,0,5,,,,,,,,4,,,55,0
211425,note_on,225,0,6,,,,,,,,5,,,55,0
211440,note_on,15,0,6,,,,,,,,5,,,52,85
211440,note_on,15,0,5,,,,,,,,4,,,52,85
211440,note_on,15,0,3,,,,,,,,2,,,67,85
211645,note_on,445,0,4,,,,,,,,3,,,67,0
211665,note_on,225,0,5,,,,,,,,4,,,52,0
211665,note_on,225,0,3,,,,,,,,2,,,67,0
211665,note_on,225,0,6,,,,,,,,5,,,52,0
211680,note_on,35,0,4,,,,,,,,3,,,64,85
211680,note_on,15,0,3,,,,,,,,2,,,73,85
211680,note_on,15,0,5,,,,,,,,4,,,45,85
211680,note_on,15,0,6,,,,,,,,5,,,45,85
211905,note_on,225,0,6,,,,,,,,5,,,45,0
211905,note_on,225,0,5,,,,,,,,4,,,45,0
211905,note_on,1665,0,2,,,,,,,,1,,,79,0
211905,note_on,1665,0,1,,,,,,,,0,,,79,0
211920,note_on,15,0,1,,,,,,,,0,,,73,64
211920,note_on,15,0,2,,,,,,,,1,,,73,64
211920,note_on,15,0,5,,,,,,,,4,,,57,85
211920,note_on,15,0,6,,,,,,,,5,,,57,85
212035,note_on,115,0,6,,,,,,,,5,,,57,0
212035,note_on,115,0,1,,,,,,,,0,,,73,0
212035,note_on,115,0,2,,,,,,,,1,,,73,0
212035,note_on,115,0,5,,,,,,,,4,,,57,0
212040,note_on,5,0,5,,,,,,,,4,,,59,85
212040,note_on,5,0,1,,,,,,,,0,,,74,64
212040,note_on,5,0,2,,,,,,,,1,,,74,64
212040,note_on,5,0,6,,,,,,,,5,,,59,85
212155,note_on,115,0,1,,,,,,,,0,,,74,0
212155,note_on,115,0,2,,,,,,,,1,,,74,0
212155,note_on,115,0,6,,,,,,,,5,,,59,0
212155,note_on,115,0,5,,,,,,,,4,,,59,0
212160,note_on,5,0,1,,,,,,,,0,,,76,64
212160,note_on,5,0,2,,,,,,,,1,,,76,64
212160,note_on,5,0,6,,,,,,,,5,,,61,85
212160,note_on,5,0,5,,,,,,,,4,,,61,85
212385,note_on,225,0,1,,,,,,,,0,,,76,0
212385,note_on,225,0,2,,,,,,,,1,,,76,0
212385,note_on,225,0,6,,,,,,,,5,,,61,0
212385,note_on,225,0,5,,,,,,,,4,,,61,0
212400,note_on,15,0,2,,,,,,,,1,,,74,64
212400,note_on,15,0,5,,,,,,,,4,,,59,85
212400,note_on,15,0,1,,,,,,,,0,,,74,64
212400,note_on,15,0,6,,,,,,,,5,,,59,85
212565,note_on,885,0,4,,,,,,,,3,,,64,0
212625,note_on,225,0,1,,,,,,,,0,,,74,0
212625,note_on,225,0,6,,,,,,,,5,,,59,0
212625,note_on,225,0,2,,,,,,,,1,,,74,0
212625,note_on,225,0,5,,,,,,,,4,,,59,0
212640,note_on,15,0,5,,,,,,,,4,,,61,85
212640,note_on,75,0,4,,,,,,,,3,,,67,85
212640,note_on,15,0,2,,,,,,,,1,,,76,64
212640,note_on,15,0,1,,,,,,,,0,,,76,64
212640,note_on,15,0,6,,,,,,,,5,,,61,85
212865,note_on,225,0,2,,,,,,,,1,,,76,0
212865,note_on,225,0,6,,,,,,,,5,,,61,0
212865,note_on,225,0,5,,,,,,,,4,,,61,0
212865,note_on,225,0,1,,,,,,,,0,,,76,0
212880,note_on,15,0,5,,,,,,,,4,,,57,85
212880,note_on,15,0,2,,,,,,,,1,,,73,64
212880,note_on,15,0,1,,,,,,,,0,,,73,64
212880,note_on,15,0,6,,,,,,,,5,,,57,85
213085,note_on,445,0,4,,,,,,,,3,,,67,0
213105,note_on,225,0,2,,,,,,,,1,,,73,0
213105,note_on,225,0,1,,,,,,,,0,,,73,0
213105,note_on,225,0,5,,,,,,,,4,,,57,0
213105,note_on,225,0,6,,,,,,,,5,,,57,0
213120,note_on,35,0,4,,,,,,,,3,,,64,85
213120,note_on,15,0,1,,,,,,,,0,,,67,64
213120,note_on,15,0,5,,,,,,,,4,,,45,85
213120,note_on,15,0,6,,,,,,,,5,,,45,85
213120,note_on,15,0,2,,,,,,,,1,,,67,64
213345,note_on,1665,0,3,,,,,,,,2,,,73,0
213345,note_on,225,0,5,,,,,,,,4,,,45,0
213345,note_on,225,0,6,,,,,,,,5,,,45,0
213360,note_on,15,0,3,,,,,,,,2,,,73,85
213360,note_on,15,0,5,,,,,,,,4,,,57,85
213360,note_on,15,0,6,,,,,,,,5,,,57,85
213475,note_on,115,0,6,,,,,,,,5,,,57,0
213475,note_on,115,0,3,,,,,,,,2,,,73,0
213475,note_on,115,0,5,,,,,,,,4,,,57,0
213480,note_on,5,0,6,,,,,,,,5,,,59,85
213480,note_on,5,0,3,,,,,,,,2,,,74,85
213480,note_on,5,0,5,,,,,,,,4,,,59,85
213565,note_on,445,0,1,,,,,,,,0,,,67,0
213565,note_on,445,0,2,,,,,,,,1,,,67,0
213595,note_on,115,0,6,,,,,,,,5,,,59,0
213595,note_on,115,0,3,,,,,,,,2,,,74,0
213595,note_on,115,0,5,,,,,,,,4,,,59,0
213600,note_on,5,0,3,,,,,,,,2,,,76,85
213600,note_on,35,0,1,,,,,,,,0,,,73,64
213600,note_on,35,0,2,,,,,,,,1,,,73,64
213600,note_on,5,0,5,,,,,,,,4,,,61,85
213600,note_on,5,0,6,,,,,,,,5,,,61,85
213825,note_on,225,0,5,,,,,,,,4,,,61,0
213825,note_on,225,0,6,,,,,,,,5,,,61,0
213825,note_on,225,0,3,,,,,,,,2,,,76,0
213840,note_on,15,0,6,,,,,,,,5,,,59,85
213840,note_on,15,0,5,,,,,,,,4,,,59,85
213840,note_on,15,0,3,,,,,,,,2,,,74,85
214005,note_on,885,0,4,,,,,,,,3,,,64,0
214045,note_on,445,0,2,,,,,,,,1,,,73,0
214045,note_on,445,0,1,,,,,,,,0,,,73,0
214065,note_on,225,0,5,,,,,,,,4,,,59,0
214065,note_on,225,0,3,,,,,,,,2,,,74,0
214065,note_on,225,0,6,,,,,,,,5,,,59,0
214080,note_on,35,0,2,,,,,,,,1,,,76,64
214080,note_on,15,0,5,,,,,,,,4,,,61,85
214080,note_on,75,0,4,,,,,,,,3,,,67,85
214080,note_on,15,0,3,,,,,,,,2,,,76,85
214080,note_on,35,0,1,,,,,,,,0,,,76,64
214080,note_on,15,0,6,,,,,,,,5,,,61,85
214305,note_on,225,0,3,,,,,,,,2,,,76,0
214305,note_on,225,0,6,,,,,,,,5,,,61,0
214305,note_on,225,0,5,,,,,,,,4,,,61,0
214320,note_on,15,0,3,,,,,,,,2,,,73,85
214320,note_on,15,0,5,,,,,,,,4,,,57,85
214320,note_on,15,0,6,,,,,,,,5,,,57,85
214525,note_on,445,0,1,,,,,,,,0,,,76,0
214525,note_on,445,0,4,,,,,,,,3,,,67,0
214525,note_on,445,0,2,,,,,,,,1,,,76,0
214545,note_on,225,0,5,,,,,,,,4,,,57,0
214545,note_on,225,0,3,,,,,,,,2,,,73,0
214545,note_on,225,0,6,,,,,,,,5,,,57,0
214560,note_on,35,0,4,,,,,,,,3,,,64,85
214560,note_on,15,0,3,,,,,,,,2,,,67,85
214560,note_on,15,0,5,,,,,,,,4,,,45,85
214560,note_on,35,0,1,,,,,,,,0,,,79,64
214560,note_on,35,0,2,,,,,,,,1,,,79,64
214560,note_on,15,0,6,,,,,,,,5,,,45,85
214785,note_on,225,0,2,,,,,,,,1,,,79,0
214785,note_on,225,0,6,,,,,,,,5,,,45,0
214785,note_on,225,0,1,,,,,,,,0,,,79,0
214785,note_on,225,0,5,,,,,,,,4,,,45,0
214800,note_on,15,0,2,,,,,,,,1,,,73,64
214800,note_on,15,0,6,,,,,,,,5,,,57,85
214800,note_on,15,0,1,,,,,,,,0,,,73,64
214800,note_on,15,0,5,,,,,,,,4,,,57,85
214915,note_on,115,0,2,,,,,,,,1,,,73,0
214915,note_on,115,0,1,,,,,,,,0,,,73,0
214915,note_on,115,0,6,,,,,,,,5,,,57,0
214915,note_on,115,0,5,,,,,,,,4,,,57,0
214920,note_on,5,0,2,,,,,,,,1,,,74,64
214920,note_on,5,0,5,,,,,,,,4,,,59,85
214920,note_on,5,0,6,,,,,,,,5,,,59,85
214920,note_on,5,0,1,,,,,,,,0,,,74,64
215005,note_on,445,0,3,,,,,,,,2,,,67,0
215035,note_on,115,0,2,,,,,,,,1,,,74,0
215035,note_on,115,0,5,,,,,,,,4,,,59,0
215035,note_on,115,0,6,,,,,,,,5,,,59,0
215035,note_on,115,0,1,,,,,,,,0,,,74,0
215040,note_on,5,0,6,,,,,,,,5,,,61,85
215040,note_on,5,0,2,,,,,,,,1,,,76,64
215040,note_on,35,0,3,,,,,,,,2,,,73,85
215040,note_on,5,0,1,,,,,,,,0,,,76,64
215040,note_on,5,0,5,,,,,,,,4,,,61,85
215265,note_on,225,0,5,,,,,,,,4,,,61,0
215265,note_on,225,0,1,,,,,,,,0,,,76,0
215265,note_on,225,0,2,,,,,,,,1,,,76,0
215265,note_on,225,0,6,,,,,,,,5,,,61,0
215280,note_on,15,0,1,,,,,,,,0,,,74,64
215280,note_on,15,0,6,,,,,,,,5,,,59,85
215280,note_on,15,0,2,,,,,,,,1,,,74,64
215280,note_on,15,0,5,,,,,,,,4,,,59,85
215445,note_on,885,0,4,,,,,,,,3,,,64,0
215485,note_on,445,0,3,,,,,,,,2,,,73,0
215505,note_on,225,0,1,,,,,,,,0,,,74,0
215505,note_on,225,0,2,,,,,,,,1,,,74,0
215505,note_on,225,0,6,,,,,,,,5,,,59,0
215505,note_on,225,0,5,,,,,,,,4,,,59,0
215520,note_on,15,0,1,,,,,,,,0,,,76,64
215520,note_on,15,0,6,,,,,,,,5,,,61,85
215520,note_on,15,0,5,,,,,,,,4,,,61,85
215520,note_on,35,0,3,,,,,,,,2,,,76,85
215520,note_on,15,0,2,,,,,,,,1,,,76,64
215520,note_on,75,0,4,,,,,,,,3,,,67,85
215745,note_on,225,0,6,,,,,,,,5,,,61,0
215745,note_on,225,0,2,,,,,,,,1,,,76,0
215745,note_on,225,0,1,,,,,,,,0,,,76,0
215745,note_on,225,0,5,,,,,,,,4,,,61,0
215760,note_on,15,0,6,,,,,,,,5,,,57,85
215760,note_on,15,0,2,,,,,,,,1,,,73,64
215760,note_on,15,0,1,,,,,,,,0,,,73,64
215760,note_on,15,0,5,,,,,,,,4,,,57,85
215965,note_on,445,0,3,,,,,,,,2,,,76,0
215965,note_on,445,0,4,,,,,,,,3,,,67,0
215985,note_on,225,0,6,,,,,,,,5,,,57,0
215985,note_on,225,0,5,,,,,,,,4,,,57,0
215985,note_on,225,0,2,,,,,,,,1,,,73,0
215985,note_on,225,0,1,,,,,,,,0,,,73,0
216000,note_on,15,0,2,,,,,,,,1,,,67,64
216000,note_on,15,0,5,,,,,,,,4,,,45,85
216000,note_on,15,0,1,,,,,,,,0,,,67,64
216000,note_on,15,0,6,,,,,,,,5,,,45,85
216000,note_on,35,0,4,,,,,,,,3,,,64,85
216000,note_on,35,0,3,,,,,,,,2,,,79,85
216225,note_on,225,0,5,,,,,,,,4,,,45,0
216225,note_on,225,0,6,,,,,,,,5,,,45,0
216225,note_on,225,0,3,,,,,,,,2,,,79,0
216240,note_on,15,0,5,,,,,,,,4,,,57,85
216240,note_on,15,0,6,,,,,,,,5,,,57,85
216240,note_on,15,0,3,,,,,,,,2,,,73,85
216355,note_on,115,0,3,,,,,,,,2,,,73,0
216355,note_on,115,0,5,,,,,,,,4,,,57,0
216355,note_on,115,0,6,,,,,,,,5,,,57,0
216360,note_on,5,0,6,,,,,,,,5,,,59,85
216360,note_on,5,0,5,,,,,,,,4,,,59,85
216360,note_on,5,0,3,,,,,,,,2,,,74,85
216445,note_on,445,0,2,,,,,,,,1,,,67,0
216445,note_on,445,0,1,,,,,,,,0,,,67,0
216475,note_on,115,0,6,,,,,,,,5,,,59,0
216475,note_on,115,0,3,,,,,,,,2,,,74,0
216475,note_on,115,0,5,,,,,,,,4,,,59,0
216480,note_on,5,0,3,,,,,,,,2,,,76,85
216480,note_on,35,0,1,,,,,,,,0,,,73,64
216480,note_on,35,0,2,,,,,,,,1,,,73,64
216480,note_on,5,0,5,,,,,,,,4,,,61,85
216480,note_on,5,0,6,,,,,,,,5,,,61,85
216705,note_on,225,0,3,,,,,,,,2,,,76,0
216705,note_on,225,0,5,,,,,,,,4,,,61,0
216705,note_on,225,0,6,,,,,,,,5,,,61,0
216720,note_on,15,0,5,,,,,,,,4,,,59,85
216720,note_on,15,0,3,,,,,,,,2,,,74,85
216720,note_on,15,0,6,,,,,,,,5,,,59,85
216885,note_on,885,0,4,,,,,,,,3,,,64,0
216925,note_on,445,0,2,,,,,,,,1,,,73,0
216925,note_on,445,0,1,,,,,,,,0,,,73,0
216945,note_on,225,0,3,,,,,,,,2,,,74,0
216945,note_on,225,0,5,,,,,,,,4,,,59,0
216945,note_on,225,0,6,,,,,,,,5,,,59,0
216960,note_on,35,0,2,,,,,,,,1,,,76,64
216960,note_on,15,0,5,,,,,,,,4,,,61,85
216960,note_on,35,0,1,,,,,,,,0,,,76,64
216960,note_on,15,0,6,,,,,,,,5,,,61,85
216960,note_on,15,0,3,,,,,,,,2,,,76,85
216960,note_on,75,0,4,,,,,,,,3,,,67,85
217185,note_on,225,0,6,,,,,,,,5,,,61,0
217185,note_on,225,0,5,,,,,,,,4,,,61,0
217185,note_on,225,0,3,,,,,,,,2,,,76,0
217200,note_on,15,0,3,,,,,,,,2,,,73,85
217200,note_on,15,0,6,,,,,,,,5,,,57,85
217200,note_on,15,0,5,,,,,,,,4,,,57,85
217405,note_on,445,0,4,,,,,,,,3,,,67,0
217405,note_on,445,0,1,,,,,,,,0,,,76,0
217405,note_on,445,0,2,,,,,,,,1,,,76,0
217425,note_on,225,0,3,,,,,,,,2,,,73,0
217425,note_on,225,0,6,,,,,,,,5,,,57,0
217425,note_on,225,0,5,,,,,,,,4,,,57,0
217440,note_on,35,0,4,,,,,,,,3,,,61,85
217440,note_on,15,0,6,,,,,,,,5,,,45,85
217440,note_on,15,0,5,,,,,,,,4,,,45,85
217440,note_on,35,0,2,,,,,,,,1,,,79,64
217440,note_on,15,0,3,,,,,,,,2,,,76,85
217440,note_on,35,0,1,,,,,,,,0,,,79,64
217665,note_on,225,0,1,,,,,,,,0,,,79,0
217665,note_on,225,0,2,,,,,,,,1,,,79,0
217665,note_on,225,0,3,,,,,,,,2,,,76,0
217680,note_on,15,0,3,,,,,,,,2,,,73,85
217680,note_on,15,0,1,,,,,,,,0,,,76,64
217680,note_on,15,0,2,,,,,,,,1,,,76,64
217795,note_on,115,0,3,,,,,,,,2,,,73,0
217795,note_on,115,0,2,,,,,,,,1,,,76,0
217795,note_on,115,0,1,,,,,,,,0,,,76,0
217800,note_on,5,0,3,,,,,,,,2,,,74,85
217800,note_on,5,0,2,,,,,,,,1,,,77,64
217800,note_on,5,0,1,,,,,,,,0,,,77,64
217885,note_on,445,0,4,,,,,,,,3,,,61,0
217885,note_on,445,0,6,,,,,,,,5,,,45,0
217885,note_on,445,0,5,,,,,,,,4,,,45,0
217915,note_on,115,0,2,,,,,,,,1,,,77,0
217915,note_on,115,0,3,,,,,,,,2,,,74,0
217915,note_on,115,0,1,,,,,,,,0,,,77,0
217920,note_on,5,0,2,,,,,,,,1,,,79,64
217920,note_on,35,0,5,,,,,,,,4,,,45,85
217920,note_on,5,0,1,,,,,,,,0,,,79,64
217920,note_on,35,0,4,,,,,,,,3,,,61,85
217920,note_on,5,0,3,,,,,,,,2,,,76,85
217920,note_on,35,0,6,,,,,,,,5,,,45,85
218145,note_on,225,0,2,,,,,,,,1,,,79,0
218145,note_on,225,0,1,,,,,,,,0,,,79,0
218145,note_on,225,0,3,,,,,,,,2,,,76,0
218160,note_on,15,0,3,,,,,,,,2,,,74,85
218160,note_on,15,0,2,,,,,,,,1,,,77,64
218160,note_on,15,0,1,,,,,,,,0,,,77,64
218365,note_on,445,0,4,,,,,,,,3,,,61,0
218365,note_on,445,0,6,,,,,,,,5,,,45,0
218365,note_on,445,0,5,,,,,,,,4,,,45,0
218385,note_on,225,0,1,,,,,,,,0,,,77,0
218385,note_on,225,0,2,,,,,,,,1,,,77,0
218385,note_on,225,0,3,,,,,,,,2,,,74,0
218400,note_on,15,0,1,,,,,,,,0,,,79,64
218400,note_on,15,0,2,,,,,,,,1,,,79,64
218400,note_on,35,0,5,,,,,,,,4,,,45,85
218400,note_on,35,0,6,,,,,,,,5,,,45,85
218400,note_on,35,0,4,,,,,,,,3,,,61,85
218400,note_on,15,0,3,,,,,,,,2,,,76,85
218625,note_on,225,0,3,,,,,,,,2,,,76,0
218625,note_on,225,0,1,,,,,,,,0,,,79,0
218625,note_on,225,0,2,,,,,,,,1,,,79,0
218640,note_on,15,0,2,,,,,,,,1,,,76,64
218640,note_on,15,0,1,,,,,,,,0,,,76,64
218640,note_on,15,0,3,,,,,,,,2,,,73,85
218845,note_on,445,0,5,,,,,,,,4,,,45,0
218845,note_on,445,0,4,,,,,,,,3,,,61,0
218845,note_on,445,0,6,,,,,,,,5,,,45,0
218865,note_on,225,0,2,,,,,,,,1,,,76,0
218865,note_on,225,0,1,,,,,,,,0,,,76,0
218865,note_on,225,0,3,,,,,,,,2,,,73,0
218880,note_on,35,0,5,,,,,,,,4,,,50,85
218880,note_on,35,0,4,,,,,,,,3,,,57,85
218880,note_on,15,0,1,,,,,,,,0,,,77,64
218880,note_on,15,0,2,,,,,,,,1,,,77,64
218880,note_on,15,0,3,,,,,,,,2,,,74,85
218880,note_on,35,0,6,,,,,,,,5,,,50,85
219325,note_on,445,0,2,,,,,,,,1,,,77,0
219325,note_on,445,0,6,,,,,,,,5,,,50,0
219325,note_on,445,0,1,,,,,,,,0,,,77,0
219325,note_on,445,0,5,,,,,,,,4,,,50,0
219325,note_on,445,0,4,,,,,,,,3,,,57,0
219325,note_on,445,0,3,,,,,,,,2,,,74,0
219360,note_on,35,0,2,,,,,,,,1,,,79,64
219360,note_on,35,0,6,,,,,,,,5,,,43,85
219360,note_on,35,0,1,,,,,,,,0,,,79,64
219360,note_on,35,0,3,,,,,,,,2,,,76,85
219360,note_on,35,0,4,,,,,,,,3,,,70,85
219360,note_on,35,0,5,,,,,,,,4,,,43,85
219805,note_on,445,0,2,,,,,,,,1,,,79,0
219805,note_on,445,0,3,,,,,,,,2,,,76,0
219805,note_on,445,0,5,,,,,,,,4,,,43,0
219805,note_on,445,0,4,,,,,,,,3,,,70,0
219805,note_on,445,0,6,,,,,,,,5,,,43,0
219805,note_on,445,0,1,,,,,,,,0,,,79,0
219840,note_on,35,0,4,,,,,,,,3,,,69,85
219840,note_on,35,0,6,,,,,,,,5,,,45,85
219840,note_on,35,0,1,,,,,,,,0,,,76,64
219840,note_on,35,0,5,,,,,,,,4,,,45,85
219840,note_on,35,0,2,,,,,,,,1,,,76,64
219840,note_on,35,0,3,,,,,,,,2,,,73,85
220285,note_on,445,0,3,,,,,,,,2,,,73,0
220285,note_on,445,0,2,,,,,,,,1,,,76,0
220285,note_on,445,0,1,,,,,,,,0,,,76,0
220285,note_on,445,0,4,,,,,,,,3,,,69,0
220285,note_on,445,0,5,,,,,,,,4,,,45,0
220285,note_on,445,0,6,,,,,,,,5,,,45,0
220320,note_on,35,0,3,,,,,,,,2,,,74,85
220320,note_on,35,0,1,,,,,,,,0,,,74,106
220320,note_on,35,0,4,,,,,,,,3,,,69,85
220320,note_on,35,0,5,,,,,,,,4,,,50,85
220320,note_on,35,0,6,,,,,,,,5,,,50,85
220320,note_on,35,0,2,,,,,,,,1,,,74,64
220470,note_on,150,0,1,,,,,,,,0,,,74,0
220480,note_on,10,0,1,,,,,,,,0,,,77,106
220555,note_on,75,0,1,,,,,,,,0,,,77,0
220560,note_on,5,0,1,,,,,,,,0,,,79,106
220635,note_on,75,0,1,,,,,,,,0,,,79,0
220640,note_on,5,0,1,,,,,,,,0,,,81,106
220715,note_on,75,0,1,,,,,,,,0,,,81,0
220720,note_on,5,0,1,,,,,,,,0,,,79,106
220765,note_on,445,0,6,,,,,,,,5,,,50,0
220765,note_on,445,0,4,,,,,,,,3,,,69,0
220765,note_on,445,0,2,,,,,,,,1,,,74,0
220765,note_on,445,0,3,,,,,,,,2,,,74,0
220765,note_on,445,0,5,,,,,,,,4,,,50,0
220795,note_on,75,0,1,,,,,,,,0,,,79,0
220800,note_on,5,0,1,,,,,,,,0,,,77,106
220800,note_on,35,0,2,,,,,,,,1,,,81,64
220950,note_on,150,0,1,,,,,,,,0,,,77,0
220950,note_on,150,0,2,,,,,,,,1,,,81,0
220960,note_on,10,0,1,,,,,,,,0,,,79,106
220960,note_on,10,0,2,,,,,,,,1,,,82,64
221110,note_on,150,0,2,,,,,,,,1,,,82,0
221110,note_on,150,0,1,,,,,,,,0,,,79,0
221120,note_on,10,0,1,,,,,,,,0,,,76,106
221120,note_on,10,0,2,,,,,,,,1,,,79,64
221270,note_on,150,0,2,,,,,,,,1,,,79,0
221270,note_on,150,0,1,,,,,,,,0,,,76,0
221280,note_on,10,0,1,,,,,,,,0,,,74,106
221280,note_on,10,0,2,,,,,,,,1,,,77,64
221430,note_on,150,0,1,,,,,,,,0,,,74,0
221430,note_on,150,0,2,,,,,,,,1,,,77,0
221440,note_on,10,0,1,,,,,,,,0,,,76,106
221440,note_on,10,0,2,,,,,,,,1,,,79,64
221590,note_on,150,0,2,,,,,,,,1,,,79,0
221590,note_on,150,0,1,,,,,,,,0,,,76,0
221600,note_on,10,0,1,,,,,,,,0,,,73,106
221600,note_on,10,0,2,,,,,,,,1,,,76,64
221750,note_on,150,0,2,,,,,,,,1,,,76,0
221750,note_on,150,0,1,,,,,,,,0,,,73,0
221760,note_on,10,0,2,,,,,,,,1,,,77,64
221760,note_on,10,0,1,,,,,,,,0,,,74,106
221760,note_on,995,0,5,,,,,,,,4,,,50,64
221760,note_on,995,0,6,,,,,,,,5,,,50,64
221910,note_on,150,0,1,,,,,,,,0,,,74,0
221920,note_on,10,0,1,,,,,,,,0,,,72,106
221995,note_on,75,0,1,,,,,,,,0,,,72,0
222000,note_on,5,0,1,,,,,,,,0,,,70,106
222075,note_on,75,0,1,,,,,,,,0,,,70,0
222080,note_on,5,0,1,,,,,,,,0,,,69,106
222155,note_on,75,0,1,,,,,,,,0,,,69,0
222160,note_on,5,0,1,,,,,,,,0,,,67,106
222205,note_on,445,0,5,,,,,,,,4,,,50,0
222205,note_on,445,0,2,,,,,,,,1,,,77,0
222205,note_on,445,0,6,,,,,,,,5,,,50,0
222235,note_on,75,0,1,,,,,,,,0,,,67,0
222240,note_on,5,0,1,,,,,,,,0,,,65,106
222240,note_on,35,0,2,,,,,,,,1,,,69,64
222390,note_on,150,0,1,,,,,,,,0,,,65,0
222390,note_on,150,0,2,,,,,,,,1,,,69,0
222400,note_on,10,0,1,,,,,,,,0,,,67,106
222400,note_on,10,0,2,,,,,,,,1,,,70,64
222550,note_on,150,0,1,,,,,,,,0,,,67,0
222550,note_on,150,0,2,,,,,,,,1,,,70,0
222560,note_on,10,0,1,,,,,,,,0,,,64,106
222560,note_on,10,0,2,,,,,,,,1,,,67,64
222710,note_on,150,0,1,,,,,,,,0,,,64,0
222710,note_on,150,0,2,,,,,,,,1,,,67,0
222720,note_on,10,0,1,,,,,,,,0,,,65,106
222720,note_on,10,0,2,,,,,,,,1,,,69,64
222870,note_on,150,0,1,,,,,,,,0,,,65,0
222870,note_on,150,0,2,,,,,,,,1,,,69,0
222880,note_on,10,0,1,,,,,,,,0,,,67,106
222880,note_on,10,0,2,,,,,,,,1,,,70,64
223030,note_on,150,0,2,,,,,,,,1,,,70,0
223030,note_on,150,0,1,,,,,,,,0,,,67,0
223040,note_on,10,0,2,,,,,,,,1,,,67,64
223040,note_on,10,0,1,,,,,,,,0,,,64,106
223190,note_on,150,0,2,,,,,,,,1,,,67,0
223190,note_on,150,0,1,,,,,,,,0,,,64,0
223200,note_on,10,0,1,,,,,,,,0,,,65,106
223200,note_on,10,0,2,,,,,,,,1,,,69,64
223200,note_on,995,0,5,,,,,,,,4,,,50,64
223200,note_on,995,0,6,,,,,,,,5,,,50,64
223350,note_on,150,0,1,,,,,,,,0,,,65,0
223360,note_on,10,0,1,,,,,,,,0,,,62,106
223435,note_on,75,0,1,,,,,,,,0,,,62,0
223440,note_on,5,0,1,,,,,,,,0,,,64,106
223515,note_on,75,0,1,,,,,,,,0,,,64,0
223520,note_on,5,0,1,,,,,,,,0,,,65,106
223595,note_on,75,0,1,,,,,,,,0,,,65,0
223600,note_on,5,0,1,,,,,,,,0,,,67,106
223645,note_on,445,0,5,,,,,,,,4,,,50,0
223645,note_on,445,0,2,,,,,,,,1,,,69,0
223645,note_on,445,0,6,,,,,,,,5,,,50,0
223675,note_on,75,0,1,,,,,,,,0,,,67,0
223680,note_on,5,0,1,,,,,,,,0,,,69,106
223830,note_on,150,0,1,,,,,,,,0,,,69,0
223840,note_on,10,0,1,,,,,,,,0,,,71,106
223990,note_on,150,0,1,,,,,,,,0,,,71,0
224000,note_on,10,0,1,,,,,,,,0,,,73,106
224150,note_on,150,0,1,,,,,,,,0,,,73,0
224160,note_on,10,0,1,,,,,,,,0,,,74,106
224310,note_on,150,0,1,,,,,,,,0,,,74,0
224320,note_on,10,0,1,,,,,,,,0,,,76,106
224470,note_on,150,0,1,,,,,,,,0,,,76,0
224480,note_on,10,0,1,,,,,,,,0,,,77,106
224630,note_on,150,0,1,,,,,,,,0,,,77,0
224640,note_on,995,0,6,,,,,,,,5,,,45,64
224640,note_on,995,0,5,,,,,,,,4,,,45,64
224640,note_on,10,0,1,,,,,,,,0,,,76,106
224880,note_on,1235,0,2,,,,,,,,1,,,76,64
224880,note_on,4115,0,3,,,,,,,,2,,,73,64
225085,note_on,445,0,5,,,,,,,,4,,,45,0
225085,note_on,445,0,1,,,,,,,,0,,,76,0
225085,note_on,445,0,6,,,,,,,,5,,,45,0
225105,note_on,225,0,2,,,,,,,,1,,,76,0
225105,note_on,225,0,3,,,,,,,,2,,,73,0
225120,note_on,15,0,2,,,,,,,,1,,,81,64
225120,note_on,15,0,3,,,,,,,,2,,,77,64
225360,note_on,275,0,1,,,,,,,,0,,,77,106
225360,note_on,275,0,6,,,,,,,,5,,,50,64
225360,note_on,275,0,5,,,,,,,,4,,,50,64
225360,note_on,0,0,1,,,,,,,,0,,,74,106
225565,note_on,445,0,2,,,,,,,,1,,,81,0
225565,note_on,445,0,3,,,,,,,,2,,,77,0
225585,note_on,0,0,1,,,,,,,,0,,,77,0
225585,note_on,225,0,1,,,,,,,,0,,,74,0
225585,note_on,225,0,5,,,,,,,,4,,,50,0
225585,note_on,225,0,6,,,,,,,,5,,,50,0
225600,note_on,0,0,1,,,,,,,,0,,,73,106
225600,note_on,15,0,5,,,,,,,,4,,,45,64
225600,note_on,15,0,1,,,,,,,,0,,,76,106
225600,note_on,15,0,6,,,,,,,,5,,,45,64
225825,note_on,225,0,6,,,,,,,,5,,,45,0
225825,note_on,225,0,1,,,,,,,,0,,,73,0
225825,note_on,225,0,5,,,,,,,,4,,,45,0
225825,note_on,0,0,1,,,,,,,,0,,,76,0
225840,note_on,15,0,6,,,,,,,,5,,,50,64
225840,note_on,15,0,1,,,,,,,,0,,,77,106
225840,note_on,15,0,5,,,,,,,,4,,,50,64
225840,note_on,0,0,1,,,,,,,,0,,,74,106
226065,note_on,225,0,5,,,,,,,,4,,,50,0
226065,note_on,225,0,1,,,,,,,,0,,,74,0
226065,note_on,225,0,6,,,,,,,,5,,,50,0
226065,note_on,0,0,1,,,,,,,,0,,,77,0
226080,note_on,15,0,1,,,,,,,,0,,,76,106
226080,note_on,0,0,1,,,,,,,,0,,,73,106
226080,note_on,15,0,5,,,,,,,,4,,,45,64
226080,note_on,15,0,6,,,,,,,,5,,,45,64
226305,note_on,225,0,1,,,,,,,,0,,,73,0
226305,note_on,0,0,1,,,,,,,,0,,,76,0
226305,note_on,225,0,5,,,,,,,,4,,,45,0
226305,note_on,225,0,6,,,,,,,,5,,,45,0
226320,note_on,15,0,5,,,,,,,,4,,,50,64
226320,note_on,0,0,1,,,,,,,,0,,,74,106
226320,note_on,15,0,1,,,,,,,,0,,,77,106
226320,note_on,15,0,6,,,,,,,,5,,,50,64
226545,note_on,225,0,6,,,,,,,,5,,,50,0
226545,note_on,225,0,1,,,,,,,,0,,,74,0
226545,note_on,0,0,1,,,,,,,,0,,,77,0
226545,note_on,225,0,5,,,,,,,,4,,,50,0
226560,note_on,15,0,5,,,,,,,,4,,,45,64
226560,note_on,15,0,1,,,,,,,,0,,,76,106
226560,note_on,15,0,6,,,,,,,,5,,,45,64
226560,note_on,0,0,1,,,,,,,,0,,,73,106
226785,note_on,225,0,1,,,,,,,,0,,,73,0
226785,note_on,0,0,1,,,,,,,,0,,,76,0
226785,note_on,225,0,5,,,,,,,,4,,,45,0
226785,note_on,225,0,6,,,,,,,,5,,,45,0
226800,note_on,15,0,1,,,,,,,,0,,,77,106
226800,note_on,0,0,1,,,,,,,,0,,,74,106
226800,note_on,15,0,5,,,,,,,,4,,,50,64
226800,note_on,15,0,6,,,,,,,,5,,,50,64
227025,note_on,225,0,5,,,,,,,,4,,,50,0
227025,note_on,0,0,1,,,,,,,,0,,,77,0
227025,note_on,225,0,6,,,,,,,,5,,,50,0
227025,note_on,225,0,1,,,,,,,,0,,,74,0
227040,note_on,15,0,5,,,,,,,,4,,,45,64
227040,note_on,0,0,1,,,,,,,,0,,,76,106
227040,note_on,15,0,6,,,,,,,,5,,,45,64
227040,note_on,15,0,1,,,,,,,,0,,,79,106
227265,note_on,225,0,1,,,,,,,,0,,,76,0
227265,note_on,225,0,5,,,,,,,,4,,,45,0
227265,note_on,225,0,6,,,,,,,,5,,,45,0
227265,note_on,0,0,1,,,,,,,,0,,,79,0
227280,note_on,15,0,1,,,,,,,,0,,,77,106
227280,note_on,0,0,1,,,,,,,,0,,,74,106
227280,note_on,15,0,5,,,,,,,,4,,,50,64
227280,note_on,15,0,6,,,,,,,,5,,,50,64
227505,note_on,225,0,6,,,,,,,,5,,,50,0
227505,note_on,225,0,5,,,,,,,,4,,,50,0
227505,note_on,225,0,1,,,,,,,,0,,,74,0
227505,note_on,0,0,1,,,,,,,,0,,,77,0
227520,note_on,15,0,5,,,,,,,,4,,,44,64
227520,note_on,15,0,1,,,,,,,,0,,,77,106
227520,note_on,15,0,6,,,,,,,,5,,,44,64
227520,note_on,0,0,1,,,,,,,,0,,,74,106
227745,note_on,225,0,6,,,,,,,,5,,,44,0
227745,note_on,225,0,1,,,,,,,,0,,,74,0
227745,note_on,0,0,1,,,,,,,,0,,,77,0
227745,note_on,225,0,5,,,,,,,,4,,,44,0
227760,note_on,15,0,5,,,,,,,,4,,,45,64
227760,note_on,2195,0,3,,,,,,,,2,,,73,64
227760,note_on,15,0,6,,,,,,,,5,,,45,64
227760,note_on,0,0,1,,,,,,,,0,,,73,106
227760,note_on,15,0,1,,,,,,,,0,,,76,106
227760,note_on,2195,0,2,,,,,,,,1,,,76,64
227985,note_on,225,0,3,,,,,,,,2,,,73,0
227985,note_on,0,0,1,,,,,,,,0,,,76,0
227985,note_on,225,0,5,,,,,,,,4,,,45,0
227985,note_on,225,0,2,,,,,,,,1,,,76,0
227985,note_on,225,0,6,,,,,,,,5,,,45,0
227985,note_on,225,0,1,,,,,,,,0,,,73,0
228000,note_on,15,0,2,,,,,,,,1,,,81,64
228000,note_on,15,0,3,,,,,,,,2,,,77,64
228240,note_on,255,0,6,,,,,,,,5,,,50,64
228240,note_on,255,0,1,,,,,,,,0,,,77,106
228240,note_on,0,0,1,,,,,,,,0,,,74,106
228240,note_on,255,0,5,,,,,,,,4,,,50,64
228445,note_on,445,0,3,,,,,,,,2,,,77,0
228445,note_on,445,0,2,,,,,,,,1,,,81,0
228465,note_on,225,0,5,,,,,,,,4,,,50,0
228465,note_on,225,0,6,,,,,,,,5,,,50,0
228465,note_on,225,0,1,,,,,,,,0,,,74,0
228465,note_on,0,0,1,,,,,,,,0,,,77,0
228480,note_on,15,0,6,,,,,,,,5,,,45,64
228480,note_on,15,0,1,,,,,,,,0,,,76,106
228480,note_on,0,0,1,,,,,,,,0,,,73,106
228480,note_on,15,0,5,,,,,,,,4,,,45,64
228705,note_on,225,0,5,,,,,,,,4,,,45,0
228705,note_on,225,0,6,,,,,,,,5,,,45,0
228705,note_on,0,0,1,,,,,,,,0,,,76,0
228705,note_on,225,0,1,,,,,,,,0,,,73,0
228720,note_on,0,0,1,,,,,,,,0,,,74,106
228720,note_on,15,0,1,,,,,,,,0,,,77,106
228720,note_on,15,0,5,,,,,,,,4,,,50,64
228720,note_on,15,0,6,,,,,,,,5,,,50,64
228945,note_on,225,0,5,,,,,,,,4,,,50,0
228945,note_on,225,0,1,,,,,,,,0,,,74,0
228945,note_on,0,0,1,,,,,,,,0,,,77,0
228945,note_on,225,0,6,,,,,,,,5,,,50,0
228960,note_on,15,0,1,,,,,,,,0,,,76,106
228960,note_on,0,0,1,,,,,,,,0,,,73,106
228960,note_on,15,0,5,,,,,,,,4,,,45,64
228960,note_on,15,0,6,,,,,,,,5,,,45,64
229185,note_on,0,0,1,,,,,,,,0,,,76,0
229185,note_on,225,0,1,,,,,,,,0,,,73,0
229185,note_on,225,0,6,,,,,,,,5,,,45,0
229185,note_on,225,0,5,,,,,,,,4,,,45,0
229200,note_on,15,0,6,,,,,,,,5,,,50,64
229200,note_on,15,0,5,,,,,,,,4,,,50,64
229200,note_on,15,0,1,,,,,,,,0,,,77,106
229200,note_on,0,0,1,,,,,,,,0,,,74,106
229425,note_on,225,0,5,,,,,,,,4,,,50,0
229425,note_on,0,0,1,,,,,,,,0,,,77,0
229425,note_on,225,0,6,,,,,,,,5,,,50,0
229425,note_on,225,0,1,,,,,,,,0,,,74,0
229440,note_on,15,0,6,,,,,,,,5,,,45,64
229440,note_on,0,0,1,,,,,,,,0,,,73,106
229440,note_on,15,0,1,,,,,,,,0,,,76,106
229440,note_on,15,0,5,,,,,,,,4,,,45,64
229665,note_on,225,0,5,,,,,,,,4,,,45,0
229665,note_on,0,0,1,,,,,,,,0,,,76,0
229665,note_on,225,0,6,,,,,,,,5,,,45,0
229665,note_on,225,0,1,,,,,,,,0,,,73,0
229680,note_on,15,0,5,,,,,,,,4,,,50,64
229680,note_on,15,0,6,,,,,,,,5,,,50,64
229680,note_on,15,0,1,,,,,,,,0,,,77,106
229680,note_on,0,0,1,,,,,,,,0,,,74,106
229905,note_on,0,0,1,,,,,,,,0,,,77,0
229905,note_on,225,0,6,,,,,,,,5,,,50,0
229905,note_on,225,0,1,,,,,,,,0,,,74,0
229905,note_on,225,0,5,,,,,,,,4,,,50,0
229920,note_on,0,0,1,,,,,,,,0,,,76,106
229920,note_on,15,0,6,,,,,,,,5,,,45,64
229920,note_on,15,0,5,,,,,,,,4,,,45,64
229920,note_on,15,0,1,,,,,,,,0,,,79,106
230145,note_on,225,0,1,,,,,,,,0,,,76,0
230145,note_on,0,0,1,,,,,,,,0,,,79,0
230145,note_on,225,0,5,,,,,,,,4,,,45,0
230145,note_on,225,0,6,,,,,,,,5,,,45,0
230160,note_on,15,0,5,,,,,,,,4,,,50,64
230160,note_on,15,0,1,,,,,,,,0,,,77,106
230160,note_on,0,0,1,,,,,,,,0,,,74,106
230160,note_on,15,0,6,,,,,,,,5,,,50,64
230385,note_on,0,0,1,,,,,,,,0,,,77,0
230385,note_on,225,0,1,,,,,,,,0,,,74,0
230385,note_on,225,0,5,,,,,,,,4,,,50,0
230385,note_on,225,0,6,,,,,,,,5,,,50,0
230400,note_on,15,0,5,,,,,,,,4,,,44,64
230400,note_on,0,0,1,,,,,,,,0,,,74,106
230400,note_on,15,0,1,,,,,,,,0,,,77,106
230400,note_on,15,0,6,,,,,,,,5,,,44,64
230625,note_on,0,0,1,,,,,,,,0,,,77,0
230625,note_on,225,0,1,,,,,,,,0,,,74,0
230625,note_on,225,0,5,,,,,,,,4,,,44,0
230625,note_on,225,0,6,,,,,,,,5,,,44,0
230640,note_on,2195,0,3,,,,,,,,2,,,73,64
230640,note_on,0,0,1,,,,,,,,0,,,73,106
230640,note_on,15,0,1,,,,,,,,0,,,76,106
230640,note_on,15,0,5,,,,,,,,4,,,45,64
230640,note_on,2195,0,2,,,,,,,,1,,,76,64
230640,note_on,15,0,6,,,,,,,,5,,,45,64
230865,note_on,225,0,2,,,,,,,,1,,,76,0
230865,note_on,225,0,6,,,,,,,,5,,,45,0
230865,note_on,225,0,5,,,,,,,,4,,,45,0
230865,note_on,225,0,1,,,,,,,,0,,,73,0
230865,note_on,225,0,3,,,,,,,,2,,,73,0
230865,note_on,0,0,1,,,,,,,,0,,,76,0
230880,note_on,15,0,2,,,,,,,,1,,,81,64
230880,note_on,15,0,3,,,,,,,,2,,,77,64
231120,note_on,255,0,1,,,,,,,,0,,,81,106
231120,note_on,0,0,1,,,,,,,,0,,,77,106
231120,note_on,255,0,6,,,,,,,,5,,,50,64
231120,note_on,255,0,5,,,,,,,,4,,,50,64
231325,note_on,445,0,3,,,,,,,,2,,,77,0
231325,note_on,445,0,2,,,,,,,,1,,,81,0
231345,note_on,225,0,5,,,,,,,,4,,,50,0
231345,note_on,0,0,1,,,,,,,,0,,,81,0
231345,note_on,225,0,6,,,,,,,,5,,,50,0
231345,note_on,225,0,1,,,,,,,,0,,,77,0
231360,note_on,15,0,5,,,,,,,,4,,,49,64
231360,note_on,15,0,1,,,,,,,,0,,,82,106
231360,note_on,0,0,1,,,,,,,,0,,,79,106
231360,note_on,15,0,6,,,,,,,,5,,,49,64
231585,note_on,225,0,5,,,,,,,,4,,,49,0
231585,note_on,225,0,1,,,,,,,,0,,,79,0
231585,note_on,0,0,1,,,,,,,,0,,,82,0
231585,note_on,225,0,6,,,,,,,,5,,,49,0
231600,note_on,15,0,6,,,,,,,,5,,,50,64
231600,note_on,15,0,1,,,,,,,,0,,,81,106
231600,note_on,0,0,1,,,,,,,,0,,,77,106
231600,note_on,15,0,5,,,,,,,,4,,,50,64
231825,note_on,0,0,1,,,,,,,,0,,,81,0
231825,note_on,225,0,1,,,,,,,,0,,,77,0
231825,note_on,225,0,6,,,,,,,,5,,,50,0
231825,note_on,225,0,5,,,,,,,,4,,,50,0
231840,note_on,0,0,1,,,,,,,,0,,,79,106
231840,note_on,15,0,1,,,,,,,,0,,,82,106
231840,note_on,15,0,6,,,,,,,,5,,,49,64
231840,note_on,15,0,5,,,,,,,,4,,,49,64
232065,note_on,0,0,1,,,,,,,,0,,,82,0
232065,note_on,225,0,6,,,,,,,,5,,,49,0
232065,note_on,225,0,1,,,,,,,,0,,,79,0
232065,note_on,225,0,5,,,,,,,,4,,,49,0
232080,note_on,0,0,1,,,,,,,,0,,,77,106
232080,note_on,15,0,1,,,,,,,,0,,,81,106
232080,note_on,15,0,6,,,,,,,,5,,,50,64
232080,note_on,15,0,5,,,,,,,,4,,,50,64
232305,note_on,0,0,1,,,,,,,,0,,,81,0
232305,note_on,225,0,5,,,,,,,,4,,,50,0
232305,note_on,225,0,1,,,,,,,,0,,,77,0
232305,note_on,225,0,6,,,,,,,,5,,,50,0
232320,note_on,0,0,1,,,,,,,,0,,,79,106
232320,note_on,15,0,1,,,,,,,,0,,,82,106
232320,note_on,15,0,6,,,,,,,,5,,,49,64
232320,note_on,15,0,5,,,,,,,,4,,,49,64
232545,note_on,225,0,6,,,,,,,,5,,,49,0
232545,note_on,225,0,5,,,,,,,,4,,,49,0
232545,note_on,225,0,1,,,,,,,,0,,,79,0
232545,note_on,0,0,1,,,,,,,,0,,,82,0
232560,note_on,15,0,6,,,,,,,,5,,,50,64
232560,note_on,15,0,1,,,,,,,,0,,,81,106
232560,note_on,0,0,1,,,,,,,,0,,,77,106
232560,note_on,15,0,5,,,,,,,,4,,,50,64
232785,note_on,225,0,6,,,,,,,,5,,,50,0
232785,note_on,225,0,1,,,,,,,,0,,,77,0
232785,note_on,0,0,1,,,,,,,,0,,,81,0
232785,note_on,225,0,5,,,,,,,,4,,,50,0
232800,note_on,0,0,1,,,,,,,,0,,,79,106
232800,note_on,15,0,5,,,,,,,,4,,,49,64
232800,note_on,15,0,1,,,,,,,,0,,,82,106
232800,note_on,15,0,6,,,,,,,,5,,,49,64
233025,note_on,225,0,6,,,,,,,,5,,,49,0
233025,note_on,225,0,5,,,,,,,,4,,,49,0
233025,note_on,225,0,1,,,,,,,,0,,,79,0
233025,note_on,0,0,1,,,,,,,,0,,,82,0
233040,note_on,0,0,1,,,,,,,,0,,,77,106
233040,note_on,15,0,5,,,,,,,,4,,,50,64
233040,note_on,15,0,6,,,,,,,,5,,,50,64
233040,note_on,15,0,1,,,,,,,,0,,,81,106
233265,note_on,225,0,5,,,,,,,,4,,,50,0
233265,note_on,0,0,1,,,,,,,,0,,,81,0
233265,note_on,225,0,1,,,,,,,,0,,,77,0
233265,note_on,225,0,6,,,,,,,,5,,,50,0
233280,note_on,0,0,1,,,,,,,,0,,,79,106
233280,note_on,15,0,1,,,,,,,,0,,,82,106
233280,note_on,15,0,6,,,,,,,,5,,,49,64
233280,note_on,15,0,5,,,,,,,,4,,,49,64
233520,note_on,2195,0,3,,,,,,,,2,,,76,64
233520,note_on,2195,0,2,,,,,,,,1,,,79,64
233725,note_on,0,0,1,,,,,,,,0,,,82,0
233725,note_on,445,0,5,,,,,,,,4,,,49,0
233725,note_on,445,0,1,,,,,,,,0,,,79,0
233725,note_on,445,0,6,,,,,,,,5,,,49,0
233745,note_on,225,0,3,,,,,,,,2,,,76,0
233745,note_on,225,0,2,,,,,,,,1,,,79,0
233760,note_on,15,0,3,,,,,,,,2,,,79,64
233760,note_on,15,0,2,,,,,,,,1,,,82,64
234000,note_on,0,0,1,,,,,,,,0,,,64,106
234000,note_on,275,0,6,,,,,,,,5,,,45,64
234000,note_on,275,0,5,,,,,,,,4,,,45,64
234000,note_on,275,0,1,,,,,,,,0,,,67,106
234205,note_on,445,0,3,,,,,,,,2,,,79,0
234205,note_on,445,0,2,,,,,,,,1,,,82,0
234225,note_on,225,0,1,,,,,,,,0,,,64,0
234225,note_on,225,0,5,,,,,,,,4,,,45,0
234225,note_on,225,0,6,,,,,,,,5,,,45,0
234225,note_on,0,0,1,,,,,,,,0,,,67,0
234240,note_on,15,0,6,,,,,,,,5,,,50,64
234240,note_on,15,0,1,,,,,,,,0,,,69,106
234240,note_on,0,0,1,,,,,,,,0,,,65,106
234240,note_on,15,0,5,,,,,,,,4,,,50,64
234465,note_on,225,0,6,,,,,,,,5,,,50,0
234465,note_on,225,0,1,,,,,,,,0,,,65,0
234465,note_on,0,0,1,,,,,,,,0,,,69,0
234465,note_on,225,0,5,,,,,,,,4,,,50,0
234480,note_on,0,0,1,,,,,,,,0,,,64,106
234480,note_on,15,0,6,,,,,,,,5,,,45,64
234480,note_on,15,0,5,,,,,,,,4,,,45,64
234480,note_on,15,0,1,,,,,,,,0,,,67,106
234705,note_on,225,0,6,,,,,,,,5,,,45,0
234705,note_on,225,0,5,,,,,,,,4,,,45,0
234705,note_on,225,0,1,,,,,,,,0,,,64,0
234705,note_on,0,0,1,,,,,,,,0,,,67,0
234720,note_on,15,0,5,,,,,,,,4,,,50,64
234720,note_on,15,0,6,,,,,,,,5,,,50,64
234720,note_on,15,0,1,,,,,,,,0,,,69,106
234720,note_on,0,0,1,,,,,,,,0,,,65,106
234945,note_on,225,0,5,,,,,,,,4,,,50,0
234945,note_on,225,0,6,,,,,,,,5,,,50,0
234945,note_on,0,0,1,,,,,,,,0,,,69,0
234945,note_on,225,0,1,,,,,,,,0,,,65,0
234960,note_on,15,0,5,,,,,,,,4,,,45,64
234960,note_on,15,0,6,,,,,,,,5,,,45,64
234960,note_on,0,0,1,,,,,,,,0,,,64,106
234960,note_on,15,0,1,,,,,,,,0,,,67,106
235185,note_on,225,0,5,,,,,,,,4,,,45,0
235185,note_on,225,0,6,,,,,,,,5,,,45,0
235185,note_on,0,0,1,,,,,,,,0,,,67,0
235185,note_on,225,0,1,,,,,,,,0,,,64,0
235200,note_on,0,0,1,,,,,,,,0,,,65,106
235200,note_on,15,0,1,,,,,,,,0,,,69,106
235200,note_on,15,0,6,,,,,,,,5,,,50,64
235200,note_on,15,0,5,,,,,,,,4,,,50,64
235425,note_on,0,0,1,,,,,,,,0,,,69,0
235425,note_on,225,0,5,,,,,,,,4,,,50,0
235425,note_on,225,0,1,,,,,,,,0,,,65,0
235425,note_on,225,0,6,,,,,,,,5,,,50,0
235440,note_on,15,0,5,,,,,,,,4,,,45,64
235440,note_on,15,0,6,,,,,,,,5,,,45,64
235440,note_on,0,0,1,,,,,,,,0,,,64,106
235440,note_on,15,0,1,,,,,,,,0,,,67,106
235665,note_on,225,0,5,,,,,,,,4,,,45,0
235665,note_on,225,0,1,,,,,,,,0,,,64,0
235665,note_on,0,0,1,,,,,,,,0,,,67,0
235665,note_on,225,0,6,,,,,,,,5,,,45,0
235680,note_on,15,0,6,,,,,,,,5,,,50,64
235680,note_on,0,0,1,,,,,,,,0,,,65,106
235680,note_on,15,0,1,,,,,,,,0,,,69,106
235680,note_on,15,0,5,,,,,,,,4,,,50,64
235905,note_on,225,0,6,,,,,,,,5,,,50,0
235905,note_on,225,0,1,,,,,,,,0,,,65,0
235905,note_on,225,0,5,,,,,,,,4,,,50,0
235905,note_on,0,0,1,,,,,,,,0,,,69,0
235920,note_on,15,0,5,,,,,,,,4,,,45,64
235920,note_on,15,0,1,,,,,,,,0,,,67,106
235920,note_on,15,0,6,,,,,,,,5,,,45,64
235920,note_on,0,0,1,,,,,,,,0,,,64,106
236145,note_on,225,0,1,,,,,,,,0,,,64,0
236145,note_on,0,0,1,,,,,,,,0,,,67,0
236145,note_on,225,0,6,,,,,,,,5,,,45,0
236145,note_on,225,0,5,,,,,,,,4,,,45,0
236160,note_on,15,0,6,,,,,,,,5,,,50,64
236160,note_on,15,0,5,,,,,,,,4,,,50,64
236160,note_on,15,0,1,,,,,,,,0,,,65,106
236160,note_on,0,0,1,,,,,,,,0,,,62,106
236400,note_on,2195,0,3,,,,,,,,2,,,74,64
236400,note_on,2195,0,2,,,,,,,,1,,,77,64
236605,note_on,445,0,6,,,,,,,,5,,,50,0
236605,note_on,445,0,1,,,,,,,,0,,,62,0
236605,note_on,445,0,5,,,,,,,,4,,,50,0
236605,note_on,0,0,1,,,,,,,,0,,,65,0
236625,note_on,225,0,2,,,,,,,,1,,,77,0
236625,note_on,225,0,3,,,,,,,,2,,,74,0
236640,note_on,15,0,3,,,,,,,,2,,,77,64
236640,note_on,15,0,2,,,,,,,,1,,,81,64
236880,note_on,275,0,5,,,,,,,,4,,,50,64
236880,note_on,275,0,1,,,,,,,,0,,,77,106
236880,note_on,275,0,6,,,,,,,,5,,,50,64
236880,note_on,0,0,1,,,,,,,,0,,,74,106
237085,note_on,445,0,2,,,,,,,,1,,,81,0
237085,note_on,445,0,3,,,,,,,,2,,,77,0
237105,note_on,225,0,6,,,,,,,,5,,,50,0
237105,note_on,225,0,5,,,,,,,,4,,,50,0
237105,note_on,225,0,1,,,,,,,,0,,,74,0
237105,note_on,0,0,1,,,,,,,,0,,,77,0
237120,note_on,15,0,6,,,,,,,,5,,,49,64
237120,note_on,15,0,5,,,,,,,,4,,,49,64
237120,note_on,15,0,1,,,,,,,,0,,,79,106
237120,note_on,0,0,1,,,,,,,,0,,,76,106
237345,note_on,225,0,5,,,,,,,,4,,,49,0
237345,note_on,225,0,6,,,,,,,,5,,,49,0
237345,note_on,225,0,1,,,,,,,,0,,,76,0
237345,note_on,0,0,1,,,,,,,,0,,,79,0
237360,note_on,15,0,1,,,,,,,,0,,,77,106
237360,note_on,0,0,1,,,,,,,,0,,,74,106
237360,note_on,15,0,5,,,,,,,,4,,,50,64
237360,note_on,15,0,6,,,,,,,,5,,,50,64
237585,note_on,225,0,5,,,,,,,,4,,,50,0
237585,note_on,225,0,6,,,,,,,,5,,,50,0
237585,note_on,0,0,1,,,,,,,,0,,,77,0
237585,note_on,225,0,1,,,,,,,,0,,,74,0
237600,note_on,0,0,1,,,,,,,,0,,,76,106
237600,note_on,15,0,6,,,,,,,,5,,,49,64
237600,note_on,15,0,1,,,,,,,,0,,,79,106
237600,note_on,15,0,5,,,,,,,,4,,,49,64
237825,note_on,225,0,1,,,,,,,,0,,,76,0
237825,note_on,225,0,6,,,,,,,,5,,,49,0
237825,note_on,0,0,1,,,,,,,,0,,,79,0
237825,note_on,225,0,5,,,,,,,,4,,,49,0
237840,note_on,15,0,1,,,,,,,,0,,,77,106
237840,note_on,0,0,1,,,,,,,,0,,,74,106
237840,note_on,15,0,6,,,,,,,,5,,,50,64
237840,note_on,15,0,5,,,,,,,,4,,,50,64
238065,note_on,225,0,1,,,,,,,,0,,,74,0
238065,note_on,225,0,6,,,,,,,,5,,,50,0
238065,note_on,0,0,1,,,,,,,,0,,,77,0
238065,note_on,225,0,5,,,,,,,,4,,,50,0
238080,note_on,15,0,6,,,,,,,,5,,,49,64
238080,note_on,15,0,1,,,,,,,,0,,,79,106
238080,note_on,0,0,1,,,,,,,,0,,,76,106
238080,note_on,15,0,5,,,,,,,,4,,,49,64
238305,note_on,225,0,1,,,,,,,,0,,,76,0
238305,note_on,0,0,1,,,,,,,,0,,,79,0
238305,note_on,225,0,5,,,,,,,,4,,,49,0
238305,note_on,225,0,6,,,,,,,,5,,,49,0
238320,note_on,15,0,5,,,,,,,,4,,,50,64
238320,note_on,15,0,1,,,,,,,,0,,,77,106
238320,note_on,15,0,6,,,,,,,,5,,,50,64
238320,note_on,0,0,1,,,,,,,,0,,,74,106
238545,note_on,225,0,6,,,,,,,,5,,,50,0
238545,note_on,225,0,1,,,,,,,,0,,,74,0
238545,note_on,0,0,1,,,,,,,,0,,,77,0
238545,note_on,225,0,5,,,,,,,,4,,,50,0
238560,note_on,15,0,6,,,,,,,,5,,,49,64
238560,note_on,15,0,5,,,,,,,,4,,,49,64
238560,note_on,0,0,1,,,,,,,,0,,,76,106
238560,note_on,15,0,1,,,,,,,,0,,,79,106
238785,note_on,225,0,6,,,,,,,,5,,,49,0
238785,note_on,225,0,5,,,,,,,,4,,,49,0
238785,note_on,225,0,1,,,,,,,,0,,,76,0
238785,note_on,0,0,1,,,,,,,,0,,,79,0
238800,note_on,15,0,6,,,,,,,,5,,,50,64
238800,note_on,15,0,5,,,,,,,,4,,,50,64
238800,note_on,0,0,1,,,,,,,,0,,,74,106
238800,note_on,15,0,1,,,,,,,,0,,,77,106
239025,note_on,0,0,1,,,,,,,,0,,,77,0
239025,note_on,225,0,6,,,,,,,,5,,,50,0
239025,note_on,225,0,1,,,,,,,,0,,,74,0
239025,note_on,225,0,5,,,,,,,,4,,,50,0
239040,note_on,15,0,5,,,,,,,,4,,,45,64
239040,note_on,15,0,1,,,,,,,,0,,,79,106
239040,note_on,0,0,1,,,,,,,,0,,,76,106
239040,note_on,15,0,6,,,,,,,,5,,,45,64
239280,note_on,2195,0,3,,,,,,,,2,,,73,64
239280,note_on,2195,0,2,,,,,,,,1,,,76,64
239485,note_on,445,0,1,,,,,,,,0,,,76,0
239485,note_on,445,0,6,,,,,,,,5,,,45,0
239485,note_on,0,0,1,,,,,,,,0,,,79,0
239485,note_on,445,0,5,,,,,,,,4,,,45,0
239505,note_on,225,0,3,,,,,,,,2,,,73,0
239505,note_on,225,0,2,,,,,,,,1,,,76,0
239520,note_on,15,0,3,,,,,,,,2,,,76,64
239520,note_on,15,0,2,,,,,,,,1,,,79,64
239760,note_on,275,0,5,,,,,,,,4,,,45,64
239760,note_on,275,0,6,,,,,,,,5,,,45,64
239760,note_on,275,0,1,,,,,,,,0,,,64,106
239760,note_on,0,0,1,,,,,,,,0,,,61,106
239965,note_on,445,0,2,,,,,,,,1,,,79,0
239965,note_on,445,0,3,,,,,,,,2,,,76,0
239985,note_on,225,0,5,,,,,,,,4,,,45,0
239985,note_on,0,0,1,,,,,,,,0,,,64,0
239985,note_on,225,0,6,,,,,,,,5,,,45,0
239985,note_on,225,0,1,,,,,,,,0,,,61,0
240000,note_on,15,0,6,,,,,,,,5,,,50,64
240000,note_on,15,0,1,,,,,,,,0,,,65,106
240000,note_on,15,0,5,,,,,,,,4,,,50,64
240000,note_on,0,0,1,,,,,,,,0,,,62,106
240225,note_on,225,0,1,,,,,,,,0,,,62,0
240225,note_on,225,0,6,,,,,,,,5,,,50,0
240225,note_on,0,0,1,,,,,,,,0,,,65,0
240225,note_on,225,0,5,,,,,,,,4,,,50,0
240240,note_on,15,0,6,,,,,,,,5,,,45,64
240240,note_on,15,0,1,,,,,,,,0,,,64,106
240240,note_on,0,0,1,,,,,,,,0,,,61,106
240240,note_on,15,0,5,,,,,,,,4,,,45,64
240465,note_on,225,0,1,,,,,,,,0,,,61,0
240465,note_on,0,0,1,,,,,,,,0,,,64,0
240465,note_on,225,0,6,,,,,,,,5,,,45,0
240465,note_on,225,0,5,,,,,,,,4,,,45,0
240480,note_on,0,0,1,,,,,,,,0,,,62,106
240480,note_on,15,0,1,,,,,,,,0,,,65,106
240480,note_on,15,0,6,,,,,,,,5,,,50,64
240480,note_on,15,0,5,,,,,,,,4,,,50,64
240705,note_on,225,0,5,,,,,,,,4,,,50,0
240705,note_on,225,0,6,,,,,,,,5,,,50,0
240705,note_on,0,0,1,,,,,,,,0,,,65,0
240705,note_on,225,0,1,,,,,,,,0,,,62,0
240720,note_on,15,0,6,,,,,,,,5,,,45,64
240720,note_on,15,0,5,,,,,,,,4,,,45,64
240720,note_on,0,0,1,,,,,,,,0,,,61,106
240720,note_on,15,0,1,,,,,,,,0,,,64,106
240945,note_on,225,0,5,,,,,,,,4,,,45,0
240945,note_on,225,0,6,,,,,,,,5,,,45,0
240945,note_on,225,0,1,,,,,,,,0,,,61,0
240945,note_on,0,0,1,,,,,,,,0,,,64,0
240960,note_on,15,0,5,,,,,,,,4,,,50,64
240960,note_on,15,0,1,,,,,,,,0,,,65,106
240960,note_on,0,0,1,,,,,,,,0,,,62,106
240960,note_on,15,0,6,,,,,,,,5,,,50,64
241185,note_on,225,0,6,,,,,,,,5,,,50,0
241185,note_on,225,0,1,,,,,,,,0,,,62,0
241185,note_on,0,0,1,,,,,,,,0,,,65,0
241185,note_on,225,0,5,,,,,,,,4,,,50,0
241200,note_on,15,0,6,,,,,,,,5,,,45,64
241200,note_on,15,0,1,,,,,,,,0,,,64,106
241200,note_on,0,0,1,,,,,,,,0,,,61,106
241200,note_on,15,0,5,,,,,,,,4,,,45,64
241425,note_on,225,0,6,,,,,,,,5,,,45,0
241425,note_on,225,0,5,,,,,,,,4,,,45,0
241425,note_on,225,0,1,,,,,,,,0,,,61,0
241425,note_on,0,0,1,,,,,,,,0,,,64,0
241440,note_on,15,0,6,,,,,,,,5,,,50,64
241440,note_on,15,0,5,,,,,,,,4,,,50,64
241440,note_on,0,0,1,,,,,,,,0,,,62,106
241440,note_on,15,0,1,,,,,,,,0,,,65,106
241665,note_on,225,0,1,,,,,,,,0,,,62,0
241665,note_on,0,0,1,,,,,,,,0,,,65,0
241665,note_on,225,0,5,,,,,,,,4,,,50,0
241665,note_on,225,0,6,,,,,,,,5,,,50,0
241680,note_on,15,0,5,,,,,,,,4,,,45,64
241680,note_on,15,0,1,,,,,,,,0,,,62,106
241680,note_on,15,0,6,,,,,,,,5,,,45,64
241680,note_on,0,0,1,,,,,,,,0,,,59,106
241905,note_on,225,0,5,,,,,,,,4,,,45,0
241905,note_on,225,0,6,,,,,,,,5,,,45,0
241905,note_on,0,0,1,,,,,,,,0,,,62,0
241905,note_on,225,0,1,,,,,,,,0,,,59,0
241920,note_on,0,0,1,,,,,,,,0,,,61,106
241920,note_on,15,0,6,,,,,,,,5,,,45,64
241920,note_on,15,0,5,,,,,,,,4,,,45,64
241920,note_on,15,0,1,,,,,,,,0,,,64,106
242145,note_on,225,0,1,,,,,,,,0,,,61,0
242145,note_on,0,0,1,,,,,,,,0,,,64,0
242160,note_on,15,0,1,,,,,,,,0,,,81,106
242160,note_on,0,0,1,,,,,,,,0,,,73,106
242160,note_on,2195,0,2,,,,,,,,1,,,76,64
242365,note_on,445,0,6,,,,,,,,5,,,45,0
242365,note_on,445,0,5,,,,,,,,4,,,45,0
242385,note_on,225,0,2,,,,,,,,1,,,76,0
242385,note_on,225,0,1,,,,,,,,0,,,73,0
242385,note_on,0,0,1,,,,,,,,0,,,81,0
242400,note_on,15,0,2,,,,,,,,1,,,81,64
242400,note_on,0,0,1,,,,,,,,0,,,64,106
242400,note_on,15,0,1,,,,,,,,0,,,73,106
242625,note_on,0,0,1,,,,,,,,0,,,73,0
242625,note_on,225,0,1,,,,,,,,0,,,64,0
242640,note_on,2675,0,3,,,,,,,,2,,,76,64
242640,note_on,15,0,1,,,,,,,,0,,,81,106
242640,note_on,0,0,1,,,,,,,,0,,,73,106
242845,note_on,445,0,2,,,,,,,,1,,,81,0
242865,note_on,0,0,1,,,,,,,,0,,,81,0
242865,note_on,225,0,3,,,,,,,,2,,,76,0
242865,note_on,225,0,1,,,,,,,,0,,,73,0
242880,note_on,15,0,1,,,,,,,,0,,,73,106
242880,note_on,0,0,1,,,,,,,,0,,,64,106
242880,note_on,15,0,3,,,,,,,,2,,,81,64
243105,note_on,225,0,1,,,,,,,,0,,,64,0
243105,note_on,0,0,1,,,,,,,,0,,,73,0
243120,note_on,275,0,2,,,,,,,,1,,,76,64
243120,note_on,15,0,1,,,,,,,,0,,,81,106
243120,note_on,0,0,1,,,,,,,,0,,,73,106
243325,note_on,445,0,3,,,,,,,,2,,,81,0
243345,note_on,225,0,2,,,,,,,,1,,,76,0
243345,note_on,225,0,1,,,,,,,,0,,,73,0
243345,note_on,0,0,1,,,,,,,,0,,,81,0
243360,note_on,15,0,2,,,,,,,,1,,,81,64
243360,note_on,995,0,5,,,,,,,,4,,,50,64
243360,note_on,15,0,1,,,,,,,,0,,,78,106
243360,note_on,0,0,1,,,,,,,,0,,,69,106
243360,note_on,995,0,6,,,,,,,,5,,,50,64
243585,note_on,225,0,1,,,,,,,,0,,,69,0
243585,note_on,0,0,1,,,,,,,,0,,,78,0
243600,note_on,0,0,1,,,,,,,,0,,,66,106
243600,note_on,15,0,1,,,,,,,,0,,,74,106
243805,note_on,445,0,2,,,,,,,,1,,,81,0
243805,note_on,445,0,5,,,,,,,,4,,,50,0
243805,note_on,445,0,6,,,,,,,,5,,,50,0
243825,note_on,0,0,1,,,,,,,,0,,,74,0
243825,note_on,225,0,1,,,,,,,,0,,,66,0
243840,note_on,15,0,1,,,,,,,,0,,,66,106
243840,note_on,0,0,1,,,,,,,,0,,,57,106
244065,note_on,225,0,1,,,,,,,,0,,,57,0
244065,note_on,0,0,1,,,,,,,,0,,,66,0
244080,note_on,15,0,1,,,,,,,,0,,,74,106
244080,note_on,0,0,1,,,,,,,,0,,,66,106
244305,note_on,225,0,1,,,,,,,,0,,,66,0
244305,note_on,0,0,1,,,,,,,,0,,,74,0
244320,note_on,15,0,1,,,,,,,,0,,,66,106
244320,note_on,0,0,1,,,,,,,,0,,,57,106
244545,note_on,225,0,1,,,,,,,,0,,,57,0
244545,note_on,0,0,1,,,,,,,,0,,,66,0
244560,note_on,15,0,1,,,,,,,,0,,,74,106
244560,note_on,0,0,1,,,,,,,,0,,,66,106
244785,note_on,225,0,1,,,,,,,,0,,,66,0
244785,note_on,0,0,1,,,,,,,,0,,,74,0
244800,note_on,15,0,1,,,,,,,,0,,,71,106
244800,note_on,995,0,5,,,,,,,,4,,,55,64
244800,note_on,0,0,1,,,,,,,,0,,,67,106
244800,note_on,995,0,6,,,,,,,,5,,,55,64
245025,note_on,0,0,1,,,,,,,,0,,,71,0
245025,note_on,225,0,1,,,,,,,,0,,,67,0
245040,note_on,15,0,1,,,,,,,,0,,,79,106
245040,note_on,0,0,1,,,,,,,,0,,,71,106
245040,note_on,1235,0,2,,,,,,,,1,,,74,64
245245,note_on,445,0,6,,,,,,,,5,,,55,0
245245,note_on,445,0,5,,,,,,,,4,,,55,0
245265,note_on,0,0,1,,,,,,,,0,,,79,0
245265,note_on,225,0,2,,,,,,,,1,,,74,0
245265,note_on,225,0,1,,,,,,,,0,,,71,0
245280,note_on,15,0,2,,,,,,,,1,,,79,64
245280,note_on,15,0,1,,,,,,,,0,,,71,106
245280,note_on,0,0,1,,,,,,,,0,,,62,106
245505,note_on,225,0,1,,,,,,,,0,,,62,0
245505,note_on,0,0,1,,,,,,,,0,,,71,0
245520,note_on,2195,0,3,,,,,,,,2,,,74,64
245520,note_on,0,0,1,,,,,,,,0,,,71,106
245520,note_on,15,0,1,,,,,,,,0,,,79,106
245725,note_on,445,0,2,,,,,,,,1,,,79,0
245745,note_on,0,0,1,,,,,,,,0,,,79,0
245745,note_on,225,0,1,,,,,,,,0,,,71,0
245745,note_on,225,0,3,,,,,,,,2,,,74,0
245760,note_on,15,0,3,,,,,,,,2,,,79,64
245760,note_on,15,0,1,,,,,,,,0,,,71,106
245760,note_on,0,0,1,,,,,,,,0,,,62,106
245985,note_on,0,0,1,,,,,,,,0,,,71,0
245985,note_on,225,0,1,,,,,,,,0,,,62,0
246000,note_on,15,0,1,,,,,,,,0,,,79,106
246000,note_on,275,0,2,,,,,,,,1,,,74,64
246000,note_on,0,0,1,,,,,,,,0,,,71,106
246205,note_on,445,0,3,,,,,,,,2,,,79,0
246225,note_on,225,0,1,,,,,,,,0,,,71,0
246225,note_on,225,0,2,,,,,,,,1,,,74,0
246225,note_on,0,0,1,,,,,,,,0,,,79,0
246240,note_on,15,0,1,,,,,,,,0,,,76,106
246240,note_on,15,0,2,,,,,,,,1,,,79,64
246240,note_on,995,0,6,,,,,,,,5,,,48,64
246240,note_on,995,0,5,,,,,,,,4,,,48,64
246240,note_on,0,0,1,,,,,,,,0,,,72,106
246465,note_on,0,0,1,,,,,,,,0,,,76,0
246465,note_on,225,0,1,,,,,,,,0,,,72,0
246480,note_on,0,0,1,,,,,,,,0,,,64,106
246480,note_on,15,0,1,,,,,,,,0,,,72,106
246685,note_on,445,0,2,,,,,,,,1,,,79,0
246685,note_on,445,0,5,,,,,,,,4,,,48,0
246685,note_on,445,0,6,,,,,,,,5,,,48,0
246705,note_on,225,0,1,,,,,,,,0,,,64,0
246705,note_on,0,0,1,,,,,,,,0,,,72,0
246720,note_on,0,0,1,,,,,,,,0,,,55,106
246720,note_on,15,0,1,,,,,,,,0,,,64,106
246945,note_on,0,0,1,,,,,,,,0,,,64,0
246945,note_on,225,0,1,,,,,,,,0,,,55,0
246960,note_on,0,0,1,,,,,,,,0,,,64,106
246960,note_on,15,0,1,,,,,,,,0,,,72,106
247185,note_on,225,0,1,,,,,,,,0,,,64,0
247185,note_on,0,0,1,,,,,,,,0,,,72,0
247200,note_on,0,0,1,,,,,,,,0,,,55,106
247200,note_on,15,0,1,,,,,,,,0,,,64,106
247425,note_on,225,0,1,,,,,,,,0,,,55,0
247425,note_on,0,0,1,,,,,,,,0,,,64,0
247440,note_on,0,0,1,,,,,,,,0,,,64,106
247440,note_on,15,0,1,,,,,,,,0,,,72,106
247665,note_on,225,0,1,,,,,,,,0,,,64,0
247665,note_on,0,0,1,,,,,,,,0,,,72,0
247680,note_on,15,0,1,,,,,,,,0,,,69,106
247680,note_on,0,0,1,,,,,,,,0,,,65,106
247680,note_on,995,0,6,,,,,,,,5,,,53,64
247680,note_on,995,0,5,,,,,,,,4,,,53,64
247905,note_on,225,0,1,,,,,,,,0,,,65,0
247905,note_on,0,0,1,,,,,,,,0,,,69,0
247920,note_on,1235,0,2,,,,,,,,1,,,72,64
247920,note_on,0,0,1,,,,,,,,0,,,69,106
247920,note_on,15,0,1,,,,,,,,0,,,77,106
248125,note_on,445,0,5,,,,,,,,4,,,53,0
248125,note_on,445,0,6,,,,,,,,5,,,53,0
248145,note_on,225,0,1,,,,,,,,0,,,69,0
248145,note_on,225,0,2,,,,,,,,1,,,72,0
248145,note_on,0,0,1,,,,,,,,0,,,77,0
248160,note_on,15,0,2,,,,,,,,1,,,77,64
248160,note_on,15,0,1,,,,,,,,0,,,72,106
248160,note_on,0,0,1,,,,,,,,0,,,69,106
248385,note_on,225,0,1,,,,,,,,0,,,69,0
248385,note_on,0,0,1,,,,,,,,0,,,72,0
248400,note_on,15,0,1,,,,,,,,0,,,77,106
248400,note_on,0,0,1,,,,,,,,0,,,69,106
248400,note_on,2195,0,3,,,,,,,,2,,,72,64
248605,note_on,445,0,2,,,,,,,,1,,,77,0
248625,note_on,0,0,1,,,,,,,,0,,,77,0
248625,note_on,225,0,1,,,,,,,,0,,,69,0
248625,note_on,225,0,3,,,,,,,,2,,,72,0
248640,note_on,15,0,3,,,,,,,,2,,,77,64
248640,note_on,0,0,1,,,,,,,,0,,,69,106
248640,note_on,15,0,1,,,,,,,,0,,,72,106
248865,note_on,0,0,1,,,,,,,,0,,,72,0
248865,note_on,225,0,1,,,,,,,,0,,,69,0
248880,note_on,15,0,1,,,,,,,,0,,,77,106
248880,note_on,0,0,1,,,,,,,,0,,,69,106
248880,note_on,275,0,2,,,,,,,,1,,,72,64
249085,note_on,445,0,3,,,,,,,,2,,,77,0
249105,note_on,225,0,1,,,,,,,,0,,,69,0
249105,note_on,225,0,2,,,,,,,,1,,,72,0
249105,note_on,0,0,1,,,,,,,,0,,,77,0
249120,note_on,995,0,5,,,,,,,,4,,,52,64
249120,note_on,995,0,6,,,,,,,,5,,,52,64
249120,note_on,15,0,2,,,,,,,,1,,,76,64
249120,note_on,15,0,1,,,,,,,,0,,,71,106
249120,note_on,0,0,1,,,,,,,,0,,,68,106
249345,note_on,225,0,2,,,,,,,,1,,,76,0
249345,note_on,0,0,1,,,,,,,,0,,,71,0
249345,note_on,225,0,1,,,,,,,,0,,,68,0
249360,note_on,0,0,1,,,,,,,,0,,,71,106
249360,note_on,275,0,3,,,,,,,,2,,,68,64
249360,note_on,15,0,2,,,,,,,,1,,,68,64
249360,note_on,15,0,1,,,,,,,,0,,,76,106
249565,note_on,445,0,5,,,,,,,,4,,,52,0
249565,note_on,445,0,6,,,,,,,,5,,,52,0
249585,note_on,225,0,3,,,,,,,,2,,,68,0
249585,note_on,0,0,1,,,,,,,,0,,,76,0
249585,note_on,225,0,1,,,,,,,,0,,,71,0
249585,note_on,225,0,2,,,,,,,,1,,,68,0
249600,note_on,15,0,2,,,,,,,,1,,,68,64
249600,note_on,15,0,1,,,,,,,,0,,,71,106
249600,note_on,0,0,1,,,,,,,,0,,,68,106
249600,note_on,15,0,3,,,,,,,,2,,,68,64
249825,note_on,225,0,3,,,,,,,,2,,,68,0
249825,note_on,225,0,2,,,,,,,,1,,,68,0
249825,note_on,225,0,1,,,,,,,,0,,,68,0
249825,note_on,0,0,1,,,,,,,,0,,,71,0
249840,note_on,15,0,2,,,,,,,,1,,,68,64
249840,note_on,0,0,1,,,,,,,,0,,,71,106
249840,note_on,15,0,1,,,,,,,,0,,,76,106
249840,note_on,15,0,3,,,,,,,,2,,,68,64
250065,note_on,0,0,1,,,,,,,,0,,,76,0
250065,note_on,225,0,3,,,,,,,,2,,,68,0
250065,note_on,225,0,1,,,,,,,,0,,,71,0
250065,note_on,225,0,2,,,,,,,,1,,,68,0
250080,note_on,15,0,2,,,,,,,,1,,,68,64
250080,note_on,15,0,3,,,,,,,,2,,,68,64
250080,note_on,15,0,1,,,,,,,,0,,,71,106
250080,note_on,0,0,1,,,,,,,,0,,,68,106
250305,note_on,225,0,2,,,,,,,,1,,,68,0
250305,note_on,225,0,3,,,,,,,,2,,,68,0
250305,note_on,225,0,1,,,,,,,,0,,,68,0
250305,note_on,0,0,1,,,,,,,,0,,,71,0
250320,note_on,15,0,2,,,,,,,,1,,,68,64
250320,note_on,15,0,3,,,,,,,,2,,,68,64
250320,note_on,0,0,1,,,,,,,,0,,,71,106
250320,note_on,15,0,1,,,,,,,,0,,,76,106
250545,note_on,225,0,1,,,,,,,,0,,,71,0
250545,note_on,225,0,3,,,,,,,,2,,,68,0
250545,note_on,0,0,1,,,,,,,,0,,,76,0
250545,note_on,225,0,2,,,,,,,,1,,,68,0
250560,note_on,15,0,1,,,,,,,,0,,,71,106
250560,note_on,0,0,1,,,,,,,,0,,,67,106
250560,note_on,15,0,2,,,,,,,,1,,,67,64
250560,note_on,15,0,3,,,,,,,,2,,,67,64
250785,note_on,0,0,1,,,,,,,,0,,,71,0
250785,note_on,225,0,1,,,,,,,,0,,,67,0
250785,note_on,225,0,2,,,,,,,,1,,,67,0
250785,note_on,225,0,3,,,,,,,,2,,,67,0
250800,note_on,15,0,2,,,,,,,,1,,,67,64
250800,note_on,15,0,1,,,,,,,,0,,,76,106
250800,note_on,15,0,3,,,,,,,,2,,,67,64
250800,note_on,0,0,1,,,,,,,,0,,,71,106
251025,note_on,0,0,1,,,,,,,,0,,,76,0
251025,note_on,225,0,2,,,,,,,,1,,,67,0
251025,note_on,225,0,1,,,,,,,,0,,,71,0
251025,note_on,225,0,3,,,,,,,,2,,,67,0
251040,note_on,15,0,3,,,,,,,,2,,,67,64
251040,note_on,15,0,1,,,,,,,,0,,,71,106
251040,note_on,15,0,2,,,,,,,,1,,,67,64
251040,note_on,0,0,1,,,,,,,,0,,,67,106
251265,note_on,225,0,3,,,,,,,,2,,,67,0
251265,note_on,0,0,1,,,,,,,,0,,,71,0
251265,note_on,225,0,1,,,,,,,,0,,,67,0
251265,note_on,225,0,2,,,,,,,,1,,,67,0
251280,note_on,15,0,3,,,,,,,,2,,,67,64
251280,note_on,0,0,1,,,,,,,,0,,,71,106
251280,note_on,15,0,2,,,,,,,,1,,,67,64
251280,note_on,15,0,1,,,,,,,,0,,,76,106
251505,note_on,225,0,3,,,,,,,,2,,,67,0
251505,note_on,0,0,1,,,,,,,,0,,,76,0
251505,note_on,225,0,2,,,,,,,,1,,,67,0
251505,note_on,225,0,1,,,,,,,,0,,,71,0
251520,note_on,15,0,2,,,,,,,,1,,,67,64
251520,note_on,15,0,3,,,,,,,,2,,,67,64
251520,note_on,0,0,1,,,,,,,,0,,,67,106
251520,note_on,15,0,1,,,,,,,,0,,,71,106
251745,note_on,225,0,2,,,,,,,,1,,,67,0
251745,note_on,225,0,3,,,,,,,,2,,,67,0
251745,note_on,225,0,1,,,,,,,,0,,,67,0
251745,note_on,0,0,1,,,,,,,,0,,,71,0
251760,note_on,15,0,3,,,,,,,,2,,,67,64
251760,note_on,15,0,1,,,,,,,,0,,,76,106
251760,note_on,0,0,1,,,,,,,,0,,,71,106
251760,note_on,15,0,2,,,,,,,,1,,,67,64
251985,note_on,225,0,2,,,,,,,,1,,,67,0
251985,note_on,0,0,1,,,,,,,,0,,,76,0
251985,note_on,225,0,3,,,,,,,,2,,,67,0
251985,note_on,225,0,1,,,,,,,,0,,,71,0
252000,note_on,15,0,2,,,,,,,,1,,,66,64
252000,note_on,15,0,1,,,,,,,,0,,,69,106
252000,note_on,0,0,1,,,,,,,,0,,,66,106
252000,note_on,15,0,3,,,,,,,,2,,,66,64
252225,note_on,225,0,1,,,,,,,,0,,,66,0
252225,note_on,225,0,2,,,,,,,,1,,,66,0
252225,note_on,225,0,3,,,,,,,,2,,,66,0
252225,note_on,0,0,1,,,,,,,,0,,,69,0
252240,note_on,15,0,3,,,,,,,,2,,,66,64
252240,note_on,15,0,2,,,,,,,,1,,,66,64
252240,note_on,15,0,1,,,,,,,,0,,,76,106
252240,note_on,0,0,1,,,,,,,,0,,,69,106
252465,note_on,225,0,3,,,,,,,,2,,,66,0
252465,note_on,225,0,1,,,,,,,,0,,,69,0
252465,note_on,225,0,2,,,,,,,,1,,,66,0
252465,note_on,0,0,1,,,,,,,,0,,,76,0
252480,note_on,15,0,2,,,,,,,,1,,,66,64
252480,note_on,15,0,1,,,,,,,,0,,,69,106
252480,note_on,0,0,1,,,,,,,,0,,,66,106
252480,note_on,15,0,3,,,,,,,,2,,,66,64
252705,note_on,225,0,2,,,,,,,,1,,,66,0
252705,note_on,225,0,3,,,,,,,,2,,,66,0
252705,note_on,0,0,1,,,,,,,,0,,,69,0
252705,note_on,225,0,1,,,,,,,,0,,,66,0
252720,note_on,15,0,3,,,,,,,,2,,,66,64
252720,note_on,0,0,1,,,,,,,,0,,,69,106
252720,note_on,15,0,2,,,,,,,,1,,,66,64
252720,note_on,15,0,1,,,,,,,,0,,,76,106
252945,note_on,225,0,1,,,,,,,,0,,,69,0
252945,note_on,225,0,3,,,,,,,,2,,,66,0
252945,note_on,0,0,1,,,,,,,,0,,,76,0
252945,note_on,225,0,2,,,,,,,,1,,,66,0
252960,note_on,15,0,3,,,,,,,,2,,,66,64
252960,note_on,15,0,1,,,,,,,,0,,,69,106
252960,note_on,0,0,1,,,,,,,,0,,,66,106
252960,note_on,15,0,2,,,,,,,,1,,,66,64
253185,note_on,225,0,1,,,,,,,,0,,,66,0
253185,note_on,0,0,1,,,,,,,,0,,,69,0
253185,note_on,225,0,2,,,,,,,,1,,,66,0
253185,note_on,225,0,3,,,,,,,,2,,,66,0
253200,note_on,15,0,3,,,,,,,,2,,,66,64
253200,note_on,15,0,1,,,,,,,,0,,,76,106
253200,note_on,0,0,1,,,,,,,,0,,,69,106
253200,note_on,15,0,2,,,,,,,,1,,,66,64
253425,note_on,225,0,2,,,,,,,,1,,,66,0
253425,note_on,225,0,3,,,,,,,,2,,,66,0
253425,note_on,225,0,1,,,,,,,,0,,,69,0
253425,note_on,0,0,1,,,,,,,,0,,,76,0
253440,note_on,15,0,3,,,,,,,,2,,,65,64
253440,note_on,15,0,2,,,,,,,,1,,,65,64
253440,note_on,15,0,1,,,,,,,,0,,,69,106
253440,note_on,0,0,1,,,,,,,,0,,,65,106
253665,note_on,225,0,3,,,,,,,,2,,,65,0
253665,note_on,225,0,1,,,,,,,,0,,,65,0
253665,note_on,0,0,1,,,,,,,,0,,,69,0
253665,note_on,225,0,2,,,,,,,,1,,,65,0
253680,note_on,0,0,1,,,,,,,,0,,,65,106
253680,note_on,15,0,2,,,,,,,,1,,,65,64
253680,note_on,15,0,1,,,,,,,,0,,,74,106
253680,note_on,15,0,3,,,,,,,,2,,,65,64
253905,note_on,0,0,1,,,,,,,,0,,,74,0
253905,note_on,225,0,1,,,,,,,,0,,,65,0
253905,note_on,225,0,2,,,,,,,,1,,,65,0
253905,note_on,225,0,3,,,,,,,,2,,,65,0
253920,note_on,0,0,1,,,,,,,,0,,,57,106
253920,note_on,15,0,1,,,,,,,,0,,,65,106
253920,note_on,15,0,3,,,,,,,,2,,,65,64
253920,note_on,15,0,2,,,,,,,,1,,,65,64
254145,note_on,225,0,3,,,,,,,,2,,,65,0
254145,note_on,225,0,1,,,,,,,,0,,,57,0
254145,note_on,225,0,2,,,,,,,,1,,,65,0
254145,note_on,0,0,1,,,,,,,,0,,,65,0
254160,note_on,15,0,2,,,,,,,,1,,,65,64
254160,note_on,15,0,3,,,,,,,,2,,,65,64
254160,note_on,0,0,1,,,,,,,,0,,,65,106
254160,note_on,15,0,1,,,,,,,,0,,,74,106
254385,note_on,225,0,1,,,,,,,,0,,,65,0
254385,note_on,225,0,3,,,,,,,,2,,,65,0
254385,note_on,225,0,2,,,,,,,,1,,,65,0
254385,note_on,0,0,1,,,,,,,,0,,,74,0
254400,note_on,15,0,1,,,,,,,,0,,,65,106
254400,note_on,0,0,1,,,,,,,,0,,,57,106
254400,note_on,15,0,3,,,,,,,,2,,,65,64
254400,note_on,15,0,2,,,,,,,,1,,,65,64
254625,note_on,225,0,2,,,,,,,,1,,,65,0
254625,note_on,225,0,1,,,,,,,,0,,,57,0
254625,note_on,0,0,1,,,,,,,,0,,,65,0
254625,note_on,225,0,3,,,,,,,,2,,,65,0
254640,note_on,15,0,1,,,,,,,,0,,,74,106
254640,note_on,15,0,3,,,,,,,,2,,,65,64
254640,note_on,0,0,1,,,,,,,,0,,,65,106
254640,note_on,15,0,2,,,,,,,,1,,,65,64
254865,note_on,225,0,1,,,,,,,,0,,,65,0
254865,note_on,225,0,3,,,,,,,,2,,,65,0
254865,note_on,225,0,2,,,,,,,,1,,,65,0
254865,note_on,0,0,1,,,,,,,,0,,,74,0
254880,note_on,15,0,1,,,,,,,,0,,,74,106
254880,note_on,0,0,1,,,,,,,,0,,,68,106
254880,note_on,15,0,2,,,,,,,,1,,,64,64
254880,note_on,15,0,3,,,,,,,,2,,,59,64
255120,note_on,5555,0,6,,,,,,,,5,,,52,64
255120,note_on,5555,0,5,,,,,,,,4,,,52,64
255325,note_on,445,0,3,,,,,,,,2,,,59,0
255325,note_on,0,0,1,,,,,,,,0,,,74,0
255325,note_on,445,0,1,,,,,,,,0,,,68,0
255325,note_on,445,0,2,,,,,,,,1,,,64,0
255345,note_on,225,0,5,,,,,,,,4,,,52,0
255345,note_on,225,0,6,,,,,,,,5,,,52,0
255360,note_on,15,0,6,,,,,,,,5,,,57,64
255360,note_on,15,0,5,,,,,,,,4,,,57,64
255480,note_on,155,0,1,,,,,,,,0,,,69,106
255585,note_on,225,0,5,,,,,,,,4,,,57,0
255585,note_on,225,0,6,,,,,,,,5,,,57,0
255595,note_on,115,0,1,,,,,,,,0,,,69,0
255600,note_on,15,0,6,,,,,,,,5,,,52,64
255600,note_on,5,0,1,,,,,,,,0,,,71,106
255600,note_on,15,0,5,,,,,,,,4,,,52,64
255715,note_on,115,0,1,,,,,,,,0,,,71,0
255720,note_on,5,0,1,,,,,,,,0,,,72,106
255825,note_on,225,0,6,,,,,,,,5,,,52,0
255825,note_on,225,0,5,,,,,,,,4,,,52,0
255835,note_on,115,0,1,,,,,,,,0,,,72,0
255840,note_on,15,0,5,,,,,,,,4,,,48,64
255840,note_on,5,0,1,,,,,,,,0,,,74,106
255840,note_on,15,0,6,,,,,,,,5,,,48,64
255955,note_on,115,0,1,,,,,,,,0,,,74,0
255960,note_on,5,0,1,,,,,,,,0,,,76,106
256065,note_on,225,0,6,,,,,,,,5,,,48,0
256065,note_on,225,0,5,,,,,,,,4,,,48,0
256075,note_on,115,0,1,,,,,,,,0,,,76,0
256080,note_on,5,0,1,,,,,,,,0,,,78,106
256080,note_on,15,0,5,,,,,,,,4,,,47,64
256080,note_on,15,0,6,,,,,,,,5,,,47,64
256195,note_on,115,0,1,,,,,,,,0,,,78,0
256200,note_on,5,0,1,,,,,,,,0,,,80,106
256305,note_on,225,0,5,,,,,,,,4,,,47,0
256305,note_on,225,0,6,,,,,,,,5,,,47,0
256315,note_on,115,0,1,,,,,,,,0,,,80,0
256320,note_on,5,0,1,,,,,,,,0,,,81,106
256320,note_on,15,0,5,,,,,,,,4,,,45,64
256320,note_on,15,0,6,,,,,,,,5,,,45,64
256545,note_on,225,0,1,,,,,,,,0,,,81,0
256560,note_on,15,0,1,,,,,,,,0,,,69,106
256765,note_on,445,0,5,,,,,,,,4,,,45,0
256765,note_on,445,0,6,,,,,,,,5,,,45,0
256785,note_on,225,0,1,,,,,,,,0,,,69,0
256800,note_on,35,0,6,,,,,,,,5,,,52,64
256800,note_on,35,0,5,,,,,,,,4,,,52,64
256800,note_on,0,0,1,,,,,,,,0,,,64,106
256800,note_on,15,0,1,,,,,,,,0,,,72,106
256860,note_on,60,0,1,,,,,,,,0,,,72,0
256860,note_on,0,0,1,,,,,,,,0,,,71,106
256920,note_on,0,0,1,,,,,,,,0,,,72,106
256920,note_on,60,0,1,,,,,,,,0,,,71,0
256980,note_on,60,0,1,,,,,,,,0,,,72,0
256980,note_on,0,0,1,,,,,,,,0,,,71,106
257040,note_on,60,0,1,,,,,,,,0,,,71,0
257040,note_on,0,0,1,,,,,,,,0,,,72,106
257100,note_on,0,0,1,,,,,,,,0,,,71,106
257100,note_on,60,0,1,,,,,,,,0,,,72,0
257160,note_on,60,0,1,,,,,,,,0,,,71,0
257160,note_on,0,0,1,,,,,,,,0,,,72,106
257220,note_on,60,0,1,,,,,,,,0,,,72,0
257220,note_on,0,0,1,,,,,,,,0,,,71,106
257245,note_on,445,0,5,,,,,,,,4,,,52,0
257245,note_on,445,0,6,,,,,,,,5,,,52,0
257280,note_on,35,0,6,,,,,,,,5,,,40,64
257280,note_on,35,0,5,,,,,,,,4,,,40,64
257505,note_on,285,0,1,,,,,,,,0,,,71,0
257520,note_on,15,0,1,,,,,,,,0,,,69,106
257685,note_on,165,0,1,,,,,,,,0,,,64,0
257725,note_on,445,0,6,,,,,,,,5,,,40,0
257725,note_on,445,0,5,,,,,,,,4,,,40,0
257745,note_on,60,0,1,,,,,,,,0,,,69,0
257760,note_on,2435,0,3,,,,,,,,2,,,69,64
257760,note_on,35,0,6,,,,,,,,5,,,57,85
257760,note_on,15,0,1,,,,,,,,0,,,69,64
257760,note_on,2435,0,2,,,,,,,,1,,,69,64
257760,note_on,35,0,5,,,,,,,,4,,,57,85
257760,note_on,36995,0,4,,,,,,,,3,,,60,85
257985,note_on,225,0,1,,,,,,,,0,,,69,0
257985,note_on,225,0,2,,,,,,,,1,,,69,0
257985,note_on,225,0,3,,,,,,,,2,,,69,0
258000,note_on,15,0,3,,,,,,,,2,,,69,64
258000,note_on,15,0,2,,,,,,,,1,,,69,64
258000,note_on,15,0,1,,,,,,,,0,,,69,64
258115,note_on,115,0,3,,,,,,,,2,,,69,0
258115,note_on,115,0,1,,,,,,,,0,,,69,0
258115,note_on,115,0,2,,,,,,,,1,,,69,0
258120,note_on,5,0,3,,,,,,,,2,,,71,64
258120,note_on,5,0,1,,,,,,,,0,,,71,64
258120,note_on,5,0,2,,,,,,,,1,,,71,64
258205,note_on,445,0,5,,,,,,,,4,,,57,0
258205,note_on,445,0,4,,,,,,,,3,,,60,0
258205,note_on,445,0,6,,,,,,,,5,,,57,0
258235,note_on,115,0,3,,,,,,,,2,,,71,0
258235,note_on,115,0,1,,,,,,,,0,,,71,0
258235,note_on,115,0,2,,,,,,,,1,,,71,0
258240,note_on,5,0,2,,,,,,,,1,,,72,64
258240,note_on,35,0,6,,,,,,,,5,,,57,85
258240,note_on,35,0,5,,,,,,,,4,,,57,85
258240,note_on,5,0,3,,,,,,,,2,,,72,64
258240,note_on,35,0,4,,,,,,,,3,,,60,85
258240,note_on,5,0,1,,,,,,,,0,,,72,64
258465,note_on,225,0,2,,,,,,,,1,,,72,0
258465,note_on,225,0,3,,,,,,,,2,,,72,0
258465,note_on,225,0,1,,,,,,,,0,,,72,0
258480,note_on,15,0,1,,,,,,,,0,,,71,64
258480,note_on,15,0,2,,,,,,,,1,,,71,64
258480,note_on,15,0,3,,,,,,,,2,,,71,64
258685,note_on,445,0,6,,,,,,,,5,,,57,0
258685,note_on,445,0,4,,,,,,,,3,,,60,0
258685,note_on,445,0,5,,,,,,,,4,,,57,0
258705,note_on,225,0,1,,,,,,,,0,,,71,0
258705,note_on,225,0,2,,,,,,,,1,,,71,0
258705,note_on,225,0,3,,,,,,,,2,,,71,0
258720,note_on,15,0,3,,,,,,,,2,,,72,64
258720,note_on,15,0,1,,,,,,,,0,,,72,64
258720,note_on,35,0,4,,,,,,,,3,,,60,85
258720,note_on,35,0,5,,,,,,,,4,,,57,85
258720,note_on,35,0,6,,,,,,,,5,,,57,85
258720,note_on,15,0,2,,,,,,,,1,,,72,64
258945,note_on,225,0,3,,,,,,,,2,,,72,0
258945,note_on,225,0,2,,,,,,,,1,,,72,0
258945,note_on,225,0,1,,,,,,,,0,,,72,0
258960,note_on,15,0,3,,,,,,,,2,,,69,64
258960,note_on,15,0,2,,,,,,,,1,,,69,64
258960,note_on,15,0,1,,,,,,,,0,,,69,64
259165,note_on,445,0,6,,,,,,,,5,,,57,0
259165,note_on,445,0,4,,,,,,,,3,,,60,0
259165,note_on,445,0,5,,,,,,,,4,,,57,0
259185,note_on,225,0,1,,,,,,,,0,,,69,0
259185,note_on,225,0,3,,,,,,,,2,,,69,0
259185,note_on,225,0,2,,,,,,,,1,,,69,0
259200,note_on,15,0,2,,,,,,,,1,,,76,64
259200,note_on,15,0,3,,,,,,,,2,,,76,64
259200,note_on,35,0,5,,,,,,,,4,,,55,85
259200,note_on,35,0,6,,,,,,,,5,,,55,85
259200,note_on,15,0,1,,,,,,,,0,,,76,64
259200,note_on,35,0,4,,,,,,,,3,,,59,85
259425,note_on,225,0,3,,,,,,,,2,,,76,0
259425,note_on,225,0,2,,,,,,,,1,,,76,0
259425,note_on,225,0,1,,,,,,,,0,,,76,0
259440,note_on,15,0,2,,,,,,,,1,,,76,64
259440,note_on,15,0,1,,,,,,,,0,,,76,64
259440,note_on,15,0,3,,,,,,,,2,,,76,64
259555,note_on,115,0,3,,,,,,,,2,,,76,0
259555,note_on,115,0,2,,,,,,,,1,,,76,0
259555,note_on,115,0,1,,,,,,,,0,,,76,0
259560,note_on,5,0,2,,,,,,,,1,,,77,64
259560,note_on,5,0,3,,,,,,,,2,,,77,64
259560,note_on,5,0,1,,,,,,,,0,,,77,64
259645,note_on,445,0,4,,,,,,,,3,,,59,0
259645,note_on,445,0,6,,,,,,,,5,,,55,0
259645,note_on,445,0,5,,,,,,,,4,,,55,0
259675,note_on,115,0,2,,,,,,,,1,,,77,0
259675,note_on,115,0,3,,,,,,,,2,,,77,0
259675,note_on,115,0,1,,,,,,,,0,,,77,0
259680,note_on,35,0,6,,,,,,,,5,,,55,85
259680,note_on,35,0,5,,,,,,,,4,,,55,85
259680,note_on,5,0,3,,,,,,,,2,,,79,64
259680,note_on,5,0,2,,,,,,,,1,,,79,64
259680,note_on,5,0,1,,,,,,,,0,,,79,64
259680,note_on,35,0,4,,,,,,,,3,,,59,85
259905,note_on,225,0,1,,,,,,,,0,,,79,0
259905,note_on,225,0,3,,,,,,,,2,,,79,0
259905,note_on,225,0,2,,,,,,,,1,,,79,0
259920,note_on,15,0,3,,,,,,,,2,,,77,64
259920,note_on,15,0,1,,,,,,,,0,,,77,64
259920,note_on,15,0,2,,,,,,,,1,,,77,64
260125,note_on,445,0,5,,,,,,,,4,,,55,0
260125,note_on,445,0,6,,,,,,,,5,,,55,0
260125,note_on,445,0,4,,,,,,,,3,,,59,0
260145,note_on,225,0,1,,,,,,,,0,,,77,0
260145,note_on,225,0,3,,,,,,,,2,,,77,0
260145,note_on,225,0,2,,,,,,,,1,,,77,0
260160,note_on,35,0,4,,,,,,,,3,,,59,85
260160,note_on,15,0,2,,,,,,,,1,,,79,64
260160,note_on,15,0,3,,,,,,,,2,,,79,64
260160,note_on,35,0,5,,,,,,,,4,,,55,85
260160,note_on,15,0,1,,,,,,,,0,,,79,64
260160,note_on,35,0,6,,,,,,,,5,,,55,85
260385,note_on,225,0,1,,,,,,,,0,,,79,0
260385,note_on,225,0,3,,,,,,,,2,,,79,0
260385,note_on,225,0,2,,,,,,,,1,,,79,0
260400,note_on,15,0,1,,,,,,,,0,,,76,64
260400,note_on,15,0,3,,,,,,,,2,,,76,64
260400,note_on,15,0,2,,,,,,,,1,,,76,64
260605,note_on,445,0,4,,,,,,,,3,,,59,0
260605,note_on,445,0,5,,,,,,,,4,,,55,0
260605,note_on,445,0,6,,,,,,,,5,,,55,0
260625,note_on,225,0,1,,,,,,,,0,,,76,0
260625,note_on,225,0,2,,,,,,,,1,,,76,0
260625,note_on,225,0,3,,,,,,,,2,,,76,0
260640,note_on,35,0,4,,,,,,,,3,,,57,85
260640,note_on,15,0,2,,,,,,,,1,,,81,64
260640,note_on,15,0,1,,,,,,,,0,,,81,64
260640,note_on,35,0,5,,,,,,,,4,,,53,85
260640,note_on,15,0,3,,,,,,,,2,,,81,64
260640,note_on,35,0,6,,,,,,,,5,,,53,85
260865,note_on,225,0,1,,,,,,,,0,,,81,0
260865,note_on,225,0,3,,,,,,,,2,,,81,0
260865,note_on,225,0,2,,,,,,,,1,,,81,0
260880,note_on,15,0,3,,,,,,,,2,,,69,64
260880,note_on,15,0,2,,,,,,,,1,,,69,64
260880,note_on,15,0,1,,,,,,,,0,,,69,64
260995,note_on,115,0,2,,,,,,,,1,,,69,0
260995,note_on,115,0,1,,,,,,,,0,,,69,0
260995,note_on,115,0,3,,,,,,,,2,,,69,0
261000,note_on,5,0,2,,,,,,,,1,,,71,64
261000,note_on,5,0,3,,,,,,,,2,,,71,64
261000,note_on,5,0,1,,,,,,,,0,,,71,64
261085,note_on,445,0,6,,,,,,,,5,,,53,0
261085,note_on,445,0,5,,,,,,,,4,,,53,0
261085,note_on,445,0,4,,,,,,,,3,,,57,0
261115,note_on,115,0,2,,,,,,,,1,,,71,0
261115,note_on,115,0,1,,,,,,,,0,,,71,0
261115,note_on,115,0,3,,,,,,,,2,,,71,0
261120,note_on,5,0,1,,,,,,,,0,,,72,64
261120,note_on,35,0,6,,,,,,,,5,,,53,85
261120,note_on,5,0,3,,,,,,,,2,,,72,64
261120,note_on,5,0,2,,,,,,,,1,,,72,64
261120,note_on,35,0,4,,,,,,,,3,,,57,85
261120,note_on,35,0,5,,,,,,,,4,,,53,85
261345,note_on,225,0,3,,,,,,,,2,,,72,0
261345,note_on,225,0,1,,,,,,,,0,,,72,0
261345,note_on,225,0,2,,,,,,,,1,,,72,0
261360,note_on,15,0,1,,,,,,,,0,,,71,64
261360,note_on,15,0,2,,,,,,,,1,,,71,64
261360,note_on,15,0,3,,,,,,,,2,,,71,64
261565,note_on,445,0,6,,,,,,,,5,,,53,0
261565,note_on,445,0,4,,,,,,,,3,,,57,0
261565,note_on,445,0,5,,,,,,,,4,,,53,0
261585,note_on,225,0,1,,,,,,,,0,,,71,0
261585,note_on,225,0,2,,,,,,,,1,,,71,0
261585,note_on,225,0,3,,,,,,,,2,,,71,0
261600,note_on,15,0,2,,,,,,,,1,,,72,64
261600,note_on,35,0,6,,,,,,,,5,,,53,85
261600,note_on,15,0,3,,,,,,,,2,,,72,64
261600,note_on,35,0,5,,,,,,,,4,,,53,85
261600,note_on,35,0,4,,,,,,,,3,,,69,85
261600,note_on,15,0,1,,,,,,,,0,,,72,64
261825,note_on,225,0,3,,,,,,,,2,,,72,0
261825,note_on,225,0,2,,,,,,,,1,,,72,0
261825,note_on,225,0,1,,,,,,,,0,,,72,0
261840,note_on,15,0,3,,,,,,,,2,,,69,64
261840,note_on,15,0,2,,,,,,,,1,,,69,64
261840,note_on,15,0,1,,,,,,,,0,,,69,64
262045,note_on,445,0,6,,,,,,,,5,,,53,0
262045,note_on,445,0,5,,,,,,,,4,,,53,0
262045,note_on,445,0,4,,,,,,,,3,,,69,0
262065,note_on,225,0,3,,,,,,,,2,,,69,0
262065,note_on,225,0,1,,,,,,,,0,,,69,0
262065,note_on,225,0,2,,,,,,,,1,,,69,0
262080,note_on,15,0,1,,,,,,,,0,,,76,64
262080,note_on,35,0,6,,,,,,,,5,,,52,85
262080,note_on,15,0,2,,,,,,,,1,,,76,64
262080,note_on,15,0,3,,,,,,,,2,,,76,64
262080,note_on,35,0,4,,,,,,,,3,,,68,85
262080,note_on,35,0,5,,,,,,,,4,,,52,85
262305,note_on,225,0,2,,,,,,,,1,,,76,0
262305,note_on,225,0,3,,,,,,,,2,,,76,0
262305,note_on,225,0,1,,,,,,,,0,,,76,0
262320,note_on,15,0,3,,,,,,,,2,,,68,64
262320,note_on,15,0,1,,,,,,,,0,,,68,64
262320,note_on,15,0,2,,,,,,,,1,,,68,64
262435,note_on,115,0,1,,,,,,,,0,,,68,0
262435,note_on,115,0,3,,,,,,,,2,,,68,0
262435,note_on,115,0,2,,,,,,,,1,,,68,0
262440,note_on,5,0,2,,,,,,,,1,,,69,64
262440,note_on,5,0,1,,,,,,,,0,,,69,64
262440,note_on,5,0,3,,,,,,,,2,,,69,64
262525,note_on,445,0,5,,,,,,,,4,,,52,0
262525,note_on,445,0,6,,,,,,,,5,,,52,0
262525,note_on,445,0,4,,,,,,,,3,,,68,0
262555,note_on,115,0,2,,,,,,,,1,,,69,0
262555,note_on,115,0,3,,,,,,,,2,,,69,0
262555,note_on,115,0,1,,,,,,,,0,,,69,0
262560,note_on,5,0,2,,,,,,,,1,,,71,64
262560,note_on,35,0,6,,,,,,,,5,,,52,85
262560,note_on,5,0,3,,,,,,,,2,,,71,64
262560,note_on,35,0,5,,,,,,,,4,,,52,85
262560,note_on,5,0,1,,,,,,,,0,,,71,64
262560,note_on,35,0,4,,,,,,,,3,,,68,85
262785,note_on,225,0,2,,,,,,,,1,,,71,0
262785,note_on,225,0,3,,,,,,,,2,,,71,0
262785,note_on,225,0,1,,,,,,,,0,,,71,0
262800,note_on,15,0,2,,,,,,,,1,,,72,64
262800,note_on,15,0,1,,,,,,,,0,,,72,64
262800,note_on,15,0,3,,,,,,,,2,,,72,64
263005,note_on,445,0,5,,,,,,,,4,,,52,0
263005,note_on,445,0,4,,,,,,,,3,,,68,0
263005,note_on,445,0,6,,,,,,,,5,,,52,0
263025,note_on,225,0,3,,,,,,,,2,,,72,0
263025,note_on,225,0,2,,,,,,,,1,,,72,0
263025,note_on,225,0,1,,,,,,,,0,,,72,0
263040,note_on,35,0,5,,,,,,,,4,,,52,85
263040,note_on,15,0,3,,,,,,,,2,,,74,64
263040,note_on,35,0,4,,,,,,,,3,,,68,85
263040,note_on,15,0,1,,,,,,,,0,,,74,64
263040,note_on,35,0,6,,,,,,,,5,,,52,85
263040,note_on,15,0,2,,,,,,,,1,,,74,64
263265,note_on,225,0,1,,,,,,,,0,,,74,0
263265,note_on,225,0,2,,,,,,,,1,,,74,0
263265,note_on,225,0,3,,,,,,,,2,,,74,0
263280,note_on,15,0,1,,,,,,,,0,,,76,64
263280,note_on,15,0,2,,,,,,,,1,,,76,64
263280,note_on,15,0,3,,,,,,,,2,,,76,64
263485,note_on,445,0,5,,,,,,,,4,,,52,0
263485,note_on,445,0,6,,,,,,,,5,,,52,0
263485,note_on,445,0,4,,,,,,,,3,,,68,0
263505,note_on,225,0,3,,,,,,,,2,,,76,0
263505,note_on,225,0,2,,,,,,,,1,,,76,0
263505,note_on,225,0,1,,,,,,,,0,,,76,0
263520,note_on,35,0,6,,,,,,,,5,,,57,85
263520,note_on,15,0,1,,,,,,,,0,,,72,64
263520,note_on,15,0,2,,,,,,,,1,,,72,64
263520,note_on,35,0,5,,,,,,,,4,,,57,85
263520,note_on,35,0,4,,,,,,,,3,,,64,85
263520,note_on,15,0,3,,,,,,,,2,,,72,64
263745,note_on,225,0,5,,,,,,,,4,,,57,0
263745,note_on,225,0,6,,,,,,,,5,,,57,0
263760,note_on,15,0,5,,,,,,,,4,,,57,85
263760,note_on,15,0,6,,,,,,,,5,,,57,85
263875,note_on,115,0,5,,,,,,,,4,,,57,0
263875,note_on,115,0,6,,,,,,,,5,,,57,0
263880,note_on,5,0,5,,,,,,,,4,,,59,85
263880,note_on,5,0,6,,,,,,,,5,,,59,85
263965,note_on,445,0,4,,,,,,,,3,,,64,0
263965,note_on,445,0,2,,,,,,,,1,,,72,0
263965,note_on,445,0,1,,,,,,,,0,,,72,0
263995,note_on,115,0,6,,,,,,,,5,,,59,0
263995,note_on,115,0,5,,,,,,,,4,,,59,0
264000,note_on,35,0,1,,,,,,,,0,,,69,64
264000,note_on,35,0,2,,,,,,,,1,,,69,64
264000,note_on,5,0,6,,,,,,,,5,,,60,85
264000,note_on,35,0,4,,,,,,,,3,,,69,85
264000,note_on,5,0,5,,,,,,,,4,,,60,85
264225,note_on,225,0,6,,,,,,,,5,,,60,0
264225,note_on,225,0,5,,,,,,,,4,,,60,0
264240,note_on,15,0,6,,,,,,,,5,,,59,85
264240,note_on,15,0,5,,,,,,,,4,,,59,85
264445,note_on,445,0,2,,,,,,,,1,,,69,0
264445,note_on,445,0,1,,,,,,,,0,,,69,0
264465,note_on,225,0,5,,,,,,,,4,,,59,0
264465,note_on,225,0,6,,,,,,,,5,,,59,0
264480,note_on,15,0,5,,,,,,,,4,,,60,85
264480,note_on,15,0,6,,,,,,,,5,,,60,85
264705,note_on,225,0,6,,,,,,,,5,,,60,0
264705,note_on,225,0,5,,,,,,,,4,,,60,0
264720,note_on,15,0,5,,,,,,,,4,,,57,85
264720,note_on,15,0,6,,,,,,,,5,,,57,85
264885,note_on,885,0,4,,,,,,,,3,,,69,0
264945,note_on,225,0,6,,,,,,,,5,,,57,0
264945,note_on,225,0,5,,,,,,,,4,,,57,0
264960,note_on,515,0,2,,,,,,,,1,,,77,64
264960,note_on,15,0,6,,,,,,,,5,,,50,85
264960,note_on,75,0,4,,,,,,,,3,,,65,85
264960,note_on,515,0,1,,,,,,,,0,,,77,64
264960,note_on,15,0,5,,,,,,,,4,,,50,85
265185,note_on,225,0,5,,,,,,,,4,,,50,0
265185,note_on,1665,0,3,,,,,,,,2,,,72,0
265185,note_on,225,0,6,,,,,,,,5,,,50,0
265200,note_on,15,0,6,,,,,,,,5,,,50,85
265200,note_on,15,0,5,,,,,,,,4,,,50,85
265200,note_on,15,0,3,,,,,,,,2,,,65,64
265315,note_on,115,0,5,,,,,,,,4,,,50,0
265315,note_on,115,0,6,,,,,,,,5,,,50,0
265315,note_on,115,0,3,,,,,,,,2,,,65,0
265320,note_on,5,0,6,,,,,,,,5,,,52,85
265320,note_on,5,0,5,,,,,,,,4,,,52,85
265320,note_on,5,0,3,,,,,,,,2,,,67,64
265435,note_on,115,0,5,,,,,,,,4,,,52,0
265435,note_on,115,0,3,,,,,,,,2,,,67,0
265435,note_on,115,0,6,,,,,,,,5,,,52,0
265440,note_on,5,0,5,,,,,,,,4,,,53,85
265440,note_on,5,0,3,,,,,,,,2,,,69,64
265440,note_on,5,0,6,,,,,,,,5,,,53,85
265665,note_on,225,0,3,,,,,,,,2,,,69,0
265665,note_on,225,0,6,,,,,,,,5,,,53,0
265665,note_on,225,0,5,,,,,,,,4,,,53,0
265680,note_on,15,0,3,,,,,,,,2,,,67,64
265680,note_on,15,0,6,,,,,,,,5,,,52,85
265680,note_on,15,0,5,,,,,,,,4,,,52,85
265845,note_on,885,0,4,,,,,,,,3,,,65,0
265905,note_on,225,0,3,,,,,,,,2,,,67,0
265905,note_on,225,0,6,,,,,,,,5,,,52,0
265905,note_on,225,0,5,,,,,,,,4,,,52,0
265920,note_on,75,0,4,,,,,,,,3,,,62,85
265920,note_on,15,0,6,,,,,,,,5,,,53,85
265920,note_on,15,0,5,,,,,,,,4,,,53,85
265920,note_on,15,0,3,,,,,,,,2,,,69,64
266145,note_on,225,0,3,,,,,,,,2,,,69,0
266145,note_on,225,0,6,,,,,,,,5,,,53,0
266145,note_on,225,0,5,,,,,,,,4,,,53,0
266160,note_on,15,0,5,,,,,,,,4,,,50,85
266160,note_on,15,0,6,,,,,,,,5,,,50,85
266160,note_on,15,0,3,,,,,,,,2,,,65,64
266365,note_on,445,0,4,,,,,,,,3,,,62,0
266385,note_on,225,0,3,,,,,,,,2,,,65,0
266385,note_on,225,0,6,,,,,,,,5,,,50,0
266385,note_on,225,0,5,,,,,,,,4,,,50,0
266400,note_on,35,0,4,,,,,,,,3,,,62,85
266400,note_on,15,0,3,,,,,,,,2,,,71,64
266400,note_on,15,0,5,,,,,,,,4,,,55,85
266400,note_on,15,0,6,,,,,,,,5,,,55,85
266625,note_on,225,0,5,,,,,,,,4,,,55,0
266625,note_on,225,0,6,,,,,,,,5,,,55,0
266625,note_on,1665,0,2,,,,,,,,1,,,77,0
266625,note_on,1665,0,1,,,,,,,,0,,,77,0
266640,note_on,15,0,1,,,,,,,,0,,,71,64
266640,note_on,15,0,2,,,,,,,,1,,,71,64
266640,note_on,15,0,6,,,,,,,,5,,,55,85
266640,note_on,15,0,5,,,,,,,,4,,,55,85
266755,note_on,115,0,5,,,,,,,,4,,,55,0
266755,note_on,115,0,2,,,,,,,,1,,,71,0
266755,note_on,115,0,6,,,,,,,,5,,,55,0
266755,note_on,115,0,1,,,,,,,,0,,,71,0
266760,note_on,5,0,2,,,,,,,,1,,,72,64
266760,note_on,5,0,6,,,,,,,,5,,,57,85
266760,note_on,5,0,5,,,,,,,,4,,,57,85
266760,note_on,5,0,1,,,,,,,,0,,,72,64
266875,note_on,115,0,2,,,,,,,,1,,,72,0
266875,note_on,115,0,6,,,,,,,,5,,,57,0
266875,note_on,115,0,1,,,,,,,,0,,,72,0
266875,note_on,115,0,5,,,,,,,,4,,,57,0
266880,note_on,5,0,2,,,,,,,,1,,,74,64
266880,note_on,5,0,5,,,,,,,,4,,,59,85
266880,note_on,5,0,6,,,,,,,,5,,,59,85
266880,note_on,5,0,1,,,,,,,,0,,,74,64
267105,note_on,225,0,2,,,,,,,,1,,,74,0
267105,note_on,225,0,1,,,,,,,,0,,,74,0
267105,note_on,225,0,5,,,,,,,,4,,,59,0
267105,note_on,225,0,6,,,,,,,,5,,,59,0
267120,note_on,15,0,2,,,,,,,,1,,,72,64
267120,note_on,15,0,1,,,,,,,,0,,,72,64
267120,note_on,15,0,5,,,,,,,,4,,,57,85
267120,note_on,15,0,6,,,,,,,,5,,,57,85
267285,note_on,885,0,4,,,,,,,,3,,,62,0
267345,note_on,225,0,5,,,,,,,,4,,,57,0
267345,note_on,225,0,1,,,,,,,,0,,,72,0
267345,note_on,225,0,2,,,,,,,,1,,,72,0
267345,note_on,225,0,6,,,,,,,,5,,,57,0
267360,note_on,15,0,6,,,,,,,,5,,,59,85
267360,note_on,15,0,2,,,,,,,,1,,,74,64
267360,note_on,15,0,1,,,,,,,,0,,,74,64
267360,note_on,15,0,5,,,,,,,,4,,,59,85
267360,note_on,75,0,4,,,,,,,,3,,,67,85
267585,note_on,225,0,6,,,,,,,,5,,,59,0
267585,note_on,225,0,1,,,,,,,,0,,,74,0
267585,note_on,225,0,5,,,,,,,,4,,,59,0
267585,note_on,225,0,2,,,,,,,,1,,,74,0
267600,note_on,15,0,6,,,,,,,,5,,,55,85
267600,note_on,15,0,1,,,,,,,,0,,,71,64
267600,note_on,15,0,5,,,,,,,,4,,,55,85
267600,note_on,15,0,2,,,,,,,,1,,,71,64
267805,note_on,445,0,4,,,,,,,,3,,,67,0
267825,note_on,225,0,1,,,,,,,,0,,,71,0
267825,note_on,225,0,6,,,,,,,,5,,,55,0
267825,note_on,225,0,5,,,,,,,,4,,,55,0
267825,note_on,225,0,2,,,,,,,,1,,,71,0
267840,note_on,15,0,6,,,,,,,,5,,,48,85
267840,note_on,15,0,2,,,,,,,,1,,,76,64
267840,note_on,15,0,5,,,,,,,,4,,,48,85
267840,note_on,15,0,1,,,,,,,,0,,,76,64
267840,note_on,35,0,4,,,,,,,,3,,,67,85
268065,note_on,225,0,5,,,,,,,,4,,,48,0
268065,note_on,225,0,6,,,,,,,,5,,,48,0
268065,note_on,1665,0,3,,,,,,,,2,,,71,0
268080,note_on,15,0,3,,,,,,,,2,,,64,64
268080,note_on,15,0,6,,,,,,,,5,,,48,85
268080,note_on,15,0,5,,,,,,,,4,,,48,85
268195,note_on,115,0,3,,,,,,,,2,,,64,0
268195,note_on,115,0,5,,,,,,,,4,,,48,0
268195,note_on,115,0,6,,,,,,,,5,,,48,0
268200,note_on,5,0,6,,,,,,,,5,,,50,85
268200,note_on,5,0,3,,,,,,,,2,,,65,64
268200,note_on,5,0,5,,,,,,,,4,,,50,85
268315,note_on,115,0,6,,,,,,,,5,,,50,0
268315,note_on,115,0,3,,,,,,,,2,,,65,0
268315,note_on,115,0,5,,,,,,,,4,,,50,0
268320,note_on,5,0,6,,,,,,,,5,,,52,85
268320,note_on,5,0,3,,,,,,,,2,,,67,64
268320,note_on,5,0,5,,,,,,,,4,,,52,85
268545,note_on,225,0,5,,,,,,,,4,,,52,0
268545,note_on,225,0,3,,,,,,,,2,,,67,0
268545,note_on,225,0,6,,,,,,,,5,,,52,0
268560,note_on,15,0,5,,,,,,,,4,,,50,85
268560,note_on,15,0,3,,,,,,,,2,,,65,64
268560,note_on,15,0,6,,,,,,,,5,,,50,85
268725,note_on,885,0,4,,,,,,,,3,,,67,0
268785,note_on,225,0,5,,,,,,,,4,,,50,0
268785,note_on,225,0,3,,,,,,,,2,,,65,0
268785,note_on,225,0,6,,,,,,,,5,,,50,0
268800,note_on,15,0,5,,,,,,,,4,,,52,85
268800,note_on,15,0,3,,,,,,,,2,,,67,64
268800,note_on,15,0,6,,,,,,,,5,,,52,85
268800,note_on,75,0,4,,,,,,,,3,,,64,85
269025,note_on,225,0,6,,,,,,,,5,,,52,0
269025,note_on,225,0,3,,,,,,,,2,,,67,0
269025,note_on,225,0,5,,,,,,,,4,,,52,0
269040,note_on,15,0,6,,,,,,,,5,,,48,85
269040,note_on,15,0,5,,,,,,,,4,,,48,85
269040,note_on,15,0,3,,,,,,,,2,,,64,64
269245,note_on,445,0,4,,,,,,,,3,,,64,0
269265,note_on,225,0,5,,,,,,,,4,,,48,0
269265,note_on,225,0,6,,,,,,,,5,,,48,0
269265,note_on,225,0,3,,,,,,,,2,,,64,0
269280,note_on,15,0,6,,,,,,,,5,,,53,85
269280,note_on,15,0,3,,,,,,,,2,,,69,64
269280,note_on,15,0,5,,,,,,,,4,,,53,85
269280,note_on,35,0,4,,,,,,,,3,,,60,85
269505,note_on,225,0,5,,,,,,,,4,,,53,0
269505,note_on,225,0,6,,,,,,,,5,,,53,0
269505,note_on,1665,0,1,,,,,,,,0,,,76,0
269505,note_on,1665,0,2,,,,,,,,1,,,76,0
269520,note_on,15,0,1,,,,,,,,0,,,69,64
269520,note_on,15,0,2,,,,,,,,1,,,69,64
269520,note_on,15,0,5,,,,,,,,4,,,53,85
269520,note_on,15,0,6,,,,,,,,5,,,53,85
269635,note_on,115,0,5,,,,,,,,4,,,53,0
269635,note_on,115,0,2,,,,,,,,1,,,69,0
269635,note_on,115,0,6,,,,,,,,5,,,53,0
269635,note_on,115,0,1,,,,,,,,0,,,69,0
269640,note_on,5,0,2,,,,,,,,1,,,71,64
269640,note_on,5,0,1,,,,,,,,0,,,71,64
269640,note_on,5,0,5,,,,,,,,4,,,55,85
269640,note_on,5,0,6,,,,,,,,5,,,55,85
269755,note_on,115,0,6,,,,,,,,5,,,55,0
269755,note_on,115,0,2,,,,,,,,1,,,71,0
269755,note_on,115,0,1,,,,,,,,0,,,71,0
269755,note_on,115,0,5,,,,,,,,4,,,55,0
269760,note_on,5,0,5,,,,,,,,4,,,57,85
269760,note_on,5,0,2,,,,,,,,1,,,72,64
269760,note_on,5,0,6,,,,,,,,5,,,57,85
269760,note_on,5,0,1,,,,,,,,0,,,72,64
269985,note_on,225,0,1,,,,,,,,0,,,72,0
269985,note_on,225,0,5,,,,,,,,4,,,57,0
269985,note_on,225,0,6,,,,,,,,5,,,57,0
269985,note_on,225,0,2,,,,,,,,1,,,72,0
270000,note_on,15,0,6,,,,,,,,5,,,55,85
270000,note_on,15,0,5,,,,,,,,4,,,55,85
270000,note_on,15,0,2,,,,,,,,1,,,71,64
270000,note_on,15,0,1,,,,,,,,0,,,71,64
270165,note_on,885,0,4,,,,,,,,3,,,60,0
270225,note_on,225,0,5,,,,,,,,4,,,55,0
270225,note_on,225,0,2,,,,,,,,1,,,71,0
270225,note_on,225,0,6,,,,,,,,5,,,55,0
270225,note_on,225,0,1,,,,,,,,0,,,71,0
270240,note_on,15,0,6,,,,,,,,5,,,57,85
270240,note_on,75,0,4,,,,,,,,3,,,65,85
270240,note_on,15,0,2,,,,,,,,1,,,72,64
270240,note_on,15,0,5,,,,,,,,4,,,57,85
270240,note_on,15,0,1,,,,,,,,0,,,72,64
270465,note_on,225,0,1,,,,,,,,0,,,72,0
270465,note_on,225,0,5,,,,,,,,4,,,57,0
270465,note_on,225,0,2,,,,,,,,1,,,72,0
270465,note_on,225,0,6,,,,,,,,5,,,57,0
270480,note_on,15,0,6,,,,,,,,5,,,53,85
270480,note_on,15,0,2,,,,,,,,1,,,69,64
270480,note_on,15,0,5,,,,,,,,4,,,53,85
270480,note_on,15,0,1,,,,,,,,0,,,69,64
270685,note_on,445,0,4,,,,,,,,3,,,65,0
270705,note_on,225,0,1,,,,,,,,0,,,69,0
270705,note_on,225,0,6,,,,,,,,5,,,53,0
270705,note_on,225,0,2,,,,,,,,1,,,69,0
270705,note_on,225,0,5,,,,,,,,4,,,53,0
270720,note_on,15,0,6,,,,,,,,5,,,47,85
270720,note_on,35,0,4,,,,,,,,3,,,65,85
270720,note_on,15,0,2,,,,,,,,1,,,74,64
270720,note_on,15,0,1,,,,,,,,0,,,74,64
270720,note_on,15,0,5,,,,,,,,4,,,47,85
270945,note_on,1665,0,3,,,,,,,,2,,,69,0
270945,note_on,225,0,6,,,,,,,,5,,,47,0
270945,note_on,225,0,5,,,,,,,,4,,,47,0
270960,note_on,15,0,5,,,,,,,,4,,,47,85
270960,note_on,15,0,6,,,,,,,,5,,,47,85
270960,note_on,15,0,3,,,,,,,,2,,,62,64
271075,note_on,115,0,6,,,,,,,,5,,,47,0
271075,note_on,115,0,5,,,,,,,,4,,,47,0
271075,note_on,115,0,3,,,,,,,,2,,,62,0
271080,note_on,5,0,5,,,,,,,,4,,,48,85
271080,note_on,5,0,3,,,,,,,,2,,,64,64
271080,note_on,5,0,6,,,,,,,,5,,,48,85
271195,note_on,115,0,5,,,,,,,,4,,,48,0
271195,note_on,115,0,3,,,,,,,,2,,,64,0
271195,note_on,115,0,6,,,,,,,,5,,,48,0
271200,note_on,5,0,6,,,,,,,,5,,,50,85
271200,note_on,5,0,3,,,,,,,,2,,,65,64
271200,note_on,5,0,5,,,,,,,,4,,,50,85
271425,note_on,225,0,3,,,,,,,,2,,,65,0
271425,note_on,225,0,6,,,,,,,,5,,,50,0
271425,note_on,225,0,5,,,,,,,,4,,,50,0
271440,note_on,15,0,3,,,,,,,,2,,,64,64
271440,note_on,15,0,6,,,,,,,,5,,,48,85
271440,note_on,15,0,5,,,,,,,,4,,,48,85
271605,note_on,885,0,4,,,,,,,,3,,,65,0
271665,note_on,225,0,5,,,,,,,,4,,,48,0
271665,note_on,225,0,6,,,,,,,,5,,,48,0
271665,note_on,225,0,3,,,,,,,,2,,,64,0
271680,note_on,75,0,4,,,,,,,,3,,,62,85
271680,note_on,15,0,6,,,,,,,,5,,,50,85
271680,note_on,15,0,3,,,,,,,,2,,,65,64
271680,note_on,15,0,5,,,,,,,,4,,,50,85
271905,note_on,225,0,5,,,,,,,,4,,,50,0
271905,note_on,225,0,3,,,,,,,,2,,,65,0
271905,note_on,225,0,6,,,,,,,,5,,,50,0
271920,note_on,15,0,5,,,,,,,,4,,,47,85
271920,note_on,15,0,6,,,,,,,,5,,,47,85
271920,note_on,15,0,3,,,,,,,,2,,,62,64
272125,note_on,445,0,4,,,,,,,,3,,,62,0
272145,note_on,225,0,3,,,,,,,,2,,,62,0
272145,note_on,225,0,6,,,,,,,,5,,,47,0
272145,note_on,225,0,5,,,,,,,,4,,,47,0
272160,note_on,35,0,4,,,,,,,,3,,,59,85
272160,note_on,15,0,5,,,,,,,,4,,,52,85
272160,note_on,15,0,3,,,,,,,,2,,,68,64
272160,note_on,15,0,6,,,,,,,,5,,,52,85
272385,note_on,1665,0,1,,,,,,,,0,,,74,0
272385,note_on,225,0,3,,,,,,,,2,,,68,0
272385,note_on,1665,0,2,,,,,,,,1,,,74,0
272400,note_on,15,0,1,,,,,,,,0,,,71,64
272400,note_on,15,0,2,,,,,,,,1,,,71,64
272400,note_on,15,0,3,,,,,,,,2,,,68,64
272515,note_on,115,0,2,,,,,,,,1,,,71,0
272515,note_on,115,0,3,,,,,,,,2,,,68,0
272515,note_on,115,0,1,,,,,,,,0,,,71,0
272520,note_on,5,0,2,,,,,,,,1,,,72,64
272520,note_on,5,0,3,,,,,,,,2,,,69,64
272520,note_on,5,0,1,,,,,,,,0,,,72,64
272605,note_on,445,0,5,,,,,,,,4,,,52,0
272605,note_on,445,0,6,,,,,,,,5,,,52,0
272635,note_on,115,0,1,,,,,,,,0,,,72,0
272635,note_on,115,0,2,,,,,,,,1,,,72,0
272635,note_on,115,0,3,,,,,,,,2,,,69,0
272640,note_on,5,0,3,,,,,,,,2,,,71,64
272640,note_on,35,0,6,,,,,,,,5,,,52,85
272640,note_on,5,0,2,,,,,,,,1,,,74,64
272640,note_on,35,0,5,,,,,,,,4,,,52,85
272640,note_on,5,0,1,,,,,,,,0,,,74,64
272865,note_on,225,0,1,,,,,,,,0,,,74,0
272865,note_on,225,0,2,,,,,,,,1,,,74,0
272865,note_on,225,0,3,,,,,,,,2,,,71,0
272880,note_on,15,0,3,,,,,,,,2,,,69,64
272880,note_on,15,0,2,,,,,,,,1,,,72,64
272880,note_on,15,0,1,,,,,,,,0,,,72,64
273045,note_on,885,0,4,,,,,,,,3,,,59,0
273085,note_on,445,0,5,,,,,,,,4,,,52,0
273085,note_on,445,0,6,,,,,,,,5,,,52,0
273105,note_on,225,0,1,,,,,,,,0,,,72,0
273105,note_on,225,0,2,,,,,,,,1,,,72,0
273105,note_on,225,0,3,,,,,,,,2,,,69,0
273120,note_on,35,0,5,,,,,,,,4,,,52,85
273120,note_on,35,0,6,,,,,,,,5,,,52,85
273120,note_on,15,0,1,,,,,,,,0,,,74,64
273120,note_on,75,0,4,,,,,,,,3,,,64,85
273120,note_on,15,0,3,,,,,,,,2,,,71,64
273120,note_on,15,0,2,,,,,,,,1,,,74,64
273345,note_on,225,0,1,,,,,,,,0,,,74,0
273345,note_on,225,0,3,,,,,,,,2,,,71,0
273345,note_on,225,0,2,,,,,,,,1,,,74,0
273360,note_on,15,0,1,,,,,,,,0,,,71,64
273360,note_on,15,0,3,,,,,,,,2,,,68,64
273360,note_on,15,0,2,,,,,,,,1,,,71,64
273565,note_on,445,0,4,,,,,,,,3,,,64,0
273565,note_on,445,0,6,,,,,,,,5,,,52,0
273565,note_on,445,0,5,,,,,,,,4,,,52,0
273585,note_on,225,0,1,,,,,,,,0,,,71,0
273585,note_on,225,0,2,,,,,,,,1,,,71,0
273585,note_on,225,0,3,,,,,,,,2,,,68,0
273600,note_on,35,0,5,,,,,,,,4,,,45,85
273600,note_on,15,0,2,,,,,,,,1,,,72,64
273600,note_on,15,0,1,,,,,,,,0,,,72,64
273600,note_on,15,0,3,,,,,,,,2,,,69,64
273600,note_on,35,0,4,,,,,,,,3,,,64,85
273600,note_on,35,0,6,,,,,,,,5,,,45,85
274045,note_on,445,0,1,,,,,,,,0,,,72,0
274045,note_on,445,0,2,,,,,,,,1,,,72,0
274045,note_on,445,0,6,,,,,,,,5,,,45,0
274045,note_on,445,0,4,,,,,,,,3,,,64,0
274045,note_on,445,0,5,,,,,,,,4,,,45,0
274045,note_on,445,0,3,,,,,,,,2,,,69,0
274080,note_on,35,0,3,,,,,,,,2,,,71,64
274080,note_on,35,0,4,,,,,,,,3,,,65,85
274080,note_on,35,0,6,,,,,,,,5,,,50,85
274080,note_on,35,0,2,,,,,,,,1,,,74,64
274080,note_on,35,0,5,,,,,,,,4,,,50,85
274080,note_on,35,0,1,,,,,,,,0,,,74,64
274525,note_on,445,0,1,,,,,,,,0,,,74,0
274525,note_on,445,0,6,,,,,,,,5,,,50,0
274525,note_on,445,0,2,,,,,,,,1,,,74,0
274525,note_on,445,0,4,,,,,,,,3,,,65,0
274525,note_on,445,0,3,,,,,,,,2,,,71,0
274525,note_on,445,0,5,,,,,,,,4,,,50,0
274560,note_on,35,0,2,,,,,,,,1,,,71,64
274560,note_on,35,0,4,,,,,,,,3,,,64,85
274560,note_on,35,0,3,,,,,,,,2,,,68,64
274560,note_on,35,0,6,,,,,,,,5,,,52,85
274560,note_on,35,0,1,,,,,,,,0,,,71,64
274560,note_on,35,0,5,,,,,,,,4,,,52,85
275005,note_on,445,0,5,,,,,,,,4,,,52,0
275005,note_on,445,0,3,,,,,,,,2,,,68,0
275005,note_on,445,0,6,,,,,,,,5,,,52,0
275005,note_on,445,0,2,,,,,,,,1,,,71,0
275005,note_on,445,0,1,,,,,,,,0,,,71,0
275005,note_on,445,0,4,,,,,,,,3,,,64,0
275040,note_on,35,0,5,,,,,,,,4,,,45,85
275040,note_on,35,0,4,,,,,,,,3,,,64,85
275040,note_on,35,0,3,,,,,,,,2,,,69,64
275040,note_on,35,0,1,,,,,,,,0,,,69,106
275040,note_on,35,0,2,,,,,,,,1,,,69,64
275040,note_on,35,0,6,,,,,,,,5,,,45,85
275265,note_on,225,0,1,,,,,,,,0,,,69,0
275280,note_on,0,0,1,,,,,,,,0,,,72,106
275280,note_on,15,0,1,,,,,,,,0,,,76,106
275485,note_on,445,0,4,,,,,,,,3,,,64,0
275485,note_on,445,0,2,,,,,,,,1,,,69,0
275485,note_on,445,0,3,,,,,,,,2,,,69,0
275485,note_on,445,0,5,,,,,,,,4,,,45,0
275485,note_on,445,0,6,,,,,,,,5,,,45,0
275505,note_on,0,0,1,,,,,,,,0,,,76,0
275505,note_on,225,0,1,,,,,,,,0,,,72,0
275520,note_on,15,0,1,,,,,,,,0,,,81,106
275520,note_on,0,0,1,,,,,,,,0,,,72,106
275635,note_on,115,0,1,,,,,,,,0,,,81,0
275640,note_on,5,0,1,,,,,,,,0,,,76,106
275745,note_on,105,0,1,,,,,,,,0,,,72,0
275755,note_on,10,0,1,,,,,,,,0,,,76,0
275760,note_on,5,0,1,,,,,,,,0,,,81,106
275760,note_on,0,0,1,,,,,,,,0,,,72,106
275875,note_on,115,0,1,,,,,,,,0,,,81,0
275880,note_on,5,0,1,,,,,,,,0,,,76,106
275985,note_on,105,0,1,,,,,,,,0,,,72,0
275995,note_on,10,0,1,,,,,,,,0,,,76,0
276000,note_on,5,0,1,,,,,,,,0,,,81,106
276000,note_on,0,0,1,,,,,,,,0,,,72,106
276115,note_on,115,0,1,,,,,,,,0,,,81,0
276120,note_on,5,0,1,,,,,,,,0,,,76,106
276225,note_on,105,0,1,,,,,,,,0,,,72,0
276235,note_on,10,0,1,,,,,,,,0,,,76,0
276240,note_on,5,0,1,,,,,,,,0,,,81,106
276240,note_on,0,0,1,,,,,,,,0,,,72,106
276355,note_on,115,0,1,,,,,,,,0,,,81,0
276360,note_on,5,0,1,,,,,,,,0,,,76,106
276465,note_on,105,0,1,,,,,,,,0,,,72,0
276475,note_on,10,0,1,,,,,,,,0,,,76,0
276480,note_on,0,0,1,,,,,,,,0,,,74,106
276480,note_on,995,0,5,,,,,,,,4,,,50,64
276480,note_on,5,0,1,,,,,,,,0,,,77,106
276480,note_on,995,0,6,,,,,,,,5,,,50,64
276705,note_on,0,0,1,,,,,,,,0,,,77,0
276705,note_on,225,0,1,,,,,,,,0,,,74,0
276720,note_on,15,0,1,,,,,,,,0,,,76,106
276720,note_on,1235,0,2,,,,,,,,1,,,76,64
276720,note_on,0,0,1,,,,,,,,0,,,72,106
276925,note_on,445,0,6,,,,,,,,5,,,50,0
276925,note_on,445,0,5,,,,,,,,4,,,50,0
276945,note_on,225,0,2,,,,,,,,1,,,76,0
276945,note_on,225,0,1,,,,,,,,0,,,72,0
276945,note_on,0,0,1,,,,,,,,0,,,76,0
276960,note_on,35,0,6,,,,,,,,5,,,52,64
276960,note_on,15,0,2,,,,,,,,1,,,76,64
276960,note_on,15,0,1,,,,,,,,0,,,76,106
276960,note_on,35,0,5,,,,,,,,4,,,52,64
276960,note_on,0,0,1,,,,,,,,0,,,71,106
277185,note_on,225,0,1,,,,,,,,0,,,71,0
277185,note_on,225,0,2,,,,,,,,1,,,76,0
277185,note_on,0,0,1,,,,,,,,0,,,76,0
277200,note_on,15,0,2,,,,,,,,1,,,76,64
277200,note_on,0,0,1,,,,,,,,0,,,69,106
277200,note_on,15,0,1,,,,,,,,0,,,76,106
277405,note_on,445,0,6,,,,,,,,5,,,52,0
277405,note_on,445,0,5,,,,,,,,4,,,52,0
277425,note_on,225,0,1,,,,,,,,0,,,69,0
277425,note_on,0,0,1,,,,,,,,0,,,76,0
277425,note_on,225,0,2,,,,,,,,1,,,76,0
277440,note_on,35,0,6,,,,,,,,5,,,40,64
277440,note_on,0,0,1,,,,,,,,0,,,68,106
277440,note_on,15,0,2,,,,,,,,1,,,76,64
277440,note_on,35,0,5,,,,,,,,4,,,40,64
277440,note_on,15,0,1,,,,,,,,0,,,76,106
277665,note_on,225,0,1,,,,,,,,0,,,68,0
277665,note_on,0,0,1,,,,,,,,0,,,76,0
277680,note_on,15,0,1,,,,,,,,0,,,76,106
277885,note_on,445,0,2,,,,,,,,1,,,76,0
277885,note_on,445,0,5,,,,,,,,4,,,40,0
277885,note_on,445,0,6,,,,,,,,5,,,40,0
277905,note_on,225,0,1,,,,,,,,0,,,76,0
277920,note_on,15,0,1,,,,,,,,0,,,76,64
277920,note_on,0,0,1,,,,,,,,0,,,72,64
277920,note_on,35,0,5,,,,,,,,4,,,45,64
277920,note_on,35,0,6,,,,,,,,5,,,45,64
278145,note_on,0,0,1,,,,,,,,0,,,76,0
278145,note_on,225,0,1,,,,,,,,0,,,72,0
278160,note_on,15,0,1,,,,,,,,0,,,76,64
278160,note_on,0,0,1,,,,,,,,0,,,72,64
278160,note_on,2675,0,3,,,,,,,,2,,,76,64
278365,note_on,445,0,6,,,,,,,,5,,,45,0
278365,note_on,445,0,5,,,,,,,,4,,,45,0
278385,note_on,225,0,3,,,,,,,,2,,,76,0
278385,note_on,225,0,1,,,,,,,,0,,,72,0
278385,note_on,0,0,1,,,,,,,,0,,,76,0
278400,note_on,15,0,1,,,,,,,,0,,,81,64
278400,note_on,15,0,3,,,,,,,,2,,,76,64
278400,note_on,0,0,1,,,,,,,,0,,,72,64
278515,note_on,115,0,1,,,,,,,,0,,,81,0
278520,note_on,5,0,1,,,,,,,,0,,,76,64
278625,note_on,105,0,1,,,,,,,,0,,,72,0
278625,note_on,225,0,3,,,,,,,,2,,,76,0
278635,note_on,10,0,1,,,,,,,,0,,,76,0
278640,note_on,15,0,3,,,,,,,,2,,,76,64
278640,note_on,5,0,1,,,,,,,,0,,,81,64
278640,note_on,0,0,1,,,,,,,,0,,,72,64
278755,note_on,115,0,1,,,,,,,,0,,,81,0
278760,note_on,5,0,1,,,,,,,,0,,,76,64
278865,note_on,225,0,3,,,,,,,,2,,,76,0
278865,note_on,105,0,1,,,,,,,,0,,,72,0
278875,note_on,10,0,1,,,,,,,,0,,,76,0
278880,note_on,5,0,1,,,,,,,,0,,,81,64
278880,note_on,0,0,1,,,,,,,,0,,,72,64
278880,note_on,15,0,3,,,,,,,,2,,,76,64
278995,note_on,115,0,1,,,,,,,,0,,,81,0
279000,note_on,5,0,1,,,,,,,,0,,,76,64
279105,note_on,105,0,1,,,,,,,,0,,,72,0
279115,note_on,10,0,1,,,,,,,,0,,,76,0
279120,note_on,5,0,1,,,,,,,,0,,,81,64
279120,note_on,0,0,1,,,,,,,,0,,,72,64
279235,note_on,115,0,1,,,,,,,,0,,,81,0
279240,note_on,5,0,1,,,,,,,,0,,,76,64
279325,note_on,445,0,3,,,,,,,,2,,,76,0
279345,note_on,105,0,1,,,,,,,,0,,,72,0
279355,note_on,10,0,1,,,,,,,,0,,,76,0
279360,note_on,5,0,1,,,,,,,,0,,,77,64
279360,note_on,0,0,1,,,,,,,,0,,,74,64
279360,note_on,995,0,6,,,,,,,,5,,,50,49
279360,note_on,995,0,5,,,,,,,,4,,,50,49
279585,note_on,0,0,1,,,,,,,,0,,,77,0
279585,note_on,225,0,1,,,,,,,,0,,,74,0
279600,note_on,0,0,1,,,,,,,,0,,,72,64
279600,note_on,15,0,1,,,,,,,,0,,,76,64
279600,note_on,1715,0,2,,,,,,,,1,,,76,64
279805,note_on,445,0,6,,,,,,,,5,,,50,0
279805,note_on,445,0,5,,,,,,,,4,,,50,0
279825,note_on,0,0,1,,,,,,,,0,,,76,0
279825,note_on,225,0,2,,,,,,,,1,,,76,0
279825,note_on,225,0,1,,,,,,,,0,,,72,0
279840,note_on,15,0,2,,,,,,,,1,,,76,64
279840,note_on,35,0,5,,,,,,,,4,,,52,49
279840,note_on,15,0,1,,,,,,,,0,,,76,64
279840,note_on,0,0,1,,,,,,,,0,,,71,64
279840,note_on,35,0,6,,,,,,,,5,,,52,49
280065,note_on,225,0,2,,,,,,,,1,,,76,0
280065,note_on,225,0,1,,,,,,,,0,,,71,0
280065,note_on,0,0,1,,,,,,,,0,,,76,0
280080,note_on,15,0,1,,,,,,,,0,,,76,64
280080,note_on,0,0,1,,,,,,,,0,,,69,64
280080,note_on,15,0,2,,,,,,,,1,,,76,64
280285,note_on,445,0,5,,,,,,,,4,,,52,0
280285,note_on,445,0,6,,,,,,,,5,,,52,0
280305,note_on,0,0,1,,,,,,,,0,,,76,0
280305,note_on,225,0,1,,,,,,,,0,,,69,0
280305,note_on,225,0,2,,,,,,,,1,,,76,0
280320,note_on,0,0,1,,,,,,,,0,,,68,64
280320,note_on,15,0,1,,,,,,,,0,,,76,64
280320,note_on,35,0,5,,,,,,,,4,,,40,49
280320,note_on,35,0,6,,,,,,,,5,,,40,49
280320,note_on,15,0,2,,,,,,,,1,,,76,64
280545,note_on,225,0,1,,,,,,,,0,,,68,0
280545,note_on,0,0,1,,,,,,,,0,,,76,0
280560,note_on,15,0,1,,,,,,,,0,,,76,64
280765,note_on,445,0,5,,,,,,,,4,,,40,0
280765,note_on,445,0,6,,,,,,,,5,,,40,0
280765,note_on,445,0,2,,,,,,,,1,,,76,0
280785,note_on,225,0,1,,,,,,,,0,,,76,0
280800,note_on,15,0,1,,,,,,,,0,,,76,64
280800,note_on,0,0,1,,,,,,,,0,,,72,64
280800,note_on,35,0,6,,,,,,,,5,,,45,49
280800,note_on,35,0,5,,,,,,,,4,,,45,49
281040,note_on,1715,0,3,,,,,,,,2,,,76,64
281245,note_on,445,0,1,,,,,,,,0,,,72,0
281245,note_on,0,0,1,,,,,,,,0,,,76,0
281245,note_on,445,0,6,,,,,,,,5,,,45,0
281245,note_on,445,0,5,,,,,,,,4,,,45,0
281265,note_on,225,0,3,,,,,,,,2,,,76,0
281280,note_on,35,0,6,,,,,,,,5,,,57,64
281280,note_on,15,0,3,,,,,,,,2,,,76,64
281280,note_on,35,0,5,,,,,,,,4,,,57,64
281505,note_on,225,0,6,,,,,,,,5,,,57,0
281505,note_on,225,0,3,,,,,,,,2,,,76,0
281505,note_on,225,0,5,,,,,,,,4,,,57,0
281520,note_on,0,0,1,,,,,,,,0,,,76,106
281520,note_on,15,0,3,,,,,,,,2,,,76,64
281520,note_on,15,0,5,,,,,,,,4,,,59,64
281520,note_on,15,0,6,,,,,,,,5,,,59,64
281520,note_on,275,0,1,,,,,,,,0,,,81,106
281745,note_on,225,0,1,,,,,,,,0,,,76,0
281745,note_on,0,0,1,,,,,,,,0,,,81,0
281745,note_on,225,0,3,,,,,,,,2,,,76,0
281745,note_on,225,0,5,,,,,,,,4,,,59,0
281745,note_on,225,0,6,,,,,,,,5,,,59,0
281760,note_on,15,0,6,,,,,,,,5,,,60,64
281760,note_on,15,0,1,,,,,,,,0,,,81,106
281760,note_on,0,0,1,,,,,,,,0,,,76,106
281760,note_on,15,0,3,,,,,,,,2,,,76,64
281760,note_on,15,0,5,,,,,,,,4,,,60,64
281985,note_on,225,0,5,,,,,,,,4,,,60,0
281985,note_on,225,0,6,,,,,,,,5,,,60,0
281985,note_on,225,0,1,,,,,,,,0,,,76,0
281985,note_on,0,0,1,,,,,,,,0,,,81,0
282000,note_on,15,0,1,,,,,,,,0,,,84,106
282000,note_on,0,0,1,,,,,,,,0,,,76,106
282000,note_on,15,0,5,,,,,,,,4,,,57,64
282000,note_on,15,0,6,,,,,,,,5,,,57,64
282205,note_on,445,0,3,,,,,,,,2,,,76,0
282225,note_on,0,0,1,,,,,,,,0,,,84,0
282225,note_on,225,0,1,,,,,,,,0,,,76,0
282225,note_on,225,0,5,,,,,,,,4,,,57,0
282225,note_on,225,0,6,,,,,,,,5,,,57,0
282240,note_on,15,0,6,,,,,,,,5,,,45,64
282240,note_on,0,0,1,,,,,,,,0,,,76,106
282240,note_on,15,0,5,,,,,,,,4,,,45,64
282240,note_on,15,0,1,,,,,,,,0,,,84,106
282465,note_on,225,0,1,,,,,,,,0,,,76,0
282465,note_on,0,0,1,,,,,,,,0,,,84,0
282480,note_on,0,0,1,,,,,,,,0,,,76,106
282480,note_on,15,0,1,,,,,,,,0,,,81,106
282480,note_on,1715,0,2,,,,,,,,1,,,76,64
282685,note_on,445,0,5,,,,,,,,4,,,45,0
282685,note_on,445,0,6,,,,,,,,5,,,45,0
282705,note_on,0,0,1,,,,,,,,0,,,81,0
282705,note_on,225,0,1,,,,,,,,0,,,76,0
282705,note_on,225,0,2,,,,,,,,1,,,76,0
282720,note_on,0,0,1,,,,,,,,0,,,76,106
282720,note_on,15,0,1,,,,,,,,0,,,81,106
282720,note_on,15,0,2,,,,,,,,1,,,76,64
282945,note_on,0,0,1,,,,,,,,0,,,81,0
282945,note_on,225,0,1,,,,,,,,0,,,76,0
282945,note_on,225,0,2,,,,,,,,1,,,76,0
282960,note_on,0,0,1,,,,,,,,0,,,69,106
282960,note_on,15,0,1,,,,,,,,0,,,76,106
282960,note_on,15,0,2,,,,,,,,1,,,76,64
283185,note_on,0,0,1,,,,,,,,0,,,76,0
283185,note_on,225,0,1,,,,,,,,0,,,69,0
283185,note_on,225,0,2,,,,,,,,1,,,76,0
283200,note_on,0,0,1,,,,,,,,0,,,69,106
283200,note_on,15,0,1,,,,,,,,0,,,76,106
283200,note_on,15,0,2,,,,,,,,1,,,76,64
283425,note_on,0,0,1,,,,,,,,0,,,76,0
283425,note_on,225,0,1,,,,,,,,0,,,69,0
283440,note_on,0,0,1,,,,,,,,0,,,69,106
283440,note_on,15,0,1,,,,,,,,0,,,77,106
283645,note_on,445,0,2,,,,,,,,1,,,76,0
283665,note_on,0,0,1,,,,,,,,0,,,77,0
283665,note_on,225,0,1,,,,,,,,0,,,69,0
283680,note_on,995,0,5,,,,,,,,4,,,50,64
283680,note_on,995,0,6,,,,,,,,5,,,50,64
283680,note_on,0,0,1,,,,,,,,0,,,69,106
283680,note_on,15,0,1,,,,,,,,0,,,77,106
283920,note_on,1715,0,3,,,,,,,,2,,,74,64
284125,note_on,445,0,5,,,,,,,,4,,,50,0
284125,note_on,445,0,6,,,,,,,,5,,,50,0
284125,note_on,0,0,1,,,,,,,,0,,,77,0
284125,note_on,445,0,1,,,,,,,,0,,,69,0
284145,note_on,225,0,3,,,,,,,,2,,,74,0
284160,note_on,15,0,3,,,,,,,,2,,,74,64
284160,note_on,35,0,5,,,,,,,,4,,,59,64
284160,note_on,35,0,6,,,,,,,,5,,,59,64
284385,note_on,225,0,3,,,,,,,,2,,,74,0
284400,note_on,15,0,3,,,,,,,,2,,,74,64
284400,note_on,275,0,1,,,,,,,,0,,,79,106
284400,note_on,0,0,1,,,,,,,,0,,,74,106
284605,note_on,445,0,6,,,,,,,,5,,,59,0
284605,note_on,445,0,5,,,,,,,,4,,,59,0
284625,note_on,225,0,3,,,,,,,,2,,,74,0
284625,note_on,225,0,1,,,,,,,,0,,,74,0
284625,note_on,0,0,1,,,,,,,,0,,,79,0
284640,note_on,15,0,1,,,,,,,,0,,,79,106
284640,note_on,0,0,1,,,,,,,,0,,,74,106
284640,note_on,35,0,6,,,,,,,,5,,,55,64
284640,note_on,35,0,5,,,,,,,,4,,,55,64
284640,note_on,15,0,3,,,,,,,,2,,,74,64
284865,note_on,0,0,1,,,,,,,,0,,,79,0
284865,note_on,225,0,1,,,,,,,,0,,,74,0
284880,note_on,15,0,1,,,,,,,,0,,,83,106
284880,note_on,0,0,1,,,,,,,,0,,,74,106
285085,note_on,445,0,5,,,,,,,,4,,,55,0
285085,note_on,445,0,3,,,,,,,,2,,,74,0
285085,note_on,445,0,6,,,,,,,,5,,,55,0
285105,note_on,0,0,1,,,,,,,,0,,,83,0
285105,note_on,225,0,1,,,,,,,,0,,,74,0
285120,note_on,15,0,1,,,,,,,,0,,,83,106
285120,note_on,0,0,1,,,,,,,,0,,,74,106
285120,note_on,35,0,6,,,,,,,,5,,,47,64
285120,note_on,35,0,5,,,,,,,,4,,,47,64
285345,note_on,0,0,1,,,,,,,,0,,,83,0
285345,note_on,225,0,1,,,,,,,,0,,,74,0
285360,note_on,15,0,1,,,,,,,,0,,,79,106
285360,note_on,0,0,1,,,,,,,,0,,,74,106
285360,note_on,1715,0,2,,,,,,,,1,,,74,64
285585,note_on,225,0,1,,,,,,,,0,,,74,0
285585,note_on,0,0,1,,,,,,,,0,,,79,0
285585,note_on,225,0,2,,,,,,,,1,,,74,0
285600,note_on,0,0,1,,,,,,,,0,,,74,106
285600,note_on,15,0,1,,,,,,,,0,,,79,106
285600,note_on,15,0,2,,,,,,,,1,,,74,64
285825,note_on,225,0,1,,,,,,,,0,,,74,0
285825,note_on,0,0,1,,,,,,,,0,,,79,0
285825,note_on,225,0,2,,,,,,,,1,,,74,0
285840,note_on,15,0,1,,,,,,,,0,,,74,106
285840,note_on,0,0,1,,,,,,,,0,,,67,106
285840,note_on,15,0,2,,,,,,,,1,,,74,64
286065,note_on,225,0,1,,,,,,,,0,,,67,0
286065,note_on,225,0,2,,,,,,,,1,,,74,0
286065,note_on,0,0,1,,,,,,,,0,,,74,0
286080,note_on,15,0,2,,,,,,,,1,,,74,64
286080,note_on,0,0,1,,,,,,,,0,,,67,106
286080,note_on,15,0,1,,,,,,,,0,,,74,106
286305,note_on,225,0,1,,,,,,,,0,,,67,0
286305,note_on,0,0,1,,,,,,,,0,,,74,0
286320,note_on,15,0,1,,,,,,,,0,,,76,106
286320,note_on,0,0,1,,,,,,,,0,,,67,106
286445,note_on,1325,0,6,,,,,,,,5,,,47,0
286445,note_on,1325,0,5,,,,,,,,4,,,47,0
286525,note_on,445,0,2,,,,,,,,1,,,74,0
286545,note_on,225,0,1,,,,,,,,0,,,67,0
286545,note_on,0,0,1,,,,,,,,0,,,76,0
286560,note_on,15,0,1,,,,,,,,0,,,76,106
286560,note_on,115,0,5,,,,,,,,4,,,48,64
286560,note_on,0,0,1,,,,,,,,0,,,67,106
286560,note_on,115,0,6,,,,,,,,5,,,48,64
286800,note_on,1715,0,3,,,,,,,,2,,,72,64
287005,note_on,445,0,6,,,,,,,,5,,,48,0
287005,note_on,445,0,5,,,,,,,,4,,,48,0
287005,note_on,0,0,1,,,,,,,,0,,,76,0
287005,note_on,445,0,1,,,,,,,,0,,,67,0
287025,note_on,225,0,3,,,,,,,,2,,,72,0
287040,note_on,15,0,3,,,,,,,,2,,,72,64
287040,note_on,35,0,5,,,,,,,,4,,,57,64
287040,note_on,35,0,6,,,,,,,,5,,,57,64
287265,note_on,225,0,3,,,,,,,,2,,,72,0
287280,note_on,15,0,3,,,,,,,,2,,,72,64
287280,note_on,275,0,1,,,,,,,,0,,,77,106
287280,note_on,0,0,1,,,,,,,,0,,,72,106
287485,note_on,445,0,6,,,,,,,,5,,,57,0
287485,note_on,445,0,5,,,,,,,,4,,,57,0
287505,note_on,225,0,3,,,,,,,,2,,,72,0
287505,note_on,0,0,1,,,,,,,,0,,,77,0
287505,note_on,225,0,1,,,,,,,,0,,,72,0
287520,note_on,0,0,1,,,,,,,,0,,,72,106
287520,note_on,15,0,1,,,,,,,,0,,,77,106
287520,note_on,35,0,5,,,,,,,,4,,,53,64
287520,note_on,15,0,3,,,,,,,,2,,,72,64
287520,note_on,35,0,6,,,,,,,,5,,,53,64
287745,note_on,0,0,1,,,,,,,,0,,,77,0
287745,note_on,225,0,1,,,,,,,,0,,,72,0
287760,note_on,0,0,1,,,,,,,,0,,,72,106
287760,note_on,15,0,1,,,,,,,,0,,,81,106
287965,note_on,445,0,6,,,,,,,,5,,,53,0
287965,note_on,445,0,5,,,,,,,,4,,,53,0
287965,note_on,445,0,3,,,,,,,,2,,,72,0
287985,note_on,225,0,1,,,,,,,,0,,,72,0
287985,note_on,0,0,1,,,,,,,,0,,,81,0
288000,note_on,0,0,1,,,,,,,,0,,,72,106
288000,note_on,35,0,6,,,,,,,,5,,,41,64
288000,note_on,15,0,1,,,,,,,,0,,,81,106
288000,note_on,35,0,5,,,,,,,,4,,,41,64
288225,note_on,225,0,1,,,,,,,,0,,,72,0
288225,note_on,0,0,1,,,,,,,,0,,,81,0
288240,note_on,15,0,1,,,,,,,,0,,,77,106
288240,note_on,0,0,1,,,,,,,,0,,,72,106
288240,note_on,1715,0,2,,,,,,,,1,,,72,64
288465,note_on,225,0,1,,,,,,,,0,,,72,0
288465,note_on,0,0,1,,,,,,,,0,,,77,0
288465,note_on,225,0,2,,,,,,,,1,,,72,0
288480,note_on,15,0,2,,,,,,,,1,,,72,64
288480,note_on,0,0,1,,,,,,,,0,,,72,106
288480,note_on,15,0,1,,,,,,,,0,,,77,106
288705,note_on,225,0,2,,,,,,,,1,,,72,0
288705,note_on,0,0,1,,,,,,,,0,,,77,0
288705,note_on,225,0,1,,,,,,,,0,,,72,0
288720,note_on,15,0,1,,,,,,,,0,,,72,106
288720,note_on,15,0,2,,,,,,,,1,,,72,64
288720,note_on,0,0,1,,,,,,,,0,,,65,106
288945,note_on,225,0,1,,,,,,,,0,,,65,0
288945,note_on,0,0,1,,,,,,,,0,,,72,0
288945,note_on,225,0,2,,,,,,,,1,,,72,0
288960,note_on,0,0,1,,,,,,,,0,,,65,106
288960,note_on,15,0,2,,,,,,,,1,,,72,64
288960,note_on,15,0,1,,,,,,,,0,,,72,106
289185,note_on,225,0,1,,,,,,,,0,,,65,0
289185,note_on,0,0,1,,,,,,,,0,,,72,0
289200,note_on,15,0,1,,,,,,,,0,,,71,106
289200,note_on,0,0,1,,,,,,,,0,,,65,106
289325,note_on,1325,0,6,,,,,,,,5,,,41,0
289325,note_on,1325,0,5,,,,,,,,4,,,41,0
289405,note_on,445,0,2,,,,,,,,1,,,72,0
289425,note_on,0,0,1,,,,,,,,0,,,71,0
289425,note_on,225,0,1,,,,,,,,0,,,65,0
289440,note_on,15,0,1,,,,,,,,0,,,71,106
289440,note_on,0,0,1,,,,,,,,0,,,65,106
289440,note_on,115,0,5,,,,,,,,4,,,43,64
289440,note_on,115,0,6,,,,,,,,5,,,43,64
289680,note_on,275,0,2,,,,,,,,1,,,83,64
289885,note_on,445,0,6,,,,,,,,5,,,43,0
289885,note_on,445,0,5,,,,,,,,4,,,43,0
289885,note_on,0,0,1,,,,,,,,0,,,71,0
289885,note_on,445,0,1,,,,,,,,0,,,65,0
289905,note_on,225,0,2,,,,,,,,1,,,83,0
289920,note_on,15,0,2,,,,,,,,1,,,83,64
289920,note_on,35,0,6,,,,,,,,5,,,55,64
289920,note_on,35,0,5,,,,,,,,4,,,55,64
290145,note_on,225,0,2,,,,,,,,1,,,83,0
290160,note_on,15,0,2,,,,,,,,1,,,83,64
290160,note_on,275,0,1,,,,,,,,0,,,74,106
290160,note_on,0,0,1,,,,,,,,0,,,65,106
290365,note_on,445,0,5,,,,,,,,4,,,55,0
290365,note_on,445,0,6,,,,,,,,5,,,55,0
290385,note_on,225,0,2,,,,,,,,1,,,83,0
290385,note_on,225,0,1,,,,,,,,0,,,65,0
290385,note_on,0,0,1,,,,,,,,0,,,74,0
290400,note_on,35,0,5,,,,,,,,4,,,47,64
290400,note_on,15,0,1,,,,,,,,0,,,74,106
290400,note_on,0,0,1,,,,,,,,0,,,65,106
290400,note_on,15,0,2,,,,,,,,1,,,83,64
290400,note_on,35,0,6,,,,,,,,5,,,47,64
290625,note_on,225,0,1,,,,,,,,0,,,65,0
290625,note_on,0,0,1,,,,,,,,0,,,74,0
290640,note_on,15,0,1,,,,,,,,0,,,77,106
290640,note_on,0,0,1,,,,,,,,0,,,74,106
290845,note_on,445,0,2,,,,,,,,1,,,83,0
290845,note_on,445,0,6,,,,,,,,5,,,47,0
290845,note_on,445,0,5,,,,,,,,4,,,47,0
290865,note_on,0,0,1,,,,,,,,0,,,77,0
290865,note_on,225,0,1,,,,,,,,0,,,74,0
290880,note_on,35,0,6,,,,,,,,5,,,43,64
290880,note_on,35,0,5,,,,,,,,4,,,43,64
290880,note_on,15,0,1,,,,,,,,0,,,77,106
290880,note_on,0,0,1,,,,,,,,0,,,74,106
291105,note_on,0,0,1,,,,,,,,0,,,77,0
291105,note_on,225,0,1,,,,,,,,0,,,74,0
291120,note_on,0,0,1,,,,,,,,0,,,74,106
291120,note_on,15,0,1,,,,,,,,0,,,83,106
291120,note_on,3155,0,3,,,,,,,,2,,,77,64
291345,note_on,225,0,3,,,,,,,,2,,,77,0
291345,note_on,225,0,1,,,,,,,,0,,,74,0
291345,note_on,0,0,1,,,,,,,,0,,,83,0
291360,note_on,15,0,3,,,,,,,,2,,,77,64
291360,note_on,15,0,1,,,,,,,,0,,,83,106
291360,note_on,0,0,1,,,,,,,,0,,,74,106
291585,note_on,225,0,1,,,,,,,,0,,,74,0
291585,note_on,0,0,1,,,,,,,,0,,,83,0
291585,note_on,225,0,3,,,,,,,,2,,,77,0
291600,note_on,15,0,1,,,,,,,,0,,,86,106
291600,note_on,0,0,1,,,,,,,,0,,,77,106
291600,note_on,15,0,3,,,,,,,,2,,,77,64
291825,note_on,0,0,1,,,,,,,,0,,,86,0
291825,note_on,225,0,1,,,,,,,,0,,,77,0
291825,note_on,225,0,3,,,,,,,,2,,,77,0
291840,note_on,15,0,1,,,,,,,,0,,,86,106
291840,note_on,15,0,3,,,,,,,,2,,,77,64
291840,note_on,0,0,1,,,,,,,,0,,,77,106
292065,note_on,0,0,1,,,,,,,,0,,,86,0
292065,note_on,225,0,1,,,,,,,,0,,,77,0
292080,note_on,0,0,1,,,,,,,,0,,,67,106
292080,note_on,15,0,1,,,,,,,,0,,,77,106
292205,note_on,1325,0,6,,,,,,,,5,,,43,0
292205,note_on,1325,0,5,,,,,,,,4,,,43,0
292285,note_on,445,0,3,,,,,,,,2,,,77,0
292305,note_on,225,0,1,,,,,,,,0,,,67,0
292305,note_on,0,0,1,,,,,,,,0,,,77,0
292320,note_on,115,0,6,,,,,,,,5,,,43,64
292320,note_on,15,0,1,,,,,,,,0,,,77,106
292320,note_on,115,0,5,,,,,,,,4,,,43,64
292320,note_on,0,0,1,,,,,,,,0,,,67,106
292545,note_on,0,0,1,,,,,,,,0,,,77,0
292545,note_on,225,0,1,,,,,,,,0,,,67,0
292560,note_on,1715,0,2,,,,,,,,1,,,74,64
292560,note_on,0,0,1,,,,,,,,0,,,67,106
292560,note_on,15,0,1,,,,,,,,0,,,77,106
292675,note_on,115,0,1,,,,,,,,0,,,77,0
292680,note_on,5,0,1,,,,,,,,0,,,76,106
292765,note_on,445,0,6,,,,,,,,5,,,43,0
292765,note_on,445,0,5,,,,,,,,4,,,43,0
292785,note_on,105,0,1,,,,,,,,0,,,67,0
292785,note_on,225,0,2,,,,,,,,1,,,74,0
292795,note_on,10,0,1,,,,,,,,0,,,76,0
292800,note_on,5,0,1,,,,,,,,0,,,77,106
292800,note_on,0,0,1,,,,,,,,0,,,67,106
292800,note_on,15,0,2,,,,,,,,1,,,74,64
292800,note_on,35,0,6,,,,,,,,5,,,55,64
292800,note_on,35,0,5,,,,,,,,4,,,55,64
292915,note_on,115,0,1,,,,,,,,0,,,77,0
292920,note_on,5,0,1,,,,,,,,0,,,76,106
293025,note_on,105,0,1,,,,,,,,0,,,67,0
293025,note_on,225,0,2,,,,,,,,1,,,74,0
293035,note_on,10,0,1,,,,,,,,0,,,76,0
293040,note_on,15,0,2,,,,,,,,1,,,74,64
293040,note_on,5,0,1,,,,,,,,0,,,77,106
293040,note_on,0,0,1,,,,,,,,0,,,67,106
293155,note_on,115,0,1,,,,,,,,0,,,77,0
293160,note_on,5,0,1,,,,,,,,0,,,76,106
293245,note_on,445,0,6,,,,,,,,5,,,55,0
293245,note_on,445,0,5,,,,,,,,4,,,55,0
293265,note_on,225,0,2,,,,,,,,1,,,74,0
293265,note_on,105,0,1,,,,,,,,0,,,67,0
293275,note_on,10,0,1,,,,,,,,0,,,76,0
293280,note_on,35,0,6,,,,,,,,5,,,47,64
293280,note_on,0,0,1,,,,,,,,0,,,67,106
293280,note_on,15,0,2,,,,,,,,1,,,74,64
293280,note_on,35,0,5,,,,,,,,4,,,47,64
293280,note_on,5,0,1,,,,,,,,0,,,77,106
293505,note_on,225,0,1,,,,,,,,0,,,67,0
293505,note_on,0,0,1,,,,,,,,0,,,77,0
293520,note_on,15,0,1,,,,,,,,0,,,79,106
293520,note_on,0,0,1,,,,,,,,0,,,67,106
293635,note_on,115,0,1,,,,,,,,0,,,79,0
293640,note_on,5,0,1,,,,,,,,0,,,77,106
293725,note_on,445,0,2,,,,,,,,1,,,74,0
293725,note_on,445,0,6,,,,,,,,5,,,47,0
293725,note_on,445,0,5,,,,,,,,4,,,47,0
293745,note_on,105,0,1,,,,,,,,0,,,67,0
293755,note_on,10,0,1,,,,,,,,0,,,77,0
293760,note_on,35,0,6,,,,,,,,5,,,43,64
293760,note_on,35,0,5,,,,,,,,4,,,43,64
293760,note_on,0,0,1,,,,,,,,0,,,67,64
293760,note_on,5,0,1,,,,,,,,0,,,76,64
293985,note_on,225,0,1,,,,,,,,0,,,67,0
293985,note_on,0,0,1,,,,,,,,0,,,76,0
294000,note_on,1715,0,3,,,,,,,,2,,,71,64
294000,note_on,0,0,1,,,,,,,,0,,,67,64
294000,note_on,15,0,1,,,,,,,,0,,,77,64
294115,note_on,115,0,1,,,,,,,,0,,,77,0
294120,note_on,5,0,1,,,,,,,,0,,,76,64
294225,note_on,105,0,1,,,,,,,,0,,,67,0
294225,note_on,225,0,3,,,,,,,,2,,,71,0
294235,note_on,10,0,1,,,,,,,,0,,,76,0
294240,note_on,5,0,1,,,,,,,,0,,,77,64
294240,note_on,0,0,1,,,,,,,,0,,,67,64
294240,note_on,15,0,3,,,,,,,,2,,,71,64
294355,note_on,115,0,1,,,,,,,,0,,,77,0
294360,note_on,5,0,1,,,,,,,,0,,,76,64
294465,note_on,225,0,3,,,,,,,,2,,,71,0
294465,note_on,105,0,1,,,,,,,,0,,,67,0
294475,note_on,10,0,1,,,,,,,,0,,,76,0
294480,note_on,15,0,3,,,,,,,,2,,,71,64
294480,note_on,5,0,1,,,,,,,,0,,,77,64
294480,note_on,0,0,1,,,,,,,,0,,,67,64
294595,note_on,115,0,1,,,,,,,,0,,,77,0
294600,note_on,5,0,1,,,,,,,,0,,,76,64
294705,note_on,105,0,1,,,,,,,,0,,,67,0
294705,note_on,225,0,3,,,,,,,,2,,,71,0
294715,note_on,10,0,1,,,,,,,,0,,,76,0
294720,note_on,0,0,1,,,,,,,,0,,,67,64
294720,note_on,15,0,3,,,,,,,,2,,,71,64
294720,note_on,5,0,1,,,,,,,,0,,,77,64
294945,note_on,0,0,1,,,,,,,,0,,,77,0
294945,note_on,225,0,1,,,,,,,,0,,,67,0
294960,note_on,0,0,1,,,,,,,,0,,,67,64
294960,note_on,15,0,1,,,,,,,,0,,,79,64
295075,note_on,115,0,1,,,,,,,,0,,,79,0
295080,note_on,5,0,1,,,,,,,,0,,,77,64
295085,note_on,1325,0,5,,,,,,,,4,,,43,0
295085,note_on,1325,0,6,,,,,,,,5,,,43,0
295165,note_on,445,0,3,,,,,,,,2,,,71,0
295185,note_on,105,0,1,,,,,,,,0,,,67,0
295195,note_on,10,0,1,,,,,,,,0,,,77,0
295200,note_on,115,0,6,,,,,,,,5,,,48,64
295200,note_on,5,0,1,,,,,,,,0,,,76,106
295200,note_on,0,0,1,,,,,,,,0,,,67,106
295200,note_on,115,0,5,,,,,,,,4,,,48,64
295425,note_on,225,0,1,,,,,,,,0,,,67,0
295425,note_on,0,0,1,,,,,,,,0,,,76,0
295440,note_on,1715,0,2,,,,,,,,1,,,79,64
295440,note_on,15,0,1,,,,,,,,0,,,82,106
295440,note_on,0,0,1,,,,,,,,0,,,72,106
295555,note_on,115,0,1,,,,,,,,0,,,82,0
295560,note_on,5,0,1,,,,,,,,0,,,81,106
295645,note_on,445,0,6,,,,,,,,5,,,48,0
295645,note_on,445,0,5,,,,,,,,4,,,48,0
295665,note_on,105,0,1,,,,,,,,0,,,72,0
295665,note_on,225,0,2,,,,,,,,1,,,79,0
295675,note_on,10,0,1,,,,,,,,0,,,81,0
295680,note_on,35,0,5,,,,,,,,4,,,60,64
295680,note_on,5,0,1,,,,,,,,0,,,82,106
295680,note_on,0,0,1,,,,,,,,0,,,72,106
295680,note_on,35,0,6,,,,,,,,5,,,60,64
295680,note_on,15,0,2,,,,,,,,1,,,79,64
295795,note_on,115,0,1,,,,,,,,0,,,82,0
295800,note_on,5,0,1,,,,,,,,0,,,81,106
295905,note_on,225,0,2,,,,,,,,1,,,79,0
295905,note_on,105,0,1,,,,,,,,0,,,72,0
295915,note_on,10,0,1,,,,,,,,0,,,81,0
295920,note_on,5,0,1,,,,,,,,0,,,82,106
295920,note_on,0,0,1,,,,,,,,0,,,72,106
295920,note_on,15,0,2,,,,,,,,1,,,79,64
296035,note_on,115,0,1,,,,,,,,0,,,82,0
296040,note_on,5,0,1,,,,,,,,0,,,81,106
296125,note_on,445,0,5,,,,,,,,4,,,60,0
296125,note_on,445,0,6,,,,,,,,5,,,60,0
296145,note_on,225,0,2,,,,,,,,1,,,79,0
296145,note_on,105,0,1,,,,,,,,0,,,72,0
296155,note_on,10,0,1,,,,,,,,0,,,81,0
296160,note_on,5,0,1,,,,,,,,0,,,82,106
296160,note_on,15,0,2,,,,,,,,1,,,79,64
296160,note_on,35,0,5,,,,,,,,4,,,52,64
296160,note_on,0,0,1,,,,,,,,0,,,72,106
296160,note_on,35,0,6,,,,,,,,5,,,52,64
296385,note_on,0,0,1,,,,,,,,0,,,82,0
296385,note_on,225,0,1,,,,,,,,0,,,72,0
296400,note_on,15,0,1,,,,,,,,0,,,84,106
296400,note_on,0,0,1,,,,,,,,0,,,72,106
296515,note_on,115,0,1,,,,,,,,0,,,84,0
296520,note_on,5,0,1,,,,,,,,0,,,82,106
296605,note_on,445,0,5,,,,,,,,4,,,52,0
296605,note_on,445,0,6,,,,,,,,5,,,52,0
296605,note_on,445,0,2,,,,,,,,1,,,79,0
296625,note_on,105,0,1,,,,,,,,0,,,72,0
296635,note_on,10,0,1,,,,,,,,0,,,82,0
296640,note_on,35,0,6,,,,,,,,5,,,48,64
296640,note_on,35,0,5,,,,,,,,4,,,48,64
296640,note_on,0,0,1,,,,,,,,0,,,72,64
296640,note_on,5,0,1,,,,,,,,0,,,81,64
296865,note_on,0,0,1,,,,,,,,0,,,81,0
296865,note_on,225,0,1,,,,,,,,0,,,72,0
296880,note_on,1715,0,3,,,,,,,,2,,,76,64
296880,note_on,0,0,1,,,,,,,,0,,,72,64
296880,note_on,15,0,1,,,,,,,,0,,,82,64
296995,note_on,115,0,1,,,,,,,,0,,,82,0
297000,note_on,5,0,1,,,,,,,,0,,,81,64
297105,note_on,105,0,1,,,,,,,,0,,,72,0
297105,note_on,225,0,3,,,,,,,,2,,,76,0
297115,note_on,10,0,1,,,,,,,,0,,,81,0
297120,note_on,15,0,3,,,,,,,,2,,,76,64
297120,note_on,0,0,1,,,,,,,,0,,,72,64
297120,note_on,5,0,1,,,,,,,,0,,,82,64
297235,note_on,115,0,1,,,,,,,,0,,,82,0
297240,note_on,5,0,1,,,,,,,,0,,,81,64
297345,note_on,225,0,3,,,,,,,,2,,,76,0
297345,note_on,105,0,1,,,,,,,,0,,,72,0
297355,note_on,10,0,1,,,,,,,,0,,,81,0
297360,note_on,5,0,1,,,,,,,,0,,,82,64
297360,note_on,0,0,1,,,,,,,,0,,,72,64
297360,note_on,15,0,3,,,,,,,,2,,,76,64
297475,note_on,115,0,1,,,,,,,,0,,,82,0
297480,note_on,5,0,1,,,,,,,,0,,,81,64
297585,note_on,105,0,1,,,,,,,,0,,,72,0
297585,note_on,225,0,3,,,,,,,,2,,,76,0
297595,note_on,10,0,1,,,,,,,,0,,,81,0
297600,note_on,5,0,1,,,,,,,,0,,,82,64
297600,note_on,0,0,1,,,,,,,,0,,,72,64
297600,note_on,15,0,3,,,,,,,,2,,,76,64
297825,note_on,225,0,1,,,,,,,,0,,,72,0
297825,note_on,0,0,1,,,,,,,,0,,,82,0
297840,note_on,15,0,1,,,,,,,,0,,,84,64
297840,note_on,0,0,1,,,,,,,,0,,,72,64
297955,note_on,115,0,1,,,,,,,,0,,,84,0
297960,note_on,5,0,1,,,,,,,,0,,,82,64
297965,note_on,1325,0,5,,,,,,,,4,,,48,0
297965,note_on,1325,0,6,,,,,,,,5,,,48,0
298045,note_on,445,0,3,,,,,,,,2,,,76,0
298065,note_on,105,0,1,,,,,,,,0,,,72,0
298075,note_on,10,0,1,,,,,,,,0,,,82,0
298080,note_on,5,0,1,,,,,,,,0,,,81,64
298080,note_on,115,0,6,,,,,,,,5,,,41,64
298080,note_on,0,0,1,,,,,,,,0,,,72,64
298080,note_on,115,0,5,,,,,,,,4,,,41,64
298305,note_on,225,0,5,,,,,,,,4,,,41,0
298305,note_on,225,0,6,,,,,,,,5,,,41,0
298320,note_on,1715,0,2,,,,,,,,1,,,72,64
298320,note_on,15,0,5,,,,,,,,4,,,53,64
298320,note_on,15,0,6,,,,,,,,5,,,53,64
298525,note_on,0,0,1,,,,,,,,0,,,81,0
298525,note_on,445,0,1,,,,,,,,0,,,72,0
298545,note_on,225,0,5,,,,,,,,4,,,53,0
298545,note_on,225,0,2,,,,,,,,1,,,72,0
298545,note_on,225,0,6,,,,,,,,5,,,53,0
298560,note_on,15,0,6,,,,,,,,5,,,41,64
298560,note_on,15,0,5,,,,,,,,4,,,41,64
298560,note_on,15,0,2,,,,,,,,1,,,72,64
298785,note_on,225,0,2,,,,,,,,1,,,72,0
298800,note_on,275,0,1,,,,,,,,0,,,81,106
298800,note_on,15,0,2,,,,,,,,1,,,72,64
298800,note_on,0,0,1,,,,,,,,0,,,72,106
299005,note_on,445,0,5,,,,,,,,4,,,41,0
299005,note_on,445,0,6,,,,,,,,5,,,41,0
299025,note_on,0,0,1,,,,,,,,0,,,81,0
299025,note_on,225,0,1,,,,,,,,0,,,72,0
299025,note_on,225,0,2,,,,,,,,1,,,72,0
299040,note_on,0,0,1,,,,,,,,0,,,70,106
299040,note_on,15,0,1,,,,,,,,0,,,79,106
299040,note_on,15,0,2,,,,,,,,1,,,72,64
299265,note_on,0,0,1,,,,,,,,0,,,79,0
299265,note_on,225,0,1,,,,,,,,0,,,70,0
299280,note_on,0,0,1,,,,,,,,0,,,69,106
299280,note_on,15,0,1,,,,,,,,0,,,77,106
299485,note_on,445,0,2,,,,,,,,1,,,72,0
299505,note_on,0,0,1,,,,,,,,0,,,77,0
299505,note_on,225,0,1,,,,,,,,0,,,69,0
299520,note_on,15,0,1,,,,,,,,0,,,76,106
299520,note_on,0,0,1,,,,,,,,0,,,67,106
299745,note_on,0,0,1,,,,,,,,0,,,76,0
299745,note_on,225,0,1,,,,,,,,0,,,67,0
299760,note_on,15,0,1,,,,,,,,0,,,74,106
299760,note_on,0,0,1,,,,,,,,0,,,65,106
299985,note_on,225,0,1,,,,,,,,0,,,65,0
299985,note_on,0,0,1,,,,,,,,0,,,74,0
300000,note_on,15,0,1,,,,,,,,0,,,72,106
300000,note_on,0,0,1,,,,,,,,0,,,64,106
300225,note_on,225,0,1,,,,,,,,0,,,64,0
300225,note_on,0,0,1,,,,,,,,0,,,72,0
300240,note_on,15,0,1,,,,,,,,0,,,70,106
300240,note_on,0,0,1,,,,,,,,0,,,62,106
300465,note_on,225,0,1,,,,,,,,0,,,62,0
300465,note_on,0,0,1,,,,,,,,0,,,70,0
300480,note_on,15,0,1,,,,,,,,0,,,69,106
300480,note_on,0,0,1,,,,,,,,0,,,60,106
300705,note_on,225,0,1,,,,,,,,0,,,60,0
300705,note_on,0,0,1,,,,,,,,0,,,69,0
300720,note_on,15,0,1,,,,,,,,0,,,67,106
300720,note_on,0,0,1,,,,,,,,0,,,58,106
300945,note_on,225,0,1,,,,,,,,0,,,58,0
300945,note_on,0,0,1,,,,,,,,0,,,67,0
300960,note_on,15,0,1,,,,,,,,0,,,65,106
300960,note_on,0,0,1,,,,,,,,0,,,57,106
301200,note_on,2195,0,6,,,,,,,,5,,,53,64
301200,note_on,2195,0,5,,,,,,,,4,,,53,64
301405,note_on,445,0,1,,,,,,,,0,,,57,0
301405,note_on,0,0,1,,,,,,,,0,,,65,0
301425,note_on,225,0,5,,,,,,,,4,,,53,0
301425,note_on,225,0,6,,,,,,,,5,,,53,0
301440,note_on,15,0,5,,,,,,,,4,,,57,64
301440,note_on,15,0,6,,,,,,,,5,,,57,64
301665,note_on,225,0,6,,,,,,,,5,,,57,0
301665,note_on,225,0,5,,,,,,,,4,,,57,0
301680,note_on,15,0,6,,,,,,,,5,,,48,64
301680,note_on,0,0,1,,,,,,,,0,,,72,106
301680,note_on,275,0,1,,,,,,,,0,,,79,106
301680,note_on,15,0,5,,,,,,,,4,,,48,64
301905,note_on,225,0,6,,,,,,,,5,,,48,0
301905,note_on,225,0,1,,,,,,,,0,,,72,0
301905,note_on,225,0,5,,,,,,,,4,,,48,0
301905,note_on,0,0,1,,,,,,,,0,,,79,0
301920,note_on,0,0,1,,,,,,,,0,,,69,106
301920,note_on,15,0,1,,,,,,,,0,,,77,106
301920,note_on,15,0,5,,,,,,,,4,,,53,64
301920,note_on,15,0,6,,,,,,,,5,,,53,64
302145,note_on,225,0,1,,,,,,,,0,,,69,0
302145,note_on,0,0,1,,,,,,,,0,,,77,0
302145,note_on,225,0,5,,,,,,,,4,,,53,0
302145,note_on,225,0,6,,,,,,,,5,,,53,0
302160,note_on,15,0,5,,,,,,,,4,,,48,64
302160,note_on,15,0,1,,,,,,,,0,,,79,106
302160,note_on,0,0,1,,,,,,,,0,,,72,106
302160,note_on,15,0,6,,,,,,,,5,,,48,64
302385,note_on,225,0,1,,,,,,,,0,,,72,0
302385,note_on,0,0,1,,,,,,,,0,,,79,0
302385,note_on,225,0,6,,,,,,,,5,,,48,0
302385,note_on,225,0,5,,,,,,,,4,,,48,0
302400,note_on,15,0,1,,,,,,,,0,,,81,106
302400,note_on,15,0,6,,,,,,,,5,,,53,64
302400,note_on,0,0,1,,,,,,,,0,,,72,106
302400,note_on,15,0,5,,,,,,,,4,,,53,64
302625,note_on,225,0,6,,,,,,,,5,,,53,0
302625,note_on,225,0,5,,,,,,,,4,,,53,0
302625,note_on,225,0,1,,,,,,,,0,,,72,0
302625,note_on,0,0,1,,,,,,,,0,,,81,0
302640,note_on,15,0,6,,,,,,,,5,,,48,64
302640,note_on,15,0,1,,,,,,,,0,,,79,106
302640,note_on,0,0,1,,,,,,,,0,,,72,106
302640,note_on,15,0,5,,,,,,,,4,,,48,64
302865,note_on,0,0,1,,,,,,,,0,,,79,0
302865,note_on,225,0,6,,,,,,,,5,,,48,0
302865,note_on,225,0,5,,,,,,,,4,,,48,0
302865,note_on,225,0,1,,,,,,,,0,,,72,0
302880,note_on,15,0,5,,,,,,,,4,,,53,64
302880,note_on,0,0,1,,,,,,,,0,,,69,106
302880,note_on,15,0,1,,,,,,,,0,,,77,106
302880,note_on,15,0,6,,,,,,,,5,,,53,64
303105,note_on,0,0,1,,,,,,,,0,,,77,0
303105,note_on,225,0,6,,,,,,,,5,,,53,0
303105,note_on,225,0,1,,,,,,,,0,,,69,0
303105,note_on,225,0,5,,,,,,,,4,,,53,0
303120,note_on,15,0,6,,,,,,,,5,,,48,64
303120,note_on,15,0,5,,,,,,,,4,,,48,64
303120,note_on,0,0,1,,,,,,,,0,,,72,106
303120,note_on,15,0,1,,,,,,,,0,,,79,106
303345,note_on,225,0,5,,,,,,,,4,,,48,0
303345,note_on,225,0,6,,,,,,,,5,,,48,0
303345,note_on,0,0,1,,,,,,,,0,,,79,0
303345,note_on,225,0,1,,,,,,,,0,,,72,0
303360,note_on,15,0,6,,,,,,,,5,,,53,64
303360,note_on,15,0,5,,,,,,,,4,,,53,64
303360,note_on,15,0,1,,,,,,,,0,,,77,106
303360,note_on,0,0,1,,,,,,,,0,,,69,106
303585,note_on,225,0,5,,,,,,,,4,,,53,0
303585,note_on,225,0,1,,,,,,,,0,,,69,0
303585,note_on,0,0,1,,,,,,,,0,,,77,0
303585,note_on,225,0,6,,,,,,,,5,,,53,0
303600,note_on,0,0,1,,,,,,,,0,,,72,106
303600,note_on,15,0,6,,,,,,,,5,,,48,64
303600,note_on,15,0,1,,,,,,,,0,,,79,106
303600,note_on,15,0,5,,,,,,,,4,,,48,64
303825,note_on,225,0,1,,,,,,,,0,,,72,0
303825,note_on,0,0,1,,,,,,,,0,,,79,0
303825,note_on,225,0,6,,,,,,,,5,,,48,0
303825,note_on,225,0,5,,,,,,,,4,,,48,0
303840,note_on,15,0,1,,,,,,,,0,,,81,106
303840,note_on,0,0,1,,,,,,,,0,,,72,106
303840,note_on,15,0,5,,,,,,,,4,,,53,64
303840,note_on,15,0,6,,,,,,,,5,,,53,64
304065,note_on,225,0,5,,,,,,,,4,,,53,0
304065,note_on,225,0,1,,,,,,,,0,,,72,0
304065,note_on,0,0,1,,,,,,,,0,,,81,0
304065,note_on,225,0,6,,,,,,,,5,,,53,0
304080,note_on,0,0,1,,,,,,,,0,,,72,106
304080,note_on,15,0,6,,,,,,,,5,,,48,64
304080,note_on,15,0,5,,,,,,,,4,,,48,64
304080,note_on,15,0,1,,,,,,,,0,,,79,106
304305,note_on,225,0,6,,,,,,,,5,,,48,0
304305,note_on,225,0,5,,,,,,,,4,,,48,0
304305,note_on,0,0,1,,,,,,,,0,,,79,0
304305,note_on,225,0,1,,,,,,,,0,,,72,0
304320,note_on,15,0,6,,,,,,,,5,,,53,64
304320,note_on,0,0,1,,,,,,,,0,,,69,106
304320,note_on,15,0,1,,,,,,,,0,,,77,106
304320,note_on,15,0,5,,,,,,,,4,,,53,64
304545,note_on,225,0,6,,,,,,,,5,,,53,0
304545,note_on,225,0,5,,,,,,,,4,,,53,0
304545,note_on,225,0,1,,,,,,,,0,,,69,0
304545,note_on,0,0,1,,,,,,,,0,,,77,0
304560,note_on,15,0,5,,,,,,,,4,,,48,64
304560,note_on,15,0,6,,,,,,,,5,,,48,64
304560,note_on,15,0,1,,,,,,,,0,,,79,106
304560,note_on,0,0,1,,,,,,,,0,,,72,106
304785,note_on,0,0,1,,,,,,,,0,,,79,0
304785,note_on,225,0,6,,,,,,,,5,,,48,0
304785,note_on,225,0,5,,,,,,,,4,,,48,0
304785,note_on,225,0,1,,,,,,,,0,,,72,0
304800,note_on,15,0,1,,,,,,,,0,,,77,106
304800,note_on,15,0,5,,,,,,,,4,,,53,64
304800,note_on,15,0,6,,,,,,,,5,,,53,64
304800,note_on,0,0,1,,,,,,,,0,,,69,106
305025,note_on,225,0,5,,,,,,,,4,,,53,0
305025,note_on,225,0,6,,,,,,,,5,,,53,0
305025,note_on,0,0,1,,,,,,,,0,,,77,0
305025,note_on,225,0,1,,,,,,,,0,,,69,0
305040,note_on,0,0,1,,,,,,,,0,,,72,106
305040,note_on,15,0,1,,,,,,,,0,,,79,106
305040,note_on,15,0,5,,,,,,,,4,,,48,64
305040,note_on,15,0,6,,,,,,,,5,,,48,64
305265,note_on,225,0,6,,,,,,,,5,,,48,0
305265,note_on,225,0,5,,,,,,,,4,,,48,0
305265,note_on,225,0,1,,,,,,,,0,,,72,0
305265,note_on,0,0,1,,,,,,,,0,,,79,0
305280,note_on,15,0,6,,,,,,,,5,,,53,64
305280,note_on,0,0,1,,,,,,,,0,,,72,106
305280,note_on,15,0,1,,,,,,,,0,,,81,106
305280,note_on,15,0,5,,,,,,,,4,,,53,64
305505,note_on,225,0,5,,,,,,,,4,,,53,0
305505,note_on,225,0,1,,,,,,,,0,,,72,0
305505,note_on,0,0,1,,,,,,,,0,,,81,0
305505,note_on,225,0,6,,,,,,,,5,,,53,0
305520,note_on,15,0,6,,,,,,,,5,,,48,64
305520,note_on,15,0,5,,,,,,,,4,,,48,64
305520,note_on,15,0,1,,,,,,,,0,,,79,106
305520,note_on,0,0,1,,,,,,,,0,,,72,106
305745,note_on,225,0,6,,,,,,,,5,,,48,0
305745,note_on,225,0,5,,,,,,,,4,,,48,0
305745,note_on,0,0,1,,,,,,,,0,,,79,0
305745,note_on,225,0,1,,,,,,,,0,,,72,0
305760,note_on,0,0,1,,,,,,,,0,,,72,106
305760,note_on,15,0,1,,,,,,,,0,,,81,106
305760,note_on,15,0,5,,,,,,,,4,,,60,64
305760,note_on,15,0,6,,,,,,,,5,,,60,64
305820,note_on,0,0,1,,,,,,,,0,,,79,106
305820,note_on,60,0,1,,,,,,,,0,,,81,0
305880,note_on,60,0,1,,,,,,,,0,,,79,0
305880,note_on,0,0,1,,,,,,,,0,,,81,106
305940,note_on,60,0,1,,,,,,,,0,,,81,0
305940,note_on,0,0,1,,,,,,,,0,,,79,106
306000,note_on,60,0,1,,,,,,,,0,,,79,0
306000,note_on,0,0,1,,,,,,,,0,,,81,106
306060,note_on,0,0,1,,,,,,,,0,,,79,106
306060,note_on,60,0,1,,,,,,,,0,,,81,0
306120,note_on,60,0,1,,,,,,,,0,,,79,0
306120,note_on,0,0,1,,,,,,,,0,,,81,106
306180,note_on,60,0,1,,,,,,,,0,,,81,0
306180,note_on,0,0,1,,,,,,,,0,,,79,106
306205,note_on,445,0,6,,,,,,,,5,,,60,0
306205,note_on,445,0,5,,,,,,,,4,,,60,0
306240,note_on,35,0,5,,,,,,,,4,,,48,64
306240,note_on,35,0,6,,,,,,,,5,,,48,64
306465,note_on,285,0,1,,,,,,,,0,,,79,0
306480,note_on,15,0,1,,,,,,,,0,,,77,106
306645,note_on,165,0,1,,,,,,,,0,,,72,0
306685,note_on,445,0,6,,,,,,,,5,,,48,0
306685,note_on,445,0,5,,,,,,,,4,,,48,0
306705,note_on,60,0,1,,,,,,,,0,,,77,0
306720,note_on,0,0,1,,,,,,,,0,,,72,106
306720,note_on,15,0,1,,,,,,,,0,,,77,106
306720,note_on,35,0,6,,,,,,,,5,,,41,64
306720,note_on,35,0,5,,,,,,,,4,,,41,64
306945,note_on,225,0,5,,,,,,,,4,,,41,0
306945,note_on,225,0,6,,,,,,,,5,,,41,0
306960,note_on,15,0,5,,,,,,,,4,,,53,64
306960,note_on,15,0,6,,,,,,,,5,,,53,64
307165,note_on,445,0,1,,,,,,,,0,,,72,0
307165,note_on,0,0,1,,,,,,,,0,,,77,0
307185,note_on,225,0,6,,,,,,,,5,,,53,0
307185,note_on,225,0,5,,,,,,,,4,,,53,0
307200,note_on,15,0,6,,,,,,,,5,,,57,64
307200,note_on,15,0,5,,,,,,,,4,,,57,64
307425,note_on,225,0,5,,,,,,,,4,,,57,0
307425,note_on,225,0,6,,,,,,,,5,,,57,0
307440,note_on,15,0,6,,,,,,,,5,,,48,49
307440,note_on,275,0,1,,,,,,,,0,,,79,64
307440,note_on,0,0,1,,,,,,,,0,,,72,64
307440,note_on,15,0,5,,,,,,,,4,,,48,49
307665,note_on,225,0,5,,,,,,,,4,,,48,0
307665,note_on,225,0,6,,,,,,,,5,,,48,0
307665,note_on,0,0,1,,,,,,,,0,,,79,0
307665,note_on,225,0,1,,,,,,,,0,,,72,0
307680,note_on,0,0,1,,,,,,,,0,,,69,64
307680,note_on,15,0,1,,,,,,,,0,,,77,64
307680,note_on,15,0,6,,,,,,,,5,,,53,49
307680,note_on,15,0,5,,,,,,,,4,,,53,49
307905,note_on,225,0,1,,,,,,,,0,,,69,0
307905,note_on,0,0,1,,,,,,,,0,,,77,0
307905,note_on,225,0,6,,,,,,,,5,,,53,0
307905,note_on,225,0,5,,,,,,,,4,,,53,0
307920,note_on,0,0,1,,,,,,,,0,,,72,64
307920,note_on,15,0,1,,,,,,,,0,,,79,64
307920,note_on,15,0,5,,,,,,,,4,,,48,49
307920,note_on,15,0,6,,,,,,,,5,,,48,49
308145,note_on,0,0,1,,,,,,,,0,,,79,0
308145,note_on,225,0,1,,,,,,,,0,,,72,0
308145,note_on,225,0,5,,,,,,,,4,,,48,0
308145,note_on,225,0,6,,,,,,,,5,,,48,0
308160,note_on,15,0,5,,,,,,,,4,,,53,49
308160,note_on,15,0,1,,,,,,,,0,,,81,64
308160,note_on,15,0,6,,,,,,,,5,,,53,49
308160,note_on,0,0,1,,,,,,,,0,,,72,64
308385,note_on,225,0,1,,,,,,,,0,,,72,0
308385,note_on,225,0,5,,,,,,,,4,,,53,0
308385,note_on,0,0,1,,,,,,,,0,,,81,0
308385,note_on,225,0,6,,,,,,,,5,,,53,0
308400,note_on,15,0,5,,,,,,,,4,,,48,49
308400,note_on,15,0,6,,,,,,,,5,,,48,49
308400,note_on,0,0,1,,,,,,,,0,,,72,64
308400,note_on,15,0,1,,,,,,,,0,,,79,64
308625,note_on,225,0,6,,,,,,,,5,,,48,0
308625,note_on,225,0,5,,,,,,,,4,,,48,0
308625,note_on,0,0,1,,,,,,,,0,,,79,0
308625,note_on,225,0,1,,,,,,,,0,,,72,0
308640,note_on,15,0,5,,,,,,,,4,,,53,49
308640,note_on,0,0,1,,,,,,,,0,,,69,64
308640,note_on,15,0,1,,,,,,,,0,,,77,64
308640,note_on,15,0,6,,,,,,,,5,,,53,49
308865,note_on,225,0,1,,,,,,,,0,,,69,0
308865,note_on,0,0,1,,,,,,,,0,,,77,0
308865,note_on,225,0,6,,,,,,,,5,,,53,0
308865,note_on,225,0,5,,,,,,,,4,,,53,0
308880,note_on,15,0,1,,,,,,,,0,,,79,64
308880,note_on,0,0,1,,,,,,,,0,,,72,64
308880,note_on,15,0,5,,,,,,,,4,,,48,49
308880,note_on,15,0,6,,,,,,,,5,,,48,49
309105,note_on,225,0,6,,,,,,,,5,,,48,0
309105,note_on,225,0,1,,,,,,,,0,,,72,0
309105,note_on,0,0,1,,,,,,,,0,,,79,0
309105,note_on,225,0,5,,,,,,,,4,,,48,0
309120,note_on,15,0,1,,,,,,,,0,,,77,64
309120,note_on,15,0,5,,,,,,,,4,,,53,49
309120,note_on,15,0,6,,,,,,,,5,,,53,49
309120,note_on,0,0,1,,,,,,,,0,,,69,64
309345,note_on,0,0,1,,,,,,,,0,,,77,0
309345,note_on,225,0,5,,,,,,,,4,,,53,0
309345,note_on,225,0,6,,,,,,,,5,,,53,0
309345,note_on,225,0,1,,,,,,,,0,,,69,0
309360,note_on,15,0,5,,,,,,,,4,,,48,49
309360,note_on,15,0,6,,,,,,,,5,,,48,49
309360,note_on,0,0,1,,,,,,,,0,,,72,64
309360,note_on,15,0,1,,,,,,,,0,,,79,64
309585,note_on,225,0,5,,,,,,,,4,,,48,0
309585,note_on,225,0,6,,,,,,,,5,,,48,0
309585,note_on,0,0,1,,,,,,,,0,,,79,0
309585,note_on,225,0,1,,,,,,,,0,,,72,0
309600,note_on,15,0,6,,,,,,,,5,,,53,49
309600,note_on,15,0,5,,,,,,,,4,,,53,49
309600,note_on,0,0,1,,,,,,,,0,,,72,64
309600,note_on,15,0,1,,,,,,,,0,,,81,64
309825,note_on,225,0,6,,,,,,,,5,,,53,0
309825,note_on,225,0,5,,,,,,,,4,,,53,0
309825,note_on,225,0,1,,,,,,,,0,,,72,0
309825,note_on,0,0,1,,,,,,,,0,,,81,0
309840,note_on,15,0,6,,,,,,,,5,,,48,49
309840,note_on,15,0,5,,,,,,,,4,,,48,49
309840,note_on,15,0,1,,,,,,,,0,,,79,64
309840,note_on,0,0,1,,,,,,,,0,,,72,64
310065,note_on,225,0,5,,,,,,,,4,,,48,0
310065,note_on,0,0,1,,,,,,,,0,,,79,0
310065,note_on,225,0,1,,,,,,,,0,,,72,0
310065,note_on,225,0,6,,,,,,,,5,,,48,0
310080,note_on,0,0,1,,,,,,,,0,,,69,64
310080,note_on,15,0,1,,,,,,,,0,,,77,64
310080,note_on,15,0,5,,,,,,,,4,,,53,49
310080,note_on,15,0,6,,,,,,,,5,,,53,49
310305,note_on,225,0,6,,,,,,,,5,,,53,0
310305,note_on,225,0,5,,,,,,,,4,,,53,0
310305,note_on,0,0,1,,,,,,,,0,,,77,0
310305,note_on,225,0,1,,,,,,,,0,,,69,0
310320,note_on,15,0,6,,,,,,,,5,,,48,49
310320,note_on,15,0,5,,,,,,,,4,,,48,49
310320,note_on,0,0,1,,,,,,,,0,,,72,64
310320,note_on,15,0,1,,,,,,,,0,,,79,64
310545,note_on,225,0,1,,,,,,,,0,,,72,0
310545,note_on,0,0,1,,,,,,,,0,,,79,0
310545,note_on,225,0,6,,,,,,,,5,,,48,0
310545,note_on,225,0,5,,,,,,,,4,,,48,0
310560,note_on,15,0,1,,,,,,,,0,,,77,64
310560,note_on,0,0,1,,,,,,,,0,,,69,64
310560,note_on,15,0,6,,,,,,,,5,,,53,49
310560,note_on,15,0,5,,,,,,,,4,,,53,49
310785,note_on,225,0,5,,,,,,,,4,,,53,0
310785,note_on,225,0,6,,,,,,,,5,,,53,0
310785,note_on,0,0,1,,,,,,,,0,,,77,0
310785,note_on,225,0,1,,,,,,,,0,,,69,0
310800,note_on,15,0,5,,,,,,,,4,,,48,49
310800,note_on,15,0,6,,,,,,,,5,,,48,49
310800,note_on,0,0,1,,,,,,,,0,,,72,64
310800,note_on,15,0,1,,,,,,,,0,,,79,64
311025,note_on,0,0,1,,,,,,,,0,,,79,0
311025,note_on,225,0,1,,,,,,,,0,,,72,0
311025,note_on,225,0,5,,,,,,,,4,,,48,0
311025,note_on,225,0,6,,,,,,,,5,,,48,0
311040,note_on,0,0,1,,,,,,,,0,,,72,64
311040,note_on,15,0,5,,,,,,,,4,,,53,49
311040,note_on,15,0,6,,,,,,,,5,,,53,49
311040,note_on,15,0,1,,,,,,,,0,,,81,64
311265,note_on,0,0,1,,,,,,,,0,,,81,0
311265,note_on,225,0,1,,,,,,,,0,,,72,0
311265,note_on,225,0,5,,,,,,,,4,,,53,0
311265,note_on,225,0,6,,,,,,,,5,,,53,0
311280,note_on,15,0,1,,,,,,,,0,,,79,64
311280,note_on,0,0,1,,,,,,,,0,,,72,64
311280,note_on,15,0,6,,,,,,,,5,,,48,49
311280,note_on,15,0,5,,,,,,,,4,,,48,49
311505,note_on,0,0,1,,,,,,,,0,,,79,0
311505,note_on,225,0,5,,,,,,,,4,,,48,0
311505,note_on,225,0,1,,,,,,,,0,,,72,0
311505,note_on,225,0,6,,,,,,,,5,,,48,0
311520,note_on,15,0,1,,,,,,,,0,,,81,64
311520,note_on,15,0,5,,,,,,,,4,,,60,49
311520,note_on,15,0,6,,,,,,,,5,,,60,49
311520,note_on,0,0,1,,,,,,,,0,,,72,64
311580,note_on,0,0,1,,,,,,,,0,,,79,64
311580,note_on,60,0,1,,,,,,,,0,,,81,0
311640,note_on,60,0,1,,,,,,,,0,,,79,0
311640,note_on,0,0,1,,,,,,,,0,,,81,64
311700,note_on,60,0,1,,,,,,,,0,,,81,0
311700,note_on,0,0,1,,,,,,,,0,,,79,64
311760,note_on,60,0,1,,,,,,,,0,,,79,0
311760,note_on,0,0,1,,,,,,,,0,,,81,64
311820,note_on,0,0,1,,,,,,,,0,,,79,64
311820,note_on,60,0,1,,,,,,,,0,,,81,0
311880,note_on,0,0,1,,,,,,,,0,,,81,64
311880,note_on,60,0,1,,,,,,,,0,,,79,0
311940,note_on,60,0,1,,,,,,,,0,,,81,0
311940,note_on,0,0,1,,,,,,,,0,,,79,64
311965,note_on,445,0,5,,,,,,,,4,,,60,0
311965,note_on,445,0,6,,,,,,,,5,,,60,0
312000,note_on,35,0,6,,,,,,,,5,,,48,49
312000,note_on,35,0,5,,,,,,,,4,,,48,49
312225,note_on,285,0,1,,,,,,,,0,,,79,0
312240,note_on,15,0,1,,,,,,,,0,,,77,64
312405,note_on,165,0,1,,,,,,,,0,,,72,0
312445,note_on,445,0,6,,,,,,,,5,,,48,0
312445,note_on,445,0,5,,,,,,,,4,,,48,0
312465,note_on,60,0,1,,,,,,,,0,,,77,0
312480,note_on,35,0,6,,,,,,,,5,,,53,85
312480,note_on,36995,0,4,,,,,,,,3,,,69,85
312480,note_on,14435,0,3,,,,,,,,2,,,84,64
312480,note_on,15,0,1,,,,,,,,0,,,77,64
312480,note_on,0,0,1,,,,,,,,0,,,72,64
312480,note_on,12995,0,2,,,,,,,,1,,,81,64
312480,note_on,35,0,5,,,,,,,,4,,,53,85
312705,note_on,225,0,1,,,,,,,,0,,,72,0
312705,note_on,225,0,2,,,,,,,,1,,,81,0
312705,note_on,225,0,3,,,,,,,,2,,,84,0
312720,note_on,15,0,2,,,,,,,,1,,,77,64
312720,note_on,15,0,1,,,,,,,,0,,,77,64
312720,note_on,15,0,3,,,,,,,,2,,,77,64
312835,note_on,115,0,2,,,,,,,,1,,,77,0
312835,note_on,115,0,1,,,,,,,,0,,,77,0
312835,note_on,115,0,3,,,,,,,,2,,,77,0
312840,note_on,5,0,2,,,,,,,,1,,,79,64
312840,note_on,5,0,1,,,,,,,,0,,,79,64
312840,note_on,5,0,3,,,,,,,,2,,,79,64
312925,note_on,445,0,6,,,,,,,,5,,,53,0
312925,note_on,445,0,4,,,,,,,,3,,,69,0
312925,note_on,445,0,5,,,,,,,,4,,,53,0
312925,note_on,85,0,1,,,,,,,,0,,,77,0
312955,note_on,30,0,1,,,,,,,,0,,,79,0
312955,note_on,115,0,3,,,,,,,,2,,,79,0
312955,note_on,115,0,2,,,,,,,,1,,,79,0
312960,note_on,5,0,3,,,,,,,,2,,,81,64
312960,note_on,35,0,5,,,,,,,,4,,,53,85
312960,note_on,5,0,2,,,,,,,,1,,,81,64
312960,note_on,35,0,6,,,,,,,,5,,,53,85
312960,note_on,5,0,1,,,,,,,,0,,,81,64
312960,note_on,35,0,4,,,,,,,,3,,,69,85
313185,note_on,225,0,2,,,,,,,,1,,,81,0
313185,note_on,225,0,1,,,,,,,,0,,,81,0
313185,note_on,225,0,3,,,,,,,,2,,,81,0
313200,note_on,15,0,2,,,,,,,,1,,,79,64
313200,note_on,15,0,3,,,,,,,,2,,,79,64
313200,note_on,15,0,1,,,,,,,,0,,,79,64
313405,note_on,445,0,4,,,,,,,,3,,,69,0
313405,note_on,445,0,6,,,,,,,,5,,,53,0
313405,note_on,445,0,5,,,,,,,,4,,,53,0
313425,note_on,225,0,1,,,,,,,,0,,,79,0
313425,note_on,225,0,3,,,,,,,,2,,,79,0
313425,note_on,225,0,2,,,,,,,,1,,,79,0
313440,note_on,15,0,3,,,,,,,,2,,,81,64
313440,note_on,35,0,5,,,,,,,,4,,,53,85
313440,note_on,15,0,2,,,,,,,,1,,,81,64
313440,note_on,15,0,1,,,,,,,,0,,,81,64
313440,note_on,35,0,4,,,,,,,,3,,,69,85
313440,note_on,35,0,6,,,,,,,,5,,,53,85
313665,note_on,225,0,3,,,,,,,,2,,,81,0
313665,note_on,225,0,2,,,,,,,,1,,,81,0
313665,note_on,225,0,1,,,,,,,,0,,,81,0
313680,note_on,15,0,2,,,,,,,,1,,,77,64
313680,note_on,15,0,3,,,,,,,,2,,,77,64
313680,note_on,15,0,1,,,,,,,,0,,,77,64
313885,note_on,445,0,5,,,,,,,,4,,,53,0
313885,note_on,445,0,4,,,,,,,,3,,,69,0
313885,note_on,445,0,6,,,,,,,,5,,,53,0
313905,note_on,225,0,2,,,,,,,,1,,,77,0
313905,note_on,225,0,3,,,,,,,,2,,,77,0
313905,note_on,225,0,1,,,,,,,,0,,,77,0
313920,note_on,35,0,6,,,,,,,,5,,,52,85
313920,note_on,15,0,3,,,,,,,,2,,,84,64
313920,note_on,15,0,2,,,,,,,,1,,,84,64
313920,note_on,35,0,5,,,,,,,,4,,,52,85
313920,note_on,15,0,1,,,,,,,,0,,,84,64
313920,note_on,35,0,4,,,,,,,,3,,,67,85
314145,note_on,225,0,2,,,,,,,,1,,,84,0
314145,note_on,225,0,1,,,,,,,,0,,,84,0
314145,note_on,225,0,3,,,,,,,,2,,,84,0
314160,note_on,15,0,1,,,,,,,,0,,,72,64
314160,note_on,15,0,2,,,,,,,,1,,,72,64
314160,note_on,15,0,3,,,,,,,,2,,,72,64
314275,note_on,115,0,1,,,,,,,,0,,,72,0
314275,note_on,115,0,3,,,,,,,,2,,,72,0
314275,note_on,115,0,2,,,,,,,,1,,,72,0
314280,note_on,5,0,3,,,,,,,,2,,,74,64
314280,note_on,5,0,1,,,,,,,,0,,,74,64
314280,note_on,5,0,2,,,,,,,,1,,,74,64
314365,note_on,445,0,6,,,,,,,,5,,,52,0
314365,note_on,445,0,4,,,,,,,,3,,,67,0
314365,note_on,445,0,5,,,,,,,,4,,,52,0
314395,note_on,115,0,3,,,,,,,,2,,,74,0
314395,note_on,115,0,1,,,,,,,,0,,,74,0
314395,note_on,115,0,2,,,,,,,,1,,,74,0
314400,note_on,5,0,2,,,,,,,,1,,,76,64
314400,note_on,35,0,5,,,,,,,,4,,,52,85
314400,note_on,35,0,4,,,,,,,,3,,,67,85
314400,note_on,5,0,1,,,,,,,,0,,,76,64
314400,note_on,35,0,6,,,,,,,,5,,,52,85
314400,note_on,5,0,3,,,,,,,,2,,,76,64
314625,note_on,225,0,2,,,,,,,,1,,,76,0
314625,note_on,225,0,1,,,,,,,,0,,,76,0
314625,note_on,225,0,3,,,,,,,,2,,,76,0
314640,note_on,15,0,2,,,,,,,,1,,,74,64
314640,note_on,15,0,3,,,,,,,,2,,,74,64
314640,note_on,15,0,1,,,,,,,,0,,,74,64
314845,note_on,445,0,4,,,,,,,,3,,,67,0
314845,note_on,445,0,6,,,,,,,,5,,,52,0
314845,note_on,445,0,5,,,,,,,,4,,,52,0
314865,note_on,225,0,2,,,,,,,,1,,,74,0
314865,note_on,225,0,1,,,,,,,,0,,,74,0
314865,note_on,225,0,3,,,,,,,,2,,,74,0
314880,note_on,35,0,5,,,,,,,,4,,,52,85
314880,note_on,15,0,2,,,,,,,,1,,,76,64
314880,note_on,35,0,6,,,,,,,,5,,,52,85
314880,note_on,15,0,3,,,,,,,,2,,,76,64
314880,note_on,15,0,1,,,,,,,,0,,,76,64
314880,note_on,35,0,4,,,,,,,,3,,,67,85
315105,note_on,225,0,1,,,,,,,,0,,,76,0
315105,note_on,225,0,2,,,,,,,,1,,,76,0
315105,note_on,225,0,3,,,,,,,,2,,,76,0
315120,note_on,15,0,1,,,,,,,,0,,,72,64
315120,note_on,15,0,3,,,,,,,,2,,,72,64
315120,note_on,15,0,2,,,,,,,,1,,,72,64
315325,note_on,445,0,6,,,,,,,,5,,,52,0
315325,note_on,445,0,5,,,,,,,,4,,,52,0
315325,note_on,445,0,4,,,,,,,,3,,,67,0
315345,note_on,225,0,2,,,,,,,,1,,,72,0
315345,note_on,225,0,1,,,,,,,,0,,,72,0
315345,note_on,225,0,3,,,,,,,,2,,,72,0
315360,note_on,35,0,4,,,,,,,,3,,,65,85
315360,note_on,35,0,6,,,,,,,,5,,,50,85
315360,note_on,15,0,2,,,,,,,,1,,,77,64
315360,note_on,15,0,3,,,,,,,,2,,,77,64
315360,note_on,15,0,1,,,,,,,,0,,,77,64
315360,note_on,35,0,5,,,,,,,,4,,,50,85
315585,note_on,225,0,3,,,,,,,,2,,,77,0
315585,note_on,225,0,1,,,,,,,,0,,,77,0
315585,note_on,225,0,2,,,,,,,,1,,,77,0
315600,note_on,15,0,3,,,,,,,,2,,,65,64
315600,note_on,15,0,1,,,,,,,,0,,,65,64
315600,note_on,15,0,2,,,,,,,,1,,,65,64
315715,note_on,115,0,3,,,,,,,,2,,,65,0
315715,note_on,115,0,1,,,,,,,,0,,,65,0
315715,note_on,115,0,2,,,,,,,,1,,,65,0
315720,note_on,5,0,2,,,,,,,,1,,,67,64
315720,note_on,5,0,1,,,,,,,,0,,,67,64
315720,note_on,5,0,3,,,,,,,,2,,,67,64
315805,note_on,445,0,4,,,,,,,,3,,,65,0
315805,note_on,445,0,6,,,,,,,,5,,,50,0
315805,note_on,445,0,5,,,,,,,,4,,,50,0
315835,note_on,115,0,3,,,,,,,,2,,,67,0
315835,note_on,115,0,1,,,,,,,,0,,,67,0
315835,note_on,115,0,2,,,,,,,,1,,,67,0
315840,note_on,35,0,5,,,,,,,,4,,,50,85
315840,note_on,5,0,3,,,,,,,,2,,,69,64
315840,note_on,35,0,4,,,,,,,,3,,,65,85
315840,note_on,35,0,6,,,,,,,,5,,,50,85
315840,note_on,5,0,1,,,,,,,,0,,,69,64
315840,note_on,5,0,2,,,,,,,,1,,,69,64
316065,note_on,225,0,1,,,,,,,,0,,,69,0
316065,note_on,225,0,3,,,,,,,,2,,,69,0
316065,note_on,225,0,2,,,,,,,,1,,,69,0
316080,note_on,15,0,3,,,,,,,,2,,,67,64
316080,note_on,15,0,2,,,,,,,,1,,,67,64
316080,note_on,15,0,1,,,,,,,,0,,,67,64
316285,note_on,445,0,5,,,,,,,,4,,,50,0
316285,note_on,445,0,6,,,,,,,,5,,,50,0
316285,note_on,445,0,4,,,,,,,,3,,,65,0
316305,note_on,225,0,3,,,,,,,,2,,,67,0
316305,note_on,225,0,2,,,,,,,,1,,,67,0
316305,note_on,225,0,1,,,,,,,,0,,,67,0
316320,note_on,15,0,1,,,,,,,,0,,,69,64
316320,note_on,35,0,4,,,,,,,,3,,,65,85
316320,note_on,15,0,2,,,,,,,,1,,,69,64
316320,note_on,35,0,6,,,,,,,,5,,,50,85
316320,note_on,15,0,3,,,,,,,,2,,,69,64
316320,note_on,35,0,5,,,,,,,,4,,,50,85
316545,note_on,225,0,3,,,,,,,,2,,,69,0
316545,note_on,225,0,1,,,,,,,,0,,,69,0
316545,note_on,225,0,2,,,,,,,,1,,,69,0
316560,note_on,15,0,2,,,,,,,,1,,,65,64
316560,note_on,15,0,1,,,,,,,,0,,,65,64
316560,note_on,15,0,3,,,,,,,,2,,,65,64
316765,note_on,445,0,4,,,,,,,,3,,,65,0
316765,note_on,445,0,6,,,,,,,,5,,,50,0
316765,note_on,445,0,5,,,,,,,,4,,,50,0
316785,note_on,225,0,1,,,,,,,,0,,,65,0
316785,note_on,225,0,2,,,,,,,,1,,,65,0
316785,note_on,225,0,3,,,,,,,,2,,,65,0
316800,note_on,35,0,5,,,,,,,,4,,,48,85
316800,note_on,35,0,6,,,,,,,,5,,,48,85
316800,note_on,15,0,1,,,,,,,,0,,,72,64
316800,note_on,35,0,4,,,,,,,,3,,,64,85
316800,note_on,15,0,3,,,,,,,,2,,,72,64
316800,note_on,15,0,2,,,,,,,,1,,,72,64
317025,note_on,225,0,1,,,,,,,,0,,,72,0
317025,note_on,225,0,2,,,,,,,,1,,,72,0
317025,note_on,225,0,3,,,,,,,,2,,,72,0
317040,note_on,15,0,3,,,,,,,,2,,,76,64
317040,note_on,15,0,1,,,,,,,,0,,,76,64
317040,note_on,15,0,2,,,,,,,,1,,,76,64
317155,note_on,115,0,2,,,,,,,,1,,,76,0
317155,note_on,115,0,3,,,,,,,,2,,,76,0
317155,note_on,115,0,1,,,,,,,,0,,,76,0
317160,note_on,5,0,1,,,,,,,,0,,,77,64
317160,note_on,5,0,3,,,,,,,,2,,,77,64
317160,note_on,5,0,2,,,,,,,,1,,,77,64
317245,note_on,445,0,5,,,,,,,,4,,,48,0
317245,note_on,445,0,6,,,,,,,,5,,,48,0
317245,note_on,445,0,4,,,,,,,,3,,,64,0
317275,note_on,115,0,1,,,,,,,,0,,,77,0
317275,note_on,115,0,2,,,,,,,,1,,,77,0
317275,note_on,115,0,3,,,,,,,,2,,,77,0
317280,note_on,5,0,1,,,,,,,,0,,,79,64
317280,note_on,35,0,6,,,,,,,,5,,,48,85
317280,note_on,5,0,2,,,,,,,,1,,,79,64
317280,note_on,35,0,5,,,,,,,,4,,,48,85
317280,note_on,35,0,4,,,,,,,,3,,,64,85
317280,note_on,5,0,3,,,,,,,,2,,,79,64
317505,note_on,225,0,1,,,,,,,,0,,,79,0
317505,note_on,225,0,2,,,,,,,,1,,,79,0
317505,note_on,225,0,3,,,,,,,,2,,,79,0
317520,note_on,15,0,2,,,,,,,,1,,,81,64
317520,note_on,15,0,3,,,,,,,,2,,,81,64
317520,note_on,15,0,1,,,,,,,,0,,,81,64
317725,note_on,445,0,6,,,,,,,,5,,,48,0
317725,note_on,445,0,5,,,,,,,,4,,,48,0
317725,note_on,445,0,4,,,,,,,,3,,,64,0
317745,note_on,225,0,2,,,,,,,,1,,,81,0
317745,note_on,225,0,3,,,,,,,,2,,,81,0
317745,note_on,225,0,1,,,,,,,,0,,,81,0
317760,note_on,15,0,1,,,,,,,,0,,,82,64
317760,note_on,35,0,6,,,,,,,,5,,,48,85
317760,note_on,15,0,2,,,,,,,,1,,,82,64
317760,note_on,15,0,3,,,,,,,,2,,,82,64
317760,note_on,35,0,5,,,,,,,,4,,,48,85
317760,note_on,35,0,4,,,,,,,,3,,,64,85
317985,note_on,225,0,1,,,,,,,,0,,,82,0
317985,note_on,225,0,2,,,,,,,,1,,,82,0
317985,note_on,225,0,3,,,,,,,,2,,,82,0
318000,note_on,15,0,2,,,,,,,,1,,,84,64
318000,note_on,15,0,1,,,,,,,,0,,,84,64
318000,note_on,15,0,3,,,,,,,,2,,,84,64
318205,note_on,445,0,5,,,,,,,,4,,,48,0
318205,note_on,445,0,4,,,,,,,,3,,,64,0
318205,note_on,445,0,6,,,,,,,,5,,,48,0
318225,note_on,225,0,2,,,,,,,,1,,,84,0
318225,note_on,225,0,1,,,,,,,,0,,,84,0
318225,note_on,225,0,3,,,,,,,,2,,,84,0
318240,note_on,15,0,1,,,,,,,,0,,,81,64
318240,note_on,35,0,5,,,,,,,,4,,,41,85
318240,note_on,15,0,2,,,,,,,,1,,,81,64
318240,note_on,35,0,6,,,,,,,,5,,,41,85
318240,note_on,15,0,3,,,,,,,,2,,,81,64
318240,note_on,35,0,4,,,,,,,,3,,,60,85
318465,note_on,225,0,6,,,,,,,,5,,,41,0
318465,note_on,225,0,5,,,,,,,,4,,,41,0
318465,note_on,225,0,4,,,,,,,,3,,,60,0
318465,note_on,225,0,2,,,,,,,,1,,,81,0
318465,note_on,225,0,1,,,,,,,,0,,,81,0
318465,note_on,225,0,3,,,,,,,,2,,,81,0
318480,note_on,15,0,3,,,,,,,,2,,,65,64
318480,note_on,15,0,5,,,,,,,,4,,,53,85
318480,note_on,15,0,6,,,,,,,,5,,,53,85
318480,note_on,15,0,4,,,,,,,,3,,,65,85
318480,note_on,15,0,2,,,,,,,,1,,,65,64
318480,note_on,15,0,1,,,,,,,,0,,,65,64
318595,note_on,115,0,2,,,,,,,,1,,,65,0
318595,note_on,115,0,5,,,,,,,,4,,,53,0
318595,note_on,115,0,1,,,,,,,,0,,,65,0
318595,note_on,115,0,6,,,,,,,,5,,,53,0
318595,note_on,115,0,3,,,,,,,,2,,,65,0
318595,note_on,115,0,4,,,,,,,,3,,,65,0
318600,note_on,5,0,6,,,,,,,,5,,,55,85
318600,note_on,5,0,5,,,,,,,,4,,,55,85
318600,note_on,5,0,3,,,,,,,,2,,,67,64
318600,note_on,5,0,4,,,,,,,,3,,,67,85
318600,note_on,5,0,2,,,,,,,,1,,,67,64
318600,note_on,5,0,1,,,,,,,,0,,,67,64
318715,note_on,115,0,3,,,,,,,,2,,,67,0
318715,note_on,115,0,2,,,,,,,,1,,,67,0
318715,note_on,115,0,1,,,,,,,,0,,,67,0
318715,note_on,115,0,5,,,,,,,,4,,,55,0
318715,note_on,115,0,4,,,,,,,,3,,,67,0
318715,note_on,115,0,6,,,,,,,,5,,,55,0
318720,note_on,5,0,1,,,,,,,,0,,,69,64
318720,note_on,5,0,4,,,,,,,,3,,,69,85
318720,note_on,5,0,3,,,,,,,,2,,,69,64
318720,note_on,5,0,6,,,,,,,,5,,,57,85
318720,note_on,5,0,2,,,,,,,,1,,,69,64
318720,note_on,5,0,5,,,,,,,,4,,,57,85
318945,note_on,225,0,1,,,,,,,,0,,,69,0
318945,note_on,225,0,2,,,,,,,,1,,,69,0
318945,note_on,225,0,4,,,,,,,,3,,,69,0
318945,note_on,225,0,6,,,,,,,,5,,,57,0
318945,note_on,225,0,3,,,,,,,,2,,,69,0
318945,note_on,225,0,5,,,,,,,,4,,,57,0
318960,note_on,15,0,4,,,,,,,,3,,,67,85
318960,note_on,15,0,1,,,,,,,,0,,,67,64
318960,note_on,15,0,3,,,,,,,,2,,,67,64
318960,note_on,15,0,2,,,,,,,,1,,,67,64
318960,note_on,15,0,6,,,,,,,,5,,,55,85
318960,note_on,15,0,5,,,,,,,,4,,,55,85
319185,note_on,225,0,4,,,,,,,,3,,,67,0
319185,note_on,225,0,6,,,,,,,,5,,,55,0
319185,note_on,225,0,5,,,,,,,,4,,,55,0
319185,note_on,225,0,3,,,,,,,,2,,,67,0
319185,note_on,225,0,2,,,,,,,,1,,,67,0
319185,note_on,225,0,1,,,,,,,,0,,,67,0
319200,note_on,15,0,5,,,,,,,,4,,,57,85
319200,note_on,15,0,2,,,,,,,,1,,,69,64
319200,note_on,15,0,4,,,,,,,,3,,,69,85
319200,note_on,15,0,3,,,,,,,,2,,,69,64
319200,note_on,15,0,6,,,,,,,,5,,,57,85
319200,note_on,15,0,1,,,,,,,,0,,,69,64
319425,note_on,225,0,6,,,,,,,,5,,,57,0
319425,note_on,225,0,5,,,,,,,,4,,,57,0
319425,note_on,225,0,2,,,,,,,,1,,,69,0
319425,note_on,225,0,4,,,,,,,,3,,,69,0
319425,note_on,225,0,1,,,,,,,,0,,,69,0
319425,note_on,225,0,3,,,,,,,,2,,,69,0
319440,note_on,15,0,5,,,,,,,,4,,,53,85
319440,note_on,15,0,4,,,,,,,,3,,,65,85
319440,note_on,15,0,3,,,,,,,,2,,,65,64
319440,note_on,15,0,6,,,,,,,,5,,,53,85
319440,note_on,15,0,2,,,,,,,,1,,,65,64
319440,note_on,15,0,1,,,,,,,,0,,,65,64
319665,note_on,225,0,3,,,,,,,,2,,,65,0
319665,note_on,225,0,5,,,,,,,,4,,,53,0
319665,note_on,225,0,4,,,,,,,,3,,,65,0
319665,note_on,225,0,2,,,,,,,,1,,,65,0
319665,note_on,225,0,1,,,,,,,,0,,,65,0
319665,note_on,225,0,6,,,,,,,,5,,,53,0
319680,note_on,15,0,1,,,,,,,,0,,,67,64
319680,note_on,15,0,4,,,,,,,,3,,,67,85
319680,note_on,15,0,3,,,,,,,,2,,,67,64
319680,note_on,15,0,5,,,,,,,,4,,,55,85
319680,note_on,15,0,2,,,,,,,,1,,,67,64
319680,note_on,15,0,6,,,,,,,,5,,,55,85
319905,note_on,225,0,5,,,,,,,,4,,,55,0
319905,note_on,225,0,3,,,,,,,,2,,,67,0
319905,note_on,225,0,1,,,,,,,,0,,,67,0
319905,note_on,225,0,6,,,,,,,,5,,,55,0
319905,note_on,225,0,4,,,,,,,,3,,,67,0
319905,note_on,225,0,2,,,,,,,,1,,,67,0
319920,note_on,15,0,5,,,,,,,,4,,,57,85
319920,note_on,15,0,6,,,,,,,,5,,,57,85
319920,note_on,15,0,1,,,,,,,,0,,,69,64
319920,note_on,15,0,2,,,,,,,,1,,,69,64
319920,note_on,15,0,3,,,,,,,,2,,,69,64
319920,note_on,15,0,4,,,,,,,,3,,,69,85
320035,note_on,115,0,2,,,,,,,,1,,,69,0
320035,note_on,115,0,6,,,,,,,,5,,,57,0
320035,note_on,115,0,3,,,,,,,,2,,,69,0
320035,note_on,115,0,1,,,,,,,,0,,,69,0
320035,note_on,115,0,5,,,,,,,,4,,,57,0
320035,note_on,115,0,4,,,,,,,,3,,,69,0
320040,note_on,5,0,6,,,,,,,,5,,,58,85
320040,note_on,5,0,3,,,,,,,,2,,,70,64
320040,note_on,5,0,5,,,,,,,,4,,,58,85
320040,note_on,5,0,1,,,,,,,,0,,,70,64
320040,note_on,5,0,4,,,,,,,,3,,,70,85
320040,note_on,5,0,2,,,,,,,,1,,,70,64
320155,note_on,115,0,6,,,,,,,,5,,,58,0
320155,note_on,115,0,3,,,,,,,,2,,,70,0
320155,note_on,115,0,5,,,,,,,,4,,,58,0
320155,note_on,115,0,4,,,,,,,,3,,,70,0
320155,note_on,115,0,2,,,,,,,,1,,,70,0
320155,note_on,115,0,1,,,,,,,,0,,,70,0
320160,note_on,5,0,1,,,,,,,,0,,,72,64
320160,note_on,5,0,5,,,,,,,,4,,,60,85
320160,note_on,5,0,2,,,,,,,,1,,,72,64
320160,note_on,5,0,4,,,,,,,,3,,,72,85
320160,note_on,5,0,6,,,,,,,,5,,,60,85
320160,note_on,5,0,3,,,,,,,,2,,,72,64
320385,note_on,225,0,5,,,,,,,,4,,,60,0
320385,note_on,225,0,4,,,,,,,,3,,,72,0
320385,note_on,225,0,1,,,,,,,,0,,,72,0
320385,note_on,225,0,2,,,,,,,,1,,,72,0
320385,note_on,225,0,6,,,,,,,,5,,,60,0
320385,note_on,225,0,3,,,,,,,,2,,,72,0
320400,note_on,15,0,2,,,,,,,,1,,,70,64
320400,note_on,15,0,6,,,,,,,,5,,,58,85
320400,note_on,15,0,1,,,,,,,,0,,,70,64
320400,note_on,15,0,3,,,,,,,,2,,,70,64
320400,note_on,15,0,5,,,,,,,,4,,,58,85
320400,note_on,15,0,4,,,,,,,,3,,,70,85
320625,note_on,225,0,5,,,,,,,,4,,,58,0
320625,note_on,225,0,6,,,,,,,,5,,,58,0
320625,note_on,225,0,3,,,,,,,,2,,,70,0
320625,note_on,225,0,2,,,,,,,,1,,,70,0
320625,note_on,225,0,1,,,,,,,,0,,,70,0
320625,note_on,225,0,4,,,,,,,,3,,,70,0
320640,note_on,15,0,1,,,,,,,,0,,,72,64
320640,note_on,15,0,5,,,,,,,,4,,,60,85
320640,note_on,15,0,2,,,,,,,,1,,,72,64
320640,note_on,15,0,4,,,,,,,,3,,,72,85
320640,note_on,15,0,3,,,,,,,,2,,,72,64
320640,note_on,15,0,6,,,,,,,,5,,,60,85
320865,note_on,225,0,4,,,,,,,,3,,,72,0
320865,note_on,225,0,2,,,,,,,,1,,,72,0
320865,note_on,225,0,3,,,,,,,,2,,,72,0
320865,note_on,225,0,1,,,,,,,,0,,,72,0
320865,note_on,225,0,6,,,,,,,,5,,,60,0
320865,note_on,225,0,5,,,,,,,,4,,,60,0
320880,note_on,15,0,3,,,,,,,,2,,,60,64
320880,note_on,15,0,4,,,,,,,,3,,,60,85
320880,note_on,15,0,2,,,,,,,,1,,,60,64
320880,note_on,15,0,5,,,,,,,,4,,,48,85
320880,note_on,15,0,1,,,,,,,,0,,,60,64
320880,note_on,15,0,6,,,,,,,,5,,,48,85
321105,note_on,225,0,4,,,,,,,,3,,,60,0
321105,note_on,225,0,1,,,,,,,,0,,,60,0
321105,note_on,225,0,5,,,,,,,,4,,,48,0
321105,note_on,225,0,6,,,,,,,,5,,,48,0
321105,note_on,225,0,2,,,,,,,,1,,,60,0
321105,note_on,225,0,3,,,,,,,,2,,,60,0
321120,note_on,15,0,3,,,,,,,,2,,,62,64
321120,note_on,15,0,2,,,,,,,,1,,,62,64
321120,note_on,15,0,1,,,,,,,,0,,,62,64
321120,note_on,15,0,6,,,,,,,,5,,,50,85
321120,note_on,15,0,4,,,,,,,,3,,,62,85
321120,note_on,15,0,5,,,,,,,,4,,,50,85
321345,note_on,225,0,1,,,,,,,,0,,,62,0
321345,note_on,225,0,5,,,,,,,,4,,,50,0
321345,note_on,225,0,4,,,,,,,,3,,,62,0
321345,note_on,225,0,3,,,,,,,,2,,,62,0
321345,note_on,225,0,6,,,,,,,,5,,,50,0
321345,note_on,225,0,2,,,,,,,,1,,,62,0
321360,note_on,15,0,4,,,,,,,,3,,,62,85
321360,note_on,15,0,5,,,,,,,,4,,,50,85
321360,note_on,15,0,3,,,,,,,,2,,,62,64
321360,note_on,15,0,1,,,,,,,,0,,,62,64
321360,note_on,15,0,6,,,,,,,,5,,,50,85
321360,note_on,15,0,2,,,,,,,,1,,,62,64
321475,note_on,115,0,5,,,,,,,,4,,,50,0
321475,note_on,115,0,1,,,,,,,,0,,,62,0
321475,note_on,115,0,4,,,,,,,,3,,,62,0
321475,note_on,115,0,2,,,,,,,,1,,,62,0
321475,note_on,115,0,6,,,,,,,,5,,,50,0
321475,note_on,115,0,3,,,,,,,,2,,,62,0
321480,note_on,5,0,4,,,,,,,,3,,,64,85
321480,note_on,5,0,2,,,,,,,,1,,,64,64
321480,note_on,5,0,5,,,,,,,,4,,,52,85
321480,note_on,5,0,6,,,,,,,,5,,,52,85
321480,note_on,5,0,1,,,,,,,,0,,,64,64
321480,note_on,5,0,3,,,,,,,,2,,,64,64
321595,note_on,115,0,2,,,,,,,,1,,,64,0
321595,note_on,115,0,1,,,,,,,,0,,,64,0
321595,note_on,115,0,4,,,,,,,,3,,,64,0
321595,note_on,115,0,3,,,,,,,,2,,,64,0
321595,note_on,115,0,6,,,,,,,,5,,,52,0
321595,note_on,115,0,5,,,,,,,,4,,,52,0
321600,note_on,5,0,3,,,,,,,,2,,,65,64
321600,note_on,5,0,4,,,,,,,,3,,,65,85
321600,note_on,5,0,2,,,,,,,,1,,,65,64
321600,note_on,5,0,1,,,,,,,,0,,,65,64
321600,note_on,5,0,5,,,,,,,,4,,,53,85
321600,note_on,5,0,6,,,,,,,,5,,,53,85
321825,note_on,225,0,2,,,,,,,,1,,,65,0
321825,note_on,225,0,4,,,,,,,,3,,,65,0
321825,note_on,225,0,1,,,,,,,,0,,,65,0
321825,note_on,225,0,5,,,,,,,,4,,,53,0
321825,note_on,225,0,6,,,,,,,,5,,,53,0
321825,note_on,225,0,3,,,,,,,,2,,,65,0
321840,note_on,15,0,3,,,,,,,,2,,,64,64
321840,note_on,15,0,6,,,,,,,,5,,,52,85
321840,note_on,15,0,2,,,,,,,,1,,,64,64
321840,note_on,15,0,4,,,,,,,,3,,,64,85
321840,note_on,15,0,1,,,,,,,,0,,,64,64
321840,note_on,15,0,5,,,,,,,,4,,,52,85
322065,note_on,225,0,4,,,,,,,,3,,,64,0
322065,note_on,225,0,6,,,,,,,,5,,,52,0
322065,note_on,225,0,1,,,,,,,,0,,,64,0
322065,note_on,225,0,5,,,,,,,,4,,,52,0
322065,note_on,225,0,2,,,,,,,,1,,,64,0
322065,note_on,225,0,3,,,,,,,,2,,,64,0
322080,note_on,15,0,1,,,,,,,,0,,,65,64
322080,note_on,15,0,2,,,,,,,,1,,,65,64
322080,note_on,15,0,4,,,,,,,,3,,,65,85
322080,note_on,15,0,6,,,,,,,,5,,,53,85
322080,note_on,15,0,3,,,,,,,,2,,,65,64
322080,note_on,15,0,5,,,,,,,,4,,,53,85
322305,note_on,225,0,2,,,,,,,,1,,,65,0
322305,note_on,225,0,6,,,,,,,,5,,,53,0
322305,note_on,225,0,1,,,,,,,,0,,,65,0
322305,note_on,225,0,5,,,,,,,,4,,,53,0
322305,note_on,225,0,3,,,,,,,,2,,,65,0
322305,note_on,225,0,4,,,,,,,,3,,,65,0
322320,note_on,15,0,5,,,,,,,,4,,,50,85
322320,note_on,15,0,2,,,,,,,,1,,,62,64
322320,note_on,15,0,4,,,,,,,,3,,,62,85
322320,note_on,15,0,3,,,,,,,,2,,,62,64
322320,note_on,15,0,1,,,,,,,,0,,,62,64
322320,note_on,15,0,6,,,,,,,,5,,,50,85
322545,note_on,225,0,5,,,,,,,,4,,,50,0
322545,note_on,225,0,2,,,,,,,,1,,,62,0
322545,note_on,225,0,4,,,,,,,,3,,,62,0
322545,note_on,225,0,6,,,,,,,,5,,,50,0
322545,note_on,225,0,3,,,,,,,,2,,,62,0
322545,note_on,225,0,1,,,,,,,,0,,,62,0
322560,note_on,15,0,5,,,,,,,,4,,,52,85
322560,note_on,15,0,2,,,,,,,,1,,,64,64
322560,note_on,15,0,3,,,,,,,,2,,,64,64
322560,note_on,15,0,6,,,,,,,,5,,,52,85
322560,note_on,15,0,4,,,,,,,,3,,,64,85
322560,note_on,15,0,1,,,,,,,,0,,,64,64
322785,note_on,225,0,4,,,,,,,,3,,,64,0
322785,note_on,225,0,2,,,,,,,,1,,,64,0
322785,note_on,225,0,6,,,,,,,,5,,,52,0
322785,note_on,225,0,3,,,,,,,,2,,,64,0
322785,note_on,225,0,5,,,,,,,,4,,,52,0
322785,note_on,225,0,1,,,,,,,,0,,,64,0
322800,note_on,15,0,3,,,,,,,,2,,,65,64
322800,note_on,15,0,2,,,,,,,,1,,,65,64
322800,note_on,15,0,1,,,,,,,,0,,,65,64
322800,note_on,15,0,5,,,,,,,,4,,,53,85
322800,note_on,15,0,4,,,,,,,,3,,,65,85
322800,note_on,15,0,6,,,,,,,,5,,,53,85
322915,note_on,115,0,3,,,,,,,,2,,,65,0
322915,note_on,115,0,5,,,,,,,,4,,,53,0
322915,note_on,115,0,2,,,,,,,,1,,,65,0
322915,note_on,115,0,4,,,,,,,,3,,,65,0
322915,note_on,115,0,1,,,,,,,,0,,,65,0
322915,note_on,115,0,6,,,,,,,,5,,,53,0
322920,note_on,5,0,5,,,,,,,,4,,,55,85
322920,note_on,5,0,1,,,,,,,,0,,,67,64
322920,note_on,5,0,3,,,,,,,,2,,,67,64
322920,note_on,5,0,4,,,,,,,,3,,,67,85
322920,note_on,5,0,2,,,,,,,,1,,,67,64
322920,note_on,5,0,6,,,,,,,,5,,,55,85
323035,note_on,115,0,6,,,,,,,,5,,,55,0
323035,note_on,115,0,5,,,,,,,,4,,,55,0
323035,note_on,115,0,1,,,,,,,,0,,,67,0
323035,note_on,115,0,4,,,,,,,,3,,,67,0
323035,note_on,115,0,2,,,,,,,,1,,,67,0
323035,note_on,115,0,3,,,,,,,,2,,,67,0
323040,note_on,5,0,5,,,,,,,,4,,,57,85
323040,note_on,5,0,1,,,,,,,,0,,,69,64
323040,note_on,5,0,6,,,,,,,,5,,,57,85
323040,note_on,5,0,2,,,,,,,,1,,,69,64
323040,note_on,5,0,3,,,,,,,,2,,,69,64
323040,note_on,5,0,4,,,,,,,,3,,,69,85
323265,note_on,225,0,4,,,,,,,,3,,,69,0
323265,note_on,225,0,6,,,,,,,,5,,,57,0
323265,note_on,225,0,2,,,,,,,,1,,,69,0
323265,note_on,225,0,3,,,,,,,,2,,,69,0
323265,note_on,225,0,1,,,,,,,,0,,,69,0
323265,note_on,225,0,5,,,,,,,,4,,,57,0
323280,note_on,15,0,3,,,,,,,,2,,,67,64
323280,note_on,15,0,1,,,,,,,,0,,,67,64
323280,note_on,15,0,6,,,,,,,,5,,,55,85
323280,note_on,15,0,4,,,,,,,,3,,,67,85
323280,note_on,15,0,5,,,,,,,,4,,,55,85
323280,note_on,15,0,2,,,,,,,,1,,,67,64
323505,note_on,225,0,2,,,,,,,,1,,,67,0
323505,note_on,225,0,1,,,,,,,,0,,,67,0
323505,note_on,225,0,4,,,,,,,,3,,,67,0
323505,note_on,225,0,5,,,,,,,,4,,,55,0
323505,note_on,225,0,6,,,,,,,,5,,,55,0
323505,note_on,225,0,3,,,,,,,,2,,,67,0
323520,note_on,15,0,5,,,,,,,,4,,,57,85
323520,note_on,15,0,4,,,,,,,,3,,,69,85
323520,note_on,15,0,3,,,,,,,,2,,,69,64
323520,note_on,15,0,6,,,,,,,,5,,,57,85
323520,note_on,15,0,2,,,,,,,,1,,,69,64
323520,note_on,15,0,1,,,,,,,,0,,,69,64
323745,note_on,225,0,1,,,,,,,,0,,,69,0
323745,note_on,225,0,4,,,,,,,,3,,,69,0
323745,note_on,225,0,3,,,,,,,,2,,,69,0
323745,note_on,225,0,6,,,,,,,,5,,,57,0
323745,note_on,225,0,2,,,,,,,,1,,,69,0
323745,note_on,225,0,5,,,,,,,,4,,,57,0
323760,note_on,15,0,6,,,,,,,,5,,,45,85
323760,note_on,15,0,2,,,,,,,,1,,,57,64
323760,note_on,15,0,1,,,,,,,,0,,,57,64
323760,note_on,15,0,5,,,,,,,,4,,,45,85
323760,note_on,15,0,4,,,,,,,,3,,,57,85
323760,note_on,15,0,3,,,,,,,,2,,,57,64
323985,note_on,225,0,3,,,,,,,,2,,,57,0
323985,note_on,225,0,6,,,,,,,,5,,,45,0
323985,note_on,225,0,5,,,,,,,,4,,,45,0
323985,note_on,225,0,4,,,,,,,,3,,,57,0
323985,note_on,225,0,1,,,,,,,,0,,,57,0
323985,note_on,225,0,2,,,,,,,,1,,,57,0
324000,note_on,15,0,4,,,,,,,,3,,,58,85
324000,note_on,15,0,3,,,,,,,,2,,,58,64
324000,note_on,15,0,2,,,,,,,,1,,,58,64
324000,note_on,15,0,1,,,,,,,,0,,,58,64
324000,note_on,15,0,6,,,,,,,,5,,,46,85
324000,note_on,15,0,5,,,,,,,,4,,,46,85
324225,note_on,225,0,3,,,,,,,,2,,,58,0
324225,note_on,225,0,4,,,,,,,,3,,,58,0
324225,note_on,225,0,2,,,,,,,,1,,,58,0
324225,note_on,225,0,6,,,,,,,,5,,,46,0
324225,note_on,225,0,5,,,,,,,,4,,,46,0
324225,note_on,225,0,1,,,,,,,,0,,,58,0
324240,note_on,15,0,3,,,,,,,,2,,,58,64
324240,note_on,15,0,6,,,,,,,,5,,,46,85
324240,note_on,15,0,1,,,,,,,,0,,,58,64
324240,note_on,15,0,2,,,,,,,,1,,,58,64
324240,note_on,15,0,5,,,,,,,,4,,,46,85
324240,note_on,15,0,4,,,,,,,,3,,,58,85
324355,note_on,115,0,1,,,,,,,,0,,,58,0
324355,note_on,115,0,2,,,,,,,,1,,,58,0
324355,note_on,115,0,4,,,,,,,,3,,,58,0
324355,note_on,115,0,3,,,,,,,,2,,,58,0
324355,note_on,115,0,6,,,,,,,,5,,,46,0
324355,note_on,115,0,5,,,,,,,,4,,,46,0
324360,note_on,5,0,5,,,,,,,,4,,,48,85
324360,note_on,5,0,2,,,,,,,,1,,,60,64
324360,note_on,5,0,3,,,,,,,,2,,,60,64
324360,note_on,5,0,4,,,,,,,,3,,,60,85
324360,note_on,5,0,6,,,,,,,,5,,,48,85
324360,note_on,5,0,1,,,,,,,,0,,,60,64
324475,note_on,115,0,4,,,,,,,,3,,,60,0
324475,note_on,115,0,3,,,,,,,,2,,,60,0
324475,note_on,115,0,6,,,,,,,,5,,,48,0
324475,note_on,115,0,2,,,,,,,,1,,,60,0
324475,note_on,115,0,5,,,,,,,,4,,,48,0
324475,note_on,115,0,1,,,,,,,,0,,,60,0
324480,note_on,5,0,2,,,,,,,,1,,,62,64
324480,note_on,5,0,6,,,,,,,,5,,,50,85
324480,note_on,5,0,3,,,,,,,,2,,,62,64
324480,note_on,5,0,5,,,,,,,,4,,,50,85
324480,note_on,5,0,1,,,,,,,,0,,,62,64
324480,note_on,5,0,4,,,,,,,,3,,,62,85
324705,note_on,225,0,1,,,,,,,,0,,,62,0
324705,note_on,225,0,3,,,,,,,,2,,,62,0
324705,note_on,225,0,4,,,,,,,,3,,,62,0
324705,note_on,225,0,2,,,,,,,,1,,,62,0
324705,note_on,225,0,6,,,,,,,,5,,,50,0
324705,note_on,225,0,5,,,,,,,,4,,,50,0
324720,note_on,15,0,3,,,,,,,,2,,,60,64
324720,note_on,15,0,6,,,,,,,,5,,,48,85
324720,note_on,15,0,4,,,,,,,,3,,,60,85
324720,note_on,15,0,1,,,,,,,,0,,,60,64
324720,note_on,15,0,5,,,,,,,,4,,,48,85
324720,note_on,15,0,2,,,,,,,,1,,,60,64
324945,note_on,225,0,2,,,,,,,,1,,,60,0
324945,note_on,225,0,1,,,,,,,,0,,,60,0
324945,note_on,225,0,3,,,,,,,,2,,,60,0
324945,note_on,225,0,6,,,,,,,,5,,,48,0
324945,note_on,225,0,4,,,,,,,,3,,,60,0
324945,note_on,225,0,5,,,,,,,,4,,,48,0
324960,note_on,15,0,2,,,,,,,,1,,,62,64
324960,note_on,15,0,3,,,,,,,,2,,,62,64
324960,note_on,15,0,6,,,,,,,,5,,,50,85
324960,note_on,15,0,5,,,,,,,,4,,,50,85
324960,note_on,15,0,4,,,,,,,,3,,,62,85
324960,note_on,15,0,1,,,,,,,,0,,,62,64
325185,note_on,225,0,2,,,,,,,,1,,,62,0
325185,note_on,225,0,1,,,,,,,,0,,,62,0
325185,note_on,225,0,6,,,,,,,,5,,,50,0
325185,note_on,225,0,5,,,,,,,,4,,,50,0
325185,note_on,225,0,4,,,,,,,,3,,,62,0
325185,note_on,225,0,3,,,,,,,,2,,,62,0
325200,note_on,15,0,3,,,,,,,,2,,,58,64
325200,note_on,15,0,2,,,,,,,,1,,,58,64
325200,note_on,15,0,6,,,,,,,,5,,,46,85
325200,note_on,15,0,4,,,,,,,,3,,,58,85
325200,note_on,15,0,1,,,,,,,,0,,,58,64
325200,note_on,15,0,5,,,,,,,,4,,,46,85
325425,note_on,225,0,1,,,,,,,,0,,,58,0
325425,note_on,225,0,4,,,,,,,,3,,,58,0
325425,note_on,225,0,5,,,,,,,,4,,,46,0
325425,note_on,225,0,2,,,,,,,,1,,,58,0
325425,note_on,225,0,3,,,,,,,,2,,,58,0
325425,note_on,225,0,6,,,,,,,,5,,,46,0
325440,note_on,15,0,3,,,,,,,,2,,,60,64
325440,note_on,15,0,4,,,,,,,,3,,,60,85
325440,note_on,15,0,5,,,,,,,,4,,,48,85
325440,note_on,15,0,2,,,,,,,,1,,,60,64
325440,note_on,15,0,1,,,,,,,,0,,,60,64
325440,note_on,15,0,6,,,,,,,,5,,,48,85
325665,note_on,225,0,4,,,,,,,,3,,,60,0
325665,note_on,225,0,5,,,,,,,,4,,,48,0
325665,note_on,225,0,3,,,,,,,,2,,,60,0
325665,note_on,225,0,1,,,,,,,,0,,,60,0
325665,note_on,225,0,2,,,,,,,,1,,,60,0
325665,note_on,225,0,6,,,,,,,,5,,,48,0
325680,note_on,15,0,4,,,,,,,,3,,,62,85
325680,note_on,15,0,1,,,,,,,,0,,,62,64
325680,note_on,15,0,2,,,,,,,,1,,,62,64
325680,note_on,15,0,5,,,,,,,,4,,,50,85
325680,note_on,15,0,3,,,,,,,,2,,,62,64
325680,note_on,15,0,6,,,,,,,,5,,,50,85
325795,note_on,115,0,1,,,,,,,,0,,,62,0
325795,note_on,115,0,5,,,,,,,,4,,,50,0
325795,note_on,115,0,6,,,,,,,,5,,,50,0
325795,note_on,115,0,3,,,,,,,,2,,,62,0
325795,note_on,115,0,2,,,,,,,,1,,,62,0
325795,note_on,115,0,4,,,,,,,,3,,,62,0
325800,note_on,5,0,5,,,,,,,,4,,,52,85
325800,note_on,5,0,3,,,,,,,,2,,,64,64
325800,note_on,5,0,6,,,,,,,,5,,,52,85
325800,note_on,5,0,4,,,,,,,,3,,,64,85
325800,note_on,5,0,1,,,,,,,,0,,,64,64
325800,note_on,5,0,2,,,,,,,,1,,,64,64
325915,note_on,115,0,6,,,,,,,,5,,,52,0
325915,note_on,115,0,1,,,,,,,,0,,,64,0
325915,note_on,115,0,3,,,,,,,,2,,,64,0
325915,note_on,115,0,5,,,,,,,,4,,,52,0
325915,note_on,115,0,2,,,,,,,,1,,,64,0
325915,note_on,115,0,4,,,,,,,,3,,,64,0
325920,note_on,5,0,5,,,,,,,,4,,,53,85
325920,note_on,5,0,3,,,,,,,,2,,,65,64
325920,note_on,5,0,2,,,,,,,,1,,,65,64
325920,note_on,5,0,4,,,,,,,,3,,,65,85
325920,note_on,5,0,1,,,,,,,,0,,,65,64
325920,note_on,5,0,6,,,,,,,,5,,,53,85
326145,note_on,225,0,1,,,,,,,,0,,,65,0
326145,note_on,225,0,3,,,,,,,,2,,,65,0
326145,note_on,225,0,5,,,,,,,,4,,,53,0
326145,note_on,225,0,2,,,,,,,,1,,,65,0
326145,note_on,225,0,4,,,,,,,,3,,,65,0
326145,note_on,225,0,6,,,,,,,,5,,,53,0
326160,note_on,15,0,6,,,,,,,,5,,,55,85
326160,note_on,15,0,1,,,,,,,,0,,,67,64
326160,note_on,15,0,5,,,,,,,,4,,,55,85
326160,note_on,15,0,2,,,,,,,,1,,,67,64
326160,note_on,15,0,3,,,,,,,,2,,,67,64
326160,note_on,15,0,4,,,,,,,,3,,,67,85
326385,note_on,225,0,3,,,,,,,,2,,,67,0
326385,note_on,225,0,6,,,,,,,,5,,,55,0
326385,note_on,225,0,5,,,,,,,,4,,,55,0
326385,note_on,225,0,2,,,,,,,,1,,,67,0
326385,note_on,225,0,1,,,,,,,,0,,,67,0
326385,note_on,225,0,4,,,,,,,,3,,,67,0
326400,note_on,15,0,3,,,,,,,,2,,,69,64
326400,note_on,15,0,2,,,,,,,,1,,,69,64
326400,note_on,15,0,5,,,,,,,,4,,,57,85
326400,note_on,15,0,6,,,,,,,,5,,,57,85
326400,note_on,15,0,4,,,,,,,,3,,,69,85
326400,note_on,15,0,1,,,,,,,,0,,,69,64
326625,note_on,225,0,6,,,,,,,,5,,,57,0
326625,note_on,225,0,4,,,,,,,,3,,,69,0
326625,note_on,225,0,3,,,,,,,,2,,,69,0
326625,note_on,225,0,2,,,,,,,,1,,,69,0
326625,note_on,225,0,5,,,,,,,,4,,,57,0
326625,note_on,225,0,1,,,,,,,,0,,,69,0
326640,note_on,15,0,5,,,,,,,,4,,,53,85
326640,note_on,15,0,1,,,,,,,,0,,,65,64
326640,note_on,15,0,6,,,,,,,,5,,,53,85
326640,note_on,15,0,4,,,,,,,,3,,,65,85
326640,note_on,15,0,2,,,,,,,,1,,,65,64
326640,note_on,15,0,3,,,,,,,,2,,,65,64
326865,note_on,225,0,2,,,,,,,,1,,,65,0
326865,note_on,225,0,5,,,,,,,,4,,,53,0
326865,note_on,225,0,3,,,,,,,,2,,,65,0
326865,note_on,225,0,1,,,,,,,,0,,,65,0
326865,note_on,225,0,4,,,,,,,,3,,,65,0
326865,note_on,225,0,6,,,,,,,,5,,,53,0
326880,note_on,15,0,6,,,,,,,,5,,,58,85
326880,note_on,15,0,5,,,,,,,,4,,,58,85
326880,note_on,15,0,2,,,,,,,,1,,,70,64
326880,note_on,15,0,3,,,,,,,,2,,,70,64
326880,note_on,15,0,4,,,,,,,,3,,,70,85
326880,note_on,15,0,1,,,,,,,,0,,,70,64
327105,note_on,225,0,2,,,,,,,,1,,,70,0
327105,note_on,225,0,4,,,,,,,,3,,,70,0
327105,note_on,225,0,5,,,,,,,,4,,,58,0
327105,note_on,225,0,3,,,,,,,,2,,,70,0
327105,note_on,225,0,6,,,,,,,,5,,,58,0
327105,note_on,225,0,1,,,,,,,,0,,,70,0
327120,note_on,15,0,4,,,,,,,,3,,,67,85
327120,note_on,15,0,3,,,,,,,,2,,,67,64
327120,note_on,15,0,5,,,,,,,,4,,,55,85
327120,note_on,15,0,6,,,,,,,,5,,,55,85
327120,note_on,15,0,1,,,,,,,,0,,,67,64
327120,note_on,15,0,2,,,,,,,,1,,,67,64
327345,note_on,225,0,3,,,,,,,,2,,,67,0
327345,note_on,225,0,1,,,,,,,,0,,,67,0
327345,note_on,225,0,6,,,,,,,,5,,,55,0
327345,note_on,225,0,4,,,,,,,,3,,,67,0
327345,note_on,225,0,5,,,,,,,,4,,,55,0
327345,note_on,225,0,2,,,,,,,,1,,,67,0
327360,note_on,15,0,4,,,,,,,,3,,,72,85
327360,note_on,15,0,6,,,,,,,,5,,,60,85
327360,note_on,15,0,1,,,,,,,,0,,,72,64
327360,note_on,15,0,3,,,,,,,,2,,,72,64
327360,note_on,15,0,5,,,,,,,,4,,,60,85
327360,note_on,15,0,2,,,,,,,,1,,,72,64
327805,note_on,445,0,1,,,,,,,,0,,,72,0
327805,note_on,445,0,3,,,,,,,,2,,,72,0
327805,note_on,445,0,2,,,,,,,,1,,,72,0
327805,note_on,445,0,5,,,,,,,,4,,,60,0
327805,note_on,445,0,6,,,,,,,,5,,,60,0
327805,note_on,445,0,4,,,,,,,,3,,,72,0
327840,note_on,35,0,3,,,,,,,,2,,,60,64
327840,note_on,35,0,5,,,,,,,,4,,,48,85
327840,note_on,35,0,2,,,,,,,,1,,,60,64
327840,note_on,35,0,1,,,,,,,,0,,,60,64
327840,note_on,35,0,6,,,,,,,,5,,,48,85
327840,note_on,35,0,4,,,,,,,,3,,,60,85
328285,note_on,445,0,1,,,,,,,,0,,,60,0
328285,note_on,445,0,4,,,,,,,,3,,,60,0
328285,note_on,445,0,6,,,,,,,,5,,,48,0
328285,note_on,445,0,3,,,,,,,,2,,,60,0
328285,note_on,445,0,5,,,,,,,,4,,,48,0
328285,note_on,445,0,2,,,,,,,,1,,,60,0
328320,note_on,35,0,4,,,,,,,,3,,,65,85
328320,note_on,35,0,3,,,,,,,,2,,,65,64
328320,note_on,35,0,5,,,,,,,,4,,,53,85
328320,note_on,35,0,2,,,,,,,,1,,,65,64
328320,note_on,35,0,1,,,,,,,,0,,,77,106
328320,note_on,35,0,6,,,,,,,,5,,,53,85
328470,note_on,150,0,1,,,,,,,,0,,,77,0
328480,note_on,10,0,1,,,,,,,,0,,,77,106
328555,note_on,75,0,1,,,,,,,,0,,,77,0
328560,note_on,5,0,1,,,,,,,,0,,,79,106
328635,note_on,75,0,1,,,,,,,,0,,,79,0
328640,note_on,5,0,1,,,,,,,,0,,,81,106
328715,note_on,75,0,1,,,,,,,,0,,,81,0
328720,note_on,5,0,1,,,,,,,,0,,,79,106
328765,note_on,445,0,6,,,,,,,,5,,,53,0
328765,note_on,445,0,5,,,,,,,,4,,,53,0
328765,note_on,445,0,3,,,,,,,,2,,,65,0
328765,note_on,445,0,2,,,,,,,,1,,,65,0
328765,note_on,445,0,4,,,,,,,,3,,,65,0
328795,note_on,75,0,1,,,,,,,,0,,,79,0
328800,note_on,35,0,2,,,,,,,,1,,,81,64
328800,note_on,5,0,1,,,,,,,,0,,,77,106
328950,note_on,150,0,2,,,,,,,,1,,,81,0
328950,note_on,150,0,1,,,,,,,,0,,,77,0
328960,note_on,10,0,2,,,,,,,,1,,,82,64
328960,note_on,10,0,1,,,,,,,,0,,,79,106
329110,note_on,150,0,2,,,,,,,,1,,,82,0
329110,note_on,150,0,1,,,,,,,,0,,,79,0
329120,note_on,10,0,1,,,,,,,,0,,,76,106
329120,note_on,10,0,2,,,,,,,,1,,,79,64
329270,note_on,150,0,2,,,,,,,,1,,,79,0
329270,note_on,150,0,1,,,,,,,,0,,,76,0
329280,note_on,10,0,1,,,,,,,,0,,,74,106
329280,note_on,10,0,2,,,,,,,,1,,,77,64
329430,note_on,150,0,2,,,,,,,,1,,,77,0
329430,note_on,150,0,1,,,,,,,,0,,,74,0
329440,note_on,10,0,2,,,,,,,,1,,,79,64
329440,note_on,10,0,1,,,,,,,,0,,,76,106
329590,note_on,150,0,2,,,,,,,,1,,,79,0
329590,note_on,150,0,1,,,,,,,,0,,,76,0
329600,note_on,10,0,2,,,,,,,,1,,,76,64
329600,note_on,10,0,1,,,,,,,,0,,,73,106
329750,note_on,150,0,2,,,,,,,,1,,,76,0
329750,note_on,150,0,1,,,,,,,,0,,,73,0
329760,note_on,995,0,5,,,,,,,,4,,,50,64
329760,note_on,995,0,6,,,,,,,,5,,,50,64
329760,note_on,10,0,2,,,,,,,,1,,,77,64
329760,note_on,10,0,1,,,,,,,,0,,,74,106
329910,note_on,150,0,1,,,,,,,,0,,,74,0
329920,note_on,10,0,1,,,,,,,,0,,,72,106
329995,note_on,75,0,1,,,,,,,,0,,,72,0
330000,note_on,5,0,1,,,,,,,,0,,,70,106
330075,note_on,75,0,1,,,,,,,,0,,,70,0
330080,note_on,5,0,1,,,,,,,,0,,,69,106
330155,note_on,75,0,1,,,,,,,,0,,,69,0
330160,note_on,5,0,1,,,,,,,,0,,,67,106
330205,note_on,445,0,2,,,,,,,,1,,,77,0
330205,note_on,445,0,6,,,,,,,,5,,,50,0
330205,note_on,445,0,5,,,,,,,,4,,,50,0
330235,note_on,75,0,1,,,,,,,,0,,,67,0
330240,note_on,35,0,2,,,,,,,,1,,,69,64
330240,note_on,5,0,1,,,,,,,,0,,,65,106
330390,note_on,150,0,2,,,,,,,,1,,,69,0
330390,note_on,150,0,1,,,,,,,,0,,,65,0
330400,note_on,10,0,2,,,,,,,,1,,,70,64
330400,note_on,10,0,1,,,,,,,,0,,,67,106
330550,note_on,150,0,2,,,,,,,,1,,,70,0
330550,note_on,150,0,1,,,,,,,,0,,,67,0
330560,note_on,10,0,2,,,,,,,,1,,,67,64
330560,note_on,10,0,1,,,,,,,,0,,,64,106
330710,note_on,150,0,2,,,,,,,,1,,,67,0
330710,note_on,150,0,1,,,,,,,,0,,,64,0
330720,note_on,10,0,1,,,,,,,,0,,,65,106
330720,note_on,10,0,2,,,,,,,,1,,,69,64
330870,note_on,150,0,1,,,,,,,,0,,,65,0
330870,note_on,150,0,2,,,,,,,,1,,,69,0
330880,note_on,10,0,2,,,,,,,,1,,,70,64
330880,note_on,10,0,1,,,,,,,,0,,,67,106
331030,note_on,150,0,2,,,,,,,,1,,,70,0
331030,note_on,150,0,1,,,,,,,,0,,,67,0
331040,note_on,10,0,1,,,,,,,,0,,,64,106
331040,note_on,10,0,2,,,,,,,,1,,,67,64
331190,note_on,150,0,2,,,,,,,,1,,,67,0
331190,note_on,150,0,1,,,,,,,,0,,,64,0
331200,note_on,995,0,6,,,,,,,,5,,,50,64
331200,note_on,10,0,1,,,,,,,,0,,,65,106
331200,note_on,10,0,2,,,,,,,,1,,,69,64
331200,note_on,995,0,5,,,,,,,,4,,,50,64
331350,note_on,150,0,1,,,,,,,,0,,,65,0
331360,note_on,10,0,1,,,,,,,,0,,,62,106
331435,note_on,75,0,1,,,,,,,,0,,,62,0
331440,note_on,5,0,1,,,,,,,,0,,,64,106
331515,note_on,75,0,1,,,,,,,,0,,,64,0
331520,note_on,5,0,1,,,,,,,,0,,,65,106
331595,note_on,75,0,1,,,,,,,,0,,,65,0
331600,note_on,5,0,1,,,,,,,,0,,,67,106
331645,note_on,445,0,2,,,,,,,,1,,,69,0
331645,note_on,445,0,5,,,,,,,,4,,,50,0
331645,note_on,445,0,6,,,,,,,,5,,,50,0
331675,note_on,75,0,1,,,,,,,,0,,,67,0
331680,note_on,5,0,1,,,,,,,,0,,,69,106
331830,note_on,150,0,1,,,,,,,,0,,,69,0
331840,note_on,10,0,1,,,,,,,,0,,,71,106
331990,note_on,150,0,1,,,,,,,,0,,,71,0
332000,note_on,10,0,1,,,,,,,,0,,,73,106
332150,note_on,150,0,1,,,,,,,,0,,,73,0
332160,note_on,10,0,1,,,,,,,,0,,,74,106
332310,note_on,150,0,1,,,,,,,,0,,,74,0
332320,note_on,10,0,1,,,,,,,,0,,,76,106
332470,note_on,150,0,1,,,,,,,,0,,,76,0
332480,note_on,10,0,1,,,,,,,,0,,,77,106
332630,note_on,150,0,1,,,,,,,,0,,,77,0
332640,note_on,995,0,5,,,,,,,,4,,,45,64
332640,note_on,995,0,6,,,,,,,,5,,,45,64
332640,note_on,10,0,1,,,,,,,,0,,,76,106
332865,note_on,225,0,6,,,,,,,,5,,,45,0
332865,note_on,225,0,5,,,,,,,,4,,,45,0
332880,note_on,15,0,5,,,,,,,,4,,,57,64
332880,note_on,15,0,6,,,,,,,,5,,,57,64
333085,note_on,445,0,1,,,,,,,,0,,,76,0
333105,note_on,225,0,5,,,,,,,,4,,,57,0
333105,note_on,225,0,6,,,,,,,,5,,,57,0
333120,note_on,15,0,5,,,,,,,,4,,,45,64
333120,note_on,15,0,6,,,,,,,,5,,,45,64
333360,note_on,0,0,1,,,,,,,,0,,,73,106
333360,note_on,275,0,1,,,,,,,,0,,,76,106
333565,note_on,445,0,5,,,,,,,,4,,,45,0
333565,note_on,445,0,6,,,,,,,,5,,,45,0
333585,note_on,0,0,1,,,,,,,,0,,,76,0
333585,note_on,225,0,1,,,,,,,,0,,,73,0
333600,note_on,0,0,1,,,,,,,,0,,,74,106
333600,note_on,15,0,1,,,,,,,,0,,,77,106
333825,note_on,0,0,1,,,,,,,,0,,,77,0
333825,note_on,225,0,1,,,,,,,,0,,,74,0
333840,note_on,15,0,1,,,,,,,,0,,,79,106
333840,note_on,0,0,1,,,,,,,,0,,,76,106
334065,note_on,225,0,1,,,,,,,,0,,,76,0
334065,note_on,0,0,1,,,,,,,,0,,,79,0
334080,note_on,0,0,1,,,,,,,,0,,,77,106
334080,note_on,15,0,1,,,,,,,,0,,,81,106
334080,note_on,515,0,5,,,,,,,,4,,,50,64
334080,note_on,515,0,6,,,,,,,,5,,,50,64
334525,note_on,445,0,1,,,,,,,,0,,,77,0
334525,note_on,0,0,1,,,,,,,,0,,,81,0
334560,note_on,35,0,1,,,,,,,,0,,,82,106
334560,note_on,0,0,1,,,,,,,,0,,,79,106
335005,note_on,0,0,1,,,,,,,,0,,,82,0
335005,note_on,445,0,1,,,,,,,,0,,,79,0
335040,note_on,35,0,1,,,,,,,,0,,,81,106
335040,note_on,0,0,1,,,,,,,,0,,,77,106
335405,note_on,1325,0,6,,,,,,,,5,,,50,0
335405,note_on,1325,0,5,,,,,,,,4,,,50,0
335485,note_on,0,0,1,,,,,,,,0,,,81,0
335485,note_on,445,0,1,,,,,,,,0,,,77,0
335520,note_on,35,0,1,,,,,,,,0,,,79,106
335520,note_on,0,0,1,,,,,,,,0,,,76,106
335520,note_on,115,0,6,,,,,,,,5,,,57,64
335520,note_on,115,0,5,,,,,,,,4,,,57,64
335965,note_on,445,0,1,,,,,,,,0,,,76,0
335965,note_on,0,0,1,,,,,,,,0,,,79,0
336000,note_on,35,0,1,,,,,,,,0,,,81,106
336000,note_on,0,0,1,,,,,,,,0,,,77,106
336445,note_on,445,0,1,,,,,,,,0,,,77,0
336445,note_on,0,0,1,,,,,,,,0,,,81,0
336480,note_on,35,0,1,,,,,,,,0,,,79,106
336480,note_on,0,0,1,,,,,,,,0,,,76,106
336845,note_on,1325,0,5,,,,,,,,4,,,57,0
336845,note_on,1325,0,6,,,,,,,,5,,,57,0
336925,note_on,0,0,1,,,,,,,,0,,,79,0
336925,note_on,445,0,1,,,,,,,,0,,,76,0
336960,note_on,115,0,5,,,,,,,,4,,,50,64
336960,note_on,115,0,6,,,,,,,,5,,,50,64
336960,note_on,35,0,1,,,,,,,,0,,,77,106
336960,note_on,0,0,1,,,,,,,,0,,,74,106
337405,note_on,445,0,1,,,,,,,,0,,,74,0
337405,note_on,0,0,1,,,,,,,,0,,,77,0
337440,note_on,0,0,1,,,,,,,,0,,,76,106
337440,note_on,35,0,1,,,,,,,,0,,,79,106
337885,note_on,0,0,1,,,,,,,,0,,,79,0
337885,note_on,445,0,1,,,,,,,,0,,,76,0
337920,note_on,35,0,1,,,,,,,,0,,,77,106
337920,note_on,0,0,1,,,,,,,,0,,,74,106
338285,note_on,1325,0,5,,,,,,,,4,,,50,0
338285,note_on,1325,0,6,,,,,,,,5,,,50,0
338365,note_on,445,0,1,,,,,,,,0,,,74,0
338365,note_on,0,0,1,,,,,,,,0,,,77,0
338400,note_on,115,0,5,,,,,,,,4,,,45,64
338400,note_on,0,0,1,,,,,,,,0,,,73,106
338400,note_on,35,0,1,,,,,,,,0,,,76,106
338400,note_on,115,0,6,,,,,,,,5,,,45,64
338625,note_on,225,0,5,,,,,,,,4,,,45,0
338625,note_on,225,0,6,,,,,,,,5,,,45,0
338640,note_on,15,0,5,,,,,,,,4,,,57,64
338640,note_on,15,0,6,,,,,,,,5,,,57,64
338845,note_on,445,0,1,,,,,,,,0,,,73,0
338845,note_on,0,0,1,,,,,,,,0,,,76,0
338865,note_on,225,0,6,,,,,,,,5,,,57,0
338865,note_on,225,0,5,,,,,,,,4,,,57,0
338880,note_on,15,0,5,,,,,,,,4,,,45,64
338880,note_on,15,0,6,,,,,,,,5,,,45,64
339120,note_on,0,0,1,,,,,,,,0,,,73,106
339120,note_on,275,0,1,,,,,,,,0,,,76,106
339325,note_on,445,0,5,,,,,,,,4,,,45,0
339325,note_on,445,0,6,,,,,,,,5,,,45,0
339345,note_on,225,0,1,,,,,,,,0,,,73,0
339345,note_on,0,0,1,,,,,,,,0,,,76,0
339360,note_on,15,0,1,,,,,,,,0,,,81,106
339360,note_on,0,0,1,,,,,,,,0,,,73,106
339585,note_on,225,0,1,,,,,,,,0,,,73,0
339585,note_on,0,0,1,,,,,,,,0,,,81,0
339600,note_on,15,0,1,,,,,,,,0,,,76,106
339600,note_on,0,0,1,,,,,,,,0,,,73,106
339825,note_on,0,0,1,,,,,,,,0,,,76,0
339825,note_on,225,0,1,,,,,,,,0,,,73,0
339840,note_on,0,0,1,,,,,,,,0,,,74,106
339840,note_on,15,0,1,,,,,,,,0,,,77,106
340080,note_on,755,0,5,,,,,,,,4,,,62,64
340080,note_on,755,0,6,,,,,,,,5,,,62,64
340285,note_on,0,0,1,,,,,,,,0,,,77,0
340285,note_on,445,0,1,,,,,,,,0,,,74,0
340305,note_on,225,0,6,,,,,,,,5,,,62,0
340305,note_on,225,0,5,,,,,,,,4,,,62,0
340320,note_on,15,0,5,,,,,,,,4,,,50,64
340320,note_on,15,0,6,,,,,,,,5,,,50,64
340560,note_on,275,0,1,,,,,,,,0,,,81,106
340560,note_on,0,0,1,,,,,,,,0,,,77,106
340765,note_on,445,0,5,,,,,,,,4,,,50,0
340765,note_on,445,0,6,,,,,,,,5,,,50,0
340785,note_on,225,0,1,,,,,,,,0,,,77,0
340785,note_on,0,0,1,,,,,,,,0,,,81,0
340800,note_on,15,0,1,,,,,,,,0,,,86,106
340800,note_on,0,0,1,,,,,,,,0,,,77,106
341025,note_on,225,0,1,,,,,,,,0,,,77,0
341025,note_on,0,0,1,,,,,,,,0,,,86,0
341040,note_on,0,0,1,,,,,,,,0,,,77,106
341040,note_on,15,0,1,,,,,,,,0,,,81,106
341265,note_on,0,0,1,,,,,,,,0,,,81,0
341265,note_on,225,0,1,,,,,,,,0,,,77,0
341280,note_on,0,0,1,,,,,,,,0,,,79,106
341280,note_on,15,0,1,,,,,,,,0,,,82,106
341520,note_on,755,0,5,,,,,,,,4,,,55,64
341520,note_on,755,0,6,,,,,,,,5,,,55,64
341725,note_on,445,0,1,,,,,,,,0,,,79,0
341725,note_on,0,0,1,,,,,,,,0,,,82,0
341745,note_on,225,0,6,,,,,,,,5,,,55,0
341745,note_on,225,0,5,,,,,,,,4,,,55,0
341760,note_on,15,0,6,,,,,,,,5,,,48,64
341760,note_on,35,0,1,,,,,,,,0,,,67,106
341760,note_on,15,0,5,,,,,,,,4,,,48,64
341985,note_on,225,0,1,,,,,,,,0,,,67,0
342000,note_on,0,0,1,,,,,,,,0,,,76,106
342000,note_on,15,0,1,,,,,,,,0,,,79,106
342205,note_on,445,0,6,,,,,,,,5,,,48,0
342205,note_on,445,0,5,,,,,,,,4,,,48,0
342225,note_on,0,0,1,,,,,,,,0,,,79,0
342225,note_on,225,0,1,,,,,,,,0,,,76,0
342240,note_on,0,0,1,,,,,,,,0,,,76,106
342240,note_on,15,0,1,,,,,,,,0,,,84,106
342465,note_on,0,0,1,,,,,,,,0,,,84,0
342465,note_on,225,0,1,,,,,,,,0,,,76,0
342480,note_on,0,0,1,,,,,,,,0,,,76,106
342480,note_on,15,0,1,,,,,,,,0,,,79,106
342705,note_on,0,0,1,,,,,,,,0,,,79,0
342705,note_on,225,0,1,,,,,,,,0,,,76,0
342720,note_on,0,0,1,,,,,,,,0,,,77,106
342720,note_on,15,0,1,,,,,,,,0,,,81,106
342960,note_on,755,0,6,,,,,,,,5,,,53,64
342960,note_on,755,0,5,,,,,,,,4,,,53,64
343165,note_on,0,0,1,,,,,,,,0,,,81,0
343165,note_on,445,0,1,,,,,,,,0,,,77,0
343185,note_on,225,0,5,,,,,,,,4,,,53,0
343185,note_on,225,0,6,,,,,,,,5,,,53,0
343200,note_on,35,0,1,,,,,,,,0,,,65,106
343200,note_on,15,0,5,,,,,,,,4,,,46,64
343200,note_on,15,0,6,,,,,,,,5,,,46,64
343425,note_on,225,0,1,,,,,,,,0,,,65,0
343440,note_on,0,0,1,,,,,,,,0,,,74,106
343440,note_on,15,0,1,,,,,,,,0,,,77,106
343645,note_on,445,0,5,,,,,,,,4,,,46,0
343645,note_on,445,0,6,,,,,,,,5,,,46,0
343665,note_on,225,0,1,,,,,,,,0,,,74,0
343665,note_on,0,0,1,,,,,,,,0,,,77,0
343680,note_on,15,0,1,,,,,,,,0,,,82,106
343680,note_on,0,0,1,,,,,,,,0,,,74,106
343905,note_on,0,0,1,,,,,,,,0,,,82,0
343905,note_on,225,0,1,,,,,,,,0,,,74,0
343920,note_on,15,0,1,,,,,,,,0,,,77,106
343920,note_on,0,0,1,,,,,,,,0,,,74,106
344145,note_on,225,0,1,,,,,,,,0,,,74,0
344145,note_on,0,0,1,,,,,,,,0,,,77,0
344160,note_on,15,0,1,,,,,,,,0,,,79,106
344160,note_on,0,0,1,,,,,,,,0,,,76,106
344400,note_on,755,0,5,,,,,,,,4,,,52,64
344400,note_on,755,0,6,,,,,,,,5,,,52,64
344605,note_on,445,0,1,,,,,,,,0,,,76,0
344605,note_on,0,0,1,,,,,,,,0,,,79,0
344625,note_on,225,0,5,,,,,,,,4,,,52,0
344625,note_on,225,0,6,,,,,,,,5,,,52,0
344640,note_on,15,0,5,,,,,,,,4,,,45,64
344640,note_on,15,0,6,,,,,,,,5,,,45,64
344640,note_on,35,0,1,,,,,,,,0,,,57,106
344865,note_on,225,0,1,,,,,,,,0,,,57,0
344880,note_on,0,0,1,,,,,,,,0,,,73,106
344880,note_on,15,0,1,,,,,,,,0,,,76,106
345085,note_on,445,0,6,,,,,,,,5,,,45,0
345085,note_on,445,0,5,,,,,,,,4,,,45,0
345105,note_on,0,0,1,,,,,,,,0,,,76,0
345105,note_on,225,0,1,,,,,,,,0,,,73,0
345120,note_on,15,0,1,,,,,,,,0,,,81,106
345120,note_on,0,0,1,,,,,,,,0,,,73,106
345345,note_on,0,0,1,,,,,,,,0,,,81,0
345345,note_on,225,0,1,,,,,,,,0,,,73,0
345360,note_on,0,0,1,,,,,,,,0,,,73,106
345360,note_on,15,0,1,,,,,,,,0,,,76,106
345585,note_on,225,0,1,,,,,,,,0,,,73,0
345585,note_on,0,0,1,,,,,,,,0,,,76,0
345600,note_on,0,0,1,,,,,,,,0,,,74,106
345600,note_on,515,0,6,,,,,,,,5,,,50,64
345600,note_on,515,0,5,,,,,,,,4,,,50,64
345600,note_on,15,0,1,,,,,,,,0,,,77,106
345825,note_on,225,0,1,,,,,,,,0,,,74,0
345840,note_on,15,0,1,,,,,,,,0,,,81,106
346045,note_on,445,0,6,,,,,,,,5,,,50,0
346045,note_on,445,0,5,,,,,,,,4,,,50,0
346045,note_on,205,0,1,,,,,,,,0,,,77,0
346065,note_on,20,0,1,,,,,,,,0,,,81,0
346080,note_on,15,0,1,,,,,,,,0,,,77,106
346195,note_on,115,0,1,,,,,,,,0,,,77,0
346200,note_on,5,0,1,,,,,,,,0,,,79,106
346315,note_on,115,0,1,,,,,,,,0,,,79,0
346320,note_on,5,0,1,,,,,,,,0,,,76,106
346435,note_on,115,0,1,,,,,,,,0,,,76,0
346440,note_on,5,0,1,,,,,,,,0,,,77,106
346555,note_on,115,0,1,,,,,,,,0,,,77,0
346560,note_on,5,0,1,,,,,,,,0,,,74,106
346675,note_on,115,0,1,,,,,,,,0,,,74,0
346680,note_on,5,0,1,,,,,,,,0,,,76,106
346795,note_on,115,0,1,,,,,,,,0,,,76,0
346800,note_on,5,0,1,,,,,,,,0,,,72,106
346915,note_on,115,0,1,,,,,,,,0,,,72,0
346920,note_on,5,0,1,,,,,,,,0,,,74,106
347035,note_on,115,0,1,,,,,,,,0,,,74,0
347040,note_on,5,0,1,,,,,,,,0,,,70,106
347040,note_on,0,0,1,,,,,,,,0,,,67,106
347040,note_on,995,0,6,,,,,,,,5,,,55,64
347040,note_on,995,0,5,,,,,,,,4,,,55,64
347265,note_on,225,0,1,,,,,,,,0,,,70,0
347280,note_on,15,0,1,,,,,,,,0,,,74,106
347485,note_on,205,0,1,,,,,,,,0,,,67,0
347485,note_on,445,0,6,,,,,,,,5,,,55,0
347485,note_on,445,0,5,,,,,,,,4,,,55,0
347505,note_on,20,0,1,,,,,,,,0,,,74,0
347520,note_on,15,0,1,,,,,,,,0,,,70,106
347635,note_on,115,0,1,,,,,,,,0,,,70,0
347640,note_on,5,0,1,,,,,,,,0,,,72,106
347755,note_on,115,0,1,,,,,,,,0,,,72,0
347760,note_on,5,0,1,,,,,,,,0,,,69,106
347875,note_on,115,0,1,,,,,,,,0,,,69,0
347880,note_on,5,0,1,,,,,,,,0,,,70,106
347995,note_on,115,0,1,,,,,,,,0,,,70,0
348000,note_on,5,0,1,,,,,,,,0,,,67,106
348115,note_on,115,0,1,,,,,,,,0,,,67,0
348120,note_on,5,0,1,,,,,,,,0,,,69,106
348235,note_on,115,0,1,,,,,,,,0,,,69,0
348240,note_on,5,0,1,,,,,,,,0,,,65,106
348355,note_on,115,0,1,,,,,,,,0,,,65,0
348360,note_on,5,0,1,,,,,,,,0,,,67,106
348475,note_on,115,0,1,,,,,,,,0,,,67,0
348480,note_on,995,0,6,,,,,,,,5,,,48,64
348480,note_on,995,0,5,,,,,,,,4,,,48,64
348480,note_on,5,0,1,,,,,,,,0,,,64,106
348480,note_on,0,0,1,,,,,,,,0,,,60,106
348705,note_on,225,0,1,,,,,,,,0,,,64,0
348720,note_on,15,0,1,,,,,,,,0,,,79,106
348925,note_on,445,0,6,,,,,,,,5,,,48,0
348925,note_on,445,0,5,,,,,,,,4,,,48,0
348925,note_on,205,0,1,,,,,,,,0,,,60,0
348945,note_on,20,0,1,,,,,,,,0,,,79,0
348960,note_on,15,0,1,,,,,,,,0,,,76,106
349075,note_on,115,0,1,,,,,,,,0,,,76,0
349080,note_on,5,0,1,,,,,,,,0,,,77,106
349195,note_on,115,0,1,,,,,,,,0,,,77,0
349200,note_on,5,0,1,,,,,,,,0,,,74,106
349315,note_on,115,0,1,,,,,,,,0,,,74,0
349320,note_on,5,0,1,,,,,,,,0,,,76,106
349435,note_on,115,0,1,,,,,,,,0,,,76,0
349440,note_on,5,0,1,,,,,,,,0,,,72,106
349555,note_on,115,0,1,,,,,,,,0,,,72,0
349560,note_on,5,0,1,,,,,,,,0,,,74,106
349675,note_on,115,0,1,,,,,,,,0,,,74,0
349680,note_on,5,0,1,,,,,,,,0,,,70,106
349795,note_on,115,0,1,,,,,,,,0,,,70,0
349800,note_on,5,0,1,,,,,,,,0,,,72,106
349915,note_on,115,0,1,,,,,,,,0,,,72,0
349920,note_on,995,0,5,,,,,,,,4,,,53,64
349920,note_on,995,0,6,,,,,,,,5,,,53,64
349920,note_on,5,0,1,,,,,,,,0,,,69,106
349920,note_on,0,0,1,,,,,,,,0,,,65,106
350145,note_on,225,0,1,,,,,,,,0,,,69,0
350160,note_on,15,0,1,,,,,,,,0,,,72,106
350365,note_on,445,0,5,,,,,,,,4,,,53,0
350365,note_on,205,0,1,,,,,,,,0,,,65,0
350365,note_on,445,0,6,,,,,,,,5,,,53,0
350385,note_on,20,0,1,,,,,,,,0,,,72,0
350400,note_on,15,0,1,,,,,,,,0,,,69,106
350515,note_on,115,0,1,,,,,,,,0,,,69,0
350520,note_on,5,0,1,,,,,,,,0,,,70,106
350635,note_on,115,0,1,,,,,,,,0,,,70,0
350640,note_on,5,0,1,,,,,,,,0,,,67,106
350755,note_on,115,0,1,,,,,,,,0,,,67,0
350760,note_on,5,0,1,,,,,,,,0,,,69,106
350875,note_on,115,0,1,,,,,,,,0,,,69,0
350880,note_on,5,0,1,,,,,,,,0,,,65,106
350995,note_on,115,0,1,,,,,,,,0,,,65,0
351000,note_on,5,0,1,,,,,,,,0,,,67,106
351115,note_on,115,0,1,,,,,,,,0,,,67,0
351120,note_on,5,0,1,,,,,,,,0,,,64,106
351235,note_on,115,0,1,,,,,,,,0,,,64,0
351240,note_on,5,0,1,,,,,,,,0,,,65,106
351355,note_on,115,0,1,,,,,,,,0,,,65,0
351360,note_on,995,0,5,,,,,,,,4,,,50,64
351360,note_on,0,0,1,,,,,,,,0,,,58,106
351360,note_on,5,0,1,,,,,,,,0,,,62,106
351360,note_on,995,0,6,,,,,,,,5,,,50,64
351585,note_on,225,0,1,,,,,,,,0,,,62,0
351600,note_on,15,0,1,,,,,,,,0,,,77,106
351805,note_on,445,0,6,,,,,,,,5,,,50,0
351805,note_on,205,0,1,,,,,,,,0,,,58,0
351805,note_on,445,0,5,,,,,,,,4,,,50,0
351825,note_on,20,0,1,,,,,,,,0,,,77,0
351840,note_on,15,0,1,,,,,,,,0,,,74,106
351955,note_on,115,0,1,,,,,,,,0,,,74,0
351960,note_on,5,0,1,,,,,,,,0,,,76,106
352075,note_on,115,0,1,,,,,,,,0,,,76,0
352080,note_on,5,0,1,,,,,,,,0,,,72,106
352195,note_on,115,0,1,,,,,,,,0,,,72,0
352200,note_on,5,0,1,,,,,,,,0,,,74,106
352315,note_on,115,0,1,,,,,,,,0,,,74,0
352320,note_on,5,0,1,,,,,,,,0,,,71,106
352435,note_on,115,0,1,,,,,,,,0,,,71,0
352440,note_on,5,0,1,,,,,,,,0,,,72,106
352555,note_on,115,0,1,,,,,,,,0,,,72,0
352560,note_on,5,0,1,,,,,,,,0,,,69,106
352675,note_on,115,0,1,,,,,,,,0,,,69,0
352680,note_on,5,0,1,,,,,,,,0,,,71,106
352795,note_on,115,0,1,,,,,,,,0,,,71,0
352800,note_on,5,0,1,,,,,,,,0,,,71,106
352800,note_on,0,0,1,,,,,,,,0,,,68,106
352800,note_on,995,0,6,,,,,,,,5,,,52,64
352800,note_on,995,0,5,,,,,,,,4,,,52,64
353025,note_on,225,0,1,,,,,,,,0,,,71,0
353040,note_on,15,0,1,,,,,,,,0,,,83,106
353245,note_on,445,0,5,,,,,,,,4,,,52,0
353245,note_on,445,0,6,,,,,,,,5,,,52,0
353245,note_on,205,0,1,,,,,,,,0,,,68,0
353265,note_on,20,0,1,,,,,,,,0,,,83,0
353280,note_on,15,0,1,,,,,,,,0,,,80,106
353395,note_on,115,0,1,,,,,,,,0,,,80,0
353400,note_on,5,0,1,,,,,,,,0,,,81,106
353515,note_on,115,0,1,,,,,,,,0,,,81,0
353520,note_on,5,0,1,,,,,,,,0,,,77,106
353635,note_on,115,0,1,,,,,,,,0,,,77,0
353640,note_on,5,0,1,,,,,,,,0,,,80,106
353755,note_on,115,0,1,,,,,,,,0,,,80,0
353760,note_on,5,0,1,,,,,,,,0,,,76,106
353875,note_on,115,0,1,,,,,,,,0,,,76,0
353880,note_on,5,0,1,,,,,,,,0,,,77,106
353995,note_on,115,0,1,,,,,,,,0,,,77,0
354000,note_on,5,0,1,,,,,,,,0,,,74,106
354115,note_on,115,0,1,,,,,,,,0,,,74,0
354120,note_on,5,0,1,,,,,,,,0,,,76,106
354235,note_on,115,0,1,,,,,,,,0,,,76,0
354240,note_on,995,0,5,,,,,,,,4,,,45,64
354240,note_on,5,0,1,,,,,,,,0,,,76,106
354240,note_on,0,0,1,,,,,,,,0,,,73,106
354240,note_on,995,0,6,,,,,,,,5,,,45,64
354465,note_on,225,0,1,,,,,,,,0,,,73,0
354465,note_on,0,0,1,,,,,,,,0,,,76,0
354480,note_on,0,0,1,,,,,,,,0,,,73,106
354480,note_on,15,0,1,,,,,,,,0,,,81,106
354685,note_on,445,0,6,,,,,,,,5,,,45,0
354685,note_on,445,0,5,,,,,,,,4,,,45,0
354705,note_on,225,0,1,,,,,,,,0,,,73,0
354705,note_on,0,0,1,,,,,,,,0,,,81,0
354720,note_on,0,0,1,,,,,,,,0,,,73,106
354720,note_on,15,0,1,,,,,,,,0,,,76,106
354945,note_on,0,0,1,,,,,,,,0,,,76,0
354945,note_on,225,0,1,,,,,,,,0,,,73,0
354960,note_on,0,0,1,,,,,,,,0,,,69,106
354960,note_on,15,0,1,,,,,,,,0,,,76,106
355185,note_on,0,0,1,,,,,,,,0,,,76,0
355185,note_on,225,0,1,,,,,,,,0,,,69,0
355200,note_on,0,0,1,,,,,,,,0,,,64,106
355200,note_on,15,0,1,,,,,,,,0,,,69,106
355425,note_on,225,0,1,,,,,,,,0,,,64,0
355425,note_on,0,0,1,,,,,,,,0,,,69,0
355440,note_on,0,0,1,,,,,,,,0,,,61,106
355440,note_on,15,0,1,,,,,,,,0,,,64,106
355665,note_on,225,0,1,,,,,,,,0,,,61,0
355665,note_on,0,0,1,,,,,,,,0,,,64,0
355680,note_on,995,0,6,,,,,,,,5,,,45,49
355680,note_on,15,0,1,,,,,,,,0,,,64,64
355680,note_on,0,0,1,,,,,,,,0,,,57,64
355680,note_on,995,0,5,,,,,,,,4,,,45,49
355905,note_on,225,0,1,,,,,,,,0,,,57,0
355905,note_on,0,0,1,,,,,,,,0,,,64,0
355920,note_on,15,0,1,,,,,,,,0,,,81,64
355920,note_on,0,0,1,,,,,,,,0,,,73,64
356125,note_on,445,0,5,,,,,,,,4,,,45,0
356125,note_on,445,0,6,,,,,,,,5,,,45,0
356145,note_on,0,0,1,,,,,,,,0,,,81,0
356145,note_on,225,0,1,,,,,,,,0,,,73,0
356160,note_on,15,0,1,,,,,,,,0,,,76,64
356160,note_on,0,0,1,,,,,,,,0,,,73,64
356385,note_on,225,0,1,,,,,,,,0,,,73,0
356385,note_on,0,0,1,,,,,,,,0,,,76,0
356400,note_on,15,0,1,,,,,,,,0,,,76,64
356400,note_on,0,0,1,,,,,,,,0,,,69,64
356625,note_on,225,0,1,,,,,,,,0,,,69,0
356625,note_on,0,0,1,,,,,,,,0,,,76,0
356640,note_on,15,0,1,,,,,,,,0,,,69,64
356640,note_on,0,0,1,,,,,,,,0,,,64,64
356865,note_on,0,0,1,,,,,,,,0,,,69,0
356865,note_on,225,0,1,,,,,,,,0,,,64,0
356880,note_on,15,0,1,,,,,,,,0,,,64,64
356880,note_on,0,0,1,,,,,,,,0,,,61,64
357105,note_on,225,0,1,,,,,,,,0,,,61,0
357105,note_on,0,0,1,,,,,,,,0,,,64,0
357120,note_on,15,0,1,,,,,,,,0,,,64,64
357120,note_on,0,0,1,,,,,,,,0,,,57,64
357120,note_on,995,0,5,,,,,,,,4,,,45,49
357120,note_on,995,0,6,,,,,,,,5,,,45,49
357345,note_on,225,0,5,,,,,,,,4,,,45,0
357345,note_on,225,0,6,,,,,,,,5,,,45,0
357360,note_on,15,0,5,,,,,,,,4,,,57,49
357360,note_on,15,0,6,,,,,,,,5,,,57,49
357565,note_on,0,0,1,,,,,,,,0,,,64,0
357565,note_on,445,0,1,,,,,,,,0,,,57,0
357585,note_on,225,0,6,,,,,,,,5,,,57,0
357585,note_on,225,0,5,,,,,,,,4,,,57,0
357600,note_on,15,0,6,,,,,,,,5,,,45,49
357600,note_on,15,0,5,,,,,,,,4,,,45,49
357720,note_on,155,0,1,,,,,,,,0,,,81,106
357835,note_on,115,0,1,,,,,,,,0,,,81,0
357840,note_on,5,0,1,,,,,,,,0,,,76,106
357955,note_on,115,0,1,,,,,,,,0,,,76,0
357960,note_on,5,0,1,,,,,,,,0,,,74,106
358045,note_on,445,0,6,,,,,,,,5,,,45,0
358045,note_on,445,0,5,,,,,,,,4,,,45,0
358075,note_on,115,0,1,,,,,,,,0,,,74,0
358080,note_on,5,0,1,,,,,,,,0,,,73,106
358195,note_on,115,0,1,,,,,,,,0,,,73,0
358200,note_on,5,0,1,,,,,,,,0,,,69,106
358315,note_on,115,0,1,,,,,,,,0,,,69,0
358320,note_on,5,0,1,,,,,,,,0,,,74,106
358435,note_on,115,0,1,,,,,,,,0,,,74,0
358440,note_on,5,0,1,,,,,,,,0,,,69,106
358555,note_on,115,0,1,,,,,,,,0,,,69,0
358560,note_on,5,0,1,,,,,,,,0,,,76,106
358675,note_on,115,0,1,,,,,,,,0,,,76,0
358680,note_on,5,0,1,,,,,,,,0,,,69,106
358795,note_on,115,0,1,,,,,,,,0,,,69,0
358800,note_on,5,0,1,,,,,,,,0,,,77,106
358915,note_on,115,0,1,,,,,,,,0,,,77,0
358920,note_on,5,0,1,,,,,,,,0,,,69,106
359035,note_on,115,0,1,,,,,,,,0,,,69,0
359040,note_on,5,0,1,,,,,,,,0,,,79,106
359155,note_on,115,0,1,,,,,,,,0,,,79,0
359160,note_on,5,0,1,,,,,,,,0,,,69,106
359275,note_on,115,0,1,,,,,,,,0,,,69,0
359280,note_on,5,0,1,,,,,,,,0,,,81,106
359395,note_on,115,0,1,,,,,,,,0,,,81,0
359400,note_on,5,0,1,,,,,,,,0,,,69,106
359515,note_on,115,0,1,,,,,,,,0,,,69,0
359520,note_on,5,0,1,,,,,,,,0,,,83,106
359635,note_on,115,0,1,,,,,,,,0,,,83,0
359640,note_on,5,0,1,,,,,,,,0,,,69,106
359755,note_on,115,0,1,,,,,,,,0,,,69,0
359760,note_on,5,0,1,,,,,,,,0,,,85,106
359875,note_on,115,0,1,,,,,,,,0,,,85,0
359880,note_on,5,0,1,,,,,,,,0,,,69,106
359995,note_on,115,0,1,,,,,,,,0,,,69,0
360000,note_on,5,0,1,,,,,,,,0,,,86,106
360000,note_on,1955,0,6,,,,,,,,5,,,50,49
360000,note_on,1955,0,5,,,,,,,,4,,,50,49
360225,note_on,225,0,1,,,,,,,,0,,,86,0
360240,note_on,15,0,1,,,,,,,,0,,,74,106
360445,note_on,445,0,6,,,,,,,,5,,,50,0
360445,note_on,445,0,5,,,,,,,,4,,,50,0
360465,note_on,225,0,1,,,,,,,,0,,,74,0
360480,note_on,15,0,1,,,,,,,,0,,,77,106
360480,note_on,35,0,5,,,,,,,,4,,,57,49
360480,note_on,35,0,6,,,,,,,,5,,,57,49
360540,note_on,0,0,1,,,,,,,,0,,,76,106
360540,note_on,60,0,1,,,,,,,,0,,,77,0
360600,note_on,60,0,1,,,,,,,,0,,,76,0
360600,note_on,0,0,1,,,,,,,,0,,,77,106
360660,note_on,60,0,1,,,,,,,,0,,,77,0
360660,note_on,0,0,1,,,,,,,,0,,,76,106
360720,note_on,60,0,1,,,,,,,,0,,,76,0
360720,note_on,0,0,1,,,,,,,,0,,,77,106
360780,note_on,60,0,1,,,,,,,,0,,,77,0
360780,note_on,0,0,1,,,,,,,,0,,,76,106
360840,note_on,60,0,1,,,,,,,,0,,,76,0
360840,note_on,0,0,1,,,,,,,,0,,,77,106
360900,note_on,60,0,1,,,,,,,,0,,,77,0
360900,note_on,0,0,1,,,,,,,,0,,,76,106
360925,note_on,445,0,5,,,,,,,,4,,,57,0
360925,note_on,445,0,6,,,,,,,,5,,,57,0
360960,note_on,35,0,5,,,,,,,,4,,,45,49
360960,note_on,35,0,6,,,,,,,,5,,,45,49
361185,note_on,285,0,1,,,,,,,,0,,,76,0
361200,note_on,15,0,1,,,,,,,,0,,,74,106
361405,note_on,445,0,6,,,,,,,,5,,,45,0
361405,note_on,445,0,5,,,,,,,,4,,,45,0
361425,note_on,225,0,1,,,,,,,,0,,,74,0
361440,note_on,15,0,1,,,,,,,,0,,,74,106
361440,note_on,32675,0,3,,,,,,,,2,,,77,85
361440,note_on,35,0,5,,,,,,,,4,,,50,85
361440,note_on,32675,0,4,,,,,,,,3,,,69,85
361440,note_on,35,0,6,,,,,,,,5,,,50,85
361665,note_on,225,0,5,,,,,,,,4,,,50,0
361665,note_on,225,0,4,,,,,,,,3,,,69,0
361665,note_on,225,0,6,,,,,,,,5,,,50,0
361680,note_on,15,0,5,,,,,,,,4,,,62,85
361680,note_on,15,0,4,,,,,,,,3,,,65,85
361680,note_on,15,0,6,,,,,,,,5,,,62,85
361795,note_on,115,0,4,,,,,,,,3,,,65,0
361795,note_on,115,0,5,,,,,,,,4,,,62,0
361795,note_on,115,0,6,,,,,,,,5,,,62,0
361800,note_on,5,0,5,,,,,,,,4,,,64,85
361800,note_on,5,0,6,,,,,,,,5,,,64,85
361800,note_on,5,0,4,,,,,,,,3,,,67,85
361885,note_on,445,0,1,,,,,,,,0,,,74,0
361915,note_on,115,0,6,,,,,,,,5,,,64,0
361915,note_on,115,0,5,,,,,,,,4,,,64,0
361915,note_on,115,0,4,,,,,,,,3,,,67,0
361920,note_on,5,0,6,,,,,,,,5,,,65,85
361920,note_on,5,0,4,,,,,,,,3,,,69,85
361920,note_on,5,0,5,,,,,,,,4,,,65,85
362145,note_on,225,0,4,,,,,,,,3,,,69,0
362145,note_on,225,0,6,,,,,,,,5,,,65,0
362145,note_on,225,0,5,,,,,,,,4,,,65,0
362160,note_on,15,0,4,,,,,,,,3,,,67,85
362160,note_on,15,0,6,,,,,,,,5,,,64,85
362160,note_on,15,0,5,,,,,,,,4,,,64,85
362385,note_on,225,0,5,,,,,,,,4,,,64,0
362385,note_on,225,0,6,,,,,,,,5,,,64,0
362385,note_on,225,0,4,,,,,,,,3,,,67,0
362400,note_on,15,0,5,,,,,,,,4,,,65,85
362400,note_on,15,0,6,,,,,,,,5,,,65,85
362400,note_on,15,0,4,,,,,,,,3,,,69,85
362625,note_on,225,0,5,,,,,,,,4,,,65,0
362625,note_on,225,0,6,,,,,,,,5,,,65,0
362625,note_on,225,0,4,,,,,,,,3,,,69,0
362640,note_on,15,0,6,,,,,,,,5,,,62,85
362640,note_on,15,0,5,,,,,,,,4,,,62,85
362640,note_on,15,0,4,,,,,,,,3,,,65,85
362865,note_on,225,0,4,,,,,,,,3,,,65,0
362865,note_on,225,0,6,,,,,,,,5,,,62,0
362865,note_on,225,0,5,,,,,,,,4,,,62,0
362880,note_on,15,0,4,,,,,,,,3,,,62,85
362880,note_on,995,0,1,,,,,,,,0,,,82,64
362880,note_on,15,0,6,,,,,,,,5,,,55,85
362880,note_on,15,0,5,,,,,,,,4,,,55,85
362880,note_on,31235,0,2,,,,,,,,1,,,82,85
363105,note_on,225,0,6,,,,,,,,5,,,55,0
363105,note_on,225,0,5,,,,,,,,4,,,55,0
363105,note_on,1665,0,3,,,,,,,,2,,,77,0
363120,note_on,15,0,5,,,,,,,,4,,,55,85
363120,note_on,15,0,3,,,,,,,,2,,,70,85
363120,note_on,15,0,6,,,,,,,,5,,,55,85
363235,note_on,115,0,3,,,,,,,,2,,,70,0
363235,note_on,115,0,5,,,,,,,,4,,,55,0
363235,note_on,115,0,6,,,,,,,,5,,,55,0
363240,note_on,5,0,6,,,,,,,,5,,,57,85
363240,note_on,5,0,5,,,,,,,,4,,,57,85
363240,note_on,5,0,3,,,,,,,,2,,,72,85
363355,note_on,115,0,5,,,,,,,,4,,,57,0
363355,note_on,115,0,3,,,,,,,,2,,,72,0
363355,note_on,115,0,6,,,,,,,,5,,,57,0
363360,note_on,5,0,5,,,,,,,,4,,,58,85
363360,note_on,5,0,6,,,,,,,,5,,,58,85
363360,note_on,5,0,3,,,,,,,,2,,,74,85
363585,note_on,225,0,5,,,,,,,,4,,,58,0
363585,note_on,225,0,6,,,,,,,,5,,,58,0
363585,note_on,225,0,3,,,,,,,,2,,,74,0
363600,note_on,15,0,5,,,,,,,,4,,,57,85
363600,note_on,15,0,6,,,,,,,,5,,,57,85
363600,note_on,15,0,3,,,,,,,,2,,,72,85
363765,note_on,885,0,4,,,,,,,,3,,,62,0
363825,note_on,225,0,3,,,,,,,,2,,,72,0
363825,note_on,225,0,6,,,,,,,,5,,,57,0
363825,note_on,225,0,5,,,,,,,,4,,,57,0
363840,note_on,15,0,3,,,,,,,,2,,,74,85
363840,note_on,75,0,4,,,,,,,,3,,,70,85
363840,note_on,15,0,6,,,,,,,,5,,,58,85
363840,note_on,15,0,5,,,,,,,,4,,,58,85
364065,note_on,225,0,5,,,,,,,,4,,,58,0
364065,note_on,225,0,3,,,,,,,,2,,,74,0
364065,note_on,225,0,6,,,,,,,,5,,,58,0
364080,note_on,15,0,6,,,,,,,,5,,,55,85
364080,note_on,15,0,3,,,,,,,,2,,,70,85
364080,note_on,15,0,5,,,,,,,,4,,,55,85
364285,note_on,445,0,4,,,,,,,,3,,,70,0
364305,note_on,225,0,5,,,,,,,,4,,,55,0
364305,note_on,225,0,3,,,,,,,,2,,,70,0
364305,note_on,225,0,6,,,,,,,,5,,,55,0
364320,note_on,15,0,5,,,,,,,,4,,,60,85
364320,note_on,15,0,6,,,,,,,,5,,,60,85
364320,note_on,15,0,3,,,,,,,,2,,,76,85
364320,note_on,35,0,4,,,,,,,,3,,,67,85
364545,note_on,1665,0,2,,,,,,,,1,,,82,0
364545,note_on,1665,0,1,,,,,,,,0,,,82,0
364545,note_on,225,0,6,,,,,,,,5,,,60,0
364545,note_on,225,0,5,,,,,,,,4,,,60,0
364560,note_on,15,0,1,,,,,,,,0,,,76,64
364560,note_on,15,0,2,,,,,,,,1,,,76,85
364560,note_on,15,0,5,,,,,,,,4,,,60,85
364560,note_on,15,0,6,,,,,,,,5,,,60,85
364675,note_on,115,0,6,,,,,,,,5,,,60,0
364675,note_on,115,0,1,,,,,,,,0,,,76,0
364675,note_on,115,0,5,,,,,,,,4,,,60,0
364675,note_on,115,0,2,,,,,,,,1,,,76,0
364680,note_on,5,0,6,,,,,,,,5,,,62,85
364680,note_on,5,0,1,,,,,,,,0,,,77,64
364680,note_on,5,0,5,,,,,,,,4,,,62,85
364680,note_on,5,0,2,,,,,,,,1,,,77,85
364795,note_on,115,0,5,,,,,,,,4,,,62,0
364795,note_on,115,0,6,,,,,,,,5,,,62,0
364795,note_on,115,0,1,,,,,,,,0,,,77,0
364795,note_on,115,0,2,,,,,,,,1,,,77,0
364800,note_on,5,0,6,,,,,,,,5,,,64,85
364800,note_on,5,0,5,,,,,,,,4,,,64,85
364800,note_on,5,0,2,,,,,,,,1,,,79,85
364800,note_on,5,0,1,,,,,,,,0,,,79,64
365025,note_on,225,0,6,,,,,,,,5,,,64,0
365025,note_on,225,0,1,,,,,,,,0,,,79,0
365025,note_on,225,0,5,,,,,,,,4,,,64,0
365025,note_on,225,0,2,,,,,,,,1,,,79,0
365040,note_on,15,0,6,,,,,,,,5,,,62,85
365040,note_on,15,0,2,,,,,,,,1,,,77,85
365040,note_on,15,0,1,,,,,,,,0,,,77,64
365040,note_on,15,0,5,,,,,,,,4,,,62,85
365205,note_on,885,0,4,,,,,,,,3,,,67,0
365265,note_on,225,0,2,,,,,,,,1,,,77,0
365265,note_on,225,0,6,,,,,,,,5,,,62,0
365265,note_on,225,0,1,,,,,,,,0,,,77,0
365265,note_on,225,0,5,,,,,,,,4,,,62,0
365280,note_on,15,0,2,,,,,,,,1,,,79,85
365280,note_on,15,0,6,,,,,,,,5,,,64,85
365280,note_on,15,0,1,,,,,,,,0,,,79,64
365280,note_on,75,0,4,,,,,,,,3,,,64,85
365280,note_on,15,0,5,,,,,,,,4,,,64,85
365505,note_on,225,0,1,,,,,,,,0,,,79,0
365505,note_on,225,0,5,,,,,,,,4,,,64,0
365505,note_on,225,0,2,,,,,,,,1,,,79,0
365505,note_on,225,0,6,,,,,,,,5,,,64,0
365520,note_on,15,0,1,,,,,,,,0,,,76,64
365520,note_on,15,0,5,,,,,,,,4,,,60,85
365520,note_on,15,0,2,,,,,,,,1,,,76,85
365520,note_on,15,0,6,,,,,,,,5,,,60,85
365725,note_on,445,0,4,,,,,,,,3,,,64,0
365745,note_on,225,0,1,,,,,,,,0,,,76,0
365745,note_on,225,0,5,,,,,,,,4,,,60,0
365745,note_on,225,0,2,,,,,,,,1,,,76,0
365745,note_on,225,0,6,,,,,,,,5,,,60,0
365760,note_on,15,0,6,,,,,,,,5,,,53,85
365760,note_on,15,0,2,,,,,,,,1,,,81,85
365760,note_on,15,0,5,,,,,,,,4,,,53,85
365760,note_on,35,0,4,,,,,,,,3,,,60,85
365760,note_on,15,0,1,,,,,,,,0,,,81,64
365985,note_on,225,0,5,,,,,,,,4,,,53,0
365985,note_on,225,0,6,,,,,,,,5,,,53,0
365985,note_on,1665,0,3,,,,,,,,2,,,76,0
366000,note_on,15,0,5,,,,,,,,4,,,53,85
366000,note_on,15,0,3,,,,,,,,2,,,69,85
366000,note_on,15,0,6,,,,,,,,5,,,53,85
366115,note_on,115,0,5,,,,,,,,4,,,53,0
366115,note_on,115,0,3,,,,,,,,2,,,69,0
366115,note_on,115,0,6,,,,,,,,5,,,53,0
366120,note_on,5,0,3,,,,,,,,2,,,70,85
366120,note_on,5,0,6,,,,,,,,5,,,55,85
366120,note_on,5,0,5,,,,,,,,4,,,55,85
366235,note_on,115,0,5,,,,,,,,4,,,55,0
366235,note_on,115,0,6,,,,,,,,5,,,55,0
366235,note_on,115,0,3,,,,,,,,2,,,70,0
366240,note_on,5,0,3,,,,,,,,2,,,72,85
366240,note_on,5,0,5,,,,,,,,4,,,57,85
366240,note_on,5,0,6,,,,,,,,5,,,57,85
366465,note_on,225,0,6,,,,,,,,5,,,57,0
366465,note_on,225,0,5,,,,,,,,4,,,57,0
366465,note_on,225,0,3,,,,,,,,2,,,72,0
366480,note_on,15,0,6,,,,,,,,5,,,55,85
366480,note_on,15,0,5,,,,,,,,4,,,55,85
366480,note_on,15,0,3,,,,,,,,2,,,70,85
366645,note_on,885,0,4,,,,,,,,3,,,60,0
366705,note_on,225,0,5,,,,,,,,4,,,55,0
366705,note_on,225,0,3,,,,,,,,2,,,70,0
366705,note_on,225,0,6,,,,,,,,5,,,55,0
366720,note_on,75,0,4,,,,,,,,3,,,69,85
366720,note_on,15,0,6,,,,,,,,5,,,57,85
366720,note_on,15,0,3,,,,,,,,2,,,72,85
366720,note_on,15,0,5,,,,,,,,4,,,57,85
366945,note_on,225,0,6,,,,,,,,5,,,57,0
366945,note_on,225,0,5,,,,,,,,4,,,57,0
366945,note_on,225,0,3,,,,,,,,2,,,72,0
366960,note_on,15,0,6,,,,,,,,5,,,53,85
366960,note_on,15,0,3,,,,,,,,2,,,69,85
366960,note_on,15,0,5,,,,,,,,4,,,53,85
367165,note_on,445,0,4,,,,,,,,3,,,69,0
367185,note_on,225,0,6,,,,,,,,5,,,53,0
367185,note_on,225,0,3,,,,,,,,2,,,69,0
367185,note_on,225,0,5,,,,,,,,4,,,53,0
367200,note_on,15,0,5,,,,,,,,4,,,58,85
367200,note_on,15,0,3,,,,,,,,2,,,74,85
367200,note_on,35,0,4,,,,,,,,3,,,65,85
367200,note_on,15,0,6,,,,,,,,5,,,58,85
367425,note_on,1665,0,2,,,,,,,,1,,,81,0
367425,note_on,1665,0,1,,,,,,,,0,,,81,0
367425,note_on,225,0,5,,,,,,,,4,,,58,0
367425,note_on,225,0,6,,,,,,,,5,,,58,0
367440,note_on,15,0,6,,,,,,,,5,,,58,85
367440,note_on,15,0,1,,,,,,,,0,,,74,64
367440,note_on,15,0,5,,,,,,,,4,,,58,85
367440,note_on,15,0,2,,,,,,,,1,,,74,85
367555,note_on,115,0,2,,,,,,,,1,,,74,0
367555,note_on,115,0,6,,,,,,,,5,,,58,0
367555,note_on,115,0,1,,,,,,,,0,,,74,0
367555,note_on,115,0,5,,,,,,,,4,,,58,0
367560,note_on,5,0,2,,,,,,,,1,,,76,85
367560,note_on,5,0,1,,,,,,,,0,,,76,64
367560,note_on,5,0,6,,,,,,,,5,,,60,85
367560,note_on,5,0,5,,,,,,,,4,,,60,85
367675,note_on,115,0,1,,,,,,,,0,,,76,0
367675,note_on,115,0,6,,,,,,,,5,,,60,0
367675,note_on,115,0,5,,,,,,,,4,,,60,0
367675,note_on,115,0,2,,,,,,,,1,,,76,0
367680,note_on,5,0,2,,,,,,,,1,,,77,85
367680,note_on,5,0,6,,,,,,,,5,,,62,85
367680,note_on,5,0,5,,,,,,,,4,,,62,85
367680,note_on,5,0,1,,,,,,,,0,,,77,64
367905,note_on,225,0,6,,,,,,,,5,,,62,0
367905,note_on,225,0,5,,,,,,,,4,,,62,0
367905,note_on,225,0,2,,,,,,,,1,,,77,0
367905,note_on,225,0,1,,,,,,,,0,,,77,0
367920,note_on,15,0,5,,,,,,,,4,,,60,85
367920,note_on,15,0,6,,,,,,,,5,,,60,85
367920,note_on,15,0,2,,,,,,,,1,,,76,85
367920,note_on,15,0,1,,,,,,,,0,,,76,64
368085,note_on,885,0,4,,,,,,,,3,,,65,0
368145,note_on,225,0,6,,,,,,,,5,,,60,0
368145,note_on,225,0,2,,,,,,,,1,,,76,0
368145,note_on,225,0,5,,,,,,,,4,,,60,0
368145,note_on,225,0,1,,,,,,,,0,,,76,0
368160,note_on,15,0,1,,,,,,,,0,,,77,64
368160,note_on,15,0,2,,,,,,,,1,,,77,85
368160,note_on,15,0,5,,,,,,,,4,,,62,85
368160,note_on,75,0,4,,,,,,,,3,,,62,85
368160,note_on,15,0,6,,,,,,,,5,,,62,85
368385,note_on,225,0,2,,,,,,,,1,,,77,0
368385,note_on,225,0,6,,,,,,,,5,,,62,0
368385,note_on,225,0,1,,,,,,,,0,,,77,0
368385,note_on,225,0,5,,,,,,,,4,,,62,0
368400,note_on,15,0,5,,,,,,,,4,,,58,85
368400,note_on,15,0,6,,,,,,,,5,,,58,85
368400,note_on,15,0,2,,,,,,,,1,,,74,85
368400,note_on,15,0,1,,,,,,,,0,,,74,64
368605,note_on,445,0,4,,,,,,,,3,,,62,0
368625,note_on,225,0,1,,,,,,,,0,,,74,0
368625,note_on,225,0,2,,,,,,,,1,,,74,0
368625,note_on,225,0,5,,,,,,,,4,,,58,0
368625,note_on,225,0,6,,,,,,,,5,,,58,0
368640,note_on,15,0,2,,,,,,,,1,,,79,85
368640,note_on,35,0,4,,,,,,,,3,,,58,85
368640,note_on,15,0,5,,,,,,,,4,,,52,85
368640,note_on,15,0,1,,,,,,,,0,,,79,64
368640,note_on,15,0,6,,,,,,,,5,,,52,85
368865,note_on,225,0,5,,,,,,,,4,,,52,0
368865,note_on,225,0,6,,,,,,,,5,,,52,0
368865,note_on,1665,0,3,,,,,,,,2,,,74,0
368880,note_on,15,0,5,,,,,,,,4,,,52,85
368880,note_on,15,0,3,,,,,,,,2,,,67,85
368880,note_on,15,0,6,,,,,,,,5,,,52,85
368995,note_on,115,0,6,,,,,,,,5,,,52,0
368995,note_on,115,0,5,,,,,,,,4,,,52,0
368995,note_on,115,0,3,,,,,,,,2,,,67,0
369000,note_on,5,0,6,,,,,,,,5,,,53,85
369000,note_on,5,0,5,,,,,,,,4,,,53,85
369000,note_on,5,0,3,,,,,,,,2,,,69,85
369115,note_on,115,0,5,,,,,,,,4,,,53,0
369115,note_on,115,0,3,,,,,,,,2,,,69,0
369115,note_on,115,0,6,,,,,,,,5,,,53,0
369120,note_on,5,0,3,,,,,,,,2,,,70,85
369120,note_on,5,0,5,,,,,,,,4,,,55,85
369120,note_on,5,0,6,,,,,,,,5,,,55,85
369345,note_on,225,0,6,,,,,,,,5,,,55,0
369345,note_on,225,0,3,,,,,,,,2,,,70,0
369345,note_on,225,0,5,,,,,,,,4,,,55,0
369360,note_on,15,0,5,,,,,,,,4,,,53,85
369360,note_on,15,0,6,,,,,,,,5,,,53,85
369360,note_on,15,0,3,,,,,,,,2,,,69,85
369525,note_on,885,0,4,,,,,,,,3,,,58,0
369585,note_on,225,0,6,,,,,,,,5,,,53,0
369585,note_on,225,0,3,,,,,,,,2,,,69,0
369585,note_on,225,0,5,,,,,,,,4,,,53,0
369600,note_on,15,0,6,,,,,,,,5,,,55,85
369600,note_on,75,0,4,,,,,,,,3,,,67,85
369600,note_on,15,0,3,,,,,,,,2,,,70,85
369600,note_on,15,0,5,,,,,,,,4,,,55,85
369825,note_on,225,0,3,,,,,,,,2,,,70,0
369825,note_on,225,0,5,,,,,,,,4,,,55,0
369825,note_on,225,0,6,,,,,,,,5,,,55,0
369840,note_on,15,0,6,,,,,,,,5,,,52,85
369840,note_on,15,0,5,,,,,,,,4,,,52,85
369840,note_on,15,0,3,,,,,,,,2,,,67,85
370045,note_on,445,0,4,,,,,,,,3,,,67,0
370065,note_on,225,0,5,,,,,,,,4,,,52,0
370065,note_on,225,0,6,,,,,,,,5,,,52,0
370065,note_on,225,0,3,,,,,,,,2,,,67,0
370080,note_on,15,0,5,,,,,,,,4,,,45,85
370080,note_on,15,0,3,,,,,,,,2,,,73,85
370080,note_on,35,0,4,,,,,,,,3,,,64,85
370080,note_on,15,0,6,,,,,,,,5,,,45,85
370305,note_on,225,0,6,,,,,,,,5,,,45,0
370305,note_on,225,0,5,,,,,,,,4,,,45,0
370305,note_on,1665,0,2,,,,,,,,1,,,79,0
370305,note_on,1665,0,1,,,,,,,,0,,,79,0
370320,note_on,15,0,6,,,,,,,,5,,,57,85
370320,note_on,15,0,5,,,,,,,,4,,,57,85
370320,note_on,15,0,2,,,,,,,,1,,,73,85
370320,note_on,15,0,1,,,,,,,,0,,,73,64
370435,note_on,115,0,6,,,,,,,,5,,,57,0
370435,note_on,115,0,2,,,,,,,,1,,,73,0
370435,note_on,115,0,1,,,,,,,,0,,,73,0
370435,note_on,115,0,5,,,,,,,,4,,,57,0
370440,note_on,5,0,1,,,,,,,,0,,,74,64
370440,note_on,5,0,2,,,,,,,,1,,,74,85
370440,note_on,5,0,6,,,,,,,,5,,,59,85
370440,note_on,5,0,5,,,,,,,,4,,,59,85
370555,note_on,115,0,6,,,,,,,,5,,,59,0
370555,note_on,115,0,2,,,,,,,,1,,,74,0
370555,note_on,115,0,5,,,,,,,,4,,,59,0
370555,note_on,115,0,1,,,,,,,,0,,,74,0
370560,note_on,5,0,5,,,,,,,,4,,,61,85
370560,note_on,5,0,6,,,,,,,,5,,,61,85
370560,note_on,5,0,2,,,,,,,,1,,,76,85
370560,note_on,5,0,1,,,,,,,,0,,,76,64
370785,note_on,225,0,1,,,,,,,,0,,,76,0
370785,note_on,225,0,5,,,,,,,,4,,,61,0
370785,note_on,225,0,6,,,,,,,,5,,,61,0
370785,note_on,225,0,2,,,,,,,,1,,,76,0
370800,note_on,15,0,2,,,,,,,,1,,,74,85
370800,note_on,15,0,5,,,,,,,,4,,,59,85
370800,note_on,15,0,1,,,,,,,,0,,,74,64
370800,note_on,15,0,6,,,,,,,,5,,,59,85
370965,note_on,885,0,4,,,,,,,,3,,,64,0
371025,note_on,225,0,2,,,,,,,,1,,,74,0
371025,note_on,225,0,6,,,,,,,,5,,,59,0
371025,note_on,225,0,5,,,,,,,,4,,,59,0
371025,note_on,225,0,1,,,,,,,,0,,,74,0
371040,note_on,15,0,5,,,,,,,,4,,,61,85
371040,note_on,75,0,4,,,,,,,,3,,,67,85
371040,note_on,15,0,2,,,,,,,,1,,,76,85
371040,note_on,15,0,6,,,,,,,,5,,,61,85
371040,note_on,15,0,1,,,,,,,,0,,,76,64
371265,note_on,225,0,5,,,,,,,,4,,,61,0
371265,note_on,225,0,2,,,,,,,,1,,,76,0
371265,note_on,225,0,6,,,,,,,,5,,,61,0
371265,note_on,225,0,1,,,,,,,,0,,,76,0
371280,note_on,15,0,2,,,,,,,,1,,,73,85
371280,note_on,15,0,6,,,,,,,,5,,,57,85
371280,note_on,15,0,1,,,,,,,,0,,,73,64
371280,note_on,15,0,5,,,,,,,,4,,,57,85
371485,note_on,445,0,4,,,,,,,,3,,,67,0
371505,note_on,225,0,1,,,,,,,,0,,,73,0
371505,note_on,225,0,2,,,,,,,,1,,,73,0
371505,note_on,225,0,6,,,,,,,,5,,,57,0
371505,note_on,225,0,5,,,,,,,,4,,,57,0
371520,note_on,35,0,4,,,,,,,,3,,,64,85
371520,note_on,15,0,2,,,,,,,,1,,,67,85
371520,note_on,15,0,6,,,,,,,,5,,,45,85
371520,note_on,15,0,1,,,,,,,,0,,,67,64
371520,note_on,15,0,5,,,,,,,,4,,,45,85
371745,note_on,225,0,6,,,,,,,,5,,,45,0
371745,note_on,1665,0,3,,,,,,,,2,,,73,0
371745,note_on,225,0,5,,,,,,,,4,,,45,0
371760,note_on,15,0,3,,,,,,,,2,,,73,85
371760,note_on,15,0,5,,,,,,,,4,,,57,85
371760,note_on,15,0,6,,,,,,,,5,,,57,85
371875,note_on,115,0,6,,,,,,,,5,,,57,0
371875,note_on,115,0,5,,,,,,,,4,,,57,0
371875,note_on,115,0,3,,,,,,,,2,,,73,0
371880,note_on,5,0,6,,,,,,,,5,,,59,85
371880,note_on,5,0,3,,,,,,,,2,,,74,85
371880,note_on,5,0,5,,,,,,,,4,,,59,85
371965,note_on,445,0,2,,,,,,,,1,,,67,0
371965,note_on,445,0,1,,,,,,,,0,,,67,0
371995,note_on,115,0,3,,,,,,,,2,,,74,0
371995,note_on,115,0,5,,,,,,,,4,,,59,0
371995,note_on,115,0,6,,,,,,,,5,,,59,0
372000,note_on,35,0,2,,,,,,,,1,,,73,85
372000,note_on,5,0,5,,,,,,,,4,,,61,85
372000,note_on,35,0,1,,,,,,,,0,,,73,64
372000,note_on,5,0,6,,,,,,,,5,,,61,85
372000,note_on,5,0,3,,,,,,,,2,,,76,85
372225,note_on,225,0,5,,,,,,,,4,,,61,0
372225,note_on,225,0,3,,,,,,,,2,,,76,0
372225,note_on,225,0,6,,,,,,,,5,,,61,0
372240,note_on,15,0,3,,,,,,,,2,,,74,85
372240,note_on,15,0,6,,,,,,,,5,,,59,85
372240,note_on,15,0,5,,,,,,,,4,,,59,85
372405,note_on,885,0,4,,,,,,,,3,,,64,0
372445,note_on,445,0,1,,,,,,,,0,,,73,0
372445,note_on,445,0,2,,,,,,,,1,,,73,0
372465,note_on,225,0,5,,,,,,,,4,,,59,0
372465,note_on,225,0,6,,,,,,,,5,,,59,0
372465,note_on,225,0,3,,,,,,,,2,,,74,0
372480,note_on,15,0,6,,,,,,,,5,,,61,85
372480,note_on,15,0,5,,,,,,,,4,,,61,85
372480,note_on,75,0,4,,,,,,,,3,,,67,85
372480,note_on,35,0,1,,,,,,,,0,,,76,64
372480,note_on,15,0,3,,,,,,,,2,,,76,85
372480,note_on,35,0,2,,,,,,,,1,,,76,85
372705,note_on,225,0,6,,,,,,,,5,,,61,0
372705,note_on,225,0,3,,,,,,,,2,,,76,0
372705,note_on,225,0,5,,,,,,,,4,,,61,0
372720,note_on,15,0,6,,,,,,,,5,,,57,85
372720,note_on,15,0,5,,,,,,,,4,,,57,85
372720,note_on,15,0,3,,,,,,,,2,,,73,85
372925,note_on,445,0,4,,,,,,,,3,,,67,0
372925,note_on,445,0,1,,,,,,,,0,,,76,0
372925,note_on,445,0,2,,,,,,,,1,,,76,0
372945,note_on,225,0,6,,,,,,,,5,,,57,0
372945,note_on,225,0,3,,,,,,,,2,,,73,0
372945,note_on,225,0,5,,,,,,,,4,,,57,0
372960,note_on,35,0,2,,,,,,,,1,,,79,85
372960,note_on,35,0,1,,,,,,,,0,,,79,64
372960,note_on,35,0,4,,,,,,,,3,,,64,85
372960,note_on,15,0,5,,,,,,,,4,,,45,85
372960,note_on,15,0,3,,,,,,,,2,,,67,85
372960,note_on,15,0,6,,,,,,,,5,,,45,85
373185,note_on,225,0,6,,,,,,,,5,,,45,0
373185,note_on,225,0,2,,,,,,,,1,,,79,0
373185,note_on,225,0,1,,,,,,,,0,,,79,0
373185,note_on,225,0,5,,,,,,,,4,,,45,0
373200,note_on,15,0,6,,,,,,,,5,,,57,85
373200,note_on,15,0,2,,,,,,,,1,,,73,85
373200,note_on,15,0,5,,,,,,,,4,,,57,85
373200,note_on,15,0,1,,,,,,,,0,,,73,64
373315,note_on,115,0,2,,,,,,,,1,,,73,0
373315,note_on,115,0,6,,,,,,,,5,,,57,0
373315,note_on,115,0,5,,,,,,,,4,,,57,0
373315,note_on,115,0,1,,,,,,,,0,,,73,0
373320,note_on,5,0,6,,,,,,,,5,,,59,85
373320,note_on,5,0,2,,,,,,,,1,,,74,85
373320,note_on,5,0,5,,,,,,,,4,,,59,85
373320,note_on,5,0,1,,,,,,,,0,,,74,64
373405,note_on,445,0,3,,,,,,,,2,,,67,0
373435,note_on,115,0,1,,,,,,,,0,,,74,0
373435,note_on,115,0,2,,,,,,,,1,,,74,0
373435,note_on,115,0,6,,,,,,,,5,,,59,0
373435,note_on,115,0,5,,,,,,,,4,,,59,0
373440,note_on,35,0,3,,,,,,,,2,,,73,85
373440,note_on,5,0,6,,,,,,,,5,,,61,85
373440,note_on,5,0,5,,,,,,,,4,,,61,85
373440,note_on,5,0,1,,,,,,,,0,,,76,64
373440,note_on,5,0,2,,,,,,,,1,,,76,85
373665,note_on,225,0,5,,,,,,,,4,,,61,0
373665,note_on,225,0,2,,,,,,,,1,,,76,0
373665,note_on,225,0,6,,,,,,,,5,,,61,0
373665,note_on,225,0,1,,,,,,,,0,,,76,0
373680,note_on,15,0,2,,,,,,,,1,,,74,85
373680,note_on,15,0,1,,,,,,,,0,,,74,64
373680,note_on,15,0,6,,,,,,,,5,,,59,85
373680,note_on,15,0,5,,,,,,,,4,,,59,85
373845,note_on,885,0,4,,,,,,,,3,,,64,0
373885,note_on,445,0,3,,,,,,,,2,,,73,0
373905,note_on,225,0,6,,,,,,,,5,,,59,0
373905,note_on,225,0,1,,,,,,,,0,,,74,0
373905,note_on,225,0,2,,,,,,,,1,,,74,0
373905,note_on,225,0,5,,,,,,,,4,,,59,0
373920,note_on,15,0,5,,,,,,,,4,,,61,85
373920,note_on,15,0,1,,,,,,,,0,,,76,64
373920,note_on,15,0,2,,,,,,,,1,,,76,85
373920,note_on,35,0,3,,,,,,,,2,,,76,85
373920,note_on,75,0,4,,,,,,,,3,,,67,85
373920,note_on,15,0,6,,,,,,,,5,,,61,85
374145,note_on,225,0,6,,,,,,,,5,,,61,0
374145,note_on,225,0,2,,,,,,,,1,,,76,0
374145,note_on,225,0,5,,,,,,,,4,,,61,0
374145,note_on,225,0,1,,,,,,,,0,,,76,0
374160,note_on,15,0,1,,,,,,,,0,,,73,64
374160,note_on,15,0,5,,,,,,,,4,,,57,85
374160,note_on,15,0,6,,,,,,,,5,,,57,85
374160,note_on,15,0,2,,,,,,,,1,,,73,85
374365,note_on,445,0,4,,,,,,,,3,,,67,0
374365,note_on,445,0,3,,,,,,,,2,,,76,0
374385,note_on,225,0,1,,,,,,,,0,,,73,0
374385,note_on,225,0,6,,,,,,,,5,,,57,0
374385,note_on,225,0,5,,,,,,,,4,,,57,0
374385,note_on,225,0,2,,,,,,,,1,,,73,0
374400,note_on,15,0,1,,,,,,,,0,,,67,64
374400,note_on,35,0,4,,,,,,,,3,,,64,85
374400,note_on,15,0,5,,,,,,,,4,,,45,85
374400,note_on,15,0,2,,,,,,,,1,,,67,85
374400,note_on,15,0,6,,,,,,,,5,,,45,85
374400,note_on,35,0,3,,,,,,,,2,,,79,85
374625,note_on,225,0,5,,,,,,,,4,,,45,0
374625,note_on,225,0,6,,,,,,,,5,,,45,0
374625,note_on,225,0,3,,,,,,,,2,,,79,0
374640,note_on,15,0,5,,,,,,,,4,,,57,85
374640,note_on,15,0,6,,,,,,,,5,,,57,85
374640,note_on,15,0,3,,,,,,,,2,,,73,85
374755,note_on,115,0,6,,,,,,,,5,,,57,0
374755,note_on,115,0,5,,,,,,,,4,,,57,0
374755,note_on,115,0,3,,,,,,,,2,,,73,0
374760,note_on,5,0,3,,,,,,,,2,,,74,85
374760,note_on,5,0,5,,,,,,,,4,,,59,85
374760,note_on,5,0,6,,,,,,,,5,,,59,85
374845,note_on,445,0,2,,,,,,,,1,,,67,0
374845,note_on,445,0,1,,,,,,,,0,,,67,0
374875,note_on,115,0,6,,,,,,,,5,,,59,0
374875,note_on,115,0,3,,,,,,,,2,,,74,0
374875,note_on,115,0,5,,,,,,,,4,,,59,0
374880,note_on,35,0,1,,,,,,,,0,,,73,64
374880,note_on,5,0,3,,,,,,,,2,,,76,85
374880,note_on,5,0,5,,,,,,,,4,,,61,85
374880,note_on,5,0,6,,,,,,,,5,,,61,85
374880,note_on,35,0,2,,,,,,,,1,,,73,85
375105,note_on,225,0,3,,,,,,,,2,,,76,0
375105,note_on,225,0,6,,,,,,,,5,,,61,0
375105,note_on,225,0,5,,,,,,,,4,,,61,0
375120,note_on,15,0,3,,,,,,,,2,,,74,85
375120,note_on,15,0,5,,,,,,,,4,,,59,85
375120,note_on,15,0,6,,,,,,,,5,,,59,85
375285,note_on,885,0,4,,,,,,,,3,,,64,0
375325,note_on,445,0,2,,,,,,,,1,,,73,0
375325,note_on,445,0,1,,,,,,,,0,,,73,0
375345,note_on,225,0,6,,,,,,,,5,,,59,0
375345,note_on,225,0,3,,,,,,,,2,,,74,0
375345,note_on,225,0,5,,,,,,,,4,,,59,0
375360,note_on,15,0,3,,,,,,,,2,,,76,85
375360,note_on,35,0,1,,,,,,,,0,,,76,64
375360,note_on,75,0,4,,,,,,,,3,,,67,85
375360,note_on,15,0,6,,,,,,,,5,,,61,85
375360,note_on,35,0,2,,,,,,,,1,,,76,85
375360,note_on,15,0,5,,,,,,,,4,,,61,85
375585,note_on,225,0,3,,,,,,,,2,,,76,0
375585,note_on,225,0,6,,,,,,,,5,,,61,0
375585,note_on,225,0,5,,,,,,,,4,,,61,0
375600,note_on,15,0,6,,,,,,,,5,,,57,85
375600,note_on,15,0,5,,,,,,,,4,,,57,85
375600,note_on,15,0,3,,,,,,,,2,,,73,85
375805,note_on,445,0,4,,,,,,,,3,,,67,0
375805,note_on,445,0,2,,,,,,,,1,,,76,0
375805,note_on,445,0,1,,,,,,,,0,,,76,0
375825,note_on,225,0,6,,,,,,,,5,,,57,0
375825,note_on,225,0,5,,,,,,,,4,,,57,0
375825,note_on,225,0,3,,,,,,,,2,,,73,0
375840,note_on,15,0,6,,,,,,,,5,,,45,85
375840,note_on,35,0,2,,,,,,,,1,,,79,85
375840,note_on,15,0,3,,,,,,,,2,,,76,85
375840,note_on,15,0,5,,,,,,,,4,,,45,85
375840,note_on,35,0,4,,,,,,,,3,,,61,85
375840,note_on,35,0,1,,,,,,,,0,,,79,64
376065,note_on,225,0,3,,,,,,,,2,,,76,0
376065,note_on,225,0,2,,,,,,,,1,,,79,0
376065,note_on,225,0,1,,,,,,,,0,,,79,0
376080,note_on,15,0,2,,,,,,,,1,,,76,85
376080,note_on,15,0,1,,,,,,,,0,,,76,64
376080,note_on,15,0,3,,,,,,,,2,,,73,85
376195,note_on,115,0,2,,,,,,,,1,,,76,0
376195,note_on,115,0,3,,,,,,,,2,,,73,0
376195,note_on,115,0,1,,,,,,,,0,,,76,0
376200,note_on,5,0,2,,,,,,,,1,,,77,85
376200,note_on,5,0,1,,,,,,,,0,,,77,64
376200,note_on,5,0,3,,,,,,,,2,,,74,85
376285,note_on,445,0,6,,,,,,,,5,,,45,0
376285,note_on,445,0,4,,,,,,,,3,,,61,0
376285,note_on,445,0,5,,,,,,,,4,,,45,0
376315,note_on,115,0,1,,,,,,,,0,,,77,0
376315,note_on,115,0,3,,,,,,,,2,,,74,0
376315,note_on,115,0,2,,,,,,,,1,,,77,0
376320,note_on,35,0,6,,,,,,,,5,,,45,85
376320,note_on,35,0,4,,,,,,,,3,,,61,85
376320,note_on,35,0,5,,,,,,,,4,,,45,85
376320,note_on,5,0,1,,,,,,,,0,,,79,64
376320,note_on,5,0,2,,,,,,,,1,,,79,85
376320,note_on,5,0,3,,,,,,,,2,,,76,85
376545,note_on,225,0,1,,,,,,,,0,,,79,0
376545,note_on,225,0,2,,,,,,,,1,,,79,0
376545,note_on,225,0,3,,,,,,,,2,,,76,0
376560,note_on,15,0,3,,,,,,,,2,,,74,85
376560,note_on,15,0,1,,,,,,,,0,,,77,64
376560,note_on,15,0,2,,,,,,,,1,,,77,85
376765,note_on,445,0,4,,,,,,,,3,,,61,0
376765,note_on,445,0,5,,,,,,,,4,,,45,0
376765,note_on,445,0,6,,,,,,,,5,,,45,0
376785,note_on,225,0,1,,,,,,,,0,,,77,0
376785,note_on,225,0,2,,,,,,,,1,,,77,0
376785,note_on,225,0,3,,,,,,,,2,,,74,0
376800,note_on,35,0,6,,,,,,,,5,,,45,85
376800,note_on,15,0,3,,,,,,,,2,,,76,85
376800,note_on,15,0,1,,,,,,,,0,,,79,64
376800,note_on,35,0,5,,,,,,,,4,,,45,85
376800,note_on,35,0,4,,,,,,,,3,,,61,85
376800,note_on,15,0,2,,,,,,,,1,,,79,85
377025,note_on,225,0,2,,,,,,,,1,,,79,0
377025,note_on,225,0,3,,,,,,,,2,,,76,0
377025,note_on,225,0,1,,,,,,,,0,,,79,0
377040,note_on,15,0,3,,,,,,,,2,,,73,85
377040,note_on,15,0,2,,,,,,,,1,,,76,85
377040,note_on,15,0,1,,,,,,,,0,,,76,64
377245,note_on,445,0,5,,,,,,,,4,,,45,0
377245,note_on,445,0,4,,,,,,,,3,,,61,0
377245,note_on,445,0,6,,,,,,,,5,,,45,0
377265,note_on,225,0,2,,,,,,,,1,,,76,0
377265,note_on,225,0,3,,,,,,,,2,,,73,0
377265,note_on,225,0,1,,,,,,,,0,,,76,0
377280,note_on,35,0,4,,,,,,,,3,,,57,85
377280,note_on,15,0,2,,,,,,,,1,,,77,85
377280,note_on,35,0,5,,,,,,,,4,,,50,85
377280,note_on,15,0,1,,,,,,,,0,,,77,64
377280,note_on,35,0,6,,,,,,,,5,,,50,85
377280,note_on,15,0,3,,,,,,,,2,,,74,85
377400,note_on,120,0,6,,,,,,,,5,,,50,0
377400,note_on,120,0,2,,,,,,,,1,,,77,0
377400,note_on,120,0,4,,,,,,,,3,,,57,0
377400,note_on,120,0,5,,,,,,,,4,,,50,0
377400,note_on,120,0,1,,,,,,,,0,,,77,0
377400,note_on,120,0,3,,,,,,,,2,,,74,0
377760,note_on,360,0,4,,,,,,,,3,,,70,85
377760,note_on,360,0,5,,,,,,,,4,,,43,85
377760,set_tempo,180480,1,0,,,,,,500000,,,,,,
377760,note_on,360,0,2,,,,,,,,1,,,79,85
377760,note_on,360,0,3,,,,,,,,2,,,76,85
377760,note_on,360,0,1,,,,,,,,0,,,79,64
377760,note_on,360,0,6,,,,,,,,5,,,43,85
377880,note_on,120,0,1,,,,,,,,0,,,79,0
377880,note_on,120,0,3,,,,,,,,2,,,76,0
377880,note_on,120,0,5,,,,,,,,4,,,43,0
377880,note_on,120,0,4,,,,,,,,3,,,70,0
377880,note_on,120,0,6,,,,,,,,5,,,43,0
377880,note_on,120,0,2,,,,,,,,1,,,79,0
378240,note_on,360,0,4,,,,,,,,3,,,69,85
378240,note_on,360,0,1,,,,,,,,0,,,77,64
378240,note_on,360,0,3,,,,,,,,2,,,74,85
378240,note_on,360,0,2,,,,,,,,1,,,77,85
378240,note_on,360,0,5,,,,,,,,4,,,45,85
378240,note_on,360,0,6,,,,,,,,5,,,45,85
378255,note_on,15,0,2,,,,,,,,1,,,77,0
378255,note_on,15,0,1,,,,,,,,0,,,77,0
378255,note_on,15,0,3,,,,,,,,2,,,74,0
378300,note_on,45,0,2,,,,,,,,1,,,76,85
378300,note_on,45,0,1,,,,,,,,0,,,76,64
378300,note_on,45,0,3,,,,,,,,2,,,73,85
378360,note_on,120,0,6,,,,,,,,5,,,45,0
378360,note_on,60,0,1,,,,,,,,0,,,76,0
378360,note_on,0,0,1,,,,,,,,0,,,77,64
378360,note_on,0,0,3,,,,,,,,2,,,74,85
378360,note_on,120,0,5,,,,,,,,4,,,45,0
378360,note_on,0,0,2,,,,,,,,1,,,77,85
378360,note_on,60,0,2,,,,,,,,1,,,76,0
378360,note_on,60,0,3,,,,,,,,2,,,73,0
378360,note_on,120,0,4,,,,,,,,3,,,69,0
378420,note_on,0,0,3,,,,,,,,2,,,73,85
378420,note_on,0,0,2,,,,,,,,1,,,76,85
378420,note_on,60,0,2,,,,,,,,1,,,77,0
378420,note_on,60,0,1,,,,,,,,0,,,77,0
378420,note_on,60,0,3,,,,,,,,2,,,74,0
378420,note_on,0,0,1,,,,,,,,0,,,76,64
378480,note_on,0,0,2,,,,,,,,1,,,77,85
378480,note_on,60,0,2,,,,,,,,1,,,76,0
378480,note_on,60,0,3,,,,,,,,2,,,73,0
378480,note_on,0,0,3,,,,,,,,2,,,74,85
378480,note_on,0,0,1,,,,,,,,0,,,77,64
378480,note_on,60,0,1,,,,,,,,0,,,76,0
378540,note_on,0,0,2,,,,,,,,1,,,76,85
378540,note_on,60,0,2,,,,,,,,1,,,77,0
378540,note_on,60,0,3,,,,,,,,2,,,74,0
378540,note_on,0,0,3,,,,,,,,2,,,73,85
378540,note_on,60,0,1,,,,,,,,0,,,77,0
378540,note_on,0,0,1,,,,,,,,0,,,76,64
378630,note_on,90,0,3,,,,,,,,2,,,73,0
378630,note_on,90,0,1,,,,,,,,0,,,76,0
378630,note_on,90,0,2,,,,,,,,1,,,76,0
379200,note_on,570,0,3,,,,,,,,2,,,74,85
379200,note_on,840,0,4,,,,,,,,3,,,69,85
379200,note_on,570,0,2,,,,,,,,1,,,74,85
379200,end_of_track,0,1,0,,,,,,,,,,,,
379200,note_on,840,0,6,,,,,,,,5,,,50,85
379200,note_on,570,0,1,,,,,,,,0,,,74,64
379200,note_on,840,0,5,,,,,,,,4,,,50,85
379200,set_tempo,1440,1,0,,,,,,666667,,,,,,
380085,end_of_track,0,1,2,,,,,,,,,,,,
380085,note_on,885,0,2,,,,,,,,1,,,74,0
380085,note_on,885,0,1,,,,,,,,0,,,74,0
380085,end_of_track,0,1,3,,,,,,,,,,,,
380085,note_on,885,0,6,,,,,,,,5,,,50,0
380085,end_of_track,0,1,4,,,,,,,,,,,,
380085,note_on,885,0,4,,,,,,,,3,,,69,0
380085,end_of_track,0,1,5,,,,,,,,,,,,
380085,note_on,885,0,5,,,,,,,,4,,,50,0
380085,note_on,885,0,3,,,,,,,,2,,,74,0
380085,end_of_track,0,1,1,,,,,,,,,,,,
380085,end_of_track,0,1,6,,,,,,,,,,,,
