tick,type,time,meta,track,numerator,denominator,clocks_per_click,notated_32nd_notes_per_beat,key,tempo,port,program,channel,control,value,note,velocity
0,track_name,0,1,0,,,,,,,,,,,,,
0,program_change,0,0,3,,,,,,,,48,2,,,,
0,track_name,0,1,3,,,,,,,,,,,,,
0,midi_port,0,1,3,,,,,,,1,,,,,,
0,midi_port,0,1,4,,,,,,,1,,,,,,
0,track_name,0,1,4,,,,,,,,,,,,,
0,program_change,0,0,4,,,,,,,,49,3,,,,
0,control_change,0,0,4,,,,,,,,,3,7,127,,
0,control_change,0,0,4,,,,,,,,,3,10,64,,
0,midi_port,0,1,8,,,,,,,1,,,,,,
0,midi_port,0,1,6,,,,,,,1,,,,,,
0,program_change,0,0,8,,,,,,,,19,7,,,,
0,control_change,0,0,8,,,,,,,,,7,7,127,,
0,control_change,0,0,8,,,,,,,,,7,10,64,,
0,control_change,0,0,7,,,,,,,,,6,10,64,,
0,control_change,0,0,7,,,,,,,,,6,7,127,,
0,program_change,0,0,7,,,,,,,,19,6,,,,
0,track_name,0,1,7,,,,,,,,,,,,,
0,midi_port,0,1,2,,,,,,,1,,,,,,
0,track_name,0,1,2,,,,,,,,,,,,,
0,program_change,0,0,2,,,,,,,,48,1,,,,
0,control_change,0,0,2,,,,,,,,,1,7,127,,
0,control_change,0,0,2,,,,,,,,,1,10,64,,
0,program_change,0,0,6,,,,,,,,49,5,,,,
0,control_change,0,0,3,,,,,,,,,2,7,127,,
0,control_change,0,0,6,,,,,,,,,5,7,127,,
0,control_change,0,0,5,,,,,,,,,4,10,64,,
0,control_change,0,0,5,,,,,,,,,4,7,127,,
0,program_change,0,0,5,,,,,,,,49,4,,,,
0,track_name,0,1,5,,,,,,,,,,,,,
0,midi_port,0,1,5,,,,,,,1,,,,,,
0,midi_port,0,1,7,,,,,,,1,,,,,,
0,control_change,0,0,6,,,,,,,,,5,10,64,,
0,control_change,0,0,3,,,,,,,,,2,10,64,,
0,track_name,0,1,8,,,,,,,,,,,,,
0,track_name,0,1,6,,,,,,,,,,,,,
0,time_signature,0,1,0,4,4,24,8,,,,,,,,,
0,key_signature,0,1,0,,,,,C,,,,,,,,
0,set_tempo,0,1,0,,,,,,500000,,,,,,,
0,end_of_track,0,1,0,,,,,,,,,,,,,
0,midi_port,0,1,1,,,,,,,1,,,,,,
0,control_change,0,0,1,,,,,,,,,0,7,127,,
0,control_change,0,0,1,,,,,,,,,0,10,64,,
0,track_name,0,1,1,,,,,,,,,,,,,
0,program_change,0,0,1,,,,,,,,40,0,,,,
28,note_on,28,0,2,,,,,,,,,1,,,57,67
28,control_change,0,0,1,,,,,,,,,0,10,64,,
28,note_on,28,0,1,,,,,,,,,0,,,57,127
28,note_on,28,0,3,,,,,,,,,2,,,57,64
31,note_on,31,0,4,,,,,,,,,3,,,57,65
32,note_on,32,0,6,,,,,,,,,5,,,45,90
32,note_on,32,0,5,,,,,,,,,4,,,45,90
33,note_on,33,0,7,,,,,,,,,6,,,57,127
33,note_on,33,0,8,,,,,,,,,7,,,45,127
305,note_on,277,0,1,,,,,,,,,0,,,57,0
305,note_on,277,0,2,,,,,,,,,1,,,57,0
312,note_on,284,0,3,,,,,,,,,2,,,57,0
312,note_on,281,0,4,,,,,,,,,3,,,57,0
314,note_on,282,0,5,,,,,,,,,4,,,45,0
314,note_on,281,0,8,,,,,,,,,7,,,45,0
314,note_on,281,0,7,,,,,,,,,6,,,57,0
314,note_on,282,0,6,,,,,,,,,5,,,45,0
358,note_on,46,0,3,,,,,,,,,2,,,64,64
358,note_on,53,0,2,,,,,,,,,1,,,64,65
358,note_on,46,0,4,,,,,,,,,3,,,64,65
358,note_on,53,0,1,,,,,,,,,0,,,64,127
360,note_on,46,0,6,,,,,,,,,5,,,52,90
360,note_on,46,0,8,,,,,,,,,7,,,52,127
360,note_on,46,0,5,,,,,,,,,4,,,52,90
360,note_on,46,0,7,,,,,,,,,6,,,64,127
672,note_on,314,0,3,,,,,,,,,2,,,64,0
672,note_on,314,0,2,,,,,,,,,1,,,64,0
672,note_on,314,0,4,,,,,,,,,3,,,64,0
672,note_on,314,0,1,,,,,,,,,0,,,64,0
677,note_on,317,0,5,,,,,,,,,4,,,52,0
677,note_on,317,0,6,,,,,,,,,5,,,52,0
677,note_on,317,0,8,,,,,,,,,7,,,52,0
677,note_on,317,0,7,,,,,,,,,6,,,64,0
713,note_on,41,0,3,,,,,,,,,2,,,69,64
713,note_on,41,0,2,,,,,,,,,1,,,69,65
713,note_on,41,0,1,,,,,,,,,0,,,69,127
716,note_on,39,0,6,,,,,,,,,5,,,57,90
716,note_on,39,0,5,,,,,,,,,4,,,57,90
716,note_on,39,0,7,,,,,,,,,6,,,69,127
716,note_on,44,0,4,,,,,,,,,3,,,69,65
718,note_on,41,0,8,,,,,,,,,7,,,57,127
850,note_on,137,0,2,,,,,,,,,1,,,69,0
850,note_on,137,0,1,,,,,,,,,0,,,69,0
855,note_on,139,0,6,,,,,,,,,5,,,57,0
855,note_on,142,0,3,,,,,,,,,2,,,69,0
855,note_on,139,0,4,,,,,,,,,3,,,69,0
855,note_on,139,0,7,,,,,,,,,6,,,69,0
857,note_on,141,0,5,,,,,,,,,4,,,57,0
857,note_on,139,0,8,,,,,,,,,7,,,57,0
890,note_on,40,0,1,,,,,,,,,0,,,57,127
890,note_on,40,0,2,,,,,,,,,1,,,57,65
894,note_on,39,0,4,,,,,,,,,3,,,57,65
894,note_on,39,0,6,,,,,,,,,5,,,45,90
894,note_on,37,0,5,,,,,,,,,4,,,45,90
894,note_on,39,0,7,,,,,,,,,6,,,57,127
894,note_on,39,0,3,,,,,,,,,2,,,57,64
894,note_on,37,0,8,,,,,,,,,7,,,45,127
1043,note_on,153,0,1,,,,,,,,,0,,,57,0
1043,note_on,153,0,2,,,,,,,,,1,,,57,0
1045,note_on,151,0,3,,,,,,,,,2,,,57,0
1048,note_on,154,0,5,,,,,,,,,4,,,45,0
1048,note_on,154,0,7,,,,,,,,,6,,,57,0
1048,note_on,154,0,8,,,,,,,,,7,,,45,0
1048,note_on,154,0,6,,,,,,,,,5,,,45,0
1048,note_on,154,0,4,,,,,,,,,3,,,57,0
1244,note_on,201,0,1,,,,,,,,,0,,,64,127
1244,note_on,196,0,4,,,,,,,,,3,,,64,65
1244,note_on,199,0,3,,,,,,,,,2,,,64,64
1244,note_on,201,0,2,,,,,,,,,1,,,64,65
1247,note_on,199,0,7,,,,,,,,,6,,,64,127
1247,note_on,199,0,8,,,,,,,,,7,,,52,127
1247,note_on,199,0,5,,,,,,,,,4,,,52,90
1378,note_on,134,0,1,,,,,,,,,0,,,64,0
1379,note_on,135,0,2,,,,,,,,,1,,,64,0
1382,note_on,138,0,3,,,,,,,,,2,,,64,0
1383,note_on,139,0,4,,,,,,,,,3,,,64,0
1383,note_on,136,0,8,,,,,,,,,7,,,52,0
1389,note_on,142,0,5,,,,,,,,,4,,,52,0
1389,note_on,142,0,7,,,,,,,,,6,,,64,0
1421,note_on,43,0,1,,,,,,,,,0,,,69,127
1421,note_on,42,0,2,,,,,,,,,1,,,69,65
1421,note_on,39,0,3,,,,,,,,,2,,,69,64
1423,note_on,40,0,4,,,,,,,,,3,,,69,65
1426,note_on,37,0,7,,,,,,,,,6,,,69,127
1426,note_on,43,0,8,,,,,,,,,7,,,57,127
1426,note_on,37,0,5,,,,,,,,,4,,,57,90
1507,note_on,86,0,1,,,,,,,,,0,,,69,0
1507,note_on,86,0,3,,,,,,,,,2,,,69,0
1507,note_on,86,0,2,,,,,,,,,1,,,69,0
1508,note_on,85,0,4,,,,,,,,,3,,,69,0
1509,note_on,83,0,5,,,,,,,,,4,,,57,0
1509,note_on,83,0,7,,,,,,,,,6,,,69,0
1510,note_on,84,0,8,,,,,,,,,7,,,57,0
1512,note_on,5,0,1,,,,,,,,,0,,,68,127
1512,note_on,5,0,3,,,,,,,,,2,,,68,64
1512,note_on,5,0,2,,,,,,,,,1,,,68,65
1513,note_on,5,0,4,,,,,,,,,3,,,68,65
1514,note_on,5,0,5,,,,,,,,,4,,,56,90
1515,note_on,6,0,7,,,,,,,,,6,,,68,127
1515,note_on,5,0,8,,,,,,,,,7,,,56,127
1595,note_on,83,0,1,,,,,,,,,0,,,68,0
1596,note_on,84,0,2,,,,,,,,,1,,,68,0
1598,note_on,85,0,4,,,,,,,,,3,,,68,0
1598,note_on,86,0,3,,,,,,,,,2,,,68,0
1602,note_on,87,0,7,,,,,,,,,6,,,68,0
1602,note_on,87,0,8,,,,,,,,,7,,,56,0
1602,note_on,7,0,1,,,,,,,,,0,,,69,127
1602,note_on,88,0,5,,,,,,,,,4,,,56,0
1602,note_on,4,0,3,,,,,,,,,2,,,69,64
1602,note_on,6,0,2,,,,,,,,,1,,,69,65
1606,note_on,4,0,7,,,,,,,,,6,,,69,127
1606,note_on,4,0,5,,,,,,,,,4,,,57,90
1606,note_on,4,0,8,,,,,,,,,7,,,57,127
1606,note_on,8,0,4,,,,,,,,,3,,,69,65
1686,note_on,84,0,2,,,,,,,,,1,,,69,0
1686,note_on,84,0,1,,,,,,,,,0,,,69,0
1687,note_on,85,0,3,,,,,,,,,2,,,69,0
1687,note_on,81,0,4,,,,,,,,,3,,,69,0
1691,note_on,85,0,7,,,,,,,,,6,,,69,0
1691,note_on,5,0,1,,,,,,,,,0,,,68,127
1691,note_on,85,0,8,,,,,,,,,7,,,57,0
1691,note_on,85,0,5,,,,,,,,,4,,,57,0
1694,note_on,3,0,8,,,,,,,,,7,,,56,127
1694,note_on,7,0,4,,,,,,,,,3,,,68,65
1694,note_on,3,0,7,,,,,,,,,6,,,68,127
1694,note_on,8,0,2,,,,,,,,,1,,,68,65
1694,note_on,7,0,3,,,,,,,,,2,,,68,64
1694,note_on,3,0,5,,,,,,,,,4,,,56,90
1773,note_on,82,0,1,,,,,,,,,0,,,68,0
1778,note_on,84,0,4,,,,,,,,,3,,,68,0
1778,note_on,84,0,3,,,,,,,,,2,,,68,0
1778,note_on,84,0,2,,,,,,,,,1,,,68,0
1779,note_on,85,0,5,,,,,,,,,4,,,56,0
1779,note_on,85,0,7,,,,,,,,,6,,,68,0
1779,note_on,85,0,8,,,,,,,,,7,,,56,0
1780,note_on,7,0,1,,,,,,,,,0,,,69,127
1783,note_on,4,0,5,,,,,,,,,4,,,57,90
1783,note_on,5,0,4,,,,,,,,,3,,,69,65
1783,note_on,5,0,3,,,,,,,,,2,,,69,64
1783,note_on,5,0,2,,,,,,,,,1,,,69,65
1783,note_on,4,0,7,,,,,,,,,6,,,69,127
1783,note_on,4,0,8,,,,,,,,,7,,,57,127
1863,note_on,80,0,3,,,,,,,,,2,,,69,0
1863,note_on,83,0,1,,,,,,,,,0,,,69,0
1863,note_on,80,0,2,,,,,,,,,1,,,69,0
1863,note_on,80,0,4,,,,,,,,,3,,,69,0
1868,note_on,85,0,7,,,,,,,,,6,,,69,0
1868,note_on,85,0,5,,,,,,,,,4,,,57,0
1868,note_on,5,0,1,,,,,,,,,0,,,68,127
1868,note_on,85,0,8,,,,,,,,,7,,,57,0
1870,note_on,7,0,3,,,,,,,,,2,,,68,64
1870,note_on,7,0,2,,,,,,,,,1,,,68,65
1870,note_on,2,0,5,,,,,,,,,4,,,56,90
1870,note_on,7,0,4,,,,,,,,,3,,,68,65
1873,note_on,5,0,7,,,,,,,,,6,,,68,127
1873,note_on,5,0,8,,,,,,,,,7,,,56,127
1954,note_on,84,0,5,,,,,,,,,4,,,56,0
1954,note_on,84,0,2,,,,,,,,,1,,,68,0
1954,note_on,84,0,3,,,,,,,,,2,,,68,0
1954,note_on,86,0,1,,,,,,,,,0,,,68,0
1954,note_on,84,0,4,,,,,,,,,3,,,68,0
1954,note_on,81,0,7,,,,,,,,,6,,,68,0
1959,note_on,5,0,1,,,,,,,,,0,,,69,127
1959,note_on,5,0,3,,,,,,,,,2,,,69,64
1959,note_on,5,0,2,,,,,,,,,1,,,69,65
1959,note_on,86,0,8,,,,,,,,,7,,,56,0
1959,note_on,5,0,4,,,,,,,,,3,,,69,65
1960,note_on,6,0,5,,,,,,,,,4,,,57,90
1960,note_on,1,0,8,,,,,,,,,7,,,57,127
1960,note_on,6,0,7,,,,,,,,,6,,,69,127
2039,note_on,80,0,1,,,,,,,,,0,,,69,0
2039,note_on,80,0,3,,,,,,,,,2,,,69,0
2039,note_on,80,0,2,,,,,,,,,1,,,69,0
2040,note_on,80,0,7,,,,,,,,,6,,,69,0
2040,note_on,81,0,4,,,,,,,,,3,,,69,0
2040,note_on,80,0,5,,,,,,,,,4,,,57,0
2040,note_on,80,0,8,,,,,,,,,7,,,57,0
2040,note_on,1,0,1,,,,,,,,,0,,,68,127
2041,note_on,2,0,2,,,,,,,,,1,,,68,65
2042,note_on,2,0,4,,,,,,,,,3,,,68,65
2042,note_on,3,0,3,,,,,,,,,2,,,68,64
2043,note_on,3,0,5,,,,,,,,,4,,,56,90
2044,note_on,4,0,8,,,,,,,,,7,,,56,127
2044,note_on,4,0,7,,,,,,,,,6,,,68,127
2128,note_on,88,0,1,,,,,,,,,0,,,68,0
2131,note_on,89,0,4,,,,,,,,,3,,,68,0
2131,note_on,89,0,3,,,,,,,,,2,,,68,0
2131,note_on,88,0,5,,,,,,,,,4,,,56,0
2131,note_on,90,0,2,,,,,,,,,1,,,68,0
2134,note_on,90,0,7,,,,,,,,,6,,,68,0
2135,note_on,0,0,8,,,,,,,,,7,,,57,127
2135,note_on,4,0,3,,,,,,,,,2,,,69,64
2135,note_on,4,0,5,,,,,,,,,4,,,57,90
2135,note_on,4,0,2,,,,,,,,,1,,,69,65
2135,note_on,7,0,1,,,,,,,,,0,,,69,127
2135,note_on,4,0,4,,,,,,,,,3,,,69,65
2135,note_on,91,0,8,,,,,,,,,7,,,56,0
2135,note_on,1,0,7,,,,,,,,,6,,,69,127
2264,note_on,129,0,1,,,,,,,,,0,,,69,0
2265,note_on,130,0,2,,,,,,,,,1,,,69,0
2267,note_on,132,0,3,,,,,,,,,2,,,69,0
2270,note_on,135,0,4,,,,,,,,,3,,,69,0
2270,note_on,135,0,7,,,,,,,,,6,,,69,0
2272,note_on,137,0,8,,,,,,,,,7,,,57,0
2272,note_on,137,0,5,,,,,,,,,4,,,57,0
2308,note_on,43,0,2,,,,,,,,,1,,,57,65
2308,note_on,44,0,1,,,,,,,,,0,,,57,127
2310,note_on,43,0,3,,,,,,,,,2,,,57,64
2310,note_on,40,0,7,,,,,,,,,6,,,57,127
2310,note_on,38,0,8,,,,,,,,,7,,,45,127
2310,note_on,38,0,5,,,,,,,,,4,,,45,90
2310,note_on,40,0,4,,,,,,,,,3,,,57,65
2459,note_on,151,0,1,,,,,,,,,0,,,57,0
2460,note_on,152,0,2,,,,,,,,,1,,,57,0
2460,note_on,150,0,3,,,,,,,,,2,,,57,0
2461,note_on,151,0,7,,,,,,,,,6,,,57,0
2461,note_on,151,0,5,,,,,,,,,4,,,45,0
2461,note_on,151,0,4,,,,,,,,,3,,,57,0
2462,note_on,152,0,8,,,,,,,,,7,,,45,0
2661,note_on,201,0,2,,,,,,,,,1,,,64,65
2661,note_on,202,0,1,,,,,,,,,0,,,64,127
2662,note_on,202,0,3,,,,,,,,,2,,,64,64
2663,note_on,202,0,4,,,,,,,,,3,,,64,65
2664,note_on,203,0,5,,,,,,,,,4,,,52,90
2664,note_on,203,0,7,,,,,,,,,6,,,64,127
2664,note_on,202,0,8,,,,,,,,,7,,,52,127
2797,note_on,136,0,1,,,,,,,,,0,,,64,0
2797,note_on,136,0,2,,,,,,,,,1,,,64,0
2802,note_on,140,0,3,,,,,,,,,2,,,64,0
2802,note_on,139,0,4,,,,,,,,,3,,,64,0
2802,note_on,138,0,8,,,,,,,,,7,,,52,0
2805,note_on,141,0,5,,,,,,,,,4,,,52,0
2805,note_on,141,0,7,,,,,,,,,6,,,64,0
2839,note_on,42,0,1,,,,,,,,,0,,,69,127
2843,note_on,41,0,4,,,,,,,,,3,,,69,65
2843,note_on,38,0,5,,,,,,,,,4,,,57,90
2843,note_on,38,0,7,,,,,,,,,6,,,69,127
2843,note_on,41,0,3,,,,,,,,,2,,,69,64
2843,note_on,41,0,8,,,,,,,,,7,,,57,127
2843,note_on,46,0,2,,,,,,,,,1,,,69,65
2928,note_on,85,0,8,,,,,,,,,7,,,57,0
2928,note_on,85,0,3,,,,,,,,,2,,,69,0
2928,note_on,85,0,4,,,,,,,,,3,,,69,0
2928,note_on,85,0,2,,,,,,,,,1,,,69,0
2928,note_on,89,0,1,,,,,,,,,0,,,69,0
2928,note_on,85,0,5,,,,,,,,,4,,,57,0
2928,note_on,85,0,7,,,,,,,,,6,,,69,0
2929,note_on,1,0,4,,,,,,,,,3,,,68,65
2929,note_on,1,0,3,,,,,,,,,2,,,68,64
2929,note_on,1,0,1,,,,,,,,,0,,,68,127
2929,note_on,1,0,2,,,,,,,,,1,,,68,65
2930,note_on,2,0,5,,,,,,,,,4,,,56,90
2931,note_on,3,0,7,,,,,,,,,6,,,68,127
2932,note_on,4,0,8,,,,,,,,,7,,,56,127
3016,note_on,87,0,3,,,,,,,,,2,,,68,0
3016,note_on,87,0,1,,,,,,,,,0,,,68,0
3016,note_on,85,0,7,,,,,,,,,6,,,68,0
3016,note_on,87,0,4,,,,,,,,,3,,,68,0
3016,note_on,86,0,5,,,,,,,,,4,,,56,0
3016,note_on,87,0,2,,,,,,,,,1,,,68,0
3017,note_on,1,0,1,,,,,,,,,0,,,69,127
3017,note_on,85,0,8,,,,,,,,,7,,,56,0
3019,note_on,3,0,2,,,,,,,,,1,,,69,65
3020,note_on,4,0,7,,,,,,,,,6,,,69,127
3020,note_on,4,0,3,,,,,,,,,2,,,69,64
3020,note_on,4,0,4,,,,,,,,,3,,,69,65
3020,note_on,4,0,5,,,,,,,,,4,,,57,90
3021,note_on,4,0,8,,,,,,,,,7,,,57,127
3105,note_on,86,0,2,,,,,,,,,1,,,69,0
3105,note_on,85,0,7,,,,,,,,,6,,,69,0
3105,note_on,85,0,3,,,,,,,,,2,,,69,0
3105,note_on,84,0,8,,,,,,,,,7,,,57,0
3105,note_on,85,0,5,,,,,,,,,4,,,57,0
3105,note_on,88,0,1,,,,,,,,,0,,,69,0
3105,note_on,85,0,4,,,,,,,,,3,,,69,0
3106,note_on,1,0,1,,,,,,,,,0,,,68,127
3107,note_on,2,0,2,,,,,,,,,1,,,68,65
3108,note_on,3,0,5,,,,,,,,,4,,,56,90
3108,note_on,3,0,4,,,,,,,,,3,,,68,65
3108,note_on,3,0,7,,,,,,,,,6,,,68,127
3108,note_on,3,0,3,,,,,,,,,2,,,68,64
3109,note_on,4,0,8,,,,,,,,,7,,,56,127
3193,note_on,85,0,5,,,,,,,,,4,,,56,0
3193,note_on,87,0,1,,,,,,,,,0,,,68,0
3193,note_on,85,0,3,,,,,,,,,2,,,68,0
3193,note_on,85,0,4,,,,,,,,,3,,,68,0
3193,note_on,86,0,2,,,,,,,,,1,,,68,0
3194,note_on,86,0,7,,,,,,,,,6,,,68,0
3197,note_on,4,0,3,,,,,,,,,2,,,69,64
3197,note_on,88,0,8,,,,,,,,,7,,,56,0
3197,note_on,4,0,2,,,,,,,,,1,,,69,65
3197,note_on,4,0,1,,,,,,,,,0,,,69,127
3198,note_on,5,0,4,,,,,,,,,3,,,69,65
3198,note_on,5,0,5,,,,,,,,,4,,,57,90
3199,note_on,5,0,7,,,,,,,,,6,,,69,127
3200,note_on,3,0,8,,,,,,,,,7,,,57,127
3278,note_on,81,0,1,,,,,,,,,0,,,69,0
3279,note_on,82,0,2,,,,,,,,,1,,,69,0
3280,note_on,83,0,3,,,,,,,,,2,,,69,0
3280,note_on,82,0,4,,,,,,,,,3,,,69,0
3281,note_on,81,0,8,,,,,,,,,7,,,57,0
3281,note_on,83,0,5,,,,,,,,,4,,,57,0
3281,note_on,82,0,7,,,,,,,,,6,,,69,0
3282,note_on,4,0,1,,,,,,,,,0,,,68,127
3283,note_on,4,0,2,,,,,,,,,1,,,68,65
3284,note_on,4,0,4,,,,,,,,,3,,,68,65
3284,note_on,3,0,5,,,,,,,,,4,,,56,90
3284,note_on,4,0,3,,,,,,,,,2,,,68,64
3285,note_on,4,0,7,,,,,,,,,6,,,68,127
3286,note_on,5,0,8,,,,,,,,,7,,,56,127
3368,note_on,86,0,1,,,,,,,,,0,,,68,0
3369,note_on,86,0,2,,,,,,,,,1,,,68,0
3369,note_on,85,0,3,,,,,,,,,2,,,68,0
3370,note_on,86,0,4,,,,,,,,,3,,,68,0
3370,note_on,86,0,5,,,,,,,,,4,,,56,0
3371,note_on,86,0,7,,,,,,,,,6,,,68,0
3372,note_on,86,0,8,,,,,,,,,7,,,56,0
3372,note_on,4,0,1,,,,,,,,,0,,,69,127
3373,note_on,4,0,2,,,,,,,,,1,,,69,65
3373,note_on,4,0,3,,,,,,,,,2,,,69,64
3374,note_on,4,0,5,,,,,,,,,4,,,57,90
3374,note_on,4,0,4,,,,,,,,,3,,,69,65
3376,note_on,5,0,7,,,,,,,,,6,,,69,127
3376,note_on,4,0,8,,,,,,,,,7,,,57,127
3462,note_on,89,0,2,,,,,,,,,1,,,69,0
3462,note_on,90,0,1,,,,,,,,,0,,,69,0
3462,note_on,88,0,4,,,,,,,,,3,,,69,0
3462,note_on,88,0,5,,,,,,,,,4,,,57,0
3462,note_on,86,0,7,,,,,,,,,6,,,69,0
3462,note_on,89,0,3,,,,,,,,,2,,,69,0
3465,note_on,89,0,8,,,,,,,,,7,,,57,0
3465,note_on,3,0,1,,,,,,,,,0,,,68,127
3465,note_on,3,0,2,,,,,,,,,1,,,68,65
3467,note_on,5,0,4,,,,,,,,,3,,,68,65
3467,note_on,5,0,7,,,,,,,,,6,,,68,127
3467,note_on,2,0,8,,,,,,,,,7,,,56,127
3467,note_on,5,0,5,,,,,,,,,4,,,56,90
3467,note_on,5,0,3,,,,,,,,,2,,,68,64
3545,note_on,80,0,1,,,,,,,,,0,,,68,0
3546,note_on,81,0,2,,,,,,,,,1,,,68,0
3546,note_on,79,0,3,,,,,,,,,2,,,68,0
3547,note_on,80,0,4,,,,,,,,,3,,,68,0
3548,note_on,81,0,5,,,,,,,,,4,,,56,0
3548,note_on,81,0,8,,,,,,,,,7,,,56,0
3548,note_on,81,0,7,,,,,,,,,6,,,68,0
3549,note_on,4,0,1,,,,,,,,,0,,,69,127
3549,note_on,3,0,2,,,,,,,,,1,,,69,65
3551,note_on,4,0,4,,,,,,,,,3,,,69,65
3551,note_on,5,0,3,,,,,,,,,2,,,69,64
3552,note_on,4,0,8,,,,,,,,,7,,,57,127
3552,note_on,4,0,7,,,,,,,,,6,,,69,127
3552,note_on,4,0,5,,,,,,,,,4,,,57,90
3684,note_on,135,0,2,,,,,,,,,1,,,69,0
3684,note_on,135,0,1,,,,,,,,,0,,,69,0
3687,note_on,136,0,3,,,,,,,,,2,,,69,0
3688,note_on,137,0,4,,,,,,,,,3,,,69,0
3688,note_on,136,0,8,,,,,,,,,7,,,57,0
3691,note_on,139,0,5,,,,,,,,,4,,,57,0
3691,note_on,139,0,7,,,,,,,,,6,,,69,0
3726,note_on,42,0,1,,,,,,,,,0,,,76,127
3727,note_on,39,0,4,,,,,,,,,3,,,76,65
3727,note_on,36,0,5,,,,,,,,,4,,,64,90
3727,note_on,36,0,7,,,,,,,,,6,,,76,127
3727,note_on,40,0,3,,,,,,,,,2,,,76,64
3727,note_on,43,0,2,,,,,,,,,1,,,76,65
3727,note_on,39,0,8,,,,,,,,,7,,,64,127
4038,note_on,312,0,1,,,,,,,,,0,,,76,0
4039,note_on,312,0,2,,,,,,,,,1,,,76,0
4041,note_on,314,0,4,,,,,,,,,3,,,76,0
4044,note_on,317,0,3,,,,,,,,,2,,,76,0
4044,note_on,317,0,8,,,,,,,,,7,,,64,0
4045,note_on,318,0,5,,,,,,,,,4,,,64,0
4046,note_on,319,0,7,,,,,,,,,6,,,76,0
4079,note_on,41,0,1,,,,,,,,,0,,,73,127
4079,note_on,40,0,2,,,,,,,,,1,,,73,65
4080,note_on,36,0,3,,,,,,,,,2,,,73,64
4080,note_on,39,0,4,,,,,,,,,3,,,73,65
4081,note_on,37,0,8,,,,,,,,,7,,,61,127
4081,note_on,35,0,7,,,,,,,,,6,,,73,127
4081,note_on,36,0,5,,,,,,,,,4,,,61,90
4217,note_on,138,0,1,,,,,,,,,0,,,73,0
4217,note_on,138,0,2,,,,,,,,,1,,,73,0
4223,note_on,143,0,3,,,,,,,,,2,,,73,0
4223,note_on,142,0,5,,,,,,,,,4,,,61,0
4223,note_on,143,0,4,,,,,,,,,3,,,73,0
4223,note_on,142,0,8,,,,,,,,,7,,,61,0
4223,note_on,142,0,7,,,,,,,,,6,,,73,0
4259,note_on,36,0,4,,,,,,,,,3,,,69,65
4259,note_on,42,0,1,,,,,,,,,0,,,69,127
4259,note_on,42,0,2,,,,,,,,,1,,,69,65
4259,note_on,36,0,3,,,,,,,,,2,,,69,64
4262,note_on,39,0,5,,,,,,,,,4,,,57,90
4262,note_on,39,0,8,,,,,,,,,7,,,57,127
4262,note_on,39,0,7,,,,,,,,,6,,,69,127
4395,note_on,136,0,2,,,,,,,,,1,,,69,0
4395,note_on,136,0,1,,,,,,,,,0,,,69,0
4399,note_on,140,0,4,,,,,,,,,3,,,69,0
4399,note_on,140,0,3,,,,,,,,,2,,,69,0
4403,note_on,141,0,7,,,,,,,,,6,,,69,0
4403,note_on,141,0,5,,,,,,,,,4,,,57,0
4403,note_on,141,0,8,,,,,,,,,7,,,57,0
4435,note_on,40,0,1,,,,,,,,,0,,,76,127
4435,note_on,40,0,2,,,,,,,,,1,,,76,65
4437,note_on,34,0,7,,,,,,,,,6,,,76,127
4437,note_on,38,0,4,,,,,,,,,3,,,76,65
4437,note_on,34,0,8,,,,,,,,,7,,,64,127
4437,note_on,34,0,5,,,,,,,,,4,,,64,90
4437,note_on,38,0,3,,,,,,,,,2,,,76,64
4748,note_on,313,0,1,,,,,,,,,0,,,76,0
4748,note_on,313,0,2,,,,,,,,,1,,,76,0
4750,note_on,313,0,3,,,,,,,,,2,,,76,0
4751,note_on,314,0,4,,,,,,,,,3,,,76,0
4752,note_on,315,0,8,,,,,,,,,7,,,64,0
4756,note_on,319,0,7,,,,,,,,,6,,,76,0
4756,note_on,319,0,5,,,,,,,,,4,,,64,0
4791,note_on,43,0,1,,,,,,,,,0,,,73,127
4791,note_on,43,0,2,,,,,,,,,1,,,73,65
4791,note_on,40,0,4,,,,,,,,,3,,,73,65
4791,note_on,41,0,3,,,,,,,,,2,,,73,64
4791,note_on,35,0,5,,,,,,,,,4,,,61,90
4793,note_on,41,0,8,,,,,,,,,7,,,61,127
4793,note_on,37,0,7,,,,,,,,,6,,,73,127
4925,note_on,134,0,1,,,,,,,,,0,,,73,0
4925,note_on,134,0,2,,,,,,,,,1,,,73,0
4928,note_on,137,0,4,,,,,,,,,3,,,73,0
4928,note_on,137,0,3,,,,,,,,,2,,,73,0
4929,note_on,136,0,8,,,,,,,,,7,,,61,0
4932,note_on,141,0,5,,,,,,,,,4,,,61,0
4933,note_on,140,0,7,,,,,,,,,6,,,73,0
4968,note_on,40,0,4,,,,,,,,,3,,,69,65
4968,note_on,35,0,7,,,,,,,,,6,,,69,127
4968,note_on,40,0,3,,,,,,,,,2,,,69,64
4968,note_on,36,0,5,,,,,,,,,4,,,57,90
4968,note_on,43,0,2,,,,,,,,,1,,,69,65
4968,note_on,43,0,1,,,,,,,,,0,,,69,127
4969,note_on,40,0,8,,,,,,,,,7,,,57,127
5103,note_on,135,0,4,,,,,,,,,3,,,69,0
5103,note_on,135,0,2,,,,,,,,,1,,,69,0
5103,note_on,135,0,1,,,,,,,,,0,,,69,0
5105,note_on,137,0,3,,,,,,,,,2,,,69,0
5109,note_on,141,0,7,,,,,,,,,6,,,69,0
5109,note_on,140,0,8,,,,,,,,,7,,,57,0
5109,note_on,141,0,5,,,,,,,,,4,,,57,0
5144,note_on,39,0,3,,,,,,,,,2,,,64,64
5144,note_on,41,0,2,,,,,,,,,1,,,64,65
5144,note_on,41,0,1,,,,,,,,,0,,,64,127
5145,note_on,36,0,5,,,,,,,,,4,,,52,90
5145,note_on,42,0,4,,,,,,,,,3,,,64,65
5146,note_on,37,0,7,,,,,,,,,6,,,64,127
5147,note_on,38,0,8,,,,,,,,,7,,,52,127
5279,note_on,135,0,2,,,,,,,,,1,,,64,0
5279,note_on,135,0,1,,,,,,,,,0,,,64,0
5282,note_on,137,0,4,,,,,,,,,3,,,64,0
5286,note_on,142,0,3,,,,,,,,,2,,,64,0
5287,note_on,141,0,7,,,,,,,,,6,,,64,0
5287,note_on,140,0,8,,,,,,,,,7,,,52,0
5287,note_on,142,0,5,,,,,,,,,4,,,52,0
5322,note_on,43,0,1,,,,,,,,,0,,,61,127
5323,note_on,37,0,3,,,,,,,,,2,,,61,64
5323,note_on,44,0,2,,,,,,,,,1,,,61,65
5323,note_on,41,0,4,,,,,,,,,3,,,61,65
5326,note_on,39,0,5,,,,,,,,,4,,,49,90
5326,note_on,39,0,8,,,,,,,,,7,,,49,127
5326,note_on,39,0,7,,,,,,,,,6,,,61,127
5458,note_on,136,0,1,,,,,,,,,0,,,61,0
5459,note_on,136,0,3,,,,,,,,,2,,,61,0
5459,note_on,136,0,2,,,,,,,,,1,,,61,0
5459,note_on,136,0,4,,,,,,,,,3,,,61,0
5460,note_on,134,0,8,,,,,,,,,7,,,49,0
5464,note_on,138,0,5,,,,,,,,,4,,,49,0
5464,note_on,138,0,7,,,,,,,,,6,,,61,0
5498,note_on,39,0,2,,,,,,,,,1,,,57,65
5498,note_on,40,0,1,,,,,,,,,0,,,57,127
5503,note_on,39,0,7,,,,,,,,,6,,,57,127
5503,note_on,39,0,5,,,,,,,,,4,,,45,90
5503,note_on,44,0,3,,,,,,,,,2,,,57,64
5503,note_on,43,0,8,,,,,,,,,7,,,45,127
5503,note_on,44,0,4,,,,,,,,,3,,,57,65
5633,note_on,135,0,1,,,,,,,,,0,,,57,0
5634,note_on,136,0,2,,,,,,,,,1,,,57,0
5635,note_on,132,0,4,,,,,,,,,3,,,57,0
5637,note_on,134,0,3,,,,,,,,,2,,,57,0
5639,note_on,136,0,8,,,,,,,,,7,,,45,0
5640,note_on,137,0,5,,,,,,,,,4,,,45,0
5641,note_on,138,0,7,,,,,,,,,6,,,57,0
5677,note_on,44,0,1,,,,,,,,,0,,,57,127
5678,note_on,37,0,7,,,,,,,,,6,,,57,127
5678,note_on,41,0,3,,,,,,,,,2,,,57,64
5678,note_on,44,0,2,,,,,,,,,1,,,57,65
5678,note_on,38,0,5,,,,,,,,,4,,,45,90
5678,note_on,39,0,8,,,,,,,,,7,,,45,127
5678,note_on,43,0,4,,,,,,,,,3,,,57,65
5809,note_on,131,0,2,,,,,,,,,1,,,57,0
5809,note_on,132,0,1,,,,,,,,,0,,,57,0
5815,note_on,137,0,4,,,,,,,,,3,,,57,0
5816,note_on,138,0,3,,,,,,,,,2,,,57,0
5819,note_on,141,0,5,,,,,,,,,4,,,45,0
5819,note_on,141,0,8,,,,,,,,,7,,,45,0
5819,note_on,141,0,7,,,,,,,,,6,,,57,0
5853,note_on,37,0,3,,,,,,,,,2,,,64,64
5853,note_on,44,0,2,,,,,,,,,1,,,64,65
5853,note_on,44,0,1,,,,,,,,,0,,,64,127
5854,note_on,35,0,5,,,,,,,,,4,,,52,90
5854,note_on,39,0,4,,,,,,,,,3,,,64,65
5855,note_on,36,0,7,,,,,,,,,6,,,64,127
5856,note_on,37,0,8,,,,,,,,,7,,,52,127
6168,note_on,315,0,3,,,,,,,,,2,,,64,0
6168,note_on,314,0,4,,,,,,,,,3,,,64,0
6168,note_on,315,0,1,,,,,,,,,0,,,64,0
6168,note_on,315,0,2,,,,,,,,,1,,,64,0
6169,note_on,313,0,8,,,,,,,,,7,,,52,0
6173,note_on,319,0,5,,,,,,,,,4,,,52,0
6173,note_on,318,0,7,,,,,,,,,6,,,64,0
6210,note_on,42,0,2,,,,,,,,,1,,,61,65
6210,note_on,37,0,5,,,,,,,,,4,,,49,90
6210,note_on,42,0,4,,,,,,,,,3,,,61,65
6210,note_on,41,0,8,,,,,,,,,7,,,49,127
6210,note_on,37,0,7,,,,,,,,,6,,,61,127
6210,note_on,42,0,3,,,,,,,,,2,,,61,64
6210,note_on,42,0,1,,,,,,,,,0,,,61,127
6342,note_on,132,0,1,,,,,,,,,0,,,61,0
6342,note_on,132,0,2,,,,,,,,,1,,,61,0
6347,note_on,137,0,3,,,,,,,,,2,,,61,0
6348,note_on,138,0,4,,,,,,,,,3,,,61,0
6348,note_on,138,0,8,,,,,,,,,7,,,49,0
6352,note_on,142,0,7,,,,,,,,,6,,,61,0
6352,note_on,142,0,5,,,,,,,,,4,,,49,0
6387,note_on,35,0,5,,,,,,,,,4,,,45,90
6387,note_on,40,0,3,,,,,,,,,2,,,57,64
6387,note_on,39,0,4,,,,,,,,,3,,,57,65
6387,note_on,45,0,1,,,,,,,,,0,,,57,127
6387,note_on,45,0,2,,,,,,,,,1,,,57,65
6388,note_on,36,0,7,,,,,,,,,6,,,57,127
6388,note_on,40,0,8,,,,,,,,,7,,,45,127
6521,note_on,134,0,2,,,,,,,,,1,,,57,0
6521,note_on,134,0,1,,,,,,,,,0,,,57,0
6521,note_on,134,0,4,,,,,,,,,3,,,57,0
6524,note_on,137,0,3,,,,,,,,,2,,,57,0
6528,note_on,141,0,5,,,,,,,,,4,,,45,0
6528,note_on,140,0,7,,,,,,,,,6,,,57,0
6528,note_on,140,0,8,,,,,,,,,7,,,45,0
6561,note_on,40,0,2,,,,,,,,,1,,,64,65
6561,note_on,37,0,3,,,,,,,,,2,,,64,64
6561,note_on,40,0,4,,,,,,,,,3,,,64,65
6561,note_on,40,0,1,,,,,,,,,0,,,64,127
6561,note_on,33,0,5,,,,,,,,,4,,,52,90
6562,note_on,34,0,7,,,,,,,,,6,,,64,127
6563,note_on,35,0,8,,,,,,,,,7,,,52,127
6874,note_on,313,0,1,,,,,,,,,0,,,64,0
6875,note_on,314,0,2,,,,,,,,,1,,,64,0
6881,note_on,319,0,7,,,,,,,,,6,,,64,0
6881,note_on,318,0,8,,,,,,,,,7,,,52,0
6881,note_on,320,0,5,,,,,,,,,4,,,52,0
6881,note_on,320,0,4,,,,,,,,,3,,,64,0
6881,note_on,320,0,3,,,,,,,,,2,,,64,0
6917,note_on,43,0,1,,,,,,,,,0,,,61,127
6918,note_on,43,0,2,,,,,,,,,1,,,61,65
6918,note_on,37,0,5,,,,,,,,,4,,,49,90
6918,note_on,37,0,4,,,,,,,,,3,,,61,65
6918,note_on,37,0,3,,,,,,,,,2,,,61,64
6919,note_on,38,0,7,,,,,,,,,6,,,61,127
6920,note_on,39,0,8,,,,,,,,,7,,,49,127
7054,note_on,136,0,2,,,,,,,,,1,,,61,0
7054,note_on,137,0,1,,,,,,,,,0,,,61,0
7057,note_on,139,0,4,,,,,,,,,3,,,61,0
7057,note_on,139,0,3,,,,,,,,,2,,,61,0
7057,note_on,137,0,8,,,,,,,,,7,,,49,0
7061,note_on,142,0,7,,,,,,,,,6,,,61,0
7061,note_on,143,0,5,,,,,,,,,4,,,49,0
7094,note_on,40,0,2,,,,,,,,,1,,,57,65
7094,note_on,40,0,1,,,,,,,,,0,,,57,127
7097,note_on,36,0,7,,,,,,,,,6,,,57,127
7097,note_on,40,0,3,,,,,,,,,2,,,57,64
7097,note_on,36,0,5,,,,,,,,,4,,,45,90
7097,note_on,40,0,8,,,,,,,,,7,,,45,127
7097,note_on,40,0,4,,,,,,,,,3,,,57,65
7230,note_on,136,0,2,,,,,,,,,1,,,57,0
7230,note_on,136,0,1,,,,,,,,,0,,,57,0
7232,note_on,135,0,4,,,,,,,,,3,,,57,0
7234,note_on,137,0,3,,,,,,,,,2,,,57,0
7239,note_on,142,0,8,,,,,,,,,7,,,45,0
7239,note_on,142,0,5,,,,,,,,,4,,,45,0
7239,note_on,142,0,7,,,,,,,,,6,,,57,0
7273,note_on,39,0,3,,,,,,,,,2,,,59,64
7273,note_on,41,0,4,,,,,,,,,3,,,59,65
7273,note_on,34,0,5,,,,,,,,,4,,,47,90
7273,note_on,43,0,2,,,,,,,,,1,,,59,65
7273,note_on,43,0,1,,,,,,,,,0,,,59,127
7275,note_on,36,0,8,,,,,,,,,7,,,47,127
7275,note_on,36,0,7,,,,,,,,,6,,,59,127
7406,note_on,133,0,1,,,,,,,,,0,,,59,0
7407,note_on,134,0,2,,,,,,,,,1,,,59,0
7411,note_on,138,0,4,,,,,,,,,3,,,59,0
7411,note_on,138,0,3,,,,,,,,,2,,,59,0
7411,note_on,136,0,8,,,,,,,,,7,,,47,0
7414,note_on,141,0,5,,,,,,,,,4,,,47,0
7415,note_on,140,0,7,,,,,,,,,6,,,59,0
7448,note_on,42,0,1,,,,,,,,,0,,,61,127
7449,note_on,34,0,7,,,,,,,,,6,,,61,127
7449,note_on,38,0,3,,,,,,,,,2,,,61,64
7449,note_on,42,0,2,,,,,,,,,1,,,61,65
7449,note_on,38,0,4,,,,,,,,,3,,,61,65
7449,note_on,35,0,5,,,,,,,,,4,,,49,90
7450,note_on,39,0,8,,,,,,,,,7,,,49,127
7585,note_on,137,0,1,,,,,,,,,0,,,61,0
7585,note_on,136,0,2,,,,,,,,,1,,,61,0
7587,note_on,138,0,3,,,,,,,,,2,,,61,0
7588,note_on,138,0,8,,,,,,,,,7,,,49,0
7588,note_on,139,0,4,,,,,,,,,3,,,61,0
7591,note_on,142,0,5,,,,,,,,,4,,,49,0
7592,note_on,143,0,7,,,,,,,,,6,,,61,0
7625,note_on,40,0,1,,,,,,,,,0,,,62,127
7627,note_on,39,0,4,,,,,,,,,3,,,62,65
7627,note_on,36,0,5,,,,,,,,,4,,,50,90
7627,note_on,42,0,2,,,,,,,,,1,,,62,65
7627,note_on,40,0,3,,,,,,,,,2,,,62,64
7628,note_on,36,0,7,,,,,,,,,6,,,62,127
7628,note_on,40,0,8,,,,,,,,,7,,,50,127
7761,note_on,136,0,1,,,,,,,,,0,,,62,0
7761,note_on,134,0,2,,,,,,,,,1,,,62,0
7761,note_on,134,0,4,,,,,,,,,3,,,62,0
7765,note_on,137,0,8,,,,,,,,,7,,,50,0
7765,note_on,138,0,3,,,,,,,,,2,,,62,0
7770,note_on,143,0,5,,,,,,,,,4,,,50,0
7770,note_on,142,0,7,,,,,,,,,6,,,62,0
7802,note_on,41,0,1,,,,,,,,,0,,,64,127
7804,note_on,34,0,5,,,,,,,,,4,,,52,90
7804,note_on,43,0,2,,,,,,,,,1,,,64,65
7804,note_on,39,0,3,,,,,,,,,2,,,64,64
7804,note_on,43,0,4,,,,,,,,,3,,,64,65
7804,note_on,34,0,7,,,,,,,,,6,,,64,127
7805,note_on,40,0,8,,,,,,,,,7,,,52,127
8135,note_on,333,0,1,,,,,,,,,0,,,64,0
8159,note_on,355,0,2,,,,,,,,,1,,,64,0
8159,note_on,354,0,8,,,,,,,,,7,,,52,0
8159,note_on,355,0,3,,,,,,,,,2,,,64,0
8159,note_on,355,0,7,,,,,,,,,6,,,64,0
8159,note_on,355,0,5,,,,,,,,,4,,,52,0
8159,note_on,355,0,4,,,,,,,,,3,,,64,0
8336,note_on,201,0,1,,,,,,,,,0,,,64,127
8338,note_on,179,0,2,,,,,,,,,1,,,64,65
8339,note_on,180,0,4,,,,,,,,,3,,,64,65
8339,note_on,180,0,5,,,,,,,,,4,,,52,90
8339,note_on,180,0,8,,,,,,,,,7,,,52,127
8339,note_on,180,0,3,,,,,,,,,2,,,64,64
8339,note_on,180,0,7,,,,,,,,,6,,,64,127
8471,note_on,135,0,1,,,,,,,,,0,,,64,0
8471,note_on,132,0,4,,,,,,,,,3,,,64,0
8471,note_on,133,0,2,,,,,,,,,1,,,64,0
8472,note_on,133,0,3,,,,,,,,,2,,,64,0
8475,note_on,136,0,8,,,,,,,,,7,,,52,0
8477,note_on,138,0,5,,,,,,,,,4,,,52,0
8478,note_on,139,0,7,,,,,,,,,6,,,64,0
8512,note_on,41,0,2,,,,,,,,,1,,,76,65
8512,note_on,40,0,3,,,,,,,,,2,,,76,64
8512,note_on,41,0,1,,,,,,,,,0,,,76,127
8512,note_on,41,0,4,,,,,,,,,3,,,76,65
8513,note_on,36,0,5,,,,,,,,,4,,,64,90
8513,note_on,35,0,7,,,,,,,,,6,,,76,127
8513,note_on,38,0,8,,,,,,,,,7,,,64,127
8598,note_on,86,0,1,,,,,,,,,0,,,76,0
8599,note_on,87,0,3,,,,,,,,,2,,,76,0
8599,note_on,87,0,4,,,,,,,,,3,,,76,0
8599,note_on,87,0,2,,,,,,,,,1,,,76,0
8600,note_on,87,0,8,,,,,,,,,7,,,64,0
8600,note_on,87,0,7,,,,,,,,,6,,,76,0
8600,note_on,87,0,5,,,,,,,,,4,,,64,0
8601,note_on,3,0,1,,,,,,,,,0,,,75,127
8602,note_on,3,0,2,,,,,,,,,1,,,75,65
8603,note_on,4,0,3,,,,,,,,,2,,,75,64
8603,note_on,4,0,4,,,,,,,,,3,,,75,65
8604,note_on,4,0,5,,,,,,,,,4,,,63,90
8604,note_on,4,0,8,,,,,,,,,7,,,63,127
8604,note_on,4,0,7,,,,,,,,,6,,,75,127
8685,note_on,84,0,1,,,,,,,,,0,,,75,0
8686,note_on,84,0,2,,,,,,,,,1,,,75,0
8687,note_on,84,0,3,,,,,,,,,2,,,75,0
8688,note_on,85,0,4,,,,,,,,,3,,,75,0
8688,note_on,84,0,5,,,,,,,,,4,,,63,0
8689,note_on,85,0,7,,,,,,,,,6,,,75,0
8689,note_on,85,0,8,,,,,,,,,7,,,63,0
8689,note_on,4,0,1,,,,,,,,,0,,,76,127
8690,note_on,4,0,2,,,,,,,,,1,,,76,65
8692,note_on,5,0,3,,,,,,,,,2,,,76,64
8692,note_on,3,0,7,,,,,,,,,6,,,76,127
8692,note_on,4,0,4,,,,,,,,,3,,,76,65
8692,note_on,4,0,5,,,,,,,,,4,,,64,90
8693,note_on,4,0,8,,,,,,,,,7,,,64,127
8775,note_on,86,0,1,,,,,,,,,0,,,76,0
8775,note_on,85,0,2,,,,,,,,,1,,,76,0
8779,note_on,87,0,7,,,,,,,,,6,,,76,0
8779,note_on,87,0,5,,,,,,,,,4,,,64,0
8779,note_on,87,0,4,,,,,,,,,3,,,76,0
8779,note_on,87,0,3,,,,,,,,,2,,,76,0
8782,note_on,7,0,1,,,,,,,,,0,,,75,127
8782,note_on,89,0,8,,,,,,,,,7,,,64,0
8783,note_on,4,0,4,,,,,,,,,3,,,75,65
8783,note_on,8,0,2,,,,,,,,,1,,,75,65
8783,note_on,4,0,5,,,,,,,,,4,,,63,90
8783,note_on,4,0,3,,,,,,,,,2,,,75,64
8786,note_on,7,0,7,,,,,,,,,6,,,75,127
8786,note_on,4,0,8,,,,,,,,,7,,,63,127
8866,note_on,84,0,1,,,,,,,,,0,,,75,0
8866,note_on,83,0,2,,,,,,,,,1,,,75,0
8866,note_on,83,0,4,,,,,,,,,3,,,75,0
8866,note_on,83,0,3,,,,,,,,,2,,,75,0
8870,note_on,87,0,5,,,,,,,,,4,,,63,0
8871,note_on,85,0,7,,,,,,,,,6,,,75,0
8871,note_on,85,0,8,,,,,,,,,7,,,63,0
8872,note_on,6,0,1,,,,,,,,,0,,,76,127
8874,note_on,8,0,2,,,,,,,,,1,,,76,65
8874,note_on,3,0,8,,,,,,,,,7,,,64,127
8874,note_on,3,0,7,,,,,,,,,6,,,76,127
8874,note_on,8,0,3,,,,,,,,,2,,,76,64
8874,note_on,4,0,5,,,,,,,,,4,,,64,90
8874,note_on,8,0,4,,,,,,,,,3,,,76,65
9004,note_on,130,0,2,,,,,,,,,1,,,76,0
9004,note_on,132,0,1,,,,,,,,,0,,,76,0
9005,note_on,131,0,3,,,,,,,,,2,,,76,0
9006,note_on,132,0,4,,,,,,,,,3,,,76,0
9007,note_on,133,0,8,,,,,,,,,7,,,64,0
9011,note_on,137,0,5,,,,,,,,,4,,,64,0
9011,note_on,137,0,7,,,,,,,,,6,,,76,0
9047,note_on,36,0,7,,,,,,,,,6,,,64,127
9047,note_on,40,0,8,,,,,,,,,7,,,52,127
9047,note_on,43,0,2,,,,,,,,,1,,,64,65
9047,note_on,36,0,5,,,,,,,,,4,,,52,90
9047,note_on,43,0,1,,,,,,,,,0,,,64,127
9047,note_on,42,0,3,,,,,,,,,2,,,64,64
9047,note_on,41,0,4,,,,,,,,,3,,,64,65
9181,note_on,134,0,1,,,,,,,,,0,,,64,0
9181,note_on,134,0,4,,,,,,,,,3,,,64,0
9181,note_on,134,0,2,,,,,,,,,1,,,64,0
9182,note_on,135,0,3,,,,,,,,,2,,,64,0
9185,note_on,138,0,8,,,,,,,,,7,,,52,0
9187,note_on,140,0,5,,,,,,,,,4,,,52,0
9187,note_on,140,0,7,,,,,,,,,6,,,64,0
9220,note_on,39,0,1,,,,,,,,,0,,,64,127
9220,note_on,39,0,2,,,,,,,,,1,,,64,64
9221,note_on,39,0,3,,,,,,,,,2,,,64,64
9222,note_on,35,0,5,,,,,,,,,4,,,52,90
9222,note_on,41,0,4,,,,,,,,,3,,,64,65
9222,note_on,35,0,7,,,,,,,,,6,,,64,127
9222,note_on,37,0,8,,,,,,,,,7,,,52,127
9358,note_on,138,0,2,,,,,,,,,1,,,64,0
9358,note_on,138,0,1,,,,,,,,,0,,,64,0
9361,note_on,139,0,4,,,,,,,,,3,,,64,0
9361,note_on,140,0,3,,,,,,,,,2,,,64,0
9361,note_on,139,0,8,,,,,,,,,7,,,52,0
9364,note_on,142,0,5,,,,,,,,,4,,,52,0
9365,note_on,143,0,7,,,,,,,,,6,,,64,0
9398,note_on,37,0,3,,,,,,,,,2,,,64,64
9398,note_on,40,0,2,,,,,,,,,1,,,64,64
9398,note_on,40,0,1,,,,,,,,,0,,,64,127
9399,note_on,38,0,4,,,,,,,,,3,,,64,65
9402,note_on,41,0,8,,,,,,,,,7,,,52,127
9402,note_on,38,0,5,,,,,,,,,4,,,52,90
9402,note_on,37,0,7,,,,,,,,,6,,,64,127
9533,note_on,135,0,1,,,,,,,,,0,,,64,0
9534,note_on,136,0,2,,,,,,,,,1,,,64,0
9538,note_on,140,0,3,,,,,,,,,2,,,64,0
9538,note_on,139,0,4,,,,,,,,,3,,,64,0
9539,note_on,137,0,8,,,,,,,,,7,,,52,0
9540,note_on,138,0,5,,,,,,,,,4,,,52,0
9541,note_on,139,0,7,,,,,,,,,6,,,64,0
9576,note_on,38,0,4,,,,,,,,,3,,,64,65
9576,note_on,42,0,2,,,,,,,,,1,,,64,64
9576,note_on,43,0,1,,,,,,,,,0,,,64,127
9576,note_on,38,0,3,,,,,,,,,2,,,64,64
9577,note_on,37,0,5,,,,,,,,,4,,,52,90
9577,note_on,36,0,7,,,,,,,,,6,,,64,127
9578,note_on,39,0,8,,,,,,,,,7,,,52,127
9709,note_on,133,0,1,,,,,,,,,0,,,64,0
9710,note_on,134,0,2,,,,,,,,,1,,,64,0
9715,note_on,139,0,3,,,,,,,,,2,,,64,0
9717,note_on,141,0,4,,,,,,,,,3,,,64,0
9717,note_on,139,0,8,,,,,,,,,7,,,52,0
9721,note_on,144,0,5,,,,,,,,,4,,,52,0
9721,note_on,144,0,7,,,,,,,,,6,,,64,0
9752,note_on,43,0,1,,,,,,,,,0,,,64,127
9755,note_on,45,0,2,,,,,,,,,1,,,64,64
9755,note_on,34,0,5,,,,,,,,,4,,,52,90
9755,note_on,40,0,3,,,,,,,,,2,,,64,64
9755,note_on,38,0,4,,,,,,,,,3,,,64,65
9757,note_on,40,0,8,,,,,,,,,7,,,52,127
9757,note_on,36,0,7,,,,,,,,,6,,,64,127
9891,note_on,139,0,1,,,,,,,,,0,,,64,0
9892,note_on,137,0,3,,,,,,,,,2,,,64,0
9892,note_on,137,0,4,,,,,,,,,3,,,64,0
9892,note_on,137,0,2,,,,,,,,,1,,,64,0
9895,note_on,138,0,8,,,,,,,,,7,,,52,0
9897,note_on,142,0,5,,,,,,,,,4,,,52,0
9897,note_on,140,0,7,,,,,,,,,6,,,64,0
9931,note_on,40,0,1,,,,,,,,,0,,,74,127
9931,note_on,39,0,3,,,,,,,,,2,,,74,64
9931,note_on,39,0,2,,,,,,,,,1,,,74,64
9934,note_on,37,0,5,,,,,,,,,4,,,62,90
9934,note_on,39,0,8,,,,,,,,,7,,,62,127
9934,note_on,42,0,4,,,,,,,,,3,,,74,65
9934,note_on,37,0,7,,,,,,,,,6,,,74,127
10017,note_on,86,0,2,,,,,,,,,1,,,74,0
10017,note_on,86,0,1,,,,,,,,,0,,,74,0
10018,note_on,84,0,4,,,,,,,,,3,,,74,0
10018,note_on,87,0,3,,,,,,,,,2,,,74,0
10020,note_on,86,0,5,,,,,,,,,4,,,62,0
10022,note_on,88,0,8,,,,,,,,,7,,,62,0
10022,note_on,88,0,7,,,,,,,,,6,,,74,0
10023,note_on,6,0,2,,,,,,,,,1,,,73,64
10023,note_on,6,0,1,,,,,,,,,0,,,73,127
10027,note_on,5,0,8,,,,,,,,,7,,,61,127
10027,note_on,9,0,3,,,,,,,,,2,,,73,64
10027,note_on,7,0,5,,,,,,,,,4,,,61,90
10027,note_on,9,0,4,,,,,,,,,3,,,73,65
10027,note_on,5,0,7,,,,,,,,,6,,,73,127
10107,note_on,84,0,2,,,,,,,,,1,,,73,0
10107,note_on,80,0,3,,,,,,,,,2,,,73,0
10107,note_on,84,0,1,,,,,,,,,0,,,73,0
10109,note_on,82,0,5,,,,,,,,,4,,,61,0
10109,note_on,82,0,4,,,,,,,,,3,,,73,0
10112,note_on,85,0,7,,,,,,,,,6,,,73,0
10112,note_on,85,0,8,,,,,,,,,7,,,61,0
10115,note_on,6,0,5,,,,,,,,,4,,,62,90
10115,note_on,3,0,8,,,,,,,,,7,,,62,127
10115,note_on,8,0,3,,,,,,,,,2,,,74,64
10115,note_on,6,0,4,,,,,,,,,3,,,74,65
10115,note_on,8,0,2,,,,,,,,,1,,,74,64
10115,note_on,8,0,1,,,,,,,,,0,,,74,127
10115,note_on,3,0,7,,,,,,,,,6,,,74,127
10195,note_on,80,0,3,,,,,,,,,2,,,74,0
10195,note_on,80,0,1,,,,,,,,,0,,,74,0
10195,note_on,80,0,2,,,,,,,,,1,,,74,0
10196,note_on,81,0,8,,,,,,,,,7,,,62,0
10196,note_on,81,0,5,,,,,,,,,4,,,62,0
10196,note_on,1,0,1,,,,,,,,,0,,,73,127
10196,note_on,81,0,4,,,,,,,,,3,,,74,0
10196,note_on,81,0,7,,,,,,,,,6,,,74,0
10197,note_on,2,0,2,,,,,,,,,1,,,73,64
10198,note_on,3,0,3,,,,,,,,,2,,,73,64
10199,note_on,3,0,4,,,,,,,,,3,,,73,65
10200,note_on,4,0,5,,,,,,,,,4,,,61,90
10200,note_on,4,0,8,,,,,,,,,7,,,61,127
10200,note_on,4,0,7,,,,,,,,,6,,,73,127
10282,note_on,86,0,1,,,,,,,,,0,,,73,0
10282,note_on,85,0,2,,,,,,,,,1,,,73,0
10285,note_on,86,0,4,,,,,,,,,3,,,73,0
10285,note_on,87,0,3,,,,,,,,,2,,,73,0
10285,note_on,85,0,5,,,,,,,,,4,,,61,0
10286,note_on,86,0,7,,,,,,,,,6,,,73,0
10286,note_on,4,0,2,,,,,,,,,1,,,74,64
10286,note_on,86,0,8,,,,,,,,,7,,,61,0
10286,note_on,4,0,1,,,,,,,,,0,,,74,127
10288,note_on,3,0,5,,,,,,,,,4,,,62,90
10288,note_on,3,0,4,,,,,,,,,3,,,74,65
10288,note_on,3,0,3,,,,,,,,,2,,,74,64
10289,note_on,3,0,7,,,,,,,,,6,,,74,127
10289,note_on,3,0,8,,,,,,,,,7,,,62,127
10420,note_on,134,0,1,,,,,,,,,0,,,74,0
10421,note_on,133,0,3,,,,,,,,,2,,,74,0
10421,note_on,135,0,2,,,,,,,,,1,,,74,0
10424,note_on,136,0,4,,,,,,,,,3,,,74,0
10427,note_on,138,0,8,,,,,,,,,7,,,62,0
10427,note_on,138,0,7,,,,,,,,,6,,,74,0
10427,note_on,139,0,5,,,,,,,,,4,,,62,0
10460,note_on,40,0,1,,,,,,,,,0,,,64,127
10464,note_on,37,0,7,,,,,,,,,6,,,64,127
10464,note_on,37,0,5,,,,,,,,,4,,,52,90
10464,note_on,43,0,3,,,,,,,,,2,,,64,64
10464,note_on,43,0,2,,,,,,,,,1,,,64,64
10464,note_on,40,0,4,,,,,,,,,3,,,64,65
10464,note_on,37,0,8,,,,,,,,,7,,,52,127
10596,note_on,136,0,1,,,,,,,,,0,,,64,0
10597,note_on,133,0,2,,,,,,,,,1,,,64,0
10603,note_on,139,0,4,,,,,,,,,3,,,64,0
10603,note_on,139,0,8,,,,,,,,,7,,,52,0
10603,note_on,139,0,3,,,,,,,,,2,,,64,0
10606,note_on,142,0,5,,,,,,,,,4,,,52,0
10606,note_on,142,0,7,,,,,,,,,6,,,64,0
10639,note_on,42,0,2,,,,,,,,,1,,,64,64
10639,note_on,43,0,1,,,,,,,,,0,,,64,127
10642,note_on,36,0,5,,,,,,,,,4,,,52,90
10642,note_on,39,0,4,,,,,,,,,3,,,64,65
10642,note_on,39,0,3,,,,,,,,,2,,,64,64
10642,note_on,36,0,7,,,,,,,,,6,,,64,127
10642,note_on,39,0,8,,,,,,,,,7,,,52,127
10775,note_on,136,0,2,,,,,,,,,1,,,64,0
10775,note_on,136,0,1,,,,,,,,,0,,,64,0
10778,note_on,136,0,3,,,,,,,,,2,,,64,0
10781,note_on,139,0,8,,,,,,,,,7,,,52,0
10781,note_on,139,0,4,,,,,,,,,3,,,64,0
10784,note_on,142,0,7,,,,,,,,,6,,,64,0
10784,note_on,142,0,5,,,,,,,,,4,,,52,0
10818,note_on,43,0,2,,,,,,,,,1,,,64,64
10818,note_on,40,0,3,,,,,,,,,2,,,64,64
10818,note_on,43,0,1,,,,,,,,,0,,,64,127
10821,note_on,37,0,7,,,,,,,,,6,,,64,127
10821,note_on,40,0,8,,,,,,,,,7,,,52,127
10821,note_on,37,0,5,,,,,,,,,4,,,52,90
10821,note_on,40,0,4,,,,,,,,,3,,,64,65
10953,note_on,135,0,2,,,,,,,,,1,,,64,0
10953,note_on,135,0,1,,,,,,,,,0,,,64,0
10957,note_on,139,0,3,,,,,,,,,2,,,64,0
10957,note_on,136,0,4,,,,,,,,,3,,,64,0
10960,note_on,139,0,7,,,,,,,,,6,,,64,0
10960,note_on,139,0,5,,,,,,,,,4,,,52,0
10960,note_on,139,0,8,,,,,,,,,7,,,52,0
10995,note_on,38,0,3,,,,,,,,,2,,,64,64
10995,note_on,42,0,1,,,,,,,,,0,,,64,127
10995,note_on,38,0,4,,,,,,,,,3,,,64,65
10995,note_on,42,0,2,,,,,,,,,1,,,64,64
10997,note_on,37,0,7,,,,,,,,,6,,,64,127
10997,note_on,37,0,5,,,,,,,,,4,,,52,90
10997,note_on,37,0,8,,,,,,,,,7,,,52,127
11129,note_on,134,0,1,,,,,,,,,0,,,64,0
11131,note_on,136,0,2,,,,,,,,,1,,,64,0
11134,note_on,139,0,3,,,,,,,,,2,,,64,0
11134,note_on,139,0,4,,,,,,,,,3,,,64,0
11134,note_on,137,0,8,,,,,,,,,7,,,52,0
11135,note_on,138,0,7,,,,,,,,,6,,,64,0
11135,note_on,138,0,5,,,,,,,,,4,,,52,0
11170,note_on,41,0,1,,,,,,,,,0,,,64,127
11171,note_on,40,0,2,,,,,,,,,1,,,64,64
11171,note_on,37,0,3,,,,,,,,,2,,,64,64
11172,note_on,37,0,7,,,,,,,,,6,,,64,127
11172,note_on,38,0,4,,,,,,,,,3,,,64,65
11172,note_on,37,0,5,,,,,,,,,4,,,52,90
11173,note_on,39,0,8,,,,,,,,,7,,,52,127
11306,note_on,136,0,1,,,,,,,,,0,,,64,0
11307,note_on,136,0,2,,,,,,,,,1,,,64,0
11310,note_on,138,0,4,,,,,,,,,3,,,64,0
11311,note_on,140,0,3,,,,,,,,,2,,,64,0
11311,note_on,138,0,8,,,,,,,,,7,,,52,0
11312,note_on,140,0,7,,,,,,,,,6,,,64,0
11312,note_on,140,0,5,,,,,,,,,4,,,52,0
11347,note_on,40,0,2,,,,,,,,,1,,,73,64
11347,note_on,41,0,1,,,,,,,,,0,,,73,127
11348,note_on,38,0,4,,,,,,,,,3,,,73,65
11348,note_on,37,0,3,,,,,,,,,2,,,73,64
11348,note_on,36,0,5,,,,,,,,,4,,,61,90
11349,note_on,37,0,7,,,,,,,,,6,,,73,127
11351,note_on,40,0,8,,,,,,,,,7,,,61,127
11433,note_on,86,0,1,,,,,,,,,0,,,73,0
11434,note_on,87,0,2,,,,,,,,,1,,,73,0
11434,note_on,86,0,3,,,,,,,,,2,,,73,0
11435,note_on,87,0,4,,,,,,,,,3,,,73,0
11436,note_on,87,0,7,,,,,,,,,6,,,73,0
11436,note_on,88,0,5,,,,,,,,,4,,,61,0
11437,note_on,86,0,8,,,,,,,,,7,,,61,0
11438,note_on,5,0,1,,,,,,,,,0,,,71,127
11439,note_on,5,0,2,,,,,,,,,1,,,71,64
11440,note_on,4,0,5,,,,,,,,,4,,,59,90
11440,note_on,5,0,4,,,,,,,,,3,,,71,65
11440,note_on,6,0,3,,,,,,,,,2,,,71,64
11441,note_on,5,0,7,,,,,,,,,6,,,71,127
11441,note_on,4,0,8,,,,,,,,,7,,,59,127
11524,note_on,85,0,2,,,,,,,,,1,,,71,0
11524,note_on,86,0,1,,,,,,,,,0,,,71,0
11527,note_on,87,0,4,,,,,,,,,3,,,71,0
11527,note_on,87,0,3,,,,,,,,,2,,,71,0
11530,note_on,89,0,8,,,,,,,,,7,,,59,0
11530,note_on,89,0,7,,,,,,,,,6,,,71,0
11530,note_on,90,0,5,,,,,,,,,4,,,59,0
11530,note_on,6,0,1,,,,,,,,,0,,,73,127
11533,note_on,6,0,4,,,,,,,,,3,,,73,65
11533,note_on,3,0,8,,,,,,,,,7,,,61,127
11533,note_on,3,0,5,,,,,,,,,4,,,61,90
11533,note_on,3,0,7,,,,,,,,,6,,,73,127
11533,note_on,9,0,2,,,,,,,,,1,,,73,64
11533,note_on,6,0,3,,,,,,,,,2,,,73,64
11612,note_on,79,0,3,,,,,,,,,2,,,73,0
11612,note_on,82,0,1,,,,,,,,,0,,,73,0
11612,note_on,79,0,2,,,,,,,,,1,,,73,0
11617,note_on,84,0,5,,,,,,,,,4,,,61,0
11617,note_on,0,0,7,,,,,,,,,6,,,71,127
11617,note_on,84,0,8,,,,,,,,,7,,,61,0
11617,note_on,0,0,8,,,,,,,,,7,,,59,127
11617,note_on,84,0,7,,,,,,,,,6,,,73,0
11617,note_on,0,0,5,,,,,,,,,4,,,59,90
11617,note_on,5,0,2,,,,,,,,,1,,,71,64
11617,note_on,84,0,4,,,,,,,,,3,,,73,0
11617,note_on,5,0,1,,,,,,,,,0,,,71,127
11617,note_on,5,0,3,,,,,,,,,2,,,71,64
11617,note_on,0,0,4,,,,,,,,,3,,,71,65
11699,note_on,82,0,1,,,,,,,,,0,,,71,0
11700,note_on,83,0,2,,,,,,,,,1,,,71,0
11700,note_on,83,0,3,,,,,,,,,2,,,71,0
11701,note_on,84,0,5,,,,,,,,,4,,,59,0
11701,note_on,84,0,7,,,,,,,,,6,,,71,0
11701,note_on,84,0,4,,,,,,,,,3,,,71,0
11702,note_on,85,0,8,,,,,,,,,7,,,59,0
11704,note_on,4,0,2,,,,,,,,,1,,,73,64
11704,note_on,5,0,1,,,,,,,,,0,,,73,127
11705,note_on,5,0,3,,,,,,,,,2,,,73,64
11705,note_on,4,0,4,,,,,,,,,3,,,73,65
11706,note_on,5,0,5,,,,,,,,,4,,,61,90
11706,note_on,5,0,7,,,,,,,,,6,,,73,127
11708,note_on,6,0,8,,,,,,,,,7,,,61,127
11841,note_on,137,0,2,,,,,,,,,1,,,73,0
11841,note_on,137,0,1,,,,,,,,,0,,,73,0
11845,note_on,137,0,8,,,,,,,,,7,,,61,0
11845,note_on,139,0,5,,,,,,,,,4,,,61,0
11845,note_on,140,0,3,,,,,,,,,2,,,73,0
11845,note_on,140,0,4,,,,,,,,,3,,,73,0
11845,note_on,139,0,7,,,,,,,,,6,,,73,0
11880,note_on,39,0,1,,,,,,,,,0,,,64,127
11880,note_on,39,0,2,,,,,,,,,1,,,64,64
11882,note_on,37,0,3,,,,,,,,,2,,,64,64
11884,note_on,39,0,8,,,,,,,,,7,,,52,127
11884,note_on,39,0,5,,,,,,,,,4,,,52,90
11884,note_on,39,0,4,,,,,,,,,3,,,64,65
11884,note_on,39,0,7,,,,,,,,,6,,,64,127
12018,note_on,138,0,1,,,,,,,,,0,,,64,0
12019,note_on,135,0,8,,,,,,,,,7,,,52,0
12019,note_on,139,0,2,,,,,,,,,1,,,64,0
12019,note_on,137,0,3,,,,,,,,,2,,,64,0
12019,note_on,135,0,4,,,,,,,,,3,,,64,0
12024,note_on,140,0,7,,,,,,,,,6,,,64,0
12024,note_on,140,0,5,,,,,,,,,4,,,52,0
12057,note_on,39,0,1,,,,,,,,,0,,,64,127
12058,note_on,39,0,3,,,,,,,,,2,,,64,64
12058,note_on,39,0,2,,,,,,,,,1,,,64,64
12059,note_on,40,0,4,,,,,,,,,3,,,64,65
12059,note_on,35,0,7,,,,,,,,,6,,,64,127
12059,note_on,35,0,5,,,,,,,,,4,,,52,90
12062,note_on,43,0,8,,,,,,,,,7,,,52,127
12192,note_on,135,0,1,,,,,,,,,0,,,64,0
12192,note_on,134,0,2,,,,,,,,,1,,,64,0
12198,note_on,139,0,7,,,,,,,,,6,,,64,0
12198,note_on,140,0,3,,,,,,,,,2,,,64,0
12198,note_on,139,0,4,,,,,,,,,3,,,64,0
12199,note_on,137,0,8,,,,,,,,,7,,,52,0
12199,note_on,140,0,5,,,,,,,,,4,,,52,0
12236,note_on,38,0,3,,,,,,,,,2,,,64,64
12236,note_on,38,0,4,,,,,,,,,3,,,64,65
12236,note_on,44,0,1,,,,,,,,,0,,,64,127
12236,note_on,44,0,2,,,,,,,,,1,,,64,64
12236,note_on,37,0,5,,,,,,,,,4,,,52,90
12237,note_on,39,0,7,,,,,,,,,6,,,64,127
12238,note_on,39,0,8,,,,,,,,,7,,,52,127
12371,note_on,135,0,1,,,,,,,,,0,,,64,0
12371,note_on,135,0,2,,,,,,,,,1,,,64,0
12371,note_on,135,0,4,,,,,,,,,3,,,64,0
12374,note_on,138,0,3,,,,,,,,,2,,,64,0
12379,note_on,143,0,5,,,,,,,,,4,,,52,0
12379,note_on,141,0,8,,,,,,,,,7,,,52,0
12379,note_on,142,0,7,,,,,,,,,6,,,64,0
12412,note_on,41,0,4,,,,,,,,,3,,,64,65
12412,note_on,41,0,2,,,,,,,,,1,,,64,64
12412,note_on,38,0,3,,,,,,,,,2,,,64,64
12412,note_on,41,0,1,,,,,,,,,0,,,64,127
12413,note_on,34,0,5,,,,,,,,,4,,,52,90
12416,note_on,37,0,8,,,,,,,,,7,,,52,127
12416,note_on,37,0,7,,,,,,,,,6,,,64,127
12546,note_on,134,0,1,,,,,,,,,0,,,64,0
12547,note_on,135,0,2,,,,,,,,,1,,,64,0
12552,note_on,140,0,4,,,,,,,,,3,,,64,0
12555,note_on,139,0,7,,,,,,,,,6,,,64,0
12555,note_on,139,0,8,,,,,,,,,7,,,52,0
12555,note_on,142,0,5,,,,,,,,,4,,,52,0
12555,note_on,143,0,3,,,,,,,,,2,,,64,0
12590,note_on,35,0,3,,,,,,,,,2,,,64,64
12590,note_on,43,0,2,,,,,,,,,1,,,64,64
12590,note_on,44,0,1,,,,,,,,,0,,,64,127
12592,note_on,37,0,8,,,,,,,,,7,,,52,127
12592,note_on,40,0,4,,,,,,,,,3,,,64,65
12592,note_on,37,0,5,,,,,,,,,4,,,52,90
12592,note_on,37,0,7,,,,,,,,,6,,,64,127
12728,note_on,138,0,1,,,,,,,,,0,,,64,0
12728,note_on,136,0,8,,,,,,,,,7,,,52,0
12728,note_on,136,0,4,,,,,,,,,3,,,64,0
12728,note_on,138,0,2,,,,,,,,,1,,,64,0
12728,note_on,138,0,3,,,,,,,,,2,,,64,0
12732,note_on,140,0,7,,,,,,,,,6,,,64,0
12732,note_on,140,0,5,,,,,,,,,4,,,52,0
12766,note_on,38,0,1,,,,,,,,,0,,,72,127
12766,note_on,38,0,2,,,,,,,,,1,,,72,64
12771,note_on,39,0,7,,,,,,,,,6,,,72,127
12771,note_on,43,0,3,,,,,,,,,2,,,72,64
12771,note_on,39,0,5,,,,,,,,,4,,,60,90
12771,note_on,43,0,8,,,,,,,,,7,,,60,127
12771,note_on,43,0,4,,,,,,,,,3,,,72,65
12903,note_on,137,0,1,,,,,,,,,0,,,72,0
12903,note_on,137,0,2,,,,,,,,,1,,,72,0
12905,note_on,134,0,3,,,,,,,,,2,,,72,0
12906,note_on,135,0,4,,,,,,,,,3,,,72,0
12911,note_on,140,0,5,,,,,,,,,4,,,60,0
12911,note_on,140,0,8,,,,,,,,,7,,,60,0
12911,note_on,140,0,7,,,,,,,,,6,,,72,0
12944,note_on,41,0,2,,,,,,,,,1,,,72,64
12944,note_on,41,0,1,,,,,,,,,0,,,72,127
12944,note_on,39,0,3,,,,,,,,,2,,,72,64
12945,note_on,39,0,4,,,,,,,,,3,,,72,65
12945,note_on,34,0,8,,,,,,,,,7,,,60,127
12945,note_on,34,0,5,,,,,,,,,4,,,60,90
12945,note_on,34,0,7,,,,,,,,,6,,,72,127
13078,note_on,134,0,1,,,,,,,,,0,,,72,0
13079,note_on,135,0,2,,,,,,,,,1,,,72,0
13080,note_on,135,0,4,,,,,,,,,3,,,72,0
13083,note_on,139,0,3,,,,,,,,,2,,,72,0
13085,note_on,140,0,5,,,,,,,,,4,,,60,0
13087,note_on,142,0,8,,,,,,,,,7,,,60,0
13087,note_on,142,0,7,,,,,,,,,6,,,72,0
13121,note_on,43,0,1,,,,,,,,,0,,,72,127
13121,note_on,42,0,2,,,,,,,,,1,,,72,64
13122,note_on,39,0,3,,,,,,,,,2,,,72,64
13125,note_on,45,0,4,,,,,,,,,3,,,72,65
13125,note_on,38,0,8,,,,,,,,,7,,,60,127
13125,note_on,40,0,5,,,,,,,,,4,,,60,90
13125,note_on,38,0,7,,,,,,,,,6,,,72,127
13258,note_on,137,0,2,,,,,,,,,1,,,72,0
13258,note_on,137,0,1,,,,,,,,,0,,,72,0
13260,note_on,138,0,3,,,,,,,,,2,,,72,0
13261,note_on,136,0,8,,,,,,,,,7,,,60,0
13261,note_on,136,0,4,,,,,,,,,3,,,72,0
13264,note_on,139,0,7,,,,,,,,,6,,,72,0
13264,note_on,139,0,5,,,,,,,,,4,,,60,0
13299,note_on,41,0,2,,,,,,,,,1,,,71,64
13299,note_on,39,0,3,,,,,,,,,2,,,71,64
13299,note_on,41,0,1,,,,,,,,,0,,,71,127
13302,note_on,38,0,7,,,,,,,,,6,,,71,127
13302,note_on,41,0,4,,,,,,,,,3,,,71,65
13302,note_on,41,0,8,,,,,,,,,7,,,59,127
13302,note_on,38,0,5,,,,,,,,,4,,,59,90
13347,note_on,48,0,2,,,,,,,,,1,,,71,0
13350,note_on,51,0,3,,,,,,,,,2,,,71,0
13350,note_on,48,0,5,,,,,,,,,4,,,59,0
13350,note_on,48,0,4,,,,,,,,,3,,,71,0
13350,note_on,48,0,7,,,,,,,,,6,,,71,0
13352,note_on,50,0,8,,,,,,,,,7,,,59,0
13363,note_on,64,0,1,,,,,,,,,0,,,71,0
13387,note_on,24,0,1,,,,,,,,,0,,,69,127
13390,note_on,40,0,7,,,,,,,,,6,,,69,127
13390,note_on,43,0,2,,,,,,,,,1,,,69,64
13390,note_on,40,0,3,,,,,,,,,2,,,69,64
13390,note_on,40,0,4,,,,,,,,,3,,,69,65
13390,note_on,40,0,5,,,,,,,,,4,,,57,90
13391,note_on,39,0,8,,,,,,,,,7,,,57,127
13431,note_on,41,0,2,,,,,,,,,1,,,69,0
13433,note_on,43,0,3,,,,,,,,,2,,,69,0
13434,note_on,44,0,7,,,,,,,,,6,,,69,0
13434,note_on,44,0,4,,,,,,,,,3,,,69,0
13436,note_on,45,0,8,,,,,,,,,7,,,57,0
13436,note_on,46,0,5,,,,,,,,,4,,,57,0
13451,note_on,64,0,1,,,,,,,,,0,,,69,0
13476,note_on,25,0,1,,,,,,,,,0,,,76,127
13476,note_on,43,0,3,,,,,,,,,2,,,76,64
13476,note_on,40,0,5,,,,,,,,,4,,,64,90
13476,note_on,45,0,2,,,,,,,,,1,,,76,64
13476,note_on,42,0,4,,,,,,,,,3,,,76,65
13477,note_on,43,0,7,,,,,,,,,6,,,76,127
13478,note_on,42,0,8,,,,,,,,,7,,,64,127
13965,note_on,489,0,1,,,,,,,,,0,,,76,0
13966,note_on,490,0,2,,,,,,,,,1,,,76,0
13970,note_on,494,0,3,,,,,,,,,2,,,76,0
13970,note_on,494,0,4,,,,,,,,,3,,,76,0
13972,note_on,495,0,7,,,,,,,,,6,,,76,0
13972,note_on,496,0,5,,,,,,,,,4,,,64,0
13972,note_on,494,0,8,,,,,,,,,7,,,64,0
14007,note_on,42,0,1,,,,,,,,,0,,,64,127
14008,note_on,36,0,5,,,,,,,,,4,,,52,90
14008,note_on,38,0,4,,,,,,,,,3,,,64,65
14008,note_on,42,0,2,,,,,,,,,1,,,64,64
14008,note_on,38,0,3,,,,,,,,,2,,,64,64
14009,note_on,37,0,7,,,,,,,,,6,,,64,127
14009,note_on,37,0,8,,,,,,,,,7,,,52,127
14145,note_on,137,0,2,,,,,,,,,1,,,64,0
14145,note_on,138,0,1,,,,,,,,,0,,,64,0
14149,note_on,141,0,4,,,,,,,,,3,,,64,0
14149,note_on,140,0,8,,,,,,,,,7,,,52,0
14149,note_on,141,0,3,,,,,,,,,2,,,64,0
14151,note_on,143,0,5,,,,,,,,,4,,,52,0
14152,note_on,143,0,7,,,,,,,,,6,,,64,0
14184,note_on,39,0,1,,,,,,,,,0,,,72,127
14185,note_on,40,0,2,,,,,,,,,1,,,72,64
14186,note_on,34,0,7,,,,,,,,,6,,,72,127
14186,note_on,35,0,5,,,,,,,,,4,,,60,90
14186,note_on,37,0,3,,,,,,,,,2,,,72,64
14186,note_on,37,0,4,,,,,,,,,3,,,72,65
14187,note_on,38,0,8,,,,,,,,,7,,,60,127
14320,note_on,136,0,1,,,,,,,,,0,,,72,0
14320,note_on,135,0,2,,,,,,,,,1,,,72,0
14325,note_on,139,0,4,,,,,,,,,3,,,72,0
14327,note_on,141,0,3,,,,,,,,,2,,,72,0
14330,note_on,144,0,7,,,,,,,,,6,,,72,0
14330,note_on,144,0,5,,,,,,,,,4,,,60,0
14330,note_on,143,0,8,,,,,,,,,7,,,60,0
14362,note_on,42,0,1,,,,,,,,,0,,,72,127
14362,note_on,42,0,2,,,,,,,,,1,,,72,64
14365,note_on,38,0,3,,,,,,,,,2,,,72,64
14365,note_on,35,0,5,,,,,,,,,4,,,60,90
14365,note_on,40,0,4,,,,,,,,,3,,,72,65
14365,note_on,35,0,8,,,,,,,,,7,,,60,127
14365,note_on,35,0,7,,,,,,,,,6,,,72,127
14497,note_on,135,0,1,,,,,,,,,0,,,72,0
14497,note_on,135,0,2,,,,,,,,,1,,,72,0
14502,note_on,137,0,3,,,,,,,,,2,,,72,0
14502,note_on,137,0,4,,,,,,,,,3,,,72,0
14502,note_on,137,0,8,,,,,,,,,7,,,60,0
14505,note_on,140,0,5,,,,,,,,,4,,,60,0
14505,note_on,140,0,7,,,,,,,,,6,,,72,0
14540,note_on,38,0,3,,,,,,,,,2,,,72,64
14540,note_on,43,0,2,,,,,,,,,1,,,72,64
14540,note_on,43,0,1,,,,,,,,,0,,,72,127
14543,note_on,41,0,8,,,,,,,,,7,,,60,127
14543,note_on,41,0,4,,,,,,,,,3,,,72,65
14543,note_on,38,0,7,,,,,,,,,6,,,72,127
14543,note_on,38,0,5,,,,,,,,,4,,,60,90
14675,note_on,135,0,2,,,,,,,,,1,,,72,0
14675,note_on,135,0,1,,,,,,,,,0,,,72,0
14678,note_on,138,0,3,,,,,,,,,2,,,72,0
14679,note_on,136,0,5,,,,,,,,,4,,,60,0
14679,note_on,136,0,7,,,,,,,,,6,,,72,0
14679,note_on,136,0,4,,,,,,,,,3,,,72,0
14679,note_on,136,0,8,,,,,,,,,7,,,60,0
14718,note_on,40,0,3,,,,,,,,,2,,,71,64
14718,note_on,43,0,1,,,,,,,,,0,,,71,127
14718,note_on,39,0,4,,,,,,,,,3,,,71,65
14718,note_on,43,0,2,,,,,,,,,1,,,71,64
14718,note_on,39,0,5,,,,,,,,,4,,,59,90
14722,note_on,43,0,7,,,,,,,,,6,,,71,127
14722,note_on,43,0,8,,,,,,,,,7,,,59,127
14764,note_on,46,0,3,,,,,,,,,2,,,71,0
14764,note_on,46,0,4,,,,,,,,,3,,,71,0
14764,note_on,46,0,2,,,,,,,,,1,,,71,0
14765,note_on,47,0,5,,,,,,,,,4,,,59,0
14766,note_on,44,0,7,,,,,,,,,6,,,71,0
14770,note_on,48,0,8,,,,,,,,,7,,,59,0
14780,note_on,62,0,1,,,,,,,,,0,,,71,0
14804,note_on,24,0,1,,,,,,,,,0,,,69,127
14805,note_on,41,0,4,,,,,,,,,3,,,69,65
14805,note_on,41,0,3,,,,,,,,,2,,,69,64
14805,note_on,41,0,2,,,,,,,,,1,,,69,64
14806,note_on,41,0,5,,,,,,,,,4,,,57,90
14807,note_on,41,0,7,,,,,,,,,6,,,69,127
14808,note_on,38,0,8,,,,,,,,,7,,,57,127
14849,note_on,44,0,2,,,,,,,,,1,,,69,0
14851,note_on,46,0,3,,,,,,,,,2,,,69,0
14852,note_on,47,0,4,,,,,,,,,3,,,69,0
14853,note_on,46,0,7,,,,,,,,,6,,,69,0
14853,note_on,47,0,5,,,,,,,,,4,,,57,0
14854,note_on,46,0,8,,,,,,,,,7,,,57,0
14870,note_on,66,0,1,,,,,,,,,0,,,69,0
14894,note_on,43,0,3,,,,,,,,,2,,,70,64
14894,note_on,42,0,4,,,,,,,,,3,,,70,65
14894,note_on,24,0,1,,,,,,,,,0,,,70,127
14894,note_on,45,0,2,,,,,,,,,1,,,70,64
14894,note_on,41,0,5,,,,,,,,,4,,,59,90
14896,note_on,43,0,7,,,,,,,,,6,,,70,127
14896,note_on,42,0,8,,,,,,,,,7,,,58,127
15030,note_on,136,0,2,,,,,,,,,1,,,70,0
15030,note_on,136,0,1,,,,,,,,,0,,,70,0
15033,note_on,139,0,3,,,,,,,,,2,,,70,0
15033,note_on,137,0,7,,,,,,,,,6,,,70,0
15033,note_on,139,0,4,,,,,,,,,3,,,70,0
15034,note_on,140,0,5,,,,,,,,,4,,,59,0
15034,note_on,138,0,8,,,,,,,,,7,,,58,0
15071,note_on,41,0,1,,,,,,,,,0,,,70,127
15075,note_on,42,0,7,,,,,,,,,6,,,70,127
15075,note_on,42,0,4,,,,,,,,,3,,,70,65
15075,note_on,41,0,8,,,,,,,,,7,,,58,127
15075,note_on,45,0,2,,,,,,,,,1,,,70,64
15075,note_on,41,0,5,,,,,,,,,4,,,59,90
15075,note_on,42,0,3,,,,,,,,,2,,,70,64
15207,note_on,136,0,1,,,,,,,,,0,,,70,0
15207,note_on,132,0,2,,,,,,,,,1,,,70,0
15212,note_on,137,0,4,,,,,,,,,3,,,70,0
15212,note_on,137,0,8,,,,,,,,,7,,,58,0
15212,note_on,137,0,3,,,,,,,,,2,,,70,0
15214,note_on,139,0,5,,,,,,,,,4,,,59,0
15214,note_on,139,0,7,,,,,,,,,6,,,70,0
15250,note_on,43,0,1,,,,,,,,,0,,,70,127
15251,note_on,39,0,3,,,,,,,,,2,,,70,64
15251,note_on,37,0,5,,,,,,,,,4,,,59,90
15251,note_on,44,0,2,,,,,,,,,1,,,70,64
15251,note_on,39,0,8,,,,,,,,,7,,,58,127
15251,note_on,39,0,4,,,,,,,,,3,,,70,65
15251,note_on,37,0,7,,,,,,,,,6,,,70,127
15385,note_on,134,0,2,,,,,,,,,1,,,70,0
15385,note_on,134,0,4,,,,,,,,,3,,,70,0
15385,note_on,135,0,1,,,,,,,,,0,,,70,0
15388,note_on,137,0,3,,,,,,,,,2,,,70,0
15390,note_on,139,0,8,,,,,,,,,7,,,58,0
15391,note_on,140,0,7,,,,,,,,,6,,,70,0
15391,note_on,140,0,5,,,,,,,,,4,,,59,0
15428,note_on,43,0,1,,,,,,,,,0,,,69,127
15428,note_on,40,0,3,,,,,,,,,2,,,69,64
15428,note_on,43,0,2,,,,,,,,,1,,,69,64
15429,note_on,38,0,5,,,,,,,,,4,,,57,90
15429,note_on,44,0,4,,,,,,,,,3,,,69,65
15429,note_on,38,0,7,,,,,,,,,6,,,69,127
15429,note_on,39,0,8,,,,,,,,,7,,,57,127
15477,note_on,49,0,2,,,,,,,,,1,,,69,0
15477,note_on,48,0,5,,,,,,,,,4,,,57,0
15477,note_on,48,0,4,,,,,,,,,3,,,69,0
15477,note_on,49,0,3,,,,,,,,,2,,,69,0
15479,note_on,50,0,8,,,,,,,,,7,,,57,0
15479,note_on,50,0,7,,,,,,,,,6,,,69,0
15489,note_on,61,0,1,,,,,,,,,0,,,69,0
15513,note_on,24,0,1,,,,,,,,,0,,,68,127
15518,note_on,39,0,7,,,,,,,,,6,,,68,127
15518,note_on,39,0,8,,,,,,,,,7,,,56,127
15518,note_on,41,0,2,,,,,,,,,1,,,68,64
15518,note_on,41,0,5,,,,,,,,,4,,,56,90
15518,note_on,41,0,3,,,,,,,,,2,,,68,64
15518,note_on,41,0,4,,,,,,,,,3,,,68,65
15558,note_on,40,0,2,,,,,,,,,1,,,68,0
15560,note_on,42,0,3,,,,,,,,,2,,,68,0
15561,note_on,43,0,7,,,,,,,,,6,,,68,0
15561,note_on,43,0,4,,,,,,,,,3,,,68,0
15562,note_on,44,0,8,,,,,,,,,7,,,56,0
15563,note_on,45,0,5,,,,,,,,,4,,,56,0
15578,note_on,65,0,1,,,,,,,,,0,,,68,0
15604,note_on,41,0,5,,,,,,,,,4,,,57,90
15604,note_on,43,0,4,,,,,,,,,3,,,69,65
15604,note_on,26,0,1,,,,,,,,,0,,,69,127
15604,note_on,43,0,7,,,,,,,,,6,,,69,127
15604,note_on,46,0,2,,,,,,,,,1,,,69,64
15604,note_on,44,0,3,,,,,,,,,2,,,69,64
15604,note_on,42,0,8,,,,,,,,,7,,,57,127
15648,note_on,44,0,2,,,,,,,,,1,,,69,0
15652,note_on,48,0,4,,,,,,,,,3,,,69,0
15652,note_on,48,0,3,,,,,,,,,2,,,69,0
15654,note_on,50,0,5,,,,,,,,,4,,,57,0
15655,note_on,51,0,8,,,,,,,,,7,,,57,0
15655,note_on,51,0,7,,,,,,,,,6,,,69,0
15666,note_on,62,0,1,,,,,,,,,0,,,69,0
15691,note_on,25,0,1,,,,,,,,,0,,,71,127
15692,note_on,44,0,2,,,,,,,,,1,,,71,64
15692,note_on,40,0,3,,,,,,,,,2,,,71,64
15694,note_on,39,0,7,,,,,,,,,6,,,71,127
15694,note_on,40,0,5,,,,,,,,,4,,,59,90
15694,note_on,39,0,8,,,,,,,,,7,,,59,127
15694,note_on,42,0,4,,,,,,,,,3,,,71,65
15735,note_on,43,0,3,,,,,,,,,2,,,71,0
15735,note_on,43,0,2,,,,,,,,,1,,,71,0
15738,note_on,44,0,4,,,,,,,,,3,,,71,0
15740,note_on,46,0,5,,,,,,,,,4,,,59,0
15740,note_on,46,0,7,,,,,,,,,6,,,71,0
15741,note_on,47,0,8,,,,,,,,,7,,,59,0
15756,note_on,65,0,1,,,,,,,,,0,,,71,0
15779,note_on,23,0,1,,,,,,,,,0,,,73,127
15779,note_on,44,0,2,,,,,,,,,1,,,73,64
15780,note_on,40,0,5,,,,,,,,,4,,,61,90
15780,note_on,42,0,4,,,,,,,,,3,,,73,65
15780,note_on,45,0,3,,,,,,,,,2,,,73,64
15781,note_on,41,0,7,,,,,,,,,6,,,73,127
15783,note_on,42,0,8,,,,,,,,,7,,,61,127
15826,note_on,47,0,2,,,,,,,,,1,,,73,0
15829,note_on,49,0,3,,,,,,,,,2,,,73,0
15832,note_on,51,0,7,,,,,,,,,6,,,73,0
15832,note_on,52,0,4,,,,,,,,,3,,,73,0
15832,note_on,52,0,5,,,,,,,,,4,,,61,0
15832,note_on,49,0,8,,,,,,,,,7,,,61,0
15844,note_on,65,0,1,,,,,,,,,0,,,73,0
15867,note_on,23,0,1,,,,,,,,,0,,,74,127
15868,note_on,42,0,2,,,,,,,,,1,,,74,64
15869,note_on,37,0,4,,,,,,,,,3,,,74,65
15869,note_on,40,0,3,,,,,,,,,2,,,74,64
15870,note_on,38,0,5,,,,,,,,,4,,,62,90
15871,note_on,39,0,7,,,,,,,,,6,,,74,127
15872,note_on,40,0,8,,,,,,,,,7,,,62,127
15913,note_on,45,0,2,,,,,,,,,1,,,74,0
15916,note_on,47,0,3,,,,,,,,,2,,,74,0
15919,note_on,47,0,8,,,,,,,,,7,,,62,0
15919,note_on,49,0,5,,,,,,,,,4,,,62,0
15919,note_on,48,0,7,,,,,,,,,6,,,74,0
15919,note_on,50,0,4,,,,,,,,,3,,,74,0
15933,note_on,66,0,1,,,,,,,,,0,,,74,0
15958,note_on,42,0,3,,,,,,,,,2,,,76,64
15958,note_on,25,0,1,,,,,,,,,0,,,76,127
15958,note_on,45,0,2,,,,,,,,,1,,,76,64
15959,note_on,40,0,5,,,,,,,,,4,,,64,90
15959,note_on,40,0,4,,,,,,,,,3,,,76,65
15960,note_on,41,0,7,,,,,,,,,6,,,76,127
15960,note_on,41,0,8,,,,,,,,,7,,,64,127
16092,note_on,134,0,1,,,,,,,,,0,,,76,0
16094,note_on,135,0,4,,,,,,,,,3,,,76,0
16094,note_on,136,0,2,,,,,,,,,1,,,76,0
16098,note_on,140,0,3,,,,,,,,,2,,,76,0
16098,note_on,138,0,8,,,,,,,,,7,,,64,0
16100,note_on,141,0,5,,,,,,,,,4,,,64,0
16101,note_on,141,0,7,,,,,,,,,6,,,76,0
16135,note_on,41,0,2,,,,,,,,,1,,,64,64
16135,note_on,43,0,1,,,,,,,,,0,,,64,127
16138,note_on,44,0,4,,,,,,,,,3,,,64,65
16138,note_on,40,0,3,,,,,,,,,2,,,64,64
16138,note_on,38,0,5,,,,,,,,,4,,,52,90
16139,note_on,38,0,7,,,,,,,,,6,,,64,127
16139,note_on,41,0,8,,,,,,,,,7,,,52,127
16272,note_on,137,0,1,,,,,,,,,0,,,64,0
16273,note_on,138,0,2,,,,,,,,,1,,,64,0
16273,note_on,135,0,3,,,,,,,,,2,,,64,0
16273,note_on,134,0,8,,,,,,,,,7,,,52,0
16273,note_on,135,0,4,,,,,,,,,3,,,64,0
16276,note_on,138,0,5,,,,,,,,,4,,,52,0
16277,note_on,138,0,7,,,,,,,,,6,,,64,0
16309,note_on,37,0,1,,,,,,,,,0,,,57,127
16310,note_on,37,0,2,,,,,,,,,1,,,57,64
16310,note_on,37,0,3,,,,,,,,,2,,,57,64
16311,note_on,38,0,4,,,,,,,,,3,,,57,65
16312,note_on,35,0,7,,,,,,,,,6,,,57,127
16312,note_on,36,0,5,,,,,,,,,4,,,45,90
16312,note_on,39,0,8,,,,,,,,,7,,,45,127
16644,note_on,335,0,1,,,,,,,,,0,,,57,0
16665,note_on,355,0,2,,,,,,,,,1,,,57,0
16666,note_on,356,0,3,,,,,,,,,2,,,57,0
16667,note_on,355,0,5,,,,,,,,,4,,,45,0
16667,note_on,356,0,4,,,,,,,,,3,,,57,0
16668,note_on,356,0,8,,,,,,,,,7,,,45,0
16668,note_on,356,0,7,,,,,,,,,6,,,57,0
16843,note_on,176,0,5,,,,,,,,,4,,,57,90
16843,note_on,199,0,1,,,,,,,,,0,,,69,127
16846,note_on,178,0,7,,,,,,,,,6,,,69,127
16846,note_on,178,0,8,,,,,,,,,7,,,57,127
16978,note_on,135,0,1,,,,,,,,,0,,,69,0
16985,note_on,139,0,8,,,,,,,,,7,,,57,0
16986,note_on,140,0,7,,,,,,,,,6,,,69,0
16986,note_on,143,0,5,,,,,,,,,4,,,57,0
17021,note_on,43,0,1,,,,,,,,,0,,,73,127
17024,note_on,39,0,8,,,,,,,,,7,,,45,127
17024,note_on,38,0,5,,,,,,,,,4,,,45,90
17024,note_on,0,0,7,,,,,,,,,6,,,64,127
17024,note_on,0,0,7,,,,,,,,,6,,,69,127
17024,note_on,38,0,7,,,,,,,,,6,,,73,127
17024,program_change,0,0,5,,,,,,,,42,4,,,,
17084,note_on,63,0,1,,,,,,,,,0,,,73,0
17108,note_on,24,0,1,,,,,,,,,0,,,69,127
17173,note_on,65,0,1,,,,,,,,,0,,,69,0
17197,note_on,24,0,1,,,,,,,,,0,,,64,127
17261,note_on,64,0,1,,,,,,,,,0,,,64,0
17286,note_on,25,0,1,,,,,,,,,0,,,73,127
17342,note_on,318,0,7,,,,,,,,,6,,,64,0
17343,note_on,0,0,7,,,,,,,,,6,,,73,0
17343,note_on,1,0,7,,,,,,,,,6,,,69,0
17343,note_on,319,0,8,,,,,,,,,7,,,45,0
17343,note_on,319,0,5,,,,,,,,,4,,,45,0
17349,note_on,63,0,1,,,,,,,,,0,,,73,0
17377,note_on,28,0,1,,,,,,,,,0,,,74,127
17379,note_on,36,0,5,,,,,,,,,4,,,44,90
17379,note_on,36,0,8,,,,,,,,,7,,,44,127
17379,note_on,36,0,7,,,,,,,,,6,,,74,127
17379,note_on,0,0,7,,,,,,,,,6,,,64,127
17379,note_on,0,0,7,,,,,,,,,6,,,71,127
17441,note_on,64,0,1,,,,,,,,,0,,,74,0
17464,note_on,23,0,1,,,,,,,,,0,,,71,127
17528,note_on,64,0,1,,,,,,,,,0,,,71,0
17552,note_on,24,0,1,,,,,,,,,0,,,64,127
17617,note_on,65,0,1,,,,,,,,,0,,,64,0
17641,note_on,24,0,1,,,,,,,,,0,,,74,127
17686,note_on,307,0,5,,,,,,,,,4,,,44,0
17694,note_on,315,0,8,,,,,,,,,7,,,44,0
17694,note_on,0,0,7,,,,,,,,,6,,,71,0
17694,note_on,315,0,7,,,,,,,,,6,,,64,0
17695,note_on,1,0,7,,,,,,,,,6,,,74,0
17706,note_on,65,0,1,,,,,,,,,0,,,74,0
17730,note_on,24,0,1,,,,,,,,,0,,,73,127
17731,note_on,36,0,7,,,,,,,,,6,,,73,127
17731,note_on,0,0,7,,,,,,,,,6,,,69,127
17731,note_on,0,0,7,,,,,,,,,6,,,64,127
17731,note_on,45,0,5,,,,,,,,,4,,,45,90
17731,note_on,37,0,8,,,,,,,,,7,,,45,127
17795,note_on,65,0,1,,,,,,,,,0,,,73,0
17816,note_on,21,0,1,,,,,,,,,0,,,69,127
17881,note_on,65,0,1,,,,,,,,,0,,,69,0
17906,note_on,25,0,1,,,,,,,,,0,,,64,127
17971,note_on,65,0,1,,,,,,,,,0,,,64,0
17995,note_on,24,0,1,,,,,,,,,0,,,73,127
18044,note_on,313,0,5,,,,,,,,,4,,,45,0
18045,note_on,314,0,7,,,,,,,,,6,,,64,0
18046,note_on,315,0,8,,,,,,,,,7,,,45,0
18047,note_on,2,0,7,,,,,,,,,6,,,69,0
18051,note_on,4,0,7,,,,,,,,,6,,,73,0
18057,note_on,62,0,1,,,,,,,,,0,,,73,0
18084,note_on,27,0,1,,,,,,,,,0,,,74,127
18087,note_on,43,0,5,,,,,,,,,4,,,44,90
18087,note_on,36,0,7,,,,,,,,,6,,,74,127
18087,note_on,41,0,8,,,,,,,,,7,,,44,127
18087,note_on,0,0,7,,,,,,,,,6,,,64,127
18087,note_on,0,0,7,,,,,,,,,6,,,71,127
18147,note_on,63,0,1,,,,,,,,,0,,,74,0
18173,note_on,26,0,1,,,,,,,,,0,,,71,127
18237,note_on,64,0,1,,,,,,,,,0,,,71,0
18262,note_on,25,0,1,,,,,,,,,0,,,64,127
18326,note_on,64,0,1,,,,,,,,,0,,,64,0
18350,note_on,24,0,1,,,,,,,,,0,,,74,127
18397,note_on,310,0,5,,,,,,,,,4,,,44,0
18401,note_on,314,0,7,,,,,,,,,6,,,64,0
18401,note_on,314,0,8,,,,,,,,,7,,,44,0
18401,note_on,0,0,7,,,,,,,,,6,,,71,0
18405,note_on,4,0,7,,,,,,,,,6,,,74,0
18414,note_on,64,0,1,,,,,,,,,0,,,74,0
18438,note_on,41,0,5,,,,,,,,,4,,,45,90
18438,note_on,24,0,1,,,,,,,,,0,,,73,127
18441,note_on,40,0,8,,,,,,,,,7,,,45,127
18441,note_on,36,0,7,,,,,,,,,6,,,73,127
18441,note_on,0,0,7,,,,,,,,,6,,,69,127
18441,note_on,0,0,7,,,,,,,,,6,,,64,127
18504,note_on,66,0,1,,,,,,,,,0,,,73,0
18527,note_on,23,0,1,,,,,,,,,0,,,69,127
18592,note_on,65,0,1,,,,,,,,,0,,,69,0
18615,note_on,23,0,1,,,,,,,,,0,,,64,127
18681,note_on,66,0,1,,,,,,,,,0,,,64,0
18705,note_on,24,0,1,,,,,,,,,0,,,73,127
18762,note_on,321,0,8,,,,,,,,,7,,,45,0
18762,note_on,321,0,7,,,,,,,,,6,,,64,0
18762,note_on,0,0,7,,,,,,,,,6,,,69,0
18762,note_on,324,0,5,,,,,,,,,4,,,45,0
18764,note_on,2,0,7,,,,,,,,,6,,,73,0
18767,note_on,62,0,1,,,,,,,,,0,,,73,0
18793,note_on,26,0,1,,,,,,,,,0,,,74,127
18793,note_on,31,0,5,,,,,,,,,4,,,44,90
18797,note_on,33,0,7,,,,,,,,,6,,,74,127
18797,note_on,0,0,7,,,,,,,,,6,,,71,127
18797,note_on,0,0,7,,,,,,,,,6,,,64,127
18797,note_on,35,0,8,,,,,,,,,7,,,44,127
18856,note_on,63,0,1,,,,,,,,,0,,,74,0
18882,note_on,26,0,1,,,,,,,,,0,,,71,127
18946,note_on,64,0,1,,,,,,,,,0,,,71,0
18970,note_on,24,0,1,,,,,,,,,0,,,64,127
19034,note_on,64,0,1,,,,,,,,,0,,,64,0
19057,note_on,23,0,1,,,,,,,,,0,,,74,127
19107,note_on,314,0,5,,,,,,,,,4,,,44,0
19111,note_on,0,0,7,,,,,,,,,6,,,71,0
19111,note_on,314,0,7,,,,,,,,,6,,,64,0
19111,note_on,314,0,8,,,,,,,,,7,,,44,0
19114,note_on,3,0,7,,,,,,,,,6,,,74,0
19123,note_on,66,0,1,,,,,,,,,0,,,74,0
19149,note_on,26,0,1,,,,,,,,,0,,,73,127
19149,note_on,42,0,5,,,,,,,,,4,,,45,90
19150,note_on,39,0,8,,,,,,,,,7,,,45,127
19150,note_on,0,0,7,,,,,,,,,6,,,69,127
19150,note_on,36,0,7,,,,,,,,,6,,,73,127
19150,note_on,0,0,7,,,,,,,,,6,,,64,127
19283,note_on,134,0,1,,,,,,,,,0,,,73,0
19325,note_on,42,0,1,,,,,,,,,0,,,69,127
19481,note_on,156,0,1,,,,,,,,,0,,,69,0
19481,note_on,331,0,7,,,,,,,,,6,,,64,0
19481,note_on,0,0,7,,,,,,,,,6,,,69,0
19484,note_on,3,0,7,,,,,,,,,6,,,73,0
19503,note_on,354,0,5,,,,,,,,,4,,,45,0
19503,note_on,353,0,8,,,,,,,,,7,,,45,0
19680,note_on,199,0,1,,,,,,,,,0,,,81,127
19816,note_on,136,0,1,,,,,,,,,0,,,81,0
19857,note_on,41,0,1,,,,,,,,,0,,,85,127
19857,program_change,3191,0,3,,,,,,,,40,2,,,,
19857,program_change,3192,0,2,,,,,,,,40,1,,,,
19858,note_on,1,0,2,,,,,,,,,1,,,57,65
19860,note_on,3193,0,4,,,,,,,,,3,,,57,65
19860,note_on,3,0,3,,,,,,,,,2,,,57,64
19860,program_change,0,0,4,,,,,,,,41,3,,,,
19919,note_on,62,0,1,,,,,,,,,0,,,85,0
19945,note_on,26,0,1,,,,,,,,,0,,,81,127
20009,note_on,64,0,1,,,,,,,,,0,,,81,0
20035,note_on,26,0,1,,,,,,,,,0,,,76,127
20097,note_on,62,0,1,,,,,,,,,0,,,76,0
20122,note_on,25,0,1,,,,,,,,,0,,,85,127
20169,note_on,311,0,2,,,,,,,,,1,,,57,0
20174,note_on,314,0,4,,,,,,,,,3,,,57,0
20174,note_on,314,0,3,,,,,,,,,2,,,57,0
20188,note_on,66,0,1,,,,,,,,,0,,,85,0
20209,note_on,21,0,1,,,,,,,,,0,,,86,127
20210,note_on,36,0,3,,,,,,,,,2,,,56,64
20210,note_on,41,0,2,,,,,,,,,1,,,56,65
20212,note_on,38,0,4,,,,,,,,,3,,,56,65
20276,note_on,67,0,1,,,,,,,,,0,,,86,0
20300,note_on,24,0,1,,,,,,,,,0,,,83,127
20365,note_on,65,0,1,,,,,,,,,0,,,83,0
20388,note_on,23,0,1,,,,,,,,,0,,,76,127
20452,note_on,64,0,1,,,,,,,,,0,,,76,0
20477,note_on,25,0,1,,,,,,,,,0,,,86,127
20524,note_on,314,0,2,,,,,,,,,1,,,56,0
20524,note_on,312,0,4,,,,,,,,,3,,,56,0
20528,note_on,318,0,3,,,,,,,,,2,,,56,0
20540,note_on,63,0,1,,,,,,,,,0,,,86,0
20567,note_on,43,0,4,,,,,,,,,3,,,57,65
20567,note_on,27,0,1,,,,,,,,,0,,,85,127
20567,note_on,39,0,3,,,,,,,,,2,,,57,64
20567,note_on,43,0,2,,,,,,,,,1,,,57,65
20629,note_on,62,0,1,,,,,,,,,0,,,85,0
20653,note_on,24,0,1,,,,,,,,,0,,,81,127
20719,note_on,66,0,1,,,,,,,,,0,,,81,0
20744,note_on,25,0,1,,,,,,,,,0,,,76,127
20806,note_on,62,0,1,,,,,,,,,0,,,76,0
20832,note_on,26,0,1,,,,,,,,,0,,,85,127
20880,note_on,313,0,2,,,,,,,,,1,,,57,0
20884,note_on,317,0,3,,,,,,,,,2,,,57,0
20884,note_on,317,0,4,,,,,,,,,3,,,57,0
20895,note_on,63,0,1,,,,,,,,,0,,,85,0
20922,note_on,27,0,1,,,,,,,,,0,,,86,127
20922,note_on,42,0,2,,,,,,,,,1,,,56,65
20922,note_on,38,0,4,,,,,,,,,3,,,56,65
20922,note_on,38,0,3,,,,,,,,,2,,,56,64
20986,note_on,64,0,1,,,,,,,,,0,,,86,0
21008,note_on,22,0,1,,,,,,,,,0,,,83,127
21073,note_on,65,0,1,,,,,,,,,0,,,83,0
21098,note_on,25,0,1,,,,,,,,,0,,,76,127
21163,note_on,65,0,1,,,,,,,,,0,,,76,0
21186,note_on,23,0,1,,,,,,,,,0,,,86,127
21233,note_on,311,0,2,,,,,,,,,1,,,56,0
21235,note_on,313,0,4,,,,,,,,,3,,,56,0
21239,note_on,317,0,3,,,,,,,,,2,,,56,0
21251,note_on,65,0,1,,,,,,,,,0,,,86,0
21274,note_on,23,0,1,,,,,,,,,0,,,85,127
21275,note_on,42,0,2,,,,,,,,,1,,,57,65
21275,note_on,36,0,3,,,,,,,,,2,,,57,64
21276,note_on,41,0,4,,,,,,,,,3,,,57,65
21339,note_on,65,0,1,,,,,,,,,0,,,85,0
21364,note_on,25,0,1,,,,,,,,,0,,,81,127
21429,note_on,65,0,1,,,,,,,,,0,,,81,0
21452,note_on,23,0,1,,,,,,,,,0,,,76,127
21517,note_on,65,0,1,,,,,,,,,0,,,76,0
21541,note_on,24,0,1,,,,,,,,,0,,,85,127
21590,note_on,315,0,2,,,,,,,,,1,,,57,0
21593,note_on,318,0,3,,,,,,,,,2,,,57,0
21593,note_on,317,0,4,,,,,,,,,3,,,57,0
21603,note_on,62,0,1,,,,,,,,,0,,,85,0
21630,note_on,40,0,2,,,,,,,,,1,,,56,65
21630,note_on,27,0,1,,,,,,,,,0,,,86,127
21632,note_on,39,0,4,,,,,,,,,3,,,56,65
21632,note_on,39,0,3,,,,,,,,,2,,,56,64
21694,note_on,64,0,1,,,,,,,,,0,,,86,0
21717,note_on,23,0,1,,,,,,,,,0,,,83,127
21782,note_on,65,0,1,,,,,,,,,0,,,83,0
21807,note_on,25,0,1,,,,,,,,,0,,,76,127
21871,note_on,64,0,1,,,,,,,,,0,,,76,0
21896,note_on,25,0,1,,,,,,,,,0,,,86,127
21943,note_on,313,0,2,,,,,,,,,1,,,56,0
21944,note_on,312,0,4,,,,,,,,,3,,,56,0
21945,note_on,313,0,3,,,,,,,,,2,,,56,0
21957,note_on,61,0,1,,,,,,,,,0,,,86,0
21985,note_on,42,0,2,,,,,,,,,1,,,57,65
21985,note_on,41,0,4,,,,,,,,,3,,,57,65
21985,note_on,40,0,3,,,,,,,,,2,,,57,64
21985,note_on,28,0,1,,,,,,,,,0,,,85,127
22119,note_on,134,0,1,,,,,,,,,0,,,85,0
22162,note_on,43,0,1,,,,,,,,,0,,,81,127
22317,note_on,332,0,2,,,,,,,,,1,,,57,0
22317,note_on,155,0,1,,,,,,,,,0,,,81,0
22340,note_on,355,0,3,,,,,,,,,2,,,57,0
22340,note_on,355,0,4,,,,,,,,,3,,,57,0
22693,note_on,376,0,2,,,,,,,,,1,,,57,65
22693,note_on,376,0,1,,,,,,,,,0,,,85,127
22695,note_on,355,0,3,,,,,,,,,2,,,57,64
22695,note_on,355,0,4,,,,,,,,,3,,,57,65
22781,note_on,88,0,1,,,,,,,,,0,,,85,0
22781,note_on,0,0,1,,,,,,,,,0,,,86,127
22869,note_on,88,0,1,,,,,,,,,0,,,86,0
22870,note_on,1,0,1,,,,,,,,,0,,,88,127
23006,note_on,313,0,2,,,,,,,,,1,,,57,0
23009,note_on,314,0,4,,,,,,,,,3,,,57,0
23009,note_on,314,0,3,,,,,,,,,2,,,57,0
23047,note_on,41,0,2,,,,,,,,,1,,,57,65
23047,note_on,38,0,3,,,,,,,,,2,,,57,64
23048,note_on,39,0,4,,,,,,,,,3,,,57,65
23222,note_on,352,0,1,,,,,,,,,0,,,88,0
23225,note_on,3,0,1,,,,,,,,,0,,,86,127
23289,note_on,64,0,1,,,,,,,,,0,,,86,0
23313,note_on,24,0,1,,,,,,,,,0,,,85,127
23360,note_on,313,0,2,,,,,,,,,1,,,57,0
23363,note_on,315,0,4,,,,,,,,,3,,,57,0
23363,note_on,316,0,3,,,,,,,,,2,,,57,0
23377,note_on,64,0,1,,,,,,,,,0,,,85,0
23403,note_on,43,0,2,,,,,,,,,1,,,64,65
23403,note_on,26,0,1,,,,,,,,,0,,,85,127
23405,note_on,42,0,4,,,,,,,,,3,,,64,65
23405,note_on,42,0,3,,,,,,,,,2,,,64,64
23715,note_on,312,0,2,,,,,,,,,1,,,64,0
23715,note_on,312,0,1,,,,,,,,,0,,,85,0
23718,note_on,313,0,4,,,,,,,,,3,,,64,0
23720,note_on,315,0,3,,,,,,,,,2,,,64,0
23758,note_on,43,0,1,,,,,,,,,0,,,83,127
23758,note_on,40,0,4,,,,,,,,,3,,,64,65
23758,note_on,43,0,2,,,,,,,,,1,,,64,65
23758,note_on,38,0,3,,,,,,,,,2,,,64,64
24069,note_on,311,0,1,,,,,,,,,0,,,83,0
24088,note_on,330,0,2,,,,,,,,,1,,,64,0
24112,note_on,354,0,4,,,,,,,,,3,,,64,0
24112,note_on,354,0,3,,,,,,,,,2,,,64,0
24112,note_on,43,0,1,,,,,,,,,0,,,73,127
24116,note_on,0,0,7,,,,,,,,,6,,,64,127
24116,note_on,0,0,7,,,,,,,,,6,,,69,127
24116,note_on,4613,0,8,,,,,,,,,7,,,45,127
24116,note_on,4632,0,7,,,,,,,,,6,,,73,127
24116,note_on,4613,0,5,,,,,,,,,4,,,45,90
24198,note_on,86,0,1,,,,,,,,,0,,,73,0
24200,note_on,2,0,1,,,,,,,,,0,,,74,127
24284,note_on,84,0,1,,,,,,,,,0,,,74,0
24290,note_on,6,0,1,,,,,,,,,0,,,76,127
24433,note_on,0,0,7,,,,,,,,,6,,,73,0
24433,note_on,317,0,5,,,,,,,,,4,,,45,0
24433,note_on,0,0,7,,,,,,,,,6,,,69,0
24433,note_on,317,0,7,,,,,,,,,6,,,64,0
24433,note_on,317,0,8,,,,,,,,,7,,,45,0
24467,note_on,0,0,7,,,,,,,,,6,,,64,127
24467,note_on,34,0,5,,,,,,,,,4,,,45,90
24467,note_on,34,0,7,,,,,,,,,6,,,69,127
24469,note_on,36,0,8,,,,,,,,,7,,,45,127
24469,note_on,2,0,7,,,,,,,,,6,,,73,127
24642,note_on,352,0,1,,,,,,,,,0,,,76,0
24642,note_on,0,0,1,,,,,,,,,0,,,74,127
24706,note_on,64,0,1,,,,,,,,,0,,,74,0
24731,note_on,25,0,1,,,,,,,,,0,,,73,127
24778,note_on,311,0,5,,,,,,,,,4,,,45,0
24778,note_on,309,0,7,,,,,,,,,6,,,64,0
24782,note_on,0,0,7,,,,,,,,,6,,,69,0
24782,note_on,313,0,8,,,,,,,,,7,,,45,0
24782,note_on,4,0,7,,,,,,,,,6,,,73,0
24796,note_on,65,0,1,,,,,,,,,0,,,73,0
24820,note_on,42,0,5,,,,,,,,,4,,,52,90
24820,note_on,24,0,1,,,,,,,,,0,,,73,127
24822,note_on,0,0,7,,,,,,,,,6,,,69,127
24822,note_on,0,0,7,,,,,,,,,6,,,64,127
24822,note_on,40,0,7,,,,,,,,,6,,,73,127
24822,note_on,40,0,8,,,,,,,,,7,,,52,127
25135,note_on,315,0,5,,,,,,,,,4,,,52,0
25135,note_on,315,0,1,,,,,,,,,0,,,73,0
25137,note_on,315,0,8,,,,,,,,,7,,,52,0
25137,note_on,315,0,7,,,,,,,,,6,,,64,0
25142,note_on,0,0,7,,,,,,,,,6,,,73,0
25142,note_on,5,0,7,,,,,,,,,6,,,69,0
25175,note_on,40,0,5,,,,,,,,,4,,,52,90
25175,note_on,40,0,1,,,,,,,,,0,,,71,127
25178,note_on,0,0,7,,,,,,,,,6,,,68,127
25178,note_on,0,0,7,,,,,,,,,6,,,64,127
25178,note_on,41,0,8,,,,,,,,,7,,,52,127
25178,note_on,36,0,7,,,,,,,,,6,,,71,127
25487,note_on,312,0,1,,,,,,,,,0,,,71,0
25507,note_on,329,0,7,,,,,,,,,6,,,64,0
25509,note_on,2,0,7,,,,,,,,,6,,,68,0
25511,note_on,2,0,7,,,,,,,,,6,,,71,0
25530,note_on,1442,0,2,,,,,,,,,1,,,57,65
25530,note_on,1418,0,4,,,,,,,,,3,,,57,66
25530,note_on,43,0,1,,,,,,,,,0,,,81,127
25530,note_on,1418,0,3,,,,,,,,,2,,,57,64
25532,note_on,357,0,5,,,,,,,,,4,,,52,0
25532,note_on,354,0,8,,,,,,,,,7,,,52,0
25593,note_on,63,0,1,,,,,,,,,0,,,81,0
25617,note_on,24,0,1,,,,,,,,,0,,,85,127
25681,note_on,64,0,1,,,,,,,,,0,,,85,0
25707,note_on,26,0,1,,,,,,,,,0,,,83,127
25771,note_on,64,0,1,,,,,,,,,0,,,83,0
25795,note_on,24,0,1,,,,,,,,,0,,,81,127
25844,note_on,314,0,2,,,,,,,,,1,,,57,0
25848,note_on,318,0,4,,,,,,,,,3,,,57,0
25848,note_on,318,0,3,,,,,,,,,2,,,57,0
25860,note_on,65,0,1,,,,,,,,,0,,,81,0
25885,note_on,25,0,1,,,,,,,,,0,,,88,127
25885,note_on,37,0,4,,,,,,,,,3,,,57,66
25885,note_on,41,0,2,,,,,,,,,1,,,57,65
25885,note_on,37,0,3,,,,,,,,,2,,,57,64
25948,note_on,63,0,1,,,,,,,,,0,,,88,0
25972,note_on,24,0,1,,,,,,,,,0,,,85,127
26035,note_on,63,0,1,,,,,,,,,0,,,85,0
26062,note_on,27,0,1,,,,,,,,,0,,,83,127
26126,note_on,64,0,1,,,,,,,,,0,,,83,0
26151,note_on,25,0,1,,,,,,,,,0,,,81,127
26196,note_on,311,0,2,,,,,,,,,1,,,57,0
26200,note_on,315,0,4,,,,,,,,,3,,,57,0
26202,note_on,317,0,3,,,,,,,,,2,,,57,0
26213,note_on,62,0,1,,,,,,,,,0,,,81,0
26240,note_on,27,0,1,,,,,,,,,0,,,76,127
26240,note_on,38,0,3,,,,,,,,,2,,,57,64
26240,note_on,44,0,2,,,,,,,,,1,,,57,65
26241,note_on,41,0,4,,,,,,,,,3,,,57,66
26301,note_on,61,0,1,,,,,,,,,0,,,76,0
26327,note_on,26,0,1,,,,,,,,,0,,,85,127
26392,note_on,65,0,1,,,,,,,,,0,,,85,0
26416,note_on,24,0,1,,,,,,,,,0,,,83,127
26481,note_on,65,0,1,,,,,,,,,0,,,83,0
26505,note_on,24,0,1,,,,,,,,,0,,,81,127
26551,note_on,311,0,2,,,,,,,,,1,,,57,0
26555,note_on,314,0,4,,,,,,,,,3,,,57,0
26556,note_on,316,0,3,,,,,,,,,2,,,57,0
26569,note_on,64,0,1,,,,,,,,,0,,,81,0
26595,note_on,40,0,4,,,,,,,,,3,,,57,66
26595,note_on,26,0,1,,,,,,,,,0,,,88,127
26595,note_on,39,0,3,,,,,,,,,2,,,57,64
26595,note_on,44,0,2,,,,,,,,,1,,,57,65
26658,note_on,63,0,1,,,,,,,,,0,,,88,0
26681,note_on,23,0,1,,,,,,,,,0,,,85,127
26746,note_on,65,0,1,,,,,,,,,0,,,85,0
26770,note_on,24,0,1,,,,,,,,,0,,,83,127
26836,note_on,66,0,1,,,,,,,,,0,,,83,0
26859,note_on,23,0,1,,,,,,,,,0,,,81,127
26908,note_on,313,0,4,,,,,,,,,3,,,57,0
26908,note_on,313,0,2,,,,,,,,,1,,,57,0
26912,note_on,317,0,3,,,,,,,,,2,,,57,0
26924,note_on,65,0,1,,,,,,,,,0,,,81,0
26948,note_on,40,0,2,,,,,,,,,1,,,57,65
26948,note_on,24,0,1,,,,,,,,,0,,,76,127
26950,note_on,38,0,3,,,,,,,,,2,,,57,64
26950,note_on,42,0,4,,,,,,,,,3,,,57,66
27011,note_on,63,0,1,,,,,,,,,0,,,76,0
27036,note_on,25,0,1,,,,,,,,,0,,,85,127
27099,note_on,63,0,1,,,,,,,,,0,,,85,0
27124,note_on,25,0,1,,,,,,,,,0,,,83,127
27187,note_on,63,0,1,,,,,,,,,0,,,83,0
27214,note_on,27,0,1,,,,,,,,,0,,,81,127
27260,note_on,312,0,2,,,,,,,,,1,,,57,0
27264,note_on,314,0,4,,,,,,,,,3,,,57,0
27264,note_on,314,0,3,,,,,,,,,2,,,57,0
27278,note_on,64,0,1,,,,,,,,,0,,,81,0
27304,note_on,44,0,2,,,,,,,,,1,,,57,65
27304,note_on,40,0,4,,,,,,,,,3,,,57,66
27304,note_on,26,0,1,,,,,,,,,0,,,88,127
27304,note_on,40,0,3,,,,,,,,,2,,,57,64
27438,note_on,134,0,1,,,,,,,,,0,,,88,0
27480,note_on,42,0,1,,,,,,,,,0,,,85,127
27616,note_on,136,0,1,,,,,,,,,0,,,85,0
27616,note_on,312,0,2,,,,,,,,,1,,,57,0
27618,note_on,314,0,4,,,,,,,,,3,,,57,0
27620,note_on,316,0,3,,,,,,,,,2,,,57,0
27657,note_on,37,0,3,,,,,,,,,2,,,64,64
27657,note_on,41,0,1,,,,,,,,,0,,,85,127
27657,note_on,41,0,2,,,,,,,,,1,,,64,65
27658,note_on,40,0,4,,,,,,,,,3,,,64,66
27972,note_on,315,0,2,,,,,,,,,1,,,64,0
27972,note_on,315,0,1,,,,,,,,,0,,,85,0
27974,note_on,317,0,3,,,,,,,,,2,,,64,0
27975,note_on,317,0,4,,,,,,,,,3,,,64,0
28012,note_on,40,0,2,,,,,,,,,1,,,64,65
28012,note_on,40,0,1,,,,,,,,,0,,,83,127
28014,note_on,40,0,3,,,,,,,,,2,,,64,64
28014,note_on,39,0,4,,,,,,,,,3,,,64,66
28323,note_on,311,0,1,,,,,,,,,0,,,83,0
28344,note_on,332,0,2,,,,,,,,,1,,,64,0
28366,note_on,43,0,1,,,,,,,,,0,,,69,127
28368,note_on,354,0,3,,,,,,,,,2,,,64,0
28368,note_on,0,0,7,,,,,,,,,6,,,61,127
28368,note_on,2836,0,8,,,,,,,,,7,,,45,127
28368,note_on,2857,0,7,,,,,,,,,6,,,73,127
28368,note_on,2836,0,5,,,,,,,,,4,,,45,90
28368,note_on,354,0,4,,,,,,,,,3,,,64,0
28429,note_on,63,0,1,,,,,,,,,0,,,69,0
28453,note_on,24,0,1,,,,,,,,,0,,,73,127
28518,note_on,65,0,1,,,,,,,,,0,,,73,0
28542,note_on,24,0,1,,,,,,,,,0,,,71,127
28607,note_on,65,0,1,,,,,,,,,0,,,71,0
28631,note_on,24,0,1,,,,,,,,,0,,,69,127
28687,note_on,319,0,5,,,,,,,,,4,,,45,0
28687,note_on,319,0,8,,,,,,,,,7,,,45,0
28695,note_on,64,0,1,,,,,,,,,0,,,69,0
28718,note_on,23,0,1,,,,,,,,,0,,,76,127
28718,note_on,350,0,7,,,,,,,,,6,,,73,0
28719,note_on,32,0,5,,,,,,,,,4,,,45,90
28720,note_on,2,0,7,,,,,,,,,6,,,64,127
28720,note_on,33,0,8,,,,,,,,,7,,,45,127
28784,note_on,66,0,1,,,,,,,,,0,,,76,0
28809,note_on,25,0,1,,,,,,,,,0,,,73,127
28872,note_on,63,0,1,,,,,,,,,0,,,73,0
28899,note_on,27,0,1,,,,,,,,,0,,,71,127
28962,note_on,63,0,1,,,,,,,,,0,,,71,0
28987,note_on,25,0,1,,,,,,,,,0,,,69,127
29034,note_on,315,0,5,,,,,,,,,4,,,45,0
29037,note_on,317,0,8,,,,,,,,,7,,,45,0
29038,note_on,318,0,7,,,,,,,,,6,,,64,0
29050,note_on,63,0,1,,,,,,,,,0,,,69,0
29077,note_on,27,0,1,,,,,,,,,0,,,64,127
29077,note_on,0,0,7,,,,,,,,,6,,,73,127
29077,note_on,40,0,8,,,,,,,,,7,,,45,127
29077,note_on,39,0,7,,,,,,,,,6,,,61,0
29077,note_on,0,0,7,,,,,,,,,6,,,61,127
29077,note_on,43,0,5,,,,,,,,,4,,,45,90
29140,note_on,63,0,1,,,,,,,,,0,,,64,0
29164,note_on,24,0,1,,,,,,,,,0,,,73,127
29228,note_on,64,0,1,,,,,,,,,0,,,73,0
29253,note_on,25,0,1,,,,,,,,,0,,,71,127
29317,note_on,64,0,1,,,,,,,,,0,,,71,0
29341,note_on,24,0,1,,,,,,,,,0,,,69,127
29391,note_on,314,0,8,,,,,,,,,7,,,45,0
29404,note_on,63,0,1,,,,,,,,,0,,,69,0
29427,note_on,350,0,7,,,,,,,,,6,,,73,0
29429,note_on,25,0,1,,,,,,,,,0,,,76,127
29430,note_on,0,0,5,,,,,,,,,4,,,45,90
29430,note_on,353,0,5,,,,,,,,,4,,,45,0
29432,note_on,5,0,7,,,,,,,,,6,,,64,127
29432,note_on,41,0,8,,,,,,,,,7,,,45,127
29495,note_on,66,0,1,,,,,,,,,0,,,76,0
29518,note_on,23,0,1,,,,,,,,,0,,,73,127
29584,note_on,66,0,1,,,,,,,,,0,,,73,0
29607,note_on,23,0,1,,,,,,,,,0,,,71,127
29671,note_on,64,0,1,,,,,,,,,0,,,71,0
29696,note_on,25,0,1,,,,,,,,,0,,,69,127
29743,note_on,311,0,7,,,,,,,,,6,,,64,0
29745,note_on,313,0,8,,,,,,,,,7,,,45,0
29759,note_on,63,0,1,,,,,,,,,0,,,69,0
29785,note_on,355,0,5,,,,,,,,,4,,,45,0
29785,note_on,26,0,1,,,,,,,,,0,,,64,127
29785,note_on,42,0,7,,,,,,,,,6,,,61,0
29787,note_on,2,0,7,,,,,,,,,6,,,61,127
29789,note_on,2,0,7,,,,,,,,,6,,,69,127
29789,note_on,44,0,8,,,,,,,,,7,,,45,127
29789,note_on,4,0,5,,,,,,,,,4,,,45,90
29848,note_on,63,0,1,,,,,,,,,0,,,64,0
29872,note_on,24,0,1,,,,,,,,,0,,,73,127
29937,note_on,65,0,1,,,,,,,,,0,,,73,0
29961,note_on,24,0,1,,,,,,,,,0,,,71,127
30026,note_on,65,0,1,,,,,,,,,0,,,71,0
30051,note_on,25,0,1,,,,,,,,,0,,,69,127
30104,note_on,315,0,8,,,,,,,,,7,,,45,0
30107,note_on,318,0,7,,,,,,,,,6,,,69,0
30107,note_on,318,0,5,,,,,,,,,4,,,45,0
30112,note_on,61,0,1,,,,,,,,,0,,,69,0
30140,note_on,36,0,8,,,,,,,,,7,,,45,127
30140,note_on,0,0,7,,,,,,,,,6,,,64,127
30140,note_on,33,0,7,,,,,,,,,6,,,73,127
30140,note_on,33,0,5,,,,,,,,,4,,,45,90
30140,note_on,28,0,1,,,,,,,,,0,,,76,127
30275,note_on,135,0,1,,,,,,,,,0,,,76,0
30315,note_on,40,0,1,,,,,,,,,0,,,73,127
30454,note_on,314,0,5,,,,,,,,,4,,,45,0
30454,note_on,139,0,1,,,,,,,,,0,,,73,0
30456,note_on,0,0,7,,,,,,,,,6,,,73,0
30456,note_on,316,0,7,,,,,,,,,6,,,64,0
30456,note_on,316,0,8,,,,,,,,,7,,,45,0
30494,note_on,38,0,7,,,,,,,,,6,,,61,0
30494,note_on,40,0,5,,,,,,,,,4,,,52,90
30494,note_on,0,0,7,,,,,,,,,6,,,69,127
30494,note_on,40,0,1,,,,,,,,,0,,,73,127
30497,note_on,3,0,7,,,,,,,,,6,,,73,127
30497,note_on,41,0,8,,,,,,,,,7,,,52,127
30806,note_on,312,0,1,,,,,,,,,0,,,73,0
30807,note_on,313,0,5,,,,,,,,,4,,,52,0
30807,note_on,310,0,7,,,,,,,,,6,,,69,0
30811,note_on,314,0,8,,,,,,,,,7,,,52,0
30811,note_on,4,0,7,,,,,,,,,6,,,73,0
30850,note_on,39,0,8,,,,,,,,,7,,,52,127
30850,note_on,43,0,5,,,,,,,,,4,,,52,90
30850,note_on,44,0,1,,,,,,,,,0,,,71,127
30850,note_on,0,0,7,,,,,,,,,6,,,68,127
30850,note_on,39,0,7,,,,,,,,,6,,,71,127
31160,note_on,310,0,1,,,,,,,,,0,,,71,0
31180,note_on,330,0,7,,,,,,,,,6,,,68,0
31182,note_on,2,0,7,,,,,,,,,6,,,71,0
31204,note_on,44,0,1,,,,,,,,,0,,,76,127
31205,note_on,2837,0,4,,,,,,,,,3,,,64,66
31205,note_on,2837,0,3,,,,,,,,,2,,,64,64
31205,note_on,355,0,5,,,,,,,,,4,,,52,0
31205,note_on,2861,0,2,,,,,,,,,1,,,64,65
31205,note_on,355,0,8,,,,,,,,,7,,,52,0
31268,note_on,64,0,1,,,,,,,,,0,,,76,0
31291,note_on,23,0,1,,,,,,,,,0,,,80,127
31355,note_on,64,0,1,,,,,,,,,0,,,80,0
31380,note_on,25,0,1,,,,,,,,,0,,,78,127
31442,note_on,62,0,1,,,,,,,,,0,,,78,0
31468,note_on,26,0,1,,,,,,,,,0,,,76,127
31516,note_on,311,0,2,,,,,,,,,1,,,64,0
31517,note_on,312,0,4,,,,,,,,,3,,,64,0
31520,note_on,315,0,3,,,,,,,,,2,,,64,0
31533,note_on,65,0,1,,,,,,,,,0,,,76,0
31556,note_on,23,0,1,,,,,,,,,0,,,83,127
31559,note_on,42,0,4,,,,,,,,,3,,,64,65
31559,note_on,43,0,2,,,,,,,,,1,,,64,65
31559,note_on,39,0,3,,,,,,,,,2,,,64,64
31620,note_on,64,0,1,,,,,,,,,0,,,83,0
31645,note_on,25,0,1,,,,,,,,,0,,,80,127
31708,note_on,63,0,1,,,,,,,,,0,,,80,0
31735,note_on,27,0,1,,,,,,,,,0,,,78,127
31799,note_on,64,0,1,,,,,,,,,0,,,78,0
31822,note_on,23,0,1,,,,,,,,,0,,,76,127
31869,note_on,310,0,2,,,,,,,,,1,,,64,0
31872,note_on,313,0,3,,,,,,,,,2,,,64,0
31873,note_on,314,0,4,,,,,,,,,3,,,64,0
31888,note_on,66,0,1,,,,,,,,,0,,,76,0
31911,note_on,23,0,1,,,,,,,,,0,,,71,127
31911,note_on,39,0,3,,,,,,,,,2,,,64,64
31911,note_on,42,0,2,,,,,,,,,1,,,64,65
31912,note_on,39,0,4,,,,,,,,,3,,,64,65
31977,note_on,66,0,1,,,,,,,,,0,,,71,0
32000,note_on,23,0,1,,,,,,,,,0,,,80,127
32063,note_on,63,0,1,,,,,,,,,0,,,80,0
32088,note_on,25,0,1,,,,,,,,,0,,,78,127
32152,note_on,64,0,1,,,,,,,,,0,,,78,0
32176,note_on,24,0,1,,,,,,,,,0,,,76,127
32226,note_on,315,0,2,,,,,,,,,1,,,64,0
32229,note_on,317,0,4,,,,,,,,,3,,,64,0
32229,note_on,318,0,3,,,,,,,,,2,,,64,0
32241,note_on,65,0,1,,,,,,,,,0,,,76,0
32267,note_on,26,0,1,,,,,,,,,0,,,83,127
32267,note_on,41,0,2,,,,,,,,,1,,,64,65
32267,note_on,38,0,4,,,,,,,,,3,,,64,65
32267,note_on,38,0,3,,,,,,,,,2,,,64,64
32330,note_on,63,0,1,,,,,,,,,0,,,83,0
32355,note_on,25,0,1,,,,,,,,,0,,,80,127
32418,note_on,63,0,1,,,,,,,,,0,,,80,0
32444,note_on,26,0,1,,,,,,,,,0,,,78,127
32507,note_on,63,0,1,,,,,,,,,0,,,78,0
32532,note_on,25,0,1,,,,,,,,,0,,,76,127
32585,note_on,318,0,4,,,,,,,,,3,,,64,0
32585,note_on,318,0,3,,,,,,,,,2,,,64,0
32585,note_on,318,0,2,,,,,,,,,1,,,64,0
32595,note_on,63,0,1,,,,,,,,,0,,,76,0
32620,note_on,25,0,1,,,,,,,,,0,,,71,127
32623,note_on,38,0,3,,,,,,,,,2,,,64,64
32623,note_on,38,0,2,,,,,,,,,1,,,64,65
32623,note_on,38,0,4,,,,,,,,,3,,,64,65
32686,note_on,66,0,1,,,,,,,,,0,,,71,0
32709,note_on,23,0,1,,,,,,,,,0,,,80,127
32772,note_on,63,0,1,,,,,,,,,0,,,80,0
32798,note_on,26,0,1,,,,,,,,,0,,,78,127
32862,note_on,64,0,1,,,,,,,,,0,,,78,0
32886,note_on,24,0,1,,,,,,,,,0,,,76,127
32938,note_on,315,0,2,,,,,,,,,1,,,64,0
32938,note_on,315,0,4,,,,,,,,,3,,,64,0
32940,note_on,317,0,3,,,,,,,,,2,,,64,0
32949,note_on,63,0,1,,,,,,,,,0,,,76,0
32975,note_on,37,0,2,,,,,,,,,1,,,64,65
32975,note_on,26,0,1,,,,,,,,,0,,,83,127
32977,note_on,39,0,4,,,,,,,,,3,,,64,65
32977,note_on,37,0,3,,,,,,,,,2,,,64,64
33039,note_on,64,0,1,,,,,,,,,0,,,83,0
33063,note_on,24,0,1,,,,,,,,,0,,,80,127
33129,note_on,66,0,1,,,,,,,,,0,,,80,0
33153,note_on,24,0,1,,,,,,,,,0,,,78,127
33216,note_on,63,0,1,,,,,,,,,0,,,78,0
33241,note_on,25,0,1,,,,,,,,,0,,,76,127
33292,note_on,317,0,2,,,,,,,,,1,,,64,0
33292,note_on,315,0,4,,,,,,,,,3,,,64,0
33293,note_on,316,0,3,,,,,,,,,2,,,64,0
33303,note_on,62,0,1,,,,,,,,,0,,,76,0
33331,note_on,28,0,1,,,,,,,,,0,,,88,127
33331,note_on,38,0,3,,,,,,,,,2,,,76,64
33331,note_on,39,0,2,,,,,,,,,1,,,76,65
33331,note_on,39,0,4,,,,,,,,,3,,,76,65
33416,note_on,85,0,1,,,,,,,,,0,,,88,0
33417,note_on,1,0,1,,,,,,,,,0,,,87,127
33482,note_on,65,0,1,,,,,,,,,0,,,87,0
33507,note_on,25,0,1,,,,,,,,,0,,,85,127
33570,note_on,63,0,1,,,,,,,,,0,,,85,0
33596,note_on,26,0,1,,,,,,,,,0,,,83,127
33646,note_on,315,0,2,,,,,,,,,1,,,76,0
33647,note_on,316,0,3,,,,,,,,,2,,,76,0
33647,note_on,316,0,4,,,,,,,,,3,,,76,0
33658,note_on,62,0,1,,,,,,,,,0,,,83,0
33682,note_on,24,0,1,,,,,,,,,0,,,88,127
33684,note_on,37,0,4,,,,,,,,,3,,,75,65
33684,note_on,37,0,3,,,,,,,,,2,,,75,64
33684,note_on,38,0,2,,,,,,,,,1,,,75,65
33749,note_on,67,0,1,,,,,,,,,0,,,88,0
33772,note_on,23,0,1,,,,,,,,,0,,,87,127
33838,note_on,66,0,1,,,,,,,,,0,,,87,0
33860,note_on,22,0,1,,,,,,,,,0,,,85,127
33926,note_on,66,0,1,,,,,,,,,0,,,85,0
33950,note_on,24,0,1,,,,,,,,,0,,,83,127
34000,note_on,316,0,2,,,,,,,,,1,,,75,0
34000,note_on,316,0,3,,,,,,,,,2,,,75,0
34001,note_on,317,0,4,,,,,,,,,3,,,75,0
34015,note_on,65,0,1,,,,,,,,,0,,,83,0
34040,note_on,40,0,3,,,,,,,,,2,,,73,64
34040,note_on,25,0,1,,,,,,,,,0,,,88,127
34040,note_on,40,0,2,,,,,,,,,1,,,73,65
34040,note_on,39,0,4,,,,,,,,,3,,,73,65
34123,note_on,83,0,1,,,,,,,,,0,,,88,0
34126,note_on,3,0,1,,,,,,,,,0,,,87,127
34215,note_on,89,0,1,,,,,,,,,0,,,87,0
34216,note_on,1,0,1,,,,,,,,,0,,,85,127
34303,note_on,87,0,1,,,,,,,,,0,,,85,0
34305,note_on,2,0,1,,,,,,,,,0,,,83,127
34356,note_on,316,0,4,,,,,,,,,3,,,73,0
34356,note_on,316,0,2,,,,,,,,,1,,,73,0
34356,note_on,316,0,3,,,,,,,,,2,,,73,0
34391,note_on,86,0,1,,,,,,,,,0,,,83,0
34394,note_on,38,0,2,,,,,,,,,1,,,71,65
34394,note_on,3,0,1,,,,,,,,,0,,,88,127
34394,note_on,38,0,3,,,,,,,,,2,,,71,64
34396,note_on,40,0,4,,,,,,,,,3,,,71,65
34477,note_on,83,0,1,,,,,,,,,0,,,88,0
34480,note_on,3,0,1,,,,,,,,,0,,,87,127
34531,note_on,137,0,2,,,,,,,,,1,,,71,0
34532,note_on,136,0,4,,,,,,,,,3,,,71,0
34533,note_on,139,0,3,,,,,,,,,2,,,71,0
34567,note_on,87,0,1,,,,,,,,,0,,,87,0
34571,note_on,38,0,3,,,,,,,,,2,,,69,64
34571,note_on,40,0,2,,,,,,,,,1,,,69,65
34571,note_on,4,0,1,,,,,,,,,0,,,85,127
34572,note_on,40,0,4,,,,,,,,,3,,,69,65
34656,note_on,85,0,1,,,,,,,,,0,,,85,0
34658,note_on,2,0,1,,,,,,,,,0,,,83,127
34711,note_on,139,0,4,,,,,,,,,3,,,69,0
34711,note_on,140,0,3,,,,,,,,,2,,,69,0
34712,note_on,141,0,2,,,,,,,,,1,,,69,0
34745,note_on,87,0,1,,,,,,,,,0,,,83,0
34748,note_on,3,0,1,,,,,,,,,0,,,88,127
34749,note_on,37,0,2,,,,,,,,,1,,,68,65
34749,note_on,38,0,3,,,,,,,,,2,,,68,64
34749,note_on,38,0,4,,,,,,,,,3,,,68,65
34884,note_on,136,0,1,,,,,,,,,0,,,88,0
34887,note_on,138,0,2,,,,,,,,,1,,,68,0
34890,note_on,141,0,4,,,,,,,,,3,,,68,0
34890,note_on,141,0,3,,,,,,,,,2,,,68,0
34923,note_on,39,0,1,,,,,,,,,0,,,76,127
34924,note_on,37,0,2,,,,,,,,,1,,,64,65
34925,note_on,35,0,3,,,,,,,,,2,,,64,64
34926,note_on,36,0,4,,,,,,,,,3,,,64,65
35062,note_on,139,0,1,,,,,,,,,0,,,76,0
35066,note_on,141,0,3,,,,,,,,,2,,,64,0
35066,note_on,140,0,4,,,,,,,,,3,,,64,0
35066,note_on,142,0,2,,,,,,,,,1,,,64,0
35102,note_on,36,0,2,,,,,,,,,1,,,71,65
35102,note_on,40,0,1,,,,,,,,,0,,,78,127
35105,note_on,39,0,3,,,,,,,,,2,,,71,64
35106,note_on,40,0,4,,,,,,,,,3,,,71,65
35244,note_on,142,0,2,,,,,,,,,1,,,71,0
35244,note_on,139,0,3,,,,,,,,,2,,,71,0
35244,note_on,138,0,4,,,,,,,,,3,,,71,0
35279,note_on,35,0,2,,,,,,,,,1,,,59,65
35279,note_on,35,0,3,,,,,,,,,2,,,59,64
35282,note_on,38,0,4,,,,,,,,,3,,,59,65
35417,note_on,315,0,1,,,,,,,,,0,,,78,0
35417,note_on,138,0,2,,,,,,,,,1,,,59,0
35421,note_on,142,0,3,,,,,,,,,2,,,59,0
35433,note_on,151,0,4,,,,,,,,,3,,,59,0
35458,note_on,41,0,2,,,,,,,,,1,,,64,65
35458,note_on,37,0,3,,,,,,,,,2,,,64,64
35458,note_on,41,0,1,,,,,,,,,0,,,76,127
35789,note_on,331,0,1,,,,,,,,,0,,,76,0
35809,note_on,351,0,2,,,,,,,,,1,,,64,0
35810,note_on,352,0,3,,,,,,,,,2,,,64,0
36166,note_on,377,0,1,,,,,,,,,0,,,64,127
36166,note_on,4961,0,5,,,,,,,,,4,,,52,90
36169,note_on,4987,0,7,,,,,,,,,6,,,76,127
36169,note_on,0,0,7,,,,,,,,,6,,,68,127
36169,note_on,4964,0,8,,,,,,,,,7,,,52,127
36231,note_on,65,0,1,,,,,,,,,0,,,64,0
36255,note_on,24,0,1,,,,,,,,,0,,,68,127
36317,note_on,62,0,1,,,,,,,,,0,,,68,0
36342,note_on,25,0,1,,,,,,,,,0,,,66,127
36408,note_on,66,0,1,,,,,,,,,0,,,66,0
36431,note_on,23,0,1,,,,,,,,,0,,,64,127
36482,note_on,316,0,5,,,,,,,,,4,,,52,0
36485,note_on,316,0,8,,,,,,,,,7,,,52,0
36494,note_on,63,0,1,,,,,,,,,0,,,64,0
36517,note_on,348,0,7,,,,,,,,,6,,,76,0
36521,note_on,27,0,1,,,,,,,,,0,,,71,127
36522,note_on,5,0,7,,,,,,,,,6,,,71,127
36522,note_on,40,0,5,,,,,,,,,4,,,52,90
36522,note_on,37,0,8,,,,,,,,,7,,,52,127
36584,note_on,63,0,1,,,,,,,,,0,,,71,0
36609,note_on,25,0,1,,,,,,,,,0,,,68,127
36675,note_on,66,0,1,,,,,,,,,0,,,68,0
36698,note_on,23,0,1,,,,,,,,,0,,,66,127
36762,note_on,64,0,1,,,,,,,,,0,,,66,0
36787,note_on,25,0,1,,,,,,,,,0,,,64,127
36839,note_on,317,0,7,,,,,,,,,6,,,71,0
36839,note_on,317,0,5,,,,,,,,,4,,,52,0
36839,note_on,317,0,8,,,,,,,,,7,,,52,0
36850,note_on,63,0,1,,,,,,,,,0,,,64,0
36875,note_on,36,0,5,,,,,,,,,4,,,52,90
36875,note_on,25,0,1,,,,,,,,,0,,,59,127
36878,note_on,0,0,7,,,,,,,,,6,,,76,127
36878,note_on,0,0,7,,,,,,,,,6,,,68,127
36878,note_on,39,0,7,,,,,,,,,6,,,68,0
36878,note_on,39,0,8,,,,,,,,,7,,,52,127
36938,note_on,63,0,1,,,,,,,,,0,,,59,0
36961,note_on,23,0,1,,,,,,,,,0,,,68,127
37026,note_on,65,0,1,,,,,,,,,0,,,68,0
37052,note_on,26,0,1,,,,,,,,,0,,,66,127
37115,note_on,63,0,1,,,,,,,,,0,,,66,0
37141,note_on,26,0,1,,,,,,,,,0,,,64,127
37198,note_on,323,0,5,,,,,,,,,4,,,52,0
37198,note_on,320,0,8,,,,,,,,,7,,,52,0
37204,note_on,63,0,1,,,,,,,,,0,,,64,0
37228,note_on,30,0,5,,,,,,,,,4,,,52,90
37228,note_on,350,0,7,,,,,,,,,6,,,76,0
37228,note_on,24,0,1,,,,,,,,,0,,,71,127
37229,note_on,31,0,8,,,,,,,,,7,,,52,127
37229,note_on,1,0,7,,,,,,,,,6,,,71,127
37293,note_on,65,0,1,,,,,,,,,0,,,71,0
37318,note_on,25,0,1,,,,,,,,,0,,,68,127
37380,note_on,62,0,1,,,,,,,,,0,,,68,0
37406,note_on,26,0,1,,,,,,,,,0,,,66,127
37471,note_on,65,0,1,,,,,,,,,0,,,66,0
37495,note_on,24,0,1,,,,,,,,,0,,,64,127
37545,note_on,316,0,7,,,,,,,,,6,,,71,0
37546,note_on,318,0,5,,,,,,,,,4,,,52,0
37546,note_on,317,0,8,,,,,,,,,7,,,52,0
37559,note_on,64,0,1,,,,,,,,,0,,,64,0
37583,note_on,24,0,1,,,,,,,,,0,,,59,127
37584,note_on,0,0,7,,,,,,,,,6,,,68,127
37584,note_on,38,0,5,,,,,,,,,4,,,52,90
37584,note_on,0,0,7,,,,,,,,,6,,,76,127
37584,note_on,39,0,7,,,,,,,,,6,,,68,0
37584,note_on,38,0,8,,,,,,,,,7,,,52,127
37647,note_on,64,0,1,,,,,,,,,0,,,59,0
37672,note_on,25,0,1,,,,,,,,,0,,,68,127
37737,note_on,65,0,1,,,,,,,,,0,,,68,0
37762,note_on,25,0,1,,,,,,,,,0,,,66,127
37824,note_on,62,0,1,,,,,,,,,0,,,66,0
37850,note_on,26,0,1,,,,,,,,,0,,,64,127
37900,note_on,316,0,8,,,,,,,,,7,,,52,0
37913,note_on,63,0,1,,,,,,,,,0,,,64,0
37936,note_on,352,0,7,,,,,,,,,6,,,76,0
37940,note_on,356,0,5,,,,,,,,,4,,,52,0
37940,note_on,40,0,8,,,,,,,,,7,,,52,127
37940,note_on,4,0,7,,,,,,,,,6,,,71,127
37940,note_on,27,0,1,,,,,,,,,0,,,71,127
38002,note_on,62,0,1,,,,,,,,,0,,,71,0
38028,note_on,26,0,1,,,,,,,,,0,,,68,127
38091,note_on,63,0,1,,,,,,,,,0,,,68,0
38116,note_on,25,0,1,,,,,,,,,0,,,66,127
38179,note_on,63,0,1,,,,,,,,,0,,,66,0
38204,note_on,25,0,1,,,,,,,,,0,,,64,127
38254,note_on,314,0,8,,,,,,,,,7,,,52,0
38254,note_on,314,0,7,,,,,,,,,6,,,71,0
38267,note_on,63,0,1,,,,,,,,,0,,,64,0
38293,note_on,26,0,1,,,,,,,,,0,,,76,127
38294,note_on,40,0,7,,,,,,,,,6,,,68,0
38294,note_on,0,0,7,,,,,,,,,6,,,68,127
38294,note_on,40,0,8,,,,,,,,,7,,,64,127
38294,note_on,354,0,5,,,,,,,,,4,,,64,90
38378,note_on,85,0,1,,,,,,,,,0,,,76,0
38380,note_on,2,0,1,,,,,,,,,0,,,75,127
38468,note_on,88,0,1,,,,,,,,,0,,,75,0
38469,note_on,1,0,1,,,,,,,,,0,,,73,127
38557,note_on,88,0,1,,,,,,,,,0,,,73,0
38559,note_on,2,0,1,,,,,,,,,0,,,71,127
38616,note_on,322,0,7,,,,,,,,,6,,,68,0
38616,note_on,322,0,8,,,,,,,,,7,,,64,0
38616,note_on,322,0,5,,,,,,,,,4,,,64,0
38644,note_on,85,0,1,,,,,,,,,0,,,71,0
38650,note_on,6,0,1,,,,,,,,,0,,,76,127
38650,note_on,34,0,5,,,,,,,,,4,,,63,90
38650,note_on,34,0,7,,,,,,,,,6,,,66,127
38650,note_on,34,0,8,,,,,,,,,7,,,63,127
38733,note_on,83,0,1,,,,,,,,,0,,,76,0
38737,note_on,4,0,1,,,,,,,,,0,,,75,127
38823,note_on,86,0,1,,,,,,,,,0,,,75,0
38825,note_on,2,0,1,,,,,,,,,0,,,73,127
38912,note_on,87,0,1,,,,,,,,,0,,,73,0
38915,note_on,3,0,1,,,,,,,,,0,,,71,127
38961,note_on,311,0,7,,,,,,,,,6,,,66,0
38964,note_on,314,0,5,,,,,,,,,4,,,63,0
38964,note_on,314,0,8,,,,,,,,,7,,,63,0
39001,note_on,86,0,1,,,,,,,,,0,,,71,0
39002,note_on,38,0,5,,,,,,,,,4,,,61,90
39002,note_on,41,0,7,,,,,,,,,6,,,64,127
39002,note_on,38,0,8,,,,,,,,,7,,,61,127
39002,note_on,1,0,1,,,,,,,,,0,,,76,127
39088,note_on,86,0,1,,,,,,,,,0,,,76,0
39091,note_on,3,0,1,,,,,,,,,0,,,75,127
39174,note_on,83,0,1,,,,,,,,,0,,,75,0
39179,note_on,5,0,1,,,,,,,,,0,,,73,127
39264,note_on,85,0,1,,,,,,,,,0,,,73,0
39267,note_on,3,0,1,,,,,,,,,0,,,71,127
39320,note_on,318,0,5,,,,,,,,,4,,,61,0
39321,note_on,319,0,8,,,,,,,,,7,,,61,0
39321,note_on,319,0,7,,,,,,,,,6,,,64,0
39354,note_on,87,0,1,,,,,,,,,0,,,71,0
39357,note_on,3,0,1,,,,,,,,,0,,,76,127
39358,note_on,37,0,8,,,,,,,,,7,,,59,127
39358,note_on,38,0,5,,,,,,,,,4,,,59,90
39358,note_on,37,0,7,,,,,,,,,6,,,63,127
39442,note_on,85,0,1,,,,,,,,,0,,,76,0
39445,note_on,3,0,1,,,,,,,,,0,,,75,127
39497,note_on,139,0,8,,,,,,,,,7,,,59,0
39497,note_on,139,0,5,,,,,,,,,4,,,59,0
39532,note_on,0,0,1,,,,,,,,,0,,,73,127
39532,note_on,87,0,1,,,,,,,,,0,,,75,0
39532,note_on,35,0,8,,,,,,,,,7,,,57,127
39578,note_on,81,0,5,,,,,,,,,4,,,57,90
39621,note_on,89,0,1,,,,,,,,,0,,,73,0
39621,note_on,0,0,1,,,,,,,,,0,,,71,127
39673,note_on,315,0,7,,,,,,,,,6,,,63,0
39676,note_on,144,0,8,,,,,,,,,7,,,57,0
39708,note_on,87,0,1,,,,,,,,,0,,,71,0
39709,note_on,131,0,5,,,,,,,,,4,,,57,0
39709,note_on,1,0,1,,,,,,,,,0,,,76,127
39712,note_on,3,0,5,,,,,,,,,4,,,56,90
39712,note_on,36,0,8,,,,,,,,,7,,,56,127
39712,program_change,4279,0,4,,,,,,,,49,3,,,,
39712,program_change,3902,0,3,,,,,,,,48,2,,,,
39712,note_on,39,0,7,,,,,,,,,6,,,64,127
39712,program_change,0,0,5,,,,,,,,49,4,,,,
39712,program_change,3903,0,2,,,,,,,,48,1,,,,
39847,note_on,138,0,1,,,,,,,,,0,,,76,0
39856,note_on,144,0,5,,,,,,,,,4,,,56,0
39856,note_on,144,0,8,,,,,,,,,7,,,56,0
39890,note_on,43,0,1,,,,,,,,,0,,,64,127
39890,note_on,34,0,5,,,,,,,,,4,,,52,90
39890,note_on,34,0,8,,,,,,,,,7,,,52,127
40022,note_on,132,0,1,,,,,,,,,0,,,64,0
40028,note_on,138,0,5,,,,,,,,,4,,,52,0
40029,note_on,139,0,8,,,,,,,,,7,,,52,0
40031,note_on,319,0,7,,,,,,,,,6,,,64,0
40065,note_on,43,0,1,,,,,,,,,0,,,66,127
40066,note_on,38,0,5,,,,,,,,,4,,,59,90
40066,note_on,35,0,7,,,,,,,,,6,,,66,127
40066,note_on,0,0,7,,,,,,,,,6,,,63,127
40067,note_on,38,0,8,,,,,,,,,7,,,59,127
40204,note_on,138,0,5,,,,,,,,,4,,,59,0
40205,note_on,138,0,8,,,,,,,,,7,,,59,0
40243,note_on,38,0,8,,,,,,,,,7,,,47,127
40243,note_on,39,0,5,,,,,,,,,4,,,47,90
40380,note_on,137,0,5,,,,,,,,,4,,,47,0
40380,note_on,315,0,1,,,,,,,,,0,,,66,0
40383,note_on,317,0,7,,,,,,,,,6,,,63,0
40386,note_on,143,0,8,,,,,,,,,7,,,47,0
40386,note_on,3,0,7,,,,,,,,,6,,,66,0
40420,note_on,40,0,1,,,,,,,,,0,,,64,127
40420,note_on,708,0,2,,,,,,,,,1,,,64,64
40424,note_on,712,0,3,,,,,,,,,2,,,64,63
40425,note_on,0,0,7,,,,,,,,,6,,,64,127
40425,note_on,39,0,7,,,,,,,,,6,,,68,127
40425,note_on,713,0,4,,,,,,,,,3,,,64,64
40425,note_on,45,0,5,,,,,,,,,4,,,52,90
40425,note_on,39,0,8,,,,,,,,,7,,,52,127
40425,note_on,39377,0,6,,,,,,,,,5,,,52,90
40737,note_on,317,0,2,,,,,,,,,1,,,64,0
40738,note_on,313,0,4,,,,,,,,,3,,,64,0
40739,note_on,314,0,7,,,,,,,,,6,,,64,0
40739,note_on,315,0,3,,,,,,,,,2,,,64,0
40740,note_on,315,0,8,,,,,,,,,7,,,52,0
40740,note_on,1,0,7,,,,,,,,,6,,,68,0
40740,note_on,315,0,6,,,,,,,,,5,,,52,0
40741,note_on,316,0,5,,,,,,,,,4,,,52,0
40751,note_on,331,0,1,,,,,,,,,0,,,64,0
40774,note_on,35,0,3,,,,,,,,,2,,,71,63
40774,note_on,37,0,2,,,,,,,,,1,,,71,64
40775,note_on,34,0,5,,,,,,,,,4,,,59,90
40775,note_on,37,0,4,,,,,,,,,3,,,71,64
40776,note_on,36,0,6,,,,,,,,,5,,,59,90
40776,note_on,36,0,8,,,,,,,,,7,,,59,127
40776,note_on,36,0,7,,,,,,,,,6,,,71,127
41096,note_on,321,0,4,,,,,,,,,3,,,71,0
41096,note_on,322,0,2,,,,,,,,,1,,,71,0
41096,note_on,320,0,6,,,,,,,,,5,,,59,0
41096,note_on,322,0,3,,,,,,,,,2,,,71,0
41096,note_on,320,0,7,,,,,,,,,6,,,71,0
41096,note_on,321,0,5,,,,,,,,,4,,,59,0
41097,note_on,321,0,8,,,,,,,,,7,,,59,0
41130,note_on,34,0,3,,,,,,,,,2,,,76,63
41130,note_on,34,0,2,,,,,,,,,1,,,76,64
41130,note_on,34,0,4,,,,,,,,,3,,,76,64
41131,note_on,35,0,5,,,,,,,,,4,,,64,90
41133,note_on,37,0,6,,,,,,,,,5,,,64,90
41133,note_on,37,0,7,,,,,,,,,6,,,76,127
41133,note_on,36,0,8,,,,,,,,,7,,,64,127
41270,note_on,140,0,3,,,,,,,,,2,,,76,0
41270,note_on,140,0,2,,,,,,,,,1,,,76,0
41270,note_on,140,0,4,,,,,,,,,3,,,76,0
41271,note_on,140,0,5,,,,,,,,,4,,,64,0
41272,note_on,139,0,8,,,,,,,,,7,,,64,0
41272,note_on,139,0,7,,,,,,,,,6,,,76,0
41272,note_on,139,0,6,,,,,,,,,5,,,64,0
41306,note_on,36,0,2,,,,,,,,,1,,,64,64
41310,note_on,39,0,5,,,,,,,,,4,,,52,90
41310,note_on,38,0,8,,,,,,,,,7,,,52,127
41310,note_on,40,0,4,,,,,,,,,3,,,64,64
41310,note_on,38,0,6,,,,,,,,,5,,,52,90
41310,note_on,40,0,3,,,,,,,,,2,,,64,63
41310,note_on,38,0,7,,,,,,,,,6,,,64,127
41462,note_on,152,0,3,,,,,,,,,2,,,64,0
41462,note_on,156,0,2,,,,,,,,,1,,,64,0
41463,note_on,153,0,4,,,,,,,,,3,,,64,0
41465,note_on,155,0,7,,,,,,,,,6,,,64,0
41465,note_on,155,0,6,,,,,,,,,5,,,52,0
41465,note_on,155,0,5,,,,,,,,,4,,,52,0
41465,note_on,155,0,8,,,,,,,,,7,,,52,0
41662,note_on,911,0,1,,,,,,,,,0,,,71,127
41663,note_on,201,0,2,,,,,,,,,1,,,71,64
41664,note_on,202,0,3,,,,,,,,,2,,,71,63
41664,note_on,201,0,4,,,,,,,,,3,,,71,64
41664,note_on,199,0,5,,,,,,,,,4,,,59,90
41664,note_on,199,0,8,,,,,,,,,7,,,59,127
41664,note_on,199,0,7,,,,,,,,,6,,,71,127
41796,note_on,134,0,1,,,,,,,,,0,,,71,0
41800,note_on,137,0,2,,,,,,,,,1,,,71,0
41800,note_on,136,0,4,,,,,,,,,3,,,71,0
41801,note_on,137,0,3,,,,,,,,,2,,,71,0
41801,note_on,137,0,8,,,,,,,,,7,,,59,0
41802,note_on,138,0,5,,,,,,,,,4,,,59,0
41803,note_on,139,0,7,,,,,,,,,6,,,71,0
41838,note_on,42,0,1,,,,,,,,,0,,,76,127
41839,note_on,38,0,3,,,,,,,,,2,,,76,63
41839,note_on,39,0,4,,,,,,,,,3,,,76,64
41839,note_on,39,0,2,,,,,,,,,1,,,76,64
41840,note_on,38,0,5,,,,,,,,,4,,,64,90
41840,note_on,39,0,8,,,,,,,,,7,,,64,127
41840,note_on,37,0,7,,,,,,,,,6,,,76,127
41924,note_on,86,0,1,,,,,,,,,0,,,76,0
41924,note_on,85,0,2,,,,,,,,,1,,,76,0
41925,note_on,86,0,4,,,,,,,,,3,,,76,0
41925,note_on,86,0,3,,,,,,,,,2,,,76,0
41928,note_on,88,0,7,,,,,,,,,6,,,76,0
41928,note_on,4,0,1,,,,,,,,,0,,,75,127
41928,note_on,88,0,8,,,,,,,,,7,,,64,0
41928,note_on,88,0,5,,,,,,,,,4,,,64,0
41929,note_on,5,0,2,,,,,,,,,1,,,75,64
41930,note_on,5,0,3,,,,,,,,,2,,,75,63
41931,note_on,6,0,4,,,,,,,,,3,,,75,64
41932,note_on,4,0,8,,,,,,,,,7,,,63,127
41932,note_on,4,0,5,,,,,,,,,4,,,63,90
41932,note_on,4,0,7,,,,,,,,,6,,,75,127
42013,note_on,85,0,1,,,,,,,,,0,,,75,0
42013,note_on,84,0,2,,,,,,,,,1,,,75,0
42017,note_on,4,0,2,,,,,,,,,1,,,76,64
42017,note_on,85,0,7,,,,,,,,,6,,,75,0
42017,note_on,85,0,5,,,,,,,,,4,,,63,0
42017,note_on,87,0,3,,,,,,,,,2,,,75,0
42017,note_on,85,0,8,,,,,,,,,7,,,63,0
42017,note_on,86,0,4,,,,,,,,,3,,,75,0
42017,note_on,4,0,1,,,,,,,,,0,,,76,127
42018,note_on,1,0,3,,,,,,,,,2,,,76,63
42018,note_on,1,0,4,,,,,,,,,3,,,76,64
42020,note_on,3,0,8,,,,,,,,,7,,,64,127
42020,note_on,3,0,7,,,,,,,,,6,,,76,127
42020,note_on,3,0,5,,,,,,,,,4,,,64,90
42102,note_on,84,0,3,,,,,,,,,2,,,76,0
42102,note_on,85,0,1,,,,,,,,,0,,,76,0
42102,note_on,85,0,2,,,,,,,,,1,,,76,0
42104,note_on,86,0,4,,,,,,,,,3,,,76,0
42104,note_on,84,0,7,,,,,,,,,6,,,76,0
42104,note_on,84,0,5,,,,,,,,,4,,,64,0
42105,note_on,85,0,8,,,,,,,,,7,,,64,0
42106,note_on,4,0,1,,,,,,,,,0,,,75,127
42107,note_on,5,0,2,,,,,,,,,1,,,75,64
42108,note_on,4,0,4,,,,,,,,,3,,,75,64
42108,note_on,4,0,5,,,,,,,,,4,,,63,90
42108,note_on,6,0,3,,,,,,,,,2,,,75,63
42109,note_on,5,0,7,,,,,,,,,6,,,75,127
42110,note_on,5,0,8,,,,,,,,,7,,,63,127
42192,note_on,86,0,1,,,,,,,,,0,,,75,0
42194,note_on,85,0,7,,,,,,,,,6,,,75,0
42194,note_on,86,0,4,,,,,,,,,3,,,75,0
42194,note_on,86,0,5,,,,,,,,,4,,,63,0
42194,note_on,87,0,2,,,,,,,,,1,,,75,0
42194,note_on,86,0,3,,,,,,,,,2,,,75,0
42196,note_on,86,0,8,,,,,,,,,7,,,63,0
42200,note_on,8,0,1,,,,,,,,,0,,,76,127
42200,note_on,4,0,8,,,,,,,,,7,,,64,127
42200,note_on,6,0,4,,,,,,,,,3,,,76,64
42200,note_on,6,0,5,,,,,,,,,4,,,64,90
42200,note_on,6,0,2,,,,,,,,,1,,,76,64
42200,note_on,6,0,7,,,,,,,,,6,,,76,127
42200,note_on,6,0,3,,,,,,,,,2,,,76,63
42277,note_on,77,0,1,,,,,,,,,0,,,76,0
42278,note_on,78,0,2,,,,,,,,,1,,,76,0
42279,note_on,79,0,3,,,,,,,,,2,,,76,0
42280,note_on,80,0,5,,,,,,,,,4,,,64,0
42280,note_on,80,0,7,,,,,,,,,6,,,76,0
42280,note_on,80,0,4,,,,,,,,,3,,,76,0
42281,note_on,81,0,8,,,,,,,,,7,,,64,0
42282,note_on,5,0,1,,,,,,,,,0,,,75,127
42283,note_on,4,0,3,,,,,,,,,2,,,75,63
42283,note_on,5,0,2,,,,,,,,,1,,,75,64
42284,note_on,4,0,5,,,,,,,,,4,,,63,90
42284,note_on,3,0,8,,,,,,,,,7,,,63,127
42284,note_on,4,0,4,,,,,,,,,3,,,75,64
42284,note_on,4,0,7,,,,,,,,,6,,,75,127
42371,note_on,87,0,4,,,,,,,,,3,,,75,0
42371,note_on,88,0,3,,,,,,,,,2,,,75,0
42371,note_on,87,0,5,,,,,,,,,4,,,63,0
42371,note_on,89,0,1,,,,,,,,,0,,,75,0
42371,note_on,88,0,2,,,,,,,,,1,,,75,0
42374,note_on,3,0,1,,,,,,,,,0,,,76,127
42374,note_on,90,0,7,,,,,,,,,6,,,75,0
42374,note_on,90,0,8,,,,,,,,,7,,,63,0
42375,note_on,4,0,2,,,,,,,,,1,,,76,64
42377,note_on,3,0,8,,,,,,,,,7,,,64,127
42377,note_on,6,0,5,,,,,,,,,4,,,64,90
42377,note_on,6,0,4,,,,,,,,,3,,,76,64
42377,note_on,6,0,3,,,,,,,,,2,,,76,63
42377,note_on,3,0,7,,,,,,,,,6,,,76,127
42458,note_on,84,0,1,,,,,,,,,0,,,76,0
42458,note_on,81,0,4,,,,,,,,,3,,,76,0
42458,note_on,83,0,2,,,,,,,,,1,,,76,0
42458,note_on,81,0,3,,,,,,,,,2,,,76,0
42460,note_on,83,0,5,,,,,,,,,4,,,64,0
42462,note_on,85,0,8,,,,,,,,,7,,,64,0
42462,note_on,4,0,4,,,,,,,,,3,,,75,64
42462,note_on,85,0,7,,,,,,,,,6,,,76,0
42462,note_on,4,0,3,,,,,,,,,2,,,75,63
42462,note_on,4,0,1,,,,,,,,,0,,,75,127
42462,note_on,4,0,2,,,,,,,,,1,,,75,64
42463,note_on,3,0,5,,,,,,,,,4,,,63,90
42464,note_on,2,0,8,,,,,,,,,7,,,63,127
42464,note_on,2,0,7,,,,,,,,,6,,,75,127
42546,note_on,84,0,1,,,,,,,,,0,,,75,0
42546,note_on,84,0,2,,,,,,,,,1,,,75,0
42547,note_on,85,0,3,,,,,,,,,2,,,75,0
42547,note_on,85,0,4,,,,,,,,,3,,,75,0
42549,note_on,86,0,5,,,,,,,,,4,,,63,0
42551,note_on,87,0,8,,,,,,,,,7,,,63,0
42551,note_on,87,0,7,,,,,,,,,6,,,75,0
42554,note_on,8,0,1,,,,,,,,,0,,,76,127
42554,note_on,8,0,2,,,,,,,,,1,,,76,64
42554,note_on,7,0,4,,,,,,,,,3,,,76,64
42554,note_on,7,0,3,,,,,,,,,2,,,76,63
42554,note_on,5,0,5,,,,,,,,,4,,,64,90
42555,note_on,4,0,8,,,,,,,,,7,,,64,127
42555,note_on,4,0,7,,,,,,,,,6,,,76,127
42684,note_on,130,0,1,,,,,,,,,0,,,76,0
42688,note_on,134,0,2,,,,,,,,,1,,,76,0
42688,note_on,134,0,4,,,,,,,,,3,,,76,0
42688,note_on,134,0,3,,,,,,,,,2,,,76,0
42688,note_on,133,0,7,,,,,,,,,6,,,76,0
42692,note_on,137,0,8,,,,,,,,,7,,,64,0
42692,note_on,138,0,5,,,,,,,,,4,,,64,0
42725,note_on,41,0,1,,,,,,,,,0,,,64,127
42726,note_on,38,0,3,,,,,,,,,2,,,64,63
42726,note_on,38,0,2,,,,,,,,,1,,,64,64
42726,note_on,38,0,4,,,,,,,,,3,,,64,64
42726,note_on,34,0,5,,,,,,,,,4,,,52,90
42728,note_on,40,0,7,,,,,,,,,6,,,64,127
42728,note_on,36,0,8,,,,,,,,,7,,,52,127
42878,note_on,152,0,4,,,,,,,,,3,,,64,0
42878,note_on,152,0,2,,,,,,,,,1,,,64,0
42878,note_on,152,0,3,,,,,,,,,2,,,64,0
42878,note_on,153,0,1,,,,,,,,,0,,,64,0
42880,note_on,154,0,5,,,,,,,,,4,,,52,0
42880,note_on,152,0,7,,,,,,,,,6,,,64,0
42881,note_on,153,0,8,,,,,,,,,7,,,52,0
43079,note_on,201,0,1,,,,,,,,,0,,,71,127
43082,note_on,204,0,2,,,,,,,,,1,,,71,64
43084,note_on,204,0,5,,,,,,,,,4,,,59,90
43084,note_on,203,0,8,,,,,,,,,7,,,59,127
43084,note_on,206,0,4,,,,,,,,,3,,,71,64
43084,note_on,206,0,3,,,,,,,,,2,,,71,63
43084,note_on,204,0,7,,,,,,,,,6,,,71,127
43216,note_on,137,0,1,,,,,,,,,0,,,71,0
43222,note_on,140,0,2,,,,,,,,,1,,,71,0
43223,note_on,139,0,4,,,,,,,,,3,,,71,0
43223,note_on,139,0,5,,,,,,,,,4,,,59,0
43223,note_on,139,0,7,,,,,,,,,6,,,71,0
43223,note_on,139,0,3,,,,,,,,,2,,,71,0
43223,note_on,139,0,8,,,,,,,,,7,,,59,0
43257,note_on,41,0,1,,,,,,,,,0,,,76,127
43257,note_on,34,0,3,,,,,,,,,2,,,76,63
43257,note_on,35,0,2,,,,,,,,,1,,,76,64
43261,note_on,38,0,7,,,,,,,,,6,,,76,127
43261,note_on,38,0,5,,,,,,,,,4,,,64,90
43261,note_on,38,0,8,,,,,,,,,7,,,64,127
43261,note_on,38,0,4,,,,,,,,,3,,,76,64
43345,note_on,88,0,2,,,,,,,,,1,,,76,0
43345,note_on,88,0,1,,,,,,,,,0,,,76,0
43347,note_on,86,0,4,,,,,,,,,3,,,76,0
43347,note_on,90,0,3,,,,,,,,,2,,,76,0
43349,note_on,4,0,1,,,,,,,,,0,,,75,127
43349,note_on,88,0,7,,,,,,,,,6,,,76,0
43349,note_on,88,0,8,,,,,,,,,7,,,64,0
43349,note_on,88,0,5,,,,,,,,,4,,,64,0
43351,note_on,4,0,4,,,,,,,,,3,,,75,64
43351,note_on,6,0,2,,,,,,,,,1,,,75,64
43351,note_on,2,0,5,,,,,,,,,4,,,63,90
43351,note_on,4,0,3,,,,,,,,,2,,,75,63
43352,note_on,3,0,7,,,,,,,,,6,,,75,127
43354,note_on,5,0,8,,,,,,,,,7,,,63,127
43432,note_on,83,0,1,,,,,,,,,0,,,75,0
43432,note_on,81,0,2,,,,,,,,,1,,,75,0
43432,note_on,81,0,3,,,,,,,,,2,,,75,0
43437,note_on,85,0,7,,,,,,,,,6,,,75,0
43437,note_on,86,0,4,,,,,,,,,3,,,75,0
43437,note_on,86,0,5,,,,,,,,,4,,,63,0
43438,note_on,84,0,8,,,,,,,,,7,,,63,0
43441,note_on,9,0,2,,,,,,,,,1,,,76,64
43441,note_on,4,0,5,,,,,,,,,4,,,64,90
43441,note_on,9,0,1,,,,,,,,,0,,,76,127
43441,note_on,9,0,3,,,,,,,,,2,,,76,63
43441,note_on,3,0,8,,,,,,,,,7,,,64,127
43441,note_on,4,0,7,,,,,,,,,6,,,76,127
43441,note_on,4,0,4,,,,,,,,,3,,,76,64
43520,note_on,79,0,2,,,,,,,,,1,,,76,0
43520,note_on,79,0,1,,,,,,,,,0,,,76,0
43521,note_on,80,0,3,,,,,,,,,2,,,76,0
43521,note_on,80,0,8,,,,,,,,,7,,,64,0
43521,note_on,80,0,7,,,,,,,,,6,,,76,0
43521,note_on,80,0,4,,,,,,,,,3,,,76,0
43521,note_on,80,0,5,,,,,,,,,4,,,64,0
43523,note_on,3,0,1,,,,,,,,,0,,,75,127
43524,note_on,3,0,4,,,,,,,,,3,,,75,64
43524,note_on,4,0,2,,,,,,,,,1,,,75,64
43524,note_on,3,0,3,,,,,,,,,2,,,75,63
43525,note_on,4,0,5,,,,,,,,,4,,,63,90
43525,note_on,4,0,8,,,,,,,,,7,,,63,127
43525,note_on,4,0,7,,,,,,,,,6,,,75,127
43607,note_on,84,0,1,,,,,,,,,0,,,75,0
43608,note_on,84,0,2,,,,,,,,,1,,,75,0
43609,note_on,85,0,4,,,,,,,,,3,,,75,0
43609,note_on,85,0,3,,,,,,,,,2,,,75,0
43610,note_on,85,0,5,,,,,,,,,4,,,63,0
43612,note_on,87,0,7,,,,,,,,,6,,,75,0
43612,note_on,87,0,8,,,,,,,,,7,,,63,0
43613,note_on,6,0,1,,,,,,,,,0,,,76,127
43613,note_on,5,0,2,,,,,,,,,1,,,76,64
43614,note_on,5,0,3,,,,,,,,,2,,,76,63
43616,note_on,4,0,7,,,,,,,,,6,,,76,127
43616,note_on,4,0,8,,,,,,,,,7,,,64,127
43616,note_on,6,0,5,,,,,,,,,4,,,64,90
43616,note_on,7,0,4,,,,,,,,,3,,,76,64
43697,note_on,84,0,1,,,,,,,,,0,,,76,0
43697,note_on,84,0,2,,,,,,,,,1,,,76,0
43697,note_on,83,0,3,,,,,,,,,2,,,76,0
43698,note_on,82,0,5,,,,,,,,,4,,,64,0
43698,note_on,82,0,4,,,,,,,,,3,,,76,0
43699,note_on,83,0,7,,,,,,,,,6,,,76,0
43700,note_on,3,0,1,,,,,,,,,0,,,75,127
43700,note_on,84,0,8,,,,,,,,,7,,,64,0
43701,note_on,4,0,2,,,,,,,,,1,,,75,64
43702,note_on,5,0,3,,,,,,,,,2,,,75,63
43704,note_on,5,0,7,,,,,,,,,6,,,75,127
43704,note_on,6,0,4,,,,,,,,,3,,,75,64
43704,note_on,6,0,5,,,,,,,,,4,,,63,90
43705,note_on,5,0,8,,,,,,,,,7,,,63,127
43785,note_on,85,0,1,,,,,,,,,0,,,75,0
43786,note_on,85,0,2,,,,,,,,,1,,,75,0
43786,note_on,82,0,4,,,,,,,,,3,,,75,0
43786,note_on,84,0,3,,,,,,,,,2,,,75,0
43788,note_on,84,0,5,,,,,,,,,4,,,63,0
43788,note_on,84,0,7,,,,,,,,,6,,,75,0
43789,note_on,84,0,8,,,,,,,,,7,,,63,0
43789,note_on,4,0,1,,,,,,,,,0,,,76,127
43791,note_on,5,0,2,,,,,,,,,1,,,76,64
43792,note_on,6,0,3,,,,,,,,,2,,,76,63
43792,note_on,4,0,5,,,,,,,,,4,,,64,90
43792,note_on,6,0,4,,,,,,,,,3,,,76,64
43793,note_on,4,0,8,,,,,,,,,7,,,64,127
43793,note_on,5,0,7,,,,,,,,,6,,,76,127
43874,note_on,85,0,1,,,,,,,,,0,,,76,0
43874,note_on,83,0,2,,,,,,,,,1,,,76,0
43875,note_on,83,0,3,,,,,,,,,2,,,76,0
43875,note_on,83,0,4,,,,,,,,,3,,,76,0
43876,note_on,84,0,5,,,,,,,,,4,,,64,0
43876,note_on,83,0,7,,,,,,,,,6,,,76,0
43877,note_on,3,0,1,,,,,,,,,0,,,75,127
43877,note_on,84,0,8,,,,,,,,,7,,,64,0
43878,note_on,4,0,2,,,,,,,,,1,,,75,64
43880,note_on,5,0,4,,,,,,,,,3,,,75,64
43880,note_on,4,0,5,,,,,,,,,4,,,63,90
43880,note_on,5,0,3,,,,,,,,,2,,,75,63
43881,note_on,5,0,7,,,,,,,,,6,,,75,127
43882,note_on,5,0,8,,,,,,,,,7,,,63,127
43964,note_on,87,0,1,,,,,,,,,0,,,75,0
43964,note_on,86,0,2,,,,,,,,,1,,,75,0
43966,note_on,86,0,3,,,,,,,,,2,,,75,0
43967,note_on,87,0,4,,,,,,,,,3,,,75,0
43967,note_on,86,0,7,,,,,,,,,6,,,75,0
43967,note_on,87,0,5,,,,,,,,,4,,,63,0
43968,note_on,86,0,8,,,,,,,,,7,,,63,0
43972,note_on,6,0,3,,,,,,,,,2,,,76,63
43972,note_on,8,0,1,,,,,,,,,0,,,76,127
43972,note_on,5,0,4,,,,,,,,,3,,,76,64
43972,note_on,8,0,2,,,,,,,,,1,,,76,64
43974,note_on,6,0,8,,,,,,,,,7,,,64,127
43974,note_on,7,0,7,,,,,,,,,6,,,76,127
43974,note_on,7,0,5,,,,,,,,,4,,,64,90
44103,note_on,131,0,1,,,,,,,,,0,,,76,0
44104,note_on,132,0,2,,,,,,,,,1,,,76,0
44105,note_on,133,0,4,,,,,,,,,3,,,76,0
44106,note_on,134,0,3,,,,,,,,,2,,,76,0
44110,note_on,136,0,7,,,,,,,,,6,,,76,0
44110,note_on,136,0,8,,,,,,,,,7,,,64,0
44110,note_on,136,0,5,,,,,,,,,4,,,64,0
44143,note_on,40,0,1,,,,,,,,,0,,,71,127
44143,note_on,39,0,2,,,,,,,,,1,,,71,64
44147,note_on,37,0,7,,,,,,,,,6,,,71,127
44147,note_on,37,0,5,,,,,,,,,4,,,59,90
44147,note_on,42,0,4,,,,,,,,,3,,,71,64
44147,note_on,37,0,8,,,,,,,,,7,,,59,127
44147,note_on,41,0,3,,,,,,,,,2,,,71,63
44456,note_on,313,0,1,,,,,,,,,0,,,71,0
44458,note_on,311,0,4,,,,,,,,,3,,,71,0
44462,note_on,319,0,2,,,,,,,,,1,,,71,0
44462,note_on,315,0,8,,,,,,,,,7,,,59,0
44462,note_on,315,0,5,,,,,,,,,4,,,59,0
44462,note_on,315,0,3,,,,,,,,,2,,,71,0
44463,note_on,316,0,7,,,,,,,,,6,,,71,0
44498,note_on,42,0,1,,,,,,,,,0,,,68,127
44499,note_on,37,0,5,,,,,,,,,4,,,56,90
44499,note_on,36,0,7,,,,,,,,,6,,,68,127
44499,note_on,41,0,4,,,,,,,,,3,,,68,64
44499,note_on,37,0,3,,,,,,,,,2,,,68,63
44499,note_on,37,0,2,,,,,,,,,1,,,68,64
44500,note_on,38,0,8,,,,,,,,,7,,,56,127
44633,note_on,135,0,1,,,,,,,,,0,,,68,0
44638,note_on,139,0,2,,,,,,,,,1,,,68,0
44639,note_on,140,0,4,,,,,,,,,3,,,68,0
44639,note_on,140,0,3,,,,,,,,,2,,,68,0
44639,note_on,139,0,8,,,,,,,,,7,,,56,0
44640,note_on,141,0,5,,,,,,,,,4,,,56,0
44640,note_on,141,0,7,,,,,,,,,6,,,68,0
44676,note_on,36,0,5,,,,,,,,,4,,,52,90
44676,note_on,38,0,2,,,,,,,,,1,,,64,64
44676,note_on,43,0,1,,,,,,,,,0,,,64,127
44676,note_on,36,0,7,,,,,,,,,6,,,64,127
44676,note_on,37,0,3,,,,,,,,,2,,,64,63
44676,note_on,37,0,4,,,,,,,,,3,,,64,64
44677,note_on,38,0,8,,,,,,,,,7,,,52,127
44809,note_on,133,0,1,,,,,,,,,0,,,64,0
44815,note_on,139,0,4,,,,,,,,,3,,,64,0
44815,note_on,139,0,2,,,,,,,,,1,,,64,0
44818,note_on,142,0,7,,,,,,,,,6,,,64,0
44818,note_on,142,0,3,,,,,,,,,2,,,64,0
44818,note_on,142,0,5,,,,,,,,,4,,,52,0
44818,note_on,141,0,8,,,,,,,,,7,,,52,0
44852,note_on,43,0,1,,,,,,,,,0,,,71,127
44853,note_on,35,0,3,,,,,,,,,2,,,71,63
44853,note_on,38,0,2,,,,,,,,,1,,,71,64
44857,note_on,39,0,8,,,,,,,,,7,,,59,127
44857,note_on,42,0,4,,,,,,,,,3,,,71,64
44857,note_on,39,0,7,,,,,,,,,6,,,71,127
44857,note_on,39,0,5,,,,,,,,,4,,,59,90
45166,note_on,314,0,1,,,,,,,,,0,,,71,0
45169,note_on,312,0,5,,,,,,,,,4,,,59,0
45169,note_on,312,0,4,,,,,,,,,3,,,71,0
45169,note_on,316,0,3,,,,,,,,,2,,,71,0
45169,note_on,312,0,8,,,,,,,,,7,,,59,0
45169,note_on,316,0,2,,,,,,,,,1,,,71,0
45170,note_on,313,0,7,,,,,,,,,6,,,71,0
45206,note_on,40,0,1,,,,,,,,,0,,,68,127
45210,note_on,41,0,2,,,,,,,,,1,,,68,64
45210,note_on,41,0,5,,,,,,,,,4,,,56,90
45210,note_on,41,0,4,,,,,,,,,3,,,68,64
45210,note_on,41,0,8,,,,,,,,,7,,,56,127
45210,note_on,40,0,7,,,,,,,,,6,,,68,127
45210,note_on,41,0,3,,,,,,,,,2,,,68,63
45343,note_on,137,0,1,,,,,,,,,0,,,68,0
45345,note_on,135,0,2,,,,,,,,,1,,,68,0
45346,note_on,136,0,4,,,,,,,,,3,,,68,0
45347,note_on,137,0,8,,,,,,,,,7,,,56,0
45347,note_on,137,0,3,,,,,,,,,2,,,68,0
45351,note_on,141,0,7,,,,,,,,,6,,,68,0
45351,note_on,141,0,5,,,,,,,,,4,,,56,0
45383,note_on,38,0,2,,,,,,,,,1,,,64,64
45383,note_on,40,0,1,,,,,,,,,0,,,64,127
45388,note_on,41,0,8,,,,,,,,,7,,,52,127
45388,note_on,41,0,3,,,,,,,,,2,,,64,63
45388,note_on,37,0,5,,,,,,,,,4,,,52,90
45388,note_on,37,0,7,,,,,,,,,6,,,64,127
45388,note_on,42,0,4,,,,,,,,,3,,,64,64
45519,note_on,136,0,1,,,,,,,,,0,,,64,0
45526,note_on,143,0,2,,,,,,,,,1,,,64,0
45526,note_on,138,0,3,,,,,,,,,2,,,64,0
45526,note_on,138,0,4,,,,,,,,,3,,,64,0
45530,note_on,142,0,5,,,,,,,,,4,,,52,0
45530,note_on,142,0,7,,,,,,,,,6,,,64,0
45530,note_on,142,0,8,,,,,,,,,7,,,52,0
45560,note_on,34,0,2,,,,,,,,,1,,,66,64
45560,note_on,41,0,1,,,,,,,,,0,,,66,127
45561,note_on,35,0,4,,,,,,,,,3,,,66,64
45561,note_on,35,0,3,,,,,,,,,2,,,66,63
45562,note_on,32,0,5,,,,,,,,,4,,,54,90
45563,note_on,33,0,8,,,,,,,,,7,,,54,127
45563,note_on,33,0,7,,,,,,,,,6,,,66,127
45696,note_on,136,0,1,,,,,,,,,0,,,66,0
45703,note_on,143,0,2,,,,,,,,,1,,,66,0
45704,note_on,141,0,7,,,,,,,,,6,,,66,0
45704,note_on,143,0,4,,,,,,,,,3,,,66,0
45704,note_on,141,0,8,,,,,,,,,7,,,54,0
45704,note_on,143,0,3,,,,,,,,,2,,,66,0
45704,note_on,142,0,5,,,,,,,,,4,,,54,0
45739,note_on,43,0,1,,,,,,,,,0,,,68,127
45739,note_on,35,0,3,,,,,,,,,2,,,68,63
45739,note_on,36,0,2,,,,,,,,,1,,,68,64
45740,note_on,36,0,4,,,,,,,,,3,,,68,64
45740,note_on,36,0,8,,,,,,,,,7,,,56,127
45740,note_on,36,0,5,,,,,,,,,4,,,56,90
45740,note_on,36,0,7,,,,,,,,,6,,,68,127
45874,note_on,135,0,1,,,,,,,,,0,,,68,0
45879,note_on,139,0,4,,,,,,,,,3,,,68,0
45881,note_on,142,0,3,,,,,,,,,2,,,68,0
45881,note_on,142,0,2,,,,,,,,,1,,,68,0
45882,note_on,142,0,8,,,,,,,,,7,,,56,0
45882,note_on,142,0,7,,,,,,,,,6,,,68,0
45882,note_on,142,0,5,,,,,,,,,4,,,56,0
45916,note_on,42,0,1,,,,,,,,,0,,,69,127
45916,note_on,35,0,2,,,,,,,,,1,,,69,64
45917,note_on,36,0,3,,,,,,,,,2,,,69,63
45917,note_on,38,0,4,,,,,,,,,3,,,69,64
45919,note_on,37,0,7,,,,,,,,,6,,,69,127
45919,note_on,37,0,8,,,,,,,,,7,,,57,127
45919,note_on,37,0,5,,,,,,,,,4,,,57,90
46053,note_on,136,0,3,,,,,,,,,2,,,69,0
46053,note_on,137,0,1,,,,,,,,,0,,,69,0
46053,note_on,136,0,4,,,,,,,,,3,,,69,0
46053,note_on,137,0,2,,,,,,,,,1,,,69,0
46055,note_on,136,0,8,,,,,,,,,7,,,57,0
46060,note_on,141,0,5,,,,,,,,,4,,,57,0
46060,note_on,141,0,7,,,,,,,,,6,,,69,0
46094,note_on,41,0,2,,,,,,,,,1,,,71,64
46094,note_on,41,0,1,,,,,,,,,0,,,71,127
46094,note_on,41,0,3,,,,,,,,,2,,,71,63
46097,note_on,37,0,7,,,,,,,,,6,,,71,127
46097,note_on,37,0,5,,,,,,,,,4,,,59,90
46097,note_on,42,0,8,,,,,,,,,7,,,59,127
46097,note_on,44,0,4,,,,,,,,,3,,,71,64
46424,note_on,330,0,1,,,,,,,,,0,,,71,0
46424,note_on,330,0,2,,,,,,,,,1,,,71,0
46447,note_on,353,0,3,,,,,,,,,2,,,71,0
46447,note_on,350,0,4,,,,,,,,,3,,,71,0
46447,note_on,350,0,5,,,,,,,,,4,,,59,0
46451,note_on,354,0,8,,,,,,,,,7,,,59,0
46451,note_on,354,0,7,,,,,,,,,6,,,71,0
46627,note_on,180,0,5,,,,,,,,,4,,,59,90
46627,note_on,180,0,4,,,,,,,,,3,,,71,64
46627,note_on,203,0,1,,,,,,,,,0,,,71,127
46627,note_on,180,0,3,,,,,,,,,2,,,71,63
46627,note_on,203,0,2,,,,,,,,,1,,,71,64
46629,note_on,178,0,7,,,,,,,,,6,,,71,127
46629,note_on,178,0,8,,,,,,,,,7,,,59,127
46761,note_on,134,0,1,,,,,,,,,0,,,71,0
46766,note_on,139,0,2,,,,,,,,,1,,,71,0
46767,note_on,140,0,4,,,,,,,,,3,,,71,0
46767,note_on,138,0,8,,,,,,,,,7,,,59,0
46767,note_on,140,0,3,,,,,,,,,2,,,71,0
46769,note_on,142,0,5,,,,,,,,,4,,,59,0
46769,note_on,140,0,7,,,,,,,,,6,,,71,0
46804,note_on,43,0,1,,,,,,,,,0,,,71,127
46804,note_on,37,0,4,,,,,,,,,3,,,71,64
46804,note_on,37,0,3,,,,,,,,,2,,,71,63
46804,note_on,38,0,2,,,,,,,,,1,,,71,64
46807,note_on,38,0,7,,,,,,,,,6,,,71,127
46807,note_on,40,0,8,,,,,,,,,7,,,59,127
46807,note_on,38,0,5,,,,,,,,,4,,,59,90
46890,note_on,86,0,1,,,,,,,,,0,,,71,0
46891,note_on,87,0,2,,,,,,,,,1,,,71,0
46891,note_on,87,0,3,,,,,,,,,2,,,71,0
46891,note_on,87,0,4,,,,,,,,,3,,,71,0
46893,note_on,86,0,5,,,,,,,,,4,,,59,0
46894,note_on,87,0,8,,,,,,,,,7,,,59,0
46894,note_on,87,0,7,,,,,,,,,6,,,71,0
46897,note_on,6,0,3,,,,,,,,,2,,,69,63
46897,note_on,6,0,2,,,,,,,,,1,,,69,64
46897,note_on,7,0,1,,,,,,,,,0,,,69,127
46897,note_on,6,0,4,,,,,,,,,3,,,69,64
46899,note_on,5,0,7,,,,,,,,,6,,,69,127
46899,note_on,6,0,5,,,,,,,,,4,,,57,90
46899,note_on,5,0,8,,,,,,,,,7,,,57,127
46975,note_on,78,0,1,,,,,,,,,0,,,69,0
46976,note_on,79,0,3,,,,,,,,,2,,,69,0
46976,note_on,79,0,2,,,,,,,,,1,,,69,0
46977,note_on,78,0,5,,,,,,,,,4,,,57,0
46977,note_on,78,0,8,,,,,,,,,7,,,57,0
46977,note_on,80,0,4,,,,,,,,,3,,,69,0
46977,note_on,78,0,7,,,,,,,,,6,,,69,0
46978,note_on,2,0,2,,,,,,,,,1,,,71,64
46978,note_on,3,0,1,,,,,,,,,0,,,71,127
46980,note_on,3,0,4,,,,,,,,,3,,,71,64
46980,note_on,3,0,5,,,,,,,,,4,,,59,90
46980,note_on,3,0,8,,,,,,,,,7,,,59,127
46980,note_on,4,0,3,,,,,,,,,2,,,71,63
46980,note_on,3,0,7,,,,,,,,,6,,,71,127
47066,note_on,86,0,3,,,,,,,,,2,,,71,0
47066,note_on,88,0,2,,,,,,,,,1,,,71,0
47066,note_on,88,0,1,,,,,,,,,0,,,71,0
47071,note_on,91,0,4,,,,,,,,,3,,,71,0
47073,note_on,93,0,5,,,,,,,,,4,,,59,0
47076,note_on,0,0,8,,,,,,,,,7,,,57,127
47076,note_on,96,0,8,,,,,,,,,7,,,59,0
47076,note_on,3,0,5,,,,,,,,,4,,,57,90
47076,note_on,10,0,3,,,,,,,,,2,,,69,63
47076,note_on,10,0,2,,,,,,,,,1,,,69,64
47076,note_on,96,0,7,,,,,,,,,6,,,71,0
47076,note_on,0,0,7,,,,,,,,,6,,,69,127
47076,note_on,10,0,1,,,,,,,,,0,,,69,127
47076,note_on,5,0,4,,,,,,,,,3,,,69,64
47153,note_on,77,0,1,,,,,,,,,0,,,69,0
47153,note_on,77,0,2,,,,,,,,,1,,,69,0
47155,note_on,79,0,3,,,,,,,,,2,,,69,0
47155,note_on,79,0,5,,,,,,,,,4,,,57,0
47155,note_on,79,0,4,,,,,,,,,3,,,69,0
47156,note_on,80,0,8,,,,,,,,,7,,,57,0
47156,note_on,80,0,7,,,,,,,,,6,,,69,0
47157,note_on,4,0,1,,,,,,,,,0,,,71,127
47157,note_on,4,0,2,,,,,,,,,1,,,71,64
47158,note_on,3,0,3,,,,,,,,,2,,,71,63
47159,note_on,4,0,4,,,,,,,,,3,,,71,64
47160,note_on,4,0,7,,,,,,,,,6,,,71,127
47160,note_on,4,0,8,,,,,,,,,7,,,59,127
47160,note_on,5,0,5,,,,,,,,,4,,,59,90
47292,note_on,135,0,1,,,,,,,,,0,,,71,0
47298,note_on,138,0,7,,,,,,,,,6,,,71,0
47298,note_on,141,0,2,,,,,,,,,1,,,71,0
47298,note_on,140,0,3,,,,,,,,,2,,,71,0
47298,note_on,139,0,4,,,,,,,,,3,,,71,0
47300,note_on,140,0,8,,,,,,,,,7,,,59,0
47300,note_on,140,0,5,,,,,,,,,4,,,59,0
47334,note_on,36,0,2,,,,,,,,,1,,,59,64
47334,note_on,42,0,1,,,,,,,,,0,,,59,127
47335,note_on,37,0,3,,,,,,,,,2,,,59,63
47337,note_on,37,0,5,,,,,,,,,4,,,47,90
47337,note_on,39,0,7,,,,,,,,,6,,,59,127
47337,note_on,39,0,4,,,,,,,,,3,,,59,64
47337,note_on,37,0,8,,,,,,,,,7,,,47,127
47467,note_on,133,0,1,,,,,,,,,0,,,59,0
47473,note_on,136,0,4,,,,,,,,,3,,,59,0
47473,note_on,139,0,2,,,,,,,,,1,,,59,0
47476,note_on,139,0,8,,,,,,,,,7,,,47,0
47476,note_on,141,0,3,,,,,,,,,2,,,59,0
47480,note_on,143,0,5,,,,,,,,,4,,,47,0
47480,note_on,143,0,7,,,,,,,,,6,,,59,0
47511,note_on,44,0,1,,,,,,,,,0,,,59,127
47512,note_on,39,0,2,,,,,,,,,1,,,59,64
47512,note_on,36,0,3,,,,,,,,,2,,,59,63
47513,note_on,40,0,4,,,,,,,,,3,,,59,64
47514,note_on,34,0,5,,,,,,,,,4,,,47,90
47514,note_on,38,0,8,,,,,,,,,7,,,47,127
47514,note_on,34,0,7,,,,,,,,,6,,,59,127
47647,note_on,136,0,1,,,,,,,,,0,,,59,0
47652,note_on,140,0,2,,,,,,,,,1,,,59,0
47653,note_on,141,0,3,,,,,,,,,2,,,59,0
47653,note_on,140,0,4,,,,,,,,,3,,,59,0
47653,note_on,139,0,8,,,,,,,,,7,,,47,0
47656,note_on,142,0,5,,,,,,,,,4,,,47,0
47656,note_on,142,0,7,,,,,,,,,6,,,59,0
47690,note_on,37,0,4,,,,,,,,,3,,,59,64
47690,note_on,43,0,1,,,,,,,,,0,,,59,127
47690,note_on,38,0,2,,,,,,,,,1,,,59,64
47690,note_on,37,0,3,,,,,,,,,2,,,59,63
47692,note_on,36,0,7,,,,,,,,,6,,,59,127
47692,note_on,36,0,5,,,,,,,,,4,,,47,90
47692,note_on,39,0,8,,,,,,,,,7,,,47,127
47822,note_on,132,0,1,,,,,,,,,0,,,59,0
47827,note_on,137,0,2,,,,,,,,,1,,,59,0
47829,note_on,139,0,4,,,,,,,,,3,,,59,0
47829,note_on,139,0,3,,,,,,,,,2,,,59,0
47832,note_on,140,0,8,,,,,,,,,7,,,47,0
47832,note_on,140,0,7,,,,,,,,,6,,,59,0
47832,note_on,140,0,5,,,,,,,,,4,,,47,0
47866,note_on,44,0,1,,,,,,,,,0,,,59,127
47867,note_on,40,0,2,,,,,,,,,1,,,59,64
47867,note_on,38,0,3,,,,,,,,,2,,,59,63
47870,note_on,41,0,4,,,,,,,,,3,,,59,64
47870,note_on,38,0,5,,,,,,,,,4,,,47,90
47870,note_on,38,0,7,,,,,,,,,6,,,59,127
47870,note_on,38,0,8,,,,,,,,,7,,,47,127
48002,note_on,136,0,1,,,,,,,,,0,,,59,0
48005,note_on,138,0,2,,,,,,,,,1,,,59,0
48005,note_on,135,0,4,,,,,,,,,3,,,59,0
48006,note_on,139,0,3,,,,,,,,,2,,,59,0
48006,note_on,136,0,5,,,,,,,,,4,,,47,0
48006,note_on,136,0,8,,,,,,,,,7,,,47,0
48008,note_on,138,0,7,,,,,,,,,6,,,59,0
48043,note_on,41,0,1,,,,,,,,,0,,,59,127
48045,note_on,40,0,2,,,,,,,,,1,,,59,64
48046,note_on,38,0,7,,,,,,,,,6,,,59,127
48046,note_on,41,0,4,,,,,,,,,3,,,59,64
48046,note_on,40,0,5,,,,,,,,,4,,,47,90
48046,note_on,40,0,3,,,,,,,,,2,,,59,63
48046,note_on,40,0,8,,,,,,,,,7,,,47,127
48178,note_on,135,0,1,,,,,,,,,0,,,59,0
48184,note_on,138,0,4,,,,,,,,,3,,,59,0
48184,note_on,138,0,8,,,,,,,,,7,,,47,0
48184,note_on,138,0,3,,,,,,,,,2,,,59,0
48184,note_on,139,0,2,,,,,,,,,1,,,59,0
48185,note_on,139,0,5,,,,,,,,,4,,,47,0
48185,note_on,139,0,7,,,,,,,,,6,,,59,0
48221,note_on,37,0,4,,,,,,,,,3,,,69,64
48221,note_on,37,0,3,,,,,,,,,2,,,69,63
48221,note_on,37,0,2,,,,,,,,,1,,,69,64
48221,note_on,43,0,1,,,,,,,,,0,,,69,127
48221,note_on,36,0,5,,,,,,,,,4,,,57,90
48224,note_on,40,0,8,,,,,,,,,7,,,57,127
48224,note_on,39,0,7,,,,,,,,,6,,,69,127
48305,note_on,84,0,2,,,,,,,,,1,,,69,0
48305,note_on,84,0,1,,,,,,,,,0,,,69,0
48305,note_on,84,0,3,,,,,,,,,2,,,69,0
48306,note_on,85,0,4,,,,,,,,,3,,,69,0
48307,note_on,83,0,7,,,,,,,,,6,,,69,0
48307,note_on,86,0,5,,,,,,,,,4,,,57,0
48308,note_on,3,0,1,,,,,,,,,0,,,68,127
48308,note_on,84,0,8,,,,,,,,,7,,,57,0
48309,note_on,4,0,2,,,,,,,,,1,,,68,64
48309,note_on,4,0,3,,,,,,,,,2,,,68,63
48311,note_on,5,0,4,,,,,,,,,3,,,68,64
48312,note_on,5,0,7,,,,,,,,,6,,,68,127
48312,note_on,4,0,8,,,,,,,,,7,,,56,127
48312,note_on,5,0,5,,,,,,,,,4,,,56,90
48397,note_on,88,0,2,,,,,,,,,1,,,68,0
48397,note_on,89,0,1,,,,,,,,,0,,,68,0
48397,note_on,88,0,3,,,,,,,,,2,,,68,0
48398,note_on,87,0,4,,,,,,,,,3,,,68,0
48400,note_on,88,0,7,,,,,,,,,6,,,68,0
48400,note_on,88,0,5,,,,,,,,,4,,,56,0
48403,note_on,5,0,4,,,,,,,,,3,,,69,64
48403,note_on,6,0,3,,,,,,,,,2,,,69,63
48403,note_on,6,0,2,,,,,,,,,1,,,69,64
48403,note_on,6,0,1,,,,,,,,,0,,,69,127
48403,note_on,91,0,8,,,,,,,,,7,,,56,0
48404,note_on,4,0,5,,,,,,,,,4,,,57,90
48406,note_on,3,0,8,,,,,,,,,7,,,57,127
48406,note_on,6,0,7,,,,,,,,,6,,,69,127
48485,note_on,82,0,1,,,,,,,,,0,,,69,0
48486,note_on,83,0,3,,,,,,,,,2,,,69,0
48486,note_on,83,0,2,,,,,,,,,1,,,69,0
48486,note_on,82,0,5,,,,,,,,,4,,,57,0
48486,note_on,83,0,4,,,,,,,,,3,,,69,0
48491,note_on,85,0,7,,,,,,,,,6,,,69,0
48493,note_on,2,0,7,,,,,,,,,6,,,68,127
48493,note_on,7,0,3,,,,,,,,,2,,,68,63
48493,note_on,8,0,1,,,,,,,,,0,,,68,127
48493,note_on,7,0,4,,,,,,,,,3,,,68,64
48493,note_on,7,0,2,,,,,,,,,1,,,68,64
48493,note_on,7,0,5,,,,,,,,,4,,,56,90
48493,note_on,0,0,8,,,,,,,,,7,,,56,127
48493,note_on,87,0,8,,,,,,,,,7,,,57,0
48573,note_on,80,0,1,,,,,,,,,0,,,68,0
48573,note_on,80,0,2,,,,,,,,,1,,,68,0
48575,note_on,82,0,3,,,,,,,,,2,,,68,0
48579,note_on,6,0,2,,,,,,,,,1,,,69,64
48579,note_on,86,0,4,,,,,,,,,3,,,68,0
48579,note_on,86,0,8,,,,,,,,,7,,,56,0
48579,note_on,6,0,1,,,,,,,,,0,,,69,127
48579,note_on,86,0,5,,,,,,,,,4,,,56,0
48579,note_on,86,0,7,,,,,,,,,6,,,68,0
48581,note_on,2,0,4,,,,,,,,,3,,,69,64
48581,note_on,6,0,3,,,,,,,,,2,,,69,63
48582,note_on,3,0,5,,,,,,,,,4,,,57,90
48582,note_on,3,0,8,,,,,,,,,7,,,57,127
48582,note_on,3,0,7,,,,,,,,,6,,,69,127
48711,note_on,132,0,1,,,,,,,,,0,,,69,0
48713,note_on,132,0,4,,,,,,,,,3,,,69,0
48719,note_on,137,0,5,,,,,,,,,4,,,57,0
48719,note_on,138,0,3,,,,,,,,,2,,,69,0
48719,note_on,140,0,2,,,,,,,,,1,,,69,0
48719,note_on,137,0,8,,,,,,,,,7,,,57,0
48719,note_on,137,0,7,,,,,,,,,6,,,69,0
48751,note_on,40,0,1,,,,,,,,,0,,,59,127
48756,note_on,43,0,4,,,,,,,,,3,,,59,64
48756,note_on,37,0,5,,,,,,,,,4,,,47,90
48756,note_on,37,0,2,,,,,,,,,1,,,59,64
48756,note_on,37,0,8,,,,,,,,,7,,,47,127
48756,note_on,37,0,7,,,,,,,,,6,,,59,127
48756,note_on,37,0,3,,,,,,,,,2,,,59,63
48888,note_on,137,0,1,,,,,,,,,0,,,59,0
48892,note_on,136,0,2,,,,,,,,,1,,,59,0
48892,note_on,136,0,4,,,,,,,,,3,,,59,0
48892,note_on,136,0,8,,,,,,,,,7,,,47,0
48892,note_on,136,0,3,,,,,,,,,2,,,59,0
48896,note_on,140,0,7,,,,,,,,,6,,,59,0
48896,note_on,140,0,5,,,,,,,,,4,,,47,0
48928,note_on,40,0,1,,,,,,,,,0,,,59,127
48928,note_on,36,0,2,,,,,,,,,1,,,59,64
48929,note_on,33,0,7,,,,,,,,,6,,,59,127
48929,note_on,37,0,4,,,,,,,,,3,,,59,64
48929,note_on,33,0,5,,,,,,,,,4,,,47,90
48929,note_on,37,0,3,,,,,,,,,2,,,59,63
48930,note_on,38,0,8,,,,,,,,,7,,,47,127
49065,note_on,137,0,1,,,,,,,,,0,,,59,0
49068,note_on,140,0,2,,,,,,,,,1,,,59,0
49069,note_on,140,0,4,,,,,,,,,3,,,59,0
49072,note_on,142,0,8,,,,,,,,,7,,,47,0
49072,note_on,143,0,7,,,,,,,,,6,,,59,0
49072,note_on,143,0,5,,,,,,,,,4,,,47,0
49072,note_on,143,0,3,,,,,,,,,2,,,59,0
49106,note_on,38,0,2,,,,,,,,,1,,,59,64
49106,note_on,41,0,1,,,,,,,,,0,,,59,127
49109,note_on,40,0,4,,,,,,,,,3,,,59,64
49109,note_on,37,0,5,,,,,,,,,4,,,47,90
49109,note_on,37,0,3,,,,,,,,,2,,,59,63
49109,note_on,37,0,7,,,,,,,,,6,,,59,127
49109,note_on,37,0,8,,,,,,,,,7,,,47,127
49243,note_on,137,0,1,,,,,,,,,0,,,59,0
49244,note_on,135,0,4,,,,,,,,,3,,,59,0
49251,note_on,142,0,7,,,,,,,,,6,,,59,0
49251,note_on,145,0,2,,,,,,,,,1,,,59,0
49251,note_on,142,0,3,,,,,,,,,2,,,59,0
49251,note_on,142,0,8,,,,,,,,,7,,,47,0
49251,note_on,142,0,5,,,,,,,,,4,,,47,0
49284,note_on,33,0,2,,,,,,,,,1,,,59,64
49284,note_on,41,0,1,,,,,,,,,0,,,59,127
49287,note_on,36,0,3,,,,,,,,,2,,,59,63
49288,note_on,37,0,8,,,,,,,,,7,,,47,127
49288,note_on,37,0,7,,,,,,,,,6,,,59,127
49288,note_on,44,0,4,,,,,,,,,3,,,59,64
49288,note_on,37,0,5,,,,,,,,,4,,,47,90
49421,note_on,137,0,1,,,,,,,,,0,,,59,0
49426,note_on,138,0,4,,,,,,,,,3,,,59,0
49426,note_on,138,0,8,,,,,,,,,7,,,47,0
49426,note_on,139,0,3,,,,,,,,,2,,,59,0
49426,note_on,142,0,2,,,,,,,,,1,,,59,0
49427,note_on,139,0,5,,,,,,,,,4,,,47,0
49427,note_on,139,0,7,,,,,,,,,6,,,59,0
49463,note_on,37,0,3,,,,,,,,,2,,,59,63
49463,note_on,42,0,1,,,,,,,,,0,,,59,127
49463,note_on,37,0,4,,,,,,,,,3,,,59,64
49463,note_on,37,0,2,,,,,,,,,1,,,59,64
49466,note_on,39,0,5,,,,,,,,,4,,,47,90
49466,note_on,39,0,7,,,,,,,,,6,,,59,127
49466,note_on,40,0,8,,,,,,,,,7,,,47,127
49598,note_on,135,0,1,,,,,,,,,0,,,59,0
49603,note_on,137,0,7,,,,,,,,,6,,,59,0
49603,note_on,140,0,4,,,,,,,,,3,,,59,0
49603,note_on,140,0,2,,,,,,,,,1,,,59,0
49603,note_on,140,0,3,,,,,,,,,2,,,59,0
49603,note_on,137,0,5,,,,,,,,,4,,,47,0
49603,note_on,137,0,8,,,,,,,,,7,,,47,0
49638,note_on,40,0,1,,,,,,,,,0,,,67,127
49639,note_on,36,0,3,,,,,,,,,2,,,67,63
49639,note_on,36,0,2,,,,,,,,,1,,,67,64
49640,note_on,37,0,7,,,,,,,,,6,,,67,127
49640,note_on,37,0,5,,,,,,,,,4,,,55,90
49640,note_on,37,0,4,,,,,,,,,3,,,67,64
49640,note_on,37,0,8,,,,,,,,,7,,,55,127
49773,note_on,135,0,1,,,,,,,,,0,,,67,0
49777,note_on,138,0,3,,,,,,,,,2,,,67,0
49777,note_on,138,0,2,,,,,,,,,1,,,67,0
49777,note_on,137,0,4,,,,,,,,,3,,,67,0
49780,note_on,140,0,5,,,,,,,,,4,,,55,0
49781,note_on,141,0,7,,,,,,,,,6,,,67,0
49782,note_on,142,0,8,,,,,,,,,7,,,55,0
49817,note_on,44,0,1,,,,,,,,,0,,,67,127
49817,note_on,40,0,2,,,,,,,,,1,,,67,64
49817,note_on,40,0,3,,,,,,,,,2,,,67,63
49819,note_on,39,0,5,,,,,,,,,4,,,55,90
49819,note_on,42,0,4,,,,,,,,,3,,,67,64
49819,note_on,38,0,7,,,,,,,,,6,,,67,127
49819,note_on,37,0,8,,,,,,,,,7,,,55,127
49951,note_on,134,0,1,,,,,,,,,0,,,67,0
49956,note_on,137,0,4,,,,,,,,,3,,,67,0
49956,note_on,139,0,3,,,,,,,,,2,,,67,0
49956,note_on,139,0,2,,,,,,,,,1,,,67,0
49958,note_on,139,0,5,,,,,,,,,4,,,55,0
49959,note_on,140,0,8,,,,,,,,,7,,,55,0
49959,note_on,140,0,7,,,,,,,,,6,,,67,0
49990,note_on,39,0,1,,,,,,,,,0,,,67,127
49992,note_on,36,0,3,,,,,,,,,2,,,67,63
49992,note_on,36,0,4,,,,,,,,,3,,,67,64
49992,note_on,36,0,2,,,,,,,,,1,,,67,64
49993,note_on,35,0,5,,,,,,,,,4,,,55,90
49994,note_on,35,0,7,,,,,,,,,6,,,67,127
49995,note_on,36,0,8,,,,,,,,,7,,,55,127
50131,note_on,139,0,2,,,,,,,,,1,,,67,0
50131,note_on,139,0,4,,,,,,,,,3,,,67,0
50131,note_on,141,0,1,,,,,,,,,0,,,67,0
50132,note_on,138,0,7,,,,,,,,,6,,,67,0
50132,note_on,137,0,8,,,,,,,,,7,,,55,0
50132,note_on,139,0,5,,,,,,,,,4,,,55,0
50132,note_on,140,0,3,,,,,,,,,2,,,67,0
50171,note_on,39,0,3,,,,,,,,,2,,,66,63
50171,note_on,40,0,2,,,,,,,,,1,,,66,64
50171,note_on,40,0,1,,,,,,,,,0,,,66,127
50174,note_on,42,0,5,,,,,,,,,4,,,54,90
50174,note_on,42,0,7,,,,,,,,,6,,,66,127
50174,note_on,42,0,8,,,,,,,,,7,,,54,127
50174,note_on,43,0,4,,,,,,,,,3,,,66,64
50219,note_on,48,0,2,,,,,,,,,1,,,66,0
50221,note_on,47,0,4,,,,,,,,,3,,,66,0
50221,note_on,50,0,3,,,,,,,,,2,,,66,0
50221,note_on,47,0,5,,,,,,,,,4,,,54,0
50224,note_on,50,0,7,,,,,,,,,6,,,66,0
50224,note_on,50,0,8,,,,,,,,,7,,,54,0
50234,note_on,63,0,1,,,,,,,,,0,,,66,0
50258,note_on,24,0,1,,,,,,,,,0,,,64,127
50260,note_on,41,0,2,,,,,,,,,1,,,64,64
50260,note_on,39,0,3,,,,,,,,,2,,,64,63
50263,note_on,39,0,8,,,,,,,,,7,,,52,127
50263,note_on,42,0,5,,,,,,,,,4,,,52,90
50263,note_on,39,0,7,,,,,,,,,6,,,64,127
50263,note_on,42,0,4,,,,,,,,,3,,,64,64
50303,note_on,43,0,3,,,,,,,,,2,,,64,0
50306,note_on,46,0,2,,,,,,,,,1,,,64,0
50307,note_on,44,0,4,,,,,,,,,3,,,64,0
50308,note_on,45,0,5,,,,,,,,,4,,,52,0
50308,note_on,45,0,7,,,,,,,,,6,,,64,0
50309,note_on,46,0,8,,,,,,,,,7,,,52,0
50321,note_on,63,0,1,,,,,,,,,0,,,64,0
50348,note_on,27,0,1,,,,,,,,,0,,,71,127
50349,note_on,46,0,3,,,,,,,,,2,,,71,63
50349,note_on,42,0,4,,,,,,,,,3,,,71,64
50349,note_on,43,0,2,,,,,,,,,1,,,71,64
50350,note_on,42,0,5,,,,,,,,,4,,,59,90
50350,note_on,42,0,7,,,,,,,,,6,,,71,127
50351,note_on,42,0,8,,,,,,,,,7,,,59,127
50836,note_on,488,0,1,,,,,,,,,0,,,71,0
50841,note_on,492,0,2,,,,,,,,,1,,,71,0
50842,note_on,493,0,4,,,,,,,,,3,,,71,0
50844,note_on,493,0,8,,,,,,,,,7,,,59,0
50844,note_on,495,0,3,,,,,,,,,2,,,71,0
50845,note_on,495,0,5,,,,,,,,,4,,,59,0
50845,note_on,495,0,7,,,,,,,,,6,,,71,0
50879,note_on,35,0,3,,,,,,,,,2,,,59,63
50879,note_on,43,0,1,,,,,,,,,0,,,59,127
50879,note_on,38,0,2,,,,,,,,,1,,,59,64
50880,note_on,38,0,4,,,,,,,,,3,,,59,64
50880,note_on,36,0,8,,,,,,,,,7,,,47,127
50880,note_on,35,0,7,,,,,,,,,6,,,59,127
50880,note_on,35,0,5,,,,,,,,,4,,,47,90
51014,note_on,135,0,1,,,,,,,,,0,,,59,0
51019,note_on,140,0,2,,,,,,,,,1,,,59,0
51022,note_on,142,0,8,,,,,,,,,7,,,47,0
51022,note_on,142,0,4,,,,,,,,,3,,,59,0
51022,note_on,143,0,3,,,,,,,,,2,,,59,0
51023,note_on,143,0,5,,,,,,,,,4,,,47,0
51024,note_on,144,0,7,,,,,,,,,6,,,59,0
51057,note_on,38,0,2,,,,,,,,,1,,,67,64
51057,note_on,43,0,1,,,,,,,,,0,,,67,127
51058,note_on,36,0,4,,,,,,,,,3,,,67,64
51058,note_on,36,0,3,,,,,,,,,2,,,67,63
51060,note_on,37,0,5,,,,,,,,,4,,,55,90
51060,note_on,38,0,8,,,,,,,,,7,,,55,127
51060,note_on,36,0,7,,,,,,,,,6,,,67,127
51192,note_on,135,0,1,,,,,,,,,0,,,67,0
51197,note_on,139,0,4,,,,,,,,,3,,,67,0
51200,note_on,140,0,5,,,,,,,,,4,,,55,0
51200,note_on,142,0,3,,,,,,,,,2,,,67,0
51200,note_on,143,0,2,,,,,,,,,1,,,67,0
51202,note_on,142,0,8,,,,,,,,,7,,,55,0
51202,note_on,142,0,7,,,,,,,,,6,,,67,0
51237,note_on,37,0,5,,,,,,,,,4,,,55,90
51237,note_on,37,0,3,,,,,,,,,2,,,67,63
51237,note_on,40,0,4,,,,,,,,,3,,,67,64
51237,note_on,37,0,2,,,,,,,,,1,,,67,64
51237,note_on,35,0,7,,,,,,,,,6,,,67,127
51237,note_on,45,0,1,,,,,,,,,0,,,67,127
51239,note_on,37,0,8,,,,,,,,,7,,,55,127
51370,note_on,133,0,1,,,,,,,,,0,,,67,0
51374,note_on,137,0,2,,,,,,,,,1,,,67,0
51375,note_on,138,0,4,,,,,,,,,3,,,67,0
51375,note_on,138,0,3,,,,,,,,,2,,,67,0
51376,note_on,139,0,7,,,,,,,,,6,,,67,0
51376,note_on,139,0,5,,,,,,,,,4,,,55,0
51376,note_on,137,0,8,,,,,,,,,7,,,55,0
51412,note_on,42,0,1,,,,,,,,,0,,,67,127
51412,note_on,37,0,3,,,,,,,,,2,,,67,63
51412,note_on,38,0,2,,,,,,,,,1,,,67,64
51416,note_on,41,0,4,,,,,,,,,3,,,67,64
51416,note_on,40,0,5,,,,,,,,,4,,,55,90
51416,note_on,40,0,8,,,,,,,,,7,,,55,127
51416,note_on,40,0,7,,,,,,,,,6,,,67,127
51545,note_on,133,0,1,,,,,,,,,0,,,67,0
51551,note_on,139,0,2,,,,,,,,,1,,,67,0
51552,note_on,140,0,3,,,,,,,,,2,,,67,0
51552,note_on,136,0,8,,,,,,,,,7,,,55,0
51552,note_on,136,0,7,,,,,,,,,6,,,67,0
51552,note_on,136,0,4,,,,,,,,,3,,,67,0
51553,note_on,137,0,5,,,,,,,,,4,,,55,0
51591,note_on,39,0,4,,,,,,,,,3,,,66,64
51591,note_on,46,0,1,,,,,,,,,0,,,66,127
51591,note_on,39,0,7,,,,,,,,,6,,,66,127
51591,note_on,38,0,5,,,,,,,,,4,,,54,90
51591,note_on,39,0,3,,,,,,,,,2,,,66,66
51591,note_on,40,0,2,,,,,,,,,1,,,66,64
51591,note_on,39,0,8,,,,,,,,,7,,,54,127
51634,note_on,43,0,2,,,,,,,,,1,,,66,0
51636,note_on,45,0,3,,,,,,,,,2,,,66,0
51637,note_on,46,0,4,,,,,,,,,3,,,66,0
51638,note_on,47,0,5,,,,,,,,,4,,,54,0
51640,note_on,49,0,8,,,,,,,,,7,,,54,0
51643,note_on,52,0,7,,,,,,,,,6,,,66,0
51652,note_on,61,0,1,,,,,,,,,0,,,66,0
51678,note_on,41,0,4,,,,,,,,,3,,,64,64
51678,note_on,26,0,1,,,,,,,,,0,,,64,127
51678,note_on,40,0,5,,,,,,,,,4,,,52,90
51678,note_on,44,0,2,,,,,,,,,1,,,64,64
51678,note_on,42,0,3,,,,,,,,,2,,,64,66
51682,note_on,42,0,8,,,,,,,,,7,,,52,127
51682,note_on,39,0,7,,,,,,,,,6,,,64,127
51720,note_on,42,0,3,,,,,,,,,2,,,64,0
51724,note_on,46,0,2,,,,,,,,,1,,,64,0
51724,note_on,46,0,4,,,,,,,,,3,,,64,0
51725,note_on,47,0,5,,,,,,,,,4,,,52,0
51725,note_on,43,0,7,,,,,,,,,6,,,64,0
51727,note_on,45,0,8,,,,,,,,,7,,,52,0
51742,note_on,64,0,1,,,,,,,,,0,,,64,0
51766,note_on,24,0,1,,,,,,,,,0,,,65,127
51767,note_on,47,0,3,,,,,,,,,2,,,65,66
51767,note_on,43,0,2,,,,,,,,,1,,,65,64
51767,note_on,43,0,4,,,,,,,,,3,,,65,64
51767,note_on,42,0,5,,,,,,,,,4,,,53,90
51768,note_on,43,0,7,,,,,,,,,6,,,65,127
51768,note_on,41,0,8,,,,,,,,,7,,,53,127
51900,note_on,134,0,1,,,,,,,,,0,,,65,0
51905,note_on,138,0,4,,,,,,,,,3,,,65,0
51909,note_on,141,0,8,,,,,,,,,7,,,53,0
51909,note_on,141,0,7,,,,,,,,,6,,,65,0
51909,note_on,142,0,5,,,,,,,,,4,,,53,0
51909,note_on,142,0,2,,,,,,,,,1,,,65,0
51909,note_on,142,0,3,,,,,,,,,2,,,65,0
51942,note_on,33,0,2,,,,,,,,,1,,,65,64
51942,note_on,42,0,1,,,,,,,,,0,,,65,127
51943,note_on,34,0,3,,,,,,,,,2,,,65,66
51944,note_on,35,0,5,,,,,,,,,4,,,53,90
51944,note_on,35,0,7,,,,,,,,,6,,,65,127
51944,note_on,39,0,4,,,,,,,,,3,,,65,64
51945,note_on,36,0,8,,,,,,,,,7,,,53,127
52078,note_on,136,0,1,,,,,,,,,0,,,65,0
52084,note_on,142,0,2,,,,,,,,,1,,,65,0
52084,note_on,140,0,4,,,,,,,,,3,,,65,0
52087,note_on,143,0,7,,,,,,,,,6,,,65,0
52087,note_on,142,0,8,,,,,,,,,7,,,53,0
52087,note_on,143,0,5,,,,,,,,,4,,,53,0
52087,note_on,144,0,3,,,,,,,,,2,,,65,0
52120,note_on,42,0,1,,,,,,,,,0,,,65,127
52120,note_on,36,0,2,,,,,,,,,1,,,65,64
52123,note_on,36,0,3,,,,,,,,,2,,,65,66
52123,note_on,36,0,8,,,,,,,,,7,,,53,127
52123,note_on,39,0,4,,,,,,,,,3,,,65,64
52123,note_on,36,0,5,,,,,,,,,4,,,53,90
52123,note_on,36,0,7,,,,,,,,,6,,,65,127
52257,note_on,137,0,1,,,,,,,,,0,,,65,0
52260,note_on,137,0,3,,,,,,,,,2,,,65,0
52260,note_on,137,0,8,,,,,,,,,7,,,53,0
52260,note_on,140,0,2,,,,,,,,,1,,,65,0
52260,note_on,137,0,4,,,,,,,,,3,,,65,0
52265,note_on,142,0,5,,,,,,,,,4,,,53,0
52265,note_on,142,0,7,,,,,,,,,6,,,65,0
52298,note_on,41,0,1,,,,,,,,,0,,,62,127
52298,note_on,38,0,2,,,,,,,,,1,,,62,64
52302,note_on,42,0,4,,,,,,,,,3,,,62,64
52302,note_on,37,0,7,,,,,,,,,6,,,62,127
52302,note_on,37,0,5,,,,,,,,,4,,,50,90
52302,note_on,42,0,3,,,,,,,,,2,,,62,66
52302,note_on,42,0,8,,,,,,,,,7,,,50,127
52432,note_on,134,0,1,,,,,,,,,0,,,62,0
52438,note_on,140,0,2,,,,,,,,,1,,,62,0
52439,note_on,137,0,4,,,,,,,,,3,,,62,0
52439,note_on,137,0,3,,,,,,,,,2,,,62,0
52439,note_on,137,0,8,,,,,,,,,7,,,50,0
52440,note_on,138,0,5,,,,,,,,,4,,,50,0
52440,note_on,138,0,7,,,,,,,,,6,,,62,0
52475,note_on,43,0,1,,,,,,,,,0,,,64,127
52475,note_on,37,0,2,,,,,,,,,1,,,64,64
52479,note_on,40,0,4,,,,,,,,,3,,,64,64
52479,note_on,39,0,5,,,,,,,,,4,,,52,90
52479,note_on,40,0,8,,,,,,,,,7,,,52,127
52479,note_on,39,0,7,,,,,,,,,6,,,64,127
52479,note_on,40,0,3,,,,,,,,,2,,,64,66
52521,note_on,46,0,2,,,,,,,,,1,,,64,0
52523,note_on,44,0,4,,,,,,,,,3,,,64,0
52523,note_on,44,0,3,,,,,,,,,2,,,64,0
52524,note_on,45,0,5,,,,,,,,,4,,,52,0
52528,note_on,49,0,8,,,,,,,,,7,,,52,0
52530,note_on,51,0,7,,,,,,,,,6,,,64,0
52539,note_on,64,0,1,,,,,,,,,0,,,64,0
52561,note_on,22,0,1,,,,,,,,,0,,,66,127
52562,note_on,41,0,2,,,,,,,,,1,,,66,64
52562,note_on,39,0,3,,,,,,,,,2,,,66,66
52563,note_on,40,0,4,,,,,,,,,3,,,66,64
52564,note_on,40,0,5,,,,,,,,,4,,,54,90
52564,note_on,36,0,8,,,,,,,,,7,,,54,127
52564,note_on,34,0,7,,,,,,,,,6,,,66,127
52612,note_on,49,0,4,,,,,,,,,3,,,66,0
52612,note_on,50,0,3,,,,,,,,,2,,,66,0
52613,note_on,51,0,2,,,,,,,,,1,,,66,0
52614,note_on,50,0,7,,,,,,,,,6,,,66,0
52614,note_on,50,0,8,,,,,,,,,7,,,54,0
52614,note_on,50,0,5,,,,,,,,,4,,,54,0
52626,note_on,65,0,1,,,,,,,,,0,,,66,0
52651,note_on,25,0,1,,,,,,,,,0,,,68,127
52652,note_on,40,0,3,,,,,,,,,2,,,68,66
52652,note_on,39,0,2,,,,,,,,,1,,,68,64
52652,note_on,40,0,4,,,,,,,,,3,,,68,64
52653,note_on,39,0,5,,,,,,,,,4,,,56,90
52654,note_on,40,0,7,,,,,,,,,6,,,68,127
52654,note_on,40,0,8,,,,,,,,,7,,,56,127
52700,note_on,48,0,2,,,,,,,,,1,,,68,0
52700,note_on,48,0,3,,,,,,,,,2,,,68,0
52701,note_on,49,0,4,,,,,,,,,3,,,68,0
52702,note_on,49,0,5,,,,,,,,,4,,,56,0
52704,note_on,50,0,8,,,,,,,,,7,,,56,0
52707,note_on,53,0,7,,,,,,,,,6,,,68,0
52715,note_on,64,0,1,,,,,,,,,0,,,68,0
52740,note_on,25,0,1,,,,,,,,,0,,,69,127
52740,note_on,40,0,2,,,,,,,,,1,,,69,64
52742,note_on,41,0,4,,,,,,,,,3,,,69,64
52742,note_on,42,0,3,,,,,,,,,2,,,69,66
52743,note_on,41,0,5,,,,,,,,,4,,,57,90
52743,note_on,36,0,7,,,,,,,,,6,,,69,127
52743,note_on,39,0,8,,,,,,,,,7,,,57,127
52787,note_on,47,0,2,,,,,,,,,1,,,69,0
52788,note_on,46,0,4,,,,,,,,,3,,,69,0
52788,note_on,46,0,3,,,,,,,,,2,,,69,0
52790,note_on,47,0,7,,,,,,,,,6,,,69,0
52790,note_on,47,0,5,,,,,,,,,4,,,57,0
52792,note_on,49,0,8,,,,,,,,,7,,,57,0
52806,note_on,66,0,1,,,,,,,,,0,,,69,0
52828,note_on,22,0,1,,,,,,,,,0,,,71,127
52831,note_on,43,0,4,,,,,,,,,3,,,71,64
52831,note_on,43,0,3,,,,,,,,,2,,,71,66
52831,note_on,44,0,2,,,,,,,,,1,,,71,64
52833,note_on,43,0,5,,,,,,,,,4,,,59,90
52833,note_on,43,0,7,,,,,,,,,6,,,71,127
52834,note_on,42,0,8,,,,,,,,,7,,,59,127
52964,note_on,136,0,1,,,,,,,,,0,,,71,0
52970,note_on,139,0,2,,,,,,,,,1,,,71,0
52970,note_on,139,0,4,,,,,,,,,3,,,71,0
52971,note_on,140,0,3,,,,,,,,,2,,,71,0
52971,note_on,138,0,7,,,,,,,,,6,,,71,0
52972,note_on,139,0,5,,,,,,,,,4,,,59,0
52972,note_on,138,0,8,,,,,,,,,7,,,59,0
53008,note_on,37,0,3,,,,,,,,,2,,,59,66
53008,note_on,38,0,2,,,,,,,,,1,,,59,64
53008,note_on,44,0,1,,,,,,,,,0,,,59,127
53011,note_on,41,0,4,,,,,,,,,3,,,59,64
53011,note_on,39,0,5,,,,,,,,,4,,,47,90
53011,note_on,40,0,7,,,,,,,,,6,,,59,127
53011,note_on,39,0,8,,,,,,,,,7,,,47,127
53143,note_on,135,0,1,,,,,,,,,0,,,59,0
53145,note_on,137,0,2,,,,,,,,,1,,,59,0
53145,note_on,134,0,4,,,,,,,,,3,,,59,0
53146,note_on,138,0,3,,,,,,,,,2,,,59,0
53147,note_on,136,0,8,,,,,,,,,7,,,47,0
53151,note_on,140,0,7,,,,,,,,,6,,,59,0
53151,note_on,140,0,5,,,,,,,,,4,,,47,0
53186,note_on,41,0,4,,,,,,,,,3,,,64,64
53186,note_on,35,0,5,,,,,,,,,4,,,52,90
53186,note_on,40,0,3,,,,,,,,,2,,,64,66
53186,note_on,43,0,1,,,,,,,,,0,,,64,127
53186,note_on,41,0,2,,,,,,,,,1,,,64,64
53189,note_on,42,0,8,,,,,,,,,7,,,52,127
53189,note_on,38,0,7,,,,,,,,,6,,,64,127
53321,note_on,135,0,1,,,,,,,,,0,,,64,0
53362,note_on,41,0,1,,,,,,,,,0,,,76,127
53425,note_on,63,0,1,,,,,,,,,0,,,76,0
53450,note_on,25,0,1,,,,,,,,,0,,,78,127
53513,note_on,63,0,1,,,,,,,,,0,,,78,0
53517,note_on,331,0,2,,,,,,,,,1,,,64,0
53540,note_on,27,0,1,,,,,,,,,0,,,80,127
53541,note_on,355,0,5,,,,,,,,,4,,,52,0
53541,note_on,355,0,4,,,,,,,,,3,,,64,0
53541,note_on,352,0,7,,,,,,,,,6,,,64,0
53541,note_on,352,0,8,,,,,,,,,7,,,52,0
53541,note_on,355,0,3,,,,,,,,,2,,,64,0
53601,note_on,61,0,1,,,,,,,,,0,,,80,0
53627,note_on,26,0,1,,,,,,,,,0,,,76,127
53690,note_on,63,0,1,,,,,,,,,0,,,76,0
53716,note_on,26,0,1,,,,,,,,,0,,,83,127
53780,note_on,64,0,1,,,,,,,,,0,,,83,0
53804,note_on,24,0,1,,,,,,,,,0,,,76,127
53869,note_on,65,0,1,,,,,,,,,0,,,76,0
53894,note_on,25,0,1,,,,,,,,,0,,,78,127
53894,note_on,353,0,7,,,,,,,,,6,,,66,127
53894,note_on,0,0,7,,,,,,,,,6,,,63,127
53894,note_on,0,0,7,,,,,,,,,6,,,59,127
53897,program_change,0,0,5,,,,,,,,42,4,,,,
53897,note_on,356,0,8,,,,,,,,,7,,,47,127
53897,note_on,356,0,5,,,,,,,,,4,,,47,90
54028,note_on,134,0,1,,,,,,,,,0,,,78,0
54070,note_on,42,0,1,,,,,,,,,0,,,71,127
54133,note_on,63,0,1,,,,,,,,,0,,,71,0
54159,note_on,26,0,1,,,,,,,,,0,,,73,127
54221,note_on,62,0,1,,,,,,,,,0,,,73,0
54247,note_on,350,0,5,,,,,,,,,4,,,47,0
54247,note_on,26,0,1,,,,,,,,,0,,,75,127
54247,note_on,353,0,7,,,,,,,,,6,,,59,0
54250,note_on,3,0,7,,,,,,,,,6,,,63,0
54250,note_on,353,0,8,,,,,,,,,7,,,47,0
54250,note_on,0,0,7,,,,,,,,,6,,,66,0
54311,note_on,64,0,1,,,,,,,,,0,,,75,0
54336,note_on,25,0,1,,,,,,,,,0,,,71,127
54401,note_on,65,0,1,,,,,,,,,0,,,71,0
54425,note_on,24,0,1,,,,,,,,,0,,,81,127
54490,note_on,65,0,1,,,,,,,,,0,,,81,0
54513,note_on,23,0,1,,,,,,,,,0,,,78,127
54577,note_on,64,0,1,,,,,,,,,0,,,78,0
54603,note_on,0,0,7,,,,,,,,,6,,,59,127
54603,note_on,353,0,8,,,,,,,,,7,,,52,127
54603,note_on,26,0,1,,,,,,,,,0,,,80,127
54603,note_on,353,0,7,,,,,,,,,6,,,68,127
54603,note_on,356,0,5,,,,,,,,,4,,,52,90
54603,note_on,0,0,7,,,,,,,,,6,,,64,127
54739,note_on,136,0,1,,,,,,,,,0,,,80,0
54779,note_on,40,0,1,,,,,,,,,0,,,76,127
54843,note_on,64,0,1,,,,,,,,,0,,,76,0
54868,note_on,25,0,1,,,,,,,,,0,,,78,127
54931,note_on,63,0,1,,,,,,,,,0,,,78,0
54957,note_on,354,0,5,,,,,,,,,4,,,52,0
54957,note_on,26,0,1,,,,,,,,,0,,,80,127
54960,note_on,0,0,7,,,,,,,,,6,,,68,0
54960,note_on,357,0,8,,,,,,,,,7,,,52,0
54960,note_on,0,0,7,,,,,,,,,6,,,64,0
54960,note_on,357,0,7,,,,,,,,,6,,,59,0
55020,note_on,63,0,1,,,,,,,,,0,,,80,0
55045,note_on,25,0,1,,,,,,,,,0,,,76,127
55109,note_on,64,0,1,,,,,,,,,0,,,76,0
55133,note_on,24,0,1,,,,,,,,,0,,,81,127
55199,note_on,66,0,1,,,,,,,,,0,,,81,0
55222,note_on,23,0,1,,,,,,,,,0,,,80,127
55286,note_on,64,0,1,,,,,,,,,0,,,80,0
55311,note_on,25,0,1,,,,,,,,,0,,,78,127
55312,note_on,355,0,5,,,,,,,,,4,,,59,90
55313,note_on,0,0,7,,,,,,,,,6,,,63,127
55313,note_on,353,0,8,,,,,,,,,7,,,59,127
55313,note_on,353,0,7,,,,,,,,,6,,,66,127
55626,note_on,315,0,1,,,,,,,,,0,,,78,0
55633,note_on,320,0,8,,,,,,,,,7,,,59,0
55633,note_on,320,0,7,,,,,,,,,6,,,63,0
55633,note_on,0,0,7,,,,,,,,,6,,,66,0
55633,note_on,321,0,5,,,,,,,,,4,,,59,0
55666,note_on,40,0,1,,,,,,,,,0,,,71,127
55666,note_on,33,0,5,,,,,,,,,4,,,47,90
55666,note_on,33,0,8,,,,,,,,,7,,,47,127
55666,note_on,33,0,7,,,,,,,,,6,,,59,127
55979,note_on,313,0,1,,,,,,,,,0,,,71,0
55983,note_on,317,0,5,,,,,,,,,4,,,47,0
55983,note_on,317,0,8,,,,,,,,,7,,,47,0
55983,note_on,317,0,7,,,,,,,,,6,,,59,0
56021,note_on,38,0,8,,,,,,,,,7,,,52,127
56021,note_on,42,0,1,,,,,,,,,0,,,64,127
56021,note_on,38,0,7,,,,,,,,,6,,,64,127
56021,note_on,38,0,5,,,,,,,,,4,,,52,90
56156,note_on,135,0,1,,,,,,,,,0,,,64,0
56196,note_on,40,0,1,,,,,,,,,0,,,76,127
56262,note_on,66,0,1,,,,,,,,,0,,,76,0
56285,note_on,23,0,1,,,,,,,,,0,,,78,127
56351,note_on,66,0,1,,,,,,,,,0,,,78,0
56375,note_on,354,0,5,,,,,,,,,4,,,52,0
56375,note_on,354,0,7,,,,,,,,,6,,,64,0
56375,note_on,354,0,8,,,,,,,,,7,,,52,0
56375,note_on,24,0,1,,,,,,,,,0,,,80,127
56439,note_on,64,0,1,,,,,,,,,0,,,80,0
56463,note_on,24,0,1,,,,,,,,,0,,,76,127
56526,note_on,63,0,1,,,,,,,,,0,,,76,0
56552,note_on,26,0,1,,,,,,,,,0,,,83,127
56615,note_on,63,0,1,,,,,,,,,0,,,83,0
56642,note_on,27,0,1,,,,,,,,,0,,,76,127
56704,note_on,62,0,1,,,,,,,,,0,,,76,0
56729,note_on,25,0,1,,,,,,,,,0,,,78,127
56729,note_on,354,0,5,,,,,,,,,4,,,47,90
56732,note_on,0,0,7,,,,,,,,,6,,,59,127
56732,note_on,0,0,7,,,,,,,,,6,,,63,127
56732,note_on,357,0,7,,,,,,,,,6,,,66,127
56733,note_on,358,0,8,,,,,,,,,7,,,47,127
56865,note_on,136,0,1,,,,,,,,,0,,,78,0
56906,note_on,41,0,1,,,,,,,,,0,,,71,127
56971,note_on,65,0,1,,,,,,,,,0,,,71,0
56994,note_on,23,0,1,,,,,,,,,0,,,73,127
57060,note_on,66,0,1,,,,,,,,,0,,,73,0
57085,note_on,353,0,7,,,,,,,,,6,,,59,0
57085,note_on,0,0,7,,,,,,,,,6,,,63,0
57085,note_on,356,0,5,,,,,,,,,4,,,47,0
57085,note_on,352,0,8,,,,,,,,,7,,,47,0
57085,note_on,25,0,1,,,,,,,,,0,,,75,127
57086,note_on,1,0,7,,,,,,,,,6,,,66,0
57148,note_on,63,0,1,,,,,,,,,0,,,75,0
57172,note_on,24,0,1,,,,,,,,,0,,,71,127
57237,note_on,65,0,1,,,,,,,,,0,,,71,0
57261,note_on,24,0,1,,,,,,,,,0,,,81,127
57325,note_on,64,0,1,,,,,,,,,0,,,81,0
57349,note_on,24,0,1,,,,,,,,,0,,,78,127
57414,note_on,65,0,1,,,,,,,,,0,,,78,0
57439,note_on,354,0,8,,,,,,,,,7,,,52,127
57439,note_on,25,0,1,,,,,,,,,0,,,80,127
57439,note_on,354,0,5,,,,,,,,,4,,,52,90
57439,note_on,0,0,7,,,,,,,,,6,,,59,127
57439,note_on,0,0,7,,,,,,,,,6,,,64,127
57439,note_on,353,0,7,,,,,,,,,6,,,68,127
57575,note_on,136,0,1,,,,,,,,,0,,,80,0
57616,note_on,41,0,1,,,,,,,,,0,,,76,127
57677,note_on,61,0,1,,,,,,,,,0,,,76,0
57705,note_on,28,0,1,,,,,,,,,0,,,78,127
57768,note_on,63,0,1,,,,,,,,,0,,,78,0
57790,note_on,22,0,1,,,,,,,,,0,,,80,127
57792,note_on,353,0,7,,,,,,,,,6,,,59,0
57792,note_on,353,0,8,,,,,,,,,7,,,52,0
57792,note_on,353,0,5,,,,,,,,,4,,,52,0
57793,note_on,1,0,7,,,,,,,,,6,,,64,0
57793,note_on,0,0,7,,,,,,,,,6,,,68,0
57856,note_on,66,0,1,,,,,,,,,0,,,80,0
57881,note_on,25,0,1,,,,,,,,,0,,,76,127
57946,note_on,65,0,1,,,,,,,,,0,,,76,0
57969,note_on,23,0,1,,,,,,,,,0,,,81,127
58035,note_on,66,0,1,,,,,,,,,0,,,81,0
58058,note_on,23,0,1,,,,,,,,,0,,,80,127
58122,note_on,64,0,1,,,,,,,,,0,,,80,0
58146,note_on,24,0,1,,,,,,,,,0,,,78,127
58147,note_on,355,0,5,,,,,,,,,4,,,47,90
58148,note_on,0,0,7,,,,,,,,,6,,,59,127
58148,note_on,355,0,7,,,,,,,,,6,,,63,127
58148,note_on,356,0,8,,,,,,,,,7,,,47,127
58294,note_on,146,0,8,,,,,,,,,7,,,47,0
58294,note_on,147,0,5,,,,,,,,,4,,,47,0
58322,note_on,174,0,7,,,,,,,,,6,,,63,0
58326,note_on,32,0,5,,,,,,,,,4,,,49,90
58326,note_on,4,0,7,,,,,,,,,6,,,64,127
58326,note_on,32,0,8,,,,,,,,,7,,,49,127
58459,note_on,133,0,5,,,,,,,,,4,,,49,0
58463,note_on,137,0,8,,,,,,,,,7,,,49,0
58477,note_on,331,0,1,,,,,,,,,0,,,78,0
58500,note_on,174,0,7,,,,,,,,,6,,,64,0
58503,note_on,3,0,7,,,,,,,,,6,,,66,127
58503,note_on,44,0,5,,,,,,,,,4,,,51,90
58504,note_on,41,0,8,,,,,,,,,7,,,51,127
58641,note_on,138,0,5,,,,,,,,,4,,,51,0
58642,note_on,138,0,8,,,,,,,,,7,,,51,0
58679,note_on,38,0,5,,,,,,,,,4,,,47,90
58679,note_on,37,0,8,,,,,,,,,7,,,47,127
58814,note_on,135,0,5,,,,,,,,,4,,,47,0
58819,note_on,316,0,7,,,,,,,,,6,,,66,0
58821,note_on,142,0,8,,,,,,,,,7,,,47,0
58858,note_on,381,0,1,,,,,,,,,0,,,83,127
58858,note_on,44,0,5,,,,,,,,,4,,,52,90
58858,note_on,0,0,7,,,,,,,,,6,,,59,127
58858,note_on,0,0,7,,,,,,,,,6,,,64,127
58858,note_on,39,0,7,,,,,,,,,6,,,59,0
58860,note_on,2,0,7,,,,,,,,,6,,,68,127
58860,note_on,39,0,8,,,,,,,,,7,,,52,127
58991,note_on,133,0,1,,,,,,,,,0,,,83,0
59033,note_on,42,0,1,,,,,,,,,0,,,76,127
59097,note_on,64,0,1,,,,,,,,,0,,,76,0
59123,note_on,26,0,1,,,,,,,,,0,,,78,127
59188,note_on,65,0,1,,,,,,,,,0,,,78,0
59211,note_on,23,0,1,,,,,,,,,0,,,80,127
59212,note_on,352,0,7,,,,,,,,,6,,,59,0
59212,note_on,354,0,5,,,,,,,,,4,,,52,0
59212,note_on,352,0,8,,,,,,,,,7,,,52,0
59213,note_on,0,0,7,,,,,,,,,6,,,64,0
59213,note_on,1,0,7,,,,,,,,,6,,,68,0
59276,note_on,65,0,1,,,,,,,,,0,,,80,0
59296,note_on,20,0,1,,,,,,,,,0,,,76,127
59362,note_on,66,0,1,,,,,,,,,0,,,76,0
59388,note_on,26,0,1,,,,,,,,,0,,,88,127
59453,note_on,65,0,1,,,,,,,,,0,,,88,0
59476,note_on,23,0,1,,,,,,,,,0,,,83,127
59539,note_on,63,0,1,,,,,,,,,0,,,83,0
59566,note_on,354,0,5,,,,,,,,,4,,,52,90
59566,note_on,353,0,7,,,,,,,,,6,,,68,127
59566,note_on,0,0,7,,,,,,,,,6,,,64,127
59566,note_on,27,0,1,,,,,,,,,0,,,80,127
59569,note_on,3,0,7,,,,,,,,,6,,,71,127
59569,note_on,357,0,8,,,,,,,,,7,,,52,127
59702,note_on,136,0,1,,,,,,,,,0,,,80,0
59743,note_on,41,0,1,,,,,,,,,0,,,76,127
59806,note_on,63,0,1,,,,,,,,,0,,,76,0
59831,note_on,25,0,1,,,,,,,,,0,,,78,127
59894,note_on,63,0,1,,,,,,,,,0,,,78,0
59920,note_on,26,0,1,,,,,,,,,0,,,80,127
59920,note_on,351,0,7,,,,,,,,,6,,,64,0
59920,note_on,354,0,5,,,,,,,,,4,,,52,0
59921,note_on,0,0,7,,,,,,,,,6,,,68,0
59921,note_on,1,0,7,,,,,,,,,6,,,71,0
59921,note_on,352,0,8,,,,,,,,,7,,,52,0
59983,note_on,63,0,1,,,,,,,,,0,,,80,0
60009,note_on,26,0,1,,,,,,,,,0,,,76,127
60074,note_on,65,0,1,,,,,,,,,0,,,76,0
60096,note_on,22,0,1,,,,,,,,,0,,,86,127
60161,note_on,65,0,1,,,,,,,,,0,,,86,0
60185,note_on,24,0,1,,,,,,,,,0,,,83,127
60250,note_on,65,0,1,,,,,,,,,0,,,83,0
60275,note_on,25,0,1,,,,,,,,,0,,,85,127
60275,note_on,354,0,7,,,,,,,,,6,,,61,127
60275,note_on,355,0,5,,,,,,,,,4,,,45,90
60276,note_on,0,0,7,,,,,,,,,6,,,64,127
60276,note_on,355,0,8,,,,,,,,,7,,,45,127
60276,note_on,1,0,7,,,,,,,,,6,,,69,127
60410,note_on,135,0,1,,,,,,,,,0,,,85,0
60451,note_on,41,0,1,,,,,,,,,0,,,69,127
60516,note_on,65,0,1,,,,,,,,,0,,,69,0
60540,note_on,24,0,1,,,,,,,,,0,,,71,127
60605,note_on,65,0,1,,,,,,,,,0,,,71,0
60631,note_on,0,0,7,,,,,,,,,6,,,69,0
60631,note_on,26,0,1,,,,,,,,,0,,,73,127
60631,note_on,355,0,8,,,,,,,,,7,,,45,0
60631,note_on,0,0,7,,,,,,,,,6,,,61,0
60631,note_on,356,0,5,,,,,,,,,4,,,45,0
60631,note_on,355,0,7,,,,,,,,,6,,,64,0
60694,note_on,63,0,1,,,,,,,,,0,,,73,0
60718,note_on,24,0,1,,,,,,,,,0,,,69,127
60782,note_on,64,0,1,,,,,,,,,0,,,69,0
60806,note_on,24,0,1,,,,,,,,,0,,,81,127
60870,note_on,64,0,1,,,,,,,,,0,,,81,0
60894,note_on,24,0,1,,,,,,,,,0,,,76,127
60959,note_on,65,0,1,,,,,,,,,0,,,76,0
60985,note_on,354,0,5,,,,,,,,,4,,,45,90
60985,note_on,26,0,1,,,,,,,,,0,,,73,127
60985,note_on,354,0,7,,,,,,,,,6,,,64,127
60985,note_on,0,0,7,,,,,,,,,6,,,61,127
60985,note_on,354,0,8,,,,,,,,,7,,,45,127
61121,note_on,136,0,1,,,,,,,,,0,,,73,0
61161,note_on,40,0,1,,,,,,,,,0,,,69,127
61222,note_on,61,0,1,,,,,,,,,0,,,69,0
61248,note_on,26,0,1,,,,,,,,,0,,,71,127
61313,note_on,65,0,1,,,,,,,,,0,,,71,0
61340,note_on,355,0,8,,,,,,,,,7,,,45,0
61340,note_on,355,0,5,,,,,,,,,4,,,45,0
61340,note_on,0,0,7,,,,,,,,,6,,,64,0
61340,note_on,355,0,7,,,,,,,,,6,,,61,0
61340,note_on,27,0,1,,,,,,,,,0,,,73,127
61400,note_on,60,0,1,,,,,,,,,0,,,73,0
61426,note_on,26,0,1,,,,,,,,,0,,,69,127
61489,note_on,63,0,1,,,,,,,,,0,,,69,0
61516,note_on,27,0,1,,,,,,,,,0,,,79,127
61580,note_on,64,0,1,,,,,,,,,0,,,79,0
61604,note_on,24,0,1,,,,,,,,,0,,,76,127
61669,note_on,65,0,1,,,,,,,,,0,,,76,0
61692,note_on,23,0,1,,,,,,,,,0,,,78,127
61693,note_on,353,0,8,,,,,,,,,7,,,46,127
61693,note_on,0,0,7,,,,,,,,,6,,,61,127
61693,note_on,353,0,5,,,,,,,,,4,,,46,90
61693,note_on,0,0,7,,,,,,,,,6,,,66,127
61693,note_on,353,0,7,,,,,,,,,6,,,73,127
61830,note_on,138,0,1,,,,,,,,,0,,,78,0
61870,note_on,40,0,1,,,,,,,,,0,,,78,127
61934,note_on,64,0,1,,,,,,,,,0,,,78,0
61958,note_on,24,0,1,,,,,,,,,0,,,80,127
62024,note_on,66,0,1,,,,,,,,,0,,,80,0
62050,note_on,357,0,5,,,,,,,,,4,,,46,0
62050,note_on,26,0,1,,,,,,,,,0,,,82,127
62050,note_on,0,0,7,,,,,,,,,6,,,73,0
62050,note_on,0,0,7,,,,,,,,,6,,,66,0
62050,note_on,357,0,7,,,,,,,,,6,,,61,0
62050,note_on,357,0,8,,,,,,,,,7,,,46,0
62111,note_on,61,0,1,,,,,,,,,0,,,82,0
62135,note_on,24,0,1,,,,,,,,,0,,,78,127
62201,note_on,66,0,1,,,,,,,,,0,,,78,0
62224,note_on,23,0,1,,,,,,,,,0,,,90,127
62287,note_on,63,0,1,,,,,,,,,0,,,90,0
62313,note_on,26,0,1,,,,,,,,,0,,,85,127
62376,note_on,63,0,1,,,,,,,,,0,,,85,0
62405,note_on,355,0,8,,,,,,,,,7,,,54,127
62405,note_on,29,0,1,,,,,,,,,0,,,82,127
62405,note_on,355,0,7,,,,,,,,,6,,,70,127
62405,note_on,0,0,7,,,,,,,,,6,,,66,127
62405,note_on,0,0,7,,,,,,,,,6,,,61,127
62405,note_on,355,0,5,,,,,,,,,4,,,54,90
62535,note_on,130,0,1,,,,,,,,,0,,,82,0
62578,note_on,43,0,1,,,,,,,,,0,,,78,127
62642,note_on,64,0,1,,,,,,,,,0,,,78,0
62666,note_on,24,0,1,,,,,,,,,0,,,80,127
62732,note_on,66,0,1,,,,,,,,,0,,,80,0
62757,note_on,25,0,1,,,,,,,,,0,,,82,127
62757,note_on,352,0,7,,,,,,,,,6,,,61,0
62757,note_on,352,0,5,,,,,,,,,4,,,54,0
62757,note_on,352,0,8,,,,,,,,,7,,,54,0
62758,note_on,1,0,7,,,,,,,,,6,,,66,0
62758,note_on,0,0,7,,,,,,,,,6,,,70,0
62821,note_on,64,0,1,,,,,,,,,0,,,82,0
62845,note_on,24,0,1,,,,,,,,,0,,,78,127
62909,note_on,64,0,1,,,,,,,,,0,,,78,0
62933,note_on,24,0,1,,,,,,,,,0,,,88,127
62996,note_on,63,0,1,,,,,,,,,0,,,88,0
63022,note_on,26,0,1,,,,,,,,,0,,,85,127
63084,note_on,62,0,1,,,,,,,,,0,,,85,0
63111,note_on,354,0,5,,,,,,,,,4,,,47,90
63111,note_on,27,0,1,,,,,,,,,0,,,87,127
63113,note_on,0,0,7,,,,,,,,,6,,,66,127
63113,note_on,355,0,7,,,,,,,,,6,,,71,127
63113,note_on,356,0,8,,,,,,,,,7,,,47,127
63113,note_on,0,0,7,,,,,,,,,6,,,63,127
63245,note_on,134,0,1,,,,,,,,,0,,,87,0
63288,note_on,43,0,1,,,,,,,,,0,,,71,127
63353,note_on,65,0,1,,,,,,,,,0,,,71,0
63376,note_on,23,0,1,,,,,,,,,0,,,73,127
63442,note_on,66,0,1,,,,,,,,,0,,,73,0
63465,note_on,23,0,1,,,,,,,,,0,,,75,127
63466,note_on,355,0,5,,,,,,,,,4,,,47,0
63468,note_on,355,0,8,,,,,,,,,7,,,47,0
63468,note_on,355,0,7,,,,,,,,,6,,,63,0
63468,note_on,0,0,7,,,,,,,,,6,,,66,0
63468,note_on,0,0,7,,,,,,,,,6,,,71,0
63529,note_on,64,0,1,,,,,,,,,0,,,75,0
63554,note_on,25,0,1,,,,,,,,,0,,,71,127
63617,note_on,63,0,1,,,,,,,,,0,,,71,0
63643,note_on,26,0,1,,,,,,,,,0,,,83,127
63707,note_on,64,0,1,,,,,,,,,0,,,83,0
63730,note_on,23,0,1,,,,,,,,,0,,,78,127
63796,note_on,66,0,1,,,,,,,,,0,,,78,0
63820,note_on,24,0,1,,,,,,,,,0,,,75,127
63823,note_on,0,0,7,,,,,,,,,6,,,63,127
63823,note_on,0,0,7,,,,,,,,,6,,,59,127
63823,note_on,357,0,5,,,,,,,,,4,,,47,90
63823,note_on,355,0,7,,,,,,,,,6,,,66,127
63823,note_on,355,0,8,,,,,,,,,7,,,47,127
63955,note_on,135,0,1,,,,,,,,,0,,,75,0
63996,note_on,41,0,1,,,,,,,,,0,,,71,127
64061,note_on,65,0,1,,,,,,,,,0,,,71,0
64086,note_on,25,0,1,,,,,,,,,0,,,73,127
64149,note_on,63,0,1,,,,,,,,,0,,,73,0
64174,note_on,25,0,1,,,,,,,,,0,,,75,127
64174,note_on,351,0,5,,,,,,,,,4,,,47,0
64179,note_on,0,0,7,,,,,,,,,6,,,66,0
64179,note_on,0,0,7,,,,,,,,,6,,,63,0
64179,note_on,356,0,8,,,,,,,,,7,,,47,0
64179,note_on,356,0,7,,,,,,,,,6,,,59,0
64237,note_on,63,0,1,,,,,,,,,0,,,75,0
64263,note_on,26,0,1,,,,,,,,,0,,,71,127
64328,note_on,65,0,1,,,,,,,,,0,,,71,0
64352,note_on,24,0,1,,,,,,,,,0,,,81,127
64415,note_on,63,0,1,,,,,,,,,0,,,81,0
64440,note_on,25,0,1,,,,,,,,,0,,,78,127
64505,note_on,65,0,1,,,,,,,,,0,,,78,0
64528,note_on,354,0,5,,,,,,,,,4,,,48,90
64528,note_on,23,0,1,,,,,,,,,0,,,80,127
64529,note_on,350,0,8,,,,,,,,,7,,,48,127
64529,note_on,350,0,7,,,,,,,,,6,,,68,127
64529,note_on,0,0,7,,,,,,,,,6,,,63,127
64661,note_on,133,0,1,,,,,,,,,0,,,80,0
64707,note_on,46,0,1,,,,,,,,,0,,,80,127
64770,note_on,63,0,1,,,,,,,,,0,,,80,0
64795,note_on,25,0,1,,,,,,,,,0,,,82,127
64859,note_on,64,0,1,,,,,,,,,0,,,82,0
64884,note_on,356,0,5,,,,,,,,,4,,,48,0
64884,note_on,25,0,1,,,,,,,,,0,,,84,127
64886,note_on,357,0,8,,,,,,,,,7,,,48,0
64886,note_on,357,0,7,,,,,,,,,6,,,63,0
64886,note_on,0,0,7,,,,,,,,,6,,,68,0
64945,note_on,61,0,1,,,,,,,,,0,,,84,0
64972,note_on,27,0,1,,,,,,,,,0,,,80,127
65035,note_on,63,0,1,,,,,,,,,0,,,80,0
65061,note_on,26,0,1,,,,,,,,,0,,,92,127
65122,note_on,61,0,1,,,,,,,,,0,,,92,0
65148,note_on,26,0,1,,,,,,,,,0,,,87,127
65214,note_on,66,0,1,,,,,,,,,0,,,87,0
65239,note_on,25,0,1,,,,,,,,,0,,,84,127
65239,note_on,0,0,7,,,,,,,,,6,,,68,127
65239,note_on,0,0,7,,,,,,,,,6,,,63,127
65239,note_on,355,0,5,,,,,,,,,4,,,56,90
65239,note_on,353,0,8,,,,,,,,,7,,,56,127
65239,note_on,353,0,7,,,,,,,,,6,,,72,127
65366,note_on,127,0,1,,,,,,,,,0,,,84,0
65415,note_on,49,0,1,,,,,,,,,0,,,80,127
65481,note_on,66,0,1,,,,,,,,,0,,,80,0
65502,note_on,21,0,1,,,,,,,,,0,,,82,127
65569,note_on,67,0,1,,,,,,,,,0,,,82,0
65594,note_on,355,0,5,,,,,,,,,4,,,56,0
65594,note_on,355,0,7,,,,,,,,,6,,,63,0
65594,note_on,25,0,1,,,,,,,,,0,,,84,127
65596,note_on,357,0,8,,,,,,,,,7,,,56,0
65597,note_on,0,0,7,,,,,,,,,6,,,72,0
65597,note_on,3,0,7,,,,,,,,,6,,,68,0
65656,note_on,62,0,1,,,,,,,,,0,,,84,0
65681,note_on,25,0,1,,,,,,,,,0,,,80,127
65746,note_on,65,0,1,,,,,,,,,0,,,80,0
65770,note_on,24,0,1,,,,,,,,,0,,,90,127
65832,note_on,62,0,1,,,,,,,,,0,,,90,0
65858,note_on,26,0,1,,,,,,,,,0,,,87,127
65922,note_on,64,0,1,,,,,,,,,0,,,87,0
65948,note_on,26,0,1,,,,,,,,,0,,,88,127
65949,note_on,355,0,5,,,,,,,,,4,,,61,90
65950,note_on,353,0,7,,,,,,,,,6,,,73,127
65950,note_on,354,0,8,,,,,,,,,7,,,61,127
65950,note_on,0,0,7,,,,,,,,,6,,,68,127
65950,note_on,0,0,7,,,,,,,,,6,,,64,127
66011,note_on,63,0,1,,,,,,,,,0,,,88,0
66037,note_on,26,0,1,,,,,,,,,0,,,90,127
66099,note_on,62,0,1,,,,,,,,,0,,,90,0
66124,note_on,25,0,1,,,,,,,,,0,,,92,127
66189,note_on,65,0,1,,,,,,,,,0,,,92,0
66213,note_on,24,0,1,,,,,,,,,0,,,88,127
66252,note_on,302,0,8,,,,,,,,,7,,,61,0
66257,note_on,308,0,5,,,,,,,,,4,,,61,0
66278,note_on,65,0,1,,,,,,,,,0,,,88,0
66301,note_on,23,0,1,,,,,,,,,0,,,85,127
66302,note_on,45,0,5,,,,,,,,,4,,,49,90
66303,note_on,51,0,8,,,,,,,,,7,,,49,127
66367,note_on,66,0,1,,,,,,,,,0,,,85,0
66390,note_on,23,0,1,,,,,,,,,0,,,88,127
66454,note_on,64,0,1,,,,,,,,,0,,,88,0
66478,note_on,24,0,1,,,,,,,,,0,,,92,127
66544,note_on,66,0,1,,,,,,,,,0,,,92,0
66567,note_on,23,0,1,,,,,,,,,0,,,88,127
66610,note_on,308,0,5,,,,,,,,,4,,,49,0
66610,note_on,660,0,7,,,,,,,,,6,,,68,0
66610,note_on,307,0,8,,,,,,,,,7,,,49,0
66612,note_on,2,0,7,,,,,,,,,6,,,73,0
66614,note_on,2,0,7,,,,,,,,,6,,,64,0
66630,note_on,63,0,1,,,,,,,,,0,,,88,0
66659,note_on,45,0,7,,,,,,,,,6,,,75,127
66659,note_on,49,0,8,,,,,,,,,7,,,59,127
66659,note_on,29,0,1,,,,,,,,,0,,,87,127
66659,note_on,0,0,7,,,,,,,,,6,,,71,127
66659,note_on,0,0,7,,,,,,,,,6,,,66,127
66659,note_on,49,0,5,,,,,,,,,4,,,59,90
66720,note_on,61,0,1,,,,,,,,,0,,,87,0
66744,note_on,24,0,1,,,,,,,,,0,,,88,127
66807,note_on,63,0,1,,,,,,,,,0,,,88,0
66833,note_on,26,0,1,,,,,,,,,0,,,90,127
66899,note_on,66,0,1,,,,,,,,,0,,,90,0
66922,note_on,23,0,1,,,,,,,,,0,,,87,127
66968,note_on,309,0,5,,,,,,,,,4,,,59,0
66972,note_on,313,0,8,,,,,,,,,7,,,59,0
66987,note_on,65,0,1,,,,,,,,,0,,,87,0
67012,note_on,44,0,5,,,,,,,,,4,,,47,90
67012,note_on,40,0,8,,,,,,,,,7,,,47,127
67012,note_on,25,0,1,,,,,,,,,0,,,83,127
67076,note_on,64,0,1,,,,,,,,,0,,,83,0
67098,note_on,22,0,1,,,,,,,,,0,,,87,127
67163,note_on,65,0,1,,,,,,,,,0,,,87,0
67186,note_on,23,0,1,,,,,,,,,0,,,90,127
67253,note_on,67,0,1,,,,,,,,,0,,,90,0
67276,note_on,23,0,1,,,,,,,,,0,,,87,127
67315,note_on,303,0,8,,,,,,,,,7,,,47,0
67317,note_on,305,0,5,,,,,,,,,4,,,47,0
67329,note_on,670,0,7,,,,,,,,,6,,,66,0
67330,note_on,1,0,7,,,,,,,,,6,,,71,0
67332,note_on,2,0,7,,,,,,,,,6,,,75,0
67341,note_on,65,0,1,,,,,,,,,0,,,87,0
67365,note_on,33,0,7,,,,,,,,,6,,,76,127
67365,note_on,24,0,1,,,,,,,,,0,,,85,127
67365,note_on,0,0,7,,,,,,,,,6,,,64,127
67365,note_on,0,0,7,,,,,,,,,6,,,73,127
67365,note_on,48,0,5,,,,,,,,,4,,,57,90
67366,note_on,51,0,8,,,,,,,,,7,,,57,127
67430,note_on,65,0,1,,,,,,,,,0,,,85,0
67454,note_on,24,0,1,,,,,,,,,0,,,87,127
67516,note_on,62,0,1,,,,,,,,,0,,,87,0
67543,note_on,27,0,1,,,,,,,,,0,,,88,127
67607,note_on,64,0,1,,,,,,,,,0,,,88,0
67631,note_on,24,0,1,,,,,,,,,0,,,85,127
67672,note_on,306,0,8,,,,,,,,,7,,,57,0
67676,note_on,311,0,5,,,,,,,,,4,,,57,0
67695,note_on,64,0,1,,,,,,,,,0,,,85,0
67719,note_on,24,0,1,,,,,,,,,0,,,81,127
67722,note_on,50,0,8,,,,,,,,,7,,,45,127
67722,note_on,46,0,5,,,,,,,,,4,,,45,90
67783,note_on,64,0,1,,,,,,,,,0,,,81,0
67809,note_on,26,0,1,,,,,,,,,0,,,85,127
67871,note_on,62,0,1,,,,,,,,,0,,,85,0
67896,note_on,25,0,1,,,,,,,,,0,,,88,127
67960,note_on,64,0,1,,,,,,,,,0,,,88,0
67985,note_on,25,0,1,,,,,,,,,0,,,85,127
68022,note_on,300,0,5,,,,,,,,,4,,,45,0
68025,note_on,303,0,8,,,,,,,,,7,,,45,0
68027,note_on,0,0,7,,,,,,,,,6,,,76,0
68027,note_on,662,0,7,,,,,,,,,6,,,73,0
68032,note_on,5,0,7,,,,,,,,,6,,,64,0
68048,note_on,63,0,1,,,,,,,,,0,,,85,0
68073,note_on,25,0,1,,,,,,,,,0,,,83,127
68073,note_on,51,0,5,,,,,,,,,4,,,56,90
68074,note_on,42,0,7,,,,,,,,,6,,,71,127
68074,note_on,0,0,7,,,,,,,,,6,,,68,127
68074,note_on,0,0,7,,,,,,,,,6,,,63,127
68075,note_on,50,0,8,,,,,,,,,7,,,56,127
68140,note_on,67,0,1,,,,,,,,,0,,,83,0
68163,note_on,23,0,1,,,,,,,,,0,,,85,127
68228,note_on,65,0,1,,,,,,,,,0,,,85,0
68251,note_on,23,0,1,,,,,,,,,0,,,87,127
68316,note_on,65,0,1,,,,,,,,,0,,,87,0
68340,note_on,24,0,1,,,,,,,,,0,,,83,127
68386,note_on,313,0,5,,,,,,,,,4,,,56,0
68387,note_on,312,0,8,,,,,,,,,7,,,56,0
68404,note_on,64,0,1,,,,,,,,,0,,,83,0
68429,note_on,43,0,5,,,,,,,,,4,,,44,90
68429,note_on,25,0,1,,,,,,,,,0,,,80,127
68431,note_on,44,0,8,,,,,,,,,7,,,44,127
68492,note_on,63,0,1,,,,,,,,,0,,,80,0
68517,note_on,25,0,1,,,,,,,,,0,,,83,127
68580,note_on,63,0,1,,,,,,,,,0,,,83,0
68606,note_on,26,0,1,,,,,,,,,0,,,87,127
68669,note_on,63,0,1,,,,,,,,,0,,,87,0
68695,note_on,26,0,1,,,,,,,,,0,,,83,127
68733,note_on,304,0,5,,,,,,,,,4,,,44,0
68733,note_on,302,0,8,,,,,,,,,7,,,44,0
68742,note_on,668,0,7,,,,,,,,,6,,,63,0
68748,note_on,6,0,7,,,,,,,,,6,,,68,0
68749,note_on,1,0,7,,,,,,,,,6,,,71,0
68759,note_on,64,0,1,,,,,,,,,0,,,83,0
68782,note_on,49,0,5,,,,,,,,,4,,,54,90
68782,note_on,23,0,1,,,,,,,,,0,,,81,127
68783,note_on,34,0,7,,,,,,,,,6,,,73,127
68783,note_on,0,0,7,,,,,,,,,6,,,69,127
68783,note_on,0,0,7,,,,,,,,,6,,,66,127
68784,note_on,51,0,8,,,,,,,,,7,,,54,127
68845,note_on,63,0,1,,,,,,,,,0,,,81,0
68871,note_on,26,0,1,,,,,,,,,0,,,83,127
68935,note_on,64,0,1,,,,,,,,,0,,,83,0
68961,note_on,26,0,1,,,,,,,,,0,,,85,127
69023,note_on,62,0,1,,,,,,,,,0,,,85,0
69048,note_on,25,0,1,,,,,,,,,0,,,81,127
69089,note_on,305,0,8,,,,,,,,,7,,,54,0
69093,note_on,311,0,5,,,,,,,,,4,,,54,0
69114,note_on,66,0,1,,,,,,,,,0,,,81,0
69138,note_on,24,0,1,,,,,,,,,0,,,78,127
69139,note_on,46,0,5,,,,,,,,,4,,,42,90
69139,note_on,50,0,8,,,,,,,,,7,,,42,127
69201,note_on,63,0,1,,,,,,,,,0,,,78,0
69227,note_on,26,0,1,,,,,,,,,0,,,81,127
69290,note_on,63,0,1,,,,,,,,,0,,,81,0
69316,note_on,26,0,1,,,,,,,,,0,,,85,127
69379,note_on,63,0,1,,,,,,,,,0,,,85,0
69404,note_on,25,0,1,,,,,,,,,0,,,81,127
69441,note_on,302,0,5,,,,,,,,,4,,,42,0
69442,note_on,303,0,8,,,,,,,,,7,,,42,0
69443,note_on,660,0,7,,,,,,,,,6,,,69,0
69448,note_on,5,0,7,,,,,,,,,6,,,73,0
69449,note_on,1,0,7,,,,,,,,,6,,,66,0
69468,note_on,64,0,1,,,,,,,,,0,,,81,0
69494,note_on,26,0,1,,,,,,,,,0,,,80,127
69495,note_on,53,0,8,,,,,,,,,7,,,52,127
69495,note_on,54,0,5,,,,,,,,,4,,,52,90
69495,note_on,46,0,7,,,,,,,,,6,,,73,127
69495,note_on,0,0,7,,,,,,,,,6,,,68,127
69622,note_on,128,0,1,,,,,,,,,0,,,80,0
69670,note_on,48,0,1,,,,,,,,,0,,,81,127
69732,note_on,62,0,1,,,,,,,,,0,,,81,0
69757,note_on,25,0,1,,,,,,,,,0,,,80,127
69804,note_on,309,0,5,,,,,,,,,4,,,52,0
69809,note_on,314,0,8,,,,,,,,,7,,,52,0
69821,note_on,64,0,1,,,,,,,,,0,,,80,0
69843,note_on,348,0,7,,,,,,,,,6,,,68,0
69848,note_on,39,0,8,,,,,,,,,7,,,54,127
69848,note_on,44,0,5,,,,,,,,,4,,,54,90
69848,note_on,5,0,7,,,,,,,,,6,,,69,127
69848,note_on,27,0,1,,,,,,,,,0,,,78,127
69911,note_on,63,0,1,,,,,,,,,0,,,78,0
69934,note_on,23,0,1,,,,,,,,,0,,,76,127
69999,note_on,65,0,1,,,,,,,,,0,,,76,0
70024,note_on,25,0,1,,,,,,,,,0,,,75,127
70087,note_on,63,0,1,,,,,,,,,0,,,75,0
70114,note_on,27,0,1,,,,,,,,,0,,,73,127
70151,note_on,303,0,7,,,,,,,,,6,,,69,0
70152,note_on,304,0,8,,,,,,,,,7,,,54,0
70152,note_on,304,0,5,,,,,,,,,4,,,54,0
70177,note_on,63,0,1,,,,,,,,,0,,,73,0
70203,note_on,51,0,5,,,,,,,,,4,,,56,90
70203,note_on,52,0,7,,,,,,,,,6,,,72,127
70203,note_on,0,0,7,,,,,,,,,6,,,63,127
70203,note_on,26,0,1,,,,,,,,,0,,,72,127
70205,note_on,2,0,7,,,,,,,,,6,,,73,0
70205,note_on,53,0,8,,,,,,,,,7,,,56,127
70331,note_on,128,0,1,,,,,,,,,0,,,72,0
70379,note_on,48,0,1,,,,,,,,,0,,,72,127
70442,note_on,63,0,1,,,,,,,,,0,,,72,0
70468,note_on,26,0,1,,,,,,,,,0,,,73,127
70532,note_on,64,0,1,,,,,,,,,0,,,73,0
70554,note_on,22,0,1,,,,,,,,,0,,,75,127
70555,note_on,350,0,7,,,,,,,,,6,,,63,0
70555,note_on,352,0,5,,,,,,,,,4,,,56,0
70556,note_on,1,0,7,,,,,,,,,6,,,72,0
70556,note_on,351,0,8,,,,,,,,,7,,,56,0
70621,note_on,67,0,1,,,,,,,,,0,,,75,0
70645,note_on,24,0,1,,,,,,,,,0,,,72,127
70709,note_on,64,0,1,,,,,,,,,0,,,72,0
70733,note_on,24,0,1,,,,,,,,,0,,,68,127
70798,note_on,65,0,1,,,,,,,,,0,,,68,0
70822,note_on,24,0,1,,,,,,,,,0,,,72,127
70884,note_on,62,0,1,,,,,,,,,0,,,72,0
70911,note_on,27,0,1,,,,,,,,,0,,,66,127
70912,note_on,356,0,8,,,,,,,,,7,,,56,127
70912,note_on,357,0,5,,,,,,,,,4,,,56,90
70912,note_on,356,0,7,,,,,,,,,6,,,75,127
70912,note_on,0,0,7,,,,,,,,,6,,,72,127
70912,note_on,0,0,7,,,,,,,,,6,,,66,127
71039,note_on,128,0,1,,,,,,,,,0,,,66,0
71088,note_on,49,0,1,,,,,,,,,0,,,72,127
71152,note_on,64,0,1,,,,,,,,,0,,,72,0
71177,note_on,25,0,1,,,,,,,,,0,,,73,127
71239,note_on,62,0,1,,,,,,,,,0,,,73,0
71268,note_on,0,0,7,,,,,,,,,6,,,72,0
71268,note_on,356,0,7,,,,,,,,,6,,,66,0
71268,note_on,0,0,7,,,,,,,,,6,,,75,0
71268,note_on,356,0,5,,,,,,,,,4,,,56,0
71268,note_on,356,0,8,,,,,,,,,7,,,56,0
71268,note_on,29,0,1,,,,,,,,,0,,,75,127
71328,note_on,60,0,1,,,,,,,,,0,,,75,0
71352,note_on,24,0,1,,,,,,,,,0,,,72,127
71418,note_on,66,0,1,,,,,,,,,0,,,72,0
71443,note_on,25,0,1,,,,,,,,,0,,,68,127
71507,note_on,64,0,1,,,,,,,,,0,,,68,0
71531,note_on,24,0,1,,,,,,,,,0,,,72,127
71596,note_on,65,0,1,,,,,,,,,0,,,72,0
71620,note_on,352,0,5,,,,,,,,,4,,,56,90
71620,note_on,24,0,1,,,,,,,,,0,,,66,127
71620,note_on,352,0,7,,,,,,,,,6,,,63,127
71620,note_on,0,0,7,,,,,,,,,6,,,60,127
71621,note_on,353,0,8,,,,,,,,,7,,,56,127
71747,note_on,127,0,1,,,,,,,,,0,,,66,0
71796,note_on,49,0,1,,,,,,,,,0,,,72,127
71862,note_on,66,0,1,,,,,,,,,0,,,72,0
71885,note_on,23,0,1,,,,,,,,,0,,,73,127
71950,note_on,65,0,1,,,,,,,,,0,,,73,0
71975,note_on,25,0,1,,,,,,,,,0,,,75,127
71976,note_on,0,0,7,,,,,,,,,6,,,63,0
71976,note_on,355,0,8,,,,,,,,,7,,,56,0
71976,note_on,356,0,5,,,,,,,,,4,,,56,0
71976,note_on,356,0,7,,,,,,,,,6,,,60,0
72037,note_on,62,0,1,,,,,,,,,0,,,75,0
72063,note_on,26,0,1,,,,,,,,,0,,,72,127
72127,note_on,64,0,1,,,,,,,,,0,,,72,0
72152,note_on,25,0,1,,,,,,,,,0,,,66,127
72214,note_on,62,0,1,,,,,,,,,0,,,66,0
72241,note_on,27,0,1,,,,,,,,,0,,,75,127
72304,note_on,63,0,1,,,,,,,,,0,,,75,0
72331,note_on,355,0,7,,,,,,,,,6,,,64,127
72331,note_on,355,0,5,,,,,,,,,4,,,49,90
72331,note_on,27,0,1,,,,,,,,,0,,,76,127
72331,note_on,355,0,8,,,,,,,,,7,,,49,127
72331,note_on,0,0,7,,,,,,,,,6,,,56,127
72458,note_on,127,0,1,,,,,,,,,0,,,76,0
72503,note_on,45,0,1,,,,,,,,,0,,,75,127
72569,note_on,66,0,1,,,,,,,,,0,,,75,0
72595,note_on,26,0,1,,,,,,,,,0,,,73,127
72641,note_on,310,0,5,,,,,,,,,4,,,49,0
72647,note_on,316,0,8,,,,,,,,,7,,,49,0
72647,note_on,316,0,7,,,,,,,,,6,,,56,0
72650,note_on,3,0,7,,,,,,,,,6,,,64,0
72659,note_on,64,0,1,,,,,,,,,0,,,73,0
72684,note_on,25,0,1,,,,,,,,,0,,,78,127
72685,note_on,38,0,8,,,,,,,,,7,,,51,127
72685,note_on,44,0,5,,,,,,,,,4,,,51,90
72685,note_on,35,0,7,,,,,,,,,6,,,66,127
72810,note_on,126,0,1,,,,,,,,,0,,,78,0
72861,note_on,51,0,1,,,,,,,,,0,,,76,127
72924,note_on,63,0,1,,,,,,,,,0,,,76,0
72950,note_on,26,0,1,,,,,,,,,0,,,75,127
72991,note_on,306,0,5,,,,,,,,,4,,,51,0
72991,note_on,306,0,8,,,,,,,,,7,,,51,0
72991,note_on,306,0,7,,,,,,,,,6,,,66,0
73012,note_on,62,0,1,,,,,,,,,0,,,75,0
73040,note_on,49,0,5,,,,,,,,,4,,,52,90
73040,note_on,0,0,7,,,,,,,,,6,,,61,127
73040,note_on,49,0,7,,,,,,,,,6,,,68,127
73040,note_on,49,0,8,,,,,,,,,7,,,52,127
73040,note_on,28,0,1,,,,,,,,,0,,,80,127
73169,note_on,129,0,1,,,,,,,,,0,,,80,0
73169,note_on,129,0,5,,,,,,,,,4,,,52,0
73169,note_on,129,0,8,,,,,,,,,7,,,52,0
73216,note_on,47,0,5,,,,,,,,,4,,,49,90
73216,note_on,47,0,1,,,,,,,,,0,,,78,127
73218,note_on,49,0,8,,,,,,,,,7,,,49,127
73302,note_on,86,0,1,,,,,,,,,0,,,78,0
73304,note_on,2,0,1,,,,,,,,,0,,,76,127
73343,note_on,125,0,8,,,,,,,,,7,,,49,0
73343,note_on,127,0,5,,,,,,,,,4,,,49,0
73344,note_on,304,0,7,,,,,,,,,6,,,61,0
73347,note_on,3,0,7,,,,,,,,,6,,,68,0
73389,note_on,85,0,1,,,,,,,,,0,,,76,0
73393,note_on,50,0,5,,,,,,,,,4,,,56,90
73393,note_on,4,0,1,,,,,,,,,0,,,75,127
73393,note_on,46,0,7,,,,,,,,,6,,,68,127
73393,note_on,0,0,7,,,,,,,,,6,,,60,127
73393,note_on,50,0,8,,,,,,,,,7,,,56,127
73478,note_on,85,0,1,,,,,,,,,0,,,75,0
73479,note_on,1,0,1,,,,,,,,,0,,,73,127
73516,note_on,123,0,8,,,,,,,,,7,,,56,0
73521,note_on,128,0,5,,,,,,,,,4,,,56,0
73566,note_on,87,0,1,,,,,,,,,0,,,73,0
73571,note_on,5,0,1,,,,,,,,,0,,,75,127
73571,note_on,55,0,8,,,,,,,,,7,,,44,127
73571,note_on,50,0,5,,,,,,,,,4,,,44,90
73655,note_on,84,0,1,,,,,,,,,0,,,75,0
73658,note_on,3,0,1,,,,,,,,,0,,,72,127
73695,note_on,302,0,7,,,,,,,,,6,,,60,0
73695,note_on,124,0,5,,,,,,,,,4,,,44,0
73696,note_on,1,0,7,,,,,,,,,6,,,68,0
73696,note_on,125,0,8,,,,,,,,,7,,,44,0
73744,note_on,86,0,1,,,,,,,,,0,,,72,0
73744,note_on,0,0,1,,,,,,,,,0,,,80,127
73745,note_on,50,0,5,,,,,,,,,4,,,52,90
73745,note_on,49,0,8,,,,,,,,,7,,,52,127
73745,note_on,0,0,7,,,,,,,,,6,,,61,127
73745,note_on,49,0,7,,,,,,,,,6,,,68,127
73876,note_on,132,0,1,,,,,,,,,0,,,80,0
73881,note_on,136,0,5,,,,,,,,,4,,,52,0
73886,note_on,141,0,8,,,,,,,,,7,,,52,0
73924,note_on,48,0,1,,,,,,,,,0,,,78,127
73926,note_on,40,0,8,,,,,,,,,7,,,49,127
73926,note_on,45,0,5,,,,,,,,,4,,,49,90
74011,note_on,87,0,1,,,,,,,,,0,,,78,0
74013,note_on,2,0,1,,,,,,,,,0,,,76,127
74055,note_on,129,0,8,,,,,,,,,7,,,49,0
74058,note_on,132,0,5,,,,,,,,,4,,,49,0
74065,note_on,320,0,7,,,,,,,,,6,,,61,0
74068,note_on,3,0,7,,,,,,,,,6,,,68,0
74100,note_on,87,0,1,,,,,,,,,0,,,76,0
74102,note_on,0,0,7,,,,,,,,,6,,,60,127
74102,note_on,47,0,8,,,,,,,,,7,,,56,127
74102,note_on,34,0,7,,,,,,,,,6,,,68,127
74102,note_on,2,0,1,,,,,,,,,0,,,75,127
74102,note_on,44,0,5,,,,,,,,,4,,,56,90
74189,note_on,87,0,1,,,,,,,,,0,,,75,0
74189,note_on,0,0,1,,,,,,,,,0,,,73,127
74231,note_on,129,0,8,,,,,,,,,7,,,56,0
74234,note_on,132,0,5,,,,,,,,,4,,,56,0
74276,note_on,87,0,1,,,,,,,,,0,,,73,0
74278,note_on,2,0,1,,,,,,,,,0,,,75,127
74280,note_on,49,0,8,,,,,,,,,7,,,44,127
74280,note_on,46,0,5,,,,,,,,,4,,,44,90
74364,note_on,86,0,1,,,,,,,,,0,,,75,0
74368,note_on,4,0,1,,,,,,,,,0,,,72,127
74406,note_on,126,0,5,,,,,,,,,4,,,44,0
74407,note_on,127,0,8,,,,,,,,,7,,,44,0
74409,note_on,307,0,7,,,,,,,,,6,,,60,0
74410,note_on,1,0,7,,,,,,,,,6,,,68,0
74452,note_on,84,0,1,,,,,,,,,0,,,72,0
74455,note_on,3,0,1,,,,,,,,,0,,,73,127
74458,note_on,20941,0,2,,,,,,,,,1,,,61,61
74459,note_on,49,0,7,,,,,,,,,6,,,61,127
74459,note_on,20918,0,4,,,,,,,,,3,,,61,64
74459,note_on,32994,0,6,,,,,,,,,5,,,49,90
74459,note_on,20918,0,3,,,,,,,,,2,,,61,65
74460,program_change,0,0,5,,,,,,,,49,4,,,,
74460,note_on,53,0,8,,,,,,,,,7,,,49,127
74460,note_on,54,0,5,,,,,,,,,4,,,49,90
74761,note_on,302,0,4,,,,,,,,,3,,,61,0
74761,note_on,302,0,3,,,,,,,,,2,,,61,0
74764,note_on,309,0,1,,,,,,,,,0,,,73,0
74764,note_on,304,0,5,,,,,,,,,4,,,49,0
74764,note_on,305,0,6,,,,,,,,,5,,,49,0
74764,note_on,306,0,2,,,,,,,,,1,,,61,0
74768,note_on,308,0,8,,,,,,,,,7,,,49,0
74771,note_on,312,0,7,,,,,,,,,6,,,61,0
74809,note_on,45,0,1,,,,,,,,,0,,,68,127
74810,note_on,46,0,2,,,,,,,,,1,,,68,61
74811,note_on,50,0,3,,,,,,,,,2,,,68,65
74812,note_on,51,0,4,,,,,,,,,3,,,68,64
74812,note_on,48,0,5,,,,,,,,,4,,,56,90
74812,note_on,48,0,6,,,,,,,,,5,,,56,90
74813,note_on,42,0,7,,,,,,,,,6,,,68,127
74814,note_on,46,0,8,,,,,,,,,7,,,56,127
75117,note_on,308,0,1,,,,,,,,,0,,,68,0
75118,note_on,308,0,2,,,,,,,,,1,,,68,0
75118,note_on,307,0,3,,,,,,,,,2,,,68,0
75118,note_on,306,0,5,,,,,,,,,4,,,56,0
75118,note_on,306,0,4,,,,,,,,,3,,,68,0
75119,note_on,307,0,6,,,,,,,,,5,,,56,0
75125,note_on,312,0,7,,,,,,,,,6,,,68,0
75126,note_on,312,0,8,,,,,,,,,7,,,56,0
75166,note_on,48,0,3,,,,,,,,,2,,,73,65
75166,note_on,48,0,2,,,,,,,,,1,,,73,61
75166,note_on,49,0,1,,,,,,,,,0,,,73,127
75166,note_on,48,0,4,,,,,,,,,3,,,73,64
75167,note_on,49,0,5,,,,,,,,,4,,,61,90
75168,note_on,42,0,8,,,,,,,,,7,,,61,127
75168,note_on,49,0,6,,,,,,,,,5,,,61,90
75168,note_on,43,0,7,,,,,,,,,6,,,73,127
75293,note_on,127,0,1,,,,,,,,,0,,,73,0
75297,note_on,131,0,3,,,,,,,,,2,,,73,0
75297,note_on,131,0,4,,,,,,,,,3,,,73,0
75298,note_on,130,0,6,,,,,,,,,5,,,61,0
75298,note_on,131,0,5,,,,,,,,,4,,,61,0
75298,note_on,132,0,2,,,,,,,,,1,,,73,0
75303,note_on,135,0,8,,,,,,,,,7,,,61,0
75303,note_on,135,0,7,,,,,,,,,6,,,73,0
75341,note_on,48,0,1,,,,,,,,,0,,,61,127
75342,note_on,44,0,2,,,,,,,,,1,,,61,61
75343,note_on,46,0,4,,,,,,,,,3,,,61,64
75343,note_on,46,0,3,,,,,,,,,2,,,61,65
75344,note_on,46,0,5,,,,,,,,,4,,,49,90
75344,note_on,41,0,8,,,,,,,,,7,,,49,127
75344,note_on,46,0,6,,,,,,,,,5,,,49,90
75344,note_on,41,0,7,,,,,,,,,6,,,61,127
75498,note_on,157,0,1,,,,,,,,,0,,,61,0
75499,note_on,157,0,2,,,,,,,,,1,,,61,0
75499,note_on,156,0,3,,,,,,,,,2,,,61,0
75501,note_on,157,0,7,,,,,,,,,6,,,61,0
75501,note_on,157,0,8,,,,,,,,,7,,,49,0
75501,note_on,157,0,6,,,,,,,,,5,,,49,0
75501,note_on,158,0,4,,,,,,,,,3,,,61,0
75501,note_on,157,0,5,,,,,,,,,4,,,49,0
75699,note_on,198,0,4,,,,,,,,,3,,,68,64
75699,note_on,198,0,5,,,,,,,,,4,,,56,90
75699,note_on,200,0,3,,,,,,,,,2,,,68,65
75699,note_on,200,0,2,,,,,,,,,1,,,68,61
75699,note_on,201,0,1,,,,,,,,,0,,,68,127
75701,note_on,200,0,8,,,,,,,,,7,,,56,127
75701,note_on,200,0,7,,,,,,,,,6,,,68,127
75825,note_on,126,0,1,,,,,,,,,0,,,68,0
75826,note_on,127,0,3,,,,,,,,,2,,,68,0
75826,note_on,127,0,2,,,,,,,,,1,,,68,0
75826,note_on,127,0,4,,,,,,,,,3,,,68,0
75826,note_on,127,0,5,,,,,,,,,4,,,56,0
75827,note_on,126,0,7,,,,,,,,,6,,,68,0
75834,note_on,133,0,8,,,,,,,,,7,,,56,0
75874,note_on,49,0,1,,,,,,,,,0,,,73,127
75878,note_on,52,0,2,,,,,,,,,1,,,73,61
75878,note_on,52,0,3,,,,,,,,,2,,,73,65
75879,note_on,53,0,5,,,,,,,,,4,,,61,90
75879,note_on,45,0,8,,,,,,,,,7,,,61,127
75879,note_on,52,0,7,,,,,,,,,6,,,73,127
75879,note_on,53,0,4,,,,,,,,,3,,,73,64
75963,note_on,85,0,3,,,,,,,,,2,,,73,0
75963,note_on,89,0,1,,,,,,,,,0,,,73,0
75963,note_on,84,0,4,,,,,,,,,3,,,73,0
75963,note_on,85,0,2,,,,,,,,,1,,,73,0
75965,note_on,86,0,5,,,,,,,,,4,,,61,0
75965,note_on,86,0,7,,,,,,,,,6,,,73,0
75965,note_on,86,0,8,,,,,,,,,7,,,61,0
75967,note_on,4,0,1,,,,,,,,,0,,,72,127
75970,note_on,7,0,2,,,,,,,,,1,,,72,61
75970,note_on,7,0,4,,,,,,,,,3,,,72,64
75970,note_on,5,0,7,,,,,,,,,6,,,72,127
75970,note_on,5,0,5,,,,,,,,,4,,,60,90
75970,note_on,7,0,3,,,,,,,,,2,,,72,65
75970,note_on,5,0,8,,,,,,,,,7,,,60,127
76048,note_on,78,0,2,,,,,,,,,1,,,72,0
76048,note_on,81,0,1,,,,,,,,,0,,,72,0
76049,note_on,79,0,4,,,,,,,,,3,,,72,0
76049,note_on,79,0,3,,,,,,,,,2,,,72,0
76050,note_on,80,0,5,,,,,,,,,4,,,60,0
76050,note_on,80,0,7,,,,,,,,,6,,,72,0
76051,note_on,81,0,8,,,,,,,,,7,,,60,0
76052,note_on,4,0,2,,,,,,,,,1,,,73,61
76052,note_on,4,0,1,,,,,,,,,0,,,73,127
76054,note_on,5,0,4,,,,,,,,,3,,,73,64
76054,note_on,5,0,3,,,,,,,,,2,,,73,65
76055,note_on,5,0,5,,,,,,,,,4,,,61,90
76056,note_on,6,0,7,,,,,,,,,6,,,73,127
76056,note_on,5,0,8,,,,,,,,,7,,,61,127
76137,note_on,85,0,1,,,,,,,,,0,,,73,0
76139,note_on,85,0,4,,,,,,,,,3,,,73,0
76139,note_on,87,0,2,,,,,,,,,1,,,73,0
76139,note_on,85,0,3,,,,,,,,,2,,,73,0
76140,note_on,85,0,5,,,,,,,,,4,,,61,0
76140,note_on,84,0,7,,,,,,,,,6,,,73,0
76141,note_on,4,0,1,,,,,,,,,0,,,72,127
76141,note_on,85,0,8,,,,,,,,,7,,,61,0
76142,note_on,3,0,2,,,,,,,,,1,,,72,61
76143,note_on,4,0,3,,,,,,,,,2,,,72,65
76144,note_on,3,0,8,,,,,,,,,7,,,60,127
76144,note_on,5,0,4,,,,,,,,,3,,,72,64
76144,note_on,4,0,7,,,,,,,,,6,,,72,127
76144,note_on,4,0,5,,,,,,,,,4,,,60,90
76228,note_on,84,0,5,,,,,,,,,4,,,60,0
76228,note_on,84,0,4,,,,,,,,,3,,,72,0
76228,note_on,87,0,1,,,,,,,,,0,,,72,0
76228,note_on,85,0,3,,,,,,,,,2,,,72,0
76228,note_on,84,0,7,,,,,,,,,6,,,72,0
76228,note_on,86,0,2,,,,,,,,,1,,,72,0
76229,note_on,85,0,8,,,,,,,,,7,,,60,0
76230,note_on,2,0,2,,,,,,,,,1,,,73,61
76230,note_on,2,0,1,,,,,,,,,0,,,73,127
76232,note_on,4,0,3,,,,,,,,,2,,,73,65
76232,note_on,4,0,4,,,,,,,,,3,,,73,64
76232,note_on,4,0,5,,,,,,,,,4,,,61,90
76233,note_on,5,0,7,,,,,,,,,6,,,73,127
76233,note_on,4,0,8,,,,,,,,,7,,,61,127
76314,note_on,84,0,1,,,,,,,,,0,,,73,0
76315,note_on,83,0,3,,,,,,,,,2,,,73,0
76315,note_on,85,0,2,,,,,,,,,1,,,73,0
76316,note_on,84,0,5,,,,,,,,,4,,,61,0
76316,note_on,84,0,4,,,,,,,,,3,,,73,0
76317,note_on,84,0,7,,,,,,,,,6,,,73,0
76318,note_on,85,0,8,,,,,,,,,7,,,61,0
76319,note_on,5,0,1,,,,,,,,,0,,,72,127
76320,note_on,5,0,3,,,,,,,,,2,,,72,65
76320,note_on,5,0,2,,,,,,,,,1,,,72,61
76321,note_on,3,0,8,,,,,,,,,7,,,60,127
76321,note_on,5,0,5,,,,,,,,,4,,,60,90
76321,note_on,4,0,7,,,,,,,,,6,,,72,127
76321,note_on,5,0,4,,,,,,,,,3,,,72,64
76404,note_on,85,0,1,,,,,,,,,0,,,72,0
76404,note_on,84,0,2,,,,,,,,,1,,,72,0
76406,note_on,85,0,4,,,,,,,,,3,,,72,0
76406,note_on,86,0,3,,,,,,,,,2,,,72,0
76407,note_on,86,0,7,,,,,,,,,6,,,72,0
76407,note_on,86,0,5,,,,,,,,,4,,,60,0
76410,note_on,89,0,8,,,,,,,,,7,,,60,0
76412,note_on,2,0,8,,,,,,,,,7,,,61,127
76412,note_on,8,0,1,,,,,,,,,0,,,73,127
76412,note_on,8,0,2,,,,,,,,,1,,,73,61
76412,note_on,6,0,3,,,,,,,,,2,,,73,65
76412,note_on,5,0,5,,,,,,,,,4,,,61,90
76412,note_on,6,0,4,,,,,,,,,3,,,73,64
76412,note_on,5,0,7,,,,,,,,,6,,,73,127
76491,note_on,79,0,1,,,,,,,,,0,,,73,0
76492,note_on,80,0,2,,,,,,,,,1,,,73,0
76492,note_on,80,0,3,,,,,,,,,2,,,73,0
76493,note_on,81,0,4,,,,,,,,,3,,,73,0
76495,note_on,83,0,5,,,,,,,,,4,,,61,0
76495,note_on,83,0,7,,,,,,,,,6,,,73,0
76496,note_on,5,0,1,,,,,,,,,0,,,72,127
76496,note_on,84,0,8,,,,,,,,,7,,,61,0
76497,note_on,5,0,3,,,,,,,,,2,,,72,65
76497,note_on,4,0,4,,,,,,,,,3,,,72,64
76497,note_on,2,0,5,,,,,,,,,4,,,60,90
76497,note_on,5,0,2,,,,,,,,,1,,,72,61
76498,note_on,3,0,7,,,,,,,,,6,,,72,127
76499,note_on,3,0,8,,,,,,,,,7,,,60,127
76579,note_on,83,0,1,,,,,,,,,0,,,72,0
76580,note_on,83,0,2,,,,,,,,,1,,,72,0
76581,note_on,84,0,3,,,,,,,,,2,,,72,0
76581,note_on,84,0,4,,,,,,,,,3,,,72,0
76581,note_on,84,0,5,,,,,,,,,4,,,60,0
76583,note_on,85,0,7,,,,,,,,,6,,,72,0
76584,note_on,4,0,2,,,,,,,,,1,,,73,61
76584,note_on,5,0,1,,,,,,,,,0,,,73,127
76584,note_on,85,0,8,,,,,,,,,7,,,60,0
76585,note_on,4,0,4,,,,,,,,,3,,,73,64
76585,note_on,4,0,5,,,,,,,,,4,,,61,90
76585,note_on,4,0,3,,,,,,,,,2,,,73,65
76586,note_on,3,0,7,,,,,,,,,6,,,73,127
76587,note_on,3,0,8,,,,,,,,,7,,,61,127
76713,note_on,129,0,1,,,,,,,,,0,,,73,0
76716,note_on,131,0,3,,,,,,,,,2,,,73,0
76716,note_on,132,0,2,,,,,,,,,1,,,73,0
76716,note_on,131,0,4,,,,,,,,,3,,,73,0
76718,note_on,133,0,5,,,,,,,,,4,,,61,0
76723,note_on,137,0,7,,,,,,,,,6,,,73,0
76723,note_on,136,0,8,,,,,,,,,7,,,61,0
76762,note_on,46,0,3,,,,,,,,,2,,,61,65
76762,note_on,49,0,1,,,,,,,,,0,,,61,127
76762,note_on,46,0,2,,,,,,,,,1,,,61,61
76765,note_on,42,0,8,,,,,,,,,7,,,49,127
76765,note_on,49,0,4,,,,,,,,,3,,,61,64
76765,note_on,47,0,5,,,,,,,,,4,,,49,90
76765,note_on,42,0,7,,,,,,,,,6,,,61,127
76916,note_on,154,0,1,,,,,,,,,0,,,61,0
76917,note_on,152,0,7,,,,,,,,,6,,,61,0
76917,note_on,155,0,2,,,,,,,,,1,,,61,0
76917,note_on,155,0,3,,,,,,,,,2,,,61,0
76917,note_on,152,0,5,,,,,,,,,4,,,49,0
76917,note_on,152,0,4,,,,,,,,,3,,,61,0
76919,note_on,154,0,8,,,,,,,,,7,,,49,0
77115,note_on,198,0,2,,,,,,,,,1,,,68,61
77115,note_on,198,0,3,,,,,,,,,2,,,68,65
77115,note_on,199,0,1,,,,,,,,,0,,,68,127
77118,note_on,201,0,4,,,,,,,,,3,,,68,64
77118,note_on,201,0,7,,,,,,,,,6,,,68,127
77118,note_on,201,0,5,,,,,,,,,4,,,56,90
77118,note_on,199,0,8,,,,,,,,,7,,,56,127
77243,note_on,128,0,1,,,,,,,,,0,,,68,0
77246,note_on,128,0,4,,,,,,,,,3,,,68,0
77246,note_on,131,0,2,,,,,,,,,1,,,68,0
77246,note_on,131,0,3,,,,,,,,,2,,,68,0
77247,note_on,129,0,5,,,,,,,,,4,,,56,0
77249,note_on,131,0,7,,,,,,,,,6,,,68,0
77252,note_on,134,0,8,,,,,,,,,7,,,56,0
77293,note_on,47,0,2,,,,,,,,,1,,,73,61
77293,note_on,50,0,1,,,,,,,,,0,,,73,127
77293,note_on,47,0,3,,,,,,,,,2,,,73,65
77297,note_on,48,0,7,,,,,,,,,6,,,73,127
77297,note_on,50,0,5,,,,,,,,,4,,,61,90
77297,note_on,51,0,4,,,,,,,,,3,,,73,64
77297,note_on,45,0,8,,,,,,,,,7,,,61,127
77379,note_on,86,0,2,,,,,,,,,1,,,73,0
77379,note_on,86,0,1,,,,,,,,,0,,,73,0
77382,note_on,89,0,3,,,,,,,,,2,,,73,0
77382,note_on,85,0,5,,,,,,,,,4,,,61,0
77382,note_on,85,0,7,,,,,,,,,6,,,73,0
77382,note_on,85,0,4,,,,,,,,,3,,,73,0
77387,note_on,90,0,8,,,,,,,,,7,,,61,0
77387,note_on,5,0,3,,,,,,,,,2,,,72,65
77387,note_on,8,0,1,,,,,,,,,0,,,72,127
77387,note_on,8,0,2,,,,,,,,,1,,,72,61
77389,note_on,7,0,7,,,,,,,,,6,,,72,127
77389,note_on,7,0,4,,,,,,,,,3,,,72,64
77389,note_on,7,0,5,,,,,,,,,4,,,60,90
77389,note_on,2,0,8,,,,,,,,,7,,,60,127
77468,note_on,81,0,1,,,,,,,,,0,,,72,0
77468,note_on,81,0,3,,,,,,,,,2,,,72,0
77468,note_on,81,0,2,,,,,,,,,1,,,72,0
77473,note_on,84,0,4,,,,,,,,,3,,,72,0
77475,note_on,86,0,7,,,,,,,,,6,,,72,0
77475,note_on,86,0,5,,,,,,,,,4,,,60,0
77475,note_on,86,0,8,,,,,,,,,7,,,60,0
77477,note_on,2,0,7,,,,,,,,,6,,,73,127
77477,note_on,9,0,1,,,,,,,,,0,,,73,127
77477,note_on,4,0,4,,,,,,,,,3,,,73,64
77477,note_on,9,0,3,,,,,,,,,2,,,73,65
77477,note_on,2,0,5,,,,,,,,,4,,,61,90
77477,note_on,9,0,2,,,,,,,,,1,,,73,61
77478,note_on,3,0,8,,,,,,,,,7,,,61,127
77554,note_on,77,0,1,,,,,,,,,0,,,73,0
77555,note_on,78,0,2,,,,,,,,,1,,,73,0
77556,note_on,79,0,3,,,,,,,,,2,,,73,0
77556,note_on,78,0,8,,,,,,,,,7,,,61,0
77556,note_on,79,0,4,,,,,,,,,3,,,73,0
77556,note_on,79,0,7,,,,,,,,,6,,,73,0
77556,note_on,79,0,5,,,,,,,,,4,,,61,0
77557,note_on,3,0,1,,,,,,,,,0,,,72,127
77558,note_on,3,0,2,,,,,,,,,1,,,72,61
77559,note_on,3,0,3,,,,,,,,,2,,,72,65
77560,note_on,4,0,7,,,,,,,,,6,,,72,127
77560,note_on,4,0,4,,,,,,,,,3,,,72,64
77560,note_on,4,0,5,,,,,,,,,4,,,60,90
77560,note_on,4,0,8,,,,,,,,,7,,,60,127
77646,note_on,89,0,1,,,,,,,,,0,,,72,0
77646,note_on,88,0,2,,,,,,,,,1,,,72,0
77647,note_on,87,0,4,,,,,,,,,3,,,72,0
77647,note_on,87,0,5,,,,,,,,,4,,,60,0
77647,note_on,88,0,3,,,,,,,,,2,,,72,0
77653,note_on,93,0,8,,,,,,,,,7,,,60,0
77653,note_on,7,0,2,,,,,,,,,1,,,73,61
77653,note_on,7,0,1,,,,,,,,,0,,,73,127
77653,note_on,93,0,7,,,,,,,,,6,,,72,0
77653,note_on,0,0,8,,,,,,,,,7,,,61,127
77653,note_on,6,0,4,,,,,,,,,3,,,73,64
77653,note_on,6,0,3,,,,,,,,,2,,,73,65
77653,note_on,6,0,5,,,,,,,,,4,,,61,90
77653,note_on,0,0,7,,,,,,,,,6,,,73,127
77733,note_on,80,0,3,,,,,,,,,2,,,73,0
77733,note_on,80,0,2,,,,,,,,,1,,,73,0
77733,note_on,80,0,1,,,,,,,,,0,,,73,0
77734,note_on,81,0,4,,,,,,,,,3,,,73,0
77735,note_on,82,0,7,,,,,,,,,6,,,73,0
77735,note_on,82,0,5,,,,,,,,,4,,,61,0
77735,note_on,82,0,8,,,,,,,,,7,,,61,0
77736,note_on,3,0,2,,,,,,,,,1,,,72,61
77736,note_on,3,0,3,,,,,,,,,2,,,72,65
77736,note_on,3,0,1,,,,,,,,,0,,,72,127
77736,note_on,2,0,4,,,,,,,,,3,,,72,64
77737,note_on,2,0,5,,,,,,,,,4,,,60,90
77738,note_on,3,0,7,,,,,,,,,6,,,72,127
77739,note_on,4,0,8,,,,,,,,,7,,,60,127
77822,note_on,86,0,1,,,,,,,,,0,,,72,0
77824,note_on,88,0,3,,,,,,,,,2,,,72,0
77824,note_on,87,0,5,,,,,,,,,4,,,60,0
77824,note_on,88,0,2,,,,,,,,,1,,,72,0
77824,note_on,88,0,4,,,,,,,,,3,,,72,0
77824,note_on,86,0,7,,,,,,,,,6,,,72,0
77825,note_on,86,0,8,,,,,,,,,7,,,60,0
77825,note_on,3,0,1,,,,,,,,,0,,,73,127
77826,note_on,2,0,3,,,,,,,,,2,,,73,65
77826,note_on,2,0,2,,,,,,,,,1,,,73,61
77827,note_on,3,0,4,,,,,,,,,3,,,73,64
77828,note_on,4,0,7,,,,,,,,,6,,,73,127
77828,note_on,3,0,8,,,,,,,,,7,,,61,127
77828,note_on,4,0,5,,,,,,,,,4,,,61,90
77912,note_on,85,0,4,,,,,,,,,3,,,73,0
77912,note_on,86,0,2,,,,,,,,,1,,,73,0
77912,note_on,87,0,1,,,,,,,,,0,,,73,0
77912,note_on,84,0,5,,,,,,,,,4,,,61,0
77912,note_on,84,0,7,,,,,,,,,6,,,73,0
77912,note_on,86,0,3,,,,,,,,,2,,,73,0
77914,note_on,86,0,8,,,,,,,,,7,,,61,0
77914,note_on,2,0,1,,,,,,,,,0,,,72,127
77915,note_on,3,0,2,,,,,,,,,1,,,72,61
77916,note_on,4,0,7,,,,,,,,,6,,,72,127
77916,note_on,4,0,4,,,,,,,,,3,,,72,64
77916,note_on,4,0,3,,,,,,,,,2,,,72,65
77916,note_on,4,0,5,,,,,,,,,4,,,60,90
77917,note_on,3,0,8,,,,,,,,,7,,,60,127
77998,note_on,83,0,2,,,,,,,,,1,,,72,0
77998,note_on,84,0,1,,,,,,,,,0,,,72,0
78000,note_on,84,0,4,,,,,,,,,3,,,72,0
78000,note_on,84,0,3,,,,,,,,,2,,,72,0
78001,note_on,85,0,7,,,,,,,,,6,,,72,0
78001,note_on,3,0,1,,,,,,,,,0,,,73,127
78001,note_on,84,0,8,,,,,,,,,7,,,60,0
78001,note_on,85,0,5,,,,,,,,,4,,,60,0
78002,note_on,4,0,2,,,,,,,,,1,,,73,61
78003,note_on,3,0,3,,,,,,,,,2,,,73,65
78004,note_on,4,0,4,,,,,,,,,3,,,73,64
78004,note_on,3,0,5,,,,,,,,,4,,,61,90
78004,note_on,3,0,7,,,,,,,,,6,,,73,127
78005,note_on,4,0,8,,,,,,,,,7,,,61,127
78131,note_on,127,0,4,,,,,,,,,3,,,73,0
78131,note_on,130,0,1,,,,,,,,,0,,,73,0
78131,note_on,128,0,3,,,,,,,,,2,,,73,0
78132,note_on,128,0,5,,,,,,,,,4,,,61,0
78132,note_on,130,0,2,,,,,,,,,1,,,73,0
78140,note_on,136,0,7,,,,,,,,,6,,,73,0
78140,note_on,135,0,8,,,,,,,,,7,,,61,0
78179,note_on,48,0,1,,,,,,,,,0,,,68,127
78180,note_on,49,0,4,,,,,,,,,3,,,68,64
78180,note_on,48,0,2,,,,,,,,,1,,,68,61
78180,note_on,49,0,3,,,,,,,,,2,,,68,65
78180,note_on,48,0,5,,,,,,,,,4,,,56,90
78180,note_on,40,0,7,,,,,,,,,6,,,68,127
78181,note_on,41,0,8,,,,,,,,,7,,,56,127
78306,note_on,127,0,1,,,,,,,,,0,,,68,0
78310,note_on,130,0,4,,,,,,,,,3,,,68,0
78310,note_on,130,0,3,,,,,,,,,2,,,68,0
78312,note_on,132,0,7,,,,,,,,,6,,,68,0
78312,note_on,132,0,5,,,,,,,,,4,,,56,0
78312,note_on,132,0,2,,,,,,,,,1,,,68,0
78319,note_on,138,0,8,,,,,,,,,7,,,56,0
78356,note_on,50,0,1,,,,,,,,,0,,,64,127
78358,note_on,48,0,3,,,,,,,,,2,,,64,65
78358,note_on,46,0,2,,,,,,,,,1,,,64,61
78358,note_on,48,0,4,,,,,,,,,3,,,64,64
78359,note_on,47,0,5,,,,,,,,,4,,,52,90
78359,note_on,40,0,8,,,,,,,,,7,,,52,127
78359,note_on,47,0,7,,,,,,,,,6,,,64,127
78484,note_on,128,0,1,,,,,,,,,0,,,64,0
78488,note_on,130,0,3,,,,,,,,,2,,,64,0
78488,note_on,130,0,4,,,,,,,,,3,,,64,0
78488,note_on,130,0,2,,,,,,,,,1,,,64,0
78490,note_on,131,0,7,,,,,,,,,6,,,64,0
78490,note_on,131,0,5,,,,,,,,,4,,,52,0
78495,note_on,136,0,8,,,,,,,,,7,,,52,0
78533,note_on,49,0,1,,,,,,,,,0,,,61,127
78536,note_on,48,0,3,,,,,,,,,2,,,61,65
78536,note_on,46,0,7,,,,,,,,,6,,,61,127
78536,note_on,41,0,8,,,,,,,,,7,,,49,127
78536,note_on,48,0,2,,,,,,,,,1,,,61,61
78536,note_on,46,0,5,,,,,,,,,4,,,49,90
78536,note_on,48,0,4,,,,,,,,,3,,,61,64
78663,note_on,127,0,3,,,,,,,,,2,,,61,0
78663,note_on,130,0,1,,,,,,,,,0,,,61,0
78667,note_on,131,0,4,,,,,,,,,3,,,61,0
78667,note_on,131,0,7,,,,,,,,,6,,,61,0
78667,note_on,131,0,2,,,,,,,,,1,,,61,0
78667,note_on,131,0,5,,,,,,,,,4,,,49,0
78673,note_on,137,0,8,,,,,,,,,7,,,49,0
78710,note_on,43,0,2,,,,,,,,,1,,,68,61
78710,note_on,47,0,1,,,,,,,,,0,,,68,127
78712,note_on,39,0,8,,,,,,,,,7,,,56,127
78712,note_on,49,0,3,,,,,,,,,2,,,68,65
78712,note_on,45,0,5,,,,,,,,,4,,,56,90
78712,note_on,45,0,7,,,,,,,,,6,,,68,127
78712,note_on,45,0,4,,,,,,,,,3,,,68,64
79044,note_on,334,0,2,,,,,,,,,1,,,68,0
79044,note_on,334,0,1,,,,,,,,,0,,,68,0
79064,note_on,352,0,3,,,,,,,,,2,,,68,0
79068,note_on,356,0,8,,,,,,,,,7,,,56,0
79068,note_on,356,0,5,,,,,,,,,4,,,56,0
79068,note_on,356,0,4,,,,,,,,,3,,,68,0
79068,note_on,356,0,7,,,,,,,,,6,,,68,0
79241,note_on,197,0,1,,,,,,,,,0,,,80,127
79245,note_on,177,0,4,,,,,,,,,3,,,73,64
79245,note_on,201,0,2,,,,,,,,,1,,,80,61
79245,note_on,177,0,8,,,,,,,,,7,,,61,127
79245,note_on,177,0,5,,,,,,,,,4,,,61,90
79372,note_on,131,0,1,,,,,,,,,0,,,80,0
79372,note_on,127,0,4,,,,,,,,,3,,,73,0
79375,note_on,130,0,2,,,,,,,,,1,,,80,0
79378,note_on,133,0,5,,,,,,,,,4,,,61,0
79378,note_on,133,0,8,,,,,,,,,7,,,61,0
79419,note_on,47,0,1,,,,,,,,,0,,,81,127
79420,note_on,42,0,5,,,,,,,,,4,,,57,90
79420,note_on,45,0,2,,,,,,,,,1,,,81,61
79420,note_on,48,0,4,,,,,,,,,3,,,73,64
79421,note_on,43,0,8,,,,,,,,,7,,,57,127
79421,note_on,353,0,7,,,,,,,,,6,,,73,127
79507,note_on,87,0,2,,,,,,,,,1,,,81,0
79507,note_on,88,0,1,,,,,,,,,0,,,81,0
79509,note_on,2,0,1,,,,,,,,,0,,,80,127
79509,note_on,2,0,2,,,,,,,,,1,,,80,61
79551,note_on,131,0,4,,,,,,,,,3,,,73,0
79551,note_on,131,0,5,,,,,,,,,4,,,57,0
79553,note_on,132,0,8,,,,,,,,,7,,,57,0
79594,note_on,85,0,1,,,,,,,,,0,,,80,0
79594,note_on,85,0,2,,,,,,,,,1,,,80,0
79594,note_on,0,0,1,,,,,,,,,0,,,81,127
79595,note_on,1,0,2,,,,,,,,,1,,,81,61
79596,note_on,45,0,4,,,,,,,,,3,,,73,64
79596,note_on,45,0,5,,,,,,,,,4,,,57,90
79596,note_on,43,0,8,,,,,,,,,7,,,57,127
79682,note_on,88,0,1,,,,,,,,,0,,,81,0
79683,note_on,88,0,2,,,,,,,,,1,,,81,0
79683,note_on,1,0,1,,,,,,,,,0,,,80,127
79684,note_on,1,0,2,,,,,,,,,1,,,80,61
79725,note_on,129,0,5,,,,,,,,,4,,,57,0
79725,note_on,129,0,4,,,,,,,,,3,,,73,0
79729,note_on,133,0,8,,,,,,,,,7,,,57,0
79772,note_on,89,0,1,,,,,,,,,0,,,80,0
79773,note_on,1,0,1,,,,,,,,,0,,,81,127
79773,note_on,48,0,4,,,,,,,,,3,,,73,64
79773,note_on,0,0,2,,,,,,,,,1,,,81,61
79773,note_on,89,0,2,,,,,,,,,1,,,80,0
79774,note_on,49,0,5,,,,,,,,,4,,,57,90
79775,note_on,46,0,8,,,,,,,,,7,,,57,127
79859,note_on,86,0,1,,,,,,,,,0,,,81,0
79861,note_on,0,0,2,,,,,,,,,1,,,80,61
79861,note_on,88,0,2,,,,,,,,,1,,,81,0
79861,note_on,2,0,1,,,,,,,,,0,,,80,127
79902,note_on,129,0,4,,,,,,,,,3,,,73,0
79902,note_on,127,0,8,,,,,,,,,7,,,57,0
79903,note_on,129,0,5,,,,,,,,,4,,,57,0
79948,note_on,87,0,1,,,,,,,,,0,,,80,0
79949,note_on,88,0,2,,,,,,,,,1,,,80,0
79949,note_on,1,0,1,,,,,,,,,0,,,81,127
79950,note_on,1,0,2,,,,,,,,,1,,,81,61
79951,note_on,887,0,3,,,,,,,,,2,,,73,65
79952,note_on,50,0,4,,,,,,,,,3,,,73,64
79952,note_on,49,0,5,,,,,,,,,4,,,57,90
79952,note_on,50,0,8,,,,,,,,,7,,,57,127
80038,note_on,89,0,1,,,,,,,,,0,,,81,0
80038,note_on,88,0,2,,,,,,,,,1,,,81,0
80041,note_on,3,0,1,,,,,,,,,0,,,80,127
80041,note_on,3,0,2,,,,,,,,,1,,,80,61
80078,note_on,126,0,4,,,,,,,,,3,,,73,0
80078,note_on,127,0,3,,,,,,,,,2,,,73,0
80079,note_on,127,0,8,,,,,,,,,7,,,57,0
80079,note_on,127,0,5,,,,,,,,,4,,,57,0
80087,note_on,666,0,7,,,,,,,,,6,,,73,0
80129,note_on,88,0,1,,,,,,,,,0,,,80,0
80129,note_on,88,0,2,,,,,,,,,1,,,80,0
80130,note_on,1,0,1,,,,,,,,,0,,,78,127
80133,note_on,54,0,5,,,,,,,,,4,,,51,90
80133,note_on,55,0,3,,,,,,,,,2,,,75,65
80133,note_on,0,0,7,,,,,,,,,6,,,69,127
80133,note_on,4,0,2,,,,,,,,,1,,,78,61
80133,note_on,46,0,7,,,,,,,,,6,,,78,127
80133,note_on,54,0,8,,,,,,,,,7,,,51,127
80133,note_on,55,0,4,,,,,,,,,3,,,69,64
80216,note_on,83,0,3,,,,,,,,,2,,,75,0
80218,note_on,2,0,3,,,,,,,,,2,,,73,65
80255,note_on,122,0,4,,,,,,,,,3,,,69,0
80259,note_on,126,0,5,,,,,,,,,4,,,51,0
80262,note_on,129,0,8,,,,,,,,,7,,,51,0
80304,note_on,86,0,3,,,,,,,,,2,,,73,0
80307,note_on,3,0,3,,,,,,,,,2,,,75,65
80307,note_on,48,0,5,,,,,,,,,4,,,51,90
80307,note_on,52,0,4,,,,,,,,,3,,,69,64
80307,note_on,45,0,8,,,,,,,,,7,,,51,127
80392,note_on,85,0,3,,,,,,,,,2,,,75,0
80395,note_on,3,0,3,,,,,,,,,2,,,73,65
80432,note_on,125,0,8,,,,,,,,,7,,,51,0
80432,note_on,125,0,5,,,,,,,,,4,,,51,0
80433,note_on,126,0,4,,,,,,,,,3,,,69,0
80479,note_on,84,0,3,,,,,,,,,2,,,73,0
80485,note_on,53,0,5,,,,,,,,,4,,,51,90
80485,note_on,53,0,8,,,,,,,,,7,,,51,127
80485,note_on,52,0,4,,,,,,,,,3,,,69,64
80485,note_on,6,0,3,,,,,,,,,2,,,75,65
80569,note_on,84,0,3,,,,,,,,,2,,,75,0
80572,note_on,3,0,3,,,,,,,,,2,,,73,65
80610,note_on,125,0,5,,,,,,,,,4,,,51,0
80613,note_on,483,0,1,,,,,,,,,0,,,78,0
80613,note_on,128,0,8,,,,,,,,,7,,,51,0
80613,note_on,480,0,2,,,,,,,,,1,,,78,0
80613,note_on,128,0,4,,,,,,,,,3,,,69,0
80656,note_on,84,0,3,,,,,,,,,2,,,73,0
80660,note_on,47,0,1,,,,,,,,,0,,,78,127
80661,note_on,48,0,2,,,,,,,,,1,,,78,61
80661,note_on,5,0,3,,,,,,,,,2,,,75,65
80662,note_on,52,0,5,,,,,,,,,4,,,51,90
80662,note_on,49,0,4,,,,,,,,,3,,,66,64
80663,note_on,50,0,8,,,,,,,,,7,,,51,127
80746,note_on,85,0,3,,,,,,,,,2,,,75,0
80749,note_on,3,0,3,,,,,,,,,2,,,73,65
80786,note_on,125,0,2,,,,,,,,,1,,,78,0
80786,note_on,124,0,4,,,,,,,,,3,,,66,0
80788,note_on,128,0,1,,,,,,,,,0,,,78,0
80789,note_on,127,0,5,,,,,,,,,4,,,51,0
80790,note_on,657,0,7,,,,,,,,,6,,,69,0
80790,note_on,0,0,7,,,,,,,,,6,,,78,0
80790,note_on,127,0,8,,,,,,,,,7,,,51,0
80835,note_on,86,0,3,,,,,,,,,2,,,73,0
80838,note_on,3,0,3,,,,,,,,,2,,,72,65
80838,note_on,50,0,1,,,,,,,,,0,,,80,127
80838,note_on,52,0,2,,,,,,,,,1,,,80,61
80839,note_on,53,0,4,,,,,,,,,3,,,63,64
80840,note_on,50,0,8,,,,,,,,,7,,,56,127
80840,note_on,51,0,5,,,,,,,,,4,,,56,90
80840,note_on,50,0,7,,,,,,,,,6,,,78,127
80840,note_on,0,0,7,,,,,,,,,6,,,75,127
80840,note_on,0,0,7,,,,,,,,,6,,,72,127
80924,note_on,86,0,1,,,,,,,,,0,,,80,0
80927,note_on,0,0,2,,,,,,,,,1,,,78,61
80927,note_on,3,0,1,,,,,,,,,0,,,78,127
80927,note_on,89,0,2,,,,,,,,,1,,,80,0
80967,note_on,128,0,4,,,,,,,,,3,,,63,0
80971,note_on,131,0,5,,,,,,,,,4,,,56,0
80974,note_on,134,0,8,,,,,,,,,7,,,56,0
81015,note_on,0,0,1,,,,,,,,,0,,,80,127
81015,note_on,88,0,1,,,,,,,,,0,,,78,0
81015,note_on,0,0,2,,,,,,,,,1,,,80,61
81015,note_on,88,0,2,,,,,,,,,1,,,78,0
81017,note_on,50,0,4,,,,,,,,,3,,,63,64
81017,note_on,46,0,5,,,,,,,,,4,,,56,90
81018,note_on,44,0,8,,,,,,,,,7,,,56,127
81103,note_on,0,0,1,,,,,,,,,0,,,78,127
81103,note_on,0,0,2,,,,,,,,,1,,,78,61
81103,note_on,88,0,2,,,,,,,,,1,,,80,0
81103,note_on,88,0,1,,,,,,,,,0,,,80,0
81139,note_on,122,0,5,,,,,,,,,4,,,56,0
81143,note_on,126,0,4,,,,,,,,,3,,,63,0
81143,note_on,125,0,8,,,,,,,,,7,,,56,0
81192,note_on,0,0,1,,,,,,,,,0,,,80,127
81192,note_on,89,0,1,,,,,,,,,0,,,78,0
81192,note_on,89,0,2,,,,,,,,,1,,,78,0
81196,note_on,57,0,5,,,,,,,,,4,,,56,90
81196,note_on,4,0,2,,,,,,,,,1,,,80,61
81196,note_on,53,0,8,,,,,,,,,7,,,56,127
81196,note_on,53,0,4,,,,,,,,,3,,,63,64
81281,note_on,0,0,2,,,,,,,,,1,,,78,61
81281,note_on,85,0,2,,,,,,,,,1,,,80,0
81281,note_on,0,0,1,,,,,,,,,0,,,78,127
81281,note_on,89,0,1,,,,,,,,,0,,,80,0
81321,note_on,125,0,4,,,,,,,,,3,,,63,0
81321,note_on,125,0,5,,,,,,,,,4,,,56,0
81321,note_on,125,0,8,,,,,,,,,7,,,56,0
81324,note_on,486,0,3,,,,,,,,,2,,,72,0
81370,note_on,89,0,2,,,,,,,,,1,,,78,0
81370,note_on,89,0,1,,,,,,,,,0,,,78,0
81371,note_on,1,0,2,,,,,,,,,1,,,80,61
81371,note_on,50,0,5,,,,,,,,,4,,,56,90
81371,note_on,47,0,3,,,,,,,,,2,,,72,65
81371,note_on,50,0,8,,,,,,,,,7,,,56,127
81371,note_on,1,0,1,,,,,,,,,0,,,80,127
81371,note_on,50,0,4,,,,,,,,,3,,,68,64
81454,note_on,83,0,1,,,,,,,,,0,,,80,0
81455,note_on,84,0,2,,,,,,,,,1,,,80,0
81456,note_on,2,0,1,,,,,,,,,0,,,78,127
81456,note_on,1,0,2,,,,,,,,,1,,,78,61
81496,note_on,125,0,3,,,,,,,,,2,,,72,0
81497,note_on,126,0,4,,,,,,,,,3,,,68,0
81500,note_on,129,0,5,,,,,,,,,4,,,56,0
81500,note_on,129,0,8,,,,,,,,,7,,,56,0
81507,note_on,667,0,7,,,,,,,,,6,,,72,0
81509,note_on,2,0,7,,,,,,,,,6,,,78,0
81511,note_on,2,0,7,,,,,,,,,6,,,75,0
81545,note_on,89,0,1,,,,,,,,,0,,,78,0
81545,note_on,0,0,1,,,,,,,,,0,,,76,127
81545,note_on,89,0,2,,,,,,,,,1,,,78,0
81550,note_on,5,0,2,,,,,,,,,1,,,76,61
81550,note_on,50,0,5,,,,,,,,,4,,,49,90
81550,note_on,39,0,7,,,,,,,,,6,,,76,127
81550,note_on,0,0,7,,,,,,,,,6,,,73,127
81550,note_on,0,0,7,,,,,,,,,6,,,68,127
81550,note_on,50,0,8,,,,,,,,,7,,,49,127
81550,note_on,54,0,3,,,,,,,,,2,,,73,65
81550,note_on,53,0,4,,,,,,,,,3,,,68,64
81633,note_on,83,0,3,,,,,,,,,2,,,73,0
81636,note_on,3,0,3,,,,,,,,,2,,,72,65
81673,note_on,123,0,4,,,,,,,,,3,,,68,0
81676,note_on,126,0,5,,,,,,,,,4,,,49,0
81679,note_on,129,0,8,,,,,,,,,7,,,49,0
81721,note_on,85,0,3,,,,,,,,,2,,,72,0
81724,note_on,51,0,4,,,,,,,,,3,,,68,64
81724,note_on,48,0,5,,,,,,,,,4,,,49,90
81724,note_on,3,0,3,,,,,,,,,2,,,73,65
81724,note_on,45,0,8,,,,,,,,,7,,,49,127
81810,note_on,86,0,3,,,,,,,,,2,,,73,0
81810,note_on,0,0,3,,,,,,,,,2,,,72,65
81855,note_on,131,0,5,,,,,,,,,4,,,49,0
81855,note_on,131,0,8,,,,,,,,,7,,,49,0
81858,note_on,134,0,4,,,,,,,,,3,,,68,0
81898,note_on,88,0,3,,,,,,,,,2,,,72,0
81901,note_on,3,0,3,,,,,,,,,2,,,73,65
81901,note_on,46,0,5,,,,,,,,,4,,,49,90
81901,note_on,43,0,4,,,,,,,,,3,,,68,64
81902,note_on,47,0,8,,,,,,,,,7,,,49,127
81986,note_on,85,0,3,,,,,,,,,2,,,73,0
81990,note_on,4,0,3,,,,,,,,,2,,,72,65
82030,note_on,129,0,5,,,,,,,,,4,,,49,0
82030,note_on,485,0,1,,,,,,,,,0,,,76,0
82030,note_on,480,0,2,,,,,,,,,1,,,76,0
82035,note_on,134,0,4,,,,,,,,,3,,,68,0
82035,note_on,133,0,8,,,,,,,,,7,,,49,0
82076,note_on,86,0,3,,,,,,,,,2,,,72,0
82079,note_on,49,0,2,,,,,,,,,1,,,76,61
82079,note_on,49,0,1,,,,,,,,,0,,,76,127
82079,note_on,3,0,3,,,,,,,,,2,,,73,65
82082,note_on,47,0,4,,,,,,,,,3,,,64,64
82083,note_on,53,0,5,,,,,,,,,4,,,49,90
82083,note_on,48,0,8,,,,,,,,,7,,,49,127
82164,note_on,85,0,3,,,,,,,,,2,,,73,0
82168,note_on,4,0,3,,,,,,,,,2,,,71,65
82206,note_on,124,0,4,,,,,,,,,3,,,64,0
82207,note_on,128,0,1,,,,,,,,,0,,,76,0
82207,note_on,128,0,2,,,,,,,,,1,,,76,0
82208,note_on,125,0,8,,,,,,,,,7,,,49,0
82208,note_on,0,0,7,,,,,,,,,6,,,73,0
82208,note_on,658,0,7,,,,,,,,,6,,,68,0
82208,note_on,125,0,5,,,,,,,,,4,,,49,0
82213,note_on,5,0,7,,,,,,,,,6,,,76,0
82252,note_on,84,0,3,,,,,,,,,2,,,71,0
82255,note_on,49,0,4,,,,,,,,,3,,,61,64
82255,note_on,48,0,2,,,,,,,,,1,,,78,61
82255,note_on,3,0,3,,,,,,,,,2,,,70,65
82255,note_on,48,0,1,,,,,,,,,0,,,78,127
82255,note_on,47,0,5,,,,,,,,,4,,,54,90
82256,note_on,48,0,8,,,,,,,,,7,,,54,127
82256,note_on,0,0,7,,,,,,,,,6,,,70,127
82256,note_on,0,0,7,,,,,,,,,6,,,73,127
82256,note_on,43,0,7,,,,,,,,,6,,,76,127
82341,note_on,86,0,1,,,,,,,,,0,,,78,0
82342,note_on,87,0,2,,,,,,,,,1,,,78,0
82342,note_on,1,0,1,,,,,,,,,0,,,76,127
82343,note_on,1,0,2,,,,,,,,,1,,,76,61
82385,note_on,130,0,4,,,,,,,,,3,,,61,0
82389,note_on,134,0,5,,,,,,,,,4,,,54,0
82389,note_on,133,0,8,,,,,,,,,7,,,54,0
82432,note_on,89,0,2,,,,,,,,,1,,,76,0
82432,note_on,90,0,1,,,,,,,,,0,,,76,0
82434,note_on,2,0,2,,,,,,,,,1,,,78,61
82434,note_on,45,0,5,,,,,,,,,4,,,54,90
82434,note_on,2,0,1,,,,,,,,,0,,,78,127
82434,note_on,45,0,8,,,,,,,,,7,,,54,127
82434,note_on,49,0,4,,,,,,,,,3,,,61,64
82517,note_on,83,0,1,,,,,,,,,0,,,78,0
82518,note_on,84,0,2,,,,,,,,,1,,,78,0
82520,note_on,3,0,1,,,,,,,,,0,,,76,127
82520,note_on,2,0,2,,,,,,,,,1,,,76,61
82563,note_on,129,0,4,,,,,,,,,3,,,61,0
82564,note_on,130,0,5,,,,,,,,,4,,,54,0
82565,note_on,131,0,8,,,,,,,,,7,,,54,0
82608,note_on,88,0,2,,,,,,,,,1,,,76,0
82608,note_on,88,0,1,,,,,,,,,0,,,76,0
82609,note_on,46,0,4,,,,,,,,,3,,,61,64
82609,note_on,1,0,2,,,,,,,,,1,,,78,61
82609,note_on,1,0,1,,,,,,,,,0,,,78,127
82610,note_on,46,0,5,,,,,,,,,4,,,54,90
82610,note_on,45,0,8,,,,,,,,,7,,,54,127
82699,note_on,0,0,2,,,,,,,,,1,,,76,61
82699,note_on,90,0,2,,,,,,,,,1,,,78,0
82699,note_on,0,0,1,,,,,,,,,0,,,76,127
82699,note_on,90,0,1,,,,,,,,,0,,,78,0
82737,note_on,128,0,4,,,,,,,,,3,,,61,0
82737,note_on,127,0,8,,,,,,,,,7,,,54,0
82737,note_on,127,0,5,,,,,,,,,4,,,54,0
82740,note_on,485,0,3,,,,,,,,,2,,,70,0
82785,note_on,86,0,2,,,,,,,,,1,,,76,0
82785,note_on,86,0,1,,,,,,,,,0,,,76,0
82786,note_on,1,0,2,,,,,,,,,1,,,78,61
82786,note_on,1,0,1,,,,,,,,,0,,,78,127
82788,note_on,51,0,8,,,,,,,,,7,,,54,127
82788,note_on,51,0,5,,,,,,,,,4,,,54,90
82788,note_on,48,0,3,,,,,,,,,2,,,69,65
82788,note_on,51,0,4,,,,,,,,,3,,,66,64
82876,note_on,90,0,2,,,,,,,,,1,,,78,0
82876,note_on,90,0,1,,,,,,,,,0,,,78,0
82876,note_on,0,0,1,,,,,,,,,0,,,76,127
82877,note_on,1,0,2,,,,,,,,,1,,,76,61
82915,note_on,127,0,4,,,,,,,,,3,,,66,0
82915,note_on,127,0,3,,,,,,,,,2,,,69,0
82918,note_on,130,0,8,,,,,,,,,7,,,54,0
82918,note_on,130,0,5,,,,,,,,,4,,,54,0
82925,note_on,669,0,7,,,,,,,,,6,,,70,0
82928,note_on,3,0,7,,,,,,,,,6,,,73,0
82930,note_on,2,0,7,,,,,,,,,6,,,76,0
82964,note_on,0,0,1,,,,,,,,,0,,,74,127
82964,note_on,88,0,1,,,,,,,,,0,,,76,0
82964,note_on,87,0,2,,,,,,,,,1,,,76,0
82968,note_on,50,0,5,,,,,,,,,4,,,47,90
82968,note_on,0,0,7,,,,,,,,,6,,,71,127
82968,note_on,0,0,7,,,,,,,,,6,,,66,127
82968,note_on,53,0,3,,,,,,,,,2,,,71,65
82968,note_on,38,0,7,,,,,,,,,6,,,74,127
82968,note_on,4,0,2,,,,,,,,,1,,,74,61
82968,note_on,53,0,4,,,,,,,,,3,,,66,64
82968,note_on,50,0,8,,,,,,,,,7,,,47,127
83297,note_on,329,0,2,,,,,,,,,1,,,74,0
83320,note_on,352,0,4,,,,,,,,,3,,,66,0
83320,note_on,352,0,5,,,,,,,,,4,,,47,0
83320,note_on,352,0,7,,,,,,,,,6,,,66,0
83320,note_on,352,0,3,,,,,,,,,2,,,71,0
83321,note_on,353,0,8,,,,,,,,,7,,,47,0
83322,note_on,0,0,7,,,,,,,,,6,,,74,0
83322,note_on,2,0,7,,,,,,,,,6,,,71,0
83448,note_on,484,0,1,,,,,,,,,0,,,74,0
83497,note_on,49,0,1,,,,,,,,,0,,,66,127
83498,note_on,178,0,4,,,,,,,,,3,,,66,64
83498,note_on,176,0,7,,,,,,,,,6,,,66,127
83498,note_on,178,0,5,,,,,,,,,4,,,54,90
83498,note_on,178,0,3,,,,,,,,,2,,,66,65
83498,note_on,201,0,2,,,,,,,,,1,,,66,61
83499,note_on,178,0,8,,,,,,,,,7,,,54,127
83625,note_on,128,0,1,,,,,,,,,0,,,66,0
83629,note_on,131,0,5,,,,,,,,,4,,,54,0
83629,note_on,131,0,4,,,,,,,,,3,,,66,0
83629,note_on,131,0,3,,,,,,,,,2,,,66,0
83629,note_on,131,0,2,,,,,,,,,1,,,66,0
83632,note_on,134,0,7,,,,,,,,,6,,,66,0
83638,note_on,139,0,8,,,,,,,,,7,,,54,0
83675,note_on,46,0,2,,,,,,,,,1,,,71,61
83675,note_on,50,0,1,,,,,,,,,0,,,71,127
83678,note_on,49,0,3,,,,,,,,,2,,,71,65
83678,note_on,46,0,7,,,,,,,,,6,,,71,127
83678,note_on,49,0,4,,,,,,,,,3,,,71,64
83678,note_on,40,0,8,,,,,,,,,7,,,59,127
83678,note_on,49,0,5,,,,,,,,,4,,,59,90
83803,note_on,128,0,1,,,,,,,,,0,,,71,0
83806,note_on,131,0,2,,,,,,,,,1,,,71,0
83806,note_on,128,0,3,,,,,,,,,2,,,71,0
83806,note_on,128,0,4,,,,,,,,,3,,,71,0
83808,note_on,130,0,5,,,,,,,,,4,,,59,0
83811,note_on,133,0,8,,,,,,,,,7,,,59,0
83814,note_on,136,0,7,,,,,,,,,6,,,71,0
83851,note_on,48,0,1,,,,,,,,,0,,,71,127
83852,note_on,46,0,4,,,,,,,,,3,,,71,64
83852,note_on,46,0,3,,,,,,,,,2,,,71,65
83852,note_on,46,0,2,,,,,,,,,1,,,71,61
83852,note_on,44,0,5,,,,,,,,,4,,,59,90
83853,note_on,39,0,7,,,,,,,,,6,,,71,127
83854,note_on,43,0,8,,,,,,,,,7,,,59,127
83980,note_on,129,0,1,,,,,,,,,0,,,71,0
83984,note_on,132,0,4,,,,,,,,,3,,,71,0
83984,note_on,132,0,2,,,,,,,,,1,,,71,0
83984,note_on,131,0,7,,,,,,,,,6,,,71,0
83984,note_on,132,0,3,,,,,,,,,2,,,71,0
83984,note_on,132,0,5,,,,,,,,,4,,,59,0
83989,note_on,135,0,8,,,,,,,,,7,,,59,0
84029,note_on,45,0,2,,,,,,,,,1,,,71,61
84029,note_on,49,0,1,,,,,,,,,0,,,71,127
84033,note_on,49,0,3,,,,,,,,,2,,,71,65
84033,note_on,49,0,7,,,,,,,,,6,,,71,127
84033,note_on,49,0,4,,,,,,,,,3,,,71,64
84033,note_on,44,0,8,,,,,,,,,7,,,59,127
84033,note_on,49,0,5,,,,,,,,,4,,,59,90
84158,note_on,125,0,4,,,,,,,,,3,,,71,0
84158,note_on,125,0,3,,,,,,,,,2,,,71,0
84158,note_on,129,0,1,,,,,,,,,0,,,71,0
84160,note_on,131,0,2,,,,,,,,,1,,,71,0
84160,note_on,127,0,5,,,,,,,,,4,,,59,0
84160,note_on,127,0,7,,,,,,,,,6,,,71,0
84168,note_on,135,0,8,,,,,,,,,7,,,59,0
84205,note_on,47,0,1,,,,,,,,,0,,,69,127
84206,note_on,48,0,3,,,,,,,,,2,,,69,65
84206,note_on,46,0,2,,,,,,,,,1,,,69,61
84207,note_on,49,0,4,,,,,,,,,3,,,69,64
84208,note_on,40,0,8,,,,,,,,,7,,,57,127
84208,note_on,48,0,5,,,,,,,,,4,,,57,90
84208,note_on,48,0,7,,,,,,,,,6,,,69,127
84251,note_on,45,0,3,,,,,,,,,2,,,69,0
84251,note_on,45,0,2,,,,,,,,,1,,,69,0
84251,note_on,44,0,4,,,,,,,,,3,,,69,0
84252,note_on,44,0,8,,,,,,,,,7,,,57,0
84252,note_on,44,0,5,,,,,,,,,4,,,57,0
84252,note_on,44,0,7,,,,,,,,,6,,,69,0
84270,note_on,65,0,1,,,,,,,,,0,,,69,0
84294,note_on,43,0,2,,,,,,,,,1,,,67,61
84294,note_on,24,0,1,,,,,,,,,0,,,67,127
84294,note_on,43,0,3,,,,,,,,,2,,,67,65
84298,note_on,46,0,8,,,,,,,,,7,,,55,127
84298,note_on,46,0,7,,,,,,,,,6,,,67,127
84298,note_on,47,0,4,,,,,,,,,3,,,67,64
84298,note_on,46,0,5,,,,,,,,,4,,,55,90
84336,note_on,38,0,4,,,,,,,,,3,,,67,0
84337,note_on,43,0,2,,,,,,,,,1,,,67,0
84341,note_on,43,0,7,,,,,,,,,6,,,67,0
84341,note_on,43,0,5,,,,,,,,,4,,,55,0
84341,note_on,47,0,3,,,,,,,,,2,,,67,0
84345,note_on,47,0,8,,,,,,,,,7,,,55,0
84360,note_on,66,0,1,,,,,,,,,0,,,67,0
84383,note_on,23,0,1,,,,,,,,,0,,,66,127
84383,note_on,46,0,2,,,,,,,,,1,,,66,61
84387,note_on,42,0,8,,,,,,,,,7,,,54,127
84387,note_on,46,0,5,,,,,,,,,4,,,54,90
84387,note_on,51,0,4,,,,,,,,,3,,,66,64
84387,note_on,46,0,3,,,,,,,,,2,,,66,65
84387,note_on,46,0,7,,,,,,,,,6,,,66,127
84510,note_on,127,0,1,,,,,,,,,0,,,66,0
84515,note_on,128,0,3,,,,,,,,,2,,,66,0
84516,note_on,133,0,2,,,,,,,,,1,,,66,0
84516,note_on,129,0,4,,,,,,,,,3,,,66,0
84516,note_on,129,0,5,,,,,,,,,4,,,54,0
84516,note_on,129,0,7,,,,,,,,,6,,,66,0
84522,note_on,135,0,8,,,,,,,,,7,,,54,0
84560,note_on,50,0,1,,,,,,,,,0,,,66,127
84565,note_on,49,0,5,,,,,,,,,4,,,54,90
84565,note_on,50,0,3,,,,,,,,,2,,,66,68
84565,note_on,43,0,8,,,,,,,,,7,,,54,127
84565,note_on,49,0,7,,,,,,,,,6,,,66,127
84565,note_on,49,0,4,,,,,,,,,3,,,66,64
84565,note_on,49,0,2,,,,,,,,,1,,,66,61
84688,note_on,128,0,1,,,,,,,,,0,,,66,0
84689,note_on,124,0,3,,,,,,,,,2,,,66,0
84690,note_on,125,0,4,,,,,,,,,3,,,66,0
84691,note_on,126,0,2,,,,,,,,,1,,,66,0
84692,note_on,127,0,5,,,,,,,,,4,,,54,0
84692,note_on,127,0,7,,,,,,,,,6,,,66,0
84698,note_on,133,0,8,,,,,,,,,7,,,54,0
84738,note_on,49,0,3,,,,,,,,,2,,,66,68
84738,note_on,47,0,2,,,,,,,,,1,,,66,61
84738,note_on,50,0,1,,,,,,,,,0,,,66,127
84742,note_on,50,0,7,,,,,,,,,6,,,66,127
84742,note_on,52,0,4,,,,,,,,,3,,,66,64
84742,note_on,44,0,8,,,,,,,,,7,,,54,127
84742,note_on,50,0,5,,,,,,,,,4,,,54,90
84868,note_on,130,0,1,,,,,,,,,0,,,66,0
84871,note_on,133,0,3,,,,,,,,,2,,,66,0
84871,note_on,133,0,2,,,,,,,,,1,,,66,0
84871,note_on,129,0,4,,,,,,,,,3,,,66,0
84872,note_on,130,0,7,,,,,,,,,6,,,66,0
84872,note_on,130,0,5,,,,,,,,,4,,,54,0
84877,note_on,135,0,8,,,,,,,,,7,,,54,0
84914,note_on,46,0,1,,,,,,,,,0,,,64,127
84916,note_on,45,0,4,,,,,,,,,3,,,64,64
84916,note_on,45,0,2,,,,,,,,,1,,,64,61
84916,note_on,39,0,8,,,,,,,,,7,,,52,127
84916,note_on,44,0,7,,,,,,,,,6,,,64,127
84916,note_on,44,0,5,,,,,,,,,4,,,52,90
84916,note_on,45,0,3,,,,,,,,,2,,,64,68
84959,note_on,43,0,2,,,,,,,,,1,,,64,0
84960,note_on,44,0,4,,,,,,,,,3,,,64,0
84960,note_on,44,0,5,,,,,,,,,4,,,52,0
84960,note_on,44,0,3,,,,,,,,,2,,,64,0
84964,note_on,48,0,8,,,,,,,,,7,,,52,0
84964,note_on,48,0,7,,,,,,,,,6,,,64,0
84979,note_on,65,0,1,,,,,,,,,0,,,64,0
85001,note_on,22,0,1,,,,,,,,,0,,,62,127
85002,note_on,43,0,2,,,,,,,,,1,,,62,61
85003,note_on,43,0,4,,,,,,,,,3,,,62,64
85003,note_on,43,0,3,,,,,,,,,2,,,62,68
85004,note_on,40,0,8,,,,,,,,,7,,,50,127
85004,note_on,40,0,7,,,,,,,,,6,,,62,127
85004,note_on,44,0,5,,,,,,,,,4,,,50,90
85049,note_on,46,0,4,,,,,,,,,3,,,62,0
85049,note_on,47,0,2,,,,,,,,,1,,,62,0
85049,note_on,45,0,7,,,,,,,,,6,,,62,0
85049,note_on,46,0,3,,,,,,,,,2,,,62,0
85049,note_on,45,0,5,,,,,,,,,4,,,50,0
85055,note_on,51,0,8,,,,,,,,,7,,,50,0
85067,note_on,66,0,1,,,,,,,,,0,,,62,0
85092,note_on,25,0,1,,,,,,,,,0,,,64,127
85093,note_on,44,0,2,,,,,,,,,1,,,64,61
85093,note_on,44,0,3,,,,,,,,,2,,,64,68
85095,note_on,46,0,4,,,,,,,,,3,,,64,64
85095,note_on,40,0,8,,,,,,,,,7,,,52,127
85095,note_on,46,0,7,,,,,,,,,6,,,64,127
85095,note_on,46,0,5,,,,,,,,,4,,,52,90
85220,note_on,128,0,1,,,,,,,,,0,,,64,0
85224,note_on,131,0,3,,,,,,,,,2,,,64,0
85224,note_on,129,0,4,,,,,,,,,3,,,64,0
85224,note_on,129,0,5,,,,,,,,,4,,,52,0
85225,note_on,132,0,2,,,,,,,,,1,,,64,0
85228,note_on,133,0,8,,,,,,,,,7,,,52,0
85229,note_on,134,0,7,,,,,,,,,6,,,64,0
85271,note_on,47,0,3,,,,,,,,,2,,,61,68
85271,note_on,47,0,4,,,,,,,,,3,,,61,64
85271,note_on,46,0,2,,,,,,,,,1,,,61,61
85271,note_on,47,0,5,,,,,,,,,4,,,49,90
85271,note_on,51,0,1,,,,,,,,,0,,,61,127
85272,note_on,43,0,7,,,,,,,,,6,,,61,127
85272,note_on,44,0,8,,,,,,,,,7,,,49,127
85400,note_on,129,0,1,,,,,,,,,0,,,61,0
85402,note_on,131,0,3,,,,,,,,,2,,,61,0
85403,note_on,132,0,2,,,,,,,,,1,,,61,0
85403,note_on,132,0,5,,,,,,,,,4,,,49,0
85403,note_on,132,0,4,,,,,,,,,3,,,61,0
85403,note_on,131,0,7,,,,,,,,,6,,,61,0
85409,note_on,137,0,8,,,,,,,,,7,,,49,0
85446,note_on,46,0,1,,,,,,,,,0,,,66,127
85449,note_on,46,0,2,,,,,,,,,1,,,66,61
85451,note_on,48,0,4,,,,,,,,,3,,,66,64
85451,note_on,42,0,8,,,,,,,,,7,,,54,127
85451,note_on,48,0,7,,,,,,,,,6,,,66,127
85451,note_on,0,0,7,,,,,,,,,6,,,57,127
85451,note_on,49,0,3,,,,,,,,,2,,,66,68
85451,note_on,48,0,5,,,,,,,,,4,,,54,90
85575,note_on,129,0,1,,,,,,,,,0,,,66,0
85579,note_on,128,0,4,,,,,,,,,3,,,66,0
85579,note_on,128,0,3,,,,,,,,,2,,,66,0
85581,note_on,130,0,7,,,,,,,,,6,,,57,0
85581,note_on,0,0,7,,,,,,,,,6,,,66,0
85581,note_on,132,0,2,,,,,,,,,1,,,66,0
85581,note_on,130,0,5,,,,,,,,,4,,,54,0
85585,note_on,134,0,8,,,,,,,,,7,,,54,0
85625,note_on,44,0,5,,,,,,,,,4,,,42,90
85625,note_on,46,0,4,,,,,,,,,3,,,54,64
85625,note_on,46,0,3,,,,,,,,,2,,,66,68
85625,note_on,44,0,2,,,,,,,,,1,,,66,61
85625,note_on,50,0,1,,,,,,,,,0,,,66,127
85628,note_on,43,0,8,,,,,,,,,7,,,42,127
85628,note_on,47,0,7,,,,,,,,,6,,,66,127
85754,note_on,129,0,1,,,,,,,,,0,,,66,0
85755,note_on,130,0,4,,,,,,,,,3,,,54,0
85755,note_on,130,0,3,,,,,,,,,2,,,66,0
85759,note_on,134,0,2,,,,,,,,,1,,,66,0
85759,note_on,134,0,5,,,,,,,,,4,,,42,0
85759,note_on,131,0,7,,,,,,,,,6,,,66,0
85764,note_on,136,0,8,,,,,,,,,7,,,42,0
85801,note_on,47,0,1,,,,,,,,,0,,,78,127
85801,note_on,42,0,2,,,,,,,,,1,,,59,61
85806,note_on,51,0,3,,,,,,,,,2,,,59,68
85806,note_on,51,0,4,,,,,,,,,3,,,59,64
85807,program_change,0,0,5,,,,,,,,42,4,,,,
85807,note_on,48,0,5,,,,,,,,,4,,,47,90
85807,note_on,0,0,7,,,,,,,,,6,,,66,127
85807,note_on,43,0,8,,,,,,,,,7,,,47,127
85807,note_on,48,0,7,,,,,,,,,6,,,71,127
85807,note_on,0,0,7,,,,,,,,,6,,,62,127
85889,note_on,88,0,1,,,,,,,,,0,,,78,0
85889,note_on,0,0,1,,,,,,,,,0,,,74,127
85976,note_on,87,0,1,,,,,,,,,0,,,74,0
85979,note_on,3,0,1,,,,,,,,,0,,,71,127
86062,note_on,83,0,1,,,,,,,,,0,,,71,0
86067,note_on,5,0,1,,,,,,,,,0,,,83,127
86132,note_on,65,0,1,,,,,,,,,0,,,83,0
86133,note_on,332,0,2,,,,,,,,,1,,,59,0
86156,note_on,24,0,1,,,,,,,,,0,,,78,127
86157,note_on,351,0,3,,,,,,,,,2,,,59,0
86157,note_on,350,0,5,,,,,,,,,4,,,47,0
86157,note_on,350,0,7,,,,,,,,,6,,,62,0
86157,note_on,351,0,4,,,,,,,,,3,,,59,0
86158,note_on,351,0,8,,,,,,,,,7,,,47,0
86159,note_on,0,0,7,,,,,,,,,6,,,71,0
86159,note_on,2,0,7,,,,,,,,,6,,,66,0
86241,note_on,85,0,1,,,,,,,,,0,,,78,0
86244,note_on,3,0,1,,,,,,,,,0,,,74,127
86332,note_on,88,0,1,,,,,,,,,0,,,74,0
86334,note_on,177,0,5,,,,,,,,,4,,,50,90
86334,note_on,2,0,1,,,,,,,,,0,,,71,127
86334,note_on,176,0,8,,,,,,,,,7,,,50,127
86334,note_on,175,0,7,,,,,,,,,6,,,71,127
86419,note_on,85,0,1,,,,,,,,,0,,,71,0
86422,note_on,3,0,1,,,,,,,,,0,,,83,127
86460,note_on,126,0,5,,,,,,,,,4,,,50,0
86460,note_on,126,0,8,,,,,,,,,7,,,50,0
86460,note_on,126,0,7,,,,,,,,,6,,,71,0
86486,note_on,64,0,1,,,,,,,,,0,,,83,0
86511,note_on,25,0,1,,,,,,,,,0,,,78,127
86511,note_on,51,0,5,,,,,,,,,4,,,47,90
86512,note_on,52,0,7,,,,,,,,,6,,,74,127
86512,note_on,52,0,8,,,,,,,,,7,,,47,127
86512,note_on,0,0,7,,,,,,,,,6,,,66,127
86594,note_on,83,0,1,,,,,,,,,0,,,78,0
86598,note_on,4,0,1,,,,,,,,,0,,,74,127
86642,note_on,131,0,5,,,,,,,,,4,,,47,0
86648,note_on,136,0,8,,,,,,,,,7,,,47,0
86686,note_on,88,0,1,,,,,,,,,0,,,74,0
86687,note_on,45,0,5,,,,,,,,,4,,,50,90
86687,note_on,1,0,1,,,,,,,,,0,,,71,127
86687,note_on,39,0,8,,,,,,,,,7,,,50,127
86774,note_on,87,0,1,,,,,,,,,0,,,71,0
86776,note_on,2,0,1,,,,,,,,,0,,,83,127
86816,note_on,129,0,5,,,,,,,,,4,,,50,0
86816,note_on,129,0,8,,,,,,,,,7,,,50,0
86841,note_on,65,0,1,,,,,,,,,0,,,83,0
86866,note_on,25,0,1,,,,,,,,,0,,,78,127
86866,note_on,50,0,5,,,,,,,,,4,,,47,90
86866,note_on,50,0,8,,,,,,,,,7,,,47,127
86951,note_on,85,0,1,,,,,,,,,0,,,78,0
86953,note_on,2,0,1,,,,,,,,,0,,,74,127
86992,note_on,126,0,8,,,,,,,,,7,,,47,0
86993,note_on,127,0,5,,,,,,,,,4,,,47,0
87039,note_on,86,0,1,,,,,,,,,0,,,74,0
87042,note_on,49,0,5,,,,,,,,,4,,,50,90
87042,note_on,50,0,8,,,,,,,,,7,,,50,127
87042,note_on,3,0,1,,,,,,,,,0,,,71,127
87128,note_on,86,0,1,,,,,,,,,0,,,71,0
87131,note_on,3,0,1,,,,,,,,,0,,,83,127
87168,note_on,126,0,8,,,,,,,,,7,,,50,0
87171,note_on,129,0,5,,,,,,,,,4,,,50,0
87177,note_on,665,0,7,,,,,,,,,6,,,66,0
87179,note_on,2,0,7,,,,,,,,,6,,,74,0
87205,note_on,74,0,1,,,,,,,,,0,,,83,0
87220,note_on,49,0,5,,,,,,,,,4,,,49,90
87220,note_on,41,0,7,,,,,,,,,6,,,74,127
87220,note_on,0,0,7,,,,,,,,,6,,,70,127
87220,note_on,52,0,8,,,,,,,,,7,,,49,127
87220,note_on,15,0,1,,,,,,,,,0,,,76,127
87307,note_on,87,0,1,,,,,,,,,0,,,76,0
87308,note_on,1,0,1,,,,,,,,,0,,,73,127
87349,note_on,129,0,8,,,,,,,,,7,,,49,0
87353,note_on,133,0,5,,,,,,,,,4,,,49,0
87394,note_on,86,0,1,,,,,,,,,0,,,73,0
87398,note_on,4,0,1,,,,,,,,,0,,,70,127
87398,note_on,45,0,5,,,,,,,,,4,,,54,90
87398,note_on,49,0,8,,,,,,,,,7,,,54,127
87482,note_on,84,0,1,,,,,,,,,0,,,70,0
87485,note_on,3,0,1,,,,,,,,,0,,,79,127
87525,note_on,127,0,5,,,,,,,,,4,,,54,0
87525,note_on,127,0,8,,,,,,,,,7,,,54,0
87571,note_on,86,0,1,,,,,,,,,0,,,79,0
87575,note_on,4,0,1,,,,,,,,,0,,,76,127
87575,note_on,50,0,5,,,,,,,,,4,,,49,90
87575,note_on,50,0,8,,,,,,,,,7,,,49,127
87659,note_on,84,0,1,,,,,,,,,0,,,76,0
87661,note_on,2,0,1,,,,,,,,,0,,,73,127
87701,note_on,126,0,8,,,,,,,,,7,,,49,0
87704,note_on,129,0,5,,,,,,,,,4,,,49,0
87747,note_on,86,0,1,,,,,,,,,0,,,73,0
87752,note_on,51,0,8,,,,,,,,,7,,,54,127
87752,note_on,5,0,1,,,,,,,,,0,,,70,127
87752,note_on,48,0,5,,,,,,,,,4,,,54,90
87837,note_on,85,0,1,,,,,,,,,0,,,70,0
87839,note_on,2,0,1,,,,,,,,,0,,,79,127
87878,note_on,126,0,8,,,,,,,,,7,,,54,0
87878,note_on,126,0,5,,,,,,,,,4,,,54,0
87881,note_on,661,0,7,,,,,,,,,6,,,70,0
87884,note_on,3,0,7,,,,,,,,,6,,,74,0
87903,note_on,64,0,1,,,,,,,,,0,,,79,0
87929,note_on,0,0,7,,,,,,,,,6,,,70,127
87929,note_on,51,0,8,,,,,,,,,7,,,49,127
87929,note_on,51,0,5,,,,,,,,,4,,,49,90
87929,note_on,26,0,1,,,,,,,,,0,,,76,127
87929,note_on,45,0,7,,,,,,,,,6,,,76,127
88014,note_on,85,0,1,,,,,,,,,0,,,76,0
88016,note_on,2,0,1,,,,,,,,,0,,,73,127
88064,note_on,135,0,8,,,,,,,,,7,,,49,0
88064,note_on,135,0,5,,,,,,,,,4,,,49,0
88101,note_on,85,0,1,,,,,,,,,0,,,73,0
88107,note_on,43,0,8,,,,,,,,,7,,,54,127
88107,note_on,43,0,5,,,,,,,,,4,,,54,90
88107,note_on,6,0,1,,,,,,,,,0,,,70,127
88193,note_on,86,0,1,,,,,,,,,0,,,70,0
88194,note_on,1,0,1,,,,,,,,,0,,,79,127
88235,note_on,128,0,8,,,,,,,,,7,,,54,0
88238,note_on,131,0,5,,,,,,,,,4,,,54,0
88257,note_on,63,0,1,,,,,,,,,0,,,79,0
88283,note_on,26,0,1,,,,,,,,,0,,,76,127
88283,note_on,45,0,5,,,,,,,,,4,,,49,90
88285,note_on,50,0,8,,,,,,,,,7,,,49,127
88368,note_on,85,0,1,,,,,,,,,0,,,76,0
88372,note_on,4,0,1,,,,,,,,,0,,,73,127
88409,note_on,124,0,8,,,,,,,,,7,,,49,0
88409,note_on,126,0,5,,,,,,,,,4,,,49,0
88456,note_on,84,0,1,,,,,,,,,0,,,73,0
88459,note_on,3,0,1,,,,,,,,,0,,,70,127
88460,note_on,51,0,8,,,,,,,,,7,,,54,127
88460,note_on,51,0,5,,,,,,,,,4,,,54,90
88548,note_on,89,0,1,,,,,,,,,0,,,70,0
88549,note_on,1,0,1,,,,,,,,,0,,,79,127
88588,note_on,128,0,8,,,,,,,,,7,,,54,0
88590,note_on,130,0,5,,,,,,,,,4,,,54,0
88599,note_on,670,0,7,,,,,,,,,6,,,70,0
88601,note_on,2,0,7,,,,,,,,,6,,,76,0
88614,note_on,65,0,1,,,,,,,,,0,,,79,0
88637,note_on,23,0,1,,,,,,,,,0,,,78,127
88639,note_on,49,0,5,,,,,,,,,4,,,47,90
88640,note_on,0,0,7,,,,,,,,,6,,,66,127
88640,note_on,39,0,7,,,,,,,,,6,,,74,127
88640,note_on,52,0,8,,,,,,,,,7,,,47,127
88723,note_on,86,0,1,,,,,,,,,0,,,78,0
88726,note_on,3,0,1,,,,,,,,,0,,,74,127
88764,note_on,124,0,8,,,,,,,,,7,,,47,0
88770,note_on,131,0,5,,,,,,,,,4,,,47,0
88812,note_on,86,0,1,,,,,,,,,0,,,74,0
88814,note_on,44,0,5,,,,,,,,,4,,,50,90
88814,note_on,2,0,1,,,,,,,,,0,,,71,127
88817,note_on,53,0,8,,,,,,,,,7,,,50,127
88901,note_on,87,0,1,,,,,,,,,0,,,71,0
88902,note_on,1,0,1,,,,,,,,,0,,,83,127
88939,note_on,122,0,8,,,,,,,,,7,,,50,0
88943,note_on,129,0,5,,,,,,,,,4,,,50,0
88967,note_on,65,0,1,,,,,,,,,0,,,83,0
88992,note_on,53,0,8,,,,,,,,,7,,,47,127
88992,note_on,49,0,5,,,,,,,,,4,,,47,90
88992,note_on,25,0,1,,,,,,,,,0,,,78,127
89078,note_on,86,0,1,,,,,,,,,0,,,78,0
89081,note_on,3,0,1,,,,,,,,,0,,,74,127
89119,note_on,127,0,8,,,,,,,,,7,,,47,0
89119,note_on,127,0,5,,,,,,,,,4,,,47,0
89167,note_on,86,0,1,,,,,,,,,0,,,74,0
89171,note_on,4,0,1,,,,,,,,,0,,,71,127
89171,note_on,52,0,8,,,,,,,,,7,,,50,127
89171,note_on,52,0,5,,,,,,,,,4,,,50,90
89256,note_on,85,0,1,,,,,,,,,0,,,71,0
89258,note_on,2,0,1,,,,,,,,,0,,,83,127
89297,note_on,126,0,8,,,,,,,,,7,,,50,0
89297,note_on,126,0,5,,,,,,,,,4,,,50,0
89298,note_on,658,0,7,,,,,,,,,6,,,66,0
89302,note_on,4,0,7,,,,,,,,,6,,,74,0
89320,note_on,62,0,1,,,,,,,,,0,,,83,0
89348,note_on,0,0,7,,,,,,,,,6,,,66,127
89348,note_on,51,0,5,,,,,,,,,4,,,47,90
89348,note_on,28,0,1,,,,,,,,,0,,,78,127
89348,note_on,46,0,7,,,,,,,,,6,,,74,127
89348,note_on,51,0,8,,,,,,,,,7,,,47,127
89432,note_on,84,0,1,,,,,,,,,0,,,78,0
89435,note_on,3,0,1,,,,,,,,,0,,,74,127
89480,note_on,132,0,5,,,,,,,,,4,,,47,0
89483,note_on,135,0,8,,,,,,,,,7,,,47,0
89521,note_on,86,0,1,,,,,,,,,0,,,74,0
89524,note_on,41,0,8,,,,,,,,,7,,,50,127
89524,note_on,44,0,5,,,,,,,,,4,,,50,90
89524,note_on,3,0,1,,,,,,,,,0,,,71,127
89609,note_on,85,0,1,,,,,,,,,0,,,71,0
89611,note_on,2,0,1,,,,,,,,,0,,,83,127
89649,note_on,125,0,5,,,,,,,,,4,,,50,0
89650,note_on,126,0,8,,,,,,,,,7,,,50,0
89677,note_on,66,0,1,,,,,,,,,0,,,83,0
89707,note_on,58,0,5,,,,,,,,,4,,,47,90
89707,note_on,57,0,8,,,,,,,,,7,,,47,127
89707,note_on,30,0,1,,,,,,,,,0,,,78,127
89786,note_on,79,0,1,,,,,,,,,0,,,78,0
89789,note_on,3,0,1,,,,,,,,,0,,,74,127
89828,note_on,121,0,8,,,,,,,,,7,,,47,0
89829,note_on,122,0,5,,,,,,,,,4,,,47,0
89875,note_on,86,0,1,,,,,,,,,0,,,74,0
89879,note_on,50,0,5,,,,,,,,,4,,,50,90
89879,note_on,4,0,1,,,,,,,,,0,,,71,127
89879,note_on,51,0,8,,,,,,,,,7,,,50,127
89965,note_on,86,0,1,,,,,,,,,0,,,71,0
89967,note_on,2,0,1,,,,,,,,,0,,,83,127
90004,note_on,125,0,8,,,,,,,,,7,,,50,0
90005,note_on,126,0,5,,,,,,,,,4,,,50,0
90018,note_on,670,0,7,,,,,,,,,6,,,66,0
90018,note_on,0,0,7,,,,,,,,,6,,,74,0
90031,note_on,64,0,1,,,,,,,,,0,,,83,0
90056,note_on,25,0,1,,,,,,,,,0,,,78,127
90056,note_on,51,0,5,,,,,,,,,4,,,47,90
90058,note_on,40,0,7,,,,,,,,,6,,,75,127
90058,note_on,0,0,7,,,,,,,,,6,,,66,127
90058,note_on,54,0,8,,,,,,,,,7,,,47,127
90142,note_on,86,0,1,,,,,,,,,0,,,78,0
90144,note_on,2,0,1,,,,,,,,,0,,,75,127
90186,note_on,128,0,8,,,,,,,,,7,,,47,0
90188,note_on,132,0,5,,,,,,,,,4,,,47,0
90231,note_on,87,0,1,,,,,,,,,0,,,75,0
90234,note_on,3,0,1,,,,,,,,,0,,,71,127
90234,note_on,46,0,5,,,,,,,,,4,,,51,90
90234,note_on,48,0,8,,,,,,,,,7,,,51,127
90320,note_on,86,0,1,,,,,,,,,0,,,71,0
90322,note_on,2,0,1,,,,,,,,,0,,,83,127
90360,note_on,126,0,8,,,,,,,,,7,,,51,0
90361,note_on,127,0,5,,,,,,,,,4,,,51,0
90385,note_on,63,0,1,,,,,,,,,0,,,83,0
90411,note_on,50,0,5,,,,,,,,,4,,,47,90
90411,note_on,26,0,1,,,,,,,,,0,,,78,127
90411,note_on,51,0,8,,,,,,,,,7,,,47,127
90496,note_on,85,0,1,,,,,,,,,0,,,78,0
90497,note_on,1,0,1,,,,,,,,,0,,,75,127
90537,note_on,126,0,8,,,,,,,,,7,,,47,0
90540,note_on,129,0,5,,,,,,,,,4,,,47,0
90586,note_on,89,0,1,,,,,,,,,0,,,75,0
90587,note_on,50,0,8,,,,,,,,,7,,,51,127
90587,note_on,47,0,5,,,,,,,,,4,,,51,90
90587,note_on,1,0,1,,,,,,,,,0,,,71,127
90674,note_on,87,0,1,,,,,,,,,0,,,71,0
90676,note_on,2,0,1,,,,,,,,,0,,,83,127
90716,note_on,658,0,7,,,,,,,,,6,,,66,0
90716,note_on,129,0,5,,,,,,,,,4,,,51,0
90716,note_on,129,0,8,,,,,,,,,7,,,51,0
90720,note_on,4,0,7,,,,,,,,,6,,,75,0
90740,note_on,64,0,1,,,,,,,,,0,,,83,0
90765,note_on,25,0,1,,,,,,,,,0,,,78,127
90766,note_on,50,0,5,,,,,,,,,4,,,47,90
90767,note_on,47,0,7,,,,,,,,,6,,,75,127
90767,note_on,0,0,7,,,,,,,,,6,,,66,127
90767,note_on,51,0,8,,,,,,,,,7,,,47,127
90852,note_on,87,0,1,,,,,,,,,0,,,78,0
90854,note_on,2,0,1,,,,,,,,,0,,,75,127
90898,note_on,132,0,5,,,,,,,,,4,,,47,0
90898,note_on,131,0,8,,,,,,,,,7,,,47,0
90939,note_on,85,0,1,,,,,,,,,0,,,75,0
90944,note_on,46,0,8,,,,,,,,,7,,,51,127
90944,note_on,46,0,5,,,,,,,,,4,,,51,90
90944,note_on,5,0,1,,,,,,,,,0,,,71,127
91027,note_on,83,0,1,,,,,,,,,0,,,71,0
91031,note_on,4,0,1,,,,,,,,,0,,,83,127
91073,note_on,129,0,8,,,,,,,,,7,,,51,0
91075,note_on,131,0,5,,,,,,,,,4,,,51,0
91094,note_on,63,0,1,,,,,,,,,0,,,83,0
91120,note_on,47,0,8,,,,,,,,,7,,,47,127
91120,note_on,26,0,1,,,,,,,,,0,,,78,127
91120,note_on,45,0,5,,,,,,,,,4,,,47,90
91206,note_on,86,0,1,,,,,,,,,0,,,78,0
91209,note_on,3,0,1,,,,,,,,,0,,,75,127
91247,note_on,127,0,8,,,,,,,,,7,,,47,0
91247,note_on,127,0,5,,,,,,,,,4,,,47,0
91294,note_on,85,0,1,,,,,,,,,0,,,75,0
91294,note_on,527,0,7,,,,,,,,,6,,,75,0
91299,note_on,52,0,8,,,,,,,,,7,,,51,127
91299,note_on,5,0,1,,,,,,,,,0,,,71,127
91299,note_on,52,0,5,,,,,,,,,4,,,51,90
91299,note_on,5,0,7,,,,,,,,,6,,,71,127
91382,note_on,83,0,1,,,,,,,,,0,,,71,0
91385,note_on,3,0,1,,,,,,,,,0,,,83,127
91421,note_on,122,0,8,,,,,,,,,7,,,51,0
91423,note_on,124,0,5,,,,,,,,,4,,,51,0
91423,note_on,124,0,7,,,,,,,,,6,,,71,0
91448,note_on,63,0,1,,,,,,,,,0,,,83,0
91475,note_on,54,0,8,,,,,,,,,7,,,52,127
91475,note_on,52,0,5,,,,,,,,,4,,,52,90
91475,note_on,52,0,7,,,,,,,,,6,,,59,127
91475,note_on,27,0,1,,,,,,,,,0,,,79,127
91478,note_on,3,0,7,,,,,,,,,6,,,66,0
91478,note_on,0,0,7,,,,,,,,,6,,,67,127
91559,note_on,84,0,1,,,,,,,,,0,,,79,0
91563,note_on,4,0,1,,,,,,,,,0,,,76,127
91602,note_on,127,0,8,,,,,,,,,7,,,52,0
91607,note_on,132,0,5,,,,,,,,,4,,,52,0
91648,note_on,85,0,1,,,,,,,,,0,,,76,0
91649,note_on,1,0,1,,,,,,,,,0,,,71,127
91653,note_on,46,0,5,,,,,,,,,4,,,56,90
91653,note_on,51,0,8,,,,,,,,,7,,,56,127
91738,note_on,89,0,1,,,,,,,,,0,,,71,0
91739,note_on,1,0,1,,,,,,,,,0,,,83,127
91778,note_on,125,0,8,,,,,,,,,7,,,56,0
91782,note_on,129,0,5,,,,,,,,,4,,,56,0
91803,note_on,64,0,1,,,,,,,,,0,,,83,0
91828,note_on,46,0,5,,,,,,,,,4,,,52,90
91828,note_on,25,0,1,,,,,,,,,0,,,79,127
91830,note_on,52,0,8,,,,,,,,,7,,,52,127
91915,note_on,87,0,1,,,,,,,,,0,,,79,0
91918,note_on,3,0,1,,,,,,,,,0,,,76,127
91955,note_on,127,0,5,,,,,,,,,4,,,52,0
91955,note_on,125,0,8,,,,,,,,,7,,,52,0
92001,note_on,83,0,1,,,,,,,,,0,,,76,0
92007,note_on,52,0,8,,,,,,,,,7,,,56,127
92007,note_on,6,0,1,,,,,,,,,0,,,71,127
92007,note_on,52,0,5,,,,,,,,,4,,,56,90
92091,note_on,84,0,1,,,,,,,,,0,,,71,0
92094,note_on,3,0,1,,,,,,,,,0,,,83,127
92135,note_on,128,0,5,,,,,,,,,4,,,56,0
92136,note_on,0,0,7,,,,,,,,,6,,,59,0
92136,note_on,658,0,7,,,,,,,,,6,,,67,0
92136,note_on,129,0,8,,,,,,,,,7,,,56,0
92157,note_on,63,0,1,,,,,,,,,0,,,83,0
92183,note_on,26,0,1,,,,,,,,,0,,,79,127
92185,note_on,0,0,7,,,,,,,,,6,,,59,127
92185,note_on,49,0,8,,,,,,,,,7,,,52,127
92185,note_on,49,0,7,,,,,,,,,6,,,67,127
92185,note_on,50,0,5,,,,,,,,,4,,,52,90
92268,note_on,85,0,1,,,,,,,,,0,,,79,0
92271,note_on,3,0,1,,,,,,,,,0,,,76,127
92313,note_on,128,0,5,,,,,,,,,4,,,52,0
92318,note_on,133,0,8,,,,,,,,,7,,,52,0
92357,note_on,86,0,1,,,,,,,,,0,,,76,0
92361,note_on,48,0,5,,,,,,,,,4,,,56,90
92361,note_on,43,0,8,,,,,,,,,7,,,56,127
92361,note_on,4,0,1,,,,,,,,,0,,,71,127
92446,note_on,85,0,1,,,,,,,,,0,,,71,0
92447,note_on,1,0,1,,,,,,,,,0,,,83,127
92485,note_on,124,0,8,,,,,,,,,7,,,56,0
92488,note_on,127,0,5,,,,,,,,,4,,,56,0
92514,note_on,67,0,1,,,,,,,,,0,,,83,0
92537,note_on,23,0,1,,,,,,,,,0,,,79,127
92540,note_on,55,0,8,,,,,,,,,7,,,52,127
92540,note_on,52,0,5,,,,,,,,,4,,,52,90
92624,note_on,87,0,1,,,,,,,,,0,,,79,0
92626,note_on,2,0,1,,,,,,,,,0,,,76,127
92663,note_on,123,0,5,,,,,,,,,4,,,52,0
92664,note_on,124,0,8,,,,,,,,,7,,,52,0
92713,note_on,87,0,1,,,,,,,,,0,,,76,0
92716,note_on,53,0,5,,,,,,,,,4,,,56,90
92716,note_on,52,0,8,,,,,,,,,7,,,56,127
92716,note_on,3,0,1,,,,,,,,,0,,,73,127
92799,note_on,83,0,1,,,,,,,,,0,,,73,0
92803,note_on,4,0,1,,,,,,,,,0,,,85,127
92841,note_on,125,0,8,,,,,,,,,7,,,56,0
92845,note_on,129,0,5,,,,,,,,,4,,,56,0
92853,note_on,668,0,7,,,,,,,,,6,,,59,0
92855,note_on,2,0,7,,,,,,,,,6,,,67,0
92867,note_on,64,0,1,,,,,,,,,0,,,85,0
92893,note_on,48,0,5,,,,,,,,,4,,,53,90
92893,note_on,38,0,7,,,,,,,,,6,,,61,127
92893,note_on,26,0,1,,,,,,,,,0,,,80,127
92894,note_on,53,0,8,,,,,,,,,7,,,53,127
92894,note_on,1,0,7,,,,,,,,,6,,,68,127
92979,note_on,86,0,1,,,,,,,,,0,,,80,0
92980,note_on,1,0,1,,,,,,,,,0,,,77,127
93023,note_on,129,0,8,,,,,,,,,7,,,53,0
93025,note_on,132,0,5,,,,,,,,,4,,,53,0
93067,note_on,87,0,1,,,,,,,,,0,,,77,0
93068,note_on,1,0,1,,,,,,,,,0,,,73,127
93068,note_on,45,0,8,,,,,,,,,7,,,53,127
93068,note_on,43,0,5,,,,,,,,,4,,,53,90
93154,note_on,86,0,1,,,,,,,,,0,,,73,0
93158,note_on,4,0,1,,,,,,,,,0,,,85,127
93197,note_on,129,0,5,,,,,,,,,4,,,53,0
93197,note_on,129,0,8,,,,,,,,,7,,,53,0
93222,note_on,64,0,1,,,,,,,,,0,,,85,0
93247,note_on,50,0,5,,,,,,,,,4,,,49,90
93247,note_on,25,0,1,,,,,,,,,0,,,80,127
93247,note_on,50,0,8,,,,,,,,,7,,,49,127
93332,note_on,85,0,1,,,,,,,,,0,,,80,0
93335,note_on,3,0,1,,,,,,,,,0,,,77,127
93374,note_on,127,0,8,,,,,,,,,7,,,49,0
93374,note_on,127,0,5,,,,,,,,,4,,,49,0
93421,note_on,86,0,1,,,,,,,,,0,,,77,0
93424,note_on,50,0,8,,,,,,,,,7,,,53,127
93424,note_on,50,0,5,,,,,,,,,4,,,53,90
93424,note_on,3,0,1,,,,,,,,,0,,,73,127
93509,note_on,85,0,1,,,,,,,,,0,,,73,0
93512,note_on,3,0,1,,,,,,,,,0,,,85,127
93551,note_on,127,0,8,,,,,,,,,7,,,53,0
93551,note_on,127,0,5,,,,,,,,,4,,,53,0
93555,note_on,661,0,7,,,,,,,,,6,,,61,0
93556,note_on,1,0,7,,,,,,,,,6,,,68,0
93574,note_on,62,0,1,,,,,,,,,0,,,85,0
93601,note_on,50,0,5,,,,,,,,,4,,,49,90
93601,note_on,27,0,1,,,,,,,,,0,,,80,127
93603,note_on,47,0,7,,,,,,,,,6,,,68,127
93603,note_on,0,0,7,,,,,,,,,6,,,61,127
93603,note_on,52,0,8,,,,,,,,,7,,,49,127
93686,note_on,85,0,1,,,,,,,,,0,,,80,0
93690,note_on,4,0,1,,,,,,,,,0,,,77,127
93736,note_on,133,0,8,,,,,,,,,7,,,49,0
93736,note_on,135,0,5,,,,,,,,,4,,,49,0
93775,note_on,85,0,1,,,,,,,,,0,,,77,0
93779,note_on,43,0,5,,,,,,,,,4,,,53,90
93779,note_on,4,0,1,,,,,,,,,0,,,73,127
93779,note_on,43,0,8,,,,,,,,,7,,,53,127
93862,note_on,83,0,1,,,,,,,,,0,,,73,0
93867,note_on,5,0,1,,,,,,,,,0,,,85,127
93908,note_on,129,0,8,,,,,,,,,7,,,53,0
93912,note_on,133,0,5,,,,,,,,,4,,,53,0
93931,note_on,64,0,1,,,,,,,,,0,,,85,0
93957,note_on,26,0,1,,,,,,,,,0,,,80,127
93957,note_on,45,0,5,,,,,,,,,4,,,49,90
93957,note_on,49,0,8,,,,,,,,,7,,,49,127
94042,note_on,85,0,1,,,,,,,,,0,,,80,0
94044,note_on,2,0,1,,,,,,,,,0,,,77,127
94084,note_on,127,0,8,,,,,,,,,7,,,49,0
94085,note_on,128,0,5,,,,,,,,,4,,,49,0
94129,note_on,85,0,1,,,,,,,,,0,,,77,0
94132,note_on,3,0,1,,,,,,,,,0,,,73,127
94133,note_on,48,0,5,,,,,,,,,4,,,53,90
94133,note_on,49,0,8,,,,,,,,,7,,,53,127
94218,note_on,86,0,1,,,,,,,,,0,,,73,0
94220,note_on,2,0,1,,,,,,,,,0,,,85,127
94259,note_on,126,0,8,,,,,,,,,7,,,53,0
94261,note_on,128,0,5,,,,,,,,,4,,,53,0
94272,note_on,669,0,7,,,,,,,,,6,,,61,0
94275,note_on,3,0,7,,,,,,,,,6,,,68,0
94287,note_on,67,0,1,,,,,,,,,0,,,85,0
94310,note_on,23,0,1,,,,,,,,,0,,,81,127
94310,note_on,49,0,5,,,,,,,,,4,,,54,90
94311,note_on,52,0,8,,,,,,,,,7,,,54,127
94311,note_on,0,0,7,,,,,,,,,6,,,61,127
94311,note_on,36,0,7,,,,,,,,,6,,,69,127
94395,note_on,85,0,1,,,,,,,,,0,,,81,0
94399,note_on,4,0,1,,,,,,,,,0,,,78,127
94440,note_on,130,0,5,,,,,,,,,4,,,54,0
94440,note_on,129,0,8,,,,,,,,,7,,,54,0
94486,note_on,87,0,1,,,,,,,,,0,,,78,0
94489,note_on,49,0,5,,,,,,,,,4,,,57,90
94489,note_on,3,0,1,,,,,,,,,0,,,73,127
94489,note_on,49,0,8,,,,,,,,,7,,,57,127
94573,note_on,84,0,1,,,,,,,,,0,,,73,0
94576,note_on,3,0,1,,,,,,,,,0,,,85,127
94615,note_on,126,0,8,,,,,,,,,7,,,57,0
94617,note_on,128,0,5,,,,,,,,,4,,,57,0
94640,note_on,64,0,1,,,,,,,,,0,,,85,0
94666,note_on,26,0,1,,,,,,,,,0,,,81,127
94666,note_on,49,0,5,,,,,,,,,4,,,54,90
94666,note_on,51,0,8,,,,,,,,,7,,,54,127
94752,note_on,86,0,1,,,,,,,,,0,,,81,0
94753,note_on,1,0,1,,,,,,,,,0,,,78,127
94790,note_on,124,0,8,,,,,,,,,7,,,54,0
94795,note_on,129,0,5,,,,,,,,,4,,,54,0
94841,note_on,88,0,1,,,,,,,,,0,,,78,0
94843,note_on,53,0,8,,,,,,,,,7,,,57,127
94843,note_on,2,0,1,,,,,,,,,0,,,73,127
94843,note_on,48,0,5,,,,,,,,,4,,,57,90
94929,note_on,86,0,1,,,,,,,,,0,,,73,0
94930,note_on,1,0,1,,,,,,,,,0,,,85,127
94970,note_on,127,0,5,,,,,,,,,4,,,57,0
94970,note_on,127,0,8,,,,,,,,,7,,,57,0
94972,note_on,661,0,7,,,,,,,,,6,,,61,0
94975,note_on,3,0,7,,,,,,,,,6,,,69,0
94994,note_on,64,0,1,,,,,,,,,0,,,85,0
95017,note_on,23,0,1,,,,,,,,,0,,,81,127
95018,note_on,48,0,5,,,,,,,,,4,,,54,90
95019,note_on,44,0,7,,,,,,,,,6,,,69,127
95019,note_on,0,0,7,,,,,,,,,6,,,61,127
95020,note_on,50,0,8,,,,,,,,,7,,,54,127
95105,note_on,88,0,1,,,,,,,,,0,,,81,0
95108,note_on,3,0,1,,,,,,,,,0,,,78,127
95149,note_on,131,0,5,,,,,,,,,4,,,54,0
95154,note_on,134,0,8,,,,,,,,,7,,,54,0
95192,note_on,84,0,1,,,,,,,,,0,,,78,0
95197,note_on,48,0,5,,,,,,,,,4,,,57,90
95197,note_on,43,0,8,,,,,,,,,7,,,57,127
95197,note_on,5,0,1,,,,,,,,,0,,,73,127
95283,note_on,86,0,1,,,,,,,,,0,,,73,0
95285,note_on,2,0,1,,,,,,,,,0,,,85,127
95323,note_on,126,0,8,,,,,,,,,7,,,57,0
95324,note_on,127,0,5,,,,,,,,,4,,,57,0
95348,note_on,63,0,1,,,,,,,,,0,,,85,0
95374,note_on,26,0,1,,,,,,,,,0,,,81,127
95374,note_on,50,0,5,,,,,,,,,4,,,54,90
95375,note_on,52,0,8,,,,,,,,,7,,,54,127
95459,note_on,85,0,1,,,,,,,,,0,,,81,0
95463,note_on,4,0,1,,,,,,,,,0,,,78,127
95500,note_on,125,0,8,,,,,,,,,7,,,54,0
95501,note_on,127,0,5,,,,,,,,,4,,,54,0
95549,note_on,86,0,1,,,,,,,,,0,,,78,0
95553,note_on,52,0,5,,,,,,,,,4,,,57,90
95553,note_on,53,0,8,,,,,,,,,7,,,57,127
95553,note_on,4,0,1,,,,,,,,,0,,,73,127
95639,note_on,86,0,1,,,,,,,,,0,,,73,0
95640,note_on,1,0,1,,,,,,,,,0,,,90,127
95676,note_on,123,0,8,,,,,,,,,7,,,57,0
95682,note_on,129,0,5,,,,,,,,,4,,,57,0
95688,note_on,669,0,7,,,,,,,,,6,,,61,0
95690,note_on,2,0,7,,,,,,,,,6,,,69,0
95703,note_on,63,0,1,,,,,,,,,0,,,90,0
95731,note_on,0,0,7,,,,,,,,,6,,,69,127
95731,note_on,49,0,5,,,,,,,,,4,,,54,90
95731,note_on,55,0,8,,,,,,,,,7,,,54,127
95731,note_on,28,0,1,,,,,,,,,0,,,85,127
95731,note_on,41,0,7,,,,,,,,,6,,,73,127
95814,note_on,83,0,1,,,,,,,,,0,,,85,0
95817,note_on,3,0,1,,,,,,,,,0,,,81,127
95857,note_on,126,0,8,,,,,,,,,7,,,54,0
95861,note_on,130,0,5,,,,,,,,,4,,,54,0
95903,note_on,86,0,1,,,,,,,,,0,,,81,0
95907,note_on,50,0,8,,,,,,,,,7,,,57,127
95907,note_on,46,0,5,,,,,,,,,4,,,57,90
95907,note_on,4,0,1,,,,,,,,,0,,,78,127
95991,note_on,84,0,1,,,,,,,,,0,,,78,0
95993,note_on,2,0,1,,,,,,,,,0,,,90,127
96032,note_on,125,0,8,,,,,,,,,7,,,57,0
96033,note_on,126,0,5,,,,,,,,,4,,,57,0
96059,note_on,66,0,1,,,,,,,,,0,,,90,0
96085,note_on,26,0,1,,,,,,,,,0,,,85,127
96085,note_on,53,0,8,,,,,,,,,7,,,54,127
96085,note_on,52,0,5,,,,,,,,,4,,,54,90
96168,note_on,83,0,1,,,,,,,,,0,,,85,0
96171,note_on,3,0,1,,,,,,,,,0,,,81,127
96208,note_on,123,0,8,,,,,,,,,7,,,54,0
96211,note_on,126,0,5,,,,,,,,,4,,,54,0
96258,note_on,87,0,1,,,,,,,,,0,,,81,0
96261,note_on,50,0,5,,,,,,,,,4,,,57,90
96261,note_on,3,0,1,,,,,,,,,0,,,78,127
96261,note_on,53,0,8,,,,,,,,,7,,,57,127
96345,note_on,84,0,1,,,,,,,,,0,,,78,0
96347,note_on,2,0,1,,,,,,,,,0,,,90,127
96387,note_on,126,0,5,,,,,,,,,4,,,57,0
96388,note_on,657,0,7,,,,,,,,,6,,,69,0
96388,note_on,127,0,8,,,,,,,,,7,,,57,0
96393,note_on,5,0,7,,,,,,,,,6,,,73,0
96412,note_on,65,0,1,,,,,,,,,0,,,90,0
96437,note_on,25,0,1,,,,,,,,,0,,,85,127
96440,note_on,47,0,7,,,,,,,,,6,,,78,127
96440,note_on,0,0,7,,,,,,,,,6,,,69,127
96440,note_on,52,0,8,,,,,,,,,7,,,54,127
96440,note_on,53,0,5,,,,,,,,,4,,,54,90
96523,note_on,86,0,1,,,,,,,,,0,,,85,0
96526,note_on,3,0,1,,,,,,,,,0,,,81,127
96573,note_on,133,0,5,,,,,,,,,4,,,54,0
96575,note_on,135,0,8,,,,,,,,,7,,,54,0
96611,note_on,85,0,1,,,,,,,,,0,,,81,0
96616,note_on,41,0,8,,,,,,,,,7,,,57,127
96616,note_on,5,0,1,,,,,,,,,0,,,78,127
96616,note_on,43,0,5,,,,,,,,,4,,,57,90
96700,note_on,84,0,1,,,,,,,,,0,,,78,0
96704,note_on,4,0,1,,,,,,,,,0,,,90,127
96744,note_on,128,0,8,,,,,,,,,7,,,57,0
96747,note_on,131,0,5,,,,,,,,,4,,,57,0
96765,note_on,61,0,1,,,,,,,,,0,,,90,0
96792,note_on,27,0,1,,,,,,,,,0,,,85,127
96793,note_on,46,0,5,,,,,,,,,4,,,54,90
96793,note_on,49,0,8,,,,,,,,,7,,,54,127
96877,note_on,85,0,1,,,,,,,,,0,,,85,0
96881,note_on,4,0,1,,,,,,,,,0,,,81,127
96918,note_on,125,0,8,,,,,,,,,7,,,54,0
96919,note_on,126,0,5,,,,,,,,,4,,,54,0
96966,note_on,85,0,1,,,,,,,,,0,,,81,0
96970,note_on,4,0,1,,,,,,,,,0,,,78,127
96970,note_on,51,0,5,,,,,,,,,4,,,57,90
96971,note_on,53,0,8,,,,,,,,,7,,,57,127
97054,note_on,84,0,1,,,,,,,,,0,,,78,0
97058,note_on,4,0,1,,,,,,,,,0,,,90,127
97095,note_on,125,0,5,,,,,,,,,4,,,57,0
97096,note_on,125,0,8,,,,,,,,,7,,,57,0
97109,note_on,669,0,7,,,,,,,,,6,,,69,0
97112,note_on,3,0,7,,,,,,,,,6,,,78,0
97121,note_on,63,0,1,,,,,,,,,0,,,90,0
97148,note_on,36,0,7,,,,,,,,,6,,,66,127
97148,note_on,27,0,1,,,,,,,,,0,,,86,127
97148,note_on,53,0,5,,,,,,,,,4,,,59,90
97149,note_on,53,0,8,,,,,,,,,7,,,59,127
97149,note_on,1,0,7,,,,,,,,,6,,,74,127
97233,note_on,85,0,1,,,,,,,,,0,,,86,0
97235,note_on,2,0,1,,,,,,,,,0,,,83,127
97280,note_on,132,0,5,,,,,,,,,4,,,59,0
97282,note_on,133,0,8,,,,,,,,,7,,,59,0
97320,note_on,85,0,1,,,,,,,,,0,,,83,0
97324,note_on,4,0,1,,,,,,,,,0,,,78,127
97324,note_on,42,0,8,,,,,,,,,7,,,62,127
97324,note_on,44,0,5,,,,,,,,,4,,,62,90
97409,note_on,85,0,1,,,,,,,,,0,,,78,0
97410,note_on,1,0,1,,,,,,,,,0,,,90,127
97451,note_on,127,0,8,,,,,,,,,7,,,62,0
97453,note_on,129,0,5,,,,,,,,,4,,,62,0
97476,note_on,66,0,1,,,,,,,,,0,,,90,0
97502,note_on,49,0,5,,,,,,,,,4,,,59,90
97502,note_on,51,0,8,,,,,,,,,7,,,59,127
97502,note_on,26,0,1,,,,,,,,,0,,,86,127
97585,note_on,83,0,1,,,,,,,,,0,,,86,0
97590,note_on,5,0,1,,,,,,,,,0,,,83,127
97628,note_on,126,0,8,,,,,,,,,7,,,59,0
97630,note_on,128,0,5,,,,,,,,,4,,,59,0
97675,note_on,85,0,1,,,,,,,,,0,,,83,0
97678,note_on,3,0,1,,,,,,,,,0,,,78,127
97679,note_on,49,0,5,,,,,,,,,4,,,62,90
97679,note_on,51,0,8,,,,,,,,,7,,,62,127
97762,note_on,84,0,1,,,,,,,,,0,,,78,0
97767,note_on,5,0,1,,,,,,,,,0,,,90,127
97807,note_on,128,0,5,,,,,,,,,4,,,62,0
97807,note_on,128,0,8,,,,,,,,,7,,,62,0
97808,note_on,659,0,7,,,,,,,,,6,,,66,0
97812,note_on,4,0,7,,,,,,,,,6,,,74,0
97830,note_on,63,0,1,,,,,,,,,0,,,90,0
97854,note_on,24,0,1,,,,,,,,,0,,,86,127
97861,note_on,54,0,8,,,,,,,,,7,,,59,127
97861,note_on,0,0,7,,,,,,,,,6,,,66,127
97861,note_on,49,0,7,,,,,,,,,6,,,74,127
97861,note_on,54,0,5,,,,,,,,,4,,,59,90
97941,note_on,87,0,1,,,,,,,,,0,,,86,0
97944,note_on,3,0,1,,,,,,,,,0,,,83,127
97986,note_on,125,0,5,,,,,,,,,4,,,59,0
97991,note_on,130,0,8,,,,,,,,,7,,,59,0
98032,note_on,88,0,1,,,,,,,,,0,,,83,0
98032,note_on,0,0,1,,,,,,,,,0,,,78,127
98034,note_on,43,0,8,,,,,,,,,7,,,62,127
98034,note_on,48,0,5,,,,,,,,,4,,,62,90
98120,note_on,88,0,1,,,,,,,,,0,,,78,0
98121,note_on,1,0,1,,,,,,,,,0,,,90,127
98158,note_on,124,0,8,,,,,,,,,7,,,62,0
98161,note_on,127,0,5,,,,,,,,,4,,,62,0
98185,note_on,64,0,1,,,,,,,,,0,,,90,0
98211,note_on,53,0,8,,,,,,,,,7,,,59,127
98211,note_on,50,0,5,,,,,,,,,4,,,59,90
98211,note_on,26,0,1,,,,,,,,,0,,,86,127
98297,note_on,86,0,1,,,,,,,,,0,,,86,0
98298,note_on,1,0,1,,,,,,,,,0,,,83,127
98338,note_on,127,0,8,,,,,,,,,7,,,59,0
98340,note_on,129,0,5,,,,,,,,,4,,,59,0
98383,note_on,85,0,1,,,,,,,,,0,,,83,0
98389,note_on,49,0,5,,,,,,,,,4,,,62,90
98389,note_on,6,0,1,,,,,,,,,0,,,78,127
98389,note_on,51,0,8,,,,,,,,,7,,,62,127
98474,note_on,85,0,1,,,,,,,,,0,,,78,0
98477,note_on,3,0,1,,,,,,,,,0,,,90,127
98515,note_on,126,0,5,,,,,,,,,4,,,62,0
98515,note_on,126,0,8,,,,,,,,,7,,,62,0
98524,note_on,663,0,7,,,,,,,,,6,,,66,0
98525,note_on,1,0,7,,,,,,,,,6,,,74,0
98542,note_on,65,0,1,,,,,,,,,0,,,90,0
98565,note_on,0,0,7,,,,,,,,,6,,,68,127
98565,note_on,50,0,5,,,,,,,,,4,,,52,90
98565,note_on,40,0,7,,,,,,,,,6,,,71,127
98565,note_on,50,0,8,,,,,,,,,7,,,52,127
98565,note_on,23,0,1,,,,,,,,,0,,,83,127
98651,note_on,86,0,1,,,,,,,,,0,,,83,0
98654,note_on,3,0,1,,,,,,,,,0,,,80,127
98696,note_on,131,0,5,,,,,,,,,4,,,52,0
98697,note_on,132,0,8,,,,,,,,,7,,,52,0
98739,note_on,85,0,1,,,,,,,,,0,,,80,0
98743,note_on,47,0,5,,,,,,,,,4,,,64,90
98743,note_on,46,0,8,,,,,,,,,7,,,64,127
98743,note_on,4,0,1,,,,,,,,,0,,,76,127
98827,note_on,84,0,1,,,,,,,,,0,,,76,0
98830,note_on,3,0,1,,,,,,,,,0,,,88,127
98870,note_on,127,0,8,,,,,,,,,7,,,64,0
98870,note_on,127,0,5,,,,,,,,,4,,,64,0
98895,note_on,65,0,1,,,,,,,,,0,,,88,0
98919,note_on,49,0,5,,,,,,,,,4,,,52,90
98919,note_on,24,0,1,,,,,,,,,0,,,83,127
98919,note_on,49,0,8,,,,,,,,,7,,,52,127
99006,note_on,87,0,1,,,,,,,,,0,,,83,0
99008,note_on,2,0,1,,,,,,,,,0,,,80,127
99047,note_on,128,0,8,,,,,,,,,7,,,52,0
99048,note_on,129,0,5,,,,,,,,,4,,,52,0
99095,note_on,87,0,1,,,,,,,,,0,,,80,0
99098,note_on,3,0,1,,,,,,,,,0,,,76,127
99098,note_on,50,0,5,,,,,,,,,4,,,56,90
99098,note_on,51,0,8,,,,,,,,,7,,,56,127
99183,note_on,85,0,1,,,,,,,,,0,,,76,0
99186,note_on,3,0,1,,,,,,,,,0,,,88,127
99226,note_on,661,0,7,,,,,,,,,6,,,68,0
99226,note_on,128,0,5,,,,,,,,,4,,,56,0
99226,note_on,128,0,8,,,,,,,,,7,,,56,0
99230,note_on,4,0,7,,,,,,,,,6,,,71,0
99247,note_on,61,0,1,,,,,,,,,0,,,88,0
99275,note_on,45,0,7,,,,,,,,,6,,,71,127
99275,note_on,0,0,7,,,,,,,,,6,,,68,127
99275,note_on,28,0,1,,,,,,,,,0,,,83,127
99275,note_on,49,0,5,,,,,,,,,4,,,52,90
99277,note_on,51,0,8,,,,,,,,,7,,,52,127
99360,note_on,85,0,1,,,,,,,,,0,,,83,0
99361,note_on,1,0,1,,,,,,,,,0,,,80,127
99409,note_on,134,0,5,,,,,,,,,4,,,52,0
99411,note_on,134,0,8,,,,,,,,,7,,,52,0
99449,note_on,88,0,1,,,,,,,,,0,,,80,0
99452,note_on,3,0,1,,,,,,,,,0,,,76,127
99452,note_on,41,0,8,,,,,,,,,7,,,56,127
99452,note_on,43,0,5,,,,,,,,,4,,,56,90
99538,note_on,86,0,1,,,,,,,,,0,,,76,0
99540,note_on,2,0,1,,,,,,,,,0,,,88,127
99580,note_on,128,0,8,,,,,,,,,7,,,56,0
99584,note_on,132,0,5,,,,,,,,,4,,,56,0
99602,note_on,62,0,1,,,,,,,,,0,,,88,0
99629,note_on,49,0,8,,,,,,,,,7,,,52,127
99629,note_on,27,0,1,,,,,,,,,0,,,83,127
99629,note_on,45,0,5,,,,,,,,,4,,,52,90
99714,note_on,85,0,1,,,,,,,,,0,,,83,0
99716,note_on,2,0,1,,,,,,,,,0,,,80,127
99753,note_on,124,0,8,,,,,,,,,7,,,52,0
99757,note_on,128,0,5,,,,,,,,,4,,,52,0
99803,note_on,87,0,1,,,,,,,,,0,,,80,0
99806,note_on,3,0,1,,,,,,,,,0,,,76,127
99807,note_on,54,0,8,,,,,,,,,7,,,56,127
99807,note_on,50,0,5,,,,,,,,,4,,,56,90
99892,note_on,86,0,1,,,,,,,,,0,,,76,0
99894,note_on,2,0,1,,,,,,,,,0,,,88,127
99932,note_on,125,0,8,,,,,,,,,7,,,56,0
99935,note_on,128,0,5,,,,,,,,,4,,,56,0
99946,note_on,671,0,7,,,,,,,,,6,,,68,0
99948,note_on,2,0,7,,,,,,,,,6,,,71,0
99957,note_on,63,0,1,,,,,,,,,0,,,88,0
99983,note_on,26,0,1,,,,,,,,,0,,,85,127
99983,note_on,48,0,5,,,,,,,,,4,,,57,90
99986,note_on,54,0,8,,,,,,,,,7,,,57,127
99986,note_on,38,0,7,,,,,,,,,6,,,73,127
99986,note_on,0,0,7,,,,,,,,,6,,,64,127
100068,note_on,85,0,1,,,,,,,,,0,,,85,0
100072,note_on,4,0,1,,,,,,,,,0,,,81,127
100117,note_on,134,0,5,,,,,,,,,4,,,57,0
100117,note_on,131,0,8,,,,,,,,,7,,,57,0
100156,note_on,84,0,1,,,,,,,,,0,,,81,0
100162,note_on,45,0,8,,,,,,,,,7,,,61,127
100162,note_on,45,0,5,,,,,,,,,4,,,61,90
100162,note_on,6,0,1,,,,,,,,,0,,,76,127
100246,note_on,84,0,1,,,,,,,,,0,,,76,0
100249,note_on,3,0,1,,,,,,,,,0,,,88,127
100285,note_on,123,0,5,,,,,,,,,4,,,61,0
100285,note_on,123,0,8,,,,,,,,,7,,,61,0
100313,note_on,64,0,1,,,,,,,,,0,,,88,0
100337,note_on,52,0,8,,,,,,,,,7,,,57,127
100337,note_on,52,0,5,,,,,,,,,4,,,57,90
100337,note_on,24,0,1,,,,,,,,,0,,,85,127
100422,note_on,85,0,1,,,,,,,,,0,,,85,0
100425,note_on,3,0,1,,,,,,,,,0,,,81,127
100462,note_on,125,0,8,,,,,,,,,7,,,57,0
100466,note_on,129,0,5,,,,,,,,,4,,,57,0
100511,note_on,86,0,1,,,,,,,,,0,,,81,0
100515,note_on,49,0,5,,,,,,,,,4,,,61,90
100515,note_on,4,0,1,,,,,,,,,0,,,76,127
100515,note_on,53,0,8,,,,,,,,,7,,,61,127
100601,note_on,86,0,1,,,,,,,,,0,,,76,0
100603,note_on,2,0,1,,,,,,,,,0,,,88,127
100644,note_on,129,0,5,,,,,,,,,4,,,61,0
100644,note_on,129,0,8,,,,,,,,,7,,,61,0
100646,note_on,0,0,7,,,,,,,,,6,,,73,0
100646,note_on,660,0,7,,,,,,,,,6,,,64,0
100668,note_on,65,0,1,,,,,,,,,0,,,88,0
100691,note_on,23,0,1,,,,,,,,,0,,,85,127
100694,note_on,50,0,5,,,,,,,,,4,,,57,90
100694,note_on,0,0,7,,,,,,,,,6,,,64,127
100694,note_on,50,0,8,,,,,,,,,7,,,57,127
100694,note_on,48,0,7,,,,,,,,,6,,,73,127
100777,note_on,86,0,1,,,,,,,,,0,,,85,0
100781,note_on,4,0,1,,,,,,,,,0,,,81,127
100826,note_on,132,0,5,,,,,,,,,4,,,57,0
100827,note_on,133,0,8,,,,,,,,,7,,,57,0
100868,note_on,87,0,1,,,,,,,,,0,,,81,0
100871,note_on,44,0,8,,,,,,,,,7,,,61,127
100871,note_on,45,0,5,,,,,,,,,4,,,61,90
100871,note_on,3,0,1,,,,,,,,,0,,,76,127
100954,note_on,83,0,1,,,,,,,,,0,,,76,0
100958,note_on,4,0,1,,,,,,,,,0,,,88,127
100999,note_on,128,0,5,,,,,,,,,4,,,61,0
100999,note_on,128,0,8,,,,,,,,,7,,,61,0
101021,note_on,63,0,1,,,,,,,,,0,,,88,0
101048,note_on,49,0,5,,,,,,,,,4,,,57,90
101048,note_on,27,0,1,,,,,,,,,0,,,85,127
101048,note_on,49,0,8,,,,,,,,,7,,,57,127
101134,note_on,86,0,1,,,,,,,,,0,,,85,0
101136,note_on,2,0,1,,,,,,,,,0,,,81,127
101174,note_on,126,0,5,,,,,,,,,4,,,57,0
101174,note_on,126,0,8,,,,,,,,,7,,,57,0
101223,note_on,0,0,1,,,,,,,,,0,,,76,127
101223,note_on,87,0,1,,,,,,,,,0,,,81,0
101223,note_on,49,0,5,,,,,,,,,4,,,61,90
101224,note_on,50,0,8,,,,,,,,,7,,,61,127
101308,note_on,85,0,1,,,,,,,,,0,,,76,0
101312,note_on,4,0,1,,,,,,,,,0,,,88,127
101349,note_on,125,0,8,,,,,,,,,7,,,61,0
101352,note_on,129,0,5,,,,,,,,,4,,,61,0
101361,note_on,667,0,7,,,,,,,,,6,,,64,0
101364,note_on,3,0,7,,,,,,,,,6,,,73,0
101377,note_on,65,0,1,,,,,,,,,0,,,88,0
101402,note_on,25,0,1,,,,,,,,,0,,,81,127
101402,note_on,53,0,8,,,,,,,,,7,,,50,127
101402,note_on,0,0,7,,,,,,,,,6,,,66,127
101402,note_on,0,0,7,,,,,,,,,6,,,69,127
101402,note_on,38,0,7,,,,,,,,,6,,,74,127
101402,note_on,50,0,5,,,,,,,,,4,,,50,90
101487,note_on,85,0,1,,,,,,,,,0,,,81,0
101490,note_on,3,0,1,,,,,,,,,0,,,78,127
101534,note_on,132,0,5,,,,,,,,,4,,,50,0
101534,note_on,132,0,8,,,,,,,,,7,,,50,0
101574,note_on,84,0,1,,,,,,,,,0,,,78,0
101577,note_on,3,0,1,,,,,,,,,0,,,74,127
101578,note_on,44,0,5,,,,,,,,,4,,,54,90
101579,note_on,45,0,8,,,,,,,,,7,,,54,127
101666,note_on,89,0,1,,,,,,,,,0,,,74,0
101667,note_on,1,0,1,,,,,,,,,0,,,86,127
101705,note_on,126,0,8,,,,,,,,,7,,,54,0
101708,note_on,130,0,5,,,,,,,,,4,,,54,0
101730,note_on,63,0,1,,,,,,,,,0,,,86,0
101757,note_on,27,0,1,,,,,,,,,0,,,81,127
101757,note_on,49,0,5,,,,,,,,,4,,,50,90
101757,note_on,52,0,8,,,,,,,,,7,,,50,127
101842,note_on,85,0,1,,,,,,,,,0,,,81,0
101844,note_on,2,0,1,,,,,,,,,0,,,78,127
101883,note_on,126,0,8,,,,,,,,,7,,,50,0
101885,note_on,128,0,5,,,,,,,,,4,,,50,0
101931,note_on,87,0,1,,,,,,,,,0,,,78,0
101934,note_on,49,0,5,,,,,,,,,4,,,54,90
101934,note_on,3,0,1,,,,,,,,,0,,,74,127
101934,note_on,51,0,8,,,,,,,,,7,,,54,127
102020,note_on,86,0,1,,,,,,,,,0,,,74,0
102021,note_on,1,0,1,,,,,,,,,0,,,86,127
102061,note_on,127,0,5,,,,,,,,,4,,,54,0
102062,note_on,128,0,8,,,,,,,,,7,,,54,0
102064,note_on,662,0,7,,,,,,,,,6,,,69,0
102067,note_on,3,0,7,,,,,,,,,6,,,66,0
102067,note_on,0,0,7,,,,,,,,,6,,,74,0
102085,note_on,64,0,1,,,,,,,,,0,,,86,0
102112,note_on,27,0,1,,,,,,,,,0,,,81,127
102112,note_on,50,0,8,,,,,,,,,7,,,50,127
102112,note_on,45,0,7,,,,,,,,,6,,,74,127
102112,note_on,0,0,7,,,,,,,,,6,,,69,127
102112,note_on,0,0,7,,,,,,,,,6,,,66,127
102112,note_on,51,0,5,,,,,,,,,4,,,50,90
102196,note_on,84,0,1,,,,,,,,,0,,,81,0
102199,note_on,3,0,1,,,,,,,,,0,,,78,127
102243,note_on,131,0,5,,,,,,,,,4,,,50,0
102244,note_on,132,0,8,,,,,,,,,7,,,50,0
102284,note_on,85,0,1,,,,,,,,,0,,,78,0
102289,note_on,45,0,8,,,,,,,,,7,,,54,127
102289,note_on,46,0,5,,,,,,,,,4,,,54,90
102289,note_on,5,0,1,,,,,,,,,0,,,74,127
102372,note_on,83,0,1,,,,,,,,,0,,,74,0
102375,note_on,3,0,1,,,,,,,,,0,,,86,127
102415,note_on,126,0,5,,,,,,,,,4,,,54,0
102415,note_on,126,0,8,,,,,,,,,7,,,54,0
102441,note_on,66,0,1,,,,,,,,,0,,,86,0
102466,note_on,51,0,8,,,,,,,,,7,,,50,127
102466,note_on,51,0,5,,,,,,,,,4,,,50,90
102466,note_on,25,0,1,,,,,,,,,0,,,81,127
102552,note_on,86,0,1,,,,,,,,,0,,,81,0
102553,note_on,1,0,1,,,,,,,,,0,,,78,127
102591,note_on,125,0,8,,,,,,,,,7,,,50,0
102591,note_on,125,0,5,,,,,,,,,4,,,50,0
102639,note_on,86,0,1,,,,,,,,,0,,,78,0
102643,note_on,52,0,5,,,,,,,,,4,,,54,90
102643,note_on,52,0,8,,,,,,,,,7,,,54,127
102643,note_on,4,0,1,,,,,,,,,0,,,74,127
102729,note_on,86,0,1,,,,,,,,,0,,,74,0
102731,note_on,2,0,1,,,,,,,,,0,,,86,127
102769,note_on,126,0,8,,,,,,,,,7,,,54,0
102769,note_on,126,0,5,,,,,,,,,4,,,54,0
102776,note_on,664,0,7,,,,,,,,,6,,,66,0
102782,note_on,6,0,7,,,,,,,,,6,,,74,0
102784,note_on,2,0,7,,,,,,,,,6,,,69,0
102794,note_on,63,0,1,,,,,,,,,0,,,86,0
102816,note_on,22,0,1,,,,,,,,,0,,,83,127
102817,note_on,0,0,7,,,,,,,,,6,,,62,127
102817,note_on,33,0,7,,,,,,,,,6,,,71,127
102817,note_on,0,0,7,,,,,,,,,6,,,67,127
102817,note_on,48,0,5,,,,,,,,,4,,,55,90
102818,note_on,49,0,8,,,,,,,,,7,,,55,127
102905,note_on,89,0,1,,,,,,,,,0,,,83,0
102908,note_on,3,0,1,,,,,,,,,0,,,79,127
102953,note_on,136,0,5,,,,,,,,,4,,,55,0
102953,note_on,135,0,8,,,,,,,,,7,,,55,0
102994,note_on,86,0,1,,,,,,,,,0,,,79,0
102998,note_on,4,0,1,,,,,,,,,0,,,74,127
102998,note_on,45,0,5,,,,,,,,,4,,,59,90
102998,note_on,45,0,8,,,,,,,,,7,,,59,127
103081,note_on,83,0,1,,,,,,,,,0,,,74,0
103085,note_on,4,0,1,,,,,,,,,0,,,86,127
103123,note_on,125,0,8,,,,,,,,,7,,,59,0
103124,note_on,126,0,5,,,,,,,,,4,,,59,0
103148,note_on,63,0,1,,,,,,,,,0,,,86,0
103173,note_on,25,0,1,,,,,,,,,0,,,83,127
103173,note_on,49,0,5,,,,,,,,,4,,,55,90
103174,note_on,51,0,8,,,,,,,,,7,,,55,127
103260,note_on,87,0,1,,,,,,,,,0,,,83,0
103262,note_on,2,0,1,,,,,,,,,0,,,79,127
103300,note_on,126,0,8,,,,,,,,,7,,,55,0
103301,note_on,128,0,5,,,,,,,,,4,,,55,0
103348,note_on,86,0,1,,,,,,,,,0,,,79,0
103352,note_on,52,0,8,,,,,,,,,7,,,59,127
103352,note_on,51,0,5,,,,,,,,,4,,,59,90
103352,note_on,4,0,1,,,,,,,,,0,,,74,127
103438,note_on,86,0,1,,,,,,,,,0,,,74,0
103439,note_on,1,0,1,,,,,,,,,0,,,86,127
103478,note_on,126,0,5,,,,,,,,,4,,,59,0
103479,note_on,127,0,8,,,,,,,,,7,,,59,0
103480,note_on,663,0,7,,,,,,,,,6,,,67,0
103484,note_on,4,0,7,,,,,,,,,6,,,71,0
103486,note_on,2,0,7,,,,,,,,,6,,,62,0
103504,note_on,65,0,1,,,,,,,,,0,,,86,0
103530,note_on,52,0,5,,,,,,,,,4,,,55,90
103530,note_on,26,0,1,,,,,,,,,0,,,83,127
103530,note_on,44,0,7,,,,,,,,,6,,,62,127
103531,note_on,1,0,7,,,,,,,,,6,,,71,127
103531,note_on,52,0,8,,,,,,,,,7,,,55,127
103531,note_on,0,0,7,,,,,,,,,6,,,67,127
103614,note_on,84,0,1,,,,,,,,,0,,,83,0
103616,note_on,2,0,1,,,,,,,,,0,,,79,127
103658,note_on,128,0,5,,,,,,,,,4,,,55,0
103666,note_on,135,0,8,,,,,,,,,7,,,55,0
103703,note_on,87,0,1,,,,,,,,,0,,,79,0
103706,note_on,40,0,8,,,,,,,,,7,,,59,127
103706,note_on,3,0,1,,,,,,,,,0,,,74,127
103706,note_on,48,0,5,,,,,,,,,4,,,59,90
103792,note_on,86,0,1,,,,,,,,,0,,,74,0
103794,note_on,2,0,1,,,,,,,,,0,,,86,127
103831,note_on,125,0,8,,,,,,,,,7,,,59,0
103833,note_on,127,0,5,,,,,,,,,4,,,59,0
103857,note_on,63,0,1,,,,,,,,,0,,,86,0
103885,note_on,54,0,8,,,,,,,,,7,,,55,127
103885,note_on,52,0,5,,,,,,,,,4,,,55,90
103885,note_on,28,0,1,,,,,,,,,0,,,83,127
103968,note_on,83,0,1,,,,,,,,,0,,,83,0
103971,note_on,3,0,1,,,,,,,,,0,,,79,127
104009,note_on,124,0,8,,,,,,,,,7,,,55,0
104011,note_on,126,0,5,,,,,,,,,4,,,55,0
104057,note_on,86,0,1,,,,,,,,,0,,,79,0
104060,note_on,51,0,8,,,,,,,,,7,,,59,127
104060,note_on,3,0,1,,,,,,,,,0,,,74,127
104060,note_on,49,0,5,,,,,,,,,4,,,59,90
104146,note_on,86,0,1,,,,,,,,,0,,,74,0
104149,note_on,3,0,1,,,,,,,,,0,,,86,127
104187,note_on,127,0,8,,,,,,,,,7,,,59,0
104187,note_on,127,0,5,,,,,,,,,4,,,59,0
104196,note_on,665,0,7,,,,,,,,,6,,,62,0
104199,note_on,3,0,7,,,,,,,,,6,,,71,0
104200,note_on,1,0,7,,,,,,,,,6,,,67,0
104212,note_on,63,0,1,,,,,,,,,0,,,86,0
104237,note_on,50,0,5,,,,,,,,,4,,,49,90
104237,note_on,25,0,1,,,,,,,,,0,,,80,127
104238,note_on,0,0,7,,,,,,,,,6,,,61,127
104238,note_on,0,0,7,,,,,,,,,6,,,65,127
104238,note_on,38,0,7,,,,,,,,,6,,,68,127
104238,note_on,51,0,8,,,,,,,,,7,,,49,127
104324,note_on,87,0,1,,,,,,,,,0,,,80,0
104326,note_on,2,0,1,,,,,,,,,0,,,77,127
104371,note_on,134,0,5,,,,,,,,,4,,,49,0
104371,note_on,133,0,8,,,,,,,,,7,,,49,0
104411,note_on,85,0,1,,,,,,,,,0,,,77,0
104414,note_on,3,0,1,,,,,,,,,0,,,73,127
104414,note_on,43,0,5,,,,,,,,,4,,,53,90
104414,note_on,43,0,8,,,,,,,,,7,,,53,127
104502,note_on,88,0,1,,,,,,,,,0,,,73,0
104504,note_on,2,0,1,,,,,,,,,0,,,85,127
104542,note_on,128,0,8,,,,,,,,,7,,,53,0
104542,note_on,128,0,5,,,,,,,,,4,,,53,0
104565,note_on,61,0,1,,,,,,,,,0,,,85,0
104593,note_on,51,0,8,,,,,,,,,7,,,49,127
104593,note_on,28,0,1,,,,,,,,,0,,,80,127
104593,note_on,51,0,5,,,,,,,,,4,,,49,90
104677,note_on,84,0,1,,,,,,,,,0,,,80,0
104681,note_on,4,0,1,,,,,,,,,0,,,77,127
104719,note_on,126,0,5,,,,,,,,,4,,,49,0
104719,note_on,126,0,8,,,,,,,,,7,,,49,0
104768,note_on,87,0,1,,,,,,,,,0,,,77,0
104772,note_on,53,0,5,,,,,,,,,4,,,53,90
104772,note_on,53,0,8,,,,,,,,,7,,,53,127
104772,note_on,4,0,1,,,,,,,,,0,,,73,127
104854,note_on,82,0,1,,,,,,,,,0,,,73,0
104857,note_on,3,0,1,,,,,,,,,0,,,85,127
104898,note_on,126,0,8,,,,,,,,,7,,,53,0
104898,note_on,126,0,5,,,,,,,,,4,,,53,0
104900,note_on,662,0,7,,,,,,,,,6,,,61,0
104902,note_on,2,0,7,,,,,,,,,6,,,65,0
104904,note_on,2,0,7,,,,,,,,,6,,,68,0
104921,note_on,64,0,1,,,,,,,,,0,,,85,0
104947,note_on,26,0,1,,,,,,,,,0,,,81,127
104948,note_on,0,0,7,,,,,,,,,6,,,61,127
104948,note_on,0,0,7,,,,,,,,,6,,,69,127
104948,note_on,44,0,7,,,,,,,,,6,,,73,127
104948,note_on,50,0,8,,,,,,,,,7,,,54,127
104948,note_on,50,0,5,,,,,,,,,4,,,54,90
105030,note_on,83,0,1,,,,,,,,,0,,,81,0
105035,note_on,5,0,1,,,,,,,,,0,,,78,127
105080,note_on,132,0,8,,,,,,,,,7,,,54,0
105080,note_on,132,0,5,,,,,,,,,4,,,54,0
105120,note_on,85,0,1,,,,,,,,,0,,,78,0
105124,note_on,44,0,5,,,,,,,,,4,,,57,90
105124,note_on,44,0,8,,,,,,,,,7,,,57,127
105124,note_on,4,0,1,,,,,,,,,0,,,73,127
105209,note_on,85,0,1,,,,,,,,,0,,,73,0
105212,note_on,3,0,1,,,,,,,,,0,,,85,127
105255,note_on,131,0,8,,,,,,,,,7,,,57,0
105256,note_on,132,0,5,,,,,,,,,4,,,57,0
105277,note_on,65,0,1,,,,,,,,,0,,,85,0
105301,note_on,24,0,1,,,,,,,,,0,,,81,127
105302,note_on,47,0,8,,,,,,,,,7,,,54,127
105302,note_on,46,0,5,,,,,,,,,4,,,54,90
105387,note_on,86,0,1,,,,,,,,,0,,,81,0
105391,note_on,4,0,1,,,,,,,,,0,,,78,127
105430,note_on,128,0,8,,,,,,,,,7,,,54,0
105434,note_on,132,0,5,,,,,,,,,4,,,54,0
105474,note_on,83,0,1,,,,,,,,,0,,,78,0
105478,note_on,4,0,1,,,,,,,,,0,,,73,127
105480,note_on,50,0,8,,,,,,,,,7,,,57,127
105480,note_on,46,0,5,,,,,,,,,4,,,57,90
105566,note_on,88,0,1,,,,,,,,,0,,,73,0
105567,note_on,1,0,1,,,,,,,,,0,,,85,127
105608,note_on,128,0,8,,,,,,,,,7,,,57,0
105613,note_on,133,0,5,,,,,,,,,4,,,57,0
105613,note_on,665,0,7,,,,,,,,,6,,,61,0
105617,note_on,4,0,7,,,,,,,,,6,,,69,0
105617,note_on,0,0,7,,,,,,,,,6,,,73,0
105631,note_on,64,0,1,,,,,,,,,0,,,85,0
105659,note_on,28,0,1,,,,,,,,,0,,,80,127
105659,note_on,51,0,8,,,,,,,,,7,,,49,127
105659,note_on,42,0,7,,,,,,,,,6,,,68,127
105659,note_on,0,0,7,,,,,,,,,6,,,65,127
105659,note_on,46,0,5,,,,,,,,,4,,,49,90
105659,note_on,0,0,7,,,,,,,,,6,,,61,127
105743,note_on,0,0,1,,,,,,,,,0,,,77,127
105743,note_on,84,0,1,,,,,,,,,0,,,80,0
105788,note_on,129,0,8,,,,,,,,,7,,,49,0
105788,note_on,129,0,5,,,,,,,,,4,,,49,0
105829,note_on,86,0,1,,,,,,,,,0,,,77,0
105832,note_on,3,0,1,,,,,,,,,0,,,73,127
105833,note_on,45,0,8,,,,,,,,,7,,,53,127
105833,note_on,45,0,5,,,,,,,,,4,,,53,90
105918,note_on,86,0,1,,,,,,,,,0,,,73,0
105921,note_on,3,0,1,,,,,,,,,0,,,85,127
105958,note_on,125,0,5,,,,,,,,,4,,,53,0
105959,note_on,126,0,8,,,,,,,,,7,,,53,0
105987,note_on,66,0,1,,,,,,,,,0,,,85,0
106010,note_on,51,0,8,,,,,,,,,7,,,49,127
106010,note_on,52,0,5,,,,,,,,,4,,,49,90
106010,note_on,23,0,1,,,,,,,,,0,,,80,127
106096,note_on,86,0,1,,,,,,,,,0,,,80,0
106099,note_on,3,0,1,,,,,,,,,0,,,77,127
106136,note_on,126,0,8,,,,,,,,,7,,,49,0
106138,note_on,128,0,5,,,,,,,,,4,,,49,0
106186,note_on,87,0,1,,,,,,,,,0,,,77,0
106188,note_on,50,0,5,,,,,,,,,4,,,53,90
106188,note_on,52,0,8,,,,,,,,,7,,,53,127
106188,note_on,2,0,1,,,,,,,,,0,,,73,127
106274,note_on,86,0,1,,,,,,,,,0,,,73,0
106277,note_on,3,0,1,,,,,,,,,0,,,85,127
106318,note_on,659,0,7,,,,,,,,,6,,,65,0
106318,note_on,130,0,8,,,,,,,,,7,,,53,0
106318,note_on,130,0,5,,,,,,,,,4,,,53,0
106321,note_on,0,0,7,,,,,,,,,6,,,68,0
106321,note_on,3,0,7,,,,,,,,,6,,,61,0
106340,note_on,63,0,1,,,,,,,,,0,,,85,0
106365,note_on,44,0,7,,,,,,,,,6,,,69,127
106365,note_on,25,0,1,,,,,,,,,0,,,81,127
106365,note_on,0,0,7,,,,,,,,,6,,,66,127
106365,note_on,47,0,5,,,,,,,,,4,,,42,90
106365,note_on,0,0,7,,,,,,,,,6,,,61,127
106366,note_on,48,0,8,,,,,,,,,7,,,42,127
106491,note_on,126,0,1,,,,,,,,,0,,,81,0
106501,note_on,136,0,5,,,,,,,,,4,,,42,0
106503,note_on,137,0,8,,,,,,,,,7,,,42,0
106542,note_on,51,0,1,,,,,,,,,0,,,78,127
106543,note_on,40,0,8,,,,,,,,,7,,,54,127
106543,note_on,1,0,1,,,,,,,,,0,,,81,127
106543,note_on,42,0,5,,,,,,,,,4,,,54,90
106668,note_on,125,0,1,,,,,,,,,0,,,78,0
106672,note_on,129,0,5,,,,,,,,,4,,,54,0
106672,note_on,4,0,1,,,,,,,,,0,,,81,0
106672,note_on,129,0,8,,,,,,,,,7,,,54,0
106682,note_on,317,0,7,,,,,,,,,6,,,61,0
106684,note_on,2,0,7,,,,,,,,,6,,,66,0
106685,note_on,1,0,7,,,,,,,,,6,,,69,0
106718,note_on,46,0,1,,,,,,,,,0,,,78,127
106719,note_on,1,0,1,,,,,,,,,0,,,80,127
106719,note_on,47,0,5,,,,,,,,,4,,,61,90
106720,note_on,35,0,7,,,,,,,,,6,,,68,127
106720,note_on,0,0,7,,,,,,,,,6,,,66,127
106720,note_on,48,0,8,,,,,,,,,7,,,61,127
106847,note_on,128,0,1,,,,,,,,,0,,,78,0
106851,note_on,132,0,5,,,,,,,,,4,,,61,0
106851,note_on,4,0,1,,,,,,,,,0,,,80,0
106851,note_on,131,0,8,,,,,,,,,7,,,61,0
106892,note_on,172,0,7,,,,,,,,,6,,,66,0
106898,note_on,0,0,1,,,,,,,,,0,,,77,127
106898,note_on,47,0,5,,,,,,,,,4,,,49,90
106898,note_on,47,0,1,,,,,,,,,0,,,80,127
106898,note_on,6,0,7,,,,,,,,,6,,,68,0
106898,note_on,0,0,7,,,,,,,,,6,,,65,127
106900,note_on,49,0,8,,,,,,,,,7,,,49,127
107021,note_on,123,0,1,,,,,,,,,0,,,77,0
107025,note_on,125,0,8,,,,,,,,,7,,,49,0
107025,note_on,4,0,1,,,,,,,,,0,,,80,0
107025,note_on,127,0,5,,,,,,,,,4,,,49,0
107025,note_on,127,0,7,,,,,,,,,6,,,65,0
107076,note_on,0,0,1,,,,,,,,,0,,,78,127
107076,note_on,20943,0,2,,,,,,,,,1,,,66,62
107076,note_on,51,0,1,,,,,,,,,0,,,81,127
107078,note_on,20921,0,3,,,,,,,,,2,,,66,63
107078,note_on,53,0,7,,,,,,,,,6,,,66,127
107078,note_on,31577,0,6,,,,,,,,,5,,,54,90
107078,note_on,20921,0,4,,,,,,,,,3,,,66,63
107079,note_on,54,0,5,,,,,,,,,4,,,54,90
107079,program_change,0,0,5,,,,,,,,49,4,,,,
107079,note_on,54,0,8,,,,,,,,,7,,,54,127
107380,note_on,304,0,1,,,,,,,,,0,,,78,0
107385,note_on,307,0,6,,,,,,,,,5,,,54,0
107385,note_on,306,0,5,,,,,,,,,4,,,54,0
107385,note_on,307,0,4,,,,,,,,,3,,,66,0
107385,note_on,5,0,1,,,,,,,,,0,,,81,0
107385,note_on,309,0,2,,,,,,,,,1,,,66,0
107385,note_on,307,0,3,,,,,,,,,2,,,66,0
107390,note_on,312,0,7,,,,,,,,,6,,,66,0
107390,note_on,311,0,8,,,,,,,,,7,,,54,0
107430,note_on,45,0,1,,,,,,,,,0,,,73,127
107430,note_on,45,0,2,,,,,,,,,1,,,73,62
107430,note_on,45,0,4,,,,,,,,,3,,,73,63
107430,note_on,45,0,3,,,,,,,,,2,,,73,63
107433,note_on,43,0,8,,,,,,,,,7,,,61,127
107433,note_on,43,0,7,,,,,,,,,6,,,73,127
107433,note_on,48,0,6,,,,,,,,,5,,,61,90
107433,note_on,48,0,5,,,,,,,,,4,,,61,90
107735,note_on,305,0,3,,,,,,,,,2,,,73,0
107735,note_on,305,0,1,,,,,,,,,0,,,73,0
107739,note_on,309,0,4,,,,,,,,,3,,,73,0
107739,note_on,306,0,6,,,,,,,,,5,,,61,0
107739,note_on,306,0,5,,,,,,,,,4,,,61,0
107739,note_on,309,0,2,,,,,,,,,1,,,73,0
107742,note_on,309,0,7,,,,,,,,,6,,,73,0
107743,note_on,310,0,8,,,,,,,,,7,,,61,0
107782,note_on,47,0,1,,,,,,,,,0,,,78,127
107782,note_on,43,0,2,,,,,,,,,1,,,78,62
107783,note_on,48,0,3,,,,,,,,,2,,,78,63
107784,note_on,45,0,4,,,,,,,,,3,,,78,63
107784,note_on,45,0,5,,,,,,,,,4,,,66,90
107784,note_on,42,0,7,,,,,,,,,6,,,78,127
107784,note_on,45,0,6,,,,,,,,,5,,,66,90
107785,note_on,42,0,8,,,,,,,,,7,,,66,127
107912,note_on,130,0,1,,,,,,,,,0,,,78,0
107913,note_on,129,0,5,,,,,,,,,4,,,66,0
107913,note_on,130,0,3,,,,,,,,,2,,,78,0
107913,note_on,129,0,6,,,,,,,,,5,,,66,0
107916,note_on,134,0,2,,,,,,,,,1,,,78,0
107917,note_on,133,0,7,,,,,,,,,6,,,78,0
107917,note_on,133,0,4,,,,,,,,,3,,,78,0
107919,note_on,134,0,8,,,,,,,,,7,,,66,0
107960,note_on,48,0,1,,,,,,,,,0,,,66,127
107963,note_on,47,0,2,,,,,,,,,1,,,66,62
107963,note_on,50,0,6,,,,,,,,,5,,,54,90
107963,note_on,50,0,5,,,,,,,,,4,,,54,90
107963,note_on,50,0,3,,,,,,,,,2,,,66,63
107963,note_on,46,0,4,,,,,,,,,3,,,66,63
107964,note_on,45,0,8,,,,,,,,,7,,,54,127
107964,note_on,47,0,7,,,,,,,,,6,,,66,127
108113,note_on,153,0,1,,,,,,,,,0,,,66,0
108114,note_on,151,0,3,,,,,,,,,2,,,66,0
108114,note_on,151,0,2,,,,,,,,,1,,,66,0
108116,note_on,153,0,4,,,,,,,,,3,,,66,0
108116,note_on,153,0,5,,,,,,,,,4,,,54,0
108117,note_on,154,0,6,,,,,,,,,5,,,54,0
108118,note_on,154,0,7,,,,,,,,,6,,,66,0
108119,note_on,155,0,8,,,,,,,,,7,,,54,0
108315,note_on,201,0,2,,,,,,,,,1,,,61,62
108315,note_on,199,0,4,,,,,,,,,3,,,61,63
108315,note_on,199,0,5,,,,,,,,,4,,,49,90
108315,note_on,202,0,1,,,,,,,,,0,,,61,127
108315,note_on,201,0,3,,,,,,,,,2,,,61,63
108319,note_on,201,0,7,,,,,,,,,6,,,61,127
108319,note_on,200,0,8,,,,,,,,,7,,,49,127
108443,note_on,128,0,1,,,,,,,,,0,,,61,0
108443,note_on,128,0,3,,,,,,,,,2,,,61,0
108447,note_on,132,0,5,,,,,,,,,4,,,49,0
108447,note_on,132,0,2,,,,,,,,,1,,,61,0
108448,note_on,133,0,4,,,,,,,,,3,,,61,0
108448,note_on,129,0,7,,,,,,,,,6,,,61,0
108452,note_on,133,0,8,,,,,,,,,7,,,49,0
108493,note_on,46,0,2,,,,,,,,,1,,,66,62
108493,note_on,50,0,1,,,,,,,,,0,,,66,127
108493,note_on,45,0,7,,,,,,,,,6,,,78,127
108493,note_on,50,0,3,,,,,,,,,2,,,66,63
108493,note_on,46,0,5,,,,,,,,,4,,,54,90
108493,note_on,45,0,4,,,,,,,,,3,,,66,63
108494,note_on,42,0,8,,,,,,,,,7,,,54,127
108575,note_on,82,0,1,,,,,,,,,0,,,66,0
108576,note_on,83,0,2,,,,,,,,,1,,,66,0
108577,note_on,84,0,3,,,,,,,,,2,,,66,0
108577,note_on,84,0,4,,,,,,,,,3,,,66,0
108579,note_on,86,0,5,,,,,,,,,4,,,54,0
108579,note_on,86,0,7,,,,,,,,,6,,,78,0
108580,note_on,86,0,8,,,,,,,,,7,,,54,0
108580,note_on,5,0,1,,,,,,,,,0,,,65,127
108582,note_on,5,0,4,,,,,,,,,3,,,65,63
108582,note_on,5,0,3,,,,,,,,,2,,,65,63
108582,note_on,6,0,2,,,,,,,,,1,,,65,62
108584,note_on,5,0,7,,,,,,,,,6,,,77,127
108584,note_on,4,0,8,,,,,,,,,7,,,53,127
108584,note_on,5,0,5,,,,,,,,,4,,,53,90
108666,note_on,86,0,1,,,,,,,,,0,,,65,0
108667,note_on,85,0,2,,,,,,,,,1,,,65,0
108668,note_on,84,0,5,,,,,,,,,4,,,53,0
108668,note_on,86,0,4,,,,,,,,,3,,,65,0
108668,note_on,86,0,3,,,,,,,,,2,,,65,0
108669,note_on,85,0,7,,,,,,,,,6,,,77,0
108669,note_on,85,0,8,,,,,,,,,7,,,53,0
108670,note_on,4,0,1,,,,,,,,,0,,,66,127
108672,note_on,4,0,4,,,,,,,,,3,,,66,63
108672,note_on,3,0,8,,,,,,,,,7,,,54,127
108672,note_on,4,0,5,,,,,,,,,4,,,54,90
108672,note_on,4,0,3,,,,,,,,,2,,,66,63
108672,note_on,5,0,2,,,,,,,,,1,,,66,62
108672,note_on,3,0,7,,,,,,,,,6,,,78,127
108754,note_on,84,0,1,,,,,,,,,0,,,66,0
108755,note_on,83,0,2,,,,,,,,,1,,,66,0
108756,note_on,84,0,4,,,,,,,,,3,,,66,0
108756,note_on,84,0,3,,,,,,,,,2,,,66,0
108757,note_on,85,0,5,,,,,,,,,4,,,54,0
108758,note_on,86,0,8,,,,,,,,,7,,,54,0
108758,note_on,86,0,7,,,,,,,,,6,,,78,0
108760,note_on,4,0,3,,,,,,,,,2,,,65,63
108760,note_on,6,0,1,,,,,,,,,0,,,65,127
108760,note_on,5,0,2,,,,,,,,,1,,,65,62
108761,note_on,5,0,4,,,,,,,,,3,,,65,63
108762,note_on,5,0,5,,,,,,,,,4,,,53,90
108763,note_on,5,0,7,,,,,,,,,6,,,77,127
108764,note_on,6,0,8,,,,,,,,,7,,,53,127
108844,note_on,84,0,1,,,,,,,,,0,,,65,0
108844,note_on,84,0,2,,,,,,,,,1,,,65,0
108848,note_on,88,0,3,,,,,,,,,2,,,65,0
108851,note_on,7,0,1,,,,,,,,,0,,,66,127
108851,note_on,87,0,8,,,,,,,,,7,,,53,0
108851,note_on,90,0,4,,,,,,,,,3,,,65,0
108851,note_on,88,0,7,,,,,,,,,6,,,77,0
108851,note_on,89,0,5,,,,,,,,,4,,,53,0
108854,note_on,3,0,7,,,,,,,,,6,,,78,127
108854,note_on,10,0,2,,,,,,,,,1,,,66,62
108854,note_on,3,0,4,,,,,,,,,3,,,66,63
108854,note_on,3,0,8,,,,,,,,,7,,,54,127
108854,note_on,6,0,3,,,,,,,,,2,,,66,63
108854,note_on,3,0,5,,,,,,,,,4,,,54,90
108931,note_on,80,0,1,,,,,,,,,0,,,66,0
108931,note_on,77,0,2,,,,,,,,,1,,,66,0
108932,note_on,78,0,4,,,,,,,,,3,,,66,0
108932,note_on,78,0,5,,,,,,,,,4,,,54,0
108932,note_on,78,0,3,,,,,,,,,2,,,66,0
108933,note_on,79,0,7,,,,,,,,,6,,,78,0
108934,note_on,80,0,8,,,,,,,,,7,,,54,0
108934,note_on,3,0,1,,,,,,,,,0,,,65,127
108935,note_on,4,0,2,,,,,,,,,1,,,65,62
108936,note_on,4,0,5,,,,,,,,,4,,,53,90
108936,note_on,3,0,7,,,,,,,,,6,,,77,127
108936,note_on,4,0,3,,,,,,,,,2,,,65,63
108936,note_on,4,0,4,,,,,,,,,3,,,65,63
108937,note_on,3,0,8,,,,,,,,,7,,,53,127
109023,note_on,89,0,1,,,,,,,,,0,,,65,0
109024,note_on,89,0,2,,,,,,,,,1,,,65,0
109024,note_on,88,0,3,,,,,,,,,2,,,65,0
109024,note_on,88,0,4,,,,,,,,,3,,,65,0
109026,note_on,90,0,5,,,,,,,,,4,,,53,0
109028,note_on,92,0,7,,,,,,,,,6,,,77,0
109029,note_on,92,0,8,,,,,,,,,7,,,53,0
109029,note_on,6,0,1,,,,,,,,,0,,,66,127
109031,note_on,7,0,2,,,,,,,,,1,,,66,62
109032,note_on,3,0,8,,,,,,,,,7,,,54,127
109032,note_on,8,0,4,,,,,,,,,3,,,66,63
109032,note_on,4,0,7,,,,,,,,,6,,,78,127
109032,note_on,8,0,3,,,,,,,,,2,,,66,63
109032,note_on,6,0,5,,,,,,,,,4,,,54,90
109109,note_on,80,0,1,,,,,,,,,0,,,66,0
109110,note_on,79,0,2,,,,,,,,,1,,,66,0
109115,note_on,83,0,4,,,,,,,,,3,,,66,0
109115,note_on,83,0,7,,,,,,,,,6,,,78,0
109115,note_on,83,0,5,,,,,,,,,4,,,54,0
109115,note_on,83,0,3,,,,,,,,,2,,,66,0
109116,note_on,84,0,8,,,,,,,,,7,,,54,0
109118,note_on,9,0,1,,,,,,,,,0,,,65,127
109118,note_on,8,0,2,,,,,,,,,1,,,65,62
109120,note_on,5,0,5,,,,,,,,,4,,,53,90
109120,note_on,5,0,4,,,,,,,,,3,,,65,63
109120,note_on,5,0,3,,,,,,,,,2,,,65,63
109120,note_on,5,0,7,,,,,,,,,6,,,77,127
109120,note_on,4,0,8,,,,,,,,,7,,,53,127
109202,note_on,84,0,1,,,,,,,,,0,,,65,0
109202,note_on,84,0,2,,,,,,,,,1,,,65,0
109202,note_on,82,0,3,,,,,,,,,2,,,65,0
109204,note_on,84,0,4,,,,,,,,,3,,,65,0
109205,note_on,85,0,5,,,,,,,,,4,,,53,0
109207,note_on,87,0,7,,,,,,,,,6,,,77,0
109208,note_on,6,0,3,,,,,,,,,2,,,78,63
109208,note_on,3,0,5,,,,,,,,,4,,,66,90
109208,note_on,4,0,4,,,,,,,,,3,,,78,63
109208,note_on,6,0,2,,,,,,,,,1,,,78,62
109208,note_on,1,0,7,,,,,,,,,6,,,78,127
109208,note_on,88,0,8,,,,,,,,,7,,,53,0
109208,note_on,0,0,8,,,,,,,,,7,,,66,127
109208,note_on,6,0,1,,,,,,,,,0,,,78,127
109330,note_on,122,0,1,,,,,,,,,0,,,78,0
109330,note_on,122,0,3,,,,,,,,,2,,,78,0
109333,note_on,125,0,2,,,,,,,,,1,,,78,0
109334,note_on,126,0,4,,,,,,,,,3,,,78,0
109334,note_on,126,0,5,,,,,,,,,4,,,66,0
109339,note_on,131,0,7,,,,,,,,,6,,,78,0
109340,note_on,132,0,8,,,,,,,,,7,,,66,0
109377,note_on,44,0,2,,,,,,,,,1,,,66,62
109377,note_on,47,0,3,,,,,,,,,2,,,66,63
109377,note_on,47,0,1,,,,,,,,,0,,,66,127
109378,note_on,44,0,4,,,,,,,,,3,,,66,63
109379,note_on,45,0,5,,,,,,,,,4,,,54,90
109380,note_on,40,0,8,,,,,,,,,7,,,54,127
109380,note_on,41,0,7,,,,,,,,,6,,,66,127
109532,note_on,155,0,1,,,,,,,,,0,,,66,0
109533,note_on,156,0,2,,,,,,,,,1,,,66,0
109533,note_on,156,0,3,,,,,,,,,2,,,66,0
109534,note_on,156,0,4,,,,,,,,,3,,,66,0
109535,note_on,155,0,7,,,,,,,,,6,,,66,0
109535,note_on,156,0,5,,,,,,,,,4,,,54,0
109536,note_on,156,0,8,,,,,,,,,7,,,54,0
109732,note_on,200,0,1,,,,,,,,,0,,,61,127
109737,note_on,202,0,5,,,,,,,,,4,,,49,90
109737,note_on,202,0,7,,,,,,,,,6,,,61,127
109737,note_on,204,0,3,,,,,,,,,2,,,61,63
109737,note_on,201,0,8,,,,,,,,,7,,,49,127
109737,note_on,204,0,2,,,,,,,,,1,,,61,62
109737,note_on,203,0,4,,,,,,,,,3,,,61,63
109861,note_on,129,0,1,,,,,,,,,0,,,61,0
109864,note_on,127,0,2,,,,,,,,,1,,,61,0
109864,note_on,127,0,3,,,,,,,,,2,,,61,0
109869,note_on,132,0,4,,,,,,,,,3,,,61,0
109869,note_on,132,0,5,,,,,,,,,4,,,49,0
109869,note_on,132,0,7,,,,,,,,,6,,,61,0
109874,note_on,137,0,8,,,,,,,,,7,,,49,0
109910,note_on,49,0,1,,,,,,,,,0,,,66,127
109910,note_on,46,0,2,,,,,,,,,1,,,66,62
109915,note_on,41,0,8,,,,,,,,,7,,,54,127
109915,note_on,46,0,5,,,,,,,,,4,,,54,90
109915,note_on,46,0,4,,,,,,,,,3,,,66,63
109915,note_on,46,0,7,,,,,,,,,6,,,78,127
109915,note_on,51,0,3,,,,,,,,,2,,,66,63
109996,note_on,86,0,1,,,,,,,,,0,,,66,0
109998,note_on,88,0,2,,,,,,,,,1,,,66,0
109998,note_on,83,0,3,,,,,,,,,2,,,66,0
109999,note_on,84,0,5,,,,,,,,,4,,,54,0
109999,note_on,84,0,4,,,,,,,,,3,,,66,0
110003,note_on,88,0,7,,,,,,,,,6,,,78,0
110004,note_on,89,0,8,,,,,,,,,7,,,54,0
110006,note_on,7,0,4,,,,,,,,,3,,,65,63
110006,note_on,3,0,7,,,,,,,,,6,,,77,127
110006,note_on,8,0,3,,,,,,,,,2,,,65,63
110006,note_on,7,0,5,,,,,,,,,4,,,53,90
110006,note_on,2,0,8,,,,,,,,,7,,,53,127
110006,note_on,10,0,1,,,,,,,,,0,,,65,127
110006,note_on,8,0,2,,,,,,,,,1,,,65,62
110088,note_on,82,0,3,,,,,,,,,2,,,65,0
110088,note_on,82,0,4,,,,,,,,,3,,,65,0
110088,note_on,82,0,5,,,,,,,,,4,,,53,0
110088,note_on,82,0,2,,,,,,,,,1,,,65,0
110088,note_on,82,0,1,,,,,,,,,0,,,65,0
110090,note_on,84,0,7,,,,,,,,,6,,,77,0
110090,note_on,84,0,8,,,,,,,,,7,,,53,0
110093,note_on,5,0,1,,,,,,,,,0,,,66,127
110093,note_on,5,0,2,,,,,,,,,1,,,66,62
110095,note_on,5,0,8,,,,,,,,,7,,,54,127
110095,note_on,5,0,7,,,,,,,,,6,,,78,127
110095,note_on,7,0,3,,,,,,,,,2,,,66,63
110095,note_on,7,0,5,,,,,,,,,4,,,54,90
110095,note_on,7,0,4,,,,,,,,,3,,,66,63
110174,note_on,81,0,2,,,,,,,,,1,,,66,0
110174,note_on,81,0,1,,,,,,,,,0,,,66,0
110179,note_on,84,0,3,,,,,,,,,2,,,66,0
110181,note_on,86,0,8,,,,,,,,,7,,,54,0
110181,note_on,7,0,2,,,,,,,,,1,,,65,62
110181,note_on,86,0,7,,,,,,,,,6,,,78,0
110181,note_on,86,0,4,,,,,,,,,3,,,66,0
110181,note_on,86,0,5,,,,,,,,,4,,,54,0
110181,note_on,7,0,1,,,,,,,,,0,,,65,127
110183,note_on,2,0,4,,,,,,,,,3,,,65,63
110183,note_on,2,0,8,,,,,,,,,7,,,53,127
110183,note_on,4,0,3,,,,,,,,,2,,,65,63
110183,note_on,2,0,5,,,,,,,,,4,,,53,90
110183,note_on,2,0,7,,,,,,,,,6,,,77,127
110264,note_on,81,0,3,,,,,,,,,2,,,65,0
110264,note_on,81,0,7,,,,,,,,,6,,,77,0
110264,note_on,81,0,4,,,,,,,,,3,,,65,0
110264,note_on,83,0,1,,,,,,,,,0,,,65,0
110264,note_on,83,0,2,,,,,,,,,1,,,65,0
110264,note_on,81,0,5,,,,,,,,,4,,,53,0
110265,note_on,82,0,8,,,,,,,,,7,,,53,0
110267,note_on,3,0,1,,,,,,,,,0,,,66,127
110267,note_on,3,0,2,,,,,,,,,1,,,66,62
110268,note_on,4,0,3,,,,,,,,,2,,,66,63
110268,note_on,4,0,7,,,,,,,,,6,,,78,127
110268,note_on,4,0,4,,,,,,,,,3,,,66,63
110268,note_on,4,0,5,,,,,,,,,4,,,54,90
110269,note_on,4,0,8,,,,,,,,,7,,,54,127
110352,note_on,85,0,2,,,,,,,,,1,,,66,0
110352,note_on,85,0,1,,,,,,,,,0,,,66,0
110354,note_on,85,0,8,,,,,,,,,7,,,54,0
110354,note_on,86,0,7,,,,,,,,,6,,,78,0
110354,note_on,86,0,3,,,,,,,,,2,,,66,0
110354,note_on,86,0,4,,,,,,,,,3,,,66,0
110354,note_on,86,0,5,,,,,,,,,4,,,54,0
110358,note_on,6,0,1,,,,,,,,,0,,,65,127
110359,note_on,7,0,2,,,,,,,,,1,,,65,62
110359,note_on,5,0,5,,,,,,,,,4,,,53,90
110359,note_on,5,0,7,,,,,,,,,6,,,77,127
110359,note_on,5,0,4,,,,,,,,,3,,,65,63
110359,note_on,5,0,3,,,,,,,,,2,,,65,63
110360,note_on,6,0,8,,,,,,,,,7,,,53,127
110437,note_on,79,0,1,,,,,,,,,0,,,65,0
110438,note_on,79,0,2,,,,,,,,,1,,,65,0
110439,note_on,80,0,3,,,,,,,,,2,,,65,0
110440,note_on,81,0,4,,,,,,,,,3,,,65,0
110440,note_on,81,0,5,,,,,,,,,4,,,53,0
110441,note_on,82,0,7,,,,,,,,,6,,,77,0
110441,note_on,81,0,8,,,,,,,,,7,,,53,0
110442,note_on,5,0,1,,,,,,,,,0,,,66,127
110443,note_on,5,0,2,,,,,,,,,1,,,66,62
110444,note_on,4,0,4,,,,,,,,,3,,,66,63
110444,note_on,5,0,3,,,,,,,,,2,,,66,63
110445,note_on,5,0,5,,,,,,,,,4,,,54,90
110446,note_on,5,0,8,,,,,,,,,7,,,54,127
110446,note_on,5,0,7,,,,,,,,,6,,,78,127
110527,note_on,85,0,1,,,,,,,,,0,,,66,0
110528,note_on,85,0,2,,,,,,,,,1,,,66,0
110529,note_on,84,0,5,,,,,,,,,4,,,54,0
110529,note_on,85,0,3,,,,,,,,,2,,,66,0
110529,note_on,85,0,4,,,,,,,,,3,,,66,0
110529,note_on,83,0,7,,,,,,,,,6,,,78,0
110531,note_on,85,0,8,,,,,,,,,7,,,54,0
110532,note_on,5,0,1,,,,,,,,,0,,,65,127
110532,note_on,4,0,2,,,,,,,,,1,,,65,62
110532,note_on,3,0,3,,,,,,,,,2,,,65,63
110533,note_on,4,0,4,,,,,,,,,3,,,65,63
110535,note_on,6,0,5,,,,,,,,,4,,,53,90
110536,note_on,5,0,8,,,,,,,,,7,,,53,127
110536,note_on,7,0,7,,,,,,,,,6,,,77,127
110615,note_on,83,0,2,,,,,,,,,1,,,65,0
110615,note_on,83,0,1,,,,,,,,,0,,,65,0
110616,note_on,84,0,3,,,,,,,,,2,,,65,0
110616,note_on,83,0,4,,,,,,,,,3,,,65,0
110617,note_on,82,0,5,,,,,,,,,4,,,53,0
110618,note_on,82,0,7,,,,,,,,,6,,,77,0
110620,note_on,5,0,1,,,,,,,,,0,,,66,127
110620,note_on,84,0,8,,,,,,,,,7,,,53,0
110621,note_on,5,0,3,,,,,,,,,2,,,66,63
110621,note_on,6,0,2,,,,,,,,,1,,,66,62
110623,note_on,7,0,4,,,,,,,,,3,,,66,63
110624,note_on,7,0,5,,,,,,,,,4,,,54,90
110624,note_on,4,0,8,,,,,,,,,7,,,54,127
110624,note_on,6,0,7,,,,,,,,,6,,,66,127
110747,note_on,127,0,1,,,,,,,,,0,,,66,0
110747,note_on,126,0,3,,,,,,,,,2,,,66,0
110751,note_on,130,0,2,,,,,,,,,1,,,66,0
110755,note_on,131,0,5,,,,,,,,,4,,,54,0
110755,note_on,132,0,4,,,,,,,,,3,,,66,0
110760,note_on,136,0,8,,,,,,,,,7,,,54,0
110760,note_on,136,0,7,,,,,,,,,6,,,66,0
110797,note_on,50,0,1,,,,,,,,,0,,,66,127
110797,note_on,46,0,2,,,,,,,,,1,,,66,62
110800,note_on,53,0,3,,,,,,,,,2,,,66,63
110800,note_on,40,0,7,,,,,,,,,6,,,54,127
110800,note_on,40,0,8,,,,,,,,,7,,,42,127
110800,note_on,45,0,5,,,,,,,,,4,,,42,90
110800,note_on,45,0,4,,,,,,,,,3,,,54,63
110952,note_on,152,0,4,,,,,,,,,3,,,54,0
110952,note_on,152,0,5,,,,,,,,,4,,,42,0
110952,note_on,155,0,1,,,,,,,,,0,,,66,0
110952,note_on,155,0,2,,,,,,,,,1,,,66,0
110952,note_on,152,0,3,,,,,,,,,2,,,66,0
110953,note_on,153,0,7,,,,,,,,,6,,,54,0
110956,note_on,156,0,8,,,,,,,,,7,,,42,0
111328,note_on,376,0,2,,,,,,,,,1,,,57,62
111328,note_on,376,0,1,,,,,,,,,0,,,57,127
111329,note_on,377,0,3,,,,,,,,,2,,,57,63
111329,note_on,3212,0,6,,,,,,,,,5,,,45,90
111329,note_on,377,0,4,,,,,,,,,3,,,57,63
111329,note_on,377,0,5,,,,,,,,,4,,,45,90
111330,note_on,377,0,7,,,,,,,,,6,,,57,127
111331,note_on,375,0,8,,,,,,,,,7,,,45,127
111634,note_on,306,0,1,,,,,,,,,0,,,57,0
111637,note_on,308,0,3,,,,,,,,,2,,,57,0
111638,note_on,309,0,5,,,,,,,,,4,,,45,0
111638,note_on,310,0,2,,,,,,,,,1,,,57,0
111641,note_on,312,0,4,,,,,,,,,3,,,57,0
111641,note_on,312,0,6,,,,,,,,,5,,,45,0
111644,note_on,313,0,8,,,,,,,,,7,,,45,0
111644,note_on,314,0,7,,,,,,,,,6,,,57,0
111681,note_on,47,0,1,,,,,,,,,0,,,64,127
111682,note_on,45,0,3,,,,,,,,,2,,,64,63
111682,note_on,44,0,2,,,,,,,,,1,,,64,62
111683,note_on,42,0,4,,,,,,,,,3,,,64,63
111684,note_on,40,0,8,,,,,,,,,7,,,52,127
111684,note_on,43,0,6,,,,,,,,,5,,,52,90
111684,note_on,46,0,5,,,,,,,,,4,,,52,90
111684,note_on,40,0,7,,,,,,,,,6,,,64,127
111989,note_on,307,0,3,,,,,,,,,2,,,64,0
111989,note_on,308,0,1,,,,,,,,,0,,,64,0
111992,note_on,310,0,2,,,,,,,,,1,,,64,0
111995,note_on,311,0,6,,,,,,,,,5,,,52,0
111995,note_on,312,0,4,,,,,,,,,3,,,64,0
111995,note_on,311,0,5,,,,,,,,,4,,,52,0
111996,note_on,312,0,7,,,,,,,,,6,,,64,0
111997,note_on,313,0,8,,,,,,,,,7,,,52,0
112038,note_on,49,0,1,,,,,,,,,0,,,69,127
112038,note_on,49,0,3,,,,,,,,,2,,,69,63
112038,note_on,46,0,2,,,,,,,,,1,,,69,62
112038,note_on,43,0,4,,,,,,,,,3,,,69,63
112041,note_on,46,0,5,,,,,,,,,4,,,57,90
112041,note_on,46,0,6,,,,,,,,,5,,,57,90
112041,note_on,45,0,7,,,,,,,,,6,,,69,127
112041,note_on,44,0,8,,,,,,,,,7,,,57,127
112166,note_on,128,0,1,,,,,,,,,0,,,69,0
112168,note_on,130,0,3,,,,,,,,,2,,,69,0
112170,note_on,132,0,2,,,,,,,,,1,,,69,0
112171,note_on,130,0,5,,,,,,,,,4,,,57,0
112171,note_on,133,0,4,,,,,,,,,3,,,69,0
112171,note_on,130,0,6,,,,,,,,,5,,,57,0
112175,note_on,134,0,7,,,,,,,,,6,,,69,0
112177,note_on,136,0,8,,,,,,,,,7,,,57,0
112215,note_on,49,0,1,,,,,,,,,0,,,57,127
112215,note_on,47,0,3,,,,,,,,,2,,,57,63
112215,note_on,45,0,2,,,,,,,,,1,,,57,62
112216,note_on,45,0,6,,,,,,,,,5,,,45,90
112216,note_on,45,0,5,,,,,,,,,4,,,45,90
112216,note_on,45,0,4,,,,,,,,,3,,,57,63
112216,note_on,41,0,7,,,,,,,,,6,,,57,127
112217,note_on,40,0,8,,,,,,,,,7,,,45,127
112369,note_on,154,0,1,,,,,,,,,0,,,57,0
112369,note_on,153,0,4,,,,,,,,,3,,,57,0
112369,note_on,154,0,3,,,,,,,,,2,,,57,0
112369,note_on,154,0,2,,,,,,,,,1,,,57,0
112371,note_on,155,0,5,,,,,,,,,4,,,45,0
112372,note_on,155,0,8,,,,,,,,,7,,,45,0
112372,note_on,156,0,6,,,,,,,,,5,,,45,0
112372,note_on,156,0,7,,,,,,,,,6,,,57,0
112570,note_on,201,0,1,,,,,,,,,0,,,64,127
112571,note_on,202,0,3,,,,,,,,,2,,,64,63
112571,note_on,202,0,2,,,,,,,,,1,,,64,62
112571,note_on,199,0,7,,,,,,,,,6,,,64,127
112571,note_on,202,0,4,,,,,,,,,3,,,64,64
112571,note_on,200,0,5,,,,,,,,,4,,,52,90
112572,note_on,200,0,8,,,,,,,,,7,,,52,127
112700,note_on,129,0,3,,,,,,,,,2,,,64,0
112700,note_on,130,0,1,,,,,,,,,0,,,64,0
112703,note_on,132,0,4,,,,,,,,,3,,,64,0
112703,note_on,132,0,5,,,,,,,,,4,,,52,0
112703,note_on,132,0,2,,,,,,,,,1,,,64,0
112705,note_on,134,0,7,,,,,,,,,6,,,64,0
112706,note_on,134,0,8,,,,,,,,,7,,,52,0
112746,note_on,46,0,1,,,,,,,,,0,,,69,127
112750,note_on,47,0,5,,,,,,,,,4,,,57,90
112750,note_on,50,0,3,,,,,,,,,2,,,69,63
112750,note_on,45,0,7,,,,,,,,,6,,,69,127
112750,note_on,44,0,8,,,,,,,,,7,,,57,127
112750,note_on,47,0,4,,,,,,,,,3,,,69,64
112750,note_on,47,0,2,,,,,,,,,1,,,69,62
112835,note_on,85,0,4,,,,,,,,,3,,,69,0
112835,note_on,89,0,1,,,,,,,,,0,,,69,0
112835,note_on,85,0,2,,,,,,,,,1,,,69,0
112835,note_on,85,0,3,,,,,,,,,2,,,69,0
112839,note_on,89,0,7,,,,,,,,,6,,,69,0
112839,note_on,4,0,1,,,,,,,,,0,,,68,127
112839,note_on,89,0,8,,,,,,,,,7,,,57,0
112839,note_on,89,0,5,,,,,,,,,4,,,57,0
112843,note_on,4,0,8,,,,,,,,,7,,,56,127
112843,note_on,8,0,2,,,,,,,,,1,,,68,62
112843,note_on,8,0,3,,,,,,,,,2,,,68,63
112843,note_on,4,0,5,,,,,,,,,4,,,56,90
112843,note_on,8,0,4,,,,,,,,,3,,,68,64
112843,note_on,4,0,7,,,,,,,,,6,,,68,127
112924,note_on,81,0,5,,,,,,,,,4,,,56,0
112924,note_on,81,0,3,,,,,,,,,2,,,68,0
112924,note_on,81,0,4,,,,,,,,,3,,,68,0
112924,note_on,81,0,2,,,,,,,,,1,,,68,0
112924,note_on,0,0,1,,,,,,,,,0,,,69,127
112924,note_on,85,0,1,,,,,,,,,0,,,68,0
112924,note_on,81,0,7,,,,,,,,,6,,,68,0
112924,note_on,81,0,8,,,,,,,,,7,,,56,0
112925,note_on,1,0,2,,,,,,,,,1,,,69,62
112926,note_on,2,0,3,,,,,,,,,2,,,69,63
112928,note_on,4,0,5,,,,,,,,,4,,,57,90
112928,note_on,4,0,8,,,,,,,,,7,,,57,127
112928,note_on,4,0,4,,,,,,,,,3,,,69,64
112928,note_on,4,0,7,,,,,,,,,6,,,69,127
113009,note_on,85,0,1,,,,,,,,,0,,,69,0
113009,note_on,83,0,3,,,,,,,,,2,,,69,0
113009,note_on,84,0,2,,,,,,,,,1,,,69,0
113011,note_on,83,0,4,,,,,,,,,3,,,69,0
113012,note_on,84,0,7,,,,,,,,,6,,,69,0
113012,note_on,84,0,5,,,,,,,,,4,,,57,0
113012,note_on,84,0,8,,,,,,,,,7,,,57,0
113014,note_on,5,0,1,,,,,,,,,0,,,68,127
113015,note_on,6,0,2,,,,,,,,,1,,,68,62
113016,note_on,7,0,3,,,,,,,,,2,,,68,63
113016,note_on,5,0,4,,,,,,,,,3,,,68,64
113017,note_on,5,0,7,,,,,,,,,6,,,68,127
113017,note_on,5,0,5,,,,,,,,,4,,,56,90
113017,note_on,5,0,8,,,,,,,,,7,,,56,127
113099,note_on,85,0,1,,,,,,,,,0,,,68,0
113099,note_on,83,0,3,,,,,,,,,2,,,68,0
113099,note_on,84,0,2,,,,,,,,,1,,,68,0
113101,note_on,85,0,4,,,,,,,,,3,,,68,0
113102,note_on,85,0,8,,,,,,,,,7,,,56,0
113102,note_on,85,0,5,,,,,,,,,4,,,56,0
113102,note_on,85,0,7,,,,,,,,,6,,,68,0
113107,note_on,8,0,3,,,,,,,,,2,,,69,63
113107,note_on,8,0,2,,,,,,,,,1,,,69,62
113107,note_on,6,0,4,,,,,,,,,3,,,69,64
113107,note_on,8,0,1,,,,,,,,,0,,,69,127
113108,note_on,6,0,5,,,,,,,,,4,,,57,90
113108,note_on,6,0,7,,,,,,,,,6,,,69,127
113108,note_on,6,0,8,,,,,,,,,7,,,57,127
113188,note_on,81,0,3,,,,,,,,,2,,,69,0
113188,note_on,81,0,4,,,,,,,,,3,,,69,0
113188,note_on,81,0,1,,,,,,,,,0,,,69,0
113188,note_on,81,0,2,,,,,,,,,1,,,69,0
113190,note_on,82,0,5,,,,,,,,,4,,,57,0
113190,note_on,82,0,7,,,,,,,,,6,,,69,0
113191,note_on,83,0,8,,,,,,,,,7,,,57,0
113192,note_on,4,0,2,,,,,,,,,1,,,68,62
113192,note_on,4,0,1,,,,,,,,,0,,,68,127
113193,note_on,5,0,3,,,,,,,,,2,,,68,63
113193,note_on,5,0,4,,,,,,,,,3,,,68,64
113194,note_on,4,0,5,,,,,,,,,4,,,56,90
113195,note_on,5,0,7,,,,,,,,,6,,,68,127
113195,note_on,4,0,8,,,,,,,,,7,,,56,127
113274,note_on,82,0,1,,,,,,,,,0,,,68,0
113275,note_on,83,0,2,,,,,,,,,1,,,68,0
113276,note_on,83,0,3,,,,,,,,,2,,,68,0
113276,note_on,82,0,5,,,,,,,,,4,,,56,0
113276,note_on,83,0,4,,,,,,,,,3,,,68,0
113278,note_on,83,0,7,,,,,,,,,6,,,68,0
113279,note_on,84,0,8,,,,,,,,,7,,,56,0
113280,note_on,4,0,4,,,,,,,,,3,,,69,64
113280,note_on,4,0,3,,,,,,,,,2,,,69,63
113280,note_on,5,0,2,,,,,,,,,1,,,69,62
113280,note_on,2,0,7,,,,,,,,,6,,,69,127
113280,note_on,4,0,5,,,,,,,,,4,,,57,90
113280,note_on,6,0,1,,,,,,,,,0,,,69,127
113281,note_on,2,0,8,,,,,,,,,7,,,57,127
113363,note_on,83,0,1,,,,,,,,,0,,,69,0
113363,note_on,83,0,2,,,,,,,,,1,,,69,0
113365,note_on,85,0,3,,,,,,,,,2,,,69,0
113365,note_on,85,0,4,,,,,,,,,3,,,69,0
113366,note_on,86,0,5,,,,,,,,,4,,,57,0
113367,note_on,87,0,7,,,,,,,,,6,,,69,0
113368,note_on,5,0,2,,,,,,,,,1,,,68,62
113368,note_on,87,0,8,,,,,,,,,7,,,57,0
113368,note_on,5,0,1,,,,,,,,,0,,,68,127
113369,note_on,4,0,3,,,,,,,,,2,,,68,63
113370,note_on,4,0,5,,,,,,,,,4,,,56,90
113370,note_on,5,0,4,,,,,,,,,3,,,68,64
113370,note_on,2,0,8,,,,,,,,,7,,,56,127
113370,note_on,3,0,7,,,,,,,,,6,,,68,127
113455,note_on,85,0,8,,,,,,,,,7,,,56,0
113455,note_on,85,0,5,,,,,,,,,4,,,56,0
113455,note_on,85,0,4,,,,,,,,,3,,,68,0
113455,note_on,86,0,3,,,,,,,,,2,,,68,0
113455,note_on,87,0,2,,,,,,,,,1,,,68,0
113455,note_on,85,0,7,,,,,,,,,6,,,68,0
113455,note_on,87,0,1,,,,,,,,,0,,,68,0
113456,note_on,1,0,1,,,,,,,,,0,,,69,127
113456,note_on,1,0,2,,,,,,,,,1,,,69,62
113457,note_on,2,0,4,,,,,,,,,3,,,69,64
113457,note_on,2,0,5,,,,,,,,,4,,,57,90
113457,note_on,2,0,7,,,,,,,,,6,,,69,127
113457,note_on,2,0,8,,,,,,,,,7,,,57,127
113457,note_on,2,0,3,,,,,,,,,2,,,69,63
113586,note_on,129,0,3,,,,,,,,,2,,,69,0
113586,note_on,130,0,1,,,,,,,,,0,,,69,0
113589,note_on,133,0,2,,,,,,,,,1,,,69,0
113589,note_on,132,0,4,,,,,,,,,3,,,69,0
113589,note_on,132,0,5,,,,,,,,,4,,,57,0
113595,note_on,138,0,8,,,,,,,,,7,,,57,0
113595,note_on,138,0,7,,,,,,,,,6,,,69,0
113634,note_on,48,0,3,,,,,,,,,2,,,57,63
113634,note_on,45,0,4,,,,,,,,,3,,,57,64
113634,note_on,48,0,1,,,,,,,,,0,,,57,127
113634,note_on,45,0,2,,,,,,,,,1,,,57,62
113637,note_on,48,0,5,,,,,,,,,4,,,45,90
113637,note_on,42,0,7,,,,,,,,,6,,,57,127
113637,note_on,42,0,8,,,,,,,,,7,,,45,127
113786,note_on,152,0,1,,,,,,,,,0,,,57,0
113788,note_on,154,0,2,,,,,,,,,1,,,57,0
113788,note_on,154,0,3,,,,,,,,,2,,,57,0
113789,note_on,152,0,5,,,,,,,,,4,,,45,0
113789,note_on,155,0,4,,,,,,,,,3,,,57,0
113790,note_on,153,0,7,,,,,,,,,6,,,57,0
113791,note_on,154,0,8,,,,,,,,,7,,,45,0
113985,note_on,199,0,1,,,,,,,,,0,,,64,127
113985,note_on,197,0,3,,,,,,,,,2,,,64,63
113985,note_on,197,0,2,,,,,,,,,1,,,64,62
113986,note_on,197,0,4,,,,,,,,,3,,,64,64
113988,note_on,198,0,7,,,,,,,,,6,,,64,127
113988,note_on,197,0,8,,,,,,,,,7,,,52,127
113988,note_on,199,0,5,,,,,,,,,4,,,52,90
114115,note_on,130,0,1,,,,,,,,,0,,,64,0
114117,note_on,132,0,3,,,,,,,,,2,,,64,0
114120,note_on,135,0,2,,,,,,,,,1,,,64,0
114122,note_on,134,0,5,,,,,,,,,4,,,52,0
114122,note_on,136,0,4,,,,,,,,,3,,,64,0
114124,note_on,136,0,7,,,,,,,,,6,,,64,0
114126,note_on,138,0,8,,,,,,,,,7,,,52,0
114162,note_on,47,0,1,,,,,,,,,0,,,69,127
114163,note_on,46,0,3,,,,,,,,,2,,,69,63
114163,note_on,43,0,2,,,,,,,,,1,,,69,62
114164,note_on,42,0,4,,,,,,,,,3,,,69,64
114165,note_on,43,0,5,,,,,,,,,4,,,57,90
114166,note_on,42,0,7,,,,,,,,,6,,,69,127
114167,note_on,41,0,8,,,,,,,,,7,,,57,127
114252,note_on,90,0,1,,,,,,,,,0,,,69,0
114253,note_on,90,0,3,,,,,,,,,2,,,69,0
114253,note_on,90,0,2,,,,,,,,,1,,,69,0
114254,note_on,88,0,7,,,,,,,,,6,,,69,0
114254,note_on,89,0,5,,,,,,,,,4,,,57,0
114254,note_on,90,0,4,,,,,,,,,3,,,69,0
114259,note_on,7,0,1,,,,,,,,,0,,,68,127
114259,note_on,5,0,4,,,,,,,,,3,,,68,64
114259,note_on,6,0,2,,,,,,,,,1,,,68,62
114259,note_on,6,0,3,,,,,,,,,2,,,68,63
114259,note_on,92,0,8,,,,,,,,,7,,,57,0
114261,note_on,7,0,5,,,,,,,,,4,,,56,90
114261,note_on,2,0,8,,,,,,,,,7,,,56,127
114261,note_on,7,0,7,,,,,,,,,6,,,68,127
114342,note_on,83,0,3,,,,,,,,,2,,,68,0
114342,note_on,83,0,1,,,,,,,,,0,,,68,0
114342,note_on,83,0,2,,,,,,,,,1,,,68,0
114343,note_on,84,0,4,,,,,,,,,3,,,68,0
114345,note_on,84,0,5,,,,,,,,,4,,,56,0
114345,note_on,84,0,7,,,,,,,,,6,,,68,0
114346,note_on,85,0,8,,,,,,,,,7,,,56,0
114349,note_on,6,0,4,,,,,,,,,3,,,69,64
114349,note_on,3,0,8,,,,,,,,,7,,,57,127
114349,note_on,4,0,7,,,,,,,,,6,,,69,127
114349,note_on,7,0,1,,,,,,,,,0,,,69,127
114349,note_on,7,0,3,,,,,,,,,2,,,69,63
114349,note_on,7,0,2,,,,,,,,,1,,,69,62
114349,note_on,4,0,5,,,,,,,,,4,,,57,90
114428,note_on,79,0,1,,,,,,,,,0,,,69,0
114429,note_on,80,0,3,,,,,,,,,2,,,69,0
114429,note_on,80,0,2,,,,,,,,,1,,,69,0
114431,note_on,82,0,4,,,,,,,,,3,,,69,0
114436,note_on,87,0,7,,,,,,,,,6,,,69,0
114436,note_on,87,0,5,,,,,,,,,4,,,57,0
114438,note_on,9,0,2,,,,,,,,,1,,,68,62
114438,note_on,10,0,1,,,,,,,,,0,,,68,127
114438,note_on,2,0,7,,,,,,,,,6,,,68,127
114438,note_on,7,0,4,,,,,,,,,3,,,68,64
114438,note_on,2,0,5,,,,,,,,,4,,,56,90
114438,note_on,89,0,8,,,,,,,,,7,,,57,0
114438,note_on,0,0,8,,,,,,,,,7,,,56,127
114438,note_on,9,0,3,,,,,,,,,2,,,68,63
114518,note_on,80,0,2,,,,,,,,,1,,,68,0
114518,note_on,80,0,4,,,,,,,,,3,,,68,0
114518,note_on,80,0,3,,,,,,,,,2,,,68,0
114518,note_on,80,0,1,,,,,,,,,0,,,68,0
114518,note_on,80,0,5,,,,,,,,,4,,,56,0
114524,note_on,6,0,2,,,,,,,,,1,,,69,62
114524,note_on,6,0,1,,,,,,,,,0,,,69,127
114524,note_on,86,0,8,,,,,,,,,7,,,56,0
114524,note_on,86,0,7,,,,,,,,,6,,,68,0
114525,note_on,7,0,3,,,,,,,,,2,,,69,63
114527,note_on,9,0,4,,,,,,,,,3,,,69,64
114527,note_on,3,0,7,,,,,,,,,6,,,69,127
114527,note_on,9,0,5,,,,,,,,,4,,,57,90
114527,note_on,3,0,8,,,,,,,,,7,,,57,127
114606,note_on,82,0,1,,,,,,,,,0,,,69,0
114606,note_on,82,0,2,,,,,,,,,1,,,69,0
114610,note_on,85,0,3,,,,,,,,,2,,,69,0
114610,note_on,83,0,5,,,,,,,,,4,,,57,0
114610,note_on,83,0,8,,,,,,,,,7,,,57,0
114610,note_on,83,0,7,,,,,,,,,6,,,69,0
114610,note_on,83,0,4,,,,,,,,,3,,,69,0
114614,note_on,8,0,2,,,,,,,,,1,,,68,62
114614,note_on,8,0,1,,,,,,,,,0,,,68,127
114615,note_on,5,0,4,,,,,,,,,3,,,68,64
114615,note_on,5,0,5,,,,,,,,,4,,,56,90
114615,note_on,5,0,7,,,,,,,,,6,,,68,127
114615,note_on,5,0,8,,,,,,,,,7,,,56,127
114615,note_on,5,0,3,,,,,,,,,2,,,68,63
114693,note_on,79,0,1,,,,,,,,,0,,,68,0
114698,note_on,84,0,2,,,,,,,,,1,,,68,0
114698,note_on,83,0,3,,,,,,,,,2,,,68,0
114700,note_on,85,0,4,,,,,,,,,3,,,68,0
114700,note_on,85,0,7,,,,,,,,,6,,,68,0
114700,note_on,85,0,5,,,,,,,,,4,,,56,0
114702,note_on,87,0,8,,,,,,,,,7,,,56,0
114703,note_on,5,0,2,,,,,,,,,1,,,69,62
114703,note_on,10,0,1,,,,,,,,,0,,,69,127
114703,note_on,5,0,3,,,,,,,,,2,,,69,63
114703,note_on,3,0,5,,,,,,,,,4,,,57,90
114703,note_on,3,0,4,,,,,,,,,3,,,69,64
114703,note_on,3,0,7,,,,,,,,,6,,,69,127
114703,note_on,1,0,8,,,,,,,,,7,,,57,127
114782,note_on,79,0,1,,,,,,,,,0,,,69,0
114782,note_on,79,0,2,,,,,,,,,1,,,69,0
114783,note_on,80,0,3,,,,,,,,,2,,,69,0
114784,note_on,81,0,4,,,,,,,,,3,,,69,0
114784,note_on,81,0,5,,,,,,,,,4,,,57,0
114785,note_on,82,0,7,,,,,,,,,6,,,69,0
114785,note_on,82,0,8,,,,,,,,,7,,,57,0
114785,note_on,3,0,2,,,,,,,,,1,,,68,62
114785,note_on,3,0,1,,,,,,,,,0,,,68,127
114786,note_on,2,0,4,,,,,,,,,3,,,68,64
114786,note_on,3,0,3,,,,,,,,,2,,,68,63
114788,note_on,3,0,7,,,,,,,,,6,,,68,127
114788,note_on,3,0,8,,,,,,,,,7,,,56,127
114788,note_on,4,0,5,,,,,,,,,4,,,56,90
114869,note_on,84,0,1,,,,,,,,,0,,,68,0
114871,note_on,86,0,2,,,,,,,,,1,,,68,0
114872,note_on,86,0,4,,,,,,,,,3,,,68,0
114872,note_on,86,0,3,,,,,,,,,2,,,68,0
114872,note_on,84,0,5,,,,,,,,,4,,,56,0
114873,note_on,85,0,7,,,,,,,,,6,,,68,0
114875,note_on,87,0,8,,,,,,,,,7,,,56,0
114875,note_on,6,0,1,,,,,,,,,0,,,69,127
114876,note_on,4,0,3,,,,,,,,,2,,,69,63
114876,note_on,5,0,2,,,,,,,,,1,,,69,62
114878,note_on,6,0,5,,,,,,,,,4,,,57,90
114878,note_on,6,0,4,,,,,,,,,3,,,69,64
114879,note_on,6,0,7,,,,,,,,,6,,,69,127
114880,note_on,5,0,8,,,,,,,,,7,,,57,127
115002,note_on,127,0,1,,,,,,,,,0,,,69,0
115002,note_on,126,0,3,,,,,,,,,2,,,69,0
115007,note_on,129,0,4,,,,,,,,,3,,,69,0
115007,note_on,129,0,5,,,,,,,,,4,,,57,0
115007,note_on,131,0,2,,,,,,,,,1,,,69,0
115014,note_on,134,0,8,,,,,,,,,7,,,57,0
115014,note_on,135,0,7,,,,,,,,,6,,,69,0
115051,note_on,49,0,1,,,,,,,,,0,,,57,127
115051,note_on,44,0,2,,,,,,,,,1,,,57,62
115052,note_on,38,0,7,,,,,,,,,6,,,57,127
115052,note_on,50,0,3,,,,,,,,,2,,,57,63
115052,note_on,45,0,4,,,,,,,,,3,,,57,64
115052,note_on,45,0,5,,,,,,,,,4,,,45,90
115053,note_on,39,0,8,,,,,,,,,7,,,45,127
115203,note_on,152,0,1,,,,,,,,,0,,,57,0
115204,note_on,153,0,2,,,,,,,,,1,,,57,0
115205,note_on,153,0,3,,,,,,,,,2,,,57,0
115206,note_on,154,0,5,,,,,,,,,4,,,45,0
115206,note_on,154,0,4,,,,,,,,,3,,,57,0
115208,note_on,155,0,8,,,,,,,,,7,,,45,0
115208,note_on,156,0,7,,,,,,,,,6,,,57,0
115405,note_on,202,0,1,,,,,,,,,0,,,76,127
115408,note_on,204,0,2,,,,,,,,,1,,,69,62
115408,note_on,202,0,4,,,,,,,,,3,,,69,64
115408,note_on,203,0,3,,,,,,,,,2,,,69,63
115532,note_on,127,0,1,,,,,,,,,0,,,76,0
115538,note_on,130,0,2,,,,,,,,,1,,,69,0
115538,note_on,130,0,3,,,,,,,,,2,,,69,0
115540,note_on,132,0,4,,,,,,,,,3,,,69,0
115584,note_on,44,0,4,,,,,,,,,3,,,57,64
115584,note_on,46,0,3,,,,,,,,,2,,,57,63
115584,note_on,46,0,2,,,,,,,,,1,,,57,62
115584,note_on,52,0,1,,,,,,,,,0,,,81,127
115646,note_on,62,0,1,,,,,,,,,0,,,81,0
115671,note_on,25,0,1,,,,,,,,,0,,,83,127
115711,note_on,127,0,3,,,,,,,,,2,,,57,0
115715,note_on,131,0,2,,,,,,,,,1,,,57,0
115715,note_on,131,0,4,,,,,,,,,3,,,57,0
115736,note_on,65,0,1,,,,,,,,,0,,,83,0
115760,note_on,45,0,4,,,,,,,,,3,,,69,64
115760,note_on,24,0,1,,,,,,,,,0,,,85,127
115760,note_on,45,0,2,,,,,,,,,1,,,69,62
115760,note_on,49,0,3,,,,,,,,,2,,,69,63
115889,note_on,129,0,3,,,,,,,,,2,,,69,0
115891,note_on,131,0,2,,,,,,,,,1,,,69,0
115891,note_on,131,0,4,,,,,,,,,3,,,69,0
115938,note_on,47,0,4,,,,,,,,,3,,,73,64
115938,note_on,49,0,3,,,,,,,,,2,,,73,63
115938,note_on,47,0,2,,,,,,,,,1,,,73,62
116063,note_on,125,0,4,,,,,,,,,3,,,73,0
116065,note_on,127,0,2,,,,,,,,,1,,,73,0
116067,note_on,129,0,3,,,,,,,,,2,,,73,0
116115,note_on,50,0,2,,,,,,,,,1,,,69,62
116115,note_on,52,0,4,,,,,,,,,3,,,69,64
116115,note_on,48,0,3,,,,,,,,,2,,,69,63
116244,note_on,129,0,3,,,,,,,,,2,,,69,0
116244,note_on,484,0,1,,,,,,,,,0,,,85,0
116244,note_on,129,0,2,,,,,,,,,1,,,69,0
116244,note_on,129,0,4,,,,,,,,,3,,,69,0
116292,note_on,48,0,1,,,,,,,,,0,,,83,127
116292,note_on,48,0,3,,,,,,,,,2,,,68,63
116292,note_on,48,0,4,,,,,,,,,3,,,68,64
116292,note_on,48,0,2,,,,,,,,,1,,,68,62
116357,note_on,65,0,1,,,,,,,,,0,,,83,0
116379,note_on,22,0,1,,,,,,,,,0,,,85,127
116421,note_on,129,0,3,,,,,,,,,2,,,68,0
116426,note_on,134,0,2,,,,,,,,,1,,,68,0
116426,note_on,134,0,4,,,,,,,,,3,,,68,0
116445,note_on,66,0,1,,,,,,,,,0,,,85,0
116467,note_on,22,0,1,,,,,,,,,0,,,86,127
116468,note_on,42,0,2,,,,,,,,,1,,,69,62
116469,note_on,48,0,3,,,,,,,,,2,,,69,63
116469,note_on,43,0,4,,,,,,,,,3,,,69,64
116600,note_on,131,0,3,,,,,,,,,2,,,69,0
116602,note_on,134,0,2,,,,,,,,,1,,,69,0
116602,note_on,133,0,4,,,,,,,,,3,,,69,0
116646,note_on,46,0,3,,,,,,,,,2,,,71,63
116646,note_on,44,0,2,,,,,,,,,1,,,71,62
116646,note_on,44,0,4,,,,,,,,,3,,,71,64
116772,note_on,126,0,4,,,,,,,,,3,,,71,0
116774,note_on,128,0,2,,,,,,,,,1,,,71,0
116775,note_on,129,0,3,,,,,,,,,2,,,71,0
116822,note_on,48,0,2,,,,,,,,,1,,,68,62
116823,note_on,48,0,3,,,,,,,,,2,,,68,63
116824,note_on,52,0,4,,,,,,,,,3,,,68,64
116950,note_on,127,0,3,,,,,,,,,2,,,68,0
116954,note_on,132,0,2,,,,,,,,,1,,,68,0
116954,note_on,130,0,4,,,,,,,,,3,,,68,0
116954,note_on,487,0,1,,,,,,,,,0,,,86,0
117000,note_on,46,0,1,,,,,,,,,0,,,85,127
117001,note_on,47,0,2,,,,,,,,,1,,,69,62
117001,note_on,51,0,3,,,,,,,,,2,,,69,63
117002,note_on,48,0,4,,,,,,,,,3,,,69,64
117063,note_on,63,0,1,,,,,,,,,0,,,85,0
117090,note_on,27,0,1,,,,,,,,,0,,,86,127
117129,note_on,128,0,3,,,,,,,,,2,,,69,0
117133,note_on,132,0,2,,,,,,,,,1,,,69,0
117136,note_on,134,0,4,,,,,,,,,3,,,69,0
117153,note_on,63,0,1,,,,,,,,,0,,,86,0
117178,note_on,45,0,2,,,,,,,,,1,,,71,62
117178,note_on,25,0,1,,,,,,,,,0,,,88,127
117181,note_on,52,0,3,,,,,,,,,2,,,71,63
117181,note_on,45,0,4,,,,,,,,,3,,,71,64
117309,note_on,128,0,3,,,,,,,,,2,,,71,0
117311,note_on,133,0,2,,,,,,,,,1,,,71,0
117313,note_on,132,0,4,,,,,,,,,3,,,71,0
117356,note_on,45,0,2,,,,,,,,,1,,,73,62
117356,note_on,47,0,3,,,,,,,,,2,,,73,63
117356,note_on,43,0,4,,,,,,,,,3,,,73,64
117483,note_on,127,0,4,,,,,,,,,3,,,73,0
117487,note_on,309,0,1,,,,,,,,,0,,,88,0
117487,note_on,131,0,2,,,,,,,,,1,,,73,0
117487,note_on,131,0,3,,,,,,,,,2,,,73,0
117531,note_on,44,0,1,,,,,,,,,0,,,81,127
117532,note_on,45,0,2,,,,,,,,,1,,,69,62
117533,note_on,50,0,4,,,,,,,,,3,,,69,64
117533,note_on,46,0,3,,,,,,,,,2,,,69,63
117659,note_on,128,0,1,,,,,,,,,0,,,81,0
117662,note_on,129,0,3,,,,,,,,,2,,,69,0
117666,note_on,133,0,4,,,,,,,,,3,,,69,0
117666,note_on,134,0,2,,,,,,,,,1,,,69,0
117710,note_on,51,0,1,,,,,,,,,0,,,83,127
117711,note_on,45,0,4,,,,,,,,,3,,,64,64
117711,program_change,2505,0,5,,,,,,,,42,4,,,,
117711,note_on,49,0,3,,,,,,,,,2,,,64,63
117711,note_on,45,0,2,,,,,,,,,1,,,64,62
117836,note_on,126,0,1,,,,,,,,,0,,,83,0
117884,note_on,48,0,1,,,,,,,,,0,,,76,127
118040,note_on,156,0,1,,,,,,,,,0,,,76,0
118042,note_on,331,0,2,,,,,,,,,1,,,64,0
118064,note_on,353,0,4,,,,,,,,,3,,,64,0
118064,note_on,353,0,3,,,,,,,,,2,,,64,0
118244,note_on,533,0,5,,,,,,,,,4,,,57,90
118244,note_on,3036,0,8,,,,,,,,,7,,,57,127
118244,note_on,204,0,1,,,,,,,,,0,,,64,127
118369,note_on,125,0,1,,,,,,,,,0,,,64,0
118372,note_on,128,0,8,,,,,,,,,7,,,57,0
118374,note_on,130,0,5,,,,,,,,,4,,,57,0
118417,note_on,48,0,1,,,,,,,,,0,,,69,127
118418,note_on,44,0,5,,,,,,,,,4,,,45,82
118420,note_on,0,0,7,,,,,,,,,6,,,64,119
118420,note_on,3212,0,7,,,,,,,,,6,,,73,119
118420,note_on,48,0,8,,,,,,,,,7,,,45,119
118484,note_on,67,0,1,,,,,,,,,0,,,69,0
118507,note_on,23,0,1,,,,,,,,,0,,,71,127
118554,note_on,136,0,5,,,,,,,,,4,,,45,0
118559,note_on,139,0,8,,,,,,,,,7,,,45,0
118569,note_on,62,0,1,,,,,,,,,0,,,71,0
118596,note_on,37,0,8,,,,,,,,,7,,,57,119
118596,note_on,42,0,5,,,,,,,,,4,,,57,82
118596,note_on,27,0,1,,,,,,,,,0,,,73,127
118721,note_on,125,0,8,,,,,,,,,7,,,57,0
118725,note_on,129,0,5,,,,,,,,,4,,,57,0
118771,note_on,351,0,7,,,,,,,,,6,,,73,0
118772,note_on,47,0,5,,,,,,,,,4,,,61,82
118773,note_on,2,0,7,,,,,,,,,6,,,76,119
118774,note_on,53,0,8,,,,,,,,,7,,,61,119
118900,note_on,126,0,8,,,,,,,,,7,,,61,0
118902,note_on,130,0,5,,,,,,,,,4,,,61,0
118951,note_on,51,0,8,,,,,,,,,7,,,57,119
118951,note_on,49,0,5,,,,,,,,,4,,,57,82
119079,note_on,306,0,7,,,,,,,,,6,,,76,0
119081,note_on,130,0,8,,,,,,,,,7,,,57,0
119081,note_on,485,0,1,,,,,,,,,0,,,73,0
119081,note_on,130,0,5,,,,,,,,,4,,,57,0
119129,note_on,48,0,5,,,,,,,,,4,,,56,82
119129,note_on,48,0,1,,,,,,,,,0,,,71,127
119129,note_on,50,0,7,,,,,,,,,6,,,64,0
119129,note_on,0,0,7,,,,,,,,,6,,,64,119
119131,note_on,50,0,8,,,,,,,,,7,,,56,119
119131,note_on,2,0,7,,,,,,,,,6,,,71,119
119192,note_on,63,0,1,,,,,,,,,0,,,71,0
119217,note_on,25,0,1,,,,,,,,,0,,,73,127
119263,note_on,134,0,5,,,,,,,,,4,,,56,0
119266,note_on,135,0,8,,,,,,,,,7,,,56,0
119280,note_on,63,0,1,,,,,,,,,0,,,73,0
119305,note_on,25,0,1,,,,,,,,,0,,,74,127
119306,note_on,40,0,8,,,,,,,,,7,,,57,119
119306,note_on,43,0,5,,,,,,,,,4,,,57,82
119435,note_on,129,0,8,,,,,,,,,7,,,57,0
119438,note_on,132,0,5,,,,,,,,,4,,,57,0
119480,note_on,349,0,7,,,,,,,,,6,,,71,0
119483,note_on,3,0,7,,,,,,,,,6,,,74,119
119483,note_on,45,0,5,,,,,,,,,4,,,59,82
119484,note_on,49,0,8,,,,,,,,,7,,,59,119
119608,note_on,124,0,8,,,,,,,,,7,,,59,0
119611,note_on,128,0,5,,,,,,,,,4,,,59,0
119659,note_on,48,0,5,,,,,,,,,4,,,56,82
119661,note_on,53,0,8,,,,,,,,,7,,,56,119
119787,note_on,126,0,8,,,,,,,,,7,,,56,0
119787,note_on,482,0,1,,,,,,,,,0,,,74,0
119788,note_on,305,0,7,,,,,,,,,6,,,74,0
119788,note_on,129,0,5,,,,,,,,,4,,,56,0
119837,note_on,49,0,5,,,,,,,,,4,,,57,82
119837,note_on,50,0,1,,,,,,,,,0,,,73,127
119839,note_on,52,0,8,,,,,,,,,7,,,57,119
119839,note_on,51,0,7,,,,,,,,,6,,,64,0
119839,note_on,0,0,7,,,,,,,,,6,,,73,119
119839,note_on,0,0,7,,,,,,,,,6,,,64,119
119900,note_on,63,0,1,,,,,,,,,0,,,73,0
119924,note_on,24,0,1,,,,,,,,,0,,,74,127
119970,note_on,133,0,5,,,,,,,,,4,,,57,0
119970,note_on,131,0,8,,,,,,,,,7,,,57,0
119990,note_on,66,0,1,,,,,,,,,0,,,74,0
120014,note_on,24,0,1,,,,,,,,,0,,,76,127
120016,note_on,46,0,8,,,,,,,,,7,,,59,119
120016,note_on,46,0,5,,,,,,,,,4,,,59,82
120142,note_on,126,0,8,,,,,,,,,7,,,59,0
120144,note_on,128,0,5,,,,,,,,,4,,,59,0
120188,note_on,349,0,7,,,,,,,,,6,,,73,0
120190,note_on,46,0,5,,,,,,,,,4,,,61,82
120192,note_on,50,0,8,,,,,,,,,7,,,61,119
120192,note_on,4,0,7,,,,,,,,,6,,,69,119
120317,note_on,125,0,8,,,,,,,,,7,,,61,0
120320,note_on,306,0,1,,,,,,,,,0,,,76,0
120320,note_on,130,0,5,,,,,,,,,4,,,61,0
120368,note_on,48,0,1,,,,,,,,,0,,,69,127
120368,note_on,48,0,5,,,,,,,,,4,,,57,82
120369,note_on,52,0,8,,,,,,,,,7,,,57,119
120497,note_on,129,0,1,,,,,,,,,0,,,69,0
120497,note_on,305,0,7,,,,,,,,,6,,,69,0
120497,note_on,128,0,8,,,,,,,,,7,,,57,0
120497,note_on,129,0,5,,,,,,,,,4,,,57,0
120547,program_change,2505,0,2,,,,,,,,40,1,,,,
120547,note_on,50,0,1,,,,,,,,,0,,,71,127
120552,note_on,55,0,5,,,,,,,,,4,,,52,82
120552,note_on,55,0,7,,,,,,,,,6,,,64,0
120553,note_on,0,0,7,,,,,,,,,6,,,68,119
120553,note_on,1,0,7,,,,,,,,,6,,,71,119
120553,program_change,2489,0,3,,,,,,,,40,2,,,,
120553,note_on,0,0,7,,,,,,,,,6,,,64,119
120553,program_change,2489,0,4,,,,,,,,41,3,,,,
120553,note_on,56,0,8,,,,,,,,,7,,,52,119
120675,note_on,128,0,1,,,,,,,,,0,,,71,0
120724,note_on,49,0,1,,,,,,,,,0,,,64,127
120877,note_on,153,0,1,,,,,,,,,0,,,64,0
120900,note_on,348,0,5,,,,,,,,,4,,,52,0
120903,note_on,0,0,7,,,,,,,,,6,,,68,0
120903,note_on,350,0,8,,,,,,,,,7,,,52,0
120903,note_on,0,0,7,,,,,,,,,6,,,71,0
120903,note_on,350,0,7,,,,,,,,,6,,,64,0
121079,note_on,526,0,4,,,,,,,,,3,,,61,65
121079,note_on,202,0,1,,,,,,,,,0,,,76,127
121079,note_on,526,0,3,,,,,,,,,2,,,61,63
121079,note_on,532,0,2,,,,,,,,,1,,,61,65
121206,note_on,127,0,3,,,,,,,,,2,,,61,0
121206,note_on,127,0,1,,,,,,,,,0,,,76,0
121211,note_on,132,0,2,,,,,,,,,1,,,61,0
121211,note_on,132,0,4,,,,,,,,,3,,,61,0
121256,note_on,45,0,2,,,,,,,,,1,,,61,65
121256,note_on,50,0,1,,,,,,,,,0,,,81,127
121256,note_on,45,0,4,,,,,,,,,3,,,61,65
121256,note_on,50,0,3,,,,,,,,,2,,,61,63
121320,note_on,64,0,1,,,,,,,,,0,,,81,0
121343,note_on,23,0,1,,,,,,,,,0,,,76,127
121385,note_on,129,0,3,,,,,,,,,2,,,61,0
121388,note_on,132,0,2,,,,,,,,,1,,,61,0
121389,note_on,133,0,4,,,,,,,,,3,,,61,0
121409,note_on,66,0,1,,,,,,,,,0,,,76,0
121430,note_on,21,0,1,,,,,,,,,0,,,73,127
121431,note_on,43,0,2,,,,,,,,,1,,,59,65
121432,note_on,43,0,4,,,,,,,,,3,,,59,65
121432,note_on,47,0,3,,,,,,,,,2,,,59,63
121498,note_on,68,0,1,,,,,,,,,0,,,73,0
121519,note_on,21,0,1,,,,,,,,,0,,,69,127
121564,note_on,132,0,3,,,,,,,,,2,,,59,0
121565,note_on,134,0,2,,,,,,,,,1,,,59,0
121567,note_on,135,0,4,,,,,,,,,3,,,59,0
121585,note_on,66,0,1,,,,,,,,,0,,,69,0
121609,note_on,24,0,1,,,,,,,,,0,,,79,127
121609,note_on,45,0,3,,,,,,,,,2,,,61,63
121609,note_on,44,0,2,,,,,,,,,1,,,61,65
121610,note_on,43,0,4,,,,,,,,,3,,,61,65
121651,note_on,42,0,1,,,,,,,,,0,,,79,0
121655,note_on,4,0,1,,,,,,,,,0,,,80,127
121698,note_on,43,0,1,,,,,,,,,0,,,80,0
121698,note_on,0,0,1,,,,,,,,,0,,,79,127
121742,note_on,44,0,1,,,,,,,,,0,,,79,0
121742,note_on,133,0,3,,,,,,,,,2,,,61,0
121744,note_on,2,0,1,,,,,,,,,0,,,80,127
121744,note_on,135,0,2,,,,,,,,,1,,,61,0
121744,note_on,134,0,4,,,,,,,,,3,,,61,0
121782,note_on,38,0,1,,,,,,,,,0,,,80,0
121787,note_on,5,0,1,,,,,,,,,0,,,79,127
121789,note_on,45,0,2,,,,,,,,,1,,,57,65
121789,note_on,47,0,3,,,,,,,,,2,,,57,63
121790,note_on,46,0,4,,,,,,,,,3,,,57,65
121830,note_on,43,0,1,,,,,,,,,0,,,79,0
121832,note_on,2,0,1,,,,,,,,,0,,,80,127
121874,note_on,42,0,1,,,,,,,,,0,,,80,0
121876,note_on,2,0,1,,,,,,,,,0,,,79,127
121914,note_on,125,0,3,,,,,,,,,2,,,57,0
121916,note_on,127,0,2,,,,,,,,,1,,,57,0
121920,note_on,44,0,1,,,,,,,,,0,,,79,0
121920,note_on,130,0,4,,,,,,,,,3,,,57,0
121920,note_on,0,0,1,,,,,,,,,0,,,80,127
121963,note_on,47,0,2,,,,,,,,,1,,,62,65
121963,note_on,0,0,1,,,,,,,,,0,,,78,127
121963,note_on,43,0,1,,,,,,,,,0,,,80,0
121964,note_on,44,0,4,,,,,,,,,3,,,62,65
121964,note_on,50,0,3,,,,,,,,,2,,,62,63
122095,note_on,132,0,2,,,,,,,,,1,,,62,0
122095,note_on,131,0,4,,,,,,,,,3,,,62,0
122095,note_on,131,0,3,,,,,,,,,2,,,62,0
122140,note_on,45,0,2,,,,,,,,,1,,,64,65
122141,note_on,46,0,4,,,,,,,,,3,,,64,65
122141,note_on,46,0,3,,,,,,,,,2,,,64,63
122270,note_on,130,0,2,,,,,,,,,1,,,64,0
122274,note_on,133,0,4,,,,,,,,,3,,,64,0
122274,note_on,133,0,3,,,,,,,,,2,,,64,0
122297,note_on,334,0,1,,,,,,,,,0,,,78,0
122320,note_on,46,0,4,,,,,,,,,3,,,66,65
122320,note_on,46,0,3,,,,,,,,,2,,,66,63
122320,note_on,50,0,2,,,,,,,,,1,,,66,65
122453,note_on,133,0,4,,,,,,,,,3,,,66,0
122453,note_on,133,0,2,,,,,,,,,1,,,66,0
122453,note_on,133,0,3,,,,,,,,,2,,,66,0
122498,note_on,45,0,4,,,,,,,,,3,,,64,65
122498,note_on,45,0,3,,,,,,,,,2,,,64,63
122498,note_on,201,0,1,,,,,,,,,0,,,78,127
122498,note_on,45,0,2,,,,,,,,,1,,,64,65
122625,note_on,127,0,1,,,,,,,,,0,,,78,0
122625,note_on,127,0,3,,,,,,,,,2,,,64,0
122630,note_on,132,0,4,,,,,,,,,3,,,64,0
122630,note_on,132,0,2,,,,,,,,,1,,,64,0
122674,note_on,49,0,3,,,,,,,,,2,,,63,63
122674,note_on,49,0,1,,,,,,,,,0,,,83,127
122674,note_on,44,0,2,,,,,,,,,1,,,63,65
122674,note_on,44,0,4,,,,,,,,,3,,,63,65
122737,note_on,63,0,1,,,,,,,,,0,,,83,0
122762,note_on,25,0,1,,,,,,,,,0,,,78,127
122803,note_on,129,0,3,,,,,,,,,2,,,63,0
122807,note_on,133,0,4,,,,,,,,,3,,,63,0
122807,note_on,133,0,2,,,,,,,,,1,,,63,0
122825,note_on,63,0,1,,,,,,,,,0,,,78,0
122850,note_on,43,0,2,,,,,,,,,1,,,61,65
122850,note_on,25,0,1,,,,,,,,,0,,,75,127
122851,note_on,44,0,4,,,,,,,,,3,,,61,65
122851,note_on,48,0,3,,,,,,,,,2,,,61,63
122915,note_on,65,0,1,,,,,,,,,0,,,75,0
122939,note_on,24,0,1,,,,,,,,,0,,,71,127
122982,note_on,131,0,3,,,,,,,,,2,,,61,0
122983,note_on,133,0,2,,,,,,,,,1,,,61,0
122983,note_on,132,0,4,,,,,,,,,3,,,61,0
123002,note_on,63,0,1,,,,,,,,,0,,,71,0
123028,note_on,45,0,2,,,,,,,,,1,,,63,65
123028,note_on,45,0,4,,,,,,,,,3,,,63,65
123028,note_on,46,0,3,,,,,,,,,2,,,63,63
123028,note_on,26,0,1,,,,,,,,,0,,,81,127
123068,note_on,40,0,1,,,,,,,,,0,,,81,0
123071,note_on,3,0,1,,,,,,,,,0,,,82,127
123114,note_on,43,0,1,,,,,,,,,0,,,82,0
123116,note_on,2,0,1,,,,,,,,,0,,,81,127
123158,note_on,42,0,1,,,,,,,,,0,,,81,0
123158,note_on,130,0,3,,,,,,,,,2,,,63,0
123159,note_on,1,0,1,,,,,,,,,0,,,82,127
123160,note_on,132,0,2,,,,,,,,,1,,,63,0
123160,note_on,132,0,4,,,,,,,,,3,,,63,0
123204,note_on,45,0,1,,,,,,,,,0,,,82,0
123206,note_on,46,0,2,,,,,,,,,1,,,59,65
123206,note_on,2,0,1,,,,,,,,,0,,,81,127
123206,note_on,48,0,3,,,,,,,,,2,,,59,63
123207,note_on,47,0,4,,,,,,,,,3,,,59,65
123248,note_on,42,0,1,,,,,,,,,0,,,81,0
123249,note_on,1,0,1,,,,,,,,,0,,,82,127
123292,note_on,43,0,1,,,,,,,,,0,,,82,0
123293,note_on,1,0,1,,,,,,,,,0,,,81,127
123331,note_on,125,0,2,,,,,,,,,1,,,59,0
123332,note_on,125,0,4,,,,,,,,,3,,,59,0
123332,note_on,126,0,3,,,,,,,,,2,,,59,0
123336,note_on,43,0,1,,,,,,,,,0,,,81,0
123338,note_on,2,0,1,,,,,,,,,0,,,82,127
123379,note_on,41,0,1,,,,,,,,,0,,,82,0
123383,note_on,52,0,2,,,,,,,,,1,,,64,65
123383,note_on,4,0,1,,,,,,,,,0,,,80,127
123384,note_on,52,0,4,,,,,,,,,3,,,64,65
123384,note_on,52,0,3,,,,,,,,,2,,,64,63
123509,note_on,125,0,3,,,,,,,,,2,,,64,0
123512,note_on,129,0,2,,,,,,,,,1,,,64,0
123514,note_on,130,0,4,,,,,,,,,3,,,64,0
123559,note_on,47,0,2,,,,,,,,,1,,,66,65
123561,note_on,47,0,4,,,,,,,,,3,,,66,65
123561,note_on,52,0,3,,,,,,,,,2,,,66,63
123687,note_on,126,0,3,,,,,,,,,2,,,66,0
123688,note_on,127,0,4,,,,,,,,,3,,,66,0
123688,note_on,129,0,2,,,,,,,,,1,,,66,0
123714,note_on,331,0,1,,,,,,,,,0,,,80,0
123737,note_on,50,0,3,,,,,,,,,2,,,68,63
123737,note_on,49,0,2,,,,,,,,,1,,,68,65
123737,note_on,49,0,4,,,,,,,,,3,,,68,65
123869,note_on,132,0,2,,,,,,,,,1,,,68,0
123870,note_on,133,0,4,,,,,,,,,3,,,68,0
123870,note_on,133,0,3,,,,,,,,,2,,,68,0
123914,note_on,200,0,1,,,,,,,,,0,,,80,127
123915,note_on,46,0,2,,,,,,,,,1,,,66,65
123915,note_on,45,0,3,,,,,,,,,2,,,66,63
123916,note_on,46,0,4,,,,,,,,,3,,,66,65
124042,note_on,128,0,1,,,,,,,,,0,,,80,0
124045,note_on,130,0,3,,,,,,,,,2,,,66,0
124048,note_on,132,0,4,,,,,,,,,3,,,66,0
124048,note_on,133,0,2,,,,,,,,,1,,,66,0
124091,note_on,43,0,2,,,,,,,,,1,,,65,64
124091,note_on,49,0,1,,,,,,,,,0,,,85,127
124094,note_on,46,0,4,,,,,,,,,3,,,65,64
124094,note_on,49,0,3,,,,,,,,,2,,,65,63
124155,note_on,64,0,1,,,,,,,,,0,,,85,0
124180,note_on,25,0,1,,,,,,,,,0,,,80,127
124221,note_on,127,0,3,,,,,,,,,2,,,65,0
124227,note_on,136,0,2,,,,,,,,,1,,,65,0
124227,note_on,133,0,4,,,,,,,,,3,,,65,0
124244,note_on,64,0,1,,,,,,,,,0,,,80,0
124270,note_on,26,0,1,,,,,,,,,0,,,77,127
124270,note_on,49,0,3,,,,,,,,,2,,,63,63
124270,note_on,43,0,2,,,,,,,,,1,,,63,64
124270,note_on,43,0,4,,,,,,,,,3,,,63,64
124332,note_on,62,0,1,,,,,,,,,0,,,77,0
124357,note_on,25,0,1,,,,,,,,,0,,,73,127
124398,note_on,128,0,3,,,,,,,,,2,,,63,0
124403,note_on,133,0,2,,,,,,,,,1,,,63,0
124403,note_on,133,0,4,,,,,,,,,3,,,63,0
124421,note_on,64,0,1,,,,,,,,,0,,,73,0
124447,note_on,44,0,4,,,,,,,,,3,,,65,64
124447,note_on,26,0,1,,,,,,,,,0,,,83,127
124447,note_on,44,0,2,,,,,,,,,1,,,65,64
124447,note_on,49,0,3,,,,,,,,,2,,,65,63
124488,note_on,41,0,1,,,,,,,,,0,,,83,0
124490,note_on,2,0,1,,,,,,,,,0,,,84,127
124532,note_on,42,0,1,,,,,,,,,0,,,84,0
124532,note_on,0,0,1,,,,,,,,,0,,,83,127
124575,note_on,128,0,3,,,,,,,,,2,,,65,0
124575,note_on,43,0,1,,,,,,,,,0,,,83,0
124576,note_on,129,0,2,,,,,,,,,1,,,65,0
124576,note_on,1,0,1,,,,,,,,,0,,,84,127
124577,note_on,130,0,4,,,,,,,,,3,,,65,0
124621,note_on,45,0,1,,,,,,,,,0,,,84,0
124625,note_on,50,0,3,,,,,,,,,2,,,61,63
124625,note_on,48,0,4,,,,,,,,,3,,,61,64
124625,note_on,4,0,1,,,,,,,,,0,,,83,127
124625,note_on,49,0,2,,,,,,,,,1,,,61,64
124666,note_on,0,0,1,,,,,,,,,0,,,84,127
124666,note_on,41,0,1,,,,,,,,,0,,,83,0
124708,note_on,42,0,1,,,,,,,,,0,,,84,0
124712,note_on,4,0,1,,,,,,,,,0,,,83,127
124750,note_on,125,0,3,,,,,,,,,2,,,61,0
124752,note_on,0,0,1,,,,,,,,,0,,,84,127
124752,note_on,40,0,1,,,,,,,,,0,,,83,0
124752,note_on,127,0,4,,,,,,,,,3,,,61,0
124752,note_on,127,0,2,,,,,,,,,1,,,61,0
124799,note_on,47,0,1,,,,,,,,,0,,,84,0
124803,note_on,51,0,2,,,,,,,,,1,,,66,64
124803,note_on,53,0,3,,,,,,,,,2,,,66,63
124803,note_on,4,0,1,,,,,,,,,0,,,81,127
124804,note_on,52,0,4,,,,,,,,,3,,,66,64
124930,note_on,127,0,3,,,,,,,,,2,,,66,0
124934,note_on,131,0,2,,,,,,,,,1,,,66,0
124934,note_on,130,0,4,,,,,,,,,3,,,66,0
124979,note_on,45,0,4,,,,,,,,,3,,,68,64
124979,note_on,45,0,2,,,,,,,,,1,,,68,64
124979,note_on,49,0,3,,,,,,,,,2,,,68,63
125104,note_on,125,0,2,,,,,,,,,1,,,68,0
125104,note_on,125,0,4,,,,,,,,,3,,,68,0
125104,note_on,125,0,3,,,,,,,,,2,,,68,0
125132,note_on,329,0,1,,,,,,,,,0,,,81,0
125157,note_on,53,0,2,,,,,,,,,1,,,66,64
125157,note_on,53,0,4,,,,,,,,,3,,,66,64
125157,note_on,53,0,3,,,,,,,,,2,,,66,63
125289,note_on,132,0,4,,,,,,,,,3,,,66,0
125289,note_on,132,0,3,,,,,,,,,2,,,66,0
125289,note_on,132,0,2,,,,,,,,,1,,,66,0
125333,note_on,44,0,3,,,,,,,,,2,,,64,63
125333,note_on,44,0,2,,,,,,,,,1,,,64,64
125333,note_on,201,0,1,,,,,,,,,0,,,81,127
125336,note_on,47,0,4,,,,,,,,,3,,,64,64
125462,note_on,129,0,1,,,,,,,,,0,,,81,0
125464,note_on,131,0,3,,,,,,,,,2,,,64,0
125464,note_on,131,0,2,,,,,,,,,1,,,64,0
125466,note_on,130,0,4,,,,,,,,,3,,,64,0
125511,note_on,47,0,2,,,,,,,,,1,,,62,64
125511,note_on,45,0,4,,,,,,,,,3,,,62,64
125511,note_on,47,0,3,,,,,,,,,2,,,62,63
125511,note_on,49,0,1,,,,,,,,,0,,,86,127
125596,note_on,85,0,1,,,,,,,,,0,,,86,0
125598,note_on,2,0,1,,,,,,,,,0,,,85,127
125663,note_on,65,0,1,,,,,,,,,0,,,85,0
125686,note_on,23,0,1,,,,,,,,,0,,,83,127
125751,note_on,65,0,1,,,,,,,,,0,,,83,0
125776,note_on,25,0,1,,,,,,,,,0,,,81,127
125816,note_on,305,0,3,,,,,,,,,2,,,62,0
125819,note_on,308,0,2,,,,,,,,,1,,,62,0
125822,note_on,311,0,4,,,,,,,,,3,,,62,0
125841,note_on,65,0,1,,,,,,,,,0,,,81,0
125865,note_on,49,0,3,,,,,,,,,2,,,66,63
125865,note_on,24,0,1,,,,,,,,,0,,,86,127
125865,note_on,46,0,2,,,,,,,,,1,,,66,64
125866,note_on,44,0,4,,,,,,,,,3,,,66,64
125928,note_on,63,0,1,,,,,,,,,0,,,86,0
125953,note_on,25,0,1,,,,,,,,,0,,,85,127
126015,note_on,62,0,1,,,,,,,,,0,,,85,0
126042,note_on,27,0,1,,,,,,,,,0,,,83,127
126105,note_on,63,0,1,,,,,,,,,0,,,83,0
126130,note_on,25,0,1,,,,,,,,,0,,,81,127
126173,note_on,308,0,3,,,,,,,,,2,,,66,0
126175,note_on,310,0,2,,,,,,,,,1,,,66,0
126177,note_on,311,0,4,,,,,,,,,3,,,66,0
126193,note_on,63,0,1,,,,,,,,,0,,,81,0
126220,note_on,27,0,1,,,,,,,,,0,,,86,127
126221,note_on,46,0,2,,,,,,,,,1,,,66,64
126221,note_on,48,0,3,,,,,,,,,2,,,66,63
126221,note_on,44,0,4,,,,,,,,,3,,,66,64
126307,note_on,0,0,1,,,,,,,,,0,,,85,127
126307,note_on,87,0,1,,,,,,,,,0,,,86,0
126395,note_on,88,0,1,,,,,,,,,0,,,85,0
126398,note_on,3,0,1,,,,,,,,,0,,,83,127
126484,note_on,0,0,1,,,,,,,,,0,,,81,127
126484,note_on,86,0,1,,,,,,,,,0,,,83,0
126524,note_on,303,0,3,,,,,,,,,2,,,66,0
126525,note_on,304,0,2,,,,,,,,,1,,,66,0
126525,note_on,304,0,4,,,,,,,,,3,,,66,0
126571,note_on,87,0,1,,,,,,,,,0,,,81,0
126574,note_on,49,0,4,,,,,,,,,3,,,66,64
126574,note_on,3,0,1,,,,,,,,,0,,,86,127
126574,note_on,50,0,3,,,,,,,,,2,,,66,63
126574,note_on,49,0,2,,,,,,,,,1,,,66,64
126659,note_on,85,0,1,,,,,,,,,0,,,86,0
126662,note_on,3,0,1,,,,,,,,,0,,,85,127
126747,note_on,85,0,1,,,,,,,,,0,,,85,0
126750,note_on,3,0,1,,,,,,,,,0,,,83,127
126835,note_on,85,0,1,,,,,,,,,0,,,83,0
126839,note_on,4,0,1,,,,,,,,,0,,,81,127
126878,note_on,304,0,2,,,,,,,,,1,,,66,0
126878,note_on,304,0,3,,,,,,,,,2,,,66,0
126879,note_on,305,0,4,,,,,,,,,3,,,66,0
126925,note_on,86,0,1,,,,,,,,,0,,,81,0
126929,note_on,51,0,2,,,,,,,,,1,,,64,64
126929,note_on,51,0,3,,,,,,,,,2,,,64,63
126929,note_on,50,0,4,,,,,,,,,3,,,64,64
126929,note_on,4,0,1,,,,,,,,,0,,,83,127
127056,note_on,127,0,3,,,,,,,,,2,,,64,0
127058,note_on,129,0,4,,,,,,,,,3,,,64,0
127058,note_on,129,0,1,,,,,,,,,0,,,83,0
127058,note_on,129,0,2,,,,,,,,,1,,,64,0
127107,note_on,51,0,3,,,,,,,,,2,,,66,63
127107,note_on,49,0,1,,,,,,,,,0,,,76,127
127107,note_on,49,0,4,,,,,,,,,3,,,66,64
127107,note_on,49,0,2,,,,,,,,,1,,,66,64
127235,note_on,128,0,3,,,,,,,,,2,,,66,0
127238,note_on,131,0,2,,,,,,,,,1,,,66,0
127240,note_on,133,0,4,,,,,,,,,3,,,66,0
127258,note_on,151,0,1,,,,,,,,,0,,,76,0
127281,note_on,43,0,2,,,,,,,,,1,,,68,64
127281,note_on,46,0,3,,,,,,,,,2,,,68,63
127282,note_on,42,0,4,,,,,,,,,3,,,68,63
127416,note_on,135,0,3,,,,,,,,,2,,,68,0
127416,note_on,135,0,2,,,,,,,,,1,,,68,0
127416,note_on,134,0,4,,,,,,,,,3,,,68,0
127461,note_on,203,0,1,,,,,,,,,0,,,83,127
127461,note_on,45,0,3,,,,,,,,,2,,,64,63
127461,note_on,45,0,4,,,,,,,,,3,,,64,63
127461,note_on,45,0,2,,,,,,,,,1,,,64,63
127587,note_on,126,0,1,,,,,,,,,0,,,83,0
127590,note_on,129,0,3,,,,,,,,,2,,,64,0
127593,note_on,132,0,2,,,,,,,,,1,,,64,0
127593,note_on,132,0,4,,,,,,,,,3,,,64,0
127637,note_on,50,0,1,,,,,,,,,0,,,88,127
127638,note_on,48,0,3,,,,,,,,,2,,,64,63
127638,note_on,45,0,4,,,,,,,,,3,,,64,63
127638,note_on,45,0,2,,,,,,,,,1,,,64,63
127702,note_on,65,0,1,,,,,,,,,0,,,88,0
127725,note_on,23,0,1,,,,,,,,,0,,,83,127
127789,note_on,64,0,1,,,,,,,,,0,,,83,0
127814,note_on,25,0,1,,,,,,,,,0,,,76,127
127877,note_on,63,0,1,,,,,,,,,0,,,76,0
127903,note_on,26,0,1,,,,,,,,,0,,,88,127
127944,note_on,306,0,3,,,,,,,,,2,,,64,0
127947,note_on,309,0,4,,,,,,,,,3,,,64,0
127947,note_on,309,0,2,,,,,,,,,1,,,64,0
127966,note_on,63,0,1,,,,,,,,,0,,,88,0
127990,note_on,24,0,1,,,,,,,,,0,,,88,127
127991,note_on,44,0,2,,,,,,,,,1,,,64,63
127991,note_on,47,0,3,,,,,,,,,2,,,64,63
127992,note_on,45,0,4,,,,,,,,,3,,,64,63
128166,note_on,176,0,1,,,,,,,,,0,,,88,0
128169,note_on,3,0,1,,,,,,,,,0,,,86,127
128254,note_on,85,0,1,,,,,,,,,0,,,86,0
128256,note_on,2,0,1,,,,,,,,,0,,,85,127
128298,note_on,307,0,3,,,,,,,,,2,,,64,0
128302,note_on,311,0,2,,,,,,,,,1,,,64,0
128302,note_on,310,0,4,,,,,,,,,3,,,64,0
128320,note_on,64,0,1,,,,,,,,,0,,,85,0
128345,note_on,25,0,1,,,,,,,,,0,,,86,127
128346,note_on,44,0,2,,,,,,,,,1,,,64,63
128346,note_on,48,0,3,,,,,,,,,2,,,64,63
128347,note_on,45,0,4,,,,,,,,,3,,,64,63
128409,note_on,64,0,1,,,,,,,,,0,,,86,0
128433,note_on,24,0,1,,,,,,,,,0,,,83,127
128498,note_on,65,0,1,,,,,,,,,0,,,83,0
128524,note_on,26,0,1,,,,,,,,,0,,,76,127
128589,note_on,65,0,1,,,,,,,,,0,,,76,0
128610,note_on,21,0,1,,,,,,,,,0,,,86,127
128654,note_on,308,0,3,,,,,,,,,2,,,64,0
128657,note_on,310,0,4,,,,,,,,,3,,,64,0
128657,note_on,311,0,2,,,,,,,,,1,,,64,0
128676,note_on,66,0,1,,,,,,,,,0,,,86,0
128700,note_on,24,0,1,,,,,,,,,0,,,86,127
128700,note_on,43,0,2,,,,,,,,,1,,,64,63
128703,note_on,46,0,4,,,,,,,,,3,,,64,63
128703,note_on,49,0,3,,,,,,,,,2,,,64,63
128875,note_on,175,0,1,,,,,,,,,0,,,86,0
128878,note_on,3,0,1,,,,,,,,,0,,,85,127
128964,note_on,86,0,1,,,,,,,,,0,,,85,0
128967,note_on,3,0,1,,,,,,,,,0,,,83,127
129010,note_on,307,0,3,,,,,,,,,2,,,64,0
129010,note_on,307,0,4,,,,,,,,,3,,,64,0
129010,note_on,310,0,2,,,,,,,,,1,,,64,0
129030,note_on,63,0,1,,,,,,,,,0,,,83,0
129056,note_on,46,0,2,,,,,,,,,1,,,64,63
129056,note_on,26,0,1,,,,,,,,,0,,,85,127
129056,note_on,46,0,3,,,,,,,,,2,,,64,63
129059,note_on,49,0,4,,,,,,,,,3,,,64,63
129119,note_on,63,0,1,,,,,,,,,0,,,85,0
129142,note_on,23,0,1,,,,,,,,,0,,,81,127
129209,note_on,67,0,1,,,,,,,,,0,,,81,0
129232,note_on,23,0,1,,,,,,,,,0,,,76,127
129296,note_on,64,0,1,,,,,,,,,0,,,76,0
129321,note_on,25,0,1,,,,,,,,,0,,,85,127
129361,note_on,305,0,3,,,,,,,,,2,,,64,0
129365,note_on,309,0,2,,,,,,,,,1,,,64,0
129365,note_on,306,0,4,,,,,,,,,3,,,64,0
129385,note_on,64,0,1,,,,,,,,,0,,,85,0
129412,note_on,47,0,2,,,,,,,,,1,,,64,63
129412,note_on,51,0,3,,,,,,,,,2,,,64,63
129412,note_on,27,0,1,,,,,,,,,0,,,85,127
129412,note_on,47,0,4,,,,,,,,,3,,,64,63
129586,note_on,174,0,1,,,,,,,,,0,,,85,0
129587,note_on,1,0,1,,,,,,,,,0,,,83,127
129674,note_on,87,0,1,,,,,,,,,0,,,83,0
129676,note_on,2,0,1,,,,,,,,,0,,,81,127
129720,note_on,308,0,2,,,,,,,,,1,,,64,0
129720,note_on,308,0,3,,,,,,,,,2,,,64,0
129722,note_on,310,0,4,,,,,,,,,3,,,64,0
129740,note_on,64,0,1,,,,,,,,,0,,,81,0
129765,note_on,45,0,2,,,,,,,,,1,,,64,63
129765,note_on,25,0,1,,,,,,,,,0,,,83,127
129768,note_on,48,0,3,,,,,,,,,2,,,64,63
129768,note_on,8865,0,7,,,,,,,,,6,,,68,119
129768,note_on,8868,0,5,,,,,,,,,4,,,52,82
129768,note_on,46,0,4,,,,,,,,,3,,,64,63
129769,note_on,8866,0,8,,,,,,,,,7,,,52,119
129898,note_on,130,0,5,,,,,,,,,4,,,52,0
129898,note_on,133,0,1,,,,,,,,,0,,,83,0
129901,note_on,132,0,8,,,,,,,,,7,,,52,0
129940,note_on,42,0,1,,,,,,,,,0,,,76,127
129940,note_on,42,0,5,,,,,,,,,4,,,54,82
129942,note_on,41,0,8,,,,,,,,,7,,,54,119
130071,note_on,129,0,8,,,,,,,,,7,,,54,0
130071,note_on,131,0,5,,,,,,,,,4,,,54,0
130073,note_on,305,0,7,,,,,,,,,6,,,68,0
130097,note_on,157,0,1,,,,,,,,,0,,,76,0
130097,note_on,332,0,2,,,,,,,,,1,,,64,0
130119,note_on,351,0,3,,,,,,,,,2,,,64,0
130119,note_on,351,0,4,,,,,,,,,3,,,64,0
130119,note_on,48,0,5,,,,,,,,,4,,,56,82
130121,note_on,48,0,7,,,,,,,,,6,,,71,119
130121,note_on,50,0,8,,,,,,,,,7,,,56,119
130255,note_on,136,0,5,,,,,,,,,4,,,56,0
130258,note_on,137,0,8,,,,,,,,,7,,,56,0
130297,note_on,200,0,1,,,,,,,,,0,,,71,127
130297,note_on,42,0,5,,,,,,,,,4,,,52,82
130298,note_on,40,0,8,,,,,,,,,7,,,52,119
130419,note_on,121,0,8,,,,,,,,,7,,,52,0
130421,note_on,124,0,5,,,,,,,,,4,,,52,0
130430,note_on,133,0,1,,,,,,,,,0,,,71,0
130434,note_on,313,0,7,,,,,,,,,6,,,71,0
130476,note_on,46,0,1,,,,,,,,,0,,,76,127
130476,note_on,55,0,5,,,,,,,,,4,,,52,82
130476,note_on,57,0,8,,,,,,,,,7,,,52,119
130476,note_on,0,0,7,,,,,,,,,6,,,68,119
130476,note_on,42,0,7,,,,,,,,,6,,,76,119
130476,note_on,0,0,7,,,,,,,,,6,,,71,119
130538,note_on,62,0,1,,,,,,,,,0,,,76,0
130563,note_on,25,0,1,,,,,,,,,0,,,71,127
130625,note_on,62,0,1,,,,,,,,,0,,,71,0
130651,note_on,26,0,1,,,,,,,,,0,,,64,127
130715,note_on,64,0,1,,,,,,,,,0,,,64,0
130737,note_on,22,0,1,,,,,,,,,0,,,76,127
130783,note_on,307,0,8,,,,,,,,,7,,,52,0
130788,note_on,312,0,5,,,,,,,,,4,,,52,0
130801,note_on,64,0,1,,,,,,,,,0,,,76,0
130828,note_on,27,0,1,,,,,,,,,0,,,76,127
130828,note_on,40,0,5,,,,,,,,,4,,,52,82
130829,note_on,46,0,8,,,,,,,,,7,,,52,119
131002,note_on,174,0,1,,,,,,,,,0,,,76,0
131005,note_on,3,0,1,,,,,,,,,0,,,74,127
131090,note_on,85,0,1,,,,,,,,,0,,,74,0
131091,note_on,1,0,1,,,,,,,,,0,,,73,127
131131,note_on,302,0,8,,,,,,,,,7,,,52,0
131133,note_on,305,0,5,,,,,,,,,4,,,52,0
131140,note_on,664,0,7,,,,,,,,,6,,,68,0
131144,note_on,4,0,7,,,,,,,,,6,,,71,0
131145,note_on,1,0,7,,,,,,,,,6,,,76,0
131158,note_on,67,0,1,,,,,,,,,0,,,73,0
131182,note_on,24,0,1,,,,,,,,,0,,,74,127
131186,note_on,0,0,7,,,,,,,,,6,,,68,119
131186,note_on,41,0,7,,,,,,,,,6,,,74,119
131186,note_on,55,0,8,,,,,,,,,7,,,52,119
131186,note_on,53,0,5,,,,,,,,,4,,,52,82
131186,note_on,0,0,7,,,,,,,,,6,,,71,119
131247,note_on,65,0,1,,,,,,,,,0,,,74,0
131271,note_on,24,0,1,,,,,,,,,0,,,71,127
131336,note_on,65,0,1,,,,,,,,,0,,,71,0
131359,note_on,23,0,1,,,,,,,,,0,,,64,127
131423,note_on,64,0,1,,,,,,,,,0,,,64,0
131448,note_on,25,0,1,,,,,,,,,0,,,74,127
131493,note_on,307,0,8,,,,,,,,,7,,,52,0
131493,note_on,307,0,5,,,,,,,,,4,,,52,0
131512,note_on,64,0,1,,,,,,,,,0,,,74,0
131537,note_on,44,0,5,,,,,,,,,4,,,52,82
131537,note_on,25,0,1,,,,,,,,,0,,,74,127
131537,note_on,44,0,8,,,,,,,,,7,,,52,119
131714,note_on,0,0,1,,,,,,,,,0,,,73,127
131714,note_on,177,0,1,,,,,,,,,0,,,74,0
131800,note_on,86,0,1,,,,,,,,,0,,,73,0
131802,note_on,2,0,1,,,,,,,,,0,,,71,127
131841,note_on,304,0,5,,,,,,,,,4,,,52,0
131843,note_on,306,0,8,,,,,,,,,7,,,52,0
131845,note_on,659,0,7,,,,,,,,,6,,,68,0
131847,note_on,2,0,7,,,,,,,,,6,,,71,0
131847,note_on,0,0,7,,,,,,,,,6,,,74,0
131864,note_on,62,0,1,,,,,,,,,0,,,71,0
131891,note_on,50,0,5,,,,,,,,,4,,,52,82
131891,note_on,44,0,7,,,,,,,,,6,,,73,119
131891,note_on,27,0,1,,,,,,,,,0,,,73,127
131891,note_on,0,0,7,,,,,,,,,6,,,69,119
131891,note_on,0,0,7,,,,,,,,,6,,,64,119
131892,note_on,49,0,8,,,,,,,,,7,,,52,119
131956,note_on,65,0,1,,,,,,,,,0,,,73,0
131980,note_on,24,0,1,,,,,,,,,0,,,69,127
132045,note_on,65,0,1,,,,,,,,,0,,,69,0
132067,note_on,22,0,1,,,,,,,,,0,,,64,127
132134,note_on,67,0,1,,,,,,,,,0,,,64,0
132157,note_on,23,0,1,,,,,,,,,0,,,73,127
132205,note_on,314,0,5,,,,,,,,,4,,,52,0
132207,note_on,315,0,8,,,,,,,,,7,,,52,0
132222,note_on,65,0,1,,,,,,,,,0,,,73,0
132246,note_on,24,0,1,,,,,,,,,0,,,73,127
132247,note_on,42,0,5,,,,,,,,,4,,,52,82
132247,note_on,40,0,8,,,,,,,,,7,,,52,119
132422,note_on,176,0,1,,,,,,,,,0,,,73,0
132423,note_on,1,0,1,,,,,,,,,0,,,71,127
132508,note_on,85,0,1,,,,,,,,,0,,,71,0
132512,note_on,4,0,1,,,,,,,,,0,,,69,127
132551,note_on,304,0,5,,,,,,,,,4,,,52,0
132551,note_on,304,0,8,,,,,,,,,7,,,52,0
132560,note_on,0,0,7,,,,,,,,,6,,,69,0
132560,note_on,669,0,7,,,,,,,,,6,,,64,0
132565,note_on,5,0,7,,,,,,,,,6,,,73,0
132575,note_on,63,0,1,,,,,,,,,0,,,69,0
132602,note_on,0,0,7,,,,,,,,,6,,,64,119
132602,note_on,27,0,1,,,,,,,,,0,,,71,127
132602,note_on,37,0,7,,,,,,,,,6,,,68,119
132602,note_on,51,0,5,,,,,,,,,4,,,52,82
132604,note_on,53,0,8,,,,,,,,,7,,,52,119
132604,note_on,2,0,7,,,,,,,,,6,,,71,119
132734,note_on,132,0,5,,,,,,,,,4,,,52,0
132734,note_on,130,0,8,,,,,,,,,7,,,52,0
132734,note_on,132,0,1,,,,,,,,,0,,,71,0
132777,note_on,43,0,5,,,,,,,,,4,,,50,82
132777,note_on,43,0,1,,,,,,,,,0,,,64,127
132778,note_on,44,0,8,,,,,,,,,7,,,50,119
132904,note_on,127,0,5,,,,,,,,,4,,,50,0
132904,note_on,126,0,8,,,,,,,,,7,,,50,0
132932,note_on,155,0,1,,,,,,,,,0,,,64,0
132950,note_on,346,0,7,,,,,,,,,6,,,68,0
132955,note_on,51,0,5,,,,,,,,,4,,,49,82
132955,note_on,0,0,7,,,,,,,,,6,,,69,119
132955,note_on,5,0,7,,,,,,,,,6,,,71,0
132956,note_on,52,0,8,,,,,,,,,7,,,49,119
133088,note_on,133,0,5,,,,,,,,,4,,,49,0
133089,note_on,133,0,8,,,,,,,,,7,,,49,0
133128,note_on,173,0,7,,,,,,,,,6,,,69,0
133135,note_on,46,0,8,,,,,,,,,7,,,47,119
133135,note_on,203,0,1,,,,,,,,,0,,,76,127
133135,note_on,47,0,5,,,,,,,,,4,,,47,82
133135,note_on,7,0,7,,,,,,,,,6,,,68,119
133257,note_on,122,0,7,,,,,,,,,6,,,68,0
133261,note_on,126,0,5,,,,,,,,,4,,,47,0
133264,note_on,129,0,8,,,,,,,,,7,,,47,0
133267,note_on,132,0,1,,,,,,,,,0,,,76,0
133310,note_on,43,0,1,,,,,,,,,0,,,69,127
133310,note_on,3213,0,2,,,,,,,,,1,,,57,63
133314,note_on,0,0,7,,,,,,,,,6,,,61,119
133314,note_on,0,0,7,,,,,,,,,6,,,64,119
133314,note_on,0,0,7,,,,,,,,,6,,,69,119
133314,note_on,57,0,7,,,,,,,,,6,,,64,0
133314,note_on,3195,0,4,,,,,,,,,3,,,57,65
133314,note_on,50,0,8,,,,,,,,,7,,,45,119
133314,note_on,53,0,5,,,,,,,,,4,,,45,82
133314,note_on,3195,0,3,,,,,,,,,2,,,57,65
133396,note_on,86,0,1,,,,,,,,,0,,,69,0
133396,note_on,0,0,1,,,,,,,,,0,,,73,127
133482,note_on,86,0,1,,,,,,,,,0,,,73,0
133486,note_on,4,0,1,,,,,,,,,0,,,76,127
133572,note_on,86,0,1,,,,,,,,,0,,,76,0
133576,note_on,4,0,1,,,,,,,,,0,,,73,127
133619,note_on,309,0,2,,,,,,,,,1,,,57,0
133619,note_on,305,0,4,,,,,,,,,3,,,57,0
133619,note_on,305,0,3,,,,,,,,,2,,,57,0
133640,note_on,64,0,1,,,,,,,,,0,,,73,0
133664,note_on,45,0,2,,,,,,,,,1,,,57,63
133664,note_on,24,0,1,,,,,,,,,0,,,69,127
133665,note_on,351,0,5,,,,,,,,,4,,,45,0
133665,note_on,46,0,4,,,,,,,,,3,,,57,65
133665,note_on,351,0,7,,,,,,,,,6,,,61,0
133665,note_on,46,0,3,,,,,,,,,2,,,57,65
133668,note_on,0,0,7,,,,,,,,,6,,,69,0
133668,note_on,3,0,7,,,,,,,,,6,,,64,0
133668,note_on,354,0,8,,,,,,,,,7,,,45,0
133727,note_on,63,0,1,,,,,,,,,0,,,69,0
133752,note_on,25,0,1,,,,,,,,,0,,,73,127
133815,note_on,63,0,1,,,,,,,,,0,,,73,0
133841,note_on,26,0,1,,,,,,,,,0,,,69,127
133906,note_on,65,0,1,,,,,,,,,0,,,69,0
133929,note_on,23,0,1,,,,,,,,,0,,,73,127
133972,note_on,308,0,2,,,,,,,,,1,,,57,0
133973,note_on,308,0,3,,,,,,,,,2,,,57,0
133974,note_on,309,0,4,,,,,,,,,3,,,57,0
133995,note_on,66,0,1,,,,,,,,,0,,,73,0
134019,note_on,24,0,1,,,,,,,,,0,,,68,127
134019,note_on,46,0,3,,,,,,,,,2,,,64,65
134019,note_on,47,0,2,,,,,,,,,1,,,64,63
134021,note_on,47,0,4,,,,,,,,,3,,,64,65
134106,note_on,87,0,1,,,,,,,,,0,,,68,0
134107,note_on,1,0,1,,,,,,,,,0,,,71,127
134194,note_on,87,0,1,,,,,,,,,0,,,71,0
134196,note_on,2,0,1,,,,,,,,,0,,,76,127
134281,note_on,85,0,1,,,,,,,,,0,,,76,0
134284,note_on,3,0,1,,,,,,,,,0,,,71,127
134327,note_on,308,0,3,,,,,,,,,2,,,64,0
134328,note_on,309,0,2,,,,,,,,,1,,,64,0
134330,note_on,309,0,4,,,,,,,,,3,,,64,0
134348,note_on,64,0,1,,,,,,,,,0,,,71,0
134373,note_on,25,0,1,,,,,,,,,0,,,68,127
134376,note_on,48,0,2,,,,,,,,,1,,,64,63
134376,note_on,49,0,3,,,,,,,,,2,,,64,65
134376,note_on,46,0,4,,,,,,,,,3,,,64,65
134436,note_on,63,0,1,,,,,,,,,0,,,68,0
134462,note_on,26,0,1,,,,,,,,,0,,,71,127
134527,note_on,65,0,1,,,,,,,,,0,,,71,0
134551,note_on,24,0,1,,,,,,,,,0,,,68,127
134615,note_on,64,0,1,,,,,,,,,0,,,68,0
134639,note_on,24,0,1,,,,,,,,,0,,,71,127
134681,note_on,305,0,3,,,,,,,,,2,,,64,0
134684,note_on,308,0,2,,,,,,,,,1,,,64,0
134684,note_on,308,0,4,,,,,,,,,3,,,64,0
134704,note_on,65,0,1,,,,,,,,,0,,,71,0
134728,note_on,47,0,3,,,,,,,,,2,,,57,65
134728,note_on,24,0,1,,,,,,,,,0,,,69,127
134728,note_on,44,0,2,,,,,,,,,1,,,57,63
134728,note_on,44,0,4,,,,,,,,,3,,,57,65
134812,note_on,84,0,1,,,,,,,,,0,,,69,0
134816,note_on,4,0,1,,,,,,,,,0,,,73,127
134902,note_on,86,0,1,,,,,,,,,0,,,73,0
134906,note_on,4,0,1,,,,,,,,,0,,,76,127
134992,note_on,86,0,1,,,,,,,,,0,,,76,0
134995,note_on,3,0,1,,,,,,,,,0,,,73,127
135031,note_on,303,0,2,,,,,,,,,1,,,57,0
135032,note_on,304,0,3,,,,,,,,,2,,,57,0
135036,note_on,308,0,4,,,,,,,,,3,,,57,0
135055,note_on,60,0,1,,,,,,,,,0,,,73,0
135082,note_on,27,0,1,,,,,,,,,0,,,69,127
135085,note_on,54,0,2,,,,,,,,,1,,,57,63
135085,note_on,53,0,3,,,,,,,,,2,,,57,65
135085,note_on,49,0,4,,,,,,,,,3,,,57,65
135147,note_on,65,0,1,,,,,,,,,0,,,69,0
135169,note_on,22,0,1,,,,,,,,,0,,,73,127
135235,note_on,66,0,1,,,,,,,,,0,,,73,0
135259,note_on,24,0,1,,,,,,,,,0,,,69,127
135323,note_on,64,0,1,,,,,,,,,0,,,69,0
135348,note_on,25,0,1,,,,,,,,,0,,,73,127
135391,note_on,306,0,3,,,,,,,,,2,,,57,0
135394,note_on,309,0,4,,,,,,,,,3,,,57,0
135394,note_on,309,0,2,,,,,,,,,1,,,57,0
135411,note_on,63,0,1,,,,,,,,,0,,,73,0
135435,note_on,24,0,1,,,,,,,,,0,,,64,127
135436,note_on,42,0,2,,,,,,,,,1,,,64,63
135436,note_on,45,0,3,,,,,,,,,2,,,64,65
135436,note_on,0,0,1,,,,,,,,,0,,,71,127
135436,note_on,1,0,1,,,,,,,,,0,,,76,127
135438,note_on,44,0,4,,,,,,,,,3,,,64,65
135438,note_on,1773,0,5,,,,,,,,,4,,,52,82
135439,note_on,1771,0,7,,,,,,,,,6,,,68,119
135439,note_on,0,0,7,,,,,,,,,6,,,59,119
135439,note_on,1771,0,8,,,,,,,,,7,,,52,119
135566,note_on,128,0,5,,,,,,,,,4,,,52,0
135570,note_on,131,0,8,,,,,,,,,7,,,52,0
135614,note_on,44,0,8,,,,,,,,,7,,,50,119
135614,note_on,48,0,5,,,,,,,,,4,,,50,82
135743,note_on,304,0,7,,,,,,,,,6,,,59,0
135747,note_on,4,0,7,,,,,,,,,6,,,68,0
135748,note_on,134,0,5,,,,,,,,,4,,,50,0
135749,note_on,135,0,8,,,,,,,,,7,,,50,0
135769,note_on,333,0,2,,,,,,,,,1,,,64,0
135769,note_on,333,0,1,,,,,,,,,0,,,64,0
135770,note_on,1,0,1,,,,,,,,,0,,,71,0
135773,note_on,3,0,1,,,,,,,,,0,,,76,0
135792,note_on,44,0,5,,,,,,,,,4,,,49,82
135792,note_on,354,0,4,,,,,,,,,3,,,64,0
135792,note_on,356,0,3,,,,,,,,,2,,,64,0
135793,note_on,46,0,7,,,,,,,,,6,,,69,119
135793,note_on,44,0,8,,,,,,,,,7,,,49,119
135793,note_on,0,0,7,,,,,,,,,6,,,64,119
135929,note_on,137,0,5,,,,,,,,,4,,,49,0
135930,note_on,137,0,8,,,,,,,,,7,,,49,0
135967,note_on,174,0,7,,,,,,,,,6,,,69,0
135971,note_on,198,0,1,,,,,,,,,0,,,76,127
135971,note_on,42,0,5,,,,,,,,,4,,,47,82
135971,note_on,41,0,8,,,,,,,,,7,,,47,119
135971,note_on,4,0,7,,,,,,,,,6,,,71,119
136097,note_on,126,0,5,,,,,,,,,4,,,47,0
136098,note_on,127,0,8,,,,,,,,,7,,,47,0
136101,note_on,130,0,1,,,,,,,,,0,,,76,0
136144,note_on,173,0,7,,,,,,,,,6,,,71,0
136147,note_on,49,0,8,,,,,,,,,7,,,45,119
136147,note_on,50,0,5,,,,,,,,,4,,,45,82
136147,note_on,3,0,7,,,,,,,,,6,,,73,119
136147,note_on,46,0,1,,,,,,,,,0,,,69,127
136233,note_on,86,0,1,,,,,,,,,0,,,69,0
136235,note_on,2,0,1,,,,,,,,,0,,,73,127
136320,note_on,85,0,1,,,,,,,,,0,,,73,0
136324,note_on,4,0,1,,,,,,,,,0,,,76,127
136409,note_on,85,0,1,,,,,,,,,0,,,76,0
136412,note_on,3,0,1,,,,,,,,,0,,,73,127
136459,note_on,312,0,5,,,,,,,,,4,,,45,0
136463,note_on,316,0,8,,,,,,,,,7,,,45,0
136475,note_on,63,0,1,,,,,,,,,0,,,73,0
136498,note_on,23,0,1,,,,,,,,,0,,,69,127
136500,note_on,41,0,5,,,,,,,,,4,,,45,82
136500,note_on,353,0,7,,,,,,,,,6,,,64,0
136500,note_on,37,0,8,,,,,,,,,7,,,45,119
136562,note_on,64,0,1,,,,,,,,,0,,,69,0
136589,note_on,27,0,1,,,,,,,,,0,,,73,127
136654,note_on,65,0,1,,,,,,,,,0,,,73,0
136677,note_on,23,0,1,,,,,,,,,0,,,69,127
136740,note_on,63,0,1,,,,,,,,,0,,,69,0
136766,note_on,26,0,1,,,,,,,,,0,,,73,127
136804,note_on,304,0,5,,,,,,,,,4,,,45,0
136807,note_on,307,0,8,,,,,,,,,7,,,45,0
136818,note_on,318,0,7,,,,,,,,,6,,,73,0
136831,note_on,65,0,1,,,,,,,,,0,,,73,0
136853,note_on,22,0,1,,,,,,,,,0,,,68,127
136858,note_on,54,0,5,,,,,,,,,4,,,52,82
136858,note_on,40,0,7,,,,,,,,,6,,,71,119
136858,note_on,0,0,7,,,,,,,,,6,,,68,119
136858,note_on,0,0,7,,,,,,,,,6,,,64,119
136858,note_on,51,0,8,,,,,,,,,7,,,52,119
136940,note_on,87,0,1,,,,,,,,,0,,,68,0
136944,note_on,4,0,1,,,,,,,,,0,,,71,127
137030,note_on,86,0,1,,,,,,,,,0,,,71,0
137032,note_on,2,0,1,,,,,,,,,0,,,76,127
137120,note_on,88,0,1,,,,,,,,,0,,,76,0
137122,note_on,2,0,1,,,,,,,,,0,,,71,127
137165,note_on,307,0,5,,,,,,,,,4,,,52,0
137165,note_on,307,0,8,,,,,,,,,7,,,52,0
137183,note_on,61,0,1,,,,,,,,,0,,,71,0
137211,note_on,46,0,5,,,,,,,,,4,,,52,82
137211,note_on,46,0,8,,,,,,,,,7,,,52,119
137211,note_on,28,0,1,,,,,,,,,0,,,68,127
137273,note_on,62,0,1,,,,,,,,,0,,,68,0
137297,note_on,24,0,1,,,,,,,,,0,,,71,127
137363,note_on,66,0,1,,,,,,,,,0,,,71,0
137386,note_on,23,0,1,,,,,,,,,0,,,68,127
137450,note_on,64,0,1,,,,,,,,,0,,,68,0
137474,note_on,24,0,1,,,,,,,,,0,,,71,127
137512,note_on,301,0,5,,,,,,,,,4,,,52,0
137515,note_on,304,0,8,,,,,,,,,7,,,52,0
137516,note_on,658,0,7,,,,,,,,,6,,,64,0
137518,note_on,2,0,7,,,,,,,,,6,,,68,0
137520,note_on,2,0,7,,,,,,,,,6,,,71,0
137540,note_on,66,0,1,,,,,,,,,0,,,71,0
137564,note_on,24,0,1,,,,,,,,,0,,,69,127
137564,note_on,52,0,5,,,,,,,,,4,,,45,82
137567,note_on,0,0,7,,,,,,,,,6,,,64,119
137567,note_on,0,0,7,,,,,,,,,6,,,61,119
137567,note_on,47,0,7,,,,,,,,,6,,,69,119
137567,note_on,52,0,8,,,,,,,,,7,,,45,119
137650,note_on,86,0,1,,,,,,,,,0,,,69,0
137653,note_on,3,0,1,,,,,,,,,0,,,73,127
137737,note_on,84,0,1,,,,,,,,,0,,,73,0
137742,note_on,5,0,1,,,,,,,,,0,,,76,127
137827,note_on,85,0,1,,,,,,,,,0,,,76,0
137831,note_on,4,0,1,,,,,,,,,0,,,73,127
137872,note_on,308,0,5,,,,,,,,,4,,,45,0
137876,note_on,309,0,8,,,,,,,,,7,,,45,0
137893,note_on,62,0,1,,,,,,,,,0,,,73,0
137919,note_on,43,0,8,,,,,,,,,7,,,45,119
137919,note_on,26,0,1,,,,,,,,,0,,,69,127
137919,note_on,47,0,5,,,,,,,,,4,,,45,82
137981,note_on,62,0,1,,,,,,,,,0,,,69,0
138007,note_on,26,0,1,,,,,,,,,0,,,73,127
138071,note_on,64,0,1,,,,,,,,,0,,,73,0
138096,note_on,25,0,1,,,,,,,,,0,,,69,127
138161,note_on,65,0,1,,,,,,,,,0,,,69,0
138184,note_on,23,0,1,,,,,,,,,0,,,73,127
138221,note_on,302,0,5,,,,,,,,,4,,,45,0
138225,note_on,306,0,8,,,,,,,,,7,,,45,0
138228,note_on,661,0,7,,,,,,,,,6,,,61,0
138233,note_on,0,0,7,,,,,,,,,6,,,69,0
138233,note_on,5,0,7,,,,,,,,,6,,,64,0
138249,note_on,65,0,1,,,,,,,,,0,,,73,0
138275,note_on,0,0,1,,,,,,,,,0,,,64,127
138275,note_on,0,0,1,,,,,,,,,0,,,71,127
138275,note_on,2506,0,2,,,,,,,,,1,,,64,63
138275,note_on,26,0,1,,,,,,,,,0,,,76,127
138275,note_on,54,0,5,,,,,,,,,4,,,52,82
138275,note_on,2483,0,4,,,,,,,,,3,,,64,65
138275,note_on,2483,0,3,,,,,,,,,2,,,64,65
138276,note_on,43,0,7,,,,,,,,,6,,,71,119
138276,note_on,51,0,8,,,,,,,,,7,,,52,119
138276,note_on,0,0,7,,,,,,,,,6,,,64,119
138276,note_on,0,0,7,,,,,,,,,6,,,68,119
138402,note_on,127,0,3,,,,,,,,,2,,,64,0
138403,note_on,128,0,2,,,,,,,,,1,,,64,0
138405,note_on,130,0,4,,,,,,,,,3,,,64,0
138449,note_on,47,0,3,,,,,,,,,2,,,66,65
138449,note_on,46,0,2,,,,,,,,,1,,,66,63
138449,note_on,44,0,4,,,,,,,,,3,,,66,65
138583,note_on,134,0,3,,,,,,,,,2,,,66,0
138584,note_on,135,0,2,,,,,,,,,1,,,66,0
138584,note_on,135,0,4,,,,,,,,,3,,,66,0
138606,note_on,331,0,1,,,,,,,,,0,,,64,0
138606,note_on,0,0,1,,,,,,,,,0,,,71,0
138609,note_on,3,0,1,,,,,,,,,0,,,76,0
138629,note_on,46,0,3,,,,,,,,,2,,,68,65
138629,note_on,45,0,4,,,,,,,,,3,,,68,65
138629,note_on,45,0,2,,,,,,,,,1,,,68,63
138630,note_on,354,0,7,,,,,,,,,6,,,64,0
138630,note_on,355,0,5,,,,,,,,,4,,,52,0
138632,note_on,0,0,7,,,,,,,,,6,,,71,0
138632,note_on,2,0,7,,,,,,,,,6,,,68,0
138632,note_on,356,0,8,,,,,,,,,7,,,52,0
138761,note_on,132,0,2,,,,,,,,,1,,,68,0
138761,note_on,132,0,4,,,,,,,,,3,,,68,0
138761,note_on,132,0,3,,,,,,,,,2,,,68,0
138806,note_on,45,0,3,,,,,,,,,2,,,64,65
138806,note_on,45,0,2,,,,,,,,,1,,,64,63
138806,note_on,45,0,4,,,,,,,,,3,,,64,65
138806,note_on,197,0,1,,,,,,,,,0,,,76,127
138935,note_on,129,0,3,,,,,,,,,2,,,64,0
138939,note_on,133,0,4,,,,,,,,,3,,,64,0
138939,note_on,133,0,2,,,,,,,,,1,,,64,0
138939,note_on,133,0,1,,,,,,,,,0,,,76,0
138982,note_on,43,0,2,,,,,,,,,1,,,73,63
138982,note_on,43,0,1,,,,,,,,,0,,,81,127
138985,note_on,46,0,4,,,,,,,,,3,,,73,65
138985,note_on,50,0,3,,,,,,,,,2,,,73,65
139070,note_on,88,0,1,,,,,,,,,0,,,81,0
139070,note_on,0,0,1,,,,,,,,,0,,,80,127
139156,note_on,86,0,1,,,,,,,,,0,,,80,0
139160,note_on,4,0,1,,,,,,,,,0,,,78,127
139245,note_on,85,0,1,,,,,,,,,0,,,78,0
139248,note_on,3,0,1,,,,,,,,,0,,,76,127
139289,note_on,304,0,4,,,,,,,,,3,,,73,0
139289,note_on,304,0,3,,,,,,,,,2,,,73,0
139292,note_on,310,0,2,,,,,,,,,1,,,73,0
139334,note_on,86,0,1,,,,,,,,,0,,,76,0
139336,note_on,47,0,3,,,,,,,,,2,,,71,65
139336,note_on,2,0,1,,,,,,,,,0,,,81,127
139336,note_on,44,0,2,,,,,,,,,1,,,71,63
139337,note_on,48,0,4,,,,,,,,,3,,,71,65
139421,note_on,85,0,1,,,,,,,,,0,,,81,0
139426,note_on,5,0,1,,,,,,,,,0,,,80,127
139512,note_on,86,0,1,,,,,,,,,0,,,80,0
139514,note_on,2,0,1,,,,,,,,,0,,,78,127
139601,note_on,0,0,1,,,,,,,,,0,,,76,127
139601,note_on,87,0,1,,,,,,,,,0,,,78,0
139640,note_on,304,0,2,,,,,,,,,1,,,71,0
139641,note_on,305,0,3,,,,,,,,,2,,,71,0
139641,note_on,304,0,4,,,,,,,,,3,,,71,0
139689,note_on,88,0,1,,,,,,,,,0,,,76,0
139693,note_on,4,0,1,,,,,,,,,0,,,81,127
139693,note_on,53,0,2,,,,,,,,,1,,,69,63
139693,note_on,52,0,4,,,,,,,,,3,,,69,65
139693,note_on,52,0,3,,,,,,,,,2,,,69,65
139780,note_on,0,0,1,,,,,,,,,0,,,80,127
139780,note_on,87,0,1,,,,,,,,,0,,,81,0
139867,note_on,87,0,1,,,,,,,,,0,,,80,0
139869,note_on,2,0,1,,,,,,,,,0,,,78,127
139955,note_on,86,0,1,,,,,,,,,0,,,78,0
139958,note_on,3,0,1,,,,,,,,,0,,,76,127
139997,note_on,304,0,4,,,,,,,,,3,,,69,0
139997,note_on,304,0,2,,,,,,,,,1,,,69,0
139997,note_on,304,0,3,,,,,,,,,2,,,69,0
140042,note_on,84,0,1,,,,,,,,,0,,,76,0
140046,note_on,4,0,1,,,,,,,,,0,,,81,127
140047,note_on,50,0,3,,,,,,,,,2,,,68,65
140047,note_on,50,0,4,,,,,,,,,3,,,68,65
140047,note_on,50,0,2,,,,,,,,,1,,,68,63
140132,note_on,86,0,1,,,,,,,,,0,,,81,0
140134,note_on,2,0,1,,,,,,,,,0,,,80,127
140220,note_on,86,0,1,,,,,,,,,0,,,80,0
140223,note_on,3,0,1,,,,,,,,,0,,,78,127
140308,note_on,85,0,1,,,,,,,,,0,,,78,0
140312,note_on,4,0,1,,,,,,,,,0,,,76,127
140351,note_on,304,0,4,,,,,,,,,3,,,68,0
140351,note_on,304,0,3,,,,,,,,,2,,,68,0
140351,note_on,304,0,2,,,,,,,,,1,,,68,0
140398,note_on,86,0,1,,,,,,,,,0,,,76,0
140401,note_on,50,0,4,,,,,,,,,3,,,66,65
140401,note_on,50,0,3,,,,,,,,,2,,,66,65
140401,note_on,50,0,2,,,,,,,,,1,,,66,63
140401,note_on,3,0,1,,,,,,,,,0,,,81,127
140534,note_on,133,0,1,,,,,,,,,0,,,81,0
140577,note_on,43,0,1,,,,,,,,,0,,,69,127
140709,note_on,308,0,3,,,,,,,,,2,,,66,0
140712,note_on,311,0,4,,,,,,,,,3,,,66,0
140712,note_on,135,0,1,,,,,,,,,0,,,69,0
140712,note_on,311,0,2,,,,,,,,,1,,,66,0
140756,note_on,44,0,1,,,,,,,,,0,,,71,127
140756,note_on,44,0,2,,,,,,,,,1,,,64,63
140756,note_on,47,0,3,,,,,,,,,2,,,64,65
140758,note_on,46,0,4,,,,,,,,,3,,,64,65
141062,note_on,306,0,3,,,,,,,,,2,,,64,0
141065,note_on,309,0,1,,,,,,,,,0,,,71,0
141067,note_on,309,0,4,,,,,,,,,3,,,64,0
141067,note_on,311,0,2,,,,,,,,,1,,,64,0
141110,note_on,48,0,3,,,,,,,,,2,,,57,65
141110,note_on,43,0,2,,,,,,,,,1,,,57,63
141110,note_on,43,0,4,,,,,,,,,3,,,57,65
141110,note_on,45,0,1,,,,,,,,,0,,,69,127
141111,note_on,2481,0,5,,,,,,,,,4,,,45,82
141112,note_on,2480,0,7,,,,,,,,,6,,,61,119
141112,note_on,2480,0,8,,,,,,,,,7,,,45,119
141242,note_on,131,0,5,,,,,,,,,4,,,45,0
141246,note_on,134,0,8,,,,,,,,,7,,,45,0
141287,note_on,45,0,5,,,,,,,,,4,,,47,82
141287,note_on,41,0,8,,,,,,,,,7,,,47,119
141420,note_on,308,0,7,,,,,,,,,6,,,61,0
141421,note_on,134,0,8,,,,,,,,,7,,,47,0
141421,note_on,134,0,5,,,,,,,,,4,,,47,0
141441,note_on,331,0,2,,,,,,,,,1,,,57,0
141441,note_on,331,0,1,,,,,,,,,0,,,69,0
141464,note_on,354,0,4,,,,,,,,,3,,,57,0
141464,note_on,354,0,3,,,,,,,,,2,,,57,0
141467,note_on,46,0,8,,,,,,,,,7,,,49,119
141467,note_on,46,0,5,,,,,,,,,4,,,49,82
141467,note_on,47,0,7,,,,,,,,,6,,,64,119
141601,note_on,134,0,5,,,,,,,,,4,,,49,0
141605,note_on,138,0,8,,,,,,,,,7,,,49,0
141642,note_on,41,0,5,,,,,,,,,4,,,45,82
141642,note_on,201,0,1,,,,,,,,,0,,,64,127
141643,note_on,38,0,8,,,,,,,,,7,,,45,119
141769,note_on,127,0,5,,,,,,,,,4,,,45,0
141769,note_on,126,0,8,,,,,,,,,7,,,45,0
141773,note_on,131,0,1,,,,,,,,,0,,,64,0
141776,note_on,309,0,7,,,,,,,,,6,,,64,0
141818,note_on,49,0,5,,,,,,,,,4,,,61,82
141818,note_on,45,0,1,,,,,,,,,0,,,69,127
141819,note_on,50,0,8,,,,,,,,,7,,,61,119
141819,note_on,43,0,7,,,,,,,,,6,,,69,119
141904,note_on,86,0,1,,,,,,,,,0,,,69,0
141907,note_on,3,0,1,,,,,,,,,0,,,68,127
141992,note_on,85,0,1,,,,,,,,,0,,,68,0
141996,note_on,4,0,1,,,,,,,,,0,,,66,127
142081,note_on,85,0,1,,,,,,,,,0,,,66,0
142086,note_on,5,0,1,,,,,,,,,0,,,64,127
142130,note_on,311,0,8,,,,,,,,,7,,,61,0
142130,note_on,312,0,5,,,,,,,,,4,,,61,0
142136,note_on,317,0,7,,,,,,,,,6,,,69,0
142171,note_on,85,0,1,,,,,,,,,0,,,64,0
142174,note_on,3,0,1,,,,,,,,,0,,,69,127
142174,note_on,44,0,5,,,,,,,,,4,,,59,82
142174,note_on,38,0,7,,,,,,,,,6,,,68,119
142175,note_on,45,0,8,,,,,,,,,7,,,59,119
142260,note_on,0,0,1,,,,,,,,,0,,,68,127
142260,note_on,86,0,1,,,,,,,,,0,,,69,0
142347,note_on,87,0,1,,,,,,,,,0,,,68,0
142351,note_on,4,0,1,,,,,,,,,0,,,66,127
142437,note_on,86,0,1,,,,,,,,,0,,,66,0
142438,note_on,1,0,1,,,,,,,,,0,,,64,127
142477,note_on,303,0,7,,,,,,,,,6,,,68,0
142477,note_on,303,0,5,,,,,,,,,4,,,59,0
142477,note_on,302,0,8,,,,,,,,,7,,,59,0
142525,note_on,87,0,1,,,,,,,,,0,,,64,0
142527,note_on,50,0,5,,,,,,,,,4,,,57,82
142527,note_on,2,0,1,,,,,,,,,0,,,69,127
142530,note_on,53,0,7,,,,,,,,,6,,,66,119
142530,note_on,53,0,8,,,,,,,,,7,,,57,119
142612,note_on,85,0,1,,,,,,,,,0,,,69,0
142616,note_on,4,0,1,,,,,,,,,0,,,68,127
142702,note_on,86,0,1,,,,,,,,,0,,,68,0
142704,note_on,2,0,1,,,,,,,,,0,,,66,127
142788,note_on,84,0,1,,,,,,,,,0,,,66,0
142793,note_on,5,0,1,,,,,,,,,0,,,64,127
142830,note_on,303,0,5,,,,,,,,,4,,,57,0
142831,note_on,301,0,7,,,,,,,,,6,,,66,0
142832,note_on,302,0,8,,,,,,,,,7,,,57,0
142879,note_on,86,0,1,,,,,,,,,0,,,64,0
142881,note_on,2,0,1,,,,,,,,,0,,,69,127
142882,note_on,51,0,7,,,,,,,,,6,,,64,119
142882,note_on,52,0,5,,,,,,,,,4,,,56,82
142884,note_on,52,0,8,,,,,,,,,7,,,56,119
142967,note_on,86,0,1,,,,,,,,,0,,,69,0
142970,note_on,3,0,1,,,,,,,,,0,,,68,127
143056,note_on,86,0,1,,,,,,,,,0,,,68,0
143059,note_on,3,0,1,,,,,,,,,0,,,66,127
143145,note_on,86,0,1,,,,,,,,,0,,,66,0
143147,note_on,2,0,1,,,,,,,,,0,,,64,127
143186,note_on,304,0,7,,,,,,,,,6,,,64,0
143189,note_on,305,0,8,,,,,,,,,7,,,56,0
143189,note_on,307,0,5,,,,,,,,,4,,,56,0
143233,note_on,86,0,1,,,,,,,,,0,,,64,0
143235,note_on,2,0,1,,,,,,,,,0,,,69,127
143241,note_on,52,0,5,,,,,,,,,4,,,54,82
143241,note_on,52,0,8,,,,,,,,,7,,,54,119
143241,program_change,1800,0,2,,,,,,,,48,1,,,,
143241,note_on,55,0,7,,,,,,,,,6,,,62,119
143243,program_change,1779,0,4,,,,,,,,49,3,,,,
143243,program_change,1779,0,3,,,,,,,,48,2,,,,
143369,note_on,134,0,1,,,,,,,,,0,,,69,0
143414,note_on,45,0,1,,,,,,,,,0,,,57,127
143547,note_on,133,0,1,,,,,,,,,0,,,57,0
143547,note_on,306,0,5,,,,,,,,,4,,,54,0
143553,note_on,312,0,8,,,,,,,,,7,,,54,0
143553,note_on,312,0,7,,,,,,,,,6,,,62,0
143592,note_on,0,0,7,,,,,,,,,6,,,56,119
143592,note_on,39,0,8,,,,,,,,,7,,,52,119
143592,note_on,45,0,1,,,,,,,,,0,,,59,127
143592,note_on,45,0,5,,,,,,,,,4,,,52,82
143592,note_on,39,0,7,,,,,,,,,6,,,59,119
143899,note_on,307,0,7,,,,,,,,,6,,,59,0
143902,note_on,3,0,7,,,,,,,,,6,,,56,0
143902,note_on,310,0,1,,,,,,,,,0,,,59,0
143902,note_on,310,0,5,,,,,,,,,4,,,52,0
143903,note_on,311,0,8,,,,,,,,,7,,,52,0
143947,note_on,706,0,2,,,,,,,,,1,,,57,65
143947,note_on,45,0,1,,,,,,,,,0,,,57,127
143947,note_on,704,0,3,,,,,,,,,2,,,57,65
143947,note_on,704,0,4,,,,,,,,,3,,,57,64
143950,note_on,48,0,7,,,,,,,,,6,,,57,127
143950,note_on,31578,0,6,,,,,,,,,5,,,45,90
143950,note_on,47,0,8,,,,,,,,,7,,,45,127
143951,note_on,49,0,5,,,,,,,,,4,,,45,90
144254,note_on,307,0,3,,,,,,,,,2,,,57,0
144255,note_on,308,0,1,,,,,,,,,0,,,57,0
144258,note_on,311,0,2,,,,,,,,,1,,,57,0
144258,note_on,311,0,4,,,,,,,,,3,,,57,0
144260,note_on,309,0,5,,,,,,,,,4,,,45,0
144260,note_on,310,0,7,,,,,,,,,6,,,57,0
144260,note_on,310,0,6,,,,,,,,,5,,,45,0
144260,note_on,310,0,8,,,,,,,,,7,,,45,0
144299,note_on,44,0,1,,,,,,,,,0,,,64,127
144300,note_on,46,0,3,,,,,,,,,2,,,64,65
144300,note_on,40,0,6,,,,,,,,,5,,,52,90
144300,note_on,42,0,4,,,,,,,,,3,,,64,64
144300,note_on,40,0,5,,,,,,,,,4,,,52,90
144300,note_on,42,0,2,,,,,,,,,1,,,64,65
144301,note_on,41,0,7,,,,,,,,,6,,,64,127
144301,note_on,41,0,8,,,,,,,,,7,,,52,127
144608,note_on,308,0,3,,,,,,,,,2,,,64,0
144610,note_on,311,0,1,,,,,,,,,0,,,64,0
144611,note_on,311,0,5,,,,,,,,,4,,,52,0
144611,note_on,311,0,2,,,,,,,,,1,,,64,0
144612,note_on,311,0,7,,,,,,,,,6,,,64,0
144612,note_on,312,0,4,,,,,,,,,3,,,64,0
144612,note_on,312,0,6,,,,,,,,,5,,,52,0
144614,note_on,313,0,8,,,,,,,,,7,,,52,0
144653,note_on,43,0,1,,,,,,,,,0,,,69,127
144654,note_on,43,0,2,,,,,,,,,1,,,69,65
144655,note_on,47,0,3,,,,,,,,,2,,,69,65
144656,note_on,44,0,4,,,,,,,,,3,,,69,64
144656,note_on,44,0,6,,,,,,,,,5,,,57,90
144656,note_on,45,0,5,,,,,,,,,4,,,57,90
144657,note_on,45,0,7,,,,,,,,,6,,,69,127
144657,note_on,43,0,8,,,,,,,,,7,,,57,127
144784,note_on,128,0,6,,,,,,,,,5,,,57,0
144784,note_on,129,0,3,,,,,,,,,2,,,69,0
144785,note_on,129,0,5,,,,,,,,,4,,,57,0
144785,note_on,131,0,2,,,,,,,,,1,,,69,0
144785,note_on,132,0,1,,,,,,,,,0,,,69,0
144787,note_on,130,0,8,,,,,,,,,7,,,57,0
144787,note_on,130,0,7,,,,,,,,,6,,,69,0
144788,note_on,132,0,4,,,,,,,,,3,,,69,0
144832,note_on,47,0,1,,,,,,,,,0,,,57,127
144835,note_on,50,0,2,,,,,,,,,1,,,57,65
144835,note_on,47,0,4,,,,,,,,,3,,,57,64
144835,note_on,51,0,3,,,,,,,,,2,,,57,65
144836,note_on,49,0,8,,,,,,,,,7,,,45,127
144836,note_on,49,0,7,,,,,,,,,6,,,57,127
144836,note_on,51,0,5,,,,,,,,,4,,,45,90
144836,note_on,52,0,6,,,,,,,,,5,,,45,90
144985,note_on,153,0,1,,,,,,,,,0,,,57,0
144986,note_on,151,0,2,,,,,,,,,1,,,57,0
144988,note_on,153,0,3,,,,,,,,,2,,,57,0
144988,note_on,153,0,4,,,,,,,,,3,,,57,0
144989,note_on,153,0,6,,,,,,,,,5,,,45,0
144989,note_on,153,0,7,,,,,,,,,6,,,57,0
144989,note_on,153,0,5,,,,,,,,,4,,,45,0
144991,note_on,155,0,8,,,,,,,,,7,,,45,0
145186,note_on,198,0,3,,,,,,,,,2,,,64,65
145186,note_on,200,0,2,,,,,,,,,1,,,64,65
145186,note_on,201,0,1,,,,,,,,,0,,,64,127
145186,note_on,197,0,5,,,,,,,,,4,,,52,90
145186,note_on,198,0,4,,,,,,,,,3,,,64,64
145187,note_on,198,0,7,,,,,,,,,6,,,64,127
145187,note_on,196,0,8,,,,,,,,,7,,,52,127
145320,note_on,134,0,2,,,,,,,,,1,,,64,0
145320,note_on,134,0,1,,,,,,,,,0,,,64,0
145320,note_on,134,0,4,,,,,,,,,3,,,64,0
145320,note_on,134,0,5,,,,,,,,,4,,,52,0
145320,note_on,133,0,7,,,,,,,,,6,,,64,0
145320,note_on,134,0,3,,,,,,,,,2,,,64,0
145322,note_on,135,0,8,,,,,,,,,7,,,52,0
145366,note_on,46,0,1,,,,,,,,,0,,,69,127
145367,note_on,45,0,8,,,,,,,,,7,,,57,127
145367,note_on,47,0,5,,,,,,,,,4,,,57,90
145367,note_on,47,0,7,,,,,,,,,6,,,69,127
145367,note_on,47,0,2,,,,,,,,,1,,,69,65
145367,note_on,47,0,4,,,,,,,,,3,,,69,64
145367,note_on,47,0,3,,,,,,,,,2,,,69,65
145449,note_on,83,0,1,,,,,,,,,0,,,69,0
145450,note_on,83,0,2,,,,,,,,,1,,,69,0
145451,note_on,84,0,4,,,,,,,,,3,,,69,0
145451,note_on,84,0,3,,,,,,,,,2,,,69,0
145452,note_on,85,0,5,,,,,,,,,4,,,57,0
145452,note_on,85,0,7,,,,,,,,,6,,,69,0
145453,note_on,4,0,1,,,,,,,,,0,,,68,127
145453,note_on,86,0,8,,,,,,,,,7,,,57,0
145455,note_on,5,0,2,,,,,,,,,1,,,68,65
145456,note_on,4,0,7,,,,,,,,,6,,,68,127
145456,note_on,5,0,3,,,,,,,,,2,,,68,65
145456,note_on,4,0,5,,,,,,,,,4,,,56,90
145456,note_on,5,0,4,,,,,,,,,3,,,68,64
145457,note_on,4,0,8,,,,,,,,,7,,,56,127
145539,note_on,84,0,2,,,,,,,,,1,,,68,0
145539,note_on,83,0,3,,,,,,,,,2,,,68,0
145539,note_on,86,0,1,,,,,,,,,0,,,68,0
145541,note_on,85,0,4,,,,,,,,,3,,,68,0
145542,note_on,86,0,5,,,,,,,,,4,,,56,0
145542,note_on,86,0,7,,,,,,,,,6,,,68,0
145542,note_on,85,0,8,,,,,,,,,7,,,56,0
145545,note_on,6,0,1,,,,,,,,,0,,,69,127
145546,note_on,7,0,3,,,,,,,,,2,,,69,65
145546,note_on,5,0,4,,,,,,,,,3,,,69,64
145546,note_on,4,0,7,,,,,,,,,6,,,69,127
145546,note_on,4,0,5,,,,,,,,,4,,,57,90
145546,note_on,7,0,2,,,,,,,,,1,,,69,65
145547,note_on,5,0,8,,,,,,,,,7,,,57,127
145628,note_on,82,0,4,,,,,,,,,3,,,69,0
145628,note_on,82,0,3,,,,,,,,,2,,,69,0
145628,note_on,83,0,1,,,,,,,,,0,,,69,0
145628,note_on,82,0,2,,,,,,,,,1,,,69,0
145630,note_on,84,0,7,,,,,,,,,6,,,69,0
145630,note_on,84,0,5,,,,,,,,,4,,,57,0
145631,note_on,84,0,8,,,,,,,,,7,,,57,0
145632,note_on,4,0,2,,,,,,,,,1,,,68,65
145632,note_on,4,0,1,,,,,,,,,0,,,68,127
145633,note_on,3,0,5,,,,,,,,,4,,,56,90
145633,note_on,5,0,3,,,,,,,,,2,,,68,65
145633,note_on,5,0,4,,,,,,,,,3,,,68,64
145633,note_on,3,0,7,,,,,,,,,6,,,68,127
145634,note_on,3,0,8,,,,,,,,,7,,,56,127
145715,note_on,83,0,1,,,,,,,,,0,,,68,0
145716,note_on,83,0,3,,,,,,,,,2,,,68,0
145716,note_on,84,0,2,,,,,,,,,1,,,68,0
145718,note_on,85,0,5,,,,,,,,,4,,,56,0
145718,note_on,85,0,4,,,,,,,,,3,,,68,0
145720,note_on,86,0,8,,,,,,,,,7,,,56,0
145720,note_on,87,0,7,,,,,,,,,6,,,68,0
145721,note_on,6,0,1,,,,,,,,,0,,,69,127
145721,note_on,5,0,2,,,,,,,,,1,,,69,65
145722,note_on,6,0,3,,,,,,,,,2,,,69,65
145724,note_on,4,0,8,,,,,,,,,7,,,57,127
145724,note_on,6,0,4,,,,,,,,,3,,,69,64
145724,note_on,4,0,7,,,,,,,,,6,,,69,127
145724,note_on,6,0,5,,,,,,,,,4,,,57,90
145805,note_on,84,0,2,,,,,,,,,1,,,69,0
145805,note_on,84,0,1,,,,,,,,,0,,,69,0
145808,note_on,84,0,5,,,,,,,,,4,,,57,0
145808,note_on,86,0,3,,,,,,,,,2,,,69,0
145808,note_on,84,0,4,,,,,,,,,3,,,69,0
145812,note_on,88,0,7,,,,,,,,,6,,,69,0
145813,note_on,5,0,3,,,,,,,,,2,,,68,65
145813,note_on,89,0,8,,,,,,,,,7,,,57,0
145813,note_on,8,0,1,,,,,,,,,0,,,68,127
145813,note_on,8,0,2,,,,,,,,,1,,,68,65
145814,note_on,6,0,5,,,,,,,,,4,,,56,90
145814,note_on,6,0,4,,,,,,,,,3,,,68,64
145814,note_on,2,0,7,,,,,,,,,6,,,68,127
145814,note_on,1,0,8,,,,,,,,,7,,,56,127
145893,note_on,80,0,2,,,,,,,,,1,,,68,0
145893,note_on,80,0,1,,,,,,,,,0,,,68,0
145894,note_on,81,0,3,,,,,,,,,2,,,68,0
145895,note_on,81,0,4,,,,,,,,,3,,,68,0
145896,note_on,82,0,7,,,,,,,,,6,,,68,0
145896,note_on,82,0,5,,,,,,,,,4,,,56,0
145896,note_on,82,0,8,,,,,,,,,7,,,56,0
145897,note_on,4,0,2,,,,,,,,,1,,,69,65
145897,note_on,4,0,1,,,,,,,,,0,,,69,127
145898,note_on,4,0,3,,,,,,,,,2,,,69,65
145899,note_on,4,0,4,,,,,,,,,3,,,69,64
145900,note_on,4,0,5,,,,,,,,,4,,,57,90
145900,note_on,4,0,7,,,,,,,,,6,,,69,127
145900,note_on,4,0,8,,,,,,,,,7,,,57,127
145981,note_on,84,0,1,,,,,,,,,0,,,69,0
145981,note_on,84,0,2,,,,,,,,,1,,,69,0
145983,note_on,85,0,3,,,,,,,,,2,,,69,0
145983,note_on,84,0,4,,,,,,,,,3,,,69,0
145984,note_on,84,0,5,,,,,,,,,4,,,57,0
145984,note_on,84,0,8,,,,,,,,,7,,,57,0
145984,note_on,84,0,7,,,,,,,,,6,,,69,0
145985,note_on,4,0,2,,,,,,,,,1,,,68,65
145985,note_on,4,0,1,,,,,,,,,0,,,68,127
145986,note_on,3,0,3,,,,,,,,,2,,,68,65
145986,note_on,3,0,4,,,,,,,,,3,,,68,64
145986,note_on,2,0,7,,,,,,,,,6,,,68,127
145986,note_on,2,0,5,,,,,,,,,4,,,56,90
145987,note_on,3,0,8,,,,,,,,,7,,,56,127
146072,note_on,87,0,2,,,,,,,,,1,,,68,0
146072,note_on,87,0,1,,,,,,,,,0,,,68,0
146075,note_on,89,0,3,,,,,,,,,2,,,68,0
146076,note_on,90,0,4,,,,,,,,,3,,,68,0
146076,note_on,90,0,5,,,,,,,,,4,,,56,0
146076,note_on,90,0,7,,,,,,,,,6,,,68,0
146078,note_on,91,0,8,,,,,,,,,7,,,56,0
146079,note_on,7,0,1,,,,,,,,,0,,,69,127
146079,note_on,7,0,2,,,,,,,,,1,,,69,65
146082,note_on,7,0,3,,,,,,,,,2,,,69,65
146082,note_on,4,0,8,,,,,,,,,7,,,57,127
146082,note_on,6,0,4,,,,,,,,,3,,,69,64
146082,note_on,6,0,7,,,,,,,,,6,,,69,127
146082,note_on,6,0,5,,,,,,,,,4,,,57,90
146207,note_on,125,0,3,,,,,,,,,2,,,69,0
146207,note_on,128,0,1,,,,,,,,,0,,,69,0
146207,note_on,128,0,2,,,,,,,,,1,,,69,0
146210,note_on,128,0,4,,,,,,,,,3,,,69,0
146210,note_on,128,0,8,,,,,,,,,7,,,57,0
146210,note_on,128,0,5,,,,,,,,,4,,,57,0
146210,note_on,128,0,7,,,,,,,,,6,,,69,0
146252,note_on,45,0,3,,,,,,,,,2,,,64,65
146252,note_on,42,0,4,,,,,,,,,3,,,64,64
146252,note_on,45,0,1,,,,,,,,,0,,,64,127
146252,note_on,45,0,2,,,,,,,,,1,,,64,65
146254,note_on,44,0,7,,,,,,,,,6,,,64,127
146254,note_on,44,0,5,,,,,,,,,4,,,52,90
146254,note_on,44,0,8,,,,,,,,,7,,,52,127
146380,note_on,128,0,3,,,,,,,,,2,,,64,0
146383,note_on,131,0,2,,,,,,,,,1,,,64,0
146383,note_on,131,0,4,,,,,,,,,3,,,64,0
146383,note_on,131,0,1,,,,,,,,,0,,,64,0
146384,note_on,130,0,8,,,,,,,,,7,,,52,0
146384,note_on,130,0,7,,,,,,,,,6,,,64,0
146384,note_on,130,0,5,,,,,,,,,4,,,52,0
146427,note_on,44,0,1,,,,,,,,,0,,,61,127
146428,note_on,45,0,2,,,,,,,,,1,,,61,65
146428,note_on,48,0,3,,,,,,,,,2,,,61,65
146429,note_on,45,0,7,,,,,,,,,6,,,61,127
146429,note_on,45,0,5,,,,,,,,,4,,,49,90
146429,note_on,46,0,4,,,,,,,,,3,,,61,64
146431,note_on,47,0,8,,,,,,,,,7,,,49,127
146558,note_on,130,0,3,,,,,,,,,2,,,61,0
146562,note_on,135,0,1,,,,,,,,,0,,,61,0
146563,note_on,132,0,8,,,,,,,,,7,,,49,0
146563,note_on,134,0,4,,,,,,,,,3,,,61,0
146563,note_on,134,0,7,,,,,,,,,6,,,61,0
146563,note_on,135,0,2,,,,,,,,,1,,,61,0
146563,note_on,134,0,5,,,,,,,,,4,,,49,0
146605,note_on,43,0,1,,,,,,,,,0,,,57,127
146605,note_on,47,0,3,,,,,,,,,2,,,57,65
146605,note_on,42,0,2,,,,,,,,,1,,,57,65
146606,note_on,43,0,4,,,,,,,,,3,,,57,64
146606,note_on,43,0,5,,,,,,,,,4,,,45,90
146607,note_on,44,0,8,,,,,,,,,7,,,45,127
146607,note_on,44,0,7,,,,,,,,,6,,,57,127
146736,note_on,131,0,3,,,,,,,,,2,,,57,0
146740,note_on,133,0,7,,,,,,,,,6,,,57,0
146740,note_on,133,0,8,,,,,,,,,7,,,45,0
146740,note_on,134,0,4,,,,,,,,,3,,,57,0
146740,note_on,135,0,1,,,,,,,,,0,,,57,0
146740,note_on,135,0,2,,,,,,,,,1,,,57,0
146740,note_on,134,0,5,,,,,,,,,4,,,45,0
146784,note_on,48,0,3,,,,,,,,,2,,,64,65
146784,note_on,44,0,8,,,,,,,,,7,,,52,127
146784,note_on,44,0,5,,,,,,,,,4,,,52,90
146784,note_on,44,0,4,,,,,,,,,3,,,64,64
146784,note_on,44,0,7,,,,,,,,,6,,,64,127
146784,note_on,44,0,1,,,,,,,,,0,,,64,127
146784,note_on,44,0,2,,,,,,,,,1,,,64,65
147115,note_on,331,0,2,,,,,,,,,1,,,64,0
147115,note_on,331,0,1,,,,,,,,,0,,,64,0
147139,note_on,355,0,8,,,,,,,,,7,,,52,0
147139,note_on,355,0,4,,,,,,,,,3,,,64,0
147139,note_on,355,0,7,,,,,,,,,6,,,64,0
147139,note_on,355,0,3,,,,,,,,,2,,,64,0
147139,note_on,355,0,5,,,,,,,,,4,,,52,0
147315,note_on,200,0,1,,,,,,,,,0,,,64,127
147316,note_on,177,0,7,,,,,,,,,6,,,64,127
147316,note_on,177,0,3,,,,,,,,,2,,,64,65
147316,note_on,177,0,4,,,,,,,,,3,,,64,64
147316,note_on,177,0,8,,,,,,,,,7,,,52,127
147316,note_on,201,0,2,,,,,,,,,1,,,64,65
147316,note_on,177,0,5,,,,,,,,,4,,,52,90
147448,note_on,132,0,5,,,,,,,,,4,,,52,0
147448,note_on,132,0,4,,,,,,,,,3,,,64,0
147448,note_on,132,0,2,,,,,,,,,1,,,64,0
147448,note_on,132,0,7,,,,,,,,,6,,,64,0
147448,note_on,133,0,1,,,,,,,,,0,,,64,0
147448,note_on,132,0,3,,,,,,,,,2,,,64,0
147449,note_on,133,0,8,,,,,,,,,7,,,52,0
147492,note_on,44,0,4,,,,,,,,,3,,,76,64
147492,note_on,44,0,2,,,,,,,,,1,,,76,65
147492,note_on,44,0,1,,,,,,,,,0,,,76,127
147492,note_on,44,0,3,,,,,,,,,2,,,76,65
147495,note_on,47,0,7,,,,,,,,,6,,,76,127
147495,note_on,47,0,5,,,,,,,,,4,,,64,90
147495,note_on,46,0,8,,,,,,,,,7,,,64,127
147578,note_on,86,0,1,,,,,,,,,0,,,76,0
147578,note_on,86,0,2,,,,,,,,,1,,,76,0
147579,note_on,87,0,3,,,,,,,,,2,,,76,0
147579,note_on,87,0,4,,,,,,,,,3,,,76,0
147581,note_on,86,0,5,,,,,,,,,4,,,64,0
147581,note_on,86,0,7,,,,,,,,,6,,,76,0
147581,note_on,86,0,8,,,,,,,,,7,,,64,0
147584,note_on,5,0,4,,,,,,,,,3,,,75,64
147584,note_on,3,0,5,,,,,,,,,4,,,63,90
147584,note_on,6,0,2,,,,,,,,,1,,,75,65
147584,note_on,6,0,1,,,,,,,,,0,,,75,127
147584,note_on,5,0,3,,,,,,,,,2,,,75,65
147585,note_on,4,0,7,,,,,,,,,6,,,75,127
147585,note_on,4,0,8,,,,,,,,,7,,,63,127
147667,note_on,83,0,2,,,,,,,,,1,,,75,0
147667,note_on,83,0,1,,,,,,,,,0,,,75,0
147670,note_on,86,0,4,,,,,,,,,3,,,75,0
147670,note_on,86,0,5,,,,,,,,,4,,,63,0
147670,note_on,86,0,3,,,,,,,,,2,,,75,0
147670,note_on,85,0,8,,,,,,,,,7,,,63,0
147670,note_on,85,0,7,,,,,,,,,6,,,75,0
147674,note_on,7,0,2,,,,,,,,,1,,,76,65
147674,note_on,4,0,3,,,,,,,,,2,,,76,65
147674,note_on,7,0,1,,,,,,,,,0,,,76,127
147674,note_on,4,0,4,,,,,,,,,3,,,76,64
147676,note_on,6,0,8,,,,,,,,,7,,,64,127
147676,note_on,6,0,7,,,,,,,,,6,,,76,127
147676,note_on,6,0,5,,,,,,,,,4,,,64,90
147755,note_on,81,0,1,,,,,,,,,0,,,76,0
147755,note_on,81,0,2,,,,,,,,,1,,,76,0
147759,note_on,83,0,7,,,,,,,,,6,,,76,0
147759,note_on,83,0,8,,,,,,,,,7,,,64,0
147759,note_on,85,0,4,,,,,,,,,3,,,76,0
147759,note_on,85,0,3,,,,,,,,,2,,,76,0
147759,note_on,83,0,5,,,,,,,,,4,,,64,0
147763,note_on,8,0,1,,,,,,,,,0,,,75,127
147765,note_on,6,0,4,,,,,,,,,3,,,75,64
147765,note_on,10,0,2,,,,,,,,,1,,,75,65
147765,note_on,6,0,3,,,,,,,,,2,,,75,65
147765,note_on,6,0,5,,,,,,,,,4,,,63,90
147765,note_on,6,0,8,,,,,,,,,7,,,63,127
147765,note_on,6,0,7,,,,,,,,,6,,,75,127
147845,note_on,80,0,3,,,,,,,,,2,,,75,0
147845,note_on,82,0,1,,,,,,,,,0,,,75,0
147845,note_on,80,0,4,,,,,,,,,3,,,75,0
147845,note_on,80,0,2,,,,,,,,,1,,,75,0
147846,note_on,81,0,5,,,,,,,,,4,,,63,0
147848,note_on,83,0,8,,,,,,,,,7,,,63,0
147848,note_on,83,0,7,,,,,,,,,6,,,75,0
147849,note_on,4,0,1,,,,,,,,,0,,,76,127
147849,note_on,4,0,3,,,,,,,,,2,,,76,65
147849,note_on,4,0,2,,,,,,,,,1,,,76,65
147850,note_on,5,0,4,,,,,,,,,3,,,76,64
147852,note_on,4,0,8,,,,,,,,,7,,,64,127
147852,note_on,6,0,5,,,,,,,,,4,,,64,90
147852,note_on,4,0,7,,,,,,,,,6,,,76,127
147974,note_on,125,0,2,,,,,,,,,1,,,76,0
147976,note_on,124,0,8,,,,,,,,,7,,,64,0
147976,note_on,124,0,7,,,,,,,,,6,,,76,0
147976,note_on,124,0,5,,,,,,,,,4,,,64,0
147976,note_on,126,0,4,,,,,,,,,3,,,76,0
147976,note_on,127,0,3,,,,,,,,,2,,,76,0
147976,note_on,127,0,1,,,,,,,,,0,,,76,0
148025,note_on,49,0,1,,,,,,,,,0,,,64,127
148026,note_on,50,0,7,,,,,,,,,6,,,64,127
148026,note_on,52,0,2,,,,,,,,,1,,,64,65
148026,note_on,50,0,5,,,,,,,,,4,,,52,90
148026,note_on,50,0,4,,,,,,,,,3,,,64,64
148026,note_on,50,0,3,,,,,,,,,2,,,64,65
148028,note_on,52,0,8,,,,,,,,,7,,,52,127
148152,note_on,126,0,3,,,,,,,,,2,,,64,0
148157,note_on,132,0,1,,,,,,,,,0,,,64,0
148157,note_on,131,0,2,,,,,,,,,1,,,64,0
148157,note_on,131,0,5,,,,,,,,,4,,,52,0
148160,note_on,132,0,8,,,,,,,,,7,,,52,0
148160,note_on,134,0,7,,,,,,,,,6,,,64,0
148160,note_on,134,0,4,,,,,,,,,3,,,64,0
148200,note_on,43,0,2,,,,,,,,,1,,,64,65
148200,note_on,48,0,3,,,,,,,,,2,,,64,65
148200,note_on,43,0,1,,,,,,,,,0,,,64,127
148201,note_on,44,0,5,,,,,,,,,4,,,52,90
148201,note_on,41,0,4,,,,,,,,,3,,,64,64
148202,note_on,42,0,7,,,,,,,,,6,,,64,127
148203,note_on,43,0,8,,,,,,,,,7,,,52,127
148329,note_on,129,0,3,,,,,,,,,2,,,64,0
148333,note_on,133,0,1,,,,,,,,,0,,,64,0
148334,note_on,133,0,4,,,,,,,,,3,,,64,0
148334,note_on,132,0,7,,,,,,,,,6,,,64,0
148334,note_on,134,0,2,,,,,,,,,1,,,64,0
148334,note_on,133,0,5,,,,,,,,,4,,,52,0
148335,note_on,132,0,8,,,,,,,,,7,,,52,0
148378,note_on,45,0,1,,,,,,,,,0,,,64,127
148379,note_on,50,0,3,,,,,,,,,2,,,64,65
148379,note_on,45,0,5,,,,,,,,,4,,,52,90
148379,note_on,45,0,4,,,,,,,,,3,,,64,64
148379,note_on,45,0,2,,,,,,,,,1,,,64,65
148380,note_on,45,0,8,,,,,,,,,7,,,52,127
148380,note_on,46,0,7,,,,,,,,,6,,,64,127
148511,note_on,132,0,2,,,,,,,,,1,,,64,0
148511,note_on,132,0,3,,,,,,,,,2,,,64,0
148511,note_on,133,0,1,,,,,,,,,0,,,64,0
148515,note_on,135,0,8,,,,,,,,,7,,,52,0
148515,note_on,136,0,5,,,,,,,,,4,,,52,0
148515,note_on,136,0,4,,,,,,,,,3,,,64,0
148515,note_on,135,0,7,,,,,,,,,6,,,64,0
148556,note_on,45,0,1,,,,,,,,,0,,,64,127
148556,note_on,45,0,2,,,,,,,,,1,,,64,65
148556,note_on,41,0,4,,,,,,,,,3,,,64,64
148556,note_on,45,0,3,,,,,,,,,2,,,64,65
148559,note_on,44,0,7,,,,,,,,,6,,,64,127
148559,note_on,44,0,8,,,,,,,,,7,,,52,127
148559,note_on,44,0,5,,,,,,,,,4,,,52,90
148686,note_on,130,0,3,,,,,,,,,2,,,64,0
148690,note_on,134,0,2,,,,,,,,,1,,,64,0
148690,note_on,131,0,8,,,,,,,,,7,,,52,0
148690,note_on,131,0,5,,,,,,,,,4,,,52,0
148690,note_on,131,0,7,,,,,,,,,6,,,64,0
148690,note_on,134,0,1,,,,,,,,,0,,,64,0
148690,note_on,134,0,4,,,,,,,,,3,,,64,0
148733,note_on,43,0,2,,,,,,,,,1,,,64,65
148733,note_on,47,0,3,,,,,,,,,2,,,64,65
148733,note_on,43,0,1,,,,,,,,,0,,,64,127
148735,note_on,45,0,8,,,,,,,,,7,,,52,127
148735,note_on,45,0,5,,,,,,,,,4,,,52,90
148735,note_on,45,0,4,,,,,,,,,3,,,64,64
148735,note_on,45,0,7,,,,,,,,,6,,,64,127
148863,note_on,130,0,3,,,,,,,,,2,,,64,0
148866,note_on,131,0,5,,,,,,,,,4,,,52,0
148866,note_on,133,0,2,,,,,,,,,1,,,64,0
148866,note_on,133,0,1,,,,,,,,,0,,,64,0
148870,note_on,135,0,7,,,,,,,,,6,,,64,0
148870,note_on,135,0,8,,,,,,,,,7,,,52,0
148870,note_on,135,0,4,,,,,,,,,3,,,64,0
148910,note_on,44,0,1,,,,,,,,,0,,,74,127
148910,note_on,44,0,2,,,,,,,,,1,,,74,65
148913,note_on,43,0,8,,,,,,,,,7,,,62,127
148913,note_on,50,0,3,,,,,,,,,2,,,74,65
148913,note_on,43,0,7,,,,,,,,,6,,,74,127
148913,note_on,43,0,4,,,,,,,,,3,,,74,64
148913,note_on,47,0,5,,,,,,,,,4,,,62,90
148996,note_on,83,0,3,,,,,,,,,2,,,74,0
148996,note_on,83,0,4,,,,,,,,,3,,,74,0
148996,note_on,86,0,1,,,,,,,,,0,,,74,0
148996,note_on,86,0,2,,,,,,,,,1,,,74,0
148998,note_on,85,0,5,,,,,,,,,4,,,62,0
148998,note_on,85,0,7,,,,,,,,,6,,,74,0
148998,note_on,85,0,8,,,,,,,,,7,,,62,0
149000,note_on,4,0,3,,,,,,,,,2,,,73,65
149000,note_on,4,0,1,,,,,,,,,0,,,73,127
149000,note_on,4,0,2,,,,,,,,,1,,,73,65
149001,note_on,5,0,4,,,,,,,,,3,,,73,64
149002,note_on,4,0,5,,,,,,,,,4,,,61,90
149003,note_on,5,0,8,,,,,,,,,7,,,61,127
149003,note_on,5,0,7,,,,,,,,,6,,,73,127
149086,note_on,86,0,3,,,,,,,,,2,,,73,0
149086,note_on,84,0,5,,,,,,,,,4,,,61,0
149086,note_on,86,0,2,,,,,,,,,1,,,73,0
149086,note_on,86,0,1,,,,,,,,,0,,,73,0
149086,note_on,85,0,4,,,,,,,,,3,,,73,0
149087,note_on,84,0,7,,,,,,,,,6,,,73,0
149088,note_on,85,0,8,,,,,,,,,7,,,61,0
149088,note_on,2,0,1,,,,,,,,,0,,,74,127
149089,note_on,3,0,3,,,,,,,,,2,,,74,65
149089,note_on,3,0,4,,,,,,,,,3,,,74,64
149089,note_on,3,0,5,,,,,,,,,4,,,62,90
149089,note_on,3,0,2,,,,,,,,,1,,,74,65
149090,note_on,3,0,7,,,,,,,,,6,,,74,127
149091,note_on,3,0,8,,,,,,,,,7,,,62,127
149174,note_on,86,0,1,,,,,,,,,0,,,74,0
149174,note_on,85,0,3,,,,,,,,,2,,,74,0
149174,note_on,85,0,2,,,,,,,,,1,,,74,0
149175,note_on,86,0,4,,,,,,,,,3,,,74,0
149178,note_on,89,0,5,,,,,,,,,4,,,62,0
149179,note_on,5,0,3,,,,,,,,,2,,,73,65
149179,note_on,5,0,1,,,,,,,,,0,,,73,127
149179,note_on,89,0,7,,,,,,,,,6,,,74,0
149179,note_on,88,0,8,,,,,,,,,7,,,62,0
149179,note_on,4,0,4,,,,,,,,,3,,,73,64
149179,note_on,5,0,2,,,,,,,,,1,,,73,65
149180,note_on,1,0,8,,,,,,,,,7,,,61,127
149180,note_on,2,0,5,,,,,,,,,4,,,61,90
149180,note_on,1,0,7,,,,,,,,,6,,,73,127
149260,note_on,81,0,1,,,,,,,,,0,,,73,0
149261,note_on,82,0,2,,,,,,,,,1,,,73,0
149262,note_on,83,0,4,,,,,,,,,3,,,73,0
149262,note_on,83,0,3,,,,,,,,,2,,,73,0
149263,note_on,83,0,5,,,,,,,,,4,,,61,0
149264,note_on,84,0,8,,,,,,,,,7,,,61,0
149264,note_on,84,0,7,,,,,,,,,6,,,73,0
149265,note_on,3,0,3,,,,,,,,,2,,,74,65
149265,note_on,5,0,1,,,,,,,,,0,,,74,127
149265,note_on,4,0,2,,,,,,,,,1,,,74,65
149266,note_on,4,0,4,,,,,,,,,3,,,74,64
149267,note_on,4,0,5,,,,,,,,,4,,,62,90
149268,note_on,4,0,8,,,,,,,,,7,,,62,127
149268,note_on,4,0,7,,,,,,,,,6,,,74,127
149389,note_on,124,0,2,,,,,,,,,1,,,74,0
149390,note_on,125,0,3,,,,,,,,,2,,,74,0
149391,note_on,124,0,5,,,,,,,,,4,,,62,0
149391,note_on,125,0,4,,,,,,,,,3,,,74,0
149395,note_on,127,0,7,,,,,,,,,6,,,74,0
149396,note_on,128,0,8,,,,,,,,,7,,,62,0
149396,note_on,131,0,1,,,,,,,,,0,,,74,0
149442,note_on,52,0,3,,,,,,,,,2,,,64,65
149442,note_on,53,0,2,,,,,,,,,1,,,64,65
149442,note_on,46,0,1,,,,,,,,,0,,,64,127
149442,note_on,51,0,4,,,,,,,,,3,,,64,64
149445,note_on,54,0,5,,,,,,,,,4,,,52,90
149445,note_on,49,0,8,,,,,,,,,7,,,52,127
149445,note_on,50,0,7,,,,,,,,,6,,,64,127
149573,note_on,131,0,1,,,,,,,,,0,,,64,0
149574,note_on,132,0,2,,,,,,,,,1,,,64,0
149575,note_on,133,0,3,,,,,,,,,2,,,64,0
149575,note_on,130,0,5,,,,,,,,,4,,,52,0
149575,note_on,133,0,4,,,,,,,,,3,,,64,0
149576,note_on,131,0,7,,,,,,,,,6,,,64,0
149576,note_on,131,0,8,,,,,,,,,7,,,52,0
149620,note_on,47,0,1,,,,,,,,,0,,,64,127
149620,note_on,45,0,3,,,,,,,,,2,,,64,65
149620,note_on,46,0,2,,,,,,,,,1,,,64,65
149623,note_on,48,0,4,,,,,,,,,3,,,64,64
149623,note_on,47,0,8,,,,,,,,,7,,,52,127
149623,note_on,48,0,5,,,,,,,,,4,,,52,90
149623,note_on,47,0,7,,,,,,,,,6,,,64,127
149751,note_on,131,0,1,,,,,,,,,0,,,64,0
149755,note_on,132,0,4,,,,,,,,,3,,,64,0
149755,note_on,132,0,7,,,,,,,,,6,,,64,0
149755,note_on,135,0,2,,,,,,,,,1,,,64,0
149755,note_on,132,0,8,,,,,,,,,7,,,52,0
149755,note_on,135,0,3,,,,,,,,,2,,,64,0
149755,note_on,132,0,5,,,,,,,,,4,,,52,0
149796,note_on,45,0,1,,,,,,,,,0,,,64,127
149796,note_on,41,0,2,,,,,,,,,1,,,64,65
149798,note_on,43,0,8,,,,,,,,,7,,,52,127
149798,note_on,43,0,4,,,,,,,,,3,,,64,64
149798,note_on,43,0,5,,,,,,,,,4,,,52,90
149798,note_on,43,0,3,,,,,,,,,2,,,64,65
149798,note_on,43,0,7,,,,,,,,,6,,,64,127
149925,note_on,127,0,3,,,,,,,,,2,,,64,0
149928,note_on,132,0,1,,,,,,,,,0,,,64,0
149929,note_on,131,0,4,,,,,,,,,3,,,64,0
149929,note_on,133,0,2,,,,,,,,,1,,,64,0
149929,note_on,131,0,5,,,,,,,,,4,,,52,0
149932,note_on,134,0,7,,,,,,,,,6,,,64,0
149932,note_on,134,0,8,,,,,,,,,7,,,52,0
149972,note_on,44,0,1,,,,,,,,,0,,,64,127
149974,note_on,45,0,2,,,,,,,,,1,,,64,65
149975,note_on,43,0,7,,,,,,,,,6,,,64,127
149975,note_on,50,0,3,,,,,,,,,2,,,64,65
149975,note_on,46,0,5,,,,,,,,,4,,,52,90
149975,note_on,46,0,4,,,,,,,,,3,,,64,64
149975,note_on,43,0,8,,,,,,,,,7,,,52,127
150103,note_on,128,0,3,,,,,,,,,2,,,64,0
150107,note_on,135,0,1,,,,,,,,,0,,,64,0
150108,note_on,133,0,7,,,,,,,,,6,,,64,0
150108,note_on,133,0,5,,,,,,,,,4,,,52,0
150108,note_on,133,0,8,,,,,,,,,7,,,52,0
150108,note_on,133,0,4,,,,,,,,,3,,,64,0
150108,note_on,134,0,2,,,,,,,,,1,,,64,0
150150,note_on,43,0,1,,,,,,,,,0,,,64,127
150151,note_on,48,0,3,,,,,,,,,2,,,64,65
150151,note_on,43,0,2,,,,,,,,,1,,,64,65
150151,note_on,43,0,4,,,,,,,,,3,,,64,64
150152,note_on,44,0,7,,,,,,,,,6,,,64,127
150152,note_on,44,0,5,,,,,,,,,4,,,52,90
150152,note_on,44,0,8,,,,,,,,,7,,,52,127
150280,note_on,129,0,3,,,,,,,,,2,,,64,0
150283,note_on,132,0,2,,,,,,,,,1,,,64,0
150283,note_on,133,0,1,,,,,,,,,0,,,64,0
150283,note_on,131,0,5,,,,,,,,,4,,,52,0
150284,note_on,133,0,4,,,,,,,,,3,,,64,0
150284,note_on,132,0,7,,,,,,,,,6,,,64,0
150284,note_on,132,0,8,,,,,,,,,7,,,52,0
150330,note_on,46,0,7,,,,,,,,,6,,,72,127
150330,note_on,47,0,1,,,,,,,,,0,,,72,127
150330,note_on,50,0,3,,,,,,,,,2,,,72,65
150330,note_on,47,0,5,,,,,,,,,4,,,60,90
150330,note_on,46,0,4,,,,,,,,,3,,,72,64
150330,note_on,47,0,2,,,,,,,,,1,,,72,65
150332,note_on,48,0,8,,,,,,,,,7,,,60,127
150458,note_on,128,0,3,,,,,,,,,2,,,72,0
150458,note_on,128,0,5,,,,,,,,,4,,,60,0
150462,note_on,132,0,4,,,,,,,,,3,,,72,0
150462,note_on,132,0,1,,,,,,,,,0,,,72,0
150462,note_on,132,0,7,,,,,,,,,6,,,72,0
150462,note_on,132,0,2,,,,,,,,,1,,,72,0
150462,note_on,130,0,8,,,,,,,,,7,,,60,0
150506,note_on,44,0,1,,,,,,,,,0,,,72,127
150506,note_on,44,0,2,,,,,,,,,1,,,72,65
150509,note_on,51,0,3,,,,,,,,,2,,,72,65
150509,note_on,51,0,5,,,,,,,,,4,,,60,90
150509,note_on,47,0,7,,,,,,,,,6,,,72,127
150509,note_on,47,0,8,,,,,,,,,7,,,60,127
150509,note_on,47,0,4,,,,,,,,,3,,,72,64
150637,note_on,128,0,3,,,,,,,,,2,,,72,0
150639,note_on,133,0,2,,,,,,,,,1,,,72,0
150639,note_on,130,0,4,,,,,,,,,3,,,72,0
150639,note_on,130,0,7,,,,,,,,,6,,,72,0
150639,note_on,133,0,1,,,,,,,,,0,,,72,0
150643,note_on,134,0,8,,,,,,,,,7,,,60,0
150643,note_on,134,0,5,,,,,,,,,4,,,60,0
150682,note_on,43,0,2,,,,,,,,,1,,,72,65
150682,note_on,43,0,1,,,,,,,,,0,,,72,127
150686,note_on,43,0,5,,,,,,,,,4,,,60,90
150686,note_on,49,0,3,,,,,,,,,2,,,72,65
150686,note_on,43,0,8,,,,,,,,,7,,,60,127
150686,note_on,47,0,7,,,,,,,,,6,,,72,127
150686,note_on,47,0,4,,,,,,,,,3,,,72,64
150815,note_on,129,0,3,,,,,,,,,2,,,72,0
150815,note_on,133,0,1,,,,,,,,,0,,,72,0
150815,note_on,133,0,2,,,,,,,,,1,,,72,0
150816,note_on,130,0,4,,,,,,,,,3,,,72,0
150816,note_on,130,0,5,,,,,,,,,4,,,60,0
150817,note_on,131,0,7,,,,,,,,,6,,,72,0
150817,note_on,131,0,8,,,,,,,,,7,,,60,0
150859,note_on,44,0,1,,,,,,,,,0,,,71,127
150860,note_on,44,0,4,,,,,,,,,3,,,71,64
150860,note_on,45,0,3,,,,,,,,,2,,,71,65
150860,note_on,45,0,2,,,,,,,,,1,,,71,65
150862,note_on,46,0,5,,,,,,,,,4,,,59,90
150862,note_on,45,0,8,,,,,,,,,7,,,59,127
150862,note_on,45,0,7,,,,,,,,,6,,,71,127
150902,note_on,42,0,2,,,,,,,,,1,,,71,0
150905,note_on,45,0,4,,,,,,,,,3,,,71,0
150905,note_on,45,0,3,,,,,,,,,2,,,71,0
150905,note_on,43,0,8,,,,,,,,,7,,,59,0
150907,note_on,45,0,7,,,,,,,,,6,,,71,0
150907,note_on,45,0,5,,,,,,,,,4,,,59,0
150923,note_on,64,0,1,,,,,,,,,0,,,71,0
150948,note_on,25,0,1,,,,,,,,,0,,,69,127
150948,note_on,46,0,2,,,,,,,,,1,,,69,65
150948,note_on,43,0,3,,,,,,,,,2,,,69,65
150948,note_on,43,0,4,,,,,,,,,3,,,69,64
150949,note_on,42,0,5,,,,,,,,,4,,,57,90
150950,note_on,43,0,7,,,,,,,,,6,,,69,127
150951,note_on,46,0,8,,,,,,,,,7,,,57,127
150994,note_on,46,0,2,,,,,,,,,1,,,69,0
150996,note_on,48,0,4,,,,,,,,,3,,,69,0
150996,note_on,48,0,3,,,,,,,,,2,,,69,0
150997,note_on,48,0,5,,,,,,,,,4,,,57,0
150997,note_on,47,0,7,,,,,,,,,6,,,69,0
151001,note_on,50,0,8,,,,,,,,,7,,,57,0
151013,note_on,65,0,1,,,,,,,,,0,,,69,0
151037,note_on,41,0,4,,,,,,,,,3,,,76,64
151037,note_on,40,0,5,,,,,,,,,4,,,64,90
151037,note_on,24,0,1,,,,,,,,,0,,,76,127
151037,note_on,43,0,2,,,,,,,,,1,,,76,65
151037,note_on,41,0,3,,,,,,,,,2,,,76,65
151038,note_on,41,0,7,,,,,,,,,6,,,76,127
151039,note_on,38,0,8,,,,,,,,,7,,,64,127
151523,note_on,486,0,3,,,,,,,,,2,,,76,0
151525,note_on,488,0,1,,,,,,,,,0,,,76,0
151525,note_on,488,0,2,,,,,,,,,1,,,76,0
151525,note_on,488,0,5,,,,,,,,,4,,,64,0
151528,note_on,491,0,4,,,,,,,,,3,,,76,0
151528,note_on,490,0,7,,,,,,,,,6,,,76,0
151528,note_on,489,0,8,,,,,,,,,7,,,64,0
151570,note_on,47,0,3,,,,,,,,,2,,,64,65
151570,note_on,45,0,1,,,,,,,,,0,,,64,127
151570,note_on,45,0,2,,,,,,,,,1,,,64,65
151570,note_on,42,0,4,,,,,,,,,3,,,64,64
151574,note_on,49,0,5,,,,,,,,,4,,,52,90
151574,note_on,46,0,8,,,,,,,,,7,,,52,127
151574,note_on,46,0,7,,,,,,,,,6,,,64,127
151697,note_on,127,0,3,,,,,,,,,2,,,64,0
151703,note_on,133,0,1,,,,,,,,,0,,,64,0
151703,note_on,129,0,8,,,,,,,,,7,,,52,0
151703,note_on,133,0,2,,,,,,,,,1,,,64,0
151703,note_on,129,0,5,,,,,,,,,4,,,52,0
151703,note_on,129,0,7,,,,,,,,,6,,,64,0
151703,note_on,133,0,4,,,,,,,,,3,,,64,0
151747,note_on,50,0,3,,,,,,,,,2,,,72,65
151747,note_on,44,0,1,,,,,,,,,0,,,72,127
151747,note_on,44,0,2,,,,,,,,,1,,,72,65
151747,note_on,44,0,5,,,,,,,,,4,,,60,90
151747,note_on,44,0,7,,,,,,,,,6,,,72,127
151747,note_on,44,0,4,,,,,,,,,3,,,72,64
151748,note_on,45,0,8,,,,,,,,,7,,,60,127
151875,note_on,128,0,3,,,,,,,,,2,,,72,0
151878,note_on,131,0,1,,,,,,,,,0,,,72,0
151878,note_on,131,0,2,,,,,,,,,1,,,72,0
151880,note_on,133,0,4,,,,,,,,,3,,,72,0
151880,note_on,133,0,5,,,,,,,,,4,,,60,0
151881,note_on,133,0,8,,,,,,,,,7,,,60,0
151881,note_on,134,0,7,,,,,,,,,6,,,72,0
151923,note_on,45,0,1,,,,,,,,,0,,,72,127
151923,note_on,45,0,2,,,,,,,,,1,,,72,65
151923,note_on,48,0,3,,,,,,,,,2,,,72,65
151926,note_on,46,0,5,,,,,,,,,4,,,60,90
151926,note_on,45,0,7,,,,,,,,,6,,,72,127
151926,note_on,46,0,4,,,,,,,,,3,,,72,64
151928,note_on,47,0,8,,,,,,,,,7,,,60,127
152054,note_on,131,0,3,,,,,,,,,2,,,72,0
152056,note_on,133,0,1,,,,,,,,,0,,,72,0
152057,note_on,134,0,2,,,,,,,,,1,,,72,0
152057,note_on,131,0,5,,,,,,,,,4,,,60,0
152058,note_on,132,0,7,,,,,,,,,6,,,72,0
152058,note_on,132,0,4,,,,,,,,,3,,,72,0
152058,note_on,130,0,8,,,,,,,,,7,,,60,0
152100,note_on,44,0,1,,,,,,,,,0,,,72,127
152104,note_on,46,0,4,,,,,,,,,3,,,72,64
152104,note_on,46,0,8,,,,,,,,,7,,,60,127
152104,note_on,46,0,7,,,,,,,,,6,,,72,127
152104,note_on,50,0,3,,,,,,,,,2,,,72,65
152104,note_on,47,0,5,,,,,,,,,4,,,60,90
152104,note_on,47,0,2,,,,,,,,,1,,,72,65
152229,note_on,125,0,3,,,,,,,,,2,,,72,0
152232,note_on,132,0,1,,,,,,,,,0,,,72,0
152235,note_on,131,0,5,,,,,,,,,4,,,60,0
152235,note_on,131,0,4,,,,,,,,,3,,,72,0
152235,note_on,131,0,2,,,,,,,,,1,,,72,0
152238,note_on,134,0,8,,,,,,,,,7,,,60,0
152238,note_on,134,0,7,,,,,,,,,6,,,72,0
152278,note_on,43,0,2,,,,,,,,,1,,,71,65
152278,note_on,46,0,1,,,,,,,,,0,,,71,127
152281,note_on,43,0,8,,,,,,,,,7,,,59,127
152281,note_on,46,0,4,,,,,,,,,3,,,71,64
152281,note_on,46,0,5,,,,,,,,,4,,,59,90
152281,note_on,52,0,3,,,,,,,,,2,,,71,65
152281,note_on,43,0,7,,,,,,,,,6,,,71,127
152322,note_on,44,0,2,,,,,,,,,1,,,71,0
152324,note_on,43,0,3,,,,,,,,,2,,,71,0
152324,note_on,43,0,4,,,,,,,,,3,,,71,0
152325,note_on,44,0,8,,,,,,,,,7,,,59,0
152325,note_on,44,0,5,,,,,,,,,4,,,59,0
152326,note_on,45,0,7,,,,,,,,,6,,,71,0
152341,note_on,63,0,1,,,,,,,,,0,,,71,0
152366,note_on,25,0,1,,,,,,,,,0,,,69,127
152370,note_on,46,0,3,,,,,,,,,2,,,69,65
152370,note_on,45,0,5,,,,,,,,,4,,,57,90
152370,note_on,45,0,8,,,,,,,,,7,,,57,127
152370,note_on,46,0,4,,,,,,,,,3,,,69,64
152370,note_on,44,0,7,,,,,,,,,6,,,69,127
152370,note_on,48,0,2,,,,,,,,,1,,,69,65
152415,note_on,45,0,2,,,,,,,,,1,,,69,0
152416,note_on,46,0,4,,,,,,,,,3,,,69,0
152416,note_on,46,0,5,,,,,,,,,4,,,57,0
152416,note_on,46,0,7,,,,,,,,,6,,,69,0
152416,note_on,46,0,3,,,,,,,,,2,,,69,0
152419,note_on,49,0,8,,,,,,,,,7,,,57,0
152430,note_on,64,0,1,,,,,,,,,0,,,69,0
152454,note_on,24,0,1,,,,,,,,,0,,,70,127
152454,note_on,39,0,2,,,,,,,,,1,,,70,65
152458,note_on,42,0,3,,,,,,,,,2,,,70,65
152458,note_on,42,0,7,,,,,,,,,6,,,70,127
152458,note_on,42,0,4,,,,,,,,,3,,,70,64
152458,note_on,42,0,5,,,,,,,,,4,,,58,90
152460,note_on,41,0,8,,,,,,,,,7,,,58,127
152587,note_on,133,0,2,,,,,,,,,1,,,70,0
152587,note_on,133,0,1,,,,,,,,,0,,,70,0
152587,note_on,129,0,3,,,,,,,,,2,,,70,0
152588,note_on,130,0,5,,,,,,,,,4,,,58,0
152588,note_on,130,0,4,,,,,,,,,3,,,70,0
152589,note_on,131,0,7,,,,,,,,,6,,,70,0
152590,note_on,130,0,8,,,,,,,,,7,,,58,0
152632,note_on,45,0,2,,,,,,,,,1,,,70,65
152632,note_on,45,0,1,,,,,,,,,0,,,70,127
152634,note_on,47,0,3,,,,,,,,,2,,,70,65
152634,note_on,46,0,5,,,,,,,,,4,,,58,90
152634,note_on,46,0,4,,,,,,,,,3,,,70,64
152635,note_on,46,0,7,,,,,,,,,6,,,70,127
152635,note_on,45,0,8,,,,,,,,,7,,,58,127
152762,note_on,128,0,3,,,,,,,,,2,,,70,0
152765,note_on,131,0,5,,,,,,,,,4,,,58,0
152765,note_on,133,0,2,,,,,,,,,1,,,70,0
152765,note_on,130,0,7,,,,,,,,,6,,,70,0
152765,note_on,131,0,4,,,,,,,,,3,,,70,0
152765,note_on,133,0,1,,,,,,,,,0,,,70,0
152767,note_on,132,0,8,,,,,,,,,7,,,58,0
152808,note_on,43,0,1,,,,,,,,,0,,,70,127
152808,note_on,43,0,2,,,,,,,,,1,,,70,65
152809,note_on,47,0,3,,,,,,,,,2,,,70,65
152810,note_on,45,0,4,,,,,,,,,3,,,70,64
152811,note_on,46,0,5,,,,,,,,,4,,,58,90
152812,note_on,47,0,7,,,,,,,,,6,,,70,127
152812,note_on,45,0,8,,,,,,,,,7,,,58,127
152943,note_on,135,0,1,,,,,,,,,0,,,70,0
152943,note_on,135,0,2,,,,,,,,,1,,,70,0
152944,note_on,135,0,3,,,,,,,,,2,,,70,0
152948,note_on,136,0,8,,,,,,,,,7,,,58,0
152948,note_on,137,0,5,,,,,,,,,4,,,58,0
152948,note_on,136,0,7,,,,,,,,,6,,,70,0
152948,note_on,138,0,4,,,,,,,,,3,,,70,0
152989,note_on,46,0,1,,,,,,,,,0,,,69,127
152990,note_on,47,0,2,,,,,,,,,1,,,69,65
152990,note_on,42,0,8,,,,,,,,,7,,,57,127
152990,note_on,42,0,7,,,,,,,,,6,,,69,127
152990,note_on,42,0,4,,,,,,,,,3,,,69,64
152990,note_on,46,0,3,,,,,,,,,2,,,69,65
152990,note_on,42,0,5,,,,,,,,,4,,,57,90
153030,note_on,40,0,2,,,,,,,,,1,,,69,0
153032,note_on,42,0,3,,,,,,,,,2,,,69,0
153033,note_on,43,0,4,,,,,,,,,3,,,69,0
153034,note_on,44,0,8,,,,,,,,,7,,,57,0
153034,note_on,44,0,7,,,,,,,,,6,,,69,0
153034,note_on,44,0,5,,,,,,,,,4,,,57,0
153052,note_on,63,0,1,,,,,,,,,0,,,69,0
153076,note_on,24,0,1,,,,,,,,,0,,,68,127
153076,note_on,46,0,2,,,,,,,,,1,,,68,65
153076,note_on,44,0,3,,,,,,,,,2,,,68,65
153078,note_on,45,0,4,,,,,,,,,3,,,68,64
153080,note_on,46,0,8,,,,,,,,,7,,,56,127
153080,note_on,46,0,5,,,,,,,,,4,,,56,90
153080,note_on,46,0,7,,,,,,,,,6,,,68,127
153121,note_on,45,0,3,,,,,,,,,2,,,68,0
153121,note_on,45,0,2,,,,,,,,,1,,,68,0
153128,note_on,48,0,7,,,,,,,,,6,,,68,0
153128,note_on,48,0,8,,,,,,,,,7,,,56,0
153128,note_on,48,0,5,,,,,,,,,4,,,56,0
153128,note_on,50,0,4,,,,,,,,,3,,,68,0
153138,note_on,62,0,1,,,,,,,,,0,,,68,0
153164,note_on,26,0,1,,,,,,,,,0,,,69,127
153164,note_on,43,0,2,,,,,,,,,1,,,69,65
153167,note_on,46,0,3,,,,,,,,,2,,,69,65
153169,note_on,8180,0,6,,,,,,,,,5,,,57,90
153169,note_on,41,0,8,,,,,,,,,7,,,57,127
153169,note_on,41,0,7,,,,,,,,,6,,,69,127
153169,note_on,41,0,4,,,,,,,,,3,,,69,64
153169,note_on,41,0,5,,,,,,,,,4,,,57,90
153209,note_on,45,0,2,,,,,,,,,1,,,69,0
153209,note_on,40,0,7,,,,,,,,,6,,,69,0
153209,note_on,40,0,6,,,,,,,,,5,,,57,0
153212,note_on,45,0,3,,,,,,,,,2,,,69,0
153212,note_on,43,0,5,,,,,,,,,4,,,57,0
153212,note_on,43,0,4,,,,,,,,,3,,,69,0
153212,note_on,43,0,8,,,,,,,,,7,,,57,0
153228,note_on,64,0,1,,,,,,,,,0,,,69,0
153252,note_on,24,0,1,,,,,,,,,0,,,71,127
153253,note_on,41,0,3,,,,,,,,,2,,,71,65
153253,note_on,44,0,2,,,,,,,,,1,,,71,65
153256,note_on,44,0,4,,,,,,,,,3,,,71,64
153256,note_on,44,0,5,,,,,,,,,4,,,59,90
153258,note_on,49,0,6,,,,,,,,,5,,,59,90
153258,note_on,49,0,7,,,,,,,,,6,,,71,127
153258,note_on,46,0,8,,,,,,,,,7,,,59,127
153301,note_on,48,0,3,,,,,,,,,2,,,71,0
153301,note_on,48,0,2,,,,,,,,,1,,,71,0
153303,note_on,47,0,4,,,,,,,,,3,,,71,0
153303,note_on,45,0,6,,,,,,,,,5,,,59,0
153303,note_on,47,0,5,,,,,,,,,4,,,59,0
153305,note_on,47,0,8,,,,,,,,,7,,,59,0
153305,note_on,47,0,7,,,,,,,,,6,,,71,0
153315,note_on,63,0,1,,,,,,,,,0,,,71,0
153341,note_on,26,0,1,,,,,,,,,0,,,73,127
153343,note_on,40,0,4,,,,,,,,,3,,,73,64
153343,note_on,42,0,2,,,,,,,,,1,,,73,65
153343,note_on,42,0,3,,,,,,,,,2,,,73,65
153343,note_on,38,0,7,,,,,,,,,6,,,73,127
153343,note_on,38,0,8,,,,,,,,,7,,,61,127
153343,note_on,40,0,5,,,,,,,,,4,,,61,90
153343,note_on,40,0,6,,,,,,,,,5,,,61,90
153385,note_on,42,0,2,,,,,,,,,1,,,73,0
153389,note_on,46,0,4,,,,,,,,,3,,,73,0
153389,note_on,46,0,3,,,,,,,,,2,,,73,0
153389,note_on,46,0,8,,,,,,,,,7,,,61,0
153389,note_on,46,0,7,,,,,,,,,6,,,73,0
153391,note_on,48,0,5,,,,,,,,,4,,,61,0
153391,note_on,48,0,6,,,,,,,,,5,,,61,0
153404,note_on,63,0,1,,,,,,,,,0,,,73,0
153431,note_on,46,0,2,,,,,,,,,1,,,74,65
153431,note_on,27,0,1,,,,,,,,,0,,,74,127
153433,note_on,44,0,3,,,,,,,,,2,,,74,65
153434,note_on,45,0,4,,,,,,,,,3,,,74,64
153434,note_on,45,0,8,,,,,,,,,7,,,62,127
153434,note_on,43,0,6,,,,,,,,,5,,,62,90
153434,note_on,45,0,7,,,,,,,,,6,,,74,127
153434,note_on,43,0,5,,,,,,,,,4,,,62,90
153479,note_on,45,0,4,,,,,,,,,3,,,74,0
153479,note_on,45,0,5,,,,,,,,,4,,,62,0
153479,note_on,48,0,2,,,,,,,,,1,,,74,0
153479,note_on,46,0,3,,,,,,,,,2,,,74,0
153480,note_on,46,0,6,,,,,,,,,5,,,62,0
153482,note_on,48,0,8,,,,,,,,,7,,,62,0
153482,note_on,48,0,7,,,,,,,,,6,,,74,0
153491,note_on,60,0,1,,,,,,,,,0,,,74,0
153520,note_on,41,0,3,,,,,,,,,2,,,76,65
153520,note_on,29,0,1,,,,,,,,,0,,,76,127
153520,note_on,41,0,2,,,,,,,,,1,,,76,65
153520,note_on,41,0,4,,,,,,,,,3,,,76,64
153520,note_on,40,0,6,,,,,,,,,5,,,64,90
153520,note_on,41,0,5,,,,,,,,,4,,,64,90
153521,note_on,39,0,8,,,,,,,,,7,,,64,127
153521,note_on,39,0,7,,,,,,,,,6,,,76,127
153649,note_on,129,0,3,,,,,,,,,2,,,76,0
153651,note_on,131,0,1,,,,,,,,,0,,,76,0
153652,note_on,132,0,2,,,,,,,,,1,,,76,0
153652,note_on,132,0,5,,,,,,,,,4,,,64,0
153654,note_on,133,0,8,,,,,,,,,7,,,64,0
153654,note_on,133,0,7,,,,,,,,,6,,,76,0
153654,note_on,134,0,6,,,,,,,,,5,,,64,0
153654,note_on,134,0,4,,,,,,,,,3,,,76,0
153695,note_on,44,0,1,,,,,,,,,0,,,64,127
153695,note_on,46,0,3,,,,,,,,,2,,,64,65
153695,note_on,43,0,2,,,,,,,,,1,,,64,65
153699,note_on,47,0,5,,,,,,,,,4,,,52,90
153699,note_on,45,0,4,,,,,,,,,3,,,64,64
153700,note_on,46,0,8,,,,,,,,,7,,,52,127
153700,note_on,46,0,6,,,,,,,,,5,,,52,90
153700,note_on,46,0,7,,,,,,,,,6,,,64,127
153825,note_on,130,0,3,,,,,,,,,2,,,64,0
153828,note_on,133,0,1,,,,,,,,,0,,,64,0
153829,note_on,134,0,2,,,,,,,,,1,,,64,0
153829,note_on,130,0,4,,,,,,,,,3,,,64,0
153829,note_on,130,0,5,,,,,,,,,4,,,52,0
153830,note_on,130,0,6,,,,,,,,,5,,,52,0
153831,note_on,131,0,7,,,,,,,,,6,,,64,0
153831,note_on,131,0,8,,,,,,,,,7,,,52,0
153875,note_on,46,0,2,,,,,,,,,1,,,57,65
153875,note_on,46,0,4,,,,,,,,,3,,,57,64
153875,note_on,47,0,1,,,,,,,,,0,,,57,127
153875,note_on,50,0,3,,,,,,,,,2,,,57,65
153877,note_on,48,0,5,,,,,,,,,4,,,45,90
153877,note_on,47,0,6,,,,,,,,,5,,,45,90
153877,note_on,46,0,7,,,,,,,,,6,,,57,127
153877,note_on,46,0,8,,,,,,,,,7,,,45,127
155243,note_on,1366,0,5,,,,,,,,,4,,,45,0
155244,note_on,1367,0,7,,,,,,,,,6,,,57,0
155245,note_on,1370,0,2,,,,,,,,,1,,,57,0
155245,note_on,1370,0,4,,,,,,,,,3,,,57,0
155245,note_on,1370,0,3,,,,,,,,,2,,,57,0
155245,note_on,1370,0,1,,,,,,,,,0,,,57,0
155247,note_on,1370,0,6,,,,,,,,,5,,,45,0
155248,note_on,1371,0,8,,,,,,,,,7,,,45,0
158836,note_on,3588,0,8,,,,,,,,,7,,,57,127
158841,note_on,3598,0,5,,,,,,,,,4,,,57,67
159405,note_on,569,0,8,,,,,,,,,7,,,57,0
159405,note_on,564,0,5,,,,,,,,,4,,,57,0
159411,note_on,4167,0,7,,,,,,,,,6,,,64,127
159411,note_on,6,0,5,,,,,,,,,4,,,45,67
159414,note_on,3,0,7,,,,,,,,,6,,,73,127
159414,note_on,9,0,8,,,,,,,,,7,,,45,127
159841,note_on,427,0,8,,,,,,,,,7,,,45,0
159861,note_on,450,0,5,,,,,,,,,4,,,45,0
159987,note_on,126,0,5,,,,,,,,,4,,,57,67
159987,note_on,146,0,8,,,,,,,,,7,,,57,127
160417,note_on,1003,0,7,,,,,,,,,6,,,73,0
160418,note_on,431,0,8,,,,,,,,,7,,,57,0
160437,note_on,450,0,5,,,,,,,,,4,,,57,0
160564,note_on,127,0,5,,,,,,,,,4,,,61,67
160564,note_on,147,0,7,,,,,,,,,6,,,76,127
160564,note_on,146,0,8,,,,,,,,,7,,,61,127
160995,note_on,431,0,8,,,,,,,,,7,,,61,0
161012,note_on,448,0,5,,,,,,,,,4,,,61,0
161140,note_on,128,0,5,,,,,,,,,4,,,59,67
161140,note_on,145,0,8,,,,,,,,,7,,,59,127
161422,note_on,282,0,5,,,,,,,,,4,,,59,0
161422,note_on,282,0,8,,,,,,,,,7,,,59,0
161428,note_on,6,0,8,,,,,,,,,7,,,57,127
161428,note_on,6,0,5,,,,,,,,,4,,,57,67
161572,note_on,1008,0,7,,,,,,,,,6,,,76,0
161708,note_on,280,0,5,,,,,,,,,4,,,57,0
161708,note_on,280,0,8,,,,,,,,,7,,,57,0
161716,note_on,144,0,7,,,,,,,,,6,,,74,127
161716,note_on,8,0,5,,,,,,,,,4,,,59,67
161716,note_on,8,0,8,,,,,,,,,7,,,59,127
162147,note_on,431,0,8,,,,,,,,,7,,,59,0
162164,note_on,448,0,5,,,,,,,,,4,,,59,0
162292,note_on,145,0,8,,,,,,,,,7,,,52,127
162292,note_on,128,0,5,,,,,,,,,4,,,52,67
162742,note_on,450,0,5,,,,,,,,,4,,,52,0
162796,note_on,504,0,8,,,,,,,,,7,,,52,0
162868,note_on,1152,0,7,,,,,,,,,6,,,64,0
162873,note_on,5,0,7,,,,,,,,,6,,,74,0
163444,note_on,702,0,5,,,,,,,,,4,,,59,67
163444,note_on,648,0,8,,,,,,,,,7,,,59,127
164015,note_on,571,0,5,,,,,,,,,4,,,59,0
164015,note_on,571,0,8,,,,,,,,,7,,,59,0
164022,note_on,7,0,8,,,,,,,,,7,,,52,127
164022,note_on,1149,0,7,,,,,,,,,6,,,68,127
164022,note_on,0,0,7,,,,,,,,,6,,,64,127
164022,note_on,7,0,5,,,,,,,,,4,,,52,67
164453,note_on,431,0,8,,,,,,,,,7,,,52,0
164470,note_on,448,0,5,,,,,,,,,4,,,52,0
164596,note_on,126,0,5,,,,,,,,,4,,,64,65
164596,note_on,143,0,8,,,,,,,,,7,,,64,127
165029,note_on,1007,0,7,,,,,,,,,6,,,68,0
165029,note_on,433,0,8,,,,,,,,,7,,,64,0
165047,note_on,451,0,5,,,,,,,,,4,,,64,0
165172,note_on,125,0,5,,,,,,,,,4,,,62,65
165174,note_on,145,0,7,,,,,,,,,6,,,71,127
165174,note_on,145,0,8,,,,,,,,,7,,,62,127
165605,note_on,431,0,8,,,,,,,,,7,,,62,0
165621,note_on,449,0,5,,,,,,,,,4,,,62,0
165748,note_on,127,0,5,,,,,,,,,4,,,61,65
165748,note_on,143,0,8,,,,,,,,,7,,,61,127
166028,note_on,280,0,5,,,,,,,,,4,,,61,0
166029,note_on,281,0,8,,,,,,,,,7,,,61,0
166036,note_on,8,0,5,,,,,,,,,4,,,59,65
166037,note_on,8,0,8,,,,,,,,,7,,,59,127
166181,note_on,1007,0,7,,,,,,,,,6,,,71,0
166317,note_on,281,0,5,,,,,,,,,4,,,59,0
166318,note_on,281,0,8,,,,,,,,,7,,,59,0
166326,note_on,8,0,8,,,,,,,,,7,,,61,127
166326,note_on,9,0,5,,,,,,,,,4,,,61,65
166326,note_on,145,0,7,,,,,,,,,6,,,69,127
166756,note_on,430,0,8,,,,,,,,,7,,,61,0
166775,note_on,449,0,5,,,,,,,,,4,,,61,0
166901,note_on,126,0,5,,,,,,,,,4,,,45,65
166902,note_on,146,0,8,,,,,,,,,7,,,45,127
167333,note_on,1007,0,7,,,,,,,,,6,,,69,0
167351,note_on,450,0,5,,,,,,,,,4,,,45,0
167406,note_on,504,0,8,,,,,,,,,7,,,45,0
167478,note_on,0,0,7,,,,,,,,,6,,,64,127
167478,note_on,0,0,7,,,,,,,,,6,,,76,127
167478,note_on,145,0,7,,,,,,,,,6,,,64,0
168053,note_on,702,0,5,,,,,,,,,4,,,64,65
168055,note_on,649,0,8,,,,,,,,,7,,,64,127
168624,note_on,569,0,8,,,,,,,,,7,,,64,0
168624,note_on,571,0,5,,,,,,,,,4,,,64,0
168631,note_on,7,0,5,,,,,,,,,4,,,62,65
168631,note_on,7,0,8,,,,,,,,,7,,,62,127
168912,note_on,281,0,8,,,,,,,,,7,,,62,0
168912,note_on,281,0,5,,,,,,,,,4,,,62,0
168917,note_on,5,0,5,,,,,,,,,4,,,49,66
168919,note_on,7,0,8,,,,,,,,,7,,,52,127
169200,note_on,283,0,5,,,,,,,,,4,,,49,0
169200,note_on,281,0,8,,,,,,,,,7,,,52,0
169206,note_on,6,0,5,,,,,,,,,4,,,62,66
169206,note_on,6,0,8,,,,,,,,,7,,,62,127
169638,note_on,2160,0,7,,,,,,,,,6,,,64,0
169644,note_on,6,0,7,,,,,,,,,6,,,76,0
169711,note_on,505,0,5,,,,,,,,,4,,,62,0
169711,note_on,505,0,8,,,,,,,,,7,,,62,0
169782,note_on,0,0,7,,,,,,,,,6,,,64,127
169782,note_on,138,0,7,,,,,,,,,6,,,76,127
170359,note_on,648,0,5,,,,,,,,,4,,,62,66
170359,note_on,648,0,8,,,,,,,,,7,,,62,127
170790,note_on,431,0,5,,,,,,,,,4,,,62,0
170927,note_on,568,0,8,,,,,,,,,7,,,62,0
170932,note_on,142,0,5,,,,,,,,,4,,,61,66
170933,note_on,6,0,8,,,,,,,,,7,,,61,127
171215,note_on,283,0,5,,,,,,,,,4,,,61,0
171215,note_on,282,0,8,,,,,,,,,7,,,61,0
171221,note_on,6,0,5,,,,,,,,,4,,,52,66
171221,note_on,6,0,8,,,,,,,,,7,,,52,127
171506,note_on,285,0,8,,,,,,,,,7,,,52,0
171506,note_on,285,0,5,,,,,,,,,4,,,52,0
171511,note_on,5,0,5,,,,,,,,,4,,,61,66
171511,note_on,5,0,8,,,,,,,,,7,,,61,127
171942,note_on,2160,0,7,,,,,,,,,6,,,64,0
171948,note_on,6,0,7,,,,,,,,,6,,,76,0
172013,note_on,502,0,5,,,,,,,,,4,,,61,0
172013,note_on,502,0,8,,,,,,,,,7,,,61,0
172087,note_on,139,0,7,,,,,,,,,6,,,76,127
172087,note_on,0,0,7,,,,,,,,,6,,,64,127
172662,note_on,649,0,5,,,,,,,,,4,,,61,66
172662,note_on,649,0,8,,,,,,,,,7,,,61,127
173095,note_on,433,0,5,,,,,,,,,4,,,61,0
173233,note_on,571,0,8,,,,,,,,,7,,,61,0
173238,note_on,143,0,5,,,,,,,,,4,,,59,67
173240,note_on,7,0,8,,,,,,,,,7,,,59,127
173521,note_on,283,0,5,,,,,,,,,4,,,59,0
173521,note_on,281,0,8,,,,,,,,,7,,,59,0
173528,note_on,7,0,5,,,,,,,,,4,,,52,67
173528,note_on,7,0,8,,,,,,,,,7,,,52,127
173808,note_on,280,0,5,,,,,,,,,4,,,52,0
173808,note_on,280,0,8,,,,,,,,,7,,,52,0
173815,note_on,7,0,5,,,,,,,,,4,,,59,67
173816,note_on,8,0,8,,,,,,,,,7,,,59,127
174320,note_on,504,0,8,,,,,,,,,7,,,59,0
174320,note_on,505,0,5,,,,,,,,,4,,,59,0
174391,note_on,0,0,7,,,,,,,,,6,,,64,127
174391,note_on,0,0,7,,,,,,,,,6,,,74,127
174391,note_on,2304,0,7,,,,,,,,,6,,,64,0
174396,note_on,5,0,7,,,,,,,,,6,,,76,0
174967,note_on,647,0,8,,,,,,,,,7,,,59,127
174967,note_on,647,0,5,,,,,,,,,4,,,59,67
175399,note_on,432,0,5,,,,,,,,,4,,,59,0
175536,note_on,569,0,8,,,,,,,,,7,,,59,0
175542,note_on,143,0,5,,,,,,,,,4,,,57,67
175543,note_on,1147,0,7,,,,,,,,,6,,,73,127
175544,note_on,8,0,8,,,,,,,,,7,,,57,127
175639,note_on,96,0,7,,,,,,,,,6,,,74,0
175975,note_on,336,0,7,,,,,,,,,6,,,73,0
175975,note_on,433,0,5,,,,,,,,,4,,,57,0
176045,note_on,501,0,8,,,,,,,,,7,,,57,0
176120,note_on,0,0,7,,,,,,,,,6,,,66,127
176120,note_on,0,0,7,,,,,,,,,6,,,69,127
176120,note_on,145,0,7,,,,,,,,,6,,,74,127
176120,note_on,145,0,5,,,,,,,,,4,,,62,67
176120,note_on,75,0,8,,,,,,,,,7,,,62,127
176552,note_on,432,0,5,,,,,,,,,4,,,62,0
176552,note_on,432,0,7,,,,,,,,,6,,,66,0
176557,note_on,5,0,7,,,,,,,,,6,,,69,0
176563,note_on,6,0,7,,,,,,,,,6,,,74,0
176622,note_on,502,0,8,,,,,,,,,7,,,62,0
176696,note_on,144,0,5,,,,,,,,,4,,,64,67
176697,note_on,75,0,8,,,,,,,,,7,,,64,127
176697,note_on,134,0,7,,,,,,,,,6,,,64,0
176697,note_on,0,0,7,,,,,,,,,6,,,64,127
176697,note_on,0,0,7,,,,,,,,,6,,,68,127
176697,note_on,0,0,7,,,,,,,,,6,,,71,127
177127,note_on,431,0,5,,,,,,,,,4,,,64,0
177197,note_on,500,0,8,,,,,,,,,7,,,64,0
177272,note_on,145,0,5,,,,,,,,,4,,,52,67
177272,note_on,75,0,8,,,,,,,,,7,,,52,127
177703,note_on,431,0,5,,,,,,,,,4,,,52,0
177703,note_on,1006,0,7,,,,,,,,,6,,,64,0
177709,note_on,6,0,7,,,,,,,,,6,,,68,0
177715,note_on,6,0,7,,,,,,,,,6,,,71,0
177775,note_on,503,0,8,,,,,,,,,7,,,52,0
177848,note_on,73,0,8,,,,,,,,,7,,,45,127
177848,note_on,0,0,7,,,,,,,,,6,,,64,127
177848,note_on,133,0,7,,,,,,,,,6,,,69,127
177848,note_on,145,0,5,,,,,,,,,4,,,45,65
177848,note_on,0,0,7,,,,,,,,,6,,,61,127
179000,note_on,1152,0,7,,,,,,,,,6,,,61,0
179000,note_on,1152,0,5,,,,,,,,,4,,,45,0
179000,note_on,1152,0,8,,,,,,,,,7,,,45,0
179005,note_on,5,0,7,,,,,,,,,6,,,64,0
179012,note_on,7,0,7,,,,,,,,,6,,,69,0
179576,note_on,576,0,5,,,,,,,,,4,,,45,75
179576,note_on,24331,0,1,,,,,,,,,0,,,76,127
179578,note_on,578,0,8,,,,,,,,,7,,,45,127
180007,note_on,429,0,8,,,,,,,,,7,,,45,0
180007,note_on,431,0,5,,,,,,,,,4,,,45,0
180145,note_on,569,0,1,,,,,,,,,0,,,76,0
180153,note_on,146,0,5,,,,,,,,,4,,,45,75
180153,note_on,8,0,1,,,,,,,,,0,,,73,127
180153,note_on,146,0,8,,,,,,,,,7,,,45,127
180153,note_on,0,0,7,,,,,,,,,6,,,69,127
180153,note_on,1141,0,7,,,,,,,,,6,,,73,127
180337,note_on,184,0,1,,,,,,,,,0,,,73,0
180344,note_on,7,0,1,,,,,,,,,0,,,71,127
180532,note_on,188,0,1,,,,,,,,,0,,,71,0
180537,note_on,5,0,1,,,,,,,,,0,,,69,127
180583,note_on,430,0,8,,,,,,,,,7,,,45,0
180583,note_on,430,0,5,,,,,,,,,4,,,45,0
180722,note_on,185,0,1,,,,,,,,,0,,,69,0
180729,note_on,7,0,1,,,,,,,,,0,,,76,127
180729,note_on,146,0,8,,,,,,,,,7,,,45,127
180729,note_on,146,0,5,,,,,,,,,4,,,45,75
180912,note_on,183,0,1,,,,,,,,,0,,,76,0
180921,note_on,9,0,1,,,,,,,,,0,,,78,127
181105,note_on,184,0,1,,,,,,,,,0,,,78,0
181112,note_on,7,0,1,,,,,,,,,0,,,80,127
181161,note_on,432,0,5,,,,,,,,,4,,,45,0
181161,note_on,432,0,8,,,,,,,,,7,,,45,0
181297,note_on,185,0,1,,,,,,,,,0,,,80,0
181304,note_on,7,0,1,,,,,,,,,0,,,81,127
181306,note_on,145,0,5,,,,,,,,,4,,,45,75
181306,note_on,145,0,8,,,,,,,,,7,,,45,127
181736,note_on,430,0,5,,,,,,,,,4,,,45,0
181736,note_on,430,0,8,,,,,,,,,7,,,45,0
181873,note_on,569,0,1,,,,,,,,,0,,,81,0
181881,note_on,145,0,5,,,,,,,,,4,,,45,75
181881,note_on,145,0,8,,,,,,,,,7,,,45,127
181881,note_on,8,0,1,,,,,,,,,0,,,73,127
182314,note_on,2161,0,7,,,,,,,,,6,,,69,0
182314,note_on,433,0,5,,,,,,,,,4,,,45,0
182314,note_on,433,0,8,,,,,,,,,7,,,45,0
182319,note_on,5,0,7,,,,,,,,,6,,,73,0
182449,note_on,568,0,1,,,,,,,,,0,,,73,0
182457,note_on,8,0,1,,,,,,,,,0,,,73,127
182458,note_on,144,0,5,,,,,,,,,4,,,52,75
182458,note_on,139,0,7,,,,,,,,,6,,,73,127
182458,note_on,144,0,8,,,,,,,,,7,,,52,127
182458,note_on,0,0,7,,,,,,,,,6,,,69,127
182889,note_on,431,0,5,,,,,,,,,4,,,52,0
182889,note_on,431,0,7,,,,,,,,,6,,,69,0
182890,note_on,432,0,8,,,,,,,,,7,,,52,0
182895,note_on,6,0,7,,,,,,,,,6,,,73,0
183026,note_on,569,0,1,,,,,,,,,0,,,73,0
183033,note_on,7,0,1,,,,,,,,,0,,,71,127
183033,note_on,144,0,5,,,,,,,,,4,,,40,75
183035,note_on,140,0,7,,,,,,,,,6,,,71,127
183035,note_on,0,0,7,,,,,,,,,6,,,68,127
183035,note_on,145,0,8,,,,,,,,,7,,,40,127
183534,note_on,501,0,5,,,,,,,,,4,,,40,0
183535,note_on,500,0,7,,,,,,,,,6,,,68,0
183535,note_on,500,0,8,,,,,,,,,7,,,40,0
183543,note_on,8,0,7,,,,,,,,,6,,,71,0
183609,note_on,576,0,1,,,,,,,,,0,,,71,0
184185,note_on,650,0,8,,,,,,,,,7,,,52,127
184185,note_on,651,0,5,,,,,,,,,4,,,52,75
184185,note_on,576,0,1,,,,,,,,,0,,,71,127
184616,note_on,431,0,5,,,,,,,,,4,,,52,0
184616,note_on,431,0,8,,,,,,,,,7,,,52,0
184753,note_on,568,0,1,,,,,,,,,0,,,71,0
184763,note_on,10,0,1,,,,,,,,,0,,,68,127
184763,note_on,0,0,7,,,,,,,,,6,,,68,127
184763,note_on,1220,0,7,,,,,,,,,6,,,71,127
184763,note_on,147,0,5,,,,,,,,,4,,,52,75
184765,note_on,149,0,8,,,,,,,,,7,,,52,127
184945,note_on,182,0,1,,,,,,,,,0,,,68,0
184952,note_on,7,0,1,,,,,,,,,0,,,66,127
185139,note_on,187,0,1,,,,,,,,,0,,,66,0
185146,note_on,7,0,1,,,,,,,,,0,,,64,127
185194,note_on,429,0,8,,,,,,,,,7,,,52,0
185194,note_on,431,0,5,,,,,,,,,4,,,52,0
185330,note_on,184,0,1,,,,,,,,,0,,,64,0
185338,note_on,144,0,8,,,,,,,,,7,,,52,127
185338,note_on,144,0,5,,,,,,,,,4,,,52,75
185338,note_on,8,0,1,,,,,,,,,0,,,71,127
185524,note_on,186,0,1,,,,,,,,,0,,,71,0
185530,note_on,6,0,1,,,,,,,,,0,,,69,127
185713,note_on,183,0,1,,,,,,,,,0,,,69,0
185721,note_on,8,0,1,,,,,,,,,0,,,68,127
185769,note_on,431,0,8,,,,,,,,,7,,,52,0
185769,note_on,431,0,5,,,,,,,,,4,,,52,0
185908,note_on,187,0,1,,,,,,,,,0,,,68,0
185915,note_on,146,0,8,,,,,,,,,7,,,52,127
185915,note_on,7,0,1,,,,,,,,,0,,,83,127
185915,note_on,146,0,5,,,,,,,,,4,,,52,75
186099,note_on,184,0,1,,,,,,,,,0,,,83,0
186106,note_on,7,0,1,,,,,,,,,0,,,81,127
186291,note_on,185,0,1,,,,,,,,,0,,,81,0
186297,note_on,6,0,1,,,,,,,,,0,,,80,127
186345,note_on,430,0,5,,,,,,,,,4,,,52,0
186345,note_on,430,0,8,,,,,,,,,7,,,52,0
186484,note_on,187,0,1,,,,,,,,,0,,,80,0
186491,note_on,7,0,1,,,,,,,,,0,,,78,127
186491,note_on,146,0,5,,,,,,,,,4,,,52,75
186491,note_on,146,0,8,,,,,,,,,7,,,52,127
186675,note_on,184,0,1,,,,,,,,,0,,,78,0
186682,note_on,7,0,1,,,,,,,,,0,,,76,127
186865,note_on,183,0,1,,,,,,,,,0,,,76,0
186874,note_on,9,0,1,,,,,,,,,0,,,74,127
186923,note_on,2160,0,7,,,,,,,,,6,,,68,0
186923,note_on,432,0,5,,,,,,,,,4,,,52,0
186923,note_on,432,0,8,,,,,,,,,7,,,52,0
186928,note_on,5,0,7,,,,,,,,,6,,,71,0
187058,note_on,184,0,1,,,,,,,,,0,,,74,0
187065,note_on,7,0,1,,,,,,,,,0,,,74,127
187066,note_on,138,0,7,,,,,,,,,6,,,74,127
187066,note_on,143,0,8,,,,,,,,,7,,,57,127
187066,note_on,143,0,5,,,,,,,,,4,,,57,75
187066,note_on,0,0,7,,,,,,,,,6,,,64,127
187498,note_on,432,0,5,,,,,,,,,4,,,57,0
187498,note_on,432,0,7,,,,,,,,,6,,,74,0
187498,note_on,432,0,8,,,,,,,,,7,,,57,0
187634,note_on,569,0,1,,,,,,,,,0,,,74,0
187640,note_on,142,0,5,,,,,,,,,4,,,45,75
187640,note_on,6,0,1,,,,,,,,,0,,,73,127
187640,note_on,142,0,7,,,,,,,,,6,,,73,127
187641,note_on,143,0,8,,,,,,,,,7,,,45,127
188144,note_on,504,0,7,,,,,,,,,6,,,73,0
188144,note_on,504,0,5,,,,,,,,,4,,,45,0
188145,note_on,504,0,8,,,,,,,,,7,,,45,0
188217,note_on,73,0,7,,,,,,,,,6,,,64,0
188272,note_on,632,0,1,,,,,,,,,0,,,73,0
188794,note_on,650,0,5,,,,,,,,,4,,,45,75
188794,note_on,522,0,1,,,,,,,,,0,,,73,127
188795,note_on,650,0,8,,,,,,,,,7,,,45,127
189227,note_on,432,0,8,,,,,,,,,7,,,45,0
189227,note_on,433,0,5,,,,,,,,,4,,,45,0
189364,note_on,570,0,1,,,,,,,,,0,,,73,0
189369,note_on,5,0,1,,,,,,,,,0,,,69,127
189371,note_on,1154,0,7,,,,,,,,,6,,,76,127
189371,note_on,0,0,7,,,,,,,,,6,,,73,127
189371,note_on,144,0,8,,,,,,,,,7,,,45,127
189371,note_on,144,0,5,,,,,,,,,4,,,45,75
189555,note_on,186,0,1,,,,,,,,,0,,,69,0
189561,note_on,6,0,1,,,,,,,,,0,,,68,127
189748,note_on,187,0,1,,,,,,,,,0,,,68,0
189755,note_on,7,0,1,,,,,,,,,0,,,66,127
189802,note_on,431,0,5,,,,,,,,,4,,,45,0
189802,note_on,431,0,8,,,,,,,,,7,,,45,0
189937,note_on,182,0,1,,,,,,,,,0,,,66,0
189947,note_on,145,0,8,,,,,,,,,7,,,45,127
189947,note_on,10,0,1,,,,,,,,,0,,,73,127
189947,note_on,145,0,5,,,,,,,,,4,,,45,75
190133,note_on,186,0,1,,,,,,,,,0,,,73,0
190139,note_on,6,0,1,,,,,,,,,0,,,71,127
190325,note_on,186,0,1,,,,,,,,,0,,,71,0
190331,note_on,6,0,1,,,,,,,,,0,,,69,127
190379,note_on,432,0,5,,,,,,,,,4,,,45,0
190379,note_on,432,0,8,,,,,,,,,7,,,45,0
190516,note_on,185,0,1,,,,,,,,,0,,,69,0
190523,note_on,144,0,5,,,,,,,,,4,,,45,76
190523,note_on,7,0,1,,,,,,,,,0,,,85,127
190523,note_on,144,0,8,,,,,,,,,7,,,45,127
190708,note_on,185,0,1,,,,,,,,,0,,,85,0
190715,note_on,7,0,1,,,,,,,,,0,,,83,127
190900,note_on,185,0,1,,,,,,,,,0,,,83,0
190905,note_on,5,0,1,,,,,,,,,0,,,81,127
190952,note_on,429,0,5,,,,,,,,,4,,,45,0
190953,note_on,430,0,8,,,,,,,,,7,,,45,0
191092,note_on,187,0,1,,,,,,,,,0,,,81,0
191100,note_on,148,0,5,,,,,,,,,4,,,45,76
191100,note_on,8,0,1,,,,,,,,,0,,,80,127
191100,note_on,147,0,8,,,,,,,,,7,,,45,127
191284,note_on,184,0,1,,,,,,,,,0,,,80,0
191291,note_on,7,0,1,,,,,,,,,0,,,78,127
191474,note_on,183,0,1,,,,,,,,,0,,,78,0
191483,note_on,9,0,1,,,,,,,,,0,,,76,127
191532,note_on,432,0,8,,,,,,,,,7,,,45,0
191532,note_on,432,0,5,,,,,,,,,4,,,45,0
191532,note_on,2161,0,7,,,,,,,,,6,,,73,0
191535,note_on,3,0,7,,,,,,,,,6,,,76,0
191667,note_on,184,0,1,,,,,,,,,0,,,76,0
191676,note_on,141,0,7,,,,,,,,,6,,,66,127
191676,note_on,9,0,1,,,,,,,,,0,,,76,127
191676,note_on,144,0,5,,,,,,,,,4,,,47,76
191678,note_on,2,0,7,,,,,,,,,6,,,76,127
191678,note_on,146,0,8,,,,,,,,,7,,,47,127
192107,note_on,431,0,5,,,,,,,,,4,,,47,0
192108,note_on,430,0,8,,,,,,,,,7,,,47,0
192108,note_on,430,0,7,,,,,,,,,6,,,76,0
192244,note_on,568,0,1,,,,,,,,,0,,,76,0
192251,note_on,7,0,1,,,,,,,,,0,,,75,127
192252,note_on,144,0,8,,,,,,,,,7,,,48,127
192252,note_on,144,0,7,,,,,,,,,6,,,75,127
192252,note_on,145,0,5,,,,,,,,,4,,,47,76
192755,note_on,503,0,5,,,,,,,,,4,,,47,0
192756,note_on,504,0,8,,,,,,,,,7,,,48,0
192756,note_on,504,0,7,,,,,,,,,6,,,75,0
192827,note_on,71,0,7,,,,,,,,,6,,,66,0
192880,note_on,629,0,1,,,,,,,,,0,,,75,0
193403,note_on,648,0,5,,,,,,,,,4,,,51,76
193403,note_on,576,0,7,,,,,,,,,6,,,71,127
193403,note_on,523,0,1,,,,,,,,,0,,,81,127
193403,note_on,0,0,7,,,,,,,,,6,,,66,127
193404,note_on,648,0,8,,,,,,,,,7,,,51,127
193836,note_on,433,0,5,,,,,,,,,4,,,51,0
193836,note_on,433,0,7,,,,,,,,,6,,,66,0
193837,note_on,433,0,8,,,,,,,,,7,,,51,0
193841,note_on,5,0,7,,,,,,,,,6,,,71,0
193846,note_on,443,0,1,,,,,,,,,0,,,81,0
193982,note_on,141,0,7,,,,,,,,,6,,,68,127
193982,note_on,145,0,8,,,,,,,,,7,,,52,127
193982,note_on,136,0,1,,,,,,,,,0,,,80,127
193982,note_on,0,0,7,,,,,,,,,6,,,64,127
193982,note_on,146,0,5,,,,,,,,,4,,,52,76
194163,note_on,181,0,1,,,,,,,,,0,,,80,0
194171,note_on,8,0,1,,,,,,,,,0,,,83,127
194358,note_on,187,0,1,,,,,,,,,0,,,83,0
194363,note_on,5,0,1,,,,,,,,,0,,,81,127
194412,note_on,430,0,5,,,,,,,,,4,,,52,0
194412,note_on,430,0,8,,,,,,,,,7,,,52,0
194549,note_on,186,0,1,,,,,,,,,0,,,81,0
194555,note_on,6,0,1,,,,,,,,,0,,,80,127
194557,note_on,145,0,5,,,,,,,,,4,,,52,76
194557,note_on,145,0,8,,,,,,,,,7,,,52,127
194742,note_on,187,0,1,,,,,,,,,0,,,80,0
194747,note_on,5,0,1,,,,,,,,,0,,,78,127
194934,note_on,187,0,1,,,,,,,,,0,,,78,0
194939,note_on,5,0,1,,,,,,,,,0,,,76,127
194986,note_on,429,0,5,,,,,,,,,4,,,52,0
194988,note_on,1006,0,7,,,,,,,,,6,,,64,0
194988,note_on,431,0,8,,,,,,,,,7,,,52,0
194991,note_on,3,0,7,,,,,,,,,6,,,68,0
195123,note_on,184,0,1,,,,,,,,,0,,,76,0
195131,note_on,145,0,5,,,,,,,,,4,,,59,76
195131,note_on,8,0,1,,,,,,,,,0,,,78,127
195132,note_on,0,0,7,,,,,,,,,6,,,64,127
195132,note_on,144,0,8,,,,,,,,,7,,,59,127
195132,note_on,141,0,7,,,,,,,,,6,,,66,127
195564,note_on,432,0,7,,,,,,,,,6,,,64,0
195564,note_on,433,0,5,,,,,,,,,4,,,59,0
195566,note_on,434,0,8,,,,,,,,,7,,,59,0
195708,note_on,144,0,5,,,,,,,,,4,,,47,76
195708,note_on,142,0,8,,,,,,,,,7,,,47,127
195708,note_on,144,0,7,,,,,,,,,6,,,63,127
195948,note_on,817,0,1,,,,,,,,,0,,,78,0
195995,note_on,47,0,1,,,,,,,,,0,,,76,127
196140,note_on,432,0,7,,,,,,,,,6,,,63,0
196140,note_on,432,0,8,,,,,,,,,7,,,47,0
196140,note_on,432,0,5,,,,,,,,,4,,,47,0
196275,note_on,280,0,1,,,,,,,,,0,,,76,0
196284,note_on,9,0,1,,,,,,,,,0,,,76,127
196286,note_on,0,0,7,,,,,,,,,6,,,56,127
196286,note_on,0,0,7,,,,,,,,,6,,,59,127
196286,note_on,146,0,8,,,,,,,,,7,,,52,127
196286,note_on,146,0,7,,,,,,,,,6,,,64,127
196286,note_on,146,0,5,,,,,,,,,4,,,52,76
196291,note_on,5,0,7,,,,,,,,,6,,,66,0
196717,note_on,431,0,8,,,,,,,,,7,,,52,0
196717,note_on,431,0,5,,,,,,,,,4,,,52,0
196860,note_on,143,0,8,,,,,,,,,7,,,54,127
196860,note_on,143,0,5,,,,,,,,,4,,,54,76
197293,note_on,433,0,8,,,,,,,,,7,,,54,0
197293,note_on,433,0,5,,,,,,,,,4,,,54,0
197438,note_on,145,0,5,,,,,,,,,4,,,52,76
197438,note_on,145,0,8,,,,,,,,,7,,,52,127
197438,note_on,1154,0,1,,,,,,,,,0,,,76,0
197869,note_on,431,0,5,,,,,,,,,4,,,52,0
197869,note_on,431,0,8,,,,,,,,,7,,,52,0
198011,note_on,573,0,1,,,,,,,,,0,,,76,127
198012,note_on,143,0,5,,,,,,,,,4,,,50,76
198013,note_on,144,0,8,,,,,,,,,7,,,50,127
198444,note_on,432,0,5,,,,,,,,,4,,,50,0
198445,note_on,432,0,8,,,,,,,,,7,,,50,0
198445,note_on,2154,0,7,,,,,,,,,6,,,56,0
198450,note_on,5,0,7,,,,,,,,,6,,,59,0
198456,note_on,6,0,7,,,,,,,,,6,,,64,0
198583,note_on,572,0,1,,,,,,,,,0,,,76,0
198588,note_on,5,0,1,,,,,,,,,0,,,81,127
198589,note_on,145,0,5,,,,,,,,,4,,,49,76
198589,note_on,133,0,7,,,,,,,,,6,,,64,127
198589,note_on,0,0,7,,,,,,,,,6,,,57,127
198590,note_on,145,0,8,,,,,,,,,7,,,49,127
198772,note_on,184,0,1,,,,,,,,,0,,,81,0
198780,note_on,8,0,1,,,,,,,,,0,,,76,127
198967,note_on,187,0,1,,,,,,,,,0,,,76,0
198972,note_on,5,0,1,,,,,,,,,0,,,74,127
199021,note_on,432,0,5,,,,,,,,,4,,,49,0
199021,note_on,431,0,8,,,,,,,,,7,,,49,0
199159,note_on,187,0,1,,,,,,,,,0,,,74,0
199166,note_on,7,0,1,,,,,,,,,0,,,73,127
199166,note_on,145,0,8,,,,,,,,,7,,,49,127
199166,note_on,145,0,5,,,,,,,,,4,,,49,76
199350,note_on,184,0,1,,,,,,,,,0,,,73,0
199356,note_on,6,0,1,,,,,,,,,0,,,71,127
199542,note_on,186,0,1,,,,,,,,,0,,,71,0
199549,note_on,7,0,1,,,,,,,,,0,,,69,127
199598,note_on,432,0,5,,,,,,,,,4,,,49,0
199598,note_on,432,0,8,,,,,,,,,7,,,49,0
199733,note_on,184,0,1,,,,,,,,,0,,,69,0
199738,note_on,5,0,1,,,,,,,,,0,,,81,127
199740,note_on,142,0,5,,,,,,,,,4,,,49,76
199740,note_on,142,0,8,,,,,,,,,7,,,49,127
199926,note_on,188,0,1,,,,,,,,,0,,,81,0
199932,note_on,6,0,1,,,,,,,,,0,,,76,127
200116,note_on,184,0,1,,,,,,,,,0,,,76,0
200124,note_on,8,0,1,,,,,,,,,0,,,74,127
200173,note_on,433,0,5,,,,,,,,,4,,,49,0
200173,note_on,433,0,8,,,,,,,,,7,,,49,0
200311,note_on,187,0,1,,,,,,,,,0,,,74,0
200318,note_on,145,0,8,,,,,,,,,7,,,49,127
200318,note_on,7,0,1,,,,,,,,,0,,,73,127
200318,note_on,145,0,5,,,,,,,,,4,,,49,76
200500,note_on,182,0,1,,,,,,,,,0,,,73,0
200509,note_on,9,0,1,,,,,,,,,0,,,71,127
200696,note_on,187,0,1,,,,,,,,,0,,,71,0
200701,note_on,5,0,1,,,,,,,,,0,,,69,127
200749,note_on,431,0,8,,,,,,,,,7,,,49,0
200749,note_on,2160,0,7,,,,,,,,,6,,,57,0
200749,note_on,431,0,5,,,,,,,,,4,,,49,0
200755,note_on,6,0,7,,,,,,,,,6,,,64,0
200887,note_on,186,0,1,,,,,,,,,0,,,69,0
200894,note_on,7,0,1,,,,,,,,,0,,,79,127
200894,note_on,139,0,7,,,,,,,,,6,,,61,127
200894,note_on,145,0,5,,,,,,,,,4,,,45,76
200895,note_on,1,0,7,,,,,,,,,6,,,67,127
200895,note_on,0,0,7,,,,,,,,,6,,,64,127
200895,note_on,146,0,8,,,,,,,,,7,,,45,127
201078,note_on,184,0,1,,,,,,,,,0,,,79,0
201085,note_on,7,0,1,,,,,,,,,0,,,76,127
201269,note_on,184,0,1,,,,,,,,,0,,,76,0
201276,note_on,7,0,1,,,,,,,,,0,,,74,127
201325,note_on,431,0,5,,,,,,,,,4,,,45,0
201325,note_on,430,0,8,,,,,,,,,7,,,45,0
201461,note_on,185,0,1,,,,,,,,,0,,,74,0
201467,note_on,6,0,1,,,,,,,,,0,,,73,127
201467,note_on,142,0,5,,,,,,,,,4,,,45,76
201468,note_on,143,0,8,,,,,,,,,7,,,45,127
201656,note_on,189,0,1,,,,,,,,,0,,,73,0
201662,note_on,6,0,1,,,,,,,,,0,,,71,127
201846,note_on,184,0,1,,,,,,,,,0,,,71,0
201852,note_on,6,0,1,,,,,,,,,0,,,69,127
201901,note_on,433,0,8,,,,,,,,,7,,,45,0
201901,note_on,434,0,5,,,,,,,,,4,,,45,0
202040,note_on,188,0,1,,,,,,,,,0,,,69,0
202046,note_on,6,0,1,,,,,,,,,0,,,81,127
202046,note_on,145,0,5,,,,,,,,,4,,,45,76
202047,note_on,146,0,8,,,,,,,,,7,,,45,127
202477,note_on,430,0,8,,,,,,,,,7,,,45,0
202477,note_on,431,0,5,,,,,,,,,4,,,45,0
202612,note_on,566,0,1,,,,,,,,,0,,,81,0
202620,note_on,143,0,5,,,,,,,,,4,,,45,76
202620,note_on,8,0,1,,,,,,,,,0,,,79,127
202621,note_on,144,0,8,,,,,,,,,7,,,45,127
203054,note_on,434,0,5,,,,,,,,,4,,,45,0
203054,note_on,2159,0,7,,,,,,,,,6,,,61,0
203056,note_on,435,0,8,,,,,,,,,7,,,45,0
203059,note_on,5,0,7,,,,,,,,,6,,,64,0
203064,note_on,5,0,7,,,,,,,,,6,,,67,0
203192,note_on,572,0,1,,,,,,,,,0,,,79,0
203196,note_on,142,0,5,,,,,,,,,4,,,50,77
203196,note_on,132,0,7,,,,,,,,,6,,,57,127
203196,note_on,4,0,1,,,,,,,,,0,,,79,127
203197,note_on,1,0,7,,,,,,,,,6,,,67,127
203197,note_on,0,0,7,,,,,,,,,6,,,62,127
203198,note_on,142,0,8,,,,,,,,,7,,,50,127
203629,note_on,433,0,5,,,,,,,,,4,,,50,0
203630,note_on,433,0,7,,,,,,,,,6,,,67,0
203630,note_on,432,0,8,,,,,,,,,7,,,50,0
203768,note_on,572,0,1,,,,,,,,,0,,,79,0
203775,note_on,146,0,5,,,,,,,,,4,,,38,77
203775,note_on,7,0,1,,,,,,,,,0,,,78,127
203775,note_on,145,0,7,,,,,,,,,6,,,66,127
203775,note_on,145,0,8,,,,,,,,,7,,,38,127
204205,note_on,430,0,7,,,,,,,,,6,,,57,0
204211,note_on,6,0,7,,,,,,,,,6,,,62,0
204278,note_on,503,0,5,,,,,,,,,4,,,38,0
204279,note_on,68,0,7,,,,,,,,,6,,,66,0
204279,note_on,504,0,8,,,,,,,,,7,,,38,0
204350,note_on,575,0,1,,,,,,,,,0,,,78,0
204924,note_on,574,0,1,,,,,,,,,0,,,78,127
204926,note_on,0,0,7,,,,,,,,,6,,,69,127
204926,note_on,647,0,8,,,,,,,,,7,,,51,127
204926,note_on,647,0,7,,,,,,,,,6,,,71,127
204926,note_on,648,0,5,,,,,,,,,4,,,51,77
205357,note_on,431,0,5,,,,,,,,,4,,,51,0
205359,note_on,433,0,8,,,,,,,,,7,,,51,0
205359,note_on,433,0,7,,,,,,,,,6,,,69,0
205364,note_on,5,0,7,,,,,,,,,6,,,71,0
205496,note_on,572,0,1,,,,,,,,,0,,,78,0
205503,note_on,139,0,7,,,,,,,,,6,,,71,127
205503,note_on,0,0,7,,,,,,,,,6,,,66,127
205503,note_on,7,0,1,,,,,,,,,0,,,83,127
205503,note_on,146,0,5,,,,,,,,,4,,,51,77
205506,note_on,147,0,8,,,,,,,,,7,,,51,127
205688,note_on,185,0,1,,,,,,,,,0,,,83,0
205694,note_on,6,0,1,,,,,,,,,0,,,78,127
205880,note_on,186,0,1,,,,,,,,,0,,,78,0
205886,note_on,6,0,1,,,,,,,,,0,,,76,127
205934,note_on,431,0,5,,,,,,,,,4,,,51,0
205935,note_on,429,0,8,,,,,,,,,7,,,51,0
206072,note_on,186,0,1,,,,,,,,,0,,,76,0
206075,note_on,3,0,1,,,,,,,,,0,,,75,127
206076,note_on,141,0,8,,,,,,,,,7,,,51,127
206076,note_on,142,0,5,,,,,,,,,4,,,51,77
206264,note_on,189,0,1,,,,,,,,,0,,,75,0
206270,note_on,6,0,1,,,,,,,,,0,,,73,127
206454,note_on,184,0,1,,,,,,,,,0,,,73,0
206462,note_on,8,0,1,,,,,,,,,0,,,71,127
206510,note_on,434,0,5,,,,,,,,,4,,,51,0
206511,note_on,435,0,8,,,,,,,,,7,,,51,0
206649,note_on,187,0,1,,,,,,,,,0,,,71,0
206654,note_on,144,0,5,,,,,,,,,4,,,51,77
206654,note_on,5,0,1,,,,,,,,,0,,,83,127
206655,note_on,144,0,8,,,,,,,,,7,,,51,127
206838,note_on,184,0,1,,,,,,,,,0,,,83,0
206847,note_on,9,0,1,,,,,,,,,0,,,78,127
207032,note_on,185,0,1,,,,,,,,,0,,,78,0
207037,note_on,5,0,1,,,,,,,,,0,,,76,127
207087,note_on,432,0,8,,,,,,,,,7,,,51,0
207087,note_on,433,0,5,,,,,,,,,4,,,51,0
207224,note_on,187,0,1,,,,,,,,,0,,,76,0
207230,note_on,6,0,1,,,,,,,,,0,,,75,127
207233,note_on,146,0,5,,,,,,,,,4,,,51,77
207233,note_on,146,0,8,,,,,,,,,7,,,51,127
207416,note_on,186,0,1,,,,,,,,,0,,,75,0
207422,note_on,6,0,1,,,,,,,,,0,,,73,127
207607,note_on,185,0,1,,,,,,,,,0,,,73,0
207615,note_on,8,0,1,,,,,,,,,0,,,71,127
207663,note_on,430,0,5,,,,,,,,,4,,,51,0
207663,note_on,2160,0,7,,,,,,,,,6,,,66,0
207664,note_on,431,0,8,,,,,,,,,7,,,51,0
207667,note_on,4,0,7,,,,,,,,,6,,,71,0
207800,note_on,185,0,1,,,,,,,,,0,,,71,0
207806,note_on,6,0,1,,,,,,,,,0,,,81,127
207807,note_on,0,0,7,,,,,,,,,6,,,59,127
207807,note_on,143,0,8,,,,,,,,,7,,,51,127
207807,note_on,140,0,7,,,,,,,,,6,,,69,127
207807,note_on,144,0,5,,,,,,,,,4,,,51,77
207807,note_on,0,0,7,,,,,,,,,6,,,66,127
207991,note_on,185,0,1,,,,,,,,,0,,,81,0
207998,note_on,7,0,1,,,,,,,,,0,,,78,127
208183,note_on,185,0,1,,,,,,,,,0,,,78,0
208190,note_on,7,0,1,,,,,,,,,0,,,76,127
208239,note_on,432,0,8,,,,,,,,,7,,,51,0
208239,note_on,432,0,5,,,,,,,,,4,,,51,0
208374,note_on,184,0,1,,,,,,,,,0,,,76,0
208383,note_on,144,0,5,,,,,,,,,4,,,51,77
208383,note_on,9,0,1,,,,,,,,,0,,,75,127
208385,note_on,146,0,8,,,,,,,,,7,,,51,127
208568,note_on,185,0,1,,,,,,,,,0,,,75,0
208575,note_on,7,0,1,,,,,,,,,0,,,73,127
208761,note_on,186,0,1,,,,,,,,,0,,,73,0
208766,note_on,5,0,1,,,,,,,,,0,,,71,127
208816,note_on,431,0,8,,,,,,,,,7,,,51,0
208816,note_on,433,0,5,,,,,,,,,4,,,51,0
208952,note_on,186,0,1,,,,,,,,,0,,,71,0
208959,note_on,7,0,1,,,,,,,,,0,,,83,127
208959,note_on,143,0,5,,,,,,,,,4,,,51,77
208961,note_on,145,0,8,,,,,,,,,7,,,51,127
209392,note_on,433,0,5,,,,,,,,,4,,,51,0
209392,note_on,431,0,8,,,,,,,,,7,,,51,0
209528,note_on,569,0,1,,,,,,,,,0,,,83,0
209533,note_on,5,0,1,,,,,,,,,0,,,81,127
209534,note_on,142,0,5,,,,,,,,,4,,,51,77
209535,note_on,143,0,8,,,,,,,,,7,,,51,127
209967,note_on,432,0,8,,,,,,,,,7,,,51,0
209967,note_on,2160,0,7,,,,,,,,,6,,,59,0
209967,note_on,433,0,5,,,,,,,,,4,,,51,0
209974,note_on,7,0,7,,,,,,,,,6,,,66,0
209979,note_on,5,0,7,,,,,,,,,6,,,69,0
210106,note_on,573,0,1,,,,,,,,,0,,,81,0
210111,note_on,5,0,1,,,,,,,,,0,,,81,127
210111,note_on,144,0,5,,,,,,,,,4,,,52,77
210115,note_on,0,0,7,,,,,,,,,6,,,59,127
210115,note_on,0,0,7,,,,,,,,,6,,,64,127
210115,note_on,136,0,7,,,,,,,,,6,,,69,127
210115,note_on,148,0,8,,,,,,,,,7,,,52,127
210544,note_on,429,0,8,,,,,,,,,7,,,52,0
210544,note_on,429,0,7,,,,,,,,,6,,,69,0
210544,note_on,433,0,5,,,,,,,,,4,,,52,0
210681,note_on,570,0,1,,,,,,,,,0,,,81,0
210688,note_on,7,0,1,,,,,,,,,0,,,80,127
210690,note_on,146,0,8,,,,,,,,,7,,,40,127
210690,note_on,146,0,7,,,,,,,,,6,,,68,127
210690,note_on,146,0,5,,,,,,,,,4,,,40,77
211113,note_on,423,0,7,,,,,,,,,6,,,59,0
211120,note_on,7,0,7,,,,,,,,,6,,,64,0
211191,note_on,501,0,5,,,,,,,,,4,,,40,0
211193,note_on,73,0,7,,,,,,,,,6,,,68,0
211193,note_on,503,0,8,,,,,,,,,7,,,40,0
211263,note_on,575,0,1,,,,,,,,,0,,,80,0
211841,note_on,650,0,5,,,,,,,,,4,,,52,77
211841,note_on,648,0,8,,,,,,,,,7,,,52,127
211841,note_on,578,0,1,,,,,,,,,0,,,83,127
212272,note_on,431,0,5,,,,,,,,,4,,,52,0
212272,note_on,431,0,8,,,,,,,,,7,,,52,0
212409,note_on,568,0,1,,,,,,,,,0,,,83,0
212416,note_on,144,0,5,,,,,,,,,4,,,52,77
212416,note_on,0,0,7,,,,,,,,,6,,,68,127
212416,note_on,1223,0,7,,,,,,,,,6,,,71,127
212416,note_on,7,0,1,,,,,,,,,0,,,74,127
212416,note_on,0,0,7,,,,,,,,,6,,,62,127
212417,note_on,145,0,8,,,,,,,,,7,,,52,127
212848,note_on,432,0,5,,,,,,,,,4,,,52,0
212848,note_on,431,0,8,,,,,,,,,7,,,52,0
212991,note_on,143,0,8,,,,,,,,,7,,,52,127
212991,note_on,143,0,5,,,,,,,,,4,,,52,77
213424,note_on,433,0,5,,,,,,,,,4,,,52,0
213424,note_on,433,0,8,,,,,,,,,7,,,52,0
213569,note_on,145,0,5,,,,,,,,,4,,,52,77
213569,note_on,145,0,8,,,,,,,,,7,,,52,127
213753,note_on,1337,0,1,,,,,,,,,0,,,74,0
213760,note_on,7,0,1,,,,,,,,,0,,,71,127
213945,note_on,185,0,1,,,,,,,,,0,,,71,0
213951,note_on,6,0,1,,,,,,,,,0,,,73,127
214001,note_on,432,0,5,,,,,,,,,4,,,52,0
214001,note_on,432,0,8,,,,,,,,,7,,,52,0
214136,note_on,185,0,1,,,,,,,,,0,,,73,0
214145,note_on,9,0,1,,,,,,,,,0,,,74,127
214145,note_on,144,0,5,,,,,,,,,4,,,52,77
214145,note_on,144,0,8,,,,,,,,,7,,,52,127
214328,note_on,183,0,1,,,,,,,,,0,,,74,0
214337,note_on,9,0,1,,,,,,,,,0,,,73,127
214520,note_on,183,0,1,,,,,,,,,0,,,73,0
214528,note_on,8,0,1,,,,,,,,,0,,,71,127
214576,note_on,431,0,5,,,,,,,,,4,,,52,0
214576,note_on,2160,0,7,,,,,,,,,6,,,62,0
214576,note_on,431,0,8,,,,,,,,,7,,,52,0
214581,note_on,5,0,7,,,,,,,,,6,,,68,0
214588,note_on,7,0,7,,,,,,,,,6,,,71,0
214714,note_on,186,0,1,,,,,,,,,0,,,71,0
214722,note_on,146,0,8,,,,,,,,,7,,,52,127
214722,note_on,0,0,7,,,,,,,,,6,,,62,127
214722,note_on,0,0,7,,,,,,,,,6,,,68,127
214722,note_on,8,0,1,,,,,,,,,0,,,83,127
214722,note_on,146,0,5,,,,,,,,,4,,,52,77
214722,note_on,134,0,7,,,,,,,,,6,,,71,127
214907,note_on,185,0,1,,,,,,,,,0,,,83,0
214912,note_on,5,0,1,,,,,,,,,0,,,81,127
215098,note_on,186,0,1,,,,,,,,,0,,,81,0
215103,note_on,5,0,1,,,,,,,,,0,,,80,127
215152,note_on,430,0,8,,,,,,,,,7,,,52,0
215152,note_on,430,0,5,,,,,,,,,4,,,52,0
215289,note_on,186,0,1,,,,,,,,,0,,,80,0
215297,note_on,8,0,1,,,,,,,,,0,,,80,127
215297,note_on,145,0,5,,,,,,,,,4,,,52,77
215297,note_on,145,0,8,,,,,,,,,7,,,52,127
215482,note_on,185,0,1,,,,,,,,,0,,,80,0
215488,note_on,6,0,1,,,,,,,,,0,,,78,127
215675,note_on,187,0,1,,,,,,,,,0,,,78,0
215679,note_on,4,0,1,,,,,,,,,0,,,76,127
215729,note_on,432,0,8,,,,,,,,,7,,,52,0
215729,note_on,432,0,5,,,,,,,,,4,,,52,0
215867,note_on,188,0,1,,,,,,,,,0,,,76,0
215873,note_on,6,0,1,,,,,,,,,0,,,83,127
215873,note_on,144,0,8,,,,,,,,,7,,,52,127
215873,note_on,144,0,5,,,,,,,,,4,,,52,77
216058,note_on,185,0,1,,,,,,,,,0,,,83,0
216066,note_on,8,0,1,,,,,,,,,0,,,81,127
216248,note_on,182,0,1,,,,,,,,,0,,,81,0
216257,note_on,9,0,1,,,,,,,,,0,,,80,127
216304,note_on,431,0,5,,,,,,,,,4,,,52,0
216304,note_on,431,0,8,,,,,,,,,7,,,52,0
216443,note_on,186,0,1,,,,,,,,,0,,,80,0
216450,note_on,146,0,5,,,,,,,,,4,,,52,75
216450,note_on,146,0,8,,,,,,,,,7,,,52,127
216450,note_on,7,0,1,,,,,,,,,0,,,78,127
216634,note_on,184,0,1,,,,,,,,,0,,,78,0
216640,note_on,6,0,1,,,,,,,,,0,,,76,127
216825,note_on,185,0,1,,,,,,,,,0,,,76,0
216834,note_on,9,0,1,,,,,,,,,0,,,74,127
216881,note_on,431,0,5,,,,,,,,,4,,,52,0
216881,note_on,2159,0,7,,,,,,,,,6,,,62,0
216881,note_on,431,0,8,,,,,,,,,7,,,52,0
216886,note_on,5,0,7,,,,,,,,,6,,,68,0
216893,note_on,7,0,7,,,,,,,,,6,,,71,0
217019,note_on,185,0,1,,,,,,,,,0,,,74,0
217026,note_on,0,0,7,,,,,,,,,6,,,64,127
217026,note_on,7,0,1,,,,,,,,,0,,,73,127
217026,note_on,133,0,7,,,,,,,,,6,,,69,127
217026,note_on,145,0,5,,,,,,,,,4,,,52,75
217026,note_on,0,0,7,,,,,,,,,6,,,61,127
217029,note_on,148,0,8,,,,,,,,,7,,,52,127
217458,note_on,432,0,5,,,,,,,,,4,,,52,0
217458,note_on,429,0,8,,,,,,,,,7,,,52,0
217602,note_on,144,0,8,,,,,,,,,7,,,52,127
217602,note_on,144,0,5,,,,,,,,,4,,,52,75
218034,note_on,432,0,5,,,,,,,,,4,,,52,0
218034,note_on,432,0,8,,,,,,,,,7,,,52,0
218178,note_on,144,0,8,,,,,,,,,7,,,52,127
218178,note_on,144,0,5,,,,,,,,,4,,,52,75
218356,note_on,1330,0,1,,,,,,,,,0,,,73,0
218369,note_on,13,0,1,,,,,,,,,0,,,69,127
218555,note_on,186,0,1,,,,,,,,,0,,,69,0
218561,note_on,6,0,1,,,,,,,,,0,,,71,127
218610,note_on,432,0,8,,,,,,,,,7,,,52,0
218610,note_on,432,0,5,,,,,,,,,4,,,52,0
218746,note_on,185,0,1,,,,,,,,,0,,,71,0
218754,note_on,8,0,1,,,,,,,,,0,,,73,127
218754,note_on,144,0,5,,,,,,,,,4,,,52,75
218754,note_on,144,0,8,,,,,,,,,7,,,52,127
218939,note_on,185,0,1,,,,,,,,,0,,,73,0
218946,note_on,7,0,1,,,,,,,,,0,,,71,127
219131,note_on,185,0,1,,,,,,,,,0,,,71,0
219138,note_on,7,0,1,,,,,,,,,0,,,69,127
219187,note_on,2161,0,7,,,,,,,,,6,,,61,0
219187,note_on,433,0,5,,,,,,,,,4,,,52,0
219187,note_on,433,0,8,,,,,,,,,7,,,52,0
219189,note_on,2,0,7,,,,,,,,,6,,,64,0
219197,note_on,8,0,7,,,,,,,,,6,,,69,0
219323,note_on,185,0,1,,,,,,,,,0,,,69,0
219331,note_on,0,0,7,,,,,,,,,6,,,66,127
219331,note_on,134,0,7,,,,,,,,,6,,,69,127
219331,note_on,8,0,1,,,,,,,,,0,,,81,127
219331,note_on,144,0,8,,,,,,,,,7,,,52,127
219331,note_on,144,0,5,,,,,,,,,4,,,52,75
219331,note_on,0,0,7,,,,,,,,,6,,,61,127
219515,note_on,184,0,1,,,,,,,,,0,,,81,0
219522,note_on,7,0,1,,,,,,,,,0,,,80,127
219706,note_on,184,0,1,,,,,,,,,0,,,80,0
219712,note_on,6,0,1,,,,,,,,,0,,,78,127
219762,note_on,431,0,5,,,,,,,,,4,,,52,0
219762,note_on,431,0,8,,,,,,,,,7,,,52,0
219899,note_on,187,0,1,,,,,,,,,0,,,78,0
219907,note_on,8,0,1,,,,,,,,,0,,,78,127
219907,note_on,145,0,8,,,,,,,,,7,,,52,127
219907,note_on,145,0,5,,,,,,,,,4,,,52,75
220090,note_on,183,0,1,,,,,,,,,0,,,78,0
220098,note_on,8,0,1,,,,,,,,,0,,,76,127
220283,note_on,185,0,1,,,,,,,,,0,,,76,0
220290,note_on,7,0,1,,,,,,,,,0,,,74,127
220338,note_on,431,0,8,,,,,,,,,7,,,52,0
220338,note_on,431,0,5,,,,,,,,,4,,,52,0
220474,note_on,184,0,1,,,,,,,,,0,,,74,0
220482,note_on,144,0,8,,,,,,,,,7,,,52,127
220482,note_on,8,0,1,,,,,,,,,0,,,81,127
220482,note_on,144,0,5,,,,,,,,,4,,,52,75
220666,note_on,184,0,1,,,,,,,,,0,,,81,0
220674,note_on,8,0,1,,,,,,,,,0,,,80,127
220858,note_on,184,0,1,,,,,,,,,0,,,80,0
220866,note_on,8,0,1,,,,,,,,,0,,,78,127
220915,note_on,433,0,8,,,,,,,,,7,,,52,0
220915,note_on,433,0,5,,,,,,,,,4,,,52,0
221052,note_on,186,0,1,,,,,,,,,0,,,78,0
221058,note_on,143,0,5,,,,,,,,,4,,,52,75
221058,note_on,143,0,8,,,,,,,,,7,,,52,127
221058,note_on,6,0,1,,,,,,,,,0,,,76,127
221244,note_on,186,0,1,,,,,,,,,0,,,76,0
221250,note_on,6,0,1,,,,,,,,,0,,,74,127
221436,note_on,186,0,1,,,,,,,,,0,,,74,0
221440,note_on,4,0,1,,,,,,,,,0,,,73,127
221491,note_on,2160,0,7,,,,,,,,,6,,,61,0
221491,note_on,433,0,5,,,,,,,,,4,,,52,0
221491,note_on,433,0,8,,,,,,,,,7,,,52,0
221495,note_on,4,0,7,,,,,,,,,6,,,66,0
221501,note_on,6,0,7,,,,,,,,,6,,,69,0
221627,note_on,187,0,1,,,,,,,,,0,,,73,0
221636,note_on,145,0,8,,,,,,,,,7,,,52,127
221636,note_on,135,0,7,,,,,,,,,6,,,68,127
221636,note_on,0,0,7,,,,,,,,,6,,,64,127
221636,note_on,0,0,7,,,,,,,,,6,,,59,127
221636,note_on,145,0,5,,,,,,,,,4,,,52,75
221636,note_on,9,0,1,,,,,,,,,0,,,71,127
222067,note_on,431,0,8,,,,,,,,,7,,,52,0
222067,note_on,431,0,5,,,,,,,,,4,,,52,0
222211,note_on,144,0,8,,,,,,,,,7,,,52,127
222211,note_on,144,0,5,,,,,,,,,4,,,52,75
222642,note_on,431,0,5,,,,,,,,,4,,,52,0
222642,note_on,431,0,8,,,,,,,,,7,,,52,0
222787,note_on,145,0,5,,,,,,,,,4,,,52,75
222787,note_on,145,0,8,,,,,,,,,7,,,52,127
222970,note_on,1334,0,1,,,,,,,,,0,,,71,0
222977,note_on,7,0,1,,,,,,,,,0,,,68,127
223163,note_on,186,0,1,,,,,,,,,0,,,68,0
223169,note_on,6,0,1,,,,,,,,,0,,,69,127
223218,note_on,431,0,8,,,,,,,,,7,,,52,0
223218,note_on,431,0,5,,,,,,,,,4,,,52,0
223355,note_on,186,0,1,,,,,,,,,0,,,69,0
223362,note_on,144,0,5,,,,,,,,,4,,,52,75
223362,note_on,7,0,1,,,,,,,,,0,,,71,127
223363,note_on,145,0,8,,,,,,,,,7,,,52,127
223547,note_on,185,0,1,,,,,,,,,0,,,71,0
223553,note_on,6,0,1,,,,,,,,,0,,,69,127
223740,note_on,187,0,1,,,,,,,,,0,,,69,0
223746,note_on,6,0,1,,,,,,,,,0,,,68,127
223796,note_on,2160,0,7,,,,,,,,,6,,,59,0
223796,note_on,434,0,5,,,,,,,,,4,,,52,0
223796,note_on,433,0,8,,,,,,,,,7,,,52,0
223801,note_on,5,0,7,,,,,,,,,6,,,64,0
223805,note_on,4,0,7,,,,,,,,,6,,,68,0
223931,note_on,185,0,1,,,,,,,,,0,,,68,0
223940,note_on,9,0,1,,,,,,,,,0,,,74,127
223940,note_on,135,0,7,,,,,,,,,6,,,71,127
223940,note_on,0,0,7,,,,,,,,,6,,,68,127
223940,note_on,144,0,5,,,,,,,,,4,,,52,75
223940,note_on,0,0,7,,,,,,,,,6,,,62,127
223941,note_on,145,0,8,,,,,,,,,7,,,52,127
224125,note_on,185,0,1,,,,,,,,,0,,,74,0
224129,note_on,4,0,1,,,,,,,,,0,,,71,127
224315,note_on,186,0,1,,,,,,,,,0,,,71,0
224321,note_on,6,0,1,,,,,,,,,0,,,73,127
224370,note_on,430,0,5,,,,,,,,,4,,,52,0
224370,note_on,429,0,8,,,,,,,,,7,,,52,0
224507,note_on,186,0,1,,,,,,,,,0,,,73,0
224514,note_on,144,0,8,,,,,,,,,7,,,52,127
224514,note_on,7,0,1,,,,,,,,,0,,,74,127
224514,note_on,144,0,5,,,,,,,,,4,,,52,75
224699,note_on,185,0,1,,,,,,,,,0,,,74,0
224705,note_on,6,0,1,,,,,,,,,0,,,73,127
224891,note_on,186,0,1,,,,,,,,,0,,,73,0
224898,note_on,7,0,1,,,,,,,,,0,,,71,127
224946,note_on,432,0,8,,,,,,,,,7,,,52,0
224946,note_on,432,0,5,,,,,,,,,4,,,52,0
225084,note_on,186,0,1,,,,,,,,,0,,,71,0
225092,note_on,146,0,5,,,,,,,,,4,,,52,75
225092,note_on,8,0,1,,,,,,,,,0,,,80,127
225092,note_on,146,0,8,,,,,,,,,7,,,52,127
225276,note_on,184,0,1,,,,,,,,,0,,,80,0
225281,note_on,5,0,1,,,,,,,,,0,,,76,127
225468,note_on,187,0,1,,,,,,,,,0,,,76,0
225476,note_on,8,0,1,,,,,,,,,0,,,78,127
225523,note_on,431,0,8,,,,,,,,,7,,,52,0
225523,note_on,431,0,5,,,,,,,,,4,,,52,0
225660,note_on,184,0,1,,,,,,,,,0,,,78,0
225667,note_on,7,0,1,,,,,,,,,0,,,80,127
225667,note_on,144,0,5,,,,,,,,,4,,,52,75
225667,note_on,144,0,8,,,,,,,,,7,,,52,127
225851,note_on,184,0,1,,,,,,,,,0,,,80,0
225858,note_on,7,0,1,,,,,,,,,0,,,78,127
226043,note_on,185,0,1,,,,,,,,,0,,,78,0
226048,note_on,5,0,1,,,,,,,,,0,,,76,127
226097,note_on,430,0,5,,,,,,,,,4,,,52,0
226098,note_on,2158,0,7,,,,,,,,,6,,,62,0
226099,note_on,432,0,8,,,,,,,,,7,,,52,0
226104,note_on,6,0,7,,,,,,,,,6,,,68,0
226110,note_on,6,0,7,,,,,,,,,6,,,71,0
226237,note_on,189,0,1,,,,,,,,,0,,,76,0
226242,note_on,5,0,1,,,,,,,,,0,,,83,127
226246,note_on,147,0,8,,,,,,,,,7,,,52,127
226246,note_on,136,0,7,,,,,,,,,6,,,71,127
226246,note_on,0,0,7,,,,,,,,,6,,,68,127
226246,note_on,0,0,7,,,,,,,,,6,,,62,127
226246,note_on,149,0,5,,,,,,,,,4,,,52,75
226427,note_on,185,0,1,,,,,,,,,0,,,83,0
226434,note_on,7,0,1,,,,,,,,,0,,,80,127
226621,note_on,187,0,1,,,,,,,,,0,,,80,0
226626,note_on,5,0,1,,,,,,,,,0,,,81,127
226673,note_on,427,0,8,,,,,,,,,7,,,52,0
226673,note_on,427,0,5,,,,,,,,,4,,,52,0
226811,note_on,185,0,1,,,,,,,,,0,,,81,0
226819,note_on,8,0,1,,,,,,,,,0,,,83,127
226820,note_on,147,0,5,,,,,,,,,4,,,52,75
226820,note_on,147,0,8,,,,,,,,,7,,,52,127
227012,note_on,193,0,1,,,,,,,,,0,,,83,0
227016,note_on,4,0,1,,,,,,,,,0,,,81,127
227173,note_on,157,0,1,,,,,,,,,0,,,81,0
227179,note_on,6,0,1,,,,,,,,,0,,,80,127
227251,note_on,431,0,5,,,,,,,,,4,,,52,0
227251,note_on,431,0,8,,,,,,,,,7,,,52,0
227390,note_on,211,0,1,,,,,,,,,0,,,80,0
227394,note_on,4,0,1,,,,,,,,,0,,,71,127
227394,note_on,143,0,5,,,,,,,,,4,,,52,75
227395,note_on,144,0,8,,,,,,,,,7,,,52,127
227605,note_on,211,0,1,,,,,,,,,0,,,71,0
227611,note_on,6,0,1,,,,,,,,,0,,,83,127
227771,note_on,160,0,1,,,,,,,,,0,,,83,0
227778,note_on,7,0,1,,,,,,,,,0,,,81,127
227826,note_on,432,0,5,,,,,,,,,4,,,52,0
227827,note_on,432,0,8,,,,,,,,,7,,,52,0
227966,note_on,188,0,1,,,,,,,,,0,,,81,0
227972,note_on,146,0,5,,,,,,,,,4,,,52,75
227972,note_on,6,0,1,,,,,,,,,0,,,80,127
227972,note_on,145,0,8,,,,,,,,,7,,,52,127
228155,note_on,183,0,1,,,,,,,,,0,,,80,0
228163,note_on,8,0,1,,,,,,,,,0,,,76,127
228347,note_on,184,0,1,,,,,,,,,0,,,76,0
228355,note_on,8,0,1,,,,,,,,,0,,,74,127
228401,note_on,429,0,5,,,,,,,,,4,,,52,0
228401,note_on,2155,0,7,,,,,,,,,6,,,62,0
228402,note_on,430,0,8,,,,,,,,,7,,,52,0
228408,note_on,7,0,7,,,,,,,,,6,,,68,0
228415,note_on,7,0,7,,,,,,,,,6,,,71,0
228540,note_on,185,0,1,,,,,,,,,0,,,74,0
228549,note_on,0,0,7,,,,,,,,,6,,,61,127
228549,note_on,147,0,8,,,,,,,,,7,,,45,127
228549,note_on,9,0,1,,,,,,,,,0,,,73,127
228549,note_on,0,0,7,,,,,,,,,6,,,64,127
228549,note_on,148,0,5,,,,,,,,,4,,,45,75
228549,note_on,134,0,7,,,,,,,,,6,,,69,127
228734,note_on,185,0,1,,,,,,,,,0,,,73,0
228740,note_on,6,0,1,,,,,,,,,0,,,74,127
228924,note_on,184,0,1,,,,,,,,,0,,,74,0
228931,note_on,7,0,1,,,,,,,,,0,,,76,127
228979,note_on,430,0,5,,,,,,,,,4,,,45,0
228979,note_on,430,0,8,,,,,,,,,7,,,45,0
229118,note_on,187,0,1,,,,,,,,,0,,,76,0
229121,note_on,3,0,1,,,,,,,,,0,,,78,127
229122,note_on,143,0,8,,,,,,,,,7,,,45,127
229122,note_on,143,0,5,,,,,,,,,4,,,45,75
229308,note_on,187,0,1,,,,,,,,,0,,,78,0
229314,note_on,6,0,1,,,,,,,,,0,,,80,127
229500,note_on,186,0,1,,,,,,,,,0,,,80,0
229506,note_on,6,0,1,,,,,,,,,0,,,81,127
229548,note_on,999,0,7,,,,,,,,,6,,,61,0
229557,note_on,435,0,8,,,,,,,,,7,,,45,0
229557,note_on,9,0,7,,,,,,,,,6,,,64,0
229557,note_on,435,0,5,,,,,,,,,4,,,45,0
229560,note_on,3,0,7,,,,,,,,,6,,,69,0
229694,note_on,188,0,1,,,,,,,,,0,,,81,0
229701,note_on,141,0,7,,,,,,,,,6,,,69,127
229701,note_on,0,0,7,,,,,,,,,6,,,64,127
229701,note_on,0,0,7,,,,,,,,,6,,,57,127
229701,note_on,144,0,5,,,,,,,,,4,,,52,75
229701,note_on,7,0,1,,,,,,,,,0,,,71,127
229703,note_on,146,0,8,,,,,,,,,7,,,52,127
230131,note_on,430,0,5,,,,,,,,,4,,,52,0
230134,note_on,431,0,8,,,,,,,,,7,,,52,0
230134,note_on,433,0,7,,,,,,,,,6,,,69,0
230277,note_on,143,0,7,,,,,,,,,6,,,68,127
230277,note_on,146,0,5,,,,,,,,,4,,,40,75
230277,note_on,143,0,8,,,,,,,,,7,,,40,127
230525,note_on,824,0,1,,,,,,,,,0,,,71,0
230564,note_on,39,0,1,,,,,,,,,0,,,69,127
230707,note_on,430,0,5,,,,,,,,,4,,,40,0
230709,note_on,432,0,8,,,,,,,,,7,,,40,0
230709,note_on,432,0,7,,,,,,,,,6,,,57,0
230714,note_on,5,0,7,,,,,,,,,6,,,64,0
230720,note_on,6,0,7,,,,,,,,,6,,,68,0
230846,note_on,282,0,1,,,,,,,,,0,,,69,0
230852,note_on,6,0,1,,,,,,,,,0,,,69,127
230852,note_on,145,0,5,,,,,,,,,4,,,45,75
230855,note_on,0,0,7,,,,,,,,,6,,,61,127
230855,note_on,0,0,7,,,,,,,,,6,,,64,127
230855,note_on,135,0,7,,,,,,,,,6,,,69,127
230855,note_on,146,0,8,,,,,,,,,7,,,45,127
232004,note_on,1152,0,1,,,,,,,,,0,,,69,0
232005,note_on,1150,0,8,,,,,,,,,7,,,45,0
232005,note_on,1153,0,5,,,,,,,,,4,,,45,0
232005,note_on,1150,0,7,,,,,,,,,6,,,61,0
232009,note_on,4,0,7,,,,,,,,,6,,,64,0
232016,note_on,7,0,7,,,,,,,,,6,,,69,0
232581,note_on,577,0,1,,,,,,,,,0,,,76,127
232581,note_on,576,0,8,,,,,,,,,7,,,45,127
232581,note_on,576,0,5,,,,,,,,,4,,,45,75
233014,note_on,433,0,5,,,,,,,,,4,,,45,0
233014,note_on,433,0,8,,,,,,,,,7,,,45,0
233148,note_on,567,0,1,,,,,,,,,0,,,76,0
233157,note_on,143,0,5,,,,,,,,,4,,,50,75
233157,note_on,1141,0,7,,,,,,,,,6,,,57,127
233157,note_on,9,0,1,,,,,,,,,0,,,78,127
233159,note_on,145,0,8,,,,,,,,,7,,,50,127
233159,note_on,2,0,7,,,,,,,,,6,,,66,127
233159,note_on,0,0,7,,,,,,,,,6,,,62,127
233342,note_on,185,0,1,,,,,,,,,0,,,78,0
233346,note_on,4,0,1,,,,,,,,,0,,,76,127
233534,note_on,188,0,1,,,,,,,,,0,,,76,0
233541,note_on,7,0,1,,,,,,,,,0,,,74,127
233589,note_on,432,0,5,,,,,,,,,4,,,50,0
233589,note_on,430,0,8,,,,,,,,,7,,,50,0
233727,note_on,186,0,1,,,,,,,,,0,,,74,0
233733,note_on,144,0,8,,,,,,,,,7,,,50,127
233733,note_on,144,0,5,,,,,,,,,4,,,50,75
233733,note_on,6,0,1,,,,,,,,,0,,,74,127
233918,note_on,185,0,1,,,,,,,,,0,,,74,0
233922,note_on,4,0,1,,,,,,,,,0,,,76,127
234110,note_on,188,0,1,,,,,,,,,0,,,76,0
234117,note_on,7,0,1,,,,,,,,,0,,,78,127
234166,note_on,433,0,8,,,,,,,,,7,,,50,0
234166,note_on,1007,0,7,,,,,,,,,6,,,57,0
234166,note_on,433,0,5,,,,,,,,,4,,,50,0
234170,note_on,4,0,7,,,,,,,,,6,,,62,0
234177,note_on,7,0,7,,,,,,,,,6,,,66,0
234301,note_on,184,0,1,,,,,,,,,0,,,78,0
234311,note_on,134,0,7,,,,,,,,,6,,,68,127
234311,note_on,145,0,5,,,,,,,,,4,,,50,75
234311,note_on,0,0,7,,,,,,,,,6,,,64,127
234311,note_on,0,0,7,,,,,,,,,6,,,59,127
234311,note_on,10,0,1,,,,,,,,,0,,,80,127
234311,note_on,145,0,8,,,,,,,,,7,,,50,127
234493,note_on,182,0,1,,,,,,,,,0,,,80,0
234501,note_on,8,0,1,,,,,,,,,0,,,78,127
234686,note_on,185,0,1,,,,,,,,,0,,,78,0
234693,note_on,7,0,1,,,,,,,,,0,,,76,127
234741,note_on,430,0,8,,,,,,,,,7,,,50,0
234741,note_on,430,0,5,,,,,,,,,4,,,50,0
234878,note_on,185,0,1,,,,,,,,,0,,,76,0
234885,note_on,7,0,1,,,,,,,,,0,,,76,127
234885,note_on,144,0,8,,,,,,,,,7,,,50,127
234885,note_on,144,0,5,,,,,,,,,4,,,50,75
235071,note_on,186,0,1,,,,,,,,,0,,,76,0
235077,note_on,6,0,1,,,,,,,,,0,,,78,127
235262,note_on,185,0,1,,,,,,,,,0,,,78,0
235269,note_on,7,0,1,,,,,,,,,0,,,80,127
235319,note_on,434,0,5,,,,,,,,,4,,,50,0
235319,note_on,1008,0,7,,,,,,,,,6,,,59,0
235319,note_on,434,0,8,,,,,,,,,7,,,50,0
235324,note_on,5,0,7,,,,,,,,,6,,,64,0
235330,note_on,6,0,7,,,,,,,,,6,,,68,0
235455,note_on,186,0,1,,,,,,,,,0,,,80,0
235463,note_on,8,0,1,,,,,,,,,0,,,81,127
235463,note_on,133,0,7,,,,,,,,,6,,,69,127
235463,note_on,144,0,5,,,,,,,,,4,,,49,74
235463,note_on,0,0,7,,,,,,,,,6,,,64,127
235463,note_on,144,0,8,,,,,,,,,7,,,49,127
235463,note_on,0,0,7,,,,,,,,,6,,,57,127
235893,note_on,430,0,8,,,,,,,,,7,,,49,0
235893,note_on,430,0,5,,,,,,,,,4,,,49,0
236037,note_on,144,0,8,,,,,,,,,7,,,45,127
236037,note_on,144,0,5,,,,,,,,,4,,,45,74
236469,note_on,432,0,8,,,,,,,,,7,,,45,0
236469,note_on,432,0,5,,,,,,,,,4,,,45,0
236613,note_on,144,0,5,,,,,,,,,4,,,45,74
236613,note_on,144,0,8,,,,,,,,,7,,,45,127
236794,note_on,1331,0,1,,,,,,,,,0,,,81,0
236805,note_on,11,0,1,,,,,,,,,0,,,76,127
236991,note_on,186,0,1,,,,,,,,,0,,,76,0
236997,note_on,6,0,1,,,,,,,,,0,,,74,127
237045,note_on,432,0,5,,,,,,,,,4,,,45,0
237045,note_on,432,0,8,,,,,,,,,7,,,45,0
237184,note_on,187,0,1,,,,,,,,,0,,,74,0
237190,note_on,145,0,8,,,,,,,,,7,,,45,127
237190,note_on,145,0,5,,,,,,,,,4,,,45,74
237190,note_on,6,0,1,,,,,,,,,0,,,73,127
237374,note_on,184,0,1,,,,,,,,,0,,,73,0
237380,note_on,6,0,1,,,,,,,,,0,,,71,127
237567,note_on,187,0,1,,,,,,,,,0,,,71,0
237574,note_on,7,0,1,,,,,,,,,0,,,69,127
237622,note_on,432,0,5,,,,,,,,,4,,,45,0
237622,note_on,2159,0,7,,,,,,,,,6,,,57,0
237622,note_on,432,0,8,,,,,,,,,7,,,45,0
237626,note_on,4,0,7,,,,,,,,,6,,,64,0
237632,note_on,6,0,7,,,,,,,,,6,,,69,0
237758,note_on,184,0,1,,,,,,,,,0,,,69,0
237765,note_on,143,0,5,,,,,,,,,4,,,45,74
237765,note_on,7,0,1,,,,,,,,,0,,,81,127
237769,note_on,0,0,7,,,,,,,,,6,,,64,127
237769,note_on,137,0,7,,,,,,,,,6,,,73,127
237769,note_on,0,0,7,,,,,,,,,6,,,69,127
237769,note_on,147,0,8,,,,,,,,,7,,,45,127
237950,note_on,185,0,1,,,,,,,,,0,,,81,0
237957,note_on,7,0,1,,,,,,,,,0,,,76,127
238142,note_on,185,0,1,,,,,,,,,0,,,76,0
238150,note_on,8,0,1,,,,,,,,,0,,,74,127
238199,note_on,434,0,5,,,,,,,,,4,,,45,0
238199,note_on,430,0,8,,,,,,,,,7,,,45,0
238334,note_on,184,0,1,,,,,,,,,0,,,74,0
238342,note_on,8,0,1,,,,,,,,,0,,,73,127
238342,note_on,143,0,5,,,,,,,,,4,,,45,74
238342,note_on,143,0,8,,,,,,,,,7,,,45,127
238526,note_on,184,0,1,,,,,,,,,0,,,73,0
238532,note_on,6,0,1,,,,,,,,,0,,,71,127
238719,note_on,187,0,1,,,,,,,,,0,,,71,0
238725,note_on,6,0,1,,,,,,,,,0,,,69,127
238766,note_on,997,0,7,,,,,,,,,6,,,64,0
238774,note_on,432,0,5,,,,,,,,,4,,,45,0
238775,note_on,9,0,7,,,,,,,,,6,,,69,0
238775,note_on,433,0,8,,,,,,,,,7,,,45,0
238778,note_on,3,0,7,,,,,,,,,6,,,73,0
238912,note_on,187,0,1,,,,,,,,,0,,,69,0
238917,note_on,5,0,1,,,,,,,,,0,,,71,127
238920,note_on,0,0,7,,,,,,,,,6,,,69,127
238920,note_on,0,0,7,,,,,,,,,6,,,64,127
238920,note_on,146,0,5,,,,,,,,,4,,,52,74
238920,note_on,145,0,8,,,,,,,,,7,,,52,127
238920,note_on,142,0,7,,,,,,,,,6,,,71,127
239351,note_on,431,0,7,,,,,,,,,6,,,69,0
239351,note_on,431,0,5,,,,,,,,,4,,,52,0
239351,note_on,431,0,8,,,,,,,,,7,,,52,0
239495,note_on,144,0,7,,,,,,,,,6,,,68,127
239495,note_on,144,0,5,,,,,,,,,4,,,40,74
239495,note_on,144,0,8,,,,,,,,,7,,,40,127
239776,note_on,859,0,1,,,,,,,,,0,,,71,0
239781,note_on,5,0,1,,,,,,,,,0,,,69,127
239926,note_on,431,0,7,,,,,,,,,6,,,64,0
239926,note_on,431,0,5,,,,,,,,,4,,,40,0
239927,note_on,432,0,8,,,,,,,,,7,,,40,0
239931,note_on,5,0,7,,,,,,,,,6,,,68,0
239937,note_on,6,0,7,,,,,,,,,6,,,71,0
240064,note_on,283,0,1,,,,,,,,,0,,,69,0
240070,note_on,144,0,5,,,,,,,,,4,,,45,74
240070,note_on,0,0,7,,,,,,,,,6,,,64,127
240070,note_on,6,0,1,,,,,,,,,0,,,69,127
240070,note_on,133,0,7,,,,,,,,,6,,,69,127
240070,note_on,0,0,7,,,,,,,,,6,,,61,127
240070,note_on,143,0,8,,,,,,,,,7,,,45,127
240501,note_on,431,0,7,,,,,,,,,6,,,69,0
240646,note_on,145,0,7,,,,,,,,,6,,,73,127
241079,note_on,433,0,7,,,,,,,,,6,,,61,0
241084,note_on,5,0,7,,,,,,,,,6,,,64,0
241090,note_on,6,0,7,,,,,,,,,6,,,73,0
241224,note_on,1154,0,5,,,,,,,,,4,,,45,0
241224,note_on,134,0,7,,,,,,,,,6,,,76,127
241224,note_on,0,0,7,,,,,,,,,6,,,64,127
241224,note_on,1154,0,1,,,,,,,,,0,,,69,0
241224,note_on,1154,0,8,,,,,,,,,7,,,45,0
241797,note_on,573,0,5,,,,,,,,,4,,,64,71
241799,note_on,575,0,8,,,,,,,,,7,,,64,127
242231,note_on,432,0,8,,,,,,,,,7,,,64,0
242231,note_on,434,0,5,,,,,,,,,4,,,64,0
242375,note_on,144,0,8,,,,,,,,,7,,,62,127
242375,note_on,144,0,5,,,,,,,,,4,,,62,71
242519,note_on,144,0,8,,,,,,,,,7,,,62,0
242657,note_on,282,0,5,,,,,,,,,4,,,62,0
242662,note_on,5,0,5,,,,,,,,,4,,,52,71
242664,note_on,145,0,8,,,,,,,,,7,,,52,127
242807,note_on,143,0,8,,,,,,,,,7,,,52,0
242942,note_on,280,0,5,,,,,,,,,4,,,52,0
242949,note_on,7,0,5,,,,,,,,,4,,,62,71
242950,note_on,143,0,8,,,,,,,,,7,,,62,127
243380,note_on,2156,0,7,,,,,,,,,6,,,64,0
243387,note_on,7,0,7,,,,,,,,,6,,,76,0
243452,note_on,503,0,5,,,,,,,,,4,,,62,0
243453,note_on,503,0,8,,,,,,,,,7,,,62,0
243527,note_on,0,0,7,,,,,,,,,6,,,64,127
243527,note_on,140,0,7,,,,,,,,,6,,,76,127
244103,note_on,651,0,5,,,,,,,,,4,,,62,71
244103,note_on,650,0,8,,,,,,,,,7,,,62,127
244535,note_on,432,0,8,,,,,,,,,7,,,62,0
244535,note_on,432,0,5,,,,,,,,,4,,,62,0
244677,note_on,142,0,5,,,,,,,,,4,,,61,71
244678,note_on,143,0,8,,,,,,,,,7,,,61,127
244824,note_on,146,0,8,,,,,,,,,7,,,61,0
244962,note_on,285,0,5,,,,,,,,,4,,,61,0
244965,note_on,3,0,5,,,,,,,,,4,,,52,71
244966,note_on,142,0,8,,,,,,,,,7,,,52,127
245111,note_on,145,0,8,,,,,,,,,7,,,52,0
245250,note_on,285,0,5,,,,,,,,,4,,,52,0
245255,note_on,5,0,5,,,,,,,,,4,,,61,71
245255,note_on,144,0,8,,,,,,,,,7,,,61,127
245687,note_on,2160,0,7,,,,,,,,,6,,,64,0
245693,note_on,6,0,7,,,,,,,,,6,,,76,0
245758,note_on,503,0,5,,,,,,,,,4,,,61,0
245759,note_on,504,0,8,,,,,,,,,7,,,61,0
245831,note_on,138,0,7,,,,,,,,,6,,,76,127
245831,note_on,0,0,7,,,,,,,,,6,,,64,127
246407,note_on,649,0,5,,,,,,,,,4,,,61,71
246407,note_on,648,0,8,,,,,,,,,7,,,61,127
246838,note_on,431,0,5,,,,,,,,,4,,,61,0
246839,note_on,432,0,8,,,,,,,,,7,,,61,0
246984,note_on,145,0,8,,,,,,,,,7,,,59,127
246984,note_on,146,0,5,,,,,,,,,4,,,59,70
247127,note_on,143,0,8,,,,,,,,,7,,,59,0
247265,note_on,281,0,5,,,,,,,,,4,,,59,0
247272,note_on,145,0,8,,,,,,,,,7,,,52,127
247272,note_on,7,0,5,,,,,,,,,4,,,52,70
247415,note_on,143,0,8,,,,,,,,,7,,,52,0
247552,note_on,280,0,5,,,,,,,,,4,,,52,0
247560,note_on,145,0,8,,,,,,,,,7,,,59,127
247560,note_on,8,0,5,,,,,,,,,4,,,59,70
247992,note_on,2161,0,7,,,,,,,,,6,,,64,0
247997,note_on,5,0,7,,,,,,,,,6,,,76,0
248063,note_on,503,0,5,,,,,,,,,4,,,59,0
248063,note_on,503,0,8,,,,,,,,,7,,,59,0
248136,note_on,139,0,7,,,,,,,,,6,,,74,127
248136,note_on,0,0,7,,,,,,,,,6,,,64,127
248712,note_on,649,0,5,,,,,,,,,4,,,59,70
248712,note_on,649,0,8,,,,,,,,,7,,,59,127
249144,note_on,432,0,5,,,,,,,,,4,,,59,0
249146,note_on,434,0,8,,,,,,,,,7,,,59,0
249287,note_on,143,0,5,,,,,,,,,4,,,57,70
249288,note_on,142,0,8,,,,,,,,,7,,,57,127
249288,note_on,1152,0,7,,,,,,,,,6,,,73,127
249383,note_on,95,0,7,,,,,,,,,6,,,74,0
249719,note_on,432,0,5,,,,,,,,,4,,,57,0
249720,note_on,337,0,7,,,,,,,,,6,,,64,0
249720,note_on,432,0,8,,,,,,,,,7,,,57,0
249726,note_on,6,0,7,,,,,,,,,6,,,73,0
249866,note_on,147,0,5,,,,,,,,,4,,,62,70
249866,note_on,0,0,7,,,,,,,,,6,,,66,127
249866,note_on,0,0,7,,,,,,,,,6,,,69,127
249866,note_on,140,0,7,,,,,,,,,6,,,74,127
249866,note_on,146,0,8,,,,,,,,,7,,,62,127
250295,note_on,429,0,5,,,,,,,,,4,,,62,0
250296,note_on,430,0,7,,,,,,,,,6,,,66,0
250296,note_on,430,0,8,,,,,,,,,7,,,62,0
250301,note_on,5,0,7,,,,,,,,,6,,,69,0
250308,note_on,7,0,7,,,,,,,,,6,,,74,0
250440,note_on,132,0,7,,,,,,,,,6,,,69,127
250440,note_on,0,0,7,,,,,,,,,6,,,64,127
250440,note_on,145,0,5,,,,,,,,,4,,,64,70
250444,note_on,4,0,7,,,,,,,,,6,,,71,127
250444,note_on,148,0,8,,,,,,,,,7,,,64,127
250870,note_on,430,0,5,,,,,,,,,4,,,64,0
250870,note_on,426,0,7,,,,,,,,,6,,,69,0
250871,note_on,427,0,8,,,,,,,,,7,,,64,0
251017,note_on,147,0,5,,,,,,,,,4,,,52,70
251018,note_on,148,0,7,,,,,,,,,6,,,68,127
251018,note_on,147,0,8,,,,,,,,,7,,,52,127
251450,note_on,433,0,5,,,,,,,,,4,,,52,0
251450,note_on,432,0,7,,,,,,,,,6,,,64,0
251450,note_on,432,0,8,,,,,,,,,7,,,52,0
251455,note_on,5,0,7,,,,,,,,,6,,,68,0
251460,note_on,5,0,7,,,,,,,,,6,,,71,0
251592,note_on,142,0,5,,,,,,,,,4,,,45,70
251594,note_on,134,0,7,,,,,,,,,6,,,61,127
251596,note_on,0,0,7,,,,,,,,,6,,,64,127
251596,note_on,146,0,8,,,,,,,,,7,,,45,127
251596,note_on,2,0,7,,,,,,,,,6,,,69,127
256058,note_on,4462,0,7,,,,,,,,,6,,,61,0
256058,note_on,4466,0,5,,,,,,,,,4,,,45,0
256060,note_on,4464,0,8,,,,,,,,,7,,,45,0
256065,note_on,7,0,7,,,,,,,,,6,,,64,0
256068,note_on,3,0,7,,,,,,,,,6,,,69,0
265417,program_change,9359,0,5,,,,,,,,49,4,,,,
265954,note_on,110709,0,3,,,,,,,,,2,,,73,63
265954,note_on,24730,0,1,,,,,,,,,0,,,76,127
265954,note_on,110709,0,2,,,,,,,,,1,,,76,64
265956,note_on,110709,0,6,,,,,,,,,5,,,45,90
265956,note_on,9896,0,8,,,,,,,,,7,,,45,127
265956,note_on,110711,0,4,,,,,,,,,3,,,64,66
265956,note_on,539,0,5,,,,,,,,,4,,,45,90
266086,note_on,130,0,4,,,,,,,,,3,,,64,0
266086,note_on,132,0,1,,,,,,,,,0,,,76,0
266086,note_on,132,0,3,,,,,,,,,2,,,73,0
266086,note_on,132,0,2,,,,,,,,,1,,,76,0
266088,note_on,132,0,8,,,,,,,,,7,,,45,0
266088,note_on,132,0,6,,,,,,,,,5,,,45,0
266088,note_on,132,0,5,,,,,,,,,4,,,45,0
266105,note_on,10037,0,7,,,,,,,,,6,,,73,127
266105,note_on,0,0,7,,,,,,,,,6,,,64,127
266105,note_on,0,0,7,,,,,,,,,6,,,69,127
266130,note_on,44,0,1,,,,,,,,,0,,,73,127
266131,note_on,45,0,3,,,,,,,,,2,,,73,63
266131,note_on,45,0,2,,,,,,,,,1,,,73,64
266132,note_on,46,0,4,,,,,,,,,3,,,64,66
266132,note_on,44,0,6,,,,,,,,,5,,,45,90
266132,note_on,44,0,8,,,,,,,,,7,,,45,127
266132,note_on,44,0,5,,,,,,,,,4,,,45,90
266263,note_on,131,0,4,,,,,,,,,3,,,64,0
266263,note_on,133,0,1,,,,,,,,,0,,,73,0
266263,note_on,132,0,3,,,,,,,,,2,,,73,0
266263,note_on,132,0,2,,,,,,,,,1,,,73,0
266267,note_on,135,0,6,,,,,,,,,5,,,45,0
266267,note_on,135,0,5,,,,,,,,,4,,,45,0
266267,note_on,135,0,8,,,,,,,,,7,,,45,0
266306,note_on,43,0,1,,,,,,,,,0,,,71,127
266307,note_on,44,0,3,,,,,,,,,2,,,71,63
266307,note_on,44,0,2,,,,,,,,,1,,,71,64
266310,note_on,47,0,4,,,,,,,,,3,,,62,66
266310,note_on,43,0,5,,,,,,,,,4,,,47,90
266310,note_on,43,0,8,,,,,,,,,7,,,47,127
266310,note_on,43,0,6,,,,,,,,,5,,,47,90
266394,note_on,0,0,1,,,,,,,,,0,,,69,127
266394,note_on,88,0,1,,,,,,,,,0,,,71,0
266394,note_on,87,0,2,,,,,,,,,1,,,69,64
266394,note_on,87,0,3,,,,,,,,,2,,,69,63
266418,note_on,313,0,7,,,,,,,,,6,,,73,0
266426,note_on,32,0,2,,,,,,,,,1,,,71,0
266426,note_on,32,0,3,,,,,,,,,2,,,71,0
266442,note_on,132,0,6,,,,,,,,,5,,,47,0
266442,note_on,132,0,4,,,,,,,,,3,,,62,0
266442,note_on,132,0,8,,,,,,,,,7,,,47,0
266442,note_on,132,0,5,,,,,,,,,4,,,47,0
266461,note_on,43,0,7,,,,,,,,,6,,,76,127
266480,note_on,86,0,1,,,,,,,,,0,,,69,0
266483,note_on,3,0,1,,,,,,,,,0,,,81,127
266483,note_on,57,0,2,,,,,,,,,1,,,81,64
266484,note_on,42,0,4,,,,,,,,,3,,,64,66
266484,note_on,58,0,3,,,,,,,,,2,,,81,63
266485,note_on,43,0,5,,,,,,,,,4,,,49,90
266486,note_on,44,0,6,,,,,,,,,5,,,49,90
266486,note_on,44,0,8,,,,,,,,,7,,,49,127
266513,note_on,30,0,2,,,,,,,,,1,,,69,0
266515,note_on,31,0,3,,,,,,,,,2,,,69,0
266616,note_on,133,0,1,,,,,,,,,0,,,81,0
266617,note_on,104,0,2,,,,,,,,,1,,,81,0
266617,note_on,102,0,3,,,,,,,,,2,,,81,0
266617,note_on,133,0,4,,,,,,,,,3,,,64,0
266618,note_on,132,0,6,,,,,,,,,5,,,49,0
266618,note_on,133,0,5,,,,,,,,,4,,,49,0
266619,note_on,133,0,8,,,,,,,,,7,,,49,0
266661,note_on,45,0,1,,,,,,,,,0,,,81,127
266661,note_on,44,0,2,,,,,,,,,1,,,81,64
266664,note_on,47,0,3,,,,,,,,,2,,,81,63
266664,note_on,45,0,8,,,,,,,,,7,,,45,127
266664,note_on,46,0,6,,,,,,,,,5,,,45,90
266664,note_on,47,0,4,,,,,,,,,3,,,61,66
266664,note_on,46,0,5,,,,,,,,,4,,,45,90
266748,note_on,287,0,7,,,,,,,,,6,,,64,0
266770,note_on,22,0,7,,,,,,,,,6,,,69,0
266774,note_on,4,0,7,,,,,,,,,6,,,76,0
266794,note_on,133,0,2,,,,,,,,,1,,,81,0
266794,note_on,133,0,1,,,,,,,,,0,,,81,0
266796,note_on,132,0,3,,,,,,,,,2,,,81,0
266797,note_on,133,0,8,,,,,,,,,7,,,45,0
266797,note_on,133,0,6,,,,,,,,,5,,,45,0
266797,note_on,133,0,5,,,,,,,,,4,,,45,0
266797,note_on,133,0,4,,,,,,,,,3,,,61,0
266816,note_on,0,0,7,,,,,,,,,6,,,71,127
266816,note_on,0,0,7,,,,,,,,,6,,,68,127
266816,note_on,42,0,7,,,,,,,,,6,,,76,127
266839,note_on,45,0,2,,,,,,,,,1,,,80,64
266839,note_on,45,0,1,,,,,,,,,0,,,80,127
266840,note_on,43,0,8,,,,,,,,,7,,,52,127
266840,note_on,43,0,6,,,,,,,,,5,,,52,90
266840,note_on,43,0,4,,,,,,,,,3,,,59,66
266840,note_on,44,0,3,,,,,,,,,2,,,80,63
266840,note_on,43,0,5,,,,,,,,,4,,,52,90
266972,note_on,133,0,1,,,,,,,,,0,,,80,0
266974,note_on,134,0,6,,,,,,,,,5,,,52,0
266974,note_on,134,0,3,,,,,,,,,2,,,80,0
266974,note_on,135,0,2,,,,,,,,,1,,,80,0
266974,note_on,134,0,4,,,,,,,,,3,,,59,0
266974,note_on,134,0,5,,,,,,,,,4,,,52,0
266974,note_on,134,0,8,,,,,,,,,7,,,52,0
267015,note_on,43,0,1,,,,,,,,,0,,,76,127
267019,note_on,45,0,5,,,,,,,,,4,,,54,90
267019,note_on,45,0,3,,,,,,,,,2,,,76,63
267019,note_on,45,0,6,,,,,,,,,5,,,54,90
267019,note_on,45,0,2,,,,,,,,,1,,,76,64
267019,note_on,45,0,8,,,,,,,,,7,,,54,127
267019,note_on,45,0,4,,,,,,,,,3,,,57,66
267125,note_on,309,0,7,,,,,,,,,6,,,68,0
267148,note_on,129,0,5,,,,,,,,,4,,,54,0
267148,note_on,129,0,4,,,,,,,,,3,,,57,0
267150,note_on,131,0,8,,,,,,,,,7,,,54,0
267150,note_on,131,0,6,,,,,,,,,5,,,54,0
267171,note_on,46,0,7,,,,,,,,,6,,,64,127
267193,note_on,45,0,4,,,,,,,,,3,,,59,66
267194,note_on,44,0,8,,,,,,,,,7,,,56,127
267194,note_on,46,0,5,,,,,,,,,4,,,56,90
267194,note_on,44,0,6,,,,,,,,,5,,,56,90
267326,note_on,133,0,4,,,,,,,,,3,,,59,0
267326,note_on,307,0,3,,,,,,,,,2,,,76,0
267326,note_on,311,0,1,,,,,,,,,0,,,76,0
267326,note_on,307,0,2,,,,,,,,,1,,,76,0
267327,note_on,133,0,5,,,,,,,,,4,,,56,0
267328,note_on,134,0,8,,,,,,,,,7,,,56,0
267328,note_on,134,0,6,,,,,,,,,5,,,56,0
267370,note_on,44,0,2,,,,,,,,,1,,,83,64
267370,note_on,44,0,1,,,,,,,,,0,,,83,127
267373,note_on,47,0,3,,,,,,,,,2,,,83,63
267373,note_on,45,0,6,,,,,,,,,5,,,54,90
267373,note_on,47,0,4,,,,,,,,,3,,,57,66
267373,note_on,46,0,5,,,,,,,,,4,,,54,90
267375,note_on,47,0,8,,,,,,,,,7,,,54,127
267481,note_on,310,0,7,,,,,,,,,6,,,64,0
267482,note_on,1,0,7,,,,,,,,,6,,,71,0
267484,note_on,2,0,7,,,,,,,,,6,,,76,0
267503,note_on,133,0,1,,,,,,,,,0,,,83,0
267504,note_on,131,0,3,,,,,,,,,2,,,83,0
267504,note_on,131,0,4,,,,,,,,,3,,,57,0
267504,note_on,134,0,2,,,,,,,,,1,,,83,0
267508,note_on,135,0,6,,,,,,,,,5,,,54,0
267508,note_on,133,0,8,,,,,,,,,7,,,54,0
267508,note_on,135,0,5,,,,,,,,,4,,,54,0
267525,note_on,0,0,7,,,,,,,,,6,,,68,127
267525,note_on,0,0,7,,,,,,,,,6,,,71,127
267525,note_on,41,0,7,,,,,,,,,6,,,74,127
267547,note_on,44,0,1,,,,,,,,,0,,,74,127
267548,note_on,44,0,4,,,,,,,,,3,,,56,66
267548,note_on,44,0,2,,,,,,,,,1,,,74,64
267548,note_on,40,0,5,,,,,,,,,4,,,52,90
267548,note_on,44,0,3,,,,,,,,,2,,,74,63
267549,note_on,41,0,6,,,,,,,,,5,,,52,90
267550,note_on,42,0,8,,,,,,,,,7,,,52,127
267684,note_on,136,0,2,,,,,,,,,1,,,74,0
267684,note_on,136,0,5,,,,,,,,,4,,,52,0
267684,note_on,136,0,4,,,,,,,,,3,,,56,0
267684,note_on,134,0,8,,,,,,,,,7,,,52,0
267684,note_on,136,0,3,,,,,,,,,2,,,74,0
267684,note_on,137,0,1,,,,,,,,,0,,,74,0
267684,note_on,135,0,6,,,,,,,,,5,,,52,0
267725,note_on,41,0,2,,,,,,,,,1,,,71,64
267725,note_on,41,0,1,,,,,,,,,0,,,71,127
267725,note_on,41,0,3,,,,,,,,,2,,,71,63
267729,note_on,45,0,4,,,,,,,,,3,,,69,66
267730,note_on,46,0,5,,,,,,,,,4,,,54,90
267730,note_on,46,0,6,,,,,,,,,5,,,54,90
267730,note_on,46,0,8,,,,,,,,,7,,,54,127
267834,note_on,309,0,7,,,,,,,,,6,,,68,0
267860,note_on,131,0,4,,,,,,,,,3,,,69,0
267860,note_on,130,0,6,,,,,,,,,5,,,54,0
267860,note_on,130,0,8,,,,,,,,,7,,,54,0
267860,note_on,130,0,5,,,,,,,,,4,,,54,0
267879,note_on,45,0,7,,,,,,,,,6,,,64,127
267903,note_on,43,0,4,,,,,,,,,3,,,71,66
267903,note_on,43,0,6,,,,,,,,,5,,,56,90
267903,note_on,43,0,5,,,,,,,,,4,,,56,90
267903,note_on,43,0,8,,,,,,,,,7,,,56,127
268033,note_on,130,0,4,,,,,,,,,3,,,71,0
268033,note_on,308,0,3,,,,,,,,,2,,,71,0
268033,note_on,308,0,1,,,,,,,,,0,,,71,0
268033,note_on,308,0,2,,,,,,,,,1,,,71,0
268034,note_on,131,0,5,,,,,,,,,4,,,56,0
268035,note_on,132,0,6,,,,,,,,,5,,,56,0
268036,note_on,133,0,8,,,,,,,,,7,,,56,0
268078,note_on,45,0,2,,,,,,,,,1,,,76,64
268078,note_on,45,0,1,,,,,,,,,0,,,76,127
268082,note_on,49,0,3,,,,,,,,,2,,,76,63
268083,note_on,47,0,8,,,,,,,,,7,,,52,127
268083,note_on,49,0,5,,,,,,,,,4,,,52,90
268083,note_on,48,0,6,,,,,,,,,5,,,52,90
268083,note_on,50,0,4,,,,,,,,,3,,,68,66
268188,note_on,309,0,7,,,,,,,,,6,,,64,0
268191,note_on,3,0,7,,,,,,,,,6,,,71,0
268194,note_on,3,0,7,,,,,,,,,6,,,74,0
268214,note_on,131,0,4,,,,,,,,,3,,,68,0
268214,note_on,136,0,1,,,,,,,,,0,,,76,0
268214,note_on,136,0,2,,,,,,,,,1,,,76,0
268214,note_on,132,0,3,,,,,,,,,2,,,76,0
268214,note_on,131,0,6,,,,,,,,,5,,,52,0
268214,note_on,131,0,5,,,,,,,,,4,,,52,0
268214,note_on,131,0,8,,,,,,,,,7,,,52,0
268235,note_on,0,0,7,,,,,,,,,6,,,69,127
268235,note_on,0,0,7,,,,,,,,,6,,,64,127
268235,note_on,41,0,7,,,,,,,,,6,,,73,127
268256,note_on,42,0,2,,,,,,,,,1,,,73,64
268256,note_on,42,0,1,,,,,,,,,0,,,73,127
268257,note_on,43,0,6,,,,,,,,,5,,,45,90
268257,note_on,43,0,3,,,,,,,,,2,,,73,63
268257,note_on,43,0,4,,,,,,,,,3,,,64,66
268257,note_on,43,0,5,,,,,,,,,4,,,45,90
268258,note_on,44,0,8,,,,,,,,,7,,,45,127
268388,note_on,132,0,1,,,,,,,,,0,,,73,0
268389,note_on,133,0,2,,,,,,,,,1,,,73,0
268389,note_on,132,0,3,,,,,,,,,2,,,73,0
268391,note_on,134,0,5,,,,,,,,,4,,,45,0
268391,note_on,134,0,4,,,,,,,,,3,,,64,0
268392,note_on,134,0,8,,,,,,,,,7,,,45,0
268392,note_on,135,0,6,,,,,,,,,5,,,45,0
268435,note_on,46,0,2,,,,,,,,,1,,,71,64
268435,note_on,46,0,3,,,,,,,,,2,,,71,63
268435,note_on,47,0,1,,,,,,,,,0,,,71,127
268438,note_on,46,0,8,,,,,,,,,7,,,47,127
268438,note_on,47,0,5,,,,,,,,,4,,,47,90
268438,note_on,47,0,4,,,,,,,,,3,,,62,66
268438,note_on,46,0,6,,,,,,,,,5,,,47,90
268518,note_on,83,0,1,,,,,,,,,0,,,71,0
268520,note_on,2,0,1,,,,,,,,,0,,,69,127
268521,note_on,86,0,2,,,,,,,,,1,,,69,64
268522,note_on,87,0,3,,,,,,,,,2,,,69,63
268542,note_on,307,0,7,,,,,,,,,6,,,73,0
268551,note_on,29,0,3,,,,,,,,,2,,,71,0
268551,note_on,30,0,2,,,,,,,,,1,,,71,0
268567,note_on,129,0,5,,,,,,,,,4,,,47,0
268567,note_on,129,0,4,,,,,,,,,3,,,62,0
268569,note_on,131,0,8,,,,,,,,,7,,,47,0
268569,note_on,131,0,6,,,,,,,,,5,,,47,0
268587,note_on,45,0,7,,,,,,,,,6,,,69,0
268587,note_on,0,0,7,,,,,,,,,6,,,69,127
268608,note_on,88,0,1,,,,,,,,,0,,,69,0
268613,note_on,46,0,4,,,,,,,,,3,,,64,66
268613,note_on,5,0,1,,,,,,,,,0,,,81,127
268613,note_on,62,0,3,,,,,,,,,2,,,81,63
268613,note_on,46,0,5,,,,,,,,,4,,,49,90
268613,note_on,62,0,2,,,,,,,,,1,,,81,64
268615,note_on,46,0,6,,,,,,,,,5,,,49,90
268616,note_on,47,0,8,,,,,,,,,7,,,49,127
268641,note_on,28,0,2,,,,,,,,,1,,,69,0
268641,note_on,28,0,3,,,,,,,,,2,,,69,0
268747,note_on,106,0,2,,,,,,,,,1,,,81,0
268747,note_on,106,0,3,,,,,,,,,2,,,81,0
268747,note_on,134,0,1,,,,,,,,,0,,,81,0
268748,note_on,133,0,6,,,,,,,,,5,,,49,0
268748,note_on,135,0,4,,,,,,,,,3,,,64,0
268748,note_on,132,0,8,,,,,,,,,7,,,49,0
268748,note_on,135,0,5,,,,,,,,,4,,,49,0
268790,note_on,42,0,5,,,,,,,,,4,,,47,90
268790,note_on,43,0,3,,,,,,,,,2,,,81,63
268790,note_on,42,0,4,,,,,,,,,3,,,62,66
268790,note_on,43,0,1,,,,,,,,,0,,,81,127
268790,note_on,43,0,2,,,,,,,,,1,,,81,64
268793,note_on,45,0,8,,,,,,,,,7,,,47,127
268793,note_on,45,0,6,,,,,,,,,5,,,47,90
268897,note_on,310,0,7,,,,,,,,,6,,,64,0
268899,note_on,2,0,7,,,,,,,,,6,,,69,0
268922,note_on,132,0,5,,,,,,,,,4,,,47,0
268922,note_on,132,0,1,,,,,,,,,0,,,81,0
268922,note_on,132,0,3,,,,,,,,,2,,,81,0
268922,note_on,132,0,4,,,,,,,,,3,,,62,0
268922,note_on,132,0,2,,,,,,,,,1,,,81,0
268923,note_on,130,0,6,,,,,,,,,5,,,47,0
268924,note_on,131,0,8,,,,,,,,,7,,,47,0
268943,note_on,0,0,7,,,,,,,,,6,,,69,127
268943,note_on,0,0,7,,,,,,,,,6,,,64,127
268943,note_on,44,0,7,,,,,,,,,6,,,73,127
268965,note_on,43,0,1,,,,,,,,,0,,,73,127
268966,note_on,44,0,2,,,,,,,,,1,,,73,64
268966,note_on,44,0,3,,,,,,,,,2,,,73,63
268966,note_on,44,0,4,,,,,,,,,3,,,64,66
268969,note_on,46,0,6,,,,,,,,,5,,,45,90
268969,note_on,45,0,8,,,,,,,,,7,,,45,127
268969,note_on,47,0,5,,,,,,,,,4,,,45,90
269097,note_on,132,0,1,,,,,,,,,0,,,73,0
269098,note_on,132,0,2,,,,,,,,,1,,,73,0
269099,note_on,133,0,3,,,,,,,,,2,,,73,0
269100,note_on,131,0,6,,,,,,,,,5,,,45,0
269100,note_on,131,0,5,,,,,,,,,4,,,45,0
269100,note_on,134,0,4,,,,,,,,,3,,,64,0
269100,note_on,131,0,8,,,,,,,,,7,,,45,0
269143,note_on,45,0,2,,,,,,,,,1,,,71,64
269143,note_on,46,0,1,,,,,,,,,0,,,71,127
269144,note_on,45,0,3,,,,,,,,,2,,,71,63
269146,note_on,46,0,4,,,,,,,,,3,,,62,66
269146,note_on,46,0,5,,,,,,,,,4,,,47,90
269146,note_on,46,0,6,,,,,,,,,5,,,47,90
269147,note_on,47,0,8,,,,,,,,,7,,,47,127
269230,note_on,87,0,1,,,,,,,,,0,,,71,0
269232,note_on,88,0,3,,,,,,,,,2,,,69,63
269232,note_on,2,0,1,,,,,,,,,0,,,69,127
269232,note_on,89,0,2,,,,,,,,,1,,,69,64
269253,note_on,310,0,7,,,,,,,,,6,,,73,0
269260,note_on,28,0,3,,,,,,,,,2,,,71,0
269260,note_on,28,0,2,,,,,,,,,1,,,71,0
269276,note_on,130,0,4,,,,,,,,,3,,,62,0
269276,note_on,130,0,5,,,,,,,,,4,,,47,0
269276,note_on,130,0,6,,,,,,,,,5,,,47,0
269279,note_on,132,0,8,,,,,,,,,7,,,47,0
269296,note_on,0,0,7,,,,,,,,,6,,,69,127
269296,note_on,43,0,7,,,,,,,,,6,,,69,0
269318,note_on,86,0,1,,,,,,,,,0,,,69,0
269319,note_on,1,0,1,,,,,,,,,0,,,81,127
269321,note_on,61,0,2,,,,,,,,,1,,,81,64
269323,note_on,63,0,3,,,,,,,,,2,,,81,63
269323,note_on,47,0,5,,,,,,,,,4,,,49,90
269323,note_on,47,0,4,,,,,,,,,3,,,64,66
269324,note_on,48,0,6,,,,,,,,,5,,,49,90
269324,note_on,45,0,8,,,,,,,,,7,,,49,127
269349,note_on,28,0,2,,,,,,,,,1,,,69,0
269351,note_on,28,0,3,,,,,,,,,2,,,69,0
269455,note_on,106,0,2,,,,,,,,,1,,,81,0
269455,note_on,136,0,1,,,,,,,,,0,,,81,0
269455,note_on,132,0,4,,,,,,,,,3,,,64,0
269455,note_on,104,0,3,,,,,,,,,2,,,81,0
269458,note_on,135,0,5,,,,,,,,,4,,,49,0
269458,note_on,134,0,6,,,,,,,,,5,,,49,0
269458,note_on,134,0,8,,,,,,,,,7,,,49,0
269498,note_on,43,0,1,,,,,,,,,0,,,81,127
269498,note_on,43,0,2,,,,,,,,,1,,,81,64
269502,note_on,44,0,6,,,,,,,,,5,,,45,90
269502,note_on,47,0,4,,,,,,,,,3,,,73,66
269502,note_on,47,0,3,,,,,,,,,2,,,81,63
269502,note_on,44,0,5,,,,,,,,,4,,,45,90
269502,note_on,44,0,8,,,,,,,,,7,,,45,127
269604,note_on,308,0,7,,,,,,,,,6,,,64,0
269607,note_on,3,0,7,,,,,,,,,6,,,69,0
269631,note_on,133,0,1,,,,,,,,,0,,,81,0
269631,note_on,133,0,2,,,,,,,,,1,,,81,0
269634,note_on,132,0,5,,,,,,,,,4,,,45,0
269634,note_on,132,0,4,,,,,,,,,3,,,73,0
269634,note_on,132,0,3,,,,,,,,,2,,,81,0
269634,note_on,132,0,6,,,,,,,,,5,,,45,0
269634,note_on,132,0,8,,,,,,,,,7,,,45,0
269651,note_on,44,0,7,,,,,,,,,6,,,64,127
269653,note_on,0,0,7,,,,,,,,,6,,,71,127
269653,note_on,2,0,7,,,,,,,,,6,,,74,127
269673,note_on,39,0,3,,,,,,,,,2,,,74,63
269673,note_on,39,0,4,,,,,,,,,3,,,71,66
269673,note_on,42,0,1,,,,,,,,,0,,,74,127
269673,note_on,42,0,2,,,,,,,,,1,,,74,64
269674,note_on,40,0,5,,,,,,,,,4,,,44,90
269676,note_on,42,0,6,,,,,,,,,5,,,44,90
269676,note_on,42,0,8,,,,,,,,,7,,,44,127
269806,note_on,132,0,5,,,,,,,,,4,,,44,0
269808,note_on,132,0,8,,,,,,,,,7,,,44,0
269808,note_on,132,0,6,,,,,,,,,5,,,44,0
269852,note_on,179,0,2,,,,,,,,,1,,,74,0
269852,note_on,179,0,1,,,,,,,,,0,,,74,0
269853,note_on,180,0,3,,,,,,,,,2,,,74,0
269854,note_on,181,0,4,,,,,,,,,3,,,71,0
269855,note_on,49,0,5,,,,,,,,,4,,,40,90
269855,note_on,47,0,8,,,,,,,,,7,,,40,127
269855,note_on,47,0,6,,,,,,,,,5,,,40,90
269962,note_on,309,0,7,,,,,,,,,6,,,64,0
269965,note_on,3,0,7,,,,,,,,,6,,,71,0
269966,note_on,1,0,7,,,,,,,,,6,,,74,0
269986,note_on,131,0,6,,,,,,,,,5,,,40,0
269986,note_on,131,0,5,,,,,,,,,4,,,40,0
269986,note_on,131,0,8,,,,,,,,,7,,,40,0
270008,note_on,0,0,7,,,,,,,,,6,,,64,127
270008,note_on,0,0,7,,,,,,,,,6,,,69,127
270008,note_on,42,0,7,,,,,,,,,6,,,73,127
270028,note_on,176,0,1,,,,,,,,,0,,,73,127
270028,note_on,176,0,2,,,,,,,,,1,,,73,64
270029,note_on,176,0,3,,,,,,,,,2,,,73,63
270030,note_on,176,0,4,,,,,,,,,3,,,69,66
270030,note_on,44,0,5,,,,,,,,,4,,,45,90
270032,note_on,46,0,8,,,,,,,,,7,,,45,127
270032,note_on,46,0,6,,,,,,,,,5,,,45,90
270139,note_on,131,0,7,,,,,,,,,6,,,64,0
270141,note_on,2,0,7,,,,,,,,,6,,,69,0
270141,note_on,0,0,7,,,,,,,,,6,,,73,0
270163,note_on,133,0,5,,,,,,,,,4,,,45,0
270163,note_on,131,0,6,,,,,,,,,5,,,45,0
270163,note_on,131,0,8,,,,,,,,,7,,,45,0
270184,note_on,43,0,7,,,,,,,,,6,,,71,127
270184,note_on,0,0,7,,,,,,,,,6,,,69,127
270184,note_on,0,0,7,,,,,,,,,6,,,66,127
270206,note_on,178,0,1,,,,,,,,,0,,,73,0
270210,note_on,47,0,8,,,,,,,,,7,,,39,127
270210,note_on,182,0,2,,,,,,,,,1,,,73,0
270210,note_on,47,0,6,,,,,,,,,5,,,51,90
270210,note_on,47,0,5,,,,,,,,,4,,,39,90
270210,note_on,181,0,3,,,,,,,,,2,,,73,0
270210,note_on,180,0,4,,,,,,,,,3,,,69,0
270316,note_on,132,0,7,,,,,,,,,6,,,66,0
270318,note_on,2,0,7,,,,,,,,,6,,,69,0
270319,note_on,1,0,7,,,,,,,,,6,,,71,0
270338,note_on,128,0,5,,,,,,,,,4,,,39,0
270339,note_on,129,0,6,,,,,,,,,5,,,51,0
270342,note_on,132,0,8,,,,,,,,,7,,,39,0
270361,note_on,0,0,7,,,,,,,,,6,,,64,127
270361,note_on,0,0,7,,,,,,,,,6,,,68,127
270361,note_on,42,0,7,,,,,,,,,6,,,71,127
270386,note_on,180,0,1,,,,,,,,,0,,,71,127
270387,note_on,48,0,6,,,,,,,,,5,,,40,90
270387,note_on,177,0,4,,,,,,,,,3,,,68,66
270387,note_on,45,0,8,,,,,,,,,7,,,40,127
270387,note_on,177,0,2,,,,,,,,,1,,,71,64
270387,note_on,49,0,5,,,,,,,,,4,,,40,90
270387,note_on,177,0,3,,,,,,,,,2,,,71,63
270518,note_on,131,0,5,,,,,,,,,4,,,40,0
270518,note_on,131,0,4,,,,,,,,,3,,,68,0
270518,note_on,131,0,8,,,,,,,,,7,,,40,0
270518,note_on,131,0,6,,,,,,,,,5,,,40,0
270564,note_on,178,0,1,,,,,,,,,0,,,71,0
270564,note_on,177,0,2,,,,,,,,,1,,,71,0
270565,note_on,178,0,3,,,,,,,,,2,,,71,0
270565,note_on,47,0,6,,,,,,,,,5,,,42,90
270565,note_on,47,0,4,,,,,,,,,3,,,66,66
270565,note_on,47,0,8,,,,,,,,,7,,,42,127
270565,note_on,47,0,5,,,,,,,,,4,,,42,90
270693,note_on,128,0,4,,,,,,,,,3,,,66,0
270694,note_on,129,0,5,,,,,,,,,4,,,42,0
270695,note_on,130,0,8,,,,,,,,,7,,,42,0
270695,note_on,130,0,6,,,,,,,,,5,,,42,0
270739,note_on,45,0,5,,,,,,,,,4,,,44,90
270739,note_on,44,0,8,,,,,,,,,7,,,44,127
270739,note_on,44,0,6,,,,,,,,,5,,,44,90
270739,note_on,46,0,4,,,,,,,,,3,,,68,66
270870,note_on,131,0,5,,,,,,,,,4,,,44,0
270870,note_on,131,0,6,,,,,,,,,5,,,44,0
270870,note_on,131,0,4,,,,,,,,,3,,,68,0
270871,note_on,132,0,8,,,,,,,,,7,,,44,0
270915,note_on,351,0,1,,,,,,,,,0,,,71,127
270915,note_on,351,0,2,,,,,,,,,1,,,71,64
270916,note_on,46,0,4,,,,,,,,,3,,,64,66
270916,note_on,351,0,3,,,,,,,,,2,,,71,63
270917,note_on,47,0,6,,,,,,,,,5,,,40,90
270917,note_on,47,0,5,,,,,,,,,4,,,40,90
270918,note_on,47,0,8,,,,,,,,,7,,,40,127
271027,note_on,0,0,7,,,,,,,,,6,,,68,0
271027,note_on,666,0,7,,,,,,,,,6,,,64,0
271030,note_on,3,0,7,,,,,,,,,6,,,71,0
271048,note_on,133,0,2,,,,,,,,,1,,,71,0
271051,note_on,135,0,4,,,,,,,,,3,,,64,0
271051,note_on,133,0,8,,,,,,,,,7,,,40,0
271051,note_on,134,0,6,,,,,,,,,5,,,40,0
271051,note_on,135,0,3,,,,,,,,,2,,,71,0
271051,note_on,134,0,5,,,,,,,,,4,,,40,0
271070,note_on,0,0,7,,,,,,,,,6,,,64,127
271070,note_on,40,0,7,,,,,,,,,6,,,68,127
271090,note_on,175,0,1,,,,,,,,,0,,,71,0
271094,note_on,43,0,3,,,,,,,,,2,,,68,63
271094,note_on,46,0,2,,,,,,,,,1,,,68,64
271094,note_on,4,0,1,,,,,,,,,0,,,68,127
271097,note_on,46,0,5,,,,,,,,,4,,,52,90
271097,note_on,46,0,4,,,,,,,,,3,,,59,66
271097,note_on,46,0,8,,,,,,,,,7,,,52,127
271097,note_on,46,0,6,,,,,,,,,5,,,52,90
271226,note_on,132,0,1,,,,,,,,,0,,,68,0
271227,note_on,130,0,5,,,,,,,,,4,,,52,0
271227,note_on,133,0,3,,,,,,,,,2,,,68,0
271227,note_on,133,0,2,,,,,,,,,1,,,68,0
271227,note_on,130,0,4,,,,,,,,,3,,,59,0
271231,note_on,134,0,6,,,,,,,,,5,,,52,0
271231,note_on,134,0,8,,,,,,,,,7,,,52,0
271270,note_on,43,0,2,,,,,,,,,1,,,66,64
271270,note_on,44,0,1,,,,,,,,,0,,,66,127
271274,note_on,43,0,8,,,,,,,,,7,,,54,127
271274,note_on,47,0,4,,,,,,,,,3,,,57,66
271274,note_on,47,0,5,,,,,,,,,4,,,54,90
271274,note_on,43,0,6,,,,,,,,,5,,,54,90
271274,note_on,47,0,3,,,,,,,,,2,,,66,63
271354,note_on,84,0,1,,,,,,,,,0,,,66,0
271360,note_on,86,0,3,,,,,,,,,2,,,64,63
271360,note_on,6,0,1,,,,,,,,,0,,,64,127
271360,note_on,90,0,2,,,,,,,,,1,,,64,64
271381,note_on,311,0,7,,,,,,,,,6,,,68,0
271389,note_on,29,0,2,,,,,,,,,1,,,66,0
271389,note_on,29,0,3,,,,,,,,,2,,,66,0
271404,note_on,130,0,5,,,,,,,,,4,,,54,0
271404,note_on,130,0,4,,,,,,,,,3,,,57,0
271404,note_on,130,0,6,,,,,,,,,5,,,54,0
271406,note_on,132,0,8,,,,,,,,,7,,,54,0
271424,note_on,43,0,7,,,,,,,,,6,,,71,127
271445,note_on,85,0,1,,,,,,,,,0,,,64,0
271450,note_on,5,0,1,,,,,,,,,0,,,74,127
271451,note_on,47,0,6,,,,,,,,,5,,,56,90
271451,note_on,45,0,8,,,,,,,,,7,,,56,127
271451,note_on,47,0,5,,,,,,,,,4,,,56,90
271451,note_on,62,0,2,,,,,,,,,1,,,74,64
271451,note_on,62,0,3,,,,,,,,,2,,,74,63
271451,note_on,47,0,4,,,,,,,,,3,,,59,66
271477,note_on,26,0,3,,,,,,,,,2,,,64,0
271477,note_on,26,0,2,,,,,,,,,1,,,64,0
271581,note_on,130,0,4,,,,,,,,,3,,,59,0
271581,note_on,131,0,1,,,,,,,,,0,,,74,0
271581,note_on,130,0,5,,,,,,,,,4,,,56,0
271581,note_on,104,0,3,,,,,,,,,2,,,74,0
271581,note_on,104,0,2,,,,,,,,,1,,,74,0
271582,note_on,131,0,6,,,,,,,,,5,,,56,0
271583,note_on,132,0,8,,,,,,,,,7,,,56,0
271623,note_on,42,0,1,,,,,,,,,0,,,74,127
271625,note_on,44,0,2,,,,,,,,,1,,,74,64
271627,note_on,46,0,3,,,,,,,,,2,,,74,63
271627,note_on,45,0,6,,,,,,,,,5,,,52,90
271627,note_on,46,0,4,,,,,,,,,3,,,56,66
271627,note_on,46,0,5,,,,,,,,,4,,,52,90
271630,note_on,47,0,8,,,,,,,,,7,,,52,127
271734,note_on,310,0,7,,,,,,,,,6,,,64,0
271736,note_on,2,0,7,,,,,,,,,6,,,71,0
271758,note_on,135,0,1,,,,,,,,,0,,,74,0
271759,note_on,132,0,6,,,,,,,,,5,,,52,0
271759,note_on,132,0,3,,,,,,,,,2,,,74,0
271759,note_on,134,0,2,,,,,,,,,1,,,74,0
271759,note_on,132,0,4,,,,,,,,,3,,,56,0
271759,note_on,132,0,5,,,,,,,,,4,,,52,0
271760,note_on,130,0,8,,,,,,,,,7,,,52,0
271779,note_on,0,0,7,,,,,,,,,6,,,64,127
271779,note_on,43,0,7,,,,,,,,,6,,,69,127
271802,note_on,43,0,4,,,,,,,,,3,,,64,66
271802,note_on,43,0,3,,,,,,,,,2,,,74,63
271802,note_on,43,0,5,,,,,,,,,4,,,45,90
271802,note_on,44,0,1,,,,,,,,,0,,,74,127
271802,note_on,43,0,2,,,,,,,,,1,,,74,64
271804,note_on,45,0,6,,,,,,,,,5,,,45,90
271804,note_on,44,0,8,,,,,,,,,7,,,45,127
271935,note_on,133,0,3,,,,,,,,,2,,,74,0
271935,note_on,133,0,2,,,,,,,,,1,,,74,0
271935,note_on,133,0,1,,,,,,,,,0,,,74,0
271939,note_on,137,0,4,,,,,,,,,3,,,64,0
271940,note_on,136,0,8,,,,,,,,,7,,,45,0
271940,note_on,138,0,5,,,,,,,,,4,,,45,0
271940,note_on,136,0,6,,,,,,,,,5,,,45,0
271979,note_on,44,0,1,,,,,,,,,0,,,73,127
271979,note_on,44,0,2,,,,,,,,,1,,,73,64
271983,note_on,44,0,4,,,,,,,,,3,,,64,66
271983,note_on,48,0,3,,,,,,,,,2,,,73,63
271983,note_on,43,0,6,,,,,,,,,5,,,47,90
271983,note_on,43,0,8,,,,,,,,,7,,,47,127
271983,note_on,43,0,5,,,,,,,,,4,,,47,90
272112,note_on,129,0,5,,,,,,,,,4,,,47,0
272112,note_on,129,0,6,,,,,,,,,5,,,47,0
272115,note_on,132,0,8,,,,,,,,,7,,,47,0
272156,note_on,44,0,6,,,,,,,,,5,,,49,90
272156,note_on,41,0,8,,,,,,,,,7,,,49,127
272156,note_on,44,0,5,,,,,,,,,4,,,49,90
272290,note_on,307,0,3,,,,,,,,,2,,,73,0
272290,note_on,311,0,2,,,,,,,,,1,,,73,0
272290,note_on,311,0,1,,,,,,,,,0,,,73,0
272294,note_on,311,0,4,,,,,,,,,3,,,64,0
272294,note_on,138,0,5,,,,,,,,,4,,,49,0
272294,note_on,138,0,6,,,,,,,,,5,,,49,0
272294,note_on,138,0,8,,,,,,,,,7,,,49,0
272334,note_on,44,0,1,,,,,,,,,0,,,76,127
272335,note_on,45,0,3,,,,,,,,,2,,,76,63
272335,note_on,41,0,5,,,,,,,,,4,,,45,90
272335,note_on,45,0,2,,,,,,,,,1,,,76,64
272335,note_on,41,0,6,,,,,,,,,5,,,45,90
272335,note_on,41,0,4,,,,,,,,,3,,,64,66
272336,note_on,42,0,8,,,,,,,,,7,,,45,127
272445,note_on,666,0,7,,,,,,,,,6,,,64,0
272445,note_on,0,0,7,,,,,,,,,6,,,69,0
272467,note_on,133,0,1,,,,,,,,,0,,,76,0
272467,note_on,132,0,2,,,,,,,,,1,,,76,0
272469,note_on,134,0,6,,,,,,,,,5,,,45,0
272469,note_on,134,0,3,,,,,,,,,2,,,76,0
272469,note_on,134,0,4,,,,,,,,,3,,,64,0
272469,note_on,134,0,5,,,,,,,,,4,,,45,0
272469,note_on,133,0,8,,,,,,,,,7,,,45,0
272490,note_on,45,0,7,,,,,,,,,6,,,73,127
272490,note_on,0,0,7,,,,,,,,,6,,,64,127
272512,note_on,45,0,1,,,,,,,,,0,,,73,127
272512,note_on,43,0,3,,,,,,,,,2,,,73,63
272512,note_on,43,0,5,,,,,,,,,4,,,57,90
272512,note_on,43,0,4,,,,,,,,,3,,,64,66
272512,note_on,45,0,2,,,,,,,,,1,,,73,64
272513,note_on,44,0,8,,,,,,,,,7,,,57,127
272513,note_on,44,0,6,,,,,,,,,5,,,57,90
272644,note_on,132,0,4,,,,,,,,,3,,,64,0
272644,note_on,132,0,1,,,,,,,,,0,,,73,0
272644,note_on,132,0,3,,,,,,,,,2,,,73,0
272644,note_on,132,0,2,,,,,,,,,1,,,73,0
272645,note_on,133,0,5,,,,,,,,,4,,,57,0
272646,note_on,133,0,6,,,,,,,,,5,,,57,0
272647,note_on,134,0,8,,,,,,,,,7,,,57,0
272689,note_on,45,0,1,,,,,,,,,0,,,71,127
272689,note_on,45,0,3,,,,,,,,,2,,,71,63
272689,note_on,45,0,2,,,,,,,,,1,,,71,64
272691,note_on,46,0,5,,,,,,,,,4,,,59,90
272691,note_on,47,0,4,,,,,,,,,3,,,62,66
272691,note_on,44,0,8,,,,,,,,,7,,,59,127
272691,note_on,45,0,6,,,,,,,,,5,,,59,90
272774,note_on,85,0,1,,,,,,,,,0,,,71,0
272776,note_on,87,0,3,,,,,,,,,2,,,69,63
272776,note_on,87,0,2,,,,,,,,,1,,,69,64
272776,note_on,2,0,1,,,,,,,,,0,,,69,127
272799,note_on,309,0,7,,,,,,,,,6,,,64,0
272802,note_on,3,0,7,,,,,,,,,6,,,73,0
272806,note_on,30,0,3,,,,,,,,,2,,,71,0
272806,note_on,30,0,2,,,,,,,,,1,,,71,0
272822,note_on,131,0,6,,,,,,,,,5,,,59,0
272822,note_on,131,0,4,,,,,,,,,3,,,62,0
272822,note_on,131,0,5,,,,,,,,,4,,,59,0
272823,note_on,132,0,8,,,,,,,,,7,,,59,0
272844,note_on,42,0,7,,,,,,,,,6,,,76,127
272844,note_on,0,0,7,,,,,,,,,6,,,69,127
272862,note_on,86,0,1,,,,,,,,,0,,,69,0
272867,note_on,5,0,1,,,,,,,,,0,,,79,127
272867,note_on,61,0,2,,,,,,,,,1,,,79,64
272867,note_on,61,0,3,,,,,,,,,2,,,79,63
272868,note_on,46,0,4,,,,,,,,,3,,,64,66
272869,note_on,46,0,8,,,,,,,,,7,,,61,127
272869,note_on,47,0,6,,,,,,,,,5,,,61,90
272869,note_on,47,0,5,,,,,,,,,4,,,61,90
272896,note_on,29,0,2,,,,,,,,,1,,,69,0
272896,note_on,29,0,3,,,,,,,,,2,,,69,0
272997,note_on,130,0,1,,,,,,,,,0,,,79,0
273000,note_on,104,0,2,,,,,,,,,1,,,79,0
273001,note_on,132,0,5,,,,,,,,,4,,,61,0
273001,note_on,133,0,4,,,,,,,,,3,,,64,0
273001,note_on,132,0,8,,,,,,,,,7,,,61,0
273001,note_on,105,0,3,,,,,,,,,2,,,79,0
273001,note_on,132,0,6,,,,,,,,,5,,,61,0
273043,note_on,46,0,1,,,,,,,,,0,,,79,127
273045,note_on,45,0,2,,,,,,,,,1,,,79,64
273045,note_on,44,0,3,,,,,,,,,2,,,79,63
273046,note_on,45,0,4,,,,,,,,,3,,,61,66
273047,note_on,46,0,5,,,,,,,,,4,,,57,90
273047,note_on,46,0,6,,,,,,,,,5,,,57,90
273047,note_on,46,0,8,,,,,,,,,7,,,57,127
273150,note_on,306,0,7,,,,,,,,,6,,,69,0
273155,note_on,5,0,7,,,,,,,,,6,,,76,0
273176,note_on,133,0,1,,,,,,,,,0,,,79,0
273176,note_on,131,0,3,,,,,,,,,2,,,79,0
273176,note_on,131,0,2,,,,,,,,,1,,,79,0
273179,note_on,132,0,6,,,,,,,,,5,,,57,0
273179,note_on,132,0,5,,,,,,,,,4,,,57,0
273179,note_on,133,0,4,,,,,,,,,3,,,61,0
273179,note_on,132,0,8,,,,,,,,,7,,,57,0
273198,note_on,43,0,7,,,,,,,,,6,,,74,127
273198,note_on,0,0,7,,,,,,,,,6,,,69,127
273221,note_on,45,0,1,,,,,,,,,0,,,79,127
273221,note_on,45,0,3,,,,,,,,,2,,,79,63
273221,note_on,45,0,2,,,,,,,,,1,,,79,64
273225,note_on,46,0,4,,,,,,,,,3,,,69,66
273225,note_on,46,0,6,,,,,,,,,5,,,50,90
273225,note_on,46,0,8,,,,,,,,,7,,,50,127
273225,note_on,46,0,5,,,,,,,,,4,,,50,90
273352,note_on,131,0,2,,,,,,,,,1,,,79,0
273352,note_on,131,0,1,,,,,,,,,0,,,79,0
273353,note_on,132,0,3,,,,,,,,,2,,,79,0
273353,note_on,128,0,4,,,,,,,,,3,,,69,0
273354,note_on,129,0,5,,,,,,,,,4,,,50,0
273356,note_on,131,0,8,,,,,,,,,7,,,50,0
273356,note_on,131,0,6,,,,,,,,,5,,,50,0
273398,note_on,46,0,1,,,,,,,,,0,,,78,127
273398,note_on,46,0,2,,,,,,,,,1,,,78,64
273398,note_on,45,0,4,,,,,,,,,3,,,67,66
273398,note_on,45,0,3,,,,,,,,,2,,,78,63
273399,note_on,43,0,8,,,,,,,,,7,,,52,127
273399,note_on,45,0,5,,,,,,,,,4,,,52,90
273399,note_on,43,0,6,,,,,,,,,5,,,52,90
273530,note_on,131,0,5,,,,,,,,,4,,,52,0
273530,note_on,132,0,4,,,,,,,,,3,,,67,0
273531,note_on,132,0,8,,,,,,,,,7,,,52,0
273531,note_on,132,0,6,,,,,,,,,5,,,52,0
273575,note_on,44,0,8,,,,,,,,,7,,,54,127
273575,note_on,45,0,4,,,,,,,,,3,,,69,66
273575,note_on,44,0,6,,,,,,,,,5,,,54,90
273575,note_on,45,0,5,,,,,,,,,4,,,54,90
273708,note_on,310,0,1,,,,,,,,,0,,,78,0
273708,note_on,310,0,2,,,,,,,,,1,,,78,0
273711,note_on,136,0,6,,,,,,,,,5,,,54,0
273711,note_on,313,0,3,,,,,,,,,2,,,78,0
273711,note_on,136,0,4,,,,,,,,,3,,,69,0
273711,note_on,136,0,5,,,,,,,,,4,,,54,0
273711,note_on,136,0,8,,,,,,,,,7,,,54,0
273754,note_on,46,0,2,,,,,,,,,1,,,78,64
273754,note_on,46,0,1,,,,,,,,,0,,,78,127
273754,note_on,43,0,4,,,,,,,,,3,,,66,66
273754,note_on,43,0,3,,,,,,,,,2,,,78,64
273754,note_on,43,0,5,,,,,,,,,4,,,50,90
273757,note_on,46,0,8,,,,,,,,,7,,,50,127
273757,note_on,46,0,6,,,,,,,,,5,,,50,90
273861,note_on,663,0,7,,,,,,,,,6,,,69,0
273864,note_on,3,0,7,,,,,,,,,6,,,74,0
273884,note_on,130,0,1,,,,,,,,,0,,,78,0
273888,note_on,131,0,8,,,,,,,,,7,,,50,0
273888,note_on,131,0,6,,,,,,,,,5,,,50,0
273888,note_on,134,0,2,,,,,,,,,1,,,78,0
273888,note_on,134,0,4,,,,,,,,,3,,,66,0
273888,note_on,134,0,5,,,,,,,,,4,,,50,0
273888,note_on,134,0,3,,,,,,,,,2,,,78,0
273904,note_on,0,0,7,,,,,,,,,6,,,68,127
273904,note_on,40,0,7,,,,,,,,,6,,,75,127
273931,note_on,43,0,2,,,,,,,,,1,,,75,64
273931,note_on,47,0,1,,,,,,,,,0,,,75,127
273931,note_on,43,0,3,,,,,,,,,2,,,75,64
273932,note_on,44,0,6,,,,,,,,,5,,,47,90
273932,note_on,44,0,4,,,,,,,,,3,,,66,66
273932,note_on,44,0,5,,,,,,,,,4,,,47,90
273932,note_on,44,0,8,,,,,,,,,7,,,47,127
274039,note_on,135,0,7,,,,,,,,,6,,,75,0
274063,note_on,132,0,3,,,,,,,,,2,,,75,0
274063,note_on,132,0,2,,,,,,,,,1,,,75,0
274063,note_on,132,0,1,,,,,,,,,0,,,75,0
274066,note_on,134,0,5,,,,,,,,,4,,,47,0
274066,note_on,134,0,8,,,,,,,,,7,,,47,0
274066,note_on,134,0,4,,,,,,,,,3,,,66,0
274066,note_on,134,0,6,,,,,,,,,5,,,47,0
274083,note_on,44,0,7,,,,,,,,,6,,,76,127
274106,note_on,43,0,2,,,,,,,,,1,,,73,64
274106,note_on,43,0,1,,,,,,,,,0,,,73,127
274107,note_on,44,0,3,,,,,,,,,2,,,73,64
274110,note_on,44,0,4,,,,,,,,,3,,,64,66
274110,note_on,44,0,5,,,,,,,,,4,,,49,90
274110,note_on,44,0,8,,,,,,,,,7,,,49,127
274110,note_on,44,0,6,,,,,,,,,5,,,49,90
274192,note_on,86,0,1,,,,,,,,,0,,,73,0
274196,note_on,90,0,2,,,,,,,,,1,,,71,64
274196,note_on,89,0,3,,,,,,,,,2,,,71,64
274196,note_on,4,0,1,,,,,,,,,0,,,71,127
274215,note_on,132,0,7,,,,,,,,,6,,,68,0
274218,note_on,3,0,7,,,,,,,,,6,,,76,0
274221,note_on,25,0,2,,,,,,,,,1,,,73,0
274223,note_on,27,0,3,,,,,,,,,2,,,73,0
274238,note_on,128,0,4,,,,,,,,,3,,,64,0
274239,note_on,129,0,5,,,,,,,,,4,,,49,0
274242,note_on,132,0,8,,,,,,,,,7,,,49,0
274242,note_on,132,0,6,,,,,,,,,5,,,49,0
274261,note_on,43,0,7,,,,,,,,,6,,,78,127
274261,note_on,0,0,7,,,,,,,,,6,,,69,127
274281,note_on,85,0,1,,,,,,,,,0,,,71,0
274281,note_on,0,0,1,,,,,,,,,0,,,81,127
274282,note_on,61,0,2,,,,,,,,,1,,,81,64
274284,note_on,61,0,3,,,,,,,,,2,,,81,64
274284,note_on,46,0,4,,,,,,,,,3,,,66,66
274285,note_on,43,0,8,,,,,,,,,7,,,51,127
274285,note_on,46,0,5,,,,,,,,,4,,,51,90
274285,note_on,43,0,6,,,,,,,,,5,,,51,90
274313,note_on,29,0,3,,,,,,,,,2,,,71,0
274313,note_on,31,0,2,,,,,,,,,1,,,71,0
274417,note_on,104,0,3,,,,,,,,,2,,,81,0
274417,note_on,132,0,5,,,,,,,,,4,,,51,0
274417,note_on,133,0,4,,,,,,,,,3,,,66,0
274417,note_on,136,0,1,,,,,,,,,0,,,81,0
274417,note_on,132,0,6,,,,,,,,,5,,,51,0
274417,note_on,104,0,2,,,,,,,,,1,,,81,0
274418,note_on,133,0,8,,,,,,,,,7,,,51,0
274460,note_on,43,0,1,,,,,,,,,0,,,81,127
274461,note_on,44,0,2,,,,,,,,,1,,,81,64
274461,note_on,44,0,3,,,,,,,,,2,,,81,64
274462,note_on,45,0,5,,,,,,,,,4,,,47,90
274462,note_on,45,0,4,,,,,,,,,3,,,63,66
274463,note_on,46,0,6,,,,,,,,,5,,,47,90
274464,note_on,46,0,8,,,,,,,,,7,,,47,127
274571,note_on,310,0,7,,,,,,,,,6,,,78,0
274593,note_on,132,0,2,,,,,,,,,1,,,81,0
274593,note_on,133,0,1,,,,,,,,,0,,,81,0
274593,note_on,132,0,3,,,,,,,,,2,,,81,0
274593,note_on,131,0,4,,,,,,,,,3,,,63,0
274595,note_on,133,0,5,,,,,,,,,4,,,47,0
274596,note_on,132,0,8,,,,,,,,,7,,,47,0
274596,note_on,133,0,6,,,,,,,,,5,,,47,0
274616,note_on,45,0,7,,,,,,,,,6,,,71,127
274637,note_on,44,0,1,,,,,,,,,0,,,81,127
274642,note_on,49,0,4,,,,,,,,,3,,,59,66
274642,note_on,49,0,3,,,,,,,,,2,,,81,64
274642,note_on,46,0,6,,,,,,,,,5,,,52,90
274642,note_on,46,0,8,,,,,,,,,7,,,52,127
274642,note_on,47,0,5,,,,,,,,,4,,,52,90
274642,note_on,49,0,2,,,,,,,,,1,,,81,64
274772,note_on,130,0,3,,,,,,,,,2,,,81,0
274772,note_on,130,0,5,,,,,,,,,4,,,52,0
274772,note_on,130,0,2,,,,,,,,,1,,,81,0
274772,note_on,135,0,1,,,,,,,,,0,,,81,0
274775,note_on,133,0,6,,,,,,,,,5,,,52,0
274775,note_on,133,0,8,,,,,,,,,7,,,52,0
274815,note_on,43,0,1,,,,,,,,,0,,,80,127
274819,note_on,47,0,2,,,,,,,,,1,,,80,64
274819,note_on,47,0,5,,,,,,,,,4,,,51,90
274819,note_on,44,0,6,,,,,,,,,5,,,51,90
274819,note_on,47,0,3,,,,,,,,,2,,,80,64
274819,note_on,44,0,8,,,,,,,,,7,,,51,127
274924,note_on,308,0,7,,,,,,,,,6,,,69,0
274949,note_on,130,0,5,,,,,,,,,4,,,51,0
274949,note_on,130,0,6,,,,,,,,,5,,,51,0
274950,note_on,131,0,8,,,,,,,,,7,,,51,0
274970,note_on,46,0,7,,,,,,,,,6,,,68,127
274994,note_on,44,0,8,,,,,,,,,7,,,52,127
274994,note_on,45,0,6,,,,,,,,,5,,,52,90
274994,note_on,45,0,5,,,,,,,,,4,,,52,90
275128,note_on,313,0,1,,,,,,,,,0,,,80,0
275128,note_on,309,0,2,,,,,,,,,1,,,80,0
275128,note_on,309,0,3,,,,,,,,,2,,,80,0
275129,note_on,487,0,4,,,,,,,,,3,,,59,0
275129,note_on,135,0,8,,,,,,,,,7,,,52,0
275129,note_on,135,0,6,,,,,,,,,5,,,52,0
275129,note_on,135,0,5,,,,,,,,,4,,,52,0
275169,note_on,41,0,2,,,,,,,,,1,,,78,64
275169,note_on,41,0,1,,,,,,,,,0,,,78,127
275170,note_on,42,0,3,,,,,,,,,2,,,78,64
275172,note_on,43,0,6,,,,,,,,,5,,,40,90
275172,note_on,43,0,8,,,,,,,,,7,,,40,127
275172,note_on,43,0,4,,,,,,,,,3,,,71,66
275172,note_on,43,0,5,,,,,,,,,4,,,40,90
275282,note_on,312,0,7,,,,,,,,,6,,,68,0
275282,note_on,0,0,7,,,,,,,,,6,,,71,0
275302,note_on,133,0,1,,,,,,,,,0,,,78,0
275303,note_on,134,0,2,,,,,,,,,1,,,78,0
275304,note_on,134,0,3,,,,,,,,,2,,,78,0
275304,note_on,132,0,4,,,,,,,,,3,,,71,0
275304,note_on,132,0,5,,,,,,,,,4,,,40,0
275305,note_on,133,0,8,,,,,,,,,7,,,40,0
275305,note_on,133,0,6,,,,,,,,,5,,,40,0
275324,note_on,42,0,7,,,,,,,,,6,,,72,127
275324,note_on,0,0,7,,,,,,,,,6,,,65,127
275347,note_on,43,0,3,,,,,,,,,2,,,77,64
275347,note_on,45,0,1,,,,,,,,,0,,,77,127
275347,note_on,44,0,2,,,,,,,,,1,,,77,64
275348,note_on,44,0,5,,,,,,,,,4,,,57,90
275348,note_on,44,0,4,,,,,,,,,3,,,72,66
275348,note_on,43,0,6,,,,,,,,,5,,,57,90
275349,note_on,44,0,8,,,,,,,,,7,,,57,127
275459,note_on,135,0,7,,,,,,,,,6,,,72,0
275481,note_on,133,0,4,,,,,,,,,3,,,72,0
275481,note_on,134,0,2,,,,,,,,,1,,,77,0
275481,note_on,134,0,1,,,,,,,,,0,,,77,0
275481,note_on,134,0,3,,,,,,,,,2,,,77,0
275481,note_on,133,0,5,,,,,,,,,4,,,57,0
275482,note_on,134,0,6,,,,,,,,,5,,,57,0
275483,note_on,134,0,8,,,,,,,,,7,,,57,0
275502,note_on,43,0,7,,,,,,,,,6,,,74,127
275526,note_on,45,0,5,,,,,,,,,4,,,59,90
275526,note_on,45,0,1,,,,,,,,,0,,,74,127
275526,note_on,45,0,2,,,,,,,,,1,,,74,64
275526,note_on,45,0,3,,,,,,,,,2,,,74,64
275526,note_on,45,0,4,,,,,,,,,3,,,71,66
275528,note_on,45,0,8,,,,,,,,,7,,,59,127
275528,note_on,46,0,6,,,,,,,,,5,,,59,90
275635,note_on,0,0,7,,,,,,,,,6,,,65,0
275635,note_on,133,0,7,,,,,,,,,6,,,74,0
275655,note_on,129,0,5,,,,,,,,,4,,,59,0
275656,note_on,128,0,8,,,,,,,,,7,,,59,0
275656,note_on,128,0,6,,,,,,,,,5,,,59,0
275678,note_on,0,0,7,,,,,,,,,6,,,64,127
275678,note_on,43,0,7,,,,,,,,,6,,,71,127
275702,note_on,47,0,5,,,,,,,,,4,,,56,90
275702,note_on,46,0,8,,,,,,,,,7,,,56,127
275702,note_on,46,0,6,,,,,,,,,5,,,56,90
275834,note_on,308,0,1,,,,,,,,,0,,,74,0
275835,note_on,309,0,2,,,,,,,,,1,,,74,0
275835,note_on,309,0,3,,,,,,,,,2,,,74,0
275839,note_on,137,0,5,,,,,,,,,4,,,56,0
275839,note_on,137,0,6,,,,,,,,,5,,,56,0
275839,note_on,313,0,4,,,,,,,,,3,,,71,0
275839,note_on,137,0,8,,,,,,,,,7,,,56,0
275879,note_on,44,0,2,,,,,,,,,1,,,76,64
275879,note_on,45,0,1,,,,,,,,,0,,,76,127
275883,note_on,44,0,4,,,,,,,,,3,,,68,66
275883,note_on,48,0,3,,,,,,,,,2,,,76,64
275883,note_on,44,0,8,,,,,,,,,7,,,52,127
275883,note_on,44,0,6,,,,,,,,,5,,,52,90
275883,note_on,44,0,5,,,,,,,,,4,,,52,90
275990,note_on,312,0,7,,,,,,,,,6,,,64,0
275990,note_on,0,0,7,,,,,,,,,6,,,71,0
276013,note_on,130,0,3,,,,,,,,,2,,,76,0
276013,note_on,130,0,4,,,,,,,,,3,,,68,0
276013,note_on,134,0,2,,,,,,,,,1,,,76,0
276013,note_on,134,0,1,,,,,,,,,0,,,76,0
276015,note_on,132,0,5,,,,,,,,,4,,,52,0
276015,note_on,132,0,6,,,,,,,,,5,,,52,0
276015,note_on,132,0,8,,,,,,,,,7,,,52,0
276035,note_on,45,0,7,,,,,,,,,6,,,72,127
276035,note_on,0,0,7,,,,,,,,,6,,,64,127
276056,note_on,43,0,1,,,,,,,,,0,,,72,127
276057,note_on,44,0,2,,,,,,,,,1,,,72,64
276057,note_on,42,0,6,,,,,,,,,5,,,57,90
276057,note_on,44,0,3,,,,,,,,,2,,,72,64
276057,note_on,44,0,4,,,,,,,,,3,,,64,66
276057,note_on,42,0,5,,,,,,,,,4,,,57,90
276058,note_on,43,0,8,,,,,,,,,7,,,57,127
276189,note_on,133,0,1,,,,,,,,,0,,,72,0
276190,note_on,133,0,2,,,,,,,,,1,,,72,0
276190,note_on,133,0,3,,,,,,,,,2,,,72,0
276191,note_on,134,0,5,,,,,,,,,4,,,57,0
276191,note_on,134,0,6,,,,,,,,,5,,,57,0
276192,note_on,134,0,8,,,,,,,,,7,,,57,0
276231,note_on,42,0,1,,,,,,,,,0,,,71,127
276232,note_on,42,0,2,,,,,,,,,1,,,71,64
276233,note_on,43,0,3,,,,,,,,,2,,,71,64
276235,note_on,43,0,8,,,,,,,,,7,,,56,127
276235,note_on,44,0,6,,,,,,,,,5,,,56,90
276235,note_on,44,0,5,,,,,,,,,4,,,56,90
276319,note_on,88,0,1,,,,,,,,,0,,,71,0
276322,note_on,3,0,1,,,,,,,,,0,,,69,127
276322,note_on,89,0,3,,,,,,,,,2,,,69,64
276322,note_on,90,0,2,,,,,,,,,1,,,69,64
276351,note_on,29,0,3,,,,,,,,,2,,,71,0
276351,note_on,29,0,2,,,,,,,,,1,,,71,0
276366,note_on,131,0,5,,,,,,,,,4,,,56,0
276366,note_on,131,0,6,,,,,,,,,5,,,56,0
276366,note_on,131,0,8,,,,,,,,,7,,,56,0
276408,note_on,86,0,1,,,,,,,,,0,,,69,0
276412,note_on,4,0,1,,,,,,,,,0,,,72,127
276412,note_on,46,0,6,,,,,,,,,5,,,57,90
276412,note_on,61,0,3,,,,,,,,,2,,,72,64
276412,note_on,61,0,2,,,,,,,,,1,,,72,64
276412,note_on,46,0,5,,,,,,,,,4,,,57,90
276413,note_on,47,0,8,,,,,,,,,7,,,57,127
276440,note_on,28,0,3,,,,,,,,,2,,,69,0
276440,note_on,28,0,2,,,,,,,,,1,,,69,0
276542,note_on,130,0,1,,,,,,,,,0,,,72,0
276542,note_on,102,0,2,,,,,,,,,1,,,72,0
276544,note_on,104,0,3,,,,,,,,,2,,,72,0
276544,note_on,487,0,4,,,,,,,,,3,,,64,0
276545,note_on,133,0,6,,,,,,,,,5,,,57,0
276545,note_on,132,0,8,,,,,,,,,7,,,57,0
276545,note_on,133,0,5,,,,,,,,,4,,,57,0
276589,note_on,47,0,1,,,,,,,,,0,,,71,127
276589,note_on,45,0,3,,,,,,,,,2,,,71,64
276589,note_on,47,0,2,,,,,,,,,1,,,71,64
276591,note_on,47,0,4,,,,,,,,,3,,,64,66
276592,note_on,47,0,5,,,,,,,,,4,,,45,90
276592,note_on,47,0,6,,,,,,,,,5,,,45,90
276592,note_on,47,0,8,,,,,,,,,7,,,45,127
276675,note_on,86,0,1,,,,,,,,,0,,,71,0
276678,note_on,3,0,1,,,,,,,,,0,,,69,127
276678,note_on,89,0,3,,,,,,,,,2,,,69,64
276678,note_on,89,0,2,,,,,,,,,1,,,69,64
276698,note_on,663,0,7,,,,,,,,,6,,,64,0
276701,note_on,3,0,7,,,,,,,,,6,,,72,0
276707,note_on,29,0,3,,,,,,,,,2,,,71,0
276707,note_on,29,0,2,,,,,,,,,1,,,71,0
276723,note_on,132,0,4,,,,,,,,,3,,,64,0
276723,note_on,131,0,6,,,,,,,,,5,,,45,0
276723,note_on,131,0,5,,,,,,,,,4,,,45,0
276723,note_on,131,0,8,,,,,,,,,7,,,45,0
276743,note_on,42,0,7,,,,,,,,,6,,,72,127
276743,note_on,0,0,7,,,,,,,,,6,,,65,127
276761,note_on,83,0,1,,,,,,,,,0,,,69,0
276767,note_on,60,0,3,,,,,,,,,2,,,77,64
276767,note_on,60,0,2,,,,,,,,,1,,,77,64
276767,note_on,6,0,1,,,,,,,,,0,,,77,127
276771,note_on,48,0,4,,,,,,,,,3,,,72,66
276771,note_on,48,0,6,,,,,,,,,5,,,57,90
276771,note_on,48,0,8,,,,,,,,,7,,,57,127
276771,note_on,48,0,5,,,,,,,,,4,,,57,90
276795,note_on,28,0,3,,,,,,,,,2,,,69,0
276795,note_on,28,0,2,,,,,,,,,1,,,69,0
276877,note_on,134,0,7,,,,,,,,,6,,,72,0
276897,note_on,102,0,3,,,,,,,,,2,,,77,0
276897,note_on,102,0,2,,,,,,,,,1,,,77,0
276897,note_on,130,0,1,,,,,,,,,0,,,77,0
276898,note_on,127,0,4,,,,,,,,,3,,,72,0
276899,note_on,128,0,5,,,,,,,,,4,,,57,0
276900,note_on,129,0,8,,,,,,,,,7,,,57,0
276900,note_on,129,0,6,,,,,,,,,5,,,57,0
276920,note_on,43,0,7,,,,,,,,,6,,,74,127
276942,note_on,45,0,1,,,,,,,,,0,,,74,127
276942,note_on,45,0,2,,,,,,,,,1,,,74,64
276943,note_on,43,0,6,,,,,,,,,5,,,59,90
276943,note_on,44,0,5,,,,,,,,,4,,,59,90
276943,note_on,46,0,3,,,,,,,,,2,,,74,64
276943,note_on,45,0,4,,,,,,,,,3,,,71,66
276944,note_on,44,0,8,,,,,,,,,7,,,59,127
277050,note_on,130,0,7,,,,,,,,,6,,,65,0
277055,note_on,5,0,7,,,,,,,,,6,,,74,0
277075,note_on,132,0,5,,,,,,,,,4,,,59,0
277076,note_on,133,0,6,,,,,,,,,5,,,59,0
277076,note_on,132,0,8,,,,,,,,,7,,,59,0
277098,note_on,0,0,7,,,,,,,,,6,,,64,127
277098,note_on,43,0,7,,,,,,,,,6,,,71,127
277120,note_on,44,0,8,,,,,,,,,7,,,56,127
277120,note_on,44,0,6,,,,,,,,,5,,,56,90
277120,note_on,45,0,5,,,,,,,,,4,,,56,90
277253,note_on,310,0,3,,,,,,,,,2,,,74,0
277253,note_on,311,0,2,,,,,,,,,1,,,74,0
277253,note_on,311,0,1,,,,,,,,,0,,,74,0
277254,note_on,311,0,4,,,,,,,,,3,,,71,0
277254,note_on,134,0,5,,,,,,,,,4,,,56,0
277255,note_on,135,0,6,,,,,,,,,5,,,56,0
277256,note_on,136,0,8,,,,,,,,,7,,,56,0
277299,note_on,46,0,3,,,,,,,,,2,,,76,64
277299,note_on,45,0,4,,,,,,,,,3,,,68,66
277299,note_on,46,0,2,,,,,,,,,1,,,76,64
277299,note_on,46,0,1,,,,,,,,,0,,,76,127
277299,note_on,45,0,5,,,,,,,,,4,,,52,90
277302,note_on,47,0,6,,,,,,,,,5,,,52,90
277302,note_on,46,0,8,,,,,,,,,7,,,52,127
277406,note_on,308,0,7,,,,,,,,,6,,,64,0
277408,note_on,2,0,7,,,,,,,,,6,,,71,0
277431,note_on,132,0,1,,,,,,,,,0,,,76,0
277431,note_on,132,0,2,,,,,,,,,1,,,76,0
277431,note_on,132,0,3,,,,,,,,,2,,,76,0
277434,note_on,132,0,8,,,,,,,,,7,,,52,0
277434,note_on,132,0,6,,,,,,,,,5,,,52,0
277434,note_on,135,0,5,,,,,,,,,4,,,52,0
277434,note_on,135,0,4,,,,,,,,,3,,,68,0
277450,note_on,42,0,7,,,,,,,,,6,,,72,127
277450,note_on,0,0,7,,,,,,,,,6,,,64,127
277477,note_on,46,0,1,,,,,,,,,0,,,72,127
277477,note_on,43,0,4,,,,,,,,,3,,,64,66
277477,note_on,46,0,2,,,,,,,,,1,,,72,64
277477,note_on,43,0,6,,,,,,,,,5,,,57,90
277477,note_on,46,0,3,,,,,,,,,2,,,72,64
277477,note_on,43,0,5,,,,,,,,,4,,,57,90
277477,note_on,43,0,8,,,,,,,,,7,,,57,127
277609,note_on,132,0,5,,,,,,,,,4,,,57,0
277609,note_on,132,0,1,,,,,,,,,0,,,72,0
277609,note_on,132,0,6,,,,,,,,,5,,,57,0
277609,note_on,132,0,2,,,,,,,,,1,,,72,0
277609,note_on,132,0,3,,,,,,,,,2,,,72,0
277611,note_on,134,0,8,,,,,,,,,7,,,57,0
277654,note_on,45,0,2,,,,,,,,,1,,,71,64
277654,note_on,45,0,1,,,,,,,,,0,,,71,127
277654,note_on,45,0,6,,,,,,,,,5,,,56,90
277654,note_on,43,0,8,,,,,,,,,7,,,56,127
277654,note_on,45,0,5,,,,,,,,,4,,,56,90
277654,note_on,45,0,3,,,,,,,,,2,,,71,64
277737,note_on,83,0,1,,,,,,,,,0,,,71,0
277741,note_on,87,0,3,,,,,,,,,2,,,69,64
277741,note_on,87,0,2,,,,,,,,,1,,,69,64
277741,note_on,4,0,1,,,,,,,,,0,,,69,127
277770,note_on,29,0,3,,,,,,,,,2,,,71,0
277770,note_on,29,0,2,,,,,,,,,1,,,71,0
277786,note_on,132,0,8,,,,,,,,,7,,,56,0
277786,note_on,132,0,5,,,,,,,,,4,,,56,0
277786,note_on,132,0,6,,,,,,,,,5,,,56,0
277829,note_on,88,0,1,,,,,,,,,0,,,69,0
277829,note_on,0,0,1,,,,,,,,,0,,,72,127
277832,note_on,46,0,8,,,,,,,,,7,,,57,127
277832,note_on,62,0,3,,,,,,,,,2,,,72,64
277832,note_on,46,0,6,,,,,,,,,5,,,57,90
277832,note_on,62,0,2,,,,,,,,,1,,,72,64
277832,note_on,46,0,5,,,,,,,,,4,,,57,90
277859,note_on,27,0,2,,,,,,,,,1,,,69,0
277859,note_on,27,0,3,,,,,,,,,2,,,69,0
277960,note_on,131,0,1,,,,,,,,,0,,,72,0
277962,note_on,103,0,2,,,,,,,,,1,,,72,0
277962,note_on,103,0,3,,,,,,,,,2,,,72,0
277963,note_on,486,0,4,,,,,,,,,3,,,64,0
277964,note_on,132,0,6,,,,,,,,,5,,,57,0
277964,note_on,132,0,8,,,,,,,,,7,,,57,0
277964,note_on,132,0,5,,,,,,,,,4,,,57,0
278006,note_on,46,0,1,,,,,,,,,0,,,71,127
278007,note_on,45,0,3,,,,,,,,,2,,,71,64
278007,note_on,45,0,2,,,,,,,,,1,,,71,64
278010,note_on,46,0,5,,,,,,,,,4,,,45,90
278010,note_on,46,0,6,,,,,,,,,5,,,45,90
278010,note_on,46,0,8,,,,,,,,,7,,,45,127
278010,note_on,47,0,4,,,,,,,,,3,,,66,66
278092,note_on,86,0,1,,,,,,,,,0,,,71,0
278095,note_on,88,0,3,,,,,,,,,2,,,69,64
278095,note_on,3,0,1,,,,,,,,,0,,,69,127
278095,note_on,88,0,2,,,,,,,,,1,,,69,64
278115,note_on,665,0,7,,,,,,,,,6,,,64,0
278119,note_on,4,0,7,,,,,,,,,6,,,72,0
278122,note_on,27,0,2,,,,,,,,,1,,,71,0
278123,note_on,28,0,3,,,,,,,,,2,,,71,0
278139,note_on,129,0,5,,,,,,,,,4,,,45,0
278139,note_on,129,0,4,,,,,,,,,3,,,66,0
278141,note_on,131,0,8,,,,,,,,,7,,,45,0
278141,note_on,131,0,6,,,,,,,,,5,,,45,0
278161,note_on,0,0,7,,,,,,,,,6,,,64,127
278161,note_on,42,0,7,,,,,,,,,6,,,73,127
278181,note_on,86,0,1,,,,,,,,,0,,,69,0
278182,note_on,1,0,1,,,,,,,,,0,,,81,127
278183,note_on,61,0,2,,,,,,,,,1,,,81,64
278184,note_on,61,0,3,,,,,,,,,2,,,81,64
278184,note_on,45,0,5,,,,,,,,,4,,,57,90
278184,note_on,45,0,4,,,,,,,,,3,,,61,66
278185,note_on,44,0,6,,,,,,,,,5,,,57,90
278186,note_on,45,0,8,,,,,,,,,7,,,57,127
278213,note_on,30,0,2,,,,,,,,,1,,,69,0
278213,note_on,29,0,3,,,,,,,,,2,,,69,0
278293,note_on,132,0,7,,,,,,,,,6,,,64,0
278296,note_on,3,0,7,,,,,,,,,6,,,73,0
278317,note_on,133,0,4,,,,,,,,,3,,,61,0
278317,note_on,104,0,2,,,,,,,,,1,,,81,0
278317,note_on,104,0,3,,,,,,,,,2,,,81,0
278317,note_on,135,0,1,,,,,,,,,0,,,81,0
278320,note_on,136,0,5,,,,,,,,,4,,,57,0
278320,note_on,134,0,8,,,,,,,,,7,,,57,0
278320,note_on,135,0,6,,,,,,,,,5,,,57,0
278338,note_on,42,0,7,,,,,,,,,6,,,74,127
278338,note_on,0,0,7,,,,,,,,,6,,,66,127
278362,note_on,45,0,1,,,,,,,,,0,,,80,127
278362,note_on,45,0,2,,,,,,,,,1,,,80,65
278362,note_on,45,0,3,,,,,,,,,2,,,80,64
278363,note_on,43,0,5,,,,,,,,,4,,,62,90
278363,note_on,46,0,4,,,,,,,,,3,,,66,66
278365,note_on,45,0,8,,,,,,,,,7,,,62,127
278365,note_on,45,0,6,,,,,,,,,5,,,62,90
278447,note_on,85,0,1,,,,,,,,,0,,,80,0
278451,note_on,89,0,2,,,,,,,,,1,,,78,65
278451,note_on,89,0,3,,,,,,,,,2,,,78,64
278451,note_on,4,0,1,,,,,,,,,0,,,78,127
278470,note_on,132,0,7,,,,,,,,,6,,,66,0
278472,note_on,2,0,7,,,,,,,,,6,,,74,0
278479,note_on,28,0,2,,,,,,,,,1,,,80,0
278479,note_on,28,0,3,,,,,,,,,2,,,80,0
278494,note_on,131,0,4,,,,,,,,,3,,,66,0
278495,note_on,130,0,8,,,,,,,,,7,,,62,0
278495,note_on,132,0,5,,,,,,,,,4,,,62,0
278495,note_on,130,0,6,,,,,,,,,5,,,62,0
278515,note_on,0,0,7,,,,,,,,,6,,,71,127
278515,note_on,43,0,7,,,,,,,,,6,,,76,127
278536,note_on,85,0,1,,,,,,,,,0,,,78,0
278540,note_on,61,0,3,,,,,,,,,2,,,76,64
278540,note_on,61,0,2,,,,,,,,,1,,,76,65
278540,note_on,4,0,1,,,,,,,,,0,,,76,127
278540,note_on,46,0,4,,,,,,,,,3,,,59,66
278540,note_on,45,0,5,,,,,,,,,4,,,56,90
278543,note_on,48,0,8,,,,,,,,,7,,,56,127
278543,note_on,48,0,6,,,,,,,,,5,,,56,90
278568,note_on,28,0,2,,,,,,,,,1,,,78,0
278568,note_on,28,0,3,,,,,,,,,2,,,78,0
278646,note_on,131,0,7,,,,,,,,,6,,,71,0
278651,note_on,5,0,7,,,,,,,,,6,,,76,0
278675,note_on,135,0,5,,,,,,,,,4,,,56,0
278675,note_on,132,0,6,,,,,,,,,5,,,56,0
278675,note_on,135,0,1,,,,,,,,,0,,,76,0
278675,note_on,135,0,4,,,,,,,,,3,,,59,0
278675,note_on,107,0,2,,,,,,,,,1,,,76,0
278675,note_on,132,0,8,,,,,,,,,7,,,56,0
278675,note_on,107,0,3,,,,,,,,,2,,,76,0
278692,note_on,41,0,7,,,,,,,,,6,,,74,127
278692,note_on,0,0,7,,,,,,,,,6,,,68,127
278717,note_on,42,0,1,,,,,,,,,0,,,74,127
278717,note_on,42,0,2,,,,,,,,,1,,,74,65
278717,note_on,42,0,3,,,,,,,,,2,,,74,64
278719,note_on,44,0,6,,,,,,,,,5,,,52,90
278719,note_on,44,0,8,,,,,,,,,7,,,52,127
278719,note_on,44,0,5,,,,,,,,,4,,,52,90
278719,note_on,44,0,4,,,,,,,,,3,,,68,66
278826,note_on,134,0,7,,,,,,,,,6,,,68,0
278827,note_on,1,0,7,,,,,,,,,6,,,74,0
278849,note_on,130,0,4,,,,,,,,,3,,,68,0
278849,note_on,132,0,3,,,,,,,,,2,,,74,0
278849,note_on,130,0,5,,,,,,,,,4,,,52,0
278849,note_on,132,0,1,,,,,,,,,0,,,74,0
278849,note_on,132,0,2,,,,,,,,,1,,,74,0
278850,note_on,131,0,8,,,,,,,,,7,,,52,0
278850,note_on,131,0,6,,,,,,,,,5,,,52,0
278871,note_on,44,0,7,,,,,,,,,6,,,73,127
278871,note_on,0,0,7,,,,,,,,,6,,,64,127
278893,note_on,44,0,1,,,,,,,,,0,,,73,127
278895,note_on,46,0,4,,,,,,,,,3,,,64,66
278895,note_on,46,0,3,,,,,,,,,2,,,73,64
278895,note_on,46,0,2,,,,,,,,,1,,,73,65
278896,note_on,47,0,5,,,,,,,,,4,,,57,90
278896,note_on,46,0,6,,,,,,,,,5,,,57,90
278896,note_on,46,0,8,,,,,,,,,7,,,57,127
279026,note_on,133,0,1,,,,,,,,,0,,,73,0
279028,note_on,133,0,3,,,,,,,,,2,,,73,0
279028,note_on,133,0,2,,,,,,,,,1,,,73,0
279029,note_on,134,0,4,,,,,,,,,3,,,64,0
279029,note_on,133,0,5,,,,,,,,,4,,,57,0
279030,note_on,134,0,6,,,,,,,,,5,,,57,0
279030,note_on,134,0,8,,,,,,,,,7,,,57,0
279070,note_on,42,0,2,,,,,,,,,1,,,69,65
279070,note_on,44,0,1,,,,,,,,,0,,,69,127
279074,note_on,44,0,6,,,,,,,,,5,,,45,90
279074,note_on,44,0,8,,,,,,,,,7,,,45,127
279074,note_on,45,0,5,,,,,,,,,4,,,45,90
279074,note_on,45,0,4,,,,,,,,,3,,,64,66
279074,note_on,46,0,3,,,,,,,,,2,,,69,64
279181,note_on,310,0,7,,,,,,,,,6,,,64,0
279182,note_on,1,0,7,,,,,,,,,6,,,73,0
279201,note_on,131,0,1,,,,,,,,,0,,,69,0
279201,note_on,127,0,3,,,,,,,,,2,,,69,0
279201,note_on,131,0,2,,,,,,,,,1,,,69,0
279203,note_on,129,0,5,,,,,,,,,4,,,45,0
279203,note_on,129,0,4,,,,,,,,,3,,,64,0
279204,note_on,130,0,6,,,,,,,,,5,,,45,0
279204,note_on,130,0,8,,,,,,,,,7,,,45,0
279225,note_on,43,0,7,,,,,,,,,6,,,71,127
279225,note_on,0,0,7,,,,,,,,,6,,,66,127
279248,note_on,47,0,2,,,,,,,,,1,,,71,65
279248,note_on,47,0,1,,,,,,,,,0,,,71,127
279251,note_on,48,0,4,,,,,,,,,3,,,66,66
279251,note_on,48,0,5,,,,,,,,,4,,,50,90
279251,note_on,50,0,3,,,,,,,,,2,,,71,64
279251,note_on,47,0,8,,,,,,,,,7,,,50,127
279251,note_on,47,0,6,,,,,,,,,5,,,50,90
279357,note_on,132,0,7,,,,,,,,,6,,,66,0
279380,note_on,132,0,2,,,,,,,,,1,,,71,0
279380,note_on,132,0,1,,,,,,,,,0,,,71,0
279383,note_on,132,0,3,,,,,,,,,2,,,71,0
279383,note_on,132,0,6,,,,,,,,,5,,,50,0
279383,note_on,132,0,5,,,,,,,,,4,,,50,0
279383,note_on,132,0,4,,,,,,,,,3,,,66,0
279383,note_on,132,0,8,,,,,,,,,7,,,50,0
279401,note_on,44,0,7,,,,,,,,,6,,,68,127
279422,note_on,42,0,1,,,,,,,,,0,,,68,127
279423,note_on,43,0,2,,,,,,,,,1,,,68,65
279424,note_on,41,0,5,,,,,,,,,4,,,52,90
279424,note_on,41,0,3,,,,,,,,,2,,,68,64
279424,note_on,41,0,4,,,,,,,,,3,,,59,66
279425,note_on,42,0,6,,,,,,,,,5,,,52,90
279425,note_on,42,0,8,,,,,,,,,7,,,52,127
279534,note_on,133,0,7,,,,,,,,,6,,,68,0
279535,note_on,1,0,7,,,,,,,,,6,,,71,0
279561,note_on,136,0,6,,,,,,,,,5,,,52,0
279561,note_on,139,0,1,,,,,,,,,0,,,68,0
279561,note_on,137,0,3,,,,,,,,,2,,,68,0
279561,note_on,138,0,2,,,,,,,,,1,,,68,0
279561,note_on,136,0,8,,,,,,,,,7,,,52,0
279561,note_on,137,0,5,,,,,,,,,4,,,52,0
279561,note_on,137,0,4,,,,,,,,,3,,,59,0
279579,note_on,44,0,7,,,,,,,,,6,,,61,127
279580,note_on,1,0,7,,,,,,,,,6,,,64,127
279581,note_on,1,0,7,,,,,,,,,6,,,69,127
279604,note_on,43,0,4,,,,,,,,,3,,,61,66
279604,note_on,43,0,2,,,,,,,,,1,,,69,65
279604,note_on,43,0,5,,,,,,,,,4,,,45,90
279604,note_on,43,0,6,,,,,,,,,5,,,45,90
279604,note_on,43,0,3,,,,,,,,,2,,,69,64
279604,note_on,43,0,1,,,,,,,,,0,,,69,127
279606,note_on,45,0,8,,,,,,,,,7,,,45,127
279910,note_on,306,0,6,,,,,,,,,5,,,45,0
279935,note_on,354,0,7,,,,,,,,,6,,,61,0
279936,note_on,1,0,7,,,,,,,,,6,,,69,0
279936,note_on,0,0,7,,,,,,,,,6,,,64,0
279957,note_on,353,0,5,,,,,,,,,4,,,45,0
279957,note_on,353,0,3,,,,,,,,,2,,,69,0
279957,note_on,353,0,2,,,,,,,,,1,,,69,0
279957,note_on,353,0,4,,,,,,,,,3,,,61,0
279957,note_on,353,0,1,,,,,,,,,0,,,69,0
279958,note_on,352,0,8,,,,,,,,,7,,,45,0
280131,note_on,174,0,1,,,,,,,,,0,,,81,127
280132,note_on,175,0,3,,,,,,,,,2,,,57,64
280132,note_on,175,0,2,,,,,,,,,1,,,57,65
280133,note_on,176,0,4,,,,,,,,,3,,,57,66
280267,note_on,136,0,1,,,,,,,,,0,,,81,0
280267,note_on,135,0,2,,,,,,,,,1,,,57,0
280269,note_on,137,0,3,,,,,,,,,2,,,57,0
280269,note_on,136,0,4,,,,,,,,,3,,,57,0
280313,note_on,44,0,3,,,,,,,,,2,,,57,64
280313,note_on,46,0,2,,,,,,,,,1,,,57,65
280313,note_on,44,0,4,,,,,,,,,3,,,57,66
280313,note_on,46,0,1,,,,,,,,,0,,,85,127
280443,note_on,130,0,1,,,,,,,,,0,,,85,0
280447,note_on,134,0,3,,,,,,,,,2,,,57,0
280447,note_on,134,0,4,,,,,,,,,3,,,57,0
280447,note_on,134,0,2,,,,,,,,,1,,,57,0
280489,note_on,46,0,1,,,,,,,,,0,,,83,127
280489,note_on,42,0,2,,,,,,,,,1,,,59,65
280489,note_on,42,0,3,,,,,,,,,2,,,59,64
280489,note_on,42,0,4,,,,,,,,,3,,,59,66
280574,note_on,85,0,1,,,,,,,,,0,,,83,0
280577,note_on,3,0,1,,,,,,,,,0,,,81,127
280621,note_on,132,0,4,,,,,,,,,3,,,59,0
280621,note_on,132,0,2,,,,,,,,,1,,,59,0
280621,note_on,132,0,3,,,,,,,,,2,,,59,0
280661,note_on,84,0,1,,,,,,,,,0,,,81,0
280666,note_on,5,0,1,,,,,,,,,0,,,88,127
280666,note_on,45,0,3,,,,,,,,,2,,,59,64
280666,note_on,45,0,2,,,,,,,,,1,,,59,65
280667,note_on,46,0,4,,,,,,,,,3,,,61,66
280798,note_on,132,0,1,,,,,,,,,0,,,88,0
280798,note_on,132,0,2,,,,,,,,,1,,,59,0
280799,note_on,133,0,3,,,,,,,,,2,,,59,0
280799,note_on,132,0,4,,,,,,,,,3,,,61,0
280843,note_on,45,0,1,,,,,,,,,0,,,88,127
280845,note_on,47,0,2,,,,,,,,,1,,,56,65
280845,note_on,46,0,3,,,,,,,,,2,,,56,64
280845,note_on,46,0,4,,,,,,,,,3,,,56,66
280978,note_on,133,0,3,,,,,,,,,2,,,56,0
280978,note_on,133,0,2,,,,,,,,,1,,,56,0
280978,note_on,133,0,4,,,,,,,,,3,,,56,0
280978,note_on,135,0,1,,,,,,,,,0,,,88,0
281020,note_on,42,0,2,,,,,,,,,1,,,57,65
281020,note_on,42,0,1,,,,,,,,,0,,,85,127
281022,note_on,44,0,4,,,,,,,,,3,,,57,66
281022,note_on,44,0,3,,,,,,,,,2,,,57,64
281154,note_on,134,0,1,,,,,,,,,0,,,85,0
281154,note_on,132,0,3,,,,,,,,,2,,,57,0
281154,note_on,134,0,2,,,,,,,,,1,,,57,0
281154,note_on,132,0,4,,,,,,,,,3,,,57,0
281197,note_on,43,0,1,,,,,,,,,0,,,83,127
281197,note_on,43,0,2,,,,,,,,,1,,,59,65
281200,note_on,46,0,3,,,,,,,,,2,,,59,64
281200,note_on,46,0,4,,,,,,,,,3,,,59,66
281285,note_on,88,0,1,,,,,,,,,0,,,83,0
281285,note_on,0,0,1,,,,,,,,,0,,,81,127
281331,note_on,134,0,2,,,,,,,,,1,,,59,0
281331,note_on,131,0,4,,,,,,,,,3,,,59,0
281331,note_on,131,0,3,,,,,,,,,2,,,59,0
281372,note_on,87,0,1,,,,,,,,,0,,,81,0
281375,note_on,44,0,3,,,,,,,,,2,,,61,65
281375,note_on,3,0,1,,,,,,,,,0,,,88,127
281375,note_on,44,0,4,,,,,,,,,3,,,61,66
281375,note_on,44,0,2,,,,,,,,,1,,,61,65
281506,note_on,131,0,1,,,,,,,,,0,,,88,0
281507,note_on,132,0,2,,,,,,,,,1,,,61,0
281508,note_on,133,0,3,,,,,,,,,2,,,61,0
281508,note_on,133,0,4,,,,,,,,,3,,,61,0
281551,note_on,45,0,1,,,,,,,,,0,,,88,127
281554,note_on,46,0,3,,,,,,,,,2,,,56,65
281554,note_on,47,0,2,,,,,,,,,1,,,56,65
281554,note_on,46,0,4,,,,,,,,,3,,,56,66
281684,note_on,133,0,1,,,,,,,,,0,,,88,0
281685,note_on,131,0,3,,,,,,,,,2,,,56,0
281685,note_on,131,0,2,,,,,,,,,1,,,56,0
281686,note_on,132,0,4,,,,,,,,,3,,,56,0
281729,note_on,45,0,1,,,,,,,,,0,,,85,127
281730,note_on,45,0,3,,,,,,,,,2,,,57,65
281730,note_on,44,0,4,,,,,,,,,3,,,57,66
281730,note_on,45,0,2,,,,,,,,,1,,,57,65
281862,note_on,132,0,2,,,,,,,,,1,,,57,0
281862,note_on,133,0,1,,,,,,,,,0,,,85,0
281864,note_on,134,0,4,,,,,,,,,3,,,57,0
281864,note_on,134,0,3,,,,,,,,,2,,,57,0
281906,note_on,44,0,1,,,,,,,,,0,,,83,127
281908,note_on,46,0,2,,,,,,,,,1,,,69,65
281908,note_on,44,0,4,,,,,,,,,3,,,69,66
281908,note_on,44,0,3,,,,,,,,,2,,,69,65
281991,note_on,85,0,1,,,,,,,,,0,,,83,0
281995,note_on,4,0,1,,,,,,,,,0,,,81,127
282040,note_on,132,0,4,,,,,,,,,3,,,69,0
282040,note_on,132,0,2,,,,,,,,,1,,,69,0
282040,note_on,132,0,3,,,,,,,,,2,,,69,0
282080,note_on,85,0,1,,,,,,,,,0,,,81,0
282086,note_on,46,0,2,,,,,,,,,1,,,71,65
282086,note_on,6,0,1,,,,,,,,,0,,,86,127
282086,note_on,46,0,3,,,,,,,,,2,,,71,65
282086,note_on,46,0,4,,,,,,,,,3,,,71,66
282217,note_on,131,0,3,,,,,,,,,2,,,71,0
282217,note_on,131,0,1,,,,,,,,,0,,,86,0
282217,note_on,131,0,4,,,,,,,,,3,,,71,0
282217,note_on,131,0,2,,,,,,,,,1,,,71,0
282262,note_on,45,0,4,,,,,,,,,3,,,69,66
282262,note_on,45,0,1,,,,,,,,,0,,,85,127
282262,note_on,45,0,2,,,,,,,,,1,,,69,65
282262,note_on,45,0,3,,,,,,,,,2,,,69,65
282392,note_on,130,0,1,,,,,,,,,0,,,85,0
282393,note_on,131,0,2,,,,,,,,,1,,,69,0
282394,note_on,132,0,3,,,,,,,,,2,,,69,0
282394,note_on,132,0,4,,,,,,,,,3,,,69,0
282437,note_on,44,0,2,,,,,,,,,1,,,64,65
282437,note_on,45,0,1,,,,,,,,,0,,,83,127
282438,note_on,44,0,3,,,,,,,,,2,,,64,65
282438,note_on,44,0,4,,,,,,,,,3,,,64,66
282793,note_on,356,0,2,,,,,,,,,1,,,64,0
282793,note_on,356,0,1,,,,,,,,,0,,,83,0
282793,note_on,355,0,4,,,,,,,,,3,,,64,0
282793,note_on,355,0,3,,,,,,,,,2,,,64,0
282971,note_on,178,0,2,,,,,,,,,1,,,57,65
282971,note_on,178,0,4,,,,,,,,,3,,,57,66
282971,note_on,178,0,3,,,,,,,,,2,,,57,65
282971,note_on,178,0,1,,,,,,,,,0,,,69,127
283103,note_on,132,0,1,,,,,,,,,0,,,69,0
283103,note_on,132,0,3,,,,,,,,,2,,,57,0
283103,note_on,132,0,4,,,,,,,,,3,,,57,0
283103,note_on,132,0,2,,,,,,,,,1,,,57,0
283148,note_on,45,0,3,,,,,,,,,2,,,57,65
283148,note_on,45,0,2,,,,,,,,,1,,,57,65
283148,note_on,45,0,1,,,,,,,,,0,,,73,127
283150,note_on,47,0,4,,,,,,,,,3,,,57,66
283281,note_on,133,0,3,,,,,,,,,2,,,57,0
283281,note_on,133,0,2,,,,,,,,,1,,,57,0
283281,note_on,133,0,1,,,,,,,,,0,,,73,0
283281,note_on,131,0,4,,,,,,,,,3,,,57,0
283325,note_on,44,0,4,,,,,,,,,3,,,59,66
283325,note_on,44,0,2,,,,,,,,,1,,,59,65
283325,note_on,44,0,3,,,,,,,,,2,,,59,65
283325,note_on,44,0,1,,,,,,,,,0,,,71,127
283410,note_on,85,0,1,,,,,,,,,0,,,71,0
283413,note_on,3,0,1,,,,,,,,,0,,,69,127
283457,note_on,132,0,2,,,,,,,,,1,,,59,0
283458,note_on,133,0,3,,,,,,,,,2,,,59,0
283458,note_on,133,0,4,,,,,,,,,3,,,59,0
283500,note_on,87,0,1,,,,,,,,,0,,,69,0
283502,note_on,2,0,1,,,,,,,,,0,,,76,127
283502,note_on,44,0,3,,,,,,,,,2,,,61,65
283502,note_on,44,0,4,,,,,,,,,3,,,61,66
283502,note_on,45,0,2,,,,,,,,,1,,,61,65
283636,note_on,134,0,4,,,,,,,,,3,,,61,0
283636,note_on,134,0,2,,,,,,,,,1,,,61,0
283636,note_on,134,0,1,,,,,,,,,0,,,76,0
283636,note_on,134,0,3,,,,,,,,,2,,,61,0
283679,note_on,43,0,1,,,,,,,,,0,,,76,127
283679,note_on,43,0,3,,,,,,,,,2,,,56,65
283679,note_on,43,0,2,,,,,,,,,1,,,56,65
283681,note_on,45,0,4,,,,,,,,,3,,,56,66
283811,note_on,132,0,1,,,,,,,,,0,,,76,0
283813,note_on,134,0,3,,,,,,,,,2,,,56,0
283813,note_on,132,0,4,,,,,,,,,3,,,56,0
283813,note_on,134,0,2,,,,,,,,,1,,,56,0
283857,note_on,46,0,1,,,,,,,,,0,,,73,127
283858,note_on,45,0,2,,,,,,,,,1,,,57,65
283858,note_on,45,0,4,,,,,,,,,3,,,57,66
283858,note_on,45,0,3,,,,,,,,,2,,,57,65
283991,note_on,133,0,2,,,,,,,,,1,,,57,0
283991,note_on,133,0,4,,,,,,,,,3,,,57,0
283991,note_on,133,0,3,,,,,,,,,2,,,57,0
283991,note_on,134,0,1,,,,,,,,,0,,,73,0
284030,note_on,39,0,1,,,,,,,,,0,,,71,127
284030,note_on,39,0,2,,,,,,,,,1,,,59,65
284031,note_on,40,0,3,,,,,,,,,2,,,59,65
284032,note_on,41,0,4,,,,,,,,,3,,,59,66
284120,note_on,90,0,1,,,,,,,,,0,,,71,0
284122,note_on,2,0,1,,,,,,,,,0,,,69,127
284165,note_on,135,0,2,,,,,,,,,1,,,59,0
284166,note_on,134,0,4,,,,,,,,,3,,,59,0
284166,note_on,135,0,3,,,,,,,,,2,,,59,0
284206,note_on,84,0,1,,,,,,,,,0,,,69,0
284211,note_on,5,0,1,,,,,,,,,0,,,76,127
284212,note_on,46,0,3,,,,,,,,,2,,,61,65
284212,note_on,47,0,2,,,,,,,,,1,,,61,65
284212,note_on,46,0,4,,,,,,,,,3,,,61,66
284344,note_on,133,0,1,,,,,,,,,0,,,76,0
284344,note_on,132,0,3,,,,,,,,,2,,,61,0
284344,note_on,132,0,4,,,,,,,,,3,,,61,0
284344,note_on,132,0,2,,,,,,,,,1,,,61,0
284387,note_on,43,0,1,,,,,,,,,0,,,76,127
284388,note_on,44,0,2,,,,,,,,,1,,,56,65
284388,note_on,44,0,3,,,,,,,,,2,,,56,65
284389,note_on,45,0,4,,,,,,,,,3,,,56,66
284521,note_on,133,0,2,,,,,,,,,1,,,56,0
284521,note_on,134,0,1,,,,,,,,,0,,,76,0
284524,note_on,136,0,3,,,,,,,,,2,,,56,0
284524,note_on,135,0,4,,,,,,,,,3,,,56,0
284565,note_on,44,0,1,,,,,,,,,0,,,73,127
284566,note_on,42,0,3,,,,,,,,,2,,,57,65
284566,note_on,45,0,2,,,,,,,,,1,,,57,65
284567,note_on,43,0,4,,,,,,,,,3,,,57,66
284698,note_on,132,0,2,,,,,,,,,1,,,57,0
284698,note_on,133,0,1,,,,,,,,,0,,,73,0
284701,note_on,135,0,3,,,,,,,,,2,,,57,0
284701,note_on,134,0,4,,,,,,,,,3,,,57,0
284743,note_on,45,0,1,,,,,,,,,0,,,71,127
284743,note_on,45,0,2,,,,,,,,,1,,,69,65
284745,note_on,44,0,3,,,,,,,,,2,,,69,65
284745,note_on,44,0,4,,,,,,,,,3,,,69,66
284830,note_on,87,0,1,,,,,,,,,0,,,71,0
284830,note_on,0,0,1,,,,,,,,,0,,,69,127
284877,note_on,132,0,4,,,,,,,,,3,,,69,0
284877,note_on,134,0,2,,,,,,,,,1,,,69,0
284877,note_on,132,0,3,,,,,,,,,2,,,69,0
284917,note_on,87,0,1,,,,,,,,,0,,,69,0
284921,note_on,4,0,1,,,,,,,,,0,,,74,127
284922,note_on,45,0,4,,,,,,,,,3,,,71,66
284922,note_on,45,0,3,,,,,,,,,2,,,71,65
284922,note_on,45,0,2,,,,,,,,,1,,,71,65
285053,note_on,131,0,4,,,,,,,,,3,,,71,0
285053,note_on,131,0,2,,,,,,,,,1,,,71,0
285053,note_on,132,0,1,,,,,,,,,0,,,74,0
285053,note_on,131,0,3,,,,,,,,,2,,,71,0
285097,note_on,44,0,1,,,,,,,,,0,,,73,127
285098,note_on,45,0,3,,,,,,,,,2,,,69,65
285098,note_on,45,0,2,,,,,,,,,1,,,69,65
285098,note_on,45,0,4,,,,,,,,,3,,,69,66
285229,note_on,132,0,1,,,,,,,,,0,,,73,0
285232,note_on,134,0,2,,,,,,,,,1,,,69,0
285232,note_on,134,0,4,,,,,,,,,3,,,69,0
285232,note_on,134,0,3,,,,,,,,,2,,,69,0
285274,note_on,45,0,1,,,,,,,,,0,,,71,127
285275,note_on,43,0,4,,,,,,,,,3,,,68,66
285275,note_on,43,0,2,,,,,,,,,1,,,68,65
285275,note_on,43,0,3,,,,,,,,,2,,,68,65
285407,note_on,132,0,3,,,,,,,,,2,,,68,0
285407,note_on,132,0,2,,,,,,,,,1,,,68,0
285407,note_on,132,0,4,,,,,,,,,3,,,68,0
285453,note_on,46,0,2,,,,,,,,,1,,,66,65
285453,note_on,46,0,3,,,,,,,,,2,,,66,65
285453,note_on,46,0,4,,,,,,,,,3,,,66,66
285586,note_on,133,0,3,,,,,,,,,2,,,66,0
285586,note_on,133,0,2,,,,,,,,,1,,,66,0
285586,note_on,133,0,4,,,,,,,,,3,,,66,0
285629,note_on,355,0,1,,,,,,,,,0,,,71,0
285629,note_on,43,0,2,,,,,,,,,1,,,68,65
285632,note_on,46,0,3,,,,,,,,,2,,,68,65
285632,note_on,46,0,4,,,,,,,,,3,,,68,66
285760,note_on,128,0,3,,,,,,,,,2,,,68,0
285760,note_on,131,0,2,,,,,,,,,1,,,68,0
285760,note_on,128,0,4,,,,,,,,,3,,,68,0
285807,note_on,47,0,2,,,,,,,,,1,,,64,65
285807,note_on,178,0,1,,,,,,,,,0,,,83,127
285808,note_on,48,0,3,,,,,,,,,2,,,64,65
285808,note_on,48,0,4,,,,,,,,,3,,,64,66
285937,note_on,130,0,1,,,,,,,,,0,,,83,0
285940,note_on,133,0,2,,,,,,,,,1,,,64,0
285940,note_on,132,0,3,,,,,,,,,2,,,64,0
285940,note_on,132,0,4,,,,,,,,,3,,,64,0
285984,note_on,44,0,3,,,,,,,,,2,,,69,65
285984,note_on,44,0,2,,,,,,,,,1,,,69,65
285984,note_on,47,0,1,,,,,,,,,0,,,85,127
285984,note_on,44,0,4,,,,,,,,,3,,,69,66
286050,note_on,66,0,1,,,,,,,,,0,,,85,0
286072,note_on,22,0,1,,,,,,,,,0,,,88,127
286116,note_on,132,0,2,,,,,,,,,1,,,69,0
286117,note_on,133,0,3,,,,,,,,,2,,,69,0
286117,note_on,133,0,4,,,,,,,,,3,,,69,0
286136,note_on,64,0,1,,,,,,,,,0,,,88,0
286160,note_on,24,0,1,,,,,,,,,0,,,85,127
286162,note_on,46,0,2,,,,,,,,,1,,,68,65
286162,note_on,45,0,3,,,,,,,,,2,,,68,65
286162,note_on,45,0,4,,,,,,,,,3,,,68,66
286223,note_on,63,0,1,,,,,,,,,0,,,85,0
286249,note_on,26,0,1,,,,,,,,,0,,,81,127
286294,note_on,132,0,3,,,,,,,,,2,,,68,0
286294,note_on,132,0,4,,,,,,,,,3,,,68,0
286294,note_on,132,0,2,,,,,,,,,1,,,68,0
286315,note_on,66,0,1,,,,,,,,,0,,,81,0
286338,note_on,23,0,1,,,,,,,,,0,,,85,127
286338,note_on,44,0,2,,,,,,,,,1,,,69,65
286338,note_on,44,0,3,,,,,,,,,2,,,69,65
286340,note_on,46,0,4,,,,,,,,,3,,,69,66
286403,note_on,65,0,1,,,,,,,,,0,,,85,0
286427,note_on,24,0,1,,,,,,,,,0,,,88,127
286471,note_on,133,0,2,,,,,,,,,1,,,69,0
286472,note_on,132,0,4,,,,,,,,,3,,,69,0
286472,note_on,134,0,3,,,,,,,,,2,,,69,0
286490,note_on,63,0,1,,,,,,,,,0,,,88,0
286516,note_on,26,0,1,,,,,,,,,0,,,85,127
286516,note_on,45,0,2,,,,,,,,,1,,,57,65
286516,note_on,44,0,3,,,,,,,,,2,,,57,65
286518,note_on,46,0,4,,,,,,,,,3,,,57,66
286578,note_on,62,0,1,,,,,,,,,0,,,85,0
286603,note_on,25,0,1,,,,,,,,,0,,,81,127
286649,note_on,133,0,3,,,,,,,,,2,,,57,0
286649,note_on,131,0,4,,,,,,,,,3,,,57,0
286649,note_on,133,0,2,,,,,,,,,1,,,57,0
286666,note_on,63,0,1,,,,,,,,,0,,,81,0
286692,note_on,26,0,1,,,,,,,,,0,,,83,127
286695,note_on,46,0,4,,,,,,,,,3,,,68,66
286695,note_on,46,0,3,,,,,,,,,2,,,68,65
286695,note_on,46,0,2,,,,,,,,,1,,,68,65
286756,note_on,64,0,1,,,,,,,,,0,,,83,0
286778,note_on,22,0,1,,,,,,,,,0,,,86,127
286826,note_on,131,0,4,,,,,,,,,3,,,68,0
286826,note_on,131,0,3,,,,,,,,,2,,,68,0
286826,note_on,131,0,2,,,,,,,,,1,,,68,0
286845,note_on,67,0,1,,,,,,,,,0,,,86,0
286868,note_on,23,0,1,,,,,,,,,0,,,83,127
286871,note_on,45,0,2,,,,,,,,,1,,,69,65
286871,note_on,45,0,3,,,,,,,,,2,,,69,65
286871,note_on,45,0,4,,,,,,,,,3,,,69,66
286935,note_on,67,0,1,,,,,,,,,0,,,83,0
286958,note_on,23,0,1,,,,,,,,,0,,,80,127
287003,note_on,132,0,2,,,,,,,,,1,,,69,0
287003,note_on,132,0,4,,,,,,,,,3,,,69,0
287003,note_on,132,0,3,,,,,,,,,2,,,69,0
287021,note_on,63,0,1,,,,,,,,,0,,,80,0
287046,note_on,25,0,1,,,,,,,,,0,,,83,127
287047,note_on,44,0,2,,,,,,,,,1,,,71,65
287047,note_on,44,0,3,,,,,,,,,2,,,71,65
287047,note_on,44,0,4,,,,,,,,,3,,,71,66
287111,note_on,65,0,1,,,,,,,,,0,,,83,0
287134,note_on,23,0,1,,,,,,,,,0,,,86,127
287180,note_on,133,0,2,,,,,,,,,1,,,71,0
287180,note_on,133,0,3,,,,,,,,,2,,,71,0
287180,note_on,133,0,4,,,,,,,,,3,,,71,0
287201,note_on,67,0,1,,,,,,,,,0,,,86,0
287225,note_on,24,0,1,,,,,,,,,0,,,83,127
287225,note_on,45,0,2,,,,,,,,,1,,,64,65
287226,note_on,46,0,3,,,,,,,,,2,,,64,65
287226,note_on,46,0,4,,,,,,,,,3,,,64,66
287288,note_on,63,0,1,,,,,,,,,0,,,83,0
287311,note_on,23,0,1,,,,,,,,,0,,,80,127
287358,note_on,133,0,2,,,,,,,,,1,,,64,0
287358,note_on,132,0,4,,,,,,,,,3,,,64,0
287358,note_on,132,0,3,,,,,,,,,2,,,64,0
287376,note_on,65,0,1,,,,,,,,,0,,,80,0
287402,note_on,44,0,2,,,,,,,,,1,,,69,65
287402,note_on,26,0,1,,,,,,,,,0,,,85,127
287404,note_on,46,0,3,,,,,,,,,2,,,69,65
287404,note_on,46,0,4,,,,,,,,,3,,,69,66
287464,note_on,62,0,1,,,,,,,,,0,,,85,0
287490,note_on,26,0,1,,,,,,,,,0,,,88,127
287536,note_on,134,0,2,,,,,,,,,1,,,69,0
287536,note_on,132,0,4,,,,,,,,,3,,,69,0
287536,note_on,132,0,3,,,,,,,,,2,,,69,0
287554,note_on,64,0,1,,,,,,,,,0,,,88,0
287580,note_on,26,0,1,,,,,,,,,0,,,85,127
287580,note_on,44,0,3,,,,,,,,,2,,,71,65
287580,note_on,44,0,2,,,,,,,,,1,,,71,65
287580,note_on,44,0,4,,,,,,,,,3,,,71,66
287643,note_on,63,0,1,,,,,,,,,0,,,85,0
287668,note_on,25,0,1,,,,,,,,,0,,,81,127
287711,note_on,131,0,3,,,,,,,,,2,,,71,0
287711,note_on,131,0,2,,,,,,,,,1,,,71,0
287712,note_on,132,0,4,,,,,,,,,3,,,71,0
287731,note_on,63,0,1,,,,,,,,,0,,,81,0
287757,note_on,26,0,1,,,,,,,,,0,,,85,127
287758,note_on,46,0,4,,,,,,,,,3,,,73,66
287758,note_on,47,0,2,,,,,,,,,1,,,69,65
287758,note_on,47,0,3,,,,,,,,,2,,,69,65
287821,note_on,64,0,1,,,,,,,,,0,,,85,0
287844,note_on,23,0,1,,,,,,,,,0,,,88,127
287890,note_on,132,0,3,,,,,,,,,2,,,69,0
287890,note_on,132,0,4,,,,,,,,,3,,,73,0
287890,note_on,132,0,2,,,,,,,,,1,,,69,0
287910,note_on,66,0,1,,,,,,,,,0,,,88,0
287933,note_on,43,0,3,,,,,,,,,2,,,57,65
287933,note_on,23,0,1,,,,,,,,,0,,,85,127
287933,note_on,43,0,2,,,,,,,,,1,,,57,65
287934,note_on,44,0,4,,,,,,,,,3,,,57,66
287998,note_on,65,0,1,,,,,,,,,0,,,85,0
288022,note_on,24,0,1,,,,,,,,,0,,,81,127
288065,note_on,132,0,2,,,,,,,,,1,,,57,0
288067,note_on,134,0,3,,,,,,,,,2,,,57,0
288068,note_on,134,0,4,,,,,,,,,3,,,57,0
288086,note_on,64,0,1,,,,,,,,,0,,,81,0
288112,note_on,26,0,1,,,,,,,,,0,,,83,127
288112,note_on,45,0,3,,,,,,,,,2,,,68,65
288112,note_on,47,0,2,,,,,,,,,1,,,68,65
288112,note_on,44,0,4,,,,,,,,,3,,,68,65
288243,note_on,131,0,1,,,,,,,,,0,,,83,0
288246,note_on,134,0,4,,,,,,,,,3,,,68,0
288246,note_on,134,0,2,,,,,,,,,1,,,68,0
288246,note_on,134,0,3,,,,,,,,,2,,,68,0
288287,note_on,44,0,1,,,,,,,,,0,,,76,127
288291,note_on,45,0,3,,,,,,,,,2,,,69,65
288291,note_on,45,0,2,,,,,,,,,1,,,69,65
288291,note_on,45,0,4,,,,,,,,,3,,,69,65
288423,note_on,132,0,3,,,,,,,,,2,,,69,0
288423,note_on,132,0,2,,,,,,,,,1,,,69,0
288423,note_on,132,0,4,,,,,,,,,3,,,69,0
288441,note_on,154,0,1,,,,,,,,,0,,,76,0
288466,note_on,43,0,2,,,,,,,,,1,,,71,65
288466,note_on,43,0,4,,,,,,,,,3,,,71,65
288466,note_on,43,0,3,,,,,,,,,2,,,71,65
288599,note_on,133,0,4,,,,,,,,,3,,,71,0
288599,note_on,133,0,3,,,,,,,,,2,,,71,0
288599,note_on,133,0,2,,,,,,,,,1,,,71,0
288644,note_on,45,0,4,,,,,,,,,3,,,64,65
288644,note_on,203,0,1,,,,,,,,,0,,,71,127
288644,note_on,45,0,2,,,,,,,,,1,,,64,65
288644,note_on,45,0,3,,,,,,,,,2,,,64,65
288776,note_on,132,0,4,,,,,,,,,3,,,64,0
288776,note_on,132,0,1,,,,,,,,,0,,,71,0
288776,note_on,132,0,2,,,,,,,,,1,,,64,0
288776,note_on,132,0,3,,,,,,,,,2,,,64,0
288820,note_on,44,0,1,,,,,,,,,0,,,73,127
288820,note_on,44,0,2,,,,,,,,,1,,,69,65
288820,note_on,44,0,3,,,,,,,,,2,,,69,65
288822,note_on,46,0,4,,,,,,,,,3,,,69,65
288883,note_on,63,0,1,,,,,,,,,0,,,73,0
288908,note_on,25,0,1,,,,,,,,,0,,,76,127
288953,note_on,133,0,3,,,,,,,,,2,,,69,0
288953,note_on,131,0,4,,,,,,,,,3,,,69,0
288953,note_on,133,0,2,,,,,,,,,1,,,69,0
288973,note_on,65,0,1,,,,,,,,,0,,,76,0
288997,note_on,24,0,1,,,,,,,,,0,,,73,127
288997,note_on,44,0,2,,,,,,,,,1,,,68,65
288999,note_on,46,0,3,,,,,,,,,2,,,68,64
288999,note_on,46,0,4,,,,,,,,,3,,,68,65
289062,note_on,65,0,1,,,,,,,,,0,,,73,0
289085,note_on,23,0,1,,,,,,,,,0,,,69,127
289130,note_on,133,0,2,,,,,,,,,1,,,68,0
289130,note_on,131,0,3,,,,,,,,,2,,,68,0
289132,note_on,133,0,4,,,,,,,,,3,,,68,0
289149,note_on,64,0,1,,,,,,,,,0,,,69,0
289174,note_on,25,0,1,,,,,,,,,0,,,73,127
289177,note_on,47,0,2,,,,,,,,,1,,,69,65
289177,note_on,45,0,4,,,,,,,,,3,,,69,65
289177,note_on,47,0,3,,,,,,,,,2,,,69,64
289238,note_on,64,0,1,,,,,,,,,0,,,73,0
289264,note_on,26,0,1,,,,,,,,,0,,,76,127
289306,note_on,129,0,2,,,,,,,,,1,,,69,0
289306,note_on,129,0,3,,,,,,,,,2,,,69,0
289307,note_on,130,0,4,,,,,,,,,3,,,69,0
289326,note_on,62,0,1,,,,,,,,,0,,,76,0
289352,note_on,26,0,1,,,,,,,,,0,,,73,127
289352,note_on,46,0,2,,,,,,,,,1,,,57,65
289354,note_on,47,0,4,,,,,,,,,3,,,57,65
289354,note_on,48,0,3,,,,,,,,,2,,,57,64
289415,note_on,63,0,1,,,,,,,,,0,,,73,0
289437,note_on,22,0,1,,,,,,,,,0,,,69,127
289484,note_on,132,0,2,,,,,,,,,1,,,57,0
289486,note_on,132,0,4,,,,,,,,,3,,,57,0
289486,note_on,132,0,3,,,,,,,,,2,,,57,0
289504,note_on,67,0,1,,,,,,,,,0,,,69,0
289528,note_on,24,0,1,,,,,,,,,0,,,71,127
289529,note_on,43,0,3,,,,,,,,,2,,,68,64
289529,note_on,45,0,2,,,,,,,,,1,,,68,65
289529,note_on,43,0,4,,,,,,,,,3,,,68,65
289592,note_on,64,0,1,,,,,,,,,0,,,71,0
289617,note_on,25,0,1,,,,,,,,,0,,,74,127
289661,note_on,132,0,2,,,,,,,,,1,,,68,0
289661,note_on,132,0,3,,,,,,,,,2,,,68,0
289662,note_on,133,0,4,,,,,,,,,3,,,68,0
289679,note_on,62,0,1,,,,,,,,,0,,,74,0
289706,note_on,27,0,1,,,,,,,,,0,,,71,127
289707,note_on,46,0,2,,,,,,,,,1,,,69,65
289707,note_on,46,0,3,,,,,,,,,2,,,69,64
289707,note_on,45,0,4,,,,,,,,,3,,,69,65
289769,note_on,63,0,1,,,,,,,,,0,,,71,0
289792,note_on,23,0,1,,,,,,,,,0,,,68,127
289840,note_on,133,0,3,,,,,,,,,2,,,69,0
289840,note_on,133,0,4,,,,,,,,,3,,,69,0
289840,note_on,133,0,2,,,,,,,,,1,,,69,0
289857,note_on,65,0,1,,,,,,,,,0,,,68,0
289883,note_on,26,0,1,,,,,,,,,0,,,71,127
289884,note_on,44,0,2,,,,,,,,,1,,,71,65
289884,note_on,44,0,4,,,,,,,,,3,,,71,65
289884,note_on,44,0,3,,,,,,,,,2,,,71,64
289948,note_on,65,0,1,,,,,,,,,0,,,71,0
289972,note_on,24,0,1,,,,,,,,,0,,,74,127
290017,note_on,133,0,4,,,,,,,,,3,,,71,0
290017,note_on,133,0,2,,,,,,,,,1,,,71,0
290017,note_on,133,0,3,,,,,,,,,2,,,71,0
290036,note_on,64,0,1,,,,,,,,,0,,,74,0
290062,note_on,26,0,1,,,,,,,,,0,,,71,127
290062,note_on,45,0,4,,,,,,,,,3,,,64,65
290062,note_on,45,0,2,,,,,,,,,1,,,64,65
290062,note_on,45,0,3,,,,,,,,,2,,,64,64
290123,note_on,61,0,1,,,,,,,,,0,,,71,0
290149,note_on,26,0,1,,,,,,,,,0,,,68,127
290195,note_on,133,0,2,,,,,,,,,1,,,64,0
290195,note_on,133,0,4,,,,,,,,,3,,,64,0
290195,note_on,133,0,3,,,,,,,,,2,,,64,0
290213,note_on,64,0,1,,,,,,,,,0,,,68,0
290238,note_on,43,0,2,,,,,,,,,1,,,69,65
290238,note_on,25,0,1,,,,,,,,,0,,,73,127
290240,note_on,45,0,3,,,,,,,,,2,,,69,64
290240,note_on,45,0,4,,,,,,,,,3,,,69,65
290301,note_on,63,0,1,,,,,,,,,0,,,73,0
290327,note_on,26,0,1,,,,,,,,,0,,,76,127
290372,note_on,134,0,2,,,,,,,,,1,,,69,0
290372,note_on,132,0,4,,,,,,,,,3,,,69,0
290372,note_on,132,0,3,,,,,,,,,2,,,69,0
290390,note_on,63,0,1,,,,,,,,,0,,,76,0
290416,note_on,44,0,3,,,,,,,,,2,,,68,64
290416,note_on,44,0,4,,,,,,,,,3,,,68,65
290416,note_on,44,0,2,,,,,,,,,1,,,68,65
290416,note_on,26,0,1,,,,,,,,,0,,,73,127
290479,note_on,63,0,1,,,,,,,,,0,,,73,0
290503,note_on,24,0,1,,,,,,,,,0,,,69,127
290546,note_on,130,0,2,,,,,,,,,1,,,68,0
290548,note_on,132,0,3,,,,,,,,,2,,,68,0
290548,note_on,132,0,4,,,,,,,,,3,,,68,0
290568,note_on,65,0,1,,,,,,,,,0,,,69,0
290591,note_on,45,0,2,,,,,,,,,1,,,69,65
290591,note_on,23,0,1,,,,,,,,,0,,,73,127
290594,note_on,46,0,3,,,,,,,,,2,,,69,64
290594,note_on,46,0,4,,,,,,,,,3,,,69,65
290655,note_on,64,0,1,,,,,,,,,0,,,73,0
290681,note_on,26,0,1,,,,,,,,,0,,,76,127
290726,note_on,132,0,3,,,,,,,,,2,,,69,0
290726,note_on,135,0,2,,,,,,,,,1,,,69,0
290726,note_on,132,0,4,,,,,,,,,3,,,69,0
290744,note_on,63,0,1,,,,,,,,,0,,,76,0
290772,note_on,46,0,4,,,,,,,,,3,,,57,65
290772,note_on,46,0,3,,,,,,,,,2,,,57,64
290772,note_on,28,0,1,,,,,,,,,0,,,73,127
290772,note_on,46,0,2,,,,,,,,,1,,,57,65
290835,note_on,63,0,1,,,,,,,,,0,,,73,0
290858,note_on,23,0,1,,,,,,,,,0,,,69,127
290903,note_on,131,0,2,,,,,,,,,1,,,57,0
290903,note_on,131,0,3,,,,,,,,,2,,,57,0
290905,note_on,133,0,4,,,,,,,,,3,,,57,0
290923,note_on,65,0,1,,,,,,,,,0,,,69,0
290948,note_on,45,0,2,,,,,,,,,1,,,64,64
290948,note_on,25,0,1,,,,,,,,,0,,,71,127
290948,note_on,45,0,3,,,,,,,,,2,,,64,64
290948,note_on,43,0,4,,,,,,,,,3,,,64,65
291081,note_on,133,0,3,,,,,,,,,2,,,64,0
291081,note_on,133,0,2,,,,,,,,,1,,,64,0
291081,note_on,133,0,1,,,,,,,,,0,,,71,0
291081,note_on,133,0,4,,,,,,,,,3,,,64,0
291126,note_on,45,0,1,,,,,,,,,0,,,64,127
291126,note_on,45,0,3,,,,,,,,,2,,,66,64
291126,note_on,45,0,4,,,,,,,,,3,,,66,65
291126,note_on,45,0,2,,,,,,,,,1,,,66,64
291258,note_on,132,0,3,,,,,,,,,2,,,66,0
291258,note_on,132,0,2,,,,,,,,,1,,,66,0
291258,note_on,132,0,4,,,,,,,,,3,,,66,0
291280,note_on,154,0,1,,,,,,,,,0,,,64,0
291303,note_on,45,0,2,,,,,,,,,1,,,68,64
291303,note_on,45,0,3,,,,,,,,,2,,,68,64
291303,note_on,45,0,4,,,,,,,,,3,,,68,65
291434,note_on,131,0,2,,,,,,,,,1,,,68,0
291435,note_on,132,0,4,,,,,,,,,3,,,68,0
291435,note_on,132,0,3,,,,,,,,,2,,,68,0
291479,note_on,199,0,1,,,,,,,,,0,,,83,127
291479,note_on,45,0,2,,,,,,,,,1,,,63,64
291479,note_on,44,0,3,,,,,,,,,2,,,63,64
291480,note_on,45,0,4,,,,,,,,,3,,,63,65
291611,note_on,132,0,1,,,,,,,,,0,,,83,0
291611,note_on,132,0,2,,,,,,,,,1,,,63,0
291614,note_on,134,0,4,,,,,,,,,3,,,63,0
291614,note_on,135,0,3,,,,,,,,,2,,,63,0
291655,note_on,44,0,2,,,,,,,,,1,,,64,64
291655,note_on,44,0,1,,,,,,,,,0,,,80,127
291656,note_on,42,0,3,,,,,,,,,2,,,64,64
291656,note_on,42,0,4,,,,,,,,,3,,,64,65
291789,note_on,134,0,1,,,,,,,,,0,,,80,0
291792,note_on,136,0,3,,,,,,,,,2,,,64,0
291792,note_on,137,0,2,,,,,,,,,1,,,64,0
291792,note_on,136,0,4,,,,,,,,,3,,,64,0
291834,note_on,42,0,3,,,,,,,,,2,,,68,64
291834,note_on,42,0,2,,,,,,,,,1,,,68,64
291834,note_on,45,0,1,,,,,,,,,0,,,78,127
291834,note_on,42,0,4,,,,,,,,,3,,,68,65
291920,note_on,86,0,1,,,,,,,,,0,,,78,0
291922,note_on,2,0,1,,,,,,,,,0,,,76,127
291965,note_on,131,0,2,,,,,,,,,1,,,68,0
291966,note_on,132,0,4,,,,,,,,,3,,,68,0
291966,note_on,132,0,3,,,,,,,,,2,,,68,0
292008,note_on,86,0,1,,,,,,,,,0,,,76,0
292012,note_on,47,0,2,,,,,,,,,1,,,69,64
292012,note_on,46,0,3,,,,,,,,,2,,,69,64
292012,note_on,46,0,4,,,,,,,,,3,,,69,65
292012,note_on,4,0,1,,,,,,,,,0,,,78,127
292144,note_on,132,0,2,,,,,,,,,1,,,69,0
292144,note_on,132,0,3,,,,,,,,,2,,,69,0
292144,note_on,132,0,1,,,,,,,,,0,,,78,0
292147,note_on,135,0,4,,,,,,,,,3,,,69,0
292186,note_on,42,0,1,,,,,,,,,0,,,76,127
292187,note_on,40,0,4,,,,,,,,,3,,,71,64
292187,note_on,43,0,2,,,,,,,,,1,,,71,64
292187,note_on,43,0,3,,,,,,,,,2,,,71,64
292273,note_on,87,0,1,,,,,,,,,0,,,76,0
292275,note_on,2,0,1,,,,,,,,,0,,,75,127
292320,note_on,133,0,3,,,,,,,,,2,,,71,0
292320,note_on,133,0,2,,,,,,,,,1,,,71,0
292321,note_on,134,0,4,,,,,,,,,3,,,71,0
292363,note_on,88,0,1,,,,,,,,,0,,,75,0
292366,note_on,46,0,3,,,,,,,,,2,,,64,64
292366,note_on,46,0,2,,,,,,,,,1,,,64,64
292366,note_on,3,0,1,,,,,,,,,0,,,76,127
292367,note_on,46,0,4,,,,,,,,,3,,,64,64
292499,note_on,133,0,2,,,,,,,,,1,,,64,0
292499,note_on,133,0,1,,,,,,,,,0,,,76,0
292499,note_on,133,0,3,,,,,,,,,2,,,64,0
292499,note_on,132,0,4,,,,,,,,,3,,,64,0
292543,note_on,44,0,1,,,,,,,,,0,,,71,127
292544,note_on,45,0,3,,,,,,,,,2,,,66,64
292544,note_on,45,0,2,,,,,,,,,1,,,66,64
292544,note_on,45,0,4,,,,,,,,,3,,,66,64
292676,note_on,132,0,2,,,,,,,,,1,,,66,0
292676,note_on,133,0,1,,,,,,,,,0,,,71,0
292677,note_on,133,0,3,,,,,,,,,2,,,66,0
292677,note_on,133,0,4,,,,,,,,,3,,,66,0
292720,note_on,44,0,2,,,,,,,,,1,,,68,64
292720,note_on,43,0,3,,,,,,,,,2,,,68,64
292720,note_on,44,0,1,,,,,,,,,0,,,64,127
292723,note_on,46,0,4,,,,,,,,,3,,,68,64
292852,note_on,132,0,2,,,,,,,,,1,,,68,0
292852,note_on,132,0,1,,,,,,,,,0,,,64,0
292855,note_on,135,0,3,,,,,,,,,2,,,68,0
292855,note_on,132,0,4,,,,,,,,,3,,,68,0
292897,note_on,45,0,1,,,,,,,,,0,,,83,127
292899,note_on,44,0,4,,,,,,,,,3,,,63,64
292899,note_on,44,0,3,,,,,,,,,2,,,63,64
292899,note_on,47,0,2,,,,,,,,,1,,,63,64
293031,note_on,132,0,4,,,,,,,,,3,,,63,0
293031,note_on,132,0,3,,,,,,,,,2,,,63,0
293031,note_on,132,0,2,,,,,,,,,1,,,63,0
293031,note_on,134,0,1,,,,,,,,,0,,,83,0
293073,note_on,42,0,1,,,,,,,,,0,,,80,127
293074,note_on,43,0,3,,,,,,,,,2,,,64,64
293074,note_on,43,0,2,,,,,,,,,1,,,64,64
293074,note_on,43,0,4,,,,,,,,,3,,,64,64
293207,note_on,134,0,1,,,,,,,,,0,,,80,0
293207,note_on,133,0,2,,,,,,,,,1,,,64,0
293208,note_on,134,0,4,,,,,,,,,3,,,64,0
293208,note_on,134,0,3,,,,,,,,,2,,,64,0
293252,note_on,45,0,1,,,,,,,,,0,,,78,127
293253,note_on,45,0,3,,,,,,,,,2,,,68,64
293253,note_on,45,0,4,,,,,,,,,3,,,68,64
293253,note_on,46,0,2,,,,,,,,,1,,,68,64
293337,note_on,85,0,1,,,,,,,,,0,,,78,0
293340,note_on,3,0,1,,,,,,,,,0,,,76,127
293385,note_on,132,0,4,,,,,,,,,3,,,68,0
293385,note_on,132,0,3,,,,,,,,,2,,,68,0
293385,note_on,132,0,2,,,,,,,,,1,,,68,0
293426,note_on,86,0,1,,,,,,,,,0,,,76,0
293428,note_on,43,0,3,,,,,,,,,2,,,69,64
293428,note_on,2,0,1,,,,,,,,,0,,,78,127
293428,note_on,43,0,2,,,,,,,,,1,,,69,64
293429,note_on,44,0,4,,,,,,,,,3,,,69,64
293561,note_on,133,0,2,,,,,,,,,1,,,69,0
293561,note_on,133,0,1,,,,,,,,,0,,,78,0
293561,note_on,133,0,3,,,,,,,,,2,,,69,0
293563,note_on,134,0,4,,,,,,,,,3,,,69,0
293607,note_on,46,0,1,,,,,,,,,0,,,76,127
293607,note_on,46,0,2,,,,,,,,,1,,,71,64
293608,note_on,45,0,4,,,,,,,,,3,,,71,64
293608,note_on,47,0,3,,,,,,,,,2,,,71,64
293694,note_on,0,0,1,,,,,,,,,0,,,75,127
293694,note_on,87,0,1,,,,,,,,,0,,,76,0
293740,note_on,132,0,3,,,,,,,,,2,,,71,0
293740,note_on,133,0,2,,,,,,,,,1,,,71,0
293740,note_on,132,0,4,,,,,,,,,3,,,71,0
293780,note_on,86,0,1,,,,,,,,,0,,,75,0
293785,note_on,45,0,4,,,,,,,,,3,,,64,64
293785,note_on,45,0,2,,,,,,,,,1,,,64,64
293785,note_on,45,0,3,,,,,,,,,2,,,64,64
293785,note_on,5,0,1,,,,,,,,,0,,,76,127
293916,note_on,131,0,1,,,,,,,,,0,,,76,0
293917,note_on,132,0,2,,,,,,,,,1,,,64,0
293917,note_on,132,0,4,,,,,,,,,3,,,64,0
293917,note_on,132,0,3,,,,,,,,,2,,,64,0
293962,note_on,45,0,4,,,,,,,,,3,,,66,64
293962,note_on,45,0,3,,,,,,,,,2,,,66,64
293962,note_on,46,0,1,,,,,,,,,0,,,71,127
293962,note_on,45,0,2,,,,,,,,,1,,,66,64
294094,note_on,132,0,1,,,,,,,,,0,,,71,0
294094,note_on,132,0,3,,,,,,,,,2,,,66,0
294094,note_on,132,0,4,,,,,,,,,3,,,66,0
294094,note_on,132,0,2,,,,,,,,,1,,,66,0
294137,note_on,43,0,1,,,,,,,,,0,,,64,127
294137,note_on,43,0,2,,,,,,,,,1,,,68,64
294138,note_on,44,0,3,,,,,,,,,2,,,68,64
294138,note_on,44,0,4,,,,,,,,,3,,,68,64
294268,note_on,131,0,1,,,,,,,,,0,,,64,0
294269,note_on,132,0,2,,,,,,,,,1,,,68,0
294270,note_on,132,0,3,,,,,,,,,2,,,68,0
294271,note_on,133,0,4,,,,,,,,,3,,,68,0
294316,note_on,46,0,3,,,,,,,,,2,,,63,64
294316,note_on,48,0,1,,,,,,,,,0,,,78,127
294316,note_on,47,0,2,,,,,,,,,1,,,63,64
294316,note_on,45,0,4,,,,,,,,,3,,,63,64
294448,note_on,132,0,2,,,,,,,,,1,,,63,0
294448,note_on,132,0,3,,,,,,,,,2,,,63,0
294448,note_on,132,0,4,,,,,,,,,3,,,63,0
294448,note_on,132,0,1,,,,,,,,,0,,,78,0
294494,note_on,46,0,4,,,,,,,,,3,,,64,64
294494,note_on,46,0,1,,,,,,,,,0,,,80,127
294494,note_on,46,0,3,,,,,,,,,2,,,64,64
294494,note_on,46,0,2,,,,,,,,,1,,,64,64
294577,note_on,83,0,1,,,,,,,,,0,,,80,0
294580,note_on,3,0,1,,,,,,,,,0,,,78,127
294668,note_on,88,0,1,,,,,,,,,0,,,78,0
294668,note_on,0,0,1,,,,,,,,,0,,,80,127
294755,note_on,87,0,1,,,,,,,,,0,,,80,0
294758,note_on,3,0,1,,,,,,,,,0,,,76,127
294804,note_on,310,0,4,,,,,,,,,3,,,64,0
294804,note_on,310,0,2,,,,,,,,,1,,,64,0
294804,note_on,310,0,3,,,,,,,,,2,,,64,0
294843,note_on,85,0,1,,,,,,,,,0,,,76,0
294847,note_on,4,0,1,,,,,,,,,0,,,81,127
294847,note_on,43,0,2,,,,,,,,,1,,,66,64
294850,note_on,46,0,3,,,,,,,,,2,,,66,64
294850,note_on,46,0,4,,,,,,,,,3,,,66,64
294932,note_on,85,0,1,,,,,,,,,0,,,81,0
294935,note_on,3,0,1,,,,,,,,,0,,,80,127
295021,note_on,86,0,1,,,,,,,,,0,,,80,0
295024,note_on,3,0,1,,,,,,,,,0,,,81,127
295110,note_on,86,0,1,,,,,,,,,0,,,81,0
295113,note_on,3,0,1,,,,,,,,,0,,,78,127
295156,note_on,306,0,3,,,,,,,,,2,,,66,0
295156,note_on,309,0,2,,,,,,,,,1,,,66,0
295158,note_on,308,0,4,,,,,,,,,3,,,66,0
295198,note_on,85,0,1,,,,,,,,,0,,,78,0
295203,note_on,47,0,3,,,,,,,,,2,,,68,64
295203,note_on,5,0,1,,,,,,,,,0,,,83,127
295203,note_on,47,0,2,,,,,,,,,1,,,68,64
295203,note_on,45,0,4,,,,,,,,,3,,,68,64
295287,note_on,84,0,1,,,,,,,,,0,,,83,0
295290,note_on,3,0,1,,,,,,,,,0,,,81,127
295377,note_on,87,0,1,,,,,,,,,0,,,81,0
295378,note_on,1,0,1,,,,,,,,,0,,,83,127
295465,note_on,87,0,1,,,,,,,,,0,,,83,0
295468,note_on,3,0,1,,,,,,,,,0,,,80,127
295513,note_on,310,0,3,,,,,,,,,2,,,68,0
295513,note_on,310,0,2,,,,,,,,,1,,,68,0
295513,note_on,310,0,4,,,,,,,,,3,,,68,0
295555,note_on,87,0,1,,,,,,,,,0,,,80,0
295558,note_on,45,0,2,,,,,,,,,1,,,69,64
295558,note_on,3,0,1,,,,,,,,,0,,,85,127
295558,note_on,45,0,4,,,,,,,,,3,,,69,64
295558,note_on,45,0,3,,,,,,,,,2,,,69,64
295641,note_on,83,0,1,,,,,,,,,0,,,85,0
295645,note_on,4,0,1,,,,,,,,,0,,,83,127
295729,note_on,84,0,1,,,,,,,,,0,,,83,0
295733,note_on,4,0,1,,,,,,,,,0,,,85,127
295819,note_on,86,0,1,,,,,,,,,0,,,85,0
295822,note_on,3,0,1,,,,,,,,,0,,,81,127
295866,note_on,308,0,3,,,,,,,,,2,,,69,0
295866,note_on,308,0,2,,,,,,,,,1,,,69,0
295868,note_on,310,0,4,,,,,,,,,3,,,69,0
295908,note_on,86,0,1,,,,,,,,,0,,,81,0
295910,note_on,2,0,1,,,,,,,,,0,,,87,127
295910,note_on,44,0,2,,,,,,,,,1,,,71,64
295911,note_on,45,0,3,,,,,,,,,2,,,71,64
295911,note_on,43,0,4,,,,,,,,,3,,,71,64
295995,note_on,85,0,1,,,,,,,,,0,,,87,0
295998,note_on,3,0,1,,,,,,,,,0,,,85,127
296043,note_on,133,0,2,,,,,,,,,1,,,71,0
296044,note_on,133,0,4,,,,,,,,,3,,,71,0
296044,note_on,133,0,3,,,,,,,,,2,,,71,0
296083,note_on,85,0,1,,,,,,,,,0,,,85,0
296088,note_on,5,0,1,,,,,,,,,0,,,87,127
296088,note_on,44,0,4,,,,,,,,,3,,,69,64
296088,note_on,45,0,2,,,,,,,,,1,,,69,64
296088,note_on,44,0,3,,,,,,,,,2,,,69,64
296173,note_on,85,0,1,,,,,,,,,0,,,87,0
296175,note_on,2,0,1,,,,,,,,,0,,,83,127
296221,note_on,133,0,4,,,,,,,,,3,,,69,0
296221,note_on,133,0,2,,,,,,,,,1,,,69,0
296221,note_on,133,0,3,,,,,,,,,2,,,69,0
296262,note_on,87,0,1,,,,,,,,,0,,,83,0
296267,note_on,46,0,3,,,,,,,,,2,,,68,64
296267,note_on,46,0,2,,,,,,,,,1,,,68,64
296267,note_on,46,0,4,,,,,,,,,3,,,68,64
296267,note_on,5,0,1,,,,,,,,,0,,,88,127
296398,note_on,131,0,2,,,,,,,,,1,,,68,0
296398,note_on,131,0,1,,,,,,,,,0,,,88,0
296401,note_on,134,0,4,,,,,,,,,3,,,68,0
296401,note_on,134,0,3,,,,,,,,,2,,,68,0
296444,note_on,46,0,2,,,,,,,,,1,,,69,64
296444,note_on,43,0,4,,,,,,,,,3,,,69,63
296444,note_on,46,0,1,,,,,,,,,0,,,87,127
296444,note_on,43,0,3,,,,,,,,,2,,,69,64
296530,note_on,0,0,1,,,,,,,,,0,,,85,127
296530,note_on,86,0,1,,,,,,,,,0,,,87,0
296576,note_on,132,0,2,,,,,,,,,1,,,69,0
296576,note_on,132,0,3,,,,,,,,,2,,,69,0
296577,note_on,133,0,4,,,,,,,,,3,,,69,0
296618,note_on,88,0,1,,,,,,,,,0,,,85,0
296620,note_on,44,0,2,,,,,,,,,1,,,68,64
296620,note_on,2,0,1,,,,,,,,,0,,,83,127
296620,note_on,44,0,3,,,,,,,,,2,,,68,64
296622,note_on,45,0,4,,,,,,,,,3,,,68,63
296752,note_on,132,0,2,,,,,,,,,1,,,68,0
296752,note_on,132,0,1,,,,,,,,,0,,,83,0
296754,note_on,132,0,4,,,,,,,,,3,,,68,0
296754,note_on,134,0,3,,,,,,,,,2,,,68,0
296795,note_on,43,0,1,,,,,,,,,0,,,76,127
296796,note_on,42,0,4,,,,,,,,,3,,,64,63
296796,note_on,44,0,2,,,,,,,,,1,,,64,64
296796,note_on,42,0,3,,,,,,,,,2,,,64,64
296931,note_on,136,0,1,,,,,,,,,0,,,76,0
296931,note_on,135,0,3,,,,,,,,,2,,,64,0
296931,note_on,135,0,4,,,,,,,,,3,,,64,0
296931,note_on,135,0,2,,,,,,,,,1,,,64,0
296974,note_on,43,0,1,,,,,,,,,0,,,78,127
296974,note_on,43,0,3,,,,,,,,,2,,,71,64
296974,note_on,43,0,2,,,,,,,,,1,,,71,64
296975,note_on,44,0,4,,,,,,,,,3,,,71,63
297106,note_on,132,0,3,,,,,,,,,2,,,71,0
297106,note_on,132,0,2,,,,,,,,,1,,,71,0
297106,note_on,131,0,4,,,,,,,,,3,,,71,0
297150,note_on,44,0,2,,,,,,,,,1,,,59,64
297151,note_on,45,0,3,,,,,,,,,2,,,59,64
297151,note_on,45,0,4,,,,,,,,,3,,,59,63
297284,note_on,134,0,2,,,,,,,,,1,,,59,0
297284,note_on,310,0,1,,,,,,,,,0,,,78,0
297287,note_on,136,0,4,,,,,,,,,3,,,59,0
297287,note_on,136,0,3,,,,,,,,,2,,,59,0
297330,note_on,46,0,2,,,,,,,,,1,,,64,64
297330,note_on,46,0,1,,,,,,,,,0,,,76,127
297330,note_on,43,0,4,,,,,,,,,3,,,64,63
297330,note_on,43,0,3,,,,,,,,,2,,,64,64
297464,note_on,134,0,4,,,,,,,,,3,,,64,0
297464,note_on,134,0,2,,,,,,,,,1,,,64,0
297464,note_on,134,0,3,,,,,,,,,2,,,64,0
297507,note_on,43,0,3,,,,,,,,,2,,,66,64
297507,note_on,43,0,2,,,,,,,,,1,,,66,64
297507,note_on,43,0,4,,,,,,,,,3,,,66,63
297640,note_on,133,0,2,,,,,,,,,1,,,66,0
297640,note_on,133,0,3,,,,,,,,,2,,,66,0
297640,note_on,133,0,4,,,,,,,,,3,,,66,0
297683,note_on,43,0,2,,,,,,,,,1,,,68,64
297683,note_on,353,0,1,,,,,,,,,0,,,76,0
297685,note_on,45,0,4,,,,,,,,,3,,,68,63
297685,note_on,45,0,3,,,,,,,,,2,,,68,64
297816,note_on,131,0,3,,,,,,,,,2,,,68,0
297816,note_on,133,0,2,,,,,,,,,1,,,68,0
297816,note_on,131,0,4,,,,,,,,,3,,,68,0
297860,note_on,177,0,1,,,,,,,,,0,,,66,127
297861,note_on,45,0,4,,,,,,,,,3,,,63,63
297861,note_on,45,0,2,,,,,,,,,1,,,63,64
297861,note_on,45,0,3,,,,,,,,,2,,,63,64
297994,note_on,133,0,2,,,,,,,,,1,,,63,0
297994,note_on,133,0,3,,,,,,,,,2,,,63,0
297994,note_on,134,0,1,,,,,,,,,0,,,66,0
297997,note_on,136,0,4,,,,,,,,,3,,,63,0
298037,note_on,40,0,4,,,,,,,,,3,,,64,63
298037,note_on,43,0,1,,,,,,,,,0,,,68,127
298037,note_on,43,0,2,,,,,,,,,1,,,64,64
298037,note_on,43,0,3,,,,,,,,,2,,,64,64
298124,note_on,87,0,1,,,,,,,,,0,,,68,0
298126,note_on,2,0,1,,,,,,,,,0,,,66,127
298213,note_on,87,0,1,,,,,,,,,0,,,66,0
298215,note_on,2,0,1,,,,,,,,,0,,,68,127
298302,note_on,87,0,1,,,,,,,,,0,,,68,0
298305,note_on,3,0,1,,,,,,,,,0,,,64,127
298348,note_on,311,0,2,,,,,,,,,1,,,64,0
298348,note_on,311,0,4,,,,,,,,,3,,,64,0
298348,note_on,311,0,3,,,,,,,,,2,,,64,0
298390,note_on,85,0,1,,,,,,,,,0,,,64,0
298394,note_on,46,0,2,,,,,,,,,1,,,66,64
298394,note_on,46,0,3,,,,,,,,,2,,,66,64
298394,note_on,4,0,1,,,,,,,,,0,,,69,127
298395,note_on,47,0,4,,,,,,,,,3,,,66,63
298479,note_on,85,0,1,,,,,,,,,0,,,69,0
298481,note_on,2,0,1,,,,,,,,,0,,,68,127
298568,note_on,87,0,1,,,,,,,,,0,,,68,0
298568,note_on,0,0,1,,,,,,,,,0,,,69,127
298655,note_on,87,0,1,,,,,,,,,0,,,69,0
298659,note_on,4,0,1,,,,,,,,,0,,,66,127
298702,note_on,308,0,2,,,,,,,,,1,,,66,0
298703,note_on,309,0,3,,,,,,,,,2,,,66,0
298703,note_on,308,0,4,,,,,,,,,3,,,66,0
298743,note_on,84,0,1,,,,,,,,,0,,,66,0
298746,note_on,3,0,1,,,,,,,,,0,,,71,127
298747,note_on,45,0,2,,,,,,,,,1,,,68,64
298747,note_on,44,0,4,,,,,,,,,3,,,68,63
298747,note_on,44,0,3,,,,,,,,,2,,,68,64
298832,note_on,86,0,1,,,,,,,,,0,,,71,0
298835,note_on,3,0,1,,,,,,,,,0,,,69,127
298921,note_on,86,0,1,,,,,,,,,0,,,69,0
298925,note_on,4,0,1,,,,,,,,,0,,,71,127
299010,note_on,85,0,1,,,,,,,,,0,,,71,0
299013,note_on,3,0,1,,,,,,,,,0,,,68,127
299058,note_on,311,0,4,,,,,,,,,3,,,68,0
299058,note_on,311,0,2,,,,,,,,,1,,,68,0
299058,note_on,311,0,3,,,,,,,,,2,,,68,0
299099,note_on,86,0,1,,,,,,,,,0,,,68,0
299102,note_on,44,0,2,,,,,,,,,1,,,69,64
299102,note_on,44,0,3,,,,,,,,,2,,,69,64
299102,note_on,3,0,1,,,,,,,,,0,,,73,127
299104,note_on,46,0,4,,,,,,,,,3,,,69,63
299188,note_on,86,0,1,,,,,,,,,0,,,73,0
299191,note_on,3,0,1,,,,,,,,,0,,,71,127
299278,note_on,87,0,1,,,,,,,,,0,,,71,0
299279,note_on,1,0,1,,,,,,,,,0,,,73,127
299364,note_on,85,0,1,,,,,,,,,0,,,73,0
299367,note_on,3,0,1,,,,,,,,,0,,,69,127
299413,note_on,311,0,3,,,,,,,,,2,,,69,0
299413,note_on,311,0,2,,,,,,,,,1,,,69,0
299413,note_on,309,0,4,,,,,,,,,3,,,69,0
299455,note_on,42,0,2,,,,,,,,,1,,,71,64
299455,note_on,88,0,1,,,,,,,,,0,,,69,0
299455,note_on,0,0,1,,,,,,,,,0,,,75,127
299456,note_on,43,0,3,,,,,,,,,2,,,71,64
299456,note_on,43,0,4,,,,,,,,,3,,,71,63
299540,note_on,85,0,1,,,,,,,,,0,,,75,0
299543,note_on,3,0,1,,,,,,,,,0,,,73,127
299589,note_on,133,0,4,,,,,,,,,3,,,71,0
299589,note_on,134,0,2,,,,,,,,,1,,,71,0
299589,note_on,133,0,3,,,,,,,,,2,,,71,0
299629,note_on,86,0,1,,,,,,,,,0,,,73,0
299633,note_on,4,0,1,,,,,,,,,0,,,75,127
299635,note_on,46,0,4,,,,,,,,,3,,,69,63
299635,note_on,46,0,2,,,,,,,,,1,,,69,63
299635,note_on,46,0,3,,,,,,,,,2,,,69,64
299718,note_on,85,0,1,,,,,,,,,0,,,75,0
299721,note_on,3,0,1,,,,,,,,,0,,,71,127
299766,note_on,131,0,3,,,,,,,,,2,,,69,0
299766,note_on,131,0,2,,,,,,,,,1,,,69,0
299768,note_on,133,0,4,,,,,,,,,3,,,69,0
299807,note_on,86,0,1,,,,,,,,,0,,,71,0
299812,note_on,46,0,2,,,,,,,,,1,,,68,63
299812,note_on,44,0,4,,,,,,,,,3,,,68,63
299812,note_on,46,0,3,,,,,,,,,2,,,68,64
299812,note_on,5,0,1,,,,,,,,,0,,,76,127
299943,note_on,131,0,1,,,,,,,,,0,,,76,0
299946,note_on,134,0,2,,,,,,,,,1,,,68,0
299946,note_on,134,0,4,,,,,,,,,3,,,68,0
299946,note_on,134,0,3,,,,,,,,,2,,,68,0
299985,note_on,42,0,1,,,,,,,,,0,,,75,127
299985,note_on,39,0,3,,,,,,,,,2,,,69,64
299985,note_on,39,0,2,,,,,,,,,1,,,69,63
299986,note_on,40,0,4,,,,,,,,,3,,,69,63
300075,note_on,90,0,1,,,,,,,,,0,,,75,0
300077,note_on,2,0,1,,,,,,,,,0,,,73,127
300121,note_on,135,0,4,,,,,,,,,3,,,69,0
300121,note_on,136,0,2,,,,,,,,,1,,,69,0
300121,note_on,136,0,3,,,,,,,,,2,,,69,0
300162,note_on,85,0,1,,,,,,,,,0,,,73,0
300165,note_on,3,0,1,,,,,,,,,0,,,71,127
300165,note_on,44,0,2,,,,,,,,,1,,,68,63
300167,note_on,46,0,3,,,,,,,,,2,,,68,64
300167,note_on,46,0,4,,,,,,,,,3,,,68,63
300299,note_on,134,0,2,,,,,,,,,1,,,68,0
300299,note_on,132,0,4,,,,,,,,,3,,,68,0
300299,note_on,134,0,1,,,,,,,,,0,,,71,0
300299,note_on,132,0,3,,,,,,,,,2,,,68,0
300341,note_on,42,0,1,,,,,,,,,0,,,64,127
300342,note_on,43,0,2,,,,,,,,,1,,,64,63
300342,note_on,43,0,4,,,,,,,,,3,,,64,63
300342,note_on,43,0,3,,,,,,,,,2,,,64,64
300474,note_on,132,0,2,,,,,,,,,1,,,64,0
300474,note_on,133,0,1,,,,,,,,,0,,,64,0
300476,note_on,134,0,4,,,,,,,,,3,,,64,0
300476,note_on,134,0,3,,,,,,,,,2,,,64,0
300519,note_on,45,0,2,,,,,,,,,1,,,59,63
300519,note_on,45,0,1,,,,,,,,,0,,,66,127
300519,note_on,43,0,3,,,,,,,,,2,,,59,64
300520,note_on,44,0,4,,,,,,,,,3,,,59,62
300830,note_on,311,0,2,,,,,,,,,1,,,59,0
300830,note_on,311,0,1,,,,,,,,,0,,,66,0
300833,note_on,313,0,4,,,,,,,,,3,,,59,0
300833,note_on,314,0,3,,,,,,,,,2,,,59,0
300852,note_on,0,0,7,,,,,,,,,6,,,59,127
300852,note_on,20916,0,7,,,,,,,,,6,,,68,127
300875,note_on,45,0,1,,,,,,,,,0,,,64,127
300875,note_on,45,0,2,,,,,,,,,1,,,80,63
300875,note_on,42,0,3,,,,,,,,,2,,,80,64
300878,note_on,45,0,4,,,,,,,,,3,,,71,62
300878,note_on,20921,0,5,,,,,,,,,4,,,52,90
300878,note_on,20920,0,8,,,,,,,,,7,,,52,127
300878,note_on,20968,0,6,,,,,,,,,5,,,52,90
300983,note_on,131,0,7,,,,,,,,,6,,,68,0
301010,note_on,132,0,5,,,,,,,,,4,,,52,0
301010,note_on,135,0,3,,,,,,,,,2,,,80,0
301010,note_on,132,0,6,,,,,,,,,5,,,52,0
301010,note_on,132,0,4,,,,,,,,,3,,,71,0
301010,note_on,135,0,2,,,,,,,,,1,,,80,0
301010,note_on,132,0,8,,,,,,,,,7,,,52,0
301029,note_on,46,0,7,,,,,,,,,6,,,69,127
301053,note_on,43,0,2,,,,,,,,,1,,,78,63
301053,note_on,43,0,4,,,,,,,,,3,,,69,62
301053,note_on,43,0,5,,,,,,,,,4,,,54,90
301053,note_on,43,0,3,,,,,,,,,2,,,78,64
301055,note_on,45,0,8,,,,,,,,,7,,,54,127
301055,note_on,45,0,6,,,,,,,,,5,,,54,90
301137,note_on,84,0,3,,,,,,,,,2,,,76,64
301137,note_on,84,0,2,,,,,,,,,1,,,76,63
301161,note_on,132,0,7,,,,,,,,,6,,,69,0
301165,note_on,4,0,7,,,,,,,,,6,,,59,0
301170,note_on,33,0,3,,,,,,,,,2,,,78,0
301170,note_on,33,0,2,,,,,,,,,1,,,78,0
301187,note_on,134,0,5,,,,,,,,,4,,,54,0
301187,note_on,134,0,4,,,,,,,,,3,,,69,0
301187,note_on,312,0,1,,,,,,,,,0,,,64,0
301187,note_on,132,0,8,,,,,,,,,7,,,54,0
301187,note_on,132,0,6,,,,,,,,,5,,,54,0
301208,note_on,0,0,7,,,,,,,,,6,,,64,127
301208,note_on,43,0,7,,,,,,,,,6,,,71,127
301229,note_on,42,0,4,,,,,,,,,3,,,71,62
301229,note_on,59,0,3,,,,,,,,,2,,,83,64
301229,note_on,42,0,1,,,,,,,,,0,,,83,127
301229,note_on,59,0,2,,,,,,,,,1,,,83,63
301229,note_on,42,0,5,,,,,,,,,4,,,56,90
301230,note_on,43,0,6,,,,,,,,,5,,,56,90
301231,note_on,44,0,8,,,,,,,,,7,,,56,127
301259,note_on,30,0,3,,,,,,,,,2,,,76,0
301259,note_on,30,0,2,,,,,,,,,1,,,76,0
301363,note_on,134,0,1,,,,,,,,,0,,,83,0
301363,note_on,104,0,2,,,,,,,,,1,,,83,0
301364,note_on,135,0,5,,,,,,,,,4,,,56,0
301364,note_on,105,0,3,,,,,,,,,2,,,83,0
301364,note_on,134,0,6,,,,,,,,,5,,,56,0
301364,note_on,135,0,4,,,,,,,,,3,,,71,0
301364,note_on,133,0,8,,,,,,,,,7,,,56,0
301406,note_on,43,0,1,,,,,,,,,0,,,83,127
301406,note_on,43,0,2,,,,,,,,,1,,,83,63
301406,note_on,42,0,3,,,,,,,,,2,,,83,64
301407,note_on,43,0,4,,,,,,,,,3,,,69,62
301407,note_on,43,0,5,,,,,,,,,4,,,54,90
301408,note_on,44,0,6,,,,,,,,,5,,,54,90
301408,note_on,44,0,8,,,,,,,,,7,,,54,127
301517,note_on,309,0,7,,,,,,,,,6,,,71,0
301520,note_on,3,0,7,,,,,,,,,6,,,64,0
301536,note_on,130,0,1,,,,,,,,,0,,,83,0
301537,note_on,129,0,6,,,,,,,,,5,,,54,0
301537,note_on,131,0,3,,,,,,,,,2,,,83,0
301537,note_on,131,0,2,,,,,,,,,1,,,83,0
301537,note_on,130,0,4,,,,,,,,,3,,,69,0
301537,note_on,130,0,5,,,,,,,,,4,,,54,0
301538,note_on,130,0,8,,,,,,,,,7,,,54,0
301559,note_on,39,0,7,,,,,,,,,6,,,68,127
301585,note_on,49,0,1,,,,,,,,,0,,,80,127
301585,note_on,48,0,2,,,,,,,,,1,,,80,63
301585,note_on,48,0,4,,,,,,,,,3,,,71,62
301585,note_on,48,0,3,,,,,,,,,2,,,80,64
301585,note_on,48,0,5,,,,,,,,,4,,,52,90
301585,note_on,0,0,8,,,,,,,,,7,,,47,127
301585,note_on,48,0,6,,,,,,,,,5,,,52,90
301585,note_on,47,0,8,,,,,,,,,7,,,52,127
301694,note_on,135,0,7,,,,,,,,,6,,,68,0
301713,note_on,128,0,3,,,,,,,,,2,,,80,0
301713,note_on,128,0,1,,,,,,,,,0,,,80,0
301713,note_on,128,0,2,,,,,,,,,1,,,80,0
301714,note_on,129,0,5,,,,,,,,,4,,,52,0
301714,note_on,129,0,4,,,,,,,,,3,,,71,0
301715,note_on,130,0,6,,,,,,,,,5,,,52,0
301716,note_on,131,0,8,,,,,,,,,7,,,52,0
301737,note_on,43,0,7,,,,,,,,,6,,,69,127
301757,note_on,41,0,8,,,,,,,,,7,,,47,0
301762,note_on,49,0,2,,,,,,,,,1,,,78,63
301762,note_on,49,0,1,,,,,,,,,0,,,78,127
301762,note_on,49,0,3,,,,,,,,,2,,,78,64
301762,note_on,48,0,4,,,,,,,,,3,,,69,62
301765,note_on,50,0,6,,,,,,,,,5,,,54,90
301765,note_on,51,0,5,,,,,,,,,4,,,54,90
301765,note_on,8,0,8,,,,,,,,,7,,,54,127
301847,note_on,85,0,1,,,,,,,,,0,,,78,0
301850,note_on,88,0,3,,,,,,,,,2,,,76,64
301850,note_on,3,0,1,,,,,,,,,0,,,76,127
301850,note_on,88,0,2,,,,,,,,,1,,,76,63
301870,note_on,133,0,7,,,,,,,,,6,,,69,0
301879,note_on,29,0,2,,,,,,,,,1,,,78,0
301880,note_on,30,0,3,,,,,,,,,2,,,78,0
301894,note_on,132,0,4,,,,,,,,,3,,,69,0
301895,note_on,130,0,6,,,,,,,,,5,,,54,0
301895,note_on,130,0,8,,,,,,,,,7,,,54,0
301895,note_on,130,0,5,,,,,,,,,4,,,54,0
301914,note_on,44,0,7,,,,,,,,,6,,,71,127
301933,note_on,83,0,1,,,,,,,,,0,,,76,0
301939,note_on,6,0,1,,,,,,,,,0,,,83,127
301940,note_on,45,0,5,,,,,,,,,4,,,56,90
301940,note_on,60,0,3,,,,,,,,,2,,,83,64
301940,note_on,46,0,4,,,,,,,,,3,,,71,62
301940,note_on,45,0,6,,,,,,,,,5,,,56,90
301940,note_on,61,0,2,,,,,,,,,1,,,83,63
301940,note_on,45,0,8,,,,,,,,,7,,,56,127
301940,note_on,0,0,8,,,,,,,,,7,,,52,127
301967,note_on,27,0,3,,,,,,,,,2,,,76,0
301967,note_on,27,0,2,,,,,,,,,1,,,76,0
302069,note_on,130,0,1,,,,,,,,,0,,,83,0
302069,note_on,102,0,2,,,,,,,,,1,,,83,0
302070,note_on,103,0,3,,,,,,,,,2,,,83,0
302071,note_on,131,0,4,,,,,,,,,3,,,71,0
302071,note_on,131,0,5,,,,,,,,,4,,,56,0
302072,note_on,132,0,6,,,,,,,,,5,,,56,0
302072,note_on,132,0,8,,,,,,,,,7,,,56,0
302115,note_on,43,0,8,,,,,,,,,7,,,52,0
302116,note_on,46,0,3,,,,,,,,,2,,,83,64
302116,note_on,47,0,2,,,,,,,,,1,,,83,63
302116,note_on,47,0,1,,,,,,,,,0,,,83,127
302118,note_on,47,0,4,,,,,,,,,3,,,69,62
302119,note_on,4,0,8,,,,,,,,,7,,,54,127
302119,note_on,47,0,6,,,,,,,,,5,,,54,90
302119,note_on,48,0,5,,,,,,,,,4,,,54,90
302227,note_on,313,0,7,,,,,,,,,6,,,71,0
302248,note_on,132,0,1,,,,,,,,,0,,,83,0
302249,note_on,133,0,3,,,,,,,,,2,,,83,0
302249,note_on,133,0,2,,,,,,,,,1,,,83,0
302249,note_on,131,0,4,,,,,,,,,3,,,69,0
302249,note_on,130,0,5,,,,,,,,,4,,,54,0
302250,note_on,131,0,8,,,,,,,,,7,,,54,0
302250,note_on,131,0,6,,,,,,,,,5,,,54,0
302270,note_on,43,0,7,,,,,,,,,6,,,71,127
302270,note_on,0,0,7,,,,,,,,,6,,,63,127
302292,note_on,44,0,1,,,,,,,,,0,,,75,127
302293,note_on,44,0,2,,,,,,,,,1,,,75,63
302293,note_on,44,0,3,,,,,,,,,2,,,75,64
302294,note_on,45,0,4,,,,,,,,,3,,,66,62
302294,note_on,45,0,5,,,,,,,,,4,,,47,90
302295,note_on,45,0,6,,,,,,,,,5,,,47,90
302295,note_on,45,0,8,,,,,,,,,7,,,47,127
302407,note_on,137,0,7,,,,,,,,,6,,,63,0
302424,note_on,132,0,1,,,,,,,,,0,,,75,0
302424,note_on,131,0,2,,,,,,,,,1,,,75,0
302426,note_on,132,0,4,,,,,,,,,3,,,66,0
302426,note_on,132,0,5,,,,,,,,,4,,,47,0
302426,note_on,133,0,3,,,,,,,,,2,,,75,0
302427,note_on,132,0,6,,,,,,,,,5,,,47,0
302428,note_on,133,0,8,,,,,,,,,7,,,47,0
302448,note_on,41,0,7,,,,,,,,,6,,,64,127
302470,note_on,46,0,2,,,,,,,,,1,,,73,63
302470,note_on,44,0,5,,,,,,,,,4,,,49,90
302470,note_on,44,0,4,,,,,,,,,3,,,64,62
302470,note_on,46,0,1,,,,,,,,,0,,,73,127
302470,note_on,44,0,3,,,,,,,,,2,,,73,64
302472,note_on,44,0,8,,,,,,,,,7,,,49,127
302472,note_on,45,0,6,,,,,,,,,5,,,49,90
302555,note_on,85,0,1,,,,,,,,,0,,,73,0
302558,note_on,3,0,1,,,,,,,,,0,,,71,127
302558,note_on,88,0,2,,,,,,,,,1,,,71,63
302560,note_on,90,0,3,,,,,,,,,2,,,71,64
302580,note_on,132,0,7,,,,,,,,,6,,,64,0
302588,note_on,28,0,3,,,,,,,,,2,,,73,0
302588,note_on,30,0,2,,,,,,,,,1,,,73,0
302602,note_on,132,0,4,,,,,,,,,3,,,64,0
302605,note_on,133,0,8,,,,,,,,,7,,,49,0
302605,note_on,133,0,6,,,,,,,,,5,,,49,0
302605,note_on,135,0,5,,,,,,,,,4,,,49,0
302625,note_on,45,0,7,,,,,,,,,6,,,66,127
302643,note_on,85,0,1,,,,,,,,,0,,,71,0
302647,note_on,4,0,1,,,,,,,,,0,,,83,127
302648,note_on,60,0,3,,,,,,,,,2,,,83,64
302648,note_on,60,0,2,,,,,,,,,1,,,83,63
302650,note_on,45,0,8,,,,,,,,,7,,,51,127
302650,note_on,45,0,5,,,,,,,,,4,,,51,90
302650,note_on,48,0,4,,,,,,,,,3,,,66,62
302650,note_on,45,0,6,,,,,,,,,5,,,51,90
302676,note_on,28,0,3,,,,,,,,,2,,,71,0
302676,note_on,28,0,2,,,,,,,,,1,,,71,0
302781,note_on,131,0,4,,,,,,,,,3,,,66,0
302781,note_on,105,0,3,,,,,,,,,2,,,83,0
302781,note_on,134,0,1,,,,,,,,,0,,,83,0
302781,note_on,105,0,2,,,,,,,,,1,,,83,0
302783,note_on,133,0,6,,,,,,,,,5,,,51,0
302783,note_on,133,0,5,,,,,,,,,4,,,51,0
302783,note_on,133,0,8,,,,,,,,,7,,,51,0
302826,note_on,45,0,3,,,,,,,,,2,,,83,64
302826,note_on,45,0,4,,,,,,,,,3,,,64,62
302826,note_on,45,0,2,,,,,,,,,1,,,83,63
302826,note_on,43,0,5,,,,,,,,,4,,,49,90
302826,note_on,45,0,1,,,,,,,,,0,,,83,127
302829,note_on,46,0,8,,,,,,,,,7,,,49,127
302829,note_on,46,0,6,,,,,,,,,5,,,49,90
302934,note_on,309,0,7,,,,,,,,,6,,,66,0
302937,note_on,3,0,7,,,,,,,,,6,,,71,0
302956,note_on,130,0,1,,,,,,,,,0,,,83,0
302959,note_on,133,0,2,,,,,,,,,1,,,83,0
302962,note_on,136,0,5,,,,,,,,,4,,,49,0
302962,note_on,133,0,6,,,,,,,,,5,,,49,0
302962,note_on,133,0,8,,,,,,,,,7,,,49,0
302962,note_on,136,0,4,,,,,,,,,3,,,64,0
302962,note_on,136,0,3,,,,,,,,,2,,,83,0
302978,note_on,41,0,7,,,,,,,,,6,,,63,127
302979,note_on,1,0,7,,,,,,,,,6,,,71,127
303002,note_on,46,0,1,,,,,,,,,0,,,75,127
303004,note_on,45,0,2,,,,,,,,,1,,,75,63
303004,note_on,42,0,3,,,,,,,,,2,,,75,64
303005,note_on,43,0,8,,,,,,,,,7,,,47,127
303005,note_on,43,0,5,,,,,,,,,4,,,47,90
303005,note_on,43,0,4,,,,,,,,,3,,,66,62
303005,note_on,43,0,6,,,,,,,,,5,,,47,90
303116,note_on,137,0,7,,,,,,,,,6,,,63,0
303135,note_on,130,0,4,,,,,,,,,3,,,66,0
303135,note_on,133,0,1,,,,,,,,,0,,,75,0
303135,note_on,131,0,2,,,,,,,,,1,,,75,0
303135,note_on,131,0,3,,,,,,,,,2,,,75,0
303136,note_on,131,0,8,,,,,,,,,7,,,47,0
303136,note_on,131,0,5,,,,,,,,,4,,,47,0
303136,note_on,131,0,6,,,,,,,,,5,,,47,0
303154,note_on,38,0,7,,,,,,,,,6,,,64,127
303178,note_on,43,0,1,,,,,,,,,0,,,73,127
303179,note_on,44,0,3,,,,,,,,,2,,,73,64
303179,note_on,44,0,2,,,,,,,,,1,,,73,63
303180,note_on,44,0,6,,,,,,,,,5,,,49,90
303180,note_on,45,0,4,,,,,,,,,3,,,64,62
303180,note_on,44,0,8,,,,,,,,,7,,,49,127
303180,note_on,44,0,5,,,,,,,,,4,,,49,90
303265,note_on,87,0,1,,,,,,,,,0,,,73,0
303267,note_on,88,0,2,,,,,,,,,1,,,71,63
303267,note_on,2,0,1,,,,,,,,,0,,,71,127
303268,note_on,89,0,3,,,,,,,,,2,,,71,64
303289,note_on,135,0,7,,,,,,,,,6,,,64,0
303297,note_on,29,0,3,,,,,,,,,2,,,73,0
303297,note_on,30,0,2,,,,,,,,,1,,,73,0
303312,note_on,132,0,6,,,,,,,,,5,,,49,0
303312,note_on,132,0,8,,,,,,,,,7,,,49,0
303312,note_on,132,0,5,,,,,,,,,4,,,49,0
303312,note_on,132,0,4,,,,,,,,,3,,,64,0
303333,note_on,44,0,7,,,,,,,,,6,,,66,127
303351,note_on,84,0,1,,,,,,,,,0,,,71,0
303356,note_on,5,0,1,,,,,,,,,0,,,83,127
303356,note_on,59,0,3,,,,,,,,,2,,,83,64
303356,note_on,59,0,2,,,,,,,,,1,,,83,63
303359,note_on,47,0,5,,,,,,,,,4,,,51,90
303359,note_on,47,0,6,,,,,,,,,5,,,51,90
303359,note_on,47,0,4,,,,,,,,,3,,,66,62
303360,note_on,48,0,8,,,,,,,,,7,,,51,127
303385,note_on,29,0,3,,,,,,,,,2,,,71,0
303385,note_on,29,0,2,,,,,,,,,1,,,71,0
303467,note_on,134,0,7,,,,,,,,,6,,,66,0
303468,note_on,1,0,7,,,,,,,,,6,,,71,0
303488,note_on,132,0,1,,,,,,,,,0,,,83,0
303491,note_on,132,0,4,,,,,,,,,3,,,66,0
303491,note_on,132,0,5,,,,,,,,,4,,,51,0
303491,note_on,106,0,2,,,,,,,,,1,,,83,0
303491,note_on,106,0,3,,,,,,,,,2,,,83,0
303492,note_on,132,0,8,,,,,,,,,7,,,51,0
303492,note_on,133,0,6,,,,,,,,,5,,,51,0
303511,note_on,0,0,7,,,,,,,,,6,,,64,127
303511,note_on,43,0,7,,,,,,,,,6,,,68,127
303533,note_on,45,0,1,,,,,,,,,0,,,83,127
303535,note_on,44,0,2,,,,,,,,,1,,,83,63
303535,note_on,44,0,3,,,,,,,,,2,,,83,64
303537,note_on,45,0,8,,,,,,,,,7,,,49,127
303537,note_on,46,0,5,,,,,,,,,4,,,49,90
303537,note_on,46,0,4,,,,,,,,,3,,,64,62
303537,note_on,45,0,6,,,,,,,,,5,,,49,90
303643,note_on,132,0,7,,,,,,,,,6,,,68,0
303646,note_on,3,0,7,,,,,,,,,6,,,64,0
303666,note_on,131,0,3,,,,,,,,,2,,,83,0
303666,note_on,133,0,1,,,,,,,,,0,,,83,0
303666,note_on,131,0,2,,,,,,,,,1,,,83,0
303667,note_on,130,0,4,,,,,,,,,3,,,64,0
303668,note_on,131,0,8,,,,,,,,,7,,,49,0
303668,note_on,131,0,5,,,,,,,,,4,,,49,0
303668,note_on,131,0,6,,,,,,,,,5,,,49,0
303687,note_on,0,0,7,,,,,,,,,6,,,63,127
303687,note_on,41,0,7,,,,,,,,,6,,,69,127
303710,note_on,44,0,2,,,,,,,,,1,,,81,63
303710,note_on,44,0,1,,,,,,,,,0,,,81,127
303715,note_on,47,0,5,,,,,,,,,4,,,54,90
303715,note_on,49,0,3,,,,,,,,,2,,,81,64
303715,note_on,47,0,6,,,,,,,,,5,,,54,90
303715,note_on,47,0,8,,,,,,,,,7,,,54,127
303715,note_on,48,0,4,,,,,,,,,3,,,66,62
303824,note_on,137,0,7,,,,,,,,,6,,,63,0
303843,note_on,128,0,5,,,,,,,,,4,,,54,0
303844,note_on,129,0,6,,,,,,,,,5,,,54,0
303844,note_on,129,0,8,,,,,,,,,7,,,54,0
303863,note_on,39,0,7,,,,,,,,,6,,,66,127
303887,note_on,177,0,1,,,,,,,,,0,,,81,0
303892,note_on,48,0,6,,,,,,,,,5,,,51,90
303892,note_on,177,0,3,,,,,,,,,2,,,81,0
303892,note_on,48,0,8,,,,,,,,,7,,,51,127
303892,note_on,182,0,2,,,,,,,,,1,,,81,0
303892,note_on,177,0,4,,,,,,,,,3,,,66,0
303892,note_on,49,0,5,,,,,,,,,4,,,51,90
303997,note_on,134,0,7,,,,,,,,,6,,,66,0
304000,note_on,3,0,7,,,,,,,,,6,,,69,0
304021,note_on,129,0,8,,,,,,,,,7,,,51,0
304021,note_on,129,0,5,,,,,,,,,4,,,51,0
304021,note_on,129,0,6,,,,,,,,,5,,,51,0
304041,note_on,0,0,7,,,,,,,,,6,,,59,127
304041,note_on,41,0,7,,,,,,,,,6,,,68,127
304066,note_on,174,0,2,,,,,,,,,1,,,80,63
304066,note_on,179,0,1,,,,,,,,,0,,,80,127
304068,note_on,176,0,3,,,,,,,,,2,,,80,64
304068,note_on,47,0,8,,,,,,,,,7,,,52,127
304068,note_on,47,0,6,,,,,,,,,5,,,52,90
304068,note_on,176,0,4,,,,,,,,,3,,,64,62
304068,note_on,47,0,5,,,,,,,,,4,,,52,90
304178,note_on,137,0,7,,,,,,,,,6,,,59,0
304197,note_on,129,0,5,,,,,,,,,4,,,52,0
304199,note_on,131,0,8,,,,,,,,,7,,,52,0
304199,note_on,131,0,6,,,,,,,,,5,,,52,0
304220,note_on,42,0,7,,,,,,,,,6,,,61,127
304241,note_on,175,0,2,,,,,,,,,1,,,80,0
304241,note_on,173,0,3,,,,,,,,,2,,,80,0
304241,note_on,175,0,1,,,,,,,,,0,,,80,0
304242,note_on,174,0,4,,,,,,,,,3,,,64,0
304244,note_on,45,0,8,,,,,,,,,7,,,46,127
304244,note_on,47,0,5,,,,,,,,,4,,,46,90
304244,note_on,45,0,6,,,,,,,,,5,,,46,90
304353,note_on,133,0,7,,,,,,,,,6,,,61,0
304355,note_on,2,0,7,,,,,,,,,6,,,68,0
304376,note_on,132,0,5,,,,,,,,,4,,,46,0
304376,note_on,132,0,6,,,,,,,,,5,,,46,0
304377,note_on,133,0,8,,,,,,,,,7,,,46,0
304398,note_on,0,0,7,,,,,,,,,6,,,63,127
304398,note_on,43,0,7,,,,,,,,,6,,,66,127
304419,note_on,178,0,1,,,,,,,,,0,,,78,127
304422,note_on,181,0,2,,,,,,,,,1,,,78,63
304422,note_on,45,0,8,,,,,,,,,7,,,47,127
304422,note_on,181,0,3,,,,,,,,,2,,,78,64
304422,note_on,46,0,5,,,,,,,,,4,,,47,90
304422,note_on,180,0,4,,,,,,,,,3,,,63,65
304422,note_on,46,0,6,,,,,,,,,5,,,47,90
304551,note_on,129,0,6,,,,,,,,,5,,,47,0
304551,note_on,129,0,5,,,,,,,,,4,,,47,0
304552,note_on,130,0,8,,,,,,,,,7,,,47,0
304597,note_on,175,0,2,,,,,,,,,1,,,78,0
304597,note_on,175,0,3,,,,,,,,,2,,,78,0
304599,note_on,48,0,6,,,,,,,,,5,,,59,90
304599,note_on,48,0,5,,,,,,,,,4,,,59,90
304599,note_on,47,0,8,,,,,,,,,7,,,59,127
304730,note_on,131,0,6,,,,,,,,,5,,,59,0
304730,note_on,131,0,5,,,,,,,,,4,,,59,0
304730,note_on,131,0,8,,,,,,,,,7,,,59,0
304750,note_on,352,0,7,,,,,,,,,6,,,63,0
304753,note_on,3,0,7,,,,,,,,,6,,,66,0
304775,note_on,45,0,5,,,,,,,,,4,,,54,90
304775,note_on,356,0,1,,,,,,,,,0,,,78,0
304775,note_on,353,0,4,,,,,,,,,3,,,63,0
304777,note_on,47,0,6,,,,,,,,,5,,,54,90
304777,note_on,47,0,8,,,,,,,,,7,,,54,127
304905,note_on,130,0,5,,,,,,,,,4,,,54,0
304906,note_on,129,0,6,,,,,,,,,5,,,54,0
304907,note_on,130,0,8,,,,,,,,,7,,,54,0
304950,note_on,353,0,2,,,,,,,,,1,,,83,63
304950,note_on,175,0,1,,,,,,,,,0,,,83,127
304952,note_on,47,0,5,,,,,,,,,4,,,51,90
304952,note_on,355,0,3,,,,,,,,,2,,,83,64
304952,note_on,46,0,6,,,,,,,,,5,,,51,90
304952,note_on,177,0,4,,,,,,,,,3,,,66,65
304954,note_on,47,0,8,,,,,,,,,7,,,51,127
305085,note_on,135,0,1,,,,,,,,,0,,,83,0
305086,note_on,134,0,4,,,,,,,,,3,,,66,0
305086,note_on,134,0,3,,,,,,,,,2,,,83,0
305086,note_on,136,0,2,,,,,,,,,1,,,83,0
305086,note_on,134,0,5,,,,,,,,,4,,,51,0
305086,note_on,134,0,6,,,,,,,,,5,,,51,0
305087,note_on,133,0,8,,,,,,,,,7,,,51,0
305105,note_on,0,0,7,,,,,,,,,6,,,60,127
305105,note_on,352,0,7,,,,,,,,,6,,,67,127
305128,note_on,43,0,1,,,,,,,,,0,,,85,127
305129,note_on,43,0,3,,,,,,,,,2,,,85,64
305129,note_on,43,0,2,,,,,,,,,1,,,85,63
305130,note_on,44,0,4,,,,,,,,,3,,,67,65
305131,note_on,45,0,6,,,,,,,,,5,,,52,90
305131,note_on,45,0,5,,,,,,,,,4,,,52,90
305132,note_on,45,0,8,,,,,,,,,7,,,52,127
305240,note_on,135,0,7,,,,,,,,,6,,,67,0
305262,note_on,134,0,1,,,,,,,,,0,,,85,0
305263,note_on,132,0,5,,,,,,,,,4,,,52,0
305263,note_on,134,0,2,,,,,,,,,1,,,85,0
305263,note_on,134,0,3,,,,,,,,,2,,,85,0
305263,note_on,133,0,4,,,,,,,,,3,,,67,0
305266,note_on,135,0,6,,,,,,,,,5,,,52,0
305266,note_on,134,0,8,,,,,,,,,7,,,52,0
305285,note_on,45,0,7,,,,,,,,,6,,,69,127
305306,note_on,44,0,1,,,,,,,,,0,,,81,127
305307,note_on,44,0,2,,,,,,,,,1,,,81,63
305307,note_on,44,0,4,,,,,,,,,3,,,69,66
305307,note_on,44,0,3,,,,,,,,,2,,,81,64
305310,note_on,47,0,5,,,,,,,,,4,,,54,90
305310,note_on,44,0,6,,,,,,,,,5,,,54,90
305310,note_on,44,0,8,,,,,,,,,7,,,54,127
305415,note_on,130,0,7,,,,,,,,,6,,,69,0
305420,note_on,5,0,7,,,,,,,,,6,,,60,0
305439,note_on,132,0,4,,,,,,,,,3,,,69,0
305439,note_on,129,0,5,,,,,,,,,4,,,54,0
305439,note_on,129,0,6,,,,,,,,,5,,,54,0
305442,note_on,132,0,8,,,,,,,,,7,,,54,0
305460,note_on,40,0,7,,,,,,,,,6,,,66,127
305460,note_on,0,0,7,,,,,,,,,6,,,59,127
305485,note_on,46,0,4,,,,,,,,,3,,,66,66
305485,note_on,46,0,5,,,,,,,,,4,,,51,90
305485,note_on,43,0,8,,,,,,,,,7,,,51,127
305485,note_on,46,0,6,,,,,,,,,5,,,51,90
305613,note_on,307,0,1,,,,,,,,,0,,,81,0
305614,note_on,307,0,2,,,,,,,,,1,,,81,0
305614,note_on,307,0,3,,,,,,,,,2,,,81,0
305616,note_on,131,0,4,,,,,,,,,3,,,66,0
305616,note_on,131,0,5,,,,,,,,,4,,,51,0
305617,note_on,132,0,8,,,,,,,,,7,,,51,0
305617,note_on,132,0,6,,,,,,,,,5,,,51,0
305660,note_on,47,0,1,,,,,,,,,0,,,83,127
305661,note_on,47,0,2,,,,,,,,,1,,,83,63
305661,note_on,47,0,3,,,,,,,,,2,,,83,64
305664,note_on,47,0,6,,,,,,,,,5,,,47,90
305664,note_on,47,0,8,,,,,,,,,7,,,47,127
305664,note_on,48,0,4,,,,,,,,,3,,,63,66
305664,note_on,48,0,5,,,,,,,,,4,,,47,90
305770,note_on,310,0,7,,,,,,,,,6,,,66,0
305775,note_on,5,0,7,,,,,,,,,6,,,59,0
305793,note_on,129,0,4,,,,,,,,,3,,,63,0
305793,note_on,133,0,1,,,,,,,,,0,,,83,0
305793,note_on,132,0,2,,,,,,,,,1,,,83,0
305793,note_on,132,0,3,,,,,,,,,2,,,83,0
305793,note_on,129,0,5,,,,,,,,,4,,,47,0
305796,note_on,132,0,6,,,,,,,,,5,,,47,0
305796,note_on,132,0,8,,,,,,,,,7,,,47,0
305814,note_on,39,0,7,,,,,,,,,6,,,67,127
305814,note_on,0,0,7,,,,,,,,,6,,,59,127
305837,note_on,44,0,1,,,,,,,,,0,,,79,127
305837,note_on,44,0,2,,,,,,,,,1,,,79,63
305838,note_on,45,0,4,,,,,,,,,3,,,59,66
305838,note_on,45,0,3,,,,,,,,,2,,,79,64
305839,note_on,46,0,5,,,,,,,,,4,,,52,90
305840,note_on,44,0,6,,,,,,,,,5,,,52,90
305840,note_on,44,0,8,,,,,,,,,7,,,52,127
305947,note_on,133,0,7,,,,,,,,,6,,,67,0
305969,note_on,131,0,3,,,,,,,,,2,,,79,0
305969,note_on,132,0,2,,,,,,,,,1,,,79,0
305969,note_on,132,0,1,,,,,,,,,0,,,79,0
305970,note_on,131,0,5,,,,,,,,,4,,,52,0
305971,note_on,131,0,6,,,,,,,,,5,,,52,0
305971,note_on,131,0,8,,,,,,,,,7,,,52,0
305993,note_on,46,0,7,,,,,,,,,6,,,66,127
306014,note_on,45,0,1,,,,,,,,,0,,,78,127
306015,note_on,46,0,3,,,,,,,,,2,,,78,64
306015,note_on,46,0,2,,,,,,,,,1,,,78,63
306016,note_on,45,0,6,,,,,,,,,5,,,51,90
306016,note_on,45,0,8,,,,,,,,,7,,,51,127
306016,note_on,46,0,5,,,,,,,,,4,,,51,90
306100,note_on,86,0,1,,,,,,,,,0,,,78,0
306104,note_on,89,0,3,,,,,,,,,2,,,76,64
306104,note_on,4,0,1,,,,,,,,,0,,,76,127
306104,note_on,89,0,2,,,,,,,,,1,,,76,63
306125,note_on,132,0,7,,,,,,,,,6,,,66,0
306133,note_on,29,0,3,,,,,,,,,2,,,78,0
306133,note_on,29,0,2,,,,,,,,,1,,,78,0
306147,note_on,131,0,5,,,,,,,,,4,,,51,0
306148,note_on,132,0,8,,,,,,,,,7,,,51,0
306148,note_on,132,0,6,,,,,,,,,5,,,51,0
306170,note_on,45,0,7,,,,,,,,,6,,,64,127
306190,note_on,86,0,1,,,,,,,,,0,,,76,0
306193,note_on,3,0,1,,,,,,,,,0,,,79,127
306193,note_on,60,0,2,,,,,,,,,1,,,79,63
306195,note_on,62,0,3,,,,,,,,,2,,,79,64
306196,note_on,48,0,8,,,,,,,,,7,,,52,127
306196,note_on,358,0,4,,,,,,,,,3,,,59,0
306196,note_on,48,0,6,,,,,,,,,5,,,52,90
306196,note_on,49,0,5,,,,,,,,,4,,,52,90
306222,note_on,29,0,2,,,,,,,,,1,,,76,0
306222,note_on,27,0,3,,,,,,,,,2,,,76,0
306324,note_on,131,0,1,,,,,,,,,0,,,79,0
306324,note_on,102,0,2,,,,,,,,,1,,,79,0
306325,note_on,103,0,3,,,,,,,,,2,,,79,0
306326,note_on,130,0,6,,,,,,,,,5,,,52,0
306326,note_on,130,0,5,,,,,,,,,4,,,52,0
306327,note_on,131,0,8,,,,,,,,,7,,,52,0
306371,note_on,47,0,2,,,,,,,,,1,,,78,63
306371,note_on,46,0,3,,,,,,,,,2,,,78,64
306371,note_on,175,0,4,,,,,,,,,3,,,71,67
306371,note_on,47,0,1,,,,,,,,,0,,,78,127
306374,note_on,47,0,8,,,,,,,,,7,,,40,127
306374,note_on,48,0,5,,,,,,,,,4,,,40,90
306374,note_on,48,0,6,,,,,,,,,5,,,40,90
306457,note_on,86,0,1,,,,,,,,,0,,,78,0
306460,note_on,89,0,3,,,,,,,,,2,,,76,64
306460,note_on,3,0,1,,,,,,,,,0,,,76,127
306460,note_on,89,0,2,,,,,,,,,1,,,76,63
306478,note_on,308,0,7,,,,,,,,,6,,,64,0
306483,note_on,5,0,7,,,,,,,,,6,,,59,0
306488,note_on,28,0,3,,,,,,,,,2,,,78,0
306488,note_on,28,0,2,,,,,,,,,1,,,78,0
306504,note_on,130,0,8,,,,,,,,,7,,,40,0
306504,note_on,130,0,6,,,,,,,,,5,,,40,0
306504,note_on,130,0,5,,,,,,,,,4,,,40,0
306504,note_on,133,0,4,,,,,,,,,3,,,71,0
306524,note_on,0,0,7,,,,,,,,,6,,,61,127
306524,note_on,41,0,7,,,,,,,,,6,,,67,127
306545,note_on,85,0,1,,,,,,,,,0,,,76,0
306549,note_on,45,0,4,,,,,,,,,3,,,67,67
306549,note_on,61,0,3,,,,,,,,,2,,,85,64
306549,note_on,45,0,8,,,,,,,,,7,,,52,127
306549,note_on,61,0,2,,,,,,,,,1,,,85,63
306549,note_on,45,0,6,,,,,,,,,5,,,52,90
306549,note_on,4,0,1,,,,,,,,,0,,,85,127
306549,note_on,45,0,5,,,,,,,,,4,,,52,90
306577,note_on,28,0,2,,,,,,,,,1,,,76,0
306577,note_on,28,0,3,,,,,,,,,2,,,76,0
306659,note_on,135,0,7,,,,,,,,,6,,,67,0
306679,note_on,130,0,1,,,,,,,,,0,,,85,0
306679,note_on,102,0,2,,,,,,,,,1,,,85,0
306680,note_on,103,0,3,,,,,,,,,2,,,85,0
306680,note_on,131,0,4,,,,,,,,,3,,,67,0
306680,note_on,131,0,5,,,,,,,,,4,,,52,0
306681,note_on,132,0,6,,,,,,,,,5,,,52,0
306683,note_on,134,0,8,,,,,,,,,7,,,52,0
306701,note_on,42,0,7,,,,,,,,,6,,,69,127
306723,note_on,44,0,1,,,,,,,,,0,,,81,127
306725,note_on,45,0,3,,,,,,,,,2,,,81,64
306725,note_on,45,0,4,,,,,,,,,3,,,69,67
306725,note_on,46,0,2,,,,,,,,,1,,,81,63
306726,note_on,46,0,5,,,,,,,,,4,,,54,90
306726,note_on,45,0,6,,,,,,,,,5,,,54,90
306727,note_on,44,0,8,,,,,,,,,7,,,54,127
306835,note_on,134,0,7,,,,,,,,,6,,,69,0
306839,note_on,4,0,7,,,,,,,,,6,,,61,0
306858,note_on,133,0,4,,,,,,,,,3,,,69,0
306858,note_on,132,0,5,,,,,,,,,4,,,54,0
306858,note_on,132,0,6,,,,,,,,,5,,,54,0
306858,note_on,131,0,8,,,,,,,,,7,,,54,0
306880,note_on,41,0,7,,,,,,,,,6,,,66,127
306880,note_on,0,0,7,,,,,,,,,6,,,59,127
306901,note_on,43,0,4,,,,,,,,,3,,,66,67
306902,note_on,44,0,5,,,,,,,,,4,,,51,90
306902,note_on,44,0,8,,,,,,,,,7,,,51,127
306902,note_on,44,0,6,,,,,,,,,5,,,51,90
307035,note_on,310,0,3,,,,,,,,,2,,,81,0
307035,note_on,133,0,5,,,,,,,,,4,,,51,0
307035,note_on,134,0,4,,,,,,,,,3,,,66,0
307035,note_on,312,0,1,,,,,,,,,0,,,81,0
307035,note_on,310,0,2,,,,,,,,,1,,,81,0
307036,note_on,134,0,8,,,,,,,,,7,,,51,0
307036,note_on,134,0,6,,,,,,,,,5,,,51,0
307079,note_on,44,0,2,,,,,,,,,1,,,83,63
307079,note_on,44,0,1,,,,,,,,,0,,,83,127
307082,note_on,47,0,4,,,,,,,,,3,,,63,67
307082,note_on,47,0,5,,,,,,,,,4,,,47,90
307082,note_on,46,0,8,,,,,,,,,7,,,47,127
307082,note_on,46,0,6,,,,,,,,,5,,,47,90
307082,note_on,47,0,3,,,,,,,,,2,,,83,64
307186,note_on,306,0,7,,,,,,,,,6,,,66,0
307193,note_on,7,0,7,,,,,,,,,6,,,59,0
307211,note_on,132,0,1,,,,,,,,,0,,,83,0
307214,note_on,135,0,2,,,,,,,,,1,,,83,0
307214,note_on,132,0,3,,,,,,,,,2,,,83,0
307214,note_on,132,0,4,,,,,,,,,3,,,63,0
307214,note_on,132,0,5,,,,,,,,,4,,,47,0
307214,note_on,132,0,6,,,,,,,,,5,,,47,0
307216,note_on,134,0,8,,,,,,,,,7,,,47,0
307232,note_on,39,0,7,,,,,,,,,6,,,67,127
307232,note_on,0,0,7,,,,,,,,,6,,,59,127
307254,note_on,43,0,1,,,,,,,,,0,,,79,127
307255,note_on,41,0,2,,,,,,,,,1,,,79,63
307256,note_on,42,0,6,,,,,,,,,5,,,52,90
307256,note_on,42,0,4,,,,,,,,,3,,,59,68
307256,note_on,40,0,8,,,,,,,,,7,,,52,127
307256,note_on,42,0,3,,,,,,,,,2,,,79,64
307256,note_on,42,0,5,,,,,,,,,4,,,52,90
307366,note_on,134,0,7,,,,,,,,,6,,,67,0
307388,note_on,134,0,1,,,,,,,,,0,,,79,0
307388,note_on,133,0,2,,,,,,,,,1,,,79,0
307389,note_on,133,0,3,,,,,,,,,2,,,79,0
307391,note_on,135,0,8,,,,,,,,,7,,,52,0
307391,note_on,135,0,5,,,,,,,,,4,,,52,0
307391,note_on,135,0,6,,,,,,,,,5,,,52,0
307409,note_on,43,0,7,,,,,,,,,6,,,66,127
307433,note_on,45,0,1,,,,,,,,,0,,,78,127
307433,note_on,45,0,2,,,,,,,,,1,,,78,63
307437,note_on,46,0,5,,,,,,,,,4,,,51,90
307437,note_on,46,0,8,,,,,,,,,7,,,51,127
307437,note_on,48,0,3,,,,,,,,,2,,,78,64
307437,note_on,46,0,6,,,,,,,,,5,,,51,90
307521,note_on,88,0,1,,,,,,,,,0,,,78,0
307523,note_on,2,0,1,,,,,,,,,0,,,76,127
307523,note_on,90,0,2,,,,,,,,,1,,,76,63
307523,note_on,86,0,3,,,,,,,,,2,,,76,64
307543,note_on,134,0,7,,,,,,,,,6,,,66,0
307547,note_on,24,0,2,,,,,,,,,1,,,78,0
307548,note_on,25,0,3,,,,,,,,,2,,,78,0
307566,note_on,129,0,5,,,,,,,,,4,,,51,0
307566,note_on,129,0,8,,,,,,,,,7,,,51,0
307566,note_on,129,0,6,,,,,,,,,5,,,51,0
307588,note_on,45,0,7,,,,,,,,,6,,,64,127
307607,note_on,84,0,1,,,,,,,,,0,,,76,0
307612,note_on,46,0,6,,,,,,,,,5,,,52,90
307612,note_on,356,0,4,,,,,,,,,3,,,59,0
307612,note_on,65,0,2,,,,,,,,,1,,,79,63
307612,note_on,5,0,1,,,,,,,,,0,,,79,127
307612,note_on,64,0,3,,,,,,,,,2,,,79,64
307612,note_on,46,0,5,,,,,,,,,4,,,52,90
307614,note_on,48,0,8,,,,,,,,,7,,,52,127
307640,note_on,28,0,3,,,,,,,,,2,,,76,0
307640,note_on,28,0,2,,,,,,,,,1,,,76,0
307745,note_on,105,0,2,,,,,,,,,1,,,79,0
307745,note_on,105,0,3,,,,,,,,,2,,,79,0
307745,note_on,131,0,8,,,,,,,,,7,,,52,0
307745,note_on,133,0,1,,,,,,,,,0,,,79,0
307745,note_on,133,0,5,,,,,,,,,4,,,52,0
307745,note_on,133,0,6,,,,,,,,,5,,,52,0
307788,note_on,43,0,3,,,,,,,,,2,,,78,64
307788,note_on,43,0,1,,,,,,,,,0,,,78,127
307788,note_on,43,0,2,,,,,,,,,1,,,78,63
307788,note_on,176,0,4,,,,,,,,,3,,,71,68
307789,note_on,44,0,5,,,,,,,,,4,,,40,90
307790,note_on,45,0,6,,,,,,,,,5,,,40,90
307790,note_on,45,0,8,,,,,,,,,7,,,40,127
307873,note_on,85,0,1,,,,,,,,,0,,,78,0
307875,note_on,2,0,1,,,,,,,,,0,,,76,127
307875,note_on,87,0,2,,,,,,,,,1,,,76,65
307876,note_on,88,0,3,,,,,,,,,2,,,76,64
307896,note_on,308,0,7,,,,,,,,,6,,,64,0
307900,note_on,4,0,7,,,,,,,,,6,,,59,0
307903,note_on,28,0,2,,,,,,,,,1,,,78,0
307904,note_on,28,0,3,,,,,,,,,2,,,78,0
307922,note_on,133,0,5,,,,,,,,,4,,,40,0
307922,note_on,134,0,4,,,,,,,,,3,,,71,0
307922,note_on,132,0,8,,,,,,,,,7,,,40,0
307922,note_on,132,0,6,,,,,,,,,5,,,40,0
307942,note_on,42,0,7,,,,,,,,,6,,,59,127
307944,note_on,2,0,7,,,,,,,,,6,,,68,127
307961,note_on,86,0,1,,,,,,,,,0,,,76,0
307966,note_on,5,0,1,,,,,,,,,0,,,83,127
307966,note_on,44,0,5,,,,,,,,,4,,,52,90
307966,note_on,62,0,3,,,,,,,,,2,,,83,64
307966,note_on,44,0,4,,,,,,,,,3,,,68,68
307966,note_on,63,0,2,,,,,,,,,1,,,83,65
307967,note_on,45,0,6,,,,,,,,,5,,,52,90
307968,note_on,46,0,8,,,,,,,,,7,,,52,127
307994,note_on,28,0,3,,,,,,,,,2,,,76,0
307994,note_on,28,0,2,,,,,,,,,1,,,76,0
308099,note_on,105,0,3,,,,,,,,,2,,,83,0
308099,note_on,105,0,2,,,,,,,,,1,,,83,0
308099,note_on,133,0,1,,,,,,,,,0,,,83,0
308099,note_on,133,0,4,,,,,,,,,3,,,68,0
308103,note_on,135,0,8,,,,,,,,,7,,,52,0
308103,note_on,136,0,6,,,,,,,,,5,,,52,0
308103,note_on,137,0,5,,,,,,,,,4,,,52,0
308141,note_on,42,0,2,,,,,,,,,1,,,76,65
308141,note_on,42,0,1,,,,,,,,,0,,,76,127
308142,note_on,43,0,3,,,,,,,,,2,,,76,64
308143,note_on,40,0,5,,,,,,,,,4,,,52,90
308143,note_on,44,0,4,,,,,,,,,3,,,68,69
308144,note_on,41,0,8,,,,,,,,,7,,,52,127
308144,note_on,41,0,6,,,,,,,,,5,,,52,90
308252,note_on,308,0,7,,,,,,,,,6,,,68,0
308255,note_on,3,0,7,,,,,,,,,6,,,59,0
308275,note_on,134,0,1,,,,,,,,,0,,,76,0
308275,note_on,134,0,2,,,,,,,,,1,,,76,0
308277,note_on,134,0,5,,,,,,,,,4,,,52,0
308277,note_on,134,0,4,,,,,,,,,3,,,68,0
308277,note_on,135,0,3,,,,,,,,,2,,,76,0
308279,note_on,135,0,6,,,,,,,,,5,,,52,0
308279,note_on,135,0,8,,,,,,,,,7,,,52,0
308296,note_on,41,0,7,,,,,,,,,6,,,66,127
308296,note_on,0,0,7,,,,,,,,,6,,,61,127
308319,note_on,44,0,1,,,,,,,,,0,,,78,127
308321,note_on,46,0,2,,,,,,,,,1,,,78,65
308321,note_on,42,0,6,,,,,,,,,5,,,45,90
308321,note_on,44,0,3,,,,,,,,,2,,,78,64
308321,note_on,44,0,4,,,,,,,,,3,,,69,69
308321,note_on,44,0,5,,,,,,,,,4,,,45,90
308321,note_on,42,0,8,,,,,,,,,7,,,45,127
308434,note_on,138,0,7,,,,,,,,,6,,,61,0
308454,note_on,135,0,1,,,,,,,,,0,,,78,0
308454,note_on,133,0,8,,,,,,,,,7,,,45,0
308454,note_on,133,0,2,,,,,,,,,1,,,78,0
308454,note_on,133,0,6,,,,,,,,,5,,,45,0
308454,note_on,133,0,5,,,,,,,,,4,,,45,0
308454,note_on,133,0,4,,,,,,,,,3,,,69,0
308454,note_on,133,0,3,,,,,,,,,2,,,78,0
308475,note_on,41,0,7,,,,,,,,,6,,,63,127
308498,note_on,44,0,4,,,,,,,,,3,,,66,69
308498,note_on,44,0,3,,,,,,,,,2,,,75,64
308498,note_on,44,0,2,,,,,,,,,1,,,75,65
308498,note_on,44,0,1,,,,,,,,,0,,,75,127
308498,note_on,44,0,5,,,,,,,,,4,,,47,90
308500,note_on,46,0,8,,,,,,,,,7,,,47,127
308500,note_on,46,0,6,,,,,,,,,5,,,47,90
308607,note_on,132,0,7,,,,,,,,,6,,,63,0
308609,note_on,2,0,7,,,,,,,,,6,,,66,0
308630,note_on,132,0,4,,,,,,,,,3,,,66,0
308630,note_on,132,0,2,,,,,,,,,1,,,75,0
308630,note_on,132,0,3,,,,,,,,,2,,,75,0
308630,note_on,132,0,1,,,,,,,,,0,,,75,0
308633,note_on,133,0,8,,,,,,,,,7,,,47,0
308633,note_on,133,0,6,,,,,,,,,5,,,47,0
308633,note_on,135,0,5,,,,,,,,,4,,,47,0
308649,note_on,0,0,7,,,,,,,,,6,,,56,127
308649,note_on,40,0,7,,,,,,,,,6,,,64,127
308649,note_on,0,0,7,,,,,,,,,6,,,59,127
308676,note_on,43,0,8,,,,,,,,,7,,,52,127
308676,note_on,46,0,2,,,,,,,,,1,,,76,65
308676,note_on,46,0,4,,,,,,,,,3,,,68,69
308676,note_on,43,0,6,,,,,,,,,5,,,52,90
308676,note_on,46,0,1,,,,,,,,,0,,,76,127
308676,note_on,46,0,3,,,,,,,,,2,,,76,64
308676,note_on,43,0,5,,,,,,,,,4,,,52,90
308737,note_on,61,0,1,,,,,,,,,0,,,76,0
308762,note_on,25,0,1,,,,,,,,,0,,,75,127
308824,note_on,62,0,1,,,,,,,,,0,,,75,0
308849,note_on,25,0,1,,,,,,,,,0,,,73,127
308916,note_on,67,0,1,,,,,,,,,0,,,73,0
308938,note_on,22,0,1,,,,,,,,,0,,,71,127
308961,note_on,312,0,7,,,,,,,,,6,,,56,0
308963,note_on,2,0,7,,,,,,,,,6,,,59,0
308963,note_on,0,0,7,,,,,,,,,6,,,64,0
308984,note_on,308,0,5,,,,,,,,,4,,,52,0
308984,note_on,308,0,8,,,,,,,,,7,,,52,0
309003,note_on,65,0,1,,,,,,,,,0,,,71,0
309005,note_on,42,0,7,,,,,,,,,6,,,66,127
309005,note_on,0,0,7,,,,,,,,,6,,,59,127
309028,note_on,25,0,1,,,,,,,,,0,,,83,127
309028,note_on,352,0,2,,,,,,,,,1,,,76,0
309032,note_on,356,0,3,,,,,,,,,2,,,76,0
309032,note_on,356,0,4,,,,,,,,,3,,,68,0
309033,note_on,49,0,5,,,,,,,,,4,,,51,90
309033,program_change,0,0,5,,,,,,,,42,4,,,,
309033,note_on,357,0,6,,,,,,,,,5,,,52,0
309033,note_on,49,0,8,,,,,,,,,7,,,51,127
309091,note_on,63,0,1,,,,,,,,,0,,,83,0
309117,note_on,26,0,1,,,,,,,,,0,,,81,127
309179,note_on,62,0,1,,,,,,,,,0,,,81,0
309205,note_on,26,0,1,,,,,,,,,0,,,80,127
309269,note_on,64,0,1,,,,,,,,,0,,,80,0
309295,note_on,26,0,1,,,,,,,,,0,,,78,127
309316,note_on,311,0,7,,,,,,,,,6,,,59,0
309317,note_on,1,0,7,,,,,,,,,6,,,66,0
309339,note_on,306,0,5,,,,,,,,,4,,,51,0
309339,note_on,306,0,8,,,,,,,,,7,,,51,0
309358,note_on,63,0,1,,,,,,,,,0,,,78,0
309360,note_on,43,0,7,,,,,,,,,6,,,59,127
309361,note_on,1,0,7,,,,,,,,,6,,,68,127
309361,note_on,0,0,7,,,,,,,,,6,,,64,127
309382,note_on,43,0,5,,,,,,,,,4,,,52,90
309382,note_on,24,0,1,,,,,,,,,0,,,76,127
309383,note_on,44,0,8,,,,,,,,,7,,,52,127
309447,note_on,65,0,1,,,,,,,,,0,,,76,0
309471,note_on,24,0,1,,,,,,,,,0,,,75,127
309533,note_on,62,0,1,,,,,,,,,0,,,75,0
309560,note_on,27,0,1,,,,,,,,,0,,,73,127
309623,note_on,63,0,1,,,,,,,,,0,,,73,0
309649,note_on,26,0,1,,,,,,,,,0,,,71,127
309670,note_on,309,0,7,,,,,,,,,6,,,59,0
309673,note_on,0,0,7,,,,,,,,,6,,,68,0
309673,note_on,3,0,7,,,,,,,,,6,,,64,0
309693,note_on,311,0,5,,,,,,,,,4,,,52,0
309693,note_on,310,0,8,,,,,,,,,7,,,52,0
309714,note_on,65,0,1,,,,,,,,,0,,,71,0
309714,note_on,0,0,7,,,,,,,,,6,,,59,127
309714,note_on,41,0,7,,,,,,,,,6,,,66,127
309738,note_on,45,0,5,,,,,,,,,4,,,51,90
309738,note_on,45,0,8,,,,,,,,,7,,,51,127
309738,note_on,24,0,1,,,,,,,,,0,,,83,127
309801,note_on,63,0,1,,,,,,,,,0,,,83,0
309826,note_on,25,0,1,,,,,,,,,0,,,81,127
309889,note_on,63,0,1,,,,,,,,,0,,,81,0
309914,note_on,25,0,1,,,,,,,,,0,,,80,127
309980,note_on,66,0,1,,,,,,,,,0,,,80,0
310004,note_on,24,0,1,,,,,,,,,0,,,78,127
310024,note_on,310,0,7,,,,,,,,,6,,,59,0
310027,note_on,3,0,7,,,,,,,,,6,,,66,0
310048,note_on,310,0,5,,,,,,,,,4,,,51,0
310048,note_on,310,0,8,,,,,,,,,7,,,51,0
310067,note_on,63,0,1,,,,,,,,,0,,,78,0
310069,note_on,0,0,7,,,,,,,,,6,,,59,127
310069,note_on,0,0,7,,,,,,,,,6,,,56,127
310069,note_on,42,0,7,,,,,,,,,6,,,64,127
310093,note_on,45,0,8,,,,,,,,,7,,,52,127
310093,note_on,45,0,5,,,,,,,,,4,,,52,90
310093,note_on,26,0,1,,,,,,,,,0,,,76,127
310156,note_on,63,0,1,,,,,,,,,0,,,76,0
310180,note_on,24,0,1,,,,,,,,,0,,,75,127
310245,note_on,65,0,1,,,,,,,,,0,,,75,0
310270,note_on,25,0,1,,,,,,,,,0,,,73,127
310331,note_on,61,0,1,,,,,,,,,0,,,73,0
310357,note_on,26,0,1,,,,,,,,,0,,,71,127
310381,note_on,312,0,7,,,,,,,,,6,,,56,0
310382,note_on,1,0,7,,,,,,,,,6,,,59,0
310384,note_on,2,0,7,,,,,,,,,6,,,64,0
310402,note_on,309,0,5,,,,,,,,,4,,,52,0
310403,note_on,310,0,8,,,,,,,,,7,,,52,0
310423,note_on,66,0,1,,,,,,,,,0,,,71,0
310424,note_on,40,0,7,,,,,,,,,6,,,69,127
310424,note_on,0,0,7,,,,,,,,,6,,,63,127
310447,note_on,44,0,8,,,,,,,,,7,,,54,127
310447,note_on,45,0,5,,,,,,,,,4,,,54,90
310447,note_on,24,0,1,,,,,,,,,0,,,69,127
310511,note_on,64,0,1,,,,,,,,,0,,,69,0
310535,note_on,24,0,1,,,,,,,,,0,,,68,127
310579,note_on,132,0,5,,,,,,,,,4,,,54,0
310579,note_on,132,0,8,,,,,,,,,7,,,54,0
310599,note_on,64,0,1,,,,,,,,,0,,,68,0
310624,note_on,25,0,1,,,,,,,,,0,,,66,127
310624,note_on,45,0,5,,,,,,,,,4,,,50,90
310624,note_on,45,0,8,,,,,,,,,7,,,47,127
310687,note_on,63,0,1,,,,,,,,,0,,,66,0
310713,note_on,26,0,1,,,,,,,,,0,,,69,127
310733,note_on,309,0,7,,,,,,,,,6,,,63,0
310735,note_on,2,0,7,,,,,,,,,6,,,69,0
310758,note_on,134,0,8,,,,,,,,,7,,,47,0
310758,note_on,134,0,5,,,,,,,,,4,,,50,0
310775,note_on,62,0,1,,,,,,,,,0,,,69,0
310779,note_on,0,0,7,,,,,,,,,6,,,59,127
310779,note_on,44,0,7,,,,,,,,,6,,,68,127
310802,note_on,27,0,1,,,,,,,,,0,,,68,127
310802,note_on,44,0,8,,,,,,,,,7,,,52,127
310802,note_on,44,0,5,,,,,,,,,4,,,52,90
310935,note_on,133,0,1,,,,,,,,,0,,,68,0
310935,note_on,133,0,8,,,,,,,,,7,,,52,0
310935,note_on,133,0,5,,,,,,,,,4,,,52,0
310979,note_on,44,0,1,,,,,,,,,0,,,64,127
310980,note_on,45,0,5,,,,,,,,,4,,,54,90
310980,note_on,45,0,8,,,,,,,,,7,,,54,127
311090,note_on,311,0,7,,,,,,,,,6,,,68,0
311111,note_on,131,0,5,,,,,,,,,4,,,54,0
311112,note_on,132,0,8,,,,,,,,,7,,,54,0
311132,note_on,42,0,7,,,,,,,,,6,,,64,127
311156,note_on,44,0,8,,,,,,,,,7,,,56,127
311156,note_on,177,0,1,,,,,,,,,0,,,64,0
311156,note_on,45,0,5,,,,,,,,,4,,,56,90
311289,note_on,133,0,8,,,,,,,,,7,,,56,0
311289,note_on,133,0,5,,,,,,,,,4,,,56,0
311334,note_on,45,0,8,,,,,,,,,7,,,54,127
311334,note_on,45,0,5,,,,,,,,,4,,,54,90
311334,note_on,178,0,1,,,,,,,,,0,,,76,127
311397,note_on,63,0,1,,,,,,,,,0,,,76,0
311421,note_on,24,0,1,,,,,,,,,0,,,78,127
311443,note_on,311,0,7,,,,,,,,,6,,,64,0
311444,note_on,1,0,7,,,,,,,,,6,,,59,0
311466,note_on,132,0,8,,,,,,,,,7,,,54,0
311466,note_on,132,0,5,,,,,,,,,4,,,54,0
311484,note_on,63,0,1,,,,,,,,,0,,,78,0
311486,note_on,42,0,7,,,,,,,,,6,,,71,127
311486,note_on,0,0,7,,,,,,,,,6,,,68,127
311509,note_on,25,0,1,,,,,,,,,0,,,80,127
311510,note_on,44,0,8,,,,,,,,,7,,,52,127
311510,note_on,44,0,5,,,,,,,,,4,,,52,90
311575,note_on,66,0,1,,,,,,,,,0,,,80,0
311599,note_on,24,0,1,,,,,,,,,0,,,76,127
311644,note_on,134,0,5,,,,,,,,,4,,,52,0
311644,note_on,134,0,8,,,,,,,,,7,,,52,0
311662,note_on,63,0,1,,,,,,,,,0,,,76,0
311687,note_on,25,0,1,,,,,,,,,0,,,80,127
311688,note_on,44,0,5,,,,,,,,,4,,,54,90
311690,note_on,46,0,8,,,,,,,,,7,,,54,127
311751,note_on,64,0,1,,,,,,,,,0,,,80,0
311776,note_on,25,0,1,,,,,,,,,0,,,81,127
311798,note_on,0,0,7,,,,,,,,,6,,,71,0
311798,note_on,312,0,7,,,,,,,,,6,,,68,0
311821,note_on,133,0,5,,,,,,,,,4,,,54,0
311821,note_on,131,0,8,,,,,,,,,7,,,54,0
311839,note_on,63,0,1,,,,,,,,,0,,,81,0
311841,note_on,0,0,7,,,,,,,,,6,,,64,127
311841,note_on,43,0,7,,,,,,,,,6,,,71,127
311865,note_on,26,0,1,,,,,,,,,0,,,83,127
311865,note_on,44,0,5,,,,,,,,,4,,,56,90
311867,note_on,46,0,8,,,,,,,,,7,,,56,127
311997,note_on,132,0,1,,,,,,,,,0,,,83,0
311999,note_on,132,0,8,,,,,,,,,7,,,56,0
311999,note_on,134,0,5,,,,,,,,,4,,,56,0
312043,note_on,44,0,8,,,,,,,,,7,,,52,127
312043,note_on,44,0,5,,,,,,,,,4,,,52,90
312043,note_on,46,0,1,,,,,,,,,0,,,74,127
312152,note_on,311,0,7,,,,,,,,,6,,,64,0
312155,note_on,3,0,7,,,,,,,,,6,,,71,0
312174,note_on,131,0,1,,,,,,,,,0,,,74,0
312175,note_on,132,0,8,,,,,,,,,7,,,52,0
312175,note_on,132,0,5,,,,,,,,,4,,,52,0
312197,note_on,0,0,7,,,,,,,,,6,,,64,127
312197,note_on,42,0,7,,,,,,,,,6,,,69,127
312219,note_on,44,0,5,,,,,,,,,4,,,57,90
312219,note_on,45,0,1,,,,,,,,,0,,,74,127
312220,note_on,45,0,8,,,,,,,,,7,,,57,127
312352,note_on,133,0,5,,,,,,,,,4,,,57,0
312352,note_on,132,0,8,,,,,,,,,7,,,57,0
312352,note_on,133,0,1,,,,,,,,,0,,,74,0
312397,note_on,45,0,1,,,,,,,,,0,,,73,127
312397,note_on,45,0,5,,,,,,,,,4,,,59,90
312397,note_on,45,0,8,,,,,,,,,7,,,59,127
312529,note_on,132,0,8,,,,,,,,,7,,,59,0
312529,note_on,132,0,5,,,,,,,,,4,,,59,0
312550,note_on,153,0,1,,,,,,,,,0,,,73,0
312575,note_on,46,0,8,,,,,,,,,7,,,61,127
312575,note_on,46,0,5,,,,,,,,,4,,,61,90
312708,note_on,133,0,8,,,,,,,,,7,,,61,0
312708,note_on,133,0,5,,,,,,,,,4,,,61,0
312751,note_on,43,0,8,,,,,,,,,7,,,57,127
312751,note_on,201,0,1,,,,,,,,,0,,,78,127
312751,note_on,43,0,5,,,,,,,,,4,,,57,90
312814,note_on,63,0,1,,,,,,,,,0,,,78,0
312840,note_on,26,0,1,,,,,,,,,0,,,80,127
312862,note_on,665,0,7,,,,,,,,,6,,,64,0
312863,note_on,1,0,7,,,,,,,,,6,,,69,0
312883,note_on,132,0,5,,,,,,,,,4,,,57,0
312885,note_on,134,0,8,,,,,,,,,7,,,57,0
312903,note_on,63,0,1,,,,,,,,,0,,,80,0
312906,note_on,43,0,7,,,,,,,,,6,,,73,127
312906,note_on,0,0,7,,,,,,,,,6,,,69,127
312928,note_on,43,0,8,,,,,,,,,7,,,54,127
312928,note_on,45,0,5,,,,,,,,,4,,,54,90
312928,note_on,25,0,1,,,,,,,,,0,,,81,127
312993,note_on,65,0,1,,,,,,,,,0,,,81,0
313017,note_on,24,0,1,,,,,,,,,0,,,78,127
313062,note_on,134,0,5,,,,,,,,,4,,,54,0
313062,note_on,134,0,8,,,,,,,,,7,,,54,0
313080,note_on,63,0,1,,,,,,,,,0,,,78,0
313105,note_on,25,0,1,,,,,,,,,0,,,81,127
313105,note_on,43,0,5,,,,,,,,,4,,,56,90
313105,note_on,43,0,8,,,,,,,,,7,,,56,127
313171,note_on,66,0,1,,,,,,,,,0,,,81,0
313194,note_on,23,0,1,,,,,,,,,0,,,83,127
313217,note_on,311,0,7,,,,,,,,,6,,,69,0
313217,note_on,0,0,7,,,,,,,,,6,,,73,0
313239,note_on,134,0,8,,,,,,,,,7,,,56,0
313239,note_on,134,0,5,,,,,,,,,4,,,56,0
313260,note_on,0,0,7,,,,,,,,,6,,,66,127
313260,note_on,43,0,7,,,,,,,,,6,,,73,127
313260,note_on,66,0,1,,,,,,,,,0,,,83,0
313283,note_on,44,0,5,,,,,,,,,4,,,58,90
313283,note_on,23,0,1,,,,,,,,,0,,,85,127
313284,note_on,45,0,8,,,,,,,,,7,,,58,127
313416,note_on,133,0,1,,,,,,,,,0,,,85,0
313417,note_on,133,0,8,,,,,,,,,7,,,58,0
313417,note_on,134,0,5,,,,,,,,,4,,,58,0
313460,note_on,44,0,1,,,,,,,,,0,,,76,127
313461,note_on,44,0,5,,,,,,,,,4,,,54,90
313461,note_on,44,0,8,,,,,,,,,7,,,54,127
313570,note_on,310,0,7,,,,,,,,,6,,,66,0
313572,note_on,2,0,7,,,,,,,,,6,,,73,0
313594,note_on,133,0,5,,,,,,,,,4,,,54,0
313594,note_on,134,0,1,,,,,,,,,0,,,76,0
313595,note_on,134,0,8,,,,,,,,,7,,,54,0
313614,note_on,42,0,7,,,,,,,,,6,,,71,127
313614,note_on,0,0,7,,,,,,,,,6,,,66,127
313638,note_on,44,0,1,,,,,,,,,0,,,76,127
313638,note_on,44,0,5,,,,,,,,,4,,,59,90
313639,note_on,44,0,8,,,,,,,,,7,,,59,127
313768,note_on,130,0,1,,,,,,,,,0,,,76,0
313769,note_on,131,0,5,,,,,,,,,4,,,59,0
313770,note_on,131,0,8,,,,,,,,,7,,,59,0
313816,note_on,47,0,5,,,,,,,,,4,,,61,90
313816,note_on,46,0,8,,,,,,,,,7,,,61,127
313816,note_on,48,0,1,,,,,,,,,0,,,75,127
313948,note_on,132,0,5,,,,,,,,,4,,,61,0
313948,note_on,132,0,8,,,,,,,,,7,,,61,0
313969,note_on,153,0,1,,,,,,,,,0,,,75,0
313992,note_on,44,0,8,,,,,,,,,7,,,63,127
313992,note_on,44,0,5,,,,,,,,,4,,,63,90
314125,note_on,133,0,8,,,,,,,,,7,,,63,0
314125,note_on,133,0,5,,,,,,,,,4,,,63,0
314168,note_on,199,0,1,,,,,,,,,0,,,80,127
314168,note_on,43,0,5,,,,,,,,,4,,,59,90
314170,note_on,45,0,8,,,,,,,,,7,,,59,127
314234,note_on,66,0,1,,,,,,,,,0,,,80,0
314258,note_on,24,0,1,,,,,,,,,0,,,81,127
314277,note_on,663,0,7,,,,,,,,,6,,,66,0
314280,note_on,3,0,7,,,,,,,,,6,,,71,0
314302,note_on,134,0,5,,,,,,,,,4,,,59,0
314303,note_on,133,0,8,,,,,,,,,7,,,59,0
314321,note_on,63,0,1,,,,,,,,,0,,,81,0
314323,note_on,43,0,7,,,,,,,,,6,,,75,127
314323,note_on,0,0,7,,,,,,,,,6,,,71,127
314344,note_on,23,0,1,,,,,,,,,0,,,83,127
314346,note_on,44,0,5,,,,,,,,,4,,,56,90
314346,note_on,43,0,8,,,,,,,,,7,,,56,127
314410,note_on,66,0,1,,,,,,,,,0,,,83,0
314433,note_on,23,0,1,,,,,,,,,0,,,80,127
314480,note_on,134,0,5,,,,,,,,,4,,,56,0
314480,note_on,134,0,8,,,,,,,,,7,,,56,0
314499,note_on,66,0,1,,,,,,,,,0,,,80,0
314524,note_on,25,0,1,,,,,,,,,0,,,83,127
314524,note_on,44,0,5,,,,,,,,,4,,,58,90
314525,note_on,45,0,8,,,,,,,,,7,,,58,127
314587,note_on,63,0,1,,,,,,,,,0,,,83,0
314612,note_on,25,0,1,,,,,,,,,0,,,85,127
314634,note_on,311,0,7,,,,,,,,,6,,,71,0
314636,note_on,2,0,7,,,,,,,,,6,,,75,0
314658,note_on,133,0,8,,,,,,,,,7,,,58,0
314658,note_on,134,0,5,,,,,,,,,4,,,58,0
314677,note_on,65,0,1,,,,,,,,,0,,,85,0
314679,note_on,0,0,7,,,,,,,,,6,,,68,127
314679,note_on,43,0,7,,,,,,,,,6,,,75,127
314702,note_on,44,0,8,,,,,,,,,7,,,60,127
314702,note_on,25,0,1,,,,,,,,,0,,,86,127
314702,note_on,44,0,5,,,,,,,,,4,,,60,90
314832,note_on,130,0,1,,,,,,,,,0,,,86,0
314833,note_on,131,0,5,,,,,,,,,4,,,60,0
314833,note_on,131,0,8,,,,,,,,,7,,,60,0
314879,note_on,46,0,5,,,,,,,,,4,,,56,90
314879,note_on,47,0,1,,,,,,,,,0,,,78,127
314879,note_on,46,0,8,,,,,,,,,7,,,56,127
314988,note_on,309,0,7,,,,,,,,,6,,,68,0
314991,note_on,3,0,7,,,,,,,,,6,,,75,0
315011,note_on,132,0,1,,,,,,,,,0,,,78,0
315011,note_on,132,0,5,,,,,,,,,4,,,56,0
315012,note_on,133,0,8,,,,,,,,,7,,,56,0
315034,note_on,0,0,7,,,,,,,,,6,,,68,127
315034,note_on,43,0,7,,,,,,,,,6,,,73,127
315055,note_on,44,0,1,,,,,,,,,0,,,78,127
315055,note_on,44,0,5,,,,,,,,,4,,,49,90
315056,note_on,44,0,8,,,,,,,,,7,,,49,127
315189,note_on,133,0,8,,,,,,,,,7,,,49,0
315189,note_on,134,0,5,,,,,,,,,4,,,49,0
315189,note_on,134,0,1,,,,,,,,,0,,,78,0
315235,note_on,46,0,5,,,,,,,,,4,,,51,90
315235,note_on,46,0,8,,,,,,,,,7,,,51,127
315235,note_on,46,0,1,,,,,,,,,0,,,76,127
315366,note_on,131,0,5,,,,,,,,,4,,,51,0
315366,note_on,131,0,8,,,,,,,,,7,,,51,0
315387,note_on,152,0,1,,,,,,,,,0,,,76,0
315411,note_on,45,0,5,,,,,,,,,4,,,52,90
315411,note_on,45,0,8,,,,,,,,,7,,,52,127
315544,note_on,133,0,5,,,,,,,,,4,,,52,0
315544,note_on,133,0,8,,,,,,,,,7,,,52,0
315587,note_on,200,0,1,,,,,,,,,0,,,80,127
315590,note_on,46,0,5,,,,,,,,,4,,,49,90
315590,note_on,46,0,8,,,,,,,,,7,,,49,127
315697,note_on,663,0,7,,,,,,,,,6,,,68,0
315699,note_on,2,0,7,,,,,,,,,6,,,73,0
315720,note_on,130,0,8,,,,,,,,,7,,,49,0
315720,note_on,130,0,5,,,,,,,,,4,,,49,0
315720,note_on,133,0,1,,,,,,,,,0,,,80,0
315743,note_on,0,0,7,,,,,,,,,6,,,69,127
315743,note_on,44,0,7,,,,,,,,,6,,,73,127
315764,note_on,44,0,1,,,,,,,,,0,,,81,127
315764,note_on,44,0,5,,,,,,,,,4,,,54,90
315765,note_on,45,0,8,,,,,,,,,7,,,54,127
315830,note_on,66,0,1,,,,,,,,,0,,,81,0
315853,note_on,23,0,1,,,,,,,,,0,,,83,127
315918,note_on,65,0,1,,,,,,,,,0,,,83,0
315942,note_on,24,0,1,,,,,,,,,0,,,81,127
316005,note_on,63,0,1,,,,,,,,,0,,,81,0
316030,note_on,25,0,1,,,,,,,,,0,,,80,127
316095,note_on,65,0,1,,,,,,,,,0,,,80,0
316119,note_on,24,0,1,,,,,,,,,0,,,78,127
316183,note_on,64,0,1,,,,,,,,,0,,,78,0
316208,note_on,25,0,1,,,,,,,,,0,,,76,127
316252,note_on,487,0,8,,,,,,,,,7,,,54,0
316252,note_on,488,0,5,,,,,,,,,4,,,54,0
316272,note_on,64,0,1,,,,,,,,,0,,,76,0
316296,note_on,24,0,1,,,,,,,,,0,,,75,127
316296,note_on,44,0,8,,,,,,,,,7,,,54,127
316296,note_on,44,0,5,,,,,,,,,4,,,54,90
316361,note_on,65,0,1,,,,,,,,,0,,,75,0
316386,note_on,25,0,1,,,,,,,,,0,,,73,127
316407,note_on,664,0,7,,,,,,,,,6,,,69,0
316409,note_on,2,0,7,,,,,,,,,6,,,73,0
316429,note_on,133,0,5,,,,,,,,,4,,,54,0
316431,note_on,135,0,8,,,,,,,,,7,,,54,0
316448,note_on,62,0,1,,,,,,,,,0,,,73,0
316452,note_on,43,0,7,,,,,,,,,6,,,72,127
316452,note_on,0,0,7,,,,,,,,,6,,,63,127
316473,note_on,25,0,1,,,,,,,,,0,,,72,127
316476,note_on,47,0,5,,,,,,,,,4,,,56,90
316476,note_on,45,0,8,,,,,,,,,7,,,56,127
316538,note_on,65,0,1,,,,,,,,,0,,,72,0
316562,note_on,24,0,1,,,,,,,,,0,,,75,127
316627,note_on,65,0,1,,,,,,,,,0,,,75,0
316650,note_on,23,0,1,,,,,,,,,0,,,73,127
316716,note_on,66,0,1,,,,,,,,,0,,,73,0
316740,note_on,24,0,1,,,,,,,,,0,,,72,127
316782,note_on,306,0,5,,,,,,,,,4,,,56,0
316783,note_on,307,0,8,,,,,,,,,7,,,56,0
316803,note_on,63,0,1,,,,,,,,,0,,,72,0
316828,note_on,25,0,1,,,,,,,,,0,,,66,127
316829,note_on,47,0,5,,,,,,,,,4,,,44,90
316829,note_on,46,0,8,,,,,,,,,7,,,44,127
316892,note_on,64,0,1,,,,,,,,,0,,,66,0
316918,note_on,26,0,1,,,,,,,,,0,,,75,127
316980,note_on,62,0,1,,,,,,,,,0,,,75,0
317004,note_on,24,0,1,,,,,,,,,0,,,73,127
317069,note_on,65,0,1,,,,,,,,,0,,,73,0
317094,note_on,25,0,1,,,,,,,,,0,,,72,127
317115,note_on,663,0,7,,,,,,,,,6,,,63,0
317118,note_on,3,0,7,,,,,,,,,6,,,72,0
317137,note_on,308,0,8,,,,,,,,,7,,,44,0
317137,note_on,308,0,5,,,,,,,,,4,,,44,0
317158,note_on,64,0,1,,,,,,,,,0,,,72,0
317159,note_on,41,0,7,,,,,,,,,6,,,72,127
317159,note_on,0,0,7,,,,,,,,,6,,,63,127
317183,note_on,46,0,5,,,,,,,,,4,,,56,90
317183,note_on,25,0,1,,,,,,,,,0,,,80,127
317183,note_on,46,0,8,,,,,,,,,7,,,56,127
317246,note_on,63,0,1,,,,,,,,,0,,,80,0
317271,note_on,25,0,1,,,,,,,,,0,,,75,127
317335,note_on,64,0,1,,,,,,,,,0,,,75,0
317360,note_on,25,0,1,,,,,,,,,0,,,73,127
317422,note_on,62,0,1,,,,,,,,,0,,,73,0
317449,note_on,27,0,1,,,,,,,,,0,,,72,127
317493,note_on,310,0,8,,,,,,,,,7,,,56,0
317493,note_on,310,0,5,,,,,,,,,4,,,56,0
317513,note_on,64,0,1,,,,,,,,,0,,,72,0
317538,note_on,45,0,5,,,,,,,,,4,,,44,90
317538,note_on,45,0,8,,,,,,,,,7,,,44,127
317538,note_on,25,0,1,,,,,,,,,0,,,66,127
317599,note_on,61,0,1,,,,,,,,,0,,,66,0
317626,note_on,27,0,1,,,,,,,,,0,,,75,127
317690,note_on,64,0,1,,,,,,,,,0,,,75,0
317712,note_on,22,0,1,,,,,,,,,0,,,73,127
317779,note_on,67,0,1,,,,,,,,,0,,,73,0
317803,note_on,24,0,1,,,,,,,,,0,,,72,127
317823,note_on,664,0,7,,,,,,,,,6,,,63,0
317828,note_on,5,0,7,,,,,,,,,6,,,72,0
317848,note_on,310,0,5,,,,,,,,,4,,,44,0
317848,note_on,310,0,8,,,,,,,,,7,,,44,0
317868,note_on,65,0,1,,,,,,,,,0,,,72,0
317870,note_on,0,0,7,,,,,,,,,6,,,66,127
317870,note_on,42,0,7,,,,,,,,,6,,,75,127
317890,note_on,22,0,1,,,,,,,,,0,,,80,127
317892,note_on,44,0,5,,,,,,,,,4,,,56,90
317892,note_on,44,0,8,,,,,,,,,7,,,56,127
317957,note_on,67,0,1,,,,,,,,,0,,,80,0
317981,note_on,24,0,1,,,,,,,,,0,,,75,127
318044,note_on,63,0,1,,,,,,,,,0,,,75,0
318069,note_on,25,0,1,,,,,,,,,0,,,73,127
318132,note_on,63,0,1,,,,,,,,,0,,,73,0
318158,note_on,26,0,1,,,,,,,,,0,,,72,127
318203,note_on,311,0,8,,,,,,,,,7,,,56,0
318203,note_on,311,0,5,,,,,,,,,4,,,56,0
318221,note_on,63,0,1,,,,,,,,,0,,,72,0
318244,note_on,23,0,1,,,,,,,,,0,,,66,127
318246,note_on,43,0,5,,,,,,,,,4,,,44,90
318246,note_on,43,0,8,,,,,,,,,7,,,44,127
318310,note_on,66,0,1,,,,,,,,,0,,,66,0
318335,note_on,25,0,1,,,,,,,,,0,,,75,127
318399,note_on,64,0,1,,,,,,,,,0,,,75,0
318423,note_on,24,0,1,,,,,,,,,0,,,73,127
318489,note_on,66,0,1,,,,,,,,,0,,,73,0
318511,note_on,22,0,1,,,,,,,,,0,,,72,127
318533,note_on,663,0,7,,,,,,,,,6,,,66,0
318534,note_on,1,0,7,,,,,,,,,6,,,75,0
318557,note_on,311,0,8,,,,,,,,,7,,,44,0
318557,note_on,311,0,5,,,,,,,,,4,,,44,0
318576,note_on,65,0,1,,,,,,,,,0,,,72,0
318577,note_on,43,0,7,,,,,,,,,6,,,64,127
318579,note_on,0,0,7,,,,,,,,,6,,,68,127
318579,note_on,2,0,7,,,,,,,,,6,,,73,127
318601,note_on,25,0,1,,,,,,,,,0,,,76,127
318601,note_on,44,0,8,,,,,,,,,7,,,61,127
318601,note_on,44,0,5,,,,,,,,,4,,,61,90
318666,note_on,65,0,1,,,,,,,,,0,,,76,0
318690,note_on,24,0,1,,,,,,,,,0,,,85,127
318754,note_on,64,0,1,,,,,,,,,0,,,85,0
318778,note_on,24,0,1,,,,,,,,,0,,,84,127
318841,note_on,63,0,1,,,,,,,,,0,,,84,0
318866,note_on,25,0,1,,,,,,,,,0,,,85,127
318912,note_on,311,0,5,,,,,,,,,4,,,61,0
318912,note_on,311,0,8,,,,,,,,,7,,,61,0
318931,note_on,65,0,1,,,,,,,,,0,,,85,0
318955,note_on,43,0,5,,,,,,,,,4,,,49,90
318955,note_on,43,0,8,,,,,,,,,7,,,49,127
318955,note_on,24,0,1,,,,,,,,,0,,,76,127
319021,note_on,66,0,1,,,,,,,,,0,,,76,0
319043,note_on,22,0,1,,,,,,,,,0,,,85,127
319107,note_on,64,0,1,,,,,,,,,0,,,85,0
319133,note_on,26,0,1,,,,,,,,,0,,,84,127
319198,note_on,65,0,1,,,,,,,,,0,,,84,0
319221,note_on,23,0,1,,,,,,,,,0,,,85,127
319243,note_on,664,0,7,,,,,,,,,6,,,64,0
319244,note_on,1,0,7,,,,,,,,,6,,,68,0
319248,note_on,4,0,7,,,,,,,,,6,,,73,0
319267,note_on,312,0,8,,,,,,,,,7,,,49,0
319267,note_on,312,0,5,,,,,,,,,4,,,49,0
319287,note_on,66,0,1,,,,,,,,,0,,,85,0
319287,note_on,39,0,7,,,,,,,,,6,,,73,127
319287,note_on,0,0,7,,,,,,,,,6,,,69,127
319287,note_on,0,0,7,,,,,,,,,6,,,63,127
319309,note_on,42,0,5,,,,,,,,,4,,,54,90
319309,note_on,22,0,1,,,,,,,,,0,,,75,127
319312,note_on,45,0,8,,,,,,,,,7,,,54,127
319375,note_on,66,0,1,,,,,,,,,0,,,75,0
319398,note_on,23,0,1,,,,,,,,,0,,,85,127
319464,note_on,66,0,1,,,,,,,,,0,,,85,0
319487,note_on,23,0,1,,,,,,,,,0,,,84,127
319550,note_on,63,0,1,,,,,,,,,0,,,84,0
319576,note_on,26,0,1,,,,,,,,,0,,,85,127
319620,note_on,308,0,8,,,,,,,,,7,,,54,0
319620,note_on,311,0,5,,,,,,,,,4,,,54,0
319641,note_on,65,0,1,,,,,,,,,0,,,85,0
319664,note_on,23,0,1,,,,,,,,,0,,,75,127
319665,note_on,45,0,8,,,,,,,,,7,,,42,127
319665,note_on,45,0,5,,,,,,,,,4,,,42,90
319729,note_on,65,0,1,,,,,,,,,0,,,75,0
319751,note_on,22,0,1,,,,,,,,,0,,,85,127
319817,note_on,66,0,1,,,,,,,,,0,,,85,0
319842,note_on,25,0,1,,,,,,,,,0,,,84,127
319906,note_on,64,0,1,,,,,,,,,0,,,84,0
319931,note_on,25,0,1,,,,,,,,,0,,,85,127
319951,note_on,664,0,7,,,,,,,,,6,,,63,0
319952,note_on,1,0,7,,,,,,,,,6,,,69,0
319956,note_on,4,0,7,,,,,,,,,6,,,73,0
319975,note_on,310,0,5,,,,,,,,,4,,,42,0
319975,note_on,310,0,8,,,,,,,,,7,,,42,0
319992,note_on,61,0,1,,,,,,,,,0,,,85,0
319997,note_on,41,0,7,,,,,,,,,6,,,72,127
319997,note_on,0,0,7,,,,,,,,,6,,,68,127
319997,note_on,0,0,7,,,,,,,,,6,,,63,127
320020,note_on,45,0,8,,,,,,,,,7,,,56,127
320020,note_on,28,0,1,,,,,,,,,0,,,75,127
320020,note_on,45,0,5,,,,,,,,,4,,,56,90
320083,note_on,63,0,1,,,,,,,,,0,,,75,0
320107,note_on,24,0,1,,,,,,,,,0,,,84,127
320170,note_on,63,0,1,,,,,,,,,0,,,84,0
320194,note_on,24,0,1,,,,,,,,,0,,,82,127
320262,note_on,68,0,1,,,,,,,,,0,,,82,0
320285,note_on,23,0,1,,,,,,,,,0,,,84,127
320329,note_on,309,0,5,,,,,,,,,4,,,56,0
320329,note_on,309,0,8,,,,,,,,,7,,,56,0
320348,note_on,63,0,1,,,,,,,,,0,,,84,0
320373,note_on,25,0,1,,,,,,,,,0,,,75,127
320374,note_on,45,0,5,,,,,,,,,4,,,44,90
320374,note_on,45,0,8,,,,,,,,,7,,,44,127
320437,note_on,64,0,1,,,,,,,,,0,,,75,0
320461,note_on,24,0,1,,,,,,,,,0,,,84,127
320525,note_on,64,0,1,,,,,,,,,0,,,84,0
320550,note_on,25,0,1,,,,,,,,,0,,,82,127
320616,note_on,66,0,1,,,,,,,,,0,,,82,0
320639,note_on,23,0,1,,,,,,,,,0,,,84,127
320662,note_on,0,0,7,,,,,,,,,6,,,68,0
320662,note_on,665,0,7,,,,,,,,,6,,,63,0
320664,note_on,2,0,7,,,,,,,,,6,,,72,0
320683,note_on,309,0,8,,,,,,,,,7,,,44,0
320683,note_on,309,0,5,,,,,,,,,4,,,44,0
320702,note_on,63,0,1,,,,,,,,,0,,,84,0
320705,note_on,0,0,7,,,,,,,,,6,,,64,127
320705,note_on,41,0,7,,,,,,,,,6,,,76,127
320705,note_on,0,0,7,,,,,,,,,6,,,68,127
320728,note_on,26,0,1,,,,,,,,,0,,,85,127
320729,note_on,11701,0,2,,,,,,,,,1,,,76,65
320729,note_on,11697,0,3,,,,,,,,,2,,,76,64
320729,note_on,11697,0,4,,,,,,,,,3,,,68,65
320730,note_on,11697,0,6,,,,,,,,,5,,,49,90
320732,note_on,49,0,8,,,,,,,,,7,,,49,127
320732,program_change,0,0,5,,,,,,,,49,4,,,,
320732,note_on,49,0,5,,,,,,,,,4,,,49,90
320838,note_on,133,0,7,,,,,,,,,6,,,64,0
320865,note_on,136,0,3,,,,,,,,,2,,,76,0
320865,note_on,136,0,4,,,,,,,,,3,,,68,0
320865,note_on,135,0,6,,,,,,,,,5,,,49,0
320865,note_on,136,0,2,,,,,,,,,1,,,76,0
320865,note_on,133,0,5,,,,,,,,,4,,,49,0
320865,note_on,133,0,8,,,,,,,,,7,,,49,0
320882,note_on,44,0,7,,,,,,,,,6,,,63,127
320907,note_on,42,0,3,,,,,,,,,2,,,75,64
320907,note_on,42,0,2,,,,,,,,,1,,,75,65
320907,note_on,42,0,4,,,,,,,,,3,,,66,65
320910,note_on,45,0,6,,,,,,,,,5,,,51,90
320910,note_on,45,0,5,,,,,,,,,4,,,51,90
320910,note_on,45,0,8,,,,,,,,,7,,,51,127
320993,note_on,86,0,2,,,,,,,,,1,,,73,65
320993,note_on,86,0,3,,,,,,,,,2,,,73,64
321015,note_on,133,0,7,,,,,,,,,6,,,63,0
321017,note_on,2,0,7,,,,,,,,,6,,,68,0
321018,note_on,1,0,7,,,,,,,,,6,,,76,0
321024,note_on,31,0,2,,,,,,,,,1,,,75,0
321024,note_on,31,0,3,,,,,,,,,2,,,75,0
321041,note_on,134,0,4,,,,,,,,,3,,,66,0
321041,note_on,131,0,8,,,,,,,,,7,,,51,0
321041,note_on,131,0,6,,,,,,,,,5,,,51,0
321041,note_on,131,0,5,,,,,,,,,4,,,51,0
321041,note_on,313,0,1,,,,,,,,,0,,,85,0
321061,note_on,0,0,7,,,,,,,,,6,,,61,127
321061,note_on,43,0,7,,,,,,,,,6,,,68,127
321082,note_on,41,0,1,,,,,,,,,0,,,80,127
321082,note_on,58,0,2,,,,,,,,,1,,,80,65
321083,note_on,59,0,3,,,,,,,,,2,,,80,64
321084,note_on,43,0,5,,,,,,,,,4,,,52,90
321084,note_on,43,0,6,,,,,,,,,5,,,52,90
321084,note_on,43,0,4,,,,,,,,,3,,,68,65
321085,note_on,44,0,8,,,,,,,,,7,,,52,127
321110,note_on,28,0,2,,,,,,,,,1,,,73,0
321111,note_on,28,0,3,,,,,,,,,2,,,73,0
321198,note_on,137,0,7,,,,,,,,,6,,,61,0
321216,note_on,132,0,4,,,,,,,,,3,,,68,0
321216,note_on,105,0,3,,,,,,,,,2,,,80,0
321216,note_on,106,0,2,,,,,,,,,1,,,80,0
321216,note_on,134,0,1,,,,,,,,,0,,,80,0
321217,note_on,133,0,6,,,,,,,,,5,,,52,0
321217,note_on,133,0,5,,,,,,,,,4,,,52,0
321217,note_on,132,0,8,,,,,,,,,7,,,52,0
321239,note_on,41,0,7,,,,,,,,,6,,,63,127
321260,note_on,44,0,1,,,,,,,,,0,,,80,127
321261,note_on,45,0,3,,,,,,,,,2,,,80,64
321261,note_on,45,0,2,,,,,,,,,1,,,80,65
321261,note_on,45,0,4,,,,,,,,,3,,,63,65
321262,note_on,45,0,5,,,,,,,,,4,,,48,90
321263,note_on,46,0,8,,,,,,,,,7,,,48,127
321263,note_on,46,0,6,,,,,,,,,5,,,48,90
321368,note_on,129,0,7,,,,,,,,,6,,,63,0
321372,note_on,4,0,7,,,,,,,,,6,,,68,0
321396,note_on,136,0,1,,,,,,,,,0,,,80,0
321396,note_on,135,0,3,,,,,,,,,2,,,80,0
321396,note_on,135,0,2,,,,,,,,,1,,,80,0
321396,note_on,135,0,4,,,,,,,,,3,,,63,0
321398,note_on,136,0,5,,,,,,,,,4,,,48,0
321398,note_on,135,0,6,,,,,,,,,5,,,48,0
321398,note_on,135,0,8,,,,,,,,,7,,,48,0
321414,note_on,42,0,7,,,,,,,,,6,,,76,127
321414,note_on,0,0,7,,,,,,,,,6,,,68,127
321437,note_on,41,0,1,,,,,,,,,0,,,76,127
321438,note_on,42,0,4,,,,,,,,,3,,,68,65
321438,note_on,40,0,5,,,,,,,,,4,,,49,90
321438,note_on,42,0,2,,,,,,,,,1,,,76,65
321438,note_on,42,0,3,,,,,,,,,2,,,76,64
321440,note_on,0,0,8,,,,,,,,,7,,,49,127
321440,note_on,42,0,8,,,,,,,,,7,,,52,127
321440,note_on,42,0,6,,,,,,,,,5,,,49,90
321569,note_on,132,0,1,,,,,,,,,0,,,76,0
321570,note_on,132,0,2,,,,,,,,,1,,,76,0
321570,note_on,132,0,3,,,,,,,,,2,,,76,0
321571,note_on,133,0,4,,,,,,,,,3,,,68,0
321572,note_on,132,0,6,,,,,,,,,5,,,49,0
321572,note_on,0,0,8,,,,,,,,,7,,,52,0
321572,note_on,132,0,8,,,,,,,,,7,,,49,0
321572,note_on,134,0,5,,,,,,,,,4,,,49,0
321615,note_on,46,0,1,,,,,,,,,0,,,75,127
321616,note_on,46,0,2,,,,,,,,,1,,,75,65
321616,note_on,45,0,4,,,,,,,,,3,,,66,65
321616,note_on,46,0,3,,,,,,,,,2,,,75,64
321620,note_on,48,0,8,,,,,,,,,7,,,51,127
321620,note_on,48,0,6,,,,,,,,,5,,,51,90
321620,note_on,48,0,5,,,,,,,,,4,,,51,90
321620,note_on,0,0,8,,,,,,,,,7,,,51,127
321621,note_on,1,0,8,,,,,,,,,7,,,51,0
321702,note_on,87,0,1,,,,,,,,,0,,,75,0
321705,note_on,89,0,3,,,,,,,,,2,,,73,64
321705,note_on,89,0,2,,,,,,,,,1,,,73,65
321705,note_on,3,0,1,,,,,,,,,0,,,73,127
321723,note_on,309,0,7,,,,,,,,,6,,,68,0
321727,note_on,4,0,7,,,,,,,,,6,,,76,0
321732,note_on,27,0,2,,,,,,,,,1,,,75,0
321732,note_on,27,0,3,,,,,,,,,2,,,75,0
321748,note_on,128,0,5,,,,,,,,,4,,,51,0
321748,note_on,132,0,4,,,,,,,,,3,,,66,0
321750,note_on,130,0,6,,,,,,,,,5,,,51,0
321750,note_on,129,0,8,,,,,,,,,7,,,51,0
321768,note_on,41,0,7,,,,,,,,,6,,,68,127
321790,note_on,85,0,1,,,,,,,,,0,,,73,0
321797,note_on,7,0,1,,,,,,,,,0,,,80,127
321797,note_on,65,0,3,,,,,,,,,2,,,80,64
321797,note_on,65,0,2,,,,,,,,,1,,,80,65
321797,note_on,47,0,6,,,,,,,,,5,,,52,90
321797,note_on,0,0,8,,,,,,,,,7,,,49,127
321797,note_on,49,0,4,,,,,,,,,3,,,68,65
321797,note_on,49,0,5,,,,,,,,,4,,,52,90
321797,note_on,47,0,8,,,,,,,,,7,,,52,127
321821,note_on,24,0,3,,,,,,,,,2,,,73,0
321821,note_on,24,0,2,,,,,,,,,1,,,73,0
321925,note_on,128,0,1,,,,,,,,,0,,,80,0
321927,note_on,106,0,3,,,,,,,,,2,,,80,0
321927,note_on,130,0,4,,,,,,,,,3,,,68,0
321927,note_on,130,0,6,,,,,,,,,5,,,52,0
321927,note_on,130,0,5,,,,,,,,,4,,,52,0
321927,note_on,106,0,2,,,,,,,,,1,,,80,0
321930,note_on,0,0,8,,,,,,,,,7,,,52,0
321930,note_on,133,0,8,,,,,,,,,7,,,49,0
321970,note_on,43,0,3,,,,,,,,,2,,,80,64
321970,note_on,45,0,1,,,,,,,,,0,,,80,127
321970,note_on,43,0,2,,,,,,,,,1,,,80,65
321974,note_on,47,0,6,,,,,,,,,5,,,48,90
321974,note_on,0,0,8,,,,,,,,,7,,,48,127
321974,note_on,47,0,4,,,,,,,,,3,,,63,65
321974,note_on,44,0,8,,,,,,,,,7,,,51,127
321974,note_on,47,0,5,,,,,,,,,4,,,48,90
322076,note_on,308,0,7,,,,,,,,,6,,,68,0
322103,note_on,133,0,2,,,,,,,,,1,,,80,0
322103,note_on,133,0,1,,,,,,,,,0,,,80,0
322103,note_on,129,0,4,,,,,,,,,3,,,63,0
322103,note_on,129,0,5,,,,,,,,,4,,,48,0
322103,note_on,133,0,3,,,,,,,,,2,,,80,0
322104,note_on,130,0,8,,,,,,,,,7,,,48,0
322104,note_on,0,0,8,,,,,,,,,7,,,51,0
322104,note_on,130,0,6,,,,,,,,,5,,,48,0
322124,note_on,0,0,7,,,,,,,,,6,,,62,127
322124,note_on,48,0,7,,,,,,,,,6,,,73,127
322124,note_on,0,0,7,,,,,,,,,6,,,68,127
322146,note_on,43,0,1,,,,,,,,,0,,,76,127
322147,note_on,44,0,2,,,,,,,,,1,,,76,65
322147,note_on,44,0,3,,,,,,,,,2,,,76,63
322148,note_on,44,0,6,,,,,,,,,5,,,49,90
322148,note_on,45,0,5,,,,,,,,,4,,,49,90
322148,note_on,45,0,4,,,,,,,,,3,,,56,65
322149,note_on,45,0,8,,,,,,,,,7,,,49,127
322279,note_on,133,0,1,,,,,,,,,0,,,76,0
322280,note_on,132,0,4,,,,,,,,,3,,,56,0
322280,note_on,132,0,5,,,,,,,,,4,,,49,0
322280,note_on,133,0,3,,,,,,,,,2,,,76,0
322280,note_on,133,0,2,,,,,,,,,1,,,76,0
322281,note_on,133,0,6,,,,,,,,,5,,,49,0
322281,note_on,132,0,8,,,,,,,,,7,,,49,0
322324,note_on,45,0,1,,,,,,,,,0,,,75,127
322324,note_on,44,0,2,,,,,,,,,1,,,75,65
322327,note_on,47,0,3,,,,,,,,,2,,,80,63
322327,note_on,46,0,6,,,,,,,,,5,,,61,90
322327,note_on,47,0,5,,,,,,,,,4,,,61,90
322327,note_on,47,0,4,,,,,,,,,3,,,64,65
322329,note_on,48,0,8,,,,,,,,,7,,,61,127
322409,note_on,85,0,1,,,,,,,,,0,,,75,0
322414,note_on,5,0,1,,,,,,,,,0,,,73,127
322414,note_on,90,0,2,,,,,,,,,1,,,73,65
322432,note_on,308,0,7,,,,,,,,,6,,,62,0
322435,note_on,3,0,7,,,,,,,,,6,,,68,0
322438,note_on,3,0,7,,,,,,,,,6,,,73,0
322441,note_on,27,0,2,,,,,,,,,1,,,75,0
322458,note_on,131,0,5,,,,,,,,,4,,,61,0
322458,note_on,131,0,3,,,,,,,,,2,,,80,0
322458,note_on,129,0,8,,,,,,,,,7,,,61,0
322458,note_on,131,0,4,,,,,,,,,3,,,64,0
322458,note_on,131,0,6,,,,,,,,,5,,,61,0
322477,note_on,0,0,7,,,,,,,,,6,,,61,127
322477,note_on,0,0,7,,,,,,,,,6,,,66,127
322477,note_on,39,0,7,,,,,,,,,6,,,69,127
322497,note_on,83,0,1,,,,,,,,,0,,,73,0
322502,note_on,5,0,1,,,,,,,,,0,,,81,127
322502,note_on,44,0,3,,,,,,,,,2,,,78,63
322502,note_on,61,0,2,,,,,,,,,1,,,81,65
322506,note_on,48,0,5,,,,,,,,,4,,,54,90
322506,note_on,48,0,6,,,,,,,,,5,,,54,90
322506,note_on,48,0,8,,,,,,,,,7,,,54,127
322506,note_on,48,0,4,,,,,,,,,3,,,66,65
322530,note_on,28,0,2,,,,,,,,,1,,,73,0
322634,note_on,128,0,5,,,,,,,,,4,,,54,0
322634,note_on,128,0,6,,,,,,,,,5,,,54,0
322634,note_on,128,0,8,,,,,,,,,7,,,54,0
322679,note_on,177,0,1,,,,,,,,,0,,,81,0
322679,note_on,149,0,2,,,,,,,,,1,,,81,0
322680,note_on,46,0,5,,,,,,,,,4,,,42,90
322680,note_on,46,0,6,,,,,,,,,5,,,42,90
322680,note_on,174,0,4,,,,,,,,,3,,,66,0
322682,note_on,48,0,8,,,,,,,,,7,,,42,127
322788,note_on,311,0,7,,,,,,,,,6,,,61,0
322790,note_on,2,0,7,,,,,,,,,6,,,66,0
322792,note_on,2,0,7,,,,,,,,,6,,,69,0
322812,note_on,130,0,8,,,,,,,,,7,,,42,0
322812,note_on,132,0,6,,,,,,,,,5,,,42,0
322812,note_on,132,0,5,,,,,,,,,4,,,42,0
322831,note_on,0,0,7,,,,,,,,,6,,,66,127
322831,note_on,39,0,7,,,,,,,,,6,,,68,127
322831,note_on,0,0,7,,,,,,,,,6,,,63,127
322855,note_on,176,0,1,,,,,,,,,0,,,80,127
322857,note_on,178,0,2,,,,,,,,,1,,,80,65
322858,note_on,356,0,3,,,,,,,,,2,,,78,0
322859,note_on,179,0,4,,,,,,,,,3,,,68,64
322859,note_on,47,0,8,,,,,,,,,7,,,48,127
322859,note_on,47,0,5,,,,,,,,,4,,,48,90
322859,note_on,47,0,6,,,,,,,,,5,,,48,90
322859,note_on,1,0,3,,,,,,,,,2,,,80,63
322987,note_on,128,0,5,,,,,,,,,4,,,48,0
322988,note_on,129,0,6,,,,,,,,,5,,,48,0
322989,note_on,130,0,8,,,,,,,,,7,,,48,0
323033,note_on,178,0,1,,,,,,,,,0,,,80,0
323033,note_on,176,0,2,,,,,,,,,1,,,80,0
323033,note_on,174,0,3,,,,,,,,,2,,,80,0
323034,note_on,47,0,5,,,,,,,,,4,,,56,90
323034,note_on,175,0,4,,,,,,,,,3,,,68,0
323035,note_on,46,0,8,,,,,,,,,7,,,56,127
323035,note_on,47,0,6,,,,,,,,,5,,,56,90
323144,note_on,0,0,7,,,,,,,,,6,,,66,0
323144,note_on,313,0,7,,,,,,,,,6,,,63,0
323147,note_on,3,0,7,,,,,,,,,6,,,68,0
323165,note_on,130,0,6,,,,,,,,,5,,,56,0
323165,note_on,131,0,5,,,,,,,,,4,,,56,0
323167,note_on,132,0,8,,,,,,,,,7,,,56,0
323187,note_on,40,0,7,,,,,,,,,6,,,63,127
323188,note_on,0,0,7,,,,,,,,,6,,,66,127
323188,note_on,1,0,7,,,,,,,,,6,,,68,127
323210,note_on,177,0,1,,,,,,,,,0,,,78,127
323210,note_on,177,0,2,,,,,,,,,1,,,78,65
323212,note_on,179,0,3,,,,,,,,,2,,,78,63
323213,note_on,179,0,4,,,,,,,,,3,,,68,64
323213,note_on,48,0,5,,,,,,,,,4,,,48,90
323213,note_on,46,0,8,,,,,,,,,7,,,48,127
323213,note_on,48,0,6,,,,,,,,,5,,,48,90
323343,note_on,130,0,5,,,,,,,,,4,,,48,0
323345,note_on,132,0,8,,,,,,,,,7,,,48,0
323345,note_on,132,0,6,,,,,,,,,5,,,48,0
323388,note_on,178,0,1,,,,,,,,,0,,,78,0
323388,note_on,176,0,3,,,,,,,,,2,,,78,0
323388,note_on,178,0,2,,,,,,,,,1,,,78,0
323391,note_on,178,0,4,,,,,,,,,3,,,68,0
323391,note_on,46,0,6,,,,,,,,,5,,,56,90
323391,note_on,48,0,5,,,,,,,,,4,,,56,90
323391,note_on,46,0,8,,,,,,,,,7,,,56,127
323496,note_on,308,0,7,,,,,,,,,6,,,63,0
323499,note_on,3,0,7,,,,,,,,,6,,,66,0
323500,note_on,1,0,7,,,,,,,,,6,,,68,0
323519,note_on,128,0,5,,,,,,,,,4,,,56,0
323519,note_on,128,0,8,,,,,,,,,7,,,56,0
323519,note_on,128,0,6,,,,,,,,,5,,,56,0
323542,note_on,0,0,7,,,,,,,,,6,,,64,127
323542,note_on,0,0,7,,,,,,,,,6,,,68,127
323542,note_on,42,0,7,,,,,,,,,6,,,73,127
323566,note_on,178,0,2,,,,,,,,,1,,,76,65
323566,note_on,178,0,1,,,,,,,,,0,,,76,127
323566,note_on,178,0,3,,,,,,,,,2,,,73,63
323566,note_on,175,0,4,,,,,,,,,3,,,68,64
323569,note_on,50,0,8,,,,,,,,,7,,,49,127
323569,note_on,50,0,5,,,,,,,,,4,,,49,90
323569,note_on,50,0,6,,,,,,,,,5,,,49,90
323698,note_on,132,0,2,,,,,,,,,1,,,76,0
323698,note_on,132,0,1,,,,,,,,,0,,,76,0
323698,note_on,132,0,3,,,,,,,,,2,,,73,0
323702,note_on,136,0,4,,,,,,,,,3,,,68,0
323702,note_on,133,0,5,,,,,,,,,4,,,49,0
323702,note_on,133,0,8,,,,,,,,,7,,,49,0
323702,note_on,133,0,6,,,,,,,,,5,,,49,0
323744,note_on,46,0,1,,,,,,,,,0,,,75,127
323744,note_on,42,0,4,,,,,,,,,3,,,64,64
323744,note_on,46,0,2,,,,,,,,,1,,,75,65
323744,note_on,46,0,3,,,,,,,,,2,,,80,63
323745,note_on,43,0,8,,,,,,,,,7,,,61,127
323745,note_on,43,0,5,,,,,,,,,4,,,61,90
323745,note_on,43,0,6,,,,,,,,,5,,,61,90
323827,note_on,83,0,1,,,,,,,,,0,,,75,0
323830,note_on,86,0,2,,,,,,,,,1,,,73,65
323830,note_on,3,0,1,,,,,,,,,0,,,73,127
323851,note_on,309,0,7,,,,,,,,,6,,,64,0
323852,note_on,1,0,7,,,,,,,,,6,,,68,0
323854,note_on,2,0,7,,,,,,,,,6,,,73,0
323857,note_on,27,0,2,,,,,,,,,1,,,75,0
323877,note_on,133,0,3,,,,,,,,,2,,,80,0
323877,note_on,132,0,5,,,,,,,,,4,,,61,0
323877,note_on,133,0,4,,,,,,,,,3,,,64,0
323877,note_on,132,0,6,,,,,,,,,5,,,61,0
323877,note_on,132,0,8,,,,,,,,,7,,,61,0
323897,note_on,0,0,7,,,,,,,,,6,,,61,127
323897,note_on,43,0,7,,,,,,,,,6,,,69,127
323897,note_on,0,0,7,,,,,,,,,6,,,66,127
323916,note_on,86,0,1,,,,,,,,,0,,,73,0
323918,note_on,2,0,1,,,,,,,,,0,,,81,127
323920,note_on,43,0,4,,,,,,,,,3,,,66,64
323920,note_on,43,0,5,,,,,,,,,4,,,54,90
323920,note_on,43,0,3,,,,,,,,,2,,,78,62
323920,note_on,63,0,2,,,,,,,,,1,,,81,65
323921,note_on,44,0,6,,,,,,,,,5,,,54,90
323921,note_on,44,0,8,,,,,,,,,7,,,54,127
323947,note_on,27,0,2,,,,,,,,,1,,,73,0
324053,note_on,132,0,8,,,,,,,,,7,,,54,0
324053,note_on,132,0,6,,,,,,,,,5,,,54,0
324053,note_on,133,0,5,,,,,,,,,4,,,54,0
324100,note_on,180,0,3,,,,,,,,,2,,,78,0
324100,note_on,182,0,1,,,,,,,,,0,,,81,0
324100,note_on,153,0,2,,,,,,,,,1,,,81,0
324100,note_on,180,0,4,,,,,,,,,3,,,66,0
324100,note_on,47,0,6,,,,,,,,,5,,,42,90
324100,note_on,47,0,8,,,,,,,,,7,,,42,127
324100,note_on,47,0,5,,,,,,,,,4,,,42,90
324207,note_on,310,0,7,,,,,,,,,6,,,61,0
324208,note_on,1,0,7,,,,,,,,,6,,,66,0
324211,note_on,3,0,7,,,,,,,,,6,,,69,0
324229,note_on,129,0,5,,,,,,,,,4,,,42,0
324230,note_on,130,0,8,,,,,,,,,7,,,42,0
324230,note_on,130,0,6,,,,,,,,,5,,,42,0
324252,note_on,0,0,7,,,,,,,,,6,,,66,127
324252,note_on,0,0,7,,,,,,,,,6,,,63,127
324252,note_on,41,0,7,,,,,,,,,6,,,68,127
324274,note_on,174,0,2,,,,,,,,,1,,,80,65
324274,note_on,174,0,1,,,,,,,,,0,,,80,127
324274,note_on,174,0,3,,,,,,,,,2,,,75,62
324278,note_on,49,0,5,,,,,,,,,4,,,48,90
324278,note_on,48,0,6,,,,,,,,,5,,,48,90
324278,note_on,48,0,8,,,,,,,,,7,,,48,127
324278,note_on,178,0,4,,,,,,,,,3,,,68,64
324407,note_on,129,0,6,,,,,,,,,5,,,48,0
324407,note_on,129,0,5,,,,,,,,,4,,,48,0
324407,note_on,129,0,8,,,,,,,,,7,,,48,0
324453,note_on,179,0,3,,,,,,,,,2,,,75,0
324453,note_on,46,0,5,,,,,,,,,4,,,56,90
324453,note_on,179,0,1,,,,,,,,,0,,,80,0
324453,note_on,179,0,2,,,,,,,,,1,,,80,0
324453,note_on,175,0,4,,,,,,,,,3,,,68,0
324456,note_on,49,0,8,,,,,,,,,7,,,56,127
324456,note_on,49,0,6,,,,,,,,,5,,,56,90
324562,note_on,0,0,7,,,,,,,,,6,,,66,0
324562,note_on,310,0,7,,,,,,,,,6,,,63,0
324565,note_on,3,0,7,,,,,,,,,6,,,68,0
324581,note_on,128,0,5,,,,,,,,,4,,,56,0
324582,note_on,126,0,6,,,,,,,,,5,,,56,0
324583,note_on,127,0,8,,,,,,,,,7,,,56,0
324606,note_on,41,0,7,,,,,,,,,6,,,68,127
324606,note_on,0,0,7,,,,,,,,,6,,,63,127
324606,note_on,0,0,7,,,,,,,,,6,,,66,127
324628,note_on,175,0,1,,,,,,,,,0,,,78,127
324628,note_on,175,0,2,,,,,,,,,1,,,78,65
324631,note_on,178,0,4,,,,,,,,,3,,,68,64
324631,note_on,178,0,3,,,,,,,,,2,,,75,62
324632,note_on,51,0,5,,,,,,,,,4,,,48,90
324632,note_on,49,0,8,,,,,,,,,7,,,48,127
324632,note_on,50,0,6,,,,,,,,,5,,,48,90
324761,note_on,129,0,6,,,,,,,,,5,,,48,0
324761,note_on,129,0,8,,,,,,,,,7,,,48,0
324761,note_on,129,0,5,,,,,,,,,4,,,48,0
324806,note_on,178,0,1,,,,,,,,,0,,,78,0
324806,note_on,178,0,2,,,,,,,,,1,,,78,0
324806,note_on,175,0,3,,,,,,,,,2,,,75,0
324807,note_on,176,0,4,,,,,,,,,3,,,68,0
324807,note_on,46,0,5,,,,,,,,,4,,,56,90
324808,note_on,47,0,8,,,,,,,,,7,,,56,127
324808,note_on,47,0,6,,,,,,,,,5,,,56,90
324915,note_on,309,0,7,,,,,,,,,6,,,63,0
324918,note_on,3,0,7,,,,,,,,,6,,,66,0
324918,note_on,0,0,7,,,,,,,,,6,,,68,0
324938,note_on,131,0,5,,,,,,,,,4,,,56,0
324939,note_on,131,0,6,,,,,,,,,5,,,56,0
324939,note_on,131,0,8,,,,,,,,,7,,,56,0
324961,note_on,0,0,7,,,,,,,,,6,,,68,127
324961,note_on,43,0,7,,,,,,,,,6,,,73,127
324961,note_on,0,0,7,,,,,,,,,6,,,64,127
324982,note_on,176,0,1,,,,,,,,,0,,,76,127
324982,note_on,176,0,2,,,,,,,,,1,,,76,65
324983,note_on,177,0,3,,,,,,,,,2,,,73,62
324984,note_on,45,0,8,,,,,,,,,7,,,49,127
324984,note_on,45,0,6,,,,,,,,,5,,,49,90
324984,note_on,177,0,4,,,,,,,,,3,,,68,63
324984,note_on,46,0,5,,,,,,,,,4,,,49,90
325116,note_on,134,0,2,,,,,,,,,1,,,76,0
325116,note_on,134,0,1,,,,,,,,,0,,,76,0
325116,note_on,133,0,3,,,,,,,,,2,,,73,0
325120,note_on,136,0,6,,,,,,,,,5,,,49,0
325120,note_on,136,0,5,,,,,,,,,4,,,49,0
325120,note_on,136,0,4,,,,,,,,,3,,,68,0
325120,note_on,136,0,8,,,,,,,,,7,,,49,0
325158,note_on,42,0,1,,,,,,,,,0,,,85,127
325159,note_on,43,0,2,,,,,,,,,1,,,85,65
325160,note_on,40,0,4,,,,,,,,,3,,,68,63
325160,note_on,40,0,5,,,,,,,,,4,,,61,90
325160,note_on,44,0,3,,,,,,,,,2,,,76,62
325161,note_on,41,0,8,,,,,,,,,7,,,61,127
325161,note_on,41,0,6,,,,,,,,,5,,,61,90
325267,note_on,306,0,7,,,,,,,,,6,,,64,0
325271,note_on,4,0,7,,,,,,,,,6,,,68,0
325272,note_on,1,0,7,,,,,,,,,6,,,73,0
325291,note_on,133,0,1,,,,,,,,,0,,,85,0
325291,note_on,132,0,2,,,,,,,,,1,,,85,0
325291,note_on,131,0,3,,,,,,,,,2,,,76,0
325292,note_on,132,0,5,,,,,,,,,4,,,61,0
325292,note_on,132,0,4,,,,,,,,,3,,,68,0
325293,note_on,132,0,6,,,,,,,,,5,,,61,0
325293,note_on,132,0,8,,,,,,,,,7,,,61,0
325314,note_on,0,0,7,,,,,,,,,6,,,69,127
325314,note_on,42,0,7,,,,,,,,,6,,,75,127
325337,note_on,46,0,2,,,,,,,,,1,,,87,65
325337,note_on,46,0,1,,,,,,,,,0,,,87,127
325341,note_on,48,0,6,,,,,,,,,5,,,52,90
325341,note_on,49,0,5,,,,,,,,,4,,,52,90
325341,note_on,50,0,3,,,,,,,,,2,,,78,62
325341,note_on,49,0,4,,,,,,,,,3,,,69,63
325342,note_on,49,0,8,,,,,,,,,7,,,52,127
325446,note_on,132,0,7,,,,,,,,,6,,,69,0
325447,note_on,1,0,7,,,,,,,,,6,,,75,0
325471,note_on,134,0,2,,,,,,,,,1,,,87,0
325471,note_on,134,0,1,,,,,,,,,0,,,87,0
325471,note_on,130,0,3,,,,,,,,,2,,,78,0
325475,note_on,133,0,8,,,,,,,,,7,,,52,0
325475,note_on,134,0,6,,,,,,,,,5,,,52,0
325475,note_on,134,0,4,,,,,,,,,3,,,69,0
325475,note_on,134,0,5,,,,,,,,,4,,,52,0
325492,note_on,0,0,7,,,,,,,,,6,,,68,127
325492,note_on,45,0,7,,,,,,,,,6,,,72,127
325492,note_on,0,0,7,,,,,,,,,6,,,63,127
325512,note_on,41,0,1,,,,,,,,,0,,,84,127
325513,note_on,42,0,2,,,,,,,,,1,,,84,65
325513,note_on,42,0,3,,,,,,,,,2,,,75,62
325514,note_on,39,0,4,,,,,,,,,3,,,68,63
325514,note_on,39,0,5,,,,,,,,,4,,,56,90
325515,note_on,40,0,8,,,,,,,,,7,,,56,127
325515,note_on,40,0,6,,,,,,,,,5,,,56,90
325623,note_on,131,0,7,,,,,,,,,6,,,63,0
325627,note_on,4,0,7,,,,,,,,,6,,,68,0
325628,note_on,1,0,7,,,,,,,,,6,,,72,0
325648,note_on,134,0,4,,,,,,,,,3,,,68,0
325648,note_on,136,0,1,,,,,,,,,0,,,84,0
325648,note_on,135,0,2,,,,,,,,,1,,,84,0
325648,note_on,135,0,3,,,,,,,,,2,,,75,0
325649,note_on,134,0,6,,,,,,,,,5,,,56,0
325649,note_on,134,0,8,,,,,,,,,7,,,56,0
325649,note_on,135,0,5,,,,,,,,,4,,,56,0
325670,note_on,0,0,7,,,,,,,,,6,,,64,127
325670,note_on,0,0,7,,,,,,,,,6,,,68,127
325670,note_on,42,0,7,,,,,,,,,6,,,73,127
325692,note_on,44,0,1,,,,,,,,,0,,,85,127
325693,note_on,45,0,2,,,,,,,,,1,,,85,65
325693,note_on,44,0,5,,,,,,,,,4,,,49,90
325693,note_on,45,0,3,,,,,,,,,2,,,76,61
325693,note_on,45,0,4,,,,,,,,,3,,,68,63
325694,note_on,45,0,6,,,,,,,,,5,,,49,90
325695,note_on,46,0,8,,,,,,,,,7,,,49,127
326024,note_on,354,0,7,,,,,,,,,6,,,64,0
326025,note_on,1,0,7,,,,,,,,,6,,,68,0
326028,note_on,3,0,7,,,,,,,,,6,,,73,0
326046,note_on,354,0,1,,,,,,,,,0,,,85,0
326046,note_on,353,0,2,,,,,,,,,1,,,85,0
326049,note_on,356,0,4,,,,,,,,,3,,,68,0
326049,program_change,0,0,5,,,,,,,,42,4,,,,
326049,note_on,356,0,5,,,,,,,,,4,,,49,0
326049,note_on,356,0,3,,,,,,,,,2,,,76,0
326049,note_on,355,0,6,,,,,,,,,5,,,49,0
326049,note_on,354,0,8,,,,,,,,,7,,,49,0
326224,note_on,175,0,5,,,,,,,,,4,,,49,90
326224,note_on,178,0,1,,,,,,,,,0,,,78,127
326226,note_on,177,0,8,,,,,,,,,7,,,49,127
326356,note_on,132,0,1,,,,,,,,,0,,,78,0
326359,note_on,133,0,8,,,,,,,,,7,,,49,0
326359,note_on,135,0,5,,,,,,,,,4,,,49,0
326376,note_on,348,0,7,,,,,,,,,6,,,76,127
326376,note_on,0,0,7,,,,,,,,,6,,,73,127
326376,note_on,0,0,7,,,,,,,,,6,,,68,127
326403,note_on,44,0,8,,,,,,,,,7,,,49,127
326403,note_on,47,0,1,,,,,,,,,0,,,76,127
326403,note_on,44,0,5,,,,,,,,,4,,,49,90
326466,note_on,63,0,1,,,,,,,,,0,,,76,0
326488,note_on,22,0,1,,,,,,,,,0,,,80,127
326534,note_on,131,0,8,,,,,,,,,7,,,49,0
326534,note_on,131,0,5,,,,,,,,,4,,,49,0
326554,note_on,66,0,1,,,,,,,,,0,,,80,0
326579,note_on,45,0,8,,,,,,,,,7,,,49,127
326579,note_on,25,0,1,,,,,,,,,0,,,76,127
326579,note_on,45,0,5,,,,,,,,,4,,,49,90
326641,note_on,62,0,1,,,,,,,,,0,,,76,0
326666,note_on,25,0,1,,,,,,,,,0,,,73,127
326711,note_on,132,0,5,,,,,,,,,4,,,49,0
326711,note_on,132,0,8,,,,,,,,,7,,,49,0
326729,note_on,63,0,1,,,,,,,,,0,,,73,0
326755,note_on,44,0,5,,,,,,,,,4,,,49,90
326755,note_on,44,0,8,,,,,,,,,7,,,49,127
326755,note_on,26,0,1,,,,,,,,,0,,,76,127
326820,note_on,65,0,1,,,,,,,,,0,,,76,0
326843,note_on,23,0,1,,,,,,,,,0,,,80,127
326887,note_on,132,0,5,,,,,,,,,4,,,49,0
326889,note_on,134,0,8,,,,,,,,,7,,,49,0
326909,note_on,66,0,1,,,,,,,,,0,,,80,0
326933,note_on,24,0,1,,,,,,,,,0,,,76,127
326933,note_on,46,0,5,,,,,,,,,4,,,49,90
326935,note_on,46,0,8,,,,,,,,,7,,,49,127
326996,note_on,63,0,1,,,,,,,,,0,,,76,0
327021,note_on,25,0,1,,,,,,,,,0,,,73,127
327041,note_on,665,0,7,,,,,,,,,6,,,68,0
327043,note_on,2,0,7,,,,,,,,,6,,,73,0
327044,note_on,1,0,7,,,,,,,,,6,,,76,0
327066,note_on,131,0,8,,,,,,,,,7,,,49,0
327066,note_on,133,0,5,,,,,,,,,4,,,49,0
327085,note_on,64,0,1,,,,,,,,,0,,,73,0
327086,note_on,0,0,7,,,,,,,,,6,,,68,127
327086,note_on,0,0,7,,,,,,,,,6,,,72,127
327086,note_on,42,0,7,,,,,,,,,6,,,75,127
327109,note_on,24,0,1,,,,,,,,,0,,,75,127
327109,note_on,43,0,5,,,,,,,,,4,,,56,90
327109,note_on,43,0,8,,,,,,,,,7,,,56,127
327174,note_on,65,0,1,,,,,,,,,0,,,75,0
327197,note_on,23,0,1,,,,,,,,,0,,,80,127
327244,note_on,135,0,5,,,,,,,,,4,,,56,0
327244,note_on,135,0,8,,,,,,,,,7,,,56,0
327260,note_on,63,0,1,,,,,,,,,0,,,80,0
327287,note_on,27,0,1,,,,,,,,,0,,,75,127
327290,note_on,46,0,8,,,,,,,,,7,,,56,127
327290,note_on,46,0,5,,,,,,,,,4,,,56,90
327350,note_on,63,0,1,,,,,,,,,0,,,75,0
327376,note_on,26,0,1,,,,,,,,,0,,,72,127
327419,note_on,129,0,8,,,,,,,,,7,,,56,0
327419,note_on,129,0,5,,,,,,,,,4,,,56,0
327437,note_on,61,0,1,,,,,,,,,0,,,72,0
327464,note_on,45,0,5,,,,,,,,,4,,,56,90
327464,note_on,27,0,1,,,,,,,,,0,,,75,127
327465,note_on,46,0,8,,,,,,,,,7,,,56,127
327529,note_on,65,0,1,,,,,,,,,0,,,75,0
327553,note_on,24,0,1,,,,,,,,,0,,,80,127
327597,note_on,133,0,5,,,,,,,,,4,,,56,0
327597,note_on,132,0,8,,,,,,,,,7,,,56,0
327616,note_on,63,0,1,,,,,,,,,0,,,80,0
327641,note_on,25,0,1,,,,,,,,,0,,,75,127
327642,note_on,45,0,5,,,,,,,,,4,,,56,90
327642,note_on,45,0,8,,,,,,,,,7,,,56,127
327706,note_on,65,0,1,,,,,,,,,0,,,75,0
327730,note_on,24,0,1,,,,,,,,,0,,,72,127
327750,note_on,664,0,7,,,,,,,,,6,,,68,0
327752,note_on,2,0,7,,,,,,,,,6,,,72,0
327755,note_on,3,0,7,,,,,,,,,6,,,75,0
327775,note_on,133,0,8,,,,,,,,,7,,,56,0
327775,note_on,133,0,5,,,,,,,,,4,,,56,0
327794,note_on,64,0,1,,,,,,,,,0,,,72,0
327797,note_on,0,0,7,,,,,,,,,6,,,64,127
327797,note_on,0,0,7,,,,,,,,,6,,,68,127
327797,note_on,42,0,7,,,,,,,,,6,,,73,127
327818,note_on,24,0,1,,,,,,,,,0,,,76,127
327820,note_on,45,0,8,,,,,,,,,7,,,49,127
327820,note_on,45,0,5,,,,,,,,,4,,,49,90
327883,note_on,65,0,1,,,,,,,,,0,,,76,0
327907,note_on,24,0,1,,,,,,,,,0,,,80,127
327952,note_on,132,0,5,,,,,,,,,4,,,49,0
327952,note_on,132,0,8,,,,,,,,,7,,,49,0
327972,note_on,65,0,1,,,,,,,,,0,,,80,0
327995,note_on,23,0,1,,,,,,,,,0,,,76,127
327997,note_on,45,0,5,,,,,,,,,4,,,49,90
327997,note_on,45,0,8,,,,,,,,,7,,,49,127
328059,note_on,64,0,1,,,,,,,,,0,,,76,0
328084,note_on,25,0,1,,,,,,,,,0,,,73,127
328129,note_on,132,0,5,,,,,,,,,4,,,49,0
328131,note_on,134,0,8,,,,,,,,,7,,,49,0
328147,note_on,63,0,1,,,,,,,,,0,,,73,0
328174,note_on,43,0,8,,,,,,,,,7,,,49,127
328174,note_on,27,0,1,,,,,,,,,0,,,76,127
328174,note_on,45,0,5,,,,,,,,,4,,,49,90
328237,note_on,63,0,1,,,,,,,,,0,,,76,0
328263,note_on,26,0,1,,,,,,,,,0,,,80,127
328306,note_on,132,0,8,,,,,,,,,7,,,49,0
328306,note_on,132,0,5,,,,,,,,,4,,,49,0
328326,note_on,63,0,1,,,,,,,,,0,,,80,0
328349,note_on,23,0,1,,,,,,,,,0,,,76,127
328350,note_on,44,0,5,,,,,,,,,4,,,49,90
328351,note_on,45,0,8,,,,,,,,,7,,,49,127
328414,note_on,65,0,1,,,,,,,,,0,,,76,0
328439,note_on,25,0,1,,,,,,,,,0,,,73,127
328459,note_on,662,0,7,,,,,,,,,6,,,64,0
328460,note_on,1,0,7,,,,,,,,,6,,,68,0
328463,note_on,3,0,7,,,,,,,,,6,,,73,0
328481,note_on,131,0,5,,,,,,,,,4,,,49,0
328482,note_on,131,0,8,,,,,,,,,7,,,49,0
328504,note_on,65,0,1,,,,,,,,,0,,,73,0
328506,note_on,0,0,7,,,,,,,,,6,,,63,127
328506,note_on,43,0,7,,,,,,,,,6,,,68,127
328508,note_on,2,0,7,,,,,,,,,6,,,72,127
328528,note_on,46,0,8,,,,,,,,,7,,,56,127
328528,note_on,24,0,1,,,,,,,,,0,,,75,127
328528,note_on,47,0,5,,,,,,,,,4,,,56,90
328661,note_on,133,0,1,,,,,,,,,0,,,75,0
328661,note_on,133,0,8,,,,,,,,,7,,,56,0
328661,note_on,133,0,5,,,,,,,,,4,,,56,0
328707,note_on,46,0,8,,,,,,,,,7,,,44,127
328707,note_on,46,0,1,,,,,,,,,0,,,68,127
328707,note_on,46,0,5,,,,,,,,,4,,,44,90
328859,note_on,152,0,5,,,,,,,,,4,,,44,0
328859,note_on,152,0,1,,,,,,,,,0,,,68,0
328860,note_on,352,0,7,,,,,,,,,6,,,63,0
328861,note_on,154,0,8,,,,,,,,,7,,,44,0
328862,note_on,0,0,7,,,,,,,,,6,,,68,0
328862,note_on,2,0,7,,,,,,,,,6,,,72,0
329038,note_on,176,0,7,,,,,,,,,6,,,66,127
329057,note_on,198,0,1,,,,,,,,,0,,,83,127
329058,note_on,199,0,5,,,,,,,,,4,,,51,90
329058,note_on,197,0,8,,,,,,,,,7,,,51,127
329170,note_on,132,0,7,,,,,,,,,6,,,66,0
329194,note_on,136,0,5,,,,,,,,,4,,,51,0
329194,note_on,137,0,1,,,,,,,,,0,,,83,0
329194,note_on,136,0,8,,,,,,,,,7,,,51,0
329216,note_on,0,0,7,,,,,,,,,6,,,59,127
329216,note_on,0,0,7,,,,,,,,,6,,,64,127
329216,note_on,46,0,7,,,,,,,,,6,,,68,127
329237,note_on,43,0,1,,,,,,,,,0,,,80,127
329237,note_on,43,0,5,,,,,,,,,4,,,52,90
329237,note_on,43,0,8,,,,,,,,,7,,,52,127
329302,note_on,65,0,1,,,,,,,,,0,,,80,0
329326,note_on,24,0,1,,,,,,,,,0,,,83,127
329370,note_on,133,0,5,,,,,,,,,4,,,52,0
329370,note_on,133,0,8,,,,,,,,,7,,,52,0
329389,note_on,63,0,1,,,,,,,,,0,,,83,0
329415,note_on,26,0,1,,,,,,,,,0,,,80,127
329415,note_on,45,0,5,,,,,,,,,4,,,52,90
329415,note_on,45,0,8,,,,,,,,,7,,,52,127
329478,note_on,63,0,1,,,,,,,,,0,,,80,0
329501,note_on,23,0,1,,,,,,,,,0,,,76,127
329547,note_on,132,0,5,,,,,,,,,4,,,52,0
329547,note_on,132,0,8,,,,,,,,,7,,,52,0
329568,note_on,67,0,1,,,,,,,,,0,,,76,0
329591,note_on,23,0,1,,,,,,,,,0,,,80,127
329591,note_on,44,0,5,,,,,,,,,4,,,52,90
329592,note_on,45,0,8,,,,,,,,,7,,,52,127
329657,note_on,66,0,1,,,,,,,,,0,,,80,0
329680,note_on,23,0,1,,,,,,,,,0,,,83,127
329724,note_on,133,0,5,,,,,,,,,4,,,52,0
329726,note_on,134,0,8,,,,,,,,,7,,,52,0
329743,note_on,63,0,1,,,,,,,,,0,,,83,0
329768,note_on,25,0,1,,,,,,,,,0,,,80,127
329769,note_on,45,0,5,,,,,,,,,4,,,52,90
329769,note_on,43,0,8,,,,,,,,,7,,,52,127
329833,note_on,65,0,1,,,,,,,,,0,,,80,0
329859,note_on,26,0,1,,,,,,,,,0,,,76,127
329879,note_on,663,0,7,,,,,,,,,6,,,59,0
329882,note_on,3,0,7,,,,,,,,,6,,,64,0
329882,note_on,0,0,7,,,,,,,,,6,,,68,0
329902,note_on,133,0,8,,,,,,,,,7,,,52,0
329902,note_on,133,0,5,,,,,,,,,4,,,52,0
329923,note_on,64,0,1,,,,,,,,,0,,,76,0
329923,note_on,41,0,7,,,,,,,,,6,,,66,127
329923,note_on,0,0,7,,,,,,,,,6,,,59,127
329946,note_on,44,0,5,,,,,,,,,4,,,51,90
329946,note_on,23,0,1,,,,,,,,,0,,,78,127
329948,note_on,46,0,8,,,,,,,,,7,,,51,127
330010,note_on,64,0,1,,,,,,,,,0,,,78,0
330033,note_on,23,0,1,,,,,,,,,0,,,83,127
330081,note_on,133,0,8,,,,,,,,,7,,,51,0
330081,note_on,135,0,5,,,,,,,,,4,,,51,0
330099,note_on,66,0,1,,,,,,,,,0,,,83,0
330123,note_on,24,0,1,,,,,,,,,0,,,78,127
330123,note_on,42,0,5,,,,,,,,,4,,,51,90
330124,note_on,43,0,8,,,,,,,,,7,,,51,127
330185,note_on,62,0,1,,,,,,,,,0,,,78,0
330211,note_on,26,0,1,,,,,,,,,0,,,75,127
330257,note_on,133,0,8,,,,,,,,,7,,,51,0
330257,note_on,134,0,5,,,,,,,,,4,,,51,0
330276,note_on,65,0,1,,,,,,,,,0,,,75,0
330301,note_on,25,0,1,,,,,,,,,0,,,78,127
330301,note_on,44,0,8,,,,,,,,,7,,,51,127
330301,note_on,44,0,5,,,,,,,,,4,,,51,90
330364,note_on,63,0,1,,,,,,,,,0,,,78,0
330388,note_on,24,0,1,,,,,,,,,0,,,83,127
330434,note_on,133,0,5,,,,,,,,,4,,,51,0
330434,note_on,133,0,8,,,,,,,,,7,,,51,0
330455,note_on,67,0,1,,,,,,,,,0,,,83,0
330478,note_on,44,0,5,,,,,,,,,4,,,51,90
330478,note_on,23,0,1,,,,,,,,,0,,,78,127
330480,note_on,46,0,8,,,,,,,,,7,,,51,127
330543,note_on,65,0,1,,,,,,,,,0,,,78,0
330567,note_on,24,0,1,,,,,,,,,0,,,75,127
330588,note_on,665,0,7,,,,,,,,,6,,,59,0
330589,note_on,1,0,7,,,,,,,,,6,,,66,0
330610,note_on,132,0,5,,,,,,,,,4,,,51,0
330610,note_on,130,0,8,,,,,,,,,7,,,51,0
330629,note_on,62,0,1,,,,,,,,,0,,,75,0
330632,note_on,43,0,7,,,,,,,,,6,,,68,127
330632,note_on,0,0,7,,,,,,,,,6,,,59,127
330632,note_on,0,0,7,,,,,,,,,6,,,64,127
330654,note_on,25,0,1,,,,,,,,,0,,,80,127
330657,note_on,47,0,5,,,,,,,,,4,,,52,90
330657,note_on,47,0,8,,,,,,,,,7,,,52,127
330719,note_on,65,0,1,,,,,,,,,0,,,80,0
330743,note_on,24,0,1,,,,,,,,,0,,,83,127
330789,note_on,132,0,5,,,,,,,,,4,,,52,0
330789,note_on,132,0,8,,,,,,,,,7,,,52,0
330806,note_on,63,0,1,,,,,,,,,0,,,83,0
330833,note_on,27,0,1,,,,,,,,,0,,,80,127
330833,note_on,44,0,5,,,,,,,,,4,,,52,90
330833,note_on,44,0,8,,,,,,,,,7,,,52,127
330896,note_on,63,0,1,,,,,,,,,0,,,80,0
330918,note_on,22,0,1,,,,,,,,,0,,,76,127
330967,note_on,134,0,5,,,,,,,,,4,,,52,0
330967,note_on,134,0,8,,,,,,,,,7,,,52,0
330986,note_on,68,0,1,,,,,,,,,0,,,76,0
331008,note_on,41,0,5,,,,,,,,,4,,,52,90
331008,note_on,41,0,8,,,,,,,,,7,,,52,127
331008,note_on,22,0,1,,,,,,,,,0,,,80,127
331074,note_on,66,0,1,,,,,,,,,0,,,80,0
331098,note_on,24,0,1,,,,,,,,,0,,,83,127
331143,note_on,135,0,5,,,,,,,,,4,,,52,0
331143,note_on,135,0,8,,,,,,,,,7,,,52,0
331163,note_on,65,0,1,,,,,,,,,0,,,83,0
331187,note_on,24,0,1,,,,,,,,,0,,,80,127
331188,note_on,45,0,5,,,,,,,,,4,,,52,90
331188,note_on,45,0,8,,,,,,,,,7,,,52,127
331250,note_on,63,0,1,,,,,,,,,0,,,80,0
331276,note_on,26,0,1,,,,,,,,,0,,,76,127
331296,note_on,664,0,7,,,,,,,,,6,,,59,0
331299,note_on,0,0,7,,,,,,,,,6,,,68,0
331299,note_on,3,0,7,,,,,,,,,6,,,64,0
331321,note_on,133,0,8,,,,,,,,,7,,,52,0
331321,note_on,133,0,5,,,,,,,,,4,,,52,0
331341,note_on,65,0,1,,,,,,,,,0,,,76,0
331343,note_on,0,0,7,,,,,,,,,6,,,66,127
331343,note_on,0,0,7,,,,,,,,,6,,,63,127
331343,note_on,44,0,7,,,,,,,,,6,,,71,127
331365,note_on,44,0,8,,,,,,,,,7,,,59,127
331365,note_on,44,0,5,,,,,,,,,4,,,59,90
331365,note_on,24,0,1,,,,,,,,,0,,,78,127
331497,note_on,132,0,1,,,,,,,,,0,,,78,0
331497,note_on,132,0,8,,,,,,,,,7,,,59,0
331497,note_on,132,0,5,,,,,,,,,4,,,59,0
331543,note_on,46,0,8,,,,,,,,,7,,,47,127
331543,note_on,46,0,1,,,,,,,,,0,,,71,127
331543,note_on,46,0,5,,,,,,,,,4,,,47,90
331697,note_on,354,0,7,,,,,,,,,6,,,63,0
331697,note_on,0,0,7,,,,,,,,,6,,,66,0
331697,note_on,0,0,7,,,,,,,,,6,,,71,0
331697,note_on,154,0,1,,,,,,,,,0,,,71,0
331697,note_on,154,0,8,,,,,,,,,7,,,47,0
331697,note_on,154,0,5,,,,,,,,,4,,,47,0
331874,note_on,177,0,7,,,,,,,,,6,,,68,127
331895,note_on,198,0,1,,,,,,,,,0,,,85,127
331895,note_on,198,0,5,,,,,,,,,4,,,53,90
331896,note_on,199,0,8,,,,,,,,,7,,,53,127
332007,note_on,133,0,7,,,,,,,,,6,,,68,0
332030,note_on,135,0,1,,,,,,,,,0,,,85,0
332030,note_on,134,0,8,,,,,,,,,7,,,53,0
332030,note_on,135,0,5,,,,,,,,,4,,,53,0
332051,note_on,0,0,7,,,,,,,,,6,,,61,127
332051,note_on,44,0,7,,,,,,,,,6,,,69,127
332051,note_on,0,0,7,,,,,,,,,6,,,66,127
332073,note_on,43,0,1,,,,,,,,,0,,,81,127
332074,note_on,44,0,5,,,,,,,,,4,,,54,90
332074,note_on,44,0,8,,,,,,,,,7,,,54,127
332137,note_on,64,0,1,,,,,,,,,0,,,81,0
332160,note_on,23,0,1,,,,,,,,,0,,,85,127
332206,note_on,132,0,5,,,,,,,,,4,,,54,0
332206,note_on,132,0,8,,,,,,,,,7,,,54,0
332226,note_on,66,0,1,,,,,,,,,0,,,85,0
332251,note_on,45,0,5,,,,,,,,,4,,,54,90
332251,note_on,45,0,8,,,,,,,,,7,,,54,127
332251,note_on,25,0,1,,,,,,,,,0,,,81,127
332314,note_on,63,0,1,,,,,,,,,0,,,81,0
332339,note_on,25,0,1,,,,,,,,,0,,,74,127
332384,note_on,133,0,5,,,,,,,,,4,,,54,0
332384,note_on,133,0,8,,,,,,,,,7,,,54,0
332403,note_on,64,0,1,,,,,,,,,0,,,74,0
332429,note_on,45,0,5,,,,,,,,,4,,,54,90
332429,note_on,26,0,1,,,,,,,,,0,,,81,127
332429,note_on,45,0,8,,,,,,,,,7,,,54,127
332491,note_on,62,0,1,,,,,,,,,0,,,81,0
332517,note_on,26,0,1,,,,,,,,,0,,,85,127
332561,note_on,132,0,5,,,,,,,,,4,,,54,0
332561,note_on,132,0,8,,,,,,,,,7,,,54,0
332580,note_on,63,0,1,,,,,,,,,0,,,85,0
332606,note_on,45,0,5,,,,,,,,,4,,,54,90
332606,note_on,26,0,1,,,,,,,,,0,,,81,127
332607,note_on,46,0,8,,,,,,,,,7,,,54,127
332667,note_on,61,0,1,,,,,,,,,0,,,81,0
332694,note_on,27,0,1,,,,,,,,,0,,,74,127
332714,note_on,663,0,7,,,,,,,,,6,,,61,0
332717,note_on,3,0,7,,,,,,,,,6,,,66,0
332719,note_on,2,0,7,,,,,,,,,6,,,69,0
332737,note_on,131,0,5,,,,,,,,,4,,,54,0
332737,note_on,130,0,8,,,,,,,,,7,,,54,0
332757,note_on,63,0,1,,,,,,,,,0,,,74,0
332761,note_on,42,0,7,,,,,,,,,6,,,68,127
332761,note_on,0,0,7,,,,,,,,,6,,,61,127
332781,note_on,24,0,1,,,,,,,,,0,,,80,127
332781,note_on,44,0,5,,,,,,,,,4,,,53,90
332782,note_on,45,0,8,,,,,,,,,7,,,53,127
332847,note_on,66,0,1,,,,,,,,,0,,,80,0
332870,note_on,23,0,1,,,,,,,,,0,,,85,127
332916,note_on,134,0,8,,,,,,,,,7,,,53,0
332916,note_on,135,0,5,,,,,,,,,4,,,53,0
332934,note_on,64,0,1,,,,,,,,,0,,,85,0
332961,note_on,45,0,5,,,,,,,,,4,,,53,90
332961,note_on,27,0,1,,,,,,,,,0,,,80,127
332961,note_on,45,0,8,,,,,,,,,7,,,53,127
333023,note_on,62,0,1,,,,,,,,,0,,,80,0
333048,note_on,25,0,1,,,,,,,,,0,,,77,127
333093,note_on,132,0,8,,,,,,,,,7,,,53,0
333093,note_on,132,0,5,,,,,,,,,4,,,53,0
333113,note_on,65,0,1,,,,,,,,,0,,,77,0
333138,note_on,45,0,5,,,,,,,,,4,,,53,90
333138,note_on,25,0,1,,,,,,,,,0,,,80,127
333138,note_on,45,0,8,,,,,,,,,7,,,53,127
333199,note_on,61,0,1,,,,,,,,,0,,,80,0
333226,note_on,27,0,1,,,,,,,,,0,,,85,127
333270,note_on,132,0,5,,,,,,,,,4,,,53,0
333271,note_on,133,0,8,,,,,,,,,7,,,53,0
333289,note_on,63,0,1,,,,,,,,,0,,,85,0
333315,note_on,26,0,1,,,,,,,,,0,,,80,127
333315,note_on,45,0,5,,,,,,,,,4,,,53,90
333315,note_on,44,0,8,,,,,,,,,7,,,53,127
333378,note_on,63,0,1,,,,,,,,,0,,,80,0
333404,note_on,26,0,1,,,,,,,,,0,,,77,127
333424,note_on,663,0,7,,,,,,,,,6,,,61,0
333427,note_on,3,0,7,,,,,,,,,6,,,68,0
333448,note_on,133,0,5,,,,,,,,,4,,,53,0
333448,note_on,133,0,8,,,,,,,,,7,,,53,0
333468,note_on,0,0,7,,,,,,,,,6,,,61,127
333468,note_on,0,0,7,,,,,,,,,6,,,66,127
333468,note_on,41,0,7,,,,,,,,,6,,,69,127
333468,note_on,64,0,1,,,,,,,,,0,,,77,0
333492,note_on,24,0,1,,,,,,,,,0,,,81,127
333492,note_on,44,0,5,,,,,,,,,4,,,54,90
333494,note_on,46,0,8,,,,,,,,,7,,,54,127
333554,note_on,62,0,1,,,,,,,,,0,,,81,0
333580,note_on,26,0,1,,,,,,,,,0,,,85,127
333626,note_on,132,0,8,,,,,,,,,7,,,54,0
333626,note_on,134,0,5,,,,,,,,,4,,,54,0
333644,note_on,64,0,1,,,,,,,,,0,,,85,0
333667,note_on,23,0,1,,,,,,,,,0,,,81,127
333668,note_on,42,0,8,,,,,,,,,7,,,54,127
333668,note_on,42,0,5,,,,,,,,,4,,,54,90
333733,note_on,66,0,1,,,,,,,,,0,,,81,0
333756,note_on,23,0,1,,,,,,,,,0,,,78,127
333801,note_on,133,0,5,,,,,,,,,4,,,54,0
333801,note_on,133,0,8,,,,,,,,,7,,,54,0
333822,note_on,66,0,1,,,,,,,,,0,,,78,0
333847,note_on,25,0,1,,,,,,,,,0,,,81,127
333847,note_on,46,0,8,,,,,,,,,7,,,54,127
333847,note_on,46,0,5,,,,,,,,,4,,,54,90
333911,note_on,64,0,1,,,,,,,,,0,,,81,0
333934,note_on,23,0,1,,,,,,,,,0,,,85,127
333979,note_on,132,0,5,,,,,,,,,4,,,54,0
333979,note_on,132,0,8,,,,,,,,,7,,,54,0
333997,note_on,63,0,1,,,,,,,,,0,,,85,0
334023,note_on,44,0,5,,,,,,,,,4,,,54,90
334023,note_on,26,0,1,,,,,,,,,0,,,81,127
334025,note_on,46,0,8,,,,,,,,,7,,,54,127
334089,note_on,66,0,1,,,,,,,,,0,,,81,0
334112,note_on,23,0,1,,,,,,,,,0,,,78,127
334134,note_on,0,0,7,,,,,,,,,6,,,66,0
334134,note_on,666,0,7,,,,,,,,,6,,,61,0
334136,note_on,2,0,7,,,,,,,,,6,,,69,0
334157,note_on,134,0,5,,,,,,,,,4,,,54,0
334157,note_on,132,0,8,,,,,,,,,7,,,54,0
334175,note_on,63,0,1,,,,,,,,,0,,,78,0
334178,note_on,0,0,7,,,,,,,,,6,,,65,127
334178,note_on,0,0,7,,,,,,,,,6,,,68,127
334178,note_on,42,0,7,,,,,,,,,6,,,73,127
334201,note_on,26,0,1,,,,,,,,,0,,,80,127
334202,note_on,45,0,5,,,,,,,,,4,,,61,90
334202,note_on,45,0,8,,,,,,,,,7,,,61,127
334334,note_on,132,0,8,,,,,,,,,7,,,61,0
334334,note_on,133,0,1,,,,,,,,,0,,,80,0
334334,note_on,132,0,5,,,,,,,,,4,,,61,0
334378,note_on,44,0,1,,,,,,,,,0,,,73,127
334378,note_on,44,0,5,,,,,,,,,4,,,45,90
334380,note_on,46,0,8,,,,,,,,,7,,,45,127
334531,note_on,153,0,1,,,,,,,,,0,,,73,0
334532,note_on,154,0,5,,,,,,,,,4,,,45,0
334532,note_on,354,0,7,,,,,,,,,6,,,65,0
334533,note_on,153,0,8,,,,,,,,,7,,,45,0
334534,note_on,0,0,7,,,,,,,,,6,,,73,0
334534,note_on,2,0,7,,,,,,,,,6,,,68,0
334711,note_on,177,0,7,,,,,,,,,6,,,69,127
334732,note_on,201,0,1,,,,,,,,,0,,,85,127
334732,note_on,200,0,5,,,,,,,,,4,,,54,90
334733,note_on,200,0,8,,,,,,,,,7,,,54,127
334844,note_on,133,0,7,,,,,,,,,6,,,69,0
334865,note_on,132,0,8,,,,,,,,,7,,,54,0
334865,note_on,133,0,1,,,,,,,,,0,,,85,0
334865,note_on,133,0,5,,,,,,,,,4,,,54,0
334888,note_on,0,0,7,,,,,,,,,6,,,66,127
334888,note_on,0,0,7,,,,,,,,,6,,,62,127
334888,note_on,44,0,7,,,,,,,,,6,,,71,127
334910,note_on,45,0,5,,,,,,,,,4,,,59,90
334910,note_on,45,0,8,,,,,,,,,7,,,59,127
334910,note_on,45,0,1,,,,,,,,,0,,,86,127
335043,note_on,133,0,8,,,,,,,,,7,,,59,0
335043,note_on,133,0,5,,,,,,,,,4,,,59,0
335088,note_on,45,0,8,,,,,,,,,7,,,59,127
335088,note_on,45,0,5,,,,,,,,,4,,,59,90
335132,note_on,222,0,1,,,,,,,,,0,,,86,0
335175,note_on,43,0,1,,,,,,,,,0,,,85,127
335221,note_on,133,0,5,,,,,,,,,4,,,59,0
335221,note_on,133,0,8,,,,,,,,,7,,,59,0
335240,note_on,65,0,1,,,,,,,,,0,,,85,0
335265,note_on,25,0,1,,,,,,,,,0,,,83,127
335265,note_on,44,0,8,,,,,,,,,7,,,59,127
335265,note_on,44,0,5,,,,,,,,,4,,,59,90
335329,note_on,64,0,1,,,,,,,,,0,,,83,0
335353,note_on,24,0,1,,,,,,,,,0,,,81,127
335397,note_on,132,0,5,,,,,,,,,4,,,59,0
335397,note_on,132,0,8,,,,,,,,,7,,,59,0
335417,note_on,64,0,1,,,,,,,,,0,,,81,0
335443,note_on,46,0,5,,,,,,,,,4,,,59,90
335443,note_on,46,0,8,,,,,,,,,7,,,59,127
335443,note_on,26,0,1,,,,,,,,,0,,,80,127
335506,note_on,63,0,1,,,,,,,,,0,,,80,0
335529,note_on,23,0,1,,,,,,,,,0,,,78,127
335551,note_on,663,0,7,,,,,,,,,6,,,62,0
335553,note_on,2,0,7,,,,,,,,,6,,,66,0
335556,note_on,3,0,7,,,,,,,,,6,,,71,0
335575,note_on,132,0,8,,,,,,,,,7,,,59,0
335575,note_on,132,0,5,,,,,,,,,4,,,59,0
335593,note_on,64,0,1,,,,,,,,,0,,,78,0
335596,note_on,40,0,7,,,,,,,,,6,,,71,127
335596,note_on,0,0,7,,,,,,,,,6,,,66,127
335596,note_on,0,0,7,,,,,,,,,6,,,64,127
335619,note_on,44,0,8,,,,,,,,,7,,,52,127
335619,note_on,26,0,1,,,,,,,,,0,,,78,127
335619,note_on,44,0,5,,,,,,,,,4,,,52,90
335749,note_on,130,0,5,,,,,,,,,4,,,52,0
335750,note_on,131,0,8,,,,,,,,,7,,,52,0
335796,note_on,46,0,8,,,,,,,,,7,,,52,127
335796,note_on,47,0,5,,,,,,,,,4,,,52,90
335908,note_on,312,0,7,,,,,,,,,6,,,66,0
335930,note_on,134,0,8,,,,,,,,,7,,,52,0
335930,note_on,134,0,5,,,,,,,,,4,,,52,0
335930,note_on,311,0,1,,,,,,,,,0,,,78,0
335951,note_on,43,0,7,,,,,,,,,6,,,68,127
335975,note_on,45,0,1,,,,,,,,,0,,,80,127
335975,note_on,45,0,5,,,,,,,,,4,,,52,90
335975,note_on,45,0,8,,,,,,,,,7,,,52,127
336106,note_on,131,0,1,,,,,,,,,0,,,80,0
336106,note_on,131,0,5,,,,,,,,,4,,,52,0
336109,note_on,134,0,8,,,,,,,,,7,,,52,0
336152,note_on,46,0,1,,,,,,,,,0,,,83,127
336152,note_on,46,0,5,,,,,,,,,4,,,52,90
336152,note_on,43,0,8,,,,,,,,,7,,,52,127
336260,note_on,309,0,7,,,,,,,,,6,,,64,0
336264,note_on,4,0,7,,,,,,,,,6,,,68,0
336264,note_on,0,0,7,,,,,,,,,6,,,71,0
336284,note_on,132,0,8,,,,,,,,,7,,,52,0
336284,note_on,132,0,1,,,,,,,,,0,,,83,0
336284,note_on,132,0,5,,,,,,,,,4,,,52,0
336305,note_on,0,0,7,,,,,,,,,6,,,64,127
336305,note_on,0,0,7,,,,,,,,,6,,,61,127
336305,note_on,41,0,7,,,,,,,,,6,,,69,127
336329,note_on,45,0,1,,,,,,,,,0,,,85,127
336329,note_on,45,0,5,,,,,,,,,4,,,57,90
336329,note_on,45,0,8,,,,,,,,,7,,,57,127
336461,note_on,132,0,5,,,,,,,,,4,,,57,0
336461,note_on,132,0,8,,,,,,,,,7,,,57,0
336506,note_on,45,0,5,,,,,,,,,4,,,57,90
336506,note_on,45,0,8,,,,,,,,,7,,,57,127
336549,note_on,220,0,1,,,,,,,,,0,,,85,0
336593,note_on,44,0,1,,,,,,,,,0,,,83,127
336638,note_on,132,0,5,,,,,,,,,4,,,57,0
336638,note_on,132,0,8,,,,,,,,,7,,,57,0
336658,note_on,65,0,1,,,,,,,,,0,,,83,0
336683,note_on,45,0,5,,,,,,,,,4,,,57,90
336683,note_on,25,0,1,,,,,,,,,0,,,81,127
336685,note_on,47,0,8,,,,,,,,,7,,,57,127
336744,note_on,61,0,1,,,,,,,,,0,,,81,0
336769,note_on,25,0,1,,,,,,,,,0,,,80,127
336814,note_on,131,0,5,,,,,,,,,4,,,57,0
336816,note_on,131,0,8,,,,,,,,,7,,,57,0
336834,note_on,65,0,1,,,,,,,,,0,,,80,0
336860,note_on,26,0,1,,,,,,,,,0,,,78,127
336860,note_on,46,0,5,,,,,,,,,4,,,57,90
336860,note_on,44,0,8,,,,,,,,,7,,,57,127
336922,note_on,62,0,1,,,,,,,,,0,,,78,0
336949,note_on,27,0,1,,,,,,,,,0,,,77,127
336969,note_on,664,0,7,,,,,,,,,6,,,61,0
336972,note_on,3,0,7,,,,,,,,,6,,,64,0
336973,note_on,1,0,7,,,,,,,,,6,,,69,0
336994,note_on,134,0,8,,,,,,,,,7,,,57,0
336994,note_on,134,0,5,,,,,,,,,4,,,57,0
337011,note_on,62,0,1,,,,,,,,,0,,,77,0
337014,note_on,41,0,7,,,,,,,,,6,,,69,127
337014,note_on,0,0,7,,,,,,,,,6,,,65,127
337014,note_on,0,0,7,,,,,,,,,6,,,62,127
337037,note_on,43,0,5,,,,,,,,,4,,,50,90
337037,note_on,26,0,1,,,,,,,,,0,,,77,127
337039,note_on,45,0,8,,,,,,,,,7,,,50,127
337171,note_on,134,0,5,,,,,,,,,4,,,50,0
337171,note_on,132,0,8,,,,,,,,,7,,,50,0
337214,note_on,43,0,5,,,,,,,,,4,,,50,90
337214,note_on,43,0,8,,,,,,,,,7,,,50,127
337327,note_on,313,0,7,,,,,,,,,6,,,65,0
337345,note_on,308,0,1,,,,,,,,,0,,,77,0
337346,note_on,132,0,5,,,,,,,,,4,,,50,0
337346,note_on,132,0,8,,,,,,,,,7,,,50,0
337369,note_on,42,0,7,,,,,,,,,6,,,66,127
337392,note_on,46,0,5,,,,,,,,,4,,,50,90
337392,note_on,46,0,8,,,,,,,,,7,,,50,127
337392,note_on,47,0,1,,,,,,,,,0,,,78,127
337524,note_on,132,0,1,,,,,,,,,0,,,78,0
337526,note_on,134,0,8,,,,,,,,,7,,,50,0
337526,note_on,134,0,5,,,,,,,,,4,,,50,0
337569,note_on,43,0,8,,,,,,,,,7,,,50,127
337569,note_on,45,0,1,,,,,,,,,0,,,81,127
337569,note_on,43,0,5,,,,,,,,,4,,,50,90
337680,note_on,311,0,7,,,,,,,,,6,,,62,0
337682,note_on,0,0,7,,,,,,,,,6,,,69,0
337682,note_on,2,0,7,,,,,,,,,6,,,66,0
337703,note_on,134,0,5,,,,,,,,,4,,,50,0
337703,note_on,134,0,8,,,,,,,,,7,,,50,0
337703,note_on,134,0,1,,,,,,,,,0,,,81,0
337721,note_on,0,0,7,,,,,,,,,6,,,66,127
337721,note_on,39,0,7,,,,,,,,,6,,,71,127
337747,note_on,44,0,1,,,,,,,,,0,,,83,127
337747,note_on,44,0,8,,,,,,,,,7,,,62,127
337747,note_on,44,0,5,,,,,,,,,4,,,62,90
337879,note_on,132,0,8,,,,,,,,,7,,,62,0
337879,note_on,132,0,5,,,,,,,,,4,,,62,0
337924,note_on,45,0,8,,,,,,,,,7,,,62,127
337924,note_on,45,0,5,,,,,,,,,4,,,62,90
337967,note_on,220,0,1,,,,,,,,,0,,,83,0
338012,note_on,45,0,1,,,,,,,,,0,,,85,127
338057,note_on,133,0,8,,,,,,,,,7,,,62,0
338057,note_on,133,0,5,,,,,,,,,4,,,62,0
338075,note_on,63,0,1,,,,,,,,,0,,,85,0
338102,note_on,27,0,1,,,,,,,,,0,,,83,127
338102,note_on,45,0,8,,,,,,,,,7,,,62,127
338102,note_on,45,0,5,,,,,,,,,4,,,62,90
338164,note_on,62,0,1,,,,,,,,,0,,,83,0
338190,note_on,26,0,1,,,,,,,,,0,,,81,127
338232,note_on,130,0,5,,,,,,,,,4,,,62,0
338233,note_on,131,0,8,,,,,,,,,7,,,62,0
338254,note_on,64,0,1,,,,,,,,,0,,,81,0
338277,note_on,23,0,1,,,,,,,,,0,,,80,127
338278,note_on,46,0,5,,,,,,,,,4,,,62,90
338280,note_on,47,0,8,,,,,,,,,7,,,62,127
338343,note_on,66,0,1,,,,,,,,,0,,,80,0
338366,note_on,23,0,1,,,,,,,,,0,,,78,127
338389,note_on,668,0,7,,,,,,,,,6,,,66,0
338390,note_on,1,0,7,,,,,,,,,6,,,71,0
338410,note_on,132,0,5,,,,,,,,,4,,,62,0
338410,note_on,130,0,8,,,,,,,,,7,,,62,0
338432,note_on,66,0,1,,,,,,,,,0,,,78,0
338434,note_on,0,0,7,,,,,,,,,6,,,65,127
338434,note_on,44,0,7,,,,,,,,,6,,,73,127
338434,note_on,0,0,7,,,,,,,,,6,,,68,127
338455,note_on,23,0,1,,,,,,,,,0,,,77,127
338455,note_on,45,0,5,,,,,,,,,4,,,61,90
338455,note_on,45,0,8,,,,,,,,,7,,,61,127
338588,note_on,133,0,5,,,,,,,,,4,,,61,0
338588,note_on,133,0,1,,,,,,,,,0,,,77,0
338590,note_on,135,0,8,,,,,,,,,7,,,61,0
338633,note_on,45,0,1,,,,,,,,,0,,,86,127
338633,note_on,45,0,5,,,,,,,,,4,,,61,90
338633,note_on,43,0,8,,,,,,,,,7,,,61,127
338743,note_on,309,0,7,,,,,,,,,6,,,65,0
338744,note_on,1,0,7,,,,,,,,,6,,,68,0
338747,note_on,3,0,7,,,,,,,,,6,,,73,0
338765,note_on,132,0,5,,,,,,,,,4,,,61,0
338765,note_on,132,0,1,,,,,,,,,0,,,86,0
338767,note_on,134,0,8,,,,,,,,,7,,,61,0
338787,note_on,0,0,7,,,,,,,,,6,,,61,127
338787,note_on,0,0,7,,,,,,,,,6,,,68,127
338787,note_on,40,0,7,,,,,,,,,6,,,71,127
338810,note_on,45,0,1,,,,,,,,,0,,,85,127
338810,note_on,45,0,5,,,,,,,,,4,,,53,90
338810,note_on,43,0,8,,,,,,,,,7,,,53,127
338944,note_on,134,0,1,,,,,,,,,0,,,85,0
338944,note_on,134,0,5,,,,,,,,,4,,,53,0
338944,note_on,134,0,8,,,,,,,,,7,,,53,0
338988,note_on,44,0,1,,,,,,,,,0,,,83,127
338988,note_on,44,0,5,,,,,,,,,4,,,53,90
338988,note_on,44,0,8,,,,,,,,,7,,,53,127
339098,note_on,0,0,7,,,,,,,,,6,,,68,0
339098,note_on,311,0,7,,,,,,,,,6,,,61,0
339101,note_on,3,0,7,,,,,,,,,6,,,71,0
339118,note_on,130,0,1,,,,,,,,,0,,,83,0
339119,note_on,131,0,5,,,,,,,,,4,,,53,0
339120,note_on,132,0,8,,,,,,,,,7,,,53,0
339143,note_on,0,0,7,,,,,,,,,6,,,61,127
339143,note_on,0,0,7,,,,,,,,,6,,,66,127
339143,note_on,42,0,7,,,,,,,,,6,,,69,127
339163,note_on,45,0,1,,,,,,,,,0,,,81,127
339164,note_on,44,0,8,,,,,,,,,7,,,54,127
339164,program_change,45,0,5,,,,,,,,49,4,,,,
339166,note_on,2,0,5,,,,,,,,,4,,,54,90
339205,note_on,42,0,1,,,,,,,,,0,,,81,0
339208,note_on,3,0,1,,,,,,,,,0,,,80,127
339249,note_on,41,0,1,,,,,,,,,0,,,80,0
339253,note_on,4,0,1,,,,,,,,,0,,,78,127
339296,note_on,132,0,8,,,,,,,,,7,,,54,0
339296,note_on,130,0,5,,,,,,,,,4,,,54,0
339341,note_on,45,0,8,,,,,,,,,7,,,45,127
339341,note_on,45,0,5,,,,,,,,,4,,,45,90
339452,note_on,309,0,7,,,,,,,,,6,,,61,0
339454,note_on,2,0,7,,,,,,,,,6,,,66,0
339456,note_on,2,0,7,,,,,,,,,6,,,69,0
339475,note_on,134,0,8,,,,,,,,,7,,,45,0
339475,note_on,134,0,5,,,,,,,,,4,,,45,0
339497,note_on,0,0,7,,,,,,,,,6,,,62,127
339497,note_on,41,0,7,,,,,,,,,6,,,68,127
339515,note_on,262,0,1,,,,,,,,,0,,,78,0
339518,note_on,3,0,1,,,,,,,,,0,,,80,127
339519,note_on,44,0,8,,,,,,,,,7,,,47,127
339519,note_on,44,0,5,,,,,,,,,4,,,47,90
339560,note_on,42,0,1,,,,,,,,,0,,,80,0
339563,note_on,3,0,1,,,,,,,,,0,,,78,127
339606,note_on,43,0,1,,,,,,,,,0,,,78,0
339607,note_on,1,0,1,,,,,,,,,0,,,77,127
339628,note_on,131,0,7,,,,,,,,,6,,,62,0
339631,note_on,3,0,7,,,,,,,,,6,,,68,0
339652,note_on,133,0,5,,,,,,,,,4,,,47,0
339652,note_on,133,0,8,,,,,,,,,7,,,47,0
339673,note_on,0,0,7,,,,,,,,,6,,,61,127
339673,note_on,42,0,7,,,,,,,,,6,,,65,127
339696,note_on,44,0,5,,,,,,,,,4,,,49,90
339696,note_on,44,0,8,,,,,,,,,7,,,49,127
339805,note_on,132,0,7,,,,,,,,,6,,,61,0
339808,note_on,3,0,7,,,,,,,,,6,,,65,0
339829,note_on,133,0,5,,,,,,,,,4,,,49,0
339830,note_on,134,0,8,,,,,,,,,7,,,49,0
339851,note_on,43,0,7,,,,,,,,,6,,,66,127
339851,note_on,0,0,7,,,,,,,,,6,,,61,127
339851,note_on,0,0,7,,,,,,,,,6,,,57,127
339869,note_on,262,0,1,,,,,,,,,0,,,77,0
339876,note_on,13827,0,6,,,,,,,,,5,,,54,90
339876,note_on,13827,0,4,,,,,,,,,3,,,69,64
339876,note_on,13827,0,3,,,,,,,,,2,,,73,62
339876,note_on,13830,0,2,,,,,,,,,1,,,73,64
339876,note_on,47,0,5,,,,,,,,,4,,,54,90
339876,note_on,7,0,1,,,,,,,,,0,,,78,127
339878,note_on,48,0,8,,,,,,,,,7,,,54,127
340006,note_on,130,0,4,,,,,,,,,3,,,69,0
340006,note_on,130,0,2,,,,,,,,,1,,,73,0
340006,note_on,130,0,5,,,,,,,,,4,,,54,0
340006,note_on,130,0,3,,,,,,,,,2,,,73,0
340008,note_on,132,0,6,,,,,,,,,5,,,54,0
340008,note_on,130,0,8,,,,,,,,,7,,,54,0
340051,note_on,45,0,2,,,,,,,,,1,,,71,64
340051,note_on,45,0,3,,,,,,,,,2,,,71,62
340051,note_on,45,0,4,,,,,,,,,3,,,71,64
340053,note_on,45,0,8,,,,,,,,,7,,,56,127
340053,note_on,45,0,6,,,,,,,,,5,,,56,90
340053,note_on,47,0,5,,,,,,,,,4,,,56,90
340139,note_on,88,0,2,,,,,,,,,1,,,69,64
340140,note_on,89,0,3,,,,,,,,,2,,,69,62
340158,note_on,307,0,7,,,,,,,,,6,,,57,0
340163,note_on,5,0,7,,,,,,,,,6,,,61,0
340163,note_on,0,0,7,,,,,,,,,6,,,66,0
340167,note_on,28,0,2,,,,,,,,,1,,,71,0
340168,note_on,28,0,3,,,,,,,,,2,,,71,0
340184,note_on,131,0,5,,,,,,,,,4,,,56,0
340184,note_on,131,0,6,,,,,,,,,5,,,56,0
340184,note_on,308,0,1,,,,,,,,,0,,,78,0
340184,note_on,133,0,4,,,,,,,,,3,,,71,0
340184,note_on,131,0,8,,,,,,,,,7,,,56,0
340206,note_on,0,0,7,,,,,,,,,6,,,66,127
340206,note_on,43,0,7,,,,,,,,,6,,,73,127
340225,note_on,41,0,1,,,,,,,,,0,,,78,127
340225,note_on,57,0,3,,,,,,,,,2,,,78,62
340225,note_on,58,0,2,,,,,,,,,1,,,78,64
340227,note_on,43,0,4,,,,,,,,,3,,,73,64
340227,note_on,43,0,5,,,,,,,,,4,,,57,90
340228,note_on,44,0,8,,,,,,,,,7,,,57,127
340228,note_on,44,0,6,,,,,,,,,5,,,57,90
340257,note_on,32,0,2,,,,,,,,,1,,,69,0
340257,note_on,32,0,3,,,,,,,,,2,,,69,0
340362,note_on,135,0,5,,,,,,,,,4,,,57,0
340362,note_on,137,0,1,,,,,,,,,0,,,78,0
340362,note_on,105,0,3,,,,,,,,,2,,,78,0
340362,note_on,135,0,4,,,,,,,,,3,,,73,0
340362,note_on,105,0,2,,,,,,,,,1,,,78,0
340363,note_on,135,0,6,,,,,,,,,5,,,57,0
340364,note_on,136,0,8,,,,,,,,,7,,,57,0
340406,note_on,44,0,1,,,,,,,,,0,,,78,127
340406,note_on,44,0,2,,,,,,,,,1,,,78,64
340409,note_on,47,0,3,,,,,,,,,2,,,78,62
340409,note_on,47,0,4,,,,,,,,,3,,,71,64
340409,note_on,47,0,5,,,,,,,,,4,,,56,90
340409,note_on,45,0,8,,,,,,,,,7,,,56,127
340409,note_on,46,0,6,,,,,,,,,5,,,56,90
340513,note_on,307,0,7,,,,,,,,,6,,,66,0
340515,note_on,2,0,7,,,,,,,,,6,,,73,0
340539,note_on,130,0,3,,,,,,,,,2,,,78,0
340539,note_on,133,0,1,,,,,,,,,0,,,78,0
340539,note_on,133,0,2,,,,,,,,,1,,,78,0
340541,note_on,132,0,4,,,,,,,,,3,,,71,0
340542,note_on,133,0,5,,,,,,,,,4,,,56,0
340542,note_on,133,0,8,,,,,,,,,7,,,56,0
340542,note_on,133,0,6,,,,,,,,,5,,,56,0
340559,note_on,0,0,7,,,,,,,,,6,,,69,127
340559,note_on,44,0,7,,,,,,,,,6,,,73,127
340584,note_on,45,0,3,,,,,,,,,2,,,73,62
340584,note_on,43,0,4,,,,,,,,,3,,,69,64
340584,note_on,45,0,2,,,,,,,,,1,,,73,64
340584,note_on,45,0,1,,,,,,,,,0,,,73,127
340585,note_on,43,0,5,,,,,,,,,4,,,54,90
340587,note_on,45,0,6,,,,,,,,,5,,,54,90
340587,note_on,45,0,8,,,,,,,,,7,,,54,127
340716,note_on,132,0,2,,,,,,,,,1,,,73,0
340716,note_on,132,0,1,,,,,,,,,0,,,73,0
340718,note_on,134,0,3,,,,,,,,,2,,,73,0
340718,note_on,134,0,4,,,,,,,,,3,,,69,0
340718,note_on,133,0,5,,,,,,,,,4,,,54,0
340720,note_on,133,0,6,,,,,,,,,5,,,54,0
340720,note_on,133,0,8,,,,,,,,,7,,,54,0
340760,note_on,44,0,2,,,,,,,,,1,,,71,64
340760,note_on,42,0,3,,,,,,,,,2,,,71,62
340760,note_on,44,0,1,,,,,,,,,0,,,71,127
340764,note_on,44,0,8,,,,,,,,,7,,,56,127
340764,note_on,46,0,4,,,,,,,,,3,,,71,64
340764,note_on,46,0,5,,,,,,,,,4,,,56,90
340764,note_on,44,0,6,,,,,,,,,5,,,56,90
340846,note_on,86,0,1,,,,,,,,,0,,,71,0
340849,note_on,89,0,2,,,,,,,,,1,,,69,64
340849,note_on,89,0,3,,,,,,,,,2,,,69,62
340849,note_on,3,0,1,,,,,,,,,0,,,69,127
340868,note_on,309,0,7,,,,,,,,,6,,,69,0
340871,note_on,3,0,7,,,,,,,,,6,,,73,0
340878,note_on,29,0,3,,,,,,,,,2,,,71,0
340878,note_on,29,0,2,,,,,,,,,1,,,71,0
340892,note_on,128,0,6,,,,,,,,,5,,,56,0
340892,note_on,128,0,4,,,,,,,,,3,,,71,0
340892,note_on,128,0,5,,,,,,,,,4,,,56,0
340893,note_on,129,0,8,,,,,,,,,7,,,56,0
340915,note_on,44,0,7,,,,,,,,,6,,,73,127
340915,note_on,0,0,7,,,,,,,,,6,,,66,127
340935,note_on,86,0,1,,,,,,,,,0,,,69,0
340936,note_on,58,0,3,,,,,,,,,2,,,78,62
340936,note_on,1,0,1,,,,,,,,,0,,,78,127
340936,note_on,58,0,2,,,,,,,,,1,,,78,64
340937,note_on,45,0,4,,,,,,,,,3,,,73,64
340938,note_on,46,0,5,,,,,,,,,4,,,57,90
340939,note_on,47,0,6,,,,,,,,,5,,,57,90
340939,note_on,46,0,8,,,,,,,,,7,,,57,127
340966,note_on,30,0,2,,,,,,,,,1,,,69,0
340966,note_on,30,0,3,,,,,,,,,2,,,69,0
341070,note_on,134,0,1,,,,,,,,,0,,,78,0
341071,note_on,105,0,2,,,,,,,,,1,,,78,0
341074,note_on,137,0,4,,,,,,,,,3,,,73,0
341074,note_on,135,0,6,,,,,,,,,5,,,57,0
341074,note_on,108,0,3,,,,,,,,,2,,,78,0
341074,note_on,136,0,5,,,,,,,,,4,,,57,0
341074,note_on,135,0,8,,,,,,,,,7,,,57,0
341114,note_on,44,0,1,,,,,,,,,0,,,78,127
341116,note_on,45,0,2,,,,,,,,,1,,,78,64
341116,note_on,42,0,8,,,,,,,,,7,,,54,127
341116,note_on,42,0,5,,,,,,,,,4,,,54,90
341116,note_on,42,0,4,,,,,,,,,3,,,69,64
341116,note_on,42,0,3,,,,,,,,,2,,,78,62
341116,note_on,42,0,6,,,,,,,,,5,,,54,90
341225,note_on,310,0,7,,,,,,,,,6,,,66,0
341227,note_on,2,0,7,,,,,,,,,6,,,73,0
341249,note_on,135,0,1,,,,,,,,,0,,,78,0
341249,note_on,133,0,2,,,,,,,,,1,,,78,0
341250,note_on,134,0,8,,,,,,,,,7,,,54,0
341250,note_on,134,0,5,,,,,,,,,4,,,54,0
341250,note_on,134,0,6,,,,,,,,,5,,,54,0
341250,note_on,134,0,3,,,,,,,,,2,,,78,0
341250,note_on,134,0,4,,,,,,,,,3,,,69,0
341268,note_on,41,0,7,,,,,,,,,6,,,68,127
341268,note_on,0,0,7,,,,,,,,,6,,,65,127
341292,note_on,43,0,1,,,,,,,,,0,,,77,127
341293,note_on,44,0,2,,,,,,,,,1,,,77,64
341293,note_on,43,0,5,,,,,,,,,4,,,49,90
341293,note_on,43,0,4,,,,,,,,,3,,,68,64
341293,note_on,43,0,6,,,,,,,,,5,,,49,90
341293,note_on,43,0,3,,,,,,,,,2,,,77,62
341295,note_on,45,0,8,,,,,,,,,7,,,49,127
341425,note_on,133,0,1,,,,,,,,,0,,,77,0
341425,note_on,132,0,3,,,,,,,,,2,,,77,0
341425,note_on,132,0,2,,,,,,,,,1,,,77,0
341429,note_on,136,0,6,,,,,,,,,5,,,49,0
341429,note_on,134,0,8,,,,,,,,,7,,,49,0
341429,note_on,136,0,5,,,,,,,,,4,,,49,0
341429,note_on,136,0,4,,,,,,,,,3,,,68,0
341468,note_on,43,0,1,,,,,,,,,0,,,75,127
341468,note_on,43,0,2,,,,,,,,,1,,,75,64
341472,note_on,47,0,3,,,,,,,,,2,,,75,62
341472,note_on,43,0,8,,,,,,,,,7,,,51,127
341472,note_on,43,0,5,,,,,,,,,4,,,51,90
341472,note_on,43,0,6,,,,,,,,,5,,,51,90
341472,note_on,43,0,4,,,,,,,,,3,,,66,64
341556,note_on,88,0,1,,,,,,,,,0,,,75,0
341559,note_on,3,0,1,,,,,,,,,0,,,73,127
341559,note_on,87,0,3,,,,,,,,,2,,,73,62
341559,note_on,91,0,2,,,,,,,,,1,,,73,64
341579,note_on,311,0,7,,,,,,,,,6,,,65,0
341581,note_on,2,0,7,,,,,,,,,6,,,68,0
341586,note_on,27,0,2,,,,,,,,,1,,,75,0
341586,note_on,27,0,3,,,,,,,,,2,,,75,0
341604,note_on,132,0,5,,,,,,,,,4,,,51,0
341604,note_on,132,0,8,,,,,,,,,7,,,51,0
341604,note_on,132,0,4,,,,,,,,,3,,,66,0
341604,note_on,132,0,6,,,,,,,,,5,,,51,0
341621,note_on,40,0,7,,,,,,,,,6,,,73,127
341621,note_on,0,0,7,,,,,,,,,6,,,68,127
341643,note_on,84,0,1,,,,,,,,,0,,,73,0
341647,note_on,61,0,3,,,,,,,,,2,,,83,62
341647,note_on,61,0,2,,,,,,,,,1,,,83,64
341647,note_on,4,0,1,,,,,,,,,0,,,83,127
341650,note_on,46,0,6,,,,,,,,,5,,,53,90
341650,note_on,46,0,4,,,,,,,,,3,,,68,64
341650,note_on,46,0,5,,,,,,,,,4,,,53,90
341650,note_on,46,0,8,,,,,,,,,7,,,53,127
341676,note_on,29,0,3,,,,,,,,,2,,,73,0
341676,note_on,29,0,2,,,,,,,,,1,,,73,0
341779,note_on,103,0,3,,,,,,,,,2,,,83,0
341779,note_on,129,0,4,,,,,,,,,3,,,68,0
341779,note_on,103,0,2,,,,,,,,,1,,,83,0
341779,note_on,132,0,1,,,,,,,,,0,,,83,0
341780,note_on,130,0,5,,,,,,,,,4,,,53,0
341780,note_on,130,0,6,,,,,,,,,5,,,53,0
341781,note_on,131,0,8,,,,,,,,,7,,,53,0
341822,note_on,43,0,1,,,,,,,,,0,,,83,127
341825,note_on,46,0,2,,,,,,,,,1,,,83,64
341826,note_on,46,0,5,,,,,,,,,4,,,51,90
341826,note_on,46,0,6,,,,,,,,,5,,,51,90
341826,note_on,47,0,3,,,,,,,,,2,,,83,62
341826,note_on,45,0,8,,,,,,,,,7,,,51,127
341826,note_on,47,0,4,,,,,,,,,3,,,66,64
341934,note_on,313,0,7,,,,,,,,,6,,,68,0
341935,note_on,1,0,7,,,,,,,,,6,,,73,0
341956,note_on,134,0,1,,,,,,,,,0,,,83,0
341957,note_on,131,0,5,,,,,,,,,4,,,51,0
341957,note_on,131,0,4,,,,,,,,,3,,,66,0
341957,note_on,131,0,3,,,,,,,,,2,,,83,0
341957,note_on,132,0,2,,,,,,,,,1,,,83,0
341958,note_on,132,0,8,,,,,,,,,7,,,51,0
341958,note_on,132,0,6,,,,,,,,,5,,,51,0
341978,note_on,43,0,7,,,,,,,,,6,,,73,127
341978,note_on,0,0,7,,,,,,,,,6,,,65,127
342002,note_on,46,0,1,,,,,,,,,0,,,77,127
342003,note_on,46,0,5,,,,,,,,,4,,,49,90
342003,note_on,46,0,2,,,,,,,,,1,,,77,64
342003,note_on,46,0,3,,,,,,,,,2,,,77,62
342003,note_on,46,0,4,,,,,,,,,3,,,68,64
342004,note_on,46,0,6,,,,,,,,,5,,,49,90
342004,note_on,46,0,8,,,,,,,,,7,,,49,127
342132,note_on,130,0,1,,,,,,,,,0,,,77,0
342133,note_on,130,0,2,,,,,,,,,1,,,77,0
342134,note_on,131,0,3,,,,,,,,,2,,,77,0
342134,note_on,131,0,4,,,,,,,,,3,,,68,0
342135,note_on,132,0,5,,,,,,,,,4,,,49,0
342136,note_on,132,0,8,,,,,,,,,7,,,49,0
342136,note_on,132,0,6,,,,,,,,,5,,,49,0
342179,note_on,47,0,1,,,,,,,,,0,,,75,127
342180,note_on,46,0,3,,,,,,,,,2,,,75,62
342180,note_on,46,0,4,,,,,,,,,3,,,66,64
342180,note_on,47,0,2,,,,,,,,,1,,,75,64
342183,note_on,47,0,8,,,,,,,,,7,,,51,127
342183,note_on,47,0,6,,,,,,,,,5,,,51,90
342183,note_on,48,0,5,,,,,,,,,4,,,51,90
342263,note_on,84,0,1,,,,,,,,,0,,,75,0
342267,note_on,4,0,1,,,,,,,,,0,,,73,127
342267,note_on,87,0,2,,,,,,,,,1,,,73,64
342267,note_on,87,0,3,,,,,,,,,2,,,73,62
342287,note_on,309,0,7,,,,,,,,,6,,,65,0
342290,note_on,3,0,7,,,,,,,,,6,,,73,0
342297,note_on,30,0,2,,,,,,,,,1,,,75,0
342297,note_on,30,0,3,,,,,,,,,2,,,75,0
342312,note_on,129,0,8,,,,,,,,,7,,,51,0
342312,note_on,129,0,6,,,,,,,,,5,,,51,0
342312,note_on,132,0,4,,,,,,,,,3,,,66,0
342312,note_on,129,0,5,,,,,,,,,4,,,51,0
342331,note_on,41,0,7,,,,,,,,,6,,,73,127
342331,note_on,0,0,7,,,,,,,,,6,,,68,127
342355,note_on,0,0,1,,,,,,,,,0,,,83,127
342355,note_on,88,0,1,,,,,,,,,0,,,73,0
342359,note_on,47,0,4,,,,,,,,,3,,,68,64
342359,note_on,62,0,3,,,,,,,,,2,,,83,62
342359,note_on,62,0,2,,,,,,,,,1,,,83,64
342359,note_on,47,0,8,,,,,,,,,7,,,53,127
342359,note_on,47,0,6,,,,,,,,,5,,,53,90
342359,note_on,47,0,5,,,,,,,,,4,,,53,90
342384,note_on,25,0,2,,,,,,,,,1,,,73,0
342384,note_on,25,0,3,,,,,,,,,2,,,73,0
342486,note_on,131,0,1,,,,,,,,,0,,,83,0
342488,note_on,104,0,3,,,,,,,,,2,,,83,0
342488,note_on,104,0,2,,,,,,,,,1,,,83,0
342488,note_on,129,0,4,,,,,,,,,3,,,68,0
342489,note_on,130,0,5,,,,,,,,,4,,,53,0
342489,note_on,130,0,6,,,,,,,,,5,,,53,0
342490,note_on,131,0,8,,,,,,,,,7,,,53,0
342534,note_on,46,0,4,,,,,,,,,3,,,65,64
342534,note_on,45,0,5,,,,,,,,,4,,,49,90
342534,note_on,46,0,3,,,,,,,,,2,,,83,62
342534,note_on,48,0,1,,,,,,,,,0,,,83,127
342534,note_on,46,0,2,,,,,,,,,1,,,83,64
342538,note_on,49,0,6,,,,,,,,,5,,,49,90
342538,note_on,48,0,8,,,,,,,,,7,,,49,127
342642,note_on,311,0,7,,,,,,,,,6,,,68,0
342645,note_on,3,0,7,,,,,,,,,6,,,73,0
342667,note_on,133,0,1,,,,,,,,,0,,,83,0
342667,note_on,133,0,2,,,,,,,,,1,,,83,0
342668,note_on,134,0,3,,,,,,,,,2,,,83,0
342668,note_on,134,0,4,,,,,,,,,3,,,65,0
342668,note_on,130,0,6,,,,,,,,,5,,,49,0
342668,note_on,134,0,5,,,,,,,,,4,,,49,0
342670,note_on,132,0,8,,,,,,,,,7,,,49,0
342688,note_on,43,0,7,,,,,,,,,6,,,69,127
342688,note_on,0,0,7,,,,,,,,,6,,,66,127
342688,note_on,0,0,7,,,,,,,,,6,,,61,127
342708,note_on,41,0,1,,,,,,,,,0,,,81,127
342709,note_on,42,0,2,,,,,,,,,1,,,81,64
342710,note_on,42,0,4,,,,,,,,,3,,,61,64
342710,note_on,42,0,3,,,,,,,,,2,,,81,62
342711,note_on,43,0,5,,,,,,,,,4,,,54,90
342712,note_on,44,0,6,,,,,,,,,5,,,54,90
342712,note_on,42,0,8,,,,,,,,,7,,,54,127
342843,note_on,134,0,2,,,,,,,,,1,,,81,0
342843,note_on,132,0,5,,,,,,,,,4,,,54,0
342843,note_on,133,0,3,,,,,,,,,2,,,81,0
342843,note_on,135,0,1,,,,,,,,,0,,,81,0
342843,note_on,133,0,4,,,,,,,,,3,,,61,0
342844,note_on,132,0,6,,,,,,,,,5,,,54,0
342844,note_on,132,0,8,,,,,,,,,7,,,54,0
342888,note_on,45,0,3,,,,,,,,,2,,,78,62
342888,note_on,44,0,6,,,,,,,,,5,,,42,90
342888,note_on,45,0,5,,,,,,,,,4,,,42,90
342888,note_on,45,0,4,,,,,,,,,3,,,69,64
342888,note_on,45,0,2,,,,,,,,,1,,,78,64
342888,note_on,45,0,1,,,,,,,,,0,,,78,127
342889,note_on,45,0,8,,,,,,,,,7,,,42,127
342998,note_on,0,0,7,,,,,,,,,6,,,69,0
342998,note_on,310,0,7,,,,,,,,,6,,,66,0
343001,note_on,3,0,7,,,,,,,,,6,,,61,0
343020,note_on,132,0,1,,,,,,,,,0,,,78,0
343020,note_on,132,0,2,,,,,,,,,1,,,78,0
343024,note_on,136,0,6,,,,,,,,,5,,,42,0
343024,note_on,136,0,3,,,,,,,,,2,,,78,0
343024,note_on,136,0,4,,,,,,,,,3,,,69,0
343024,note_on,136,0,5,,,,,,,,,4,,,42,0
343024,note_on,135,0,8,,,,,,,,,7,,,42,0
343041,note_on,40,0,7,,,,,,,,,6,,,68,127
343041,note_on,0,0,7,,,,,,,,,6,,,62,127
343064,note_on,44,0,2,,,,,,,,,1,,,80,64
343064,note_on,44,0,1,,,,,,,,,0,,,80,127
343064,note_on,40,0,3,,,,,,,,,2,,,80,62
343065,note_on,41,0,4,,,,,,,,,3,,,62,64
343066,note_on,42,0,5,,,,,,,,,4,,,47,90
343066,note_on,42,0,6,,,,,,,,,5,,,47,90
343067,note_on,43,0,8,,,,,,,,,7,,,47,127
343178,note_on,137,0,7,,,,,,,,,6,,,62,0
343193,note_on,129,0,1,,,,,,,,,0,,,80,0
343194,note_on,130,0,2,,,,,,,,,1,,,80,0
343195,note_on,131,0,3,,,,,,,,,2,,,80,0
343196,note_on,131,0,4,,,,,,,,,3,,,62,0
343196,note_on,130,0,5,,,,,,,,,4,,,47,0
343197,note_on,130,0,8,,,,,,,,,7,,,47,0
343197,note_on,131,0,6,,,,,,,,,5,,,47,0
343217,note_on,0,0,7,,,,,,,,,6,,,61,127
343217,note_on,39,0,7,,,,,,,,,6,,,65,127
343241,note_on,48,0,1,,,,,,,,,0,,,77,127
343242,note_on,47,0,3,,,,,,,,,2,,,77,63
343242,note_on,48,0,2,,,,,,,,,1,,,77,64
343243,note_on,47,0,5,,,,,,,,,4,,,49,90
343243,note_on,47,0,4,,,,,,,,,3,,,56,64
343244,note_on,47,0,8,,,,,,,,,7,,,49,127
343244,note_on,47,0,6,,,,,,,,,5,,,49,90
343351,note_on,134,0,7,,,,,,,,,6,,,61,0
343354,note_on,3,0,7,,,,,,,,,6,,,65,0
343355,note_on,1,0,7,,,,,,,,,6,,,68,0
343375,note_on,133,0,2,,,,,,,,,1,,,77,0
343375,note_on,134,0,1,,,,,,,,,0,,,77,0
343379,note_on,136,0,4,,,,,,,,,3,,,56,0
343379,note_on,136,0,5,,,,,,,,,4,,,49,0
343379,note_on,135,0,8,,,,,,,,,7,,,49,0
343379,note_on,135,0,6,,,,,,,,,5,,,49,0
343379,note_on,137,0,3,,,,,,,,,2,,,77,0
343396,note_on,0,0,7,,,,,,,,,6,,,57,127
343396,note_on,41,0,7,,,,,,,,,6,,,66,127
343396,note_on,0,0,7,,,,,,,,,6,,,61,127
343419,note_on,44,0,2,,,,,,,,,1,,,78,64
343419,note_on,44,0,1,,,,,,,,,0,,,78,127
343421,note_on,42,0,3,,,,,,,,,2,,,78,63
343423,note_on,44,0,4,,,,,,,,,3,,,57,64
343423,note_on,44,0,8,,,,,,,,,7,,,42,127
343423,note_on,44,0,5,,,,,,,,,4,,,42,90
343423,note_on,44,0,6,,,,,,,,,5,,,42,90
343751,note_on,355,0,7,,,,,,,,,6,,,57,0
343752,note_on,1,0,7,,,,,,,,,6,,,61,0
343755,note_on,3,0,7,,,,,,,,,6,,,66,0
343774,note_on,355,0,2,,,,,,,,,1,,,78,0
343774,note_on,355,0,1,,,,,,,,,0,,,78,0
343774,note_on,351,0,4,,,,,,,,,3,,,57,0
343774,note_on,353,0,3,,,,,,,,,2,,,78,0
343775,note_on,352,0,5,,,,,,,,,4,,,42,0
343776,note_on,353,0,6,,,,,,,,,5,,,42,0
343776,note_on,353,0,8,,,,,,,,,7,,,42,0
343951,note_on,177,0,2,,,,,,,,,1,,,57,65
343951,note_on,177,0,1,,,,,,,,,0,,,81,127
343954,note_on,180,0,4,,,,,,,,,3,,,57,64
343954,note_on,180,0,3,,,,,,,,,2,,,57,63
344081,note_on,130,0,1,,,,,,,,,0,,,81,0
344082,note_on,131,0,2,,,,,,,,,1,,,57,0
344083,note_on,129,0,3,,,,,,,,,2,,,57,0
344084,note_on,130,0,4,,,,,,,,,3,,,57,0
344125,note_on,43,0,2,,,,,,,,,1,,,57,65
344125,note_on,44,0,1,,,,,,,,,0,,,85,127
344126,note_on,43,0,3,,,,,,,,,2,,,57,63
344127,note_on,43,0,4,,,,,,,,,3,,,57,64
344262,note_on,137,0,2,,,,,,,,,1,,,57,0
344262,note_on,136,0,3,,,,,,,,,2,,,57,0
344262,note_on,135,0,4,,,,,,,,,3,,,57,0
344262,note_on,137,0,1,,,,,,,,,0,,,85,0
344307,note_on,45,0,3,,,,,,,,,2,,,59,63
344307,note_on,45,0,2,,,,,,,,,1,,,59,65
344307,note_on,45,0,1,,,,,,,,,0,,,83,127
344307,note_on,45,0,4,,,,,,,,,3,,,59,64
344391,note_on,84,0,1,,,,,,,,,0,,,83,0
344394,note_on,3,0,1,,,,,,,,,0,,,81,127
344439,note_on,132,0,2,,,,,,,,,1,,,59,0
344439,note_on,132,0,4,,,,,,,,,3,,,59,0
344439,note_on,132,0,3,,,,,,,,,2,,,59,0
344483,note_on,44,0,4,,,,,,,,,3,,,61,64
344483,note_on,89,0,1,,,,,,,,,0,,,81,0
344483,note_on,0,0,1,,,,,,,,,0,,,88,127
344483,note_on,44,0,3,,,,,,,,,2,,,61,63
344483,note_on,44,0,2,,,,,,,,,1,,,61,65
344617,note_on,134,0,3,,,,,,,,,2,,,61,0
344617,note_on,134,0,2,,,,,,,,,1,,,61,0
344617,note_on,134,0,1,,,,,,,,,0,,,88,0
344617,note_on,134,0,4,,,,,,,,,3,,,61,0
344658,note_on,41,0,1,,,,,,,,,0,,,88,127
344661,note_on,44,0,2,,,,,,,,,1,,,56,65
344661,note_on,44,0,3,,,,,,,,,2,,,56,63
344662,note_on,45,0,4,,,,,,,,,3,,,56,64
344793,note_on,132,0,3,,,,,,,,,2,,,56,0
344793,note_on,132,0,2,,,,,,,,,1,,,56,0
344793,note_on,135,0,1,,,,,,,,,0,,,88,0
344794,note_on,132,0,4,,,,,,,,,3,,,56,0
344837,note_on,44,0,3,,,,,,,,,2,,,57,63
344837,note_on,44,0,2,,,,,,,,,1,,,57,65
344837,note_on,44,0,1,,,,,,,,,0,,,85,127
344838,note_on,44,0,4,,,,,,,,,3,,,57,64
344970,note_on,133,0,1,,,,,,,,,0,,,85,0
344971,note_on,134,0,2,,,,,,,,,1,,,57,0
344971,note_on,134,0,3,,,,,,,,,2,,,57,0
344973,note_on,135,0,4,,,,,,,,,3,,,57,0
345014,note_on,43,0,2,,,,,,,,,1,,,59,65
345014,note_on,44,0,1,,,,,,,,,0,,,83,127
345017,note_on,44,0,4,,,,,,,,,3,,,59,64
345017,note_on,46,0,3,,,,,,,,,2,,,59,63
345100,note_on,86,0,1,,,,,,,,,0,,,83,0
345103,note_on,3,0,1,,,,,,,,,0,,,81,127
345146,note_on,132,0,2,,,,,,,,,1,,,59,0
345146,note_on,129,0,3,,,,,,,,,2,,,59,0
345147,note_on,130,0,4,,,,,,,,,3,,,59,0
345188,note_on,85,0,1,,,,,,,,,0,,,81,0
345192,note_on,46,0,3,,,,,,,,,2,,,61,63
345192,note_on,46,0,2,,,,,,,,,1,,,61,65
345192,note_on,4,0,1,,,,,,,,,0,,,88,127
345193,note_on,46,0,4,,,,,,,,,3,,,61,64
345324,note_on,132,0,1,,,,,,,,,0,,,88,0
345325,note_on,133,0,3,,,,,,,,,2,,,61,0
345325,note_on,133,0,2,,,,,,,,,1,,,61,0
345327,note_on,134,0,4,,,,,,,,,3,,,61,0
345370,note_on,45,0,2,,,,,,,,,1,,,56,65
345370,note_on,46,0,1,,,,,,,,,0,,,88,127
345370,note_on,43,0,4,,,,,,,,,3,,,56,64
345370,note_on,45,0,3,,,,,,,,,2,,,56,63
345501,note_on,131,0,2,,,,,,,,,1,,,56,0
345501,note_on,131,0,1,,,,,,,,,0,,,88,0
345501,note_on,131,0,4,,,,,,,,,3,,,56,0
345501,note_on,131,0,3,,,,,,,,,2,,,56,0
345546,note_on,45,0,1,,,,,,,,,0,,,85,127
345547,note_on,46,0,2,,,,,,,,,1,,,57,65
345548,note_on,47,0,3,,,,,,,,,2,,,57,63
345548,note_on,47,0,4,,,,,,,,,3,,,57,64
345679,note_on,131,0,3,,,,,,,,,2,,,57,0
345679,note_on,133,0,1,,,,,,,,,0,,,85,0
345679,note_on,132,0,2,,,,,,,,,1,,,57,0
345680,note_on,132,0,4,,,,,,,,,3,,,57,0
345723,note_on,44,0,2,,,,,,,,,1,,,69,65
345723,note_on,44,0,1,,,,,,,,,0,,,83,127
345725,note_on,46,0,3,,,,,,,,,2,,,69,63
345725,note_on,45,0,4,,,,,,,,,3,,,69,64
345809,note_on,86,0,1,,,,,,,,,0,,,83,0
345812,note_on,3,0,1,,,,,,,,,0,,,81,127
345857,note_on,132,0,4,,,,,,,,,3,,,69,0
345857,note_on,134,0,2,,,,,,,,,1,,,69,0
345857,note_on,132,0,3,,,,,,,,,2,,,69,0
345899,note_on,87,0,1,,,,,,,,,0,,,81,0
345901,note_on,44,0,3,,,,,,,,,2,,,71,63
345901,note_on,2,0,1,,,,,,,,,0,,,86,127
345901,note_on,44,0,4,,,,,,,,,3,,,71,64
345901,note_on,44,0,2,,,,,,,,,1,,,71,65
346036,note_on,135,0,1,,,,,,,,,0,,,86,0
346036,note_on,135,0,4,,,,,,,,,3,,,71,0
346036,note_on,135,0,2,,,,,,,,,1,,,71,0
346036,note_on,135,0,3,,,,,,,,,2,,,71,0
346079,note_on,43,0,1,,,,,,,,,0,,,85,127
346079,note_on,43,0,2,,,,,,,,,1,,,69,65
346079,note_on,43,0,4,,,,,,,,,3,,,69,64
346079,note_on,43,0,3,,,,,,,,,2,,,69,63
346212,note_on,133,0,2,,,,,,,,,1,,,69,0
346212,note_on,133,0,4,,,,,,,,,3,,,69,0
346212,note_on,133,0,3,,,,,,,,,2,,,69,0
346212,note_on,133,0,1,,,,,,,,,0,,,85,0
346256,note_on,44,0,2,,,,,,,,,1,,,64,65
346256,note_on,44,0,4,,,,,,,,,3,,,64,64
346256,note_on,44,0,3,,,,,,,,,2,,,64,63
346256,note_on,44,0,1,,,,,,,,,0,,,83,127
346610,note_on,354,0,1,,,,,,,,,0,,,83,0
346610,note_on,354,0,4,,,,,,,,,3,,,64,0
346610,note_on,354,0,3,,,,,,,,,2,,,64,0
346610,note_on,354,0,2,,,,,,,,,1,,,64,0
346787,note_on,177,0,1,,,,,,,,,0,,,69,127
346789,note_on,179,0,4,,,,,,,,,3,,,57,64
346789,note_on,179,0,3,,,,,,,,,2,,,57,63
346789,note_on,179,0,2,,,,,,,,,1,,,57,65
346920,note_on,133,0,1,,,,,,,,,0,,,69,0
346920,note_on,131,0,2,,,,,,,,,1,,,57,0
346922,note_on,133,0,4,,,,,,,,,3,,,57,0
346922,note_on,133,0,3,,,,,,,,,2,,,57,0
346965,note_on,43,0,4,,,,,,,,,3,,,57,64
346965,note_on,43,0,3,,,,,,,,,2,,,57,64
346965,note_on,45,0,1,,,,,,,,,0,,,73,127
346965,note_on,45,0,2,,,,,,,,,1,,,57,65
347098,note_on,133,0,3,,,,,,,,,2,,,57,0
347098,note_on,133,0,2,,,,,,,,,1,,,57,0
347098,note_on,133,0,1,,,,,,,,,0,,,73,0
347098,note_on,133,0,4,,,,,,,,,3,,,57,0
347142,note_on,44,0,2,,,,,,,,,1,,,59,65
347142,note_on,44,0,1,,,,,,,,,0,,,71,127
347142,note_on,44,0,4,,,,,,,,,3,,,59,64
347142,note_on,44,0,3,,,,,,,,,2,,,59,64
347228,note_on,86,0,1,,,,,,,,,0,,,71,0
347228,note_on,0,0,1,,,,,,,,,0,,,69,127
347275,note_on,133,0,2,,,,,,,,,1,,,59,0
347275,note_on,133,0,4,,,,,,,,,3,,,59,0
347275,note_on,133,0,3,,,,,,,,,2,,,59,0
347314,note_on,86,0,1,,,,,,,,,0,,,69,0
347320,note_on,45,0,4,,,,,,,,,3,,,61,64
347320,note_on,45,0,2,,,,,,,,,1,,,61,65
347320,note_on,6,0,1,,,,,,,,,0,,,76,127
347320,note_on,45,0,3,,,,,,,,,2,,,61,64
347451,note_on,131,0,1,,,,,,,,,0,,,76,0
347452,note_on,132,0,3,,,,,,,,,2,,,61,0
347452,note_on,132,0,2,,,,,,,,,1,,,61,0
347452,note_on,132,0,4,,,,,,,,,3,,,61,0
347496,note_on,45,0,1,,,,,,,,,0,,,76,127
347497,note_on,45,0,3,,,,,,,,,2,,,56,64
347497,note_on,45,0,2,,,,,,,,,1,,,56,65
347497,note_on,45,0,4,,,,,,,,,3,,,56,64
347629,note_on,132,0,2,,,,,,,,,1,,,56,0
347629,note_on,133,0,1,,,,,,,,,0,,,76,0
347631,note_on,134,0,4,,,,,,,,,3,,,56,0
347631,note_on,134,0,3,,,,,,,,,2,,,56,0
347674,note_on,45,0,2,,,,,,,,,1,,,57,65
347674,note_on,43,0,3,,,,,,,,,2,,,57,64
347674,note_on,45,0,1,,,,,,,,,0,,,73,127
347676,note_on,45,0,4,,,,,,,,,3,,,57,64
347807,note_on,133,0,1,,,,,,,,,0,,,73,0
347807,note_on,133,0,2,,,,,,,,,1,,,57,0
347809,note_on,135,0,3,,,,,,,,,2,,,57,0
347809,note_on,133,0,4,,,,,,,,,3,,,57,0
347851,note_on,44,0,1,,,,,,,,,0,,,71,127
347851,note_on,44,0,2,,,,,,,,,1,,,59,66
347852,note_on,43,0,4,,,,,,,,,3,,,59,64
347852,note_on,43,0,3,,,,,,,,,2,,,59,64
347939,note_on,0,0,1,,,,,,,,,0,,,69,127
347939,note_on,88,0,1,,,,,,,,,0,,,71,0
347984,note_on,133,0,2,,,,,,,,,1,,,59,0
347984,note_on,132,0,4,,,,,,,,,3,,,59,0
347984,note_on,132,0,3,,,,,,,,,2,,,59,0
348026,note_on,87,0,1,,,,,,,,,0,,,69,0
348029,note_on,45,0,3,,,,,,,,,2,,,61,64
348029,note_on,45,0,2,,,,,,,,,1,,,61,66
348029,note_on,3,0,1,,,,,,,,,0,,,76,127
348030,note_on,46,0,4,,,,,,,,,3,,,61,64
348164,note_on,135,0,2,,,,,,,,,1,,,61,0
348164,note_on,135,0,3,,,,,,,,,2,,,61,0
348164,note_on,134,0,4,,,,,,,,,3,,,61,0
348164,note_on,135,0,1,,,,,,,,,0,,,76,0
348204,note_on,40,0,1,,,,,,,,,0,,,76,127
348205,note_on,41,0,3,,,,,,,,,2,,,56,64
348205,note_on,41,0,4,,,,,,,,,3,,,56,64
348205,note_on,41,0,2,,,,,,,,,1,,,56,66
348337,note_on,133,0,1,,,,,,,,,0,,,76,0
348338,note_on,133,0,2,,,,,,,,,1,,,56,0
348338,note_on,133,0,3,,,,,,,,,2,,,56,0
348339,note_on,134,0,4,,,,,,,,,3,,,56,0
348381,note_on,43,0,2,,,,,,,,,1,,,57,66
348381,note_on,44,0,1,,,,,,,,,0,,,73,127
348383,note_on,44,0,4,,,,,,,,,3,,,57,64
348383,note_on,45,0,3,,,,,,,,,2,,,57,64
348516,note_on,135,0,1,,,,,,,,,0,,,73,0
348516,note_on,135,0,2,,,,,,,,,1,,,57,0
348518,note_on,135,0,3,,,,,,,,,2,,,57,0
348518,note_on,135,0,4,,,,,,,,,3,,,57,0
348562,note_on,44,0,3,,,,,,,,,2,,,69,64
348562,note_on,46,0,1,,,,,,,,,0,,,71,127
348562,note_on,46,0,2,,,,,,,,,1,,,69,66
348562,note_on,44,0,4,,,,,,,,,3,,,69,64
348646,note_on,84,0,1,,,,,,,,,0,,,71,0
348648,note_on,2,0,1,,,,,,,,,0,,,69,127
348692,note_on,130,0,3,,,,,,,,,2,,,69,0
348692,note_on,130,0,2,,,,,,,,,1,,,69,0
348694,note_on,132,0,4,,,,,,,,,3,,,69,0
348735,note_on,87,0,1,,,,,,,,,0,,,69,0
348739,note_on,47,0,2,,,,,,,,,1,,,71,66
348739,note_on,4,0,1,,,,,,,,,0,,,74,127
348739,note_on,45,0,4,,,,,,,,,3,,,71,64
348739,note_on,47,0,3,,,,,,,,,2,,,71,64
348870,note_on,131,0,2,,,,,,,,,1,,,71,0
348870,note_on,131,0,1,,,,,,,,,0,,,74,0
348872,note_on,133,0,4,,,,,,,,,3,,,71,0
348872,note_on,133,0,3,,,,,,,,,2,,,71,0
348915,note_on,45,0,2,,,,,,,,,1,,,69,66
348915,note_on,45,0,1,,,,,,,,,0,,,73,127
348915,note_on,43,0,3,,,,,,,,,2,,,69,64
348916,note_on,44,0,4,,,,,,,,,3,,,69,64
349048,note_on,132,0,4,,,,,,,,,3,,,69,0
349048,note_on,133,0,2,,,,,,,,,1,,,69,0
349048,note_on,133,0,3,,,,,,,,,2,,,69,0
349048,note_on,133,0,1,,,,,,,,,0,,,73,0
349068,note_on,5313,0,7,,,,,,,,,6,,,68,127
349068,note_on,0,0,7,,,,,,,,,6,,,59,127
349068,note_on,0,0,7,,,,,,,,,6,,,64,127
349092,note_on,44,0,2,,,,,,,,,1,,,64,66
349092,note_on,44,0,1,,,,,,,,,0,,,71,127
349092,note_on,44,0,3,,,,,,,,,2,,,64,64
349092,note_on,44,0,4,,,,,,,,,3,,,64,64
349094,note_on,5318,0,8,,,,,,,,,7,,,52,127
349094,program_change,5319,0,5,,,,,,,,42,4,,,,
349095,note_on,1,0,5,,,,,,,,,4,,,52,90
349224,note_on,130,0,8,,,,,,,,,7,,,52,0
349224,note_on,129,0,5,,,,,,,,,4,,,52,0
349268,note_on,44,0,5,,,,,,,,,4,,,50,90
349268,note_on,44,0,8,,,,,,,,,7,,,50,127
349379,note_on,311,0,7,,,,,,,,,6,,,59,0
349381,note_on,2,0,7,,,,,,,,,6,,,64,0
349382,note_on,1,0,7,,,,,,,,,6,,,68,0
349400,note_on,132,0,5,,,,,,,,,4,,,50,0
349400,note_on,132,0,8,,,,,,,,,7,,,50,0
349421,note_on,39,0,7,,,,,,,,,6,,,69,127
349421,note_on,0,0,7,,,,,,,,,6,,,64,127
349445,note_on,353,0,1,,,,,,,,,0,,,71,0
349446,note_on,354,0,2,,,,,,,,,1,,,64,0
349448,note_on,48,0,5,,,,,,,,,4,,,49,90
349448,note_on,356,0,3,,,,,,,,,2,,,64,0
349448,note_on,356,0,4,,,,,,,,,3,,,64,0
349449,note_on,49,0,8,,,,,,,,,7,,,49,127
349579,note_on,130,0,8,,,,,,,,,7,,,49,0
349579,note_on,131,0,5,,,,,,,,,4,,,49,0
349623,note_on,44,0,5,,,,,,,,,4,,,45,90
349623,note_on,178,0,1,,,,,,,,,0,,,76,127
349625,note_on,46,0,8,,,,,,,,,7,,,45,127
349734,note_on,313,0,7,,,,,,,,,6,,,64,0
349735,note_on,1,0,7,,,,,,,,,6,,,69,0
349754,note_on,131,0,1,,,,,,,,,0,,,76,0
349756,note_on,131,0,8,,,,,,,,,7,,,45,0
349756,note_on,133,0,5,,,,,,,,,4,,,45,0
349777,note_on,0,0,7,,,,,,,,,6,,,64,127
349777,note_on,42,0,7,,,,,,,,,6,,,69,127
349800,note_on,46,0,1,,,,,,,,,0,,,81,127
349801,note_on,45,0,8,,,,,,,,,7,,,49,127
349801,note_on,45,0,5,,,,,,,,,4,,,49,90
349889,note_on,89,0,1,,,,,,,,,0,,,81,0
349889,note_on,0,0,1,,,,,,,,,0,,,80,127
349975,note_on,86,0,1,,,,,,,,,0,,,80,0
349978,note_on,3,0,1,,,,,,,,,0,,,78,127
350062,note_on,84,0,1,,,,,,,,,0,,,78,0
350066,note_on,4,0,1,,,,,,,,,0,,,76,127
350110,note_on,309,0,8,,,,,,,,,7,,,49,0
350110,note_on,309,0,5,,,,,,,,,4,,,49,0
350152,note_on,86,0,1,,,,,,,,,0,,,76,0
350155,note_on,45,0,5,,,,,,,,,4,,,49,90
350155,note_on,3,0,1,,,,,,,,,0,,,74,127
350156,note_on,46,0,8,,,,,,,,,7,,,49,127
350240,note_on,85,0,1,,,,,,,,,0,,,74,0
350244,note_on,4,0,1,,,,,,,,,0,,,73,127
350329,note_on,85,0,1,,,,,,,,,0,,,73,0
350333,note_on,4,0,1,,,,,,,,,0,,,71,127
350416,note_on,83,0,1,,,,,,,,,0,,,71,0
350421,note_on,5,0,1,,,,,,,,,0,,,69,127
350442,note_on,665,0,7,,,,,,,,,6,,,64,0
350443,note_on,1,0,7,,,,,,,,,6,,,69,0
350466,note_on,311,0,5,,,,,,,,,4,,,49,0
350466,note_on,310,0,8,,,,,,,,,7,,,49,0
350486,note_on,43,0,7,,,,,,,,,6,,,66,127
350486,note_on,0,0,7,,,,,,,,,6,,,62,127
350486,note_on,0,0,7,,,,,,,,,6,,,57,127
350508,note_on,87,0,1,,,,,,,,,0,,,69,0
350509,note_on,1,0,1,,,,,,,,,0,,,74,127
350509,note_on,43,0,5,,,,,,,,,4,,,50,90
350512,note_on,46,0,8,,,,,,,,,7,,,50,127
350598,note_on,89,0,1,,,,,,,,,0,,,74,0
350598,note_on,0,0,1,,,,,,,,,0,,,73,127
350684,note_on,86,0,1,,,,,,,,,0,,,73,0
350687,note_on,3,0,1,,,,,,,,,0,,,71,127
350774,note_on,87,0,1,,,,,,,,,0,,,71,0
350775,note_on,1,0,1,,,,,,,,,0,,,69,127
350821,note_on,309,0,8,,,,,,,,,7,,,50,0
350821,note_on,312,0,5,,,,,,,,,4,,,50,0
350861,note_on,86,0,1,,,,,,,,,0,,,69,0
350863,note_on,2,0,1,,,,,,,,,0,,,68,127
350863,note_on,42,0,5,,,,,,,,,4,,,50,90
350864,note_on,43,0,8,,,,,,,,,7,,,50,127
350950,note_on,87,0,1,,,,,,,,,0,,,68,0
350952,note_on,2,0,1,,,,,,,,,0,,,66,127
351038,note_on,86,0,1,,,,,,,,,0,,,66,0
351041,note_on,3,0,1,,,,,,,,,0,,,64,127
351126,note_on,85,0,1,,,,,,,,,0,,,64,0
351130,note_on,4,0,1,,,,,,,,,0,,,61,127
351150,note_on,664,0,7,,,,,,,,,6,,,57,0
351154,note_on,4,0,7,,,,,,,,,6,,,62,0
351156,note_on,2,0,7,,,,,,,,,6,,,66,0
351174,note_on,310,0,8,,,,,,,,,7,,,50,0
351174,note_on,311,0,5,,,,,,,,,4,,,50,0
351197,note_on,0,0,7,,,,,,,,,6,,,59,127
351197,note_on,41,0,7,,,,,,,,,6,,,69,127
351197,note_on,0,0,7,,,,,,,,,6,,,66,127
351216,note_on,86,0,1,,,,,,,,,0,,,61,0
351220,note_on,46,0,8,,,,,,,,,7,,,51,127
351220,note_on,4,0,1,,,,,,,,,0,,,83,127
351220,note_on,46,0,5,,,,,,,,,4,,,51,90
351305,note_on,85,0,1,,,,,,,,,0,,,83,0
351307,note_on,2,0,1,,,,,,,,,0,,,81,127
351394,note_on,87,0,1,,,,,,,,,0,,,81,0
351396,note_on,2,0,1,,,,,,,,,0,,,80,127
351482,note_on,86,0,1,,,,,,,,,0,,,80,0
351485,note_on,3,0,1,,,,,,,,,0,,,78,127
351529,note_on,309,0,8,,,,,,,,,7,,,51,0
351529,note_on,309,0,5,,,,,,,,,4,,,51,0
351571,note_on,86,0,1,,,,,,,,,0,,,78,0
351575,note_on,46,0,8,,,,,,,,,7,,,51,127
351575,note_on,4,0,1,,,,,,,,,0,,,76,127
351575,note_on,46,0,5,,,,,,,,,4,,,51,90
351658,note_on,83,0,1,,,,,,,,,0,,,76,0
351662,note_on,4,0,1,,,,,,,,,0,,,75,127
351749,note_on,87,0,1,,,,,,,,,0,,,75,0
351749,note_on,0,0,1,,,,,,,,,0,,,73,127
351836,note_on,87,0,1,,,,,,,,,0,,,73,0
351837,note_on,1,0,1,,,,,,,,,0,,,71,127
351860,note_on,0,0,7,,,,,,,,,6,,,66,0
351860,note_on,663,0,7,,,,,,,,,6,,,59,0
351865,note_on,5,0,7,,,,,,,,,6,,,69,0
351883,note_on,308,0,8,,,,,,,,,7,,,51,0
351883,note_on,308,0,5,,,,,,,,,4,,,51,0
351906,note_on,0,0,7,,,,,,,,,6,,,59,127
351906,note_on,0,0,7,,,,,,,,,6,,,64,127
351906,note_on,41,0,7,,,,,,,,,6,,,68,127
351924,note_on,87,0,1,,,,,,,,,0,,,71,0
351928,note_on,4,0,1,,,,,,,,,0,,,76,127
351928,note_on,45,0,8,,,,,,,,,7,,,52,127
351928,note_on,45,0,5,,,,,,,,,4,,,52,90
352013,note_on,85,0,1,,,,,,,,,0,,,76,0
352016,note_on,3,0,1,,,,,,,,,0,,,75,127
352104,note_on,88,0,1,,,,,,,,,0,,,75,0
352105,note_on,1,0,1,,,,,,,,,0,,,73,127
352191,note_on,86,0,1,,,,,,,,,0,,,73,0
352193,note_on,2,0,1,,,,,,,,,0,,,71,127
352237,note_on,309,0,5,,,,,,,,,4,,,52,0
352237,note_on,309,0,8,,,,,,,,,7,,,52,0
352277,note_on,84,0,1,,,,,,,,,0,,,71,0
352282,note_on,5,0,1,,,,,,,,,0,,,69,127
352283,note_on,46,0,5,,,,,,,,,4,,,52,90
352283,note_on,46,0,8,,,,,,,,,7,,,52,127
352368,note_on,86,0,1,,,,,,,,,0,,,69,0
352369,note_on,1,0,1,,,,,,,,,0,,,68,127
352457,note_on,88,0,1,,,,,,,,,0,,,68,0
352459,note_on,2,0,1,,,,,,,,,0,,,66,127
352547,note_on,88,0,1,,,,,,,,,0,,,66,0
352548,note_on,1,0,1,,,,,,,,,0,,,64,127
352570,note_on,664,0,7,,,,,,,,,6,,,59,0
352572,note_on,0,0,7,,,,,,,,,6,,,68,0
352572,note_on,2,0,7,,,,,,,,,6,,,64,0
352594,note_on,311,0,8,,,,,,,,,7,,,52,0
352594,note_on,311,0,5,,,,,,,,,4,,,52,0
352614,note_on,42,0,7,,,,,,,,,6,,,61,127
352615,note_on,1,0,7,,,,,,,,,6,,,71,127
352615,note_on,0,0,7,,,,,,,,,6,,,68,127
352634,note_on,86,0,1,,,,,,,,,0,,,64,0
352636,note_on,2,0,1,,,,,,,,,0,,,85,127
352636,note_on,42,0,5,,,,,,,,,4,,,53,90
352636,note_on,42,0,8,,,,,,,,,7,,,53,127
352721,note_on,85,0,1,,,,,,,,,0,,,85,0
352724,note_on,3,0,1,,,,,,,,,0,,,83,127
352811,note_on,87,0,1,,,,,,,,,0,,,83,0
352814,note_on,3,0,1,,,,,,,,,0,,,81,127
352902,note_on,88,0,1,,,,,,,,,0,,,81,0
352902,note_on,0,0,1,,,,,,,,,0,,,80,127
352945,note_on,309,0,5,,,,,,,,,4,,,53,0
352945,note_on,309,0,8,,,,,,,,,7,,,53,0
352987,note_on,85,0,1,,,,,,,,,0,,,80,0
352991,note_on,46,0,5,,,,,,,,,4,,,53,90
352991,note_on,4,0,1,,,,,,,,,0,,,78,127
352993,note_on,48,0,8,,,,,,,,,7,,,53,127
353078,note_on,87,0,1,,,,,,,,,0,,,78,0
353080,note_on,2,0,1,,,,,,,,,0,,,77,127
353166,note_on,86,0,1,,,,,,,,,0,,,77,0
353169,note_on,3,0,1,,,,,,,,,0,,,75,127
353254,note_on,85,0,1,,,,,,,,,0,,,75,0
353257,note_on,3,0,1,,,,,,,,,0,,,73,127
353276,note_on,661,0,7,,,,,,,,,6,,,61,0
353279,note_on,3,0,7,,,,,,,,,6,,,68,0
353282,note_on,3,0,7,,,,,,,,,6,,,71,0
353299,note_on,308,0,5,,,,,,,,,4,,,53,0
353300,note_on,307,0,8,,,,,,,,,7,,,53,0
353323,note_on,0,0,7,,,,,,,,,6,,,61,127
353323,note_on,0,0,7,,,,,,,,,6,,,66,127
353323,note_on,41,0,7,,,,,,,,,6,,,69,127
353344,note_on,87,0,1,,,,,,,,,0,,,73,0
353347,note_on,47,0,8,,,,,,,,,7,,,54,127
353347,note_on,3,0,1,,,,,,,,,0,,,78,127
353347,note_on,48,0,5,,,,,,,,,4,,,54,90
353434,note_on,0,0,1,,,,,,,,,0,,,76,127
353434,note_on,87,0,1,,,,,,,,,0,,,78,0
353520,note_on,86,0,1,,,,,,,,,0,,,76,0
353521,note_on,1,0,1,,,,,,,,,0,,,74,127
353607,note_on,86,0,1,,,,,,,,,0,,,74,0
353611,note_on,4,0,1,,,,,,,,,0,,,73,127
353655,note_on,308,0,5,,,,,,,,,4,,,54,0
353655,note_on,308,0,8,,,,,,,,,7,,,54,0
353698,note_on,87,0,1,,,,,,,,,0,,,73,0
353701,note_on,3,0,1,,,,,,,,,0,,,71,127
353701,note_on,46,0,5,,,,,,,,,4,,,54,90
353701,note_on,46,0,8,,,,,,,,,7,,,54,127
353784,note_on,83,0,1,,,,,,,,,0,,,71,0
353787,note_on,3,0,1,,,,,,,,,0,,,69,127
353875,note_on,88,0,1,,,,,,,,,0,,,69,0
353878,note_on,3,0,1,,,,,,,,,0,,,68,127
353963,note_on,85,0,1,,,,,,,,,0,,,68,0
353967,note_on,4,0,1,,,,,,,,,0,,,66,127
353988,note_on,665,0,7,,,,,,,,,6,,,61,0
353990,note_on,2,0,7,,,,,,,,,6,,,66,0
353991,note_on,1,0,7,,,,,,,,,6,,,69,0
354011,note_on,310,0,8,,,,,,,,,7,,,54,0
354011,note_on,310,0,5,,,,,,,,,4,,,54,0
354031,note_on,0,0,7,,,,,,,,,6,,,62,127
354031,note_on,0,0,7,,,,,,,,,6,,,69,127
354031,note_on,40,0,7,,,,,,,,,6,,,74,127
354055,note_on,88,0,1,,,,,,,,,0,,,66,0
354056,note_on,45,0,8,,,,,,,,,7,,,54,127
354056,note_on,45,0,5,,,,,,,,,4,,,54,90
354056,note_on,1,0,1,,,,,,,,,0,,,86,127
354143,note_on,0,0,1,,,,,,,,,0,,,85,127
354143,note_on,87,0,1,,,,,,,,,0,,,86,0
354230,note_on,87,0,1,,,,,,,,,0,,,85,0
354231,note_on,1,0,1,,,,,,,,,0,,,83,127
354316,note_on,85,0,1,,,,,,,,,0,,,83,0
354321,note_on,5,0,1,,,,,,,,,0,,,81,127
354366,note_on,310,0,8,,,,,,,,,7,,,54,0
354366,note_on,310,0,5,,,,,,,,,4,,,54,0
354408,note_on,87,0,1,,,,,,,,,0,,,81,0
354411,note_on,3,0,1,,,,,,,,,0,,,80,127
354411,note_on,45,0,5,,,,,,,,,4,,,54,90
354411,note_on,45,0,8,,,,,,,,,7,,,54,127
354494,note_on,83,0,1,,,,,,,,,0,,,80,0
354498,note_on,4,0,1,,,,,,,,,0,,,78,127
354583,note_on,85,0,1,,,,,,,,,0,,,78,0
354586,note_on,3,0,1,,,,,,,,,0,,,76,127
354672,note_on,86,0,1,,,,,,,,,0,,,76,0
354675,note_on,3,0,1,,,,,,,,,0,,,74,127
354697,note_on,666,0,7,,,,,,,,,6,,,62,0
354700,note_on,3,0,7,,,,,,,,,6,,,69,0
354701,note_on,1,0,7,,,,,,,,,6,,,74,0
354719,note_on,308,0,5,,,,,,,,,4,,,54,0
354719,note_on,308,0,8,,,,,,,,,7,,,54,0
354740,note_on,0,0,7,,,,,,,,,6,,,71,127
354740,note_on,39,0,7,,,,,,,,,6,,,74,127
354740,note_on,0,0,7,,,,,,,,,6,,,64,127
354761,note_on,86,0,1,,,,,,,,,0,,,74,0
354764,note_on,45,0,5,,,,,,,,,4,,,56,90
354764,note_on,45,0,8,,,,,,,,,7,,,56,127
354764,note_on,3,0,1,,,,,,,,,0,,,86,127
354850,note_on,86,0,1,,,,,,,,,0,,,86,0
354852,note_on,2,0,1,,,,,,,,,0,,,85,127
354939,note_on,87,0,1,,,,,,,,,0,,,85,0
354941,note_on,2,0,1,,,,,,,,,0,,,83,127
355026,note_on,85,0,1,,,,,,,,,0,,,83,0
355029,note_on,3,0,1,,,,,,,,,0,,,81,127
355073,note_on,309,0,5,,,,,,,,,4,,,56,0
355074,note_on,310,0,8,,,,,,,,,7,,,56,0
355116,note_on,87,0,1,,,,,,,,,0,,,81,0
355119,note_on,46,0,5,,,,,,,,,4,,,56,90
355119,note_on,45,0,8,,,,,,,,,7,,,56,127
355119,note_on,3,0,1,,,,,,,,,0,,,80,127
355204,note_on,85,0,1,,,,,,,,,0,,,80,0
355204,note_on,0,0,1,,,,,,,,,0,,,78,127
355292,note_on,88,0,1,,,,,,,,,0,,,78,0
355296,note_on,4,0,1,,,,,,,,,0,,,76,127
355382,note_on,86,0,1,,,,,,,,,0,,,76,0
355382,note_on,0,0,1,,,,,,,,,0,,,74,127
355406,note_on,666,0,7,,,,,,,,,6,,,64,0
355408,note_on,2,0,7,,,,,,,,,6,,,71,0
355410,note_on,2,0,7,,,,,,,,,6,,,74,0
355429,note_on,310,0,5,,,,,,,,,4,,,56,0
355429,note_on,310,0,8,,,,,,,,,7,,,56,0
355451,note_on,0,0,7,,,,,,,,,6,,,69,127
355451,note_on,41,0,7,,,,,,,,,6,,,73,127
355451,note_on,0,0,7,,,,,,,,,6,,,64,127
355470,note_on,88,0,1,,,,,,,,,0,,,74,0
355474,note_on,4,0,1,,,,,,,,,0,,,85,127
355474,note_on,45,0,8,,,,,,,,,7,,,57,127
355474,note_on,45,0,5,,,,,,,,,4,,,57,90
355607,note_on,133,0,1,,,,,,,,,0,,,85,0
355651,note_on,44,0,1,,,,,,,,,0,,,83,127
355736,note_on,85,0,1,,,,,,,,,0,,,83,0
355738,note_on,2,0,1,,,,,,,,,0,,,81,127
355758,note_on,307,0,7,,,,,,,,,6,,,69,0
355762,note_on,4,0,7,,,,,,,,,6,,,73,0
355783,note_on,309,0,5,,,,,,,,,4,,,57,0
355784,note_on,310,0,8,,,,,,,,,7,,,57,0
355804,note_on,42,0,7,,,,,,,,,6,,,71,127
355823,note_on,85,0,1,,,,,,,,,0,,,81,0
355828,note_on,5,0,1,,,,,,,,,0,,,85,127
355828,note_on,45,0,5,,,,,,,,,4,,,56,90
355828,note_on,44,0,8,,,,,,,,,7,,,56,127
355937,note_on,133,0,7,,,,,,,,,6,,,71,0
355962,note_on,134,0,1,,,,,,,,,0,,,85,0
355962,note_on,134,0,8,,,,,,,,,7,,,56,0
355962,note_on,134,0,5,,,,,,,,,4,,,56,0
355981,note_on,44,0,7,,,,,,,,,6,,,69,127
356006,note_on,44,0,5,,,,,,,,,4,,,54,90
356006,note_on,44,0,1,,,,,,,,,0,,,86,127
356006,note_on,44,0,8,,,,,,,,,7,,,54,127
356116,note_on,135,0,7,,,,,,,,,6,,,69,0
356119,note_on,3,0,7,,,,,,,,,6,,,64,0
356139,note_on,133,0,8,,,,,,,,,7,,,54,0
356139,note_on,133,0,5,,,,,,,,,4,,,54,0
356139,note_on,133,0,1,,,,,,,,,0,,,86,0
356160,note_on,41,0,7,,,,,,,,,6,,,71,127
356160,note_on,0,0,7,,,,,,,,,6,,,64,127
356160,note_on,0,0,7,,,,,,,,,6,,,68,127
356181,note_on,42,0,1,,,,,,,,,0,,,88,127
356183,note_on,44,0,5,,,,,,,,,4,,,52,90
356184,note_on,45,0,8,,,,,,,,,7,,,52,127
356184,note_on,6738,0,2,,,,,,,,,1,,,64,65
356184,note_on,6736,0,4,,,,,,,,,3,,,64,64
356184,program_change,0,0,4,,,,,,,,41,3,,,,
356184,program_change,0,0,3,,,,,,,,40,2,,,,
356184,note_on,6736,0,3,,,,,,,,,2,,,64,64
356184,program_change,0,0,2,,,,,,,,40,1,,,,
356314,note_on,130,0,2,,,,,,,,,1,,,64,0
356315,note_on,131,0,4,,,,,,,,,3,,,64,0
356315,note_on,131,0,3,,,,,,,,,2,,,64,0
356359,note_on,45,0,2,,,,,,,,,1,,,66,65
356361,note_on,46,0,4,,,,,,,,,3,,,66,64
356361,note_on,46,0,3,,,,,,,,,2,,,66,64
356490,note_on,129,0,3,,,,,,,,,2,,,66,0
356492,note_on,131,0,4,,,,,,,,,3,,,66,0
356492,note_on,133,0,2,,,,,,,,,1,,,66,0
356513,note_on,353,0,7,,,,,,,,,6,,,64,0
356516,note_on,3,0,7,,,,,,,,,6,,,68,0
356517,note_on,1,0,7,,,,,,,,,6,,,71,0
356538,note_on,357,0,1,,,,,,,,,0,,,88,0
356538,note_on,48,0,3,,,,,,,,,2,,,68,64
356538,note_on,46,0,2,,,,,,,,,1,,,68,65
356538,note_on,46,0,4,,,,,,,,,3,,,68,64
356541,note_on,357,0,8,,,,,,,,,7,,,52,0
356541,note_on,358,0,5,,,,,,,,,4,,,52,0
356670,note_on,132,0,2,,,,,,,,,1,,,68,0
356670,note_on,132,0,3,,,,,,,,,2,,,68,0
356670,note_on,132,0,4,,,,,,,,,3,,,68,0
356714,note_on,176,0,1,,,,,,,,,0,,,88,127
356716,note_on,46,0,4,,,,,,,,,3,,,64,64
356716,note_on,46,0,2,,,,,,,,,1,,,66,65
356716,note_on,46,0,3,,,,,,,,,2,,,66,64
356847,note_on,133,0,1,,,,,,,,,0,,,88,0
356849,note_on,133,0,3,,,,,,,,,2,,,66,0
356849,note_on,133,0,4,,,,,,,,,3,,,64,0
356849,note_on,133,0,2,,,,,,,,,1,,,66,0
356894,note_on,47,0,1,,,,,,,,,0,,,86,127
356894,note_on,45,0,3,,,,,,,,,2,,,71,64
356894,note_on,45,0,2,,,,,,,,,1,,,71,65
356894,note_on,45,0,4,,,,,,,,,3,,,71,64
356978,note_on,84,0,1,,,,,,,,,0,,,86,0
356980,note_on,2,0,1,,,,,,,,,0,,,85,127
357025,note_on,131,0,2,,,,,,,,,1,,,71,0
357025,note_on,131,0,3,,,,,,,,,2,,,71,0
357025,note_on,131,0,4,,,,,,,,,3,,,71,0
357067,note_on,87,0,1,,,,,,,,,0,,,85,0
357070,note_on,45,0,4,,,,,,,,,3,,,69,64
357070,note_on,45,0,3,,,,,,,,,2,,,69,64
357070,note_on,3,0,1,,,,,,,,,0,,,83,127
357070,note_on,45,0,2,,,,,,,,,1,,,69,65
357200,note_on,130,0,2,,,,,,,,,1,,,69,0
357202,note_on,132,0,4,,,,,,,,,3,,,69,0
357202,note_on,132,0,3,,,,,,,,,2,,,69,0
357245,note_on,43,0,3,,,,,,,,,2,,,68,64
357245,note_on,45,0,2,,,,,,,,,1,,,68,65
357246,note_on,44,0,4,,,,,,,,,3,,,68,64
357379,note_on,133,0,4,,,,,,,,,3,,,68,0
357379,note_on,134,0,2,,,,,,,,,1,,,68,0
357379,note_on,134,0,3,,,,,,,,,2,,,68,0
357420,note_on,350,0,1,,,,,,,,,0,,,83,0
357423,note_on,3,0,1,,,,,,,,,0,,,81,127
357424,note_on,45,0,2,,,,,,,,,1,,,66,65
357424,note_on,45,0,4,,,,,,,,,3,,,66,64
357424,note_on,45,0,3,,,,,,,,,2,,,66,64
357557,note_on,133,0,2,,,,,,,,,1,,,66,0
357557,note_on,133,0,3,,,,,,,,,2,,,66,0
357557,note_on,134,0,1,,,,,,,,,0,,,81,0
357559,note_on,135,0,4,,,,,,,,,3,,,66,0
357601,note_on,44,0,2,,,,,,,,,1,,,64,65
357601,note_on,44,0,3,,,,,,,,,2,,,64,64
357601,note_on,44,0,1,,,,,,,,,0,,,80,127
357603,note_on,44,0,4,,,,,,,,,3,,,64,64
357687,note_on,86,0,1,,,,,,,,,0,,,80,0
357689,note_on,2,0,1,,,,,,,,,0,,,78,127
357733,note_on,132,0,2,,,,,,,,,1,,,64,0
357733,note_on,132,0,3,,,,,,,,,2,,,64,0
357733,note_on,130,0,4,,,,,,,,,3,,,64,0
357774,note_on,85,0,1,,,,,,,,,0,,,78,0
357775,note_on,1,0,1,,,,,,,,,0,,,76,127
357776,note_on,43,0,2,,,,,,,,,1,,,62,65
357776,note_on,43,0,3,,,,,,,,,2,,,62,64
357776,note_on,43,0,4,,,,,,,,,3,,,62,64
357911,note_on,135,0,3,,,,,,,,,2,,,62,0
357911,note_on,135,0,2,,,,,,,,,1,,,62,0
357911,note_on,135,0,4,,,,,,,,,3,,,62,0
357954,note_on,43,0,2,,,,,,,,,1,,,61,65
357956,note_on,45,0,3,,,,,,,,,2,,,61,64
357956,note_on,45,0,4,,,,,,,,,3,,,61,64
358088,note_on,134,0,2,,,,,,,,,1,,,61,0
358088,note_on,132,0,3,,,,,,,,,2,,,61,0
358088,note_on,132,0,4,,,,,,,,,3,,,61,0
358128,note_on,353,0,1,,,,,,,,,0,,,76,0
358133,note_on,45,0,2,,,,,,,,,1,,,57,65
358133,note_on,45,0,3,,,,,,,,,2,,,57,64
358133,note_on,5,0,1,,,,,,,,,0,,,81,127
358133,note_on,45,0,4,,,,,,,,,3,,,57,64
358263,note_on,130,0,1,,,,,,,,,0,,,81,0
358264,note_on,131,0,4,,,,,,,,,3,,,57,0
358264,note_on,131,0,3,,,,,,,,,2,,,57,0
358264,note_on,131,0,2,,,,,,,,,1,,,57,0
358308,note_on,44,0,2,,,,,,,,,1,,,64,65
358308,note_on,45,0,1,,,,,,,,,0,,,80,127
358309,note_on,45,0,3,,,,,,,,,2,,,64,64
358310,note_on,46,0,4,,,,,,,,,3,,,64,64
358394,note_on,86,0,1,,,,,,,,,0,,,80,0
358397,note_on,3,0,1,,,,,,,,,0,,,78,127
358441,note_on,133,0,2,,,,,,,,,1,,,64,0
358443,note_on,133,0,4,,,,,,,,,3,,,64,0
358443,note_on,134,0,3,,,,,,,,,2,,,64,0
358483,note_on,86,0,1,,,,,,,,,0,,,78,0
358487,note_on,46,0,2,,,,,,,,,1,,,66,65
358487,note_on,4,0,1,,,,,,,,,0,,,76,127
358487,note_on,44,0,3,,,,,,,,,2,,,66,64
358490,note_on,47,0,4,,,,,,,,,3,,,66,64
358619,note_on,132,0,2,,,,,,,,,1,,,66,0
358622,note_on,135,0,3,,,,,,,,,2,,,66,0
358622,note_on,132,0,4,,,,,,,,,3,,,66,0
358665,note_on,46,0,2,,,,,,,,,1,,,68,65
358665,note_on,43,0,3,,,,,,,,,2,,,68,64
358665,note_on,43,0,4,,,,,,,,,3,,,68,64
358797,note_on,132,0,2,,,,,,,,,1,,,68,0
358797,note_on,132,0,3,,,,,,,,,2,,,68,0
358799,note_on,134,0,4,,,,,,,,,3,,,68,0
358839,note_on,352,0,1,,,,,,,,,0,,,76,0
358842,note_on,45,0,3,,,,,,,,,2,,,64,64
358842,note_on,43,0,4,,,,,,,,,3,,,64,64
358842,note_on,45,0,2,,,,,,,,,1,,,64,65
358842,note_on,3,0,1,,,,,,,,,0,,,81,127
358975,note_on,133,0,1,,,,,,,,,0,,,81,0
358975,note_on,133,0,2,,,,,,,,,1,,,64,0
358975,note_on,133,0,4,,,,,,,,,3,,,64,0
358975,note_on,133,0,3,,,,,,,,,2,,,64,0
359019,note_on,44,0,1,,,,,,,,,0,,,73,127
359020,note_on,45,0,4,,,,,,,,,3,,,69,64
359020,note_on,45,0,2,,,,,,,,,1,,,69,65
359020,note_on,45,0,3,,,,,,,,,2,,,69,64
359152,note_on,133,0,1,,,,,,,,,0,,,73,0
359152,note_on,132,0,2,,,,,,,,,1,,,69,0
359152,note_on,132,0,4,,,,,,,,,3,,,69,0
359152,note_on,132,0,3,,,,,,,,,2,,,69,0
359197,note_on,45,0,1,,,,,,,,,0,,,71,127
359197,note_on,45,0,3,,,,,,,,,2,,,57,64
359197,note_on,45,0,2,,,,,,,,,1,,,57,65
359197,note_on,45,0,4,,,,,,,,,3,,,57,64
359283,note_on,86,0,1,,,,,,,,,0,,,71,0
359284,note_on,1,0,1,,,,,,,,,0,,,69,127
359328,note_on,131,0,3,,,,,,,,,2,,,57,0
359328,note_on,131,0,2,,,,,,,,,1,,,57,0
359329,note_on,132,0,4,,,,,,,,,3,,,57,0
359371,note_on,87,0,1,,,,,,,,,0,,,69,0
359374,note_on,3,0,1,,,,,,,,,0,,,71,127
359374,note_on,46,0,3,,,,,,,,,2,,,64,64
359374,note_on,46,0,2,,,,,,,,,1,,,64,65
359375,note_on,46,0,4,,,,,,,,,3,,,64,64
359684,note_on,310,0,1,,,,,,,,,0,,,71,0
359684,note_on,310,0,2,,,,,,,,,1,,,64,0
359684,note_on,310,0,3,,,,,,,,,2,,,64,0
359685,note_on,310,0,4,,,,,,,,,3,,,64,0
359706,note_on,3189,0,7,,,,,,,,,6,,,61,127
359728,note_on,44,0,3,,,,,,,,,2,,,57,64
359728,note_on,44,0,1,,,,,,,,,0,,,69,127
359728,note_on,44,0,2,,,,,,,,,1,,,57,65
359731,note_on,3190,0,5,,,,,,,,,4,,,45,90
359731,note_on,46,0,4,,,,,,,,,3,,,57,64
359731,note_on,3190,0,8,,,,,,,,,7,,,45,127
359860,note_on,129,0,5,,,,,,,,,4,,,45,0
359860,note_on,129,0,8,,,,,,,,,7,,,45,0
359905,note_on,45,0,5,,,,,,,,,4,,,57,90
359905,note_on,45,0,8,,,,,,,,,7,,,57,127
360013,note_on,307,0,7,,,,,,,,,6,,,61,0
360037,note_on,132,0,5,,,,,,,,,4,,,57,0
360039,note_on,134,0,8,,,,,,,,,7,,,57,0
360057,note_on,44,0,7,,,,,,,,,6,,,59,127
360081,note_on,353,0,1,,,,,,,,,0,,,69,0
360081,note_on,353,0,2,,,,,,,,,1,,,57,0
360082,note_on,354,0,3,,,,,,,,,2,,,57,0
360084,note_on,353,0,4,,,,,,,,,3,,,57,0
360084,note_on,45,0,8,,,,,,,,,7,,,56,127
360084,note_on,47,0,5,,,,,,,,,4,,,56,90
360215,note_on,131,0,5,,,,,,,,,4,,,56,0
360215,note_on,131,0,8,,,,,,,,,7,,,56,0
360260,note_on,45,0,5,,,,,,,,,4,,,52,90
360260,note_on,179,0,1,,,,,,,,,0,,,76,127
360261,note_on,46,0,8,,,,,,,,,7,,,52,127
360368,note_on,311,0,7,,,,,,,,,6,,,59,0
360393,note_on,132,0,8,,,,,,,,,7,,,52,0
360393,note_on,133,0,5,,,,,,,,,4,,,52,0
360393,note_on,133,0,1,,,,,,,,,0,,,76,0
360412,note_on,44,0,7,,,,,,,,,6,,,62,127
360435,note_on,42,0,1,,,,,,,,,0,,,74,127
360435,note_on,42,0,5,,,,,,,,,4,,,59,90
360436,note_on,43,0,8,,,,,,,,,7,,,59,127
360523,note_on,88,0,1,,,,,,,,,0,,,74,0
360525,note_on,2,0,1,,,,,,,,,0,,,73,127
360546,note_on,134,0,7,,,,,,,,,6,,,62,0
360570,note_on,134,0,8,,,,,,,,,7,,,59,0
360570,note_on,135,0,5,,,,,,,,,4,,,59,0
360589,note_on,43,0,7,,,,,,,,,6,,,61,127
360612,note_on,87,0,1,,,,,,,,,0,,,73,0
360615,note_on,45,0,8,,,,,,,,,7,,,57,127
360615,note_on,3,0,1,,,,,,,,,0,,,71,127
360615,note_on,45,0,5,,,,,,,,,4,,,57,90
360725,note_on,136,0,7,,,,,,,,,6,,,61,0
360745,note_on,130,0,5,,,,,,,,,4,,,57,0
360747,note_on,132,0,8,,,,,,,,,7,,,57,0
360767,note_on,42,0,7,,,,,,,,,6,,,59,127
360789,note_on,44,0,5,,,,,,,,,4,,,56,90
360790,note_on,43,0,8,,,,,,,,,7,,,56,127
360903,note_on,136,0,7,,,,,,,,,6,,,59,0
360923,note_on,133,0,8,,,,,,,,,7,,,56,0
360923,note_on,134,0,5,,,,,,,,,4,,,56,0
360945,note_on,42,0,7,,,,,,,,,6,,,57,127
360966,note_on,351,0,1,,,,,,,,,0,,,71,0
360968,note_on,2,0,1,,,,,,,,,0,,,69,127
360969,note_on,46,0,5,,,,,,,,,4,,,54,90
360969,note_on,46,0,8,,,,,,,,,7,,,54,127
361078,note_on,133,0,7,,,,,,,,,6,,,57,0
361100,note_on,132,0,1,,,,,,,,,0,,,69,0
361101,note_on,132,0,5,,,,,,,,,4,,,54,0
361102,note_on,133,0,8,,,,,,,,,7,,,54,0
361123,note_on,45,0,7,,,,,,,,,6,,,56,127
361146,note_on,46,0,1,,,,,,,,,0,,,68,127
361146,note_on,44,0,8,,,,,,,,,7,,,52,127
361146,note_on,45,0,5,,,,,,,,,4,,,52,90
361232,note_on,86,0,1,,,,,,,,,0,,,68,0
361234,note_on,2,0,1,,,,,,,,,0,,,66,127
361278,note_on,132,0,5,,,,,,,,,4,,,52,0
361280,note_on,134,0,8,,,,,,,,,7,,,52,0
361320,note_on,86,0,1,,,,,,,,,0,,,66,0
361324,note_on,44,0,8,,,,,,,,,7,,,50,127
361324,note_on,46,0,5,,,,,,,,,4,,,50,90
361324,note_on,4,0,1,,,,,,,,,0,,,64,127
361432,note_on,309,0,7,,,,,,,,,6,,,56,0
361457,note_on,133,0,5,,,,,,,,,4,,,50,0
361457,note_on,133,0,8,,,,,,,,,7,,,50,0
361477,note_on,45,0,7,,,,,,,,,6,,,57,127
361501,note_on,44,0,5,,,,,,,,,4,,,49,90
361501,note_on,44,0,8,,,,,,,,,7,,,49,127
361635,note_on,134,0,8,,,,,,,,,7,,,49,0
361635,note_on,134,0,5,,,,,,,,,4,,,49,0
361675,note_on,351,0,1,,,,,,,,,0,,,64,0
361678,note_on,3,0,1,,,,,,,,,0,,,69,127
361678,note_on,43,0,5,,,,,,,,,4,,,45,90
361678,note_on,43,0,8,,,,,,,,,7,,,45,127
361788,note_on,311,0,7,,,,,,,,,6,,,57,0
361809,note_on,131,0,8,,,,,,,,,7,,,45,0
361809,note_on,131,0,5,,,,,,,,,4,,,45,0
361809,note_on,131,0,1,,,,,,,,,0,,,69,0
361831,note_on,43,0,7,,,,,,,,,6,,,59,127
361854,note_on,45,0,1,,,,,,,,,0,,,68,127
361855,note_on,46,0,5,,,,,,,,,4,,,52,90
361855,note_on,46,0,8,,,,,,,,,7,,,52,127
361939,note_on,85,0,1,,,,,,,,,0,,,68,0
361942,note_on,3,0,1,,,,,,,,,0,,,66,127
361988,note_on,133,0,8,,,,,,,,,7,,,52,0
361988,note_on,133,0,5,,,,,,,,,4,,,52,0
362028,note_on,86,0,1,,,,,,,,,0,,,66,0
362032,note_on,44,0,8,,,,,,,,,7,,,54,127
362032,note_on,44,0,5,,,,,,,,,4,,,54,90
362032,note_on,4,0,1,,,,,,,,,0,,,64,127
362164,note_on,132,0,5,,,,,,,,,4,,,54,0
362164,note_on,132,0,8,,,,,,,,,7,,,54,0
362210,note_on,46,0,8,,,,,,,,,7,,,56,127
362210,note_on,46,0,5,,,,,,,,,4,,,56,90
362343,note_on,133,0,5,,,,,,,,,4,,,56,0
362343,note_on,133,0,8,,,,,,,,,7,,,56,0
362385,note_on,353,0,1,,,,,,,,,0,,,64,0
362388,note_on,45,0,5,,,,,,,,,4,,,52,90
362388,note_on,45,0,8,,,,,,,,,7,,,52,127
362388,note_on,3,0,1,,,,,,,,,0,,,62,127
362496,note_on,665,0,7,,,,,,,,,6,,,59,0
362521,note_on,133,0,8,,,,,,,,,7,,,52,0
362521,note_on,133,0,5,,,,,,,,,4,,,52,0
362521,note_on,133,0,1,,,,,,,,,0,,,62,0
362542,note_on,46,0,7,,,,,,,,,6,,,61,127
362563,note_on,42,0,5,,,,,,,,,4,,,57,90
362563,note_on,42,0,1,,,,,,,,,0,,,61,127
362564,note_on,43,0,8,,,,,,,,,7,,,57,127
362697,note_on,134,0,1,,,,,,,,,0,,,61,0
362697,note_on,134,0,5,,,,,,,,,4,,,57,0
362697,note_on,133,0,8,,,,,,,,,7,,,57,0
362739,note_on,42,0,1,,,,,,,,,0,,,59,127
362740,note_on,43,0,8,,,,,,,,,7,,,45,127
362740,note_on,43,0,5,,,,,,,,,4,,,45,90
362827,note_on,88,0,1,,,,,,,,,0,,,59,0
362830,note_on,3,0,1,,,,,,,,,0,,,57,127
362850,note_on,308,0,7,,,,,,,,,6,,,61,0
362874,note_on,134,0,8,,,,,,,,,7,,,45,0
362874,note_on,134,0,5,,,,,,,,,4,,,45,0
362895,note_on,0,0,7,,,,,,,,,6,,,56,127
362895,note_on,45,0,7,,,,,,,,,6,,,59,127
362917,note_on,87,0,1,,,,,,,,,0,,,57,0
362920,note_on,3,0,1,,,,,,,,,0,,,59,127
362920,note_on,46,0,5,,,,,,,,,4,,,52,90
362920,note_on,46,0,8,,,,,,,,,7,,,52,127
363205,note_on,310,0,7,,,,,,,,,6,,,56,0
363208,note_on,3,0,7,,,,,,,,,6,,,59,0
363229,note_on,309,0,5,,,,,,,,,4,,,52,0
363229,note_on,309,0,1,,,,,,,,,0,,,59,0
363230,note_on,310,0,8,,,,,,,,,7,,,52,0
363249,note_on,41,0,7,,,,,,,,,6,,,57,127
363274,note_on,44,0,8,,,,,,,,,7,,,52,127
363274,note_on,45,0,1,,,,,,,,,0,,,57,127
363274,note_on,0,0,8,,,,,,,,,7,,,45,127
363274,note_on,45,0,5,,,,,,,,,4,,,45,90
363274,note_on,0,0,8,,,,,,,,,7,,,49,127
363606,note_on,357,0,7,,,,,,,,,6,,,57,0
363627,note_on,353,0,1,,,,,,,,,0,,,57,0
363628,note_on,0,0,8,,,,,,,,,7,,,49,0
363628,note_on,354,0,8,,,,,,,,,7,,,45,0
363628,note_on,354,0,5,,,,,,,,,4,,,45,0
363630,note_on,2,0,8,,,,,,,,,7,,,52,0
363806,note_on,3724,0,3,,,,,,,,,2,,,57,90
363806,note_on,179,0,1,,,,,,,,,0,,,81,127
363806,note_on,3725,0,2,,,,,,,,,1,,,57,65
363806,note_on,3722,0,4,,,,,,,,,3,,,57,65
363868,note_on,62,0,1,,,,,,,,,0,,,81,0
363892,note_on,24,0,1,,,,,,,,,0,,,83,127
363939,note_on,133,0,2,,,,,,,,,1,,,57,0
363939,note_on,133,0,3,,,,,,,,,2,,,57,0
363939,note_on,133,0,4,,,,,,,,,3,,,57,0
363957,note_on,65,0,1,,,,,,,,,0,,,83,0
363981,note_on,24,0,1,,,,,,,,,0,,,85,127
363982,note_on,43,0,3,,,,,,,,,2,,,57,66
363982,note_on,43,0,2,,,,,,,,,1,,,57,65
363983,note_on,44,0,4,,,,,,,,,3,,,57,65
364046,note_on,65,0,1,,,,,,,,,0,,,85,0
364071,note_on,25,0,1,,,,,,,,,0,,,81,127
364115,note_on,133,0,3,,,,,,,,,2,,,57,0
364115,note_on,133,0,2,,,,,,,,,1,,,57,0
364117,note_on,134,0,4,,,,,,,,,3,,,57,0
364134,note_on,63,0,1,,,,,,,,,0,,,81,0
364159,note_on,25,0,1,,,,,,,,,0,,,85,127
364161,note_on,46,0,2,,,,,,,,,1,,,59,65
364161,note_on,46,0,3,,,,,,,,,2,,,59,66
364161,note_on,44,0,4,,,,,,,,,3,,,59,65
364222,note_on,63,0,1,,,,,,,,,0,,,85,0
364248,note_on,26,0,1,,,,,,,,,0,,,86,127
364293,note_on,132,0,4,,,,,,,,,3,,,59,0
364293,note_on,132,0,2,,,,,,,,,1,,,59,0
364293,note_on,132,0,3,,,,,,,,,2,,,59,0
364311,note_on,63,0,1,,,,,,,,,0,,,86,0
364336,note_on,43,0,2,,,,,,,,,1,,,61,65
364336,note_on,25,0,1,,,,,,,,,0,,,88,127
364337,note_on,44,0,3,,,,,,,,,2,,,61,66
364337,note_on,44,0,4,,,,,,,,,3,,,61,65
364468,note_on,132,0,1,,,,,,,,,0,,,88,0
364469,note_on,133,0,2,,,,,,,,,1,,,61,0
364470,note_on,133,0,3,,,,,,,,,2,,,61,0
364471,note_on,134,0,4,,,,,,,,,3,,,61,0
364515,note_on,47,0,1,,,,,,,,,0,,,85,127
364515,note_on,45,0,3,,,,,,,,,2,,,57,66
364515,note_on,46,0,2,,,,,,,,,1,,,57,65
364516,note_on,45,0,4,,,,,,,,,3,,,57,65
364647,note_on,132,0,2,,,,,,,,,1,,,57,0
364647,note_on,132,0,1,,,,,,,,,0,,,85,0
364648,note_on,132,0,4,,,,,,,,,3,,,57,0
364648,note_on,133,0,3,,,,,,,,,2,,,57,0
364693,note_on,45,0,4,,,,,,,,,3,,,64,65
364693,note_on,46,0,2,,,,,,,,,1,,,64,65
364693,note_on,45,0,3,,,,,,,,,2,,,64,66
364693,note_on,46,0,1,,,,,,,,,0,,,85,127
364823,note_on,130,0,1,,,,,,,,,0,,,85,0
364868,note_on,45,0,1,,,,,,,,,0,,,83,127
365023,note_on,155,0,1,,,,,,,,,0,,,83,0
365046,note_on,353,0,2,,,,,,,,,1,,,64,0
365046,note_on,353,0,3,,,,,,,,,2,,,64,0
365048,note_on,355,0,4,,,,,,,,,3,,,64,0
365223,note_on,200,0,1,,,,,,,,,0,,,69,127
365223,note_on,1593,0,8,,,,,,,,,7,,,45,127
365223,note_on,1595,0,5,,,,,,,,,4,,,45,90
365287,note_on,64,0,1,,,,,,,,,0,,,69,0
365311,note_on,24,0,1,,,,,,,,,0,,,71,127
365356,note_on,133,0,8,,,,,,,,,7,,,45,0
365356,note_on,133,0,5,,,,,,,,,4,,,45,0
365374,note_on,63,0,1,,,,,,,,,0,,,71,0
365377,note_on,0,0,7,,,,,,,,,6,,,61,127
365377,note_on,1771,0,7,,,,,,,,,6,,,64,127
365400,note_on,26,0,1,,,,,,,,,0,,,73,127
365401,note_on,45,0,5,,,,,,,,,4,,,45,90
365401,note_on,45,0,8,,,,,,,,,7,,,45,127
365464,note_on,64,0,1,,,,,,,,,0,,,73,0
365488,note_on,24,0,1,,,,,,,,,0,,,69,127
365534,note_on,133,0,8,,,,,,,,,7,,,45,0
365534,note_on,133,0,5,,,,,,,,,4,,,45,0
365554,note_on,66,0,1,,,,,,,,,0,,,69,0
365576,note_on,22,0,1,,,,,,,,,0,,,73,127
365577,note_on,43,0,5,,,,,,,,,4,,,47,90
365577,note_on,43,0,8,,,,,,,,,7,,,47,127
365642,note_on,66,0,1,,,,,,,,,0,,,73,0
365667,note_on,25,0,1,,,,,,,,,0,,,74,127
365688,note_on,311,0,7,,,,,,,,,6,,,61,0
365690,note_on,2,0,7,,,,,,,,,6,,,64,0
365712,note_on,135,0,8,,,,,,,,,7,,,47,0
365712,note_on,135,0,5,,,,,,,,,4,,,47,0
365730,note_on,63,0,1,,,,,,,,,0,,,74,0
365732,note_on,0,0,7,,,,,,,,,6,,,57,127
365732,note_on,42,0,7,,,,,,,,,6,,,64,127
365755,note_on,25,0,1,,,,,,,,,0,,,76,127
365756,note_on,44,0,5,,,,,,,,,4,,,49,90
365756,note_on,44,0,8,,,,,,,,,7,,,49,127
365889,note_on,134,0,1,,,,,,,,,0,,,76,0
365889,note_on,133,0,5,,,,,,,,,4,,,49,0
365889,note_on,133,0,8,,,,,,,,,7,,,49,0
365932,note_on,43,0,8,,,,,,,,,7,,,45,127
365932,note_on,43,0,1,,,,,,,,,0,,,73,127
365932,note_on,43,0,5,,,,,,,,,4,,,45,90
366041,note_on,309,0,7,,,,,,,,,6,,,57,0
366044,note_on,3,0,7,,,,,,,,,6,,,64,0
366067,note_on,135,0,8,,,,,,,,,7,,,45,0
366067,note_on,135,0,5,,,,,,,,,4,,,45,0
366067,note_on,135,0,1,,,,,,,,,0,,,73,0
366088,note_on,0,0,7,,,,,,,,,6,,,56,127
366088,note_on,0,0,7,,,,,,,,,6,,,59,127
366088,note_on,44,0,7,,,,,,,,,6,,,64,127
366110,note_on,43,0,5,,,,,,,,,4,,,52,90
366110,note_on,43,0,8,,,,,,,,,7,,,52,127
366110,note_on,43,0,1,,,,,,,,,0,,,73,127
366242,note_on,132,0,1,,,,,,,,,0,,,73,0
366286,note_on,44,0,1,,,,,,,,,0,,,71,127
366443,note_on,157,0,1,,,,,,,,,0,,,71,0
366443,note_on,355,0,7,,,,,,,,,6,,,56,0
366443,note_on,0,0,7,,,,,,,,,6,,,59,0
366444,note_on,1,0,7,,,,,,,,,6,,,64,0
366464,note_on,354,0,8,,,,,,,,,7,,,52,0
366464,note_on,354,0,5,,,,,,,,,4,,,52,0
366642,note_on,1596,0,2,,,,,,,,,1,,,57,64
366642,note_on,199,0,1,,,,,,,,,0,,,81,127
366642,note_on,1596,0,3,,,,,,,,,2,,,57,66
366644,note_on,1596,0,4,,,,,,,,,3,,,57,65
366774,note_on,132,0,1,,,,,,,,,0,,,81,0
366774,note_on,132,0,2,,,,,,,,,1,,,57,0
366777,note_on,135,0,3,,,,,,,,,2,,,57,0
366777,note_on,133,0,4,,,,,,,,,3,,,57,0
366817,note_on,43,0,1,,,,,,,,,0,,,83,127
366818,note_on,44,0,2,,,,,,,,,1,,,57,64
366818,note_on,41,0,3,,,,,,,,,2,,,57,66
366819,note_on,42,0,4,,,,,,,,,3,,,57,65
366880,note_on,63,0,1,,,,,,,,,0,,,83,0
366907,note_on,27,0,1,,,,,,,,,0,,,81,127
366970,note_on,63,0,1,,,,,,,,,0,,,81,0
366996,note_on,26,0,1,,,,,,,,,0,,,85,127
367060,note_on,64,0,1,,,,,,,,,0,,,85,0
367084,note_on,24,0,1,,,,,,,,,0,,,81,127
367147,note_on,63,0,1,,,,,,,,,0,,,81,0
367173,note_on,26,0,1,,,,,,,,,0,,,86,127
367236,note_on,63,0,1,,,,,,,,,0,,,86,0
367261,note_on,25,0,1,,,,,,,,,0,,,81,127
367325,note_on,64,0,1,,,,,,,,,0,,,81,0
367350,note_on,25,0,1,,,,,,,,,0,,,88,127
367414,note_on,64,0,1,,,,,,,,,0,,,88,0
367438,note_on,24,0,1,,,,,,,,,0,,,81,127
367504,note_on,66,0,1,,,,,,,,,0,,,81,0
367527,note_on,23,0,1,,,,,,,,,0,,,83,127
367591,note_on,64,0,1,,,,,,,,,0,,,83,0
367617,note_on,26,0,1,,,,,,,,,0,,,81,127
367679,note_on,62,0,1,,,,,,,,,0,,,81,0
367704,note_on,25,0,1,,,,,,,,,0,,,85,127
367768,note_on,64,0,1,,,,,,,,,0,,,85,0
367793,note_on,25,0,1,,,,,,,,,0,,,81,127
367857,note_on,64,0,1,,,,,,,,,0,,,81,0
367881,note_on,24,0,1,,,,,,,,,0,,,86,127
367947,note_on,66,0,1,,,,,,,,,0,,,86,0
367969,note_on,22,0,1,,,,,,,,,0,,,81,127
368035,note_on,66,0,1,,,,,,,,,0,,,81,0
368059,note_on,24,0,1,,,,,,,,,0,,,88,127
368123,note_on,64,0,1,,,,,,,,,0,,,88,0
368147,note_on,24,0,1,,,,,,,,,0,,,81,127
368212,note_on,65,0,1,,,,,,,,,0,,,81,0
368236,note_on,24,0,1,,,,,,,,,0,,,76,127
368368,note_on,132,0,1,,,,,,,,,0,,,76,0
368368,note_on,1550,0,3,,,,,,,,,2,,,57,0
368369,note_on,1550,0,4,,,,,,,,,3,,,57,0
368371,note_on,1553,0,2,,,,,,,,,1,,,57,0
368414,note_on,45,0,4,,,,,,,,,3,,,61,65
368414,note_on,43,0,2,,,,,,,,,1,,,61,64
368414,note_on,46,0,3,,,,,,,,,2,,,61,66
368414,note_on,46,0,1,,,,,,,,,0,,,81,127
368499,note_on,85,0,1,,,,,,,,,0,,,81,0
368504,note_on,90,0,2,,,,,,,,,1,,,62,64
368504,note_on,90,0,3,,,,,,,,,2,,,62,66
368504,note_on,90,0,4,,,,,,,,,3,,,62,65
368504,note_on,5,0,1,,,,,,,,,0,,,83,127
368533,note_on,29,0,4,,,,,,,,,3,,,61,0
368533,note_on,29,0,2,,,,,,,,,1,,,61,0
368533,note_on,29,0,3,,,,,,,,,2,,,61,0
368589,note_on,85,0,1,,,,,,,,,0,,,83,0
368590,note_on,57,0,2,,,,,,,,,1,,,64,64
368590,note_on,1,0,1,,,,,,,,,0,,,83,127
368593,note_on,60,0,4,,,,,,,,,3,,,64,65
368593,note_on,60,0,3,,,,,,,,,2,,,64,66
368620,note_on,27,0,3,,,,,,,,,2,,,62,0
368620,note_on,30,0,2,,,,,,,,,1,,,62,0
368620,note_on,27,0,4,,,,,,,,,3,,,62,0
368724,note_on,104,0,2,,,,,,,,,1,,,64,0
368724,note_on,104,0,3,,,,,,,,,2,,,64,0
368726,note_on,106,0,4,,,,,,,,,3,,,64,0
368771,note_on,47,0,3,,,,,,,,,2,,,64,66
368771,note_on,45,0,4,,,,,,,,,3,,,64,65
368771,note_on,47,0,2,,,,,,,,,1,,,64,64
368900,note_on,129,0,2,,,,,,,,,1,,,64,0
368901,note_on,130,0,4,,,,,,,,,3,,,64,0
368901,note_on,130,0,3,,,,,,,,,2,,,64,0
368942,note_on,352,0,1,,,,,,,,,0,,,83,0
368945,note_on,3,0,1,,,,,,,,,0,,,81,127
368945,note_on,44,0,3,,,,,,,,,2,,,57,66
368945,note_on,44,0,4,,,,,,,,,3,,,57,65
368945,note_on,45,0,2,,,,,,,,,1,,,57,64
369300,note_on,355,0,1,,,,,,,,,0,,,81,0
369303,note_on,358,0,3,,,,,,,,,2,,,57,0
369303,note_on,358,0,4,,,,,,,,,3,,,57,0
369303,note_on,358,0,2,,,,,,,,,1,,,57,0
369478,note_on,3014,0,8,,,,,,,,,7,,,45,127
369478,note_on,178,0,1,,,,,,,,,0,,,69,127
369478,note_on,3014,0,5,,,,,,,,,4,,,45,90
369610,note_on,132,0,1,,,,,,,,,0,,,69,0
369612,note_on,134,0,8,,,,,,,,,7,,,45,0
369612,note_on,134,0,5,,,,,,,,,4,,,45,0
369656,note_on,44,0,5,,,,,,,,,4,,,45,90
369656,note_on,44,0,8,,,,,,,,,7,,,45,127
369656,note_on,46,0,1,,,,,,,,,0,,,71,127
369717,note_on,61,0,1,,,,,,,,,0,,,71,0
369742,note_on,25,0,1,,,,,,,,,0,,,69,127
369808,note_on,66,0,1,,,,,,,,,0,,,69,0
369831,note_on,23,0,1,,,,,,,,,0,,,73,127
369897,note_on,66,0,1,,,,,,,,,0,,,73,0
369921,note_on,24,0,1,,,,,,,,,0,,,69,127
369985,note_on,64,0,1,,,,,,,,,0,,,69,0
370009,note_on,24,0,1,,,,,,,,,0,,,74,127
370073,note_on,64,0,1,,,,,,,,,0,,,74,0
370096,note_on,23,0,1,,,,,,,,,0,,,69,127
370161,note_on,65,0,1,,,,,,,,,0,,,69,0
370186,note_on,25,0,1,,,,,,,,,0,,,76,127
370248,note_on,62,0,1,,,,,,,,,0,,,76,0
370274,note_on,26,0,1,,,,,,,,,0,,,69,127
370338,note_on,64,0,1,,,,,,,,,0,,,69,0
370364,note_on,26,0,1,,,,,,,,,0,,,71,127
370426,note_on,62,0,1,,,,,,,,,0,,,71,0
370453,note_on,27,0,1,,,,,,,,,0,,,69,127
370516,note_on,63,0,1,,,,,,,,,0,,,69,0
370540,note_on,24,0,1,,,,,,,,,0,,,73,127
370605,note_on,65,0,1,,,,,,,,,0,,,73,0
370629,note_on,24,0,1,,,,,,,,,0,,,69,127
370695,note_on,66,0,1,,,,,,,,,0,,,69,0
370718,note_on,23,0,1,,,,,,,,,0,,,74,127
370781,note_on,63,0,1,,,,,,,,,0,,,74,0
370807,note_on,26,0,1,,,,,,,,,0,,,69,127
370871,note_on,64,0,1,,,,,,,,,0,,,69,0
370895,note_on,24,0,1,,,,,,,,,0,,,76,127
370960,note_on,65,0,1,,,,,,,,,0,,,76,0
370984,note_on,24,0,1,,,,,,,,,0,,,69,127
371049,note_on,65,0,1,,,,,,,,,0,,,69,0
371073,note_on,24,0,1,,,,,,,,,0,,,64,127
371205,note_on,132,0,1,,,,,,,,,0,,,64,0
371208,note_on,1552,0,8,,,,,,,,,7,,,45,0
371208,note_on,1552,0,5,,,,,,,,,4,,,45,0
371226,note_on,4782,0,7,,,,,,,,,6,,,69,127
371226,note_on,0,0,7,,,,,,,,,6,,,64,127
371251,note_on,43,0,5,,,,,,,,,4,,,49,90
371251,note_on,46,0,1,,,,,,,,,0,,,69,127
371251,note_on,43,0,8,,,,,,,,,7,,,49,127
371338,note_on,87,0,1,,,,,,,,,0,,,69,0
371338,note_on,87,0,5,,,,,,,,,4,,,49,0
371340,note_on,2,0,1,,,,,,,,,0,,,71,127
371340,note_on,2,0,5,,,,,,,,,4,,,50,90
371340,note_on,89,0,8,,,,,,,,,7,,,49,0
371340,note_on,0,0,8,,,,,,,,,7,,,50,127
371363,note_on,137,0,7,,,,,,,,,6,,,64,0
371404,note_on,41,0,7,,,,,,,,,6,,,59,127
371425,note_on,0,0,1,,,,,,,,,0,,,71,127
371425,note_on,85,0,1,,,,,,,,,0,,,71,0
371425,note_on,85,0,8,,,,,,,,,7,,,50,0
371425,note_on,85,0,5,,,,,,,,,4,,,50,0
371426,note_on,1,0,5,,,,,,,,,4,,,52,90
371427,note_on,2,0,8,,,,,,,,,7,,,52,127
371542,note_on,138,0,7,,,,,,,,,6,,,69,0
371560,note_on,133,0,8,,,,,,,,,7,,,52,0
371560,note_on,134,0,5,,,,,,,,,4,,,52,0
371580,note_on,38,0,7,,,,,,,,,6,,,68,127
371605,note_on,45,0,8,,,,,,,,,7,,,40,127
371605,note_on,45,0,5,,,,,,,,,4,,,40,90
371718,note_on,0,0,7,,,,,,,,,6,,,59,0
371718,note_on,138,0,7,,,,,,,,,6,,,68,0
371737,note_on,132,0,5,,,,,,,,,4,,,40,0
371738,note_on,133,0,8,,,,,,,,,7,,,40,0
371760,note_on,0,0,7,,,,,,,,,6,,,61,127
371760,note_on,0,0,7,,,,,,,,,6,,,64,127
371760,note_on,42,0,7,,,,,,,,,6,,,69,127
371779,note_on,354,0,1,,,,,,,,,0,,,71,0
371782,note_on,3,0,1,,,,,,,,,0,,,69,127
371784,note_on,47,0,5,,,,,,,,,4,,,45,90
371784,program_change,2481,0,3,,,,,,,,48,2,,,,
371784,note_on,46,0,8,,,,,,,,,7,,,45,127
371784,program_change,2481,0,4,,,,,,,,49,3,,,,
371784,program_change,2481,0,2,,,,,,,,48,1,,,,
372112,note_on,352,0,7,,,,,,,,,6,,,61,0
372114,note_on,2,0,7,,,,,,,,,6,,,64,0
372116,note_on,2,0,7,,,,,,,,,6,,,69,0
372136,note_on,352,0,8,,,,,,,,,7,,,45,0
372136,note_on,354,0,1,,,,,,,,,0,,,69,0
372136,note_on,352,0,5,,,,,,,,,4,,,45,0
372314,note_on,178,0,1,,,,,,,,,0,,,76,127
372317,note_on,533,0,2,,,,,,,,,1,,,76,64
372319,program_change,0,0,5,,,,,,,,49,4,,,,
372319,note_on,183,0,8,,,,,,,,,7,,,45,127
372319,note_on,28543,0,6,,,,,,,,,5,,,45,90
372319,note_on,183,0,5,,,,,,,,,4,,,45,90
372319,note_on,535,0,4,,,,,,,,,3,,,64,65
372319,note_on,535,0,3,,,,,,,,,2,,,76,65
372446,note_on,132,0,1,,,,,,,,,0,,,76,0
372446,note_on,129,0,2,,,,,,,,,1,,,76,0
372446,note_on,127,0,3,,,,,,,,,2,,,76,0
372448,note_on,129,0,4,,,,,,,,,3,,,64,0
372448,note_on,129,0,5,,,,,,,,,4,,,45,0
372448,note_on,129,0,6,,,,,,,,,5,,,45,0
372449,note_on,130,0,8,,,,,,,,,7,,,45,0
372468,note_on,0,0,7,,,,,,,,,6,,,64,127
372468,note_on,352,0,7,,,,,,,,,6,,,73,127
372492,note_on,46,0,3,,,,,,,,,2,,,73,65
372492,note_on,44,0,5,,,,,,,,,4,,,45,90
372492,note_on,46,0,2,,,,,,,,,1,,,73,64
372492,note_on,46,0,1,,,,,,,,,0,,,73,127
372492,note_on,44,0,4,,,,,,,,,3,,,64,65
372493,note_on,44,0,8,,,,,,,,,7,,,45,127
372493,note_on,45,0,6,,,,,,,,,5,,,45,90
372625,note_on,133,0,2,,,,,,,,,1,,,73,0
372625,note_on,133,0,3,,,,,,,,,2,,,73,0
372625,note_on,133,0,4,,,,,,,,,3,,,64,0
372625,note_on,133,0,1,,,,,,,,,0,,,73,0
372625,note_on,132,0,6,,,,,,,,,5,,,45,0
372625,note_on,133,0,5,,,,,,,,,4,,,45,0
372626,note_on,133,0,8,,,,,,,,,7,,,45,0
372668,note_on,43,0,1,,,,,,,,,0,,,71,127
372669,note_on,44,0,2,,,,,,,,,1,,,71,64
372670,note_on,45,0,5,,,,,,,,,4,,,47,90
372670,note_on,45,0,4,,,,,,,,,3,,,62,65
372670,note_on,45,0,3,,,,,,,,,2,,,71,65
372670,note_on,45,0,6,,,,,,,,,5,,,47,90
372670,note_on,44,0,8,,,,,,,,,7,,,47,127
372753,note_on,85,0,1,,,,,,,,,0,,,71,0
372756,note_on,86,0,3,,,,,,,,,2,,,69,65
372756,note_on,3,0,1,,,,,,,,,0,,,69,127
372756,note_on,87,0,2,,,,,,,,,1,,,69,64
372777,note_on,309,0,7,,,,,,,,,6,,,64,0
372780,note_on,3,0,7,,,,,,,,,6,,,73,0
372785,note_on,29,0,3,,,,,,,,,2,,,71,0
372785,note_on,29,0,2,,,,,,,,,1,,,71,0
372803,note_on,133,0,8,,,,,,,,,7,,,47,0
372803,note_on,133,0,4,,,,,,,,,3,,,62,0
372803,note_on,133,0,5,,,,,,,,,4,,,47,0
372803,note_on,133,0,6,,,,,,,,,5,,,47,0
372824,note_on,0,0,7,,,,,,,,,6,,,69,127
372824,note_on,44,0,7,,,,,,,,,6,,,76,127
372843,note_on,87,0,1,,,,,,,,,0,,,69,0
372846,note_on,3,0,1,,,,,,,,,0,,,79,127
372846,note_on,61,0,2,,,,,,,,,1,,,79,64
372849,note_on,46,0,5,,,,,,,,,4,,,49,90
372849,note_on,46,0,4,,,,,,,,,3,,,64,65
372849,note_on,46,0,6,,,,,,,,,5,,,49,90
372849,note_on,46,0,8,,,,,,,,,7,,,49,127
372849,note_on,64,0,3,,,,,,,,,2,,,79,65
372874,note_on,28,0,2,,,,,,,,,1,,,69,0
372874,note_on,25,0,3,,,,,,,,,2,,,69,0
372979,note_on,105,0,3,,,,,,,,,2,,,79,0
372979,note_on,105,0,2,,,,,,,,,1,,,79,0
372979,note_on,133,0,1,,,,,,,,,0,,,79,0
372983,note_on,134,0,5,,,,,,,,,4,,,49,0
372983,note_on,134,0,8,,,,,,,,,7,,,49,0
372983,note_on,134,0,6,,,,,,,,,5,,,49,0
372983,note_on,134,0,4,,,,,,,,,3,,,64,0
373022,note_on,43,0,2,,,,,,,,,1,,,79,64
373022,note_on,43,0,1,,,,,,,,,0,,,79,127
373027,note_on,48,0,3,,,,,,,,,2,,,79,65
373027,note_on,44,0,8,,,,,,,,,7,,,45,127
373027,note_on,44,0,6,,,,,,,,,5,,,45,90
373027,note_on,44,0,4,,,,,,,,,3,,,61,65
373027,note_on,44,0,5,,,,,,,,,4,,,45,90
373132,note_on,308,0,7,,,,,,,,,6,,,69,0
373135,note_on,3,0,7,,,,,,,,,6,,,76,0
373154,note_on,132,0,1,,,,,,,,,0,,,79,0
373155,note_on,133,0,2,,,,,,,,,1,,,79,0
373155,note_on,128,0,3,,,,,,,,,2,,,79,0
373156,note_on,129,0,5,,,,,,,,,4,,,45,0
373156,note_on,129,0,4,,,,,,,,,3,,,61,0
373158,note_on,131,0,6,,,,,,,,,5,,,45,0
373158,note_on,131,0,8,,,,,,,,,7,,,45,0
373178,note_on,0,0,7,,,,,,,,,6,,,69,127
373178,note_on,43,0,7,,,,,,,,,6,,,74,127
373200,note_on,46,0,1,,,,,,,,,0,,,79,127
373202,note_on,46,0,4,,,,,,,,,3,,,57,65
373202,note_on,47,0,2,,,,,,,,,1,,,79,64
373202,note_on,46,0,5,,,,,,,,,4,,,50,90
373202,note_on,47,0,3,,,,,,,,,2,,,79,65
373205,note_on,47,0,6,,,,,,,,,5,,,50,90
373205,note_on,47,0,8,,,,,,,,,7,,,50,127
373335,note_on,135,0,1,,,,,,,,,0,,,79,0
373335,note_on,133,0,5,,,,,,,,,4,,,50,0
373335,note_on,130,0,8,,,,,,,,,7,,,50,0
373335,note_on,133,0,3,,,,,,,,,2,,,79,0
373335,note_on,133,0,2,,,,,,,,,1,,,79,0
373335,note_on,130,0,6,,,,,,,,,5,,,50,0
373377,note_on,42,0,5,,,,,,,,,4,,,52,90
373377,note_on,42,0,3,,,,,,,,,2,,,78,65
373377,note_on,42,0,1,,,,,,,,,0,,,78,127
373377,note_on,42,0,2,,,,,,,,,1,,,78,64
373377,note_on,42,0,6,,,,,,,,,5,,,52,90
373378,note_on,43,0,8,,,,,,,,,7,,,52,127
373511,note_on,133,0,8,,,,,,,,,7,,,52,0
373511,note_on,134,0,5,,,,,,,,,4,,,52,0
373511,note_on,134,0,6,,,,,,,,,5,,,52,0
373555,note_on,44,0,5,,,,,,,,,4,,,54,90
373555,note_on,44,0,6,,,,,,,,,5,,,54,90
373555,note_on,44,0,8,,,,,,,,,7,,,54,127
373689,note_on,312,0,1,,,,,,,,,0,,,78,0
373690,note_on,488,0,4,,,,,,,,,3,,,57,0
373690,note_on,135,0,8,,,,,,,,,7,,,54,0
373690,note_on,135,0,6,,,,,,,,,5,,,54,0
373690,note_on,135,0,5,,,,,,,,,4,,,54,0
373690,note_on,313,0,2,,,,,,,,,1,,,78,0
373690,note_on,313,0,3,,,,,,,,,2,,,78,0
373732,note_on,43,0,1,,,,,,,,,0,,,78,127
373733,note_on,43,0,5,,,,,,,,,4,,,50,90
373733,note_on,43,0,4,,,,,,,,,3,,,66,65
373733,note_on,43,0,3,,,,,,,,,2,,,78,65
373733,note_on,43,0,2,,,,,,,,,1,,,78,64
373734,note_on,44,0,6,,,,,,,,,5,,,50,90
373734,note_on,44,0,8,,,,,,,,,7,,,50,127
373841,note_on,663,0,7,,,,,,,,,6,,,69,0
373844,note_on,3,0,7,,,,,,,,,6,,,74,0
373866,note_on,133,0,3,,,,,,,,,2,,,78,0
373866,note_on,134,0,1,,,,,,,,,0,,,78,0
373866,note_on,133,0,2,,,,,,,,,1,,,78,0
373867,note_on,134,0,4,,,,,,,,,3,,,66,0
373869,note_on,135,0,6,,,,,,,,,5,,,50,0
373869,note_on,135,0,8,,,,,,,,,7,,,50,0
373869,note_on,136,0,5,,,,,,,,,4,,,50,0
373887,note_on,43,0,7,,,,,,,,,6,,,75,127
373887,note_on,0,0,7,,,,,,,,,6,,,66,127
373910,note_on,44,0,1,,,,,,,,,0,,,75,127
373910,note_on,44,0,3,,,,,,,,,2,,,75,65
373910,note_on,44,0,2,,,,,,,,,1,,,75,64
373914,note_on,47,0,4,,,,,,,,,3,,,66,65
373914,note_on,45,0,8,,,,,,,,,7,,,47,127
373914,note_on,45,0,6,,,,,,,,,5,,,47,90
373914,note_on,45,0,5,,,,,,,,,4,,,47,90
374020,note_on,133,0,7,,,,,,,,,6,,,75,0
374042,note_on,132,0,2,,,,,,,,,1,,,75,0
374042,note_on,132,0,1,,,,,,,,,0,,,75,0
374045,note_on,131,0,4,,,,,,,,,3,,,66,0
374045,note_on,131,0,8,,,,,,,,,7,,,47,0
374045,note_on,131,0,5,,,,,,,,,4,,,47,0
374045,note_on,131,0,6,,,,,,,,,5,,,47,0
374045,note_on,135,0,3,,,,,,,,,2,,,75,0
374062,note_on,42,0,7,,,,,,,,,6,,,76,127
374088,note_on,46,0,1,,,,,,,,,0,,,73,127
374089,note_on,47,0,2,,,,,,,,,1,,,73,64
374089,note_on,44,0,3,,,,,,,,,2,,,73,65
374089,note_on,44,0,4,,,,,,,,,3,,,64,65
374090,note_on,45,0,6,,,,,,,,,5,,,49,90
374090,note_on,45,0,5,,,,,,,,,4,,,49,90
374090,note_on,45,0,8,,,,,,,,,7,,,49,127
374174,note_on,86,0,1,,,,,,,,,0,,,73,0
374175,note_on,1,0,1,,,,,,,,,0,,,71,127
374175,note_on,86,0,3,,,,,,,,,2,,,71,65
374175,note_on,86,0,2,,,,,,,,,1,,,71,64
374197,note_on,135,0,7,,,,,,,,,6,,,76,0
374200,note_on,3,0,7,,,,,,,,,6,,,66,0
374204,note_on,29,0,2,,,,,,,,,1,,,73,0
374204,note_on,29,0,3,,,,,,,,,2,,,73,0
374221,note_on,131,0,6,,,,,,,,,5,,,49,0
374221,note_on,131,0,8,,,,,,,,,7,,,49,0
374221,note_on,131,0,5,,,,,,,,,4,,,49,0
374221,note_on,132,0,4,,,,,,,,,3,,,64,0
374241,note_on,41,0,7,,,,,,,,,6,,,78,127
374241,note_on,0,0,7,,,,,,,,,6,,,69,127
374260,note_on,85,0,1,,,,,,,,,0,,,71,0
374263,note_on,3,0,1,,,,,,,,,0,,,81,127
374263,note_on,59,0,2,,,,,,,,,1,,,81,64
374264,note_on,43,0,6,,,,,,,,,5,,,51,90
374264,note_on,43,0,4,,,,,,,,,3,,,66,65
374264,note_on,43,0,5,,,,,,,,,4,,,51,90
374264,note_on,60,0,3,,,,,,,,,2,,,81,65
374265,note_on,44,0,8,,,,,,,,,7,,,51,127
374293,note_on,30,0,2,,,,,,,,,1,,,71,0
374293,note_on,29,0,3,,,,,,,,,2,,,71,0
374396,note_on,133,0,1,,,,,,,,,0,,,81,0
374397,note_on,104,0,3,,,,,,,,,2,,,81,0
374397,note_on,104,0,2,,,,,,,,,1,,,81,0
374402,note_on,138,0,5,,,,,,,,,4,,,51,0
374402,note_on,137,0,8,,,,,,,,,7,,,51,0
374402,note_on,138,0,6,,,,,,,,,5,,,51,0
374402,note_on,138,0,4,,,,,,,,,3,,,66,0
374440,note_on,44,0,1,,,,,,,,,0,,,81,127
374441,note_on,44,0,3,,,,,,,,,2,,,81,65
374441,note_on,44,0,2,,,,,,,,,1,,,81,64
374442,note_on,40,0,4,,,,,,,,,3,,,63,65
374442,note_on,40,0,8,,,,,,,,,7,,,47,127
374442,note_on,40,0,6,,,,,,,,,5,,,47,90
374442,note_on,40,0,5,,,,,,,,,4,,,47,90
374552,note_on,311,0,7,,,,,,,,,6,,,78,0
374574,note_on,134,0,1,,,,,,,,,0,,,81,0
374574,note_on,133,0,2,,,,,,,,,1,,,81,0
374575,note_on,134,0,3,,,,,,,,,2,,,81,0
374575,note_on,133,0,4,,,,,,,,,3,,,63,0
374577,note_on,135,0,8,,,,,,,,,7,,,47,0
374577,note_on,135,0,5,,,,,,,,,4,,,47,0
374577,note_on,135,0,6,,,,,,,,,5,,,47,0
374595,note_on,43,0,7,,,,,,,,,6,,,71,127
374618,note_on,44,0,1,,,,,,,,,0,,,81,127
374618,note_on,44,0,2,,,,,,,,,1,,,81,64
374622,note_on,47,0,3,,,,,,,,,2,,,81,65
374622,note_on,45,0,5,,,,,,,,,4,,,52,90
374622,note_on,47,0,4,,,,,,,,,3,,,59,65
374622,note_on,45,0,6,,,,,,,,,5,,,52,90
374623,note_on,46,0,8,,,,,,,,,7,,,52,127
374750,note_on,132,0,1,,,,,,,,,0,,,81,0
374754,note_on,132,0,6,,,,,,,,,5,,,52,0
374754,note_on,132,0,5,,,,,,,,,4,,,52,0
374754,note_on,132,0,3,,,,,,,,,2,,,81,0
374754,note_on,136,0,2,,,,,,,,,1,,,81,0
374754,note_on,131,0,8,,,,,,,,,7,,,52,0
374794,note_on,44,0,1,,,,,,,,,0,,,80,127
374795,note_on,41,0,2,,,,,,,,,1,,,80,64
374796,note_on,42,0,5,,,,,,,,,4,,,51,90
374796,note_on,42,0,3,,,,,,,,,2,,,80,65
374796,note_on,42,0,6,,,,,,,,,5,,,51,90
374797,note_on,43,0,8,,,,,,,,,7,,,51,127
374909,note_on,314,0,7,,,,,,,,,6,,,69,0
374930,note_on,133,0,8,,,,,,,,,7,,,51,0
374930,note_on,134,0,5,,,,,,,,,4,,,51,0
374930,note_on,134,0,6,,,,,,,,,5,,,51,0
374949,note_on,40,0,7,,,,,,,,,6,,,68,127
374972,note_on,42,0,5,,,,,,,,,4,,,52,90
374974,note_on,44,0,8,,,,,,,,,7,,,52,127
374974,note_on,44,0,6,,,,,,,,,5,,,52,90
375108,note_on,486,0,4,,,,,,,,,3,,,59,0
375108,note_on,314,0,1,,,,,,,,,0,,,80,0
375108,note_on,312,0,3,,,,,,,,,2,,,80,0
375108,note_on,313,0,2,,,,,,,,,1,,,80,0
375110,note_on,136,0,6,,,,,,,,,5,,,52,0
375110,note_on,136,0,8,,,,,,,,,7,,,52,0
375110,note_on,138,0,5,,,,,,,,,4,,,52,0
375148,note_on,40,0,1,,,,,,,,,0,,,76,127
375150,note_on,42,0,2,,,,,,,,,1,,,76,64
375151,note_on,43,0,4,,,,,,,,,3,,,71,65
375151,note_on,43,0,3,,,,,,,,,2,,,76,65
375152,note_on,42,0,8,,,,,,,,,7,,,40,127
375152,note_on,42,0,6,,,,,,,,,5,,,40,90
375152,note_on,42,0,5,,,,,,,,,4,,,40,90
375260,note_on,311,0,7,,,,,,,,,6,,,68,0
375262,note_on,2,0,7,,,,,,,,,6,,,71,0
375283,note_on,135,0,1,,,,,,,,,0,,,76,0
375283,note_on,132,0,4,,,,,,,,,3,,,71,0
375283,note_on,131,0,5,,,,,,,,,4,,,40,0
375283,note_on,133,0,2,,,,,,,,,1,,,76,0
375286,note_on,134,0,8,,,,,,,,,7,,,40,0
375286,note_on,134,0,6,,,,,,,,,5,,,40,0
375306,note_on,155,0,3,,,,,,,,,2,,,76,0
375306,note_on,0,0,7,,,,,,,,,6,,,65,127
375306,note_on,44,0,7,,,,,,,,,6,,,72,127
375328,note_on,45,0,1,,,,,,,,,0,,,77,127
375328,note_on,45,0,4,,,,,,,,,3,,,72,65
375328,note_on,45,0,2,,,,,,,,,1,,,77,64
375330,note_on,44,0,8,,,,,,,,,7,,,57,127
375330,note_on,47,0,5,,,,,,,,,4,,,57,90
375330,note_on,44,0,6,,,,,,,,,5,,,57,90
375438,note_on,132,0,7,,,,,,,,,6,,,72,0
375461,note_on,133,0,4,,,,,,,,,3,,,72,0
375461,note_on,131,0,5,,,,,,,,,4,,,57,0
375461,note_on,131,0,6,,,,,,,,,5,,,57,0
375461,note_on,133,0,1,,,,,,,,,0,,,77,0
375461,note_on,133,0,2,,,,,,,,,1,,,77,0
375462,note_on,132,0,8,,,,,,,,,7,,,57,0
375482,note_on,44,0,7,,,,,,,,,6,,,74,127
375503,note_on,42,0,1,,,,,,,,,0,,,74,127
375504,note_on,43,0,2,,,,,,,,,1,,,74,64
375504,note_on,43,0,4,,,,,,,,,3,,,74,65
375505,note_on,44,0,6,,,,,,,,,5,,,59,90
375505,note_on,44,0,5,,,,,,,,,4,,,59,90
375505,note_on,43,0,8,,,,,,,,,7,,,59,127
375614,note_on,132,0,7,,,,,,,,,6,,,74,0
375618,note_on,4,0,7,,,,,,,,,6,,,65,0
375638,note_on,133,0,5,,,,,,,,,4,,,59,0
375638,note_on,133,0,6,,,,,,,,,5,,,59,0
375638,note_on,134,0,4,,,,,,,,,3,,,74,0
375641,note_on,136,0,8,,,,,,,,,7,,,59,0
375658,note_on,0,0,7,,,,,,,,,6,,,64,127
375658,note_on,40,0,7,,,,,,,,,6,,,71,127
375683,note_on,42,0,8,,,,,,,,,7,,,56,127
375683,note_on,45,0,4,,,,,,,,,3,,,71,65
375683,note_on,45,0,6,,,,,,,,,5,,,56,90
375683,note_on,45,0,5,,,,,,,,,4,,,56,90
375815,note_on,312,0,1,,,,,,,,,0,,,74,0
375815,note_on,311,0,2,,,,,,,,,1,,,74,0
375818,note_on,135,0,6,,,,,,,,,5,,,56,0
375818,note_on,135,0,4,,,,,,,,,3,,,71,0
375818,note_on,135,0,5,,,,,,,,,4,,,56,0
375818,note_on,135,0,8,,,,,,,,,7,,,56,0
375859,note_on,44,0,1,,,,,,,,,0,,,76,127
375859,note_on,44,0,2,,,,,,,,,1,,,76,64
375863,note_on,45,0,8,,,,,,,,,7,,,52,127
375863,note_on,45,0,4,,,,,,,,,3,,,68,65
375863,note_on,45,0,6,,,,,,,,,5,,,52,90
375863,note_on,45,0,5,,,,,,,,,4,,,52,90
375971,note_on,313,0,7,,,,,,,,,6,,,71,0
375973,note_on,2,0,7,,,,,,,,,6,,,64,0
375992,note_on,133,0,1,,,,,,,,,0,,,76,0
375995,note_on,136,0,2,,,,,,,,,1,,,76,0
375995,note_on,132,0,6,,,,,,,,,5,,,52,0
375995,note_on,132,0,4,,,,,,,,,3,,,68,0
375995,note_on,132,0,8,,,,,,,,,7,,,52,0
375995,note_on,132,0,5,,,,,,,,,4,,,52,0
376012,note_on,39,0,7,,,,,,,,,6,,,64,127
376013,note_on,1,0,7,,,,,,,,,6,,,72,127
376038,note_on,732,0,3,,,,,,,,,2,,,72,64
376038,note_on,43,0,4,,,,,,,,,3,,,64,65
376038,note_on,43,0,2,,,,,,,,,1,,,72,64
376038,note_on,46,0,1,,,,,,,,,0,,,72,127
376040,note_on,45,0,6,,,,,,,,,5,,,57,90
376040,note_on,45,0,5,,,,,,,,,4,,,57,90
376040,note_on,45,0,8,,,,,,,,,7,,,57,127
376168,note_on,130,0,1,,,,,,,,,0,,,72,0
376169,note_on,131,0,2,,,,,,,,,1,,,72,0
376169,note_on,131,0,3,,,,,,,,,2,,,72,0
376170,note_on,130,0,5,,,,,,,,,4,,,57,0
376171,note_on,131,0,6,,,,,,,,,5,,,57,0
376171,note_on,131,0,8,,,,,,,,,7,,,57,0
376214,note_on,46,0,1,,,,,,,,,0,,,71,127
376214,note_on,45,0,3,,,,,,,,,2,,,71,64
376214,note_on,45,0,2,,,,,,,,,1,,,71,64
376214,note_on,44,0,5,,,,,,,,,4,,,56,90
376215,note_on,44,0,8,,,,,,,,,7,,,56,127
376215,note_on,44,0,6,,,,,,,,,5,,,56,90
376299,note_on,85,0,1,,,,,,,,,0,,,71,0
376300,note_on,86,0,2,,,,,,,,,1,,,69,64
376300,note_on,1,0,1,,,,,,,,,0,,,69,127
376301,note_on,87,0,3,,,,,,,,,2,,,69,64
376333,note_on,33,0,2,,,,,,,,,1,,,71,0
376333,note_on,32,0,3,,,,,,,,,2,,,71,0
376346,note_on,131,0,8,,,,,,,,,7,,,56,0
376346,note_on,131,0,6,,,,,,,,,5,,,56,0
376346,note_on,132,0,5,,,,,,,,,4,,,56,0
376388,note_on,88,0,1,,,,,,,,,0,,,69,0
376392,note_on,59,0,3,,,,,,,,,2,,,72,64
376392,note_on,59,0,2,,,,,,,,,1,,,72,64
376392,note_on,46,0,5,,,,,,,,,4,,,57,90
376392,note_on,4,0,1,,,,,,,,,0,,,72,127
376394,note_on,48,0,8,,,,,,,,,7,,,57,127
376394,note_on,48,0,6,,,,,,,,,5,,,57,90
376419,note_on,27,0,3,,,,,,,,,2,,,69,0
376419,note_on,27,0,2,,,,,,,,,1,,,69,0
376525,note_on,106,0,2,,,,,,,,,1,,,72,0
376525,note_on,133,0,1,,,,,,,,,0,,,72,0
376525,note_on,106,0,3,,,,,,,,,2,,,72,0
376527,note_on,133,0,8,,,,,,,,,7,,,57,0
376527,note_on,135,0,5,,,,,,,,,4,,,57,0
376527,note_on,133,0,6,,,,,,,,,5,,,57,0
376527,note_on,489,0,4,,,,,,,,,3,,,64,0
376568,note_on,43,0,1,,,,,,,,,0,,,71,127
376569,note_on,42,0,4,,,,,,,,,3,,,64,65
376569,note_on,44,0,2,,,,,,,,,1,,,71,64
376569,note_on,44,0,3,,,,,,,,,2,,,71,64
376572,note_on,45,0,8,,,,,,,,,7,,,45,127
376572,note_on,45,0,6,,,,,,,,,5,,,45,90
376572,note_on,45,0,5,,,,,,,,,4,,,45,90
376655,note_on,87,0,1,,,,,,,,,0,,,71,0
376658,note_on,89,0,3,,,,,,,,,2,,,69,64
376658,note_on,89,0,2,,,,,,,,,1,,,69,64
376658,note_on,3,0,1,,,,,,,,,0,,,69,127
376678,note_on,665,0,7,,,,,,,,,6,,,64,0
376680,note_on,2,0,7,,,,,,,,,6,,,72,0
376686,note_on,28,0,2,,,,,,,,,1,,,71,0
376686,note_on,28,0,3,,,,,,,,,2,,,71,0
376701,note_on,132,0,4,,,,,,,,,3,,,64,0
376701,note_on,129,0,5,,,,,,,,,4,,,45,0
376703,note_on,131,0,6,,,,,,,,,5,,,45,0
376703,note_on,131,0,8,,,,,,,,,7,,,45,0
376723,note_on,43,0,7,,,,,,,,,6,,,72,127
376723,note_on,0,0,7,,,,,,,,,6,,,65,127
376742,note_on,84,0,1,,,,,,,,,0,,,69,0
376744,note_on,58,0,2,,,,,,,,,1,,,77,64
376744,note_on,2,0,1,,,,,,,,,0,,,77,127
376745,note_on,44,0,4,,,,,,,,,3,,,72,65
376745,note_on,59,0,3,,,,,,,,,2,,,77,64
376746,note_on,45,0,5,,,,,,,,,4,,,57,90
376747,note_on,44,0,6,,,,,,,,,5,,,57,90
376748,note_on,45,0,8,,,,,,,,,7,,,57,127
376776,note_on,32,0,2,,,,,,,,,1,,,69,0
376776,note_on,31,0,3,,,,,,,,,2,,,69,0
376855,note_on,132,0,7,,,,,,,,,6,,,72,0
376879,note_on,103,0,2,,,,,,,,,1,,,77,0
376879,note_on,135,0,1,,,,,,,,,0,,,77,0
376882,note_on,134,0,8,,,,,,,,,7,,,57,0
376882,note_on,135,0,6,,,,,,,,,5,,,57,0
376882,note_on,136,0,5,,,,,,,,,4,,,57,0
376882,note_on,106,0,3,,,,,,,,,2,,,77,0
376882,note_on,137,0,4,,,,,,,,,3,,,72,0
376899,note_on,44,0,7,,,,,,,,,6,,,74,127
376924,note_on,45,0,1,,,,,,,,,0,,,74,127
376924,note_on,42,0,4,,,,,,,,,3,,,74,65
376924,note_on,42,0,3,,,,,,,,,2,,,74,64
376924,note_on,45,0,2,,,,,,,,,1,,,74,64
376926,note_on,44,0,8,,,,,,,,,7,,,59,127
376926,note_on,44,0,6,,,,,,,,,5,,,59,90
376926,note_on,44,0,5,,,,,,,,,4,,,59,90
377032,note_on,133,0,7,,,,,,,,,6,,,74,0
377035,note_on,3,0,7,,,,,,,,,6,,,65,0
377057,note_on,133,0,4,,,,,,,,,3,,,74,0
377057,note_on,131,0,8,,,,,,,,,7,,,59,0
377057,note_on,131,0,6,,,,,,,,,5,,,59,0
377057,note_on,131,0,5,,,,,,,,,4,,,59,0
377078,note_on,0,0,7,,,,,,,,,6,,,64,127
377078,note_on,43,0,7,,,,,,,,,6,,,71,127
377099,note_on,42,0,4,,,,,,,,,3,,,71,65
377100,note_on,43,0,5,,,,,,,,,4,,,56,90
377100,note_on,43,0,6,,,,,,,,,5,,,56,90
377100,note_on,43,0,8,,,,,,,,,7,,,56,127
377234,note_on,310,0,1,,,,,,,,,0,,,74,0
377234,note_on,310,0,2,,,,,,,,,1,,,74,0
377234,note_on,310,0,3,,,,,,,,,2,,,74,0
377234,note_on,135,0,4,,,,,,,,,3,,,71,0
377237,note_on,137,0,6,,,,,,,,,5,,,56,0
377237,note_on,137,0,5,,,,,,,,,4,,,56,0
377237,note_on,137,0,8,,,,,,,,,7,,,56,0
377276,note_on,42,0,2,,,,,,,,,1,,,76,64
377276,note_on,42,0,1,,,,,,,,,0,,,76,127
377277,note_on,43,0,4,,,,,,,,,3,,,68,65
377277,note_on,43,0,3,,,,,,,,,2,,,76,64
377279,note_on,42,0,5,,,,,,,,,4,,,52,90
377280,note_on,43,0,6,,,,,,,,,5,,,52,90
377280,note_on,43,0,8,,,,,,,,,7,,,52,127
377388,note_on,310,0,7,,,,,,,,,6,,,71,0
377392,note_on,4,0,7,,,,,,,,,6,,,64,0
377409,note_on,133,0,1,,,,,,,,,0,,,76,0
377409,note_on,133,0,2,,,,,,,,,1,,,76,0
377410,note_on,133,0,3,,,,,,,,,2,,,76,0
377411,note_on,134,0,4,,,,,,,,,3,,,68,0
377412,note_on,133,0,5,,,,,,,,,4,,,52,0
377412,note_on,132,0,6,,,,,,,,,5,,,52,0
377412,note_on,132,0,8,,,,,,,,,7,,,52,0
377432,note_on,0,0,7,,,,,,,,,6,,,64,127
377432,note_on,40,0,7,,,,,,,,,6,,,72,127
377454,note_on,45,0,1,,,,,,,,,0,,,72,127
377458,note_on,47,0,4,,,,,,,,,3,,,64,65
377458,note_on,46,0,8,,,,,,,,,7,,,57,127
377458,note_on,46,0,5,,,,,,,,,4,,,57,90
377458,note_on,46,0,6,,,,,,,,,5,,,57,90
377458,note_on,49,0,2,,,,,,,,,1,,,72,64
377458,note_on,48,0,3,,,,,,,,,2,,,72,64
377587,note_on,133,0,1,,,,,,,,,0,,,72,0
377587,note_on,129,0,2,,,,,,,,,1,,,72,0
377591,note_on,133,0,5,,,,,,,,,4,,,57,0
377591,note_on,133,0,8,,,,,,,,,7,,,57,0
377591,note_on,133,0,3,,,,,,,,,2,,,72,0
377591,note_on,133,0,6,,,,,,,,,5,,,57,0
377634,note_on,43,0,3,,,,,,,,,2,,,71,64
377634,note_on,47,0,2,,,,,,,,,1,,,71,64
377634,note_on,43,0,5,,,,,,,,,4,,,56,90
377634,note_on,47,0,1,,,,,,,,,0,,,71,127
377635,note_on,44,0,8,,,,,,,,,7,,,56,127
377635,note_on,44,0,6,,,,,,,,,5,,,56,90
377717,note_on,83,0,1,,,,,,,,,0,,,71,0
377721,note_on,4,0,1,,,,,,,,,0,,,69,127
377721,note_on,87,0,3,,,,,,,,,2,,,69,64
377721,note_on,87,0,2,,,,,,,,,1,,,69,64
377747,note_on,26,0,2,,,,,,,,,1,,,71,0
377748,note_on,27,0,3,,,,,,,,,2,,,71,0
377765,note_on,130,0,6,,,,,,,,,5,,,56,0
377765,note_on,131,0,5,,,,,,,,,4,,,56,0
377766,note_on,131,0,8,,,,,,,,,7,,,56,0
377807,note_on,86,0,1,,,,,,,,,0,,,69,0
377812,note_on,46,0,8,,,,,,,,,7,,,57,127
377812,note_on,64,0,3,,,,,,,,,2,,,72,64
377812,note_on,5,0,1,,,,,,,,,0,,,72,127
377812,note_on,65,0,2,,,,,,,,,1,,,72,64
377812,note_on,47,0,5,,,,,,,,,4,,,57,90
377812,note_on,47,0,6,,,,,,,,,5,,,57,90
377839,note_on,27,0,2,,,,,,,,,1,,,69,0
377839,note_on,27,0,3,,,,,,,,,2,,,69,0
377942,note_on,130,0,1,,,,,,,,,0,,,72,0
377943,note_on,485,0,4,,,,,,,,,3,,,64,0
377943,note_on,104,0,3,,,,,,,,,2,,,72,0
377943,note_on,104,0,2,,,,,,,,,1,,,72,0
377944,note_on,132,0,5,,,,,,,,,4,,,57,0
377944,note_on,132,0,8,,,,,,,,,7,,,57,0
377944,note_on,132,0,6,,,,,,,,,5,,,57,0
377985,note_on,43,0,1,,,,,,,,,0,,,71,127
377986,note_on,43,0,2,,,,,,,,,1,,,71,64
377986,note_on,43,0,3,,,,,,,,,2,,,71,64
377986,note_on,43,0,4,,,,,,,,,3,,,64,65
377987,note_on,43,0,5,,,,,,,,,4,,,45,90
377988,note_on,44,0,8,,,,,,,,,7,,,45,127
377988,note_on,44,0,6,,,,,,,,,5,,,45,90
378073,note_on,88,0,1,,,,,,,,,0,,,71,0
378074,note_on,88,0,2,,,,,,,,,1,,,69,64
378074,note_on,1,0,1,,,,,,,,,0,,,69,127
378076,note_on,90,0,3,,,,,,,,,2,,,69,64
378094,note_on,662,0,7,,,,,,,,,6,,,64,0
378099,note_on,5,0,7,,,,,,,,,6,,,72,0
378106,note_on,30,0,3,,,,,,,,,2,,,71,0
378106,note_on,32,0,2,,,,,,,,,1,,,71,0
378119,note_on,133,0,4,,,,,,,,,3,,,64,0
378119,note_on,132,0,5,,,,,,,,,4,,,45,0
378121,note_on,133,0,6,,,,,,,,,5,,,45,0
378121,note_on,133,0,8,,,,,,,,,7,,,45,0
378140,note_on,0,0,7,,,,,,,,,6,,,64,127
378140,note_on,41,0,7,,,,,,,,,6,,,73,127
378160,note_on,86,0,1,,,,,,,,,0,,,69,0
378166,note_on,47,0,4,,,,,,,,,3,,,61,65
378166,note_on,60,0,2,,,,,,,,,1,,,81,64
378166,note_on,6,0,1,,,,,,,,,0,,,81,127
378166,note_on,60,0,3,,,,,,,,,2,,,81,64
378167,note_on,48,0,5,,,,,,,,,4,,,57,90
378168,note_on,47,0,8,,,,,,,,,7,,,57,127
378168,note_on,47,0,6,,,,,,,,,5,,,57,90
378193,note_on,27,0,2,,,,,,,,,1,,,69,0
378193,note_on,27,0,3,,,,,,,,,2,,,69,0
378276,note_on,136,0,7,,,,,,,,,6,,,73,0
378278,note_on,2,0,7,,,,,,,,,6,,,64,0
378296,note_on,130,0,1,,,,,,,,,0,,,81,0
378297,note_on,104,0,3,,,,,,,,,2,,,81,0
378297,note_on,104,0,2,,,,,,,,,1,,,81,0
378301,note_on,133,0,8,,,,,,,,,7,,,57,0
378301,note_on,134,0,5,,,,,,,,,4,,,57,0
378301,note_on,135,0,4,,,,,,,,,3,,,61,0
378301,note_on,133,0,6,,,,,,,,,5,,,57,0
378319,note_on,0,0,7,,,,,,,,,6,,,66,127
378319,note_on,41,0,7,,,,,,,,,6,,,74,127
378339,note_on,43,0,1,,,,,,,,,0,,,80,127
378340,note_on,43,0,2,,,,,,,,,1,,,80,64
378340,note_on,43,0,3,,,,,,,,,2,,,80,64
378340,note_on,39,0,4,,,,,,,,,3,,,66,65
378341,note_on,40,0,5,,,,,,,,,4,,,62,90
378342,note_on,41,0,8,,,,,,,,,7,,,62,127
378342,note_on,41,0,6,,,,,,,,,5,,,62,90
378428,note_on,89,0,1,,,,,,,,,0,,,80,0
378431,note_on,91,0,2,,,,,,,,,1,,,78,64
378431,note_on,91,0,3,,,,,,,,,2,,,78,64
378431,note_on,3,0,1,,,,,,,,,0,,,78,127
378451,note_on,132,0,7,,,,,,,,,6,,,74,0
378455,note_on,4,0,7,,,,,,,,,6,,,66,0
378458,note_on,27,0,2,,,,,,,,,1,,,80,0
378458,note_on,27,0,3,,,,,,,,,2,,,80,0
378472,note_on,132,0,4,,,,,,,,,3,,,66,0
378472,note_on,131,0,5,,,,,,,,,4,,,62,0
378474,note_on,132,0,8,,,,,,,,,7,,,62,0
378474,note_on,132,0,6,,,,,,,,,5,,,62,0
378495,note_on,0,0,7,,,,,,,,,6,,,71,127
378495,note_on,40,0,7,,,,,,,,,6,,,76,127
378514,note_on,83,0,1,,,,,,,,,0,,,78,0
378520,note_on,6,0,1,,,,,,,,,0,,,76,127
378520,note_on,48,0,4,,,,,,,,,3,,,71,65
378520,note_on,62,0,3,,,,,,,,,2,,,76,64
378520,note_on,62,0,2,,,,,,,,,1,,,76,64
378520,note_on,48,0,5,,,,,,,,,4,,,56,90
378523,note_on,49,0,8,,,,,,,,,7,,,56,127
378523,note_on,49,0,6,,,,,,,,,5,,,56,90
378547,note_on,27,0,3,,,,,,,,,2,,,78,0
378547,note_on,27,0,2,,,,,,,,,1,,,78,0
378627,note_on,132,0,7,,,,,,,,,6,,,76,0
378632,note_on,5,0,7,,,,,,,,,6,,,71,0
378651,note_on,131,0,1,,,,,,,,,0,,,76,0
378652,note_on,105,0,2,,,,,,,,,1,,,76,0
378652,note_on,105,0,3,,,,,,,,,2,,,76,0
378656,note_on,133,0,6,,,,,,,,,5,,,56,0
378656,note_on,133,0,8,,,,,,,,,7,,,56,0
378656,note_on,136,0,5,,,,,,,,,4,,,56,0
378656,note_on,136,0,4,,,,,,,,,3,,,71,0
378673,note_on,41,0,7,,,,,,,,,6,,,74,127
378673,note_on,0,0,7,,,,,,,,,6,,,68,127
378695,note_on,44,0,1,,,,,,,,,0,,,74,127
378697,note_on,45,0,2,,,,,,,,,1,,,74,64
378697,note_on,41,0,5,,,,,,,,,4,,,52,90
378697,note_on,45,0,3,,,,,,,,,2,,,74,64
378697,note_on,41,0,8,,,,,,,,,7,,,52,127
378697,note_on,41,0,4,,,,,,,,,3,,,68,65
378697,note_on,41,0,6,,,,,,,,,5,,,52,90
378806,note_on,133,0,7,,,,,,,,,6,,,74,0
378808,note_on,2,0,7,,,,,,,,,6,,,68,0
378827,note_on,132,0,1,,,,,,,,,0,,,74,0
378828,note_on,131,0,2,,,,,,,,,1,,,74,0
378829,note_on,132,0,3,,,,,,,,,2,,,74,0
378829,note_on,132,0,4,,,,,,,,,3,,,68,0
378830,note_on,133,0,8,,,,,,,,,7,,,52,0
378830,note_on,133,0,5,,,,,,,,,4,,,52,0
378830,note_on,133,0,6,,,,,,,,,5,,,52,0
378851,note_on,0,0,7,,,,,,,,,6,,,64,127
378851,note_on,43,0,7,,,,,,,,,6,,,73,127
378872,note_on,45,0,1,,,,,,,,,0,,,73,127
378875,note_on,46,0,4,,,,,,,,,3,,,64,65
378875,note_on,47,0,2,,,,,,,,,1,,,73,64
378875,note_on,46,0,3,,,,,,,,,2,,,73,64
378875,note_on,45,0,5,,,,,,,,,4,,,57,90
378875,note_on,45,0,8,,,,,,,,,7,,,57,127
378875,note_on,45,0,6,,,,,,,,,5,,,57,90
379005,note_on,133,0,1,,,,,,,,,0,,,73,0
379006,note_on,131,0,2,,,,,,,,,1,,,73,0
379006,note_on,131,0,3,,,,,,,,,2,,,73,0
379006,note_on,131,0,4,,,,,,,,,3,,,64,0
379007,note_on,132,0,5,,,,,,,,,4,,,57,0
379008,note_on,133,0,6,,,,,,,,,5,,,57,0
379008,note_on,133,0,8,,,,,,,,,7,,,57,0
379050,note_on,44,0,2,,,,,,,,,1,,,69,64
379050,note_on,45,0,1,,,,,,,,,0,,,69,127
379051,note_on,45,0,3,,,,,,,,,2,,,69,64
379051,note_on,44,0,5,,,,,,,,,4,,,45,90
379051,note_on,45,0,4,,,,,,,,,3,,,64,65
379052,note_on,44,0,6,,,,,,,,,5,,,45,90
379052,note_on,44,0,8,,,,,,,,,7,,,45,127
379161,note_on,310,0,7,,,,,,,,,6,,,73,0
379163,note_on,2,0,7,,,,,,,,,6,,,64,0
379183,note_on,133,0,1,,,,,,,,,0,,,69,0
379183,note_on,133,0,2,,,,,,,,,1,,,69,0
379187,note_on,136,0,3,,,,,,,,,2,,,69,0
379187,note_on,136,0,5,,,,,,,,,4,,,45,0
379187,note_on,135,0,6,,,,,,,,,5,,,45,0
379187,note_on,136,0,4,,,,,,,,,3,,,64,0
379187,note_on,135,0,8,,,,,,,,,7,,,45,0
379203,note_on,0,0,7,,,,,,,,,6,,,66,127
379203,note_on,40,0,7,,,,,,,,,6,,,71,127
379228,note_on,45,0,1,,,,,,,,,0,,,71,127
379228,note_on,45,0,2,,,,,,,,,1,,,71,64
379229,note_on,42,0,4,,,,,,,,,3,,,66,65
379229,note_on,42,0,6,,,,,,,,,5,,,50,90
379229,note_on,42,0,3,,,,,,,,,2,,,71,64
379229,note_on,42,0,5,,,,,,,,,4,,,50,90
379231,note_on,44,0,8,,,,,,,,,7,,,50,127
379342,note_on,139,0,7,,,,,,,,,6,,,66,0
379363,note_on,135,0,1,,,,,,,,,0,,,71,0
379363,note_on,135,0,2,,,,,,,,,1,,,71,0
379363,note_on,134,0,6,,,,,,,,,5,,,50,0
379363,note_on,132,0,8,,,,,,,,,7,,,50,0
379363,note_on,134,0,3,,,,,,,,,2,,,71,0
379363,note_on,134,0,5,,,,,,,,,4,,,50,0
379363,note_on,134,0,4,,,,,,,,,3,,,66,0
379382,note_on,40,0,7,,,,,,,,,6,,,68,127
379404,note_on,41,0,2,,,,,,,,,1,,,68,64
379404,note_on,41,0,1,,,,,,,,,0,,,68,127
379405,note_on,42,0,3,,,,,,,,,2,,,68,64
379405,note_on,42,0,4,,,,,,,,,3,,,59,65
379406,note_on,43,0,6,,,,,,,,,5,,,52,90
379406,note_on,43,0,5,,,,,,,,,4,,,52,90
379407,note_on,44,0,8,,,,,,,,,7,,,52,127
379514,note_on,132,0,7,,,,,,,,,6,,,68,0
379517,note_on,3,0,7,,,,,,,,,6,,,71,0
379540,note_on,135,0,3,,,,,,,,,2,,,68,0
379540,note_on,136,0,2,,,,,,,,,1,,,68,0
379540,note_on,135,0,4,,,,,,,,,3,,,59,0
379540,note_on,134,0,5,,,,,,,,,4,,,52,0
379540,note_on,136,0,1,,,,,,,,,0,,,68,0
379541,note_on,135,0,6,,,,,,,,,5,,,52,0
379541,note_on,134,0,8,,,,,,,,,7,,,52,0
379557,note_on,0,0,7,,,,,,,,,6,,,64,127
379557,note_on,40,0,7,,,,,,,,,6,,,73,127
379581,note_on,41,0,1,,,,,,,,,0,,,81,127
379584,note_on,44,0,5,,,,,,,,,4,,,45,90
379584,note_on,43,0,8,,,,,,,,,7,,,45,127
379584,note_on,44,0,4,,,,,,,,,3,,,61,65
379584,note_on,44,0,2,,,,,,,,,1,,,81,64
379584,note_on,44,0,3,,,,,,,,,2,,,81,64
379584,note_on,43,0,6,,,,,,,,,5,,,45,90
379693,note_on,136,0,7,,,,,,,,,6,,,73,0
379696,note_on,3,0,7,,,,,,,,,6,,,64,0
379713,note_on,132,0,1,,,,,,,,,0,,,81,0
379713,note_on,129,0,2,,,,,,,,,1,,,81,0
379714,note_on,130,0,3,,,,,,,,,2,,,81,0
379716,note_on,132,0,6,,,,,,,,,5,,,45,0
379716,note_on,132,0,5,,,,,,,,,4,,,45,0
379716,note_on,132,0,8,,,,,,,,,7,,,45,0
379716,note_on,132,0,4,,,,,,,,,3,,,61,0
379736,note_on,40,0,7,,,,,,,,,6,,,74,127
379736,note_on,0,0,7,,,,,,,,,6,,,66,127
379759,note_on,46,0,2,,,,,,,,,1,,,80,64
379759,note_on,45,0,3,,,,,,,,,2,,,80,64
379759,note_on,46,0,1,,,,,,,,,0,,,80,127
379761,note_on,45,0,5,,,,,,,,,4,,,62,90
379761,note_on,45,0,4,,,,,,,,,3,,,66,65
379763,note_on,47,0,8,,,,,,,,,7,,,62,127
379763,note_on,47,0,6,,,,,,,,,5,,,62,90
379845,note_on,86,0,1,,,,,,,,,0,,,80,0
379848,note_on,3,0,1,,,,,,,,,0,,,78,127
379848,note_on,89,0,2,,,,,,,,,1,,,78,64
379848,note_on,89,0,3,,,,,,,,,2,,,78,64
379870,note_on,134,0,7,,,,,,,,,6,,,74,0
379873,note_on,3,0,7,,,,,,,,,6,,,66,0
379877,note_on,29,0,2,,,,,,,,,1,,,80,0
379878,note_on,30,0,3,,,,,,,,,2,,,80,0
379891,note_on,130,0,4,,,,,,,,,3,,,66,0
379892,note_on,129,0,8,,,,,,,,,7,,,62,0
379892,note_on,131,0,5,,,,,,,,,4,,,62,0
379892,note_on,129,0,6,,,,,,,,,5,,,62,0
379915,note_on,0,0,7,,,,,,,,,6,,,71,127
379915,note_on,42,0,7,,,,,,,,,6,,,76,127
379934,note_on,86,0,1,,,,,,,,,0,,,78,0
379936,note_on,2,0,1,,,,,,,,,0,,,76,127
379938,note_on,47,0,4,,,,,,,,,3,,,71,65
379938,note_on,61,0,2,,,,,,,,,1,,,76,64
379938,note_on,60,0,3,,,,,,,,,2,,,76,64
379940,note_on,48,0,8,,,,,,,,,7,,,56,127
379940,note_on,48,0,5,,,,,,,,,4,,,56,90
379940,note_on,48,0,6,,,,,,,,,5,,,56,90
379965,note_on,27,0,3,,,,,,,,,2,,,78,0
379965,note_on,27,0,2,,,,,,,,,1,,,78,0
380047,note_on,132,0,7,,,,,,,,,6,,,76,0
380050,note_on,3,0,7,,,,,,,,,6,,,71,0
380069,note_on,104,0,2,,,,,,,,,1,,,76,0
380069,note_on,133,0,1,,,,,,,,,0,,,76,0
380070,note_on,132,0,4,,,,,,,,,3,,,71,0
380070,note_on,130,0,5,,,,,,,,,4,,,56,0
380070,note_on,105,0,3,,,,,,,,,2,,,76,0
380072,note_on,132,0,6,,,,,,,,,5,,,56,0
380072,note_on,132,0,8,,,,,,,,,7,,,56,0
380090,note_on,0,0,7,,,,,,,,,6,,,68,127
380090,note_on,40,0,7,,,,,,,,,6,,,74,127
380115,note_on,45,0,3,,,,,,,,,2,,,74,64
380115,note_on,46,0,2,,,,,,,,,1,,,74,64
380115,note_on,46,0,1,,,,,,,,,0,,,74,127
380116,note_on,46,0,5,,,,,,,,,4,,,52,90
380116,note_on,46,0,4,,,,,,,,,3,,,68,65
380118,note_on,46,0,6,,,,,,,,,5,,,52,90
380118,note_on,46,0,8,,,,,,,,,7,,,52,127
380222,note_on,132,0,7,,,,,,,,,6,,,74,0
380226,note_on,4,0,7,,,,,,,,,6,,,68,0
380246,note_on,131,0,1,,,,,,,,,0,,,74,0
380249,note_on,133,0,4,,,,,,,,,3,,,68,0
380249,note_on,131,0,8,,,,,,,,,7,,,52,0
380249,note_on,134,0,3,,,,,,,,,2,,,74,0
380249,note_on,134,0,2,,,,,,,,,1,,,74,0
380249,note_on,133,0,5,,,,,,,,,4,,,52,0
380249,note_on,131,0,6,,,,,,,,,5,,,52,0
380268,note_on,42,0,7,,,,,,,,,6,,,73,127
380268,note_on,0,0,7,,,,,,,,,6,,,64,127
380291,note_on,45,0,1,,,,,,,,,0,,,73,127
380291,note_on,42,0,2,,,,,,,,,1,,,73,64
380294,note_on,45,0,4,,,,,,,,,3,,,64,65
380294,note_on,45,0,3,,,,,,,,,2,,,73,64
380294,note_on,45,0,6,,,,,,,,,5,,,57,90
380294,note_on,45,0,5,,,,,,,,,4,,,57,90
380295,note_on,46,0,8,,,,,,,,,7,,,57,127
380425,note_on,134,0,1,,,,,,,,,0,,,73,0
380425,note_on,134,0,2,,,,,,,,,1,,,73,0
380426,note_on,132,0,4,,,,,,,,,3,,,64,0
380426,note_on,132,0,3,,,,,,,,,2,,,73,0
380426,note_on,132,0,5,,,,,,,,,4,,,57,0
380428,note_on,133,0,8,,,,,,,,,7,,,57,0
380428,note_on,134,0,6,,,,,,,,,5,,,57,0
380467,note_on,42,0,1,,,,,,,,,0,,,69,127
380471,note_on,45,0,5,,,,,,,,,4,,,45,90
380471,note_on,45,0,4,,,,,,,,,3,,,64,65
380471,note_on,43,0,8,,,,,,,,,7,,,45,127
380471,note_on,45,0,3,,,,,,,,,2,,,69,64
380471,note_on,46,0,2,,,,,,,,,1,,,69,64
380471,note_on,43,0,6,,,,,,,,,5,,,45,90
380579,note_on,311,0,7,,,,,,,,,6,,,73,0
380580,note_on,1,0,7,,,,,,,,,6,,,64,0
380601,note_on,134,0,1,,,,,,,,,0,,,69,0
380602,note_on,131,0,4,,,,,,,,,3,,,64,0
380602,note_on,131,0,6,,,,,,,,,5,,,45,0
380602,note_on,131,0,3,,,,,,,,,2,,,69,0
380602,note_on,131,0,5,,,,,,,,,4,,,45,0
380602,note_on,131,0,2,,,,,,,,,1,,,69,0
380603,note_on,132,0,8,,,,,,,,,7,,,45,0
380623,note_on,43,0,7,,,,,,,,,6,,,71,127
380623,note_on,0,0,7,,,,,,,,,6,,,66,127
380646,note_on,45,0,1,,,,,,,,,0,,,71,127
380646,note_on,44,0,2,,,,,,,,,1,,,71,64
380647,note_on,45,0,3,,,,,,,,,2,,,71,64
380647,note_on,45,0,4,,,,,,,,,3,,,66,65
380649,note_on,46,0,8,,,,,,,,,7,,,50,127
380649,note_on,47,0,5,,,,,,,,,4,,,50,90
380649,note_on,47,0,6,,,,,,,,,5,,,50,90
380759,note_on,136,0,7,,,,,,,,,6,,,66,0
380776,note_on,130,0,1,,,,,,,,,0,,,71,0
380777,note_on,131,0,2,,,,,,,,,1,,,71,0
380777,note_on,130,0,3,,,,,,,,,2,,,71,0
380778,note_on,131,0,4,,,,,,,,,3,,,66,0
380780,note_on,131,0,8,,,,,,,,,7,,,50,0
380780,note_on,131,0,6,,,,,,,,,5,,,50,0
380780,note_on,131,0,5,,,,,,,,,4,,,50,0
380801,note_on,42,0,7,,,,,,,,,6,,,68,127
380822,note_on,46,0,1,,,,,,,,,0,,,68,127
380823,note_on,46,0,2,,,,,,,,,1,,,68,64
380823,note_on,46,0,3,,,,,,,,,2,,,68,64
380824,note_on,44,0,5,,,,,,,,,4,,,52,90
380824,note_on,46,0,4,,,,,,,,,3,,,59,65
380824,note_on,44,0,6,,,,,,,,,5,,,52,90
380825,note_on,45,0,8,,,,,,,,,7,,,52,127
380936,note_on,135,0,7,,,,,,,,,6,,,68,0
380936,note_on,0,0,7,,,,,,,,,6,,,71,0
380954,note_on,132,0,1,,,,,,,,,0,,,68,0
380956,note_on,133,0,2,,,,,,,,,1,,,68,0
380957,note_on,134,0,3,,,,,,,,,2,,,68,0
380957,note_on,133,0,4,,,,,,,,,3,,,59,0
380959,note_on,135,0,6,,,,,,,,,5,,,52,0
380959,note_on,134,0,8,,,,,,,,,7,,,52,0
380959,note_on,135,0,5,,,,,,,,,4,,,52,0
380977,note_on,41,0,7,,,,,,,,,6,,,69,127
380977,note_on,0,0,7,,,,,,,,,6,,,64,127
380977,note_on,0,0,7,,,,,,,,,6,,,61,127
381001,note_on,47,0,1,,,,,,,,,0,,,69,127
381001,note_on,45,0,2,,,,,,,,,1,,,69,64
381001,note_on,44,0,3,,,,,,,,,2,,,69,64
381003,note_on,44,0,8,,,,,,,,,7,,,45,127
381003,note_on,44,0,6,,,,,,,,,5,,,45,90
381003,note_on,46,0,4,,,,,,,,,3,,,61,65
381003,note_on,44,0,5,,,,,,,,,4,,,45,90
381687,note_on,710,0,7,,,,,,,,,6,,,61,0
381687,note_on,0,0,7,,,,,,,,,6,,,64,0
381691,end_of_track,0,1,7,,,,,,,,,,,,,
381691,note_on,4,0,7,,,,,,,,,6,,,69,0
381711,note_on,710,0,2,,,,,,,,,1,,,69,0
381711,note_on,708,0,6,,,,,,,,,5,,,45,0
381711,end_of_track,0,1,5,,,,,,,,,,,,,
381711,note_on,708,0,5,,,,,,,,,4,,,45,0
381711,end_of_track,0,1,2,,,,,,,,,,,,,
381711,note_on,710,0,1,,,,,,,,,0,,,69,0
381711,end_of_track,0,1,1,,,,,,,,,,,,,
381711,end_of_track,0,1,4,,,,,,,,,,,,,
381711,note_on,708,0,4,,,,,,,,,3,,,61,0
381711,end_of_track,0,1,3,,,,,,,,,,,,,
381711,note_on,710,0,3,,,,,,,,,2,,,69,0
381711,end_of_track,0,1,6,,,,,,,,,,,,,
381712,note_on,709,0,8,,,,,,,,,7,,,45,0
381712,end_of_track,0,1,8,,,,,,,,,,,,,
