tick,type,time,meta,track,numerator,denominator,clocks_per_click,notated_32nd_notes_per_beat,key,tempo,program,channel,control,value,note,velocity
0,track_name,0,1,0,,,,,,,,,,,,
0,control_change,0,0,2,,,,,,,,3,7,127,,
0,control_change,0,0,2,,,,,,,,3,10,39,,
0,note_on,0,0,2,,,,,,,,3,,,70,110
0,track_name,0,1,3,,,,,,,,,,,,
0,program_change,0,0,3,,,,,,,48,4,,,,
0,control_change,0,0,3,,,,,,,,4,7,127,,
0,control_change,0,0,3,,,,,,,,4,10,43,,
0,note_on,0,0,3,,,,,,,,4,,,70,110
0,track_name,0,1,4,,,,,,,,,,,,
0,program_change,0,0,4,,,,,,,48,1,,,,
0,control_change,0,0,4,,,,,,,,1,7,127,,
0,control_change,0,0,4,,,,,,,,1,10,82,,
0,note_on,0,0,4,,,,,,,,1,,,62,75
0,track_name,0,1,5,,,,,,,,,,,,
0,program_change,0,0,5,,,,,,,48,2,,,,
0,control_change,0,0,5,,,,,,,,2,7,127,,
0,control_change,0,0,5,,,,,,,,2,10,98,,
0,note_on,0,0,5,,,,,,,,2,,,58,75
0,track_name,0,1,6,,,,,,,,,,,,
0,program_change,0,0,6,,,,,,,48,5,,,,
0,control_change,0,0,6,,,,,,,,5,7,127,,
0,control_change,0,0,6,,,,,,,,5,10,73,,
0,note_on,0,0,6,,,,,,,,5,,,46,75
0,program_change,0,0,2,,,,,,,48,3,,,,
0,track_name,0,1,2,,,,,,,,,,,,
0,end_of_track,0,1,7,,,,,,,,,,,,
0,key_signature,0,1,0,,,,,Bb,,,,,,,
0,control_change,0,0,1,,,,,,,,0,10,64,,
0,note_on,0,0,1,,,,,,,,0,,,70,110
0,program_change,0,0,1,,,,,,,40,0,,,,
0,track_name,0,1,1,,,,,,,,,,,,
0,control_change,0,0,1,,,,,,,,0,7,100,,
0,copyright,0,1,0,,,,,,,,,,,,
0,time_signature,0,1,0,4,4,24,8,,,,,,,,
0,set_tempo,0,1,0,,,,,,555556,,,,,,
0,text,0,1,0,,,,,,,,,,,,
0,text,0,1,0,,,,,,,,,,,,
94,note_on,94,0,6,,,,,,,,5,,,46,0
94,note_on,94,0,4,,,,,,,,1,,,62,0
94,note_on,94,0,5,,,,,,,,2,,,58,0
96,note_on,2,0,4,,,,,,,,1,,,62,75
96,note_on,2,0,5,,,,,,,,2,,,58,75
96,note_on,2,0,6,,,,,,,,5,,,46,75
142,note_on,46,0,5,,,,,,,,2,,,58,0
142,note_on,46,0,4,,,,,,,,1,,,62,0
142,note_on,46,0,6,,,,,,,,5,,,46,0
144,note_on,2,0,4,,,,,,,,1,,,63,75
144,note_on,2,0,6,,,,,,,,5,,,48,75
144,note_on,2,0,5,,,,,,,,2,,,60,75
190,note_on,46,0,5,,,,,,,,2,,,60,0
190,note_on,46,0,6,,,,,,,,5,,,48,0
190,note_on,46,0,4,,,,,,,,1,,,63,0
192,note_on,2,0,4,,,,,,,,1,,,65,75
192,note_on,2,0,5,,,,,,,,2,,,62,75
192,note_on,2,0,6,,,,,,,,5,,,50,75
238,note_on,238,0,3,,,,,,,,4,,,70,0
238,note_on,238,0,1,,,,,,,,0,,,70,0
238,note_on,238,0,2,,,,,,,,3,,,70,0
240,note_on,2,0,2,,,,,,,,3,,,70,110
240,note_on,2,0,1,,,,,,,,0,,,70,110
240,note_on,2,0,3,,,,,,,,4,,,70,110
286,note_on,94,0,5,,,,,,,,2,,,62,0
286,note_on,46,0,1,,,,,,,,0,,,70,0
286,note_on,46,0,2,,,,,,,,3,,,70,0
286,note_on,46,0,3,,,,,,,,4,,,70,0
286,note_on,94,0,6,,,,,,,,5,,,50,0
286,note_on,94,0,4,,,,,,,,1,,,65,0
288,note_on,2,0,4,,,,,,,,1,,,62,75
288,note_on,2,0,6,,,,,,,,5,,,46,75
288,note_on,2,0,1,,,,,,,,0,,,82,110
288,note_on,2,0,3,,,,,,,,4,,,82,110
288,note_on,2,0,5,,,,,,,,2,,,58,75
288,note_on,2,0,2,,,,,,,,3,,,82,110
334,note_on,46,0,2,,,,,,,,3,,,82,0
334,note_on,46,0,3,,,,,,,,4,,,82,0
334,note_on,46,0,1,,,,,,,,0,,,82,0
336,note_on,2,0,1,,,,,,,,0,,,70,110
336,note_on,2,0,2,,,,,,,,3,,,70,110
336,note_on,2,0,3,,,,,,,,4,,,70,110
382,note_on,46,0,1,,,,,,,,0,,,70,0
382,note_on,94,0,5,,,,,,,,2,,,58,0
382,note_on,94,0,4,,,,,,,,1,,,62,0
382,note_on,94,0,6,,,,,,,,5,,,46,0
382,note_on,46,0,3,,,,,,,,4,,,70,0
382,note_on,46,0,2,,,,,,,,3,,,70,0
384,note_on,2,0,4,,,,,,,,1,,,70,75
384,note_on,2,0,1,,,,,,,,0,,,82,110
384,note_on,2,0,3,,,,,,,,4,,,82,110
384,note_on,2,0,2,,,,,,,,3,,,82,110
384,note_on,2,0,5,,,,,,,,2,,,55,75
384,note_on,2,0,6,,,,,,,,5,,,43,75
430,note_on,46,0,3,,,,,,,,4,,,82,0
430,note_on,46,0,2,,,,,,,,3,,,82,0
430,note_on,46,0,1,,,,,,,,0,,,82,0
432,note_on,2,0,2,,,,,,,,3,,,70,110
432,note_on,2,0,1,,,,,,,,0,,,70,110
432,note_on,2,0,3,,,,,,,,4,,,70,110
478,note_on,46,0,3,,,,,,,,4,,,70,0
478,note_on,46,0,2,,,,,,,,3,,,70,0
478,note_on,94,0,4,,,,,,,,1,,,70,0
478,note_on,94,0,6,,,,,,,,5,,,43,0
478,note_on,94,0,5,,,,,,,,2,,,55,0
478,note_on,46,0,1,,,,,,,,0,,,70,0
480,note_on,2,0,6,,,,,,,,5,,,43,75
480,note_on,2,0,4,,,,,,,,1,,,70,75
480,note_on,2,0,1,,,,,,,,0,,,82,110
480,note_on,2,0,5,,,,,,,,2,,,55,75
480,note_on,2,0,3,,,,,,,,4,,,82,110
480,note_on,2,0,2,,,,,,,,3,,,82,110
526,note_on,46,0,5,,,,,,,,2,,,55,0
526,note_on,46,0,6,,,,,,,,5,,,43,0
526,note_on,46,0,4,,,,,,,,1,,,70,0
528,note_on,2,0,6,,,,,,,,5,,,45,75
528,note_on,2,0,4,,,,,,,,1,,,72,75
528,note_on,2,0,5,,,,,,,,2,,,57,75
574,note_on,46,0,4,,,,,,,,1,,,72,0
574,note_on,46,0,5,,,,,,,,2,,,57,0
574,note_on,46,0,6,,,,,,,,5,,,45,0
576,note_on,2,0,6,,,,,,,,5,,,46,75
576,note_on,2,0,5,,,,,,,,2,,,58,75
576,note_on,2,0,4,,,,,,,,1,,,74,75
622,note_on,142,0,3,,,,,,,,4,,,82,0
622,note_on,142,0,2,,,,,,,,3,,,82,0
622,note_on,142,0,1,,,,,,,,0,,,82,0
624,note_on,2,0,1,,,,,,,,0,,,70,110
624,note_on,2,0,3,,,,,,,,4,,,70,110
624,note_on,2,0,2,,,,,,,,3,,,70,110
670,note_on,94,0,5,,,,,,,,2,,,58,0
670,note_on,46,0,3,,,,,,,,4,,,70,0
670,note_on,94,0,4,,,,,,,,1,,,74,0
670,note_on,46,0,2,,,,,,,,3,,,70,0
670,note_on,94,0,6,,,,,,,,5,,,46,0
670,note_on,46,0,1,,,,,,,,0,,,70,0
672,note_on,2,0,2,,,,,,,,3,,,82,110
672,note_on,2,0,6,,,,,,,,5,,,43,75
672,note_on,2,0,1,,,,,,,,0,,,82,110
672,note_on,2,0,3,,,,,,,,4,,,82,110
672,note_on,2,0,5,,,,,,,,2,,,55,75
672,note_on,2,0,4,,,,,,,,1,,,70,75
718,note_on,46,0,3,,,,,,,,4,,,82,0
718,note_on,46,0,2,,,,,,,,3,,,82,0
718,note_on,46,0,1,,,,,,,,0,,,82,0
720,note_on,2,0,1,,,,,,,,0,,,70,110
720,note_on,2,0,2,,,,,,,,3,,,70,110
720,note_on,2,0,3,,,,,,,,4,,,70,110
766,note_on,94,0,5,,,,,,,,2,,,55,0
766,note_on,46,0,1,,,,,,,,0,,,70,0
766,note_on,94,0,4,,,,,,,,1,,,70,0
766,note_on,46,0,3,,,,,,,,4,,,70,0
766,note_on,46,0,2,,,,,,,,3,,,70,0
766,note_on,94,0,6,,,,,,,,5,,,43,0
768,note_on,2,0,4,,,,,,,,1,,,67,75
768,note_on,2,0,3,,,,,,,,4,,,82,110
768,note_on,2,0,1,,,,,,,,0,,,82,110
768,note_on,2,0,6,,,,,,,,5,,,39,75
768,note_on,2,0,2,,,,,,,,3,,,82,110
768,note_on,2,0,5,,,,,,,,2,,,51,75
814,note_on,46,0,1,,,,,,,,0,,,82,0
814,note_on,46,0,2,,,,,,,,3,,,82,0
814,note_on,46,0,3,,,,,,,,4,,,82,0
816,note_on,2,0,1,,,,,,,,0,,,70,110
816,note_on,2,0,2,,,,,,,,3,,,70,110
816,note_on,2,0,3,,,,,,,,4,,,70,110
862,note_on,46,0,1,,,,,,,,0,,,70,0
862,note_on,46,0,3,,,,,,,,4,,,70,0
862,note_on,94,0,5,,,,,,,,2,,,51,0
862,note_on,94,0,6,,,,,,,,5,,,39,0
862,note_on,94,0,4,,,,,,,,1,,,67,0
862,note_on,46,0,2,,,,,,,,3,,,70,0
864,note_on,2,0,2,,,,,,,,3,,,82,110
864,note_on,2,0,6,,,,,,,,5,,,39,75
864,note_on,2,0,3,,,,,,,,4,,,82,110
864,note_on,2,0,4,,,,,,,,1,,,67,75
864,note_on,2,0,5,,,,,,,,2,,,51,75
864,note_on,2,0,1,,,,,,,,0,,,82,110
910,note_on,46,0,4,,,,,,,,1,,,67,0
910,note_on,46,0,6,,,,,,,,5,,,39,0
910,note_on,46,0,5,,,,,,,,2,,,51,0
912,note_on,2,0,5,,,,,,,,2,,,53,75
912,note_on,2,0,6,,,,,,,,5,,,41,75
912,note_on,2,0,4,,,,,,,,1,,,69,75
958,note_on,46,0,5,,,,,,,,2,,,53,0
958,note_on,46,0,6,,,,,,,,5,,,41,0
958,note_on,46,0,4,,,,,,,,1,,,69,0
960,note_on,2,0,6,,,,,,,,5,,,43,75
960,note_on,2,0,5,,,,,,,,2,,,55,75
960,note_on,2,0,4,,,,,,,,1,,,70,75
1006,note_on,142,0,3,,,,,,,,4,,,82,0
1006,note_on,142,0,2,,,,,,,,3,,,82,0
1006,note_on,142,0,1,,,,,,,,0,,,82,0
1008,note_on,2,0,2,,,,,,,,3,,,70,110
1008,note_on,2,0,1,,,,,,,,0,,,70,110
1008,note_on,2,0,3,,,,,,,,4,,,70,110
1054,note_on,46,0,3,,,,,,,,4,,,70,0
1054,note_on,94,0,4,,,,,,,,1,,,70,0
1054,note_on,94,0,5,,,,,,,,2,,,55,0
1054,note_on,46,0,1,,,,,,,,0,,,70,0
1054,note_on,46,0,2,,,,,,,,3,,,70,0
1054,note_on,94,0,6,,,,,,,,5,,,43,0
1056,note_on,2,0,4,,,,,,,,1,,,67,75
1056,note_on,2,0,5,,,,,,,,2,,,51,75
1056,note_on,2,0,6,,,,,,,,5,,,39,75
1056,note_on,2,0,3,,,,,,,,4,,,82,110
1056,note_on,2,0,2,,,,,,,,3,,,82,110
1056,note_on,2,0,1,,,,,,,,0,,,82,110
1102,note_on,46,0,2,,,,,,,,3,,,82,0
1102,note_on,46,0,3,,,,,,,,4,,,82,0
1102,note_on,46,0,1,,,,,,,,0,,,82,0
1104,note_on,2,0,3,,,,,,,,4,,,70,110
1104,note_on,2,0,1,,,,,,,,0,,,70,110
1104,note_on,2,0,2,,,,,,,,3,,,70,110
1150,note_on,46,0,2,,,,,,,,3,,,70,0
1150,note_on,94,0,4,,,,,,,,1,,,67,0
1150,note_on,46,0,1,,,,,,,,0,,,70,0
1150,note_on,94,0,5,,,,,,,,2,,,51,0
1150,note_on,94,0,6,,,,,,,,5,,,39,0
1150,note_on,46,0,3,,,,,,,,4,,,70,0
1152,note_on,2,0,3,,,,,,,,4,,,82,110
1152,note_on,2,0,4,,,,,,,,1,,,65,75
1152,note_on,2,0,5,,,,,,,,2,,,50,75
1152,note_on,2,0,1,,,,,,,,0,,,82,110
1152,note_on,2,0,2,,,,,,,,3,,,82,110
1152,note_on,2,0,6,,,,,,,,5,,,38,75
1246,note_on,94,0,6,,,,,,,,5,,,38,0
1246,note_on,94,0,2,,,,,,,,3,,,82,0
1246,note_on,94,0,4,,,,,,,,1,,,65,0
1246,note_on,94,0,5,,,,,,,,2,,,50,0
1246,note_on,94,0,1,,,,,,,,0,,,82,0
1246,note_on,94,0,3,,,,,,,,4,,,82,0
1248,note_on,2,0,1,,,,,,,,0,,,81,110
1248,note_on,2,0,6,,,,,,,,5,,,39,75
1248,note_on,2,0,3,,,,,,,,4,,,81,110
1248,note_on,2,0,2,,,,,,,,3,,,81,110
1248,note_on,2,0,5,,,,,,,,2,,,51,75
1248,note_on,2,0,4,,,,,,,,1,,,67,75
1294,note_on,46,0,2,,,,,,,,3,,,81,0
1294,note_on,46,0,3,,,,,,,,4,,,81,0
1294,note_on,46,0,1,,,,,,,,0,,,81,0
1296,note_on,2,0,3,,,,,,,,4,,,79,110
1296,note_on,2,0,1,,,,,,,,0,,,79,110
1296,note_on,2,0,2,,,,,,,,3,,,79,110
1342,note_on,94,0,5,,,,,,,,2,,,51,0
1342,note_on,46,0,1,,,,,,,,0,,,79,0
1342,note_on,94,0,4,,,,,,,,1,,,67,0
1342,note_on,46,0,2,,,,,,,,3,,,79,0
1342,note_on,46,0,3,,,,,,,,4,,,79,0
1342,note_on,94,0,6,,,,,,,,5,,,39,0
1344,note_on,2,0,2,,,,,,,,3,,,77,110
1344,note_on,2,0,1,,,,,,,,0,,,77,110
1344,note_on,2,0,3,,,,,,,,4,,,77,110
1344,note_on,2,0,5,,,,,,,,2,,,45,75
1344,note_on,2,0,4,,,,,,,,1,,,60,75
1344,note_on,2,0,6,,,,,,,,5,,,33,75
1390,note_on,46,0,3,,,,,,,,4,,,77,0
1390,note_on,46,0,1,,,,,,,,0,,,77,0
1390,note_on,46,0,2,,,,,,,,3,,,77,0
1392,note_on,2,0,2,,,,,,,,3,,,75,110
1392,note_on,2,0,3,,,,,,,,4,,,75,110
1392,note_on,2,0,1,,,,,,,,0,,,75,110
1438,note_on,94,0,6,,,,,,,,5,,,33,0
1438,note_on,94,0,5,,,,,,,,2,,,45,0
1438,note_on,46,0,1,,,,,,,,0,,,75,0
1438,note_on,94,0,4,,,,,,,,1,,,60,0
1438,note_on,46,0,3,,,,,,,,4,,,75,0
1438,note_on,46,0,2,,,,,,,,3,,,75,0
1440,note_on,2,0,1,,,,,,,,0,,,74,110
1440,note_on,2,0,5,,,,,,,,2,,,53,75
1440,note_on,2,0,3,,,,,,,,4,,,74,110
1440,note_on,2,0,2,,,,,,,,3,,,74,110
1440,note_on,2,0,4,,,,,,,,1,,,69,75
1440,note_on,2,0,6,,,,,,,,5,,,41,75
1486,note_on,46,0,2,,,,,,,,3,,,74,0
1486,note_on,46,0,1,,,,,,,,0,,,74,0
1486,note_on,46,0,3,,,,,,,,4,,,74,0
1488,note_on,2,0,3,,,,,,,,4,,,72,110
1488,note_on,2,0,2,,,,,,,,3,,,72,110
1488,note_on,2,0,1,,,,,,,,0,,,72,110
1534,note_on,46,0,1,,,,,,,,0,,,72,0
1534,note_on,46,0,2,,,,,,,,3,,,72,0
1534,note_on,94,0,4,,,,,,,,1,,,69,0
1534,note_on,94,0,6,,,,,,,,5,,,41,0
1534,note_on,46,0,3,,,,,,,,4,,,72,0
1534,note_on,94,0,5,,,,,,,,2,,,53,0
1536,note_on,2,0,4,,,,,,,,1,,,62,75
1536,note_on,2,0,5,,,,,,,,2,,,46,75
1536,note_on,2,0,2,,,,,,,,3,,,74,110
1536,note_on,2,0,1,,,,,,,,0,,,74,110
1536,note_on,2,0,6,,,,,,,,5,,,34,75
1536,note_on,2,0,3,,,,,,,,4,,,74,110
1630,note_on,94,0,5,,,,,,,,2,,,46,0
1630,note_on,94,0,4,,,,,,,,1,,,62,0
1630,note_on,94,0,1,,,,,,,,0,,,74,0
1630,note_on,94,0,6,,,,,,,,5,,,34,0
1630,note_on,94,0,2,,,,,,,,3,,,74,0
1630,note_on,94,0,3,,,,,,,,4,,,74,0
1632,note_on,2,0,1,,,,,,,,0,,,70,110
1632,note_on,2,0,2,,,,,,,,3,,,70,110
1632,note_on,2,0,3,,,,,,,,4,,,70,110
1632,note_on,2,0,5,,,,,,,,2,,,58,75
1632,note_on,2,0,6,,,,,,,,5,,,46,75
1632,note_on,2,0,4,,,,,,,,1,,,62,75
1678,note_on,46,0,6,,,,,,,,5,,,46,0
1678,note_on,46,0,5,,,,,,,,2,,,58,0
1678,note_on,46,0,4,,,,,,,,1,,,62,0
1680,note_on,2,0,4,,,,,,,,1,,,63,75
1680,note_on,2,0,5,,,,,,,,2,,,60,75
1680,note_on,2,0,6,,,,,,,,5,,,48,75
1726,note_on,46,0,4,,,,,,,,1,,,63,0
1726,note_on,46,0,6,,,,,,,,5,,,48,0
1726,note_on,46,0,5,,,,,,,,2,,,60,0
1728,note_on,2,0,6,,,,,,,,5,,,50,75
1728,note_on,2,0,4,,,,,,,,1,,,65,75
1728,note_on,2,0,5,,,,,,,,2,,,62,75
1774,note_on,142,0,3,,,,,,,,4,,,70,0
1774,note_on,142,0,2,,,,,,,,3,,,70,0
1774,note_on,142,0,1,,,,,,,,0,,,70,0
1776,note_on,2,0,2,,,,,,,,3,,,70,110
1776,note_on,2,0,3,,,,,,,,4,,,70,110
1776,note_on,2,0,1,,,,,,,,0,,,70,110
1822,note_on,46,0,3,,,,,,,,4,,,70,0
1822,note_on,46,0,2,,,,,,,,3,,,70,0
1822,note_on,94,0,6,,,,,,,,5,,,50,0
1822,note_on,46,0,1,,,,,,,,0,,,70,0
1822,note_on,94,0,4,,,,,,,,1,,,65,0
1822,note_on,94,0,5,,,,,,,,2,,,62,0
1824,note_on,2,0,4,,,,,,,,1,,,62,75
1824,note_on,2,0,2,,,,,,,,3,,,82,110
1824,note_on,2,0,6,,,,,,,,5,,,46,75
1824,note_on,2,0,1,,,,,,,,0,,,82,110
1824,note_on,2,0,5,,,,,,,,2,,,58,75
1824,note_on,2,0,3,,,,,,,,4,,,82,110
1870,note_on,46,0,3,,,,,,,,4,,,82,0
1870,note_on,46,0,2,,,,,,,,3,,,82,0
1870,note_on,46,0,1,,,,,,,,0,,,82,0
1872,note_on,2,0,1,,,,,,,,0,,,70,110
1872,note_on,2,0,2,,,,,,,,3,,,70,110
1872,note_on,2,0,3,,,,,,,,4,,,70,110
1918,note_on,46,0,3,,,,,,,,4,,,70,0
1918,note_on,46,0,2,,,,,,,,3,,,70,0
1918,note_on,94,0,5,,,,,,,,2,,,58,0
1918,note_on,94,0,6,,,,,,,,5,,,46,0
1918,note_on,46,0,1,,,,,,,,0,,,70,0
1918,note_on,94,0,4,,,,,,,,1,,,62,0
1920,note_on,2,0,3,,,,,,,,4,,,82,110
1920,note_on,2,0,1,,,,,,,,0,,,82,110
1920,note_on,2,0,5,,,,,,,,2,,,55,75
1920,note_on,2,0,4,,,,,,,,1,,,70,75
1920,note_on,2,0,6,,,,,,,,5,,,43,75
1920,note_on,2,0,2,,,,,,,,3,,,82,110
1966,note_on,46,0,1,,,,,,,,0,,,82,0
1966,note_on,46,0,2,,,,,,,,3,,,82,0
1966,note_on,46,0,3,,,,,,,,4,,,82,0
1968,note_on,2,0,1,,,,,,,,0,,,70,110
1968,note_on,2,0,2,,,,,,,,3,,,70,110
1968,note_on,2,0,3,,,,,,,,4,,,70,110
2014,note_on,94,0,4,,,,,,,,1,,,70,0
2014,note_on,46,0,3,,,,,,,,4,,,70,0
2014,note_on,46,0,2,,,,,,,,3,,,70,0
2014,note_on,46,0,1,,,,,,,,0,,,70,0
2014,note_on,94,0,6,,,,,,,,5,,,43,0
2014,note_on,94,0,5,,,,,,,,2,,,55,0
2016,note_on,2,0,3,,,,,,,,4,,,82,110
2016,note_on,2,0,5,,,,,,,,2,,,55,75
2016,note_on,2,0,2,,,,,,,,3,,,82,110
2016,note_on,2,0,4,,,,,,,,1,,,70,75
2016,note_on,2,0,1,,,,,,,,0,,,82,110
2016,note_on,2,0,6,,,,,,,,5,,,43,75
2062,note_on,46,0,5,,,,,,,,2,,,55,0
2062,note_on,46,0,4,,,,,,,,1,,,70,0
2062,note_on,46,0,6,,,,,,,,5,,,43,0
2064,note_on,2,0,5,,,,,,,,2,,,57,75
2064,note_on,2,0,6,,,,,,,,5,,,45,75
2064,note_on,2,0,4,,,,,,,,1,,,72,75
2110,note_on,46,0,5,,,,,,,,2,,,57,0
2110,note_on,46,0,6,,,,,,,,5,,,45,0
2110,note_on,46,0,4,,,,,,,,1,,,72,0
2112,note_on,2,0,4,,,,,,,,1,,,74,75
2112,note_on,2,0,6,,,,,,,,5,,,46,75
2112,note_on,2,0,5,,,,,,,,2,,,58,75
2158,note_on,142,0,3,,,,,,,,4,,,82,0
2158,note_on,142,0,1,,,,,,,,0,,,82,0
2158,note_on,142,0,2,,,,,,,,3,,,82,0
2160,note_on,2,0,2,,,,,,,,3,,,70,110
2160,note_on,2,0,3,,,,,,,,4,,,70,110
2160,note_on,2,0,1,,,,,,,,0,,,70,110
2206,note_on,46,0,3,,,,,,,,4,,,70,0
2206,note_on,94,0,6,,,,,,,,5,,,46,0
2206,note_on,46,0,2,,,,,,,,3,,,70,0
2206,note_on,46,0,1,,,,,,,,0,,,70,0
2206,note_on,94,0,5,,,,,,,,2,,,58,0
2206,note_on,94,0,4,,,,,,,,1,,,74,0
2208,note_on,2,0,1,,,,,,,,0,,,82,110
2208,note_on,2,0,3,,,,,,,,4,,,82,110
2208,note_on,2,0,2,,,,,,,,3,,,82,110
2208,note_on,2,0,4,,,,,,,,1,,,70,75
2208,note_on,2,0,6,,,,,,,,5,,,43,75
2208,note_on,2,0,5,,,,,,,,2,,,55,75
2254,note_on,46,0,3,,,,,,,,4,,,82,0
2254,note_on,46,0,2,,,,,,,,3,,,82,0
2254,note_on,46,0,1,,,,,,,,0,,,82,0
2256,note_on,2,0,1,,,,,,,,0,,,70,110
2256,note_on,2,0,3,,,,,,,,4,,,70,110
2256,note_on,2,0,2,,,,,,,,3,,,70,110
2302,note_on,46,0,1,,,,,,,,0,,,70,0
2302,note_on,94,0,6,,,,,,,,5,,,43,0
2302,note_on,46,0,3,,,,,,,,4,,,70,0
2302,note_on,94,0,4,,,,,,,,1,,,70,0
2302,note_on,46,0,2,,,,,,,,3,,,70,0
2302,note_on,94,0,5,,,,,,,,2,,,55,0
2304,note_on,2,0,5,,,,,,,,2,,,51,75
2304,note_on,2,0,6,,,,,,,,5,,,39,75
2304,note_on,2,0,4,,,,,,,,1,,,67,75
2304,note_on,2,0,2,,,,,,,,3,,,82,110
2304,note_on,2,0,3,,,,,,,,4,,,82,110
2304,note_on,2,0,1,,,,,,,,0,,,82,110
2350,note_on,46,0,2,,,,,,,,3,,,82,0
2350,note_on,46,0,1,,,,,,,,0,,,82,0
2350,note_on,46,0,3,,,,,,,,4,,,82,0
2352,note_on,2,0,3,,,,,,,,4,,,70,110
2352,note_on,2,0,2,,,,,,,,3,,,70,110
2352,note_on,2,0,1,,,,,,,,0,,,70,110
2398,note_on,94,0,4,,,,,,,,1,,,67,0
2398,note_on,46,0,3,,,,,,,,4,,,70,0
2398,note_on,94,0,6,,,,,,,,5,,,39,0
2398,note_on,46,0,2,,,,,,,,3,,,70,0
2398,note_on,94,0,5,,,,,,,,2,,,51,0
2398,note_on,46,0,1,,,,,,,,0,,,70,0
2400,note_on,2,0,6,,,,,,,,5,,,39,75
2400,note_on,2,0,2,,,,,,,,3,,,82,110
2400,note_on,2,0,3,,,,,,,,4,,,82,110
2400,note_on,2,0,4,,,,,,,,1,,,67,75
2400,note_on,2,0,5,,,,,,,,2,,,51,75
2400,note_on,2,0,1,,,,,,,,0,,,82,110
2446,note_on,46,0,5,,,,,,,,2,,,51,0
2446,note_on,46,0,6,,,,,,,,5,,,39,0
2446,note_on,46,0,4,,,,,,,,1,,,67,0
2448,note_on,2,0,4,,,,,,,,1,,,69,75
2448,note_on,2,0,6,,,,,,,,5,,,41,75
2448,note_on,2,0,5,,,,,,,,2,,,53,75
2494,note_on,46,0,4,,,,,,,,1,,,69,0
2494,note_on,46,0,6,,,,,,,,5,,,41,0
2494,note_on,46,0,5,,,,,,,,2,,,53,0
2496,note_on,2,0,4,,,,,,,,1,,,70,75
2496,note_on,2,0,6,,,,,,,,5,,,43,75
2496,note_on,2,0,5,,,,,,,,2,,,55,75
2542,note_on,142,0,3,,,,,,,,4,,,82,0
2542,note_on,142,0,1,,,,,,,,0,,,82,0
2542,note_on,142,0,2,,,,,,,,3,,,82,0
2544,note_on,2,0,3,,,,,,,,4,,,70,110
2544,note_on,2,0,1,,,,,,,,0,,,70,110
2544,note_on,2,0,2,,,,,,,,3,,,70,110
2590,note_on,94,0,6,,,,,,,,5,,,43,0
2590,note_on,46,0,3,,,,,,,,4,,,70,0
2590,note_on,46,0,1,,,,,,,,0,,,70,0
2590,note_on,94,0,4,,,,,,,,1,,,70,0
2590,note_on,94,0,5,,,,,,,,2,,,55,0
2590,note_on,46,0,2,,,,,,,,3,,,70,0
2592,note_on,2,0,1,,,,,,,,0,,,82,110
2592,note_on,2,0,3,,,,,,,,4,,,82,110
2592,note_on,2,0,6,,,,,,,,5,,,39,75
2592,note_on,2,0,5,,,,,,,,2,,,51,75
2592,note_on,2,0,2,,,,,,,,3,,,82,110
2592,note_on,2,0,4,,,,,,,,1,,,67,75
2638,note_on,46,0,2,,,,,,,,3,,,82,0
2638,note_on,46,0,3,,,,,,,,4,,,82,0
2638,note_on,46,0,1,,,,,,,,0,,,82,0
2640,note_on,2,0,1,,,,,,,,0,,,70,110
2640,note_on,2,0,3,,,,,,,,4,,,70,110
2640,note_on,2,0,2,,,,,,,,3,,,70,110
2686,note_on,94,0,6,,,,,,,,5,,,39,0
2686,note_on,94,0,4,,,,,,,,1,,,67,0
2686,note_on,46,0,1,,,,,,,,0,,,70,0
2686,note_on,46,0,2,,,,,,,,3,,,70,0
2686,note_on,46,0,3,,,,,,,,4,,,70,0
2686,note_on,94,0,5,,,,,,,,2,,,51,0
2688,note_on,2,0,3,,,,,,,,4,,,82,110
2688,note_on,2,0,6,,,,,,,,5,,,38,75
2688,note_on,2,0,2,,,,,,,,3,,,82,110
2688,note_on,2,0,1,,,,,,,,0,,,82,110
2688,note_on,2,0,5,,,,,,,,2,,,50,75
2688,note_on,2,0,4,,,,,,,,1,,,65,75
2734,note_on,46,0,1,,,,,,,,0,,,82,0
2734,note_on,46,0,2,,,,,,,,3,,,82,0
2734,note_on,46,0,3,,,,,,,,4,,,82,0
2736,note_on,2,0,2,,,,,,,,3,,,81,110
2736,note_on,2,0,1,,,,,,,,0,,,81,110
2736,note_on,2,0,3,,,,,,,,4,,,81,110
2782,note_on,46,0,2,,,,,,,,3,,,81,0
2782,note_on,94,0,4,,,,,,,,1,,,65,0
2782,note_on,46,0,3,,,,,,,,4,,,81,0
2782,note_on,46,0,1,,,,,,,,0,,,81,0
2782,note_on,94,0,5,,,,,,,,2,,,50,0
2782,note_on,94,0,6,,,,,,,,5,,,38,0
2784,note_on,2,0,6,,,,,,,,5,,,41,75
2784,note_on,2,0,2,,,,,,,,3,,,79,110
2784,note_on,2,0,5,,,,,,,,2,,,53,75
2784,note_on,2,0,3,,,,,,,,4,,,79,110
2784,note_on,2,0,4,,,,,,,,1,,,69,75
2784,note_on,2,0,1,,,,,,,,0,,,79,110
2830,note_on,46,0,3,,,,,,,,4,,,79,0
2830,note_on,46,0,2,,,,,,,,3,,,79,0
2830,note_on,46,0,1,,,,,,,,0,,,79,0
2832,note_on,2,0,3,,,,,,,,4,,,77,110
2832,note_on,2,0,1,,,,,,,,0,,,77,110
2832,note_on,2,0,2,,,,,,,,3,,,77,110
2878,note_on,46,0,1,,,,,,,,0,,,77,0
2878,note_on,46,0,2,,,,,,,,3,,,77,0
2878,note_on,94,0,4,,,,,,,,1,,,69,0
2878,note_on,94,0,6,,,,,,,,5,,,41,0
2878,note_on,46,0,3,,,,,,,,4,,,77,0
2878,note_on,94,0,5,,,,,,,,2,,,53,0
2880,note_on,2,0,2,,,,,,,,3,,,75,110
2880,note_on,2,0,5,,,,,,,,2,,,50,75
2880,note_on,2,0,6,,,,,,,,5,,,38,75
2880,note_on,2,0,3,,,,,,,,4,,,75,110
2880,note_on,2,0,1,,,,,,,,0,,,75,110
2880,note_on,2,0,4,,,,,,,,1,,,65,75
2926,note_on,46,0,3,,,,,,,,4,,,75,0
2926,note_on,46,0,1,,,,,,,,0,,,75,0
2926,note_on,46,0,2,,,,,,,,3,,,75,0
2928,note_on,2,0,1,,,,,,,,0,,,74,110
2928,note_on,2,0,3,,,,,,,,4,,,74,110
2928,note_on,2,0,2,,,,,,,,3,,,74,110
2974,note_on,94,0,6,,,,,,,,5,,,38,0
2974,note_on,94,0,4,,,,,,,,1,,,65,0
2974,note_on,46,0,2,,,,,,,,3,,,74,0
2974,note_on,46,0,1,,,,,,,,0,,,74,0
2974,note_on,94,0,5,,,,,,,,2,,,50,0
2974,note_on,46,0,3,,,,,,,,4,,,74,0
2976,note_on,2,0,6,,,,,,,,5,,,34,75
2976,note_on,2,0,5,,,,,,,,2,,,46,75
2976,note_on,2,0,2,,,,,,,,3,,,72,110
2976,note_on,2,0,4,,,,,,,,1,,,62,75
2976,note_on,2,0,3,,,,,,,,4,,,72,110
2976,note_on,2,0,1,,,,,,,,0,,,72,110
3022,note_on,46,0,2,,,,,,,,3,,,72,0
3022,note_on,46,0,3,,,,,,,,4,,,72,0
3022,note_on,46,0,1,,,,,,,,0,,,72,0
3024,note_on,2,0,2,,,,,,,,3,,,70,110
3024,note_on,2,0,3,,,,,,,,4,,,70,110
3024,note_on,2,0,1,,,,,,,,0,,,70,110
3070,note_on,94,0,6,,,,,,,,5,,,34,0
3070,note_on,94,0,5,,,,,,,,2,,,46,0
3070,note_on,46,0,2,,,,,,,,3,,,70,0
3070,note_on,46,0,3,,,,,,,,4,,,70,0
3070,note_on,46,0,1,,,,,,,,0,,,70,0
3070,note_on,94,0,4,,,,,,,,1,,,62,0
3072,note_on,2,0,6,,,,,,,,5,,,41,75
3072,note_on,2,0,5,,,,,,,,2,,,53,75
3072,note_on,2,0,4,,,,,,,,1,,,69,75
3072,note_on,2,0,2,,,,,,,,3,,,69,110
3072,note_on,2,0,1,,,,,,,,0,,,69,110
3072,note_on,2,0,3,,,,,,,,4,,,69,110
3166,note_on,94,0,4,,,,,,,,1,,,69,0
3166,note_on,94,0,3,,,,,,,,4,,,69,0
3166,note_on,94,0,2,,,,,,,,3,,,69,0
3166,note_on,94,0,6,,,,,,,,5,,,41,0
3166,note_on,94,0,5,,,,,,,,2,,,53,0
3166,note_on,94,0,1,,,,,,,,0,,,69,0
3168,note_on,2,0,1,,,,,,,,0,,,65,110
3168,note_on,2,0,4,,,,,,,,1,,,69,75
3168,note_on,2,0,6,,,,,,,,5,,,41,75
3168,note_on,2,0,2,,,,,,,,3,,,65,110
3168,note_on,2,0,5,,,,,,,,2,,,53,75
3168,note_on,2,0,3,,,,,,,,4,,,65,110
3214,note_on,46,0,6,,,,,,,,5,,,41,0
3214,note_on,46,0,5,,,,,,,,2,,,53,0
3214,note_on,46,0,4,,,,,,,,1,,,69,0
3216,note_on,2,0,6,,,,,,,,5,,,43,75
3216,note_on,2,0,5,,,,,,,,2,,,55,75
3216,note_on,2,0,4,,,,,,,,1,,,70,75
3262,note_on,46,0,6,,,,,,,,5,,,43,0
3262,note_on,46,0,4,,,,,,,,1,,,70,0
3262,note_on,46,0,5,,,,,,,,2,,,55,0
3264,note_on,2,0,6,,,,,,,,5,,,45,75
3264,note_on,2,0,4,,,,,,,,1,,,72,75
3264,note_on,2,0,5,,,,,,,,2,,,57,75
3310,note_on,142,0,3,,,,,,,,4,,,65,0
3310,note_on,142,0,1,,,,,,,,0,,,65,0
3310,note_on,142,0,2,,,,,,,,3,,,65,0
3312,note_on,2,0,1,,,,,,,,0,,,65,110
3312,note_on,2,0,3,,,,,,,,4,,,65,110
3312,note_on,2,0,2,,,,,,,,3,,,65,110
3358,note_on,46,0,3,,,,,,,,4,,,65,0
3358,note_on,94,0,5,,,,,,,,2,,,57,0
3358,note_on,94,0,4,,,,,,,,1,,,72,0
3358,note_on,94,0,6,,,,,,,,5,,,45,0
3358,note_on,46,0,1,,,,,,,,0,,,65,0
3358,note_on,46,0,2,,,,,,,,3,,,65,0
3360,note_on,2,0,3,,,,,,,,4,,,77,110
3360,note_on,2,0,6,,,,,,,,5,,,41,75
3360,note_on,2,0,5,,,,,,,,2,,,53,75
3360,note_on,2,0,2,,,,,,,,3,,,77,110
3360,note_on,2,0,4,,,,,,,,1,,,69,75
3360,note_on,2,0,1,,,,,,,,0,,,77,110
3406,note_on,46,0,1,,,,,,,,0,,,77,0
3406,note_on,46,0,3,,,,,,,,4,,,77,0
3406,note_on,46,0,2,,,,,,,,3,,,77,0
3408,note_on,2,0,2,,,,,,,,3,,,65,110
3408,note_on,2,0,1,,,,,,,,0,,,65,110
3408,note_on,2,0,3,,,,,,,,4,,,65,110
3454,note_on,46,0,2,,,,,,,,3,,,65,0
3454,note_on,94,0,5,,,,,,,,2,,,53,0
3454,note_on,46,0,1,,,,,,,,0,,,65,0
3454,note_on,94,0,4,,,,,,,,1,,,69,0
3454,note_on,94,0,6,,,,,,,,5,,,41,0
3454,note_on,46,0,3,,,,,,,,4,,,65,0
3456,note_on,2,0,5,,,,,,,,2,,,53,75
3456,note_on,2,0,4,,,,,,,,1,,,69,75
3456,note_on,2,0,3,,,,,,,,4,,,77,110
3456,note_on,2,0,1,,,,,,,,0,,,77,110
3456,note_on,2,0,2,,,,,,,,3,,,77,110
3456,note_on,2,0,6,,,,,,,,5,,,41,75
3502,note_on,46,0,2,,,,,,,,3,,,77,0
3502,note_on,46,0,1,,,,,,,,0,,,77,0
3502,note_on,46,0,3,,,,,,,,4,,,77,0
3504,note_on,2,0,1,,,,,,,,0,,,65,110
3504,note_on,2,0,3,,,,,,,,4,,,65,110
3504,note_on,2,0,2,,,,,,,,3,,,65,110
3550,note_on,46,0,1,,,,,,,,0,,,65,0
3550,note_on,46,0,2,,,,,,,,3,,,65,0
3550,note_on,94,0,6,,,,,,,,5,,,41,0
3550,note_on,46,0,3,,,,,,,,4,,,65,0
3550,note_on,94,0,5,,,,,,,,2,,,53,0
3550,note_on,94,0,4,,,,,,,,1,,,69,0
3552,note_on,2,0,6,,,,,,,,5,,,41,75
3552,note_on,2,0,2,,,,,,,,3,,,77,110
3552,note_on,2,0,1,,,,,,,,0,,,77,110
3552,note_on,2,0,5,,,,,,,,2,,,53,75
3552,note_on,2,0,4,,,,,,,,1,,,72,75
3552,note_on,2,0,3,,,,,,,,4,,,77,110
3598,note_on,46,0,6,,,,,,,,5,,,41,0
3598,note_on,46,0,5,,,,,,,,2,,,53,0
3600,note_on,2,0,6,,,,,,,,5,,,39,75
3600,note_on,2,0,5,,,,,,,,2,,,51,75
3646,note_on,94,0,4,,,,,,,,1,,,72,0
3646,note_on,46,0,6,,,,,,,,5,,,39,0
3646,note_on,46,0,5,,,,,,,,2,,,51,0
3648,note_on,2,0,4,,,,,,,,1,,,72,75
3648,note_on,2,0,6,,,,,,,,5,,,41,75
3648,note_on,2,0,5,,,,,,,,2,,,53,75
3694,note_on,142,0,2,,,,,,,,3,,,77,0
3694,note_on,142,0,3,,,,,,,,4,,,77,0
3694,note_on,142,0,1,,,,,,,,0,,,77,0
3696,note_on,2,0,1,,,,,,,,0,,,65,110
3696,note_on,2,0,2,,,,,,,,3,,,65,110
3696,note_on,2,0,3,,,,,,,,4,,,65,110
3742,note_on,46,0,2,,,,,,,,3,,,65,0
3742,note_on,94,0,6,,,,,,,,5,,,41,0
3742,note_on,46,0,1,,,,,,,,0,,,65,0
3742,note_on,94,0,5,,,,,,,,2,,,53,0
3742,note_on,46,0,3,,,,,,,,4,,,65,0
3744,note_on,2,0,5,,,,,,,,2,,,41,75
3744,note_on,2,0,6,,,,,,,,5,,,29,75
3744,note_on,2,0,2,,,,,,,,3,,,75,110
3744,note_on,2,0,3,,,,,,,,4,,,75,110
3744,note_on,2,0,1,,,,,,,,0,,,75,110
3790,note_on,46,0,3,,,,,,,,4,,,75,0
3790,note_on,46,0,1,,,,,,,,0,,,75,0
3790,note_on,46,0,2,,,,,,,,3,,,75,0
3792,note_on,2,0,2,,,,,,,,3,,,65,110
3792,note_on,2,0,3,,,,,,,,4,,,65,110
3792,note_on,2,0,1,,,,,,,,0,,,65,110
3808,note_on,160,0,4,,,,,,,,1,,,72,0
3838,note_on,46,0,1,,,,,,,,0,,,65,0
3838,note_on,94,0,6,,,,,,,,5,,,29,0
3838,note_on,46,0,2,,,,,,,,3,,,65,0
3838,note_on,94,0,5,,,,,,,,2,,,41,0
3838,note_on,46,0,3,,,,,,,,4,,,65,0
3840,note_on,2,0,2,,,,,,,,3,,,75,110
3840,note_on,2,0,1,,,,,,,,0,,,75,110
3840,note_on,2,0,3,,,,,,,,4,,,75,110
3886,note_on,46,0,2,,,,,,,,3,,,75,0
3886,note_on,46,0,3,,,,,,,,4,,,75,0
3886,note_on,46,0,1,,,,,,,,0,,,75,0
3888,note_on,2,0,1,,,,,,,,0,,,65,110
3888,note_on,2,0,2,,,,,,,,3,,,65,110
3888,note_on,2,0,3,,,,,,,,4,,,65,110
3934,note_on,46,0,1,,,,,,,,0,,,65,0
3934,note_on,46,0,3,,,,,,,,4,,,65,0
3934,note_on,46,0,2,,,,,,,,3,,,65,0
3936,note_on,2,0,1,,,,,,,,0,,,75,110
3936,note_on,98,0,6,,,,,,,,5,,,41,75
3936,note_on,128,0,4,,,,,,,,1,,,72,75
3936,note_on,2,0,2,,,,,,,,3,,,75,110
3936,note_on,2,0,3,,,,,,,,4,,,75,110
3936,note_on,98,0,5,,,,,,,,2,,,53,75
3982,note_on,46,0,5,,,,,,,,2,,,53,0
3982,note_on,46,0,6,,,,,,,,5,,,41,0
3984,note_on,2,0,6,,,,,,,,5,,,39,75
3984,note_on,2,0,5,,,,,,,,2,,,51,75
4030,note_on,94,0,4,,,,,,,,1,,,72,0
4030,note_on,46,0,6,,,,,,,,5,,,39,0
4030,note_on,46,0,5,,,,,,,,2,,,51,0
4032,note_on,2,0,6,,,,,,,,5,,,41,75
4032,note_on,2,0,5,,,,,,,,2,,,53,75
4032,note_on,2,0,4,,,,,,,,1,,,72,75
4078,note_on,142,0,1,,,,,,,,0,,,75,0
4078,note_on,142,0,2,,,,,,,,3,,,75,0
4078,note_on,142,0,3,,,,,,,,4,,,75,0
4080,note_on,2,0,2,,,,,,,,3,,,65,110
4080,note_on,2,0,3,,,,,,,,4,,,65,110
4080,note_on,2,0,1,,,,,,,,0,,,65,110
4126,note_on,46,0,3,,,,,,,,4,,,65,0
4126,note_on,94,0,6,,,,,,,,5,,,41,0
4126,note_on,46,0,2,,,,,,,,3,,,65,0
4126,note_on,94,0,5,,,,,,,,2,,,53,0
4126,note_on,46,0,1,,,,,,,,0,,,65,0
4128,note_on,2,0,6,,,,,,,,5,,,29,75
4128,note_on,2,0,2,,,,,,,,3,,,74,110
4128,note_on,2,0,1,,,,,,,,0,,,74,110
4128,note_on,2,0,5,,,,,,,,2,,,41,75
4128,note_on,2,0,3,,,,,,,,4,,,74,110
4174,note_on,46,0,1,,,,,,,,0,,,74,0
4174,note_on,46,0,3,,,,,,,,4,,,74,0
4174,note_on,46,0,2,,,,,,,,3,,,74,0
4176,note_on,2,0,3,,,,,,,,4,,,65,110
4176,note_on,2,0,2,,,,,,,,3,,,65,110
4176,note_on,2,0,1,,,,,,,,0,,,65,110
4192,note_on,160,0,4,,,,,,,,1,,,72,0
4222,note_on,46,0,2,,,,,,,,3,,,65,0
4222,note_on,46,0,1,,,,,,,,0,,,65,0
4222,note_on,46,0,3,,,,,,,,4,,,65,0
4222,note_on,94,0,5,,,,,,,,2,,,41,0
4222,note_on,94,0,6,,,,,,,,5,,,29,0
4224,note_on,2,0,2,,,,,,,,3,,,74,110
4224,note_on,2,0,3,,,,,,,,4,,,74,110
4224,note_on,2,0,1,,,,,,,,0,,,74,110
4270,note_on,46,0,1,,,,,,,,0,,,74,0
4270,note_on,46,0,2,,,,,,,,3,,,74,0
4270,note_on,46,0,3,,,,,,,,4,,,74,0
4272,note_on,2,0,1,,,,,,,,0,,,65,110
4272,note_on,2,0,3,,,,,,,,4,,,65,110
4272,note_on,2,0,2,,,,,,,,3,,,65,110
4318,note_on,46,0,3,,,,,,,,4,,,65,0
4318,note_on,46,0,1,,,,,,,,0,,,65,0
4318,note_on,46,0,2,,,,,,,,3,,,65,0
4320,note_on,98,0,5,,,,,,,,2,,,53,75
4320,note_on,2,0,3,,,,,,,,4,,,74,110
4320,note_on,2,0,1,,,,,,,,0,,,74,110
4320,note_on,98,0,6,,,,,,,,5,,,41,75
4320,note_on,128,0,4,,,,,,,,1,,,70,75
4320,note_on,2,0,2,,,,,,,,3,,,74,110
4366,note_on,46,0,5,,,,,,,,2,,,53,0
4366,note_on,46,0,6,,,,,,,,5,,,41,0
4368,note_on,2,0,5,,,,,,,,2,,,51,75
4368,note_on,2,0,6,,,,,,,,5,,,39,75
4414,note_on,46,0,5,,,,,,,,2,,,51,0
4414,note_on,94,0,4,,,,,,,,1,,,70,0
4414,note_on,46,0,6,,,,,,,,5,,,39,0
4416,note_on,2,0,4,,,,,,,,1,,,70,75
4416,note_on,2,0,5,,,,,,,,2,,,53,75
4416,note_on,2,0,6,,,,,,,,5,,,41,75
4462,note_on,142,0,3,,,,,,,,4,,,74,0
4462,note_on,142,0,1,,,,,,,,0,,,74,0
4462,note_on,142,0,2,,,,,,,,3,,,74,0
4464,note_on,2,0,1,,,,,,,,0,,,65,110
4464,note_on,2,0,2,,,,,,,,3,,,65,110
4464,note_on,2,0,3,,,,,,,,4,,,65,110
4510,note_on,46,0,3,,,,,,,,4,,,65,0
4510,note_on,94,0,5,,,,,,,,2,,,53,0
4510,note_on,46,0,2,,,,,,,,3,,,65,0
4510,note_on,46,0,1,,,,,,,,0,,,65,0
4510,note_on,94,0,6,,,,,,,,5,,,41,0
4512,note_on,2,0,3,,,,,,,,4,,,72,110
4512,note_on,2,0,2,,,,,,,,3,,,72,110
4512,note_on,2,0,1,,,,,,,,0,,,72,110
4512,note_on,2,0,6,,,,,,,,5,,,29,75
4512,note_on,2,0,5,,,,,,,,2,,,41,75
4558,note_on,46,0,2,,,,,,,,3,,,72,0
4558,note_on,46,0,1,,,,,,,,0,,,72,0
4558,note_on,46,0,3,,,,,,,,4,,,72,0
4560,note_on,2,0,2,,,,,,,,3,,,65,110
4560,note_on,2,0,1,,,,,,,,0,,,65,110
4560,note_on,2,0,3,,,,,,,,4,,,65,110
4576,note_on,160,0,4,,,,,,,,1,,,70,0
4606,note_on,46,0,3,,,,,,,,4,,,65,0
4606,note_on,46,0,1,,,,,,,,0,,,65,0
4606,note_on,46,0,2,,,,,,,,3,,,65,0
4606,note_on,94,0,5,,,,,,,,2,,,41,0
4606,note_on,94,0,6,,,,,,,,5,,,29,0
4608,note_on,2,0,3,,,,,,,,4,,,72,110
4608,note_on,2,0,1,,,,,,,,0,,,72,110
4608,note_on,2,0,2,,,,,,,,3,,,72,110
4654,note_on,46,0,1,,,,,,,,0,,,72,0
4654,note_on,46,0,2,,,,,,,,3,,,72,0
4654,note_on,46,0,3,,,,,,,,4,,,72,0
4656,note_on,2,0,1,,,,,,,,0,,,65,110
4656,note_on,2,0,2,,,,,,,,3,,,65,110
4656,note_on,2,0,3,,,,,,,,4,,,65,110
4702,note_on,46,0,3,,,,,,,,4,,,65,0
4702,note_on,46,0,1,,,,,,,,0,,,65,0
4702,note_on,46,0,2,,,,,,,,3,,,65,0
4704,note_on,2,0,2,,,,,,,,3,,,72,110
4704,note_on,2,0,3,,,,,,,,4,,,72,110
4704,note_on,128,0,4,,,,,,,,1,,,69,75
4704,note_on,2,0,1,,,,,,,,0,,,72,110
4704,note_on,98,0,5,,,,,,,,2,,,53,75
4704,note_on,98,0,6,,,,,,,,5,,,41,75
4750,note_on,46,0,5,,,,,,,,2,,,53,0
4750,note_on,46,0,6,,,,,,,,5,,,41,0
4752,note_on,2,0,6,,,,,,,,5,,,39,75
4752,note_on,2,0,5,,,,,,,,2,,,51,75
4798,note_on,94,0,4,,,,,,,,1,,,69,0
4798,note_on,46,0,5,,,,,,,,2,,,51,0
4798,note_on,46,0,6,,,,,,,,5,,,39,0
4800,note_on,2,0,4,,,,,,,,1,,,69,75
4800,note_on,2,0,5,,,,,,,,2,,,53,75
4800,note_on,2,0,6,,,,,,,,5,,,41,75
4846,note_on,142,0,1,,,,,,,,0,,,72,0
4846,note_on,142,0,2,,,,,,,,3,,,72,0
4846,note_on,142,0,3,,,,,,,,4,,,72,0
4848,note_on,2,0,2,,,,,,,,3,,,65,110
4848,note_on,2,0,3,,,,,,,,4,,,65,110
4848,note_on,2,0,1,,,,,,,,0,,,65,110
4894,note_on,46,0,1,,,,,,,,0,,,65,0
4894,note_on,94,0,5,,,,,,,,2,,,53,0
4894,note_on,94,0,6,,,,,,,,5,,,41,0
4894,note_on,46,0,3,,,,,,,,4,,,65,0
4894,note_on,46,0,2,,,,,,,,3,,,65,0
4896,note_on,2,0,3,,,,,,,,4,,,75,110
4896,note_on,2,0,5,,,,,,,,2,,,41,75
4896,note_on,2,0,1,,,,,,,,0,,,75,110
4896,note_on,2,0,2,,,,,,,,3,,,75,110
4896,note_on,2,0,6,,,,,,,,5,,,29,75
4942,note_on,46,0,1,,,,,,,,0,,,75,0
4942,note_on,46,0,3,,,,,,,,4,,,75,0
4942,note_on,46,0,2,,,,,,,,3,,,75,0
4944,note_on,2,0,3,,,,,,,,4,,,72,110
4944,note_on,2,0,2,,,,,,,,3,,,72,110
4944,note_on,2,0,1,,,,,,,,0,,,72,110
4960,note_on,160,0,4,,,,,,,,1,,,69,0
4990,note_on,46,0,1,,,,,,,,0,,,72,0
4990,note_on,94,0,5,,,,,,,,2,,,41,0
4990,note_on,94,0,6,,,,,,,,5,,,29,0
4990,note_on,46,0,2,,,,,,,,3,,,72,0
4990,note_on,46,0,3,,,,,,,,4,,,72,0
4992,note_on,2,0,1,,,,,,,,0,,,74,110
4992,note_on,2,0,5,,,,,,,,2,,,46,75
4992,note_on,32,0,4,,,,,,,,1,,,62,75
4992,note_on,2,0,3,,,,,,,,4,,,74,110
4992,note_on,2,0,2,,,,,,,,3,,,74,110
4992,note_on,2,0,6,,,,,,,,5,,,34,75
5086,note_on,94,0,3,,,,,,,,4,,,74,0
5086,note_on,94,0,1,,,,,,,,0,,,74,0
5086,note_on,94,0,4,,,,,,,,1,,,62,0
5086,note_on,94,0,5,,,,,,,,2,,,46,0
5086,note_on,94,0,6,,,,,,,,5,,,34,0
5086,note_on,94,0,2,,,,,,,,3,,,74,0
5088,note_on,2,0,4,,,,,,,,1,,,62,75
5088,note_on,2,0,6,,,,,,,,5,,,46,75
5088,note_on,2,0,1,,,,,,,,0,,,70,110
5088,note_on,2,0,2,,,,,,,,3,,,70,110
5088,note_on,2,0,3,,,,,,,,4,,,70,110
5088,note_on,2,0,5,,,,,,,,2,,,58,75
5134,note_on,46,0,5,,,,,,,,2,,,58,0
5134,note_on,46,0,6,,,,,,,,5,,,46,0
5134,note_on,46,0,4,,,,,,,,1,,,62,0
5136,note_on,2,0,4,,,,,,,,1,,,63,75
5136,note_on,2,0,6,,,,,,,,5,,,48,75
5136,note_on,2,0,5,,,,,,,,2,,,60,75
5182,note_on,46,0,5,,,,,,,,2,,,60,0
5182,note_on,46,0,4,,,,,,,,1,,,63,0
5182,note_on,46,0,6,,,,,,,,5,,,48,0
5184,note_on,2,0,4,,,,,,,,1,,,65,75
5184,note_on,2,0,5,,,,,,,,2,,,62,75
5184,note_on,2,0,6,,,,,,,,5,,,50,75
5230,note_on,142,0,1,,,,,,,,0,,,70,0
5230,note_on,142,0,3,,,,,,,,4,,,70,0
5230,note_on,142,0,2,,,,,,,,3,,,70,0
5232,note_on,2,0,3,,,,,,,,4,,,70,110
5232,note_on,2,0,1,,,,,,,,0,,,70,110
5232,note_on,2,0,2,,,,,,,,3,,,70,110
5278,note_on,94,0,4,,,,,,,,1,,,65,0
5278,note_on,94,0,5,,,,,,,,2,,,62,0
5278,note_on,94,0,6,,,,,,,,5,,,50,0
5278,note_on,46,0,2,,,,,,,,3,,,70,0
5278,note_on,46,0,3,,,,,,,,4,,,70,0
5278,note_on,46,0,1,,,,,,,,0,,,70,0
5280,note_on,2,0,2,,,,,,,,3,,,82,110
5280,note_on,2,0,5,,,,,,,,2,,,58,75
5280,note_on,2,0,1,,,,,,,,0,,,82,110
5280,note_on,2,0,6,,,,,,,,5,,,46,75
5280,note_on,2,0,4,,,,,,,,1,,,62,75
5280,note_on,2,0,3,,,,,,,,4,,,82,110
5326,note_on,46,0,1,,,,,,,,0,,,82,0
5326,note_on,46,0,3,,,,,,,,4,,,82,0
5326,note_on,46,0,2,,,,,,,,3,,,82,0
5328,note_on,2,0,3,,,,,,,,4,,,70,110
5328,note_on,2,0,1,,,,,,,,0,,,70,110
5328,note_on,2,0,2,,,,,,,,3,,,70,110
5374,note_on,46,0,2,,,,,,,,3,,,70,0
5374,note_on,46,0,1,,,,,,,,0,,,70,0
5374,note_on,94,0,4,,,,,,,,1,,,62,0
5374,note_on,46,0,3,,,,,,,,4,,,70,0
5374,note_on,94,0,6,,,,,,,,5,,,46,0
5374,note_on,94,0,5,,,,,,,,2,,,58,0
5376,note_on,2,0,5,,,,,,,,2,,,58,75
5376,note_on,2,0,6,,,,,,,,5,,,46,75
5376,note_on,2,0,4,,,,,,,,1,,,62,75
5376,note_on,2,0,2,,,,,,,,3,,,82,110
5376,note_on,2,0,3,,,,,,,,4,,,82,110
5376,note_on,2,0,1,,,,,,,,0,,,82,110
5422,note_on,46,0,1,,,,,,,,0,,,82,0
5422,note_on,46,0,3,,,,,,,,4,,,82,0
5422,note_on,46,0,2,,,,,,,,3,,,82,0
5424,note_on,2,0,2,,,,,,,,3,,,70,110
5424,note_on,2,0,3,,,,,,,,4,,,70,110
5424,note_on,2,0,1,,,,,,,,0,,,70,110
5470,note_on,46,0,1,,,,,,,,0,,,70,0
5470,note_on,94,0,4,,,,,,,,1,,,62,0
5470,note_on,94,0,5,,,,,,,,2,,,58,0
5470,note_on,46,0,2,,,,,,,,3,,,70,0
5470,note_on,46,0,3,,,,,,,,4,,,70,0
5470,note_on,94,0,6,,,,,,,,5,,,46,0
5472,note_on,2,0,1,,,,,,,,0,,,82,110
5472,note_on,2,0,2,,,,,,,,3,,,82,110
5472,note_on,2,0,4,,,,,,,,1,,,65,75
5472,note_on,2,0,3,,,,,,,,4,,,82,110
5472,note_on,2,0,5,,,,,,,,2,,,58,75
5472,note_on,2,0,6,,,,,,,,5,,,46,75
5518,note_on,46,0,5,,,,,,,,2,,,58,0
5518,note_on,46,0,6,,,,,,,,5,,,46,0
5520,note_on,2,0,6,,,,,,,,5,,,45,75
5520,note_on,2,0,5,,,,,,,,2,,,57,75
5566,note_on,94,0,4,,,,,,,,1,,,65,0
5566,note_on,46,0,6,,,,,,,,5,,,45,0
5566,note_on,46,0,5,,,,,,,,2,,,57,0
5568,note_on,2,0,6,,,,,,,,5,,,46,75
5568,note_on,2,0,5,,,,,,,,2,,,58,75
5568,note_on,2,0,4,,,,,,,,1,,,65,75
5614,note_on,142,0,2,,,,,,,,3,,,82,0
5614,note_on,142,0,3,,,,,,,,4,,,82,0
5614,note_on,142,0,1,,,,,,,,0,,,82,0
5616,note_on,2,0,2,,,,,,,,3,,,70,110
5616,note_on,2,0,1,,,,,,,,0,,,70,110
5616,note_on,2,0,3,,,,,,,,4,,,70,110
5662,note_on,46,0,2,,,,,,,,3,,,70,0
5662,note_on,46,0,1,,,,,,,,0,,,70,0
5662,note_on,94,0,5,,,,,,,,2,,,58,0
5662,note_on,46,0,3,,,,,,,,4,,,70,0
5662,note_on,94,0,6,,,,,,,,5,,,46,0
5664,note_on,2,0,2,,,,,,,,3,,,80,110
5664,note_on,2,0,1,,,,,,,,0,,,80,110
5664,note_on,2,0,5,,,,,,,,2,,,46,75
5664,note_on,2,0,6,,,,,,,,5,,,34,75
5664,note_on,2,0,3,,,,,,,,4,,,80,110
5710,note_on,46,0,2,,,,,,,,3,,,80,0
5710,note_on,46,0,1,,,,,,,,0,,,80,0
5710,note_on,46,0,3,,,,,,,,4,,,80,0
5712,note_on,2,0,2,,,,,,,,3,,,70,110
5712,note_on,2,0,1,,,,,,,,0,,,70,110
5712,note_on,2,0,3,,,,,,,,4,,,70,110
5728,note_on,160,0,4,,,,,,,,1,,,65,0
5758,note_on,46,0,1,,,,,,,,0,,,70,0
5758,note_on,46,0,3,,,,,,,,4,,,70,0
5758,note_on,94,0,5,,,,,,,,2,,,46,0
5758,note_on,94,0,6,,,,,,,,5,,,34,0
5758,note_on,46,0,2,,,,,,,,3,,,70,0
5760,note_on,2,0,1,,,,,,,,0,,,80,110
5760,note_on,2,0,2,,,,,,,,3,,,80,110
5760,note_on,2,0,3,,,,,,,,4,,,80,110
5806,note_on,46,0,1,,,,,,,,0,,,80,0
5806,note_on,46,0,2,,,,,,,,3,,,80,0
5806,note_on,46,0,3,,,,,,,,4,,,80,0
5808,note_on,2,0,2,,,,,,,,3,,,70,110
5808,note_on,2,0,3,,,,,,,,4,,,70,110
5808,note_on,2,0,1,,,,,,,,0,,,70,110
5854,note_on,46,0,3,,,,,,,,4,,,70,0
5854,note_on,46,0,1,,,,,,,,0,,,70,0
5854,note_on,46,0,2,,,,,,,,3,,,70,0
5856,note_on,128,0,4,,,,,,,,1,,,65,75
5856,note_on,2,0,1,,,,,,,,0,,,80,110
5856,note_on,2,0,3,,,,,,,,4,,,80,110
5856,note_on,98,0,5,,,,,,,,2,,,58,75
5856,note_on,98,0,6,,,,,,,,5,,,46,75
5856,note_on,2,0,2,,,,,,,,3,,,80,110
5902,note_on,46,0,5,,,,,,,,2,,,58,0
5902,note_on,46,0,6,,,,,,,,5,,,46,0
5904,note_on,2,0,5,,,,,,,,2,,,56,75
5904,note_on,2,0,6,,,,,,,,5,,,44,75
5950,note_on,46,0,5,,,,,,,,2,,,56,0
5950,note_on,94,0,4,,,,,,,,1,,,65,0
5950,note_on,46,0,6,,,,,,,,5,,,44,0
5952,note_on,2,0,5,,,,,,,,2,,,58,75
5952,note_on,2,0,4,,,,,,,,1,,,65,75
5952,note_on,2,0,6,,,,,,,,5,,,46,75
5998,note_on,142,0,3,,,,,,,,4,,,80,0
5998,note_on,142,0,2,,,,,,,,3,,,80,0
5998,note_on,142,0,1,,,,,,,,0,,,80,0
6000,note_on,2,0,2,,,,,,,,3,,,70,110
6000,note_on,2,0,3,,,,,,,,4,,,70,110
6000,note_on,2,0,1,,,,,,,,0,,,70,110
6046,note_on,46,0,1,,,,,,,,0,,,70,0
6046,note_on,46,0,2,,,,,,,,3,,,70,0
6046,note_on,94,0,5,,,,,,,,2,,,58,0
6046,note_on,46,0,3,,,,,,,,4,,,70,0
6046,note_on,94,0,6,,,,,,,,5,,,46,0
6048,note_on,2,0,2,,,,,,,,3,,,79,110
6048,note_on,2,0,1,,,,,,,,0,,,79,110
6048,note_on,2,0,3,,,,,,,,4,,,79,110
6048,note_on,2,0,5,,,,,,,,2,,,46,75
6048,note_on,2,0,6,,,,,,,,5,,,34,75
6094,note_on,46,0,3,,,,,,,,4,,,79,0
6094,note_on,46,0,2,,,,,,,,3,,,79,0
6094,note_on,46,0,1,,,,,,,,0,,,79,0
6096,note_on,2,0,3,,,,,,,,4,,,70,110
6096,note_on,2,0,2,,,,,,,,3,,,70,110
6096,note_on,2,0,1,,,,,,,,0,,,70,110
6112,note_on,160,0,4,,,,,,,,1,,,65,0
6142,note_on,46,0,1,,,,,,,,0,,,70,0
6142,note_on,46,0,2,,,,,,,,3,,,70,0
6142,note_on,46,0,3,,,,,,,,4,,,70,0
6142,note_on,94,0,5,,,,,,,,2,,,46,0
6142,note_on,94,0,6,,,,,,,,5,,,34,0
6144,note_on,2,0,2,,,,,,,,3,,,79,110
6144,note_on,2,0,1,,,,,,,,0,,,79,110
6144,note_on,2,0,3,,,,,,,,4,,,79,110
6190,note_on,46,0,1,,,,,,,,0,,,79,0
6190,note_on,46,0,2,,,,,,,,3,,,79,0
6190,note_on,46,0,3,,,,,,,,4,,,79,0
6192,note_on,2,0,1,,,,,,,,0,,,70,110
6192,note_on,2,0,2,,,,,,,,3,,,70,110
6192,note_on,2,0,3,,,,,,,,4,,,70,110
6238,note_on,46,0,3,,,,,,,,4,,,70,0
6238,note_on,46,0,1,,,,,,,,0,,,70,0
6238,note_on,46,0,2,,,,,,,,3,,,70,0
6240,note_on,2,0,2,,,,,,,,3,,,79,110
6240,note_on,98,0,5,,,,,,,,2,,,58,75
6240,note_on,128,0,4,,,,,,,,1,,,63,75
6240,note_on,2,0,3,,,,,,,,4,,,79,110
6240,note_on,98,0,6,,,,,,,,5,,,46,75
6240,note_on,2,0,1,,,,,,,,0,,,79,110
6286,note_on,46,0,5,,,,,,,,2,,,58,0
6286,note_on,46,0,6,,,,,,,,5,,,46,0
6288,note_on,2,0,6,,,,,,,,5,,,45,75
6288,note_on,2,0,5,,,,,,,,2,,,57,75
6334,note_on,46,0,5,,,,,,,,2,,,57,0
6334,note_on,46,0,6,,,,,,,,5,,,45,0
6334,note_on,94,0,4,,,,,,,,1,,,63,0
6336,note_on,2,0,6,,,,,,,,5,,,46,75
6336,note_on,2,0,5,,,,,,,,2,,,58,75
6336,note_on,2,0,4,,,,,,,,1,,,63,75
6382,note_on,142,0,1,,,,,,,,0,,,79,0
6382,note_on,142,0,3,,,,,,,,4,,,79,0
6382,note_on,142,0,2,,,,,,,,3,,,79,0
6384,note_on,2,0,2,,,,,,,,3,,,70,110
6384,note_on,2,0,3,,,,,,,,4,,,70,110
6384,note_on,2,0,1,,,,,,,,0,,,70,110
6430,note_on,94,0,6,,,,,,,,5,,,46,0
6430,note_on,46,0,1,,,,,,,,0,,,70,0
6430,note_on,46,0,3,,,,,,,,4,,,70,0
6430,note_on,46,0,2,,,,,,,,3,,,70,0
6430,note_on,94,0,5,,,,,,,,2,,,58,0
6432,note_on,2,0,1,,,,,,,,0,,,77,110
6432,note_on,2,0,5,,,,,,,,2,,,46,75
6432,note_on,2,0,6,,,,,,,,5,,,34,75
6432,note_on,2,0,3,,,,,,,,4,,,77,110
6432,note_on,2,0,2,,,,,,,,3,,,77,110
6478,note_on,46,0,1,,,,,,,,0,,,77,0
6478,note_on,46,0,3,,,,,,,,4,,,77,0
6478,note_on,46,0,2,,,,,,,,3,,,77,0
6480,note_on,2,0,1,,,,,,,,0,,,70,110
6480,note_on,2,0,2,,,,,,,,3,,,70,110
6480,note_on,2,0,3,,,,,,,,4,,,70,110
6496,note_on,160,0,4,,,,,,,,1,,,63,0
6526,note_on,46,0,1,,,,,,,,0,,,70,0
6526,note_on,94,0,6,,,,,,,,5,,,34,0
6526,note_on,94,0,5,,,,,,,,2,,,46,0
6526,note_on,46,0,3,,,,,,,,4,,,70,0
6526,note_on,46,0,2,,,,,,,,3,,,70,0
6528,note_on,2,0,1,,,,,,,,0,,,77,110
6528,note_on,2,0,3,,,,,,,,4,,,77,110
6528,note_on,2,0,2,,,,,,,,3,,,77,110
6574,note_on,46,0,2,,,,,,,,3,,,77,0
6574,note_on,46,0,3,,,,,,,,4,,,77,0
6574,note_on,46,0,1,,,,,,,,0,,,77,0
6576,note_on,2,0,2,,,,,,,,3,,,70,110
6576,note_on,2,0,3,,,,,,,,4,,,70,110
6576,note_on,2,0,1,,,,,,,,0,,,70,110
6622,note_on,46,0,2,,,,,,,,3,,,70,0
6622,note_on,46,0,3,,,,,,,,4,,,70,0
6622,note_on,46,0,1,,,,,,,,0,,,70,0
6624,note_on,98,0,5,,,,,,,,2,,,58,75
6624,note_on,2,0,2,,,,,,,,3,,,77,110
6624,note_on,2,0,3,,,,,,,,4,,,77,110
6624,note_on,98,0,6,,,,,,,,5,,,46,75
6624,note_on,128,0,4,,,,,,,,1,,,62,75
6624,note_on,2,0,1,,,,,,,,0,,,77,110
6670,note_on,46,0,6,,,,,,,,5,,,46,0
6670,note_on,46,0,5,,,,,,,,2,,,58,0
6672,note_on,2,0,5,,,,,,,,2,,,57,75
6672,note_on,2,0,6,,,,,,,,5,,,45,75
6718,note_on,94,0,4,,,,,,,,1,,,62,0
6718,note_on,46,0,5,,,,,,,,2,,,57,0
6718,note_on,46,0,6,,,,,,,,5,,,45,0
6720,note_on,2,0,4,,,,,,,,1,,,62,75
6720,note_on,2,0,6,,,,,,,,5,,,46,75
6720,note_on,2,0,5,,,,,,,,2,,,58,75
6766,note_on,142,0,3,,,,,,,,4,,,77,0
6766,note_on,142,0,2,,,,,,,,3,,,77,0
6766,note_on,142,0,1,,,,,,,,0,,,77,0
6768,note_on,2,0,3,,,,,,,,4,,,70,110
6768,note_on,2,0,2,,,,,,,,3,,,70,110
6768,note_on,2,0,1,,,,,,,,0,,,70,110
6814,note_on,94,0,6,,,,,,,,5,,,46,0
6814,note_on,46,0,2,,,,,,,,3,,,70,0
6814,note_on,94,0,5,,,,,,,,2,,,58,0
6814,note_on,46,0,3,,,,,,,,4,,,70,0
6814,note_on,46,0,1,,,,,,,,0,,,70,0
6816,note_on,2,0,6,,,,,,,,5,,,34,75
6816,note_on,2,0,3,,,,,,,,4,,,74,110
6816,note_on,2,0,1,,,,,,,,0,,,74,110
6816,note_on,2,0,2,,,,,,,,3,,,74,110
6816,note_on,2,0,5,,,,,,,,2,,,46,75
6862,note_on,46,0,3,,,,,,,,4,,,74,0
6862,note_on,46,0,1,,,,,,,,0,,,74,0
6862,note_on,46,0,2,,,,,,,,3,,,74,0
6864,note_on,2,0,3,,,,,,,,4,,,77,110
6864,note_on,2,0,2,,,,,,,,3,,,77,110
6864,note_on,2,0,1,,,,,,,,0,,,77,110
6880,note_on,160,0,4,,,,,,,,1,,,62,0
6910,note_on,94,0,6,,,,,,,,5,,,34,0
6910,note_on,46,0,1,,,,,,,,0,,,77,0
6910,note_on,46,0,3,,,,,,,,4,,,77,0
6910,note_on,46,0,2,,,,,,,,3,,,77,0
6910,note_on,94,0,5,,,,,,,,2,,,46,0
6912,note_on,2,0,6,,,,,,,,5,,,46,75
6912,note_on,2,0,3,,,,,,,,4,,,82,110
6912,note_on,32,0,4,,,,,,,,1,,,74,75
6912,note_on,2,0,5,,,,,,,,2,,,58,75
6912,note_on,2,0,2,,,,,,,,3,,,82,110
6912,note_on,2,0,1,,,,,,,,0,,,82,110
7054,note_on,142,0,4,,,,,,,,1,,,74,0
7054,note_on,142,0,2,,,,,,,,3,,,82,0
7054,note_on,142,0,5,,,,,,,,2,,,58,0
7054,note_on,142,0,3,,,,,,,,4,,,82,0
7054,note_on,142,0,1,,,,,,,,0,,,82,0
7054,note_on,142,0,6,,,,,,,,5,,,46,0
7056,note_on,2,0,5,,,,,,,,2,,,58,75
7056,note_on,2,0,6,,,,,,,,5,,,46,75
7056,note_on,2,0,1,,,,,,,,0,,,70,110
7056,note_on,2,0,2,,,,,,,,3,,,70,110
7056,note_on,2,0,4,,,,,,,,1,,,74,75
7056,note_on,2,0,3,,,,,,,,4,,,70,110
7102,note_on,46,0,2,,,,,,,,3,,,70,0
7102,note_on,46,0,4,,,,,,,,1,,,74,0
7102,note_on,46,0,5,,,,,,,,2,,,58,0
7102,note_on,46,0,6,,,,,,,,5,,,46,0
7102,note_on,46,0,3,,,,,,,,4,,,70,0
7102,note_on,46,0,1,,,,,,,,0,,,70,0
7104,note_on,2,0,6,,,,,,,,5,,,45,75
7104,note_on,2,0,3,,,,,,,,4,,,82,110
7104,note_on,2,0,5,,,,,,,,2,,,57,75
7104,note_on,2,0,1,,,,,,,,0,,,82,110
7104,note_on,2,0,2,,,,,,,,3,,,82,110
7104,note_on,2,0,4,,,,,,,,1,,,72,75
7246,note_on,142,0,6,,,,,,,,5,,,45,0
7246,note_on,142,0,3,,,,,,,,4,,,82,0
7246,note_on,142,0,1,,,,,,,,0,,,82,0
7246,note_on,142,0,4,,,,,,,,1,,,72,0
7246,note_on,142,0,2,,,,,,,,3,,,82,0
7246,note_on,142,0,5,,,,,,,,2,,,57,0
7248,note_on,2,0,4,,,,,,,,1,,,72,75
7248,note_on,2,0,1,,,,,,,,0,,,70,110
7248,note_on,2,0,6,,,,,,,,5,,,45,75
7248,note_on,2,0,5,,,,,,,,2,,,57,75
7248,note_on,2,0,3,,,,,,,,4,,,70,110
7248,note_on,2,0,2,,,,,,,,3,,,70,110
7294,note_on,46,0,2,,,,,,,,3,,,70,0
7294,note_on,46,0,1,,,,,,,,0,,,70,0
7294,note_on,46,0,6,,,,,,,,5,,,45,0
7294,note_on,46,0,3,,,,,,,,4,,,70,0
7294,note_on,46,0,5,,,,,,,,2,,,57,0
7294,note_on,46,0,4,,,,,,,,1,,,72,0
7296,note_on,2,0,2,,,,,,,,3,,,82,110
7296,note_on,2,0,1,,,,,,,,0,,,82,110
7296,note_on,2,0,5,,,,,,,,2,,,55,75
7296,note_on,2,0,6,,,,,,,,5,,,43,75
7296,note_on,2,0,3,,,,,,,,4,,,82,110
7296,note_on,2,0,4,,,,,,,,1,,,70,75
7438,note_on,142,0,4,,,,,,,,1,,,70,0
7438,note_on,142,0,6,,,,,,,,5,,,43,0
7438,note_on,142,0,2,,,,,,,,3,,,82,0
7438,note_on,142,0,3,,,,,,,,4,,,82,0
7438,note_on,142,0,5,,,,,,,,2,,,55,0
7438,note_on,142,0,1,,,,,,,,0,,,82,0
7440,note_on,2,0,4,,,,,,,,1,,,70,75
7440,note_on,2,0,2,,,,,,,,3,,,70,110
7440,note_on,2,0,5,,,,,,,,2,,,55,75
7440,note_on,2,0,6,,,,,,,,5,,,43,75
7440,note_on,2,0,3,,,,,,,,4,,,70,110
7440,note_on,2,0,1,,,,,,,,0,,,70,110
7486,note_on,46,0,1,,,,,,,,0,,,70,0
7486,note_on,46,0,6,,,,,,,,5,,,43,0
7486,note_on,46,0,4,,,,,,,,1,,,70,0
7486,note_on,46,0,2,,,,,,,,3,,,70,0
7486,note_on,46,0,3,,,,,,,,4,,,70,0
7486,note_on,46,0,5,,,,,,,,2,,,55,0
7488,note_on,2,0,5,,,,,,,,2,,,53,75
7488,note_on,2,0,4,,,,,,,,1,,,69,75
7488,note_on,2,0,3,,,,,,,,4,,,82,110
7488,note_on,2,0,1,,,,,,,,0,,,82,110
7488,note_on,2,0,6,,,,,,,,5,,,41,75
7488,note_on,2,0,2,,,,,,,,3,,,82,110
7630,note_on,142,0,2,,,,,,,,3,,,82,0
7630,note_on,142,0,4,,,,,,,,1,,,69,0
7630,note_on,142,0,1,,,,,,,,0,,,82,0
7630,note_on,142,0,5,,,,,,,,2,,,53,0
7630,note_on,142,0,6,,,,,,,,5,,,41,0
7630,note_on,142,0,3,,,,,,,,4,,,82,0
7632,note_on,2,0,2,,,,,,,,3,,,70,110
7632,note_on,2,0,1,,,,,,,,0,,,70,110
7632,note_on,2,0,5,,,,,,,,2,,,51,75
7632,note_on,2,0,6,,,,,,,,5,,,39,75
7632,note_on,2,0,3,,,,,,,,4,,,70,110
7632,note_on,2,0,4,,,,,,,,1,,,67,75
7678,note_on,46,0,4,,,,,,,,1,,,67,0
7678,note_on,46,0,1,,,,,,,,0,,,70,0
7678,note_on,46,0,2,,,,,,,,3,,,70,0
7678,note_on,46,0,3,,,,,,,,4,,,70,0
7678,note_on,46,0,5,,,,,,,,2,,,51,0
7678,note_on,46,0,6,,,,,,,,5,,,39,0
7680,note_on,2,0,1,,,,,,,,0,,,82,110
7680,note_on,2,0,5,,,,,,,,2,,,50,75
7680,note_on,2,0,2,,,,,,,,3,,,82,110
7680,set_tempo,7680,1,0,,,,,,576923,,,,,,
7680,note_on,2,0,4,,,,,,,,1,,,65,75
7680,note_on,2,0,6,,,,,,,,5,,,38,75
7680,note_on,2,0,3,,,,,,,,4,,,82,110
7774,note_on,94,0,1,,,,,,,,0,,,82,0
7774,note_on,94,0,5,,,,,,,,2,,,50,0
7774,note_on,94,0,2,,,,,,,,3,,,82,0
7774,note_on,94,0,6,,,,,,,,5,,,38,0
7774,note_on,94,0,3,,,,,,,,4,,,82,0
7776,note_on,2,0,1,,,,,,,,0,,,70,110
7776,note_on,2,0,6,,,,,,,,5,,,46,75
7776,note_on,2,0,5,,,,,,,,2,,,58,75
7776,set_tempo,96,1,0,,,,,,600000,,,,,,
7776,note_on,2,0,2,,,,,,,,3,,,70,110
7776,note_on,2,0,3,,,,,,,,4,,,70,110
7840,note_on,160,0,4,,,,,,,,1,,,65,0
7870,note_on,94,0,1,,,,,,,,0,,,70,0
7870,note_on,94,0,5,,,,,,,,2,,,58,0
7870,note_on,94,0,3,,,,,,,,4,,,70,0
7870,note_on,94,0,2,,,,,,,,3,,,70,0
7870,note_on,94,0,6,,,,,,,,5,,,46,0
7872,note_on,2,0,6,,,,,,,,5,,,39,75
7872,note_on,2,0,5,,,,,,,,2,,,51,75
7872,note_on,2,0,1,,,,,,,,0,,,63,110
7872,set_tempo,96,1,0,,,,,,645161,,,,,,
7872,note_on,2,0,3,,,,,,,,4,,,63,110
7872,note_on,2,0,2,,,,,,,,3,,,63,110
7966,note_on,94,0,3,,,,,,,,4,,,63,0
7966,note_on,94,0,6,,,,,,,,5,,,39,0
7966,note_on,94,0,1,,,,,,,,0,,,63,0
7966,note_on,94,0,2,,,,,,,,3,,,63,0
7966,note_on,94,0,5,,,,,,,,2,,,51,0
7968,note_on,2,0,2,,,,,,,,3,,,65,110
7968,note_on,2,0,6,,,,,,,,5,,,41,75
7968,note_on,2,0,1,,,,,,,,0,,,65,110
7968,set_tempo,96,1,0,,,,,,612245,,,,,,
7968,note_on,2,0,5,,,,,,,,2,,,53,75
7968,note_on,2,0,3,,,,,,,,4,,,65,110
8062,note_on,94,0,6,,,,,,,,5,,,41,0
8062,note_on,94,0,2,,,,,,,,3,,,65,0
8062,note_on,94,0,5,,,,,,,,2,,,53,0
8062,note_on,94,0,1,,,,,,,,0,,,65,0
8062,note_on,94,0,3,,,,,,,,4,,,65,0
8064,note_on,224,0,4,,,,,,,,1,,,58,75
8064,note_on,2,0,6,,,,,,,,5,,,34,75
8064,note_on,2,0,5,,,,,,,,2,,,46,75
8064,note_on,2,0,3,,,,,,,,4,,,58,110
8064,set_tempo,96,1,0,,,,,,571429,,,,,,
8064,note_on,2,0,2,,,,,,,,3,,,58,110
8064,note_on,2,0,1,,,,,,,,0,,,58,110
8224,note_on,160,0,4,,,,,,,,1,,,58,0
8224,note_on,160,0,5,,,,,,,,2,,,46,0
8224,note_on,160,0,6,,,,,,,,5,,,34,0
8224,note_on,160,0,3,,,,,,,,4,,,58,0
8224,note_on,160,0,1,,,,,,,,0,,,58,0
8224,note_on,160,0,2,,,,,,,,3,,,58,0
8304,set_tempo,240,1,0,,,,,,560748,,,,,,
8304,end_of_track,0,1,0,,,,,,,,,,,,
8304,note_on,80,0,1,,,,,,,,0,,,70,110
8350,note_on,46,0,1,,,,,,,,0,,,70,0
8352,note_on,2,0,1,,,,,,,,0,,,82,110
8398,note_on,46,0,1,,,,,,,,0,,,82,0
8400,note_on,2,0,1,,,,,,,,0,,,70,110
8446,note_on,46,0,1,,,,,,,,0,,,70,0
8448,note_on,224,0,5,,,,,,,,2,,,58,75
8448,note_on,2,0,1,,,,,,,,0,,,82,110
8494,note_on,46,0,1,,,,,,,,0,,,82,0
8496,note_on,2,0,1,,,,,,,,0,,,70,110
8542,note_on,94,0,5,,,,,,,,2,,,58,0
8542,note_on,46,0,1,,,,,,,,0,,,70,0
8544,note_on,2,0,1,,,,,,,,0,,,82,110
8544,note_on,2,0,5,,,,,,,,2,,,58,75
8590,note_on,46,0,5,,,,,,,,2,,,58,0
8592,note_on,2,0,5,,,,,,,,2,,,60,75
8638,note_on,46,0,5,,,,,,,,2,,,60,0
8640,note_on,2,0,5,,,,,,,,2,,,62,75
8686,note_on,142,0,1,,,,,,,,0,,,82,0
8688,note_on,2,0,1,,,,,,,,0,,,70,110
8734,note_on,94,0,5,,,,,,,,2,,,62,0
8734,note_on,46,0,1,,,,,,,,0,,,70,0
8736,note_on,2,0,5,,,,,,,,2,,,58,75
8736,note_on,2,0,1,,,,,,,,0,,,82,110
8782,note_on,46,0,1,,,,,,,,0,,,82,0
8784,note_on,2,0,1,,,,,,,,0,,,70,110
8830,note_on,94,0,5,,,,,,,,2,,,58,0
8830,note_on,46,0,1,,,,,,,,0,,,70,0
8832,note_on,2,0,5,,,,,,,,2,,,55,75
8832,note_on,2,0,1,,,,,,,,0,,,82,110
8878,note_on,46,0,1,,,,,,,,0,,,82,0
8880,note_on,2,0,1,,,,,,,,0,,,70,110
8926,note_on,94,0,5,,,,,,,,2,,,55,0
8926,note_on,46,0,1,,,,,,,,0,,,70,0
8928,note_on,2,0,5,,,,,,,,2,,,55,75
8928,note_on,2,0,1,,,,,,,,0,,,82,110
8974,note_on,46,0,5,,,,,,,,2,,,55,0
8976,note_on,2,0,5,,,,,,,,2,,,57,75
9022,note_on,46,0,5,,,,,,,,2,,,57,0
9024,note_on,2,0,5,,,,,,,,2,,,58,75
9070,note_on,142,0,1,,,,,,,,0,,,82,0
9072,note_on,2,0,1,,,,,,,,0,,,70,110
9118,note_on,46,0,1,,,,,,,,0,,,70,0
9118,note_on,94,0,5,,,,,,,,2,,,58,0
9120,note_on,2,0,5,,,,,,,,2,,,55,75
9120,note_on,2,0,1,,,,,,,,0,,,82,110
9166,note_on,46,0,1,,,,,,,,0,,,82,0
9168,note_on,2,0,1,,,,,,,,0,,,70,110
9214,note_on,46,0,1,,,,,,,,0,,,70,0
9214,note_on,94,0,5,,,,,,,,2,,,55,0
9216,note_on,2,0,1,,,,,,,,0,,,82,110
9216,note_on,2,0,5,,,,,,,,2,,,51,75
9310,note_on,94,0,1,,,,,,,,0,,,82,0
9312,note_on,2,0,1,,,,,,,,0,,,81,110
9358,note_on,46,0,1,,,,,,,,0,,,81,0
9360,note_on,2,0,1,,,,,,,,0,,,79,110
9376,note_on,160,0,5,,,,,,,,2,,,51,0
9406,note_on,46,0,1,,,,,,,,0,,,79,0
9408,note_on,2,0,1,,,,,,,,0,,,77,110
9408,note_on,32,0,5,,,,,,,,2,,,45,75
9454,note_on,46,0,1,,,,,,,,0,,,77,0
9456,note_on,2,0,1,,,,,,,,0,,,75,110
9502,note_on,46,0,1,,,,,,,,0,,,75,0
9504,note_on,2,0,1,,,,,,,,0,,,74,110
9550,note_on,46,0,1,,,,,,,,0,,,74,0
9552,note_on,2,0,1,,,,,,,,0,,,72,110
9568,note_on,160,0,5,,,,,,,,2,,,45,0
9598,note_on,46,0,1,,,,,,,,0,,,72,0
9600,note_on,32,0,5,,,,,,,,2,,,46,75
9600,note_on,2,0,1,,,,,,,,0,,,74,110
9646,note_on,46,0,1,,,,,,,,0,,,74,0
9648,note_on,2,0,1,,,,,,,,0,,,77,110
9694,note_on,46,0,1,,,,,,,,0,,,77,0
9694,note_on,94,0,5,,,,,,,,2,,,46,0
9696,note_on,2,0,5,,,,,,,,2,,,48,75
9696,note_on,2,0,1,,,,,,,,0,,,75,110
9742,note_on,46,0,1,,,,,,,,0,,,75,0
9744,note_on,2,0,1,,,,,,,,0,,,74,110
9790,note_on,46,0,1,,,,,,,,0,,,74,0
9790,note_on,94,0,5,,,,,,,,2,,,48,0
9792,note_on,2,0,1,,,,,,,,0,,,72,110
9792,note_on,2,0,5,,,,,,,,2,,,50,75
9838,note_on,46,0,1,,,,,,,,0,,,72,0
9840,note_on,2,0,1,,,,,,,,0,,,70,110
9886,note_on,46,0,1,,,,,,,,0,,,70,0
9886,note_on,94,0,5,,,,,,,,2,,,50,0
9888,note_on,2,0,1,,,,,,,,0,,,69,110
9888,note_on,2,0,5,,,,,,,,2,,,51,75
9934,note_on,46,0,1,,,,,,,,0,,,69,0
9936,note_on,2,0,1,,,,,,,,0,,,67,110
9982,note_on,46,0,1,,,,,,,,0,,,67,0
9982,note_on,94,0,5,,,,,,,,2,,,51,0
9984,note_on,2,0,5,,,,,,,,2,,,53,75
9984,note_on,2,0,1,,,,,,,,0,,,69,110
10006,note_on,22,0,1,,,,,,,,0,,,69,0
10008,note_on,2,0,1,,,,,,,,0,,,67,110
10030,note_on,22,0,1,,,,,,,,0,,,67,0
10032,note_on,2,0,1,,,,,,,,0,,,69,110
10054,note_on,22,0,1,,,,,,,,0,,,69,0
10056,note_on,2,0,1,,,,,,,,0,,,67,110
10078,note_on,22,0,1,,,,,,,,0,,,67,0
10078,note_on,94,0,5,,,,,,,,2,,,53,0
10080,note_on,2,0,5,,,,,,,,2,,,53,75
10080,note_on,2,0,1,,,,,,,,0,,,65,110
10126,note_on,46,0,5,,,,,,,,2,,,53,0
10128,note_on,2,0,5,,,,,,,,2,,,51,75
10174,note_on,46,0,5,,,,,,,,2,,,51,0
10174,note_on,94,0,1,,,,,,,,0,,,65,0
10176,note_on,2,0,5,,,,,,,,2,,,53,75
10224,note_on,50,0,1,,,,,,,,0,,,77,110
10270,note_on,94,0,5,,,,,,,,2,,,53,0
10270,note_on,46,0,1,,,,,,,,0,,,77,0
10272,note_on,2,0,1,,,,,,,,0,,,89,110
10272,note_on,2,0,5,,,,,,,,2,,,41,75
10318,note_on,46,0,1,,,,,,,,0,,,89,0
10320,note_on,2,0,1,,,,,,,,0,,,77,110
10366,note_on,94,0,5,,,,,,,,2,,,41,0
10366,note_on,46,0,1,,,,,,,,0,,,77,0
10368,note_on,2,0,1,,,,,,,,0,,,89,110
10414,note_on,46,0,1,,,,,,,,0,,,89,0
10416,note_on,2,0,1,,,,,,,,0,,,77,110
10462,note_on,46,0,1,,,,,,,,0,,,77,0
10464,note_on,2,0,1,,,,,,,,0,,,89,110
10464,note_on,98,0,5,,,,,,,,2,,,65,75
10510,note_on,46,0,5,,,,,,,,2,,,65,0
10512,note_on,2,0,5,,,,,,,,2,,,64,75
10558,note_on,46,0,5,,,,,,,,2,,,64,0
10560,note_on,2,0,5,,,,,,,,2,,,65,75
10606,note_on,142,0,1,,,,,,,,0,,,89,0
10608,note_on,2,0,1,,,,,,,,0,,,77,110
10654,note_on,46,0,1,,,,,,,,0,,,77,0
10654,note_on,94,0,5,,,,,,,,2,,,65,0
10656,note_on,2,0,1,,,,,,,,0,,,89,110
10656,note_on,2,0,5,,,,,,,,2,,,53,75
10702,note_on,46,0,1,,,,,,,,0,,,89,0
10704,note_on,2,0,1,,,,,,,,0,,,77,110
10750,note_on,94,0,5,,,,,,,,2,,,53,0
10750,note_on,46,0,1,,,,,,,,0,,,77,0
10752,note_on,2,0,1,,,,,,,,0,,,89,110
10798,note_on,46,0,1,,,,,,,,0,,,89,0
10800,note_on,2,0,1,,,,,,,,0,,,77,110
10846,note_on,46,0,1,,,,,,,,0,,,77,0
10848,note_on,98,0,5,,,,,,,,2,,,65,75
10848,note_on,2,0,1,,,,,,,,0,,,89,110
10894,note_on,46,0,5,,,,,,,,2,,,65,0
10896,note_on,2,0,5,,,,,,,,2,,,64,75
10942,note_on,46,0,5,,,,,,,,2,,,64,0
10944,note_on,2,0,5,,,,,,,,2,,,65,75
10990,note_on,142,0,1,,,,,,,,0,,,89,0
10992,note_on,2,0,1,,,,,,,,0,,,77,110
11038,note_on,46,0,1,,,,,,,,0,,,77,0
11038,note_on,94,0,5,,,,,,,,2,,,65,0
11040,note_on,2,0,5,,,,,,,,2,,,53,75
11040,note_on,2,0,1,,,,,,,,0,,,89,110
11086,note_on,46,0,1,,,,,,,,0,,,89,0
11088,note_on,2,0,1,,,,,,,,0,,,77,110
11134,note_on,46,0,1,,,,,,,,0,,,77,0
11134,note_on,94,0,5,,,,,,,,2,,,53,0
11136,note_on,2,0,1,,,,,,,,0,,,89,110
11230,note_on,94,0,1,,,,,,,,0,,,89,0
11232,note_on,98,0,5,,,,,,,,2,,,58,75
11232,note_on,2,0,1,,,,,,,,0,,,88,110
11278,note_on,46,0,1,,,,,,,,0,,,88,0
11280,note_on,2,0,1,,,,,,,,0,,,86,110
11326,note_on,46,0,1,,,,,,,,0,,,86,0
11326,note_on,94,0,5,,,,,,,,2,,,58,0
11328,note_on,2,0,5,,,,,,,,2,,,52,75
11328,note_on,2,0,1,,,,,,,,0,,,84,110
11374,note_on,46,0,1,,,,,,,,0,,,84,0
11376,note_on,2,0,1,,,,,,,,0,,,82,110
11422,note_on,46,0,1,,,,,,,,0,,,82,0
11424,note_on,2,0,1,,,,,,,,0,,,81,110
11470,note_on,46,0,1,,,,,,,,0,,,81,0
11472,note_on,2,0,1,,,,,,,,0,,,79,110
11488,note_on,160,0,5,,,,,,,,2,,,52,0
11518,note_on,46,0,1,,,,,,,,0,,,79,0
11520,note_on,2,0,1,,,,,,,,0,,,81,110
11520,note_on,32,0,5,,,,,,,,2,,,53,75
11614,note_on,94,0,1,,,,,,,,0,,,81,0
11614,note_on,94,0,5,,,,,,,,2,,,53,0
11616,note_on,2,0,5,,,,,,,,2,,,65,75
11616,note_on,2,0,1,,,,,,,,0,,,77,110
11662,note_on,46,0,5,,,,,,,,2,,,65,0
11664,note_on,2,0,5,,,,,,,,2,,,64,75
11710,note_on,46,0,5,,,,,,,,2,,,64,0
11710,note_on,94,0,1,,,,,,,,0,,,77,0
11712,note_on,2,0,5,,,,,,,,2,,,65,75
11806,note_on,94,0,5,,,,,,,,2,,,65,0
11808,note_on,98,0,1,,,,,,,,0,,,89,110
11808,note_on,2,0,5,,,,,,,,2,,,53,75
11902,note_on,94,0,1,,,,,,,,0,,,89,0
11902,note_on,94,0,5,,,,,,,,2,,,53,0
11904,note_on,2,0,1,,,,,,,,0,,,89,110
11936,note_on,32,0,1,,,,,,,,0,,,89,0
12000,note_on,98,0,5,,,,,,,,2,,,57,75
12000,note_on,64,0,1,,,,,,,,0,,,89,110
12032,note_on,32,0,1,,,,,,,,0,,,89,0
12046,note_on,46,0,5,,,,,,,,2,,,57,0
12048,note_on,2,0,5,,,,,,,,2,,,55,75
12048,note_on,16,0,1,,,,,,,,0,,,89,110
12080,note_on,32,0,1,,,,,,,,0,,,89,0
12094,note_on,46,0,5,,,,,,,,2,,,55,0
12096,note_on,16,0,1,,,,,,,,0,,,89,110
12096,note_on,2,0,5,,,,,,,,2,,,57,75
12142,note_on,46,0,1,,,,,,,,0,,,89,0
12144,note_on,2,0,1,,,,,,,,0,,,87,110
12190,note_on,94,0,5,,,,,,,,2,,,57,0
12190,note_on,46,0,1,,,,,,,,0,,,87,0
12192,note_on,2,0,5,,,,,,,,2,,,45,75
12192,note_on,2,0,1,,,,,,,,0,,,86,110
12238,note_on,46,0,1,,,,,,,,0,,,86,0
12240,note_on,2,0,1,,,,,,,,0,,,84,110
12286,note_on,94,0,5,,,,,,,,2,,,45,0
12286,note_on,46,0,1,,,,,,,,0,,,84,0
12288,note_on,0,0,1,,,,,,,,0,,,86,110
12288,note_on,2,0,1,,,,,,,,0,,,82,110
12382,note_on,94,0,1,,,,,,,,0,,,86,0
12382,note_on,0,0,1,,,,,,,,0,,,82,0
12384,note_on,0,0,1,,,,,,,,0,,,86,110
12384,note_on,2,0,1,,,,,,,,0,,,82,110
12384,note_on,98,0,5,,,,,,,,2,,,58,75
12430,note_on,46,0,5,,,,,,,,2,,,58,0
12430,note_on,0,0,1,,,,,,,,0,,,82,0
12430,note_on,46,0,1,,,,,,,,0,,,86,0
12432,note_on,2,0,5,,,,,,,,2,,,57,75
12432,note_on,0,0,1,,,,,,,,0,,,86,110
12432,note_on,2,0,1,,,,,,,,0,,,82,110
12478,note_on,46,0,5,,,,,,,,2,,,57,0
12478,note_on,0,0,1,,,,,,,,0,,,82,0
12478,note_on,46,0,1,,,,,,,,0,,,86,0
12480,note_on,2,0,5,,,,,,,,2,,,58,75
12480,note_on,2,0,1,,,,,,,,0,,,82,110
12480,note_on,0,0,1,,,,,,,,0,,,86,110
12574,note_on,94,0,1,,,,,,,,0,,,86,0
12574,note_on,0,0,1,,,,,,,,0,,,82,0
12574,note_on,94,0,5,,,,,,,,2,,,58,0
12576,note_on,2,0,5,,,,,,,,2,,,46,75
12576,note_on,0,0,1,,,,,,,,0,,,86,110
12576,note_on,2,0,1,,,,,,,,0,,,82,110
12670,note_on,0,0,1,,,,,,,,0,,,82,0
12670,note_on,94,0,5,,,,,,,,2,,,46,0
12670,note_on,94,0,1,,,,,,,,0,,,86,0
12672,note_on,2,0,1,,,,,,,,0,,,87,110
12704,note_on,32,0,1,,,,,,,,0,,,87,0
12768,note_on,64,0,1,,,,,,,,0,,,87,110
12768,note_on,98,0,5,,,,,,,,2,,,55,75
12800,note_on,32,0,1,,,,,,,,0,,,87,0
12814,note_on,46,0,5,,,,,,,,2,,,55,0
12816,note_on,16,0,1,,,,,,,,0,,,87,110
12816,note_on,2,0,5,,,,,,,,2,,,53,75
12848,note_on,32,0,1,,,,,,,,0,,,87,0
12862,note_on,46,0,5,,,,,,,,2,,,53,0
12864,note_on,2,0,5,,,,,,,,2,,,55,75
12864,note_on,16,0,1,,,,,,,,0,,,87,110
12910,note_on,46,0,1,,,,,,,,0,,,87,0
12912,note_on,2,0,1,,,,,,,,0,,,86,110
12958,note_on,46,0,1,,,,,,,,0,,,86,0
12958,note_on,94,0,5,,,,,,,,2,,,55,0
12960,note_on,2,0,5,,,,,,,,2,,,43,75
12960,note_on,2,0,1,,,,,,,,0,,,84,110
13006,note_on,46,0,1,,,,,,,,0,,,84,0
13008,note_on,2,0,1,,,,,,,,0,,,82,110
13054,note_on,46,0,1,,,,,,,,0,,,82,0
13054,note_on,94,0,5,,,,,,,,2,,,43,0
13056,note_on,2,0,1,,,,,,,,0,,,81,110
13056,note_on,0,0,1,,,,,,,,0,,,84,110
13150,note_on,0,0,1,,,,,,,,0,,,81,0
13150,note_on,94,0,1,,,,,,,,0,,,84,0
13152,note_on,2,0,1,,,,,,,,0,,,81,110
13152,note_on,98,0,5,,,,,,,,2,,,57,75
13152,note_on,0,0,1,,,,,,,,0,,,84,110
13198,note_on,46,0,1,,,,,,,,0,,,84,0
13198,note_on,46,0,5,,,,,,,,2,,,57,0
13198,note_on,0,0,1,,,,,,,,0,,,81,0
13200,note_on,0,0,1,,,,,,,,0,,,84,110
13200,note_on,2,0,5,,,,,,,,2,,,55,75
13200,note_on,2,0,1,,,,,,,,0,,,81,110
13246,note_on,46,0,1,,,,,,,,0,,,84,0
13246,note_on,0,0,1,,,,,,,,0,,,81,0
13246,note_on,46,0,5,,,,,,,,2,,,55,0
13248,note_on,2,0,1,,,,,,,,0,,,81,110
13248,note_on,2,0,5,,,,,,,,2,,,57,75
13248,note_on,0,0,1,,,,,,,,0,,,84,110
13342,note_on,94,0,1,,,,,,,,0,,,84,0
13342,note_on,0,0,1,,,,,,,,0,,,81,0
13342,note_on,94,0,5,,,,,,,,2,,,57,0
13344,note_on,2,0,5,,,,,,,,2,,,45,75
13344,note_on,0,0,1,,,,,,,,0,,,84,110
13344,note_on,2,0,1,,,,,,,,0,,,81,110
13438,note_on,0,0,1,,,,,,,,0,,,81,0
13438,note_on,94,0,1,,,,,,,,0,,,84,0
13438,note_on,94,0,5,,,,,,,,2,,,45,0
13440,note_on,2,0,1,,,,,,,,0,,,86,110
13472,note_on,32,0,1,,,,,,,,0,,,86,0
13536,note_on,98,0,5,,,,,,,,2,,,53,75
13536,note_on,64,0,1,,,,,,,,0,,,86,110
13568,note_on,32,0,1,,,,,,,,0,,,86,0
13582,note_on,46,0,5,,,,,,,,2,,,53,0
13584,note_on,16,0,1,,,,,,,,0,,,86,110
13584,note_on,2,0,5,,,,,,,,2,,,51,75
13616,note_on,32,0,1,,,,,,,,0,,,86,0
13630,note_on,46,0,5,,,,,,,,2,,,51,0
13632,note_on,16,0,1,,,,,,,,0,,,86,110
13632,note_on,2,0,5,,,,,,,,2,,,53,75
13678,note_on,46,0,1,,,,,,,,0,,,86,0
13680,note_on,2,0,1,,,,,,,,0,,,84,110
13726,note_on,94,0,5,,,,,,,,2,,,53,0
13726,note_on,46,0,1,,,,,,,,0,,,84,0
13728,note_on,2,0,1,,,,,,,,0,,,82,110
13728,note_on,2,0,5,,,,,,,,2,,,41,75
13774,note_on,46,0,1,,,,,,,,0,,,82,0
13776,note_on,2,0,1,,,,,,,,0,,,81,110
13822,note_on,94,0,5,,,,,,,,2,,,41,0
13822,note_on,46,0,1,,,,,,,,0,,,81,0
13824,note_on,2,0,1,,,,,,,,0,,,79,110
13824,note_on,0,0,1,,,,,,,,0,,,82,110
13918,note_on,94,0,1,,,,,,,,0,,,82,0
13918,note_on,0,0,1,,,,,,,,0,,,79,0
13920,note_on,2,0,1,,,,,,,,0,,,79,110
13920,note_on,98,0,5,,,,,,,,2,,,55,75
13920,note_on,0,0,1,,,,,,,,0,,,82,110
13966,note_on,0,0,1,,,,,,,,0,,,79,0
13966,note_on,46,0,1,,,,,,,,0,,,82,0
13966,note_on,46,0,5,,,,,,,,2,,,55,0
13968,note_on,2,0,5,,,,,,,,2,,,53,75
13968,note_on,2,0,1,,,,,,,,0,,,79,110
13968,note_on,0,0,1,,,,,,,,0,,,82,110
14014,note_on,46,0,1,,,,,,,,0,,,82,0
14014,note_on,0,0,1,,,,,,,,0,,,79,0
14014,note_on,46,0,5,,,,,,,,2,,,53,0
14016,note_on,0,0,1,,,,,,,,0,,,82,110
14016,note_on,2,0,1,,,,,,,,0,,,79,110
14016,note_on,2,0,5,,,,,,,,2,,,55,75
14110,note_on,94,0,1,,,,,,,,0,,,82,0
14110,note_on,0,0,1,,,,,,,,0,,,79,0
14110,note_on,94,0,5,,,,,,,,2,,,55,0
14112,note_on,2,0,5,,,,,,,,2,,,43,75
14112,note_on,0,0,1,,,,,,,,0,,,82,110
14112,note_on,2,0,1,,,,,,,,0,,,79,110
14206,note_on,94,0,5,,,,,,,,2,,,43,0
14206,note_on,0,0,1,,,,,,,,0,,,79,0
14206,note_on,94,0,1,,,,,,,,0,,,82,0
14208,note_on,2,0,1,,,,,,,,0,,,84,110
14240,note_on,32,0,1,,,,,,,,0,,,84,0
14304,note_on,98,0,5,,,,,,,,2,,,51,75
14304,note_on,64,0,1,,,,,,,,0,,,84,110
14336,note_on,32,0,1,,,,,,,,0,,,84,0
14350,note_on,46,0,5,,,,,,,,2,,,51,0
14352,note_on,2,0,5,,,,,,,,2,,,50,75
14352,note_on,16,0,1,,,,,,,,0,,,84,110
14384,note_on,32,0,1,,,,,,,,0,,,84,0
14398,note_on,46,0,5,,,,,,,,2,,,50,0
14400,note_on,2,0,5,,,,,,,,2,,,51,75
14400,note_on,16,0,1,,,,,,,,0,,,84,110
14446,note_on,46,0,1,,,,,,,,0,,,84,0
14448,note_on,2,0,1,,,,,,,,0,,,82,110
14494,note_on,46,0,1,,,,,,,,0,,,82,0
14494,note_on,94,0,5,,,,,,,,2,,,51,0
14496,note_on,2,0,1,,,,,,,,0,,,81,110
14496,note_on,2,0,5,,,,,,,,2,,,39,75
14542,note_on,46,0,1,,,,,,,,0,,,81,0
14544,note_on,2,0,1,,,,,,,,0,,,79,110
14590,note_on,46,0,1,,,,,,,,0,,,79,0
14590,note_on,94,0,5,,,,,,,,2,,,39,0
14592,note_on,2,0,1,,,,,,,,0,,,77,110
14592,note_on,0,0,1,,,,,,,,0,,,81,110
14686,note_on,0,0,1,,,,,,,,0,,,77,0
14686,note_on,94,0,1,,,,,,,,0,,,81,0
14688,note_on,98,0,5,,,,,,,,2,,,53,75
14688,note_on,2,0,1,,,,,,,,0,,,77,110
14688,note_on,0,0,1,,,,,,,,0,,,81,110
14734,note_on,46,0,5,,,,,,,,2,,,53,0
14734,note_on,46,0,1,,,,,,,,0,,,81,0
14734,note_on,0,0,1,,,,,,,,0,,,77,0
14736,note_on,0,0,1,,,,,,,,0,,,81,110
14736,note_on,2,0,1,,,,,,,,0,,,77,110
14736,note_on,2,0,5,,,,,,,,2,,,51,75
14782,note_on,46,0,1,,,,,,,,0,,,81,0
14782,note_on,0,0,1,,,,,,,,0,,,77,0
14782,note_on,46,0,5,,,,,,,,2,,,51,0
14784,note_on,2,0,5,,,,,,,,2,,,53,75
14784,note_on,0,0,1,,,,,,,,0,,,81,110
14784,note_on,2,0,1,,,,,,,,0,,,77,110
14878,note_on,0,0,1,,,,,,,,0,,,77,0
14878,note_on,94,0,1,,,,,,,,0,,,81,0
14878,note_on,94,0,5,,,,,,,,2,,,53,0
14880,note_on,0,0,1,,,,,,,,0,,,81,110
14880,note_on,2,0,1,,,,,,,,0,,,77,110
14880,note_on,2,0,5,,,,,,,,2,,,39,75
14974,note_on,0,0,1,,,,,,,,0,,,77,0
14974,note_on,94,0,1,,,,,,,,0,,,81,0
14974,note_on,94,0,5,,,,,,,,2,,,39,0
14976,note_on,2,0,1,,,,,,,,0,,,82,110
15008,note_on,32,0,1,,,,,,,,0,,,82,0
15072,note_on,64,0,1,,,,,,,,0,,,82,110
15072,note_on,98,0,5,,,,,,,,2,,,50,75
15104,note_on,32,0,1,,,,,,,,0,,,82,0
15118,note_on,46,0,5,,,,,,,,2,,,50,0
15120,note_on,2,0,5,,,,,,,,2,,,48,75
15120,note_on,16,0,1,,,,,,,,0,,,82,110
15152,note_on,32,0,1,,,,,,,,0,,,82,0
15166,note_on,46,0,5,,,,,,,,2,,,48,0
15168,note_on,2,0,5,,,,,,,,2,,,50,75
15168,note_on,16,0,1,,,,,,,,0,,,82,110
15214,note_on,46,0,1,,,,,,,,0,,,82,0
15216,note_on,2,0,1,,,,,,,,0,,,81,110
15262,note_on,46,0,1,,,,,,,,0,,,81,0
15262,note_on,94,0,5,,,,,,,,2,,,50,0
15264,note_on,2,0,5,,,,,,,,2,,,38,75
15264,note_on,2,0,1,,,,,,,,0,,,79,110
15310,note_on,46,0,1,,,,,,,,0,,,79,0
15312,note_on,2,0,1,,,,,,,,0,,,77,110
15358,note_on,46,0,1,,,,,,,,0,,,77,0
15358,note_on,94,0,5,,,,,,,,2,,,38,0
15360,note_on,2,0,1,,,,,,,,0,,,72,110
15360,note_on,0,0,1,,,,,,,,0,,,79,110
15454,note_on,94,0,1,,,,,,,,0,,,79,0
15454,note_on,0,0,1,,,,,,,,0,,,72,0
15456,note_on,0,0,1,,,,,,,,0,,,79,110
15456,note_on,2,0,1,,,,,,,,0,,,72,110
15456,note_on,98,0,5,,,,,,,,2,,,60,75
15502,note_on,0,0,1,,,,,,,,0,,,72,0
15502,note_on,46,0,1,,,,,,,,0,,,79,0
15502,note_on,46,0,5,,,,,,,,2,,,60,0
15504,note_on,2,0,5,,,,,,,,2,,,58,75
15504,note_on,2,0,1,,,,,,,,0,,,72,110
15504,note_on,0,0,1,,,,,,,,0,,,79,110
15550,note_on,0,0,1,,,,,,,,0,,,72,0
15550,note_on,46,0,5,,,,,,,,2,,,58,0
15550,note_on,46,0,1,,,,,,,,0,,,79,0
15552,note_on,2,0,5,,,,,,,,2,,,60,75
15552,note_on,2,0,1,,,,,,,,0,,,72,110
15552,note_on,0,0,1,,,,,,,,0,,,79,110
15646,note_on,0,0,1,,,,,,,,0,,,72,0
15646,note_on,94,0,5,,,,,,,,2,,,60,0
15646,note_on,94,0,1,,,,,,,,0,,,79,0
15648,note_on,0,0,1,,,,,,,,0,,,79,110
15648,note_on,2,0,1,,,,,,,,0,,,72,110
15648,note_on,2,0,5,,,,,,,,2,,,48,75
15742,note_on,0,0,1,,,,,,,,0,,,72,0
15742,note_on,94,0,1,,,,,,,,0,,,79,0
15742,note_on,94,0,5,,,,,,,,2,,,48,0
15744,note_on,2,0,5,,,,,,,,2,,,60,75
15744,note_on,2,0,1,,,,,,,,0,,,84,110
15886,note_on,142,0,5,,,,,,,,2,,,60,0
15886,note_on,142,0,1,,,,,,,,0,,,84,0
15888,note_on,2,0,1,,,,,,,,0,,,72,110
15888,note_on,2,0,5,,,,,,,,2,,,60,75
15934,note_on,46,0,5,,,,,,,,2,,,60,0
15934,note_on,46,0,1,,,,,,,,0,,,72,0
15936,note_on,2,0,5,,,,,,,,2,,,48,75
15936,note_on,2,0,1,,,,,,,,0,,,84,110
16078,note_on,142,0,5,,,,,,,,2,,,48,0
16078,note_on,142,0,1,,,,,,,,0,,,84,0
16080,note_on,2,0,1,,,,,,,,0,,,72,110
16080,note_on,2,0,5,,,,,,,,2,,,48,75
16126,note_on,46,0,5,,,,,,,,2,,,48,0
16126,note_on,46,0,1,,,,,,,,0,,,72,0
16128,note_on,7904,0,6,,,,,,,,5,,,41,75
16128,note_on,2,0,5,,,,,,,,2,,,53,75
16128,note_on,2,0,1,,,,,,,,0,,,81,110
16222,note_on,94,0,6,,,,,,,,5,,,41,0
16222,note_on,94,0,5,,,,,,,,2,,,53,0
16222,note_on,94,0,1,,,,,,,,0,,,81,0
16224,note_on,2,0,5,,,,,,,,2,,,41,75
16224,note_on,2,0,1,,,,,,,,0,,,79,110
16224,note_on,2,0,6,,,,,,,,5,,,29,75
16270,note_on,46,0,1,,,,,,,,0,,,79,0
16272,note_on,2,0,1,,,,,,,,0,,,77,110
16318,note_on,94,0,5,,,,,,,,2,,,41,0
16318,note_on,94,0,6,,,,,,,,5,,,29,0
16318,note_on,46,0,1,,,,,,,,0,,,77,0
16320,note_on,0,0,1,,,,,,,,0,,,81,110
16320,note_on,2,0,1,,,,,,,,0,,,72,110
16320,note_on,2,0,6,,,,,,,,5,,,48,75
16320,note_on,2,0,5,,,,,,,,2,,,60,75
16342,note_on,22,0,1,,,,,,,,0,,,81,0
16344,note_on,2,0,1,,,,,,,,0,,,79,110
16366,note_on,22,0,1,,,,,,,,0,,,79,0
16368,note_on,2,0,1,,,,,,,,0,,,81,110
16390,note_on,22,0,1,,,,,,,,0,,,81,0
16392,note_on,2,0,1,,,,,,,,0,,,79,110
16414,note_on,94,0,6,,,,,,,,5,,,48,0
16414,note_on,22,0,1,,,,,,,,0,,,79,0
16414,note_on,94,0,5,,,,,,,,2,,,60,0
16416,note_on,2,0,1,,,,,,,,0,,,81,110
16416,note_on,2,0,5,,,,,,,,2,,,48,75
16416,note_on,2,0,6,,,,,,,,5,,,36,75
16438,note_on,22,0,1,,,,,,,,0,,,81,0
16440,note_on,2,0,1,,,,,,,,0,,,79,110
16462,note_on,22,0,1,,,,,,,,0,,,79,0
16464,note_on,2,0,1,,,,,,,,0,,,77,110
16480,note_on,16,0,1,,,,,,,,0,,,72,0
16510,note_on,94,0,5,,,,,,,,2,,,48,0
16510,note_on,30,0,1,,,,,,,,0,,,77,0
16510,note_on,94,0,6,,,,,,,,5,,,36,0
16512,note_on,0,0,1,,,,,,,,0,,,77,110
16512,note_on,2,0,5,,,,,,,,2,,,53,75
16512,note_on,2,0,6,,,,,,,,5,,,41,75
16512,note_on,2,0,1,,,,,,,,0,,,65,110
16512,note_on,8288,0,4,,,,,,,,1,,,69,75
16512,note_on,8288,0,2,,,,,,,,3,,,65,110
16512,note_on,8288,0,3,,,,,,,,4,,,65,110
16606,note_on,94,0,4,,,,,,,,1,,,69,0
16606,note_on,94,0,5,,,,,,,,2,,,53,0
16606,note_on,94,0,6,,,,,,,,5,,,41,0
16608,note_on,2,0,6,,,,,,,,5,,,41,75
16608,note_on,2,0,4,,,,,,,,1,,,69,75
16608,note_on,2,0,5,,,,,,,,2,,,53,75
16654,note_on,46,0,6,,,,,,,,5,,,41,0
16654,note_on,46,0,4,,,,,,,,1,,,69,0
16654,note_on,46,0,5,,,,,,,,2,,,53,0
16656,note_on,2,0,6,,,,,,,,5,,,43,75
16656,note_on,2,0,5,,,,,,,,2,,,55,75
16656,note_on,2,0,4,,,,,,,,1,,,70,75
16702,note_on,46,0,4,,,,,,,,1,,,70,0
16702,note_on,46,0,5,,,,,,,,2,,,55,0
16702,note_on,46,0,6,,,,,,,,5,,,43,0
16704,note_on,2,0,4,,,,,,,,1,,,72,75
16704,note_on,2,0,6,,,,,,,,5,,,45,75
16704,note_on,2,0,5,,,,,,,,2,,,57,75
16750,note_on,238,0,3,,,,,,,,4,,,65,0
16750,note_on,238,0,2,,,,,,,,3,,,65,0
16750,note_on,0,0,1,,,,,,,,0,,,65,0
16750,note_on,238,0,1,,,,,,,,0,,,77,0
16752,note_on,2,0,2,,,,,,,,3,,,65,110
16752,note_on,2,0,1,,,,,,,,0,,,65,110
16752,note_on,2,0,3,,,,,,,,4,,,65,110
16798,note_on,46,0,2,,,,,,,,3,,,65,0
16798,note_on,46,0,3,,,,,,,,4,,,65,0
16798,note_on,94,0,6,,,,,,,,5,,,45,0
16798,note_on,94,0,4,,,,,,,,1,,,72,0
16798,note_on,46,0,1,,,,,,,,0,,,65,0
16798,note_on,94,0,5,,,,,,,,2,,,57,0
16800,note_on,2,0,5,,,,,,,,2,,,53,75
16800,note_on,2,0,6,,,,,,,,5,,,41,75
16800,note_on,2,0,3,,,,,,,,4,,,77,110
16800,note_on,2,0,2,,,,,,,,3,,,77,110
16800,note_on,2,0,1,,,,,,,,0,,,77,110
16800,note_on,2,0,4,,,,,,,,1,,,69,75
16846,note_on,46,0,2,,,,,,,,3,,,77,0
16846,note_on,46,0,1,,,,,,,,0,,,77,0
16846,note_on,46,0,3,,,,,,,,4,,,77,0
16848,note_on,2,0,1,,,,,,,,0,,,65,110
16848,note_on,2,0,2,,,,,,,,3,,,65,110
16848,note_on,2,0,3,,,,,,,,4,,,65,110
16894,note_on,94,0,6,,,,,,,,5,,,41,0
16894,note_on,46,0,3,,,,,,,,4,,,65,0
16894,note_on,46,0,1,,,,,,,,0,,,65,0
16894,note_on,94,0,5,,,,,,,,2,,,53,0
16894,note_on,94,0,4,,,,,,,,1,,,69,0
16894,note_on,46,0,2,,,,,,,,3,,,65,0
16896,note_on,2,0,1,,,,,,,,0,,,77,110
16896,note_on,2,0,6,,,,,,,,5,,,38,75
16896,note_on,2,0,5,,,,,,,,2,,,50,75
16896,note_on,2,0,3,,,,,,,,4,,,77,110
16896,note_on,2,0,4,,,,,,,,1,,,65,75
16896,note_on,2,0,2,,,,,,,,3,,,77,110
16942,note_on,46,0,2,,,,,,,,3,,,77,0
16942,note_on,46,0,1,,,,,,,,0,,,77,0
16942,note_on,46,0,3,,,,,,,,4,,,77,0
16944,note_on,2,0,2,,,,,,,,3,,,65,110
16944,note_on,2,0,3,,,,,,,,4,,,65,110
16944,note_on,2,0,1,,,,,,,,0,,,65,110
16990,note_on,94,0,4,,,,,,,,1,,,65,0
16990,note_on,46,0,2,,,,,,,,3,,,65,0
16990,note_on,46,0,3,,,,,,,,4,,,65,0
16990,note_on,94,0,6,,,,,,,,5,,,38,0
16990,note_on,46,0,1,,,,,,,,0,,,65,0
16990,note_on,94,0,5,,,,,,,,2,,,50,0
16992,note_on,2,0,1,,,,,,,,0,,,77,110
16992,note_on,2,0,6,,,,,,,,5,,,38,75
16992,note_on,2,0,4,,,,,,,,1,,,65,75
16992,note_on,2,0,3,,,,,,,,4,,,77,110
16992,note_on,2,0,5,,,,,,,,2,,,50,75
16992,note_on,2,0,2,,,,,,,,3,,,77,110
17038,note_on,46,0,5,,,,,,,,2,,,50,0
17038,note_on,46,0,6,,,,,,,,5,,,38,0
17038,note_on,46,0,4,,,,,,,,1,,,65,0
17040,note_on,2,0,6,,,,,,,,5,,,40,75
17040,note_on,2,0,5,,,,,,,,2,,,52,75
17040,note_on,2,0,4,,,,,,,,1,,,67,75
17086,note_on,46,0,6,,,,,,,,5,,,40,0
17086,note_on,46,0,5,,,,,,,,2,,,52,0
17086,note_on,46,0,4,,,,,,,,1,,,67,0
17088,note_on,2,0,6,,,,,,,,5,,,41,75
17088,note_on,2,0,5,,,,,,,,2,,,53,75
17088,note_on,2,0,4,,,,,,,,1,,,69,75
17134,note_on,142,0,3,,,,,,,,4,,,77,0
17134,note_on,142,0,1,,,,,,,,0,,,77,0
17134,note_on,142,0,2,,,,,,,,3,,,77,0
17136,note_on,2,0,1,,,,,,,,0,,,65,110
17136,note_on,2,0,3,,,,,,,,4,,,65,110
17136,note_on,2,0,2,,,,,,,,3,,,65,110
17182,note_on,94,0,4,,,,,,,,1,,,69,0
17182,note_on,94,0,6,,,,,,,,5,,,41,0
17182,note_on,46,0,3,,,,,,,,4,,,65,0
17182,note_on,94,0,5,,,,,,,,2,,,53,0
17182,note_on,46,0,2,,,,,,,,3,,,65,0
17182,note_on,46,0,1,,,,,,,,0,,,65,0
17184,note_on,2,0,6,,,,,,,,5,,,38,75
17184,note_on,2,0,5,,,,,,,,2,,,50,75
17184,note_on,2,0,1,,,,,,,,0,,,77,110
17184,note_on,2,0,4,,,,,,,,1,,,65,75
17184,note_on,2,0,2,,,,,,,,3,,,77,110
17184,note_on,2,0,3,,,,,,,,4,,,77,110
17230,note_on,46,0,1,,,,,,,,0,,,77,0
17230,note_on,46,0,2,,,,,,,,3,,,77,0
17230,note_on,46,0,3,,,,,,,,4,,,77,0
17232,note_on,2,0,3,,,,,,,,4,,,65,110
17232,note_on,2,0,1,,,,,,,,0,,,65,110
17232,note_on,2,0,2,,,,,,,,3,,,65,110
17278,note_on,46,0,2,,,,,,,,3,,,65,0
17278,note_on,94,0,4,,,,,,,,1,,,65,0
17278,note_on,94,0,6,,,,,,,,5,,,38,0
17278,note_on,46,0,3,,,,,,,,4,,,65,0
17278,note_on,94,0,5,,,,,,,,2,,,50,0
17278,note_on,46,0,1,,,,,,,,0,,,65,0
17280,note_on,2,0,1,,,,,,,,0,,,77,110
17280,note_on,2,0,2,,,,,,,,3,,,77,110
17280,note_on,2,0,5,,,,,,,,2,,,46,75
17280,note_on,2,0,4,,,,,,,,1,,,62,75
17280,note_on,2,0,6,,,,,,,,5,,,34,75
17280,note_on,2,0,3,,,,,,,,4,,,77,110
17326,note_on,46,0,3,,,,,,,,4,,,77,0
17326,note_on,46,0,1,,,,,,,,0,,,77,0
17326,note_on,46,0,2,,,,,,,,3,,,77,0
17328,note_on,2,0,1,,,,,,,,0,,,65,110
17328,note_on,2,0,3,,,,,,,,4,,,65,110
17328,note_on,2,0,2,,,,,,,,3,,,65,110
17374,note_on,94,0,5,,,,,,,,2,,,46,0
17374,note_on,46,0,3,,,,,,,,4,,,65,0
17374,note_on,46,0,1,,,,,,,,0,,,65,0
17374,note_on,46,0,2,,,,,,,,3,,,65,0
17374,note_on,94,0,6,,,,,,,,5,,,34,0
17374,note_on,94,0,4,,,,,,,,1,,,62,0
17376,note_on,2,0,4,,,,,,,,1,,,62,75
17376,note_on,2,0,5,,,,,,,,2,,,46,75
17376,note_on,2,0,1,,,,,,,,0,,,77,110
17376,note_on,2,0,3,,,,,,,,4,,,77,110
17376,note_on,2,0,6,,,,,,,,5,,,34,75
17376,note_on,2,0,2,,,,,,,,3,,,77,110
17422,note_on,46,0,5,,,,,,,,2,,,46,0
17422,note_on,46,0,6,,,,,,,,5,,,34,0
17422,note_on,46,0,4,,,,,,,,1,,,62,0
17424,note_on,2,0,6,,,,,,,,5,,,36,75
17424,note_on,2,0,4,,,,,,,,1,,,64,75
17424,note_on,2,0,5,,,,,,,,2,,,48,75
17470,note_on,46,0,5,,,,,,,,2,,,48,0
17470,note_on,46,0,4,,,,,,,,1,,,64,0
17470,note_on,46,0,6,,,,,,,,5,,,36,0
17472,note_on,2,0,4,,,,,,,,1,,,65,75
17472,note_on,2,0,5,,,,,,,,2,,,50,75
17472,note_on,2,0,6,,,,,,,,5,,,38,75
17518,note_on,142,0,3,,,,,,,,4,,,77,0
17518,note_on,142,0,2,,,,,,,,3,,,77,0
17518,note_on,142,0,1,,,,,,,,0,,,77,0
17520,note_on,2,0,1,,,,,,,,0,,,65,110
17520,note_on,2,0,3,,,,,,,,4,,,65,110
17520,note_on,2,0,2,,,,,,,,3,,,65,110
17566,note_on,94,0,5,,,,,,,,2,,,50,0
17566,note_on,94,0,4,,,,,,,,1,,,65,0
17566,note_on,94,0,6,,,,,,,,5,,,38,0
17566,note_on,46,0,3,,,,,,,,4,,,65,0
17566,note_on,46,0,2,,,,,,,,3,,,65,0
17566,note_on,46,0,1,,,,,,,,0,,,65,0
17568,note_on,2,0,3,,,,,,,,4,,,77,110
17568,note_on,2,0,6,,,,,,,,5,,,34,75
17568,note_on,2,0,5,,,,,,,,2,,,46,75
17568,note_on,2,0,1,,,,,,,,0,,,77,110
17568,note_on,2,0,4,,,,,,,,1,,,62,75
17568,note_on,2,0,2,,,,,,,,3,,,77,110
17614,note_on,46,0,1,,,,,,,,0,,,77,0
17614,note_on,46,0,3,,,,,,,,4,,,77,0
17614,note_on,46,0,2,,,,,,,,3,,,77,0
17616,note_on,2,0,1,,,,,,,,0,,,65,110
17616,note_on,2,0,3,,,,,,,,4,,,65,110
17616,note_on,2,0,2,,,,,,,,3,,,65,110
17662,note_on,94,0,4,,,,,,,,1,,,62,0
17662,note_on,94,0,5,,,,,,,,2,,,46,0
17662,note_on,46,0,3,,,,,,,,4,,,65,0
17662,note_on,46,0,2,,,,,,,,3,,,65,0
17662,note_on,94,0,6,,,,,,,,5,,,34,0
17662,note_on,46,0,1,,,,,,,,0,,,65,0
17664,note_on,2,0,4,,,,,,,,1,,,60,75
17664,note_on,2,0,5,,,,,,,,2,,,45,75
17664,note_on,2,0,2,,,,,,,,3,,,77,110
17664,note_on,2,0,1,,,,,,,,0,,,77,110
17664,note_on,2,0,6,,,,,,,,5,,,33,75
17664,note_on,2,0,3,,,,,,,,4,,,77,110
17758,note_on,94,0,6,,,,,,,,5,,,33,0
17758,note_on,94,0,4,,,,,,,,1,,,60,0
17758,note_on,94,0,3,,,,,,,,4,,,77,0
17758,note_on,94,0,5,,,,,,,,2,,,45,0
17758,note_on,94,0,1,,,,,,,,0,,,77,0
17758,note_on,94,0,2,,,,,,,,3,,,77,0
17760,note_on,2,0,2,,,,,,,,3,,,76,110
17760,note_on,2,0,6,,,,,,,,5,,,34,75
17760,note_on,2,0,1,,,,,,,,0,,,76,110
17760,note_on,2,0,3,,,,,,,,4,,,76,110
17760,note_on,2,0,5,,,,,,,,2,,,46,75
17760,note_on,2,0,4,,,,,,,,1,,,62,75
17806,note_on,46,0,2,,,,,,,,3,,,76,0
17806,note_on,46,0,1,,,,,,,,0,,,76,0
17806,note_on,46,0,3,,,,,,,,4,,,76,0
17808,note_on,2,0,1,,,,,,,,0,,,74,110
17808,note_on,2,0,2,,,,,,,,3,,,74,110
17808,note_on,2,0,3,,,,,,,,4,,,74,110
17854,note_on,94,0,6,,,,,,,,5,,,34,0
17854,note_on,46,0,1,,,,,,,,0,,,74,0
17854,note_on,94,0,4,,,,,,,,1,,,62,0
17854,note_on,46,0,2,,,,,,,,3,,,74,0
17854,note_on,46,0,3,,,,,,,,4,,,74,0
17854,note_on,94,0,5,,,,,,,,2,,,46,0
17856,note_on,2,0,3,,,,,,,,4,,,72,110
17856,note_on,2,0,5,,,,,,,,2,,,52,75
17856,note_on,2,0,4,,,,,,,,1,,,67,75
17856,note_on,2,0,6,,,,,,,,5,,,40,75
17856,note_on,2,0,2,,,,,,,,3,,,72,110
17856,note_on,2,0,1,,,,,,,,0,,,72,110
17902,note_on,46,0,2,,,,,,,,3,,,72,0
17902,note_on,46,0,3,,,,,,,,4,,,72,0
17902,note_on,46,0,1,,,,,,,,0,,,72,0
17904,note_on,2,0,2,,,,,,,,3,,,70,110
17904,note_on,2,0,1,,,,,,,,0,,,70,110
17904,note_on,2,0,3,,,,,,,,4,,,70,110
17950,note_on,46,0,2,,,,,,,,3,,,70,0
17950,note_on,94,0,5,,,,,,,,2,,,52,0
17950,note_on,46,0,3,,,,,,,,4,,,70,0
17950,note_on,46,0,1,,,,,,,,0,,,70,0
17950,note_on,94,0,6,,,,,,,,5,,,40,0
17950,note_on,94,0,4,,,,,,,,1,,,67,0
17952,note_on,2,0,5,,,,,,,,2,,,48,75
17952,note_on,2,0,2,,,,,,,,3,,,69,110
17952,note_on,2,0,1,,,,,,,,0,,,69,110
17952,note_on,2,0,3,,,,,,,,4,,,69,110
17952,note_on,2,0,6,,,,,,,,5,,,36,75
17952,note_on,2,0,4,,,,,,,,1,,,64,75
17998,note_on,46,0,2,,,,,,,,3,,,69,0
17998,note_on,46,0,3,,,,,,,,4,,,69,0
17998,note_on,46,0,1,,,,,,,,0,,,69,0
18000,note_on,2,0,3,,,,,,,,4,,,67,110
18000,note_on,2,0,2,,,,,,,,3,,,67,110
18000,note_on,2,0,1,,,,,,,,0,,,67,110
18046,note_on,46,0,1,,,,,,,,0,,,67,0
18046,note_on,94,0,5,,,,,,,,2,,,48,0
18046,note_on,46,0,2,,,,,,,,3,,,67,0
18046,note_on,94,0,6,,,,,,,,5,,,36,0
18046,note_on,94,0,4,,,,,,,,1,,,64,0
18046,note_on,46,0,3,,,,,,,,4,,,67,0
18048,note_on,2,0,1,,,,,,,,0,,,69,110
18048,note_on,2,0,2,,,,,,,,3,,,69,110
18048,note_on,2,0,3,,,,,,,,4,,,69,110
18048,note_on,2,0,6,,,,,,,,5,,,41,75
18048,note_on,2,0,5,,,,,,,,2,,,53,75
18048,note_on,2,0,4,,,,,,,,1,,,60,75
18070,note_on,22,0,1,,,,,,,,0,,,69,0
18070,note_on,22,0,2,,,,,,,,3,,,69,0
18070,note_on,22,0,3,,,,,,,,4,,,69,0
18072,note_on,2,0,2,,,,,,,,3,,,70,110
18072,note_on,2,0,1,,,,,,,,0,,,70,110
18072,note_on,2,0,3,,,,,,,,4,,,70,110
18094,note_on,22,0,3,,,,,,,,4,,,70,0
18094,note_on,22,0,1,,,,,,,,0,,,70,0
18094,note_on,22,0,2,,,,,,,,3,,,70,0
18096,note_on,2,0,1,,,,,,,,0,,,69,110
18096,note_on,2,0,3,,,,,,,,4,,,69,110
18096,note_on,2,0,2,,,,,,,,3,,,69,110
18118,note_on,22,0,1,,,,,,,,0,,,69,0
18118,note_on,22,0,2,,,,,,,,3,,,69,0
18118,note_on,22,0,3,,,,,,,,4,,,69,0
18120,note_on,2,0,1,,,,,,,,0,,,67,110
18120,note_on,2,0,3,,,,,,,,4,,,67,110
18120,note_on,2,0,2,,,,,,,,3,,,67,110
18142,note_on,94,0,5,,,,,,,,2,,,53,0
18142,note_on,22,0,3,,,,,,,,4,,,67,0
18142,note_on,94,0,4,,,,,,,,1,,,60,0
18142,note_on,94,0,6,,,,,,,,5,,,41,0
18142,note_on,22,0,1,,,,,,,,0,,,67,0
18142,note_on,22,0,2,,,,,,,,3,,,67,0
18144,note_on,2,0,2,,,,,,,,3,,,65,110
18144,note_on,2,0,4,,,,,,,,1,,,69,75
18144,note_on,2,0,6,,,,,,,,5,,,41,75
18144,note_on,2,0,1,,,,,,,,0,,,65,110
18144,note_on,2,0,5,,,,,,,,2,,,53,75
18144,note_on,2,0,3,,,,,,,,4,,,65,110
18190,note_on,46,0,5,,,,,,,,2,,,53,0
18190,note_on,46,0,6,,,,,,,,5,,,41,0
18190,note_on,46,0,4,,,,,,,,1,,,69,0
18192,note_on,2,0,5,,,,,,,,2,,,55,75
18192,note_on,2,0,4,,,,,,,,1,,,70,75
18192,note_on,2,0,6,,,,,,,,5,,,43,75
18238,note_on,94,0,3,,,,,,,,4,,,65,0
18238,note_on,46,0,5,,,,,,,,2,,,55,0
18238,note_on,46,0,4,,,,,,,,1,,,70,0
18238,note_on,94,0,2,,,,,,,,3,,,65,0
18238,note_on,46,0,6,,,,,,,,5,,,43,0
18238,note_on,94,0,1,,,,,,,,0,,,65,0
18240,note_on,2,0,4,,,,,,,,1,,,72,75
18240,note_on,2,0,6,,,,,,,,5,,,45,75
18240,note_on,2,0,5,,,,,,,,2,,,57,75
18288,note_on,50,0,3,,,,,,,,4,,,65,110
18288,note_on,50,0,2,,,,,,,,3,,,65,110
18288,note_on,50,0,1,,,,,,,,0,,,65,110
18334,note_on,94,0,5,,,,,,,,2,,,57,0
18334,note_on,46,0,2,,,,,,,,3,,,65,0
18334,note_on,94,0,4,,,,,,,,1,,,72,0
18334,note_on,46,0,1,,,,,,,,0,,,65,0
18334,note_on,94,0,6,,,,,,,,5,,,45,0
18334,note_on,46,0,3,,,,,,,,4,,,65,0
18336,note_on,2,0,6,,,,,,,,5,,,41,75
18336,note_on,2,0,4,,,,,,,,1,,,69,75
18336,note_on,2,0,3,,,,,,,,4,,,69,110
18336,note_on,2,0,2,,,,,,,,3,,,69,110
18336,note_on,2,0,1,,,,,,,,0,,,69,110
18336,note_on,2,0,5,,,,,,,,2,,,53,75
18382,note_on,46,0,1,,,,,,,,0,,,69,0
18382,note_on,46,0,3,,,,,,,,4,,,69,0
18382,note_on,46,0,2,,,,,,,,3,,,69,0
18384,note_on,2,0,2,,,,,,,,3,,,72,110
18384,note_on,2,0,3,,,,,,,,4,,,72,110
18384,note_on,2,0,1,,,,,,,,0,,,72,110
18430,note_on,94,0,6,,,,,,,,5,,,41,0
18430,note_on,46,0,3,,,,,,,,4,,,72,0
18430,note_on,46,0,2,,,,,,,,3,,,72,0
18430,note_on,46,0,1,,,,,,,,0,,,72,0
18430,note_on,94,0,4,,,,,,,,1,,,69,0
18430,note_on,94,0,5,,,,,,,,2,,,53,0
18432,note_on,2,0,5,,,,,,,,2,,,53,75
18432,note_on,2,0,3,,,,,,,,4,,,77,110
18432,note_on,2,0,1,,,,,,,,0,,,77,110
18432,note_on,2,0,4,,,,,,,,1,,,69,75
18432,note_on,2,0,2,,,,,,,,3,,,77,110
18432,note_on,2,0,6,,,,,,,,5,,,41,75
18574,note_on,142,0,4,,,,,,,,1,,,69,0
18574,note_on,142,0,6,,,,,,,,5,,,41,0
18574,note_on,142,0,1,,,,,,,,0,,,77,0
18574,note_on,142,0,3,,,,,,,,4,,,77,0
18574,note_on,142,0,2,,,,,,,,3,,,77,0
18574,note_on,142,0,5,,,,,,,,2,,,53,0
18576,note_on,2,0,5,,,,,,,,2,,,53,75
18576,note_on,2,0,6,,,,,,,,5,,,41,75
18576,note_on,2,0,1,,,,,,,,0,,,65,110
18576,note_on,2,0,3,,,,,,,,4,,,65,110
18576,note_on,2,0,2,,,,,,,,3,,,65,110
18576,note_on,2,0,4,,,,,,,,1,,,69,75
18622,note_on,46,0,6,,,,,,,,5,,,41,0
18622,note_on,46,0,1,,,,,,,,0,,,65,0
18622,note_on,46,0,2,,,,,,,,3,,,65,0
18622,note_on,46,0,4,,,,,,,,1,,,69,0
18622,note_on,46,0,5,,,,,,,,2,,,53,0
18622,note_on,46,0,3,,,,,,,,4,,,65,0
18624,note_on,2,0,2,,,,,,,,3,,,77,110
18624,note_on,2,0,4,,,,,,,,1,,,67,75
18624,note_on,2,0,6,,,,,,,,5,,,40,75
18624,note_on,2,0,5,,,,,,,,2,,,52,75
18624,note_on,2,0,3,,,,,,,,4,,,77,110
18624,note_on,2,0,1,,,,,,,,0,,,77,110
18766,note_on,142,0,6,,,,,,,,5,,,40,0
18766,note_on,142,0,3,,,,,,,,4,,,77,0
18766,note_on,142,0,1,,,,,,,,0,,,77,0
18766,note_on,142,0,5,,,,,,,,2,,,52,0
18766,note_on,142,0,2,,,,,,,,3,,,77,0
18766,note_on,142,0,4,,,,,,,,1,,,67,0
18768,note_on,2,0,6,,,,,,,,5,,,40,75
18768,note_on,2,0,2,,,,,,,,3,,,65,110
18768,note_on,2,0,3,,,,,,,,4,,,65,110
18768,note_on,2,0,5,,,,,,,,2,,,52,75
18768,note_on,2,0,1,,,,,,,,0,,,65,110
18768,note_on,2,0,4,,,,,,,,1,,,67,75
18814,note_on,46,0,2,,,,,,,,3,,,65,0
18814,note_on,46,0,3,,,,,,,,4,,,65,0
18814,note_on,46,0,1,,,,,,,,0,,,65,0
18814,note_on,46,0,5,,,,,,,,2,,,52,0
18814,note_on,46,0,6,,,,,,,,5,,,40,0
18814,note_on,46,0,4,,,,,,,,1,,,67,0
18816,note_on,2,0,4,,,,,,,,1,,,65,75
18816,note_on,2,0,6,,,,,,,,5,,,38,75
18816,note_on,2,0,1,,,,,,,,0,,,77,110
18816,note_on,2,0,2,,,,,,,,3,,,77,110
18816,note_on,2,0,5,,,,,,,,2,,,50,75
18816,note_on,2,0,3,,,,,,,,4,,,77,110
18958,note_on,142,0,6,,,,,,,,5,,,38,0
18958,note_on,142,0,4,,,,,,,,1,,,65,0
18958,note_on,142,0,5,,,,,,,,2,,,50,0
18958,note_on,142,0,2,,,,,,,,3,,,77,0
18958,note_on,142,0,3,,,,,,,,4,,,77,0
18958,note_on,142,0,1,,,,,,,,0,,,77,0
18960,note_on,2,0,2,,,,,,,,3,,,65,110
18960,note_on,2,0,3,,,,,,,,4,,,65,110
18960,note_on,2,0,6,,,,,,,,5,,,38,75
18960,note_on,2,0,1,,,,,,,,0,,,65,110
18960,note_on,2,0,4,,,,,,,,1,,,65,75
18960,note_on,2,0,5,,,,,,,,2,,,50,75
19006,note_on,46,0,2,,,,,,,,3,,,65,0
19006,note_on,46,0,3,,,,,,,,4,,,65,0
19006,note_on,46,0,6,,,,,,,,5,,,38,0
19006,note_on,46,0,1,,,,,,,,0,,,65,0
19006,note_on,46,0,4,,,,,,,,1,,,65,0
19006,note_on,46,0,5,,,,,,,,2,,,50,0
19008,note_on,2,0,4,,,,,,,,1,,,64,75
19008,note_on,2,0,1,,,,,,,,0,,,77,110
19008,note_on,2,0,3,,,,,,,,4,,,77,110
19008,note_on,2,0,5,,,,,,,,2,,,48,75
19008,note_on,2,0,6,,,,,,,,5,,,36,75
19008,note_on,2,0,2,,,,,,,,3,,,77,110
19150,note_on,142,0,2,,,,,,,,3,,,77,0
19150,note_on,142,0,4,,,,,,,,1,,,64,0
19150,note_on,142,0,5,,,,,,,,2,,,48,0
19150,note_on,142,0,6,,,,,,,,5,,,36,0
19150,note_on,142,0,1,,,,,,,,0,,,77,0
19150,note_on,142,0,3,,,,,,,,4,,,77,0
19152,note_on,2,0,5,,,,,,,,2,,,46,75
19152,note_on,2,0,1,,,,,,,,0,,,65,110
19152,note_on,2,0,3,,,,,,,,4,,,65,110
19152,note_on,2,0,6,,,,,,,,5,,,34,75
19152,note_on,2,0,4,,,,,,,,1,,,62,75
19152,note_on,2,0,2,,,,,,,,3,,,65,110
19198,note_on,46,0,2,,,,,,,,3,,,65,0
19198,note_on,46,0,4,,,,,,,,1,,,62,0
19198,note_on,46,0,1,,,,,,,,0,,,65,0
19198,note_on,46,0,6,,,,,,,,5,,,34,0
19198,note_on,46,0,5,,,,,,,,2,,,46,0
19198,note_on,46,0,3,,,,,,,,4,,,65,0
19200,note_on,2,0,3,,,,,,,,4,,,77,110
19200,note_on,2,0,4,,,,,,,,1,,,60,75
19200,note_on,2,0,1,,,,,,,,0,,,77,110
19200,note_on,2,0,6,,,,,,,,5,,,33,75
19200,note_on,2,0,5,,,,,,,,2,,,45,75
19200,note_on,2,0,2,,,,,,,,3,,,77,110
19294,note_on,94,0,2,,,,,,,,3,,,77,0
19294,note_on,94,0,3,,,,,,,,4,,,77,0
19294,note_on,94,0,5,,,,,,,,2,,,45,0
19294,note_on,94,0,1,,,,,,,,0,,,77,0
19294,note_on,94,0,6,,,,,,,,5,,,33,0
19296,note_on,2,0,6,,,,,,,,5,,,41,75
19296,note_on,2,0,5,,,,,,,,2,,,53,75
19296,note_on,2,0,1,,,,,,,,0,,,65,110
19296,note_on,2,0,3,,,,,,,,4,,,65,110
19296,note_on,2,0,2,,,,,,,,3,,,65,110
19360,note_on,160,0,4,,,,,,,,1,,,60,0
19390,note_on,94,0,2,,,,,,,,3,,,65,0
19390,note_on,94,0,6,,,,,,,,5,,,41,0
19390,note_on,94,0,1,,,,,,,,0,,,65,0
19390,note_on,94,0,3,,,,,,,,4,,,65,0
19390,note_on,94,0,5,,,,,,,,2,,,53,0
19392,note_on,2,0,2,,,,,,,,3,,,58,110
19392,note_on,2,0,6,,,,,,,,5,,,34,75
19392,note_on,2,0,1,,,,,,,,0,,,58,110
19392,note_on,2,0,3,,,,,,,,4,,,58,110
19392,note_on,2,0,5,,,,,,,,2,,,46,75
19486,note_on,94,0,6,,,,,,,,5,,,34,0
19486,note_on,94,0,1,,,,,,,,0,,,58,0
19486,note_on,94,0,3,,,,,,,,4,,,58,0
19486,note_on,94,0,5,,,,,,,,2,,,46,0
19486,note_on,94,0,2,,,,,,,,3,,,58,0
19488,note_on,2,0,2,,,,,,,,3,,,60,110
19488,note_on,2,0,3,,,,,,,,4,,,60,110
19488,note_on,2,0,5,,,,,,,,2,,,48,75
19488,note_on,2,0,1,,,,,,,,0,,,60,110
19488,note_on,2,0,6,,,,,,,,5,,,36,75
19582,note_on,94,0,2,,,,,,,,3,,,60,0
19582,note_on,94,0,3,,,,,,,,4,,,60,0
19582,note_on,94,0,5,,,,,,,,2,,,48,0
19582,note_on,94,0,1,,,,,,,,0,,,60,0
19582,note_on,94,0,6,,,,,,,,5,,,36,0
19584,note_on,2,0,2,,,,,,,,3,,,65,110
19584,note_on,2,0,5,,,,,,,,2,,,41,75
19584,note_on,2,0,6,,,,,,,,5,,,29,75
19584,note_on,224,0,4,,,,,,,,1,,,65,75
19584,note_on,2,0,3,,,,,,,,4,,,65,110
19584,note_on,2,0,1,,,,,,,,0,,,65,110
19630,note_on,46,0,1,,,,,,,,0,,,65,0
19632,note_on,2,0,1,,,,,,,,0,,,69,110
19678,note_on,46,0,1,,,,,,,,0,,,69,0
19680,note_on,2,0,1,,,,,,,,0,,,72,110
19726,note_on,46,0,1,,,,,,,,0,,,72,0
19728,note_on,2,0,1,,,,,,,,0,,,69,110
19744,note_on,160,0,6,,,,,,,,5,,,29,0
19744,note_on,160,0,4,,,,,,,,1,,,65,0
19744,note_on,160,0,5,,,,,,,,2,,,41,0
19744,note_on,160,0,3,,,,,,,,4,,,65,0
19744,note_on,160,0,2,,,,,,,,3,,,65,0
19774,note_on,46,0,1,,,,,,,,0,,,69,0
19776,note_on,2,0,1,,,,,,,,0,,,69,110
19822,note_on,46,0,1,,,,,,,,0,,,69,0
19824,note_on,2,0,1,,,,,,,,0,,,72,110
19870,note_on,46,0,1,,,,,,,,0,,,72,0
19872,note_on,2,0,1,,,,,,,,0,,,77,110
19918,note_on,46,0,1,,,,,,,,0,,,77,0
19920,note_on,2,0,1,,,,,,,,0,,,72,110
19966,note_on,46,0,1,,,,,,,,0,,,72,0
19968,note_on,224,0,5,,,,,,,,2,,,53,75
19968,note_on,2,0,1,,,,,,,,0,,,72,110
20014,note_on,46,0,1,,,,,,,,0,,,72,0
20016,note_on,2,0,1,,,,,,,,0,,,77,110
20062,note_on,46,0,1,,,,,,,,0,,,77,0
20064,note_on,2,0,1,,,,,,,,0,,,81,110
20110,note_on,46,0,1,,,,,,,,0,,,81,0
20112,note_on,2,0,1,,,,,,,,0,,,77,110
20128,note_on,160,0,5,,,,,,,,2,,,53,0
20158,note_on,46,0,1,,,,,,,,0,,,77,0
20160,note_on,2,0,1,,,,,,,,0,,,77,110
20206,note_on,46,0,1,,,,,,,,0,,,77,0
20208,note_on,2,0,1,,,,,,,,0,,,81,110
20254,note_on,46,0,1,,,,,,,,0,,,81,0
20256,note_on,2,0,1,,,,,,,,0,,,84,110
20302,note_on,46,0,1,,,,,,,,0,,,84,0
20304,note_on,2,0,1,,,,,,,,0,,,81,110
20350,note_on,46,0,1,,,,,,,,0,,,81,0
20352,note_on,2,0,1,,,,,,,,0,,,89,110
20352,note_on,224,0,5,,,,,,,,2,,,57,75
20398,note_on,46,0,1,,,,,,,,0,,,89,0
20400,note_on,2,0,1,,,,,,,,0,,,77,110
20446,note_on,46,0,1,,,,,,,,0,,,77,0
20448,note_on,2,0,1,,,,,,,,0,,,79,110
20494,note_on,46,0,1,,,,,,,,0,,,79,0
20496,note_on,2,0,1,,,,,,,,0,,,77,110
20512,note_on,160,0,5,,,,,,,,2,,,57,0
20542,note_on,46,0,1,,,,,,,,0,,,77,0
20544,note_on,2,0,1,,,,,,,,0,,,89,110
20544,note_on,32,0,5,,,,,,,,2,,,57,75
20590,note_on,46,0,1,,,,,,,,0,,,89,0
20592,note_on,2,0,1,,,,,,,,0,,,77,110
20638,note_on,46,0,1,,,,,,,,0,,,77,0
20640,note_on,2,0,1,,,,,,,,0,,,79,110
20686,note_on,46,0,1,,,,,,,,0,,,79,0
20688,note_on,2,0,1,,,,,,,,0,,,77,110
20704,note_on,160,0,5,,,,,,,,2,,,57,0
20734,note_on,46,0,1,,,,,,,,0,,,77,0
20736,note_on,2,0,1,,,,,,,,0,,,89,110
20736,note_on,32,0,5,,,,,,,,2,,,57,75
20782,note_on,46,0,1,,,,,,,,0,,,89,0
20784,note_on,2,0,1,,,,,,,,0,,,77,110
20830,note_on,46,0,1,,,,,,,,0,,,77,0
20832,note_on,2,0,1,,,,,,,,0,,,79,110
20878,note_on,46,0,1,,,,,,,,0,,,79,0
20880,note_on,2,0,1,,,,,,,,0,,,77,110
20896,note_on,160,0,5,,,,,,,,2,,,57,0
20926,note_on,46,0,1,,,,,,,,0,,,77,0
20928,note_on,2,0,1,,,,,,,,0,,,89,110
20928,note_on,32,0,5,,,,,,,,2,,,57,75
20974,note_on,46,0,1,,,,,,,,0,,,89,0
20976,note_on,2,0,1,,,,,,,,0,,,77,110
21022,note_on,46,0,1,,,,,,,,0,,,77,0
21024,note_on,2,0,1,,,,,,,,0,,,79,110
21070,note_on,46,0,1,,,,,,,,0,,,79,0
21072,note_on,2,0,1,,,,,,,,0,,,77,110
21088,note_on,160,0,5,,,,,,,,2,,,57,0
21118,note_on,46,0,1,,,,,,,,0,,,77,0
21120,note_on,32,0,5,,,,,,,,2,,,55,75
21120,note_on,2,0,1,,,,,,,,0,,,82,110
21166,note_on,46,0,1,,,,,,,,0,,,82,0
21168,note_on,2,0,1,,,,,,,,0,,,70,110
21214,note_on,46,0,1,,,,,,,,0,,,70,0
21216,note_on,2,0,1,,,,,,,,0,,,72,110
21262,note_on,46,0,1,,,,,,,,0,,,72,0
21264,note_on,2,0,1,,,,,,,,0,,,70,110
21280,note_on,160,0,5,,,,,,,,2,,,55,0
21310,note_on,46,0,1,,,,,,,,0,,,70,0
21312,note_on,32,0,5,,,,,,,,2,,,55,75
21312,note_on,2,0,1,,,,,,,,0,,,82,110
21358,note_on,46,0,1,,,,,,,,0,,,82,0
21360,note_on,2,0,1,,,,,,,,0,,,70,110
21406,note_on,46,0,1,,,,,,,,0,,,70,0
21408,note_on,2,0,1,,,,,,,,0,,,72,110
21454,note_on,46,0,1,,,,,,,,0,,,72,0
21456,note_on,2,0,1,,,,,,,,0,,,70,110
21472,note_on,160,0,5,,,,,,,,2,,,55,0
21502,note_on,46,0,1,,,,,,,,0,,,70,0
21504,note_on,2,0,1,,,,,,,,0,,,82,110
21504,note_on,32,0,5,,,,,,,,2,,,55,75
21550,note_on,46,0,1,,,,,,,,0,,,82,0
21552,note_on,2,0,1,,,,,,,,0,,,70,110
21598,note_on,46,0,1,,,,,,,,0,,,70,0
21600,note_on,2,0,1,,,,,,,,0,,,72,110
21646,note_on,46,0,1,,,,,,,,0,,,72,0
21648,note_on,2,0,1,,,,,,,,0,,,70,110
21664,note_on,160,0,5,,,,,,,,2,,,55,0
21694,note_on,46,0,1,,,,,,,,0,,,70,0
21696,note_on,32,0,5,,,,,,,,2,,,55,75
21696,note_on,2,0,1,,,,,,,,0,,,82,110
21742,note_on,46,0,1,,,,,,,,0,,,82,0
21744,note_on,2,0,1,,,,,,,,0,,,70,110
21790,note_on,46,0,1,,,,,,,,0,,,70,0
21792,note_on,2,0,1,,,,,,,,0,,,72,110
21838,note_on,46,0,1,,,,,,,,0,,,72,0
21840,note_on,2,0,1,,,,,,,,0,,,70,110
21856,note_on,160,0,5,,,,,,,,2,,,55,0
21886,note_on,46,0,1,,,,,,,,0,,,70,0
21888,note_on,2,0,1,,,,,,,,0,,,87,110
21888,note_on,32,0,5,,,,,,,,2,,,60,75
21934,note_on,46,0,1,,,,,,,,0,,,87,0
21936,note_on,2,0,1,,,,,,,,0,,,75,110
21982,note_on,46,0,1,,,,,,,,0,,,75,0
21984,note_on,2,0,1,,,,,,,,0,,,77,110
22030,note_on,46,0,1,,,,,,,,0,,,77,0
22032,note_on,2,0,1,,,,,,,,0,,,75,110
22048,note_on,160,0,5,,,,,,,,2,,,60,0
22078,note_on,46,0,1,,,,,,,,0,,,75,0
22080,note_on,32,0,5,,,,,,,,2,,,60,75
22080,note_on,2,0,1,,,,,,,,0,,,87,110
22126,note_on,46,0,1,,,,,,,,0,,,87,0
22128,note_on,2,0,1,,,,,,,,0,,,75,110
22174,note_on,46,0,1,,,,,,,,0,,,75,0
22176,note_on,2,0,1,,,,,,,,0,,,77,110
22222,note_on,46,0,1,,,,,,,,0,,,77,0
22224,note_on,2,0,1,,,,,,,,0,,,75,110
22240,note_on,160,0,5,,,,,,,,2,,,60,0
22270,note_on,46,0,1,,,,,,,,0,,,75,0
22272,note_on,2,0,1,,,,,,,,0,,,81,110
22272,note_on,32,0,5,,,,,,,,2,,,53,75
22318,note_on,46,0,1,,,,,,,,0,,,81,0
22320,note_on,2,0,1,,,,,,,,0,,,69,110
22366,note_on,46,0,1,,,,,,,,0,,,69,0
22368,note_on,2,0,1,,,,,,,,0,,,70,110
22414,note_on,46,0,1,,,,,,,,0,,,70,0
22416,note_on,2,0,1,,,,,,,,0,,,69,110
22432,note_on,160,0,5,,,,,,,,2,,,53,0
22462,note_on,46,0,1,,,,,,,,0,,,69,0
22464,note_on,32,0,5,,,,,,,,2,,,53,75
22464,note_on,2,0,1,,,,,,,,0,,,81,110
22510,note_on,46,0,1,,,,,,,,0,,,81,0
22512,note_on,2,0,1,,,,,,,,0,,,69,110
22558,note_on,46,0,1,,,,,,,,0,,,69,0
22560,note_on,2,0,1,,,,,,,,0,,,70,110
22606,note_on,46,0,1,,,,,,,,0,,,70,0
22608,note_on,2,0,1,,,,,,,,0,,,69,110
22624,note_on,160,0,5,,,,,,,,2,,,53,0
22654,note_on,46,0,1,,,,,,,,0,,,69,0
22656,note_on,32,0,5,,,,,,,,2,,,58,75
22656,note_on,2,0,1,,,,,,,,0,,,86,110
22702,note_on,46,0,1,,,,,,,,0,,,86,0
22704,note_on,2,0,1,,,,,,,,0,,,74,110
22750,note_on,46,0,1,,,,,,,,0,,,74,0
22752,note_on,2,0,1,,,,,,,,0,,,75,110
22798,note_on,46,0,1,,,,,,,,0,,,75,0
22800,note_on,2,0,1,,,,,,,,0,,,74,110
22816,note_on,160,0,5,,,,,,,,2,,,58,0
22846,note_on,46,0,1,,,,,,,,0,,,74,0
22848,note_on,2,0,1,,,,,,,,0,,,86,110
22848,note_on,32,0,5,,,,,,,,2,,,58,75
22894,note_on,46,0,1,,,,,,,,0,,,86,0
22896,note_on,2,0,1,,,,,,,,0,,,74,110
22942,note_on,46,0,1,,,,,,,,0,,,74,0
22944,note_on,2,0,1,,,,,,,,0,,,75,110
22990,note_on,46,0,1,,,,,,,,0,,,75,0
22992,note_on,2,0,1,,,,,,,,0,,,74,110
23008,note_on,160,0,5,,,,,,,,2,,,58,0
23038,note_on,46,0,1,,,,,,,,0,,,74,0
23040,note_on,32,0,5,,,,,,,,2,,,51,75
23040,note_on,2,0,1,,,,,,,,0,,,79,110
23086,note_on,46,0,1,,,,,,,,0,,,79,0
23088,note_on,2,0,1,,,,,,,,0,,,67,110
23134,note_on,46,0,1,,,,,,,,0,,,67,0
23136,note_on,2,0,1,,,,,,,,0,,,69,110
23182,note_on,46,0,1,,,,,,,,0,,,69,0
23184,note_on,2,0,1,,,,,,,,0,,,67,110
23200,note_on,160,0,5,,,,,,,,2,,,51,0
23230,note_on,46,0,1,,,,,,,,0,,,67,0
23232,note_on,2,0,1,,,,,,,,0,,,79,110
23232,note_on,32,0,5,,,,,,,,2,,,51,75
23278,note_on,46,0,1,,,,,,,,0,,,79,0
23280,note_on,2,0,1,,,,,,,,0,,,67,110
23326,note_on,46,0,1,,,,,,,,0,,,67,0
23328,note_on,2,0,1,,,,,,,,0,,,69,110
23374,note_on,46,0,1,,,,,,,,0,,,69,0
23376,note_on,2,0,1,,,,,,,,0,,,67,110
23392,note_on,160,0,5,,,,,,,,2,,,51,0
23422,note_on,46,0,1,,,,,,,,0,,,67,0
23424,note_on,2,0,1,,,,,,,,0,,,84,110
23424,note_on,32,0,5,,,,,,,,2,,,45,75
23470,note_on,46,0,1,,,,,,,,0,,,84,0
23472,note_on,2,0,1,,,,,,,,0,,,72,110
23518,note_on,46,0,1,,,,,,,,0,,,72,0
23520,note_on,2,0,1,,,,,,,,0,,,74,110
23566,note_on,46,0,1,,,,,,,,0,,,74,0
23568,note_on,2,0,1,,,,,,,,0,,,72,110
23584,note_on,160,0,5,,,,,,,,2,,,45,0
23614,note_on,46,0,1,,,,,,,,0,,,72,0
23616,note_on,32,0,5,,,,,,,,2,,,45,75
23616,note_on,2,0,1,,,,,,,,0,,,84,110
23662,note_on,46,0,1,,,,,,,,0,,,84,0
23664,note_on,2,0,1,,,,,,,,0,,,72,110
23710,note_on,46,0,1,,,,,,,,0,,,72,0
23712,note_on,2,0,1,,,,,,,,0,,,74,110
23758,note_on,46,0,1,,,,,,,,0,,,74,0
23760,note_on,2,0,1,,,,,,,,0,,,72,110
23776,note_on,160,0,5,,,,,,,,2,,,45,0
23806,note_on,46,0,1,,,,,,,,0,,,72,0
23808,note_on,32,0,5,,,,,,,,2,,,50,75
23808,note_on,2,0,1,,,,,,,,0,,,77,110
23854,note_on,46,0,1,,,,,,,,0,,,77,0
23856,note_on,2,0,1,,,,,,,,0,,,65,110
23902,note_on,46,0,1,,,,,,,,0,,,65,0
23904,note_on,2,0,1,,,,,,,,0,,,67,110
23950,note_on,46,0,1,,,,,,,,0,,,67,0
23952,note_on,2,0,1,,,,,,,,0,,,65,110
23968,note_on,160,0,5,,,,,,,,2,,,50,0
23998,note_on,46,0,1,,,,,,,,0,,,65,0
24000,note_on,32,0,5,,,,,,,,2,,,50,75
24000,note_on,2,0,1,,,,,,,,0,,,77,110
24046,note_on,46,0,1,,,,,,,,0,,,77,0
24048,note_on,2,0,1,,,,,,,,0,,,65,110
24094,note_on,46,0,1,,,,,,,,0,,,65,0
24096,note_on,2,0,1,,,,,,,,0,,,67,110
24142,note_on,46,0,1,,,,,,,,0,,,67,0
24144,note_on,2,0,1,,,,,,,,0,,,65,110
24160,note_on,160,0,5,,,,,,,,2,,,50,0
24190,note_on,46,0,1,,,,,,,,0,,,65,0
24192,note_on,2,0,1,,,,,,,,0,,,82,110
24192,note_on,32,0,5,,,,,,,,2,,,55,75
24238,note_on,46,0,1,,,,,,,,0,,,82,0
24240,note_on,2,0,1,,,,,,,,0,,,70,110
24286,note_on,46,0,1,,,,,,,,0,,,70,0
24288,note_on,2,0,1,,,,,,,,0,,,72,110
24334,note_on,46,0,1,,,,,,,,0,,,72,0
24336,note_on,2,0,1,,,,,,,,0,,,70,110
24352,note_on,160,0,5,,,,,,,,2,,,55,0
24382,note_on,46,0,1,,,,,,,,0,,,70,0
24384,note_on,32,0,5,,,,,,,,2,,,55,75
24384,note_on,2,0,1,,,,,,,,0,,,82,110
24430,note_on,46,0,1,,,,,,,,0,,,82,0
24432,note_on,2,0,1,,,,,,,,0,,,70,110
24478,note_on,46,0,1,,,,,,,,0,,,70,0
24480,note_on,2,0,1,,,,,,,,0,,,72,110
24526,note_on,46,0,1,,,,,,,,0,,,72,0
24528,note_on,2,0,1,,,,,,,,0,,,70,110
24544,note_on,160,0,5,,,,,,,,2,,,55,0
24574,note_on,46,0,1,,,,,,,,0,,,70,0
24576,note_on,2,0,1,,,,,,,,0,,,69,110
24576,note_on,32,0,5,,,,,,,,2,,,49,75
24622,note_on,46,0,1,,,,,,,,0,,,69,0
24624,note_on,2,0,1,,,,,,,,0,,,73,110
24670,note_on,46,0,1,,,,,,,,0,,,73,0
24672,note_on,2,0,1,,,,,,,,0,,,71,110
24718,note_on,46,0,1,,,,,,,,0,,,71,0
24720,note_on,2,0,1,,,,,,,,0,,,69,110
24736,note_on,160,0,5,,,,,,,,2,,,49,0
24766,note_on,46,0,1,,,,,,,,0,,,69,0
24768,note_on,32,0,5,,,,,,,,2,,,49,75
24768,note_on,2,0,1,,,,,,,,0,,,76,110
24814,note_on,46,0,1,,,,,,,,0,,,76,0
24816,note_on,2,0,1,,,,,,,,0,,,73,110
24862,note_on,46,0,1,,,,,,,,0,,,73,0
24864,note_on,2,0,1,,,,,,,,0,,,71,110
24910,note_on,46,0,1,,,,,,,,0,,,71,0
24912,note_on,2,0,1,,,,,,,,0,,,69,110
24928,note_on,160,0,5,,,,,,,,2,,,49,0
24958,note_on,46,0,1,,,,,,,,0,,,69,0
24960,note_on,32,0,5,,,,,,,,2,,,49,75
24960,note_on,2,0,1,,,,,,,,0,,,81,110
25006,note_on,46,0,1,,,,,,,,0,,,81,0
25008,note_on,2,0,1,,,,,,,,0,,,73,110
25054,note_on,46,0,1,,,,,,,,0,,,73,0
25056,note_on,2,0,1,,,,,,,,0,,,71,110
25102,note_on,46,0,1,,,,,,,,0,,,71,0
25104,note_on,2,0,1,,,,,,,,0,,,69,110
25120,note_on,160,0,5,,,,,,,,2,,,49,0
25150,note_on,46,0,1,,,,,,,,0,,,69,0
25152,note_on,32,0,5,,,,,,,,2,,,49,75
25152,note_on,2,0,1,,,,,,,,0,,,76,110
25198,note_on,46,0,1,,,,,,,,0,,,76,0
25200,note_on,2,0,1,,,,,,,,0,,,73,110
25246,note_on,46,0,1,,,,,,,,0,,,73,0
25248,note_on,2,0,1,,,,,,,,0,,,71,110
25294,note_on,46,0,1,,,,,,,,0,,,71,0
25296,note_on,2,0,1,,,,,,,,0,,,69,110
25312,note_on,160,0,5,,,,,,,,2,,,49,0
25342,note_on,46,0,1,,,,,,,,0,,,69,0
25344,note_on,2,0,1,,,,,,,,0,,,77,110
25344,note_on,32,0,5,,,,,,,,2,,,50,75
25438,note_on,94,0,5,,,,,,,,2,,,50,0
25438,note_on,94,0,1,,,,,,,,0,,,77,0
25440,note_on,2,0,1,,,,,,,,0,,,86,110
25440,note_on,2,0,5,,,,,,,,2,,,52,75
25534,note_on,94,0,5,,,,,,,,2,,,52,0
25536,note_on,2,0,5,,,,,,,,2,,,53,75
25600,note_on,160,0,1,,,,,,,,0,,,86,0
25630,note_on,94,0,5,,,,,,,,2,,,53,0
25632,note_on,32,0,1,,,,,,,,0,,,84,110
25632,note_on,2,0,5,,,,,,,,2,,,55,75
25678,note_on,46,0,1,,,,,,,,0,,,84,0
25680,note_on,2,0,1,,,,,,,,0,,,82,110
25726,note_on,46,0,1,,,,,,,,0,,,82,0
25726,note_on,94,0,5,,,,,,,,2,,,55,0
25728,note_on,2,0,5,,,,,,,,2,,,53,75
25728,note_on,2,0,1,,,,,,,,0,,,81,110
25822,note_on,94,0,1,,,,,,,,0,,,81,0
25822,note_on,94,0,5,,,,,,,,2,,,53,0
25824,note_on,2,0,5,,,,,,,,2,,,50,75
25824,note_on,2,0,1,,,,,,,,0,,,62,110
25918,note_on,94,0,1,,,,,,,,0,,,62,0
25918,note_on,94,0,5,,,,,,,,2,,,50,0
25920,note_on,2,0,1,,,,,,,,0,,,76,110
25920,note_on,2,0,5,,,,,,,,2,,,57,75
25942,note_on,22,0,1,,,,,,,,0,,,76,0
25944,note_on,2,0,1,,,,,,,,0,,,77,110
25966,note_on,22,0,1,,,,,,,,0,,,77,0
25968,note_on,2,0,1,,,,,,,,0,,,76,110
26014,note_on,94,0,5,,,,,,,,2,,,57,0
26016,note_on,2,0,5,,,,,,,,2,,,45,75
26062,note_on,94,0,1,,,,,,,,0,,,76,0
26064,note_on,2,0,1,,,,,,,,0,,,74,110
26110,note_on,94,0,5,,,,,,,,2,,,45,0
26110,note_on,46,0,1,,,,,,,,0,,,74,0
26112,note_on,2,0,5,,,,,,,,2,,,50,75
26112,note_on,2,0,1,,,,,,,,0,,,74,110
26112,note_on,6368,0,3,,,,,,,,4,,,74,110
26112,note_on,6368,0,4,,,,,,,,1,,,65,75
26112,note_on,6368,0,6,,,,,,,,5,,,38,75
26112,note_on,6368,0,2,,,,,,,,3,,,74,110
26206,note_on,94,0,5,,,,,,,,2,,,50,0
26206,note_on,94,0,6,,,,,,,,5,,,38,0
26206,note_on,94,0,4,,,,,,,,1,,,65,0
26208,note_on,2,0,6,,,,,,,,5,,,38,75
26208,note_on,2,0,5,,,,,,,,2,,,50,75
26208,note_on,2,0,4,,,,,,,,1,,,65,75
26254,note_on,46,0,6,,,,,,,,5,,,38,0
26254,note_on,46,0,4,,,,,,,,1,,,65,0
26254,note_on,46,0,5,,,,,,,,2,,,50,0
26256,note_on,2,0,6,,,,,,,,5,,,40,75
26256,note_on,2,0,5,,,,,,,,2,,,52,75
26256,note_on,2,0,4,,,,,,,,1,,,67,75
26302,note_on,46,0,6,,,,,,,,5,,,40,0
26302,note_on,46,0,5,,,,,,,,2,,,52,0
26302,note_on,46,0,4,,,,,,,,1,,,67,0
26304,note_on,2,0,6,,,,,,,,5,,,41,75
26304,note_on,2,0,5,,,,,,,,2,,,53,75
26304,note_on,2,0,4,,,,,,,,1,,,69,75
26350,note_on,238,0,2,,,,,,,,3,,,74,0
26350,note_on,238,0,3,,,,,,,,4,,,74,0
26350,note_on,238,0,1,,,,,,,,0,,,74,0
26352,note_on,2,0,3,,,,,,,,4,,,74,110
26352,note_on,2,0,2,,,,,,,,3,,,74,110
26352,note_on,2,0,1,,,,,,,,0,,,74,110
26398,note_on,94,0,6,,,,,,,,5,,,41,0
26398,note_on,94,0,5,,,,,,,,2,,,53,0
26398,note_on,46,0,3,,,,,,,,4,,,74,0
26398,note_on,46,0,1,,,,,,,,0,,,74,0
26398,note_on,46,0,2,,,,,,,,3,,,74,0
26398,note_on,94,0,4,,,,,,,,1,,,69,0
26400,note_on,2,0,2,,,,,,,,3,,,86,110
26400,note_on,2,0,3,,,,,,,,4,,,86,110
26400,note_on,2,0,4,,,,,,,,1,,,65,75
26400,note_on,2,0,1,,,,,,,,0,,,86,110
26400,note_on,2,0,6,,,,,,,,5,,,38,75
26400,note_on,2,0,5,,,,,,,,2,,,50,75
26446,note_on,46,0,2,,,,,,,,3,,,86,0
26446,note_on,46,0,1,,,,,,,,0,,,86,0
26446,note_on,46,0,3,,,,,,,,4,,,86,0
26448,note_on,2,0,2,,,,,,,,3,,,74,110
26448,note_on,2,0,1,,,,,,,,0,,,74,110
26448,note_on,2,0,3,,,,,,,,4,,,74,110
26494,note_on,46,0,2,,,,,,,,3,,,74,0
26494,note_on,46,0,3,,,,,,,,4,,,74,0
26494,note_on,94,0,5,,,,,,,,2,,,50,0
26494,note_on,94,0,4,,,,,,,,1,,,65,0
26494,note_on,94,0,6,,,,,,,,5,,,38,0
26494,note_on,46,0,1,,,,,,,,0,,,74,0
26496,note_on,2,0,5,,,,,,,,2,,,46,75
26496,note_on,2,0,2,,,,,,,,3,,,86,110
26496,note_on,2,0,3,,,,,,,,4,,,86,110
26496,note_on,2,0,1,,,,,,,,0,,,86,110
26496,note_on,2,0,6,,,,,,,,5,,,34,75
26496,note_on,2,0,4,,,,,,,,1,,,62,75
26542,note_on,46,0,3,,,,,,,,4,,,86,0
26542,note_on,46,0,2,,,,,,,,3,,,86,0
26542,note_on,46,0,1,,,,,,,,0,,,86,0
26544,note_on,2,0,3,,,,,,,,4,,,74,110
26544,note_on,2,0,2,,,,,,,,3,,,74,110
26544,note_on,2,0,1,,,,,,,,0,,,74,110
26590,note_on,46,0,3,,,,,,,,4,,,74,0
26590,note_on,46,0,2,,,,,,,,3,,,74,0
26590,note_on,94,0,4,,,,,,,,1,,,62,0
26590,note_on,94,0,5,,,,,,,,2,,,46,0
26590,note_on,46,0,1,,,,,,,,0,,,74,0
26590,note_on,94,0,6,,,,,,,,5,,,34,0
26592,note_on,2,0,5,,,,,,,,2,,,46,75
26592,note_on,2,0,3,,,,,,,,4,,,86,110
26592,note_on,2,0,6,,,,,,,,5,,,34,75
26592,note_on,2,0,2,,,,,,,,3,,,86,110
26592,note_on,2,0,1,,,,,,,,0,,,86,110
26592,note_on,2,0,4,,,,,,,,1,,,62,75
26638,note_on,46,0,5,,,,,,,,2,,,46,0
26638,note_on,46,0,6,,,,,,,,5,,,34,0
26638,note_on,46,0,4,,,,,,,,1,,,62,0
26640,note_on,2,0,4,,,,,,,,1,,,64,75
26640,note_on,2,0,5,,,,,,,,2,,,48,75
26640,note_on,2,0,6,,,,,,,,5,,,36,75
26686,note_on,46,0,6,,,,,,,,5,,,36,0
26686,note_on,46,0,5,,,,,,,,2,,,48,0
26686,note_on,46,0,4,,,,,,,,1,,,64,0
26688,note_on,2,0,6,,,,,,,,5,,,38,75
26688,note_on,2,0,4,,,,,,,,1,,,65,75
26688,note_on,2,0,5,,,,,,,,2,,,50,75
26734,note_on,142,0,3,,,,,,,,4,,,86,0
26734,note_on,142,0,2,,,,,,,,3,,,86,0
26734,note_on,142,0,1,,,,,,,,0,,,86,0
26736,note_on,2,0,3,,,,,,,,4,,,74,110
26736,note_on,2,0,2,,,,,,,,3,,,74,110
26736,note_on,2,0,1,,,,,,,,0,,,74,110
26782,note_on,46,0,1,,,,,,,,0,,,74,0
26782,note_on,94,0,6,,,,,,,,5,,,38,0
26782,note_on,46,0,2,,,,,,,,3,,,74,0
26782,note_on,46,0,3,,,,,,,,4,,,74,0
26782,note_on,94,0,5,,,,,,,,2,,,50,0
26782,note_on,94,0,4,,,,,,,,1,,,65,0
26784,note_on,2,0,3,,,,,,,,4,,,86,110
26784,note_on,2,0,1,,,,,,,,0,,,86,110
26784,note_on,2,0,5,,,,,,,,2,,,46,75
26784,note_on,2,0,6,,,,,,,,5,,,34,75
26784,note_on,2,0,2,,,,,,,,3,,,86,110
26784,note_on,2,0,4,,,,,,,,1,,,62,75
26830,note_on,46,0,2,,,,,,,,3,,,86,0
26830,note_on,46,0,3,,,,,,,,4,,,86,0
26830,note_on,46,0,1,,,,,,,,0,,,86,0
26832,note_on,2,0,2,,,,,,,,3,,,74,110
26832,note_on,2,0,1,,,,,,,,0,,,74,110
26832,note_on,2,0,3,,,,,,,,4,,,74,110
26878,note_on,46,0,1,,,,,,,,0,,,74,0
26878,note_on,94,0,5,,,,,,,,2,,,46,0
26878,note_on,94,0,6,,,,,,,,5,,,34,0
26878,note_on,46,0,3,,,,,,,,4,,,74,0
26878,note_on,94,0,4,,,,,,,,1,,,62,0
26878,note_on,46,0,2,,,,,,,,3,,,74,0
26880,note_on,2,0,1,,,,,,,,0,,,86,110
26880,note_on,2,0,5,,,,,,,,2,,,43,75
26880,note_on,2,0,4,,,,,,,,1,,,58,75
26880,note_on,2,0,2,,,,,,,,3,,,86,110
26880,note_on,2,0,3,,,,,,,,4,,,86,110
26880,note_on,2,0,6,,,,,,,,5,,,31,75
26926,note_on,46,0,3,,,,,,,,4,,,86,0
26926,note_on,46,0,1,,,,,,,,0,,,86,0
26926,note_on,46,0,2,,,,,,,,3,,,86,0
26928,note_on,2,0,2,,,,,,,,3,,,74,110
26928,note_on,2,0,3,,,,,,,,4,,,74,110
26928,note_on,2,0,1,,,,,,,,0,,,74,110
26974,note_on,94,0,6,,,,,,,,5,,,31,0
26974,note_on,94,0,5,,,,,,,,2,,,43,0
26974,note_on,46,0,3,,,,,,,,4,,,74,0
26974,note_on,94,0,4,,,,,,,,1,,,58,0
26974,note_on,46,0,2,,,,,,,,3,,,74,0
26974,note_on,46,0,1,,,,,,,,0,,,74,0
26976,note_on,2,0,6,,,,,,,,5,,,31,75
26976,note_on,2,0,4,,,,,,,,1,,,58,75
26976,note_on,2,0,5,,,,,,,,2,,,43,75
26976,note_on,2,0,3,,,,,,,,4,,,86,110
26976,note_on,2,0,1,,,,,,,,0,,,86,110
26976,note_on,2,0,2,,,,,,,,3,,,86,110
27022,note_on,46,0,6,,,,,,,,5,,,31,0
27022,note_on,46,0,4,,,,,,,,1,,,58,0
27022,note_on,46,0,5,,,,,,,,2,,,43,0
27024,note_on,2,0,6,,,,,,,,5,,,33,75
27024,note_on,2,0,4,,,,,,,,1,,,60,75
27024,note_on,2,0,5,,,,,,,,2,,,45,75
27070,note_on,46,0,6,,,,,,,,5,,,33,0
27070,note_on,46,0,4,,,,,,,,1,,,60,0
27070,note_on,46,0,5,,,,,,,,2,,,45,0
27072,note_on,2,0,5,,,,,,,,2,,,46,75
27072,note_on,2,0,6,,,,,,,,5,,,34,75
27072,note_on,2,0,4,,,,,,,,1,,,62,75
27118,note_on,142,0,1,,,,,,,,0,,,86,0
27118,note_on,142,0,3,,,,,,,,4,,,86,0
27118,note_on,142,0,2,,,,,,,,3,,,86,0
27120,note_on,2,0,3,,,,,,,,4,,,74,110
27120,note_on,2,0,2,,,,,,,,3,,,74,110
27120,note_on,2,0,1,,,,,,,,0,,,74,110
27166,note_on,46,0,1,,,,,,,,0,,,74,0
27166,note_on,46,0,2,,,,,,,,3,,,74,0
27166,note_on,46,0,3,,,,,,,,4,,,74,0
27166,note_on,94,0,6,,,,,,,,5,,,34,0
27166,note_on,94,0,5,,,,,,,,2,,,46,0
27166,note_on,94,0,4,,,,,,,,1,,,62,0
27168,note_on,2,0,6,,,,,,,,5,,,31,75
27168,note_on,2,0,5,,,,,,,,2,,,43,75
27168,note_on,2,0,1,,,,,,,,0,,,86,110
27168,note_on,2,0,3,,,,,,,,4,,,86,110
27168,note_on,2,0,2,,,,,,,,3,,,86,110
27168,note_on,2,0,4,,,,,,,,1,,,58,75
27214,note_on,46,0,1,,,,,,,,0,,,86,0
27214,note_on,46,0,2,,,,,,,,3,,,86,0
27214,note_on,46,0,3,,,,,,,,4,,,86,0
27216,note_on,2,0,2,,,,,,,,3,,,74,110
27216,note_on,2,0,3,,,,,,,,4,,,74,110
27216,note_on,2,0,1,,,,,,,,0,,,74,110
27262,note_on,94,0,5,,,,,,,,2,,,43,0
27262,note_on,46,0,1,,,,,,,,0,,,74,0
27262,note_on,46,0,2,,,,,,,,3,,,74,0
27262,note_on,94,0,4,,,,,,,,1,,,58,0
27262,note_on,46,0,3,,,,,,,,4,,,74,0
27262,note_on,94,0,6,,,,,,,,5,,,31,0
27264,note_on,2,0,3,,,,,,,,4,,,86,110
27264,note_on,2,0,2,,,,,,,,3,,,86,110
27264,note_on,2,0,5,,,,,,,,2,,,41,75
27264,note_on,2,0,1,,,,,,,,0,,,86,110
27264,note_on,2,0,4,,,,,,,,1,,,57,75
27264,note_on,2,0,6,,,,,,,,5,,,29,75
27358,note_on,94,0,2,,,,,,,,3,,,86,0
27358,note_on,94,0,3,,,,,,,,4,,,86,0
27358,note_on,94,0,5,,,,,,,,2,,,41,0
27358,note_on,94,0,4,,,,,,,,1,,,57,0
27358,note_on,94,0,1,,,,,,,,0,,,86,0
27358,note_on,94,0,6,,,,,,,,5,,,29,0
27360,note_on,2,0,6,,,,,,,,5,,,31,75
27360,note_on,2,0,4,,,,,,,,1,,,62,75
27360,note_on,2,0,1,,,,,,,,0,,,84,110
27360,note_on,2,0,3,,,,,,,,4,,,84,110
27360,note_on,2,0,2,,,,,,,,3,,,84,110
27360,note_on,2,0,5,,,,,,,,2,,,43,75
27406,note_on,46,0,2,,,,,,,,3,,,84,0
27406,note_on,46,0,1,,,,,,,,0,,,84,0
27406,note_on,46,0,3,,,,,,,,4,,,84,0
27408,note_on,2,0,3,,,,,,,,4,,,82,110
27408,note_on,2,0,2,,,,,,,,3,,,82,110
27408,note_on,2,0,1,,,,,,,,0,,,82,110
27454,note_on,46,0,1,,,,,,,,0,,,82,0
27454,note_on,46,0,2,,,,,,,,3,,,82,0
27454,note_on,94,0,6,,,,,,,,5,,,31,0
27454,note_on,94,0,4,,,,,,,,1,,,62,0
27454,note_on,94,0,5,,,,,,,,2,,,43,0
27454,note_on,46,0,3,,,,,,,,4,,,82,0
27456,note_on,2,0,4,,,,,,,,1,,,64,75
27456,note_on,2,0,6,,,,,,,,5,,,37,75
27456,note_on,2,0,3,,,,,,,,4,,,81,110
27456,note_on,2,0,1,,,,,,,,0,,,81,110
27456,note_on,2,0,5,,,,,,,,2,,,49,75
27456,note_on,2,0,2,,,,,,,,3,,,81,110
27502,note_on,46,0,2,,,,,,,,3,,,81,0
27502,note_on,46,0,1,,,,,,,,0,,,81,0
27502,note_on,46,0,3,,,,,,,,4,,,81,0
27504,note_on,2,0,3,,,,,,,,4,,,79,110
27504,note_on,2,0,1,,,,,,,,0,,,79,110
27504,note_on,2,0,2,,,,,,,,3,,,79,110
27550,note_on,94,0,4,,,,,,,,1,,,64,0
27550,note_on,46,0,3,,,,,,,,4,,,79,0
27550,note_on,46,0,2,,,,,,,,3,,,79,0
27550,note_on,94,0,5,,,,,,,,2,,,49,0
27550,note_on,46,0,1,,,,,,,,0,,,79,0
27550,note_on,94,0,6,,,,,,,,5,,,37,0
27552,note_on,2,0,6,,,,,,,,5,,,33,75
27552,note_on,2,0,1,,,,,,,,0,,,77,110
27552,note_on,2,0,3,,,,,,,,4,,,77,110
27552,note_on,2,0,4,,,,,,,,1,,,61,75
27552,note_on,2,0,5,,,,,,,,2,,,45,75
27552,note_on,2,0,2,,,,,,,,3,,,77,110
27598,note_on,46,0,2,,,,,,,,3,,,77,0
27598,note_on,46,0,3,,,,,,,,4,,,77,0
27598,note_on,46,0,1,,,,,,,,0,,,77,0
27600,note_on,2,0,3,,,,,,,,4,,,76,110
27600,note_on,2,0,2,,,,,,,,3,,,76,110
27600,note_on,2,0,1,,,,,,,,0,,,76,110
27646,note_on,46,0,2,,,,,,,,3,,,76,0
27646,note_on,46,0,1,,,,,,,,0,,,76,0
27646,note_on,46,0,3,,,,,,,,4,,,76,0
27646,note_on,94,0,4,,,,,,,,1,,,61,0
27646,note_on,94,0,5,,,,,,,,2,,,45,0
27646,note_on,94,0,6,,,,,,,,5,,,33,0
27648,note_on,2,0,5,,,,,,,,2,,,50,75
27648,note_on,2,0,1,,,,,,,,0,,,77,110
27648,note_on,2,0,3,,,,,,,,4,,,77,110
27648,note_on,2,0,6,,,,,,,,5,,,38,75
27648,note_on,2,0,2,,,,,,,,3,,,77,110
27648,note_on,2,0,4,,,,,,,,1,,,57,75
27742,note_on,94,0,2,,,,,,,,3,,,77,0
27742,note_on,94,0,3,,,,,,,,4,,,77,0
27742,note_on,94,0,1,,,,,,,,0,,,77,0
27742,note_on,94,0,4,,,,,,,,1,,,57,0
27742,note_on,94,0,6,,,,,,,,5,,,38,0
27742,note_on,94,0,5,,,,,,,,2,,,50,0
27744,note_on,2,0,3,,,,,,,,4,,,74,110
27744,note_on,2,0,6,,,,,,,,5,,,38,75
27744,note_on,2,0,2,,,,,,,,3,,,74,110
27744,note_on,2,0,5,,,,,,,,2,,,50,75
27744,note_on,2,0,1,,,,,,,,0,,,74,110
27744,note_on,2,0,4,,,,,,,,1,,,65,75
27790,note_on,46,0,5,,,,,,,,2,,,50,0
27790,note_on,46,0,4,,,,,,,,1,,,65,0
27790,note_on,46,0,6,,,,,,,,5,,,38,0
27792,note_on,2,0,5,,,,,,,,2,,,52,75
27792,note_on,2,0,6,,,,,,,,5,,,40,75
27792,note_on,2,0,4,,,,,,,,1,,,67,75
27838,note_on,46,0,6,,,,,,,,5,,,40,0
27838,note_on,46,0,5,,,,,,,,2,,,52,0
27838,note_on,46,0,4,,,,,,,,1,,,67,0
27840,note_on,2,0,5,,,,,,,,2,,,53,75
27840,note_on,2,0,4,,,,,,,,1,,,69,75
27840,note_on,2,0,6,,,,,,,,5,,,41,75
27886,note_on,142,0,2,,,,,,,,3,,,74,0
27886,note_on,142,0,1,,,,,,,,0,,,74,0
27886,note_on,142,0,3,,,,,,,,4,,,74,0
27888,note_on,2,0,1,,,,,,,,0,,,62,110
27888,note_on,2,0,3,,,,,,,,4,,,62,110
27888,note_on,2,0,2,,,,,,,,3,,,62,110
27934,note_on,46,0,3,,,,,,,,4,,,62,0
27934,note_on,94,0,5,,,,,,,,2,,,53,0
27934,note_on,46,0,1,,,,,,,,0,,,62,0
27934,note_on,94,0,4,,,,,,,,1,,,69,0
27934,note_on,94,0,6,,,,,,,,5,,,41,0
27934,note_on,46,0,2,,,,,,,,3,,,62,0
27936,note_on,2,0,3,,,,,,,,4,,,74,110
27936,note_on,2,0,1,,,,,,,,0,,,74,110
27936,note_on,2,0,5,,,,,,,,2,,,50,75
27936,note_on,2,0,6,,,,,,,,5,,,38,75
27936,note_on,2,0,2,,,,,,,,3,,,74,110
27936,note_on,2,0,4,,,,,,,,1,,,65,75
27982,note_on,46,0,1,,,,,,,,0,,,74,0
27982,note_on,46,0,3,,,,,,,,4,,,74,0
27982,note_on,46,0,2,,,,,,,,3,,,74,0
27984,note_on,2,0,3,,,,,,,,4,,,62,110
27984,note_on,2,0,1,,,,,,,,0,,,62,110
27984,note_on,2,0,2,,,,,,,,3,,,62,110
28030,note_on,46,0,1,,,,,,,,0,,,62,0
28030,note_on,46,0,3,,,,,,,,4,,,62,0
28030,note_on,94,0,4,,,,,,,,1,,,65,0
28030,note_on,94,0,6,,,,,,,,5,,,38,0
28030,note_on,94,0,5,,,,,,,,2,,,50,0
28030,note_on,46,0,2,,,,,,,,3,,,62,0
28032,note_on,2,0,5,,,,,,,,2,,,46,75
28032,note_on,2,0,1,,,,,,,,0,,,74,110
28032,note_on,2,0,4,,,,,,,,1,,,62,75
28032,note_on,2,0,6,,,,,,,,5,,,34,75
28032,note_on,2,0,3,,,,,,,,4,,,74,110
28032,note_on,2,0,2,,,,,,,,3,,,74,110
28078,note_on,46,0,2,,,,,,,,3,,,74,0
28078,note_on,46,0,3,,,,,,,,4,,,74,0
28078,note_on,46,0,1,,,,,,,,0,,,74,0
28080,note_on,2,0,2,,,,,,,,3,,,62,110
28080,note_on,2,0,1,,,,,,,,0,,,62,110
28080,note_on,2,0,3,,,,,,,,4,,,62,110
28126,note_on,94,0,4,,,,,,,,1,,,62,0
28126,note_on,46,0,3,,,,,,,,4,,,62,0
28126,note_on,46,0,2,,,,,,,,3,,,62,0
28126,note_on,94,0,6,,,,,,,,5,,,34,0
28126,note_on,46,0,1,,,,,,,,0,,,62,0
28126,note_on,94,0,5,,,,,,,,2,,,46,0
28128,note_on,2,0,2,,,,,,,,3,,,74,110
28128,note_on,2,0,3,,,,,,,,4,,,74,110
28128,note_on,2,0,4,,,,,,,,1,,,62,75
28128,note_on,2,0,5,,,,,,,,2,,,46,75
28128,note_on,2,0,6,,,,,,,,5,,,34,75
28128,note_on,2,0,1,,,,,,,,0,,,74,110
28174,note_on,46,0,4,,,,,,,,1,,,62,0
28174,note_on,46,0,6,,,,,,,,5,,,34,0
28174,note_on,46,0,5,,,,,,,,2,,,46,0
28176,note_on,2,0,5,,,,,,,,2,,,48,75
28176,note_on,2,0,4,,,,,,,,1,,,64,75
28176,note_on,2,0,6,,,,,,,,5,,,36,75
28222,note_on,46,0,6,,,,,,,,5,,,36,0
28222,note_on,46,0,4,,,,,,,,1,,,64,0
28222,note_on,46,0,5,,,,,,,,2,,,48,0
28224,note_on,2,0,5,,,,,,,,2,,,50,75
28224,note_on,2,0,4,,,,,,,,1,,,65,75
28224,note_on,2,0,6,,,,,,,,5,,,38,75
28270,note_on,142,0,1,,,,,,,,0,,,74,0
28270,note_on,142,0,3,,,,,,,,4,,,74,0
28270,note_on,142,0,2,,,,,,,,3,,,74,0
28272,note_on,2,0,2,,,,,,,,3,,,62,110
28272,note_on,2,0,1,,,,,,,,0,,,62,110
28272,note_on,2,0,3,,,,,,,,4,,,62,110
28318,note_on,46,0,2,,,,,,,,3,,,62,0
28318,note_on,46,0,3,,,,,,,,4,,,62,0
28318,note_on,94,0,6,,,,,,,,5,,,38,0
28318,note_on,94,0,4,,,,,,,,1,,,65,0
28318,note_on,46,0,1,,,,,,,,0,,,62,0
28318,note_on,94,0,5,,,,,,,,2,,,50,0
28320,note_on,2,0,6,,,,,,,,5,,,34,75
28320,note_on,2,0,3,,,,,,,,4,,,74,110
28320,note_on,2,0,4,,,,,,,,1,,,62,75
28320,note_on,2,0,1,,,,,,,,0,,,74,110
28320,note_on,2,0,2,,,,,,,,3,,,74,110
28320,note_on,2,0,5,,,,,,,,2,,,46,75
28366,note_on,46,0,1,,,,,,,,0,,,74,0
28366,note_on,46,0,3,,,,,,,,4,,,74,0
28366,note_on,46,0,2,,,,,,,,3,,,74,0
28368,note_on,2,0,3,,,,,,,,4,,,62,110
28368,note_on,2,0,2,,,,,,,,3,,,62,110
28368,note_on,2,0,1,,,,,,,,0,,,62,110
28414,note_on,94,0,6,,,,,,,,5,,,34,0
28414,note_on,46,0,3,,,,,,,,4,,,62,0
28414,note_on,46,0,2,,,,,,,,3,,,62,0
28414,note_on,94,0,5,,,,,,,,2,,,46,0
28414,note_on,94,0,4,,,,,,,,1,,,62,0
28414,note_on,46,0,1,,,,,,,,0,,,62,0
28416,note_on,2,0,6,,,,,,,,5,,,31,75
28416,note_on,2,0,3,,,,,,,,4,,,74,110
28416,note_on,2,0,4,,,,,,,,1,,,58,75
28416,note_on,2,0,1,,,,,,,,0,,,74,110
28416,note_on,2,0,5,,,,,,,,2,,,43,75
28416,note_on,2,0,2,,,,,,,,3,,,74,110
28462,note_on,46,0,1,,,,,,,,0,,,74,0
28462,note_on,46,0,3,,,,,,,,4,,,74,0
28462,note_on,46,0,2,,,,,,,,3,,,74,0
28464,note_on,2,0,1,,,,,,,,0,,,62,110
28464,note_on,2,0,2,,,,,,,,3,,,62,110
28464,note_on,2,0,3,,,,,,,,4,,,62,110
28510,note_on,94,0,6,,,,,,,,5,,,31,0
28510,note_on,94,0,5,,,,,,,,2,,,43,0
28510,note_on,46,0,2,,,,,,,,3,,,62,0
28510,note_on,94,0,4,,,,,,,,1,,,58,0
28510,note_on,46,0,3,,,,,,,,4,,,62,0
28510,note_on,46,0,1,,,,,,,,0,,,62,0
28512,note_on,2,0,6,,,,,,,,5,,,31,75
28512,note_on,2,0,5,,,,,,,,2,,,43,75
28512,note_on,2,0,3,,,,,,,,4,,,74,110
28512,note_on,2,0,4,,,,,,,,1,,,58,75
28512,note_on,2,0,2,,,,,,,,3,,,74,110
28512,note_on,2,0,1,,,,,,,,0,,,74,110
28558,note_on,46,0,4,,,,,,,,1,,,58,0
28558,note_on,46,0,5,,,,,,,,2,,,43,0
28558,note_on,46,0,6,,,,,,,,5,,,31,0
28560,note_on,2,0,4,,,,,,,,1,,,60,75
28560,note_on,2,0,5,,,,,,,,2,,,45,75
28560,note_on,2,0,6,,,,,,,,5,,,33,75
28606,note_on,46,0,4,,,,,,,,1,,,60,0
28606,note_on,46,0,5,,,,,,,,2,,,45,0
28606,note_on,46,0,6,,,,,,,,5,,,33,0
28608,note_on,2,0,4,,,,,,,,1,,,62,75
28608,note_on,2,0,5,,,,,,,,2,,,46,75
28608,note_on,2,0,6,,,,,,,,5,,,34,75
28654,note_on,142,0,3,,,,,,,,4,,,74,0
28654,note_on,142,0,2,,,,,,,,3,,,74,0
28654,note_on,142,0,1,,,,,,,,0,,,74,0
28656,note_on,2,0,2,,,,,,,,3,,,62,110
28656,note_on,2,0,3,,,,,,,,4,,,62,110
28656,note_on,2,0,1,,,,,,,,0,,,62,110
28702,note_on,46,0,3,,,,,,,,4,,,62,0
28702,note_on,46,0,2,,,,,,,,3,,,62,0
28702,note_on,94,0,4,,,,,,,,1,,,62,0
28702,note_on,46,0,1,,,,,,,,0,,,62,0
28702,note_on,94,0,6,,,,,,,,5,,,34,0
28702,note_on,94,0,5,,,,,,,,2,,,46,0
28704,note_on,2,0,3,,,,,,,,4,,,74,110
28704,note_on,2,0,2,,,,,,,,3,,,74,110
28704,note_on,2,0,6,,,,,,,,5,,,31,75
28704,note_on,2,0,1,,,,,,,,0,,,74,110
28704,note_on,2,0,4,,,,,,,,1,,,58,75
28704,note_on,2,0,5,,,,,,,,2,,,43,75
28750,note_on,46,0,1,,,,,,,,0,,,74,0
28750,note_on,46,0,2,,,,,,,,3,,,74,0
28750,note_on,46,0,3,,,,,,,,4,,,74,0
28752,note_on,2,0,1,,,,,,,,0,,,62,110
28752,note_on,2,0,3,,,,,,,,4,,,62,110
28752,note_on,2,0,2,,,,,,,,3,,,62,110
28798,note_on,46,0,2,,,,,,,,3,,,62,0
28798,note_on,46,0,3,,,,,,,,4,,,62,0
28798,note_on,94,0,6,,,,,,,,5,,,31,0
28798,note_on,46,0,1,,,,,,,,0,,,62,0
28798,note_on,94,0,4,,,,,,,,1,,,58,0
28798,note_on,94,0,5,,,,,,,,2,,,43,0
28800,note_on,2,0,1,,,,,,,,0,,,74,110
28800,note_on,2,0,3,,,,,,,,4,,,74,110
28800,note_on,2,0,6,,,,,,,,5,,,29,75
28800,note_on,2,0,4,,,,,,,,1,,,57,75
28800,note_on,2,0,5,,,,,,,,2,,,41,75
28800,note_on,2,0,2,,,,,,,,3,,,74,110
28894,note_on,94,0,6,,,,,,,,5,,,29,0
28894,note_on,94,0,4,,,,,,,,1,,,57,0
28894,note_on,94,0,5,,,,,,,,2,,,41,0
28894,note_on,94,0,2,,,,,,,,3,,,74,0
28894,note_on,94,0,1,,,,,,,,0,,,74,0
28894,note_on,94,0,3,,,,,,,,4,,,74,0
28896,note_on,2,0,1,,,,,,,,0,,,72,110
28896,note_on,2,0,3,,,,,,,,4,,,72,110
28896,note_on,2,0,6,,,,,,,,5,,,31,75
28896,note_on,2,0,4,,,,,,,,1,,,62,75
28896,note_on,2,0,5,,,,,,,,2,,,43,75
28896,note_on,2,0,2,,,,,,,,3,,,72,110
28942,note_on,46,0,2,,,,,,,,3,,,72,0
28942,note_on,46,0,1,,,,,,,,0,,,72,0
28942,note_on,46,0,3,,,,,,,,4,,,72,0
28944,note_on,2,0,2,,,,,,,,3,,,70,110
28944,note_on,2,0,1,,,,,,,,0,,,70,110
28944,note_on,2,0,3,,,,,,,,4,,,70,110
28990,note_on,46,0,1,,,,,,,,0,,,70,0
28990,note_on,46,0,3,,,,,,,,4,,,70,0
28990,note_on,94,0,5,,,,,,,,2,,,43,0
28990,note_on,46,0,2,,,,,,,,3,,,70,0
28990,note_on,94,0,4,,,,,,,,1,,,62,0
28990,note_on,94,0,6,,,,,,,,5,,,31,0
28992,note_on,2,0,3,,,,,,,,4,,,69,110
28992,note_on,2,0,4,,,,,,,,1,,,64,75
28992,note_on,2,0,5,,,,,,,,2,,,49,75
28992,note_on,2,0,6,,,,,,,,5,,,37,75
28992,note_on,2,0,2,,,,,,,,3,,,69,110
28992,note_on,2,0,1,,,,,,,,0,,,69,110
29038,note_on,46,0,1,,,,,,,,0,,,69,0
29038,note_on,46,0,2,,,,,,,,3,,,69,0
29038,note_on,46,0,3,,,,,,,,4,,,69,0
29040,note_on,2,0,3,,,,,,,,4,,,67,110
29040,note_on,2,0,2,,,,,,,,3,,,67,110
29040,note_on,2,0,1,,,,,,,,0,,,67,110
29086,note_on,94,0,4,,,,,,,,1,,,64,0
29086,note_on,46,0,2,,,,,,,,3,,,67,0
29086,note_on,94,0,5,,,,,,,,2,,,49,0
29086,note_on,46,0,3,,,,,,,,4,,,67,0
29086,note_on,46,0,1,,,,,,,,0,,,67,0
29086,note_on,94,0,6,,,,,,,,5,,,37,0
29088,note_on,2,0,2,,,,,,,,3,,,65,110
29088,note_on,2,0,6,,,,,,,,5,,,33,75
29088,note_on,2,0,5,,,,,,,,2,,,45,75
29088,note_on,2,0,1,,,,,,,,0,,,65,110
29088,note_on,2,0,3,,,,,,,,4,,,65,110
29088,note_on,2,0,4,,,,,,,,1,,,61,75
29134,note_on,46,0,3,,,,,,,,4,,,65,0
29134,note_on,46,0,2,,,,,,,,3,,,65,0
29134,note_on,46,0,1,,,,,,,,0,,,65,0
29136,note_on,2,0,3,,,,,,,,4,,,64,110
29136,note_on,2,0,1,,,,,,,,0,,,64,110
29136,note_on,2,0,2,,,,,,,,3,,,64,110
29182,note_on,94,0,6,,,,,,,,5,,,33,0
29182,note_on,94,0,4,,,,,,,,1,,,61,0
29182,note_on,46,0,3,,,,,,,,4,,,64,0
29182,note_on,46,0,2,,,,,,,,3,,,64,0
29182,note_on,94,0,5,,,,,,,,2,,,45,0
29182,note_on,46,0,1,,,,,,,,0,,,64,0
29184,note_on,2,0,2,,,,,,,,3,,,65,110
29184,note_on,2,0,4,,,,,,,,1,,,57,75
29184,note_on,2,0,3,,,,,,,,4,,,65,110
29184,note_on,2,0,5,,,,,,,,2,,,50,75
29184,note_on,2,0,6,,,,,,,,5,,,38,75
29184,note_on,2,0,1,,,,,,,,0,,,65,110
29278,note_on,94,0,4,,,,,,,,1,,,57,0
29278,note_on,94,0,3,,,,,,,,4,,,65,0
29278,note_on,94,0,1,,,,,,,,0,,,65,0
29278,note_on,94,0,2,,,,,,,,3,,,65,0
29278,note_on,94,0,5,,,,,,,,2,,,50,0
29278,note_on,94,0,6,,,,,,,,5,,,38,0
29280,note_on,2,0,5,,,,,,,,2,,,50,75
29280,note_on,2,0,3,,,,,,,,4,,,62,110
29280,note_on,2,0,1,,,,,,,,0,,,62,110
29280,note_on,2,0,4,,,,,,,,1,,,65,75
29280,note_on,2,0,6,,,,,,,,5,,,38,75
29280,note_on,2,0,2,,,,,,,,3,,,62,110
29326,note_on,46,0,6,,,,,,,,5,,,38,0
29326,note_on,46,0,5,,,,,,,,2,,,50,0
29326,note_on,46,0,4,,,,,,,,1,,,65,0
29328,note_on,2,0,4,,,,,,,,1,,,67,75
29328,note_on,2,0,5,,,,,,,,2,,,52,75
29328,note_on,2,0,6,,,,,,,,5,,,40,75
29374,note_on,46,0,5,,,,,,,,2,,,52,0
29374,note_on,94,0,1,,,,,,,,0,,,62,0
29374,note_on,46,0,6,,,,,,,,5,,,40,0
29374,note_on,94,0,3,,,,,,,,4,,,62,0
29374,note_on,94,0,2,,,,,,,,3,,,62,0
29374,note_on,46,0,4,,,,,,,,1,,,67,0
29376,note_on,2,0,5,,,,,,,,2,,,53,75
29376,note_on,2,0,6,,,,,,,,5,,,41,75
29376,note_on,2,0,4,,,,,,,,1,,,69,75
29424,note_on,50,0,1,,,,,,,,0,,,74,110
29424,note_on,50,0,3,,,,,,,,4,,,74,110
29424,note_on,50,0,2,,,,,,,,3,,,74,110
29470,note_on,46,0,1,,,,,,,,0,,,74,0
29470,note_on,94,0,5,,,,,,,,2,,,53,0
29470,note_on,94,0,4,,,,,,,,1,,,69,0
29470,note_on,94,0,6,,,,,,,,5,,,41,0
29470,note_on,46,0,3,,,,,,,,4,,,74,0
29470,note_on,46,0,2,,,,,,,,3,,,74,0
29472,note_on,2,0,4,,,,,,,,1,,,65,75
29472,note_on,2,0,1,,,,,,,,0,,,77,110
29472,note_on,2,0,2,,,,,,,,3,,,77,110
29472,note_on,2,0,5,,,,,,,,2,,,50,75
29472,note_on,2,0,6,,,,,,,,5,,,38,75
29472,note_on,2,0,3,,,,,,,,4,,,77,110
29518,note_on,46,0,3,,,,,,,,4,,,77,0
29518,note_on,46,0,1,,,,,,,,0,,,77,0
29518,note_on,46,0,2,,,,,,,,3,,,77,0
29520,note_on,2,0,2,,,,,,,,3,,,81,110
29520,note_on,2,0,3,,,,,,,,4,,,81,110
29520,note_on,2,0,1,,,,,,,,0,,,81,110
29566,note_on,46,0,1,,,,,,,,0,,,81,0
29566,note_on,46,0,3,,,,,,,,4,,,81,0
29566,note_on,94,0,6,,,,,,,,5,,,38,0
29566,note_on,94,0,5,,,,,,,,2,,,50,0
29566,note_on,94,0,4,,,,,,,,1,,,65,0
29566,note_on,46,0,2,,,,,,,,3,,,81,0
29568,note_on,2,0,3,,,,,,,,4,,,86,110
29568,note_on,2,0,4,,,,,,,,1,,,65,75
29568,note_on,2,0,6,,,,,,,,5,,,38,75
29568,note_on,2,0,1,,,,,,,,0,,,86,110
29568,note_on,2,0,5,,,,,,,,2,,,50,75
29568,note_on,2,0,2,,,,,,,,3,,,86,110
29710,note_on,142,0,4,,,,,,,,1,,,65,0
29710,note_on,142,0,1,,,,,,,,0,,,86,0
29710,note_on,142,0,6,,,,,,,,5,,,38,0
29710,note_on,142,0,2,,,,,,,,3,,,86,0
29710,note_on,142,0,3,,,,,,,,4,,,86,0
29710,note_on,142,0,5,,,,,,,,2,,,50,0
29712,note_on,2,0,1,,,,,,,,0,,,74,110
29712,note_on,2,0,4,,,,,,,,1,,,65,75
29712,note_on,2,0,6,,,,,,,,5,,,50,75
29712,note_on,2,0,5,,,,,,,,2,,,62,75
29712,note_on,2,0,2,,,,,,,,3,,,74,110
29712,note_on,2,0,3,,,,,,,,4,,,74,110
29758,note_on,46,0,5,,,,,,,,2,,,62,0
29758,note_on,46,0,2,,,,,,,,3,,,74,0
29758,note_on,46,0,1,,,,,,,,0,,,74,0
29758,note_on,46,0,3,,,,,,,,4,,,74,0
29758,note_on,46,0,4,,,,,,,,1,,,65,0
29758,note_on,46,0,6,,,,,,,,5,,,50,0
29760,note_on,2,0,2,,,,,,,,3,,,86,110
29760,note_on,2,0,1,,,,,,,,0,,,86,110
29760,note_on,2,0,5,,,,,,,,2,,,60,75
29760,note_on,2,0,4,,,,,,,,1,,,64,75
29760,note_on,2,0,6,,,,,,,,5,,,48,75
29760,note_on,2,0,3,,,,,,,,4,,,86,110
29902,note_on,142,0,3,,,,,,,,4,,,86,0
29902,note_on,142,0,6,,,,,,,,5,,,48,0
29902,note_on,142,0,2,,,,,,,,3,,,86,0
29902,note_on,142,0,1,,,,,,,,0,,,86,0
29902,note_on,142,0,5,,,,,,,,2,,,60,0
29902,note_on,142,0,4,,,,,,,,1,,,64,0
29904,note_on,2,0,4,,,,,,,,1,,,64,75
29904,note_on,2,0,2,,,,,,,,3,,,74,110
29904,note_on,2,0,1,,,,,,,,0,,,74,110
29904,note_on,2,0,5,,,,,,,,2,,,60,75
29904,note_on,2,0,6,,,,,,,,5,,,48,75
29904,note_on,2,0,3,,,,,,,,4,,,74,110
29950,note_on,46,0,4,,,,,,,,1,,,64,0
29950,note_on,46,0,3,,,,,,,,4,,,74,0
29950,note_on,46,0,1,,,,,,,,0,,,74,0
29950,note_on,46,0,2,,,,,,,,3,,,74,0
29950,note_on,46,0,5,,,,,,,,2,,,60,0
29950,note_on,46,0,6,,,,,,,,5,,,48,0
29952,note_on,2,0,2,,,,,,,,3,,,86,110
29952,note_on,2,0,5,,,,,,,,2,,,58,75
29952,note_on,2,0,4,,,,,,,,1,,,62,75
29952,note_on,2,0,6,,,,,,,,5,,,46,75
29952,note_on,2,0,3,,,,,,,,4,,,86,110
29952,note_on,2,0,1,,,,,,,,0,,,86,110
30094,note_on,142,0,4,,,,,,,,1,,,62,0
30094,note_on,142,0,1,,,,,,,,0,,,86,0
30094,note_on,142,0,3,,,,,,,,4,,,86,0
30094,note_on,142,0,2,,,,,,,,3,,,86,0
30094,note_on,142,0,6,,,,,,,,5,,,46,0
30094,note_on,142,0,5,,,,,,,,2,,,58,0
30096,note_on,2,0,6,,,,,,,,5,,,46,75
30096,note_on,2,0,2,,,,,,,,3,,,74,110
30096,note_on,2,0,4,,,,,,,,1,,,62,75
30096,note_on,2,0,5,,,,,,,,2,,,58,75
30096,note_on,2,0,3,,,,,,,,4,,,74,110
30096,note_on,2,0,1,,,,,,,,0,,,74,110
30142,note_on,46,0,1,,,,,,,,0,,,74,0
30142,note_on,46,0,5,,,,,,,,2,,,58,0
30142,note_on,46,0,2,,,,,,,,3,,,74,0
30142,note_on,46,0,6,,,,,,,,5,,,46,0
30142,note_on,46,0,4,,,,,,,,1,,,62,0
30142,note_on,46,0,3,,,,,,,,4,,,74,0
30144,note_on,2,0,3,,,,,,,,4,,,86,110
30144,note_on,2,0,6,,,,,,,,5,,,45,75
30144,note_on,2,0,1,,,,,,,,0,,,86,110
30144,note_on,2,0,4,,,,,,,,1,,,60,75
30144,note_on,2,0,2,,,,,,,,3,,,86,110
30144,note_on,2,0,5,,,,,,,,2,,,57,75
30286,note_on,142,0,4,,,,,,,,1,,,60,0
30286,note_on,142,0,3,,,,,,,,4,,,86,0
30286,note_on,142,0,6,,,,,,,,5,,,45,0
30286,note_on,142,0,2,,,,,,,,3,,,86,0
30286,note_on,142,0,5,,,,,,,,2,,,57,0
30286,note_on,142,0,1,,,,,,,,0,,,86,0
30288,note_on,2,0,6,,,,,,,,5,,,43,75
30288,note_on,2,0,2,,,,,,,,3,,,74,110
30288,note_on,2,0,1,,,,,,,,0,,,74,110
30288,note_on,2,0,5,,,,,,,,2,,,55,75
30288,note_on,2,0,3,,,,,,,,4,,,74,110
30288,note_on,2,0,4,,,,,,,,1,,,58,75
30334,note_on,46,0,4,,,,,,,,1,,,58,0
30334,note_on,46,0,6,,,,,,,,5,,,43,0
30334,note_on,46,0,3,,,,,,,,4,,,74,0
30334,note_on,46,0,2,,,,,,,,3,,,74,0
30334,note_on,46,0,1,,,,,,,,0,,,74,0
30334,note_on,46,0,5,,,,,,,,2,,,55,0
30336,note_on,2,0,3,,,,,,,,4,,,86,110
30336,note_on,2,0,2,,,,,,,,3,,,86,110
30336,note_on,2,0,1,,,,,,,,0,,,86,110
30336,note_on,2,0,4,,,,,,,,1,,,57,75
30336,note_on,2,0,6,,,,,,,,5,,,41,75
30336,note_on,2,0,5,,,,,,,,2,,,53,75
30430,note_on,94,0,2,,,,,,,,3,,,86,0
30430,note_on,94,0,4,,,,,,,,1,,,57,0
30430,note_on,94,0,3,,,,,,,,4,,,86,0
30430,note_on,94,0,6,,,,,,,,5,,,41,0
30430,note_on,94,0,5,,,,,,,,2,,,53,0
30430,note_on,94,0,1,,,,,,,,0,,,86,0
30432,note_on,2,0,5,,,,,,,,2,,,50,75
30432,note_on,2,0,2,,,,,,,,3,,,74,110
30432,note_on,2,0,1,,,,,,,,0,,,74,110
30432,note_on,2,0,4,,,,,,,,1,,,69,75
30432,note_on,2,0,3,,,,,,,,4,,,74,110
30432,note_on,2,0,6,,,,,,,,5,,,38,75
30526,note_on,94,0,6,,,,,,,,5,,,38,0
30526,note_on,94,0,5,,,,,,,,2,,,50,0
30526,note_on,94,0,4,,,,,,,,1,,,69,0
30526,note_on,94,0,2,,,,,,,,3,,,74,0
30526,note_on,94,0,3,,,,,,,,4,,,74,0
30526,note_on,94,0,1,,,,,,,,0,,,74,0
30528,note_on,2,0,4,,,,,,,,1,,,61,75
30528,note_on,2,0,2,,,,,,,,3,,,77,110
30528,note_on,2,0,3,,,,,,,,4,,,77,110
30528,note_on,2,0,6,,,,,,,,5,,,45,75
30528,note_on,2,0,5,,,,,,,,2,,,57,75
30528,note_on,2,0,1,,,,,,,,0,,,77,110
30550,note_on,22,0,2,,,,,,,,3,,,77,0
30550,note_on,22,0,3,,,,,,,,4,,,77,0
30550,note_on,22,0,1,,,,,,,,0,,,77,0
30552,note_on,2,0,2,,,,,,,,3,,,76,110
30552,note_on,2,0,3,,,,,,,,4,,,76,110
30552,note_on,2,0,1,,,,,,,,0,,,76,110
30574,note_on,22,0,1,,,,,,,,0,,,76,0
30574,note_on,22,0,3,,,,,,,,4,,,76,0
30574,note_on,22,0,2,,,,,,,,3,,,76,0
30576,note_on,2,0,3,,,,,,,,4,,,77,110
30576,note_on,2,0,1,,,,,,,,0,,,77,110
30576,note_on,2,0,2,,,,,,,,3,,,77,110
30598,note_on,22,0,1,,,,,,,,0,,,77,0
30598,note_on,22,0,3,,,,,,,,4,,,77,0
30598,note_on,22,0,2,,,,,,,,3,,,77,0
30600,note_on,2,0,1,,,,,,,,0,,,76,110
30600,note_on,2,0,3,,,,,,,,4,,,76,110
30600,note_on,2,0,2,,,,,,,,3,,,76,110
30622,note_on,94,0,4,,,,,,,,1,,,61,0
30622,note_on,94,0,6,,,,,,,,5,,,45,0
30622,note_on,94,0,5,,,,,,,,2,,,57,0
30624,note_on,2,0,4,,,,,,,,1,,,69,75
30624,note_on,2,0,5,,,,,,,,2,,,45,75
30624,note_on,2,0,6,,,,,,,,5,,,33,75
30670,note_on,70,0,3,,,,,,,,4,,,76,0
30670,note_on,70,0,1,,,,,,,,0,,,76,0
30670,note_on,70,0,2,,,,,,,,3,,,76,0
30672,note_on,2,0,1,,,,,,,,0,,,74,110
30672,note_on,2,0,2,,,,,,,,3,,,74,110
30672,note_on,2,0,3,,,,,,,,4,,,74,110
30718,note_on,94,0,6,,,,,,,,5,,,33,0
30718,note_on,94,0,5,,,,,,,,2,,,45,0
30718,note_on,46,0,3,,,,,,,,4,,,74,0
30718,note_on,46,0,2,,,,,,,,3,,,74,0
30718,note_on,46,0,1,,,,,,,,0,,,74,0
30718,note_on,94,0,4,,,,,,,,1,,,69,0
30720,note_on,0,0,1,,,,,,,,0,,,74,110
30720,note_on,2,0,1,,,,,,,,0,,,62,110
30720,note_on,2,0,2,,,,,,,,3,,,74,110
30720,note_on,2,0,3,,,,,,,,4,,,74,110
30720,note_on,2,0,5,,,,,,,,2,,,50,75
30720,note_on,2,0,6,,,,,,,,5,,,38,75
30720,note_on,2,0,4,,,,,,,,1,,,65,75
30814,note_on,94,0,5,,,,,,,,2,,,50,0
30814,note_on,94,0,1,,,,,,,,0,,,74,0
30814,note_on,0,0,1,,,,,,,,0,,,62,0
30816,note_on,2,0,5,,,,,,,,2,,,50,75
30816,note_on,2,0,1,,,,,,,,0,,,69,110
30816,note_on,0,0,1,,,,,,,,0,,,74,110
30862,note_on,46,0,1,,,,,,,,0,,,74,0
30862,note_on,46,0,5,,,,,,,,2,,,50,0
30862,note_on,0,0,1,,,,,,,,0,,,69,0
30864,note_on,2,0,5,,,,,,,,2,,,50,75
30864,note_on,2,0,1,,,,,,,,0,,,69,110
30864,note_on,0,0,1,,,,,,,,0,,,74,110
30880,note_on,160,0,2,,,,,,,,3,,,74,0
30880,note_on,160,0,6,,,,,,,,5,,,38,0
30880,note_on,160,0,4,,,,,,,,1,,,65,0
30880,note_on,160,0,3,,,,,,,,4,,,74,0
30910,note_on,46,0,1,,,,,,,,0,,,74,0
30910,note_on,46,0,5,,,,,,,,2,,,50,0
30910,note_on,0,0,1,,,,,,,,0,,,69,0
30912,note_on,2,0,5,,,,,,,,2,,,50,75
30912,note_on,0,0,1,,,,,,,,0,,,74,110
30912,note_on,2,0,1,,,,,,,,0,,,62,110
31006,note_on,0,0,1,,,,,,,,0,,,62,0
31006,note_on,94,0,1,,,,,,,,0,,,74,0
31006,note_on,94,0,5,,,,,,,,2,,,50,0
31008,note_on,2,0,1,,,,,,,,0,,,69,110
31008,note_on,2,0,5,,,,,,,,2,,,50,75
31008,note_on,0,0,1,,,,,,,,0,,,74,110
31054,note_on,46,0,1,,,,,,,,0,,,74,0
31054,note_on,0,0,1,,,,,,,,0,,,69,0
31054,note_on,46,0,5,,,,,,,,2,,,50,0
31056,note_on,2,0,1,,,,,,,,0,,,69,110
31056,note_on,2,0,5,,,,,,,,2,,,50,75
31056,note_on,0,0,1,,,,,,,,0,,,74,110
31102,note_on,46,0,5,,,,,,,,2,,,50,0
31102,note_on,46,0,1,,,,,,,,0,,,74,0
31102,note_on,0,0,1,,,,,,,,0,,,69,0
31104,note_on,0,0,1,,,,,,,,0,,,74,110
31104,note_on,2,0,5,,,,,,,,2,,,50,75
31104,note_on,2,0,1,,,,,,,,0,,,62,110
31198,note_on,0,0,1,,,,,,,,0,,,62,0
31198,note_on,94,0,5,,,,,,,,2,,,50,0
31198,note_on,94,0,1,,,,,,,,0,,,74,0
31200,note_on,2,0,5,,,,,,,,2,,,50,75
31200,note_on,0,0,1,,,,,,,,0,,,74,110
31200,note_on,2,0,1,,,,,,,,0,,,69,110
31246,note_on,0,0,1,,,,,,,,0,,,69,0
31246,note_on,46,0,5,,,,,,,,2,,,50,0
31246,note_on,46,0,1,,,,,,,,0,,,74,0
31248,note_on,2,0,5,,,,,,,,2,,,50,75
31248,note_on,2,0,1,,,,,,,,0,,,69,110
31248,note_on,0,0,1,,,,,,,,0,,,74,110
31294,note_on,46,0,1,,,,,,,,0,,,74,0
31294,note_on,46,0,5,,,,,,,,2,,,50,0
31294,note_on,0,0,1,,,,,,,,0,,,69,0
31296,note_on,2,0,5,,,,,,,,2,,,50,75
31296,note_on,0,0,1,,,,,,,,0,,,74,110
31296,note_on,2,0,1,,,,,,,,0,,,62,110
31390,note_on,94,0,1,,,,,,,,0,,,74,0
31390,note_on,0,0,1,,,,,,,,0,,,62,0
31390,note_on,94,0,5,,,,,,,,2,,,50,0
31392,note_on,2,0,5,,,,,,,,2,,,50,75
31392,note_on,2,0,1,,,,,,,,0,,,69,110
31392,note_on,0,0,1,,,,,,,,0,,,74,110
31438,note_on,46,0,5,,,,,,,,2,,,50,0
31438,note_on,0,0,1,,,,,,,,0,,,69,0
31438,note_on,46,0,1,,,,,,,,0,,,74,0
31440,note_on,2,0,5,,,,,,,,2,,,50,75
31440,note_on,2,0,1,,,,,,,,0,,,69,110
31440,note_on,0,0,1,,,,,,,,0,,,74,110
31486,note_on,46,0,1,,,,,,,,0,,,74,0
31486,note_on,46,0,5,,,,,,,,2,,,50,0
31486,note_on,0,0,1,,,,,,,,0,,,69,0
31488,note_on,2,0,5,,,,,,,,2,,,50,75
31488,note_on,2,0,1,,,,,,,,0,,,77,110
31534,note_on,46,0,1,,,,,,,,0,,,77,0
31536,note_on,2,0,1,,,,,,,,0,,,76,110
31582,note_on,46,0,1,,,,,,,,0,,,76,0
31584,note_on,2,0,1,,,,,,,,0,,,74,110
31630,note_on,46,0,1,,,,,,,,0,,,74,0
31632,note_on,2,0,1,,,,,,,,0,,,76,110
31648,note_on,160,0,5,,,,,,,,2,,,50,0
31678,note_on,46,0,1,,,,,,,,0,,,76,0
31680,note_on,2,0,1,,,,,,,,0,,,77,110
31726,note_on,46,0,1,,,,,,,,0,,,77,0
31728,note_on,2,0,1,,,,,,,,0,,,79,110
31774,note_on,46,0,1,,,,,,,,0,,,79,0
31776,note_on,2,0,1,,,,,,,,0,,,81,110
31822,note_on,46,0,1,,,,,,,,0,,,81,0
31824,note_on,2,0,1,,,,,,,,0,,,82,110
31870,note_on,46,0,1,,,,,,,,0,,,82,0
31872,note_on,224,0,5,,,,,,,,2,,,50,75
31872,note_on,0,0,1,,,,,,,,0,,,74,110
31872,note_on,2,0,1,,,,,,,,0,,,62,110
31966,note_on,94,0,5,,,,,,,,2,,,50,0
31966,note_on,0,0,1,,,,,,,,0,,,62,0
31966,note_on,94,0,1,,,,,,,,0,,,74,0
31968,note_on,2,0,5,,,,,,,,2,,,50,75
31968,note_on,0,0,1,,,,,,,,0,,,74,110
31968,note_on,2,0,1,,,,,,,,0,,,69,110
32014,note_on,46,0,5,,,,,,,,2,,,50,0
32014,note_on,46,0,1,,,,,,,,0,,,74,0
32014,note_on,0,0,1,,,,,,,,0,,,69,0
32016,note_on,2,0,1,,,,,,,,0,,,69,110
32016,note_on,0,0,1,,,,,,,,0,,,74,110
32016,note_on,2,0,5,,,,,,,,2,,,50,75
32062,note_on,0,0,1,,,,,,,,0,,,69,0
32062,note_on,46,0,5,,,,,,,,2,,,50,0
32062,note_on,46,0,1,,,,,,,,0,,,74,0
32064,note_on,2,0,1,,,,,,,,0,,,62,110
32064,note_on,0,0,1,,,,,,,,0,,,74,110
32064,note_on,2,0,5,,,,,,,,2,,,50,75
32158,note_on,94,0,5,,,,,,,,2,,,50,0
32158,note_on,0,0,1,,,,,,,,0,,,62,0
32158,note_on,94,0,1,,,,,,,,0,,,74,0
32160,note_on,2,0,5,,,,,,,,2,,,50,75
32160,note_on,0,0,1,,,,,,,,0,,,74,110
32160,note_on,2,0,1,,,,,,,,0,,,69,110
32206,note_on,46,0,5,,,,,,,,2,,,50,0
32206,note_on,0,0,1,,,,,,,,0,,,69,0
32206,note_on,46,0,1,,,,,,,,0,,,74,0
32208,note_on,2,0,1,,,,,,,,0,,,69,110
32208,note_on,0,0,1,,,,,,,,0,,,74,110
32208,note_on,2,0,5,,,,,,,,2,,,50,75
32254,note_on,46,0,5,,,,,,,,2,,,50,0
32254,note_on,46,0,1,,,,,,,,0,,,74,0
32254,note_on,0,0,1,,,,,,,,0,,,69,0
32256,note_on,0,0,1,,,,,,,,0,,,74,110
32256,note_on,2,0,1,,,,,,,,0,,,62,110
32256,note_on,2,0,5,,,,,,,,2,,,50,75
32350,note_on,0,0,1,,,,,,,,0,,,62,0
32350,note_on,94,0,1,,,,,,,,0,,,74,0
32350,note_on,94,0,5,,,,,,,,2,,,50,0
32352,note_on,0,0,1,,,,,,,,0,,,74,110
32352,note_on,2,0,1,,,,,,,,0,,,69,110
32352,note_on,2,0,5,,,,,,,,2,,,50,75
32398,note_on,46,0,5,,,,,,,,2,,,50,0
32398,note_on,0,0,1,,,,,,,,0,,,69,0
32398,note_on,46,0,1,,,,,,,,0,,,74,0
32400,note_on,0,0,1,,,,,,,,0,,,74,110
32400,note_on,2,0,1,,,,,,,,0,,,69,110
32400,note_on,2,0,5,,,,,,,,2,,,50,75
32446,note_on,46,0,5,,,,,,,,2,,,50,0
32446,note_on,46,0,1,,,,,,,,0,,,74,0
32446,note_on,0,0,1,,,,,,,,0,,,69,0
32448,note_on,2,0,1,,,,,,,,0,,,62,110
32448,note_on,0,0,1,,,,,,,,0,,,74,110
32448,note_on,2,0,5,,,,,,,,2,,,50,75
32542,note_on,0,0,1,,,,,,,,0,,,62,0
32542,note_on,94,0,1,,,,,,,,0,,,74,0
32542,note_on,94,0,5,,,,,,,,2,,,50,0
32544,note_on,2,0,1,,,,,,,,0,,,69,110
32544,note_on,0,0,1,,,,,,,,0,,,74,110
32544,note_on,2,0,5,,,,,,,,2,,,50,75
32590,note_on,46,0,1,,,,,,,,0,,,74,0
32590,note_on,46,0,5,,,,,,,,2,,,50,0
32590,note_on,0,0,1,,,,,,,,0,,,69,0
32592,note_on,2,0,5,,,,,,,,2,,,50,75
32592,note_on,0,0,1,,,,,,,,0,,,74,110
32592,note_on,2,0,1,,,,,,,,0,,,69,110
32638,note_on,0,0,1,,,,,,,,0,,,69,0
32638,note_on,46,0,1,,,,,,,,0,,,74,0
32638,note_on,46,0,5,,,,,,,,2,,,50,0
32640,note_on,2,0,1,,,,,,,,0,,,77,110
32640,note_on,2,0,5,,,,,,,,2,,,50,75
32686,note_on,46,0,1,,,,,,,,0,,,77,0
32688,note_on,2,0,1,,,,,,,,0,,,76,110
32734,note_on,46,0,1,,,,,,,,0,,,76,0
32736,note_on,2,0,1,,,,,,,,0,,,74,110
32782,note_on,46,0,1,,,,,,,,0,,,74,0
32784,note_on,2,0,1,,,,,,,,0,,,76,110
32800,note_on,160,0,5,,,,,,,,2,,,50,0
32830,note_on,46,0,1,,,,,,,,0,,,76,0
32832,note_on,2,0,1,,,,,,,,0,,,77,110
32878,note_on,46,0,1,,,,,,,,0,,,77,0
32880,note_on,2,0,1,,,,,,,,0,,,79,110
32926,note_on,46,0,1,,,,,,,,0,,,79,0
32928,note_on,2,0,1,,,,,,,,0,,,81,110
32974,note_on,46,0,1,,,,,,,,0,,,81,0
32976,note_on,2,0,1,,,,,,,,0,,,82,110
33022,note_on,46,0,1,,,,,,,,0,,,82,0
33024,note_on,2,0,1,,,,,,,,0,,,81,110
33024,note_on,224,0,5,,,,,,,,2,,,50,75
33046,note_on,22,0,1,,,,,,,,0,,,81,0
33048,note_on,2,0,1,,,,,,,,0,,,79,110
33070,note_on,22,0,1,,,,,,,,0,,,79,0
33072,note_on,2,0,1,,,,,,,,0,,,77,110
33094,note_on,22,0,1,,,,,,,,0,,,77,0
33096,note_on,2,0,1,,,,,,,,0,,,76,110
33118,note_on,22,0,1,,,,,,,,0,,,76,0
33118,note_on,94,0,5,,,,,,,,2,,,50,0
33120,note_on,2,0,5,,,,,,,,2,,,50,75
33120,note_on,2,0,1,,,,,,,,0,,,74,110
33166,note_on,46,0,5,,,,,,,,2,,,50,0
33168,note_on,2,0,5,,,,,,,,2,,,52,75
33214,note_on,94,0,1,,,,,,,,0,,,74,0
33214,note_on,46,0,5,,,,,,,,2,,,52,0
33216,note_on,2,0,5,,,,,,,,2,,,53,75
33310,note_on,94,0,5,,,,,,,,2,,,53,0
33312,note_on,98,0,1,,,,,,,,0,,,81,110
33312,note_on,2,0,5,,,,,,,,2,,,50,75
33406,note_on,94,0,5,,,,,,,,2,,,50,0
33406,note_on,94,0,1,,,,,,,,0,,,81,0
33408,note_on,2,0,5,,,,,,,,2,,,55,75
33408,note_on,2,0,1,,,,,,,,0,,,82,110
33454,note_on,46,0,1,,,,,,,,0,,,82,0
33456,note_on,2,0,1,,,,,,,,0,,,84,110
33502,note_on,46,0,1,,,,,,,,0,,,84,0
33502,note_on,94,0,5,,,,,,,,2,,,55,0
33504,note_on,2,0,5,,,,,,,,2,,,55,75
33504,note_on,2,0,1,,,,,,,,0,,,86,110
33550,note_on,46,0,5,,,,,,,,2,,,55,0
33552,note_on,2,0,5,,,,,,,,2,,,57,75
33598,note_on,46,0,5,,,,,,,,2,,,57,0
33600,note_on,2,0,5,,,,,,,,2,,,58,75
33646,note_on,142,0,1,,,,,,,,0,,,86,0
33648,note_on,2,0,1,,,,,,,,0,,,77,110
33694,note_on,46,0,1,,,,,,,,0,,,77,0
33694,note_on,94,0,5,,,,,,,,2,,,58,0
33696,note_on,2,0,1,,,,,,,,0,,,75,110
33696,note_on,2,0,5,,,,,,,,2,,,55,75
33742,note_on,46,0,1,,,,,,,,0,,,75,0
33744,note_on,2,0,1,,,,,,,,0,,,74,110
33790,note_on,94,0,5,,,,,,,,2,,,55,0
33790,note_on,46,0,1,,,,,,,,0,,,74,0
33792,note_on,2,0,1,,,,,,,,0,,,75,110
33792,note_on,2,0,5,,,,,,,,2,,,48,75
33838,note_on,46,0,1,,,,,,,,0,,,75,0
33840,note_on,2,0,1,,,,,,,,0,,,77,110
33886,note_on,46,0,1,,,,,,,,0,,,77,0
33886,note_on,94,0,5,,,,,,,,2,,,48,0
33888,note_on,2,0,1,,,,,,,,0,,,79,110
33888,note_on,2,0,5,,,,,,,,2,,,48,75
33934,note_on,46,0,5,,,,,,,,2,,,48,0
33936,note_on,2,0,5,,,,,,,,2,,,50,75
33982,note_on,46,0,5,,,,,,,,2,,,50,0
33984,note_on,2,0,5,,,,,,,,2,,,51,75
34030,note_on,142,0,1,,,,,,,,0,,,79,0
34032,note_on,2,0,1,,,,,,,,0,,,82,110
34078,note_on,46,0,1,,,,,,,,0,,,82,0
34078,note_on,94,0,5,,,,,,,,2,,,51,0
34080,note_on,2,0,1,,,,,,,,0,,,81,110
34080,note_on,2,0,5,,,,,,,,2,,,48,75
34126,note_on,46,0,1,,,,,,,,0,,,81,0
34128,note_on,2,0,1,,,,,,,,0,,,79,110
34174,note_on,46,0,1,,,,,,,,0,,,79,0
34174,note_on,94,0,5,,,,,,,,2,,,48,0
34176,note_on,2,0,5,,,,,,,,2,,,53,75
34176,note_on,2,0,1,,,,,,,,0,,,81,110
34222,note_on,46,0,1,,,,,,,,0,,,81,0
34224,note_on,2,0,1,,,,,,,,0,,,82,110
34270,note_on,94,0,5,,,,,,,,2,,,53,0
34270,note_on,46,0,1,,,,,,,,0,,,82,0
34272,note_on,2,0,5,,,,,,,,2,,,53,75
34272,note_on,2,0,1,,,,,,,,0,,,84,110
34318,note_on,46,0,5,,,,,,,,2,,,53,0
34320,note_on,2,0,5,,,,,,,,2,,,55,75
34366,note_on,46,0,5,,,,,,,,2,,,55,0
34368,note_on,2,0,5,,,,,,,,2,,,57,75
34414,note_on,142,0,1,,,,,,,,0,,,84,0
34416,note_on,2,0,1,,,,,,,,0,,,79,110
34462,note_on,94,0,5,,,,,,,,2,,,57,0
34462,note_on,46,0,1,,,,,,,,0,,,79,0
34464,note_on,2,0,1,,,,,,,,0,,,78,110
34464,note_on,2,0,5,,,,,,,,2,,,48,75
34510,note_on,46,0,1,,,,,,,,0,,,78,0
34512,note_on,2,0,1,,,,,,,,0,,,76,110
34558,note_on,94,0,5,,,,,,,,2,,,48,0
34558,note_on,46,0,1,,,,,,,,0,,,76,0
34560,note_on,2,0,5,,,,,,,,2,,,50,75
34560,note_on,2,0,1,,,,,,,,0,,,78,110
34606,note_on,46,0,1,,,,,,,,0,,,78,0
34608,note_on,2,0,1,,,,,,,,0,,,79,110
34654,note_on,46,0,1,,,,,,,,0,,,79,0
34654,note_on,94,0,5,,,,,,,,2,,,50,0
34656,note_on,2,0,1,,,,,,,,0,,,81,110
34656,note_on,2,0,5,,,,,,,,2,,,50,75
34702,note_on,46,0,5,,,,,,,,2,,,50,0
34704,note_on,2,0,5,,,,,,,,2,,,52,75
34750,note_on,46,0,5,,,,,,,,2,,,52,0
34752,note_on,2,0,5,,,,,,,,2,,,54,75
34798,note_on,142,0,1,,,,,,,,0,,,81,0
34800,note_on,2,0,1,,,,,,,,0,,,72,110
34846,note_on,46,0,1,,,,,,,,0,,,72,0
34846,note_on,94,0,5,,,,,,,,2,,,54,0
34848,note_on,2,0,1,,,,,,,,0,,,70,110
34848,note_on,2,0,5,,,,,,,,2,,,50,75
34894,note_on,46,0,1,,,,,,,,0,,,70,0
34896,note_on,2,0,1,,,,,,,,0,,,69,110
34942,note_on,46,0,1,,,,,,,,0,,,69,0
34942,note_on,94,0,5,,,,,,,,2,,,50,0
34944,note_on,2,0,1,,,,,,,,0,,,70,110
34944,note_on,2,0,5,,,,,,,,2,,,55,75
34990,note_on,46,0,1,,,,,,,,0,,,70,0
34992,note_on,2,0,1,,,,,,,,0,,,82,110
35038,note_on,46,0,1,,,,,,,,0,,,82,0
35038,note_on,94,0,5,,,,,,,,2,,,55,0
35040,note_on,2,0,1,,,,,,,,0,,,79,110
35040,note_on,2,0,5,,,,,,,,2,,,55,75
35086,note_on,46,0,5,,,,,,,,2,,,55,0
35086,note_on,46,0,1,,,,,,,,0,,,79,0
35088,note_on,2,0,1,,,,,,,,0,,,74,110
35088,note_on,2,0,5,,,,,,,,2,,,54,75
35134,note_on,46,0,1,,,,,,,,0,,,74,0
35134,note_on,46,0,5,,,,,,,,2,,,54,0
35136,note_on,2,0,1,,,,,,,,0,,,70,110
35136,note_on,2,0,5,,,,,,,,2,,,55,75
35182,note_on,46,0,1,,,,,,,,0,,,70,0
35184,note_on,2,0,1,,,,,,,,0,,,82,110
35230,note_on,94,0,5,,,,,,,,2,,,55,0
35230,note_on,46,0,1,,,,,,,,0,,,82,0
35232,note_on,2,0,5,,,,,,,,2,,,43,75
35232,note_on,2,0,1,,,,,,,,0,,,79,110
35278,note_on,46,0,1,,,,,,,,0,,,79,0
35280,note_on,2,0,1,,,,,,,,0,,,74,110
35326,note_on,46,0,1,,,,,,,,0,,,74,0
35326,note_on,94,0,5,,,,,,,,2,,,43,0
35328,note_on,2,0,1,,,,,,,,0,,,70,110
35374,note_on,46,0,1,,,,,,,,0,,,70,0
35376,note_on,2,0,1,,,,,,,,0,,,82,110
35422,note_on,46,0,1,,,,,,,,0,,,82,0
35424,note_on,2,0,1,,,,,,,,0,,,79,110
35424,note_on,98,0,5,,,,,,,,2,,,55,75
35470,note_on,46,0,5,,,,,,,,2,,,55,0
35470,note_on,46,0,1,,,,,,,,0,,,79,0
35472,note_on,2,0,5,,,,,,,,2,,,54,75
35472,note_on,2,0,1,,,,,,,,0,,,74,110
35518,note_on,46,0,5,,,,,,,,2,,,54,0
35518,note_on,46,0,1,,,,,,,,0,,,74,0
35520,note_on,2,0,1,,,,,,,,0,,,70,110
35520,note_on,2,0,5,,,,,,,,2,,,55,75
35566,note_on,46,0,1,,,,,,,,0,,,70,0
35568,note_on,2,0,1,,,,,,,,0,,,82,110
35614,note_on,46,0,1,,,,,,,,0,,,82,0
35614,note_on,94,0,5,,,,,,,,2,,,55,0
35616,note_on,2,0,5,,,,,,,,2,,,43,75
35616,note_on,2,0,1,,,,,,,,0,,,79,110
35662,note_on,46,0,1,,,,,,,,0,,,79,0
35664,note_on,2,0,1,,,,,,,,0,,,74,110
35710,note_on,94,0,5,,,,,,,,2,,,43,0
35710,note_on,46,0,1,,,,,,,,0,,,74,0
35712,note_on,2,0,1,,,,,,,,0,,,72,110
35758,note_on,46,0,1,,,,,,,,0,,,72,0
35760,note_on,2,0,1,,,,,,,,0,,,84,110
35806,note_on,46,0,1,,,,,,,,0,,,84,0
35808,note_on,2,0,1,,,,,,,,0,,,79,110
35808,note_on,98,0,5,,,,,,,,2,,,51,75
35854,note_on,46,0,1,,,,,,,,0,,,79,0
35854,note_on,46,0,5,,,,,,,,2,,,51,0
35856,note_on,2,0,5,,,,,,,,2,,,50,75
35856,note_on,2,0,1,,,,,,,,0,,,75,110
35902,note_on,46,0,1,,,,,,,,0,,,75,0
35902,note_on,46,0,5,,,,,,,,2,,,50,0
35904,note_on,2,0,5,,,,,,,,2,,,51,75
35904,note_on,2,0,1,,,,,,,,0,,,72,110
35950,note_on,46,0,1,,,,,,,,0,,,72,0
35952,note_on,2,0,1,,,,,,,,0,,,84,110
35998,note_on,94,0,5,,,,,,,,2,,,51,0
35998,note_on,46,0,1,,,,,,,,0,,,84,0
36000,note_on,2,0,5,,,,,,,,2,,,39,75
36000,note_on,2,0,1,,,,,,,,0,,,79,110
36046,note_on,46,0,1,,,,,,,,0,,,79,0
36048,note_on,2,0,1,,,,,,,,0,,,75,110
36094,note_on,46,0,1,,,,,,,,0,,,75,0
36094,note_on,94,0,5,,,,,,,,2,,,39,0
36096,note_on,2,0,1,,,,,,,,0,,,72,110
36142,note_on,46,0,1,,,,,,,,0,,,72,0
36144,note_on,2,0,1,,,,,,,,0,,,84,110
36190,note_on,46,0,1,,,,,,,,0,,,84,0
36192,note_on,98,0,5,,,,,,,,2,,,51,75
36192,note_on,2,0,1,,,,,,,,0,,,79,110
36238,note_on,46,0,5,,,,,,,,2,,,51,0
36238,note_on,46,0,1,,,,,,,,0,,,79,0
36240,note_on,2,0,1,,,,,,,,0,,,75,110
36240,note_on,2,0,5,,,,,,,,2,,,50,75
36286,note_on,46,0,1,,,,,,,,0,,,75,0
36286,note_on,46,0,5,,,,,,,,2,,,50,0
36288,note_on,2,0,5,,,,,,,,2,,,51,75
36288,note_on,2,0,1,,,,,,,,0,,,72,110
36334,note_on,46,0,1,,,,,,,,0,,,72,0
36336,note_on,2,0,1,,,,,,,,0,,,84,110
36382,note_on,46,0,1,,,,,,,,0,,,84,0
36382,note_on,94,0,5,,,,,,,,2,,,51,0
36384,note_on,2,0,1,,,,,,,,0,,,79,110
36384,note_on,2,0,5,,,,,,,,2,,,39,75
36430,note_on,46,0,1,,,,,,,,0,,,79,0
36432,note_on,2,0,1,,,,,,,,0,,,75,110
36478,note_on,46,0,1,,,,,,,,0,,,75,0
36478,note_on,94,0,5,,,,,,,,2,,,39,0
36480,note_on,2,0,1,,,,,,,,0,,,69,110
36526,note_on,46,0,1,,,,,,,,0,,,69,0
36528,note_on,2,0,1,,,,,,,,0,,,81,110
36574,note_on,46,0,1,,,,,,,,0,,,81,0
36576,note_on,2,0,1,,,,,,,,0,,,77,110
36576,note_on,98,0,5,,,,,,,,2,,,53,75
36622,note_on,46,0,1,,,,,,,,0,,,77,0
36622,note_on,46,0,5,,,,,,,,2,,,53,0
36624,note_on,2,0,1,,,,,,,,0,,,72,110
36624,note_on,2,0,5,,,,,,,,2,,,51,75
36670,note_on,46,0,1,,,,,,,,0,,,72,0
36670,note_on,46,0,5,,,,,,,,2,,,51,0
36672,note_on,2,0,1,,,,,,,,0,,,69,110
36672,note_on,2,0,5,,,,,,,,2,,,53,75
36718,note_on,46,0,1,,,,,,,,0,,,69,0
36720,note_on,2,0,1,,,,,,,,0,,,81,110
36766,note_on,94,0,5,,,,,,,,2,,,53,0
36766,note_on,46,0,1,,,,,,,,0,,,81,0
36768,note_on,2,0,5,,,,,,,,2,,,41,75
36768,note_on,2,0,1,,,,,,,,0,,,77,110
36814,note_on,46,0,1,,,,,,,,0,,,77,0
36816,note_on,2,0,1,,,,,,,,0,,,72,110
36862,note_on,46,0,1,,,,,,,,0,,,72,0
36862,note_on,94,0,5,,,,,,,,2,,,41,0
36864,note_on,2,0,1,,,,,,,,0,,,69,110
36910,note_on,46,0,1,,,,,,,,0,,,69,0
36912,note_on,2,0,1,,,,,,,,0,,,81,110
36958,note_on,46,0,1,,,,,,,,0,,,81,0
36960,note_on,2,0,1,,,,,,,,0,,,77,110
36960,note_on,98,0,5,,,,,,,,2,,,53,75
37006,note_on,46,0,1,,,,,,,,0,,,77,0
37006,note_on,46,0,5,,,,,,,,2,,,53,0
37008,note_on,2,0,5,,,,,,,,2,,,51,75
37008,note_on,2,0,1,,,,,,,,0,,,72,110
37054,note_on,46,0,1,,,,,,,,0,,,72,0
37054,note_on,46,0,5,,,,,,,,2,,,51,0
37056,note_on,2,0,5,,,,,,,,2,,,53,75
37056,note_on,2,0,1,,,,,,,,0,,,69,110
37102,note_on,46,0,1,,,,,,,,0,,,69,0
37104,note_on,2,0,1,,,,,,,,0,,,81,110
37150,note_on,46,0,1,,,,,,,,0,,,81,0
37150,note_on,94,0,5,,,,,,,,2,,,53,0
37152,note_on,2,0,5,,,,,,,,2,,,41,75
37152,note_on,2,0,1,,,,,,,,0,,,77,110
37198,note_on,46,0,1,,,,,,,,0,,,77,0
37200,note_on,2,0,1,,,,,,,,0,,,72,110
37246,note_on,46,0,1,,,,,,,,0,,,72,0
37246,note_on,94,0,5,,,,,,,,2,,,41,0
37248,note_on,2,0,1,,,,,,,,0,,,70,110
37248,note_on,2,0,5,,,,,,,,2,,,46,75
37342,note_on,94,0,5,,,,,,,,2,,,46,0
37344,note_on,2,0,5,,,,,,,,2,,,58,75
37390,note_on,46,0,5,,,,,,,,2,,,58,0
37392,note_on,2,0,5,,,,,,,,2,,,57,75
37438,note_on,46,0,5,,,,,,,,2,,,57,0
37440,note_on,2,0,5,,,,,,,,2,,,58,75
37486,note_on,238,0,1,,,,,,,,0,,,70,0
37488,note_on,2,0,1,,,,,,,,0,,,70,110
37534,note_on,46,0,1,,,,,,,,0,,,70,0
37534,note_on,94,0,5,,,,,,,,2,,,58,0
37536,note_on,2,0,1,,,,,,,,0,,,82,110
37536,note_on,2,0,5,,,,,,,,2,,,46,75
37582,note_on,46,0,1,,,,,,,,0,,,82,0
37584,note_on,2,0,1,,,,,,,,0,,,70,110
37630,note_on,94,0,5,,,,,,,,2,,,46,0
37630,note_on,46,0,1,,,,,,,,0,,,70,0
37632,note_on,2,0,1,,,,,,,,0,,,82,110
37678,note_on,46,0,1,,,,,,,,0,,,82,0
37680,note_on,2,0,1,,,,,,,,0,,,70,110
37726,note_on,46,0,1,,,,,,,,0,,,70,0
37728,note_on,2,0,1,,,,,,,,0,,,82,110
37728,note_on,98,0,5,,,,,,,,2,,,58,75
37774,note_on,46,0,5,,,,,,,,2,,,58,0
37776,note_on,2,0,5,,,,,,,,2,,,57,75
37822,note_on,46,0,5,,,,,,,,2,,,57,0
37824,note_on,2,0,5,,,,,,,,2,,,58,75
37870,note_on,142,0,1,,,,,,,,0,,,82,0
37872,note_on,2,0,1,,,,,,,,0,,,70,110
37918,note_on,94,0,5,,,,,,,,2,,,58,0
37918,note_on,46,0,1,,,,,,,,0,,,70,0
37920,note_on,2,0,5,,,,,,,,2,,,46,75
37920,note_on,2,0,1,,,,,,,,0,,,82,110
37966,note_on,46,0,1,,,,,,,,0,,,82,0
37968,note_on,2,0,1,,,,,,,,0,,,70,110
38014,note_on,94,0,5,,,,,,,,2,,,46,0
38014,note_on,46,0,1,,,,,,,,0,,,70,0
38016,note_on,0,0,1,,,,,,,,0,,,79,110
38016,note_on,2,0,1,,,,,,,,0,,,75,110
38062,note_on,46,0,1,,,,,,,,0,,,75,0
38064,note_on,2,0,1,,,,,,,,0,,,70,110
38110,note_on,46,0,1,,,,,,,,0,,,70,0
38110,note_on,0,0,1,,,,,,,,0,,,79,0
38112,note_on,2,0,1,,,,,,,,0,,,75,110
38112,note_on,0,0,1,,,,,,,,0,,,79,110
38112,note_on,98,0,5,,,,,,,,2,,,51,75
38158,note_on,46,0,1,,,,,,,,0,,,75,0
38158,note_on,46,0,5,,,,,,,,2,,,51,0
38160,note_on,2,0,5,,,,,,,,2,,,50,75
38160,note_on,2,0,1,,,,,,,,0,,,70,110
38206,note_on,0,0,1,,,,,,,,0,,,79,0
38206,note_on,46,0,1,,,,,,,,0,,,70,0
38206,note_on,46,0,5,,,,,,,,2,,,50,0
38208,note_on,0,0,1,,,,,,,,0,,,79,110
38208,note_on,2,0,1,,,,,,,,0,,,75,110
38208,note_on,2,0,5,,,,,,,,2,,,51,75
38254,note_on,46,0,1,,,,,,,,0,,,75,0
38256,note_on,2,0,1,,,,,,,,0,,,70,110
38302,note_on,0,0,1,,,,,,,,0,,,79,0
38302,note_on,46,0,1,,,,,,,,0,,,70,0
38302,note_on,94,0,5,,,,,,,,2,,,51,0
38304,note_on,0,0,1,,,,,,,,0,,,79,110
38304,note_on,2,0,5,,,,,,,,2,,,39,75
38304,note_on,2,0,1,,,,,,,,0,,,75,110
38350,note_on,46,0,1,,,,,,,,0,,,75,0
38352,note_on,2,0,1,,,,,,,,0,,,70,110
38398,note_on,94,0,5,,,,,,,,2,,,39,0
38398,note_on,0,0,1,,,,,,,,0,,,79,0
38398,note_on,46,0,1,,,,,,,,0,,,70,0
38400,note_on,2,0,1,,,,,,,,0,,,84,110
38446,note_on,46,0,1,,,,,,,,0,,,84,0
38448,note_on,2,0,1,,,,,,,,0,,,72,110
38494,note_on,46,0,1,,,,,,,,0,,,72,0
38496,note_on,98,0,5,,,,,,,,2,,,52,75
38496,note_on,2,0,1,,,,,,,,0,,,84,110
38542,note_on,46,0,5,,,,,,,,2,,,52,0
38544,note_on,2,0,5,,,,,,,,2,,,50,75
38590,note_on,46,0,5,,,,,,,,2,,,50,0
38592,note_on,2,0,5,,,,,,,,2,,,52,75
38638,note_on,142,0,1,,,,,,,,0,,,84,0
38640,note_on,2,0,1,,,,,,,,0,,,72,110
38686,note_on,46,0,1,,,,,,,,0,,,72,0
38686,note_on,94,0,5,,,,,,,,2,,,52,0
38688,note_on,2,0,1,,,,,,,,0,,,84,110
38688,note_on,2,0,5,,,,,,,,2,,,40,75
38734,note_on,46,0,1,,,,,,,,0,,,84,0
38736,note_on,2,0,1,,,,,,,,0,,,72,110
38782,note_on,46,0,1,,,,,,,,0,,,72,0
38782,note_on,94,0,5,,,,,,,,2,,,40,0
38784,note_on,2,0,1,,,,,,,,0,,,84,110
38830,note_on,46,0,1,,,,,,,,0,,,84,0
38832,note_on,2,0,1,,,,,,,,0,,,72,110
38878,note_on,46,0,1,,,,,,,,0,,,72,0
38880,note_on,98,0,5,,,,,,,,2,,,52,75
38880,note_on,2,0,1,,,,,,,,0,,,84,110
38926,note_on,46,0,5,,,,,,,,2,,,52,0
38928,note_on,2,0,5,,,,,,,,2,,,50,75
38974,note_on,46,0,5,,,,,,,,2,,,50,0
38976,note_on,2,0,5,,,,,,,,2,,,52,75
39022,note_on,142,0,1,,,,,,,,0,,,84,0
39024,note_on,2,0,1,,,,,,,,0,,,72,110
39070,note_on,46,0,1,,,,,,,,0,,,72,0
39070,note_on,94,0,5,,,,,,,,2,,,52,0
39072,note_on,2,0,5,,,,,,,,2,,,40,75
39072,note_on,2,0,1,,,,,,,,0,,,84,110
39118,note_on,46,0,1,,,,,,,,0,,,84,0
39120,note_on,2,0,1,,,,,,,,0,,,72,110
39166,note_on,46,0,1,,,,,,,,0,,,72,0
39166,note_on,94,0,5,,,,,,,,2,,,40,0
39168,note_on,2,0,1,,,,,,,,0,,,77,110
39168,note_on,0,0,1,,,,,,,,0,,,81,110
39214,note_on,46,0,1,,,,,,,,0,,,77,0
39216,note_on,2,0,1,,,,,,,,0,,,72,110
39262,note_on,46,0,1,,,,,,,,0,,,72,0
39262,note_on,0,0,1,,,,,,,,0,,,81,0
39264,note_on,98,0,5,,,,,,,,2,,,53,75
39264,note_on,0,0,1,,,,,,,,0,,,81,110
39264,note_on,2,0,1,,,,,,,,0,,,77,110
39310,note_on,46,0,5,,,,,,,,2,,,53,0
39310,note_on,46,0,1,,,,,,,,0,,,77,0
39312,note_on,2,0,1,,,,,,,,0,,,72,110
39312,note_on,2,0,5,,,,,,,,2,,,52,75
39358,note_on,46,0,1,,,,,,,,0,,,72,0
39358,note_on,0,0,1,,,,,,,,0,,,81,0
39358,note_on,46,0,5,,,,,,,,2,,,52,0
39360,note_on,0,0,1,,,,,,,,0,,,81,110
39360,note_on,2,0,1,,,,,,,,0,,,77,110
39360,note_on,2,0,5,,,,,,,,2,,,53,75
39406,note_on,46,0,1,,,,,,,,0,,,77,0
39408,note_on,2,0,1,,,,,,,,0,,,72,110
39454,note_on,46,0,1,,,,,,,,0,,,72,0
39454,note_on,0,0,1,,,,,,,,0,,,81,0
39454,note_on,94,0,5,,,,,,,,2,,,53,0
39456,note_on,0,0,1,,,,,,,,0,,,81,110
39456,note_on,2,0,5,,,,,,,,2,,,41,75
39456,note_on,2,0,1,,,,,,,,0,,,77,110
39502,note_on,46,0,1,,,,,,,,0,,,77,0
39504,note_on,2,0,1,,,,,,,,0,,,72,110
39550,note_on,46,0,1,,,,,,,,0,,,72,0
39550,note_on,0,0,1,,,,,,,,0,,,81,0
39550,note_on,94,0,5,,,,,,,,2,,,41,0
39552,note_on,2,0,1,,,,,,,,0,,,86,110
39598,note_on,46,0,1,,,,,,,,0,,,86,0
39600,note_on,2,0,1,,,,,,,,0,,,74,110
39646,note_on,46,0,1,,,,,,,,0,,,74,0
39648,note_on,98,0,5,,,,,,,,2,,,54,75
39648,note_on,2,0,1,,,,,,,,0,,,86,110
39694,note_on,46,0,5,,,,,,,,2,,,54,0
39696,note_on,2,0,5,,,,,,,,2,,,52,75
39742,note_on,46,0,5,,,,,,,,2,,,52,0
39744,note_on,2,0,5,,,,,,,,2,,,54,75
39790,note_on,142,0,1,,,,,,,,0,,,86,0
39792,note_on,2,0,1,,,,,,,,0,,,74,110
39838,note_on,94,0,5,,,,,,,,2,,,54,0
39838,note_on,46,0,1,,,,,,,,0,,,74,0
39840,note_on,2,0,5,,,,,,,,2,,,42,75
39840,note_on,2,0,1,,,,,,,,0,,,86,110
39886,note_on,46,0,1,,,,,,,,0,,,86,0
39888,note_on,2,0,1,,,,,,,,0,,,74,110
39934,note_on,46,0,1,,,,,,,,0,,,74,0
39934,note_on,94,0,5,,,,,,,,2,,,42,0
39936,note_on,2,0,1,,,,,,,,0,,,86,110
39982,note_on,46,0,1,,,,,,,,0,,,86,0
39984,note_on,2,0,1,,,,,,,,0,,,74,110
40030,note_on,46,0,1,,,,,,,,0,,,74,0
40032,note_on,2,0,1,,,,,,,,0,,,86,110
40032,note_on,98,0,5,,,,,,,,2,,,54,75
40078,note_on,46,0,5,,,,,,,,2,,,54,0
40080,note_on,2,0,5,,,,,,,,2,,,52,75
40126,note_on,46,0,5,,,,,,,,2,,,52,0
40128,note_on,2,0,5,,,,,,,,2,,,54,75
40174,note_on,142,0,1,,,,,,,,0,,,86,0
40176,note_on,2,0,1,,,,,,,,0,,,74,110
40222,note_on,46,0,1,,,,,,,,0,,,74,0
40222,note_on,94,0,5,,,,,,,,2,,,54,0
40224,note_on,2,0,5,,,,,,,,2,,,42,75
40224,note_on,2,0,1,,,,,,,,0,,,86,110
40270,note_on,46,0,1,,,,,,,,0,,,86,0
40272,note_on,2,0,1,,,,,,,,0,,,74,110
40318,note_on,94,0,5,,,,,,,,2,,,42,0
40318,note_on,46,0,1,,,,,,,,0,,,74,0
40320,note_on,2,0,1,,,,,,,,0,,,79,110
40320,note_on,0,0,1,,,,,,,,0,,,82,110
40366,note_on,46,0,1,,,,,,,,0,,,79,0
40368,note_on,2,0,1,,,,,,,,0,,,74,110
40414,note_on,46,0,1,,,,,,,,0,,,74,0
40414,note_on,0,0,1,,,,,,,,0,,,82,0
40416,note_on,0,0,1,,,,,,,,0,,,82,110
40416,note_on,2,0,1,,,,,,,,0,,,79,110
40416,note_on,98,0,5,,,,,,,,2,,,55,75
40462,note_on,46,0,1,,,,,,,,0,,,79,0
40462,note_on,46,0,5,,,,,,,,2,,,55,0
40464,note_on,2,0,1,,,,,,,,0,,,74,110
40464,note_on,2,0,5,,,,,,,,2,,,54,75
40510,note_on,0,0,1,,,,,,,,0,,,82,0
40510,note_on,46,0,1,,,,,,,,0,,,74,0
40510,note_on,46,0,5,,,,,,,,2,,,54,0
40512,note_on,0,0,1,,,,,,,,0,,,82,110
40512,note_on,2,0,1,,,,,,,,0,,,79,110
40512,note_on,2,0,5,,,,,,,,2,,,55,75
40558,note_on,46,0,1,,,,,,,,0,,,79,0
40560,note_on,2,0,1,,,,,,,,0,,,74,110
40606,note_on,94,0,5,,,,,,,,2,,,55,0
40606,note_on,46,0,1,,,,,,,,0,,,74,0
40606,note_on,0,0,1,,,,,,,,0,,,82,0
40608,note_on,0,0,1,,,,,,,,0,,,82,110
40608,note_on,2,0,1,,,,,,,,0,,,79,110
40608,note_on,2,0,5,,,,,,,,2,,,43,75
40654,note_on,46,0,1,,,,,,,,0,,,79,0
40656,note_on,2,0,1,,,,,,,,0,,,74,110
40702,note_on,0,0,1,,,,,,,,0,,,82,0
40702,note_on,94,0,5,,,,,,,,2,,,43,0
40702,note_on,46,0,1,,,,,,,,0,,,74,0
40704,note_on,2,0,1,,,,,,,,0,,,87,110
40750,note_on,46,0,1,,,,,,,,0,,,87,0
40752,note_on,2,0,1,,,,,,,,0,,,75,110
40798,note_on,46,0,1,,,,,,,,0,,,75,0
40800,note_on,98,0,5,,,,,,,,2,,,55,75
40800,note_on,2,0,1,,,,,,,,0,,,87,110
40846,note_on,46,0,5,,,,,,,,2,,,55,0
40848,note_on,2,0,5,,,,,,,,2,,,53,75
40894,note_on,46,0,5,,,,,,,,2,,,53,0
40896,note_on,2,0,5,,,,,,,,2,,,55,75
40942,note_on,142,0,1,,,,,,,,0,,,87,0
40944,note_on,2,0,1,,,,,,,,0,,,75,110
40990,note_on,46,0,1,,,,,,,,0,,,75,0
40990,note_on,94,0,5,,,,,,,,2,,,55,0
40992,note_on,2,0,1,,,,,,,,0,,,87,110
40992,note_on,2,0,5,,,,,,,,2,,,43,75
41038,note_on,46,0,1,,,,,,,,0,,,87,0
41040,note_on,2,0,1,,,,,,,,0,,,75,110
41086,note_on,46,0,1,,,,,,,,0,,,75,0
41086,note_on,94,0,5,,,,,,,,2,,,43,0
41088,note_on,2,0,1,,,,,,,,0,,,87,110
41134,note_on,46,0,1,,,,,,,,0,,,87,0
41136,note_on,2,0,1,,,,,,,,0,,,75,110
41182,note_on,46,0,1,,,,,,,,0,,,75,0
41184,note_on,2,0,1,,,,,,,,0,,,87,110
41184,note_on,98,0,5,,,,,,,,2,,,55,75
41230,note_on,46,0,5,,,,,,,,2,,,55,0
41232,note_on,2,0,5,,,,,,,,2,,,53,75
41278,note_on,46,0,5,,,,,,,,2,,,53,0
41280,note_on,2,0,5,,,,,,,,2,,,55,75
41326,note_on,142,0,1,,,,,,,,0,,,87,0
41328,note_on,2,0,1,,,,,,,,0,,,86,110
41374,note_on,94,0,5,,,,,,,,2,,,55,0
41374,note_on,46,0,1,,,,,,,,0,,,86,0
41376,note_on,2,0,5,,,,,,,,2,,,51,75
41376,note_on,2,0,1,,,,,,,,0,,,84,110
41422,note_on,46,0,1,,,,,,,,0,,,84,0
41424,note_on,2,0,1,,,,,,,,0,,,82,110
41470,note_on,94,0,5,,,,,,,,2,,,51,0
41470,note_on,46,0,1,,,,,,,,0,,,82,0
41472,note_on,2,0,5,,,,,,,,2,,,41,75
41472,note_on,10592,0,3,,,,,,,,4,,,81,110
41472,note_on,10592,0,2,,,,,,,,3,,,81,110
41472,note_on,2,0,1,,,,,,,,0,,,81,110
41472,note_on,10592,0,6,,,,,,,,5,,,29,75
41566,note_on,94,0,5,,,,,,,,2,,,41,0
41566,note_on,94,0,1,,,,,,,,0,,,81,0
41566,note_on,94,0,3,,,,,,,,4,,,81,0
41566,note_on,94,0,2,,,,,,,,3,,,81,0
41566,note_on,94,0,6,,,,,,,,5,,,29,0
41568,note_on,2,0,5,,,,,,,,2,,,53,75
41568,note_on,2,0,3,,,,,,,,4,,,77,110
41568,note_on,2,0,2,,,,,,,,3,,,77,110
41568,note_on,10688,0,4,,,,,,,,1,,,72,75
41568,note_on,2,0,6,,,,,,,,5,,,41,75
41568,note_on,2,0,1,,,,,,,,0,,,77,110
41614,note_on,46,0,5,,,,,,,,2,,,53,0
41614,note_on,46,0,6,,,,,,,,5,,,41,0
41616,note_on,2,0,6,,,,,,,,5,,,39,75
41616,note_on,2,0,5,,,,,,,,2,,,51,75
41662,note_on,94,0,4,,,,,,,,1,,,72,0
41662,note_on,46,0,6,,,,,,,,5,,,39,0
41662,note_on,46,0,5,,,,,,,,2,,,51,0
41664,note_on,2,0,4,,,,,,,,1,,,72,75
41664,note_on,2,0,5,,,,,,,,2,,,53,75
41664,note_on,2,0,6,,,,,,,,5,,,41,75
41710,note_on,142,0,2,,,,,,,,3,,,77,0
41710,note_on,142,0,3,,,,,,,,4,,,77,0
41710,note_on,142,0,1,,,,,,,,0,,,77,0
41712,note_on,2,0,3,,,,,,,,4,,,65,110
41712,note_on,2,0,1,,,,,,,,0,,,65,110
41712,note_on,2,0,2,,,,,,,,3,,,65,110
41758,note_on,46,0,1,,,,,,,,0,,,65,0
41758,note_on,94,0,6,,,,,,,,5,,,41,0
41758,note_on,46,0,2,,,,,,,,3,,,65,0
41758,note_on,94,0,5,,,,,,,,2,,,53,0
41758,note_on,46,0,3,,,,,,,,4,,,65,0
41760,note_on,2,0,1,,,,,,,,0,,,77,110
41760,note_on,2,0,2,,,,,,,,3,,,77,110
41760,note_on,2,0,6,,,,,,,,5,,,29,75
41760,note_on,2,0,5,,,,,,,,2,,,41,75
41760,note_on,2,0,3,,,,,,,,4,,,77,110
41806,note_on,46,0,1,,,,,,,,0,,,77,0
41806,note_on,46,0,3,,,,,,,,4,,,77,0
41806,note_on,46,0,2,,,,,,,,3,,,77,0
41808,note_on,2,0,2,,,,,,,,3,,,65,110
41808,note_on,2,0,1,,,,,,,,0,,,65,110
41808,note_on,2,0,3,,,,,,,,4,,,65,110
41824,note_on,160,0,4,,,,,,,,1,,,72,0
41854,note_on,46,0,2,,,,,,,,3,,,65,0
41854,note_on,94,0,6,,,,,,,,5,,,29,0
41854,note_on,46,0,3,,,,,,,,4,,,65,0
41854,note_on,94,0,5,,,,,,,,2,,,41,0
41854,note_on,46,0,1,,,,,,,,0,,,65,0
41856,note_on,2,0,2,,,,,,,,3,,,77,110
41856,note_on,2,0,3,,,,,,,,4,,,77,110
41856,note_on,2,0,1,,,,,,,,0,,,77,110
41902,note_on,46,0,2,,,,,,,,3,,,77,0
41902,note_on,46,0,1,,,,,,,,0,,,77,0
41902,note_on,46,0,3,,,,,,,,4,,,77,0
41904,note_on,2,0,2,,,,,,,,3,,,65,110
41904,note_on,2,0,1,,,,,,,,0,,,65,110
41904,note_on,2,0,3,,,,,,,,4,,,65,110
41950,note_on,46,0,3,,,,,,,,4,,,65,0
41950,note_on,46,0,2,,,,,,,,3,,,65,0
41950,note_on,46,0,1,,,,,,,,0,,,65,0
41952,note_on,98,0,5,,,,,,,,2,,,53,75
41952,note_on,2,0,2,,,,,,,,3,,,77,110
41952,note_on,2,0,3,,,,,,,,4,,,77,110
41952,note_on,2,0,1,,,,,,,,0,,,77,110
41952,note_on,128,0,4,,,,,,,,1,,,72,75
41952,note_on,98,0,6,,,,,,,,5,,,41,75
41998,note_on,46,0,5,,,,,,,,2,,,53,0
41998,note_on,46,0,6,,,,,,,,5,,,41,0
42000,note_on,2,0,6,,,,,,,,5,,,39,75
42000,note_on,2,0,5,,,,,,,,2,,,51,75
42046,note_on,46,0,6,,,,,,,,5,,,39,0
42046,note_on,46,0,5,,,,,,,,2,,,51,0
42046,note_on,94,0,4,,,,,,,,1,,,72,0
42048,note_on,2,0,5,,,,,,,,2,,,53,75
42048,note_on,2,0,6,,,,,,,,5,,,41,75
42048,note_on,2,0,4,,,,,,,,1,,,72,75
42094,note_on,142,0,1,,,,,,,,0,,,77,0
42094,note_on,142,0,2,,,,,,,,3,,,77,0
42094,note_on,142,0,3,,,,,,,,4,,,77,0
42096,note_on,2,0,3,,,,,,,,4,,,65,110
42096,note_on,2,0,1,,,,,,,,0,,,65,110
42096,note_on,2,0,2,,,,,,,,3,,,65,110
42142,note_on,94,0,6,,,,,,,,5,,,41,0
42142,note_on,46,0,2,,,,,,,,3,,,65,0
42142,note_on,94,0,5,,,,,,,,2,,,53,0
42142,note_on,46,0,1,,,,,,,,0,,,65,0
42142,note_on,46,0,3,,,,,,,,4,,,65,0
42144,note_on,2,0,6,,,,,,,,5,,,29,75
42144,note_on,2,0,2,,,,,,,,3,,,75,110
42144,note_on,2,0,5,,,,,,,,2,,,41,75
42144,note_on,2,0,1,,,,,,,,0,,,75,110
42144,note_on,2,0,3,,,,,,,,4,,,75,110
42190,note_on,46,0,3,,,,,,,,4,,,75,0
42190,note_on,46,0,2,,,,,,,,3,,,75,0
42190,note_on,46,0,1,,,,,,,,0,,,75,0
42192,note_on,2,0,1,,,,,,,,0,,,65,110
42192,note_on,2,0,2,,,,,,,,3,,,65,110
42192,note_on,2,0,3,,,,,,,,4,,,65,110
42208,note_on,160,0,4,,,,,,,,1,,,72,0
42238,note_on,46,0,2,,,,,,,,3,,,65,0
42238,note_on,94,0,5,,,,,,,,2,,,41,0
42238,note_on,46,0,3,,,,,,,,4,,,65,0
42238,note_on,46,0,1,,,,,,,,0,,,65,0
42238,note_on,94,0,6,,,,,,,,5,,,29,0
42240,note_on,2,0,2,,,,,,,,3,,,75,110
42240,note_on,2,0,1,,,,,,,,0,,,75,110
42240,note_on,2,0,3,,,,,,,,4,,,75,110
42286,note_on,46,0,2,,,,,,,,3,,,75,0
42286,note_on,46,0,1,,,,,,,,0,,,75,0
42286,note_on,46,0,3,,,,,,,,4,,,75,0
42288,note_on,2,0,1,,,,,,,,0,,,65,110
42288,note_on,2,0,2,,,,,,,,3,,,65,110
42288,note_on,2,0,3,,,,,,,,4,,,65,110
42334,note_on,46,0,3,,,,,,,,4,,,65,0
42334,note_on,46,0,2,,,,,,,,3,,,65,0
42334,note_on,46,0,1,,,,,,,,0,,,65,0
42336,note_on,2,0,2,,,,,,,,3,,,75,110
42336,note_on,2,0,1,,,,,,,,0,,,75,110
42336,note_on,128,0,4,,,,,,,,1,,,72,75
42336,note_on,98,0,6,,,,,,,,5,,,41,75
42336,note_on,2,0,3,,,,,,,,4,,,75,110
42336,note_on,98,0,5,,,,,,,,2,,,53,75
42382,note_on,46,0,6,,,,,,,,5,,,41,0
42382,note_on,46,0,5,,,,,,,,2,,,53,0
42384,note_on,2,0,6,,,,,,,,5,,,39,75
42384,note_on,2,0,5,,,,,,,,2,,,51,75
42430,note_on,94,0,4,,,,,,,,1,,,72,0
42430,note_on,46,0,6,,,,,,,,5,,,39,0
42430,note_on,46,0,5,,,,,,,,2,,,51,0
42432,note_on,2,0,5,,,,,,,,2,,,53,75
42432,note_on,2,0,6,,,,,,,,5,,,41,75
42432,note_on,2,0,4,,,,,,,,1,,,72,75
42478,note_on,142,0,1,,,,,,,,0,,,75,0
42478,note_on,142,0,2,,,,,,,,3,,,75,0
42478,note_on,142,0,3,,,,,,,,4,,,75,0
42480,note_on,2,0,2,,,,,,,,3,,,65,110
42480,note_on,2,0,1,,,,,,,,0,,,65,110
42480,note_on,2,0,3,,,,,,,,4,,,65,110
42526,note_on,46,0,3,,,,,,,,4,,,65,0
42526,note_on,46,0,1,,,,,,,,0,,,65,0
42526,note_on,46,0,2,,,,,,,,3,,,65,0
42526,note_on,94,0,5,,,,,,,,2,,,53,0
42526,note_on,94,0,6,,,,,,,,5,,,41,0
42528,note_on,2,0,1,,,,,,,,0,,,74,110
42528,note_on,2,0,6,,,,,,,,5,,,29,75
42528,note_on,2,0,2,,,,,,,,3,,,74,110
42528,note_on,2,0,3,,,,,,,,4,,,74,110
42528,note_on,2,0,5,,,,,,,,2,,,41,75
42574,note_on,46,0,2,,,,,,,,3,,,74,0
42574,note_on,46,0,3,,,,,,,,4,,,74,0
42574,note_on,46,0,1,,,,,,,,0,,,74,0
42576,note_on,2,0,1,,,,,,,,0,,,65,110
42576,note_on,2,0,2,,,,,,,,3,,,65,110
42576,note_on,2,0,3,,,,,,,,4,,,65,110
42592,note_on,160,0,4,,,,,,,,1,,,72,0
42622,note_on,94,0,5,,,,,,,,2,,,41,0
42622,note_on,46,0,3,,,,,,,,4,,,65,0
42622,note_on,46,0,1,,,,,,,,0,,,65,0
42622,note_on,46,0,2,,,,,,,,3,,,65,0
42622,note_on,94,0,6,,,,,,,,5,,,29,0
42624,note_on,2,0,2,,,,,,,,3,,,74,110
42624,note_on,2,0,1,,,,,,,,0,,,74,110
42624,note_on,2,0,3,,,,,,,,4,,,74,110
42670,note_on,46,0,1,,,,,,,,0,,,74,0
42670,note_on,46,0,3,,,,,,,,4,,,74,0
42670,note_on,46,0,2,,,,,,,,3,,,74,0
42672,note_on,2,0,3,,,,,,,,4,,,65,110
42672,note_on,2,0,2,,,,,,,,3,,,65,110
42672,note_on,2,0,1,,,,,,,,0,,,65,110
42718,note_on,46,0,3,,,,,,,,4,,,65,0
42718,note_on,46,0,1,,,,,,,,0,,,65,0
42718,note_on,46,0,2,,,,,,,,3,,,65,0
42720,note_on,98,0,5,,,,,,,,2,,,53,75
42720,note_on,2,0,3,,,,,,,,4,,,74,110
42720,note_on,98,0,6,,,,,,,,5,,,41,75
42720,note_on,2,0,2,,,,,,,,3,,,74,110
42720,note_on,128,0,4,,,,,,,,1,,,70,75
42720,note_on,2,0,1,,,,,,,,0,,,74,110
42766,note_on,46,0,5,,,,,,,,2,,,53,0
42766,note_on,46,0,6,,,,,,,,5,,,41,0
42768,note_on,2,0,6,,,,,,,,5,,,39,75
42768,note_on,2,0,5,,,,,,,,2,,,51,75
42814,note_on,94,0,4,,,,,,,,1,,,70,0
42814,note_on,46,0,5,,,,,,,,2,,,51,0
42814,note_on,46,0,6,,,,,,,,5,,,39,0
42816,note_on,2,0,4,,,,,,,,1,,,70,75
42816,note_on,2,0,6,,,,,,,,5,,,41,75
42816,note_on,2,0,5,,,,,,,,2,,,53,75
42862,note_on,142,0,1,,,,,,,,0,,,74,0
42862,note_on,142,0,2,,,,,,,,3,,,74,0
42862,note_on,142,0,3,,,,,,,,4,,,74,0
42864,note_on,2,0,1,,,,,,,,0,,,65,110
42864,note_on,2,0,2,,,,,,,,3,,,65,110
42864,note_on,2,0,3,,,,,,,,4,,,65,110
42910,note_on,94,0,6,,,,,,,,5,,,41,0
42910,note_on,46,0,2,,,,,,,,3,,,65,0
42910,note_on,46,0,3,,,,,,,,4,,,65,0
42910,note_on,94,0,5,,,,,,,,2,,,53,0
42910,note_on,46,0,1,,,,,,,,0,,,65,0
42912,note_on,2,0,6,,,,,,,,5,,,29,75
42912,note_on,2,0,3,,,,,,,,4,,,72,110
42912,note_on,2,0,5,,,,,,,,2,,,41,75
42912,note_on,2,0,1,,,,,,,,0,,,72,110
42912,note_on,2,0,2,,,,,,,,3,,,72,110
42958,note_on,46,0,1,,,,,,,,0,,,72,0
42958,note_on,46,0,2,,,,,,,,3,,,72,0
42958,note_on,46,0,3,,,,,,,,4,,,72,0
42960,note_on,2,0,3,,,,,,,,4,,,65,110
42960,note_on,2,0,1,,,,,,,,0,,,65,110
42960,note_on,2,0,2,,,,,,,,3,,,65,110
42976,note_on,160,0,4,,,,,,,,1,,,70,0
43006,note_on,46,0,2,,,,,,,,3,,,65,0
43006,note_on,46,0,3,,,,,,,,4,,,65,0
43006,note_on,94,0,6,,,,,,,,5,,,29,0
43006,note_on,94,0,5,,,,,,,,2,,,41,0
43006,note_on,46,0,1,,,,,,,,0,,,65,0
43008,note_on,2,0,1,,,,,,,,0,,,72,110
43008,note_on,2,0,2,,,,,,,,3,,,72,110
43008,note_on,2,0,3,,,,,,,,4,,,72,110
43102,note_on,94,0,2,,,,,,,,3,,,72,0
43102,note_on,94,0,1,,,,,,,,0,,,72,0
43102,note_on,94,0,3,,,,,,,,4,,,72,0
43104,note_on,98,0,5,,,,,,,,2,,,53,75
43104,note_on,2,0,1,,,,,,,,0,,,65,110
43104,note_on,98,0,6,,,,,,,,5,,,41,75
43104,note_on,2,0,3,,,,,,,,4,,,65,110
43104,note_on,128,0,4,,,,,,,,1,,,69,75
43104,note_on,2,0,2,,,,,,,,3,,,65,110
43150,note_on,46,0,5,,,,,,,,2,,,53,0
43150,note_on,46,0,6,,,,,,,,5,,,41,0
43152,note_on,2,0,5,,,,,,,,2,,,51,75
43152,note_on,2,0,6,,,,,,,,5,,,39,75
43198,note_on,46,0,6,,,,,,,,5,,,39,0
43198,note_on,46,0,5,,,,,,,,2,,,51,0
43198,note_on,94,0,3,,,,,,,,4,,,65,0
43198,note_on,94,0,4,,,,,,,,1,,,69,0
43198,note_on,94,0,2,,,,,,,,3,,,65,0
43200,note_on,2,0,5,,,,,,,,2,,,53,75
43200,note_on,2,0,6,,,,,,,,5,,,41,75
43200,note_on,2,0,4,,,,,,,,1,,,69,75
43246,note_on,142,0,1,,,,,,,,0,,,65,0
43248,note_on,2,0,1,,,,,,,,0,,,77,110
43294,note_on,94,0,5,,,,,,,,2,,,53,0
43294,note_on,46,0,1,,,,,,,,0,,,77,0
43294,note_on,94,0,6,,,,,,,,5,,,41,0
43296,note_on,2,0,1,,,,,,,,0,,,89,110
43296,note_on,2,0,5,,,,,,,,2,,,41,75
43296,note_on,2,0,6,,,,,,,,5,,,29,75
43342,note_on,46,0,1,,,,,,,,0,,,89,0
43344,note_on,2,0,1,,,,,,,,0,,,77,110
43360,note_on,160,0,4,,,,,,,,1,,,69,0
43390,note_on,46,0,1,,,,,,,,0,,,77,0
43390,note_on,94,0,5,,,,,,,,2,,,41,0
43390,note_on,94,0,6,,,,,,,,5,,,29,0
43392,note_on,2,0,1,,,,,,,,0,,,89,110
43438,note_on,46,0,1,,,,,,,,0,,,89,0
43440,note_on,2,0,1,,,,,,,,0,,,77,110
43486,note_on,46,0,1,,,,,,,,0,,,77,0
43488,note_on,2,0,1,,,,,,,,0,,,89,110
43488,note_on,98,0,6,,,,,,,,5,,,41,75
43488,note_on,98,0,5,,,,,,,,2,,,53,75
43534,note_on,46,0,5,,,,,,,,2,,,53,0
43534,note_on,46,0,6,,,,,,,,5,,,41,0
43536,note_on,2,0,6,,,,,,,,5,,,39,75
43536,note_on,2,0,5,,,,,,,,2,,,51,75
43582,note_on,46,0,5,,,,,,,,2,,,51,0
43582,note_on,46,0,6,,,,,,,,5,,,39,0
43584,note_on,2,0,5,,,,,,,,2,,,53,75
43584,note_on,2,0,6,,,,,,,,5,,,41,75
43630,note_on,142,0,1,,,,,,,,0,,,89,0
43632,note_on,2,0,1,,,,,,,,0,,,77,110
43678,note_on,94,0,6,,,,,,,,5,,,41,0
43678,note_on,94,0,5,,,,,,,,2,,,53,0
43678,note_on,46,0,1,,,,,,,,0,,,77,0
43680,note_on,2,0,6,,,,,,,,5,,,29,75
43680,note_on,2,0,5,,,,,,,,2,,,41,75
43680,note_on,2,0,1,,,,,,,,0,,,87,110
43726,note_on,46,0,1,,,,,,,,0,,,87,0
43728,note_on,2,0,1,,,,,,,,0,,,77,110
43774,note_on,94,0,6,,,,,,,,5,,,29,0
43774,note_on,94,0,5,,,,,,,,2,,,41,0
43774,note_on,46,0,1,,,,,,,,0,,,77,0
43776,note_on,2,0,1,,,,,,,,0,,,87,110
43822,note_on,46,0,1,,,,,,,,0,,,87,0
43824,note_on,2,0,1,,,,,,,,0,,,77,110
43870,note_on,46,0,1,,,,,,,,0,,,77,0
43872,note_on,98,0,5,,,,,,,,2,,,53,75
43872,note_on,98,0,6,,,,,,,,5,,,41,75
43872,note_on,2,0,1,,,,,,,,0,,,87,110
43918,note_on,46,0,5,,,,,,,,2,,,53,0
43918,note_on,46,0,6,,,,,,,,5,,,41,0
43920,note_on,2,0,6,,,,,,,,5,,,39,75
43920,note_on,2,0,5,,,,,,,,2,,,51,75
43966,note_on,46,0,6,,,,,,,,5,,,39,0
43966,note_on,46,0,5,,,,,,,,2,,,51,0
43968,note_on,2,0,6,,,,,,,,5,,,41,75
43968,note_on,2,0,5,,,,,,,,2,,,53,75
44014,note_on,142,0,1,,,,,,,,0,,,87,0
44016,note_on,2,0,1,,,,,,,,0,,,77,110
44062,note_on,94,0,6,,,,,,,,5,,,41,0
44062,note_on,94,0,5,,,,,,,,2,,,53,0
44062,note_on,46,0,1,,,,,,,,0,,,77,0
44064,note_on,2,0,1,,,,,,,,0,,,86,110
44064,note_on,2,0,5,,,,,,,,2,,,41,75
44064,note_on,2,0,6,,,,,,,,5,,,29,75
44110,note_on,46,0,1,,,,,,,,0,,,86,0
44112,note_on,2,0,1,,,,,,,,0,,,77,110
44158,note_on,94,0,5,,,,,,,,2,,,41,0
44158,note_on,94,0,6,,,,,,,,5,,,29,0
44158,note_on,46,0,1,,,,,,,,0,,,77,0
44160,note_on,2,0,1,,,,,,,,0,,,86,110
44206,note_on,46,0,1,,,,,,,,0,,,86,0
44208,note_on,2,0,1,,,,,,,,0,,,77,110
44254,note_on,46,0,1,,,,,,,,0,,,77,0
44256,note_on,98,0,6,,,,,,,,5,,,41,75
44256,note_on,2,0,1,,,,,,,,0,,,86,110
44256,note_on,98,0,5,,,,,,,,2,,,53,75
44302,note_on,46,0,6,,,,,,,,5,,,41,0
44302,note_on,46,0,5,,,,,,,,2,,,53,0
44304,note_on,2,0,6,,,,,,,,5,,,39,75
44304,note_on,2,0,5,,,,,,,,2,,,51,75
44350,note_on,46,0,5,,,,,,,,2,,,51,0
44350,note_on,46,0,6,,,,,,,,5,,,39,0
44352,note_on,2,0,5,,,,,,,,2,,,53,75
44352,note_on,2,0,6,,,,,,,,5,,,41,75
44398,note_on,142,0,1,,,,,,,,0,,,86,0
44400,note_on,2,0,1,,,,,,,,0,,,77,110
44446,note_on,94,0,5,,,,,,,,2,,,53,0
44446,note_on,46,0,1,,,,,,,,0,,,77,0
44446,note_on,94,0,6,,,,,,,,5,,,41,0
44448,note_on,2,0,6,,,,,,,,5,,,29,75
44448,note_on,2,0,5,,,,,,,,2,,,41,75
44448,note_on,2,0,1,,,,,,,,0,,,84,110
44494,note_on,46,0,1,,,,,,,,0,,,84,0
44496,note_on,2,0,1,,,,,,,,0,,,77,110
44542,note_on,46,0,1,,,,,,,,0,,,77,0
44542,note_on,94,0,5,,,,,,,,2,,,41,0
44542,note_on,94,0,6,,,,,,,,5,,,29,0
44544,note_on,2,0,1,,,,,,,,0,,,84,110
44590,note_on,46,0,1,,,,,,,,0,,,84,0
44592,note_on,2,0,1,,,,,,,,0,,,77,110
44638,note_on,46,0,1,,,,,,,,0,,,77,0
44640,note_on,2,0,1,,,,,,,,0,,,84,110
44640,note_on,98,0,6,,,,,,,,5,,,41,75
44640,note_on,98,0,5,,,,,,,,2,,,53,75
44686,note_on,46,0,6,,,,,,,,5,,,41,0
44686,note_on,46,0,5,,,,,,,,2,,,53,0
44688,note_on,2,0,6,,,,,,,,5,,,39,75
44688,note_on,2,0,5,,,,,,,,2,,,51,75
44734,note_on,46,0,6,,,,,,,,5,,,39,0
44734,note_on,46,0,5,,,,,,,,2,,,51,0
44736,note_on,2,0,5,,,,,,,,2,,,53,75
44736,note_on,2,0,6,,,,,,,,5,,,41,75
44782,note_on,142,0,1,,,,,,,,0,,,84,0
44784,note_on,2,0,1,,,,,,,,0,,,77,110
44830,note_on,94,0,5,,,,,,,,2,,,53,0
44830,note_on,46,0,1,,,,,,,,0,,,77,0
44830,note_on,94,0,6,,,,,,,,5,,,41,0
44832,note_on,2,0,5,,,,,,,,2,,,41,75
44832,note_on,2,0,1,,,,,,,,0,,,81,110
44832,note_on,2,0,6,,,,,,,,5,,,29,75
44878,note_on,46,0,1,,,,,,,,0,,,81,0
44880,note_on,2,0,1,,,,,,,,0,,,84,110
44926,note_on,46,0,1,,,,,,,,0,,,84,0
44926,note_on,94,0,6,,,,,,,,5,,,29,0
44926,note_on,94,0,5,,,,,,,,2,,,41,0
44928,note_on,2,0,1,,,,,,,,0,,,86,110
44974,note_on,46,0,1,,,,,,,,0,,,86,0
44976,note_on,2,0,1,,,,,,,,0,,,87,110
45022,note_on,46,0,1,,,,,,,,0,,,87,0
45024,note_on,98,0,5,,,,,,,,2,,,58,75
45024,note_on,98,0,6,,,,,,,,5,,,46,75
45024,note_on,2,0,1,,,,,,,,0,,,89,110
45070,note_on,46,0,5,,,,,,,,2,,,58,0
45070,note_on,46,0,6,,,,,,,,5,,,46,0
45072,note_on,2,0,6,,,,,,,,5,,,45,75
45072,note_on,2,0,5,,,,,,,,2,,,57,75
45118,note_on,46,0,6,,,,,,,,5,,,45,0
45118,note_on,46,0,5,,,,,,,,2,,,57,0
45120,note_on,2,0,5,,,,,,,,2,,,58,75
45120,note_on,2,0,6,,,,,,,,5,,,46,75
45166,note_on,142,0,1,,,,,,,,0,,,89,0
45168,note_on,2,0,1,,,,,,,,0,,,82,110
45214,note_on,94,0,5,,,,,,,,2,,,58,0
45214,note_on,94,0,6,,,,,,,,5,,,46,0
45214,note_on,46,0,1,,,,,,,,0,,,82,0
45216,note_on,2,0,6,,,,,,,,5,,,34,75
45216,note_on,2,0,1,,,,,,,,0,,,81,110
45216,note_on,2,0,5,,,,,,,,2,,,46,75
45262,note_on,46,0,1,,,,,,,,0,,,81,0
45264,note_on,2,0,1,,,,,,,,0,,,79,110
45310,note_on,46,0,1,,,,,,,,0,,,79,0
45310,note_on,94,0,6,,,,,,,,5,,,34,0
45310,note_on,94,0,5,,,,,,,,2,,,46,0
45312,note_on,2,0,1,,,,,,,,0,,,77,110
45358,note_on,46,0,1,,,,,,,,0,,,77,0
45360,note_on,2,0,1,,,,,,,,0,,,81,110
45406,note_on,46,0,1,,,,,,,,0,,,81,0
45408,note_on,98,0,5,,,,,,,,2,,,58,75
45408,note_on,2,0,1,,,,,,,,0,,,82,110
45408,note_on,98,0,6,,,,,,,,5,,,46,75
45454,note_on,46,0,6,,,,,,,,5,,,46,0
45454,note_on,46,0,5,,,,,,,,2,,,58,0
45456,note_on,2,0,5,,,,,,,,2,,,57,75
45456,note_on,2,0,6,,,,,,,,5,,,45,75
45502,note_on,46,0,5,,,,,,,,2,,,57,0
45502,note_on,46,0,6,,,,,,,,5,,,45,0
45504,note_on,2,0,6,,,,,,,,5,,,46,75
45504,note_on,2,0,5,,,,,,,,2,,,58,75
45550,note_on,142,0,1,,,,,,,,0,,,82,0
45552,note_on,2,0,1,,,,,,,,0,,,79,110
45598,note_on,94,0,5,,,,,,,,2,,,58,0
45598,note_on,46,0,1,,,,,,,,0,,,79,0
45598,note_on,94,0,6,,,,,,,,5,,,46,0
45600,note_on,2,0,5,,,,,,,,2,,,46,75
45600,note_on,2,0,6,,,,,,,,5,,,34,75
45600,note_on,2,0,1,,,,,,,,0,,,77,110
45646,note_on,46,0,1,,,,,,,,0,,,77,0
45648,note_on,2,0,1,,,,,,,,0,,,75,110
45694,note_on,94,0,5,,,,,,,,2,,,46,0
45694,note_on,94,0,6,,,,,,,,5,,,34,0
45694,note_on,46,0,1,,,,,,,,0,,,75,0
45696,note_on,2,0,1,,,,,,,,0,,,74,110
45742,note_on,46,0,1,,,,,,,,0,,,74,0
45744,note_on,2,0,1,,,,,,,,0,,,77,110
45790,note_on,46,0,1,,,,,,,,0,,,77,0
45792,note_on,2,0,1,,,,,,,,0,,,82,110
45792,note_on,2432,0,4,,,,,,,,1,,,58,75
45792,note_on,98,0,5,,,,,,,,2,,,46,75
45792,note_on,98,0,6,,,,,,,,5,,,34,75
45838,note_on,46,0,1,,,,,,,,0,,,82,0
45840,note_on,2,0,1,,,,,,,,0,,,70,110
45886,note_on,46,0,1,,,,,,,,0,,,70,0
45886,note_on,94,0,5,,,,,,,,2,,,46,0
45886,note_on,94,0,4,,,,,,,,1,,,58,0
45886,note_on,94,0,6,,,,,,,,5,,,34,0
45888,note_on,2,0,1,,,,,,,,0,,,72,110
45888,note_on,2,0,6,,,,,,,,5,,,41,75
45888,note_on,2,0,5,,,,,,,,2,,,53,75
45888,note_on,2,0,4,,,,,,,,1,,,65,75
45910,note_on,22,0,1,,,,,,,,0,,,72,0
45912,note_on,2,0,1,,,,,,,,0,,,74,110
45934,note_on,22,0,1,,,,,,,,0,,,74,0
45936,note_on,2,0,1,,,,,,,,0,,,72,110
45982,note_on,94,0,5,,,,,,,,2,,,53,0
45982,note_on,94,0,6,,,,,,,,5,,,41,0
45982,note_on,94,0,4,,,,,,,,1,,,65,0
45984,note_on,2,0,5,,,,,,,,2,,,41,75
45984,note_on,2,0,6,,,,,,,,5,,,29,75
45984,note_on,2,0,4,,,,,,,,1,,,53,75
46030,note_on,94,0,1,,,,,,,,0,,,72,0
46032,note_on,2,0,1,,,,,,,,0,,,70,110
46078,note_on,94,0,4,,,,,,,,1,,,53,0
46078,note_on,94,0,5,,,,,,,,2,,,41,0
46078,note_on,46,0,1,,,,,,,,0,,,70,0
46078,note_on,94,0,6,,,,,,,,5,,,29,0
46080,note_on,2882,0,2,,,,,,,,3,,,70,110
46080,note_on,2,0,6,,,,,,,,5,,,34,75
46080,note_on,2882,0,3,,,,,,,,4,,,70,110
46080,note_on,2,0,5,,,,,,,,2,,,46,75
46080,note_on,2,0,1,,,,,,,,0,,,70,110
46080,note_on,2,0,4,,,,,,,,1,,,62,75
46174,note_on,94,0,5,,,,,,,,2,,,46,0
46174,note_on,94,0,6,,,,,,,,5,,,34,0
46174,note_on,94,0,4,,,,,,,,1,,,62,0
46176,note_on,2,0,5,,,,,,,,2,,,58,75
46176,note_on,2,0,6,,,,,,,,5,,,46,75
46176,note_on,2,0,4,,,,,,,,1,,,62,75
46222,note_on,46,0,4,,,,,,,,1,,,62,0
46222,note_on,46,0,5,,,,,,,,2,,,58,0
46222,note_on,46,0,6,,,,,,,,5,,,46,0
46224,note_on,2,0,4,,,,,,,,1,,,60,75
46224,note_on,2,0,6,,,,,,,,5,,,45,75
46224,note_on,2,0,5,,,,,,,,2,,,57,75
46270,note_on,46,0,5,,,,,,,,2,,,57,0
46270,note_on,46,0,6,,,,,,,,5,,,45,0
46270,note_on,46,0,4,,,,,,,,1,,,60,0
46272,note_on,2,0,6,,,,,,,,5,,,46,75
46272,note_on,2,0,4,,,,,,,,1,,,62,75
46272,note_on,2,0,5,,,,,,,,2,,,58,75
46318,note_on,238,0,3,,,,,,,,4,,,70,0
46318,note_on,238,0,1,,,,,,,,0,,,70,0
46318,note_on,238,0,2,,,,,,,,3,,,70,0
46320,note_on,2,0,3,,,,,,,,4,,,70,110
46320,note_on,2,0,2,,,,,,,,3,,,70,110
46320,note_on,2,0,1,,,,,,,,0,,,70,110
46366,note_on,46,0,1,,,,,,,,0,,,70,0
46366,note_on,46,0,3,,,,,,,,4,,,70,0
46366,note_on,46,0,2,,,,,,,,3,,,70,0
46366,note_on,94,0,5,,,,,,,,2,,,58,0
46366,note_on,94,0,6,,,,,,,,5,,,46,0
46366,note_on,94,0,4,,,,,,,,1,,,62,0
46368,note_on,2,0,5,,,,,,,,2,,,46,75
46368,note_on,2,0,3,,,,,,,,4,,,82,110
46368,note_on,2,0,1,,,,,,,,0,,,82,110
46368,note_on,2,0,6,,,,,,,,5,,,34,75
46368,note_on,2,0,2,,,,,,,,3,,,82,110
46368,note_on,2,0,4,,,,,,,,1,,,62,75
46414,note_on,46,0,3,,,,,,,,4,,,82,0
46414,note_on,46,0,2,,,,,,,,3,,,82,0
46414,note_on,46,0,1,,,,,,,,0,,,82,0
46416,note_on,2,0,2,,,,,,,,3,,,70,110
46416,note_on,2,0,3,,,,,,,,4,,,70,110
46416,note_on,2,0,1,,,,,,,,0,,,70,110
46462,note_on,46,0,3,,,,,,,,4,,,70,0
46462,note_on,46,0,2,,,,,,,,3,,,70,0
46462,note_on,94,0,6,,,,,,,,5,,,34,0
46462,note_on,94,0,5,,,,,,,,2,,,46,0
46462,note_on,46,0,1,,,,,,,,0,,,70,0
46462,note_on,94,0,4,,,,,,,,1,,,62,0
46464,note_on,2,0,1,,,,,,,,0,,,82,110
46464,note_on,2,0,3,,,,,,,,4,,,82,110
46464,note_on,2,0,2,,,,,,,,3,,,82,110
46464,note_on,2,0,6,,,,,,,,5,,,34,75
46464,note_on,2,0,5,,,,,,,,2,,,46,75
46510,note_on,46,0,3,,,,,,,,4,,,82,0
46510,note_on,46,0,1,,,,,,,,0,,,82,0
46510,note_on,46,0,2,,,,,,,,3,,,82,0
46512,note_on,2,0,1,,,,,,,,0,,,70,110
46512,note_on,2,0,2,,,,,,,,3,,,70,110
46512,note_on,2,0,3,,,,,,,,4,,,70,110
46558,note_on,94,0,5,,,,,,,,2,,,46,0
46558,note_on,94,0,6,,,,,,,,5,,,34,0
46558,note_on,46,0,3,,,,,,,,4,,,70,0
46558,note_on,46,0,1,,,,,,,,0,,,70,0
46558,note_on,46,0,2,,,,,,,,3,,,70,0
46560,note_on,2,0,3,,,,,,,,4,,,82,110
46560,note_on,98,0,4,,,,,,,,1,,,62,75
46560,note_on,2,0,6,,,,,,,,5,,,46,75
46560,note_on,2,0,1,,,,,,,,0,,,82,110
46560,note_on,2,0,5,,,,,,,,2,,,58,75
46560,note_on,2,0,2,,,,,,,,3,,,82,110
46606,note_on,46,0,5,,,,,,,,2,,,58,0
46606,note_on,46,0,6,,,,,,,,5,,,46,0
46608,note_on,2,0,6,,,,,,,,5,,,45,75
46608,note_on,2,0,5,,,,,,,,2,,,57,75
46654,note_on,46,0,6,,,,,,,,5,,,45,0
46654,note_on,94,0,4,,,,,,,,1,,,62,0
46654,note_on,46,0,5,,,,,,,,2,,,57,0
46656,note_on,2,0,6,,,,,,,,5,,,46,75
46656,note_on,2,0,4,,,,,,,,1,,,62,75
46656,note_on,2,0,5,,,,,,,,2,,,58,75
46702,note_on,142,0,2,,,,,,,,3,,,82,0
46702,note_on,142,0,1,,,,,,,,0,,,82,0
46702,note_on,142,0,3,,,,,,,,4,,,82,0
46704,note_on,2,0,1,,,,,,,,0,,,70,110
46704,note_on,2,0,2,,,,,,,,3,,,70,110
46704,note_on,2,0,3,,,,,,,,4,,,70,110
46750,note_on,46,0,3,,,,,,,,4,,,70,0
46750,note_on,94,0,6,,,,,,,,5,,,46,0
46750,note_on,46,0,2,,,,,,,,3,,,70,0
46750,note_on,94,0,5,,,,,,,,2,,,58,0
46750,note_on,46,0,1,,,,,,,,0,,,70,0
46752,note_on,2,0,6,,,,,,,,5,,,34,75
46752,note_on,2,0,5,,,,,,,,2,,,46,75
46752,note_on,2,0,1,,,,,,,,0,,,80,110
46752,note_on,2,0,2,,,,,,,,3,,,80,110
46752,note_on,2,0,3,,,,,,,,4,,,80,110
46798,note_on,46,0,2,,,,,,,,3,,,80,0
46798,note_on,46,0,3,,,,,,,,4,,,80,0
46798,note_on,46,0,1,,,,,,,,0,,,80,0
46800,note_on,2,0,2,,,,,,,,3,,,70,110
46800,note_on,2,0,3,,,,,,,,4,,,70,110
46800,note_on,2,0,1,,,,,,,,0,,,70,110
46816,note_on,160,0,4,,,,,,,,1,,,62,0
46846,note_on,94,0,6,,,,,,,,5,,,34,0
46846,note_on,46,0,3,,,,,,,,4,,,70,0
46846,note_on,46,0,2,,,,,,,,3,,,70,0
46846,note_on,94,0,5,,,,,,,,2,,,46,0
46846,note_on,46,0,1,,,,,,,,0,,,70,0
46848,note_on,2,0,6,,,,,,,,5,,,34,75
46848,note_on,2,0,1,,,,,,,,0,,,80,110
46848,note_on,2,0,5,,,,,,,,2,,,46,75
46848,note_on,2,0,3,,,,,,,,4,,,80,110
46848,note_on,2,0,2,,,,,,,,3,,,80,110
46894,note_on,46,0,1,,,,,,,,0,,,80,0
46894,note_on,46,0,3,,,,,,,,4,,,80,0
46894,note_on,46,0,2,,,,,,,,3,,,80,0
46896,note_on,2,0,1,,,,,,,,0,,,70,110
46896,note_on,2,0,2,,,,,,,,3,,,70,110
46896,note_on,2,0,3,,,,,,,,4,,,70,110
46942,note_on,94,0,5,,,,,,,,2,,,46,0
46942,note_on,46,0,2,,,,,,,,3,,,70,0
46942,note_on,46,0,3,,,,,,,,4,,,70,0
46942,note_on,94,0,6,,,,,,,,5,,,34,0
46942,note_on,46,0,1,,,,,,,,0,,,70,0
46944,note_on,2,0,2,,,,,,,,3,,,80,110
46944,note_on,2,0,5,,,,,,,,2,,,58,75
46944,note_on,2,0,3,,,,,,,,4,,,80,110
46944,note_on,2,0,1,,,,,,,,0,,,80,110
46944,note_on,2,0,6,,,,,,,,5,,,46,75
46944,note_on,128,0,4,,,,,,,,1,,,65,75
46990,note_on,46,0,6,,,,,,,,5,,,46,0
46990,note_on,46,0,5,,,,,,,,2,,,58,0
46992,note_on,2,0,6,,,,,,,,5,,,44,75
46992,note_on,2,0,5,,,,,,,,2,,,56,75
47038,note_on,46,0,5,,,,,,,,2,,,56,0
47038,note_on,94,0,4,,,,,,,,1,,,65,0
47038,note_on,46,0,6,,,,,,,,5,,,44,0
47040,note_on,2,0,4,,,,,,,,1,,,65,75
47040,note_on,2,0,6,,,,,,,,5,,,46,75
47040,note_on,2,0,5,,,,,,,,2,,,58,75
47086,note_on,142,0,3,,,,,,,,4,,,80,0
47086,note_on,142,0,2,,,,,,,,3,,,80,0
47086,note_on,142,0,1,,,,,,,,0,,,80,0
47088,note_on,2,0,3,,,,,,,,4,,,70,110
47088,note_on,2,0,2,,,,,,,,3,,,70,110
47088,note_on,2,0,1,,,,,,,,0,,,70,110
47134,note_on,94,0,5,,,,,,,,2,,,58,0
47134,note_on,46,0,2,,,,,,,,3,,,70,0
47134,note_on,46,0,1,,,,,,,,0,,,70,0
47134,note_on,46,0,3,,,,,,,,4,,,70,0
47134,note_on,94,0,6,,,,,,,,5,,,46,0
47136,note_on,2,0,1,,,,,,,,0,,,79,110
47136,note_on,2,0,5,,,,,,,,2,,,46,75
47136,note_on,2,0,3,,,,,,,,4,,,79,110
47136,note_on,2,0,6,,,,,,,,5,,,34,75
47136,note_on,2,0,2,,,,,,,,3,,,79,110
47182,note_on,46,0,3,,,,,,,,4,,,79,0
47182,note_on,46,0,2,,,,,,,,3,,,79,0
47182,note_on,46,0,1,,,,,,,,0,,,79,0
47184,note_on,2,0,2,,,,,,,,3,,,70,110
47184,note_on,2,0,1,,,,,,,,0,,,70,110
47184,note_on,2,0,3,,,,,,,,4,,,70,110
47200,note_on,160,0,4,,,,,,,,1,,,65,0
47230,note_on,46,0,1,,,,,,,,0,,,70,0
47230,note_on,94,0,6,,,,,,,,5,,,34,0
47230,note_on,46,0,2,,,,,,,,3,,,70,0
47230,note_on,94,0,5,,,,,,,,2,,,46,0
47230,note_on,46,0,3,,,,,,,,4,,,70,0
47232,note_on,2,0,2,,,,,,,,3,,,79,110
47232,note_on,2,0,3,,,,,,,,4,,,79,110
47232,note_on,2,0,6,,,,,,,,5,,,34,75
47232,note_on,2,0,1,,,,,,,,0,,,79,110
47232,note_on,2,0,5,,,,,,,,2,,,46,75
47278,note_on,46,0,1,,,,,,,,0,,,79,0
47278,note_on,46,0,3,,,,,,,,4,,,79,0
47278,note_on,46,0,2,,,,,,,,3,,,79,0
47280,note_on,2,0,3,,,,,,,,4,,,70,110
47280,note_on,2,0,1,,,,,,,,0,,,70,110
47280,note_on,2,0,2,,,,,,,,3,,,70,110
47326,note_on,46,0,3,,,,,,,,4,,,70,0
47326,note_on,94,0,6,,,,,,,,5,,,34,0
47326,note_on,94,0,5,,,,,,,,2,,,46,0
47326,note_on,46,0,1,,,,,,,,0,,,70,0
47326,note_on,46,0,2,,,,,,,,3,,,70,0
47328,note_on,2,0,6,,,,,,,,5,,,46,75
47328,note_on,128,0,4,,,,,,,,1,,,63,75
47328,note_on,2,0,1,,,,,,,,0,,,79,110
47328,note_on,2,0,5,,,,,,,,2,,,58,75
47328,note_on,2,0,3,,,,,,,,4,,,79,110
47328,note_on,2,0,2,,,,,,,,3,,,79,110
47374,note_on,46,0,5,,,,,,,,2,,,58,0
47374,note_on,46,0,6,,,,,,,,5,,,46,0
47376,note_on,2,0,6,,,,,,,,5,,,44,75
47376,note_on,2,0,5,,,,,,,,2,,,56,75
47422,note_on,94,0,4,,,,,,,,1,,,63,0
47422,note_on,46,0,6,,,,,,,,5,,,44,0
47422,note_on,46,0,5,,,,,,,,2,,,56,0
47424,note_on,2,0,5,,,,,,,,2,,,58,75
47424,note_on,2,0,4,,,,,,,,1,,,63,75
47424,note_on,2,0,6,,,,,,,,5,,,46,75
47470,note_on,142,0,3,,,,,,,,4,,,79,0
47470,note_on,142,0,2,,,,,,,,3,,,79,0
47470,note_on,142,0,1,,,,,,,,0,,,79,0
47472,note_on,2,0,2,,,,,,,,3,,,70,110
47472,note_on,2,0,1,,,,,,,,0,,,70,110
47472,note_on,2,0,3,,,,,,,,4,,,70,110
47518,note_on,46,0,1,,,,,,,,0,,,70,0
47518,note_on,46,0,3,,,,,,,,4,,,70,0
47518,note_on,94,0,5,,,,,,,,2,,,58,0
47518,note_on,94,0,6,,,,,,,,5,,,46,0
47518,note_on,46,0,2,,,,,,,,3,,,70,0
47520,note_on,2,0,3,,,,,,,,4,,,77,110
47520,note_on,2,0,1,,,,,,,,0,,,77,110
47520,note_on,2,0,6,,,,,,,,5,,,34,75
47520,note_on,2,0,2,,,,,,,,3,,,77,110
47520,note_on,2,0,5,,,,,,,,2,,,46,75
47566,note_on,46,0,1,,,,,,,,0,,,77,0
47566,note_on,46,0,2,,,,,,,,3,,,77,0
47566,note_on,46,0,3,,,,,,,,4,,,77,0
47568,note_on,2,0,1,,,,,,,,0,,,70,110
47568,note_on,2,0,3,,,,,,,,4,,,70,110
47568,note_on,2,0,2,,,,,,,,3,,,70,110
47584,note_on,160,0,4,,,,,,,,1,,,63,0
47614,note_on,46,0,3,,,,,,,,4,,,70,0
47614,note_on,46,0,2,,,,,,,,3,,,70,0
47614,note_on,94,0,6,,,,,,,,5,,,34,0
47614,note_on,94,0,5,,,,,,,,2,,,46,0
47614,note_on,46,0,1,,,,,,,,0,,,70,0
47616,note_on,2,0,6,,,,,,,,5,,,34,75
47616,note_on,2,0,3,,,,,,,,4,,,77,110
47616,note_on,2,0,2,,,,,,,,3,,,77,110
47616,note_on,2,0,1,,,,,,,,0,,,77,110
47616,note_on,2,0,5,,,,,,,,2,,,46,75
47662,note_on,46,0,3,,,,,,,,4,,,77,0
47662,note_on,46,0,1,,,,,,,,0,,,77,0
47662,note_on,46,0,2,,,,,,,,3,,,77,0
47664,note_on,2,0,2,,,,,,,,3,,,70,110
47664,note_on,2,0,1,,,,,,,,0,,,70,110
47664,note_on,2,0,3,,,,,,,,4,,,70,110
47710,note_on,46,0,1,,,,,,,,0,,,70,0
47710,note_on,94,0,5,,,,,,,,2,,,46,0
47710,note_on,94,0,6,,,,,,,,5,,,34,0
47710,note_on,46,0,2,,,,,,,,3,,,70,0
47710,note_on,46,0,3,,,,,,,,4,,,70,0
47712,note_on,2,0,1,,,,,,,,0,,,77,110
47712,note_on,2,0,3,,,,,,,,4,,,77,110
47712,note_on,2,0,2,,,,,,,,3,,,77,110
47712,note_on,2,0,5,,,,,,,,2,,,58,75
47712,note_on,2,0,6,,,,,,,,5,,,46,75
47712,note_on,128,0,4,,,,,,,,1,,,62,75
47758,note_on,46,0,5,,,,,,,,2,,,58,0
47758,note_on,46,0,6,,,,,,,,5,,,46,0
47760,note_on,2,0,5,,,,,,,,2,,,57,75
47760,note_on,2,0,6,,,,,,,,5,,,45,75
47806,note_on,46,0,5,,,,,,,,2,,,57,0
47806,note_on,94,0,4,,,,,,,,1,,,62,0
47806,note_on,46,0,6,,,,,,,,5,,,45,0
47808,note_on,2,0,5,,,,,,,,2,,,58,75
47808,note_on,2,0,4,,,,,,,,1,,,62,75
47808,note_on,2,0,6,,,,,,,,5,,,46,75
47854,note_on,142,0,2,,,,,,,,3,,,77,0
47854,note_on,142,0,3,,,,,,,,4,,,77,0
47854,note_on,142,0,1,,,,,,,,0,,,77,0
47856,note_on,2,0,1,,,,,,,,0,,,70,110
47856,note_on,2,0,2,,,,,,,,3,,,70,110
47856,note_on,2,0,3,,,,,,,,4,,,70,110
47902,note_on,46,0,1,,,,,,,,0,,,70,0
47902,note_on,46,0,2,,,,,,,,3,,,70,0
47902,note_on,94,0,5,,,,,,,,2,,,58,0
47902,note_on,94,0,6,,,,,,,,5,,,46,0
47902,note_on,46,0,3,,,,,,,,4,,,70,0
47904,note_on,2,0,2,,,,,,,,3,,,74,110
47904,note_on,2,0,6,,,,,,,,5,,,34,75
47904,note_on,2,0,3,,,,,,,,4,,,74,110
47904,note_on,2,0,1,,,,,,,,0,,,74,110
47904,note_on,2,0,5,,,,,,,,2,,,46,75
47950,note_on,46,0,3,,,,,,,,4,,,74,0
47950,note_on,46,0,1,,,,,,,,0,,,74,0
47950,note_on,46,0,2,,,,,,,,3,,,74,0
47952,note_on,2,0,3,,,,,,,,4,,,77,110
47952,note_on,2,0,1,,,,,,,,0,,,77,110
47952,note_on,2,0,2,,,,,,,,3,,,77,110
47968,note_on,160,0,4,,,,,,,,1,,,62,0
47998,note_on,94,0,5,,,,,,,,2,,,46,0
47998,note_on,46,0,3,,,,,,,,4,,,77,0
47998,note_on,94,0,6,,,,,,,,5,,,34,0
47998,note_on,46,0,1,,,,,,,,0,,,77,0
47998,note_on,46,0,2,,,,,,,,3,,,77,0
48000,note_on,2,0,2,,,,,,,,3,,,82,110
48000,note_on,2,0,5,,,,,,,,2,,,58,75
48000,note_on,2,0,6,,,,,,,,5,,,46,75
48000,note_on,2,0,3,,,,,,,,4,,,82,110
48000,note_on,2,0,1,,,,,,,,0,,,82,110
48000,note_on,32,0,4,,,,,,,,1,,,74,75
48142,note_on,142,0,6,,,,,,,,5,,,46,0
48142,note_on,142,0,3,,,,,,,,4,,,82,0
48142,note_on,142,0,1,,,,,,,,0,,,82,0
48142,note_on,142,0,5,,,,,,,,2,,,58,0
48142,note_on,142,0,2,,,,,,,,3,,,82,0
48142,note_on,142,0,4,,,,,,,,1,,,74,0
48144,note_on,2,0,4,,,,,,,,1,,,74,75
48144,note_on,2,0,5,,,,,,,,2,,,58,75
48144,note_on,2,0,6,,,,,,,,5,,,46,75
48144,note_on,2,0,3,,,,,,,,4,,,70,110
48144,note_on,2,0,2,,,,,,,,3,,,70,110
48144,note_on,2,0,1,,,,,,,,0,,,70,110
48190,note_on,46,0,5,,,,,,,,2,,,58,0
48190,note_on,46,0,1,,,,,,,,0,,,70,0
48190,note_on,46,0,2,,,,,,,,3,,,70,0
48190,note_on,46,0,6,,,,,,,,5,,,46,0
48190,note_on,46,0,3,,,,,,,,4,,,70,0
48190,note_on,46,0,4,,,,,,,,1,,,74,0
48192,note_on,2,0,6,,,,,,,,5,,,45,75
48192,note_on,2,0,2,,,,,,,,3,,,82,110
48192,note_on,2,0,3,,,,,,,,4,,,82,110
48192,note_on,2,0,4,,,,,,,,1,,,72,75
48192,note_on,2,0,5,,,,,,,,2,,,57,75
48192,note_on,2,0,1,,,,,,,,0,,,82,110
48334,note_on,142,0,6,,,,,,,,5,,,45,0
48334,note_on,142,0,1,,,,,,,,0,,,82,0
48334,note_on,142,0,5,,,,,,,,2,,,57,0
48334,note_on,142,0,4,,,,,,,,1,,,72,0
48334,note_on,142,0,3,,,,,,,,4,,,82,0
48334,note_on,142,0,2,,,,,,,,3,,,82,0
48336,note_on,2,0,5,,,,,,,,2,,,57,75
48336,note_on,2,0,6,,,,,,,,5,,,45,75
48336,note_on,2,0,4,,,,,,,,1,,,72,75
48336,note_on,2,0,3,,,,,,,,4,,,70,110
48336,note_on,2,0,1,,,,,,,,0,,,70,110
48336,note_on,2,0,2,,,,,,,,3,,,70,110
48382,note_on,46,0,3,,,,,,,,4,,,70,0
48382,note_on,46,0,5,,,,,,,,2,,,57,0
48382,note_on,46,0,1,,,,,,,,0,,,70,0
48382,note_on,46,0,4,,,,,,,,1,,,72,0
48382,note_on,46,0,2,,,,,,,,3,,,70,0
48382,note_on,46,0,6,,,,,,,,5,,,45,0
48384,note_on,2,0,1,,,,,,,,0,,,82,110
48384,note_on,2,0,6,,,,,,,,5,,,43,75
48384,note_on,2,0,2,,,,,,,,3,,,82,110
48384,note_on,2,0,3,,,,,,,,4,,,82,110
48384,note_on,2,0,4,,,,,,,,1,,,70,75
48384,note_on,2,0,5,,,,,,,,2,,,55,75
48526,note_on,142,0,1,,,,,,,,0,,,82,0
48526,note_on,142,0,6,,,,,,,,5,,,43,0
48526,note_on,142,0,4,,,,,,,,1,,,70,0
48526,note_on,142,0,3,,,,,,,,4,,,82,0
48526,note_on,142,0,2,,,,,,,,3,,,82,0
48526,note_on,142,0,5,,,,,,,,2,,,55,0
48528,note_on,2,0,3,,,,,,,,4,,,70,110
48528,note_on,2,0,4,,,,,,,,1,,,70,75
48528,note_on,2,0,5,,,,,,,,2,,,55,75
48528,note_on,2,0,1,,,,,,,,0,,,70,110
48528,note_on,2,0,6,,,,,,,,5,,,43,75
48528,note_on,2,0,2,,,,,,,,3,,,70,110
48574,note_on,46,0,1,,,,,,,,0,,,70,0
48574,note_on,46,0,6,,,,,,,,5,,,43,0
48574,note_on,46,0,5,,,,,,,,2,,,55,0
48574,note_on,46,0,2,,,,,,,,3,,,70,0
48574,note_on,46,0,3,,,,,,,,4,,,70,0
48574,note_on,46,0,4,,,,,,,,1,,,70,0
48576,note_on,2,0,1,,,,,,,,0,,,82,110
48576,note_on,2,0,5,,,,,,,,2,,,53,75
48576,note_on,2,0,2,,,,,,,,3,,,82,110
48576,note_on,2,0,6,,,,,,,,5,,,41,75
48576,note_on,2,0,3,,,,,,,,4,,,82,110
48576,note_on,2,0,4,,,,,,,,1,,,69,75
48718,note_on,142,0,5,,,,,,,,2,,,53,0
48718,note_on,142,0,1,,,,,,,,0,,,82,0
48718,note_on,142,0,3,,,,,,,,4,,,82,0
48718,note_on,142,0,2,,,,,,,,3,,,82,0
48718,note_on,142,0,4,,,,,,,,1,,,69,0
48718,note_on,142,0,6,,,,,,,,5,,,41,0
48720,note_on,2,0,5,,,,,,,,2,,,51,75
48720,note_on,2,0,4,,,,,,,,1,,,67,75
48720,note_on,2,0,6,,,,,,,,5,,,39,75
48720,note_on,2,0,2,,,,,,,,3,,,70,110
48720,note_on,2,0,1,,,,,,,,0,,,70,110
48720,note_on,2,0,3,,,,,,,,4,,,70,110
48766,note_on,46,0,5,,,,,,,,2,,,51,0
48766,note_on,46,0,6,,,,,,,,5,,,39,0
48766,note_on,46,0,2,,,,,,,,3,,,70,0
48766,note_on,46,0,4,,,,,,,,1,,,67,0
48766,note_on,46,0,1,,,,,,,,0,,,70,0
48766,note_on,46,0,3,,,,,,,,4,,,70,0
48768,note_on,2,0,3,,,,,,,,4,,,82,110
48768,note_on,2,0,6,,,,,,,,5,,,38,75
48768,note_on,2,0,1,,,,,,,,0,,,82,110
48768,note_on,2,0,2,,,,,,,,3,,,82,110
48768,note_on,2,0,5,,,,,,,,2,,,50,75
48768,note_on,2,0,4,,,,,,,,1,,,65,75
48862,note_on,94,0,2,,,,,,,,3,,,82,0
48862,note_on,94,0,6,,,,,,,,5,,,38,0
48862,note_on,94,0,5,,,,,,,,2,,,50,0
48862,note_on,94,0,3,,,,,,,,4,,,82,0
48862,note_on,94,0,1,,,,,,,,0,,,82,0
48864,note_on,2,0,6,,,,,,,,5,,,46,75
48864,note_on,2,0,3,,,,,,,,4,,,70,110
48864,note_on,2,0,5,,,,,,,,2,,,58,75
48864,note_on,2,0,1,,,,,,,,0,,,70,110
48864,note_on,2,0,2,,,,,,,,3,,,70,110
48928,note_on,160,0,4,,,,,,,,1,,,65,0
48958,note_on,94,0,2,,,,,,,,3,,,70,0
48958,note_on,94,0,3,,,,,,,,4,,,70,0
48958,note_on,94,0,5,,,,,,,,2,,,58,0
48958,note_on,94,0,6,,,,,,,,5,,,46,0
48958,note_on,94,0,1,,,,,,,,0,,,70,0
48960,note_on,2,0,5,,,,,,,,2,,,51,75
48960,note_on,2,0,2,,,,,,,,3,,,63,110
48960,note_on,2,0,3,,,,,,,,4,,,63,110
48960,note_on,2,0,6,,,,,,,,5,,,39,75
48960,note_on,2,0,1,,,,,,,,0,,,63,110
49054,note_on,94,0,3,,,,,,,,4,,,63,0
49054,note_on,94,0,2,,,,,,,,3,,,63,0
49054,note_on,94,0,1,,,,,,,,0,,,63,0
49054,note_on,94,0,6,,,,,,,,5,,,39,0
49054,note_on,94,0,5,,,,,,,,2,,,51,0
49056,note_on,2,0,3,,,,,,,,4,,,65,110
49056,note_on,2,0,5,,,,,,,,2,,,53,75
49056,note_on,2,0,2,,,,,,,,3,,,65,110
49056,note_on,2,0,6,,,,,,,,5,,,41,75
49056,note_on,2,0,1,,,,,,,,0,,,65,110
49150,note_on,94,0,6,,,,,,,,5,,,41,0
49150,note_on,94,0,1,,,,,,,,0,,,65,0
49150,note_on,94,0,3,,,,,,,,4,,,65,0
49150,note_on,94,0,2,,,,,,,,3,,,65,0
49150,note_on,94,0,5,,,,,,,,2,,,53,0
49152,note_on,224,0,4,,,,,,,,1,,,70,75
49152,note_on,2,0,3,,,,,,,,4,,,70,110
49152,note_on,2,0,2,,,,,,,,3,,,70,110
49152,note_on,2,0,5,,,,,,,,2,,,58,75
49152,note_on,2,0,1,,,,,,,,0,,,70,110
49152,note_on,2,0,6,,,,,,,,5,,,46,75
49294,note_on,142,0,3,,,,,,,,4,,,70,0
49294,note_on,142,0,1,,,,,,,,0,,,70,0
49294,note_on,142,0,4,,,,,,,,1,,,70,0
49294,note_on,142,0,2,,,,,,,,3,,,70,0
49294,note_on,142,0,5,,,,,,,,2,,,58,0
49294,note_on,142,0,6,,,,,,,,5,,,46,0
49296,note_on,2,0,3,,,,,,,,4,,,70,110
49296,note_on,2,0,4,,,,,,,,1,,,74,75
49296,note_on,2,0,6,,,,,,,,5,,,46,75
49296,note_on,2,0,2,,,,,,,,3,,,70,110
49296,note_on,2,0,1,,,,,,,,0,,,70,110
49296,note_on,2,0,5,,,,,,,,2,,,58,75
49342,note_on,46,0,5,,,,,,,,2,,,58,0
49342,note_on,46,0,4,,,,,,,,1,,,74,0
49342,note_on,46,0,3,,,,,,,,4,,,70,0
49342,note_on,46,0,2,,,,,,,,3,,,70,0
49342,note_on,46,0,1,,,,,,,,0,,,70,0
49342,note_on,46,0,6,,,,,,,,5,,,46,0
49344,note_on,2,0,2,,,,,,,,3,,,82,110
49344,note_on,2,0,1,,,,,,,,0,,,82,110
49344,note_on,2,0,4,,,,,,,,1,,,74,75
49344,note_on,2,0,6,,,,,,,,5,,,46,75
49344,note_on,2,0,3,,,,,,,,4,,,82,110
49344,note_on,2,0,5,,,,,,,,2,,,58,75
49486,note_on,142,0,4,,,,,,,,1,,,74,0
49486,note_on,142,0,6,,,,,,,,5,,,46,0
49486,note_on,142,0,2,,,,,,,,3,,,82,0
49486,note_on,142,0,5,,,,,,,,2,,,58,0
49486,note_on,142,0,1,,,,,,,,0,,,82,0
49486,note_on,142,0,3,,,,,,,,4,,,82,0
49488,note_on,2,0,6,,,,,,,,5,,,46,75
49488,note_on,2,0,3,,,,,,,,4,,,70,110
49488,note_on,2,0,4,,,,,,,,1,,,74,75
49488,note_on,2,0,2,,,,,,,,3,,,70,110
49488,note_on,2,0,5,,,,,,,,2,,,58,75
49488,note_on,2,0,1,,,,,,,,0,,,70,110
49534,note_on,46,0,5,,,,,,,,2,,,58,0
49534,note_on,46,0,3,,,,,,,,4,,,70,0
49534,note_on,46,0,1,,,,,,,,0,,,70,0
49534,note_on,46,0,6,,,,,,,,5,,,46,0
49534,note_on,46,0,4,,,,,,,,1,,,74,0
49534,note_on,46,0,2,,,,,,,,3,,,70,0
49536,note_on,2,0,1,,,,,,,,0,,,82,110
49536,note_on,2,0,5,,,,,,,,2,,,57,75
49536,note_on,2,0,2,,,,,,,,3,,,82,110
49536,note_on,2,0,3,,,,,,,,4,,,82,110
49536,note_on,2,0,6,,,,,,,,5,,,45,75
49536,note_on,2,0,4,,,,,,,,1,,,72,75
49678,note_on,142,0,4,,,,,,,,1,,,72,0
49678,note_on,142,0,1,,,,,,,,0,,,82,0
49678,note_on,142,0,3,,,,,,,,4,,,82,0
49678,note_on,142,0,6,,,,,,,,5,,,45,0
49678,note_on,142,0,2,,,,,,,,3,,,82,0
49678,note_on,142,0,5,,,,,,,,2,,,57,0
49680,note_on,2,0,3,,,,,,,,4,,,70,110
49680,note_on,2,0,4,,,,,,,,1,,,72,75
49680,note_on,2,0,2,,,,,,,,3,,,70,110
49680,note_on,2,0,1,,,,,,,,0,,,70,110
49680,note_on,2,0,6,,,,,,,,5,,,45,75
49680,note_on,2,0,5,,,,,,,,2,,,57,75
49726,note_on,46,0,5,,,,,,,,2,,,57,0
49726,note_on,46,0,3,,,,,,,,4,,,70,0
49726,note_on,46,0,2,,,,,,,,3,,,70,0
49726,note_on,46,0,6,,,,,,,,5,,,45,0
49726,note_on,46,0,1,,,,,,,,0,,,70,0
49726,note_on,46,0,4,,,,,,,,1,,,72,0
49728,note_on,2,0,3,,,,,,,,4,,,82,110
49728,note_on,2,0,2,,,,,,,,3,,,82,110
49728,note_on,2,0,1,,,,,,,,0,,,82,110
49728,note_on,2,0,4,,,,,,,,1,,,70,75
49728,note_on,2,0,6,,,,,,,,5,,,43,75
49728,note_on,2,0,5,,,,,,,,2,,,55,75
49870,note_on,142,0,6,,,,,,,,5,,,43,0
49870,note_on,142,0,1,,,,,,,,0,,,82,0
49870,note_on,142,0,4,,,,,,,,1,,,70,0
49870,note_on,142,0,2,,,,,,,,3,,,82,0
49870,note_on,142,0,5,,,,,,,,2,,,55,0
49870,note_on,142,0,3,,,,,,,,4,,,82,0
49872,note_on,2,0,1,,,,,,,,0,,,70,110
49872,note_on,2,0,6,,,,,,,,5,,,43,75
49872,note_on,2,0,2,,,,,,,,3,,,70,110
49872,note_on,2,0,3,,,,,,,,4,,,70,110
49872,note_on,2,0,5,,,,,,,,2,,,55,75
49872,note_on,2,0,4,,,,,,,,1,,,70,75
49918,note_on,46,0,2,,,,,,,,3,,,70,0
49918,note_on,46,0,6,,,,,,,,5,,,43,0
49918,note_on,46,0,4,,,,,,,,1,,,70,0
49918,note_on,46,0,3,,,,,,,,4,,,70,0
49918,note_on,46,0,1,,,,,,,,0,,,70,0
49918,note_on,46,0,5,,,,,,,,2,,,55,0
49920,note_on,2,0,5,,,,,,,,2,,,53,75
49920,note_on,2,0,3,,,,,,,,4,,,82,110
49920,note_on,2,0,6,,,,,,,,5,,,41,75
49920,note_on,2,0,2,,,,,,,,3,,,82,110
49920,note_on,2,0,4,,,,,,,,1,,,69,75
49920,note_on,2,0,1,,,,,,,,0,,,82,110
50062,note_on,142,0,6,,,,,,,,5,,,41,0
50062,note_on,142,0,3,,,,,,,,4,,,82,0
50062,note_on,142,0,2,,,,,,,,3,,,82,0
50062,note_on,142,0,1,,,,,,,,0,,,82,0
50062,note_on,142,0,5,,,,,,,,2,,,53,0
50062,note_on,142,0,4,,,,,,,,1,,,69,0
50064,note_on,2,0,2,,,,,,,,3,,,70,110
50064,note_on,2,0,4,,,,,,,,1,,,69,75
50064,note_on,2,0,1,,,,,,,,0,,,70,110
50064,note_on,2,0,6,,,,,,,,5,,,41,75
50064,note_on,2,0,5,,,,,,,,2,,,53,75
50064,note_on,2,0,3,,,,,,,,4,,,70,110
50110,note_on,46,0,5,,,,,,,,2,,,53,0
50110,note_on,46,0,1,,,,,,,,0,,,70,0
50110,note_on,46,0,2,,,,,,,,3,,,70,0
50110,note_on,46,0,3,,,,,,,,4,,,70,0
50110,note_on,46,0,4,,,,,,,,1,,,69,0
50110,note_on,46,0,6,,,,,,,,5,,,41,0
50112,note_on,2,0,2,,,,,,,,3,,,82,110
50112,note_on,2,0,6,,,,,,,,5,,,39,75
50112,note_on,2,0,5,,,,,,,,2,,,51,75
50112,note_on,2,0,3,,,,,,,,4,,,82,110
50112,note_on,2,0,4,,,,,,,,1,,,67,75
50112,note_on,2,0,1,,,,,,,,0,,,82,110
50254,note_on,142,0,3,,,,,,,,4,,,82,0
50254,note_on,142,0,6,,,,,,,,5,,,39,0
50254,note_on,142,0,2,,,,,,,,3,,,82,0
50254,note_on,142,0,4,,,,,,,,1,,,67,0
50254,note_on,142,0,5,,,,,,,,2,,,51,0
50254,note_on,142,0,1,,,,,,,,0,,,82,0
50256,note_on,2,0,1,,,,,,,,0,,,70,110
50256,note_on,2,0,3,,,,,,,,4,,,70,110
50256,note_on,2,0,6,,,,,,,,5,,,39,75
50256,note_on,2,0,2,,,,,,,,3,,,70,110
50256,note_on,2,0,5,,,,,,,,2,,,51,75
50256,note_on,2,0,4,,,,,,,,1,,,67,75
50302,note_on,46,0,6,,,,,,,,5,,,39,0
50302,note_on,46,0,4,,,,,,,,1,,,67,0
50302,note_on,46,0,1,,,,,,,,0,,,70,0
50302,note_on,46,0,2,,,,,,,,3,,,70,0
50302,note_on,46,0,3,,,,,,,,4,,,70,0
50302,note_on,46,0,5,,,,,,,,2,,,51,0
50304,note_on,2,0,4,,,,,,,,1,,,65,75
50304,note_on,2,0,1,,,,,,,,0,,,82,110
50304,note_on,2,0,5,,,,,,,,2,,,50,75
50304,note_on,2,0,2,,,,,,,,3,,,82,110
50304,note_on,2,0,6,,,,,,,,5,,,38,75
50304,note_on,2,0,3,,,,,,,,4,,,82,110
50398,note_on,94,0,2,,,,,,,,3,,,82,0
50398,note_on,94,0,6,,,,,,,,5,,,38,0
50398,note_on,94,0,3,,,,,,,,4,,,82,0
50398,note_on,94,0,5,,,,,,,,2,,,50,0
50398,note_on,94,0,1,,,,,,,,0,,,82,0
50400,note_on,2,0,1,,,,,,,,0,,,70,110
50400,note_on,2,0,5,,,,,,,,2,,,58,75
50400,note_on,2,0,3,,,,,,,,4,,,70,110
50400,note_on,2,0,2,,,,,,,,3,,,70,110
50400,note_on,2,0,6,,,,,,,,5,,,46,75
50464,note_on,160,0,4,,,,,,,,1,,,65,0
50494,note_on,94,0,5,,,,,,,,2,,,58,0
50494,note_on,94,0,2,,,,,,,,3,,,70,0
50494,note_on,94,0,1,,,,,,,,0,,,70,0
50494,note_on,94,0,6,,,,,,,,5,,,46,0
50494,note_on,94,0,3,,,,,,,,4,,,70,0
50496,note_on,2,0,2,,,,,,,,3,,,63,110
50496,note_on,2,0,5,,,,,,,,2,,,51,75
50496,note_on,2,0,3,,,,,,,,4,,,63,110
50496,note_on,2,0,1,,,,,,,,0,,,63,110
50496,note_on,2,0,6,,,,,,,,5,,,39,75
50590,note_on,94,0,6,,,,,,,,5,,,39,0
50590,note_on,94,0,2,,,,,,,,3,,,63,0
50590,note_on,94,0,3,,,,,,,,4,,,63,0
50590,note_on,94,0,1,,,,,,,,0,,,63,0
50590,note_on,94,0,5,,,,,,,,2,,,51,0
50592,note_on,2,0,2,,,,,,,,3,,,65,110
50592,note_on,2,0,3,,,,,,,,4,,,65,110
50592,note_on,2,0,1,,,,,,,,0,,,65,110
50592,note_on,2,0,5,,,,,,,,2,,,53,75
50592,note_on,2,0,6,,,,,,,,5,,,41,75
50686,note_on,94,0,1,,,,,,,,0,,,65,0
50686,note_on,94,0,2,,,,,,,,3,,,65,0
50686,note_on,94,0,3,,,,,,,,4,,,65,0
50686,note_on,94,0,6,,,,,,,,5,,,41,0
50686,note_on,94,0,5,,,,,,,,2,,,53,0
50688,note_on,2,0,3,,,,,,,,4,,,58,110
50688,note_on,2,0,1,,,,,,,,0,,,58,110
50688,note_on,224,0,4,,,,,,,,1,,,62,75
50688,note_on,2,0,6,,,,,,,,5,,,34,75
50688,note_on,2,0,5,,,,,,,,2,,,46,75
50688,note_on,2,0,2,,,,,,,,3,,,58,110
51408,note_on,720,0,6,,,,,,,,5,,,34,0
51408,note_on,720,0,5,,,,,,,,2,,,46,0
51408,note_on,720,0,3,,,,,,,,4,,,58,0
51408,end_of_track,0,1,5,,,,,,,,,,,,
51408,end_of_track,0,1,3,,,,,,,,,,,,
51408,end_of_track,0,1,1,,,,,,,,,,,,
51408,note_on,720,0,1,,,,,,,,0,,,58,0
51408,note_on,720,0,4,,,,,,,,1,,,62,0
51408,end_of_track,0,1,4,,,,,,,,,,,,
51408,end_of_track,0,1,2,,,,,,,,,,,,
51408,end_of_track,0,1,6,,,,,,,,,,,,
51408,note_on,720,0,2,,,,,,,,3,,,58,0
