tick,type,time,meta,track,tempo,key,numerator,denominator,clocks_per_click,notated_32nd_notes_per_beat,data,control,value,channel,program,note,velocity
0,track_name,0,1,0,,,,,,,,,,,,,
0,end_of_track,0,1,21,,,,,,,,,,,,,
0,track_name,0,1,21,,,,,,,,,,,,,
0,end_of_track,0,1,20,,,,,,,,,,,,,
0,track_name,0,1,20,,,,,,,,,,,,,
0,end_of_track,0,1,19,,,,,,,,,,,,,
0,track_name,0,1,19,,,,,,,,,,,,,
0,track_name,0,1,18,,,,,,,,,,,,,
0,track_name,0,1,17,,,,,,,,,,,,,
0,track_name,0,1,16,,,,,,,,,,,,,
0,track_name,0,1,15,,,,,,,,,,,,,
0,track_name,0,1,14,,,,,,,,,,,,,
0,end_of_track,0,1,13,,,,,,,,,,,,,
0,track_name,0,1,13,,,,,,,,,,,,,
0,track_name,0,1,12,,,,,,,,,,,,,
0,track_name,0,1,11,,,,,,,,,,,,,
0,end_of_track,0,1,10,,,,,,,,,,,,,
0,track_name,0,1,10,,,,,,,,,,,,,
0,track_name,0,1,9,,,,,,,,,,,,,
0,track_name,0,1,8,,,,,,,,,,,,,
0,track_name,0,1,36,,,,,,,,,,,,,
0,track_name,0,1,7,,,,,,,,,,,,,
0,track_name,0,1,6,,,,,,,,,,,,,
0,track_name,0,1,5,,,,,,,,,,,,,
0,track_name,0,1,22,,,,,,,,,,,,,
0,end_of_track,0,1,22,,,,,,,,,,,,,
0,track_name,0,1,23,,,,,,,,,,,,,
0,end_of_track,0,1,23,,,,,,,,,,,,,
0,end_of_track,0,1,35,,,,,,,,,,,,,
0,track_name,0,1,35,,,,,,,,,,,,,
0,end_of_track,0,1,34,,,,,,,,,,,,,
0,track_name,0,1,34,,,,,,,,,,,,,
0,end_of_track,0,1,33,,,,,,,,,,,,,
0,track_name,0,1,33,,,,,,,,,,,,,
0,end_of_track,0,1,32,,,,,,,,,,,,,
0,track_name,0,1,32,,,,,,,,,,,,,
0,end_of_track,0,1,31,,,,,,,,,,,,,
0,track_name,0,1,31,,,,,,,,,,,,,
0,end_of_track,0,1,30,,,,,,,,,,,,,
0,track_name,0,1,4,,,,,,,,,,,,,
0,track_name,0,1,30,,,,,,,,,,,,,
0,track_name,0,1,29,,,,,,,,,,,,,
0,end_of_track,0,1,28,,,,,,,,,,,,,
0,track_name,0,1,28,,,,,,,,,,,,,
0,end_of_track,0,1,27,,,,,,,,,,,,,
0,track_name,0,1,27,,,,,,,,,,,,,
0,end_of_track,0,1,26,,,,,,,,,,,,,
0,track_name,0,1,26,,,,,,,,,,,,,
0,end_of_track,0,1,25,,,,,,,,,,,,,
0,track_name,0,1,25,,,,,,,,,,,,,
0,end_of_track,0,1,24,,,,,,,,,,,,,
0,track_name,0,1,24,,,,,,,,,,,,,
0,end_of_track,0,1,29,,,,,,,,,,,,,
0,track_name,0,1,3,,,,,,,,,,,,,
0,end_of_track,0,1,36,,,,,,,,,,,,,
0,key_signature,0,1,0,,Bb,,,,,,,,,,,
0,set_tempo,0,1,0,251046,,,,,,,,,,,,
0,set_tempo,0,1,0,454545,,,,,,,,,,,,
0,track_name,0,1,1,,,,,,,,,,,,,
0,sysex,0,0,1,,,,,,,"(65, 16, 66, 18, 0, 0, 127, 0, 1)",,,,,,
0,track_name,0,1,2,,,,,,,,,,,,,
0,time_signature,0,1,0,,,4,4,24,8,,,,,,,
480,sysex,480,0,1,,,,,,,"(65, 16, 66, 18, 64, 0, 4, 127, 61)",,,,,,
960,sysex,480,0,1,,,,,,,"(65, 16, 66, 18, 64, 1, 48, 4, 11)",,,,,,
1920,control_change,1920,0,17,,,,,,,,93,0,14,,,
1920,sysex,0,0,12,,,,,,,"(67, 16, 76, 8, 10, 12, 96)",,,,,,
1920,text,0,1,12,,,,,,,,,,,,,
1920,text,1920,1,12,,,,,,,,,,,,,
1920,control_change,1920,0,9,,,,,,,,93,0,7,,,
1920,control_change,1920,0,4,,,,,,,,93,0,2,,,
1920,control_change,1920,0,8,,,,,,,,93,0,6,,,
1920,control_change,1920,0,3,,,,,,,,93,0,1,,,
1920,control_change,1920,0,5,,,,,,,,93,0,3,,,
1920,control_change,1920,0,7,,,,,,,,93,0,5,,,
1920,control_change,1920,0,6,,,,,,,,93,0,4,,,
1920,control_change,1920,0,16,,,,,,,,93,0,13,,,
1920,control_change,1920,0,18,,,,,,,,93,0,15,,,
1920,control_change,1920,0,2,,,,,,,,93,0,0,,,
1920,control_change,1920,0,11,,,,,,,,93,0,8,,,
1920,control_change,1920,0,14,,,,,,,,93,0,11,,,
1920,control_change,1920,0,15,,,,,,,,93,0,12,,,
1990,text,70,1,12,,,,,,,,,,,,,
1990,sysex,0,0,12,,,,,,,"(67, 16, 76, 8, 10, 13, 42)",,,,,,
2040,control_change,120,0,3,,,,,,,,91,100,1,,,
2040,control_change,120,0,14,,,,,,,,91,100,11,,,
2040,control_change,120,0,11,,,,,,,,91,100,8,,,
2040,control_change,120,0,5,,,,,,,,91,100,3,,,
2040,control_change,120,0,9,,,,,,,,91,100,7,,,
2040,control_change,120,0,17,,,,,,,,91,100,14,,,
2040,control_change,120,0,8,,,,,,,,91,100,6,,,
2040,control_change,120,0,18,,,,,,,,91,100,15,,,
2040,control_change,120,0,6,,,,,,,,91,100,4,,,
2040,control_change,120,0,15,,,,,,,,91,100,12,,,
2040,control_change,120,0,2,,,,,,,,91,100,0,,,
2040,control_change,120,0,16,,,,,,,,91,100,13,,,
2040,control_change,120,0,4,,,,,,,,91,100,2,,,
2040,control_change,120,0,7,,,,,,,,91,100,5,,,
2060,control_change,70,0,12,,,,,,,,93,5,10,,,
2160,control_change,120,0,9,,,,,,,,71,71,7,,,
2160,control_change,120,0,4,,,,,,,,71,71,2,,,
2160,control_change,120,0,3,,,,,,,,71,71,1,,,
2160,control_change,120,0,11,,,,,,,,71,71,8,,,
2160,control_change,120,0,14,,,,,,,,71,71,11,,,
2160,control_change,120,0,18,,,,,,,,71,71,15,,,
2160,control_change,120,0,7,,,,,,,,71,71,5,,,
2160,control_change,120,0,5,,,,,,,,71,71,3,,,
2160,control_change,120,0,15,,,,,,,,71,71,12,,,
2160,control_change,120,0,17,,,,,,,,71,71,14,,,
2160,control_change,120,0,16,,,,,,,,71,71,13,,,
2160,control_change,120,0,2,,,,,,,,71,71,0,,,
2160,control_change,120,0,8,,,,,,,,71,71,6,,,
2160,control_change,120,0,6,,,,,,,,71,71,4,,,
2230,control_change,170,0,12,,,,,,,,91,55,10,,,
2280,control_change,120,0,3,,,,,,,,72,64,1,,,
2280,control_change,120,0,18,,,,,,,,72,64,15,,,
2280,control_change,120,0,15,,,,,,,,72,64,12,,,
2280,control_change,120,0,2,,,,,,,,72,64,0,,,
2280,control_change,120,0,14,,,,,,,,72,64,11,,,
2280,control_change,120,0,9,,,,,,,,72,64,7,,,
2280,control_change,120,0,8,,,,,,,,72,64,6,,,
2280,control_change,120,0,4,,,,,,,,72,64,2,,,
2280,control_change,120,0,16,,,,,,,,72,64,13,,,
2280,control_change,120,0,11,,,,,,,,72,64,8,,,
2280,control_change,120,0,7,,,,,,,,72,64,5,,,
2280,control_change,120,0,6,,,,,,,,72,64,4,,,
2280,control_change,120,0,5,,,,,,,,72,64,3,,,
2280,control_change,120,0,17,,,,,,,,72,64,14,,,
2400,control_change,120,0,4,,,,,,,,73,0,2,,,
2400,control_change,120,0,15,,,,,,,,73,0,12,,,
2400,control_change,120,0,11,,,,,,,,73,0,8,,,
2400,program_change,170,0,12,,,,,,,,,,10,16,,
2400,control_change,120,0,7,,,,,,,,73,0,5,,,
2400,control_change,120,0,17,,,,,,,,73,0,14,,,
2400,control_change,120,0,16,,,,,,,,73,0,13,,,
2400,control_change,120,0,14,,,,,,,,73,0,11,,,
2400,control_change,120,0,18,,,,,,,,73,0,15,,,
2400,control_change,120,0,3,,,,,,,,73,0,1,,,
2400,control_change,120,0,8,,,,,,,,73,0,6,,,
2400,control_change,120,0,5,,,,,,,,73,0,3,,,
2400,control_change,120,0,2,,,,,,,,73,0,0,,,
2400,control_change,120,0,6,,,,,,,,73,0,4,,,
2400,control_change,120,0,9,,,,,,,,73,0,7,,,
2520,control_change,120,0,15,,,,,,,,74,74,12,,,
2520,control_change,120,0,8,,,,,,,,74,74,6,,,
2520,control_change,120,0,4,,,,,,,,74,74,2,,,
2520,control_change,120,0,16,,,,,,,,74,74,13,,,
2520,control_change,120,0,3,,,,,,,,74,74,1,,,
2520,control_change,120,0,6,,,,,,,,74,74,4,,,
2520,control_change,120,0,5,,,,,,,,74,74,3,,,
2520,control_change,120,0,7,,,,,,,,74,74,5,,,
2520,control_change,120,0,2,,,,,,,,74,74,0,,,
2520,control_change,120,0,17,,,,,,,,74,74,14,,,
2520,control_change,120,0,18,,,,,,,,74,74,15,,,
2520,control_change,120,0,14,,,,,,,,74,74,11,,,
2520,control_change,120,0,9,,,,,,,,74,74,7,,,
2520,control_change,120,0,11,,,,,,,,74,74,8,,,
2640,control_change,120,0,17,,,,,,,,32,0,14,,,
2640,control_change,120,0,11,,,,,,,,32,0,8,,,
2640,control_change,120,0,15,,,,,,,,32,0,12,,,
2640,control_change,120,0,4,,,,,,,,32,0,2,,,
2640,control_change,120,0,7,,,,,,,,32,0,5,,,
2640,control_change,120,0,14,,,,,,,,32,0,11,,,
2640,control_change,120,0,5,,,,,,,,32,0,3,,,
2640,control_change,120,0,18,,,,,,,,32,0,15,,,
2640,control_change,120,0,9,,,,,,,,32,0,7,,,
2640,control_change,120,0,6,,,,,,,,32,0,4,,,
2640,control_change,120,0,16,,,,,,,,32,0,13,,,
2640,control_change,120,0,2,,,,,,,,32,0,0,,,
2640,control_change,120,0,3,,,,,,,,32,0,1,,,
2640,control_change,240,0,12,,,,,,,,10,64,10,,,
2640,control_change,120,0,8,,,,,,,,32,0,6,,,
2760,control_change,120,0,5,,,,,,,,0,0,3,,,
2760,control_change,120,0,15,,,,,,,,0,0,12,,,
2760,control_change,120,0,14,,,,,,,,0,0,11,,,
2760,control_change,120,0,7,,,,,,,,0,0,5,,,
2760,control_change,120,0,3,,,,,,,,0,0,1,,,
2760,control_change,120,0,11,,,,,,,,0,0,8,,,
2760,control_change,120,0,16,,,,,,,,0,0,13,,,
2760,control_change,120,0,9,,,,,,,,0,0,7,,,
2760,control_change,120,0,4,,,,,,,,0,0,2,,,
2760,control_change,120,0,2,,,,,,,,0,0,0,,,
2760,control_change,120,0,17,,,,,,,,0,0,14,,,
2760,control_change,120,0,8,,,,,,,,0,0,6,,,
2760,control_change,120,0,6,,,,,,,,0,0,4,,,
2760,control_change,120,0,18,,,,,,,,0,0,15,,,
2880,program_change,120,0,17,,,,,,,,,,14,40,,
2880,program_change,120,0,3,,,,,,,,,,1,48,,
2880,program_change,120,0,2,,,,,,,,,,0,48,,
2880,program_change,120,0,8,,,,,,,,,,6,48,,
2880,program_change,120,0,6,,,,,,,,,,4,48,,
2880,program_change,120,0,18,,,,,,,,,,15,48,,
2880,control_change,240,0,12,,,,,,,,7,55,10,,,
2880,program_change,120,0,15,,,,,,,,,,12,40,,
2880,program_change,120,0,5,,,,,,,,,,3,48,,
2880,program_change,120,0,14,,,,,,,,,,11,40,,
2880,program_change,120,0,7,,,,,,,,,,5,48,,
2880,program_change,120,0,9,,,,,,,,,,7,48,,
2880,program_change,120,0,11,,,,,,,,,,8,48,,
2880,program_change,120,0,4,,,,,,,,,,2,48,,
2880,program_change,120,0,16,,,,,,,,,,13,40,,
3000,control_change,120,0,5,,,,,,,,10,94,3,,,
3000,control_change,120,0,6,,,,,,,,10,44,4,,,
3000,control_change,120,0,14,,,,,,,,10,89,11,,,
3000,control_change,120,0,7,,,,,,,,10,84,5,,,
3000,control_change,120,0,9,,,,,,,,10,54,7,,,
3000,control_change,120,0,8,,,,,,,,10,74,6,,,
3000,control_change,120,0,4,,,,,,,,10,34,2,,,
3000,control_change,120,0,3,,,,,,,,10,104,1,,,
3000,control_change,120,0,2,,,,,,,,10,24,0,,,
3000,control_change,120,0,16,,,,,,,,10,49,13,,,
3000,control_change,120,0,15,,,,,,,,10,39,12,,,
3000,control_change,120,0,18,,,,,,,,10,34,15,,,
3000,control_change,120,0,11,,,,,,,,10,64,8,,,
3000,control_change,120,0,17,,,,,,,,10,79,14,,,
3120,control_change,120,0,7,,,,,,,,11,125,5,,,
3120,control_change,120,0,18,,,,,,,,11,125,15,,,
3120,control_change,120,0,9,,,,,,,,11,125,7,,,
3120,control_change,120,0,8,,,,,,,,11,125,6,,,
3120,control_change,120,0,6,,,,,,,,11,125,4,,,
3120,control_change,120,0,14,,,,,,,,11,125,11,,,
3120,control_change,120,0,16,,,,,,,,11,125,13,,,
3120,control_change,120,0,15,,,,,,,,11,125,12,,,
3120,control_change,120,0,5,,,,,,,,11,125,3,,,
3120,control_change,120,0,11,,,,,,,,11,125,8,,,
3120,control_change,120,0,2,,,,,,,,11,125,0,,,
3120,control_change,120,0,3,,,,,,,,11,125,1,,,
3120,control_change,240,0,12,,,,,,,,1,0,10,,,
3120,control_change,120,0,17,,,,,,,,11,125,14,,,
3120,control_change,120,0,4,,,,,,,,11,125,2,,,
3240,control_change,120,0,6,,,,,,,,7,105,4,,,
3240,control_change,120,0,16,,,,,,,,7,125,13,,,
3240,control_change,120,0,2,,,,,,,,7,105,0,,,
3240,control_change,120,0,18,,,,,,,,7,115,15,,,
3240,control_change,120,0,9,,,,,,,,7,105,7,,,
3240,control_change,120,0,8,,,,,,,,7,105,6,,,
3240,control_change,120,0,15,,,,,,,,7,115,12,,,
3240,control_change,120,0,4,,,,,,,,7,105,2,,,
3240,control_change,120,0,3,,,,,,,,7,105,1,,,
3240,control_change,120,0,14,,,,,,,,7,105,11,,,
3240,control_change,120,0,17,,,,,,,,7,125,14,,,
3240,control_change,120,0,11,,,,,,,,7,105,8,,,
3240,control_change,120,0,7,,,,,,,,7,105,5,,,
3240,control_change,120,0,5,,,,,,,,7,105,3,,,
3360,control_change,240,0,12,,,,,,,,11,90,10,,,
3720,set_tempo,3720,1,0,6666666,,,,,,,,,,,,
3839,set_tempo,119,1,0,461538,,,,,,,,,,,,
3840,end_of_track,2880,1,1,,,,,,,,,,,,,
3840,note_on,600,0,2,,,,,,,,,,0,,70,90
3840,end_of_track,600,1,16,,,,,,,,,,,,,
3840,end_of_track,600,1,18,,,,,,,,,,,,,
3840,end_of_track,600,1,15,,,,,,,,,,,,,
3840,note_on,600,0,3,,,,,,,,,,1,,70,90
3840,end_of_track,480,1,12,,,,,,,,,,,,,
3840,note_on,600,0,14,,,,,,,,,,11,,70,90
3840,end_of_track,600,1,17,,,,,,,,,,,,,
3840,end_of_track,1,1,0,,,,,,,,,,,,,
3960,note_on,120,0,3,,,,,,,,,,1,,70,0
3960,note_on,120,0,2,,,,,,,,,,0,,70,0
3960,note_on,120,0,14,,,,,,,,,,11,,70,0
4080,note_on,840,0,5,,,,,,,,,,3,,74,90
4080,note_on,120,0,14,,,,,,,,,,11,,65,90
4080,note_on,120,0,2,,,,,,,,,,0,,65,90
4080,note_on,120,0,3,,,,,,,,,,1,,65,90
4080,note_on,840,0,6,,,,,,,,,,4,,70,90
4080,note_on,840,0,7,,,,,,,,,,5,,70,90
4080,note_on,840,0,4,,,,,,,,,,2,,74,90
4170,note_on,90,0,4,,,,,,,,,,2,,74,0
4170,note_on,90,0,5,,,,,,,,,,3,,74,0
4170,note_on,90,0,7,,,,,,,,,,5,,70,0
4170,note_on,90,0,6,,,,,,,,,,4,,70,0
4200,note_on,120,0,14,,,,,,,,,,11,,65,0
4200,note_on,30,0,4,,,,,,,,,,2,,72,90
4200,note_on,120,0,2,,,,,,,,,,0,,65,0
4200,note_on,30,0,7,,,,,,,,,,5,,69,90
4200,note_on,120,0,3,,,,,,,,,,1,,65,0
4200,note_on,30,0,5,,,,,,,,,,3,,72,90
4200,note_on,30,0,6,,,,,,,,,,4,,69,90
4320,note_on,120,0,14,,,,,,,,,,11,,70,90
4320,note_on,120,0,6,,,,,,,,,,4,,70,90
4320,note_on,120,0,7,,,,,,,,,,5,,70,90
4320,note_on,120,0,4,,,,,,,,,,2,,74,90
4320,note_on,120,0,2,,,,,,,,,,0,,70,90
4320,note_on,120,0,3,,,,,,,,,,1,,70,90
4320,note_on,120,0,5,,,,,,,,,,3,,74,90
4330,note_on,10,0,6,,,,,,,,,,4,,69,0
4330,note_on,10,0,4,,,,,,,,,,2,,72,0
4330,note_on,10,0,7,,,,,,,,,,5,,69,0
4330,note_on,10,0,5,,,,,,,,,,3,,72,0
4430,note_on,100,0,7,,,,,,,,,,5,,70,0
4430,note_on,100,0,4,,,,,,,,,,2,,74,0
4430,note_on,100,0,6,,,,,,,,,,4,,70,0
4430,note_on,100,0,5,,,,,,,,,,3,,74,0
4440,note_on,10,0,4,,,,,,,,,,2,,75,90
4440,note_on,10,0,7,,,,,,,,,,5,,72,90
4440,note_on,10,0,5,,,,,,,,,,3,,75,90
4440,note_on,10,0,6,,,,,,,,,,4,,72,90
4500,note_on,180,0,2,,,,,,,,,,0,,70,0
4500,note_on,180,0,14,,,,,,,,,,11,,70,0
4500,note_on,180,0,3,,,,,,,,,,1,,70,0
4530,note_on,90,0,5,,,,,,,,,,3,,75,0
4530,note_on,90,0,7,,,,,,,,,,5,,72,0
4530,note_on,90,0,4,,,,,,,,,,2,,75,0
4530,note_on,90,0,6,,,,,,,,,,4,,72,0
4560,note_on,30,0,5,,,,,,,,,,3,,77,90
4560,note_on,1320,0,11,,,,,,,,,,8,,46,90
4560,note_on,30,0,7,,,,,,,,,,5,,74,90
4560,note_on,60,0,14,,,,,,,,,,11,,62,90
4560,note_on,30,0,6,,,,,,,,,,4,,74,90
4560,note_on,1320,0,8,,,,,,,,,,6,,58,90
4560,note_on,1320,0,9,,,,,,,,,,7,,58,90
4560,note_on,60,0,2,,,,,,,,,,0,,62,90
4560,note_on,30,0,4,,,,,,,,,,2,,77,90
4560,note_on,60,0,3,,,,,,,,,,1,,62,90
4680,note_on,120,0,6,,,,,,,,,,4,,74,0
4680,note_on,120,0,4,,,,,,,,,,2,,77,0
4680,note_on,120,0,2,,,,,,,,,,0,,62,0
4680,note_on,120,0,9,,,,,,,,,,7,,58,0
4680,note_on,120,0,3,,,,,,,,,,1,,62,0
4680,note_on,120,0,14,,,,,,,,,,11,,62,0
4680,note_on,120,0,8,,,,,,,,,,6,,58,0
4680,note_on,120,0,11,,,,,,,,,,8,,46,0
4680,note_on,120,0,7,,,,,,,,,,5,,74,0
4680,note_on,120,0,5,,,,,,,,,,3,,77,0
4800,note_on,120,0,9,,,,,,,,,,7,,46,90
4800,note_on,120,0,7,,,,,,,,,,5,,62,90
4800,note_on,120,0,6,,,,,,,,,,4,,62,90
4800,note_on,120,0,3,,,,,,,,,,1,,70,90
4800,note_on,120,0,8,,,,,,,,,,6,,46,90
4800,note_on,120,0,2,,,,,,,,,,0,,70,90
4800,note_on,120,0,4,,,,,,,,,,2,,65,90
4800,note_on,120,0,14,,,,,,,,,,11,,70,90
4800,note_on,120,0,11,,,,,,,,,,8,,34,90
4800,note_on,120,0,5,,,,,,,,,,3,,65,90
4980,note_on,180,0,14,,,,,,,,,,11,,70,0
4980,note_on,180,0,9,,,,,,,,,,7,,46,0
4980,note_on,180,0,4,,,,,,,,,,2,,65,0
4980,note_on,180,0,8,,,,,,,,,,6,,46,0
4980,note_on,180,0,6,,,,,,,,,,4,,62,0
4980,note_on,180,0,7,,,,,,,,,,5,,62,0
4980,note_on,180,0,11,,,,,,,,,,8,,34,0
4980,note_on,180,0,2,,,,,,,,,,0,,70,0
4980,note_on,180,0,5,,,,,,,,,,3,,65,0
4980,note_on,180,0,3,,,,,,,,,,1,,70,0
5040,note_on,60,0,4,,,,,,,,,,2,,72,90
5040,note_on,60,0,2,,,,,,,,,,0,,75,90
5040,note_on,60,0,14,,,,,,,,,,11,,75,90
5040,note_on,60,0,5,,,,,,,,,,3,,72,90
5040,note_on,60,0,3,,,,,,,,,,1,,75,90
5280,note_on,240,0,14,,,,,,,,,,11,,75,0
5280,note_on,240,0,5,,,,,,,,,,3,,72,0
5280,note_on,240,0,2,,,,,,,,,,0,,75,0
5280,note_on,240,0,4,,,,,,,,,,2,,72,0
5280,note_on,240,0,3,,,,,,,,,,1,,75,0
5520,note_on,540,0,9,,,,,,,,,,7,,58,90
5520,note_on,540,0,11,,,,,,,,,,8,,46,90
5520,note_on,540,0,8,,,,,,,,,,6,,58,90
5520,note_on,240,0,3,,,,,,,,,,1,,74,90
5520,note_on,240,0,4,,,,,,,,,,2,,70,90
5520,note_on,240,0,14,,,,,,,,,,11,,74,90
5520,note_on,240,0,2,,,,,,,,,,0,,74,90
5520,note_on,240,0,5,,,,,,,,,,3,,70,90
5640,note_on,120,0,11,,,,,,,,,,8,,46,0
5640,note_on,120,0,9,,,,,,,,,,7,,58,0
5640,note_on,120,0,8,,,,,,,,,,6,,58,0
5700,note_on,180,0,2,,,,,,,,,,0,,74,0
5700,note_on,180,0,14,,,,,,,,,,11,,74,0
5700,note_on,180,0,3,,,,,,,,,,1,,74,0
5760,note_on,120,0,11,,,,,,,,,,8,,34,90
5760,note_on,60,0,2,,,,,,,,,,0,,70,90
5760,note_on,60,0,14,,,,,,,,,,11,,70,90
5760,note_on,120,0,8,,,,,,,,,,6,,46,90
5760,note_on,60,0,3,,,,,,,,,,1,,70,90
5760,note_on,120,0,9,,,,,,,,,,7,,46,90
5880,note_on,360,0,5,,,,,,,,,,3,,70,0
5880,note_on,120,0,3,,,,,,,,,,1,,70,0
5880,note_on,120,0,14,,,,,,,,,,11,,70,0
5880,note_on,360,0,4,,,,,,,,,,2,,70,0
5880,note_on,120,0,2,,,,,,,,,,0,,70,0
5940,note_on,180,0,8,,,,,,,,,,6,,46,0
5940,note_on,180,0,9,,,,,,,,,,7,,46,0
5940,note_on,180,0,11,,,,,,,,,,8,,34,0
6000,note_on,120,0,5,,,,,,,,,,3,,74,90
6000,note_on,120,0,3,,,,,,,,,,1,,65,90
6000,note_on,1020,0,7,,,,,,,,,,5,,70,90
6000,note_on,120,0,4,,,,,,,,,,2,,74,90
6000,note_on,120,0,2,,,,,,,,,,0,,65,90
6000,note_on,120,0,14,,,,,,,,,,11,,65,90
6000,note_on,1020,0,6,,,,,,,,,,4,,70,90
6090,note_on,90,0,4,,,,,,,,,,2,,74,0
6090,note_on,90,0,6,,,,,,,,,,4,,70,0
6090,note_on,90,0,7,,,,,,,,,,5,,70,0
6090,note_on,90,0,5,,,,,,,,,,3,,74,0
6120,note_on,30,0,5,,,,,,,,,,3,,72,90
6120,note_on,30,0,4,,,,,,,,,,2,,72,90
6120,note_on,120,0,3,,,,,,,,,,1,,65,0
6120,note_on,30,0,6,,,,,,,,,,4,,69,90
6120,note_on,120,0,14,,,,,,,,,,11,,65,0
6120,note_on,120,0,2,,,,,,,,,,0,,65,0
6120,note_on,30,0,7,,,,,,,,,,5,,69,90
6240,note_on,120,0,3,,,,,,,,,,1,,70,90
6240,note_on,120,0,2,,,,,,,,,,0,,70,90
6240,note_on,120,0,5,,,,,,,,,,3,,74,90
6240,note_on,120,0,6,,,,,,,,,,4,,70,90
6240,note_on,120,0,4,,,,,,,,,,2,,74,90
6240,note_on,120,0,7,,,,,,,,,,5,,70,90
6240,note_on,120,0,14,,,,,,,,,,11,,70,90
6250,note_on,10,0,5,,,,,,,,,,3,,72,0
6250,note_on,10,0,6,,,,,,,,,,4,,69,0
6250,note_on,10,0,4,,,,,,,,,,2,,72,0
6250,note_on,10,0,7,,,,,,,,,,5,,69,0
6350,note_on,100,0,5,,,,,,,,,,3,,74,0
6350,note_on,100,0,4,,,,,,,,,,2,,74,0
6350,note_on,100,0,7,,,,,,,,,,5,,70,0
6350,note_on,100,0,6,,,,,,,,,,4,,70,0
6360,note_on,10,0,7,,,,,,,,,,5,,72,90
6360,note_on,10,0,5,,,,,,,,,,3,,75,90
6360,note_on,10,0,4,,,,,,,,,,2,,75,90
6360,note_on,10,0,6,,,,,,,,,,4,,72,90
6420,note_on,180,0,14,,,,,,,,,,11,,70,0
6420,note_on,180,0,3,,,,,,,,,,1,,70,0
6420,note_on,180,0,2,,,,,,,,,,0,,70,0
6450,note_on,90,0,4,,,,,,,,,,2,,75,0
6450,note_on,90,0,7,,,,,,,,,,5,,72,0
6450,note_on,90,0,5,,,,,,,,,,3,,75,0
6450,note_on,90,0,6,,,,,,,,,,4,,72,0
6480,note_on,30,0,7,,,,,,,,,,5,,74,90
6480,note_on,540,0,8,,,,,,,,,,6,,58,90
6480,note_on,60,0,14,,,,,,,,,,11,,62,90
6480,note_on,60,0,2,,,,,,,,,,0,,62,90
6480,note_on,60,0,3,,,,,,,,,,1,,62,90
6480,note_on,30,0,5,,,,,,,,,,3,,77,90
6480,note_on,30,0,6,,,,,,,,,,4,,74,90
6480,note_on,540,0,9,,,,,,,,,,7,,58,90
6480,note_on,540,0,11,,,,,,,,,,8,,46,90
6480,note_on,30,0,4,,,,,,,,,,2,,77,90
6600,note_on,120,0,4,,,,,,,,,,2,,77,0
6600,note_on,120,0,9,,,,,,,,,,7,,58,0
6600,note_on,120,0,11,,,,,,,,,,8,,46,0
6600,note_on,120,0,8,,,,,,,,,,6,,58,0
6600,note_on,120,0,5,,,,,,,,,,3,,77,0
6600,note_on,120,0,2,,,,,,,,,,0,,62,0
6600,note_on,120,0,3,,,,,,,,,,1,,62,0
6600,note_on,120,0,14,,,,,,,,,,11,,62,0
6600,note_on,120,0,6,,,,,,,,,,4,,74,0
6600,note_on,120,0,7,,,,,,,,,,5,,74,0
6720,note_on,120,0,11,,,,,,,,,,8,,34,90
6720,note_on,120,0,14,,,,,,,,,,11,,70,90
6720,note_on,120,0,4,,,,,,,,,,2,,65,90
6720,note_on,120,0,6,,,,,,,,,,4,,62,90
6720,note_on,120,0,2,,,,,,,,,,0,,70,90
6720,note_on,120,0,9,,,,,,,,,,7,,46,90
6720,note_on,120,0,8,,,,,,,,,,6,,46,90
6720,note_on,120,0,7,,,,,,,,,,5,,62,90
6720,note_on,120,0,5,,,,,,,,,,3,,65,90
6720,note_on,120,0,3,,,,,,,,,,1,,70,90
6900,note_on,180,0,11,,,,,,,,,,8,,34,0
6900,note_on,180,0,2,,,,,,,,,,0,,70,0
6900,note_on,180,0,5,,,,,,,,,,3,,65,0
6900,note_on,180,0,6,,,,,,,,,,4,,62,0
6900,note_on,180,0,3,,,,,,,,,,1,,70,0
6900,note_on,180,0,14,,,,,,,,,,11,,70,0
6900,note_on,180,0,4,,,,,,,,,,2,,65,0
6900,note_on,180,0,8,,,,,,,,,,6,,46,0
6900,note_on,180,0,7,,,,,,,,,,5,,62,0
6900,note_on,180,0,9,,,,,,,,,,7,,46,0
6960,note_on,60,0,14,,,,,,,,,,11,,79,90
6960,note_on,60,0,4,,,,,,,,,,2,,75,90
6960,note_on,60,0,2,,,,,,,,,,0,,79,90
6960,note_on,60,0,3,,,,,,,,,,1,,79,90
6960,note_on,60,0,5,,,,,,,,,,3,,75,90
7200,note_on,240,0,4,,,,,,,,,,2,,75,0
7200,note_on,240,0,2,,,,,,,,,,0,,79,0
7200,note_on,240,0,3,,,,,,,,,,1,,79,0
7200,note_on,240,0,5,,,,,,,,,,3,,75,0
7200,note_on,240,0,14,,,,,,,,,,11,,79,0
7440,note_on,540,0,8,,,,,,,,,,6,,58,90
7440,note_on,240,0,2,,,,,,,,,,0,,77,90
7440,note_on,240,0,4,,,,,,,,,,2,,74,90
7440,note_on,540,0,11,,,,,,,,,,8,,46,90
7440,note_on,240,0,3,,,,,,,,,,1,,77,90
7440,note_on,240,0,5,,,,,,,,,,3,,74,90
7440,note_on,240,0,14,,,,,,,,,,11,,77,90
7440,note_on,540,0,9,,,,,,,,,,7,,58,90
7560,note_on,120,0,9,,,,,,,,,,7,,58,0
7560,note_on,120,0,11,,,,,,,,,,8,,46,0
7560,note_on,120,0,8,,,,,,,,,,6,,58,0
7620,note_on,180,0,3,,,,,,,,,,1,,77,0
7620,note_on,180,0,2,,,,,,,,,,0,,77,0
7620,note_on,180,0,14,,,,,,,,,,11,,77,0
7680,note_on,120,0,11,,,,,,,,,,8,,34,90
7680,note_on,60,0,2,,,,,,,,,,0,,70,90
7680,note_on,60,0,3,,,,,,,,,,1,,70,90
7680,note_on,120,0,9,,,,,,,,,,7,,46,90
7680,note_on,60,0,14,,,,,,,,,,11,,70,90
7680,note_on,120,0,8,,,,,,,,,,6,,46,90
7800,note_on,360,0,5,,,,,,,,,,3,,74,0
7800,note_on,120,0,3,,,,,,,,,,1,,70,0
7800,note_on,360,0,4,,,,,,,,,,2,,74,0
7800,note_on,120,0,2,,,,,,,,,,0,,70,0
7800,note_on,120,0,14,,,,,,,,,,11,,70,0
7860,note_on,180,0,9,,,,,,,,,,7,,46,0
7860,note_on,180,0,8,,,,,,,,,,6,,46,0
7860,note_on,180,0,11,,,,,,,,,,8,,34,0
7920,note_on,120,0,2,,,,,,,,,,0,,65,90
7920,note_on,120,0,14,,,,,,,,,,11,,65,90
7920,note_on,120,0,5,,,,,,,,,,3,,74,90
7920,note_on,1020,0,6,,,,,,,,,,4,,70,90
7920,note_on,120,0,3,,,,,,,,,,1,,65,90
7920,note_on,1020,0,7,,,,,,,,,,5,,70,90
7920,note_on,120,0,4,,,,,,,,,,2,,74,90
8010,note_on,90,0,4,,,,,,,,,,2,,74,0
8010,note_on,90,0,7,,,,,,,,,,5,,70,0
8010,note_on,90,0,6,,,,,,,,,,4,,70,0
8010,note_on,90,0,5,,,,,,,,,,3,,74,0
8040,note_on,30,0,6,,,,,,,,,,4,,69,90
8040,note_on,120,0,3,,,,,,,,,,1,,65,0
8040,note_on,30,0,4,,,,,,,,,,2,,72,90
8040,note_on,120,0,14,,,,,,,,,,11,,65,0
8040,note_on,30,0,7,,,,,,,,,,5,,69,90
8040,note_on,30,0,5,,,,,,,,,,3,,72,90
8040,note_on,120,0,2,,,,,,,,,,0,,65,0
8160,note_on,120,0,3,,,,,,,,,,1,,70,90
8160,note_on,120,0,5,,,,,,,,,,3,,74,90
8160,note_on,120,0,4,,,,,,,,,,2,,74,90
8160,note_on,120,0,14,,,,,,,,,,11,,70,90
8160,note_on,120,0,7,,,,,,,,,,5,,70,90
8160,note_on,120,0,2,,,,,,,,,,0,,70,90
8160,note_on,120,0,6,,,,,,,,,,4,,70,90
8170,note_on,10,0,5,,,,,,,,,,3,,72,0
8170,note_on,10,0,4,,,,,,,,,,2,,72,0
8170,note_on,10,0,6,,,,,,,,,,4,,69,0
8170,note_on,10,0,7,,,,,,,,,,5,,69,0
8270,note_on,100,0,4,,,,,,,,,,2,,74,0
8270,note_on,100,0,7,,,,,,,,,,5,,70,0
8270,note_on,100,0,5,,,,,,,,,,3,,74,0
8270,note_on,100,0,6,,,,,,,,,,4,,70,0
8280,note_on,10,0,5,,,,,,,,,,3,,75,90
8280,note_on,10,0,4,,,,,,,,,,2,,75,90
8280,note_on,10,0,7,,,,,,,,,,5,,72,90
8280,note_on,10,0,6,,,,,,,,,,4,,72,90
8340,note_on,180,0,3,,,,,,,,,,1,,70,0
8340,note_on,180,0,14,,,,,,,,,,11,,70,0
8340,note_on,180,0,2,,,,,,,,,,0,,70,0
8370,note_on,90,0,6,,,,,,,,,,4,,72,0
8370,note_on,90,0,7,,,,,,,,,,5,,72,0
8370,note_on,90,0,4,,,,,,,,,,2,,75,0
8370,note_on,90,0,5,,,,,,,,,,3,,75,0
8400,note_on,540,0,9,,,,,,,,,,7,,58,90
8400,note_on,30,0,5,,,,,,,,,,3,,77,90
8400,note_on,60,0,14,,,,,,,,,,11,,62,90
8400,note_on,30,0,4,,,,,,,,,,2,,77,90
8400,note_on,60,0,3,,,,,,,,,,1,,62,90
8400,note_on,60,0,2,,,,,,,,,,0,,62,90
8400,note_on,30,0,6,,,,,,,,,,4,,74,90
8400,note_on,540,0,8,,,,,,,,,,6,,58,90
8400,note_on,30,0,7,,,,,,,,,,5,,74,90
8400,note_on,540,0,11,,,,,,,,,,8,,46,90
8520,note_on,120,0,14,,,,,,,,,,11,,62,0
8520,note_on,120,0,7,,,,,,,,,,5,,74,0
8520,note_on,120,0,9,,,,,,,,,,7,,58,0
8520,note_on,120,0,2,,,,,,,,,,0,,62,0
8520,note_on,120,0,5,,,,,,,,,,3,,77,0
8520,note_on,120,0,8,,,,,,,,,,6,,58,0
8520,note_on,120,0,11,,,,,,,,,,8,,46,0
8520,note_on,120,0,3,,,,,,,,,,1,,62,0
8520,note_on,120,0,6,,,,,,,,,,4,,74,0
8520,note_on,120,0,4,,,,,,,,,,2,,77,0
8640,note_on,120,0,7,,,,,,,,,,5,,62,90
8640,note_on,120,0,11,,,,,,,,,,8,,34,90
8640,note_on,120,0,6,,,,,,,,,,4,,62,90
8640,note_on,120,0,5,,,,,,,,,,3,,65,90
8640,note_on,120,0,9,,,,,,,,,,7,,46,90
8640,note_on,120,0,3,,,,,,,,,,1,,70,90
8640,note_on,120,0,8,,,,,,,,,,6,,46,90
8640,note_on,120,0,14,,,,,,,,,,11,,70,90
8640,note_on,120,0,2,,,,,,,,,,0,,70,90
8640,note_on,120,0,4,,,,,,,,,,2,,65,90
8820,note_on,180,0,3,,,,,,,,,,1,,70,0
8820,note_on,180,0,9,,,,,,,,,,7,,46,0
8820,note_on,180,0,8,,,,,,,,,,6,,46,0
8820,note_on,180,0,6,,,,,,,,,,4,,62,0
8820,note_on,180,0,4,,,,,,,,,,2,,65,0
8820,note_on,180,0,5,,,,,,,,,,3,,65,0
8820,note_on,180,0,2,,,,,,,,,,0,,70,0
8820,note_on,180,0,7,,,,,,,,,,5,,62,0
8820,note_on,180,0,14,,,,,,,,,,11,,70,0
8820,note_on,180,0,11,,,,,,,,,,8,,34,0
8880,note_on,60,0,5,,,,,,,,,,3,,74,90
8880,note_on,60,0,4,,,,,,,,,,2,,74,90
8880,note_on,60,0,2,,,,,,,,,,0,,82,90
8880,note_on,60,0,14,,,,,,,,,,11,,82,90
8880,note_on,60,0,3,,,,,,,,,,1,,82,90
9000,note_on,120,0,5,,,,,,,,,,3,,74,0
9000,note_on,120,0,4,,,,,,,,,,2,,74,0
9000,note_on,120,0,14,,,,,,,,,,11,,82,0
9000,note_on,120,0,2,,,,,,,,,,0,,82,0
9000,note_on,120,0,3,,,,,,,,,,1,,82,0
9120,note_on,120,0,14,,,,,,,,,,11,,77,90
9120,note_on,120,0,3,,,,,,,,,,1,,77,90
9120,note_on,120,0,4,,,,,,,,,,2,,82,90
9120,note_on,120,0,2,,,,,,,,,,0,,77,90
9120,note_on,120,0,5,,,,,,,,,,3,,82,90
9300,note_on,180,0,4,,,,,,,,,,2,,82,0
9300,note_on,180,0,5,,,,,,,,,,3,,82,0
9300,note_on,180,0,3,,,,,,,,,,1,,77,0
9300,note_on,180,0,2,,,,,,,,,,0,,77,0
9300,note_on,180,0,14,,,,,,,,,,11,,77,0
9360,note_on,540,0,11,,,,,,,,,,8,,46,90
9360,note_on,60,0,4,,,,,,,,,,2,,77,90
9360,note_on,540,0,6,,,,,,,,,,4,,70,90
9360,note_on,540,0,7,,,,,,,,,,5,,70,90
9360,note_on,60,0,14,,,,,,,,,,11,,74,90
9360,note_on,60,0,3,,,,,,,,,,1,,74,90
9360,note_on,540,0,9,,,,,,,,,,7,,58,90
9360,note_on,60,0,2,,,,,,,,,,0,,74,90
9360,note_on,60,0,5,,,,,,,,,,3,,77,90
9360,note_on,540,0,8,,,,,,,,,,6,,58,90
9480,note_on,120,0,9,,,,,,,,,,7,,58,0
9480,note_on,120,0,2,,,,,,,,,,0,,74,0
9480,note_on,120,0,4,,,,,,,,,,2,,77,0
9480,note_on,120,0,7,,,,,,,,,,5,,70,0
9480,note_on,120,0,14,,,,,,,,,,11,,74,0
9480,note_on,120,0,8,,,,,,,,,,6,,58,0
9480,note_on,120,0,6,,,,,,,,,,4,,70,0
9480,note_on,120,0,5,,,,,,,,,,3,,77,0
9480,note_on,120,0,11,,,,,,,,,,8,,46,0
9480,note_on,120,0,3,,,,,,,,,,1,,74,0
9600,note_on,120,0,8,,,,,,,,,,6,,46,90
9600,note_on,120,0,6,,,,,,,,,,4,,65,90
9600,note_on,120,0,5,,,,,,,,,,3,,74,90
9600,note_on,120,0,11,,,,,,,,,,8,,34,90
9600,note_on,120,0,9,,,,,,,,,,7,,46,90
9600,note_on,120,0,2,,,,,,,,,,0,,70,90
9600,note_on,120,0,14,,,,,,,,,,11,,70,90
9600,note_on,120,0,7,,,,,,,,,,5,,65,90
9600,note_on,120,0,4,,,,,,,,,,2,,74,90
9600,note_on,120,0,3,,,,,,,,,,1,,70,90
9780,note_on,180,0,8,,,,,,,,,,6,,46,0
9780,note_on,180,0,9,,,,,,,,,,7,,46,0
9780,note_on,180,0,4,,,,,,,,,,2,,74,0
9780,note_on,180,0,14,,,,,,,,,,11,,70,0
9780,note_on,180,0,3,,,,,,,,,,1,,70,0
9780,note_on,180,0,6,,,,,,,,,,4,,65,0
9780,note_on,180,0,5,,,,,,,,,,3,,74,0
9780,note_on,180,0,7,,,,,,,,,,5,,65,0
9780,note_on,180,0,11,,,,,,,,,,8,,34,0
9780,note_on,180,0,2,,,,,,,,,,0,,70,0
9840,note_on,60,0,9,,,,,,,,,,7,,53,90
9840,note_on,60,0,6,,,,,,,,,,4,,57,90
9840,note_on,60,0,8,,,,,,,,,,6,,53,90
9840,note_on,60,0,5,,,,,,,,,,3,,72,90
9840,note_on,60,0,11,,,,,,,,,,8,,41,90
9840,note_on,60,0,7,,,,,,,,,,5,,57,90
9840,note_on,60,0,4,,,,,,,,,,2,,72,90
9840,note_on,60,0,14,,,,,,,,,,11,,65,90
9840,note_on,60,0,3,,,,,,,,,,1,,65,90
9840,note_on,60,0,2,,,,,,,,,,0,,65,90
9930,note_on,90,0,9,,,,,,,,,,7,,53,0
9930,note_on,90,0,11,,,,,,,,,,8,,41,0
9930,note_on,90,0,8,,,,,,,,,,6,,53,0
9960,note_on,30,0,11,,,,,,,,,,8,,39,90
9960,note_on,30,0,9,,,,,,,,,,7,,51,90
9960,note_on,30,0,8,,,,,,,,,,6,,51,90
10080,note_on,120,0,9,,,,,,,,,,7,,53,90
10080,note_on,120,0,8,,,,,,,,,,6,,53,90
10080,note_on,120,0,11,,,,,,,,,,8,,41,90
10090,note_on,10,0,8,,,,,,,,,,6,,51,0
10090,note_on,10,0,11,,,,,,,,,,8,,39,0
10090,note_on,10,0,9,,,,,,,,,,7,,51,0
10190,note_on,100,0,8,,,,,,,,,,6,,53,0
10190,note_on,100,0,9,,,,,,,,,,7,,53,0
10190,note_on,100,0,11,,,,,,,,,,8,,41,0
10200,note_on,360,0,3,,,,,,,,,,1,,65,0
10200,note_on,10,0,8,,,,,,,,,,6,,55,90
10200,note_on,360,0,2,,,,,,,,,,0,,65,0
10200,note_on,360,0,4,,,,,,,,,,2,,72,0
10200,note_on,360,0,5,,,,,,,,,,3,,72,0
10200,note_on,10,0,11,,,,,,,,,,8,,43,90
10200,note_on,360,0,6,,,,,,,,,,4,,57,0
10200,note_on,10,0,9,,,,,,,,,,7,,55,90
10200,note_on,360,0,14,,,,,,,,,,11,,65,0
10200,note_on,360,0,7,,,,,,,,,,5,,57,0
10290,note_on,90,0,11,,,,,,,,,,8,,43,0
10290,note_on,90,0,9,,,,,,,,,,7,,55,0
10290,note_on,90,0,8,,,,,,,,,,6,,55,0
10320,note_on,30,0,11,,,,,,,,,,8,,41,90
10320,note_on,30,0,8,,,,,,,,,,6,,53,90
10320,note_on,30,0,9,,,,,,,,,,7,,53,90
10440,note_on,120,0,9,,,,,,,,,,7,,51,90
10440,note_on,120,0,11,,,,,,,,,,8,,39,90
10440,note_on,120,0,8,,,,,,,,,,6,,51,90
10450,note_on,10,0,8,,,,,,,,,,6,,53,0
10450,note_on,10,0,11,,,,,,,,,,8,,41,0
10450,note_on,10,0,9,,,,,,,,,,7,,53,0
10550,note_on,100,0,8,,,,,,,,,,6,,51,0
10550,note_on,100,0,11,,,,,,,,,,8,,39,0
10550,note_on,100,0,9,,,,,,,,,,7,,51,0
10560,note_on,10,0,8,,,,,,,,,,6,,50,90
10560,note_on,360,0,3,,,,,,,,,,1,,70,90
10560,note_on,10,0,11,,,,,,,,,,8,,38,90
10560,note_on,360,0,2,,,,,,,,,,0,,70,90
10560,note_on,10,0,9,,,,,,,,,,7,,50,90
10560,note_on,360,0,14,,,,,,,,,,11,,70,90
10650,note_on,90,0,8,,,,,,,,,,6,,50,0
10650,note_on,90,0,11,,,,,,,,,,8,,38,0
10650,note_on,90,0,9,,,,,,,,,,7,,50,0
10680,note_on,30,0,11,,,,,,,,,,8,,36,90
10680,note_on,30,0,9,,,,,,,,,,7,,48,90
10680,note_on,120,0,3,,,,,,,,,,1,,70,0
10680,note_on,120,0,2,,,,,,,,,,0,,70,0
10680,note_on,120,0,14,,,,,,,,,,11,,70,0
10680,note_on,30,0,8,,,,,,,,,,6,,48,90
10770,note_on,90,0,8,,,,,,,,,,6,,48,0
10770,note_on,90,0,9,,,,,,,,,,7,,48,0
10770,note_on,90,0,11,,,,,,,,,,8,,36,0
10800,note_on,30,0,8,,,,,,,,,,6,,46,90
10800,note_on,600,0,7,,,,,,,,,,5,,70,90
10800,note_on,30,0,11,,,,,,,,,,8,,34,90
10800,note_on,120,0,14,,,,,,,,,,11,,65,90
10800,note_on,600,0,6,,,,,,,,,,4,,70,90
10800,note_on,600,0,5,,,,,,,,,,3,,74,90
10800,note_on,600,0,4,,,,,,,,,,2,,74,90
10800,note_on,120,0,3,,,,,,,,,,1,,65,90
10800,note_on,30,0,9,,,,,,,,,,7,,46,90
10800,note_on,120,0,2,,,,,,,,,,0,,65,90
10890,note_on,90,0,7,,,,,,,,,,5,,70,0
10890,note_on,90,0,5,,,,,,,,,,3,,74,0
10890,note_on,90,0,6,,,,,,,,,,4,,70,0
10890,note_on,90,0,4,,,,,,,,,,2,,74,0
10920,note_on,30,0,5,,,,,,,,,,3,,72,90
10920,note_on,30,0,6,,,,,,,,,,4,,69,90
10920,note_on,30,0,7,,,,,,,,,,5,,69,90
10920,note_on,30,0,4,,,,,,,,,,2,,72,90
10920,note_on,120,0,3,,,,,,,,,,1,,65,0
10920,note_on,120,0,14,,,,,,,,,,11,,65,0
10920,note_on,120,0,2,,,,,,,,,,0,,65,0
11040,note_on,120,0,2,,,,,,,,,,0,,70,90
11040,note_on,120,0,7,,,,,,,,,,5,,70,90
11040,note_on,240,0,9,,,,,,,,,,7,,46,0
11040,note_on,120,0,4,,,,,,,,,,2,,74,90
11040,note_on,120,0,14,,,,,,,,,,11,,70,90
11040,note_on,240,0,11,,,,,,,,,,8,,34,0
11040,note_on,240,0,8,,,,,,,,,,6,,46,0
11040,note_on,120,0,6,,,,,,,,,,4,,70,90
11040,note_on,120,0,5,,,,,,,,,,3,,74,90
11040,note_on,120,0,3,,,,,,,,,,1,,70,90
11050,note_on,10,0,5,,,,,,,,,,3,,72,0
11050,note_on,10,0,7,,,,,,,,,,5,,69,0
11050,note_on,10,0,4,,,,,,,,,,2,,72,0
11050,note_on,10,0,6,,,,,,,,,,4,,69,0
11150,note_on,100,0,5,,,,,,,,,,3,,74,0
11150,note_on,100,0,6,,,,,,,,,,4,,70,0
11150,note_on,100,0,7,,,,,,,,,,5,,70,0
11150,note_on,100,0,4,,,,,,,,,,2,,74,0
11160,note_on,10,0,4,,,,,,,,,,2,,75,90
11160,note_on,10,0,5,,,,,,,,,,3,,75,90
11160,note_on,10,0,6,,,,,,,,,,4,,72,90
11160,note_on,10,0,7,,,,,,,,,,5,,72,90
11220,note_on,180,0,2,,,,,,,,,,0,,70,0
11220,note_on,180,0,14,,,,,,,,,,11,,70,0
11220,note_on,180,0,3,,,,,,,,,,1,,70,0
11250,note_on,90,0,4,,,,,,,,,,2,,75,0
11250,note_on,90,0,5,,,,,,,,,,3,,75,0
11250,note_on,90,0,7,,,,,,,,,,5,,72,0
11250,note_on,90,0,6,,,,,,,,,,4,,72,0
11280,note_on,30,0,7,,,,,,,,,,5,,74,90
11280,note_on,60,0,14,,,,,,,,,,11,,62,90
11280,note_on,60,0,3,,,,,,,,,,1,,62,90
11280,note_on,240,0,9,,,,,,,,,,7,,58,90
11280,note_on,240,0,8,,,,,,,,,,6,,58,90
11280,note_on,30,0,5,,,,,,,,,,3,,77,90
11280,note_on,30,0,6,,,,,,,,,,4,,74,90
11280,note_on,30,0,4,,,,,,,,,,2,,77,90
11280,note_on,60,0,2,,,,,,,,,,0,,62,90
11280,note_on,240,0,11,,,,,,,,,,8,,46,90
11400,note_on,120,0,3,,,,,,,,,,1,,62,0
11400,note_on,120,0,8,,,,,,,,,,6,,58,0
11400,note_on,120,0,7,,,,,,,,,,5,,74,0
11400,note_on,120,0,2,,,,,,,,,,0,,62,0
11400,note_on,120,0,6,,,,,,,,,,4,,74,0
11400,note_on,120,0,9,,,,,,,,,,7,,58,0
11400,note_on,120,0,5,,,,,,,,,,3,,77,0
11400,note_on,120,0,14,,,,,,,,,,11,,62,0
11400,note_on,120,0,11,,,,,,,,,,8,,46,0
11400,note_on,120,0,4,,,,,,,,,,2,,77,0
11520,note_on,120,0,5,,,,,,,,,,3,,65,90
11520,note_on,120,0,6,,,,,,,,,,4,,62,90
11520,note_on,120,0,3,,,,,,,,,,1,,70,90
11520,note_on,120,0,8,,,,,,,,,,6,,46,90
11520,note_on,120,0,11,,,,,,,,,,8,,34,90
11520,note_on,120,0,2,,,,,,,,,,0,,70,90
11520,note_on,120,0,9,,,,,,,,,,7,,46,90
11520,note_on,120,0,14,,,,,,,,,,11,,70,90
11520,note_on,120,0,4,,,,,,,,,,2,,65,90
11520,note_on,120,0,7,,,,,,,,,,5,,62,90
11700,note_on,180,0,4,,,,,,,,,,2,,65,0
11700,note_on,180,0,14,,,,,,,,,,11,,70,0
11700,note_on,180,0,5,,,,,,,,,,3,,65,0
11700,note_on,180,0,6,,,,,,,,,,4,,62,0
11700,note_on,180,0,9,,,,,,,,,,7,,46,0
11700,note_on,180,0,7,,,,,,,,,,5,,62,0
11700,note_on,180,0,3,,,,,,,,,,1,,70,0
11700,note_on,180,0,11,,,,,,,,,,8,,34,0
11700,note_on,180,0,2,,,,,,,,,,0,,70,0
11700,note_on,180,0,8,,,,,,,,,,6,,46,0
11760,note_on,60,0,3,,,,,,,,,,1,,80,90
11760,note_on,60,0,14,,,,,,,,,,11,,80,90
11760,note_on,60,0,2,,,,,,,,,,0,,80,90
11760,note_on,60,0,4,,,,,,,,,,2,,77,90
11760,note_on,60,0,5,,,,,,,,,,3,,77,90
12000,note_on,240,0,14,,,,,,,,,,11,,80,0
12000,note_on,240,0,3,,,,,,,,,,1,,80,0
12000,note_on,240,0,5,,,,,,,,,,3,,77,0
12000,note_on,240,0,4,,,,,,,,,,2,,77,0
12000,note_on,240,0,2,,,,,,,,,,0,,80,0
12240,note_on,540,0,8,,,,,,,,,,6,,58,90
12240,note_on,240,0,4,,,,,,,,,,2,,75,90
12240,note_on,240,0,5,,,,,,,,,,3,,75,90
12240,note_on,240,0,14,,,,,,,,,,11,,79,90
12240,note_on,240,0,2,,,,,,,,,,0,,79,90
12240,note_on,540,0,11,,,,,,,,,,8,,46,90
12240,note_on,240,0,3,,,,,,,,,,1,,79,90
12240,note_on,540,0,9,,,,,,,,,,7,,58,90
12360,note_on,120,0,8,,,,,,,,,,6,,58,0
12360,note_on,120,0,11,,,,,,,,,,8,,46,0
12360,note_on,120,0,9,,,,,,,,,,7,,58,0
12420,note_on,180,0,2,,,,,,,,,,0,,79,0
12420,note_on,180,0,14,,,,,,,,,,11,,79,0
12420,note_on,180,0,3,,,,,,,,,,1,,79,0
12480,note_on,120,0,11,,,,,,,,,,8,,34,90
12480,note_on,120,0,9,,,,,,,,,,7,,46,90
12480,note_on,60,0,2,,,,,,,,,,0,,70,90
12480,note_on,60,0,3,,,,,,,,,,1,,70,90
12480,note_on,60,0,14,,,,,,,,,,11,,70,90
12480,note_on,120,0,8,,,,,,,,,,6,,46,90
12600,note_on,120,0,2,,,,,,,,,,0,,70,0
12600,note_on,120,0,14,,,,,,,,,,11,,70,0
12600,note_on,360,0,4,,,,,,,,,,2,,75,0
12600,note_on,120,0,3,,,,,,,,,,1,,70,0
12600,note_on,360,0,5,,,,,,,,,,3,,75,0
12660,note_on,180,0,9,,,,,,,,,,7,,46,0
12660,note_on,180,0,8,,,,,,,,,,6,,46,0
12660,note_on,180,0,11,,,,,,,,,,8,,34,0
12720,note_on,120,0,3,,,,,,,,,,1,,65,90
12720,note_on,1020,0,7,,,,,,,,,,5,,70,90
12720,note_on,1020,0,6,,,,,,,,,,4,,70,90
12720,note_on,120,0,4,,,,,,,,,,2,,74,90
12720,note_on,120,0,14,,,,,,,,,,11,,65,90
12720,note_on,120,0,5,,,,,,,,,,3,,74,90
12720,note_on,120,0,2,,,,,,,,,,0,,65,90
12810,note_on,90,0,7,,,,,,,,,,5,,70,0
12810,note_on,90,0,5,,,,,,,,,,3,,74,0
12810,note_on,90,0,6,,,,,,,,,,4,,70,0
12810,note_on,90,0,4,,,,,,,,,,2,,74,0
12840,note_on,30,0,7,,,,,,,,,,5,,69,90
12840,note_on,30,0,4,,,,,,,,,,2,,72,90
12840,note_on,30,0,6,,,,,,,,,,4,,69,90
12840,note_on,30,0,5,,,,,,,,,,3,,72,90
12840,note_on,120,0,14,,,,,,,,,,11,,65,0
12840,note_on,120,0,2,,,,,,,,,,0,,65,0
12840,note_on,120,0,3,,,,,,,,,,1,,65,0
12960,note_on,120,0,5,,,,,,,,,,3,,74,90
12960,note_on,120,0,14,,,,,,,,,,11,,70,90
12960,note_on,120,0,4,,,,,,,,,,2,,74,90
12960,note_on,120,0,6,,,,,,,,,,4,,70,90
12960,note_on,120,0,7,,,,,,,,,,5,,70,90
12960,note_on,120,0,2,,,,,,,,,,0,,70,90
12960,note_on,120,0,3,,,,,,,,,,1,,70,90
12970,note_on,10,0,6,,,,,,,,,,4,,69,0
12970,note_on,10,0,7,,,,,,,,,,5,,69,0
12970,note_on,10,0,5,,,,,,,,,,3,,72,0
12970,note_on,10,0,4,,,,,,,,,,2,,72,0
13070,note_on,100,0,4,,,,,,,,,,2,,74,0
13070,note_on,100,0,5,,,,,,,,,,3,,74,0
13070,note_on,100,0,6,,,,,,,,,,4,,70,0
13070,note_on,100,0,7,,,,,,,,,,5,,70,0
13080,note_on,10,0,4,,,,,,,,,,2,,75,90
13080,note_on,10,0,5,,,,,,,,,,3,,75,90
13080,note_on,10,0,7,,,,,,,,,,5,,72,90
13080,note_on,10,0,6,,,,,,,,,,4,,72,90
13140,note_on,180,0,14,,,,,,,,,,11,,70,0
13140,note_on,180,0,2,,,,,,,,,,0,,70,0
13140,note_on,180,0,3,,,,,,,,,,1,,70,0
13170,note_on,90,0,4,,,,,,,,,,2,,75,0
13170,note_on,90,0,7,,,,,,,,,,5,,72,0
13170,note_on,90,0,6,,,,,,,,,,4,,72,0
13170,note_on,90,0,5,,,,,,,,,,3,,75,0
13200,note_on,30,0,4,,,,,,,,,,2,,77,90
13200,note_on,540,0,9,,,,,,,,,,7,,58,90
13200,note_on,30,0,6,,,,,,,,,,4,,74,90
13200,note_on,30,0,5,,,,,,,,,,3,,77,90
13200,note_on,60,0,2,,,,,,,,,,0,,62,90
13200,note_on,540,0,11,,,,,,,,,,8,,46,90
13200,note_on,60,0,3,,,,,,,,,,1,,62,90
13200,note_on,30,0,7,,,,,,,,,,5,,74,90
13200,note_on,540,0,8,,,,,,,,,,6,,58,90
13200,note_on,60,0,14,,,,,,,,,,11,,62,90
13320,note_on,120,0,2,,,,,,,,,,0,,62,0
13320,note_on,120,0,14,,,,,,,,,,11,,62,0
13320,note_on,120,0,3,,,,,,,,,,1,,62,0
13320,note_on,120,0,8,,,,,,,,,,6,,58,0
13320,note_on,120,0,7,,,,,,,,,,5,,74,0
13320,note_on,120,0,9,,,,,,,,,,7,,58,0
13320,note_on,120,0,6,,,,,,,,,,4,,74,0
13320,note_on,120,0,11,,,,,,,,,,8,,46,0
13320,note_on,120,0,4,,,,,,,,,,2,,77,0
13320,note_on,120,0,5,,,,,,,,,,3,,77,0
13440,note_on,120,0,4,,,,,,,,,,2,,65,90
13440,note_on,120,0,7,,,,,,,,,,5,,62,90
13440,note_on,120,0,9,,,,,,,,,,7,,46,90
13440,note_on,120,0,2,,,,,,,,,,0,,70,90
13440,note_on,120,0,3,,,,,,,,,,1,,70,90
13440,note_on,120,0,6,,,,,,,,,,4,,62,90
13440,note_on,120,0,14,,,,,,,,,,11,,70,90
13440,note_on,120,0,5,,,,,,,,,,3,,65,90
13440,note_on,120,0,8,,,,,,,,,,6,,46,90
13440,note_on,120,0,11,,,,,,,,,,8,,34,90
13620,note_on,180,0,4,,,,,,,,,,2,,65,0
13620,note_on,180,0,14,,,,,,,,,,11,,70,0
13620,note_on,180,0,5,,,,,,,,,,3,,65,0
13620,note_on,180,0,3,,,,,,,,,,1,,70,0
13620,note_on,180,0,7,,,,,,,,,,5,,62,0
13620,note_on,180,0,6,,,,,,,,,,4,,62,0
13620,note_on,180,0,11,,,,,,,,,,8,,34,0
13620,note_on,180,0,2,,,,,,,,,,0,,70,0
13620,note_on,180,0,9,,,,,,,,,,7,,46,0
13620,note_on,180,0,8,,,,,,,,,,6,,46,0
13680,note_on,60,0,14,,,,,,,,,,11,,79,90
13680,note_on,60,0,2,,,,,,,,,,0,,79,90
13680,note_on,60,0,4,,,,,,,,,,2,,75,90
13680,note_on,60,0,3,,,,,,,,,,1,,79,90
13680,note_on,60,0,5,,,,,,,,,,3,,75,90
13920,note_on,240,0,14,,,,,,,,,,11,,79,0
13920,note_on,240,0,3,,,,,,,,,,1,,79,0
13920,note_on,240,0,4,,,,,,,,,,2,,75,0
13920,note_on,240,0,5,,,,,,,,,,3,,75,0
13920,note_on,240,0,2,,,,,,,,,,0,,79,0
14160,note_on,240,0,2,,,,,,,,,,0,,77,90
14160,note_on,240,0,14,,,,,,,,,,11,,77,90
14160,note_on,240,0,5,,,,,,,,,,3,,74,90
14160,note_on,540,0,8,,,,,,,,,,6,,58,90
14160,note_on,240,0,4,,,,,,,,,,2,,74,90
14160,note_on,240,0,3,,,,,,,,,,1,,77,90
14160,note_on,540,0,9,,,,,,,,,,7,,58,90
14160,note_on,540,0,11,,,,,,,,,,8,,46,90
14280,note_on,120,0,8,,,,,,,,,,6,,58,0
14280,note_on,120,0,9,,,,,,,,,,7,,58,0
14280,note_on,120,0,11,,,,,,,,,,8,,46,0
14340,note_on,180,0,3,,,,,,,,,,1,,77,0
14340,note_on,180,0,2,,,,,,,,,,0,,77,0
14340,note_on,180,0,14,,,,,,,,,,11,,77,0
14400,note_on,120,0,9,,,,,,,,,,7,,46,90
14400,note_on,60,0,2,,,,,,,,,,0,,70,90
14400,note_on,60,0,14,,,,,,,,,,11,,70,90
14400,note_on,60,0,3,,,,,,,,,,1,,70,90
14400,note_on,120,0,8,,,,,,,,,,6,,46,90
14400,note_on,120,0,11,,,,,,,,,,8,,34,90
14520,note_on,120,0,14,,,,,,,,,,11,,70,0
14520,note_on,360,0,4,,,,,,,,,,2,,74,0
14520,note_on,360,0,5,,,,,,,,,,3,,74,0
14520,note_on,120,0,3,,,,,,,,,,1,,70,0
14520,note_on,120,0,2,,,,,,,,,,0,,70,0
14580,note_on,180,0,9,,,,,,,,,,7,,46,0
14580,note_on,180,0,8,,,,,,,,,,6,,46,0
14580,note_on,180,0,11,,,,,,,,,,8,,34,0
14640,note_on,120,0,14,,,,,,,,,,11,,65,90
14640,note_on,1020,0,6,,,,,,,,,,4,,70,90
14640,note_on,120,0,3,,,,,,,,,,1,,65,90
14640,note_on,120,0,4,,,,,,,,,,2,,74,90
14640,note_on,120,0,5,,,,,,,,,,3,,74,90
14640,note_on,1020,0,7,,,,,,,,,,5,,70,90
14640,note_on,120,0,2,,,,,,,,,,0,,65,90
14730,note_on,90,0,5,,,,,,,,,,3,,74,0
14730,note_on,90,0,4,,,,,,,,,,2,,74,0
14730,note_on,90,0,7,,,,,,,,,,5,,70,0
14730,note_on,90,0,6,,,,,,,,,,4,,70,0
14760,note_on,30,0,4,,,,,,,,,,2,,72,90
14760,note_on,120,0,3,,,,,,,,,,1,,65,0
14760,note_on,30,0,7,,,,,,,,,,5,,69,90
14760,note_on,30,0,5,,,,,,,,,,3,,72,90
14760,note_on,30,0,6,,,,,,,,,,4,,69,90
14760,note_on,120,0,2,,,,,,,,,,0,,65,0
14760,note_on,120,0,14,,,,,,,,,,11,,65,0
14880,note_on,120,0,4,,,,,,,,,,2,,74,90
14880,note_on,120,0,3,,,,,,,,,,1,,70,90
14880,note_on,120,0,6,,,,,,,,,,4,,70,90
14880,note_on,120,0,5,,,,,,,,,,3,,74,90
14880,note_on,120,0,14,,,,,,,,,,11,,70,90
14880,note_on,120,0,2,,,,,,,,,,0,,70,90
14880,note_on,120,0,7,,,,,,,,,,5,,70,90
14890,note_on,10,0,5,,,,,,,,,,3,,72,0
14890,note_on,10,0,4,,,,,,,,,,2,,72,0
14890,note_on,10,0,6,,,,,,,,,,4,,69,0
14890,note_on,10,0,7,,,,,,,,,,5,,69,0
14990,note_on,100,0,6,,,,,,,,,,4,,70,0
14990,note_on,100,0,4,,,,,,,,,,2,,74,0
14990,note_on,100,0,5,,,,,,,,,,3,,74,0
14990,note_on,100,0,7,,,,,,,,,,5,,70,0
15000,note_on,10,0,4,,,,,,,,,,2,,75,90
15000,note_on,10,0,6,,,,,,,,,,4,,72,90
15000,note_on,10,0,7,,,,,,,,,,5,,72,90
15000,note_on,10,0,5,,,,,,,,,,3,,75,90
15060,note_on,180,0,2,,,,,,,,,,0,,70,0
15060,note_on,180,0,14,,,,,,,,,,11,,70,0
15060,note_on,180,0,3,,,,,,,,,,1,,70,0
15090,note_on,90,0,4,,,,,,,,,,2,,75,0
15090,note_on,90,0,5,,,,,,,,,,3,,75,0
15090,note_on,90,0,6,,,,,,,,,,4,,72,0
15090,note_on,90,0,7,,,,,,,,,,5,,72,0
15120,note_on,540,0,8,,,,,,,,,,6,,58,90
15120,note_on,30,0,7,,,,,,,,,,5,,74,90
15120,note_on,60,0,3,,,,,,,,,,1,,62,90
15120,note_on,60,0,14,,,,,,,,,,11,,62,90
15120,note_on,30,0,5,,,,,,,,,,3,,77,90
15120,note_on,30,0,6,,,,,,,,,,4,,74,90
15120,note_on,30,0,4,,,,,,,,,,2,,77,90
15120,note_on,60,0,2,,,,,,,,,,0,,62,90
15120,note_on,540,0,9,,,,,,,,,,7,,58,90
15120,note_on,540,0,11,,,,,,,,,,8,,46,90
15240,note_on,120,0,7,,,,,,,,,,5,,74,0
15240,note_on,120,0,8,,,,,,,,,,6,,58,0
15240,note_on,120,0,11,,,,,,,,,,8,,46,0
15240,note_on,120,0,5,,,,,,,,,,3,,77,0
15240,note_on,120,0,9,,,,,,,,,,7,,58,0
15240,note_on,120,0,14,,,,,,,,,,11,,62,0
15240,note_on,120,0,6,,,,,,,,,,4,,74,0
15240,note_on,120,0,4,,,,,,,,,,2,,77,0
15240,note_on,120,0,2,,,,,,,,,,0,,62,0
15240,note_on,120,0,3,,,,,,,,,,1,,62,0
15360,note_on,120,0,7,,,,,,,,,,5,,62,90
15360,note_on,120,0,8,,,,,,,,,,6,,46,90
15360,note_on,120,0,9,,,,,,,,,,7,,46,90
15360,note_on,120,0,4,,,,,,,,,,2,,65,90
15360,note_on,120,0,11,,,,,,,,,,8,,34,90
15360,note_on,120,0,14,,,,,,,,,,11,,70,90
15360,note_on,120,0,3,,,,,,,,,,1,,70,90
15360,note_on,120,0,2,,,,,,,,,,0,,70,90
15360,note_on,120,0,5,,,,,,,,,,3,,65,90
15360,note_on,120,0,6,,,,,,,,,,4,,62,90
15540,note_on,180,0,3,,,,,,,,,,1,,70,0
15540,note_on,180,0,4,,,,,,,,,,2,,65,0
15540,note_on,180,0,8,,,,,,,,,,6,,46,0
15540,note_on,180,0,11,,,,,,,,,,8,,34,0
15540,note_on,180,0,14,,,,,,,,,,11,,70,0
15540,note_on,180,0,2,,,,,,,,,,0,,70,0
15540,note_on,180,0,5,,,,,,,,,,3,,65,0
15540,note_on,180,0,6,,,,,,,,,,4,,62,0
15540,note_on,180,0,7,,,,,,,,,,5,,62,0
15540,note_on,180,0,9,,,,,,,,,,7,,46,0
15600,note_on,60,0,7,,,,,,,,,,5,,67,90
15600,note_on,60,0,3,,,,,,,,,,1,,79,90
15600,note_on,60,0,4,,,,,,,,,,2,,75,90
15600,note_on,60,0,5,,,,,,,,,,3,,75,90
15600,note_on,60,0,8,,,,,,,,,,6,,51,90
15600,note_on,60,0,2,,,,,,,,,,0,,79,90
15600,note_on,60,0,6,,,,,,,,,,4,,67,90
15600,note_on,60,0,11,,,,,,,,,,8,,39,90
15600,note_on,60,0,14,,,,,,,,,,11,,79,90
15600,note_on,60,0,9,,,,,,,,,,7,,51,90
15720,note_on,120,0,11,,,,,,,,,,8,,39,0
15720,note_on,120,0,8,,,,,,,,,,6,,51,0
15720,note_on,120,0,7,,,,,,,,,,5,,67,0
15720,note_on,120,0,9,,,,,,,,,,7,,51,0
15720,note_on,120,0,6,,,,,,,,,,4,,67,0
15840,note_on,240,0,14,,,,,,,,,,11,,79,0
15840,note_on,240,0,5,,,,,,,,,,3,,75,0
15840,note_on,240,0,2,,,,,,,,,,0,,79,0
15840,note_on,240,0,4,,,,,,,,,,2,,75,0
15840,note_on,120,0,7,,,,,,,,,,5,,69,90
15840,note_on,120,0,11,,,,,,,,,,8,,41,90
15840,note_on,120,0,6,,,,,,,,,,4,,69,90
15840,note_on,120,0,8,,,,,,,,,,6,,53,90
15840,note_on,240,0,3,,,,,,,,,,1,,79,0
15840,note_on,120,0,9,,,,,,,,,,7,,53,90
16020,note_on,180,0,11,,,,,,,,,,8,,41,0
16020,note_on,180,0,9,,,,,,,,,,7,,53,0
16020,note_on,180,0,8,,,,,,,,,,6,,53,0
16020,note_on,180,0,7,,,,,,,,,,5,,69,0
16020,note_on,180,0,6,,,,,,,,,,4,,69,0
16080,note_on,60,0,8,,,,,,,,,,6,,55,90
16080,note_on,60,0,11,,,,,,,,,,8,,43,90
16080,note_on,240,0,4,,,,,,,,,,2,,74,90
16080,note_on,60,0,9,,,,,,,,,,7,,55,90
16080,note_on,240,0,14,,,,,,,,,,11,,77,90
16080,note_on,240,0,5,,,,,,,,,,3,,74,90
16080,note_on,60,0,6,,,,,,,,,,4,,70,90
16080,note_on,60,0,7,,,,,,,,,,5,,70,90
16080,note_on,240,0,2,,,,,,,,,,0,,77,90
16080,note_on,240,0,3,,,,,,,,,,1,,77,90
16200,note_on,120,0,9,,,,,,,,,,7,,55,0
16200,note_on,120,0,7,,,,,,,,,,5,,70,0
16200,note_on,120,0,11,,,,,,,,,,8,,43,0
16200,note_on,120,0,3,,,,,,,,,,1,,77,0
16200,note_on,120,0,14,,,,,,,,,,11,,77,0
16200,note_on,120,0,5,,,,,,,,,,3,,74,0
16200,note_on,120,0,8,,,,,,,,,,6,,55,0
16200,note_on,120,0,4,,,,,,,,,,2,,74,0
16200,note_on,120,0,2,,,,,,,,,,0,,77,0
16200,note_on,120,0,6,,,,,,,,,,4,,70,0
16320,note_on,120,0,8,,,,,,,,,,6,,57,90
16320,note_on,120,0,4,,,,,,,,,,2,,72,90
16320,note_on,120,0,14,,,,,,,,,,11,,75,90
16320,note_on,120,0,9,,,,,,,,,,7,,57,90
16320,note_on,120,0,6,,,,,,,,,,4,,72,90
16320,note_on,120,0,7,,,,,,,,,,5,,72,90
16320,note_on,120,0,5,,,,,,,,,,3,,72,90
16320,note_on,120,0,2,,,,,,,,,,0,,75,90
16320,note_on,120,0,3,,,,,,,,,,1,,75,90
16320,note_on,120,0,11,,,,,,,,,,8,,45,90
16500,note_on,180,0,5,,,,,,,,,,3,,72,0
16500,note_on,180,0,11,,,,,,,,,,8,,45,0
16500,note_on,180,0,9,,,,,,,,,,7,,57,0
16500,note_on,180,0,2,,,,,,,,,,0,,75,0
16500,note_on,180,0,4,,,,,,,,,,2,,72,0
16500,note_on,180,0,8,,,,,,,,,,6,,57,0
16500,note_on,180,0,3,,,,,,,,,,1,,75,0
16500,note_on,180,0,6,,,,,,,,,,4,,72,0
16500,note_on,180,0,14,,,,,,,,,,11,,75,0
16500,note_on,180,0,7,,,,,,,,,,5,,72,0
16560,note_on,60,0,6,,,,,,,,,,4,,65,90
16560,note_on,60,0,9,,,,,,,,,,7,,58,90
16560,note_on,60,0,4,,,,,,,,,,2,,70,90
16560,note_on,60,0,11,,,,,,,,,,8,,46,90
16560,note_on,60,0,5,,,,,,,,,,3,,70,90
16560,note_on,60,0,2,,,,,,,,,,0,,74,90
16560,note_on,60,0,7,,,,,,,,,,5,,65,90
16560,note_on,60,0,8,,,,,,,,,,6,,58,90
16560,note_on,60,0,3,,,,,,,,,,1,,74,90
16560,note_on,60,0,14,,,,,,,,,,11,,74,90
16680,note_on,120,0,9,,,,,,,,,,7,,58,0
16680,note_on,120,0,11,,,,,,,,,,8,,46,0
16680,note_on,120,0,3,,,,,,,,,,1,,74,0
16680,note_on,120,0,4,,,,,,,,,,2,,70,0
16680,note_on,120,0,2,,,,,,,,,,0,,74,0
16680,note_on,120,0,8,,,,,,,,,,6,,58,0
16680,note_on,120,0,5,,,,,,,,,,3,,70,0
16680,note_on,120,0,7,,,,,,,,,,5,,65,0
16680,note_on,120,0,6,,,,,,,,,,4,,65,0
16680,note_on,120,0,14,,,,,,,,,,11,,74,0
16800,note_on,120,0,11,,,,,,,,,,8,,34,90
16800,note_on,120,0,2,,,,,,,,,,0,,72,90
16800,note_on,120,0,14,,,,,,,,,,11,,72,90
16800,note_on,120,0,3,,,,,,,,,,1,,72,90
16800,note_on,120,0,5,,,,,,,,,,3,,62,90
16800,note_on,120,0,7,,,,,,,,,,5,,53,90
16800,note_on,120,0,9,,,,,,,,,,7,,46,90
16800,note_on,120,0,4,,,,,,,,,,2,,62,90
16800,note_on,120,0,8,,,,,,,,,,6,,46,90
16800,note_on,120,0,6,,,,,,,,,,4,,53,90
16910,note_on,110,0,3,,,,,,,,,,1,,72,0
16910,note_on,110,0,14,,,,,,,,,,11,,72,0
16910,note_on,110,0,2,,,,,,,,,,0,,72,0
16920,note_on,10,0,14,,,,,,,,,,11,,70,90
16920,note_on,10,0,2,,,,,,,,,,0,,70,90
16920,note_on,10,0,3,,,,,,,,,,1,,70,90
16980,note_on,180,0,11,,,,,,,,,,8,,34,0
16980,note_on,180,0,4,,,,,,,,,,2,,62,0
16980,note_on,180,0,8,,,,,,,,,,6,,46,0
16980,note_on,180,0,9,,,,,,,,,,7,,46,0
16980,note_on,180,0,6,,,,,,,,,,4,,53,0
16980,note_on,180,0,7,,,,,,,,,,5,,53,0
16980,note_on,180,0,5,,,,,,,,,,3,,62,0
17010,note_on,90,0,3,,,,,,,,,,1,,70,0
17010,note_on,90,0,2,,,,,,,,,,0,,70,0
17010,note_on,90,0,14,,,,,,,,,,11,,70,0
17040,note_on,30,0,2,,,,,,,,,,0,,72,90
17040,note_on,60,0,6,,,,,,,,,,4,,55,90
17040,note_on,60,0,7,,,,,,,,,,5,,55,90
17040,note_on,60,0,4,,,,,,,,,,2,,63,90
17040,note_on,60,0,5,,,,,,,,,,3,,63,90
17040,note_on,60,0,11,,,,,,,,,,8,,27,90
17040,note_on,60,0,9,,,,,,,,,,7,,39,90
17040,note_on,30,0,3,,,,,,,,,,1,,72,90
17040,note_on,60,0,8,,,,,,,,,,6,,39,90
17040,note_on,30,0,14,,,,,,,,,,11,,72,90
17160,note_on,120,0,7,,,,,,,,,,5,,55,0
17160,note_on,120,0,11,,,,,,,,,,8,,27,0
17160,note_on,120,0,8,,,,,,,,,,6,,39,0
17160,note_on,120,0,6,,,,,,,,,,4,,55,0
17160,note_on,120,0,9,,,,,,,,,,7,,39,0
17160,note_on,120,0,3,,,,,,,,,,1,,72,0
17160,note_on,120,0,5,,,,,,,,,,3,,63,0
17160,note_on,120,0,4,,,,,,,,,,2,,63,0
17160,note_on,120,0,2,,,,,,,,,,0,,72,0
17160,note_on,120,0,14,,,,,,,,,,11,,72,0
17280,note_on,120,0,14,,,,,,,,,,11,,69,90
17280,note_on,120,0,7,,,,,,,,,,5,,53,90
17280,note_on,120,0,9,,,,,,,,,,7,,41,90
17280,note_on,120,0,6,,,,,,,,,,4,,53,90
17280,note_on,120,0,4,,,,,,,,,,2,,60,90
17280,note_on,120,0,3,,,,,,,,,,1,,69,90
17280,note_on,120,0,8,,,,,,,,,,6,,41,90
17280,note_on,120,0,2,,,,,,,,,,0,,69,90
17280,note_on,120,0,11,,,,,,,,,,8,,29,90
17280,note_on,120,0,5,,,,,,,,,,3,,60,90
17460,note_on,180,0,8,,,,,,,,,,6,,41,0
17460,note_on,180,0,7,,,,,,,,,,5,,53,0
17460,note_on,180,0,4,,,,,,,,,,2,,60,0
17460,note_on,180,0,3,,,,,,,,,,1,,69,0
17460,note_on,180,0,6,,,,,,,,,,4,,53,0
17460,note_on,180,0,9,,,,,,,,,,7,,41,0
17460,note_on,180,0,11,,,,,,,,,,8,,29,0
17460,note_on,180,0,2,,,,,,,,,,0,,69,0
17460,note_on,180,0,5,,,,,,,,,,3,,60,0
17460,note_on,180,0,14,,,,,,,,,,11,,69,0
17520,note_on,60,0,11,,,,,,,,,,8,,34,90
17520,note_on,60,0,7,,,,,,,,,,5,,53,90
17520,note_on,60,0,9,,,,,,,,,,7,,46,90
17520,note_on,60,0,5,,,,,,,,,,3,,58,90
17520,note_on,60,0,14,,,,,,,,,,11,,70,90
17520,note_on,60,0,3,,,,,,,,,,1,,70,90
17520,note_on,60,0,6,,,,,,,,,,4,,53,90
17520,note_on,60,0,4,,,,,,,,,,2,,58,90
17520,note_on,60,0,8,,,,,,,,,,6,,46,90
17520,note_on,60,0,2,,,,,,,,,,0,,70,90
17610,note_on,90,0,9,,,,,,,,,,7,,46,0
17610,note_on,90,0,11,,,,,,,,,,8,,34,0
17610,note_on,90,0,8,,,,,,,,,,6,,46,0
17640,note_on,30,0,9,,,,,,,,,,7,,45,90
17640,note_on,30,0,8,,,,,,,,,,6,,45,90
17640,note_on,30,0,11,,,,,,,,,,8,,33,90
17760,note_on,120,0,9,,,,,,,,,,7,,46,90
17760,note_on,120,0,8,,,,,,,,,,6,,46,90
17760,note_on,120,0,11,,,,,,,,,,8,,34,90
17770,note_on,10,0,9,,,,,,,,,,7,,45,0
17770,note_on,10,0,11,,,,,,,,,,8,,33,0
17770,note_on,10,0,8,,,,,,,,,,6,,45,0
17870,note_on,100,0,9,,,,,,,,,,7,,46,0
17870,note_on,100,0,8,,,,,,,,,,6,,46,0
17870,note_on,100,0,11,,,,,,,,,,8,,34,0
17880,note_on,360,0,3,,,,,,,,,,1,,70,0
17880,note_on,360,0,5,,,,,,,,,,3,,58,0
17880,note_on,360,0,4,,,,,,,,,,2,,58,0
17880,note_on,10,0,8,,,,,,,,,,6,,48,90
17880,note_on,360,0,6,,,,,,,,,,4,,53,0
17880,note_on,10,0,11,,,,,,,,,,8,,36,90
17880,note_on,10,0,9,,,,,,,,,,7,,48,90
17880,note_on,360,0,7,,,,,,,,,,5,,53,0
17880,note_on,360,0,14,,,,,,,,,,11,,70,0
17880,note_on,360,0,2,,,,,,,,,,0,,70,0
17970,note_on,90,0,9,,,,,,,,,,7,,48,0
17970,note_on,90,0,8,,,,,,,,,,6,,48,0
17970,note_on,90,0,11,,,,,,,,,,8,,36,0
18000,note_on,30,0,9,,,,,,,,,,7,,50,90
18000,note_on,30,0,8,,,,,,,,,,6,,50,90
18000,note_on,30,0,11,,,,,,,,,,8,,38,90
18120,note_on,120,0,9,,,,,,,,,,7,,50,0
18120,note_on,120,0,11,,,,,,,,,,8,,38,0
18120,note_on,120,0,8,,,,,,,,,,6,,50,0
18240,note_on,120,0,9,,,,,,,,,,7,,48,50
18240,note_on,120,0,8,,,,,,,,,,6,,48,50
18240,note_on,360,0,3,,,,,,,,,,1,,70,50
18240,note_on,360,0,14,,,,,,,,,,11,,70,50
18240,note_on,360,0,2,,,,,,,,,,0,,70,50
18240,note_on,120,0,11,,,,,,,,,,8,,36,50
18360,note_on,120,0,3,,,,,,,,,,1,,70,0
18360,note_on,120,0,14,,,,,,,,,,11,,70,0
18360,note_on,120,0,2,,,,,,,,,,0,,70,0
18420,note_on,180,0,11,,,,,,,,,,8,,36,0
18420,note_on,180,0,9,,,,,,,,,,7,,48,0
18420,note_on,180,0,8,,,,,,,,,,6,,48,0
18480,note_on,60,0,8,,,,,,,,,,6,,46,50
18480,note_on,600,0,5,,,,,,,,,,3,,74,50
18480,note_on,600,0,4,,,,,,,,,,2,,74,50
18480,note_on,600,0,6,,,,,,,,,,4,,70,50
18480,note_on,60,0,9,,,,,,,,,,7,,46,50
18480,note_on,120,0,2,,,,,,,,,,0,,65,50
18480,note_on,120,0,14,,,,,,,,,,11,,65,50
18480,note_on,600,0,7,,,,,,,,,,5,,70,50
18480,note_on,120,0,3,,,,,,,,,,1,,65,50
18480,note_on,60,0,11,,,,,,,,,,8,,34,50
18570,note_on,90,0,5,,,,,,,,,,3,,74,0
18570,note_on,90,0,7,,,,,,,,,,5,,70,0
18570,note_on,90,0,6,,,,,,,,,,4,,70,0
18570,note_on,90,0,4,,,,,,,,,,2,,74,0
18600,note_on,120,0,14,,,,,,,,,,11,,65,0
18600,note_on,120,0,3,,,,,,,,,,1,,65,0
18600,note_on,30,0,5,,,,,,,,,,3,,72,50
18600,note_on,30,0,4,,,,,,,,,,2,,72,50
18600,note_on,120,0,2,,,,,,,,,,0,,65,0
18600,note_on,30,0,6,,,,,,,,,,4,,69,50
18600,note_on,30,0,7,,,,,,,,,,5,,69,50
18720,note_on,120,0,2,,,,,,,,,,0,,70,50
18720,note_on,240,0,8,,,,,,,,,,6,,46,0
18720,note_on,120,0,7,,,,,,,,,,5,,70,50
18720,note_on,120,0,5,,,,,,,,,,3,,74,50
18720,note_on,120,0,6,,,,,,,,,,4,,70,50
18720,note_on,240,0,9,,,,,,,,,,7,,46,0
18720,note_on,240,0,11,,,,,,,,,,8,,34,0
18720,note_on,120,0,4,,,,,,,,,,2,,74,50
18720,note_on,120,0,3,,,,,,,,,,1,,70,50
18720,note_on,120,0,14,,,,,,,,,,11,,70,50
18730,note_on,10,0,7,,,,,,,,,,5,,69,0
18730,note_on,10,0,6,,,,,,,,,,4,,69,0
18730,note_on,10,0,4,,,,,,,,,,2,,72,0
18730,note_on,10,0,5,,,,,,,,,,3,,72,0
18830,note_on,100,0,4,,,,,,,,,,2,,74,0
18830,note_on,100,0,7,,,,,,,,,,5,,70,0
18830,note_on,100,0,5,,,,,,,,,,3,,74,0
18830,note_on,100,0,6,,,,,,,,,,4,,70,0
18840,note_on,10,0,6,,,,,,,,,,4,,72,50
18840,note_on,10,0,5,,,,,,,,,,3,,75,50
18840,note_on,10,0,4,,,,,,,,,,2,,75,50
18840,note_on,10,0,7,,,,,,,,,,5,,72,50
18900,note_on,180,0,14,,,,,,,,,,11,,70,0
18900,note_on,180,0,2,,,,,,,,,,0,,70,0
18900,note_on,180,0,3,,,,,,,,,,1,,70,0
18930,note_on,90,0,6,,,,,,,,,,4,,72,0
18930,note_on,90,0,5,,,,,,,,,,3,,75,0
18930,note_on,90,0,7,,,,,,,,,,5,,72,0
18930,note_on,90,0,4,,,,,,,,,,2,,75,0
18960,note_on,60,0,2,,,,,,,,,,0,,62,50
18960,note_on,60,0,14,,,,,,,,,,11,,62,50
18960,note_on,240,0,9,,,,,,,,,,7,,58,50
18960,note_on,30,0,4,,,,,,,,,,2,,77,50
18960,note_on,240,0,8,,,,,,,,,,6,,58,50
18960,note_on,30,0,7,,,,,,,,,,5,,74,50
18960,note_on,60,0,3,,,,,,,,,,1,,62,50
18960,note_on,30,0,6,,,,,,,,,,4,,74,50
18960,note_on,30,0,5,,,,,,,,,,3,,77,50
18960,note_on,240,0,11,,,,,,,,,,8,,46,50
19080,note_on,120,0,5,,,,,,,,,,3,,77,0
19080,note_on,120,0,2,,,,,,,,,,0,,62,0
19080,note_on,120,0,3,,,,,,,,,,1,,62,0
19080,note_on,120,0,7,,,,,,,,,,5,,74,0
19080,note_on,120,0,6,,,,,,,,,,4,,74,0
19080,note_on,120,0,9,,,,,,,,,,7,,58,0
19080,note_on,120,0,14,,,,,,,,,,11,,62,0
19080,note_on,120,0,8,,,,,,,,,,6,,58,0
19080,note_on,120,0,4,,,,,,,,,,2,,77,0
19080,note_on,120,0,11,,,,,,,,,,8,,46,0
19200,note_on,120,0,14,,,,,,,,,,11,,70,50
19200,note_on,120,0,8,,,,,,,,,,6,,46,50
19200,note_on,120,0,11,,,,,,,,,,8,,34,50
19200,note_on,120,0,4,,,,,,,,,,2,,65,50
19200,note_on,120,0,3,,,,,,,,,,1,,70,50
19200,note_on,120,0,6,,,,,,,,,,4,,62,50
19200,note_on,120,0,9,,,,,,,,,,7,,46,50
19200,note_on,120,0,5,,,,,,,,,,3,,65,50
19200,note_on,120,0,2,,,,,,,,,,0,,70,50
19200,note_on,120,0,7,,,,,,,,,,5,,62,50
19380,note_on,180,0,14,,,,,,,,,,11,,70,0
19380,note_on,180,0,11,,,,,,,,,,8,,34,0
19380,note_on,180,0,2,,,,,,,,,,0,,70,0
19380,note_on,180,0,6,,,,,,,,,,4,,62,0
19380,note_on,180,0,7,,,,,,,,,,5,,62,0
19380,note_on,180,0,4,,,,,,,,,,2,,65,0
19380,note_on,180,0,5,,,,,,,,,,3,,65,0
19380,note_on,180,0,3,,,,,,,,,,1,,70,0
19380,note_on,180,0,9,,,,,,,,,,7,,46,0
19380,note_on,180,0,8,,,,,,,,,,6,,46,0
19440,note_on,60,0,2,,,,,,,,,,0,,80,50
19440,note_on,60,0,4,,,,,,,,,,2,,77,50
19440,note_on,60,0,5,,,,,,,,,,3,,77,50
19440,note_on,60,0,14,,,,,,,,,,11,,80,50
19440,note_on,60,0,3,,,,,,,,,,1,,80,50
19680,note_on,240,0,5,,,,,,,,,,3,,77,0
19680,note_on,240,0,14,,,,,,,,,,11,,80,0
19680,note_on,240,0,3,,,,,,,,,,1,,80,0
19680,note_on,240,0,2,,,,,,,,,,0,,80,0
19680,note_on,240,0,4,,,,,,,,,,2,,77,0
19920,note_on,240,0,3,,,,,,,,,,1,,79,50
19920,note_on,240,0,5,,,,,,,,,,3,,75,50
19920,note_on,540,0,11,,,,,,,,,,8,,46,50
19920,note_on,240,0,14,,,,,,,,,,11,,79,50
19920,note_on,540,0,9,,,,,,,,,,7,,58,50
19920,note_on,540,0,8,,,,,,,,,,6,,58,50
19920,note_on,240,0,4,,,,,,,,,,2,,75,50
19920,note_on,240,0,2,,,,,,,,,,0,,79,50
20040,note_on,120,0,9,,,,,,,,,,7,,58,0
20040,note_on,120,0,11,,,,,,,,,,8,,46,0
20040,note_on,120,0,8,,,,,,,,,,6,,58,0
20100,note_on,180,0,3,,,,,,,,,,1,,79,0
20100,note_on,180,0,14,,,,,,,,,,11,,79,0
20100,note_on,180,0,2,,,,,,,,,,0,,79,0
20160,note_on,120,0,11,,,,,,,,,,8,,34,50
20160,note_on,120,0,9,,,,,,,,,,7,,46,50
20160,note_on,120,0,8,,,,,,,,,,6,,46,50
20160,note_on,60,0,2,,,,,,,,,,0,,70,50
20160,note_on,60,0,3,,,,,,,,,,1,,70,50
20160,note_on,60,0,14,,,,,,,,,,11,,70,50
20280,note_on,360,0,4,,,,,,,,,,2,,75,0
20280,note_on,360,0,5,,,,,,,,,,3,,75,0
20280,note_on,120,0,3,,,,,,,,,,1,,70,0
20280,note_on,120,0,2,,,,,,,,,,0,,70,0
20280,note_on,120,0,14,,,,,,,,,,11,,70,0
20340,note_on,180,0,8,,,,,,,,,,6,,46,0
20340,note_on,180,0,11,,,,,,,,,,8,,34,0
20340,note_on,180,0,9,,,,,,,,,,7,,46,0
20400,note_on,120,0,2,,,,,,,,,,0,,65,50
20400,note_on,120,0,4,,,,,,,,,,2,,74,50
20400,note_on,120,0,3,,,,,,,,,,1,,65,50
20400,note_on,1020,0,6,,,,,,,,,,4,,70,50
20400,note_on,120,0,5,,,,,,,,,,3,,74,50
20400,note_on,1020,0,7,,,,,,,,,,5,,70,50
20400,note_on,120,0,14,,,,,,,,,,11,,65,50
20490,note_on,90,0,4,,,,,,,,,,2,,74,0
20490,note_on,90,0,5,,,,,,,,,,3,,74,0
20490,note_on,90,0,7,,,,,,,,,,5,,70,0
20490,note_on,90,0,6,,,,,,,,,,4,,70,0
20520,note_on,30,0,6,,,,,,,,,,4,,69,50
20520,note_on,120,0,3,,,,,,,,,,1,,65,0
20520,note_on,30,0,7,,,,,,,,,,5,,69,50
20520,note_on,30,0,4,,,,,,,,,,2,,72,50
20520,note_on,30,0,5,,,,,,,,,,3,,72,50
20520,note_on,120,0,2,,,,,,,,,,0,,65,0
20520,note_on,120,0,14,,,,,,,,,,11,,65,0
20640,note_on,120,0,7,,,,,,,,,,5,,70,50
20640,note_on,120,0,5,,,,,,,,,,3,,74,50
20640,note_on,120,0,2,,,,,,,,,,0,,70,50
20640,note_on,120,0,3,,,,,,,,,,1,,70,50
20640,note_on,120,0,6,,,,,,,,,,4,,70,50
20640,note_on,120,0,4,,,,,,,,,,2,,74,50
20640,note_on,120,0,14,,,,,,,,,,11,,70,50
20650,note_on,10,0,5,,,,,,,,,,3,,72,0
20650,note_on,10,0,6,,,,,,,,,,4,,69,0
20650,note_on,10,0,4,,,,,,,,,,2,,72,0
20650,note_on,10,0,7,,,,,,,,,,5,,69,0
20750,note_on,100,0,6,,,,,,,,,,4,,70,0
20750,note_on,100,0,4,,,,,,,,,,2,,74,0
20750,note_on,100,0,7,,,,,,,,,,5,,70,0
20750,note_on,100,0,5,,,,,,,,,,3,,74,0
20760,note_on,10,0,7,,,,,,,,,,5,,72,50
20760,note_on,10,0,6,,,,,,,,,,4,,72,50
20760,note_on,10,0,4,,,,,,,,,,2,,75,50
20760,note_on,10,0,5,,,,,,,,,,3,,75,50
20820,note_on,180,0,14,,,,,,,,,,11,,70,0
20820,note_on,180,0,3,,,,,,,,,,1,,70,0
20820,note_on,180,0,2,,,,,,,,,,0,,70,0
20850,note_on,90,0,7,,,,,,,,,,5,,72,0
20850,note_on,90,0,6,,,,,,,,,,4,,72,0
20850,note_on,90,0,4,,,,,,,,,,2,,75,0
20850,note_on,90,0,5,,,,,,,,,,3,,75,0
20880,note_on,30,0,5,,,,,,,,,,3,,77,50
20880,note_on,30,0,4,,,,,,,,,,2,,77,50
20880,note_on,30,0,6,,,,,,,,,,4,,74,50
20880,note_on,60,0,3,,,,,,,,,,1,,62,50
20880,note_on,60,0,2,,,,,,,,,,0,,62,50
20880,note_on,30,0,7,,,,,,,,,,5,,74,50
20880,note_on,540,0,11,,,,,,,,,,8,,46,50
20880,note_on,540,0,9,,,,,,,,,,7,,58,50
20880,note_on,60,0,14,,,,,,,,,,11,,62,50
20880,note_on,540,0,8,,,,,,,,,,6,,58,50
21000,note_on,120,0,7,,,,,,,,,,5,,74,0
21000,note_on,120,0,9,,,,,,,,,,7,,58,0
21000,note_on,120,0,5,,,,,,,,,,3,,77,0
21000,note_on,120,0,6,,,,,,,,,,4,,74,0
21000,note_on,120,0,11,,,,,,,,,,8,,46,0
21000,note_on,120,0,2,,,,,,,,,,0,,62,0
21000,note_on,120,0,8,,,,,,,,,,6,,58,0
21000,note_on,120,0,14,,,,,,,,,,11,,62,0
21000,note_on,120,0,4,,,,,,,,,,2,,77,0
21000,note_on,120,0,3,,,,,,,,,,1,,62,0
21120,note_on,120,0,11,,,,,,,,,,8,,34,50
21120,note_on,120,0,14,,,,,,,,,,11,,70,50
21120,note_on,120,0,8,,,,,,,,,,6,,46,50
21120,note_on,120,0,9,,,,,,,,,,7,,46,50
21120,note_on,120,0,4,,,,,,,,,,2,,65,50
21120,note_on,120,0,3,,,,,,,,,,1,,70,50
21120,note_on,120,0,6,,,,,,,,,,4,,62,50
21120,note_on,120,0,7,,,,,,,,,,5,,62,50
21120,note_on,120,0,2,,,,,,,,,,0,,70,50
21120,note_on,120,0,5,,,,,,,,,,3,,65,50
21300,note_on,180,0,14,,,,,,,,,,11,,70,0
21300,note_on,180,0,8,,,,,,,,,,6,,46,0
21300,note_on,180,0,3,,,,,,,,,,1,,70,0
21300,note_on,180,0,11,,,,,,,,,,8,,34,0
21300,note_on,180,0,7,,,,,,,,,,5,,62,0
21300,note_on,180,0,6,,,,,,,,,,4,,62,0
21300,note_on,180,0,5,,,,,,,,,,3,,65,0
21300,note_on,180,0,4,,,,,,,,,,2,,65,0
21300,note_on,180,0,9,,,,,,,,,,7,,46,0
21300,note_on,180,0,2,,,,,,,,,,0,,70,0
21360,note_on,60,0,5,,,,,,,,,,3,,75,50
21360,note_on,60,0,14,,,,,,,,,,11,,79,50
21360,note_on,60,0,2,,,,,,,,,,0,,79,50
21360,note_on,60,0,4,,,,,,,,,,2,,75,50
21360,note_on,60,0,3,,,,,,,,,,1,,79,50
21600,note_on,240,0,14,,,,,,,,,,11,,79,0
21600,note_on,240,0,5,,,,,,,,,,3,,75,0
21600,note_on,240,0,2,,,,,,,,,,0,,79,0
21600,note_on,240,0,3,,,,,,,,,,1,,79,0
21600,note_on,240,0,4,,,,,,,,,,2,,75,0
21840,note_on,540,0,11,,,,,,,,,,8,,46,50
21840,note_on,240,0,2,,,,,,,,,,0,,77,50
21840,note_on,540,0,9,,,,,,,,,,7,,58,50
21840,note_on,240,0,3,,,,,,,,,,1,,77,50
21840,note_on,540,0,8,,,,,,,,,,6,,58,50
21840,note_on,240,0,14,,,,,,,,,,11,,77,50
21840,note_on,240,0,4,,,,,,,,,,2,,74,50
21840,note_on,240,0,5,,,,,,,,,,3,,74,50
21960,note_on,120,0,11,,,,,,,,,,8,,46,0
21960,note_on,120,0,8,,,,,,,,,,6,,58,0
21960,note_on,120,0,9,,,,,,,,,,7,,58,0
22020,note_on,180,0,3,,,,,,,,,,1,,77,0
22020,note_on,180,0,2,,,,,,,,,,0,,77,0
22020,note_on,180,0,14,,,,,,,,,,11,,77,0
22080,note_on,60,0,3,,,,,,,,,,1,,70,50
22080,note_on,120,0,11,,,,,,,,,,8,,34,50
22080,note_on,60,0,14,,,,,,,,,,11,,70,50
22080,note_on,120,0,9,,,,,,,,,,7,,46,50
22080,note_on,120,0,8,,,,,,,,,,6,,46,50
22080,note_on,60,0,2,,,,,,,,,,0,,70,50
22200,note_on,360,0,5,,,,,,,,,,3,,74,0
22200,note_on,120,0,2,,,,,,,,,,0,,70,0
22200,note_on,120,0,14,,,,,,,,,,11,,70,0
22200,note_on,360,0,4,,,,,,,,,,2,,74,0
22200,note_on,120,0,3,,,,,,,,,,1,,70,0
22260,note_on,180,0,8,,,,,,,,,,6,,46,0
22260,note_on,180,0,11,,,,,,,,,,8,,34,0
22260,note_on,180,0,9,,,,,,,,,,7,,46,0
22320,note_on,1020,0,7,,,,,,,,,,5,,70,50
22320,note_on,120,0,4,,,,,,,,,,2,,74,50
22320,note_on,120,0,5,,,,,,,,,,3,,74,50
22320,note_on,120,0,14,,,,,,,,,,11,,65,50
22320,note_on,120,0,2,,,,,,,,,,0,,65,50
22320,note_on,120,0,3,,,,,,,,,,1,,65,50
22320,note_on,1020,0,6,,,,,,,,,,4,,70,50
22410,note_on,90,0,5,,,,,,,,,,3,,74,0
22410,note_on,90,0,4,,,,,,,,,,2,,74,0
22410,note_on,90,0,7,,,,,,,,,,5,,70,0
22410,note_on,90,0,6,,,,,,,,,,4,,70,0
22440,note_on,30,0,7,,,,,,,,,,5,,69,50
22440,note_on,120,0,3,,,,,,,,,,1,,65,0
22440,note_on,120,0,2,,,,,,,,,,0,,65,0
22440,note_on,30,0,4,,,,,,,,,,2,,72,50
22440,note_on,30,0,6,,,,,,,,,,4,,69,50
22440,note_on,120,0,14,,,,,,,,,,11,,65,0
22440,note_on,30,0,5,,,,,,,,,,3,,72,50
22560,note_on,120,0,5,,,,,,,,,,3,,74,50
22560,note_on,120,0,3,,,,,,,,,,1,,70,50
22560,note_on,120,0,14,,,,,,,,,,11,,70,50
22560,note_on,120,0,2,,,,,,,,,,0,,70,50
22560,note_on,120,0,7,,,,,,,,,,5,,70,50
22560,note_on,120,0,4,,,,,,,,,,2,,74,50
22560,note_on,120,0,6,,,,,,,,,,4,,70,50
22570,note_on,10,0,5,,,,,,,,,,3,,72,0
22570,note_on,10,0,7,,,,,,,,,,5,,69,0
22570,note_on,10,0,6,,,,,,,,,,4,,69,0
22570,note_on,10,0,4,,,,,,,,,,2,,72,0
22670,note_on,100,0,5,,,,,,,,,,3,,74,0
22670,note_on,100,0,7,,,,,,,,,,5,,70,0
22670,note_on,100,0,6,,,,,,,,,,4,,70,0
22670,note_on,100,0,4,,,,,,,,,,2,,74,0
22680,note_on,10,0,7,,,,,,,,,,5,,72,50
22680,note_on,10,0,5,,,,,,,,,,3,,75,50
22680,note_on,10,0,4,,,,,,,,,,2,,75,50
22680,note_on,10,0,6,,,,,,,,,,4,,72,50
22740,note_on,180,0,14,,,,,,,,,,11,,70,0
22740,note_on,180,0,3,,,,,,,,,,1,,70,0
22740,note_on,180,0,2,,,,,,,,,,0,,70,0
22770,note_on,90,0,4,,,,,,,,,,2,,75,0
22770,note_on,90,0,6,,,,,,,,,,4,,72,0
22770,note_on,90,0,7,,,,,,,,,,5,,72,0
22770,note_on,90,0,5,,,,,,,,,,3,,75,0
22800,note_on,30,0,5,,,,,,,,,,3,,77,50
22800,note_on,30,0,6,,,,,,,,,,4,,74,50
22800,note_on,60,0,14,,,,,,,,,,11,,62,50
22800,note_on,540,0,11,,,,,,,,,,8,,46,50
22800,note_on,540,0,9,,,,,,,,,,7,,58,50
22800,note_on,30,0,4,,,,,,,,,,2,,77,50
22800,note_on,60,0,3,,,,,,,,,,1,,62,50
22800,note_on,30,0,7,,,,,,,,,,5,,74,50
22800,note_on,60,0,2,,,,,,,,,,0,,62,50
22800,note_on,540,0,8,,,,,,,,,,6,,58,50
22920,note_on,120,0,2,,,,,,,,,,0,,62,0
22920,note_on,120,0,9,,,,,,,,,,7,,58,0
22920,note_on,120,0,8,,,,,,,,,,6,,58,0
22920,note_on,120,0,7,,,,,,,,,,5,,74,0
22920,note_on,120,0,4,,,,,,,,,,2,,77,0
22920,note_on,120,0,6,,,,,,,,,,4,,74,0
22920,note_on,120,0,14,,,,,,,,,,11,,62,0
22920,note_on,120,0,5,,,,,,,,,,3,,77,0
22920,note_on,120,0,11,,,,,,,,,,8,,46,0
22920,note_on,120,0,3,,,,,,,,,,1,,62,0
23040,note_on,120,0,7,,,,,,,,,,5,,62,50
23040,note_on,120,0,2,,,,,,,,,,0,,70,50
23040,note_on,120,0,14,,,,,,,,,,11,,70,50
23040,note_on,120,0,11,,,,,,,,,,8,,34,50
23040,note_on,120,0,9,,,,,,,,,,7,,46,50
23040,note_on,120,0,6,,,,,,,,,,4,,62,50
23040,note_on,120,0,4,,,,,,,,,,2,,65,50
23040,note_on,120,0,8,,,,,,,,,,6,,46,50
23040,note_on,120,0,5,,,,,,,,,,3,,65,50
23040,note_on,120,0,3,,,,,,,,,,1,,70,50
23220,note_on,180,0,8,,,,,,,,,,6,,46,0
23220,note_on,180,0,6,,,,,,,,,,4,,62,0
23220,note_on,180,0,7,,,,,,,,,,5,,62,0
23220,note_on,180,0,14,,,,,,,,,,11,,70,0
23220,note_on,180,0,5,,,,,,,,,,3,,65,0
23220,note_on,180,0,2,,,,,,,,,,0,,70,0
23220,note_on,180,0,9,,,,,,,,,,7,,46,0
23220,note_on,180,0,4,,,,,,,,,,2,,65,0
23220,note_on,180,0,3,,,,,,,,,,1,,70,0
23220,note_on,180,0,11,,,,,,,,,,8,,34,0
23280,note_on,60,0,6,,,,,,,,,,4,,67,50
23280,note_on,60,0,9,,,,,,,,,,7,,51,50
23280,note_on,60,0,7,,,,,,,,,,5,,67,50
23280,note_on,60,0,3,,,,,,,,,,1,,79,50
23280,note_on,60,0,8,,,,,,,,,,6,,51,50
23280,note_on,60,0,11,,,,,,,,,,8,,39,50
23280,note_on,60,0,5,,,,,,,,,,3,,75,50
23280,note_on,60,0,2,,,,,,,,,,0,,79,50
23280,note_on,60,0,4,,,,,,,,,,2,,75,50
23280,note_on,60,0,14,,,,,,,,,,11,,79,50
23400,note_on,120,0,9,,,,,,,,,,7,,51,0
23400,note_on,120,0,11,,,,,,,,,,8,,39,0
23400,note_on,120,0,6,,,,,,,,,,4,,67,0
23400,note_on,120,0,8,,,,,,,,,,6,,51,0
23400,note_on,120,0,7,,,,,,,,,,5,,67,0
23520,note_on,120,0,8,,,,,,,,,,6,,53,50
23520,note_on,240,0,4,,,,,,,,,,2,,75,0
23520,note_on,120,0,9,,,,,,,,,,7,,53,50
23520,note_on,120,0,11,,,,,,,,,,8,,41,50
23520,note_on,240,0,5,,,,,,,,,,3,,75,0
23520,note_on,240,0,14,,,,,,,,,,11,,79,0
23520,note_on,240,0,2,,,,,,,,,,0,,79,0
23520,note_on,120,0,7,,,,,,,,,,5,,69,50
23520,note_on,120,0,6,,,,,,,,,,4,,69,50
23520,note_on,240,0,3,,,,,,,,,,1,,79,0
23700,note_on,180,0,8,,,,,,,,,,6,,53,0
23700,note_on,180,0,11,,,,,,,,,,8,,41,0
23700,note_on,180,0,9,,,,,,,,,,7,,53,0
23700,note_on,180,0,6,,,,,,,,,,4,,69,0
23700,note_on,180,0,7,,,,,,,,,,5,,69,0
23760,note_on,60,0,11,,,,,,,,,,8,,43,50
23760,note_on,240,0,5,,,,,,,,,,3,,74,50
23760,note_on,60,0,6,,,,,,,,,,4,,70,50
23760,note_on,60,0,9,,,,,,,,,,7,,55,50
23760,note_on,240,0,4,,,,,,,,,,2,,74,50
23760,note_on,240,0,3,,,,,,,,,,1,,77,50
23760,note_on,240,0,2,,,,,,,,,,0,,77,50
23760,note_on,60,0,7,,,,,,,,,,5,,70,50
23760,note_on,60,0,8,,,,,,,,,,6,,55,50
23760,note_on,240,0,14,,,,,,,,,,11,,77,50
23880,note_on,120,0,6,,,,,,,,,,4,,70,0
23880,note_on,120,0,9,,,,,,,,,,7,,55,0
23880,note_on,120,0,3,,,,,,,,,,1,,77,0
23880,note_on,120,0,5,,,,,,,,,,3,,74,0
23880,note_on,120,0,2,,,,,,,,,,0,,77,0
23880,note_on,120,0,7,,,,,,,,,,5,,70,0
23880,note_on,120,0,4,,,,,,,,,,2,,74,0
23880,note_on,120,0,8,,,,,,,,,,6,,55,0
23880,note_on,120,0,11,,,,,,,,,,8,,43,0
23880,note_on,120,0,14,,,,,,,,,,11,,77,0
24000,note_on,120,0,11,,,,,,,,,,8,,45,50
24000,note_on,120,0,5,,,,,,,,,,3,,72,50
24000,note_on,120,0,2,,,,,,,,,,0,,75,50
24000,note_on,120,0,7,,,,,,,,,,5,,72,50
24000,note_on,120,0,14,,,,,,,,,,11,,75,50
24000,note_on,120,0,6,,,,,,,,,,4,,72,50
24000,note_on,120,0,4,,,,,,,,,,2,,72,50
24000,note_on,120,0,9,,,,,,,,,,7,,57,50
24000,note_on,120,0,8,,,,,,,,,,6,,57,50
24000,note_on,120,0,3,,,,,,,,,,1,,75,50
24180,note_on,180,0,14,,,,,,,,,,11,,75,0
24180,note_on,180,0,3,,,,,,,,,,1,,75,0
24180,note_on,180,0,2,,,,,,,,,,0,,75,0
24180,note_on,180,0,5,,,,,,,,,,3,,72,0
24180,note_on,180,0,11,,,,,,,,,,8,,45,0
24180,note_on,180,0,6,,,,,,,,,,4,,72,0
24180,note_on,180,0,9,,,,,,,,,,7,,57,0
24180,note_on,180,0,7,,,,,,,,,,5,,72,0
24180,note_on,180,0,4,,,,,,,,,,2,,72,0
24180,note_on,180,0,8,,,,,,,,,,6,,57,0
24240,note_on,60,0,6,,,,,,,,,,4,,65,50
24240,note_on,60,0,5,,,,,,,,,,3,,70,50
24240,note_on,60,0,2,,,,,,,,,,0,,74,50
24240,note_on,60,0,7,,,,,,,,,,5,,65,50
24240,note_on,60,0,11,,,,,,,,,,8,,46,50
24240,note_on,60,0,4,,,,,,,,,,2,,70,50
24240,note_on,60,0,9,,,,,,,,,,7,,58,50
24240,note_on,60,0,8,,,,,,,,,,6,,58,50
24240,note_on,60,0,14,,,,,,,,,,11,,74,50
24240,note_on,60,0,3,,,,,,,,,,1,,74,50
24360,note_on,120,0,3,,,,,,,,,,1,,74,0
24360,note_on,120,0,4,,,,,,,,,,2,,70,0
24360,note_on,120,0,6,,,,,,,,,,4,,65,0
24360,note_on,120,0,7,,,,,,,,,,5,,65,0
24360,note_on,120,0,8,,,,,,,,,,6,,58,0
24360,note_on,120,0,14,,,,,,,,,,11,,74,0
24360,note_on,120,0,11,,,,,,,,,,8,,46,0
24360,note_on,120,0,9,,,,,,,,,,7,,58,0
24360,note_on,120,0,2,,,,,,,,,,0,,74,0
24360,note_on,120,0,5,,,,,,,,,,3,,70,0
24480,note_on,120,0,2,,,,,,,,,,0,,72,50
24480,note_on,120,0,11,,,,,,,,,,8,,34,50
24480,note_on,120,0,7,,,,,,,,,,5,,53,50
24480,note_on,120,0,5,,,,,,,,,,3,,62,50
24480,note_on,120,0,4,,,,,,,,,,2,,62,50
24480,note_on,120,0,9,,,,,,,,,,7,,46,50
24480,note_on,120,0,14,,,,,,,,,,11,,72,50
24480,note_on,120,0,8,,,,,,,,,,6,,46,50
24480,note_on,120,0,3,,,,,,,,,,1,,72,50
24480,note_on,120,0,6,,,,,,,,,,4,,53,50
24590,note_on,110,0,14,,,,,,,,,,11,,72,0
24590,note_on,110,0,3,,,,,,,,,,1,,72,0
24590,note_on,110,0,2,,,,,,,,,,0,,72,0
24600,note_on,10,0,14,,,,,,,,,,11,,70,50
24600,note_on,10,0,2,,,,,,,,,,0,,70,50
24600,note_on,10,0,3,,,,,,,,,,1,,70,50
24660,note_on,180,0,6,,,,,,,,,,4,,53,0
24660,note_on,180,0,7,,,,,,,,,,5,,53,0
24660,note_on,180,0,11,,,,,,,,,,8,,34,0
24660,note_on,180,0,5,,,,,,,,,,3,,62,0
24660,note_on,180,0,9,,,,,,,,,,7,,46,0
24660,note_on,180,0,8,,,,,,,,,,6,,46,0
24660,note_on,180,0,4,,,,,,,,,,2,,62,0
24690,note_on,90,0,2,,,,,,,,,,0,,70,0
24690,note_on,90,0,14,,,,,,,,,,11,,70,0
24690,note_on,90,0,3,,,,,,,,,,1,,70,0
24720,note_on,60,0,6,,,,,,,,,,4,,55,50
24720,note_on,30,0,2,,,,,,,,,,0,,72,50
24720,note_on,60,0,5,,,,,,,,,,3,,63,50
24720,note_on,30,0,3,,,,,,,,,,1,,72,50
24720,note_on,60,0,7,,,,,,,,,,5,,55,50
24720,note_on,30,0,14,,,,,,,,,,11,,72,50
24720,note_on,60,0,11,,,,,,,,,,8,,27,50
24720,note_on,60,0,8,,,,,,,,,,6,,39,50
24720,note_on,60,0,9,,,,,,,,,,7,,39,50
24720,note_on,60,0,4,,,,,,,,,,2,,63,50
24840,note_on,120,0,5,,,,,,,,,,3,,63,0
24840,note_on,120,0,6,,,,,,,,,,4,,55,0
24840,note_on,120,0,4,,,,,,,,,,2,,63,0
24840,note_on,120,0,14,,,,,,,,,,11,,72,0
24840,note_on,120,0,11,,,,,,,,,,8,,27,0
24840,note_on,120,0,3,,,,,,,,,,1,,72,0
24840,note_on,120,0,9,,,,,,,,,,7,,39,0
24840,note_on,120,0,8,,,,,,,,,,6,,39,0
24840,note_on,120,0,7,,,,,,,,,,5,,55,0
24840,note_on,120,0,2,,,,,,,,,,0,,72,0
24960,note_on,120,0,3,,,,,,,,,,1,,69,50
24960,note_on,120,0,4,,,,,,,,,,2,,60,50
24960,note_on,120,0,2,,,,,,,,,,0,,69,50
24960,note_on,120,0,7,,,,,,,,,,5,,53,50
24960,note_on,120,0,5,,,,,,,,,,3,,60,50
24960,note_on,120,0,14,,,,,,,,,,11,,69,50
24960,note_on,120,0,9,,,,,,,,,,7,,41,50
24960,note_on,120,0,11,,,,,,,,,,8,,29,50
24960,note_on,120,0,6,,,,,,,,,,4,,53,50
24960,note_on,120,0,8,,,,,,,,,,6,,41,50
25140,note_on,180,0,5,,,,,,,,,,3,,60,0
25140,note_on,180,0,4,,,,,,,,,,2,,60,0
25140,note_on,180,0,9,,,,,,,,,,7,,41,0
25140,note_on,180,0,3,,,,,,,,,,1,,69,0
25140,note_on,180,0,2,,,,,,,,,,0,,69,0
25140,note_on,180,0,7,,,,,,,,,,5,,53,0
25140,note_on,180,0,8,,,,,,,,,,6,,41,0
25140,note_on,180,0,6,,,,,,,,,,4,,53,0
25140,note_on,180,0,11,,,,,,,,,,8,,29,0
25140,note_on,180,0,14,,,,,,,,,,11,,69,0
25200,note_on,60,0,6,,,,,,,,,,4,,53,50
25200,note_on,60,0,7,,,,,,,,,,5,,53,50
25200,note_on,60,0,11,,,,,,,,,,8,,34,50
25200,note_on,60,0,8,,,,,,,,,,6,,46,50
25200,note_on,60,0,9,,,,,,,,,,7,,46,50
25200,note_on,60,0,14,,,,,,,,,,11,,70,50
25200,note_on,60,0,2,,,,,,,,,,0,,70,50
25200,note_on,60,0,5,,,,,,,,,,3,,62,50
25200,note_on,60,0,3,,,,,,,,,,1,,70,50
25200,note_on,60,0,4,,,,,,,,,,2,,62,50
25560,note_on,360,0,4,,,,,,,,,,2,,62,0
25560,note_on,360,0,2,,,,,,,,,,0,,70,0
25560,note_on,360,0,3,,,,,,,,,,1,,70,0
25560,note_on,360,0,14,,,,,,,,,,11,,70,0
25560,note_on,360,0,5,,,,,,,,,,3,,62,0
25560,note_on,360,0,9,,,,,,,,,,7,,46,0
25560,note_on,360,0,7,,,,,,,,,,5,,53,0
25560,note_on,360,0,11,,,,,,,,,,8,,34,0
25560,note_on,360,0,8,,,,,,,,,,6,,46,0
25560,note_on,360,0,6,,,,,,,,,,4,,53,0
25920,note_on,360,0,14,,,,,,,,,,11,,70,110
26040,note_on,120,0,14,,,,,,,,,,11,,70,0
26160,note_on,120,0,14,,,,,,,,,,11,,74,110
26160,note_on,600,0,8,,,,,,,,,,6,,58,70
26250,note_on,90,0,14,,,,,,,,,,11,,74,0
26280,note_on,30,0,14,,,,,,,,,,11,,77,110
26400,note_on,120,0,14,,,,,,,,,,11,,74,110
26410,note_on,10,0,14,,,,,,,,,,11,,77,0
26510,note_on,100,0,14,,,,,,,,,,11,,74,0
26520,note_on,10,0,14,,,,,,,,,,11,,70,110
26520,note_on,360,0,8,,,,,,,,,,6,,58,0
26610,note_on,90,0,14,,,,,,,,,,11,,70,0
26640,note_on,120,0,8,,,,,,,,,,6,,53,70
26640,note_on,30,0,14,,,,,,,,,,11,,72,110
26730,note_on,90,0,14,,,,,,,,,,11,,72,0
26760,note_on,30,0,14,,,,,,,,,,11,,75,110
26880,note_on,120,0,14,,,,,,,,,,11,,72,110
26880,note_on,240,0,8,,,,,,,,,,6,,53,0
26890,note_on,10,0,14,,,,,,,,,,11,,75,0
26990,note_on,100,0,14,,,,,,,,,,11,,72,0
27000,note_on,10,0,14,,,,,,,,,,11,,69,110
27090,note_on,90,0,14,,,,,,,,,,11,,69,0
27120,note_on,240,0,8,,,,,,,,,,6,,46,70
27120,note_on,30,0,14,,,,,,,,,,11,,70,110
27210,note_on,90,0,14,,,,,,,,,,11,,70,0
27240,note_on,30,0,14,,,,,,,,,,11,,69,110
27360,note_on,240,0,8,,,,,,,,,,6,,46,0
27360,note_on,120,0,14,,,,,,,,,,11,,70,110
27370,note_on,10,0,14,,,,,,,,,,11,,69,0
27470,note_on,100,0,14,,,,,,,,,,11,,70,0
27480,note_on,10,0,14,,,,,,,,,,11,,72,110
27570,note_on,90,0,14,,,,,,,,,,11,,72,0
27600,note_on,30,0,14,,,,,,,,,,11,,74,110
27690,note_on,90,0,14,,,,,,,,,,11,,74,0
27720,note_on,30,0,14,,,,,,,,,,11,,72,110
27840,note_on,120,0,14,,,,,,,,,,11,,74,110
27850,note_on,10,0,14,,,,,,,,,,11,,72,0
27950,note_on,100,0,14,,,,,,,,,,11,,74,0
27960,note_on,10,0,14,,,,,,,,,,11,,75,110
28050,note_on,90,0,14,,,,,,,,,,11,,75,0
28080,note_on,30,0,14,,,,,,,,,,11,,77,110
28170,note_on,90,0,14,,,,,,,,,,11,,77,0
28200,note_on,30,0,14,,,,,,,,,,11,,75,110
28320,note_on,120,0,14,,,,,,,,,,11,,77,110
28330,note_on,10,0,14,,,,,,,,,,11,,75,0
28430,note_on,100,0,14,,,,,,,,,,11,,77,0
28440,note_on,10,0,14,,,,,,,,,,11,,79,110
28530,note_on,90,0,14,,,,,,,,,,11,,79,0
28560,note_on,30,0,14,,,,,,,,,,11,,81,110
28680,note_on,120,0,14,,,,,,,,,,11,,79,110
28690,note_on,10,0,14,,,,,,,,,,11,,81,0
28770,note_on,80,0,14,,,,,,,,,,11,,79,0
28800,note_on,30,0,14,,,,,,,,,,11,,81,110
28910,note_on,110,0,14,,,,,,,,,,11,,81,0
28920,note_on,10,0,14,,,,,,,,,,11,,77,110
29010,note_on,90,0,14,,,,,,,,,,11,,77,0
29040,note_on,1680,0,8,,,,,,,,,,6,,58,70
29040,note_on,30,0,14,,,,,,,,,,11,,82,110
29160,note_on,120,0,8,,,,,,,,,,6,,58,0
29220,note_on,180,0,14,,,,,,,,,,11,,82,0
29280,note_on,60,0,14,,,,,,,,,,11,,70,110
29280,note_on,120,0,8,,,,,,,,,,6,,60,70
29400,note_on,120,0,14,,,,,,,,,,11,,70,0
29460,note_on,180,0,8,,,,,,,,,,6,,60,0
29520,note_on,60,0,8,,,,,,,,,,6,,62,70
29640,note_on,120,0,8,,,,,,,,,,6,,62,0
29760,note_on,360,0,14,,,,,,,,,,11,,77,110
29760,note_on,120,0,8,,,,,,,,,,6,,57,70
29880,note_on,120,0,14,,,,,,,,,,11,,77,0
29940,note_on,180,0,8,,,,,,,,,,6,,57,0
30000,note_on,120,0,14,,,,,,,,,,11,,74,110
30000,note_on,60,0,8,,,,,,,,,,6,,58,70
30090,note_on,90,0,14,,,,,,,,,,11,,74,0
30120,note_on,30,0,14,,,,,,,,,,11,,77,110
30240,note_on,120,0,14,,,,,,,,,,11,,74,110
30250,note_on,10,0,14,,,,,,,,,,11,,77,0
30350,note_on,100,0,14,,,,,,,,,,11,,74,0
30360,note_on,10,0,14,,,,,,,,,,11,,70,110
30360,note_on,360,0,8,,,,,,,,,,6,,58,0
30450,note_on,90,0,14,,,,,,,,,,11,,70,0
30480,note_on,120,0,8,,,,,,,,,,6,,53,70
30480,note_on,30,0,14,,,,,,,,,,11,,72,110
30570,note_on,90,0,14,,,,,,,,,,11,,72,0
30600,note_on,30,0,14,,,,,,,,,,11,,75,110
30720,note_on,240,0,8,,,,,,,,,,6,,53,0
30720,note_on,120,0,14,,,,,,,,,,11,,72,110
30730,note_on,10,0,14,,,,,,,,,,11,,75,0
30830,note_on,100,0,14,,,,,,,,,,11,,72,0
30840,note_on,10,0,14,,,,,,,,,,11,,69,110
30930,note_on,90,0,14,,,,,,,,,,11,,69,0
30960,note_on,30,0,14,,,,,,,,,,11,,70,110
30960,note_on,240,0,8,,,,,,,,,,6,,46,70
31050,note_on,90,0,14,,,,,,,,,,11,,70,0
31080,note_on,30,0,14,,,,,,,,,,11,,69,110
31200,note_on,120,0,14,,,,,,,,,,11,,70,110
31200,note_on,240,0,8,,,,,,,,,,6,,46,0
31210,note_on,10,0,14,,,,,,,,,,11,,69,0
31310,note_on,100,0,14,,,,,,,,,,11,,70,0
31320,note_on,10,0,14,,,,,,,,,,11,,72,110
31410,note_on,90,0,14,,,,,,,,,,11,,72,0
31440,note_on,30,0,14,,,,,,,,,,11,,74,110
31530,note_on,90,0,14,,,,,,,,,,11,,74,0
31560,note_on,30,0,14,,,,,,,,,,11,,72,110
31680,note_on,120,0,14,,,,,,,,,,11,,74,110
31690,note_on,10,0,14,,,,,,,,,,11,,72,0
31790,note_on,100,0,14,,,,,,,,,,11,,74,0
31800,note_on,10,0,14,,,,,,,,,,11,,75,110
31890,note_on,90,0,14,,,,,,,,,,11,,75,0
31920,note_on,30,0,14,,,,,,,,,,11,,77,110
32040,note_on,120,0,14,,,,,,,,,,11,,77,0
32160,note_on,120,0,14,,,,,,,,,,11,,79,110
32280,note_on,120,0,14,,,,,,,,,,11,,77,110
32290,note_on,10,0,14,,,,,,,,,,11,,79,0
32370,note_on,80,0,14,,,,,,,,,,11,,77,0
32400,note_on,30,0,14,,,,,,,,,,11,,79,110
32520,note_on,120,0,14,,,,,,,,,,11,,77,110
32530,note_on,10,0,14,,,,,,,,,,11,,79,0
32610,note_on,80,0,14,,,,,,,,,,11,,77,0
32640,note_on,30,0,14,,,,,,,,,,11,,75,110
32640,note_on,7080,0,2,,,,,,,,,,0,,77,50
32760,note_on,120,0,14,,,,,,,,,,11,,74,110
32760,note_on,120,0,2,,,,,,,,,,0,,77,0
32770,note_on,10,0,14,,,,,,,,,,11,,75,0
32850,note_on,80,0,14,,,,,,,,,,11,,74,0
32880,note_on,30,0,14,,,,,,,,,,11,,72,110
32880,note_on,7320,0,5,,,,,,,,,,3,,69,50
32880,note_on,120,0,2,,,,,,,,,,0,,72,50
32880,note_on,7320,0,6,,,,,,,,,,4,,65,50
32880,note_on,1680,0,8,,,,,,,,,,6,,53,70
33000,note_on,120,0,2,,,,,,,,,,0,,72,0
33000,note_on,120,0,5,,,,,,,,,,3,,67,50
33000,note_on,120,0,6,,,,,,,,,,4,,63,50
33010,note_on,10,0,5,,,,,,,,,,3,,69,0
33010,note_on,10,0,6,,,,,,,,,,4,,65,0
33110,note_on,100,0,5,,,,,,,,,,3,,67,0
33110,note_on,100,0,6,,,,,,,,,,4,,63,0
33120,note_on,10,0,5,,,,,,,,,,3,,69,50
33120,note_on,120,0,2,,,,,,,,,,0,,77,50
33120,note_on,240,0,8,,,,,,,,,,6,,53,0
33120,note_on,10,0,6,,,,,,,,,,4,,65,50
33230,note_on,110,0,5,,,,,,,,,,3,,69,0
33230,note_on,110,0,6,,,,,,,,,,4,,65,0
33240,note_on,10,0,5,,,,,,,,,,3,,70,50
33240,note_on,10,0,6,,,,,,,,,,4,,67,50
33240,note_on,360,0,14,,,,,,,,,,11,,72,0
33300,note_on,180,0,2,,,,,,,,,,0,,77,0
33330,note_on,90,0,5,,,,,,,,,,3,,70,0
33330,note_on,90,0,6,,,,,,,,,,4,,67,0
33360,note_on,30,0,6,,,,,,,,,,4,,69,50
33360,note_on,60,0,2,,,,,,,,,,0,,69,50
33360,note_on,30,0,5,,,,,,,,,,3,,72,50
33480,note_on,120,0,6,,,,,,,,,,4,,69,0
33480,note_on,120,0,5,,,,,,,,,,3,,72,0
33480,note_on,120,0,2,,,,,,,,,,0,,69,0
33600,note_on,360,0,14,,,,,,,,,,11,,72,110
33600,note_on,120,0,6,,,,,,,,,,4,,57,50
33600,note_on,120,0,2,,,,,,,,,,0,,77,50
33600,note_on,120,0,5,,,,,,,,,,3,,60,50
33720,note_on,120,0,14,,,,,,,,,,11,,72,0
33780,note_on,180,0,6,,,,,,,,,,4,,57,0
33780,note_on,180,0,5,,,,,,,,,,3,,60,0
33780,note_on,180,0,2,,,,,,,,,,0,,77,0
33840,note_on,60,0,2,,,,,,,,,,0,,65,50
33840,note_on,120,0,14,,,,,,,,,,11,,74,110
33840,note_on,720,0,8,,,,,,,,,,6,,58,70
33930,note_on,90,0,14,,,,,,,,,,11,,74,0
33960,note_on,30,0,14,,,,,,,,,,11,,77,110
34000,note_on,160,0,2,,,,,,,,,,0,,65,0
34080,note_on,120,0,14,,,,,,,,,,11,,74,110
34090,note_on,10,0,14,,,,,,,,,,11,,77,0
34190,note_on,100,0,14,,,,,,,,,,11,,74,0
34200,note_on,360,0,8,,,,,,,,,,6,,58,0
34200,note_on,10,0,14,,,,,,,,,,11,,70,110
34290,note_on,90,0,14,,,,,,,,,,11,,70,0
34320,note_on,120,0,8,,,,,,,,,,6,,53,70
34320,note_on,30,0,14,,,,,,,,,,11,,72,110
34410,note_on,90,0,14,,,,,,,,,,11,,72,0
34440,note_on,30,0,14,,,,,,,,,,11,,75,110
34560,note_on,240,0,8,,,,,,,,,,6,,53,0
34560,note_on,120,0,14,,,,,,,,,,11,,72,110
34570,note_on,10,0,14,,,,,,,,,,11,,75,0
34670,note_on,100,0,14,,,,,,,,,,11,,72,0
34680,note_on,10,0,14,,,,,,,,,,11,,69,110
34770,note_on,90,0,14,,,,,,,,,,11,,69,0
34800,note_on,240,0,8,,,,,,,,,,6,,46,70
34800,note_on,30,0,14,,,,,,,,,,11,,74,110
34890,note_on,90,0,14,,,,,,,,,,11,,74,0
34920,note_on,30,0,14,,,,,,,,,,11,,77,110
35040,note_on,240,0,8,,,,,,,,,,6,,46,0
35040,note_on,120,0,14,,,,,,,,,,11,,74,110
35050,note_on,10,0,14,,,,,,,,,,11,,77,0
35150,note_on,100,0,14,,,,,,,,,,11,,74,0
35160,note_on,10,0,14,,,,,,,,,,11,,70,110
35250,note_on,90,0,14,,,,,,,,,,11,,70,0
35280,note_on,30,0,14,,,,,,,,,,11,,72,110
35370,note_on,90,0,14,,,,,,,,,,11,,72,0
35400,note_on,30,0,14,,,,,,,,,,11,,75,110
35520,note_on,120,0,14,,,,,,,,,,11,,72,110
35530,note_on,10,0,14,,,,,,,,,,11,,75,0
35630,note_on,100,0,14,,,,,,,,,,11,,72,0
35640,note_on,10,0,14,,,,,,,,,,11,,69,110
35730,note_on,90,0,14,,,,,,,,,,11,,69,0
35760,note_on,720,0,8,,,,,,,,,,6,,58,70
35760,note_on,30,0,14,,,,,,,,,,11,,74,110
35850,note_on,90,0,14,,,,,,,,,,11,,74,0
35880,note_on,30,0,14,,,,,,,,,,11,,77,110
36000,note_on,120,0,14,,,,,,,,,,11,,74,110
36010,note_on,10,0,14,,,,,,,,,,11,,77,0
36110,note_on,100,0,14,,,,,,,,,,11,,74,0
36120,note_on,360,0,8,,,,,,,,,,6,,58,0
36120,note_on,10,0,14,,,,,,,,,,11,,70,110
36210,note_on,90,0,14,,,,,,,,,,11,,70,0
36240,note_on,120,0,8,,,,,,,,,,6,,53,70
36240,note_on,30,0,14,,,,,,,,,,11,,72,110
36330,note_on,90,0,14,,,,,,,,,,11,,72,0
36360,note_on,30,0,14,,,,,,,,,,11,,75,110
36480,note_on,240,0,8,,,,,,,,,,6,,53,0
36480,note_on,120,0,14,,,,,,,,,,11,,72,110
36480,note_on,2480,0,2,,,,,,,,,,0,,77,50
36490,note_on,10,0,14,,,,,,,,,,11,,75,0
36590,note_on,100,0,14,,,,,,,,,,11,,72,0
36600,note_on,10,0,14,,,,,,,,,,11,,69,110
36600,note_on,120,0,2,,,,,,,,,,0,,77,0
36690,note_on,90,0,14,,,,,,,,,,11,,69,0
36720,note_on,240,0,8,,,,,,,,,,6,,46,70
36720,note_on,120,0,2,,,,,,,,,,0,,74,50
36720,note_on,30,0,14,,,,,,,,,,11,,74,110
36720,note_on,2940,0,5,,,,,,,,,,3,,74,50
36720,note_on,2940,0,6,,,,,,,,,,4,,70,50
36840,note_on,120,0,2,,,,,,,,,,0,,74,0
36840,note_on,120,0,5,,,,,,,,,,3,,72,50
36840,note_on,120,0,6,,,,,,,,,,4,,69,50
36850,note_on,10,0,5,,,,,,,,,,3,,74,0
36850,note_on,10,0,6,,,,,,,,,,4,,70,0
36900,note_on,180,0,14,,,,,,,,,,11,,74,0
36950,note_on,100,0,5,,,,,,,,,,3,,72,0
36950,note_on,100,0,6,,,,,,,,,,4,,69,0
36960,note_on,10,0,6,,,,,,,,,,4,,70,50
36960,note_on,10,0,5,,,,,,,,,,3,,74,50
36960,note_on,60,0,14,,,,,,,,,,11,,70,110
36960,note_on,240,0,8,,,,,,,,,,6,,46,0
36960,note_on,120,0,2,,,,,,,,,,0,,77,50
37070,note_on,110,0,5,,,,,,,,,,3,,74,0
37070,note_on,110,0,6,,,,,,,,,,4,,70,0
37080,note_on,120,0,14,,,,,,,,,,11,,70,0
37080,note_on,10,0,5,,,,,,,,,,3,,75,50
37080,note_on,10,0,6,,,,,,,,,,4,,72,50
37140,note_on,180,0,2,,,,,,,,,,0,,77,0
37170,note_on,90,0,6,,,,,,,,,,4,,72,0
37170,note_on,90,0,5,,,,,,,,,,3,,75,0
37200,note_on,30,0,5,,,,,,,,,,3,,77,50
37200,note_on,60,0,2,,,,,,,,,,0,,70,50
37200,note_on,30,0,6,,,,,,,,,,4,,74,50
37320,note_on,120,0,2,,,,,,,,,,0,,70,0
37320,note_on,120,0,6,,,,,,,,,,4,,74,0
37320,note_on,120,0,5,,,,,,,,,,3,,77,0
37440,note_on,120,0,2,,,,,,,,,,0,,74,50
37440,note_on,120,0,6,,,,,,,,,,4,,62,50
37440,note_on,120,0,5,,,,,,,,,,3,,65,50
37620,note_on,180,0,5,,,,,,,,,,3,,65,0
37620,note_on,180,0,2,,,,,,,,,,0,,74,0
37620,note_on,180,0,6,,,,,,,,,,4,,62,0
37680,note_on,600,0,14,,,,,,,,,,11,,75,110
37680,note_on,60,0,2,,,,,,,,,,0,,67,50
37680,note_on,720,0,8,,,,,,,,,,6,,60,70
37770,note_on,90,0,14,,,,,,,,,,11,,75,0
37800,note_on,30,0,14,,,,,,,,,,11,,79,110
37840,note_on,160,0,2,,,,,,,,,,0,,67,0
37920,note_on,120,0,14,,,,,,,,,,11,,75,110
37930,note_on,10,0,14,,,,,,,,,,11,,79,0
38030,note_on,100,0,14,,,,,,,,,,11,,75,0
38040,note_on,360,0,8,,,,,,,,,,6,,60,0
38040,note_on,10,0,14,,,,,,,,,,11,,72,110
38130,note_on,90,0,14,,,,,,,,,,11,,72,0
38160,note_on,120,0,8,,,,,,,,,,6,,55,70
38160,note_on,30,0,14,,,,,,,,,,11,,74,110
38250,note_on,90,0,14,,,,,,,,,,11,,74,0
38280,note_on,30,0,14,,,,,,,,,,11,,77,110
38400,note_on,120,0,14,,,,,,,,,,11,,74,110
38400,note_on,240,0,8,,,,,,,,,,6,,55,0
38410,note_on,10,0,14,,,,,,,,,,11,,77,0
38510,note_on,100,0,14,,,,,,,,,,11,,74,0
38520,note_on,10,0,14,,,,,,,,,,11,,71,110
38610,note_on,90,0,14,,,,,,,,,,11,,71,0
38640,note_on,30,0,14,,,,,,,,,,11,,75,110
38640,note_on,240,0,8,,,,,,,,,,6,,48,70
38730,note_on,90,0,14,,,,,,,,,,11,,75,0
38760,note_on,30,0,14,,,,,,,,,,11,,79,110
38880,note_on,120,0,14,,,,,,,,,,11,,75,110
38880,note_on,240,0,8,,,,,,,,,,6,,48,0
38890,note_on,10,0,14,,,,,,,,,,11,,79,0
38990,note_on,100,0,14,,,,,,,,,,11,,75,0
39000,note_on,10,0,14,,,,,,,,,,11,,72,110
39090,note_on,90,0,14,,,,,,,,,,11,,72,0
39120,note_on,30,0,14,,,,,,,,,,11,,74,110
39210,note_on,90,0,14,,,,,,,,,,11,,74,0
39240,note_on,30,0,14,,,,,,,,,,11,,77,110
39360,note_on,120,0,14,,,,,,,,,,11,,74,110
39370,note_on,10,0,14,,,,,,,,,,11,,77,0
39470,note_on,100,0,14,,,,,,,,,,11,,74,0
39480,note_on,10,0,14,,,,,,,,,,11,,71,110
39570,note_on,90,0,14,,,,,,,,,,11,,71,0
39600,note_on,720,0,8,,,,,,,,,,6,,60,70
39600,note_on,30,0,14,,,,,,,,,,11,,75,110
39690,note_on,90,0,14,,,,,,,,,,11,,75,0
39720,note_on,30,0,14,,,,,,,,,,11,,79,110
39840,note_on,120,0,14,,,,,,,,,,11,,75,110
39850,note_on,10,0,14,,,,,,,,,,11,,79,0
39950,note_on,100,0,14,,,,,,,,,,11,,75,0
39960,note_on,10,0,14,,,,,,,,,,11,,72,110
39960,note_on,360,0,8,,,,,,,,,,6,,60,0
40050,note_on,90,0,14,,,,,,,,,,11,,72,0
40080,note_on,120,0,8,,,,,,,,,,6,,55,70
40080,note_on,30,0,14,,,,,,,,,,11,,74,110
40170,note_on,90,0,14,,,,,,,,,,11,,74,0
40200,note_on,30,0,14,,,,,,,,,,11,,77,110
40320,note_on,240,0,8,,,,,,,,,,6,,55,0
40320,note_on,120,0,14,,,,,,,,,,11,,74,110
40320,note_on,2480,0,2,,,,,,,,,,0,,79,50
40330,note_on,10,0,14,,,,,,,,,,11,,77,0
40430,note_on,100,0,14,,,,,,,,,,11,,74,0
40440,note_on,10,0,14,,,,,,,,,,11,,71,110
40440,note_on,120,0,2,,,,,,,,,,0,,79,0
40530,note_on,90,0,14,,,,,,,,,,11,,71,0
40560,note_on,2940,0,5,,,,,,,,,,3,,75,50
40560,note_on,2940,0,6,,,,,,,,,,4,,72,50
40560,note_on,120,0,2,,,,,,,,,,0,,75,50
40560,note_on,240,0,8,,,,,,,,,,6,,48,70
40560,note_on,30,0,14,,,,,,,,,,11,,75,110
40680,note_on,120,0,2,,,,,,,,,,0,,75,0
40680,note_on,120,0,6,,,,,,,,,,4,,71,50
40680,note_on,120,0,5,,,,,,,,,,3,,74,50
40690,note_on,10,0,6,,,,,,,,,,4,,72,0
40690,note_on,10,0,5,,,,,,,,,,3,,75,0
40740,note_on,180,0,14,,,,,,,,,,11,,75,0
40790,note_on,100,0,5,,,,,,,,,,3,,74,0
40790,note_on,100,0,6,,,,,,,,,,4,,71,0
40800,note_on,10,0,6,,,,,,,,,,4,,72,50
40800,note_on,120,0,2,,,,,,,,,,0,,79,50
40800,note_on,60,0,14,,,,,,,,,,11,,72,110
40800,note_on,240,0,8,,,,,,,,,,6,,48,0
40800,note_on,10,0,5,,,,,,,,,,3,,75,50
40910,note_on,110,0,5,,,,,,,,,,3,,75,0
40910,note_on,110,0,6,,,,,,,,,,4,,72,0
40920,note_on,10,0,5,,,,,,,,,,3,,77,50
40920,note_on,120,0,14,,,,,,,,,,11,,72,0
40920,note_on,10,0,6,,,,,,,,,,4,,74,50
40980,note_on,180,0,2,,,,,,,,,,0,,79,0
41010,note_on,90,0,6,,,,,,,,,,4,,74,0
41010,note_on,90,0,5,,,,,,,,,,3,,77,0
41040,note_on,60,0,2,,,,,,,,,,0,,72,50
41040,note_on,30,0,6,,,,,,,,,,4,,75,50
41040,note_on,30,0,5,,,,,,,,,,3,,79,50
41160,note_on,120,0,2,,,,,,,,,,0,,72,0
41160,note_on,120,0,6,,,,,,,,,,4,,75,0
41160,note_on,120,0,5,,,,,,,,,,3,,79,0
41280,note_on,120,0,2,,,,,,,,,,0,,75,50
41280,note_on,120,0,6,,,,,,,,,,4,,63,50
41280,note_on,120,0,5,,,,,,,,,,3,,67,50
41460,note_on,180,0,6,,,,,,,,,,4,,63,0
41460,note_on,180,0,5,,,,,,,,,,3,,67,0
41460,note_on,180,0,2,,,,,,,,,,0,,75,0
41520,note_on,60,0,2,,,,,,,,,,0,,69,50
41520,note_on,600,0,14,,,,,,,,,,11,,77,110
41520,note_on,720,0,8,,,,,,,,,,6,,62,70
41610,note_on,90,0,14,,,,,,,,,,11,,77,0
41640,note_on,30,0,14,,,,,,,,,,11,,81,110
41680,note_on,160,0,2,,,,,,,,,,0,,69,0
41760,note_on,120,0,14,,,,,,,,,,11,,77,110
41770,note_on,10,0,14,,,,,,,,,,11,,81,0
41870,note_on,100,0,14,,,,,,,,,,11,,77,0
41880,note_on,10,0,14,,,,,,,,,,11,,74,110
41880,note_on,360,0,8,,,,,,,,,,6,,62,0
41970,note_on,90,0,14,,,,,,,,,,11,,74,0
42000,note_on,120,0,8,,,,,,,,,,6,,57,70
42000,note_on,30,0,14,,,,,,,,,,11,,76,110
42090,note_on,90,0,14,,,,,,,,,,11,,76,0
42120,note_on,30,0,14,,,,,,,,,,11,,79,110
42240,note_on,120,0,14,,,,,,,,,,11,,76,110
42240,note_on,240,0,8,,,,,,,,,,6,,57,0
42250,note_on,10,0,14,,,,,,,,,,11,,79,0
42350,note_on,100,0,14,,,,,,,,,,11,,76,0
42360,note_on,10,0,14,,,,,,,,,,11,,73,110
42450,note_on,90,0,14,,,,,,,,,,11,,73,0
42480,note_on,30,0,14,,,,,,,,,,11,,77,110
42480,note_on,240,0,8,,,,,,,,,,6,,50,70
42570,note_on,90,0,14,,,,,,,,,,11,,77,0
42600,note_on,30,0,14,,,,,,,,,,11,,81,110
42720,note_on,120,0,14,,,,,,,,,,11,,77,110
42720,note_on,240,0,8,,,,,,,,,,6,,50,0
42730,note_on,10,0,14,,,,,,,,,,11,,81,0
42830,note_on,100,0,14,,,,,,,,,,11,,77,0
42840,note_on,10,0,14,,,,,,,,,,11,,74,110
42930,note_on,90,0,14,,,,,,,,,,11,,74,0
42960,note_on,30,0,14,,,,,,,,,,11,,76,110
43050,note_on,90,0,14,,,,,,,,,,11,,76,0
43080,note_on,30,0,14,,,,,,,,,,11,,79,110
43200,note_on,120,0,14,,,,,,,,,,11,,76,110
43210,note_on,10,0,14,,,,,,,,,,11,,79,0
43310,note_on,100,0,14,,,,,,,,,,11,,76,0
43320,note_on,10,0,14,,,,,,,,,,11,,73,110
43410,note_on,90,0,14,,,,,,,,,,11,,73,0
43440,note_on,720,0,8,,,,,,,,,,6,,62,70
43440,note_on,30,0,14,,,,,,,,,,11,,77,110
43530,note_on,90,0,14,,,,,,,,,,11,,77,0
43560,note_on,30,0,14,,,,,,,,,,11,,81,110
43680,note_on,120,0,14,,,,,,,,,,11,,77,110
43690,note_on,10,0,14,,,,,,,,,,11,,81,0
43790,note_on,100,0,14,,,,,,,,,,11,,77,0
43800,note_on,10,0,14,,,,,,,,,,11,,74,110
43800,note_on,360,0,8,,,,,,,,,,6,,62,0
43890,note_on,90,0,14,,,,,,,,,,11,,74,0
43920,note_on,30,0,14,,,,,,,,,,11,,76,110
43920,note_on,120,0,8,,,,,,,,,,6,,57,70
44010,note_on,90,0,14,,,,,,,,,,11,,76,0
44040,note_on,30,0,14,,,,,,,,,,11,,79,110
44160,note_on,120,0,14,,,,,,,,,,11,,76,110
44160,note_on,240,0,8,,,,,,,,,,6,,57,0
44170,note_on,10,0,14,,,,,,,,,,11,,79,0
44270,note_on,100,0,14,,,,,,,,,,11,,76,0
44280,note_on,10,0,14,,,,,,,,,,11,,73,110
44370,note_on,90,0,14,,,,,,,,,,11,,73,0
44400,note_on,240,0,8,,,,,,,,,,6,,50,70
44400,note_on,30,0,14,,,,,,,,,,11,,77,110
44490,note_on,90,0,14,,,,,,,,,,11,,77,0
44520,note_on,120,0,8,,,,,,,,,,6,,50,0
44520,note_on,30,0,14,,,,,,,,,,11,,74,110
44640,note_on,120,0,8,,,,,,,,,,6,,52,70
44640,note_on,120,0,14,,,,,,,,,,11,,77,110
44650,note_on,10,0,14,,,,,,,,,,11,,74,0
44750,note_on,100,0,14,,,,,,,,,,11,,77,0
44760,note_on,10,0,14,,,,,,,,,,11,,79,110
44820,note_on,180,0,8,,,,,,,,,,6,,52,0
44850,note_on,90,0,14,,,,,,,,,,11,,79,0
44880,note_on,30,0,14,,,,,,,,,,11,,81,110
44880,note_on,60,0,8,,,,,,,,,,6,,53,70
45000,note_on,120,0,8,,,,,,,,,,6,,53,0
45060,note_on,180,0,14,,,,,,,,,,11,,81,0
45120,note_on,120,0,8,,,,,,,,,,6,,50,70
45120,note_on,60,0,14,,,,,,,,,,11,,69,110
45240,note_on,120,0,14,,,,,,,,,,11,,69,0
45300,note_on,180,0,8,,,,,,,,,,6,,50,0
45360,note_on,60,0,8,,,,,,,,,,6,,55,70
45360,note_on,120,0,14,,,,,,,,,,11,,70,110
45480,note_on,120,0,8,,,,,,,,,,6,,55,0
45480,note_on,120,0,14,,,,,,,,,,11,,70,0
45600,note_on,120,0,8,,,,,,,,,,6,,54,70
45600,note_on,120,0,14,,,,,,,,,,11,,82,110
45780,note_on,180,0,8,,,,,,,,,,6,,54,0
45840,note_on,60,0,8,,,,,,,,,,6,,55,70
45960,note_on,120,0,8,,,,,,,,,,6,,55,0
46040,note_on,440,0,14,,,,,,,,,,11,,82,0
46080,note_on,120,0,8,,,,,,,,,,6,,43,70
46080,note_on,40,0,14,,,,,,,,,,11,,79,110
46200,note_on,120,0,14,,,,,,,,,,11,,79,0
46260,note_on,180,0,8,,,,,,,,,,6,,43,0
46320,note_on,120,0,14,,,,,,,,,,11,,76,110
46320,note_on,60,0,8,,,,,,,,,,6,,55,70
46440,note_on,120,0,14,,,,,,,,,,11,,76,0
46440,note_on,120,0,8,,,,,,,,,,6,,55,0
46560,note_on,120,0,8,,,,,,,,,,6,,57,70
46560,note_on,120,0,14,,,,,,,,,,11,,79,110
46740,note_on,180,0,8,,,,,,,,,,6,,57,0
46800,note_on,60,0,8,,,,,,,,,,6,,58,70
46920,note_on,120,0,8,,,,,,,,,,6,,58,0
47000,note_on,440,0,14,,,,,,,,,,11,,79,0
47040,note_on,120,0,8,,,,,,,,,,6,,55,70
47040,note_on,40,0,14,,,,,,,,,,11,,76,110
47160,note_on,120,0,14,,,,,,,,,,11,,76,0
47220,note_on,180,0,8,,,,,,,,,,6,,55,0
47280,note_on,60,0,8,,,,,,,,,,6,,57,70
47280,note_on,120,0,14,,,,,,,,,,11,,74,110
47340,note_on,60,0,14,,,,,,,,,,11,,73,110
47350,note_on,10,0,14,,,,,,,,,,11,,74,0
47400,note_on,120,0,8,,,,,,,,,,6,,57,0
47400,note_on,50,0,14,,,,,,,,,,11,,74,110
47410,note_on,10,0,14,,,,,,,,,,11,,73,0
47460,note_on,50,0,14,,,,,,,,,,11,,73,110
47470,note_on,10,0,14,,,,,,,,,,11,,74,0
47520,note_on,120,0,8,,,,,,,,,,6,,55,70
47700,note_on,180,0,8,,,,,,,,,,6,,55,0
47700,note_on,230,0,14,,,,,,,,,,11,,73,0
47760,note_on,60,0,14,,,,,,,,,,11,,76,110
47760,note_on,60,0,8,,,,,,,,,,6,,53,70
47820,note_on,60,0,14,,,,,,,,,,11,,74,110
47830,note_on,10,0,14,,,,,,,,,,11,,76,0
47880,note_on,120,0,8,,,,,,,,,,6,,53,0
47880,note_on,50,0,14,,,,,,,,,,11,,76,110
47890,note_on,10,0,14,,,,,,,,,,11,,74,0
47940,note_on,50,0,14,,,,,,,,,,11,,74,110
47950,note_on,10,0,14,,,,,,,,,,11,,76,0
48000,note_on,120,0,8,,,,,,,,,,6,,50,70
48180,note_on,230,0,14,,,,,,,,,,11,,74,0
48180,note_on,180,0,8,,,,,,,,,,6,,50,0
48240,note_on,60,0,14,,,,,,,,,,11,,77,110
48240,note_on,60,0,8,,,,,,,,,,6,,49,70
48300,note_on,60,0,14,,,,,,,,,,11,,76,110
48310,note_on,10,0,14,,,,,,,,,,11,,77,0
48360,note_on,120,0,8,,,,,,,,,,6,,49,0
48360,note_on,50,0,14,,,,,,,,,,11,,77,110
48370,note_on,10,0,14,,,,,,,,,,11,,76,0
48420,note_on,50,0,14,,,,,,,,,,11,,76,110
48430,note_on,10,0,14,,,,,,,,,,11,,77,0
48480,note_on,120,0,8,,,,,,,,,,6,,57,70
48660,note_on,180,0,8,,,,,,,,,,6,,57,0
48660,note_on,230,0,14,,,,,,,,,,11,,76,0
48720,note_on,60,0,14,,,,,,,,,,11,,79,110
48720,note_on,60,0,8,,,,,,,,,,6,,62,70
48780,note_on,60,0,14,,,,,,,,,,11,,77,110
48790,note_on,10,0,14,,,,,,,,,,11,,79,0
48840,note_on,50,0,14,,,,,,,,,,11,,79,110
48840,note_on,120,0,8,,,,,,,,,,6,,62,0
48850,note_on,10,0,14,,,,,,,,,,11,,77,0
48900,note_on,50,0,14,,,,,,,,,,11,,77,110
48910,note_on,10,0,14,,,,,,,,,,11,,79,0
48960,note_on,120,0,8,,,,,,,,,,6,,50,70
49140,note_on,180,0,8,,,,,,,,,,6,,50,0
49140,note_on,230,0,14,,,,,,,,,,11,,77,0
49200,note_on,60,0,8,,,,,,,,,,6,,52,70
49200,note_on,60,0,14,,,,,,,,,,11,,79,110
49320,note_on,120,0,8,,,,,,,,,,6,,52,0
49440,note_on,120,0,8,,,,,,,,,,6,,49,70
49620,note_on,180,0,8,,,,,,,,,,6,,49,0
49680,note_on,60,0,8,,,,,,,,,,6,,45,70
49770,note_on,570,0,14,,,,,,,,,,11,,79,0
49800,note_on,30,0,14,,,,,,,,,,11,,77,110
49800,note_on,120,0,8,,,,,,,,,,6,,45,0
49920,note_on,120,0,14,,,,,,,,,,11,,76,110
49920,note_on,120,0,8,,,,,,,,,,6,,49,70
49930,note_on,10,0,14,,,,,,,,,,11,,77,0
50030,note_on,100,0,14,,,,,,,,,,11,,76,0
50040,note_on,10,0,14,,,,,,,,,,11,,79,110
50100,note_on,180,0,8,,,,,,,,,,6,,49,0
50130,note_on,90,0,14,,,,,,,,,,11,,79,0
50160,note_on,30,0,14,,,,,,,,,,11,,77,110
50160,note_on,60,0,8,,,,,,,,,,6,,50,70
50250,note_on,90,0,14,,,,,,,,,,11,,77,0
50280,note_on,30,0,14,,,,,,,,,,11,,76,110
50280,note_on,120,0,8,,,,,,,,,,6,,50,0
50400,note_on,120,0,14,,,,,,,,,,11,,74,110
50400,note_on,120,0,8,,,,,,,,,,6,,53,70
50410,note_on,10,0,14,,,,,,,,,,11,,76,0
50510,note_on,100,0,14,,,,,,,,,,11,,74,0
50520,note_on,10,0,14,,,,,,,,,,11,,77,110
50580,note_on,180,0,8,,,,,,,,,,6,,53,0
50610,note_on,90,0,14,,,,,,,,,,11,,77,0
50640,note_on,60,0,8,,,,,,,,,,6,,55,70
50640,note_on,30,0,14,,,,,,,,,,11,,76,110
50730,note_on,90,0,14,,,,,,,,,,11,,76,0
50760,note_on,120,0,8,,,,,,,,,,6,,55,0
50760,note_on,30,0,14,,,,,,,,,,11,,74,110
50880,note_on,9200,0,2,,,,,,,,,,0,,81,90
50880,note_on,120,0,8,,,,,,,,,,6,,57,90
50880,note_on,25320,0,3,,,,,,,,,,1,,81,90
50880,note_on,25320,0,11,,,,,,,,,,8,,45,90
50880,note_on,25320,0,9,,,,,,,,,,7,,57,90
50880,note_on,120,0,14,,,,,,,,,,11,,73,110
50890,note_on,10,0,14,,,,,,,,,,11,,74,0
50990,note_on,100,0,14,,,,,,,,,,11,,73,0
51000,note_on,120,0,3,,,,,,,,,,1,,81,0
51000,note_on,10,0,14,,,,,,,,,,11,,76,110
51000,note_on,120,0,2,,,,,,,,,,0,,81,0
51060,note_on,180,0,9,,,,,,,,,,7,,57,0
51060,note_on,180,0,11,,,,,,,,,,8,,45,0
51060,note_on,180,0,8,,,,,,,,,,6,,57,0
51090,note_on,90,0,14,,,,,,,,,,11,,76,0
51120,note_on,60,0,9,,,,,,,,,,7,,50,90
51120,note_on,25560,0,7,,,,,,,,,,5,,62,90
51120,note_on,9660,0,5,,,,,,,,,,3,,77,90
51120,note_on,120,0,2,,,,,,,,,,0,,69,90
51120,note_on,30,0,14,,,,,,,,,,11,,74,110
51120,note_on,60,0,11,,,,,,,,,,8,,38,90
51120,note_on,25560,0,4,,,,,,,,,,2,,77,90
51120,note_on,60,0,8,,,,,,,,,,6,,50,90
51120,note_on,120,0,3,,,,,,,,,,1,,69,90
51120,note_on,9660,0,6,,,,,,,,,,4,,62,90
51210,note_on,90,0,7,,,,,,,,,,5,,62,0
51210,note_on,90,0,4,,,,,,,,,,2,,77,0
51210,note_on,90,0,5,,,,,,,,,,3,,77,0
51210,note_on,90,0,6,,,,,,,,,,4,,62,0
51240,note_on,30,0,7,,,,,,,,,,5,,61,90
51240,note_on,30,0,4,,,,,,,,,,2,,76,90
51240,note_on,120,0,3,,,,,,,,,,1,,69,0
51240,note_on,120,0,2,,,,,,,,,,0,,69,0
51240,note_on,30,0,5,,,,,,,,,,3,,76,90
51240,note_on,30,0,6,,,,,,,,,,4,,61,90
51360,note_on,120,0,6,,,,,,,,,,4,,62,90
51360,note_on,120,0,2,,,,,,,,,,0,,74,90
51360,note_on,120,0,5,,,,,,,,,,3,,77,90
51360,note_on,120,0,3,,,,,,,,,,1,,74,90
51360,note_on,240,0,8,,,,,,,,,,6,,50,0
51360,note_on,120,0,7,,,,,,,,,,5,,62,90
51360,note_on,240,0,11,,,,,,,,,,8,,38,0
51360,note_on,120,0,4,,,,,,,,,,2,,77,90
51360,note_on,240,0,9,,,,,,,,,,7,,50,0
51370,note_on,10,0,5,,,,,,,,,,3,,76,0
51370,note_on,10,0,6,,,,,,,,,,4,,61,0
51370,note_on,10,0,4,,,,,,,,,,2,,76,0
51370,note_on,10,0,7,,,,,,,,,,5,,61,0
51470,note_on,100,0,4,,,,,,,,,,2,,77,0
51470,note_on,100,0,6,,,,,,,,,,4,,62,0
51470,note_on,100,0,5,,,,,,,,,,3,,77,0
51470,note_on,100,0,7,,,,,,,,,,5,,62,0
51480,note_on,10,0,6,,,,,,,,,,4,,64,90
51480,note_on,10,0,7,,,,,,,,,,5,,64,90
51480,note_on,10,0,4,,,,,,,,,,2,,79,90
51480,note_on,360,0,14,,,,,,,,,,11,,74,0
51480,note_on,10,0,5,,,,,,,,,,3,,79,90
51540,note_on,180,0,3,,,,,,,,,,1,,74,0
51540,note_on,180,0,2,,,,,,,,,,0,,74,0
51570,note_on,90,0,5,,,,,,,,,,3,,79,0
51570,note_on,90,0,7,,,,,,,,,,5,,64,0
51570,note_on,90,0,4,,,,,,,,,,2,,79,0
51570,note_on,90,0,6,,,,,,,,,,4,,64,0
51600,note_on,240,0,9,,,,,,,,,,7,,62,90
51600,note_on,30,0,6,,,,,,,,,,4,,65,90
51600,note_on,30,0,4,,,,,,,,,,2,,81,90
51600,note_on,240,0,11,,,,,,,,,,8,,50,90
51600,note_on,240,0,8,,,,,,,,,,6,,62,90
51600,note_on,30,0,7,,,,,,,,,,5,,65,90
51600,note_on,60,0,2,,,,,,,,,,0,,65,90
51600,note_on,60,0,3,,,,,,,,,,1,,65,90
51600,note_on,30,0,5,,,,,,,,,,3,,81,90
51720,note_on,120,0,8,,,,,,,,,,6,,62,0
51720,note_on,120,0,9,,,,,,,,,,7,,62,0
51720,note_on,120,0,3,,,,,,,,,,1,,65,0
51720,note_on,120,0,5,,,,,,,,,,3,,81,0
51720,note_on,120,0,11,,,,,,,,,,8,,50,0
51720,note_on,120,0,6,,,,,,,,,,4,,65,0
51720,note_on,120,0,2,,,,,,,,,,0,,65,0
51720,note_on,120,0,7,,,,,,,,,,5,,65,0
51720,note_on,120,0,4,,,,,,,,,,2,,81,0
51840,note_on,120,0,2,,,,,,,,,,0,,74,90
51840,note_on,120,0,6,,,,,,,,,,4,,53,90
51840,note_on,120,0,5,,,,,,,,,,3,,69,90
51840,note_on,120,0,4,,,,,,,,,,2,,69,90
51840,note_on,120,0,7,,,,,,,,,,5,,53,90
51840,note_on,120,0,11,,,,,,,,,,8,,38,90
51840,note_on,120,0,8,,,,,,,,,,6,,50,90
51840,note_on,360,0,14,,,,,,,,,,11,,74,90
51840,note_on,120,0,3,,,,,,,,,,1,,74,90
51840,note_on,120,0,9,,,,,,,,,,7,,50,90
52020,note_on,180,0,11,,,,,,,,,,8,,38,0
52020,note_on,180,0,7,,,,,,,,,,5,,53,0
52020,note_on,180,0,4,,,,,,,,,,2,,69,0
52020,note_on,180,0,6,,,,,,,,,,4,,53,0
52020,note_on,180,0,3,,,,,,,,,,1,,74,0
52020,note_on,180,0,9,,,,,,,,,,7,,50,0
52020,note_on,180,0,8,,,,,,,,,,6,,50,0
52020,note_on,180,0,5,,,,,,,,,,3,,69,0
52020,note_on,180,0,14,,,,,,,,,,11,,74,0
52020,note_on,180,0,2,,,,,,,,,,0,,74,0
52080,note_on,60,0,4,,,,,,,,,,2,,76,90
52080,note_on,60,0,3,,,,,,,,,,1,,79,90
52080,note_on,60,0,14,,,,,,,,,,11,,79,90
52080,note_on,60,0,2,,,,,,,,,,0,,79,90
52080,note_on,60,0,5,,,,,,,,,,3,,76,90
52320,note_on,240,0,3,,,,,,,,,,1,,79,0
52320,note_on,240,0,14,,,,,,,,,,11,,79,0
52320,note_on,240,0,4,,,,,,,,,,2,,76,0
52320,note_on,240,0,2,,,,,,,,,,0,,79,0
52320,note_on,240,0,5,,,,,,,,,,3,,76,0
52560,note_on,540,0,11,,,,,,,,,,8,,50,90
52560,note_on,240,0,2,,,,,,,,,,0,,77,90
52560,note_on,240,0,4,,,,,,,,,,2,,74,90
52560,note_on,240,0,3,,,,,,,,,,1,,77,90
52560,note_on,540,0,9,,,,,,,,,,7,,62,90
52560,note_on,240,0,5,,,,,,,,,,3,,74,90
52560,note_on,540,0,8,,,,,,,,,,6,,62,90
52560,note_on,240,0,14,,,,,,,,,,11,,77,90
52680,note_on,120,0,8,,,,,,,,,,6,,62,0
52680,note_on,120,0,9,,,,,,,,,,7,,62,0
52680,note_on,120,0,11,,,,,,,,,,8,,50,0
52740,note_on,180,0,14,,,,,,,,,,11,,77,0
52740,note_on,180,0,2,,,,,,,,,,0,,77,0
52740,note_on,180,0,3,,,,,,,,,,1,,77,0
52800,note_on,120,0,11,,,,,,,,,,8,,38,90
52800,note_on,60,0,14,,,,,,,,,,11,,74,90
52800,note_on,120,0,8,,,,,,,,,,6,,50,90
52800,note_on,60,0,2,,,,,,,,,,0,,74,90
52800,note_on,120,0,9,,,,,,,,,,7,,50,90
52800,note_on,60,0,3,,,,,,,,,,1,,74,90
52920,note_on,360,0,4,,,,,,,,,,2,,74,0
52920,note_on,120,0,3,,,,,,,,,,1,,74,0
52920,note_on,360,0,5,,,,,,,,,,3,,74,0
52920,note_on,120,0,14,,,,,,,,,,11,,74,0
52920,note_on,120,0,2,,,,,,,,,,0,,74,0
52980,note_on,180,0,8,,,,,,,,,,6,,50,0
52980,note_on,180,0,11,,,,,,,,,,8,,38,0
52980,note_on,180,0,9,,,,,,,,,,7,,50,0
53040,note_on,120,0,5,,,,,,,,,,3,,77,90
53040,note_on,120,0,14,,,,,,,,,,11,,69,90
53040,note_on,1020,0,7,,,,,,,,,,5,,62,90
53040,note_on,120,0,3,,,,,,,,,,1,,69,90
53040,note_on,1020,0,6,,,,,,,,,,4,,62,90
53040,note_on,120,0,2,,,,,,,,,,0,,69,90
53040,note_on,120,0,4,,,,,,,,,,2,,77,90
53130,note_on,90,0,4,,,,,,,,,,2,,77,0
53130,note_on,90,0,6,,,,,,,,,,4,,62,0
53130,note_on,90,0,7,,,,,,,,,,5,,62,0
53130,note_on,90,0,5,,,,,,,,,,3,,77,0
53160,note_on,120,0,3,,,,,,,,,,1,,69,0
53160,note_on,30,0,4,,,,,,,,,,2,,76,90
53160,note_on,120,0,2,,,,,,,,,,0,,69,0
53160,note_on,120,0,14,,,,,,,,,,11,,69,0
53160,note_on,30,0,7,,,,,,,,,,5,,61,90
53160,note_on,30,0,6,,,,,,,,,,4,,61,90
53160,note_on,30,0,5,,,,,,,,,,3,,76,90
53280,note_on,120,0,14,,,,,,,,,,11,,74,90
53280,note_on,120,0,6,,,,,,,,,,4,,62,90
53280,note_on,120,0,5,,,,,,,,,,3,,77,90
53280,note_on,120,0,2,,,,,,,,,,0,,74,90
53280,note_on,120,0,3,,,,,,,,,,1,,74,90
53280,note_on,120,0,7,,,,,,,,,,5,,62,90
53280,note_on,120,0,4,,,,,,,,,,2,,77,90
53290,note_on,10,0,7,,,,,,,,,,5,,61,0
53290,note_on,10,0,4,,,,,,,,,,2,,76,0
53290,note_on,10,0,6,,,,,,,,,,4,,61,0
53290,note_on,10,0,5,,,,,,,,,,3,,76,0
53390,note_on,100,0,5,,,,,,,,,,3,,77,0
53390,note_on,100,0,7,,,,,,,,,,5,,62,0
53390,note_on,100,0,4,,,,,,,,,,2,,77,0
53390,note_on,100,0,6,,,,,,,,,,4,,62,0
53400,note_on,10,0,4,,,,,,,,,,2,,79,90
53400,note_on,10,0,5,,,,,,,,,,3,,79,90
53400,note_on,10,0,6,,,,,,,,,,4,,64,90
53400,note_on,10,0,7,,,,,,,,,,5,,64,90
53460,note_on,180,0,14,,,,,,,,,,11,,74,0
53460,note_on,180,0,3,,,,,,,,,,1,,74,0
53460,note_on,180,0,2,,,,,,,,,,0,,74,0
53490,note_on,90,0,6,,,,,,,,,,4,,64,0
53490,note_on,90,0,7,,,,,,,,,,5,,64,0
53490,note_on,90,0,4,,,,,,,,,,2,,79,0
53490,note_on,90,0,5,,,,,,,,,,3,,79,0
53520,note_on,540,0,11,,,,,,,,,,8,,50,90
53520,note_on,30,0,7,,,,,,,,,,5,,65,90
53520,note_on,540,0,9,,,,,,,,,,7,,62,90
53520,note_on,540,0,8,,,,,,,,,,6,,62,90
53520,note_on,60,0,2,,,,,,,,,,0,,65,90
53520,note_on,30,0,4,,,,,,,,,,2,,81,90
53520,note_on,30,0,6,,,,,,,,,,4,,65,90
53520,note_on,60,0,14,,,,,,,,,,11,,65,90
53520,note_on,30,0,5,,,,,,,,,,3,,81,90
53520,note_on,60,0,3,,,,,,,,,,1,,65,90
53640,note_on,120,0,11,,,,,,,,,,8,,50,0
53640,note_on,120,0,4,,,,,,,,,,2,,81,0
53640,note_on,120,0,7,,,,,,,,,,5,,65,0
53640,note_on,120,0,8,,,,,,,,,,6,,62,0
53640,note_on,120,0,5,,,,,,,,,,3,,81,0
53640,note_on,120,0,3,,,,,,,,,,1,,65,0
53640,note_on,120,0,6,,,,,,,,,,4,,65,0
53640,note_on,120,0,14,,,,,,,,,,11,,65,0
53640,note_on,120,0,2,,,,,,,,,,0,,65,0
53640,note_on,120,0,9,,,,,,,,,,7,,62,0
53760,note_on,120,0,8,,,,,,,,,,6,,50,90
53760,note_on,120,0,2,,,,,,,,,,0,,74,90
53760,note_on,120,0,4,,,,,,,,,,2,,69,90
53760,note_on,120,0,9,,,,,,,,,,7,,50,90
53760,note_on,120,0,11,,,,,,,,,,8,,38,90
53760,note_on,120,0,7,,,,,,,,,,5,,53,90
53760,note_on,120,0,6,,,,,,,,,,4,,53,90
53760,note_on,120,0,14,,,,,,,,,,11,,74,90
53760,note_on,120,0,3,,,,,,,,,,1,,74,90
53760,note_on,120,0,5,,,,,,,,,,3,,69,90
53940,note_on,180,0,8,,,,,,,,,,6,,50,0
53940,note_on,180,0,5,,,,,,,,,,3,,69,0
53940,note_on,180,0,3,,,,,,,,,,1,,74,0
53940,note_on,180,0,2,,,,,,,,,,0,,74,0
53940,note_on,180,0,6,,,,,,,,,,4,,53,0
53940,note_on,180,0,7,,,,,,,,,,5,,53,0
53940,note_on,180,0,4,,,,,,,,,,2,,69,0
53940,note_on,180,0,9,,,,,,,,,,7,,50,0
53940,note_on,180,0,14,,,,,,,,,,11,,74,0
53940,note_on,180,0,11,,,,,,,,,,8,,38,0
54000,note_on,60,0,4,,,,,,,,,,2,,79,90
54000,note_on,60,0,2,,,,,,,,,,0,,82,90
54000,note_on,60,0,3,,,,,,,,,,1,,82,90
54000,note_on,60,0,14,,,,,,,,,,11,,82,90
54000,note_on,60,0,5,,,,,,,,,,3,,79,90
54240,note_on,240,0,5,,,,,,,,,,3,,79,0
54240,note_on,240,0,4,,,,,,,,,,2,,79,0
54240,note_on,240,0,3,,,,,,,,,,1,,82,0
54240,note_on,240,0,2,,,,,,,,,,0,,82,0
54240,note_on,240,0,14,,,,,,,,,,11,,82,0
54480,note_on,540,0,8,,,,,,,,,,6,,62,90
54480,note_on,240,0,3,,,,,,,,,,1,,81,90
54480,note_on,540,0,11,,,,,,,,,,8,,50,90
54480,note_on,540,0,9,,,,,,,,,,7,,62,90
54480,note_on,240,0,14,,,,,,,,,,11,,81,90
54480,note_on,240,0,2,,,,,,,,,,0,,81,90
54480,note_on,240,0,4,,,,,,,,,,2,,77,90
54480,note_on,240,0,5,,,,,,,,,,3,,77,90
54600,note_on,120,0,9,,,,,,,,,,7,,62,0
54600,note_on,120,0,11,,,,,,,,,,8,,50,0
54600,note_on,120,0,8,,,,,,,,,,6,,62,0
54660,note_on,180,0,3,,,,,,,,,,1,,81,0
54660,note_on,180,0,14,,,,,,,,,,11,,81,0
54660,note_on,180,0,2,,,,,,,,,,0,,81,0
54720,note_on,60,0,14,,,,,,,,,,11,,74,90
54720,note_on,120,0,8,,,,,,,,,,6,,50,90
54720,note_on,60,0,3,,,,,,,,,,1,,74,90
54720,note_on,60,0,2,,,,,,,,,,0,,74,90
54720,note_on,120,0,9,,,,,,,,,,7,,50,90
54720,note_on,120,0,11,,,,,,,,,,8,,38,90
54840,note_on,360,0,4,,,,,,,,,,2,,77,0
54840,note_on,120,0,14,,,,,,,,,,11,,74,0
54840,note_on,120,0,2,,,,,,,,,,0,,74,0
54840,note_on,360,0,5,,,,,,,,,,3,,77,0
54840,note_on,120,0,3,,,,,,,,,,1,,74,0
54900,note_on,180,0,9,,,,,,,,,,7,,50,0
54900,note_on,180,0,8,,,,,,,,,,6,,50,0
54900,note_on,180,0,11,,,,,,,,,,8,,38,0
54960,note_on,120,0,2,,,,,,,,,,0,,69,90
54960,note_on,1020,0,6,,,,,,,,,,4,,62,90
54960,note_on,120,0,14,,,,,,,,,,11,,69,90
54960,note_on,120,0,4,,,,,,,,,,2,,77,90
54960,note_on,120,0,5,,,,,,,,,,3,,77,90
54960,note_on,1020,0,7,,,,,,,,,,5,,62,90
54960,note_on,120,0,3,,,,,,,,,,1,,69,90
55050,note_on,90,0,7,,,,,,,,,,5,,62,0
55050,note_on,90,0,5,,,,,,,,,,3,,77,0
55050,note_on,90,0,4,,,,,,,,,,2,,77,0
55050,note_on,90,0,6,,,,,,,,,,4,,62,0
55080,note_on,120,0,3,,,,,,,,,,1,,69,0
55080,note_on,30,0,5,,,,,,,,,,3,,76,90
55080,note_on,30,0,6,,,,,,,,,,4,,61,90
55080,note_on,30,0,4,,,,,,,,,,2,,76,90
55080,note_on,30,0,7,,,,,,,,,,5,,61,90
55080,note_on,120,0,14,,,,,,,,,,11,,69,0
55080,note_on,120,0,2,,,,,,,,,,0,,69,0
55200,note_on,120,0,7,,,,,,,,,,5,,62,90
55200,note_on,120,0,14,,,,,,,,,,11,,74,90
55200,note_on,120,0,3,,,,,,,,,,1,,74,90
55200,note_on,120,0,5,,,,,,,,,,3,,77,90
55200,note_on,120,0,4,,,,,,,,,,2,,77,90
55200,note_on,120,0,6,,,,,,,,,,4,,62,90
55200,note_on,120,0,2,,,,,,,,,,0,,74,90
55210,note_on,10,0,4,,,,,,,,,,2,,76,0
55210,note_on,10,0,7,,,,,,,,,,5,,61,0
55210,note_on,10,0,6,,,,,,,,,,4,,61,0
55210,note_on,10,0,5,,,,,,,,,,3,,76,0
55310,note_on,100,0,6,,,,,,,,,,4,,62,0
55310,note_on,100,0,5,,,,,,,,,,3,,77,0
55310,note_on,100,0,4,,,,,,,,,,2,,77,0
55310,note_on,100,0,7,,,,,,,,,,5,,62,0
55320,note_on,10,0,4,,,,,,,,,,2,,79,90
55320,note_on,10,0,5,,,,,,,,,,3,,79,90
55320,note_on,10,0,6,,,,,,,,,,4,,64,90
55320,note_on,10,0,7,,,,,,,,,,5,,64,90
55380,note_on,180,0,14,,,,,,,,,,11,,74,0
55380,note_on,180,0,3,,,,,,,,,,1,,74,0
55380,note_on,180,0,2,,,,,,,,,,0,,74,0
55410,note_on,90,0,7,,,,,,,,,,5,,64,0
55410,note_on,90,0,4,,,,,,,,,,2,,79,0
55410,note_on,90,0,5,,,,,,,,,,3,,79,0
55410,note_on,90,0,6,,,,,,,,,,4,,64,0
55440,note_on,30,0,7,,,,,,,,,,5,,65,90
55440,note_on,60,0,2,,,,,,,,,,0,,65,90
55440,note_on,540,0,8,,,,,,,,,,6,,62,90
55440,note_on,30,0,6,,,,,,,,,,4,,65,90
55440,note_on,540,0,11,,,,,,,,,,8,,50,90
55440,note_on,540,0,9,,,,,,,,,,7,,62,90
55440,note_on,60,0,14,,,,,,,,,,11,,65,90
55440,note_on,60,0,3,,,,,,,,,,1,,65,90
55440,note_on,30,0,4,,,,,,,,,,2,,81,90
55440,note_on,30,0,5,,,,,,,,,,3,,81,90
55560,note_on,120,0,9,,,,,,,,,,7,,62,0
55560,note_on,120,0,3,,,,,,,,,,1,,65,0
55560,note_on,120,0,8,,,,,,,,,,6,,62,0
55560,note_on,120,0,2,,,,,,,,,,0,,65,0
55560,note_on,120,0,11,,,,,,,,,,8,,50,0
55560,note_on,120,0,5,,,,,,,,,,3,,81,0
55560,note_on,120,0,4,,,,,,,,,,2,,81,0
55560,note_on,120,0,7,,,,,,,,,,5,,65,0
55560,note_on,120,0,6,,,,,,,,,,4,,65,0
55560,note_on,120,0,14,,,,,,,,,,11,,65,0
55680,note_on,120,0,3,,,,,,,,,,1,,74,90
55680,note_on,120,0,7,,,,,,,,,,5,,53,90
55680,note_on,120,0,5,,,,,,,,,,3,,69,90
55680,note_on,120,0,2,,,,,,,,,,0,,74,90
55680,note_on,120,0,8,,,,,,,,,,6,,50,90
55680,note_on,120,0,6,,,,,,,,,,4,,53,90
55680,note_on,120,0,4,,,,,,,,,,2,,69,90
55680,note_on,120,0,9,,,,,,,,,,7,,50,90
55680,note_on,120,0,14,,,,,,,,,,11,,74,90
55680,note_on,120,0,11,,,,,,,,,,8,,38,90
55860,note_on,180,0,3,,,,,,,,,,1,,74,0
55860,note_on,180,0,2,,,,,,,,,,0,,74,0
55860,note_on,180,0,7,,,,,,,,,,5,,53,0
55860,note_on,180,0,5,,,,,,,,,,3,,69,0
55860,note_on,180,0,8,,,,,,,,,,6,,50,0
55860,note_on,180,0,9,,,,,,,,,,7,,50,0
55860,note_on,180,0,11,,,,,,,,,,8,,38,0
55860,note_on,180,0,6,,,,,,,,,,4,,53,0
55860,note_on,180,0,4,,,,,,,,,,2,,69,0
55860,note_on,180,0,14,,,,,,,,,,11,,74,0
55920,note_on,60,0,3,,,,,,,,,,1,,81,90
55920,note_on,60,0,4,,,,,,,,,,2,,77,90
55920,note_on,60,0,14,,,,,,,,,,11,,81,90
55920,note_on,60,0,2,,,,,,,,,,0,,81,90
55920,note_on,60,0,5,,,,,,,,,,3,,77,90
56040,note_on,120,0,4,,,,,,,,,,2,,77,0
56040,note_on,120,0,5,,,,,,,,,,3,,77,0
56040,note_on,120,0,3,,,,,,,,,,1,,81,0
56040,note_on,120,0,2,,,,,,,,,,0,,81,0
56040,note_on,120,0,14,,,,,,,,,,11,,81,0
56160,note_on,120,0,5,,,,,,,,,,3,,81,90
56160,note_on,120,0,3,,,,,,,,,,1,,86,90
56160,note_on,120,0,2,,,,,,,,,,0,,86,90
56160,note_on,120,0,14,,,,,,,,,,11,,86,90
56160,note_on,120,0,4,,,,,,,,,,2,,81,90
56340,note_on,180,0,5,,,,,,,,,,3,,81,0
56340,note_on,180,0,14,,,,,,,,,,11,,86,0
56340,note_on,180,0,2,,,,,,,,,,0,,86,0
56340,note_on,180,0,3,,,,,,,,,,1,,86,0
56340,note_on,180,0,4,,,,,,,,,,2,,81,0
56400,note_on,60,0,2,,,,,,,,,,0,,81,90
56400,note_on,60,0,4,,,,,,,,,,2,,77,90
56400,note_on,60,0,3,,,,,,,,,,1,,81,90
56400,note_on,540,0,6,,,,,,,,,,4,,74,90
56400,note_on,60,0,14,,,,,,,,,,11,,81,90
56400,note_on,540,0,9,,,,,,,,,,7,,62,90
56400,note_on,540,0,11,,,,,,,,,,8,,50,90
56400,note_on,540,0,8,,,,,,,,,,6,,62,90
56400,note_on,60,0,5,,,,,,,,,,3,,77,90
56400,note_on,540,0,7,,,,,,,,,,5,,74,90
56520,note_on,120,0,2,,,,,,,,,,0,,81,0
56520,note_on,120,0,9,,,,,,,,,,7,,62,0
56520,note_on,120,0,4,,,,,,,,,,2,,77,0
56520,note_on,120,0,14,,,,,,,,,,11,,81,0
56520,note_on,120,0,3,,,,,,,,,,1,,81,0
56520,note_on,120,0,7,,,,,,,,,,5,,74,0
56520,note_on,120,0,5,,,,,,,,,,3,,77,0
56520,note_on,120,0,6,,,,,,,,,,4,,74,0
56520,note_on,120,0,11,,,,,,,,,,8,,50,0
56520,note_on,120,0,8,,,,,,,,,,6,,62,0
56640,note_on,120,0,7,,,,,,,,,,5,,69,90
56640,note_on,120,0,4,,,,,,,,,,2,,74,90
56640,note_on,120,0,14,,,,,,,,,,11,,77,90
56640,note_on,120,0,5,,,,,,,,,,3,,74,90
56640,note_on,120,0,3,,,,,,,,,,1,,77,90
56640,note_on,120,0,9,,,,,,,,,,7,,50,90
56640,note_on,120,0,2,,,,,,,,,,0,,77,90
56640,note_on,120,0,11,,,,,,,,,,8,,38,90
56640,note_on,120,0,8,,,,,,,,,,6,,50,90
56640,note_on,120,0,6,,,,,,,,,,4,,69,90
56820,note_on,180,0,3,,,,,,,,,,1,,77,0
56820,note_on,180,0,7,,,,,,,,,,5,,69,0
56820,note_on,180,0,11,,,,,,,,,,8,,38,0
56820,note_on,180,0,6,,,,,,,,,,4,,69,0
56820,note_on,180,0,8,,,,,,,,,,6,,50,0
56820,note_on,180,0,5,,,,,,,,,,3,,74,0
56820,note_on,180,0,2,,,,,,,,,,0,,77,0
56820,note_on,180,0,4,,,,,,,,,,2,,74,0
56820,note_on,180,0,14,,,,,,,,,,11,,77,0
56820,note_on,180,0,9,,,,,,,,,,7,,50,0
56880,note_on,60,0,2,,,,,,,,,,0,,76,90
56880,note_on,60,0,14,,,,,,,,,,11,,76,90
56880,note_on,60,0,4,,,,,,,,,,2,,73,90
56880,note_on,60,0,6,,,,,,,,,,4,,69,90
56880,note_on,60,0,9,,,,,,,,,,7,,57,90
56880,note_on,60,0,5,,,,,,,,,,3,,73,90
56880,note_on,60,0,3,,,,,,,,,,1,,76,90
56880,note_on,60,0,8,,,,,,,,,,6,,57,90
56880,note_on,60,0,7,,,,,,,,,,5,,69,90
56880,note_on,60,0,11,,,,,,,,,,8,,45,90
56970,note_on,90,0,8,,,,,,,,,,6,,57,0
56970,note_on,90,0,9,,,,,,,,,,7,,57,0
56970,note_on,90,0,11,,,,,,,,,,8,,45,0
57000,note_on,30,0,9,,,,,,,,,,7,,55,90
57000,note_on,30,0,11,,,,,,,,,,8,,43,90
57000,note_on,30,0,8,,,,,,,,,,6,,55,90
57120,note_on,120,0,11,,,,,,,,,,8,,45,90
57120,note_on,120,0,8,,,,,,,,,,6,,57,90
57120,note_on,120,0,9,,,,,,,,,,7,,57,90
57130,note_on,10,0,11,,,,,,,,,,8,,43,0
57130,note_on,10,0,8,,,,,,,,,,6,,55,0
57130,note_on,10,0,9,,,,,,,,,,7,,55,0
57230,note_on,100,0,9,,,,,,,,,,7,,57,0
57230,note_on,100,0,11,,,,,,,,,,8,,45,0
57230,note_on,100,0,8,,,,,,,,,,6,,57,0
57240,note_on,360,0,14,,,,,,,,,,11,,76,0
57240,note_on,360,0,5,,,,,,,,,,3,,73,0
57240,note_on,10,0,9,,,,,,,,,,7,,58,90
57240,note_on,360,0,4,,,,,,,,,,2,,73,0
57240,note_on,360,0,6,,,,,,,,,,4,,69,0
57240,note_on,10,0,8,,,,,,,,,,6,,58,90
57240,note_on,360,0,3,,,,,,,,,,1,,76,0
57240,note_on,10,0,11,,,,,,,,,,8,,46,90
57240,note_on,360,0,7,,,,,,,,,,5,,69,0
57240,note_on,360,0,2,,,,,,,,,,0,,76,0
57330,note_on,90,0,9,,,,,,,,,,7,,58,0
57330,note_on,90,0,11,,,,,,,,,,8,,46,0
57330,note_on,90,0,8,,,,,,,,,,6,,58,0
57360,note_on,30,0,8,,,,,,,,,,6,,57,90
57360,note_on,30,0,11,,,,,,,,,,8,,45,90
57360,note_on,30,0,9,,,,,,,,,,7,,57,90
57480,note_on,120,0,8,,,,,,,,,,6,,55,90
57480,note_on,120,0,9,,,,,,,,,,7,,55,90
57480,note_on,120,0,11,,,,,,,,,,8,,43,90
57490,note_on,10,0,9,,,,,,,,,,7,,57,0
57490,note_on,10,0,11,,,,,,,,,,8,,45,0
57490,note_on,10,0,8,,,,,,,,,,6,,57,0
57590,note_on,100,0,11,,,,,,,,,,8,,43,0
57590,note_on,100,0,9,,,,,,,,,,7,,55,0
57590,note_on,100,0,8,,,,,,,,,,6,,55,0
57600,note_on,10,0,9,,,,,,,,,,7,,53,90
57600,note_on,10,0,8,,,,,,,,,,6,,53,90
57600,note_on,360,0,3,,,,,,,,,,1,,74,90
57600,note_on,10,0,11,,,,,,,,,,8,,41,90
57600,note_on,360,0,14,,,,,,,,,,11,,74,90
57600,note_on,360,0,2,,,,,,,,,,0,,74,90
57690,note_on,90,0,9,,,,,,,,,,7,,53,0
57690,note_on,90,0,8,,,,,,,,,,6,,53,0
57690,note_on,90,0,11,,,,,,,,,,8,,41,0
57720,note_on,30,0,9,,,,,,,,,,7,,52,90
57720,note_on,30,0,11,,,,,,,,,,8,,40,90
57720,note_on,120,0,2,,,,,,,,,,0,,74,0
57720,note_on,120,0,14,,,,,,,,,,11,,74,0
57720,note_on,120,0,3,,,,,,,,,,1,,74,0
57720,note_on,30,0,8,,,,,,,,,,6,,52,90
57810,note_on,90,0,11,,,,,,,,,,8,,40,0
57810,note_on,90,0,9,,,,,,,,,,7,,52,0
57810,note_on,90,0,8,,,,,,,,,,6,,52,0
57840,note_on,30,0,11,,,,,,,,,,8,,38,90
57840,note_on,600,0,4,,,,,,,,,,2,,77,90
57840,note_on,30,0,9,,,,,,,,,,7,,50,90
57840,note_on,120,0,14,,,,,,,,,,11,,69,90
57840,note_on,600,0,7,,,,,,,,,,5,,62,90
57840,note_on,600,0,6,,,,,,,,,,4,,62,90
57840,note_on,120,0,3,,,,,,,,,,1,,69,90
57840,note_on,120,0,2,,,,,,,,,,0,,69,90
57840,note_on,30,0,8,,,,,,,,,,6,,50,90
57840,note_on,600,0,5,,,,,,,,,,3,,77,90
57930,note_on,90,0,6,,,,,,,,,,4,,62,0
57930,note_on,90,0,7,,,,,,,,,,5,,62,0
57930,note_on,90,0,5,,,,,,,,,,3,,77,0
57930,note_on,90,0,4,,,,,,,,,,2,,77,0
57960,note_on,120,0,3,,,,,,,,,,1,,69,0
57960,note_on,30,0,7,,,,,,,,,,5,,61,90
57960,note_on,30,0,5,,,,,,,,,,3,,76,90
57960,note_on,30,0,4,,,,,,,,,,2,,76,90
57960,note_on,30,0,6,,,,,,,,,,4,,61,90
57960,note_on,120,0,2,,,,,,,,,,0,,69,0
57960,note_on,120,0,14,,,,,,,,,,11,,69,0
58080,note_on,120,0,6,,,,,,,,,,4,,62,90
58080,note_on,120,0,14,,,,,,,,,,11,,74,90
58080,note_on,120,0,2,,,,,,,,,,0,,74,90
58080,note_on,120,0,5,,,,,,,,,,3,,77,90
58080,note_on,120,0,4,,,,,,,,,,2,,77,90
58080,note_on,120,0,3,,,,,,,,,,1,,74,90
58080,note_on,120,0,7,,,,,,,,,,5,,62,90
58080,note_on,240,0,9,,,,,,,,,,7,,50,0
58080,note_on,240,0,11,,,,,,,,,,8,,38,0
58080,note_on,240,0,8,,,,,,,,,,6,,50,0
58090,note_on,10,0,6,,,,,,,,,,4,,61,0
58090,note_on,10,0,5,,,,,,,,,,3,,76,0
58090,note_on,10,0,7,,,,,,,,,,5,,61,0
58090,note_on,10,0,4,,,,,,,,,,2,,76,0
58190,note_on,100,0,6,,,,,,,,,,4,,62,0
58190,note_on,100,0,7,,,,,,,,,,5,,62,0
58190,note_on,100,0,5,,,,,,,,,,3,,77,0
58190,note_on,100,0,4,,,,,,,,,,2,,77,0
58200,note_on,10,0,7,,,,,,,,,,5,,64,90
58200,note_on,10,0,4,,,,,,,,,,2,,79,90
58200,note_on,10,0,6,,,,,,,,,,4,,64,90
58200,note_on,10,0,5,,,,,,,,,,3,,79,90
58260,note_on,180,0,14,,,,,,,,,,11,,74,0
58260,note_on,180,0,2,,,,,,,,,,0,,74,0
58260,note_on,180,0,3,,,,,,,,,,1,,74,0
58290,note_on,90,0,5,,,,,,,,,,3,,79,0
58290,note_on,90,0,6,,,,,,,,,,4,,64,0
58290,note_on,90,0,4,,,,,,,,,,2,,79,0
58290,note_on,90,0,7,,,,,,,,,,5,,64,0
58320,note_on,60,0,14,,,,,,,,,,11,,65,90
58320,note_on,30,0,5,,,,,,,,,,3,,81,90
58320,note_on,30,0,4,,,,,,,,,,2,,81,90
58320,note_on,30,0,7,,,,,,,,,,5,,65,90
58320,note_on,240,0,11,,,,,,,,,,8,,50,90
58320,note_on,240,0,8,,,,,,,,,,6,,62,90
58320,note_on,240,0,9,,,,,,,,,,7,,62,90
58320,note_on,30,0,6,,,,,,,,,,4,,65,90
58320,note_on,60,0,2,,,,,,,,,,0,,65,90
58320,note_on,60,0,3,,,,,,,,,,1,,65,90
58440,note_on,120,0,8,,,,,,,,,,6,,62,0
58440,note_on,120,0,9,,,,,,,,,,7,,62,0
58440,note_on,120,0,4,,,,,,,,,,2,,81,0
58440,note_on,120,0,2,,,,,,,,,,0,,65,0
58440,note_on,120,0,3,,,,,,,,,,1,,65,0
58440,note_on,120,0,14,,,,,,,,,,11,,65,0
58440,note_on,120,0,6,,,,,,,,,,4,,65,0
58440,note_on,120,0,5,,,,,,,,,,3,,81,0
58440,note_on,120,0,7,,,,,,,,,,5,,65,0
58440,note_on,120,0,11,,,,,,,,,,8,,50,0
58560,note_on,120,0,7,,,,,,,,,,5,,53,90
58560,note_on,120,0,9,,,,,,,,,,7,,50,90
58560,note_on,120,0,5,,,,,,,,,,3,,69,90
58560,note_on,120,0,4,,,,,,,,,,2,,69,90
58560,note_on,120,0,8,,,,,,,,,,6,,50,90
58560,note_on,120,0,2,,,,,,,,,,0,,74,90
58560,note_on,120,0,11,,,,,,,,,,8,,38,90
58560,note_on,120,0,14,,,,,,,,,,11,,74,90
58560,note_on,120,0,3,,,,,,,,,,1,,74,90
58560,note_on,120,0,6,,,,,,,,,,4,,53,90
58740,note_on,180,0,9,,,,,,,,,,7,,50,0
58740,note_on,180,0,4,,,,,,,,,,2,,69,0
58740,note_on,180,0,2,,,,,,,,,,0,,74,0
58740,note_on,180,0,11,,,,,,,,,,8,,38,0
58740,note_on,180,0,14,,,,,,,,,,11,,74,0
58740,note_on,180,0,8,,,,,,,,,,6,,50,0
58740,note_on,180,0,3,,,,,,,,,,1,,74,0
58740,note_on,180,0,5,,,,,,,,,,3,,69,0
58740,note_on,180,0,6,,,,,,,,,,4,,53,0
58740,note_on,180,0,7,,,,,,,,,,5,,53,0
58800,note_on,60,0,2,,,,,,,,,,0,,79,90
58800,note_on,60,0,4,,,,,,,,,,2,,76,90
58800,note_on,60,0,5,,,,,,,,,,3,,76,90
58800,note_on,60,0,3,,,,,,,,,,1,,79,90
58800,note_on,60,0,14,,,,,,,,,,11,,79,90
59040,note_on,240,0,3,,,,,,,,,,1,,79,0
59040,note_on,240,0,5,,,,,,,,,,3,,76,0
59040,note_on,240,0,14,,,,,,,,,,11,,79,0
59040,note_on,240,0,2,,,,,,,,,,0,,79,0
59040,note_on,240,0,4,,,,,,,,,,2,,76,0
59280,note_on,240,0,3,,,,,,,,,,1,,77,90
59280,note_on,240,0,14,,,,,,,,,,11,,77,90
59280,note_on,240,0,4,,,,,,,,,,2,,74,90
59280,note_on,240,0,2,,,,,,,,,,0,,77,90
59280,note_on,240,0,5,,,,,,,,,,3,,74,90
59460,note_on,180,0,3,,,,,,,,,,1,,77,0
59460,note_on,180,0,14,,,,,,,,,,11,,77,0
59460,note_on,180,0,2,,,,,,,,,,0,,77,0
59520,note_on,60,0,3,,,,,,,,,,1,,74,90
59520,note_on,60,0,14,,,,,,,,,,11,,74,90
59520,note_on,60,0,2,,,,,,,,,,0,,74,90
59640,note_on,120,0,3,,,,,,,,,,1,,74,0
59640,note_on,360,0,5,,,,,,,,,,3,,74,0
59640,note_on,120,0,14,,,,,,,,,,11,,74,0
59640,note_on,120,0,2,,,,,,,,,,0,,74,0
59640,note_on,360,0,4,,,,,,,,,,2,,74,0
59760,note_on,120,0,5,,,,,,,,,,3,,77,90
59760,note_on,120,0,14,,,,,,,,,,11,,69,90
59760,note_on,1020,0,6,,,,,,,,,,4,,62,90
59760,note_on,120,0,3,,,,,,,,,,1,,69,90
59760,note_on,120,0,4,,,,,,,,,,2,,77,90
59760,note_on,120,0,2,,,,,,,,,,0,,69,90
59760,note_on,1020,0,7,,,,,,,,,,5,,62,90
59850,note_on,90,0,5,,,,,,,,,,3,,77,0
59850,note_on,90,0,7,,,,,,,,,,5,,62,0
59850,note_on,90,0,6,,,,,,,,,,4,,62,0
59850,note_on,90,0,4,,,,,,,,,,2,,77,0
59880,note_on,120,0,3,,,,,,,,,,1,,69,0
59880,note_on,120,0,2,,,,,,,,,,0,,69,0
59880,note_on,120,0,14,,,,,,,,,,11,,69,0
59880,note_on,30,0,6,,,,,,,,,,4,,61,90
59880,note_on,30,0,7,,,,,,,,,,5,,61,90
59880,note_on,30,0,4,,,,,,,,,,2,,76,90
59880,note_on,30,0,5,,,,,,,,,,3,,76,90
60000,note_on,120,0,2,,,,,,,,,,0,,74,90
60000,note_on,120,0,14,,,,,,,,,,11,,74,90
60000,note_on,120,0,4,,,,,,,,,,2,,77,90
60000,note_on,120,0,7,,,,,,,,,,5,,62,90
60000,note_on,120,0,6,,,,,,,,,,4,,62,90
60000,note_on,120,0,3,,,,,,,,,,1,,74,90
60000,note_on,120,0,5,,,,,,,,,,3,,77,90
60010,note_on,10,0,4,,,,,,,,,,2,,76,0
60010,note_on,10,0,6,,,,,,,,,,4,,61,0
60010,note_on,10,0,5,,,,,,,,,,3,,76,0
60010,note_on,10,0,7,,,,,,,,,,5,,61,0
60110,note_on,100,0,5,,,,,,,,,,3,,77,0
60110,note_on,100,0,7,,,,,,,,,,5,,62,0
60110,note_on,100,0,4,,,,,,,,,,2,,77,0
60110,note_on,100,0,6,,,,,,,,,,4,,62,0
60120,note_on,10,0,5,,,,,,,,,,3,,79,90
60120,note_on,10,0,6,,,,,,,,,,4,,64,90
60120,note_on,10,0,7,,,,,,,,,,5,,64,90
60120,note_on,10,0,4,,,,,,,,,,2,,79,90
60180,note_on,180,0,3,,,,,,,,,,1,,74,0
60180,note_on,180,0,2,,,,,,,,,,0,,74,0
60180,note_on,180,0,14,,,,,,,,,,11,,74,0
60210,note_on,90,0,4,,,,,,,,,,2,,79,0
60210,note_on,90,0,5,,,,,,,,,,3,,79,0
60210,note_on,90,0,6,,,,,,,,,,4,,64,0
60210,note_on,90,0,7,,,,,,,,,,5,,64,0
60240,note_on,1500,0,9,,,,,,,,,,7,,62,90
60240,note_on,60,0,3,,,,,,,,,,1,,65,90
60240,note_on,60,0,14,,,,,,,,,,11,,65,90
60240,note_on,30,0,4,,,,,,,,,,2,,81,90
60240,note_on,30,0,6,,,,,,,,,,4,,65,90
60240,note_on,30,0,5,,,,,,,,,,3,,81,90
60240,note_on,60,0,2,,,,,,,,,,0,,65,90
60240,note_on,1500,0,8,,,,,,,,,,6,,62,90
60240,note_on,1500,0,11,,,,,,,,,,8,,50,90
60240,note_on,30,0,7,,,,,,,,,,5,,65,90
60360,note_on,120,0,3,,,,,,,,,,1,,65,0
60360,note_on,120,0,2,,,,,,,,,,0,,65,0
60360,note_on,120,0,8,,,,,,,,,,6,,62,0
60360,note_on,120,0,5,,,,,,,,,,3,,81,0
60360,note_on,120,0,7,,,,,,,,,,5,,65,0
60360,note_on,120,0,6,,,,,,,,,,4,,65,0
60360,note_on,120,0,9,,,,,,,,,,7,,62,0
60360,note_on,120,0,11,,,,,,,,,,8,,50,0
60360,note_on,120,0,14,,,,,,,,,,11,,65,0
60360,note_on,120,0,4,,,,,,,,,,2,,81,0
60480,note_on,120,0,9,,,,,,,,,,7,,50,90
60480,note_on,120,0,11,,,,,,,,,,8,,38,90
60480,note_on,120,0,2,,,,,,,,,,0,,74,90
60480,note_on,120,0,5,,,,,,,,,,3,,69,90
60480,note_on,120,0,8,,,,,,,,,,6,,50,90
60480,note_on,120,0,14,,,,,,,,,,11,,74,90
60480,note_on,120,0,4,,,,,,,,,,2,,69,90
60480,note_on,120,0,3,,,,,,,,,,1,,74,90
60480,note_on,120,0,6,,,,,,,,,,4,,53,90
60480,note_on,120,0,7,,,,,,,,,,5,,53,90
60660,note_on,180,0,4,,,,,,,,,,2,,69,0
60660,note_on,180,0,7,,,,,,,,,,5,,53,0
60660,note_on,180,0,5,,,,,,,,,,3,,69,0
60660,note_on,180,0,6,,,,,,,,,,4,,53,0
60660,note_on,180,0,3,,,,,,,,,,1,,74,0
60660,note_on,180,0,2,,,,,,,,,,0,,74,0
60660,note_on,180,0,8,,,,,,,,,,6,,50,0
60660,note_on,180,0,14,,,,,,,,,,11,,74,0
60660,note_on,180,0,11,,,,,,,,,,8,,38,0
60660,note_on,180,0,9,,,,,,,,,,7,,50,0
60720,note_on,60,0,5,,,,,,,,,,3,,79,90
60720,note_on,60,0,11,,,,,,,,,,8,,31,90
60720,note_on,60,0,14,,,,,,,,,,11,,82,90
60720,note_on,60,0,3,,,,,,,,,,1,,82,90
60720,note_on,60,0,2,,,,,,,,,,0,,82,90
60720,note_on,60,0,7,,,,,,,,,,5,,59,90
60720,note_on,60,0,9,,,,,,,,,,7,,43,90
60720,note_on,60,0,4,,,,,,,,,,2,,79,90
60720,note_on,60,0,6,,,,,,,,,,4,,59,90
60720,note_on,60,0,8,,,,,,,,,,6,,43,90
60840,note_on,120,0,11,,,,,,,,,,8,,31,0
60840,note_on,120,0,9,,,,,,,,,,7,,43,0
60840,note_on,120,0,8,,,,,,,,,,6,,43,0
60840,note_on,120,0,6,,,,,,,,,,4,,59,0
60840,note_on,120,0,7,,,,,,,,,,5,,59,0
60960,note_on,120,0,11,,,,,,,,,,8,,33,90
60960,note_on,120,0,9,,,,,,,,,,7,,45,90
60960,note_on,120,0,7,,,,,,,,,,5,,60,90
60960,note_on,240,0,5,,,,,,,,,,3,,79,0
60960,note_on,120,0,6,,,,,,,,,,4,,60,90
60960,note_on,240,0,4,,,,,,,,,,2,,79,0
60960,note_on,240,0,2,,,,,,,,,,0,,82,0
60960,note_on,240,0,14,,,,,,,,,,11,,82,0
60960,note_on,240,0,3,,,,,,,,,,1,,82,0
60960,note_on,120,0,8,,,,,,,,,,6,,45,90
61140,note_on,180,0,7,,,,,,,,,,5,,60,0
61140,note_on,180,0,6,,,,,,,,,,4,,60,0
61140,note_on,180,0,8,,,,,,,,,,6,,45,0
61140,note_on,180,0,9,,,,,,,,,,7,,45,0
61140,note_on,180,0,11,,,,,,,,,,8,,33,0
61200,note_on,240,0,14,,,,,,,,,,11,,81,90
61200,note_on,240,0,3,,,,,,,,,,1,,81,90
61200,note_on,240,0,4,,,,,,,,,,2,,77,90
61200,note_on,240,0,2,,,,,,,,,,0,,81,90
61200,note_on,60,0,9,,,,,,,,,,7,,47,90
61200,note_on,60,0,11,,,,,,,,,,8,,35,90
61200,note_on,60,0,8,,,,,,,,,,6,,47,90
61200,note_on,60,0,6,,,,,,,,,,4,,62,90
61200,note_on,240,0,5,,,,,,,,,,3,,77,90
61200,note_on,60,0,7,,,,,,,,,,5,,62,90
61320,note_on,120,0,6,,,,,,,,,,4,,62,0
61320,note_on,120,0,4,,,,,,,,,,2,,77,0
61320,note_on,120,0,9,,,,,,,,,,7,,47,0
61320,note_on,120,0,8,,,,,,,,,,6,,47,0
61320,note_on,120,0,11,,,,,,,,,,8,,35,0
61320,note_on,120,0,7,,,,,,,,,,5,,62,0
61320,note_on,120,0,5,,,,,,,,,,3,,77,0
61380,note_on,180,0,2,,,,,,,,,,0,,81,0
61380,note_on,180,0,14,,,,,,,,,,11,,81,0
61380,note_on,180,0,3,,,,,,,,,,1,,81,0
61440,note_on,120,0,11,,,,,,,,,,8,,37,90
61440,note_on,120,0,4,,,,,,,,,,2,,76,90
61440,note_on,120,0,8,,,,,,,,,,6,,49,90
61440,note_on,60,0,3,,,,,,,,,,1,,79,90
61440,note_on,120,0,5,,,,,,,,,,3,,76,90
61440,note_on,60,0,14,,,,,,,,,,11,,79,90
61440,note_on,60,0,2,,,,,,,,,,0,,79,90
61440,note_on,120,0,7,,,,,,,,,,5,,64,90
61440,note_on,120,0,6,,,,,,,,,,4,,64,90
61440,note_on,120,0,9,,,,,,,,,,7,,49,90
61560,note_on,120,0,14,,,,,,,,,,11,,79,0
61560,note_on,120,0,3,,,,,,,,,,1,,79,0
61560,note_on,120,0,2,,,,,,,,,,0,,79,0
61620,note_on,180,0,7,,,,,,,,,,5,,64,0
61620,note_on,180,0,11,,,,,,,,,,8,,37,0
61620,note_on,180,0,6,,,,,,,,,,4,,64,0
61620,note_on,180,0,9,,,,,,,,,,7,,49,0
61620,note_on,180,0,8,,,,,,,,,,6,,49,0
61620,note_on,180,0,5,,,,,,,,,,3,,76,0
61620,note_on,180,0,4,,,,,,,,,,2,,76,0
61680,note_on,120,0,2,,,,,,,,,,0,,77,90
61680,note_on,60,0,9,,,,,,,,,,7,,50,90
61680,note_on,60,0,5,,,,,,,,,,3,,74,90
61680,note_on,60,0,4,,,,,,,,,,2,,74,90
61680,note_on,120,0,14,,,,,,,,,,11,,77,90
61680,note_on,60,0,8,,,,,,,,,,6,,50,90
61680,note_on,60,0,11,,,,,,,,,,8,,38,90
61680,note_on,60,0,7,,,,,,,,,,5,,57,90
61680,note_on,60,0,6,,,,,,,,,,4,,57,90
61680,note_on,120,0,3,,,,,,,,,,1,,77,90
61800,note_on,120,0,2,,,,,,,,,,0,,77,0
61800,note_on,120,0,5,,,,,,,,,,3,,74,0
61800,note_on,120,0,11,,,,,,,,,,8,,38,0
61800,note_on,120,0,7,,,,,,,,,,5,,57,0
61800,note_on,120,0,4,,,,,,,,,,2,,74,0
61800,note_on,120,0,8,,,,,,,,,,6,,50,0
61800,note_on,120,0,9,,,,,,,,,,7,,50,0
61800,note_on,120,0,14,,,,,,,,,,11,,77,0
61800,note_on,120,0,3,,,,,,,,,,1,,77,0
61800,note_on,120,0,6,,,,,,,,,,4,,57,0
61920,note_on,120,0,7,,,,,,,,,,5,,57,90
61920,note_on,120,0,14,,,,,,,,,,11,,76,90
61920,note_on,120,0,4,,,,,,,,,,2,,65,90
61920,note_on,120,0,3,,,,,,,,,,1,,76,90
61920,note_on,120,0,11,,,,,,,,,,8,,38,90
61920,note_on,120,0,8,,,,,,,,,,6,,50,90
61920,note_on,120,0,5,,,,,,,,,,3,,65,90
61920,note_on,120,0,9,,,,,,,,,,7,,50,90
61920,note_on,120,0,2,,,,,,,,,,0,,76,90
61920,note_on,120,0,6,,,,,,,,,,4,,57,90
62030,note_on,110,0,14,,,,,,,,,,11,,76,0
62030,note_on,110,0,2,,,,,,,,,,0,,76,0
62030,note_on,110,0,3,,,,,,,,,,1,,76,0
62040,note_on,10,0,14,,,,,,,,,,11,,74,90
62040,note_on,10,0,2,,,,,,,,,,0,,74,90
62040,note_on,10,0,3,,,,,,,,,,1,,74,90
62100,note_on,180,0,11,,,,,,,,,,8,,38,0
62100,note_on,180,0,7,,,,,,,,,,5,,57,0
62100,note_on,180,0,4,,,,,,,,,,2,,65,0
62100,note_on,180,0,5,,,,,,,,,,3,,65,0
62100,note_on,180,0,8,,,,,,,,,,6,,50,0
62100,note_on,180,0,6,,,,,,,,,,4,,57,0
62100,note_on,180,0,9,,,,,,,,,,7,,50,0
62130,note_on,90,0,3,,,,,,,,,,1,,74,0
62130,note_on,90,0,2,,,,,,,,,,0,,74,0
62130,note_on,90,0,14,,,,,,,,,,11,,74,0
62160,note_on,60,0,8,,,,,,,,,,6,,43,90
62160,note_on,30,0,14,,,,,,,,,,11,,76,90
62160,note_on,60,0,9,,,,,,,,,,7,,43,90
62160,note_on,60,0,5,,,,,,,,,,3,,67,90
62160,note_on,60,0,4,,,,,,,,,,2,,67,90
62160,note_on,30,0,3,,,,,,,,,,1,,76,90
62160,note_on,30,0,2,,,,,,,,,,0,,76,90
62160,note_on,60,0,7,,,,,,,,,,5,,58,90
62160,note_on,60,0,6,,,,,,,,,,4,,58,90
62160,note_on,60,0,11,,,,,,,,,,8,,31,90
62280,note_on,120,0,11,,,,,,,,,,8,,31,0
62280,note_on,120,0,14,,,,,,,,,,11,,76,0
62280,note_on,120,0,5,,,,,,,,,,3,,67,0
62280,note_on,120,0,2,,,,,,,,,,0,,76,0
62280,note_on,120,0,4,,,,,,,,,,2,,67,0
62280,note_on,120,0,8,,,,,,,,,,6,,43,0
62280,note_on,120,0,7,,,,,,,,,,5,,58,0
62280,note_on,120,0,9,,,,,,,,,,7,,43,0
62280,note_on,120,0,3,,,,,,,,,,1,,76,0
62280,note_on,120,0,6,,,,,,,,,,4,,58,0
62400,note_on,120,0,9,,,,,,,,,,7,,45,90
62400,note_on,120,0,4,,,,,,,,,,2,,64,90
62400,note_on,120,0,6,,,,,,,,,,4,,57,90
62400,note_on,120,0,3,,,,,,,,,,1,,73,90
62400,note_on,120,0,7,,,,,,,,,,5,,57,90
62400,note_on,120,0,8,,,,,,,,,,6,,45,90
62400,note_on,120,0,14,,,,,,,,,,11,,73,90
62400,note_on,120,0,11,,,,,,,,,,8,,33,90
62400,note_on,120,0,5,,,,,,,,,,3,,64,90
62400,note_on,120,0,2,,,,,,,,,,0,,73,90
62580,note_on,180,0,14,,,,,,,,,,11,,73,0
62580,note_on,180,0,9,,,,,,,,,,7,,45,0
62580,note_on,180,0,3,,,,,,,,,,1,,73,0
62580,note_on,180,0,5,,,,,,,,,,3,,64,0
62580,note_on,180,0,6,,,,,,,,,,4,,57,0
62580,note_on,180,0,2,,,,,,,,,,0,,73,0
62580,note_on,180,0,7,,,,,,,,,,5,,57,0
62580,note_on,180,0,8,,,,,,,,,,6,,45,0
62580,note_on,180,0,11,,,,,,,,,,8,,33,0
62580,note_on,180,0,4,,,,,,,,,,2,,64,0
62640,note_on,60,0,3,,,,,,,,,,1,,74,90
62640,note_on,60,0,7,,,,,,,,,,5,,53,90
62640,note_on,60,0,11,,,,,,,,,,8,,38,90
62640,note_on,60,0,9,,,,,,,,,,7,,50,90
62640,note_on,60,0,8,,,,,,,,,,6,,50,90
62640,note_on,60,0,6,,,,,,,,,,4,,53,90
62640,note_on,60,0,2,,,,,,,,,,0,,74,90
62640,note_on,60,0,4,,,,,,,,,,2,,62,90
62640,note_on,60,0,5,,,,,,,,,,3,,62,90
62640,note_on,60,0,14,,,,,,,,,,11,,74,110
62760,note_on,120,0,14,,,,,,,,,,11,,73,110
62770,note_on,10,0,14,,,,,,,,,,11,,74,0
62870,note_on,100,0,14,,,,,,,,,,11,,73,0
62880,note_on,10,0,14,,,,,,,,,,11,,71,110
62990,note_on,110,0,14,,,,,,,,,,11,,71,0
63000,note_on,360,0,11,,,,,,,,,,8,,38,0
63000,note_on,360,0,9,,,,,,,,,,7,,50,0
63000,note_on,360,0,4,,,,,,,,,,2,,62,0
63000,note_on,360,0,5,,,,,,,,,,3,,62,0
63000,note_on,360,0,3,,,,,,,,,,1,,74,0
63000,note_on,360,0,7,,,,,,,,,,5,,53,0
63000,note_on,360,0,8,,,,,,,,,,6,,50,0
63000,note_on,360,0,6,,,,,,,,,,4,,53,0
63000,note_on,360,0,2,,,,,,,,,,0,,74,0
63000,note_on,10,0,14,,,,,,,,,,11,,69,110
63090,note_on,90,0,14,,,,,,,,,,11,,69,0
63120,note_on,120,0,8,,,,,,,,,,6,,49,70
63120,note_on,30,0,14,,,,,,,,,,11,,76,110
63240,note_on,120,0,14,,,,,,,,,,11,,73,110
63250,note_on,10,0,14,,,,,,,,,,11,,76,0
63350,note_on,100,0,14,,,,,,,,,,11,,73,0
63360,note_on,240,0,8,,,,,,,,,,6,,49,0
63360,note_on,10,0,14,,,,,,,,,,11,,71,110
63470,note_on,110,0,14,,,,,,,,,,11,,71,0
63480,note_on,10,0,14,,,,,,,,,,11,,69,110
63570,note_on,90,0,14,,,,,,,,,,11,,69,0
63600,note_on,30,0,14,,,,,,,,,,11,,77,110
63600,note_on,240,0,8,,,,,,,,,,6,,50,70
63720,note_on,120,0,14,,,,,,,,,,11,,76,110
63730,note_on,10,0,14,,,,,,,,,,11,,77,0
63830,note_on,100,0,14,,,,,,,,,,11,,76,0
63840,note_on,10,0,14,,,,,,,,,,11,,74,110
63950,note_on,110,0,14,,,,,,,,,,11,,74,0
63960,note_on,360,0,8,,,,,,,,,,6,,50,0
63960,note_on,10,0,14,,,,,,,,,,11,,73,110
64050,note_on,90,0,14,,,,,,,,,,11,,73,0
64080,note_on,30,0,14,,,,,,,,,,11,,81,110
64080,note_on,120,0,8,,,,,,,,,,6,,49,70
64200,note_on,120,0,14,,,,,,,,,,11,,79,110
64210,note_on,10,0,14,,,,,,,,,,11,,81,0
64310,note_on,100,0,14,,,,,,,,,,11,,79,0
64320,note_on,240,0,8,,,,,,,,,,6,,49,0
64320,note_on,10,0,14,,,,,,,,,,11,,77,110
64430,note_on,110,0,14,,,,,,,,,,11,,77,0
64440,note_on,10,0,14,,,,,,,,,,11,,76,110
64530,note_on,90,0,14,,,,,,,,,,11,,76,0
64560,note_on,240,0,8,,,,,,,,,,6,,50,70
64560,note_on,30,0,14,,,,,,,,,,11,,74,110
64680,note_on,120,0,14,,,,,,,,,,11,,74,0
64800,note_on,120,0,14,,,,,,,,,,11,,69,110
64920,note_on,360,0,8,,,,,,,,,,6,,50,0
65040,note_on,120,0,8,,,,,,,,,,6,,50,70
65240,note_on,440,0,14,,,,,,,,,,11,,69,0
65280,note_on,240,0,8,,,,,,,,,,6,,50,0
65280,note_on,40,0,14,,,,,,,,,,11,,74,110
65520,note_on,240,0,8,,,,,,,,,,6,,50,70
65640,note_on,360,0,14,,,,,,,,,,11,,74,0
65760,note_on,120,0,14,,,,,,,,,,11,,77,110
65880,note_on,360,0,8,,,,,,,,,,6,,50,0
66000,note_on,120,0,8,,,,,,,,,,6,,50,70
66200,note_on,440,0,14,,,,,,,,,,11,,77,0
66240,note_on,40,0,14,,,,,,,,,,11,,81,110
66240,note_on,240,0,8,,,,,,,,,,6,,50,0
66480,note_on,240,0,8,,,,,,,,,,6,,45,70
66480,note_on,240,0,14,,,,,,,,,,11,,73,110
66490,note_on,10,0,14,,,,,,,,,,11,,81,0
66600,note_on,110,0,14,,,,,,,,,,11,,71,110
66610,note_on,10,0,14,,,,,,,,,,11,,73,0
66710,note_on,100,0,14,,,,,,,,,,11,,71,0
66720,note_on,10,0,14,,,,,,,,,,11,,69,110
66830,note_on,110,0,14,,,,,,,,,,11,,69,0
66840,note_on,10,0,14,,,,,,,,,,11,,67,110
66840,note_on,360,0,8,,,,,,,,,,6,,45,0
66930,note_on,90,0,14,,,,,,,,,,11,,67,0
66960,note_on,120,0,8,,,,,,,,,,6,,45,70
66960,note_on,30,0,14,,,,,,,,,,11,,76,110
67080,note_on,120,0,14,,,,,,,,,,11,,73,110
67090,note_on,10,0,14,,,,,,,,,,11,,76,0
67190,note_on,100,0,14,,,,,,,,,,11,,73,0
67200,note_on,10,0,14,,,,,,,,,,11,,71,110
67200,note_on,240,0,8,,,,,,,,,,6,,45,0
67310,note_on,110,0,14,,,,,,,,,,11,,71,0
67320,note_on,10,0,14,,,,,,,,,,11,,69,110
67410,note_on,90,0,14,,,,,,,,,,11,,69,0
67440,note_on,240,0,8,,,,,,,,,,6,,45,70
67440,note_on,30,0,14,,,,,,,,,,11,,79,110
67560,note_on,120,0,14,,,,,,,,,,11,,76,110
67570,note_on,10,0,14,,,,,,,,,,11,,79,0
67670,note_on,100,0,14,,,,,,,,,,11,,76,0
67680,note_on,10,0,14,,,,,,,,,,11,,74,110
67790,note_on,110,0,14,,,,,,,,,,11,,74,0
67800,note_on,360,0,8,,,,,,,,,,6,,45,0
67800,note_on,10,0,14,,,,,,,,,,11,,73,110
67890,note_on,90,0,14,,,,,,,,,,11,,73,0
67920,note_on,30,0,14,,,,,,,,,,11,,81,110
67920,note_on,120,0,8,,,,,,,,,,6,,45,70
68040,note_on,120,0,14,,,,,,,,,,11,,79,110
68050,note_on,10,0,14,,,,,,,,,,11,,81,0
68150,note_on,100,0,14,,,,,,,,,,11,,79,0
68160,note_on,240,0,8,,,,,,,,,,6,,45,0
68160,note_on,10,0,14,,,,,,,,,,11,,77,110
68270,note_on,110,0,14,,,,,,,,,,11,,77,0
68280,note_on,10,0,14,,,,,,,,,,11,,76,110
68370,note_on,90,0,14,,,,,,,,,,11,,76,0
68400,note_on,30,0,14,,,,,,,,,,11,,77,110
68400,note_on,240,0,8,,,,,,,,,,6,,50,70
68520,note_on,120,0,14,,,,,,,,,,11,,77,0
68640,note_on,120,0,14,,,,,,,,,,11,,74,110
68640,note_on,240,0,8,,,,,,,,,,6,,50,0
68750,note_on,110,0,14,,,,,,,,,,11,,74,0
68760,note_on,10,0,14,,,,,,,,,,11,,73,110
68850,note_on,90,0,14,,,,,,,,,,11,,73,0
68880,note_on,240,0,8,,,,,,,,,,6,,48,70
68880,note_on,30,0,14,,,,,,,,,,11,,74,110
69000,note_on,120,0,8,,,,,,,,,,6,,48,0
69000,note_on,120,0,14,,,,,,,,,,11,,76,110
69010,note_on,10,0,14,,,,,,,,,,11,,74,0
69110,note_on,100,0,14,,,,,,,,,,11,,76,0
69120,note_on,10,0,14,,,,,,,,,,11,,77,110
69120,note_on,120,0,8,,,,,,,,,,6,,46,70
69120,note_on,6120,0,2,,,,,,,,,,0,,74,70
69230,note_on,110,0,14,,,,,,,,,,11,,77,0
69240,note_on,120,0,2,,,,,,,,,,0,,74,0
69240,note_on,10,0,14,,,,,,,,,,11,,79,110
69300,note_on,180,0,8,,,,,,,,,,6,,46,0
69330,note_on,90,0,14,,,,,,,,,,11,,79,0
69360,note_on,30,0,14,,,,,,,,,,11,,82,90
69360,note_on,6360,0,5,,,,,,,,,,3,,76,70
69360,note_on,60,0,8,,,,,,,,,,6,,45,70
69360,note_on,6360,0,6,,,,,,,,,,4,,57,70
69360,note_on,120,0,2,,,,,,,,,,0,,73,70
69420,note_on,60,0,14,,,,,,,,,,11,,81,90
69430,note_on,10,0,14,,,,,,,,,,11,,82,0
69450,note_on,90,0,5,,,,,,,,,,3,,76,0
69480,note_on,50,0,14,,,,,,,,,,11,,82,90
69480,note_on,120,0,2,,,,,,,,,,0,,73,0
69480,note_on,30,0,5,,,,,,,,,,3,,74,70
69490,note_on,10,0,14,,,,,,,,,,11,,81,0
69540,note_on,50,0,14,,,,,,,,,,11,,81,90
69550,note_on,10,0,14,,,,,,,,,,11,,82,0
69600,note_on,50,0,14,,,,,,,,,,11,,82,90
69600,note_on,120,0,5,,,,,,,,,,3,,76,70
69600,note_on,240,0,6,,,,,,,,,,4,,57,0
69600,note_on,120,0,2,,,,,,,,,,0,,76,70
69610,note_on,10,0,5,,,,,,,,,,3,,74,0
69610,note_on,10,0,14,,,,,,,,,,11,,81,0
69660,note_on,50,0,14,,,,,,,,,,11,,81,90
69670,note_on,10,0,14,,,,,,,,,,11,,82,0
69710,note_on,100,0,5,,,,,,,,,,3,,76,0
69720,note_on,360,0,8,,,,,,,,,,6,,45,0
69720,note_on,50,0,14,,,,,,,,,,11,,82,90
69720,note_on,10,0,5,,,,,,,,,,3,,77,70
69730,note_on,10,0,14,,,,,,,,,,11,,81,0
69780,note_on,50,0,14,,,,,,,,,,11,,81,90
69780,note_on,180,0,2,,,,,,,,,,0,,76,0
69790,note_on,10,0,14,,,,,,,,,,11,,82,0
69810,note_on,90,0,5,,,,,,,,,,3,,77,0
69840,note_on,60,0,2,,,,,,,,,,0,,69,70
69840,note_on,240,0,6,,,,,,,,,,4,,57,70
69840,note_on,30,0,5,,,,,,,,,,3,,79,70
69840,note_on,50,0,14,,,,,,,,,,11,,82,90
69850,note_on,10,0,14,,,,,,,,,,11,,81,0
69900,note_on,50,0,14,,,,,,,,,,11,,81,90
69910,note_on,10,0,14,,,,,,,,,,11,,82,0
69960,note_on,120,0,5,,,,,,,,,,3,,79,0
69960,note_on,50,0,14,,,,,,,,,,11,,82,90
69960,note_on,120,0,2,,,,,,,,,,0,,69,0
69970,note_on,10,0,14,,,,,,,,,,11,,81,0
70020,note_on,50,0,14,,,,,,,,,,11,,81,90
70030,note_on,10,0,14,,,,,,,,,,11,,82,0
70080,note_on,120,0,2,,,,,,,,,,0,,76,70
70080,note_on,50,0,14,,,,,,,,,,11,,82,90
70080,note_on,120,0,5,,,,,,,,,,3,,69,70
70090,note_on,10,0,14,,,,,,,,,,11,,81,0
70140,note_on,50,0,14,,,,,,,,,,11,,81,90
70150,note_on,10,0,14,,,,,,,,,,11,,82,0
70200,note_on,50,0,14,,,,,,,,,,11,,82,90
70200,note_on,360,0,6,,,,,,,,,,4,,57,0
70210,note_on,10,0,14,,,,,,,,,,11,,81,0
70260,note_on,50,0,14,,,,,,,,,,11,,81,90
70260,note_on,180,0,5,,,,,,,,,,3,,69,0
70260,note_on,180,0,2,,,,,,,,,,0,,76,0
70270,note_on,10,0,14,,,,,,,,,,11,,82,0
70320,note_on,50,0,14,,,,,,,,,,11,,82,90
70320,note_on,60,0,2,,,,,,,,,,0,,79,70
70320,note_on,60,0,5,,,,,,,,,,3,,76,70
70320,note_on,120,0,6,,,,,,,,,,4,,57,70
70330,note_on,10,0,14,,,,,,,,,,11,,81,0
70380,note_on,50,0,14,,,,,,,,,,11,,81,90
70390,note_on,10,0,14,,,,,,,,,,11,,82,0
70440,note_on,50,0,14,,,,,,,,,,11,,82,90
70450,note_on,10,0,14,,,,,,,,,,11,,81,0
70500,note_on,50,0,14,,,,,,,,,,11,,81,90
70510,note_on,10,0,14,,,,,,,,,,11,,82,0
70560,note_on,240,0,6,,,,,,,,,,4,,57,0
70560,note_on,240,0,2,,,,,,,,,,0,,79,0
70560,note_on,50,0,14,,,,,,,,,,11,,82,90
70560,note_on,240,0,5,,,,,,,,,,3,,76,0
70570,note_on,10,0,14,,,,,,,,,,11,,81,0
70620,note_on,50,0,14,,,,,,,,,,11,,81,90
70630,note_on,10,0,14,,,,,,,,,,11,,82,0
70680,note_on,50,0,14,,,,,,,,,,11,,82,90
70690,note_on,10,0,14,,,,,,,,,,11,,81,0
70740,note_on,50,0,14,,,,,,,,,,11,,81,90
70750,note_on,10,0,14,,,,,,,,,,11,,82,0
70800,note_on,50,0,14,,,,,,,,,,11,,82,90
70800,note_on,1080,0,8,,,,,,,,,,6,,50,70
70800,note_on,240,0,6,,,,,,,,,,4,,57,70
70800,note_on,240,0,2,,,,,,,,,,0,,77,70
70800,note_on,240,0,5,,,,,,,,,,3,,74,70
70810,note_on,10,0,14,,,,,,,,,,11,,81,0
70860,note_on,50,0,14,,,,,,,,,,11,,81,90
70870,note_on,10,0,14,,,,,,,,,,11,,82,0
70920,note_on,120,0,8,,,,,,,,,,6,,50,0
70920,note_on,50,0,14,,,,,,,,,,11,,82,90
70930,note_on,10,0,14,,,,,,,,,,11,,81,0
70980,note_on,50,0,14,,,,,,,,,,11,,81,90
70980,note_on,180,0,2,,,,,,,,,,0,,77,0
70990,note_on,10,0,14,,,,,,,,,,11,,82,0
71040,note_on,120,0,8,,,,,,,,,,6,,38,70
71040,note_on,60,0,2,,,,,,,,,,0,,74,70
71040,note_on,50,0,14,,,,,,,,,,11,,82,90
71050,note_on,10,0,14,,,,,,,,,,11,,81,0
71100,note_on,50,0,14,,,,,,,,,,11,,81,90
71110,note_on,10,0,14,,,,,,,,,,11,,82,0
71160,note_on,120,0,2,,,,,,,,,,0,,74,0
71160,note_on,360,0,5,,,,,,,,,,3,,74,0
71160,note_on,50,0,14,,,,,,,,,,11,,82,90
71160,note_on,360,0,6,,,,,,,,,,4,,57,0
71170,note_on,10,0,14,,,,,,,,,,11,,81,0
71220,note_on,50,0,14,,,,,,,,,,11,,81,90
71220,note_on,180,0,8,,,,,,,,,,6,,38,0
71230,note_on,10,0,14,,,,,,,,,,11,,82,0
71280,note_on,120,0,2,,,,,,,,,,0,,73,70
71280,note_on,120,0,5,,,,,,,,,,3,,76,70
71280,note_on,50,0,14,,,,,,,,,,11,,82,90
71280,note_on,120,0,6,,,,,,,,,,4,,57,70
71290,note_on,10,0,14,,,,,,,,,,11,,81,0
71340,note_on,50,0,14,,,,,,,,,,11,,81,90
71350,note_on,10,0,14,,,,,,,,,,11,,82,0
71370,note_on,90,0,5,,,,,,,,,,3,,76,0
71400,note_on,50,0,14,,,,,,,,,,11,,82,90
71400,note_on,30,0,5,,,,,,,,,,3,,74,70
71400,note_on,120,0,2,,,,,,,,,,0,,73,0
71410,note_on,10,0,14,,,,,,,,,,11,,81,0
71460,note_on,50,0,14,,,,,,,,,,11,,81,90
71470,note_on,10,0,14,,,,,,,,,,11,,82,0
71520,note_on,240,0,6,,,,,,,,,,4,,57,0
71520,note_on,120,0,2,,,,,,,,,,0,,76,70
71520,note_on,50,0,14,,,,,,,,,,11,,82,90
71520,note_on,120,0,5,,,,,,,,,,3,,76,70
71530,note_on,10,0,14,,,,,,,,,,11,,81,0
71530,note_on,10,0,5,,,,,,,,,,3,,74,0
71580,note_on,50,0,14,,,,,,,,,,11,,81,90
71590,note_on,10,0,14,,,,,,,,,,11,,82,0
71630,note_on,100,0,5,,,,,,,,,,3,,76,0
71640,note_on,50,0,14,,,,,,,,,,11,,82,90
71640,note_on,10,0,5,,,,,,,,,,3,,77,70
71650,note_on,10,0,14,,,,,,,,,,11,,81,0
71700,note_on,50,0,14,,,,,,,,,,11,,81,90
71700,note_on,180,0,2,,,,,,,,,,0,,76,0
71710,note_on,10,0,14,,,,,,,,,,11,,82,0
71730,note_on,90,0,5,,,,,,,,,,3,,77,0
71760,note_on,60,0,2,,,,,,,,,,0,,69,70
71760,note_on,50,0,14,,,,,,,,,,11,,82,90
71760,note_on,240,0,6,,,,,,,,,,4,,57,70
71760,note_on,30,0,5,,,,,,,,,,3,,79,70
71770,note_on,10,0,14,,,,,,,,,,11,,81,0
71820,note_on,50,0,14,,,,,,,,,,11,,81,90
71830,note_on,10,0,14,,,,,,,,,,11,,82,0
71880,note_on,120,0,2,,,,,,,,,,0,,69,0
71880,note_on,120,0,5,,,,,,,,,,3,,79,0
71880,note_on,50,0,14,,,,,,,,,,11,,82,90
71890,note_on,10,0,14,,,,,,,,,,11,,81,0
71940,note_on,50,0,14,,,,,,,,,,11,,81,90
71950,note_on,10,0,14,,,,,,,,,,11,,82,0
72000,note_on,120,0,5,,,,,,,,,,3,,69,70
72000,note_on,120,0,2,,,,,,,,,,0,,76,70
72000,note_on,50,0,14,,,,,,,,,,11,,82,90
72010,note_on,10,0,14,,,,,,,,,,11,,81,0
72060,note_on,50,0,14,,,,,,,,,,11,,81,90
72070,note_on,10,0,14,,,,,,,,,,11,,82,0
72120,note_on,360,0,6,,,,,,,,,,4,,57,0
72120,note_on,50,0,14,,,,,,,,,,11,,82,90
72130,note_on,10,0,14,,,,,,,,,,11,,81,0
72180,note_on,50,0,14,,,,,,,,,,11,,81,90
72180,note_on,180,0,2,,,,,,,,,,0,,76,0
72180,note_on,180,0,5,,,,,,,,,,3,,69,0
72190,note_on,10,0,14,,,,,,,,,,11,,82,0
72240,note_on,120,0,6,,,,,,,,,,4,,57,70
72240,note_on,60,0,5,,,,,,,,,,3,,76,70
72240,note_on,60,0,2,,,,,,,,,,0,,79,70
72480,note_on,240,0,6,,,,,,,,,,4,,57,0
72480,note_on,240,0,5,,,,,,,,,,3,,76,0
72480,note_on,240,0,2,,,,,,,,,,0,,79,0
72720,note_on,240,0,6,,,,,,,,,,4,,57,70
72720,note_on,240,0,2,,,,,,,,,,0,,77,70
72720,note_on,240,0,5,,,,,,,,,,3,,74,70
72720,note_on,1500,0,8,,,,,,,,,,6,,50,70
72840,note_on,120,0,8,,,,,,,,,,6,,50,0
72840,note_on,650,0,14,,,,,,,,,,11,,81,0
72960,note_on,120,0,8,,,,,,,,,,6,,38,70
73080,note_on,360,0,5,,,,,,,,,,3,,74,0
73080,note_on,360,0,6,,,,,,,,,,4,,57,0
73080,note_on,360,0,2,,,,,,,,,,0,,77,0
73140,note_on,180,0,8,,,,,,,,,,6,,38,0
73200,note_on,60,0,8,,,,,,,,,,6,,50,70
73320,note_on,120,0,8,,,,,,,,,,6,,50,0
73440,note_on,600,0,14,,,,,,,,,,11,,79,110
73440,note_on,120,0,8,,,,,,,,,,6,,51,70
73560,note_on,120,0,14,,,,,,,,,,11,,79,0
73620,note_on,180,0,8,,,,,,,,,,6,,51,0
73680,note_on,120,0,14,,,,,,,,,,11,,78,110
73680,note_on,60,0,8,,,,,,,,,,6,,50,70
73800,note_on,120,0,8,,,,,,,,,,6,,50,0
73920,note_on,120,0,8,,,,,,,,,,6,,48,70
74100,note_on,180,0,8,,,,,,,,,,6,,48,0
74160,note_on,60,0,8,,,,,,,,,,6,,50,70
74280,note_on,120,0,8,,,,,,,,,,6,,50,0
74280,note_on,600,0,14,,,,,,,,,,11,,78,0
74400,note_on,120,0,14,,,,,,,,,,11,,72,110
74400,note_on,120,0,8,,,,,,,,,,6,,52,70
74580,note_on,180,0,8,,,,,,,,,,6,,52,0
74640,note_on,60,0,8,,,,,,,,,,6,,54,70
74760,note_on,360,0,14,,,,,,,,,,11,,72,0
74760,note_on,120,0,8,,,,,,,,,,6,,54,0
74880,note_on,120,0,14,,,,,,,,,,11,,71,110
74880,note_on,120,0,8,,,,,,,,,,6,,50,70
74990,note_on,110,0,14,,,,,,,,,,11,,71,0
75000,note_on,10,0,14,,,,,,,,,,11,,69,110
75060,note_on,180,0,8,,,,,,,,,,6,,50,0
75090,note_on,90,0,14,,,,,,,,,,11,,69,0
75120,note_on,30,0,14,,,,,,,,,,11,,71,110
75120,note_on,60,0,8,,,,,,,,,,6,,55,70
75240,note_on,120,0,14,,,,,,,,,,11,,69,110
75250,note_on,10,0,14,,,,,,,,,,11,,71,0
75350,note_on,100,0,14,,,,,,,,,,11,,69,0
75360,note_on,10,0,14,,,,,,,,,,11,,67,110
75360,note_on,240,0,8,,,,,,,,,,6,,55,0
75450,note_on,90,0,14,,,,,,,,,,11,,67,0
75480,note_on,30,0,14,,,,,,,,,,11,,69,110
75570,note_on,90,0,14,,,,,,,,,,11,,69,0
75600,note_on,30,0,14,,,,,,,,,,11,,71,110
75720,note_on,120,0,14,,,,,,,,,,11,,72,110
75730,note_on,10,0,14,,,,,,,,,,11,,71,0
75830,note_on,100,0,14,,,,,,,,,,11,,72,0
75840,note_on,10,0,14,,,,,,,,,,11,,74,110
75840,note_on,480,0,8,,,,,,,,,,6,,48,70
75930,note_on,90,0,14,,,,,,,,,,11,,74,0
75960,note_on,30,0,14,,,,,,,,,,11,,75,110
76020,note_on,180,0,8,,,,,,,,,,6,,48,0
76050,note_on,90,0,14,,,,,,,,,,11,,75,0
76080,note_on,60,0,8,,,,,,,,,,6,,47,70
76080,note_on,30,0,14,,,,,,,,,,11,,74,110
76200,note_on,120,0,14,,,,,,,,,,11,,74,0
76320,note_on,120,0,14,,,,,,,,,,11,,80,110
76440,note_on,360,0,8,,,,,,,,,,6,,47,0
76560,note_on,120,0,8,,,,,,,,,,6,,47,70
76760,note_on,440,0,14,,,,,,,,,,11,,80,0
76800,note_on,40,0,14,,,,,,,,,,11,,79,110
76800,note_on,240,0,8,,,,,,,,,,6,,47,0
77040,note_on,240,0,8,,,,,,,,,,6,,47,70
77160,note_on,360,0,14,,,,,,,,,,11,,79,0
77280,note_on,120,0,14,,,,,,,,,,11,,77,110
77400,note_on,360,0,8,,,,,,,,,,6,,47,0
77520,note_on,120,0,8,,,,,,,,,,6,,47,70
77640,note_on,360,0,14,,,,,,,,,,11,,77,0
77760,note_on,240,0,8,,,,,,,,,,6,,47,0
77760,note_on,120,0,14,,,,,,,,,,11,,75,110
77870,note_on,110,0,14,,,,,,,,,,11,,75,0
77880,note_on,10,0,14,,,,,,,,,,11,,74,110
77970,note_on,90,0,14,,,,,,,,,,11,,74,0
78000,note_on,240,0,8,,,,,,,,,,6,,48,70
78000,note_on,30,0,14,,,,,,,,,,11,,75,110
78120,note_on,120,0,14,,,,,,,,,,11,,74,110
78130,note_on,10,0,14,,,,,,,,,,11,,75,0
78230,note_on,100,0,14,,,,,,,,,,11,,74,0
78240,note_on,10,0,14,,,,,,,,,,11,,72,110
78330,note_on,90,0,14,,,,,,,,,,11,,72,0
78360,note_on,360,0,8,,,,,,,,,,6,,48,0
78360,note_on,30,0,14,,,,,,,,,,11,,74,110
78450,note_on,90,0,14,,,,,,,,,,11,,74,0
78480,note_on,30,0,14,,,,,,,,,,11,,75,110
78600,note_on,120,0,14,,,,,,,,,,11,,77,110
78610,note_on,10,0,14,,,,,,,,,,11,,75,0
78710,note_on,100,0,14,,,,,,,,,,11,,77,0
78720,note_on,5640,0,5,,,,,,,,,,3,,72,50
78720,note_on,5640,0,2,,,,,,,,,,0,,72,50
78720,note_on,10,0,14,,,,,,,,,,11,,79,110
78810,note_on,90,0,14,,,,,,,,,,11,,79,0
78840,note_on,30,0,14,,,,,,,,,,11,,75,110
78840,note_on,120,0,5,,,,,,,,,,3,,72,0
78840,note_on,120,0,2,,,,,,,,,,0,,72,0
78930,note_on,90,0,14,,,,,,,,,,11,,75,0
78960,note_on,120,0,2,,,,,,,,,,0,,68,50
78960,note_on,30,0,14,,,,,,,,,,11,,80,110
78960,note_on,120,0,5,,,,,,,,,,3,,68,50
79080,note_on,120,0,5,,,,,,,,,,3,,68,0
79080,note_on,120,0,2,,,,,,,,,,0,,68,0
79200,note_on,120,0,2,,,,,,,,,,0,,72,50
79200,note_on,120,0,5,,,,,,,,,,3,,72,50
79200,note_on,240,0,14,,,,,,,,,,11,,80,0
79380,note_on,180,0,5,,,,,,,,,,3,,72,0
79380,note_on,180,0,2,,,,,,,,,,0,,72,0
79440,note_on,240,0,14,,,,,,,,,,11,,74,110
79440,note_on,60,0,5,,,,,,,,,,3,,65,50
79440,note_on,60,0,2,,,,,,,,,,0,,65,50
79500,note_on,60,0,14,,,,,,,,,,11,,72,110
79510,note_on,10,0,14,,,,,,,,,,11,,74,0
79560,note_on,120,0,5,,,,,,,,,,3,,65,0
79560,note_on,50,0,14,,,,,,,,,,11,,74,110
79560,note_on,120,0,2,,,,,,,,,,0,,65,0
79570,note_on,10,0,14,,,,,,,,,,11,,72,0
79620,note_on,50,0,14,,,,,,,,,,11,,72,110
79630,note_on,10,0,14,,,,,,,,,,11,,74,0
79680,note_on,120,0,2,,,,,,,,,,0,,68,50
79680,note_on,120,0,5,,,,,,,,,,3,,68,50
79860,note_on,180,0,2,,,,,,,,,,0,,68,0
79860,note_on,180,0,5,,,,,,,,,,3,,68,0
79860,note_on,230,0,14,,,,,,,,,,11,,72,0
79920,note_on,60,0,14,,,,,,,,,,11,,74,110
79920,note_on,60,0,5,,,,,,,,,,3,,58,50
79920,note_on,60,0,2,,,,,,,,,,0,,58,50
79920,note_on,1560,0,8,,,,,,,,,,6,,46,70
80040,note_on,120,0,14,,,,,,,,,,11,,72,110
80050,note_on,10,0,14,,,,,,,,,,11,,74,0
80150,note_on,100,0,14,,,,,,,,,,11,,72,0
80160,note_on,10,0,14,,,,,,,,,,11,,70,110
80160,note_on,240,0,5,,,,,,,,,,3,,58,0
80160,note_on,240,0,2,,,,,,,,,,0,,58,0
80250,note_on,90,0,14,,,,,,,,,,11,,70,0
80280,note_on,30,0,14,,,,,,,,,,11,,72,110
80280,note_on,360,0,8,,,,,,,,,,6,,46,0
80370,note_on,90,0,14,,,,,,,,,,11,,72,0
80400,note_on,30,0,14,,,,,,,,,,11,,74,110
80520,note_on,120,0,14,,,,,,,,,,11,,75,110
80530,note_on,10,0,14,,,,,,,,,,11,,74,0
80630,note_on,100,0,14,,,,,,,,,,11,,75,0
80640,note_on,480,0,2,,,,,,,,,,0,,70,50
80640,note_on,10,0,14,,,,,,,,,,11,,77,110
80640,note_on,480,0,5,,,,,,,,,,3,,70,50
80730,note_on,90,0,14,,,,,,,,,,11,,77,0
80760,note_on,30,0,14,,,,,,,,,,11,,74,110
80760,note_on,120,0,5,,,,,,,,,,3,,70,0
80760,note_on,120,0,2,,,,,,,,,,0,,70,0
80850,note_on,90,0,14,,,,,,,,,,11,,74,0
80880,note_on,30,0,14,,,,,,,,,,11,,79,110
80880,note_on,120,0,5,,,,,,,,,,3,,67,50
80880,note_on,120,0,2,,,,,,,,,,0,,67,50
81000,note_on,120,0,5,,,,,,,,,,3,,67,0
81000,note_on,120,0,2,,,,,,,,,,0,,67,0
81120,note_on,240,0,14,,,,,,,,,,11,,79,0
81120,note_on,120,0,5,,,,,,,,,,3,,70,50
81120,note_on,120,0,2,,,,,,,,,,0,,70,50
81300,note_on,180,0,2,,,,,,,,,,0,,70,0
81300,note_on,180,0,5,,,,,,,,,,3,,70,0
81360,note_on,60,0,2,,,,,,,,,,0,,63,50
81360,note_on,60,0,5,,,,,,,,,,3,,63,50
81360,note_on,240,0,14,,,,,,,,,,11,,72,110
81420,note_on,60,0,14,,,,,,,,,,11,,70,110
81430,note_on,10,0,14,,,,,,,,,,11,,72,0
81480,note_on,120,0,2,,,,,,,,,,0,,63,0
81480,note_on,50,0,14,,,,,,,,,,11,,72,110
81480,note_on,120,0,5,,,,,,,,,,3,,63,0
81490,note_on,10,0,14,,,,,,,,,,11,,70,0
81540,note_on,50,0,14,,,,,,,,,,11,,70,110
81550,note_on,10,0,14,,,,,,,,,,11,,72,0
81600,note_on,120,0,2,,,,,,,,,,0,,67,50
81600,note_on,120,0,5,,,,,,,,,,3,,67,50
81780,note_on,230,0,14,,,,,,,,,,11,,70,0
81780,note_on,180,0,2,,,,,,,,,,0,,67,0
81780,note_on,180,0,5,,,,,,,,,,3,,67,0
81840,note_on,60,0,5,,,,,,,,,,3,,56,50
81840,note_on,60,0,14,,,,,,,,,,11,,72,110
81840,note_on,1560,0,8,,,,,,,,,,6,,44,70
81840,note_on,60,0,2,,,,,,,,,,0,,56,50
81960,note_on,120,0,14,,,,,,,,,,11,,70,110
81970,note_on,10,0,14,,,,,,,,,,11,,72,0
82070,note_on,100,0,14,,,,,,,,,,11,,70,0
82080,note_on,240,0,5,,,,,,,,,,3,,56,0
82080,note_on,10,0,14,,,,,,,,,,11,,68,110
82080,note_on,240,0,2,,,,,,,,,,0,,56,0
82170,note_on,90,0,14,,,,,,,,,,11,,68,0
82200,note_on,30,0,14,,,,,,,,,,11,,70,110
82200,note_on,360,0,8,,,,,,,,,,6,,44,0
82290,note_on,90,0,14,,,,,,,,,,11,,70,0
82320,note_on,30,0,14,,,,,,,,,,11,,72,110
82440,note_on,120,0,14,,,,,,,,,,11,,74,110
82450,note_on,10,0,14,,,,,,,,,,11,,72,0
82550,note_on,100,0,14,,,,,,,,,,11,,74,0
82560,note_on,480,0,2,,,,,,,,,,0,,68,50
82560,note_on,480,0,5,,,,,,,,,,3,,68,50
82560,note_on,10,0,14,,,,,,,,,,11,,75,110
82650,note_on,90,0,14,,,,,,,,,,11,,75,0
82680,note_on,120,0,2,,,,,,,,,,0,,68,0
82680,note_on,120,0,5,,,,,,,,,,3,,68,0
82680,note_on,30,0,14,,,,,,,,,,11,,72,110
82770,note_on,90,0,14,,,,,,,,,,11,,72,0
82800,note_on,120,0,2,,,,,,,,,,0,,65,50
82800,note_on,30,0,14,,,,,,,,,,11,,77,110
82800,note_on,120,0,5,,,,,,,,,,3,,65,50
82920,note_on,120,0,5,,,,,,,,,,3,,65,0
82920,note_on,120,0,2,,,,,,,,,,0,,65,0
83040,note_on,120,0,5,,,,,,,,,,3,,68,50
83040,note_on,120,0,2,,,,,,,,,,0,,68,50
83040,note_on,240,0,14,,,,,,,,,,11,,77,0
83220,note_on,180,0,2,,,,,,,,,,0,,68,0
83220,note_on,180,0,5,,,,,,,,,,3,,68,0
83280,note_on,60,0,2,,,,,,,,,,0,,56,50
83280,note_on,60,0,5,,,,,,,,,,3,,56,50
83280,note_on,240,0,14,,,,,,,,,,11,,74,110
83340,note_on,60,0,14,,,,,,,,,,11,,72,110
83350,note_on,10,0,14,,,,,,,,,,11,,74,0
83400,note_on,120,0,2,,,,,,,,,,0,,56,0
83400,note_on,50,0,14,,,,,,,,,,11,,74,110
83400,note_on,120,0,5,,,,,,,,,,3,,56,0
83410,note_on,10,0,14,,,,,,,,,,11,,72,0
83460,note_on,50,0,14,,,,,,,,,,11,,72,110
83470,note_on,10,0,14,,,,,,,,,,11,,74,0
83520,note_on,120,0,2,,,,,,,,,,0,,65,50
83520,note_on,120,0,5,,,,,,,,,,3,,65,50
83700,note_on,230,0,14,,,,,,,,,,11,,72,0
83700,note_on,180,0,2,,,,,,,,,,0,,65,0
83700,note_on,180,0,5,,,,,,,,,,3,,65,0
83760,note_on,60,0,2,,,,,,,,,,0,,55,50
83760,note_on,60,0,5,,,,,,,,,,3,,55,50
83760,note_on,10680,0,6,,,,,,,,,,4,,55,50
83760,note_on,60,0,14,,,,,,,,,,11,,71,110
83760,note_on,1560,0,8,,,,,,,,,,6,,43,70
83880,note_on,120,0,14,,,,,,,,,,11,,69,110
83890,note_on,10,0,14,,,,,,,,,,11,,71,0
83940,note_on,180,0,6,,,,,,,,,,4,,55,0
83940,note_on,180,0,2,,,,,,,,,,0,,55,0
83940,note_on,180,0,5,,,,,,,,,,3,,55,0
83970,note_on,80,0,14,,,,,,,,,,11,,69,0
84000,note_on,30,0,14,,,,,,,,,,11,,71,110
84000,note_on,60,0,2,,,,,,,,,,0,,71,50
84000,note_on,60,0,6,,,,,,,,,,4,,55,50
84000,note_on,60,0,5,,,,,,,,,,3,,62,50
84120,note_on,120,0,14,,,,,,,,,,11,,71,0
84120,note_on,120,0,2,,,,,,,,,,0,,71,0
84120,note_on,120,0,6,,,,,,,,,,4,,55,0
84120,note_on,120,0,5,,,,,,,,,,3,,62,0
84120,note_on,360,0,8,,,,,,,,,,6,,43,0
84240,note_on,120,0,5,,,,,,,,,,3,,62,50
84240,note_on,120,0,6,,,,,,,,,,4,,55,50
84240,note_on,120,0,2,,,,,,,,,,0,,71,50
84360,note_on,120,0,5,,,,,,,,,,3,,62,0
84360,note_on,120,0,6,,,,,,,,,,4,,55,0
84360,note_on,120,0,2,,,,,,,,,,0,,71,0
84480,note_on,120,0,2,,,,,,,,,,0,,71,50
84480,note_on,360,0,14,,,,,,,,,,11,,74,110
84480,note_on,120,0,6,,,,,,,,,,4,,55,50
84480,note_on,120,0,5,,,,,,,,,,3,,62,50
84600,note_on,120,0,14,,,,,,,,,,11,,74,0
84600,note_on,120,0,6,,,,,,,,,,4,,55,0
84600,note_on,120,0,2,,,,,,,,,,0,,71,0
84600,note_on,120,0,5,,,,,,,,,,3,,62,0
84720,note_on,120,0,6,,,,,,,,,,4,,55,50
84720,note_on,120,0,2,,,,,,,,,,0,,72,50
84720,note_on,120,0,14,,,,,,,,,,11,,74,110
84720,note_on,120,0,5,,,,,,,,,,3,,63,50
84780,note_on,60,0,14,,,,,,,,,,11,,72,110
84790,note_on,10,0,14,,,,,,,,,,11,,74,0
84840,note_on,120,0,2,,,,,,,,,,0,,72,0
84840,note_on,50,0,14,,,,,,,,,,11,,74,110
84840,note_on,120,0,6,,,,,,,,,,4,,55,0
84840,note_on,120,0,5,,,,,,,,,,3,,63,0
84850,note_on,10,0,14,,,,,,,,,,11,,72,0
84900,note_on,50,0,14,,,,,,,,,,11,,72,110
84910,note_on,10,0,14,,,,,,,,,,11,,74,0
84960,note_on,120,0,6,,,,,,,,,,4,,55,50
84960,note_on,120,0,2,,,,,,,,,,0,,72,50
84960,note_on,120,0,5,,,,,,,,,,3,,63,50
85140,note_on,180,0,5,,,,,,,,,,3,,63,0
85140,note_on,180,0,2,,,,,,,,,,0,,72,0
85140,note_on,230,0,14,,,,,,,,,,11,,72,0
85140,note_on,180,0,6,,,,,,,,,,4,,55,0
85200,note_on,60,0,2,,,,,,,,,,0,,74,50
85200,note_on,60,0,6,,,,,,,,,,4,,55,50
85200,note_on,60,0,14,,,,,,,,,,11,,75,110
85200,note_on,60,0,5,,,,,,,,,,3,,71,50
85260,note_on,60,0,14,,,,,,,,,,11,,74,110
85270,note_on,10,0,14,,,,,,,,,,11,,75,0
85320,note_on,120,0,6,,,,,,,,,,4,,55,0
85320,note_on,120,0,2,,,,,,,,,,0,,74,0
85320,note_on,120,0,5,,,,,,,,,,3,,71,0
85320,note_on,50,0,14,,,,,,,,,,11,,75,110
85330,note_on,10,0,14,,,,,,,,,,11,,74,0
85380,note_on,50,0,14,,,,,,,,,,11,,74,110
85390,note_on,10,0,14,,,,,,,,,,11,,75,0
85440,note_on,120,0,2,,,,,,,,,,0,,74,50
85440,note_on,120,0,5,,,,,,,,,,3,,71,50
85440,note_on,120,0,6,,,,,,,,,,4,,55,50
85620,note_on,230,0,14,,,,,,,,,,11,,74,0
85620,note_on,180,0,6,,,,,,,,,,4,,55,0
85620,note_on,180,0,2,,,,,,,,,,0,,74,0
85620,note_on,180,0,5,,,,,,,,,,3,,71,0
85680,note_on,60,0,2,,,,,,,,,,0,,75,50
85680,note_on,60,0,14,,,,,,,,,,11,,75,110
85680,note_on,60,0,6,,,,,,,,,,4,,55,50
85680,note_on,60,0,5,,,,,,,,,,3,,72,50
85800,note_on,120,0,14,,,,,,,,,,11,,74,110
85800,note_on,120,0,5,,,,,,,,,,3,,72,0
85800,note_on,120,0,6,,,,,,,,,,4,,55,0
85800,note_on,120,0,2,,,,,,,,,,0,,75,0
85810,note_on,10,0,14,,,,,,,,,,11,,75,0
85890,note_on,80,0,14,,,,,,,,,,11,,74,0
85920,note_on,120,0,5,,,,,,,,,,3,,72,50
85920,note_on,120,0,2,,,,,,,,,,0,,75,50
85920,note_on,120,0,6,,,,,,,,,,4,,55,50
85920,note_on,30,0,14,,,,,,,,,,11,,75,110
86040,note_on,120,0,14,,,,,,,,,,11,,75,0
86100,note_on,180,0,5,,,,,,,,,,3,,72,0
86100,note_on,180,0,2,,,,,,,,,,0,,75,0
86100,note_on,180,0,6,,,,,,,,,,4,,55,0
86160,note_on,60,0,2,,,,,,,,,,0,,77,50
86160,note_on,60,0,6,,,,,,,,,,4,,55,50
86160,note_on,60,0,5,,,,,,,,,,3,,74,50
86280,note_on,120,0,2,,,,,,,,,,0,,77,0
86280,note_on,120,0,5,,,,,,,,,,3,,74,0
86280,note_on,120,0,6,,,,,,,,,,4,,55,0
86400,note_on,120,0,6,,,,,,,,,,4,,55,50
86400,note_on,120,0,5,,,,,,,,,,3,,74,50
86400,note_on,120,0,2,,,,,,,,,,0,,77,50
86400,note_on,360,0,14,,,,,,,,,,11,,77,110
86520,note_on,120,0,14,,,,,,,,,,11,,77,0
86580,note_on,180,0,2,,,,,,,,,,0,,77,0
86580,note_on,180,0,6,,,,,,,,,,4,,55,0
86580,note_on,180,0,5,,,,,,,,,,3,,74,0
86640,note_on,60,0,5,,,,,,,,,,3,,71,50
86640,note_on,120,0,14,,,,,,,,,,11,,75,110
86640,note_on,60,0,6,,,,,,,,,,4,,55,50
86640,note_on,60,0,2,,,,,,,,,,0,,74,50
86700,note_on,60,0,14,,,,,,,,,,11,,74,110
86710,note_on,10,0,14,,,,,,,,,,11,,75,0
86760,note_on,120,0,6,,,,,,,,,,4,,55,0
86760,note_on,120,0,2,,,,,,,,,,0,,74,0
86760,note_on,120,0,5,,,,,,,,,,3,,71,0
86760,note_on,50,0,14,,,,,,,,,,11,,75,110
86770,note_on,10,0,14,,,,,,,,,,11,,74,0
86820,note_on,50,0,14,,,,,,,,,,11,,74,110
86830,note_on,10,0,14,,,,,,,,,,11,,75,0
86880,note_on,120,0,5,,,,,,,,,,3,,71,50
86880,note_on,120,0,6,,,,,,,,,,4,,55,50
86880,note_on,120,0,2,,,,,,,,,,0,,74,50
87060,note_on,180,0,2,,,,,,,,,,0,,74,0
87060,note_on,180,0,5,,,,,,,,,,3,,71,0
87060,note_on,180,0,6,,,,,,,,,,4,,55,0
87060,note_on,230,0,14,,,,,,,,,,11,,74,0
87120,note_on,60,0,14,,,,,,,,,,11,,77,110
87120,note_on,60,0,6,,,,,,,,,,4,,55,50
87120,note_on,60,0,5,,,,,,,,,,3,,72,50
87120,note_on,60,0,2,,,,,,,,,,0,,75,50
87180,note_on,60,0,14,,,,,,,,,,11,,75,110
87190,note_on,10,0,14,,,,,,,,,,11,,77,0
87240,note_on,120,0,5,,,,,,,,,,3,,72,0
87240,note_on,120,0,2,,,,,,,,,,0,,75,0
87240,note_on,50,0,14,,,,,,,,,,11,,77,110
87240,note_on,120,0,6,,,,,,,,,,4,,55,0
87250,note_on,10,0,14,,,,,,,,,,11,,75,0
87300,note_on,50,0,14,,,,,,,,,,11,,75,110
87310,note_on,10,0,14,,,,,,,,,,11,,77,0
87360,note_on,120,0,6,,,,,,,,,,4,,55,50
87360,note_on,120,0,5,,,,,,,,,,3,,72,50
87360,note_on,120,0,2,,,,,,,,,,0,,75,50
87540,note_on,180,0,6,,,,,,,,,,4,,55,0
87540,note_on,230,0,14,,,,,,,,,,11,,75,0
87540,note_on,180,0,5,,,,,,,,,,3,,72,0
87540,note_on,180,0,2,,,,,,,,,,0,,75,0
87600,note_on,60,0,5,,,,,,,,,,3,,74,50
87600,note_on,60,0,14,,,,,,,,,,11,,77,110
87600,note_on,60,0,6,,,,,,,,,,4,,55,50
87600,note_on,60,0,2,,,,,,,,,,0,,77,50
87720,note_on,120,0,6,,,,,,,,,,4,,55,0
87720,note_on,120,0,14,,,,,,,,,,11,,75,110
87720,note_on,120,0,2,,,,,,,,,,0,,77,0
87720,note_on,120,0,5,,,,,,,,,,3,,74,0
87730,note_on,10,0,14,,,,,,,,,,11,,77,0
87810,note_on,80,0,14,,,,,,,,,,11,,75,0
87840,note_on,120,0,5,,,,,,,,,,3,,74,50
87840,note_on,30,0,14,,,,,,,,,,11,,77,110
87840,note_on,120,0,2,,,,,,,,,,0,,77,50
87840,note_on,120,0,6,,,,,,,,,,4,,55,50
87960,note_on,120,0,14,,,,,,,,,,11,,77,0
88020,note_on,180,0,5,,,,,,,,,,3,,74,0
88020,note_on,180,0,2,,,,,,,,,,0,,77,0
88020,note_on,180,0,6,,,,,,,,,,4,,55,0
88080,note_on,60,0,5,,,,,,,,,,3,,71,50
88080,note_on,60,0,2,,,,,,,,,,0,,79,50
88080,note_on,60,0,6,,,,,,,,,,4,,55,50
88200,note_on,120,0,2,,,,,,,,,,0,,79,0
88200,note_on,120,0,6,,,,,,,,,,4,,55,0
88200,note_on,120,0,5,,,,,,,,,,3,,71,0
88320,note_on,120,0,2,,,,,,,,,,0,,79,50
88320,note_on,120,0,6,,,,,,,,,,4,,55,50
88320,note_on,120,0,5,,,,,,,,,,3,,71,50
88320,note_on,360,0,14,,,,,,,,,,11,,79,110
88440,note_on,120,0,14,,,,,,,,,,11,,79,0
88500,note_on,180,0,2,,,,,,,,,,0,,79,0
88500,note_on,180,0,6,,,,,,,,,,4,,55,0
88500,note_on,180,0,5,,,,,,,,,,3,,71,0
88560,note_on,60,0,2,,,,,,,,,,0,,75,50
88560,note_on,60,0,6,,,,,,,,,,4,,60,50
88560,note_on,120,0,14,,,,,,,,,,11,,75,110
88560,note_on,60,0,5,,,,,,,,,,3,,67,50
88650,note_on,90,0,14,,,,,,,,,,11,,75,0
88680,note_on,30,0,14,,,,,,,,,,11,,75,110
88680,note_on,120,0,6,,,,,,,,,,4,,60,0
88680,note_on,120,0,2,,,,,,,,,,0,,75,0
88680,note_on,120,0,5,,,,,,,,,,3,,67,0
88790,note_on,110,0,14,,,,,,,,,,11,,75,0
88800,note_on,10,0,14,,,,,,,,,,11,,77,110
88800,note_on,120,0,5,,,,,,,,,,3,,67,50
88800,note_on,120,0,2,,,,,,,,,,0,,75,50
88800,note_on,120,0,6,,,,,,,,,,4,,60,50
88890,note_on,90,0,14,,,,,,,,,,11,,77,0
88920,note_on,30,0,14,,,,,,,,,,11,,79,110
88980,note_on,180,0,2,,,,,,,,,,0,,75,0
88980,note_on,180,0,6,,,,,,,,,,4,,60,0
88980,note_on,180,0,5,,,,,,,,,,3,,67,0
89010,note_on,90,0,14,,,,,,,,,,11,,79,0
89040,note_on,60,0,5,,,,,,,,,,3,,69,50
89040,note_on,60,0,2,,,,,,,,,,0,,78,50
89040,note_on,30,0,14,,,,,,,,,,11,,78,110
89040,note_on,60,0,6,,,,,,,,,,4,,60,50
89130,note_on,90,0,14,,,,,,,,,,11,,78,0
89160,note_on,120,0,5,,,,,,,,,,3,,69,0
89160,note_on,120,0,2,,,,,,,,,,0,,78,0
89160,note_on,30,0,14,,,,,,,,,,11,,78,110
89160,note_on,120,0,6,,,,,,,,,,4,,60,0
89270,note_on,110,0,14,,,,,,,,,,11,,78,0
89280,note_on,10,0,14,,,,,,,,,,11,,79,110
89280,note_on,120,0,6,,,,,,,,,,4,,60,50
89280,note_on,120,0,2,,,,,,,,,,0,,78,50
89280,note_on,120,0,5,,,,,,,,,,3,,69,50
89370,note_on,90,0,14,,,,,,,,,,11,,79,0
89400,note_on,30,0,14,,,,,,,,,,11,,81,110
89460,note_on,180,0,2,,,,,,,,,,0,,78,0
89460,note_on,180,0,6,,,,,,,,,,4,,60,0
89460,note_on,180,0,5,,,,,,,,,,3,,69,0
89490,note_on,90,0,14,,,,,,,,,,11,,81,0
89520,note_on,60,0,6,,,,,,,,,,4,,59,50
89520,note_on,60,0,5,,,,,,,,,,3,,74,50
89520,note_on,30,0,14,,,,,,,,,,11,,79,110
89520,note_on,60,0,2,,,,,,,,,,0,,79,50
89640,note_on,120,0,6,,,,,,,,,,4,,59,0
89640,note_on,120,0,5,,,,,,,,,,3,,74,0
89640,note_on,120,0,2,,,,,,,,,,0,,79,0
89640,note_on,120,0,14,,,,,,,,,,11,,77,110
89650,note_on,10,0,14,,,,,,,,,,11,,79,0
89750,note_on,100,0,14,,,,,,,,,,11,,77,0
89760,note_on,10,0,14,,,,,,,,,,11,,75,110
89760,note_on,120,0,5,,,,,,,,,,3,,74,50
89760,note_on,120,0,6,,,,,,,,,,4,,59,50
89760,note_on,120,0,2,,,,,,,,,,0,,79,50
89870,note_on,110,0,14,,,,,,,,,,11,,75,0
89880,note_on,10,0,14,,,,,,,,,,11,,74,110
89940,note_on,180,0,2,,,,,,,,,,0,,79,0
89940,note_on,180,0,5,,,,,,,,,,3,,74,0
89940,note_on,180,0,6,,,,,,,,,,4,,59,0
89970,note_on,90,0,14,,,,,,,,,,11,,74,0
90000,note_on,30,0,14,,,,,,,,,,11,,79,110
90000,note_on,60,0,2,,,,,,,,,,0,,79,50
90000,note_on,60,0,5,,,,,,,,,,3,,75,50
90000,note_on,60,0,6,,,,,,,,,,4,,60,50
90120,note_on,120,0,5,,,,,,,,,,3,,75,0
90120,note_on,120,0,14,,,,,,,,,,11,,75,110
90120,note_on,120,0,2,,,,,,,,,,0,,79,0
90120,note_on,120,0,6,,,,,,,,,,4,,60,0
90130,note_on,10,0,14,,,,,,,,,,11,,79,0
90230,note_on,100,0,14,,,,,,,,,,11,,75,0
90240,note_on,120,0,6,,,,,,,,,,4,,60,50
90240,note_on,10,0,14,,,,,,,,,,11,,74,110
90240,note_on,120,0,2,,,,,,,,,,0,,75,50
90240,note_on,120,0,5,,,,,,,,,,3,,72,50
90350,note_on,110,0,14,,,,,,,,,,11,,74,0
90360,note_on,10,0,14,,,,,,,,,,11,,72,110
90420,note_on,180,0,2,,,,,,,,,,0,,75,0
90420,note_on,180,0,6,,,,,,,,,,4,,60,0
90420,note_on,180,0,5,,,,,,,,,,3,,72,0
90450,note_on,90,0,14,,,,,,,,,,11,,72,0
90480,note_on,60,0,6,,,,,,,,,,4,,53,50
90480,note_on,60,0,2,,,,,,,,,,0,,75,50
90480,note_on,30,0,14,,,,,,,,,,11,,80,110
90480,note_on,60,0,5,,,,,,,,,,3,,72,50
90600,note_on,120,0,5,,,,,,,,,,3,,72,0
90600,note_on,120,0,2,,,,,,,,,,0,,75,0
90600,note_on,120,0,6,,,,,,,,,,4,,53,0
90720,note_on,240,0,14,,,,,,,,,,11,,80,0
90720,note_on,120,0,6,,,,,,,,,,4,,53,50
90720,note_on,120,0,2,,,,,,,,,,0,,75,50
90720,note_on,120,0,5,,,,,,,,,,3,,72,50
90900,note_on,180,0,5,,,,,,,,,,3,,72,0
90900,note_on,180,0,6,,,,,,,,,,4,,53,0
90900,note_on,180,0,2,,,,,,,,,,0,,75,0
90960,note_on,60,0,5,,,,,,,,,,3,,71,50
90960,note_on,60,0,6,,,,,,,,,,4,,55,50
90960,note_on,60,0,2,,,,,,,,,,0,,74,50
90960,note_on,240,0,14,,,,,,,,,,11,,72,110
91020,note_on,60,0,14,,,,,,,,,,11,,71,110
91030,note_on,10,0,14,,,,,,,,,,11,,72,0
91080,note_on,120,0,2,,,,,,,,,,0,,74,0
91080,note_on,120,0,5,,,,,,,,,,3,,71,0
91080,note_on,50,0,14,,,,,,,,,,11,,72,110
91080,note_on,120,0,6,,,,,,,,,,4,,55,0
91090,note_on,10,0,14,,,,,,,,,,11,,71,0
91140,note_on,50,0,14,,,,,,,,,,11,,71,110
91150,note_on,10,0,14,,,,,,,,,,11,,72,0
91200,note_on,120,0,5,,,,,,,,,,3,,71,50
91200,note_on,120,0,6,,,,,,,,,,4,,55,50
91200,note_on,120,0,2,,,,,,,,,,0,,79,90
91200,note_on,28200,0,3,,,,,,,,,,1,,79,90
91320,note_on,120,0,5,,,,,,,,,,3,,71,0
91320,note_on,120,0,6,,,,,,,,,,4,,55,0
91320,note_on,120,0,2,,,,,,,,,,0,,79,0
91320,note_on,120,0,3,,,,,,,,,,1,,79,0
91380,note_on,230,0,14,,,,,,,,,,11,,71,0
91440,note_on,28440,0,7,,,,,,,,,,5,,72,90
91440,note_on,28440,0,4,,,,,,,,,,2,,75,90
91440,note_on,7320,0,8,,,,,,,,,,6,,48,90
91440,note_on,120,0,2,,,,,,,,,,0,,67,90
91440,note_on,120,0,3,,,,,,,,,,1,,67,90
91440,note_on,120,0,6,,,,,,,,,,4,,72,90
91440,note_on,60,0,14,,,,,,,,,,11,,72,110
91440,note_on,28440,0,9,,,,,,,,,,7,,48,90
91440,note_on,120,0,5,,,,,,,,,,3,,75,90
91440,note_on,28440,0,11,,,,,,,,,,8,,36,90
91530,note_on,90,0,7,,,,,,,,,,5,,72,0
91530,note_on,90,0,5,,,,,,,,,,3,,75,0
91530,note_on,90,0,4,,,,,,,,,,2,,75,0
91530,note_on,90,0,6,,,,,,,,,,4,,72,0
91560,note_on,120,0,3,,,,,,,,,,1,,67,0
91560,note_on,30,0,4,,,,,,,,,,2,,74,90
91560,note_on,120,0,2,,,,,,,,,,0,,67,0
91560,note_on,30,0,7,,,,,,,,,,5,,71,90
91560,note_on,30,0,5,,,,,,,,,,3,,74,90
91560,note_on,30,0,6,,,,,,,,,,4,,71,90
91680,note_on,120,0,6,,,,,,,,,,4,,72,90
91680,note_on,120,0,5,,,,,,,,,,3,,75,90
91680,note_on,120,0,4,,,,,,,,,,2,,75,90
91680,note_on,240,0,8,,,,,,,,,,6,,48,0
91680,note_on,240,0,11,,,,,,,,,,8,,36,0
91680,note_on,120,0,2,,,,,,,,,,0,,72,90
91680,note_on,120,0,7,,,,,,,,,,5,,72,90
91680,note_on,240,0,14,,,,,,,,,,11,,72,0
91680,note_on,120,0,3,,,,,,,,,,1,,72,90
91680,note_on,240,0,9,,,,,,,,,,7,,48,0
91690,note_on,10,0,6,,,,,,,,,,4,,71,0
91690,note_on,10,0,4,,,,,,,,,,2,,74,0
91690,note_on,10,0,5,,,,,,,,,,3,,74,0
91690,note_on,10,0,7,,,,,,,,,,5,,71,0
91790,note_on,100,0,5,,,,,,,,,,3,,75,0
91790,note_on,100,0,4,,,,,,,,,,2,,75,0
91790,note_on,100,0,7,,,,,,,,,,5,,72,0
91790,note_on,100,0,6,,,,,,,,,,4,,72,0
91800,note_on,10,0,5,,,,,,,,,,3,,77,90
91800,note_on,10,0,7,,,,,,,,,,5,,74,90
91800,note_on,10,0,4,,,,,,,,,,2,,77,90
91800,note_on,10,0,6,,,,,,,,,,4,,74,90
91860,note_on,180,0,2,,,,,,,,,,0,,72,0
91860,note_on,180,0,3,,,,,,,,,,1,,72,0
91890,note_on,90,0,7,,,,,,,,,,5,,74,0
91890,note_on,90,0,4,,,,,,,,,,2,,77,0
91890,note_on,90,0,6,,,,,,,,,,4,,74,0
91890,note_on,90,0,5,,,,,,,,,,3,,77,0
91920,note_on,240,0,11,,,,,,,,,,8,,48,90
91920,note_on,30,0,6,,,,,,,,,,4,,75,90
91920,note_on,60,0,3,,,,,,,,,,1,,63,90
91920,note_on,240,0,8,,,,,,,,,,6,,60,90
91920,note_on,60,0,2,,,,,,,,,,0,,63,90
91920,note_on,30,0,4,,,,,,,,,,2,,79,90
91920,note_on,240,0,9,,,,,,,,,,7,,60,90
91920,note_on,30,0,7,,,,,,,,,,5,,75,90
91920,note_on,30,0,5,,,,,,,,,,3,,79,90
92040,note_on,120,0,4,,,,,,,,,,2,,79,0
92040,note_on,120,0,7,,,,,,,,,,5,,75,0
92040,note_on,120,0,9,,,,,,,,,,7,,60,0
92040,note_on,120,0,2,,,,,,,,,,0,,63,0
92040,note_on,120,0,8,,,,,,,,,,6,,60,0
92040,note_on,120,0,11,,,,,,,,,,8,,48,0
92040,note_on,120,0,5,,,,,,,,,,3,,79,0
92040,note_on,120,0,6,,,,,,,,,,4,,75,0
92040,note_on,120,0,3,,,,,,,,,,1,,63,0
92160,note_on,120,0,4,,,,,,,,,,2,,67,90
92160,note_on,120,0,8,,,,,,,,,,6,,48,90
92160,note_on,480,0,14,,,,,,,,,,11,,72,90
92160,note_on,120,0,7,,,,,,,,,,5,,63,90
92160,note_on,120,0,9,,,,,,,,,,7,,48,90
92160,note_on,120,0,6,,,,,,,,,,4,,63,90
92160,note_on,120,0,2,,,,,,,,,,0,,72,90
92160,note_on,120,0,11,,,,,,,,,,8,,36,90
92160,note_on,120,0,5,,,,,,,,,,3,,67,90
92160,note_on,120,0,3,,,,,,,,,,1,,72,90
92340,note_on,180,0,2,,,,,,,,,,0,,72,0
92340,note_on,180,0,9,,,,,,,,,,7,,48,0
92340,note_on,180,0,5,,,,,,,,,,3,,67,0
92340,note_on,180,0,11,,,,,,,,,,8,,36,0
92340,note_on,180,0,8,,,,,,,,,,6,,48,0
92340,note_on,180,0,14,,,,,,,,,,11,,72,0
92340,note_on,180,0,6,,,,,,,,,,4,,63,0
92340,note_on,180,0,7,,,,,,,,,,5,,63,0
92340,note_on,180,0,3,,,,,,,,,,1,,72,0
92340,note_on,180,0,4,,,,,,,,,,2,,67,0
92400,note_on,60,0,14,,,,,,,,,,11,,77,90
92400,note_on,60,0,3,,,,,,,,,,1,,77,90
92400,note_on,60,0,4,,,,,,,,,,2,,74,90
92400,note_on,60,0,2,,,,,,,,,,0,,77,90
92400,note_on,60,0,5,,,,,,,,,,3,,74,90
92640,note_on,240,0,5,,,,,,,,,,3,,74,0
92640,note_on,240,0,3,,,,,,,,,,1,,77,0
92640,note_on,240,0,14,,,,,,,,,,11,,77,0
92640,note_on,240,0,2,,,,,,,,,,0,,77,0
92640,note_on,240,0,4,,,,,,,,,,2,,74,0
92880,note_on,240,0,3,,,,,,,,,,1,,75,90
92880,note_on,240,0,2,,,,,,,,,,0,,75,90
92880,note_on,240,0,4,,,,,,,,,,2,,72,90
92880,note_on,240,0,14,,,,,,,,,,11,,75,90
92880,note_on,240,0,5,,,,,,,,,,3,,72,90
93060,note_on,180,0,3,,,,,,,,,,1,,75,0
93060,note_on,180,0,14,,,,,,,,,,11,,75,0
93060,note_on,180,0,2,,,,,,,,,,0,,75,0
93120,note_on,60,0,14,,,,,,,,,,11,,72,90
93120,note_on,60,0,3,,,,,,,,,,1,,72,90
93120,note_on,60,0,2,,,,,,,,,,0,,72,90
93240,note_on,120,0,14,,,,,,,,,,11,,72,0
93240,note_on,120,0,3,,,,,,,,,,1,,72,0
93240,note_on,120,0,2,,,,,,,,,,0,,72,0
93240,note_on,360,0,4,,,,,,,,,,2,,72,0
93240,note_on,360,0,5,,,,,,,,,,3,,72,0
93360,note_on,120,0,2,,,,,,,,,,0,,67,90
93360,note_on,1020,0,7,,,,,,,,,,5,,72,90
93360,note_on,1020,0,6,,,,,,,,,,4,,72,90
93360,note_on,120,0,4,,,,,,,,,,2,,75,90
93360,note_on,120,0,14,,,,,,,,,,11,,67,90
93360,note_on,120,0,3,,,,,,,,,,1,,67,90
93360,note_on,120,0,5,,,,,,,,,,3,,75,90
93450,note_on,90,0,5,,,,,,,,,,3,,75,0
93450,note_on,90,0,7,,,,,,,,,,5,,72,0
93450,note_on,90,0,4,,,,,,,,,,2,,75,0
93450,note_on,90,0,6,,,,,,,,,,4,,72,0
93480,note_on,120,0,14,,,,,,,,,,11,,67,0
93480,note_on,30,0,5,,,,,,,,,,3,,74,90
93480,note_on,30,0,7,,,,,,,,,,5,,71,90
93480,note_on,30,0,6,,,,,,,,,,4,,71,90
93480,note_on,120,0,3,,,,,,,,,,1,,67,0
93480,note_on,120,0,2,,,,,,,,,,0,,67,0
93480,note_on,30,0,4,,,,,,,,,,2,,74,90
93600,note_on,120,0,6,,,,,,,,,,4,,72,90
93600,note_on,120,0,4,,,,,,,,,,2,,75,90
93600,note_on,120,0,5,,,,,,,,,,3,,75,90
93600,note_on,120,0,7,,,,,,,,,,5,,72,90
93600,note_on,120,0,2,,,,,,,,,,0,,72,90
93600,note_on,120,0,3,,,,,,,,,,1,,72,90
93600,note_on,120,0,14,,,,,,,,,,11,,72,90
93610,note_on,10,0,4,,,,,,,,,,2,,74,0
93610,note_on,10,0,7,,,,,,,,,,5,,71,0
93610,note_on,10,0,5,,,,,,,,,,3,,74,0
93610,note_on,10,0,6,,,,,,,,,,4,,71,0
93710,note_on,100,0,4,,,,,,,,,,2,,75,0
93710,note_on,100,0,5,,,,,,,,,,3,,75,0
93710,note_on,100,0,7,,,,,,,,,,5,,72,0
93710,note_on,100,0,6,,,,,,,,,,4,,72,0
93720,note_on,10,0,4,,,,,,,,,,2,,77,90
93720,note_on,10,0,6,,,,,,,,,,4,,74,90
93720,note_on,10,0,5,,,,,,,,,,3,,77,90
93720,note_on,10,0,7,,,,,,,,,,5,,74,90
93780,note_on,180,0,2,,,,,,,,,,0,,72,0
93780,note_on,180,0,14,,,,,,,,,,11,,72,0
93780,note_on,180,0,3,,,,,,,,,,1,,72,0
93810,note_on,90,0,5,,,,,,,,,,3,,77,0
93810,note_on,90,0,6,,,,,,,,,,4,,74,0
93810,note_on,90,0,7,,,,,,,,,,5,,74,0
93810,note_on,90,0,4,,,,,,,,,,2,,77,0
93840,note_on,30,0,7,,,,,,,,,,5,,75,90
93840,note_on,1500,0,8,,,,,,,,,,6,,60,90
93840,note_on,30,0,4,,,,,,,,,,2,,79,90
93840,note_on,1500,0,9,,,,,,,,,,7,,60,90
93840,note_on,60,0,14,,,,,,,,,,11,,63,90
93840,note_on,1500,0,11,,,,,,,,,,8,,48,90
93840,note_on,60,0,3,,,,,,,,,,1,,63,90
93840,note_on,30,0,5,,,,,,,,,,3,,79,90
93840,note_on,60,0,2,,,,,,,,,,0,,63,90
93840,note_on,30,0,6,,,,,,,,,,4,,75,90
93960,note_on,120,0,5,,,,,,,,,,3,,79,0
93960,note_on,120,0,4,,,,,,,,,,2,,79,0
93960,note_on,120,0,2,,,,,,,,,,0,,63,0
93960,note_on,120,0,11,,,,,,,,,,8,,48,0
93960,note_on,120,0,8,,,,,,,,,,6,,60,0
93960,note_on,120,0,9,,,,,,,,,,7,,60,0
93960,note_on,120,0,14,,,,,,,,,,11,,63,0
93960,note_on,120,0,7,,,,,,,,,,5,,75,0
93960,note_on,120,0,6,,,,,,,,,,4,,75,0
93960,note_on,120,0,3,,,,,,,,,,1,,63,0
94080,note_on,120,0,4,,,,,,,,,,2,,67,90
94080,note_on,120,0,8,,,,,,,,,,6,,48,90
94080,note_on,120,0,7,,,,,,,,,,5,,63,90
94080,note_on,120,0,2,,,,,,,,,,0,,72,90
94080,note_on,120,0,3,,,,,,,,,,1,,72,90
94080,note_on,120,0,11,,,,,,,,,,8,,36,90
94080,note_on,120,0,9,,,,,,,,,,7,,48,90
94080,note_on,120,0,6,,,,,,,,,,4,,63,90
94080,note_on,120,0,14,,,,,,,,,,11,,72,90
94080,note_on,120,0,5,,,,,,,,,,3,,67,90
94260,note_on,180,0,2,,,,,,,,,,0,,72,0
94260,note_on,180,0,6,,,,,,,,,,4,,63,0
94260,note_on,180,0,8,,,,,,,,,,6,,48,0
94260,note_on,180,0,11,,,,,,,,,,8,,36,0
94260,note_on,180,0,14,,,,,,,,,,11,,72,0
94260,note_on,180,0,5,,,,,,,,,,3,,67,0
94260,note_on,180,0,3,,,,,,,,,,1,,72,0
94260,note_on,180,0,7,,,,,,,,,,5,,63,0
94260,note_on,180,0,4,,,,,,,,,,2,,67,0
94260,note_on,180,0,9,,,,,,,,,,7,,48,0
94320,note_on,60,0,4,,,,,,,,,,2,,77,90
94320,note_on,60,0,2,,,,,,,,,,0,,80,90
94320,note_on,60,0,9,,,,,,,,,,7,,53,90
94320,note_on,60,0,5,,,,,,,,,,3,,77,90
94320,note_on,60,0,8,,,,,,,,,,6,,53,90
94320,note_on,60,0,7,,,,,,,,,,5,,68,90
94320,note_on,60,0,11,,,,,,,,,,8,,41,90
94320,note_on,60,0,6,,,,,,,,,,4,,68,90
94320,note_on,60,0,3,,,,,,,,,,1,,80,90
94320,note_on,60,0,14,,,,,,,,,,11,,80,90
94440,note_on,120,0,9,,,,,,,,,,7,,53,0
94440,note_on,120,0,8,,,,,,,,,,6,,53,0
94440,note_on,120,0,11,,,,,,,,,,8,,41,0
94440,note_on,120,0,7,,,,,,,,,,5,,68,0
94440,note_on,120,0,6,,,,,,,,,,4,,68,0
94560,note_on,240,0,4,,,,,,,,,,2,,77,0
94560,note_on,120,0,11,,,,,,,,,,8,,43,90
94560,note_on,240,0,2,,,,,,,,,,0,,80,0
94560,note_on,240,0,3,,,,,,,,,,1,,80,0
94560,note_on,240,0,5,,,,,,,,,,3,,77,0
94560,note_on,120,0,8,,,,,,,,,,6,,55,90
94560,note_on,120,0,7,,,,,,,,,,5,,70,90
94560,note_on,120,0,6,,,,,,,,,,4,,70,90
94560,note_on,240,0,14,,,,,,,,,,11,,80,0
94560,note_on,120,0,9,,,,,,,,,,7,,55,90
94740,note_on,180,0,8,,,,,,,,,,6,,55,0
94740,note_on,180,0,6,,,,,,,,,,4,,70,0
94740,note_on,180,0,11,,,,,,,,,,8,,43,0
94740,note_on,180,0,7,,,,,,,,,,5,,70,0
94740,note_on,180,0,9,,,,,,,,,,7,,55,0
94800,note_on,240,0,4,,,,,,,,,,2,,75,90
94800,note_on,240,0,2,,,,,,,,,,0,,79,90
94800,note_on,240,0,3,,,,,,,,,,1,,79,90
94800,note_on,60,0,9,,,,,,,,,,7,,57,90
94800,note_on,240,0,14,,,,,,,,,,11,,79,90
94800,note_on,240,0,5,,,,,,,,,,3,,75,90
94800,note_on,60,0,6,,,,,,,,,,4,,72,90
94800,note_on,60,0,7,,,,,,,,,,5,,72,90
94800,note_on,60,0,8,,,,,,,,,,6,,57,90
94800,note_on,60,0,11,,,,,,,,,,8,,45,90
94920,note_on,120,0,11,,,,,,,,,,8,,45,0
94920,note_on,120,0,6,,,,,,,,,,4,,72,0
94920,note_on,120,0,7,,,,,,,,,,5,,72,0
94920,note_on,120,0,8,,,,,,,,,,6,,57,0
94920,note_on,120,0,5,,,,,,,,,,3,,75,0
94920,note_on,120,0,9,,,,,,,,,,7,,57,0
94920,note_on,120,0,4,,,,,,,,,,2,,75,0
94980,note_on,180,0,2,,,,,,,,,,0,,79,0
94980,note_on,180,0,14,,,,,,,,,,11,,79,0
94980,note_on,180,0,3,,,,,,,,,,1,,79,0
95040,note_on,120,0,11,,,,,,,,,,8,,46,90
95040,note_on,60,0,3,,,,,,,,,,1,,77,90
95040,note_on,120,0,5,,,,,,,,,,3,,74,90
95040,note_on,120,0,7,,,,,,,,,,5,,74,90
95040,note_on,120,0,8,,,,,,,,,,6,,58,90
95040,note_on,120,0,4,,,,,,,,,,2,,74,90
95040,note_on,60,0,2,,,,,,,,,,0,,77,90
95040,note_on,60,0,14,,,,,,,,,,11,,77,90
95040,note_on,120,0,6,,,,,,,,,,4,,74,90
95040,note_on,120,0,9,,,,,,,,,,7,,58,90
95160,note_on,120,0,2,,,,,,,,,,0,,77,0
95160,note_on,120,0,3,,,,,,,,,,1,,77,0
95160,note_on,120,0,14,,,,,,,,,,11,,77,0
95220,note_on,180,0,4,,,,,,,,,,2,,74,0
95220,note_on,180,0,8,,,,,,,,,,6,,58,0
95220,note_on,180,0,7,,,,,,,,,,5,,74,0
95220,note_on,180,0,6,,,,,,,,,,4,,74,0
95220,note_on,180,0,5,,,,,,,,,,3,,74,0
95220,note_on,180,0,11,,,,,,,,,,8,,46,0
95220,note_on,180,0,9,,,,,,,,,,7,,58,0
95280,note_on,60,0,4,,,,,,,,,,2,,72,90
95280,note_on,120,0,2,,,,,,,,,,0,,75,90
95280,note_on,60,0,5,,,,,,,,,,3,,72,90
95280,note_on,60,0,8,,,,,,,,,,6,,60,90
95280,note_on,120,0,3,,,,,,,,,,1,,75,90
95280,note_on,60,0,11,,,,,,,,,,8,,48,90
95280,note_on,60,0,7,,,,,,,,,,5,,67,90
95280,note_on,60,0,6,,,,,,,,,,4,,67,90
95280,note_on,60,0,9,,,,,,,,,,7,,60,90
95280,note_on,120,0,14,,,,,,,,,,11,,75,90
95400,note_on,120,0,3,,,,,,,,,,1,,75,0
95400,note_on,120,0,7,,,,,,,,,,5,,67,0
95400,note_on,120,0,11,,,,,,,,,,8,,48,0
95400,note_on,120,0,2,,,,,,,,,,0,,75,0
95400,note_on,120,0,14,,,,,,,,,,11,,75,0
95400,note_on,120,0,4,,,,,,,,,,2,,72,0
95400,note_on,120,0,6,,,,,,,,,,4,,67,0
95400,note_on,120,0,9,,,,,,,,,,7,,60,0
95400,note_on,120,0,8,,,,,,,,,,6,,60,0
95400,note_on,120,0,5,,,,,,,,,,3,,72,0
95520,note_on,120,0,11,,,,,,,,,,8,,36,90
95520,note_on,120,0,4,,,,,,,,,,2,,63,90
95520,note_on,120,0,6,,,,,,,,,,4,,55,90
95520,note_on,120,0,7,,,,,,,,,,5,,55,90
95520,note_on,120,0,14,,,,,,,,,,11,,74,90
95520,note_on,120,0,9,,,,,,,,,,7,,48,90
95520,note_on,120,0,3,,,,,,,,,,1,,74,90
95520,note_on,120,0,5,,,,,,,,,,3,,63,90
95520,note_on,120,0,2,,,,,,,,,,0,,74,90
95520,note_on,120,0,8,,,,,,,,,,6,,48,90
95630,note_on,110,0,14,,,,,,,,,,11,,74,0
95630,note_on,110,0,2,,,,,,,,,,0,,74,0
95630,note_on,110,0,3,,,,,,,,,,1,,74,0
95640,note_on,10,0,3,,,,,,,,,,1,,72,90
95640,note_on,10,0,14,,,,,,,,,,11,,72,90
95640,note_on,10,0,2,,,,,,,,,,0,,72,90
95700,note_on,180,0,8,,,,,,,,,,6,,48,0
95700,note_on,180,0,9,,,,,,,,,,7,,48,0
95700,note_on,180,0,6,,,,,,,,,,4,,55,0
95700,note_on,180,0,7,,,,,,,,,,5,,55,0
95700,note_on,180,0,11,,,,,,,,,,8,,36,0
95700,note_on,180,0,4,,,,,,,,,,2,,63,0
95700,note_on,180,0,5,,,,,,,,,,3,,63,0
95730,note_on,90,0,3,,,,,,,,,,1,,72,0
95730,note_on,90,0,14,,,,,,,,,,11,,72,0
95730,note_on,90,0,2,,,,,,,,,,0,,72,0
95760,note_on,60,0,4,,,,,,,,,,2,,65,90
95760,note_on,60,0,9,,,,,,,,,,7,,41,90
95760,note_on,60,0,7,,,,,,,,,,5,,56,90
95760,note_on,60,0,5,,,,,,,,,,3,,65,90
95760,note_on,30,0,3,,,,,,,,,,1,,74,90
95760,note_on,60,0,8,,,,,,,,,,6,,41,90
95760,note_on,60,0,6,,,,,,,,,,4,,56,90
95760,note_on,30,0,14,,,,,,,,,,11,,74,90
95760,note_on,60,0,11,,,,,,,,,,8,,29,90
95760,note_on,30,0,2,,,,,,,,,,0,,74,90
95880,note_on,120,0,3,,,,,,,,,,1,,74,0
95880,note_on,120,0,14,,,,,,,,,,11,,74,0
95880,note_on,120,0,9,,,,,,,,,,7,,41,0
95880,note_on,120,0,4,,,,,,,,,,2,,65,0
95880,note_on,120,0,11,,,,,,,,,,8,,29,0
95880,note_on,120,0,5,,,,,,,,,,3,,65,0
95880,note_on,120,0,8,,,,,,,,,,6,,41,0
95880,note_on,120,0,6,,,,,,,,,,4,,56,0
95880,note_on,120,0,2,,,,,,,,,,0,,74,0
95880,note_on,120,0,7,,,,,,,,,,5,,56,0
96000,note_on,120,0,4,,,,,,,,,,2,,62,90
96000,note_on,120,0,6,,,,,,,,,,4,,55,90
96000,note_on,120,0,14,,,,,,,,,,11,,71,90
96000,note_on,120,0,8,,,,,,,,,,6,,43,90
96000,note_on,120,0,7,,,,,,,,,,5,,55,90
96000,note_on,120,0,11,,,,,,,,,,8,,31,90
96000,note_on,120,0,5,,,,,,,,,,3,,62,90
96000,note_on,120,0,9,,,,,,,,,,7,,43,90
96000,note_on,120,0,3,,,,,,,,,,1,,71,90
96000,note_on,120,0,2,,,,,,,,,,0,,71,90
96180,note_on,180,0,6,,,,,,,,,,4,,55,0
96180,note_on,180,0,7,,,,,,,,,,5,,55,0
96180,note_on,180,0,4,,,,,,,,,,2,,62,0
96180,note_on,180,0,9,,,,,,,,,,7,,43,0
96180,note_on,180,0,3,,,,,,,,,,1,,71,0
96180,note_on,180,0,11,,,,,,,,,,8,,31,0
96180,note_on,180,0,14,,,,,,,,,,11,,71,0
96180,note_on,180,0,8,,,,,,,,,,6,,43,0
96180,note_on,180,0,2,,,,,,,,,,0,,71,0
96180,note_on,180,0,5,,,,,,,,,,3,,62,0
96240,note_on,60,0,2,,,,,,,,,,0,,72,90
96240,note_on,60,0,6,,,,,,,,,,4,,55,90
96240,note_on,60,0,7,,,,,,,,,,5,,55,90
96240,note_on,60,0,8,,,,,,,,,,6,,36,90
96240,note_on,60,0,9,,,,,,,,,,7,,36,90
96240,note_on,60,0,5,,,,,,,,,,3,,63,90
96240,note_on,60,0,4,,,,,,,,,,2,,63,90
96240,note_on,60,0,11,,,,,,,,,,8,,24,90
96240,note_on,60,0,14,,,,,,,,,,11,,72,110
96240,note_on,60,0,3,,,,,,,,,,1,,72,90
96330,note_on,90,0,14,,,,,,,,,,11,,72,0
96360,note_on,120,0,4,,,,,,,,,,2,,63,0
96360,note_on,120,0,3,,,,,,,,,,1,,72,0
96360,note_on,120,0,2,,,,,,,,,,0,,72,0
96360,note_on,120,0,5,,,,,,,,,,3,,63,0
96360,note_on,30,0,14,,,,,,,,,,11,,75,110
96400,note_on,160,0,9,,,,,,,,,,7,,36,0
96400,note_on,160,0,8,,,,,,,,,,6,,36,0
96400,note_on,160,0,7,,,,,,,,,,5,,55,0
96400,note_on,160,0,6,,,,,,,,,,4,,55,0
96400,note_on,160,0,11,,,,,,,,,,8,,24,0
96480,note_on,120,0,14,,,,,,,,,,11,,72,110
96480,note_on,120,0,2,,,,,,,,,,0,,75,50
96480,note_on,120,0,5,,,,,,,,,,3,,75,50
96490,note_on,10,0,14,,,,,,,,,,11,,75,0
96590,note_on,100,0,14,,,,,,,,,,11,,72,0
96600,note_on,10,0,14,,,,,,,,,,11,,67,110
96660,note_on,180,0,2,,,,,,,,,,0,,75,0
96660,note_on,180,0,5,,,,,,,,,,3,,75,0
96690,note_on,90,0,14,,,,,,,,,,11,,67,0
96720,note_on,60,0,2,,,,,,,,,,0,,67,50
96720,note_on,60,0,5,,,,,,,,,,3,,67,50
96720,note_on,30,0,14,,,,,,,,,,11,,72,110
96810,note_on,90,0,14,,,,,,,,,,11,,72,0
96840,note_on,120,0,2,,,,,,,,,,0,,67,0
96840,note_on,120,0,5,,,,,,,,,,3,,67,0
96840,note_on,30,0,14,,,,,,,,,,11,,75,110
96960,note_on,120,0,2,,,,,,,,,,0,,75,50
96960,note_on,120,0,14,,,,,,,,,,11,,72,110
96960,note_on,120,0,5,,,,,,,,,,3,,75,50
96970,note_on,10,0,14,,,,,,,,,,11,,75,0
97070,note_on,100,0,14,,,,,,,,,,11,,72,0
97080,note_on,10,0,14,,,,,,,,,,11,,67,110
97140,note_on,180,0,5,,,,,,,,,,3,,75,0
97140,note_on,180,0,2,,,,,,,,,,0,,75,0
97170,note_on,90,0,14,,,,,,,,,,11,,67,0
97200,note_on,60,0,5,,,,,,,,,,3,,67,50
97200,note_on,30,0,14,,,,,,,,,,11,,71,110
97200,note_on,60,0,2,,,,,,,,,,0,,67,50
97290,note_on,90,0,14,,,,,,,,,,11,,71,0
97320,note_on,120,0,5,,,,,,,,,,3,,67,0
97320,note_on,30,0,14,,,,,,,,,,11,,74,110
97320,note_on,120,0,2,,,,,,,,,,0,,67,0
97440,note_on,120,0,5,,,,,,,,,,3,,74,50
97440,note_on,120,0,2,,,,,,,,,,0,,74,50
97440,note_on,120,0,14,,,,,,,,,,11,,71,110
97450,note_on,10,0,14,,,,,,,,,,11,,74,0
97550,note_on,100,0,14,,,,,,,,,,11,,71,0
97560,note_on,10,0,14,,,,,,,,,,11,,67,110
97620,note_on,180,0,5,,,,,,,,,,3,,74,0
97620,note_on,180,0,2,,,,,,,,,,0,,74,0
97650,note_on,90,0,14,,,,,,,,,,11,,67,0
97680,note_on,30,0,14,,,,,,,,,,11,,71,110
97680,note_on,60,0,5,,,,,,,,,,3,,67,50
97680,note_on,60,0,2,,,,,,,,,,0,,67,50
97770,note_on,90,0,14,,,,,,,,,,11,,71,0
97800,note_on,120,0,5,,,,,,,,,,3,,67,0
97800,note_on,30,0,14,,,,,,,,,,11,,74,110
97800,note_on,120,0,2,,,,,,,,,,0,,67,0
97920,note_on,120,0,2,,,,,,,,,,0,,74,50
97920,note_on,120,0,14,,,,,,,,,,11,,71,110
97920,note_on,120,0,5,,,,,,,,,,3,,74,50
97930,note_on,10,0,14,,,,,,,,,,11,,74,0
98030,note_on,100,0,14,,,,,,,,,,11,,71,0
98040,note_on,10,0,14,,,,,,,,,,11,,67,110
98100,note_on,180,0,5,,,,,,,,,,3,,74,0
98100,note_on,180,0,2,,,,,,,,,,0,,74,0
98130,note_on,90,0,14,,,,,,,,,,11,,67,0
98160,note_on,60,0,2,,,,,,,,,,0,,67,50
98160,note_on,30,0,14,,,,,,,,,,11,,72,110
98160,note_on,60,0,5,,,,,,,,,,3,,67,50
98250,note_on,90,0,14,,,,,,,,,,11,,72,0
98280,note_on,120,0,5,,,,,,,,,,3,,67,0
98280,note_on,120,0,2,,,,,,,,,,0,,67,0
98280,note_on,30,0,14,,,,,,,,,,11,,75,110
98400,note_on,120,0,2,,,,,,,,,,0,,75,50
98400,note_on,120,0,14,,,,,,,,,,11,,72,110
98400,note_on,120,0,5,,,,,,,,,,3,,75,50
98410,note_on,10,0,14,,,,,,,,,,11,,75,0
98510,note_on,100,0,14,,,,,,,,,,11,,72,0
98520,note_on,10,0,14,,,,,,,,,,11,,67,110
98580,note_on,180,0,2,,,,,,,,,,0,,75,0
98580,note_on,180,0,5,,,,,,,,,,3,,75,0
98610,note_on,90,0,14,,,,,,,,,,11,,67,0
98640,note_on,60,0,5,,,,,,,,,,3,,67,50
98640,note_on,30,0,14,,,,,,,,,,11,,72,110
98640,note_on,60,0,2,,,,,,,,,,0,,67,50
98730,note_on,90,0,14,,,,,,,,,,11,,72,0
98760,note_on,120,0,2,,,,,,,,,,0,,67,0
98760,note_on,30,0,14,,,,,,,,,,11,,75,110
98760,note_on,120,0,5,,,,,,,,,,3,,67,0
98880,note_on,120,0,2,,,,,,,,,,0,,75,50
98880,note_on,120,0,5,,,,,,,,,,3,,75,50
98880,note_on,120,0,14,,,,,,,,,,11,,72,110
98890,note_on,10,0,14,,,,,,,,,,11,,75,0
98990,note_on,100,0,14,,,,,,,,,,11,,72,0
99000,note_on,10,0,14,,,,,,,,,,11,,67,110
99060,note_on,180,0,5,,,,,,,,,,3,,75,0
99060,note_on,180,0,2,,,,,,,,,,0,,75,0
99090,note_on,90,0,14,,,,,,,,,,11,,67,0
99120,note_on,60,0,2,,,,,,,,,,0,,67,50
99120,note_on,2720,0,8,,,,,,,,,,6,,55,70
99120,note_on,60,0,5,,,,,,,,,,3,,67,50
99120,note_on,30,0,14,,,,,,,,,,11,,71,110
99240,note_on,120,0,8,,,,,,,,,,6,,55,0
99300,note_on,180,0,14,,,,,,,,,,11,,71,0
99360,note_on,240,0,5,,,,,,,,,,3,,67,0
99360,note_on,60,0,14,,,,,,,,,,11,,67,110
99360,note_on,120,0,8,,,,,,,,,,6,,53,70
99360,note_on,240,0,2,,,,,,,,,,0,,67,0
99480,note_on,120,0,14,,,,,,,,,,11,,67,0
99540,note_on,180,0,8,,,,,,,,,,6,,53,0
99600,note_on,60,0,8,,,,,,,,,,6,,51,70
99720,note_on,120,0,8,,,,,,,,,,6,,51,0
99840,note_on,120,0,8,,,,,,,,,,6,,50,70
100020,note_on,180,0,8,,,,,,,,,,6,,50,0
100080,note_on,720,0,2,,,,,,,,,,0,,63,50
100080,note_on,600,0,14,,,,,,,,,,11,,79,110
100080,note_on,60,0,8,,,,,,,,,,6,,51,70
100080,note_on,720,0,5,,,,,,,,,,3,,63,50
100170,note_on,90,0,14,,,,,,,,,,11,,79,0
100200,note_on,120,0,5,,,,,,,,,,3,,63,0
100200,note_on,120,0,2,,,,,,,,,,0,,63,0
100200,note_on,30,0,14,,,,,,,,,,11,,82,110
100240,note_on,160,0,8,,,,,,,,,,6,,51,0
100320,note_on,120,0,2,,,,,,,,,,0,,70,50
100320,note_on,120,0,14,,,,,,,,,,11,,79,110
100320,note_on,120,0,5,,,,,,,,,,3,,70,50
100330,note_on,10,0,14,,,,,,,,,,11,,82,0
100430,note_on,100,0,14,,,,,,,,,,11,,79,0
100440,note_on,10,0,14,,,,,,,,,,11,,75,110
100500,note_on,180,0,2,,,,,,,,,,0,,70,0
100500,note_on,180,0,5,,,,,,,,,,3,,70,0
100530,note_on,90,0,14,,,,,,,,,,11,,75,0
100560,note_on,30,0,14,,,,,,,,,,11,,79,110
100560,note_on,60,0,5,,,,,,,,,,3,,63,50
100560,note_on,60,0,2,,,,,,,,,,0,,63,50
100650,note_on,90,0,14,,,,,,,,,,11,,79,0
100680,note_on,120,0,5,,,,,,,,,,3,,63,0
100680,note_on,120,0,2,,,,,,,,,,0,,63,0
100680,note_on,30,0,14,,,,,,,,,,11,,82,110
100800,note_on,120,0,5,,,,,,,,,,3,,70,50
100800,note_on,120,0,2,,,,,,,,,,0,,70,50
100800,note_on,120,0,14,,,,,,,,,,11,,79,110
100810,note_on,10,0,14,,,,,,,,,,11,,82,0
100910,note_on,100,0,14,,,,,,,,,,11,,79,0
100920,note_on,10,0,14,,,,,,,,,,11,,75,110
100980,note_on,180,0,2,,,,,,,,,,0,,70,0
100980,note_on,180,0,5,,,,,,,,,,3,,70,0
101010,note_on,90,0,14,,,,,,,,,,11,,75,0
101040,note_on,30,0,14,,,,,,,,,,11,,77,110
101040,note_on,60,0,2,,,,,,,,,,0,,62,50
101040,note_on,60,0,5,,,,,,,,,,3,,62,50
101130,note_on,90,0,14,,,,,,,,,,11,,77,0
101160,note_on,120,0,5,,,,,,,,,,3,,62,0
101160,note_on,30,0,14,,,,,,,,,,11,,82,110
101160,note_on,120,0,2,,,,,,,,,,0,,62,0
101280,note_on,120,0,14,,,,,,,,,,11,,77,110
101280,note_on,120,0,5,,,,,,,,,,3,,70,50
101280,note_on,120,0,2,,,,,,,,,,0,,70,50
101290,note_on,10,0,14,,,,,,,,,,11,,82,0
101390,note_on,100,0,14,,,,,,,,,,11,,77,0
101400,note_on,10,0,14,,,,,,,,,,11,,74,110
101460,note_on,180,0,5,,,,,,,,,,3,,70,0
101460,note_on,180,0,2,,,,,,,,,,0,,70,0
101490,note_on,90,0,14,,,,,,,,,,11,,74,0
101520,note_on,30,0,14,,,,,,,,,,11,,77,110
101520,note_on,60,0,5,,,,,,,,,,3,,62,50
101520,note_on,60,0,2,,,,,,,,,,0,,62,50
101610,note_on,90,0,14,,,,,,,,,,11,,77,0
101640,note_on,30,0,14,,,,,,,,,,11,,82,110
101640,note_on,120,0,5,,,,,,,,,,3,,62,0
101640,note_on,120,0,2,,,,,,,,,,0,,62,0
101760,note_on,120,0,2,,,,,,,,,,0,,70,50
101760,note_on,120,0,14,,,,,,,,,,11,,77,110
101760,note_on,120,0,5,,,,,,,,,,3,,70,50
101770,note_on,10,0,14,,,,,,,,,,11,,82,0
101870,note_on,100,0,14,,,,,,,,,,11,,77,0
101880,note_on,10,0,14,,,,,,,,,,11,,74,110
101940,note_on,180,0,2,,,,,,,,,,0,,70,0
101940,note_on,180,0,5,,,,,,,,,,3,,70,0
101970,note_on,90,0,14,,,,,,,,,,11,,74,0
102000,note_on,30,0,14,,,,,,,,,,11,,79,110
102000,note_on,60,0,5,,,,,,,,,,3,,63,50
102000,note_on,60,0,2,,,,,,,,,,0,,63,50
102090,note_on,90,0,14,,,,,,,,,,11,,79,0
102120,note_on,120,0,2,,,,,,,,,,0,,63,0
102120,note_on,30,0,14,,,,,,,,,,11,,82,110
102120,note_on,120,0,5,,,,,,,,,,3,,63,0
102240,note_on,120,0,14,,,,,,,,,,11,,79,110
102240,note_on,120,0,2,,,,,,,,,,0,,70,50
102240,note_on,120,0,5,,,,,,,,,,3,,70,50
102250,note_on,10,0,14,,,,,,,,,,11,,82,0
102350,note_on,100,0,14,,,,,,,,,,11,,79,0
102360,note_on,10,0,14,,,,,,,,,,11,,75,110
102420,note_on,180,0,5,,,,,,,,,,3,,70,0
102420,note_on,180,0,2,,,,,,,,,,0,,70,0
102450,note_on,90,0,14,,,,,,,,,,11,,75,0
102480,note_on,30,0,14,,,,,,,,,,11,,79,110
102480,note_on,60,0,2,,,,,,,,,,0,,63,50
102480,note_on,60,0,5,,,,,,,,,,3,,63,50
102570,note_on,90,0,14,,,,,,,,,,11,,79,0
102600,note_on,120,0,2,,,,,,,,,,0,,63,0
102600,note_on,120,0,5,,,,,,,,,,3,,63,0
102600,note_on,30,0,14,,,,,,,,,,11,,82,110
102720,note_on,120,0,5,,,,,,,,,,3,,70,50
102720,note_on,120,0,14,,,,,,,,,,11,,79,110
102720,note_on,120,0,2,,,,,,,,,,0,,70,50
102730,note_on,10,0,14,,,,,,,,,,11,,82,0
102830,note_on,100,0,14,,,,,,,,,,11,,79,0
102840,note_on,10,0,14,,,,,,,,,,11,,75,110
102900,note_on,180,0,5,,,,,,,,,,3,,70,0
102900,note_on,180,0,2,,,,,,,,,,0,,70,0
102930,note_on,90,0,14,,,,,,,,,,11,,75,0
102960,note_on,30,0,14,,,,,,,,,,11,,77,110
102960,note_on,60,0,5,,,,,,,,,,3,,58,50
102960,note_on,60,0,2,,,,,,,,,,0,,58,50
102960,note_on,2720,0,8,,,,,,,,,,6,,58,70
103080,note_on,120,0,8,,,,,,,,,,6,,58,0
103140,note_on,180,0,14,,,,,,,,,,11,,77,0
103200,note_on,240,0,2,,,,,,,,,,0,,58,0
103200,note_on,240,0,5,,,,,,,,,,3,,58,0
103200,note_on,120,0,8,,,,,,,,,,6,,56,70
103200,note_on,60,0,14,,,,,,,,,,11,,70,110
103320,note_on,120,0,14,,,,,,,,,,11,,70,0
103380,note_on,180,0,8,,,,,,,,,,6,,56,0
103440,note_on,60,0,8,,,,,,,,,,6,,55,70
103560,note_on,120,0,8,,,,,,,,,,6,,55,0
103680,note_on,120,0,8,,,,,,,,,,6,,53,70
103860,note_on,180,0,8,,,,,,,,,,6,,53,0
103920,note_on,600,0,14,,,,,,,,,,11,,72,110
103920,note_on,720,0,2,,,,,,,,,,0,,64,50
103920,note_on,60,0,8,,,,,,,,,,6,,52,70
103920,note_on,720,0,5,,,,,,,,,,3,,64,50
104010,note_on,90,0,14,,,,,,,,,,11,,72,0
104040,note_on,30,0,14,,,,,,,,,,11,,76,110
104040,note_on,120,0,2,,,,,,,,,,0,,64,0
104040,note_on,120,0,5,,,,,,,,,,3,,64,0
104080,note_on,160,0,8,,,,,,,,,,6,,52,0
104160,note_on,120,0,14,,,,,,,,,,11,,72,110
104160,note_on,120,0,2,,,,,,,,,,0,,72,50
104160,note_on,120,0,5,,,,,,,,,,3,,72,50
104170,note_on,10,0,14,,,,,,,,,,11,,76,0
104270,note_on,100,0,14,,,,,,,,,,11,,72,0
104280,note_on,10,0,14,,,,,,,,,,11,,67,110
104340,note_on,180,0,2,,,,,,,,,,0,,72,0
104340,note_on,180,0,5,,,,,,,,,,3,,72,0
104370,note_on,90,0,14,,,,,,,,,,11,,67,0
104400,note_on,60,0,5,,,,,,,,,,3,,64,50
104400,note_on,60,0,2,,,,,,,,,,0,,64,50
104400,note_on,30,0,14,,,,,,,,,,11,,72,110
104490,note_on,90,0,14,,,,,,,,,,11,,72,0
104520,note_on,120,0,5,,,,,,,,,,3,,64,0
104520,note_on,120,0,2,,,,,,,,,,0,,64,0
104520,note_on,30,0,14,,,,,,,,,,11,,76,110
104640,note_on,120,0,5,,,,,,,,,,3,,72,50
104640,note_on,120,0,2,,,,,,,,,,0,,72,50
104640,note_on,120,0,14,,,,,,,,,,11,,72,110
104650,note_on,10,0,14,,,,,,,,,,11,,76,0
104750,note_on,100,0,14,,,,,,,,,,11,,72,0
104760,note_on,10,0,14,,,,,,,,,,11,,67,110
104820,note_on,180,0,2,,,,,,,,,,0,,72,0
104820,note_on,180,0,5,,,,,,,,,,3,,72,0
104850,note_on,90,0,14,,,,,,,,,,11,,67,0
104880,note_on,30,0,14,,,,,,,,,,11,,68,110
104880,note_on,60,0,5,,,,,,,,,,3,,65,50
104880,note_on,60,0,2,,,,,,,,,,0,,65,50
104970,note_on,90,0,14,,,,,,,,,,11,,68,0
105000,note_on,30,0,14,,,,,,,,,,11,,72,110
105000,note_on,120,0,5,,,,,,,,,,3,,65,0
105000,note_on,120,0,2,,,,,,,,,,0,,65,0
105120,note_on,120,0,14,,,,,,,,,,11,,68,110
105120,note_on,120,0,2,,,,,,,,,,0,,72,50
105120,note_on,120,0,5,,,,,,,,,,3,,72,50
105130,note_on,10,0,14,,,,,,,,,,11,,72,0
105230,note_on,100,0,14,,,,,,,,,,11,,68,0
105240,note_on,10,0,14,,,,,,,,,,11,,65,110
105300,note_on,180,0,2,,,,,,,,,,0,,72,0
105300,note_on,180,0,5,,,,,,,,,,3,,72,0
105330,note_on,90,0,14,,,,,,,,,,11,,65,0
105360,note_on,30,0,14,,,,,,,,,,11,,68,110
105360,note_on,60,0,2,,,,,,,,,,0,,65,50
105360,note_on,60,0,5,,,,,,,,,,3,,65,50
105450,note_on,90,0,14,,,,,,,,,,11,,68,0
105480,note_on,30,0,14,,,,,,,,,,11,,72,110
105480,note_on,120,0,5,,,,,,,,,,3,,65,0
105480,note_on,120,0,2,,,,,,,,,,0,,65,0
105600,note_on,120,0,2,,,,,,,,,,0,,72,50
105600,note_on,120,0,5,,,,,,,,,,3,,72,50
105600,note_on,120,0,14,,,,,,,,,,11,,68,110
105610,note_on,10,0,14,,,,,,,,,,11,,72,0
105710,note_on,100,0,14,,,,,,,,,,11,,68,0
105720,note_on,10,0,14,,,,,,,,,,11,,65,110
105780,note_on,180,0,2,,,,,,,,,,0,,72,0
105780,note_on,180,0,5,,,,,,,,,,3,,72,0
105810,note_on,90,0,14,,,,,,,,,,11,,65,0
105840,note_on,30,0,14,,,,,,,,,,11,,70,110
105840,note_on,60,0,2,,,,,,,,,,0,,62,50
105840,note_on,60,0,5,,,,,,,,,,3,,62,50
105930,note_on,90,0,14,,,,,,,,,,11,,70,0
105960,note_on,30,0,14,,,,,,,,,,11,,74,110
105960,note_on,120,0,5,,,,,,,,,,3,,62,0
105960,note_on,120,0,2,,,,,,,,,,0,,62,0
106080,note_on,120,0,5,,,,,,,,,,3,,70,50
106080,note_on,120,0,14,,,,,,,,,,11,,70,110
106080,note_on,120,0,2,,,,,,,,,,0,,70,50
106090,note_on,10,0,14,,,,,,,,,,11,,74,0
106190,note_on,100,0,14,,,,,,,,,,11,,70,0
106200,note_on,10,0,14,,,,,,,,,,11,,65,110
106260,note_on,180,0,5,,,,,,,,,,3,,70,0
106260,note_on,180,0,2,,,,,,,,,,0,,70,0
106290,note_on,90,0,14,,,,,,,,,,11,,65,0
106320,note_on,60,0,2,,,,,,,,,,0,,62,50
106320,note_on,60,0,5,,,,,,,,,,3,,62,50
106320,note_on,30,0,14,,,,,,,,,,11,,70,110
106410,note_on,90,0,14,,,,,,,,,,11,,70,0
106440,note_on,120,0,2,,,,,,,,,,0,,62,0
106440,note_on,30,0,14,,,,,,,,,,11,,74,110
106440,note_on,120,0,5,,,,,,,,,,3,,62,0
106560,note_on,120,0,14,,,,,,,,,,11,,70,110
106560,note_on,120,0,5,,,,,,,,,,3,,70,50
106560,note_on,120,0,2,,,,,,,,,,0,,70,50
106570,note_on,10,0,14,,,,,,,,,,11,,74,0
106670,note_on,100,0,14,,,,,,,,,,11,,70,0
106680,note_on,10,0,14,,,,,,,,,,11,,65,110
106740,note_on,180,0,5,,,,,,,,,,3,,70,0
106740,note_on,180,0,2,,,,,,,,,,0,,70,0
106770,note_on,90,0,14,,,,,,,,,,11,,65,0
106800,note_on,30,0,14,,,,,,,,,,11,,67,110
106800,note_on,60,0,5,,,,,,,,,,3,,63,50
106800,note_on,60,0,2,,,,,,,,,,0,,63,50
106890,note_on,90,0,14,,,,,,,,,,11,,67,0
106920,note_on,30,0,14,,,,,,,,,,11,,70,110
106920,note_on,120,0,5,,,,,,,,,,3,,63,0
106920,note_on,120,0,2,,,,,,,,,,0,,63,0
107040,note_on,120,0,14,,,,,,,,,,11,,67,110
107040,note_on,120,0,5,,,,,,,,,,3,,70,50
107040,note_on,120,0,2,,,,,,,,,,0,,70,50
107050,note_on,10,0,14,,,,,,,,,,11,,70,0
107150,note_on,100,0,14,,,,,,,,,,11,,67,0
107160,note_on,10,0,14,,,,,,,,,,11,,63,110
107220,note_on,180,0,2,,,,,,,,,,0,,70,0
107220,note_on,180,0,5,,,,,,,,,,3,,70,0
107250,note_on,90,0,14,,,,,,,,,,11,,63,0
107280,note_on,30,0,14,,,,,,,,,,11,,67,110
107280,note_on,60,0,5,,,,,,,,,,3,,63,50
107280,note_on,60,0,2,,,,,,,,,,0,,63,50
107370,note_on,90,0,14,,,,,,,,,,11,,67,0
107400,note_on,120,0,2,,,,,,,,,,0,,63,0
107400,note_on,30,0,14,,,,,,,,,,11,,70,110
107400,note_on,120,0,5,,,,,,,,,,3,,63,0
107520,note_on,120,0,14,,,,,,,,,,11,,67,110
107520,note_on,120,0,2,,,,,,,,,,0,,70,50
107520,note_on,120,0,5,,,,,,,,,,3,,70,50
107530,note_on,10,0,14,,,,,,,,,,11,,70,0
107630,note_on,100,0,14,,,,,,,,,,11,,67,0
107640,note_on,10,0,14,,,,,,,,,,11,,63,110
107700,note_on,180,0,2,,,,,,,,,,0,,70,0
107700,note_on,180,0,5,,,,,,,,,,3,,70,0
107730,note_on,90,0,14,,,,,,,,,,11,,63,0
107760,note_on,30,0,14,,,,,,,,,,11,,72,110
107760,note_on,60,0,2,,,,,,,,,,0,,63,50
107760,note_on,60,0,5,,,,,,,,,,3,,63,50
107850,note_on,90,0,14,,,,,,,,,,11,,72,0
107880,note_on,30,0,14,,,,,,,,,,11,,75,110
107880,note_on,120,0,5,,,,,,,,,,3,,63,0
107880,note_on,120,0,2,,,,,,,,,,0,,63,0
108000,note_on,120,0,2,,,,,,,,,,0,,72,50
108000,note_on,120,0,5,,,,,,,,,,3,,72,50
108000,note_on,120,0,14,,,,,,,,,,11,,72,110
108010,note_on,10,0,14,,,,,,,,,,11,,75,0
108110,note_on,100,0,14,,,,,,,,,,11,,72,0
108120,note_on,10,0,14,,,,,,,,,,11,,67,110
108180,note_on,180,0,2,,,,,,,,,,0,,72,0
108180,note_on,180,0,5,,,,,,,,,,3,,72,0
108210,note_on,90,0,14,,,,,,,,,,11,,67,0
108240,note_on,60,0,5,,,,,,,,,,3,,63,50
108240,note_on,30,0,14,,,,,,,,,,11,,72,110
108240,note_on,60,0,2,,,,,,,,,,0,,63,50
108330,note_on,90,0,14,,,,,,,,,,11,,72,0
108360,note_on,30,0,14,,,,,,,,,,11,,75,110
108360,note_on,120,0,2,,,,,,,,,,0,,63,0
108360,note_on,120,0,5,,,,,,,,,,3,,63,0
108480,note_on,120,0,2,,,,,,,,,,0,,72,50
108480,note_on,120,0,5,,,,,,,,,,3,,72,50
108480,note_on,120,0,14,,,,,,,,,,11,,72,110
108490,note_on,10,0,14,,,,,,,,,,11,,75,0
108590,note_on,100,0,14,,,,,,,,,,11,,72,0
108600,note_on,10,0,14,,,,,,,,,,11,,67,110
108660,note_on,180,0,5,,,,,,,,,,3,,72,0
108660,note_on,180,0,2,,,,,,,,,,0,,72,0
108690,note_on,90,0,14,,,,,,,,,,11,,67,0
108720,note_on,60,0,5,,,,,,,,,,3,,62,50
108720,note_on,60,0,2,,,,,,,,,,0,,62,50
108720,note_on,30,0,14,,,,,,,,,,11,,66,110
108840,note_on,120,0,2,,,,,,,,,,0,,62,0
108840,note_on,120,0,5,,,,,,,,,,3,,62,0
108960,note_on,120,0,2,,,,,,,,,,0,,72,50
108960,note_on,120,0,5,,,,,,,,,,3,,72,50
109080,note_on,360,0,14,,,,,,,,,,11,,66,0
109140,note_on,180,0,2,,,,,,,,,,0,,72,0
109140,note_on,180,0,5,,,,,,,,,,3,,72,0
109200,note_on,60,0,5,,,,,,,,,,3,,62,50
109200,note_on,60,0,2,,,,,,,,,,0,,62,50
109320,note_on,120,0,5,,,,,,,,,,3,,62,0
109320,note_on,240,0,14,,,,,,,,,,11,,62,110
109320,note_on,120,0,2,,,,,,,,,,0,,62,0
109440,note_on,120,0,2,,,,,,,,,,0,,72,50
109440,note_on,120,0,5,,,,,,,,,,3,,72,50
109440,note_on,120,0,14,,,,,,,,,,11,,66,110
109450,note_on,10,0,14,,,,,,,,,,11,,62,0
109550,note_on,100,0,14,,,,,,,,,,11,,66,0
109560,note_on,10,0,14,,,,,,,,,,11,,67,110
109620,note_on,180,0,2,,,,,,,,,,0,,72,0
109620,note_on,180,0,5,,,,,,,,,,3,,72,0
109650,note_on,90,0,14,,,,,,,,,,11,,67,0
109680,note_on,60,0,5,,,,,,,,,,3,,62,50
109680,note_on,30,0,14,,,,,,,,,,11,,69,110
109680,note_on,60,0,2,,,,,,,,,,0,,62,50
109800,note_on,120,0,2,,,,,,,,,,0,,62,0
109800,note_on,120,0,5,,,,,,,,,,3,,62,0
109920,note_on,120,0,2,,,,,,,,,,0,,72,50
109920,note_on,120,0,5,,,,,,,,,,3,,72,50
110100,note_on,180,0,2,,,,,,,,,,0,,72,0
110100,note_on,180,0,5,,,,,,,,,,3,,72,0
110160,note_on,60,0,2,,,,,,,,,,0,,62,50
110160,note_on,60,0,5,,,,,,,,,,3,,62,50
110250,note_on,570,0,14,,,,,,,,,,11,,69,0
110280,note_on,120,0,5,,,,,,,,,,3,,62,0
110280,note_on,30,0,14,,,,,,,,,,11,,66,110
110280,note_on,120,0,2,,,,,,,,,,0,,62,0
110400,note_on,120,0,14,,,,,,,,,,11,,69,110
110400,note_on,120,0,5,,,,,,,,,,3,,72,50
110400,note_on,120,0,2,,,,,,,,,,0,,72,50
110410,note_on,10,0,14,,,,,,,,,,11,,66,0
110510,note_on,100,0,14,,,,,,,,,,11,,69,0
110520,note_on,10,0,14,,,,,,,,,,11,,70,110
110580,note_on,180,0,5,,,,,,,,,,3,,72,0
110580,note_on,180,0,2,,,,,,,,,,0,,72,0
110610,note_on,90,0,14,,,,,,,,,,11,,70,0
110640,note_on,30,0,14,,,,,,,,,,11,,72,110
110640,note_on,60,0,5,,,,,,,,,,3,,62,50
110640,note_on,60,0,2,,,,,,,,,,0,,62,50
110760,note_on,120,0,2,,,,,,,,,,0,,62,0
110760,note_on,120,0,5,,,,,,,,,,3,,62,0
110880,note_on,120,0,2,,,,,,,,,,0,,72,50
110880,note_on,120,0,5,,,,,,,,,,3,,72,50
111060,note_on,180,0,5,,,,,,,,,,3,,72,0
111060,note_on,180,0,2,,,,,,,,,,0,,72,0
111120,note_on,60,0,2,,,,,,,,,,0,,62,50
111120,note_on,60,0,5,,,,,,,,,,3,,62,50
111210,note_on,570,0,14,,,,,,,,,,11,,72,0
111240,note_on,30,0,14,,,,,,,,,,11,,69,110
111240,note_on,120,0,5,,,,,,,,,,3,,62,0
111240,note_on,120,0,2,,,,,,,,,,0,,62,0
111360,note_on,120,0,5,,,,,,,,,,3,,72,50
111360,note_on,120,0,2,,,,,,,,,,0,,72,50
111360,note_on,120,0,14,,,,,,,,,,11,,72,110
111370,note_on,10,0,14,,,,,,,,,,11,,69,0
111470,note_on,100,0,14,,,,,,,,,,11,,72,0
111480,note_on,10,0,14,,,,,,,,,,11,,78,110
111540,note_on,180,0,2,,,,,,,,,,0,,72,0
111540,note_on,180,0,5,,,,,,,,,,3,,72,0
111570,note_on,90,0,14,,,,,,,,,,11,,78,0
111600,note_on,60,0,2,,,,,,,,,,0,,70,50
111600,note_on,60,0,5,,,,,,,,,,3,,70,50
111600,note_on,30,0,14,,,,,,,,,,11,,79,110
111720,note_on,120,0,5,,,,,,,,,,3,,70,0
111720,note_on,120,0,2,,,,,,,,,,0,,70,0
111780,note_on,180,0,14,,,,,,,,,,11,,79,0
111840,note_on,60,0,14,,,,,,,,,,11,,77,110
111840,note_on,120,0,2,,,,,,,,,,0,,72,50
111840,note_on,120,0,5,,,,,,,,,,3,,72,50
111950,note_on,110,0,14,,,,,,,,,,11,,77,0
111960,note_on,10,0,14,,,,,,,,,,11,,75,110
112020,note_on,180,0,2,,,,,,,,,,0,,72,0
112020,note_on,180,0,5,,,,,,,,,,3,,72,0
112050,note_on,90,0,14,,,,,,,,,,11,,75,0
112080,note_on,60,0,2,,,,,,,,,,0,,66,50
112080,note_on,30,0,14,,,,,,,,,,11,,74,110
112080,note_on,60,0,5,,,,,,,,,,3,,66,50
112200,note_on,120,0,2,,,,,,,,,,0,,66,0
112200,note_on,120,0,5,,,,,,,,,,3,,66,0
112260,note_on,180,0,14,,,,,,,,,,11,,74,0
112320,note_on,60,0,14,,,,,,,,,,11,,72,110
112320,note_on,120,0,2,,,,,,,,,,0,,62,50
112320,note_on,120,0,5,,,,,,,,,,3,,62,50
112440,note_on,120,0,14,,,,,,,,,,11,,72,0
112500,note_on,180,0,2,,,,,,,,,,0,,62,0
112500,note_on,180,0,5,,,,,,,,,,3,,62,0
112560,note_on,60,0,2,,,,,,,,,,0,,67,50
112560,note_on,60,0,5,,,,,,,,,,3,,67,50
112560,note_on,120,0,14,,,,,,,,,,11,,70,110
112680,note_on,120,0,5,,,,,,,,,,3,,67,0
112680,note_on,120,0,2,,,,,,,,,,0,,67,0
112740,note_on,180,0,14,,,,,,,,,,11,,70,0
112800,note_on,60,0,14,,,,,,,,,,11,,79,110
112800,note_on,120,0,2,,,,,,,,,,0,,58,50
112800,note_on,120,0,5,,,,,,,,,,3,,58,50
112920,note_on,120,0,14,,,,,,,,,,11,,79,0
112980,note_on,180,0,2,,,,,,,,,,0,,58,0
112980,note_on,180,0,5,,,,,,,,,,3,,58,0
113040,note_on,60,0,5,,,,,,,,,,3,,60,50
113040,note_on,120,0,14,,,,,,,,,,11,,69,110
113040,note_on,60,0,2,,,,,,,,,,0,,60,50
113160,note_on,120,0,5,,,,,,,,,,3,,60,0
113160,note_on,120,0,2,,,,,,,,,,0,,60,0
113220,note_on,180,0,14,,,,,,,,,,11,,69,0
113280,note_on,120,0,5,,,,,,,,,,3,,62,90
113280,note_on,120,0,2,,,,,,,,,,0,,62,90
113280,note_on,60,0,14,,,,,,,,,,11,,78,110
113280,note_on,16920,0,4,,,,,,,,,,2,,62,90
113400,note_on,120,0,14,,,,,,,,,,11,,78,0
113460,note_on,180,0,4,,,,,,,,,,2,,62,0
113460,note_on,180,0,2,,,,,,,,,,0,,62,0
113460,note_on,180,0,5,,,,,,,,,,3,,62,0
113520,note_on,60,0,5,,,,,,,,,,3,,70,90
113520,note_on,17120,0,9,,,,,,,,,,7,,43,90
113520,note_on,17120,0,11,,,,,,,,,,8,,31,90
113520,note_on,17120,0,6,,,,,,,,,,4,,67,90
113520,note_on,120,0,14,,,,,,,,,,11,,79,110
113520,note_on,17120,0,7,,,,,,,,,,5,,67,90
113520,note_on,60,0,4,,,,,,,,,,2,,70,90
113520,note_on,17160,0,3,,,,,,,,,,1,,55,90
113520,note_on,60,0,2,,,,,,,,,,0,,55,90
113520,note_on,9440,0,8,,,,,,,,,,6,,43,90
113610,note_on,90,0,5,,,,,,,,,,3,,70,0
113610,note_on,90,0,7,,,,,,,,,,5,,67,0
113610,note_on,90,0,6,,,,,,,,,,4,,67,0
113610,note_on,90,0,4,,,,,,,,,,2,,70,0
113640,note_on,120,0,3,,,,,,,,,,1,,55,0
113640,note_on,30,0,6,,,,,,,,,,4,,66,90
113640,note_on,30,0,4,,,,,,,,,,2,,69,90
113640,note_on,120,0,2,,,,,,,,,,0,,55,0
113640,note_on,30,0,7,,,,,,,,,,5,,66,90
113640,note_on,30,0,5,,,,,,,,,,3,,69,90
113760,note_on,120,0,7,,,,,,,,,,5,,67,90
113760,note_on,120,0,2,,,,,,,,,,0,,67,90
113760,note_on,120,0,5,,,,,,,,,,3,,70,90
113760,note_on,240,0,8,,,,,,,,,,6,,43,0
113760,note_on,240,0,11,,,,,,,,,,8,,31,0
113760,note_on,120,0,6,,,,,,,,,,4,,67,90
113760,note_on,120,0,3,,,,,,,,,,1,,67,90
113760,note_on,120,0,4,,,,,,,,,,2,,70,90
113760,note_on,240,0,9,,,,,,,,,,7,,43,0
113770,note_on,10,0,4,,,,,,,,,,2,,69,0
113770,note_on,10,0,7,,,,,,,,,,5,,66,0
113770,note_on,10,0,6,,,,,,,,,,4,,66,0
113770,note_on,10,0,5,,,,,,,,,,3,,69,0
113870,note_on,100,0,7,,,,,,,,,,5,,67,0
113870,note_on,100,0,6,,,,,,,,,,4,,67,0
113870,note_on,100,0,4,,,,,,,,,,2,,70,0
113870,note_on,100,0,5,,,,,,,,,,3,,70,0
113880,note_on,360,0,14,,,,,,,,,,11,,79,0
113880,note_on,10,0,5,,,,,,,,,,3,,72,90
113880,note_on,10,0,7,,,,,,,,,,5,,69,90
113880,note_on,10,0,4,,,,,,,,,,2,,72,90
113880,note_on,10,0,6,,,,,,,,,,4,,69,90
113940,note_on,180,0,2,,,,,,,,,,0,,67,0
113940,note_on,180,0,3,,,,,,,,,,1,,67,0
113970,note_on,90,0,7,,,,,,,,,,5,,69,0
113970,note_on,90,0,4,,,,,,,,,,2,,72,0
113970,note_on,90,0,5,,,,,,,,,,3,,72,0
113970,note_on,90,0,6,,,,,,,,,,4,,69,0
114000,note_on,240,0,11,,,,,,,,,,8,,43,90
114000,note_on,30,0,7,,,,,,,,,,5,,70,90
114000,note_on,240,0,8,,,,,,,,,,6,,55,90
114000,note_on,30,0,6,,,,,,,,,,4,,70,90
114000,note_on,30,0,5,,,,,,,,,,3,,74,90
114000,note_on,30,0,4,,,,,,,,,,2,,74,90
114000,note_on,60,0,2,,,,,,,,,,0,,58,90
114000,note_on,240,0,9,,,,,,,,,,7,,55,90
114000,note_on,60,0,3,,,,,,,,,,1,,58,90
114120,note_on,120,0,7,,,,,,,,,,5,,70,0
114120,note_on,120,0,4,,,,,,,,,,2,,74,0
114120,note_on,120,0,9,,,,,,,,,,7,,55,0
114120,note_on,120,0,8,,,,,,,,,,6,,55,0
114120,note_on,120,0,6,,,,,,,,,,4,,70,0
114120,note_on,120,0,2,,,,,,,,,,0,,58,0
114120,note_on,120,0,3,,,,,,,,,,1,,58,0
114120,note_on,120,0,11,,,,,,,,,,8,,43,0
114120,note_on,120,0,5,,,,,,,,,,3,,74,0
114240,note_on,120,0,7,,,,,,,,,,5,,58,90
114240,note_on,120,0,9,,,,,,,,,,7,,43,90
114240,note_on,120,0,2,,,,,,,,,,0,,67,90
114240,note_on,120,0,5,,,,,,,,,,3,,62,90
114240,note_on,120,0,8,,,,,,,,,,6,,43,90
114240,note_on,120,0,11,,,,,,,,,,8,,31,90
114240,note_on,360,0,14,,,,,,,,,,11,,67,90
114240,note_on,120,0,6,,,,,,,,,,4,,58,90
114240,note_on,120,0,4,,,,,,,,,,2,,62,90
114240,note_on,120,0,3,,,,,,,,,,1,,67,90
114420,note_on,180,0,5,,,,,,,,,,3,,62,0
114420,note_on,180,0,9,,,,,,,,,,7,,43,0
114420,note_on,180,0,11,,,,,,,,,,8,,31,0
114420,note_on,180,0,8,,,,,,,,,,6,,43,0
114420,note_on,180,0,2,,,,,,,,,,0,,67,0
114420,note_on,180,0,3,,,,,,,,,,1,,67,0
114420,note_on,180,0,4,,,,,,,,,,2,,62,0
114420,note_on,180,0,14,,,,,,,,,,11,,67,0
114420,note_on,180,0,6,,,,,,,,,,4,,58,0
114420,note_on,180,0,7,,,,,,,,,,5,,58,0
114480,note_on,60,0,2,,,,,,,,,,0,,72,90
114480,note_on,60,0,14,,,,,,,,,,11,,72,90
114480,note_on,60,0,4,,,,,,,,,,2,,69,90
114480,note_on,60,0,3,,,,,,,,,,1,,72,90
114480,note_on,60,0,5,,,,,,,,,,3,,69,90
114720,note_on,240,0,4,,,,,,,,,,2,,69,0
114720,note_on,240,0,5,,,,,,,,,,3,,69,0
114840,note_on,360,0,3,,,,,,,,,,1,,72,0
114840,note_on,360,0,14,,,,,,,,,,11,,72,0
114840,note_on,360,0,2,,,,,,,,,,0,,72,0
114960,note_on,240,0,5,,,,,,,,,,3,,67,90
114960,note_on,120,0,3,,,,,,,,,,1,,70,90
114960,note_on,120,0,14,,,,,,,,,,11,,70,90
114960,note_on,540,0,8,,,,,,,,,,6,,55,90
114960,note_on,120,0,2,,,,,,,,,,0,,70,90
114960,note_on,540,0,11,,,,,,,,,,8,,43,90
114960,note_on,240,0,4,,,,,,,,,,2,,67,90
114960,note_on,540,0,9,,,,,,,,,,7,,55,90
115080,note_on,120,0,9,,,,,,,,,,7,,55,0
115080,note_on,120,0,8,,,,,,,,,,6,,55,0
115080,note_on,120,0,11,,,,,,,,,,8,,43,0
115140,note_on,180,0,3,,,,,,,,,,1,,70,0
115140,note_on,180,0,14,,,,,,,,,,11,,70,0
115140,note_on,180,0,2,,,,,,,,,,0,,70,0
115200,note_on,60,0,14,,,,,,,,,,11,,67,90
115200,note_on,60,0,2,,,,,,,,,,0,,67,90
115200,note_on,60,0,3,,,,,,,,,,1,,67,90
115200,note_on,120,0,9,,,,,,,,,,7,,43,90
115200,note_on,120,0,8,,,,,,,,,,6,,43,90
115200,note_on,120,0,11,,,,,,,,,,8,,31,90
115320,note_on,120,0,2,,,,,,,,,,0,,67,0
115320,note_on,120,0,3,,,,,,,,,,1,,67,0
115320,note_on,360,0,4,,,,,,,,,,2,,67,0
115320,note_on,360,0,5,,,,,,,,,,3,,67,0
115320,note_on,120,0,14,,,,,,,,,,11,,67,0
115380,note_on,180,0,8,,,,,,,,,,6,,43,0
115380,note_on,180,0,11,,,,,,,,,,8,,31,0
115380,note_on,180,0,9,,,,,,,,,,7,,43,0
115440,note_on,120,0,5,,,,,,,,,,3,,70,90
115440,note_on,120,0,2,,,,,,,,,,0,,62,90
115440,note_on,120,0,3,,,,,,,,,,1,,62,90
115440,note_on,120,0,4,,,,,,,,,,2,,70,90
115440,note_on,1020,0,7,,,,,,,,,,5,,67,90
115440,note_on,120,0,14,,,,,,,,,,11,,62,90
115440,note_on,1020,0,6,,,,,,,,,,4,,67,90
115530,note_on,90,0,5,,,,,,,,,,3,,70,0
115530,note_on,90,0,6,,,,,,,,,,4,,67,0
115530,note_on,90,0,7,,,,,,,,,,5,,67,0
115530,note_on,90,0,4,,,,,,,,,,2,,70,0
115560,note_on,120,0,3,,,,,,,,,,1,,62,0
115560,note_on,30,0,6,,,,,,,,,,4,,66,90
115560,note_on,120,0,2,,,,,,,,,,0,,62,0
115560,note_on,30,0,4,,,,,,,,,,2,,69,90
115560,note_on,120,0,14,,,,,,,,,,11,,62,0
115560,note_on,30,0,5,,,,,,,,,,3,,69,90
115560,note_on,30,0,7,,,,,,,,,,5,,66,90
115680,note_on,120,0,4,,,,,,,,,,2,,70,90
115680,note_on,120,0,5,,,,,,,,,,3,,70,90
115680,note_on,120,0,14,,,,,,,,,,11,,67,90
115680,note_on,120,0,2,,,,,,,,,,0,,67,90
115680,note_on,120,0,6,,,,,,,,,,4,,67,90
115680,note_on,120,0,7,,,,,,,,,,5,,67,90
115680,note_on,120,0,3,,,,,,,,,,1,,67,90
115690,note_on,10,0,7,,,,,,,,,,5,,66,0
115690,note_on,10,0,5,,,,,,,,,,3,,69,0
115690,note_on,10,0,4,,,,,,,,,,2,,69,0
115690,note_on,10,0,6,,,,,,,,,,4,,66,0
115790,note_on,100,0,5,,,,,,,,,,3,,70,0
115790,note_on,100,0,4,,,,,,,,,,2,,70,0
115790,note_on,100,0,7,,,,,,,,,,5,,67,0
115790,note_on,100,0,6,,,,,,,,,,4,,67,0
115800,note_on,10,0,7,,,,,,,,,,5,,69,90
115800,note_on,10,0,4,,,,,,,,,,2,,72,90
115800,note_on,10,0,6,,,,,,,,,,4,,69,90
115800,note_on,10,0,5,,,,,,,,,,3,,72,90
115860,note_on,180,0,3,,,,,,,,,,1,,67,0
115860,note_on,180,0,14,,,,,,,,,,11,,67,0
115860,note_on,180,0,2,,,,,,,,,,0,,67,0
115890,note_on,90,0,5,,,,,,,,,,3,,72,0
115890,note_on,90,0,7,,,,,,,,,,5,,69,0
115890,note_on,90,0,6,,,,,,,,,,4,,69,0
115890,note_on,90,0,4,,,,,,,,,,2,,72,0
115920,note_on,30,0,4,,,,,,,,,,2,,74,90
115920,note_on,30,0,5,,,,,,,,,,3,,74,90
115920,note_on,60,0,14,,,,,,,,,,11,,58,90
115920,note_on,30,0,6,,,,,,,,,,4,,70,90
115920,note_on,60,0,3,,,,,,,,,,1,,58,90
115920,note_on,540,0,11,,,,,,,,,,8,,43,90
115920,note_on,540,0,9,,,,,,,,,,7,,55,90
115920,note_on,30,0,7,,,,,,,,,,5,,70,90
115920,note_on,60,0,2,,,,,,,,,,0,,58,90
115920,note_on,540,0,8,,,,,,,,,,6,,55,90
116040,note_on,120,0,2,,,,,,,,,,0,,58,0
116040,note_on,120,0,5,,,,,,,,,,3,,74,0
116040,note_on,120,0,7,,,,,,,,,,5,,70,0
116040,note_on,120,0,14,,,,,,,,,,11,,58,0
116040,note_on,120,0,8,,,,,,,,,,6,,55,0
116040,note_on,120,0,3,,,,,,,,,,1,,58,0
116040,note_on,120,0,9,,,,,,,,,,7,,55,0
116040,note_on,120,0,4,,,,,,,,,,2,,74,0
116040,note_on,120,0,6,,,,,,,,,,4,,70,0
116040,note_on,120,0,11,,,,,,,,,,8,,43,0
116160,note_on,120,0,2,,,,,,,,,,0,,67,90
116160,note_on,120,0,14,,,,,,,,,,11,,67,90
116160,note_on,120,0,6,,,,,,,,,,4,,58,90
116160,note_on,120,0,3,,,,,,,,,,1,,67,90
116160,note_on,120,0,5,,,,,,,,,,3,,62,90
116160,note_on,120,0,8,,,,,,,,,,6,,43,90
116160,note_on,120,0,4,,,,,,,,,,2,,62,90
116160,note_on,120,0,9,,,,,,,,,,7,,43,90
116160,note_on,120,0,7,,,,,,,,,,5,,58,90
116160,note_on,120,0,11,,,,,,,,,,8,,31,90
116340,note_on,180,0,8,,,,,,,,,,6,,43,0
116340,note_on,180,0,14,,,,,,,,,,11,,67,0
116340,note_on,180,0,4,,,,,,,,,,2,,62,0
116340,note_on,180,0,5,,,,,,,,,,3,,62,0
116340,note_on,180,0,11,,,,,,,,,,8,,31,0
116340,note_on,180,0,7,,,,,,,,,,5,,58,0
116340,note_on,180,0,3,,,,,,,,,,1,,67,0
116340,note_on,180,0,9,,,,,,,,,,7,,43,0
116340,note_on,180,0,2,,,,,,,,,,0,,67,0
116340,note_on,180,0,6,,,,,,,,,,4,,58,0
116400,note_on,60,0,3,,,,,,,,,,1,,75,90
116400,note_on,60,0,5,,,,,,,,,,3,,72,90
116400,note_on,60,0,14,,,,,,,,,,11,,75,90
116400,note_on,60,0,4,,,,,,,,,,2,,72,90
116400,note_on,60,0,2,,,,,,,,,,0,,75,90
116640,note_on,240,0,2,,,,,,,,,,0,,75,0
116640,note_on,240,0,14,,,,,,,,,,11,,75,0
116640,note_on,240,0,3,,,,,,,,,,1,,75,0
116640,note_on,240,0,5,,,,,,,,,,3,,72,0
116640,note_on,240,0,4,,,,,,,,,,2,,72,0
116880,note_on,240,0,3,,,,,,,,,,1,,74,90
116880,note_on,240,0,5,,,,,,,,,,3,,70,90
116880,note_on,240,0,14,,,,,,,,,,11,,74,90
116880,note_on,540,0,9,,,,,,,,,,7,,55,90
116880,note_on,540,0,8,,,,,,,,,,6,,55,90
116880,note_on,540,0,11,,,,,,,,,,8,,43,90
116880,note_on,240,0,2,,,,,,,,,,0,,74,90
116880,note_on,240,0,4,,,,,,,,,,2,,70,90
117000,note_on,120,0,9,,,,,,,,,,7,,55,0
117000,note_on,120,0,11,,,,,,,,,,8,,43,0
117000,note_on,120,0,8,,,,,,,,,,6,,55,0
117060,note_on,180,0,3,,,,,,,,,,1,,74,0
117060,note_on,180,0,2,,,,,,,,,,0,,74,0
117060,note_on,180,0,14,,,,,,,,,,11,,74,0
117120,note_on,60,0,14,,,,,,,,,,11,,67,90
117120,note_on,60,0,3,,,,,,,,,,1,,67,90
117120,note_on,60,0,2,,,,,,,,,,0,,67,90
117120,note_on,120,0,8,,,,,,,,,,6,,43,90
117120,note_on,120,0,9,,,,,,,,,,7,,43,90
117120,note_on,120,0,11,,,,,,,,,,8,,31,90
117240,note_on,360,0,4,,,,,,,,,,2,,70,0
117240,note_on,360,0,5,,,,,,,,,,3,,70,0
117240,note_on,120,0,3,,,,,,,,,,1,,67,0
117240,note_on,120,0,14,,,,,,,,,,11,,67,0
117240,note_on,120,0,2,,,,,,,,,,0,,67,0
117300,note_on,180,0,11,,,,,,,,,,8,,31,0
117300,note_on,180,0,8,,,,,,,,,,6,,43,0
117300,note_on,180,0,9,,,,,,,,,,7,,43,0
117360,note_on,120,0,3,,,,,,,,,,1,,62,90
117360,note_on,120,0,5,,,,,,,,,,3,,70,90
117360,note_on,1020,0,7,,,,,,,,,,5,,67,90
117360,note_on,120,0,2,,,,,,,,,,0,,62,90
117360,note_on,120,0,14,,,,,,,,,,11,,62,90
117360,note_on,1020,0,6,,,,,,,,,,4,,67,90
117360,note_on,120,0,4,,,,,,,,,,2,,70,90
117450,note_on,90,0,6,,,,,,,,,,4,,67,0
117450,note_on,90,0,5,,,,,,,,,,3,,70,0
117450,note_on,90,0,4,,,,,,,,,,2,,70,0
117450,note_on,90,0,7,,,,,,,,,,5,,67,0
117480,note_on,120,0,14,,,,,,,,,,11,,62,0
117480,note_on,120,0,2,,,,,,,,,,0,,62,0
117480,note_on,30,0,6,,,,,,,,,,4,,66,90
117480,note_on,120,0,3,,,,,,,,,,1,,62,0
117480,note_on,30,0,5,,,,,,,,,,3,,69,90
117480,note_on,30,0,4,,,,,,,,,,2,,69,90
117480,note_on,30,0,7,,,,,,,,,,5,,66,90
117600,note_on,120,0,7,,,,,,,,,,5,,67,90
117600,note_on,120,0,3,,,,,,,,,,1,,67,90
117600,note_on,120,0,14,,,,,,,,,,11,,67,90
117600,note_on,120,0,2,,,,,,,,,,0,,67,90
117600,note_on,120,0,5,,,,,,,,,,3,,70,90
117600,note_on,120,0,4,,,,,,,,,,2,,70,90
117600,note_on,120,0,6,,,,,,,,,,4,,67,90
117610,note_on,10,0,4,,,,,,,,,,2,,69,0
117610,note_on,10,0,5,,,,,,,,,,3,,69,0
117610,note_on,10,0,7,,,,,,,,,,5,,66,0
117610,note_on,10,0,6,,,,,,,,,,4,,66,0
117710,note_on,100,0,7,,,,,,,,,,5,,67,0
117710,note_on,100,0,5,,,,,,,,,,3,,70,0
117710,note_on,100,0,4,,,,,,,,,,2,,70,0
117710,note_on,100,0,6,,,,,,,,,,4,,67,0
117720,note_on,10,0,5,,,,,,,,,,3,,72,90
117720,note_on,10,0,6,,,,,,,,,,4,,69,90
117720,note_on,10,0,7,,,,,,,,,,5,,69,90
117720,note_on,10,0,4,,,,,,,,,,2,,72,90
117780,note_on,180,0,3,,,,,,,,,,1,,67,0
117780,note_on,180,0,14,,,,,,,,,,11,,67,0
117780,note_on,180,0,2,,,,,,,,,,0,,67,0
117810,note_on,90,0,6,,,,,,,,,,4,,69,0
117810,note_on,90,0,7,,,,,,,,,,5,,69,0
117810,note_on,90,0,4,,,,,,,,,,2,,72,0
117810,note_on,90,0,5,,,,,,,,,,3,,72,0
117840,note_on,30,0,7,,,,,,,,,,5,,70,90
117840,note_on,540,0,11,,,,,,,,,,8,,43,90
117840,note_on,60,0,3,,,,,,,,,,1,,58,90
117840,note_on,30,0,6,,,,,,,,,,4,,70,90
117840,note_on,60,0,14,,,,,,,,,,11,,58,90
117840,note_on,30,0,4,,,,,,,,,,2,,74,90
117840,note_on,60,0,2,,,,,,,,,,0,,58,90
117840,note_on,540,0,8,,,,,,,,,,6,,55,90
117840,note_on,30,0,5,,,,,,,,,,3,,74,90
117840,note_on,540,0,9,,,,,,,,,,7,,55,90
117960,note_on,120,0,14,,,,,,,,,,11,,58,0
117960,note_on,120,0,3,,,,,,,,,,1,,58,0
117960,note_on,120,0,6,,,,,,,,,,4,,70,0
117960,note_on,120,0,8,,,,,,,,,,6,,55,0
117960,note_on,120,0,4,,,,,,,,,,2,,74,0
117960,note_on,120,0,5,,,,,,,,,,3,,74,0
117960,note_on,120,0,9,,,,,,,,,,7,,55,0
117960,note_on,120,0,7,,,,,,,,,,5,,70,0
117960,note_on,120,0,11,,,,,,,,,,8,,43,0
117960,note_on,120,0,2,,,,,,,,,,0,,58,0
118080,note_on,120,0,8,,,,,,,,,,6,,43,90
118080,note_on,120,0,3,,,,,,,,,,1,,67,90
118080,note_on,120,0,14,,,,,,,,,,11,,67,90
118080,note_on,120,0,9,,,,,,,,,,7,,43,90
118080,note_on,120,0,11,,,,,,,,,,8,,31,90
118080,note_on,120,0,6,,,,,,,,,,4,,58,90
118080,note_on,120,0,4,,,,,,,,,,2,,62,90
118080,note_on,120,0,2,,,,,,,,,,0,,67,90
118080,note_on,120,0,5,,,,,,,,,,3,,62,90
118080,note_on,120,0,7,,,,,,,,,,5,,58,90
118260,note_on,180,0,8,,,,,,,,,,6,,43,0
118260,note_on,180,0,11,,,,,,,,,,8,,31,0
118260,note_on,180,0,6,,,,,,,,,,4,,58,0
118260,note_on,180,0,5,,,,,,,,,,3,,62,0
118260,note_on,180,0,2,,,,,,,,,,0,,67,0
118260,note_on,180,0,7,,,,,,,,,,5,,58,0
118260,note_on,180,0,9,,,,,,,,,,7,,43,0
118260,note_on,180,0,14,,,,,,,,,,11,,67,0
118260,note_on,180,0,3,,,,,,,,,,1,,67,0
118260,note_on,180,0,4,,,,,,,,,,2,,62,0
118320,note_on,60,0,4,,,,,,,,,,2,,72,90
118320,note_on,60,0,7,,,,,,,,,,5,,63,90
118320,note_on,60,0,3,,,,,,,,,,1,,75,90
118320,note_on,60,0,14,,,,,,,,,,11,,75,90
118320,note_on,60,0,6,,,,,,,,,,4,,63,90
118320,note_on,60,0,11,,,,,,,,,,8,,36,90
118320,note_on,60,0,8,,,,,,,,,,6,,48,90
118320,note_on,60,0,5,,,,,,,,,,3,,72,90
118320,note_on,60,0,9,,,,,,,,,,7,,48,90
118320,note_on,60,0,2,,,,,,,,,,0,,75,90
118440,note_on,120,0,8,,,,,,,,,,6,,48,0
118440,note_on,120,0,11,,,,,,,,,,8,,36,0
118440,note_on,120,0,9,,,,,,,,,,7,,48,0
118440,note_on,120,0,6,,,,,,,,,,4,,63,0
118440,note_on,120,0,7,,,,,,,,,,5,,63,0
118560,note_on,120,0,11,,,,,,,,,,8,,38,90
118560,note_on,120,0,9,,,,,,,,,,7,,50,90
118560,note_on,240,0,2,,,,,,,,,,0,,75,0
118560,note_on,240,0,4,,,,,,,,,,2,,72,0
118560,note_on,120,0,6,,,,,,,,,,4,,65,90
118560,note_on,240,0,3,,,,,,,,,,1,,75,0
118560,note_on,240,0,14,,,,,,,,,,11,,75,0
118560,note_on,120,0,7,,,,,,,,,,5,,65,90
118560,note_on,120,0,8,,,,,,,,,,6,,50,90
118560,note_on,240,0,5,,,,,,,,,,3,,72,0
118740,note_on,180,0,11,,,,,,,,,,8,,38,0
118740,note_on,180,0,7,,,,,,,,,,5,,65,0
118740,note_on,180,0,6,,,,,,,,,,4,,65,0
118740,note_on,180,0,8,,,,,,,,,,6,,50,0
118740,note_on,180,0,9,,,,,,,,,,7,,50,0
118800,note_on,240,0,3,,,,,,,,,,1,,74,90
118800,note_on,60,0,7,,,,,,,,,,5,,67,90
118800,note_on,240,0,14,,,,,,,,,,11,,74,90
118800,note_on,60,0,6,,,,,,,,,,4,,67,90
118800,note_on,240,0,2,,,,,,,,,,0,,74,90
118800,note_on,240,0,4,,,,,,,,,,2,,70,90
118800,note_on,60,0,8,,,,,,,,,,6,,52,90
118800,note_on,60,0,9,,,,,,,,,,7,,52,90
118800,note_on,240,0,5,,,,,,,,,,3,,70,90
118800,note_on,60,0,11,,,,,,,,,,8,,40,90
118920,note_on,120,0,7,,,,,,,,,,5,,67,0
118920,note_on,120,0,9,,,,,,,,,,7,,52,0
118920,note_on,120,0,8,,,,,,,,,,6,,52,0
118920,note_on,120,0,5,,,,,,,,,,3,,70,0
118920,note_on,120,0,4,,,,,,,,,,2,,70,0
118920,note_on,120,0,6,,,,,,,,,,4,,67,0
118920,note_on,120,0,11,,,,,,,,,,8,,40,0
118980,note_on,180,0,3,,,,,,,,,,1,,74,0
118980,note_on,180,0,2,,,,,,,,,,0,,74,0
118980,note_on,180,0,14,,,,,,,,,,11,,74,0
119040,note_on,120,0,5,,,,,,,,,,3,,69,90
119040,note_on,120,0,4,,,,,,,,,,2,,69,90
119040,note_on,120,0,6,,,,,,,,,,4,,69,90
119040,note_on,120,0,11,,,,,,,,,,8,,42,90
119040,note_on,60,0,2,,,,,,,,,,0,,72,90
119040,note_on,120,0,9,,,,,,,,,,7,,54,90
119040,note_on,60,0,3,,,,,,,,,,1,,72,90
119040,note_on,120,0,7,,,,,,,,,,5,,69,90
119040,note_on,120,0,8,,,,,,,,,,6,,54,90
119040,note_on,60,0,14,,,,,,,,,,11,,72,90
119160,note_on,120,0,2,,,,,,,,,,0,,72,0
119160,note_on,120,0,3,,,,,,,,,,1,,72,0
119160,note_on,120,0,14,,,,,,,,,,11,,72,0
119220,note_on,180,0,9,,,,,,,,,,7,,54,0
119220,note_on,180,0,8,,,,,,,,,,6,,54,0
119220,note_on,180,0,6,,,,,,,,,,4,,69,0
119220,note_on,180,0,4,,,,,,,,,,2,,69,0
119220,note_on,180,0,7,,,,,,,,,,5,,69,0
119220,note_on,180,0,11,,,,,,,,,,8,,42,0
119220,note_on,180,0,5,,,,,,,,,,3,,69,0
119280,note_on,120,0,14,,,,,,,,,,11,,70,90
119280,note_on,60,0,9,,,,,,,,,,7,,55,90
119280,note_on,60,0,7,,,,,,,,,,5,,62,90
119280,note_on,60,0,6,,,,,,,,,,4,,62,90
119280,note_on,120,0,3,,,,,,,,,,1,,70,90
119280,note_on,60,0,11,,,,,,,,,,8,,43,90
119280,note_on,120,0,2,,,,,,,,,,0,,70,90
119280,note_on,60,0,5,,,,,,,,,,3,,67,90
119280,note_on,60,0,8,,,,,,,,,,6,,55,90
119280,note_on,60,0,4,,,,,,,,,,2,,67,90
119400,note_on,120,0,4,,,,,,,,,,2,,67,0
119400,note_on,120,0,5,,,,,,,,,,3,,67,0
119400,note_on,120,0,8,,,,,,,,,,6,,55,0
119400,note_on,120,0,2,,,,,,,,,,0,,70,0
119400,note_on,120,0,9,,,,,,,,,,7,,55,0
119400,note_on,120,0,14,,,,,,,,,,11,,70,0
119400,note_on,120,0,3,,,,,,,,,,1,,70,0
119400,note_on,120,0,7,,,,,,,,,,5,,62,0
119400,note_on,120,0,11,,,,,,,,,,8,,43,0
119400,note_on,120,0,6,,,,,,,,,,4,,62,0
119520,note_on,120,0,4,,,,,,,,,,2,,70,90
119520,note_on,120,0,2,,,,,,,,,,0,,69,90
119520,note_on,120,0,9,,,,,,,,,,7,,43,90
119520,note_on,120,0,14,,,,,,,,,,11,,69,90
119520,note_on,120,0,6,,,,,,,,,,4,,62,90
119520,note_on,120,0,11,,,,,,,,,,8,,31,90
119520,note_on,120,0,7,,,,,,,,,,5,,62,90
119520,note_on,120,0,5,,,,,,,,,,3,,70,90
119520,note_on,120,0,8,,,,,,,,,,6,,43,90
119520,note_on,120,0,3,,,,,,,,,,1,,69,90
119630,note_on,110,0,3,,,,,,,,,,1,,69,0
119630,note_on,110,0,2,,,,,,,,,,0,,69,0
119630,note_on,110,0,14,,,,,,,,,,11,,69,0
119640,note_on,10,0,2,,,,,,,,,,0,,67,90
119640,note_on,10,0,14,,,,,,,,,,11,,67,90
119640,note_on,10,0,3,,,,,,,,,,1,,67,90
119700,note_on,180,0,4,,,,,,,,,,2,,70,0
119700,note_on,180,0,6,,,,,,,,,,4,,62,0
119700,note_on,180,0,5,,,,,,,,,,3,,70,0
119700,note_on,180,0,9,,,,,,,,,,7,,43,0
119700,note_on,180,0,8,,,,,,,,,,6,,43,0
119700,note_on,180,0,11,,,,,,,,,,8,,31,0
119700,note_on,180,0,7,,,,,,,,,,5,,62,0
119730,note_on,90,0,3,,,,,,,,,,1,,67,0
119730,note_on,90,0,2,,,,,,,,,,0,,67,0
119730,note_on,90,0,14,,,,,,,,,,11,,67,0
119760,note_on,30,0,2,,,,,,,,,,0,,69,90
119760,note_on,60,0,11,,,,,,,,,,8,,36,90
119760,note_on,60,0,6,,,,,,,,,,4,,63,90
119760,note_on,60,0,8,,,,,,,,,,6,,48,90
119760,note_on,30,0,3,,,,,,,,,,1,,69,90
119760,note_on,60,0,4,,,,,,,,,,2,,72,90
119760,note_on,60,0,9,,,,,,,,,,7,,48,90
119760,note_on,60,0,7,,,,,,,,,,5,,63,90
119760,note_on,30,0,14,,,,,,,,,,11,,69,90
119760,note_on,60,0,5,,,,,,,,,,3,,72,90
119880,note_on,120,0,9,,,,,,,,,,7,,48,0
119880,note_on,120,0,7,,,,,,,,,,5,,63,0
119880,note_on,120,0,2,,,,,,,,,,0,,69,0
119880,note_on,120,0,5,,,,,,,,,,3,,72,0
119880,note_on,120,0,14,,,,,,,,,,11,,69,0
119880,note_on,120,0,11,,,,,,,,,,8,,36,0
119880,note_on,120,0,6,,,,,,,,,,4,,63,0
119880,note_on,120,0,8,,,,,,,,,,6,,48,0
119880,note_on,120,0,4,,,,,,,,,,2,,72,0
119880,note_on,120,0,3,,,,,,,,,,1,,69,0
120000,note_on,120,0,5,,,,,,,,,,3,,69,90
120000,note_on,120,0,3,,,,,,,,,,1,,66,90
120000,note_on,120,0,2,,,,,,,,,,0,,66,90
120000,note_on,120,0,4,,,,,,,,,,2,,69,90
120000,note_on,120,0,8,,,,,,,,,,6,,50,90
120000,note_on,120,0,14,,,,,,,,,,11,,66,90
120000,note_on,120,0,9,,,,,,,,,,7,,50,90
120000,note_on,120,0,6,,,,,,,,,,4,,62,90
120000,note_on,120,0,7,,,,,,,,,,5,,62,90
120000,note_on,120,0,11,,,,,,,,,,8,,38,90
120180,note_on,180,0,8,,,,,,,,,,6,,50,0
120180,note_on,180,0,11,,,,,,,,,,8,,38,0
120180,note_on,180,0,3,,,,,,,,,,1,,66,0
120180,note_on,180,0,7,,,,,,,,,,5,,62,0
120180,note_on,180,0,2,,,,,,,,,,0,,66,0
120180,note_on,180,0,5,,,,,,,,,,3,,69,0
120180,note_on,180,0,9,,,,,,,,,,7,,50,0
120180,note_on,180,0,4,,,,,,,,,,2,,69,0
120180,note_on,180,0,6,,,,,,,,,,4,,62,0
120180,note_on,180,0,14,,,,,,,,,,11,,66,0
120240,note_on,60,0,6,,,,,,,,,,4,,62,90
120240,note_on,60,0,5,,,,,,,,,,3,,67,90
120240,note_on,60,0,8,,,,,,,,,,6,,43,90
120240,note_on,60,0,4,,,,,,,,,,2,,67,90
120240,note_on,60,0,14,,,,,,,,,,11,,67,90
120240,note_on,60,0,7,,,,,,,,,,5,,62,90
120240,note_on,60,0,2,,,,,,,,,,0,,67,90
120240,note_on,60,0,11,,,,,,,,,,8,,31,90
120240,note_on,60,0,9,,,,,,,,,,7,,43,90
120240,note_on,60,0,3,,,,,,,,,,1,,67,90
120360,note_on,120,0,8,,,,,,,,,,6,,43,0
120480,note_on,240,0,9,,,,,,,,,,7,,43,0
120480,note_on,240,0,11,,,,,,,,,,8,,31,0
120480,note_on,120,0,8,,,,,,,,,,6,,55,70
120600,note_on,360,0,3,,,,,,,,,,1,,67,0
120600,note_on,360,0,14,,,,,,,,,,11,,67,0
120600,note_on,360,0,7,,,,,,,,,,5,,62,0
120600,note_on,360,0,2,,,,,,,,,,0,,67,0
120600,note_on,360,0,5,,,,,,,,,,3,,67,0
120600,note_on,360,0,6,,,,,,,,,,4,,62,0
120600,note_on,360,0,4,,,,,,,,,,2,,67,0
120660,note_on,180,0,8,,,,,,,,,,6,,55,0
120720,note_on,60,0,8,,,,,,,,,,6,,57,70
120840,note_on,120,0,8,,,,,,,,,,6,,57,0
120960,note_on,120,0,8,,,,,,,,,,6,,53,70
120960,note_on,360,0,14,,,,,,,,,,11,,77,110
121080,note_on,120,0,14,,,,,,,,,,11,,77,0
121140,note_on,180,0,8,,,,,,,,,,6,,53,0
121200,note_on,120,0,14,,,,,,,,,,11,,74,110
121200,note_on,60,0,8,,,,,,,,,,6,,58,70
121320,note_on,120,0,14,,,,,,,,,,11,,72,110
121330,note_on,10,0,14,,,,,,,,,,11,,74,0
121410,note_on,80,0,14,,,,,,,,,,11,,72,0
121440,note_on,30,0,14,,,,,,,,,,11,,74,110
121560,note_on,120,0,14,,,,,,,,,,11,,74,0
121560,note_on,360,0,8,,,,,,,,,,6,,58,0
121680,note_on,120,0,14,,,,,,,,,,11,,72,110
121680,note_on,120,0,8,,,,,,,,,,6,,53,70
121800,note_on,120,0,14,,,,,,,,,,11,,70,110
121810,note_on,10,0,14,,,,,,,,,,11,,72,0
121890,note_on,80,0,14,,,,,,,,,,11,,70,0
121920,note_on,240,0,8,,,,,,,,,,6,,53,0
121920,note_on,30,0,14,,,,,,,,,,11,,72,110
122040,note_on,120,0,14,,,,,,,,,,11,,72,0
122160,note_on,240,0,8,,,,,,,,,,6,,46,70
122160,note_on,120,0,14,,,,,,,,,,11,,70,110
122250,note_on,90,0,14,,,,,,,,,,11,,70,0
122280,note_on,30,0,14,,,,,,,,,,11,,69,110
122400,note_on,240,0,8,,,,,,,,,,6,,46,0
122400,note_on,120,0,14,,,,,,,,,,11,,70,110
122410,note_on,10,0,14,,,,,,,,,,11,,69,0
122510,note_on,100,0,14,,,,,,,,,,11,,70,0
122520,note_on,10,0,14,,,,,,,,,,11,,72,110
122610,note_on,90,0,14,,,,,,,,,,11,,72,0
122640,note_on,30,0,14,,,,,,,,,,11,,74,110
122730,note_on,90,0,14,,,,,,,,,,11,,74,0
122760,note_on,30,0,14,,,,,,,,,,11,,72,110
122880,note_on,120,0,14,,,,,,,,,,11,,74,110
122890,note_on,10,0,14,,,,,,,,,,11,,72,0
122990,note_on,100,0,14,,,,,,,,,,11,,74,0
123000,note_on,10,0,14,,,,,,,,,,11,,75,110
123090,note_on,90,0,14,,,,,,,,,,11,,75,0
123120,note_on,30,0,14,,,,,,,,,,11,,77,110
123210,note_on,90,0,14,,,,,,,,,,11,,77,0
123240,note_on,30,0,14,,,,,,,,,,11,,75,110
123360,note_on,120,0,14,,,,,,,,,,11,,77,110
123370,note_on,10,0,14,,,,,,,,,,11,,75,0
123470,note_on,100,0,14,,,,,,,,,,11,,77,0
123480,note_on,10,0,14,,,,,,,,,,11,,79,110
123570,note_on,90,0,14,,,,,,,,,,11,,79,0
123600,note_on,30,0,14,,,,,,,,,,11,,81,110
123720,note_on,120,0,14,,,,,,,,,,11,,79,110
123730,note_on,10,0,14,,,,,,,,,,11,,81,0
123810,note_on,80,0,14,,,,,,,,,,11,,79,0
123840,note_on,30,0,14,,,,,,,,,,11,,81,110
123950,note_on,110,0,14,,,,,,,,,,11,,81,0
123960,note_on,10,0,14,,,,,,,,,,11,,77,110
124050,note_on,90,0,14,,,,,,,,,,11,,77,0
124080,note_on,30,0,14,,,,,,,,,,11,,82,110
124080,note_on,1680,0,8,,,,,,,,,,6,,58,70
124200,note_on,120,0,8,,,,,,,,,,6,,58,0
124260,note_on,180,0,14,,,,,,,,,,11,,82,0
124320,note_on,120,0,8,,,,,,,,,,6,,60,70
124320,note_on,60,0,14,,,,,,,,,,11,,70,110
124440,note_on,120,0,14,,,,,,,,,,11,,70,0
124500,note_on,180,0,8,,,,,,,,,,6,,60,0
124560,note_on,60,0,8,,,,,,,,,,6,,62,70
124680,note_on,120,0,8,,,,,,,,,,6,,62,0
124800,note_on,360,0,14,,,,,,,,,,11,,77,110
124800,note_on,120,0,8,,,,,,,,,,6,,57,70
124920,note_on,120,0,14,,,,,,,,,,11,,77,0
124980,note_on,180,0,8,,,,,,,,,,6,,57,0
125040,note_on,120,0,14,,,,,,,,,,11,,74,110
125040,note_on,60,0,8,,,,,,,,,,6,,58,70
125160,note_on,120,0,14,,,,,,,,,,11,,72,110
125170,note_on,10,0,14,,,,,,,,,,11,,74,0
125250,note_on,80,0,14,,,,,,,,,,11,,72,0
125280,note_on,30,0,14,,,,,,,,,,11,,74,110
125400,note_on,120,0,14,,,,,,,,,,11,,74,0
125400,note_on,360,0,8,,,,,,,,,,6,,58,0
125520,note_on,120,0,8,,,,,,,,,,6,,53,70
125520,note_on,120,0,14,,,,,,,,,,11,,72,110
125640,note_on,120,0,14,,,,,,,,,,11,,70,110
125650,note_on,10,0,14,,,,,,,,,,11,,72,0
125730,note_on,80,0,14,,,,,,,,,,11,,70,0
125760,note_on,240,0,8,,,,,,,,,,6,,53,0
125760,note_on,30,0,14,,,,,,,,,,11,,72,110
125880,note_on,120,0,14,,,,,,,,,,11,,72,0
126000,note_on,240,0,8,,,,,,,,,,6,,46,70
126000,note_on,120,0,14,,,,,,,,,,11,,70,110
126090,note_on,90,0,14,,,,,,,,,,11,,70,0
126120,note_on,30,0,14,,,,,,,,,,11,,69,110
126240,note_on,240,0,8,,,,,,,,,,6,,46,0
126240,note_on,120,0,14,,,,,,,,,,11,,70,110
126250,note_on,10,0,14,,,,,,,,,,11,,69,0
126350,note_on,100,0,14,,,,,,,,,,11,,70,0
126360,note_on,10,0,14,,,,,,,,,,11,,72,110
126450,note_on,90,0,14,,,,,,,,,,11,,72,0
126480,note_on,30,0,14,,,,,,,,,,11,,74,110
126570,note_on,90,0,14,,,,,,,,,,11,,74,0
126600,note_on,30,0,14,,,,,,,,,,11,,72,110
126720,note_on,120,0,14,,,,,,,,,,11,,74,110
126730,note_on,10,0,14,,,,,,,,,,11,,72,0
126830,note_on,100,0,14,,,,,,,,,,11,,74,0
126840,note_on,10,0,14,,,,,,,,,,11,,75,110
126930,note_on,90,0,14,,,,,,,,,,11,,75,0
126960,note_on,30,0,14,,,,,,,,,,11,,77,110
127080,note_on,120,0,14,,,,,,,,,,11,,77,0
127200,note_on,120,0,14,,,,,,,,,,11,,79,110
127320,note_on,120,0,14,,,,,,,,,,11,,77,110
127330,note_on,10,0,14,,,,,,,,,,11,,79,0
127410,note_on,80,0,14,,,,,,,,,,11,,77,0
127440,note_on,30,0,14,,,,,,,,,,11,,79,110
127560,note_on,120,0,14,,,,,,,,,,11,,77,110
127570,note_on,10,0,14,,,,,,,,,,11,,79,0
127650,note_on,80,0,14,,,,,,,,,,11,,77,0
127680,note_on,30,0,14,,,,,,,,,,11,,75,110
127790,note_on,110,0,14,,,,,,,,,,11,,75,0
127800,note_on,10,0,14,,,,,,,,,,11,,74,110
127890,note_on,90,0,14,,,,,,,,,,11,,74,0
127920,note_on,30,0,14,,,,,,,,,,11,,72,110
127920,note_on,7320,0,2,,,,,,,,,,0,,65,50
127920,note_on,7320,0,5,,,,,,,,,,3,,65,50
128040,note_on,120,0,5,,,,,,,,,,3,,65,0
128040,note_on,120,0,2,,,,,,,,,,0,,65,0
128160,note_on,120,0,2,,,,,,,,,,0,,69,50
128160,note_on,120,0,5,,,,,,,,,,3,,69,50
128280,note_on,360,0,14,,,,,,,,,,11,,72,0
128340,note_on,180,0,2,,,,,,,,,,0,,69,0
128340,note_on,180,0,5,,,,,,,,,,3,,69,0
128400,note_on,60,0,5,,,,,,,,,,3,,65,50
128400,note_on,60,0,2,,,,,,,,,,0,,65,50
128520,note_on,120,0,5,,,,,,,,,,3,,65,0
128520,note_on,120,0,2,,,,,,,,,,0,,65,0
128640,note_on,120,0,2,,,,,,,,,,0,,69,50
128640,note_on,360,0,14,,,,,,,,,,11,,65,110
128640,note_on,120,0,5,,,,,,,,,,3,,69,50
128760,note_on,120,0,14,,,,,,,,,,11,,65,0
128820,note_on,180,0,2,,,,,,,,,,0,,69,0
128820,note_on,180,0,5,,,,,,,,,,3,,69,0
128880,note_on,60,0,5,,,,,,,,,,3,,65,50
128880,note_on,60,0,2,,,,,,,,,,0,,65,50
128880,note_on,120,0,14,,,,,,,,,,11,,74,110
129000,note_on,120,0,5,,,,,,,,,,3,,65,0
129000,note_on,120,0,2,,,,,,,,,,0,,65,0
129000,note_on,120,0,14,,,,,,,,,,11,,70,110
129010,note_on,10,0,14,,,,,,,,,,11,,74,0
129110,note_on,100,0,14,,,,,,,,,,11,,70,0
129120,note_on,120,0,5,,,,,,,,,,3,,69,50
129120,note_on,120,0,2,,,,,,,,,,0,,69,50
129120,note_on,10,0,14,,,,,,,,,,11,,72,110
129300,note_on,180,0,5,,,,,,,,,,3,,69,0
129300,note_on,180,0,2,,,,,,,,,,0,,69,0
129360,note_on,60,0,5,,,,,,,,,,3,,65,50
129360,note_on,60,0,2,,,,,,,,,,0,,65,50
129480,note_on,120,0,2,,,,,,,,,,0,,65,0
129480,note_on,360,0,14,,,,,,,,,,11,,72,0
129480,note_on,120,0,5,,,,,,,,,,3,,65,0
129600,note_on,120,0,14,,,,,,,,,,11,,65,110
129600,note_on,120,0,5,,,,,,,,,,3,,69,50
129600,note_on,120,0,2,,,,,,,,,,0,,69,50
129720,note_on,120,0,14,,,,,,,,,,11,,65,0
129780,note_on,180,0,5,,,,,,,,,,3,,69,0
129780,note_on,180,0,2,,,,,,,,,,0,,69,0
129840,note_on,120,0,14,,,,,,,,,,11,,75,110
129840,note_on,60,0,5,,,,,,,,,,3,,65,50
129840,note_on,60,0,2,,,,,,,,,,0,,65,50
129960,note_on,120,0,14,,,,,,,,,,11,,72,110
129960,note_on,120,0,5,,,,,,,,,,3,,65,0
129960,note_on,120,0,2,,,,,,,,,,0,,65,0
129970,note_on,10,0,14,,,,,,,,,,11,,75,0
130070,note_on,100,0,14,,,,,,,,,,11,,72,0
130080,note_on,120,0,2,,,,,,,,,,0,,70,50
130080,note_on,10,0,14,,,,,,,,,,11,,74,110
130080,note_on,120,0,5,,,,,,,,,,3,,70,50
130260,note_on,180,0,5,,,,,,,,,,3,,70,0
130260,note_on,180,0,2,,,,,,,,,,0,,70,0
130320,note_on,60,0,2,,,,,,,,,,0,,65,50
130320,note_on,60,0,5,,,,,,,,,,3,,65,50
130440,note_on,360,0,14,,,,,,,,,,11,,74,0
130440,note_on,120,0,5,,,,,,,,,,3,,65,0
130440,note_on,120,0,2,,,,,,,,,,0,,65,0
130560,note_on,120,0,14,,,,,,,,,,11,,65,110
130560,note_on,120,0,5,,,,,,,,,,3,,70,50
130560,note_on,120,0,2,,,,,,,,,,0,,70,50
130680,note_on,120,0,14,,,,,,,,,,11,,65,0
130740,note_on,180,0,5,,,,,,,,,,3,,70,0
130740,note_on,180,0,2,,,,,,,,,,0,,70,0
130800,note_on,60,0,5,,,,,,,,,,3,,65,50
130800,note_on,120,0,14,,,,,,,,,,11,,77,110
130800,note_on,60,0,2,,,,,,,,,,0,,65,50
130920,note_on,120,0,2,,,,,,,,,,0,,65,0
130920,note_on,120,0,14,,,,,,,,,,11,,74,110
130920,note_on,120,0,5,,,,,,,,,,3,,65,0
130930,note_on,10,0,14,,,,,,,,,,11,,77,0
131030,note_on,100,0,14,,,,,,,,,,11,,74,0
131040,note_on,10,0,14,,,,,,,,,,11,,75,110
131040,note_on,120,0,2,,,,,,,,,,0,,72,50
131040,note_on,120,0,5,,,,,,,,,,3,,72,50
131220,note_on,180,0,2,,,,,,,,,,0,,72,0
131220,note_on,180,0,5,,,,,,,,,,3,,72,0
131280,note_on,60,0,5,,,,,,,,,,3,,65,50
131280,note_on,60,0,2,,,,,,,,,,0,,65,50
131400,note_on,360,0,14,,,,,,,,,,11,,75,0
131400,note_on,120,0,2,,,,,,,,,,0,,65,0
131400,note_on,120,0,5,,,,,,,,,,3,,65,0
131520,note_on,120,0,5,,,,,,,,,,3,,72,50
131520,note_on,120,0,2,,,,,,,,,,0,,72,50
131520,note_on,120,0,14,,,,,,,,,,11,,65,110
131640,note_on,120,0,14,,,,,,,,,,11,,65,0
131700,note_on,180,0,2,,,,,,,,,,0,,72,0
131700,note_on,180,0,5,,,,,,,,,,3,,72,0
131760,note_on,120,0,14,,,,,,,,,,11,,79,110
131760,note_on,60,0,5,,,,,,,,,,3,,65,50
131760,note_on,60,0,2,,,,,,,,,,0,,65,50
131880,note_on,120,0,5,,,,,,,,,,3,,65,0
131880,note_on,120,0,2,,,,,,,,,,0,,65,0
131940,note_on,180,0,14,,,,,,,,,,11,,79,0
132000,note_on,120,0,5,,,,,,,,,,3,,74,50
132000,note_on,120,0,2,,,,,,,,,,0,,74,50
132000,note_on,60,0,14,,,,,,,,,,11,,77,110
132120,note_on,120,0,14,,,,,,,,,,11,,77,0
132180,note_on,180,0,5,,,,,,,,,,3,,74,0
132180,note_on,180,0,2,,,,,,,,,,0,,74,0
132240,note_on,60,0,2,,,,,,,,,,0,,65,50
132240,note_on,60,0,5,,,,,,,,,,3,,65,50
132360,note_on,120,0,2,,,,,,,,,,0,,65,0
132360,note_on,120,0,5,,,,,,,,,,3,,65,0
132480,note_on,120,0,2,,,,,,,,,,0,,74,50
132480,note_on,120,0,5,,,,,,,,,,3,,74,50
132480,note_on,360,0,14,,,,,,,,,,11,,77,110
132600,note_on,120,0,14,,,,,,,,,,11,,77,0
132660,note_on,180,0,2,,,,,,,,,,0,,74,0
132660,note_on,180,0,5,,,,,,,,,,3,,74,0
132720,note_on,120,0,14,,,,,,,,,,11,,77,110
132720,note_on,60,0,2,,,,,,,,,,0,,65,50
132720,note_on,60,0,5,,,,,,,,,,3,,65,50
132780,note_on,60,0,14,,,,,,,,,,11,,76,110
132790,note_on,10,0,14,,,,,,,,,,11,,77,0
132840,note_on,120,0,2,,,,,,,,,,0,,65,0
132840,note_on,120,0,5,,,,,,,,,,3,,65,0
132920,note_on,130,0,14,,,,,,,,,,11,,76,0
132960,note_on,40,0,14,,,,,,,,,,11,,74,110
132960,note_on,120,0,2,,,,,,,,,,0,,65,50
132960,note_on,120,0,5,,,,,,,,,,3,,65,50
133070,note_on,110,0,14,,,,,,,,,,11,,74,0
133080,note_on,10,0,14,,,,,,,,,,11,,72,110
133140,note_on,180,0,2,,,,,,,,,,0,,65,0
133140,note_on,180,0,5,,,,,,,,,,3,,65,0
133170,note_on,90,0,14,,,,,,,,,,11,,72,0
133200,note_on,30,0,14,,,,,,,,,,11,,75,110
133200,note_on,60,0,2,,,,,,,,,,0,,65,50
133200,note_on,60,0,5,,,,,,,,,,3,,65,50
133320,note_on,120,0,5,,,,,,,,,,3,,65,0
133320,note_on,120,0,2,,,,,,,,,,0,,65,0
133440,note_on,120,0,5,,,,,,,,,,3,,65,50
133440,note_on,120,0,2,,,,,,,,,,0,,65,50
133560,note_on,360,0,14,,,,,,,,,,11,,75,0
133620,note_on,180,0,5,,,,,,,,,,3,,65,0
133620,note_on,180,0,2,,,,,,,,,,0,,65,0
133680,note_on,60,0,5,,,,,,,,,,3,,65,50
133680,note_on,60,0,2,,,,,,,,,,0,,65,50
133680,note_on,120,0,14,,,,,,,,,,11,,75,110
133740,note_on,60,0,14,,,,,,,,,,11,,74,110
133750,note_on,10,0,14,,,,,,,,,,11,,75,0
133800,note_on,120,0,2,,,,,,,,,,0,,65,0
133800,note_on,120,0,5,,,,,,,,,,3,,65,0
133880,note_on,130,0,14,,,,,,,,,,11,,74,0
133920,note_on,40,0,14,,,,,,,,,,11,,72,110
133920,note_on,120,0,2,,,,,,,,,,0,,65,50
133920,note_on,120,0,5,,,,,,,,,,3,,65,50
134030,note_on,110,0,14,,,,,,,,,,11,,72,0
134040,note_on,10,0,14,,,,,,,,,,11,,70,110
134100,note_on,180,0,2,,,,,,,,,,0,,65,0
134100,note_on,180,0,5,,,,,,,,,,3,,65,0
134130,note_on,90,0,14,,,,,,,,,,11,,70,0
134160,note_on,60,0,5,,,,,,,,,,3,,65,50
134160,note_on,60,0,2,,,,,,,,,,0,,65,50
134160,note_on,30,0,14,,,,,,,,,,11,,73,110
134280,note_on,120,0,5,,,,,,,,,,3,,65,0
134280,note_on,120,0,2,,,,,,,,,,0,,65,0
134400,note_on,120,0,5,,,,,,,,,,3,,65,50
134400,note_on,120,0,2,,,,,,,,,,0,,65,50
134520,note_on,360,0,14,,,,,,,,,,11,,73,0
134580,note_on,180,0,5,,,,,,,,,,3,,65,0
134580,note_on,180,0,2,,,,,,,,,,0,,65,0
134640,note_on,120,0,14,,,,,,,,,,11,,74,110
134640,note_on,60,0,2,,,,,,,,,,0,,65,50
134640,note_on,60,0,5,,,,,,,,,,3,,65,50
134700,note_on,60,0,14,,,,,,,,,,11,,72,110
134710,note_on,10,0,14,,,,,,,,,,11,,74,0
134760,note_on,120,0,5,,,,,,,,,,3,,65,0
134760,note_on,120,0,2,,,,,,,,,,0,,65,0
134840,note_on,130,0,14,,,,,,,,,,11,,72,0
134880,note_on,40,0,14,,,,,,,,,,11,,70,110
134880,note_on,120,0,2,,,,,,,,,,0,,65,50
134880,note_on,120,0,5,,,,,,,,,,3,,65,50
134990,note_on,110,0,14,,,,,,,,,,11,,70,0
135000,note_on,10,0,14,,,,,,,,,,11,,69,110
135060,note_on,180,0,2,,,,,,,,,,0,,65,0
135060,note_on,180,0,5,,,,,,,,,,3,,65,0
135090,note_on,90,0,14,,,,,,,,,,11,,69,0
135120,note_on,30,0,14,,,,,,,,,,11,,70,110
135120,note_on,60,0,2,,,,,,,,,,0,,65,50
135120,note_on,60,0,5,,,,,,,,,,3,,65,50
135240,note_on,120,0,2,,,,,,,,,,0,,65,0
135240,note_on,120,0,5,,,,,,,,,,3,,65,0
135360,note_on,120,0,2,,,,,,,,,,0,,65,50
135360,note_on,120,0,5,,,,,,,,,,3,,65,50
135480,note_on,360,0,14,,,,,,,,,,11,,70,0
135540,note_on,180,0,2,,,,,,,,,,0,,65,0
135540,note_on,180,0,5,,,,,,,,,,3,,65,0
135600,note_on,60,0,5,,,,,,,,,,3,,65,50
135600,note_on,120,0,14,,,,,,,,,,11,,70,110
135600,note_on,60,0,2,,,,,,,,,,0,,65,50
135660,note_on,60,0,14,,,,,,,,,,11,,69,110
135670,note_on,10,0,14,,,,,,,,,,11,,70,0
135720,note_on,120,0,2,,,,,,,,,,0,,65,0
135720,note_on,120,0,5,,,,,,,,,,3,,65,0
135800,note_on,130,0,14,,,,,,,,,,11,,69,0
135840,note_on,120,0,2,,,,,,,,,,0,,65,50
135840,note_on,120,0,5,,,,,,,,,,3,,65,50
135840,note_on,40,0,14,,,,,,,,,,11,,67,110
135950,note_on,110,0,14,,,,,,,,,,11,,67,0
135960,note_on,10,0,14,,,,,,,,,,11,,65,110
136020,note_on,180,0,5,,,,,,,,,,3,,65,0
136020,note_on,180,0,2,,,,,,,,,,0,,65,0
136050,note_on,90,0,14,,,,,,,,,,11,,65,0
136080,note_on,30,0,14,,,,,,,,,,11,,75,110
136080,note_on,60,0,5,,,,,,,,,,3,,65,50
136080,note_on,60,0,2,,,,,,,,,,0,,65,50
136200,note_on,120,0,5,,,,,,,,,,3,,65,0
136200,note_on,120,0,2,,,,,,,,,,0,,65,0
136320,note_on,120,0,2,,,,,,,,,,0,,65,50
136320,note_on,120,0,5,,,,,,,,,,3,,65,50
136440,note_on,360,0,14,,,,,,,,,,11,,75,0
136500,note_on,180,0,5,,,,,,,,,,3,,65,0
136500,note_on,180,0,2,,,,,,,,,,0,,65,0
136560,note_on,60,0,5,,,,,,,,,,3,,58,50
136560,note_on,60,0,2,,,,,,,,,,0,,58,50
136560,note_on,120,0,14,,,,,,,,,,11,,74,110
136680,note_on,120,0,14,,,,,,,,,,11,,74,0
136800,note_on,240,0,5,,,,,,,,,,3,,58,0
136800,note_on,240,0,2,,,,,,,,,,0,,58,0
136800,note_on,120,0,14,,,,,,,,,,11,,70,110
136920,note_on,120,0,14,,,,,,,,,,11,,69,110
136930,note_on,10,0,14,,,,,,,,,,11,,70,0
137010,note_on,80,0,14,,,,,,,,,,11,,69,0
137040,note_on,30,0,14,,,,,,,,,,11,,70,110
137160,note_on,120,0,14,,,,,,,,,,11,,72,110
137170,note_on,10,0,14,,,,,,,,,,11,,70,0
137270,note_on,100,0,14,,,,,,,,,,11,,72,0
137280,note_on,10,0,14,,,,,,,,,,11,,74,110
137390,note_on,110,0,14,,,,,,,,,,11,,74,0
137400,note_on,10,0,14,,,,,,,,,,11,,75,110
137490,note_on,90,0,14,,,,,,,,,,11,,75,0
137520,note_on,30,0,14,,,,,,,,,,11,,79,110
137580,note_on,60,0,14,,,,,,,,,,11,,77,110
137590,note_on,10,0,14,,,,,,,,,,11,,79,0
137640,note_on,50,0,14,,,,,,,,,,11,,79,110
137650,note_on,10,0,14,,,,,,,,,,11,,77,0
137700,note_on,50,0,14,,,,,,,,,,11,,77,110
137710,note_on,10,0,14,,,,,,,,,,11,,79,0
137760,note_on,960,0,5,,,,,,,,,,3,,65,50
137760,note_on,960,0,2,,,,,,,,,,0,,65,50
137880,note_on,120,0,2,,,,,,,,,,0,,63,50
137880,note_on,120,0,5,,,,,,,,,,3,,63,50
137890,note_on,10,0,2,,,,,,,,,,0,,65,0
137890,note_on,10,0,5,,,,,,,,,,3,,65,0
137940,note_on,230,0,14,,,,,,,,,,11,,77,0
137970,note_on,80,0,2,,,,,,,,,,0,,63,0
137970,note_on,80,0,5,,,,,,,,,,3,,63,0
138000,note_on,60,0,14,,,,,,,,,,11,,79,110
138000,note_on,30,0,5,,,,,,,,,,3,,65,50
138000,note_on,30,0,2,,,,,,,,,,0,,65,50
138060,note_on,60,0,14,,,,,,,,,,11,,77,110
138070,note_on,10,0,14,,,,,,,,,,11,,79,0
138120,note_on,120,0,2,,,,,,,,,,0,,67,50
138120,note_on,50,0,14,,,,,,,,,,11,,79,110
138120,note_on,120,0,5,,,,,,,,,,3,,67,50
138130,note_on,10,0,2,,,,,,,,,,0,,65,0
138130,note_on,10,0,14,,,,,,,,,,11,,77,0
138130,note_on,10,0,5,,,,,,,,,,3,,65,0
138180,note_on,50,0,14,,,,,,,,,,11,,77,110
138190,note_on,10,0,14,,,,,,,,,,11,,79,0
138230,note_on,100,0,5,,,,,,,,,,3,,67,0
138230,note_on,100,0,2,,,,,,,,,,0,,67,0
138240,note_on,10,0,5,,,,,,,,,,3,,69,50
138240,note_on,10,0,2,,,,,,,,,,0,,69,50
138350,note_on,110,0,5,,,,,,,,,,3,,69,0
138350,note_on,110,0,2,,,,,,,,,,0,,69,0
138360,note_on,10,0,5,,,,,,,,,,3,,65,50
138360,note_on,10,0,2,,,,,,,,,,0,,65,50
138420,note_on,230,0,14,,,,,,,,,,11,,77,0
138450,note_on,90,0,5,,,,,,,,,,3,,65,0
138450,note_on,90,0,2,,,,,,,,,,0,,65,0
138480,note_on,60,0,14,,,,,,,,,,11,,77,110
138480,note_on,30,0,5,,,,,,,,,,3,,70,50
138480,note_on,30,0,2,,,,,,,,,,0,,70,50
138600,note_on,120,0,14,,,,,,,,,,11,,77,0
138720,note_on,120,0,14,,,,,,,,,,11,,70,110
138720,note_on,240,0,5,,,,,,,,,,3,,70,0
138720,note_on,240,0,2,,,,,,,,,,0,,70,0
138840,note_on,120,0,14,,,,,,,,,,11,,69,110
138850,note_on,10,0,14,,,,,,,,,,11,,70,0
138930,note_on,80,0,14,,,,,,,,,,11,,69,0
138960,note_on,30,0,14,,,,,,,,,,11,,70,110
139080,note_on,120,0,14,,,,,,,,,,11,,72,110
139090,note_on,10,0,14,,,,,,,,,,11,,70,0
139190,note_on,100,0,14,,,,,,,,,,11,,72,0
139200,note_on,10,0,14,,,,,,,,,,11,,74,110
139310,note_on,110,0,14,,,,,,,,,,11,,74,0
139320,note_on,10,0,14,,,,,,,,,,11,,75,110
139410,note_on,90,0,14,,,,,,,,,,11,,75,0
139440,note_on,30,0,14,,,,,,,,,,11,,79,110
139500,note_on,60,0,14,,,,,,,,,,11,,77,110
139510,note_on,10,0,14,,,,,,,,,,11,,79,0
139560,note_on,50,0,14,,,,,,,,,,11,,79,110
139570,note_on,10,0,14,,,,,,,,,,11,,77,0
139620,note_on,50,0,14,,,,,,,,,,11,,77,110
139630,note_on,10,0,14,,,,,,,,,,11,,79,0
139680,note_on,960,0,5,,,,,,,,,,3,,65,50
139680,note_on,960,0,2,,,,,,,,,,0,,65,50
139800,note_on,120,0,5,,,,,,,,,,3,,63,50
139800,note_on,120,0,2,,,,,,,,,,0,,63,50
139810,note_on,10,0,5,,,,,,,,,,3,,65,0
139810,note_on,10,0,2,,,,,,,,,,0,,65,0
139860,note_on,230,0,14,,,,,,,,,,11,,77,0
139890,note_on,80,0,5,,,,,,,,,,3,,63,0
139890,note_on,80,0,2,,,,,,,,,,0,,63,0
139920,note_on,30,0,5,,,,,,,,,,3,,65,50
139920,note_on,30,0,2,,,,,,,,,,0,,65,50
139920,note_on,60,0,14,,,,,,,,,,11,,79,110
139980,note_on,60,0,14,,,,,,,,,,11,,77,110
139990,note_on,10,0,14,,,,,,,,,,11,,79,0
140040,note_on,50,0,14,,,,,,,,,,11,,79,110
140040,note_on,120,0,2,,,,,,,,,,0,,67,50
140040,note_on,120,0,5,,,,,,,,,,3,,67,50
140050,note_on,10,0,14,,,,,,,,,,11,,77,0
140050,note_on,10,0,2,,,,,,,,,,0,,65,0
140050,note_on,10,0,5,,,,,,,,,,3,,65,0
140100,note_on,50,0,14,,,,,,,,,,11,,77,110
140110,note_on,10,0,14,,,,,,,,,,11,,79,0
140150,note_on,100,0,5,,,,,,,,,,3,,67,0
140150,note_on,100,0,2,,,,,,,,,,0,,67,0
140160,note_on,10,0,5,,,,,,,,,,3,,69,50
140160,note_on,10,0,2,,,,,,,,,,0,,69,50
140270,note_on,110,0,2,,,,,,,,,,0,,69,0
140270,note_on,110,0,5,,,,,,,,,,3,,69,0
140280,note_on,10,0,2,,,,,,,,,,0,,65,50
140280,note_on,10,0,5,,,,,,,,,,3,,65,50
140340,note_on,230,0,14,,,,,,,,,,11,,77,0
140370,note_on,90,0,2,,,,,,,,,,0,,65,0
140370,note_on,90,0,5,,,,,,,,,,3,,65,0
140400,note_on,30,0,2,,,,,,,,,,0,,70,50
140400,note_on,60,0,14,,,,,,,,,,11,,77,110
140400,note_on,30,0,5,,,,,,,,,,3,,70,50
140520,note_on,120,0,14,,,,,,,,,,11,,77,0
140640,note_on,240,0,5,,,,,,,,,,3,,70,0
140640,note_on,240,0,2,,,,,,,,,,0,,70,0
140640,note_on,120,0,14,,,,,,,,,,11,,75,110
140760,note_on,120,0,14,,,,,,,,,,11,,74,110
140770,note_on,10,0,14,,,,,,,,,,11,,75,0
140850,note_on,80,0,14,,,,,,,,,,11,,74,0
140880,note_on,30,0,14,,,,,,,,,,11,,75,110
141000,note_on,120,0,14,,,,,,,,,,11,,77,110
141010,note_on,10,0,14,,,,,,,,,,11,,75,0
141110,note_on,100,0,14,,,,,,,,,,11,,77,0
141120,note_on,10,0,14,,,,,,,,,,11,,79,110
141120,note_on,480,0,2,,,,,,,,,,0,,65,50
141120,note_on,480,0,5,,,,,,,,,,3,,65,50
141230,note_on,110,0,14,,,,,,,,,,11,,79,0
141240,note_on,10,0,14,,,,,,,,,,11,,81,110
141240,note_on,120,0,2,,,,,,,,,,0,,65,0
141240,note_on,120,0,5,,,,,,,,,,3,,65,0
141330,note_on,90,0,14,,,,,,,,,,11,,81,0
141360,note_on,120,0,2,,,,,,,,,,0,,74,50
141360,note_on,120,0,5,,,,,,,,,,3,,74,50
141360,note_on,30,0,14,,,,,,,,,,11,,82,110
141480,note_on,120,0,2,,,,,,,,,,0,,74,0
141480,note_on,120,0,5,,,,,,,,,,3,,74,0
141540,note_on,180,0,14,,,,,,,,,,11,,82,0
141600,note_on,120,0,2,,,,,,,,,,0,,70,50
141600,note_on,120,0,5,,,,,,,,,,3,,70,50
141600,note_on,60,0,14,,,,,,,,,,11,,70,110
141720,note_on,120,0,14,,,,,,,,,,11,,70,0
141780,note_on,180,0,2,,,,,,,,,,0,,70,0
141780,note_on,180,0,5,,,,,,,,,,3,,70,0
141840,note_on,60,0,2,,,,,,,,,,0,,77,50
141840,note_on,60,0,5,,,,,,,,,,3,,77,50
141840,note_on,120,0,14,,,,,,,,,,11,,74,110
141900,note_on,60,0,14,,,,,,,,,,11,,72,110
141910,note_on,10,0,14,,,,,,,,,,11,,74,0
141960,note_on,50,0,14,,,,,,,,,,11,,74,110
141970,note_on,10,0,14,,,,,,,,,,11,,72,0
142020,note_on,50,0,14,,,,,,,,,,11,,72,110
142030,note_on,10,0,14,,,,,,,,,,11,,74,0
142080,note_on,240,0,5,,,,,,,,,,3,,77,0
142080,note_on,240,0,2,,,,,,,,,,0,,77,0
142260,note_on,230,0,14,,,,,,,,,,11,,72,0
142320,note_on,60,0,14,,,,,,,,,,11,,70,110
142320,note_on,240,0,5,,,,,,,,,,3,,70,50
142320,note_on,240,0,2,,,,,,,,,,0,,70,50
142560,note_on,240,0,5,,,,,,,,,,3,,70,0
142560,note_on,240,0,2,,,,,,,,,,0,,70,0
142680,note_on,360,0,14,,,,,,,,,,11,,70,0
143040,note_on,480,0,5,,,,,,,,,,3,,70,90
143040,note_on,480,0,2,,,,,,,,,,0,,70,90
143040,note_on,360,0,14,,,,,,,,,,11,,70,90
143160,note_on,120,0,5,,,,,,,,,,3,,70,0
143160,note_on,120,0,14,,,,,,,,,,11,,70,0
143160,note_on,120,0,2,,,,,,,,,,0,,70,0
143280,note_on,22680,0,3,,,,,,,,,,1,,65,90
143280,note_on,120,0,5,,,,,,,,,,3,,74,90
143280,note_on,22680,0,4,,,,,,,,,,2,,74,90
143280,note_on,22680,0,7,,,,,,,,,,5,,70,90
143280,note_on,120,0,14,,,,,,,,,,11,,65,90
143280,note_on,120,0,2,,,,,,,,,,0,,65,90
143280,note_on,22680,0,6,,,,,,,,,,4,,70,90
143370,note_on,90,0,7,,,,,,,,,,5,,70,0
143370,note_on,90,0,6,,,,,,,,,,4,,70,0
143370,note_on,90,0,5,,,,,,,,,,3,,74,0
143370,note_on,90,0,4,,,,,,,,,,2,,74,0
143400,note_on,30,0,6,,,,,,,,,,4,,69,90
143400,note_on,120,0,2,,,,,,,,,,0,,65,0
143400,note_on,30,0,7,,,,,,,,,,5,,69,90
143400,note_on,30,0,5,,,,,,,,,,3,,72,90
143400,note_on,120,0,3,,,,,,,,,,1,,65,0
143400,note_on,30,0,4,,,,,,,,,,2,,72,90
143400,note_on,120,0,14,,,,,,,,,,11,,65,0
143520,note_on,120,0,5,,,,,,,,,,3,,74,90
143520,note_on,120,0,3,,,,,,,,,,1,,70,90
143520,note_on,120,0,2,,,,,,,,,,0,,70,90
143520,note_on,120,0,4,,,,,,,,,,2,,74,90
143520,note_on,120,0,14,,,,,,,,,,11,,70,90
143520,note_on,120,0,7,,,,,,,,,,5,,70,90
143520,note_on,120,0,6,,,,,,,,,,4,,70,90
143530,note_on,10,0,6,,,,,,,,,,4,,69,0
143530,note_on,10,0,4,,,,,,,,,,2,,72,0
143530,note_on,10,0,7,,,,,,,,,,5,,69,0
143530,note_on,10,0,5,,,,,,,,,,3,,72,0
143630,note_on,100,0,7,,,,,,,,,,5,,70,0
143630,note_on,100,0,6,,,,,,,,,,4,,70,0
143630,note_on,100,0,4,,,,,,,,,,2,,74,0
143630,note_on,100,0,5,,,,,,,,,,3,,74,0
143640,note_on,10,0,4,,,,,,,,,,2,,75,90
143640,note_on,10,0,7,,,,,,,,,,5,,72,90
143640,note_on,10,0,5,,,,,,,,,,3,,75,90
143640,note_on,10,0,6,,,,,,,,,,4,,72,90
143700,note_on,180,0,2,,,,,,,,,,0,,70,0
143700,note_on,180,0,14,,,,,,,,,,11,,70,0
143700,note_on,180,0,3,,,,,,,,,,1,,70,0
143730,note_on,90,0,5,,,,,,,,,,3,,75,0
143730,note_on,90,0,4,,,,,,,,,,2,,75,0
143730,note_on,90,0,6,,,,,,,,,,4,,72,0
143730,note_on,90,0,7,,,,,,,,,,5,,72,0
143760,note_on,60,0,2,,,,,,,,,,0,,62,90
143760,note_on,60,0,14,,,,,,,,,,11,,62,90
143760,note_on,30,0,6,,,,,,,,,,4,,74,90
143760,note_on,60,0,3,,,,,,,,,,1,,62,90
143760,note_on,23280,0,11,,,,,,,,,,8,,46,90
143760,note_on,30,0,4,,,,,,,,,,2,,77,90
143760,note_on,30,0,7,,,,,,,,,,5,,74,90
143760,note_on,17520,0,8,,,,,,,,,,6,,58,90
143760,note_on,23280,0,9,,,,,,,,,,7,,58,90
143760,note_on,30,0,5,,,,,,,,,,3,,77,90
143880,note_on,120,0,7,,,,,,,,,,5,,74,0
143880,note_on,120,0,4,,,,,,,,,,2,,77,0
143880,note_on,120,0,9,,,,,,,,,,7,,58,0
143880,note_on,120,0,5,,,,,,,,,,3,,77,0
143880,note_on,120,0,8,,,,,,,,,,6,,58,0
143880,note_on,120,0,3,,,,,,,,,,1,,62,0
143880,note_on,120,0,14,,,,,,,,,,11,,62,0
143880,note_on,120,0,6,,,,,,,,,,4,,74,0
143880,note_on,120,0,2,,,,,,,,,,0,,62,0
143880,note_on,120,0,11,,,,,,,,,,8,,46,0
144000,note_on,120,0,9,,,,,,,,,,7,,46,90
144000,note_on,120,0,8,,,,,,,,,,6,,46,90
144000,note_on,120,0,2,,,,,,,,,,0,,70,90
144000,note_on,120,0,3,,,,,,,,,,1,,70,90
144000,note_on,120,0,14,,,,,,,,,,11,,70,90
144000,note_on,120,0,5,,,,,,,,,,3,,65,90
144000,note_on,120,0,7,,,,,,,,,,5,,62,90
144000,note_on,120,0,6,,,,,,,,,,4,,62,90
144000,note_on,120,0,11,,,,,,,,,,8,,34,90
144000,note_on,120,0,4,,,,,,,,,,2,,65,90
144180,note_on,180,0,6,,,,,,,,,,4,,62,0
144180,note_on,180,0,8,,,,,,,,,,6,,46,0
144180,note_on,180,0,2,,,,,,,,,,0,,70,0
144180,note_on,180,0,3,,,,,,,,,,1,,70,0
144180,note_on,180,0,7,,,,,,,,,,5,,62,0
144180,note_on,180,0,5,,,,,,,,,,3,,65,0
144180,note_on,180,0,11,,,,,,,,,,8,,34,0
144180,note_on,180,0,9,,,,,,,,,,7,,46,0
144180,note_on,180,0,14,,,,,,,,,,11,,70,0
144180,note_on,180,0,4,,,,,,,,,,2,,65,0
144240,note_on,60,0,3,,,,,,,,,,1,,75,90
144240,note_on,60,0,14,,,,,,,,,,11,,75,90
144240,note_on,60,0,2,,,,,,,,,,0,,75,90
144240,note_on,60,0,4,,,,,,,,,,2,,72,90
144240,note_on,60,0,5,,,,,,,,,,3,,72,90
144480,note_on,240,0,3,,,,,,,,,,1,,75,0
144480,note_on,240,0,2,,,,,,,,,,0,,75,0
144480,note_on,240,0,4,,,,,,,,,,2,,72,0
144480,note_on,240,0,5,,,,,,,,,,3,,72,0
144480,note_on,240,0,14,,,,,,,,,,11,,75,0
144720,note_on,240,0,2,,,,,,,,,,0,,74,90
144720,note_on,240,0,14,,,,,,,,,,11,,74,90
144720,note_on,540,0,8,,,,,,,,,,6,,58,90
144720,note_on,240,0,3,,,,,,,,,,1,,74,90
144720,note_on,240,0,4,,,,,,,,,,2,,70,90
144720,note_on,240,0,5,,,,,,,,,,3,,70,90
144720,note_on,540,0,9,,,,,,,,,,7,,58,90
144720,note_on,540,0,11,,,,,,,,,,8,,46,90
144840,note_on,120,0,8,,,,,,,,,,6,,58,0
144840,note_on,120,0,11,,,,,,,,,,8,,46,0
144840,note_on,120,0,9,,,,,,,,,,7,,58,0
144900,note_on,180,0,2,,,,,,,,,,0,,74,0
144900,note_on,180,0,14,,,,,,,,,,11,,74,0
144900,note_on,180,0,3,,,,,,,,,,1,,74,0
144960,note_on,60,0,3,,,,,,,,,,1,,70,90
144960,note_on,120,0,9,,,,,,,,,,7,,46,90
144960,note_on,120,0,8,,,,,,,,,,6,,46,90
144960,note_on,60,0,2,,,,,,,,,,0,,70,90
144960,note_on,120,0,11,,,,,,,,,,8,,34,90
144960,note_on,60,0,14,,,,,,,,,,11,,70,90
145080,note_on,360,0,5,,,,,,,,,,3,,70,0
145080,note_on,120,0,2,,,,,,,,,,0,,70,0
145080,note_on,360,0,4,,,,,,,,,,2,,70,0
145080,note_on,120,0,3,,,,,,,,,,1,,70,0
145080,note_on,120,0,14,,,,,,,,,,11,,70,0
145140,note_on,180,0,8,,,,,,,,,,6,,46,0
145140,note_on,180,0,11,,,,,,,,,,8,,34,0
145140,note_on,180,0,9,,,,,,,,,,7,,46,0
145200,note_on,120,0,3,,,,,,,,,,1,,65,90
145200,note_on,1020,0,7,,,,,,,,,,5,,70,90
145200,note_on,120,0,14,,,,,,,,,,11,,65,90
145200,note_on,120,0,4,,,,,,,,,,2,,74,90
145200,note_on,120,0,2,,,,,,,,,,0,,65,90
145200,note_on,120,0,5,,,,,,,,,,3,,74,90
145200,note_on,1020,0,6,,,,,,,,,,4,,70,90
145290,note_on,90,0,7,,,,,,,,,,5,,70,0
145290,note_on,90,0,4,,,,,,,,,,2,,74,0
145290,note_on,90,0,6,,,,,,,,,,4,,70,0
145290,note_on,90,0,5,,,,,,,,,,3,,74,0
145320,note_on,30,0,5,,,,,,,,,,3,,72,90
145320,note_on,30,0,6,,,,,,,,,,4,,69,90
145320,note_on,30,0,4,,,,,,,,,,2,,72,90
145320,note_on,120,0,14,,,,,,,,,,11,,65,0
145320,note_on,30,0,7,,,,,,,,,,5,,69,90
145320,note_on,120,0,3,,,,,,,,,,1,,65,0
145320,note_on,120,0,2,,,,,,,,,,0,,65,0
145440,note_on,120,0,14,,,,,,,,,,11,,70,90
145440,note_on,120,0,2,,,,,,,,,,0,,70,90
145440,note_on,120,0,4,,,,,,,,,,2,,74,90
145440,note_on,120,0,5,,,,,,,,,,3,,74,90
145440,note_on,120,0,6,,,,,,,,,,4,,70,90
145440,note_on,120,0,3,,,,,,,,,,1,,70,90
145440,note_on,120,0,7,,,,,,,,,,5,,70,90
145450,note_on,10,0,7,,,,,,,,,,5,,69,0
145450,note_on,10,0,5,,,,,,,,,,3,,72,0
145450,note_on,10,0,4,,,,,,,,,,2,,72,0
145450,note_on,10,0,6,,,,,,,,,,4,,69,0
145550,note_on,100,0,4,,,,,,,,,,2,,74,0
145550,note_on,100,0,5,,,,,,,,,,3,,74,0
145550,note_on,100,0,7,,,,,,,,,,5,,70,0
145550,note_on,100,0,6,,,,,,,,,,4,,70,0
145560,note_on,10,0,4,,,,,,,,,,2,,75,90
145560,note_on,10,0,6,,,,,,,,,,4,,72,90
145560,note_on,10,0,5,,,,,,,,,,3,,75,90
145560,note_on,10,0,7,,,,,,,,,,5,,72,90
145620,note_on,180,0,3,,,,,,,,,,1,,70,0
145620,note_on,180,0,2,,,,,,,,,,0,,70,0
145620,note_on,180,0,14,,,,,,,,,,11,,70,0
145650,note_on,90,0,7,,,,,,,,,,5,,72,0
145650,note_on,90,0,5,,,,,,,,,,3,,75,0
145650,note_on,90,0,4,,,,,,,,,,2,,75,0
145650,note_on,90,0,6,,,,,,,,,,4,,72,0
145680,note_on,60,0,2,,,,,,,,,,0,,62,90
145680,note_on,540,0,11,,,,,,,,,,8,,46,90
145680,note_on,60,0,14,,,,,,,,,,11,,62,90
145680,note_on,30,0,7,,,,,,,,,,5,,74,90
145680,note_on,540,0,9,,,,,,,,,,7,,58,90
145680,note_on,30,0,4,,,,,,,,,,2,,77,90
145680,note_on,540,0,8,,,,,,,,,,6,,58,90
145680,note_on,60,0,3,,,,,,,,,,1,,62,90
145680,note_on,30,0,5,,,,,,,,,,3,,77,90
145680,note_on,30,0,6,,,,,,,,,,4,,74,90
145800,note_on,120,0,4,,,,,,,,,,2,,77,0
145800,note_on,120,0,2,,,,,,,,,,0,,62,0
145800,note_on,120,0,6,,,,,,,,,,4,,74,0
145800,note_on,120,0,5,,,,,,,,,,3,,77,0
145800,note_on,120,0,11,,,,,,,,,,8,,46,0
145800,note_on,120,0,14,,,,,,,,,,11,,62,0
145800,note_on,120,0,7,,,,,,,,,,5,,74,0
145800,note_on,120,0,9,,,,,,,,,,7,,58,0
145800,note_on,120,0,3,,,,,,,,,,1,,62,0
145800,note_on,120,0,8,,,,,,,,,,6,,58,0
145920,note_on,120,0,14,,,,,,,,,,11,,70,90
145920,note_on,120,0,9,,,,,,,,,,7,,46,90
145920,note_on,120,0,3,,,,,,,,,,1,,70,90
145920,note_on,120,0,5,,,,,,,,,,3,,65,90
145920,note_on,120,0,4,,,,,,,,,,2,,65,90
145920,note_on,120,0,7,,,,,,,,,,5,,62,90
145920,note_on,120,0,6,,,,,,,,,,4,,62,90
145920,note_on,120,0,2,,,,,,,,,,0,,70,90
145920,note_on,120,0,11,,,,,,,,,,8,,34,90
145920,note_on,120,0,8,,,,,,,,,,6,,46,90
146100,note_on,180,0,11,,,,,,,,,,8,,34,0
146100,note_on,180,0,7,,,,,,,,,,5,,62,0
146100,note_on,180,0,14,,,,,,,,,,11,,70,0
146100,note_on,180,0,6,,,,,,,,,,4,,62,0
146100,note_on,180,0,2,,,,,,,,,,0,,70,0
146100,note_on,180,0,9,,,,,,,,,,7,,46,0
146100,note_on,180,0,3,,,,,,,,,,1,,70,0
146100,note_on,180,0,4,,,,,,,,,,2,,65,0
146100,note_on,180,0,5,,,,,,,,,,3,,65,0
146100,note_on,180,0,8,,,,,,,,,,6,,46,0
146160,note_on,60,0,14,,,,,,,,,,11,,79,90
146160,note_on,60,0,3,,,,,,,,,,1,,79,90
146160,note_on,60,0,5,,,,,,,,,,3,,75,90
146160,note_on,60,0,4,,,,,,,,,,2,,75,90
146160,note_on,60,0,2,,,,,,,,,,0,,79,90
146400,note_on,240,0,3,,,,,,,,,,1,,79,0
146400,note_on,240,0,4,,,,,,,,,,2,,75,0
146400,note_on,240,0,2,,,,,,,,,,0,,79,0
146400,note_on,240,0,5,,,,,,,,,,3,,75,0
146400,note_on,240,0,14,,,,,,,,,,11,,79,0
146640,note_on,240,0,2,,,,,,,,,,0,,77,90
146640,note_on,240,0,3,,,,,,,,,,1,,77,90
146640,note_on,240,0,5,,,,,,,,,,3,,74,90
146640,note_on,240,0,4,,,,,,,,,,2,,74,90
146640,note_on,540,0,9,,,,,,,,,,7,,58,90
146640,note_on,540,0,8,,,,,,,,,,6,,58,90
146640,note_on,240,0,14,,,,,,,,,,11,,77,90
146640,note_on,540,0,11,,,,,,,,,,8,,46,90
146760,note_on,120,0,9,,,,,,,,,,7,,58,0
146760,note_on,120,0,8,,,,,,,,,,6,,58,0
146760,note_on,120,0,11,,,,,,,,,,8,,46,0
146820,note_on,180,0,14,,,,,,,,,,11,,77,0
146820,note_on,180,0,3,,,,,,,,,,1,,77,0
146820,note_on,180,0,2,,,,,,,,,,0,,77,0
146880,note_on,60,0,2,,,,,,,,,,0,,70,90
146880,note_on,60,0,3,,,,,,,,,,1,,70,90
146880,note_on,60,0,14,,,,,,,,,,11,,70,90
146880,note_on,120,0,11,,,,,,,,,,8,,34,90
146880,note_on,120,0,8,,,,,,,,,,6,,46,90
146880,note_on,120,0,9,,,,,,,,,,7,,46,90
147000,note_on,360,0,5,,,,,,,,,,3,,74,0
147000,note_on,120,0,2,,,,,,,,,,0,,70,0
147000,note_on,120,0,3,,,,,,,,,,1,,70,0
147000,note_on,120,0,14,,,,,,,,,,11,,70,0
147000,note_on,360,0,4,,,,,,,,,,2,,74,0
147060,note_on,180,0,8,,,,,,,,,,6,,46,0
147060,note_on,180,0,11,,,,,,,,,,8,,34,0
147060,note_on,180,0,9,,,,,,,,,,7,,46,0
147120,note_on,120,0,5,,,,,,,,,,3,,74,90
147120,note_on,1020,0,7,,,,,,,,,,5,,70,90
147120,note_on,120,0,2,,,,,,,,,,0,,65,90
147120,note_on,1020,0,6,,,,,,,,,,4,,70,90
147120,note_on,120,0,3,,,,,,,,,,1,,65,90
147120,note_on,120,0,14,,,,,,,,,,11,,65,90
147120,note_on,120,0,4,,,,,,,,,,2,,74,90
147210,note_on,90,0,4,,,,,,,,,,2,,74,0
147210,note_on,90,0,5,,,,,,,,,,3,,74,0
147210,note_on,90,0,7,,,,,,,,,,5,,70,0
147210,note_on,90,0,6,,,,,,,,,,4,,70,0
147240,note_on,30,0,7,,,,,,,,,,5,,69,90
147240,note_on,120,0,3,,,,,,,,,,1,,65,0
147240,note_on,120,0,14,,,,,,,,,,11,,65,0
147240,note_on,30,0,5,,,,,,,,,,3,,72,90
147240,note_on,30,0,6,,,,,,,,,,4,,69,90
147240,note_on,120,0,2,,,,,,,,,,0,,65,0
147240,note_on,30,0,4,,,,,,,,,,2,,72,90
147360,note_on,120,0,4,,,,,,,,,,2,,74,90
147360,note_on,120,0,6,,,,,,,,,,4,,70,90
147360,note_on,120,0,14,,,,,,,,,,11,,70,90
147360,note_on,120,0,3,,,,,,,,,,1,,70,90
147360,note_on,120,0,5,,,,,,,,,,3,,74,90
147360,note_on,120,0,2,,,,,,,,,,0,,70,90
147360,note_on,120,0,7,,,,,,,,,,5,,70,90
147370,note_on,10,0,5,,,,,,,,,,3,,72,0
147370,note_on,10,0,4,,,,,,,,,,2,,72,0
147370,note_on,10,0,7,,,,,,,,,,5,,69,0
147370,note_on,10,0,6,,,,,,,,,,4,,69,0
147470,note_on,100,0,4,,,,,,,,,,2,,74,0
147470,note_on,100,0,6,,,,,,,,,,4,,70,0
147470,note_on,100,0,7,,,,,,,,,,5,,70,0
147470,note_on,100,0,5,,,,,,,,,,3,,74,0
147480,note_on,10,0,4,,,,,,,,,,2,,75,90
147480,note_on,10,0,6,,,,,,,,,,4,,72,90
147480,note_on,10,0,7,,,,,,,,,,5,,72,90
147480,note_on,10,0,5,,,,,,,,,,3,,75,90
147540,note_on,180,0,2,,,,,,,,,,0,,70,0
147540,note_on,180,0,14,,,,,,,,,,11,,70,0
147540,note_on,180,0,3,,,,,,,,,,1,,70,0
147570,note_on,90,0,5,,,,,,,,,,3,,75,0
147570,note_on,90,0,7,,,,,,,,,,5,,72,0
147570,note_on,90,0,6,,,,,,,,,,4,,72,0
147570,note_on,90,0,4,,,,,,,,,,2,,75,0
147600,note_on,540,0,8,,,,,,,,,,6,,58,90
147600,note_on,30,0,7,,,,,,,,,,5,,74,90
147600,note_on,540,0,11,,,,,,,,,,8,,46,90
147600,note_on,30,0,5,,,,,,,,,,3,,77,90
147600,note_on,60,0,2,,,,,,,,,,0,,62,90
147600,note_on,540,0,9,,,,,,,,,,7,,58,90
147600,note_on,60,0,3,,,,,,,,,,1,,62,90
147600,note_on,60,0,14,,,,,,,,,,11,,62,90
147600,note_on,30,0,4,,,,,,,,,,2,,77,90
147600,note_on,30,0,6,,,,,,,,,,4,,74,90
147720,note_on,120,0,9,,,,,,,,,,7,,58,0
147720,note_on,120,0,2,,,,,,,,,,0,,62,0
147720,note_on,120,0,6,,,,,,,,,,4,,74,0
147720,note_on,120,0,4,,,,,,,,,,2,,77,0
147720,note_on,120,0,5,,,,,,,,,,3,,77,0
147720,note_on,120,0,11,,,,,,,,,,8,,46,0
147720,note_on,120,0,3,,,,,,,,,,1,,62,0
147720,note_on,120,0,8,,,,,,,,,,6,,58,0
147720,note_on,120,0,14,,,,,,,,,,11,,62,0
147720,note_on,120,0,7,,,,,,,,,,5,,74,0
147840,note_on,120,0,3,,,,,,,,,,1,,70,90
147840,note_on,120,0,2,,,,,,,,,,0,,70,90
147840,note_on,120,0,11,,,,,,,,,,8,,34,90
147840,note_on,120,0,7,,,,,,,,,,5,,62,90
147840,note_on,120,0,5,,,,,,,,,,3,,65,90
147840,note_on,120,0,6,,,,,,,,,,4,,62,90
147840,note_on,120,0,9,,,,,,,,,,7,,46,90
147840,note_on,120,0,4,,,,,,,,,,2,,65,90
147840,note_on,120,0,14,,,,,,,,,,11,,70,90
147840,note_on,120,0,8,,,,,,,,,,6,,46,90
148020,note_on,180,0,4,,,,,,,,,,2,,65,0
148020,note_on,180,0,5,,,,,,,,,,3,,65,0
148020,note_on,180,0,11,,,,,,,,,,8,,34,0
148020,note_on,180,0,9,,,,,,,,,,7,,46,0
148020,note_on,180,0,14,,,,,,,,,,11,,70,0
148020,note_on,180,0,3,,,,,,,,,,1,,70,0
148020,note_on,180,0,2,,,,,,,,,,0,,70,0
148020,note_on,180,0,6,,,,,,,,,,4,,62,0
148020,note_on,180,0,8,,,,,,,,,,6,,46,0
148020,note_on,180,0,7,,,,,,,,,,5,,62,0
148080,note_on,60,0,14,,,,,,,,,,11,,82,90
148080,note_on,60,0,5,,,,,,,,,,3,,74,90
148080,note_on,60,0,3,,,,,,,,,,1,,82,90
148080,note_on,60,0,4,,,,,,,,,,2,,74,90
148080,note_on,60,0,2,,,,,,,,,,0,,82,90
148200,note_on,120,0,14,,,,,,,,,,11,,82,0
148200,note_on,120,0,3,,,,,,,,,,1,,82,0
148200,note_on,120,0,5,,,,,,,,,,3,,74,0
148200,note_on,120,0,4,,,,,,,,,,2,,74,0
148200,note_on,120,0,2,,,,,,,,,,0,,82,0
148320,note_on,120,0,4,,,,,,,,,,2,,82,90
148320,note_on,120,0,14,,,,,,,,,,11,,77,90
148320,note_on,120,0,2,,,,,,,,,,0,,77,90
148320,note_on,120,0,5,,,,,,,,,,3,,82,90
148320,note_on,120,0,3,,,,,,,,,,1,,77,90
148500,note_on,180,0,14,,,,,,,,,,11,,77,0
148500,note_on,180,0,4,,,,,,,,,,2,,82,0
148500,note_on,180,0,2,,,,,,,,,,0,,77,0
148500,note_on,180,0,5,,,,,,,,,,3,,82,0
148500,note_on,180,0,3,,,,,,,,,,1,,77,0
148560,note_on,60,0,14,,,,,,,,,,11,,74,90
148560,note_on,60,0,4,,,,,,,,,,2,,77,90
148560,note_on,540,0,9,,,,,,,,,,7,,58,90
148560,note_on,540,0,8,,,,,,,,,,6,,58,90
148560,note_on,540,0,11,,,,,,,,,,8,,46,90
148560,note_on,60,0,5,,,,,,,,,,3,,77,90
148560,note_on,60,0,2,,,,,,,,,,0,,74,90
148560,note_on,540,0,6,,,,,,,,,,4,,70,90
148560,note_on,540,0,7,,,,,,,,,,5,,70,90
148560,note_on,60,0,3,,,,,,,,,,1,,74,90
148680,note_on,120,0,4,,,,,,,,,,2,,77,0
148680,note_on,120,0,11,,,,,,,,,,8,,46,0
148680,note_on,120,0,2,,,,,,,,,,0,,74,0
148680,note_on,120,0,14,,,,,,,,,,11,,74,0
148680,note_on,120,0,9,,,,,,,,,,7,,58,0
148680,note_on,120,0,6,,,,,,,,,,4,,70,0
148680,note_on,120,0,7,,,,,,,,,,5,,70,0
148680,note_on,120,0,3,,,,,,,,,,1,,74,0
148680,note_on,120,0,8,,,,,,,,,,6,,58,0
148680,note_on,120,0,5,,,,,,,,,,3,,77,0
148800,note_on,120,0,7,,,,,,,,,,5,,65,90
148800,note_on,120,0,14,,,,,,,,,,11,,70,90
148800,note_on,120,0,4,,,,,,,,,,2,,74,90
148800,note_on,120,0,11,,,,,,,,,,8,,34,90
148800,note_on,120,0,3,,,,,,,,,,1,,70,90
148800,note_on,120,0,5,,,,,,,,,,3,,74,90
148800,note_on,120,0,9,,,,,,,,,,7,,46,90
148800,note_on,120,0,2,,,,,,,,,,0,,70,90
148800,note_on,120,0,8,,,,,,,,,,6,,46,90
148800,note_on,120,0,6,,,,,,,,,,4,,65,90
148980,note_on,180,0,11,,,,,,,,,,8,,34,0
148980,note_on,180,0,4,,,,,,,,,,2,,74,0
148980,note_on,180,0,3,,,,,,,,,,1,,70,0
148980,note_on,180,0,8,,,,,,,,,,6,,46,0
148980,note_on,180,0,2,,,,,,,,,,0,,70,0
148980,note_on,180,0,9,,,,,,,,,,7,,46,0
148980,note_on,180,0,5,,,,,,,,,,3,,74,0
148980,note_on,180,0,6,,,,,,,,,,4,,65,0
148980,note_on,180,0,7,,,,,,,,,,5,,65,0
148980,note_on,180,0,14,,,,,,,,,,11,,70,0
149040,note_on,60,0,7,,,,,,,,,,5,,57,90
149040,note_on,60,0,9,,,,,,,,,,7,,53,90
149040,note_on,60,0,4,,,,,,,,,,2,,72,90
149040,note_on,60,0,5,,,,,,,,,,3,,72,90
149040,note_on,60,0,2,,,,,,,,,,0,,65,90
149040,note_on,60,0,11,,,,,,,,,,8,,41,90
149040,note_on,60,0,3,,,,,,,,,,1,,65,90
149040,note_on,60,0,14,,,,,,,,,,11,,65,90
149040,note_on,60,0,8,,,,,,,,,,6,,53,90
149040,note_on,60,0,6,,,,,,,,,,4,,57,90
149130,note_on,90,0,8,,,,,,,,,,6,,53,0
149130,note_on,90,0,9,,,,,,,,,,7,,53,0
149130,note_on,90,0,11,,,,,,,,,,8,,41,0
149160,note_on,30,0,8,,,,,,,,,,6,,51,90
149160,note_on,30,0,11,,,,,,,,,,8,,39,90
149160,note_on,30,0,9,,,,,,,,,,7,,51,90
149280,note_on,120,0,8,,,,,,,,,,6,,53,90
149280,note_on,120,0,11,,,,,,,,,,8,,41,90
149280,note_on,120,0,9,,,,,,,,,,7,,53,90
149290,note_on,10,0,8,,,,,,,,,,6,,51,0
149290,note_on,10,0,9,,,,,,,,,,7,,51,0
149290,note_on,10,0,11,,,,,,,,,,8,,39,0
149390,note_on,100,0,9,,,,,,,,,,7,,53,0
149390,note_on,100,0,11,,,,,,,,,,8,,41,0
149390,note_on,100,0,8,,,,,,,,,,6,,53,0
149400,note_on,360,0,3,,,,,,,,,,1,,65,0
149400,note_on,360,0,7,,,,,,,,,,5,,57,0
149400,note_on,10,0,8,,,,,,,,,,6,,55,90
149400,note_on,10,0,11,,,,,,,,,,8,,43,90
149400,note_on,10,0,9,,,,,,,,,,7,,55,90
149400,note_on,360,0,6,,,,,,,,,,4,,57,0
149400,note_on,360,0,2,,,,,,,,,,0,,65,0
149400,note_on,360,0,4,,,,,,,,,,2,,72,0
149400,note_on,360,0,14,,,,,,,,,,11,,65,0
149400,note_on,360,0,5,,,,,,,,,,3,,72,0
149490,note_on,90,0,9,,,,,,,,,,7,,55,0
149490,note_on,90,0,11,,,,,,,,,,8,,43,0
149490,note_on,90,0,8,,,,,,,,,,6,,55,0
149520,note_on,30,0,9,,,,,,,,,,7,,53,90
149520,note_on,30,0,11,,,,,,,,,,8,,41,90
149520,note_on,30,0,8,,,,,,,,,,6,,53,90
149640,note_on,120,0,8,,,,,,,,,,6,,51,90
149640,note_on,120,0,9,,,,,,,,,,7,,51,90
149640,note_on,120,0,11,,,,,,,,,,8,,39,90
149650,note_on,10,0,11,,,,,,,,,,8,,41,0
149650,note_on,10,0,8,,,,,,,,,,6,,53,0
149650,note_on,10,0,9,,,,,,,,,,7,,53,0
149750,note_on,100,0,8,,,,,,,,,,6,,51,0
149750,note_on,100,0,11,,,,,,,,,,8,,39,0
149750,note_on,100,0,9,,,,,,,,,,7,,51,0
149760,note_on,360,0,14,,,,,,,,,,11,,70,90
149760,note_on,360,0,2,,,,,,,,,,0,,70,90
149760,note_on,10,0,11,,,,,,,,,,8,,38,90
149760,note_on,360,0,3,,,,,,,,,,1,,70,90
149760,note_on,10,0,9,,,,,,,,,,7,,50,90
149760,note_on,10,0,8,,,,,,,,,,6,,50,90
149850,note_on,90,0,8,,,,,,,,,,6,,50,0
149850,note_on,90,0,11,,,,,,,,,,8,,38,0
149850,note_on,90,0,9,,,,,,,,,,7,,50,0
149880,note_on,30,0,11,,,,,,,,,,8,,36,90
149880,note_on,120,0,3,,,,,,,,,,1,,70,0
149880,note_on,120,0,2,,,,,,,,,,0,,70,0
149880,note_on,30,0,8,,,,,,,,,,6,,48,90
149880,note_on,120,0,14,,,,,,,,,,11,,70,0
149880,note_on,30,0,9,,,,,,,,,,7,,48,90
149970,note_on,90,0,11,,,,,,,,,,8,,36,0
149970,note_on,90,0,8,,,,,,,,,,6,,48,0
149970,note_on,90,0,9,,,,,,,,,,7,,48,0
150000,note_on,600,0,5,,,,,,,,,,3,,74,90
150000,note_on,600,0,4,,,,,,,,,,2,,74,90
150000,note_on,30,0,11,,,,,,,,,,8,,34,90
150000,note_on,120,0,2,,,,,,,,,,0,,65,90
150000,note_on,120,0,3,,,,,,,,,,1,,65,90
150000,note_on,30,0,9,,,,,,,,,,7,,46,90
150000,note_on,120,0,14,,,,,,,,,,11,,65,90
150000,note_on,600,0,7,,,,,,,,,,5,,70,90
150000,note_on,30,0,8,,,,,,,,,,6,,46,90
150000,note_on,600,0,6,,,,,,,,,,4,,70,90
150090,note_on,90,0,5,,,,,,,,,,3,,74,0
150090,note_on,90,0,7,,,,,,,,,,5,,70,0
150090,note_on,90,0,6,,,,,,,,,,4,,70,0
150090,note_on,90,0,4,,,,,,,,,,2,,74,0
150120,note_on,30,0,7,,,,,,,,,,5,,69,90
150120,note_on,30,0,6,,,,,,,,,,4,,69,90
150120,note_on,120,0,3,,,,,,,,,,1,,65,0
150120,note_on,120,0,14,,,,,,,,,,11,,65,0
150120,note_on,30,0,4,,,,,,,,,,2,,72,90
150120,note_on,30,0,5,,,,,,,,,,3,,72,90
150120,note_on,120,0,2,,,,,,,,,,0,,65,0
150240,note_on,120,0,5,,,,,,,,,,3,,74,90
150240,note_on,120,0,3,,,,,,,,,,1,,70,90
150240,note_on,240,0,9,,,,,,,,,,7,,46,0
150240,note_on,240,0,8,,,,,,,,,,6,,46,0
150240,note_on,120,0,6,,,,,,,,,,4,,70,90
150240,note_on,120,0,7,,,,,,,,,,5,,70,90
150240,note_on,240,0,11,,,,,,,,,,8,,34,0
150240,note_on,120,0,4,,,,,,,,,,2,,74,90
150240,note_on,120,0,2,,,,,,,,,,0,,70,90
150240,note_on,120,0,14,,,,,,,,,,11,,70,90
150250,note_on,10,0,6,,,,,,,,,,4,,69,0
150250,note_on,10,0,4,,,,,,,,,,2,,72,0
150250,note_on,10,0,7,,,,,,,,,,5,,69,0
150250,note_on,10,0,5,,,,,,,,,,3,,72,0
150350,note_on,100,0,6,,,,,,,,,,4,,70,0
150350,note_on,100,0,7,,,,,,,,,,5,,70,0
150350,note_on,100,0,5,,,,,,,,,,3,,74,0
150350,note_on,100,0,4,,,,,,,,,,2,,74,0
150360,note_on,10,0,5,,,,,,,,,,3,,75,90
150360,note_on,10,0,7,,,,,,,,,,5,,72,90
150360,note_on,10,0,4,,,,,,,,,,2,,75,90
150360,note_on,10,0,6,,,,,,,,,,4,,72,90
150420,note_on,180,0,14,,,,,,,,,,11,,70,0
150420,note_on,180,0,3,,,,,,,,,,1,,70,0
150420,note_on,180,0,2,,,,,,,,,,0,,70,0
150450,note_on,90,0,4,,,,,,,,,,2,,75,0
150450,note_on,90,0,7,,,,,,,,,,5,,72,0
150450,note_on,90,0,5,,,,,,,,,,3,,75,0
150450,note_on,90,0,6,,,,,,,,,,4,,72,0
150480,note_on,30,0,6,,,,,,,,,,4,,74,90
150480,note_on,60,0,2,,,,,,,,,,0,,62,90
150480,note_on,240,0,9,,,,,,,,,,7,,58,90
150480,note_on,240,0,8,,,,,,,,,,6,,58,90
150480,note_on,30,0,4,,,,,,,,,,2,,77,90
150480,note_on,30,0,7,,,,,,,,,,5,,74,90
150480,note_on,240,0,11,,,,,,,,,,8,,46,90
150480,note_on,60,0,14,,,,,,,,,,11,,62,90
150480,note_on,30,0,5,,,,,,,,,,3,,77,90
150480,note_on,60,0,3,,,,,,,,,,1,,62,90
150600,note_on,120,0,11,,,,,,,,,,8,,46,0
150600,note_on,120,0,5,,,,,,,,,,3,,77,0
150600,note_on,120,0,2,,,,,,,,,,0,,62,0
150600,note_on,120,0,3,,,,,,,,,,1,,62,0
150600,note_on,120,0,6,,,,,,,,,,4,,74,0
150600,note_on,120,0,9,,,,,,,,,,7,,58,0
150600,note_on,120,0,8,,,,,,,,,,6,,58,0
150600,note_on,120,0,14,,,,,,,,,,11,,62,0
150600,note_on,120,0,4,,,,,,,,,,2,,77,0
150600,note_on,120,0,7,,,,,,,,,,5,,74,0
150720,note_on,120,0,7,,,,,,,,,,5,,62,90
150720,note_on,120,0,14,,,,,,,,,,11,,70,90
150720,note_on,120,0,2,,,,,,,,,,0,,70,90
150720,note_on,120,0,8,,,,,,,,,,6,,46,90
150720,note_on,120,0,4,,,,,,,,,,2,,65,90
150720,note_on,120,0,9,,,,,,,,,,7,,46,90
150720,note_on,120,0,6,,,,,,,,,,4,,62,90
150720,note_on,120,0,3,,,,,,,,,,1,,70,90
150720,note_on,120,0,11,,,,,,,,,,8,,34,90
150720,note_on,120,0,5,,,,,,,,,,3,,65,90
150900,note_on,180,0,9,,,,,,,,,,7,,46,0
150900,note_on,180,0,14,,,,,,,,,,11,,70,0
150900,note_on,180,0,7,,,,,,,,,,5,,62,0
150900,note_on,180,0,8,,,,,,,,,,6,,46,0
150900,note_on,180,0,4,,,,,,,,,,2,,65,0
150900,note_on,180,0,2,,,,,,,,,,0,,70,0
150900,note_on,180,0,3,,,,,,,,,,1,,70,0
150900,note_on,180,0,11,,,,,,,,,,8,,34,0
150900,note_on,180,0,5,,,,,,,,,,3,,65,0
150900,note_on,180,0,6,,,,,,,,,,4,,62,0
150960,note_on,60,0,5,,,,,,,,,,3,,77,90
150960,note_on,60,0,2,,,,,,,,,,0,,80,90
150960,note_on,60,0,4,,,,,,,,,,2,,77,90
150960,note_on,60,0,3,,,,,,,,,,1,,80,90
150960,note_on,60,0,14,,,,,,,,,,11,,80,90
151200,note_on,240,0,4,,,,,,,,,,2,,77,0
151200,note_on,240,0,3,,,,,,,,,,1,,80,0
151200,note_on,240,0,14,,,,,,,,,,11,,80,0
151200,note_on,240,0,2,,,,,,,,,,0,,80,0
151200,note_on,240,0,5,,,,,,,,,,3,,77,0
151440,note_on,240,0,4,,,,,,,,,,2,,75,90
151440,note_on,540,0,8,,,,,,,,,,6,,58,90
151440,note_on,240,0,5,,,,,,,,,,3,,75,90
151440,note_on,240,0,3,,,,,,,,,,1,,79,90
151440,note_on,540,0,11,,,,,,,,,,8,,46,90
151440,note_on,540,0,9,,,,,,,,,,7,,58,90
151440,note_on,240,0,14,,,,,,,,,,11,,79,90
151440,note_on,240,0,2,,,,,,,,,,0,,79,90
151560,note_on,120,0,9,,,,,,,,,,7,,58,0
151560,note_on,120,0,11,,,,,,,,,,8,,46,0
151560,note_on,120,0,8,,,,,,,,,,6,,58,0
151620,note_on,180,0,3,,,,,,,,,,1,,79,0
151620,note_on,180,0,14,,,,,,,,,,11,,79,0
151620,note_on,180,0,2,,,,,,,,,,0,,79,0
151680,note_on,120,0,11,,,,,,,,,,8,,34,90
151680,note_on,120,0,9,,,,,,,,,,7,,46,90
151680,note_on,60,0,3,,,,,,,,,,1,,70,90
151680,note_on,60,0,14,,,,,,,,,,11,,70,90
151680,note_on,120,0,8,,,,,,,,,,6,,46,90
151680,note_on,60,0,2,,,,,,,,,,0,,70,90
151800,note_on,360,0,5,,,,,,,,,,3,,75,0
151800,note_on,360,0,4,,,,,,,,,,2,,75,0
151800,note_on,120,0,2,,,,,,,,,,0,,70,0
151800,note_on,120,0,14,,,,,,,,,,11,,70,0
151800,note_on,120,0,3,,,,,,,,,,1,,70,0
151860,note_on,180,0,8,,,,,,,,,,6,,46,0
151860,note_on,180,0,11,,,,,,,,,,8,,34,0
151860,note_on,180,0,9,,,,,,,,,,7,,46,0
151920,note_on,120,0,4,,,,,,,,,,2,,74,90
151920,note_on,1020,0,7,,,,,,,,,,5,,70,90
151920,note_on,120,0,14,,,,,,,,,,11,,65,90
151920,note_on,120,0,5,,,,,,,,,,3,,74,90
151920,note_on,120,0,2,,,,,,,,,,0,,65,90
151920,note_on,120,0,3,,,,,,,,,,1,,65,90
151920,note_on,1020,0,6,,,,,,,,,,4,,70,90
152010,note_on,90,0,6,,,,,,,,,,4,,70,0
152010,note_on,90,0,5,,,,,,,,,,3,,74,0
152010,note_on,90,0,4,,,,,,,,,,2,,74,0
152010,note_on,90,0,7,,,,,,,,,,5,,70,0
152040,note_on,120,0,14,,,,,,,,,,11,,65,0
152040,note_on,30,0,5,,,,,,,,,,3,,72,90
152040,note_on,30,0,7,,,,,,,,,,5,,69,90
152040,note_on,120,0,2,,,,,,,,,,0,,65,0
152040,note_on,30,0,6,,,,,,,,,,4,,69,90
152040,note_on,30,0,4,,,,,,,,,,2,,72,90
152040,note_on,120,0,3,,,,,,,,,,1,,65,0
152160,note_on,120,0,4,,,,,,,,,,2,,74,90
152160,note_on,120,0,7,,,,,,,,,,5,,70,90
152160,note_on,120,0,5,,,,,,,,,,3,,74,90
152160,note_on,120,0,3,,,,,,,,,,1,,70,90
152160,note_on,120,0,14,,,,,,,,,,11,,70,90
152160,note_on,120,0,6,,,,,,,,,,4,,70,90
152160,note_on,120,0,2,,,,,,,,,,0,,70,90
152170,note_on,10,0,5,,,,,,,,,,3,,72,0
152170,note_on,10,0,7,,,,,,,,,,5,,69,0
152170,note_on,10,0,6,,,,,,,,,,4,,69,0
152170,note_on,10,0,4,,,,,,,,,,2,,72,0
152270,note_on,100,0,6,,,,,,,,,,4,,70,0
152270,note_on,100,0,7,,,,,,,,,,5,,70,0
152270,note_on,100,0,5,,,,,,,,,,3,,74,0
152270,note_on,100,0,4,,,,,,,,,,2,,74,0
152280,note_on,10,0,6,,,,,,,,,,4,,72,90
152280,note_on,10,0,4,,,,,,,,,,2,,75,90
152280,note_on,10,0,5,,,,,,,,,,3,,75,90
152280,note_on,10,0,7,,,,,,,,,,5,,72,90
152340,note_on,180,0,3,,,,,,,,,,1,,70,0
152340,note_on,180,0,14,,,,,,,,,,11,,70,0
152340,note_on,180,0,2,,,,,,,,,,0,,70,0
152370,note_on,90,0,6,,,,,,,,,,4,,72,0
152370,note_on,90,0,4,,,,,,,,,,2,,75,0
152370,note_on,90,0,5,,,,,,,,,,3,,75,0
152370,note_on,90,0,7,,,,,,,,,,5,,72,0
152400,note_on,540,0,11,,,,,,,,,,8,,46,90
152400,note_on,30,0,4,,,,,,,,,,2,,77,90
152400,note_on,30,0,7,,,,,,,,,,5,,74,90
152400,note_on,60,0,14,,,,,,,,,,11,,62,90
152400,note_on,30,0,6,,,,,,,,,,4,,74,90
152400,note_on,60,0,2,,,,,,,,,,0,,62,90
152400,note_on,60,0,3,,,,,,,,,,1,,62,90
152400,note_on,30,0,5,,,,,,,,,,3,,77,90
152400,note_on,540,0,9,,,,,,,,,,7,,58,90
152400,note_on,540,0,8,,,,,,,,,,6,,58,90
152520,note_on,120,0,14,,,,,,,,,,11,,62,0
152520,note_on,120,0,6,,,,,,,,,,4,,74,0
152520,note_on,120,0,3,,,,,,,,,,1,,62,0
152520,note_on,120,0,9,,,,,,,,,,7,,58,0
152520,note_on,120,0,5,,,,,,,,,,3,,77,0
152520,note_on,120,0,4,,,,,,,,,,2,,77,0
152520,note_on,120,0,2,,,,,,,,,,0,,62,0
152520,note_on,120,0,11,,,,,,,,,,8,,46,0
152520,note_on,120,0,7,,,,,,,,,,5,,74,0
152520,note_on,120,0,8,,,,,,,,,,6,,58,0
152640,note_on,120,0,14,,,,,,,,,,11,,70,90
152640,note_on,120,0,4,,,,,,,,,,2,,65,90
152640,note_on,120,0,3,,,,,,,,,,1,,70,90
152640,note_on,120,0,2,,,,,,,,,,0,,70,90
152640,note_on,120,0,11,,,,,,,,,,8,,34,90
152640,note_on,120,0,5,,,,,,,,,,3,,65,90
152640,note_on,120,0,6,,,,,,,,,,4,,62,90
152640,note_on,120,0,9,,,,,,,,,,7,,46,90
152640,note_on,120,0,8,,,,,,,,,,6,,46,90
152640,note_on,120,0,7,,,,,,,,,,5,,62,90
152820,note_on,180,0,2,,,,,,,,,,0,,70,0
152820,note_on,180,0,6,,,,,,,,,,4,,62,0
152820,note_on,180,0,14,,,,,,,,,,11,,70,0
152820,note_on,180,0,9,,,,,,,,,,7,,46,0
152820,note_on,180,0,4,,,,,,,,,,2,,65,0
152820,note_on,180,0,3,,,,,,,,,,1,,70,0
152820,note_on,180,0,5,,,,,,,,,,3,,65,0
152820,note_on,180,0,8,,,,,,,,,,6,,46,0
152820,note_on,180,0,7,,,,,,,,,,5,,62,0
152820,note_on,180,0,11,,,,,,,,,,8,,34,0
152880,note_on,60,0,4,,,,,,,,,,2,,75,90
152880,note_on,60,0,3,,,,,,,,,,1,,79,90
152880,note_on,60,0,2,,,,,,,,,,0,,79,90
152880,note_on,60,0,14,,,,,,,,,,11,,79,90
152880,note_on,60,0,5,,,,,,,,,,3,,75,90
153120,note_on,240,0,5,,,,,,,,,,3,,75,0
153120,note_on,240,0,4,,,,,,,,,,2,,75,0
153120,note_on,240,0,2,,,,,,,,,,0,,79,0
153120,note_on,240,0,14,,,,,,,,,,11,,79,0
153120,note_on,240,0,3,,,,,,,,,,1,,79,0
153360,note_on,240,0,14,,,,,,,,,,11,,77,90
153360,note_on,240,0,5,,,,,,,,,,3,,74,90
153360,note_on,240,0,2,,,,,,,,,,0,,77,90
153360,note_on,240,0,4,,,,,,,,,,2,,74,90
153360,note_on,540,0,8,,,,,,,,,,6,,58,90
153360,note_on,540,0,9,,,,,,,,,,7,,58,90
153360,note_on,540,0,11,,,,,,,,,,8,,46,90
153360,note_on,240,0,3,,,,,,,,,,1,,77,90
153480,note_on,120,0,11,,,,,,,,,,8,,46,0
153480,note_on,120,0,9,,,,,,,,,,7,,58,0
153480,note_on,120,0,8,,,,,,,,,,6,,58,0
153540,note_on,180,0,3,,,,,,,,,,1,,77,0
153540,note_on,180,0,2,,,,,,,,,,0,,77,0
153540,note_on,180,0,14,,,,,,,,,,11,,77,0
153600,note_on,120,0,8,,,,,,,,,,6,,46,90
153600,note_on,120,0,9,,,,,,,,,,7,,46,90
153600,note_on,60,0,3,,,,,,,,,,1,,70,90
153600,note_on,60,0,2,,,,,,,,,,0,,70,90
153600,note_on,120,0,11,,,,,,,,,,8,,34,90
153600,note_on,60,0,14,,,,,,,,,,11,,70,90
153720,note_on,120,0,14,,,,,,,,,,11,,70,0
153720,note_on,120,0,3,,,,,,,,,,1,,70,0
153720,note_on,120,0,2,,,,,,,,,,0,,70,0
153720,note_on,360,0,4,,,,,,,,,,2,,74,0
153720,note_on,360,0,5,,,,,,,,,,3,,74,0
153780,note_on,180,0,11,,,,,,,,,,8,,34,0
153780,note_on,180,0,8,,,,,,,,,,6,,46,0
153780,note_on,180,0,9,,,,,,,,,,7,,46,0
153840,note_on,1020,0,6,,,,,,,,,,4,,70,90
153840,note_on,120,0,4,,,,,,,,,,2,,74,90
153840,note_on,120,0,5,,,,,,,,,,3,,74,90
153840,note_on,120,0,3,,,,,,,,,,1,,65,90
153840,note_on,120,0,2,,,,,,,,,,0,,65,90
153840,note_on,120,0,14,,,,,,,,,,11,,65,90
153840,note_on,1020,0,7,,,,,,,,,,5,,70,90
153930,note_on,90,0,4,,,,,,,,,,2,,74,0
153930,note_on,90,0,5,,,,,,,,,,3,,74,0
153930,note_on,90,0,7,,,,,,,,,,5,,70,0
153930,note_on,90,0,6,,,,,,,,,,4,,70,0
153960,note_on,120,0,3,,,,,,,,,,1,,65,0
153960,note_on,120,0,2,,,,,,,,,,0,,65,0
153960,note_on,30,0,7,,,,,,,,,,5,,69,90
153960,note_on,30,0,6,,,,,,,,,,4,,69,90
153960,note_on,30,0,5,,,,,,,,,,3,,72,90
153960,note_on,120,0,14,,,,,,,,,,11,,65,0
153960,note_on,30,0,4,,,,,,,,,,2,,72,90
154080,note_on,120,0,14,,,,,,,,,,11,,70,90
154080,note_on,120,0,4,,,,,,,,,,2,,74,90
154080,note_on,120,0,2,,,,,,,,,,0,,70,90
154080,note_on,120,0,6,,,,,,,,,,4,,70,90
154080,note_on,120,0,7,,,,,,,,,,5,,70,90
154080,note_on,120,0,5,,,,,,,,,,3,,74,90
154080,note_on,120,0,3,,,,,,,,,,1,,70,90
154090,note_on,10,0,4,,,,,,,,,,2,,72,0
154090,note_on,10,0,6,,,,,,,,,,4,,69,0
154090,note_on,10,0,5,,,,,,,,,,3,,72,0
154090,note_on,10,0,7,,,,,,,,,,5,,69,0
154190,note_on,100,0,4,,,,,,,,,,2,,74,0
154190,note_on,100,0,5,,,,,,,,,,3,,74,0
154190,note_on,100,0,7,,,,,,,,,,5,,70,0
154190,note_on,100,0,6,,,,,,,,,,4,,70,0
154200,note_on,10,0,5,,,,,,,,,,3,,75,90
154200,note_on,10,0,4,,,,,,,,,,2,,75,90
154200,note_on,10,0,7,,,,,,,,,,5,,72,90
154200,note_on,10,0,6,,,,,,,,,,4,,72,90
154260,note_on,180,0,2,,,,,,,,,,0,,70,0
154260,note_on,180,0,14,,,,,,,,,,11,,70,0
154260,note_on,180,0,3,,,,,,,,,,1,,70,0
154290,note_on,90,0,4,,,,,,,,,,2,,75,0
154290,note_on,90,0,7,,,,,,,,,,5,,72,0
154290,note_on,90,0,6,,,,,,,,,,4,,72,0
154290,note_on,90,0,5,,,,,,,,,,3,,75,0
154320,note_on,60,0,14,,,,,,,,,,11,,62,90
154320,note_on,30,0,6,,,,,,,,,,4,,74,90
154320,note_on,30,0,7,,,,,,,,,,5,,74,90
154320,note_on,60,0,2,,,,,,,,,,0,,62,90
154320,note_on,540,0,8,,,,,,,,,,6,,58,90
154320,note_on,60,0,3,,,,,,,,,,1,,62,90
154320,note_on,540,0,11,,,,,,,,,,8,,46,90
154320,note_on,30,0,4,,,,,,,,,,2,,77,90
154320,note_on,30,0,5,,,,,,,,,,3,,77,90
154320,note_on,540,0,9,,,,,,,,,,7,,58,90
154440,note_on,120,0,2,,,,,,,,,,0,,62,0
154440,note_on,120,0,8,,,,,,,,,,6,,58,0
154440,note_on,120,0,3,,,,,,,,,,1,,62,0
154440,note_on,120,0,11,,,,,,,,,,8,,46,0
154440,note_on,120,0,7,,,,,,,,,,5,,74,0
154440,note_on,120,0,14,,,,,,,,,,11,,62,0
154440,note_on,120,0,5,,,,,,,,,,3,,77,0
154440,note_on,120,0,9,,,,,,,,,,7,,58,0
154440,note_on,120,0,4,,,,,,,,,,2,,77,0
154440,note_on,120,0,6,,,,,,,,,,4,,74,0
154560,note_on,120,0,14,,,,,,,,,,11,,70,90
154560,note_on,120,0,2,,,,,,,,,,0,,70,90
154560,note_on,120,0,4,,,,,,,,,,2,,65,90
154560,note_on,120,0,7,,,,,,,,,,5,,62,90
154560,note_on,120,0,9,,,,,,,,,,7,,46,90
154560,note_on,120,0,3,,,,,,,,,,1,,70,90
154560,note_on,120,0,6,,,,,,,,,,4,,62,90
154560,note_on,120,0,8,,,,,,,,,,6,,46,90
154560,note_on,120,0,11,,,,,,,,,,8,,34,90
154560,note_on,120,0,5,,,,,,,,,,3,,65,90
154740,note_on,180,0,3,,,,,,,,,,1,,70,0
154740,note_on,180,0,7,,,,,,,,,,5,,62,0
154740,note_on,180,0,11,,,,,,,,,,8,,34,0
154740,note_on,180,0,14,,,,,,,,,,11,,70,0
154740,note_on,180,0,6,,,,,,,,,,4,,62,0
154740,note_on,180,0,9,,,,,,,,,,7,,46,0
154740,note_on,180,0,4,,,,,,,,,,2,,65,0
154740,note_on,180,0,2,,,,,,,,,,0,,70,0
154740,note_on,180,0,5,,,,,,,,,,3,,65,0
154740,note_on,180,0,8,,,,,,,,,,6,,46,0
154800,note_on,60,0,6,,,,,,,,,,4,,67,90
154800,note_on,60,0,14,,,,,,,,,,11,,79,90
154800,note_on,60,0,2,,,,,,,,,,0,,79,90
154800,note_on,60,0,8,,,,,,,,,,6,,51,90
154800,note_on,60,0,11,,,,,,,,,,8,,39,90
154800,note_on,60,0,5,,,,,,,,,,3,,75,90
154800,note_on,60,0,4,,,,,,,,,,2,,75,90
154800,note_on,60,0,9,,,,,,,,,,7,,51,90
154800,note_on,60,0,3,,,,,,,,,,1,,79,90
154800,note_on,60,0,7,,,,,,,,,,5,,67,90
154920,note_on,120,0,8,,,,,,,,,,6,,51,0
154920,note_on,120,0,11,,,,,,,,,,8,,39,0
154920,note_on,120,0,6,,,,,,,,,,4,,67,0
154920,note_on,120,0,9,,,,,,,,,,7,,51,0
154920,note_on,120,0,7,,,,,,,,,,5,,67,0
155040,note_on,120,0,7,,,,,,,,,,5,,69,90
155040,note_on,120,0,6,,,,,,,,,,4,,69,90
155040,note_on,240,0,4,,,,,,,,,,2,,75,0
155040,note_on,240,0,5,,,,,,,,,,3,,75,0
155040,note_on,120,0,11,,,,,,,,,,8,,41,90
155040,note_on,120,0,9,,,,,,,,,,7,,53,90
155040,note_on,120,0,8,,,,,,,,,,6,,53,90
155040,note_on,240,0,3,,,,,,,,,,1,,79,0
155040,note_on,240,0,14,,,,,,,,,,11,,79,0
155040,note_on,240,0,2,,,,,,,,,,0,,79,0
155220,note_on,180,0,6,,,,,,,,,,4,,69,0
155220,note_on,180,0,9,,,,,,,,,,7,,53,0
155220,note_on,180,0,8,,,,,,,,,,6,,53,0
155220,note_on,180,0,11,,,,,,,,,,8,,41,0
155220,note_on,180,0,7,,,,,,,,,,5,,69,0
155280,note_on,240,0,5,,,,,,,,,,3,,74,90
155280,note_on,240,0,2,,,,,,,,,,0,,77,90
155280,note_on,60,0,9,,,,,,,,,,7,,55,90
155280,note_on,60,0,6,,,,,,,,,,4,,70,90
155280,note_on,240,0,4,,,,,,,,,,2,,74,90
155280,note_on,60,0,7,,,,,,,,,,5,,70,90
155280,note_on,240,0,3,,,,,,,,,,1,,77,90
155280,note_on,240,0,14,,,,,,,,,,11,,77,90
155280,note_on,60,0,11,,,,,,,,,,8,,43,90
155280,note_on,60,0,8,,,,,,,,,,6,,55,90
155400,note_on,120,0,8,,,,,,,,,,6,,55,0
155400,note_on,120,0,2,,,,,,,,,,0,,77,0
155400,note_on,120,0,3,,,,,,,,,,1,,77,0
155400,note_on,120,0,6,,,,,,,,,,4,,70,0
155400,note_on,120,0,7,,,,,,,,,,5,,70,0
155400,note_on,120,0,9,,,,,,,,,,7,,55,0
155400,note_on,120,0,11,,,,,,,,,,8,,43,0
155400,note_on,120,0,5,,,,,,,,,,3,,74,0
155400,note_on,120,0,14,,,,,,,,,,11,,77,0
155400,note_on,120,0,4,,,,,,,,,,2,,74,0
155520,note_on,120,0,9,,,,,,,,,,7,,57,90
155520,note_on,120,0,8,,,,,,,,,,6,,57,90
155520,note_on,120,0,5,,,,,,,,,,3,,72,90
155520,note_on,120,0,3,,,,,,,,,,1,,75,90
155520,note_on,120,0,14,,,,,,,,,,11,,75,90
155520,note_on,120,0,4,,,,,,,,,,2,,72,90
155520,note_on,120,0,2,,,,,,,,,,0,,75,90
155520,note_on,120,0,6,,,,,,,,,,4,,72,90
155520,note_on,120,0,11,,,,,,,,,,8,,45,90
155520,note_on,120,0,7,,,,,,,,,,5,,72,90
155700,note_on,180,0,7,,,,,,,,,,5,,72,0
155700,note_on,180,0,5,,,,,,,,,,3,,72,0
155700,note_on,180,0,8,,,,,,,,,,6,,57,0
155700,note_on,180,0,14,,,,,,,,,,11,,75,0
155700,note_on,180,0,2,,,,,,,,,,0,,75,0
155700,note_on,180,0,11,,,,,,,,,,8,,45,0
155700,note_on,180,0,6,,,,,,,,,,4,,72,0
155700,note_on,180,0,4,,,,,,,,,,2,,72,0
155700,note_on,180,0,3,,,,,,,,,,1,,75,0
155700,note_on,180,0,9,,,,,,,,,,7,,57,0
155760,note_on,60,0,14,,,,,,,,,,11,,74,90
155760,note_on,60,0,11,,,,,,,,,,8,,46,90
155760,note_on,60,0,6,,,,,,,,,,4,,65,90
155760,note_on,60,0,5,,,,,,,,,,3,,70,90
155760,note_on,60,0,4,,,,,,,,,,2,,70,90
155760,note_on,60,0,9,,,,,,,,,,7,,58,90
155760,note_on,60,0,2,,,,,,,,,,0,,74,90
155760,note_on,60,0,8,,,,,,,,,,6,,58,90
155760,note_on,60,0,7,,,,,,,,,,5,,65,90
155760,note_on,60,0,3,,,,,,,,,,1,,74,90
155880,note_on,120,0,9,,,,,,,,,,7,,58,0
155880,note_on,120,0,2,,,,,,,,,,0,,74,0
155880,note_on,120,0,4,,,,,,,,,,2,,70,0
155880,note_on,120,0,6,,,,,,,,,,4,,65,0
155880,note_on,120,0,3,,,,,,,,,,1,,74,0
155880,note_on,120,0,11,,,,,,,,,,8,,46,0
155880,note_on,120,0,5,,,,,,,,,,3,,70,0
155880,note_on,120,0,14,,,,,,,,,,11,,74,0
155880,note_on,120,0,7,,,,,,,,,,5,,65,0
155880,note_on,120,0,8,,,,,,,,,,6,,58,0
156000,note_on,120,0,5,,,,,,,,,,3,,62,90
156000,note_on,120,0,8,,,,,,,,,,6,,46,90
156000,note_on,120,0,2,,,,,,,,,,0,,72,90
156000,note_on,120,0,4,,,,,,,,,,2,,62,90
156000,note_on,120,0,11,,,,,,,,,,8,,34,90
156000,note_on,120,0,7,,,,,,,,,,5,,53,90
156000,note_on,120,0,3,,,,,,,,,,1,,72,90
156000,note_on,120,0,6,,,,,,,,,,4,,53,90
156000,note_on,120,0,9,,,,,,,,,,7,,46,90
156000,note_on,120,0,14,,,,,,,,,,11,,72,90
156110,note_on,110,0,3,,,,,,,,,,1,,72,0
156110,note_on,110,0,14,,,,,,,,,,11,,72,0
156110,note_on,110,0,2,,,,,,,,,,0,,72,0
156120,note_on,10,0,2,,,,,,,,,,0,,70,90
156120,note_on,10,0,3,,,,,,,,,,1,,70,90
156120,note_on,10,0,14,,,,,,,,,,11,,70,90
156180,note_on,180,0,9,,,,,,,,,,7,,46,0
156180,note_on,180,0,4,,,,,,,,,,2,,62,0
156180,note_on,180,0,6,,,,,,,,,,4,,53,0
156180,note_on,180,0,8,,,,,,,,,,6,,46,0
156180,note_on,180,0,11,,,,,,,,,,8,,34,0
156180,note_on,180,0,5,,,,,,,,,,3,,62,0
156180,note_on,180,0,7,,,,,,,,,,5,,53,0
156210,note_on,90,0,2,,,,,,,,,,0,,70,0
156210,note_on,90,0,3,,,,,,,,,,1,,70,0
156210,note_on,90,0,14,,,,,,,,,,11,,70,0
156240,note_on,60,0,6,,,,,,,,,,4,,55,90
156240,note_on,30,0,14,,,,,,,,,,11,,72,90
156240,note_on,60,0,5,,,,,,,,,,3,,63,90
156240,note_on,30,0,3,,,,,,,,,,1,,72,90
156240,note_on,60,0,8,,,,,,,,,,6,,39,90
156240,note_on,60,0,9,,,,,,,,,,7,,39,90
156240,note_on,60,0,7,,,,,,,,,,5,,55,90
156240,note_on,60,0,11,,,,,,,,,,8,,27,90
156240,note_on,30,0,2,,,,,,,,,,0,,72,90
156240,note_on,60,0,4,,,,,,,,,,2,,63,90
156360,note_on,120,0,8,,,,,,,,,,6,,39,0
156360,note_on,120,0,5,,,,,,,,,,3,,63,0
156360,note_on,120,0,3,,,,,,,,,,1,,72,0
156360,note_on,120,0,11,,,,,,,,,,8,,27,0
156360,note_on,120,0,2,,,,,,,,,,0,,72,0
156360,note_on,120,0,4,,,,,,,,,,2,,63,0
156360,note_on,120,0,7,,,,,,,,,,5,,55,0
156360,note_on,120,0,9,,,,,,,,,,7,,39,0
156360,note_on,120,0,14,,,,,,,,,,11,,72,0
156360,note_on,120,0,6,,,,,,,,,,4,,55,0
156480,note_on,120,0,7,,,,,,,,,,5,,53,90
156480,note_on,120,0,6,,,,,,,,,,4,,53,90
156480,note_on,120,0,5,,,,,,,,,,3,,60,90
156480,note_on,120,0,11,,,,,,,,,,8,,29,90
156480,note_on,120,0,3,,,,,,,,,,1,,69,90
156480,note_on,120,0,2,,,,,,,,,,0,,69,90
156480,note_on,120,0,9,,,,,,,,,,7,,41,90
156480,note_on,120,0,14,,,,,,,,,,11,,69,90
156480,note_on,120,0,4,,,,,,,,,,2,,60,90
156480,note_on,120,0,8,,,,,,,,,,6,,41,90
156660,note_on,180,0,4,,,,,,,,,,2,,60,0
156660,note_on,180,0,11,,,,,,,,,,8,,29,0
156660,note_on,180,0,5,,,,,,,,,,3,,60,0
156660,note_on,180,0,6,,,,,,,,,,4,,53,0
156660,note_on,180,0,2,,,,,,,,,,0,,69,0
156660,note_on,180,0,8,,,,,,,,,,6,,41,0
156660,note_on,180,0,14,,,,,,,,,,11,,69,0
156660,note_on,180,0,7,,,,,,,,,,5,,53,0
156660,note_on,180,0,9,,,,,,,,,,7,,41,0
156660,note_on,180,0,3,,,,,,,,,,1,,69,0
156720,note_on,60,0,9,,,,,,,,,,7,,46,90
156720,note_on,60,0,8,,,,,,,,,,6,,46,90
156720,note_on,60,0,4,,,,,,,,,,2,,58,90
156720,note_on,60,0,14,,,,,,,,,,11,,70,90
156720,note_on,60,0,7,,,,,,,,,,5,,53,90
156720,note_on,60,0,3,,,,,,,,,,1,,70,90
156720,note_on,60,0,11,,,,,,,,,,8,,34,90
156720,note_on,60,0,2,,,,,,,,,,0,,70,90
156720,note_on,60,0,6,,,,,,,,,,4,,53,90
156720,note_on,60,0,5,,,,,,,,,,3,,58,90
156810,note_on,90,0,8,,,,,,,,,,6,,46,0
156810,note_on,90,0,9,,,,,,,,,,7,,46,0
156810,note_on,90,0,11,,,,,,,,,,8,,34,0
156840,note_on,30,0,11,,,,,,,,,,8,,33,90
156840,note_on,30,0,9,,,,,,,,,,7,,45,90
156840,note_on,30,0,8,,,,,,,,,,6,,45,90
156960,note_on,120,0,11,,,,,,,,,,8,,34,90
156960,note_on,120,0,9,,,,,,,,,,7,,46,90
156960,note_on,120,0,8,,,,,,,,,,6,,46,90
156970,note_on,10,0,11,,,,,,,,,,8,,33,0
156970,note_on,10,0,9,,,,,,,,,,7,,45,0
156970,note_on,10,0,8,,,,,,,,,,6,,45,0
157070,note_on,100,0,8,,,,,,,,,,6,,46,0
157070,note_on,100,0,9,,,,,,,,,,7,,46,0
157070,note_on,100,0,11,,,,,,,,,,8,,34,0
157080,note_on,10,0,9,,,,,,,,,,7,,48,90
157080,note_on,360,0,4,,,,,,,,,,2,,58,0
157080,note_on,360,0,14,,,,,,,,,,11,,70,0
157080,note_on,360,0,3,,,,,,,,,,1,,70,0
157080,note_on,360,0,5,,,,,,,,,,3,,58,0
157080,note_on,10,0,11,,,,,,,,,,8,,36,90
157080,note_on,360,0,2,,,,,,,,,,0,,70,0
157080,note_on,360,0,7,,,,,,,,,,5,,53,0
157080,note_on,10,0,8,,,,,,,,,,6,,48,90
157080,note_on,360,0,6,,,,,,,,,,4,,53,0
157170,note_on,90,0,9,,,,,,,,,,7,,48,0
157170,note_on,90,0,11,,,,,,,,,,8,,36,0
157170,note_on,90,0,8,,,,,,,,,,6,,48,0
157200,note_on,30,0,9,,,,,,,,,,7,,50,90
157200,note_on,30,0,11,,,,,,,,,,8,,38,90
157200,note_on,30,0,8,,,,,,,,,,6,,50,90
157320,note_on,120,0,11,,,,,,,,,,8,,38,0
157320,note_on,120,0,9,,,,,,,,,,7,,50,0
157320,note_on,120,0,8,,,,,,,,,,6,,50,0
157440,note_on,120,0,9,,,,,,,,,,7,,48,50
157440,note_on,120,0,8,,,,,,,,,,6,,48,50
157440,note_on,120,0,11,,,,,,,,,,8,,36,50
157440,note_on,360,0,2,,,,,,,,,,0,,70,50
157440,note_on,360,0,14,,,,,,,,,,11,,70,50
157440,note_on,360,0,3,,,,,,,,,,1,,70,50
157560,note_on,120,0,14,,,,,,,,,,11,,70,0
157560,note_on,120,0,2,,,,,,,,,,0,,70,0
157560,note_on,120,0,3,,,,,,,,,,1,,70,0
157620,note_on,180,0,9,,,,,,,,,,7,,48,0
157620,note_on,180,0,8,,,,,,,,,,6,,48,0
157620,note_on,180,0,11,,,,,,,,,,8,,36,0
157680,note_on,60,0,9,,,,,,,,,,7,,46,50
157680,note_on,600,0,7,,,,,,,,,,5,,70,50
157680,note_on,600,0,6,,,,,,,,,,4,,70,50
157680,note_on,120,0,14,,,,,,,,,,11,,65,50
157680,note_on,600,0,5,,,,,,,,,,3,,74,50
157680,note_on,120,0,2,,,,,,,,,,0,,65,50
157680,note_on,600,0,4,,,,,,,,,,2,,74,50
157680,note_on,60,0,8,,,,,,,,,,6,,46,50
157680,note_on,60,0,11,,,,,,,,,,8,,34,50
157680,note_on,120,0,3,,,,,,,,,,1,,65,50
157770,note_on,90,0,6,,,,,,,,,,4,,70,0
157770,note_on,90,0,7,,,,,,,,,,5,,70,0
157770,note_on,90,0,5,,,,,,,,,,3,,74,0
157770,note_on,90,0,4,,,,,,,,,,2,,74,0
157800,note_on,30,0,6,,,,,,,,,,4,,69,50
157800,note_on,120,0,3,,,,,,,,,,1,,65,0
157800,note_on,30,0,7,,,,,,,,,,5,,69,50
157800,note_on,30,0,5,,,,,,,,,,3,,72,50
157800,note_on,30,0,4,,,,,,,,,,2,,72,50
157800,note_on,120,0,14,,,,,,,,,,11,,65,0
157800,note_on,120,0,2,,,,,,,,,,0,,65,0
157920,note_on,120,0,14,,,,,,,,,,11,,70,50
157920,note_on,240,0,9,,,,,,,,,,7,,46,0
157920,note_on,120,0,4,,,,,,,,,,2,,74,50
157920,note_on,120,0,5,,,,,,,,,,3,,74,50
157920,note_on,240,0,8,,,,,,,,,,6,,46,0
157920,note_on,120,0,6,,,,,,,,,,4,,70,50
157920,note_on,120,0,3,,,,,,,,,,1,,70,50
157920,note_on,240,0,11,,,,,,,,,,8,,34,0
157920,note_on,120,0,2,,,,,,,,,,0,,70,50
157920,note_on,120,0,7,,,,,,,,,,5,,70,50
157930,note_on,10,0,6,,,,,,,,,,4,,69,0
157930,note_on,10,0,5,,,,,,,,,,3,,72,0
157930,note_on,10,0,7,,,,,,,,,,5,,69,0
157930,note_on,10,0,4,,,,,,,,,,2,,72,0
158030,note_on,100,0,7,,,,,,,,,,5,,70,0
158030,note_on,100,0,4,,,,,,,,,,2,,74,0
158030,note_on,100,0,5,,,,,,,,,,3,,74,0
158030,note_on,100,0,6,,,,,,,,,,4,,70,0
158040,note_on,10,0,4,,,,,,,,,,2,,75,50
158040,note_on,10,0,5,,,,,,,,,,3,,75,50
158040,note_on,10,0,7,,,,,,,,,,5,,72,50
158040,note_on,10,0,6,,,,,,,,,,4,,72,50
158100,note_on,180,0,14,,,,,,,,,,11,,70,0
158100,note_on,180,0,2,,,,,,,,,,0,,70,0
158100,note_on,180,0,3,,,,,,,,,,1,,70,0
158130,note_on,90,0,4,,,,,,,,,,2,,75,0
158130,note_on,90,0,5,,,,,,,,,,3,,75,0
158130,note_on,90,0,6,,,,,,,,,,4,,72,0
158130,note_on,90,0,7,,,,,,,,,,5,,72,0
158160,note_on,30,0,5,,,,,,,,,,3,,77,50
158160,note_on,60,0,3,,,,,,,,,,1,,62,50
158160,note_on,30,0,6,,,,,,,,,,4,,74,50
158160,note_on,30,0,4,,,,,,,,,,2,,77,50
158160,note_on,30,0,7,,,,,,,,,,5,,74,50
158160,note_on,240,0,11,,,,,,,,,,8,,46,50
158160,note_on,60,0,2,,,,,,,,,,0,,62,50
158160,note_on,240,0,9,,,,,,,,,,7,,58,50
158160,note_on,240,0,8,,,,,,,,,,6,,58,50
158160,note_on,60,0,14,,,,,,,,,,11,,62,50
158280,note_on,120,0,7,,,,,,,,,,5,,74,0
158280,note_on,120,0,9,,,,,,,,,,7,,58,0
158280,note_on,120,0,11,,,,,,,,,,8,,46,0
158280,note_on,120,0,6,,,,,,,,,,4,,74,0
158280,note_on,120,0,14,,,,,,,,,,11,,62,0
158280,note_on,120,0,5,,,,,,,,,,3,,77,0
158280,note_on,120,0,2,,,,,,,,,,0,,62,0
158280,note_on,120,0,3,,,,,,,,,,1,,62,0
158280,note_on,120,0,8,,,,,,,,,,6,,58,0
158280,note_on,120,0,4,,,,,,,,,,2,,77,0
158400,note_on,120,0,2,,,,,,,,,,0,,70,50
158400,note_on,120,0,6,,,,,,,,,,4,,62,50
158400,note_on,120,0,3,,,,,,,,,,1,,70,50
158400,note_on,120,0,11,,,,,,,,,,8,,34,50
158400,note_on,120,0,8,,,,,,,,,,6,,46,50
158400,note_on,120,0,14,,,,,,,,,,11,,70,50
158400,note_on,120,0,4,,,,,,,,,,2,,65,50
158400,note_on,120,0,9,,,,,,,,,,7,,46,50
158400,note_on,120,0,7,,,,,,,,,,5,,62,50
158400,note_on,120,0,5,,,,,,,,,,3,,65,50
158580,note_on,180,0,6,,,,,,,,,,4,,62,0
158580,note_on,180,0,2,,,,,,,,,,0,,70,0
158580,note_on,180,0,3,,,,,,,,,,1,,70,0
158580,note_on,180,0,9,,,,,,,,,,7,,46,0
158580,note_on,180,0,11,,,,,,,,,,8,,34,0
158580,note_on,180,0,5,,,,,,,,,,3,,65,0
158580,note_on,180,0,14,,,,,,,,,,11,,70,0
158580,note_on,180,0,7,,,,,,,,,,5,,62,0
158580,note_on,180,0,4,,,,,,,,,,2,,65,0
158580,note_on,180,0,8,,,,,,,,,,6,,46,0
158640,note_on,60,0,14,,,,,,,,,,11,,80,50
158640,note_on,60,0,4,,,,,,,,,,2,,77,50
158640,note_on,60,0,3,,,,,,,,,,1,,80,50
158640,note_on,60,0,5,,,,,,,,,,3,,77,50
158640,note_on,60,0,2,,,,,,,,,,0,,80,50
158880,note_on,240,0,14,,,,,,,,,,11,,80,0
158880,note_on,240,0,4,,,,,,,,,,2,,77,0
158880,note_on,240,0,3,,,,,,,,,,1,,80,0
158880,note_on,240,0,5,,,,,,,,,,3,,77,0
158880,note_on,240,0,2,,,,,,,,,,0,,80,0
159120,note_on,240,0,4,,,,,,,,,,2,,75,50
159120,note_on,540,0,9,,,,,,,,,,7,,58,50
159120,note_on,240,0,3,,,,,,,,,,1,,79,50
159120,note_on,240,0,14,,,,,,,,,,11,,79,50
159120,note_on,240,0,5,,,,,,,,,,3,,75,50
159120,note_on,240,0,2,,,,,,,,,,0,,79,50
159120,note_on,540,0,11,,,,,,,,,,8,,46,50
159120,note_on,540,0,8,,,,,,,,,,6,,58,50
159240,note_on,120,0,11,,,,,,,,,,8,,46,0
159240,note_on,120,0,9,,,,,,,,,,7,,58,0
159240,note_on,120,0,8,,,,,,,,,,6,,58,0
159300,note_on,180,0,14,,,,,,,,,,11,,79,0
159300,note_on,180,0,3,,,,,,,,,,1,,79,0
159300,note_on,180,0,2,,,,,,,,,,0,,79,0
159360,note_on,60,0,14,,,,,,,,,,11,,70,50
159360,note_on,120,0,9,,,,,,,,,,7,,46,50
159360,note_on,120,0,8,,,,,,,,,,6,,46,50
159360,note_on,60,0,2,,,,,,,,,,0,,70,50
159360,note_on,120,0,11,,,,,,,,,,8,,34,50
159360,note_on,60,0,3,,,,,,,,,,1,,70,50
159480,note_on,120,0,2,,,,,,,,,,0,,70,0
159480,note_on,120,0,14,,,,,,,,,,11,,70,0
159480,note_on,120,0,3,,,,,,,,,,1,,70,0
159480,note_on,360,0,5,,,,,,,,,,3,,75,0
159480,note_on,360,0,4,,,,,,,,,,2,,75,0
159540,note_on,180,0,8,,,,,,,,,,6,,46,0
159540,note_on,180,0,9,,,,,,,,,,7,,46,0
159540,note_on,180,0,11,,,,,,,,,,8,,34,0
159600,note_on,1020,0,6,,,,,,,,,,4,,70,50
159600,note_on,120,0,4,,,,,,,,,,2,,74,50
159600,note_on,120,0,3,,,,,,,,,,1,,65,50
159600,note_on,120,0,5,,,,,,,,,,3,,74,50
159600,note_on,120,0,14,,,,,,,,,,11,,65,50
159600,note_on,120,0,2,,,,,,,,,,0,,65,50
159600,note_on,1020,0,7,,,,,,,,,,5,,70,50
159690,note_on,90,0,6,,,,,,,,,,4,,70,0
159690,note_on,90,0,5,,,,,,,,,,3,,74,0
159690,note_on,90,0,4,,,,,,,,,,2,,74,0
159690,note_on,90,0,7,,,,,,,,,,5,,70,0
159720,note_on,30,0,4,,,,,,,,,,2,,72,50
159720,note_on,120,0,14,,,,,,,,,,11,,65,0
159720,note_on,120,0,2,,,,,,,,,,0,,65,0
159720,note_on,30,0,7,,,,,,,,,,5,,69,50
159720,note_on,120,0,3,,,,,,,,,,1,,65,0
159720,note_on,30,0,6,,,,,,,,,,4,,69,50
159720,note_on,30,0,5,,,,,,,,,,3,,72,50
159840,note_on,120,0,4,,,,,,,,,,2,,74,50
159840,note_on,120,0,7,,,,,,,,,,5,,70,50
159840,note_on,120,0,14,,,,,,,,,,11,,70,50
159840,note_on,120,0,3,,,,,,,,,,1,,70,50
159840,note_on,120,0,6,,,,,,,,,,4,,70,50
159840,note_on,120,0,5,,,,,,,,,,3,,74,50
159840,note_on,120,0,2,,,,,,,,,,0,,70,50
159850,note_on,10,0,5,,,,,,,,,,3,,72,0
159850,note_on,10,0,6,,,,,,,,,,4,,69,0
159850,note_on,10,0,7,,,,,,,,,,5,,69,0
159850,note_on,10,0,4,,,,,,,,,,2,,72,0
159950,note_on,100,0,5,,,,,,,,,,3,,74,0
159950,note_on,100,0,7,,,,,,,,,,5,,70,0
159950,note_on,100,0,6,,,,,,,,,,4,,70,0
159950,note_on,100,0,4,,,,,,,,,,2,,74,0
159960,note_on,10,0,6,,,,,,,,,,4,,72,50
159960,note_on,10,0,5,,,,,,,,,,3,,75,50
159960,note_on,10,0,4,,,,,,,,,,2,,75,50
159960,note_on,10,0,7,,,,,,,,,,5,,72,50
160020,note_on,180,0,14,,,,,,,,,,11,,70,0
160020,note_on,180,0,3,,,,,,,,,,1,,70,0
160020,note_on,180,0,2,,,,,,,,,,0,,70,0
160050,note_on,90,0,5,,,,,,,,,,3,,75,0
160050,note_on,90,0,4,,,,,,,,,,2,,75,0
160050,note_on,90,0,6,,,,,,,,,,4,,72,0
160050,note_on,90,0,7,,,,,,,,,,5,,72,0
160080,note_on,30,0,6,,,,,,,,,,4,,74,50
160080,note_on,60,0,2,,,,,,,,,,0,,62,50
160080,note_on,60,0,3,,,,,,,,,,1,,62,50
160080,note_on,30,0,5,,,,,,,,,,3,,77,50
160080,note_on,60,0,14,,,,,,,,,,11,,62,50
160080,note_on,540,0,8,,,,,,,,,,6,,58,50
160080,note_on,30,0,4,,,,,,,,,,2,,77,50
160080,note_on,30,0,7,,,,,,,,,,5,,74,50
160080,note_on,540,0,9,,,,,,,,,,7,,58,50
160080,note_on,540,0,11,,,,,,,,,,8,,46,50
160200,note_on,120,0,5,,,,,,,,,,3,,77,0
160200,note_on,120,0,8,,,,,,,,,,6,,58,0
160200,note_on,120,0,7,,,,,,,,,,5,,74,0
160200,note_on,120,0,3,,,,,,,,,,1,,62,0
160200,note_on,120,0,6,,,,,,,,,,4,,74,0
160200,note_on,120,0,4,,,,,,,,,,2,,77,0
160200,note_on,120,0,9,,,,,,,,,,7,,58,0
160200,note_on,120,0,14,,,,,,,,,,11,,62,0
160200,note_on,120,0,2,,,,,,,,,,0,,62,0
160200,note_on,120,0,11,,,,,,,,,,8,,46,0
160320,note_on,120,0,4,,,,,,,,,,2,,65,50
160320,note_on,120,0,11,,,,,,,,,,8,,34,50
160320,note_on,120,0,6,,,,,,,,,,4,,62,50
160320,note_on,120,0,7,,,,,,,,,,5,,62,50
160320,note_on,120,0,5,,,,,,,,,,3,,65,50
160320,note_on,120,0,14,,,,,,,,,,11,,70,50
160320,note_on,120,0,2,,,,,,,,,,0,,70,50
160320,note_on,120,0,9,,,,,,,,,,7,,46,50
160320,note_on,120,0,3,,,,,,,,,,1,,70,50
160320,note_on,120,0,8,,,,,,,,,,6,,46,50
160500,note_on,180,0,3,,,,,,,,,,1,,70,0
160500,note_on,180,0,4,,,,,,,,,,2,,65,0
160500,note_on,180,0,2,,,,,,,,,,0,,70,0
160500,note_on,180,0,6,,,,,,,,,,4,,62,0
160500,note_on,180,0,14,,,,,,,,,,11,,70,0
160500,note_on,180,0,7,,,,,,,,,,5,,62,0
160500,note_on,180,0,5,,,,,,,,,,3,,65,0
160500,note_on,180,0,11,,,,,,,,,,8,,34,0
160500,note_on,180,0,8,,,,,,,,,,6,,46,0
160500,note_on,180,0,9,,,,,,,,,,7,,46,0
160560,note_on,60,0,14,,,,,,,,,,11,,79,50
160560,note_on,60,0,3,,,,,,,,,,1,,79,50
160560,note_on,60,0,2,,,,,,,,,,0,,79,50
160560,note_on,60,0,4,,,,,,,,,,2,,75,50
160560,note_on,60,0,5,,,,,,,,,,3,,75,50
160800,note_on,240,0,3,,,,,,,,,,1,,79,0
160800,note_on,240,0,2,,,,,,,,,,0,,79,0
160800,note_on,240,0,4,,,,,,,,,,2,,75,0
160800,note_on,240,0,14,,,,,,,,,,11,,79,0
160800,note_on,240,0,5,,,,,,,,,,3,,75,0
161040,note_on,240,0,4,,,,,,,,,,2,,74,50
161040,note_on,240,0,14,,,,,,,,,,11,,77,50
161040,note_on,240,0,2,,,,,,,,,,0,,77,50
161040,note_on,240,0,3,,,,,,,,,,1,,77,50
161040,note_on,540,0,8,,,,,,,,,,6,,58,50
161040,note_on,540,0,11,,,,,,,,,,8,,46,50
161040,note_on,540,0,9,,,,,,,,,,7,,58,50
161040,note_on,240,0,5,,,,,,,,,,3,,74,50
161160,note_on,120,0,11,,,,,,,,,,8,,46,0
161160,note_on,120,0,9,,,,,,,,,,7,,58,0
161160,note_on,120,0,8,,,,,,,,,,6,,58,0
161220,note_on,180,0,2,,,,,,,,,,0,,77,0
161220,note_on,180,0,3,,,,,,,,,,1,,77,0
161220,note_on,180,0,14,,,,,,,,,,11,,77,0
161280,note_on,60,0,3,,,,,,,,,,1,,70,50
161280,note_on,60,0,14,,,,,,,,,,11,,70,50
161280,note_on,120,0,8,,,,,,,,,,6,,46,50
161280,note_on,120,0,11,,,,,,,,,,8,,34,50
161280,note_on,60,0,2,,,,,,,,,,0,,70,50
161280,note_on,120,0,9,,,,,,,,,,7,,46,50
161400,note_on,120,0,3,,,,,,,,,,1,,70,0
161400,note_on,360,0,4,,,,,,,,,,2,,74,0
161400,note_on,120,0,2,,,,,,,,,,0,,70,0
161400,note_on,360,0,5,,,,,,,,,,3,,74,0
161400,note_on,120,0,14,,,,,,,,,,11,,70,0
161460,note_on,180,0,11,,,,,,,,,,8,,34,0
161460,note_on,180,0,9,,,,,,,,,,7,,46,0
161460,note_on,180,0,8,,,,,,,,,,6,,46,0
161520,note_on,1020,0,6,,,,,,,,,,4,,70,50
161520,note_on,1020,0,7,,,,,,,,,,5,,70,50
161520,note_on,120,0,14,,,,,,,,,,11,,65,50
161520,note_on,120,0,5,,,,,,,,,,3,,74,50
161520,note_on,120,0,2,,,,,,,,,,0,,65,50
161520,note_on,120,0,4,,,,,,,,,,2,,74,50
161520,note_on,120,0,3,,,,,,,,,,1,,65,50
161610,note_on,90,0,7,,,,,,,,,,5,,70,0
161610,note_on,90,0,5,,,,,,,,,,3,,74,0
161610,note_on,90,0,4,,,,,,,,,,2,,74,0
161610,note_on,90,0,6,,,,,,,,,,4,,70,0
161640,note_on,30,0,7,,,,,,,,,,5,,69,50
161640,note_on,120,0,2,,,,,,,,,,0,,65,0
161640,note_on,120,0,14,,,,,,,,,,11,,65,0
161640,note_on,30,0,5,,,,,,,,,,3,,72,50
161640,note_on,30,0,4,,,,,,,,,,2,,72,50
161640,note_on,30,0,6,,,,,,,,,,4,,69,50
161640,note_on,120,0,3,,,,,,,,,,1,,65,0
161760,note_on,120,0,2,,,,,,,,,,0,,70,50
161760,note_on,120,0,5,,,,,,,,,,3,,74,50
161760,note_on,120,0,4,,,,,,,,,,2,,74,50
161760,note_on,120,0,6,,,,,,,,,,4,,70,50
161760,note_on,120,0,14,,,,,,,,,,11,,70,50
161760,note_on,120,0,7,,,,,,,,,,5,,70,50
161760,note_on,120,0,3,,,,,,,,,,1,,70,50
161770,note_on,10,0,6,,,,,,,,,,4,,69,0
161770,note_on,10,0,4,,,,,,,,,,2,,72,0
161770,note_on,10,0,7,,,,,,,,,,5,,69,0
161770,note_on,10,0,5,,,,,,,,,,3,,72,0
161870,note_on,100,0,4,,,,,,,,,,2,,74,0
161870,note_on,100,0,6,,,,,,,,,,4,,70,0
161870,note_on,100,0,7,,,,,,,,,,5,,70,0
161870,note_on,100,0,5,,,,,,,,,,3,,74,0
161880,note_on,10,0,4,,,,,,,,,,2,,75,50
161880,note_on,10,0,5,,,,,,,,,,3,,75,50
161880,note_on,10,0,6,,,,,,,,,,4,,72,50
161880,note_on,10,0,7,,,,,,,,,,5,,72,50
161940,note_on,180,0,14,,,,,,,,,,11,,70,0
161940,note_on,180,0,3,,,,,,,,,,1,,70,0
161940,note_on,180,0,2,,,,,,,,,,0,,70,0
161970,note_on,90,0,4,,,,,,,,,,2,,75,0
161970,note_on,90,0,7,,,,,,,,,,5,,72,0
161970,note_on,90,0,5,,,,,,,,,,3,,75,0
161970,note_on,90,0,6,,,,,,,,,,4,,72,0
162000,note_on,60,0,14,,,,,,,,,,11,,62,50
162000,note_on,30,0,4,,,,,,,,,,2,,77,50
162000,note_on,540,0,8,,,,,,,,,,6,,58,50
162000,note_on,540,0,11,,,,,,,,,,8,,46,50
162000,note_on,60,0,2,,,,,,,,,,0,,62,50
162000,note_on,30,0,7,,,,,,,,,,5,,74,50
162000,note_on,30,0,5,,,,,,,,,,3,,77,50
162000,note_on,540,0,9,,,,,,,,,,7,,58,50
162000,note_on,60,0,3,,,,,,,,,,1,,62,50
162000,note_on,30,0,6,,,,,,,,,,4,,74,50
162120,note_on,120,0,3,,,,,,,,,,1,,62,0
162120,note_on,120,0,6,,,,,,,,,,4,,74,0
162120,note_on,120,0,7,,,,,,,,,,5,,74,0
162120,note_on,120,0,11,,,,,,,,,,8,,46,0
162120,note_on,120,0,8,,,,,,,,,,6,,58,0
162120,note_on,120,0,9,,,,,,,,,,7,,58,0
162120,note_on,120,0,2,,,,,,,,,,0,,62,0
162120,note_on,120,0,4,,,,,,,,,,2,,77,0
162120,note_on,120,0,5,,,,,,,,,,3,,77,0
162120,note_on,120,0,14,,,,,,,,,,11,,62,0
162240,note_on,120,0,4,,,,,,,,,,2,,65,50
162240,note_on,120,0,11,,,,,,,,,,8,,34,50
162240,note_on,120,0,8,,,,,,,,,,6,,46,50
162240,note_on,120,0,9,,,,,,,,,,7,,46,50
162240,note_on,120,0,2,,,,,,,,,,0,,70,50
162240,note_on,120,0,6,,,,,,,,,,4,,62,50
162240,note_on,120,0,3,,,,,,,,,,1,,70,50
162240,note_on,120,0,5,,,,,,,,,,3,,65,50
162240,note_on,120,0,7,,,,,,,,,,5,,62,50
162240,note_on,120,0,14,,,,,,,,,,11,,70,50
162420,note_on,180,0,14,,,,,,,,,,11,,70,0
162420,note_on,180,0,5,,,,,,,,,,3,,65,0
162420,note_on,180,0,2,,,,,,,,,,0,,70,0
162420,note_on,180,0,9,,,,,,,,,,7,,46,0
162420,note_on,180,0,6,,,,,,,,,,4,,62,0
162420,note_on,180,0,4,,,,,,,,,,2,,65,0
162420,note_on,180,0,7,,,,,,,,,,5,,62,0
162420,note_on,180,0,3,,,,,,,,,,1,,70,0
162420,note_on,180,0,11,,,,,,,,,,8,,34,0
162420,note_on,180,0,8,,,,,,,,,,6,,46,0
162480,note_on,60,0,7,,,,,,,,,,5,,67,50
162480,note_on,60,0,9,,,,,,,,,,7,,51,50
162480,note_on,60,0,5,,,,,,,,,,3,,75,50
162480,note_on,60,0,11,,,,,,,,,,8,,39,50
162480,note_on,60,0,8,,,,,,,,,,6,,51,50
162480,note_on,60,0,2,,,,,,,,,,0,,79,50
162480,note_on,60,0,6,,,,,,,,,,4,,67,50
162480,note_on,60,0,3,,,,,,,,,,1,,79,50
162480,note_on,60,0,14,,,,,,,,,,11,,79,50
162480,note_on,60,0,4,,,,,,,,,,2,,75,50
162600,note_on,120,0,6,,,,,,,,,,4,,67,0
162600,note_on,120,0,11,,,,,,,,,,8,,39,0
162600,note_on,120,0,8,,,,,,,,,,6,,51,0
162600,note_on,120,0,7,,,,,,,,,,5,,67,0
162600,note_on,120,0,9,,,,,,,,,,7,,51,0
162720,note_on,240,0,4,,,,,,,,,,2,,75,0
162720,note_on,120,0,11,,,,,,,,,,8,,41,50
162720,note_on,240,0,3,,,,,,,,,,1,,79,0
162720,note_on,240,0,14,,,,,,,,,,11,,79,0
162720,note_on,120,0,9,,,,,,,,,,7,,53,50
162720,note_on,120,0,8,,,,,,,,,,6,,53,50
162720,note_on,120,0,6,,,,,,,,,,4,,69,50
162720,note_on,120,0,7,,,,,,,,,,5,,69,50
162720,note_on,240,0,5,,,,,,,,,,3,,75,0
162720,note_on,240,0,2,,,,,,,,,,0,,79,0
162900,note_on,180,0,11,,,,,,,,,,8,,41,0
162900,note_on,180,0,7,,,,,,,,,,5,,69,0
162900,note_on,180,0,6,,,,,,,,,,4,,69,0
162900,note_on,180,0,9,,,,,,,,,,7,,53,0
162900,note_on,180,0,8,,,,,,,,,,6,,53,0
162960,note_on,240,0,4,,,,,,,,,,2,,74,50
162960,note_on,60,0,8,,,,,,,,,,6,,55,50
162960,note_on,60,0,7,,,,,,,,,,5,,70,50
162960,note_on,240,0,3,,,,,,,,,,1,,77,50
162960,note_on,240,0,5,,,,,,,,,,3,,74,50
162960,note_on,60,0,9,,,,,,,,,,7,,55,50
162960,note_on,240,0,2,,,,,,,,,,0,,77,50
162960,note_on,60,0,11,,,,,,,,,,8,,43,50
162960,note_on,240,0,14,,,,,,,,,,11,,77,50
162960,note_on,60,0,6,,,,,,,,,,4,,70,50
163080,note_on,120,0,14,,,,,,,,,,11,,77,0
163080,note_on,120,0,11,,,,,,,,,,8,,43,0
163080,note_on,120,0,6,,,,,,,,,,4,,70,0
163080,note_on,120,0,2,,,,,,,,,,0,,77,0
163080,note_on,120,0,5,,,,,,,,,,3,,74,0
163080,note_on,120,0,8,,,,,,,,,,6,,55,0
163080,note_on,120,0,4,,,,,,,,,,2,,74,0
163080,note_on,120,0,3,,,,,,,,,,1,,77,0
163080,note_on,120,0,7,,,,,,,,,,5,,70,0
163080,note_on,120,0,9,,,,,,,,,,7,,55,0
163200,note_on,120,0,2,,,,,,,,,,0,,75,50
163200,note_on,120,0,8,,,,,,,,,,6,,57,50
163200,note_on,120,0,11,,,,,,,,,,8,,45,50
163200,note_on,120,0,5,,,,,,,,,,3,,72,50
163200,note_on,120,0,14,,,,,,,,,,11,,75,50
163200,note_on,120,0,4,,,,,,,,,,2,,72,50
163200,note_on,120,0,3,,,,,,,,,,1,,75,50
163200,note_on,120,0,9,,,,,,,,,,7,,57,50
163200,note_on,120,0,6,,,,,,,,,,4,,72,50
163200,note_on,120,0,7,,,,,,,,,,5,,72,50
163380,note_on,180,0,4,,,,,,,,,,2,,72,0
163380,note_on,180,0,11,,,,,,,,,,8,,45,0
163380,note_on,180,0,9,,,,,,,,,,7,,57,0
163380,note_on,180,0,7,,,,,,,,,,5,,72,0
163380,note_on,180,0,14,,,,,,,,,,11,,75,0
163380,note_on,180,0,2,,,,,,,,,,0,,75,0
163380,note_on,180,0,3,,,,,,,,,,1,,75,0
163380,note_on,180,0,5,,,,,,,,,,3,,72,0
163380,note_on,180,0,6,,,,,,,,,,4,,72,0
163380,note_on,180,0,8,,,,,,,,,,6,,57,0
163440,note_on,60,0,14,,,,,,,,,,11,,74,50
163440,note_on,60,0,5,,,,,,,,,,3,,70,50
163440,note_on,60,0,8,,,,,,,,,,6,,58,50
163440,note_on,60,0,11,,,,,,,,,,8,,46,50
163440,note_on,60,0,4,,,,,,,,,,2,,70,50
163440,note_on,60,0,7,,,,,,,,,,5,,65,50
163440,note_on,60,0,6,,,,,,,,,,4,,65,50
163440,note_on,60,0,3,,,,,,,,,,1,,74,50
163440,note_on,60,0,2,,,,,,,,,,0,,74,50
163440,note_on,60,0,9,,,,,,,,,,7,,58,50
163560,note_on,120,0,8,,,,,,,,,,6,,58,0
163560,note_on,120,0,5,,,,,,,,,,3,,70,0
163560,note_on,120,0,2,,,,,,,,,,0,,74,0
163560,note_on,120,0,6,,,,,,,,,,4,,65,0
163560,note_on,120,0,7,,,,,,,,,,5,,65,0
163560,note_on,120,0,3,,,,,,,,,,1,,74,0
163560,note_on,120,0,14,,,,,,,,,,11,,74,0
163560,note_on,120,0,11,,,,,,,,,,8,,46,0
163560,note_on,120,0,9,,,,,,,,,,7,,58,0
163560,note_on,120,0,4,,,,,,,,,,2,,70,0
163680,note_on,120,0,6,,,,,,,,,,4,,53,50
163680,note_on,120,0,2,,,,,,,,,,0,,72,50
163680,note_on,120,0,7,,,,,,,,,,5,,53,50
163680,note_on,120,0,9,,,,,,,,,,7,,46,50
163680,note_on,120,0,4,,,,,,,,,,2,,62,50
163680,note_on,120,0,14,,,,,,,,,,11,,72,50
163680,note_on,120,0,3,,,,,,,,,,1,,72,50
163680,note_on,120,0,8,,,,,,,,,,6,,46,50
163680,note_on,120,0,5,,,,,,,,,,3,,62,50
163680,note_on,120,0,11,,,,,,,,,,8,,34,50
163790,note_on,110,0,3,,,,,,,,,,1,,72,0
163790,note_on,110,0,2,,,,,,,,,,0,,72,0
163790,note_on,110,0,14,,,,,,,,,,11,,72,0
163800,note_on,10,0,14,,,,,,,,,,11,,70,50
163800,note_on,10,0,3,,,,,,,,,,1,,70,50
163800,note_on,10,0,2,,,,,,,,,,0,,70,50
163860,note_on,180,0,11,,,,,,,,,,8,,34,0
163860,note_on,180,0,9,,,,,,,,,,7,,46,0
163860,note_on,180,0,5,,,,,,,,,,3,,62,0
163860,note_on,180,0,8,,,,,,,,,,6,,46,0
163860,note_on,180,0,7,,,,,,,,,,5,,53,0
163860,note_on,180,0,4,,,,,,,,,,2,,62,0
163860,note_on,180,0,6,,,,,,,,,,4,,53,0
163890,note_on,90,0,14,,,,,,,,,,11,,70,0
163890,note_on,90,0,2,,,,,,,,,,0,,70,0
163890,note_on,90,0,3,,,,,,,,,,1,,70,0
163920,note_on,60,0,6,,,,,,,,,,4,,55,50
163920,note_on,60,0,7,,,,,,,,,,5,,55,50
163920,note_on,30,0,14,,,,,,,,,,11,,72,50
163920,note_on,60,0,8,,,,,,,,,,6,,39,50
163920,note_on,60,0,9,,,,,,,,,,7,,39,50
163920,note_on,30,0,3,,,,,,,,,,1,,72,50
163920,note_on,60,0,5,,,,,,,,,,3,,63,50
163920,note_on,60,0,11,,,,,,,,,,8,,27,50
163920,note_on,30,0,2,,,,,,,,,,0,,72,50
163920,note_on,60,0,4,,,,,,,,,,2,,63,50
164040,note_on,120,0,4,,,,,,,,,,2,,63,0
164040,note_on,120,0,2,,,,,,,,,,0,,72,0
164040,note_on,120,0,5,,,,,,,,,,3,,63,0
164040,note_on,120,0,3,,,,,,,,,,1,,72,0
164040,note_on,120,0,7,,,,,,,,,,5,,55,0
164040,note_on,120,0,8,,,,,,,,,,6,,39,0
164040,note_on,120,0,9,,,,,,,,,,7,,39,0
164040,note_on,120,0,11,,,,,,,,,,8,,27,0
164040,note_on,120,0,6,,,,,,,,,,4,,55,0
164040,note_on,120,0,14,,,,,,,,,,11,,72,0
164160,note_on,120,0,4,,,,,,,,,,2,,60,50
164160,note_on,120,0,9,,,,,,,,,,7,,41,50
164160,note_on,120,0,11,,,,,,,,,,8,,29,50
164160,note_on,120,0,6,,,,,,,,,,4,,53,50
164160,note_on,120,0,3,,,,,,,,,,1,,69,50
164160,note_on,120,0,7,,,,,,,,,,5,,53,50
164160,note_on,120,0,2,,,,,,,,,,0,,69,50
164160,note_on,120,0,14,,,,,,,,,,11,,69,50
164160,note_on,120,0,5,,,,,,,,,,3,,60,50
164160,note_on,120,0,8,,,,,,,,,,6,,41,50
164340,note_on,180,0,14,,,,,,,,,,11,,69,0
164340,note_on,180,0,7,,,,,,,,,,5,,53,0
164340,note_on,180,0,4,,,,,,,,,,2,,60,0
164340,note_on,180,0,9,,,,,,,,,,7,,41,0
164340,note_on,180,0,11,,,,,,,,,,8,,29,0
164340,note_on,180,0,5,,,,,,,,,,3,,60,0
164340,note_on,180,0,6,,,,,,,,,,4,,53,0
164340,note_on,180,0,3,,,,,,,,,,1,,69,0
164340,note_on,180,0,2,,,,,,,,,,0,,69,0
164340,note_on,180,0,8,,,,,,,,,,6,,41,0
164400,note_on,60,0,11,,,,,,,,,,8,,34,50
164400,note_on,60,0,9,,,,,,,,,,7,,46,50
164400,note_on,60,0,2,,,,,,,,,,0,,70,50
164400,note_on,60,0,4,,,,,,,,,,2,,65,50
164400,note_on,60,0,6,,,,,,,,,,4,,53,50
164400,note_on,60,0,3,,,,,,,,,,1,,70,50
164400,note_on,60,0,14,,,,,,,,,,11,,70,50
164400,note_on,60,0,7,,,,,,,,,,5,,53,50
164400,note_on,60,0,5,,,,,,,,,,3,,62,50
164400,note_on,60,0,8,,,,,,,,,,6,,46,50
165000,note_on,600,0,8,,,,,,,,,,6,,46,0
165000,note_on,600,0,14,,,,,,,,,,11,,70,0
165000,note_on,600,0,4,,,,,,,,,,2,,65,0
165000,note_on,600,0,5,,,,,,,,,,3,,62,0
165000,note_on,600,0,11,,,,,,,,,,8,,34,0
165000,note_on,600,0,7,,,,,,,,,,5,,53,0
165000,note_on,600,0,3,,,,,,,,,,1,,70,0
165000,note_on,600,0,6,,,,,,,,,,4,,53,0
165000,note_on,600,0,9,,,,,,,,,,7,,46,0
165000,note_on,600,0,2,,,,,,,,,,0,,70,0
165360,end_of_track,360,1,9,,,,,,,,,,,,,
165360,end_of_track,360,1,11,,,,,,,,,,,,,
165360,end_of_track,360,1,8,,,,,,,,,,,,,
165360,end_of_track,360,1,5,,,,,,,,,,,,,
165360,end_of_track,360,1,7,,,,,,,,,,,,,
165360,end_of_track,360,1,14,,,,,,,,,,,,,
165360,end_of_track,360,1,4,,,,,,,,,,,,,
165360,end_of_track,360,1,3,,,,,,,,,,,,,
165360,end_of_track,360,1,2,,,,,,,,,,,,,
165360,end_of_track,360,1,6,,,,,,,,,,,,,
